<?xml version="1.0" encoding="UTF-8"?>
<svg xmlns="http://www.w3.org/2000/svg" xmlns:xlink="http://www.w3.org/1999/xlink" viewBox="0 0 99.27 122.1">
  <defs>
    <style>
      .cls-1 {
        fill: url(#_Áåçûìÿííûé_ãðàäèåíò_271-16);
      }

      .cls-1, .cls-2, .cls-3, .cls-4, .cls-5, .cls-6, .cls-7, .cls-8, .cls-9, .cls-10, .cls-11, .cls-12, .cls-13, .cls-14, .cls-15, .cls-16, .cls-17, .cls-18, .cls-19, .cls-20, .cls-21, .cls-22, .cls-23 {
        mix-blend-mode: multiply;
      }

      .cls-1, .cls-2, .cls-3, .cls-4, .cls-5, .cls-6, .cls-7, .cls-8, .cls-9, .cls-10, .cls-11, .cls-12, .cls-13, .cls-14, .cls-15, .cls-16, .cls-18, .cls-19, .cls-20, .cls-21, .cls-22, .cls-23 {
        opacity: .4;
      }

      .cls-24 {
        fill: url(#_Áåçûìÿííûé_ãðàäèåíò_42-2);
      }

      .cls-2 {
        fill: url(#_Áåçûìÿííûé_ãðàäèåíò_271-7);
      }

      .cls-3 {
        fill: url(#_Áåçûìÿííûé_ãðàäèåíò_271-21);
      }

      .cls-25 {
        fill: url(#_Áåçûìÿííûé_ãðàäèåíò_42);
      }

      .cls-4 {
        fill: url(#_Áåçûìÿííûé_ãðàäèåíò_271-9);
      }

      .cls-5 {
        fill: url(#_Áåçûìÿííûé_ãðàäèåíò_271-12);
      }

      .cls-6 {
        fill: url(#_Áåçûìÿííûé_ãðàäèåíò_271-5);
      }

      .cls-26 {
        fill: url(#_Áåçûìÿííûé_ãðàäèåíò_215-2);
      }

      .cls-27 {
        isolation: isolate;
      }

      .cls-28 {
        fill: #3f2f49;
      }

      .cls-7 {
        fill: url(#_Áåçûìÿííûé_ãðàäèåíò_271-10);
      }

      .cls-8 {
        fill: url(#_Áåçûìÿííûé_ãðàäèåíò_271);
      }

      .cls-9 {
        fill: url(#_Áåçûìÿííûé_ãðàäèåíò_271-22);
      }

      .cls-10 {
        fill: url(#_Áåçûìÿííûé_ãðàäèåíò_271-11);
      }

      .cls-11 {
        fill: url(#_Áåçûìÿííûé_ãðàäèåíò_271-20);
      }

      .cls-12 {
        fill: url(#_Áåçûìÿííûé_ãðàäèåíò_271-2);
      }

      .cls-29 {
        fill: url(#_Áåçûìÿííûé_ãðàäèåíò_9);
      }

      .cls-13 {
        fill: url(#_Áåçûìÿííûé_ãðàäèåíò_271-15);
      }

      .cls-30 {
        fill: url(#_Áåçûìÿííûé_ãðàäèåíò_42-3);
      }

      .cls-14 {
        fill: url(#_Áåçûìÿííûé_ãðàäèåíò_271-4);
      }

      .cls-15 {
        fill: url(#_Áåçûìÿííûé_ãðàäèåíò_271-14);
      }

      .cls-31 {
        fill: url(#_Áåçûìÿííûé_ãðàäèåíò_215);
      }

      .cls-16 {
        fill: url(#_Áåçûìÿííûé_ãðàäèåíò_271-8);
      }

      .cls-17 {
        fill: #88546d;
        opacity: .6;
      }

      .cls-18 {
        fill: url(#_Áåçûìÿííûé_ãðàäèåíò_271-19);
      }

      .cls-32 {
        fill: #594463;
      }

      .cls-19 {
        fill: url(#_Áåçûìÿííûé_ãðàäèåíò_271-17);
      }

      .cls-20 {
        fill: url(#_Áåçûìÿííûé_ãðàäèåíò_271-6);
      }

      .cls-21 {
        fill: url(#_Áåçûìÿííûé_ãðàäèåíò_271-18);
      }

      .cls-22 {
        fill: url(#_Áåçûìÿííûé_ãðàäèåíò_271-13);
      }

      .cls-23 {
        fill: url(#_Áåçûìÿííûé_ãðàäèåíò_271-3);
      }
    </style>
    <radialGradient id="_Áåçûìÿííûé_ãðàäèåíò_215" data-name="Áåçûìÿííûé ãðàäèåíò 215" cx="88.47" cy="58.99" fx="88.47" fy="58.99" r="82.06" gradientUnits="userSpaceOnUse">
      <stop offset=".03" stop-color="#a9a0a3"/>
      <stop offset=".99" stop-color="#8c88a3"/>
    </radialGradient>
    <linearGradient id="_Áåçûìÿííûé_ãðàäèåíò_271" data-name="Áåçûìÿííûé ãðàäèåíò 271" x1="-1854.97" y1="-529.84" x2="-1844.23" y2="-529.84" gradientTransform="translate(633.86 -1728.45) rotate(-89.24)" gradientUnits="userSpaceOnUse">
      <stop offset="0" stop-color="#fff"/>
      <stop offset=".98" stop-color="#aa0038"/>
    </linearGradient>
    <linearGradient id="_Áåçûìÿííûé_ãðàäèåíò_271-2" data-name="Áåçûìÿííûé ãðàäèåíò 271" x1="699.28" y1="-526.96" x2="709.91" y2="-526.96" gradientTransform="translate(619.4 -687.59) rotate(90.76) scale(1 -1)" xlink:href="#_Áåçûìÿííûé_ãðàäèåíò_271"/>
    <radialGradient id="_Áåçûìÿííûé_ãðàäèåíò_215-2" data-name="Áåçûìÿííûé ãðàäèåíò 215" cx="32.81" cy="56.46" fx="32.81" fy="56.46" r="50.43" xlink:href="#_Áåçûìÿííûé_ãðàäèåíò_215"/>
    <linearGradient id="_Áåçûìÿííûé_ãðàäèåíò_271-3" data-name="Áåçûìÿííûé ãðàäèåíò 271" x1="254.07" y1="-516.42" x2="361.5" y2="-601.45" gradientTransform="translate(598.64 -233.88) rotate(91.77) scale(1.18 -1)" xlink:href="#_Áåçûìÿííûé_ãðàäèåíò_271"/>
    <linearGradient id="_Áåçûìÿííûé_ãðàäèåíò_271-4" data-name="Áåçûìÿííûé ãðàäèåíò 271" x1="-1837.74" y1="-538" x2="-1828.21" y2="-545.54" xlink:href="#_Áåçûìÿííûé_ãðàäèåíò_271"/>
    <linearGradient id="_Áåçûìÿííûé_ãðàäèåíò_271-5" data-name="Áåçûìÿííûé ãðàäèåíò 271" x1="476.37" y1="-1917.21" x2="474.57" y2="-1979.65" gradientTransform="translate(-1901.78 -434.87) rotate(90.76)" xlink:href="#_Áåçûìÿííûé_ãðàäèåíò_271"/>
    <radialGradient id="_Áåçûìÿííûé_ãðàäèåíò_42" data-name="Áåçûìÿííûé ãðàäèåíò 42" cx="-148.29" cy="-2754.56" fx="-148.29" fy="-2754.56" r="31.52" gradientTransform="translate(428.37 -2094.31) rotate(4.74) scale(.82 -.78) skewX(2.21)" gradientUnits="userSpaceOnUse">
      <stop offset="0" stop-color="#ffb500"/>
      <stop offset="1" stop-color="#ffb72d"/>
    </radialGradient>
    <linearGradient id="_Áåçûìÿííûé_ãðàäèåíò_271-6" data-name="Áåçûìÿííûé ãðàäèåíò 271" x1="42.36" y1="6.35" x2="43.67" y2="37.65" gradientTransform="matrix(1,0,0,1,0,0)" xlink:href="#_Áåçûìÿííûé_ãðàäèåíò_271"/>
    <linearGradient id="_Áåçûìÿííûé_ãðàäèåíò_271-7" data-name="Áåçûìÿííûé ãðàäèåíò 271" x1="-153.56" y1="-2432.27" x2="-144.73" y2="-2454.85" gradientTransform="translate(429.59 -2294.92) rotate(5.79) scale(.83 -.96)" xlink:href="#_Áåçûìÿííûé_ãðàäèåíò_271"/>
    <radialGradient id="_Áåçûìÿííûé_ãðàäèåíò_42-2" data-name="Áåçûìÿííûé ãðàäèåíò 42" cx="-398.24" cy="358.94" fx="-398.24" fy="358.94" r="31.52" gradientTransform="translate(357.84 -196.85) rotate(-1.4) scale(.83 .81) skewX(.85)" xlink:href="#_Áåçûìÿííûé_ãðàäèåíò_42"/>
    <linearGradient id="_Áåçûìÿííûé_ãðàäèåíò_271-8" data-name="Áåçûìÿííûé ãðàäèåíò 271" x1="38.47" y1="125.37" x2="44.47" y2="78.33" gradientTransform="matrix(1,0,0,1,0,0)" xlink:href="#_Áåçûìÿííûé_ãðàäèåíò_271"/>
    <linearGradient id="_Áåçûìÿííûé_ãðàäèåíò_271-9" data-name="Áåçûìÿííûé ãðàäèåíò 271" x1="-357.13" y1="57.24" x2="-348.26" y2="34.56" gradientTransform="translate(356.81 47.68) rotate(-1.78) scale(.83 1)" xlink:href="#_Áåçûìÿííûé_ãðàäèåíò_271"/>
    <radialGradient id="_Áåçûìÿííûé_ãðàäèåíò_42-3" data-name="Áåçûìÿííûé ãðàäèåíò 42" cx="975.38" cy="-470.1" fx="975.38" fy="-470.1" r="31.33" gradientTransform="translate(592.25 -634.36) rotate(93.77) scale(.73 -1) skewX(-1.9)" xlink:href="#_Áåçûìÿííûé_ãðàäèåíò_42"/>
    <linearGradient id="_Áåçûìÿííûé_ãðàäèåíò_271-10" data-name="Áåçûìÿííûé ãðàäèåíò 271" x1="423.68" y1="-2001.76" x2="444.99" y2="-2056.25" gradientTransform="translate(-1933.25 -495.04) rotate(93.39)" xlink:href="#_Áåçûìÿííûé_ãðàäèåíò_271"/>
    <linearGradient id="_Áåçûìÿííûé_ãðàäèåíò_271-11" data-name="Áåçûìÿííûé ãðàäèåíò 271" x1="613.12" y1="-468.89" x2="624.02" y2="-496.75" gradientTransform="translate(591.77 -467.09) rotate(92.98) scale(.94 -1)" xlink:href="#_Áåçûìÿííûé_ãðàäèåíò_271"/>
    <linearGradient id="_Áåçûìÿííûé_ãðàäèåíò_271-12" data-name="Áåçûìÿííûé ãðàäèåíò 271" x1="558.46" y1="-484.85" x2="559.62" y2="-487.8" gradientTransform="translate(591.77 -467.09) rotate(92.98) scale(.94 -1)" xlink:href="#_Áåçûìÿííûé_ãðàäèåíò_271"/>
    <linearGradient id="_Áåçûìÿííûé_ãðàäèåíò_271-13" data-name="Áåçûìÿííûé ãðàäèåíò 271" x1="-1792.94" y1="-468.11" x2="-1791.77" y2="-471.09" gradientTransform="translate(656.54 -1563.95) rotate(-86.21) scale(.94 1)" xlink:href="#_Áåçûìÿííûé_ãðàäèåíò_271"/>
    <linearGradient id="_Áåçûìÿííûé_ãðàäèåíò_271-14" data-name="Áåçûìÿííûé ãðàäèåíò 271" x1="411.01" y1="-2034.66" x2="411.1" y2="-2028.54" gradientTransform="translate(-1933.25 -495.04) rotate(93.39)" xlink:href="#_Áåçûìÿííûé_ãðàäèåíò_271"/>
    <linearGradient id="_Áåçûìÿííûé_ãðàäèåíò_271-15" data-name="Áåçûìÿííûé ãðàäèåíò 271" x1="460.64" y1="-2039.01" x2="460.77" y2="-2030.3" gradientTransform="translate(-1933.25 -495.04) rotate(93.39)" xlink:href="#_Áåçûìÿííûé_ãðàäèåíò_271"/>
    <linearGradient id="_Áåçûìÿííûé_ãðàäèåíò_271-16" data-name="Áåçûìÿííûé ãðàäèåíò 271" x1="80.35" y1="-1.27" x2="47.92" y2="40.77" gradientTransform="matrix(1,0,0,1,0,0)" xlink:href="#_Áåçûìÿííûé_ãðàäèåíò_271"/>
    <radialGradient id="_Áåçûìÿííûé_ãðàäèåíò_9" data-name="Áåçûìÿííûé ãðàäèåíò 9" cx="56.99" cy="25.21" fx="56.99" fy="25.21" r="28.42" gradientUnits="userSpaceOnUse">
      <stop offset=".02" stop-color="#49456c"/>
      <stop offset=".99" stop-color="#4a335f"/>
    </radialGradient>
    <linearGradient id="_Áåçûìÿííûé_ãðàäèåíò_271-17" data-name="Áåçûìÿííûé ãðàäèåíò 271" x1="514.29" y1="-1450.28" x2="519.16" y2="-1488.52" gradientTransform="translate(-1519.82 -68.39) rotate(74.01)" xlink:href="#_Áåçûìÿííûé_ãðàäèåíò_271"/>
    <linearGradient id="_Áåçûìÿííûé_ãðàäèåíò_271-18" data-name="Áåçûìÿííûé ãðàäèåíò 271" x1="539.12" y1="-1491.49" x2="540.63" y2="-1503.34" gradientTransform="translate(-1519.82 -68.39) rotate(74.01)" xlink:href="#_Áåçûìÿííûé_ãðàäèåíò_271"/>
    <linearGradient id="_Áåçûìÿííûé_ãðàäèåíò_271-19" data-name="Áåçûìÿííûé ãðàäèåíò 271" x1="527.96" y1="-1466.44" x2="527.62" y2="-1460.24" gradientTransform="translate(-1519.82 -68.39) rotate(74.01)" xlink:href="#_Áåçûìÿííûé_ãðàäèåíò_271"/>
    <linearGradient id="_Áåçûìÿííûé_ãðàäèåíò_271-20" data-name="Áåçûìÿííûé ãðàäèåíò 271" x1="21.83" y1="-7.63" x2="61.31" y2="72.07" gradientTransform="matrix(1,0,0,1,0,0)" xlink:href="#_Áåçûìÿííûé_ãðàäèåíò_271"/>
    <linearGradient id="_Áåçûìÿííûé_ãðàäèåíò_271-21" data-name="Áåçûìÿííûé ãðàäèåíò 271" x1="549.53" y1="-1521.4" x2="547.04" y2="-1476.27" gradientTransform="translate(-1519.82 -68.39) rotate(74.01)" xlink:href="#_Áåçûìÿííûé_ãðàäèåíò_271"/>
    <linearGradient id="_Áåçûìÿííûé_ãðàäèåíò_271-22" data-name="Áåçûìÿííûé ãðàäèåíò 271" x1="54.09" y1="32.88" x2="57.33" y2="20.44" gradientTransform="matrix(1,0,0,1,0,0)" xlink:href="#_Áåçûìÿííûé_ãðàäèåíò_271"/>
  </defs>
  <g class="cls-27">
    <g id="Layer_1" data-name="Layer 1">
      <g>
        <g>
          <path class="cls-28" d="m5.73,18.23c1.13-.31,8.76,3.18,8.76,3.18l-2.68,76.78-7.53,5.49,11.53,11.27,3.12-101.77-9.56-.11-3.64,5.14Z"/>
          <path class="cls-32" d="m14.47,10.39l-5.64,7.16S1.84,27.33.26,56.97c-1.58,29.65,4.46,45.32,4.46,45.32l9.58,5,.17-96.91Z"/>
          <g>
            <path class="cls-31" d="m13.73,1.13c4-4,77.96,3.9,77.96,3.9,0,0,8.69,12.15,7.47,56.57-1.27,46.32-11.05,57.54-11.05,57.54,0,0-75.65,5.86-76.35,1.08-.89-6.1-2.02-115.09,1.97-119.1Z"/>
            <path class="cls-17" d="m11.46,114.93l66.92-.89s9.16-12.24,8.8-54.25c-.34-39.2-5.05-49.59-5.05-49.59L13.34,7.77l-3.11,25.45,1.23,81.71Z"/>
            <path class="cls-8" d="m88.1,119.14c-.43-2.92-17.27-10.71-17.27-10.71l14.24,10.93,3.03-.22Z"/>
            <path class="cls-12" d="m91.48,4.98c-.52,2.91-16.72,10.15-16.72,10.15l13.7-10.45,3.02.29Z"/>
          </g>
          <g>
            <path class="cls-26" d="m52.88,106.78c1.1-.02,2.17-.04,3.2-.07h.04c7.69-.17,13.34-.5,13.93-1.02,2.04-1.76,2.38-83.91,2.38-83.91,0,0-55.76-5.86-60.92-3.02-.53.29-4.7,18.26-5.84,39.06-1.21,22.11.63,47.15.8,47.87.05.21.1.33.15.36.36.2,3.35.38,7.87.52h0c9.55.3,25.88.42,38.38.21Z"/>
            <path class="cls-23" d="m52.82,110.95l-1.71-.18c-16.36-.52-39.72-2.67-42.42-2.92-.58.55-1.33,1.23-2.27,1.98.05.22.1.35.15.38.36.21,3.35.4,7.87.54h0c9.55.31,25.88.42,38.38.2Z"/>
          </g>
          <path class="cls-14" d="m65.77,97.17l4.11.1-3.68.2c-.11-.09-.25-.19-.44-.3Z"/>
          <path class="cls-6" d="m10.99,29.11s39.73,7.22,44.44,11.65,5.81,24.62,5.81,24.62c0,0-1.17,21.38-5.17,25.46-4,4.09-45.09,7.26-45.09,7.26l62.6,5.72.14-75.76-62.73,1.04Z"/>
          <polygon class="cls-32" points="13.73 1.13 5.99 13.53 5.73 18.23 13.14 11.83 13.73 1.13"/>
          <polygon class="cls-32" points="11.75 120.96 4.39 108.39 4.28 103.69 11.49 110.25 11.75 120.96"/>
          <g>
            <path class="cls-25" d="m75.63,32.58c1.91-15.34,1.67-15.1,1.73-15.79v-.05c.09-1.18.13-2.05.1-2.43-.02-.28-1.02-.6-2.75-.95-10.61-2.15-49.08-5.19-65.02-3.68l-1.6,3.96-.16.75,3.07,13.49c21.49,6.53,56.84,5.11,63.52,4.77.63-.03,1.01-.05,1.09-.06h.02Z"/>
            <path class="cls-20" d="m75.63,32.58c1.91-15.34,1.67-15.1,1.73-15.79v-.05s.1-2.43.1-2.43l-2.13,4.65s-33.48-1.67-67.24-5.33l-.16.75,3.07,13.49c21.49,6.53,56.84,5.11,63.52,4.77.09,0,.18-.01.26-.01.11,0,.2-.01.29-.01.19-.01.33-.02.42-.02.06,0,.1,0,.12,0h.02Z"/>
            <path class="cls-2" d="m75.63,32.58c1.91-15.34,1.67-15.1,1.73-15.79v-.05c.09-1.18.13-2.05.1-2.43l-2.13,4.65c.67,2.23-2.31,11.67-9.71,14.01.09,0,9.09-.35,9.18-.35.11,0,.2-.01.29-.01.19-.01.33-.02.42-.02.06,0,.1,0,.12,0h.02Z"/>
          </g>
          <g>
            <path class="cls-24" d="m74.93,92.04c.64,16.09.42,15.83.42,16.55v.05c0,1.23-.04,2.15-.11,2.53-.05.29-1.06.57-2.82.82-10.76,1.58-49.4,2.37-65.17-.18l-1.27-4.22-.1-.79,4.18-13.86c21.98-5.47,57.13-1.81,63.77-1.04.63.07,1,.12,1.08.13h.02Z"/>
            <path class="cls-16" d="m74.93,92.04c.64,16.09.42,15.83.42,16.55v.05s-.11,2.53-.11,2.53l-1.74-4.98s-33.54-.33-67.52,1.4l-.1-.79,4.18-13.86c21.98-5.47,57.13-1.81,63.77-1.04.09.01.18.02.26.03.11.02.2.03.29.03.19.02.32.04.42.05.05,0,.1.01.11.02h.02Z"/>
            <path class="cls-4" d="m74.93,92.04c.64,16.09.42,15.83.42,16.55v.05c0,1.23-.04,2.15-.11,2.53l-1.74-4.98c.85-2.28-1.14-13.05-13.7-15.58.09.01,14.21,1.32,14.29,1.32.11.02.2.03.29.03.19.02.32.04.42.05.05,0,.1.01.11.02h.02Z"/>
          </g>
          <g>
            <g>
              <path class="cls-30" d="m62.69,89.98s13.95,1.55,20.56,1.61h.06c1.52.01,2.65,0,3.13-.05.36-.04.73-.94,1.1-2.49,2.25-9.53,4.31-43.8,1.6-57.84l-12.04-1.23-.97-.1-10.36,3.52c-7.37,19.42-3.97,49.69-3.21,55.59.07.56.12.89.13.96v.02Z"/>
              <path class="cls-7" d="m62.69,89.98v-.02s-.01-.05-.02-.1c0-.02,0-.05-.01-.08-.01-.07-.03-.17-.04-.29,0-.08-.02-.16-.03-.26,0-.07-.02-.15-.03-.23-.2-1.58-.59-4.89-.92-9.28-.67-9.18-1.03-23.06,1.27-35.64.27-1.53.59-3.03.96-4.5h0c.26-1.07.55-2.12.86-3.15.3-1.01.64-2,1-2.95.01-.03.03-.06.03-.09l7.12-2.42,3.24-1.1.72.07.25.02c-3.09,30.13-2.77,59.28-2.77,59.28l12.1,2.28-3.13.06h-.06c-6.6-.07-20.56-1.62-20.56-1.62Z"/>
              <path class="cls-10" d="m62.69,89.98s13.95,1.55,20.56,1.61h.06c1.52.01,2.65,0,3.13-.05l-12.1-2.27c-2.84.72-7.58-.16-11.78-.26.01.08.02.16.03.23.02.09.03.18.03.26.02.17.04.29.05.37,0,.05.01.09.02.1v.02Z"/>
              <path class="cls-5" d="m76.21,29.86c6.17,1.26,6.03,5.34,6.03,5.34l-6.03-5.34Z"/>
              <path class="cls-22" d="m73.54,89.48c6.31-.68,6.78-4.74,6.78-4.74l-6.78,4.74Z"/>
            </g>
            <path class="cls-15" d="m63.87,39.59c.26-1.07.55-2.12.86-3.14.3-1.01.64-2,1-2.95.01-.03.03-.06.03-.09l7.12-2.42h.03c-6,2.59-8.24,6.44-9.05,8.6Z"/>
            <path class="cls-13" d="m62.66,89.78c-.01-.07-.03-.17-.04-.29,0-.08-.02-.16-.03-.26,0-.07-.02-.15-.03-.23-.2-1.58-.59-4.89-.92-9.28l.24.82s.01,8.3,5.83,8.62l5.82.32-10.88.3Z"/>
          </g>
        </g>
        <g>
          <path class="cls-1" d="m20.44,30.32c5.48.98,25.77,15.04,32.89,21.65s7.87,17.66,7.87,17.66c0,0,2.53-14.01,5.62-21.46s6.85-11.95,6.85-11.95c0,0-2.43-4.95-10.32-11.19-14.34-11.34-26.71-10.96-26.71-10.96l-9.89,15.7-6.33.56Z"/>
          <path class="cls-29" d="m72.07,38.1h0c-.07.03-.12.04-.12.04v.02s-.02.01-.03.01c-.08.12-.35.46-.77.99-.79.96-2.08,2.54-3.65,4.36h0c-1.04,1.22-2.18,2.63-3.36,4.08-1.75,2.15-3.57,4.38-5.27,6.19-.2.21-.39.4-.57.6-.5.5-.97.95-1.43,1.35-.2.17-.38.32-.56.47-.63.51-1.22.89-1.76,1.11-1.06.42-2.64-.1-4.45-.94-.17-.07-.34-.15-.52-.25-.02,0-.05-.02-.07-.03-.07-.04-.14-.07-.21-.1-.22-.1-.43-.22-.67-.32-.03-.02-.06-.03-.09-.04-.25-.13-.51-.25-.76-.39-.03-.02-.07-.04-.11-.05-.44-.22-.88-.45-1.33-.67-.17-.08-.34-.16-.51-.24,0,0,0,0-.01,0h-.01c-4.95-2.32-10.59-6.66-14.14-11.89-1.06-1.57-1.94-3.23-2.55-4.93-.24-.63-.41-1.26-.57-1.89v-.03s-.01-.04-.01-.04c0-.09.01-.22.04-.38,0-.05.02-.11.03-.17.29-1.34,1.39-4.43,2.61-7.82.09-.24.18-.48.26-.73.02-.03.03-.07.04-.09.1-.28.2-.55.3-.83.18-.48.36-.97.53-1.45.06-.16.11-.3.17-.46.83-2.27,1.62-4.44,2.16-6.09.07-.21.13-.41.2-.6.4-1.27.62-2.11.53-2.27-.47-.82-.7-2.08-.7-2.08l1.88.3c1.11.18,2.33.51,3.62.95.73.26,1.49.55,2.25.87,12.95,5.46,31.09,20.36,31.23,21.56.13,1.17-1.19,1.75-1.61,1.89Z"/>
          <path class="cls-19" d="m28.54,35.56c-.31-1.35,7.34-20.13,6.86-20.95-.47-.82-.71-2.08-.71-2.08.7,2.14,3.1,4.34,5.71,6.2.06.05.13.09.19.14,2.06,1.44,4.23,2.68,5.79,3.5-1.69-.83-4.06-1.95-6.12-2.76-.02-.01-.03-.02-.05-.02-2.06-.81-3.79-1.3-4.17-.84-1.08,1.27-7.49,16.8-7.49,16.8Z"/>
          <path class="cls-21" d="m71.91,37.82c-2.9.51-6.41-1.69-6.41-1.69l4.83,3.98,1.59-2.3Z"/>
          <path class="cls-18" d="m32.85,37.29l-3.74.16c-.24-.63-.42-1.26-.57-1.89v-.03s.06-.47.06-.47c1.02,1.63,4.24,2.23,4.24,2.23Z"/>
          <path class="cls-11" d="m64.13,47.6c-1.75,2.15-3.57,4.38-5.27,6.19-.2.21-.39.4-.57.6-.5.5-.97.95-1.43,1.35-.2.17-.38.32-.56.47-.63.51-1.22.89-1.76,1.11-1.06.42-2.64-.1-4.45-.94-.17-.07-.34-.15-.52-.25-1.27-.98-2.26-1.76-2.27-1.76-.09.02.48.56,1.32,1.3-.03-.02-.06-.03-.09-.04-.25-.13-.51-.25-.76-.39-.03-.02-.07-.04-.11-.05-.44-.22-.88-.45-1.33-.67-.17-.08-.34-.16-.51-.24,0,0,0,0-.01,0h-.01c-4.95-2.32-10.59-6.66-14.14-11.89-.58-1.83-.78-3.53-.77-5.02,0-.23.01-.45.02-.66.14-2.93,1.02-4.84,1.02-4.84,6.29,14.53,25.48,19.81,32.2,15.73Z"/>
          <path class="cls-3" d="m54.54,57.31c-1.06.43-2.64-.1-4.45-.94-.19-.09-.39-.18-.59-.28-.07-.04-.14-.06-.21-.1l3.84-1.03-5.35.28-.49.03s.14-.02.38-.08c2.02-.48,11.75-3.3,22.58-15.12.14-.16.29-.32.44-.48.41-.46.82-.92,1.23-1.41-.08.12-.35.46-.77.98-.79.96-2.08,2.54-3.65,4.36h0c-2.58,3-5.78,7.24-8.63,10.27-.19.21-.38.4-.57.6-.5.5-.97.96-1.43,1.35-.2.17-.38.32-.56.47-.63.51-1.22.89-1.75,1.11Z"/>
          <path class="cls-9" d="m46.31,17.95c11.95,7.1,19.54,14.62,19.54,14.62,0,0-2.67-4.08-9.14-8.57-4.93-3.43-10.4-6.04-10.4-6.04Z"/>
        </g>
      </g>
    </g>
  </g>
</svg>