<?xml version="1.0" encoding="UTF-8"?>
<svg xmlns="http://www.w3.org/2000/svg" xmlns:xlink="http://www.w3.org/1999/xlink" viewBox="0 0 598.21 348.26">
  <defs>
    <style>
      .cls-1 {
        fill: #ddd;
      }

      .cls-2 {
        fill: #e9e9e9;
      }

      .cls-3 {
        fill: #f0f0f0;
      }

      .cls-4 {
        fill: #f4f4f4;
      }

      .cls-5 {
        fill: #fff;
      }

      .cls-6 {
        fill: #cbcbcb;
      }

      .cls-7 {
        fill: #d1d1d1;
      }

      .cls-8 {
        fill: #fafafa;
      }

      .cls-9 {
        fill: #dbdbdb;
      }

      .cls-10 {
        fill: #ff564a;
      }

      .cls-10, .cls-11 {
        mix-blend-mode: multiply;
      }

      .cls-12 {
        fill: #cacaca;
      }

      .cls-13 {
        fill: #d8d8d8;
      }

      .cls-14 {
        fill: #f6f6f6;
      }

      .cls-15 {
        fill: #e2e2e2;
      }

      .cls-16 {
        fill: #f5f5f5;
      }

      .cls-17 {
        isolation: isolate;
      }

      .cls-18 {
        fill: #d6d6d6;
      }

      .cls-19 {
        fill: #c9c9c9;
      }

      .cls-20 {
        fill: #e0e0e0;
      }

      .cls-21 {
        fill: #c7c7c7;
      }

      .cls-22 {
        fill: #dedede;
      }

      .cls-23 {
        fill: #cfcfcf;
      }

      .cls-24 {
        fill: #d7d7d7;
      }

      .cls-25 {
        fill: #e1e1e1;
      }

      .cls-26 {
        fill: #e6e6e6;
      }

      .cls-27 {
        fill: #e7e7e7;
      }

      .cls-28 {
        fill: #d4d4d4;
      }

      .cls-29 {
        fill: #dadada;
      }

      .cls-30 {
        fill: #eaeaea;
      }

      .cls-31 {
        fill: #c8c8c8;
      }

      .cls-32 {
        fill: #fdfdfd;
      }

      .cls-33 {
        fill: #e4e4e4;
      }

      .cls-34 {
        fill: #fbfbfb;
      }

      .cls-35 {
        fill: #f9f9f9;
      }

      .cls-36 {
        fill: #e5e5e5;
      }

      .cls-37 {
        fill: none;
        stroke: #9d9d9c;
        stroke-miterlimit: 10;
        stroke-width: .03px;
      }

      .cls-38 {
        fill: #d3d3d3;
      }

      .cls-39 {
        fill: #ebebeb;
      }

      .cls-40 {
        fill: #d5d5d5;
      }

      .cls-41 {
        fill: #dcdcdc;
      }

      .cls-42 {
        fill: #e8e8e8;
      }

      .cls-43 {
        fill: #ccc;
      }

      .cls-44 {
        fill: #f7f7f7;
      }

      .cls-45 {
        fill: #efefef;
      }

      .cls-46 {
        fill: #f1f1f1;
      }

      .cls-47 {
        fill: #cecece;
      }

      .cls-48 {
        fill: url(#linear-gradient);
      }

      .cls-49 {
        fill: #f3f3f3;
      }

      .cls-50 {
        fill: #d9d9d9;
      }

      .cls-51 {
        fill: #cdcdcd;
      }

      .cls-52 {
        fill: #f8f8f8;
      }

      .cls-53 {
        fill: #d2d2d2;
      }

      .cls-54 {
        fill: #c6c6c6;
      }

      .cls-55 {
        fill: #eee;
      }

      .cls-56 {
        fill: #d0d0d0;
      }

      .cls-57 {
        fill: #ececec;
      }

      .cls-58 {
        fill: #f2f2f2;
      }

      .cls-59 {
        fill: #fefefe;
      }

      .cls-60 {
        fill: #e3e3e3;
      }

      .cls-61 {
        fill: #fcfcfc;
      }

      .cls-62 {
        fill: #ededed;
      }

      .cls-63 {
        fill: #dfdfdf;
      }
    </style>
    <linearGradient id="linear-gradient" x1="413.65" y1="114.25" x2="308.78" y2="251.04" gradientUnits="userSpaceOnUse">
      <stop offset="0" stop-color="#e8e8e8"/>
      <stop offset="1" stop-color="#fff"/>
    </linearGradient>
  </defs>
  <g class="cls-17">
    <g id="Layer_1" data-name="Layer 1">
      <g>
        <g class="cls-11">
          <path class="cls-5" d="m461.06,29.59H36.66C16.5,29.59,0,42.79,0,58.93v259.99c0,16.13,16.5,29.33,36.66,29.33h26.15c20.14,0,36.66-13.2,36.66-29.33,0,16.13,16.5,29.33,36.66,29.33h225.33c20.16,0,36.66-13.2,36.66-29.33,0,16.13,16.51,29.33,36.66,29.33h26.28c20.16,0,36.66-13.2,36.66-29.33V58.93c0-16.14-16.5-29.34-36.66-29.34Z"/>
          <path class="cls-59" d="m462.76,29.11H38.36C18.2,29.11,1.7,42.31,1.7,58.45v259.99c0,16.13,16.5,29.33,36.66,29.33h26.15c20.15,0,36.66-13.2,36.66-29.33,0,16.13,16.5,29.33,36.66,29.33h225.33c20.16,0,36.66-13.2,36.66-29.33,0,16.13,16.51,29.33,36.66,29.33h26.28c20.16,0,36.66-13.2,36.66-29.33V58.45c0-16.14-16.5-29.34-36.66-29.34Z"/>
          <path class="cls-32" d="m464.46,28.62H40.06c-20.16,0-36.66,13.2-36.66,29.34v259.99c0,16.13,16.5,29.33,36.66,29.33h26.15c20.15,0,36.66-13.2,36.66-29.33,0,16.13,16.5,29.33,36.66,29.33h225.33c20.16,0,36.66-13.2,36.66-29.33,0,16.13,16.51,29.33,36.66,29.33h26.28c20.16,0,36.66-13.2,36.66-29.33V57.97c0-16.14-16.5-29.34-36.66-29.34Z"/>
          <path class="cls-61" d="m466.16,28.14H41.76c-20.16,0-36.66,13.2-36.66,29.34v259.99c0,16.13,16.5,29.33,36.66,29.33h26.15c20.15,0,36.66-13.2,36.66-29.33,0,16.13,16.5,29.33,36.66,29.33h225.33c20.16,0,36.66-13.2,36.66-29.33,0,16.13,16.51,29.33,36.66,29.33h26.28c20.16,0,36.66-13.2,36.66-29.33V57.48c0-16.14-16.5-29.34-36.66-29.34Z"/>
          <path class="cls-34" d="m467.86,27.66H43.46c-20.16,0-36.66,13.2-36.66,29.34v259.99c0,16.13,16.5,29.33,36.66,29.33h26.15c20.15,0,36.66-13.2,36.66-29.33,0,16.13,16.5,29.33,36.66,29.33h225.33c20.16,0,36.66-13.2,36.66-29.33,0,16.13,16.51,29.33,36.66,29.33h26.28c20.16,0,36.66-13.2,36.66-29.33V57c0-16.14-16.5-29.34-36.66-29.34Z"/>
          <path class="cls-8" d="m469.56,27.17H45.16c-20.16,0-36.66,13.2-36.66,29.34v259.99c0,16.13,16.5,29.33,36.66,29.33h26.15c20.15,0,36.66-13.2,36.66-29.33,0,16.13,16.5,29.33,36.66,29.33h225.33c20.16,0,36.66-13.2,36.66-29.33,0,16.13,16.51,29.33,36.66,29.33h26.28c20.16,0,36.66-13.2,36.66-29.33V56.51c0-16.14-16.5-29.34-36.66-29.34Z"/>
          <path class="cls-35" d="m471.26,26.69H46.86c-20.16,0-36.66,13.2-36.66,29.34v260c0,16.13,16.5,29.33,36.66,29.33h26.15c20.15,0,36.66-13.2,36.66-29.33,0,16.13,16.5,29.33,36.66,29.33h225.33c20.16,0,36.66-13.2,36.66-29.33,0,16.13,16.51,29.33,36.66,29.33h26.28c20.16,0,36.66-13.2,36.66-29.33V56.03c0-16.14-16.5-29.34-36.66-29.34Z"/>
          <path class="cls-52" d="m472.96,26.21H48.55c-20.16,0-36.66,13.2-36.66,29.34v260c0,16.13,16.5,29.33,36.66,29.33h26.15c20.15,0,36.66-13.2,36.66-29.33,0,16.13,16.5,29.33,36.66,29.33h225.33c20.16,0,36.66-13.2,36.66-29.33,0,16.13,16.51,29.33,36.66,29.33h26.28c20.16,0,36.66-13.2,36.66-29.33V55.55c0-16.14-16.5-29.34-36.66-29.34Z"/>
          <path class="cls-44" d="m474.66,25.72H50.25c-20.16,0-36.66,13.2-36.66,29.34v260c0,16.13,16.5,29.33,36.66,29.33h26.15c20.15,0,36.66-13.2,36.66-29.33,0,16.13,16.5,29.33,36.66,29.33h225.33c20.16,0,36.66-13.2,36.66-29.33,0,16.13,16.51,29.33,36.66,29.33h26.28c20.16,0,36.66-13.2,36.66-29.33V55.06c0-16.14-16.5-29.34-36.66-29.34Z"/>
          <path class="cls-14" d="m476.35,25.24H51.95c-20.16,0-36.66,13.2-36.66,29.34v260c0,16.13,16.5,29.33,36.66,29.33h26.15c20.15,0,36.66-13.2,36.66-29.33,0,16.13,16.5,29.33,36.66,29.33h225.33c20.16,0,36.66-13.2,36.66-29.33,0,16.13,16.51,29.33,36.66,29.33h26.28c20.16,0,36.66-13.2,36.66-29.33V54.58c0-16.14-16.5-29.34-36.66-29.34Z"/>
          <path class="cls-16" d="m478.05,24.75H53.65c-20.16,0-36.66,13.2-36.66,29.34v260c0,16.13,16.5,29.33,36.66,29.33h26.15c20.15,0,36.66-13.2,36.66-29.33,0,16.13,16.5,29.33,36.66,29.33h225.33c20.16,0,36.66-13.2,36.66-29.33,0,16.13,16.51,29.33,36.66,29.33h26.28c20.16,0,36.66-13.2,36.66-29.33V54.1c0-16.14-16.5-29.34-36.66-29.34Z"/>
          <path class="cls-4" d="m479.75,24.27H55.35c-20.16,0-36.66,13.2-36.66,29.34v260c0,16.13,16.5,29.33,36.66,29.33h26.15c20.15,0,36.66-13.2,36.66-29.33,0,16.13,16.5,29.33,36.66,29.33h225.33c20.16,0,36.66-13.2,36.66-29.33,0,16.13,16.51,29.33,36.66,29.33h26.28c20.16,0,36.66-13.2,36.66-29.33V53.61c0-16.14-16.5-29.34-36.66-29.34Z"/>
          <path class="cls-49" d="m481.45,23.79H57.05c-20.16,0-36.66,13.2-36.66,29.34v260c0,16.13,16.5,29.33,36.66,29.33h26.15c20.15,0,36.66-13.2,36.66-29.33,0,16.13,16.5,29.33,36.66,29.33h225.34c20.16,0,36.66-13.2,36.66-29.33,0,16.13,16.51,29.33,36.66,29.33h26.28c20.16,0,36.66-13.2,36.66-29.33V53.13c0-16.14-16.5-29.34-36.66-29.34Z"/>
          <path class="cls-58" d="m483.15,23.3H58.75c-20.16,0-36.66,13.2-36.66,29.34v260c0,16.13,16.5,29.33,36.66,29.33h26.15c20.15,0,36.66-13.2,36.66-29.33,0,16.13,16.5,29.33,36.66,29.33h225.34c20.16,0,36.66-13.2,36.66-29.33,0,16.13,16.51,29.33,36.66,29.33h26.28c20.16,0,36.66-13.2,36.66-29.33V52.64c0-16.14-16.5-29.34-36.66-29.34Z"/>
          <path class="cls-46" d="m484.85,22.82H60.45c-20.16,0-36.66,13.2-36.66,29.34v260c0,16.13,16.5,29.33,36.66,29.33h26.15c20.15,0,36.66-13.2,36.66-29.33,0,16.13,16.5,29.33,36.66,29.33h225.34c20.16,0,36.66-13.2,36.66-29.33,0,16.13,16.51,29.33,36.66,29.33h26.28c20.16,0,36.66-13.2,36.66-29.33V52.16c0-16.14-16.5-29.34-36.66-29.34Z"/>
          <path class="cls-3" d="m486.55,22.34H62.15c-20.16,0-36.66,13.2-36.66,29.34v260c0,16.13,16.5,29.33,36.66,29.33h26.15c20.15,0,36.66-13.2,36.66-29.33,0,16.13,16.5,29.33,36.66,29.33h225.34c20.16,0,36.66-13.2,36.66-29.33,0,16.13,16.51,29.33,36.66,29.33h26.28c20.16,0,36.66-13.2,36.66-29.33V51.68c0-16.14-16.5-29.34-36.66-29.34Z"/>
          <path class="cls-45" d="m488.25,21.85H63.85c-20.16,0-36.66,13.2-36.66,29.34v260c0,16.13,16.5,29.33,36.66,29.33h26.15c20.15,0,36.66-13.2,36.66-29.33,0,16.13,16.5,29.33,36.66,29.33h225.34c20.16,0,36.66-13.2,36.66-29.33,0,16.13,16.51,29.33,36.66,29.33h26.28c20.16,0,36.66-13.2,36.66-29.33V51.19c0-16.14-16.5-29.34-36.66-29.34Z"/>
          <path class="cls-55" d="m489.95,21.37H65.54c-20.16,0-36.66,13.2-36.66,29.34v260c0,16.13,16.5,29.33,36.66,29.33h26.15c20.15,0,36.66-13.2,36.66-29.33,0,16.13,16.5,29.33,36.66,29.33h225.34c20.16,0,36.66-13.2,36.66-29.33,0,16.13,16.51,29.33,36.66,29.33h26.28c20.16,0,36.66-13.2,36.66-29.33V50.71c0-16.14-16.5-29.34-36.66-29.34Z"/>
          <path class="cls-62" d="m491.65,20.89H67.24c-20.16,0-36.66,13.2-36.66,29.34v260c0,16.13,16.5,29.33,36.66,29.33h26.15c20.15,0,36.66-13.2,36.66-29.33,0,16.13,16.5,29.33,36.66,29.33h225.34c20.16,0,36.66-13.2,36.66-29.33,0,16.13,16.51,29.33,36.66,29.33h26.28c20.16,0,36.66-13.2,36.66-29.33V50.23c0-16.14-16.5-29.34-36.66-29.34Z"/>
          <path class="cls-57" d="m493.35,20.4H68.94c-20.16,0-36.66,13.2-36.66,29.34v260c0,16.13,16.5,29.33,36.66,29.33h26.15c20.15,0,36.66-13.2,36.66-29.33,0,16.13,16.5,29.33,36.66,29.33h225.34c20.16,0,36.66-13.2,36.66-29.33,0,16.13,16.51,29.33,36.66,29.33h26.28c20.16,0,36.66-13.2,36.66-29.33V49.74c0-16.14-16.5-29.34-36.66-29.34Z"/>
          <path class="cls-39" d="m495.05,19.92H70.64c-20.16,0-36.66,13.2-36.66,29.34v260c0,16.13,16.5,29.33,36.66,29.33h26.15c20.15,0,36.66-13.2,36.66-29.33,0,16.13,16.5,29.33,36.66,29.33h225.34c20.16,0,36.66-13.2,36.66-29.33,0,16.13,16.51,29.33,36.66,29.33h26.28c20.16,0,36.66-13.2,36.66-29.33V49.26c0-16.14-16.5-29.34-36.66-29.34Z"/>
          <path class="cls-30" d="m496.75,19.44H72.34c-20.16,0-36.66,13.2-36.66,29.34v260c0,16.13,16.5,29.33,36.66,29.33h26.15c20.15,0,36.66-13.2,36.66-29.33,0,16.13,16.5,29.33,36.66,29.33h225.34c20.16,0,36.66-13.2,36.66-29.33,0,16.13,16.51,29.33,36.66,29.33h26.28c20.16,0,36.66-13.2,36.66-29.33V48.77c0-16.14-16.5-29.34-36.66-29.34Z"/>
          <path class="cls-2" d="m498.45,18.95H74.04c-20.16,0-36.66,13.2-36.66,29.34v260c0,16.13,16.5,29.33,36.66,29.33h26.15c20.15,0,36.66-13.2,36.66-29.33,0,16.13,16.5,29.33,36.66,29.33h225.34c20.16,0,36.66-13.2,36.66-29.33,0,16.13,16.51,29.33,36.66,29.33h26.28c20.16,0,36.66-13.2,36.66-29.33V48.29c0-16.14-16.5-29.34-36.66-29.34Z"/>
          <path class="cls-42" d="m500.15,18.47H75.74c-20.16,0-36.66,13.2-36.66,29.34v260c0,16.13,16.51,29.33,36.66,29.33h26.15c20.15,0,36.66-13.2,36.66-29.33,0,16.13,16.5,29.33,36.66,29.33h225.34c20.16,0,36.66-13.2,36.66-29.33,0,16.13,16.51,29.33,36.66,29.33h26.28c20.16,0,36.66-13.2,36.66-29.33V47.81c0-16.14-16.5-29.34-36.66-29.34Z"/>
          <path class="cls-27" d="m501.84,17.99H77.44c-20.16,0-36.66,13.2-36.66,29.34v260c0,16.13,16.51,29.33,36.66,29.33h26.15c20.15,0,36.66-13.2,36.66-29.33,0,16.13,16.5,29.33,36.66,29.33h225.34c20.16,0,36.66-13.2,36.66-29.33,0,16.13,16.51,29.33,36.66,29.33h26.28c20.16,0,36.66-13.2,36.66-29.33V47.32c0-16.14-16.5-29.34-36.66-29.34Z"/>
          <path class="cls-26" d="m503.54,17.5H79.14c-20.15,0-36.66,13.2-36.66,29.34v260c0,16.13,16.51,29.33,36.66,29.33h26.15c20.15,0,36.66-13.2,36.66-29.33,0,16.13,16.5,29.33,36.66,29.33h225.34c20.16,0,36.66-13.2,36.66-29.33,0,16.13,16.51,29.33,36.66,29.33h26.28c20.16,0,36.66-13.2,36.66-29.33V46.84c0-16.14-16.5-29.34-36.66-29.34Z"/>
          <path class="cls-36" d="m505.24,17.02H80.84c-20.15,0-36.66,13.2-36.66,29.34v260c0,16.13,16.51,29.33,36.66,29.33h26.15c20.15,0,36.66-13.2,36.66-29.33,0,16.13,16.5,29.33,36.66,29.33h225.34c20.16,0,36.66-13.2,36.66-29.33,0,16.13,16.51,29.33,36.66,29.33h26.28c20.16,0,36.66-13.2,36.66-29.33V46.36c0-16.14-16.5-29.34-36.66-29.34Z"/>
          <path class="cls-33" d="m506.94,16.53H82.54c-20.15,0-36.66,13.2-36.66,29.34v260c0,16.13,16.51,29.33,36.66,29.33h26.15c20.15,0,36.66-13.2,36.66-29.33,0,16.13,16.5,29.33,36.66,29.33h225.34c20.16,0,36.66-13.2,36.66-29.33,0,16.13,16.51,29.33,36.66,29.33h26.28c20.16,0,36.66-13.2,36.66-29.33V45.87c0-16.14-16.5-29.34-36.66-29.34Z"/>
          <path class="cls-60" d="m508.64,16.05H84.23c-20.15,0-36.66,13.2-36.66,29.34v260c0,16.13,16.51,29.33,36.66,29.33h26.15c20.15,0,36.66-13.2,36.66-29.33,0,16.13,16.5,29.33,36.66,29.33h225.34c20.16,0,36.66-13.2,36.66-29.33,0,16.13,16.51,29.33,36.66,29.33h26.28c20.16,0,36.66-13.2,36.66-29.33V45.39c0-16.14-16.5-29.34-36.66-29.34Z"/>
          <path class="cls-15" d="m510.34,15.57H85.93c-20.15,0-36.66,13.2-36.66,29.34v260c0,16.13,16.51,29.33,36.66,29.33h26.15c20.15,0,36.66-13.2,36.66-29.33,0,16.13,16.5,29.33,36.66,29.33h225.34c20.16,0,36.66-13.2,36.66-29.33,0,16.13,16.51,29.33,36.66,29.33h26.28c20.16,0,36.66-13.2,36.66-29.33V44.9c0-16.14-16.5-29.34-36.66-29.34Z"/>
          <path class="cls-15" d="m512.04,15.08H87.63c-20.15,0-36.66,13.2-36.66,29.34v260c0,16.13,16.51,29.33,36.66,29.33h26.15c20.15,0,36.66-13.2,36.66-29.33,0,16.13,16.5,29.33,36.66,29.33h225.34c20.16,0,36.66-13.2,36.66-29.33,0,16.13,16.51,29.33,36.66,29.33h26.28c20.16,0,36.66-13.2,36.66-29.33V44.42c0-16.14-16.5-29.34-36.66-29.34Z"/>
          <path class="cls-25" d="m513.74,14.6H89.33c-20.15,0-36.66,13.2-36.66,29.34v260c0,16.13,16.51,29.33,36.66,29.33h26.15c20.15,0,36.66-13.2,36.66-29.33,0,16.13,16.5,29.33,36.66,29.33h225.34c20.16,0,36.66-13.2,36.66-29.33,0,16.13,16.51,29.33,36.66,29.33h26.28c20.16,0,36.66-13.2,36.66-29.33V43.94c0-16.14-16.5-29.34-36.66-29.34Z"/>
          <path class="cls-20" d="m515.44,14.12H91.03c-20.15,0-36.66,13.2-36.66,29.34v260c0,16.13,16.51,29.33,36.66,29.33h26.15c20.15,0,36.66-13.2,36.66-29.33,0,16.13,16.5,29.33,36.66,29.33h225.34c20.16,0,36.66-13.2,36.66-29.33,0,16.13,16.51,29.33,36.66,29.33h26.28c20.16,0,36.66-13.2,36.66-29.33V43.45c0-16.14-16.5-29.34-36.66-29.34Z"/>
          <path class="cls-63" d="m517.14,13.63H92.73c-20.15,0-36.66,13.2-36.66,29.34v260c0,16.13,16.51,29.33,36.66,29.33h26.15c20.15,0,36.66-13.2,36.66-29.33,0,16.13,16.5,29.33,36.66,29.33h225.34c20.16,0,36.66-13.2,36.66-29.33,0,16.13,16.51,29.33,36.66,29.33h26.28c20.16,0,36.66-13.2,36.66-29.33V42.97c0-16.14-16.5-29.34-36.66-29.34Z"/>
          <path class="cls-22" d="m518.84,13.15H94.43c-20.15,0-36.66,13.2-36.66,29.34v260c0,16.13,16.51,29.33,36.66,29.33h26.15c20.15,0,36.66-13.2,36.66-29.33,0,16.13,16.5,29.33,36.66,29.33h225.34c20.16,0,36.66-13.2,36.66-29.33,0,16.13,16.51,29.33,36.66,29.33h26.28c20.16,0,36.66-13.2,36.66-29.33V42.49c0-16.13-16.5-29.34-36.66-29.34Z"/>
          <path class="cls-1" d="m520.54,12.67H96.13c-20.15,0-36.66,13.2-36.66,29.34v260c0,16.13,16.51,29.33,36.66,29.33h26.15c20.15,0,36.66-13.2,36.66-29.33,0,16.13,16.5,29.33,36.66,29.33h225.34c20.16,0,36.66-13.2,36.66-29.33,0,16.13,16.51,29.33,36.66,29.33h26.28c20.16,0,36.66-13.2,36.66-29.33V42c0-16.13-16.5-29.34-36.66-29.34Z"/>
          <path class="cls-41" d="m522.24,12.18H97.83c-20.15,0-36.66,13.2-36.66,29.34v260c0,16.13,16.51,29.33,36.66,29.33h26.15c20.15,0,36.66-13.2,36.66-29.33,0,16.13,16.5,29.33,36.66,29.33h225.34c20.16,0,36.66-13.2,36.66-29.33,0,16.13,16.5,29.33,36.66,29.33h26.28c20.16,0,36.66-13.2,36.66-29.33V41.52c0-16.13-16.5-29.34-36.66-29.34Z"/>
          <path class="cls-9" d="m523.94,11.7H99.53c-20.15,0-36.66,13.2-36.66,29.33v260c0,16.13,16.51,29.33,36.66,29.33h26.15c20.15,0,36.66-13.2,36.66-29.33,0,16.13,16.5,29.33,36.66,29.33h225.34c20.16,0,36.66-13.2,36.66-29.33,0,16.13,16.5,29.33,36.66,29.33h26.28c20.16,0,36.66-13.2,36.66-29.33V41.03c0-16.13-16.5-29.33-36.66-29.33Z"/>
          <path class="cls-29" d="m525.64,11.22H101.22c-20.15,0-36.66,13.2-36.66,29.33v260c0,16.13,16.51,29.33,36.66,29.33h26.15c20.15,0,36.66-13.2,36.66-29.33,0,16.13,16.5,29.33,36.66,29.33h225.34c20.16,0,36.66-13.2,36.66-29.33,0,16.13,16.5,29.33,36.66,29.33h26.28c20.16,0,36.66-13.2,36.66-29.33V40.55c0-16.13-16.5-29.33-36.66-29.33Z"/>
          <path class="cls-50" d="m527.33,10.73H102.92c-20.15,0-36.66,13.2-36.66,29.33v260c0,16.13,16.51,29.33,36.66,29.33h26.15c20.16,0,36.66-13.2,36.66-29.33,0,16.13,16.5,29.33,36.66,29.33h225.34c20.16,0,36.66-13.2,36.66-29.33,0,16.13,16.5,29.33,36.66,29.33h26.28c20.16,0,36.66-13.2,36.66-29.33V40.07c0-16.13-16.5-29.33-36.66-29.33Z"/>
          <path class="cls-13" d="m529.03,10.25H104.62c-20.15,0-36.66,13.2-36.66,29.33v260c0,16.13,16.51,29.33,36.66,29.33h26.15c20.16,0,36.66-13.2,36.66-29.33,0,16.13,16.5,29.33,36.66,29.33h225.34c20.16,0,36.66-13.2,36.66-29.33,0,16.13,16.5,29.33,36.66,29.33h26.28c20.16,0,36.66-13.2,36.66-29.33V39.58c0-16.13-16.5-29.33-36.66-29.33Z"/>
          <path class="cls-24" d="m530.73,9.77H106.32c-20.15,0-36.66,13.2-36.66,29.33v260c0,16.13,16.51,29.33,36.66,29.33h26.15c20.16,0,36.66-13.2,36.66-29.33,0,16.13,16.5,29.33,36.66,29.33h225.34c20.16,0,36.66-13.2,36.66-29.33,0,16.13,16.5,29.33,36.66,29.33h26.28c20.16,0,36.66-13.2,36.66-29.33V39.1c0-16.13-16.5-29.33-36.66-29.33Z"/>
          <path class="cls-18" d="m532.43,9.28H108.02c-20.15,0-36.66,13.2-36.66,29.33v260c0,16.13,16.51,29.33,36.66,29.33h26.15c20.16,0,36.66-13.2,36.66-29.33,0,16.13,16.5,29.33,36.66,29.33h225.34c20.16,0,36.66-13.2,36.66-29.33,0,16.13,16.5,29.33,36.66,29.33h26.28c20.16,0,36.66-13.2,36.66-29.33V38.62c0-16.13-16.5-29.33-36.66-29.33Z"/>
          <path class="cls-40" d="m534.13,8.8H109.72c-20.15,0-36.66,13.2-36.66,29.33v260c0,16.13,16.51,29.33,36.66,29.33h26.15c20.16,0,36.66-13.2,36.66-29.33,0,16.13,16.5,29.33,36.66,29.33h225.34c20.16,0,36.66-13.2,36.66-29.33,0,16.13,16.5,29.33,36.66,29.33h26.28c20.16,0,36.66-13.2,36.66-29.33V38.13c0-16.13-16.5-29.33-36.66-29.33Z"/>
          <path class="cls-28" d="m535.83,8.31H111.42c-20.15,0-36.66,13.2-36.66,29.33v260c0,16.13,16.51,29.33,36.66,29.33h26.15c20.16,0,36.66-13.2,36.66-29.33,0,16.13,16.5,29.33,36.66,29.33h225.34c20.16,0,36.66-13.2,36.66-29.33,0,16.13,16.5,29.33,36.66,29.33h26.28c20.16,0,36.66-13.2,36.66-29.33V37.65c0-16.13-16.5-29.33-36.66-29.33Z"/>
          <path class="cls-38" d="m537.53,7.83H113.12c-20.15,0-36.66,13.2-36.66,29.33v260c0,16.13,16.51,29.33,36.66,29.33h26.15c20.16,0,36.66-13.2,36.66-29.33,0,16.13,16.5,29.33,36.66,29.33h225.34c20.16,0,36.66-13.2,36.66-29.33,0,16.13,16.5,29.33,36.66,29.33h26.28c20.16,0,36.66-13.2,36.66-29.33V37.16c0-16.13-16.5-29.33-36.66-29.33Z"/>
          <path class="cls-53" d="m539.23,7.35H114.82c-20.15,0-36.66,13.2-36.66,29.33v260c0,16.13,16.51,29.33,36.66,29.33h26.15c20.16,0,36.66-13.2,36.66-29.33,0,16.13,16.5,29.33,36.66,29.33h225.34c20.16,0,36.66-13.2,36.66-29.33,0,16.13,16.5,29.33,36.66,29.33h26.28c20.16,0,36.66-13.2,36.66-29.33V36.68c0-16.13-16.5-29.33-36.66-29.33Z"/>
          <path class="cls-7" d="m540.93,6.86H116.52c-20.15,0-36.66,13.2-36.66,29.33v260c0,16.13,16.51,29.33,36.66,29.33h26.15c20.16,0,36.66-13.2,36.66-29.33,0,16.13,16.5,29.33,36.66,29.33h225.34c20.16,0,36.66-13.2,36.66-29.33,0,16.13,16.5,29.33,36.66,29.33h26.28c20.16,0,36.66-13.2,36.66-29.33V36.2c0-16.13-16.5-29.33-36.66-29.33Z"/>
          <path class="cls-56" d="m542.63,6.38H118.22c-20.15,0-36.66,13.2-36.66,29.33v260c0,16.13,16.51,29.33,36.66,29.33h26.15c20.16,0,36.66-13.2,36.66-29.33,0,16.13,16.5,29.33,36.66,29.33h225.34c20.16,0,36.66-13.2,36.66-29.33,0,16.13,16.5,29.33,36.66,29.33h26.28c20.16,0,36.66-13.2,36.66-29.33V35.71c0-16.13-16.5-29.33-36.66-29.33Z"/>
          <path class="cls-23" d="m544.33,5.9H119.91c-20.15,0-36.66,13.2-36.66,29.33v260c0,16.13,16.51,29.33,36.66,29.33h26.15c20.16,0,36.66-13.2,36.66-29.33,0,16.13,16.5,29.33,36.66,29.33h225.35c20.16,0,36.66-13.2,36.66-29.33,0,16.13,16.5,29.33,36.66,29.33h26.28c20.16,0,36.66-13.2,36.66-29.33V35.23c0-16.13-16.5-29.33-36.66-29.33Z"/>
          <path class="cls-47" d="m546.03,5.41H121.61c-20.15,0-36.66,13.2-36.66,29.33v260c0,16.13,16.51,29.33,36.66,29.33h26.15c20.16,0,36.66-13.2,36.66-29.33,0,16.13,16.5,29.33,36.66,29.33h225.35c20.16,0,36.66-13.2,36.66-29.33,0,16.13,16.5,29.33,36.66,29.33h26.28c20.16,0,36.66-13.2,36.66-29.33V34.75c0-16.13-16.5-29.33-36.66-29.33Z"/>
          <path class="cls-51" d="m547.73,4.93H123.31c-20.15,0-36.66,13.2-36.66,29.33v260c0,16.13,16.51,29.33,36.66,29.33h26.15c20.16,0,36.66-13.2,36.66-29.33,0,16.13,16.5,29.33,36.66,29.33h225.35c20.16,0,36.66-13.2,36.66-29.33,0,16.13,16.5,29.33,36.66,29.33h26.28c20.16,0,36.66-13.2,36.66-29.33V34.26c0-16.13-16.5-29.33-36.66-29.33Z"/>
          <path class="cls-43" d="m549.43,4.45H125.01c-20.15,0-36.66,13.2-36.66,29.33v260c0,16.13,16.51,29.33,36.66,29.33h26.15c20.16,0,36.66-13.2,36.66-29.33,0,16.13,16.5,29.33,36.66,29.33h225.35c20.16,0,36.66-13.2,36.66-29.33,0,16.13,16.5,29.33,36.66,29.33h26.28c20.16,0,36.66-13.2,36.66-29.33V33.78c0-16.13-16.5-29.33-36.66-29.33Z"/>
          <path class="cls-6" d="m551.13,3.96H126.71c-20.15,0-36.66,13.2-36.66,29.33v260.01c0,16.13,16.51,29.33,36.66,29.33h26.15c20.16,0,36.66-13.2,36.66-29.33,0,16.13,16.5,29.33,36.66,29.33h225.35c20.16,0,36.66-13.2,36.66-29.33,0,16.13,16.5,29.33,36.66,29.33h26.28c20.16,0,36.66-13.2,36.66-29.33V33.29c0-16.13-16.5-29.33-36.66-29.33Z"/>
          <path class="cls-12" d="m552.82,3.48H128.41c-20.15,0-36.66,13.2-36.66,29.33v260.01c0,16.13,16.51,29.33,36.66,29.33h26.15c20.16,0,36.66-13.2,36.66-29.33,0,16.13,16.5,29.33,36.66,29.33h225.35c20.16,0,36.66-13.2,36.66-29.33,0,16.13,16.5,29.33,36.66,29.33h26.28c20.16,0,36.66-13.2,36.66-29.33V32.81c0-16.13-16.5-29.33-36.66-29.33Z"/>
          <path class="cls-19" d="m554.52,3H130.11c-20.15,0-36.66,13.2-36.66,29.33v260.01c0,16.13,16.51,29.33,36.66,29.33h26.15c20.16,0,36.66-13.2,36.66-29.33,0,16.13,16.5,29.33,36.66,29.33h225.35c20.16,0,36.66-13.2,36.66-29.33,0,16.13,16.5,29.33,36.66,29.33h26.28c20.16,0,36.66-13.2,36.66-29.33V32.33c0-16.13-16.5-29.33-36.66-29.33Z"/>
          <path class="cls-31" d="m556.22,2.51H131.81c-20.15,0-36.66,13.2-36.66,29.33v260.01c0,16.13,16.51,29.33,36.66,29.33h26.15c20.16,0,36.66-13.2,36.66-29.33,0,16.13,16.5,29.33,36.66,29.33h225.35c20.16,0,36.66-13.2,36.66-29.33,0,16.13,16.5,29.33,36.66,29.33h26.28c20.16,0,36.66-13.2,36.66-29.33V31.84c0-16.13-16.5-29.33-36.66-29.33Z"/>
          <path class="cls-21" d="m557.92,2.03H133.51c-20.15,0-36.66,13.2-36.66,29.33v260.01c0,16.13,16.51,29.33,36.66,29.33h26.15c20.16,0,36.66-13.2,36.66-29.33,0,16.13,16.5,29.33,36.66,29.33h225.35c20.16,0,36.66-13.2,36.66-29.33,0,16.13,16.5,29.33,36.66,29.33h26.28c20.16,0,36.66-13.2,36.66-29.33V31.36c0-16.13-16.5-29.33-36.66-29.33Z"/>
          <path class="cls-54" d="m559.62,1.55H135.21c-20.14,0-36.66,13.2-36.66,29.33v260.01c0,16.13,16.51,29.33,36.66,29.33h26.15c20.16,0,36.66-13.2,36.66-29.33,0,16.13,16.5,29.33,36.66,29.33h225.35c20.16,0,36.66-13.2,36.66-29.33,0,16.13,16.5,29.33,36.66,29.33h26.28c20.16,0,36.66-13.2,36.66-29.33V30.88c0-16.13-16.5-29.33-36.66-29.33Z"/>
        </g>
        <g>
          <g>
            <path class="cls-54" d="m496.69,269.84V110.59c0-16.13-16.5-29.33-36.66-29.33h-225.35c-20.16,0-36.66,13.2-36.66,29.33v180.3c0,16.13,16.5,29.33,36.66,29.33h225.35c20.16,0,36.66-13.2,36.66-29.33v-21.04Z"/>
            <path class="cls-31" d="m199.8,111.86c0-15.96,16.32-27.43,36.15-29.15.1,0,8.62-.03,8.73-.03h205.43c.11,0,8.54.02,8.64.03,19.83,1.71,36.15,13.19,36.15,29.15v20.58c0,15.37,0,42.47,0,57.83v20.77c0,15.36,0,42.47,0,57.83v20.74c0,15.96-16.32,27.43-36.15,29.15-.1,0-8.62.03-8.73.03h-205.42c-.11,0-8.54-.02-8.65-.03-19.83-1.71-36.15-13.19-36.15-29.15V111.86Z"/>
            <path class="cls-6" d="m201.58,113.13c0-15.79,16.07-27.22,35.64-28.98.21-.02,8.41-.05,8.62-.05h203.09c.22,0,8.34.03,8.54.05,19.58,1.75,35.65,13.19,35.65,28.98v20.28c0,14.6,0,42.41,0,57v20.47c0,14.59,0,42.41,0,57.01v20.44c0,15.79-16.07,27.22-35.64,28.98-.21.02-8.41.05-8.63.05h-203.08c-.22,0-8.34-.03-8.55-.05-19.58-1.75-35.65-13.19-35.65-28.98V113.13Z"/>
            <path class="cls-51" d="m203.36,114.41c0-15.62,15.82-27,35.14-28.8.31-.03,8.2-.08,8.52-.08h200.74c.33,0,8.13.05,8.44.08,19.32,1.78,35.14,13.18,35.14,28.8v19.98c0,13.84,0,42.35,0,56.17v20.18c0,13.83,0,42.36,0,56.18v20.14c0,15.62-15.82,27-35.14,28.8-.31.03-8.2.08-8.53.08h-200.73c-.33,0-8.14-.05-8.45-.08-19.32-1.79-35.14-13.18-35.14-28.8V114.41Z"/>
            <path class="cls-23" d="m205.14,115.68c0-15.45,15.57-26.79,34.63-28.62.42-.04,7.99-.11,8.42-.11h198.39c.43,0,7.93.07,8.35.1,19.06,1.82,34.64,13.17,34.64,28.63v19.69c0,13.07,0,42.28,0,55.34v19.88c0,13.06,0,42.3,0,55.36v19.84c0,15.45-15.57,26.79-34.63,28.62-.42.04-7.99.11-8.43.11h-198.38c-.43,0-7.94-.07-8.35-.1-19.06-1.82-34.64-13.17-34.64-28.63V115.68Z"/>
            <path class="cls-7" d="m206.92,116.95c0-15.28,15.32-26.57,34.12-28.45.52-.05,7.78-.13,8.32-.13h196.05c.54,0,7.73.08,8.25.13,18.81,1.86,34.13,13.17,34.13,28.45v19.39c0,12.3,0,42.22,0,54.51v19.58c0,12.29,0,42.24,0,54.53v19.54c0,15.28-15.32,26.57-34.12,28.45-.52.05-7.78.13-8.33.13h-196.03c-.54,0-7.73-.08-8.25-.13-18.81-1.86-34.13-13.17-34.13-28.45V116.95Z"/>
            <path class="cls-28" d="m208.7,118.23c0-15.11,15.07-26.36,33.62-28.27.63-.06,7.57-.16,8.22-.16h193.7c.65,0,7.53.09,8.15.16,18.55,1.9,33.63,13.16,33.63,28.27v19.09c0,11.53,0,42.16,0,53.68v19.29c0,11.52,0,42.18,0,53.7v19.24c0,15.11-15.07,26.36-33.61,28.27-.63.06-7.57.16-8.23.16h-193.69c-.65,0-7.53-.09-8.15-.16-18.55-1.9-33.63-13.16-33.63-28.27V118.23Z"/>
            <path class="cls-18" d="m210.48,119.5c0-14.94,14.82-26.14,33.11-28.09.73-.08,7.36-.19,8.12-.19h191.35c.76,0,7.33.11,8.05.18,18.3,1.94,33.12,13.15,33.12,28.1v18.8c0,10.76,0,42.1,0,52.85v18.99c0,10.75,0,42.12,0,52.88v18.94c0,14.94-14.82,26.14-33.11,28.09-.73.08-7.36.19-8.13.19h-191.34c-.76,0-7.33-.11-8.05-.18-18.3-1.94-33.12-13.15-33.12-28.1V119.5Z"/>
            <path class="cls-13" d="m212.26,120.77c0-14.77,14.57-25.93,32.6-27.92.83-.09,7.15-.21,8.02-.21h189.01c.87,0,7.12.12,7.95.21,18.04,1.97,32.62,13.15,32.62,27.92v18.5c0,9.99,0,42.04,0,52.02v18.7c0,9.99,0,42.07,0,52.05v18.64c0,14.77-14.57,25.93-32.6,27.92-.83.09-7.15.21-8.03.21h-188.99c-.87,0-7.13-.12-7.96-.21-18.04-1.98-32.62-13.15-32.62-27.92V120.77Z"/>
            <path class="cls-9" d="m214.03,122.05c0-14.6,14.32-25.71,32.09-27.74.94-.11,6.94-.24,7.92-.24h186.66c.98,0,6.92.13,7.85.24,17.79,2.01,32.11,13.14,32.11,27.74v18.2c0,9.22,0,41.97,0,51.19v18.4c0,9.22,0,42.01,0,51.22v18.35c0,14.6-14.32,25.71-32.09,27.74-.94.11-6.94.24-7.93.24h-186.64c-.98,0-6.93-.13-7.86-.24-17.79-2.01-32.11-13.14-32.11-27.74V122.05Z"/>
            <path class="cls-1" d="m215.81,123.32c0-14.43,14.06-25.5,31.59-27.56,1.04-.12,6.73-.27,7.82-.27h184.31c1.09,0,6.72.14,7.75.26,17.54,2.05,31.61,13.13,31.61,27.57v17.9c0,8.46,0,41.91,0,50.36v18.11c0,8.45,0,41.95,0,50.4v18.05c0,14.43-14.06,25.5-31.59,27.56-1.04.12-6.73.27-7.82.27h-184.3c-1.09,0-6.72-.14-7.76-.26-17.54-2.05-31.61-13.13-31.61-27.57V123.32Z"/>
            <path class="cls-63" d="m217.59,124.6c0-14.26,13.81-25.28,31.08-27.39,1.14-.14,6.52-.29,7.72-.29h181.97c1.2,0,6.52.15,7.65.29,17.29,2.09,31.1,13.12,31.1,27.39v17.61c0,7.69,0,41.85,0,49.53v17.81c0,7.68,0,41.89,0,49.57v17.75c0,14.26-13.81,25.28-31.08,27.39-1.14.14-6.52.29-7.72.29h-181.95c-1.2,0-6.52-.15-7.66-.29-17.28-2.09-31.1-13.13-31.1-27.39V124.6Z"/>
            <path class="cls-25" d="m219.37,125.87c0-14.09,13.55-25.07,30.57-27.21,1.25-.16,6.31-.32,7.62-.32h179.62c1.3,0,6.32.16,7.56.31,17.04,2.13,30.6,13.12,30.6,27.21v17.31c0,6.92,0,41.79,0,48.7v17.52c0,6.91,0,41.83,0,48.75v17.45c0,14.09-13.55,25.07-30.57,27.21-1.25.16-6.31.32-7.62.32h-179.6c-1.3,0-6.32-.16-7.56-.31-17.03-2.13-30.6-13.12-30.6-27.21V125.87Z"/>
            <path class="cls-33" d="m221.15,127.14c0-13.92,13.3-24.85,30.06-27.03,1.35-.18,6.1-.35,7.52-.35h177.27c1.41,0,6.12.17,7.46.34,16.79,2.17,30.09,13.11,30.09,27.04v17.01c0,6.15,0,41.73,0,47.87v17.22c0,6.14,0,41.77,0,47.92v17.15c0,13.92-13.3,24.85-30.06,27.03-1.35.18-6.1.35-7.52.35h-177.25c-1.41,0-6.12-.17-7.46-.34-16.78-2.17-30.09-13.11-30.09-27.04V127.14Z"/>
            <path class="cls-26" d="m222.93,128.42c0-13.75,13.04-24.64,29.56-26.86,1.45-.2,5.89-.37,7.42-.37h174.93c1.52,0,5.91.17,7.36.37,16.54,2.21,29.59,13.1,29.59,26.86v16.71c0,5.38,0,41.67,0,47.04v16.93c0,5.38,0,41.72,0,47.09v16.85c0,13.75-13.04,24.64-29.56,26.86-1.45.2-5.89.37-7.42.37h-174.91c-1.52,0-5.92-.17-7.36-.37-16.53-2.21-29.59-13.1-29.59-26.86v-144.63Z"/>
            <path class="cls-42" d="m224.71,129.69c0-13.58,12.78-24.42,29.05-26.68,1.56-.22,5.68-.4,7.32-.4h172.58c1.63,0,5.71.18,7.26.39,16.29,2.25,29.08,13.1,29.08,26.69v16.42c0,4.61-.01,41.6-.01,46.21v16.63c0,4.61-.01,41.66-.01,46.27v16.55c0,13.58-12.78,24.42-29.05,26.68-1.56.22-5.68.4-7.32.4h-172.56c-1.63,0-5.72-.18-7.26-.39-16.29-2.25-29.08-13.1-29.08-26.69v-142.08Z"/>
            <path class="cls-39" d="m226.49,130.96c0-13.41,12.52-24.21,28.54-26.5,1.66-.24,5.47-.43,7.22-.43h170.23c1.74,0,5.51.18,7.16.42,16.04,2.28,28.58,13.09,28.58,26.51v16.12c0,3.84-.01,41.54-.01,45.38v16.34c0,3.84-.01,41.6-.01,45.44v16.25c0,13.41-12.52,24.2-28.54,26.5-1.66.24-5.47.43-7.22.43h-170.21c-1.74,0-5.52-.19-7.16-.42-16.04-2.29-28.58-13.09-28.58-26.51v-139.53Z"/>
            <path class="cls-62" d="m228.27,132.24c0-13.24,12.26-23.99,28.03-26.33,1.76-.26,5.26-.45,7.12-.45h167.89c1.85,0,5.31.19,7.06.45,15.79,2.32,28.07,13.08,28.07,26.33v15.82c0,3.07-.01,41.48-.01,44.55v16.04c0,3.07-.01,41.54-.01,44.61v15.95c0,13.24-12.26,23.99-28.03,26.33-1.76.26-5.26.45-7.12.45h-167.86c-1.85,0-5.32-.19-7.07-.45-15.79-2.32-28.07-13.08-28.07-26.33v-136.98Z"/>
            <path class="cls-45" d="m230.05,133.51c0-13.07,12-23.77,27.53-26.15,1.86-.29,5.05-.48,7.02-.48h165.54c1.96,0,5.11.19,6.96.47,15.55,2.36,27.57,13.08,27.57,26.16v15.52c0,2.31-.01,41.42-.01,43.72v15.74c0,2.3-.01,41.48-.01,43.79v15.65c0,13.07-12,23.77-27.53,26.15-1.86.29-5.05.48-7.02.48h-165.52c-1.96,0-5.11-.19-6.97-.47-15.55-2.36-27.57-13.08-27.57-26.16v-134.43Z"/>
            <path class="cls-46" d="m231.83,134.79c0-12.9,11.74-23.56,27.02-25.97,1.97-.31,4.84-.51,6.92-.51h163.19c2.06,0,4.91.19,6.86.5,15.3,2.4,27.07,13.07,27.07,25.98v15.23c0,1.54-.01,41.36-.01,42.89v15.45c0,1.54-.01,41.43-.01,42.96v15.36c0,12.9-11.74,23.56-27.02,25.97-1.97.31-4.84.51-6.92.51h-163.17c-2.07,0-4.91-.19-6.87-.5-15.3-2.4-27.06-13.07-27.06-25.98v-131.89Z"/>
            <path class="cls-4" d="m233.61,136.06c0-12.73,11.47-23.34,26.51-25.8,2.07-.34,4.63-.53,6.82-.53h160.85c2.17,0,4.71.19,6.77.52,15.06,2.44,26.56,13.06,26.56,25.8v14.93c0,.77-.01,41.29-.01,42.06v15.15c0,.77-.01,41.37-.01,42.13v15.06c0,12.73-11.48,23.34-26.51,25.8-2.07.34-4.63.53-6.82.53h-160.82c-2.17,0-4.71-.19-6.77-.52-15.06-2.44-26.55-13.06-26.55-25.8v-129.34Z"/>
            <path class="cls-14" d="m235.39,137.33c0-14.4,14.74-26.18,32.72-26.18h158.5c17.98,0,32.72,11.78,32.72,26.18l-.03,126.79c0,14.4-14.74,26.18-32.72,26.18h-158.47c-17.98,0-32.72-11.78-32.72-26.18v-126.79Z"/>
          </g>
          <g class="cls-11">
            <path class="cls-48" d="m496.69,269.84V110.59c0-16.13-16.5-29.33-36.66-29.33h-225.35c-20.16,0-36.66,13.2-36.66,29.33v180.3c0,16.13,16.5,29.33,36.66,29.33h225.35c20.16,0,36.66-13.2,36.66-29.33v-21.04Z"/>
            <g class="cls-11">
              <path class="cls-48" d="m496.69,269.84V110.59c0-16.13-16.5-29.33-36.66-29.33h-225.35c-20.16,0-36.66,13.2-36.66,29.33v180.3c0,16.13,16.5,29.33,36.66,29.33h225.35c20.16,0,36.66-13.2,36.66-29.33v-21.04Z"/>
            </g>
          </g>
          <g>
            <path class="cls-54" d="m360.55,81.25h99.47c20.16,0,36.66,13.2,36.66,29.33v180.3c0,16.13,16.5,29.33,36.66,29.33h26.28c20.16,0,36.66-13.2,36.66-29.33V30.88c0-16.13-16.5-29.33-36.66-29.33H135.21c-20.14,0-36.66,13.2-36.66,29.33v260.01c0,16.13,16.51,29.33,36.66,29.33h26.15c20.16,0,36.66-13.2,36.66-29.33V110.59c0-16.13,16.5-29.33,36.66-29.33h125.87Z"/>
            <path class="cls-31" d="m100.42,31.79c0-11.66,8.84-21.75,21.39-26.19,4.43-1.64,9.97-2.55,15.15-2.55h420.92c5.17,0,10.71.91,15.14,2.55,12.56,4.43,21.4,14.53,21.4,26.19v236.33c0,.65.02,1.28,0,1.9-.02.45-.33,20.76-.49,20.76-.18,7.86-4.61,14.68-11.19,19.27-6.29,4.86-14.84,6.74-24.22,6.74l-25.03-1.09c-19.2,0-34.91-14.72-34.91-30.08v-100.19c0-16.15-.57-41.96-1.4-57.66-.33-.13-.69-20.08-1.08-20.08,0-15.36-17.83-27.93-37.04-27.93h-223.82c-14.83,0-29.27,7.5-34.3,18-1.63,3.09-2.59,6.45-2.74,9.97-.29.04-.57,20.01-.81,20.12-.73,14.44-1.23,37.37-1.23,53.55,0,1.4,0,2.92,0,4.2v20.92c0,15.36,0,42.9,0,58.26v20.9c0,15.36-15.71,30.06-34.91,30.06l-24.91,1.07c-9.3,0-17.78-1.85-24.06-6.64-6.68-4.6-11.18-11.47-11.35-19.39-.17,0-.49-20.34-.49-20.84,0-15.36,0-43.1,0-58.46v-20.99c0-15.36,0-43.08,0-58.46v-20.81c0-15.36,0-43.1,0-58.46v-20.98Z"/>
            <path class="cls-6" d="m102.29,32.7c0-11.55,8.87-21.51,21.38-25.73,4.21-1.56,10.11-2.43,15.03-2.43h417.41c4.92,0,10.81.87,15.02,2.42,12.52,4.21,21.39,14.18,21.39,25.73v235.61c0,.65.02,1.28,0,1.9-.04.9-.66,20.48-.99,20.48-.35,7.46-4.9,13.62-11.16,17.45-5.98,4.62-14.09,5.22-23,5.22l-23.78-2.17c-18.24,0-33.17-16.24-33.17-30.83v-99.62c0-16.17-1.15-41.4-2.81-56.65-.65-.25-1.38-19.28-2.15-19.28,0-14.59-19.17-26.54-37.41-26.54h-222.29c-14.09,0-29.57,7.13-34.35,17.1-1.71,2.94-2.78,6.14-3.06,9.5-.58.08-1.13,19.14-1.63,19.37-1.47,14.08-2.45,36.53-2.45,52.67,0,1.33,0,2.96,0,4.17v20.78c0,14.59,0,43.27,0,57.87v20.75c0,14.59-14.93,30.79-33.17,30.79l-23.66,2.13c-8.83,0-16.89-.6-22.85-5.15-6.34-3.84-10.95-10.04-11.3-17.57-.35,0-.99-19.65-.99-20.65,0-14.59,0-43.66,0-58.26v-20.92c0-14.59,0-43.65,0-58.25v-20.74c0-14.59,0-43.67,0-58.26v-20.91Z"/>
            <path class="cls-51" d="m104.17,33.61c0-11.43,8.91-21.27,21.37-25.27,3.99-1.47,10.26-2.3,14.92-2.3h413.91c4.66,0,10.92.82,14.91,2.29,12.47,3.99,21.38,13.83,21.38,25.27v234.88c0,.64.02,1.28,0,1.89-.06,1.35-.99,20.2-1.48,20.2-.53,7.07-5.19,12.57-11.12,15.64-5.66,4.37-13.35,3.7-21.79,3.7l-22.52-3.26c-17.28,0-31.42-17.76-31.42-31.58v-99.05c0-16.18-1.72-40.85-4.21-55.65-.98-.38-2.07-18.48-3.23-18.48,0-13.83-20.51-25.14-37.79-25.14h-220.76c-13.35,0-29.87,6.75-34.4,16.2-1.79,2.78-2.96,5.83-3.39,9.04-.88.13-1.7,18.27-2.44,18.62-2.2,13.72-3.68,35.7-3.68,51.79,0,1.26,0,2.99,0,4.14v20.63c0,13.83,0,43.65,0,57.47v20.61c0,13.83-14.14,31.52-31.42,31.52l-22.42,3.2c-8.37,0-16,.66-21.65-3.66-6.01-3.08-10.73-8.62-11.25-15.75-.52,0-1.48-18.95-1.48-20.46,0-13.83,0-44.23,0-58.05v-20.84c0-13.83,0-44.21,0-58.05v-20.66c0-13.83,0-44.24,0-58.06v-20.83Z"/>
            <path class="cls-23" d="m106.04,34.52c0-11.32,8.94-21.04,21.36-24.8,3.77-1.39,10.4-2.17,14.8-2.17h410.41c4.4,0,11.03.78,14.79,2.17,12.43,3.77,21.37,13.49,21.37,24.81v234.15c0,.64.01,1.27-.01,1.89-.08,1.8-1.32,19.92-1.98,19.92-.7,6.68-5.48,11.51-11.08,13.83-5.35,4.13-12.61,2.19-20.58,2.19l-21.27-4.34c-16.32,0-29.68-19.28-29.68-32.33v-98.48c0-16.2-2.3-40.29-5.62-54.64-1.3-.5-2.76-17.69-4.31-17.69,0-13.06-21.85-23.74-38.17-23.74h-219.23c-12.61,0-30.17,6.38-34.45,15.3-1.86,2.63-3.14,5.52-3.72,8.57-1.17.17-2.27,17.4-3.26,17.87-2.93,13.36-4.9,34.86-4.9,50.91,0,1.19,0,3.03,0,4.11v20.49c0,13.06,0,44.02,0,57.08v20.47c0,13.06-13.36,32.24-29.68,32.24l-21.17,4.27c-7.9,0-15.11,1.91-20.45-2.16-5.68-2.33-10.51-7.2-11.2-13.93-.7,0-1.98-18.26-1.98-20.26,0-13.06,0-44.8,0-57.85v-20.77c0-13.06,0-44.78,0-57.85v-20.59c0-13.06,0-44.8,0-57.86v-20.76Z"/>
            <path class="cls-7" d="m107.92,35.43c0-11.2,8.98-20.8,21.35-24.34,3.55-1.31,10.55-2.04,14.69-2.04h406.91c4.14,0,11.14.73,14.68,2.04,12.39,3.54,21.36,13.14,21.36,24.35v233.42c0,.64.01,1.27-.02,1.88-.1,2.25-1.65,19.64-2.47,19.64-.88,6.29-5.77,10.45-11.04,12.02-5.03,3.89-11.87.67-19.37.67l-20.02-5.43c-15.36,0-27.93-20.79-27.93-33.08v-97.91c0-16.22-2.87-39.73-7.02-53.64-1.63-.63-3.46-16.89-5.38-16.89,0-12.29-23.19-22.35-38.55-22.35h-217.7c-11.87,0-30.47,6-34.5,14.4-1.94,2.47-3.33,5.21-4.04,8.11-1.46.21-2.84,16.53-4.07,17.12-3.66,13-6.13,34.03-6.13,50.03,0,1.12,0,3.06,0,4.08v20.35c0,12.29,0,44.39,0,56.68v20.33c0,12.29-12.57,32.97-27.93,32.97l-19.93,5.33c-7.44,0-14.22,3.16-19.24-.67-5.34-1.57-10.28-5.78-11.15-12.11-.87,0-2.47-17.56-2.47-20.07,0-12.29,0-45.36,0-57.65v-20.7c0-12.29,0-45.35,0-57.64v-20.52c0-12.29,0-45.37,0-57.66v-20.69Z"/>
            <path class="cls-28" d="m109.79,36.34c0-11.09,9.01-20.56,21.34-23.88,3.32-1.23,10.69-1.92,14.57-1.92h403.41c3.88,0,11.24.68,14.56,1.91,12.34,3.32,21.35,12.79,21.35,23.89v232.69c0,.64.01,1.27-.02,1.88-.13,2.7-1.98,19.36-2.97,19.36-1.05,5.89-6.06,9.4-11,10.21-4.72,3.64-11.13-.85-18.16-.85l-18.77-6.51c-14.4,0-26.19-22.31-26.19-33.83v-97.34c0-16.24-3.44-39.18-8.43-52.63-1.96-.76-4.15-16.09-6.46-16.09,0-11.52-24.52-20.95-38.92-20.95h-216.17c-11.12,0-30.78,5.63-34.55,13.5-2.01,2.32-3.51,4.9-4.37,7.64-1.75.25-3.4,15.66-4.89,16.36-4.4,12.64-7.35,33.19-7.35,49.15,0,1.05,0,3.09,0,4.05v20.2c0,11.52,0,44.76,0,56.28v20.19c0,11.52-11.79,33.7-26.19,33.7l-18.68,6.4c-6.97,0-13.33,4.41-18.04.82-5.01-.82-10.06-4.36-11.11-10.3-1.05,0-2.97-16.87-2.97-19.87,0-11.52,0-45.93,0-57.45v-20.63c0-11.52,0-45.91,0-57.44v-20.45c0-11.52,0-45.94,0-57.46v-20.62Z"/>
            <path class="cls-18" d="m111.67,37.25c0-10.97,9.05-20.32,21.33-23.42,3.1-1.15,10.83-1.79,14.46-1.79h399.91c3.62,0,11.35.64,14.45,1.78,12.3,3.1,21.34,12.45,21.34,23.43v231.96c0,.64,0,1.26-.02,1.87-.16,3.15-2.3,19.08-3.46,19.08-1.23,5.5-6.35,8.34-10.96,8.4-4.4,3.4-10.39-2.36-16.95-2.36l-17.52-7.6c-13.44,0-24.44-23.83-24.44-34.59v-96.77c0-16.26-4.02-38.62-9.83-51.63-2.28-.88-4.84-15.3-7.54-15.3,0-10.75-25.86-19.55-39.3-19.55h-214.65c-10.38,0-31.08,5.25-34.6,12.6-2.09,2.16-3.69,4.58-4.69,7.18-2.05.3-3.97,14.8-5.7,15.61-5.13,12.28-8.58,32.36-8.58,48.27,0,.98,0,3.13,0,4.02v20.06c0,10.75,0,45.13,0,55.89v20.05c0,10.75-11,34.43-24.44,34.43l-17.44,7.46c-6.51,0-12.45,5.66-16.84,2.31-4.67-.06-9.84-2.94-11.06-8.48-1.22,0-3.46-16.18-3.46-19.68,0-10.75,0-46.49,0-57.25v-20.55c0-10.75,0-46.48,0-57.24v-20.38c0-10.75,0-46.51,0-57.26v-20.55Z"/>
            <path class="cls-13" d="m113.54,38.16c0-10.86,9.08-20.08,21.33-22.96,2.88-1.07,10.98-1.66,14.34-1.66h396.41c3.36,0,11.46.59,14.34,1.66,12.26,2.88,21.33,12.1,21.33,22.97v231.23c0,.64,0,1.26-.03,1.87-.19,3.61-2.63,18.8-3.96,18.8-1.41,5.11-6.64,7.28-10.93,6.58-4.09,3.16-9.64-3.88-15.74-3.88l-16.27-8.68c-12.48,0-22.69-25.35-22.69-35.34v-96.19c0-16.28-4.59-38.06-11.24-50.63-2.61-1.01-5.53-14.5-8.61-14.5,0-9.99-27.2-18.16-39.68-18.16h-213.12c-9.64,0-31.38,4.88-34.65,11.7-2.17,2.01-3.87,4.27-5.02,6.71-2.34.34-4.54,13.93-6.52,14.86-5.86,11.92-9.81,31.52-9.81,47.39,0,.91,0,3.16,0,3.99v19.92c0,9.99,0,45.51,0,55.49v19.91c0,9.99-10.22,35.16-22.7,35.16l-16.19,8.53c-6.04,0-11.56,6.91-15.64,3.8-4.34.69-9.61-1.51-11.01-6.66-1.39,0-3.95-15.48-3.95-19.49,0-9.99,0-47.06,0-57.04v-20.48c0-9.99,0-47.04,0-57.03v-20.31c0-9.99,0-47.08,0-57.06v-20.48Z"/>
            <path class="cls-9" d="m115.42,39.08c0-10.74,9.12-19.84,21.32-22.5,2.66-.98,11.12-1.53,14.23-1.53h392.9c3.1,0,11.57.55,14.22,1.53,12.21,2.66,21.32,11.76,21.32,22.5v230.5c0,.63,0,1.26-.03,1.86-.22,4.06-2.96,18.52-4.45,18.52-1.58,4.71-6.94,6.23-10.89,4.77-3.77,2.92-8.9-5.39-14.53-5.39l-15.02-9.77c-11.52,0-20.95-26.87-20.95-36.09v-95.62c0-16.29-5.17-37.5-12.64-49.62-2.93-1.14-6.22-13.7-9.69-13.7,0-9.22-28.54-16.76-40.06-16.76h-211.59c-8.9,0-31.68,4.5-34.7,10.8-2.24,1.85-4.06,3.96-5.35,6.24-2.63.38-5.11,13.06-7.33,14.11-6.6,11.57-11.03,30.69-11.03,46.51,0,.84,0,3.19,0,3.96v19.77c0,9.22,0,45.88,0,55.09v19.77c0,9.22-9.43,35.89-20.95,35.89l-14.95,9.6c-5.58,0-10.67,8.16-14.43,5.29-4.01,1.45-9.39-.09-10.96-4.84-1.57,0-4.45-14.79-4.45-19.29,0-9.22,0-47.63,0-56.84v-20.41c0-9.22,0-47.61,0-56.83v-20.24c0-9.22,0-47.64,0-56.86v-20.4Z"/>
            <path class="cls-1" d="m117.29,39.99c0-10.63,9.15-19.6,21.31-22.04,2.44-.9,11.27-1.4,14.11-1.4h389.4c2.85,0,11.67.5,14.11,1.4,12.17,2.44,21.31,11.41,21.31,22.04v229.77c0,.63,0,1.25-.03,1.86-.25,4.51-3.29,18.24-4.95,18.24-1.76,4.32-7.23,5.17-10.85,2.96-3.46,2.67-8.16-6.91-13.32-6.91l-13.76-10.86c-10.56,0-19.2-28.39-19.2-36.84v-95.05c0-16.31-5.74-36.95-14.05-48.62-3.26-1.26-6.91-12.9-10.77-12.9,0-8.45-29.87-15.36-40.43-15.36h-210.06c-8.16,0-31.99,4.13-34.76,9.9-2.32,1.7-4.24,3.65-5.67,5.78-2.92.42-5.67,12.19-8.15,13.36-7.33,11.21-12.26,29.85-12.26,45.63,0,.77,0,3.23,0,3.93v19.63c0,8.45,0,46.25,0,54.7v19.62c0,8.45-8.64,36.61-19.21,36.61l-13.7,10.66c-5.11,0-9.78,9.41-13.23,6.78-3.67,2.21-9.16,1.33-10.91-3.03-1.74,0-4.94-14.09-4.94-19.1,0-8.45,0-48.19,0-56.64v-20.34c0-8.45,0-48.17,0-56.63v-20.17c0-8.45,0-48.21,0-56.66v-20.33Z"/>
            <path class="cls-63" d="m119.16,40.9c0-10.52,9.19-19.36,21.3-21.58,2.22-.82,11.41-1.28,14-1.28h385.9c2.59,0,11.78.46,13.99,1.27,12.13,2.22,21.3,11.06,21.3,21.58v229.04c0,.63,0,1.25-.04,1.85-.28,4.96-3.62,17.96-5.44,17.96-1.93,3.93-7.52,4.11-10.81,1.15-3.14,2.43-7.42-8.43-12.11-8.43l-12.51-11.94c-9.6,0-17.46-29.91-17.46-37.59v-94.48c0-16.33-6.32-36.39-15.45-47.61-3.58-1.39-7.6-12.11-11.84-12.11,0-7.68-31.21-13.97-40.81-13.97h-208.53c-7.42,0-32.29,3.75-34.81,9-2.4,1.55-4.42,3.34-6,5.31-3.22.46-6.24,11.32-8.96,12.6-8.06,10.85-13.48,29.01-13.48,44.75,0,.7,0,3.26,0,3.9v19.49c0,7.68,0,46.62,0,54.3v19.48c0,7.68-7.86,37.34-17.46,37.34l-12.46,11.73c-4.65,0-8.89,10.67-12.03,8.27-3.34,2.96-8.94,2.75-10.86-1.21-1.92,0-5.44-13.4-5.44-18.91,0-7.68,0-48.76,0-56.44v-20.26c0-7.68,0-48.74,0-56.43v-20.1c0-7.68,0-48.78,0-56.46v-20.26Z"/>
            <path class="cls-25" d="m121.04,41.81c0-10.4,9.22-19.12,21.29-21.12,1.99-.74,11.55-1.15,13.88-1.15h382.4c2.33,0,11.89.41,13.88,1.15,12.08,1.99,21.29,10.72,21.29,21.12v228.31c0,.63,0,1.25-.04,1.85-.32,5.41-3.95,17.68-5.94,17.68-2.11,3.54-7.81,3.06-10.77-.66-2.83,2.19-6.68-9.94-10.9-9.94l-11.26-13.03c-8.64,0-15.71-31.43-15.71-38.34v-93.91c0-16.35-6.89-35.83-16.86-46.61-3.91-1.51-8.29-11.31-12.92-11.31,0-6.91-32.55-12.57-41.19-12.57h-207c-6.67,0-32.59,3.38-34.86,8.1-2.47,1.39-4.61,3.03-6.32,4.85-3.51.51-6.81,10.45-9.78,11.85-8.79,10.49-14.71,28.18-14.71,43.87,0,.63,0,3.29,0,3.87v19.34c0,6.91,0,46.99,0,53.91v19.34c0,6.91-7.07,38.07-15.71,38.07l-11.21,12.8c-4.18,0-8,11.92-10.83,9.76-3.01,3.72-8.72,4.17-10.81.61-2.09,0-5.93-12.7-5.93-18.71,0-6.91,0-49.32,0-56.24v-20.19c0-6.91,0-49.3,0-56.22v-20.03c0-6.91,0-49.35,0-56.26v-20.19Z"/>
            <path class="cls-33" d="m122.91,42.72c0-10.29,9.25-18.88,21.28-20.66,1.77-.66,11.7-1.02,13.77-1.02h378.9c2.07,0,11.99.37,13.77,1.02,12.04,1.77,21.28,10.37,21.28,20.66v227.58c0,.63,0,1.24-.04,1.84-.35,5.86-4.28,17.4-6.43,17.4-2.28,3.14-8.1,2-10.73-2.48-2.52,1.94-5.93-11.46-9.69-11.46l-10.01-14.11c-7.68,0-13.97-32.95-13.97-39.09v-93.34c0-16.37-7.46-35.27-18.26-45.6-4.24-1.64-8.98-10.51-14-10.51,0-6.14-33.89-11.17-41.57-11.17h-205.47c-5.93,0-32.89,3-34.91,7.2-2.55,1.24-4.79,2.72-6.65,4.38-3.8.55-7.37,9.58-10.59,11.1-9.53,10.13-15.93,27.34-15.93,42.99,0,.56,0,3.33,0,3.84v19.2c0,6.14,0,47.36,0,53.51v19.2c0,6.14-6.29,38.8-13.97,38.8l-9.96,13.86c-3.72,0-7.11,13.17-9.62,11.25-2.67,4.47-8.49,5.6-10.76,2.43-2.27,0-6.43-12.01-6.43-18.52,0-6.14,0-49.89,0-56.03v-20.12c0-6.14,0-49.87,0-56.02v-19.96c0-6.14,0-49.92,0-56.06v-20.12Z"/>
            <path class="cls-26" d="m124.79,43.63c0-10.17,9.29-18.64,21.27-20.2,1.55-.57,11.84-.89,13.65-.89h375.4c1.81,0,12.1.32,13.65.89,12,1.55,21.27,10.03,21.27,20.2v226.86c0,.63,0,1.24-.04,1.84-.39,6.31-4.61,17.13-6.93,17.13-2.46,2.75-8.39.94-10.7-4.29-2.2,1.7-5.19-12.98-8.48-12.98l-8.76-15.2c-6.72,0-12.22-34.46-12.22-39.84v-92.77c0-16.38-6.55-36.79-19.66-44.6-4.2-2.5-9.68-9.72-15.07-9.72,0-5.38-35.22-9.78-41.94-9.78h-203.94c-5.19,0-33.2,2.63-34.96,6.3-2.63,1.08-4.97,2.41-6.98,3.92-4.09.59-8.25,8.18-11.41,10.35-11.69,8.01-17.16,26.51-17.16,42.11,0,.49,0,3.36,0,3.81v19.06c0,5.38,0,47.74,0,53.11v19.06c0,5.38-5.5,39.53-12.22,39.53l-8.72,14.93c-3.25,0-6.22,14.42-8.42,12.74-2.34,5.23-8.27,7.02-10.71,4.25-2.44,0-6.92-11.31-6.92-18.33,0-5.38,0-50.46,0-55.83v-20.05c0-5.38,0-50.43,0-55.82v-19.89c0-5.38,0-50.48,0-55.86v-20.05Z"/>
            <path class="cls-42" d="m126.66,44.54c0-10.06,9.32-18.41,21.26-19.74,1.33-.49,11.98-.77,13.54-.77h371.9c1.55,0,12.21.27,13.54.76,11.95,1.33,21.26,9.68,21.26,19.74v226.13c0,.62,0,1.24-.05,1.83-.43,6.75-4.94,16.85-7.42,16.85-2.64,2.36-8.68-.11-10.66-6.1-1.89,1.46-4.45-14.49-7.26-14.49l-7.51-16.28c-5.76,0-10.47-35.98-10.47-40.59v-92.2c0-16.4-7.42-35.98-21.07-43.59-4.58-2.55-10.37-8.92-16.15-8.92,0-4.61-36.56-8.38-42.32-8.38h-202.42c-4.45,0-33.5,2.25-35.01,5.4-2.7.93-5.16,2.09-7.3,3.45-4.39.63-8.78,7.37-12.22,9.6-12.15,7.86-18.39,25.67-18.39,41.23,0,.42,0,3.4,0,3.78v18.91c0,4.61,0,48.11,0,52.72v18.92c0,4.61-4.72,40.26-10.48,40.26l-7.47,15.99c-2.79,0-5.34,15.67-7.22,14.23-2,5.98-8.05,8.44-10.66,6.06-2.62,0-7.42-10.62-7.42-18.13,0-4.61,0-51.02,0-55.63v-19.97c0-4.61,0-51,0-55.61v-19.82c0-4.61,0-51.05,0-55.66v-19.98Z"/>
            <path class="cls-39" d="m128.54,45.45c0-9.94,9.36-18.17,21.26-19.27,1.11-.41,12.13-.64,13.42-.64h368.39c1.29,0,12.32.23,13.42.64,11.91,1.11,21.25,9.33,21.25,19.28v225.4c0,.62-.01,1.23-.05,1.83-.48,7.2-5.27,16.57-7.92,16.57-2.81,1.96-8.97-1.17-10.62-7.91-1.57,1.21-3.71-16.01-6.05-16.01l-6.26-17.37c-4.8,0-8.73-37.5-8.73-41.34v-91.63c0-16.42-8.26-35.15-22.47-42.59-4.95-2.59-11.06-8.12-17.23-8.12,0-3.84-37.9-6.98-42.7-6.98h-200.89c-3.71,0-33.8,1.88-35.06,4.5-2.78.77-5.17,2.19-7.63,2.99-4.5,1.46-9.3,6.56-13.04,8.84-12.64,7.73-19.61,24.84-19.61,40.36,0,.35,0,3.43,0,3.75v18.77c0,3.84,0,48.48,0,52.32v18.78c0,3.84-3.93,40.98-8.73,40.98l-6.23,17.06c-2.32,0-4.45,16.92-6.02,15.72-1.67,6.74-7.82,9.86-10.61,7.88-2.79,0-7.91-9.92-7.91-17.94,0-3.84,0-51.59,0-55.43v-19.9c0-3.84,0-51.57,0-55.41v-19.75c0-3.84,0-51.62,0-55.46v-19.9Z"/>
            <path class="cls-62" d="m130.41,46.36c0-9.83,9.39-17.93,21.25-18.81.89-.33,12.27-.51,13.31-.51h364.89c1.03,0,12.42.18,13.31.51,11.87.89,21.24,8.99,21.24,18.82v224.67c0,.62-.01,1.23-.05,1.82-.52,7.65-5.6,16.29-8.41,16.29-2.99,1.57-9.26-2.23-10.58-9.72-1.26.97-2.97-17.52-4.84-17.52l-5.01-18.45c-3.84,0-6.98-39.02-6.98-42.09v-91.06c0-16.44-9.07-34.31-23.88-41.59-5.33-2.62-11.75-7.32-18.3-7.32,0-3.07-39.24-5.59-43.08-5.59h-199.36c-2.97,0-34.1,1.5-35.11,3.6-2.85.62-5.41,1.8-7.96,2.52-4.83,1.37-9.83,5.76-13.85,8.09-13.15,7.61-20.84,24-20.84,39.48,0,.28,0,3.46,0,3.72v18.63c0,3.07,0,48.85,0,51.92v18.64c0,3.07-3.15,41.71-6.99,41.71l-4.98,18.13c-1.86,0-3.56,18.17-4.81,17.21-1.34,7.5-7.6,11.28-10.56,9.7-2.96,0-8.4-9.23-8.4-17.74,0-3.07,0-52.15,0-55.23v-19.83c0-3.07,0-52.13,0-55.21v-19.68c0-3.07,0-52.19,0-55.26v-19.83Z"/>
            <path class="cls-45" d="m132.29,47.28c0-9.71,9.43-17.69,21.24-18.35.66-.25,12.42-.38,13.19-.38h361.39c.78,0,12.53.14,13.19.38,11.82.66,21.23,8.64,21.23,18.35v223.94c0,.62-.02,1.23-.06,1.82-.57,8.1-5.93,16.01-8.91,16.01-3.16,1.18-9.55-3.28-10.54-11.53-.94.73-2.23-19.04-3.63-19.04l-3.75-19.54c-2.88,0-5.24-40.54-5.24-42.84v-90.49c0-16.46-9.85-33.45-25.28-40.58-5.71-2.64-12.44-6.53-19.38-6.53,0-2.3-40.57-4.19-43.45-4.19h-197.83c-2.22,0-34.41,1.13-35.16,2.7-2.93.46-5.63,1.41-8.28,2.06-5.17,1.26-10.35,4.97-14.67,7.34-13.68,7.51-22.06,23.17-22.06,38.6,0,.21,0,3.5,0,3.69v18.48c0,2.3,0,49.22,0,51.53v18.49c0,2.3-2.36,42.44-5.24,42.44l-3.74,19.19c-1.39,0-2.67,19.42-3.61,18.71-1,8.25-7.38,12.7-10.51,11.52-3.14,0-8.9-8.54-8.9-17.55,0-2.3,0-52.72,0-55.02v-19.76c0-2.3,0-52.7,0-55v-19.61c0-2.3,0-52.76,0-55.06v-19.76Z"/>
            <path class="cls-46" d="m134.16,48.19c0-9.6,9.46-17.45,21.23-17.89.44-.16,12.56-.26,13.08-.26h357.89c.52,0,12.64.09,13.08.25,11.78.44,21.22,8.29,21.22,17.89v223.21c0,.62-.02,1.22-.06,1.81-.61,8.55-6.26,15.73-9.4,15.73-3.34.79-9.85-4.34-10.5-13.35-.63.49-1.48-20.56-2.42-20.56l-2.5-20.63c-1.92,0-3.49-42.06-3.49-43.59v-89.92c0-16.48-10.61-32.58-26.69-39.58-6.09-2.65-13.13-5.73-20.46-5.73,0-1.54-41.91-2.79-43.83-2.79h-196.3c-1.48,0-34.71.75-35.21,1.8-3.01.31-5.85,1.02-8.61,1.59-5.5,1.14-10.87,4.19-15.48,6.59-14.23,7.42-23.29,22.33-23.29,37.72,0,.14,0,3.53,0,3.66v18.34c0,1.54,0,49.6,0,51.13v18.35c0,1.54-1.58,43.17-3.5,43.17l-2.49,20.26c-.93,0-1.78,20.68-2.41,20.2-.67,9.01-7.08,13.73-10.46,13.33s-9.39-7.84-9.39-17.36c0-1.54,0-53.29,0-54.82v-19.68c0-1.54,0-53.26,0-54.8v-19.54c0-1.54,0-53.32,0-54.86v-19.69Z"/>
            <path class="cls-4" d="m136.03,49.1c0-9.48,9.5-17.21,21.22-17.43.22-.08,12.7-.13,12.96-.13h354.39c.26,0,12.74.05,12.97.13,11.74.22,21.21,7.95,21.21,17.43v222.48c0,.62-.02,1.22-.06,1.81-.68,9-6.59,15.45-9.9,15.45-3.51.39-10.14-5.4-10.47-15.16-.31.24-.74-22.07-1.21-22.07l-1.25-21.71c-.96,0-1.75-43.58-1.75-44.35v-89.35c0-16.49-11.34-31.7-28.09-38.57-6.47-2.65-13.82-4.93-21.53-4.93,0-.77-43.25-1.4-44.21-1.4h-194.77c-.74,0-35.01.38-35.26.9-3.08.15-6.05.62-8.93,1.12-5.82,1.02-11.39,3.41-16.29,5.84-14.8,7.33-24.51,21.5-24.51,36.84,0,.07,0,3.56,0,3.63v18.2c0,.77,0,49.97,0,50.74v18.21c0,.77-.79,43.9-1.75,43.9l-1.25,21.33c-.46,0-.89,21.93-1.2,21.69-.33,9.76-6.91,15.35-10.42,15.15s-9.89-7.15-9.89-17.16c0-.77,0-53.85,0-54.62v-19.61c0-.77,0-53.83,0-54.6v-19.47c0-.77,0-53.89,0-54.66v-19.62Z"/>
            <path class="cls-14" d="m546.44,288.73c-3.69,0-10.43-6.45-10.43-16.97V91.5c0-22.99-23.37-41.7-52.11-41.7H210.77c-28.73,0-52.11,18.71-52.11,41.7l-.02,180.26c0,10.52-6.7,16.97-10.37,16.97s-10.38-6.45-10.38-16.97l.02-221.75c0-9.37,9.53-16.97,21.21-16.97h376.59c11.69,0,21.2,7.6,21.2,16.97v221.75c0,10.52-6.77,16.97-10.46,16.97Z"/>
          </g>
          <path class="cls-37" d="m360.55,81.25h99.47c20.16,0,36.66,13.2,36.66,29.33v180.3c0,16.13,16.5,29.33,36.66,29.33h26.28c20.16,0,36.66-13.2,36.66-29.33V30.88c0-16.13-16.5-29.33-36.66-29.33H135.21c-20.14,0-36.66,13.2-36.66,29.33v260.01c0,16.13,16.51,29.33,36.66,29.33h26.15c20.16,0,36.66-13.2,36.66-29.33V110.59c0-16.13,16.5-29.33,36.66-29.33h125.87Z"/>
          <path class="cls-37" d="m496.69,269.84V110.59c0-16.13-16.5-29.33-36.66-29.33h-225.35c-20.16,0-36.66,13.2-36.66,29.33v180.3c0,16.13,16.5,29.33,36.66,29.33h225.35c20.16,0,36.66-13.2,36.66-29.33v-21.04Z"/>
        </g>
        <path class="cls-10" d="m559.62,0H135.21c-21.27,0-38.59,13.86-38.59,30.88v260.01c0,17.02,17.32,30.88,38.59,30.88h26.15c17.26,0,31.75-9.18,36.66-21.72,4.91,12.53,19.39,21.72,36.66,21.72h225.35c17.26,0,31.75-9.18,36.66-21.72,4.91,12.53,19.39,21.72,36.66,21.72h26.28c21.27,0,38.59-13.86,38.59-30.88V30.88c0-17.02-17.32-30.88-38.59-30.88Z"/>
      </g>
    </g>
  </g>
</svg>