<?xml version="1.0" encoding="UTF-8"?>
<svg id="Layer_1" data-name="Layer 1" xmlns="http://www.w3.org/2000/svg" viewBox="0 0 116.12 89.22">
  <defs>
    <style>
      .cls-1 {
        fill: #5678a5;
      }

      .cls-2 {
        fill: #658dc1;
      }

      .cls-3 {
        fill: #76a1cd;
      }

      .cls-4 {
        fill: #cad1ea;
      }

      .cls-5 {
        fill: #5e84b5;
      }

      .cls-6 {
        fill: #e6e8f4;
      }
    </style>
  </defs>
  <g>
    <path class="cls-2" d="m109.49,7.7c3.66,0,6.63,8.48,6.63,18.96v43.61c0,10.47-2.97,18.96-6.63,18.96H6.63c-3.66,0-6.63-8.49-6.63-18.96V26.65C0,16.18,2.97,7.7,6.63,7.7h102.86Z"/>
    <path class="cls-3" d="m103.71,14.1c3.48,0,6.31,7.22,6.31,16.14v37.09c0,8.91-2.83,16.13-6.31,16.13H12.41c-3.49,0-6.31-7.22-6.31-16.13V30.24c0-8.91,2.82-16.14,6.31-16.14h91.3Z"/>
    <path class="cls-1" d="m87.7,0c3.14,0,5.67,4.09,5.67,9.14v50.26c0,5.04-2.54,9.14-5.67,9.14H29.86c-3.13,0-5.67-4.09-5.67-9.14V9.14c0-5.04,2.53-9.14,5.67-9.14h57.84Z"/>
    <path class="cls-5" d="m79.72,7.71c2.87,0,5.2,3.17,5.2,7.08v38.96c0,3.91-2.33,7.08-5.2,7.08h-41.88c-2.87,0-5.21-3.17-5.21-7.08V14.79c0-3.91,2.33-7.08,5.21-7.08h41.88Z"/>
    <path class="cls-2" d="m73.69,15.36c2.04,0,3.7,2.26,3.7,5.04v27.73c0,2.78-1.66,5.04-3.7,5.04h-29.81c-2.05,0-3.71-2.26-3.71-5.04v-27.73c0-2.78,1.66-5.04,3.71-5.04h29.81Z"/>
  </g>
  <g>
    <polygon class="cls-4" points="55.39 28.67 74.47 23.98 74.81 42.23 80.45 59.74 60.8 61.06 41.65 65.24 41.53 46.96 35.67 29.48 55.39 28.67"/>
    <polygon class="cls-6" points="56.45 34.99 67.97 32.15 68.17 43.17 71.57 53.74 59.72 54.54 48.15 57.07 48.07 46.03 44.54 35.48 56.45 34.99"/>
  </g>
</svg>