<?xml version="1.0" encoding="UTF-8"?>
<svg xmlns="http://www.w3.org/2000/svg" xmlns:xlink="http://www.w3.org/1999/xlink" viewBox="0 0 543.82 427.32">
  <defs>
    <style>
      .cls-1 {
        fill: #ddd;
      }

      .cls-2 {
        fill: #e9e9e9;
      }

      .cls-3 {
        fill: #f0f0f0;
      }

      .cls-4 {
        fill: #f4f4f4;
      }

      .cls-5 {
        fill: #fff;
      }

      .cls-6 {
        fill: #ff564a;
      }

      .cls-7 {
        fill: #cbcbcb;
      }

      .cls-8 {
        fill: #d1d1d1;
      }

      .cls-9 {
        fill: #fafafa;
      }

      .cls-10 {
        fill: #dbdbdb;
      }

      .cls-11 {
        fill: #cacaca;
      }

      .cls-12 {
        fill: #d8d8d8;
      }

      .cls-13 {
        fill: #f6f6f6;
      }

      .cls-14 {
        fill: #e2e2e2;
      }

      .cls-15 {
        fill: #f5f5f5;
      }

      .cls-16 {
        isolation: isolate;
      }

      .cls-17 {
        fill: #d6d6d6;
      }

      .cls-18 {
        fill: #c9c9c9;
      }

      .cls-19 {
        fill: #e0e0e0;
      }

      .cls-20 {
        fill: #c7c7c7;
      }

      .cls-21 {
        fill: #dedede;
      }

      .cls-22 {
        fill: #cfcfcf;
      }

      .cls-23 {
        fill: #d7d7d7;
      }

      .cls-24 {
        fill: #e1e1e1;
      }

      .cls-25 {
        fill: #e6e6e6;
      }

      .cls-26 {
        fill: #e7e7e7;
      }

      .cls-27, .cls-28, .cls-29, .cls-30 {
        stroke: #9d9d9c;
        stroke-miterlimit: 10;
        stroke-width: .03px;
      }

      .cls-27, .cls-31 {
        fill: #c6c6c6;
      }

      .cls-32 {
        fill: url(#linear-gradient-2);
      }

      .cls-32, .cls-33 {
        stroke: #949494;
        stroke-linecap: round;
        stroke-linejoin: round;
        stroke-width: .03px;
      }

      .cls-33 {
        fill: url(#linear-gradient);
      }

      .cls-34 {
        fill: #d4d4d4;
      }

      .cls-28 {
        fill: url(#linear-gradient-4);
      }

      .cls-35 {
        fill: #dadada;
      }

      .cls-36 {
        fill: #eaeaea;
      }

      .cls-37 {
        fill: #c8c8c8;
      }

      .cls-38 {
        fill: #fdfdfd;
      }

      .cls-39 {
        fill: #e4e4e4;
      }

      .cls-40 {
        fill: #fbfbfb;
      }

      .cls-41 {
        fill: #f9f9f9;
      }

      .cls-42 {
        fill: #e5e5e5;
      }

      .cls-43 {
        fill: #d3d3d3;
      }

      .cls-44 {
        fill: #ebebeb;
      }

      .cls-45 {
        fill: #d5d5d5;
      }

      .cls-46 {
        fill: #dcdcdc;
      }

      .cls-29 {
        fill: url(#linear-gradient-3);
      }

      .cls-47 {
        fill: #706f6f;
      }

      .cls-47, .cls-48 {
        mix-blend-mode: multiply;
      }

      .cls-49 {
        fill: #e8e8e8;
      }

      .cls-50 {
        fill: #ccc;
      }

      .cls-30 {
        fill: url(#linear-gradient-5);
      }

      .cls-51 {
        fill: #f7f7f7;
      }

      .cls-52 {
        fill: #efefef;
      }

      .cls-53 {
        fill: #f1f1f1;
      }

      .cls-54 {
        fill: #cecece;
      }

      .cls-55 {
        fill: #f3f3f3;
      }

      .cls-56 {
        fill: #d9d9d9;
      }

      .cls-57 {
        fill: #cdcdcd;
      }

      .cls-58 {
        fill: #f8f8f8;
      }

      .cls-59 {
        fill: #d2d2d2;
      }

      .cls-60 {
        fill: #eee;
      }

      .cls-61 {
        fill: #d0d0d0;
      }

      .cls-62 {
        fill: #ececec;
      }

      .cls-63 {
        fill: #f2f2f2;
      }

      .cls-64 {
        fill: #fefefe;
      }

      .cls-65 {
        fill: #e3e3e3;
      }

      .cls-66 {
        fill: #fcfcfc;
      }

      .cls-67 {
        fill: #ededed;
      }

      .cls-68 {
        fill: #dfdfdf;
      }
    </style>
    <linearGradient id="linear-gradient" x1="2252.16" y1="770.96" x2="2290.75" y2="770.96" gradientTransform="translate(2467.48 864.41) rotate(-180)" gradientUnits="userSpaceOnUse">
      <stop offset="0" stop-color="#c2c2c1"/>
      <stop offset="1" stop-color="#878787"/>
    </linearGradient>
    <linearGradient id="linear-gradient-2" x1="1992.33" x2="2030.87" xlink:href="#linear-gradient"/>
    <linearGradient id="linear-gradient-3" x1="526.05" y1="246.63" x2="125.83" y2="246.63" gradientUnits="userSpaceOnUse">
      <stop offset="0" stop-color="#e6e6e6"/>
      <stop offset="1" stop-color="#c9c9c9"/>
    </linearGradient>
    <linearGradient id="linear-gradient-4" x1="145.2" y1="51.48" x2="506.68" y2="51.48" xlink:href="#linear-gradient-3"/>
    <linearGradient id="linear-gradient-5" x1="500.58" y1="247.46" x2="151.3" y2="247.46" gradientUnits="userSpaceOnUse">
      <stop offset="0" stop-color="#fff"/>
      <stop offset="1" stop-color="#d6d6d6"/>
    </linearGradient>
  </defs>
  <g class="cls-16">
    <g id="Layer_1" data-name="Layer 1">
      <g>
        <g>
          <rect class="cls-33" x="176.73" y="52.34" width="38.59" height="82.23"/>
          <rect class="cls-32" x="436.61" y="52.34" width="38.54" height="82.23"/>
        </g>
        <path class="cls-27" d="m325.91,2.12c-118.89,0-215.27,49.77-215.27,70.62s96.38,14.14,215.27,14.14,215.36,6.69,215.36-14.14S444.84,2.12,325.91,2.12Z"/>
        <path class="cls-29" d="m125.83,336.58c0,22.75,28.15,41.21,62.88,41.21l130.3,5.48,144.18-5.48c34.71,0,62.86-18.46,62.86-41.21l-19.94-179.93c0-22.75-28.18-41.16-62.86-41.16l-117.34-5.48-112.85,5.48c-34.7,0-62.83,18.42-62.83,41.16l-24.41,179.93Z"/>
        <g class="cls-48">
          <path class="cls-5" d="m215.29,154.05l-110.61,5.38v-27.53c32.36-.2,70.1-.96,110.61-.96s78.31.75,110.7.96v27.33l-110.7-5.17Zm215.34-37.25c0-20.85-96.41-70.62-215.34-70.62S0,95.95,0,116.8c0,10.68,25.42,14.1,66.1,14.92v35.48c-15.99,7.46-26.49,19.65-26.49,33.5l-24.41,179.93c0,22.75,28.15,41.21,62.88,41.21l130.28,5.48,144.2-5.48c34.7,0,62.86-18.46,62.86-41.21l-19.96-179.93c0-15.08-12.51-28.12-30.95-35.3v-33.69c40.69-.83,66.1-4.25,66.1-14.92Z"/>
          <path class="cls-64" d="m217.19,153.29l-110.61,5.38v-27.53c32.36-.2,70.1-.96,110.61-.96s78.31.75,110.7.96v27.33l-110.7-5.17Zm215.34-37.25c0-20.85-96.41-70.62-215.34-70.62S1.91,95.19,1.91,116.04c0,10.68,25.42,14.1,66.1,14.92v35.48c-15.99,7.46-26.49,19.65-26.49,33.5l-24.41,179.93c0,22.75,28.15,41.21,62.88,41.21l130.28,5.48,144.2-5.48c34.7,0,62.86-18.46,62.86-41.21l-19.96-179.93c0-15.08-12.51-28.12-30.95-35.3v-33.69c40.69-.83,66.1-4.25,66.1-14.92Z"/>
          <path class="cls-38" d="m219.1,152.53l-110.61,5.38v-27.53c32.36-.2,70.1-.96,110.61-.96s78.31.75,110.7.96v27.33l-110.7-5.17Zm215.34-37.25c0-20.85-96.41-70.62-215.34-70.62S3.82,94.43,3.82,115.28c0,10.68,25.42,14.1,66.1,14.92v35.49c-15.99,7.46-26.49,19.65-26.49,33.5l-24.41,179.93c0,22.75,28.15,41.21,62.88,41.21l130.28,5.48,144.2-5.48c34.7,0,62.86-18.46,62.86-41.21l-19.96-179.93c0-15.08-12.51-28.12-30.95-35.3v-33.69c40.69-.83,66.1-4.25,66.1-14.92Z"/>
          <path class="cls-66" d="m221.01,151.77l-110.61,5.37v-27.53c32.36-.2,70.1-.96,110.61-.96s78.31.75,110.7.96v27.33l-110.7-5.17Zm215.34-37.25c0-20.85-96.42-70.62-215.34-70.62S5.72,93.67,5.72,114.52c0,10.68,25.42,14.1,66.1,14.92v35.49c-15.99,7.46-26.49,19.65-26.49,33.5l-24.41,179.93c0,22.75,28.15,41.21,62.88,41.21l130.28,5.48,144.2-5.48c34.7,0,62.86-18.46,62.86-41.21l-19.95-179.93c0-15.08-12.51-28.12-30.95-35.3v-33.69c40.69-.83,66.1-4.25,66.1-14.92Z"/>
          <path class="cls-40" d="m222.91,151.01l-110.61,5.37v-27.53c32.36-.2,70.1-.96,110.61-.96s78.31.75,110.7.96v27.33l-110.7-5.17Zm215.34-37.25c0-20.85-96.42-70.62-215.34-70.62S7.63,92.91,7.63,113.76c0,10.68,25.42,14.1,66.1,14.92v35.49c-15.99,7.46-26.49,19.65-26.49,33.5l-24.41,179.93c0,22.75,28.15,41.21,62.88,41.21l130.28,5.48,144.2-5.48c34.7,0,62.86-18.46,62.86-41.21l-19.95-179.93c0-15.08-12.51-28.12-30.95-35.3v-33.69c40.69-.82,66.1-4.25,66.1-14.92Z"/>
          <path class="cls-9" d="m224.82,150.25l-110.61,5.37v-27.53c32.36-.2,70.1-.96,110.61-.96s78.31.75,110.7.96v27.33l-110.7-5.17Zm215.34-37.25c0-20.85-96.42-70.62-215.34-70.62S9.54,92.15,9.54,113c0,10.68,25.42,14.1,66.1,14.92v35.49c-15.99,7.46-26.49,19.65-26.49,33.5l-24.41,179.93c0,22.75,28.15,41.21,62.88,41.21l130.28,5.48,144.2-5.48c34.7,0,62.86-18.46,62.86-41.21l-19.95-179.93c0-15.08-12.51-28.12-30.95-35.3v-33.69c40.69-.82,66.1-4.25,66.1-14.92Z"/>
          <path class="cls-41" d="m226.73,149.5l-110.61,5.37v-27.53c32.36-.2,70.1-.96,110.61-.96s78.31.75,110.7.96v27.33l-110.7-5.17Zm215.34-37.25c0-20.85-96.42-70.62-215.34-70.62S11.45,91.39,11.45,112.24c0,10.68,25.42,14.1,66.1,14.92v35.49c-15.99,7.46-26.49,19.65-26.49,33.5l-24.41,179.93c0,22.75,28.15,41.21,62.88,41.21l130.28,5.48,144.2-5.48c34.7,0,62.86-18.46,62.86-41.21l-19.95-179.93c0-15.08-12.51-28.12-30.95-35.3v-33.69c40.69-.82,66.1-4.25,66.1-14.92Z"/>
          <path class="cls-58" d="m228.64,148.74l-110.61,5.37v-27.53c32.36-.2,70.1-.96,110.61-.96s78.31.76,110.7.96v27.33l-110.7-5.17Zm215.34-37.25c0-20.85-96.42-70.62-215.34-70.62S13.35,90.63,13.35,111.48c0,10.68,25.42,14.1,66.1,14.92v35.49c-15.99,7.46-26.49,19.65-26.49,33.5l-24.41,179.93c0,22.75,28.15,41.21,62.88,41.21l130.28,5.48,144.2-5.48c34.7,0,62.86-18.46,62.86-41.21l-19.95-179.93c0-15.08-12.51-28.12-30.95-35.3v-33.69c40.69-.82,66.1-4.25,66.1-14.92Z"/>
          <path class="cls-51" d="m230.54,147.98l-110.61,5.37v-27.53c32.36-.2,70.1-.96,110.61-.96s78.31.76,110.7.96v27.33l-110.7-5.17Zm215.34-37.25c0-20.85-96.42-70.62-215.34-70.62S15.26,89.87,15.26,110.72c0,10.68,25.42,14.1,66.1,14.92v35.49c-15.99,7.46-26.49,19.65-26.49,33.5l-24.41,179.93c0,22.75,28.15,41.21,62.88,41.21l130.28,5.48,144.2-5.48c34.7,0,62.86-18.46,62.86-41.21l-19.95-179.93c0-15.08-12.51-28.12-30.95-35.3v-33.69c40.69-.82,66.1-4.25,66.1-14.92Z"/>
          <path class="cls-13" d="m232.45,147.22l-110.61,5.37v-27.53c32.36-.2,70.1-.96,110.61-.96s78.31.76,110.7.96v27.33l-110.7-5.17Zm215.34-37.25c0-20.85-96.42-70.62-215.34-70.62S17.17,89.11,17.17,109.96c0,10.68,25.42,14.1,66.1,14.92v35.49c-15.99,7.46-26.49,19.65-26.49,33.5l-24.41,179.93c0,22.75,28.15,41.21,62.88,41.21l130.28,5.48,144.2-5.48c34.7,0,62.86-18.46,62.86-41.21l-19.95-179.93c0-15.08-12.51-28.12-30.95-35.3v-33.69c40.69-.82,66.1-4.25,66.1-14.92Z"/>
          <path class="cls-15" d="m234.36,146.46l-110.61,5.37v-27.53c32.36-.2,70.1-.96,110.61-.96s78.31.76,110.7.96v27.33l-110.7-5.17Zm215.34-37.25c0-20.85-96.42-70.62-215.34-70.62S19.08,88.35,19.08,109.2c0,10.68,25.42,14.1,66.1,14.92v35.49c-15.99,7.46-26.49,19.65-26.49,33.5l-24.41,179.93c0,22.75,28.15,41.21,62.88,41.21l130.28,5.48,144.2-5.48c34.7,0,62.86-18.46,62.86-41.21l-19.95-179.93c0-15.08-12.51-28.12-30.95-35.3v-33.69c40.69-.82,66.11-4.25,66.11-14.92Z"/>
          <path class="cls-4" d="m236.27,145.7l-110.61,5.37v-27.53c32.36-.2,70.1-.96,110.61-.96s78.31.76,110.7.96v27.33l-110.7-5.17Zm215.34-37.26c0-20.85-96.42-70.62-215.34-70.62S20.98,87.59,20.98,108.44c0,10.68,25.42,14.1,66.1,14.92v35.49c-15.99,7.46-26.49,19.64-26.49,33.5l-24.41,179.93c0,22.75,28.15,41.21,62.88,41.21l130.28,5.48,144.2-5.48c34.7,0,62.86-18.46,62.86-41.21l-19.95-179.93c0-15.08-12.51-28.12-30.95-35.3v-33.69c40.69-.82,66.11-4.25,66.11-14.92Z"/>
          <path class="cls-55" d="m238.17,144.94l-110.61,5.37v-27.53c32.36-.2,70.1-.96,110.61-.96s78.31.76,110.7.96v27.33l-110.7-5.17Zm215.34-37.26c0-20.85-96.42-70.62-215.34-70.62S22.89,86.83,22.89,107.68c0,10.68,25.42,14.1,66.1,14.92v35.49c-15.99,7.46-26.49,19.64-26.49,33.5l-24.41,179.93c0,22.75,28.15,41.21,62.88,41.21l130.28,5.48,144.2-5.48c34.7,0,62.86-18.46,62.86-41.21l-19.95-179.93c0-15.08-12.51-28.12-30.95-35.3v-33.69c40.69-.82,66.11-4.25,66.11-14.92Z"/>
          <path class="cls-63" d="m240.08,144.18l-110.61,5.37v-27.53c32.36-.2,70.1-.96,110.61-.96s78.31.76,110.7.96v27.33l-110.7-5.17Zm215.34-37.26c0-20.85-96.42-70.62-215.34-70.62S24.8,86.07,24.8,106.92c0,10.68,25.42,14.1,66.1,14.92v35.49c-15.99,7.46-26.49,19.64-26.49,33.5l-24.41,179.93c0,22.75,28.15,41.21,62.88,41.21l130.28,5.48,144.2-5.48c34.7,0,62.86-18.46,62.86-41.21l-19.95-179.93c0-15.08-12.51-28.12-30.95-35.3v-33.69c40.69-.82,66.11-4.25,66.11-14.92Z"/>
          <path class="cls-53" d="m241.99,143.42l-110.61,5.37v-27.53c32.36-.2,70.1-.96,110.61-.96s78.31.76,110.7.96v27.33l-110.7-5.17Zm215.34-37.26c0-20.85-96.42-70.62-215.34-70.62S26.71,85.31,26.71,106.16c0,10.68,25.42,14.1,66.1,14.92v35.49c-15.99,7.46-26.49,19.64-26.49,33.5l-24.41,179.93c0,22.75,28.15,41.21,62.88,41.21l130.28,5.48,144.2-5.48c34.7,0,62.86-18.46,62.86-41.21l-19.95-179.93c0-15.08-12.51-28.12-30.95-35.3v-33.69c40.69-.82,66.11-4.25,66.11-14.92Z"/>
          <path class="cls-3" d="m243.9,142.66l-110.61,5.37v-27.53c32.36-.2,70.1-.96,110.61-.96s78.31.76,110.7.96v27.33l-110.7-5.17Zm215.34-37.26c0-20.85-96.42-70.62-215.34-70.62S28.62,84.55,28.62,105.4c0,10.68,25.42,14.1,66.1,14.92v35.49c-15.99,7.46-26.49,19.64-26.49,33.5l-24.41,179.93c0,22.75,28.15,41.21,62.88,41.21l130.28,5.48,144.2-5.48c34.7,0,62.86-18.46,62.86-41.21l-19.95-179.93c0-15.08-12.51-28.12-30.95-35.3v-33.69c40.69-.82,66.11-4.25,66.11-14.92Z"/>
          <path class="cls-52" d="m245.8,141.9l-110.61,5.37v-27.53c32.36-.2,70.1-.96,110.61-.96s78.31.76,110.7.96v27.33l-110.7-5.17Zm215.34-37.26c0-20.85-96.42-70.62-215.34-70.62S30.52,83.79,30.52,104.64c0,10.68,25.42,14.1,66.1,14.92v35.49c-15.99,7.46-26.49,19.64-26.49,33.5l-24.41,179.93c0,22.75,28.15,41.21,62.88,41.21l130.28,5.48,144.2-5.48c34.7,0,62.86-18.46,62.86-41.21l-19.95-179.93c0-15.08-12.51-28.12-30.95-35.3v-33.69c40.69-.82,66.11-4.25,66.11-14.92Z"/>
          <path class="cls-60" d="m247.71,141.14l-110.61,5.37v-27.53c32.36-.2,70.1-.96,110.61-.96s78.31.76,110.7.96v27.33l-110.7-5.17Zm215.34-37.26c0-20.85-96.42-70.62-215.34-70.62S32.43,83.03,32.43,103.88c0,10.68,25.42,14.1,66.1,14.92v35.49c-15.99,7.46-26.49,19.64-26.49,33.5l-24.41,179.93c0,22.75,28.15,41.21,62.88,41.21l130.28,5.48,144.2-5.48c34.7,0,62.86-18.46,62.86-41.21l-19.95-179.93c0-15.08-12.51-28.12-30.95-35.3v-33.69c40.69-.82,66.11-4.25,66.11-14.92Z"/>
          <path class="cls-67" d="m249.62,140.38l-110.6,5.37v-27.53c32.36-.2,70.1-.96,110.6-.96s78.31.76,110.7.96v27.33l-110.7-5.17Zm215.34-37.26c0-20.85-96.42-70.62-215.34-70.62S34.34,82.27,34.34,103.12c0,10.68,25.42,14.1,66.1,14.92v35.49c-15.99,7.46-26.49,19.64-26.49,33.5l-24.41,179.93c0,22.75,28.15,41.21,62.88,41.21l130.28,5.48,144.2-5.48c34.7,0,62.86-18.46,62.86-41.21l-19.95-179.93c0-15.08-12.51-28.12-30.95-35.3v-33.69c40.69-.82,66.11-4.25,66.11-14.92Z"/>
          <path class="cls-62" d="m251.53,139.62l-110.6,5.37v-27.53c32.36-.2,70.1-.96,110.6-.96s78.31.76,110.7.96v27.33l-110.7-5.17Zm215.34-37.26c0-20.85-96.42-70.62-215.34-70.62S36.25,81.51,36.25,102.37c0,10.68,25.42,14.1,66.1,14.92v35.49c-15.99,7.46-26.49,19.64-26.49,33.49l-24.41,179.93c0,22.75,28.15,41.21,62.88,41.21l130.28,5.48,144.2-5.48c34.7,0,62.86-18.46,62.86-41.21l-19.95-179.93c0-15.08-12.51-28.12-30.95-35.3v-33.69c40.69-.82,66.11-4.25,66.11-14.92Z"/>
          <path class="cls-44" d="m253.43,138.86l-110.6,5.37v-27.53c32.36-.2,70.1-.96,110.6-.96s78.31.76,110.7.96v27.33l-110.7-5.17Zm215.34-37.26c0-20.85-96.42-70.62-215.34-70.62S38.15,80.76,38.15,101.61c0,10.68,25.42,14.1,66.1,14.92v35.49c-15.99,7.46-26.49,19.64-26.49,33.49l-24.41,179.93c0,22.75,28.15,41.21,62.88,41.21l130.28,5.48,144.2-5.48c34.7,0,62.86-18.46,62.86-41.21l-19.95-179.93c0-15.08-12.51-28.12-30.95-35.3v-33.69c40.69-.82,66.11-4.25,66.11-14.92Z"/>
          <path class="cls-36" d="m255.34,138.1l-110.6,5.37v-27.53c32.36-.2,70.1-.96,110.6-.96s78.31.76,110.7.96v27.33l-110.7-5.17Zm215.34-37.26c0-20.85-96.42-70.62-215.34-70.62S40.06,80,40.06,100.85c0,10.68,25.42,14.1,66.1,14.92v35.49c-15.99,7.46-26.49,19.64-26.49,33.49l-24.41,179.93c0,22.75,28.15,41.21,62.88,41.21l130.28,5.48,144.2-5.48c34.7,0,62.86-18.46,62.86-41.21l-19.95-179.93c0-15.08-12.51-28.12-30.95-35.3v-33.69c40.69-.82,66.11-4.25,66.11-14.92Z"/>
          <path class="cls-2" d="m257.25,137.34l-110.6,5.37v-27.53c32.36-.2,70.1-.96,110.6-.96s78.31.76,110.7.96v27.33l-110.7-5.17Zm215.34-37.26c0-20.85-96.42-70.62-215.34-70.62S41.97,79.24,41.97,100.09c0,10.68,25.42,14.1,66.1,14.92v35.49c-15.99,7.46-26.49,19.64-26.49,33.49l-24.41,179.93c0,22.75,28.15,41.21,62.88,41.21l130.28,5.48,144.2-5.48c34.7,0,62.86-18.46,62.86-41.21l-19.95-179.93c0-15.08-12.51-28.12-30.95-35.3v-33.69c40.69-.82,66.11-4.25,66.11-14.92Z"/>
          <path class="cls-49" d="m259.15,136.58l-110.6,5.37v-27.53c32.36-.2,70.1-.96,110.6-.96s78.31.76,110.7.96v27.33l-110.7-5.17Zm215.34-37.26c0-20.85-96.42-70.62-215.34-70.62S43.88,78.48,43.88,99.33c0,10.68,25.42,14.1,66.1,14.92v35.49c-15.99,7.46-26.49,19.64-26.49,33.49l-24.41,179.93c0,22.75,28.15,41.21,62.88,41.21l130.28,5.48,144.2-5.48c34.7,0,62.86-18.46,62.86-41.21l-19.95-179.93c0-15.08-12.51-28.12-30.95-35.3v-33.69c40.69-.82,66.11-4.25,66.11-14.92Z"/>
          <path class="cls-26" d="m261.06,135.83l-110.6,5.37v-27.53c32.36-.2,70.1-.96,110.6-.96s78.32.76,110.7.96v27.33l-110.7-5.17Zm215.35-37.26c0-20.85-96.42-70.62-215.35-70.62S45.78,77.72,45.78,98.57c0,10.68,25.42,14.1,66.09,14.92v35.49c-15.99,7.46-26.49,19.64-26.49,33.49l-24.41,179.93c0,22.75,28.15,41.21,62.88,41.21l130.28,5.48,144.2-5.48c34.7,0,62.86-18.46,62.86-41.21l-19.95-179.93c0-15.08-12.51-28.12-30.95-35.3v-33.69c40.69-.82,66.11-4.25,66.11-14.92Z"/>
          <path class="cls-25" d="m262.97,135.07l-110.6,5.37v-27.53c32.36-.2,70.1-.96,110.6-.96s78.32.76,110.7.96v27.33l-110.7-5.17Zm215.35-37.26c0-20.85-96.42-70.62-215.35-70.62S47.69,76.96,47.69,97.81c0,10.68,25.42,14.1,66.09,14.92v35.49c-15.99,7.46-26.49,19.64-26.49,33.49l-24.41,179.93c0,22.75,28.15,41.21,62.88,41.21l130.28,5.48,144.2-5.48c34.7,0,62.86-18.46,62.86-41.21l-19.95-179.93c0-15.08-12.51-28.12-30.95-35.3v-33.69c40.69-.82,66.11-4.25,66.11-14.92Z"/>
          <path class="cls-42" d="m264.88,134.31l-110.6,5.37v-27.53c32.36-.2,70.1-.96,110.6-.96s78.32.76,110.7.96v27.33l-110.7-5.17Zm215.35-37.26c0-20.85-96.42-70.62-215.35-70.62S49.6,76.2,49.6,97.05c0,10.68,25.42,14.1,66.09,14.92v35.49c-15.98,7.46-26.49,19.64-26.49,33.49l-24.41,179.93c0,22.75,28.15,41.21,62.88,41.21l130.28,5.48,144.2-5.48c34.7,0,62.86-18.46,62.86-41.21l-19.95-179.93c0-15.08-12.51-28.12-30.95-35.3v-33.69c40.69-.82,66.11-4.25,66.11-14.92Z"/>
          <path class="cls-39" d="m266.78,133.55l-110.6,5.37v-27.53c32.36-.2,70.1-.96,110.6-.96s78.32.76,110.7.96v27.33l-110.7-5.17Zm215.35-37.26c0-20.85-96.42-70.62-215.35-70.62S51.51,75.44,51.51,96.29c0,10.68,25.42,14.1,66.09,14.92v35.49c-15.98,7.46-26.49,19.64-26.49,33.49l-24.41,179.93c0,22.75,28.15,41.21,62.88,41.21l130.28,5.48,144.2-5.48c34.7,0,62.86-18.46,62.86-41.21l-19.95-179.93c0-15.08-12.51-28.12-30.95-35.3v-33.69c40.69-.82,66.11-4.25,66.11-14.92Z"/>
          <path class="cls-65" d="m268.69,132.79l-110.6,5.37v-27.53c32.36-.2,70.1-.96,110.6-.96s78.32.76,110.7.96v27.33l-110.7-5.17Zm215.35-37.26c0-20.85-96.42-70.62-215.35-70.62S53.42,74.68,53.42,95.53c0,10.68,25.42,14.11,66.09,14.92v35.49c-15.98,7.46-26.49,19.64-26.49,33.49l-24.41,179.93c0,22.75,28.15,41.21,62.88,41.21l130.28,5.48,144.2-5.48c34.71,0,62.86-18.46,62.86-41.21l-19.95-179.93c0-15.08-12.51-28.12-30.95-35.3v-33.69c40.69-.82,66.11-4.25,66.11-14.92Z"/>
          <path class="cls-14" d="m270.6,132.03l-110.6,5.37v-27.53c32.36-.2,70.1-.96,110.6-.96s78.32.76,110.7.96v27.33l-110.7-5.17Zm215.35-37.26c0-20.85-96.42-70.62-215.35-70.62S55.32,73.92,55.32,94.77c0,10.68,25.42,14.11,66.09,14.92v35.49c-15.98,7.46-26.49,19.64-26.49,33.49l-24.41,179.93c0,22.75,28.15,41.21,62.88,41.21l130.28,5.48,144.2-5.48c34.71,0,62.86-18.46,62.86-41.21l-19.95-179.93c0-15.08-12.51-28.12-30.96-35.3v-33.69c40.69-.82,66.11-4.25,66.11-14.92Z"/>
          <path class="cls-14" d="m272.51,131.27l-110.6,5.37v-27.53c32.36-.2,70.1-.96,110.6-.96s78.32.76,110.7.96v27.33l-110.7-5.17Zm215.35-37.26c0-20.85-96.42-70.62-215.35-70.62S57.23,73.16,57.23,94.01c0,10.68,25.42,14.11,66.09,14.92v35.49c-15.98,7.46-26.49,19.64-26.49,33.49l-24.41,179.93c0,22.75,28.15,41.21,62.88,41.21l130.28,5.48,144.2-5.48c34.71,0,62.86-18.46,62.86-41.21l-19.95-179.93c0-15.08-12.51-28.12-30.96-35.3v-33.69c40.69-.82,66.11-4.25,66.11-14.92Z"/>
          <path class="cls-24" d="m274.41,130.51l-110.6,5.37v-27.53c32.36-.2,70.1-.96,110.6-.96s78.32.76,110.7.96v27.33l-110.7-5.16Zm215.35-37.26c0-20.85-96.42-70.62-215.35-70.62S59.14,72.4,59.14,93.25c0,10.68,25.42,14.11,66.09,14.92v35.49c-15.98,7.46-26.49,19.64-26.49,33.49l-24.41,179.93c0,22.75,28.15,41.21,62.88,41.21l130.28,5.48,144.2-5.48c34.71,0,62.86-18.46,62.86-41.21l-19.95-179.93c0-15.08-12.51-28.12-30.96-35.3v-33.69c40.69-.82,66.11-4.25,66.11-14.92Z"/>
          <path class="cls-19" d="m276.32,129.75l-110.6,5.37v-27.53c32.36-.19,70.1-.96,110.6-.96s78.32.76,110.7.96v27.33l-110.7-5.16Zm215.35-37.26c0-20.85-96.42-70.62-215.35-70.62S61.05,71.64,61.05,92.49c0,10.68,25.42,14.11,66.09,14.92v35.49c-15.98,7.46-26.49,19.64-26.49,33.49l-24.41,179.93c0,22.75,28.15,41.21,62.88,41.21l130.28,5.48,144.2-5.48c34.71,0,62.86-18.46,62.86-41.21l-19.95-179.93c0-15.08-12.52-28.12-30.96-35.3v-33.69c40.69-.82,66.11-4.25,66.11-14.92Z"/>
          <path class="cls-68" d="m278.23,128.99l-110.6,5.37v-27.53c32.36-.19,70.1-.96,110.6-.96s78.32.76,110.7.96v27.33l-110.7-5.16Zm215.35-37.26c0-20.85-96.42-70.62-215.35-70.62S62.95,70.88,62.95,91.73c0,10.68,25.42,14.11,66.09,14.92v35.49c-15.98,7.46-26.49,19.64-26.49,33.49l-24.41,179.93c0,22.75,28.15,41.21,62.88,41.21l130.28,5.48,144.2-5.48c34.71,0,62.86-18.46,62.86-41.21l-19.95-179.93c0-15.08-12.52-28.12-30.96-35.3v-33.69c40.69-.82,66.11-4.25,66.11-14.92Z"/>
          <path class="cls-21" d="m280.14,128.23l-110.6,5.37v-27.53c32.36-.19,70.1-.96,110.6-.96s78.32.76,110.7.96v27.33l-110.7-5.16Zm215.35-37.26c0-20.85-96.42-70.62-215.35-70.62S64.86,70.12,64.86,90.97c0,10.68,25.42,14.11,66.09,14.92v35.49c-15.98,7.46-26.49,19.64-26.49,33.49l-24.41,179.93c0,22.75,28.15,41.21,62.88,41.21l130.28,5.48,144.2-5.48c34.71,0,62.86-18.46,62.86-41.21l-19.95-179.93c0-15.08-12.52-28.12-30.96-35.3v-33.69c40.69-.82,66.11-4.25,66.11-14.92Z"/>
          <path class="cls-1" d="m282.04,127.47l-110.6,5.37v-27.53c32.36-.19,70.1-.96,110.6-.96s78.32.76,110.7.96v27.33l-110.7-5.16Zm215.35-37.26c0-20.85-96.42-70.62-215.35-70.62S66.77,69.36,66.77,90.21c0,10.68,25.42,14.11,66.09,14.92v35.49c-15.98,7.46-26.49,19.64-26.49,33.49l-24.41,179.93c0,22.75,28.15,41.21,62.88,41.21l130.28,5.48,144.2-5.48c34.71,0,62.86-18.46,62.86-41.21l-19.95-179.93c0-15.08-12.52-28.12-30.96-35.3v-33.69c40.69-.82,66.11-4.25,66.11-14.92Z"/>
          <path class="cls-46" d="m283.95,126.71l-110.6,5.37v-27.53c32.36-.19,70.1-.96,110.6-.96s78.32.76,110.7.96v27.33l-110.7-5.16Zm215.35-37.26c0-20.85-96.43-70.62-215.35-70.62S68.68,68.6,68.68,89.45c0,10.68,25.42,14.11,66.09,14.92v35.49c-15.98,7.46-26.49,19.64-26.49,33.49l-24.41,179.93c0,22.75,28.15,41.21,62.88,41.21l130.28,5.48,144.2-5.48c34.71,0,62.86-18.46,62.86-41.21l-19.94-179.93c0-15.08-12.52-28.12-30.96-35.3v-33.69c40.69-.82,66.11-4.25,66.11-14.92Z"/>
          <path class="cls-10" d="m285.86,125.95l-110.6,5.37v-27.53c32.36-.19,70.1-.96,110.6-.96s78.32.76,110.7.96v27.33l-110.7-5.16Zm215.35-37.26c0-20.85-96.43-70.62-215.35-70.62S70.58,67.84,70.58,88.69c0,10.68,25.42,14.11,66.09,14.92v35.49c-15.98,7.46-26.49,19.64-26.49,33.49l-24.41,179.93c0,22.75,28.15,41.21,62.88,41.21l130.28,5.48,144.2-5.48c34.71,0,62.86-18.46,62.86-41.21l-19.94-179.93c0-15.08-12.52-28.12-30.96-35.3v-33.69c40.69-.82,66.11-4.25,66.11-14.92Z"/>
          <path class="cls-35" d="m287.77,125.19l-110.6,5.37v-27.53c32.36-.19,70.1-.96,110.6-.96s78.32.76,110.7.96v27.33l-110.7-5.16Zm215.35-37.26c0-20.85-96.43-70.62-215.35-70.62S72.49,67.08,72.49,87.93c0,10.68,25.42,14.11,66.09,14.92v35.49c-15.98,7.46-26.49,19.64-26.49,33.49l-24.41,179.93c0,22.75,28.15,41.21,62.88,41.21l130.28,5.48,144.2-5.48c34.71,0,62.86-18.46,62.86-41.21l-19.94-179.93c0-15.08-12.52-28.12-30.96-35.3v-33.69c40.69-.82,66.11-4.25,66.11-14.92Z"/>
          <path class="cls-56" d="m289.67,124.43l-110.6,5.37v-27.53c32.36-.19,70.1-.96,110.6-.96s78.32.76,110.7.96v27.33l-110.7-5.16Zm215.35-37.26c0-20.85-96.43-70.62-215.35-70.62S74.4,66.32,74.4,87.17c0,10.68,25.42,14.11,66.09,14.92v35.49c-15.98,7.46-26.49,19.64-26.49,33.49l-24.41,179.93c0,22.75,28.15,41.21,62.88,41.21l130.28,5.48,144.2-5.48c34.71,0,62.86-18.46,62.86-41.21l-19.94-179.93c0-15.08-12.52-28.12-30.96-35.3v-33.69c40.69-.82,66.11-4.25,66.11-14.92Z"/>
          <path class="cls-12" d="m291.58,123.67l-110.6,5.37v-27.53c32.36-.19,70.1-.96,110.6-.96s78.32.76,110.7.96v27.33l-110.7-5.16Zm215.35-37.26c0-20.85-96.43-70.62-215.35-70.62S76.31,65.56,76.31,86.41c0,10.68,25.42,14.11,66.09,14.92v35.49c-15.98,7.46-26.49,19.64-26.49,33.49l-24.41,179.93c0,22.75,28.15,41.21,62.88,41.21l130.28,5.48,144.2-5.48c34.71,0,62.86-18.46,62.86-41.21l-19.94-179.93c0-15.08-12.52-28.12-30.96-35.3v-33.69c40.69-.82,66.11-4.25,66.11-14.92Z"/>
          <path class="cls-23" d="m293.49,122.91l-110.6,5.37v-27.53c32.36-.19,70.1-.96,110.6-.96s78.32.76,110.7.96v27.33l-110.7-5.16Zm215.35-37.26c0-20.85-96.43-70.62-215.35-70.62S78.21,64.8,78.21,85.65c0,10.68,25.42,14.11,66.09,14.92v35.49c-15.98,7.46-26.49,19.64-26.49,33.49l-24.41,179.93c0,22.75,28.15,41.21,62.88,41.21l130.28,5.48,144.2-5.48c34.71,0,62.86-18.46,62.86-41.21l-19.94-179.93c0-15.08-12.52-28.12-30.96-35.3v-33.69c40.69-.82,66.11-4.25,66.11-14.92Z"/>
          <path class="cls-17" d="m295.39,122.16l-110.6,5.37v-27.53c32.36-.19,70.1-.96,110.6-.96s78.32.76,110.7.96v27.33l-110.7-5.16Zm215.35-37.26c0-20.85-96.43-70.62-215.35-70.62S80.12,64.04,80.12,84.89c0,10.68,25.42,14.11,66.09,14.92v35.5c-15.98,7.46-26.49,19.64-26.49,33.49l-24.41,179.93c0,22.75,28.15,41.21,62.88,41.21l130.28,5.48,144.2-5.48c34.71,0,62.86-18.46,62.86-41.21l-19.94-179.93c0-15.08-12.52-28.12-30.96-35.3v-33.69c40.69-.82,66.11-4.25,66.11-14.92Z"/>
          <path class="cls-45" d="m297.3,121.4l-110.6,5.36v-27.53c32.36-.19,70.1-.96,110.6-.96s78.32.76,110.7.96v27.33l-110.7-5.16Zm215.35-37.26c0-20.85-96.43-70.62-215.35-70.62S82.03,63.28,82.03,84.13c0,10.68,25.42,14.11,66.09,14.92v35.5c-15.98,7.46-26.49,19.64-26.49,33.49l-24.41,179.93c0,22.75,28.15,41.21,62.88,41.21l130.28,5.48,144.2-5.48c34.71,0,62.86-18.46,62.86-41.21l-19.94-179.93c0-15.08-12.52-28.12-30.96-35.3v-33.69c40.69-.82,66.12-4.25,66.12-14.92Z"/>
          <path class="cls-34" d="m299.21,120.64l-110.6,5.36v-27.53c32.36-.19,70.1-.96,110.6-.96s78.32.76,110.7.96v27.33l-110.7-5.16Zm215.35-37.26c0-20.85-96.43-70.62-215.35-70.62S83.94,62.52,83.94,83.37c0,10.68,25.42,14.11,66.09,14.92v35.5c-15.98,7.46-26.49,19.64-26.49,33.49l-24.41,179.93c0,22.75,28.15,41.21,62.88,41.21l130.28,5.48,144.2-5.48c34.71,0,62.86-18.46,62.86-41.21l-19.94-179.93c0-15.08-12.52-28.12-30.96-35.3v-33.69c40.69-.81,66.12-4.25,66.12-14.92Z"/>
          <path class="cls-43" d="m301.12,119.88l-110.6,5.36v-27.53c32.36-.19,70.1-.96,110.6-.96s78.32.76,110.7.96v27.33l-110.7-5.16Zm215.35-37.26c0-20.85-96.43-70.62-215.35-70.62S85.85,61.76,85.85,82.61c0,10.68,25.42,14.11,66.09,14.92v35.5c-15.98,7.46-26.49,19.64-26.49,33.49l-24.41,179.93c0,22.75,28.15,41.21,62.88,41.21l130.28,5.48,144.2-5.48c34.71,0,62.86-18.46,62.86-41.21l-19.94-179.93c0-15.08-12.52-28.12-30.96-35.3v-33.69c40.69-.81,66.12-4.25,66.12-14.92Z"/>
          <path class="cls-59" d="m303.02,119.12l-110.6,5.36v-27.53c32.36-.19,70.1-.96,110.6-.96s78.32.76,110.7.96v27.33l-110.7-5.16Zm215.35-37.26c0-20.85-96.43-70.62-215.35-70.62S87.75,61,87.75,81.85c0,10.68,25.42,14.11,66.09,14.92v35.5c-15.98,7.46-26.49,19.64-26.49,33.49l-24.41,179.93c0,22.75,28.15,41.21,62.88,41.21l130.28,5.48,144.2-5.48c34.71,0,62.86-18.46,62.86-41.21l-19.94-179.93c0-15.08-12.52-28.12-30.96-35.3v-33.69c40.69-.81,66.12-4.25,66.12-14.92Z"/>
          <path class="cls-8" d="m304.93,118.36l-110.6,5.36v-27.53c32.36-.19,70.1-.96,110.6-.96s78.32.77,110.7.96v27.33l-110.7-5.16Zm215.35-37.26c0-20.85-96.43-70.62-215.35-70.62S89.66,60.24,89.66,81.09c0,10.68,25.42,14.11,66.09,14.92v35.5c-15.98,7.46-26.49,19.64-26.49,33.49l-24.41,179.93c0,22.75,28.15,41.21,62.88,41.21l130.28,5.48,144.2-5.48c34.71,0,62.86-18.46,62.86-41.21l-19.94-179.93c0-15.08-12.52-28.12-30.96-35.3v-33.69c40.69-.81,66.12-4.25,66.12-14.92Z"/>
          <path class="cls-61" d="m306.84,117.6l-110.6,5.36v-27.53c32.36-.19,70.1-.96,110.6-.96s78.32.77,110.7.96v27.33l-110.7-5.16Zm215.35-37.26c0-20.85-96.43-70.62-215.35-70.62S91.57,59.48,91.57,80.33c0,10.68,25.42,14.11,66.09,14.92v35.5c-15.98,7.46-26.49,19.64-26.49,33.49l-24.41,179.93c0,22.75,28.15,41.21,62.88,41.21l130.28,5.48,144.2-5.48c34.71,0,62.86-18.46,62.86-41.21l-19.94-179.93c0-15.08-12.52-28.12-30.96-35.3v-33.69c40.69-.81,66.12-4.25,66.12-14.92Z"/>
          <path class="cls-22" d="m308.75,116.84l-110.6,5.36v-27.53c32.36-.19,70.1-.96,110.6-.96s78.32.77,110.7.96v27.33l-110.7-5.16Zm215.35-37.26c0-20.85-96.43-70.62-215.35-70.62S93.48,58.72,93.48,79.57c0,10.68,25.42,14.11,66.09,14.92v35.5c-15.98,7.46-26.49,19.64-26.49,33.49l-24.41,179.93c0,22.75,28.15,41.21,62.88,41.21l130.28,5.48,144.2-5.48c34.71,0,62.86-18.46,62.86-41.21l-19.94-179.93c0-15.08-12.52-28.12-30.96-35.3v-33.69c40.69-.81,66.12-4.25,66.12-14.92Z"/>
          <path class="cls-54" d="m310.65,116.08l-110.6,5.36v-27.53c32.36-.19,70.1-.96,110.6-.96s78.32.77,110.7.96v27.33l-110.7-5.16Zm215.35-37.26c0-20.85-96.43-70.62-215.35-70.62S95.38,57.96,95.38,78.81c0,10.68,25.42,14.11,66.09,14.92v35.5c-15.98,7.46-26.49,19.64-26.49,33.49l-24.41,179.93c0,22.75,28.15,41.21,62.88,41.21l130.28,5.48,144.2-5.48c34.71,0,62.86-18.46,62.86-41.21l-19.94-179.93c0-15.08-12.52-28.12-30.96-35.3v-33.69c40.69-.81,66.12-4.25,66.12-14.92Z"/>
          <path class="cls-57" d="m312.56,115.32l-110.59,5.36v-27.53c32.36-.19,70.1-.96,110.59-.96s78.32.77,110.7.96v27.33l-110.7-5.16Zm215.35-37.27c0-20.85-96.43-70.62-215.35-70.62S97.29,57.2,97.29,78.05c0,10.68,25.42,14.11,66.09,14.92v35.5c-15.98,7.46-26.49,19.63-26.49,33.49l-24.41,179.93c0,22.75,28.15,41.21,62.88,41.21l130.28,5.48,144.2-5.48c34.71,0,62.86-18.46,62.86-41.21l-19.94-179.93c0-15.08-12.52-28.12-30.96-35.3v-33.69c40.69-.81,66.12-4.25,66.12-14.92Z"/>
          <path class="cls-50" d="m314.47,114.56l-110.59,5.36v-27.53c32.36-.19,70.1-.96,110.59-.96s78.32.77,110.7.96v27.33l-110.7-5.16Zm215.35-37.27c0-20.85-96.43-70.62-215.35-70.62S99.2,56.44,99.2,77.3c0,10.68,25.42,14.11,66.09,14.92v35.5c-15.98,7.46-26.49,19.63-26.49,33.49l-24.41,179.93c0,22.75,28.15,41.21,62.88,41.21l130.28,5.48,144.2-5.48c34.71,0,62.86-18.46,62.86-41.21l-19.94-179.93c0-15.08-12.52-28.12-30.96-35.3v-33.69c40.69-.81,66.12-4.25,66.12-14.92Z"/>
          <path class="cls-7" d="m316.38,113.8l-110.59,5.36v-27.53c32.36-.19,70.1-.96,110.59-.96s78.32.77,110.7.96v27.33l-110.7-5.16Zm215.35-37.27c0-20.85-96.43-70.62-215.35-70.62S101.11,55.69,101.11,76.54c0,10.68,25.42,14.11,66.09,14.92v35.5c-15.98,7.46-26.49,19.63-26.49,33.49l-24.41,179.93c0,22.75,28.15,41.21,62.88,41.21l130.28,5.48,144.2-5.48c34.71,0,62.86-18.46,62.86-41.21l-19.94-179.93c0-15.08-12.52-28.12-30.96-35.3v-33.69c40.69-.81,66.12-4.25,66.12-14.92Z"/>
          <path class="cls-11" d="m318.28,113.04l-110.59,5.36v-27.53c32.36-.19,70.1-.96,110.59-.96s78.32.77,110.7.96v27.33l-110.7-5.16Zm215.35-37.27c0-20.85-96.43-70.62-215.35-70.62S103.01,54.93,103.01,75.78c0,10.68,25.42,14.11,66.09,14.92v35.5c-15.98,7.46-26.49,19.63-26.49,33.49l-24.41,179.93c0,22.75,28.15,41.21,62.88,41.21l130.28,5.48,144.2-5.48c34.71,0,62.86-18.46,62.86-41.21l-19.94-179.93c0-15.08-12.52-28.12-30.96-35.3v-33.69c40.69-.81,66.12-4.25,66.12-14.92Z"/>
          <path class="cls-18" d="m320.19,112.28l-110.59,5.36v-27.53c32.36-.19,70.1-.96,110.59-.96s78.32.77,110.7.96v27.33l-110.7-5.16Zm215.35-37.27c0-20.85-96.43-70.62-215.35-70.62S104.92,54.17,104.92,75.02c0,10.68,25.42,14.11,66.09,14.92v35.5c-15.98,7.46-26.49,19.63-26.49,33.49l-24.41,179.93c0,22.75,28.15,41.21,62.88,41.21l130.28,5.48,144.2-5.48c34.71,0,62.86-18.46,62.86-41.21l-19.94-179.93c0-15.08-12.52-28.12-30.96-35.3v-33.69c40.69-.81,66.12-4.25,66.12-14.92Z"/>
          <path class="cls-37" d="m322.1,111.52l-110.59,5.36v-27.53c32.36-.19,70.1-.96,110.59-.96s78.32.77,110.7.96v27.33l-110.7-5.16Zm215.35-37.27c0-20.85-96.43-70.62-215.35-70.62S106.83,53.41,106.83,74.26c0,10.68,25.42,14.11,66.08,14.92v35.5c-15.98,7.46-26.49,19.63-26.49,33.49l-24.41,179.93c0,22.75,28.15,41.21,62.88,41.21l130.28,5.48,144.2-5.48c34.71,0,62.86-18.46,62.86-41.21l-19.94-179.93c0-15.08-12.52-28.12-30.96-35.3v-33.69c40.69-.81,66.12-4.25,66.12-14.92Z"/>
          <path class="cls-20" d="m324.01,110.76l-110.59,5.36v-27.53c32.36-.19,70.1-.96,110.59-.96s78.33.77,110.7.96v27.33l-110.7-5.16Zm215.36-37.27c0-20.85-96.43-70.62-215.36-70.62S108.74,52.65,108.74,73.5c0,10.68,25.42,14.11,66.08,14.92v35.5c-15.98,7.46-26.49,19.63-26.49,33.49l-24.41,179.93c0,22.75,28.15,41.21,62.88,41.21l130.28,5.48,144.2-5.48c34.71,0,62.86-18.46,62.86-41.21l-19.94-179.93c0-15.08-12.52-28.12-30.96-35.3v-33.69c40.69-.81,66.12-4.25,66.12-14.92Z"/>
          <path class="cls-31" d="m325.91,110l-110.59,5.36v-27.53c32.36-.19,70.1-.96,110.59-.96s78.33.77,110.7.96v27.33l-110.7-5.16Zm215.36-37.27c0-20.85-96.43-70.62-215.36-70.62S110.65,51.89,110.65,72.74c0,10.68,25.42,14.11,66.08,14.92v35.5c-15.98,7.46-26.49,19.63-26.49,33.49l-24.41,179.93c0,22.75,28.15,41.21,62.88,41.21l130.28,5.48,144.2-5.48c34.71,0,62.86-18.46,62.86-41.21l-19.94-179.93c0-15.08-12.52-28.12-30.96-35.3v-33.69c40.69-.81,66.12-4.25,66.12-14.92Z"/>
        </g>
        <path class="cls-47" d="m516.98,87.17c11.52-1.62,26.84-4.87,26.84-14.43,0-23.94-100.85-72.74-217.91-72.74S108.07,48.8,108.07,72.74c0,12.06,24.01,15.97,66.09,16.95v32.35c-15.96,7.88-26.46,20.33-26.46,34.37l-24.44,180.16c0,23.89,29.36,43.32,65.31,43.32l130.3,5.48h.14l144.18-5.48c36.07,0,65.41-19.43,65.41-43.51l-19.94-179.74c0-15.49-12.45-28.99-30.95-36.64v-30.27c17-.41,29.64-1.23,39.26-2.56Zm-262.03,2.39c22.67-.28,46.11-.57,70.96-.57s48.33.29,71,.57c13.09.16,25.35.28,37.15.36v23.01l-108.29-5.04-107.88,5.25v-23.21c11.77-.09,23.99-.2,37.06-.36Z"/>
        <path class="cls-28" d="m145.2,66.58c0,13.59,80.93,9.23,180.71,9.23s180.76,4.36,180.76-9.23-80.93-40.09-180.76-40.09-180.71,26.44-180.71,40.09Z"/>
        <path class="cls-30" d="m151.3,326c0,19.85,24.57,35.95,54.85,35.95l113.73,4.78,125.86-4.78c30.29,0,54.85-16.1,54.85-35.95l-17.42-157.05c0-19.85-24.55-35.95-54.84-35.95l-102.4-4.81-98.49,4.81c-30.29,0-54.83,16.1-54.83,35.95l-21.29,157.05Z"/>
        <g class="cls-48">
          <path class="cls-6" d="m325.91,24.39c-99.39,0-183.26,25.92-183.26,42.19,0,10.1,27.64,12.01,78.64,12.01,13.76,0,28.92-.14,45.14-.3,18.63-.17,38.66-.36,59.48-.36s40.88.19,59.5.36c16.24.16,31.42.3,45.18.3,51.01,0,78.66-1.91,78.66-12.01,0-16.27-83.91-42.19-183.33-42.19Z"/>
          <path class="cls-6" d="m428.47,130.9l-102.7-4.81-98.35,4.81c-31.65,0-57.38,17.07-57.37,37.82l-21.33,157.28c0,20.98,25.75,38.06,57.28,38.06l113.75,4.77h.14l125.85-4.77c31.67,0,57.42-17.08,57.42-38.27l-17.42-156.85c0-20.98-25.75-38.05-57.26-38.05Z"/>
        </g>
      </g>
    </g>
  </g>
</svg>