<?xml version="1.0" encoding="UTF-8"?>
<svg xmlns="http://www.w3.org/2000/svg" xmlns:xlink="http://www.w3.org/1999/xlink" viewBox="0 0 41 450">
  <defs>
    <style>
      .cls-1 {
        fill: #89a5ad;
      }

      .cls-2 {
        fill: url(#linear-gradient-2);
      }

      .cls-3 {
        fill: #752d0a;
      }

      .cls-4 {
        fill: #fff;
      }

      .cls-5, .cls-6, .cls-7 {
        fill: #ddd3cc;
      }

      .cls-8 {
        fill: #5e6b6b;
      }

      .cls-6, .cls-7, .cls-9 {
        mix-blend-mode: multiply;
      }

      .cls-10 {
        fill: #5e3910;
      }

      .cls-11 {
        isolation: isolate;
      }

      .cls-12 {
        fill: #331902;
      }

      .cls-7 {
        fill-rule: evenodd;
      }

      .cls-13 {
        fill: #85a5c6;
      }

      .cls-14 {
        fill: #a3a3a3;
      }

      .cls-15 {
        fill: #636666;
      }

      .cls-16 {
        fill: #575b6e;
      }

      .cls-17 {
        fill: #990e08;
      }

      .cls-18 {
        fill: url(#linear-gradient-3);
      }

      .cls-19 {
        fill: url(#linear-gradient);
      }

      .cls-20 {
        fill: #0e0f0f;
      }
    </style>
    <linearGradient id="linear-gradient" x1="41.046" y1="36.957" x2="146.95" y2="152.026" gradientTransform="translate(-70.877 70.876) rotate(90) scale(1 -1)" gradientUnits="userSpaceOnUse">
      <stop offset=".006" stop-color="#bfa191"/>
      <stop offset=".491" stop-color="#4e2600"/>
      <stop offset=".818" stop-color="#bfa191"/>
    </linearGradient>
    <linearGradient id="linear-gradient-2" x1="-.703" y1="22.744" x2="25.876" y2="67.928" gradientUnits="userSpaceOnUse">
      <stop offset=".006" stop-color="#5b5e5d"/>
      <stop offset=".279" stop-color="#8c8c8c"/>
      <stop offset=".842" stop-color="#5b5e5d"/>
    </linearGradient>
    <linearGradient id="linear-gradient-3" x1="-55.271" y1="44.278" x2="-24.473" y2="96.636" xlink:href="#linear-gradient-2"/>
  </defs>
  <g class="cls-11">
    <g id="Layer_1" data-name="Layer 1">
      <g class="cls-9">
        <polygon class="cls-5" points="40.999 80.03 38.618 80.03 27.145 80.03 27.145 31.139 3.396 31.139 3.396 80.351 3.561 80.351 3.561 263.726 3.396 263.726 3.396 312.941 27.145 312.941 27.145 264.25 38.618 264.25 40.999 264.25 41 264.25 41 80.03 40.999 80.03"/>
        <rect class="cls-5" x="29.624" y="35.36" width="2.35" height="40.558"/>
        <rect class="cls-5" x="29.624" y="268.163" width="2.35" height="40.562"/>
      </g>
      <g class="cls-9">
        <polygon class="cls-5" points="38.602 73.197 36.221 73.197 24.748 73.197 24.748 24.306 .998 24.306 .998 73.517 1.164 73.517 1.164 256.892 .998 256.892 .998 306.108 24.748 306.108 24.748 257.416 36.221 257.416 38.602 257.416 38.603 257.416 38.603 73.197 38.602 73.197"/>
        <rect class="cls-5" x="27.227" y="28.526" width="2.35" height="40.558"/>
        <rect class="cls-5" x="27.227" y="261.329" width="2.35" height="40.562"/>
      </g>
      <path class="cls-19" d="m.165,252.631V68.411h37.439v184.22H.165Z"/>
      <path class="cls-10" d="m35.222,252.631V68.411h2.381v184.22h-2.381Z"/>
      <path class="cls-2" d="m23.749,19.52H0v49.212h23.749V19.52Z"/>
      <path class="cls-18" d="m28.579,256.543h-2.35v40.562h2.35v-40.562Zm-4.829-4.437H0v49.216h23.749v-49.216ZM28.579,23.741h-2.35v40.558h2.35V23.741Z"/>
      <g>
        <path class="cls-6" d="m14.855,87.379l.211,55.385-5.955.042v-.006l-.393.006.091,40.572h.396l6.016-.04.236,61.672c.014,4.012,1.927,7.25,4.276,7.222l.287-.002.822-.012-.262-68.914,6.344-.042-.09-40.572-.466-.004v.004l-5.944.04-.238-62.681-.822.008h-.287c-2.35.028-4.237,3.302-4.222,7.322Z"/>
        <path class="cls-6" d="m12.775,87.251l.212,55.384-5.955.042v-.004l-.393.004.091,40.572h.396l6.016-.038.236,61.67c.014,4.015,1.927,7.252,4.276,7.224l.287-.004.822-.01-.262-68.914,6.344-.042-.09-40.572-.466-.006v.006l-5.944.04-.238-62.681-.822.008h-.287c-2.35.028-4.237,3.302-4.223,7.32Z"/>
        <g>
          <polygon class="cls-20" points="23.173 139.626 23.265 180.202 5.149 180.316 5.059 139.744 23.173 139.626"/>
          <polygon class="cls-8" points="5.452 139.738 5.543 180.316 5.149 180.316 5.059 139.744 5.452 139.738"/>
          <polygon class="cls-15" points="23.173 139.626 23.265 180.202 22.801 180.202 22.709 139.623 23.173 139.626"/>
        </g>
        <polygon class="cls-14" points="8.953 147.875 8.719 147.879 8.773 172.137 19.605 172.066 19.55 147.809 19.272 147.805 19.272 147.811 8.953 147.875 8.953 147.875"/>
        <g>
          <path class="cls-20" d="m11.196,84.317l.6,157.63c.017,4.015,1.929,7.25,4.277,7.22h.288l-.655-172.174-.289.002c-2.348.028-4.235,3.302-4.221,7.322Z"/>
          <polygon class="cls-1" points="15.706 76.993 16.361 249.167 17.183 249.155 16.527 76.987 15.706 76.993"/>
        </g>
      </g>
      <g>
        <polygon class="cls-6" points="11.466 0 11.466 430.862 .08 450 .08 0 11.466 0"/>
        <polygon class="cls-6" points="5.174 0 5.174 430.862 .08 450 .08 0 5.174 0"/>
      </g>
      <g>
        <path class="cls-7" d="m3.701,418.56h28.433v-70.996c.932-.757,1.585-2.343,1.585-4.221s-.653-3.464-1.585-4.225v-8.633H3.701v88.075Z"/>
        <path class="cls-7" d="m1.402,415.827h28.433v-70.996c.934-.757,1.585-2.343,1.585-4.221s-.651-3.464-1.585-4.225v-8.633H1.402v88.075Z"/>
        <g>
          <path class="cls-16" d="m30.124,338.903c0,2.603-1.231,4.71-2.767,4.71-1.512,0-2.744-2.106-2.744-4.71s1.231-4.713,2.744-4.713c1.536,0,2.767,2.114,2.767,4.713Z"/>
          <g>
            <rect class="cls-16" x="10.593" y="326.044" width="17.946" height="88.075"/>
            <rect class="cls-13" x=".105" y="326.044" width="25.24" height="88.075"/>
          </g>
        </g>
        <path class="cls-6" d="m4.209,330.189v5.919c0,.572.269,1.029.602,1.057-.332.028-.602.485-.602,1.057v7.389c0,.572.269,1.029.602,1.057-.332.028-.602.484-.602,1.057v7.4c0,.572.269,1.029.602,1.057-.332.028-.602.484-.602,1.057v7.601c0,.472.201.805.449.949-.248.144-.449.476-.449.949v10.988c0,.08.042.132.052.208-.009.08-.052.132-.052.212v7.396c0,.569.267,1.017.597,1.053-.33.036-.597.484-.597,1.053v8.666c0,.593.283,1.077.63,1.077h18.302c1.044,0,1.861-1.494,1.861-3.4v-4.009c0-1.87-.784-3.319-1.793-3.388,1.009-.068,1.793-1.518,1.793-3.384v-2.743c0-1.694-.66-2.999-1.536-3.283.26-.761.428-1.71.428-2.839v-4.225c0-2.086-.522-3.656-1.288-4.205h.534c1.079,0,1.861-1.522,1.861-3.62v-2.735c0-1.906-.817-3.4-1.861-3.4h-3.371c.92-.108,1.657-1.558,1.657-3.368v-2.747c0-1.802-.737-3.252-1.657-3.36h3.371c1.044,0,1.861-1.494,1.861-3.4v-2.747c0-1.902-.817-3.396-1.861-3.396h-2.002c1.016-.108,1.774-1.502,1.774-3.364v-1.265c0-1.938-.812-3.404-1.891-3.404H4.839c-.346,0-.63.485-.63,1.077Z"/>
        <path class="cls-6" d="m2.311,330.873v5.919c0,.572.269,1.029.602,1.057-.332.028-.602.484-.602,1.057v7.388c0,.573.269,1.029.602,1.058-.332.028-.602.484-.602,1.057v7.4c0,.572.269,1.029.602,1.057-.332.028-.602.484-.602,1.057v7.601c0,.472.201.805.449.949-.248.144-.449.477-.449.949v10.988c0,.08.042.132.052.208-.009.08-.052.132-.052.212v7.396c0,.569.267,1.017.597,1.053-.33.036-.597.484-.597,1.053v8.666c0,.593.283,1.077.63,1.077h18.302c1.044,0,1.861-1.494,1.861-3.4v-4.009c0-1.87-.784-3.319-1.793-3.388,1.009-.068,1.793-1.518,1.793-3.384v-2.743c0-1.694-.66-2.999-1.536-3.284.26-.761.428-1.71.428-2.839v-4.225c0-2.086-.522-3.656-1.288-4.205h.534c1.079,0,1.861-1.522,1.861-3.62v-2.735c0-1.906-.817-3.4-1.861-3.4h-3.371c.92-.108,1.657-1.558,1.657-3.368v-2.747c0-1.802-.737-3.252-1.657-3.36h3.371c1.044,0,1.861-1.493,1.861-3.4v-2.747c0-1.902-.817-3.396-1.861-3.396h-2.002c1.016-.108,1.774-1.502,1.774-3.364v-1.265c0-1.938-.812-3.404-1.891-3.404H2.94c-.346,0-.63.485-.63,1.077Z"/>
        <g>
          <path class="cls-4" d="m2.044,341.233h16.183c.758,0,1.262-1.057,1.262-2.327v-1.265c0-1.265-.503-2.327-1.262-2.327H2.044v5.919Z"/>
          <path class="cls-12" d="m20.118,337.641v1.265c0,1.938-.815,3.404-1.891,3.404H2.044c-.349,0-.63-.485-.63-1.077v-5.919c0-.593.281-1.077.63-1.077h16.183c1.077,0,1.891,1.466,1.891,3.404Zm-17.445,2.515h15.553c.433,0,.632-.649.632-1.249v-1.265c0-.601-.199-1.249-.632-1.249H2.674v3.764Z"/>
          <path class="cls-4" d="m2.044,350.736h18.302c.728,0,1.231-1.058,1.231-2.323v-2.747c0-1.257-.503-2.318-1.231-2.318H2.044v7.389Z"/>
          <path class="cls-3" d="m22.207,345.666v2.747c0,1.906-.819,3.4-1.861,3.4H2.044c-.349,0-.63-.485-.63-1.077v-7.389c0-.593.281-1.077.63-1.077h18.302c1.042,0,1.861,1.494,1.861,3.396Zm-19.533,3.993h17.672c.396,0,.602-.625.602-1.245v-2.747c0-.617-.206-1.241-.602-1.241H2.674v5.234Z"/>
          <path class="cls-4" d="m2.044,360.251h14.828c.627,0,1.131-1.061,1.131-2.331v-2.747c0-1.261-.503-2.323-1.131-2.323H2.044v7.4Z"/>
          <path class="cls-12" d="m18.632,355.173v2.747c0,1.878-.791,3.408-1.76,3.408H2.044c-.349,0-.63-.485-.63-1.077v-7.4c0-.593.281-1.077.63-1.077h14.828c.969,0,1.76,1.526,1.76,3.4Zm-15.958,4.001h14.198c.267,0,.501-.585.501-1.254v-2.747c0-.665-.234-1.245-.501-1.245H2.674v5.246Z"/>
          <path class="cls-4" d="m2.044,369.966h18.302c.728,0,1.231-1.053,1.231-2.543v-2.735c0-1.273-.503-2.323-1.231-2.323H2.044v7.601Z"/>
          <path class="cls-3" d="m22.207,364.688v2.735c0,2.098-.784,3.62-1.861,3.62H2.044c-.349,0-.63-.485-.63-1.077v-7.601c0-.593.281-1.077.63-1.077h18.302c1.042,0,1.861,1.494,1.861,3.4Zm-19.533,4.201h17.672c.445,0,.602-.789.602-1.466v-2.735c0-.621-.206-1.245-.602-1.245H2.674v5.446Z"/>
          <path class="cls-4" d="m2.044,382.852h17.194c.728,0,1.231-1.478,1.231-3.38v-4.225c0-1.906-.503-3.384-1.231-3.384H2.044v10.988Z"/>
          <path class="cls-17" d="m21.099,375.248v4.225c0,2.583-.784,4.457-1.861,4.457H2.044c-.349,0-.63-.485-.63-1.077v-10.988c0-.593.281-1.077.63-1.077h17.194c1.077,0,1.861,1.878,1.861,4.461Zm-18.426,6.527h16.565c.283,0,.602-.945.602-2.303v-4.225c0-1.361-.318-2.307-.602-2.307H2.674v8.834Z"/>
          <path class="cls-4" d="m2.044,390.669h18.302c.728,0,1.231-1.049,1.231-2.33v-2.743c0-1.269-.503-2.323-1.231-2.323H2.044v7.396Z"/>
          <path class="cls-17" d="m22.207,385.595v2.743c0,1.91-.819,3.408-1.861,3.408H2.044c-.349,0-.63-.484-.63-1.077v-7.396c0-.593.281-1.077.63-1.077h18.302c1.042,0,1.861,1.494,1.861,3.4Zm-19.533,3.996h17.672c.396,0,.602-.629.602-1.253v-2.743c0-.62-.206-1.245-.602-1.245H2.674v5.242Z"/>
          <path class="cls-4" d="m2.044,401.441h18.302c.728,0,1.231-1.057,1.231-2.323v-4.009c0-1.273-.503-2.334-1.231-2.334H2.044v8.666Z"/>
          <path class="cls-3" d="m22.207,395.11v4.009c0,1.906-.819,3.4-1.861,3.4H2.044c-.349,0-.63-.485-.63-1.077v-8.666c0-.593.281-1.077.63-1.077h18.302c1.042,0,1.861,1.498,1.861,3.412Zm-19.533,5.254h17.672c.396,0,.602-.625.602-1.245v-4.009c0-.625-.206-1.257-.602-1.257H2.674v6.511Z"/>
        </g>
      </g>
    </g>
  </g>
</svg>