<?xml version="1.0" encoding="UTF-8"?>
<svg xmlns="http://www.w3.org/2000/svg" xmlns:xlink="http://www.w3.org/1999/xlink" viewBox="0 0 72.81 206.2">
  <defs>
    <style>
      .cls-1 {
        fill: url(#_Áåçûìÿííûé_ãðàäèåíò_35-9);
      }

      .cls-1, .cls-2, .cls-3, .cls-4, .cls-5, .cls-6, .cls-7, .cls-8, .cls-9, .cls-10, .cls-11, .cls-12 {
        mix-blend-mode: multiply;
      }

      .cls-1, .cls-13, .cls-8, .cls-9, .cls-12 {
        opacity: .25;
      }

      .cls-2 {
        fill: url(#_Áåçûìÿííûé_ãðàäèåíò_8);
      }

      .cls-2, .cls-5 {
        opacity: .63;
      }

      .cls-3 {
        fill: url(#_Áåçûìÿííûé_ãðàäèåíò_35-6);
      }

      .cls-3, .cls-4, .cls-6, .cls-7, .cls-10, .cls-11 {
        opacity: .15;
      }

      .cls-4 {
        fill: url(#_Áåçûìÿííûé_ãðàäèåíò_35-2);
      }

      .cls-14 {
        isolation: isolate;
      }

      .cls-5 {
        fill: url(#_Áåçûìÿííûé_ãðàäèåíò_8-2);
      }

      .cls-15 {
        fill: url(#_Áåçûìÿííûé_ãðàäèåíò_27);
      }

      .cls-16 {
        fill: url(#_Áåçûìÿííûé_ãðàäèåíò_10);
      }

      .cls-17 {
        fill: url(#_Áåçûìÿííûé_ãðàäèåíò_9);
      }

      .cls-18 {
        fill: #9a7ab5;
      }

      .cls-6 {
        fill: url(#_Áåçûìÿííûé_ãðàäèåíò_35-3);
      }

      .cls-19 {
        fill: url(#_Áåçûìÿííûé_ãðàäèåíò_10-2);
      }

      .cls-13 {
        fill: #ffedb3;
        mix-blend-mode: screen;
      }

      .cls-7 {
        fill: url(#_Áåçûìÿííûé_ãðàäèåíò_35-5);
      }

      .cls-8 {
        fill: url(#_Áåçûìÿííûé_ãðàäèåíò_35-8);
      }

      .cls-9 {
        fill: url(#_Áåçûìÿííûé_ãðàäèåíò_35-10);
      }

      .cls-10 {
        fill: url(#_Áåçûìÿííûé_ãðàäèåíò_35-4);
      }

      .cls-11 {
        fill: url(#_Áåçûìÿííûé_ãðàäèåíò_35);
      }

      .cls-12 {
        fill: url(#_Áåçûìÿííûé_ãðàäèåíò_35-7);
      }
    </style>
    <radialGradient id="_Áåçûìÿííûé_ãðàäèåíò_9" data-name="Áåçûìÿííûé ãðàäèåíò 9" cx="681.94" cy="-322.64" fx="681.94" fy="-322.64" r="62.22" gradientTransform="translate(326.2 786.4) rotate(-90)" gradientUnits="userSpaceOnUse">
      <stop offset=".02" stop-color="#49456c"/>
      <stop offset=".99" stop-color="#4a335f"/>
    </radialGradient>
    <linearGradient id="_Áåçûìÿííûé_ãðàäèåíò_8" data-name="Áåçûìÿííûé ãðàäèåíò 8" x1="683.12" y1="-298.6" x2="683.73" y2="-313.48" gradientTransform="translate(326.2 786.4) rotate(-90)" gradientUnits="userSpaceOnUse">
      <stop offset="0" stop-color="#88bf89"/>
      <stop offset="1" stop-color="#31265d"/>
    </linearGradient>
    <linearGradient id="_Áåçûìÿííûé_ãðàäèåíò_8-2" data-name="Áåçûìÿííûé ãðàäèåíò 8" x1="690.06" y1="-322.2" x2="689.95" y2="-296.38" xlink:href="#_Áåçûìÿííûé_ãðàäèåíò_8"/>
    <radialGradient id="_Áåçûìÿííûé_ãðàäèåíò_10" data-name="Áåçûìÿííûé ãðàäèåíò 10" cx="690.49" cy="-301.64" fx="690.49" fy="-301.64" r="36.34" gradientTransform="translate(326.2 786.4) rotate(-90)" gradientUnits="userSpaceOnUse">
      <stop offset=".02" stop-color="#7a73b5"/>
      <stop offset=".99" stop-color="#8259a8"/>
    </radialGradient>
    <radialGradient id="_Áåçûìÿííûé_ãðàäèåíò_10-2" data-name="Áåçûìÿííûé ãðàäèåíò 10" cx="684.55" cy="-335.89" fx="684.55" fy="-335.89" r="59.94" xlink:href="#_Áåçûìÿííûé_ãðàäèåíò_10"/>
    <radialGradient id="_Áåçûìÿííûé_ãðàäèåíò_27" data-name="Áåçûìÿííûé ãðàäèåíò 27" cx="689.42" cy="-237.08" fx="689.42" fy="-237.08" r="103.14" gradientTransform="translate(326.2 786.4) rotate(-90)" gradientUnits="userSpaceOnUse">
      <stop offset="0" stop-color="#d7dcdf"/>
      <stop offset=".96" stop-color="#dccad4"/>
    </radialGradient>
    <linearGradient id="_Áåçûìÿííûé_ãðàäèåíò_35" data-name="Áåçûìÿííûé ãðàäèåíò 35" x1="605.48" y1="-274.19" x2="605.66" y2="-277.62" gradientTransform="translate(326.2 786.4) rotate(-90)" gradientUnits="userSpaceOnUse">
      <stop offset=".01" stop-color="#fff"/>
      <stop offset=".12" stop-color="#f0e9f1"/>
      <stop offset=".35" stop-color="#ccb3cc"/>
      <stop offset=".66" stop-color="#925c93"/>
      <stop offset=".98" stop-color="#540056"/>
    </linearGradient>
    <linearGradient id="_Áåçûìÿííûé_ãðàäèåíò_35-2" data-name="Áåçûìÿííûé ãðàäèåíò 35" x1="639.96" y1="-254.94" x2="640.16" y2="-258.78" xlink:href="#_Áåçûìÿííûé_ãðàäèåíò_35"/>
    <linearGradient id="_Áåçûìÿííûé_ãðàäèåíò_35-3" data-name="Áåçûìÿííûé ãðàäèåíò 35" x1="745.17" y1="-256.51" x2="745.35" y2="-259.8" xlink:href="#_Áåçûìÿííûé_ãðàäèåíò_35"/>
    <linearGradient id="_Áåçûìÿííûé_ãðàäèåíò_35-4" data-name="Áåçûìÿííûé ãðàäèåíò 35" x1="683.08" y1="-262.18" x2="683.4" y2="-268.27" xlink:href="#_Áåçûìÿííûé_ãðàäèåíò_35"/>
    <linearGradient id="_Áåçûìÿííûé_ãðàäèåíò_35-5" data-name="Áåçûìÿííûé ãðàäèåíò 35" x1="744.12" y1="-284.33" x2="744.28" y2="-287.29" xlink:href="#_Áåçûìÿííûé_ãðàäèåíò_35"/>
    <linearGradient id="_Áåçûìÿííûé_ãðàäèåíò_35-6" data-name="Áåçûìÿííûé ãðàäèåíò 35" x1="708.17" y1="-274.43" x2="708.45" y2="-279.79" xlink:href="#_Áåçûìÿííûé_ãðàäèåíò_35"/>
    <linearGradient id="_Áåçûìÿííûé_ãðàäèåíò_35-7" data-name="Áåçûìÿííûé ãðàäèåíò 35" x1="686.14" y1="-244.5" x2="709.76" y2="-265.87" xlink:href="#_Áåçûìÿííûé_ãðàäèåíò_35"/>
    <linearGradient id="_Áåçûìÿííûé_ãðàäèåíò_35-8" data-name="Áåçûìÿííûé ãðàäèåíò 35" x1="566.28" y1="-255.69" x2="590.05" y2="-277.19" xlink:href="#_Áåçûìÿííûé_ãðàäèåíò_35"/>
    <linearGradient id="_Áåçûìÿííûé_ãðàäèåíò_35-9" data-name="Áåçûìÿííûé ãðàäèåíò 35" x1="672.9" y1="-270.25" x2="684.93" y2="-281.13" xlink:href="#_Áåçûìÿííûé_ãðàäèåíò_35"/>
    <linearGradient id="_Áåçûìÿííûé_ãðàäèåíò_35-10" data-name="Áåçûìÿííûé ãðàäèåíò 35" x1="764.76" y1="-267.29" x2="785.65" y2="-267.29" xlink:href="#_Áåçûìÿííûé_ãðàäèåíò_35"/>
  </defs>
  <g class="cls-14">
    <g id="Layer_1" data-name="Layer 1">
      <g>
        <polygon class="cls-17" points="4.34 187.48 3.34 18.55 29.45 43.42 29.66 150.02 4.34 187.48"/>
        <polygon class="cls-2" points="5.82 181.37 4.94 23.36 28.69 44.88 28.9 148.48 5.82 181.37"/>
        <polygon class="cls-5" points="27.66 147.44 12.99 167.17 12.8 115.58 27.43 106.99 27.49 49.51 4.97 32.53 5.09 25.57 27.56 45.35 27.66 147.44"/>
        <polygon class="cls-16" points="28.9 148.48 27.66 147.44 27.56 45.35 28.69 44.88 28.9 148.48"/>
        <polygon class="cls-19" points="0 18.55 3.34 18.55 3.96 122.55 4.06 138.72 4.34 187.48 1 187.65 .72 139.56 .51 104.61 .49 100.29 .48 98.98 0 18.55"/>
        <polygon class="cls-13" points=".51 104.61 3.67 103.42 3.96 122.55 4.2 138.68 4.06 138.72 .72 139.56 .51 104.61"/>
        <polygon class="cls-13" points="3.77 98.13 3.77 98.89 .49 100.29 .48 98.98 3.77 98.13"/>
      </g>
      <g>
        <g>
          <polygon class="cls-15" points="38.51 0 40.42 .09 45.77 .32 48.24 .43 57.93 .86 65.34 1.19 65.59 1.21 66.76 1.26 67.09 80.9 67.12 87.3 67.61 204.51 61.83 204.87 57.72 205.12 57.21 205.15 50.18 205.59 47.57 205.75 40.2 206.2 39.2 84.26 38.51 0"/>
          <path class="cls-11" d="m47.57,205.75c-.19-11.3-.47-29.25-.7-50.16,1.1,16.49,2.43,36.6,3.31,50l-2.61.16Z"/>
          <path class="cls-4" d="m61.83,204.87c2.23-44.12,4.86-106.92,5.3-117.57l.49,117.21-5.79.36Z"/>
          <polygon class="cls-6" points="67.09 80.9 65.59 1.21 66.76 1.26 67.09 80.9"/>
          <path class="cls-10" d="m57.93.86l7.42.33-7.62,203.93-.51.03c.9-54.9,2.74-183.51.72-204.29Z"/>
          <polygon class="cls-7" points="40.42 .09 39.2 84.26 38.51 0 40.42 .09"/>
          <path class="cls-3" d="m45.77.32l2.47.11c-2.2,31.4-1.94,102.62-1.37,155.15-.99-14.96-1.79-26.95-1.89-28.24-.25-3.2.59-102.58.79-127.02Z"/>
          <path class="cls-12" d="m60.02,87c-1.12-6.33.42-20.94.42-20.94,0,0,.98,7.73.7,11.81-.28,4.08-1.12,9.14-1.12,9.14Z"/>
          <polygon class="cls-8" points="48.59 205.78 48.68 186.1 50.06 205.54 48.59 205.78"/>
          <path class="cls-1" d="m44.98,106.68c1.19-4.57.07-10.54.07-10.54,0,0-.7,3.44-.56,6.04.14,2.6.49,4.5.49,4.5Z"/>
          <path class="cls-9" d="m58.85,21.64c.28-10.96,1.78-20.62,1.5-20.52-.28.09-2.9-.37-2.9-.37l1.41,20.9Z"/>
        </g>
        <polygon class="cls-18" points="67.61 204.51 72.81 179.35 72.25 21.08 66.76 1.26 67.61 204.51"/>
      </g>
    </g>
  </g>
</svg>