<?xml version="1.0" encoding="UTF-8"?>
<svg id="Layer_1" data-name="Layer 1" xmlns="http://www.w3.org/2000/svg" viewBox="0 0 230 454">
  <defs>
    <style>
      .cls-1 {
        fill: #3d3d3d;
      }

      .cls-2 {
        fill: #b38556;
      }

      .cls-3 {
        fill: #b55a5a;
      }

      .cls-4 {
        fill: #c49a6c;
      }

      .cls-5 {
        fill: #636363;
      }

      .cls-6 {
        fill: #474747;
      }

      .cls-7 {
        fill: #999;
      }
    </style>
  </defs>
  <polygon class="cls-2" points="166.56 447.97 194.32 435.2 194.32 23.09 166.56 5.21 166.56 447.97"/>
  <rect class="cls-5" x="168.29" y="47.84" width="20.04" height="195.18"/>
  <polygon class="cls-1" points="188.31 242.95 203.95 240.76 203.95 59.48 188.31 47.77 188.31 242.95"/>
  <g>
    <path class="cls-5" d="m103.46,401.49c-5.45,0-9.88-2.59-9.88-5.79v-134.12c0-3.2,4.42-5.79,9.88-5.79h116.66c5.45,0,9.88,2.59,9.88,5.79v134.12c0,3.2-4.43,5.79-9.88,5.79h-116.66Z"/>
    <path class="cls-7" d="m115.02,393.71c-4.38,0-7.93-2.32-7.93-5.17v-119.79c0-2.85,3.55-5.16,7.93-5.16h93.55c4.37,0,7.92,2.31,7.92,5.16v119.79c0,2.85-3.55,5.17-7.92,5.17h-93.54Z"/>
    <path class="cls-6" d="m163.94,335c-26.33,0-47.68-14.76-47.68-32.98,0-18.22,21.35-32.98,47.68-32.98s47.68,14.76,47.68,32.98-21.35,32.98-47.68,32.98Z"/>
    <path class="cls-3" d="m163.94,313.78c-9.39,0-17-5.26-17-11.76s7.61-11.75,17-11.75,16.99,5.26,16.99,11.75-7.61,11.76-16.99,11.76Z"/>
    <rect class="cls-6" x="148.27" y="341.23" width="62.16" height="2.64"/>
    <rect class="cls-6" x="118.76" y="351.55" width="3.82" height="34.33"/>
    <rect class="cls-6" x="115.97" y="363.71" width="9.41" height="2.64"/>
    <rect class="cls-6" x="132.94" y="351.55" width="3.82" height="34.33"/>
    <rect class="cls-6" x="130.14" y="363.71" width="9.42" height="2.64"/>
    <rect class="cls-6" x="147.11" y="351.55" width="3.83" height="34.33"/>
    <rect class="cls-6" x="144.32" y="356.47" width="9.41" height="2.64"/>
    <rect class="cls-6" x="161.29" y="351.55" width="3.82" height="34.33"/>
    <rect class="cls-6" x="158.5" y="356.47" width="9.42" height="2.64"/>
    <rect class="cls-6" x="175.47" y="351.55" width="3.83" height="34.33"/>
    <rect class="cls-6" x="172.67" y="360.09" width="9.41" height="2.64"/>
    <rect class="cls-6" x="189.64" y="351.55" width="3.82" height="34.33"/>
    <rect class="cls-6" x="186.85" y="370.95" width="9.41" height="2.64"/>
    <rect class="cls-6" x="203.81" y="351.55" width="3.82" height="34.33"/>
    <rect class="cls-6" x="201.02" y="370.95" width="9.42" height="2.64"/>
    <path class="cls-6" d="m142.22,339.72c6.36,0,11.52,1.27,11.52,2.83s-5.15,2.84-11.52,2.84-11.51-1.27-11.51-2.84,5.15-2.83,11.51-2.83Z"/>
  </g>
  <path class="cls-4" d="m63.85,447.4c0,3.63,4.29,6.6,9.54,6.6h86.4c5.25,0,9.54-2.97,9.54-6.6V6.6c0-3.63-4.29-6.6-9.54-6.6h-86.4c-5.25,0-9.54,2.97-9.54,6.6v440.8Z"/>
  <rect class="cls-5" y="24.3" width="26.37" height="403.27"/>
  <polygon class="cls-1" points="26.37 427.58 108.24 407.41 108.24 38.71 26.37 24.3 26.37 427.58"/>
  <polygon class="cls-7" points="36.25 413.09 95.07 399.58 95.07 49.2 36.25 40.53 36.25 413.09"/>
</svg>