<?xml version="1.0" encoding="UTF-8"?>
<svg xmlns="http://www.w3.org/2000/svg" xmlns:xlink="http://www.w3.org/1999/xlink" viewBox="0 0 288.48 36">
  <defs>
    <style>
      .cls-1 {
        fill: #89a5ad;
      }

      .cls-2 {
        fill: url(#linear-gradient-2);
      }

      .cls-3, .cls-4 {
        fill: #ddd3cc;
      }

      .cls-5 {
        fill: #5e6b6b;
      }

      .cls-4, .cls-6 {
        mix-blend-mode: multiply;
      }

      .cls-7 {
        fill: #5e3910;
      }

      .cls-8 {
        isolation: isolate;
      }

      .cls-9 {
        fill: #a3a3a3;
      }

      .cls-10 {
        fill: #636666;
      }

      .cls-11 {
        fill: url(#linear-gradient-3);
      }

      .cls-12 {
        fill: url(#linear-gradient);
      }

      .cls-13 {
        fill: #0e0f0f;
      }
    </style>
    <linearGradient id="linear-gradient" x1="166.654" y1="-109.213" x2="268.761" y2="1.73" gradientTransform="translate(-74.884 -38.883) scale(1 -1)" gradientUnits="userSpaceOnUse">
      <stop offset=".006" stop-color="#bfa191"/>
      <stop offset=".491" stop-color="#4e2600"/>
      <stop offset=".818" stop-color="#bfa191"/>
    </linearGradient>
    <linearGradient id="linear-gradient-2" x1="124.593" y1="-122.573" x2="150.106" y2="-79.201" gradientTransform="translate(126.24 162.24) rotate(-90)" gradientUnits="userSpaceOnUse">
      <stop offset=".006" stop-color="#5b5e5d"/>
      <stop offset=".279" stop-color="#8c8c8c"/>
      <stop offset=".842" stop-color="#5b5e5d"/>
    </linearGradient>
    <linearGradient id="linear-gradient-3" x1="70.068" y1="-102.459" x2="100.365" y2="-50.954" xlink:href="#linear-gradient-2"/>
  </defs>
  <g class="cls-8">
    <g id="Layer_1" data-name="Layer 1">
      <g class="cls-6">
        <polygon class="cls-3" points="59.491 .001 59.491 2.092 59.491 12.165 11.423 12.165 11.423 33.019 59.806 33.019 59.806 32.874 240.093 32.874 240.093 33.019 288.48 33.019 288.48 12.165 240.609 12.165 240.609 2.092 240.609 .001 240.609 0 59.491 0 59.491 .001"/>
        <rect class="cls-3" x="15.573" y="7.925" width="39.875" height="2.064"/>
        <rect class="cls-3" x="244.455" y="7.925" width="39.879" height="2.064"/>
      </g>
      <g class="cls-6">
        <polygon class="cls-3" points="52.772 2.106 52.772 4.196 52.772 14.27 4.705 14.27 4.705 35.123 53.088 35.123 53.088 34.978 233.374 34.978 233.374 35.123 281.761 35.123 281.761 14.27 233.89 14.27 233.89 4.196 233.89 2.106 233.89 2.105 52.772 2.105 52.772 2.106"/>
        <rect class="cls-3" x="8.855" y="10.03" width="39.875" height="2.064"/>
        <rect class="cls-3" x="237.736" y="10.03" width="39.879" height="2.064"/>
      </g>
      <path class="cls-12" d="m229.185,35.855H48.068V2.981h181.117v32.874Z"/>
      <path class="cls-7" d="m229.185,5.073H48.068v-2.091h181.117v2.091Z"/>
      <path class="cls-2" d="m0,15.147v20.853s48.383,0,48.383,0V15.147S0,15.147,0,15.147Z"/>
      <path class="cls-11" d="m233.032,10.907v2.064s39.879,0,39.879,0v-2.064s-39.879,0-39.879,0Zm-4.362,4.24v20.853s48.387,0,48.387,0V15.147s-48.387,0-48.387,0ZM4.15,10.907v2.064s39.875,0,39.875,0v-2.064s-39.875,0-39.875,0Z"/>
      <g>
        <path class="cls-4" d="m66.716,22.957l54.452-.185.041,5.229h-.006l.006.345,39.889-.08v-.347h0l-.04-5.283,60.633-.208c3.945-.012,7.128-1.692,7.1-3.754l-.002-.252-.012-.722-67.753.23-.042-5.57-39.888.079-.004.409h.004l.04,5.219-61.625.209.008.721v.252c.027,2.064,3.246,3.72,7.199,3.707Z"/>
        <path class="cls-4" d="m66.59,24.783l54.452-.186.042,5.229h-.004l.004.345,39.888-.08v-.347h0l-.037-5.283,60.631-.208c3.947-.012,7.13-1.692,7.102-3.754l-.004-.252-.01-.722-67.753.23-.041-5.57-39.889.079-.006.409h.006l.04,5.219-61.625.209.008.722v.252c.028,2.064,3.246,3.72,7.197,3.708Z"/>
        <g>
          <polygon class="cls-13" points="118.083 15.653 157.975 15.573 158.088 31.479 118.199 31.558 118.083 15.653"/>
          <polygon class="cls-5" points="118.193 31.213 158.088 31.133 158.088 31.479 118.199 31.558 118.193 31.213"/>
          <polygon class="cls-10" points="118.083 15.653 157.975 15.573 157.975 15.979 118.081 16.061 118.083 15.653"/>
        </g>
        <polygon class="cls-9" points="126.193 28.139 126.197 28.344 150.046 28.297 149.977 18.786 126.128 18.835 126.124 19.078 126.13 19.078 126.193 28.139 126.193 28.139"/>
        <g>
          <path class="cls-13" d="m63.706,26.17l154.976-.527c3.947-.015,7.128-1.694,7.098-3.755v-.253s-169.275.575-169.275.575l.002.254c.027,2.062,3.246,3.718,7.199,3.706Z"/>
          <polygon class="cls-1" points="56.505 22.21 225.78 21.634 225.768 20.913 56.499 21.488 56.505 22.21"/>
        </g>
      </g>
    </g>
  </g>
</svg>