<?xml version="1.0" encoding="UTF-8"?>
<svg xmlns="http://www.w3.org/2000/svg" xmlns:xlink="http://www.w3.org/1999/xlink" viewBox="0 0 544.65 235.48">
  <defs>
    <style>
      .cls-1 {
        fill: url(#_Íîâûé_îáðàçåö_ãðàäèåíòà_4);
      }

      .cls-2 {
        stroke: #c6c6c6;
      }

      .cls-2, .cls-3 {
        stroke-miterlimit: 10;
        stroke-width: .03px;
      }

      .cls-2, .cls-4 {
        fill: #dadada;
      }

      .cls-5 {
        fill: #ddd;
      }

      .cls-6 {
        fill: #e9e9e9;
      }

      .cls-7 {
        fill: #d8dce8;
      }

      .cls-8 {
        fill: #f4f4f4;
      }

      .cls-9 {
        fill: #fff;
      }

      .cls-10 {
        fill: #cbcbcb;
      }

      .cls-11 {
        fill: #d1d1d1;
      }

      .cls-12 {
        fill: #fafafa;
      }

      .cls-13 {
        fill: #a7a9ac;
      }

      .cls-14 {
        fill: #f5f5f5;
      }

      .cls-15 {
        isolation: isolate;
      }

      .cls-16 {
        fill: #d6d6d6;
      }

      .cls-17 {
        fill: url(#linear-gradient-3);
      }

      .cls-17, .cls-18 {
        stroke: #949494;
        stroke-linecap: round;
        stroke-linejoin: round;
        stroke-width: .03px;
      }

      .cls-19 {
        fill: #c9c9c9;
      }

      .cls-3 {
        fill: url(#linear-gradient-2);
        stroke: #9d9d9c;
      }

      .cls-20 {
        fill: #dedede;
      }

      .cls-21 {
        fill: #e1e1e1;
      }

      .cls-22 {
        fill: #e7e7e7;
      }

      .cls-23 {
        fill: url(#_Íîâûé_îáðàçåö_ãðàäèåíòà_4-2);
      }

      .cls-24 {
        fill: #d4d4d4;
      }

      .cls-25 {
        fill: #e4e4e4;
      }

      .cls-18 {
        fill: url(#linear-gradient);
      }

      .cls-26 {
        fill: #8f8f8e;
      }

      .cls-27 {
        fill: #ebebeb;
      }

      .cls-28 {
        fill: none;
      }

      .cls-29 {
        fill: #dcdcdc;
      }

      .cls-30 {
        fill: #999;
      }

      .cls-31 {
        fill: #706f6f;
      }

      .cls-31, .cls-32 {
        mix-blend-mode: multiply;
      }

      .cls-33 {
        fill: #cad1ea;
      }

      .cls-34 {
        fill: #f7f7f7;
      }

      .cls-35 {
        fill: #efefef;
      }

      .cls-36 {
        fill: #d1d3d4;
      }

      .cls-37 {
        fill: #e6e7e8;
      }

      .cls-38 {
        fill: #f1f1f1;
      }

      .cls-39 {
        fill: #cecece;
      }

      .cls-40 {
        fill: #d9d9d9;
      }

      .cls-41 {
        fill: #f8f8f8;
      }

      .cls-42 {
        fill: #c6c6c6;
      }

      .cls-43 {
        fill: #eee;
      }

      .cls-44 {
        fill: #ececec;
      }

      .cls-45 {
        fill: #f2f2f2;
      }

      .cls-46 {
        fill: #fcfcfc;
      }

      .cls-47 {
        fill: #ededed;
      }
    </style>
    <linearGradient id="linear-gradient" x1="543.95" y1="203.04" x2="48.45" y2="203.04" gradientUnits="userSpaceOnUse">
      <stop offset="0" stop-color="#c2c2c1"/>
      <stop offset="1" stop-color="#878787"/>
    </linearGradient>
    <linearGradient id="linear-gradient-2" x1="543.95" y1="94.48" x2="48.45" y2="94.48" gradientUnits="userSpaceOnUse">
      <stop offset="0" stop-color="#fff"/>
      <stop offset="1" stop-color="#ccc"/>
    </linearGradient>
    <linearGradient id="linear-gradient-3" x1="306.38" y1="206.16" x2="543.42" y2="206.16" xlink:href="#linear-gradient"/>
    <linearGradient id="_Íîâûé_îáðàçåö_ãðàäèåíòà_4" data-name="Íîâûé îáðàçåö ãðàäèåíòà 4" x1="343.29" y1="119.35" x2="365.02" y2="119.35" gradientUnits="userSpaceOnUse">
      <stop offset="0" stop-color="#fff"/>
      <stop offset="1" stop-color="#ebebeb"/>
    </linearGradient>
    <linearGradient id="_Íîâûé_îáðàçåö_ãðàäèåíòà_4-2" data-name="Íîâûé îáðàçåö ãðàäèåíòà 4" x1="343.7" y1="119.35" x2="364.61" y2="119.35" xlink:href="#_Íîâûé_îáðàçåö_ãðàäèåíòà_4"/>
  </defs>
  <g class="cls-15">
    <g id="Layer_1" data-name="Layer 1">
      <g>
        <g class="cls-32">
          <path class="cls-9" d="m496.83,198.32l.07-2.8c0-.05-.05-.09-.07-.15V12.59H.07v182.79c-.02.05-.07.09-.07.15l.07,1.94v3.2h.11l1.14,34.22c.01.33.32.6.7.6h36.05c.39,0,.69-.28.69-.62l.13.62h219.17l-.13-.62c0,.34.31.62.7.62h236.66c.38,0,.69-.27.7-.6l.79-34.21h.06v-2.34Z"/>
          <path class="cls-46" d="m499.1,197.72l.07-2.8c0-.05-.05-.09-.07-.15V11.99H2.33v182.79c-.02.05-.07.09-.07.15l.07,1.94v3.2h.11l1.14,34.22c.01.33.32.6.7.6h36.05c.39,0,.7-.28.7-.62l.13-.8h219.17l-.12.8c0,.34.31.62.7.62h236.66c.38,0,.69-.27.7-.6l.79-34.21h.06v-2.34Z"/>
          <path class="cls-12" d="m501.37,197.12l.07-2.8c0-.05-.05-.09-.07-.15V11.39H4.6v182.79c-.02.05-.07.09-.07.15l.07,1.94v3.2h.11l1.14,34.22c.01.33.32.6.7.6h36.05c.39,0,.7-.28.7-.62l.12-2.22h219.17l-.12,2.22c0,.34.31.62.7.62h236.66c.38,0,.69-.27.7-.6l.79-34.21h.06v-2.34Z"/>
          <path class="cls-34" d="m503.64,196.52l.07-2.8c0-.05-.05-.09-.07-.15V10.79H6.87v182.79c-.02.05-.07.09-.07.15l.07,1.94v3.2h.11l1.14,34.22c.01.33.32.6.7.6h36.05c.39,0,.7-.28.7-.62l.11-3.64h219.17l-.11,3.64c0,.34.31.62.7.62h236.66c.38,0,.69-.27.7-.6l.79-34.21h.06v-2.34Z"/>
          <path class="cls-8" d="m505.9,195.92l.07-2.8c0-.05-.05-.09-.07-.15V10.19H9.14v182.79c-.02.05-.07.09-.07.15l.07,1.94v3.2h.11l1.14,34.22c.01.33.32.6.7.6h36.05c.39,0,.7-.28.7-.62l.11-5.06h219.17l-.11,5.06c0,.34.31.62.7.62h236.66c.38,0,.69-.27.7-.6l.79-34.21h.06v-2.34Z"/>
          <path class="cls-38" d="m508.17,195.32l.07-2.8c0-.05-.05-.09-.07-.15V9.59H11.41v182.79c-.02.05-.07.09-.07.15l.07,1.94v3.2h.11l1.14,34.22c.01.33.32.6.7.6h36.05c.39,0,.7-.28.7-.62l.1-6.48h219.17l-.1,6.48c0,.34.31.62.7.62h236.66c.38,0,.69-.27.7-.6l.79-34.21h.06v-2.34Z"/>
          <path class="cls-35" d="m510.44,194.72l.07-2.8c0-.05-.05-.09-.07-.15V8.99H13.68v182.79c-.02.05-.07.09-.07.15l.07,1.94v3.2h.11l1.14,34.22c.01.33.32.6.7.6h36.05c.39,0,.7-.28.7-.62l.09-7.9h219.17l-.09,7.9c0,.34.31.62.7.62h236.66c.38,0,.69-.27.7-.6l.79-34.21h.06v-2.34Z"/>
          <path class="cls-44" d="m512.71,194.12l.07-2.8c0-.05-.05-.09-.07-.15V8.39H15.94v182.79c-.02.05-.07.09-.07.15l.07,1.94v3.2h.11l1.14,34.22c.01.33.32.6.7.6h36.05c.39,0,.7-.28.7-.62l.09-9.32h219.17l-.09,9.32c0,.34.31.62.7.62h236.66c.38,0,.69-.27.7-.6l.79-34.21h.06v-2.34Z"/>
          <path class="cls-6" d="m514.98,193.52l.07-2.8c0-.05-.05-.09-.07-.15V7.79H18.21v182.79c-.02.05-.07.09-.07.15l.07,1.94v3.2h.11l1.14,34.22c.01.33.32.6.7.6h36.05c.39,0,.7-.28.7-.62l.08-10.74h219.17l-.08,10.74c0,.34.31.62.7.62h236.66c.38,0,.69-.27.7-.6l.79-34.21h.06v-2.34Z"/>
          <path class="cls-22" d="m517.25,192.92l.07-2.8c0-.05-.05-.09-.07-.15V7.19H20.48v182.79c-.02.05-.07.09-.07.15l.07,1.94v3.2h.11l1.14,34.22c.01.33.32.6.7.6h36.05c.39,0,.7-.28.7-.62l.08-12.16h219.17l-.07,12.16c0,.34.31.62.7.62h236.66c.38,0,.69-.27.7-.6l.79-34.21h.06v-2.34Z"/>
          <path class="cls-25" d="m519.51,192.32l.07-2.8c0-.05-.05-.09-.07-.15V6.59H22.75v182.79c-.02.05-.07.09-.07.15l.07,1.94v3.2h.11l1.14,34.22c.01.33.32.6.7.6h36.05c.39,0,.7-.28.7-.62l.07-13.57h219.17l-.07,13.57c0,.34.31.62.7.62h236.66c.38,0,.69-.27.7-.6l.79-34.21h.06v-2.35Z"/>
          <path class="cls-21" d="m521.78,191.72l.07-2.8c0-.05-.05-.09-.07-.15V5.99H25.02v182.79c-.02.05-.07.09-.07.15l.07,1.94v3.2h.11l1.14,34.22c.01.33.32.6.7.6h36.05c.39,0,.7-.28.7-.62l.06-14.99h219.17l-.06,14.99c0,.34.31.62.7.62h236.66c.38,0,.69-.27.7-.6l.79-34.21h.06v-2.35Z"/>
          <path class="cls-20" d="m524.05,191.12l.07-2.8c0-.05-.05-.09-.07-.15V5.4H27.29v182.79c-.02.05-.07.09-.07.15l.07,1.94v3.2h.11l1.14,34.21c.01.33.32.6.7.6h36.05c.39,0,.7-.28.7-.62l.06-16.41h219.17l-.06,16.41c0,.34.31.62.7.62h236.66c.38,0,.69-.27.7-.6l.79-34.21h.06v-2.35Z"/>
          <path class="cls-29" d="m526.32,190.52l.07-2.8c0-.05-.05-.09-.07-.15V4.8H29.55v182.79c-.02.05-.07.09-.07.15l.07,1.94v3.2h.11l1.14,34.21c.01.33.32.6.7.6h36.05c.39,0,.7-.27.7-.62l.05-17.83h219.17l-.05,17.83c0,.34.31.62.7.62h236.66c.38,0,.69-.27.7-.6l.79-34.21h.06v-2.35Z"/>
          <path class="cls-40" d="m528.59,189.92l.07-2.8c0-.05-.05-.09-.07-.14V4.2H31.82v182.79c-.02.05-.07.09-.07.14l.07,1.94v3.2h.11l1.14,34.21c.01.33.32.6.7.6h36.05c.39,0,.7-.27.7-.62l.04-19.25h219.17l-.04,19.25c0,.34.31.62.7.62h236.66c.38,0,.69-.27.7-.6l.79-34.21h.06v-2.35Z"/>
          <path class="cls-16" d="m530.86,189.32l.07-2.8c0-.05-.05-.09-.07-.14V3.6H34.09v182.79c-.02.05-.07.09-.07.14l.07,1.94v3.2h.11l1.14,34.21c.01.33.32.6.7.6h36.05c.39,0,.7-.27.7-.62l.04-20.67h219.17l-.04,20.67c0,.34.31.62.7.62h236.66c.38,0,.69-.27.7-.6l.79-34.21h.06v-2.35Z"/>
          <path class="cls-24" d="m533.12,188.72l.07-2.8c0-.05-.05-.09-.07-.14V3H36.36v182.79c-.02.05-.07.09-.07.14l.07,1.94v3.2h.11l1.14,34.21c.01.33.32.6.7.6h36.05c.39,0,.7-.27.7-.62l.03-22.09h219.17l-.03,22.09c0,.34.31.62.7.62h236.66c.38,0,.69-.27.7-.6l.79-34.21h.06v-2.35Z"/>
          <path class="cls-11" d="m535.39,188.12l.07-2.8c0-.05-.05-.09-.07-.14V2.4H38.63v182.79c-.02.05-.07.09-.07.14l.07,1.94v3.2h.11l1.14,34.21c.01.34.32.6.7.6h36.05c.39,0,.7-.27.7-.62l.03-23.51h219.17l-.02,23.51c0,.34.31.62.7.62h236.66c.38,0,.69-.27.7-.6l.79-34.21h.06v-2.35Z"/>
          <path class="cls-39" d="m537.66,187.53l.07-2.8c0-.05-.05-.09-.07-.14V1.8H40.9v182.79s-.07.09-.07.14l.07,1.94v3.2h.11l1.14,34.21c.01.34.32.6.7.6h36.05c.39,0,.7-.27.7-.62l.02-24.93h219.17l-.02,24.93c0,.34.31.62.7.62h236.66c.38,0,.69-.26.7-.6l.79-34.21h.06v-2.35Z"/>
          <path class="cls-10" d="m539.93,186.93l.07-2.8c0-.05-.05-.09-.07-.14V1.2H43.16v182.79s-.07.09-.07.14l.07,1.94v3.2h.11l1.14,34.21c.01.34.32.6.7.6h36.05c.39,0,.7-.27.7-.62v-26.35h219.18v26.35c-.01.34.3.62.69.62h236.66c.38,0,.69-.26.7-.6l.79-34.21h.06v-2.35Z"/>
          <path class="cls-19" d="m542.2,186.33l.07-2.8c0-.05-.05-.09-.07-.14V.6H45.43v182.79s-.07.09-.07.14l.07,1.94v3.2h.11l1.14,34.21c.01.34.32.6.7.6h36.05c.39,0,.7-.27.7-.62v-27.77h219.18v27.77c0,.34.31.62.69.62h236.66c.38,0,.69-.26.7-.6l.79-34.21h.06v-2.35Z"/>
          <path class="cls-42" d="m544.47,185.73l.07-2.8c0-.05-.05-.09-.07-.14V0H47.7v182.79s-.07.09-.07.14l.07,1.94v3.2h.11l1.14,34.21c.01.34.32.6.7.6h36.05c.39,0,.7-.27.7-.62v-29.19h219.17v29.19c0,.34.31.62.7.62h236.66c.38,0,.69-.26.7-.6l.79-34.21h.06v-2.35Z"/>
        </g>
        <g>
          <polygon class="cls-18" points="543.95 183.36 48.45 183.36 49.76 222.71 85.81 222.71 85.81 192.91 306.38 192.91 306.38 222.71 543.04 222.71 543.95 183.36"/>
          <path class="cls-26" d="m414.54,214c0,2.3,4.55,4.16,10.17,4.16s10.17-1.86,10.17-4.16-4.55-4.15-10.17-4.15-10.17,1.86-10.17,4.15Z"/>
          <ellipse class="cls-26" cx="424.71" cy="197.85" rx="10.17" ry="4.15"/>
          <rect class="cls-3" x="48.45" y="1" width="495.5" height="186.95"/>
          <line class="cls-17" x1="306.38" y1="206.16" x2="543.42" y2="206.16"/>
          <path class="cls-31" d="m544.58,186.17l.07-2.8c0-.05-.05-.09-.07-.15V.44H47.82v182.79c-.01.05-.07.09-.07.15l.07,1.94v3.2h.11l1.14,34.21c.01.33.32.6.7.6h36.05c.39,0,.7-.28.7-.62v-29.19h219.17v29.19c0,.34.31.62.7.62h236.66c.38,0,.69-.27.7-.6l.79-34.21h.06v-2.35Z"/>
          <g>
            <g class="cls-32">
              <g>
                <path class="cls-9" d="m229.47,98.1l-128.27-1.11c-1.27-.01-2.29.66-2.3,1.5l-.93,43.37c-.04.83.98,1.53,2.24,1.53l128.27,1.11c1.24.01,2.28-.66,2.3-1.5l.91-43.37c.02-.83-.98-1.52-2.22-1.53Z"/>
                <path class="cls-9" d="m86.18,47.77v7.57h.15l6.92,17.67h74.4c-.06.36-.18.7-.18,1.07,0,6,7.91,10.87,17.69,10.87s17.69-4.87,17.69-10.87c0-.37-.12-.71-.18-1.07h71.56l9.71-17.67h.2v-7.57H86.18Z"/>
                <path class="cls-9" d="m255.83,116.38c-6.67,0-12.07,6.87-12.07,15.34s5.4,15.35,12.07,15.35,12.07-6.87,12.07-15.35-5.41-15.34-12.07-15.34Z"/>
                <path class="cls-9" d="m282.33,89.8l-8.28-3.88-1.9,3.18h0s-.34.58-.34.58c-1.43,2.39-.41,5.35,2.3,6.62,2.7,1.26,6.06.35,7.49-2.04l2.25-3.75-1.51-.71h0Z"/>
                <path class="cls-9" d="m258.53,90.51l.94-.83,1.55,1.37-.94.83-1.56-1.38Zm-1.41-4.7l-3.15,2.83-1.04-.9-7.12,6.39c-2.15,1.93-2.12,5.03.07,6.92,2.17,1.89,5.68,1.87,7.83-.06l7.12-6.39-.9-.78h0l-.07-.06,3.15-2.82-5.89-5.12Zm-.06,1.75l1.56,1.37-.94.83-1.56-1.38.94-.82Z"/>
              </g>
              <g>
                <path class="cls-46" d="m231.24,97.27l-128.27-1.11c-1.27-.01-2.29.66-2.3,1.5l-.93,43.37c-.04.83.98,1.53,2.24,1.53l128.27,1.11c1.24.01,2.28-.66,2.3-1.5l.91-43.37c.02-.83-.98-1.52-2.22-1.53Z"/>
                <path class="cls-46" d="m87.95,46.94v7.57h.15l6.92,17.67h74.4c-.06.36-.18.7-.18,1.07,0,6,7.91,10.87,17.69,10.87s17.69-4.87,17.69-10.87c0-.37-.12-.71-.18-1.07h71.56l9.71-17.67h.2v-7.57H87.95Z"/>
                <path class="cls-46" d="m257.6,115.55c-6.67,0-12.07,6.87-12.07,15.34s5.4,15.35,12.07,15.35,12.07-6.87,12.07-15.35-5.41-15.34-12.07-15.34Z"/>
                <path class="cls-46" d="m284.1,88.97l-8.28-3.88-1.9,3.18h0s-.34.58-.34.58c-1.43,2.39-.41,5.35,2.3,6.62,2.7,1.26,6.06.35,7.49-2.04l2.25-3.75-1.51-.71h0Z"/>
                <path class="cls-46" d="m260.3,89.68l.94-.83,1.55,1.37-.94.83-1.56-1.38Zm-1.41-4.7l-3.15,2.83-1.04-.9-7.12,6.39c-2.15,1.93-2.12,5.03.07,6.92,2.17,1.89,5.68,1.87,7.83-.06l7.12-6.39-.9-.78h0l-.07-.06,3.15-2.82-5.89-5.12Zm-.06,1.75l1.56,1.37-.94.83-1.56-1.37.94-.82Z"/>
              </g>
              <g>
                <path class="cls-41" d="m233.01,96.44l-128.27-1.11c-1.27-.01-2.29.66-2.3,1.5l-.93,43.37c-.04.83.98,1.53,2.24,1.53l128.27,1.11c1.24.01,2.28-.66,2.3-1.5l.91-43.37c.02-.83-.98-1.52-2.22-1.53Z"/>
                <path class="cls-41" d="m89.72,46.11v7.57h.15l6.92,17.67h74.4c-.06.36-.18.7-.18,1.07,0,6,7.91,10.87,17.69,10.87s17.69-4.87,17.69-10.87c0-.37-.12-.71-.18-1.07h71.56l9.71-17.67h.2v-7.57H89.72Z"/>
                <path class="cls-41" d="m259.37,114.72c-6.67,0-12.07,6.87-12.07,15.34s5.4,15.35,12.07,15.35,12.07-6.87,12.07-15.35-5.41-15.34-12.07-15.34Z"/>
                <path class="cls-41" d="m285.88,88.14l-8.28-3.88-1.9,3.18h0s-.34.58-.34.58c-1.43,2.39-.41,5.35,2.3,6.62,2.7,1.26,6.06.35,7.49-2.04l2.25-3.75-1.51-.71h0Z"/>
                <path class="cls-41" d="m262.07,88.85l.94-.83,1.55,1.37-.94.83-1.56-1.38Zm-1.41-4.7l-3.15,2.83-1.04-.9-7.12,6.39c-2.15,1.93-2.12,5.03.07,6.92,2.17,1.89,5.68,1.87,7.83-.06l7.12-6.39-.9-.78h0l-.07-.06,3.15-2.82-5.89-5.12Zm-.06,1.75l1.56,1.37-.94.83-1.56-1.37.94-.83Z"/>
              </g>
              <g>
                <path class="cls-14" d="m234.78,95.6l-128.27-1.11c-1.27-.01-2.29.66-2.3,1.5l-.93,43.37c-.04.83.98,1.53,2.24,1.53l128.27,1.11c1.24.01,2.28-.66,2.3-1.5l.91-43.37c.02-.83-.98-1.52-2.22-1.53Z"/>
                <path class="cls-14" d="m91.49,45.28v7.57h.15l6.92,17.67h74.4c-.06.36-.18.7-.18,1.07,0,6,7.91,10.87,17.69,10.87s17.68-4.87,17.68-10.87c0-.37-.12-.71-.18-1.07h71.56l9.71-17.67h.2v-7.57H91.49Z"/>
                <path class="cls-14" d="m261.15,113.89c-6.67,0-12.07,6.87-12.07,15.34s5.4,15.35,12.07,15.35,12.07-6.87,12.07-15.35-5.41-15.34-12.07-15.34Z"/>
                <path class="cls-14" d="m287.65,87.31l-8.28-3.88-1.9,3.18h0s-.34.58-.34.58c-1.43,2.39-.41,5.35,2.3,6.62,2.7,1.26,6.06.35,7.49-2.04l2.25-3.76-1.51-.71h0Z"/>
                <path class="cls-14" d="m263.85,88.01l.94-.83,1.55,1.37-.94.83-1.56-1.38Zm-1.41-4.7l-3.15,2.83-1.04-.9-7.12,6.39c-2.15,1.93-2.12,5.03.07,6.92,2.17,1.89,5.68,1.87,7.83-.06l7.12-6.39-.9-.79h0l-.06-.06,3.15-2.82-5.89-5.12Zm-.06,1.75l1.56,1.37-.94.83-1.56-1.37.94-.83Z"/>
              </g>
              <g>
                <path class="cls-45" d="m236.55,94.77l-128.27-1.11c-1.27-.01-2.29.66-2.3,1.5l-.93,43.37c-.04.83.98,1.53,2.23,1.53l128.27,1.11c1.24.02,2.28-.66,2.3-1.5l.91-43.37c.02-.83-.98-1.52-2.22-1.53Z"/>
                <path class="cls-45" d="m93.27,44.45v7.56h.15l6.92,17.67h74.4c-.06.36-.18.7-.18,1.07,0,6,7.91,10.87,17.69,10.87s17.68-4.87,17.68-10.87c0-.37-.12-.71-.18-1.07h71.56l9.71-17.67h.2v-7.57H93.27Z"/>
                <path class="cls-45" d="m262.92,113.05c-6.67,0-12.07,6.87-12.07,15.35s5.4,15.35,12.07,15.35,12.07-6.87,12.07-15.35-5.4-15.35-12.07-15.35Z"/>
                <path class="cls-45" d="m289.42,86.48l-8.28-3.88-1.9,3.18h0s-.34.58-.34.58c-1.43,2.39-.41,5.35,2.3,6.62,2.7,1.26,6.06.35,7.49-2.04l2.25-3.76-1.51-.71h0Z"/>
                <path class="cls-45" d="m265.62,87.18l.94-.83,1.55,1.37-.94.83-1.56-1.38Zm-1.41-4.7l-3.15,2.83-1.04-.9-7.12,6.39c-2.15,1.93-2.12,5.03.07,6.92,2.17,1.89,5.68,1.87,7.83-.06l7.12-6.39-.9-.79h0l-.06-.06,3.15-2.82-5.89-5.12Zm-.06,1.75l1.56,1.37-.94.83-1.56-1.37.94-.83Z"/>
              </g>
              <g>
                <path class="cls-43" d="m238.32,93.94l-128.27-1.11c-1.27-.01-2.29.66-2.3,1.5l-.93,43.37c-.04.84.98,1.53,2.23,1.53l128.27,1.11c1.24.02,2.28-.66,2.3-1.5l.91-43.37c.02-.83-.98-1.52-2.22-1.53Z"/>
                <path class="cls-43" d="m95.04,43.61v7.56h.15l6.92,17.67h74.4c-.06.36-.18.71-.18,1.07,0,6,7.91,10.87,17.69,10.87s17.68-4.87,17.68-10.87c0-.37-.12-.71-.18-1.07h71.56l9.71-17.67h.2v-7.57H95.04Z"/>
                <path class="cls-43" d="m264.69,112.22c-6.67,0-12.07,6.87-12.07,15.35s5.4,15.35,12.07,15.35,12.07-6.87,12.07-15.35-5.4-15.35-12.07-15.35Z"/>
                <path class="cls-43" d="m291.19,85.64l-8.28-3.88-1.9,3.18h0s-.34.58-.34.58c-1.43,2.39-.41,5.35,2.3,6.62,2.7,1.26,6.06.35,7.49-2.04l2.25-3.76-1.51-.71h0Z"/>
                <path class="cls-43" d="m267.39,86.35l.94-.83,1.55,1.37-.94.83-1.56-1.38Zm-1.41-4.7l-3.15,2.83-1.04-.9-7.12,6.39c-2.15,1.93-2.12,5.03.07,6.92,2.17,1.89,5.68,1.87,7.83-.06l7.12-6.39-.91-.79h0l-.06-.06,3.15-2.82-5.89-5.12Zm-.06,1.75l1.56,1.37-.94.83-1.56-1.37.94-.83Z"/>
              </g>
              <g>
                <path class="cls-27" d="m240.1,93.11l-128.27-1.11c-1.27-.01-2.28.66-2.3,1.5l-.93,43.37c-.04.84.98,1.53,2.23,1.53l128.27,1.11c1.24.02,2.28-.66,2.31-1.5l.91-43.37c.02-.83-.98-1.52-2.22-1.53Z"/>
                <path class="cls-27" d="m96.81,42.78v7.56h.15l6.92,17.67h74.4c-.06.36-.17.71-.17,1.07,0,6,7.91,10.87,17.69,10.87s17.68-4.87,17.68-10.87c0-.37-.12-.71-.18-1.07h71.56l9.71-17.67h.21v-7.57H96.81Z"/>
                <path class="cls-27" d="m266.46,111.39c-6.67,0-12.07,6.87-12.07,15.35s5.4,15.35,12.07,15.35,12.07-6.87,12.07-15.35-5.4-15.35-12.07-15.35Z"/>
                <path class="cls-27" d="m292.96,84.81l-8.28-3.88-1.9,3.18h0s-.34.58-.34.58c-1.43,2.39-.41,5.35,2.3,6.62,2.7,1.26,6.06.35,7.49-2.04l2.25-3.76-1.51-.71h0Z"/>
                <path class="cls-27" d="m269.16,85.52l.94-.83,1.55,1.37-.94.83-1.56-1.38Zm-1.41-4.7l-3.15,2.83-1.04-.9-7.12,6.39c-2.15,1.93-2.12,5.03.07,6.92,2.17,1.89,5.68,1.87,7.83-.06l7.12-6.39-.91-.79h0l-.06-.06,3.15-2.82-5.89-5.12Zm-.06,1.75l1.56,1.37-.94.83-1.56-1.37.94-.83Z"/>
              </g>
              <g>
                <path class="cls-22" d="m241.87,92.27l-128.27-1.11c-1.27-.01-2.28.66-2.3,1.5l-.92,43.37c-.04.84.98,1.53,2.23,1.53l128.27,1.11c1.24.02,2.28-.66,2.31-1.5l.91-43.37c.02-.83-.98-1.52-2.22-1.53Z"/>
                <path class="cls-22" d="m98.58,41.95v7.56h.15l6.92,17.67h74.4c-.06.36-.17.71-.17,1.07,0,6,7.91,10.87,17.69,10.87s17.68-4.87,17.68-10.87c0-.37-.12-.72-.17-1.07h71.56l9.7-17.67h.21v-7.57H98.58Z"/>
                <path class="cls-22" d="m268.23,110.56c-6.67,0-12.07,6.87-12.07,15.35s5.4,15.35,12.07,15.35,12.07-6.87,12.07-15.35-5.4-15.35-12.07-15.35Z"/>
                <path class="cls-22" d="m294.73,83.98l-8.28-3.88-1.91,3.18h0s-.34.58-.34.58c-1.43,2.39-.41,5.35,2.3,6.62,2.7,1.26,6.06.35,7.49-2.04l2.25-3.76-1.51-.7h0Z"/>
                <path class="cls-22" d="m270.93,84.68l.94-.83,1.56,1.37-.94.83-1.56-1.38Zm-1.41-4.7l-3.15,2.83-1.04-.9-7.12,6.39c-2.15,1.93-2.12,5.03.07,6.92,2.17,1.89,5.68,1.87,7.83-.06l7.12-6.39-.91-.79h0l-.06-.06,3.15-2.83-5.89-5.12Zm-.06,1.75l1.56,1.37-.94.83-1.56-1.37.94-.83Z"/>
              </g>
              <g>
                <path class="cls-25" d="m243.64,91.44l-128.27-1.11c-1.27-.01-2.28.66-2.3,1.5l-.92,43.37c-.04.84.98,1.53,2.23,1.53l128.27,1.11c1.24.02,2.28-.66,2.31-1.5l.91-43.37c.02-.83-.98-1.52-2.22-1.53Z"/>
                <path class="cls-25" d="m100.35,41.12v7.56h.15l6.92,17.67h74.4c-.06.36-.17.71-.17,1.07,0,6,7.91,10.86,17.69,10.86s17.68-4.87,17.68-10.86c0-.37-.12-.72-.17-1.07h71.56l9.7-17.67h.21v-7.57H100.35Z"/>
                <path class="cls-25" d="m270,109.72c-6.67,0-12.07,6.87-12.07,15.35s5.41,15.34,12.07,15.34,12.07-6.87,12.07-15.34-5.4-15.35-12.07-15.35Z"/>
                <path class="cls-25" d="m296.5,83.15l-8.28-3.88-1.91,3.18h0s-.34.58-.34.58c-1.43,2.39-.41,5.35,2.3,6.62,2.7,1.26,6.06.35,7.49-2.04l2.25-3.76-1.51-.7h0Z"/>
                <path class="cls-25" d="m272.7,83.85l.94-.83,1.56,1.37-.94.83-1.56-1.38Zm-1.41-4.7l-3.15,2.83-1.04-.9-7.12,6.39c-2.15,1.93-2.12,5.03.07,6.92,2.17,1.89,5.68,1.87,7.83-.05l7.12-6.39-.91-.79h0l-.06-.05,3.15-2.83-5.89-5.12Zm-.06,1.75l1.56,1.37-.94.83-1.56-1.37.94-.83Z"/>
              </g>
              <g>
                <path class="cls-21" d="m245.41,90.61l-128.27-1.11c-1.27,0-2.28.66-2.3,1.5l-.92,43.37c-.04.84.98,1.53,2.23,1.53l128.27,1.11c1.24.02,2.28-.66,2.31-1.5l.91-43.37c.02-.83-.98-1.52-2.22-1.53Z"/>
                <path class="cls-21" d="m102.12,40.29v7.56h.15l6.92,17.67h74.4c-.06.36-.17.71-.17,1.07,0,6,7.91,10.86,17.69,10.86s17.68-4.87,17.68-10.86c0-.37-.12-.72-.17-1.07h71.56l9.7-17.67h.21v-7.57H102.12Z"/>
                <path class="cls-21" d="m271.77,108.89c-6.67,0-12.07,6.87-12.07,15.35s5.41,15.34,12.07,15.34,12.07-6.87,12.07-15.34-5.4-15.35-12.07-15.35Z"/>
                <path class="cls-21" d="m298.28,82.32l-8.28-3.88-1.91,3.18h0s-.34.58-.34.58c-1.43,2.39-.41,5.35,2.3,6.62,2.7,1.26,6.06.35,7.49-2.03l2.25-3.76-1.51-.7h0Z"/>
                <path class="cls-21" d="m274.47,83.02l.94-.83,1.56,1.37-.94.83-1.56-1.38Zm-1.41-4.7l-3.15,2.83-1.04-.9-7.12,6.39c-2.15,1.93-2.12,5.03.07,6.92,2.17,1.89,5.68,1.87,7.83-.05l7.12-6.39-.91-.79h0l-.06-.05,3.15-2.83-5.89-5.12Zm-.06,1.75l1.56,1.37-.94.83-1.56-1.37.94-.83Z"/>
              </g>
              <g>
                <path class="cls-5" d="m247.18,89.78l-128.27-1.11c-1.27,0-2.28.66-2.3,1.5l-.92,43.37c-.04.84.98,1.53,2.23,1.53l128.27,1.11c1.24.02,2.28-.66,2.31-1.5l.91-43.37c.02-.83-.98-1.52-2.22-1.53Z"/>
                <path class="cls-5" d="m103.89,39.45v7.56h.15l6.92,17.67h74.4c-.06.36-.17.71-.17,1.07,0,6,7.91,10.86,17.69,10.86s17.68-4.87,17.68-10.86c0-.37-.12-.72-.17-1.07h71.56l9.7-17.67h.21v-7.57H103.89Z"/>
                <path class="cls-5" d="m273.54,108.06c-6.66,0-12.07,6.87-12.07,15.35s5.41,15.34,12.07,15.34,12.07-6.87,12.07-15.34-5.4-15.35-12.07-15.35Z"/>
                <path class="cls-5" d="m300.05,81.48l-8.28-3.88-1.91,3.18h0s-.34.58-.34.58c-1.43,2.39-.41,5.35,2.3,6.62,2.7,1.26,6.06.35,7.49-2.03l2.25-3.76-1.51-.7h0Z"/>
                <path class="cls-5" d="m276.25,82.19l.94-.83,1.56,1.37-.94.83-1.56-1.38Zm-1.41-4.7l-3.15,2.83-1.04-.9-7.12,6.39c-2.15,1.93-2.12,5.03.07,6.92,2.18,1.89,5.69,1.87,7.83-.05l7.12-6.39-.91-.79h0l-.06-.05,3.15-2.83-5.89-5.12Zm-.06,1.75l1.56,1.37-.94.82-1.56-1.37.94-.83Z"/>
              </g>
              <g>
                <path class="cls-4" d="m248.95,88.94l-128.27-1.11c-1.27,0-2.28.66-2.3,1.5l-.92,43.37c-.04.84.98,1.53,2.23,1.53l128.27,1.11c1.24.02,2.28-.66,2.31-1.5l.91-43.37c.02-.83-.98-1.52-2.22-1.53Z"/>
                <path class="cls-4" d="m105.67,38.62v7.56h.15l6.92,17.67h74.4c-.06.36-.17.71-.17,1.08,0,6,7.91,10.86,17.69,10.86s17.68-4.87,17.68-10.86c0-.37-.12-.72-.17-1.08h71.56l9.7-17.67h.21v-7.57H105.67Z"/>
                <path class="cls-4" d="m275.31,107.23c-6.66,0-12.07,6.87-12.07,15.35s5.41,15.34,12.07,15.34,12.07-6.87,12.07-15.34-5.4-15.35-12.07-15.35Z"/>
                <path class="cls-4" d="m301.82,80.65l-8.28-3.88-1.91,3.18h0s-.34.58-.34.58c-1.43,2.39-.41,5.35,2.3,6.62,2.7,1.26,6.06.35,7.49-2.03l2.25-3.76-1.51-.7h0Z"/>
                <path class="cls-4" d="m278.02,81.35l.94-.83,1.56,1.37-.94.83-1.56-1.38Zm-1.41-4.7l-3.15,2.83-1.04-.9-7.12,6.39c-2.15,1.93-2.11,5.03.07,6.92,2.18,1.89,5.69,1.87,7.83-.05l7.12-6.39-.91-.79h0l-.06-.05,3.15-2.83-5.89-5.12Zm-.06,1.75l1.56,1.38-.94.82-1.56-1.37.94-.83Z"/>
              </g>
            </g>
            <g>
              <path class="cls-2" d="m117.46,132.71c-.04.84.98,1.53,2.23,1.53l128.27,1.11c1.24.02,2.28-.66,2.31-1.5l.91-43.37c.02-.83-.98-1.52-2.22-1.53l-128.27-1.11c-1.27,0-2.28.66-2.3,1.5l-.92,43.37Z"/>
              <g>
                <polygon class="cls-9" points="237.04 97.5 244.01 97.56 244.07 95.22 237.09 95.16 237.04 97.5"/>
                <polygon class="cls-9" points="228.43 97.43 235.39 97.49 235.45 95.14 228.48 95.09 228.43 97.43"/>
                <polygon class="cls-9" points="219.81 97.35 226.77 97.42 226.82 95.07 219.85 95 219.81 97.35"/>
                <polygon class="cls-9" points="211.19 97.28 218.17 97.34 218.21 94.99 211.22 94.93 211.19 97.28"/>
                <polygon class="cls-9" points="202.57 97.2 209.53 97.25 209.58 94.91 202.6 94.86 202.57 97.2"/>
                <polygon class="cls-9" points="193.96 97.12 200.92 97.19 200.96 94.85 193.98 94.78 193.96 97.12"/>
                <polygon class="cls-9" points="185.31 97.05 192.3 97.11 192.33 94.77 185.38 94.72 185.31 97.05"/>
                <polygon class="cls-9" points="176.71 96.98 183.67 97.04 183.72 94.7 176.74 94.64 176.71 96.98"/>
                <polygon class="cls-9" points="168.09 96.9 175.06 96.96 175.08 94.63 168.12 94.57 168.09 96.9"/>
                <polygon class="cls-9" points="159.46 96.83 166.43 96.89 166.48 94.55 159.5 94.49 159.46 96.83"/>
                <polygon class="cls-9" points="150.85 96.77 157.81 96.82 157.86 94.48 150.89 94.41 150.85 96.77"/>
                <polygon class="cls-9" points="142.22 96.68 149.19 96.75 149.23 94.4 142.27 94.34 142.22 96.68"/>
                <polygon class="cls-9" points="133.6 96.61 140.57 96.66 140.62 94.32 133.64 94.27 133.6 96.61"/>
                <polygon class="cls-9" points="124.97 96.54 131.95 96.59 131.99 94.26 125.03 94.19 124.97 96.54"/>
              </g>
              <g>
                <polygon class="cls-9" points="232.46 111.97 243.74 112.06 243.83 107.38 232.54 107.29 232.46 111.97"/>
                <polygon class="cls-9" points="223.85 111.89 230.8 111.97 230.9 107.28 223.93 107.21 223.85 111.89"/>
                <polygon class="cls-9" points="215.21 111.83 222.18 111.89 222.29 107.2 215.31 107.14 215.21 111.83"/>
                <polygon class="cls-9" points="206.6 111.76 213.57 111.81 213.66 107.14 206.68 107.06 206.6 111.76"/>
                <polygon class="cls-9" points="197.98 111.69 204.96 111.75 205.04 107.05 198.06 106.99 197.98 111.69"/>
                <polygon class="cls-9" points="189.37 111.6 196.33 111.66 196.41 106.98 189.45 106.93 189.37 111.6"/>
                <polygon class="cls-9" points="180.74 111.54 187.7 111.58 187.8 106.91 180.83 106.85 180.74 111.54"/>
                <polygon class="cls-9" points="172.12 111.46 179.08 111.52 179.18 106.82 172.2 106.78 172.12 111.46"/>
                <polygon class="cls-9" points="163.49 111.37 170.46 111.45 170.55 106.76 163.59 106.7 163.49 111.37"/>
                <polygon class="cls-9" points="154.87 111.31 161.84 111.37 161.94 106.68 154.97 106.61 154.87 111.31"/>
                <polygon class="cls-9" points="146.25 111.23 153.22 111.29 153.31 106.61 146.34 106.55 146.25 111.23"/>
                <polygon class="cls-9" points="124.72 111.05 144.6 111.22 144.68 106.53 124.8 106.36 124.72 111.05"/>
              </g>
              <g>
                <polygon class="cls-9" points="232.22 124.79 243.49 124.88 243.58 120.2 232.3 120.1 232.22 124.79"/>
                <polygon class="cls-9" points="223.6 124.71 230.58 124.77 230.65 120.08 223.69 120.03 223.6 124.71"/>
                <polygon class="cls-9" points="214.97 124.63 221.94 124.7 222.03 120.01 215.08 119.95 214.97 124.63"/>
                <polygon class="cls-9" points="206.35 124.56 213.33 124.62 213.42 119.94 206.44 119.87 206.35 124.56"/>
                <polygon class="cls-9" points="197.75 124.49 204.71 124.56 204.81 119.86 197.82 119.8 197.75 124.49"/>
                <polygon class="cls-9" points="189.12 124.42 196.09 124.47 196.17 119.79 189.2 119.73 189.12 124.42"/>
                <polygon class="cls-9" points="180.5 124.34 187.47 124.41 187.56 119.72 180.58 119.66 180.5 124.34"/>
                <polygon class="cls-9" points="171.87 124.26 178.84 124.33 178.93 119.64 171.95 119.58 171.87 124.26"/>
                <polygon class="cls-9" points="163.25 124.19 170.22 124.25 170.32 119.57 163.34 119.51 163.25 124.19"/>
                <polygon class="cls-9" points="154.63 124.12 161.6 124.17 161.69 119.49 154.73 119.43 154.63 124.12"/>
                <polygon class="cls-9" points="146.01 124.04 152.98 124.1 153.07 119.42 146.09 119.37 146.01 124.04"/>
                <polygon class="cls-9" points="124.47 123.86 144.36 124.03 144.45 119.34 124.56 119.17 124.47 123.86"/>
              </g>
              <g>
                <polygon class="cls-9" points="236.9 105.6 243.87 105.67 243.95 100.98 236.97 100.92 236.9 105.6"/>
                <polygon class="cls-9" points="228.28 105.53 235.24 105.6 235.33 100.91 228.37 100.84 228.28 105.53"/>
                <polygon class="cls-9" points="219.66 105.47 226.62 105.51 226.72 100.84 219.73 100.78 219.66 105.47"/>
                <polygon class="cls-9" points="211.03 105.37 218.01 105.44 218.1 100.76 211.12 100.7 211.03 105.37"/>
                <polygon class="cls-9" points="202.42 105.32 209.37 105.37 209.47 100.69 202.5 100.63 202.42 105.32"/>
                <polygon class="cls-9" points="193.8 105.24 200.77 105.29 200.85 100.62 193.89 100.56 193.8 105.24"/>
                <polygon class="cls-9" points="185.16 105.17 192.15 105.21 192.24 100.54 185.26 100.47 185.16 105.17"/>
                <polygon class="cls-9" points="176.55 105.09 183.52 105.15 183.59 100.46 176.64 100.41 176.55 105.09"/>
                <polygon class="cls-9" points="167.92 105.02 174.89 105.07 174.98 100.38 168.01 100.33 167.92 105.02"/>
                <polygon class="cls-9" points="159.3 104.94 166.27 105 166.37 100.31 159.39 100.26 159.3 104.94"/>
                <polygon class="cls-9" points="150.69 104.86 157.64 104.93 157.75 100.24 150.78 100.18 150.69 104.86"/>
                <polygon class="cls-9" points="142.07 104.79 149.04 104.85 149.13 100.17 142.15 100.1 142.07 104.79"/>
                <polygon class="cls-9" points="133.45 104.72 140.41 104.78 140.5 100.09 133.54 100.03 133.45 104.72"/>
                <polygon class="cls-9" points="124.83 104.64 140.41 104.78 140.5 100.09 124.9 99.96 124.83 104.64"/>
              </g>
              <g>
                <polygon class="cls-9" points="236.41 131.22 243.37 131.28 243.46 126.6 236.49 126.55 236.41 131.22"/>
                <polygon class="cls-9" points="227.78 131.14 234.75 131.21 234.84 126.53 227.89 126.48 227.78 131.14"/>
                <polygon class="cls-9" points="219.16 131.08 226.13 131.14 226.21 126.45 219.24 126.4 219.16 131.08"/>
                <polygon class="cls-9" points="210.54 131 217.51 131.07 217.6 126.37 210.64 126.33 210.54 131"/>
                <polygon class="cls-9" points="201.92 130.93 208.88 130.98 208.97 126.3 202.01 126.24 201.92 130.93"/>
                <polygon class="cls-9" points="193.28 130.85 200.29 130.91 200.36 126.23 193.39 126.16 193.28 130.85"/>
                <polygon class="cls-9" points="176.07 130.71 183.03 130.76 183.12 126.09 176.15 126.02 176.07 130.71"/>
                <polygon class="cls-9" points="167.43 130.63 174.41 130.69 174.5 126.01 167.54 125.95 167.43 130.63"/>
                <polygon class="cls-9" points="158.81 130.56 165.78 130.62 165.87 125.94 158.91 125.88 158.81 130.56"/>
                <polygon class="cls-9" points="150.2 130.48 157.16 130.53 157.25 125.86 150.29 125.8 150.2 130.48"/>
                <polygon class="cls-9" points="141.57 130.41 148.55 130.48 148.64 125.78 141.67 125.73 141.57 130.41"/>
                <polygon class="cls-9" points="132.95 130.33 139.92 130.4 140.01 125.71 133.04 125.65 132.95 130.33"/>
                <polygon class="cls-9" points="124.34 130.26 131.3 130.32 131.41 125.65 124.42 125.58 124.34 130.26"/>
                <polygon class="cls-9" points="150.2 130.48 217.51 131.07 217.6 126.37 150.29 125.8 150.2 130.48"/>
              </g>
              <g>
                <polygon class="cls-9" points="228.04 118.35 243.61 118.48 243.71 113.78 228.13 113.66 228.04 118.35"/>
                <polygon class="cls-9" points="219.41 118.26 226.37 118.32 226.47 113.64 219.51 113.59 219.41 118.26"/>
                <polygon class="cls-9" points="210.8 118.21 217.75 118.26 217.85 113.57 210.87 113.52 210.8 118.21"/>
                <polygon class="cls-9" points="202.16 118.13 209.14 118.17 209.23 113.5 202.26 113.45 202.16 118.13"/>
                <polygon class="cls-9" points="193.55 118.05 200.52 118.1 200.61 113.43 193.64 113.37 193.55 118.05"/>
                <polygon class="cls-9" points="184.93 117.97 191.9 118.03 191.98 113.35 185.02 113.29 184.93 117.97"/>
                <polygon class="cls-9" points="176.31 117.9 183.27 117.96 183.36 113.27 176.39 113.22 176.31 117.9"/>
                <polygon class="cls-9" points="167.68 117.83 174.65 117.88 174.73 113.2 167.78 113.14 167.68 117.83"/>
                <polygon class="cls-9" points="159.06 117.75 166.03 117.82 166.12 113.12 159.15 113.06 159.06 117.75"/>
                <polygon class="cls-9" points="150.44 117.67 157.4 117.74 157.5 113.05 150.53 112.99 150.44 117.67"/>
                <polygon class="cls-9" points="141.83 117.61 148.8 117.66 148.88 112.98 141.91 112.92 141.83 117.61"/>
                <polygon class="cls-9" points="133.2 117.53 140.16 117.59 140.27 112.9 133.29 112.85 133.2 117.53"/>
                <polygon class="cls-9" points="124.58 117.45 140.16 117.59 140.27 112.9 124.67 112.77 124.58 117.45"/>
              </g>
            </g>
            <g>
              <polygon class="cls-9" points="303.63 38.61 303.63 46.18 105.67 46.18 105.67 38.62 303.63 38.61"/>
              <path class="cls-42" d="m186.96,64.93c0-5.99,7.92-10.85,17.69-10.85s17.68,4.87,17.68,10.85-7.92,10.86-17.68,10.86-17.69-4.87-17.69-10.86Z"/>
              <path class="cls-4" d="m190.13,62.46c0-4.92,6.5-8.91,14.53-8.91s14.52,3.99,14.52,8.91-6.5,8.91-14.52,8.91-14.52-3.99-14.52-8.91Z"/>
              <polygon class="cls-42" points="303.63 45.81 293.72 63.86 112.73 63.86 105.67 45.81 303.63 45.81"/>
              <polygon class="cls-30" points="296.08 48.49 289.45 60.27 117.46 60.27 113.21 48.49 296.08 48.49"/>
            </g>
            <g>
              <g>
                <path class="cls-42" d="m287.38,122.57c0,8.47-5.4,15.34-12.07,15.34s-12.07-6.87-12.07-15.34,5.41-15.35,12.07-15.35,12.07,6.87,12.07,15.35Z"/>
                <ellipse class="cls-4" cx="274.93" cy="122.03" rx="10.94" ry="13.91"/>
                <path class="cls-47" d="m282.06,120.44c0,5.98-3.81,10.82-8.51,10.82s-8.51-4.84-8.51-10.82,3.81-10.82,8.51-10.82,8.51,4.84,8.51,10.82Z"/>
              </g>
              <rect class="cls-7" x="274.93" y="107.8" width=".78" height="6.05"/>
              <path class="cls-30" d="m276.71,122.35c0,.68-.63,1.23-1.4,1.23h0c-.77,0-1.39-.56-1.39-1.23v-7.83c0-.68.62-1.23,1.39-1.23h0c.77,0,1.4.55,1.4,1.23v7.83Z"/>
            </g>
            <g>
              <path class="cls-13" d="m347.05,113.09c-3.91,3.45-3.91,9.08,0,12.53,3.92,3.45,10.29,3.45,14.19,0,3.92-3.45,3.92-9.08,0-12.53-3.91-3.45-10.28-3.45-14.19,0Zm10.45,9.23c-1.85,1.64-4.85,1.64-6.71,0-1.85-1.64-1.85-4.29,0-5.93,1.86-1.64,4.87-1.64,6.71,0,1.86,1.64,1.86,4.29,0,5.93Z"/>
              <path class="cls-1" d="m346.47,112.56c-4.24,3.75-4.24,9.83,0,13.58,4.23,3.75,11.12,3.75,15.37,0,4.24-3.75,4.24-9.83,0-13.58-4.25-3.74-11.14-3.74-15.37,0Zm15.07,13.32c-4.08,3.61-10.7,3.61-14.77,0-4.08-3.61-4.08-9.45,0-13.05,4.08-3.61,10.7-3.61,14.77,0,4.09,3.61,4.09,9.45,0,13.05Z"/>
              <path class="cls-23" d="m346.77,112.83c-4.08,3.61-4.08,9.45,0,13.05,4.08,3.61,10.7,3.61,14.77,0,4.09-3.61,4.09-9.45,0-13.05-4.08-3.61-10.7-3.61-14.77,0Zm14.48,12.79c-3.91,3.45-10.28,3.45-14.19,0-3.91-3.45-3.91-9.08,0-12.53,3.92-3.45,10.29-3.45,14.19,0,3.92,3.45,3.92,9.08,0,12.53Z"/>
              <path class="cls-28" d="m363.63,124.04c2.31-3.66,1.72-8.37-1.79-11.48-3.52-3.1-8.86-3.62-12.99-1.58l5.36,8.33,9.43,4.73Z"/>
              <path class="cls-28" d="m344.68,114.67c-2.31,3.65-1.72,8.37,1.8,11.47,3.51,3.1,8.86,3.63,12.98,1.58l-5.35-8.33-9.43-4.72Z"/>
              <path class="cls-36" d="m372.68,102.99c-8.51-7.52-21.4-8.76-31.39-3.78l7.56,11.77c4.14-2.04,9.47-1.52,12.99,1.58,3.51,3.11,4.1,7.82,1.79,11.48l13.32,6.68c5.64-8.83,4.23-20.21-4.28-27.73Z"/>
              <path class="cls-36" d="m346.47,126.14c-3.52-3.1-4.11-7.82-1.8-11.47l-13.32-6.68c-5.64,8.82-4.23,20.21,4.28,27.73,8.51,7.52,21.41,8.76,31.39,3.78l-7.57-11.77c-4.13,2.05-9.47,1.52-12.98-1.58Z"/>
              <path class="cls-37" d="m361.84,126.14c-.74.64-1.54,1.16-2.39,1.58l7.57,11.77c2.02-1.01,3.94-2.25,5.66-3.78,1.72-1.52,3.12-3.21,4.28-5l-13.32-6.68c-.48.75-1.07,1.46-1.79,2.1Z"/>
              <path class="cls-37" d="m346.47,112.56c.72-.64,1.53-1.16,2.38-1.58l-7.56-11.77c-2.02,1.01-3.94,2.25-5.66,3.78-1.72,1.52-3.14,3.21-4.28,5l13.32,6.68c.48-.76,1.07-1.47,1.8-2.11Z"/>
              <polygon class="cls-37" points="354.21 119.31 353.98 119.2 354.1 119.39 354.33 119.51 354.21 119.31"/>
            </g>
            <g>
              <path class="cls-33" d="m293.58,87.15c2.7,1.26,6.06.35,7.49-2.03l2.25-3.76-9.79-4.58-2.25,3.75c-1.43,2.39-.41,5.35,2.3,6.62Z"/>
              <path class="cls-42" d="m293.58,87.15c2.7,1.26,6.06.35,7.49-2.03l2.25-3.76-9.79-4.58-2.25,3.75c-1.43,2.39-.41,5.35,2.3,6.62Z"/>
              <path class="cls-47" d="m293.58,85.54c2.29,1.08,5.12.3,6.33-1.72l1.91-3.18-8.28-3.88-1.91,3.18c-1.21,2.02-.34,4.52,1.95,5.59Z"/>
            </g>
            <g>
              <g>
                <path class="cls-37" d="m282.5,81.77l-5.89-5.12-5.11,4.59,5.89,5.12,5.11-4.59Zm-5.33-1.16l-1.56-1.38.94-.83,1.56,1.38-.94.83Zm2.4,2.12l-1.56-1.38.94-.83,1.56,1.37-.94.83Z"/>
                <g>
                  <path class="cls-42" d="m265.3,84.97c-2.15,1.93-2.11,5.03.07,6.92,2.18,1.89,5.69,1.87,7.83-.05l7.12-6.39-7.9-6.86-7.12,6.39Z"/>
                  <path class="cls-47" d="m266.12,84.24c-1.9,1.71-1.88,4.45.06,6.12,1.93,1.68,5.03,1.66,6.93-.05l6.3-5.66-6.99-6.07-6.3,5.66Z"/>
                </g>
              </g>
              <path class="cls-9" d="m271.49,90.64c-1.33,1.18-3.5,1.18-4.83,0-1.34-1.18-1.34-3.1,0-4.27,1.33-1.18,3.5-1.18,4.83,0,1.34,1.18,1.34,3.1,0,4.27Z"/>
            </g>
          </g>
        </g>
      </g>
    </g>
  </g>
</svg>