<?xml version="1.0" encoding="UTF-8"?>
<svg id="Layer_1" data-name="Layer 1" xmlns="http://www.w3.org/2000/svg" viewBox="0 0 236.55 111.992">
  <defs>
    <style>
      .cls-1, .cls-2 {
        stroke: #a67c52;
      }

      .cls-1, .cls-2, .cls-3, .cls-4 {
        stroke-miterlimit: 10;
      }

      .cls-1, .cls-3 {
        fill: #fff;
      }

      .cls-2, .cls-4 {
        fill: #1d1d1b;
      }

      .cls-3, .cls-4 {
        stroke: #603813;
      }

      .cls-5 {
        opacity: .4;
      }

      .cls-6 {
        opacity: .53;
      }
    </style>
  </defs>
  <g class="cls-5">
    <g>
      <g>
        <path class="cls-1" d="m57.342,105.569c0,2.44,3.066,4.424,6.841,4.424s6.841-1.984,6.841-4.424c0-2.445-3.066-4.429-6.841-4.429-3.775,0-6.841,1.984-6.841,4.429Z"/>
        <path class="cls-2" d="m72.523,105.569c0,3.321-3.664,5.924-8.341,5.924-4.677,0-8.341-2.603-8.341-5.924s3.664-5.929,8.341-5.929c4.677,0,8.341,2.604,8.341,5.929Zm-13.682,0c0,1.383,2.193,2.924,5.341,2.924s5.341-1.541,5.341-2.924c0-1.385-2.193-2.929-5.341-2.929s-5.341,1.544-5.341,2.929Z"/>
      </g>
      <g>
        <rect class="cls-1" x="10.813" y="40.512" width="106.739" height="63.101"/>
        <path class="cls-2" d="m119.051,40.512v63.101c0,.828-.672,1.5-1.5,1.5H10.812c-.828,0-1.5-.672-1.5-1.5v-63.101c0-.828.672-1.5,1.5-1.5h106.739c.828,0,1.5.672,1.5,1.5Zm-3,61.601v-60.101s-103.739,0-103.739,0v60.101s103.739,0,103.739,0Z"/>
      </g>
      <g>
        <rect class="cls-1" x="16.956" y="38.309" width="94.453" height="58.865"/>
        <path class="cls-2" d="m112.909,36.809v61.864H15.456v-61.864h97.453Zm-3,58.864v-55.864s-91.453,0-91.453,0v55.864s91.453,0,91.453,0Z"/>
      </g>
      <g>
        <path class="cls-1" d="m169.273,101.373c0,2.44,3.066,4.423,6.841,4.423s6.841-1.983,6.841-4.423c0-2.445-3.066-4.429-6.841-4.429s-6.841,1.984-6.841,4.429Z"/>
        <path class="cls-2" d="m184.455,101.373c0,3.321-3.664,5.923-8.341,5.923s-8.341-2.602-8.341-5.923,3.664-5.929,8.341-5.929,8.341,2.605,8.341,5.929Zm-13.682,0c0,1.383,2.193,2.923,5.341,2.923s5.341-1.54,5.341-2.923-2.193-2.929-5.341-2.929-5.341,1.544-5.341,2.929Z"/>
      </g>
      <g>
        <rect class="cls-1" x="122.744" y="36.317" width="106.739" height="63.1"/>
        <path class="cls-2" d="m230.983,36.317v63.101c0,.828-.672,1.5-1.5,1.5h-106.739c-.828,0-1.5-.672-1.5-1.5v-63.101c0-.828.672-1.5,1.5-1.5h106.739c.828,0,1.5.672,1.5,1.5Zm-3,61.601v-60.101s-103.739,0-103.739,0v60.101s103.739,0,103.739,0Z"/>
      </g>
      <g>
        <rect class="cls-1" x="128.887" y="29.138" width="94.453" height="58.864"/>
        <path class="cls-2" d="m224.841,29.139v58.863c0,.828-.672,1.5-1.5,1.5h-94.453c-.828,0-1.5-.672-1.5-1.5V29.139c0-.828.672-1.5,1.5-1.5h94.453c.828,0,1.5.672,1.5,1.5Zm-3,57.363V30.639s-91.453,0-91.453,0v55.863s91.453,0,91.453,0Z"/>
      </g>
      <g class="cls-6">
        <rect class="cls-3" x="2.002" y="2.918" width="232.547" height="84.178"/>
        <path class="cls-4" d="m236.05,2.918v84.178c0,.828-.672,1.5-1.5,1.5H2.002c-.828,0-1.5-.672-1.5-1.5V2.918c0-.828.672-1.5,1.5-1.5h232.548c.828,0,1.5.672,1.5,1.5Zm-3,82.678V4.418s-229.548,0-229.548,0v81.178s229.548,0,229.548,0Z"/>
      </g>
    </g>
    <g>
      <line class="cls-1" x1="234.164" y1="2" x2="2.002" y2="88.003"/>
      <path class="cls-2" d="m235.665,2c0,.609-.374,1.183-.979,1.406L2.523,89.408c-.777.288-1.641-.108-1.928-.885-.292-.778.109-1.641.885-1.928L233.643.594c.777-.288,1.641.108,1.928.885.064.172.094.349.094.522Z"/>
    </g>
  </g>
</svg>