<?xml version="1.0" encoding="UTF-8"?>
<svg id="Layer_1" data-name="Layer 1" xmlns="http://www.w3.org/2000/svg" viewBox="0 0 419.887 114.064">
  <defs>
    <style>
      .cls-1 {
        opacity: .51;
      }

      .cls-2, .cls-3, .cls-4, .cls-5 {
        stroke-miterlimit: 10;
      }

      .cls-2, .cls-4 {
        stroke: #754c24;
      }

      .cls-2, .cls-5 {
        fill: #1d1d1b;
      }

      .cls-6 {
        opacity: .39;
      }

      .cls-3, .cls-4 {
        fill: #fff;
      }

      .cls-3, .cls-5 {
        stroke: #c69c6d;
      }
    </style>
  </defs>
  <g class="cls-6">
    <g>
      <g class="cls-1">
        <path class="cls-3" d="m283.5,69.075V29.666h126.125v74.567h-55.817c.531.696.838,1.476.838,2.305,0,2.889-3.623,5.23-8.083,5.23s-8.083-2.34-8.083-5.23c0-.828.307-1.609.838-2.305h-55.817v-34.174s-105.683,32.374-105.683,32.374c.557.473.965,1.052,1.172,1.729.844,2.763-1.935,6.061-6.201,7.369-4.259,1.305-8.414.13-9.258-2.633-.207-.677-.194-1.386.004-2.09l-12.035,3.687-2.896-9.443,132.28-40.517,2.617,8.54Z"/>
        <path class="cls-5" d="m411.125,29.666v74.567c0,.828-.672,1.5-1.5,1.5h-53.549c.046.267.068.535.068.805,0,3.773-4.209,6.729-9.583,6.729s-9.583-2.956-9.583-6.73c0-.27.023-.538.068-.805h-53.547c-.828,0-1.5-.672-1.5-1.5v-32.146s-101.746,31.168-101.746,31.168c.063.152.12.308.169.467,1.1,3.61-2.061,7.667-7.196,9.242-2.334.716-4.734.793-6.759.218-2.258-.641-3.811-2.007-4.373-3.846-.049-.159-.089-.32-.121-.481l-10.035,3.074c-.792.242-1.631-.203-1.873-.995l-2.896-9.443c-.119-.381-.078-.791.108-1.143.187-.351.506-.614.886-.731l132.28-40.517c.577-.177,1.179.012,1.557.433v-29.867c0-.828.672-1.5,1.5-1.5h126.125c.828,0,1.5.672,1.5,1.5Zm-3,73.067V31.166s-123.125,0-123.125,0v37.909c0,.172-.029.338-.083.492.055.156.083.322.083.492v32.674s54.316,0,54.316,0c.57,0,1.092.323,1.345.835.251.511.193,1.121-.152,1.575-.352.461-.53.931-.53,1.394,0,1.764,2.703,3.73,6.583,3.73s6.583-1.966,6.583-3.729c0-.464-.179-.934-.53-1.396-.347-.453-.404-1.065-.15-1.575.253-.511.774-.834,1.344-.834h54.317Zm-231.809-.3c0-.101.01-.202.031-.303.11-.537.505-.971,1.029-1.132l104.525-32.018-2.015-6.572-129.411,39.639,2.017,6.575,10.601-3.248c.524-.16,1.095-.021,1.487.361.392.383.543.953.396,1.478-.125.447-.129.867-.014,1.247.343,1.122,1.603,1.633,2.323,1.837,1.454.413,3.299.34,5.061-.2,3.71-1.138,5.723-3.81,5.206-5.496-.116-.379-.354-.724-.707-1.023-.34-.288-.53-.709-.53-1.145Z"/>
      </g>
      <g class="cls-1">
        <path class="cls-3" d="m338.479,106.538c0,2.889,3.623,5.23,8.083,5.23s8.083-2.34,8.083-5.23-3.623-5.226-8.083-5.226-8.083,2.34-8.083,5.226Z"/>
        <path class="cls-5" d="m356.144,106.538c0,3.773-4.209,6.729-9.583,6.729s-9.583-2.956-9.583-6.73c0-3.772,4.209-6.726,9.583-6.726s9.583,2.954,9.583,6.726Zm-16.166,0c0,1.764,2.703,3.73,6.583,3.73s6.583-1.966,6.583-3.729-2.703-3.726-6.583-3.726-6.583,1.964-6.583,3.726Z"/>
      </g>
      <g class="cls-1">
        <rect class="cls-3" x="283.5" y="29.666" width="126.125" height="74.567"/>
        <path class="cls-5" d="m411.125,29.666v74.567c0,.828-.672,1.5-1.5,1.5h-126.125c-.828,0-1.5-.672-1.5-1.5V29.666c0-.828.672-1.5,1.5-1.5h126.125c.828,0,1.5.672,1.5,1.5Zm-3,73.067V31.166s-123.125,0-123.125,0v71.567s123.125,0,123.125,0Z"/>
      </g>
      <g class="cls-1">
        <rect class="cls-3" x="290.758" y="27.066" width="111.607" height="69.555"/>
        <path class="cls-5" d="m403.866,25.565v72.556h-114.607V25.565h114.607Zm-3,69.556V28.565s-108.607,0-108.607,0v66.556s108.607,0,108.607,0Z"/>
      </g>
      <g class="cls-1">
        <g>
          <path class="cls-3" d="m163.53,108.898c.844,2.762,4.999,3.938,9.258,2.633,4.266-1.308,7.045-4.607,6.201-7.369-.844-2.759-4.993-3.935-9.258-2.629-4.266,1.308-7.045,4.607-6.2,7.366Z"/>
          <path class="cls-5" d="m180.642,105.191c0,3.183-2.967,6.409-7.415,7.773-3.005.922-6.122.768-8.339-.409-1.413-.752-2.379-1.864-2.793-3.219h0c-1.101-3.606,2.059-7.663,7.196-9.238,2.337-.715,4.737-.792,6.761-.218,2.257.64,3.809,2.005,4.371,3.843.147.483.219.975.219,1.468Zm-15.758,2.715c0,.193.026.379.08.554h0c.223.729.847,1.189,1.332,1.446,1.506.8,3.825.873,6.052.19,3.71-1.138,5.723-3.81,5.206-5.496-.343-1.12-1.601-1.63-2.32-1.834-1.453-.412-3.299-.339-5.064.201-3.325,1.018-5.286,3.269-5.286,4.938Zm-1.355.992v-.01.01Z"/>
        </g>
        <g>
          <rect class="cls-3" x="147.017" y="80.577" width="138.345" height="9.875" transform="translate(-15.566 67.071) rotate(-17.031)"/>
          <path class="cls-5" d="m285.275,69.975c0,.243-.059.484-.175.703-.187.352-.506.614-.886.731l-132.276,40.519c-.792.242-1.631-.203-1.873-.995l-2.896-9.443c-.119-.381-.078-.791.108-1.143.187-.351.506-.614.886-.731l132.28-40.517c.792-.242,1.631.203,1.874.995l2.892,9.44c.044.144.065.292.065.44Zm-132.782,38.646l129.408-39.642-2.014-6.572-129.411,39.639,2.017,6.575Z"/>
        </g>
      </g>
      <g class="cls-1">
        <g>
          <path class="cls-3" d="m128.534,87.32c-.338,2.869-4.221,4.762-8.648,4.233-4.428-.533-7.745-3.285-7.402-6.152.338-2.866,4.214-4.759,8.642-4.23,4.434.529,7.746,3.282,7.408,6.149Z"/>
          <path class="cls-5" d="m130.059,86.908c0,.195-.012.391-.035.588h0c-.165,1.405-.917,2.672-2.173,3.661-1.974,1.555-5.018,2.26-8.143,1.886-5.334-.641-9.171-4.065-8.713-7.82.165-1.402.917-2.668,2.173-3.657,1.971-1.553,5.012-2.257,8.136-1.883,5.051.603,8.755,3.715,8.755,7.226Zm-16.097-1.119c0,1.719,2.405,3.831,6.102,4.275,2.316.276,4.589-.207,5.929-1.264.431-.339.963-.901,1.052-1.656h0c.215-1.755-2.246-4.024-6.097-4.483-2.315-.276-4.586.206-5.924,1.261-.431.339-.962.901-1.051,1.655-.008.069-.012.141-.012.212Z"/>
        </g>
        <g>
          <rect class="cls-3" x="67.628" y="4.475" width="9.875" height="138.341" transform="translate(-9.173 136.957) rotate(-83.184)"/>
          <path class="cls-5" d="m143.331,76.949c0,.06-.003.119-.011.18l-1.169,9.808c-.047.395-.249.755-.562,1.001-.314.246-.711.358-1.105.311L3.121,71.828c-.823-.099-1.417-.848-1.312-1.667l1.169-9.804c.047-.394.249-.755.562-1.001.314-.246.711-.357,1.106-.311l137.363,16.416c.763.091,1.322.738,1.322,1.487Zm-3.98,8.142l.813-6.828L5.779,62.202l-.814,6.825,134.385,16.063Z"/>
        </g>
      </g>
      <g class="cls-1">
        <path class="cls-3" d="m113.329,83.491L3.299,70.339l1.169-9.804,137.363,16.416-1.169,9.807-12.503-1.495c.319.658.458,1.353.375,2.056-.338,2.869-4.22,4.762-8.648,4.233-4.428-.533-7.745-3.285-7.402-6.152.083-.703.381-1.346.845-1.91Z"/>
        <path class="cls-5" d="m143.331,76.949c0,.06-.003.119-.011.18l-1.169,9.808c-.047.395-.249.755-.562,1.001-.314.246-.711.358-1.105.311l-10.427-1.247c-.003.165-.015.33-.034.495-.165,1.405-.917,2.672-2.173,3.662-1.973,1.554-5.017,2.259-8.143,1.885-5.335-.643-9.167-4.072-8.713-7.82.02-.165.047-.328.083-.49L3.121,71.828c-.823-.099-1.417-.848-1.312-1.667l1.169-9.804c.047-.394.249-.755.562-1.001.314-.246.711-.358,1.106-.311l137.363,16.416c.763.091,1.322.738,1.322,1.487Zm-3.98,8.142l.813-6.828L5.779,62.202l-.814,6.825,108.541,12.975c.545.064,1.01.422,1.214.93.207.51.114,1.089-.232,1.512-.295.358-.468.74-.515,1.134-.207,1.777,2.24,4.023,6.092,4.487,2.315.276,4.588-.207,5.928-1.263.431-.34.963-.902,1.052-1.657.042-.392-.032-.809-.235-1.227-.24-.492-.191-1.078.128-1.524.318-.447.855-.685,1.399-.619l11.014,1.316Z"/>
      </g>
      <g>
        <rect class="cls-4" x="2" y="2.001" width="415.886" height="68.633"/>
        <path class="cls-2" d="m419.387,2.001v68.633c0,.828-.672,1.5-1.5,1.5H2c-.828,0-1.5-.672-1.5-1.5V2.001c0-.828.672-1.5,1.5-1.5h415.887c.828,0,1.5.672,1.5,1.5Zm-3,67.133V3.501s-412.887,0-412.887,0v65.633s412.887,0,412.887,0Z"/>
      </g>
    </g>
    <g>
      <line class="cls-3" x1="417.887" y1="2.001" x2="2" y2="70.634"/>
      <path class="cls-5" d="m419.387,2.003c0,.721-.522,1.356-1.256,1.478L2.244,72.114c-.817.135-1.589-.419-1.724-1.236-.135-.824.418-1.589,1.235-1.724L417.643.52c.817-.135,1.589.419,1.724,1.236.014.083.02.165.02.246Z"/>
    </g>
  </g>
</svg>