<?xml version="1.0" encoding="UTF-8"?>
<svg id="Layer_1" data-name="Layer 1" xmlns="http://www.w3.org/2000/svg" viewBox="0 0 306.18 263.55">
  <defs>
    <style>
      .cls-1 {
        fill: #fff;
      }

      .cls-2 {
        fill: #231f20;
      }

      .cls-3 {
        fill: #1d1d1b;
      }
    </style>
  </defs>
  <g>
    <rect class="cls-1" x="1.5" y="1.5" width="303.18" height="129.4"/>
    <path class="cls-3" d="m0,130.9V1.5C0,.67.67,0,1.5,0h303.18c.83,0,1.5.67,1.5,1.5v129.4c0,.83-.67,1.5-1.5,1.5H1.5c-.83,0-1.5-.67-1.5-1.5ZM3,3v126.4s300.18,0,300.18,0V3s-300.18,0-300.18,0Z"/>
  </g>
  <g>
    <rect class="cls-1" x="14.44" y="14.1" width="277.29" height="104.2"/>
    <path class="cls-3" d="m12.94,118.3V14.1c0-.83.67-1.5,1.5-1.5h277.29c.83,0,1.5.67,1.5,1.5v104.2c0,.83-.67,1.5-1.5,1.5H14.44c-.83,0-1.5-.67-1.5-1.5ZM15.94,15.6v101.2s274.29,0,274.29,0V15.6s-274.29,0-274.29,0Z"/>
  </g>
  <g>
    <rect class="cls-1" x="14.44" y="117.9" width="277.29" height="12.22"/>
    <path class="cls-3" d="m12.94,130.12v-12.22c0-.83.67-1.5,1.5-1.5h277.29c.83,0,1.5.67,1.5,1.5v12.22c0,.83-.67,1.5-1.5,1.5H14.44c-.83,0-1.5-.67-1.5-1.5Zm3-10.72v9.22s274.29,0,274.29,0v-9.22s-274.29,0-274.29,0Z"/>
  </g>
  <g>
    <line class="cls-1" x1="291.73" y1="118.3" x2="14.44" y2="14.1"/>
    <path class="cls-2" d="m12.94,14.1c0-.18.03-.35.1-.53.29-.78,1.16-1.17,1.93-.88l277.29,104.2c.78.29,1.17,1.16.88,1.93-.29.78-1.16,1.17-1.93.88L13.91,15.5c-.6-.23-.97-.8-.97-1.4Z"/>
  </g>
  <g>
    <line class="cls-1" x1="153.09" y1="118.92" x2="153.09" y2="129.09"/>
    <path class="cls-2" d="m151.59,129.09v-10.17c0-.83.67-1.5,1.5-1.5s1.5.67,1.5,1.5v10.17c0,.83-.67,1.5-1.5,1.5s-1.5-.67-1.5-1.5Z"/>
  </g>
  <g>
    <g>
      <rect class="cls-1" x="15.11" y="131.14" width="10.88" height="130.91"/>
      <path class="cls-3" d="m13.61,263.55v-133.91h13.88v133.91h-13.88Zm3-130.91v127.91s7.88,0,7.88,0v-127.91s-7.88,0-7.88,0Z"/>
    </g>
    <path class="cls-3" d="m32.22,262.68v-3c3.94,0,7.92-.2,11.83-.59l.3,2.98c-4.01.4-8.08.6-12.12.6Zm23.53-5.36c3.85-.78,7.71-1.78,11.47-2.95l.89,2.86c-3.85,1.2-7.81,2.22-11.76,3.02l-.6-2.94Zm22.58-7.04c3.61-1.54,7.19-3.29,10.64-5.2l1.45,2.63c-3.54,1.95-7.21,3.75-10.91,5.33l-1.18-2.76Zm20.71-11.43c3.23-2.23,6.4-4.66,9.4-7.21l1.94,2.29c-3.08,2.61-6.32,5.1-9.63,7.39l-1.71-2.47Zm18.03-15.32c2.73-2.83,5.35-5.83,7.79-8.92l2.35,1.86c-2.5,3.17-5.19,6.24-7.99,9.14l-2.16-2.08Zm14.66-18.57c2.12-3.31,4.1-6.77,5.89-10.28l2.67,1.36c-1.83,3.6-3.86,7.14-6.03,10.53l-2.53-1.62Zm10.72-21.09c1.43-3.67,2.69-7.45,3.74-11.24l2.89.81c-1.08,3.88-2.37,7.76-3.84,11.52l-2.8-1.09Zm6.36-22.79c.68-3.87,1.17-7.82,1.46-11.75l2.99.22c-.3,4.03-.8,8.08-1.5,12.04l-2.95-.52Z"/>
  </g>
  <g>
    <g>
      <rect class="cls-1" x="280.71" y="131.14" width="10.88" height="130.91"/>
      <path class="cls-3" d="m279.21,263.55v-133.91h13.88v133.91h-13.88Zm3-130.91v127.91s7.88,0,7.88,0v-127.91s-7.88,0-7.88,0Z"/>
    </g>
    <path class="cls-3" d="m153.45,149.56l2.99-.22c.29,3.93.79,7.88,1.46,11.75l-2.96.52c-.69-3.96-1.2-8.02-1.5-12.04Zm4.17,23.89l2.89-.81c1.06,3.79,2.32,7.57,3.74,11.24l-2.8,1.09c-1.46-3.76-2.75-7.63-3.84-11.52Zm8.8,22.6l2.67-1.36c1.79,3.51,3.77,6.97,5.89,10.28l-2.53,1.62c-2.17-3.39-4.2-6.94-6.03-10.53Zm13.08,20.42l2.35-1.86c2.44,3.09,5.06,6.09,7.79,8.92l-2.16,2.08c-2.8-2.9-5.49-5.98-7.99-9.14Zm16.84,17.46l1.94-2.29c3,2.55,6.16,4.98,9.4,7.21l-1.71,2.47c-3.31-2.29-6.56-4.78-9.63-7.39Zm19.95,13.79l1.45-2.63c3.45,1.91,7.03,3.65,10.64,5.2l-1.18,2.76c-3.7-1.58-7.38-3.38-10.91-5.33Zm22.31,9.53l.89-2.86c3.75,1.17,7.61,2.16,11.47,2.95l-.6,2.94c-3.95-.8-7.91-1.82-11.76-3.02Zm23.77,4.84l.3-2.98c3.91.39,7.89.59,11.83.59v3c-4.04,0-8.12-.2-12.12-.6Z"/>
  </g>
</svg>