<?xml version="1.0" encoding="UTF-8"?>
<svg id="Layer_1" data-name="Layer 1" xmlns="http://www.w3.org/2000/svg" viewBox="0 0 134.25 241.99">
  <defs>
    <style>
      .cls-1 {
        fill: #fff;
      }

      .cls-2 {
        fill: #231f20;
      }

      .cls-3 {
        fill: #1d1d1b;
      }
    </style>
  </defs>
  <g>
    <rect class="cls-1" x="1.5" y="1.5" width="131.25" height="129.4"/>
    <path class="cls-3" d="m0,130.9V1.5C0,.67.67,0,1.5,0h131.25c.83,0,1.5.67,1.5,1.5v129.4c0,.83-.67,1.5-1.5,1.5H1.5c-.83,0-1.5-.67-1.5-1.5ZM3,3v126.4s128.25,0,128.25,0V3s-128.25,0-128.25,0Z"/>
  </g>
  <g>
    <rect class="cls-1" x="14.44" y="14.1" width="105.37" height="104.2"/>
    <path class="cls-3" d="m12.94,118.3V14.1c0-.83.67-1.5,1.5-1.5h105.37c.83,0,1.5.67,1.5,1.5v104.2c0,.83-.67,1.5-1.5,1.5H14.44c-.83,0-1.5-.67-1.5-1.5ZM15.94,15.6v101.2s102.37,0,102.37,0V15.6s-102.37,0-102.37,0Z"/>
  </g>
  <g>
    <rect class="cls-1" x="14.44" y="117.9" width="105.37" height="12.22"/>
    <path class="cls-3" d="m12.94,130.12v-12.22c0-.83.67-1.5,1.5-1.5h105.37c.83,0,1.5.67,1.5,1.5v12.22c0,.83-.67,1.5-1.5,1.5H14.44c-.83,0-1.5-.67-1.5-1.5Zm3-10.72v9.22s102.37,0,102.37,0v-9.22s-102.37,0-102.37,0Z"/>
  </g>
  <g>
    <line class="cls-1" x1="119.81" y1="118.3" x2="14.44" y2="14.1"/>
    <path class="cls-2" d="m12.94,14.1c0-.38.14-.76.43-1.05.58-.59,1.53-.59,2.12-.01l105.37,104.2c.59.58.6,1.53.01,2.12-.58.59-1.53.59-2.12.01L13.39,15.17c-.3-.29-.45-.68-.45-1.07Z"/>
  </g>
  <g>
    <g>
      <rect class="cls-1" x="4.73" y="131.14" width="9.09" height="109.34"/>
      <path class="cls-3" d="m3.23,241.99v-112.34h12.09v112.34H3.23Zm3-109.34v106.34s6.09,0,6.09,0v-106.34s-6.09,0-6.09,0Z"/>
    </g>
    <path class="cls-3" d="m19.01,241.26v-3c3.94,0,7.91-.24,11.79-.7l.36,2.98c-4,.48-8.09.72-12.15.72Zm23.4-5.82c3.81-.94,7.61-2.12,11.28-3.51l1.06,2.8c-3.78,1.43-7.7,2.65-11.63,3.62l-.72-2.91Zm22.05-8.36c3.47-1.82,6.88-3.88,10.11-6.11l1.7,2.47c-3.33,2.3-6.84,4.42-10.42,6.29l-1.39-2.66Zm19.42-13.38c2.94-2.6,5.76-5.4,8.38-8.32l2.24,2c-2.7,3.02-5.6,5.9-8.63,8.57l-1.98-2.25Zm15.72-17.58c2.25-3.21,4.34-6.6,6.19-10.05l2.64,1.42c-1.91,3.56-4.06,7.04-6.38,10.36l-2.46-1.72Zm11.15-20.77c1.43-3.65,2.66-7.43,3.65-11.23l2.9.76c-1.02,3.92-2.29,7.81-3.76,11.57l-2.79-1.1Zm5.95-22.82c.53-3.88.84-7.84.92-11.77l3,.06c-.08,4.05-.4,8.13-.95,12.12l-2.97-.41Z"/>
  </g>
</svg>