<?xml version="1.0" encoding="UTF-8"?>
<svg xmlns="http://www.w3.org/2000/svg" viewBox="0 0 125.37 184.8">
  <defs>
    <style>
      .cls-1 {
        fill: #7e828e;
      }

      .cls-1, .cls-2 {
        fill-rule: evenodd;
      }

      .cls-3 {
        isolation: isolate;
      }

      .cls-4 {
        fill: #4b4f5e;
      }

      .cls-2 {
        fill: #ddd3cc;
        mix-blend-mode: multiply;
      }

      .cls-5 {
        fill: #d84464;
      }

      .cls-6 {
        fill: #a3a5ad;
      }

      .cls-7 {
        fill: #686867;
      }
    </style>
  </defs>
  <g class="cls-3">
    <g id="Layer_1" data-name="Layer 1">
      <path class="cls-7" d="m36.79,126.93c-3.92,0-6.88-2.76-6.88-6.43s2.96-6.49,6.88-6.49,6.87,2.79,6.87,6.49-2.95,6.43-6.87,6.43Zm0-10.07c-2.15,0-3.71,1.53-3.71,3.64s1.56,3.59,3.71,3.59,3.69-1.5,3.69-3.59-1.55-3.64-3.69-3.64Z"/>
      <path class="cls-2" d="m52.24,10.61H7v75.27c-3.96.56-7,3.62-7,7.33s3.04,6.77,7,7.33v11.53c-3.96.56-7,3.62-7,7.33s3.04,6.77,7,7.33v58.07h110.19V10.61H52.24Z"/>
      <path class="cls-2" d="m57.9,3.5H12.67v75.27c-3.96.56-7,3.62-7,7.33s3.04,6.77,7,7.33v11.53c-3.96.56-7,3.62-7,7.33s3.04,6.77,7,7.33v58.07h110.19V3.5H57.9Z"/>
      <g>
        <ellipse class="cls-4" cx="16.49" cy="108.78" rx="8.31" ry="7.45"/>
        <ellipse class="cls-4" cx="16.49" cy="82.6" rx="8.31" ry="7.45"/>
        <g>
          <rect class="cls-5" x="15.18" width="45.24" height="174.19"/>
          <rect class="cls-6" x="23.23" width="102.14" height="174.19"/>
        </g>
        <polygon class="cls-1" points="121.73 169.47 121.73 2.64 25.97 169.47 121.73 169.47"/>
      </g>
    </g>
  </g>
</svg>