<?xml version="1.0" encoding="UTF-8"?>
<svg id="_Ñëîé_1" data-name="Ñëîé 1" xmlns="http://www.w3.org/2000/svg" viewBox="0 0 157.73 61.25">
  <defs>
    <style>
      .cls-1 {
        fill: #fff;
      }

      .cls-1, .cls-2 {
        stroke: #ca9e67;
        stroke-miterlimit: 10;
      }

      .cls-2 {
        fill: #231f20;
      }
    </style>
  </defs>
  <g>
    <rect class="cls-1" x="23.73" y="2" width="109.8" height="57.25"/>
    <path class="cls-2" d="m22.23,59.25V2c0-.83.67-1.5,1.5-1.5h109.8c.83,0,1.5.67,1.5,1.5v57.25c0,.83-.67,1.5-1.5,1.5H23.73c-.83,0-1.5-.67-1.5-1.5ZM25.23,3.5v54.25s106.8,0,106.8,0V3.5s-106.8,0-106.8,0Z"/>
  </g>
  <g>
    <rect class="cls-1" x="134.25" y="2" width="21.48" height="57.25"/>
    <path class="cls-2" d="m132.75,59.25V2c0-.83.67-1.5,1.5-1.5h21.48c.83,0,1.5.67,1.5,1.5v57.25c0,.83-.67,1.5-1.5,1.5h-21.48c-.83,0-1.5-.67-1.5-1.5Zm3-55.75v54.25s18.48,0,18.48,0V3.5s-18.48,0-18.48,0Z"/>
  </g>
  <g>
    <rect class="cls-1" x="2" y="2" width="21.48" height="57.25"/>
    <path class="cls-2" d="m.5,59.25V2c0-.83.67-1.5,1.5-1.5h21.48c.83,0,1.5.67,1.5,1.5v57.25c0,.83-.67,1.5-1.5,1.5H2c-.83,0-1.5-.67-1.5-1.5ZM3.5,3.5v54.25s18.48,0,18.48,0V3.5s-18.48,0-18.48,0Z"/>
  </g>
  <g>
    <line class="cls-1" x1="133.89" y1="58.41" x2="24.68" y2="2.61"/>
    <path class="cls-2" d="m23.18,2.61c0-.23.05-.46.16-.68.38-.74,1.28-1.03,2.02-.65l109.21,55.8c.74.38,1.03,1.28.65,2.02-.38.74-1.28,1.03-2.02.65L24,3.95c-.52-.27-.82-.79-.82-1.34Z"/>
  </g>
</svg>