<?xml version="1.0" encoding="UTF-8"?>
<svg id="Layer_1" data-name="Layer 1" xmlns="http://www.w3.org/2000/svg" viewBox="0 0 196.63 189.19">
  <defs>
    <style>
      .cls-1 {
        fill: #fff;
      }

      .cls-2 {
        fill: #1d1d1b;
      }
    </style>
  </defs>
  <g>
    <rect class="cls-1" x="2.6" y="1.5" width="191.99" height="156.26" transform="translate(197.18 159.26) rotate(-180)"/>
    <path class="cls-2" d="m196.08,1.5v156.26c0,.83-.67,1.5-1.5,1.5H2.59c-.83,0-1.5-.67-1.5-1.5V1.5c0-.83.67-1.5,1.5-1.5h191.99c.83,0,1.5.67,1.5,1.5Zm-3,154.76V3s-188.99,0-188.99,0v153.26s188.99,0,188.99,0Z"/>
  </g>
  <g>
    <line class="cls-1" x1="195.13" y1="156.88" x2="15.12" y2="187.69"/>
    <path class="cls-2" d="m196.63,156.88c0,.72-.52,1.35-1.25,1.48L15.38,189.16c-.82.14-1.59-.41-1.73-1.23-.14-.82.41-1.59,1.23-1.73l180.01-30.81c.82-.14,1.59.41,1.73,1.23.01.09.02.17.02.25Z"/>
  </g>
  <g>
    <line class="cls-1" x1="194.58" y1="1.5" x2="1.5" y2="157.76"/>
    <path class="cls-2" d="m196.08,1.5c0,.44-.19.87-.56,1.17L2.44,158.93c-.64.52-1.59.42-2.11-.22-.52-.64-.42-1.59.22-2.11L193.64.33c.64-.52,1.59-.42,2.11.22.22.28.33.61.33.94Z"/>
  </g>
</svg>