<?xml version="1.0" encoding="UTF-8"?>
<svg id="Layer_1" data-name="Layer 1" xmlns="http://www.w3.org/2000/svg" viewBox="0 0 441.093 190.186">
  <defs>
    <style>
      .cls-1 {
        opacity: .74;
      }

      .cls-2 {
        fill: #1d1d1b;
      }

      .cls-2, .cls-3 {
        stroke: #754c24;
        stroke-miterlimit: 10;
      }

      .cls-3 {
        fill: #fff;
      }
    </style>
  </defs>
  <g class="cls-1">
    <g>
      <rect class="cls-3" x="2" y="2" width="437.058" height="156.264" transform="translate(441.058 160.264) rotate(-180)"/>
      <path class="cls-2" d="m440.559,2v156.264c0,.828-.672,1.5-1.5,1.5H2c-.828,0-1.5-.672-1.5-1.5V2c0-.828.672-1.5,1.5-1.5h437.059c.828,0,1.5.672,1.5,1.5Zm-3,154.764V3.5s-434.059,0-434.059,0v153.264s434.059,0,434.059,0Z"/>
    </g>
    <g>
      <line class="cls-3" x1="439.058" y1="2" x2="2" y2="158.264"/>
      <path class="cls-2" d="m440.559,2c0,.616-.382,1.193-.995,1.412L2.505,159.676c-.78.279-1.639-.127-1.917-.907-.278-.778.127-1.639.907-1.917L438.554.588c.78-.279,1.639.127,1.917.907.06.167.088.337.088.505Z"/>
    </g>
    <g>
      <line class="cls-3" x1="439.093" y1="157.379" x2="301.908" y2="188.186"/>
      <path class="cls-2" d="m440.593,157.379c0,.687-.474,1.306-1.171,1.463l-137.186,30.808c-.809.182-1.611-.327-1.793-1.135-.181-.813.327-1.61,1.135-1.793l137.186-30.808c.809-.182,1.611.327,1.793,1.135.024.111.036.222.036.33Z"/>
    </g>
    <g>
      <line class="cls-3" x1="150.543" y1="157.379" x2="5.732" y2="188.186"/>
      <path class="cls-2" d="m152.043,157.38c0,.692-.482,1.315-1.188,1.465L6.045,189.653c-.811.173-1.607-.345-1.779-1.154-.175-.812.344-1.607,1.154-1.779l144.811-30.808c.811-.173,1.607.345,1.779,1.154.022.105.033.211.033.314Z"/>
    </g>
    <g>
      <line class="cls-3" x1="143.317" y1="157.379" x2="280.502" y2="188.186"/>
      <path class="cls-2" d="m282.002,188.185c0,.108-.012.219-.036.33-.182.808-.984,1.316-1.793,1.135l-137.186-30.808c-.808-.182-1.314-.976-1.135-1.793.182-.808.984-1.316,1.793-1.135l137.186,30.808c.697.157,1.171.776,1.171,1.463Z"/>
    </g>
  </g>
</svg>