<?xml version="1.0" encoding="UTF-8"?>
<svg id="Layer_1" data-name="Layer 1" xmlns="http://www.w3.org/2000/svg" viewBox="0 0 351.37 81.494">
  <defs>
    <style>
      .cls-1 {
        fill: #fff;
      }

      .cls-1, .cls-2 {
        stroke: #8c6239;
        stroke-miterlimit: 10;
      }

      .cls-2 {
        fill: #231f20;
      }

      .cls-3 {
        opacity: .57;
      }
    </style>
  </defs>
  <g class="cls-3">
    <g>
      <rect class="cls-1" x="2.451" y="2" width="346.918" height="77.494"/>
      <path class="cls-2" d="m350.87,2v77.494c0,.828-.671,1.5-1.5,1.5H2.451c-.829,0-1.5-.672-1.5-1.5V2c0-.828.671-1.5,1.5-1.5h346.918c.829,0,1.5.672,1.5,1.5Zm-3,75.994V3.5s-343.918,0-343.918,0v74.494s343.918,0,343.918,0Z"/>
    </g>
    <g>
      <line class="cls-1" x1="2.002" y1="3.136" x2="348.191" y2="78.668"/>
      <path class="cls-2" d="m349.692,78.667c0,.105-.011.213-.035.32-.176.809-.976,1.323-1.785,1.146L1.682,4.602c-.809-.178-1.323-.975-1.145-1.785.176-.809.976-1.323,1.785-1.146l346.189,75.531c.702.153,1.181.774,1.181,1.465Z"/>
    </g>
    <g>
      <line class="cls-1" x1="348.191" y1="3.137" x2="2.002" y2="78.668"/>
      <path class="cls-2" d="m349.692,3.138c0,.69-.479,1.311-1.181,1.465L2.321,80.134c-.81.177-1.609-.337-1.785-1.146-.182-.807.336-1.607,1.146-1.785L347.871,1.671c.81-.177,1.609.337,1.785,1.146.024.108.035.215.035.32Z"/>
    </g>
  </g>
</svg>