<?xml version="1.0" encoding="UTF-8"?>
<svg id="Layer_1" data-name="Layer 1" xmlns="http://www.w3.org/2000/svg" viewBox="0 0 302.849 73.831">
  <defs>
    <style>
      .cls-1 {
        fill: #1d1d1b;
      }

      .cls-1, .cls-2 {
        stroke: #8c6239;
        stroke-miterlimit: 10;
      }

      .cls-3 {
        opacity: .33;
      }

      .cls-2 {
        fill: #fff;
      }
    </style>
  </defs>
  <g class="cls-3">
    <g>
      <rect class="cls-2" x="2" y="2" width="298.849" height="69.832"/>
      <path class="cls-1" d="m302.349,2v69.831c0,.828-.671,1.5-1.5,1.5H2c-.829,0-1.5-.672-1.5-1.5V2c0-.828.671-1.5,1.5-1.5h298.849c.829,0,1.5.672,1.5,1.5Zm-3,68.331V3.5s-295.849,0-295.849,0v66.831s295.849,0,295.849,0Z"/>
    </g>
    <g>
      <rect class="cls-2" x="11.762" y="10.26" width="14.658" height="55.565"/>
      <path class="cls-1" d="m27.919,8.76v58.564H10.262V8.76h17.658Zm-3,55.564V11.76s-11.658,0-11.658,0v52.564s11.658,0,11.658,0Z"/>
    </g>
    <g>
      <rect class="cls-2" x="27.117" y="20.021" width="14.658" height="45.803"/>
      <path class="cls-1" d="m43.275,18.521v48.804h-17.658V18.521h17.658Zm-3,45.804V21.521s-11.658,0-11.658,0v42.804s11.658,0,11.658,0Z"/>
    </g>
    <g>
      <rect class="cls-2" x="41.775" y="6.505" width="9.545" height="59.319"/>
      <path class="cls-1" d="m52.82,5.005v62.319h-12.545V5.005h12.545Zm-3,59.319V8.005s-6.545,0-6.545,0v56.319s6.545,0,6.545,0Z"/>
    </g>
    <g>
      <rect class="cls-2" x="51.775" y="11.01" width="9.545" height="54.814"/>
      <path class="cls-1" d="m62.819,9.511v57.813h-12.544V9.511h12.544Zm-3,54.813V12.511s-6.544,0-6.544,0v51.813s6.544,0,6.544,0Z"/>
    </g>
    <g>
      <rect class="cls-2" x="61.319" y="22.274" width="14.658" height="43.551"/>
      <path class="cls-1" d="m77.478,20.773v46.551h-17.658V20.773h17.658Zm-3,43.551V23.773s-11.658,0-11.658,0v40.551s11.658,0,11.658,0Z"/>
    </g>
    <g>
      <rect class="cls-2" x="76.675" y="11.761" width="8.059" height="54.063"/>
      <path class="cls-1" d="m86.234,10.262v57.062h-11.059V10.262h11.059Zm-3,54.062V13.262s-5.058,0-5.058,0v51.062s5.058,0,5.058,0Z"/>
    </g>
    <g>
      <rect class="cls-2" x="85.326" y="6.505" width="9.545" height="59.319"/>
      <path class="cls-1" d="m96.371,5.005v62.319h-12.545V5.005h12.545Zm-3,59.319V8.005s-6.545,0-6.545,0v56.319s6.545,0,6.545,0Z"/>
    </g>
    <g>
      <rect class="cls-2" x="95.326" y="11.01" width="9.545" height="54.814"/>
      <path class="cls-1" d="m106.37,9.511v57.813h-12.545V9.511h12.545Zm-3,54.813V12.511s-6.544,0-6.544,0v51.813s6.544,0,6.544,0Z"/>
    </g>
    <g>
      <rect class="cls-2" x="105.621" y="17.768" width="14.658" height="48.056"/>
      <path class="cls-1" d="m121.779,16.269v51.056h-17.658V16.269h17.658Zm-3,48.056V19.269s-11.658,0-11.658,0v45.056s11.658,0,11.658,0Z"/>
    </g>
    <g>
      <rect class="cls-2" x="120.977" y="9.509" width="14.658" height="56.316"/>
      <path class="cls-1" d="m137.135,8.009v59.315h-17.658V8.009h17.658Zm-3,56.315V11.009s-11.658,0-11.658,0v53.315s11.658,0,11.658,0Z"/>
    </g>
    <g>
      <rect class="cls-2" x="135.635" y="6.505" width="9.545" height="59.319"/>
      <path class="cls-1" d="m146.68,5.005v62.319h-12.544V5.005h12.544Zm-3,59.319V8.005s-6.544,0-6.544,0v56.319s6.544,0,6.544,0Z"/>
    </g>
    <g>
      <rect class="cls-2" x="282.056" y="11.01" width="9.545" height="54.814"/>
      <path class="cls-1" d="m293.101,9.511v57.813h-12.544V9.511h12.544Zm-3,54.813V12.511s-6.544,0-6.544,0v51.813s6.544,0,6.544,0Z"/>
    </g>
    <g>
      <rect class="cls-2" x="267.398" y="22.274" width="14.658" height="43.551"/>
      <path class="cls-1" d="m283.556,20.773v46.551h-17.658V20.773h17.658Zm-3,43.551V23.773s-11.658,0-11.658,0v40.551s11.658,0,11.658,0Z"/>
    </g>
    <g>
      <rect class="cls-2" x="258.641" y="11.761" width="8.059" height="54.063"/>
      <path class="cls-1" d="m268.2,10.262v57.063h-11.059V10.262h11.059Zm-3,54.062V13.262s-5.059,0-5.059,0v51.063s5.059,0,5.059,0Z"/>
    </g>
    <g>
      <rect class="cls-2" x="248.504" y="6.505" width="9.545" height="59.319"/>
      <path class="cls-1" d="m259.549,5.005v62.319h-12.545V5.005h12.545Zm-3,59.319V8.005s-6.545,0-6.545,0v56.319s6.545,0,6.545,0Z"/>
    </g>
    <g>
      <rect class="cls-2" x="238.505" y="11.01" width="9.545" height="54.814"/>
      <path class="cls-1" d="m249.55,9.511v57.813h-12.545V9.511h12.545Zm-3,54.813V12.511s-6.544,0-6.544,0v51.813s6.544,0,6.544,0Z"/>
    </g>
    <g>
      <rect class="cls-2" x="223.096" y="17.768" width="14.658" height="48.056"/>
      <path class="cls-1" d="m239.254,16.269v51.056h-17.658V16.269h17.658Zm-3,48.056V19.269s-11.658,0-11.658,0v45.056s11.658,0,11.658,0Z"/>
    </g>
    <g>
      <rect class="cls-2" x="207.74" y="9.509" width="14.658" height="56.316"/>
      <path class="cls-1" d="m223.898,8.009v59.315h-17.658V8.009h17.658Zm-3,56.315V11.009s-11.658,0-11.658,0v53.315s11.658,0,11.658,0Z"/>
    </g>
    <g>
      <rect class="cls-2" x="198.196" y="6.505" width="9.545" height="59.319"/>
      <path class="cls-1" d="m209.24,5.005v62.319h-12.544V5.005h12.544Zm-3,59.319V8.005s-6.544,0-6.544,0v56.319s6.544,0,6.544,0Z"/>
    </g>
    <g>
      <rect class="cls-2" x="145.634" y="11.01" width="9.545" height="54.814"/>
      <path class="cls-1" d="m156.679,9.511v57.813h-12.545V9.511h12.545Zm-3,54.813V12.511s-6.545,0-6.545,0v51.813s6.545,0,6.545,0Z"/>
    </g>
    <g>
      <rect class="cls-2" x="155.179" y="13.263" width="14.658" height="52.561"/>
      <path class="cls-1" d="m171.337,11.763v55.562h-17.658V11.763h17.658Zm-3,52.561V14.763s-11.658,0-11.658,0v49.561s11.658,0,11.658,0Z"/>
    </g>
    <g>
      <rect class="cls-2" x="170.535" y="11.761" width="8.059" height="54.063"/>
      <path class="cls-1" d="m180.094,10.262v57.062h-11.059V10.262h11.059Zm-3,54.062V13.262s-5.059,0-5.059,0v51.062s5.059,0,5.059,0Z"/>
    </g>
    <g>
      <rect class="cls-2" x="179.186" y="17.017" width="9.545" height="48.807"/>
      <path class="cls-1" d="m190.23,15.518v51.807h-12.544V15.518h12.544Zm-3,48.807V18.518s-6.544,0-6.544,0v45.807s6.544,0,6.544,0Z"/>
    </g>
    <g>
      <rect class="cls-2" x="189.185" y="11.01" width="9.545" height="54.814"/>
      <path class="cls-1" d="m200.23,9.511v57.813h-12.545V9.511h12.545Zm-3,54.813V12.511s-6.545,0-6.545,0v51.813s6.545,0,6.545,0Z"/>
    </g>
  </g>
</svg>