<?xml version="1.0" encoding="UTF-8"?>
<svg id="Layer_1" data-name="Layer 1" xmlns="http://www.w3.org/2000/svg" viewBox="0 0 328.65 60.25">
  <defs>
    <style>
      .cls-1 {
        fill: #fff;
      }

      .cls-2 {
        fill: #231f20;
      }
    </style>
  </defs>
  <g>
    <rect class="cls-1" x="23.23" y="1.5" width="281.72" height="57.25"/>
    <path class="cls-2" d="m21.73,58.75V1.5C21.73.67,22.4,0,23.23,0h281.72c.83,0,1.5.67,1.5,1.5v57.25c0,.83-.67,1.5-1.5,1.5H23.23c-.83,0-1.5-.67-1.5-1.5ZM24.73,3v54.25s278.72,0,278.72,0V3s-278.72,0-278.72,0Z"/>
  </g>
  <g>
    <rect class="cls-1" x="305.67" y="1.5" width="21.48" height="57.25"/>
    <path class="cls-2" d="m304.17,58.75V1.5c0-.83.67-1.5,1.5-1.5h21.48c.83,0,1.5.67,1.5,1.5v57.25c0,.83-.67,1.5-1.5,1.5h-21.48c-.83,0-1.5-.67-1.5-1.5Zm3-55.75v54.25s18.48,0,18.48,0V3s-18.48,0-18.48,0Z"/>
  </g>
  <g>
    <rect class="cls-1" x="1.5" y="1.5" width="21.48" height="57.25"/>
    <path class="cls-2" d="m0,58.75V1.5C0,.67.67,0,1.5,0h21.48c.83,0,1.5.67,1.5,1.5v57.25c0,.83-.67,1.5-1.5,1.5H1.5c-.83,0-1.5-.67-1.5-1.5ZM3,3v54.25s18.48,0,18.48,0V3s-18.48,0-18.48,0Z"/>
  </g>
  <g>
    <line class="cls-1" x1="305.32" y1="57.91" x2="24.18" y2="2.11"/>
    <path class="cls-2" d="m22.68,2.11c0-.1,0-.2.03-.29.16-.81.95-1.34,1.76-1.18l281.13,55.8c.81.16,1.34.96,1.18,1.76-.16.81-.95,1.34-1.76,1.18L23.89,3.58c-.71-.14-1.21-.77-1.21-1.47Z"/>
  </g>
</svg>