<?xml version="1.0" encoding="UTF-8"?>
<svg id="Layer_1" data-name="Layer 1" xmlns="http://www.w3.org/2000/svg" viewBox="0 0 80.84 81.27">
  <defs>
    <style>
      .cls-1 {
        fill: #fff;
      }

      .cls-2 {
        fill: #939598;
      }

      .cls-3 {
        fill: #26281e;
      }
    </style>
  </defs>
  <g>
    <polygon class="cls-2" points="80.84 75.93 80.84 80.84 77.21 81.06 74.19 81.06 4.13 81.06 4.13 80.84 4.13 75.93 80.84 75.93"/>
    <rect class="cls-2" x="4.13" y="4.13" width="76.7" height="71.79"/>
  </g>
  <g>
    <g>
      <polygon class="cls-1" points="77.06 72.15 77.06 77.06 73.44 77.29 70.42 77.29 .36 77.29 .36 77.06 .36 72.15 77.06 72.15"/>
      <rect class="cls-1" x=".36" y=".36" width="76.7" height="71.79"/>
    </g>
    <g>
      <path class="cls-3" d="m77.06,77.65h-3.62c-.2,0-.36-.16-.36-.36s.16-.36.36-.36h3.62c.2,0,.36.16.36.36s-.16.36-.36.36Z"/>
      <path class="cls-3" d="m70.42,77.65H.36c-.2,0-.36-.16-.36-.36s.16-.36.36-.36h70.06c.2,0,.36.16.36.36s-.16.36-.36.36Z"/>
      <path class="cls-3" d="m77.06,72.51H.36c-.2,0-.36-.16-.36-.36s.16-.36.36-.36h76.7c.2,0,.36.16.36.36s-.16.36-.36.36Z"/>
      <path class="cls-3" d="m77.06,77.42c-.2,0-.36-.16-.36-.36V.72H.72v76.34c0,.2-.16.36-.36.36s-.36-.16-.36-.36V.36c0-.2.16-.36.36-.36h76.7c.2,0,.36.16.36.36v76.7c0,.2-.16.36-.36.36Z"/>
      <path class="cls-3" d="m73.44,80.29c-.2,0-.36-.16-.36-.36v-2.26c0-.2.16-.36.36-.36s.36.16.36.36v2.26c0,.2-.16.36-.36.36Z"/>
      <path class="cls-3" d="m72.15,81.12c-.2,0-.36-.16-.36-.36s.16-.36.36-.36c.51,0,.92-.41.92-.92,0-.2.16-.36.36-.36s.36.16.36.36c0,.91-.74,1.64-1.64,1.64Z"/>
      <path class="cls-3" d="m72.23,81.27h-.6c-.2,0-.36-.16-.36-.36s.16-.36.36-.36h.6c.2,0,.36.16.36.36s-.16.36-.36.36Z"/>
      <path class="cls-3" d="m71.55,81.12c-.91,0-1.64-.74-1.64-1.64,0-.2.16-.36.36-.36s.36.16.36.36c0,.51.41.92.92.92.2,0,.36.16.36.36s-.16.36-.36.36Z"/>
      <path class="cls-3" d="m70.42,79.91c-.2,0-.36-.16-.36-.36v-2.26c0-.2.16-.36.36-.36h3.02c.2,0,.36.16.36.36s-.16.36-.36.36h-2.66v1.9c0,.2-.16.36-.36.36Z"/>
    </g>
  </g>
</svg>