<?xml version="1.0" encoding="UTF-8"?>
<svg id="Layer_1" data-name="Layer 1" xmlns="http://www.w3.org/2000/svg" viewBox="0 0 80.99 85.97">
  <defs>
    <style>
      .cls-1 {
        fill: #fff;
      }

      .cls-2 {
        fill: #939598;
      }

      .cls-3 {
        fill: #808285;
      }

      .cls-4 {
        fill: #26281e;
      }
    </style>
  </defs>
  <g>
    <polygon class="cls-2" points="80.99 75.7 80.99 80.84 53.81 80.84 51.24 80.84 33.88 80.84 31.31 80.84 4.13 80.84 4.13 75.7 80.99 75.7"/>
    <rect class="cls-2" x="4.13" y="4.13" width="76.85" height="71.57"/>
    <path class="cls-2" d="m51.24,82.12v-1.28h2.57v1.28h-.15c0,2.1-1.69,3.81-3.77,3.85h-14.87c-2.13,0-3.85-1.72-3.85-3.85h.15v-1.28h2.57v1.36h-.14c.04.69.58,1.21,1.27,1.21h14.8c.7,0,1.28-.57,1.28-1.28h.15Z"/>
  </g>
  <g>
    <g>
      <polygon class="cls-1" points="77.21 71.93 77.21 77.06 50.03 77.06 47.47 77.06 30.1 77.06 27.54 77.06 .36 77.06 .36 71.93 77.21 71.93"/>
      <rect class="cls-1" x=".36" y=".36" width="76.85" height="71.57"/>
      <path class="cls-3" d="m27.54,78.35v-1.28h2.57v1.36h-.14c.04.69.58,1.21,1.27,1.21h14.8c.7,0,1.28-.57,1.28-1.28h.15v-1.28h2.57v1.28h-.15c0,2.1-1.69,3.81-3.77,3.85h-14.87c-2.13,0-3.85-1.72-3.85-3.85h.15Z"/>
    </g>
    <g>
      <path class="cls-4" d="m77.21,77.42H.36c-.2,0-.36-.16-.36-.36s.16-.36.36-.36h76.85c.2,0,.36.16.36.36s-.16.36-.36.36Z"/>
      <path class="cls-4" d="m77.21,72.29H.36c-.2,0-.36-.16-.36-.36s.16-.36.36-.36h76.85c.2,0,.36.16.36.36s-.16.36-.36.36Z"/>
      <path class="cls-4" d="m77.21,77.42c-.2,0-.36-.16-.36-.36V.72H.72v76.34c0,.2-.16.36-.36.36s-.36-.16-.36-.36V.36c0-.2.16-.36.36-.36h76.85c.2,0,.36.16.36.36v76.7c0,.2-.16.36-.36.36Z"/>
      <path class="cls-4" d="m30.1,78.78c-.2,0-.36-.16-.36-.36v-1.36c0-.2.16-.36.36-.36s.36.16.36.36v1.36c0,.2-.16.36-.36.36Z"/>
      <path class="cls-4" d="m27.54,78.74c-.2,0-.36-.12-.36-.32v-1.36c0-.2.16-.36.36-.36s.36.16.36.36v1.28c0,.2-.16.4-.36.4Z"/>
      <path class="cls-4" d="m46.11,79.99h-14.8c-.2,0-.36-.16-.36-.36s.16-.36.36-.36h14.72c.2,0,.4.16.4.36s-.12.36-.32.36Z"/>
      <path class="cls-4" d="m46.03,82.56h-14.72c-.2,0-.36-.16-.36-.36s.16-.36.36-.36h14.72c.2,0,.36.16.36.36s-.16.36-.36.36Z"/>
      <path class="cls-4" d="m31.24,79.99c-.88,0-1.58-.66-1.63-1.53,0-.04-.01-.09-.01-.11,0-.2.16-.36.36-.36s.36.16.36.36h-.36.36c.04.56.42.92.92.92.2,0,.36.16.36.36s-.16.36-.36.36Z"/>
      <path class="cls-4" d="m31.24,82.56c-2.32,0-4.21-1.89-4.21-4.21,0-.2.16-.36.36-.36s.36.16.36.36c0,1.92,1.57,3.49,3.49,3.49.2,0,.36.16.36.36s-.16.36-.36.36Z"/>
      <path class="cls-4" d="m47.47,78.74c-.2,0-.36-.12-.36-.32v-1.36c0-.2.16-.36.36-.36s.36.16.36.36v1.28c0,.2-.16.4-.36.4Z"/>
      <path class="cls-4" d="m50.04,78.74c-.2,0-.36-.12-.36-.32v-1.36c0-.2.16-.36.36-.36s.36.16.36.36v1.28c0,.2-.16.4-.36.4Z"/>
      <path class="cls-4" d="m46.03,79.99c-.2,0-.36-.16-.36-.36s.16-.36.36-.36c.51,0,.92-.41.92-.92,0-.2.16-.36.36-.36s.36.16.36.36c0,.91-.74,1.64-1.64,1.64Z"/>
      <path class="cls-4" d="m46.12,82.56l-.08-.36v-.36h.08c1.88-.03,3.41-1.6,3.41-3.49,0-.2.16-.36.36-.36s.36.16.36.36c0,2.28-1.85,4.17-4.13,4.21Z"/>
    </g>
  </g>
</svg>