<?xml version="1.0" encoding="UTF-8"?>
<svg xmlns="http://www.w3.org/2000/svg" xmlns:xlink="http://www.w3.org/1999/xlink" viewBox="0 0 711.32 221.58">
  <defs>
    <style>
      .cls-1 {
        fill: #ff564a;
        mix-blend-mode: multiply;
      }

      .cls-2 {
        isolation: isolate;
      }

      .cls-3 {
        fill: url(#linear-gradient-2);
      }

      .cls-3, .cls-4 {
        stroke: #9d9d9c;
        stroke-miterlimit: 10;
        stroke-width: .03px;
      }

      .cls-5 {
        fill: #8f8f8e;
      }

      .cls-6 {
        fill: url(#linear-gradient-3);
      }

      .cls-4 {
        fill: url(#linear-gradient);
      }
    </style>
    <linearGradient id="linear-gradient" x1="1924.2" y1="92.29" x2="2632.88" y2="92.29" gradientTransform="translate(2634.2) rotate(-180) scale(1 -1)" gradientUnits="userSpaceOnUse">
      <stop offset="0" stop-color="#e6e6e6"/>
      <stop offset="1" stop-color="#c9c9c9"/>
    </linearGradient>
    <linearGradient id="linear-gradient-2" x1="1940.35" y1="92.29" x2="2616.74" y2="92.29" gradientTransform="translate(2634.2) rotate(-180) scale(1 -1)" gradientUnits="userSpaceOnUse">
      <stop offset="0" stop-color="#fff"/>
      <stop offset="1" stop-color="#d6d6d6"/>
    </linearGradient>
    <linearGradient id="linear-gradient-3" x1="710" y1="202.41" x2="1.32" y2="202.41" gradientUnits="userSpaceOnUse">
      <stop offset="0" stop-color="#c7c7c7"/>
      <stop offset="1" stop-color="#b3b3b3"/>
    </linearGradient>
  </defs>
  <g class="cls-2">
    <g id="Layer_1" data-name="Layer 1">
      <g>
        <rect class="cls-4" x="1.32" y="1.34" width="708.68" height="181.91"/>
        <rect class="cls-3" x="17.46" y="17.37" width="676.39" height="149.84"/>
        <rect class="cls-6" x="1.32" y="183.24" width="708.68" height="38.34"/>
        <path class="cls-5" d="m334.67,201.09c0-4.82,9.4-8.74,20.99-8.74s21,3.92,21,8.74-9.43,8.72-21,8.72-20.99-3.91-20.99-8.72Z"/>
        <polygon class="cls-1" points="711.32 0 0 0 0 184.58 1.32 184.58 1.32 221.58 710 221.58 710 184.58 711.32 184.58 711.32 0"/>
      </g>
    </g>
  </g>
</svg>