<?xml version="1.0" encoding="UTF-8"?>
<svg id="Layer_1" data-name="Layer 1" xmlns="http://www.w3.org/2000/svg" xmlns:xlink="http://www.w3.org/1999/xlink" viewBox="0 0 350.29 132.92">
  <defs>
    <style>
      .cls-1 {
        filter: url(#luminosity-noclip-11);
      }

      .cls-2 {
        fill: url(#_276);
      }

      .cls-2, .cls-3, .cls-4, .cls-5, .cls-6, .cls-7, .cls-8, .cls-9, .cls-10, .cls-11 {
        opacity: .5;
      }

      .cls-12 {
        fill: url(#_278);
      }

      .cls-13 {
        filter: url(#luminosity-noclip-17);
      }

      .cls-14 {
        mask: url(#mask-23);
      }

      .cls-15 {
        mask: url(#mask-27);
      }

      .cls-16 {
        mask: url(#mask-10);
      }

      .cls-17 {
        mask: url(#mask-26);
      }

      .cls-18 {
        filter: url(#luminosity-noclip-7);
      }

      .cls-3 {
        fill: url(#_275-2);
      }

      .cls-19 {
        fill: url(#_625);
      }

      .cls-19, .cls-20, .cls-21, .cls-22, .cls-23, .cls-24, .cls-25, .cls-26, .cls-27, .cls-28, .cls-29, .cls-30, .cls-31, .cls-32, .cls-33, .cls-34, .cls-35, .cls-36 {
        mix-blend-mode: multiply;
      }

      .cls-37 {
        filter: url(#luminosity-noclip-13);
      }

      .cls-38 {
        mask: url(#mask-17);
      }

      .cls-39 {
        filter: url(#luminosity-noclip-5);
      }

      .cls-4 {
        fill: url(#_275);
      }

      .cls-5 {
        fill: url(#_277);
      }

      .cls-6 {
        fill: url(#_239);
      }

      .cls-40 {
        mask: url(#mask-2);
      }

      .cls-41 {
        mask: url(#mask-34);
      }

      .cls-42 {
        mask: url(#mask-33);
      }

      .cls-20 {
        fill: url(#_610);
      }

      .cls-43 {
        filter: url(#luminosity-noclip-25);
      }

      .cls-21 {
        fill: url(#_626);
      }

      .cls-22 {
        fill: url(#_607);
      }

      .cls-23 {
        fill: url(#_609);
      }

      .cls-44 {
        filter: url(#luminosity-noclip-31);
      }

      .cls-45 {
        mask: url(#mask-13);
      }

      .cls-46 {
        fill: #c7b299;
      }

      .cls-24 {
        fill: url(#_611);
      }

      .cls-47 {
        mask: url(#mask-3);
      }

      .cls-48 {
        fill: url(#_238);
      }

      .cls-49 {
        filter: url(#luminosity-noclip-29);
      }

      .cls-50 {
        mask: url(#mask-31);
      }

      .cls-51 {
        filter: url(#luminosity-noclip-15);
      }

      .cls-52 {
        mask: url(#mask-30);
      }

      .cls-53 {
        fill: #603813;
      }

      .cls-54 {
        mask: url(#mask-32);
      }

      .cls-55 {
        mask: url(#mask-9);
      }

      .cls-7 {
        fill: url(#_616);
      }

      .cls-56 {
        mask: url(#mask-12);
      }

      .cls-25 {
        fill: url(#_612);
      }

      .cls-57 {
        mask: url(#mask-5);
      }

      .cls-58 {
        fill: #42210b;
      }

      .cls-26 {
        fill: url(#_629);
      }

      .cls-59 {
        filter: url(#luminosity-noclip-21);
      }

      .cls-60 {
        mask: url(#mask-35);
      }

      .cls-27 {
        fill: url(#_620);
      }

      .cls-61 {
        mask: url(#mask-20);
      }

      .cls-62 {
        filter: url(#luminosity-noclip-9);
      }

      .cls-63 {
        fill: url(#_603);
      }

      .cls-64 {
        filter: url(#luminosity-noclip-35);
      }

      .cls-28 {
        fill: url(#_619);
      }

      .cls-65 {
        mask: url(#mask-25);
      }

      .cls-66 {
        mask: url(#mask-8);
      }

      .cls-67 {
        filter: url(#luminosity-noclip-33);
      }

      .cls-68 {
        mask: url(#mask-4);
      }

      .cls-69 {
        mask: url(#mask-24);
      }

      .cls-70 {
        fill: url(#_242);
      }

      .cls-71 {
        mask: url(#mask-19);
      }

      .cls-72 {
        mask: url(#mask-15);
      }

      .cls-29 {
        fill: url(#_628);
      }

      .cls-73 {
        fill: url(#_604);
      }

      .cls-74 {
        fill: url(#_618);
      }

      .cls-8 {
        fill: url(#_141);
      }

      .cls-9 {
        fill: url(#_622);
      }

      .cls-75 {
        mask: url(#mask-6);
      }

      .cls-76 {
        mask: url(#mask-16);
      }

      .cls-77 {
        mask: url(#mask-18);
      }

      .cls-78 {
        fill: url(#_245);
      }

      .cls-30 {
        fill: url(#_624);
      }

      .cls-79 {
        opacity: .1;
        stroke: #000;
        stroke-miterlimit: 10;
        stroke-width: .25px;
      }

      .cls-80 {
        filter: url(#luminosity-noclip);
      }

      .cls-81 {
        mask: url(#mask-1);
      }

      .cls-82 {
        mask: url(#mask);
      }

      .cls-83 {
        filter: url(#luminosity-noclip-23);
      }

      .cls-84 {
        mask: url(#mask-22);
      }

      .cls-31 {
        fill: url(#_608);
      }

      .cls-85 {
        mask: url(#mask-29);
      }

      .cls-10 {
        fill: url(#_276-2);
      }

      .cls-86 {
        mask: url(#mask-7);
      }

      .cls-32 {
        fill: url(#_631);
      }

      .cls-11 {
        fill: #c69c6d;
      }

      .cls-33 {
        fill: url(#_617);
      }

      .cls-34 {
        fill: url(#_615);
      }

      .cls-87 {
        mask: url(#mask-14);
      }

      .cls-88 {
        filter: url(#luminosity-noclip-19);
      }

      .cls-89 {
        mask: url(#mask-21);
      }

      .cls-90 {
        filter: url(#luminosity-noclip-27);
      }

      .cls-91 {
        mask: url(#mask-11);
      }

      .cls-92 {
        mask: url(#mask-28);
      }

      .cls-35 {
        fill: url(#_614);
      }

      .cls-93 {
        filter: url(#luminosity-noclip-3);
      }

      .cls-36 {
        fill: url(#_613);
      }
    </style>
    <filter id="luminosity-noclip" x="9.23" y="83.82" width="321.9" height="33.39" color-interpolation-filters="sRGB" filterUnits="userSpaceOnUse">
      <feFlood flood-color="#fff" result="bg"/>
      <feBlend in="SourceGraphic" in2="bg"/>
    </filter>
    <filter id="luminosity-noclip-2" x="9.23" y="-8244.79" width="321.9" height="32766" color-interpolation-filters="sRGB" filterUnits="userSpaceOnUse">
      <feFlood flood-color="#fff" result="bg"/>
      <feBlend in="SourceGraphic" in2="bg"/>
    </filter>
    <mask id="mask-1" x="9.23" y="-8244.79" width="321.9" height="32766" maskUnits="userSpaceOnUse"/>
    <linearGradient id="_631" data-name="  631" x1="170.18" y1="117.21" x2="170.18" y2="83.82" gradientUnits="userSpaceOnUse">
      <stop offset="0" stop-color="#000"/>
      <stop offset=".07" stop-color="#2e2e2e"/>
      <stop offset=".14" stop-color="#585858"/>
      <stop offset=".22" stop-color="#7f7f7f"/>
      <stop offset=".31" stop-color="#9f9f9f"/>
      <stop offset=".4" stop-color="#b9b9b9"/>
      <stop offset=".5" stop-color="#cdcdcd"/>
      <stop offset=".62" stop-color="#dbdbdb"/>
      <stop offset=".76" stop-color="#e3e3e3"/>
      <stop offset="1" stop-color="#e6e6e6"/>
    </linearGradient>
    <mask id="mask" x="9.23" y="83.82" width="321.9" height="33.39" maskUnits="userSpaceOnUse">
      <g class="cls-80">
        <g class="cls-81">
          <path class="cls-32" d="m170.18,83.82H9.23c10.07,13.69,18.34,24.82,21.92,28.18,2.38,2.23,4.75,3.23,5.23,3.44,0,0,3.18,1.35,7.19,1.55,5.61.29,56.74.31,126.62-.01,69.88.32,121.01.28,126.62,0,4.01-.2,7.19-1.58,7.19-1.58.48-.2,2.85-1.17,5.23-3.4,3.58-3.36,11.85-14.49,21.92-28.18h-160.95Z"/>
        </g>
      </g>
    </mask>
    <linearGradient id="_239" data-name="  239" x1="170.18" y1="117.21" x2="170.18" y2="83.82" gradientUnits="userSpaceOnUse">
      <stop offset="0" stop-color="#fff"/>
      <stop offset=".03" stop-color="#e9e9e9"/>
      <stop offset=".1" stop-color="#b9b9b9"/>
      <stop offset=".17" stop-color="#8d8d8d"/>
      <stop offset=".25" stop-color="#676767"/>
      <stop offset=".33" stop-color="#474747"/>
      <stop offset=".42" stop-color="#2c2c2c"/>
      <stop offset=".52" stop-color="#181818"/>
      <stop offset=".63" stop-color="#0a0a0a"/>
      <stop offset=".77" stop-color="#020202"/>
      <stop offset="1" stop-color="#000"/>
    </linearGradient>
    <filter id="luminosity-noclip-3" x="9.23" y="83.82" width="321.9" height="33.29" color-interpolation-filters="sRGB" filterUnits="userSpaceOnUse">
      <feFlood flood-color="#fff" result="bg"/>
      <feBlend in="SourceGraphic" in2="bg"/>
    </filter>
    <filter id="luminosity-noclip-4" x="9.23" y="-8244.79" width="321.9" height="32766" color-interpolation-filters="sRGB" filterUnits="userSpaceOnUse">
      <feFlood flood-color="#fff" result="bg"/>
      <feBlend in="SourceGraphic" in2="bg"/>
    </filter>
    <mask id="mask-3" x="9.23" y="-8244.79" width="321.9" height="32766" maskUnits="userSpaceOnUse"/>
    <linearGradient id="_629" data-name="  629" x1="170.18" y1="83.82" x2="170.18" y2="117.11" gradientUnits="userSpaceOnUse">
      <stop offset="0" stop-color="#000"/>
      <stop offset=".23" stop-color="#020202"/>
      <stop offset=".41" stop-color="#0c0c0c"/>
      <stop offset=".56" stop-color="#1c1c1c"/>
      <stop offset=".7" stop-color="#333"/>
      <stop offset=".84" stop-color="#505050"/>
      <stop offset=".96" stop-color="#737373"/>
      <stop offset="1" stop-color="gray"/>
    </linearGradient>
    <mask id="mask-2" x="9.23" y="83.82" width="321.9" height="33.29" maskUnits="userSpaceOnUse">
      <g class="cls-93">
        <g class="cls-47">
          <path class="cls-26" d="m170.18,83.82H9.23c10.07,13.69,18.34,24.76,21.92,28.12,2.38,2.23,4.75,3.21,5.23,3.41,0,0,3.18,1.33,7.19,1.54,5.61.29,56.74.3,126.62-.02,69.88.32,121.01.28,126.62,0,4.01-.2,7.19-1.58,7.19-1.58.48-.2,2.85-1.11,5.23-3.34,3.58-3.36,11.85-14.43,21.92-28.12h-160.95Z"/>
        </g>
      </g>
    </mask>
    <linearGradient id="_141" data-name="  141" x1="170.18" y1="83.82" x2="170.18" y2="117.11" gradientUnits="userSpaceOnUse">
      <stop offset="0" stop-color="#fff"/>
      <stop offset=".18" stop-color="#fcfcfc"/>
      <stop offset=".31" stop-color="#f2f2f2"/>
      <stop offset=".43" stop-color="#e2e2e2"/>
      <stop offset=".54" stop-color="#cbcbcb"/>
      <stop offset=".64" stop-color="#aeaeae"/>
      <stop offset=".74" stop-color="#8a8a8a"/>
      <stop offset=".83" stop-color="#5f5f5f"/>
      <stop offset=".92" stop-color="#2f2f2f"/>
      <stop offset="1" stop-color="#000"/>
    </linearGradient>
    <filter id="luminosity-noclip-5" x="23.61" y="88.8" width="293.15" height="24.73" color-interpolation-filters="sRGB" filterUnits="userSpaceOnUse">
      <feFlood flood-color="#fff" result="bg"/>
      <feBlend in="SourceGraphic" in2="bg"/>
    </filter>
    <filter id="luminosity-noclip-6" x="23.61" y="-8244.79" width="293.15" height="32766" color-interpolation-filters="sRGB" filterUnits="userSpaceOnUse">
      <feFlood flood-color="#fff" result="bg"/>
      <feBlend in="SourceGraphic" in2="bg"/>
    </filter>
    <mask id="mask-5" x="23.61" y="-8244.79" width="293.15" height="32766" maskUnits="userSpaceOnUse"/>
    <linearGradient id="_628" data-name="  628" x1="316.76" y1="101.17" x2="23.61" y2="101.17" gradientUnits="userSpaceOnUse">
      <stop offset="0" stop-color="gray"/>
      <stop offset=".14" stop-color="gray"/>
      <stop offset="1" stop-color="gray"/>
    </linearGradient>
    <mask id="mask-4" x="23.61" y="88.8" width="293.15" height="24.73" maskUnits="userSpaceOnUse">
      <g class="cls-39">
        <g class="cls-57">
          <path class="cls-29" d="m316.62,90.12c-.71-1.26-3.82-1.32-5.25-1.32H29.17c-1.47,0-4.69.06-5.42,1.32-.7,1.2,1.25,2.74,3.18,4.42,8.44,7.33,9.25,10.25,16.9,15.17,1.2.77,2.87,1.78,5.37,2.58,2.92.94,5.61,1.14,7.38,1.17,54.31.08,97.36.09,115.97.06,18.02.04,59.69.01,112.28-.06,1.72-.03,4.32-.23,7.15-1.17,2.42-.8,4.03-1.82,5.2-2.59,7.41-4.92,8.19-7.83,16.36-15.16,1.87-1.68,3.76-3.22,3.08-4.42Z"/>
        </g>
      </g>
    </mask>
    <linearGradient id="_277" data-name="  277" x1="316.76" y1="101.17" x2="23.61" y2="101.17" gradientUnits="userSpaceOnUse">
      <stop offset="0" stop-color="#fff"/>
      <stop offset="0" stop-color="#f5f5f5"/>
      <stop offset=".05" stop-color="#c7c7c7"/>
      <stop offset=".09" stop-color="#9c9c9c"/>
      <stop offset=".14" stop-color="#777"/>
      <stop offset=".2" stop-color="#565656"/>
      <stop offset=".25" stop-color="#3b3b3b"/>
      <stop offset=".32" stop-color="#252525"/>
      <stop offset=".4" stop-color="#141414"/>
      <stop offset=".49" stop-color="#080808"/>
      <stop offset=".63" stop-color="#010101"/>
      <stop offset="1" stop-color="#000"/>
    </linearGradient>
    <filter id="luminosity-noclip-7" x="22.49" y="89.67" width="82.11" height="23.8" color-interpolation-filters="sRGB" filterUnits="userSpaceOnUse">
      <feFlood flood-color="#fff" result="bg"/>
      <feBlend in="SourceGraphic" in2="bg"/>
    </filter>
    <filter id="luminosity-noclip-8" x="22.49" y="-8244.79" width="82.11" height="32766" color-interpolation-filters="sRGB" filterUnits="userSpaceOnUse">
      <feFlood flood-color="#fff" result="bg"/>
      <feBlend in="SourceGraphic" in2="bg"/>
    </filter>
    <mask id="mask-7" x="22.49" y="-8244.79" width="82.11" height="32766" maskUnits="userSpaceOnUse"/>
    <linearGradient id="_626" data-name="  626" x1="48.13" y1="74.87" x2="78.95" y2="128.26" gradientUnits="userSpaceOnUse">
      <stop offset="0" stop-color="#000"/>
      <stop offset=".28" stop-color="#393939"/>
      <stop offset=".62" stop-color="#7a7a7a"/>
      <stop offset=".87" stop-color="#a3a3a3"/>
      <stop offset="1" stop-color="#b3b3b3"/>
    </linearGradient>
    <mask id="mask-6" x="22.49" y="89.67" width="82.11" height="23.8" maskUnits="userSpaceOnUse">
      <g class="cls-18">
        <g class="cls-86">
          <path class="cls-21" d="m104.59,113.45c-17.56,0-35.11,0-52.67.01-1.59-.02-3.98-.23-6.62-1.18-4.62-1.68-7.15-4.63-8.14-5.94-4.89-5.56-9.78-11.11-14.67-16.67,1.79,1.12,4.48,2.88,7.56,5.23,9.04,6.89,9.75,9.94,13.98,13.01,8.1,5.89,16.04,2.36,45.61,4.25,6.49.41,11.73.94,14.95,1.3Z"/>
        </g>
      </g>
    </mask>
    <linearGradient id="_278" data-name="  278" x1="48.13" y1="74.87" x2="78.95" y2="128.26" gradientUnits="userSpaceOnUse">
      <stop offset="0" stop-color="#fff"/>
      <stop offset="1" stop-color="#fff"/>
    </linearGradient>
    <filter id="luminosity-noclip-9" x="235.77" y="89.67" width="82.11" height="23.8" color-interpolation-filters="sRGB" filterUnits="userSpaceOnUse">
      <feFlood flood-color="#fff" result="bg"/>
      <feBlend in="SourceGraphic" in2="bg"/>
    </filter>
    <filter id="luminosity-noclip-10" x="235.77" y="-8244.79" width="82.11" height="32766" color-interpolation-filters="sRGB" filterUnits="userSpaceOnUse">
      <feFlood flood-color="#fff" result="bg"/>
      <feBlend in="SourceGraphic" in2="bg"/>
    </filter>
    <mask id="mask-9" x="235.77" y="-8244.79" width="82.11" height="32766" maskUnits="userSpaceOnUse"/>
    <linearGradient id="_625" data-name="  625" x1="694.73" y1="74.87" x2="725.55" y2="128.26" gradientTransform="translate(986.96) rotate(-180) scale(1 -1)" gradientUnits="userSpaceOnUse">
      <stop offset="0" stop-color="#000"/>
      <stop offset=".04" stop-color="#0f0f0f"/>
      <stop offset=".15" stop-color="#3a3a3a"/>
      <stop offset=".27" stop-color="#5f5f5f"/>
      <stop offset=".39" stop-color="#7e7e7e"/>
      <stop offset=".52" stop-color="#959595"/>
      <stop offset=".66" stop-color="#a6a6a6"/>
      <stop offset=".81" stop-color="#afafaf"/>
      <stop offset="1" stop-color="#b3b3b3"/>
    </linearGradient>
    <mask id="mask-8" x="235.77" y="89.67" width="82.11" height="23.8" maskUnits="userSpaceOnUse">
      <g class="cls-62">
        <g class="cls-55">
          <path class="cls-19" d="m235.77,113.45c17.56,0,35.11,0,52.67.01,1.59-.02,3.98-.23,6.62-1.18,4.62-1.68,7.15-4.63,8.14-5.94,4.89-5.56,9.78-11.11,14.67-16.67-1.79,1.12-4.48,2.88-7.56,5.23-9.04,6.89-9.75,9.94-13.98,13.01-8.1,5.89-16.04,2.36-45.61,4.25-6.49.41-11.73.94-14.95,1.3Z"/>
        </g>
      </g>
    </mask>
    <linearGradient id="_245" data-name="  245" x1="694.73" y1="74.87" x2="725.55" y2="128.26" gradientTransform="translate(986.96) rotate(-180) scale(1 -1)" gradientUnits="userSpaceOnUse">
      <stop offset="0" stop-color="#fff"/>
      <stop offset=".1" stop-color="#fff"/>
      <stop offset="1" stop-color="#fff"/>
    </linearGradient>
    <filter id="luminosity-noclip-11" x="21.02" y="87.14" width="61.68" height="12.09" color-interpolation-filters="sRGB" filterUnits="userSpaceOnUse">
      <feFlood flood-color="#fff" result="bg"/>
      <feBlend in="SourceGraphic" in2="bg"/>
    </filter>
    <filter id="luminosity-noclip-12" x="21.02" y="-8244.79" width="61.68" height="32766" color-interpolation-filters="sRGB" filterUnits="userSpaceOnUse">
      <feFlood flood-color="#fff" result="bg"/>
      <feBlend in="SourceGraphic" in2="bg"/>
    </filter>
    <mask id="mask-11" x="21.02" y="-8244.79" width="61.68" height="32766" maskUnits="userSpaceOnUse"/>
    <linearGradient id="_624" data-name="  624" x1="610.02" y1="261.81" x2="548.34" y2="261.81" gradientTransform="translate(-527.32 354.99) scale(1 -1)" gradientUnits="userSpaceOnUse">
      <stop offset="0" stop-color="#000"/>
      <stop offset="0" stop-color="#010101"/>
      <stop offset=".13" stop-color="#303030"/>
      <stop offset=".26" stop-color="#585858"/>
      <stop offset=".4" stop-color="#797979"/>
      <stop offset=".54" stop-color="#929292"/>
      <stop offset=".68" stop-color="#a4a4a4"/>
      <stop offset=".83" stop-color="#afafaf"/>
      <stop offset="1" stop-color="#b3b3b3"/>
    </linearGradient>
    <mask id="mask-10" x="21.02" y="87.14" width="61.68" height="12.09" maskUnits="userSpaceOnUse">
      <g class="cls-1">
        <g class="cls-91">
          <path class="cls-30" d="m82.7,88.8c-11.38-.62-42.2-2.2-53.46-1.48-2.48.16-7.8.54-8.2,2.36-.16.76.59,1.5,1.19,2.07,1.83,1.74,4.84,4.35,9.4,7.47-1.88-1.45-4.38-3.66-6.78-6.79-.88-1.15-1.32-1.73-1.26-2.02.64-2.97,18.03-1,43.61-1.22,6.51-.06,11.87-.24,15.49-.39Z"/>
        </g>
      </g>
    </mask>
    <linearGradient id="_242" data-name="  242" x1="610.02" y1="261.81" x2="548.34" y2="261.81" gradientTransform="translate(-527.32 354.99) scale(1 -1)" gradientUnits="userSpaceOnUse">
      <stop offset="0" stop-color="#fff"/>
      <stop offset=".06" stop-color="#fff"/>
      <stop offset="1" stop-color="#fff"/>
    </linearGradient>
    <filter id="luminosity-noclip-13" x="46.58" y="88.8" width="248.7" height="17.8" color-interpolation-filters="sRGB" filterUnits="userSpaceOnUse">
      <feFlood flood-color="#fff" result="bg"/>
      <feBlend in="SourceGraphic" in2="bg"/>
    </filter>
    <filter id="luminosity-noclip-14" x="46.58" y="-8244.79" width="248.7" height="32766" color-interpolation-filters="sRGB" filterUnits="userSpaceOnUse">
      <feFlood flood-color="#fff" result="bg"/>
      <feBlend in="SourceGraphic" in2="bg"/>
    </filter>
    <mask id="mask-13" x="46.58" y="-8244.79" width="248.7" height="32766" maskUnits="userSpaceOnUse"/>
    <linearGradient id="_620" data-name="  620" x1="46.58" y1="97.7" x2="295.28" y2="97.7" gradientUnits="userSpaceOnUse">
      <stop offset="0" stop-color="#000"/>
      <stop offset=".07" stop-color="#171717"/>
      <stop offset=".25" stop-color="#4e4e4e"/>
      <stop offset=".42" stop-color="#7b7b7b"/>
      <stop offset=".59" stop-color="#9e9e9e"/>
      <stop offset=".74" stop-color="#b7b7b7"/>
      <stop offset=".89" stop-color="#c6c6c6"/>
      <stop offset="1" stop-color="#ccc"/>
    </linearGradient>
    <mask id="mask-12" x="46.58" y="88.8" width="248.7" height="17.8" maskUnits="userSpaceOnUse">
      <g class="cls-37">
        <g class="cls-45">
          <rect class="cls-27" x="46.58" y="88.8" width="248.7" height="17.8"/>
        </g>
      </g>
    </mask>
    <linearGradient id="_276" data-name="  276" x1="46.58" y1="97.7" x2="295.28" y2="97.7" gradientUnits="userSpaceOnUse">
      <stop offset="0" stop-color="#fff"/>
      <stop offset=".02" stop-color="#f5f5f5"/>
      <stop offset=".18" stop-color="#b5b5b5"/>
      <stop offset=".34" stop-color="#7d7d7d"/>
      <stop offset=".49" stop-color="#505050"/>
      <stop offset=".64" stop-color="#2d2d2d"/>
      <stop offset=".78" stop-color="#141414"/>
      <stop offset=".9" stop-color="#050505"/>
      <stop offset="1" stop-color="#000"/>
    </linearGradient>
    <filter id="luminosity-noclip-15" x="46.58" y="106.6" width="248.7" height="3" color-interpolation-filters="sRGB" filterUnits="userSpaceOnUse">
      <feFlood flood-color="#fff" result="bg"/>
      <feBlend in="SourceGraphic" in2="bg"/>
    </filter>
    <filter id="luminosity-noclip-16" x="46.58" y="-8244.79" width="248.7" height="32766" color-interpolation-filters="sRGB" filterUnits="userSpaceOnUse">
      <feFlood flood-color="#fff" result="bg"/>
      <feBlend in="SourceGraphic" in2="bg"/>
    </filter>
    <mask id="mask-15" x="46.58" y="-8244.79" width="248.7" height="32766" maskUnits="userSpaceOnUse"/>
    <linearGradient id="_619" data-name="  619" x1="170.93" y1="106.6" x2="170.93" y2="109.59" gradientUnits="userSpaceOnUse">
      <stop offset=".63" stop-color="#000"/>
      <stop offset=".64" stop-color="#090909"/>
      <stop offset=".67" stop-color="#363636"/>
      <stop offset=".7" stop-color="#5e5e5e"/>
      <stop offset=".74" stop-color="gray"/>
      <stop offset=".78" stop-color="#9c9c9c"/>
      <stop offset=".82" stop-color="#b1b1b1"/>
      <stop offset=".86" stop-color="silver"/>
      <stop offset=".92" stop-color="#c9c9c9"/>
      <stop offset="1" stop-color="#ccc"/>
    </linearGradient>
    <mask id="mask-14" x="46.58" y="106.6" width="248.7" height="3" maskUnits="userSpaceOnUse">
      <g class="cls-51">
        <g class="cls-72">
          <polygon class="cls-28" points="292.53 109.59 49.33 109.59 46.58 106.6 295.28 106.6 292.53 109.59"/>
        </g>
      </g>
    </mask>
    <linearGradient id="_275" data-name="  275" x1="170.93" y1="106.6" x2="170.93" y2="109.59" gradientUnits="userSpaceOnUse">
      <stop offset=".63" stop-color="#fff"/>
      <stop offset=".64" stop-color="#f7f7f7"/>
      <stop offset=".66" stop-color="#c3c3c3"/>
      <stop offset=".69" stop-color="#959595"/>
      <stop offset=".73" stop-color="#6d6d6d"/>
      <stop offset=".76" stop-color="#4b4b4b"/>
      <stop offset=".79" stop-color="#2f2f2f"/>
      <stop offset=".83" stop-color="#1a1a1a"/>
      <stop offset=".88" stop-color="#0b0b0b"/>
      <stop offset=".92" stop-color="#020202"/>
      <stop offset="1" stop-color="#000"/>
    </linearGradient>
    <filter id="luminosity-noclip-17" x="46.58" y="88.8" width="248.7" height="17.8" color-interpolation-filters="sRGB" filterUnits="userSpaceOnUse">
      <feFlood flood-color="#fff" result="bg"/>
      <feBlend in="SourceGraphic" in2="bg"/>
    </filter>
    <filter id="luminosity-noclip-18" x="46.58" y="-8244.79" width="248.7" height="32766" color-interpolation-filters="sRGB" filterUnits="userSpaceOnUse">
      <feFlood flood-color="#fff" result="bg"/>
      <feBlend in="SourceGraphic" in2="bg"/>
    </filter>
    <mask id="mask-17" x="46.58" y="-8244.79" width="248.7" height="32766" maskUnits="userSpaceOnUse"/>
    <linearGradient id="_617" data-name="  617" x1="46.58" y1="97.7" x2="295.28" y2="97.7" gradientUnits="userSpaceOnUse">
      <stop offset="0" stop-color="#000"/>
      <stop offset=".07" stop-color="#171717"/>
      <stop offset=".25" stop-color="#4e4e4e"/>
      <stop offset=".42" stop-color="#7b7b7b"/>
      <stop offset=".59" stop-color="#9e9e9e"/>
      <stop offset=".74" stop-color="#b7b7b7"/>
      <stop offset=".89" stop-color="#c6c6c6"/>
      <stop offset="1" stop-color="#ccc"/>
    </linearGradient>
    <mask id="mask-16" x="46.58" y="88.8" width="248.7" height="17.8" maskUnits="userSpaceOnUse">
      <g class="cls-13">
        <g class="cls-38">
          <rect class="cls-33" x="46.58" y="88.8" width="248.7" height="17.8"/>
        </g>
      </g>
    </mask>
    <filter id="luminosity-noclip-19" x="46.58" y="106.6" width="248.7" height="3" color-interpolation-filters="sRGB" filterUnits="userSpaceOnUse">
      <feFlood flood-color="#fff" result="bg"/>
      <feBlend in="SourceGraphic" in2="bg"/>
    </filter>
    <filter id="luminosity-noclip-20" x="46.58" y="-8244.79" width="248.7" height="32766" color-interpolation-filters="sRGB" filterUnits="userSpaceOnUse">
      <feFlood flood-color="#fff" result="bg"/>
      <feBlend in="SourceGraphic" in2="bg"/>
    </filter>
    <mask id="mask-19" x="46.58" y="-8244.79" width="248.7" height="32766" maskUnits="userSpaceOnUse"/>
    <linearGradient id="_615" data-name="  615" x1="170.93" y1="106.6" x2="170.93" y2="109.59" gradientUnits="userSpaceOnUse">
      <stop offset=".63" stop-color="#000"/>
      <stop offset=".64" stop-color="#090909"/>
      <stop offset=".67" stop-color="#363636"/>
      <stop offset=".7" stop-color="#5e5e5e"/>
      <stop offset=".74" stop-color="gray"/>
      <stop offset=".78" stop-color="#9c9c9c"/>
      <stop offset=".82" stop-color="#b1b1b1"/>
      <stop offset=".86" stop-color="silver"/>
      <stop offset=".92" stop-color="#c9c9c9"/>
      <stop offset="1" stop-color="#ccc"/>
    </linearGradient>
    <mask id="mask-18" x="46.58" y="106.6" width="248.7" height="3" maskUnits="userSpaceOnUse">
      <g class="cls-88">
        <g class="cls-71">
          <polygon class="cls-34" points="292.53 109.59 49.33 109.59 46.58 106.6 295.28 106.6 292.53 109.59"/>
        </g>
      </g>
    </mask>
    <filter id="luminosity-noclip-21" x="35.76" y="88.8" width="270.34" height="8.9" color-interpolation-filters="sRGB" filterUnits="userSpaceOnUse">
      <feFlood flood-color="#fff" result="bg"/>
      <feBlend in="SourceGraphic" in2="bg"/>
    </filter>
    <filter id="luminosity-noclip-22" x="35.76" y="-8244.79" width="270.34" height="32766" color-interpolation-filters="sRGB" filterUnits="userSpaceOnUse">
      <feFlood flood-color="#fff" result="bg"/>
      <feBlend in="SourceGraphic" in2="bg"/>
    </filter>
    <mask id="mask-21" x="35.76" y="-8244.79" width="270.34" height="32766" maskUnits="userSpaceOnUse"/>
    <linearGradient id="_614" data-name="  614" x1="306.1" y1="93.25" x2="35.76" y2="93.25" gradientUnits="userSpaceOnUse">
      <stop offset="0" stop-color="#000"/>
      <stop offset=".07" stop-color="#171717"/>
      <stop offset=".25" stop-color="#4e4e4e"/>
      <stop offset=".42" stop-color="#7b7b7b"/>
      <stop offset=".59" stop-color="#9e9e9e"/>
      <stop offset=".74" stop-color="#b7b7b7"/>
      <stop offset=".89" stop-color="#c6c6c6"/>
      <stop offset="1" stop-color="#ccc"/>
    </linearGradient>
    <mask id="mask-20" x="35.76" y="88.8" width="270.34" height="8.9" maskUnits="userSpaceOnUse">
      <g class="cls-59">
        <g class="cls-89">
          <rect class="cls-35" x="35.76" y="88.8" width="270.34" height="8.9"/>
        </g>
      </g>
    </mask>
    <linearGradient id="_276-2" data-name="  276" x1="306.1" y1="93.25" x2="35.76" y2="93.25" xlink:href="#_276"/>
    <filter id="luminosity-noclip-23" x="35.76" y="97.7" width="270.34" height="3" color-interpolation-filters="sRGB" filterUnits="userSpaceOnUse">
      <feFlood flood-color="#fff" result="bg"/>
      <feBlend in="SourceGraphic" in2="bg"/>
    </filter>
    <filter id="luminosity-noclip-24" x="35.76" y="-8244.79" width="270.34" height="32766" color-interpolation-filters="sRGB" filterUnits="userSpaceOnUse">
      <feFlood flood-color="#fff" result="bg"/>
      <feBlend in="SourceGraphic" in2="bg"/>
    </filter>
    <mask id="mask-23" x="35.76" y="-8244.79" width="270.34" height="32766" maskUnits="userSpaceOnUse"/>
    <linearGradient id="_613" data-name="  613" x1="170.93" y1="97.7" x2="170.93" y2="100.69" gradientUnits="userSpaceOnUse">
      <stop offset=".63" stop-color="#000"/>
      <stop offset=".64" stop-color="#090909"/>
      <stop offset=".67" stop-color="#363636"/>
      <stop offset=".7" stop-color="#5e5e5e"/>
      <stop offset=".74" stop-color="gray"/>
      <stop offset=".78" stop-color="#9c9c9c"/>
      <stop offset=".82" stop-color="#b1b1b1"/>
      <stop offset=".86" stop-color="silver"/>
      <stop offset=".92" stop-color="#c9c9c9"/>
      <stop offset="1" stop-color="#ccc"/>
    </linearGradient>
    <mask id="mask-22" x="35.76" y="97.7" width="270.34" height="3" maskUnits="userSpaceOnUse">
      <g class="cls-83">
        <g class="cls-14">
          <polygon class="cls-36" points="303.11 100.69 38.75 100.69 35.76 97.7 306.1 97.7 303.11 100.69"/>
        </g>
      </g>
    </mask>
    <linearGradient id="_275-2" data-name="  275" x1="170.93" y1="97.7" x2="170.93" y2="100.69" xlink:href="#_275"/>
    <filter id="luminosity-noclip-25" x=".12" y="0" width="340.4" height="86.52" color-interpolation-filters="sRGB" filterUnits="userSpaceOnUse">
      <feFlood flood-color="#fff" result="bg"/>
      <feBlend in="SourceGraphic" in2="bg"/>
    </filter>
    <filter id="luminosity-noclip-26" x=".12" y="-8244.79" width="340.4" height="32766" color-interpolation-filters="sRGB" filterUnits="userSpaceOnUse">
      <feFlood flood-color="#fff" result="bg"/>
      <feBlend in="SourceGraphic" in2="bg"/>
    </filter>
    <mask id="mask-25" x=".12" y="-8244.79" width="340.4" height="32766" maskUnits="userSpaceOnUse"/>
    <linearGradient id="_612" data-name="  612" x1=".12" y1="43.26" x2="340.52" y2="43.26" gradientUnits="userSpaceOnUse">
      <stop offset="0" stop-color="#000"/>
      <stop offset=".1" stop-color="#2e2e2e"/>
      <stop offset=".2" stop-color="#585858"/>
      <stop offset=".3" stop-color="#7c7c7c"/>
      <stop offset=".41" stop-color="#999"/>
      <stop offset=".53" stop-color="#afafaf"/>
      <stop offset=".66" stop-color="#bfbfbf"/>
      <stop offset=".8" stop-color="#c9c9c9"/>
      <stop offset="1" stop-color="#ccc"/>
    </linearGradient>
    <mask id="mask-24" x=".12" y="0" width="340.4" height="86.52" maskUnits="userSpaceOnUse">
      <g class="cls-43">
        <g class="cls-65">
          <rect class="cls-25" x=".12" width="340.4" height="86.52" rx="15.04" ry="15.04"/>
        </g>
      </g>
    </mask>
    <linearGradient id="_622" data-name="  622" x1=".12" y1="43.26" x2="340.52" y2="43.26" gradientUnits="userSpaceOnUse">
      <stop offset="0" stop-color="#fff"/>
      <stop offset=".08" stop-color="#cecece"/>
      <stop offset=".17" stop-color="#9e9e9e"/>
      <stop offset=".26" stop-color="#737373"/>
      <stop offset=".36" stop-color="#4f4f4f"/>
      <stop offset=".46" stop-color="#323232"/>
      <stop offset=".57" stop-color="#1c1c1c"/>
      <stop offset=".69" stop-color="#0c0c0c"/>
      <stop offset=".82" stop-color="#020202"/>
      <stop offset="1" stop-color="#000"/>
    </linearGradient>
    <filter id="luminosity-noclip-27" x="5.93" y="2.86" width="328.51" height="80.79" color-interpolation-filters="sRGB" filterUnits="userSpaceOnUse">
      <feFlood flood-color="#fff" result="bg"/>
      <feBlend in="SourceGraphic" in2="bg"/>
    </filter>
    <filter id="luminosity-noclip-28" x="5.93" y="-8244.79" width="328.51" height="32766" color-interpolation-filters="sRGB" filterUnits="userSpaceOnUse">
      <feFlood flood-color="#fff" result="bg"/>
      <feBlend in="SourceGraphic" in2="bg"/>
    </filter>
    <mask id="mask-27" x="5.93" y="-8244.79" width="328.51" height="32766" maskUnits="userSpaceOnUse"/>
    <linearGradient id="_611" data-name="  611" x1="306.34" y1="-35.35" x2="34.03" y2="121.87" gradientUnits="userSpaceOnUse">
      <stop offset="0" stop-color="#000"/>
      <stop offset=".33" stop-color="#4d4d4d"/>
      <stop offset=".65" stop-color="#919191"/>
      <stop offset=".88" stop-color="#bbb"/>
      <stop offset="1" stop-color="#ccc"/>
    </linearGradient>
    <mask id="mask-26" x="5.93" y="2.86" width="328.51" height="80.79" maskUnits="userSpaceOnUse">
      <g class="cls-90">
        <g class="cls-15">
          <rect class="cls-24" x="5.93" y="2.86" width="328.51" height="80.79" rx="14.28" ry="14.28"/>
        </g>
      </g>
    </mask>
    <linearGradient id="_616" data-name="  616" x1="306.34" y1="-35.35" x2="34.03" y2="121.87" gradientUnits="userSpaceOnUse">
      <stop offset="0" stop-color="#fff"/>
      <stop offset=".12" stop-color="#dcdcdc"/>
      <stop offset=".44" stop-color="#7f7f7f"/>
      <stop offset=".71" stop-color="#3a3a3a"/>
      <stop offset=".9" stop-color="#101010"/>
      <stop offset="1" stop-color="#000"/>
    </linearGradient>
    <filter id="luminosity-noclip-29" x="5.43" y="33.56" width="202.56" height="50.21" color-interpolation-filters="sRGB" filterUnits="userSpaceOnUse">
      <feFlood flood-color="#fff" result="bg"/>
      <feBlend in="SourceGraphic" in2="bg"/>
    </filter>
    <filter id="luminosity-noclip-30" x="5.43" y="-8244.79" width="202.56" height="32766" color-interpolation-filters="sRGB" filterUnits="userSpaceOnUse">
      <feFlood flood-color="#fff" result="bg"/>
      <feBlend in="SourceGraphic" in2="bg"/>
    </filter>
    <mask id="mask-29" x="5.43" y="-8244.79" width="202.56" height="32766" maskUnits="userSpaceOnUse"/>
    <linearGradient id="_610" data-name="  610" x1="62.32" y1=".99" x2="134.53" y2="126.07" gradientUnits="userSpaceOnUse">
      <stop offset="0" stop-color="#000"/>
      <stop offset=".14" stop-color="#040404"/>
      <stop offset=".29" stop-color="#101010"/>
      <stop offset=".45" stop-color="#262626"/>
      <stop offset=".6" stop-color="#434343"/>
      <stop offset=".76" stop-color="#696969"/>
      <stop offset=".92" stop-color="#979797"/>
      <stop offset="1" stop-color="#b3b3b3"/>
    </linearGradient>
    <mask id="mask-28" x="5.43" y="33.56" width="202.56" height="50.21" maskUnits="userSpaceOnUse">
      <g class="cls-49">
        <g class="cls-85">
          <path class="cls-20" d="m208,83.65H35.77c-2.23.15-10.17.52-17.99-1.98-9.6-3.08-11.59-8.13-11.91-9-.72-31.33-.44-39.11.06-39.12.6,0,1.23,11.2,5.63,28.53,2.01,7.94,3.02,11.9,4.21,12.89,13.88,11.45,59.21,5.18,143.98,6.91,20.66.42,37.49,1.19,48.24,1.76Z"/>
        </g>
      </g>
    </mask>
    <linearGradient id="_603" data-name="  603" x1="62.32" y1=".99" x2="134.53" y2="126.07" gradientUnits="userSpaceOnUse">
      <stop offset="0" stop-color="#fff"/>
      <stop offset="1" stop-color="#fff"/>
    </linearGradient>
    <filter id="luminosity-noclip-31" x="131.89" y="2.37" width="202.56" height="50.21" color-interpolation-filters="sRGB" filterUnits="userSpaceOnUse">
      <feFlood flood-color="#fff" result="bg"/>
      <feBlend in="SourceGraphic" in2="bg"/>
    </filter>
    <filter id="luminosity-noclip-32" x="131.89" y="-8244.79" width="202.56" height="32766" color-interpolation-filters="sRGB" filterUnits="userSpaceOnUse">
      <feFlood flood-color="#fff" result="bg"/>
      <feBlend in="SourceGraphic" in2="bg"/>
    </filter>
    <mask id="mask-31" x="131.89" y="-8244.79" width="202.56" height="32766" maskUnits="userSpaceOnUse"/>
    <linearGradient id="_609" data-name="  609" x1="-191.82" y1="-36.68" x2="-119.61" y2="88.4" gradientTransform="translate(85.75 48.46) rotate(-180)" gradientUnits="userSpaceOnUse">
      <stop offset="0" stop-color="#000"/>
      <stop offset="1" stop-color="#b3b3b3"/>
    </linearGradient>
    <mask id="mask-30" x="131.89" y="2.37" width="202.56" height="50.21" maskUnits="userSpaceOnUse">
      <g class="cls-44">
        <g class="cls-50">
          <path class="cls-23" d="m131.89,2.48h172.23c2.23-.15,10.17-.52,17.99,1.98,9.6,3.08,11.59,8.13,11.91,9,.72,31.33.44,39.11-.06,39.12-.6,0-1.23-11.2-5.63-28.53-2.01-7.94-3.02-11.9-4.21-12.89-13.88-11.45-59.21-5.18-143.98-6.91-20.66-.42-37.49-1.2-48.24-1.76Z"/>
        </g>
      </g>
    </mask>
    <linearGradient id="_604" data-name="  604" x1="-191.82" y1="-36.68" x2="-119.61" y2="88.4" gradientTransform="translate(85.75 48.46) rotate(-180)" gradientUnits="userSpaceOnUse">
      <stop offset="0" stop-color="#fff"/>
      <stop offset="1" stop-color="#fff"/>
    </linearGradient>
    <filter id="luminosity-noclip-33" x="21.5" y="35.69" width="318.04" height="52.23" color-interpolation-filters="sRGB" filterUnits="userSpaceOnUse">
      <feFlood flood-color="#fff" result="bg"/>
      <feBlend in="SourceGraphic" in2="bg"/>
    </filter>
    <filter id="luminosity-noclip-34" x="21.5" y="-8244.79" width="318.04" height="32766" color-interpolation-filters="sRGB" filterUnits="userSpaceOnUse">
      <feFlood flood-color="#fff" result="bg"/>
      <feBlend in="SourceGraphic" in2="bg"/>
    </filter>
    <mask id="mask-33" x="21.5" y="-8244.79" width="318.04" height="32766" maskUnits="userSpaceOnUse"/>
    <linearGradient id="_608" data-name="  608" x1="64.25" y1="-183.66" x2="-253.78" y2="-183.66" gradientTransform="translate(85.75 245.46) rotate(-180) scale(1 -1)" gradientUnits="userSpaceOnUse">
      <stop offset="0" stop-color="#000"/>
      <stop offset=".19" stop-color="#2c2c2c"/>
      <stop offset=".63" stop-color="#9c9c9c"/>
      <stop offset="1" stop-color="#fff"/>
    </linearGradient>
    <mask id="mask-32" x="21.5" y="35.69" width="318.04" height="52.23" maskUnits="userSpaceOnUse">
      <g class="cls-67">
        <g class="cls-42">
          <path class="cls-31" d="m21.5,86.52c-.17,4.28,258.67-2.87,287.31-.16,2.11.2,10.15,1.13,18.57-2.56,5.95-2.61,9.81-6.53,11.91-9,.25-18.85.42-39.11-.06-39.12-.11,0-.22,1.04-.3,1.83-1.16,11.57-.58,19.22-1.3,26.46-.81,8.11-1.43,12.15-4.76,15.43-1.82,1.8-5.56,4.45-23.24,5.28-8.58.4-12.87.6-19.94-.1-6.29-.63-39.25-.64-105.19-.67-26.21-.01-45.21.24-66.61.52-64.24.84-96.36,1.27-96.39,2.07Z"/>
        </g>
      </g>
    </mask>
    <linearGradient id="_238" data-name="  238" x1="64.25" y1="-183.66" x2="-253.78" y2="-183.66" gradientTransform="translate(85.75 245.46) rotate(-180) scale(1 -1)" gradientUnits="userSpaceOnUse">
      <stop offset="0" stop-color="#fff"/>
      <stop offset="1" stop-color="#fff"/>
    </linearGradient>
    <filter id="luminosity-noclip-35" x="5.93" y="2.84" width="328.51" height="80.79" color-interpolation-filters="sRGB" filterUnits="userSpaceOnUse">
      <feFlood flood-color="#fff" result="bg"/>
      <feBlend in="SourceGraphic" in2="bg"/>
    </filter>
    <filter id="luminosity-noclip-36" x="5.93" y="-8244.79" width="328.51" height="32766" color-interpolation-filters="sRGB" filterUnits="userSpaceOnUse">
      <feFlood flood-color="#fff" result="bg"/>
      <feBlend in="SourceGraphic" in2="bg"/>
    </filter>
    <mask id="mask-35" x="5.93" y="-8244.79" width="328.51" height="32766" maskUnits="userSpaceOnUse"/>
    <linearGradient id="_607" data-name="  607" x1="127.43" y1="-59.22" x2="237.54" y2="131.49" gradientUnits="userSpaceOnUse">
      <stop offset="0" stop-color="#000"/>
      <stop offset=".14" stop-color="#060606"/>
      <stop offset=".34" stop-color="#191919"/>
      <stop offset=".58" stop-color="#383838"/>
      <stop offset=".85" stop-color="#636363"/>
      <stop offset="1" stop-color="gray"/>
    </linearGradient>
    <mask id="mask-34" x="5.93" y="2.84" width="328.51" height="80.79" maskUnits="userSpaceOnUse">
      <g class="cls-64">
        <g class="cls-60">
          <path class="cls-22" d="m308.63,83.63c-46.74-7.65-81.4-16.51-103.72-22.91-45.27-12.98-61.22-21.97-102.3-31.4C63.39,20.32,28.14,17.1,5.93,15.74c0-.86.17-5.43,7.56-9.12,4.67-2.33,11.12-3.78,18.24-3.78h276.9c14.25,0,25.8,5.78,25.8,12.9v54.98c0,7.13-11.55,12.9-25.8,12.9Z"/>
        </g>
      </g>
    </mask>
    <linearGradient id="_618" data-name="  618" x1="127.43" y1="-59.22" x2="237.54" y2="131.49" gradientUnits="userSpaceOnUse">
      <stop offset="0" stop-color="#fff"/>
      <stop offset="1" stop-color="#fff"/>
    </linearGradient>
  </defs>
  <path class="cls-79" d="m35.62,124.74l.13-73.81c0-4.37,6.58-7.91,14.68-7.91l285.08.13c8.1,0,14.66,3.55,14.65,7.92l-.13,73.81c0,4.37-6.58,7.91-14.68,7.91l-285.08-.12c-8.1,0-14.66-3.55-14.65-7.92Z"/>
  <g>
    <g>
      <g>
        <path class="cls-53" d="m170.18,83.82H9.23c10.07,13.69,18.34,24.82,21.92,28.18,2.38,2.23,4.75,3.23,5.23,3.44,0,0,3.18,1.35,7.19,1.55,5.61.29,56.74.31,126.62-.01,69.88.32,121.01.28,126.62,0,4.01-.2,7.19-1.58,7.19-1.58.48-.2,2.85-1.17,5.23-3.4,3.58-3.36,11.85-14.49,21.92-28.18h-160.95Z"/>
        <g class="cls-82">
          <path class="cls-6" d="m170.18,83.82H9.23c10.07,13.69,18.34,24.82,21.92,28.18,2.38,2.23,4.75,3.23,5.23,3.44,0,0,3.18,1.35,7.19,1.55,5.61.29,56.74.31,126.62-.01,69.88.32,121.01.28,126.62,0,4.01-.2,7.19-1.58,7.19-1.58.48-.2,2.85-1.17,5.23-3.4,3.58-3.36,11.85-14.49,21.92-28.18h-160.95Z"/>
        </g>
        <g class="cls-40">
          <path class="cls-8" d="m170.18,83.82H9.23c10.07,13.69,18.34,24.76,21.92,28.12,2.38,2.23,4.75,3.21,5.23,3.41,0,0,3.18,1.33,7.19,1.54,5.61.29,56.74.3,126.62-.02,69.88.32,121.01.28,126.62,0,4.01-.2,7.19-1.58,7.19-1.58.48-.2,2.85-1.11,5.23-3.34,3.58-3.36,11.85-14.43,21.92-28.12h-160.95Z"/>
        </g>
        <path class="cls-11" d="m316.62,90.12c-.71-1.26-3.82-1.32-5.25-1.32H29.17c-1.47,0-4.69.06-5.42,1.32-.7,1.2,1.25,2.74,3.18,4.42,8.44,7.33,9.25,10.25,16.9,15.17,1.2.77,2.87,1.78,5.37,2.58,2.92.94,5.61,1.14,7.38,1.17,54.31.08,97.36.09,115.97.06,18.02.04,59.69.01,112.28-.06,1.72-.03,4.32-.23,7.15-1.17,2.42-.8,4.03-1.82,5.2-2.59,7.41-4.92,8.19-7.83,16.36-15.16,1.87-1.68,3.76-3.22,3.08-4.42Z"/>
        <g class="cls-68">
          <path class="cls-5" d="m316.62,90.12c-.71-1.26-3.82-1.32-5.25-1.32H29.17c-1.47,0-4.69.06-5.42,1.32-.7,1.2,1.25,2.74,3.18,4.42,8.44,7.33,9.25,10.25,16.9,15.17,1.2.77,2.87,1.78,5.37,2.58,2.92.94,5.61,1.14,7.38,1.17,54.31.08,97.36.09,115.97.06,18.02.04,59.69.01,112.28-.06,1.72-.03,4.32-.23,7.15-1.17,2.42-.8,4.03-1.82,5.2-2.59,7.41-4.92,8.19-7.83,16.36-15.16,1.87-1.68,3.76-3.22,3.08-4.42Z"/>
        </g>
        <g class="cls-75">
          <path class="cls-12" d="m104.59,113.45c-17.56,0-35.11,0-52.67.01-1.59-.02-3.98-.23-6.62-1.18-4.62-1.68-7.15-4.63-8.14-5.94-4.89-5.56-9.78-11.11-14.67-16.67,1.79,1.12,4.48,2.88,7.56,5.23,9.04,6.89,9.75,9.94,13.98,13.01,8.1,5.89,16.04,2.36,45.61,4.25,6.49.41,11.73.94,14.95,1.3Z"/>
        </g>
        <g class="cls-66">
          <path class="cls-78" d="m235.77,113.45c17.56,0,35.11,0,52.67.01,1.59-.02,3.98-.23,6.62-1.18,4.62-1.68,7.15-4.63,8.14-5.94,4.89-5.56,9.78-11.11,14.67-16.67-1.79,1.12-4.48,2.88-7.56,5.23-9.04,6.89-9.75,9.94-13.98,13.01-8.1,5.89-16.04,2.36-45.61,4.25-6.49.41-11.73.94-14.95,1.3Z"/>
        </g>
        <g class="cls-16">
          <path class="cls-70" d="m82.7,88.8c-11.38-.62-42.2-2.2-53.46-1.48-2.48.16-7.8.54-8.2,2.36-.16.76.59,1.5,1.19,2.07,1.83,1.74,4.84,4.35,9.4,7.47-1.88-1.45-4.38-3.66-6.78-6.79-.88-1.15-1.32-1.73-1.26-2.02.64-2.97,18.03-1,43.61-1.22,6.51-.06,11.87-.24,15.49-.39Z"/>
        </g>
      </g>
      <g>
        <rect class="cls-53" x="46.58" y="88.8" width="248.7" height="17.8"/>
        <g class="cls-56">
          <rect class="cls-2" x="46.58" y="88.8" width="248.7" height="17.8"/>
        </g>
        <polygon class="cls-46" points="292.53 109.59 49.33 109.59 46.58 106.6 295.28 106.6 292.53 109.59"/>
        <g class="cls-87">
          <polygon class="cls-4" points="292.53 109.59 49.33 109.59 46.58 106.6 295.28 106.6 292.53 109.59"/>
        </g>
        <g>
          <rect class="cls-53" x="46.58" y="88.8" width="248.7" height="17.8"/>
          <g class="cls-76">
            <rect class="cls-2" x="46.58" y="88.8" width="248.7" height="17.8"/>
          </g>
          <polygon class="cls-46" points="292.53 109.59 49.33 109.59 46.58 106.6 295.28 106.6 292.53 109.59"/>
          <g class="cls-77">
            <polygon class="cls-4" points="292.53 109.59 49.33 109.59 46.58 106.6 295.28 106.6 292.53 109.59"/>
          </g>
        </g>
      </g>
      <g>
        <g>
          <rect class="cls-53" x="35.76" y="88.8" width="270.34" height="8.9"/>
          <g class="cls-61">
            <rect class="cls-10" x="35.76" y="88.8" width="270.34" height="8.9"/>
          </g>
        </g>
        <g>
          <polygon class="cls-46" points="303.11 100.69 38.75 100.69 35.76 97.7 306.1 97.7 303.11 100.69"/>
          <g class="cls-84">
            <polygon class="cls-3" points="303.11 100.69 38.75 100.69 35.76 97.7 306.1 97.7 303.11 100.69"/>
          </g>
        </g>
      </g>
    </g>
    <g>
      <path class="cls-58" d="m15.04,0h310.31c8.3,0,15.04,6.74,15.04,15.04v56.43c0,8.3-6.74,15.04-15.04,15.04H15.04c-8.3,0-15.04-6.74-15.04-15.04V15.04C0,6.74,6.74,0,15.04,0Z"/>
      <g class="cls-69">
        <rect class="cls-9" x=".12" width="340.4" height="86.52" rx="15.04" ry="15.04"/>
      </g>
      <rect class="cls-53" x="5.95" y="2.86" width="328.51" height="80.79" rx="14.28" ry="14.28"/>
      <g class="cls-17">
        <rect class="cls-7" x="5.93" y="2.86" width="328.51" height="80.79" rx="14.28" ry="14.28"/>
      </g>
      <g class="cls-92">
        <path class="cls-63" d="m208,83.65H35.77c-2.23.15-10.17.52-17.99-1.98-9.6-3.08-11.59-8.13-11.91-9-.72-31.33-.44-39.11.06-39.12.6,0,1.23,11.2,5.63,28.53,2.01,7.94,3.02,11.9,4.21,12.89,13.88,11.45,59.21,5.18,143.98,6.91,20.66.42,37.49,1.19,48.24,1.76Z"/>
      </g>
      <g class="cls-52">
        <path class="cls-73" d="m131.89,2.48h172.23c2.23-.15,10.17-.52,17.99,1.98,9.6,3.08,11.59,8.13,11.91,9,.72,31.33.44,39.11-.06,39.12-.6,0-1.23-11.2-5.63-28.53-2.01-7.94-3.02-11.9-4.21-12.89-13.88-11.45-59.21-5.18-143.98-6.91-20.66-.42-37.49-1.2-48.24-1.76Z"/>
      </g>
      <g class="cls-54">
        <path class="cls-48" d="m21.5,86.52c-.17,4.28,258.67-2.87,287.31-.16,2.11.2,10.15,1.13,18.57-2.56,5.95-2.61,9.81-6.53,11.91-9,.25-18.85.42-39.11-.06-39.12-.11,0-.22,1.04-.3,1.83-1.16,11.57-.58,19.22-1.3,26.46-.81,8.11-1.43,12.15-4.76,15.43-1.82,1.8-5.56,4.45-23.24,5.28-8.58.4-12.87.6-19.94-.1-6.29-.63-39.25-.64-105.19-.67-26.21-.01-45.21.24-66.61.52-64.24.84-96.36,1.27-96.39,2.07Z"/>
      </g>
      <g class="cls-41">
        <path class="cls-74" d="m308.63,83.63c-46.74-7.65-81.4-16.51-103.72-22.91-45.27-12.98-61.22-21.97-102.3-31.4C63.39,20.32,28.14,17.1,5.93,15.74c0-.86.17-5.43,7.56-9.12,4.67-2.33,11.12-3.78,18.24-3.78h276.9c14.25,0,25.8,5.78,25.8,12.9v54.98c0,7.13-11.55,12.9-25.8,12.9Z"/>
      </g>
    </g>
  </g>
</svg>