<?xml version="1.0" encoding="UTF-8"?>
<svg xmlns="http://www.w3.org/2000/svg" xmlns:xlink="http://www.w3.org/1999/xlink" viewBox="0 0 617.13 302.56">
  <defs>
    <style>
      .cls-1 {
        fill: #ff564a;
        mix-blend-mode: multiply;
      }

      .cls-2 {
        isolation: isolate;
      }

      .cls-3 {
        fill: url(#linear-gradient-2);
      }

      .cls-3, .cls-4 {
        stroke: #9d9d9c;
        stroke-miterlimit: 10;
        stroke-width: .03px;
      }

      .cls-5 {
        fill: #8f8f8e;
      }

      .cls-6 {
        fill: url(#linear-gradient-3);
      }

      .cls-4 {
        fill: url(#linear-gradient);
      }
    </style>
    <linearGradient id="linear-gradient" x1="2035.91" y1="127.16" x2="2650.61" y2="127.16" gradientTransform="translate(2651.82) rotate(-180) scale(1 -1)" gradientUnits="userSpaceOnUse">
      <stop offset="0" stop-color="#e6e6e6"/>
      <stop offset="1" stop-color="#c9c9c9"/>
    </linearGradient>
    <linearGradient id="linear-gradient-2" x1="2050.74" y1="127.16" x2="2635.78" y2="127.16" gradientTransform="translate(2651.82) rotate(-180) scale(1 -1)" gradientUnits="userSpaceOnUse">
      <stop offset="0" stop-color="#fff"/>
      <stop offset="1" stop-color="#d6d6d6"/>
    </linearGradient>
    <linearGradient id="linear-gradient-3" x1="615.2" y1="275.33" x2=".2" y2="275.33" gradientUnits="userSpaceOnUse">
      <stop offset="0" stop-color="#c7c7c7"/>
      <stop offset="1" stop-color="#b3b3b3"/>
    </linearGradient>
  </defs>
  <g class="cls-2">
    <g id="Layer_1" data-name="Layer 1">
      <g>
        <rect class="cls-4" x="1.21" y="1.86" width="614.7" height="250.61"/>
        <rect class="cls-3" x="16.04" y="24.05" width="585.03" height="206.23"/>
        <rect class="cls-6" x=".2" y="248.1" width="615" height="54.46"/>
        <rect class="cls-5" x="304.5" y="248.1" width="5.93" height="54.46"/>
        <path class="cls-5" d="m336.36,270.65c0-6.82,8.63-12.39,19.25-12.39s19.31,5.57,19.31,12.39-8.63,12.4-19.31,12.4-19.25-5.54-19.25-12.4Z"/>
        <path class="cls-5" d="m246.22,270.65c0-6.82,8.63-12.39,19.28-12.39s19.31,5.57,19.31,12.39-8.64,12.4-19.31,12.4-19.28-5.54-19.28-12.4Z"/>
        <polygon class="cls-1" points="617.13 0 0 0 0 254.34 .2 254.34 .2 302.56 304.5 302.56 310.44 302.56 615.2 302.56 615.2 254.34 617.13 254.34 617.13 0"/>
      </g>
    </g>
  </g>
</svg>