<?xml version="1.0" encoding="UTF-8"?>
<svg id="Layer_1" data-name="Layer 1" xmlns="http://www.w3.org/2000/svg" viewBox="0 0 387.13 82.63">
  <defs>
    <style>
      .cls-1 {
        fill: #fafaf8;
      }

      .cls-2, .cls-3 {
        fill: #fff;
      }

      .cls-4 {
        fill: none;
        stroke-linecap: round;
        stroke-linejoin: round;
        stroke-width: .63px;
      }

      .cls-4, .cls-3 {
        stroke: #26281e;
      }

      .cls-5 {
        fill: #6d6e71;
      }

      .cls-6 {
        fill: #808285;
      }

      .cls-7 {
        fill: #cccdcf;
      }

      .cls-3 {
        stroke-miterlimit: 10;
        stroke-width: .87px;
      }

      .cls-8 {
        fill: #26281e;
      }
    </style>
  </defs>
  <g>
    <g>
      <rect class="cls-3" x="309.84" y="72" width="76.85" height="5.13"/>
      <rect class="cls-3" x="309.84" y=".43" width="76.85" height="71.57"/>
    </g>
    <g>
      <path class="cls-8" d="m386.69,77.49h-76.85c-.2,0-.36-.16-.36-.36s.16-.36.36-.36h76.85c.2,0,.36.16.36.36s-.16.36-.36.36Z"/>
      <path class="cls-8" d="m386.69,72.36h-76.85c-.2,0-.36-.16-.36-.36s.16-.36.36-.36h76.85c.2,0,.36.16.36.36s-.16.36-.36.36Z"/>
      <path class="cls-8" d="m386.69,77.49c-.2,0-.36-.16-.36-.36V.8s-76.13,0-76.13,0v76.34c0,.2-.16.36-.36.36s-.36-.16-.36-.36V.44c0-.2.16-.36.36-.36h76.85c.2,0,.36.16.36.36v76.7c0,.2-.16.36-.36.36Z"/>
    </g>
  </g>
  <g>
    <g>
      <rect class="cls-3" x="180.37" y="72" width="51.18" height="5.13"/>
      <rect class="cls-3" x="180.37" y=".43" width="51.18" height="71.57"/>
    </g>
    <g>
      <path class="cls-8" d="m231.55,77.49h-51.18c-.2,0-.36-.16-.36-.36s.16-.36.36-.36h51.18c.2,0,.36.16.36.36s-.16.36-.36.36Z"/>
      <path class="cls-8" d="m231.55,72.36h-51.18c-.2,0-.36-.16-.36-.36,0-.2.16-.36.36-.36h51.18c.2,0,.36.16.36.36s-.16.36-.36.36Z"/>
      <path class="cls-8" d="m231.55,77.49c-.2,0-.36-.16-.36-.36V.8s-50.46,0-50.46,0v76.34c0,.2-.16.36-.36.36s-.36-.16-.36-.36V.44c0-.2.16-.36.36-.36h51.18c.2,0,.36.16.36.36v76.7c0,.2-.16.36-.36.36Z"/>
    </g>
  </g>
  <g>
    <g>
      <rect class="cls-3" x=".43" y="72" width="51.18" height="5.13"/>
      <rect class="cls-3" x=".43" y=".43" width="51.18" height="71.57"/>
    </g>
    <g>
      <path class="cls-8" d="m51.62,77.49H.43c-.2,0-.36-.16-.36-.36s.16-.36.36-.36h51.18c.2,0,.36.16.36.36s-.16.36-.36.36Z"/>
      <path class="cls-8" d="m51.62,72.36H.43c-.2,0-.36-.16-.36-.36,0-.2.16-.36.36-.36h51.18c.2,0,.36.16.36.36,0,.2-.16.36-.36.36Z"/>
      <path class="cls-8" d="m51.62,77.49c-.2,0-.36-.16-.36-.36V.8s-50.46,0-50.46,0v76.34c0,.2-.16.36-.36.36s-.36-.16-.36-.36V.44c0-.2.16-.36.36-.36h51.18c.2,0,.36.16.36.36v76.7c0,.2-.16.36-.36.36Z"/>
    </g>
  </g>
  <g>
    <g>
      <path class="cls-1" d="m309.12,7.98v69.15h-27.18s-2.57,0-2.57,0h-17.36s-2.57,0-2.57,0h-27.18V7.98h76.85Zm-8.76,16.99c0-6.45-5.25-11.7-11.7-11.7s-11.7,5.25-11.7,11.7,5.23,11.7,11.7,11.7,11.7-5.23,11.7-11.7Zm0,34.57c0-6.45-5.25-11.7-11.7-11.7-6.47,0-11.7,5.25-11.7,11.7s5.23,11.7,11.7,11.7,11.7-5.23,11.7-11.7Zm-36.24-34.58c0-6.45-5.25-11.7-11.7-11.7s-11.7,5.25-11.7,11.7,5.23,11.7,11.7,11.7,11.7-5.23,11.7-11.7Zm0,34.57c0-6.45-5.25-11.7-11.7-11.7s-11.7,5.25-11.7,11.7,5.23,11.7,11.7,11.7,11.7-5.23,11.7-11.7Z"/>
      <rect class="cls-1" x="232.27" y=".43" width="76.85" height="7.55"/>
      <path class="cls-6" d="m288.67,13.27c6.45,0,11.7,5.25,11.7,11.7s-5.25,11.7-11.7,11.7-11.7-5.23-11.7-11.7,5.23-11.7,11.7-11.7Zm9.13,11.7c0-5.05-4.09-9.13-9.13-9.13s-9.13,4.09-9.13,9.13,4.09,9.13,9.13,9.13,9.13-4.09,9.13-9.13Z"/>
      <path class="cls-6" d="m288.67,47.84c6.45,0,11.7,5.25,11.7,11.7s-5.25,11.7-11.7,11.7-11.7-5.23-11.7-11.7,5.23-11.7,11.7-11.7Zm9.13,11.7c0-5.05-4.09-9.13-9.13-9.13s-9.13,4.09-9.13,9.13,4.09,9.13,9.13,9.13,9.13-4.09,9.13-9.13Z"/>
      <path class="cls-6" d="m288.67,15.84c5.05,0,9.13,4.09,9.13,9.13s-4.09,9.13-9.13,9.13-9.13-4.09-9.13-9.13,4.09-9.13,9.13-9.13Zm6.57,9.13c0-3.62-2.94-6.57-6.57-6.57s-6.57,2.94-6.57,6.57,2.93,6.57,6.57,6.57,6.57-2.93,6.57-6.57Z"/>
      <path class="cls-6" d="m288.67,50.41c5.05,0,9.13,4.09,9.13,9.13s-4.09,9.13-9.13,9.13-9.13-4.09-9.13-9.13,4.09-9.13,9.13-9.13Zm6.57,9.13c0-3.62-2.94-6.57-6.57-6.57s-6.57,2.94-6.57,6.57,2.93,6.57,6.57,6.57,6.57-2.93,6.57-6.57Z"/>
      <path class="cls-5" d="m288.67,18.4c3.62,0,6.57,2.94,6.57,6.57s-2.94,6.57-6.57,6.57-6.57-2.93-6.57-6.57,2.93-6.57,6.57-6.57Zm4,6.57c0-2.2-1.8-4-4-4s-4,1.8-4,4,1.79,4,4,4,4-1.79,4-4Z"/>
      <path class="cls-5" d="m288.67,52.98c3.62,0,6.57,2.94,6.57,6.57s-2.94,6.57-6.57,6.57-6.57-2.93-6.57-6.57,2.93-6.57,6.57-6.57Zm4,6.57c0-2.2-1.8-4-4-4s-4,1.8-4,4,1.79,4,4,4,4-1.79,4-4Z"/>
      <circle class="cls-6" cx="288.67" cy="24.97" r="4"/>
      <circle class="cls-6" cx="288.67" cy="59.54" r="4"/>
      <path class="cls-6" d="m279.38,78.42v-1.28h2.57v1.36c-.04,2.06-1.71,3.74-3.77,3.77h-.08s-14.87,0-14.87,0h-.08c-2.13,0-3.85-1.72-3.85-3.85h.15s0-1.28,0-1.28h2.57v1.36h-.14c.04.69.58,1.21,1.27,1.21h.08s14.87,0,14.87,0c.7,0,1.28-.57,1.28-1.28Z"/>
      <path class="cls-6" d="m261.56,59.54c0,5.05-4.09,9.13-9.13,9.13s-9.13-4.09-9.13-9.13,4.09-9.13,9.13-9.13,9.13,4.09,9.13,9.13Zm-2.57,0c0-3.62-2.94-6.57-6.57-6.57s-6.57,2.94-6.57,6.57,2.93,6.57,6.57,6.57,6.57-2.93,6.57-6.57Z"/>
      <path class="cls-6" d="m252.43,13.27c6.45,0,11.7,5.25,11.7,11.7s-5.25,11.7-11.7,11.7-11.7-5.23-11.7-11.7,5.23-11.7,11.7-11.7Zm9.13,11.7c0-5.05-4.09-9.13-9.13-9.13s-9.13,4.09-9.13,9.13,4.09,9.13,9.13,9.13,9.13-4.09,9.13-9.13Z"/>
      <path class="cls-6" d="m252.43,47.84c6.45,0,11.7,5.25,11.7,11.7s-5.25,11.7-11.7,11.7-11.7-5.23-11.7-11.7,5.23-11.7,11.7-11.7Zm0,20.84c5.05,0,9.13-4.09,9.13-9.13s-4.09-9.13-9.13-9.13-9.13,4.09-9.13,9.13,4.09,9.13,9.13,9.13Z"/>
      <path class="cls-6" d="m252.43,15.84c5.05,0,9.13,4.09,9.13,9.13s-4.09,9.13-9.13,9.13-9.13-4.09-9.13-9.13,4.09-9.13,9.13-9.13Zm6.57,9.13c0-3.62-2.94-6.57-6.57-6.57s-6.57,2.94-6.57,6.57,2.93,6.57,6.57,6.57,6.57-2.93,6.57-6.57Z"/>
      <path class="cls-5" d="m252.43,18.4c3.62,0,6.57,2.94,6.57,6.57s-2.94,6.57-6.57,6.57-6.57-2.93-6.57-6.57,2.93-6.57,6.57-6.57Zm4,6.57c0-2.2-1.8-4-4-4s-4,1.8-4,4,1.79,4,4,4,4-1.79,4-4Z"/>
      <path class="cls-5" d="m252.43,52.98c3.62,0,6.57,2.94,6.57,6.57s-2.94,6.57-6.57,6.57-6.57-2.93-6.57-6.57,2.93-6.57,6.57-6.57Zm4,6.57c0-2.2-1.8-4-4-4s-4,1.8-4,4,1.79,4,4,4,4-1.79,4-4Z"/>
      <path class="cls-6" d="m252.43,20.97c2.2,0,4,1.8,4,4s-1.8,4-4,4-4-1.79-4-4,1.79-4,4-4Z"/>
      <path class="cls-6" d="m252.43,55.54c2.2,0,4,1.8,4,4s-1.8,4-4,4-4-1.79-4-4,1.79-4,4-4Z"/>
    </g>
    <g>
      <path class="cls-8" d="m309.12,77.49h-76.85c-.2,0-.36-.16-.36-.36s.16-.36.36-.36h76.49s0-75.98,0-75.98h-76.49c-.2,0-.36-.16-.36-.36s.16-.36.36-.36h76.85c.2,0,.36.16.36.36v76.7c0,.2-.16.36-.36.36Z"/>
      <path class="cls-8" d="m309.12,8.34h-76.85c-.2,0-.36-.16-.36-.36s.16-.36.36-.36h76.85c.2,0,.36.16.36.36s-.16.36-.36.36Z"/>
      <path class="cls-8" d="m232.27,77.49c-.2,0-.36-.16-.36-.36V.44c0-.2.16-.36.36-.36s.36.16.36.36v76.7c0,.2-.16.36-.36.36Z"/>
      <path class="cls-8" d="m262.02,78.85c-.2,0-.36-.16-.36-.36v-1.36c0-.2.16-.36.36-.36s.36.16.36.36v1.36c0,.2-.16.36-.36.36Z"/>
      <path class="cls-8" d="m259.45,78.82c-.2,0-.36-.12-.36-.32v-1.36c0-.2.16-.36.36-.36s.36.16.36.36v1.28c0,.2-.16.4-.36.4Z"/>
      <path class="cls-8" d="m278.17,80.06h-14.95c-.2,0-.36-.16-.36-.36s.16-.36.36-.36h14.87c.2,0,.4.16.4.36s-.12.36-.32.36Z"/>
      <path class="cls-8" d="m278.1,82.63h-14.87c-.2,0-.36-.16-.36-.36s.16-.36.36-.36h14.87c.2,0,.36.16.36.36s-.16.36-.36.36Z"/>
      <path class="cls-8" d="m263.15,80.06c-.88,0-1.58-.66-1.63-1.53,0-.04-.01-.09-.01-.11,0-.2.16-.36.36-.36s.36.16.36.36h-.36s.36.01.36.01c.04.55.42.91.92.91.2,0,.36.16.36.36s-.16.36-.36.36Z"/>
      <path class="cls-8" d="m263.15,82.63c-2.32,0-4.21-1.89-4.21-4.21,0-.2.16-.36.36-.36s.36.16.36.36c0,1.92,1.57,3.49,3.49,3.49.2,0,.36.16.36.36s-.16.36-.36.36Z"/>
      <path class="cls-8" d="m279.38,78.82c-.2,0-.36-.12-.36-.32v-1.36c0-.2.16-.36.36-.36s.36.16.36.36v1.28c0,.2-.16.4-.36.4Z"/>
      <path class="cls-8" d="m281.95,78.78c-.2,0-.36-.16-.36-.36v-1.28c0-.2.16-.36.36-.36s.36.16.36.36v1.28c0,.2-.16.36-.36.36Z"/>
      <path class="cls-8" d="m278.1,80.06c-.2,0-.36-.16-.36-.36s.16-.36.36-.36c.51,0,.92-.41.92-.92,0-.2.16-.36.36-.36s.36.16.36.36c0,.91-.74,1.64-1.64,1.64Z"/>
      <path class="cls-8" d="m278.18,82.63l-.08-.36v-.36h.08c1.88-.03,3.38-1.54,3.42-3.42,0-.2.16-.39.36-.39h0c.2,0,.36.13.36.32-.04,2.36-1.85,4.17-4.13,4.21Z"/>
      <circle class="cls-4" cx="252.43" cy="24.97" r="11.7" transform="translate(1.02 58.66) rotate(-13.28)"/>
      <circle class="cls-4" cx="252.43" cy="24.97" r="9.13" transform="translate(1.02 58.66) rotate(-13.28)"/>
      <path class="cls-4" d="m252.43,18.4c-3.64,0-6.57,2.94-6.57,6.57s2.93,6.57,6.57,6.57,6.57-2.93,6.57-6.57-2.94-6.57-6.57-6.57Z"/>
      <path class="cls-4" d="m252.43,20.97c-2.21,0-4,1.8-4,4s1.79,4,4,4,4-1.79,4-4-1.8-4-4-4Z"/>
      <circle class="cls-4" cx="288.67" cy="24.97" r="11.7"/>
      <circle class="cls-4" cx="288.67" cy="24.97" r="9.13" transform="translate(66.89 211.43) rotate(-45)"/>
      <circle class="cls-4" cx="288.67" cy="24.97" r="6.57"/>
      <circle class="cls-4" cx="288.67" cy="24.97" r="4"/>
      <circle class="cls-4" cx="252.43" cy="59.54" r="11.7" transform="translate(100.82 269.97) rotate(-67.5)"/>
      <path class="cls-4" d="m252.43,52.98c-3.64,0-6.57,2.94-6.57,6.57s2.93,6.57,6.57,6.57,6.57-2.93,6.57-6.57-2.94-6.57-6.57-6.57Z"/>
      <path class="cls-4" d="m252.43,55.54c-2.21,0-4,1.8-4,4s1.79,4,4,4,4-1.79,4-4-1.8-4-4-4Z"/>
      <circle class="cls-4" cx="252.43" cy="59.54" r="9.13" transform="translate(-6.93 59.59) rotate(-13.28)"/>
      <circle class="cls-4" cx="288.67" cy="59.54" r="11.7"/>
      <circle class="cls-4" cx="288.67" cy="59.54" r="9.13" transform="translate(42.44 221.56) rotate(-45)"/>
      <circle class="cls-4" cx="288.67" cy="59.54" r="6.57"/>
      <circle class="cls-4" cx="288.67" cy="59.54" r="4"/>
    </g>
  </g>
  <g>
    <g>
      <path class="cls-3" d="m170.8,61.36V20.67s-22.5,0-22.5,0v-6.34s-3.32,0-3.32,0v6.34h-22.5s0,40.69,0,40.69v.08c.04,2.76,2.29,4.98,5.06,4.98l.08.15h37.97s0-.15,0-.15c2.79,0,5.06-2.26,5.06-5.06h.15Zm-59.79,0V20.67s-22.35,0-22.35,0v-6.34s-3.47,0-3.47,0v6.34h-22.5s0,40.69,0,40.69v.08c.04,2.76,2.29,4.98,5.06,4.98l.08.15h37.97s0-.15,0-.15c2.79,0,5.06-2.26,5.06-5.06h.15ZM180.01.43v76.7h-51.18s-76.85,0-76.85,0V.43h128.03Zm-23.55,16.23c0-1.12-.92-2.04-2.04-2.04s-2.04.92-2.04,2.04.92,2.04,2.04,2.04,2.04-.91,2.04-2.04Zm-15.7,0c0-1.12-.92-2.04-2.04-2.04s-2.04.92-2.04,2.04.92,2.04,2.04,2.04,2.04-.91,2.04-2.04Zm-44.09,0c0-1.12-.92-2.04-2.04-2.04s-2.04.92-2.04,2.04.92,2.04,2.04,2.04,2.04-.91,2.04-2.04Zm-15.55,0c0-1.12-.92-2.04-2.04-2.04s-2.04.92-2.04,2.04.92,2.04,2.04,2.04,2.04-.91,2.04-2.04Z"/>
      <path class="cls-2" d="m165.67,56.22v-25.29s-.15-.08-.15-.08c0-2.77-2.23-5.02-4.98-5.06h-.08s-12.15,0-12.15,0v-5.13h22.5v40.69h-.15c0,2.79-2.26,5.06-5.06,5.06v.15h-37.97s-.08-.15-.08-.15c-2.77,0-5.02-2.23-5.06-4.98v-.08s0-40.69,0-40.69h22.5v5.13h-12.23s-.08,0-.08,0c-2.79,0-5.06,2.26-5.06,5.06v.08s0,25.29,0,25.29v.08c.04,2.76,2.29,4.98,5.06,4.98l.08.15h27.71s0-.15,0-.15c2.79,0,5.06-2.26,5.06-5.06h.15Z"/>
      <path class="cls-2" d="m165.67,30.93v25.29h-.15c0,2.79-2.26,5.06-5.06,5.06v.15h-27.71s-.08-.15-.08-.15c-2.77,0-5.02-2.23-5.06-4.98v-.08s0-25.29,0-25.29v-.08c0-2.79,2.26-5.06,5.06-5.06h.08s12.23,0,12.23,0v6.19s3.32,0,3.32,0v-6.19h12.15s.08,0,.08,0c2.76.04,4.98,2.29,4.98,5.06l.15.08Zm-12.98,12.61c0-3.12-2.53-5.66-5.66-5.66s-5.66,2.54-5.66,5.66,2.53,5.66,5.66,5.66,5.66-2.53,5.66-5.66Z"/>
      <path class="cls-5" d="m154.42,14.63c1.12,0,2.04.92,2.04,2.04s-.92,2.04-2.04,2.04-2.04-.91-2.04-2.04.92-2.04,2.04-2.04Z"/>
      <path class="cls-6" d="m147.02,37.88c3.13,0,5.66,2.54,5.66,5.66s-2.53,5.66-5.66,5.66-5.66-2.53-5.66-5.66,2.53-5.66,5.66-5.66Zm3.1,5.66c0-1.71-1.38-3.1-3.1-3.1s-3.1,1.38-3.1,3.1,1.38,3.1,3.1,3.1,3.1-1.38,3.1-3.1Z"/>
      <path class="cls-2" d="m147.02,40.45c1.71,0,3.1,1.38,3.1,3.1s-1.38,3.1-3.1,3.1-3.1-1.38-3.1-3.1,1.38-3.1,3.1-3.1Z"/>
      <polygon class="cls-6" points="148.3 25.8 148.3 31.99 144.98 31.99 144.98 25.8 144.98 20.67 144.98 14.33 148.3 14.33 148.3 20.67 148.3 25.8"/>
      <path class="cls-7" d="m138.72,14.63c1.12,0,2.04.92,2.04,2.04s-.92,2.04-2.04,2.04-2.04-.91-2.04-2.04.92-2.04,2.04-2.04Z"/>
      <path class="cls-2" d="m100.82,61.43v-.15c2.77,0,5.02-2.23,5.06-4.98v-.08s0-25.29,0-25.29v-.08c0-2.77-2.23-5.02-4.98-5.06h-.08s-12.15,0-12.15,0v-5.13h22.35v40.69h-.15c0,2.79-2.26,5.06-5.06,5.06v.15h-37.97s-.08-.15-.08-.15c-2.77,0-5.02-2.23-5.06-4.98v-.08s0-40.69,0-40.69h22.5v5.13h-12.23s-.08,0-.08,0c-2.79,0-5.06,2.26-5.06,5.06v.08s0,25.29,0,25.29v.08c.04,2.76,2.29,4.98,5.06,4.98l.08.15h27.86Z"/>
      <path class="cls-2" d="m105.88,56.22v.08c-.04,2.76-2.29,4.98-5.06,4.98v.15h-27.86s-.08-.15-.08-.15c-2.77,0-5.02-2.23-5.06-4.98v-.08s0-25.29,0-25.29v-.08c0-2.79,2.26-5.06,5.06-5.06h.08s12.23,0,12.23,0v6.19s3.47,0,3.47,0v-6.19h12.15s.05,0,.08,0c2.76.04,4.98,2.29,4.98,5.06v.08s0,25.29,0,25.29Zm-13.89-12.68c0-3.12-2.53-5.66-5.66-5.66s-5.66,2.54-5.66,5.66,2.53,5.66,5.66,5.66,5.66-2.53,5.66-5.66Z"/>
      <path class="cls-5" d="m94.63,14.63c1.12,0,2.04.92,2.04,2.04s-.92,2.04-2.04,2.04-2.04-.91-2.04-2.04.92-2.04,2.04-2.04Z"/>
      <path class="cls-6" d="m86.33,37.88c3.13,0,5.66,2.54,5.66,5.66s-2.53,5.66-5.66,5.66-5.66-2.53-5.66-5.66,2.53-5.66,5.66-5.66Zm3.1,5.66c0-1.71-1.38-3.1-3.1-3.1s-3.1,1.38-3.1,3.1,1.38,3.1,3.1,3.1,3.1-1.38,3.1-3.1Z"/>
      <path class="cls-2" d="m86.33,40.45c1.71,0,3.1,1.38,3.1,3.1s-1.38,3.1-3.1,3.1-3.1-1.38-3.1-3.1,1.38-3.1,3.1-3.1Z"/>
      <polygon class="cls-6" points="88.67 25.8 88.67 31.99 85.19 31.99 85.19 25.8 85.19 20.67 85.19 14.33 88.67 14.33 88.67 20.67 88.67 25.8"/>
      <path class="cls-7" d="m79.08,14.63c1.12,0,2.04.92,2.04,2.04s-.92,2.04-2.04,2.04-2.04-.91-2.04-2.04.92-2.04,2.04-2.04Z"/>
    </g>
    <g>
      <path class="cls-8" d="m128.83,77.49H51.98c-.2,0-.36-.16-.36-.36s.16-.36.36-.36h76.85c.2,0,.36.16.36.36s-.16.36-.36.36Z"/>
      <path class="cls-8" d="m51.98,77.49c-.2,0-.36-.16-.36-.36V.44c0-.2.16-.36.36-.36h128.03c.2,0,.36.16.36.36,0,.2-.16.36-.36.36H52.34s0,76.34,0,76.34c0,.2-.16.36-.36.36Z"/>
      <path class="cls-8" d="m180.01,77.49h-51.18c-.2,0-.36-.16-.36-.36s.16-.36.36-.36h50.82s0-76.34,0-76.34c0-.2.16-.36.36-.36s.36.16.36.36v76.7c0,.2-.16.36-.36.36Z"/>
      <path class="cls-8" d="m111.01,61.75c-.2,0-.36-.12-.36-.32V21.03s-21.99,0-21.99,0c-.2,0-.36-.16-.36-.36s.16-.36.36-.36h22.35c.2,0,.36.16.36.36v40.69c0,.2-.16.4-.36.4Z"/>
      <path class="cls-8" d="m105.8,66.77c-.2,0-.36-.16-.36-.36,0-.2.16-.36.36-.36,2.59,0,4.7-2.11,4.7-4.7,0-.2.16-.36.36-.36s.36.16.36.36c0,2.99-2.43,5.42-5.42,5.42Z"/>
      <path class="cls-8" d="m105.88,66.93h-38.05c-.2,0-.36-.16-.36-.36s.16-.36.36-.36h37.97c.2,0,.4.16.4.36s-.12.36-.32.36Z"/>
      <path class="cls-8" d="m67.76,66.77c-2.95,0-5.38-2.39-5.42-5.34,0-.2.16-.36.36-.37.21.02.36.16.36.36.04,2.55,2.14,4.63,4.7,4.63.2,0,.36.16.36.36,0,.2-.16.36-.36.36Z"/>
      <path class="cls-8" d="m62.7,61.75c-.2,0-.36-.12-.36-.32V20.67c0-.2.16-.36.36-.36h22.5c.2,0,.36.16.36.36s-.16.36-.36.36h-22.14s0,40.33,0,40.33c0,.2-.16.4-.36.4Z"/>
      <path class="cls-8" d="m100.82,26.16h-12.15c-.2,0-.36-.16-.36-.36s.16-.36.36-.36h12.15c.2,0,.36.16.36.36s-.16.36-.36.36Z"/>
      <path class="cls-8" d="m105.88,31.22c-.2,0-.36-.16-.36-.36,0-2.56-2.08-4.66-4.63-4.7-.2,0-.39-.17-.39-.36,0-.2.12-.36.32-.36,3.02.04,5.42,2.47,5.42,5.42,0,.2-.16.36-.36.36Z"/>
      <path class="cls-8" d="m105.88,56.58c-.2,0-.36-.16-.36-.36v-25.29c0-.2.16-.36.36-.36s.36.16.36.36v25.29c0,.2-.16.36-.36.36Z"/>
      <path class="cls-8" d="m100.82,61.64c-.2,0-.36-.16-.36-.36s.16-.36.36-.36c2.56,0,4.66-2.08,4.7-4.63,0-.2.16-.39.36-.39h0c.2,0,.36.12.36.32-.04,3.02-2.47,5.42-5.42,5.42Z"/>
      <path class="cls-8" d="m100.9,61.79h-27.93c-.2,0-.36-.16-.36-.36s.16-.36.36-.36h27.86c.2,0,.4.16.4.36s-.12.36-.32.36Z"/>
      <path class="cls-8" d="m72.89,61.64c-2.95,0-5.38-2.39-5.42-5.34,0-.2.16-.36.36-.37.23,0,.36.16.36.36.04,2.55,2.14,4.63,4.7,4.63.2,0,.36.16.36.36s-.16.36-.36.36Z"/>
      <path class="cls-8" d="m67.83,56.62c-.2,0-.36-.12-.36-.32v-25.37c0-.2.16-.36.36-.36s.36.16.36.36v25.29c0,.2-.16.4-.36.4Z"/>
      <path class="cls-8" d="m67.83,31.22c-.2,0-.36-.16-.36-.36,0-2.99,2.43-5.42,5.42-5.42.2,0,.36.16.36.36s-.16.36-.36.36c-2.59,0-4.7,2.11-4.7,4.7,0,.2-.16.36-.36.36Z"/>
      <path class="cls-8" d="m85.19,26.16h-12.23c-.2,0-.36-.16-.36-.36s.16-.36.36-.36h12.23c.2,0,.36.16.36.36s-.16.36-.36.36Z"/>
      <path class="cls-4" d="m86.33,40.45c-1.71,0-3.1,1.38-3.1,3.1s1.38,3.1,3.1,3.1,3.1-1.38,3.1-3.1-1.38-3.1-3.1-3.1Z"/>
      <path class="cls-4" d="m86.33,37.88c-3.13,0-5.66,2.54-5.66,5.66s2.53,5.66,5.66,5.66,5.66-2.53,5.66-5.66-2.53-5.66-5.66-5.66Z"/>
      <path class="cls-8" d="m88.67,32.35h-3.47c-.2,0-.36-.16-.36-.36V14.33c0-.2.16-.36.36-.36h3.47c.2,0,.36.16.36.36v17.66c0,.2-.16.36-.36.36Zm-3.11-.72h2.75s0-16.94,0-16.94h-2.75s0,16.94,0,16.94Z"/>
      <path class="cls-8" d="m122.49,61.72c-.2,0-.36-.16-.36-.36V20.67c0-.2.16-.36.36-.36h22.5c.2,0,.36.16.36.36s-.16.36-.36.36h-22.14s0,40.33,0,40.33c0,.2-.16.36-.36.36Z"/>
      <path class="cls-8" d="m127.54,66.77c-2.95,0-5.38-2.39-5.42-5.34l.36-.08h.36v.08c.04,2.55,2.14,4.62,4.7,4.62.2,0,.36.16.36.36,0,.2-.16.36-.36.36Z"/>
      <path class="cls-8" d="m165.67,66.93h-38.05c-.2,0-.36-.16-.36-.36s.16-.36.36-.36h37.97c.2,0,.4.16.4.36s-.12.36-.32.36Z"/>
      <path class="cls-8" d="m165.59,66.77c-.2,0-.36-.16-.36-.36,0-.2.16-.36.36-.36,2.59,0,4.7-2.11,4.7-4.7,0-.2.16-.36.36-.36s.36.16.36.36c0,2.99-2.43,5.42-5.42,5.42Z"/>
      <path class="cls-8" d="m170.8,61.75c-.2,0-.36-.12-.36-.32V21.03s-22.14,0-22.14,0c-.2,0-.36-.16-.36-.36s.16-.36.36-.36h22.5c.2,0,.36.16.36.36v40.69c0,.2-.16.4-.36.4Z"/>
      <path class="cls-8" d="m144.98,26.16h-12.23c-.2,0-.36-.16-.36-.36s.16-.36.36-.36h12.23c.2,0,.36.16.36.36s-.16.36-.36.36Z"/>
      <path class="cls-8" d="m127.62,31.22c-.2,0-.36-.16-.36-.36,0-2.99,2.43-5.42,5.42-5.42.2,0,.36.16.36.36s-.16.36-.36.36c-2.59,0-4.7,2.11-4.7,4.7,0,.2-.16.36-.36.36Z"/>
      <path class="cls-8" d="m127.62,56.58c-.2,0-.36-.16-.36-.36v-25.29c0-.2.16-.36.36-.36s.36.16.36.36v25.29c0,.2-.16.36-.36.36Z"/>
      <path class="cls-8" d="m132.68,61.64c-2.95,0-5.38-2.39-5.42-5.34l.36-.08h.36v.08c.04,2.55,2.14,4.62,4.7,4.62.2,0,.36.16.36.36s-.16.36-.36.36Z"/>
      <path class="cls-8" d="m160.53,61.79h-27.78c-.2,0-.36-.16-.36-.36s.16-.36.36-.36h27.71c.2,0,.4.16.4.36s-.12.36-.32.36Z"/>
      <path class="cls-8" d="m160.46,61.64c-.2,0-.36-.16-.36-.36s.16-.36.36-.36c2.59,0,4.7-2.11,4.7-4.7,0-.2.16-.36.36-.36s.36.16.36.36c0,2.99-2.43,5.42-5.42,5.42Z"/>
      <path class="cls-8" d="m165.67,56.62c-.2,0-.36-.12-.36-.32v-25.37c0-.2.16-.36.36-.36s.36.16.36.36v25.29c0,.2-.16.4-.36.4Z"/>
      <path class="cls-8" d="m165.52,31.22c-.2,0-.36-.16-.36-.36,0-2.56-2.08-4.66-4.63-4.7-.2,0-.36-.17-.35-.37,0-.2.2-.38.36-.36,2.94.04,5.34,2.47,5.34,5.42,0,.2-.16.36-.36.36Z"/>
      <path class="cls-8" d="m160.53,26.16h-12.23c-.2,0-.36-.16-.36-.36s.16-.36.36-.36h12.15c.2,0,.4.16.4.36s-.12.36-.32.36Z"/>
      <path class="cls-4" d="m147.02,40.45c-1.71,0-3.1,1.38-3.1,3.1s1.38,3.1,3.1,3.1,3.1-1.38,3.1-3.1-1.38-3.1-3.1-3.1Z"/>
      <path class="cls-4" d="m147.02,37.88c-3.13,0-5.66,2.54-5.66,5.66s2.53,5.66,5.66,5.66,5.66-2.53,5.66-5.66-2.53-5.66-5.66-5.66Z"/>
      <path class="cls-8" d="m87.76,43.98h-2.57c-.2,0-.36-.16-.36-.36s.16-.36.36-.36h2.57c.2,0,.36.16.36.36s-.16.36-.36.36Z"/>
      <path class="cls-8" d="m86.4,45.34c-.2,0-.36-.16-.36-.36v-2.57c0-.2.16-.36.36-.36s.36.16.36.36v2.57c0,.2-.16.36-.36.36Z"/>
      <path class="cls-8" d="m148.3,43.98h-2.57c-.2,0-.36-.16-.36-.36s.16-.36.36-.36h2.57c.2,0,.36.16.36.36s-.16.36-.36.36Z"/>
      <path class="cls-8" d="m147.1,45.34c-.2,0-.36-.16-.36-.36v-2.57c0-.2.16-.36.36-.36s.36.16.36.36v2.57c0,.2-.16.36-.36.36Z"/>
      <path class="cls-4" d="m79.08,14.63c-1.12,0-2.04.92-2.04,2.04s.92,2.04,2.04,2.04,2.04-.91,2.04-2.04-.92-2.04-2.04-2.04Z"/>
      <path class="cls-4" d="m94.63,14.63c-1.12,0-2.04.92-2.04,2.04s.92,2.04,2.04,2.04,2.04-.91,2.04-2.04-.92-2.04-2.04-2.04Z"/>
      <path class="cls-8" d="m148.3,32.35h-3.32c-.2,0-.36-.16-.36-.36V14.33c0-.2.16-.36.36-.36h3.32c.2,0,.36.16.36.36v17.66c0,.2-.16.36-.36.36Zm-2.96-.72h2.6s0-16.94,0-16.94h-2.6s0,16.94,0,16.94Z"/>
      <path class="cls-4" d="m138.72,14.63c-1.12,0-2.04.92-2.04,2.04s.92,2.04,2.04,2.04,2.04-.91,2.04-2.04-.92-2.04-2.04-2.04Z"/>
      <path class="cls-4" d="m154.42,14.63c-1.12,0-2.04.92-2.04,2.04s.92,2.04,2.04,2.04,2.04-.91,2.04-2.04-.92-2.04-2.04-2.04Z"/>
    </g>
  </g>
  <rect class="cls-8" x="51.98" y="71.67" width="128.39" height=".65"/>
</svg>