<?xml version="1.0" encoding="UTF-8"?>
<svg xmlns="http://www.w3.org/2000/svg" xmlns:xlink="http://www.w3.org/1999/xlink" viewBox="0 0 272.08 165.48">
  <defs>
    <style>
      .cls-1 {
        fill: #ddd;
      }

      .cls-2 {
        fill: #e9e9e9;
      }

      .cls-3 {
        fill: url(#linear-gradient-2);
      }

      .cls-4 {
        fill: #f0f0f0;
      }

      .cls-5 {
        fill: #f4f4f4;
      }

      .cls-6 {
        fill: #fff;
      }

      .cls-7 {
        fill: #cbcbcb;
      }

      .cls-8 {
        fill: #d1d1d1;
      }

      .cls-9 {
        fill: #fafafa;
      }

      .cls-10 {
        fill: #dbdbdb;
      }

      .cls-11 {
        fill: #cacaca;
      }

      .cls-12 {
        fill: #d8d8d8;
      }

      .cls-13 {
        fill: #f6f6f6;
      }

      .cls-14 {
        fill: #e2e2e2;
      }

      .cls-15 {
        fill: #f5f5f5;
      }

      .cls-16 {
        isolation: isolate;
      }

      .cls-17 {
        fill: #d6d6d6;
      }

      .cls-18 {
        fill: #c9c9c9;
      }

      .cls-19 {
        fill: #e0e0e0;
      }

      .cls-20 {
        fill: #c7c7c7;
      }

      .cls-21 {
        fill: #dedede;
      }

      .cls-22 {
        fill: #cfcfcf;
      }

      .cls-23 {
        fill: #d7d7d7;
      }

      .cls-24 {
        fill: #e1e1e1;
      }

      .cls-25 {
        fill: #e6e6e6;
      }

      .cls-26 {
        fill: #e7e7e7;
      }

      .cls-27 {
        fill: #d4d4d4;
      }

      .cls-28 {
        fill: #dadada;
      }

      .cls-29 {
        fill: #eaeaea;
      }

      .cls-30 {
        fill: #c8c8c8;
      }

      .cls-31 {
        fill: #fdfdfd;
      }

      .cls-32 {
        fill: #e4e4e4;
      }

      .cls-33 {
        fill: #fbfbfb;
      }

      .cls-34 {
        fill: #f9f9f9;
      }

      .cls-35 {
        fill: #8f8f8e;
      }

      .cls-36 {
        fill: #e5e5e5;
      }

      .cls-37 {
        fill: #d3d3d3;
      }

      .cls-38 {
        fill: #ebebeb;
      }

      .cls-39 {
        fill: #d5d5d5;
      }

      .cls-40 {
        fill: #dcdcdc;
      }

      .cls-41 {
        fill: #e8e8e8;
      }

      .cls-42 {
        fill: #ccc;
      }

      .cls-43 {
        fill: #f7f7f7;
      }

      .cls-44 {
        fill: #efefef;
      }

      .cls-45 {
        fill: #f1f1f1;
      }

      .cls-46 {
        fill: #cecece;
      }

      .cls-47 {
        fill: url(#linear-gradient);
      }

      .cls-48 {
        fill: #f3f3f3;
      }

      .cls-49 {
        fill: #d9d9d9;
      }

      .cls-50 {
        fill: #cdcdcd;
      }

      .cls-51 {
        fill: #f8f8f8;
      }

      .cls-52 {
        fill: #d2d2d2;
      }

      .cls-53 {
        fill: #c6c6c6;
      }

      .cls-54 {
        fill: #eee;
      }

      .cls-55 {
        fill: #d0d0d0;
      }

      .cls-56 {
        mix-blend-mode: multiply;
      }

      .cls-57 {
        fill: #ececec;
      }

      .cls-58 {
        fill: #f2f2f2;
      }

      .cls-59 {
        fill: #fefefe;
      }

      .cls-60 {
        fill: #e3e3e3;
      }

      .cls-61 {
        fill: #fcfcfc;
      }

      .cls-62 {
        fill: #ededed;
      }

      .cls-63 {
        fill: #dfdfdf;
      }
    </style>
    <linearGradient id="linear-gradient" x1="534.53" y1="-228.7" x2="739.73" y2="-228.7" gradientTransform="translate(802.32 -157.25) rotate(-180)" gradientUnits="userSpaceOnUse">
      <stop offset="0" stop-color="#fff"/>
      <stop offset="1" stop-color="#d6d6d6"/>
    </linearGradient>
    <linearGradient id="linear-gradient-2" x1="533.85" y1="-228.7" x2="740.4" y2="-228.7" xlink:href="#linear-gradient"/>
  </defs>
  <g class="cls-16">
    <g id="Layer_1" data-name="Layer 1">
      <g class="cls-56">
        <path class="cls-6" d="m204.93,10.58H8.84C3.96,10.58,0,13.25,0,16.53v131.61c0,.61.18,1.19.43,1.75v15.6h211.89v-14.11c.91-.94,1.45-2.04,1.45-3.24V16.53c0-3.28-3.97-5.94-8.84-5.94Z"/>
        <path class="cls-59" d="m205.93,10.4H9.84c-4.87,0-8.84,2.67-8.84,5.94v131.61c0,.61.18,1.19.43,1.75v15.6h211.89v-14.11c.91-.94,1.45-2.04,1.45-3.24V16.34c0-3.28-3.97-5.94-8.84-5.94Z"/>
        <path class="cls-31" d="m206.94,10.22H10.85c-4.87,0-8.84,2.67-8.84,5.94v131.61c0,.61.18,1.19.43,1.75v15.6h211.89v-14.11c.91-.94,1.45-2.04,1.45-3.24V16.16c0-3.28-3.97-5.94-8.84-5.94Z"/>
        <path class="cls-61" d="m207.94,10.04H11.85c-4.87,0-8.84,2.67-8.84,5.94v131.61c0,.61.18,1.19.43,1.75v15.6h211.89v-14.11c.91-.94,1.45-2.04,1.45-3.24V15.98c0-3.28-3.97-5.94-8.84-5.94Z"/>
        <path class="cls-33" d="m208.95,9.85H12.86c-4.87,0-8.84,2.67-8.84,5.94v131.61c0,.61.18,1.19.43,1.75v15.6h211.89v-14.11c.91-.94,1.45-2.04,1.45-3.24V15.8c0-3.28-3.97-5.94-8.84-5.94Z"/>
        <path class="cls-9" d="m209.96,9.67H13.86c-4.87,0-8.84,2.67-8.84,5.94v131.61c0,.61.18,1.19.43,1.75v15.6h211.89v-14.11c.91-.94,1.45-2.04,1.45-3.24V15.61c0-3.28-3.97-5.94-8.84-5.94Z"/>
        <path class="cls-34" d="m210.96,9.49H14.87c-4.87,0-8.84,2.67-8.84,5.94v131.61c0,.61.18,1.19.43,1.75v15.6h211.89v-14.11c.91-.93,1.45-2.04,1.45-3.24V15.43c0-3.28-3.97-5.94-8.84-5.94Z"/>
        <path class="cls-51" d="m211.97,9.31H15.87c-4.87,0-8.84,2.67-8.84,5.94v131.61c0,.61.18,1.19.43,1.75v15.6h211.89v-14.11c.91-.93,1.45-2.04,1.45-3.24V15.25c0-3.28-3.97-5.94-8.84-5.94Z"/>
        <path class="cls-43" d="m212.97,9.12H16.88c-4.87,0-8.84,2.67-8.84,5.94v131.61c0,.61.18,1.19.43,1.75v15.6h211.89v-14.11c.91-.93,1.45-2.04,1.45-3.24V15.07c0-3.28-3.97-5.94-8.84-5.94Z"/>
        <path class="cls-13" d="m213.98,8.94H17.88c-4.87,0-8.84,2.67-8.84,5.94v131.61c0,.61.18,1.19.43,1.75v15.6h211.89v-14.11c.91-.93,1.45-2.04,1.45-3.24V14.88c0-3.28-3.97-5.94-8.84-5.94Z"/>
        <path class="cls-15" d="m214.98,8.76H18.89c-4.87,0-8.84,2.67-8.84,5.94v131.61c0,.61.18,1.19.43,1.75v15.6h211.89v-14.11c.91-.93,1.45-2.04,1.45-3.24V14.7c0-3.28-3.97-5.94-8.84-5.94Z"/>
        <path class="cls-5" d="m215.99,8.58H19.9c-4.87,0-8.84,2.67-8.84,5.94v131.61c0,.61.18,1.19.43,1.75v15.6h211.89v-14.11c.91-.93,1.45-2.04,1.45-3.24V14.52c0-3.28-3.97-5.94-8.84-5.94Z"/>
        <path class="cls-48" d="m216.99,8.39H20.9c-4.87,0-8.84,2.67-8.84,5.94v131.61c0,.61.18,1.19.43,1.75v15.6h211.89v-14.11c.91-.93,1.45-2.04,1.45-3.24V14.34c0-3.28-3.97-5.94-8.84-5.94Z"/>
        <path class="cls-58" d="m218,8.21H21.91c-4.87,0-8.84,2.67-8.84,5.94v131.61c0,.61.18,1.19.43,1.75v15.6h211.89v-14.11c.91-.93,1.45-2.04,1.45-3.24V14.15c0-3.28-3.97-5.94-8.84-5.94Z"/>
        <path class="cls-45" d="m219,8.03H22.91c-4.87,0-8.84,2.67-8.84,5.94v131.61c0,.61.18,1.19.43,1.75v15.6h211.89v-14.11c.91-.93,1.45-2.04,1.45-3.24V13.97c0-3.28-3.97-5.94-8.84-5.94Z"/>
        <path class="cls-4" d="m220.01,7.85H23.92c-4.87,0-8.84,2.67-8.84,5.94v131.61c0,.61.18,1.19.43,1.75v15.6h211.89v-14.11c.91-.93,1.45-2.04,1.45-3.24V13.79c0-3.28-3.97-5.94-8.84-5.94Z"/>
        <path class="cls-44" d="m221.02,7.66H24.92c-4.87,0-8.84,2.67-8.84,5.94v131.61c0,.61.18,1.19.43,1.75v15.6h211.89v-14.11c.91-.93,1.45-2.04,1.45-3.24V13.61c0-3.28-3.97-5.94-8.84-5.94Z"/>
        <path class="cls-54" d="m222.02,7.48H25.93c-4.87,0-8.84,2.67-8.84,5.94v131.61c0,.61.18,1.19.43,1.75v15.6h211.89v-14.11c.91-.93,1.45-2.04,1.45-3.24V13.42c0-3.28-3.97-5.94-8.84-5.94Z"/>
        <path class="cls-62" d="m223.03,7.3H26.93c-4.87,0-8.84,2.67-8.84,5.94v131.61c0,.61.18,1.19.43,1.75v15.6h211.89v-14.11c.91-.93,1.45-2.04,1.45-3.24V13.24c0-3.28-3.97-5.94-8.84-5.94Z"/>
        <path class="cls-57" d="m224.03,7.12H27.94c-4.87,0-8.84,2.67-8.84,5.94v131.61c0,.61.18,1.19.43,1.75v15.6h211.89v-14.11c.91-.93,1.45-2.04,1.45-3.24V13.06c0-3.28-3.97-5.94-8.84-5.94Z"/>
        <path class="cls-38" d="m225.04,6.93H28.94c-4.87,0-8.84,2.67-8.84,5.94v131.61c0,.61.18,1.19.43,1.75v15.6h211.89v-14.11c.91-.93,1.45-2.04,1.45-3.24V12.88c0-3.28-3.97-5.94-8.84-5.94Z"/>
        <path class="cls-29" d="m226.04,6.75H29.95c-4.87,0-8.84,2.67-8.84,5.94v131.61c0,.61.18,1.19.43,1.75v15.6h211.89v-14.11c.91-.93,1.45-2.04,1.45-3.24V12.69c0-3.28-3.97-5.94-8.84-5.94Z"/>
        <path class="cls-2" d="m227.05,6.57H30.96c-4.87,0-8.84,2.67-8.84,5.94v131.61c0,.61.18,1.19.43,1.75v15.6h211.89v-14.11c.91-.93,1.45-2.04,1.45-3.24V12.51c0-3.28-3.97-5.94-8.84-5.94Z"/>
        <path class="cls-41" d="m228.05,6.39H31.96c-4.87,0-8.84,2.67-8.84,5.94v131.61c0,.61.18,1.19.43,1.75v15.6h211.89v-14.11c.91-.93,1.45-2.04,1.45-3.24V12.33c0-3.28-3.97-5.94-8.84-5.94Z"/>
        <path class="cls-26" d="m229.06,6.2H32.97c-4.87,0-8.84,2.67-8.84,5.94v131.61c0,.61.18,1.19.43,1.75v15.6h211.89v-14.11c.91-.93,1.45-2.04,1.45-3.24V12.15c0-3.28-3.97-5.94-8.84-5.94Z"/>
        <path class="cls-25" d="m230.06,6.02H33.97c-4.87,0-8.84,2.67-8.84,5.94v131.61c0,.61.18,1.19.43,1.75v15.6h211.89v-14.11c.91-.93,1.45-2.04,1.45-3.24V11.97c0-3.28-3.97-5.94-8.84-5.94Z"/>
        <path class="cls-36" d="m231.07,5.84H34.98c-4.87,0-8.84,2.67-8.84,5.94v131.61c0,.61.18,1.19.43,1.75v15.6h211.89v-14.11c.91-.93,1.45-2.04,1.45-3.24V11.78c0-3.28-3.97-5.94-8.84-5.94Z"/>
        <path class="cls-32" d="m232.07,5.66H35.98c-4.87,0-8.84,2.67-8.84,5.94v131.61c0,.61.18,1.19.43,1.74v15.6h211.89v-14.11c.91-.93,1.45-2.04,1.45-3.24V11.6c0-3.28-3.97-5.94-8.84-5.94Z"/>
        <path class="cls-60" d="m233.08,5.47H36.99c-4.87,0-8.84,2.67-8.84,5.94v131.61c0,.61.18,1.19.43,1.74v15.6h211.89v-14.11c.91-.93,1.45-2.04,1.45-3.24V11.42c0-3.28-3.97-5.94-8.84-5.94Z"/>
        <path class="cls-14" d="m234.09,5.29H37.99c-4.87,0-8.84,2.67-8.84,5.94v131.61c0,.61.18,1.19.43,1.74v15.6h211.89v-14.11c.91-.93,1.45-2.04,1.45-3.24V11.24c0-3.28-3.97-5.94-8.84-5.94Z"/>
        <path class="cls-14" d="m235.09,5.11H39c-4.87,0-8.84,2.67-8.84,5.94v131.61c0,.61.18,1.19.43,1.74v15.6h211.89v-14.11c.91-.93,1.44-2.04,1.44-3.24V11.05c0-3.28-3.97-5.94-8.84-5.94Z"/>
        <path class="cls-24" d="m236.1,4.93H40c-4.87,0-8.84,2.67-8.84,5.94v131.61c0,.61.18,1.19.43,1.74v15.6h211.89v-14.11c.91-.93,1.44-2.04,1.44-3.24V10.87c0-3.28-3.97-5.94-8.84-5.94Z"/>
        <path class="cls-19" d="m237.1,4.74H41.01c-4.87,0-8.84,2.67-8.84,5.94v131.61c0,.61.18,1.19.43,1.74v15.6h211.89v-14.11c.91-.93,1.44-2.04,1.44-3.24V10.69c0-3.28-3.97-5.94-8.84-5.94Z"/>
        <path class="cls-63" d="m238.11,4.56H42.01c-4.87,0-8.84,2.67-8.84,5.94v131.61c0,.61.18,1.19.43,1.74v15.6h211.89v-14.11c.91-.93,1.44-2.04,1.44-3.24V10.51c0-3.28-3.97-5.94-8.84-5.94Z"/>
        <path class="cls-21" d="m239.11,4.38H43.02c-4.87,0-8.84,2.67-8.84,5.94v131.61c0,.61.18,1.19.43,1.74v15.6h211.89v-14.11c.91-.93,1.44-2.04,1.44-3.24V10.32c0-3.28-3.97-5.94-8.84-5.94Z"/>
        <path class="cls-1" d="m240.12,4.2H44.03c-4.87,0-8.84,2.67-8.84,5.94v131.61c0,.61.18,1.19.43,1.74v15.6h211.89v-14.11c.91-.93,1.44-2.04,1.44-3.24V10.14c0-3.28-3.97-5.94-8.84-5.94Z"/>
        <path class="cls-40" d="m241.12,4.01H45.03c-4.87,0-8.84,2.67-8.84,5.94v131.61c0,.61.18,1.19.43,1.74v15.6h211.89v-14.11c.91-.93,1.44-2.04,1.44-3.23V9.96c0-3.28-3.97-5.94-8.84-5.94Z"/>
        <path class="cls-10" d="m242.13,3.83H46.04c-4.87,0-8.84,2.67-8.84,5.94v131.61c0,.61.18,1.19.43,1.74v15.6h211.89v-14.11c.91-.93,1.44-2.04,1.44-3.23V9.78c0-3.28-3.97-5.94-8.84-5.94Z"/>
        <path class="cls-28" d="m243.13,3.65H47.04c-4.87,0-8.84,2.67-8.84,5.94v131.61c0,.61.18,1.19.43,1.74v15.6h211.89v-14.11c.91-.93,1.44-2.04,1.44-3.23V9.59c0-3.28-3.97-5.94-8.84-5.94Z"/>
        <path class="cls-49" d="m244.14,3.47H48.05c-4.87,0-8.84,2.67-8.84,5.94v131.61c0,.61.18,1.19.43,1.74v15.6h211.89v-14.11c.91-.93,1.44-2.04,1.44-3.23V9.41c0-3.28-3.97-5.94-8.84-5.94Z"/>
        <path class="cls-12" d="m245.15,3.28H49.05c-4.87,0-8.84,2.67-8.84,5.94v131.61c0,.61.18,1.19.43,1.74v15.6h211.89v-14.11c.91-.93,1.44-2.04,1.44-3.23V9.23c0-3.28-3.97-5.94-8.84-5.94Z"/>
        <path class="cls-23" d="m246.15,3.1H50.06c-4.87,0-8.84,2.67-8.84,5.94v131.61c0,.61.18,1.19.43,1.74v15.6h211.89v-14.11c.91-.93,1.44-2.04,1.44-3.23V9.05c0-3.28-3.97-5.94-8.84-5.94Z"/>
        <path class="cls-17" d="m247.16,2.92H51.06c-4.87,0-8.84,2.67-8.84,5.94v131.61c0,.61.18,1.19.43,1.74v15.6h211.89v-14.11c.91-.93,1.44-2.04,1.44-3.23V8.86c0-3.28-3.97-5.94-8.84-5.94Z"/>
        <path class="cls-39" d="m248.16,2.74H52.07c-4.87,0-8.84,2.67-8.84,5.94v131.61c0,.61.18,1.19.43,1.74v15.6h211.89v-14.11c.91-.93,1.44-2.04,1.44-3.23V8.68c0-3.28-3.97-5.94-8.84-5.94Z"/>
        <path class="cls-27" d="m249.17,2.55H53.07c-4.87,0-8.84,2.67-8.84,5.94v131.61c0,.61.18,1.19.43,1.74v15.6h211.89v-14.11c.91-.93,1.44-2.04,1.44-3.23V8.5c0-3.28-3.97-5.94-8.84-5.94Z"/>
        <path class="cls-37" d="m250.17,2.37H54.08c-4.87,0-8.84,2.67-8.84,5.94v131.61c0,.61.18,1.19.43,1.74v15.6h211.89v-14.11c.91-.93,1.44-2.04,1.44-3.23V8.32c0-3.28-3.96-5.94-8.84-5.94Z"/>
        <path class="cls-52" d="m251.18,2.19H55.09c-4.87,0-8.84,2.67-8.84,5.94v131.61c0,.61.18,1.19.43,1.74v15.6h211.89v-14.11c.91-.93,1.44-2.04,1.44-3.23V8.13c0-3.28-3.96-5.94-8.84-5.94Z"/>
        <path class="cls-8" d="m252.18,2.01H56.09c-4.87,0-8.84,2.67-8.84,5.94v131.61c0,.61.18,1.19.43,1.74v15.6h211.89v-14.11c.91-.93,1.44-2.04,1.44-3.23V7.95c0-3.28-3.96-5.94-8.84-5.94Z"/>
        <path class="cls-55" d="m253.19,1.82H57.1c-4.87,0-8.84,2.67-8.84,5.94v131.61c0,.61.18,1.19.43,1.74v15.6h211.89v-14.11c.91-.93,1.44-2.04,1.44-3.23V7.77c0-3.28-3.96-5.94-8.84-5.94Z"/>
        <path class="cls-22" d="m254.19,1.64H58.1c-4.87,0-8.84,2.67-8.84,5.94v131.61c0,.61.18,1.19.43,1.74v15.6h211.89v-14.11c.91-.93,1.44-2.04,1.44-3.23V7.59c0-3.28-3.96-5.94-8.84-5.94Z"/>
        <path class="cls-46" d="m255.2,1.46H59.11c-4.87,0-8.84,2.67-8.84,5.95v131.61c0,.61.18,1.19.43,1.74v15.6h211.89v-14.11c.91-.93,1.44-2.04,1.44-3.23V7.4c0-3.28-3.96-5.95-8.84-5.95Z"/>
        <path class="cls-50" d="m256.21,1.28H60.11c-4.87,0-8.84,2.67-8.84,5.95v131.61c0,.61.18,1.19.43,1.74v15.6h211.89v-14.11c.91-.93,1.44-2.04,1.44-3.23V7.22c0-3.28-3.96-5.95-8.84-5.95Z"/>
        <path class="cls-42" d="m257.21,1.09H61.12c-4.87,0-8.84,2.67-8.84,5.95v131.61c0,.61.18,1.19.43,1.74v15.6h211.89v-14.11c.91-.93,1.44-2.04,1.44-3.23V7.04c0-3.28-3.96-5.95-8.84-5.95Z"/>
        <path class="cls-7" d="m258.22.91H62.12c-4.87,0-8.84,2.67-8.84,5.95v131.61c0,.61.18,1.19.43,1.74v15.6h211.89v-14.11c.91-.93,1.44-2.04,1.44-3.23V6.86c0-3.28-3.96-5.95-8.84-5.95Z"/>
        <path class="cls-11" d="m259.22.73H63.13c-4.87,0-8.84,2.67-8.84,5.95v131.61c0,.61.18,1.19.43,1.74v15.6h211.89v-14.11c.91-.93,1.44-2.04,1.44-3.23V6.68c0-3.28-3.96-5.95-8.84-5.95Z"/>
        <path class="cls-18" d="m260.23.55H64.13c-4.87,0-8.84,2.67-8.84,5.95v131.61c0,.61.18,1.19.43,1.74v15.6h211.89v-14.11c.91-.93,1.44-2.04,1.44-3.23V6.49c0-3.28-3.96-5.95-8.84-5.95Z"/>
        <path class="cls-30" d="m261.23.36H65.14c-4.87,0-8.84,2.67-8.84,5.95v131.61c0,.61.18,1.19.43,1.74v15.6h211.89v-14.11c.91-.93,1.44-2.04,1.44-3.23V6.31c0-3.28-3.96-5.95-8.84-5.95Z"/>
        <path class="cls-20" d="m262.24.18H66.15c-4.87,0-8.84,2.67-8.84,5.95v131.61c0,.61.18,1.19.43,1.74v15.6h211.89v-14.11c.91-.93,1.44-2.04,1.44-3.23V6.13c0-3.28-3.96-5.95-8.84-5.95Z"/>
        <path class="cls-53" d="m263.24,0H67.15c-4.87,0-8.84,2.67-8.84,5.95v131.61c0,.61.18,1.19.43,1.74v15.6h211.89v-14.11c.91-.93,1.44-2.04,1.44-3.23V5.95c0-3.28-3.96-5.95-8.84-5.95Z"/>
      </g>
      <g>
        <rect class="cls-53" x="58.75" y="139.23" width="211.89" height="15.67"/>
        <g>
          <g>
            <ellipse class="cls-35" cx="95.45" cy="143.95" rx="9.33" ry="6.27"/>
            <path class="cls-35" d="m95.45,150.68c-5.52,0-10.01-3.02-10.01-6.73s4.49-6.73,10.01-6.73,10,3.02,10,6.73-4.49,6.73-10,6.73Zm0-12.55c-4.78,0-8.66,2.61-8.66,5.82s3.88,5.82,8.66,5.82,8.65-2.61,8.65-5.82-3.88-5.82-8.65-5.82Z"/>
          </g>
          <g>
            <path class="cls-35" d="m108.16,143.8c0,1.57-5.7,2.84-12.72,2.84s-12.72-1.27-12.72-2.84,5.7-2.84,12.72-2.84,12.72,1.27,12.72,2.84Z"/>
            <path class="cls-35" d="m95.45,147.1c-6.5,0-13.4-1.16-13.4-3.3s6.9-3.3,13.4-3.3,13.39,1.15,13.39,3.3-6.9,3.3-13.39,3.3Zm0-5.69c-7.46,0-12.04,1.39-12.04,2.39s4.58,2.39,12.04,2.39,12.04-1.39,12.04-2.39-4.58-2.39-12.04-2.39Z"/>
          </g>
        </g>
        <g>
          <g>
            <path class="cls-35" d="m150.73,143.95c0,3.46-4.18,6.27-9.33,6.27s-9.33-2.81-9.33-6.27,4.17-6.27,9.33-6.27,9.33,2.81,9.33,6.27Z"/>
            <path class="cls-35" d="m141.4,150.68c-5.52,0-10.01-3.02-10.01-6.73s4.49-6.73,10.01-6.73,10,3.02,10,6.73-4.49,6.73-10,6.73Zm0-12.55c-4.78,0-8.66,2.61-8.66,5.82s3.88,5.82,8.66,5.82,8.65-2.61,8.65-5.82-3.88-5.82-8.65-5.82Z"/>
          </g>
          <g>
            <path class="cls-35" d="m154.12,143.8c0,1.57-5.7,2.84-12.72,2.84s-12.72-1.27-12.72-2.84,5.7-2.84,12.72-2.84,12.72,1.27,12.72,2.84Z"/>
            <path class="cls-35" d="m141.4,147.1c-6.49,0-13.4-1.16-13.4-3.3s6.9-3.3,13.4-3.3,13.39,1.15,13.39,3.3-6.9,3.3-13.39,3.3Zm0-5.69c-7.46,0-12.04,1.39-12.04,2.39s4.58,2.39,12.04,2.39,12.04-1.39,12.04-2.39-4.58-2.39-12.04-2.39Z"/>
          </g>
        </g>
        <g>
          <g>
            <ellipse class="cls-35" cx="187.36" cy="143.95" rx="9.33" ry="6.27"/>
            <path class="cls-35" d="m187.36,150.68c-5.52,0-10.01-3.02-10.01-6.73s4.49-6.73,10.01-6.73,10,3.02,10,6.73-4.49,6.73-10,6.73Zm0-12.55c-4.78,0-8.66,2.61-8.66,5.82s3.88,5.82,8.66,5.82,8.65-2.61,8.65-5.82-3.88-5.82-8.65-5.82Z"/>
          </g>
          <g>
            <path class="cls-35" d="m200.07,143.8c0,1.57-5.69,2.84-12.72,2.84s-12.72-1.27-12.72-2.84,5.69-2.84,12.72-2.84,12.72,1.27,12.72,2.84Z"/>
            <path class="cls-35" d="m187.36,147.1c-6.5,0-13.4-1.16-13.4-3.3s6.9-3.3,13.4-3.3,13.39,1.15,13.39,3.3-6.9,3.3-13.39,3.3Zm0-5.69c-7.46,0-12.04,1.39-12.04,2.39s4.58,2.39,12.04,2.39,12.04-1.39,12.04-2.39-4.58-2.39-12.04-2.39Z"/>
          </g>
        </g>
        <g>
          <g>
            <path class="cls-35" d="m242.64,143.95c0,3.46-4.18,6.27-9.33,6.27s-9.33-2.81-9.33-6.27,4.17-6.27,9.33-6.27,9.33,2.81,9.33,6.27Z"/>
            <path class="cls-35" d="m233.31,150.68c-5.52,0-10.01-3.02-10.01-6.73s4.49-6.73,10.01-6.73,10,3.02,10,6.73-4.48,6.73-10,6.73Zm0-12.55c-4.78,0-8.66,2.61-8.66,5.82s3.88,5.82,8.66,5.82,8.65-2.61,8.65-5.82-3.88-5.82-8.65-5.82Z"/>
          </g>
          <g>
            <path class="cls-35" d="m246.03,143.8c0,1.57-5.69,2.84-12.72,2.84s-12.72-1.27-12.72-2.84,5.69-2.84,12.72-2.84,12.72,1.27,12.72,2.84Z"/>
            <path class="cls-35" d="m233.31,147.1c-6.5,0-13.4-1.16-13.4-3.3s6.9-3.3,13.4-3.3,13.39,1.15,13.39,3.3-6.9,3.3-13.39,3.3Zm0-5.69c-7.46,0-12.04,1.39-12.04,2.39s4.58,2.39,12.04,2.39,12.04-1.39,12.04-2.39-4.58-2.39-12.04-2.39Z"/>
          </g>
        </g>
        <g>
          <path class="cls-62" d="m263.24,143.04H67.15c-4.51,0-8.16-2.46-8.16-5.49V5.95c0-3.03,3.65-5.49,8.16-5.49h196.09c4.51,0,8.16,2.46,8.16,5.49v131.61c0,3.03-3.65,5.49-8.16,5.49Z"/>
          <path class="cls-53" d="m263.24,143.5H67.15c-4.87,0-8.84-2.67-8.84-5.94V5.95c0-3.28,3.96-5.95,8.84-5.95h196.09c4.87,0,8.84,2.67,8.84,5.95v131.61c0,3.28-3.96,5.94-8.84,5.94ZM67.15.91c-4.13,0-7.48,2.26-7.48,5.04v131.61c0,2.78,3.35,5.03,7.48,5.03h196.09c4.13,0,7.48-2.26,7.48-5.03V5.95c0-2.78-3.35-5.04-7.48-5.04H67.15Z"/>
        </g>
        <g>
          <path class="cls-47" d="m70.48,3.08h189.44c4.35,0,7.88,2.31,7.88,5.16v126.41c0,2.85-3.53,5.17-7.88,5.17H70.48c-4.35,0-7.88-2.32-7.88-5.17V8.24c0-2.85,3.53-5.16,7.88-5.16Z"/>
          <path class="cls-3" d="m70.48,2.62h189.44c4.72,0,8.56,2.52,8.56,5.62v126.41c0,3.1-3.84,5.62-8.56,5.62H70.48c-4.72,0-8.56-2.52-8.56-5.62V8.24c0-3.1,3.84-5.62,8.56-5.62Zm189.44,136.74c3.97,0,7.2-2.11,7.2-4.71V8.24c0-2.6-3.23-4.71-7.2-4.71H70.48c-3.97,0-7.21,2.11-7.21,4.71v126.41c0,2.6,3.24,4.71,7.21,4.71h189.44Z"/>
        </g>
        <g>
          <ellipse class="cls-62" cx="115.06" cy="38.37" rx="32.9" ry="22.13"/>
          <ellipse class="cls-2" cx="115.06" cy="38.37" rx="32.63" ry="21.94"/>
          <ellipse class="cls-25" cx="115.06" cy="38.37" rx="32.35" ry="21.75"/>
          <ellipse class="cls-14" cx="115.06" cy="38.37" rx="32.07" ry="21.57"/>
          <ellipse class="cls-63" cx="115.06" cy="38.37" rx="31.8" ry="21.38"/>
          <ellipse class="cls-10" cx="115.06" cy="38.37" rx="31.52" ry="21.2"/>
          <ellipse class="cls-12" cx="115.06" cy="38.37" rx="31.24" ry="21.01"/>
          <ellipse class="cls-27" cx="115.06" cy="38.37" rx="30.97" ry="20.82"/>
          <ellipse class="cls-8" cx="115.06" cy="38.37" rx="30.69" ry="20.64"/>
          <ellipse class="cls-50" cx="115.06" cy="38.37" rx="30.41" ry="20.45"/>
          <ellipse class="cls-11" cx="115.06" cy="38.37" rx="30.14" ry="20.27"/>
          <ellipse class="cls-53" cx="115.06" cy="38.37" rx="29.86" ry="20.08"/>
          <ellipse class="cls-11" cx="115.06" cy="38.37" rx="29.47" ry="19.82"/>
          <ellipse class="cls-50" cx="115.06" cy="38.37" rx="29.09" ry="19.56"/>
          <ellipse class="cls-8" cx="115.06" cy="38.37" rx="28.7" ry="19.3"/>
          <ellipse class="cls-27" cx="115.06" cy="38.37" rx="28.32" ry="19.04"/>
          <ellipse class="cls-12" cx="115.06" cy="38.37" rx="27.93" ry="18.78"/>
          <ellipse class="cls-10" cx="115.06" cy="38.37" rx="27.55" ry="18.52"/>
          <ellipse class="cls-63" cx="115.06" cy="38.37" rx="27.16" ry="18.26"/>
          <ellipse class="cls-14" cx="115.06" cy="38.37" rx="26.77" ry="18"/>
          <ellipse class="cls-25" cx="115.06" cy="38.37" rx="26.39" ry="17.74"/>
          <ellipse class="cls-2" cx="115.06" cy="38.37" rx="26" ry="17.49"/>
          <ellipse class="cls-62" cx="115.06" cy="38.37" rx="25.62" ry="17.23"/>
        </g>
        <ellipse class="cls-35" cx="115.06" cy="38.37" rx="22.48" ry="15.12"/>
        <g>
          <path class="cls-62" d="m245.27,38.37c0,10.86-13.08,19.66-29.23,19.66s-29.23-8.8-29.23-19.66,13.09-19.66,29.23-19.66,29.23,8.8,29.23,19.66Z"/>
          <path class="cls-2" d="m245.03,38.37c0,10.77-12.97,19.49-28.98,19.49s-28.99-8.72-28.99-19.49,12.98-19.49,28.99-19.49,28.98,8.73,28.98,19.49Z"/>
          <path class="cls-25" d="m244.78,38.37c0,10.68-12.87,19.33-28.74,19.33s-28.74-8.65-28.74-19.33,12.87-19.33,28.74-19.33,28.74,8.65,28.74,19.33Z"/>
          <path class="cls-14" d="m244.54,38.37c0,10.58-12.76,19.16-28.49,19.16s-28.49-8.58-28.49-19.16,12.76-19.16,28.49-19.16,28.49,8.58,28.49,19.16Z"/>
          <path class="cls-63" d="m244.29,38.37c0,10.49-12.65,18.99-28.25,18.99s-28.25-8.5-28.25-18.99,12.65-19,28.25-19,28.25,8.5,28.25,19Z"/>
          <path class="cls-10" d="m244.05,38.37c0,10.4-12.54,18.83-28,18.83s-28-8.43-28-18.83,12.54-18.83,28-18.83,28,8.43,28,18.83Z"/>
          <path class="cls-12" d="m243.8,38.37c0,10.31-12.43,18.66-27.76,18.66s-27.76-8.35-27.76-18.66,12.43-18.67,27.76-18.67,27.76,8.36,27.76,18.67Z"/>
          <path class="cls-27" d="m243.56,38.37c0,10.22-12.32,18.5-27.51,18.5s-27.51-8.28-27.51-18.5,12.32-18.5,27.51-18.5,27.51,8.28,27.51,18.5Z"/>
          <path class="cls-8" d="m243.31,38.37c0,10.13-12.21,18.33-27.27,18.33s-27.26-8.21-27.26-18.33,12.21-18.34,27.26-18.34,27.27,8.21,27.27,18.34Z"/>
          <path class="cls-50" d="m243.07,38.37c0,10.04-12.1,18.17-27.02,18.17s-27.02-8.13-27.02-18.17,12.1-18.17,27.02-18.17,27.02,8.13,27.02,18.17Z"/>
          <path class="cls-11" d="m242.82,38.37c0,9.95-11.99,18-26.78,18s-26.77-8.06-26.77-18,11.99-18.01,26.77-18.01,26.78,8.06,26.78,18.01Z"/>
          <path class="cls-53" d="m242.57,38.37c0,9.85-11.88,17.84-26.53,17.84s-26.53-7.98-26.53-17.84,11.88-17.84,26.53-17.84,26.53,7.99,26.53,17.84Z"/>
          <path class="cls-11" d="m242.23,38.37c0,9.73-11.72,17.61-26.19,17.61s-26.18-7.88-26.18-17.61,11.72-17.61,26.18-17.61,26.19,7.88,26.19,17.61Z"/>
          <path class="cls-50" d="m241.89,38.37c0,9.6-11.57,17.38-25.84,17.38s-25.84-7.78-25.84-17.38,11.57-17.38,25.84-17.38,25.84,7.78,25.84,17.38Z"/>
          <path class="cls-8" d="m241.55,38.37c0,9.47-11.42,17.15-25.5,17.15s-25.5-7.67-25.5-17.15,11.42-17.15,25.5-17.15,25.5,7.68,25.5,17.15Z"/>
          <path class="cls-27" d="m241.2,38.37c0,9.34-11.26,16.92-25.16,16.92s-25.16-7.57-25.16-16.92,11.26-16.92,25.16-16.92,25.16,7.57,25.16,16.92Z"/>
          <path class="cls-12" d="m240.86,38.37c0,9.22-11.11,16.69-24.82,16.69s-24.81-7.47-24.81-16.69,11.11-16.69,24.81-16.69,24.82,7.47,24.82,16.69Z"/>
          <path class="cls-10" d="m240.52,38.37c0,9.09-10.96,16.46-24.47,16.46s-24.47-7.37-24.47-16.46,10.96-16.46,24.47-16.46,24.47,7.37,24.47,16.46Z"/>
          <path class="cls-63" d="m240.17,38.37c0,8.96-10.8,16.22-24.13,16.22s-24.13-7.26-24.13-16.22,10.8-16.23,24.13-16.23,24.13,7.26,24.13,16.23Z"/>
          <path class="cls-14" d="m239.83,38.37c0,8.83-10.65,15.99-23.79,15.99s-23.79-7.16-23.79-15.99,10.65-16,23.79-16,23.79,7.16,23.79,16Z"/>
          <path class="cls-25" d="m239.49,38.37c0,8.71-10.5,15.76-23.44,15.76s-23.44-7.06-23.44-15.76,10.5-15.77,23.44-15.77,23.44,7.06,23.44,15.77Z"/>
          <path class="cls-2" d="m239.14,38.37c0,8.58-10.34,15.53-23.1,15.53s-23.1-6.95-23.1-15.53,10.34-15.53,23.1-15.53,23.1,6.95,23.1,15.53Z"/>
          <path class="cls-62" d="m238.8,38.37c0,8.45-10.19,15.3-22.76,15.3s-22.76-6.85-22.76-15.3,10.19-15.3,22.76-15.3,22.76,6.85,22.76,15.3Z"/>
        </g>
        <path class="cls-35" d="m236.02,38.37c0,7.41-8.94,13.43-19.98,13.43s-19.97-6.01-19.97-13.43,8.94-13.43,19.97-13.43,19.98,6.01,19.98,13.43Z"/>
        <g>
          <path class="cls-62" d="m139.06,105.45c0,8.91-10.74,16.13-24,16.13s-23.99-7.22-23.99-16.13,10.74-16.14,23.99-16.14,24,7.22,24,16.14Z"/>
          <path class="cls-2" d="m138.86,105.45c0,8.83-10.65,16-23.8,16s-23.79-7.16-23.79-16,10.65-16,23.79-16,23.8,7.16,23.8,16Z"/>
          <path class="cls-25" d="m138.66,105.45c0,8.76-10.56,15.86-23.59,15.86s-23.59-7.1-23.59-15.86,10.56-15.87,23.59-15.87,23.59,7.1,23.59,15.87Z"/>
          <path class="cls-14" d="m138.46,105.45c0,8.69-10.47,15.73-23.39,15.73s-23.39-7.04-23.39-15.73,10.47-15.73,23.39-15.73,23.39,7.04,23.39,15.73Z"/>
          <path class="cls-63" d="m138.25,105.45c0,8.61-10.38,15.59-23.19,15.59s-23.18-6.98-23.18-15.59,10.38-15.59,23.18-15.59,23.19,6.98,23.19,15.59Z"/>
          <path class="cls-10" d="m138.05,105.45c0,8.54-10.29,15.45-22.99,15.45s-22.98-6.92-22.98-15.45,10.29-15.46,22.98-15.46,22.99,6.92,22.99,15.46Z"/>
          <path class="cls-12" d="m137.85,105.45c0,8.46-10.2,15.32-22.79,15.32s-22.78-6.86-22.78-15.32,10.2-15.32,22.78-15.32,22.79,6.86,22.79,15.32Z"/>
          <path class="cls-27" d="m137.65,105.45c0,8.39-10.11,15.18-22.59,15.18s-22.58-6.8-22.58-15.18,10.11-15.19,22.58-15.19,22.59,6.8,22.59,15.19Z"/>
          <path class="cls-8" d="m137.45,105.45c0,8.31-10.02,15.05-22.39,15.05s-22.38-6.74-22.38-15.05,10.02-15.05,22.38-15.05,22.39,6.74,22.39,15.05Z"/>
          <path class="cls-50" d="m137.25,105.45c0,8.24-9.93,14.91-22.18,14.91s-22.18-6.68-22.18-14.91,9.93-14.92,22.18-14.92,22.18,6.68,22.18,14.92Z"/>
          <path class="cls-11" d="m137.04,105.45c0,8.16-9.84,14.78-21.98,14.78s-21.98-6.62-21.98-14.78,9.84-14.78,21.98-14.78,21.98,6.62,21.98,14.78Z"/>
          <path class="cls-53" d="m136.84,105.45c0,8.09-9.75,14.64-21.78,14.64s-21.77-6.56-21.77-14.64,9.75-14.65,21.77-14.65,21.78,6.56,21.78,14.65Z"/>
          <path class="cls-11" d="m136.56,105.45c0,7.98-9.62,14.45-21.5,14.45s-21.49-6.47-21.49-14.45,9.62-14.46,21.49-14.46,21.5,6.47,21.5,14.46Z"/>
          <path class="cls-50" d="m136.28,105.45c0,7.88-9.5,14.26-21.22,14.26s-21.21-6.39-21.21-14.26,9.5-14.27,21.21-14.27,21.22,6.39,21.22,14.27Z"/>
          <path class="cls-8" d="m136,105.45c0,7.77-9.37,14.07-20.93,14.07s-20.93-6.3-20.93-14.07,9.37-14.08,20.93-14.08,20.93,6.3,20.93,14.08Z"/>
          <path class="cls-27" d="m135.72,105.45c0,7.67-9.24,13.89-20.65,13.89s-20.65-6.22-20.65-13.89,9.25-13.89,20.65-13.89,20.65,6.22,20.65,13.89Z"/>
          <path class="cls-12" d="m135.43,105.45c0,7.56-9.12,13.7-20.37,13.7s-20.37-6.13-20.37-13.7,9.12-13.7,20.37-13.7,20.37,6.13,20.37,13.7Z"/>
          <path class="cls-10" d="m135.15,105.45c0,7.46-8.99,13.51-20.09,13.51s-20.09-6.05-20.09-13.51,8.99-13.51,20.09-13.51,20.09,6.05,20.09,13.51Z"/>
          <path class="cls-63" d="m134.87,105.45c0,7.35-8.86,13.32-19.81,13.32s-19.81-5.96-19.81-13.32,8.87-13.32,19.81-13.32,19.81,5.96,19.81,13.32Z"/>
          <path class="cls-14" d="m134.59,105.45c0,7.25-8.74,13.13-19.53,13.13s-19.52-5.88-19.52-13.13,8.74-13.13,19.52-13.13,19.53,5.88,19.53,13.13Z"/>
          <path class="cls-25" d="m134.31,105.45c0,7.15-8.61,12.94-19.24,12.94s-19.24-5.79-19.24-12.94,8.62-12.94,19.24-12.94,19.24,5.79,19.24,12.94Z"/>
          <path class="cls-2" d="m134.02,105.45c0,7.04-8.49,12.75-18.96,12.75s-18.96-5.71-18.96-12.75,8.49-12.75,18.96-12.75,18.96,5.71,18.96,12.75Z"/>
          <ellipse class="cls-62" cx="115.06" cy="105.45" rx="18.68" ry="12.56"/>
        </g>
        <ellipse class="cls-35" cx="115.06" cy="105.45" rx="16.39" ry="11.02"/>
        <g>
          <path class="cls-62" d="m235.09,105.45c0,7.07-8.52,12.81-19.04,12.81s-19.04-5.73-19.04-12.81,8.52-12.81,19.04-12.81,19.04,5.73,19.04,12.81Z"/>
          <path class="cls-2" d="m234.93,105.45c0,7.01-8.45,12.7-18.88,12.7s-18.88-5.68-18.88-12.7,8.45-12.7,18.88-12.7,18.88,5.68,18.88,12.7Z"/>
          <path class="cls-25" d="m234.77,105.45c0,6.95-8.38,12.59-18.72,12.59s-18.72-5.64-18.72-12.59,8.38-12.59,18.72-12.59,18.72,5.64,18.72,12.59Z"/>
          <path class="cls-14" d="m234.61,105.45c0,6.89-8.31,12.48-18.56,12.48s-18.56-5.59-18.56-12.48,8.31-12.48,18.56-12.48,18.56,5.59,18.56,12.48Z"/>
          <path class="cls-63" d="m234.45,105.45c0,6.84-8.24,12.38-18.4,12.38s-18.4-5.54-18.4-12.38,8.24-12.38,18.4-12.38,18.4,5.54,18.4,12.38Z"/>
          <path class="cls-10" d="m234.29,105.45c0,6.78-8.17,12.27-18.24,12.27s-18.24-5.49-18.24-12.27,8.17-12.27,18.24-12.27,18.24,5.49,18.24,12.27Z"/>
          <path class="cls-12" d="m234.13,105.45c0,6.72-8.09,12.16-18.08,12.16s-18.08-5.44-18.08-12.16,8.09-12.16,18.08-12.16,18.08,5.44,18.08,12.16Z"/>
          <path class="cls-27" d="m233.97,105.45c0,6.66-8.02,12.05-17.92,12.05s-17.92-5.39-17.92-12.05,8.02-12.05,17.92-12.05,17.92,5.39,17.92,12.05Z"/>
          <path class="cls-8" d="m233.81,105.45c0,6.6-7.95,11.94-17.76,11.94s-17.76-5.35-17.76-11.94,7.95-11.94,17.76-11.94,17.76,5.35,17.76,11.94Z"/>
          <path class="cls-50" d="m233.65,105.45c0,6.54-7.88,11.84-17.6,11.84s-17.6-5.3-17.6-11.84,7.88-11.84,17.6-11.84,17.6,5.3,17.6,11.84Z"/>
          <path class="cls-11" d="m233.49,105.45c0,6.48-7.81,11.73-17.44,11.73s-17.44-5.25-17.44-11.73,7.81-11.73,17.44-11.73,17.44,5.25,17.44,11.73Z"/>
          <path class="cls-53" d="m233.33,105.45c0,6.42-7.74,11.62-17.28,11.62s-17.28-5.2-17.28-11.62,7.74-11.62,17.28-11.62,17.28,5.2,17.28,11.62Z"/>
          <path class="cls-11" d="m233.1,105.45c0,6.34-7.64,11.47-17.06,11.47s-17.06-5.14-17.06-11.47,7.64-11.47,17.06-11.47,17.06,5.14,17.06,11.47Z"/>
          <path class="cls-50" d="m232.88,105.45c0,6.25-7.54,11.32-16.84,11.32s-16.84-5.07-16.84-11.32,7.54-11.32,16.84-11.32,16.84,5.07,16.84,11.32Z"/>
          <path class="cls-8" d="m232.66,105.45c0,6.17-7.44,11.17-16.61,11.17s-16.61-5-16.61-11.17,7.44-11.17,16.61-11.17,16.61,5,16.61,11.17Z"/>
          <path class="cls-27" d="m232.43,105.45c0,6.09-7.34,11.02-16.39,11.02s-16.39-4.93-16.39-11.02,7.34-11.02,16.39-11.02,16.39,4.94,16.39,11.02Z"/>
          <path class="cls-12" d="m232.21,105.45c0,6-7.24,10.87-16.17,10.87s-16.17-4.87-16.17-10.87,7.24-10.87,16.17-10.87,16.17,4.87,16.17,10.87Z"/>
          <path class="cls-10" d="m231.99,105.45c0,5.92-7.14,10.72-15.95,10.72s-15.94-4.8-15.94-10.72,7.14-10.72,15.94-10.72,15.95,4.8,15.95,10.72Z"/>
          <path class="cls-63" d="m231.77,105.45c0,5.84-7.04,10.57-15.72,10.57s-15.72-4.73-15.72-10.57,7.04-10.57,15.72-10.57,15.72,4.73,15.72,10.57Z"/>
          <path class="cls-14" d="m231.54,105.45c0,5.75-6.94,10.42-15.5,10.42s-15.5-4.66-15.5-10.42,6.94-10.42,15.5-10.42,15.5,4.67,15.5,10.42Z"/>
          <path class="cls-25" d="m231.32,105.45c0,5.67-6.84,10.27-15.28,10.27s-15.27-4.6-15.27-10.27,6.84-10.27,15.27-10.27,15.28,4.6,15.28,10.27Z"/>
          <path class="cls-2" d="m231.1,105.45c0,5.59-6.74,10.12-15.05,10.12s-15.05-4.53-15.05-10.12,6.74-10.12,15.05-10.12,15.05,4.53,15.05,10.12Z"/>
          <path class="cls-62" d="m230.87,105.45c0,5.51-6.64,9.97-14.83,9.97s-14.83-4.46-14.83-9.97,6.64-9.97,14.83-9.97,14.83,4.47,14.83,9.97Z"/>
        </g>
        <path class="cls-35" d="m229.06,105.45c0,4.83-5.82,8.75-13.01,8.75s-13.01-3.92-13.01-8.75,5.82-8.75,13.01-8.75,13.01,3.92,13.01,8.75Z"/>
        <g>
          <path class="cls-35" d="m159.59,71.42h-89.06c-2.79,0-5.06-1.5-5.06-3.34V8.65c0-1.84,2.27-3.34,5.06-3.34h89.06c2.79,0,5.06,1.49,5.06,3.34v59.44c0,1.84-2.27,3.34-5.06,3.34ZM70.53,7.13c-1.3,0-2.36.68-2.36,1.52v59.44c0,.84,1.06,1.52,2.36,1.52h89.06c1.3,0,2.36-.68,2.36-1.52V8.65c0-.84-1.05-1.52-2.36-1.52h-89.06Z"/>
          <g>
            <path class="cls-35" d="m82.95,39.28h-15.16c-.75,0-1.35-.41-1.35-.91s.6-.91,1.35-.91h15.16c.74,0,1.35.41,1.35.91s-.61.91-1.35.91Z"/>
            <path class="cls-35" d="m162.34,39.28h-15.17c-.75,0-1.35-.41-1.35-.91s.6-.91,1.35-.91h15.17c.74,0,1.35.41,1.35.91s-.61.91-1.35.91Z"/>
          </g>
          <g>
            <path class="cls-35" d="m115.06,70.22c-.75,0-1.35-.41-1.35-.91v-9.7c0-.5.6-.91,1.35-.91s1.35.41,1.35.91v9.7c0,.5-.6.91-1.35.91Z"/>
            <path class="cls-35" d="m115.06,18.04c-.75,0-1.35-.41-1.35-.91V7.43c0-.5.6-.91,1.35-.91s1.35.41,1.35.91v9.7c0,.5-.6.91-1.35.91Z"/>
          </g>
        </g>
        <g>
          <path class="cls-35" d="m260.58,71.42h-89.06c-2.79,0-5.06-1.5-5.06-3.34V8.65c0-1.84,2.27-3.34,5.06-3.34h89.06c2.79,0,5.06,1.49,5.06,3.34v59.44c0,1.84-2.27,3.34-5.06,3.34ZM171.51,7.13c-1.3,0-2.35.68-2.35,1.52v59.44c0,.84,1.05,1.52,2.35,1.52h89.06c1.3,0,2.36-.68,2.36-1.52V8.65c0-.84-1.05-1.52-2.36-1.52h-89.06Z"/>
          <g>
            <path class="cls-35" d="m186.64,39.28h-17.87c-.75,0-1.35-.41-1.35-.91s.6-.91,1.35-.91h17.87c.74,0,1.35.41,1.35.91s-.61.91-1.35.91Z"/>
            <path class="cls-35" d="m263.32,39.28h-17.88c-.75,0-1.35-.41-1.35-.91s.6-.91,1.35-.91h17.88c.74,0,1.35.41,1.35.91s-.61.91-1.35.91Z"/>
          </g>
          <g>
            <path class="cls-35" d="m216.04,70.22c-.74,0-1.35-.41-1.35-.91v-11.52c0-.5.61-.91,1.35-.91s1.35.41,1.35.91v11.52c0,.5-.6.91-1.35.91Z"/>
            <path class="cls-35" d="m216.04,19.86c-.74,0-1.35-.41-1.35-.91V7.43c0-.5.61-.91,1.35-.91s1.35.41,1.35.91v11.52c0,.5-.6.91-1.35.91Z"/>
          </g>
        </g>
        <g>
          <path class="cls-35" d="m159.59,138.51h-89.06c-2.79,0-5.06-1.5-5.06-3.34v-59.43c0-1.84,2.27-3.34,5.06-3.34h89.06c2.79,0,5.06,1.5,5.06,3.34v59.43c0,1.84-2.27,3.34-5.06,3.34Zm-89.06-64.3c-1.3,0-2.36.68-2.36,1.52v59.43c0,.84,1.06,1.52,2.36,1.52h89.06c1.3,0,2.36-.68,2.36-1.52v-59.43c0-.84-1.05-1.52-2.36-1.52h-89.06Z"/>
          <g>
            <path class="cls-35" d="m91.07,106.36h-23.27c-.75,0-1.35-.41-1.35-.91s.6-.91,1.35-.91h23.27c.75,0,1.35.41,1.35.91s-.6.91-1.35.91Z"/>
            <path class="cls-35" d="m162.34,106.36h-23.29c-.75,0-1.35-.41-1.35-.91s.6-.91,1.35-.91h23.29c.74,0,1.35.41,1.35.91s-.61.91-1.35.91Z"/>
          </g>
          <g>
            <path class="cls-35" d="m115.06,137.3c-.75,0-1.35-.41-1.35-.91v-14.25c0-.5.6-.91,1.35-.91s1.35.41,1.35.91v14.25c0,.5-.6.91-1.35.91Z"/>
            <path class="cls-35" d="m115.06,89.68c-.75,0-1.35-.41-1.35-.91v-14.25c0-.5.6-.91,1.35-.91s1.35.41,1.35.91v14.25c0,.5-.6.91-1.35.91Z"/>
          </g>
        </g>
        <g>
          <path class="cls-35" d="m260.58,138.51h-89.06c-2.79,0-5.06-1.5-5.06-3.34v-59.43c0-1.84,2.27-3.34,5.06-3.34h89.06c2.79,0,5.06,1.5,5.06,3.34v59.43c0,1.84-2.27,3.34-5.06,3.34Zm-89.06-64.3c-1.3,0-2.35.68-2.35,1.52v59.43c0,.84,1.05,1.52,2.35,1.52h89.06c1.3,0,2.36-.68,2.36-1.52v-59.43c0-.84-1.05-1.52-2.36-1.52h-89.06Z"/>
          <g>
            <path class="cls-35" d="m194.75,106.36h-25.98c-.75,0-1.35-.41-1.35-.91s.6-.91,1.35-.91h25.98c.75,0,1.35.41,1.35.91s-.6.91-1.35.91Z"/>
            <path class="cls-35" d="m263.32,106.36h-26c-.74,0-1.35-.41-1.35-.91s.61-.91,1.35-.91h26c.74,0,1.35.41,1.35.91s-.61.91-1.35.91Z"/>
          </g>
          <g>
            <path class="cls-35" d="m216.04,137.3c-.74,0-1.35-.41-1.35-.91v-16.98c0-.5.61-.91,1.35-.91s1.35.41,1.35.91v16.98c0,.5-.6.91-1.35.91Z"/>
            <path class="cls-35" d="m216.04,92.4c-.74,0-1.35-.41-1.35-.91v-16.98c0-.5.61-.91,1.35-.91s1.35.41,1.35.91v16.98c0,.5-.6.91-1.35.91Z"/>
          </g>
        </g>
      </g>
    </g>
  </g>
</svg>