<?xml version="1.0" encoding="UTF-8"?>
<svg id="Layer_1" data-name="Layer 1" xmlns="http://www.w3.org/2000/svg" viewBox="0 0 234.99 436.42">
  <defs>
    <style>
      .cls-1 {
        stroke: #ed1c24;
      }

      .cls-1, .cls-2, .cls-3, .cls-4, .cls-5, .cls-6, .cls-7, .cls-8, .cls-9 {
        stroke-miterlimit: 10;
      }

      .cls-1, .cls-2, .cls-7, .cls-8, .cls-9 {
        fill: #f1f2f2;
      }

      .cls-2, .cls-3, .cls-5 {
        stroke-width: 0px;
      }

      .cls-2, .cls-9 {
        stroke: #ef4136;
      }

      .cls-3, .cls-6 {
        fill: #d1d3d4;
        stroke: #262262;
      }

      .cls-4 {
        fill: #ed1c24;
      }

      .cls-4, .cls-7 {
        stroke: #2e3192;
      }

      .cls-5 {
        fill: #f8dba7;
        stroke: #9e1f63;
      }

      .cls-8 {
        stroke: #be1e2d;
      }
    </style>
  </defs>
  <g>
    <rect class="cls-7" x="38.74" y="286.57" width="164.21" height="134.38"/>
    <rect class="cls-7" x="38.74" y="420.95" width="164.21" height="14.98"/>
    <path class="cls-7" d="m81.41,293.93c-14.54-.35-26.63,10.73-26.99,24.74-.36,14.01,11.14,25.65,25.68,26,14.54.35,26.63-10.73,26.99-24.74.36-14.01-11.14-25.65-25.68-26Z"/>
    <path class="cls-7" d="m81.3,298.48c-11.94-.29-21.86,8.8-22.15,20.31-.3,11.5,9.14,21.06,21.08,21.34,11.94.29,21.86-8.8,22.15-20.3.3-11.5-9.14-21.06-21.08-21.34Z"/>
    <path class="cls-7" d="m101.84,379.33c-.29,11.22-9.97,20.09-21.61,19.81-11.64-.28-20.85-9.6-20.56-20.82.29-11.22,9.96-20.09,21.61-19.81,11.64.28,20.85,9.6,20.56,20.82Z"/>
    <path class="cls-7" d="m97.77,379.23c-.23,9.05-8.04,16.21-17.44,15.98-9.4-.23-16.83-7.75-16.59-16.8.23-9.05,8.04-16.21,17.44-15.98,9.4.23,16.83,7.75,16.59,16.8Z"/>
    <path class="cls-7" d="m187.73,378.84c-.42,16.09-14.29,28.81-31,28.41-16.7-.4-29.91-13.77-29.49-29.86.42-16.09,14.29-28.81,31-28.41,16.7.4,29.91,13.77,29.49,29.86Z"/>
    <path class="cls-7" d="m144.01,318.98c.19-7.17,6.37-12.84,13.82-12.66,7.44.18,13.33,6.14,13.14,13.31-.19,7.17-6.37,12.84-13.82,12.66-7.44-.18-13.33-6.14-13.14-13.31Z"/>
    <path class="cls-7" d="m147.94,319.08c.13-5.08,4.51-9.1,9.79-8.97,5.28.13,9.45,4.35,9.31,9.43-.13,5.08-4.51,9.1-9.79,8.97-5.28-.13-9.45-4.35-9.31-9.43Z"/>
    <path class="cls-7" d="m182.77,378.72c-.35,13.45-11.95,24.08-25.91,23.75-13.96-.33-25-11.51-24.65-24.96.35-13.45,11.95-24.08,25.91-23.75,13.96.34,25,11.51,24.65,24.96Z"/>
    <g>
      <g>
        <path class="cls-9" d="m86.07,423.94c-1.79.72-3.05,2.42-3.05,4.4s1.26,3.69,3.05,4.4v-8.8Z"/>
        <path class="cls-9" d="m89.85,423.94v8.8c1.79-.72,3.05-2.42,3.05-4.4s-1.26-3.69-3.05-4.4Z"/>
      </g>
      <rect class="cls-9" x="86.07" y="422.64" width="3.78" height="11.39"/>
    </g>
    <g>
      <g>
        <path class="cls-8" d="m130.49,423.94c-1.79.72-3.05,2.42-3.05,4.4s1.26,3.69,3.05,4.4v-8.8Z"/>
        <path class="cls-8" d="m134.27,423.94v8.8c1.79-.72,3.05-2.42,3.05-4.4s-1.26-3.69-3.05-4.4Z"/>
      </g>
      <rect class="cls-8" x="130.49" y="422.64" width="3.78" height="11.39"/>
    </g>
    <g>
      <g>
        <path class="cls-7" d="m152.7,423.94c-1.79.72-3.05,2.42-3.05,4.4s1.26,3.69,3.05,4.4v-8.8Z"/>
        <path class="cls-7" d="m156.48,423.94v8.8c1.79-.72,3.05-2.42,3.05-4.4s-1.26-3.69-3.05-4.4Z"/>
      </g>
      <rect class="cls-4" x="152.7" y="422.64" width="3.78" height="11.39"/>
    </g>
    <g>
      <g>
        <path class="cls-1" d="m108.28,423.94c-1.79.72-3.05,2.42-3.05,4.4s1.26,3.69,3.05,4.4v-8.8Z"/>
        <path class="cls-1" d="m112.06,423.94v8.8c1.79-.72,3.05-2.42,3.05-4.4s-1.26-3.69-3.05-4.4Z"/>
      </g>
      <rect class="cls-1" x="108.28" y="422.64" width="3.78" height="11.39"/>
    </g>
  </g>
  <g>
    <rect class="cls-3" x=".5" width="233.99" height="129.45"/>
    <g>
      <rect class="cls-6" x="1.31" y="130.26" width="232.37" height="18.17"/>
      <path class="cls-6" d="m232.87,131.07v16.55H2.12v-16.55h230.75Zm1.62-1.62H.5v19.79h233.99v-19.79h0Z"/>
    </g>
    <g>
      <g>
        <g>
          <path class="cls-9" d="m47.4,134.98c-1.79.72-3.05,2.42-3.05,4.4s1.26,3.69,3.05,4.4v-8.8Z"/>
          <path class="cls-9" d="m51.18,134.98v8.8c1.79-.72,3.05-2.42,3.05-4.4s-1.26-3.69-3.05-4.4Z"/>
        </g>
        <rect class="cls-2" x="47.4" y="133.68" width="3.78" height="11.39"/>
      </g>
      <g>
        <g>
          <path class="cls-9" d="m69.61,134.98c-1.79.72-3.05,2.42-3.05,4.4s1.26,3.69,3.05,4.4v-8.8Z"/>
          <path class="cls-9" d="m73.39,134.98v8.8c1.79-.72,3.05-2.42,3.05-4.4s-1.26-3.69-3.05-4.4Z"/>
        </g>
        <rect class="cls-2" x="69.61" y="133.68" width="3.78" height="11.39"/>
      </g>
      <g>
        <g>
          <path class="cls-9" d="m161.6,134.98c-1.79.72-3.05,2.42-3.05,4.4s1.26,3.69,3.05,4.4v-8.8Z"/>
          <path class="cls-9" d="m165.38,134.98v8.8c1.79-.72,3.05-2.42,3.05-4.4s-1.26-3.69-3.05-4.4Z"/>
        </g>
        <rect class="cls-2" x="161.6" y="133.68" width="3.78" height="11.39"/>
      </g>
      <g>
        <g>
          <path class="cls-9" d="m183.81,134.98c-1.79.72-3.05,2.42-3.05,4.4s1.26,3.69,3.05,4.4v-8.8Z"/>
          <path class="cls-9" d="m187.59,134.98v8.8c1.79-.72,3.05-2.42,3.05-4.4s-1.26-3.69-3.05-4.4Z"/>
        </g>
        <rect class="cls-2" x="183.81" y="133.68" width="3.78" height="11.39"/>
      </g>
      <path class="cls-9" d="m100.49,139.47c0,1.5-1.26,2.71-2.81,2.71s-2.81-1.21-2.81-2.71,1.26-2.71,2.81-2.71,2.81,1.21,2.81,2.71Z"/>
      <path class="cls-9" d="m120.85,139.47c0,1.5-1.26,2.71-2.81,2.71s-2.81-1.21-2.81-2.71,1.26-2.71,2.81-2.71,2.81,1.21,2.81,2.71Z"/>
      <path class="cls-9" d="m141.2,139.47c0,1.5-1.26,2.71-2.81,2.71s-2.81-1.21-2.81-2.71,1.26-2.71,2.81-2.71,2.81,1.21,2.81,2.71Z"/>
    </g>
    <polygon class="cls-6" points="172.46 163.12 62.53 163.12 62.53 149.24 68.71 149.24 68.71 158.23 166.28 158.23 166.28 149.24 172.46 149.24 172.46 163.12"/>
    <ellipse class="cls-3" cx="42.28" cy="39.41" rx="25.23" ry="24.3"/>
    <ellipse class="cls-6" cx="42.28" cy="39.41" rx="25.23" ry="24.3"/>
    <path class="cls-3" d="m21.88,38.92c.28-10.86,9.64-19.44,20.91-19.17,11.27.27,20.18,9.29,19.9,20.15-.28,10.86-9.64,19.44-20.91,19.17-11.27-.27-20.18-9.29-19.9-20.15Z"/>
    <path class="cls-6" d="m175.32,27.77c.19-7.17,6.37-12.84,13.82-12.66,7.44.18,13.33,6.14,13.14,13.31-.19,7.17-6.37,12.84-13.82,12.66-7.44-.18-13.33-6.14-13.14-13.31Z"/>
    <path class="cls-6" d="m219.04,85.93c-.42,16.09-14.29,28.81-31,28.41-16.7-.4-29.91-13.77-29.49-29.86.42-16.09,14.29-28.81,31-28.41s29.91,13.77,29.49,29.86Z"/>
    <rect class="cls-6" x="94.39" y="15.82" width="46.2" height="95.78" rx="15.01" ry="15.01"/>
    <path class="cls-6" d="m62.48,95.37c-.28,10.74-9.54,19.23-20.69,18.97-11.15-.27-19.97-9.19-19.69-19.94.28-10.74,9.54-19.23,20.69-18.97,11.15.27,19.97,9.19,19.69,19.94Z"/>
    <path class="cls-3" d="m179.13,27.86c.13-5.14,4.57-9.21,9.91-9.08,5.34.13,9.56,4.4,9.43,9.54-.13,5.14-4.57,9.21-9.91,9.08-5.34-.13-9.56-4.4-9.43-9.54Z"/>
    <path class="cls-3" d="m213.79,85.8c-.34,13.3-11.81,23.81-25.62,23.48-13.8-.33-24.71-11.38-24.37-24.68.34-13.3,11.81-23.81,25.62-23.48,13.8.33,24.71,11.38,24.37,24.68Z"/>
    <path class="cls-5" d="m111.11,20.21h12.78c6.54,0,11.85,5.31,11.85,11.85v63.55c0,6.54-5.31,11.85-11.85,11.85h-12.78c-6.54,0-11.85-5.31-11.85-11.85v-63.55c0-6.54,5.31-11.85,11.85-11.85Z"/>
    <path class="cls-3" d="m58.58,95.28c-.22,8.67-7.7,15.52-16.7,15.31s-16.11-7.42-15.89-16.09c.22-8.67,7.7-15.52,16.7-15.31,9,.22,16.11,7.42,15.89,16.09Z"/>
  </g>
</svg>