<?xml version="1.0" encoding="UTF-8"?>
<svg xmlns="http://www.w3.org/2000/svg" xmlns:xlink="http://www.w3.org/1999/xlink" viewBox="0 0 390.202 71.955">
  <defs>
    <style>
      .cls-1 {
        fill: url(#linear-gradient-2);
      }

      .cls-2 {
        fill: #fff;
      }

      .cls-3, .cls-4, .cls-5, .cls-6, .cls-7, .cls-8, .cls-9, .cls-10, .cls-11, .cls-12, .cls-13, .cls-14 {
        fill-rule: evenodd;
      }

      .cls-3, .cls-15, .cls-9 {
        fill: #ddd3cc;
      }

      .cls-4 {
        fill: #c48f5c;
      }

      .cls-16 {
        fill: #808184;
      }

      .cls-5 {
        fill: #929497;
      }

      .cls-15, .cls-9, .cls-17 {
        mix-blend-mode: multiply;
      }

      .cls-18 {
        opacity: .8;
      }

      .cls-18, .cls-19 {
        fill: #d2e9f9;
        mix-blend-mode: screen;
      }

      .cls-20 {
        isolation: isolate;
      }

      .cls-6 {
        fill: #bbbdbf;
      }

      .cls-21 {
        fill: #6b1007;
      }

      .cls-22 {
        fill: #595951;
      }

      .cls-7 {
        fill: url(#linear-gradient);
      }

      .cls-8 {
        fill: #e6e7e8;
      }

      .cls-23 {
        fill: #111;
      }

      .cls-10 {
        fill: #bdbfc1;
      }

      .cls-24 {
        fill: #e8b489;
      }

      .cls-25 {
        fill: #bbbbbc;
      }

      .cls-26 {
        fill: #4c4c4a;
      }

      .cls-27 {
        fill: #d84464;
      }

      .cls-19 {
        opacity: .5;
      }

      .cls-28 {
        fill: #57585b;
      }

      .cls-11 {
        fill: #be3749;
      }

      .cls-12 {
        fill: #a6a8ab;
      }

      .cls-29 {
        fill: #686867;
      }

      .cls-30 {
        fill: url(#Earthtone_21);
      }

      .cls-31, .cls-13 {
        fill: #21211e;
      }

      .cls-32 {
        fill: #606060;
      }

      .cls-33 {
        fill: #53585b;
      }

      .cls-14 {
        fill: url(#linear-gradient-3);
      }
    </style>
    <linearGradient id="linear-gradient" x1="66.588" y1="47.907" x2="63.418" y2="30.005" gradientUnits="userSpaceOnUse">
      <stop offset=".03" stop-color="#e8e8e8"/>
      <stop offset=".564" stop-color="#b4b4b4"/>
    </linearGradient>
    <linearGradient id="Earthtone_21" data-name="Earthtone 21" x1="295.743" y1="-45.304" x2="44.716" y2="174.154" gradientUnits="userSpaceOnUse">
      <stop offset="0" stop-color="#b85e42"/>
      <stop offset=".5" stop-color="#9f2214"/>
      <stop offset="1" stop-color="#700101"/>
    </linearGradient>
    <linearGradient id="linear-gradient-2" x1="670.917" y1="-286.09" x2="699.754" y2="-249.89" gradientTransform="translate(637.684 -637.684) rotate(90) scale(1 -1)" xlink:href="#linear-gradient"/>
    <linearGradient id="linear-gradient-3" x1="58.782" y1="56.417" x2="55.612" y2="38.515" xlink:href="#linear-gradient"/>
  </defs>
  <g class="cls-20">
    <g id="Layer_1" data-name="Layer 1">
      <g>
        <path class="cls-4" d="m23.866,19.284l20.13-5.829c1.281-.366,2.613.438,2.961,1.783l9.566,36.91c.354,1.354-.409,2.762-1.688,3.131l-20.13,5.833c-1.275.369-2.613-.435-2.961-1.789l-9.565-36.906c-.349-1.354.412-2.759,1.687-3.131h0Zm5.551.647c-1.987.577-1.161,3.763.829,3.182l10.111-2.922c1.99-.574,1.166-3.766-.826-3.185l-10.114,2.925Z"/>
        <path class="cls-24" d="m34.078,61.537c-1.229,0-2.315-.874-2.641-2.125l-9.565-36.906c-.395-1.532.463-3.119,1.915-3.545l20.125-5.829c.234-.063.48-.103.717-.103,1.229,0,2.313.876,2.639,2.125l9.564,36.907c.194.737.097,1.514-.266,2.191-.357.671-.943,1.151-1.645,1.354l-20.128,5.83c-.234.066-.475.103-.715.103Zm10.551-47.835c-.186,0-.369.024-.549.076l-20.128,5.833c-1.115.32-1.772,1.541-1.467,2.717l9.562,36.904c.297,1.155,1.487,1.874,2.576,1.554l20.128-5.827c.537-.157.991-.523,1.262-1.04.28-.517.354-1.112.208-1.68l-9.569-36.91c-.246-.958-1.078-1.626-2.024-1.626Zm-14.85,9.822c-1.032,0-1.687-.892-1.798-1.768-.106-.846.272-1.838,1.358-2.152l10.111-2.923c.189-.054.374-.081.554-.081,1.032,0,1.684.888,1.798,1.765.103.843-.275,1.834-1.361,2.152l-10.111,2.925c-.186.054-.371.082-.551.082Zm10.225-6.253c-.123,0-.254.015-.386.06l-10.114,2.925c-.763.218-.963.873-.897,1.411.088.671.674,1.387,1.555,1.122l10.114-2.926c.763-.22.966-.87.897-1.414-.074-.568-.469-1.178-1.169-1.178Z"/>
      </g>
      <g>
        <path class="cls-11" d="m72.69,13.92l-3.956,15.622-2.647-.753,2.847-15.618c.469-1.856,4.228-1.106,3.756.749Z"/>
        <path class="cls-7" d="m68.734,29.542l-3.914-1.115s-.592.49-.663.798c-2.107,8.368-4.354,18.453-1.961,21.914,3.342-6.534,4.725-14.446,6.538-21.596Z"/>
        <path class="cls-8" d="m69.331,24.377c-.086.339-.417.541-.743.451-.317-.091-.512-.438-.426-.78.086-.341.417-.544.744-.447.32.081.509.432.426.776Z"/>
        <path class="cls-8" d="m70.283,20.611c-.086.335-.414.541-.744.444-.314-.091-.509-.435-.426-.78.089-.339.42-.541.743-.451.32.091.512.438.426.786Z"/>
      </g>
      <rect class="cls-30" x="0" y="14.376" width="389.322" height="57.379"/>
      <g>
        <rect class="cls-15" x=".244" y="0" width="389.497" height="14.703"/>
        <rect class="cls-15" x=".244" y="8.124" width="389.497" height="6.579"/>
      </g>
      <g>
        <rect class="cls-31" x="371.164" y="8.876" width="16.297" height="4.865"/>
        <path class="cls-29" d="m387.461,14.171h-16.297c-.223,0-.4-.193-.4-.429v-4.865c0-.23.177-.423.4-.423h16.297c.215,0,.392.193.392.423v4.865c0,.236-.177.429-.392.429Zm-15.902-4.866v4.014s15.502,0,15.502,0v-4.014s-15.502,0-15.502,0Z"/>
        <polygon class="cls-1" points="334.405 11.941 389.802 11.946 389.802 71.253 334.405 71.262 334.405 11.941"/>
        <path class="cls-29" d="m389.802,71.683l-55.397.003c-.109,0-.208-.049-.283-.127-.074-.078-.117-.187-.117-.296V11.941c0-.109.043-.218.117-.299s.174-.121.283-.121l55.397.003c.223,0,.4.191.4.423v59.307c0,.239-.177.429-.4.429Zm-55.006-59.313v58.461s54.614,0,54.614,0V12.373s-54.614-.003-54.614-.003Z"/>
        <path class="cls-2" d="m334.405,16.99l55.397.009-55.397-.009Z"/>
        <path class="cls-29" d="m390.202,17c0-.236-.177-.426-.4-.426l-55.397-.003c-.226,0-.4.187-.4.42,0,.233.174.432.4.432h55.397c.223,0,.4-.19.4-.423Z"/>
        <g>
          <polygon class="cls-19" points="336.297 57.007 336.506 65.475 388.095 30.246 387.887 21.324 336.297 57.007"/>
          <polygon class="cls-18" points="336.429 69.283 336.506 70.329 388.095 35.09 388.107 33.368 336.429 69.283"/>
        </g>
      </g>
      <g>
        <rect class="cls-32" x="82.714" y="15.217" width="83.699" height="56.288"/>
        <path class="cls-25" d="m91.566,18.535h65.999c2.942,0,5.274,2.375,5.274,5.222v39.046c0,2.847-2.336,5.222-5.274,5.222h-65.999c-2.793,0-5.12-2.375-5.123-5.222l.003-39.052c-.003-2.841,2.33-5.216,5.12-5.216Z"/>
        <path class="cls-16" d="m138.227,40.86c1.303,0,2.287,1.218,2.287,2.602.006,1.378-.977,2.418-2.287,2.412-1.309.006-2.447-1.033-2.447-2.412-.006-1.384,1.143-2.602,2.447-2.602Z"/>
        <path class="cls-16" d="m126.501,22.019h27.797c2.484-.003,4.508,1.816,4.499,3.926v29.856c.009,2.107-2.015,3.932-4.499,3.932h-27.8c-2.476,0-4.502-1.819-4.502-3.932l.003-29.856c-.003-2.11,2.024-3.926,4.502-3.926Z"/>
        <g>
          <path class="cls-12" d="m147.54,39.14c0-4.334-3.339-7.864-7.438-7.864-4.093,0-7.432,3.53-7.432,7.864,0,4.328,3.339,7.854,7.432,7.854,4.099,0,7.438-3.527,7.438-7.854Z"/>
          <path class="cls-5" d="m145.711,39.14c0-3.27-2.515-5.933-5.609-5.933-3.087,0-5.609,2.662-5.609,5.933s2.521,5.929,5.609,5.929c3.093,0,5.609-2.666,5.609-5.929Z"/>
          <path class="cls-6" d="m144.544,39.14c0-2.59-1.995-4.697-4.442-4.697s-4.442,2.106-4.442,4.697,1.998,4.69,4.442,4.69c2.447,0,4.442-2.103,4.442-4.69Z"/>
        </g>
        <g>
          <rect class="cls-28" x="90.016" y="63.396" width="30.127" height="1.146"/>
          <rect class="cls-28" x="90.016" y="58.201" width="30.127" height="1.146"/>
          <rect class="cls-28" x="90.016" y="53.012" width="30.127" height="1.139"/>
          <rect class="cls-28" x="90.016" y="47.819" width="30.127" height="1.143"/>
          <rect class="cls-28" x="90.016" y="42.624" width="30.127" height="1.146"/>
          <rect class="cls-28" x="90.016" y="37.436" width="30.127" height="1.139"/>
          <rect class="cls-28" x="90.016" y="32.24" width="30.127" height="1.145"/>
          <rect class="cls-28" x="90.016" y="27.045" width="30.127" height="1.148"/>
          <rect class="cls-28" x="90.016" y="21.853" width="30.127" height="1.145"/>
        </g>
        <path class="cls-15" d="m146.957,34.776l-2.664,13.038c-.08-.006-.16-.024-.243-.024-.998.018-2.001.481-2.001,1.487l-.269,8.429c-1.549.88-2.61,2.596-2.61,4.594,0,.054,0,.118.003.172.095,2.883,2.387,5.153,5.109,5.059,2.684-.097,4.785-2.394,4.785-5.231,0-.058,0-.115-.003-.172-.043-1.42-.626-2.687-1.526-3.596l4.599-22.485c.052-.245.086-.49.086-.725,0-1.569-1.218-2.536-2.413-2.684-1.149-.139-2.478.469-2.853,2.14Z"/>
        <path class="cls-15" d="m146.234,35.477l-2.667,13.038c-.077-.009-.16-.03-.24-.027-.998.015-2.001.48-2.001,1.484l-.269,8.432c-1.555.879-2.607,2.593-2.607,4.593,0,.054,0,.115.003.175.089,2.88,2.381,5.15,5.109,5.053,2.681-.094,4.782-2.391,4.782-5.228,0-.054,0-.118-.003-.169-.046-1.42-.629-2.693-1.532-3.603l4.602-22.482c.054-.245.086-.49.086-.722,0-1.574-1.212-2.541-2.41-2.683-1.155-.142-2.484.465-2.853,2.14Z"/>
        <g>
          <g>
            <path class="cls-8" d="m150.662,37.127l-5.72,27.946c-.746,3.403-5.617,2.206-4.865-1.194l5.717-27.949c.746-3.403,5.611-2.206,4.868,1.197Z"/>
            <path class="cls-33" d="m150.896,36.435c0,.239-.028.478-.08.728l-5.717,27.946c-.371,1.677-1.698,2.285-2.853,2.149-1.198-.148-2.404-1.118-2.404-2.687,0-.236.026-.48.083-.728l5.711-27.952c.372-1.675,1.698-2.279,2.853-2.14,1.195.145,2.407,1.115,2.407,2.684Zm-10.737,28.136c0,1.436,1.098,2.228,2.121,2.345.94.115,2.161-.308,2.51-1.88l5.717-27.946c.046-.223.074-.441.074-.656,0-1.435-1.104-2.221-2.13-2.348-.938-.115-2.158.309-2.507,1.883l-5.712,27.943c-.049.23-.074.45-.074.659Z"/>
          </g>
          <path class="cls-10" d="m146.408,35.012c1.384-.024,2.801,1.106,2.39,2.983l-5.346,26.133c-.137.622-.449,1.034-.817,1.345.952-.015,1.887-.568,2.172-1.87l5.346-26.13c.56-2.557-2.241-3.733-3.745-2.46Z"/>
          <g>
            <path class="cls-6" d="m142.955,68.476c-2.647.091-4.854-2.1-4.943-4.893-.088-2.792,1.978-5.138,4.623-5.228,2.647-.091,4.859,2.101,4.951,4.896.086,2.789-1.987,5.135-4.631,5.225Z"/>
            <path class="cls-22" d="m147.746,63.42c0,2.835-2.104,5.132-4.782,5.222-2.724.103-5.023-2.167-5.109-5.053-.006-.054-.006-.115-.006-.175,0-2.835,2.101-5.135,4.78-5.228,2.727-.091,5.02,2.176,5.111,5.056.006.058.006.115.006.179Zm-9.582-.006c0,.054.006.109.006.163.086,2.702,2.233,4.821,4.78,4.733,2.51-.084,4.479-2.236,4.479-4.89v-.166c-.086-2.699-2.232-4.823-4.788-4.732-2.507.09-4.477,2.239-4.477,4.893Z"/>
          </g>
          <g>
            <path class="cls-6" d="m144.95,50.54l.492,15.715c.06,1.892-4.997,1.771-5.051-.109l.495-15.715c-.063-1.88,4.005-1.777,4.065.109Z"/>
            <path class="cls-22" d="m145.599,66.285c0,1.004-1.22,1.475-2.433,1.496-1.435.024-2.901-.523-2.933-1.626l.492-15.767c0-1.003,1.006-1.463,2.001-1.484,1.155-.021,2.344.535,2.378,1.626l.494,15.754Zm-5.051-.13c.025.834,1.343,1.315,2.613,1.29,1.058-.018,2.124-.387,2.124-1.161h.157s-.157-.027-.157-.027l-.491-15.718c-.035-.864-1.084-1.318-2.061-1.303-.841.015-1.693.374-1.693,1.151v.048s-.491,15.718-.491,15.718Z"/>
          </g>
        </g>
      </g>
      <g>
        <rect class="cls-23" x="217.902" y="14.316" width="55.063" height="57.421"/>
        <path class="cls-26" d="m222.859,37.429h0c-.503,0-.946-.508-.946-1.076,0-.505.472-1.001.946-1.001.537,0,1.02.474,1.02,1.001,0,.592-.46,1.076-1.02,1.076Zm.006-1.686c-.28,0-.586.317-.586.611,0,.387.314.686.58.686.354,0,.652-.317.652-.686,0-.284-.286-.611-.646-.611Z"/>
        <path class="cls-26" d="m222.859,41.195c-.455,0-.946-.378-.946-.994,0-.613.492-.994.946-.994.583,0,1.02.429,1.02.994,0,.568-.437.994-1.02.994Zm-.003-1.602c-.277,0-.577.233-.577.607,0,.375.3.607.58.607.323,0,.652-.211.652-.607,0-.396-.329-.607-.655-.607Z"/>
        <path class="cls-26" d="m222.859,45.051c-.503,0-.946-.505-.946-1.082,0-.511.463-.994.946-.994.543,0,1.02.465,1.02.994,0,.595-.46,1.082-1.02,1.082Zm0-1.686c-.28,0-.58.311-.58.604,0,.393.314.692.58.692.36,0,.652-.308.652-.692,0-.281-.286-.604-.652-.604Z"/>
        <path class="cls-26" d="m222.865,48.823h-.009c-.48,0-.943-.484-.943-.997,0-.568.443-1.076.943-1.076.563,0,1.023.484,1.023,1.076,0,.532-.477.997-1.015.997Zm-.006-1.684c-.266.003-.58.305-.58.686,0,.296.3.604.58.604h.006c.36,0,.646-.32.646-.604,0-.372-.297-.686-.652-.686Z"/>
        <path class="cls-26" d="m222.859,52.591c-.455,0-.946-.381-.946-.997,0-.616.492-.994.946-.994.583,0,1.02.429,1.02.994,0,.571-.437.997-1.02.997Zm0-1.605c-.28,0-.58.236-.58.607,0,.378.3.607.58.607.323,0,.652-.205.652-.607,0-.399-.329-.607-.652-.607Z"/>
        <g>
          <path class="cls-29" d="m260.044,65.717h-.003c-5.514,0-9.83-4.557-9.83-10.381,0-5.721,4.405-10.375,9.83-10.378,5.423.003,9.837,4.657,9.837,10.378,0,5.824-4.316,10.381-9.834,10.381Zm-.003-20.13c-5.091.003-9.233,4.379-9.233,9.75,0,5.467,4.056,9.749,9.233,9.749h.003c5.18,0,9.233-4.282,9.239-9.749-.006-5.371-4.151-9.747-9.242-9.75Z"/>
          <path class="cls-29" d="m260.041,40.068h0c-5.263,0-9.43-4.15-9.805-9.59-.02-.26-.025-.526-.025-.789,0-5.727,4.405-10.381,9.822-10.381,5.431,0,9.845,4.654,9.845,10.381h0c0,5.815-4.316,10.375-9.837,10.378Zm-9.233-10.378c0,5.467,4.056,9.75,9.233,9.75,4.96-.003,8.891-3.929,9.222-9.054.011-.233.02-.465.02-.695-.006-5.382-4.145-9.749-9.239-9.749s-9.236,4.367-9.236,9.749Z"/>
          <path class="cls-29" d="m260.044,36.976h-.003c-1.775,0-3.439-.731-4.708-2.055-.017-.021-.037-.039-.057-.061-1.284-1.378-1.99-3.215-1.99-5.171h0v-.021c.006-1.877.706-3.663,1.995-5.017,1.281-1.354,2.967-2.097,4.759-2.097,3.811,0,6.915,3.201,6.918,7.135h0c0,4.086-3.039,7.286-6.915,7.286Zm-6.157-7.286h0c0,1.792.643,3.469,1.813,4.73,1.158,1.242,2.704,1.928,4.333,1.928,3.559,0,6.335-2.925,6.335-6.658-.008-3.587-2.841-6.51-6.326-6.51-1.626.006-3.17.68-4.342,1.919-1.169,1.239-1.813,2.862-1.813,4.576v.015h0Z"/>
          <path class="cls-29" d="m260.041,62.468h-.008c-1.784,0-3.476-.74-4.751-2.1-1.289-1.357-1.998-3.143-1.995-5.032,0-3.929,3.03-7.13,6.755-7.13,3.817,0,6.918,3.197,6.918,7.13-.003,3.935-3.107,7.132-6.918,7.132Zm0-13.636c-3.393.003-6.154,2.922-6.154,6.504-.003,1.723.64,3.352,1.813,4.584,1.169,1.239,2.707,1.919,4.333,1.919v.311s.008-.311.008-.311c3.485,0,6.318-2.916,6.326-6.503,0-3.584-2.839-6.504-6.326-6.504Z"/>
          <path class="cls-29" d="m237.901,40.065h-.006c-5.394,0-9.639-4.358-9.828-9.988-.003-.13-.006-.263-.006-.387,0-5.727,4.411-10.381,9.831-10.381,5.426,0,9.831,4.654,9.831,10.381,0,5.815-4.316,10.375-9.822,10.375Zm-9.242-10.375c0,5.461,4.059,9.747,9.236,9.747s9.233-4.286,9.233-9.747c0-5.382-4.139-9.749-9.233-9.749s-9.236,4.367-9.236,9.749Z"/>
          <path class="cls-29" d="m237.895,65.72h0c-5.514,0-9.834-4.56-9.834-10.384,0-5.721,4.414-10.375,9.834-10.375s9.828,4.654,9.828,10.375c0,5.824-4.316,10.384-9.828,10.384Zm0-20.131c-5.091,0-9.236,4.376-9.236,9.747,0,5.47,4.059,9.755,9.236,9.755,5.18-.003,9.233-4.288,9.233-9.755,0-5.371-4.139-9.747-9.233-9.747Z"/>
          <path class="cls-29" d="m237.895,37.142c-3.725,0-6.758-3.197-6.758-7.129,0-4.019,3.033-7.292,6.758-7.292,3.814,0,6.915,3.273,6.915,7.292,0,3.868-3.17,7.129-6.915,7.129Zm-6.163-7.129c0,3.584,2.77,6.504,6.163,6.504,3.425,0,6.315-2.977,6.315-6.504,0-3.612-2.884-6.661-6.309-6.661-3.399,0-6.169,2.986-6.169,6.661Z"/>
          <path class="cls-29" d="m237.895,62.791h-.003c-3.725,0-6.755-3.267-6.755-7.295,0-3.929,3.033-7.132,6.758-7.132,3.753,0,6.915,3.267,6.915,7.132,0,4.029-3.101,7.295-6.915,7.295Zm.006-13.799c-3.399,0-6.169,2.919-6.169,6.503,0,3.681,2.761,6.673,6.16,6.673v.311s.003-.311.003-.311c3.425,0,6.315-3.055,6.315-6.673,0-3.524-2.884-6.503-6.309-6.503Z"/>
        </g>
      </g>
      <path class="cls-21" d="m241.314,29.768c0,2.058-1.581,3.726-3.522,3.726s-3.522-1.668-3.522-3.726,1.575-3.72,3.522-3.72,3.522,1.665,3.522,3.72Z"/>
      <path class="cls-21" d="m264,29.768c0,2.058-1.581,3.726-3.522,3.726-1.947,0-3.522-1.668-3.522-3.726s1.575-3.72,3.522-3.72c1.941,0,3.522,1.665,3.522,3.72Z"/>
      <path class="cls-21" d="m263.725,55.299c0,2.058-1.578,3.726-3.525,3.726s-3.519-1.668-3.519-3.726,1.578-3.72,3.519-3.72,3.525,1.665,3.525,3.72Z"/>
      <path class="cls-21" d="m241.451,55.738c0,2.055-1.581,3.724-3.522,3.724s-3.525-1.668-3.525-3.724c0-2.058,1.581-3.726,3.525-3.726s3.522,1.668,3.522,3.726Z"/>
      <polygon class="cls-13" points="60.61 8.163 54.308 8.163 52.984 8.163 30.258 8.163 28.935 8.163 23.343 8.163 23.343 9.396 28.935 9.396 28.935 11.493 30.258 11.493 30.258 9.396 52.984 9.396 52.984 11.493 54.308 11.493 54.308 9.396 60.61 9.396 60.61 8.163"/>
      <polygon class="cls-13" points="142.938 8.163 136.634 8.163 135.311 8.163 112.585 8.163 111.264 8.163 105.67 8.163 105.67 9.396 111.264 9.396 111.264 11.493 112.585 11.493 112.585 9.396 135.311 9.396 135.311 11.493 136.634 11.493 136.634 9.396 142.938 9.396 142.938 8.163"/>
      <polygon class="cls-13" points="263.686 8.163 257.382 8.163 256.059 8.163 233.333 8.163 232.012 8.163 226.418 8.163 226.418 9.396 232.012 9.396 232.012 11.493 233.333 11.493 233.333 9.396 256.059 9.396 256.059 11.493 257.382 11.493 257.382 9.396 263.686 9.396 263.686 8.163"/>
      <polygon class="cls-13" points="321.221 8.163 314.918 8.163 313.597 8.163 290.871 8.163 289.545 8.163 283.953 8.163 283.953 9.396 289.545 9.396 289.545 11.493 290.871 11.493 290.871 9.396 313.597 9.396 313.597 11.493 314.918 11.493 314.918 9.396 321.221 9.396 321.221 8.163"/>
      <rect class="cls-27" x=".619" y="11.56" width="333.389" height="2.793"/>
      <g>
        <g class="cls-17">
          <path class="cls-3" d="m19.859,28.599l20.128-5.833c1.283-.369,2.618.438,2.964,1.783l9.565,36.907c.352,1.354-.406,2.765-1.689,3.137l-20.128,5.83c-1.278.372-2.613-.435-2.964-1.789l-9.565-36.907c-.349-1.345.412-2.756,1.69-3.128h0Zm5.554.647c-1.989.574-1.163,3.759.823,3.188l10.114-2.929c1.99-.577,1.166-3.766-.826-3.185l-10.111,2.925Z"/>
        </g>
        <g class="cls-17">
          <path class="cls-3" d="m17.778,28.496l20.128-5.833c1.284-.372,2.619.438,2.964,1.783l9.565,36.907c.352,1.354-.406,2.765-1.69,3.137l-20.127,5.83c-1.278.365-2.613-.438-2.964-1.792l-9.565-36.904c-.349-1.351.412-2.759,1.689-3.128h0Zm5.554.647c-1.99.571-1.164,3.759.823,3.185l10.114-2.932c1.99-.571,1.166-3.766-.826-3.185l-10.111,2.932Z"/>
        </g>
        <path class="cls-9" d="m62.225,22.844l-2.844,15.619-1.269-.357s-.586.48-.663.789c-2.104,8.368-4.352,18.456-1.958,21.92,3.345-6.537,4.731-14.452,6.538-21.602l3.959-15.622c.469-1.846-3.29-2.596-3.762-.746Z"/>
        <path class="cls-9" d="m61.645,22.222l-2.85,15.618-1.269-.363s-.586.49-.666.798c-2.1,8.365-4.349,18.453-1.959,21.91,3.346-6.534,4.732-14.446,6.542-21.596l3.959-15.619c.469-1.849-3.293-2.599-3.756-.749Z"/>
        <g>
          <path class="cls-4" d="m16.06,27.795l20.13-5.829c1.281-.366,2.613.438,2.961,1.783l9.565,36.91c.354,1.354-.406,2.762-1.687,3.131l-20.13,5.833c-1.275.369-2.613-.435-2.962-1.789L14.373,30.926c-.349-1.354.412-2.759,1.686-3.131h0Zm5.551.647c-1.987.577-1.161,3.763.829,3.182l10.111-2.922c1.99-.574,1.166-3.766-.826-3.185l-10.114,2.925Z"/>
          <path class="cls-24" d="m26.271,70.048c-1.229,0-2.315-.874-2.641-2.125L14.064,31.017c-.395-1.532.463-3.119,1.915-3.545l20.125-5.829c.234-.063.48-.103.717-.103,1.229,0,2.313.876,2.639,2.125l9.565,36.907c.192.737.097,1.514-.266,2.191-.36.671-.946,1.151-1.647,1.354l-20.127,5.83c-.234.066-.475.103-.715.103Zm10.551-47.835c-.186,0-.369.024-.549.076l-20.128,5.833c-1.115.32-1.772,1.541-1.467,2.717l9.562,36.904c.297,1.155,1.486,1.874,2.575,1.554l20.128-5.827c.537-.157.989-.523,1.264-1.04.28-.517.352-1.112.206-1.68l-9.568-36.91c-.246-.958-1.078-1.626-2.024-1.626Zm-14.85,9.822c-1.032,0-1.687-.892-1.798-1.768-.106-.846.272-1.838,1.358-2.152l10.111-2.923c.189-.054.374-.081.554-.081,1.032,0,1.684.888,1.798,1.765.103.843-.275,1.834-1.361,2.152l-10.111,2.925c-.186.054-.371.082-.551.082Zm10.225-6.253c-.123,0-.254.015-.386.06l-10.114,2.925c-.763.218-.963.873-.897,1.411.088.671.674,1.387,1.555,1.122l10.114-2.926c.763-.22.966-.87.897-1.414-.074-.568-.469-1.178-1.169-1.178Z"/>
        </g>
        <g>
          <path class="cls-11" d="m64.886,22.43l-3.956,15.622-2.647-.753,2.844-15.618c.469-1.856,4.228-1.106,3.759.749Z"/>
          <path class="cls-14" d="m60.93,38.052l-3.916-1.115s-.589.49-.663.798c-2.105,8.368-4.355,18.453-1.962,21.914,3.346-6.534,4.727-14.446,6.542-21.596Z"/>
          <path class="cls-8" d="m61.525,32.887c-.086.339-.417.541-.743.451-.317-.091-.512-.438-.426-.78.085-.341.417-.544.743-.447.32.081.506.432.426.776Z"/>
          <path class="cls-8" d="m62.479,29.122c-.086.335-.417.541-.746.444-.315-.091-.506-.435-.426-.78.089-.339.423-.541.744-.451.32.091.512.438.429.786Z"/>
        </g>
      </g>
      <g>
        <rect class="cls-15" x=".244" y="57.252" width="389.497" height="14.703"/>
        <rect class="cls-15" x=".244" y="65.375" width="389.497" height="6.579"/>
      </g>
    </g>
  </g>
</svg>