<?xml version="1.0" encoding="UTF-8"?>
<svg xmlns="http://www.w3.org/2000/svg" xmlns:xlink="http://www.w3.org/1999/xlink" viewBox="0 0 286.303 46.897">
  <defs>
    <style>
      .cls-1 {
        fill: url(#linear-gradient-4);
      }

      .cls-1, .cls-2, .cls-3, .cls-4, .cls-5, .cls-6, .cls-7, .cls-8, .cls-9, .cls-10, .cls-11, .cls-12 {
        fill-rule: evenodd;
      }

      .cls-13 {
        fill: url(#linear-gradient-2);
      }

      .cls-14 {
        fill: #fff;
      }

      .cls-2, .cls-15, .cls-8 {
        fill: #ddd3cc;
      }

      .cls-3 {
        fill: #c48f5c;
      }

      .cls-16 {
        fill: #808184;
      }

      .cls-4 {
        fill: #929497;
      }

      .cls-15, .cls-8, .cls-17 {
        mix-blend-mode: multiply;
      }

      .cls-18 {
        opacity: .8;
      }

      .cls-18, .cls-19 {
        fill: #d2e9f9;
        mix-blend-mode: screen;
      }

      .cls-20 {
        isolation: isolate;
      }

      .cls-5 {
        fill: #bbbdbf;
      }

      .cls-21 {
        fill: #6b1007;
      }

      .cls-22 {
        fill: #595951;
      }

      .cls-6 {
        fill: url(#linear-gradient);
      }

      .cls-7 {
        fill: #e6e7e8;
      }

      .cls-23 {
        fill: #111;
      }

      .cls-9 {
        fill: #bdbfc1;
      }

      .cls-24 {
        fill: #e8b489;
      }

      .cls-25 {
        fill: #bbbbbc;
      }

      .cls-26 {
        fill: #4c4c4a;
      }

      .cls-27 {
        fill: #d84464;
      }

      .cls-19 {
        opacity: .5;
      }

      .cls-28 {
        fill: #57585b;
      }

      .cls-10 {
        fill: #be3749;
      }

      .cls-11 {
        fill: #a6a8ab;
      }

      .cls-29 {
        fill: #686867;
      }

      .cls-30, .cls-12 {
        fill: #21211e;
      }

      .cls-31 {
        fill: #606060;
      }

      .cls-32 {
        fill: url(#linear-gradient-3);
      }

      .cls-33 {
        fill: #53585b;
      }
    </style>
    <linearGradient id="linear-gradient" x1="48.724" y1="31.188" x2="46.663" y2="19.55" gradientUnits="userSpaceOnUse">
      <stop offset=".03" stop-color="#e8e8e8"/>
      <stop offset=".564" stop-color="#b4b4b4"/>
    </linearGradient>
    <linearGradient id="linear-gradient-2" x1="216.05" y1="-35.945" x2="34.213" y2="123.025" gradientUnits="userSpaceOnUse">
      <stop offset=".006" stop-color="#5b5e5d"/>
      <stop offset=".279" stop-color="#8c8c8c"/>
      <stop offset=".842" stop-color="#5b5e5d"/>
    </linearGradient>
    <linearGradient id="linear-gradient-3" x1="470.973" y1="-191.312" x2="491.044" y2="-166.117" gradientTransform="translate(449.684 -449.684) rotate(90) scale(1 -1)" xlink:href="#linear-gradient"/>
    <linearGradient id="linear-gradient-4" x1="42.997" y1="36.734" x2="40.936" y2="25.097" xlink:href="#linear-gradient"/>
  </defs>
  <g class="cls-20">
    <g id="Layer_1" data-name="Layer 1">
      <g>
        <path class="cls-3" d="m17.512,12.569l14.77-3.799c.94-.238,1.917.286,2.173,1.162l7.019,24.056c.26.882-.3,1.8-1.239,2.041l-14.77,3.802c-.935.24-1.917-.284-2.173-1.166l-7.018-24.054c-.256-.882.302-1.798,1.238-2.041h0Zm4.073.422c-1.458.376-.852,2.452.608,2.074l7.419-1.905c1.46-.374.856-2.454-.606-2.076l-7.421,1.907Z"/>
        <path class="cls-24" d="m25.004,40.107c-.902,0-1.699-.569-1.938-1.385l-7.018-24.054c-.29-.999.34-2.033,1.405-2.311l14.766-3.799c.172-.041.352-.067.526-.067.902,0,1.697.571,1.936,1.385l7.017,24.054c.143.48.071.987-.195,1.428-.262.437-.692.75-1.207.882l-14.768,3.8c-.172.043-.348.067-.524.067Zm7.742-31.177c-.136,0-.271.016-.403.049l-14.768,3.802c-.818.209-1.3,1.005-1.076,1.771l7.016,24.052c.218.753,1.091,1.221,1.89,1.013l14.768-3.798c.394-.102.727-.341.926-.678.206-.337.26-.725.153-1.095l-7.021-24.056c-.18-.624-.791-1.06-1.485-1.06Zm-10.896,6.402c-.757,0-1.238-.581-1.319-1.152-.078-.552.199-1.198.996-1.402l7.419-1.905c.138-.035.275-.053.407-.053.757,0,1.235.579,1.319,1.15.075.549-.201,1.195-.999,1.402l-7.419,1.907c-.136.035-.273.053-.405.053Zm7.502-4.075c-.09,0-.187.01-.283.039l-7.421,1.907c-.56.142-.707.569-.659.92.065.437.495.904,1.141.731l7.421-1.907c.56-.144.709-.567.659-.922-.055-.37-.344-.768-.858-.768Z"/>
      </g>
      <g>
        <path class="cls-10" d="m53.335,9.072l-2.903,10.181-1.942-.491,2.089-10.179c.344-1.21,3.102-.721,2.756.488Z"/>
        <path class="cls-6" d="m50.432,19.254l-2.872-.727s-.434.319-.486.52c-1.546,5.454-3.194,12.027-1.439,14.282,2.452-4.258,3.467-9.415,4.797-14.075Z"/>
        <path class="cls-7" d="m50.871,15.888c-.063.221-.306.353-.545.294-.233-.059-.376-.286-.313-.508.063-.222.306-.355.546-.291.235.053.373.282.313.506Z"/>
        <path class="cls-7" d="m51.569,13.433c-.063.219-.304.353-.546.289-.231-.059-.373-.284-.313-.508.065-.221.308-.353.545-.294.235.059.376.286.313.512Z"/>
      </g>
      <rect class="cls-13" y="9.37" width="285.657" height="37.397"/>
      <g>
        <rect class="cls-15" x=".179" width="285.786" height="9.583"/>
        <rect class="cls-15" x=".179" y="5.295" width="285.786" height="4.288"/>
      </g>
      <g>
        <rect class="cls-30" x="272.334" y="5.785" width="11.957" height="3.171"/>
        <path class="cls-29" d="m284.291,9.236h-11.957c-.164,0-.294-.126-.294-.28v-3.171c0-.15.13-.276.294-.276h11.957c.157,0,.287.126.287.276v3.171c0,.154-.13.28-.287.28Zm-11.668-3.171v2.616h11.374v-2.616h-11.374Z"/>
        <polygon class="cls-32" points="245.363 7.782 286.009 7.786 286.009 46.44 245.363 46.445 245.363 7.782"/>
        <path class="cls-29" d="m286.009,46.719l-40.647.002c-.08,0-.153-.032-.207-.083-.055-.051-.086-.122-.086-.193V7.782c0-.071.032-.142.086-.195s.128-.079.207-.079l40.647.002c.163,0,.294.124.294.276v38.654c0,.156-.13.28-.294.28Zm-40.359-38.657v38.102h40.072V8.064l-40.072-.002Z"/>
        <path class="cls-14" d="m245.363,11.074l40.647.006-40.647-.006Z"/>
        <path class="cls-29" d="m286.303,11.08c0-.154-.13-.278-.294-.278l-40.647-.002c-.166,0-.294.122-.294.274s.128.282.294.282h40.647c.163,0,.294-.124.294-.276Z"/>
        <g>
          <polygon class="cls-19" points="246.751 37.154 246.904 42.674 284.757 19.713 284.604 13.898 246.751 37.154"/>
          <polygon class="cls-18" points="246.848 45.155 246.904 45.837 284.757 22.87 284.765 21.747 246.848 45.155"/>
        </g>
      </g>
      <g>
        <rect class="cls-31" x="60.69" y="9.917" width="61.412" height="36.686"/>
        <path class="cls-25" d="m67.185,12.08h48.426c2.158,0,3.87,1.548,3.87,3.404v25.448c0,1.856-1.714,3.404-3.87,3.404h-48.426c-2.049,0-3.757-1.548-3.759-3.404l.002-25.452c-.002-1.852,1.709-3.4,3.757-3.4Z"/>
        <path class="cls-16" d="m101.421,26.63c.956,0,1.678.794,1.678,1.696.004.898-.717,1.576-1.678,1.572-.961.004-1.795-.673-1.795-1.572-.004-.902.839-1.696,1.795-1.696Z"/>
        <path class="cls-16" d="m92.817,14.351h20.396c1.823-.002,3.308,1.184,3.301,2.559v19.459c.006,1.373-1.479,2.563-3.301,2.563h-20.398c-1.816,0-3.304-1.186-3.304-2.563l.002-19.459c-.002-1.375,1.485-2.559,3.304-2.559Z"/>
        <g>
          <path class="cls-11" d="m108.255,25.51c0-2.825-2.45-5.125-5.458-5.125s-5.453,2.301-5.453,5.125,2.45,5.119,5.453,5.119,5.458-2.299,5.458-5.119Z"/>
          <path class="cls-4" d="m106.912,25.51c0-2.131-1.846-3.867-4.115-3.867s-4.115,1.735-4.115,3.867,1.85,3.865,4.115,3.865,4.115-1.737,4.115-3.865Z"/>
          <path class="cls-5" d="m106.057,25.51c0-1.688-1.464-3.061-3.259-3.061s-3.259,1.373-3.259,3.061,1.466,3.057,3.259,3.057,3.259-1.371,3.259-3.057Z"/>
        </g>
        <g>
          <rect class="cls-28" x="66.048" y="41.318" width="22.105" height=".747"/>
          <rect class="cls-28" x="66.048" y="37.932" width="22.105" height=".747"/>
          <rect class="cls-28" x="66.048" y="34.551" width="22.105" height=".742"/>
          <rect class="cls-28" x="66.048" y="31.166" width="22.105" height=".745"/>
          <rect class="cls-28" x="66.048" y="27.781" width="22.105" height=".747"/>
          <rect class="cls-28" x="66.048" y="24.399" width="22.105" height=".742"/>
          <rect class="cls-28" x="66.048" y="21.013" width="22.105" height=".746"/>
          <rect class="cls-28" x="66.048" y="17.627" width="22.105" height=".748"/>
          <rect class="cls-28" x="66.048" y="14.243" width="22.105" height=".746"/>
        </g>
        <path class="cls-15" d="m107.827,22.665l-1.955,8.497c-.059-.004-.117-.016-.178-.016-.732.012-1.468.313-1.468.969l-.197,5.494c-1.137.573-1.915,1.692-1.915,2.994,0,.035,0,.077.002.112.069,1.879,1.752,3.358,3.748,3.297,1.969-.063,3.511-1.56,3.511-3.409,0-.038,0-.075-.002-.112-.031-.926-.459-1.751-1.12-2.344l3.375-14.655c.038-.16.063-.319.063-.473,0-1.022-.893-1.653-1.77-1.749-.843-.091-1.819.305-2.093,1.395Z"/>
        <path class="cls-15" d="m107.296,23.122l-1.957,8.497c-.057-.006-.117-.02-.176-.018-.732.01-1.468.313-1.468.967l-.197,5.495c-1.141.573-1.913,1.69-1.913,2.994,0,.035,0,.075.002.114.065,1.877,1.747,3.356,3.748,3.293,1.967-.061,3.509-1.558,3.509-3.408,0-.035,0-.077-.002-.11-.034-.926-.462-1.755-1.124-2.348l3.377-14.653c.04-.16.063-.319.063-.471,0-1.026-.889-1.656-1.768-1.749-.848-.093-1.823.303-2.093,1.395Z"/>
        <g>
          <g>
            <path class="cls-7" d="m110.545,24.198l-4.197,18.214c-.547,2.218-4.121,1.438-3.57-.778l4.195-18.216c.547-2.218,4.117-1.438,3.572.78Z"/>
            <path class="cls-33" d="m110.717,23.747c0,.156-.021.311-.059.475l-4.195,18.214c-.273,1.093-1.246,1.489-2.093,1.4-.879-.097-1.764-.729-1.764-1.751,0-.153.019-.313.061-.475l4.191-18.218c.273-1.091,1.246-1.485,2.093-1.395.877.095,1.766.727,1.766,1.749Zm-7.878,18.338c0,.936.805,1.452,1.557,1.528.69.075,1.585-.201,1.841-1.225l4.195-18.214c.034-.146.055-.287.055-.427,0-.935-.81-1.448-1.563-1.53-.688-.075-1.584.201-1.84,1.227l-4.191,18.212c-.036.15-.055.293-.055.429Z"/>
          </g>
          <path class="cls-9" d="m107.424,22.819c1.015-.016,2.055.721,1.753,1.944l-3.922,17.032c-.101.406-.329.674-.6.876.698-.01,1.384-.37,1.594-1.219l3.922-17.03c.411-1.666-1.644-2.433-2.748-1.603Z"/>
          <g>
            <path class="cls-5" d="m104.89,44.629c-1.942.059-3.561-1.369-3.627-3.189-.065-1.82,1.451-3.349,3.392-3.408,1.942-.059,3.566,1.369,3.633,3.191.063,1.818-1.458,3.347-3.398,3.405Z"/>
            <path class="cls-22" d="m108.406,41.334c0,1.848-1.544,3.345-3.509,3.404-1.999.067-3.685-1.412-3.748-3.294-.004-.035-.004-.075-.004-.114,0-1.848,1.542-3.347,3.507-3.407,2.001-.059,3.683,1.418,3.75,3.295.004.038.004.075.004.116Zm-7.031-.004c0,.035.004.071.004.106.063,1.761,1.638,3.142,3.507,3.085,1.842-.055,3.287-1.457,3.287-3.187v-.109c-.063-1.759-1.638-3.143-3.513-3.084-1.839.059-3.285,1.459-3.285,3.189Z"/>
          </g>
          <g>
            <path class="cls-5" d="m106.354,32.939l.361,10.242c.044,1.233-3.666,1.154-3.706-.071l.363-10.242c-.046-1.225,2.939-1.158,2.983.071Z"/>
            <path class="cls-22" d="m106.83,43.201c0,.654-.895.961-1.785.975-1.053.016-2.129-.341-2.152-1.06l.361-10.276c0-.654.738-.953,1.468-.967.847-.014,1.72.349,1.745,1.06l.363,10.268Zm-3.706-.085c.019.544.986.857,1.917.841.776-.012,1.558-.252,1.558-.756h.115l-.115-.018-.361-10.244c-.025-.563-.795-.859-1.512-.849-.617.01-1.242.244-1.242.75v.031l-.361,10.244Z"/>
          </g>
        </g>
      </g>
      <g>
        <rect class="cls-23" x="159.881" y="9.331" width="40.401" height="37.424"/>
        <path class="cls-26" d="m163.518,24.395h0c-.369,0-.694-.331-.694-.701,0-.329.346-.652.694-.652.394,0,.749.309.749.652,0,.386-.338.701-.749.701Zm.004-1.099c-.206,0-.43.207-.43.398,0,.252.231.447.426.447.26,0,.478-.207.478-.447,0-.185-.21-.398-.474-.398Z"/>
        <path class="cls-26" d="m163.518,26.849c-.334,0-.694-.246-.694-.648,0-.4.361-.648.694-.648.428,0,.749.28.749.648,0,.37-.321.648-.749.648Zm-.002-1.044c-.203,0-.424.152-.424.396s.22.396.426.396c.237,0,.478-.138.478-.396s-.241-.396-.48-.396Z"/>
        <path class="cls-26" d="m163.518,29.362c-.369,0-.694-.329-.694-.705,0-.333.34-.648.694-.648.398,0,.749.303.749.648,0,.388-.338.705-.749.705Zm0-1.099c-.206,0-.426.203-.426.394,0,.256.231.451.426.451.264,0,.478-.201.478-.451,0-.183-.21-.394-.478-.394Z"/>
        <path class="cls-26" d="m163.523,31.821h-.006c-.352,0-.692-.315-.692-.65,0-.37.325-.701.692-.701.413,0,.751.315.751.701,0,.347-.35.65-.744.65Zm-.004-1.097c-.195.002-.426.199-.426.447,0,.193.22.394.426.394h.004c.264,0,.474-.209.474-.394,0-.242-.218-.447-.478-.447Z"/>
        <path class="cls-26" d="m163.518,34.277c-.334,0-.694-.248-.694-.65s.361-.648.694-.648c.428,0,.749.28.749.648,0,.372-.321.65-.749.65Zm0-1.046c-.206,0-.426.154-.426.396,0,.246.22.396.426.396.237,0,.478-.134.478-.396,0-.26-.241-.396-.478-.396Z"/>
        <g>
          <path class="cls-29" d="m190.802,42.831h-.002c-4.046,0-7.213-2.97-7.213-6.766,0-3.729,3.232-6.762,7.213-6.764,3.979.002,7.217,3.035,7.217,6.764,0,3.796-3.167,6.766-7.215,6.766Zm-.002-13.12c-3.735.002-6.775,2.854-6.775,6.354,0,3.563,2.976,6.354,6.775,6.354h.002c3.801,0,6.775-2.791,6.779-6.354-.004-3.5-3.046-6.352-6.781-6.354Z"/>
          <path class="cls-29" d="m190.8,26.114h0c-3.861,0-6.919-2.705-7.194-6.25-.015-.169-.019-.343-.019-.514,0-3.732,3.232-6.766,7.207-6.766s7.224,3.033,7.224,6.766h0c0,3.79-3.167,6.762-7.217,6.764Zm-6.775-6.764c0,3.563,2.976,6.354,6.775,6.354,3.639-.002,6.523-2.561,6.766-5.901.008-.152.015-.303.015-.453-.004-3.508-3.041-6.354-6.779-6.354s-6.777,2.846-6.777,6.354Z"/>
          <path class="cls-29" d="m190.802,24.099h-.002c-1.302,0-2.523-.477-3.454-1.339-.013-.014-.027-.026-.042-.04-.942-.898-1.46-2.096-1.46-3.37h0v-.014c.004-1.223.518-2.387,1.464-3.27.94-.882,2.177-1.367,3.492-1.367,2.796,0,5.074,2.086,5.076,4.65h0c0,2.663-2.23,4.749-5.074,4.749Zm-4.518-4.749h0c0,1.168.472,2.261,1.33,3.083.849.809,1.984,1.257,3.18,1.257,2.611,0,4.648-1.907,4.648-4.339-.006-2.338-2.085-4.243-4.642-4.243-1.193.004-2.326.443-3.186,1.251-.858.808-1.33,1.865-1.33,2.982v.01h0Z"/>
          <path class="cls-29" d="m190.8,40.714h-.006c-1.309,0-2.55-.482-3.486-1.369-.946-.884-1.466-2.048-1.464-3.279,0-2.561,2.223-4.647,4.956-4.647,2.8,0,5.076,2.084,5.076,4.647-.002,2.564-2.28,4.648-5.076,4.648Zm0-8.887c-2.49.002-4.516,1.905-4.516,4.239-.002,1.123.47,2.184,1.33,2.988.858.808,1.986,1.251,3.18,1.251v.203l.006-.203c2.557,0,4.636-1.901,4.642-4.239,0-2.336-2.083-4.239-4.642-4.239Z"/>
          <path class="cls-29" d="m174.555,26.112h-.004c-3.958,0-7.072-2.84-7.211-6.51-.002-.085-.004-.171-.004-.252,0-3.732,3.237-6.766,7.213-6.766s7.213,3.033,7.213,6.766c0,3.79-3.167,6.762-7.207,6.762Zm-6.781-6.762c0,3.559,2.979,6.352,6.777,6.352s6.775-2.793,6.775-6.352c0-3.508-3.037-6.354-6.775-6.354s-6.777,2.846-6.777,6.354Z"/>
          <path class="cls-29" d="m174.551,42.833h0c-4.046,0-7.215-2.972-7.215-6.768,0-3.729,3.239-6.762,7.215-6.762s7.211,3.033,7.211,6.762c0,3.796-3.167,6.768-7.211,6.768Zm0-13.12c-3.735,0-6.777,2.852-6.777,6.352,0,3.565,2.979,6.358,6.777,6.358,3.801-.002,6.775-2.795,6.775-6.358,0-3.5-3.037-6.352-6.775-6.352Z"/>
          <path class="cls-29" d="m174.551,24.208c-2.733,0-4.958-2.084-4.958-4.647,0-2.62,2.226-4.753,4.958-4.753,2.798,0,5.074,2.133,5.074,4.753,0,2.521-2.326,4.647-5.074,4.647Zm-4.522-4.647c0,2.336,2.032,4.239,4.522,4.239,2.513,0,4.633-1.94,4.633-4.239,0-2.354-2.116-4.341-4.629-4.341-2.494,0-4.526,1.946-4.526,4.341Z"/>
          <path class="cls-29" d="m174.551,40.924h-.002c-2.733,0-4.956-2.129-4.956-4.755,0-2.561,2.226-4.649,4.958-4.649,2.754,0,5.074,2.129,5.074,4.649,0,2.626-2.276,4.755-5.074,4.755Zm.004-8.993c-2.494,0-4.526,1.903-4.526,4.239,0,2.399,2.026,4.349,4.52,4.349v.203l.002-.203c2.513,0,4.633-1.991,4.633-4.349,0-2.297-2.116-4.239-4.629-4.239Z"/>
        </g>
      </g>
      <path class="cls-21" d="m177.059,19.401c0,1.341-1.16,2.429-2.584,2.429s-2.584-1.087-2.584-2.429,1.156-2.425,2.584-2.425,2.584,1.085,2.584,2.425Z"/>
      <path class="cls-21" d="m193.705,19.401c0,1.341-1.16,2.429-2.584,2.429s-2.584-1.087-2.584-2.429,1.156-2.425,2.584-2.425,2.584,1.085,2.584,2.425Z"/>
      <path class="cls-21" d="m193.503,36.042c0,1.341-1.158,2.429-2.586,2.429s-2.582-1.087-2.582-2.429,1.158-2.425,2.582-2.425,2.586,1.085,2.586,2.425Z"/>
      <path class="cls-21" d="m177.16,36.327c0,1.339-1.16,2.427-2.584,2.427s-2.586-1.087-2.586-2.427,1.16-2.429,2.586-2.429,2.584,1.087,2.584,2.429Z"/>
      <polygon class="cls-12" points="44.471 5.32 39.847 5.32 38.876 5.32 22.201 5.32 21.23 5.32 17.128 5.32 17.128 6.124 21.23 6.124 21.23 7.491 22.201 7.491 22.201 6.124 38.876 6.124 38.876 7.491 39.847 7.491 39.847 6.124 44.471 6.124 44.471 5.32"/>
      <polygon class="cls-12" points="104.878 5.32 100.253 5.32 99.282 5.32 82.607 5.32 81.638 5.32 77.533 5.32 77.533 6.124 81.638 6.124 81.638 7.491 82.607 7.491 82.607 6.124 99.282 6.124 99.282 7.491 100.253 7.491 100.253 6.124 104.878 6.124 104.878 5.32"/>
      <polygon class="cls-12" points="193.474 5.32 188.849 5.32 187.878 5.32 171.203 5.32 170.234 5.32 166.13 5.32 166.13 6.124 170.234 6.124 170.234 7.491 171.203 7.491 171.203 6.124 187.878 6.124 187.878 7.491 188.849 7.491 188.849 6.124 193.474 6.124 193.474 5.32"/>
      <polygon class="cls-12" points="235.689 5.32 231.065 5.32 230.095 5.32 213.421 5.32 212.448 5.32 208.345 5.32 208.345 6.124 212.448 6.124 212.448 7.491 213.421 7.491 213.421 6.124 230.095 6.124 230.095 7.491 231.065 7.491 231.065 6.124 235.689 6.124 235.689 5.32"/>
      <rect class="cls-27" x=".454" y="7.534" width="244.617" height="1.82"/>
      <g>
        <g class="cls-17">
          <path class="cls-2" d="m14.571,18.639l14.768-3.802c.942-.24,1.921.286,2.175,1.162l7.018,24.054c.258.882-.298,1.802-1.239,2.045l-14.768,3.8c-.938.242-1.917-.284-2.175-1.166l-7.018-24.054c-.256-.876.302-1.796,1.24-2.039h0Zm4.075.422c-1.46.374-.854,2.45.604,2.078l7.421-1.909c1.46-.376.856-2.454-.606-2.076l-7.419,1.907Z"/>
        </g>
        <g class="cls-17">
          <path class="cls-2" d="m13.044,18.572l14.768-3.802c.942-.242,1.921.286,2.175,1.162l7.018,24.054c.258.882-.298,1.802-1.24,2.045l-14.768,3.8c-.938.238-1.917-.286-2.175-1.168l-7.018-24.052c-.256-.88.302-1.798,1.239-2.039h0Zm4.075.422c-1.46.372-.854,2.45.604,2.076l7.421-1.911c1.46-.372.856-2.454-.606-2.076l-7.419,1.911Z"/>
        </g>
        <path class="cls-8" d="m45.656,14.889l-2.087,10.179-.931-.232s-.43.313-.487.514c-1.544,5.454-3.193,12.029-1.437,14.286,2.454-4.26,3.471-9.419,4.797-14.079l2.905-10.181c.344-1.203-2.414-1.692-2.76-.486Z"/>
        <path class="cls-8" d="m45.23,14.483l-2.091,10.179-.931-.236s-.43.319-.489.52c-1.541,5.452-3.191,12.027-1.438,14.28,2.455-4.258,3.472-9.415,4.8-14.075l2.905-10.179c.344-1.205-2.416-1.694-2.756-.488Z"/>
        <g>
          <path class="cls-3" d="m11.783,18.115l14.77-3.799c.94-.238,1.917.286,2.173,1.162l7.018,24.056c.26.882-.298,1.8-1.238,2.041l-14.77,3.802c-.936.24-1.917-.284-2.173-1.166l-7.018-24.054c-.256-.882.302-1.798,1.237-2.041h0Zm4.073.422c-1.458.376-.852,2.452.608,2.074l7.419-1.905c1.46-.374.856-2.454-.606-2.076l-7.421,1.907Z"/>
          <path class="cls-24" d="m19.276,45.654c-.902,0-1.699-.569-1.938-1.385l-7.018-24.054c-.29-.999.34-2.033,1.405-2.311l14.766-3.799c.172-.041.352-.067.526-.067.902,0,1.697.571,1.936,1.385l7.018,24.054c.141.48.072.987-.195,1.428-.264.437-.694.75-1.208.882l-14.768,3.8c-.172.043-.348.067-.524.067Zm7.742-31.177c-.136,0-.271.016-.403.049l-14.768,3.802c-.818.209-1.3,1.005-1.076,1.771l7.016,24.052c.218.753,1.091,1.221,1.89,1.013l14.768-3.798c.394-.102.726-.341.927-.678.206-.337.258-.725.151-1.095l-7.02-24.056c-.18-.624-.791-1.06-1.485-1.06Zm-10.896,6.402c-.757,0-1.238-.581-1.319-1.152-.078-.552.199-1.198.996-1.402l7.419-1.905c.138-.035.275-.053.407-.053.757,0,1.235.579,1.319,1.15.075.549-.201,1.195-.999,1.402l-7.419,1.907c-.136.035-.273.053-.405.053Zm7.502-4.075c-.09,0-.187.01-.283.039l-7.421,1.907c-.56.142-.707.569-.659.92.065.437.495.904,1.141.731l7.421-1.907c.56-.144.709-.567.659-.922-.055-.37-.344-.768-.858-.768Z"/>
        </g>
        <g>
          <path class="cls-10" d="m47.609,14.619l-2.903,10.181-1.942-.491,2.087-10.179c.344-1.21,3.102-.721,2.758.488Z"/>
          <path class="cls-1" d="m44.706,24.801l-2.873-.727s-.432.319-.487.52c-1.545,5.454-3.195,12.027-1.44,14.282,2.455-4.258,3.468-9.415,4.8-14.075Z"/>
          <path class="cls-7" d="m45.142,21.434c-.063.221-.306.353-.545.294-.233-.059-.375-.286-.313-.508.063-.222.306-.355.545-.291.235.053.371.282.313.506Z"/>
          <path class="cls-7" d="m45.843,18.98c-.063.219-.306.353-.547.289-.231-.059-.371-.284-.313-.508.065-.221.311-.353.546-.294.235.059.375.286.314.512Z"/>
        </g>
      </g>
      <g>
        <rect class="cls-15" x=".179" y="37.314" width="285.786" height="9.583"/>
        <rect class="cls-15" x=".179" y="42.609" width="285.786" height="4.288"/>
      </g>
    </g>
  </g>
</svg>