<?xml version="1.0" encoding="UTF-8"?>
<svg xmlns="http://www.w3.org/2000/svg" xmlns:xlink="http://www.w3.org/1999/xlink" viewBox="0 0 71.955 390.202">
  <defs>
    <style>
      .cls-1 {
        fill: url(#linear-gradient-4);
      }

      .cls-1, .cls-2, .cls-3, .cls-4, .cls-5, .cls-6, .cls-7, .cls-8, .cls-9, .cls-10, .cls-11, .cls-12 {
        fill-rule: evenodd;
      }

      .cls-13 {
        fill: url(#linear-gradient-2);
      }

      .cls-14 {
        fill: #fff;
      }

      .cls-2, .cls-15, .cls-8 {
        fill: #ddd3cc;
      }

      .cls-3 {
        fill: #c48f5c;
      }

      .cls-16 {
        fill: #808184;
      }

      .cls-4 {
        fill: #929497;
      }

      .cls-15, .cls-8, .cls-17 {
        mix-blend-mode: multiply;
      }

      .cls-18 {
        opacity: .8;
      }

      .cls-18, .cls-19 {
        fill: #d2e9f9;
        mix-blend-mode: screen;
      }

      .cls-20 {
        isolation: isolate;
      }

      .cls-5 {
        fill: #bbbdbf;
      }

      .cls-21 {
        fill: #6b1007;
      }

      .cls-22 {
        fill: #595951;
      }

      .cls-6 {
        fill: url(#linear-gradient);
      }

      .cls-7 {
        fill: #e6e7e8;
      }

      .cls-23 {
        fill: #111;
      }

      .cls-9 {
        fill: #bdbfc1;
      }

      .cls-24 {
        fill: #e8b489;
      }

      .cls-25 {
        fill: #bbbbbc;
      }

      .cls-26 {
        fill: #4c4c4a;
      }

      .cls-27 {
        fill: #d84464;
      }

      .cls-19 {
        opacity: .5;
      }

      .cls-28 {
        fill: #57585b;
      }

      .cls-10 {
        fill: #be3749;
      }

      .cls-11 {
        fill: #a6a8ab;
      }

      .cls-29 {
        fill: #686867;
      }

      .cls-30, .cls-12 {
        fill: #21211e;
      }

      .cls-31 {
        fill: #606060;
      }

      .cls-32 {
        fill: url(#linear-gradient-3);
      }

      .cls-33 {
        fill: #53585b;
      }
    </style>
    <linearGradient id="linear-gradient" x1="-92.536" y1="207.031" x2="-95.706" y2="189.128" gradientTransform="translate(-159.124 231.078) rotate(-90)" gradientUnits="userSpaceOnUse">
      <stop offset=".03" stop-color="#e8e8e8"/>
      <stop offset=".564" stop-color="#b4b4b4"/>
    </linearGradient>
    <linearGradient id="linear-gradient-2" x1="136.619" y1="113.819" x2="-114.408" y2="333.277" gradientTransform="translate(-159.124 231.078) rotate(-90)" gradientUnits="userSpaceOnUse">
      <stop offset=".006" stop-color="#5b5e5d"/>
      <stop offset=".279" stop-color="#8c8c8c"/>
      <stop offset=".842" stop-color="#5b5e5d"/>
    </linearGradient>
    <linearGradient id="linear-gradient-3" x1="511.793" y1="-126.966" x2="540.63" y2="-90.766" gradientTransform="translate(-478.56 -88.358) scale(1 -1)" xlink:href="#linear-gradient"/>
    <linearGradient id="linear-gradient-4" x1="-100.342" y1="215.541" x2="-103.512" y2="197.639" xlink:href="#linear-gradient"/>
  </defs>
  <g class="cls-20">
    <g id="Layer_1" data-name="Layer 1">
      <g>
        <path class="cls-3" d="m19.284,366.336l-5.829-20.13c-.366-1.281.438-2.613,1.783-2.961l36.91-9.566c1.354-.354,2.762.409,3.131,1.688l5.833,20.13c.369,1.275-.435,2.613-1.789,2.961l-36.906,9.565c-1.354.349-2.759-.412-3.131-1.687h0Zm.647-5.551c.577,1.987,3.763,1.161,3.182-.829l-2.922-10.111c-.574-1.99-3.766-1.166-3.185.826l2.925,10.114Z"/>
        <path class="cls-24" d="m61.537,356.125c0,1.229-.874,2.315-2.125,2.641l-36.906,9.565c-1.532.395-3.119-.463-3.545-1.915l-5.829-20.125c-.063-.234-.103-.48-.103-.717,0-1.229.876-2.313,2.125-2.639l36.907-9.564c.737-.194,1.514-.097,2.191.266.671.357,1.151.943,1.354,1.645l5.83,20.128c.066.234.103.475.103.715Zm-47.835-10.551c0,.186.024.369.076.549l5.833,20.128c.32,1.115,1.541,1.772,2.717,1.467l36.904-9.562c1.155-.297,1.874-1.487,1.554-2.576l-5.827-20.128c-.157-.537-.523-.991-1.04-1.262-.517-.28-1.112-.354-1.68-.208l-36.91,9.569c-.958.246-1.626,1.078-1.626,2.024Zm9.822,14.85c0,1.032-.892,1.687-1.768,1.798-.846.106-1.838-.272-2.152-1.358l-2.923-10.111c-.054-.189-.081-.374-.081-.554,0-1.032.888-1.684,1.765-1.798.843-.103,1.834.275,2.152,1.361l2.925,10.111c.054.186.082.371.082.551Zm-6.253-10.225c0,.123.015.254.06.386l2.925,10.114c.218.763.873.963,1.411.897.671-.088,1.387-.674,1.122-1.555l-2.926-10.114c-.22-.763-.87-.966-1.414-.897-.568.074-1.178.469-1.178,1.169Z"/>
      </g>
      <g>
        <path class="cls-10" d="m13.92,317.512l15.622,3.956-.753,2.647-15.618-2.847c-1.856-.469-1.106-4.228.749-3.756Z"/>
        <path class="cls-6" d="m29.542,321.468l-1.115,3.914s.49.592.798.663c8.368,2.107,18.453,4.354,21.914,1.961-6.534-3.342-14.446-4.725-21.596-6.538Z"/>
        <path class="cls-7" d="m24.377,320.871c.339.086.541.417.451.743-.091.317-.438.512-.78.426-.341-.086-.544-.417-.447-.744.081-.32.432-.509.776-.426Z"/>
        <path class="cls-7" d="m20.611,319.919c.335.086.541.414.444.744-.091.314-.435.509-.78.426-.339-.089-.541-.42-.451-.743.091-.32.438-.512.786-.426Z"/>
      </g>
      <rect class="cls-13" x="14.376" y=".881" width="57.379" height="389.322"/>
      <g>
        <rect class="cls-15" x="0" y=".46" width="14.703" height="389.497"/>
        <rect class="cls-15" x="8.124" y=".46" width="6.579" height="389.497"/>
      </g>
      <g>
        <rect class="cls-30" x="8.876" y="2.742" width="4.865" height="16.297"/>
        <path class="cls-29" d="m14.171,2.742v16.297c0,.223-.193.4-.429.4h-4.865c-.23,0-.423-.177-.423-.4V2.742c0-.215.193-.392.423-.392h4.865c.236,0,.429.177.429.392Zm-4.866,15.902h4.014s0-15.502,0-15.502h-4.014s0,15.502,0,15.502Z"/>
        <polygon class="cls-32" points="11.941 55.797 11.946 .4 71.253 .4 71.262 55.797 11.941 55.797"/>
        <path class="cls-29" d="m71.683.4l.003,55.397c0,.109-.049.208-.127.283-.078.074-.187.117-.296.117H11.941c-.109,0-.218-.043-.299-.117s-.121-.174-.121-.283l.003-55.397c0-.223.191-.4.423-.4h59.307c.239,0,.429.177.429.4ZM12.37,55.406h58.461s0-54.614,0-54.614H12.373s-.003,54.614-.003,54.614Z"/>
        <path class="cls-14" d="m16.99,55.797l.009-55.397-.009,55.397Z"/>
        <path class="cls-29" d="m17,0c-.236,0-.426.177-.426.4l-.003,55.397c0,.226.187.4.42.4s.432-.174.432-.4V.4C17.423.177,17.232,0,17,0Z"/>
        <g>
          <polygon class="cls-19" points="57.007 53.905 65.475 53.696 30.246 2.107 21.324 2.315 57.007 53.905"/>
          <polygon class="cls-18" points="69.283 53.773 70.329 53.696 35.09 2.107 33.368 2.096 69.283 53.773"/>
        </g>
      </g>
      <g>
        <rect class="cls-31" x="15.217" y="223.789" width="56.288" height="83.699"/>
        <path class="cls-25" d="m18.535,298.636v-65.999c0-2.942,2.375-5.274,5.222-5.274h39.046c2.847,0,5.222,2.336,5.222,5.274v65.999c0,2.793-2.375,5.12-5.222,5.123l-39.052-.003c-2.841.003-5.216-2.33-5.216-5.12Z"/>
        <path class="cls-16" d="m40.86,251.975c0-1.303,1.218-2.287,2.602-2.287,1.378-.006,2.418.977,2.412,2.287.006,1.309-1.033,2.447-2.412,2.447-1.384.006-2.602-1.143-2.602-2.447Z"/>
        <path class="cls-16" d="m22.019,263.702v-27.797c-.003-2.484,1.816-4.508,3.926-4.499h29.856c2.107-.009,3.932,2.015,3.932,4.499v27.8c0,2.476-1.819,4.502-3.932,4.502l-29.856-.003c-2.11.003-3.926-2.024-3.926-4.502Z"/>
        <g>
          <path class="cls-11" d="m39.14,242.662c-4.334,0-7.864,3.339-7.864,7.438,0,4.093,3.53,7.432,7.864,7.432,4.328,0,7.854-3.339,7.854-7.432,0-4.099-3.527-7.438-7.854-7.438Z"/>
          <path class="cls-4" d="m39.14,244.492c-3.27,0-5.933,2.515-5.933,5.609,0,3.087,2.662,5.609,5.933,5.609s5.929-2.521,5.929-5.609c0-3.093-2.666-5.609-5.929-5.609Z"/>
          <path class="cls-5" d="m39.14,245.658c-2.59,0-4.697,1.995-4.697,4.442s2.106,4.442,4.697,4.442,4.69-1.998,4.69-4.442c0-2.447-2.103-4.442-4.69-4.442Z"/>
        </g>
        <g>
          <rect class="cls-28" x="63.396" y="270.059" width="1.146" height="30.127"/>
          <rect class="cls-28" x="58.201" y="270.059" width="1.146" height="30.127"/>
          <rect class="cls-28" x="53.012" y="270.059" width="1.139" height="30.127"/>
          <rect class="cls-28" x="47.819" y="270.059" width="1.143" height="30.127"/>
          <rect class="cls-28" x="42.624" y="270.059" width="1.146" height="30.127"/>
          <rect class="cls-28" x="37.436" y="270.059" width="1.139" height="30.127"/>
          <rect class="cls-28" x="32.24" y="270.059" width="1.145" height="30.127"/>
          <rect class="cls-28" x="27.045" y="270.059" width="1.148" height="30.127"/>
          <rect class="cls-28" x="21.853" y="270.059" width="1.145" height="30.127"/>
        </g>
        <path class="cls-15" d="m34.776,243.245l13.038,2.664c-.006.08-.024.16-.024.243.018.998.481,2.001,1.487,2.001l8.429.269c.88,1.549,2.596,2.61,4.594,2.61.054,0,.118,0,.172-.003,2.883-.095,5.153-2.387,5.059-5.109-.097-2.684-2.394-4.785-5.231-4.785-.058,0-.115,0-.172.003-1.42.043-2.687.626-3.596,1.526l-22.485-4.599c-.245-.052-.49-.086-.725-.086-1.569,0-2.536,1.218-2.684,2.413-.139,1.149.469,2.478,2.14,2.853Z"/>
        <path class="cls-15" d="m35.477,243.969l13.038,2.667c-.009.077-.03.16-.027.24.015.998.48,2.001,1.484,2.001l8.432.269c.879,1.555,2.593,2.607,4.593,2.607.054,0,.115,0,.175-.003,2.88-.089,5.15-2.381,5.053-5.109-.094-2.681-2.391-4.782-5.228-4.782-.054,0-.118,0-.169.003-1.42.046-2.693.629-3.603,1.532l-22.482-4.602c-.245-.054-.49-.086-.722-.086-1.574,0-2.541,1.212-2.683,2.41-.142,1.155.465,2.484,2.14,2.853Z"/>
        <g>
          <g>
            <path class="cls-7" d="m37.127,239.541l27.946,5.72c3.403.746,2.206,5.617-1.194,4.865l-27.949-5.717c-3.403-.746-2.206-5.611,1.197-4.868Z"/>
            <path class="cls-33" d="m36.435,239.306c.239,0,.478.028.728.08l27.946,5.717c1.677.371,2.285,1.698,2.149,2.853-.148,1.198-1.118,2.404-2.687,2.404-.236,0-.48-.026-.728-.083l-27.952-5.711c-1.675-.372-2.279-1.698-2.14-2.853.145-1.195,1.115-2.407,2.684-2.407Zm28.136,10.737c1.436,0,2.228-1.098,2.345-2.121.115-.94-.308-2.161-1.88-2.51l-27.946-5.717c-.223-.046-.441-.074-.656-.074-1.435,0-2.221,1.104-2.348,2.13-.115.938.309,2.158,1.883,2.507l27.943,5.712c.23.049.45.074.659.074Z"/>
          </g>
          <path class="cls-9" d="m35.012,243.794c-.024-1.384,1.106-2.801,2.983-2.39l26.133,5.346c.622.137,1.034.449,1.345.817-.015-.952-.568-1.887-1.87-2.172l-26.13-5.346c-2.557-.56-3.733,2.241-2.46,3.745Z"/>
          <g>
            <path class="cls-5" d="m68.476,247.247c.091,2.647-2.1,4.854-4.893,4.943-2.792.088-5.138-1.978-5.228-4.623-.091-2.647,2.101-4.859,4.896-4.951,2.789-.086,5.135,1.987,5.225,4.631Z"/>
            <path class="cls-22" d="m63.42,242.456c2.835,0,5.132,2.104,5.222,4.782.103,2.724-2.167,5.023-5.053,5.109-.054.006-.115.006-.175.006-2.835,0-5.135-2.101-5.228-4.78-.091-2.727,2.176-5.02,5.056-5.111.058-.006.115-.006.179-.006Zm-.006,9.582c.054,0,.109-.006.163-.006,2.702-.086,4.821-2.233,4.733-4.78-.084-2.51-2.236-4.479-4.89-4.479h-.166c-2.699.086-4.823,2.232-4.732,4.788.09,2.507,2.239,4.477,4.893,4.477Z"/>
          </g>
          <g>
            <path class="cls-5" d="m50.54,245.252l15.715-.492c1.892-.06,1.771,4.997-.109,5.051l-15.715-.495c-1.88.063-1.777-4.005.109-4.065Z"/>
            <path class="cls-22" d="m66.285,244.603c1.004,0,1.475,1.22,1.496,2.433.024,1.435-.523,2.901-1.626,2.933l-15.767-.492c-1.003,0-1.463-1.006-1.484-2.001-.021-1.155.535-2.344,1.626-2.378l15.754-.494Zm-.13,5.051c.834-.025,1.315-1.343,1.29-2.613-.018-1.058-.387-2.124-1.161-2.124v-.157s-.027.157-.027.157l-15.718.491c-.864.035-1.318,1.084-1.303,2.061.015.841.374,1.693,1.151,1.693h.048s15.718.491,15.718.491Z"/>
          </g>
        </g>
      </g>
      <g>
        <rect class="cls-23" x="14.316" y="117.237" width="57.421" height="55.063"/>
        <path class="cls-26" d="m37.429,167.343h0c0,.503-.508.946-1.076.946-.505,0-1.001-.472-1.001-.946,0-.537.474-1.02,1.001-1.02.592,0,1.076.46,1.076,1.02Zm-1.686-.006c0,.28.317.586.611.586.387,0,.686-.314.686-.58,0-.354-.317-.652-.686-.652-.284,0-.611.286-.611.646Z"/>
        <path class="cls-26" d="m41.195,167.343c0,.455-.378.946-.994.946-.613,0-.994-.492-.994-.946,0-.583.429-1.02.994-1.02.568,0,.994.437.994,1.02Zm-1.602.003c0,.277.233.577.607.577s.607-.3.607-.58c0-.323-.211-.652-.607-.652s-.607.329-.607.655Z"/>
        <path class="cls-26" d="m45.051,167.343c0,.503-.505.946-1.082.946-.511,0-.994-.463-.994-.946,0-.543.465-1.02.994-1.02.595,0,1.082.46,1.082,1.02Zm-1.686,0c0,.28.311.58.604.58.393,0,.692-.314.692-.58,0-.36-.308-.652-.692-.652-.281,0-.604.286-.604.652Z"/>
        <path class="cls-26" d="m48.823,167.337v.009c0,.48-.484.943-.997.943-.568,0-1.076-.443-1.076-.943,0-.563.484-1.023,1.076-1.023.532,0,.997.477.997,1.015Zm-1.684.006c.003.266.305.58.686.58.296,0,.604-.3.604-.58v-.006c0-.36-.32-.646-.604-.646-.372,0-.686.297-.686.652Z"/>
        <path class="cls-26" d="m52.591,167.343c0,.455-.381.946-.997.946s-.994-.492-.994-.946c0-.583.429-1.02.994-1.02.571,0,.997.437.997,1.02Zm-1.605,0c0,.28.236.58.607.58.378,0,.607-.3.607-.58,0-.323-.205-.652-.607-.652-.399,0-.607.329-.607.652Z"/>
        <g>
          <path class="cls-29" d="m65.717,130.159v.003c0,5.514-4.557,9.83-10.381,9.83-5.721,0-10.375-4.405-10.378-9.83.003-5.423,4.657-9.837,10.378-9.837,5.824,0,10.381,4.316,10.381,9.834Zm-20.13.003c.003,5.091,4.379,9.233,9.75,9.233,5.467,0,9.749-4.056,9.749-9.233v-.003c0-5.18-4.282-9.233-9.749-9.239-5.371.006-9.747,4.151-9.75,9.242Z"/>
          <path class="cls-29" d="m40.068,130.161h0c0,5.263-4.15,9.43-9.59,9.805-.26.02-.526.025-.789.025-5.727,0-10.381-4.405-10.381-9.822,0-5.431,4.654-9.845,10.381-9.845h0c5.815,0,10.375,4.316,10.378,9.837Zm-10.378,9.233c5.467,0,9.75-4.056,9.75-9.233-.003-4.96-3.929-8.891-9.054-9.222-.233-.011-.465-.02-.695-.02-5.382.006-9.749,4.145-9.749,9.239s4.367,9.236,9.749,9.236Z"/>
          <path class="cls-29" d="m36.976,130.159v.003c0,1.775-.731,3.439-2.055,4.708-.021.017-.039.037-.061.057-1.378,1.284-3.215,1.99-5.171,1.99h-.021c-1.877-.006-3.663-.706-5.017-1.995-1.354-1.281-2.097-2.967-2.097-4.759,0-3.811,3.201-6.915,7.135-6.918h0c4.086,0,7.286,3.039,7.286,6.915Zm-7.286,6.157h0c1.792,0,3.469-.643,4.73-1.813,1.242-1.158,1.928-2.704,1.928-4.333,0-3.559-2.925-6.335-6.658-6.335-3.587.008-6.51,2.841-6.51,6.326.006,1.626.68,3.17,1.919,4.342,1.239,1.169,2.862,1.813,4.576,1.813h.015Z"/>
          <path class="cls-29" d="m62.468,130.161v.008c0,1.784-.74,3.476-2.1,4.751-1.357,1.289-3.143,1.998-5.032,1.995-3.929,0-7.13-3.03-7.13-6.755,0-3.817,3.197-6.918,7.13-6.918,3.935.003,7.132,3.107,7.132,6.918Zm-13.636,0c.003,3.393,2.922,6.154,6.504,6.154,1.723.003,3.352-.64,4.584-1.813,1.239-1.169,1.919-2.707,1.919-4.333h.311s-.311-.008-.311-.008c0-3.485-2.916-6.318-6.503-6.326-3.584,0-6.504,2.839-6.504,6.326Z"/>
          <path class="cls-29" d="m40.065,152.301v.006c0,5.394-4.358,9.639-9.988,9.828-.13.003-.263.006-.387.006-5.727,0-10.381-4.411-10.381-9.831,0-5.426,4.654-9.831,10.381-9.831,5.815,0,10.375,4.316,10.375,9.822Zm-10.375,9.242c5.461,0,9.747-4.059,9.747-9.236,0-5.18-4.286-9.233-9.747-9.233-5.382,0-9.749,4.139-9.749,9.233s4.367,9.236,9.749,9.236Z"/>
          <path class="cls-29" d="m65.72,152.307h0c0,5.514-4.56,9.834-10.384,9.834-5.721,0-10.375-4.414-10.375-9.834s4.654-9.828,10.375-9.828c5.824,0,10.384,4.316,10.384,9.828Zm-20.131,0c0,5.091,4.376,9.236,9.747,9.236,5.47,0,9.755-4.059,9.755-9.236-.003-5.18-4.288-9.233-9.755-9.233-5.371,0-9.747,4.139-9.747,9.233Z"/>
          <path class="cls-29" d="m37.142,152.307c0,3.725-3.197,6.758-7.129,6.758-4.019,0-7.292-3.033-7.292-6.758,0-3.814,3.273-6.915,7.292-6.915,3.868,0,7.129,3.17,7.129,6.915Zm-7.129,6.163c3.584,0,6.504-2.77,6.504-6.163,0-3.425-2.977-6.315-6.504-6.315-3.612,0-6.661,2.884-6.661,6.309,0,3.399,2.986,6.169,6.661,6.169Z"/>
          <path class="cls-29" d="m62.791,152.307v.003c0,3.725-3.267,6.755-7.295,6.755-3.929,0-7.132-3.033-7.132-6.758,0-3.753,3.267-6.915,7.132-6.915,4.029,0,7.295,3.101,7.295,6.915Zm-13.799-.006c0,3.399,2.919,6.169,6.503,6.169,3.681,0,6.673-2.761,6.673-6.16h.311s-.311-.003-.311-.003c0-3.425-3.055-6.315-6.673-6.315-3.524,0-6.503,2.884-6.503,6.309Z"/>
        </g>
      </g>
      <path class="cls-21" d="m29.768,148.888c2.058,0,3.726,1.581,3.726,3.522,0,1.947-1.668,3.522-3.726,3.522s-3.72-1.575-3.72-3.522c0-1.941,1.665-3.522,3.72-3.522Z"/>
      <path class="cls-21" d="m29.768,126.202c2.058,0,3.726,1.581,3.726,3.522,0,1.947-1.668,3.522-3.726,3.522s-3.72-1.575-3.72-3.522c0-1.941,1.665-3.522,3.72-3.522Z"/>
      <path class="cls-21" d="m55.299,126.477c2.058,0,3.726,1.578,3.726,3.525,0,1.941-1.668,3.519-3.726,3.519s-3.72-1.578-3.72-3.519c0-1.947,1.665-3.525,3.72-3.525Z"/>
      <path class="cls-21" d="m55.738,148.751c2.055,0,3.724,1.581,3.724,3.522,0,1.944-1.668,3.525-3.724,3.525s-3.726-1.581-3.726-3.525,1.668-3.522,3.726-3.522Z"/>
      <polygon class="cls-12" points="8.163 329.592 8.163 335.894 8.163 337.218 8.163 359.944 8.163 361.267 8.163 366.859 9.396 366.859 9.396 361.267 11.493 361.267 11.493 359.944 9.396 359.944 9.396 337.218 11.493 337.218 11.493 335.894 9.396 335.894 9.396 329.592 8.163 329.592"/>
      <polygon class="cls-12" points="8.163 247.264 8.163 253.568 8.163 254.891 8.163 277.617 8.163 278.938 8.163 284.532 9.396 284.532 9.396 278.938 11.493 278.938 11.493 277.617 9.396 277.617 9.396 254.891 11.493 254.891 11.493 253.568 9.396 253.568 9.396 247.264 8.163 247.264"/>
      <polygon class="cls-12" points="8.163 126.516 8.163 132.82 8.163 134.143 8.163 156.869 8.163 158.19 8.163 163.784 9.396 163.784 9.396 158.19 11.493 158.19 11.493 156.869 9.396 156.869 9.396 134.143 11.493 134.143 11.493 132.82 9.396 132.82 9.396 126.516 8.163 126.516"/>
      <polygon class="cls-12" points="8.163 68.981 8.163 75.285 8.163 76.605 8.163 99.331 8.163 100.657 8.163 106.249 9.396 106.249 9.396 100.657 11.493 100.657 11.493 99.331 9.396 99.331 9.396 76.605 11.493 76.605 11.493 75.285 9.396 75.285 9.396 68.981 8.163 68.981"/>
      <rect class="cls-27" x="11.56" y="56.195" width="2.793" height="333.389"/>
      <g>
        <g class="cls-17">
          <path class="cls-2" d="m28.599,370.343l-5.833-20.128c-.369-1.283.438-2.618,1.783-2.964l36.907-9.565c1.354-.352,2.765.406,3.137,1.689l5.83,20.128c.372,1.278-.435,2.613-1.789,2.964l-36.907,9.565c-1.345.349-2.756-.412-3.128-1.69h0Zm.647-5.554c.574,1.989,3.759,1.163,3.188-.823l-2.929-10.114c-.577-1.99-3.766-1.166-3.185.826l2.925,10.111Z"/>
        </g>
        <g class="cls-17">
          <path class="cls-2" d="m28.496,372.425l-5.833-20.128c-.372-1.284.438-2.619,1.783-2.964l36.907-9.565c1.354-.352,2.765.406,3.137,1.69l5.83,20.127c.365,1.278-.438,2.613-1.792,2.964l-36.904,9.565c-1.351.349-2.759-.412-3.128-1.689h0Zm.647-5.554c.571,1.99,3.759,1.164,3.185-.823l-2.932-10.114c-.571-1.99-3.766-1.166-3.185.826l2.932,10.111Z"/>
        </g>
        <path class="cls-8" d="m22.844,327.977l15.619,2.844-.357,1.269s.48.586.789.663c8.368,2.104,18.456,4.352,21.92,1.958-6.537-3.345-14.452-4.731-21.602-6.538l-15.622-3.959c-1.846-.469-2.596,3.29-.746,3.762Z"/>
        <path class="cls-8" d="m22.222,328.558l15.618,2.85-.363,1.269s.49.586.798.666c8.365,2.1,18.453,4.349,21.91,1.959-6.534-3.346-14.446-4.732-21.596-6.542l-15.619-3.959c-1.849-.469-2.599,3.293-.749,3.756Z"/>
        <g>
          <path class="cls-3" d="m27.795,374.143l-5.829-20.13c-.366-1.281.438-2.613,1.783-2.961l36.91-9.565c1.354-.354,2.762.406,3.131,1.687l5.833,20.13c.369,1.275-.435,2.613-1.789,2.962l-36.906,9.565c-1.354.349-2.759-.412-3.131-1.686h0Zm.647-5.551c.577,1.987,3.763,1.161,3.182-.829l-2.922-10.111c-.574-1.99-3.766-1.166-3.185.826l2.925,10.114Z"/>
          <path class="cls-24" d="m70.048,363.932c0,1.229-.874,2.315-2.125,2.641l-36.906,9.565c-1.532.395-3.119-.463-3.545-1.915l-5.829-20.125c-.063-.234-.103-.48-.103-.717,0-1.229.876-2.313,2.125-2.639l36.907-9.565c.737-.192,1.514-.097,2.191.266.671.36,1.151.946,1.354,1.647l5.83,20.127c.066.234.103.475.103.715Zm-47.835-10.551c0,.186.024.369.076.549l5.833,20.128c.32,1.115,1.541,1.772,2.717,1.467l36.904-9.562c1.155-.297,1.874-1.486,1.554-2.575l-5.827-20.128c-.157-.537-.523-.989-1.04-1.264-.517-.28-1.112-.352-1.68-.206l-36.91,9.568c-.958.246-1.626,1.078-1.626,2.024Zm9.822,14.85c0,1.032-.892,1.687-1.768,1.798-.846.106-1.838-.272-2.152-1.358l-2.923-10.111c-.054-.189-.081-.374-.081-.554,0-1.032.888-1.684,1.765-1.798.843-.103,1.834.275,2.152,1.361l2.925,10.111c.054.186.082.371.082.551Zm-6.253-10.225c0,.123.015.254.06.386l2.925,10.114c.218.763.873.963,1.411.897.671-.088,1.387-.674,1.122-1.555l-2.926-10.114c-.22-.763-.87-.966-1.414-.897-.568.074-1.178.469-1.178,1.169Z"/>
        </g>
        <g>
          <path class="cls-10" d="m22.43,325.316l15.622,3.956-.753,2.647-15.618-2.844c-1.856-.469-1.106-4.228.749-3.759Z"/>
          <path class="cls-1" d="m38.052,329.272l-1.115,3.916s.49.589.798.663c8.368,2.105,18.453,4.355,21.914,1.962-6.534-3.346-14.446-4.727-21.596-6.542Z"/>
          <path class="cls-7" d="m32.887,328.678c.339.086.541.417.451.743-.091.317-.438.512-.78.426-.341-.085-.544-.417-.447-.743.081-.32.432-.506.776-.426Z"/>
          <path class="cls-7" d="m29.122,327.723c.335.086.541.417.444.746-.091.315-.435.506-.78.426-.339-.089-.541-.423-.451-.744.091-.32.438-.512.786-.429Z"/>
        </g>
      </g>
      <g>
        <rect class="cls-15" x="57.252" y=".46" width="14.703" height="389.497"/>
        <rect class="cls-15" x="65.375" y=".46" width="6.579" height="389.497"/>
      </g>
    </g>
  </g>
</svg>