<?xml version="1.0" encoding="UTF-8"?>
<svg xmlns="http://www.w3.org/2000/svg" xmlns:xlink="http://www.w3.org/1999/xlink" viewBox="0 0 46.897 286.303">
  <defs>
    <style>
      .cls-1 {
        fill: url(#linear-gradient-4);
      }

      .cls-1, .cls-2, .cls-3, .cls-4, .cls-5, .cls-6, .cls-7, .cls-8, .cls-9, .cls-10, .cls-11, .cls-12 {
        fill-rule: evenodd;
      }

      .cls-13 {
        fill: url(#linear-gradient-2);
      }

      .cls-14 {
        fill: #fff;
      }

      .cls-2, .cls-15, .cls-8 {
        fill: #ddd3cc;
      }

      .cls-3 {
        fill: #c48f5c;
      }

      .cls-16 {
        fill: #808184;
      }

      .cls-4 {
        fill: #929497;
      }

      .cls-15, .cls-8, .cls-17 {
        mix-blend-mode: multiply;
      }

      .cls-18 {
        opacity: .8;
      }

      .cls-18, .cls-19 {
        fill: #d2e9f9;
        mix-blend-mode: screen;
      }

      .cls-20 {
        isolation: isolate;
      }

      .cls-5 {
        fill: #bbbdbf;
      }

      .cls-21 {
        fill: #6b1007;
      }

      .cls-22 {
        fill: #595951;
      }

      .cls-6 {
        fill: url(#linear-gradient);
      }

      .cls-7 {
        fill: #e6e7e8;
      }

      .cls-23 {
        fill: #111;
      }

      .cls-9 {
        fill: #bdbfc1;
      }

      .cls-24 {
        fill: #e8b489;
      }

      .cls-25 {
        fill: #bbbbbc;
      }

      .cls-26 {
        fill: #4c4c4a;
      }

      .cls-27 {
        fill: #d84464;
      }

      .cls-19 {
        opacity: .5;
      }

      .cls-28 {
        fill: #57585b;
      }

      .cls-10 {
        fill: #be3749;
      }

      .cls-11 {
        fill: #a6a8ab;
      }

      .cls-29 {
        fill: #686867;
      }

      .cls-30, .cls-12 {
        fill: #21211e;
      }

      .cls-31 {
        fill: #606060;
      }

      .cls-32 {
        fill: url(#linear-gradient-3);
      }

      .cls-33 {
        fill: #53585b;
      }
    </style>
    <linearGradient id="linear-gradient" x1="-70.979" y1="150.891" x2="-73.04" y2="139.253" gradientTransform="translate(166.6 119.703) rotate(90)" gradientUnits="userSpaceOnUse">
      <stop offset=".03" stop-color="#e8e8e8"/>
      <stop offset=".564" stop-color="#b4b4b4"/>
    </linearGradient>
    <linearGradient id="linear-gradient-2" x1="96.346" y1="83.758" x2="-85.491" y2="242.728" gradientTransform="translate(166.6 119.703) rotate(90)" gradientUnits="userSpaceOnUse">
      <stop offset=".006" stop-color="#5b5e5d"/>
      <stop offset=".279" stop-color="#8c8c8c"/>
      <stop offset=".842" stop-color="#5b5e5d"/>
    </linearGradient>
    <linearGradient id="linear-gradient-3" x1="351.27" y1="-71.609" x2="371.34" y2="-46.414" gradientTransform="translate(376.877 329.981) rotate(-180) scale(1 -1)" xlink:href="#linear-gradient"/>
    <linearGradient id="linear-gradient-4" x1="-76.707" y1="156.437" x2="-78.767" y2="144.8" xlink:href="#linear-gradient"/>
  </defs>
  <g class="cls-20">
    <g id="Layer_1" data-name="Layer 1">
      <g>
        <path class="cls-3" d="m34.328,17.512l3.799,14.77c.238.94-.286,1.917-1.162,2.173l-24.056,7.019c-.882.26-1.8-.3-2.041-1.239l-3.802-14.77c-.24-.935.284-1.917,1.166-2.173l24.054-7.018c.882-.256,1.798.302,2.041,1.238h0Zm-.422,4.073c-.376-1.458-2.452-.852-2.074.608l1.905,7.419c.374,1.46,2.454.856,2.076-.606l-1.907-7.421Z"/>
        <path class="cls-24" d="m6.79,25.004c0-.902.569-1.699,1.385-1.938l24.054-7.018c.999-.29,2.033.34,2.311,1.405l3.799,14.766c.041.172.067.352.067.526,0,.902-.571,1.697-1.385,1.936l-24.054,7.017c-.48.143-.987.071-1.428-.195-.437-.262-.75-.692-.882-1.207l-3.8-14.768c-.043-.172-.067-.348-.067-.524Zm31.177,7.742c0-.136-.016-.271-.049-.403l-3.802-14.768c-.209-.818-1.005-1.3-1.771-1.076l-24.052,7.016c-.753.218-1.221,1.091-1.013,1.89l3.798,14.768c.102.394.341.727.678.926.337.206.725.26,1.095.153l24.056-7.021c.624-.18,1.06-.791,1.06-1.485Zm-6.402-10.896c0-.757.581-1.238,1.152-1.319.552-.078,1.198.199,1.402.996l1.905,7.419c.035.138.053.275.053.407,0,.757-.579,1.235-1.15,1.319-.549.075-1.195-.201-1.402-.999l-1.907-7.419c-.035-.136-.053-.273-.053-.405Zm4.075,7.502c0-.09-.01-.187-.039-.283l-1.907-7.421c-.142-.56-.569-.707-.92-.659-.437.065-.904.495-.731,1.141l1.907,7.421c.144.56.567.709.922.659.37-.055.768-.344.768-.858Z"/>
      </g>
      <g>
        <path class="cls-10" d="m37.824,53.335l-10.181-2.903.491-1.942,10.179,2.089c1.21.344.721,3.102-.488,2.756Z"/>
        <path class="cls-6" d="m27.643,50.432l.727-2.872s-.319-.434-.52-.486c-5.454-1.546-12.027-3.194-14.282-1.439,4.258,2.452,9.415,3.467,14.075,4.797Z"/>
        <path class="cls-7" d="m31.009,50.871c-.221-.063-.353-.306-.294-.545.059-.233.286-.376.508-.313.222.063.355.306.291.546-.053.235-.282.373-.506.313Z"/>
        <path class="cls-7" d="m33.463,51.569c-.219-.063-.353-.304-.289-.546.059-.231.284-.373.508-.313.221.065.353.308.294.545-.059.235-.286.376-.512.313Z"/>
      </g>
      <rect class="cls-13" x=".13" y="0" width="37.397" height="285.657"/>
      <g>
        <rect class="cls-15" x="37.314" y=".179" width="9.583" height="285.786"/>
        <rect class="cls-15" x="37.314" y=".179" width="4.288" height="285.786"/>
      </g>
      <g>
        <rect class="cls-30" x="37.941" y="272.334" width="3.171" height="11.957"/>
        <path class="cls-29" d="m37.661,284.291v-11.957c0-.164.126-.294.28-.294h3.171c.15,0,.276.13.276.294v11.957c0,.157-.126.287-.276.287h-3.171c-.154,0-.28-.13-.28-.287Zm3.171-11.668h-2.616s0,11.374,0,11.374h2.616s0-11.374,0-11.374Z"/>
        <polygon class="cls-32" points="39.114 245.363 39.111 286.009 .457 286.009 .451 245.363 39.114 245.363"/>
        <path class="cls-29" d="m.177,286.009l-.002-40.647c0-.08.032-.153.083-.207.051-.055.122-.086.193-.086h38.663c.071,0,.142.032.195.086s.079.128.079.207l-.002,40.647c0,.163-.124.294-.276.294H.457c-.156,0-.28-.13-.28-.294Zm38.657-40.359H.733s0,40.072,0,40.072h38.1s.002-40.072.002-40.072Z"/>
        <path class="cls-14" d="m35.823,245.363l-.006,40.647.006-40.647Z"/>
        <path class="cls-29" d="m35.817,286.303c.154,0,.278-.13.278-.294l.002-40.647c0-.166-.122-.294-.274-.294s-.282.128-.282.294v40.647c0,.163.124.294.276.294Z"/>
        <g>
          <polygon class="cls-19" points="9.742 246.751 4.223 246.904 27.184 284.757 32.999 284.604 9.742 246.751"/>
          <polygon class="cls-18" points="1.741 246.848 1.06 246.904 24.026 284.757 25.149 284.765 1.741 246.848"/>
        </g>
      </g>
      <g>
        <rect class="cls-31" x=".293" y="60.69" width="36.686" height="61.412"/>
        <path class="cls-25" d="m34.816,67.185v48.426c0,2.158-1.548,3.87-3.404,3.87H5.964c-1.856,0-3.404-1.714-3.404-3.87v-48.426c0-2.049,1.548-3.757,3.404-3.759l25.452.002c1.852-.002,3.4,1.709,3.4,3.757Z"/>
        <path class="cls-16" d="m20.266,101.421c0,.956-.794,1.678-1.696,1.678-.898.004-1.576-.717-1.572-1.678-.004-.961.673-1.795,1.572-1.795.902-.004,1.696.839,1.696,1.795Z"/>
        <path class="cls-16" d="m32.545,92.817v20.396c.002,1.823-1.184,3.308-2.559,3.301H10.528c-1.373.006-2.563-1.479-2.563-3.301v-20.398c0-1.816,1.186-3.304,2.563-3.304l19.459.002c1.375-.002,2.559,1.485,2.559,3.304Z"/>
        <g>
          <path class="cls-11" d="m21.387,108.255c2.825,0,5.125-2.45,5.125-5.458s-2.301-5.453-5.125-5.453c-2.821,0-5.119,2.45-5.119,5.453,0,3.008,2.299,5.458,5.119,5.458Z"/>
          <path class="cls-4" d="m21.387,106.912c2.131,0,3.867-1.846,3.867-4.115,0-2.265-1.735-4.115-3.867-4.115s-3.865,1.85-3.865,4.115c0,2.27,1.737,4.115,3.865,4.115Z"/>
          <path class="cls-5" d="m21.387,106.057c1.688,0,3.061-1.464,3.061-3.259s-1.373-3.259-3.061-3.259-3.057,1.466-3.057,3.259c0,1.796,1.371,3.259,3.057,3.259Z"/>
        </g>
        <g>
          <rect class="cls-28" x="4.832" y="66.048" width=".747" height="22.105"/>
          <rect class="cls-28" x="8.218" y="66.048" width=".747" height="22.105"/>
          <rect class="cls-28" x="11.604" y="66.048" width=".742" height="22.105"/>
          <rect class="cls-28" x="14.986" y="66.048" width=".745" height="22.105"/>
          <rect class="cls-28" x="18.369" y="66.048" width=".747" height="22.105"/>
          <rect class="cls-28" x="21.755" y="66.048" width=".742" height="22.105"/>
          <rect class="cls-28" x="25.137" y="66.048" width=".746" height="22.105"/>
          <rect class="cls-28" x="28.521" y="66.048" width=".748" height="22.105"/>
          <rect class="cls-28" x="31.907" y="66.048" width=".746" height="22.105"/>
        </g>
        <path class="cls-15" d="m24.231,107.827l-8.497-1.955c.004-.059.016-.117.016-.178-.012-.732-.313-1.468-.969-1.468l-5.494-.197c-.573-1.137-1.692-1.915-2.994-1.915-.035,0-.077,0-.112.002-1.879.069-3.358,1.752-3.297,3.748.063,1.969,1.56,3.511,3.409,3.511.038,0,.075,0,.112-.002.926-.031,1.751-.459,2.344-1.12l14.655,3.375c.16.038.319.063.473.063,1.022,0,1.653-.893,1.749-1.77.091-.843-.305-1.819-1.395-2.093Z"/>
        <path class="cls-15" d="m23.774,107.296l-8.497-1.957c.006-.057.02-.117.018-.176-.01-.732-.313-1.468-.967-1.468l-5.495-.197c-.573-1.141-1.69-1.913-2.994-1.913-.035,0-.075,0-.114.002-1.877.065-3.356,1.747-3.293,3.748.061,1.967,1.558,3.509,3.408,3.509.035,0,.077,0,.11-.002.926-.034,1.755-.462,2.348-1.124l14.653,3.377c.16.04.319.063.471.063,1.026,0,1.656-.889,1.749-1.768.093-.848-.303-1.823-1.395-2.093Z"/>
        <g>
          <g>
            <path class="cls-7" d="m22.699,110.545l-18.214-4.197c-2.218-.547-1.438-4.121.778-3.57l18.216,4.195c2.218.547,1.438,4.117-.78,3.572Z"/>
            <path class="cls-33" d="m23.15,110.717c-.156,0-.311-.021-.475-.059l-18.214-4.195c-1.093-.273-1.489-1.246-1.4-2.093.097-.879.729-1.764,1.751-1.764.153,0,.313.019.475.061l18.218,4.191c1.091.273,1.485,1.246,1.395,2.093-.095.877-.727,1.766-1.749,1.766Zm-18.338-7.878c-.936,0-1.452.805-1.528,1.557-.075.69.201,1.585,1.225,1.841l18.214,4.195c.146.034.287.055.427.055.935,0,1.448-.81,1.53-1.563.075-.688-.201-1.584-1.227-1.84l-18.212-4.191c-.15-.036-.293-.055-.429-.055Z"/>
          </g>
          <path class="cls-9" d="m24.078,107.424c.016,1.015-.721,2.055-1.944,1.753l-17.032-3.922c-.406-.101-.674-.329-.876-.6.01.698.37,1.384,1.219,1.594l17.03,3.922c1.666.411,2.433-1.644,1.603-2.748Z"/>
          <g>
            <path class="cls-5" d="m2.267,104.89c-.059-1.942,1.369-3.561,3.189-3.627,1.82-.065,3.349,1.451,3.408,3.392.059,1.942-1.369,3.566-3.191,3.633-1.818.063-3.347-1.458-3.405-3.398Z"/>
            <path class="cls-22" d="m5.562,108.406c-1.848,0-3.345-1.544-3.404-3.509-.067-1.999,1.412-3.685,3.294-3.748.035-.004.075-.004.114-.004,1.848,0,3.347,1.542,3.407,3.507.059,2.001-1.418,3.683-3.295,3.75-.038.004-.075.004-.116.004Zm.004-7.031c-.035,0-.071.004-.106.004-1.761.063-3.142,1.638-3.085,3.507.055,1.842,1.457,3.287,3.187,3.287h.109c1.759-.063,3.143-1.638,3.084-3.513-.059-1.839-1.459-3.285-3.189-3.285Z"/>
          </g>
          <g>
            <path class="cls-5" d="m13.957,106.354l-10.242.361c-1.233.044-1.154-3.666.071-3.706l10.242.363c1.225-.046,1.158,2.939-.071,2.983Z"/>
            <path class="cls-22" d="m3.695,106.83c-.654,0-.961-.895-.975-1.785-.016-1.053.341-2.129,1.06-2.152l10.276.361c.654,0,.953.738.967,1.468.014.847-.349,1.72-1.06,1.745l-10.268.363Zm.085-3.706c-.544.019-.857.986-.841,1.917.012.776.252,1.558.756,1.558v.115s.018-.115.018-.115l10.244-.361c.563-.025.859-.795.849-1.512-.01-.617-.244-1.242-.75-1.242h-.031s-10.244-.361-10.244-.361Z"/>
          </g>
        </g>
      </g>
      <g>
        <rect class="cls-23" x=".142" y="159.881" width="37.424" height="40.401"/>
        <path class="cls-26" d="m22.502,163.518h0c0-.369.331-.694.701-.694.329,0,.652.346.652.694,0,.394-.309.749-.652.749-.386,0-.701-.338-.701-.749Zm1.099.004c0-.206-.207-.43-.398-.43-.252,0-.447.231-.447.426,0,.26.207.478.447.478.185,0,.398-.21.398-.474Z"/>
        <path class="cls-26" d="m20.048,163.518c0-.334.246-.694.648-.694.4,0,.648.361.648.694,0,.428-.28.749-.648.749-.37,0-.648-.321-.648-.749Zm1.044-.002c0-.203-.152-.424-.396-.424s-.396.22-.396.426c0,.237.138.478.396.478s.396-.241.396-.48Z"/>
        <path class="cls-26" d="m17.534,163.518c0-.369.329-.694.705-.694.333,0,.648.34.648.694,0,.398-.303.749-.648.749-.388,0-.705-.338-.705-.749Zm1.099,0c0-.206-.203-.426-.394-.426-.256,0-.451.231-.451.426,0,.264.201.478.451.478.183,0,.394-.21.394-.478Z"/>
        <path class="cls-26" d="m15.076,163.523v-.006c0-.352.315-.692.65-.692.37,0,.701.325.701.692,0,.413-.315.751-.701.751-.347,0-.65-.35-.65-.744Zm1.097-.004c-.002-.195-.199-.426-.447-.426-.193,0-.394.22-.394.426v.004c0,.264.209.474.394.474.242,0,.447-.218.447-.478Z"/>
        <path class="cls-26" d="m12.62,163.518c0-.334.248-.694.65-.694s.648.361.648.694c0,.428-.28.749-.648.749-.372,0-.65-.321-.65-.749Zm1.046,0c0-.206-.154-.426-.396-.426-.246,0-.396.22-.396.426,0,.237.134.478.396.478.26,0,.396-.241.396-.478Z"/>
        <g>
          <path class="cls-29" d="m4.066,190.802v-.002c0-4.046,2.97-7.213,6.766-7.213,3.729,0,6.762,3.232,6.764,7.213-.002,3.979-3.035,7.217-6.764,7.217-3.796,0-6.766-3.167-6.766-7.215Zm13.12-.002c-.002-3.735-2.854-6.775-6.354-6.775-3.563,0-6.354,2.976-6.354,6.775v.002c0,3.801,2.791,6.775,6.354,6.779,3.5-.004,6.352-3.046,6.354-6.781Z"/>
          <path class="cls-29" d="m20.782,190.8h0c0-3.861,2.705-6.919,6.25-7.194.169-.015.343-.019.514-.019,3.732,0,6.766,3.232,6.766,7.207,0,3.985-3.033,7.224-6.766,7.224h0c-3.79,0-6.762-3.167-6.764-7.217Zm6.764-6.775c-3.563,0-6.354,2.976-6.354,6.775.002,3.639,2.561,6.523,5.901,6.766.152.008.303.015.453.015,3.508-.004,6.354-3.041,6.354-6.779s-2.846-6.777-6.354-6.777Z"/>
          <path class="cls-29" d="m22.797,190.802v-.002c0-1.302.477-2.523,1.339-3.454.014-.013.026-.027.04-.042.898-.942,2.096-1.46,3.37-1.46h.014c1.223.004,2.387.518,3.27,1.464.882.94,1.367,2.177,1.367,3.492,0,2.796-2.086,5.074-4.65,5.076h0c-2.663,0-4.749-2.23-4.749-5.074Zm4.749-4.518h0c-1.168,0-2.261.472-3.083,1.33-.809.849-1.257,1.984-1.257,3.18,0,2.611,1.907,4.648,4.339,4.648,2.338-.006,4.243-2.085,4.243-4.642-.004-1.193-.443-2.326-1.251-3.186-.808-.858-1.865-1.33-2.982-1.33h-.01Z"/>
          <path class="cls-29" d="m6.183,190.8v-.006c0-1.309.482-2.55,1.369-3.486.884-.946,2.048-1.466,3.279-1.464,2.561,0,4.647,2.223,4.647,4.956,0,2.8-2.084,5.076-4.647,5.076-2.564-.002-4.648-2.28-4.648-5.076Zm8.887,0c-.002-2.49-1.905-4.516-4.239-4.516-1.123-.002-2.184.47-2.988,1.33-.808.858-1.251,1.986-1.251,3.18h-.203s.203.006.203.006c0,2.557,1.901,4.636,4.239,4.642,2.336,0,4.239-2.083,4.239-4.642Z"/>
          <path class="cls-29" d="m20.784,174.555v-.004c0-3.958,2.84-7.072,6.51-7.211.085-.002.171-.004.252-.004,3.732,0,6.766,3.237,6.766,7.213,0,3.981-3.033,7.213-6.766,7.213-3.79,0-6.762-3.167-6.762-7.207Zm6.762-6.781c-3.559,0-6.352,2.979-6.352,6.777,0,3.801,2.793,6.775,6.352,6.775,3.508,0,6.354-3.037,6.354-6.775s-2.846-6.777-6.354-6.777Z"/>
          <path class="cls-29" d="m4.064,174.551h0c0-4.046,2.972-7.215,6.768-7.215,3.729,0,6.762,3.239,6.762,7.215,0,3.979-3.033,7.211-6.762,7.211-3.796,0-6.768-3.167-6.768-7.211Zm13.12,0c0-3.735-2.852-6.777-6.352-6.777-3.565,0-6.358,2.979-6.358,6.777.002,3.801,2.795,6.775,6.358,6.775,3.5,0,6.352-3.037,6.352-6.775Z"/>
          <path class="cls-29" d="m22.689,174.551c0-2.733,2.084-4.958,4.647-4.958,2.62,0,4.753,2.226,4.753,4.958,0,2.798-2.133,5.074-4.753,5.074-2.521,0-4.647-2.326-4.647-5.074Zm4.647-4.522c-2.336,0-4.239,2.032-4.239,4.522,0,2.513,1.94,4.633,4.239,4.633,2.354,0,4.341-2.116,4.341-4.629,0-2.494-1.946-4.526-4.341-4.526Z"/>
          <path class="cls-29" d="m5.972,174.551v-.002c0-2.733,2.129-4.956,4.755-4.956,2.561,0,4.649,2.226,4.649,4.958,0,2.754-2.129,5.074-4.649,5.074-2.626,0-4.755-2.276-4.755-5.074Zm8.993.004c0-2.494-1.903-4.526-4.239-4.526-2.399,0-4.349,2.026-4.349,4.52h-.203s.203.002.203.002c0,2.513,1.991,4.633,4.349,4.633,2.297,0,4.239-2.116,4.239-4.629Z"/>
        </g>
      </g>
      <path class="cls-21" d="m27.495,177.059c-1.341,0-2.429-1.16-2.429-2.584,0-1.428,1.087-2.584,2.429-2.584s2.425,1.156,2.425,2.584c0,1.424-1.085,2.584-2.425,2.584Z"/>
      <path class="cls-21" d="m27.495,193.705c-1.341,0-2.429-1.16-2.429-2.584,0-1.428,1.087-2.584,2.429-2.584s2.425,1.156,2.425,2.584c0,1.424-1.085,2.584-2.425,2.584Z"/>
      <path class="cls-21" d="m10.855,193.503c-1.341,0-2.429-1.158-2.429-2.586,0-1.424,1.087-2.582,2.429-2.582s2.425,1.158,2.425,2.582c0,1.428-1.085,2.586-2.425,2.586Z"/>
      <path class="cls-21" d="m10.57,177.16c-1.339,0-2.427-1.16-2.427-2.584s1.087-2.586,2.427-2.586,2.429,1.16,2.429,2.586-1.087,2.584-2.429,2.584Z"/>
      <polygon class="cls-12" points="41.577 44.471 41.577 39.847 41.577 38.876 41.577 22.201 41.577 21.23 41.577 17.128 40.773 17.128 40.773 21.23 39.406 21.23 39.406 22.201 40.773 22.201 40.773 38.876 39.406 38.876 39.406 39.847 40.773 39.847 40.773 44.471 41.577 44.471"/>
      <polygon class="cls-12" points="41.577 104.878 41.577 100.253 41.577 99.282 41.577 82.607 41.577 81.638 41.577 77.533 40.773 77.533 40.773 81.638 39.406 81.638 39.406 82.607 40.773 82.607 40.773 99.282 39.406 99.282 39.406 100.253 40.773 100.253 40.773 104.878 41.577 104.878"/>
      <polygon class="cls-12" points="41.577 193.474 41.577 188.849 41.577 187.878 41.577 171.203 41.577 170.234 41.577 166.13 40.773 166.13 40.773 170.234 39.406 170.234 39.406 171.203 40.773 171.203 40.773 187.878 39.406 187.878 39.406 188.849 40.773 188.849 40.773 193.474 41.577 193.474"/>
      <polygon class="cls-12" points="41.577 235.689 41.577 231.065 41.577 230.095 41.577 213.421 41.577 212.448 41.577 208.345 40.773 208.345 40.773 212.448 39.406 212.448 39.406 213.421 40.773 213.421 40.773 230.095 39.406 230.095 39.406 231.065 40.773 231.065 40.773 235.689 41.577 235.689"/>
      <rect class="cls-27" x="37.543" y=".454" width="1.82" height="244.617"/>
      <g>
        <g class="cls-17">
          <path class="cls-2" d="m28.257,14.571l3.802,14.768c.24.942-.286,1.921-1.162,2.175l-24.054,7.018c-.882.258-1.802-.298-2.045-1.239L.999,22.524c-.242-.938.284-1.917,1.166-2.175l24.054-7.018c.876-.256,1.796.302,2.039,1.24h0Zm-.422,4.075c-.374-1.46-2.45-.854-2.078.604l1.909,7.421c.376,1.46,2.454.856,2.076-.606l-1.907-7.419Z"/>
        </g>
        <g class="cls-17">
          <path class="cls-2" d="m28.324,13.044l3.802,14.768c.242.942-.286,1.921-1.162,2.175l-24.054,7.018c-.882.258-1.802-.298-2.045-1.24l-3.8-14.768c-.238-.938.286-1.917,1.168-2.175l24.052-7.018c.88-.256,1.798.302,2.039,1.239h0Zm-.422,4.075c-.372-1.46-2.45-.854-2.076.604l1.911,7.421c.372,1.46,2.454.856,2.076-.606l-1.911-7.419Z"/>
        </g>
        <path class="cls-8" d="m32.008,45.656l-10.179-2.087.232-.931s-.313-.43-.514-.487c-5.454-1.544-12.029-3.193-14.286-1.437,4.26,2.454,9.419,3.471,14.079,4.797l10.181,2.905c1.203.344,1.692-2.414.486-2.76Z"/>
        <path class="cls-8" d="m32.413,45.23l-10.179-2.091.236-.931s-.319-.43-.52-.489c-5.452-1.541-12.027-3.191-14.28-1.438,4.258,2.455,9.415,3.472,14.075,4.8l10.179,2.905c1.205.344,1.694-2.416.488-2.756Z"/>
        <g>
          <path class="cls-3" d="m28.781,11.783l3.799,14.77c.238.94-.286,1.917-1.162,2.173l-24.056,7.018c-.882.26-1.8-.298-2.041-1.238l-3.802-14.77c-.24-.936.284-1.917,1.166-2.173l24.054-7.018c.882-.256,1.798.302,2.041,1.237h0Zm-.422,4.073c-.376-1.458-2.452-.852-2.074.608l1.905,7.419c.374,1.46,2.454.856,2.076-.606l-1.907-7.421Z"/>
          <path class="cls-24" d="m1.243,19.276c0-.902.569-1.699,1.385-1.938l24.054-7.018c.999-.29,2.033.34,2.311,1.405l3.799,14.766c.041.172.067.352.067.526,0,.902-.571,1.697-1.385,1.936l-24.054,7.018c-.48.141-.987.072-1.428-.195-.437-.264-.75-.694-.882-1.208l-3.8-14.768c-.043-.172-.067-.348-.067-.524Zm31.177,7.742c0-.136-.016-.271-.049-.403l-3.802-14.768c-.209-.818-1.005-1.3-1.771-1.076L2.746,17.786c-.753.218-1.221,1.091-1.013,1.89l3.798,14.768c.102.394.341.726.678.927.337.206.725.258,1.095.151l24.056-7.02c.624-.18,1.06-.791,1.06-1.485Zm-6.402-10.896c0-.757.581-1.238,1.152-1.319.552-.078,1.198.199,1.402.996l1.905,7.419c.035.138.053.275.053.407,0,.757-.579,1.235-1.15,1.319-.549.075-1.195-.201-1.402-.999l-1.907-7.419c-.035-.136-.053-.273-.053-.405Zm4.075,7.502c0-.09-.01-.187-.039-.283l-1.907-7.421c-.142-.56-.569-.707-.92-.659-.437.065-.904.495-.731,1.141l1.907,7.421c.144.56.567.709.922.659.37-.055.768-.344.768-.858Z"/>
        </g>
        <g>
          <path class="cls-10" d="m32.278,47.609l-10.181-2.903.491-1.942,10.179,2.087c1.21.344.721,3.102-.488,2.758Z"/>
          <path class="cls-1" d="m22.096,44.706l.727-2.873s-.319-.432-.52-.487c-5.454-1.545-12.027-3.195-14.282-1.44,4.258,2.455,9.415,3.468,14.075,4.8Z"/>
          <path class="cls-7" d="m25.462,45.142c-.221-.063-.353-.306-.294-.545.059-.233.286-.375.508-.313.222.063.355.306.291.545-.053.235-.282.371-.506.313Z"/>
          <path class="cls-7" d="m27.917,45.843c-.219-.063-.353-.306-.289-.547.059-.231.284-.371.508-.313.221.065.353.311.294.546-.059.235-.286.375-.512.314Z"/>
        </g>
      </g>
      <g>
        <rect class="cls-15" x="0" y=".179" width="9.583" height="285.786"/>
        <rect class="cls-15" x="0" y=".179" width="4.288" height="285.786"/>
      </g>
    </g>
  </g>
</svg>