<?xml version="1.0" encoding="UTF-8"?>
<svg id="Layer_1" data-name="Layer 1" xmlns="http://www.w3.org/2000/svg" viewBox="0 0 146.62 146.11">
  <defs>
    <style>
      .cls-1 {
        fill: #fff;
      }

      .cls-2 {
        fill: #939598;
      }
    </style>
  </defs>
  <g>
    <polygon class="cls-2" points="146.62 3.5 146.62 146.11 3.5 146.11 3.5 100.9 54.03 100.9 100.88 54.22 100.88 3.5 146.62 3.5"/>
    <polygon class="cls-2" points="100.88 3.5 100.88 54.22 54.03 100.9 3.5 100.9 3.5 97.23 52.56 97.23 97.56 52.75 97.56 3.5 100.88 3.5"/>
  </g>
  <g>
    <g>
      <polygon class="cls-1" points="97.88 .5 97.88 51.22 51.03 97.9 .5 97.9 .5 94.23 49.56 94.23 94.56 49.75 94.56 .5 97.88 .5"/>
      <polygon class="cls-1" points="143.62 .5 143.62 143.11 .5 143.11 .5 97.9 51.03 97.9 97.88 51.22 97.88 .5 143.62 .5"/>
    </g>
    <g>
      <path d="m49.56,94.73H.5c-.28,0-.5-.22-.5-.5s.22-.5.5-.5h49.06c.28,0,.5.22.5.5s-.22.5-.5.5Z"/>
      <path d="m51.03,98.4H.5c-.28,0-.5-.22-.5-.5s.22-.5.5-.5h50.53c.28,0,.5.22.5.5s-.22.5-.5.5Z"/>
      <path d="m143.62,143.61H.5c-.28,0-.5-.22-.5-.5s.22-.5.5-.5h143.12c.28,0,.5.22.5.5s-.22.5-.5.5Z"/>
      <path d="m94.56,50.25c-.28,0-.5-.22-.5-.5V.5c0-.28.22-.5.5-.5s.5.22.5.5v49.25c0,.28-.22.5-.5.5Z"/>
      <path d="m97.88,51.72c-.28,0-.5-.22-.5-.5V.5c0-.28.22-.5.5-.5s.5.22.5.5v50.72c0,.28-.22.5-.5.5Z"/>
      <path d="m143.62,143.61c-.28,0-.5-.22-.5-.5V1h-48.56c-.28,0-.5-.22-.5-.5s.22-.5.5-.5h49.06c.28,0,.5.22.5.5v142.61c0,.28-.22.5-.5.5Z"/>
      <path d="m.5,143.61c-.28,0-.5-.22-.5-.5v-48.88c0-.28.22-.5.5-.5s.5.22.5.5v48.88c0,.28-.22.5-.5.5Z"/>
      <path d="m49.56,94.73c-.13,0-.26-.05-.36-.15-.19-.2-.19-.51,0-.71l45-44.48c.2-.2.51-.19.71,0,.19.2.19.51,0,.71l-45,44.48c-.1.1-.22.14-.35.14Z"/>
      <path d="m51.03,98.4c-.13,0-.26-.05-.35-.15-.19-.2-.19-.51,0-.71l46.85-46.68c.2-.19.51-.2.71,0,.19.2.19.51,0,.71l-46.85,46.68c-.1.1-.22.15-.35.15Z"/>
      <path d="m7.14,127.44s-.1,0-.15-.02c-.26-.08-.41-.36-.33-.62l5.53-18.01c.08-.27.36-.42.62-.33.26.08.41.36.33.62l-5.53,18.01c-.07.21-.26.35-.48.35Z"/>
      <path d="m14.15,129.28s-.1,0-.14-.02c-.26-.08-.42-.36-.34-.62l5.53-18.38c.08-.26.36-.41.62-.33.26.08.41.36.33.62l-5.53,18.38c-.06.22-.26.36-.48.36Z"/>
      <path d="m21.52,129.28s-.1,0-.14-.02c-.26-.08-.41-.36-.33-.62l5.54-18.38c.08-.26.36-.41.62-.33.26.08.41.36.33.62l-5.54,18.38c-.07.22-.26.36-.48.36Z"/>
      <path d="m33.33,129.65c-.28,0-.5-.22-.5-.5v-19.12c0-.28.22-.5.5-.5s.5.22.5.5v19.12c0,.28-.22.5-.5.5Z"/>
      <path d="m40.7,129.65c-.28,0-.5-.22-.5-.5v-19.12c0-.28.22-.5.5-.5s.5.22.5.5v19.12c0,.28-.22.5-.5.5Z"/>
      <path d="m47.71,129.65c-.28,0-.5-.22-.5-.5v-19.12c0-.28.22-.5.5-.5s.5.22.5.5v19.12c0,.28-.22.5-.5.5Z"/>
      <path d="m119.28,119.36H3.82c-.28,0-.5-.22-.5-.5s.22-.5.5-.5h115.46c.28,0,.5.22.5.5s-.22.5-.5.5Z"/>
      <path d="m129.24,46.21h-18.82c-.28,0-.5-.22-.5-.5s.22-.5.5-.5h18.82c.28,0,.5.22.5.5s-.22.5-.5.5Z"/>
      <path d="m129.24,38.86h-18.82c-.28,0-.5-.22-.5-.5s.22-.5.5-.5h18.82c.28,0,.5.22.5.5s-.22.5-.5.5Z"/>
      <path d="m129.24,31.88h-18.82c-.28,0-.5-.22-.5-.5s.22-.5.5-.5h18.82c.28,0,.5.22.5.5s-.22.5-.5.5Z"/>
      <path d="m111.16,25.26c-.24,0-.45-.17-.49-.41-.05-.27.13-.53.4-.58l18.44-3.31c.26-.04.53.13.58.4.05.27-.13.53-.4.58l-18.44,3.31s-.06,0-.09,0Z"/>
      <path d="m110.05,18.28c-.24,0-.45-.17-.49-.41-.05-.27.13-.53.4-.58l18.45-3.31c.27-.05.53.13.58.4.05.27-.13.53-.4.58l-18.45,3.31s-.06,0-.09,0Z"/>
      <path d="m119.28,119.36c-.28,0-.5-.22-.5-.5V6.01c0-.28.22-.5.5-.5s.5.22.5.5v112.85c0,.28-.22.5-.5.5Z"/>
      <path d="m60.99,127.44s-.1,0-.15-.02c-.26-.08-.41-.36-.33-.62l5.54-18.01c.08-.27.36-.42.62-.33.26.08.41.36.33.62l-5.54,18.01c-.07.21-.26.35-.48.35Z"/>
      <path d="m68,129.28s-.1,0-.14-.02c-.26-.08-.41-.36-.33-.62l5.54-18.38c.08-.26.35-.41.62-.33.26.08.41.36.33.62l-5.54,18.38c-.07.22-.26.36-.48.36Z"/>
      <path d="m75.38,129.28s-.1,0-.14-.02c-.26-.08-.42-.36-.33-.62l5.53-18.38c.08-.26.36-.41.62-.33.26.08.41.36.33.62l-5.53,18.38c-.06.22-.26.36-.48.36Z"/>
      <path d="m87.18,129.65c-.28,0-.5-.22-.5-.5v-19.12c0-.28.22-.5.5-.5s.5.22.5.5v19.12c0,.28-.22.5-.5.5Z"/>
      <path d="m94.19,129.65c-.28,0-.5-.22-.5-.5v-19.12c0-.28.22-.5.5-.5s.5.22.5.5v19.12c0,.28-.22.5-.5.5Z"/>
      <path d="m101.57,129.65c-.28,0-.5-.22-.5-.5v-19.12c0-.28.22-.5.5-.5s.5.22.5.5v19.12c0,.28-.22.5-.5.5Z"/>
      <path d="m129.24,66.79s-.1,0-.15-.02l-18.08-5.51c-.26-.08-.41-.36-.33-.62.08-.26.36-.42.62-.33l18.08,5.51c.26.08.41.36.33.62-.07.22-.26.35-.48.35Z"/>
      <path d="m127.76,73.78s-.1,0-.15-.02l-18.07-5.52c-.26-.08-.41-.36-.33-.62.08-.26.36-.41.62-.33l18.07,5.52c.26.08.41.36.33.62-.07.21-.26.35-.48.35Z"/>
      <path d="m127.76,81.5s-.1,0-.15-.02l-18.07-5.52c-.26-.08-.41-.36-.33-.62.08-.26.36-.41.62-.33l18.07,5.52c.26.08.41.36.33.62-.07.21-.26.35-.48.35Z"/>
      <path d="m128.13,87.38h-18.81c-.28,0-.5-.22-.5-.5s.22-.5.5-.5h18.81c.28,0,.5.22.5.5s-.22.5-.5.5Z"/>
      <path d="m128.13,94.73h-18.81c-.28,0-.5-.22-.5-.5s.22-.5.5-.5h18.81c.28,0,.5.22.5.5s-.22.5-.5.5Z"/>
      <path d="m128.13,101.71h-18.81c-.28,0-.5-.22-.5-.5s.22-.5.5-.5h18.81c.28,0,.5.22.5.5s-.22.5-.5.5Z"/>
    </g>
  </g>
</svg>