<?xml version="1.0" encoding="UTF-8"?>
<svg id="Layer_1" data-name="Layer 1" xmlns="http://www.w3.org/2000/svg" viewBox="0 0 57.43 182.15">
  <defs>
    <style>
      .cls-1 {
        fill: #fafaf8;
      }

      .cls-2 {
        fill: #fff;
      }

      .cls-3 {
        fill: #939598;
      }

      .cls-4 {
        fill: #def0fa;
      }

      .cls-5 {
        fill: #26281e;
      }
    </style>
  </defs>
  <g>
    <path class="cls-3" d="m22.95,168.26v10.72h1.96v-82.74h-1.96v72.02Zm0-88.93v10.72h1.96V7.31h-1.96v72.02Zm26.72,102.82H0V4.13h49.68v178.01Z"/>
    <rect class="cls-3" x="49.68" y="137.61" width="3.62" height="44.54"/>
    <rect class="cls-3" x="22.95" y="168.26" width="1.96" height="10.72"/>
    <rect class="cls-3" x="22.95" y="162.52" width="1.96" height="5.74"/>
    <rect class="cls-3" x="22.95" y="157.54" width="1.96" height="4.98"/>
    <polygon class="cls-3" points="24.91 157.54 22.95 157.54 22.95 139.21 24.91 139.87 24.91 157.54"/>
    <polygon class="cls-3" points="24.91 139.87 22.95 139.21 22.95 133.62 24.91 134.3 24.91 139.87"/>
    <rect class="cls-3" x="49.68" y="93.22" width="3.62" height="44.39"/>
    <polygon class="cls-3" points="24.91 134.3 22.95 133.62 22.95 128.72 24.91 129.4 24.91 134.3"/>
    <polygon class="cls-3" points="24.91 129.4 22.95 128.72 22.95 113.45 24.91 113.45 24.91 129.4"/>
    <rect class="cls-3" x="22.95" y="107.71" width="1.96" height="5.74"/>
    <rect class="cls-3" x="22.95" y="102.73" width="1.96" height="4.98"/>
    <rect class="cls-3" x="22.95" y="96.24" width="1.96" height="6.49"/>
    <rect class="cls-3" x="49.68" y="48.68" width="3.62" height="44.54"/>
    <rect class="cls-3" x="22.95" y="79.33" width="1.96" height="10.72"/>
    <rect class="cls-3" x="22.95" y="73.44" width="1.96" height="5.89"/>
    <rect class="cls-3" x="22.95" y="68.46" width="1.96" height="4.98"/>
    <polygon class="cls-3" points="24.91 68.46 22.95 68.46 22.95 50.27 24.91 50.94 24.91 68.46"/>
    <polygon class="cls-3" points="24.91 50.94 22.95 50.27 22.95 44.69 24.91 45.37 24.91 50.94"/>
    <rect class="cls-3" x="49.68" y="4.13" width="3.62" height="44.54"/>
    <polygon class="cls-3" points="24.91 45.37 22.95 44.69 22.95 39.79 24.91 40.47 24.91 45.37"/>
    <polygon class="cls-3" points="24.91 40.47 22.95 39.79 22.95 24.52 24.91 24.52 24.91 40.47"/>
    <rect class="cls-3" x="22.95" y="18.63" width="1.96" height="5.89"/>
    <rect class="cls-3" x="22.95" y="13.65" width="1.96" height="4.98"/>
    <rect class="cls-3" x="22.95" y="7.31" width="1.96" height="6.34"/>
  </g>
  <g>
    <g>
      <path class="cls-1" d="m26.72,75.55v10.72h1.96V3.53h-1.96v72.02Zm0,88.93v10.72h1.96v-82.74h-1.96v72.02Zm26.72,13.89H3.77V.36h49.68v178.01Z"/>
      <rect class="cls-2" x="53.45" y="133.83" width="3.62" height="44.54"/>
      <rect class="cls-4" x="26.72" y="164.48" width="1.96" height="10.72"/>
      <rect class="cls-4" x="26.72" y="158.75" width="1.96" height="5.74"/>
      <rect class="cls-4" x="26.72" y="153.76" width="1.96" height="4.98"/>
      <polygon class="cls-4" points="28.69 153.76 26.72 153.76 26.72 135.43 28.69 136.1 28.69 153.76"/>
      <polygon class="cls-4" points="28.69 136.1 26.72 135.43 26.72 129.84 28.69 130.52 28.69 136.1"/>
      <rect class="cls-2" x="53.45" y="89.44" width="3.62" height="44.39"/>
      <polygon class="cls-4" points="28.69 130.52 26.72 129.84 26.72 124.95 28.69 125.63 28.69 130.52"/>
      <polygon class="cls-4" points="28.69 125.63 26.72 124.95 26.72 109.68 28.69 109.68 28.69 125.63"/>
      <rect class="cls-4" x="26.72" y="103.94" width="1.96" height="5.74"/>
      <rect class="cls-4" x="26.72" y="98.95" width="1.96" height="4.98"/>
      <rect class="cls-4" x="26.72" y="92.46" width="1.96" height="6.49"/>
      <rect class="cls-2" x="53.45" y="44.9" width="3.62" height="44.54"/>
      <rect class="cls-4" x="26.72" y="75.55" width="1.96" height="10.72"/>
      <rect class="cls-4" x="26.72" y="69.66" width="1.96" height="5.89"/>
      <rect class="cls-4" x="26.72" y="64.68" width="1.96" height="4.98"/>
      <polygon class="cls-4" points="28.69 64.68 26.72 64.68 26.72 46.5 28.69 47.17 28.69 64.68"/>
      <polygon class="cls-4" points="28.69 47.17 26.72 46.5 26.72 40.91 28.69 41.59 28.69 47.17"/>
      <rect class="cls-2" x="53.45" y=".36" width="3.62" height="44.54"/>
      <polygon class="cls-4" points="28.69 41.59 26.72 40.91 26.72 36.02 28.69 36.7 28.69 41.59"/>
      <polygon class="cls-4" points="28.69 36.7 26.72 36.02 26.72 20.74 28.69 20.74 28.69 36.7"/>
      <rect class="cls-4" x="26.72" y="14.85" width="1.96" height="5.89"/>
      <rect class="cls-4" x="26.72" y="9.87" width="1.96" height="4.98"/>
      <rect class="cls-4" x="26.72" y="3.53" width="1.96" height="6.34"/>
    </g>
    <g>
      <path class="cls-5" d="m3.41,89.44V.36c0-.2.16-.36.36-.36h53.3c.2,0,.36.16.36.36v89.08c0,.2-.16.36-.36.36s-.36-.16-.36-.36V.72H4.13v88.72c0,.2-.16.36-.36.36s-.36-.16-.36-.36Z"/>
      <path class="cls-5" d="m53.09,89.44V.36c0-.2.16-.36.36-.36s.36.16.36.36v89.08c0,.2-.16.36-.36.36s-.36-.16-.36-.36Z"/>
      <path class="cls-5" d="m26.36,86.27V3.53c0-.2.16-.36.36-.36h1.96c.2,0,.36.16.36.36v82.74c0,.2-.16.36-.36.36h-1.96c-.2,0-.36-.16-.36-.36Zm.72-82.38v82.02h1.24V3.89h-1.24Z"/>
      <path class="cls-5" d="m20.48,9.87c0-.2.16-.36.36-.36h13.89c.2,0,.36.16.36.36s-.16.36-.36.36h-13.89c-.2,0-.36-.16-.36-.36Z"/>
      <path class="cls-5" d="m20.48,14.85c0-.2.16-.36.36-.36h13.89c.2,0,.36.16.36.36s-.16.36-.36.36h-13.89c-.2,0-.36-.16-.36-.36Z"/>
      <path class="cls-5" d="m20.48,20.74c0-.2.16-.36.36-.36h13.89c.2,0,.36.16.36.36s-.16.36-.36.36h-13.89c-.2,0-.36-.16-.36-.36Z"/>
      <path class="cls-5" d="m22.29,34.63s0-.08.02-.12c.06-.19.27-.29.46-.23l13.29,4.53c.19.06.29.27.22.46-.06.19-.27.29-.46.22l-13.29-4.53c-.15-.05-.24-.19-.24-.34Z"/>
      <path class="cls-5" d="m20.78,39.01s0-.08.02-.12c.06-.19.27-.29.46-.23l13.29,4.53c.19.06.29.27.23.46-.06.19-.27.29-.46.23l-13.29-4.53c-.15-.05-.24-.19-.24-.34Z"/>
      <path class="cls-5" d="m19.12,44s0-.08.02-.12c.07-.19.27-.29.46-.22l13.14,4.53c.19.07.29.27.22.46-.06.19-.27.29-.46.22l-13.14-4.53c-.15-.05-.24-.19-.24-.34Z"/>
      <path class="cls-5" d="m20.48,64.68c0-.2.16-.36.36-.36h13.89c.2,0,.36.16.36.36s-.16.36-.36.36h-13.89c-.2,0-.36-.16-.36-.36Z"/>
      <path class="cls-5" d="m20.48,69.66c0-.2.16-.36.36-.36h13.89c.2,0,.36.16.36.36s-.16.36-.36.36h-13.89c-.2,0-.36-.16-.36-.36Z"/>
      <path class="cls-5" d="m20.48,75.55c0-.2.16-.36.36-.36h13.89c.2,0,.36.16.36.36s-.16.36-.36.36h-13.89c-.2,0-.36-.16-.36-.36Z"/>
      <path class="cls-5" d="m53.09,44.9c0-.2.16-.36.36-.36h3.62c.2,0,.36.16.36.36s-.16.36-.36.36h-3.62c-.2,0-.36-.16-.36-.36Z"/>
      <path class="cls-5" d="m3.41,178.37v-88.93c0-.2.16-.36.36-.36s.36.16.36.36v88.57h48.96v-88.57c0-.2.16-.36.36-.36h3.62c.2,0,.36.16.36.36v88.93c0,.2-.16.36-.36.36H3.77c-.2,0-.36-.16-.36-.36Zm50.39-88.57v88.21h2.9v-88.21h-2.9Z"/>
      <path class="cls-5" d="m26.36,175.2v-82.74c0-.2.16-.36.36-.36h1.96c.2,0,.36.16.36.36v82.74c0,.2-.16.36-.36.36h-1.96c-.2,0-.36-.16-.36-.36Zm.72-82.38v82.02h1.24v-82.02h-1.24Z"/>
      <path class="cls-5" d="m20.48,98.96c0-.2.16-.36.36-.36h13.89c.2,0,.36.16.36.36s-.16.36-.36.36h-13.89c-.2,0-.36-.16-.36-.36Z"/>
      <path class="cls-5" d="m20.48,103.94c0-.2.16-.36.36-.36h13.89c.2,0,.36.16.36.36s-.16.36-.36.36h-13.89c-.2,0-.36-.16-.36-.36Z"/>
      <path class="cls-5" d="m20.48,109.67c0-.2.16-.36.36-.36h13.89c.2,0,.36.16.36.36s-.16.36-.36.36h-13.89c-.2,0-.36-.16-.36-.36Z"/>
      <path class="cls-5" d="m22.29,123.57s0-.08.02-.12c.06-.19.27-.29.46-.23l13.29,4.53c.19.06.29.27.22.46-.06.19-.27.29-.46.22l-13.29-4.53c-.15-.05-.24-.19-.24-.34Z"/>
      <path class="cls-5" d="m20.78,127.94s0-.08.02-.12c.06-.19.27-.29.46-.23l13.29,4.53c.19.06.29.27.23.46-.06.19-.27.29-.46.23l-13.29-4.53c-.15-.05-.24-.19-.24-.34Z"/>
      <path class="cls-5" d="m19.12,132.93s0-.08.02-.12c.07-.19.27-.29.46-.22l13.14,4.53c.19.06.29.27.22.46-.07.19-.27.29-.46.22l-13.14-4.53c-.15-.05-.24-.19-.24-.34Z"/>
      <path class="cls-5" d="m20.48,153.76c0-.2.16-.36.36-.36h13.89c.2,0,.36.16.36.36s-.16.36-.36.36h-13.89c-.2,0-.36-.16-.36-.36Z"/>
      <path class="cls-5" d="m20.48,158.75c0-.2.16-.36.36-.36h13.89c.2,0,.36.16.36.36s-.16.36-.36.36h-13.89c-.2,0-.36-.16-.36-.36Z"/>
      <path class="cls-5" d="m20.48,164.48c0-.2.16-.36.36-.36h13.89c.2,0,.36.16.36.36s-.16.36-.36.36h-13.89c-.2,0-.36-.16-.36-.36Z"/>
      <path class="cls-5" d="m53.09,133.83c0-.2.16-.36.36-.36h3.62c.2,0,.36.16.36.36s-.16.36-.36.36h-3.62c-.2,0-.36-.16-.36-.36Z"/>
    </g>
  </g>
</svg>