<?xml version="1.0" encoding="UTF-8"?>
<svg id="Layer_1" data-name="Layer 1" xmlns="http://www.w3.org/2000/svg" viewBox="0 0 57.43 93.07">
  <defs>
    <style>
      .cls-1 {
        fill: #fafaf8;
      }

      .cls-2 {
        fill: #fff;
      }

      .cls-3 {
        fill: #939598;
      }

      .cls-4 {
        fill: #def0fa;
      }

      .cls-5 {
        fill: #26281e;
      }
    </style>
  </defs>
  <g>
    <polygon class="cls-3" points="22.95 79.18 22.95 90.05 24.91 90.05 24.91 93.07 0 93.07 0 4.13 22.95 4.13 22.95 7.15 22.95 13.65 22.95 18.63 22.95 24.37 22.95 39.64 22.95 44.62 22.95 50.27 22.95 68.46 22.95 73.44 22.95 79.18"/>
    <polygon class="cls-3" points="24.91 79.18 24.91 73.44 24.91 68.46 24.91 50.94 24.91 45.28 24.91 40.32 24.91 24.37 24.91 18.63 24.91 13.65 24.91 7.15 22.95 7.15 22.95 4.13 49.68 4.13 49.68 48.68 49.68 93.07 24.91 93.07 24.91 90.05 24.91 79.18"/>
    <rect class="cls-3" x="49.68" y="48.68" width="3.62" height="44.39"/>
    <rect class="cls-3" x="22.95" y="79.18" width="1.96" height="10.87"/>
    <rect class="cls-3" x="22.95" y="73.44" width="1.96" height="5.74"/>
    <rect class="cls-3" x="22.95" y="68.46" width="1.96" height="4.98"/>
    <polygon class="cls-3" points="24.91 68.46 22.95 68.46 22.95 50.27 24.91 50.94 24.91 68.46"/>
    <polygon class="cls-3" points="24.91 50.94 22.95 50.27 22.95 44.62 24.91 45.28 24.91 50.94"/>
    <rect class="cls-3" x="49.68" y="4.13" width="3.62" height="44.54"/>
    <polygon class="cls-3" points="24.91 45.28 22.95 44.62 22.95 39.64 24.91 40.32 24.91 45.28"/>
    <polygon class="cls-3" points="24.91 40.32 22.95 39.64 22.95 24.37 24.91 24.37 24.91 40.32"/>
    <rect class="cls-3" x="22.95" y="18.63" width="1.96" height="5.74"/>
    <rect class="cls-3" x="22.95" y="13.65" width="1.96" height="4.98"/>
    <rect class="cls-3" x="22.95" y="7.15" width="1.96" height="6.49"/>
  </g>
  <g>
    <g>
      <polygon class="cls-1" points="26.72 75.4 26.72 86.27 28.69 86.27 28.69 89.29 3.77 89.29 3.77 .36 26.72 .36 26.72 3.38 26.72 9.87 26.72 14.85 26.72 20.59 26.72 35.87 26.72 40.85 26.72 46.5 26.72 64.68 26.72 69.66 26.72 75.4"/>
      <polygon class="cls-1" points="28.69 75.4 28.69 69.66 28.69 64.68 28.69 47.17 28.69 41.5 28.69 36.55 28.69 20.59 28.69 14.85 28.69 9.87 28.69 3.38 26.72 3.38 26.72 .36 53.45 .36 53.45 44.9 53.45 89.29 28.69 89.29 28.69 86.27 28.69 75.4"/>
      <rect class="cls-2" x="53.45" y="44.9" width="3.62" height="44.39"/>
      <rect class="cls-4" x="26.72" y="75.4" width="1.96" height="10.87"/>
      <rect class="cls-4" x="26.72" y="69.66" width="1.96" height="5.74"/>
      <rect class="cls-4" x="26.72" y="64.68" width="1.96" height="4.98"/>
      <polygon class="cls-4" points="28.69 64.68 26.72 64.68 26.72 46.5 28.69 47.17 28.69 64.68"/>
      <polygon class="cls-4" points="28.69 47.17 26.72 46.5 26.72 40.85 28.69 41.5 28.69 47.17"/>
      <rect class="cls-2" x="53.45" y=".36" width="3.62" height="44.54"/>
      <polygon class="cls-4" points="28.69 41.5 26.72 40.85 26.72 35.87 28.69 36.55 28.69 41.5"/>
      <polygon class="cls-4" points="28.69 36.55 26.72 35.87 26.72 20.59 28.69 20.59 28.69 36.55"/>
      <rect class="cls-4" x="26.72" y="14.85" width="1.96" height="5.74"/>
      <rect class="cls-4" x="26.72" y="9.87" width="1.96" height="4.98"/>
      <rect class="cls-4" x="26.72" y="3.38" width="1.96" height="6.49"/>
    </g>
    <g>
      <path class="cls-5" d="m3.41,89.29V.36c0-.2.16-.36.36-.36h53.3c.2,0,.36.16.36.36v88.93c0,.2-.16.36-.36.36H3.77c-.2,0-.36-.16-.36-.36ZM4.13.72v88.21h52.58V.72H4.13Z"/>
      <path class="cls-5" d="m53.09,89.29V.36c0-.2.16-.36.36-.36s.36.16.36.36v88.93c0,.2-.16.36-.36.36s-.36-.16-.36-.36Z"/>
      <path class="cls-5" d="m26.36,86.27V3.38c0-.2.16-.36.36-.36h1.96c.2,0,.36.16.36.36v82.89c0,.2-.16.36-.36.36h-1.96c-.2,0-.36-.16-.36-.36Zm.72-82.53v82.17h1.24V3.74h-1.24Z"/>
      <path class="cls-5" d="m20.48,9.87c0-.2.16-.36.36-.36h13.89c.2,0,.36.16.36.36s-.16.36-.36.36h-13.89c-.2,0-.36-.16-.36-.36Z"/>
      <path class="cls-5" d="m20.48,14.85c0-.2.16-.36.36-.36h13.89c.2,0,.36.16.36.36s-.16.36-.36.36h-13.89c-.2,0-.36-.16-.36-.36Z"/>
      <path class="cls-5" d="m20.48,20.59c0-.2.16-.36.36-.36h13.89c.2,0,.36.16.36.36s-.16.36-.36.36h-13.89c-.2,0-.36-.16-.36-.36Z"/>
      <path class="cls-5" d="m22.29,34.48s0-.08.02-.12c.06-.19.27-.29.46-.23l13.29,4.53c.19.06.29.27.22.46-.06.19-.27.29-.46.22l-13.29-4.53c-.15-.05-.24-.19-.24-.34Z"/>
      <path class="cls-5" d="m20.78,39.01s0-.08.02-.11c.06-.19.27-.29.45-.23l13.29,4.38c.19.06.29.27.23.45-.06.19-.27.29-.45.23l-13.29-4.38c-.15-.05-.25-.19-.25-.34Z"/>
      <path class="cls-5" d="m19.12,44s0-.08.02-.12c.07-.19.27-.29.46-.22l13.14,4.53c.19.07.29.27.22.46-.06.19-.27.29-.46.22l-13.14-4.53c-.15-.05-.24-.19-.24-.34Z"/>
      <path class="cls-5" d="m20.48,64.68c0-.2.16-.36.36-.36h13.89c.2,0,.36.16.36.36s-.16.36-.36.36h-13.89c-.2,0-.36-.16-.36-.36Z"/>
      <path class="cls-5" d="m20.48,69.66c0-.2.16-.36.36-.36h13.89c.2,0,.36.16.36.36s-.16.36-.36.36h-13.89c-.2,0-.36-.16-.36-.36Z"/>
      <path class="cls-5" d="m20.48,75.4c0-.2.16-.36.36-.36h13.89c.2,0,.36.16.36.36s-.16.36-.36.36h-13.89c-.2,0-.36-.16-.36-.36Z"/>
      <path class="cls-5" d="m53.09,44.9c0-.2.16-.36.36-.36h3.62c.2,0,.36.16.36.36s-.16.36-.36.36h-3.62c-.2,0-.36-.16-.36-.36Z"/>
    </g>
  </g>
</svg>