<?xml version="1.0" encoding="UTF-8"?>
<svg id="Layer_1" data-name="Layer 1" xmlns="http://www.w3.org/2000/svg" viewBox="0 0 57.17 191.31">
  <defs>
    <style>
      .cls-1 {
        fill: #fff;
      }

      .cls-2 {
        fill: #939598;
      }

      .cls-3 {
        fill: #26281e;
      }
    </style>
  </defs>
  <g>
    <path class="cls-2" d="m57.17,164.7v26.56h-31.98l-1.48.05c-12.61-2.05-21.52-13.71-20.05-26.58l.21-.03h53.3Z"/>
    <polygon class="cls-2" points="7.18 30.43 7.18 164.7 3.87 164.7 3.87 30.77 3.87 30.43 7.18 30.43"/>
    <rect class="cls-2" x="7.18" y="30.43" width="49.99" height="134.27"/>
    <path class="cls-2" d="m3.66,30.77C2.15,17.51,11.64,5.54,24.85,4.02l.34-.52h31.98v26.93H3.87v.34h-.21Z"/>
  </g>
  <g>
    <g>
      <path class="cls-1" d="m54.17,161.7v26.56h-31.98l-1.48.05c-12.61-2.05-21.52-13.71-20.05-26.58l.21-.03h53.3Z"/>
      <polygon class="cls-1" points="4.18 27.43 4.18 161.7 .87 161.7 .87 27.77 .87 27.43 4.18 27.43"/>
      <rect class="cls-1" x="4.18" y="27.43" width="49.99" height="134.27"/>
      <path class="cls-1" d="m.66,27.77C-.85,14.51,8.64,2.54,21.85,1.02l.34-.52h31.98v26.93H.87v.34h-.21Z"/>
    </g>
    <g>
      <path class="cls-3" d="m54.17,162.2H.87c-.28,0-.5-.22-.5-.5s.22-.5.5-.5h53.3c.28,0,.5.22.5.5s-.22.5-.5.5Z"/>
      <path class="cls-3" d="m54.17,188.76c-.28,0-.5-.22-.5-.5V.5c0-.28.22-.5.5-.5s.5.22.5.5v187.76c0,.28-.22.5-.5.5Z"/>
      <path class="cls-3" d="m54.17,27.93H.87c-.28,0-.5-.22-.5-.5s.22-.5.5-.5h53.3c.28,0,.5.22.5.5s-.22.5-.5.5Z"/>
      <path class="cls-3" d="m54.17,1h-31.98c-.28,0-.5-.22-.5-.5s.22-.5.5-.5h31.98c.28,0,.5.22.5.5s-.22.5-.5.5Z"/>
      <path class="cls-3" d="m.87,162.2c-.28,0-.5-.22-.5-.5V27.43c0-.28.22-.5.5-.5s.5.22.5.5v134.27c0,.28-.22.5-.5.5Z"/>
      <path class="cls-3" d="m4.18,162.2c-.28,0-.5-.22-.5-.5V27.43c0-.28.22-.5.5-.5s.5.22.5.5v134.27c0,.28-.22.5-.5.5Z"/>
      <path class="cls-3" d="m30.64,150.03c-.28,0-.5-.22-.5-.5V34.07c0-.28.22-.5.5-.5s.5.22.5.5v115.46c0,.28-.22.5-.5.5Z"/>
      <path class="cls-3" d="m40.93,143.75h-19.11c-.28,0-.5-.22-.5-.5s.22-.5.5-.5h19.11c.28,0,.5.22.5.5s-.22.5-.5.5Z"/>
      <path class="cls-3" d="m40.93,136.75h-19.11c-.28,0-.5-.22-.5-.5s.22-.5.5-.5h19.11c.28,0,.5.22.5.5s-.22.5-.5.5Z"/>
      <path class="cls-3" d="m40.93,129.74h-19.11c-.28,0-.5-.22-.5-.5s.22-.5.5-.5h19.11c.28,0,.5.22.5.5s-.22.5-.5.5Z"/>
      <path class="cls-3" d="m38.36,120.88s-.1,0-.15-.02l-18.01-5.53c-.26-.08-.41-.36-.33-.62.08-.27.36-.42.62-.33l18.01,5.53c.26.08.41.36.33.62-.07.22-.26.35-.48.35Z"/>
      <path class="cls-3" d="m39.83,113.88s-.1,0-.15-.02l-18.01-5.54c-.26-.08-.41-.36-.33-.62.08-.27.36-.42.62-.33l18.01,5.54c.26.08.41.36.33.62-.07.21-.26.35-.48.35Z"/>
      <path class="cls-3" d="m39.83,106.13s-.1,0-.15-.02l-18.01-5.53c-.26-.08-.41-.36-.33-.62.08-.27.36-.42.62-.33l18.01,5.53c.26.08.41.36.33.62-.07.21-.26.35-.48.35Z"/>
      <path class="cls-3" d="m40.2,94.32h-18.75c-.28,0-.5-.22-.5-.5s.22-.5.5-.5h18.75c.28,0,.5.22.5.5s-.22.5-.5.5Z"/>
      <path class="cls-3" d="m40.2,87.32h-18.75c-.28,0-.5-.22-.5-.5s.22-.5.5-.5h18.75c.28,0,.5.22.5.5s-.22.5-.5.5Z"/>
      <path class="cls-3" d="m40.2,80.31h-18.75c-.28,0-.5-.22-.5-.5s.22-.5.5-.5h18.75c.28,0,.5.22.5.5s-.22.5-.5.5Z"/>
      <path class="cls-3" d="m19.62,57.44c-.21,0-.41-.14-.48-.35-.08-.26.07-.54.33-.62l18.01-5.54c.27-.08.54.07.62.33.08.26-.07.54-.33.62l-18.01,5.54s-.1.02-.15.02Z"/>
      <path class="cls-3" d="m21.82,64.45c-.21,0-.41-.14-.48-.35-.08-.26.07-.54.33-.62l18.01-5.54c.26-.08.54.07.62.33.08.26-.07.54-.33.62l-18.01,5.54s-.1.02-.15.02Z"/>
      <path class="cls-3" d="m21.82,71.82c-.21,0-.41-.14-.48-.35-.08-.26.07-.54.33-.62l18.01-5.53c.26-.08.54.07.62.33.08.26-.07.54-.33.62l-18.01,5.53s-.1.02-.15.02Z"/>
      <path class="cls-3" d="m40.2,47.11h-18.75c-.28,0-.5-.22-.5-.5s.22-.5.5-.5h18.75c.28,0,.5.22.5.5s-.22.5-.5.5Z"/>
      <path class="cls-3" d="m40.2,39.73h-18.75c-.28,0-.5-.22-.5-.5s.22-.5.5-.5h18.75c.28,0,.5.22.5.5s-.22.5-.5.5Z"/>
      <path class="cls-3" d="m.66,28.27c-.25,0-.47-.19-.5-.44C-1.37,14.32,8.33,2.07,21.79.52c.27-.03.52.16.55.44.03.27-.17.52-.44.55C8.99,3-.32,14.75,1.16,27.71c.03.27-.17.52-.44.55-.02,0-.04,0-.06,0Z"/>
      <path class="cls-3" d="m54.17,188.76h-31.98c-.28,0-.5-.22-.5-.5s.22-.5.5-.5h31.98c.28,0,.5.22.5.5s-.22.5-.5.5Z"/>
      <path class="cls-3" d="m21.85,188.97s-.04,0-.05,0c-.37-.04-.74-.1-1.11-.16-13.03-2.12-22.02-14.03-20.52-27.14.03-.27.28-.47.55-.44.27.03.47.28.44.55-1.44,12.57,7.19,24.01,19.63,26.03.4.06.76.12,1.11.16.27.03.47.27.44.55-.03.26-.24.45-.5.45Z"/>
    </g>
  </g>
</svg>