<?xml version="1.0" encoding="UTF-8"?>
<svg id="Layer_1" data-name="Layer 1" xmlns="http://www.w3.org/2000/svg" viewBox="0 0 441.059 195.28">
  <defs>
    <style>
      .cls-1 {
        fill: #fff;
      }

      .cls-1, .cls-2 {
        stroke: #c69c6d;
        stroke-miterlimit: 10;
      }

      .cls-3 {
        opacity: .42;
      }

      .cls-2 {
        fill: #1d1d1b;
      }
    </style>
  </defs>
  <g class="cls-3">
    <g>
      <rect class="cls-1" x="296.864" y="112.613" width="131.723" height="66.633" transform="translate(725.451 291.858) rotate(-180)"/>
      <path class="cls-2" d="m430.087,112.612v66.633c0,.828-.672,1.5-1.5,1.5h-131.723c-.828,0-1.5-.672-1.5-1.5v-66.633c0-.828.672-1.5,1.5-1.5h131.723c.828,0,1.5.672,1.5,1.5Zm-3,65.133v-63.633s-128.723,0-128.723,0v63.633s128.723,0,128.723,0Z"/>
    </g>
    <g>
      <rect class="cls-1" x="154.668" y="126.648" width="131.723" height="66.632" transform="translate(441.058 319.929) rotate(-180)"/>
      <path class="cls-2" d="m287.891,126.649v66.632c0,.828-.672,1.5-1.5,1.5h-131.723c-.828,0-1.5-.672-1.5-1.5v-66.632c0-.828.672-1.5,1.5-1.5h131.723c.828,0,1.5.672,1.5,1.5Zm-3,65.132v-63.632s-128.723,0-128.723,0v63.632s128.723,0,128.723,0Z"/>
    </g>
    <g>
      <rect class="cls-1" x="12.471" y="101.816" width="131.723" height="66.633" transform="translate(156.665 270.265) rotate(-180)"/>
      <path class="cls-2" d="m145.693,101.816v66.633c0,.828-.672,1.5-1.5,1.5H12.471c-.828,0-1.5-.672-1.5-1.5v-66.633c0-.828.672-1.5,1.5-1.5h131.723c.828,0,1.5.672,1.5,1.5Zm-3,65.133v-63.633s-128.723,0-128.723,0v63.633s128.723,0,128.723,0Z"/>
    </g>
    <g>
      <rect class="cls-1" x="2" y="2" width="437.058" height="156.264" transform="translate(441.058 160.264) rotate(-180)"/>
      <path class="cls-2" d="m440.559,2v156.264c0,.828-.672,1.5-1.5,1.5H2c-.828,0-1.5-.672-1.5-1.5V2c0-.828.672-1.5,1.5-1.5h437.059c.828,0,1.5.672,1.5,1.5Zm-3,154.764V3.5s-434.059,0-434.059,0v153.264s434.059,0,434.059,0Z"/>
    </g>
    <g>
      <line class="cls-1" x1="395.862" y1="15.195" x2="395.862" y2="145.964"/>
      <rect class="cls-2" x="394.361" y="15.194" width="3" height="130.769"/>
    </g>
    <g>
      <line class="cls-1" x1="368.572" y1="15.195" x2="368.572" y2="145.964"/>
      <rect class="cls-2" x="367.072" y="15.194" width="3" height="130.769"/>
    </g>
    <g>
      <line class="cls-1" x1="357.408" y1="15.195" x2="357.408" y2="145.964"/>
      <rect class="cls-2" x="355.908" y="15.194" width="3" height="130.769"/>
    </g>
    <g>
      <line class="cls-1" x1="328.578" y1="15.195" x2="328.578" y2="145.964"/>
      <rect class="cls-2" x="327.078" y="15.194" width="3" height="130.769"/>
    </g>
    <g>
      <line class="cls-1" x1="316.203" y1="15.195" x2="316.203" y2="145.964"/>
      <rect class="cls-2" x="314.703" y="15.194" width="3" height="130.77"/>
    </g>
    <g>
      <line class="cls-1" x1="287.944" y1="15.195" x2="287.944" y2="145.964"/>
      <rect class="cls-2" x="286.444" y="15.194" width="3" height="130.769"/>
    </g>
    <g>
      <line class="cls-1" x1="273.059" y1="15.195" x2="273.059" y2="145.964"/>
      <rect class="cls-2" x="271.559" y="15.194" width="3" height="130.769"/>
    </g>
    <g>
      <line class="cls-1" x1="259.018" y1="15.195" x2="259.018" y2="145.964"/>
      <rect class="cls-2" x="257.518" y="15.194" width="3" height="130.769"/>
    </g>
    <g>
      <line class="cls-1" x1="377.639" y1="15.195" x2="386.276" y2="145.964"/>
      <rect class="cls-2" x="380.457" y="15.052" width="3.001" height="131.055" transform="translate(-4.47 25.276) rotate(-3.768)"/>
    </g>
    <g>
      <line class="cls-1" x1="347.983" y1="145.964" x2="339.346" y2="15.195"/>
      <rect class="cls-2" x="342.165" y="15.052" width="3.001" height="131.054" transform="translate(-4.553 22.76) rotate(-3.768)"/>
    </g>
    <g>
      <line class="cls-1" x1="296.864" y1="145.964" x2="305.501" y2="15.195"/>
      <rect class="cls-2" x="235.655" y="79.079" width="131.054" height="3.001" transform="translate(200.93 375.797) rotate(-86.221)"/>
    </g>
    <g>
      <line class="cls-1" x1="259.018" y1="15.195" x2="259.018" y2="145.964"/>
      <rect class="cls-2" x="257.518" y="15.194" width="3" height="130.769"/>
    </g>
    <g>
      <line class="cls-1" x1="231.728" y1="15.195" x2="231.728" y2="145.964"/>
      <rect class="cls-2" x="230.228" y="15.194" width="3" height="130.769"/>
    </g>
    <g>
      <line class="cls-1" x1="220.564" y1="15.195" x2="220.564" y2="145.964"/>
      <rect class="cls-2" x="219.065" y="15.194" width="3" height="130.769"/>
    </g>
    <g>
      <line class="cls-1" x1="191.734" y1="15.195" x2="191.734" y2="145.964"/>
      <rect class="cls-2" x="190.233" y="15.194" width="3" height="130.769"/>
    </g>
    <g>
      <line class="cls-1" x1="94.977" y1="15.195" x2="94.977" y2="145.964"/>
      <rect class="cls-2" x="93.477" y="15.194" width="3" height="130.769"/>
    </g>
    <g>
      <line class="cls-1" x1="106.841" y1="15.195" x2="106.841" y2="145.964"/>
      <rect class="cls-2" x="105.341" y="15.194" width="3" height="130.769"/>
    </g>
    <g>
      <line class="cls-1" x1="151.1" y1="15.195" x2="151.1" y2="145.964"/>
      <rect class="cls-2" x="149.6" y="15.194" width="3" height="130.769"/>
    </g>
    <g>
      <line class="cls-1" x1="136.215" y1="15.195" x2="136.215" y2="145.964"/>
      <rect class="cls-2" x="134.715" y="15.194" width="3" height="130.769"/>
    </g>
    <g>
      <line class="cls-1" x1="67.563" y1="15.195" x2="67.563" y2="145.964"/>
      <rect class="cls-2" x="66.064" y="15.194" width="3" height="130.769"/>
    </g>
    <g>
      <line class="cls-1" x1="54.886" y1="15.195" x2="54.886" y2="145.964"/>
      <rect class="cls-2" x="53.386" y="15.194" width="3" height="130.769"/>
    </g>
    <g>
      <line class="cls-1" x1="44.002" y1="15.195" x2="44.002" y2="145.964"/>
      <rect class="cls-2" x="42.502" y="15.194" width="3" height="130.769"/>
    </g>
    <g>
      <line class="cls-1" x1="122.173" y1="15.195" x2="122.173" y2="145.964"/>
      <rect class="cls-2" x="120.673" y="15.194" width="3" height="130.769"/>
    </g>
    <g>
      <line class="cls-1" x1="240.795" y1="15.195" x2="249.432" y2="145.964"/>
      <rect class="cls-2" x="243.613" y="15.052" width="3.001" height="131.054" transform="translate(-4.766 16.283) rotate(-3.768)"/>
    </g>
    <g>
      <line class="cls-1" x1="211.139" y1="145.964" x2="202.502" y2="15.195"/>
      <rect class="cls-2" x="205.32" y="15.052" width="3.001" height="131.054" transform="translate(-4.848 13.766) rotate(-3.768)"/>
    </g>
    <g>
      <line class="cls-1" x1="160.02" y1="145.964" x2="168.657" y2="15.195"/>
      <rect class="cls-2" x="98.812" y="79.079" width="131.054" height="3.001" transform="translate(73.105 239.25) rotate(-86.221)"/>
    </g>
    <g>
      <line class="cls-1" x1="175.877" y1="145.964" x2="184.514" y2="15.195"/>
      <rect class="cls-2" x="114.668" y="79.079" width="131.054" height="3.001" transform="translate(87.916 255.072) rotate(-86.221)"/>
    </g>
    <g>
      <line class="cls-1" x1="75.801" y1="145.964" x2="84.438" y2="15.195"/>
      <rect class="cls-2" x="14.592" y="79.079" width="131.054" height="3.001" transform="translate(-5.565 155.214) rotate(-86.221)"/>
    </g>
    <g>
      <line class="cls-1" x1="420.21" y1="80.132" x2="14.828" y2="80.132"/>
      <g>
        <path class="cls-2" d="m415.64,80.132c0,.828-.672,1.5-1.5,1.5H20.898c-.828,0-1.5-.672-1.5-1.5,0-.828.672-1.5,1.5-1.5h393.242c.828,0,1.5.672,1.5,1.5Z"/>
        <g>
          <path class="cls-1" d="m413.82,74.493c3.114,0,5.64,2.525,5.64,5.64s-2.525,5.64-5.64,5.64-5.64-2.525-5.64-5.64,2.525-5.64,5.64-5.64Z"/>
          <path class="cls-2" d="m413.82,73.743c-3.523,0-6.39,2.867-6.39,6.39s2.867,6.39,6.39,6.39,6.39-2.867,6.39-6.39-2.867-6.39-6.39-6.39,3.523,0,0,0Zm0,11.279c-2.697,0-4.89-2.193-4.89-4.89,0-2.697,2.193-4.89,4.89-4.89s4.89,2.193,4.89,4.89c0,2.697-2.193,4.89-4.89,4.89s2.697,0,0,0Z"/>
        </g>
        <g>
          <path class="cls-1" d="m21.217,74.493c-3.114,0-5.64,2.525-5.64,5.64,0,3.114,2.525,5.64,5.64,5.64s5.64-2.525,5.64-5.64c0-3.114-2.525-5.64-5.639-5.64Z"/>
          <path class="cls-2" d="m21.217,73.743c3.523,0,6.389,2.867,6.389,6.39,0,3.523-2.867,6.39-6.39,6.39s-6.39-2.867-6.39-6.39c0-3.523,2.867-6.39,6.39-6.39s-3.523,0,0,0Zm0,11.279c2.697,0,4.89-2.193,4.89-4.89,0-2.697-2.193-4.89-4.889-4.89s-4.89,2.193-4.89,4.89c0,2.697,2.193,4.89,4.89,4.89s-2.697,0,0,0Z"/>
        </g>
      </g>
    </g>
  </g>
</svg>