<?xml version="1.0" encoding="UTF-8"?>
<svg id="Layer_1" data-name="Layer 1" xmlns="http://www.w3.org/2000/svg" viewBox="0 0 410.383 123.014">
  <defs>
    <style>
      .cls-1 {
        opacity: .51;
      }

      .cls-2 {
        fill: #fff;
      }

      .cls-2, .cls-3 {
        stroke: #c69c6d;
        stroke-miterlimit: 10;
      }

      .cls-3 {
        fill: #1d1d1b;
      }
    </style>
  </defs>
  <g class="cls-1">
    <g>
      <rect class="cls-2" x="2" y="2" width="406.382" height="109.408"/>
      <path class="cls-3" d="m409.883,2v109.408c0,.828-.672,1.5-1.5,1.5H2c-.829,0-1.5-.672-1.5-1.5V2c0-.828.671-1.5,1.5-1.5h406.383c.828,0,1.5.672,1.5,1.5Zm-3,107.908V3.5s-403.383,0-403.383,0v106.408s403.383,0,403.383,0Z"/>
    </g>
    <g>
      <g>
        <line class="cls-2" x1="1.962" y1="56.117" x2="229.064" y2="56.117"/>
        <rect class="cls-3" x="1.961" y="54.617" width="227.103" height="3"/>
      </g>
      <g>
        <line class="cls-2" x1="223.643" y1="97.849" x2="223.643" y2="14.385"/>
        <rect class="cls-3" x="222.144" y="14.385" width="3" height="83.464"/>
      </g>
      <g>
        <line class="cls-2" x1="135.146" y1="81.923" x2="135.146" y2="30.312"/>
        <rect class="cls-3" x="133.646" y="30.312" width="3" height="51.611"/>
      </g>
      <g>
        <line class="cls-2" x1="232.96" y1="83.207" x2="232.96" y2="29.027"/>
        <rect class="cls-3" x="231.461" y="29.027" width="3" height="54.18"/>
      </g>
      <g>
        <line class="cls-2" x1="78.622" y1="82.935" x2="87.269" y2="29.299"/>
        <rect class="cls-3" x="55.781" y="54.617" width="54.328" height="3" transform="translate(14.342 129.073) rotate(-80.842)"/>
      </g>
      <g>
        <line class="cls-2" x1="71.776" y1="83.132" x2="67.224" y2="29.102"/>
        <rect class="cls-3" x="68" y="29.007" width="3" height="54.221" transform="translate(-4.468 6.037) rotate(-4.819)"/>
      </g>
      <g>
        <line class="cls-2" x1="62.139" y1="88.394" x2="56.7" y2="23.841"/>
        <rect class="cls-3" x="57.92" y="23.726" width="3" height="64.782" transform="translate(-4.504 5.19) rotate(-4.819)"/>
      </g>
      <g>
        <line class="cls-2" x1="145.164" y1="97.849" x2="145.164" y2="14.385"/>
        <rect class="cls-3" x="143.665" y="14.385" width="3" height="83.464"/>
      </g>
      <g>
        <line class="cls-2" x1="197.397" y1="97.401" x2="183.624" y2="14.833"/>
        <rect class="cls-3" x="189.01" y="14.263" width="3" height="83.708" transform="translate(-6.641 32.144) rotate(-9.48)"/>
      </g>
      <g>
        <line class="cls-2" x1="211.665" y1="97.401" x2="197.892" y2="14.833"/>
        <rect class="cls-3" x="203.278" y="14.263" width="3" height="83.708" transform="translate(-6.446 34.494) rotate(-9.48)"/>
      </g>
      <g>
        <line class="cls-2" x1="183.951" y1="97.401" x2="170.179" y2="14.833"/>
        <rect class="cls-3" x="175.565" y="14.263" width="3" height="83.708" transform="translate(-6.824 29.929) rotate(-9.48)"/>
      </g>
      <g>
        <line class="cls-2" x1="153.131" y1="97.642" x2="162.507" y2="14.592"/>
        <rect class="cls-3" x="116.031" y="54.617" width="83.576" height="3" transform="translate(84.352 206.645) rotate(-83.559)"/>
      </g>
      <g>
        <line class="cls-2" x1="32.912" y1="97.642" x2="42.288" y2="14.592"/>
        <rect class="cls-3" x="-4.189" y="54.617" width="83.576" height="3" transform="translate(-22.381 87.184) rotate(-83.559)"/>
      </g>
      <g>
        <line class="cls-2" x1="21.839" y1="97.642" x2="31.215" y2="14.592"/>
        <rect class="cls-3" x="-15.261" y="54.617" width="83.576" height="3" transform="translate(-32.212 76.181) rotate(-83.559)"/>
      </g>
      <g>
        <line class="cls-2" x1="127.532" y1="97.401" x2="113.76" y2="14.833"/>
        <rect class="cls-3" x="119.146" y="14.263" width="3" height="83.708" transform="translate(-7.595 20.638) rotate(-9.48)"/>
      </g>
      <g>
        <line class="cls-2" x1="96.713" y1="97.642" x2="106.088" y2="14.592"/>
        <rect class="cls-3" x="59.612" y="54.617" width="83.576" height="3" transform="translate(34.262 150.582) rotate(-83.559)"/>
      </g>
      <g>
        <line class="cls-2" x1="85.903" y1="97.642" x2="95.279" y2="14.592"/>
        <rect class="cls-3" x="48.803" y="54.617" width="83.576" height="3" transform="translate(24.666 139.841) rotate(-83.559)"/>
      </g>
      <g>
        <line class="cls-2" x1="353.965" y1="81.923" x2="353.965" y2="30.312"/>
        <rect class="cls-3" x="352.466" y="30.312" width="3" height="51.611"/>
      </g>
      <g>
        <line class="cls-2" x1="297.442" y1="82.935" x2="306.088" y2="29.299"/>
        <rect class="cls-3" x="274.601" y="54.617" width="54.328" height="2.999" transform="translate(198.337 345.104) rotate(-80.842)"/>
      </g>
      <g>
        <line class="cls-2" x1="290.596" y1="83.132" x2="286.043" y2="29.102"/>
        <rect class="cls-3" x="286.819" y="29.007" width="3.001" height="54.221" transform="translate(-3.694 24.411) rotate(-4.817)"/>
      </g>
      <g>
        <line class="cls-2" x1="280.959" y1="88.394" x2="275.519" y2="23.841"/>
        <rect class="cls-3" x="276.739" y="23.726" width="3.001" height="64.782" transform="translate(-3.73 23.564) rotate(-4.817)"/>
      </g>
      <g>
        <line class="cls-2" x1="363.984" y1="97.849" x2="363.984" y2="14.385"/>
        <rect class="cls-3" x="362.483" y="14.385" width="3" height="83.464"/>
      </g>
      <g>
        <line class="cls-2" x1="402.77" y1="97.401" x2="388.998" y2="14.833"/>
        <rect class="cls-3" x="394.384" y="14.263" width="3" height="83.708" transform="translate(-3.836 65.969) rotate(-9.48)"/>
      </g>
      <g>
        <line class="cls-2" x1="371.951" y1="97.642" x2="381.326" y2="14.592"/>
        <rect class="cls-3" x="334.85" y="54.618" width="83.576" height="2.999" transform="translate(278.623 424.082) rotate(-83.559)"/>
      </g>
      <g>
        <line class="cls-2" x1="251.731" y1="97.642" x2="261.107" y2="14.592"/>
        <rect class="cls-3" x="214.631" y="54.617" width="83.576" height="3" transform="translate(171.89 304.622) rotate(-83.559)"/>
      </g>
      <g>
        <line class="cls-2" x1="240.658" y1="97.642" x2="250.034" y2="14.592"/>
        <rect class="cls-3" x="203.558" y="54.617" width="83.576" height="3" transform="translate(162.059 293.619) rotate(-83.559)"/>
      </g>
      <g>
        <line class="cls-2" x1="346.352" y1="97.401" x2="332.579" y2="14.833"/>
        <rect class="cls-3" x="337.965" y="14.263" width="3" height="83.708" transform="translate(-4.607 56.677) rotate(-9.48)"/>
      </g>
      <g>
        <line class="cls-2" x1="315.532" y1="97.642" x2="324.908" y2="14.592"/>
        <rect class="cls-3" x="278.432" y="54.618" width="83.576" height="2.999" transform="translate(228.537 368.021) rotate(-83.559)"/>
      </g>
      <g>
        <line class="cls-2" x1="304.723" y1="97.642" x2="314.098" y2="14.592"/>
        <rect class="cls-3" x="267.622" y="54.618" width="83.576" height="2.999" transform="translate(218.937 357.279) rotate(-83.559)"/>
      </g>
      <g>
        <line class="cls-2" x1="220.781" y1="56.117" x2="406.477" y2="56.117"/>
        <rect class="cls-3" x="220.781" y="54.617" width="185.696" height="3"/>
      </g>
    </g>
    <path class="cls-3" d="m291.834,119.514v3h-1.804v-3h1.804Zm-3.804,0v3h-2v-3h2Zm-4,0v3h-2v-3h2Zm-4,0v3h-2v-3h2Zm-4,0v3h-2v-3h2Zm-4,0v3h-2v-3h2Zm-4,0v3h-2.001v-3h2.001Zm-4,0v3h-2v-3h2Zm-4,0v3h-2v-3h2Zm-4,0v3h-2v-3h2Zm-4,0v3h-2v-3h2Zm-4,0v3h-2v-3h2Zm-4,0v3h-2v-3h2Zm-4,0v3h-2v-3h2Zm-4,0v3h-2v-3h2Zm-4,0v3h-2v-3h2Zm-4,0v3h-2v-3h2Zm-4,0v3h-2v-3h2Zm-4,0v3h-2v-3h2Zm-4,0v3h-2v-3h2Zm-4,0v3h-2v-3h2Zm-4,0v3h-2v-3h2Zm-4,0v3h-2v-3h2Zm-4,0v3h-2v-3h2Zm-4,0v3h-2v-3h2Zm-4,0v3h-2v-3h2Zm-4,0v3h-2v-3h2Zm-4,0v3h-2v-3h2Zm-4,0v3h-2v-3h2Zm-4,0v3h-2v-3h2Zm-4,0v3h-2v-3h2Zm-4,0v3h-2v-3h2Zm-4,0v3h-2v-3h2Zm-4,0v3h-2v-3h2Zm-4,0v3h-2v-3h2Zm-4,0v3h-2v-3h2Zm-4,0v3h-2v-3h2Zm-4,0v3h-2v-3h2Zm-4,0v3h-2v-3h2Zm-4,0v3h-2v-3h2Zm-4,0v3h-2v-3h2Zm-4,0v3h-2v-3h2Zm-4,0v3h-2v-3h2Z"/>
    <rect class="cls-3" x="291.834" y="119.514" width="101.895" height="3"/>
    <rect class="cls-3" x="16.812" y="119.514" width="101.895" height="3"/>
  </g>
</svg>