<?xml version="1.0" encoding="UTF-8"?>
<svg id="Layer_1" data-name="Layer 1" xmlns="http://www.w3.org/2000/svg" viewBox="0 0 228.22 129.617">
  <defs>
    <style>
      .cls-1 {
        opacity: .39;
      }

      .cls-2 {
        fill: #fff;
      }

      .cls-2, .cls-3 {
        stroke: #c69c6d;
        stroke-miterlimit: 10;
      }

      .cls-3 {
        fill: #1d1d1b;
      }
    </style>
  </defs>
  <g class="cls-1">
    <g>
      <rect class="cls-2" x="2" y="2" width="224.22" height="125.617"/>
      <path class="cls-3" d="m226.22,129.117H2c-.828,0-1.5-.671-1.5-1.5V2c0-.829.672-1.5,1.5-1.5h224.22c.828,0,1.5.671,1.5,1.5v125.617c0,.829-.672,1.5-1.5,1.5ZM3.5,126.117h221.22V3.5H3.5v122.617Z"/>
    </g>
    <g>
      <rect class="cls-2" x="2" y="2" width="224.22" height="125.617"/>
      <path class="cls-3" d="m226.22,129.117H2c-.828,0-1.5-.671-1.5-1.5V2c0-.829.672-1.5,1.5-1.5h224.22c.828,0,1.5.671,1.5,1.5v125.617c0,.829-.672,1.5-1.5,1.5ZM3.5,126.117h221.22V3.5H3.5v122.617Z"/>
    </g>
    <g>
      <line class="cls-2" x1="214.911" y1="111.505" x2="214.911" y2="18.112"/>
      <rect class="cls-3" x="213.411" y="18.112" width="3" height="93.393"/>
    </g>
    <g>
      <line class="cls-2" x1="132.597" y1="93.684" x2="132.597" y2="35.933"/>
      <rect class="cls-3" x="131.097" y="35.933" width="3" height="57.75"/>
    </g>
    <g>
      <line class="cls-2" x1="204.458" y1="95.121" x2="204.458" y2="34.496"/>
      <rect class="cls-3" x="202.958" y="34.496" width="3" height="60.625"/>
    </g>
    <g>
      <line class="cls-2" x1="76.571" y1="94.816" x2="85.142" y2="34.8"/>
      <rect class="cls-3" x="50.544" y="63.308" width="60.625" height="3.001" transform="translate(5.278 135.701) rotate(-81.881)"/>
    </g>
    <g>
      <line class="cls-2" x1="69.786" y1="95.037" x2="65.273" y2="34.58"/>
      <rect class="cls-3" x="66.029" y="34.496" width="3.001" height="60.625" transform="translate(-4.637 5.206) rotate(-4.269)"/>
    </g>
    <g>
      <line class="cls-2" x1="60.234" y1="100.924" x2="54.842" y2="28.692"/>
      <rect class="cls-3" x="56.038" y="28.591" width="3.001" height="72.433" transform="translate(-4.664 4.463) rotate(-4.269)"/>
    </g>
    <g>
      <line class="cls-2" x1="142.527" y1="111.505" x2="142.527" y2="18.112"/>
      <rect class="cls-3" x="141.027" y="18.112" width="3" height="93.393"/>
    </g>
    <g>
      <line class="cls-2" x1="194.298" y1="111.003" x2="180.648" y2="18.613"/>
      <rect class="cls-3" x="185.973" y="18.112" width="3" height="93.393" transform="translate(-7.459 28.099) rotate(-8.405)"/>
    </g>
    <g>
      <line class="cls-2" x1="180.971" y1="111.003" x2="167.32" y2="18.613"/>
      <rect class="cls-3" x="172.646" y="18.112" width="3" height="93.393" transform="translate(-7.602 26.149) rotate(-8.405)"/>
    </g>
    <g>
      <line class="cls-2" x1="150.423" y1="111.273" x2="159.717" y2="18.344"/>
      <rect class="cls-3" x="108.374" y="63.309" width="93.393" height="2.999" transform="translate(75.136 212.651) rotate(-84.283)"/>
    </g>
    <g>
      <line class="cls-2" x1="31.264" y1="111.273" x2="40.557" y2="18.344"/>
      <rect class="cls-3" x="-10.786" y="63.309" width="93.393" height="2.999" transform="translate(-32.153 94.084) rotate(-84.283)"/>
    </g>
    <g>
      <line class="cls-2" x1="20.289" y1="111.273" x2="29.582" y2="18.344"/>
      <rect class="cls-3" x="-21.761" y="63.309" width="93.393" height="2.999" transform="translate(-42.035 83.163) rotate(-84.283)"/>
    </g>
    <g>
      <line class="cls-2" x1="125.05" y1="111.003" x2="111.399" y2="18.613"/>
      <rect class="cls-3" x="116.724" y="18.112" width="3.001" height="93.393" transform="translate(-8.203 17.976) rotate(-8.405)"/>
    </g>
    <g>
      <line class="cls-2" x1="94.502" y1="111.273" x2="103.795" y2="18.344"/>
      <rect class="cls-3" x="52.452" y="63.309" width="93.393" height="2.999" transform="translate(24.785 157.007) rotate(-84.283)"/>
    </g>
    <g>
      <line class="cls-2" x1="83.788" y1="111.273" x2="93.081" y2="18.344"/>
      <rect class="cls-3" x="41.738" y="63.309" width="93.393" height="2.999" transform="translate(15.138 146.346) rotate(-84.282)"/>
    </g>
    <g>
      <line class="cls-2" x1=".587" y1="64.808" x2="225.687" y2="64.808"/>
      <rect class="cls-3" x=".587" y="63.308" width="225.101" height="3"/>
    </g>
  </g>
</svg>