<?xml version="1.0" encoding="UTF-8"?>
<svg xmlns="http://www.w3.org/2000/svg" xmlns:xlink="http://www.w3.org/1999/xlink" viewBox="0 0 626.02 730.39">
  <defs>
    <style>
      .cls-1 {
        fill: #ddd;
      }

      .cls-2 {
        fill: #e9e9e9;
      }

      .cls-3 {
        fill: #f0f0f0;
      }

      .cls-4 {
        fill: #f4f4f4;
      }

      .cls-5 {
        fill: #fff;
      }

      .cls-6 {
        fill: #cbcbcb;
      }

      .cls-7 {
        fill: #d1d1d1;
      }

      .cls-8 {
        fill: #fafafa;
      }

      .cls-9 {
        fill: #dbdbdb;
      }

      .cls-10 {
        fill: #ff564a;
      }

      .cls-10, .cls-11, .cls-12, .cls-13, .cls-14, .cls-15 {
        mix-blend-mode: multiply;
      }

      .cls-16 {
        fill: #cacaca;
      }

      .cls-17 {
        fill: #d8d8d8;
      }

      .cls-18 {
        fill: #f6f6f6;
      }

      .cls-11 {
        fill: url(#linear-gradient-4);
      }

      .cls-19 {
        fill: #e2e2e2;
      }

      .cls-20 {
        fill: #f5f5f5;
      }

      .cls-21 {
        fill: url(#linear-gradient-6);
      }

      .cls-22 {
        isolation: isolate;
      }

      .cls-23 {
        fill: #d6d6d6;
      }

      .cls-24 {
        fill: #c9c9c9;
      }

      .cls-25 {
        fill: #e0e0e0;
      }

      .cls-26 {
        fill: url(#linear-gradient-11);
      }

      .cls-27 {
        fill: #c7c7c7;
      }

      .cls-28 {
        fill: #dedede;
      }

      .cls-29 {
        fill: #cfcfcf;
      }

      .cls-30 {
        fill: #d7d7d7;
      }

      .cls-31 {
        fill: url(#linear-gradient-10);
      }

      .cls-32 {
        fill: #e1e1e1;
      }

      .cls-33 {
        fill: #e6e6e6;
      }

      .cls-34 {
        fill: #e7e7e7;
      }

      .cls-35 {
        fill: #d4d4d4;
      }

      .cls-36 {
        fill: #dadada;
      }

      .cls-37 {
        fill: #eaeaea;
      }

      .cls-12 {
        fill: url(#linear-gradient-8);
      }

      .cls-38 {
        fill: #c8c8c8;
      }

      .cls-39 {
        fill: #fdfdfd;
      }

      .cls-40 {
        fill: #e4e4e4;
      }

      .cls-41, .cls-42, .cls-43 {
        stroke: #949494;
        stroke-width: .03px;
      }

      .cls-41, .cls-42, .cls-43, .cls-44 {
        stroke-linecap: round;
        stroke-linejoin: round;
      }

      .cls-41, .cls-44 {
        fill: none;
      }

      .cls-45 {
        fill: #fbfbfb;
      }

      .cls-42 {
        fill: url(#linear-gradient-2);
      }

      .cls-46 {
        fill: #f9f9f9;
      }

      .cls-43 {
        fill: url(#linear-gradient);
      }

      .cls-47 {
        fill: #e5e5e5;
      }

      .cls-48 {
        fill: url(#linear-gradient-5);
      }

      .cls-49 {
        fill: #d3d3d3;
      }

      .cls-50 {
        fill: #ebebeb;
      }

      .cls-51 {
        fill: #d5d5d5;
      }

      .cls-44 {
        stroke: #8f8f8f;
        stroke-width: .03px;
      }

      .cls-52 {
        fill: #dcdcdc;
      }

      .cls-13 {
        fill: #706f6f;
      }

      .cls-53 {
        fill: #e8e8e8;
      }

      .cls-54 {
        fill: #ccc;
      }

      .cls-55 {
        fill: #f7f7f7;
      }

      .cls-56 {
        fill: #efefef;
      }

      .cls-57 {
        fill: url(#linear-gradient-9);
      }

      .cls-58 {
        fill: #f1f1f1;
      }

      .cls-59 {
        fill: url(#linear-gradient-3);
      }

      .cls-14 {
        fill: url(#linear-gradient-7);
      }

      .cls-60 {
        fill: #cecece;
      }

      .cls-61 {
        fill: #f3f3f3;
      }

      .cls-62 {
        fill: #d9d9d9;
      }

      .cls-63 {
        fill: #cdcdcd;
      }

      .cls-64 {
        fill: #f8f8f8;
      }

      .cls-65 {
        fill: #d2d2d2;
      }

      .cls-66 {
        fill: #c6c6c6;
      }

      .cls-67 {
        fill: #eee;
      }

      .cls-68 {
        fill: #d0d0d0;
      }

      .cls-69 {
        fill: #ececec;
      }

      .cls-70 {
        fill: #f2f2f2;
      }

      .cls-71 {
        fill: #fefefe;
      }

      .cls-72 {
        fill: url(#linear-gradient-12);
      }

      .cls-73 {
        fill: #e3e3e3;
      }

      .cls-74 {
        fill: #fcfcfc;
      }

      .cls-75 {
        fill: #ededed;
      }

      .cls-76 {
        fill: #dfdfdf;
      }
    </style>
    <linearGradient id="linear-gradient" x1="612.18" y1="30.84" x2="71.72" y2="30.84" gradientUnits="userSpaceOnUse">
      <stop offset="0" stop-color="#bababa"/>
      <stop offset=".13" stop-color="#f2f2f2"/>
      <stop offset=".38" stop-color="#e5e5e5"/>
      <stop offset=".85" stop-color="#c4c4c3"/>
      <stop offset="1" stop-color="#b8b8b7"/>
    </linearGradient>
    <linearGradient id="linear-gradient-2" x1="71.72" y1="60.81" x2="612.18" y2="60.81" gradientUnits="userSpaceOnUse">
      <stop offset="0" stop-color="#a3a3a2"/>
      <stop offset="1" stop-color="#737373"/>
    </linearGradient>
    <linearGradient id="linear-gradient-3" x1="611.48" y1="386.63" x2="71.12" y2="386.63" gradientUnits="userSpaceOnUse">
      <stop offset="0" stop-color="#ebebeb"/>
      <stop offset=".28" stop-color="#e7e7e6"/>
      <stop offset=".57" stop-color="#dbdbda"/>
      <stop offset=".85" stop-color="#c7c7c6"/>
      <stop offset="1" stop-color="#babab9"/>
    </linearGradient>
    <linearGradient id="linear-gradient-4" x1="91.76" y1="573" x2="91.76" y2="669.22" gradientTransform="translate(249.96 731.29) scale(1 -1)" gradientUnits="userSpaceOnUse">
      <stop offset="0" stop-color="#fff"/>
      <stop offset=".66" stop-color="#ebebea"/>
      <stop offset="1" stop-color="#e0e0df"/>
    </linearGradient>
    <linearGradient id="linear-gradient-5" x1="617.44" y1="431.07" x2="63.04" y2="431.07" gradientUnits="userSpaceOnUse">
      <stop offset="0" stop-color="#ebebeb"/>
      <stop offset=".29" stop-color="#e7e7e6"/>
      <stop offset=".58" stop-color="#dbdbda"/>
      <stop offset=".88" stop-color="#c7c7c6"/>
      <stop offset="1" stop-color="#bdbdbc"/>
    </linearGradient>
    <linearGradient id="linear-gradient-6" x1="623.96" y1="272.47" x2="55.72" y2="272.47" gradientUnits="userSpaceOnUse">
      <stop offset="0" stop-color="#ebebeb"/>
      <stop offset=".31" stop-color="#e7e7e6"/>
      <stop offset=".62" stop-color="#dbdbda"/>
      <stop offset=".93" stop-color="#c7c7c6"/>
      <stop offset="1" stop-color="#c2c2c1"/>
    </linearGradient>
    <linearGradient id="linear-gradient-7" x1="90.9" y1="354.47" x2="90.9" y2="418.68" gradientTransform="translate(249.96 731.29) scale(1 -1)" gradientUnits="userSpaceOnUse">
      <stop offset="0" stop-color="#fff"/>
      <stop offset=".69" stop-color="#fffffe"/>
      <stop offset=".8" stop-color="#f6f6f5"/>
      <stop offset=".97" stop-color="#dddddc"/>
      <stop offset="1" stop-color="#d9d9d8"/>
    </linearGradient>
    <linearGradient id="linear-gradient-8" x1="91.34" y1="48.22" x2="91.34" y2="136.81" xlink:href="#linear-gradient-7"/>
    <linearGradient id="linear-gradient-9" x1="336.22" y1="104.48" x2="131.8" y2="104.48" gradientUnits="userSpaceOnUse">
      <stop offset="0" stop-color="#fff"/>
      <stop offset="1" stop-color="#c9c9c9"/>
    </linearGradient>
    <linearGradient id="linear-gradient-10" x1="300.44" y1="176.65" x2="163.43" y2="176.65" xlink:href="#linear-gradient-9"/>
    <linearGradient id="linear-gradient-11" x1="560.53" x2="356.11" xlink:href="#linear-gradient-9"/>
    <linearGradient id="linear-gradient-12" x1="524.75" y1="176.65" x2="387.74" y2="176.65" xlink:href="#linear-gradient-9"/>
  </defs>
  <g class="cls-22">
    <g id="Layer_1" data-name="Layer 1">
      <g>
        <g class="cls-15">
          <path class="cls-5" d="m569.76,248.67h-12.27V100.03c0-.49-.32-.83-.7-.94v-30.93c0-.38-.19-.71-.48-.85l-43.38-20.74s-.08.03-.13.02c-.06-.02-.1-.08-.17-.08L58.67,30.84c-.07,0-28,6.67-28.06,6.68-.04.01.04-.02,0,0l-15.26,29.78c-.29.14-.48.47-.48.85v31.43c0,.07.07.1.08.17-.04.15-.09.3-.06.46.05.31.26.51.5.62v147.84H.88c-.48,0-.88.46-.88,1.03v80.28c0,.57.39,1.03.88,1.03h6.43v279.88c0,.56.39,1.03.88,1.03h7.19v20.49c0,54.03,37.43,97.99,83.43,97.99h375.24c46.01,0,83.44-43.96,83.44-97.99v-20.49h5.72c.48,0,.87-.47.87-1.03v-279.88h5.68c.48,0,.87-.46.87-1.03v-80.28c0-.57-.39-1.03-.87-1.03Z"/>
          <path class="cls-71" d="m570.71,248.38h-12.27V99.75c0-.49-.32-.83-.7-.94v-30.93c0-.38-.19-.71-.49-.85l-43.38-20.74s-.08.03-.13.02c-.06-.01-.1-.08-.17-.08L59.62,30.56c-.07,0-27.52,6.55-27.58,6.57-.04.01-.66.07-.7.09l-15.04,29.54c-.29.14-.49.47-.49.85v31.7c0,.07.07.1.08.17-.04.15-.09.3-.06.46.05.31.26.51.5.62v147.84H1.83c-.48,0-.88.46-.88,1.03v80.28c0,.57.39,1.03.88,1.03h6.43v279.88c0,.56.39,1.03.88,1.03h7.19v20.49c0,54.03,37.43,97.99,83.43,97.99h375.24c46.01,0,83.44-43.96,83.44-97.99v-20.49h5.72c.48,0,.87-.47.87-1.03v-279.88h5.68c.48,0,.87-.46.87-1.03v-80.28c0-.57-.39-1.03-.87-1.03Z"/>
          <path class="cls-39" d="m571.67,248.1h-12.27V99.46c0-.49-.32-.83-.7-.94v-30.93c0-.38-.19-.71-.49-.85l-43.38-20.74s-.08.03-.13.02c-.06-.01-.1-.08-.17-.08L60.58,30.27c-.07,0-27.04,6.44-27.1,6.45-.04.01-1.36.16-1.4.18l-14.83,29.29c-.29.14-.49.47-.49.85v31.96c.01.07.08.1.09.17-.04.15-.09.3-.06.46.05.31.26.51.5.62v147.84H2.79c-.48,0-.88.46-.88,1.03v80.28c0,.57.39,1.03.88,1.03h6.43v279.88c0,.56.39,1.03.88,1.03h7.19v20.49c0,54.03,37.43,97.99,83.43,97.99h375.24c46.01,0,83.44-43.96,83.44-97.99v-20.49h5.72c.48,0,.87-.47.87-1.03v-279.88h5.68c.48,0,.87-.46.87-1.03v-80.28c0-.57-.39-1.03-.87-1.03Z"/>
          <path class="cls-74" d="m572.62,247.82h-12.27V99.18c0-.49-.32-.83-.7-.94v-30.93c0-.38-.19-.71-.49-.85l-43.38-20.74s-.08.03-.12.02c-.06-.01-.1-.08-.17-.08L61.53,29.99c-.07,0-26.56,6.32-26.62,6.34-.04.01-2.06.25-2.1.27l-14.62,29.05c-.29.14-.49.47-.49.85l.02,32.23c0,.07.07.1.08.17-.04.15-.09.3-.06.46.05.31.26.51.5.62v147.84H3.74c-.48,0-.88.46-.88,1.03v80.28c0,.57.39,1.03.88,1.03h6.43v279.88c0,.56.39,1.03.88,1.03h7.19v20.49c0,54.03,37.43,97.99,83.43,97.99h375.24c46.01,0,83.44-43.96,83.44-97.99v-20.49h5.72c.48,0,.87-.47.87-1.03v-279.88h5.68c.48,0,.87-.46.87-1.03v-80.28c0-.57-.39-1.03-.87-1.03Z"/>
          <path class="cls-45" d="m573.58,247.53h-12.27V98.9c0-.49-.32-.83-.7-.94v-30.93c0-.38-.19-.71-.49-.85l-43.38-20.74s-.08.03-.12.02c-.06-.01-.1-.08-.17-.08L62.49,29.71c-.07,0-26.08,6.21-26.14,6.22-.04.01-2.76.34-2.8.36l-14.41,28.8c-.29.14-.49.47-.49.85l.02,32.5c0,.07.07.1.08.17-.04.15-.09.3-.06.46.05.31.26.51.5.62v147.84H4.7c-.48,0-.88.46-.88,1.03v80.28c0,.57.39,1.03.88,1.03h6.43v279.88c0,.57.39,1.03.88,1.03h7.19v20.49c0,54.03,37.43,97.99,83.43,97.99h375.24c46.01,0,83.44-43.96,83.44-97.99v-20.49h5.72c.48,0,.87-.47.87-1.03v-279.88h5.68c.48,0,.87-.46.87-1.03v-80.28c0-.57-.39-1.03-.87-1.03Z"/>
          <path class="cls-8" d="m574.53,247.25h-12.27V98.61c0-.49-.32-.83-.7-.94v-30.93c0-.38-.19-.71-.49-.85l-43.38-20.74s-.08.03-.12.02c-.06-.01-.1-.08-.17-.08L63.44,29.42c-.07,0-25.6,6.09-25.66,6.11-.04.01-3.46.43-3.5.45l-14.19,28.55c-.29.14-.49.47-.49.85l.03,32.77c0,.07.07.1.08.17-.04.15-.09.3-.06.46.05.31.26.51.5.62v147.84H5.65c-.48,0-.88.46-.88,1.03v80.28c0,.57.39,1.03.88,1.03h6.44v279.88c0,.57.39,1.03.88,1.03h7.19v20.49c0,54.03,37.43,97.99,83.43,97.99h375.24c46.01,0,83.44-43.96,83.44-97.99v-20.49h5.72c.48,0,.87-.47.87-1.03v-279.88h5.68c.48,0,.87-.46.87-1.03v-80.28c0-.57-.39-1.03-.87-1.03Z"/>
          <path class="cls-46" d="m575.49,246.97h-12.27V98.33c0-.49-.32-.83-.7-.94v-30.93c0-.38-.19-.71-.49-.85l-43.38-20.74s-.08.03-.12.02c-.06-.01-.1-.08-.17-.08L64.4,29.14c-.07,0-25.12,5.98-25.18,6-.04.01-4.16.52-4.2.54l-13.98,28.31c-.29.14-.49.47-.49.85l.04,33.04c0,.07.07.1.08.17-.04.15-.09.3-.06.46.05.31.26.51.5.62v147.83H6.61c-.48,0-.88.46-.88,1.03v80.28c0,.57.39,1.03.88,1.03h6.44v279.88c0,.57.39,1.03.88,1.03h7.19v20.49c0,54.03,37.43,97.99,83.43,97.99h375.24c46.01,0,83.44-43.96,83.44-97.99v-20.49h5.72c.48,0,.87-.47.87-1.03v-279.88h5.68c.48,0,.87-.46.87-1.03v-80.28c0-.57-.39-1.03-.87-1.03Z"/>
          <path class="cls-64" d="m576.44,246.68h-12.27V98.05c0-.49-.32-.83-.7-.94v-30.93c0-.38-.19-.71-.49-.85l-43.38-20.74s-.08.03-.12.02c-.06-.01-.1-.08-.17-.08L65.35,28.86c-.07,0-24.64,5.87-24.7,5.88-.04.01-4.86.61-4.9.63l-13.77,28.06c-.29.14-.49.47-.49.85l.04,33.31c0,.07.07.1.08.17-.04.15-.09.3-.06.46.05.31.26.51.5.62v147.83H7.56c-.48,0-.88.46-.88,1.03v80.28c0,.57.39,1.03.88,1.03h6.44v279.88c0,.57.39,1.03.88,1.03h7.19v20.49c0,54.03,37.43,97.99,83.43,97.99h375.24c46.01,0,83.44-43.96,83.44-97.99v-20.49h5.72c.48,0,.87-.47.87-1.03v-279.88h5.68c.48,0,.87-.46.87-1.03v-80.28c0-.57-.39-1.03-.87-1.03Z"/>
          <path class="cls-55" d="m577.4,246.4h-12.27V97.76c0-.49-.32-.83-.7-.94v-30.93c0-.38-.19-.71-.49-.85l-43.38-20.74s-.08.03-.12.02c-.06-.01-.1-.08-.17-.08L66.31,28.57c-.07,0-24.16,5.75-24.22,5.77-.04.01-5.56.7-5.6.72l-13.55,27.82c-.29.14-.49.47-.49.85l.05,33.58c0,.07.07.1.08.17-.04.15-.09.3-.06.46.05.31.26.51.5.62v147.83h-14.5c-.48,0-.88.46-.88,1.03v80.28c0,.57.39,1.03.88,1.03h6.44v279.88c0,.57.39,1.03.88,1.03h7.19v20.49c0,54.03,37.43,97.99,83.43,97.99h375.24c46.01,0,83.44-43.96,83.44-97.99v-20.49h5.72c.48,0,.87-.47.87-1.03v-279.88h5.68c.48,0,.87-.46.87-1.03v-80.28c0-.57-.39-1.03-.87-1.03Z"/>
          <path class="cls-18" d="m578.35,246.12h-12.27V97.48c0-.49-.32-.84-.7-.94v-30.93c0-.38-.19-.71-.49-.85l-43.38-20.74s-.08.03-.12.02c-.06-.01-.1-.08-.17-.08L67.26,28.29c-.07,0-23.68,5.64-23.74,5.65-.04.01-6.26.79-6.3.81l-13.34,27.57c-.29.14-.49.47-.49.85l.05,33.85c0,.07.07.1.08.17-.04.15-.09.3-.06.46.05.31.26.51.5.62v147.83h-14.5c-.48,0-.88.46-.88,1.03v80.27c0,.57.39,1.03.88,1.03h6.44v279.88c0,.57.39,1.03.88,1.03h7.19v20.49c0,54.03,37.43,97.99,83.43,97.99h375.24c46.01,0,83.44-43.96,83.44-97.99v-20.49h5.72c.48,0,.87-.47.87-1.03v-279.88h5.68c.48,0,.87-.46.87-1.03v-80.27c0-.57-.39-1.03-.87-1.03Z"/>
          <path class="cls-20" d="m579.31,245.83h-12.27V97.2c0-.49-.32-.84-.7-.94v-30.93c0-.38-.19-.71-.49-.85l-43.38-20.74s-.08.03-.12.02c-.06-.01-.1-.08-.17-.08L68.22,28.01c-.07,0-23.2,5.53-23.26,5.54-.04.01-6.96.88-7,.89l-13.13,27.33c-.29.14-.49.47-.49.85l.06,34.12c0,.07.07.1.08.17-.04.15-.09.3-.06.46.05.31.26.51.5.62v147.83h-14.5c-.48,0-.88.46-.88,1.03v80.27c0,.57.39,1.03.88,1.03h6.44v279.88c0,.57.39,1.03.88,1.03h7.19v20.49c0,54.03,37.43,97.99,83.43,97.99h375.24c46.01,0,83.44-43.96,83.44-97.99v-20.49h5.72c.48,0,.87-.47.87-1.03v-279.88h5.68c.48,0,.87-.46.87-1.03v-80.27c0-.57-.39-1.03-.87-1.03Z"/>
          <path class="cls-4" d="m580.26,245.55h-12.27V96.91c0-.49-.31-.84-.7-.94v-30.93c0-.38-.19-.71-.49-.85l-43.38-20.74s-.08.03-.12.02c-.06-.01-.1-.08-.17-.08L69.17,27.72c-.07,0-22.71,5.41-22.78,5.43-.04.01-7.66.97-7.7.98l-12.92,27.08c-.29.14-.49.47-.49.85l.07,34.39c0,.07.07.1.08.17-.04.15-.09.3-.06.46.05.31.26.51.5.62v147.83h-14.5c-.48,0-.88.46-.88,1.03v80.27c0,.57.39,1.03.88,1.03h6.44v279.88c0,.57.39,1.03.88,1.03h7.19v20.49c0,54.03,37.43,97.99,83.43,97.99h375.24c46.01,0,83.44-43.96,83.44-97.99v-20.49h5.72c.48,0,.87-.47.87-1.03v-279.88h5.68c.48,0,.87-.46.87-1.03v-80.27c0-.57-.39-1.03-.87-1.03Z"/>
          <path class="cls-61" d="m581.22,245.27h-12.27V96.63c0-.49-.31-.84-.7-.94v-30.93c0-.38-.19-.71-.49-.85l-43.38-20.74s-.08.03-.12.02c-.06-.01-.1-.08-.17-.08L70.13,27.44c-.07,0-22.23,5.3-22.29,5.31-.04.01-8.36,1.05-8.39,1.07l-12.7,26.83c-.29.14-.49.47-.49.85l.07,34.66c0,.07.07.1.08.17-.04.15-.09.3-.06.46.05.31.26.51.5.62v147.83h-14.5c-.48,0-.88.46-.88,1.03v80.27c0,.57.39,1.03.88,1.03h6.44v279.88c0,.57.39,1.03.88,1.03h7.19v20.49c0,54.03,37.43,97.99,83.43,97.99h375.24c46.01,0,83.44-43.96,83.44-97.99v-20.49h5.72c.48,0,.87-.47.87-1.03v-279.88h5.68c.48,0,.87-.46.87-1.03v-80.27c0-.57-.39-1.03-.87-1.03Z"/>
          <path class="cls-70" d="m582.17,244.98h-12.27V96.35c0-.49-.31-.84-.7-.94v-30.93c0-.38-.19-.71-.49-.85l-43.38-20.74s-.08.03-.12.02c-.06-.01-.1-.08-.17-.08L71.08,27.16c-.07,0-21.75,5.18-21.81,5.2-.04.01-9.05,1.14-9.09,1.16l-12.49,26.59c-.29.14-.49.47-.49.85l.08,34.93c0,.07.07.1.08.17-.04.15-.09.3-.06.46.05.31.26.51.5.62v147.83h-14.5c-.48,0-.88.46-.88,1.03v80.27c0,.57.39,1.03.88,1.03h6.44v279.88c0,.57.39,1.03.88,1.03h7.19v20.49c0,54.03,37.43,97.99,83.43,97.99h375.24c46.01,0,83.44-43.96,83.44-97.99v-20.49h5.72c.48,0,.87-.47.87-1.03v-279.88h5.68c.48,0,.87-.46.87-1.03v-80.27c0-.57-.39-1.03-.87-1.03Z"/>
          <path class="cls-58" d="m583.13,244.7h-12.27V96.06c0-.49-.31-.84-.7-.94v-30.93c0-.38-.19-.71-.49-.85l-43.38-20.74s-.08.03-.12.02c-.06-.01-.1-.08-.17-.08L72.04,26.87c-.07,0-21.27,5.07-21.33,5.09-.04.01-9.75,1.23-9.79,1.25l-12.28,26.34c-.29.14-.49.47-.49.85l.09,35.2c0,.07.07.1.08.17-.04.15-.09.3-.06.46.05.31.26.51.5.62v147.83h-14.5c-.48,0-.88.46-.88,1.03v80.27c0,.57.39,1.03.88,1.03h6.44v279.88c0,.57.39,1.03.88,1.03h7.19v20.49c0,54.03,37.43,97.99,83.43,97.99h375.24c46.01,0,83.44-43.96,83.44-97.99v-20.49h5.72c.48,0,.87-.47.87-1.03v-279.88h5.68c.48,0,.87-.46.87-1.03v-80.27c0-.57-.39-1.03-.87-1.03Z"/>
          <path class="cls-3" d="m584.08,244.42h-12.27V95.78c0-.49-.31-.84-.7-.94v-30.93c0-.38-.19-.71-.49-.85l-43.38-20.74s-.08.03-.12.02c-.06-.01-.1-.08-.17-.08L72.99,26.59c-.07,0-20.79,4.96-20.85,4.97-.04.01-10.45,1.32-10.49,1.34l-12.07,26.1c-.29.14-.49.47-.49.85l.09,35.47c0,.07.07.1.08.17-.04.15-.09.3-.06.46.05.31.26.51.5.62v147.83h-14.5c-.48,0-.88.46-.88,1.03v80.27c0,.57.39,1.03.88,1.03h6.44v279.88c0,.57.39,1.03.88,1.03h7.19v20.49c0,54.03,37.43,97.99,83.43,97.99h375.24c46.01,0,83.44-43.96,83.44-97.99v-20.49h5.72c.48,0,.87-.47.87-1.03v-279.88h5.68c.48,0,.87-.46.87-1.03v-80.27c0-.57-.39-1.03-.87-1.03Z"/>
          <path class="cls-56" d="m585.04,244.13h-12.27V95.5c0-.49-.31-.84-.7-.94v-30.93c0-.38-.19-.71-.49-.85l-43.38-20.74s-.08.03-.12.02c-.06-.01-.1-.08-.17-.08L73.95,26.31c-.07,0-20.31,4.84-20.37,4.86-.04.01-11.15,1.41-11.19,1.43l-11.85,25.85c-.29.14-.49.47-.49.85l.1,35.74c0,.07.07.1.08.17-.04.15-.09.3-.06.46.05.31.26.51.5.62v147.83h-14.5c-.48,0-.88.46-.88,1.03v80.27c0,.57.39,1.03.88,1.03h6.44v279.88c0,.57.39,1.03.88,1.03h7.19v20.49c0,54.03,37.43,97.99,83.43,97.99h375.24c46.01,0,83.44-43.96,83.44-97.99v-20.49h5.72c.48,0,.87-.47.87-1.03v-279.88h5.68c.48,0,.87-.46.87-1.03v-80.27c0-.57-.39-1.03-.87-1.03Z"/>
          <path class="cls-67" d="m585.99,243.85h-12.27V95.21c0-.49-.31-.84-.7-.95v-30.93c0-.38-.19-.71-.49-.85l-43.38-20.74s-.08.03-.12.02c-.06-.01-.1-.08-.17-.08L74.91,26.02c-.07,0-19.83,4.73-19.89,4.74-.04.01-11.85,1.5-11.89,1.52l-11.64,25.61c-.29.14-.49.47-.49.85l.1,36.01c0,.07.07.1.08.17-.04.15-.09.3-.06.46.05.31.26.51.5.62v147.83h-14.5c-.48,0-.88.46-.88,1.03v80.27c0,.57.39,1.03.88,1.03h6.44v279.88c0,.57.39,1.03.88,1.03h7.19v20.49c0,54.03,37.43,97.99,83.43,97.99h375.24c46.01,0,83.44-43.96,83.44-97.99v-20.49h5.72c.48,0,.87-.47.87-1.03v-279.88h5.68c.48,0,.87-.46.87-1.03v-80.27c0-.57-.39-1.03-.87-1.03Z"/>
          <path class="cls-75" d="m586.95,243.56h-12.27V94.93c0-.49-.31-.84-.7-.95v-30.93c0-.38-.19-.71-.49-.85l-43.38-20.74s-.08.03-.12.02c-.06-.01-.1-.08-.17-.08L75.86,25.74c-.07,0-19.35,4.61-19.41,4.63-.04.01-12.55,1.59-12.59,1.61l-11.43,25.36c-.29.14-.49.47-.49.85l.11,36.28c0,.07.07.1.08.17-.04.15-.09.3-.06.46.05.31.26.51.5.62v147.83h-14.5c-.48,0-.88.46-.88,1.03v80.27c0,.57.39,1.03.88,1.03h6.44v279.88c0,.57.39,1.03.88,1.03h7.19v20.49c0,54.03,37.43,97.99,83.43,97.99h375.24c46.01,0,83.44-43.96,83.44-97.99v-20.49h5.72c.48,0,.87-.47.87-1.03v-279.88h5.68c.48,0,.87-.46.87-1.03v-80.27c0-.57-.39-1.03-.87-1.03Z"/>
          <path class="cls-69" d="m587.9,243.28h-12.27V94.65c0-.49-.31-.84-.7-.95v-30.93c0-.38-.19-.71-.49-.85l-43.38-20.74s-.08.03-.12.02c-.06-.01-.1-.08-.17-.08L76.82,25.46c-.07,0-18.87,4.5-18.93,4.52-.04.01-13.25,1.68-13.29,1.7l-11.22,25.11c-.29.14-.49.47-.49.85l.12,36.55c0,.07.07.1.08.17-.04.15-.09.3-.06.46.05.31.26.51.5.62v147.83h-14.5c-.48,0-.88.46-.88,1.03v80.27c0,.57.39,1.03.88,1.03h6.44v279.88c0,.57.39,1.03.88,1.03h7.19v20.49c0,54.03,37.43,97.99,83.43,97.99h375.24c46.01,0,83.44-43.96,83.44-97.99v-20.49h5.72c.48,0,.87-.47.87-1.03v-279.88h5.68c.48,0,.87-.46.87-1.03v-80.27c0-.57-.39-1.03-.87-1.03Z"/>
          <path class="cls-50" d="m588.86,243h-12.27V94.36c0-.49-.31-.84-.7-.95v-30.93c0-.38-.19-.71-.49-.85l-43.38-20.74s-.08.03-.12.02c-.06-.01-.1-.08-.17-.08L77.77,25.17c-.07,0-18.39,4.39-18.45,4.4-.04.01-13.95,1.77-13.99,1.79l-11,24.87c-.29.14-.49.47-.49.85l.12,36.82c0,.07.07.1.08.17-.04.15-.09.3-.06.46.05.31.26.51.5.62v147.83h-14.5c-.48,0-.88.46-.88,1.03v80.27c0,.57.39,1.03.88,1.03h6.44v279.88c0,.57.39,1.03.88,1.03h7.19v20.49c0,54.03,37.43,97.99,83.43,97.99h375.24c46.01,0,83.44-43.96,83.44-97.99v-20.49h5.72c.48,0,.87-.47.87-1.03v-279.88h5.68c.48,0,.87-.46.87-1.03v-80.27c0-.57-.39-1.03-.87-1.03Z"/>
          <path class="cls-37" d="m589.81,242.71h-12.27V94.08c0-.49-.31-.84-.7-.95v-30.93c0-.38-.19-.71-.49-.85l-43.38-20.74s-.08.03-.12.02c-.06-.01-.1-.08-.17-.08L78.73,24.89c-.07,0-17.91,4.27-17.97,4.29-.04.01-14.65,1.86-14.69,1.88l-10.79,24.62c-.29.14-.49.47-.49.85l.13,37.09c0,.07.07.1.08.17-.04.15-.09.3-.06.46.05.31.26.51.5.62v147.83h-14.5c-.48,0-.88.46-.88,1.03v80.27c0,.57.39,1.03.88,1.03h6.44v279.88c0,.57.39,1.03.88,1.03h7.19v20.49c0,54.03,37.43,97.99,83.43,97.99h375.24c46.01,0,83.44-43.96,83.44-97.99v-20.49h5.72c.48,0,.87-.47.87-1.03v-279.88h5.68c.48,0,.87-.46.87-1.03v-80.27c0-.57-.39-1.03-.87-1.03Z"/>
          <path class="cls-2" d="m590.77,242.43h-12.27V93.8c0-.49-.31-.84-.7-.95v-30.93c0-.38-.19-.71-.49-.85l-43.38-20.74s-.08.03-.12.02c-.06-.01-.1-.08-.17-.08L79.68,24.61c-.07,0-17.42,4.16-17.49,4.17-.04.01-15.35,1.95-15.39,1.97l-10.58,24.38c-.29.14-.49.47-.49.85l.13,37.36c0,.07.07.1.08.17-.04.15-.09.3-.06.46.05.31.26.51.5.62v147.83h-14.5c-.48,0-.88.46-.88,1.03v80.27c0,.57.39,1.03.88,1.03h6.44v279.88c0,.57.39,1.03.88,1.03h7.19v20.49c0,54.03,37.43,97.99,83.43,97.99h375.24c46.01,0,83.44-43.96,83.44-97.99v-20.49h5.72c.48,0,.87-.47.87-1.03v-279.88h5.68c.48,0,.87-.46.87-1.03v-80.27c0-.57-.39-1.03-.87-1.03Z"/>
          <path class="cls-53" d="m591.72,242.15h-12.27V93.51c0-.49-.31-.84-.7-.95v-30.93c0-.38-.19-.71-.49-.85l-43.38-20.74s-.08.03-.12.02c-.06-.01-.1-.08-.17-.08L80.64,24.32c-.07,0-16.94,4.05-17.01,4.06-.04.01-16.05,2.04-16.09,2.06l-10.37,24.13c-.29.14-.49.47-.49.85l.14,37.63c0,.07.07.1.08.17-.04.15-.09.3-.06.46.05.31.26.51.5.62v147.83h-14.5c-.48,0-.88.46-.88,1.03v80.27c0,.57.39,1.03.88,1.03h6.44v279.88c0,.57.39,1.03.88,1.03h7.19v20.49c0,54.03,37.43,97.99,83.43,97.99h375.24c46.01,0,83.44-43.96,83.44-97.99v-20.49h5.72c.48,0,.87-.47.87-1.03v-279.88h5.68c.48,0,.87-.46.87-1.03v-80.27c0-.57-.39-1.03-.87-1.03Z"/>
          <path class="cls-34" d="m592.68,241.86h-12.27V93.23c0-.49-.31-.84-.7-.95v-30.93c0-.38-.19-.71-.49-.85l-43.38-20.74s-.08.03-.12.02c-.06-.01-.1-.08-.17-.08L81.59,24.04c-.07,0-16.46,3.93-16.52,3.95-.04.01-16.75,2.13-16.79,2.15l-10.15,23.89c-.29.14-.49.47-.49.85l.15,37.9c0,.07.07.1.08.17-.04.15-.09.3-.06.46.05.31.26.51.5.62v147.83h-14.5c-.48,0-.87.46-.87,1.03v80.27c0,.57.39,1.03.87,1.03h6.44v279.88c0,.57.39,1.03.87,1.03h7.19v20.49c0,54.03,37.43,97.99,83.43,97.99h375.24c46.01,0,83.44-43.96,83.44-97.99v-20.49h5.72c.48,0,.87-.47.87-1.03v-279.88h5.68c.48,0,.87-.46.87-1.03v-80.27c0-.57-.39-1.03-.87-1.03Z"/>
          <path class="cls-33" d="m593.63,241.58h-12.27V92.95c0-.49-.31-.84-.7-.95v-30.93c0-.38-.19-.71-.49-.85l-43.38-20.74s-.08.03-.12.02c-.06-.01-.1-.08-.17-.08L82.55,23.76c-.07,0-15.98,3.82-16.04,3.83-.04.01-17.45,2.22-17.49,2.24l-9.94,23.64c-.29.14-.49.47-.49.85l.15,38.17c0,.07.07.1.08.17-.04.15-.09.3-.06.46.05.31.26.51.5.63v147.83h-14.5c-.48,0-.87.46-.87,1.03v80.27c0,.57.39,1.03.87,1.03h6.44v279.88c0,.57.39,1.03.87,1.03h7.19v20.49c0,54.03,37.43,97.99,83.43,97.99h375.24c46.01,0,83.44-43.96,83.44-97.99v-20.49h5.72c.48,0,.87-.47.87-1.03v-279.88h5.68c.48,0,.87-.46.87-1.03v-80.27c0-.57-.39-1.03-.87-1.03Z"/>
          <path class="cls-47" d="m594.59,241.3h-12.27V92.66c0-.49-.31-.84-.7-.95v-30.93c0-.38-.19-.71-.49-.85l-43.38-20.74s-.08.03-.12.02c-.06-.01-.1-.08-.17-.08L83.5,23.47c-.07,0-15.5,3.7-15.56,3.72-.04.01-18.15,2.31-18.19,2.33l-9.73,23.39c-.29.14-.49.47-.49.85l.16,38.44c0,.07.07.1.08.17-.04.15-.09.3-.06.46.05.31.26.51.5.63v147.83h-14.5c-.48,0-.87.46-.87,1.03v80.27c0,.57.39,1.03.87,1.03h6.44v279.88c0,.57.39,1.03.87,1.03h7.19v20.49c0,54.03,37.43,97.99,83.43,97.99h375.24c46.01,0,83.44-43.96,83.44-97.99v-20.49h5.72c.48,0,.87-.47.87-1.03v-279.88h5.68c.48,0,.87-.46.87-1.03v-80.27c0-.57-.39-1.03-.87-1.03Z"/>
          <path class="cls-40" d="m595.54,241.01h-12.27V92.38c0-.49-.31-.84-.7-.95v-30.93c0-.38-.19-.71-.49-.85l-43.38-20.74s-.08.03-.12.02c-.06-.01-.1-.08-.17-.08L84.46,23.19c-.07,0-15.02,3.59-15.08,3.61-.04.01-18.85,2.4-18.89,2.42l-9.52,23.15c-.29.14-.49.47-.49.85l.16,38.71c0,.07.07.1.08.17-.04.15-.09.3-.06.46.05.31.26.51.5.63v147.83h-14.5c-.48,0-.87.46-.87,1.03v80.27c0,.57.39,1.03.87,1.03h6.44v279.88c0,.57.39,1.03.87,1.03h7.19v20.49c0,54.03,37.43,97.99,83.43,97.99h375.24c46.01,0,83.44-43.96,83.44-97.99v-20.49h5.72c.48,0,.87-.47.87-1.03v-279.88h5.68c.48,0,.87-.46.87-1.03v-80.27c0-.57-.39-1.03-.87-1.03Z"/>
          <path class="cls-73" d="m596.5,240.73h-12.27V92.1c0-.49-.31-.84-.7-.95v-30.93c0-.38-.19-.71-.49-.85l-43.38-20.74s-.08.03-.12.02c-.06-.01-.1-.08-.17-.08L85.41,22.91c-.07,0-14.54,3.48-14.6,3.49-.04.01-19.55,2.49-19.59,2.51l-9.3,22.9c-.29.14-.49.47-.49.85l.17,38.98c0,.07.07.1.08.17-.04.15-.09.3-.06.46.05.31.26.51.5.63v147.83h-14.5c-.48,0-.87.46-.87,1.03v80.27c0,.57.39,1.03.87,1.03h6.44v279.88c0,.57.39,1.03.87,1.03h7.19v20.49c0,54.03,37.43,97.99,83.43,97.99h375.24c46.01,0,83.44-43.96,83.44-97.99v-20.49h5.72c.48,0,.87-.47.87-1.03v-279.88h5.68c.48,0,.87-.46.87-1.03v-80.27c0-.57-.39-1.03-.87-1.03Z"/>
          <path class="cls-19" d="m597.45,240.45h-12.27V91.81c0-.49-.31-.84-.7-.95v-30.93c0-.38-.19-.71-.49-.85l-43.38-20.74s-.08.03-.12.02c-.06-.01-.1-.08-.17-.08L86.37,22.62c-.07,0-14.06,3.36-14.12,3.38-.04.01-20.25,2.58-20.29,2.6l-9.09,22.66c-.29.14-.49.47-.49.85l.18,39.25c0,.07.07.1.08.17-.04.15-.09.3-.06.46.05.31.26.51.5.63v147.83h-14.5c-.48,0-.87.46-.87,1.03v80.27c0,.57.39,1.03.87,1.03h6.44v279.88c0,.57.39,1.03.87,1.03h7.19v20.49c0,54.03,37.43,97.99,83.43,97.99h375.24c46.01,0,83.44-43.96,83.44-97.99v-20.49h5.72c.48,0,.87-.47.87-1.03v-279.88h5.68c.48,0,.87-.46.87-1.03v-80.27c0-.57-.4-1.03-.87-1.03Z"/>
          <path class="cls-19" d="m598.41,240.16h-12.27V91.53c0-.49-.31-.84-.7-.95v-30.93c0-.38-.19-.71-.49-.85l-43.38-20.74s-.08.03-.12.02c-.06-.01-.1-.08-.17-.08L87.32,22.34c-.07,0-13.58,3.25-13.64,3.26-.04.01-20.95,2.67-20.99,2.68l-8.88,22.41c-.29.14-.49.47-.49.85l.18,39.52c0,.07.07.1.08.17-.04.15-.09.3-.06.46.05.31.26.51.5.63v147.83h-14.5c-.48,0-.87.46-.87,1.03v80.27c0,.57.39,1.03.87,1.03h6.44v279.88c0,.57.39,1.03.87,1.03h7.19v20.49c0,54.03,37.43,97.99,83.43,97.99h375.24c46.01,0,83.44-43.96,83.44-97.99v-20.49h5.72c.48,0,.87-.47.87-1.03v-279.88h5.68c.48,0,.87-.46.87-1.03v-80.27c0-.57-.4-1.03-.87-1.03Z"/>
          <path class="cls-32" d="m599.36,239.88h-12.27V91.24c0-.49-.31-.84-.7-.95v-30.93c0-.38-.19-.71-.49-.85l-43.38-20.74s-.08.03-.12.02c-.06-.01-.1-.08-.17-.08L88.28,22.06c-.07,0-13.1,3.13-13.16,3.15-.04.01-21.65,2.75-21.69,2.77l-8.67,22.17c-.29.14-.49.47-.49.85l.19,39.79c0,.07.07.1.08.17-.04.15-.09.3-.06.46.05.31.26.51.5.63v147.83h-14.5c-.48,0-.87.46-.87,1.03v80.27c0,.57.39,1.03.87,1.03h6.44v279.88c0,.57.39,1.03.87,1.03h7.19v20.49c0,54.03,37.43,97.99,83.43,97.99h375.24c46.01,0,83.44-43.96,83.44-97.99v-20.49h5.72c.48,0,.87-.46.87-1.03v-279.88h5.68c.48,0,.87-.46.87-1.03v-80.27c0-.57-.4-1.03-.87-1.03Z"/>
          <path class="cls-25" d="m600.32,239.6h-12.27V90.96c0-.49-.31-.84-.7-.95v-30.93c0-.38-.19-.71-.49-.85l-43.38-20.74s-.08.03-.12.02c-.06-.01-.1-.08-.17-.08L89.23,21.77c-.07,0-12.61,3.02-12.68,3.04-.04.01-22.34,2.84-22.39,2.86l-8.45,21.92c-.29.14-.49.47-.49.85l.2,40.06c0,.07.07.1.08.17-.04.15-.09.3-.06.46.05.31.26.51.5.63v147.83h-14.5c-.48,0-.87.46-.87,1.03v80.27c0,.57.39,1.03.87,1.03h6.44v279.88c0,.57.39,1.03.87,1.03h7.19v20.49c0,54.03,37.43,97.99,83.43,97.99h375.24c46.01,0,83.44-43.96,83.44-97.99v-20.49h5.72c.48,0,.87-.46.87-1.03v-279.88h5.68c.48,0,.87-.46.87-1.03v-80.27c0-.57-.4-1.03-.87-1.03Z"/>
          <path class="cls-76" d="m601.27,239.31h-12.27V90.68c0-.49-.31-.84-.7-.95v-30.93c0-.38-.19-.71-.49-.85l-43.38-20.74s-.08.03-.12.02c-.06-.01-.1-.08-.17-.08L90.19,21.49c-.07,0-12.13,2.91-12.2,2.92-.04.01-23.04,2.93-23.09,2.95l-8.24,21.68c-.29.14-.49.47-.49.85l.2,40.33c0,.07.07.1.08.17-.04.15-.09.3-.06.46.05.31.26.51.5.63v147.83h-14.5c-.48,0-.87.46-.87,1.03v80.27c0,.57.39,1.03.87,1.03h6.44v279.88c0,.57.39,1.03.87,1.03h7.19v20.49c0,54.03,37.43,97.99,83.43,97.99h375.24c46.01,0,83.44-43.96,83.44-97.99v-20.49h5.72c.48,0,.87-.46.87-1.03v-279.88h5.68c.48,0,.87-.46.87-1.03v-80.27c0-.57-.4-1.03-.87-1.03Z"/>
          <path class="cls-28" d="m602.23,239.03h-12.27V90.39c0-.49-.31-.84-.7-.95v-30.93c0-.38-.19-.71-.49-.85l-43.38-20.74s-.08.03-.12.02c-.06-.01-.1-.08-.17-.08L91.14,21.21c-.07,0-11.65,2.79-11.72,2.81-.04.01-23.74,3.02-23.79,3.04l-8.03,21.43c-.29.14-.49.47-.49.85l.21,40.6c0,.07.07.1.08.17-.04.15-.09.3-.06.46.05.31.26.51.5.63v147.83h-14.5c-.48,0-.87.46-.87,1.03v80.27c0,.57.39,1.03.87,1.03h6.44v279.88c0,.57.39,1.03.87,1.03h7.19v20.49c0,54.03,37.43,97.99,83.43,97.99h375.24c46.01,0,83.44-43.96,83.44-97.99v-20.49h5.72c.48,0,.87-.46.87-1.03v-279.88h5.68c.48,0,.87-.46.87-1.03v-80.27c0-.57-.4-1.03-.87-1.03Z"/>
          <path class="cls-1" d="m603.18,238.75h-12.27V90.11c0-.49-.31-.84-.7-.95v-30.93c0-.38-.19-.71-.49-.85l-43.38-20.74s-.08.03-.12.02c-.06-.01-.1-.08-.17-.08L92.1,20.92c-.07,0-11.17,2.68-11.23,2.7-.04.01-24.44,3.11-24.48,3.13l-7.82,21.18c-.29.14-.49.47-.49.85l.21,40.87c0,.07.07.1.08.17-.04.15-.09.3-.06.46.05.31.26.51.5.63v147.83h-14.5c-.48,0-.87.46-.87,1.03v80.27c0,.57.39,1.03.87,1.03h6.44v279.88c0,.57.39,1.03.87,1.03h7.19v20.49c0,54.03,37.43,97.99,83.43,97.99h375.24c46.01,0,83.44-43.96,83.44-97.99v-20.49h5.72c.48,0,.88-.46.88-1.03v-279.88h5.68c.48,0,.88-.46.88-1.03v-80.27c0-.57-.4-1.03-.88-1.03Z"/>
          <path class="cls-52" d="m604.14,238.46h-12.27V89.83c0-.49-.31-.84-.7-.95v-30.93c0-.38-.19-.71-.49-.85l-43.38-20.74s-.08.03-.12.02c-.06-.01-.1-.08-.17-.08L93.05,20.64c-.07,0-10.69,2.56-10.75,2.58-.04.01-25.14,3.2-25.18,3.22l-7.6,20.94c-.29.14-.49.47-.49.85l.22,41.14c0,.07.07.1.08.17-.04.15-.09.3-.06.46.05.32.26.51.5.63v147.83h-14.5c-.48,0-.87.46-.87,1.03v80.27c0,.57.39,1.03.87,1.03h6.44v279.88c0,.57.39,1.03.87,1.03h7.19v20.49c0,54.03,37.43,97.99,83.43,97.99h375.24c46.01,0,83.44-43.96,83.44-97.99v-20.49h5.72c.48,0,.88-.46.88-1.03v-279.88h5.68c.48,0,.88-.46.88-1.03v-80.27c0-.57-.4-1.03-.88-1.03Z"/>
          <path class="cls-9" d="m605.09,238.18h-12.27V89.54c0-.49-.31-.84-.7-.95v-30.93c0-.38-.19-.71-.49-.85l-43.38-20.74s-.08.03-.12.02c-.06-.01-.1-.08-.17-.08L94.01,20.36c-.07,0-10.21,2.45-10.27,2.47-.04.01-25.84,3.29-25.88,3.31l-7.39,20.69c-.29.14-.49.47-.49.85l.23,41.41c0,.07.07.1.08.17-.04.15-.09.3-.06.46.05.32.26.51.5.63v147.83h-14.5c-.48,0-.87.46-.87,1.03v80.27c0,.57.39,1.03.87,1.03h6.44v279.88c0,.57.39,1.03.87,1.03h7.19v20.49c0,54.03,37.43,97.99,83.43,97.99h375.24c46.01,0,83.44-43.96,83.44-97.99v-20.49h5.72c.48,0,.88-.46.88-1.03v-279.88h5.68c.48,0,.88-.46.88-1.03v-80.27c0-.57-.4-1.03-.88-1.03Z"/>
          <path class="cls-36" d="m606.05,237.89h-12.27V89.26c0-.49-.31-.84-.7-.95v-30.93c0-.38-.19-.71-.49-.85l-43.38-20.74s-.08.03-.12.02c-.07-.01-.1-.08-.17-.08L94.96,20.07c-.07,0-9.73,2.34-9.79,2.35-.04.01-26.54,3.38-26.58,3.4l-7.18,20.45c-.29.14-.49.47-.49.85l.23,41.68c0,.07.07.1.08.17-.04.15-.09.3-.06.46.05.32.26.51.5.63v147.83h-14.5c-.48,0-.87.46-.87,1.03v80.27c0,.57.39,1.03.87,1.03h6.44v279.88c0,.57.39,1.03.87,1.03h7.19v20.49c0,54.03,37.43,97.99,83.43,97.99h375.24c46.01,0,83.44-43.96,83.44-97.99v-20.49h5.72c.48,0,.88-.46.88-1.03v-279.88h5.68c.48,0,.88-.46.88-1.03v-80.27c0-.57-.4-1.03-.88-1.03Z"/>
          <path class="cls-62" d="m607,237.61h-12.27V88.98c0-.49-.31-.84-.7-.95v-30.93c0-.38-.19-.71-.49-.85l-43.38-20.74s-.08.03-.12.02c-.07-.02-.1-.08-.17-.08L95.92,19.79c-.07,0-9.25,2.22-9.31,2.24-.04.01-27.24,3.47-27.28,3.49l-6.96,20.2c-.29.14-.49.47-.49.85l.24,41.95c0,.07.07.1.08.17-.04.15-.09.3-.06.46.05.32.26.51.5.63v147.83h-14.5c-.48,0-.87.46-.87,1.03v80.27c0,.57.39,1.03.87,1.03h6.44v279.88c0,.57.39,1.03.87,1.03h7.19v20.49c0,54.03,37.43,97.99,83.43,97.99h375.24c46.01,0,83.44-43.96,83.44-97.99v-20.49h5.72c.48,0,.88-.46.88-1.03v-279.88h5.68c.48,0,.88-.46.88-1.03v-80.27c0-.57-.4-1.03-.88-1.03Z"/>
          <path class="cls-17" d="m607.96,237.33h-12.27V88.69c0-.49-.31-.84-.7-.95v-30.93c0-.38-.19-.71-.49-.85l-43.38-20.74s-.08.03-.12.02c-.07-.02-.1-.08-.17-.08L96.87,19.51c-.07,0-8.77,2.11-8.83,2.13-.04.01-27.94,3.56-27.98,3.58l-6.75,19.96c-.29.14-.49.47-.49.85l.24,42.22c0,.07.07.1.08.17-.04.15-.09.3-.06.46.05.32.26.51.5.63v147.83h-14.5c-.48,0-.87.46-.87,1.03v80.27c0,.57.39,1.03.87,1.03h6.44v279.88c0,.57.39,1.03.87,1.03h7.19v20.49c0,54.03,37.43,97.99,83.43,97.99h375.24c46.01,0,83.44-43.96,83.44-97.99v-20.49h5.72c.48,0,.88-.46.88-1.03v-279.88h5.68c.48,0,.88-.46.88-1.03v-80.27c0-.57-.4-1.03-.88-1.03Z"/>
          <path class="cls-30" d="m608.91,237.04h-12.27V88.41c0-.49-.31-.84-.7-.95v-30.93c0-.38-.19-.71-.49-.85l-43.38-20.74s-.08.03-.12.02c-.07-.02-.1-.08-.17-.08L97.83,19.22c-.07,0-8.29,2-8.35,2.01-.04.01-28.64,3.65-28.68,3.67l-6.54,19.71c-.29.14-.49.47-.49.85l.25,42.49c0,.07.07.1.08.17-.04.15-.09.3-.06.46.05.32.26.51.5.63v147.83h-14.5c-.48,0-.87.46-.87,1.03v80.27c0,.57.39,1.03.87,1.03h6.44v279.88c0,.57.39,1.03.87,1.03h7.19v20.49c0,54.03,37.43,97.99,83.43,97.99h375.24c46.01,0,83.44-43.96,83.44-97.99v-20.49h5.72c.48,0,.88-.46.88-1.03v-279.88h5.68c.48,0,.88-.46.88-1.03v-80.27c0-.57-.4-1.03-.88-1.03Z"/>
          <path class="cls-23" d="m609.87,236.76h-12.27V88.13c0-.49-.31-.84-.7-.95v-30.93c0-.38-.19-.71-.49-.85l-43.38-20.74s-.08.03-.12.02c-.07-.02-.1-.08-.17-.08L98.78,18.94c-.07,0-7.81,1.88-7.87,1.9-.04.01-29.34,3.74-29.38,3.76l-6.33,19.46c-.29.14-.49.47-.49.85l.26,42.76c0,.07.07.1.08.17-.04.15-.09.3-.06.46.05.32.26.51.5.63v147.83h-14.5c-.48,0-.87.46-.87,1.03v80.27c0,.57.39,1.03.87,1.03h6.44v279.88c0,.57.39,1.03.87,1.03h7.19v20.49c0,54.03,37.43,97.99,83.43,97.99h375.24c46.01,0,83.44-43.96,83.44-97.99v-20.49h5.72c.48,0,.88-.46.88-1.03v-279.88h5.68c.48,0,.88-.46.88-1.03v-80.27c0-.57-.4-1.03-.88-1.03Z"/>
          <path class="cls-51" d="m610.82,236.48h-12.27V87.84c0-.49-.31-.84-.7-.95v-30.93c0-.38-.19-.71-.49-.85l-43.38-20.74s-.08.03-.12.02c-.07-.02-.1-.08-.17-.08L99.74,18.65c-.07,0-7.32,1.77-7.39,1.78-.04.01-30.04,3.83-30.08,3.85l-6.11,19.22c-.29.14-.49.47-.49.85l.26,43.03c0,.07.07.1.08.17-.04.15-.09.3-.06.46.05.32.26.51.5.63v147.83h-14.5c-.48,0-.87.46-.87,1.03v80.27c0,.57.39,1.03.87,1.03h6.44v279.88c0,.57.39,1.03.87,1.03h7.19v20.49c0,54.03,37.43,98,83.43,98h375.24c46.01,0,83.44-43.96,83.44-98v-20.49h5.72c.48,0,.88-.46.88-1.03v-279.88h5.68c.48,0,.88-.46.88-1.03v-80.27c0-.57-.4-1.03-.88-1.03Z"/>
          <path class="cls-35" d="m611.78,236.19h-12.27V87.56c0-.49-.31-.84-.7-.95v-30.93c0-.38-.19-.71-.49-.85l-43.38-20.74s-.08.03-.12.02c-.07-.02-.1-.08-.17-.08L100.69,18.37c-.07,0-6.84,1.65-6.91,1.67-.04.01-30.74,3.92-30.78,3.94l-5.9,18.97c-.29.14-.49.47-.49.85l.27,43.3c0,.07.07.1.08.17-.04.15-.09.3-.06.46.05.32.26.51.5.63v147.83h-14.5c-.48,0-.87.46-.87,1.03v80.27c0,.57.39,1.03.87,1.03h6.44v279.88c0,.57.39,1.03.87,1.03h7.19v20.49c0,54.03,37.43,98,83.43,98h375.24c46.01,0,83.44-43.96,83.44-98v-20.49h5.72c.48,0,.88-.46.88-1.03v-279.88h5.68c.48,0,.88-.46.88-1.03v-80.27c0-.57-.4-1.03-.88-1.03Z"/>
          <path class="cls-49" d="m612.73,235.91h-12.27V87.28c0-.49-.31-.84-.7-.95v-30.93c0-.38-.19-.71-.49-.85l-43.38-20.74s-.08.03-.12.02c-.07-.02-.1-.08-.17-.08L101.65,18.09c-.07,0-6.36,1.54-6.43,1.56-.04.01-31.44,4.01-31.48,4.03l-5.69,18.73c-.29.14-.49.47-.49.85l.27,43.57c0,.07.07.1.08.17-.04.15-.09.3-.06.46.05.32.26.51.5.63v147.83h-14.5c-.48,0-.87.46-.87,1.03v80.27c0,.57.39,1.03.87,1.03h6.44v279.88c0,.57.39,1.03.87,1.03h7.19v20.49c0,54.03,37.43,98,83.43,98h375.24c46.01,0,83.44-43.96,83.44-98v-20.49h5.72c.48,0,.88-.46.88-1.03v-279.88h5.68c.48,0,.88-.46.88-1.03v-80.27c0-.57-.4-1.03-.88-1.03Z"/>
          <path class="cls-65" d="m613.69,235.63h-12.27V86.99c0-.49-.31-.84-.7-.95v-30.93c0-.38-.2-.71-.49-.85l-43.38-20.74s-.08.03-.12.02c-.07-.02-.1-.08-.17-.08L102.6,17.8c-.07,0-5.88,1.43-5.95,1.44-.04.01-32.14,4.1-32.18,4.12l-5.48,18.48c-.29.14-.49.47-.49.85l.28,43.84c0,.07.07.1.08.17-.04.15-.09.3-.06.46.05.32.26.51.5.63v147.83h-14.5c-.48,0-.87.46-.87,1.03v80.27c0,.57.39,1.03.87,1.03h6.44v279.88c0,.57.39,1.03.87,1.03h7.19v20.49c0,54.03,37.43,98,83.43,98h375.24c46.01,0,83.44-43.96,83.44-98v-20.49h5.72c.48,0,.88-.46.88-1.03v-279.88h5.68c.48,0,.88-.46.88-1.03v-80.27c0-.57-.4-1.03-.88-1.03Z"/>
          <path class="cls-7" d="m614.64,235.34h-12.27V86.71c0-.49-.31-.84-.7-.95v-30.93c0-.38-.2-.71-.49-.85l-43.38-20.74s-.08.03-.12.02c-.07-.02-.1-.08-.17-.08L103.56,17.52c-.07,0-5.4,1.31-5.46,1.33-.04.01-32.84,4.19-32.88,4.21l-5.26,18.24c-.29.14-.49.47-.49.85l.29,44.11c0,.07.07.1.08.17-.04.15-.09.3-.06.46.05.32.26.51.5.63v147.83h-14.5c-.48,0-.87.46-.87,1.03v80.27c0,.57.39,1.03.87,1.03h6.44v279.88c0,.57.39,1.03.87,1.03h7.19v20.49c0,54.03,37.43,98,83.43,98h375.24c46.01,0,83.44-43.96,83.44-98v-20.49h5.72c.48,0,.88-.46.88-1.03v-279.88h5.68c.48,0,.88-.46.88-1.03v-80.27c0-.57-.4-1.03-.88-1.03Z"/>
          <path class="cls-68" d="m615.6,235.06h-12.27V86.43c0-.49-.31-.84-.7-.95v-30.93c0-.38-.2-.71-.49-.85l-43.38-20.74s-.08.03-.12.02c-.07-.02-.1-.08-.17-.08L104.51,17.24c-.07,0-4.92,1.2-4.98,1.22-.04.01-33.54,4.28-33.58,4.3l-5.05,17.99c-.29.14-.49.47-.49.85l.29,44.38c0,.07.07.1.08.17-.04.15-.09.3-.06.46.05.32.26.51.5.63v147.83h-14.5c-.48,0-.87.46-.87,1.03v80.27c0,.57.39,1.03.87,1.03h6.44v279.88c0,.57.39,1.03.87,1.03h7.19v20.49c0,54.03,37.43,98,83.43,98h375.24c46.01,0,83.44-43.96,83.44-98v-20.49h5.72c.48,0,.88-.46.88-1.03v-279.88h5.68c.48,0,.88-.46.88-1.03v-80.27c0-.57-.4-1.03-.88-1.03Z"/>
          <path class="cls-29" d="m616.55,234.78h-12.27V86.14c0-.49-.31-.84-.7-.95v-30.93c0-.38-.2-.71-.49-.85l-43.38-20.74s-.08.03-.12.02c-.07-.02-.1-.08-.17-.08L105.47,16.95c-.07,0-4.44,1.08-4.5,1.1-.04.01-34.24,4.37-34.28,4.39l-4.84,17.74c-.29.14-.49.47-.49.85l.3,44.65c0,.07.07.1.08.17-.04.15-.09.3-.06.46.05.32.26.51.5.63v147.83h-14.5c-.48,0-.87.46-.87,1.03v80.27c0,.57.39,1.03.87,1.03h6.44v279.88c0,.57.39,1.03.87,1.03h7.19v20.49c0,54.03,37.43,98,83.43,98h375.24c46.01,0,83.44-43.96,83.44-98v-20.49h5.72c.48,0,.88-.46.88-1.03v-279.88h5.68c.48,0,.88-.46.88-1.03v-80.27c0-.57-.4-1.03-.88-1.03Z"/>
          <path class="cls-60" d="m617.51,234.49h-12.27V85.86c0-.49-.31-.84-.7-.95v-30.93c0-.38-.2-.71-.49-.85l-43.38-20.74s-.08.03-.12.02c-.07-.02-.1-.08-.17-.08L106.42,16.67c-.07,0-3.96.97-4.02.99-.04.01-34.94,4.46-34.98,4.47l-4.63,17.5c-.29.14-.49.47-.49.85l.31,44.92c0,.07.07.1.08.17-.04.15-.09.3-.06.46.05.32.26.51.5.63v147.83h-14.5c-.48,0-.87.46-.87,1.03v80.27c0,.57.39,1.03.87,1.03h6.44v279.88c0,.57.39,1.03.87,1.03h7.19v20.49c0,54.03,37.43,98,83.43,98h375.24c46.01,0,83.44-43.96,83.44-98v-20.49h5.72c.48,0,.88-.46.88-1.03v-279.88h5.68c.48,0,.88-.46.88-1.03v-80.27c0-.57-.4-1.03-.88-1.03Z"/>
          <path class="cls-63" d="m618.46,234.21h-12.27V85.58c0-.49-.31-.84-.7-.95v-30.93c0-.38-.2-.71-.49-.85l-43.38-20.74s-.08.03-.12.02c-.07-.02-.1-.08-.17-.08L107.38,16.39c-.07,0-3.48.86-3.54.87-.04.01-35.63,4.54-35.68,4.56l-4.41,17.25c-.29.14-.49.47-.49.85l.31,45.19c0,.07.07.1.08.17-.04.15-.08.3-.06.46.05.32.26.51.5.63v147.83h-14.5c-.48,0-.87.46-.87,1.03v80.27c0,.57.39,1.03.87,1.03h6.44v279.88c0,.57.39,1.03.87,1.03h7.19v20.49c0,54.03,37.43,98,83.43,98h375.24c46.01,0,83.44-43.96,83.44-98v-20.49h5.72c.48,0,.88-.46.88-1.03v-279.88h5.68c.48,0,.88-.46.88-1.03v-80.27c0-.57-.4-1.03-.88-1.03Z"/>
          <path class="cls-54" d="m619.42,233.93h-12.27V85.29c0-.49-.31-.84-.7-.95v-30.93c0-.38-.2-.71-.49-.85l-43.38-20.74s-.08.03-.12.02c-.07-.02-.1-.08-.17-.08L108.33,16.1c-.07,0-3,.74-3.06.76-.04.01-36.33,4.63-36.38,4.65l-4.2,17.01c-.29.14-.49.47-.49.85l.32,45.46c0,.07.07.1.08.17-.04.15-.08.3-.06.46.05.32.26.51.5.63v147.83h-14.5c-.48,0-.87.46-.87,1.03v80.27c0,.57.39,1.03.87,1.03h6.44v279.88c0,.57.39,1.03.87,1.03h7.19v20.49c0,54.03,37.43,98,83.43,98h375.24c46.01,0,83.44-43.96,83.44-98v-20.49h5.72c.48,0,.88-.46.88-1.03v-279.88h5.68c.48,0,.88-.46.88-1.03v-80.27c0-.57-.4-1.03-.88-1.03Z"/>
          <path class="cls-6" d="m620.37,233.64h-12.27V85.01c0-.49-.31-.84-.7-.95v-30.93c0-.38-.2-.71-.49-.85l-43.38-20.74s-.08.03-.12.02c-.07-.02-.1-.08-.17-.08L109.29,15.82c-.07,0-2.51.63-2.58.65-.04.01-37.03,4.72-37.08,4.74l-3.99,16.76c-.29.14-.49.47-.49.85l.32,45.73c0,.07.07.1.08.17-.04.15-.08.3-.06.46.05.32.26.51.5.63v147.83h-14.5c-.48,0-.87.46-.87,1.03v80.27c0,.57.39,1.03.87,1.03h6.44v279.88c0,.57.39,1.03.87,1.03h7.19v20.49c0,54.03,37.43,98,83.43,98h375.24c46.01,0,83.44-43.96,83.44-98v-20.49h5.72c.49,0,.88-.46.88-1.03v-279.88h5.68c.48,0,.88-.46.88-1.03v-80.27c0-.57-.4-1.03-.88-1.03Z"/>
          <path class="cls-16" d="m621.33,233.36h-12.27V84.73c0-.49-.31-.84-.7-.95v-30.93c0-.38-.2-.71-.49-.85l-43.38-20.74s-.08.03-.12.02c-.07-.02-.1-.08-.17-.08L110.24,15.54c-.07,0-2.03.52-2.1.53-.04.01-37.73,4.81-37.78,4.83l-3.78,16.52c-.29.14-.49.47-.49.85l.33,46c0,.07.07.1.08.17-.04.15-.08.3-.06.46.05.32.26.51.5.63v147.83h-14.5c-.48,0-.87.46-.87,1.03v80.27c0,.57.39,1.03.87,1.03h6.44v279.88c0,.57.39,1.03.87,1.03h7.19v20.49c0,54.03,37.43,98,83.43,98h375.24c46.01,0,83.44-43.96,83.44-98v-20.49h5.72c.49,0,.88-.46.88-1.03v-279.88h5.68c.48,0,.88-.46.88-1.03v-80.27c0-.57-.4-1.03-.88-1.03Z"/>
          <path class="cls-24" d="m622.28,233.07h-12.27V84.44c0-.49-.31-.84-.7-.95v-30.93c0-.38-.2-.71-.49-.85l-43.38-20.74s-.08.03-.12.02c-.07-.02-.1-.08-.17-.08L111.2,15.25c-.07,0-1.55.4-1.62.42-.04.01-38.43,4.9-38.48,4.92l-3.56,16.27c-.29.14-.49.47-.49.85l.34,46.27c0,.07.07.1.08.17-.04.15-.08.3-.06.46.05.32.26.51.5.63v147.83h-14.5c-.48,0-.87.46-.87,1.03v80.27c0,.57.39,1.03.87,1.03h6.44v279.88c0,.57.39,1.03.87,1.03h7.19v20.49c0,54.03,37.43,98,83.43,98h375.24c46.01,0,83.44-43.96,83.44-98v-20.49h5.72c.49,0,.88-.46.88-1.03v-279.88h5.68c.48,0,.88-.46.88-1.03v-80.27c0-.57-.4-1.03-.88-1.03Z"/>
          <path class="cls-38" d="m623.24,232.79h-12.27V84.16c0-.49-.31-.84-.7-.95v-30.93c0-.38-.2-.71-.49-.85l-43.38-20.74s-.08.03-.12.02c-.07-.02-.1-.08-.17-.08L112.15,14.97c-.07,0-1.07.29-1.14.3-.04.01-39.13,4.99-39.18,5.01l-3.35,16.02c-.29.14-.49.47-.49.85l.34,46.54c0,.07.07.1.08.17-.04.15-.08.3-.06.46.05.32.26.51.5.63v147.83h-14.5c-.48,0-.87.46-.87,1.03v80.27c0,.57.39,1.03.87,1.03h6.44v279.88c0,.57.39,1.03.87,1.03h7.19v20.49c0,54.03,37.43,98,83.43,98h375.24c46.01,0,83.44-43.96,83.44-98v-20.49h5.72c.49,0,.88-.46.88-1.03v-279.88h5.68c.48,0,.88-.46.88-1.03v-80.27c0-.57-.4-1.03-.88-1.03Z"/>
          <path class="cls-27" d="m624.19,232.51h-12.27V83.88c0-.49-.31-.84-.7-.95v-30.93c0-.38-.2-.71-.49-.85l-43.38-20.74s-.08.03-.12.02c-.07-.02-.1-.08-.17-.08L113.11,14.69c-.07,0-.59.17-.66.19-.04.01-39.83,5.08-39.87,5.1l-3.14,15.78c-.29.14-.49.47-.49.85l.35,46.81c0,.07.07.1.08.17-.04.15-.08.3-.06.46.05.32.26.51.5.63v147.83h-14.5c-.48,0-.87.46-.87,1.03v80.27c0,.57.39,1.03.87,1.03h6.44v279.88c0,.57.39,1.03.87,1.03h7.19v20.49c0,54.03,37.43,98,83.43,98h375.24c46.01,0,83.44-43.96,83.44-98v-20.49h5.72c.49,0,.88-.46.88-1.03v-279.88h5.68c.48,0,.88-.46.88-1.03v-80.27c0-.57-.4-1.03-.88-1.03Z"/>
          <path class="cls-66" d="m625.15,232.22h-12.27V83.59c0-.49-.31-.84-.7-.95v-30.93c0-.38-.2-.71-.49-.85l-43.38-20.74s-.08.03-.12.02c-.07-.02-.1-.08-.17-.08L114.06,14.4c-.07,0-.11.06-.17.08-.04.01-40.53,5.17-40.57,5.19l-2.93,15.53c-.29.14-.49.47-.49.85l.35,47.08c0,.07.07.1.08.17-.04.15-.08.3-.06.46.05.31.26.51.5.63v147.83h-14.5c-.48,0-.87.46-.87,1.03v80.27c0,.57.39,1.03.87,1.03h6.44v279.88c0,.57.39,1.03.87,1.03h7.19v20.49c0,54.03,37.43,98,83.43,98h375.24c46.01,0,83.44-43.96,83.44-98v-20.49h5.72c.49,0,.88-.46.88-1.03v-279.88h5.68c.48,0,.88-.46.88-1.03v-80.27c0-.57-.4-1.03-.88-1.03Z"/>
        </g>
        <path class="cls-43" d="m612.13,23.98c-1.21-12.77-121.69-23.1-270.18-23.1S72.99,11.2,71.78,23.98l-.06,13.36v23.48h540.46v-23.48l-.05-13.36Z"/>
        <path class="cls-42" d="m612.18,60.81c0,12.86-120.99,23.29-270.23,23.29s-270.23-10.43-270.23-23.29,120.99-23.28,270.23-23.28,270.23,10.43,270.23,23.28Z"/>
        <path class="cls-13" d="m612.87,23.87c-1.42-14.94-138.86-23.87-270.92-23.87S72.45,8.93,71.03,23.97l-.06,36.84c0,15.13,137.78,24.17,270.98,24.17s270.98-9.04,270.98-24.17v-23.48l-.07-13.45Z"/>
        <path class="cls-59" d="m611.48,61.27v553.77c0,53.54-36.97,96.96-82.57,96.96H153.68c-45.59,0-82.55-43.42-82.55-96.96V61.27h540.36Z"/>
        <path class="cls-44" d="m612.08,61.27v553.77c0,53.54-36.97,96.96-82.57,96.96H154.28c-45.6,0-82.56-43.42-82.56-96.96V61.27h540.36Z"/>
        <rect class="cls-11" x="72.33" y="62.07" width="538.79" height="96.22"/>
        <g class="cls-15">
          <path class="cls-36" d="m611.12,62.07v553.09c0,53.47-36.86,96.84-82.33,96.84H154.64c-45.46,0-82.31-43.37-82.31-96.84V62.07h538.79Z"/>
          <path class="cls-1" d="m609.56,66.12v547.85c0,52.97-36.65,95.93-81.85,95.93H155.73c-45.2,0-81.84-42.96-81.84-95.93V66.12h535.67Z"/>
          <path class="cls-25" d="m608,70.17v542.61c0,52.46-36.43,95.01-81.37,95.01H156.81c-44.93,0-81.36-42.55-81.36-95.01V70.17h532.55Z"/>
          <path class="cls-73" d="m606.44,74.23v537.37c0,51.96-36.22,94.1-80.9,94.1H157.89c-44.67,0-80.88-42.14-80.88-94.1V74.23h529.43Z"/>
          <path class="cls-47" d="m604.88,78.28v532.13c0,51.45-36.01,93.18-80.42,93.18H158.97c-44.41,0-80.4-41.73-80.4-93.18V78.28h526.31Z"/>
          <path class="cls-53" d="m603.32,82.33v526.89c0,50.95-35.79,92.27-79.94,92.27H160.06c-44.14,0-79.93-41.32-79.93-92.27V82.33h523.19Z"/>
          <path class="cls-50" d="m601.75,86.38v521.65c0,50.44-35.58,91.35-79.47,91.35H161.14c-43.88,0-79.45-40.91-79.45-91.35V86.38h520.06Z"/>
          <path class="cls-67" d="m600.19,90.44v516.4c0,49.94-35.36,90.44-78.99,90.44H162.22c-43.62,0-78.97-40.5-78.97-90.44V90.44h516.94Z"/>
          <path class="cls-58" d="m598.63,94.49v511.16c0,49.43-35.15,89.53-78.51,89.53H163.31c-43.35,0-78.5-40.09-78.5-89.53V94.49h513.82Z"/>
          <path class="cls-4" d="m597.07,98.54v505.92c0,48.93-34.94,88.61-78.04,88.61H164.39c-43.09,0-78.02-39.68-78.02-88.61V98.54h510.7Z"/>
          <path class="cls-18" d="m595.51,102.6v500.68c0,48.42-34.72,87.7-77.56,87.7H165.47c-42.83,0-77.54-39.28-77.54-87.7V102.6h507.58Z"/>
          <path class="cls-46" d="m593.95,106.65v495.44c0,47.92-34.51,86.78-77.08,86.78H166.56c-42.56,0-77.06-38.87-77.06-86.78V106.65h504.46Z"/>
          <path class="cls-74" d="m592.39,110.7v490.2c0,47.41-34.3,85.87-76.61,85.87H167.64c-42.3,0-76.59-38.46-76.59-85.87V110.7h501.34Z"/>
          <path class="cls-5" d="m590.83,114.76v484.96c0,46.91-34.08,84.95-76.13,84.95H168.72c-42.03,0-76.11-38.05-76.11-84.95V114.76h498.22Z"/>
        </g>
        <path class="cls-10" d="m612.09,60.27H71.72c-.46,0-.84.44-.84.99v553.78c0,54.01,37.41,97.95,83.39,97.95h375.24c45.99,0,83.4-43.94,83.4-97.95V61.26c0-.55-.38-.99-.84-.99Z"/>
        <g>
          <rect class="cls-48" x="63.04" y="268.63" width="554.4" height="324.88"/>
          <g class="cls-15">
            <rect class="cls-36" x="64.28" y="268.63" width="554.39" height="324.88"/>
            <rect class="cls-1" x="67.21" y="269.37" width="549.86" height="322.46"/>
            <rect class="cls-25" x="70.13" y="270.11" width="545.33" height="320.03"/>
            <rect class="cls-73" x="73.06" y="270.85" width="540.8" height="317.61"/>
            <rect class="cls-47" x="75.98" y="271.58" width="536.27" height="315.19"/>
            <rect class="cls-53" x="78.91" y="272.32" width="531.74" height="312.77"/>
            <rect class="cls-50" x="81.83" y="273.06" width="527.21" height="310.35"/>
            <rect class="cls-67" x="84.76" y="273.8" width="522.68" height="307.93"/>
            <rect class="cls-58" x="87.68" y="274.53" width="518.15" height="305.51"/>
            <rect class="cls-4" x="90.61" y="275.27" width="513.62" height="303.09"/>
            <rect class="cls-18" x="93.53" y="276.01" width="509.09" height="300.66"/>
            <rect class="cls-46" x="96.46" y="276.75" width="504.56" height="298.24"/>
            <rect class="cls-74" x="99.38" y="277.48" width="500.03" height="295.82"/>
            <rect class="cls-5" x="102.31" y="278.22" width="495.5" height="293.4"/>
          </g>
          <rect class="cls-44" x="63.66" y="268.63" width="555.01" height="324.88"/>
        </g>
        <g>
          <rect class="cls-21" x="55.72" y="232.33" width="568.24" height="80.28"/>
          <g class="cls-15">
            <rect class="cls-36" x="56.99" y="232.33" width="568.24" height="80.28"/>
            <rect class="cls-1" x="59.98" y="233.07" width="563.6" height="77.85"/>
            <rect class="cls-25" x="62.98" y="233.81" width="558.96" height="75.43"/>
            <rect class="cls-73" x="65.98" y="234.55" width="554.31" height="73.01"/>
            <rect class="cls-47" x="68.98" y="235.28" width="549.67" height="70.59"/>
            <rect class="cls-53" x="71.98" y="236.02" width="545.02" height="68.17"/>
            <rect class="cls-50" x="74.97" y="236.76" width="540.38" height="65.75"/>
            <rect class="cls-67" x="77.97" y="237.49" width="535.73" height="63.33"/>
            <rect class="cls-58" x="80.97" y="238.23" width="531.09" height="60.91"/>
            <rect class="cls-4" x="83.97" y="238.97" width="526.45" height="58.48"/>
            <rect class="cls-18" x="86.97" y="239.71" width="521.8" height="56.06"/>
            <rect class="cls-46" x="89.97" y="240.44" width="517.16" height="53.64"/>
            <rect class="cls-74" x="92.96" y="241.18" width="512.51" height="51.22"/>
            <rect class="cls-5" x="95.96" y="241.92" width="507.87" height="48.8"/>
          </g>
          <polyline class="cls-44" points="63.75 312.61 56.35 312.61 56.35 232.33 625.23 232.33 625.23 312.61 617.94 312.61"/>
        </g>
        <g class="cls-15">
          <path class="cls-5" d="m111.91,140.6c0,16.06,12.34,29.08,27.55,29.08h149.32c15.22,0,27.55-13.02,27.55-29.08v-49.45c0-16.07-12.34-29.08-27.55-29.08h-149.32c-15.22,0-27.55,13.01-27.55,29.08v49.45Z"/>
          <path class="cls-71" d="m112.43,140.33c0,16.06,12.34,29.08,27.55,29.08h149.32c15.22,0,27.55-13.02,27.55-29.08v-49.45c0-16.07-12.34-29.08-27.55-29.08h-149.32c-15.22,0-27.55,13.01-27.55,29.08v49.45Z"/>
          <path class="cls-39" d="m112.96,140.06c0,16.06,12.34,29.08,27.55,29.08h149.32c15.22,0,27.55-13.02,27.55-29.08v-49.45c0-16.07-12.34-29.08-27.55-29.08h-149.32c-15.22,0-27.55,13.01-27.55,29.08v49.45Z"/>
          <path class="cls-74" d="m113.48,139.78c0,16.06,12.34,29.08,27.55,29.08h149.32c15.22,0,27.55-13.02,27.55-29.08v-49.45c0-16.07-12.34-29.08-27.55-29.08h-149.32c-15.22,0-27.55,13.01-27.55,29.08v49.45Z"/>
          <path class="cls-45" d="m114,139.51c0,16.06,12.34,29.08,27.55,29.08h149.32c15.22,0,27.55-13.02,27.55-29.08v-49.45c0-16.07-12.34-29.08-27.55-29.08h-149.32c-15.22,0-27.55,13.01-27.55,29.08v49.45Z"/>
          <path class="cls-8" d="m114.53,139.23c0,16.06,12.34,29.08,27.55,29.08h149.32c15.22,0,27.55-13.02,27.55-29.08v-49.45c0-16.07-12.34-29.08-27.55-29.08h-149.32c-15.22,0-27.55,13.01-27.55,29.08v49.45Z"/>
          <path class="cls-46" d="m115.05,138.96c0,16.06,12.34,29.08,27.55,29.08h149.32c15.22,0,27.55-13.02,27.55-29.08v-49.45c0-16.07-12.34-29.08-27.55-29.08h-149.32c-15.22,0-27.55,13.01-27.55,29.08v49.45Z"/>
          <path class="cls-64" d="m115.57,138.69c0,16.06,12.34,29.08,27.55,29.08h149.32c15.22,0,27.55-13.02,27.55-29.08v-49.45c0-16.07-12.34-29.08-27.55-29.08h-149.32c-15.22,0-27.55,13.01-27.55,29.08v49.45Z"/>
          <path class="cls-55" d="m116.1,138.41c0,16.06,12.34,29.08,27.55,29.08h149.32c15.22,0,27.55-13.02,27.55-29.08v-49.45c0-16.07-12.34-29.08-27.55-29.08h-149.32c-15.22,0-27.55,13.01-27.55,29.08v49.45Z"/>
          <path class="cls-18" d="m116.62,138.14c0,16.06,12.34,29.08,27.55,29.08h149.32c15.22,0,27.55-13.02,27.55-29.08v-49.45c0-16.07-12.34-29.08-27.55-29.08h-149.32c-15.22,0-27.55,13.01-27.55,29.08v49.45Z"/>
          <path class="cls-20" d="m117.14,137.86c0,16.06,12.34,29.08,27.55,29.08h149.32c15.22,0,27.55-13.02,27.55-29.08v-49.45c0-16.07-12.34-29.08-27.55-29.08h-149.32c-15.22,0-27.55,13.01-27.55,29.08v49.45Z"/>
          <path class="cls-4" d="m117.67,137.59c0,16.06,12.34,29.08,27.55,29.08h149.32c15.22,0,27.55-13.02,27.55-29.08v-49.45c0-16.07-12.34-29.08-27.55-29.08h-149.32c-15.22,0-27.55,13.01-27.55,29.08v49.45Z"/>
          <path class="cls-61" d="m118.19,137.32c0,16.06,12.34,29.08,27.55,29.08h149.32c15.22,0,27.55-13.02,27.55-29.08v-49.45c0-16.07-12.34-29.08-27.55-29.08h-149.32c-15.22,0-27.55,13.01-27.55,29.08v49.45Z"/>
          <path class="cls-70" d="m118.71,137.04c0,16.06,12.34,29.08,27.55,29.08h149.32c15.22,0,27.55-13.02,27.55-29.08v-49.45c0-16.07-12.34-29.08-27.55-29.08h-149.32c-15.22,0-27.55,13.01-27.55,29.08v49.45Z"/>
          <path class="cls-58" d="m119.24,136.77c0,16.06,12.34,29.08,27.55,29.08h149.32c15.22,0,27.55-13.02,27.55-29.08v-49.45c0-16.07-12.34-29.08-27.55-29.08h-149.32c-15.22,0-27.55,13.01-27.55,29.08v49.45Z"/>
          <path class="cls-3" d="m119.76,136.49c0,16.06,12.34,29.08,27.55,29.08h149.32c15.22,0,27.55-13.02,27.55-29.08v-49.45c0-16.07-12.34-29.08-27.55-29.08h-149.32c-15.22,0-27.55,13.01-27.55,29.08v49.45Z"/>
          <path class="cls-56" d="m120.28,136.22c0,16.06,12.34,29.08,27.55,29.08h149.32c15.22,0,27.55-13.02,27.55-29.08v-49.45c0-16.07-12.34-29.08-27.55-29.08h-149.32c-15.22,0-27.55,13.01-27.55,29.08v49.45Z"/>
          <path class="cls-67" d="m120.81,135.95c0,16.06,12.34,29.08,27.55,29.08h149.32c15.22,0,27.55-13.02,27.55-29.08v-49.45c0-16.07-12.34-29.08-27.55-29.08h-149.32c-15.22,0-27.55,13.01-27.55,29.08v49.45Z"/>
          <path class="cls-75" d="m121.33,135.67c0,16.06,12.34,29.08,27.55,29.08h149.32c15.22,0,27.55-13.02,27.55-29.08v-49.45c0-16.07-12.34-29.08-27.55-29.08h-149.32c-15.22,0-27.55,13.01-27.55,29.08v49.45Z"/>
          <path class="cls-75" d="m121.85,135.4c0,16.06,12.34,29.08,27.55,29.08h149.32c15.22,0,27.55-13.02,27.55-29.08v-49.45c0-16.07-12.34-29.08-27.55-29.08h-149.32c-15.22,0-27.55,13.01-27.55,29.08v49.45Z"/>
          <path class="cls-69" d="m122.38,135.12c0,16.06,12.34,29.08,27.55,29.08h149.32c15.22,0,27.55-13.02,27.55-29.08v-49.45c0-16.07-12.34-29.08-27.55-29.08h-149.32c-15.22,0-27.55,13.01-27.55,29.08v49.45Z"/>
          <path class="cls-50" d="m122.9,134.85c0,16.06,12.34,29.08,27.55,29.08h149.32c15.22,0,27.55-13.02,27.55-29.08v-49.45c0-16.07-12.34-29.08-27.55-29.08h-149.32c-15.22,0-27.55,13.02-27.55,29.08v49.45Z"/>
          <path class="cls-37" d="m123.42,134.58c0,16.06,12.34,29.08,27.55,29.08h149.32c15.22,0,27.55-13.02,27.55-29.08v-49.45c0-16.07-12.34-29.08-27.55-29.08h-149.32c-15.22,0-27.55,13.02-27.55,29.08v49.45Z"/>
          <path class="cls-2" d="m123.95,134.3c0,16.06,12.34,29.08,27.55,29.08h149.32c15.22,0,27.55-13.02,27.55-29.08v-49.45c0-16.07-12.34-29.08-27.55-29.08h-149.32c-15.22,0-27.55,13.02-27.55,29.08v49.45Z"/>
          <path class="cls-53" d="m124.47,134.03c0,16.06,12.34,29.08,27.55,29.08h149.32c15.22,0,27.55-13.02,27.55-29.08v-49.45c0-16.07-12.34-29.08-27.55-29.08h-149.32c-15.22,0-27.55,13.02-27.55,29.08v49.45Z"/>
          <path class="cls-34" d="m124.99,133.75c0,16.06,12.34,29.08,27.55,29.08h149.32c15.22,0,27.55-13.02,27.55-29.08v-49.45c0-16.07-12.34-29.08-27.55-29.08h-149.32c-15.22,0-27.55,13.02-27.55,29.08v49.45Z"/>
          <path class="cls-33" d="m125.52,133.48c0,16.06,12.34,29.08,27.55,29.08h149.32c15.22,0,27.55-13.02,27.55-29.08v-49.45c0-16.07-12.34-29.08-27.55-29.08h-149.32c-15.22,0-27.55,13.02-27.55,29.08v49.45Z"/>
          <path class="cls-47" d="m126.04,133.21c0,16.06,12.34,29.08,27.55,29.08h149.32c15.22,0,27.55-13.02,27.55-29.08v-49.45c0-16.07-12.34-29.08-27.55-29.08h-149.32c-15.22,0-27.55,13.02-27.55,29.08v49.45Z"/>
          <path class="cls-40" d="m126.56,132.93c0,16.06,12.34,29.08,27.55,29.08h149.32c15.22,0,27.55-13.02,27.55-29.08v-49.45c0-16.07-12.34-29.08-27.55-29.08h-149.32c-15.22,0-27.55,13.02-27.55,29.08v49.45Z"/>
          <path class="cls-73" d="m127.09,132.66c0,16.06,12.34,29.08,27.55,29.08h149.32c15.22,0,27.55-13.02,27.55-29.08v-49.45c0-16.07-12.34-29.08-27.55-29.08h-149.32c-15.22,0-27.55,13.02-27.55,29.08v49.45Z"/>
          <path class="cls-19" d="m127.61,132.38c0,16.06,12.34,29.08,27.55,29.08h149.32c15.22,0,27.55-13.02,27.55-29.08v-49.45c0-16.07-12.34-29.08-27.55-29.08h-149.32c-15.22,0-27.55,13.02-27.55,29.08v49.45Z"/>
          <path class="cls-32" d="m128.13,132.11c0,16.06,12.34,29.08,27.55,29.08h149.32c15.22,0,27.55-13.02,27.55-29.08v-49.45c0-16.07-12.34-29.08-27.55-29.08h-149.32c-15.22,0-27.55,13.02-27.55,29.08v49.45Z"/>
          <path class="cls-25" d="m128.66,131.84c0,16.06,12.34,29.08,27.55,29.08h149.32c15.22,0,27.55-13.02,27.55-29.08v-49.45c0-16.07-12.34-29.08-27.55-29.08h-149.32c-15.22,0-27.55,13.02-27.55,29.08v49.45Z"/>
          <path class="cls-76" d="m129.18,131.56c0,16.06,12.34,29.08,27.55,29.08h149.32c15.22,0,27.55-13.02,27.55-29.08v-49.45c0-16.07-12.34-29.08-27.55-29.08h-149.32c-15.22,0-27.55,13.02-27.55,29.08v49.45Z"/>
          <path class="cls-28" d="m129.7,131.29c0,16.06,12.34,29.08,27.55,29.08h149.32c15.22,0,27.55-13.02,27.55-29.08v-49.45c0-16.07-12.34-29.08-27.55-29.08h-149.32c-15.22,0-27.55,13.02-27.55,29.08v49.45Z"/>
          <path class="cls-1" d="m130.23,131.01c0,16.06,12.34,29.08,27.55,29.08h149.32c15.22,0,27.55-13.02,27.55-29.08v-49.45c0-16.07-12.34-29.08-27.55-29.08h-149.32c-15.22,0-27.55,13.02-27.55,29.08v49.45Z"/>
          <path class="cls-52" d="m130.75,130.74c0,16.06,12.34,29.08,27.55,29.08h149.32c15.22,0,27.55-13.02,27.55-29.08v-49.45c0-16.07-12.34-29.08-27.55-29.08h-149.32c-15.22,0-27.55,13.02-27.55,29.08v49.45Z"/>
          <path class="cls-9" d="m131.27,130.47c0,16.06,12.34,29.08,27.55,29.08h149.32c15.22,0,27.55-13.02,27.55-29.08v-49.45c0-16.07-12.34-29.08-27.55-29.08h-149.32c-15.22,0-27.55,13.02-27.55,29.08v49.45Z"/>
          <path class="cls-36" d="m131.8,130.19c0,16.06,12.34,29.08,27.55,29.08h149.32c15.22,0,27.55-13.02,27.55-29.08v-49.45c0-16.07-12.34-29.08-27.55-29.08h-149.32c-15.22,0-27.55,13.02-27.55,29.08v49.45Z"/>
        </g>
        <rect class="cls-14" x="63.04" y="312.61" width="555.64" height="64.2"/>
        <rect class="cls-12" x="71.12" y="594.48" width="540.36" height="88.59"/>
        <g>
          <path class="cls-57" d="m131.8,129.2c0,16.05,12.34,29.08,27.55,29.08h149.32c15.22,0,27.55-13.02,27.55-29.08v-49.45c0-16.07-12.34-29.08-27.55-29.08h-149.32c-15.22,0-27.55,13.01-27.55,29.08v49.45Z"/>
          <g class="cls-15">
            <path class="cls-36" d="m131.8,129.2c0,16.05,12.34,29.08,27.55,29.08h149.32c15.22,0,27.55-13.02,27.55-29.08v-49.45c0-16.07-12.34-29.08-27.55-29.08h-149.32c-15.22,0-27.55,13.01-27.55,29.08v49.45Z"/>
            <path class="cls-1" d="m132.6,125.51c0,15.94,12.37,28.87,27.63,28.87h147.56c15.26,0,27.63-12.93,27.63-28.87v-45.65c0-15.96-12.37-28.87-27.63-28.87h-147.56c-15.26,0-27.63,12.92-27.63,28.87v45.65Z"/>
            <path class="cls-25" d="m133.4,121.82c0,15.82,12.41,28.66,27.71,28.66h145.79c15.3,0,27.71-12.84,27.71-28.66v-41.85c0-15.84-12.41-28.66-27.71-28.66h-145.79c-15.3,0-27.71,12.82-27.71,28.66v41.85Z"/>
            <path class="cls-73" d="m134.2,118.12c0,15.71,12.44,28.45,27.79,28.45h144.03c15.35,0,27.79-12.74,27.79-28.45v-38.04c0-15.72-12.44-28.45-27.79-28.45h-144.03c-15.35,0-27.79,12.73-27.79,28.45v38.04Z"/>
            <path class="cls-47" d="m135,114.43c0,15.59,12.48,28.24,27.87,28.24h142.27c15.39,0,27.87-12.65,27.87-28.24v-34.24c0-15.61-12.48-28.24-27.87-28.24h-142.27c-15.39,0-27.87,12.64-27.87,28.24v34.24Z"/>
            <path class="cls-53" d="m135.81,110.73c0,15.48,12.51,28.03,27.95,28.03h140.51c15.44,0,27.95-12.55,27.95-28.03v-30.43c0-15.49-12.52-28.03-27.95-28.03h-140.51c-15.44,0-27.95,12.54-27.95,28.03v30.43Z"/>
            <path class="cls-50" d="m136.61,107.04c0,15.36,12.55,27.82,28.03,27.82h138.74c15.48,0,28.03-12.46,28.03-27.82v-26.63c0-15.38-12.55-27.82-28.03-27.82h-138.74c-15.48,0-28.03,12.45-28.03,27.82v26.63Z"/>
            <path class="cls-67" d="m137.41,103.35c0,15.24,12.58,27.61,28.11,27.61h136.98c15.52,0,28.11-12.36,28.11-27.61v-22.82c0-15.26-12.59-27.62-28.11-27.62h-136.98c-15.52,0-28.11,12.36-28.11,27.62v22.82Z"/>
            <path class="cls-58" d="m138.21,99.65c0,15.13,12.62,27.4,28.19,27.4h135.22c15.57,0,28.19-12.27,28.19-27.4v-19.02c0-15.14-12.63-27.41-28.19-27.41h-135.22c-15.57,0-28.19,12.26-28.19,27.41v19.02Z"/>
            <path class="cls-4" d="m139.01,95.96c0,15.01,12.66,27.19,28.27,27.19h133.45c15.61,0,28.27-12.18,28.27-27.19v-15.22c0-15.03-12.66-27.2-28.27-27.2h-133.45c-15.61,0-28.27,12.17-28.27,27.2v15.22Z"/>
            <path class="cls-18" d="m139.81,92.26c0,14.9,12.69,26.98,28.34,26.98h131.69c15.65,0,28.35-12.08,28.35-26.98v-11.41c0-14.91-12.7-26.99-28.35-26.99h-131.69c-15.65,0-28.34,12.07-28.34,26.99v11.41Z"/>
            <path class="cls-46" d="m140.62,88.57c0,14.78,12.73,26.77,28.42,26.77h129.93c15.7,0,28.43-11.99,28.43-26.77v-7.61c0-14.8-12.74-26.78-28.43-26.78h-129.93c-15.7,0-28.42,11.98-28.42,26.78v7.61Z"/>
            <path class="cls-74" d="m141.42,84.87c0,14.67,12.76,26.56,28.5,26.56h128.17c15.74,0,28.51-11.89,28.51-26.56v-3.8c0-14.68-12.77-26.57-28.51-26.57h-128.17c-15.74,0-28.5,11.89-28.5,26.57v3.8Z"/>
            <path class="cls-5" d="m142.22,81.18c0,14.55,12.8,26.35,28.58,26.35h126.4c15.78,0,28.59-11.8,28.59-26.35h0c0-14.56-12.81-26.36-28.59-26.36h-126.4c-15.78,0-28.58,11.79-28.58,26.36h0Z"/>
          </g>
          <path class="cls-41" d="m131.8,129.2c0,16.05,12.34,29.08,27.55,29.08h149.32c15.22,0,27.55-13.02,27.55-29.08v-49.45c0-16.07-12.34-29.08-27.55-29.08h-149.32c-15.22,0-27.55,13.01-27.55,29.08v49.45Z"/>
        </g>
        <g class="cls-15">
          <path class="cls-5" d="m150.1,200.86c0,10.77,8.27,19.49,18.47,19.49h100.08c10.2,0,18.46-8.73,18.46-19.49v-33.14c0-10.77-8.27-19.49-18.46-19.49h-100.08c-10.2,0-18.47,8.72-18.47,19.49v33.14Z"/>
          <path class="cls-71" d="m150.45,200.68c0,10.77,8.27,19.49,18.47,19.49h100.08c10.2,0,18.46-8.73,18.46-19.49v-33.14c0-10.77-8.27-19.49-18.46-19.49h-100.08c-10.2,0-18.47,8.72-18.47,19.49v33.14Z"/>
          <path class="cls-39" d="m150.8,200.5c0,10.77,8.27,19.49,18.47,19.49h100.08c10.2,0,18.46-8.73,18.46-19.49v-33.14c0-10.77-8.27-19.49-18.46-19.49h-100.08c-10.2,0-18.47,8.72-18.47,19.49v33.14Z"/>
          <path class="cls-74" d="m151.15,200.31c0,10.77,8.27,19.49,18.47,19.49h100.08c10.2,0,18.46-8.73,18.46-19.49v-33.14c0-10.77-8.27-19.49-18.46-19.49h-100.08c-10.2,0-18.47,8.72-18.47,19.49v33.14Z"/>
          <path class="cls-45" d="m151.5,200.13c0,10.77,8.27,19.49,18.47,19.49h100.08c10.2,0,18.46-8.73,18.46-19.49v-33.14c0-10.77-8.27-19.49-18.46-19.49h-100.08c-10.2,0-18.47,8.72-18.47,19.49v33.14Z"/>
          <path class="cls-8" d="m151.85,199.94c0,10.77,8.27,19.49,18.47,19.49h100.08c10.2,0,18.46-8.73,18.46-19.49v-33.14c0-10.77-8.27-19.49-18.46-19.49h-100.08c-10.2,0-18.47,8.72-18.47,19.49v33.14Z"/>
          <path class="cls-46" d="m152.2,199.76c0,10.77,8.27,19.49,18.47,19.49h100.08c10.2,0,18.46-8.73,18.46-19.49v-33.14c0-10.77-8.27-19.49-18.46-19.49h-100.08c-10.2,0-18.47,8.72-18.47,19.49v33.14Z"/>
          <path class="cls-64" d="m152.55,199.58c0,10.77,8.27,19.49,18.47,19.49h100.08c10.2,0,18.46-8.73,18.46-19.49v-33.14c0-10.77-8.27-19.49-18.46-19.49h-100.08c-10.21,0-18.47,8.72-18.47,19.49v33.14Z"/>
          <path class="cls-55" d="m152.9,199.39c0,10.77,8.27,19.49,18.47,19.49h100.08c10.2,0,18.46-8.73,18.46-19.49v-33.14c0-10.77-8.27-19.49-18.46-19.49h-100.08c-10.21,0-18.47,8.72-18.47,19.49v33.14Z"/>
          <path class="cls-18" d="m153.26,199.21c0,10.77,8.27,19.49,18.47,19.49h100.08c10.2,0,18.46-8.73,18.46-19.49v-33.14c0-10.77-8.27-19.49-18.46-19.49h-100.08c-10.21,0-18.47,8.72-18.47,19.49v33.14Z"/>
          <path class="cls-20" d="m153.61,199.03c0,10.77,8.27,19.49,18.47,19.49h100.08c10.2,0,18.46-8.73,18.46-19.49v-33.14c0-10.77-8.27-19.49-18.46-19.49h-100.08c-10.21,0-18.47,8.72-18.47,19.49v33.14Z"/>
          <path class="cls-4" d="m153.96,198.84c0,10.77,8.27,19.49,18.47,19.49h100.08c10.2,0,18.46-8.73,18.46-19.49v-33.14c0-10.77-8.27-19.49-18.46-19.49h-100.08c-10.21,0-18.47,8.72-18.47,19.49v33.14Z"/>
          <path class="cls-61" d="m154.31,198.66c0,10.77,8.27,19.49,18.47,19.49h100.08c10.2,0,18.46-8.73,18.46-19.49v-33.14c0-10.77-8.27-19.49-18.46-19.49h-100.08c-10.21,0-18.47,8.72-18.47,19.49v33.14Z"/>
          <path class="cls-70" d="m154.66,198.48c0,10.77,8.27,19.49,18.47,19.49h100.08c10.2,0,18.46-8.73,18.46-19.49v-33.14c0-10.77-8.27-19.49-18.46-19.49h-100.08c-10.21,0-18.47,8.72-18.47,19.49v33.14Z"/>
          <path class="cls-58" d="m155.01,198.29c0,10.77,8.27,19.49,18.47,19.49h100.08c10.2,0,18.46-8.73,18.46-19.49v-33.14c0-10.77-8.27-19.49-18.46-19.49h-100.08c-10.21,0-18.47,8.72-18.47,19.49v33.14Z"/>
          <path class="cls-3" d="m155.36,198.11c0,10.77,8.27,19.49,18.47,19.49h100.08c10.2,0,18.46-8.73,18.46-19.49v-33.14c0-10.77-8.27-19.49-18.46-19.49h-100.08c-10.21,0-18.47,8.72-18.47,19.49v33.14Z"/>
          <path class="cls-56" d="m155.71,197.92c0,10.77,8.26,19.49,18.47,19.49h100.08c10.2,0,18.46-8.73,18.46-19.49v-33.14c0-10.77-8.27-19.49-18.46-19.49h-100.08c-10.21,0-18.47,8.72-18.47,19.49v33.14Z"/>
          <path class="cls-67" d="m156.06,197.74c0,10.77,8.26,19.49,18.47,19.49h100.08c10.2,0,18.46-8.73,18.46-19.49v-33.14c0-10.77-8.27-19.49-18.46-19.49h-100.08c-10.21,0-18.47,8.72-18.47,19.49v33.14Z"/>
          <path class="cls-75" d="m156.41,197.56c0,10.77,8.26,19.49,18.47,19.49h100.08c10.2,0,18.46-8.73,18.46-19.49v-33.14c0-10.77-8.27-19.49-18.46-19.49h-100.08c-10.21,0-18.47,8.72-18.47,19.49v33.14Z"/>
          <path class="cls-75" d="m156.76,197.37c0,10.77,8.26,19.49,18.47,19.49h100.08c10.2,0,18.46-8.73,18.46-19.49v-33.14c0-10.77-8.27-19.49-18.46-19.49h-100.08c-10.21,0-18.47,8.72-18.47,19.49v33.14Z"/>
          <path class="cls-69" d="m157.11,197.19c0,10.77,8.26,19.49,18.47,19.49h100.08c10.2,0,18.46-8.73,18.46-19.49v-33.14c0-10.77-8.27-19.49-18.46-19.49h-100.08c-10.21,0-18.47,8.72-18.47,19.49v33.14Z"/>
          <path class="cls-50" d="m157.46,197.01c0,10.77,8.26,19.49,18.47,19.49h100.08c10.2,0,18.46-8.73,18.46-19.49v-33.14c0-10.77-8.27-19.49-18.46-19.49h-100.08c-10.21,0-18.47,8.72-18.47,19.49v33.14Z"/>
          <path class="cls-37" d="m157.81,196.82c0,10.77,8.26,19.49,18.47,19.49h100.08c10.2,0,18.46-8.73,18.46-19.49v-33.14c0-10.77-8.27-19.49-18.46-19.49h-100.08c-10.21,0-18.47,8.72-18.47,19.49v33.14Z"/>
          <path class="cls-2" d="m158.17,196.64c0,10.77,8.26,19.49,18.47,19.49h100.08c10.2,0,18.46-8.73,18.46-19.49v-33.14c0-10.77-8.27-19.49-18.46-19.49h-100.08c-10.21,0-18.47,8.72-18.47,19.49v33.14Z"/>
          <path class="cls-53" d="m158.52,196.45c0,10.77,8.26,19.49,18.47,19.49h100.08c10.2,0,18.46-8.73,18.46-19.49v-33.14c0-10.77-8.27-19.49-18.46-19.49h-100.08c-10.21,0-18.47,8.72-18.47,19.49v33.14Z"/>
          <path class="cls-34" d="m158.87,196.27c0,10.77,8.26,19.49,18.47,19.49h100.08c10.2,0,18.46-8.73,18.46-19.49v-33.14c0-10.77-8.27-19.49-18.46-19.49h-100.08c-10.21,0-18.47,8.72-18.47,19.49v33.14Z"/>
          <path class="cls-33" d="m159.22,196.09c0,10.77,8.26,19.49,18.47,19.49h100.08c10.2,0,18.46-8.73,18.46-19.49v-33.14c0-10.77-8.27-19.49-18.46-19.49h-100.08c-10.21,0-18.47,8.72-18.47,19.49v33.14Z"/>
          <path class="cls-47" d="m159.57,195.9c0,10.77,8.26,19.49,18.47,19.49h100.08c10.2,0,18.46-8.73,18.46-19.49v-33.14c0-10.77-8.27-19.49-18.46-19.49h-100.08c-10.21,0-18.47,8.72-18.47,19.49v33.14Z"/>
          <path class="cls-40" d="m159.92,195.72c0,10.77,8.26,19.49,18.47,19.49h100.08c10.2,0,18.46-8.73,18.46-19.49v-33.14c0-10.77-8.27-19.49-18.46-19.49h-100.08c-10.21,0-18.47,8.72-18.47,19.49v33.14Z"/>
          <path class="cls-73" d="m160.27,195.54c0,10.77,8.26,19.49,18.47,19.49h100.08c10.2,0,18.46-8.73,18.46-19.49v-33.14c0-10.77-8.27-19.49-18.46-19.49h-100.08c-10.21,0-18.47,8.72-18.47,19.49v33.14Z"/>
          <path class="cls-19" d="m160.62,195.35c0,10.77,8.26,19.49,18.47,19.49h100.08c10.2,0,18.46-8.73,18.46-19.49v-33.14c0-10.77-8.27-19.49-18.46-19.49h-100.08c-10.21,0-18.47,8.72-18.47,19.49v33.14Z"/>
          <path class="cls-32" d="m160.97,195.17c0,10.77,8.26,19.49,18.47,19.49h100.08c10.2,0,18.46-8.73,18.46-19.49v-33.14c0-10.77-8.27-19.49-18.46-19.49h-100.08c-10.21,0-18.47,8.72-18.47,19.49v33.14Z"/>
          <path class="cls-25" d="m161.32,194.98c0,10.77,8.26,19.49,18.47,19.49h100.08c10.2,0,18.46-8.73,18.46-19.49v-33.14c0-10.77-8.27-19.49-18.46-19.49h-100.08c-10.21,0-18.47,8.72-18.47,19.49v33.14Z"/>
          <path class="cls-76" d="m161.67,194.8c0,10.77,8.26,19.49,18.47,19.49h100.08c10.2,0,18.46-8.73,18.46-19.49v-33.14c0-10.77-8.27-19.49-18.46-19.49h-100.08c-10.21,0-18.47,8.72-18.47,19.49v33.14Z"/>
          <path class="cls-28" d="m162.02,194.62c0,10.77,8.26,19.49,18.47,19.49h100.08c10.2,0,18.46-8.73,18.46-19.49v-33.14c0-10.77-8.27-19.49-18.46-19.49h-100.08c-10.21,0-18.47,8.72-18.47,19.49v33.14Z"/>
          <path class="cls-1" d="m162.37,194.43c0,10.77,8.26,19.49,18.47,19.49h100.08c10.2,0,18.46-8.73,18.46-19.49v-33.14c0-10.77-8.27-19.49-18.46-19.49h-100.08c-10.21,0-18.47,8.73-18.47,19.49v33.14Z"/>
          <path class="cls-52" d="m162.72,194.25c0,10.77,8.26,19.49,18.47,19.49h100.08c10.2,0,18.46-8.73,18.46-19.49v-33.14c0-10.77-8.27-19.49-18.46-19.49h-100.08c-10.21,0-18.47,8.73-18.47,19.49v33.14Z"/>
          <path class="cls-9" d="m163.08,194.07c0,10.77,8.26,19.49,18.47,19.49h100.08c10.2,0,18.46-8.73,18.46-19.49v-33.14c0-10.77-8.27-19.49-18.46-19.49h-100.08c-10.21,0-18.47,8.73-18.47,19.49v33.14Z"/>
          <path class="cls-36" d="m163.43,193.88c0,10.77,8.26,19.49,18.47,19.49h100.08c10.2,0,18.46-8.73,18.46-19.49v-33.14c0-10.77-8.27-19.49-18.46-19.49h-100.08c-10.21,0-18.47,8.73-18.47,19.49v33.14Z"/>
        </g>
        <g>
          <path class="cls-31" d="m163.43,193.22c0,10.76,8.26,19.49,18.47,19.49h100.08c10.2,0,18.46-8.73,18.46-19.49v-33.14c0-10.77-8.27-19.49-18.46-19.49h-100.08c-10.21,0-18.47,8.73-18.47,19.49v33.14Z"/>
          <g class="cls-15">
            <path class="cls-36" d="m163.43,193.22c0,10.76,8.26,19.49,18.47,19.49h100.08c10.2,0,18.46-8.73,18.46-19.49v-33.14c0-10.77-8.27-19.49-18.46-19.49h-100.08c-10.21,0-18.47,8.72-18.47,19.49v33.14Z"/>
            <path class="cls-1" d="m163.96,190.75c0,10.68,8.29,19.35,18.52,19.35h98.9c10.23,0,18.52-8.67,18.52-19.35v-30.6c0-10.69-8.29-19.35-18.52-19.35h-98.9c-10.23,0-18.52,8.66-18.52,19.35v30.6Z"/>
            <path class="cls-25" d="m164.5,188.27c0,10.6,8.31,19.21,18.58,19.21h97.72c10.26,0,18.57-8.61,18.57-19.21v-28.05c0-10.62-8.31-19.21-18.57-19.21h-97.72c-10.26,0-18.58,8.59-18.58,19.21v28.05Z"/>
            <path class="cls-73" d="m165.04,185.8c0,10.53,8.34,19.07,18.63,19.07h96.54c10.29,0,18.63-8.54,18.63-19.07v-25.5c0-10.54-8.34-19.07-18.63-19.07h-96.54c-10.29,0-18.63,8.53-18.63,19.07v25.5Z"/>
            <path class="cls-47" d="m165.58,183.32c0,10.45,8.36,18.93,18.68,18.93h95.35c10.32,0,18.68-8.48,18.68-18.93v-22.95c0-10.46-8.36-18.93-18.68-18.93h-95.35c-10.32,0-18.68,8.47-18.68,18.93v22.95Z"/>
            <path class="cls-53" d="m166.11,180.84c0,10.37,8.38,18.79,18.73,18.79h94.17c10.35,0,18.74-8.42,18.74-18.79v-20.4c0-10.38-8.39-18.79-18.74-18.79h-94.17c-10.35,0-18.73,8.41-18.73,18.79v20.4Z"/>
            <path class="cls-50" d="m166.65,178.37c0,10.29,8.41,18.64,18.79,18.64h92.99c10.38,0,18.79-8.35,18.79-18.64v-17.85c0-10.31-8.41-18.65-18.79-18.65h-92.99c-10.38,0-18.79,8.34-18.79,18.65v17.85Z"/>
            <path class="cls-67" d="m167.19,175.89c0,10.21,8.43,18.5,18.84,18.5h91.81c10.41,0,18.84-8.29,18.84-18.5v-15.3c0-10.23-8.44-18.51-18.84-18.51h-91.81c-10.41,0-18.84,8.28-18.84,18.51v15.3Z"/>
            <path class="cls-58" d="m167.73,173.42c0,10.14,8.46,18.36,18.89,18.36h90.63c10.43,0,18.9-8.23,18.9-18.36v-12.75c0-10.15-8.46-18.37-18.9-18.37h-90.63c-10.44,0-18.89,8.22-18.89,18.37v12.75Z"/>
            <path class="cls-4" d="m168.27,170.94c0,10.06,8.48,18.22,18.95,18.22h89.44c10.46,0,18.95-8.16,18.95-18.22v-10.2c0-10.07-8.49-18.23-18.95-18.23h-89.44c-10.47,0-18.95,8.16-18.95,18.23v10.2Z"/>
            <path class="cls-18" d="m168.8,168.47c0,9.98,8.5,18.08,19,18.08h88.26c10.49,0,19.01-8.1,19.01-18.08v-7.65c0-10-8.51-18.09-19.01-18.09h-88.26c-10.49,0-19,8.09-19,18.09v7.65Z"/>
            <path class="cls-46" d="m169.34,165.99c0,9.9,8.53,17.94,19.05,17.94h87.08c10.52,0,19.06-8.04,19.06-17.94v-5.1c0-9.92-8.54-17.95-19.06-17.95h-87.08c-10.52,0-19.05,8.03-19.05,17.95v5.1Z"/>
            <path class="cls-74" d="m169.88,163.52c0,9.82,8.55,17.8,19.1,17.8h85.9c10.55,0,19.11-7.97,19.11-17.8v-2.55c0-9.84-8.56-17.81-19.11-17.81h-85.9c-10.55,0-19.1,7.97-19.1,17.81v2.55Z"/>
            <path class="cls-5" d="m170.42,161.04c0,9.75,8.58,17.66,19.16,17.66h84.72c10.58,0,19.17-7.91,19.17-17.66h0c0-9.77-8.59-17.67-19.17-17.67h-84.72c-10.58,0-19.16,7.9-19.16,17.67h0Z"/>
          </g>
          <path class="cls-41" d="m163.43,193.22c0,10.76,8.26,19.49,18.47,19.49h100.08c10.2,0,18.46-8.73,18.46-19.49v-33.14c0-10.77-8.27-19.49-18.46-19.49h-100.08c-10.21,0-18.47,8.72-18.47,19.49v33.14Z"/>
        </g>
        <g class="cls-15">
          <path class="cls-5" d="m336.22,140.6c0,16.06,12.34,29.08,27.55,29.08h149.32c15.22,0,27.55-13.02,27.55-29.08v-49.45c0-16.07-12.33-29.08-27.55-29.08h-149.32c-15.22,0-27.55,13.01-27.55,29.08v49.45Z"/>
          <path class="cls-71" d="m336.75,140.33c0,16.06,12.34,29.08,27.55,29.08h149.32c15.22,0,27.55-13.02,27.55-29.08v-49.45c0-16.07-12.33-29.08-27.55-29.08h-149.32c-15.22,0-27.55,13.01-27.55,29.08v49.45Z"/>
          <path class="cls-39" d="m337.27,140.06c0,16.06,12.33,29.08,27.55,29.08h149.32c15.22,0,27.55-13.02,27.55-29.08v-49.45c0-16.07-12.33-29.08-27.55-29.08h-149.32c-15.22,0-27.55,13.01-27.55,29.08v49.45Z"/>
          <path class="cls-74" d="m337.79,139.78c0,16.06,12.33,29.08,27.55,29.08h149.32c15.22,0,27.55-13.02,27.55-29.08v-49.45c0-16.07-12.33-29.08-27.55-29.08h-149.32c-15.22,0-27.55,13.01-27.55,29.08v49.45Z"/>
          <path class="cls-45" d="m338.32,139.51c0,16.06,12.33,29.08,27.55,29.08h149.32c15.22,0,27.55-13.02,27.55-29.08v-49.45c0-16.07-12.33-29.08-27.55-29.08h-149.32c-15.22,0-27.55,13.01-27.55,29.08v49.45Z"/>
          <path class="cls-8" d="m338.84,139.23c0,16.06,12.33,29.08,27.55,29.08h149.32c15.22,0,27.55-13.02,27.55-29.08v-49.45c0-16.07-12.33-29.08-27.55-29.08h-149.32c-15.22,0-27.55,13.01-27.55,29.08v49.45Z"/>
          <path class="cls-46" d="m339.36,138.96c0,16.06,12.33,29.08,27.55,29.08h149.32c15.22,0,27.55-13.02,27.55-29.08v-49.45c0-16.07-12.33-29.08-27.55-29.08h-149.32c-15.22,0-27.55,13.01-27.55,29.08v49.45Z"/>
          <path class="cls-64" d="m339.89,138.69c0,16.06,12.33,29.08,27.55,29.08h149.32c15.22,0,27.55-13.02,27.55-29.08v-49.45c0-16.07-12.33-29.08-27.55-29.08h-149.32c-15.22,0-27.55,13.01-27.55,29.08v49.45Z"/>
          <path class="cls-55" d="m340.41,138.41c0,16.06,12.33,29.08,27.55,29.08h149.32c15.22,0,27.55-13.02,27.55-29.08v-49.45c0-16.07-12.33-29.08-27.55-29.08h-149.32c-15.22,0-27.55,13.01-27.55,29.08v49.45Z"/>
          <path class="cls-18" d="m340.93,138.14c0,16.06,12.33,29.08,27.55,29.08h149.32c15.22,0,27.55-13.02,27.55-29.08v-49.45c0-16.07-12.33-29.08-27.55-29.08h-149.32c-15.22,0-27.55,13.01-27.55,29.08v49.45Z"/>
          <path class="cls-20" d="m341.46,137.86c0,16.06,12.33,29.08,27.55,29.08h149.32c15.22,0,27.55-13.02,27.55-29.08v-49.45c0-16.07-12.33-29.08-27.55-29.08h-149.32c-15.22,0-27.55,13.01-27.55,29.08v49.45Z"/>
          <path class="cls-4" d="m341.98,137.59c0,16.06,12.33,29.08,27.55,29.08h149.32c15.22,0,27.55-13.02,27.55-29.08v-49.45c0-16.07-12.33-29.08-27.55-29.08h-149.32c-15.22,0-27.55,13.01-27.55,29.08v49.45Z"/>
          <path class="cls-61" d="m342.5,137.32c0,16.06,12.33,29.08,27.55,29.08h149.32c15.22,0,27.55-13.02,27.55-29.08v-49.45c0-16.07-12.33-29.08-27.55-29.08h-149.32c-15.22,0-27.55,13.01-27.55,29.08v49.45Z"/>
          <path class="cls-70" d="m343.03,137.04c0,16.06,12.33,29.08,27.55,29.08h149.32c15.22,0,27.55-13.02,27.55-29.08v-49.45c0-16.07-12.33-29.08-27.55-29.08h-149.32c-15.22,0-27.55,13.01-27.55,29.08v49.45Z"/>
          <path class="cls-58" d="m343.55,136.77c0,16.06,12.33,29.08,27.55,29.08h149.32c15.22,0,27.55-13.02,27.55-29.08v-49.45c0-16.07-12.33-29.08-27.55-29.08h-149.32c-15.22,0-27.55,13.01-27.55,29.08v49.45Z"/>
          <path class="cls-3" d="m344.07,136.49c0,16.06,12.33,29.08,27.55,29.08h149.32c15.22,0,27.55-13.02,27.55-29.08v-49.45c0-16.07-12.33-29.08-27.55-29.08h-149.32c-15.22,0-27.55,13.01-27.55,29.08v49.45Z"/>
          <path class="cls-56" d="m344.6,136.22c0,16.06,12.33,29.08,27.55,29.08h149.32c15.22,0,27.55-13.02,27.55-29.08v-49.45c0-16.07-12.33-29.08-27.55-29.08h-149.32c-15.22,0-27.55,13.01-27.55,29.08v49.45Z"/>
          <path class="cls-67" d="m345.12,135.95c0,16.06,12.33,29.08,27.55,29.08h149.32c15.22,0,27.55-13.02,27.55-29.08v-49.45c0-16.07-12.33-29.08-27.55-29.08h-149.32c-15.22,0-27.55,13.01-27.55,29.08v49.45Z"/>
          <path class="cls-75" d="m345.64,135.67c0,16.06,12.33,29.08,27.55,29.08h149.32c15.22,0,27.55-13.02,27.55-29.08v-49.45c0-16.07-12.33-29.08-27.55-29.08h-149.32c-15.22,0-27.55,13.01-27.55,29.08v49.45Z"/>
          <path class="cls-75" d="m346.17,135.4c0,16.06,12.33,29.08,27.55,29.08h149.32c15.22,0,27.55-13.02,27.55-29.08v-49.45c0-16.07-12.33-29.08-27.55-29.08h-149.32c-15.22,0-27.55,13.01-27.55,29.08v49.45Z"/>
          <path class="cls-69" d="m346.69,135.12c0,16.06,12.33,29.08,27.55,29.08h149.32c15.22,0,27.55-13.02,27.55-29.08v-49.45c0-16.07-12.33-29.08-27.55-29.08h-149.32c-15.22,0-27.55,13.01-27.55,29.08v49.45Z"/>
          <path class="cls-50" d="m347.21,134.85c0,16.06,12.33,29.08,27.55,29.08h149.32c15.22,0,27.55-13.02,27.55-29.08v-49.45c0-16.07-12.33-29.08-27.55-29.08h-149.32c-15.22,0-27.55,13.02-27.55,29.08v49.45Z"/>
          <path class="cls-37" d="m347.74,134.58c0,16.06,12.33,29.08,27.55,29.08h149.32c15.22,0,27.55-13.02,27.55-29.08v-49.45c0-16.07-12.33-29.08-27.55-29.08h-149.32c-15.22,0-27.55,13.02-27.55,29.08v49.45Z"/>
          <path class="cls-2" d="m348.26,134.3c0,16.06,12.33,29.08,27.55,29.08h149.32c15.22,0,27.55-13.02,27.55-29.08v-49.45c0-16.07-12.33-29.08-27.55-29.08h-149.32c-15.22,0-27.55,13.02-27.55,29.08v49.45Z"/>
          <path class="cls-53" d="m348.78,134.03c0,16.06,12.33,29.08,27.55,29.08h149.32c15.22,0,27.55-13.02,27.55-29.08v-49.45c0-16.07-12.33-29.08-27.55-29.08h-149.32c-15.22,0-27.55,13.02-27.55,29.08v49.45Z"/>
          <path class="cls-34" d="m349.31,133.75c0,16.06,12.33,29.08,27.55,29.08h149.32c15.22,0,27.55-13.02,27.55-29.08v-49.45c0-16.07-12.33-29.08-27.55-29.08h-149.32c-15.22,0-27.55,13.02-27.55,29.08v49.45Z"/>
          <path class="cls-33" d="m349.83,133.48c0,16.06,12.33,29.08,27.55,29.08h149.32c15.22,0,27.55-13.02,27.55-29.08v-49.45c0-16.07-12.33-29.08-27.55-29.08h-149.32c-15.22,0-27.55,13.02-27.55,29.08v49.45Z"/>
          <path class="cls-47" d="m350.35,133.21c0,16.06,12.33,29.08,27.55,29.08h149.32c15.22,0,27.55-13.02,27.55-29.08v-49.45c0-16.07-12.33-29.08-27.55-29.08h-149.32c-15.22,0-27.55,13.02-27.55,29.08v49.45Z"/>
          <path class="cls-40" d="m350.88,132.93c0,16.06,12.33,29.08,27.55,29.08h149.32c15.22,0,27.55-13.02,27.55-29.08v-49.45c0-16.07-12.33-29.08-27.55-29.08h-149.32c-15.22,0-27.55,13.02-27.55,29.08v49.45Z"/>
          <path class="cls-73" d="m351.4,132.66c0,16.06,12.33,29.08,27.55,29.08h149.32c15.22,0,27.55-13.02,27.55-29.08v-49.45c0-16.07-12.33-29.08-27.55-29.08h-149.32c-15.22,0-27.55,13.02-27.55,29.08v49.45Z"/>
          <path class="cls-19" d="m351.92,132.38c0,16.06,12.33,29.08,27.55,29.08h149.32c15.22,0,27.55-13.02,27.55-29.08v-49.45c0-16.07-12.33-29.08-27.55-29.08h-149.32c-15.22,0-27.55,13.02-27.55,29.08v49.45Z"/>
          <path class="cls-32" d="m352.45,132.11c0,16.06,12.33,29.08,27.55,29.08h149.32c15.22,0,27.55-13.02,27.55-29.08v-49.45c0-16.07-12.33-29.08-27.55-29.08h-149.32c-15.22,0-27.55,13.02-27.55,29.08v49.45Z"/>
          <path class="cls-25" d="m352.97,131.84c0,16.06,12.33,29.08,27.55,29.08h149.32c15.22,0,27.55-13.02,27.55-29.08v-49.45c0-16.07-12.33-29.08-27.55-29.08h-149.32c-15.22,0-27.55,13.02-27.55,29.08v49.45Z"/>
          <path class="cls-76" d="m353.49,131.56c0,16.06,12.33,29.08,27.55,29.08h149.32c15.22,0,27.55-13.02,27.55-29.08v-49.45c0-16.07-12.33-29.08-27.55-29.08h-149.32c-15.22,0-27.55,13.02-27.55,29.08v49.45Z"/>
          <path class="cls-28" d="m354.02,131.29c0,16.06,12.33,29.08,27.55,29.08h149.32c15.22,0,27.55-13.02,27.55-29.08v-49.45c0-16.07-12.33-29.08-27.55-29.08h-149.32c-15.22,0-27.55,13.02-27.55,29.08v49.45Z"/>
          <path class="cls-1" d="m354.54,131.01c0,16.06,12.33,29.08,27.55,29.08h149.32c15.22,0,27.55-13.02,27.55-29.08v-49.45c0-16.07-12.33-29.08-27.55-29.08h-149.32c-15.22,0-27.55,13.02-27.55,29.08v49.45Z"/>
          <path class="cls-52" d="m355.06,130.74c0,16.06,12.33,29.08,27.55,29.08h149.32c15.22,0,27.55-13.02,27.55-29.08v-49.45c0-16.07-12.33-29.08-27.55-29.08h-149.32c-15.22,0-27.55,13.02-27.55,29.08v49.45Z"/>
          <path class="cls-9" d="m355.59,130.47c0,16.06,12.33,29.08,27.55,29.08h149.32c15.22,0,27.55-13.02,27.55-29.08v-49.45c0-16.07-12.34-29.08-27.55-29.08h-149.32c-15.22,0-27.55,13.02-27.55,29.08v49.45Z"/>
          <path class="cls-36" d="m356.11,130.19c0,16.06,12.33,29.08,27.55,29.08h149.32c15.22,0,27.55-13.02,27.55-29.08v-49.45c0-16.07-12.34-29.08-27.55-29.08h-149.32c-15.22,0-27.55,13.02-27.55,29.08v49.45Z"/>
        </g>
        <g>
          <path class="cls-26" d="m356.11,129.2c0,16.05,12.33,29.08,27.55,29.08h149.32c15.22,0,27.55-13.02,27.55-29.08v-49.45c0-16.07-12.34-29.08-27.55-29.08h-149.32c-15.22,0-27.55,13.01-27.55,29.08v49.45Z"/>
          <g class="cls-15">
            <path class="cls-36" d="m356.11,129.2c0,16.05,12.33,29.08,27.55,29.08h149.32c15.22,0,27.55-13.02,27.55-29.08v-49.45c0-16.07-12.34-29.08-27.55-29.08h-149.32c-15.22,0-27.55,13.01-27.55,29.08v49.45Z"/>
            <path class="cls-1" d="m356.91,125.51c0,15.94,12.37,28.87,27.63,28.87h147.56c15.26,0,27.63-12.93,27.63-28.87v-45.65c0-15.96-12.37-28.87-27.63-28.87h-147.56c-15.27,0-27.63,12.92-27.63,28.87v45.65Z"/>
            <path class="cls-25" d="m357.71,121.82c0,15.82,12.4,28.66,27.71,28.66h145.79c15.31,0,27.71-12.84,27.71-28.66v-41.85c0-15.84-12.41-28.66-27.71-28.66h-145.79c-15.31,0-27.71,12.82-27.71,28.66v41.85Z"/>
            <path class="cls-73" d="m358.51,118.12c0,15.71,12.44,28.45,27.79,28.45h144.03c15.35,0,27.79-12.74,27.79-28.45v-38.04c0-15.72-12.44-28.45-27.79-28.45h-144.03c-15.35,0-27.79,12.73-27.79,28.45v38.04Z"/>
            <path class="cls-47" d="m359.32,114.43c0,15.59,12.47,28.24,27.87,28.24h142.27c15.39,0,27.87-12.65,27.87-28.24v-34.24c0-15.61-12.48-28.24-27.87-28.24h-142.27c-15.4,0-27.87,12.64-27.87,28.24v34.24Z"/>
            <path class="cls-53" d="m360.12,110.73c0,15.48,12.51,28.03,27.95,28.03h140.5c15.44,0,27.95-12.55,27.95-28.03v-30.43c0-15.49-12.52-28.03-27.95-28.03h-140.5c-15.44,0-27.95,12.54-27.95,28.03v30.43Z"/>
            <path class="cls-50" d="m360.92,107.04c0,15.36,12.55,27.82,28.03,27.82h138.74c15.48,0,28.03-12.46,28.03-27.82v-26.63c0-15.38-12.55-27.82-28.03-27.82h-138.74c-15.48,0-28.03,12.45-28.03,27.82v26.63Z"/>
            <path class="cls-67" d="m361.72,103.35c0,15.24,12.58,27.61,28.11,27.61h136.98c15.53,0,28.11-12.36,28.11-27.61v-22.82c0-15.26-12.59-27.62-28.11-27.62h-136.98c-15.53,0-28.11,12.36-28.11,27.62v22.82Z"/>
            <path class="cls-58" d="m362.52,99.65c0,15.13,12.62,27.4,28.19,27.4h135.21c15.57,0,28.19-12.27,28.19-27.4v-19.02c0-15.14-12.62-27.41-28.19-27.41h-135.21c-15.57,0-28.19,12.26-28.19,27.41v19.02Z"/>
            <path class="cls-4" d="m363.32,95.96c0,15.01,12.65,27.19,28.27,27.19h133.45c15.61,0,28.27-12.18,28.27-27.19v-15.22c0-15.03-12.66-27.2-28.27-27.2h-133.45c-15.61,0-28.27,12.17-28.27,27.2v15.22Z"/>
            <path class="cls-18" d="m364.13,92.26c0,14.9,12.69,26.98,28.34,26.98h131.69c15.66,0,28.35-12.08,28.35-26.98v-11.41c0-14.91-12.7-26.99-28.35-26.99h-131.69c-15.65,0-28.34,12.07-28.34,26.99v11.41Z"/>
            <path class="cls-46" d="m364.93,88.57c0,14.78,12.73,26.77,28.42,26.77h129.92c15.7,0,28.43-11.99,28.43-26.77v-7.61c0-14.8-12.73-26.78-28.43-26.78h-129.92c-15.7,0-28.42,11.98-28.42,26.78v7.61Z"/>
            <path class="cls-74" d="m365.73,84.87c0,14.67,12.76,26.56,28.5,26.56h128.16c15.75,0,28.51-11.89,28.51-26.56v-3.8c0-14.68-12.77-26.57-28.51-26.57h-128.16c-15.74,0-28.5,11.89-28.5,26.57v3.8Z"/>
            <path class="cls-5" d="m366.53,81.18c0,14.55,12.8,26.35,28.58,26.35h126.4c15.79,0,28.59-11.8,28.59-26.35h0c0-14.56-12.8-26.36-28.59-26.36h-126.4c-15.78,0-28.58,11.79-28.58,26.36h0Z"/>
          </g>
          <path class="cls-41" d="m356.11,129.2c0,16.05,12.33,29.08,27.55,29.08h149.32c15.22,0,27.55-13.02,27.55-29.08v-49.45c0-16.07-12.34-29.08-27.55-29.08h-149.32c-15.22,0-27.55,13.01-27.55,29.08v49.45Z"/>
        </g>
        <g class="cls-15">
          <path class="cls-5" d="m374.41,200.86c0,10.77,8.27,19.49,18.46,19.49h100.08c10.2,0,18.47-8.73,18.47-19.49v-33.14c0-10.77-8.27-19.49-18.47-19.49h-100.08c-10.2,0-18.46,8.72-18.46,19.49v33.14Z"/>
          <path class="cls-71" d="m374.76,200.68c0,10.77,8.27,19.49,18.46,19.49h100.08c10.2,0,18.47-8.73,18.47-19.49v-33.14c0-10.77-8.27-19.49-18.47-19.49h-100.08c-10.2,0-18.46,8.72-18.46,19.49v33.14Z"/>
          <path class="cls-39" d="m375.11,200.5c0,10.77,8.27,19.49,18.46,19.49h100.08c10.2,0,18.47-8.73,18.47-19.49v-33.14c0-10.77-8.27-19.49-18.47-19.49h-100.08c-10.2,0-18.46,8.72-18.46,19.49v33.14Z"/>
          <path class="cls-74" d="m375.46,200.31c0,10.77,8.27,19.49,18.46,19.49h100.08c10.2,0,18.47-8.73,18.47-19.49v-33.14c0-10.77-8.27-19.49-18.47-19.49h-100.08c-10.2,0-18.46,8.72-18.46,19.49v33.14Z"/>
          <path class="cls-45" d="m375.81,200.13c0,10.77,8.27,19.49,18.46,19.49h100.08c10.2,0,18.47-8.73,18.47-19.49v-33.14c0-10.77-8.27-19.49-18.47-19.49h-100.08c-10.2,0-18.46,8.72-18.46,19.49v33.14Z"/>
          <path class="cls-8" d="m376.16,199.94c0,10.77,8.27,19.49,18.46,19.49h100.08c10.2,0,18.47-8.73,18.47-19.49v-33.14c0-10.77-8.27-19.49-18.47-19.49h-100.08c-10.2,0-18.46,8.72-18.46,19.49v33.14Z"/>
          <path class="cls-46" d="m376.51,199.76c0,10.77,8.27,19.49,18.46,19.49h100.08c10.2,0,18.47-8.73,18.47-19.49v-33.14c0-10.77-8.27-19.49-18.47-19.49h-100.08c-10.2,0-18.46,8.72-18.46,19.49v33.14Z"/>
          <path class="cls-64" d="m376.87,199.58c0,10.77,8.27,19.49,18.46,19.49h100.08c10.2,0,18.47-8.73,18.47-19.49v-33.14c0-10.77-8.27-19.49-18.47-19.49h-100.08c-10.2,0-18.46,8.72-18.46,19.49v33.14Z"/>
          <path class="cls-55" d="m377.22,199.39c0,10.77,8.27,19.49,18.46,19.49h100.08c10.2,0,18.47-8.73,18.47-19.49v-33.14c0-10.77-8.27-19.49-18.47-19.49h-100.08c-10.2,0-18.46,8.72-18.46,19.49v33.14Z"/>
          <path class="cls-18" d="m377.57,199.21c0,10.77,8.27,19.49,18.46,19.49h100.08c10.2,0,18.47-8.73,18.47-19.49v-33.14c0-10.77-8.27-19.49-18.47-19.49h-100.08c-10.2,0-18.46,8.72-18.46,19.49v33.14Z"/>
          <path class="cls-20" d="m377.92,199.03c0,10.77,8.27,19.49,18.46,19.49h100.08c10.2,0,18.47-8.73,18.47-19.49v-33.14c0-10.77-8.27-19.49-18.47-19.49h-100.08c-10.2,0-18.46,8.72-18.46,19.49v33.14Z"/>
          <path class="cls-4" d="m378.27,198.84c0,10.77,8.27,19.49,18.46,19.49h100.08c10.2,0,18.47-8.73,18.47-19.49v-33.14c0-10.77-8.27-19.49-18.47-19.49h-100.08c-10.2,0-18.46,8.72-18.46,19.49v33.14Z"/>
          <path class="cls-61" d="m378.62,198.66c0,10.77,8.27,19.49,18.46,19.49h100.08c10.2,0,18.47-8.73,18.47-19.49v-33.14c0-10.77-8.27-19.49-18.47-19.49h-100.08c-10.2,0-18.46,8.72-18.46,19.49v33.14Z"/>
          <path class="cls-70" d="m378.97,198.48c0,10.77,8.27,19.49,18.46,19.49h100.08c10.2,0,18.47-8.73,18.47-19.49v-33.14c0-10.77-8.27-19.49-18.47-19.49h-100.08c-10.2,0-18.46,8.72-18.46,19.49v33.14Z"/>
          <path class="cls-58" d="m379.32,198.29c0,10.77,8.27,19.49,18.46,19.49h100.08c10.2,0,18.47-8.73,18.47-19.49v-33.14c0-10.77-8.27-19.49-18.47-19.49h-100.08c-10.2,0-18.46,8.72-18.46,19.49v33.14Z"/>
          <path class="cls-3" d="m379.67,198.11c0,10.77,8.27,19.49,18.46,19.49h100.08c10.2,0,18.47-8.73,18.47-19.49v-33.14c0-10.77-8.27-19.49-18.47-19.49h-100.08c-10.2,0-18.46,8.72-18.46,19.49v33.14Z"/>
          <path class="cls-56" d="m380.02,197.92c0,10.77,8.26,19.49,18.46,19.49h100.08c10.2,0,18.47-8.73,18.47-19.49v-33.14c0-10.77-8.27-19.49-18.47-19.49h-100.08c-10.2,0-18.46,8.72-18.46,19.49v33.14Z"/>
          <path class="cls-67" d="m380.37,197.74c0,10.77,8.26,19.49,18.46,19.49h100.08c10.2,0,18.47-8.73,18.47-19.49v-33.14c0-10.77-8.27-19.49-18.47-19.49h-100.08c-10.2,0-18.46,8.72-18.46,19.49v33.14Z"/>
          <path class="cls-75" d="m380.72,197.56c0,10.77,8.26,19.49,18.46,19.49h100.08c10.2,0,18.47-8.73,18.47-19.49v-33.14c0-10.77-8.27-19.49-18.47-19.49h-100.08c-10.2,0-18.46,8.72-18.46,19.49v33.14Z"/>
          <path class="cls-75" d="m381.07,197.37c0,10.77,8.26,19.49,18.46,19.49h100.08c10.2,0,18.47-8.73,18.47-19.49v-33.14c0-10.77-8.27-19.49-18.47-19.49h-100.08c-10.2,0-18.46,8.72-18.46,19.49v33.14Z"/>
          <path class="cls-69" d="m381.42,197.19c0,10.77,8.26,19.49,18.46,19.49h100.08c10.2,0,18.47-8.73,18.47-19.49v-33.14c0-10.77-8.27-19.49-18.47-19.49h-100.08c-10.2,0-18.46,8.72-18.46,19.49v33.14Z"/>
          <path class="cls-50" d="m381.78,197.01c0,10.77,8.26,19.49,18.46,19.49h100.08c10.2,0,18.47-8.73,18.47-19.49v-33.14c0-10.77-8.27-19.49-18.47-19.49h-100.08c-10.2,0-18.46,8.72-18.46,19.49v33.14Z"/>
          <path class="cls-37" d="m382.13,196.82c0,10.77,8.26,19.49,18.46,19.49h100.08c10.2,0,18.47-8.73,18.47-19.49v-33.14c0-10.77-8.27-19.49-18.47-19.49h-100.08c-10.2,0-18.46,8.72-18.46,19.49v33.14Z"/>
          <path class="cls-2" d="m382.48,196.64c0,10.77,8.26,19.49,18.46,19.49h100.08c10.2,0,18.47-8.73,18.47-19.49v-33.14c0-10.77-8.27-19.49-18.47-19.49h-100.08c-10.2,0-18.46,8.72-18.46,19.49v33.14Z"/>
          <path class="cls-53" d="m382.83,196.45c0,10.77,8.26,19.49,18.46,19.49h100.08c10.2,0,18.47-8.73,18.47-19.49v-33.14c0-10.77-8.27-19.49-18.47-19.49h-100.08c-10.2,0-18.46,8.72-18.46,19.49v33.14Z"/>
          <path class="cls-34" d="m383.18,196.27c0,10.77,8.26,19.49,18.46,19.49h100.08c10.2,0,18.47-8.73,18.47-19.49v-33.14c0-10.77-8.27-19.49-18.47-19.49h-100.08c-10.2,0-18.46,8.72-18.46,19.49v33.14Z"/>
          <path class="cls-33" d="m383.53,196.09c0,10.77,8.26,19.49,18.46,19.49h100.08c10.2,0,18.47-8.73,18.47-19.49v-33.14c0-10.77-8.27-19.49-18.47-19.49h-100.08c-10.2,0-18.46,8.72-18.46,19.49v33.14Z"/>
          <path class="cls-47" d="m383.88,195.9c0,10.77,8.26,19.49,18.46,19.49h100.08c10.2,0,18.47-8.73,18.47-19.49v-33.14c0-10.77-8.27-19.49-18.47-19.49h-100.08c-10.2,0-18.46,8.72-18.46,19.49v33.14Z"/>
          <path class="cls-40" d="m384.23,195.72c0,10.77,8.26,19.49,18.46,19.49h100.08c10.2,0,18.47-8.73,18.47-19.49v-33.14c0-10.77-8.27-19.49-18.47-19.49h-100.08c-10.2,0-18.46,8.72-18.46,19.49v33.14Z"/>
          <path class="cls-73" d="m384.58,195.54c0,10.77,8.26,19.49,18.46,19.49h100.08c10.2,0,18.47-8.73,18.47-19.49v-33.14c0-10.77-8.27-19.49-18.47-19.49h-100.08c-10.2,0-18.46,8.72-18.46,19.49v33.14Z"/>
          <path class="cls-19" d="m384.93,195.35c0,10.77,8.26,19.49,18.46,19.49h100.08c10.2,0,18.47-8.73,18.47-19.49v-33.14c0-10.77-8.27-19.49-18.47-19.49h-100.08c-10.2,0-18.46,8.72-18.46,19.49v33.14Z"/>
          <path class="cls-32" d="m385.28,195.17c0,10.77,8.26,19.49,18.46,19.49h100.08c10.2,0,18.47-8.73,18.47-19.49v-33.14c0-10.77-8.27-19.49-18.47-19.49h-100.08c-10.2,0-18.46,8.72-18.46,19.49v33.14Z"/>
          <path class="cls-25" d="m385.63,194.98c0,10.77,8.26,19.49,18.46,19.49h100.08c10.2,0,18.47-8.73,18.47-19.49v-33.14c0-10.77-8.27-19.49-18.47-19.49h-100.08c-10.2,0-18.46,8.72-18.46,19.49v33.14Z"/>
          <path class="cls-76" d="m385.98,194.8c0,10.77,8.26,19.49,18.46,19.49h100.08c10.2,0,18.47-8.73,18.47-19.49v-33.14c0-10.77-8.27-19.49-18.47-19.49h-100.08c-10.2,0-18.46,8.72-18.46,19.49v33.14Z"/>
          <path class="cls-28" d="m386.33,194.62c0,10.77,8.26,19.49,18.46,19.49h100.08c10.2,0,18.47-8.73,18.47-19.49v-33.14c0-10.77-8.27-19.49-18.47-19.49h-100.08c-10.2,0-18.46,8.72-18.46,19.49v33.14Z"/>
          <path class="cls-1" d="m386.69,194.43c0,10.77,8.26,19.49,18.46,19.49h100.08c10.2,0,18.47-8.73,18.47-19.49v-33.14c0-10.77-8.27-19.49-18.47-19.49h-100.08c-10.2,0-18.46,8.73-18.46,19.49v33.14Z"/>
          <path class="cls-52" d="m387.04,194.25c0,10.77,8.26,19.49,18.46,19.49h100.08c10.2,0,18.47-8.73,18.47-19.49v-33.14c0-10.77-8.27-19.49-18.47-19.49h-100.08c-10.2,0-18.46,8.73-18.46,19.49v33.14Z"/>
          <path class="cls-9" d="m387.39,194.07c0,10.77,8.26,19.49,18.46,19.49h100.08c10.2,0,18.47-8.73,18.47-19.49v-33.14c0-10.77-8.27-19.49-18.47-19.49h-100.08c-10.2,0-18.46,8.73-18.46,19.49v33.14Z"/>
          <path class="cls-36" d="m387.74,193.88c0,10.77,8.26,19.49,18.46,19.49h100.08c10.2,0,18.47-8.73,18.47-19.49v-33.14c0-10.77-8.27-19.49-18.47-19.49h-100.08c-10.2,0-18.46,8.73-18.46,19.49v33.14Z"/>
        </g>
        <g>
          <path class="cls-72" d="m387.74,193.22c0,10.76,8.26,19.49,18.46,19.49h100.08c10.2,0,18.47-8.73,18.47-19.49v-33.14c0-10.77-8.27-19.49-18.47-19.49h-100.08c-10.2,0-18.46,8.73-18.46,19.49v33.14Z"/>
          <g class="cls-15">
            <path class="cls-36" d="m387.74,193.22c0,10.76,8.26,19.49,18.46,19.49h100.08c10.2,0,18.47-8.73,18.47-19.49v-33.14c0-10.77-8.27-19.49-18.47-19.49h-100.08c-10.2,0-18.46,8.72-18.46,19.49v33.14Z"/>
            <path class="cls-1" d="m388.27,190.75c0,10.68,8.29,19.35,18.52,19.35h98.9c10.23,0,18.52-8.67,18.52-19.35v-30.6c0-10.69-8.29-19.35-18.52-19.35h-98.9c-10.23,0-18.52,8.66-18.52,19.35v30.6Z"/>
            <path class="cls-25" d="m388.81,188.27c0,10.6,8.31,19.21,18.57,19.21h97.72c10.26,0,18.58-8.61,18.58-19.21v-28.05c0-10.62-8.31-19.21-18.58-19.21h-97.72c-10.26,0-18.57,8.59-18.57,19.21v28.05Z"/>
            <path class="cls-73" d="m389.35,185.8c0,10.53,8.34,19.07,18.63,19.07h96.54c10.29,0,18.63-8.54,18.63-19.07v-25.5c0-10.54-8.34-19.07-18.63-19.07h-96.54c-10.29,0-18.63,8.53-18.63,19.07v25.5Z"/>
            <path class="cls-47" d="m389.89,183.32c0,10.45,8.36,18.93,18.68,18.93h95.35c10.32,0,18.68-8.48,18.68-18.93v-22.95c0-10.46-8.36-18.93-18.68-18.93h-95.35c-10.32,0-18.68,8.47-18.68,18.93v22.95Z"/>
            <path class="cls-53" d="m390.42,180.84c0,10.37,8.39,18.79,18.73,18.79h94.17c10.35,0,18.74-8.42,18.74-18.79v-20.4c0-10.38-8.39-18.79-18.74-18.79h-94.17c-10.35,0-18.73,8.41-18.73,18.79v20.4Z"/>
            <path class="cls-50" d="m390.96,178.37c0,10.29,8.41,18.64,18.79,18.64h92.99c10.38,0,18.79-8.35,18.79-18.64v-17.85c0-10.31-8.41-18.65-18.79-18.65h-92.99c-10.38,0-18.79,8.34-18.79,18.65v17.85Z"/>
            <path class="cls-67" d="m391.5,175.89c0,10.21,8.44,18.5,18.84,18.5h91.81c10.41,0,18.84-8.29,18.84-18.5v-15.3c0-10.23-8.44-18.51-18.84-18.51h-91.81c-10.4,0-18.84,8.28-18.84,18.51v15.3Z"/>
            <path class="cls-58" d="m392.04,173.42c0,10.14,8.46,18.36,18.89,18.36h90.63c10.44,0,18.9-8.23,18.9-18.36v-12.75c0-10.15-8.46-18.37-18.9-18.37h-90.63c-10.43,0-18.89,8.22-18.89,18.37v12.75Z"/>
            <path class="cls-4" d="m392.57,170.94c0,10.06,8.48,18.22,18.95,18.22h89.45c10.47,0,18.95-8.16,18.95-18.22v-10.2c0-10.07-8.48-18.23-18.95-18.23h-89.45c-10.46,0-18.95,8.16-18.95,18.23v10.2Z"/>
            <path class="cls-18" d="m393.11,168.47c0,9.98,8.51,18.08,19,18.08h88.26c10.49,0,19-8.1,19-18.08v-7.65c0-10-8.51-18.09-19-18.09h-88.26c-10.49,0-19,8.09-19,18.09v7.65Z"/>
            <path class="cls-46" d="m393.65,165.99c0,9.9,8.53,17.94,19.05,17.94h87.08c10.52,0,19.06-8.04,19.06-17.94v-5.1c0-9.92-8.53-17.95-19.06-17.95h-87.08c-10.52,0-19.05,8.03-19.05,17.95v5.1Z"/>
            <path class="cls-74" d="m394.18,163.52c0,9.82,8.56,17.8,19.11,17.8h85.9c10.55,0,19.11-7.97,19.11-17.8v-2.55c0-9.84-8.56-17.81-19.11-17.81h-85.9c-10.55,0-19.11,7.97-19.11,17.81v2.55Z"/>
            <path class="cls-5" d="m394.72,161.04c0,9.75,8.58,17.66,19.16,17.66h84.72c10.58,0,19.16-7.91,19.16-17.66h0c0-9.77-8.58-17.67-19.16-17.67h-84.72c-10.58,0-19.16,7.9-19.16,17.67h0Z"/>
          </g>
          <path class="cls-41" d="m387.74,193.22c0,10.76,8.26,19.49,18.46,19.49h100.08c10.2,0,18.47-8.73,18.47-19.49v-33.14c0-10.77-8.27-19.49-18.47-19.49h-100.08c-10.2,0-18.46,8.72-18.46,19.49v33.14Z"/>
        </g>
        <path class="cls-10" d="m281.98,139.7h-100.08c-10.6,0-19.22,9.14-19.22,20.38v33.14c0,11.23,8.62,20.38,19.22,20.38h100.08c10.6,0,19.22-9.14,19.22-20.38v-33.14c0-11.23-8.62-20.38-19.22-20.38Z"/>
        <path class="cls-10" d="m506.29,139.7h-100.08c-10.6,0-19.22,9.14-19.22,20.38v33.14c0,11.23,8.62,20.38,19.22,20.38h100.08c10.59,0,19.21-9.14,19.21-20.38v-33.14c0-11.23-8.62-20.38-19.21-20.38Z"/>
      </g>
    </g>
  </g>
</svg>