<?xml version="1.0" encoding="UTF-8"?>
<svg xmlns="http://www.w3.org/2000/svg" xmlns:xlink="http://www.w3.org/1999/xlink" viewBox="0 0 437.58 626.41">
  <defs>
    <style>
      .cls-1 {
        fill: #b7b7b7;
      }

      .cls-2, .cls-3 {
        fill: #ddd;
      }

      .cls-4, .cls-5 {
        fill: #e9e9e9;
      }

      .cls-6, .cls-7 {
        fill: #f0f0f0;
      }

      .cls-8, .cls-9 {
        fill: #f4f4f4;
      }

      .cls-10, .cls-11 {
        fill: #fff;
      }

      .cls-11, .cls-12, .cls-7, .cls-13, .cls-14, .cls-9, .cls-15, .cls-16, .cls-17, .cls-18, .cls-19, .cls-20, .cls-21, .cls-22, .cls-5, .cls-23, .cls-24, .cls-25, .cls-3, .cls-26, .cls-27, .cls-28, .cls-29, .cls-30, .cls-31, .cls-32, .cls-33, .cls-34, .cls-35, .cls-36, .cls-37, .cls-38, .cls-39, .cls-40, .cls-41, .cls-42, .cls-43, .cls-44, .cls-45, .cls-46, .cls-47, .cls-48 {
        mix-blend-mode: multiply;
      }

      .cls-49 {
        fill: #c5c5c5;
      }

      .cls-50 {
        fill: #cbcbcb;
      }

      .cls-12, .cls-51 {
        fill: #e3e3e3;
      }

      .cls-52 {
        fill: #d1d1d1;
      }

      .cls-53, .cls-35 {
        fill: #fafafa;
      }

      .cls-54, .cls-29 {
        fill: #dbdbdb;
      }

      .cls-13 {
        fill: #ff564a;
      }

      .cls-55 {
        fill: #cacaca;
      }

      .cls-56 {
        fill: #d8d8d8;
      }

      .cls-57, .cls-32 {
        fill: #f6f6f6;
      }

      .cls-58 {
        fill: #bfbfbf;
      }

      .cls-14 {
        fill: url(#linear-gradient-4);
      }

      .cls-59 {
        fill: silver;
      }

      .cls-60, .cls-22 {
        fill: #e2e2e2;
      }

      .cls-61, .cls-19 {
        fill: #f5f5f5;
      }

      .cls-62, .cls-63 {
        fill: #b2b2b2;
      }

      .cls-64 {
        fill: #bababa;
      }

      .cls-65 {
        isolation: isolate;
      }

      .cls-15, .cls-66 {
        fill: #f7f7f7;
      }

      .cls-67 {
        fill: #d6d6d6;
      }

      .cls-68 {
        fill: url(#linear-gradient-7);
      }

      .cls-68, .cls-69, .cls-70, .cls-71, .cls-72, .cls-73, .cls-74, .cls-63 {
        stroke-linecap: round;
        stroke-linejoin: round;
      }

      .cls-68, .cls-69, .cls-70, .cls-71, .cls-72, .cls-74, .cls-63 {
        stroke: #949494;
      }

      .cls-68, .cls-69, .cls-71, .cls-72, .cls-74, .cls-63 {
        stroke-width: .03px;
      }

      .cls-75 {
        fill: #b4b4b4;
      }

      .cls-16, .cls-76 {
        fill: #dfdfdf;
      }

      .cls-77 {
        fill: #c9c9c9;
      }

      .cls-78, .cls-17 {
        fill: #e0e0e0;
      }

      .cls-18, .cls-79 {
        fill: #eaeaea;
      }

      .cls-80 {
        fill: #c7c7c7;
      }

      .cls-81, .cls-43 {
        fill: #dedede;
      }

      .cls-20, .cls-82 {
        fill: #f3f3f3;
      }

      .cls-83 {
        fill: #c3c3c3;
      }

      .cls-21, .cls-84 {
        fill: #f8f8f8;
      }

      .cls-85 {
        fill: #cfcfcf;
      }

      .cls-86 {
        fill: #d7d7d7;
      }

      .cls-87 {
        fill: #bdbdbd;
      }

      .cls-88, .cls-31 {
        fill: #e1e1e1;
      }

      .cls-89, .cls-40 {
        fill: #e6e6e6;
      }

      .cls-90, .cls-34 {
        fill: #e7e7e7;
      }

      .cls-69 {
        fill: url(#linear-gradient-8);
      }

      .cls-70 {
        stroke-width: .02px;
      }

      .cls-70, .cls-73 {
        fill: none;
      }

      .cls-23, .cls-91 {
        fill: #eee;
      }

      .cls-24, .cls-92 {
        fill: #ececec;
      }

      .cls-93 {
        fill: #d4d4d4;
      }

      .cls-25, .cls-94 {
        fill: #f2f2f2;
      }

      .cls-95, .cls-41 {
        fill: #dadada;
      }

      .cls-96 {
        fill: #b8b8b8;
      }

      .cls-26, .cls-97 {
        fill: #f1f1f1;
      }

      .cls-27, .cls-98 {
        fill: #ededed;
      }

      .cls-28, .cls-99 {
        fill: #efefef;
      }

      .cls-100 {
        fill: #c8c8c8;
      }

      .cls-101, .cls-48 {
        fill: #fdfdfd;
      }

      .cls-102, .cls-44 {
        fill: #e4e4e4;
      }

      .cls-103, .cls-30 {
        fill: #fbfbfb;
      }

      .cls-71 {
        fill: url(#linear-gradient-2);
      }

      .cls-104, .cls-45 {
        fill: #f9f9f9;
      }

      .cls-72 {
        fill: url(#linear-gradient);
      }

      .cls-105, .cls-38 {
        fill: #e5e5e5;
      }

      .cls-106 {
        fill: url(#linear-gradient-5);
      }

      .cls-107 {
        fill: #b6b6b6;
      }

      .cls-108 {
        fill: url(#linear-gradient-9);
        mix-blend-mode: screen;
      }

      .cls-109 {
        fill: #d3d3d3;
      }

      .cls-110, .cls-36 {
        fill: #ebebeb;
      }

      .cls-111 {
        fill: #bebebe;
      }

      .cls-33, .cls-112 {
        fill: #dcdcdc;
      }

      .cls-113 {
        fill: #d5d5d5;
      }

      .cls-73 {
        stroke: #8f8f8f;
        stroke-width: .03px;
      }

      .cls-114 {
        fill: #c1c1c1;
      }

      .cls-37 {
        fill: #706f6f;
      }

      .cls-115 {
        fill: #bcbcbc;
      }

      .cls-116, .cls-39 {
        fill: #e8e8e8;
      }

      .cls-117 {
        fill: #ccc;
      }

      .cls-118 {
        fill: #bbb;
      }

      .cls-119 {
        fill: #b3b3b3;
      }

      .cls-74 {
        fill: url(#linear-gradient-6);
      }

      .cls-120 {
        fill: #c2c2c2;
      }

      .cls-121 {
        fill: url(#linear-gradient-3);
      }

      .cls-122 {
        fill: #cecece;
      }

      .cls-42, .cls-123 {
        fill: #fefefe;
      }

      .cls-124 {
        fill: #b5b5b5;
      }

      .cls-125 {
        fill: #d9d9d9;
      }

      .cls-126 {
        fill: #cdcdcd;
      }

      .cls-127 {
        fill: #d2d2d2;
      }

      .cls-128 {
        fill: #c6c6c6;
      }

      .cls-46, .cls-129 {
        fill: #fcfcfc;
      }

      .cls-130 {
        fill: #d0d0d0;
      }

      .cls-131 {
        fill: #c4c4c4;
      }

      .cls-132 {
        fill: #b9b9b9;
      }
    </style>
    <linearGradient id="linear-gradient" x1="1608.14" y1="535.68" x2="1959.27" y2="535.68" gradientTransform="translate(2037 1115.7) rotate(-180)" gradientUnits="userSpaceOnUse">
      <stop offset="0" stop-color="#c2c2c1"/>
      <stop offset="1" stop-color="#878787"/>
    </linearGradient>
    <linearGradient id="linear-gradient-2" x1="1357.45" y1="602.2" x2="1708.58" y2="602.2" gradientTransform="translate(1786.31 -2.35) rotate(-180) scale(1 -1)" gradientUnits="userSpaceOnUse">
      <stop offset="0" stop-color="#ebebeb"/>
      <stop offset="1" stop-color="#d6d6d5"/>
    </linearGradient>
    <linearGradient id="linear-gradient-3" x1="428.14" y1="310.74" x2="73.39" y2="310.74" gradientUnits="userSpaceOnUse">
      <stop offset="0" stop-color="#ebebeb"/>
      <stop offset=".28" stop-color="#e7e7e6"/>
      <stop offset=".57" stop-color="#dbdbda"/>
      <stop offset=".85" stop-color="#c7c7c6"/>
      <stop offset="1" stop-color="#babab9"/>
    </linearGradient>
    <linearGradient id="linear-gradient-4" x1="1.87" y1="801.21" x2="1.87" y2="882.38" gradientTransform="translate(249.96 919.32) scale(1 -1)" gradientUnits="userSpaceOnUse">
      <stop offset="0" stop-color="#fff"/>
      <stop offset=".66" stop-color="#ebebea"/>
      <stop offset="1" stop-color="#e0e0df"/>
    </linearGradient>
    <linearGradient id="linear-gradient-5" x1="436.55" y1="398.21" x2="63.94" y2="398.21" gradientUnits="userSpaceOnUse">
      <stop offset="0" stop-color="#ebebeb"/>
      <stop offset=".29" stop-color="#e7e7e6"/>
      <stop offset=".58" stop-color="#dbdbda"/>
      <stop offset=".88" stop-color="#c7c7c6"/>
      <stop offset="1" stop-color="#bdbdbc"/>
    </linearGradient>
    <linearGradient id="linear-gradient-6" x1="1341.74" y1="11.38" x2="1595.04" y2="11.38" gradientTransform="translate(1719.15) rotate(-180) scale(1 -1)" xlink:href="#linear-gradient-2"/>
    <linearGradient id="linear-gradient-7" x1="73.39" y1="29.12" x2="428.14" y2="29.12" gradientTransform="matrix(1,0,0,1,0,0)" xlink:href="#linear-gradient"/>
    <linearGradient id="linear-gradient-8" x1="377.41" y1="18.37" x2="428.14" y2="18.37" gradientUnits="userSpaceOnUse">
      <stop offset="0" stop-color="#ebebeb"/>
      <stop offset="1" stop-color="#a6a6a5"/>
    </linearGradient>
    <linearGradient id="linear-gradient-9" x1="1437.69" y1="48.57" x2="1642.15" y2="195.3" gradientTransform="translate(1786.3) rotate(-180) scale(1 -1)" gradientUnits="userSpaceOnUse">
      <stop offset="0" stop-color="#bdbdbd"/>
      <stop offset=".11" stop-color="#9e9e9e"/>
      <stop offset=".34" stop-color="#666"/>
      <stop offset=".55" stop-color="#3a3a3a"/>
      <stop offset=".74" stop-color="#1a1a1a"/>
      <stop offset=".89" stop-color="#060606"/>
      <stop offset="1" stop-color="#000"/>
    </linearGradient>
  </defs>
  <g class="cls-65">
    <g id="Layer_1" data-name="Layer 1">
      <g>
        <g class="cls-47">
          <path class="cls-10" d="m373.45,317.04l-7.22-3.77v-180.48s.01-.09.01-.14V51.49s0-.1,0-.1v-.59c0-.38-.33-.64-.71-.76v-20.74c0-.38-.29-.71-.71-.82l-50.72-13.99c-.11-.02-.21-.04-.32-.04H60.47c-.11,0-.22.02-.32.04L9.42,28.48c-.42.11-.7.45-.7.82v21.2s0,.1.01.15c-.02.1-.02.2,0,.29.06.32.34.53.69.64v173.29H1.02c-.56,0-1.02.39-1.02.87v374.02c0,.48.46.87,1.02.87h12.03v24.91c0,.48.46.87,1.03.87h351.14c.56,0,1.02-.39,1.02-.87v-24.91h6.67c.56,0,1.02-.39,1.02-.87v-281.97c0-.3-.18-.59-.48-.74Z"/>
          <path class="cls-123" d="m374.55,316.81l-7.22-3.77v-180.48s.01-.09.01-.14V51.26s0-.1,0-.1v-.59c0-.38-.33-.64-.71-.76v-20.74c0-.38-.29-.71-.71-.82l-50.72-13.99c-.11-.02-.21-.04-.32-.04H61.57c-.11,0-.22.02-.32.04L10.52,28.25c-.42.11-.7.45-.7.82v21.2s0,.1.01.15c-.02.1-.02.2,0,.29.06.32.34.53.69.64v173.29H2.12c-.56,0-1.02.39-1.02.87v374.02c0,.48.46.87,1.02.87h12.03v24.91c0,.48.46.87,1.03.87h351.14c.56,0,1.02-.39,1.02-.87v-24.91h6.67c.56,0,1.02-.39,1.02-.87v-281.97c0-.3-.18-.59-.48-.74Z"/>
          <path class="cls-101" d="m375.64,316.59l-7.22-3.77v-180.48s.01-.09.01-.14V51.03s0-.1,0-.1v-.59c0-.38-.33-.64-.71-.76v-20.74c0-.38-.29-.71-.71-.82l-50.72-13.99c-.11-.02-.21-.04-.32-.04H62.67c-.11,0-.22.02-.32.04L11.62,28.02c-.42.11-.7.45-.7.82v21.2s0,.1.01.15c-.02.1-.02.2,0,.29.06.32.34.53.69.64v173.29H3.22c-.56,0-1.02.39-1.02.87v374.02c0,.48.46.87,1.02.87h12.03v24.91c0,.48.46.87,1.03.87h351.14c.56,0,1.02-.39,1.02-.87v-24.91h6.67c.56,0,1.02-.39,1.02-.87v-281.97c0-.3-.18-.59-.48-.74Z"/>
          <path class="cls-129" d="m376.74,316.36l-7.22-3.77v-180.48s.01-.09.01-.14V50.8s0-.1,0-.1v-.59c0-.38-.33-.64-.71-.76v-20.74c0-.38-.29-.71-.71-.82l-50.72-13.99c-.11-.02-.21-.04-.32-.04H63.76c-.11,0-.22.02-.32.04L12.72,27.8c-.42.11-.7.45-.7.82v21.2s0,.1.01.15c-.02.1-.02.2,0,.29.06.32.34.53.69.64v173.29H4.31c-.56,0-1.02.39-1.02.87v374.02c0,.48.46.87,1.02.87h12.03v24.91c0,.48.46.87,1.03.87h351.14c.56,0,1.02-.39,1.02-.87v-24.91h6.67c.56,0,1.02-.39,1.02-.87v-281.97c0-.3-.18-.59-.48-.74Z"/>
          <path class="cls-103" d="m377.84,316.13l-7.22-3.77v-180.48s.01-.09.01-.14V50.58s0-.1,0-.1v-.59c0-.38-.33-.64-.71-.76v-20.74c0-.38-.29-.71-.71-.82l-50.72-13.99c-.11-.02-.21-.04-.32-.04H64.86c-.11,0-.22.02-.32.04L13.81,27.57c-.42.11-.7.45-.7.82v21.2s0,.1.01.15c-.02.1-.02.2,0,.29.06.32.34.53.69.64v173.29H5.41c-.56,0-1.02.39-1.02.87v374.02c0,.48.46.87,1.02.87h12.03v24.91c0,.48.46.87,1.03.87h351.14c.56,0,1.02-.39,1.02-.87v-24.91h6.67c.56,0,1.02-.39,1.02-.87v-281.97c0-.3-.18-.59-.48-.74Z"/>
          <path class="cls-53" d="m378.93,315.9l-7.22-3.77v-180.48s.01-.09.01-.14V50.35s0-.1,0-.1v-.59c0-.38-.33-.64-.71-.76v-20.74c0-.38-.29-.71-.71-.82l-50.72-13.99c-.11-.02-.21-.04-.32-.04H65.96c-.11,0-.22.02-.32.04L14.91,27.34c-.42.11-.7.45-.7.82v21.2s0,.1.01.15c-.02.1-.02.2,0,.29.06.32.34.53.69.64v173.29H6.51c-.56,0-1.02.39-1.02.87v374.02c0,.48.46.87,1.02.87h12.03v24.91c0,.48.46.87,1.03.87h351.14c.56,0,1.02-.39,1.02-.87v-24.91h6.67c.56,0,1.02-.39,1.02-.87v-281.97c0-.3-.18-.59-.48-.74Z"/>
          <path class="cls-104" d="m380.03,315.68l-7.22-3.77v-180.48s.01-.09.01-.14V50.12s0-.1,0-.1v-.59c0-.38-.33-.64-.71-.76v-20.74c0-.38-.29-.71-.71-.82l-50.72-13.99c-.11-.02-.21-.04-.32-.04H67.06c-.11,0-.22.02-.32.04l-50.73,13.99c-.42.11-.7.45-.7.82v21.2s0,.1.01.15c-.02.1-.02.2,0,.29.06.32.34.53.69.64v173.29H7.6c-.56,0-1.02.39-1.02.87v374.02c0,.48.46.87,1.02.87h12.03v24.91c0,.48.46.87,1.03.87h351.14c.56,0,1.02-.39,1.02-.87v-24.91h6.67c.56,0,1.02-.39,1.02-.87v-281.97c0-.3-.18-.59-.48-.74Z"/>
          <path class="cls-84" d="m381.13,315.45l-7.22-3.77v-180.48s.01-.09.01-.14V49.9s0-.1,0-.1v-.59c0-.38-.33-.64-.71-.76v-20.74c0-.38-.29-.71-.71-.82l-50.72-13.99c-.11-.02-.21-.04-.32-.04H68.15c-.11,0-.22.02-.32.04l-50.73,13.99c-.42.11-.7.45-.7.82v21.2s0,.1.01.15c-.02.1-.02.2,0,.29.06.32.34.53.69.64v173.29h-8.4c-.56,0-1.02.39-1.02.87v374.02c0,.48.46.87,1.02.87h12.03v24.91c0,.48.46.87,1.03.87h351.14c.56,0,1.02-.39,1.02-.87v-24.91h6.67c.56,0,1.02-.39,1.02-.87v-281.97c0-.3-.18-.59-.49-.74Z"/>
          <path class="cls-66" d="m382.23,315.22l-7.22-3.77v-180.48s.01-.09.01-.14V49.67s0-.1,0-.1v-.59c0-.38-.33-.64-.71-.76v-20.74c0-.38-.29-.71-.71-.82l-50.72-13.99c-.11-.02-.21-.04-.32-.04H69.25c-.11,0-.22.02-.32.04l-50.73,13.99c-.42.11-.7.45-.7.82v21.2s0,.1.01.15c-.02.1-.02.2,0,.29.06.32.34.53.69.64v173.29h-8.41c-.56,0-1.02.39-1.02.87v374.02c0,.48.46.87,1.02.87h12.03v24.91c0,.48.46.87,1.03.87h351.14c.56,0,1.02-.39,1.02-.87v-24.91h6.67c.56,0,1.02-.39,1.02-.87v-281.97c0-.3-.18-.59-.49-.74Z"/>
          <path class="cls-57" d="m383.32,314.99l-7.22-3.77v-180.48s.01-.09.01-.14V49.44s0-.1,0-.1v-.59c0-.38-.33-.64-.71-.76v-20.74c0-.38-.29-.71-.71-.82l-50.72-13.99c-.11-.02-.21-.04-.32-.04H70.35c-.11,0-.22.02-.32.04l-50.73,13.99c-.42.11-.7.45-.7.82v21.2s0,.1.01.15c-.02.1-.02.2,0,.29.06.32.34.53.69.64v173.29h-8.41c-.56,0-1.02.39-1.02.87v374.02c0,.48.46.87,1.02.87h12.03v24.91c0,.48.46.87,1.03.87h351.14c.56,0,1.02-.39,1.02-.87v-24.91h6.67c.56,0,1.02-.39,1.02-.87v-281.97c0-.3-.18-.59-.49-.74Z"/>
          <path class="cls-61" d="m384.42,314.77l-7.22-3.77v-180.48s.01-.09.01-.14V49.21s0-.1,0-.1v-.59c0-.38-.33-.64-.71-.76v-20.74c0-.38-.29-.71-.71-.82l-50.72-13.99c-.1-.02-.21-.04-.32-.04H71.45c-.11,0-.22.02-.32.04l-50.73,13.99c-.42.11-.7.45-.7.82v21.2s0,.1.01.15c-.02.1-.02.2,0,.29.06.32.34.53.69.64v173.29h-8.41c-.56,0-1.02.39-1.02.87v374.02c0,.48.46.87,1.02.87h12.03v24.91c0,.48.46.87,1.03.87h351.14c.56,0,1.02-.39,1.02-.87v-24.91h6.67c.56,0,1.02-.39,1.02-.87v-281.97c0-.3-.18-.59-.49-.74Z"/>
          <path class="cls-8" d="m385.52,314.54l-7.22-3.77v-180.48s.01-.09.01-.14V48.99s0-.1,0-.1v-.59c0-.38-.33-.64-.71-.76v-20.74c0-.38-.29-.71-.71-.82l-50.72-13.99c-.1-.02-.21-.04-.32-.04H72.54c-.11,0-.22.02-.32.04l-50.73,13.99c-.42.11-.7.45-.7.82v21.2s0,.1.01.15c-.02.1-.02.2,0,.29.06.32.34.53.69.64v173.29h-8.41c-.56,0-1.02.39-1.02.87v374.02c0,.48.46.87,1.02.87h12.03v24.91c0,.48.46.87,1.03.87h351.14c.56,0,1.02-.39,1.02-.87v-24.91h6.67c.56,0,1.02-.39,1.02-.87v-281.97c0-.3-.18-.59-.49-.74Z"/>
          <path class="cls-82" d="m386.61,314.31l-7.22-3.77v-180.48s.01-.09.01-.14V48.76s0-.1,0-.1v-.59c0-.38-.33-.64-.71-.76v-20.74c0-.38-.29-.71-.71-.82l-50.72-13.99c-.1-.02-.21-.04-.32-.04H73.64c-.11,0-.22.02-.32.04l-50.73,13.99c-.42.11-.7.45-.7.82v21.2s0,.1.01.15c-.02.1-.02.2,0,.29.06.32.34.53.69.64v173.29h-8.41c-.56,0-1.02.39-1.02.87v374.02c0,.48.46.87,1.02.87h12.03v24.91c0,.48.46.87,1.03.87h351.14c.56,0,1.02-.39,1.02-.87v-24.91h6.67c.56,0,1.02-.39,1.02-.87v-281.97c0-.3-.18-.59-.49-.74Z"/>
          <path class="cls-94" d="m387.71,314.09l-7.22-3.77v-180.48s.01-.09.01-.14V48.53s0-.1,0-.1v-.59c0-.38-.33-.64-.71-.76v-20.74c0-.38-.29-.71-.71-.82l-50.72-13.99c-.1-.02-.21-.04-.32-.04H74.74c-.11,0-.22.02-.32.04l-50.73,13.99c-.42.11-.7.45-.7.82v21.2s0,.1.01.15c-.02.1-.02.2,0,.29.06.32.34.53.69.64v173.29h-8.41c-.56,0-1.02.39-1.02.87v374.02c0,.48.46.87,1.02.87h12.03v24.91c0,.48.46.87,1.03.87h351.14c.56,0,1.02-.39,1.02-.87v-24.91h6.67c.56,0,1.02-.39,1.02-.87v-281.97c0-.3-.18-.59-.49-.74Z"/>
          <path class="cls-97" d="m388.81,313.86l-7.22-3.77v-180.48s.01-.09.01-.14V48.3s0-.1,0-.1v-.59c0-.38-.33-.64-.71-.76v-20.74c0-.38-.29-.71-.71-.82l-50.72-13.99c-.1-.02-.21-.04-.32-.04H75.83c-.11,0-.22.02-.32.04l-50.73,13.99c-.42.11-.7.45-.7.82v21.2s0,.1.01.15c-.02.1-.02.2,0,.29.06.32.34.53.69.64v173.29h-8.41c-.56,0-1.02.39-1.02.87v374.02c0,.48.46.87,1.02.87h12.03v24.91c0,.48.46.87,1.03.87h351.14c.56,0,1.02-.39,1.02-.87v-24.91h6.67c.56,0,1.02-.39,1.02-.87v-281.97c0-.3-.18-.59-.49-.74Z"/>
          <path class="cls-6" d="m389.91,313.63l-7.22-3.77v-180.48s.01-.09.01-.14V48.08s0-.1,0-.1v-.59c0-.38-.33-.64-.71-.76v-20.74c0-.38-.29-.71-.71-.82l-50.72-13.99c-.1-.02-.21-.04-.32-.04H76.93c-.11,0-.22.02-.32.04l-50.73,13.99c-.42.11-.7.45-.7.82v21.2s0,.1.01.15c-.02.1-.02.2,0,.29.06.32.34.53.69.64v173.29h-8.41c-.56,0-1.02.39-1.02.87v374.02c0,.48.46.87,1.02.87h12.03v24.91c0,.48.46.87,1.03.87h351.14c.56,0,1.02-.39,1.02-.87v-24.91h6.67c.56,0,1.02-.39,1.02-.87v-281.97c0-.3-.18-.59-.49-.74Z"/>
          <path class="cls-99" d="m391,313.4l-7.22-3.77v-180.48s.01-.09.01-.14V47.85s0-.1,0-.1v-.59c0-.38-.33-.64-.71-.76v-20.74c0-.38-.29-.71-.71-.82l-50.73-13.99c-.1-.02-.21-.04-.32-.04H78.03c-.11,0-.22.02-.32.04l-50.73,13.99c-.42.11-.7.45-.7.82v21.2s0,.1.01.15c-.02.1-.02.2,0,.29.06.32.34.53.69.64v173.29h-8.41c-.56,0-1.02.39-1.02.87v374.02c0,.48.46.87,1.02.87h12.03v24.91c0,.48.46.87,1.03.87h351.14c.56,0,1.02-.39,1.02-.87v-24.91h6.67c.56,0,1.02-.39,1.02-.87v-281.97c0-.3-.18-.59-.49-.74Z"/>
          <path class="cls-91" d="m392.1,313.18l-7.22-3.77v-180.48s.01-.09.01-.14V47.62s0-.1,0-.1v-.59c0-.38-.33-.64-.71-.76v-20.74c0-.38-.29-.71-.71-.82l-50.73-13.99c-.1-.02-.21-.04-.32-.04H79.13c-.11,0-.22.02-.32.04l-50.73,13.99c-.42.11-.7.45-.7.82v21.2s0,.1.01.15c-.02.1-.02.2,0,.29.06.32.34.53.69.64v173.29h-8.41c-.56,0-1.02.39-1.02.87v374.02c0,.48.46.87,1.02.87h12.03v24.91c0,.48.46.87,1.03.87h351.14c.56,0,1.02-.39,1.02-.87v-24.91h6.67c.56,0,1.02-.39,1.02-.87v-281.97c0-.3-.18-.59-.49-.74Z"/>
          <path class="cls-98" d="m393.2,312.95l-7.22-3.77v-180.48s.01-.09.01-.14V47.39s0-.1,0-.1v-.59c0-.38-.33-.64-.71-.76v-20.74c0-.38-.29-.71-.71-.82l-50.73-13.99c-.1-.02-.21-.04-.32-.04H80.22c-.11,0-.22.02-.32.04l-50.73,13.99c-.42.11-.7.45-.7.82v21.2s0,.1.01.15c-.02.1-.02.2,0,.29.06.32.34.53.69.64v173.29h-8.41c-.56,0-1.02.39-1.02.87v374.02c0,.48.46.87,1.02.87h12.03v24.91c0,.48.46.87,1.03.87h351.14c.56,0,1.02-.39,1.02-.87v-24.91h6.67c.56,0,1.02-.39,1.02-.87v-281.97c0-.3-.18-.59-.49-.74Z"/>
          <path class="cls-92" d="m394.3,312.72l-7.22-3.77v-180.48s.01-.09.01-.14V47.17s0-.1,0-.1v-.59c0-.38-.33-.64-.71-.76v-20.74c0-.38-.29-.71-.71-.82l-50.73-13.99c-.1-.02-.21-.04-.32-.04H81.32c-.11,0-.22.02-.32.04l-50.73,13.99c-.42.11-.7.45-.7.82v21.2s0,.1.01.15c-.02.1-.02.2,0,.29.06.32.34.53.69.63v173.29h-8.41c-.56,0-1.02.39-1.02.87v374.02c0,.48.46.87,1.02.87h12.03v24.91c0,.48.46.87,1.03.87h351.14c.56,0,1.02-.39,1.02-.87v-24.91h6.67c.56,0,1.02-.39,1.02-.87v-281.97c0-.3-.18-.59-.49-.74Z"/>
          <path class="cls-110" d="m395.39,312.49l-7.22-3.77v-180.48s.01-.09.01-.14V46.94s0-.1,0-.1v-.59c0-.38-.33-.64-.71-.76v-20.74c0-.38-.29-.71-.71-.82l-50.73-13.99c-.1-.02-.21-.04-.32-.04H82.42c-.11,0-.22.01-.32.04l-50.73,13.99c-.42.11-.7.45-.7.82v21.2s0,.1.01.15c-.02.1-.02.2,0,.29.06.32.34.53.69.63v173.29h-8.41c-.56,0-1.02.39-1.02.87v374.02c0,.48.46.87,1.02.87h12.03v24.91c0,.48.46.87,1.03.87h351.14c.56,0,1.02-.39,1.02-.87v-24.91h6.67c.56,0,1.02-.39,1.02-.87v-281.97c0-.3-.18-.59-.49-.74Z"/>
          <path class="cls-79" d="m396.49,312.27l-7.22-3.77v-180.48s.01-.09.01-.14V46.71s0-.1,0-.1v-.59c0-.38-.33-.64-.71-.76v-20.74c0-.38-.29-.71-.71-.82l-50.73-13.99c-.1-.02-.21-.04-.32-.04H83.51c-.11,0-.22.01-.32.04l-50.73,13.99c-.42.11-.7.45-.7.82v21.2s0,.1.01.15c-.02.1-.02.2,0,.29.06.32.34.53.69.63v173.29h-8.41c-.56,0-1.02.39-1.02.87v374.02c0,.48.46.87,1.02.87h12.03v24.91c0,.48.46.87,1.03.87h351.14c.56,0,1.02-.39,1.02-.87v-24.91h6.67c.56,0,1.02-.39,1.02-.87v-281.97c0-.3-.18-.59-.49-.74Z"/>
          <path class="cls-4" d="m397.59,312.04l-7.22-3.77V127.79s.01-.09.01-.14V46.49s0-.1,0-.1v-.59c0-.38-.33-.64-.71-.76v-20.74c0-.38-.29-.71-.71-.82l-50.73-13.99c-.1-.02-.21-.04-.32-.04H84.61c-.11,0-.22.01-.32.04l-50.73,13.99c-.42.11-.7.45-.7.82v21.2s0,.1.01.15c-.02.1-.02.2,0,.29.06.32.34.53.69.63v173.29h-8.41c-.56,0-1.02.39-1.02.87v374.02c0,.48.46.87,1.02.87h12.03v24.91c0,.48.46.87,1.03.87h351.14c.56,0,1.02-.39,1.02-.87v-24.91h6.67c.56,0,1.02-.39,1.02-.87v-281.97c0-.3-.18-.59-.49-.74Z"/>
          <path class="cls-116" d="m398.68,311.81l-7.22-3.77V127.56s.01-.09.01-.14V46.26s0-.1,0-.1v-.59c0-.38-.33-.64-.71-.76v-20.74c0-.38-.29-.71-.71-.82l-50.73-13.99c-.1-.02-.21-.04-.32-.04H85.71c-.11,0-.22.01-.32.04l-50.73,13.99c-.42.11-.7.45-.7.82v21.2s0,.1.01.15c-.02.1-.02.2,0,.29.06.32.34.53.69.63v173.29h-8.41c-.56,0-1.02.39-1.02.87v374.02c0,.48.46.87,1.02.87h12.04v24.91c0,.48.46.87,1.03.87h351.14c.56,0,1.02-.39,1.02-.87v-24.91h6.67c.56,0,1.02-.39,1.02-.87v-281.97c0-.3-.18-.59-.49-.74Z"/>
          <path class="cls-90" d="m399.78,311.58l-7.22-3.77V127.34s.01-.09.01-.14V46.03s0-.1,0-.1v-.59c0-.38-.33-.64-.71-.76v-20.74c0-.38-.29-.71-.71-.82l-50.73-13.99c-.1-.02-.21-.04-.32-.04H86.81c-.11,0-.22.01-.32.04l-50.73,13.99c-.42.11-.7.45-.7.82v21.2s0,.1.01.15c-.02.1-.02.2,0,.29.06.32.34.53.69.63v173.29h-8.41c-.56,0-1.02.39-1.02.87v374.02c0,.48.46.87,1.02.87h12.04v24.91c0,.48.46.87,1.03.87h351.14c.56,0,1.02-.39,1.02-.87v-24.91h6.67c.56,0,1.02-.39,1.02-.87v-281.97c0-.3-.18-.59-.49-.74Z"/>
          <path class="cls-89" d="m400.88,311.36l-7.22-3.77V127.11s.01-.09.01-.14V45.8s0-.1,0-.1v-.59c0-.38-.33-.64-.71-.76v-20.74c0-.38-.29-.71-.71-.82l-50.73-13.99c-.1-.02-.21-.04-.32-.04H87.9c-.11,0-.22.01-.32.04l-50.73,13.99c-.42.11-.7.45-.7.82v21.2s0,.1.01.15c-.02.1-.02.2,0,.29.06.32.34.53.69.63v173.29h-8.41c-.56,0-1.02.39-1.02.87v374.02c0,.48.46.87,1.02.87h12.04v24.91c0,.48.46.87,1.03.87h351.14c.56,0,1.02-.39,1.02-.87v-24.91h6.67c.56,0,1.02-.39,1.02-.87v-281.97c0-.3-.18-.59-.49-.74Z"/>
          <path class="cls-105" d="m401.98,311.13l-7.22-3.77V126.88s.01-.09.01-.14V45.58s0-.1,0-.1v-.59c0-.38-.33-.64-.71-.76v-20.74c0-.38-.29-.71-.71-.82l-50.73-13.99c-.1-.03-.21-.04-.32-.04H89c-.11,0-.22.01-.32.04l-50.73,13.99c-.42.11-.7.45-.7.82v21.2s0,.1.01.15c-.02.1-.02.2,0,.29.06.32.34.53.69.63v173.29h-8.41c-.56,0-1.02.39-1.02.87v374.02c0,.48.46.87,1.02.87h12.04v24.91c0,.48.46.87,1.03.87h351.14c.56,0,1.02-.39,1.02-.87v-24.91h6.67c.56,0,1.02-.39,1.02-.87v-281.97c0-.3-.18-.59-.49-.74Z"/>
          <path class="cls-102" d="m403.07,310.9l-7.22-3.77V126.66s.01-.09.01-.14V45.35s0-.1,0-.1v-.59c0-.38-.33-.64-.71-.76v-20.74c0-.38-.29-.71-.71-.82l-50.73-13.99c-.1-.03-.21-.04-.32-.04H90.1c-.11,0-.22.01-.32.04l-50.73,13.99c-.42.11-.7.45-.7.82v21.2s0,.1.01.15c-.02.1-.02.2,0,.29.06.32.34.53.69.63v173.29h-8.41c-.56,0-1.02.39-1.02.87v374.02c0,.48.46.87,1.02.87h12.04v24.91c0,.48.46.87,1.03.87h351.14c.56,0,1.02-.39,1.02-.87v-24.91h6.67c.56,0,1.02-.39,1.02-.87v-281.97c0-.3-.18-.59-.49-.74Z"/>
          <path class="cls-51" d="m404.17,310.67l-7.22-3.77V126.43s.01-.09.01-.14V45.12s0-.1,0-.1v-.59c0-.38-.33-.64-.71-.76v-20.74c0-.38-.29-.71-.71-.82l-50.73-13.99c-.1-.03-.21-.04-.32-.04H91.19c-.11,0-.22.01-.32.04l-50.73,13.99c-.42.11-.7.45-.7.82v21.2s0,.1.01.15c-.02.1-.02.2,0,.29.06.32.34.53.69.63v173.3h-8.41c-.56,0-1.02.39-1.02.87v374.02c0,.48.46.87,1.02.87h12.04v24.91c0,.48.46.87,1.02.87h351.14c.56,0,1.02-.39,1.02-.87v-24.91h6.67c.56,0,1.02-.39,1.02-.87v-281.97c0-.3-.18-.59-.49-.74Z"/>
          <path class="cls-60" d="m405.27,310.45l-7.22-3.77V126.2s.01-.09.01-.14V44.89s0-.1,0-.1v-.59c0-.38-.33-.64-.71-.76v-20.74c0-.38-.29-.71-.71-.82l-50.73-13.99c-.1-.03-.21-.04-.32-.04H92.29c-.11,0-.22.01-.32.04l-50.73,13.99c-.42.11-.7.45-.7.82v21.2s0,.1.01.15c-.02.1-.02.2,0,.29.06.32.34.53.69.63v173.3h-8.41c-.56,0-1.02.39-1.02.87v374.02c0,.48.46.87,1.02.87h12.04v24.91c0,.48.46.87,1.02.87h351.14c.56,0,1.02-.39,1.02-.87v-24.91h6.67c.56,0,1.02-.39,1.02-.87v-281.97c0-.3-.18-.59-.49-.74Z"/>
          <path class="cls-60" d="m406.36,310.22l-7.22-3.77V125.97s.01-.09.01-.14V44.67s0-.1,0-.1v-.59c0-.38-.33-.64-.71-.76v-20.74c0-.38-.29-.71-.71-.82l-50.73-13.99c-.1-.03-.21-.04-.32-.04H93.39c-.11,0-.22.01-.31.04l-50.73,13.99c-.42.11-.7.45-.7.82v21.2s0,.1.01.15c-.02.1-.02.2,0,.29.06.32.34.53.69.63v173.3h-8.41c-.56,0-1.02.39-1.02.87v374.02c0,.48.46.87,1.02.87h12.04v24.91c0,.48.46.87,1.02.87h351.14c.56,0,1.02-.39,1.02-.87v-24.91h6.67c.56,0,1.02-.39,1.02-.87v-281.97c0-.3-.18-.59-.49-.74Z"/>
          <path class="cls-88" d="m407.46,309.99l-7.22-3.77V125.75s.01-.09.01-.14V44.44s0-.1,0-.1v-.59c0-.38-.33-.64-.71-.76v-20.74c0-.38-.29-.71-.71-.82l-50.73-13.99c-.1-.03-.21-.04-.32-.04H94.49c-.11,0-.22.01-.31.04l-50.73,13.99c-.42.11-.7.45-.7.82v21.2s0,.1.01.15c-.02.1-.02.2,0,.29.06.32.34.53.69.63v173.3h-8.41c-.56,0-1.02.39-1.02.87v374.02c0,.48.46.87,1.02.87h12.04v24.91c0,.48.46.87,1.02.87h351.14c.56,0,1.02-.39,1.02-.87v-24.91h6.67c.56,0,1.02-.39,1.02-.87v-281.97c0-.3-.18-.59-.49-.74Z"/>
          <path class="cls-78" d="m408.56,309.77l-7.22-3.77V125.52s.01-.09.01-.14V44.21s0-.1,0-.1v-.59c0-.38-.33-.64-.71-.76v-20.74c0-.38-.29-.71-.71-.82l-50.73-13.99c-.1-.03-.21-.04-.32-.04H95.58c-.11,0-.22.01-.31.04l-50.73,13.99c-.42.11-.7.45-.7.82v21.2s0,.1.01.15c-.02.1-.02.2,0,.29.06.32.34.53.69.63v173.3h-8.41c-.56,0-1.02.39-1.02.87v374.02c0,.48.46.87,1.02.87h12.04v24.91c0,.48.46.87,1.02.87h351.14c.56,0,1.02-.39,1.02-.87v-24.91h6.67c.56,0,1.02-.39,1.02-.87v-281.97c0-.3-.18-.59-.49-.74Z"/>
          <path class="cls-76" d="m409.66,309.54l-7.22-3.77V125.29s.01-.09.01-.14V43.98s0-.1,0-.1v-.59c0-.38-.33-.64-.71-.76v-20.74c0-.38-.29-.71-.71-.82l-50.73-13.99c-.1-.03-.21-.04-.32-.04H96.68c-.11,0-.22.01-.31.04l-50.73,13.99c-.42.11-.7.45-.7.82v21.2s0,.1.01.15c-.02.1-.02.2,0,.29.06.32.34.53.69.63v173.3h-8.41c-.56,0-1.02.39-1.02.87v374.02c0,.48.46.87,1.02.87h12.04v24.91c0,.48.46.87,1.02.87h351.14c.56,0,1.02-.39,1.02-.87v-24.91h6.67c.56,0,1.02-.39,1.02-.87v-281.97c0-.3-.18-.59-.49-.74Z"/>
          <path class="cls-81" d="m410.75,309.31l-7.22-3.77V125.06s.01-.09.01-.14V43.76s0-.1,0-.1v-.59c0-.38-.33-.64-.71-.76v-20.74c0-.38-.29-.71-.71-.82l-50.73-13.99c-.1-.03-.21-.04-.32-.04H97.78c-.11,0-.22.01-.31.04l-50.73,13.99c-.42.11-.7.45-.7.82v21.2s0,.1.01.15c-.02.1-.02.2,0,.29.06.32.34.53.69.63v173.3h-8.41c-.56,0-1.02.39-1.02.87v374.02c0,.48.46.87,1.02.87h12.04v24.91c0,.48.46.87,1.02.87h351.14c.56,0,1.03-.39,1.03-.87v-24.91h6.67c.56,0,1.03-.39,1.03-.87v-281.97c0-.3-.18-.59-.49-.74Z"/>
          <path class="cls-2" d="m411.85,309.08l-7.22-3.77V124.84s.01-.09.01-.14V43.53s0-.1,0-.1v-.59c0-.38-.33-.64-.71-.76v-20.74c0-.38-.29-.71-.71-.82l-50.73-13.99c-.1-.03-.21-.04-.32-.04H98.88c-.11,0-.21.01-.31.04l-50.73,13.99c-.42.11-.7.45-.7.82v21.2s0,.1.01.15c-.02.1-.02.2,0,.29.06.32.34.53.69.63v173.3h-8.41c-.56,0-1.02.39-1.02.87v374.02c0,.48.46.87,1.02.87h12.04v24.91c0,.48.46.87,1.02.87h351.14c.56,0,1.03-.39,1.03-.87v-24.91h6.67c.56,0,1.03-.39,1.03-.87v-281.97c0-.3-.18-.59-.49-.74Z"/>
          <path class="cls-112" d="m412.95,308.86l-7.22-3.77V124.61s.01-.09.01-.14V43.3s0-.1,0-.1v-.59c0-.38-.33-.64-.71-.76v-20.74c0-.38-.29-.71-.71-.82l-50.73-13.99c-.1-.03-.21-.04-.32-.04H99.97c-.11,0-.21.01-.31.04l-50.73,13.99c-.42.11-.7.45-.7.82v21.2s0,.1.01.15c-.02.1-.02.2,0,.29.06.32.34.53.69.63v173.3h-8.41c-.56,0-1.02.39-1.02.87v374.02c0,.48.46.87,1.02.87h12.04v24.91c0,.48.46.87,1.02.87h351.14c.56,0,1.03-.39,1.03-.87v-24.91h6.67c.56,0,1.03-.39,1.03-.87v-281.97c0-.3-.18-.59-.49-.74Z"/>
          <path class="cls-54" d="m414.04,308.63l-7.22-3.77V124.38s.01-.09.01-.14V43.08s0-.1,0-.1v-.59c0-.38-.33-.64-.71-.76v-20.74c0-.38-.29-.71-.71-.82l-50.73-13.99c-.1-.03-.21-.04-.32-.04H101.07c-.11,0-.21.01-.31.04l-50.73,13.99c-.42.11-.7.45-.7.82v21.2s0,.1.01.15c-.02.1-.02.2,0,.29.06.32.34.53.69.63v173.3h-8.41c-.56,0-1.02.39-1.02.87v374.02c0,.48.46.87,1.02.87h12.04v24.91c0,.48.46.87,1.02.87h351.14c.56,0,1.03-.39,1.03-.87v-24.91h6.67c.56,0,1.03-.39,1.03-.87v-281.97c0-.3-.18-.59-.49-.74Z"/>
          <path class="cls-95" d="m415.14,308.4l-7.22-3.77V124.15s.01-.09.01-.14V42.85s0-.1,0-.1v-.59c0-.38-.33-.64-.71-.76v-20.74c0-.38-.29-.71-.71-.82l-50.73-13.99c-.1-.03-.21-.04-.32-.04H102.17c-.11,0-.21.01-.31.04l-50.73,13.99c-.42.11-.7.45-.7.82v21.2s0,.1.01.15c-.02.1-.02.2,0,.29.06.32.34.53.69.63v173.3h-8.41c-.56,0-1.02.39-1.02.87v374.02c0,.48.46.87,1.02.87h12.04v24.91c0,.48.46.87,1.02.87h351.14c.56,0,1.03-.39,1.03-.87v-24.91h6.67c.56,0,1.03-.39,1.03-.87v-281.97c0-.3-.18-.59-.49-.74Z"/>
          <path class="cls-125" d="m416.24,308.17l-7.22-3.77V123.93s.01-.09.01-.14V42.62s0-.1,0-.1v-.59c0-.38-.33-.64-.71-.76v-20.74c0-.38-.29-.71-.71-.82l-50.73-13.99c-.1-.03-.21-.04-.32-.04H103.26c-.11,0-.21.01-.31.04l-50.73,13.99c-.42.11-.7.45-.7.82v21.2s0,.1.01.15c-.02.1-.02.2,0,.29.06.32.34.53.69.63v173.3h-8.41c-.56,0-1.02.39-1.02.87v374.02c0,.48.46.87,1.02.87h12.04v24.91c0,.48.46.87,1.02.87h351.14c.56,0,1.03-.39,1.03-.87v-24.91h6.67c.56,0,1.03-.39,1.03-.87v-281.97c0-.3-.18-.59-.49-.74Z"/>
          <path class="cls-56" d="m417.34,307.95l-7.22-3.77V123.7s.01-.09.01-.14V42.39s0-.1,0-.1v-.59c0-.38-.33-.64-.71-.76v-20.74c0-.38-.29-.71-.71-.82l-50.73-13.99c-.1-.03-.21-.04-.32-.04H104.36c-.11,0-.21.01-.31.04l-50.73,13.99c-.42.11-.7.45-.7.82v21.2s0,.1.01.15c-.02.1-.02.2,0,.29.06.32.34.53.69.63v173.3h-8.41c-.56,0-1.02.39-1.02.87v374.02c0,.48.46.87,1.02.87h12.04v24.91c0,.48.46.87,1.02.87h351.14c.56,0,1.03-.39,1.03-.87v-24.91h6.67c.56,0,1.03-.39,1.03-.87v-281.97c0-.3-.18-.59-.49-.74Z"/>
          <path class="cls-86" d="m418.43,307.72l-7.22-3.77V123.47s.01-.09.01-.14V42.17s0-.1,0-.1v-.59c0-.38-.33-.64-.71-.76v-20.74c0-.38-.29-.71-.71-.82l-50.73-13.99c-.1-.03-.21-.04-.32-.04H105.46c-.11,0-.21.01-.31.04l-50.73,13.99c-.42.11-.7.45-.7.82v21.2s0,.1.01.15c-.02.1-.02.2,0,.29.06.32.34.53.69.63v173.3h-8.41c-.56,0-1.02.39-1.02.87v374.02c0,.48.46.87,1.02.87h12.04v24.91c0,.48.46.87,1.02.87h351.14c.56,0,1.03-.39,1.03-.87v-24.91h6.67c.56,0,1.03-.39,1.03-.87v-281.97c0-.3-.18-.59-.49-.74Z"/>
          <path class="cls-67" d="m419.53,307.49l-7.22-3.77V123.25s.01-.09.01-.14V41.94s0-.1,0-.1v-.59c0-.38-.33-.64-.71-.76v-20.74c0-.38-.29-.71-.71-.82l-50.73-13.99c-.1-.03-.21-.04-.32-.04H106.56c-.11,0-.21.01-.31.04l-50.73,13.99c-.42.11-.7.45-.7.82v21.2s0,.1.01.15c-.02.1-.02.2,0,.29.06.32.34.53.69.63v173.3h-8.41c-.56,0-1.02.39-1.02.87v374.02c0,.48.46.87,1.02.87h12.04v24.91c0,.48.46.87,1.02.87h351.14c.56,0,1.03-.39,1.03-.87v-24.91h6.67c.56,0,1.03-.39,1.03-.87v-281.97c0-.3-.18-.59-.49-.74Z"/>
          <path class="cls-113" d="m420.63,307.26l-7.22-3.77V123.02s.01-.09.01-.14V41.71s0-.1,0-.1v-.59c0-.38-.33-.64-.71-.76v-20.74c0-.38-.29-.71-.71-.82l-50.73-13.99c-.1-.03-.21-.04-.32-.04H107.65c-.11,0-.21.01-.31.04l-50.73,13.99c-.42.11-.7.45-.7.82v21.2s0,.1.01.15c-.02.1-.02.2,0,.29.06.32.34.53.69.63v173.3h-8.41c-.56,0-1.02.39-1.02.87v374.02c0,.48.46.87,1.02.87h12.04v24.91c0,.48.46.87,1.02.87h351.14c.56,0,1.03-.39,1.03-.87v-24.91h6.67c.56,0,1.03-.39,1.03-.87v-281.97c0-.3-.18-.59-.49-.74Z"/>
          <path class="cls-93" d="m421.73,307.04l-7.22-3.77V122.79s.01-.09.01-.14V41.48s0-.1,0-.1v-.59c0-.38-.33-.64-.71-.76v-20.74c0-.38-.29-.71-.71-.82l-50.73-13.99c-.1-.03-.21-.04-.32-.04H108.75c-.11,0-.21.01-.31.04l-50.73,13.99c-.42.11-.7.45-.7.82v21.2s0,.1.01.15c-.02.1-.02.2,0,.29.06.32.34.53.69.63v173.3h-8.41c-.56,0-1.02.39-1.02.87v374.02c0,.48.46.87,1.02.87h12.04v24.91c0,.48.46.87,1.02.87h351.14c.56,0,1.03-.39,1.03-.87v-24.91h6.67c.56,0,1.03-.39,1.03-.87v-281.97c0-.3-.18-.59-.49-.74Z"/>
          <path class="cls-109" d="m422.82,306.81l-7.22-3.77V122.56s.01-.09.01-.14V41.26s0-.1,0-.1v-.59c0-.38-.33-.64-.71-.76v-20.74c0-.38-.29-.71-.71-.82l-50.73-13.99c-.1-.03-.21-.04-.32-.04H109.85c-.11,0-.21.01-.31.04l-50.73,13.99c-.42.11-.7.45-.7.82v21.2s0,.1.01.15c-.02.1-.02.2,0,.29.06.32.34.53.69.63v173.3h-8.41c-.56,0-1.02.39-1.02.87v374.02c0,.48.46.87,1.02.87h12.04v24.91c0,.48.46.87,1.02.87h351.14c.56,0,1.03-.39,1.03-.87v-24.91h6.67c.56,0,1.03-.39,1.03-.87v-281.97c0-.3-.18-.59-.49-.74Z"/>
          <path class="cls-127" d="m423.92,306.58l-7.22-3.77V122.34s.01-.09.01-.14V41.03s0-.1,0-.1v-.59c0-.38-.33-.64-.71-.76v-20.74c0-.38-.29-.71-.71-.82l-50.73-13.99c-.1-.03-.21-.04-.32-.04H110.94c-.11,0-.21.01-.31.04l-50.73,13.99c-.42.11-.7.45-.7.82v21.2s0,.1.01.15c-.02.1-.02.2,0,.29.06.32.34.53.69.63v173.3h-8.41c-.56,0-1.02.39-1.02.87v374.02c0,.48.46.87,1.02.87h12.04v24.91c0,.48.46.87,1.02.87h351.14c.56,0,1.03-.39,1.03-.87v-24.91h6.67c.56,0,1.03-.39,1.03-.87v-281.97c0-.3-.18-.59-.49-.74Z"/>
          <path class="cls-52" d="m425.02,306.36l-7.22-3.77V122.11s.01-.09.01-.14V40.8s0-.1,0-.1v-.59c0-.38-.33-.64-.71-.76v-20.74c0-.38-.29-.71-.71-.82l-50.73-13.99c-.1-.03-.21-.04-.32-.04H112.04c-.11,0-.21.01-.31.04l-50.73,13.99c-.42.11-.7.45-.7.82v21.2s0,.1.01.15c-.02.1-.02.2,0,.29.06.32.34.53.69.63v173.3h-8.41c-.56,0-1.02.39-1.02.87v374.02c0,.48.46.87,1.02.87h12.04v24.91c0,.48.46.87,1.02.87h351.14c.56,0,1.03-.39,1.03-.87v-24.91h6.67c.56,0,1.03-.39,1.03-.87v-281.97c0-.3-.18-.59-.49-.74Z"/>
          <path class="cls-130" d="m426.11,306.13l-7.22-3.77V121.88s.01-.09.01-.14V40.57s0-.1,0-.1v-.59c0-.38-.33-.64-.71-.76v-20.74c0-.38-.29-.71-.7-.82l-50.73-13.99c-.1-.03-.21-.04-.32-.04H113.14c-.11,0-.21.01-.31.04l-50.73,13.99c-.42.11-.7.45-.7.82v21.2s0,.1.01.15c-.02.1-.02.2,0,.29.06.32.34.53.69.63v173.3h-8.41c-.56,0-1.02.39-1.02.87v374.02c0,.48.46.87,1.02.87h12.04v24.91c0,.48.46.87,1.02.87h351.14c.56,0,1.03-.39,1.03-.87v-24.91h6.67c.56,0,1.03-.39,1.03-.87v-281.97c0-.3-.18-.59-.49-.74Z"/>
          <path class="cls-85" d="m427.21,305.9l-7.22-3.77V121.65s.01-.09.01-.14V40.35s0-.1,0-.1v-.59c0-.38-.33-.64-.71-.76v-20.74c0-.38-.29-.71-.7-.82l-50.73-13.99c-.1-.03-.21-.04-.32-.04H114.24c-.11,0-.21.01-.31.04l-50.73,13.99c-.42.11-.7.45-.7.82v21.2s0,.1.01.15c-.02.1-.02.2,0,.29.06.32.34.53.69.63v173.3h-8.41c-.56,0-1.02.39-1.02.87v374.02c0,.48.46.87,1.02.87h12.04v24.91c0,.48.46.87,1.02.87h351.14c.56,0,1.03-.39,1.03-.87v-24.91h6.67c.56,0,1.03-.39,1.03-.87v-281.97c0-.3-.18-.59-.49-.74Z"/>
          <path class="cls-122" d="m428.31,305.67l-7.22-3.77V121.43s.01-.09.01-.14V40.12s0-.1,0-.1v-.59c0-.38-.33-.64-.71-.76v-20.74c0-.38-.29-.71-.7-.82l-50.73-13.99c-.1-.03-.21-.04-.32-.04H115.33c-.11,0-.21.01-.31.04l-50.73,13.99c-.42.11-.7.45-.7.82v21.2s0,.1.01.15c-.02.1-.02.2,0,.29.06.32.34.53.69.63v173.3h-8.41c-.56,0-1.02.39-1.02.87v374.02c0,.48.46.87,1.02.87h12.04v24.91c0,.48.46.87,1.02.87h351.14c.56,0,1.03-.39,1.03-.87v-24.91h6.67c.56,0,1.03-.39,1.03-.87v-281.97c0-.3-.18-.59-.49-.74Z"/>
          <path class="cls-126" d="m429.41,305.45l-7.22-3.77V121.2s.01-.09.01-.14V39.89s0-.1,0-.1v-.59c0-.38-.33-.64-.71-.76v-20.74c0-.38-.29-.71-.7-.82l-50.73-13.99c-.1-.03-.21-.04-.32-.04H116.43c-.11,0-.21.01-.31.04l-50.73,13.99c-.42.11-.7.45-.7.82v21.2s0,.1.01.15c-.02.1-.02.2,0,.29.06.32.34.53.69.63v173.3h-8.41c-.56,0-1.02.39-1.02.87v374.02c0,.48.46.87,1.02.87h12.04v24.91c0,.48.46.87,1.02.87h351.14c.56,0,1.03-.39,1.03-.87v-24.91h6.67c.56,0,1.03-.39,1.03-.87v-281.97c0-.3-.18-.59-.49-.74Z"/>
          <path class="cls-117" d="m430.5,305.22l-7.22-3.77V120.97s.01-.09.01-.14V39.66s0-.1,0-.1v-.59c0-.38-.33-.64-.71-.76v-20.74c0-.38-.29-.71-.7-.82l-50.73-13.99c-.1-.03-.21-.04-.32-.04H117.53c-.11,0-.21.01-.31.04l-50.73,13.99c-.42.11-.7.45-.7.82v21.2s0,.1.01.15c-.02.1-.02.2,0,.29.06.32.34.53.69.63v173.3h-8.41c-.56,0-1.02.39-1.02.87v374.02c0,.48.46.87,1.02.87h12.04v24.91c0,.48.46.87,1.02.87h351.14c.56,0,1.03-.39,1.03-.87v-24.91h6.67c.56,0,1.03-.39,1.03-.87v-281.97c0-.3-.19-.59-.49-.74Z"/>
          <path class="cls-50" d="m431.6,304.99l-7.22-3.77V120.74s.01-.09.01-.14V39.44s0-.1,0-.1v-.59c0-.38-.33-.64-.72-.76v-20.74c0-.38-.29-.71-.7-.82l-50.73-13.99c-.1-.03-.21-.04-.32-.04H118.62c-.11,0-.21.01-.31.04l-50.73,13.99c-.42.11-.7.45-.7.82v21.2s0,.1.01.15c-.02.1-.02.2,0,.29.06.32.34.53.69.63v173.3h-8.41c-.56,0-1.02.39-1.02.87v374.02c0,.48.46.87,1.02.87h12.04v24.91c0,.48.46.87,1.02.87h351.14c.56,0,1.03-.39,1.03-.87v-24.91h6.67c.56,0,1.03-.39,1.03-.87v-281.97c0-.3-.19-.59-.49-.74Z"/>
          <path class="cls-55" d="m432.7,304.76l-7.22-3.77V120.52s.01-.09.01-.14V39.21s0-.1,0-.1v-.59c0-.38-.33-.64-.72-.76v-20.74c0-.38-.29-.71-.7-.82l-50.73-13.99c-.1-.03-.21-.04-.32-.04H119.72c-.11,0-.21.01-.31.04l-50.73,13.99c-.42.11-.7.45-.7.82v21.2s0,.1.01.15c-.02.1-.02.2,0,.29.06.32.34.53.69.63v173.3h-8.41c-.56,0-1.02.39-1.02.87v374.02c0,.48.46.87,1.02.87h12.04v24.91c0,.48.46.87,1.02.87h351.14c.56,0,1.03-.39,1.03-.87v-24.91h6.67c.56,0,1.03-.39,1.03-.87v-281.97c0-.3-.19-.59-.49-.74Z"/>
          <path class="cls-77" d="m433.79,304.54l-7.22-3.77V120.29s.01-.09.01-.14V38.98s0-.1,0-.1v-.59c0-.38-.33-.64-.72-.76v-20.74c0-.38-.29-.71-.7-.82l-50.73-13.99c-.1-.03-.21-.04-.32-.04H120.82c-.11,0-.21.01-.31.04l-50.73,13.99c-.42.11-.7.45-.7.82v21.2s0,.1.01.15c-.02.1-.02.2,0,.29.06.32.34.53.69.63v173.3h-8.41c-.56,0-1.02.39-1.02.87v374.02c0,.48.46.87,1.02.87h12.04v24.91c0,.48.46.87,1.02.87h351.14c.56,0,1.03-.39,1.03-.87v-24.91h6.67c.56,0,1.03-.39,1.03-.87v-281.97c0-.3-.19-.59-.49-.74Z"/>
          <path class="cls-100" d="m434.89,304.31l-7.22-3.77V120.06s.01-.09.01-.14V38.76s0-.1,0-.1v-.59c0-.38-.33-.64-.72-.76v-20.74c0-.38-.29-.71-.7-.82l-50.73-13.99c-.1-.03-.21-.04-.32-.04H121.92c-.11,0-.21.01-.31.04l-50.73,13.99c-.42.11-.7.45-.7.82v21.2s0,.1.01.15c-.02.1-.02.2,0,.29.06.32.34.53.69.63v173.3h-8.41c-.56,0-1.02.39-1.02.87v374.02c0,.48.46.87,1.02.87h12.04v24.91c0,.48.46.87,1.02.87h351.14c.56,0,1.03-.39,1.03-.87v-24.91h6.67c.56,0,1.03-.39,1.03-.87v-281.97c0-.3-.19-.59-.49-.74Z"/>
          <path class="cls-80" d="m435.99,304.08l-7.22-3.77V119.84s.01-.09.01-.14V38.53s0-.1,0-.1v-.59c0-.38-.33-.64-.72-.76v-20.74c0-.38-.29-.71-.7-.82l-50.73-13.99c-.1-.03-.21-.04-.32-.04H123.01c-.11,0-.21.01-.31.04l-50.73,13.99c-.42.11-.7.45-.7.82v21.2s0,.1.01.15c-.02.1-.02.2,0,.29.06.32.34.53.69.63v173.3h-8.41c-.56,0-1.02.39-1.02.87v374.02c0,.48.46.87,1.02.87h12.04v24.91c0,.48.46.87,1.02.87h351.14c.56,0,1.03-.39,1.03-.87v-24.91h6.67c.56,0,1.03-.39,1.03-.87v-281.97c0-.3-.19-.59-.49-.74Z"/>
          <path class="cls-128" d="m437.09,303.85l-7.22-3.77V119.61s.01-.09.01-.14V38.3s0-.1,0-.1v-.59c0-.38-.33-.64-.72-.76v-20.74c0-.38-.29-.71-.7-.82l-50.73-13.99c-.1-.03-.21-.04-.32-.04H124.11c-.11,0-.21.01-.31.04l-50.73,13.99c-.42.11-.7.45-.7.82v21.2s0,.1.01.15c-.02.1-.02.2,0,.29.05.32.34.53.69.63v173.3h-8.41c-.56,0-1.02.39-1.02.87v374.02c0,.48.46.87,1.02.87h12.04v24.91c0,.48.46.87,1.02.87h351.14c.56,0,1.03-.39,1.03-.87v-24.91h6.67c.56,0,1.03-.39,1.03-.87v-281.97c0-.3-.19-.59-.49-.74Z"/>
        </g>
        <rect class="cls-72" x="77.73" y="565.93" width="351.14" height="28.18"/>
        <rect class="cls-71" x="77.73" y="588.71" width="351.14" height="22.29"/>
        <path class="cls-37" d="m428.85,565.15H77.73c-.5,0-.91.35-.91.78v45.07c0,.43.41.78.91.78h351.13c.5,0,.92-.35.92-.78v-45.07c0-.43-.41-.78-.92-.78Z"/>
        <path class="cls-121" d="m428.14,36.26v467.16c0,45.16-43.23,81.8-96.54,81.8h-161.67c-53.31,0-96.54-36.63-96.54-81.8V36.26h354.75Z"/>
        <path class="cls-73" d="m428.84,36.26v467.16c0,45.16-43.23,81.8-96.54,81.8h-161.66c-53.32,0-96.54-36.63-96.54-81.8V36.26h354.74Z"/>
        <rect class="cls-14" x="74.8" y="36.94" width="354.06" height="81.17"/>
        <g class="cls-47">
          <path class="cls-95" d="m429.55,36.26v467.16c0,45.16-43.23,81.8-96.55,81.8h-161.66c-53.32,0-96.54-36.63-96.54-81.8V36.26h354.75Z"/>
          <path class="cls-2" d="m427.72,36.88v465.11c0,44.97-42.98,81.44-95.99,81.44h-159.12c-53.01,0-95.98-36.47-95.98-81.44V36.88h351.09Z"/>
          <path class="cls-78" d="m425.89,37.51v463.07c0,44.77-42.73,81.09-95.43,81.09h-156.58c-52.7,0-95.42-36.31-95.42-81.09V37.51h347.43Z"/>
          <path class="cls-51" d="m424.06,38.13v461.03c0,44.58-42.48,80.73-94.87,80.73h-154.04c-52.39,0-94.86-36.16-94.86-80.73V38.13h343.77Z"/>
          <path class="cls-105" d="m422.23,38.75v458.99c0,44.38-42.23,80.38-94.31,80.38h-151.5c-52.08,0-94.3-36-94.3-80.38V38.75h340.11Z"/>
          <path class="cls-116" d="m420.4,39.37v456.94c0,44.18-41.98,80.02-93.76,80.02h-148.96c-51.77,0-93.74-35.84-93.74-80.02V39.37h336.45Z"/>
          <path class="cls-110" d="m418.57,39.99v454.9c0,43.99-41.72,79.66-93.2,79.66h-146.42c-51.46,0-93.18-35.68-93.18-79.66V39.99h332.79Z"/>
          <path class="cls-91" d="m416.74,40.62v452.86c0,43.79-41.47,79.31-92.64,79.31h-143.87c-51.15,0-92.62-35.52-92.62-79.31V40.62h329.13Z"/>
          <path class="cls-97" d="m414.91,41.24v450.82c0,43.59-41.22,78.95-92.08,78.95h-141.33c-50.84,0-92.06-35.36-92.06-78.95V41.24h325.47Z"/>
          <path class="cls-8" d="m413.08,41.86v448.77c0,43.4-40.97,78.6-91.52,78.6h-138.79c-50.53,0-91.5-35.2-91.5-78.6V41.86h321.81Z"/>
          <path class="cls-57" d="m411.25,42.48v446.73c0,43.2-40.72,78.24-90.96,78.24h-136.25c-50.23,0-90.94-35.04-90.94-78.24V42.48h318.15Z"/>
          <path class="cls-104" d="m409.42,43.1v444.69c0,43-40.47,77.89-90.4,77.89h-133.71c-49.92,0-90.38-34.88-90.38-77.89V43.1h314.49Z"/>
          <path class="cls-129" d="m407.59,43.73v442.65c0,42.81-40.22,77.53-89.84,77.53h-131.17c-49.61,0-89.82-34.72-89.82-77.53V43.73h310.83Z"/>
          <path class="cls-10" d="m405.76,44.35v440.6c0,42.61-39.97,77.18-89.28,77.18h-128.63c-49.3,0-89.26-34.56-89.26-77.18V44.35h307.17Z"/>
        </g>
        <g>
          <polygon class="cls-106" points="436.55 303.24 436.55 304.55 435.1 585.21 63.94 585.21 63.94 211.2 260.57 211.2 436.55 303.24"/>
          <g class="cls-47">
            <polygon class="cls-95" points="436.55 303.24 436.55 585.21 65.39 585.21 65.39 211.2 260.57 211.2 436.55 303.24"/>
            <polygon class="cls-2" points="434.67 304.07 434.67 581.97 68.81 581.97 68.81 211.99 260.32 211.99 434.67 304.07"/>
            <polygon class="cls-78" points="432.79 304.9 432.79 578.73 72.23 578.73 72.23 212.78 260.06 212.78 432.79 304.9"/>
            <polygon class="cls-51" points="430.92 305.73 430.92 575.48 75.65 575.48 75.65 213.56 259.8 213.56 430.92 305.73"/>
            <polygon class="cls-105" points="429.04 306.56 429.04 572.24 79.07 572.24 79.07 214.35 259.54 214.35 429.04 306.56"/>
            <polygon class="cls-116" points="427.16 307.39 427.16 569 82.49 569 82.49 215.14 259.28 215.14 427.16 307.39"/>
            <polygon class="cls-110" points="425.29 308.22 425.29 565.75 85.91 565.75 85.91 215.93 259.03 215.93 425.29 308.22"/>
            <polygon class="cls-91" points="423.41 309.05 423.41 562.51 89.33 562.51 89.33 216.72 258.77 216.72 423.41 309.05"/>
            <polygon class="cls-97" points="421.53 309.88 421.53 559.27 92.75 559.27 92.75 217.51 258.51 217.51 421.53 309.88"/>
            <polygon class="cls-8" points="419.65 310.72 419.65 556.02 96.17 556.02 96.17 218.3 258.25 218.3 419.65 310.72"/>
            <polygon class="cls-57" points="417.78 311.55 417.78 552.78 99.59 552.78 99.59 219.08 258 219.08 417.78 311.55"/>
            <polygon class="cls-104" points="415.9 312.38 415.9 549.54 103.02 549.54 103.02 219.87 257.74 219.87 415.9 312.38"/>
            <polygon class="cls-129" points="414.02 313.21 414.02 546.29 106.44 546.29 106.44 220.66 257.48 220.66 414.02 313.21"/>
            <polygon class="cls-10" points="412.15 314.04 412.15 543.05 109.86 543.05 109.86 221.45 257.22 221.45 412.15 314.04"/>
          </g>
          <polygon class="cls-73" points="436.55 303.24 436.55 585.21 64.67 585.21 64.67 211.2 260.57 211.2 436.55 303.24"/>
        </g>
        <rect class="cls-74" x="124.12" y=".78" width="253.3" height="21.2"/>
        <polygon class="cls-68" points="124.12 21.98 377.41 21.98 428.14 36.26 73.39 36.26 124.12 21.98"/>
        <polygon class="cls-69" points="428.14 14.76 377.41 .78 377.41 21.98 428.14 35.96 428.14 14.76"/>
        <polygon class="cls-63" points="73.39 14.76 124.12 .78 124.12 21.98 73.39 35.96 73.39 14.76"/>
        <path class="cls-37" d="m429,36.04s.05-.05.05-.08V14.76c0-.33-.26-.63-.64-.73L377.69.04s-.08.02-.12.02c-.06-.01-.09-.06-.16-.06H124.12c-.06,0-.1.05-.16.06-.04,0-.08-.03-.12-.02l-50.73,13.99c-.38.1-.63.4-.63.73v21.2c0,.06.07.08.08.14-.03.1-.09.19-.07.29.07.38.45.66.9.66h354.75s.02,0,.05,0c.5,0,.91-.35.91-.78,0-.08-.07-.14-.09-.22Z"/>
        <g>
          <path class="cls-11" d="m107.28,202.37c37.97-3.69,208.38-10.35,242.74,0-4.58-29.66-14.38-112.91,0-142.47-41.02,11.91-228.68,5.92-242.74,0,10.8,19.09,8.58,119.47,0,142.47Z"/>
          <path class="cls-42" d="m107.87,202.08c37.97-3.69,208.38-10.35,242.74,0-4.58-29.66-14.38-112.91,0-142.47-41.02,11.91-228.68,5.92-242.74,0,10.8,19.09,8.58,119.47,0,142.47Z"/>
          <path class="cls-48" d="m108.47,201.79c37.97-3.69,208.38-10.35,242.74,0-4.58-29.66-14.38-112.91,0-142.47-41.02,11.91-228.68,5.92-242.74,0,10.8,19.09,8.58,119.47,0,142.47Z"/>
          <path class="cls-46" d="m109.07,201.5c37.97-3.69,208.38-10.35,242.74,0-4.58-29.66-14.38-112.91,0-142.47-41.02,11.91-228.68,5.92-242.74,0,10.8,19.09,8.58,119.47,0,142.47Z"/>
          <path class="cls-30" d="m109.67,201.2c37.97-3.69,208.38-10.35,242.74,0-4.58-29.66-14.38-112.91,0-142.47-41.02,11.91-228.68,5.92-242.74,0,10.8,19.09,8.58,119.47,0,142.47Z"/>
          <path class="cls-35" d="m110.27,200.91c37.97-3.69,208.38-10.35,242.74,0-4.58-29.66-14.38-112.91,0-142.47-41.02,11.91-228.68,5.92-242.74,0,10.8,19.09,8.58,119.47,0,142.47Z"/>
          <path class="cls-45" d="m110.87,200.62c37.97-3.69,208.38-10.35,242.74,0-4.58-29.66-14.38-112.91,0-142.47-41.02,11.91-228.68,5.92-242.74,0,10.8,19.09,8.58,119.47,0,142.47Z"/>
          <path class="cls-21" d="m111.47,200.33c37.97-3.69,208.38-10.35,242.74,0-4.58-29.66-14.38-112.91,0-142.47-41.02,11.91-228.68,5.92-242.74,0,10.8,19.09,8.58,119.47,0,142.47Z"/>
          <path class="cls-15" d="m112.07,200.04c37.97-3.69,208.38-10.35,242.74,0-4.58-29.66-14.38-112.91,0-142.47-41.02,11.91-228.68,5.92-242.74,0,10.8,19.09,8.58,119.47,0,142.47Z"/>
          <path class="cls-32" d="m112.66,199.74c37.97-3.69,208.38-10.35,242.74,0-4.58-29.66-14.38-112.91,0-142.47-41.02,11.91-228.68,5.92-242.74,0,10.8,19.09,8.58,119.47,0,142.47Z"/>
          <path class="cls-19" d="m113.26,199.45c37.97-3.69,208.38-10.35,242.74,0-4.58-29.66-14.38-112.91,0-142.47-41.02,11.91-228.68,5.92-242.74,0,10.8,19.09,8.58,119.47,0,142.47Z"/>
          <path class="cls-9" d="m113.86,199.16c37.97-3.69,208.38-10.35,242.74,0-4.58-29.66-14.38-112.91,0-142.47-41.02,11.91-228.68,5.92-242.74,0,10.8,19.09,8.58,119.47,0,142.47Z"/>
          <path class="cls-20" d="m114.46,198.87c37.97-3.69,208.38-10.35,242.74,0-4.58-29.66-14.38-112.91,0-142.47-41.02,11.91-228.68,5.92-242.74,0,10.8,19.09,8.58,119.47,0,142.47Z"/>
          <path class="cls-25" d="m115.06,198.57c37.97-3.69,208.38-10.35,242.74,0-4.58-29.66-14.38-112.91,0-142.47-41.02,11.91-228.68,5.92-242.74,0,10.8,19.09,8.58,119.47,0,142.47Z"/>
          <path class="cls-26" d="m115.66,198.28c37.97-3.69,208.38-10.35,242.74,0-4.58-29.66-14.38-112.91,0-142.47-41.02,11.91-228.68,5.92-242.74,0,10.8,19.09,8.58,119.47,0,142.47Z"/>
          <path class="cls-7" d="m116.26,197.99c37.97-3.69,208.38-10.35,242.74,0-4.58-29.66-14.38-112.91,0-142.47-41.02,11.91-228.68,5.92-242.74,0,10.8,19.09,8.58,119.47,0,142.47Z"/>
          <path class="cls-28" d="m116.86,197.7c37.97-3.69,208.38-10.35,242.74,0-4.58-29.66-14.38-112.91,0-142.47-41.02,11.91-228.68,5.92-242.74,0,10.8,19.09,8.58,119.47,0,142.47Z"/>
          <path class="cls-23" d="m117.45,197.4c37.97-3.69,208.38-10.35,242.74,0-4.58-29.66-14.38-112.91,0-142.47-41.02,11.91-228.68,5.92-242.74,0,10.8,19.09,8.58,119.47,0,142.47Z"/>
          <path class="cls-27" d="m118.05,197.11c37.97-3.69,208.38-10.35,242.74,0-4.58-29.66-14.38-112.91,0-142.47-41.02,11.91-228.68,5.92-242.74,0,10.8,19.09,8.58,119.47,0,142.47Z"/>
          <path class="cls-27" d="m118.65,196.82c37.97-3.69,208.38-10.35,242.74,0-4.58-29.66-14.38-112.91,0-142.47-41.02,11.91-228.68,5.92-242.74,0,10.8,19.09,8.58,119.47,0,142.47Z"/>
          <path class="cls-24" d="m119.25,196.53c37.97-3.69,208.38-10.35,242.74,0-4.58-29.66-14.38-112.91,0-142.47-41.02,11.91-228.68,5.92-242.74,0,10.8,19.09,8.58,119.47,0,142.47Z"/>
          <path class="cls-36" d="m119.85,196.23c37.97-3.69,208.38-10.35,242.74,0-4.58-29.66-14.38-112.91,0-142.47-41.02,11.91-228.68,5.92-242.74,0,10.8,19.09,8.58,119.47,0,142.47Z"/>
          <path class="cls-18" d="m120.45,195.94c37.97-3.69,208.38-10.35,242.74,0-4.58-29.66-14.38-112.91,0-142.47-41.02,11.91-228.68,5.92-242.74,0,10.8,19.09,8.58,119.47,0,142.47Z"/>
          <path class="cls-5" d="m121.05,195.65c37.97-3.69,208.38-10.35,242.74,0-4.58-29.66-14.38-112.91,0-142.47-41.02,11.91-228.68,5.92-242.74,0,10.8,19.09,8.58,119.47,0,142.47Z"/>
          <path class="cls-39" d="m121.65,195.36c37.97-3.69,208.38-10.35,242.74,0-4.58-29.66-14.38-112.91,0-142.47-41.02,11.91-228.68,5.92-242.74,0,10.8,19.09,8.58,119.47,0,142.47Z"/>
          <path class="cls-34" d="m122.24,195.06c37.97-3.69,208.38-10.35,242.74,0-4.58-29.66-14.38-112.91,0-142.47-41.02,11.91-228.68,5.92-242.74,0,10.8,19.09,8.58,119.47,0,142.47Z"/>
          <path class="cls-40" d="m122.84,194.77c37.97-3.69,208.38-10.35,242.74,0-4.58-29.66-14.38-112.91,0-142.47-41.02,11.91-228.68,5.92-242.74,0,10.8,19.09,8.58,119.47,0,142.47Z"/>
          <path class="cls-38" d="m123.44,194.48c37.97-3.69,208.38-10.35,242.74,0-4.58-29.66-14.38-112.91,0-142.47-41.02,11.91-228.68,5.92-242.74,0,10.8,19.09,8.58,119.47,0,142.47Z"/>
          <path class="cls-44" d="m124.04,194.19c37.97-3.69,208.38-10.35,242.74,0-4.58-29.66-14.38-112.91,0-142.47-41.02,11.91-228.68,5.92-242.74,0,10.8,19.09,8.58,119.47,0,142.47Z"/>
          <path class="cls-12" d="m124.64,193.89c37.97-3.69,208.38-10.35,242.74,0-4.58-29.66-14.38-112.91,0-142.47-41.02,11.91-228.68,5.92-242.74,0,10.8,19.09,8.58,119.47,0,142.47Z"/>
          <path class="cls-22" d="m125.24,193.6c37.97-3.69,208.38-10.35,242.74,0-4.58-29.66-14.38-112.91,0-142.47-41.02,11.91-228.68,5.92-242.74,0,10.8,19.09,8.58,119.47,0,142.47Z"/>
          <path class="cls-31" d="m125.84,193.31c37.97-3.69,208.38-10.35,242.74,0-4.58-29.66-14.38-112.91,0-142.47-41.02,11.91-228.68,5.92-242.74,0,10.8,19.09,8.58,119.47,0,142.47Z"/>
          <path class="cls-17" d="m126.44,193.02c37.97-3.69,208.38-10.35,242.74,0-4.58-29.66-14.38-112.91,0-142.47-41.02,11.91-228.68,5.92-242.74,0,10.8,19.09,8.58,119.47,0,142.47Z"/>
          <path class="cls-16" d="m127.03,192.72c37.97-3.69,208.38-10.35,242.74,0-4.58-29.66-14.38-112.91,0-142.47-41.02,11.91-228.68,5.92-242.74,0,10.8,19.09,8.58,119.47,0,142.47Z"/>
          <path class="cls-43" d="m127.63,192.43c37.97-3.69,208.38-10.35,242.74,0-4.58-29.66-14.38-112.91,0-142.47-41.02,11.91-228.68,5.92-242.74,0,10.8,19.09,8.58,119.47,0,142.47Z"/>
          <path class="cls-3" d="m128.23,192.14c37.97-3.69,208.38-10.35,242.74,0-4.58-29.66-14.38-112.91,0-142.47-41.02,11.91-228.68,5.92-242.74,0,10.8,19.09,8.58,119.47,0,142.47Z"/>
          <path class="cls-33" d="m128.83,191.85c37.97-3.69,208.38-10.35,242.74,0-4.58-29.66-14.38-112.91,0-142.47-41.02,11.91-228.68,5.92-242.74,0,10.8,19.09,8.58,119.47,0,142.47Z"/>
          <path class="cls-29" d="m129.43,191.55c37.97-3.69,208.38-10.35,242.74,0-4.58-29.66-14.38-112.91,0-142.47-41.02,11.91-228.68,5.92-242.74,0,10.8,19.09,8.58,119.47,0,142.47Z"/>
          <path class="cls-41" d="m130.03,191.26c37.97-3.69,208.38-10.35,242.74,0-4.58-29.66-14.38-112.91,0-142.47-41.02,11.91-228.68,5.92-242.74,0,10.8,19.09,8.58,119.47,0,142.47Z"/>
        </g>
        <g>
          <g>
            <path class="cls-95" d="m129.09,190.73c38.09-3.7,209.05-10.38,243.52,0-4.6-29.74-14.43-113.21,0-142.84-41.16,11.93-229.41,5.93-243.52,0,10.83,19.13,8.62,119.78,0,142.84Z"/>
            <path class="cls-125" d="m129.45,48.07c5.4,9.54,7.55,39.39,7.28,69.74-.14,15.17-.88,30.46-2.13,43.39-1.25,12.93-3,23.51-5.15,29.26,9.5-.92,27.28-2.03,49.15-3.01,21.86-.98,47.8-1.84,73.63-2.25,51.69-.83,102.94.09,120.13,5.26-1.15-7.41-2.62-18.17-3.96-30.6-1.34-12.43-2.55-26.52-3.16-40.62-1.23-28.2-.08-56.4,7.12-71.17-10.27,2.98-29.72,4.83-53.33,5.85-23.6,1.02-51.36,1.2-78.27.83-53.83-.75-104.28-3.72-111.31-6.68Z"/>
            <path class="cls-56" d="m129.81,48.24c5.39,9.51,7.53,39.27,7.26,69.52-.14,15.12-.88,30.36-2.12,43.25-1.24,12.89-2.99,23.44-5.13,29.17,9.48-.92,27.22-2.02,49.03-3,21.81-.98,47.68-1.83,73.45-2.24,51.56-.83,102.68.09,119.83,5.25-1.14-7.39-2.61-18.11-3.95-30.5-1.34-12.39-2.54-26.44-3.15-40.49-1.22-28.12-.08-56.22,7.1-70.95-10.24,2.97-29.64,4.82-53.2,5.83-23.54,1.02-51.23,1.2-78.08.82-53.69-.75-104.02-3.71-111.04-6.66Z"/>
            <path class="cls-86" d="m130.17,48.42c5.38,9.48,7.51,39.14,7.24,69.29-.14,15.07-.88,30.26-2.12,43.12-1.24,12.85-2.98,23.36-5.12,29.07,9.45-.92,27.15-2.02,48.91-2.99,21.75-.97,47.57-1.82,73.27-2.24,51.43-.83,102.42.09,119.54,5.23-1.14-7.36-2.61-18.05-3.94-30.4-1.33-12.35-2.53-26.35-3.14-40.36-1.22-28.03-.08-56.04,7.08-70.72-10.22,2.96-29.57,4.8-53.07,5.81-23.48,1.01-51.1,1.19-77.88.82-53.56-.74-103.76-3.7-110.77-6.63Z"/>
            <path class="cls-67" d="m130.53,48.6c5.36,9.45,7.5,39.02,7.22,69.07-.14,15.02-.88,30.17-2.11,42.98-1.24,12.81-2.97,23.29-5.11,28.98,9.43-.91,27.08-2.01,48.79-2.98,21.7-.97,47.45-1.82,73.09-2.23,51.31-.82,102.17.09,119.24,5.21-1.14-7.34-2.6-18-3.93-30.31-1.33-12.31-2.53-26.27-3.14-40.23-1.22-27.94-.08-55.86,7.07-70.49-10.19,2.95-29.5,4.79-52.93,5.8-23.42,1.01-50.98,1.19-77.69.82-53.43-.74-103.51-3.69-110.49-6.61Z"/>
            <path class="cls-113" d="m130.9,48.77c5.35,9.42,7.48,38.89,7.2,68.85-.14,14.98-.87,30.07-2.11,42.84-1.23,12.77-2.97,23.21-5.09,28.89,9.41-.91,27.01-2,48.67-2.97,21.64-.97,47.33-1.81,72.91-2.22,51.18-.82,101.91.09,118.94,5.2-1.14-7.32-2.6-17.94-3.92-30.21-1.33-12.27-2.52-26.19-3.13-40.1-1.21-27.85-.08-55.68,7.05-70.26-10.17,2.94-29.42,4.77-52.8,5.78-23.36,1.01-50.85,1.18-77.5.82-53.3-.74-103.25-3.68-110.22-6.59Z"/>
            <path class="cls-93" d="m131.26,48.95c5.34,9.39,7.46,38.77,7.19,68.63-.14,14.93-.87,29.97-2.1,42.7-1.23,12.73-2.96,23.14-5.08,28.79,9.38-.91,26.95-2,48.55-2.96,21.59-.97,47.21-1.81,72.73-2.22,51.05-.82,101.66.09,118.64,5.18-1.13-7.29-2.59-17.88-3.91-30.11-1.32-12.23-2.51-26.1-3.12-39.97-1.21-27.76-.08-55.5,7.03-70.04-10.14,2.93-29.35,4.76-52.66,5.76-23.31,1-50.72,1.18-77.3.81-53.16-.74-102.99-3.66-109.94-6.57Z"/>
            <path class="cls-109" d="m131.62,49.12c5.32,9.36,7.44,38.64,7.17,68.41-.14,14.88-.87,29.88-2.1,42.57-1.23,12.69-2.95,23.06-5.07,28.7,9.36-.9,26.88-1.99,48.42-2.95,21.54-.96,47.1-1.8,72.55-2.21,50.92-.82,101.4.09,118.34,5.16-1.13-7.27-2.58-17.82-3.9-30.02-1.32-12.19-2.51-26.02-3.11-39.85-1.21-27.67-.08-55.32,7.01-69.81-10.12,2.92-29.27,4.74-52.53,5.74-23.25,1-50.59,1.18-77.11.81-53.03-.73-102.73-3.65-109.67-6.55Z"/>
            <path class="cls-127" d="m131.98,49.3c5.31,9.32,7.42,38.52,7.15,68.18-.14,14.83-.87,29.78-2.09,42.43-1.23,12.65-2.94,22.99-5.06,28.61,9.33-.9,26.81-1.98,48.3-2.94,21.48-.96,46.98-1.79,72.37-2.2,50.79-.81,101.14.09,118.04,5.14-1.13-7.25-2.58-17.76-3.89-29.92-1.32-12.15-2.5-25.94-3.1-39.72-1.21-27.58-.08-55.14,7-69.58-10.09,2.91-29.2,4.72-52.4,5.72-23.19,1-50.47,1.17-76.92.81-52.9-.73-102.48-3.64-109.4-6.53Z"/>
            <path class="cls-52" d="m132.35,49.48c5.3,9.29,7.4,38.39,7.13,67.96-.14,14.78-.87,29.68-2.09,42.29-1.22,12.61-2.94,22.92-5.04,28.52,9.31-.9,26.74-1.98,48.18-2.93,21.43-.96,46.86-1.79,72.19-2.19,50.66-.81,100.89.09,117.74,5.13-1.13-7.22-2.57-17.71-3.88-29.82-1.31-12.11-2.5-25.85-3.1-39.59-1.2-27.49-.08-54.96,6.98-69.36-10.06,2.9-29.12,4.71-52.26,5.7-23.13.99-50.34,1.17-76.72.81-52.76-.73-102.22-3.63-109.12-6.51Z"/>
            <path class="cls-130" d="m132.71,49.65c5.28,9.26,7.38,38.26,7.11,67.74-.14,14.73-.86,29.59-2.08,42.15-1.22,12.56-2.93,22.84-5.03,28.42,9.29-.9,26.68-1.97,48.06-2.92,21.38-.95,46.74-1.78,72-2.19,50.53-.81,100.63.09,117.44,5.11-1.12-7.2-2.56-17.65-3.87-29.72-1.31-12.07-2.49-25.77-3.09-39.46-1.2-27.4-.08-54.78,6.96-69.13-10.04,2.89-29.05,4.69-52.13,5.68-23.07.99-50.21,1.17-76.53.8-52.63-.73-101.96-3.62-108.85-6.49Z"/>
            <path class="cls-130" d="m133.07,49.83c5.27,9.23,7.37,38.14,7.1,67.52-.14,14.69-.86,29.49-2.08,42.01-1.22,12.52-2.92,22.77-5.02,28.33,9.26-.89,26.61-1.96,47.94-2.91,21.32-.95,46.63-1.78,71.82-2.18,50.41-.81,100.38.09,117.15,5.09-1.12-7.18-2.56-17.59-3.86-29.63-1.31-12.03-2.48-25.68-3.08-39.33-1.2-27.31-.08-54.6,6.94-68.9-10.01,2.88-28.97,4.68-52,5.66-23.01.99-50.09,1.16-76.34.8-52.5-.72-101.71-3.6-108.57-6.46Z"/>
            <path class="cls-85" d="m133.43,50c5.26,9.2,7.35,38.01,7.08,67.29-.13,14.64-.86,29.39-2.07,41.88-1.21,12.48-2.92,22.69-5,28.24,9.24-.89,26.54-1.96,47.81-2.9,21.27-.95,46.51-1.77,71.64-2.17,50.28-.8,100.12.09,116.85,5.08-1.12-7.15-2.55-17.53-3.85-29.53-1.3-11.99-2.48-25.6-3.07-39.2-1.19-27.22-.08-54.42,6.93-68.68-9.99,2.87-28.9,4.66-51.86,5.65-22.96.98-49.96,1.16-76.14.8-52.37-.72-101.45-3.59-108.3-6.44Z"/>
            <path class="cls-122" d="m133.8,50.18c5.24,9.17,7.33,37.89,7.06,67.07-.13,14.59-.86,29.3-2.07,41.74-1.21,12.44-2.91,22.62-4.99,28.14,9.22-.89,26.47-1.95,47.69-2.89,21.22-.94,46.39-1.76,71.46-2.16,50.15-.8,99.86.09,116.55,5.06-1.11-7.13-2.54-17.48-3.84-29.43-1.3-11.95-2.47-25.52-3.07-39.08-1.19-27.13-.08-54.24,6.91-68.45-9.96,2.86-28.82,4.65-51.73,5.63-22.9.98-49.83,1.16-75.95.79-52.23-.72-101.19-3.58-108.02-6.42Z"/>
            <path class="cls-126" d="m134.16,50.36c5.23,9.14,7.31,37.76,7.04,66.85-.13,14.54-.86,29.2-2.06,41.6-1.21,12.4-2.9,22.54-4.98,28.05,9.19-.88,26.4-1.94,47.57-2.88,21.16-.94,46.28-1.76,71.28-2.16,50.02-.8,99.61.09,116.25,5.04-1.11-7.1-2.54-17.42-3.83-29.33-1.3-11.92-2.46-25.43-3.06-38.95-1.19-27.04-.08-54.06,6.89-68.22-9.94,2.85-28.75,4.63-51.59,5.61-22.84.98-49.71,1.15-75.76.79-52.1-.72-100.94-3.57-107.75-6.4Z"/>
            <path class="cls-117" d="m134.52,50.53c5.22,9.11,7.29,37.64,7.02,66.63-.13,14.49-.85,29.1-2.06,41.46-1.2,12.36-2.89,22.47-4.97,27.96,9.17-.88,26.34-1.94,47.45-2.87,21.11-.94,46.16-1.75,71.1-2.15,49.89-.8,99.35.08,115.95,5.03-1.11-7.08-2.53-17.36-3.82-29.24-1.29-11.88-2.46-25.35-3.05-38.82-1.18-26.95-.08-53.88,6.87-67.99-9.91,2.84-28.67,4.62-51.46,5.59-22.78.97-49.58,1.15-75.56.79-51.97-.72-100.68-3.56-107.48-6.38Z"/>
            <path class="cls-50" d="m134.88,50.71c5.2,9.08,7.27,37.51,7.01,66.41-.13,14.45-.85,29.01-2.05,41.33-1.2,12.32-2.89,22.39-4.95,27.87,9.15-.88,26.27-1.93,47.33-2.87,21.05-.93,46.04-1.75,70.92-2.14,49.76-.79,99.1.08,115.65,5.01-1.11-7.06-2.52-17.3-3.81-29.14-1.29-11.84-2.45-25.27-3.04-38.69-1.18-26.86-.08-53.7,6.86-67.77-9.88,2.83-28.6,4.6-51.33,5.57-22.72.97-49.45,1.14-75.37.79-51.84-.71-100.42-3.55-107.2-6.36Z"/>
            <path class="cls-55" d="m135.24,50.88c5.19,9.05,7.25,37.39,6.99,66.18-.13,14.4-.85,28.91-2.05,41.19-1.2,12.28-2.88,22.32-4.94,27.77,9.12-.87,26.2-1.92,47.2-2.86,21-.93,45.92-1.74,70.74-2.14,49.64-.79,98.84.08,115.35,4.99-1.1-7.03-2.52-17.24-3.8-29.04-1.29-11.8-2.45-25.18-3.03-38.56-1.18-26.77-.08-53.52,6.84-67.54-9.86,2.82-28.53,4.59-51.19,5.55-22.66.97-49.32,1.14-75.18.78-51.7-.71-100.17-3.53-106.93-6.34Z"/>
            <path class="cls-77" d="m135.61,51.06c5.18,9.02,7.23,37.26,6.97,65.96-.13,14.35-.85,28.81-2.04,41.05-1.19,12.24-2.87,22.24-4.93,27.68,9.1-.87,26.13-1.92,47.08-2.85,20.95-.93,45.81-1.74,70.56-2.13,49.51-.79,98.58.08,115.06,4.97-1.1-7.01-2.51-17.19-3.79-28.95-1.28-11.76-2.44-25.1-3.03-38.43-1.17-26.68-.07-53.34,6.82-67.31-9.83,2.81-28.45,4.57-51.06,5.53-22.6.96-49.2,1.14-74.98.78-51.57-.71-99.91-3.52-106.65-6.32Z"/>
            <path class="cls-100" d="m135.97,51.24c5.16,8.99,7.22,37.13,6.95,65.74-.13,14.3-.84,28.72-2.04,40.91-1.19,12.2-2.86,22.17-4.92,27.59,9.08-.87,26.07-1.91,46.96-2.84,20.89-.92,45.69-1.73,70.38-2.12,49.38-.78,98.33.08,114.76,4.96-1.1-6.99-2.5-17.13-3.79-28.85-1.28-11.72-2.43-25.01-3.02-38.31-1.17-26.59-.07-53.16,6.8-67.09-9.81,2.8-28.38,4.55-50.92,5.52-22.55.96-49.07,1.13-74.79.78-51.44-.71-99.65-3.51-106.38-6.3Z"/>
            <path class="cls-80" d="m136.33,51.41c5.15,8.96,7.2,37.01,6.93,65.52-.13,14.25-.84,28.62-2.03,40.78-1.19,12.15-2.86,22.1-4.9,27.5,9.05-.87,26-1.9,46.84-2.83,20.84-.92,45.57-1.72,70.2-2.11,49.25-.78,98.07.08,114.46,4.94-1.09-6.96-2.5-17.07-3.78-28.75-1.28-11.68-2.43-24.93-3.01-38.18-1.17-26.5-.07-52.98,6.79-66.86-9.78,2.79-28.3,4.54-50.79,5.5-22.49.96-48.94,1.13-74.6.78-51.3-.7-99.4-3.5-106.11-6.27Z"/>
            <path class="cls-128" d="m136.69,184.92c9.03-.86,25.93-1.9,46.72-2.82,20.79-.92,45.45-1.72,70.01-2.11,49.12-.78,97.82.08,114.16,4.92-1.09-6.94-2.49-17.01-3.77-28.65s-2.42-24.85-3-38.05c-1.16-26.41-.07-52.8,6.77-66.63-9.76,2.79-28.23,4.52-50.66,5.48-22.43.95-48.82,1.13-74.4.77-51.17-.7-99.14-3.49-105.83-6.25,5.14,8.93,7.18,36.88,6.91,65.29-.13,14.21-.84,28.52-2.03,40.64s-2.85,22.02-4.89,27.4Z"/>
            <path class="cls-80" d="m138.72,52.56c4.7,8.87,6.5,36.34,6.24,64.28-.13,14.01-.7,28.12-1.75,40.05s-2.6,21.6-4.49,26.91c8.94-.77,25.58-1.72,46.02-2.58,20.49-.84,44.79-1.59,69.01-1.97,48.4-.76,96.33-.03,112.58,4.51-.96-6.82-2.26-16.71-3.41-28.13s-2.18-24.47-2.75-37.49c-1.14-25.99-.26-51.94,6.1-65.58-9.65,2.65-27.82,4.28-49.87,5.17-22.09.88-48.07,1.01-73.28.67-50.37-.68-97.56-3.3-104.4-5.84Z"/>
            <path class="cls-100" d="m140.75,53.53c4.26,8.8,5.81,35.79,5.56,63.26-.13,13.81-.57,27.71-1.48,39.46s-2.36,21.19-4.08,26.41c8.85-.68,25.22-1.55,45.32-2.34,20.2-.76,44.14-1.46,68-1.83,47.67-.74,94.84-.14,110.99,4.11-.83-6.71-2.02-16.41-3.05-27.62s-1.94-24.1-2.49-36.92c-1.11-25.57-.45-51.08,5.42-64.53-9.54,2.51-27.41,4.04-49.08,4.86-21.75.8-47.32.9-72.15.57-49.56-.67-95.99-3.12-102.97-5.43Z"/>
            <path class="cls-77" d="m142.77,54.5c3.82,8.73,5.13,35.24,4.89,62.24-.12,13.61-.44,27.29-1.21,38.87s-2.12,20.77-3.68,25.91c8.76-.59,24.87-1.38,44.62-2.1,19.9-.68,43.48-1.33,66.99-1.69,46.95-.72,93.35-.25,109.41,3.7-.69-6.6-1.79-16.11-2.68-27.1s-1.7-23.73-2.24-36.36c-1.08-25.15-.64-50.21,4.75-63.48-9.44,2.37-27.01,3.8-48.29,4.55-21.42.72-46.57.79-71.03.47-48.76-.65-94.41-2.93-101.54-5.02Z"/>
            <path class="cls-55" d="m144.8,55.48c3.38,8.67,4.45,34.7,4.21,61.23-.12,13.41-.3,26.88-.94,38.28s-1.87,20.35-3.27,25.42c8.67-.5,24.52-1.2,43.93-1.86,19.61-.61,42.82-1.2,65.99-1.55,46.23-.7,91.86-.37,107.83,3.29-.56-6.48-1.55-15.81-2.32-26.58s-1.46-23.36-1.99-35.79c-1.05-24.73-.83-49.35,4.08-62.43-9.33,2.23-26.6,3.56-47.5,4.25-21.08.64-45.82.68-69.9.36-47.95-.63-92.84-2.75-100.1-4.61Z"/>
            <path class="cls-50" d="m146.83,56.45c2.94,8.6,3.77,34.15,3.54,60.21-.12,13.21-.17,26.47-.67,37.69s-1.63,19.93-2.87,24.92c8.58-.41,24.16-1.03,43.23-1.62,19.31-.53,42.16-1.07,64.98-1.42,45.5-.68,90.37-.48,106.24,2.88-.43-6.37-1.32-15.51-1.96-26.06s-1.22-22.98-1.73-35.23c-1.02-24.31-1.03-48.49,3.41-61.38-9.23,2.09-26.2,3.32-46.71,3.94-20.74.57-45.08.57-68.78.26-47.14-.61-91.26-2.56-98.67-4.2Z"/>
            <path class="cls-117" d="m148.86,57.42c2.5,8.54,3.09,33.6,2.86,59.19-.11,13.01-.03,26.06-.4,37.11s-1.39,19.51-2.46,24.42c8.49-.32,23.81-.89,42.53-1.38s41.5-.95,63.97-1.28c44.78-.66,88.88-.59,104.66,2.47-.29-6.25-1.08-15.21-1.6-25.54s-.98-22.61-1.48-34.67c-.99-23.89-1.22-47.63,2.74-60.33-9.12,1.95-25.79,3.08-45.92,3.63-20.4.49-44.33.45-67.66.16-46.34-.6-89.69-2.38-97.24-3.78Z"/>
            <path class="cls-126" d="m150.88,58.39c2.06,8.47,2.4,33.06,2.19,58.18-.11,12.81.1,25.64-.13,36.52s-1.14,19.1-2.06,23.93c8.4-.23,23.46-.73,41.83-1.14s40.84-.82,62.97-1.14c44.05-.64,87.4-.7,103.08,2.06-.16-6.14-.85-14.91-1.24-25.02s-.74-22.24-1.22-34.1c-.96-23.47-1.41-46.77,2.07-59.28-9.01,1.81-25.38,2.88-45.14,3.32s-43.58.34-66.53.05c-45.53-.58-88.11-2.19-95.81-3.37Z"/>
            <path class="cls-122" d="m152.91,59.36c1.63,8.41,1.72,32.51,1.51,57.16-.11,12.61.23,25.23.14,35.93s-.9,18.68-1.65,23.43c8.31-.14,23.1-.56,41.13-.9s40.18-.69,61.96-1c43.33-.62,85.91-.81,101.49,1.65-.03-6.02-.61-14.61-.88-24.5s-.5-21.86-.97-33.54c-.93-23.05-1.6-45.9,1.39-58.23-8.91,1.67-24.98,2.64-44.35,3.01s-42.83.23-65.41-.05c-44.73-.56-86.54-2.01-94.37-2.96Z"/>
            <path class="cls-85" d="m154.94,60.34c1.19,8.34,1.04,31.96.83,56.14-.1,12.41.36,24.81.42,35.34s-.66,18.26-1.25,22.93c8.22-.05,22.75-.39,40.44-.66,18.13-.28,39.52-.56,60.95-.86,42.6-.6,84.42-.93,99.91,1.25.1-5.91-.37-14.31-.52-23.98s-.26-21.49-.71-32.98c-.9-22.63-1.79-45.04.72-57.18-8.8,1.53-24.57,2.4-43.56,2.71-19.39.31-42.08.12-64.28-.15-43.92-.54-84.96-1.82-92.94-2.55Z"/>
            <path class="cls-130" d="m156.96,61.31c.75,8.27.36,31.41.16,55.13-.1,12.21.49,24.39.69,34.75.18,9.78-.41,17.84-.85,22.44,8.13.04,22.4-.22,39.74-.42s38.86-.43,59.95-.72c41.88-.58,82.93-1.04,98.33.84.24-5.79-.13-14.01-.16-23.46s-.02-21.12-.46-32.41c-.87-22.21-1.98-44.18.05-56.13-8.7,1.39-24.16,2.17-42.77,2.4s-41.34,0-63.16-.26c-43.12-.53-83.38-1.64-91.51-2.14Z"/>
            <path class="cls-52" d="m158.99,62.28c.31,8.21-.33,30.87-.52,54.11-.1,12.01.62,23.97.96,34.16.31,9.54-.17,17.42-.44,21.94,8.04.13,22.04-.05,39.04-.18s38.2-.3,58.94-.59c41.16-.56,81.44-1.15,96.75.43.37-5.68.11-13.71.2-22.94.09-9.73.22-20.75-.21-31.85-.84-21.79-2.17-43.32-.62-55.08-8.59,1.25-23.76,1.93-41.98,2.09s-40.59-.11-62.03-.36c-42.31-.51-81.81-1.46-90.08-1.73Z"/>
            <path class="cls-127" d="m161.02,63.25c-.13,8.14-1.01,30.32-1.19,53.09-.09,11.81.75,23.55,1.23,33.57.44,9.3.07,17.01-.04,21.44,7.95.22,21.69-.03,38.34.06,17.25.09,37.54-.17,57.93-.45,40.43-.55,79.95-1.26,95.16.02.5-5.57.35-13.42.56-22.43.22-9.56.46-20.37.05-31.29-.82-21.37-2.36-42.46-1.29-54.03-8.49,1.11-23.35,1.69-41.19,1.78s-39.84-.22-60.91-.46c-41.51-.49-80.23-1.27-88.65-1.32Z"/>
            <path class="cls-109" d="m163.04,64.22c-.57,8.08-1.69,29.77-1.87,52.07-.09,11.61.88,23.13,1.5,32.98.57,9.06.32,16.59.37,20.95,7.86.32,21.34.13,37.65.3s36.88-.05,56.92-.31c39.71-.53,78.47-1.38,93.58-.39.64-5.45.59-13.12.92-21.91.35-9.39.7-20,.3-30.72-.79-20.95-2.55-41.59-1.97-52.98-8.38.97-22.95,1.46-40.4,1.47s-39.09-.33-59.79-.57c-40.7-.47-78.66-1.09-87.21-.91Z"/>
            <path class="cls-93" d="m165.07,65.19c-1.01,8.01-2.37,29.23-2.54,51.06-.09,11.41,1,22.71,1.77,32.39.7,8.82.56,16.17.77,20.45,7.77.41,20.98.46,36.95.54,16.66.09,36.22.08,55.92-.17,38.98-.51,76.98-1.49,92-.8.77-5.34.84-12.82,1.28-21.39.48-9.22.94-19.63.56-30.16-.76-20.53-2.74-40.73-2.64-51.93-8.27.83-22.54,1.22-39.62,1.16s-38.34-.44-58.66-.67c-39.9-.46-77.08-.9-85.78-.49Z"/>
            <path class="cls-113" d="m167.1,66.17c-1.45,7.95-3.05,28.68-3.22,50.04-.08,11.21,1.13,22.29,2.04,31.81.82,8.58.8,15.75,1.18,19.95,7.68.5,20.63.63,36.25.78s35.57.21,54.91-.03c38.26-.49,75.49-1.6,90.41-1.21.9-5.22,1.08-12.53,1.64-20.87.61-9.05,1.18-19.25.81-29.6-.73-20.11-2.93-39.87-3.31-50.88-8.17.69-22.13.98-38.83.86-17.36-.13-37.6-.55-57.54-.77-39.09-.44-75.51-.72-84.35-.08Z"/>
            <path class="cls-67" d="m169.13,67.14c-1.89,7.88-3.74,28.13-3.89,49.02-.08,11.01,1.25,21.86,2.31,31.22.95,8.34,1.05,15.33,1.58,19.45,7.59.59,20.28.8,35.55,1.02,16.07.23,34.91.34,53.9.11,37.53-.47,74-1.71,88.83-1.61,1.03-5.11,1.32-12.23,2-20.35.74-8.89,1.41-18.88,1.07-29.03-.7-19.69-3.12-39.01-3.98-49.83-8.06.55-21.73.74-38.04.55-17.03-.2-36.85-.67-56.41-.88-38.29-.42-73.93-.53-82.92.33Z"/>
            <path class="cls-86" d="m171.15,68.11c-2.33,7.81-4.42,27.59-4.57,48.01-.08,10.81,1.37,21.44,2.58,30.63,1.07,8.1,1.29,14.92,1.99,18.96,7.5.68,19.92.97,34.86,1.26,15.78.31,34.25.47,52.9.25,36.81-.45,72.51-1.82,87.25-2.02,1.17-4.99,1.57-11.94,2.36-19.83.87-8.72,1.65-18.51,1.32-28.47-.67-19.27-3.31-38.15-4.65-48.78-7.96.41-21.32.51-37.25.24s-36.1-.78-55.29-.98c-37.48-.4-72.36-.35-81.48.74Z"/>
            <path class="cls-56" d="m173.18,69.08c-2.77,7.75-5.1,27.04-5.25,46.99-.07,10.61,1.49,21.01,2.86,30.04,1.18,7.85,1.53,14.5,2.39,18.46,7.42.77,19.57,1.14,34.16,1.5,15.48.38,33.59.6,51.89.38,36.09-.43,71.02-1.94,85.66-2.43,1.3-4.88,1.82-11.64,2.72-19.31,1-8.55,1.89-18.14,1.57-27.9-.64-18.85-3.5-37.28-5.33-47.73-7.85.27-20.92.27-36.46-.07-16.35-.35-35.35-.89-54.16-1.08-36.68-.39-70.78-.16-80.05,1.15Z"/>
            <path class="cls-125" d="m175.21,70.05c-3.2,7.68-5.78,26.49-5.92,45.97-.07,10.41,1.61,20.59,3.13,29.45,1.3,7.61,1.78,14.08,2.79,17.96,7.33.86,19.22,1.31,33.46,1.74,15.19.46,32.93.73,50.88.52,35.36-.41,69.53-2.05,84.08-2.84,1.43-4.76,2.07-11.35,3.08-18.79,1.14-8.39,2.13-17.76,1.83-27.34-.61-18.43-3.69-36.42-6-46.68-7.74.13-20.51.03-35.67-.38-16.01-.43-34.6-1-53.04-1.19-35.87-.37-69.21.02-78.62,1.56Z"/>
            <path class="cls-125" d="m177.23,71.03c-3.64,7.62-6.46,25.94-6.6,44.96-.07,10.21,1.73,20.16,3.4,28.86,1.41,7.37,2.02,13.66,3.2,17.47,7.24.95,18.87,1.48,32.76,1.98,14.9.53,32.27.85,49.88.66,34.64-.39,68.05-2.16,82.5-3.25,1.57-4.65,2.32-11.06,3.44-18.27,1.27-8.22,2.37-17.39,2.08-26.78-.58-18.01-3.88-35.56-6.67-45.63-7.64,0-20.1-.21-34.88-.68-15.68-.5-33.86-1.11-51.92-1.29-35.06-.35-67.63.21-77.19,1.97Z"/>
            <path class="cls-95" d="m179.26,72c-4.08,7.55-7.15,25.4-7.27,43.94-.06,10.01,1.84,19.73,3.67,28.27,1.52,7.12,2.26,13.24,3.6,16.97,7.15,1.04,18.51,1.65,32.06,2.22,14.6.61,31.61.98,48.87.8,33.91-.37,66.56-2.27,80.91-3.66,1.7-4.53,2.58-10.76,3.8-17.75,1.41-8.06,2.61-17.02,2.34-26.21-.55-17.59-4.07-34.7-7.34-44.58-7.53-.15-19.7-.45-34.09-.99-15.34-.58-33.11-1.23-50.79-1.39-34.26-.33-66.05.39-75.76,2.38Z"/>
            <path class="cls-54" d="m181.29,72.97c-4.52,7.48-7.83,24.85-7.95,42.92-.06,9.81,1.95,19.3,3.94,27.68,1.63,6.88,2.51,12.83,4.01,16.47,7.06,1.13,18.16,1.83,31.37,2.46,14.31.68,30.95,1.11,47.86.94,33.19-.35,65.07-2.39,79.33-4.07,1.83-4.42,2.83-10.47,4.16-17.23,1.55-7.9,2.85-16.64,2.59-25.65-.52-17.17-4.26-33.84-8.01-43.52-7.43-.29-19.29-.69-33.31-1.3-15-.65-32.36-1.34-49.67-1.5-33.45-.32-64.48.58-74.32,2.8Z"/>
            <path class="cls-112" d="m183.31,73.94c-4.96,7.42-8.51,24.3-8.62,41.91-.06,9.61,2.06,18.87,4.21,27.1,1.74,6.63,2.75,12.41,4.41,15.98,6.97,1.22,17.81,2,30.67,2.7,14.01.76,30.29,1.24,46.86,1.08,32.46-.33,63.58-2.5,77.75-4.48,1.96-4.31,3.09-10.18,4.52-16.72,1.69-7.73,3.09-16.27,2.84-25.09-.5-16.75-4.45-32.97-8.69-42.47-7.32-.43-18.89-.93-32.52-1.61-14.67-.73-31.61-1.45-48.54-1.6-32.65-.3-62.9.76-72.89,3.21Z"/>
            <path class="cls-2" d="m185.34,74.91c-5.4,7.35-9.19,23.76-9.3,40.89-.05,9.41,2.16,18.44,4.48,26.51,1.84,6.39,2.99,11.99,4.82,15.48,6.88,1.31,17.45,2.17,29.97,2.94,13.72.84,29.63,1.37,45.85,1.21,31.74-.31,62.09-2.61,76.16-4.88,2.1-4.19,3.35-9.89,4.88-16.2,1.84-7.57,3.33-15.9,3.1-24.52-.47-16.33-4.64-32.11-9.36-41.42-7.21-.57-18.48-1.17-31.73-1.92-14.33-.81-30.86-1.56-47.42-1.7-31.84-.28-61.33.94-71.46,3.62Z"/>
            <path class="cls-81" d="m187.37,75.89c-5.84,7.29-9.88,23.21-9.97,39.87-.05,9.21,2.26,18.02,4.75,25.92,1.94,6.15,3.24,11.57,5.22,14.98,6.79,1.4,17.1,2.35,29.27,3.18,13.43.91,28.97,1.5,44.84,1.35,31.02-.29,60.6-2.72,74.58-5.29,2.23-4.08,3.61-9.59,5.24-15.68,1.98-7.4,3.57-15.53,3.35-23.96-.44-15.91-4.83-31.25-10.03-40.37-7.11-.71-18.08-1.41-30.94-2.22-13.99-.88-30.12-1.67-46.29-1.81-31.04-.26-59.75,1.13-70.03,4.03Z"/>
            <path class="cls-76" d="m189.4,76.86c-6.28,7.22-10.56,22.66-10.65,38.86-.05,9.01,2.36,17.59,5.03,25.33,2.03,5.9,3.48,11.15,5.62,14.49,6.7,1.49,16.75,2.52,28.58,3.42,13.13.99,28.31,1.63,43.83,1.49,30.29-.27,59.11-2.83,73-5.7,2.36-3.96,3.88-9.3,5.6-15.16,2.13-7.24,3.81-15.15,3.61-23.4-.41-15.49-5.02-30.39-10.7-39.32-7-.85-17.67-1.65-30.15-2.53-13.66-.96-29.37-1.79-45.17-1.91-30.23-.25-58.18,1.31-68.6,4.44Z"/>
            <path class="cls-78" d="m191.42,77.83c-6.72,7.16-11.24,22.12-11.33,37.84-.04,8.81,2.45,17.16,5.3,24.74,2.13,5.66,3.72,10.74,6.03,13.99,6.61,1.58,16.4,2.7,27.88,3.66,12.84,1.07,27.65,1.76,42.83,1.63,29.57-.25,57.63-2.95,71.42-6.11,2.49-3.85,4.14-9.01,5.96-14.64,2.28-7.08,4.05-14.78,3.86-22.83-.38-15.07-5.21-29.52-11.37-38.27-6.9-.98-17.26-1.9-29.36-2.84-13.32-1.04-28.62-1.9-44.04-2.01-29.43-.23-56.6,1.5-67.16,4.85Z"/>
            <path class="cls-88" d="m193.45,78.8c-7.16,7.09-11.92,21.57-12,36.82-.04,8.61,2.54,16.74,5.57,24.15,2.21,5.42,3.97,10.32,6.43,13.49,6.52,1.67,16.04,2.87,27.18,3.9,12.54,1.15,27,1.88,41.82,1.77,28.84-.23,56.14-3.06,69.83-6.52,2.63-3.73,4.41-8.71,6.32-14.12,2.44-6.91,4.29-14.41,4.12-22.27-.35-14.65-5.4-28.66-12.04-37.22-6.79-1.12-16.86-2.14-28.57-3.15-12.98-1.12-27.87-2.01-42.92-2.12-28.62-.21-55.03,1.68-65.73,5.26Z"/>
            <path class="cls-60" d="m195.48,79.77c-7.59,7.02-12.6,21.02-12.68,35.8-.04,8.41,2.62,16.31,5.84,23.56,2.3,5.18,4.21,9.9,6.84,13,6.43,1.76,15.69,3.05,26.48,4.13,12.25,1.23,26.34,2.01,40.81,1.91,28.12-.21,54.65-3.17,68.25-6.93,2.76-3.62,4.68-8.42,6.68-13.6,2.6-6.74,4.53-14.04,4.37-21.7-.32-14.23-5.59-27.8-12.72-36.17-6.69-1.26-16.45-2.38-27.79-3.46-12.64-1.2-27.12-2.12-41.8-2.22-27.82-.19-53.45,1.87-64.3,5.68Z"/>
            <path class="cls-51" d="m197.5,80.74c-8.03,6.96-13.29,20.48-13.35,34.79-.03,8.21,2.7,15.89,6.11,22.97,2.38,4.94,4.45,9.48,7.24,12.5,6.34,1.85,15.34,3.23,25.78,4.37,11.96,1.31,25.68,2.14,39.81,2.04,27.39-.19,53.16-3.28,66.67-7.34,2.89-3.5,4.96-8.12,7.04-13.08,2.76-6.58,4.77-13.66,4.62-21.14-.29-13.81-5.78-26.94-13.39-35.12-6.58-1.4-16.05-2.63-27-3.76-12.31-1.28-26.38-2.23-40.67-2.32-27.01-.18-51.88,2.05-62.87,6.09Z"/>
            <path class="cls-102" d="m199.53,81.72c-8.47,6.89-13.97,19.93-14.03,33.77-.03,8.01,2.77,15.48,6.38,22.39,2.46,4.71,4.7,9.06,7.65,12,6.25,1.95,14.98,3.41,25.09,4.61,11.66,1.39,25.02,2.27,38.8,2.18,26.67-.18,51.67-3.4,65.08-7.74,3.03-3.39,5.24-7.82,7.4-12.56,2.93-6.41,5.01-13.29,4.88-20.58-.26-13.39-5.97-26.08-14.06-34.07-6.47-1.54-15.64-2.87-26.21-4.07-11.97-1.36-25.63-2.35-39.55-2.42-26.21-.16-50.3,2.24-61.43,6.5Z"/>
            <path class="cls-105" d="m201.56,82.69c-8.91,6.83-14.65,19.38-14.7,32.75-.03,7.81,2.84,15.06,6.65,21.8,2.53,4.48,4.94,8.65,8.05,11.51,6.16,2.04,14.63,3.59,24.39,4.85,11.37,1.48,24.36,2.4,37.79,2.32,25.95-.16,50.18-3.51,63.5-8.15,3.16-3.27,5.52-7.52,7.76-12.04,3.1-6.23,5.25-12.92,5.13-20.01-.23-12.97-6.16-25.21-14.73-33.02-6.37-1.68-15.24-3.12-25.42-4.38-11.63-1.44-24.88-2.46-38.42-2.53-25.4-.14-48.72,2.42-60,6.91Z"/>
            <path class="cls-89" d="m203.58,83.66c-9.35,6.76-15.33,18.83-15.38,31.74-.02,7.61,2.9,14.66,6.92,21.21,2.61,4.25,5.18,8.23,8.46,11.01,6.07,2.13,14.28,3.77,23.69,5.09,11.07,1.56,23.7,2.53,36.79,2.46,25.22-.14,48.7-3.62,61.92-8.56,3.29-3.16,5.8-7.22,8.12-11.53,3.27-6.06,5.49-12.54,5.39-19.45-.2-12.55-6.35-24.35-15.4-31.97-6.26-1.82-14.83-3.37-24.63-4.69-11.29-1.52-24.13-2.57-37.3-2.63-24.6-.12-47.15,2.61-58.57,7.32Z"/>
            <path class="cls-90" d="m205.61,84.63c-9.79,6.7-16.01,18.29-16.05,30.72-.02,7.41,2.96,14.26,7.19,20.62,2.68,4.02,5.43,7.81,8.86,10.51,5.98,2.22,13.92,3.95,22.99,5.33,10.78,1.65,23.04,2.66,35.78,2.6,24.5-.12,47.21-3.73,60.33-8.97,3.42-3.05,6.08-6.92,8.48-11.01,3.45-5.88,5.73-12.17,5.64-18.89-.17-12.13-6.54-23.49-16.08-30.92-6.16-1.96-14.42-3.61-23.84-5-10.96-1.61-23.38-2.68-36.17-2.73-23.79-.11-45.57,2.79-57.14,7.73Z"/>
            <path class="cls-116" d="m207.64,85.6c-10.23,6.63-16.7,17.74-16.73,29.7-.02,7.21,3.01,13.86,7.47,20.03,2.75,3.8,5.67,7.39,9.26,10.02,5.89,2.31,13.57,4.13,22.3,5.57,10.48,1.73,22.38,2.78,34.77,2.74,23.77-.1,45.72-3.84,58.75-9.38,3.56-2.93,6.37-6.61,8.84-10.49,3.63-5.69,5.97-11.8,5.9-18.32-.15-11.71-6.73-22.63-16.75-29.87-6.05-2.1-14.02-3.86-23.05-5.31-10.62-1.7-22.64-2.79-35.05-2.84-22.98-.09-44,2.98-55.71,8.14Z"/>
            <path class="cls-4" d="m209.67,86.58c-10.67,6.56-17.38,17.19-17.41,28.69-.01,7.01,3.06,13.48,7.74,19.44,2.81,3.58,5.91,6.97,9.67,9.52,5.8,2.4,13.22,4.31,21.6,5.81,10.19,1.82,21.72,2.91,33.77,2.87,23.05-.08,44.23-3.96,57.17-9.79,3.69-2.82,6.66-6.3,9.2-9.97,3.81-5.5,6.21-11.43,6.15-17.76-.12-11.29-6.92-21.77-17.42-28.82-5.94-2.24-13.61-4.11-22.26-5.61-10.28-1.78-21.89-2.91-33.93-2.94-22.18-.07-42.42,3.16-54.27,8.55Z"/>
            <path class="cls-79" d="m211.69,87.55c-11.11,6.5-18.06,16.65-18.08,27.67,0,6.81,3.1,13.1,8.01,18.85,2.88,3.37,6.16,6.56,10.07,9.02,5.71,2.49,12.86,4.5,20.9,6.05,9.89,1.91,21.06,3.04,32.76,3.01,22.32-.06,42.74-4.07,55.58-10.2,3.82-2.7,6.95-5.98,9.56-9.45,4-5.3,6.45-11.05,6.4-17.2-.09-10.87-7.11-20.9-18.09-27.77-5.84-2.38-13.2-4.36-21.48-5.92-9.94-1.87-21.14-3.02-32.8-3.04-21.37-.05-40.85,3.34-52.84,8.97Z"/>
            <path class="cls-110" d="m213.72,88.52c-11.55,6.43-18.74,16.1-18.76,26.65,0,6.61,3.14,12.74,8.28,18.26,2.94,3.16,6.4,6.14,10.48,8.53,5.62,2.58,12.51,4.68,20.2,6.29,9.59,2.01,20.4,3.17,31.75,3.15,21.6-.04,41.25-4.18,54-10.6,3.96-2.59,7.24-5.66,9.92-8.93,4.2-5.1,6.69-10.68,6.66-16.63-.06-10.45-7.3-20.04-18.76-26.72-5.73-2.52-12.79-4.62-20.69-6.23-9.6-1.96-20.39-3.13-31.68-3.15-20.57-.04-39.27,3.53-51.41,9.38Z"/>
            <path class="cls-92" d="m215.75,89.49c-11.98,6.37-19.43,15.55-19.43,25.64,0,6.41,3.17,12.38,8.55,17.67,3.01,2.96,6.64,5.72,10.88,8.03,5.53,2.67,12.15,4.87,19.5,6.53,9.3,2.1,19.74,3.3,30.74,3.29,20.88-.02,39.76-4.29,52.42-11.01,4.09-2.47,7.52-5.34,10.28-8.41,4.39-4.89,6.93-10.31,6.91-16.07-.03-10.03-7.49-19.18-19.44-25.67-5.63-2.66-12.38-4.88-19.9-6.54-9.26-2.07-19.64-3.24-30.55-3.25-19.76-.02-37.7,3.71-49.98,9.79Z"/>
            <path class="cls-98" d="m197.67,115.08c0,9.61,7.68,18.32,20.11,24.62s29.59,10.2,48.54,10.2c37.91,0,68.64-15.59,68.64-34.82,0-9.61-7.68-18.32-20.11-24.62s-29.58-10.2-48.54-10.2-36.12,3.9-48.54,10.2-20.11,15.01-20.11,24.62Z"/>
          </g>
          <path class="cls-108" d="m130.07,189.58c37.77-3.67,207.36-10.29,241.54,0-4.56-29.5-14.31-112.29,0-141.69-40.82,11.84-227.55,5.88-241.54,0,10.74,18.98,8.54,118.81,0,141.69Z"/>
          <path class="cls-70" d="m129.09,190.73c38.09-3.7,209.05-10.38,243.52,0-4.6-29.74-14.43-113.21,0-142.84-41.16,11.93-229.41,5.93-243.52,0,10.83,19.13,8.62,119.78,0,142.84Z"/>
        </g>
        <g class="cls-47">
          <polygon class="cls-10" points="420.4 312.89 246.64 313.83 246.64 221.96 420.4 312.89"/>
          <polygon class="cls-123" points="420.79 312.61 247.04 313.55 247.04 221.68 420.79 312.61"/>
          <polygon class="cls-101" points="421.19 312.33 247.44 313.27 247.44 221.4 421.19 312.33"/>
          <polygon class="cls-129" points="421.59 312.04 247.83 312.98 247.83 221.11 421.59 312.04"/>
          <polygon class="cls-103" points="421.98 311.76 248.23 312.7 248.23 220.83 421.98 311.76"/>
          <polygon class="cls-53" points="422.38 311.48 248.62 312.42 248.62 220.55 422.38 311.48"/>
          <polygon class="cls-104" points="422.77 311.19 249.02 312.13 249.02 220.26 422.77 311.19"/>
          <polygon class="cls-84" points="423.17 310.91 249.42 311.85 249.42 219.98 423.17 310.91"/>
          <polygon class="cls-66" points="423.57 310.63 249.81 311.57 249.81 219.7 423.57 310.63"/>
          <polygon class="cls-57" points="423.96 310.34 250.21 311.29 250.21 219.41 423.96 310.34"/>
          <polygon class="cls-61" points="424.36 310.06 250.61 311 250.61 219.13 424.36 310.06"/>
          <polygon class="cls-8" points="424.76 309.78 251 310.72 251 218.85 424.76 309.78"/>
          <polygon class="cls-82" points="425.15 309.49 251.4 310.44 251.4 218.56 425.15 309.49"/>
          <polygon class="cls-94" points="425.55 309.21 251.79 310.15 251.79 218.28 425.55 309.21"/>
          <polygon class="cls-97" points="425.94 308.93 252.19 309.87 252.19 218 425.94 308.93"/>
          <polygon class="cls-6" points="426.34 308.64 252.59 309.59 252.59 217.71 426.34 308.64"/>
          <polygon class="cls-99" points="426.74 308.36 252.98 309.3 252.98 217.43 426.74 308.36"/>
          <polygon class="cls-91" points="427.13 308.08 253.38 309.02 253.38 217.15 427.13 308.08"/>
          <polygon class="cls-98" points="427.53 307.79 253.78 308.74 253.78 216.86 427.53 307.79"/>
          <polygon class="cls-98" points="427.93 307.51 254.17 308.45 254.17 216.58 427.93 307.51"/>
          <polygon class="cls-92" points="428.32 307.23 254.57 308.17 254.57 216.3 428.32 307.23"/>
          <polygon class="cls-110" points="428.72 306.94 254.96 307.89 254.96 216.01 428.72 306.94"/>
          <polygon class="cls-79" points="429.11 306.66 255.36 307.6 255.36 215.73 429.11 306.66"/>
          <polygon class="cls-4" points="429.51 306.38 255.76 307.32 255.76 215.45 429.51 306.38"/>
          <polygon class="cls-116" points="429.91 306.09 256.15 307.04 256.15 215.16 429.91 306.09"/>
          <polygon class="cls-90" points="430.3 305.81 256.55 306.75 256.55 214.88 430.3 305.81"/>
          <polygon class="cls-89" points="430.7 305.53 256.95 306.47 256.95 214.6 430.7 305.53"/>
          <polygon class="cls-105" points="431.1 305.24 257.34 306.19 257.34 214.31 431.1 305.24"/>
          <polygon class="cls-102" points="431.49 304.96 257.74 305.9 257.74 214.03 431.49 304.96"/>
          <polygon class="cls-51" points="431.89 304.68 258.13 305.62 258.13 213.75 431.89 304.68"/>
          <polygon class="cls-60" points="432.28 304.39 258.53 305.34 258.53 213.46 432.28 304.39"/>
          <polygon class="cls-88" points="432.68 304.11 258.93 305.05 258.93 213.18 432.68 304.11"/>
          <polygon class="cls-78" points="433.08 303.83 259.32 304.77 259.32 212.9 433.08 303.83"/>
          <polygon class="cls-76" points="433.47 303.54 259.72 304.49 259.72 212.62 433.47 303.54"/>
          <polygon class="cls-81" points="433.87 303.26 260.12 304.2 260.12 212.33 433.87 303.26"/>
          <polygon class="cls-2" points="434.27 302.97 260.51 303.92 260.51 212.05 434.27 302.97"/>
          <polygon class="cls-112" points="434.66 302.69 260.91 303.64 260.91 211.77 434.66 302.69"/>
          <polygon class="cls-54" points="435.06 302.41 261.3 303.35 261.3 211.48 435.06 302.41"/>
          <polygon class="cls-95" points="435.45 302.12 261.7 303.07 261.7 211.2 435.45 302.12"/>
        </g>
        <g>
          <polygon class="cls-62" points="435.45 302.12 261.7 303.07 261.7 211.2 435.45 302.12"/>
          <polygon class="cls-119" points="434.8 301.89 261.92 302.92 262.01 211.47 434.8 301.89"/>
          <polygon class="cls-75" points="434.15 301.66 262.14 302.78 262.32 211.74 434.15 301.66"/>
          <polygon class="cls-124" points="433.5 301.43 262.35 302.63 262.62 212.01 433.5 301.43"/>
          <polygon class="cls-107" points="432.84 301.19 262.57 302.48 262.93 212.28 432.84 301.19"/>
          <polygon class="cls-1" points="432.19 300.96 262.79 302.34 263.24 212.55 432.19 300.96"/>
          <polygon class="cls-96" points="431.54 300.73 263.01 302.19 263.55 212.82 431.54 300.73"/>
          <polygon class="cls-132" points="430.89 300.5 263.23 302.04 263.86 213.09 430.89 300.5"/>
          <polygon class="cls-64" points="430.23 300.26 263.44 301.9 264.16 213.36 430.23 300.26"/>
          <polygon class="cls-118" points="429.58 300.03 263.66 301.75 264.47 213.63 429.58 300.03"/>
          <polygon class="cls-115" points="428.93 299.8 263.88 301.6 264.78 213.9 428.93 299.8"/>
          <polygon class="cls-87" points="428.28 299.56 264.1 301.45 265.09 214.17 428.28 299.56"/>
          <polygon class="cls-111" points="427.62 299.33 264.31 301.31 265.4 214.44 427.62 299.33"/>
          <polygon class="cls-58" points="426.97 299.1 264.53 301.16 265.7 214.71 426.97 299.1"/>
          <polygon class="cls-59" points="426.32 298.87 264.75 301.01 266.01 214.98 426.32 298.87"/>
          <polygon class="cls-114" points="425.67 298.63 264.97 300.87 266.32 215.25 425.67 298.63"/>
          <polygon class="cls-120" points="425.01 298.4 265.19 300.72 266.63 215.52 425.01 298.4"/>
          <polygon class="cls-83" points="424.36 298.17 265.4 300.57 266.93 215.79 424.36 298.17"/>
          <polygon class="cls-131" points="423.71 297.94 265.62 300.43 267.24 216.06 423.71 297.94"/>
          <polygon class="cls-49" points="423.06 297.7 265.84 300.28 267.55 216.33 423.06 297.7"/>
          <polygon class="cls-128" points="422.4 297.47 266.06 300.13 267.86 216.6 422.4 297.47"/>
          <polygon class="cls-80" points="421.75 297.24 266.27 299.98 268.17 216.87 421.75 297.24"/>
          <polygon class="cls-100" points="421.1 297 266.49 299.84 268.47 217.13 421.1 297"/>
          <polygon class="cls-77" points="420.45 296.77 266.71 299.69 268.78 217.4 420.45 296.77"/>
          <polygon class="cls-55" points="419.79 296.54 266.93 299.54 269.09 217.67 419.79 296.54"/>
          <polygon class="cls-50" points="419.14 296.31 267.15 299.4 269.4 217.94 419.14 296.31"/>
          <polygon class="cls-117" points="418.49 296.07 267.36 299.25 269.71 218.21 418.49 296.07"/>
          <polygon class="cls-126" points="417.84 295.84 267.58 299.1 270.01 218.48 417.84 295.84"/>
          <polygon class="cls-122" points="417.19 295.61 267.8 298.96 270.32 218.75 417.19 295.61"/>
          <polygon class="cls-85" points="416.53 295.38 268.02 298.81 270.63 219.02 416.53 295.38"/>
          <polygon class="cls-130" points="415.88 295.14 268.23 298.66 270.94 219.29 415.88 295.14"/>
          <polygon class="cls-130" points="415.23 294.91 268.45 298.52 271.25 219.56 415.23 294.91"/>
          <polygon class="cls-52" points="414.58 294.68 268.67 298.37 271.55 219.83 414.58 294.68"/>
          <polygon class="cls-127" points="413.92 294.44 268.89 298.22 271.86 220.1 413.92 294.44"/>
          <polygon class="cls-109" points="413.27 294.21 269.11 298.07 272.17 220.37 413.27 294.21"/>
          <polygon class="cls-93" points="412.62 293.98 269.32 297.93 272.48 220.64 412.62 293.98"/>
          <polygon class="cls-113" points="411.97 293.75 269.54 297.78 272.78 220.91 411.97 293.75"/>
          <polygon class="cls-67" points="411.31 293.51 269.76 297.63 273.09 221.18 411.31 293.51"/>
          <polygon class="cls-86" points="410.66 293.28 269.98 297.49 273.4 221.45 410.66 293.28"/>
          <polygon class="cls-56" points="410.01 293.05 270.19 297.34 273.71 221.72 410.01 293.05"/>
          <polygon class="cls-125" points="409.36 292.82 270.41 297.19 274.02 221.99 409.36 292.82"/>
          <polygon class="cls-95" points="408.7 292.58 270.63 297.05 274.32 222.26 408.7 292.58"/>
          <polygon class="cls-54" points="408.05 292.35 270.85 296.9 274.63 222.53 408.05 292.35"/>
          <polygon class="cls-112" points="407.4 292.12 271.07 296.75 274.94 222.8 407.4 292.12"/>
          <polygon class="cls-2" points="406.75 291.88 271.28 296.6 275.25 223.07 406.75 291.88"/>
          <polygon class="cls-81" points="406.09 291.65 271.5 296.46 275.56 223.34 406.09 291.65"/>
          <polygon class="cls-76" points="405.44 291.42 271.72 296.31 275.86 223.61 405.44 291.42"/>
          <polygon class="cls-78" points="404.79 291.19 271.94 296.16 276.17 223.88 404.79 291.19"/>
          <polygon class="cls-88" points="404.14 290.95 272.15 296.02 276.48 224.15 404.14 290.95"/>
          <polygon class="cls-60" points="403.48 290.72 272.37 295.87 276.79 224.42 403.48 290.72"/>
          <polygon class="cls-51" points="402.83 290.49 272.59 295.72 277.1 224.69 402.83 290.49"/>
          <polygon class="cls-102" points="402.18 290.26 272.81 295.58 277.4 224.96 402.18 290.26"/>
          <polygon class="cls-105" points="401.53 290.02 273.03 295.43 277.71 225.23 401.53 290.02"/>
          <polygon class="cls-89" points="400.87 289.79 273.24 295.28 278.02 225.5 400.87 289.79"/>
          <polygon class="cls-90" points="400.22 289.56 273.46 295.13 278.33 225.77 400.22 289.56"/>
          <polygon class="cls-116" points="399.57 289.32 273.68 294.99 278.63 226.04 399.57 289.32"/>
          <polygon class="cls-4" points="398.92 289.09 273.9 294.84 278.94 226.31 398.92 289.09"/>
          <polygon class="cls-79" points="398.26 288.86 274.11 294.69 279.25 226.58 398.26 288.86"/>
          <polygon class="cls-110" points="397.61 288.63 274.33 294.55 279.56 226.85 397.61 288.63"/>
          <polygon class="cls-92" points="396.96 288.39 274.55 294.4 279.87 227.12 396.96 288.39"/>
          <polygon class="cls-98" points="396.31 288.16 274.77 294.25 280.17 227.39 396.31 288.16"/>
        </g>
        <path class="cls-13" d="m373.34,190.45c-6.22-40.24-13.19-115.29-.03-142.31.12-.24.06-.51-.15-.69s-.54-.25-.8-.17c-15.22,4.41-52.97,6.84-106.32,6.84-60.76,0-128.43-3.38-136.61-6.81-.28-.12-.65-.08-.88.12-.23.2-.3.5-.16.74,10.42,18.4,8.66,119.06-.03,142.36-.08.21-.03.44.14.61.15.17.42.24.68.24,23.25-2.26,95.11-5.54,154.79-5.54,45.84,0,76.4,1.9,88.38,5.51.08.02.17.03.26.03h.03c.43,0,.78-.29.78-.65,0-.1-.03-.2-.07-.28Z"/>
        <path class="cls-13" d="m437.09,302.5l-175.98-92.04c-.16-.08-.35-.12-.54-.12H64.67c-.56,0-1.02.39-1.02.87v374.02c0,.48.46.87,1.02.87h371.88c.56,0,1.03-.39,1.03-.87v-281.97c0-.3-.19-.59-.49-.74Z"/>
      </g>
    </g>
  </g>
</svg>