<?xml version="1.0" encoding="UTF-8"?>
<svg xmlns="http://www.w3.org/2000/svg" xmlns:xlink="http://www.w3.org/1999/xlink" viewBox="0 0 600 400">
  <defs>
    <style>
      .cls-1 {
        fill: #b58c5a;
      }

      .cls-2 {
        fill: #9dc26f;
      }

      .cls-3 {
        fill: #b8aa9d;
      }

      .cls-4 {
        isolation: isolate;
      }

      .cls-5 {
        fill: #a97c50;
      }

      .cls-6 {
        fill: #dac9ba;
      }

      .cls-7 {
        fill: #f1f2f2;
      }

      .cls-8 {
        fill: #b3a07a;
      }

      .cls-9 {
        clip-path: url(#clippath);
      }

      .cls-10 {
        fill: none;
      }

      .cls-11 {
        fill: #e8d9cc;
      }

      .cls-12 {
        fill: #638a31;
      }

      .cls-13 {
        fill: #231f20;
        mix-blend-mode: screen;
      }

      .cls-14 {
        fill: #bcbec0;
      }

      .cls-15 {
        fill: #ecf0f9;
      }

      .cls-16 {
        fill: #75a33a;
      }

      .cls-17 {
        fill: #4f3316;
      }

      .cls-18 {
        fill: #89ba49;
      }
    </style>
    <clipPath id="clippath">
      <path class="cls-10" d="m561.33,388.67h-151.57l-5.07-17.38h139.47l17.16,17.38Zm-169.33-17.38h-124.15l-3.32,17.38h130.84l-3.37-17.38Z"/>
    </clipPath>
  </defs>
  <g class="cls-4">
    <g id="Layer_1" data-name="Layer 1">
      <rect class="cls-8" x="50.33" y="348.65" width="499.33" height=".67"/>
      <polygon class="cls-3" points="53.83 348.2 547.67 347 600 400 0 400 53.83 348.2"/>
      <polygon class="cls-15" points="250.15 388.67 106.87 388.67 119.83 371.28 255.17 371.28 250.15 388.67"/>
      <g class="cls-9">
        <g>
          <g>
            <rect class="cls-14" x="257.16" y="370.19" width="300.58" height="19.56"/>
            <path class="cls-7" d="m558.24,390.26h-301.58v-20.56h301.58v20.56Zm-300.58-1h299.58v-18.56h-299.58v18.56Z"/>
          </g>
          <rect class="cls-7" x="257.16" y="371.47" width="300.58" height="1"/>
          <rect class="cls-7" x="257.16" y="373.25" width="300.58" height="1"/>
          <rect class="cls-7" x="257.16" y="375.03" width="300.58" height="1"/>
          <rect class="cls-7" x="257.16" y="376.8" width="300.58" height="1"/>
          <rect class="cls-7" x="257.16" y="378.59" width="300.58" height="1"/>
          <rect class="cls-7" x="257.16" y="380.36" width="300.58" height="1"/>
          <rect class="cls-7" x="257.16" y="382.14" width="300.58" height="1"/>
          <rect class="cls-7" x="257.16" y="383.92" width="300.58" height="1"/>
          <rect class="cls-7" x="257.16" y="385.7" width="300.58" height="1"/>
          <rect class="cls-7" x="257.16" y="387.48" width="300.58" height="1"/>
        </g>
      </g>
      <polygon class="cls-11" points="259.01 358 255.17 371.28 119.83 371.28 129.73 358 259.01 358"/>
      <polygon class="cls-11" points="536.05 358 544.17 371.28 404.7 371.28 400.82 358 536.05 358"/>
      <polygon class="cls-6" points="535.84 371.22 536.05 358 561.33 388.67 546.95 388.67 535.84 371.22"/>
      <polygon class="cls-6" points="130.44 371.28 129.83 358 106.55 388.67 120.21 388.67 130.44 371.28"/>
      <polygon class="cls-11" points="389.84 358 392.01 371.28 267.86 371.28 270.4 358 389.84 358"/>
      <polygon class="cls-6" points="389.22 371.56 389.84 358 396.12 388.67 391.34 388.67 389.22 371.56"/>
      <polygon class="cls-6" points="270.59 371.56 269.97 358 263.69 388.67 268.63 388.67 270.59 371.56"/>
      <rect class="cls-10" width="600" height="400"/>
      <g>
        <ellipse class="cls-5" cx="400.81" cy="373.41" rx="8.12" ry="8.63"/>
        <g>
          <g>
            <path class="cls-1" d="m403.49,356.1c5.81.95,9.76,6.39,8.83,12.15-.94,5.76-6.42,9.67-12.23,8.72-5.82-.95-9.76-6.39-8.83-12.16.94-5.76,6.41-9.67,12.23-8.72Z"/>
            <path class="cls-17" d="m403.18,358.93c4.55.74,7.63,5.03,6.89,9.58-.74,4.55-5.03,7.63-9.57,6.89-4.55-.74-7.63-5.03-6.89-9.58.74-4.55,5.03-7.63,9.58-6.89Z"/>
            <path class="cls-16" d="m401.25,365.39s8.87,3.41,12.63-10.67c1.4-5.28,1.31-5.54.56-5.2-.76.34-4,8.31-4,8.31,0,0-.55-2.59-1.14-2.62-.59-.03-1.65,4.44-1.65,4.44,0,0,.17-1.76-.62-2.11-.78-.35-2.36,4.44-2.36,4.44,0,0,.43-1.5-.07-1.72-.51-.22-1.65,3.07-1.65,3.07,0,0,.36-.9-.15-1.11-.5-.22-1.34,2.12-1.34,2.12l-.2,1.05Z"/>
            <path class="cls-12" d="m401.96,367.46s6.33,4.69,15.45-5.82c3.42-3.94,3.45-4.17,2.65-4.06-.8.11-6.94,5.81-6.94,5.81,0,0,.59-2.21.09-2.36-.51-.15-3.28,3.21-3.28,3.21,0,0,.87-1.38.34-1.83-.54-.45-3.9,3.05-3.9,3.05,0,0,1-1.12.65-1.4-.35-.29-2.71,2.1-2.71,2.1,0,0,.68-.63.33-.92-.36-.29-2.06,1.41-2.06,1.41l-.61.8Z"/>
            <path class="cls-16" d="m401.92,369.16s6.08-4.69,15.62,5.31c3.58,3.76,3.62,3.98,2.82,3.89-.8-.09-7.17-5.5-7.17-5.5,0,0,.7,2.13.2,2.28-.5.16-3.42-3.05-3.42-3.05,0,0,.94,1.32.42,1.78-.52.45-4.02-2.88-4.02-2.88,0,0,1.05,1.06.71,1.35-.33.29-2.79-1.99-2.79-1.99,0,0,.71.6.37.89-.33.29-2.11-1.33-2.11-1.33l-.64-.76Z"/>
            <path class="cls-16" d="m402.9,367.59s-3.81,6.66-16.46,1.07c-4.75-2.1-4.87-2.29-4.1-2.51.77-.23,8.72,2.34,8.72,2.34,0,0-1.46-1.71-1.06-2.04.4-.34,4.32,1.51,4.32,1.51,0,0-1.37-.86-1.07-1.48.3-.62,4.82,1.12,4.82,1.12,0,0-1.37-.58-1.18-.97.21-.39,3.34.76,3.34.76,0,0-.88-.29-.68-.68.2-.39,2.46.42,2.46.42l.88.46Z"/>
            <path class="cls-16" d="m401.97,367.13s-7.6,1.1-10.98-12.32c-1.27-5.03-1.19-5.24-.54-4.77.65.47,3.53,8.32,3.53,8.32,0,0,.45-2.2.95-2.09.51.11,1.47,4.33,1.47,4.33,0,0-.17-1.61.5-1.75.68-.14,2.08,4.49,2.08,4.49,0,0-.39-1.44.04-1.52.43-.08,1.46,3.11,1.46,3.11,0,0-.32-.88.12-.96.43-.08,1.18,2.2,1.18,2.2l.18.98Z"/>
            <path class="cls-18" d="m401.05,366.54s6.24-4.43-.53-16.5c-2.54-4.52-2.74-4.62-2.89-3.83-.15.79,3.16,8.46,3.16,8.46,0,0-1.84-1.29-2.13-.86-.29.43,1.92,4.15,1.92,4.15,0,0-.98-1.28-1.57-.92-.58.36,1.58,4.69,1.58,4.69,0,0-.71-1.31-1.07-1.08-.37.24,1.08,3.25,1.08,3.25,0,0-.37-.85-.75-.61-.37.23.65,2.4.65,2.4l.54.84Z"/>
            <path class="cls-2" d="m400.3,368.55s7.38-2.12,12.54,10.72c1.93,4.81,1.89,5.04,1.18,4.66-.71-.38-4.62-7.76-4.62-7.76,0,0-.14,2.24-.66,2.2-.52-.04-2.04-4.09-2.04-4.09,0,0,.39,1.57-.26,1.8-.65.23-2.67-4.16-2.67-4.16,0,0,.58,1.37.16,1.51-.41.14-1.86-2.88-1.86-2.88,0,0,.43.83,0,.97-.42.14-1.47-2.02-1.47-2.02l-.31-.94Z"/>
            <path class="cls-18" d="m399.41,369.29s6.82,3.51,1.81,16.4c-1.89,4.83-2.07,4.97-2.33,4.21-.26-.76,1.94-8.83,1.94-8.83,0,0-1.64,1.54-1.99,1.15-.35-.38,1.31-4.38,1.31-4.38,0,0-.8,1.41-1.43,1.13-.63-.27.91-4.86.91-4.86,0,0-.52,1.4-.92,1.21-.41-.18.61-3.37.61-3.37,0,0-.25.9-.65.71-.4-.18.31-2.48.31-2.48l.42-.9Z"/>
            <path class="cls-2" d="m402.56,366.29s-7.46-2.18-12.54,10.72c-1.9,4.84-1.86,5.07-1.14,4.69.71-.38,4.59-7.79,4.59-7.79,0,0,.16,2.26.69,2.22.52-.03,2.02-4.12,2.02-4.12,0,0-.37,1.58.28,1.82.65.23,2.65-4.18,2.65-4.18,0,0-.58,1.38-.15,1.53.42.14,1.85-2.9,1.85-2.9,0,0-.43.83,0,.97.42.15,1.46-2.02,1.46-2.02l.31-.95Z"/>
          </g>
          <path class="cls-13" d="m401.22,385.69c1.39-3.56,1.87-6.41,1.84-8.66,1.18-.14,2.31-.46,3.36-.96,0,0,.01,0,.02,0,.02,0,.03-.03.05-.04.26-.13.51-.25.76-.4.49,1.18,1.18,2.7,1.5,2.73.52.04.66-2.2.66-2.2,0,0,3.92,7.38,4.62,7.76.71.38.76.15-1.18-4.66-.9-2.23-1.86-4-2.83-5.41.18.07.32.09.4.03.26-.23.15-.68-.02-1.07.04-.05.07-.11.11-.16.86.91,2.54,2.62,2.91,2.5.49-.15-.2-2.28-.2-2.28,0,0,6.37,5.41,7.17,5.5.8.09.76-.13-2.82-3.89-2.05-2.15-3.94-3.61-5.64-4.6.17-.52.32-1.06.41-1.62.11-.7.15-1.39.13-2.07,1.53-1.04,3.19-2.5,4.95-4.54,3.42-3.94,3.45-4.17,2.65-4.06-.8.11-6.94,5.81-6.94,5.81,0,0,.59-2.21.09-2.36-.23-.07-.93.59-1.63,1.33-.16-.36-.33-.71-.52-1.05,1.07-1.59,2.05-3.73,2.82-6.6,1.4-5.28,1.31-5.54.56-5.2-.76.34-4,8.31-4,8.31,0,0-.55-2.59-1.14-2.62-.35-.02-.86,1.53-1.22,2.8-1.31-.96-2.86-1.64-4.58-1.92-.14-.02-.27-.03-.41-.05-.48-1.75-1.29-3.75-2.56-6.01-2.54-4.52-2.74-4.62-2.89-3.83-.15.79,3.16,8.46,3.16,8.46,0,0-1.84-1.29-2.13-.86-.15.22.38,1.35.92,2.38-1.41.29-2.74.86-3.9,1.67-.26-.84-.54-1.55-.75-1.6-.5-.11-.95,2.09-.95,2.09,0,0-2.87-7.84-3.53-8.32-.66-.47-.73-.25.54,4.77.58,2.29,1.28,4.15,2.04,5.67-.88,1.26-1.51,2.72-1.78,4.33-.1.61-.13,1.22-.13,1.82-.56-.19-1.02-.29-1.14-.19-.4.33,1.06,2.04,1.06,2.04,0,0-7.96-2.57-8.72-2.34-.77.22-.65.42,4.1,2.51,2.06.91,3.88,1.49,5.5,1.84.2.48.42.95.68,1.39-.9,1.37-1.78,3.05-2.6,5.13-1.9,4.84-1.86,5.07-1.14,4.69.71-.38,4.59-7.79,4.59-7.79,0,0,.16,2.26.69,2.22.21-.01.56-.65.92-1.42,1.1.89,2.39,1.58,3.82,1.99-.27,1.1-.45,2.15-.16,2.28.63.28,1.43-1.13,1.43-1.13,0,0-1.66,4-1.31,4.38.35.38,1.99-1.15,1.99-1.15,0,0-2.2,8.06-1.94,8.83.25.76.44.63,2.33-4.21Z"/>
        </g>
      </g>
    </g>
  </g>
</svg>