<?xml version="1.0" encoding="UTF-8"?>
<svg id="Layer_1" data-name="Layer 1" xmlns="http://www.w3.org/2000/svg" viewBox="0 0 53 400">
  <defs>
    <style>
      .cls-1 {
        fill: #d4ad81;
      }

      .cls-2 {
        fill: #3d3d3d;
      }

      .cls-3 {
        fill: #9dbee0;
      }

      .cls-4 {
        fill: #658dc1;
      }

      .cls-5 {
        fill: #9496da;
      }

      .cls-6 {
        fill: #76a1cd;
      }

      .cls-7 {
        fill: #bed3e6;
      }

      .cls-8 {
        fill: #dac9ba;
      }

      .cls-9 {
        fill: #c49a6c;
      }

      .cls-10 {
        fill: #858585;
      }

      .cls-11 {
        fill: #c2b59b;
      }

      .cls-12 {
        fill: #636363;
      }

      .cls-13 {
        fill: #e6e7e8;
      }

      .cls-14 {
        fill: #bcbec0;
      }

      .cls-15 {
        fill: #afb068;
      }
    </style>
  </defs>
  <polygon class="cls-8" points="0 347.67 0 52.33 53 0 53 400 0 347.67"/>
  <g>
    <rect class="cls-12" x="28.14" y="31.44" width="5.64" height="22.41"/>
    <polygon class="cls-10" points="33.78 53.84 27.91 53.84 20.42 60.74 26.3 60.74 33.78 53.84"/>
    <polygon class="cls-2" points="28.14 53.84 20.44 60.74 20.44 39.92 28.14 31.44 28.14 53.84"/>
    <path class="cls-10" d="m27.13,46.88c-.83,4.39-2.75,7.72-4.29,7.43-1.54-.29-2.12-4.09-1.29-8.49.83-4.39,2.75-7.72,4.3-7.43,1.54.29,2.12,4.09,1.29,8.49Z"/>
  </g>
  <g>
    <rect class="cls-12" x="28.14" y="347.56" width="5.64" height="22.41"/>
    <polygon class="cls-10" points="33.78 347.56 27.91 347.56 20.42 340.67 26.29 340.67 33.78 347.56"/>
    <polygon class="cls-2" points="28.14 347.56 20.44 340.67 20.44 361.48 28.14 369.97 28.14 347.56"/>
    <path class="cls-10" d="m27.13,354.53c-.83-4.39-2.75-7.72-4.29-7.43-1.54.29-2.12,4.09-1.29,8.49.83,4.39,2.75,7.72,4.3,7.43,1.54-.29,2.12-4.09,1.29-8.49Z"/>
  </g>
  <g>
    <g>
      <polygon class="cls-13" points="30.56 155.49 30.56 131.47 41.76 123.27 41.76 150.22 30.56 155.49"/>
      <polygon class="cls-15" points="32.41 150.58 32.41 134.15 39.91 128.98 39.91 146.73 32.41 150.58"/>
    </g>
    <g>
      <polygon class="cls-13" points="17.82 166.8 26.65 163.24 26.65 192.4 17.82 193.03 17.82 166.8"/>
      <polygon class="cls-11" points="19.27 170.63 25.2 168.56 25.2 187.77 19.27 188.52 19.27 170.63"/>
    </g>
    <g>
      <polygon class="cls-13" points="38.12 229.17 30.75 226.9 30.75 201.42 38.12 201.64 38.12 229.17"/>
      <polygon class="cls-6" points="36.91 224.31 31.96 223.01 31.96 205.72 36.91 206.09 36.91 224.31"/>
    </g>
    <g>
      <polygon class="cls-13" points="14.05 149.2 14.05 129.5 25.25 119.21 25.25 141.84 14.05 149.2"/>
      <polygon class="cls-3" points="15.9 144.66 15.9 131.13 23.4 124.55 23.4 139.41 15.9 144.66"/>
    </g>
    <g>
      <polygon class="cls-13" points="6.78 178.54 6.78 161.36 15.65 156.75 15.65 176.86 6.78 178.54"/>
      <polygon class="cls-1" points="8.63 175.11 8.63 163.26 13.8 160.99 13.8 174.16 8.63 175.11"/>
    </g>
    <g>
      <polygon class="cls-13" points="21.15 219.26 27.81 220.93 27.81 243.21 21.15 239.88 21.15 219.26"/>
      <polygon class="cls-7" points="22.25 222.99 26.71 224.29 26.71 239.03 22.25 236.98 22.25 222.99"/>
    </g>
    <g>
      <polygon class="cls-13" points="32.63 263.32 32.63 238.75 43.82 243.54 43.82 271.04 32.63 263.32"/>
      <polygon class="cls-4" points="34.47 260.47 34.47 243.67 41.98 247.2 41.98 265.32 34.47 260.47"/>
    </g>
    <g>
      <polygon class="cls-13" points="15.71 207.45 15.71 219.96 8.75 218.03 8.75 206.66 15.71 207.45"/>
      <polygon class="cls-14" points="14.56 209.35 14.56 217.61 9.9 216.45 9.9 208.69 14.56 209.35"/>
    </g>
  </g>
  <g>
    <polygon class="cls-13" points="31.94 283.88 31.94 307.9 43.13 318.41 43.13 291.46 31.94 283.88"/>
    <polygon class="cls-9" points="33.79 288.78 33.79 305.22 41.29 312.7 41.29 294.95 33.79 288.78"/>
  </g>
  <g>
    <polygon class="cls-13" points="19.19 271.87 28.02 278.43 28.02 249.27 19.19 245.64 19.19 271.87"/>
    <polygon class="cls-11" points="20.65 268.05 26.57 273.11 26.57 253.9 20.65 250.16 20.65 268.05"/>
  </g>
  <g>
    <polygon class="cls-13" points="15.42 290.89 15.42 310.59 26.62 322.47 26.62 299.84 15.42 290.89"/>
    <polygon class="cls-15" points="17.27 295.43 17.27 308.96 24.77 317.12 24.77 302.27 17.27 295.43"/>
  </g>
  <g>
    <polygon class="cls-13" points="7.35 261.64 7.35 278.82 17.03 284.93 17.03 264.81 7.35 261.64"/>
    <polygon class="cls-5" points="8.95 265.07 8.95 276.92 15.43 280.69 15.43 267.52 8.95 265.07"/>
  </g>
  <g>
    <polygon class="cls-13" points="19.2 119.15 27.28 113.31 26.97 91.03 18.91 98.54 19.2 119.15"/>
    <polygon class="cls-6" points="20.69 115.42 25.69 111.65 25.49 95.91 20.5 100.43 20.69 115.42"/>
  </g>
  <g>
    <polygon class="cls-13" points="30.41 72.11 30.69 96.98 41.26 90.06 40.77 62.26 30.41 72.11"/>
    <polygon class="cls-5" points="32.21 74.53 32.18 91.95 38.51 87.06 38.54 68.34 32.21 74.53"/>
  </g>
</svg>