<?xml version="1.0" encoding="UTF-8"?>
<svg xmlns="http://www.w3.org/2000/svg" xmlns:xlink="http://www.w3.org/1999/xlink" viewBox="0 0 600 129.29">
  <defs>
    <style>
      .cls-1 {
        fill: #d4ad81;
      }

      .cls-2 {
        fill: #719e39;
      }

      .cls-3 {
        fill: #b58c5a;
      }

      .cls-4 {
        fill: #9dc26f;
      }

      .cls-5 {
        fill: #b38556;
      }

      .cls-6 {
        fill: #b8aa9d;
      }

      .cls-7 {
        fill: #c99661;
      }

      .cls-8 {
        isolation: isolate;
      }

      .cls-9 {
        fill: #76a1cd;
      }

      .cls-10 {
        fill: #a97c50;
      }

      .cls-11 {
        fill: #acdb6c;
      }

      .cls-12 {
        fill: #dac9ba;
      }

      .cls-13 {
        fill: #98d14f;
      }

      .cls-14 {
        fill: #f1f2f2;
      }

      .cls-15, .cls-16 {
        mix-blend-mode: screen;
      }

      .cls-17 {
        fill: #b3a07a;
      }

      .cls-18 {
        fill: #87c23e;
      }

      .cls-19 {
        clip-path: url(#clippath);
      }

      .cls-20 {
        fill: #ebebeb;
      }

      .cls-21 {
        fill: none;
      }

      .cls-22 {
        fill: #689134;
      }

      .cls-23 {
        fill: #916a3c;
      }

      .cls-24 {
        fill: #e8d9cc;
      }

      .cls-25 {
        fill: #638a31;
      }

      .cls-26 {
        fill: #78ad37;
      }

      .cls-16, .cls-27 {
        fill: #231f20;
      }

      .cls-28 {
        fill: #bcbec0;
      }

      .cls-29 {
        fill: #916c46;
      }

      .cls-30 {
        fill: #ecf0f9;
      }

      .cls-31 {
        fill: #75a33a;
      }

      .cls-32 {
        fill: #4f3316;
      }

      .cls-33 {
        fill: #89ba49;
      }
    </style>
    <clipPath id="clippath">
      <path class="cls-21" d="m561.33,117.96h-151.57l-5.07-17.38h139.47l17.16,17.38Zm-169.33-17.38h-124.15l-3.32,17.38h130.84l-3.37-17.38Z"/>
    </clipPath>
  </defs>
  <g class="cls-8">
    <g id="Layer_1" data-name="Layer 1">
      <path class="cls-20" d="m153.33,44.49c-8.37-2.16-16.91,2.87-19.07,11.24-2.16,8.37,2.87,16.91,11.24,19.07,8.37,2.16,16.91-2.87,19.07-11.24,2.16-8.37-2.87-16.91-11.24-19.07Z"/>
      <path class="cls-3" d="m151.25,49.48c-6.32-1.63-12.77,2.17-14.4,8.49-1.63,6.32,2.17,12.77,8.49,14.4,6.32,1.63,12.77-2.17,14.41-8.49,1.63-6.32-2.17-12.77-8.49-14.4Z"/>
      <rect class="cls-17" x="50.33" y="77.94" width="499.33" height=".67"/>
      <polygon class="cls-6" points="53.83 77.49 547.67 76.29 600 129.29 0 129.29 53.83 77.49"/>
      <polygon class="cls-30" points="250.15 117.96 106.87 117.96 119.83 100.57 255.17 100.57 250.15 117.96"/>
      <g class="cls-19">
        <g>
          <g>
            <rect class="cls-28" x="257.16" y="99.48" width="300.58" height="19.56"/>
            <path class="cls-14" d="m558.24,119.55h-301.58v-20.56h301.58v20.56Zm-300.58-1h299.58v-18.56h-299.58v18.56Z"/>
          </g>
          <rect class="cls-14" x="257.16" y="100.76" width="300.58" height="1"/>
          <rect class="cls-14" x="257.16" y="102.54" width="300.58" height="1"/>
          <rect class="cls-14" x="257.16" y="104.32" width="300.58" height="1"/>
          <rect class="cls-14" x="257.16" y="106.09" width="300.58" height="1"/>
          <rect class="cls-14" x="257.16" y="107.88" width="300.58" height="1"/>
          <rect class="cls-14" x="257.16" y="109.65" width="300.58" height="1"/>
          <rect class="cls-14" x="257.16" y="111.43" width="300.58" height="1"/>
          <rect class="cls-14" x="257.16" y="113.21" width="300.58" height="1"/>
          <rect class="cls-14" x="257.16" y="114.99" width="300.58" height="1"/>
          <rect class="cls-14" x="257.16" y="116.77" width="300.58" height="1"/>
        </g>
      </g>
      <polygon class="cls-24" points="259.01 87.29 255.17 100.57 119.83 100.57 129.73 87.29 259.01 87.29"/>
      <polygon class="cls-24" points="536.05 87.29 544.17 100.57 404.7 100.57 400.82 87.29 536.05 87.29"/>
      <polygon class="cls-12" points="535.84 100.51 536.05 87.29 561.33 117.96 546.95 117.96 535.84 100.51"/>
      <polygon class="cls-12" points="130.44 100.57 129.83 87.29 106.55 117.96 120.21 117.96 130.44 100.57"/>
      <polygon class="cls-24" points="389.84 87.29 392.01 100.57 267.86 100.57 270.4 87.29 389.84 87.29"/>
      <polygon class="cls-12" points="389.22 100.85 389.84 87.29 396.12 117.96 391.34 117.96 389.22 100.85"/>
      <polygon class="cls-12" points="270.59 100.85 269.97 87.29 263.69 117.96 268.63 117.96 270.59 100.85"/>
      <rect class="cls-1" x="46.92" y="36.07" width="32.67" height="48.11"/>
      <polygon class="cls-7" points="79.74 84.18 88.33 71.73 88.33 31.65 79.74 35.62 79.74 84.18"/>
      <polygon class="cls-5" points="80.05 36.14 87.6 31.54 57.52 31.54 46.5 36.14 80.05 36.14"/>
      <g>
        <g>
          <path class="cls-9" d="m68.18,40.51c6,1.3,9.81,7.16,8.53,13.11-1.29,5.95-7.19,9.72-13.19,8.42-6-1.29-9.81-7.17-8.53-13.11,1.29-5.95,7.19-9.71,13.19-8.42Z"/>
          <path class="cls-29" d="m67.7,43.44c4.69,1.02,7.67,5.64,6.65,10.33-1.01,4.69-5.64,7.67-10.33,6.66-4.69-1.01-7.67-5.64-6.65-10.33,1.01-4.69,5.64-7.67,10.33-6.66Z"/>
        </g>
        <g>
          <path class="cls-23" d="m67.81,54.32c-2.13-.02-3.85-1.84-3.83-4.06.02-2.22,1.77-4.01,3.9-3.99,2.13.02,3.85,1.83,3.83,4.05-.02,2.22-1.76,4.01-3.9,3.99Z"/>
          <g>
            <g>
              <path class="cls-18" d="m84.22,91.52c-.32-.74-.61-1.5-.87-2.27-1.05-2.17-1.03-4.85-1.58-7.25-.1-.83-.16-1.67-.21-2.51-.04-.84-.07-1.68-.06-2.52-.07-1.01-.15-2.01-.24-3-1-.16-2.07-.39-3.15-.59-1.07-.2-2.14-.35-3.15-.36.87-.44,1.87-.8,2.87-1.17,1.01-.36,2.01-.73,2.87-1.17-1.11-3.58-1.36-8.65-5.36-9.58-2.28-.62-4.57-.93-6.57-1.85.84,1.8,1.4,3.89,1.95,5.68.28.9.49,1.87.69,2.84.21.97.41,1.94.69,2.84.11.9.23,1.79.35,2.67,1.56,7.77,2.92,15.83,7.63,22.57.26.73.48,1.48.63,2.25.16.77.26,1.56.29,2.38,2.88-1.76,4.63-5.62,3.18-8.96h0Z"/>
              <path class="cls-26" d="m73.57,89.05c-1.04,1.52-3.33,1.5-3.06,3.59.54,3.58,3.68,5.7,6.67,6.69.66.28,1.34.51,2.03.71.69.19,1.4.34,2.11.44-.13-.99-.36-1.94-.64-2.85-4.43-7.03-7.22-14.8-8.18-23.27-.09-.93-.14-1.87-.17-2.81-.15-.72-.3-1.43-.47-2.15-.83-3.59-1.95-6.87-2.78-10.16-1.17,2.37-3.75,2.95-5.48,5.02-1.16,1.48-.89,3.27-.62,5.06.18.95.35,1.89.53,2.83.18.94.35,1.86.53,2.79,1.42,5.73,1.03,18.24,9.54,14.11h0Z"/>
              <path class="cls-22" d="m65.74,48.79c.57-.29,1.15-.59,1.43-.29,2.25,4.49,2.78,9.26,3.6,14.04.63,2.74,1.18,5.46,1.68,8.17.17.91.39,1.8.48,2.71.76,7.67,2.76,15.69,7.34,22.02.34.74.63,1.51.85,2.29.23.79.11,1.9.19,2.74-.28-.94-.35-2.05-.72-2.95-4.65-7.41-7.99-15.6-9-24.55-.1-.99-.17-1.99-.21-3-.17-.98-.35-1.97-.55-2.96-.2-.99-.42-1.99-.66-2.98-1.38-5.38-2.49-10.45-4.45-15.24h0Z"/>
            </g>
            <g>
              <path class="cls-26" d="m68.96,7.25c-.87,2.22-.6,4.31-2.34,5.78,2.57,1.51,5.14,2.43,7.41,4.24-3.71-1.22-8.85-3.06-9.7,2.65-.24.73-.47,1.45-.69,2.15-.66,2.12-1.2,4.16-1.39,6.33-.11.73-.22,1.48-.31,2.23-.04.87-.03,1.75.05,2.64.07.88.21,1.78.42,2.67.28,1.49.84,2.69,2.55,3.6,1.42.61,3.14,1.52,4.27,3.02.24-4.45.82-8.86,1.54-13.25.15-.88.3-1.76.46-2.63,3.36-8.5,6.87-17.12,4.09-26.68-3.16,1.46-5.19,4.42-6.37,7.25h0Z"/>
              <path class="cls-18" d="m74.41,25.96c1.55-.03,3.26.88,4.7,0,3.75-3.24,4.37-8.6,4.12-13.08-1.72.28-2.85-1.22-4.58-.93,1.15-.59,3.15.32,3.44-.86.9-4.76-3.65-8.08-6.78-11.08,2.78,9.86-1.31,18.76-4.36,28.08-.12.8-.24,1.61-.36,2.41-.61,4.01-1.16,7.98-1.37,12.08,2.01-.88,4.02-1.46,6.32-2.03,2.31-1.97,2.84-5.01,3.29-8.05.11-.76.22-1.52.35-2.26,1.92-3.35-2.96-2.49-4.78-4.26h0Z"/>
              <path class="cls-22" d="m68.56,53.58c-.57,0-1.15,0-1.15,0-.52-5.97.67-11.62,1.59-17.57.45-2.28.92-4.55,1.39-6.81.16-.75.31-1.5.47-2.24,3.73-8.48,6.67-17.4,4.46-26.95,1.1,5.37,2.48,10.75.72,16.1-1.47,4.16-3.79,8.31-4.52,12.84-.19,1.02-.38,2.04-.56,3.06-1.28,7.14-2.34,14.29-2.41,21.59h0Z"/>
            </g>
            <g>
              <path class="cls-13" d="m98.94,82.95c-1.69-2.59-6.84-3.23-3.8-7.08.44-1.04.88-2.08,1.03-3.27-1.16,1.78-3.18,3.25-4.06,5.33-5.69-3.92-12.26-6.66-16.21-12.96-1.13-1.5-.26-3.28.33-5.06.29-1.19.3-2.38.03-3.58,1.71.61,3.13,2.12,4.84,3.02,5.12,3.62,9.74,7.61,14.36,11.45.77.64,1.54,1.28,2.31,1.91,3.52,3.51,4.61,8.88,7.73,12.48-2.59,1.17-4.57-.93-6.57-2.25h0Z"/>
              <path class="cls-13" d="m91.67,63.92c1.16-1.48,2.6-2.66,4.04-3.84,1.71,1.5,3.34,2.93,4.86,4.47.51.51,1.01,1.04,1.49,1.58.52.58.99,1.17,1.43,1.76,1.36.9,1.32,2.02.77,3.15-.64,1.02-1.22,2.21-2.09,3.1,1.15-.59,1.74-2.67,2.88-1.76,4.27,2.72,2.21,8.96.46,12.82-3.41-3.31-3.36-8.97-7.31-11.99-.49-.44-1-.87-1.53-1.29-.78-.63-1.54-1.26-2.3-1.89-6.08-5.02-11.71-9.89-18.09-13.99,2.29.02,4.03-2.35,6.04-2.93,4.6-1.75,8.57,2.76,11.98,5.47-.87,1.78-1.75,3.56-2.62,5.34h0Z"/>
              <path class="cls-26" d="m68.03,49.11c0,.6-.3,1.19-.87,1.48,6.55,3.63,12.53,8.16,18.5,13.27,3.2,2.82,6.28,5.29,9.54,7.78.65.5,1.31,1,1.98,1.5,4.42,2.78,4.65,8.74,8.34,12.05-2.54-3.9-3.65-8.97-7.35-11.97-.87-.71-1.74-1.42-2.59-2.13-9.41-7.76-17.63-15.62-27.55-21.99h0Z"/>
            </g>
            <g>
              <path class="cls-2" d="m47.11,49.82c-.02,1.79-.03,3.28-.04,5.07-2.57-.77-5.14-1.53-7.68-2.41-.84-.29-1.68-.6-2.52-.92-3.5-1.85-11.82-1.03-9.76-6.97-.3,2.08-1.46,3.56-3.75,2.95-3.14-1.22-5.12-4.51-5.09-8.09,5.68,6.01,14.03.42,20.8,2.84.92.29,1.84.56,2.75.83,5.49,1.61,10.9,2.89,16.48,3.83-2.31,1.77-2.91,5.04-5.51,7.11-1.44,1.18-3.15.87-4.87.85-.56-1.49-.26-3.28-.81-5.07h0Z"/>
              <path class="cls-26" d="m27.23,33.83c2.86-2.04,4.26,1.55,3.66,4.23.02-1.79.61-3.87,2.11-4.92.67-.47,1.46-.75,2.31-.82.85-.07,1.75.08,2.64.47.97.14,1.93.29,2.9.44.97.15,1.96.31,2.96.46-.29,1.05-.52,2.01-.74,2.98-.22.97-.45,1.93-.74,2.97.58-.89.95-1.85,1.31-2.82.37-.97.73-1.93,1.31-2.83,2,.62,4.29.64,6.4,1.37.7.22,1.38.48,2.02.81,1.29.66,2.43,1.6,3.27,3,.26,2.68.24,5.36,1.65,7.46-3.72-.33-7.72-.96-11.44-1.89-1.72-.51-3.4-1.02-5.07-1.53-.84-.26-1.67-.51-2.5-.76-1.28-.76-2.72-.47-3.86-.48-5.72-.64-12.33,1.98-17.16-2.53,2.88-2.06,5.76-3.83,8.95-5.61h0Z"/>
              <path class="cls-22" d="m68.3,50.01c.29-.59.3-1.19.59-1.78-6.59-.36-12.87-2.2-19.44-4.04-3.17-.83-6.32-1.67-9.46-2.46-1.04-.26-2.09-.5-3.11-.62-6.02-.36-13.24,3-18.61-1.66,4.85,5.97,12.59,1.3,18.89,2.64,1.02.23,2.05.53,3.08.84,9.26,2.8,18.54,5.67,28.06,7.09h0Z"/>
            </g>
            <g>
              <path class="cls-26" d="m98.75,26.61c-1.9,1-4.2,1.87-6.35,2.71-.72.27-1.44.54-2.16.81-.81.28-1.63.57-2.44.88-.82.31-1.63.63-2.45.97.56,2.09.25,4.17.8,6.27-.27-.9-.84-1.5-1.41-2.1-.57-.6-.56-1.49-1.13-2.1-.28-.3-.56-.9-.85-.9-1.72.29-2.88,1.47-4.32,2.35-1.15.88-1.74,2.07-2.32,3.55-.6,2.68,1.1,5.08.22,7.75,4.46-3.09,9.21-5.5,14.06-7.81.97-.46,1.94-.92,2.92-1.38.81-.43,1.61-.88,2.38-1.37,4.23-2.05,6.85-6.5,10.31-9.75-2.28-1.21-5.14-1.54-7.27.12h0Z"/>
              <path class="cls-13" d="m99.33,36.5c2.01,1.28,3.71,3.97,5.73,1.31,2.61-3.56,1.21-7.44.96-11.32-4.03,2.65-6.08,7.69-10.57,10.13-.81.5-1.64.95-2.52,1.33-.81.37-1.62.74-2.43,1.11-4.86,2.23-9.65,4.55-14.15,7.73.57.3.86.31,1.43.61,1.99,1.51,2.83,3.9,5.12,4.22,2.57.32,4.59-1.15,6.89-2.32,2.88-1.76,5.88-3.13,8.59-4.89.68-.44,1.34-.91,1.96-1.42,1.63-.81,1.52-1.89.94-3.04-.51-1.28-1.65-2.19-1.94-3.45h0Z"/>
              <path class="cls-22" d="m68.58,51.8c-.29-.3-.85-.9-.85-1.2,6.05-4.42,12.38-7.04,18.99-10.27.86-.59,1.93-.72,2.79-1.01.83-.37,1.68-.77,2.48-1.15.79-.32,1.45-1,2.19-1.41,5.05-1.86,7.24-7.62,11.85-10.26-3.76,3.54-6.37,8.29-11.06,10.98-.85.51-1.74.96-2.67,1.34-.91.46-1.82.92-2.73,1.37-7.26,3.63-14.3,7.14-20.98,11.61h0Z"/>
            </g>
            <g>
              <path class="cls-11" d="m108.04,65.01c-2.07.22-4.66,1.39-6.08-.11-1.42-1.5-.25-4.18-.8-6.57-.3,1.04-.59,2.16-.92,3.27-.33,1.12-.7,2.23-1.14,3.27-6.01-.95-11.72-1.89-17.44-3.73-1.14-.61-1.99-1.21-2.84-2.11-1.41-2.4-.53-5.37-2.23-7.47,4.87.34,9.43,1.87,14.3,2.81,2,.32,3.43,1.22,5.43,1.54.71.23,1.41.46,2.1.68.69.23,1.36.45,2.04.66,5.28,1.72,11.02.88,16.74,1.53-1.75,3.56-5.49,5.31-9.16,6.23h0Z"/>
              <path class="cls-18" d="m93.48,52.31c.87-1.78,1.46-3.56,2.34-5.34,2,.62,3.71,1.52,5.71,2.44,1.14.46,2.21.91,3.3,1.33,3.55.51,3.53,2.9,2.65,5.87.3-1.78,1.18-3.86,2.33-3.85,2.86.02,6.85,2.15,7.39,6.03-5.15-.64-10.31.21-15.52-1.02-.76-.17-1.51-.37-2.26-.58-.75-.21-1.5-.44-2.25-.67-3.71-1.22-7.14-2.15-10.85-3.37-3.14-.92-6.58-.95-9.72-1.87,2.02-1.17,2.61-3.26,4.05-5.03,3.47-3.84,9.17-.81,13.46.12-.3,2.08-.32,3.87-.62,5.95h0Z"/>
              <path class="cls-26" d="m66.31,48.2c0,.59-.01,1.19-.3,1.79,7.44.36,14.58,2.51,22.01,4.66,2.92.83,5.8,1.63,8.68,2.38.96.25,1.92.5,2.88.73,5.59,1.8,11.61.36,17.62,1.31-5.42-2.13-11.46-.1-16.88-1.63-.28,0-.85-.61-1.14-.61-.86-.31-2-.32-2.86-.62-5.14-1.54-9.7-3.66-14.85-4.6-.86-.31-1.71-.61-2.57-.92-4.28-1.23-8.29-1.56-12.58-2.5h0Z"/>
            </g>
            <g>
              <path class="cls-2" d="m39.69,23.3c2.18,4.12,3.86,8.61,6.4,12.5.57.6,1.14,1.2,1.41,2.1.86-.59,1.87-.95,2.87-1.32,1.01-.37,2.01-.73,2.88-1.32-.58.89-1.23,1.7-1.92,2.48-.69.78-1.41,1.52-2.14,2.25,1.14,1.2,2.27,2.4,3.4,3.9.28.3.85.6,1.42.91,2.28,1.21,4.59-.26,6.6-.84.57-.29,1.43-.58,2.01-.88.28,0,.57,0,.86,0-2.27-2.4-4.54-4.81-6.52-7.21-.59-.75-1.18-1.49-1.77-2.24-4.16-7.05-8.39-14.84-15.8-19.07-.88,2.67-.63,5.95.29,8.71h0Z"/>
              <path class="cls-18" d="m48.86,19.65c.24-1.1,1.68-1.98,1.69-3.17-.27-1.79-1.98-3-3.41-3.31-2.86-.32-5.44.25-7.75,1.42,8.27,3.95,11.91,13.22,16.67,20.33.48.62.97,1.25,1.46,1.89,1.99,2.1,3.68,4.5,5.96,6.31.31-2.38,2.33-4.45,2.92-6.83.3-1.19-.55-2.39-1.11-3.59-.49-.71-1-1.41-1.51-2.08-.51-.68-1.03-1.34-1.56-1.99-3.44-4.04-6.27-8.53-9.67-12.44-1.16,1.48-2.6,2.36-3.7,3.45h0Z"/>
              <path class="cls-22" d="m70.31,49.72c-.29.3-.87,1.18-1.15,1.18-4.81-4.56-8.73-9.62-12.63-14.83-.56-.75-1.11-1.49-1.67-2.25-4.97-6.33-8.05-15.12-15.39-19.13,8.56,3.35,11.85,12.81,17.08,20.07.61.78,1.23,1.56,1.85,2.34,1.14.9,1.99,2.1,2.83,3.3.29.3.86.6,1.14.9,2.26,3.3,5.1,5.71,7.94,8.42h0Z"/>
            </g>
            <g>
              <path class="cls-2" d="m49.02,61.16c0-.89-.27-1.49-.84-2.09-.28-.6-.27-1.49-.56-2.09-4.03,2.35-6.92,5.6-10.67,8.55-.58.59-1.17,1.17-1.76,1.74-.59.57-1.18,1.14-1.74,1.74-.86.61-1.45,1.25-1.81,1.92-1.34,2.6.35,4.99,1.77,6.8-.85-1.5-2.27-2.7-3.4-3.9-1.75,4.16-2.36,8.62-1.83,13.1,3.75-3.25,6.08-7.1,9.48-10.68.54-.54,1.08-1.06,1.63-1.58.54-.51,1.08-1.02,1.63-1.53.8-.65,1.61-1.26,2.43-1.87,2.46-1.82,4.93-3.66,7.36-5.61,2.89-2.66,6.06-5.01,8.66-7.97-.29,0-.57,0-.86,0-3.42-1.52-7.12-4.83-10.3-1.28.27,1.49.26,3.28.82,4.78h0Z"/>
              <path class="cls-26" d="m37.31,85.85c2.63-1.22,2.37-4.2,1.25-6.3.27,1.49,1.41,2.1,2.55,2.31.93-.04,1.95-.67,3.02-1.44,1.08-.78,2.22-1.69,3.39-2.29.55-.33,1.11-.68,1.67-1.02.56-.34,1.13-.68,1.7-1.03-.56-1.79-2.27-3-3.11-4.5,1.42,1.21,2.84,2.41,4.26,3.61,2.01-1.17,4.03-2.65,5.76-4.42,1.45-1.48,2.32-2.96,2.91-4.74.29-.89-.27-2.09-.55-2.98-.27-1.79-.83-3.58-.81-5.37-4.51,4.61-9.52,8.36-14.62,12.15-.85.63-1.7,1.27-2.55,1.91-.66.53-1.31,1.07-1.94,1.63-.63.56-1.24,1.13-1.85,1.71-3.84,3.55-6.18,8.6-10.21,11.84,3.14,1.22,6.3.35,9.13-1.06h0Z"/>
              <path class="cls-22" d="m67.16,50.29c.28.3.85.9.85,1.2-6.36,6.8-12.99,11.81-20.77,17.1-.57.3-.86.29-1.44.58-.83.66-1.64,1.31-2.45,1.95-.8.64-1.59,1.28-2.36,1.95-.55.51-1.09,1.04-1.62,1.59-.53.55-1.05,1.11-1.56,1.7-2.99,3.74-5.51,8.21-9.63,10.54,3.91-3.24,6.38-8.59,9.99-12.03.58-.6,1.17-1.19,1.78-1.75.61-.57,1.24-1.12,1.9-1.64.71-.54,1.41-1.08,2.12-1.61,4.24-3.2,8.46-6.31,12.79-9.84,1.45-1.48,2.89-2.66,4.33-3.84,2.02-2.07,4.04-3.84,6.07-5.91h0Z"/>
            </g>
          </g>
          <path class="cls-22" d="m67.84,52.98c-1.52-.01-2.74-1.31-2.73-2.89.01-1.58,1.26-2.86,2.78-2.84,1.52.01,2.75,1.31,2.73,2.89-.01,1.58-1.26,2.86-2.78,2.84Z"/>
        </g>
        <g class="cls-15">
          <path class="cls-27" d="m67.81,54.32c-2.13-.02-3.85-1.84-3.83-4.06.02-2.22,1.77-4.01,3.9-3.99,2.13.02,3.85,1.83,3.83,4.05-.02,2.22-1.76,4.01-3.9,3.99Z"/>
          <g>
            <g>
              <path class="cls-27" d="m84.22,91.52c-.32-.74-.61-1.5-.87-2.27-1.05-2.17-1.03-4.85-1.58-7.25-.1-.83-.16-1.67-.21-2.51-.04-.84-.07-1.68-.06-2.52-.07-1.01-.15-2.01-.24-3-1-.16-2.07-.39-3.15-.59-1.07-.2-2.14-.35-3.15-.36.87-.44,1.87-.8,2.87-1.17,1.01-.36,2.01-.73,2.87-1.17-1.11-3.58-1.36-8.65-5.36-9.58-2.28-.62-4.57-.93-6.57-1.85.84,1.8,1.4,3.89,1.95,5.68.28.9.49,1.87.69,2.84.21.97.41,1.94.69,2.84.11.9.23,1.79.35,2.67,1.56,7.77,2.92,15.83,7.63,22.57.26.73.48,1.48.63,2.25.16.77.26,1.56.29,2.38,2.88-1.76,4.63-5.62,3.18-8.96h0Z"/>
              <path class="cls-27" d="m73.57,89.05c-1.04,1.52-3.33,1.5-3.06,3.59.54,3.58,3.68,5.7,6.67,6.69.66.28,1.34.51,2.03.71.69.19,1.4.34,2.11.44-.13-.99-.36-1.94-.64-2.85-4.43-7.03-7.22-14.8-8.18-23.27-.09-.93-.14-1.87-.17-2.81-.15-.72-.3-1.43-.47-2.15-.83-3.59-1.95-6.87-2.78-10.16-1.17,2.37-3.75,2.95-5.48,5.02-1.16,1.48-.89,3.27-.62,5.06.18.95.35,1.89.53,2.83.18.94.35,1.86.53,2.79,1.42,5.73,1.03,18.24,9.54,14.11h0Z"/>
              <path class="cls-27" d="m65.74,48.79c.57-.29,1.15-.59,1.43-.29,2.25,4.49,2.78,9.26,3.6,14.04.63,2.74,1.18,5.46,1.68,8.17.17.91.39,1.8.48,2.71.76,7.67,2.76,15.69,7.34,22.02.34.74.63,1.51.85,2.29.23.79.11,1.9.19,2.74-.28-.94-.35-2.05-.72-2.95-4.65-7.41-7.99-15.6-9-24.55-.1-.99-.17-1.99-.21-3-.17-.98-.35-1.97-.55-2.96-.2-.99-.42-1.99-.66-2.98-1.38-5.38-2.49-10.45-4.45-15.24h0Z"/>
            </g>
            <g>
              <path class="cls-27" d="m68.96,7.25c-.87,2.22-.6,4.31-2.34,5.78,2.57,1.51,5.14,2.43,7.41,4.24-3.71-1.22-8.85-3.06-9.7,2.65-.24.73-.47,1.45-.69,2.15-.66,2.12-1.2,4.16-1.39,6.33-.11.73-.22,1.48-.31,2.23-.04.87-.03,1.75.05,2.64.07.88.21,1.78.42,2.67.28,1.49.84,2.69,2.55,3.6,1.42.61,3.14,1.52,4.27,3.02.24-4.45.82-8.86,1.54-13.25.15-.88.3-1.76.46-2.63,3.36-8.5,6.87-17.12,4.09-26.68-3.16,1.46-5.19,4.42-6.37,7.25h0Z"/>
              <path class="cls-27" d="m74.41,25.96c1.55-.03,3.26.88,4.7,0,3.75-3.24,4.37-8.6,4.12-13.08-1.72.28-2.85-1.22-4.58-.93,1.15-.59,3.15.32,3.44-.86.9-4.76-3.65-8.08-6.78-11.08,2.78,9.86-1.31,18.76-4.36,28.08-.12.8-.24,1.61-.36,2.41-.61,4.01-1.16,7.98-1.37,12.08,2.01-.88,4.02-1.46,6.32-2.03,2.31-1.97,2.84-5.01,3.29-8.05.11-.76.22-1.52.35-2.26,1.92-3.35-2.96-2.49-4.78-4.26h0Z"/>
              <path class="cls-27" d="m68.56,53.58c-.57,0-1.15,0-1.15,0-.52-5.97.67-11.62,1.59-17.57.45-2.28.92-4.55,1.39-6.81.16-.75.31-1.5.47-2.24,3.73-8.48,6.67-17.4,4.46-26.95,1.1,5.37,2.48,10.75.72,16.1-1.47,4.16-3.79,8.31-4.52,12.84-.19,1.02-.38,2.04-.56,3.06-1.28,7.14-2.34,14.29-2.41,21.59h0Z"/>
            </g>
            <g>
              <path class="cls-27" d="m98.94,82.95c-1.69-2.59-6.84-3.23-3.8-7.08.44-1.04.88-2.08,1.03-3.27-1.16,1.78-3.18,3.25-4.06,5.33-5.69-3.92-12.26-6.66-16.21-12.96-1.13-1.5-.26-3.28.33-5.06.29-1.19.3-2.38.03-3.58,1.71.61,3.13,2.12,4.84,3.02,5.12,3.62,9.74,7.61,14.36,11.45.77.64,1.54,1.28,2.31,1.91,3.52,3.51,4.61,8.88,7.73,12.48-2.59,1.17-4.57-.93-6.57-2.25h0Z"/>
              <path class="cls-27" d="m91.67,63.92c1.16-1.48,2.6-2.66,4.04-3.84,1.71,1.5,3.34,2.93,4.86,4.47.51.51,1.01,1.04,1.49,1.58.52.58.99,1.17,1.43,1.76,1.36.9,1.32,2.02.77,3.15-.64,1.02-1.22,2.21-2.09,3.1,1.15-.59,1.74-2.67,2.88-1.76,4.27,2.72,2.21,8.96.46,12.82-3.41-3.31-3.36-8.97-7.31-11.99-.49-.44-1-.87-1.53-1.29-.78-.63-1.54-1.26-2.3-1.89-6.08-5.02-11.71-9.89-18.09-13.99,2.29.02,4.03-2.35,6.04-2.93,4.6-1.75,8.57,2.76,11.98,5.47-.87,1.78-1.75,3.56-2.62,5.34h0Z"/>
              <path class="cls-27" d="m68.03,49.11c0,.6-.3,1.19-.87,1.48,6.55,3.63,12.53,8.16,18.5,13.27,3.2,2.82,6.28,5.29,9.54,7.78.65.5,1.31,1,1.98,1.5,4.42,2.78,4.65,8.74,8.34,12.05-2.54-3.9-3.65-8.97-7.35-11.97-.87-.71-1.74-1.42-2.59-2.13-9.41-7.76-17.63-15.62-27.55-21.99h0Z"/>
            </g>
            <g>
              <path class="cls-27" d="m47.11,49.82c-.02,1.79-.03,3.28-.04,5.07-2.57-.77-5.14-1.53-7.68-2.41-.84-.29-1.68-.6-2.52-.92-3.5-1.85-11.82-1.03-9.76-6.97-.3,2.08-1.46,3.56-3.75,2.95-3.14-1.22-5.12-4.51-5.09-8.09,5.68,6.01,14.03.42,20.8,2.84.92.29,1.84.56,2.75.83,5.49,1.61,10.9,2.89,16.48,3.83-2.31,1.77-2.91,5.04-5.51,7.11-1.44,1.18-3.15.87-4.87.85-.56-1.49-.26-3.28-.81-5.07h0Z"/>
              <path class="cls-27" d="m27.23,33.83c2.86-2.04,4.26,1.55,3.66,4.23.02-1.79.61-3.87,2.11-4.92.67-.47,1.46-.75,2.31-.82.85-.07,1.75.08,2.64.47.97.14,1.93.29,2.9.44.97.15,1.96.31,2.96.46-.29,1.05-.52,2.01-.74,2.98-.22.97-.45,1.93-.74,2.97.58-.89.95-1.85,1.31-2.82.37-.97.73-1.93,1.31-2.83,2,.62,4.29.64,6.4,1.37.7.22,1.38.48,2.02.81,1.29.66,2.43,1.6,3.27,3,.26,2.68.24,5.36,1.65,7.46-3.72-.33-7.72-.96-11.44-1.89-1.72-.51-3.4-1.02-5.07-1.53-.84-.26-1.67-.51-2.5-.76-1.28-.76-2.72-.47-3.86-.48-5.72-.64-12.33,1.98-17.16-2.53,2.88-2.06,5.76-3.83,8.95-5.61h0Z"/>
              <path class="cls-27" d="m68.3,50.01c.29-.59.3-1.19.59-1.78-6.59-.36-12.87-2.2-19.44-4.04-3.17-.83-6.32-1.67-9.46-2.46-1.04-.26-2.09-.5-3.11-.62-6.02-.36-13.24,3-18.61-1.66,4.85,5.97,12.59,1.3,18.89,2.64,1.02.23,2.05.53,3.08.84,9.26,2.8,18.54,5.67,28.06,7.09h0Z"/>
            </g>
            <g>
              <path class="cls-27" d="m98.75,26.61c-1.9,1-4.2,1.87-6.35,2.71-.72.27-1.44.54-2.16.81-.81.28-1.63.57-2.44.88-.82.31-1.63.63-2.45.97.56,2.09.25,4.17.8,6.27-.27-.9-.84-1.5-1.41-2.1-.57-.6-.56-1.49-1.13-2.1-.28-.3-.56-.9-.85-.9-1.72.29-2.88,1.47-4.32,2.35-1.15.88-1.74,2.07-2.32,3.55-.6,2.68,1.1,5.08.22,7.75,4.46-3.09,9.21-5.5,14.06-7.81.97-.46,1.94-.92,2.92-1.38.81-.43,1.61-.88,2.38-1.37,4.23-2.05,6.85-6.5,10.31-9.75-2.28-1.21-5.14-1.54-7.27.12h0Z"/>
              <path class="cls-27" d="m99.33,36.5c2.01,1.28,3.71,3.97,5.73,1.31,2.61-3.56,1.21-7.44.96-11.32-4.03,2.65-6.08,7.69-10.57,10.13-.81.5-1.64.95-2.52,1.33-.81.37-1.62.74-2.43,1.11-4.86,2.23-9.65,4.55-14.15,7.73.57.3.86.31,1.43.61,1.99,1.51,2.83,3.9,5.12,4.22,2.57.32,4.59-1.15,6.89-2.32,2.88-1.76,5.88-3.13,8.59-4.89.68-.44,1.34-.91,1.96-1.42,1.63-.81,1.52-1.89.94-3.04-.51-1.28-1.65-2.19-1.94-3.45h0Z"/>
              <path class="cls-27" d="m68.58,51.8c-.29-.3-.85-.9-.85-1.2,6.05-4.42,12.38-7.04,18.99-10.27.86-.59,1.93-.72,2.79-1.01.83-.37,1.68-.77,2.48-1.15.79-.32,1.45-1,2.19-1.41,5.05-1.86,7.24-7.62,11.85-10.26-3.76,3.54-6.37,8.29-11.06,10.98-.85.51-1.74.96-2.67,1.34-.91.46-1.82.92-2.73,1.37-7.26,3.63-14.3,7.14-20.98,11.61h0Z"/>
            </g>
            <g>
              <path class="cls-27" d="m108.04,65.01c-2.07.22-4.66,1.39-6.08-.11-1.42-1.5-.25-4.18-.8-6.57-.3,1.04-.59,2.16-.92,3.27-.33,1.12-.7,2.23-1.14,3.27-6.01-.95-11.72-1.89-17.44-3.73-1.14-.61-1.99-1.21-2.84-2.11-1.41-2.4-.53-5.37-2.23-7.47,4.87.34,9.43,1.87,14.3,2.81,2,.32,3.43,1.22,5.43,1.54.71.23,1.41.46,2.1.68.69.23,1.36.45,2.04.66,5.28,1.72,11.02.88,16.74,1.53-1.75,3.56-5.49,5.31-9.16,6.23h0Z"/>
              <path class="cls-27" d="m93.48,52.31c.87-1.78,1.46-3.56,2.34-5.34,2,.62,3.71,1.52,5.71,2.44,1.14.46,2.21.91,3.3,1.33,3.55.51,3.53,2.9,2.65,5.87.3-1.78,1.18-3.86,2.33-3.85,2.86.02,6.85,2.15,7.39,6.03-5.15-.64-10.31.21-15.52-1.02-.76-.17-1.51-.37-2.26-.58-.75-.21-1.5-.44-2.25-.67-3.71-1.22-7.14-2.15-10.85-3.37-3.14-.92-6.58-.95-9.72-1.87,2.02-1.17,2.61-3.26,4.05-5.03,3.47-3.84,9.17-.81,13.46.12-.3,2.08-.32,3.87-.62,5.95h0Z"/>
              <path class="cls-27" d="m66.31,48.2c0,.59-.01,1.19-.3,1.79,7.44.36,14.58,2.51,22.01,4.66,2.92.83,5.8,1.63,8.68,2.38.96.25,1.92.5,2.88.73,5.59,1.8,11.61.36,17.62,1.31-5.42-2.13-11.46-.1-16.88-1.63-.28,0-.85-.61-1.14-.61-.86-.31-2-.32-2.86-.62-5.14-1.54-9.7-3.66-14.85-4.6-.86-.31-1.71-.61-2.57-.92-4.28-1.23-8.29-1.56-12.58-2.5h0Z"/>
            </g>
            <g>
              <path class="cls-27" d="m39.69,23.3c2.18,4.12,3.86,8.61,6.4,12.5.57.6,1.14,1.2,1.41,2.1.86-.59,1.87-.95,2.87-1.32,1.01-.37,2.01-.73,2.88-1.32-.58.89-1.23,1.7-1.92,2.48-.69.78-1.41,1.52-2.14,2.25,1.14,1.2,2.27,2.4,3.4,3.9.28.3.85.6,1.42.91,2.28,1.21,4.59-.26,6.6-.84.57-.29,1.43-.58,2.01-.88.28,0,.57,0,.86,0-2.27-2.4-4.54-4.81-6.52-7.21-.59-.75-1.18-1.49-1.77-2.24-4.16-7.05-8.39-14.84-15.8-19.07-.88,2.67-.63,5.95.29,8.71h0Z"/>
              <path class="cls-27" d="m48.86,19.65c.24-1.1,1.68-1.98,1.69-3.17-.27-1.79-1.98-3-3.41-3.31-2.86-.32-5.44.25-7.75,1.42,8.27,3.95,11.91,13.22,16.67,20.33.48.62.97,1.25,1.46,1.89,1.99,2.1,3.68,4.5,5.96,6.31.31-2.38,2.33-4.45,2.92-6.83.3-1.19-.55-2.39-1.11-3.59-.49-.71-1-1.41-1.51-2.08-.51-.68-1.03-1.34-1.56-1.99-3.44-4.04-6.27-8.53-9.67-12.44-1.16,1.48-2.6,2.36-3.7,3.45h0Z"/>
              <path class="cls-27" d="m70.31,49.72c-.29.3-.87,1.18-1.15,1.18-4.81-4.56-8.73-9.62-12.63-14.83-.56-.75-1.11-1.49-1.67-2.25-4.97-6.33-8.05-15.12-15.39-19.13,8.56,3.35,11.85,12.81,17.08,20.07.61.78,1.23,1.56,1.85,2.34,1.14.9,1.99,2.1,2.83,3.3.29.3.86.6,1.14.9,2.26,3.3,5.1,5.71,7.94,8.42h0Z"/>
            </g>
            <g>
              <path class="cls-27" d="m49.02,61.16c0-.89-.27-1.49-.84-2.09-.28-.6-.27-1.49-.56-2.09-4.03,2.35-6.92,5.6-10.67,8.55-.58.59-1.17,1.17-1.76,1.74-.59.57-1.18,1.14-1.74,1.74-.86.61-1.45,1.25-1.81,1.92-1.34,2.6.35,4.99,1.77,6.8-.85-1.5-2.27-2.7-3.4-3.9-1.75,4.16-2.36,8.62-1.83,13.1,3.75-3.25,6.08-7.1,9.48-10.68.54-.54,1.08-1.06,1.63-1.58.54-.51,1.08-1.02,1.63-1.53.8-.65,1.61-1.26,2.43-1.87,2.46-1.82,4.93-3.66,7.36-5.61,2.89-2.66,6.06-5.01,8.66-7.97-.29,0-.57,0-.86,0-3.42-1.52-7.12-4.83-10.3-1.28.27,1.49.26,3.28.82,4.78h0Z"/>
              <path class="cls-27" d="m37.31,85.85c2.63-1.22,2.37-4.2,1.25-6.3.27,1.49,1.41,2.1,2.55,2.31.93-.04,1.95-.67,3.02-1.44,1.08-.78,2.22-1.69,3.39-2.29.55-.33,1.11-.68,1.67-1.02.56-.34,1.13-.68,1.7-1.03-.56-1.79-2.27-3-3.11-4.5,1.42,1.21,2.84,2.41,4.26,3.61,2.01-1.17,4.03-2.65,5.76-4.42,1.45-1.48,2.32-2.96,2.91-4.74.29-.89-.27-2.09-.55-2.98-.27-1.79-.83-3.58-.81-5.37-4.51,4.61-9.52,8.36-14.62,12.15-.85.63-1.7,1.27-2.55,1.91-.66.53-1.31,1.07-1.94,1.63-.63.56-1.24,1.13-1.85,1.71-3.84,3.55-6.18,8.6-10.21,11.84,3.14,1.22,6.3.35,9.13-1.06h0Z"/>
              <path class="cls-27" d="m67.16,50.29c.28.3.85.9.85,1.2-6.36,6.8-12.99,11.81-20.77,17.1-.57.3-.86.29-1.44.58-.83.66-1.64,1.31-2.45,1.95-.8.64-1.59,1.28-2.36,1.95-.55.51-1.09,1.04-1.62,1.59-.53.55-1.05,1.11-1.56,1.7-2.99,3.74-5.51,8.21-9.63,10.54,3.91-3.24,6.38-8.59,9.99-12.03.58-.6,1.17-1.19,1.78-1.75.61-.57,1.24-1.12,1.9-1.64.71-.54,1.41-1.08,2.12-1.61,4.24-3.2,8.46-6.31,12.79-9.84,1.45-1.48,2.89-2.66,4.33-3.84,2.02-2.07,4.04-3.84,6.07-5.91h0Z"/>
            </g>
          </g>
          <path class="cls-27" d="m67.84,52.98c-1.52-.01-2.74-1.31-2.73-2.89.01-1.58,1.26-2.86,2.78-2.84,1.52.01,2.75,1.31,2.73,2.89-.01,1.58-1.26,2.86-2.78,2.84Z"/>
        </g>
      </g>
      <g>
        <ellipse class="cls-10" cx="400.81" cy="102.7" rx="8.12" ry="8.63"/>
        <g>
          <g>
            <path class="cls-3" d="m403.49,85.39c5.81.95,9.76,6.39,8.83,12.15-.94,5.76-6.42,9.67-12.23,8.72-5.82-.95-9.76-6.39-8.83-12.16.94-5.76,6.41-9.67,12.23-8.72Z"/>
            <path class="cls-32" d="m403.18,88.22c4.55.74,7.63,5.03,6.89,9.58-.74,4.55-5.03,7.63-9.57,6.89-4.55-.74-7.63-5.03-6.89-9.58.74-4.55,5.03-7.63,9.58-6.89Z"/>
            <path class="cls-31" d="m401.25,94.68s8.87,3.41,12.63-10.67c1.4-5.28,1.31-5.54.56-5.2-.76.34-4,8.31-4,8.31,0,0-.55-2.59-1.14-2.62-.59-.03-1.65,4.44-1.65,4.44,0,0,.17-1.76-.62-2.11-.78-.35-2.36,4.44-2.36,4.44,0,0,.43-1.5-.07-1.72-.51-.22-1.65,3.07-1.65,3.07,0,0,.36-.9-.15-1.11-.5-.22-1.34,2.12-1.34,2.12l-.2,1.05Z"/>
            <path class="cls-25" d="m401.96,96.75s6.33,4.69,15.45-5.82c3.42-3.94,3.45-4.17,2.65-4.06-.8.11-6.94,5.81-6.94,5.81,0,0,.59-2.21.09-2.36-.51-.15-3.28,3.21-3.28,3.21,0,0,.87-1.38.34-1.83-.54-.45-3.9,3.05-3.9,3.05,0,0,1-1.12.65-1.4-.35-.29-2.71,2.1-2.71,2.1,0,0,.68-.63.33-.92-.36-.29-2.06,1.41-2.06,1.41l-.61.8Z"/>
            <path class="cls-31" d="m401.92,98.45s6.08-4.69,15.62,5.31c3.58,3.76,3.62,3.98,2.82,3.89-.8-.09-7.17-5.5-7.17-5.5,0,0,.7,2.13.2,2.28-.5.16-3.42-3.05-3.42-3.05,0,0,.94,1.32.42,1.78-.52.45-4.02-2.88-4.02-2.88,0,0,1.05,1.06.71,1.35-.33.29-2.79-1.99-2.79-1.99,0,0,.71.6.37.89-.33.29-2.11-1.33-2.11-1.33l-.64-.76Z"/>
            <path class="cls-31" d="m402.9,96.88s-3.81,6.66-16.46,1.07c-4.75-2.1-4.87-2.29-4.1-2.51.77-.23,8.72,2.34,8.72,2.34,0,0-1.46-1.71-1.06-2.04.4-.34,4.32,1.51,4.32,1.51,0,0-1.37-.86-1.07-1.48.3-.62,4.82,1.12,4.82,1.12,0,0-1.37-.58-1.18-.97.21-.39,3.34.76,3.34.76,0,0-.88-.29-.68-.68.2-.39,2.46.42,2.46.42l.88.46Z"/>
            <path class="cls-31" d="m401.97,96.42s-7.6,1.1-10.98-12.32c-1.27-5.03-1.19-5.24-.54-4.77.65.47,3.53,8.32,3.53,8.32,0,0,.45-2.2.95-2.09.51.11,1.47,4.33,1.47,4.33,0,0-.17-1.61.5-1.75.68-.14,2.08,4.49,2.08,4.49,0,0-.39-1.44.04-1.52.43-.08,1.46,3.11,1.46,3.11,0,0-.32-.88.12-.96.43-.08,1.18,2.2,1.18,2.2l.18.98Z"/>
            <path class="cls-33" d="m401.05,95.83s6.24-4.43-.53-16.5c-2.54-4.52-2.74-4.62-2.89-3.83-.15.79,3.16,8.46,3.16,8.46,0,0-1.84-1.29-2.13-.86-.29.43,1.92,4.15,1.92,4.15,0,0-.98-1.28-1.57-.92-.58.36,1.58,4.69,1.58,4.69,0,0-.71-1.31-1.07-1.08-.37.24,1.08,3.25,1.08,3.25,0,0-.37-.85-.75-.61-.37.23.65,2.4.65,2.4l.54.84Z"/>
            <path class="cls-4" d="m400.3,97.84s7.38-2.12,12.54,10.72c1.93,4.81,1.89,5.04,1.18,4.66-.71-.38-4.62-7.76-4.62-7.76,0,0-.14,2.24-.66,2.2-.52-.04-2.04-4.09-2.04-4.09,0,0,.39,1.57-.26,1.8-.65.23-2.67-4.16-2.67-4.16,0,0,.58,1.37.16,1.51-.41.14-1.86-2.88-1.86-2.88,0,0,.43.83,0,.97-.42.14-1.47-2.02-1.47-2.02l-.31-.94Z"/>
            <path class="cls-33" d="m399.41,98.58s6.82,3.51,1.81,16.4c-1.89,4.83-2.07,4.97-2.33,4.21-.26-.76,1.94-8.83,1.94-8.83,0,0-1.64,1.54-1.99,1.15-.35-.38,1.31-4.38,1.31-4.38,0,0-.8,1.41-1.43,1.13-.63-.27.91-4.86.91-4.86,0,0-.52,1.4-.92,1.21-.41-.18.61-3.37.61-3.37,0,0-.25.9-.65.71-.4-.18.31-2.48.31-2.48l.42-.9Z"/>
            <path class="cls-4" d="m402.56,95.58s-7.46-2.18-12.54,10.72c-1.9,4.84-1.86,5.07-1.14,4.69.71-.38,4.59-7.79,4.59-7.79,0,0,.16,2.26.69,2.22.52-.03,2.02-4.12,2.02-4.12,0,0-.37,1.58.28,1.82.65.23,2.65-4.18,2.65-4.18,0,0-.58,1.38-.15,1.53.42.14,1.85-2.9,1.85-2.9,0,0-.43.83,0,.97.42.15,1.46-2.02,1.46-2.02l.31-.95Z"/>
          </g>
          <path class="cls-16" d="m401.22,114.98c1.39-3.56,1.87-6.41,1.84-8.66,1.18-.14,2.31-.46,3.36-.96,0,0,.01,0,.02,0,.02,0,.03-.03.05-.04.26-.13.51-.25.76-.4.49,1.18,1.18,2.7,1.5,2.73.52.04.66-2.2.66-2.2,0,0,3.92,7.38,4.62,7.76.71.38.76.15-1.18-4.66-.9-2.23-1.86-4-2.83-5.41.18.07.32.09.4.03.26-.23.15-.68-.02-1.07.04-.05.07-.11.11-.16.86.91,2.54,2.62,2.91,2.5.49-.15-.2-2.28-.2-2.28,0,0,6.37,5.41,7.17,5.5.8.09.76-.13-2.82-3.89-2.05-2.15-3.94-3.61-5.64-4.6.17-.52.32-1.06.41-1.62.11-.7.15-1.39.13-2.07,1.53-1.04,3.19-2.5,4.95-4.54,3.42-3.94,3.45-4.17,2.65-4.06-.8.11-6.94,5.81-6.94,5.81,0,0,.59-2.21.09-2.36-.23-.07-.93.59-1.63,1.33-.16-.36-.33-.71-.52-1.05,1.07-1.59,2.05-3.73,2.82-6.6,1.4-5.28,1.31-5.54.56-5.2-.76.34-4,8.31-4,8.31,0,0-.55-2.59-1.14-2.62-.35-.02-.86,1.53-1.22,2.8-1.31-.96-2.86-1.64-4.58-1.92-.14-.02-.27-.03-.41-.05-.48-1.75-1.29-3.75-2.56-6.01-2.54-4.52-2.74-4.62-2.89-3.83-.15.79,3.16,8.46,3.16,8.46,0,0-1.84-1.29-2.13-.86-.15.22.38,1.35.92,2.38-1.41.29-2.74.86-3.9,1.67-.26-.84-.54-1.55-.75-1.6-.5-.11-.95,2.09-.95,2.09,0,0-2.87-7.84-3.53-8.32-.66-.47-.73-.25.54,4.77.58,2.29,1.28,4.15,2.04,5.67-.88,1.26-1.51,2.72-1.78,4.33-.1.61-.13,1.22-.13,1.82-.56-.19-1.02-.29-1.14-.19-.4.33,1.06,2.04,1.06,2.04,0,0-7.96-2.57-8.72-2.34-.77.22-.65.42,4.1,2.51,2.06.91,3.88,1.49,5.5,1.84.2.48.42.95.68,1.39-.9,1.37-1.78,3.05-2.6,5.13-1.9,4.84-1.86,5.07-1.14,4.69.71-.38,4.59-7.79,4.59-7.79,0,0,.16,2.26.69,2.22.21-.01.56-.65.92-1.42,1.1.89,2.39,1.58,3.82,1.99-.27,1.1-.45,2.15-.16,2.28.63.28,1.43-1.13,1.43-1.13,0,0-1.66,4-1.31,4.38.35.38,1.99-1.15,1.99-1.15,0,0-2.2,8.06-1.94,8.83.25.76.44.63,2.33-4.21Z"/>
        </g>
      </g>
      <g>
        <ellipse class="cls-10" cx="260.51" cy="102.7" rx="8.12" ry="8.63"/>
        <g>
          <g>
            <path class="cls-3" d="m253.76,87.67c4.64-3.62,11.32-2.82,14.91,1.78,3.59,4.61,2.73,11.28-1.91,14.9-4.65,3.62-11.32,2.82-14.92-1.79-3.59-4.61-2.73-11.27,1.91-14.89Z"/>
            <path class="cls-32" d="m255.62,89.82c3.64-2.83,8.87-2.18,11.7,1.46,2.83,3.63,2.18,8.88-1.45,11.7-3.63,2.83-8.88,2.18-11.71-1.45-2.83-3.63-2.18-8.88,1.45-11.71Z"/>
            <path class="cls-31" d="m259.05,95.63s8.53-4.19.76-16.51c-2.92-4.62-3.18-4.73-3.44-3.95-.26.79,3.38,8.58,3.38,8.58,0,0-2.28-1.36-2.69-.94-.42.42,2.13,4.23,2.13,4.23,0,0-1.18-1.32-1.97-.98-.79.34,1.65,4.75,1.65,4.75,0,0-.81-1.34-1.31-1.12-.51.23,1.13,3.3,1.13,3.3,0,0-.42-.87-.92-.64-.5.22.64,2.43.64,2.43l.63.86Z"/>
            <path class="cls-25" d="m261.05,96.51s7.75-1.46,6.23-15.29c-.57-5.18-.72-5.36-1.18-4.7-.46.66-.45,9.04-.45,9.04,0,0-1.21-1.93-1.67-1.67-.46.27.12,4.59.12,4.59,0,0-.42-1.58-1.12-1.49-.7.09-.41,4.94-.41,4.94,0,0-.14-1.5-.58-1.43-.45.06-.3,3.42-.3,3.42,0,0,0-.93-.45-.87-.45.07-.36,2.47-.36,2.47l.17.99Z"/>
            <path class="cls-31" d="m262.27,97.7s.68-7.65,14.51-7.85c5.19-.07,5.38.05,4.77.57-.61.53-8.9,1.52-8.9,1.52,0,0,2.04.94,1.81,1.4-.22.47-4.56.44-4.56.44,0,0,1.61.21,1.59.9-.02.69-4.85.99-4.85.99,0,0,1.49-.05,1.47.39-.02.44-3.35.7-3.35.7,0,0,.92-.11.91.34-.02.44-2.41.64-2.41.64l-.99-.05Z"/>
            <path class="cls-31" d="m261.78,95.92s2.3,7.32-10.4,12.8c-4.76,2.06-4.99,2.01-4.63,1.3.36-.72,7.65-4.81,7.65-4.81,0,0-2.24-.09-2.22-.61.03-.52,4.05-2.15,4.05-2.15,0,0-1.56.42-1.81-.22-.25-.64,4.1-2.77,4.1-2.77,0,0-1.36.62-1.51.21-.15-.42,2.83-1.93,2.83-1.93,0,0-.81.45-.96.03-.15-.41,1.98-1.52,1.98-1.52l.93-.33Z"/>
            <path class="cls-31" d="m260.81,96.28s-4.36,6.32-16.49-.32c-4.55-2.49-4.66-2.69-3.87-2.85.79-.16,8.5,3.06,8.5,3.06,0,0-1.31-1.83-.89-2.12.43-.3,4.18,1.87,4.18,1.87,0,0-1.3-.97-.94-1.56.36-.59,4.71,1.52,4.71,1.52,0,0-1.32-.69-1.09-1.07.23-.37,3.27,1.04,3.27,1.04,0,0-.86-.36-.62-.74.23-.37,2.42.62,2.42.62l.84.54Z"/>
            <path class="cls-33" d="m259.76,96.55s.99-7.59-12.46-10.83c-5.04-1.21-5.25-1.13-4.77-.48.48.64,8.35,3.43,8.35,3.43,0,0-2.19.47-2.08.98.11.5,4.35,1.42,4.35,1.42,0,0-1.61-.15-1.74.52-.13.67,4.51,2.03,4.51,2.03,0,0-1.44-.37-1.52.06-.08.43,3.12,1.42,3.12,1.42,0,0-.88-.31-.96.13-.08.43,2.21,1.15,2.21,1.15l.99.17Z"/>
            <path class="cls-4" d="m260.72,98.47s3.46-6.86,16.39-1.92c4.84,1.85,4.98,2.04,4.22,2.3-.76.26-8.84-1.88-8.84-1.88,0,0,1.55,1.62,1.17,1.98-.38.36-4.39-1.28-4.39-1.28,0,0,1.42.79,1.14,1.42-.27.63-4.87-.87-4.87-.87,0,0,1.4.51,1.22.91-.18.4-3.38-.6-3.38-.6,0,0,.9.25.72.65-.18.4-2.48-.3-2.48-.3l-.91-.41Z"/>
            <path class="cls-33" d="m260.66,99.63s7.21-2.62,13.26,9.82c2.26,4.67,2.23,4.89,1.5,4.56-.74-.33-5.16-7.42-5.16-7.42,0,0,.02,2.25-.51,2.24-.52,0-2.32-3.94-2.32-3.94,0,0,.49,1.54-.14,1.81-.62.28-2.95-3.96-2.95-3.96,0,0,.68,1.33.27,1.5-.41.17-2.06-2.74-2.06-2.74,0,0,.49.8.08.96-.4.17-1.61-1.91-1.61-1.91l-.37-.92Z"/>
            <path class="cls-4" d="m260.6,95.28s-6.66,3.99-.65,16.49c2.26,4.68,2.45,4.81,2.66,4.02.21-.77-2.6-8.66-2.6-8.66,0,0,1.77,1.42,2.1,1.01.33-.4-1.65-4.28-1.65-4.28,0,0,.91,1.35,1.53,1.03.62-.32-1.26-4.79-1.26-4.79,0,0,.62,1.36,1.02,1.15.39-.21-.87-3.32-.87-3.32,0,0,.32.88.71.66.39-.21-.49-2.44-.49-2.44l-.49-.87Z"/>
          </g>
          <path class="cls-16" d="m273.92,109.45c-1.67-3.44-3.43-5.72-5.1-7.23.7-.96,1.23-2.01,1.58-3.12,0,0,0,0,.01-.01,0-.02,0-.04,0-.06.08-.27.16-.55.22-.83,1.2.44,2.78.97,3.02.75.38-.35-1.17-1.98-1.17-1.98,0,0,8.08,2.14,8.84,1.88.76-.26.63-.45-4.22-2.3-2.24-.86-4.19-1.35-5.9-1.6.18-.08.29-.17.29-.27,0-.35-.4-.57-.8-.71-.01-.06-.03-.13-.04-.19,1.25-.01,3.65-.08,3.81-.43.22-.46-1.81-1.4-1.81-1.4,0,0,8.29-1,8.9-1.52.61-.52.42-.65-4.77-.57-2.97.04-5.33.43-7.21,1.01-.27-.48-.56-.96-.91-1.41-.44-.56-.92-1.06-1.43-1.5.28-1.83.33-4.04.04-6.72-.57-5.18-.72-5.36-1.18-4.7-.46.66-.45,9.04-.45,9.04,0,0-1.21-1.93-1.67-1.67-.21.12-.2,1.09-.13,2.1-.37-.13-.74-.24-1.12-.33-.44-1.87-1.34-4.04-2.93-6.56-2.92-4.62-3.18-4.73-3.44-3.95-.26.79,3.38,8.58,3.38,8.58,0,0-2.28-1.36-2.69-.94-.25.25.54,1.67,1.22,2.8-1.6.31-3.15.99-4.52,2.06-.11.08-.21.18-.31.27-1.61-.84-3.63-1.6-6.15-2.21-5.04-1.21-5.25-1.13-4.77-.48.48.64,8.35,3.43,8.35,3.43,0,0-2.19.47-2.08.98.06.26,1.25.64,2.37.94-.75,1.24-1.23,2.6-1.43,4-.79-.38-1.51-.66-1.68-.54-.42.29.89,2.12.89,2.12,0,0-7.71-3.22-8.5-3.06-.79.16-.68.36,3.87,2.85,2.07,1.13,3.91,1.88,5.55,2.36.32,1.5.97,2.96,1.97,4.25.38.49.81.93,1.25,1.33-.52.29-.9.55-.91.71-.03.52,2.22.61,2.22.61,0,0-7.29,4.09-7.65,4.81-.36.72-.14.76,4.63-1.3,2.07-.89,3.73-1.84,5.08-2.79.49.18.98.33,1.49.44.39,1.59,1.03,3.38,2,5.39,2.26,4.68,2.45,4.81,2.66,4.02.21-.77-2.6-8.66-2.6-8.66,0,0,1.77,1.42,2.1,1.01.13-.16-.1-.86-.42-1.64,1.41-.2,2.78-.68,4.06-1.46.62.95,1.27,1.79,1.56,1.66.63-.27.14-1.81.14-1.81,0,0,1.8,3.94,2.32,3.94.52,0,.51-2.24.51-2.24,0,0,4.42,7.09,5.16,7.42.73.33.76.1-1.5-4.56Z"/>
        </g>
      </g>
    </g>
  </g>
</svg>