<?xml version="1.0" encoding="UTF-8"?>
<svg id="Layer_1" data-name="Layer 1" xmlns="http://www.w3.org/2000/svg" viewBox="0 0 132.17 80.84">
  <defs>
    <style>
      .cls-1 {
        fill: #fff;
      }

      .cls-2 {
        fill: #939598;
      }

      .cls-3 {
        fill: none;
        stroke: #26281e;
        stroke-linecap: round;
        stroke-linejoin: round;
        stroke-width: .72px;
      }

      .cls-4 {
        fill: #6d6e71;
      }

      .cls-5 {
        fill: #808285;
      }

      .cls-6 {
        fill: #cccdcf;
      }

      .cls-7 {
        fill: #26281e;
      }
    </style>
  </defs>
  <g>
    <path class="cls-2" d="m63.17,65.06V24.37h-22.35v-6.34h-3.47v6.34H14.85v40.77c.04,2.76,2.29,4.98,5.06,4.98l.08.15h37.97v-.15c2.79,0,5.06-2.26,5.06-5.06h.15Zm59.79,0V24.37h-22.5v-6.34h-3.32v6.34h-22.5v40.77c.04,2.76,2.29,4.98,5.06,4.98l.08.15h37.97v-.15c2.79,0,5.06-2.26,5.06-5.06h.15Zm9.21-60.92v76.7H4.13V4.13h128.04Zm-23.55,16.23c0-1.12-.92-2.04-2.04-2.04s-2.04.92-2.04,2.04.92,2.04,2.04,2.04,2.04-.91,2.04-2.04Zm-15.7,0c0-1.12-.92-2.04-2.04-2.04s-2.04.92-2.04,2.04.92,2.04,2.04,2.04,2.04-.91,2.04-2.04Zm-44.09,0c0-1.12-.92-2.04-2.04-2.04s-2.04.92-2.04,2.04.92,2.04,2.04,2.04,2.04-.91,2.04-2.04Zm-15.55,0c0-1.12-.92-2.04-2.04-2.04s-2.04.92-2.04,2.04.92,2.04,2.04,2.04,2.04-.91,2.04-2.04Z"/>
    <path class="cls-2" d="m117.83,59.92v-25.29l-.15-.08c0-2.77-2.23-5.02-4.98-5.06h-12.23v-5.13h22.5v40.69h-.15c0,2.79-2.26,5.06-5.06,5.06v.15h-37.97l-.08-.15c-2.77,0-5.02-2.23-5.06-4.98V24.37h22.5v5.13h-12.31c-2.79,0-5.06,2.26-5.06,5.06v25.44c.04,2.76,2.29,4.98,5.06,4.98l.08.15h27.71v-.15c2.79,0,5.06-2.26,5.06-5.06h.15Z"/>
    <path class="cls-2" d="m117.83,34.63v25.29h-.15c0,2.79-2.26,5.06-5.06,5.06v.15h-27.71l-.08-.15c-2.77,0-5.02-2.23-5.06-4.98v-25.44c0-2.79,2.26-5.06,5.06-5.06h12.31v6.19h3.32v-6.19h12.23c2.76.04,4.98,2.29,4.98,5.06l.15.08Zm-12.98,12.61c0-3.12-2.53-5.66-5.66-5.66s-5.66,2.54-5.66,5.66,2.53,5.66,5.66,5.66,5.66-2.53,5.66-5.66Z"/>
    <circle class="cls-2" cx="106.58" cy="20.37" r="2.04"/>
    <path class="cls-2" d="m99.18,41.58c3.13,0,5.66,2.54,5.66,5.66s-2.53,5.66-5.66,5.66-5.66-2.53-5.66-5.66,2.53-5.66,5.66-5.66Zm3.1,5.66c0-1.71-1.38-3.1-3.1-3.1s-3.1,1.38-3.1,3.1,1.38,3.1,3.1,3.1,3.1-1.38,3.1-3.1Z"/>
    <path class="cls-2" d="m99.18,44.15c1.71,0,3.1,1.38,3.1,3.1s-1.38,3.1-3.1,3.1-3.1-1.38-3.1-3.1,1.38-3.1,3.1-3.1Z"/>
    <polygon class="cls-2" points="100.46 29.5 100.46 35.69 97.14 35.69 97.14 29.5 97.14 24.37 97.14 18.03 100.46 18.03 100.46 24.37 100.46 29.5"/>
    <path class="cls-2" d="m90.88,18.33c1.12,0,2.04.92,2.04,2.04s-.92,2.04-2.04,2.04-2.04-.91-2.04-2.04.92-2.04,2.04-2.04Z"/>
    <path class="cls-2" d="m52.98,65.13v-.15c2.77,0,5.02-2.23,5.06-4.98v-25.44c0-2.77-2.23-5.02-4.98-5.06h-12.23v-5.13h22.35v40.69h-.15c0,2.79-2.26,5.06-5.06,5.06v.15H19.99l-.08-.15c-2.77,0-5.02-2.23-5.06-4.98V24.37h22.5v5.13h-12.31c-2.79,0-5.06,2.26-5.06,5.06v25.44c.04,2.76,2.29,4.98,5.06,4.98l.08.15h27.86Z"/>
    <path class="cls-2" d="m58.04,59.92v.08c-.04,2.76-2.29,4.98-5.06,4.98v.15h-27.86l-.08-.15c-2.77,0-5.02-2.23-5.06-4.98v-25.44c0-2.79,2.26-5.06,5.06-5.06h12.31v6.19h3.47v-6.19h12.23c2.76.04,4.98,2.29,4.98,5.06v25.37Zm-13.89-12.68c0-3.12-2.53-5.66-5.66-5.66s-5.66,2.54-5.66,5.66,2.53,5.66,5.66,5.66,5.66-2.53,5.66-5.66Z"/>
    <path class="cls-2" d="m46.79,18.33c1.12,0,2.04.92,2.04,2.04s-.92,2.04-2.04,2.04-2.04-.91-2.04-2.04.92-2.04,2.04-2.04Z"/>
    <path class="cls-2" d="m38.48,41.58c3.13,0,5.66,2.54,5.66,5.66s-2.53,5.66-5.66,5.66-5.66-2.53-5.66-5.66,2.53-5.66,5.66-5.66Zm3.1,5.66c0-1.71-1.38-3.1-3.1-3.1s-3.1,1.38-3.1,3.1,1.38,3.1,3.1,3.1,3.1-1.38,3.1-3.1Z"/>
    <path class="cls-2" d="m38.48,44.15c1.71,0,3.1,1.38,3.1,3.1s-1.38,3.1-3.1,3.1-3.1-1.38-3.1-3.1,1.38-3.1,3.1-3.1Z"/>
    <polygon class="cls-2" points="40.82 29.5 40.82 35.69 37.35 35.69 37.35 29.5 37.35 24.37 37.35 18.03 40.82 18.03 40.82 24.37 40.82 29.5"/>
    <path class="cls-2" d="m31.24,18.33c1.12,0,2.04.92,2.04,2.04s-.92,2.04-2.04,2.04-2.04-.91-2.04-2.04.92-2.04,2.04-2.04Z"/>
  </g>
  <g>
    <g>
      <path class="cls-1" d="m119.19,61.28V20.59h-22.5v-6.34h-3.32v6.34h-22.5v40.77c.04,2.76,2.29,4.98,5.06,4.98l.08.15h37.97v-.15c2.79,0,5.06-2.26,5.06-5.06h.15Zm-59.79,0V20.59h-22.35v-6.34h-3.47v6.34H11.08v40.77c.04,2.76,2.29,4.98,5.06,4.98l.08.15h37.97v-.15c2.79,0,5.06-2.26,5.06-5.06h.15ZM128.4.36v76.7H.36V.36h128.04Zm-23.55,16.23c0-1.12-.92-2.04-2.04-2.04s-2.04.92-2.04,2.04.92,2.04,2.04,2.04,2.04-.91,2.04-2.04Zm-15.7,0c0-1.12-.92-2.04-2.04-2.04s-2.04.92-2.04,2.04.92,2.04,2.04,2.04,2.04-.91,2.04-2.04Zm-44.09,0c0-1.12-.92-2.04-2.04-2.04s-2.04.92-2.04,2.04.92,2.04,2.04,2.04,2.04-.91,2.04-2.04Zm-15.55,0c0-1.12-.92-2.04-2.04-2.04s-2.04.92-2.04,2.04.92,2.04,2.04,2.04,2.04-.91,2.04-2.04Z"/>
      <path class="cls-1" d="m114.05,56.15v-25.29l-.15-.08c0-2.77-2.23-5.02-4.98-5.06h-12.23v-5.13h22.5v40.69h-.15c0,2.79-2.26,5.06-5.06,5.06v.15h-37.97l-.08-.15c-2.77,0-5.02-2.23-5.06-4.98V20.59h22.5v5.13h-12.31c-2.79,0-5.06,2.26-5.06,5.06v25.44c.04,2.76,2.29,4.98,5.06,4.98l.08.15h27.71v-.15c2.79,0,5.06-2.26,5.06-5.06h.15Z"/>
      <path class="cls-1" d="m114.05,30.86v25.29h-.15c0,2.79-2.26,5.06-5.06,5.06v.15h-27.71l-.08-.15c-2.77,0-5.02-2.23-5.06-4.98v-25.44c0-2.79,2.26-5.06,5.06-5.06h12.31v6.19h3.32v-6.19h12.23c2.76.04,4.98,2.29,4.98,5.06l.15.08Zm-12.99,12.61c0-3.12-2.53-5.66-5.66-5.66s-5.66,2.54-5.66,5.66,2.53,5.66,5.66,5.66,5.66-2.53,5.66-5.66Z"/>
      <circle class="cls-4" cx="102.81" cy="16.59" r="2.04"/>
      <path class="cls-5" d="m95.41,37.8c3.13,0,5.66,2.54,5.66,5.66s-2.53,5.66-5.66,5.66-5.66-2.53-5.66-5.66,2.53-5.66,5.66-5.66Zm3.1,5.66c0-1.71-1.38-3.1-3.1-3.1s-3.1,1.38-3.1,3.1,1.38,3.1,3.1,3.1,3.1-1.38,3.1-3.1Z"/>
      <path class="cls-1" d="m95.41,40.37c1.71,0,3.1,1.38,3.1,3.1s-1.38,3.1-3.1,3.1-3.1-1.38-3.1-3.1,1.38-3.1,3.1-3.1Z"/>
      <polygon class="cls-5" points="96.69 25.73 96.69 31.92 93.37 31.92 93.37 25.73 93.37 20.59 93.37 14.25 96.69 14.25 96.69 20.59 96.69 25.73"/>
      <path class="cls-6" d="m87.1,14.55c1.12,0,2.04.92,2.04,2.04s-.92,2.04-2.04,2.04-2.04-.91-2.04-2.04.92-2.04,2.04-2.04Z"/>
      <path class="cls-1" d="m49.2,61.36v-.15c2.77,0,5.02-2.23,5.06-4.98v-25.44c0-2.77-2.23-5.02-4.98-5.06h-12.23v-5.13h22.35v40.69h-.15c0,2.79-2.26,5.06-5.06,5.06v.15H16.21l-.08-.15c-2.77,0-5.02-2.23-5.06-4.98V20.59h22.5v5.13h-12.31c-2.79,0-5.06,2.26-5.06,5.06v25.44c.04,2.76,2.29,4.98,5.06,4.98l.08.15h27.86Z"/>
      <path class="cls-1" d="m54.26,56.15v.08c-.04,2.76-2.29,4.98-5.06,4.98v.15h-27.86l-.08-.15c-2.77,0-5.02-2.23-5.06-4.98v-25.44c0-2.79,2.26-5.06,5.06-5.06h12.31v6.19h3.47v-6.19h12.23c2.76.04,4.98,2.29,4.98,5.06v25.37Zm-13.89-12.68c0-3.12-2.53-5.66-5.66-5.66s-5.66,2.54-5.66,5.66,2.53,5.66,5.66,5.66,5.66-2.53,5.66-5.66Z"/>
      <path class="cls-4" d="m43.01,14.55c1.12,0,2.04.92,2.04,2.04s-.92,2.04-2.04,2.04-2.04-.91-2.04-2.04.92-2.04,2.04-2.04Z"/>
      <path class="cls-5" d="m34.71,37.8c3.13,0,5.66,2.54,5.66,5.66s-2.53,5.66-5.66,5.66-5.66-2.53-5.66-5.66,2.53-5.66,5.66-5.66Zm3.1,5.66c0-1.71-1.38-3.1-3.1-3.1s-3.1,1.38-3.1,3.1,1.38,3.1,3.1,3.1,3.1-1.38,3.1-3.1Z"/>
      <path class="cls-1" d="m34.71,40.37c1.71,0,3.1,1.38,3.1,3.1s-1.38,3.1-3.1,3.1-3.1-1.38-3.1-3.1,1.38-3.1,3.1-3.1Z"/>
      <polygon class="cls-5" points="37.05 25.73 37.05 31.92 33.58 31.92 33.58 25.73 33.58 20.59 33.58 14.25 37.05 14.25 37.05 20.59 37.05 25.73"/>
      <path class="cls-6" d="m27.46,14.55c1.12,0,2.04.92,2.04,2.04s-.92,2.04-2.04,2.04-2.04-.91-2.04-2.04.92-2.04,2.04-2.04Z"/>
    </g>
    <g>
      <path class="cls-7" d="m77.21,77.42H.36c-.2,0-.36-.16-.36-.36s.16-.36.36-.36h76.85c.2,0,.36.16.36.36s-.16.36-.36.36Z"/>
      <path class="cls-7" d="m.36,77.42c-.2,0-.36-.16-.36-.36V.36c0-.2.16-.36.36-.36h128.04c.2,0,.36.16.36.36s-.16.36-.36.36H.72v76.34c0,.2-.16.36-.36.36Z"/>
      <path class="cls-7" d="m128.4,77.42h-51.18c-.2,0-.36-.16-.36-.36s.16-.36.36-.36h50.83V.36c0-.2.16-.36.36-.36s.36.16.36.36v76.7c0,.2-.16.36-.36.36Z"/>
      <path class="cls-7" d="m59.4,61.68c-.2,0-.36-.12-.36-.32V20.95h-21.99c-.2,0-.36-.16-.36-.36s.16-.36.36-.36h22.35c.2,0,.36.16.36.36v40.69c0,.2-.16.4-.36.4Z"/>
      <path class="cls-7" d="m54.19,66.7c-.2,0-.36-.16-.36-.36s.16-.36.36-.36c2.59,0,4.7-2.11,4.7-4.7,0-.2.16-.36.36-.36s.36.16.36.36c0,2.99-2.43,5.42-5.42,5.42Z"/>
      <path class="cls-7" d="m54.26,66.85H16.21c-.2,0-.36-.16-.36-.36s.16-.36.36-.36h37.97c.2,0,.4.16.4.36s-.12.36-.32.36Z"/>
      <path class="cls-7" d="m16.14,66.7c-2.95,0-5.38-2.39-5.42-5.34,0-.2.16-.36.36-.37.21.02.36.16.36.36.04,2.55,2.14,4.63,4.7,4.63.2,0,.36.16.36.36s-.16.36-.36.36Z"/>
      <path class="cls-7" d="m11.08,61.68c-.2,0-.36-.12-.36-.32V20.59c0-.2.16-.36.36-.36h22.5c.2,0,.36.16.36.36s-.16.36-.36.36H11.44v40.33c0,.2-.16.4-.36.4Z"/>
      <path class="cls-7" d="m49.2,26.09h-12.15c-.2,0-.36-.16-.36-.36s.16-.36.36-.36h12.15c.2,0,.36.16.36.36s-.16.36-.36.36Z"/>
      <path class="cls-7" d="m54.26,31.14c-.2,0-.36-.16-.36-.36,0-2.56-2.08-4.66-4.63-4.7-.2,0-.39-.17-.39-.36,0-.2.12-.36.32-.36,3.02.04,5.42,2.47,5.42,5.42,0,.2-.16.36-.36.36Z"/>
      <path class="cls-7" d="m54.26,56.51c-.2,0-.36-.16-.36-.36v-25.29c0-.2.16-.36.36-.36s.36.16.36.36v25.29c0,.2-.16.36-.36.36Z"/>
      <path class="cls-7" d="m49.2,61.57c-.2,0-.36-.16-.36-.36s.16-.36.36-.36c2.56,0,4.66-2.08,4.7-4.63,0-.2.16-.39.36-.39h0c.2,0,.36.12.36.32-.04,3.02-2.47,5.42-5.42,5.42Z"/>
      <path class="cls-7" d="m49.28,61.72h-27.93c-.2,0-.36-.16-.36-.36s.16-.36.36-.36h27.86c.2,0,.4.16.4.36s-.12.36-.32.36Z"/>
      <path class="cls-7" d="m21.27,61.57c-2.95,0-5.38-2.39-5.42-5.34,0-.2.16-.36.35-.37.23,0,.36.16.36.36.04,2.55,2.14,4.63,4.7,4.63.2,0,.36.16.36.36s-.16.36-.36.36Z"/>
      <path class="cls-7" d="m16.21,56.55c-.2,0-.36-.12-.36-.32v-25.37c0-.2.16-.36.36-.36s.36.16.36.36v25.29c0,.2-.16.4-.36.4Z"/>
      <path class="cls-7" d="m16.21,31.14c-.2,0-.36-.16-.36-.36,0-2.99,2.43-5.42,5.42-5.42.2,0,.36.16.36.36s-.16.36-.36.36c-2.59,0-4.7,2.11-4.7,4.7,0,.2-.16.36-.36.36Z"/>
      <path class="cls-7" d="m33.58,26.09h-12.23c-.2,0-.36-.16-.36-.36s.16-.36.36-.36h12.23c.2,0,.36.16.36.36s-.16.36-.36.36Z"/>
      <path class="cls-3" d="m34.71,40.37c-1.71,0-3.1,1.38-3.1,3.1s1.38,3.1,3.1,3.1,3.1-1.38,3.1-3.1-1.38-3.1-3.1-3.1Z"/>
      <path class="cls-3" d="m34.71,37.8c-3.13,0-5.66,2.54-5.66,5.66s2.53,5.66,5.66,5.66,5.66-2.53,5.66-5.66-2.53-5.66-5.66-5.66Z"/>
      <path class="cls-7" d="m37.05,32.28h-3.47c-.2,0-.36-.16-.36-.36V14.25c0-.2.16-.36.36-.36h3.47c.2,0,.36.16.36.36v17.66c0,.2-.16.36-.36.36Zm-3.11-.72h2.75V14.61h-2.75v16.94Z"/>
      <path class="cls-7" d="m70.87,61.64c-.2,0-.36-.16-.36-.36V20.59c0-.2.16-.36.36-.36h22.5c.2,0,.36.16.36.36s-.16.36-.36.36h-22.14v40.33c0,.2-.16.36-.36.36Z"/>
      <path class="cls-7" d="m75.93,66.7c-2.95,0-5.38-2.39-5.42-5.34l.36-.08h.36v.08c.04,2.55,2.14,4.62,4.7,4.62.2,0,.36.16.36.36s-.16.36-.36.36Z"/>
      <path class="cls-7" d="m114.05,66.85h-38.05c-.2,0-.36-.16-.36-.36s.16-.36.36-.36h37.97c.2,0,.4.16.4.36s-.12.36-.32.36Z"/>
      <path class="cls-7" d="m113.98,66.7c-.2,0-.36-.16-.36-.36s.16-.36.36-.36c2.59,0,4.7-2.11,4.7-4.7,0-.2.16-.36.36-.36s.36.16.36.36c0,2.99-2.43,5.42-5.42,5.42Z"/>
      <path class="cls-7" d="m119.19,61.68c-.2,0-.36-.12-.36-.32V20.95h-22.14c-.2,0-.36-.16-.36-.36s.16-.36.36-.36h22.5c.2,0,.36.16.36.36v40.69c0,.2-.16.4-.36.4Z"/>
      <path class="cls-7" d="m93.37,26.09h-12.23c-.2,0-.36-.16-.36-.36s.16-.36.36-.36h12.23c.2,0,.36.16.36.36s-.16.36-.36.36Z"/>
      <path class="cls-7" d="m76,31.14c-.2,0-.36-.16-.36-.36,0-2.99,2.43-5.42,5.42-5.42.2,0,.36.16.36.36s-.16.36-.36.36c-2.59,0-4.7,2.11-4.7,4.7,0,.2-.16.36-.36.36Z"/>
      <path class="cls-7" d="m76,56.51c-.2,0-.36-.16-.36-.36v-25.29c0-.2.16-.36.36-.36s.36.16.36.36v25.29c0,.2-.16.36-.36.36Z"/>
      <path class="cls-7" d="m81.06,61.57c-2.95,0-5.38-2.39-5.42-5.34l.36-.08h.36v.08c.04,2.55,2.14,4.62,4.7,4.62.2,0,.36.16.36.36s-.16.36-.36.36Z"/>
      <path class="cls-7" d="m108.92,61.72h-27.78c-.2,0-.36-.16-.36-.36s.16-.36.36-.36h27.71c.2,0,.4.16.4.36s-.12.36-.32.36Z"/>
      <path class="cls-7" d="m108.84,61.57c-.2,0-.36-.16-.36-.36s.16-.36.36-.36c2.59,0,4.7-2.11,4.7-4.7,0-.2.16-.36.36-.36s.36.16.36.36c0,2.99-2.43,5.42-5.42,5.42Z"/>
      <path class="cls-7" d="m114.05,56.55c-.2,0-.36-.12-.36-.32v-25.37c0-.2.16-.36.36-.36s.36.16.36.36v25.29c0,.2-.16.4-.36.4Z"/>
      <path class="cls-7" d="m113.9,31.14c-.2,0-.36-.16-.36-.36,0-2.56-2.08-4.66-4.63-4.7-.2,0-.36-.17-.36-.37,0-.2.2-.38.36-.36,2.94.04,5.34,2.47,5.34,5.42,0,.2-.16.36-.36.36Z"/>
      <path class="cls-7" d="m108.92,26.09h-12.23c-.2,0-.36-.16-.36-.36s.16-.36.36-.36h12.15c.2,0,.4.16.4.36s-.12.36-.32.36Z"/>
      <path class="cls-3" d="m95.41,40.37c-1.71,0-3.1,1.38-3.1,3.1s1.38,3.1,3.1,3.1,3.1-1.38,3.1-3.1-1.38-3.1-3.1-3.1Z"/>
      <path class="cls-3" d="m95.41,37.8c-3.13,0-5.66,2.54-5.66,5.66s2.53,5.66,5.66,5.66,5.66-2.53,5.66-5.66-2.53-5.66-5.66-5.66Z"/>
      <path class="cls-7" d="m36.14,43.9h-2.57c-.2,0-.36-.16-.36-.36s.16-.36.36-.36h2.57c.2,0,.36.16.36.36s-.16.36-.36.36Z"/>
      <path class="cls-7" d="m34.79,45.26c-.2,0-.36-.16-.36-.36v-2.57c0-.2.16-.36.36-.36s.36.16.36.36v2.57c0,.2-.16.36-.36.36Z"/>
      <path class="cls-7" d="m96.69,43.9h-2.57c-.2,0-.36-.16-.36-.36s.16-.36.36-.36h2.57c.2,0,.36.16.36.36s-.16.36-.36.36Z"/>
      <path class="cls-7" d="m95.48,45.26c-.2,0-.36-.16-.36-.36v-2.57c0-.2.16-.36.36-.36s.36.16.36.36v2.57c0,.2-.16.36-.36.36Z"/>
      <path class="cls-3" d="m27.46,14.55c-1.12,0-2.04.92-2.04,2.04s.92,2.04,2.04,2.04,2.04-.91,2.04-2.04-.92-2.04-2.04-2.04Z"/>
      <path class="cls-3" d="m43.01,14.55c-1.12,0-2.04.92-2.04,2.04s.92,2.04,2.04,2.04,2.04-.91,2.04-2.04-.92-2.04-2.04-2.04Z"/>
      <path class="cls-7" d="m96.69,32.28h-3.32c-.2,0-.36-.16-.36-.36V14.25c0-.2.16-.36.36-.36h3.32c.2,0,.36.16.36.36v17.66c0,.2-.16.36-.36.36Zm-2.96-.72h2.6V14.61h-2.6v16.94Z"/>
      <path class="cls-3" d="m87.1,14.55c-1.12,0-2.04.92-2.04,2.04s.92,2.04,2.04,2.04,2.04-.91,2.04-2.04-.92-2.04-2.04-2.04Z"/>
      <circle class="cls-3" cx="102.81" cy="16.59" r="2.04"/>
    </g>
  </g>
</svg>