<?xml version="1.0" encoding="UTF-8"?>
<svg id="Layer_1" data-name="Layer 1" xmlns="http://www.w3.org/2000/svg" viewBox="0 0 80.84 80.84">
  <defs>
    <style>
      .cls-1 {
        fill: #fff;
      }

      .cls-2 {
        fill: #939598;
      }

      .cls-3 {
        fill: none;
        stroke: #26281e;
        stroke-linecap: round;
        stroke-linejoin: round;
        stroke-width: .72px;
      }

      .cls-4 {
        fill: #6d6e71;
      }

      .cls-5 {
        fill: #808285;
      }

      .cls-6 {
        fill: #cccdcf;
      }

      .cls-7 {
        fill: #26281e;
      }
    </style>
  </defs>
  <g>
    <path class="cls-2" d="m66.64,65.06V24.37h-22.5v-6.34h-3.32v6.34h-22.5v40.77c.04,2.76,2.29,4.98,5.06,4.98l.08.15h37.97v-.15c2.79,0,5.06-2.26,5.06-5.06h.15Zm14.19-60.92v76.7H4.13V4.13h76.7Zm-28.54,16.23c0-1.12-.92-2.04-2.04-2.04s-2.04.92-2.04,2.04.92,2.04,2.04,2.04,2.04-.91,2.04-2.04Zm-15.7,0c0-1.12-.92-2.04-2.04-2.04s-2.04.92-2.04,2.04.92,2.04,2.04,2.04,2.04-.91,2.04-2.04Z"/>
    <path class="cls-2" d="m61.51,59.92v-25.29l-.15-.08c0-2.77-2.23-5.02-4.98-5.06h-12.23v-5.13h22.5v40.69h-.15c0,2.79-2.26,5.06-5.06,5.06v.15H23.46l-.08-.15c-2.77,0-5.02-2.23-5.06-4.98V24.37h22.5v5.13h-12.31c-2.79,0-5.06,2.26-5.06,5.06v25.44c.04,2.76,2.29,4.98,5.06,4.98l.08.15h27.71v-.15c2.79,0,5.06-2.26,5.06-5.06h.15Z"/>
    <path class="cls-2" d="m61.51,34.63v25.29h-.15c0,2.79-2.26,5.06-5.06,5.06v.15h-27.71l-.08-.15c-2.77,0-5.02-2.23-5.06-4.98v-25.44c0-2.79,2.26-5.06,5.06-5.06h12.31v6.19h3.32v-6.19h12.23c2.76.04,4.98,2.29,4.98,5.06l.15.08Zm-13.89,12.61c0-3.12-2.53-5.66-5.66-5.66s-5.66,2.54-5.66,5.66,2.53,5.66,5.66,5.66,5.66-2.53,5.66-5.66Z"/>
    <path class="cls-2" d="m50.26,18.33c1.12,0,2.04.92,2.04,2.04s-.92,2.04-2.04,2.04-2.04-.91-2.04-2.04.92-2.04,2.04-2.04Z"/>
    <path class="cls-2" d="m41.96,41.58c3.13,0,5.66,2.54,5.66,5.66s-2.53,5.66-5.66,5.66-5.66-2.53-5.66-5.66,2.53-5.66,5.66-5.66Zm3.1,5.66c0-1.71-1.38-3.1-3.1-3.1s-3.1,1.38-3.1,3.1,1.38,3.1,3.1,3.1,3.1-1.38,3.1-3.1Z"/>
    <path class="cls-2" d="m41.96,44.15c1.71,0,3.1,1.38,3.1,3.1s-1.38,3.1-3.1,3.1-3.1-1.38-3.1-3.1,1.38-3.1,3.1-3.1Z"/>
    <polygon class="cls-2" points="44.15 29.5 44.15 35.69 40.82 35.69 40.82 29.5 40.82 24.37 40.82 18.03 44.15 18.03 44.15 24.37 44.15 29.5"/>
    <circle class="cls-2" cx="34.56" cy="20.37" r="2.04"/>
  </g>
  <g>
    <g>
      <path class="cls-1" d="m62.87,61.28V20.59h-22.5v-6.34h-3.32v6.34H14.55v40.77c.04,2.76,2.29,4.98,5.06,4.98l.08.15h37.97v-.15c2.79,0,5.06-2.26,5.06-5.06h.15ZM77.06.36v76.7H.36V.36h76.7Zm-28.54,16.23c0-1.12-.92-2.04-2.04-2.04s-2.04.92-2.04,2.04.92,2.04,2.04,2.04,2.04-.91,2.04-2.04Zm-15.7,0c0-1.12-.92-2.04-2.04-2.04s-2.04.92-2.04,2.04.92,2.04,2.04,2.04,2.04-.91,2.04-2.04Z"/>
      <path class="cls-1" d="m57.74,56.15v-25.29l-.15-.08c0-2.77-2.23-5.02-4.98-5.06h-12.23v-5.13h22.5v40.69h-.15c0,2.79-2.26,5.06-5.06,5.06v.15H19.69l-.08-.15c-2.77,0-5.02-2.23-5.06-4.98V20.59h22.5v5.13h-12.31c-2.79,0-5.06,2.26-5.06,5.06v25.44c.04,2.76,2.29,4.98,5.06,4.98l.08.15h27.71v-.15c2.79,0,5.06-2.26,5.06-5.06h.15Z"/>
      <path class="cls-1" d="m57.74,30.86v25.29h-.15c0,2.79-2.26,5.06-5.06,5.06v.15h-27.71l-.08-.15c-2.77,0-5.02-2.23-5.06-4.98v-25.44c0-2.79,2.26-5.06,5.06-5.06h12.31v6.19h3.32v-6.19h12.23c2.76.04,4.98,2.29,4.98,5.06l.15.08Zm-13.89,12.61c0-3.12-2.53-5.66-5.66-5.66s-5.66,2.54-5.66,5.66,2.53,5.66,5.66,5.66,5.66-2.53,5.66-5.66Z"/>
      <path class="cls-4" d="m46.49,14.55c1.12,0,2.04.92,2.04,2.04s-.92,2.04-2.04,2.04-2.04-.91-2.04-2.04.92-2.04,2.04-2.04Z"/>
      <path class="cls-5" d="m38.18,37.8c3.13,0,5.66,2.54,5.66,5.66s-2.53,5.66-5.66,5.66-5.66-2.53-5.66-5.66,2.53-5.66,5.66-5.66Zm3.1,5.66c0-1.71-1.38-3.1-3.1-3.1s-3.1,1.38-3.1,3.1,1.38,3.1,3.1,3.1,3.1-1.38,3.1-3.1Z"/>
      <path class="cls-1" d="m38.18,40.37c1.71,0,3.1,1.38,3.1,3.1s-1.38,3.1-3.1,3.1-3.1-1.38-3.1-3.1,1.38-3.1,3.1-3.1Z"/>
      <polygon class="cls-5" points="40.37 25.73 40.37 31.92 37.05 31.92 37.05 25.73 37.05 20.59 37.05 14.25 40.37 14.25 40.37 20.59 40.37 25.73"/>
      <circle class="cls-6" cx="30.78" cy="16.59" r="2.04"/>
    </g>
    <g>
      <path class="cls-7" d="m77.06,77.42H.36c-.2,0-.36-.16-.36-.36s.16-.36.36-.36h76.7c.2,0,.36.16.36.36s-.16.36-.36.36Z"/>
      <path class="cls-7" d="m77.06,77.42c-.2,0-.36-.16-.36-.36V.72H.72v76.34c0,.2-.16.36-.36.36s-.36-.16-.36-.36V.36c0-.2.16-.36.36-.36h76.7c.2,0,.36.16.36.36v76.7c0,.2-.16.36-.36.36Z"/>
      <path class="cls-7" d="m62.87,61.68c-.2,0-.36-.12-.36-.32V20.95h-22.14c-.2,0-.36-.16-.36-.36s.16-.36.36-.36h22.5c.2,0,.36.16.36.36v40.69c0,.2-.16.4-.36.4Z"/>
      <path class="cls-7" d="m57.66,66.7c-.2,0-.36-.16-.36-.36s.16-.36.36-.36c2.59,0,4.7-2.11,4.7-4.7,0-.2.16-.36.36-.36s.36.16.36.36c0,2.99-2.43,5.42-5.42,5.42Z"/>
      <path class="cls-7" d="m57.74,66.85H19.69c-.2,0-.36-.16-.36-.36s.16-.36.36-.36h37.97c.2,0,.4.16.4.36s-.12.36-.32.36Z"/>
      <path class="cls-7" d="m19.61,66.7c-2.95,0-5.38-2.39-5.42-5.34,0-.2.16-.36.35-.37.22.02.36.16.36.36.04,2.55,2.14,4.63,4.7,4.63.2,0,.36.16.36.36s-.16.36-.36.36Z"/>
      <path class="cls-7" d="m14.55,61.68c-.2,0-.36-.12-.36-.32V20.59c0-.2.16-.36.36-.36h22.5c.2,0,.36.16.36.36s-.16.36-.36.36H14.91v40.33c0,.2-.16.4-.36.4Z"/>
      <path class="cls-7" d="m52.53,26.09h-12.15c-.2,0-.36-.16-.36-.36s.16-.36.36-.36h12.15c.2,0,.36.16.36.36s-.16.36-.36.36Z"/>
      <path class="cls-7" d="m57.58,31.14c-.2,0-.36-.16-.36-.36,0-2.56-2.08-4.66-4.63-4.7-.2,0-.39-.17-.39-.36,0-.2.12-.36.32-.36,3.02.04,5.42,2.47,5.42,5.42,0,.2-.16.36-.36.36Z"/>
      <path class="cls-7" d="m57.74,56.55c-.2,0-.36-.12-.36-.32v-25.37c0-.2.16-.36.36-.36s.36.16.36.36v25.29c0,.2-.16.4-.36.4Z"/>
      <path class="cls-7" d="m52.53,61.57c-.2,0-.36-.16-.36-.36s.16-.36.36-.36c2.59,0,4.7-2.11,4.7-4.7,0-.2.16-.36.36-.36s.36.16.36.36c0,2.99-2.43,5.42-5.42,5.42Z"/>
      <path class="cls-7" d="m52.6,61.72h-27.78c-.2,0-.36-.16-.36-.36s.16-.36.36-.36h27.71c.2,0,.4.16.4.36s-.12.36-.32.36Z"/>
      <path class="cls-7" d="m24.74,61.57c-2.95,0-5.38-2.39-5.42-5.34,0-.2.16-.36.36-.37.24,0,.36.16.36.36.04,2.55,2.14,4.63,4.7,4.63.2,0,.36.16.36.36s-.16.36-.36.36Z"/>
      <path class="cls-7" d="m19.69,56.55c-.2,0-.36-.12-.36-.32v-25.37c0-.2.16-.36.36-.36s.36.16.36.36v25.29c0,.2-.16.4-.36.4Z"/>
      <path class="cls-7" d="m19.69,31.14c-.2,0-.36-.16-.36-.36,0-2.99,2.43-5.42,5.42-5.42.2,0,.36.16.36.36s-.16.36-.36.36c-2.59,0-4.7,2.11-4.7,4.7,0,.2-.16.36-.36.36Z"/>
      <path class="cls-7" d="m37.05,26.09h-12.23c-.2,0-.36-.16-.36-.36s.16-.36.36-.36h12.23c.2,0,.36.16.36.36s-.16.36-.36.36Z"/>
      <path class="cls-3" d="m38.18,40.37c-1.71,0-3.1,1.38-3.1,3.1s1.38,3.1,3.1,3.1,3.1-1.38,3.1-3.1-1.38-3.1-3.1-3.1Z"/>
      <path class="cls-3" d="m38.18,37.8c-3.13,0-5.66,2.54-5.66,5.66s2.53,5.66,5.66,5.66,5.66-2.53,5.66-5.66-2.53-5.66-5.66-5.66Z"/>
      <path class="cls-7" d="m40.37,32.28h-3.32c-.2,0-.36-.16-.36-.36V14.25c0-.2.16-.36.36-.36h3.32c.2,0,.36.16.36.36v17.66c0,.2-.16.36-.36.36Zm-2.96-.72h2.6V14.61h-2.6v16.94Z"/>
      <path class="cls-7" d="m39.47,43.9h-2.57c-.2,0-.36-.16-.36-.36s.16-.36.36-.36h2.57c.2,0,.36.16.36.36s-.16.36-.36.36Z"/>
      <path class="cls-7" d="m38.26,45.26c-.2,0-.36-.16-.36-.36v-2.57c0-.2.16-.36.36-.36s.36.16.36.36v2.57c0,.2-.16.36-.36.36Z"/>
      <circle class="cls-3" cx="30.78" cy="16.59" r="2.04"/>
      <path class="cls-3" d="m46.49,14.55c-1.12,0-2.04.92-2.04,2.04s.92,2.04,2.04,2.04,2.04-.91,2.04-2.04-.92-2.04-2.04-2.04Z"/>
    </g>
  </g>
</svg>