<?xml version="1.0" encoding="UTF-8"?>
<svg xmlns="http://www.w3.org/2000/svg" xmlns:xlink="http://www.w3.org/1999/xlink" viewBox="0 0 478.8 424.84">
  <defs>
    <style>
      .cls-1 {
        fill: #ddd;
      }

      .cls-2 {
        fill: #e9e9e9;
      }

      .cls-3 {
        fill: url(#linear-gradient-2);
      }

      .cls-4 {
        fill: #f0f0f0;
      }

      .cls-5 {
        fill: #f4f4f4;
      }

      .cls-6 {
        fill: #fff;
      }

      .cls-7 {
        fill: #c5c5c5;
      }

      .cls-8 {
        fill: #cbcbcb;
      }

      .cls-9 {
        fill: #d1d1d1;
      }

      .cls-10 {
        fill: #fafafa;
      }

      .cls-11 {
        fill: #dbdbdb;
      }

      .cls-12 {
        fill: #cacaca;
      }

      .cls-13 {
        fill: #d8d8d8;
      }

      .cls-14 {
        fill: #f6f6f6;
      }

      .cls-15 {
        fill: #bfbfbf;
      }

      .cls-16 {
        fill: url(#linear-gradient);
      }

      .cls-16, .cls-17 {
        mix-blend-mode: multiply;
      }

      .cls-18 {
        fill: #939598;
      }

      .cls-19 {
        fill: silver;
      }

      .cls-20 {
        fill: #e2e2e2;
      }

      .cls-21 {
        fill: #f5f5f5;
      }

      .cls-22 {
        fill: #b2b2b2;
      }

      .cls-23 {
        isolation: isolate;
      }

      .cls-24 {
        fill: #c9c9c8;
      }

      .cls-25 {
        fill: #d6d6d6;
      }

      .cls-26 {
        fill: #c9c9c9;
      }

      .cls-27 {
        fill: #acacab;
      }

      .cls-28 {
        fill: #e0e0e0;
      }

      .cls-29 {
        fill: #c7c7c7;
      }

      .cls-30 {
        fill: #dedede;
      }

      .cls-31 {
        fill: #b3b3b2;
      }

      .cls-32 {
        fill: #c3c3c3;
      }

      .cls-33 {
        fill: #cfcfcf;
      }

      .cls-34 {
        fill: #d7d7d7;
      }

      .cls-35 {
        fill: #9d9d9c;
      }

      .cls-36 {
        fill: #e1e1e1;
      }

      .cls-37 {
        fill: #e6e6e6;
      }

      .cls-38 {
        fill: #e7e7e7;
      }

      .cls-39 {
        fill: #d4d4d4;
      }

      .cls-40 {
        fill: #dadada;
      }

      .cls-41 {
        fill: #eaeaea;
      }

      .cls-42 {
        fill: #c8c8c8;
      }

      .cls-43 {
        fill: #fdfdfd;
      }

      .cls-44 {
        fill: #a4a4a3;
      }

      .cls-45 {
        fill: #e4e4e4;
      }

      .cls-46 {
        fill: none;
        stroke: #949494;
        stroke-linecap: round;
        stroke-linejoin: round;
        stroke-width: .03px;
      }

      .cls-47 {
        fill: #fbfbfb;
      }

      .cls-48 {
        fill: #babab9;
      }

      .cls-49 {
        fill: #f9f9f9;
      }

      .cls-50 {
        fill: #72a6bf;
      }

      .cls-51 {
        fill: #e5e5e5;
      }

      .cls-52 {
        fill: #d16660;
      }

      .cls-53 {
        fill: #d3d3d3;
      }

      .cls-54 {
        fill: #ebebeb;
      }

      .cls-55 {
        fill: #bebebe;
      }

      .cls-56 {
        fill: #d5d5d5;
      }

      .cls-57 {
        fill: #dcdcdc;
      }

      .cls-58 {
        fill: #c1c1c1;
      }

      .cls-59 {
        fill: #e8e8e8;
      }

      .cls-60 {
        fill: #ccc;
      }

      .cls-61 {
        fill: #f7f7f7;
      }

      .cls-62 {
        fill: #efefef;
      }

      .cls-63 {
        fill: #c2c2c2;
      }

      .cls-64 {
        fill: #f1f1f1;
      }

      .cls-65 {
        fill: url(#linear-gradient-3);
      }

      .cls-66 {
        fill: #cecece;
      }

      .cls-67 {
        fill: #f3f3f3;
      }

      .cls-68 {
        fill: #d9d9d9;
      }

      .cls-69 {
        fill: #cdcdcd;
      }

      .cls-70 {
        fill: #f8f8f8;
      }

      .cls-71 {
        fill: #d2d2d2;
      }

      .cls-72 {
        fill: #c6c6c6;
      }

      .cls-73 {
        fill: #eee;
      }

      .cls-74 {
        fill: #d0d0d0;
      }

      .cls-75 {
        fill: #ececec;
      }

      .cls-76 {
        fill: #f2f2f2;
      }

      .cls-77 {
        fill: #c4c4c4;
      }

      .cls-78 {
        fill: #fefefe;
      }

      .cls-79 {
        fill: #e3e3e3;
      }

      .cls-80 {
        fill: #fcfcfc;
      }

      .cls-81 {
        fill: #ededed;
      }

      .cls-82 {
        fill: #dfdfdf;
      }
    </style>
    <linearGradient id="linear-gradient" x1="333.73" y1="114.75" x2="244.79" y2="248.16" gradientUnits="userSpaceOnUse">
      <stop offset="0" stop-color="#e0e0e0"/>
      <stop offset="1" stop-color="#fff"/>
    </linearGradient>
    <linearGradient id="linear-gradient-2" x1="848.03" y1="1923.4" x2="979.07" y2="1923.4" gradientTransform="translate(2366.68 -696.08) rotate(90.6)" gradientUnits="userSpaceOnUse">
      <stop offset="0" stop-color="#bfbfbe"/>
      <stop offset=".57" stop-color="#fff"/>
      <stop offset="1" stop-color="#c9c9c8"/>
    </linearGradient>
    <linearGradient id="linear-gradient-3" x1="913.56" y1="2030.7" x2="913.56" y2="1913.41" xlink:href="#linear-gradient-2"/>
  </defs>
  <g class="cls-23">
    <g id="Layer_1" data-name="Layer 1">
      <g>
        <g class="cls-17">
          <path class="cls-6" d="m200.09,30.33C89.57,30.33,0,118.67,0,227.58s89.57,197.26,200.09,197.26,200.05-88.32,200.05-197.26S310.51,30.33,200.09,30.33Z"/>
          <path class="cls-78" d="m201.45,29.81C90.92,29.81,1.36,118.15,1.36,227.05s89.57,197.26,200.09,197.26,200.05-88.32,200.05-197.26S311.86,29.81,201.45,29.81Z"/>
          <path class="cls-43" d="m202.8,29.29C92.28,29.29,2.71,117.62,2.71,226.53s89.57,197.26,200.09,197.26,200.05-88.32,200.05-197.26S313.22,29.29,202.8,29.29Z"/>
          <path class="cls-80" d="m204.16,28.77C93.64,28.77,4.07,117.1,4.07,226.01s89.57,197.26,200.09,197.26,200.05-88.32,200.05-197.26S314.57,28.77,204.16,28.77Z"/>
          <path class="cls-47" d="m205.52,28.24C94.99,28.24,5.43,116.58,5.43,225.49s89.57,197.26,200.09,197.26,200.05-88.32,200.05-197.26S315.93,28.24,205.52,28.24Z"/>
          <path class="cls-10" d="m206.87,27.72C96.35,27.72,6.78,116.05,6.78,224.96s89.57,197.26,200.09,197.26,200.05-88.32,200.05-197.26S317.29,27.72,206.87,27.72Z"/>
          <path class="cls-49" d="m208.23,27.2C97.7,27.2,8.14,115.53,8.14,224.44s89.57,197.26,200.09,197.26,200.05-88.32,200.05-197.26S318.64,27.2,208.23,27.2Z"/>
          <path class="cls-70" d="m209.58,26.67C99.06,26.67,9.49,115.01,9.49,223.92s89.57,197.26,200.09,197.26,200.05-88.32,200.05-197.26S320,26.67,209.58,26.67Z"/>
          <path class="cls-61" d="m210.94,26.15C100.42,26.15,10.85,114.49,10.85,223.4s89.57,197.26,200.09,197.26,200.05-88.32,200.05-197.26S321.36,26.15,210.94,26.15Z"/>
          <path class="cls-14" d="m212.3,25.63C101.77,25.63,12.21,113.96,12.21,222.87s89.57,197.26,200.09,197.26,200.05-88.32,200.05-197.26S322.71,25.63,212.3,25.63Z"/>
          <path class="cls-21" d="m213.65,25.11C103.13,25.11,13.56,113.44,13.56,222.35s89.57,197.26,200.09,197.26,200.05-88.32,200.05-197.26S324.07,25.11,213.65,25.11Z"/>
          <path class="cls-5" d="m215.01,24.58C104.48,24.58,14.92,112.92,14.92,221.83s89.57,197.26,200.09,197.26,200.05-88.32,200.05-197.26S325.43,24.58,215.01,24.58Z"/>
          <path class="cls-67" d="m216.37,24.06C105.84,24.06,16.28,112.39,16.28,221.3s89.57,197.26,200.09,197.26,200.05-88.32,200.05-197.26S326.78,24.06,216.37,24.06Z"/>
          <path class="cls-76" d="m217.72,23.54C107.2,23.54,17.63,111.87,17.63,220.78s89.57,197.26,200.09,197.26,200.05-88.32,200.05-197.26S328.14,23.54,217.72,23.54Z"/>
          <path class="cls-64" d="m219.08,23.02C108.55,23.02,18.99,111.35,18.99,220.26s89.56,197.26,200.09,197.26,200.05-88.32,200.05-197.26S329.49,23.02,219.08,23.02Z"/>
          <path class="cls-4" d="m220.43,22.49C109.91,22.49,20.34,110.83,20.34,219.74s89.56,197.26,200.09,197.26,200.05-88.32,200.05-197.26S330.85,22.49,220.43,22.49Z"/>
          <path class="cls-62" d="m221.79,21.97C111.26,21.97,21.7,110.3,21.7,219.21s89.56,197.26,200.09,197.26,200.05-88.32,200.05-197.26S332.21,21.97,221.79,21.97Z"/>
          <path class="cls-73" d="m223.15,21.45C112.62,21.45,23.06,109.78,23.06,218.69s89.56,197.26,200.09,197.26,200.05-88.32,200.05-197.26S333.56,21.45,223.15,21.45Z"/>
          <path class="cls-81" d="m224.5,20.92C113.98,20.92,24.41,109.26,24.41,218.17s89.56,197.26,200.09,197.26,200.04-88.32,200.04-197.26S334.92,20.92,224.5,20.92Z"/>
          <path class="cls-75" d="m225.86,20.4C115.33,20.4,25.77,108.74,25.77,217.65s89.56,197.26,200.09,197.26,200.04-88.32,200.04-197.26S336.28,20.4,225.86,20.4Z"/>
          <path class="cls-54" d="m227.22,19.88C116.69,19.88,27.13,108.21,27.13,217.12s89.56,197.26,200.09,197.26,200.04-88.32,200.04-197.26S337.63,19.88,227.22,19.88Z"/>
          <path class="cls-41" d="m228.57,19.36C118.05,19.36,28.48,107.69,28.48,216.6s89.56,197.26,200.09,197.26,200.04-88.32,200.04-197.26S338.99,19.36,228.57,19.36Z"/>
          <path class="cls-2" d="m229.93,18.83C119.4,18.83,29.84,107.17,29.84,216.08s89.56,197.26,200.09,197.26,200.04-88.32,200.04-197.26S340.34,18.83,229.93,18.83Z"/>
          <path class="cls-59" d="m231.28,18.31C120.76,18.31,31.19,106.64,31.19,215.55s89.56,197.26,200.09,197.26,200.04-88.32,200.04-197.26S341.7,18.31,231.28,18.31Z"/>
          <path class="cls-38" d="m232.64,17.79c-110.53,0-200.09,88.33-200.09,197.24s89.56,197.26,200.09,197.26,200.04-88.32,200.04-197.26S343.06,17.79,232.64,17.79Z"/>
          <path class="cls-37" d="m234,17.26c-110.53,0-200.09,88.33-200.09,197.24s89.56,197.26,200.09,197.26,200.04-88.32,200.04-197.26S344.41,17.26,234,17.26Z"/>
          <path class="cls-51" d="m235.35,16.74c-110.53,0-200.09,88.33-200.09,197.24s89.56,197.26,200.09,197.26,200.04-88.32,200.04-197.26S345.77,16.74,235.35,16.74Z"/>
          <path class="cls-45" d="m236.71,16.22c-110.53,0-200.09,88.33-200.09,197.24s89.56,197.26,200.09,197.26,200.04-88.32,200.04-197.26S347.13,16.22,236.71,16.22Z"/>
          <path class="cls-79" d="m238.07,15.7c-110.53,0-200.09,88.33-200.09,197.24s89.56,197.26,200.09,197.26,200.04-88.32,200.04-197.26S348.48,15.7,238.07,15.7Z"/>
          <path class="cls-20" d="m239.42,15.17c-110.53,0-200.09,88.33-200.09,197.24s89.56,197.26,200.09,197.26,200.04-88.32,200.04-197.26S349.84,15.17,239.42,15.17Z"/>
          <path class="cls-20" d="m240.78,14.65c-110.53,0-200.09,88.33-200.09,197.24s89.56,197.26,200.09,197.26,200.04-88.32,200.04-197.26S351.19,14.65,240.78,14.65Z"/>
          <path class="cls-36" d="m242.13,14.13c-110.53,0-200.09,88.33-200.09,197.24s89.56,197.26,200.09,197.26,200.04-88.32,200.04-197.26S352.55,14.13,242.13,14.13Z"/>
          <path class="cls-28" d="m243.49,13.61c-110.53,0-200.09,88.33-200.09,197.24s89.56,197.26,200.09,197.26,200.04-88.32,200.04-197.26S353.91,13.61,243.49,13.61Z"/>
          <path class="cls-82" d="m244.85,13.08c-110.53,0-200.09,88.33-200.09,197.24s89.56,197.26,200.09,197.26,200.04-88.32,200.04-197.26S355.26,13.08,244.85,13.08Z"/>
          <path class="cls-30" d="m246.2,12.56c-110.53,0-200.09,88.33-200.09,197.24s89.56,197.26,200.09,197.26,200.04-88.32,200.04-197.26S356.62,12.56,246.2,12.56Z"/>
          <path class="cls-1" d="m247.56,12.04c-110.53,0-200.09,88.33-200.09,197.24s89.56,197.26,200.09,197.26,200.04-88.32,200.04-197.26S357.98,12.04,247.56,12.04Z"/>
          <path class="cls-57" d="m248.92,11.51c-110.53,0-200.09,88.33-200.09,197.24s89.56,197.26,200.09,197.26,200.04-88.32,200.04-197.26S359.33,11.51,248.92,11.51Z"/>
          <path class="cls-11" d="m250.27,10.99c-110.53,0-200.09,88.33-200.09,197.24s89.56,197.26,200.09,197.26,200.04-88.32,200.04-197.26S360.69,10.99,250.27,10.99Z"/>
          <path class="cls-40" d="m251.63,10.47c-110.53,0-200.09,88.33-200.09,197.24s89.56,197.26,200.09,197.26,200.04-88.32,200.04-197.26S362.04,10.47,251.63,10.47Z"/>
          <path class="cls-68" d="m252.98,9.95c-110.53,0-200.09,88.33-200.09,197.24s89.56,197.26,200.09,197.26,200.04-88.32,200.04-197.26S363.4,9.95,252.98,9.95Z"/>
          <path class="cls-13" d="m254.34,9.42c-110.53,0-200.09,88.33-200.09,197.24s89.56,197.26,200.09,197.26,200.04-88.32,200.04-197.26S364.76,9.42,254.34,9.42Z"/>
          <path class="cls-34" d="m255.7,8.9c-110.53,0-200.09,88.33-200.09,197.24s89.56,197.26,200.09,197.26,200.04-88.32,200.04-197.26S366.11,8.9,255.7,8.9Z"/>
          <path class="cls-25" d="m257.05,8.38c-110.53,0-200.09,88.33-200.09,197.24s89.56,197.26,200.09,197.26,200.04-88.32,200.04-197.26S367.47,8.38,257.05,8.38Z"/>
          <path class="cls-56" d="m258.41,7.86c-110.53,0-200.09,88.33-200.09,197.24s89.56,197.26,200.09,197.26,200.04-88.32,200.04-197.26S368.83,7.86,258.41,7.86Z"/>
          <path class="cls-39" d="m259.77,7.33c-110.53,0-200.09,88.33-200.09,197.24s89.56,197.26,200.09,197.26,200.04-88.32,200.04-197.26S370.18,7.33,259.77,7.33Z"/>
          <path class="cls-53" d="m261.12,6.81c-110.53,0-200.09,88.33-200.09,197.24s89.56,197.26,200.09,197.26,200.04-88.32,200.04-197.26S371.54,6.81,261.12,6.81Z"/>
          <path class="cls-71" d="m262.48,6.29c-110.53,0-200.09,88.33-200.09,197.24s89.56,197.26,200.09,197.26,200.04-88.32,200.04-197.26S372.89,6.29,262.48,6.29Z"/>
          <path class="cls-9" d="m263.83,5.76c-110.53,0-200.09,88.33-200.09,197.24s89.56,197.26,200.09,197.26,200.04-88.32,200.04-197.26S374.25,5.76,263.83,5.76Z"/>
          <path class="cls-74" d="m265.19,5.24c-110.53,0-200.09,88.33-200.09,197.24s89.56,197.26,200.09,197.26,200.04-88.32,200.04-197.26S375.61,5.24,265.19,5.24Z"/>
          <path class="cls-33" d="m266.55,4.72c-110.53,0-200.09,88.33-200.09,197.24s89.56,197.26,200.09,197.26,200.04-88.32,200.04-197.26S376.96,4.72,266.55,4.72Z"/>
          <path class="cls-66" d="m267.9,4.2c-110.53,0-200.09,88.33-200.09,197.24s89.56,197.26,200.09,197.26,200.04-88.32,200.04-197.26S378.32,4.2,267.9,4.2Z"/>
          <path class="cls-69" d="m269.26,3.67c-110.53,0-200.09,88.33-200.09,197.24s89.56,197.26,200.09,197.26,200.04-88.32,200.04-197.26S379.68,3.67,269.26,3.67Z"/>
          <path class="cls-60" d="m270.62,3.15c-110.53,0-200.09,88.33-200.09,197.24s89.56,197.26,200.09,197.26,200.04-88.32,200.04-197.26S381.03,3.15,270.62,3.15Z"/>
          <path class="cls-8" d="m271.97,2.63c-110.53,0-200.09,88.33-200.09,197.24s89.56,197.26,200.09,197.26,200.04-88.32,200.04-197.26S382.39,2.63,271.97,2.63Z"/>
          <path class="cls-12" d="m273.33,2.1c-110.53,0-200.09,88.33-200.09,197.24s89.56,197.26,200.09,197.26,200.04-88.32,200.04-197.26S383.74,2.1,273.33,2.1Z"/>
          <path class="cls-26" d="m274.68,1.58c-110.53,0-200.09,88.33-200.09,197.24s89.56,197.26,200.09,197.26,200.04-88.32,200.04-197.26S385.1,1.58,274.68,1.58Z"/>
          <path class="cls-42" d="m276.04,1.06c-110.53,0-200.09,88.33-200.09,197.24s89.56,197.26,200.09,197.26,200.04-88.32,200.04-197.26S386.46,1.06,276.04,1.06Z"/>
          <path class="cls-29" d="m277.4.54C166.86.54,77.31,88.87,77.31,197.78s89.56,197.26,200.09,197.26,200.04-88.32,200.04-197.26S387.81.54,277.4.54Z"/>
          <path class="cls-72" d="m278.75.01C168.22.01,78.66,88.35,78.66,197.26s89.56,197.26,200.09,197.26,200.04-88.32,200.04-197.26S389.17.01,278.75.01Z"/>
        </g>
        <g>
          <g>
            <path class="cls-40" d="m278.75,394.52c110.42,0,200.04-88.32,200.04-197.26S389.17.01,278.75.01,78.66,88.35,78.66,197.26s89.56,197.26,200.09,197.26Z"/>
            <path class="cls-11" d="m278.75.78C168.57.78,79.29,88.77,79.29,197.26s89.27,196.49,199.46,196.49,199.41-87.97,199.41-196.49S388.83.78,278.75.78Z"/>
            <path class="cls-57" d="m278.75,1.55c-109.83,0-198.82,87.64-198.82,195.7s88.99,195.72,198.82,195.72,198.78-87.62,198.78-195.72S388.48,1.55,278.75,1.55Z"/>
            <path class="cls-1" d="m278.74,2.32c-109.48,0-198.19,87.3-198.19,194.93s88.71,194.95,198.19,194.95,198.16-87.28,198.16-194.95S388.14,2.32,278.74,2.32Z"/>
            <path class="cls-30" d="m278.74,3.09c-109.13,0-197.56,86.95-197.56,194.16s88.42,194.18,197.56,194.18,197.53-86.93,197.53-194.18S387.79,3.09,278.74,3.09Z"/>
            <path class="cls-82" d="m278.74,3.87c-108.78,0-196.92,86.61-196.92,193.39s88.14,193.42,196.92,193.42,196.9-86.59,196.9-193.42S387.45,3.87,278.74,3.87Z"/>
            <path class="cls-28" d="m278.73,4.64c-108.43,0-196.29,86.26-196.29,192.62s87.86,192.65,196.29,192.65,196.28-86.24,196.28-192.65S387.1,4.64,278.73,4.64Z"/>
            <path class="cls-36" d="m278.73,5.41c-108.08,0-195.66,85.92-195.66,191.84s87.57,191.88,195.66,191.88,195.65-85.89,195.65-191.88S386.76,5.41,278.73,5.41Z"/>
            <path class="cls-20" d="m278.73,6.18c-107.73,0-195.02,85.57-195.02,191.07s87.29,191.11,195.02,191.11,195.02-85.55,195.02-191.11S386.41,6.18,278.73,6.18Z"/>
            <path class="cls-79" d="m278.73,6.95c-107.38,0-194.39,85.23-194.39,190.3s87.01,190.34,194.39,190.34,194.4-85.2,194.4-190.34S386.07,6.95,278.73,6.95Z"/>
            <path class="cls-45" d="m278.72,7.72c-107.03,0-193.76,84.88-193.76,189.53s86.72,189.57,193.76,189.57,193.77-84.86,193.77-189.57S385.72,7.72,278.72,7.72Z"/>
            <path class="cls-51" d="m278.72,8.49c-106.68,0-193.13,84.54-193.13,188.76s86.44,188.8,193.13,188.8,193.14-84.51,193.14-188.8S385.38,8.49,278.72,8.49Z"/>
            <path class="cls-37" d="m278.72,9.26c-106.33,0-192.49,84.19-192.49,187.99s86.16,188.03,192.49,188.03,192.51-84.16,192.51-188.03S385.03,9.26,278.72,9.26Z"/>
            <path class="cls-38" d="m278.71,10.03c-105.98,0-191.86,83.85-191.86,187.22s85.88,187.26,191.86,187.26,191.89-83.82,191.89-187.26S384.69,10.03,278.71,10.03Z"/>
            <path class="cls-59" d="m278.71,10.8c-105.63,0-191.23,83.5-191.23,186.45s85.59,186.49,191.23,186.49,191.26-83.47,191.26-186.49S384.34,10.8,278.71,10.8Z"/>
            <path class="cls-59" d="m278.71,11.57c-105.28,0-190.59,83.16-190.59,185.67s85.31,185.72,190.59,185.72,190.63-83.13,190.63-185.72S384,11.57,278.71,11.57Z"/>
            <path class="cls-2" d="m278.7,12.34c-104.93,0-189.96,82.81-189.96,184.9s85.03,184.95,189.96,184.95,190.01-82.78,190.01-184.95S383.65,12.34,278.7,12.34Z"/>
            <path class="cls-41" d="m278.7,13.11c-104.58,0-189.33,82.47-189.33,184.13s84.74,184.18,189.33,184.18,189.38-82.43,189.38-184.18S383.31,13.11,278.7,13.11Z"/>
            <path class="cls-54" d="m278.7,13.88c-104.23,0-188.69,82.12-188.69,183.36s84.46,183.41,188.69,183.41,188.75-82.09,188.75-183.41S382.97,13.88,278.7,13.88Z"/>
            <path class="cls-75" d="m278.69,14.65c-103.88,0-188.06,81.78-188.06,182.59s84.18,182.64,188.06,182.64,188.13-81.74,188.13-182.64S382.62,14.65,278.69,14.65Z"/>
            <path class="cls-81" d="m278.69,15.42c-103.53,0-187.43,81.43-187.43,181.82s83.89,181.88,187.43,181.88,187.5-81.4,187.5-181.88S382.28,15.42,278.69,15.42Z"/>
            <path class="cls-73" d="m278.69,16.19c-103.18,0-186.8,81.09-186.8,181.05s83.61,181.11,186.8,181.11,186.87-81.05,186.87-181.11S381.93,16.19,278.69,16.19Z"/>
            <path class="cls-62" d="m278.69,16.96c-102.83,0-186.16,80.74-186.16,180.28s83.33,180.34,186.16,180.34,186.25-80.7,186.25-180.34S381.59,16.96,278.69,16.96Z"/>
            <path class="cls-4" d="m278.68,17.73c-102.48,0-185.53,80.4-185.53,179.5s83.05,179.57,185.53,179.57,185.62-80.36,185.62-179.57S381.24,17.73,278.68,17.73Z"/>
            <path class="cls-64" d="m278.68,18.5c-102.13,0-184.9,80.05-184.9,178.73s82.76,178.8,184.9,178.8,184.99-80.01,184.99-178.8S380.9,18.5,278.68,18.5Z"/>
            <path class="cls-76" d="m278.68,19.27c-101.78,0-184.26,79.71-184.26,177.96s82.48,178.03,184.26,178.03,184.36-79.67,184.36-178.03S380.55,19.27,278.68,19.27Z"/>
            <path class="cls-67" d="m278.67,20.04c-101.43,0-183.63,79.36-183.63,177.19s82.2,177.26,183.63,177.26,183.74-79.32,183.74-177.26S380.21,20.04,278.67,20.04Z"/>
            <path class="cls-5" d="m278.67,20.81c-101.08,0-183,79.02-183,176.42s81.91,176.49,183,176.49,183.11-78.97,183.11-176.49S379.86,20.81,278.67,20.81Z"/>
            <path class="cls-21" d="m278.67,21.58c-100.73,0-182.36,78.67-182.36,175.65s81.63,175.72,182.36,175.72,182.48-78.63,182.48-175.72S379.52,21.58,278.67,21.58Z"/>
            <path class="cls-14" d="m278.66,22.35c-100.38,0-181.73,78.33-181.73,174.88s81.35,174.95,181.73,174.95,181.86-78.28,181.86-174.95S379.17,22.35,278.66,22.35Z"/>
            <path class="cls-21" d="m278.66,22.74c-100.13,0-181.28,78.15-181.28,174.49s81.14,174.56,181.28,174.56,181.4-78.11,181.4-174.56S378.92,22.74,278.66,22.74Z"/>
            <path class="cls-5" d="m278.67,23.13c-99.88,0-180.82,77.98-180.82,174.1s80.94,174.17,180.82,174.17,180.94-77.93,180.94-174.17S378.67,23.13,278.67,23.13Z"/>
            <path class="cls-67" d="m278.67,23.52c-99.63,0-180.37,77.81-180.37,173.71s80.74,173.78,180.37,173.78,180.49-77.76,180.49-173.78S378.41,23.52,278.67,23.52Z"/>
            <path class="cls-76" d="m278.67,23.91c-99.38,0-179.91,77.63-179.91,173.32s80.53,173.39,179.91,173.39,180.03-77.59,180.03-173.39S378.16,23.91,278.67,23.91Z"/>
            <path class="cls-64" d="m278.67,24.31c-99.13,0-179.46,77.46-179.46,172.93s80.33,173,179.46,173,179.57-77.41,179.57-173S377.91,24.31,278.67,24.31Z"/>
            <path class="cls-4" d="m278.67,24.7c-98.88,0-179,77.28-179,172.54s80.12,172.6,179,172.6,179.11-77.24,179.11-172.6S377.65,24.7,278.67,24.7Z"/>
            <path class="cls-62" d="m278.67,25.09c-98.63,0-178.55,77.11-178.55,172.15s79.92,172.21,178.55,172.21,178.66-77.06,178.66-172.21S377.4,25.09,278.67,25.09Z"/>
            <path class="cls-73" d="m278.67,25.48c-98.37,0-178.09,76.93-178.09,171.76s79.72,171.82,178.09,171.82,178.2-76.89,178.2-171.82S377.15,25.48,278.67,25.48Z"/>
            <path class="cls-81" d="m278.67,25.87c-98.12,0-177.64,76.76-177.64,171.37s79.51,171.43,177.64,171.43,177.74-76.71,177.74-171.43S376.89,25.87,278.67,25.87Z"/>
            <path class="cls-75" d="m278.67,26.26c-97.87,0-177.18,76.58-177.18,170.98s79.31,171.04,177.18,171.04,177.29-76.54,177.29-171.04S376.64,26.26,278.67,26.26Z"/>
            <path class="cls-54" d="m278.68,26.65c-97.62,0-176.73,76.41-176.73,170.59s79.11,170.65,176.73,170.65,176.83-76.36,176.83-170.65S376.39,26.65,278.68,26.65Z"/>
            <path class="cls-41" d="m278.68,27.04c-97.37,0-176.27,76.23-176.27,170.2s78.9,170.26,176.27,170.26,176.37-76.19,176.37-170.26S376.14,27.04,278.68,27.04Z"/>
            <path class="cls-2" d="m278.68,27.43c-97.12,0-175.82,76.06-175.82,169.81s78.7,169.87,175.82,169.87,175.91-76.02,175.91-169.87S375.88,27.43,278.68,27.43Z"/>
            <path class="cls-59" d="m278.68,27.82c-96.87,0-175.36,75.88-175.36,169.42s78.49,169.48,175.36,169.48,175.46-75.84,175.46-169.48S375.63,27.82,278.68,27.82Z"/>
            <path class="cls-38" d="m278.68,28.21c-96.62,0-174.91,75.71-174.91,169.03s78.29,169.08,174.91,169.08,175-75.67,175-169.08S375.38,28.21,278.68,28.21Z"/>
            <path class="cls-37" d="m278.68,28.6c-96.36,0-174.45,75.53-174.45,168.64s78.09,168.69,174.45,168.69,174.54-75.49,174.54-168.69S375.12,28.6,278.68,28.6Z"/>
            <path class="cls-51" d="m278.68,28.99c-96.11,0-174,75.36-174,168.25s77.88,168.3,174,168.3,174.09-75.32,174.09-168.3S374.87,28.99,278.68,28.99Z"/>
            <path class="cls-45" d="m278.68,29.38c-95.86,0-173.54,75.18-173.54,167.86s77.68,167.91,173.54,167.91,173.63-75.14,173.63-167.91S374.62,29.38,278.68,29.38Z"/>
            <path class="cls-79" d="m278.68,29.77c-95.61,0-173.09,75.01-173.09,167.46s77.48,167.52,173.09,167.52,173.17-74.97,173.17-167.52S374.36,29.77,278.68,29.77Z"/>
            <path class="cls-20" d="m278.69,30.16c-95.36,0-172.63,74.84-172.63,167.07s77.27,167.13,172.63,167.13,172.71-74.8,172.71-167.13S374.11,30.16,278.69,30.16Z"/>
            <path class="cls-36" d="m278.69,30.56c-95.11,0-172.18,74.66-172.18,166.68s77.07,166.74,172.18,166.74,172.26-74.62,172.26-166.74S373.86,30.56,278.69,30.56Z"/>
            <path class="cls-28" d="m278.69,30.95c-94.86,0-171.72,74.49-171.72,166.29s76.86,166.35,171.72,166.35,171.8-74.45,171.8-166.35S373.6,30.95,278.69,30.95Z"/>
            <path class="cls-82" d="m278.69,31.34c-94.61,0-171.27,74.31-171.27,165.9s76.66,165.96,171.27,165.96,171.34-74.27,171.34-165.96S373.35,31.34,278.69,31.34Z"/>
            <path class="cls-30" d="m278.69,31.73c-94.36,0-170.81,74.14-170.81,165.51s76.46,165.57,170.81,165.57,170.88-74.1,170.88-165.57S373.1,31.73,278.69,31.73Z"/>
            <path class="cls-1" d="m278.69,32.12c-94.1,0-170.36,73.96-170.36,165.12s76.25,165.17,170.36,165.17,170.43-73.92,170.43-165.17S372.84,32.12,278.69,32.12Z"/>
            <path class="cls-57" d="m278.69,32.51c-93.85,0-169.9,73.79-169.9,164.73s76.05,164.78,169.9,164.78,169.97-73.75,169.97-164.78S372.59,32.51,278.69,32.51Z"/>
            <path class="cls-11" d="m278.69,32.9c-93.6,0-169.45,73.61-169.45,164.34s75.84,164.39,169.45,164.39,169.51-73.57,169.51-164.39S372.34,32.9,278.69,32.9Z"/>
            <path class="cls-40" d="m278.69,33.29c-93.35,0-168.99,73.44-168.99,163.95s75.64,164,168.99,164,169.06-73.4,169.06-164S372.08,33.29,278.69,33.29Z"/>
            <path class="cls-40" d="m278.7,33.68c-93.1,0-168.54,73.26-168.54,163.56s75.44,163.61,168.54,163.61,168.6-73.23,168.6-163.61S371.83,33.68,278.7,33.68Z"/>
            <path class="cls-68" d="m278.7,34.07c-92.85,0-168.08,73.09-168.08,163.17s75.23,163.22,168.08,163.22,168.14-73.05,168.14-163.22S371.58,34.07,278.7,34.07Z"/>
            <path class="cls-13" d="m278.7,34.46c-92.6,0-167.63,72.91-167.63,162.78s75.03,162.83,167.63,162.83,167.68-72.88,167.68-162.83S371.32,34.46,278.7,34.46Z"/>
            <path class="cls-34" d="m278.7,34.85c-92.35,0-167.17,72.74-167.17,162.39s74.83,162.44,167.17,162.44,167.23-72.7,167.23-162.44S371.07,34.85,278.7,34.85Z"/>
            <path class="cls-25" d="m278.7,35.24c-92.1,0-166.72,72.56-166.72,162s74.62,162.05,166.72,162.05,166.77-72.53,166.77-162.05S370.82,35.24,278.7,35.24Z"/>
            <path class="cls-56" d="m278.7,35.63c-91.84,0-166.26,72.39-166.26,161.61s74.42,161.65,166.26,161.65,166.31-72.35,166.31-161.65S370.57,35.63,278.7,35.63Z"/>
            <path class="cls-39" d="m278.7,36.02c-91.59,0-165.81,72.21-165.81,161.22s74.21,161.26,165.81,161.26,165.86-72.18,165.86-161.26S370.31,36.02,278.7,36.02Z"/>
            <path class="cls-53" d="m278.7,36.41c-91.34,0-165.35,72.04-165.35,160.83s74.01,160.87,165.35,160.87,165.4-72.01,165.4-160.87S370.06,36.41,278.7,36.41Z"/>
            <path class="cls-71" d="m278.7,36.8c-91.09,0-164.9,71.87-164.9,160.44s73.81,160.48,164.9,160.48,164.94-71.83,164.94-160.48S369.81,36.8,278.7,36.8Z"/>
            <path class="cls-9" d="m278.71,37.2c-90.84,0-164.44,71.69-164.44,160.05s73.6,160.09,164.44,160.09,164.48-71.66,164.48-160.09S369.55,37.2,278.71,37.2Z"/>
            <path class="cls-74" d="m278.71,37.59c-90.59,0-163.99,71.52-163.99,159.66s73.4,159.7,163.99,159.7,164.03-71.48,164.03-159.7S369.3,37.59,278.71,37.59Z"/>
            <path class="cls-33" d="m278.71,37.98c-90.34,0-163.53,71.34-163.53,159.27s73.2,159.31,163.53,159.31,163.57-71.31,163.57-159.31S369.05,37.98,278.71,37.98Z"/>
            <path class="cls-66" d="m278.71,38.37c-90.09,0-163.08,71.17-163.08,158.88s72.99,158.92,163.08,158.92,163.11-71.13,163.11-158.92S368.79,38.37,278.71,38.37Z"/>
            <path class="cls-69" d="m278.71,38.76c-89.83,0-162.62,70.99-162.62,158.49s72.79,158.53,162.62,158.53,162.66-70.96,162.66-158.53S368.54,38.76,278.71,38.76Z"/>
            <path class="cls-60" d="m278.71,39.15c-89.58,0-162.17,70.82-162.17,158.1s72.58,158.13,162.17,158.13,162.2-70.78,162.2-158.13S368.29,39.15,278.71,39.15Z"/>
            <path class="cls-8" d="m278.71,39.54c-89.33,0-161.71,70.64-161.71,157.71s72.38,157.74,161.71,157.74,161.74-70.61,161.74-157.74S368.03,39.54,278.71,39.54Z"/>
            <path class="cls-12" d="m278.71,39.93c-89.08,0-161.26,70.47-161.26,157.32s72.18,157.35,161.26,157.35,161.28-70.44,161.28-157.35S367.78,39.93,278.71,39.93Z"/>
            <path class="cls-26" d="m278.71,40.32c-88.83,0-160.8,70.29-160.8,156.93s71.97,156.96,160.8,156.96,160.83-70.26,160.83-156.96S367.53,40.32,278.71,40.32Z"/>
            <path class="cls-42" d="m278.72,40.71c-88.58,0-160.35,70.12-160.35,156.54s71.77,156.57,160.35,156.57,160.37-70.09,160.37-156.57S367.27,40.71,278.72,40.71Z"/>
            <path class="cls-29" d="m278.72,41.1c-88.33,0-159.89,69.94-159.89,156.15s71.56,156.18,159.89,156.18,159.91-69.91,159.91-156.18S367.02,41.1,278.72,41.1Z"/>
            <path class="cls-72" d="m278.72,41.49c-88.08,0-159.44,69.77-159.44,155.76s71.36,155.79,159.44,155.79,159.46-69.74,159.46-155.79S366.77,41.49,278.72,41.49Z"/>
            <path class="cls-7" d="m278.72,41.88c-87.83,0-158.98,69.59-158.98,155.37s71.16,155.4,158.98,155.4,159-69.56,159-155.4S366.51,41.88,278.72,41.88Z"/>
            <path class="cls-77" d="m278.72,42.27c-87.57,0-158.53,69.42-158.53,154.98s70.95,155.01,158.53,155.01,158.54-69.39,158.54-155.01S366.26,42.27,278.72,42.27Z"/>
            <path class="cls-32" d="m278.72,42.66c-87.32,0-158.07,69.24-158.07,154.59s70.75,154.61,158.07,154.61,158.08-69.22,158.08-154.61S366.01,42.66,278.72,42.66Z"/>
            <path class="cls-63" d="m278.72,43.05c-87.07,0-157.62,69.07-157.62,154.2s70.55,154.22,157.62,154.22,157.63-69.04,157.63-154.22S365.76,43.05,278.72,43.05Z"/>
            <path class="cls-58" d="m278.72,43.45c-86.82,0-157.16,68.9-157.16,153.81s70.34,153.83,157.16,153.83,157.17-68.87,157.17-153.83S365.5,43.45,278.72,43.45Z"/>
            <path class="cls-19" d="m278.72,43.84c-86.57,0-156.71,68.72-156.71,153.42s70.14,153.44,156.71,153.44,156.71-68.69,156.71-153.44S365.25,43.84,278.72,43.84Z"/>
            <path class="cls-15" d="m278.73,44.23c-86.32,0-156.25,68.55-156.25,153.03s69.93,153.05,156.25,153.05,156.25-68.52,156.25-153.05S365,44.23,278.73,44.23Z"/>
            <path class="cls-55" d="m278.73,44.62c-86.07,0-155.8,68.37-155.8,152.64s69.73,152.66,155.8,152.66,155.8-68.34,155.8-152.66S364.74,44.62,278.73,44.62Z"/>
            <path class="cls-15" d="m278.73,46.02c-85.29,0-154.39,67.74-154.39,151.24s69.1,151.26,154.39,151.26,154.4-67.72,154.4-151.26S363.97,46.02,278.73,46.02Z"/>
            <path class="cls-19" d="m278.73,47.42c-84.52,0-152.99,67.12-152.99,149.84s68.48,149.86,152.99,149.86,152.99-67.09,152.99-149.86S363.2,47.42,278.73,47.42Z"/>
            <path class="cls-58" d="m278.73,48.81c-83.74,0-151.59,66.49-151.59,148.44s67.85,148.46,151.59,148.46,151.59-66.46,151.59-148.46S362.42,48.81,278.73,48.81Z"/>
            <path class="cls-63" d="m278.73,50.21c-82.96,0-150.19,65.86-150.19,147.04s67.22,147.06,150.19,147.06,150.19-65.84,150.19-147.06S361.65,50.21,278.73,50.21Z"/>
            <path class="cls-32" d="m278.73,51.61c-82.19,0-148.78,65.24-148.78,145.64s66.59,145.66,148.78,145.66,148.79-65.21,148.79-145.66S360.88,51.61,278.73,51.61Z"/>
            <path class="cls-77" d="m278.73,53.01c-81.41,0-147.38,64.61-147.38,144.24s65.97,144.27,147.38,144.27,147.38-64.58,147.38-144.27S360.1,53.01,278.73,53.01Z"/>
            <path class="cls-7" d="m278.72,54.41c-80.64,0-145.98,63.98-145.98,142.84s65.34,142.87,145.98,142.87,145.98-63.96,145.98-142.87S359.33,54.41,278.72,54.41Z"/>
            <path class="cls-72" d="m278.72,55.81c-79.86,0-144.57,63.36-144.57,141.44s64.71,141.47,144.57,141.47,144.58-63.33,144.58-141.47S358.56,55.81,278.72,55.81Z"/>
            <path class="cls-29" d="m278.72,57.21c-79.09,0-143.17,62.73-143.17,140.04s64.09,140.07,143.17,140.07,143.18-62.7,143.18-140.07S357.78,57.21,278.72,57.21Z"/>
            <path class="cls-42" d="m278.72,58.61c-78.31,0-141.77,62.1-141.77,138.64s63.46,138.67,141.77,138.67,141.77-62.08,141.77-138.67-63.49-138.64-141.77-138.64Z"/>
            <path class="cls-26" d="m278.72,60.01c-77.53,0-140.36,61.48-140.36,137.24s62.83,137.27,140.36,137.27,140.37-61.45,140.37-137.27-62.86-137.24-140.37-137.24Z"/>
            <path class="cls-12" d="m278.72,61.41c-76.76,0-138.96,60.85-138.96,135.84s62.2,135.87,138.96,135.87,138.97-60.82,138.97-135.87-62.23-135.84-138.97-135.84Z"/>
            <path class="cls-8" d="m278.72,62.81c-75.98,0-137.56,60.22-137.56,134.44s61.58,134.47,137.56,134.47,137.57-60.2,137.57-134.47-61.6-134.44-137.57-134.44Z"/>
            <path class="cls-60" d="m278.72,64.21c-75.21,0-136.16,59.6-136.16,133.05s60.95,133.07,136.16,133.07,136.16-59.57,136.16-133.07-60.97-133.05-136.16-133.05Z"/>
            <path class="cls-69" d="m278.72,65.61c-74.43,0-134.75,58.97-134.75,131.65s60.32,131.68,134.75,131.68,134.76-58.94,134.76-131.68-60.34-131.65-134.76-131.65Z"/>
            <path class="cls-66" d="m278.72,67.01c-73.65,0-133.35,58.34-133.35,130.25s59.69,130.28,133.35,130.28,133.36-58.32,133.36-130.28-59.71-130.25-133.36-130.25Z"/>
            <path class="cls-33" d="m278.72,68.4c-72.88,0-131.95,57.72-131.95,128.85s59.07,128.88,131.95,128.88,131.96-57.69,131.96-128.88-59.08-128.85-131.96-128.85Z"/>
            <path class="cls-74" d="m278.72,69.8c-72.1,0-130.54,57.09-130.54,127.45s58.44,127.48,130.54,127.48,130.55-57.06,130.55-127.48-58.45-127.45-130.55-127.45Z"/>
            <path class="cls-9" d="m278.72,71.2c-71.33,0-129.14,56.46-129.14,126.05s57.81,126.08,129.14,126.08,129.15-56.44,129.15-126.08-57.82-126.05-129.15-126.05Z"/>
            <path class="cls-71" d="m278.72,72.6c-70.55,0-127.74,55.83-127.74,124.65s57.19,124.68,127.74,124.68,127.75-55.81,127.75-124.68-57.19-124.65-127.75-124.65Z"/>
            <path class="cls-53" d="m278.72,74c-69.78,0-126.33,55.21-126.33,123.25s56.56,123.28,126.33,123.28,126.35-55.18,126.35-123.28-56.57-123.25-126.35-123.25Z"/>
            <path class="cls-39" d="m278.72,75.4c-69,0-124.93,54.58-124.93,121.85s55.93,121.88,124.93,121.88,124.94-54.56,124.94-121.88-55.94-121.85-124.94-121.85Z"/>
            <path class="cls-56" d="m278.72,76.8c-68.22,0-123.53,53.95-123.53,120.45s55.3,120.48,123.53,120.48,123.54-53.93,123.54-120.48-55.31-120.45-123.54-120.45Z"/>
            <path class="cls-56" d="m278.72,78.2c-67.45,0-122.13,53.33-122.13,119.05s54.68,119.09,122.13,119.09,122.14-53.3,122.14-119.09-54.68-119.05-122.14-119.05Z"/>
            <path class="cls-25" d="m278.72,79.6c-66.67,0-120.72,52.7-120.72,117.65s54.05,117.69,120.72,117.69,120.74-52.68,120.74-117.69-54.05-117.65-120.74-117.65Z"/>
            <path class="cls-34" d="m278.72,81c-65.9,0-119.32,52.07-119.32,116.25s53.42,116.29,119.32,116.29,119.33-52.05,119.33-116.29-53.42-116.25-119.33-116.25Z"/>
            <path class="cls-13" d="m278.72,82.4c-65.12,0-117.92,51.45-117.92,114.85s52.8,114.89,117.92,114.89,117.93-51.42,117.93-114.89-52.79-114.85-117.93-114.85Z"/>
            <path class="cls-68" d="m278.72,83.8c-64.35,0-116.51,50.82-116.51,113.45s52.17,113.49,116.51,113.49,116.53-50.8,116.53-113.49-52.16-113.45-116.53-113.45Z"/>
            <path class="cls-40" d="m278.72,85.2c-63.57,0-115.11,50.19-115.11,112.05s51.54,112.09,115.11,112.09,115.13-50.17,115.13-112.09-51.53-112.05-115.13-112.05Z"/>
            <path class="cls-11" d="m278.72,86.59c-62.79,0-113.71,49.57-113.71,110.65s50.91,110.69,113.71,110.69,113.72-49.54,113.72-110.69-50.9-110.65-113.72-110.65Z"/>
            <path class="cls-57" d="m278.72,87.99c-62.02,0-112.3,48.94-112.3,109.25s50.29,109.29,112.3,109.29,112.32-48.92,112.32-109.29-50.27-109.25-112.32-109.25Z"/>
            <path class="cls-1" d="m278.72,89.39c-61.24,0-110.9,48.31-110.9,107.85s49.66,107.89,110.9,107.89,110.92-48.29,110.92-107.89-49.64-107.85-110.92-107.85Z"/>
            <path class="cls-30" d="m278.72,90.79c-60.47,0-109.5,47.69-109.5,106.45s49.03,106.5,109.5,106.5,109.52-47.66,109.52-106.5-49.01-106.45-109.52-106.45Z"/>
            <path class="cls-82" d="m278.72,92.19c-59.69,0-108.1,47.06-108.1,105.05s48.4,105.1,108.1,105.1,108.11-47.04,108.11-105.1-48.38-105.05-108.11-105.05Z"/>
            <path class="cls-28" d="m278.72,93.59c-58.91,0-106.69,46.43-106.69,103.65s47.78,103.7,106.69,103.7,106.71-46.41,106.71-103.7-47.75-103.65-106.71-103.65Z"/>
            <path class="cls-36" d="m278.72,94.99c-58.14,0-105.29,45.81-105.29,102.25s47.15,102.3,105.29,102.3,105.31-45.78,105.31-102.3-47.12-102.25-105.31-102.25Z"/>
            <path class="cls-20" d="m278.72,96.39c-57.36,0-103.89,45.18-103.89,100.85s46.52,100.9,103.89,100.9,103.91-45.16,103.91-100.9-46.49-100.85-103.91-100.85Z"/>
            <path class="cls-79" d="m278.72,97.79c-56.59,0-102.48,44.55-102.48,99.45s45.9,99.5,102.48,99.5,102.5-44.53,102.5-99.5-45.87-99.45-102.5-99.45Z"/>
            <path class="cls-45" d="m278.72,99.19c-55.81,0-101.08,43.92-101.08,98.05s45.27,98.1,101.08,98.1,101.1-43.9,101.1-98.1-45.24-98.05-101.1-98.05Z"/>
            <path class="cls-51" d="m278.72,100.59c-55.04,0-99.68,43.3-99.68,96.65s44.64,96.7,99.68,96.7,99.7-43.28,99.7-96.7-44.61-96.65-99.7-96.65Z"/>
            <path class="cls-37" d="m278.72,101.99c-54.26,0-98.27,42.67-98.27,95.25s44.01,95.3,98.27,95.3,98.3-42.65,98.3-95.3-43.98-95.25-98.3-95.25Z"/>
            <path class="cls-38" d="m278.72,103.39c-53.48,0-96.87,42.04-96.87,93.86s43.39,93.91,96.87,93.91,96.89-42.02,96.89-93.91-43.35-93.86-96.89-93.86Z"/>
            <path class="cls-59" d="m278.72,104.79c-52.71,0-95.47,41.42-95.47,92.46s42.76,92.51,95.47,92.51,95.49-41.4,95.49-92.51-42.72-92.46-95.49-92.46Z"/>
            <path class="cls-2" d="m278.71,106.18c-51.93,0-94.07,40.79-94.07,91.06s42.13,91.11,94.07,91.11,94.09-40.77,94.09-91.11-42.09-91.06-94.09-91.06Z"/>
            <path class="cls-41" d="m278.71,107.58c-51.16,0-92.66,40.16-92.66,89.66s41.51,89.71,92.66,89.71,92.69-40.14,92.69-89.71-41.46-89.66-92.69-89.66Z"/>
            <path class="cls-54" d="m278.71,108.98c-50.38,0-91.26,39.54-91.26,88.26s40.88,88.31,91.26,88.31,91.28-39.52,91.28-88.31-40.83-88.26-91.28-88.26Z"/>
            <path class="cls-75" d="m278.71,110.38c-49.61,0-89.86,38.91-89.86,86.86s40.25,86.91,89.86,86.91,89.88-38.89,89.88-86.91-40.2-86.86-89.88-86.86Z"/>
            <path class="cls-81" d="m278.71,111.78c-48.83,0-88.45,38.28-88.45,85.46s39.62,85.51,88.45,85.51,88.48-38.26,88.48-85.51-39.57-85.46-88.48-85.46Z"/>
          </g>
          <path class="cls-16" d="m278.73,44.62c-86.07,0-155.8,68.37-155.8,152.64s69.73,152.66,155.8,152.66,155.8-68.34,155.8-152.66S364.74,44.62,278.73,44.62Z"/>
          <g>
            <path class="cls-22" d="m310.04,197.26c0,12.39-14.04,22.41-31.3,22.41s-31.32-10.02-31.32-22.41,14.05-22.4,31.32-22.4,31.3,10.03,31.3,22.4Z"/>
            <path class="cls-18" d="m301.7,197.26c0,9.1-10.29,16.45-22.96,16.45s-22.99-7.36-22.99-16.45,10.32-16.44,22.99-16.44,22.96,7.36,22.96,16.44Z"/>
          </g>
          <g>
            <g>
              <path class="cls-22" d="m431.83,267.33c-6.73-.06-12.14-4-12.07-8.81l1.65-122.73c.06-4.8,5.56-8.65,12.3-8.59h1.84c6.73.06,12.13,4.01,12.07,8.81l-1.63,122.73c-.06,4.81-5.58,8.66-12.3,8.6h-1.85Z"/>
              <path class="cls-3" d="m432.15,262.78c-4.88-.04-8.79-2.89-8.74-6.37l1.58-118.45c.05-3.47,4.03-6.26,8.91-6.22h1.34c4.86.05,8.78,2.9,8.73,6.38l-1.58,118.45c-.04,3.47-4.03,6.26-8.89,6.22h-1.34Z"/>
            </g>
            <g>
              <path class="cls-35" d="m433.42,217.3c-15.49-.13-27.94-9.2-27.8-20.27.16-11.06,12.84-19.94,28.33-19.81,15.51.13,27.95,9.2,27.8,20.27-.14,11.06-12.84,19.94-28.33,19.81Z"/>
              <path class="cls-44" d="m433.43,216.58c-14.93-.12-26.93-8.86-26.79-19.54.15-10.66,12.37-19.21,27.31-19.09,14.95.12,26.94,8.86,26.79,19.54-.14,10.66-12.37,19.21-27.31,19.09Z"/>
              <path class="cls-27" d="m433.44,215.86c-14.37-.12-25.92-8.53-25.79-18.8.14-10.26,11.91-18.49,26.28-18.37,14.39.12,25.93,8.53,25.79,18.8-.13,10.26-11.91,18.49-26.28,18.37Z"/>
              <path class="cls-31" d="m433.45,215.13c-13.81-.11-24.91-8.2-24.78-18.07.13-9.86,11.44-17.77,25.26-17.66,13.82.11,24.92,8.2,24.79,18.07-.13,9.86-11.45,17.77-25.26,17.66Z"/>
              <path class="cls-48" d="m433.46,214.41c-13.25-.11-23.9-7.87-23.78-17.34.13-9.46,10.98-17.05,24.23-16.94,13.26.11,23.91,7.87,23.78,17.34-.12,9.46-10.98,17.05-24.24,16.94Z"/>
              <path class="cls-58" d="m433.47,213.68c-12.69-.1-22.89-7.54-22.77-16.61.12-9.06,10.51-16.33,23.21-16.23,12.7.1,22.9,7.54,22.78,16.61-.12,9.06-10.52,16.33-23.21,16.23Z"/>
              <path class="cls-24" d="m433.48,212.96c-12.13-.1-21.88-7.2-21.77-15.88.11-8.66,10.05-15.61,22.18-15.51,12.14.1,21.89,7.2,21.77,15.88-.11,8.66-10.06,15.61-22.19,15.51Z"/>
              <path class="cls-74" d="m433.49,212.24c-11.57-.09-20.87-6.87-20.76-15.14.11-8.26,9.59-14.89,21.16-14.8,11.58.09,20.88,6.87,20.77,15.14-.11,8.26-9.59,14.89-21.17,14.8Z"/>
              <path class="cls-34" d="m433.5,211.51c-11.02-.09-19.86-6.54-19.76-14.41.1-7.86,9.12-14.17,20.14-14.08,11.02.09,19.87,6.54,19.76,14.41-.1,7.86-9.13,14.17-20.15,14.08Z"/>
              <path class="cls-30" d="m433.51,210.79c-10.46-.08-18.85-6.21-18.75-13.68.09-7.46,8.66-13.45,19.11-13.37,10.46.08,18.86,6.21,18.76,13.68-.1,7.46-8.67,13.45-19.12,13.37Z"/>
              <path class="cls-37" d="m433.52,210.06c-9.9-.08-17.84-5.87-17.74-12.95.08-7.06,8.19-12.73,18.09-12.65,9.9.08,17.85,5.87,17.76,12.95-.1,7.06-8.2,12.73-18.1,12.65Z"/>
              <path class="cls-81" d="m433.53,209.34c-9.34-.07-16.83-5.54-16.74-12.21.08-6.66,7.73-12.01,17.06-11.94,9.34.07,16.84,5.54,16.75,12.21-.09,6.66-7.74,12.01-17.08,11.94Z"/>
            </g>
            <g>
              <path class="cls-22" d="m330.28,208.23c-6.73-.06-12.14-3.99-12.07-8.8l.09-6.61c.05-4.81,5.56-8.66,12.29-8.6l105.62,1.07c6.74.05,12.14,3.99,12.07,8.8l-.08,6.61c-.06,4.8-5.58,8.65-12.3,8.6l-105.62-1.07Z"/>
              <path class="cls-65" d="m334.45,204.3c-4.51-.04-8.13-2.67-8.09-5.89l.06-4.44c.04-3.22,3.73-5.8,8.25-5.76l100.92,1.02c4.51.04,8.14,2.68,8.1,5.9l-.06,4.43c-.04,3.23-3.73,5.81-8.25,5.77l-100.94-1.03Z"/>
            </g>
            <g>
              <g>
                <g>
                  <path class="cls-35" d="m434.33,149.55c-13.02-.1-23.47-7.72-23.34-17.01.12-9.29,10.77-16.73,23.79-16.63,13,.11,23.46,7.72,23.33,17.02-.12,9.29-10.78,16.73-23.78,16.62Z"/>
                  <path class="cls-44" d="m434.34,148.96c-12.57-.1-22.65-7.45-22.53-16.42.11-8.97,10.4-16.15,22.97-16.05,12.55.11,22.64,7.45,22.52,16.43-.11,8.97-10.4,16.15-22.96,16.05Z"/>
                  <path class="cls-27" d="m434.34,148.38c-12.11-.1-21.84-7.19-21.72-15.83.11-8.65,10.03-15.57,22.14-15.48,12.1.1,21.83,7.19,21.71,15.84-.11,8.65-10.03,15.57-22.14,15.47Z"/>
                  <path class="cls-31" d="m434.35,147.8c-11.66-.09-21.03-6.92-20.91-15.24.11-8.33,9.66-14.99,21.32-14.9,11.65.1,21.02,6.92,20.9,15.25-.11,8.32-9.65,14.99-21.31,14.9Z"/>
                  <path class="cls-48" d="m434.36,147.22c-11.21-.09-20.21-6.65-20.1-14.66.1-8,9.28-14.41,20.5-14.33,11.2.09,20.21,6.65,20.1,14.66-.1,8-9.28,14.41-20.49,14.32Z"/>
                  <path class="cls-58" d="m434.37,146.63c-10.76-.09-19.4-6.38-19.3-14.07.1-7.68,8.91-13.84,19.67-13.75,10.75.09,19.4,6.38,19.29,14.07-.1,7.68-8.91,13.84-19.67,13.74Z"/>
                  <path class="cls-24" d="m434.37,146.05c-10.31-.08-18.59-6.12-18.49-13.48.1-7.36,8.54-13.26,18.85-13.17,10.3.09,18.58,6.12,18.48,13.48-.1,7.36-8.53,13.26-18.84,13.17Z"/>
                  <path class="cls-74" d="m434.38,145.47c-9.86-.08-17.78-5.85-17.68-12.89.09-7.04,8.17-12.68,18.02-12.6,9.85.08,17.77,5.85,17.67,12.89-.09,7.03-8.16,12.68-18.02,12.59Z"/>
                  <path class="cls-34" d="m434.39,144.89c-9.41-.08-16.96-5.58-16.87-12.3.09-6.72,7.79-12.1,17.2-12.02,9.4.08,16.96,5.58,16.87,12.3-.09,6.71-7.79,12.1-17.2,12.02Z"/>
                  <path class="cls-30" d="m434.39,144.31c-8.95-.07-16.15-5.31-16.06-11.71.08-6.4,7.42-11.52,16.38-11.44,8.95.07,16.15,5.31,16.06,11.71-.09,6.39-7.41,11.52-16.37,11.44Z"/>
                  <path class="cls-37" d="m434.4,143.72c-8.5-.07-15.34-5.05-15.25-11.12.08-6.08,7.05-10.94,15.55-10.87,8.5.07,15.33,5.05,15.25,11.12-.08,6.07-7.04,10.94-15.55,10.87Z"/>
                  <path class="cls-81" d="m434.41,143.14c-8.05-.06-14.52-4.78-14.44-10.53.08-5.75,6.68-10.36,14.73-10.29s14.52,4.78,14.44,10.53c-.08,5.74-6.66,10.36-14.73,10.29Z"/>
                </g>
                <path class="cls-52" d="m434.41,143.14c-8.05-.06-14.52-4.78-14.44-10.53.08-5.75,6.68-10.36,14.73-10.29s14.52,4.78,14.44,10.53c-.08,5.74-6.66,10.36-14.73,10.29Z"/>
              </g>
              <g>
                <g>
                  <path class="cls-35" d="m432.61,278.63c-13.02-.11-23.47-7.73-23.34-17.02.12-9.29,10.77-16.73,23.79-16.63,13,.11,23.46,7.73,23.33,17.02-.12,9.29-10.76,16.73-23.78,16.63Z"/>
                  <path class="cls-44" d="m432.61,278.05c-12.57-.11-22.65-7.46-22.53-16.43.11-8.97,10.4-16.15,22.97-16.05,12.55.11,22.64,7.46,22.52,16.43-.11,8.97-10.39,16.15-22.96,16.05Z"/>
                  <path class="cls-27" d="m432.62,277.47c-12.11-.1-21.84-7.19-21.72-15.84.11-8.65,10.03-15.57,22.14-15.48,12.1.1,21.83,7.19,21.71,15.84-.11,8.65-10.02,15.57-22.13,15.48Z"/>
                  <path class="cls-31" d="m432.63,276.88c-11.66-.1-21.03-6.93-20.91-15.25.11-8.32,9.66-14.99,21.32-14.9,11.65.1,21.02,6.93,20.9,15.25-.11,8.33-9.64,14.99-21.31,14.9Z"/>
                  <path class="cls-48" d="m432.63,276.3c-11.21-.09-20.21-6.66-20.1-14.66.1-8,9.29-14.41,20.5-14.33,11.2.09,20.21,6.66,20.1,14.66-.1,8-9.27,14.41-20.49,14.33Z"/>
                  <path class="cls-58" d="m432.64,275.72c-10.76-.09-19.4-6.39-19.3-14.07.1-7.68,8.91-13.84,19.67-13.75,10.75.09,19.39,6.39,19.29,14.07-.1,7.68-8.9,13.84-19.67,13.75Z"/>
                  <path class="cls-24" d="m432.65,275.13c-10.31-.09-18.59-6.12-18.49-13.48.1-7.36,8.54-13.26,18.85-13.17,10.3.09,18.58,6.12,18.48,13.48-.1,7.36-8.53,13.26-18.84,13.17Z"/>
                  <path class="cls-74" d="m432.66,274.55c-9.86-.08-17.78-5.85-17.68-12.89.09-7.03,8.17-12.68,18.02-12.6,9.85.08,17.77,5.85,17.67,12.89-.09,7.04-8.15,12.68-18.02,12.6Z"/>
                  <path class="cls-34" d="m432.66,273.97c-9.41-.08-16.96-5.58-16.87-12.3.09-6.71,7.8-12.1,17.2-12.02,9.4.08,16.96,5.58,16.87,12.3-.09,6.72-7.78,12.1-17.2,12.02Z"/>
                  <path class="cls-30" d="m432.67,273.38c-8.95-.07-16.15-5.32-16.06-11.71.08-6.39,7.42-11.52,16.38-11.44,8.95.07,16.15,5.32,16.06,11.71-.08,6.4-7.41,11.52-16.37,11.44Z"/>
                  <path class="cls-37" d="m432.68,272.8c-8.5-.07-15.34-5.05-15.25-11.12.08-6.07,7.05-10.94,15.55-10.87,8.5.07,15.33,5.05,15.25,11.12-.08,6.08-7.04,10.94-15.55,10.87Z"/>
                  <path class="cls-81" d="m432.68,272.22c-8.05-.06-14.52-4.78-14.44-10.53.08-5.74,6.68-10.36,14.73-10.29,8.05.06,14.52,4.78,14.44,10.53-.08,5.75-6.66,10.36-14.73,10.29Z"/>
                </g>
                <path class="cls-50" d="m432.68,272.22c-8.05-.06-14.52-4.78-14.44-10.53.08-5.74,6.68-10.36,14.73-10.29,8.05.06,14.52,4.78,14.44,10.53-.08,5.75-6.66,10.36-14.73,10.29Z"/>
              </g>
            </g>
          </g>
        </g>
        <path class="cls-46" d="m278.75,394.52c110.42,0,200.04-88.32,200.04-197.26S389.17.01,278.75.01,78.66,88.35,78.66,197.26s89.56,197.26,200.09,197.26Z"/>
      </g>
    </g>
  </g>
</svg>