<?xml version="1.0" encoding="UTF-8"?>
<svg xmlns="http://www.w3.org/2000/svg" xmlns:xlink="http://www.w3.org/1999/xlink" viewBox="0 0 616.57 273.54">
  <defs>
    <style>
      .cls-1 {
        fill: #ddd;
      }

      .cls-2 {
        fill: #e9e9e9;
      }

      .cls-3 {
        fill: url(#linear-gradient-2);
      }

      .cls-4 {
        fill: #f0f0f0;
      }

      .cls-5 {
        fill: #f4f4f4;
      }

      .cls-6 {
        fill: #fff;
      }

      .cls-7 {
        fill: #cbcbcb;
      }

      .cls-8 {
        fill: #d1d1d1;
      }

      .cls-9 {
        fill: #fafafa;
      }

      .cls-10 {
        fill: #dbdbdb;
      }

      .cls-11 {
        fill: #ff564a;
      }

      .cls-11, .cls-12 {
        mix-blend-mode: multiply;
      }

      .cls-13 {
        fill: #cacaca;
      }

      .cls-14 {
        fill: #d8d8d8;
      }

      .cls-15 {
        fill: #f6f6f6;
      }

      .cls-16 {
        fill: #bfbfbf;
      }

      .cls-17 {
        fill: #e2e2e2;
      }

      .cls-18 {
        fill: #f5f5f5;
      }

      .cls-19 {
        fill: url(#linear-gradient-6);
      }

      .cls-20 {
        fill: #b2b2b2;
      }

      .cls-21 {
        isolation: isolate;
      }

      .cls-22 {
        fill: #c9c9c8;
      }

      .cls-23 {
        fill: #d6d6d6;
      }

      .cls-24 {
        fill: #909090;
      }

      .cls-25 {
        fill: #c9c9c9;
      }

      .cls-26 {
        fill: #acacab;
      }

      .cls-27 {
        fill: #e0e0e0;
      }

      .cls-28 {
        fill: #c7c7c7;
      }

      .cls-29 {
        fill: #dedede;
      }

      .cls-30 {
        fill: #b3b3b2;
      }

      .cls-31 {
        fill: #cfcfcf;
      }

      .cls-32 {
        fill: #d7d7d7;
      }

      .cls-33 {
        fill: #9d9d9c;
      }

      .cls-34 {
        fill: #e1e1e1;
      }

      .cls-35 {
        fill: #e6e6e6;
      }

      .cls-36 {
        fill: #e7e7e7;
      }

      .cls-37 {
        fill: #d4d4d4;
      }

      .cls-38 {
        fill: #dadada;
      }

      .cls-39 {
        fill: #eaeaea;
      }

      .cls-40 {
        fill: #c8c8c8;
      }

      .cls-41 {
        fill: #fdfdfd;
      }

      .cls-42 {
        fill: #a4a4a3;
      }

      .cls-43 {
        fill: #e4e4e4;
      }

      .cls-44 {
        fill: #fbfbfb;
      }

      .cls-45 {
        fill: #a3a3a3;
      }

      .cls-46 {
        fill: #babab9;
      }

      .cls-47 {
        fill: #f9f9f9;
      }

      .cls-48 {
        fill: #8f8f8e;
      }

      .cls-49 {
        fill: #72a6bf;
      }

      .cls-50 {
        fill: #e5e5e5;
      }

      .cls-51 {
        fill: url(#linear-gradient-5);
      }

      .cls-52 {
        fill: #d16660;
      }

      .cls-53 {
        fill: #878787;
      }

      .cls-54 {
        fill: #d3d3d3;
      }

      .cls-55 {
        fill: #ebebeb;
      }

      .cls-56 {
        fill: #d5d5d5;
      }

      .cls-57 {
        fill: #dcdcdc;
      }

      .cls-58 {
        fill: #c1c1c1;
      }

      .cls-59 {
        fill: #e8e8e8;
      }

      .cls-60 {
        fill: url(#linear-gradient-7);
      }

      .cls-61 {
        fill: #ccc;
      }

      .cls-62 {
        fill: #f7f7f7;
      }

      .cls-63 {
        fill: #efefef;
      }

      .cls-64 {
        fill: #9a9a9a;
      }

      .cls-65 {
        fill: #f1f1f1;
      }

      .cls-66 {
        fill: url(#linear-gradient-3);
      }

      .cls-67 {
        fill: #cecece;
      }

      .cls-68 {
        fill: url(#linear-gradient);
      }

      .cls-69 {
        fill: #f3f3f3;
      }

      .cls-70 {
        stroke: #9d9d9c;
        stroke-miterlimit: 10;
        stroke-width: .03px;
      }

      .cls-70, .cls-71 {
        fill: #ededed;
      }

      .cls-72 {
        fill: #acacac;
      }

      .cls-73 {
        fill: #b5b5b5;
      }

      .cls-74 {
        fill: #d9d9d9;
      }

      .cls-75 {
        fill: #cdcdcd;
      }

      .cls-76 {
        fill: #f8f8f8;
      }

      .cls-77 {
        fill: #d2d2d2;
      }

      .cls-78 {
        fill: #c6c6c6;
      }

      .cls-79 {
        fill: #eee;
      }

      .cls-80 {
        fill: #d0d0d0;
      }

      .cls-81 {
        fill: url(#linear-gradient-4);
      }

      .cls-82 {
        fill: #ececec;
      }

      .cls-83 {
        fill: #f2f2f2;
      }

      .cls-84 {
        fill: #fefefe;
      }

      .cls-85 {
        fill: #e3e3e3;
      }

      .cls-86 {
        fill: #fcfcfc;
      }

      .cls-87 {
        fill: #dfdfdf;
      }
    </style>
    <linearGradient id="linear-gradient" x1="616.57" y1="244.18" x2="77.82" y2="244.18" gradientUnits="userSpaceOnUse">
      <stop offset="0" stop-color="#c7c7c7"/>
      <stop offset="1" stop-color="#b3b3b3"/>
    </linearGradient>
    <linearGradient id="linear-gradient-2" x1="125.5" y1="131.07" x2="299.95" y2="131.07" gradientUnits="userSpaceOnUse">
      <stop offset="0" stop-color="#fff"/>
      <stop offset="1" stop-color="#d6d6d6"/>
    </linearGradient>
    <linearGradient id="linear-gradient-3" x1="295.01" y1="-69.87" x2="373.37" y2="-69.87" gradientTransform="translate(-86.13 194.4) rotate(-17.62)" gradientUnits="userSpaceOnUse">
      <stop offset="0" stop-color="#bfbfbe"/>
      <stop offset=".57" stop-color="#fff"/>
      <stop offset="1" stop-color="#c9c9c8"/>
    </linearGradient>
    <linearGradient id="linear-gradient-4" x1="337.26" y1="24.15" x2="337.26" y2="-73.52" xlink:href="#linear-gradient-3"/>
    <linearGradient id="linear-gradient-5" x1="394.45" x2="568.89" xlink:href="#linear-gradient-2"/>
    <linearGradient id="linear-gradient-6" x1="427.49" y1="937.16" x2="501.09" y2="937.16" gradientTransform="translate(719.78 -991.52) rotate(39.2)" xlink:href="#linear-gradient-3"/>
    <linearGradient id="linear-gradient-7" x1="458.95" y1="1038.18" x2="458.95" y2="933.18" gradientTransform="translate(719.78 -991.52) rotate(39.2)" xlink:href="#linear-gradient-3"/>
  </defs>
  <g class="cls-21">
    <g id="Layer_1" data-name="Layer 1">
      <g class="cls-12">
        <path class="cls-6" d="m537.88,248.56V25.37h-148.84c-.08-2.46-1.25-4.86-3.64-6.53-4.39-3.06-10.85-2.49-14.44,1.27-1.48,1.55-2.08,3.41-2.14,5.26H.88v223.19h-.88v24.98h538.77v-24.98h-.89Z"/>
        <path class="cls-84" d="m539.22,248.27V25.08h-148.84c-.08-2.46-1.25-4.86-3.64-6.53-4.39-3.06-10.85-2.49-14.44,1.27-1.48,1.55-2.08,3.41-2.14,5.26H2.22v223.19h-.88v24.98h538.77v-24.98h-.89Z"/>
        <path class="cls-41" d="m540.56,247.98V24.79h-148.84c-.08-2.46-1.25-4.86-3.64-6.53-4.39-3.06-10.85-2.49-14.44,1.27-1.48,1.55-2.08,3.41-2.14,5.26H3.56v223.19h-.88v24.98h538.77v-24.98h-.89Z"/>
        <path class="cls-86" d="m541.9,247.69V24.5h-148.84c-.08-2.46-1.25-4.86-3.64-6.53-4.39-3.06-10.85-2.49-14.44,1.27-1.48,1.55-2.08,3.41-2.14,5.26H4.91v223.19h-.88v24.98h538.77v-24.98h-.89Z"/>
        <path class="cls-44" d="m543.24,247.4V24.21h-148.84c-.08-2.46-1.25-4.86-3.64-6.53-4.39-3.06-10.85-2.49-14.44,1.27-1.48,1.55-2.08,3.41-2.14,5.26H6.25v223.19h-.88v24.98h538.77v-24.98h-.89Z"/>
        <path class="cls-9" d="m544.59,247.11V23.92h-148.84c-.08-2.46-1.25-4.86-3.64-6.53-4.39-3.06-10.85-2.49-14.44,1.27-1.48,1.55-2.08,3.41-2.14,5.26H7.59v223.19h-.88v24.98h538.76v-24.98h-.89Z"/>
        <path class="cls-47" d="m545.93,246.82V23.63h-148.84c-.08-2.46-1.25-4.86-3.64-6.53-4.39-3.06-10.85-2.49-14.44,1.27-1.48,1.55-2.08,3.41-2.14,5.26H8.93v223.19h-.88v24.98h538.76v-24.98h-.89Z"/>
        <path class="cls-76" d="m547.27,246.53V23.34h-148.84c-.08-2.46-1.25-4.86-3.64-6.53-4.39-3.06-10.85-2.49-14.44,1.27-1.48,1.55-2.08,3.41-2.14,5.26H10.27v223.19h-.88v24.98h538.76v-24.98h-.89Z"/>
        <path class="cls-62" d="m548.61,246.24V23.04h-148.84c-.08-2.46-1.25-4.86-3.64-6.53-4.39-3.06-10.85-2.49-14.44,1.27-1.48,1.55-2.08,3.41-2.14,5.26H11.61v223.19h-.88v24.98h538.76v-24.98h-.89Z"/>
        <path class="cls-15" d="m549.95,245.94V22.75h-148.84c-.08-2.46-1.25-4.86-3.64-6.53-4.39-3.06-10.85-2.49-14.44,1.27-1.48,1.55-2.08,3.41-2.14,5.26H12.96v223.19h-.88v24.98h538.76v-24.98h-.89Z"/>
        <path class="cls-18" d="m551.29,245.65V22.46h-148.84c-.08-2.46-1.25-4.86-3.64-6.53-4.39-3.06-10.85-2.49-14.44,1.27-1.48,1.55-2.08,3.41-2.14,5.26H14.3v223.19h-.88v24.98h538.76v-24.98h-.89Z"/>
        <path class="cls-5" d="m552.64,245.36V22.17h-148.84c-.08-2.46-1.25-4.86-3.64-6.53-4.39-3.06-10.85-2.49-14.44,1.27-1.48,1.55-2.08,3.41-2.14,5.26H15.64v223.19h-.88v24.98h538.76v-24.98h-.89Z"/>
        <path class="cls-69" d="m553.98,245.07V21.88h-148.84c-.08-2.46-1.25-4.86-3.64-6.53-4.39-3.06-10.85-2.49-14.44,1.27-1.48,1.55-2.07,3.41-2.14,5.26H16.98v223.19h-.88v24.98h538.76v-24.98h-.89Z"/>
        <path class="cls-83" d="m555.32,244.78V21.59h-148.84c-.08-2.46-1.25-4.86-3.64-6.53-4.39-3.06-10.85-2.49-14.44,1.27-1.48,1.55-2.07,3.41-2.14,5.26H18.32v223.19h-.88v24.98h538.76v-24.98h-.89Z"/>
        <path class="cls-65" d="m556.66,244.49V21.3h-148.84c-.08-2.46-1.25-4.86-3.64-6.53-4.39-3.06-10.85-2.49-14.44,1.27-1.48,1.55-2.07,3.41-2.14,5.26H19.67v223.19h-.88v24.98h538.76v-24.98h-.89Z"/>
        <path class="cls-4" d="m558,244.2V21.01h-148.84c-.08-2.46-1.24-4.86-3.64-6.53-4.39-3.06-10.85-2.49-14.44,1.27-1.48,1.55-2.07,3.41-2.14,5.26H21.01v223.19h-.88v24.98h538.76v-24.98h-.89Z"/>
        <path class="cls-63" d="m559.34,243.91V20.72h-148.84c-.08-2.46-1.24-4.86-3.64-6.53-4.39-3.06-10.85-2.49-14.44,1.27-1.48,1.55-2.07,3.41-2.14,5.26H22.35v223.19h-.88v24.98h538.76v-24.98h-.89Z"/>
        <path class="cls-79" d="m560.69,243.62V20.43h-148.84c-.08-2.46-1.24-4.86-3.64-6.53-4.39-3.06-10.85-2.49-14.44,1.27-1.48,1.55-2.07,3.41-2.14,5.26H23.69v223.19h-.88v24.98h538.76v-24.98h-.89Z"/>
        <path class="cls-71" d="m562.03,243.33V20.13h-148.84c-.08-2.46-1.24-4.86-3.64-6.53-4.39-3.06-10.85-2.49-14.44,1.27-1.48,1.55-2.07,3.41-2.14,5.26H25.03v223.19h-.88v24.98h538.76v-24.98h-.89Z"/>
        <path class="cls-82" d="m563.37,243.04V19.84h-148.84c-.08-2.46-1.24-4.86-3.64-6.53-4.39-3.06-10.85-2.49-14.44,1.27-1.48,1.55-2.07,3.41-2.14,5.26H26.37v223.19h-.88v24.98h538.76v-24.98h-.89Z"/>
        <path class="cls-55" d="m564.71,242.75V19.55h-148.84c-.08-2.46-1.24-4.86-3.64-6.53-4.39-3.06-10.85-2.49-14.44,1.27-1.48,1.55-2.07,3.41-2.14,5.26H27.72v223.19h-.88v24.98h538.76v-24.98h-.89Z"/>
        <path class="cls-39" d="m566.05,242.45V19.26h-148.84c-.08-2.46-1.24-4.86-3.64-6.53-4.39-3.06-10.85-2.49-14.44,1.27-1.48,1.55-2.07,3.41-2.14,5.26H29.06v223.19h-.88v24.98h538.76v-24.98h-.89Z"/>
        <path class="cls-2" d="m567.39,242.16V18.97h-148.84c-.08-2.46-1.24-4.86-3.64-6.53-4.39-3.06-10.85-2.49-14.44,1.27-1.48,1.55-2.07,3.41-2.14,5.26H30.4v223.19h-.88v24.98h538.76v-24.98h-.89Z"/>
        <path class="cls-59" d="m568.74,241.87V18.68h-148.84c-.08-2.46-1.24-4.86-3.64-6.53-4.39-3.06-10.85-2.49-14.44,1.27-1.48,1.55-2.07,3.41-2.14,5.26H31.74v223.19h-.88v24.98h538.76v-24.98h-.89Z"/>
        <path class="cls-36" d="m570.08,241.58V18.39h-148.84c-.08-2.46-1.24-4.86-3.64-6.53-4.39-3.06-10.85-2.49-14.44,1.27-1.48,1.55-2.07,3.41-2.14,5.26H33.08v223.19h-.88v24.98h538.76v-24.98h-.89Z"/>
        <path class="cls-35" d="m571.42,241.29V18.1h-148.84c-.08-2.46-1.24-4.86-3.64-6.53-4.39-3.06-10.85-2.49-14.44,1.27-1.48,1.55-2.07,3.41-2.14,5.26H34.42v223.19h-.88v24.98h538.76v-24.98h-.89Z"/>
        <path class="cls-50" d="m572.76,241V17.81h-148.84c-.08-2.46-1.24-4.86-3.64-6.53-4.39-3.05-10.85-2.49-14.44,1.27-1.48,1.55-2.07,3.41-2.14,5.26H35.77v223.19h-.88v24.98h538.76v-24.98h-.89Z"/>
        <path class="cls-43" d="m574.1,240.71V17.52h-148.84c-.08-2.46-1.24-4.86-3.64-6.53-4.39-3.05-10.85-2.49-14.44,1.27-1.48,1.55-2.07,3.41-2.14,5.26H37.11v223.19h-.88v24.98h538.76v-24.98h-.89Z"/>
        <path class="cls-85" d="m575.44,240.42V17.22h-148.84c-.08-2.46-1.24-4.86-3.64-6.53-4.39-3.05-10.85-2.49-14.44,1.27-1.48,1.55-2.07,3.41-2.14,5.26H38.45v223.19h-.88v24.98h538.76v-24.98h-.89Z"/>
        <path class="cls-17" d="m576.79,240.13V16.93h-148.84c-.08-2.46-1.24-4.86-3.64-6.53-4.39-3.05-10.85-2.49-14.44,1.27-1.48,1.55-2.07,3.41-2.14,5.26H39.79v223.19h-.88v24.98h538.76v-24.98h-.89Z"/>
        <path class="cls-17" d="m578.13,239.84V16.64h-148.84c-.08-2.46-1.24-4.86-3.64-6.53-4.39-3.05-10.85-2.49-14.44,1.27-1.48,1.55-2.07,3.41-2.14,5.26H41.13v223.19h-.88v24.98h538.76v-24.98h-.89Z"/>
        <path class="cls-34" d="m579.47,239.55V16.35h-148.84c-.08-2.46-1.24-4.86-3.64-6.53-4.39-3.05-10.85-2.49-14.44,1.27-1.48,1.55-2.07,3.41-2.14,5.26H42.47v223.19h-.88v24.98h538.76v-24.98h-.88Z"/>
        <path class="cls-27" d="m580.81,239.25V16.06h-148.84c-.08-2.45-1.24-4.86-3.64-6.53-4.39-3.05-10.85-2.49-14.44,1.27-1.48,1.55-2.07,3.41-2.14,5.26H43.82v223.19h-.88v24.98h538.76v-24.98h-.88Z"/>
        <path class="cls-87" d="m582.15,238.96V15.77h-148.84c-.08-2.45-1.24-4.86-3.64-6.53-4.39-3.05-10.85-2.49-14.44,1.27-1.48,1.55-2.07,3.41-2.14,5.26H45.16v223.19h-.88v24.98h538.76v-24.98h-.88Z"/>
        <path class="cls-29" d="m583.49,238.67V15.48h-148.84c-.08-2.45-1.24-4.86-3.64-6.53-4.39-3.05-10.85-2.49-14.44,1.27-1.48,1.55-2.07,3.41-2.14,5.26H46.5v223.19h-.88v24.98h538.76v-24.98h-.88Z"/>
        <path class="cls-1" d="m584.84,238.38V15.19h-148.84c-.08-2.45-1.24-4.86-3.64-6.53-4.39-3.05-10.85-2.49-14.44,1.27-1.48,1.55-2.07,3.41-2.14,5.26H47.84v223.19h-.88v24.98h538.76v-24.98h-.88Z"/>
        <path class="cls-57" d="m586.18,238.09V14.9h-148.84c-.08-2.45-1.24-4.86-3.64-6.53-4.39-3.05-10.85-2.49-14.44,1.27-1.48,1.55-2.07,3.41-2.14,5.26H49.18v223.19h-.88v24.98h538.76v-24.98h-.88Z"/>
        <path class="cls-10" d="m587.52,237.8V14.61h-148.84c-.08-2.45-1.24-4.86-3.64-6.53-4.39-3.05-10.85-2.49-14.44,1.27-1.48,1.55-2.07,3.41-2.14,5.26H50.52v223.19h-.88v24.98h538.76v-24.98h-.88Z"/>
        <path class="cls-38" d="m588.86,237.51V14.31h-148.84c-.08-2.45-1.24-4.86-3.64-6.53-4.39-3.05-10.85-2.49-14.44,1.27-1.48,1.55-2.07,3.41-2.14,5.26H51.87v223.19h-.88v24.98h538.76v-24.98h-.88Z"/>
        <path class="cls-74" d="m590.2,237.22V14.02h-148.84c-.08-2.45-1.24-4.86-3.64-6.53-4.39-3.05-10.85-2.49-14.44,1.27-1.48,1.55-2.07,3.41-2.14,5.26H53.21v223.19h-.88v24.98h538.76v-24.98h-.88Z"/>
        <path class="cls-14" d="m591.54,236.93V13.73h-148.84c-.08-2.45-1.24-4.86-3.64-6.53-4.39-3.05-10.85-2.49-14.44,1.27-1.48,1.55-2.07,3.41-2.14,5.26H54.55v223.19h-.88v24.98h538.76v-24.98h-.88Z"/>
        <path class="cls-32" d="m592.89,236.64V13.44h-148.84c-.08-2.45-1.24-4.86-3.64-6.53-4.39-3.05-10.85-2.49-14.44,1.27-1.48,1.55-2.07,3.41-2.14,5.26H55.89v223.19h-.88v24.98h538.76v-24.98h-.88Z"/>
        <path class="cls-23" d="m594.23,236.35V13.15h-148.84c-.08-2.45-1.24-4.86-3.64-6.53-4.39-3.05-10.85-2.49-14.44,1.27-1.48,1.55-2.07,3.41-2.14,5.26H57.23v223.19h-.88v24.98h538.76v-24.98h-.88Z"/>
        <path class="cls-56" d="m595.57,236.06V12.86h-148.84c-.08-2.45-1.24-4.86-3.64-6.53-4.39-3.05-10.85-2.49-14.44,1.27-1.48,1.55-2.07,3.41-2.14,5.26H58.57v223.2h-.88v24.98h538.76v-24.98h-.88Z"/>
        <path class="cls-37" d="m596.91,235.76V12.57h-148.84c-.08-2.45-1.24-4.86-3.64-6.53-4.39-3.05-10.85-2.49-14.44,1.27-1.48,1.55-2.07,3.41-2.14,5.26H59.92v223.2h-.88v24.98h538.76v-24.98h-.88Z"/>
        <path class="cls-54" d="m598.25,235.47V12.28h-148.84c-.08-2.45-1.24-4.86-3.64-6.53-4.39-3.05-10.85-2.49-14.44,1.27-1.48,1.55-2.07,3.41-2.14,5.26H61.26v223.2h-.88v24.98h538.76v-24.98h-.88Z"/>
        <path class="cls-77" d="m599.59,235.18V11.99h-148.84c-.08-2.45-1.24-4.86-3.64-6.53-4.39-3.05-10.85-2.49-14.44,1.27-1.48,1.55-2.07,3.41-2.14,5.26H62.6v223.2h-.88v24.98h538.76v-24.98h-.88Z"/>
        <path class="cls-8" d="m600.94,234.89V11.7h-148.84c-.08-2.45-1.24-4.86-3.64-6.53-4.39-3.05-10.85-2.49-14.44,1.27-1.48,1.55-2.07,3.41-2.14,5.26H63.94v223.2h-.88v24.98h538.76v-24.98h-.88Z"/>
        <path class="cls-80" d="m602.28,234.6V11.41h-148.84c-.08-2.45-1.24-4.86-3.64-6.53-4.39-3.05-10.85-2.49-14.44,1.27-1.48,1.55-2.07,3.41-2.14,5.26H65.28v223.2h-.88v24.98h538.76v-24.98h-.88Z"/>
        <path class="cls-31" d="m603.62,234.31V11.11h-148.84c-.08-2.45-1.24-4.86-3.64-6.53-4.39-3.05-10.85-2.49-14.44,1.27-1.48,1.55-2.07,3.41-2.14,5.26H66.62v223.2h-.88v24.98h538.76v-24.98h-.88Z"/>
        <path class="cls-67" d="m604.96,234.02V10.82h-148.84c-.08-2.45-1.24-4.86-3.64-6.53-4.39-3.05-10.85-2.49-14.44,1.27-1.48,1.55-2.07,3.41-2.14,5.26H67.97v223.2h-.88v24.98h538.76v-24.98h-.88Z"/>
        <path class="cls-75" d="m606.3,233.73V10.53h-148.84c-.08-2.45-1.24-4.86-3.64-6.53-4.39-3.05-10.85-2.49-14.44,1.27-1.48,1.55-2.07,3.41-2.14,5.26H69.31v223.2h-.88v24.98h538.76v-24.98h-.88Z"/>
        <path class="cls-61" d="m607.64,233.44V10.24h-148.84c-.08-2.45-1.24-4.86-3.64-6.53-4.39-3.05-10.85-2.49-14.44,1.27-1.48,1.55-2.07,3.41-2.14,5.26H70.65v223.2h-.88v24.98h538.76v-24.98h-.88Z"/>
        <path class="cls-7" d="m608.99,233.15V9.95h-148.84c-.08-2.45-1.24-4.86-3.64-6.53-4.39-3.05-10.85-2.49-14.44,1.27-1.48,1.55-2.07,3.41-2.14,5.26H71.99v223.2h-.88v24.98h538.76v-24.98h-.88Z"/>
        <path class="cls-13" d="m610.33,232.86V9.66h-148.84c-.08-2.45-1.24-4.86-3.64-6.53-4.39-3.05-10.85-2.49-14.44,1.27-1.48,1.55-2.07,3.41-2.14,5.26H73.33v223.2h-.88v24.98h538.76v-24.98h-.88Z"/>
        <path class="cls-25" d="m611.67,232.56V9.37h-148.84c-.08-2.45-1.24-4.86-3.64-6.53-4.39-3.05-10.85-2.49-14.44,1.27-1.48,1.55-2.07,3.41-2.14,5.26H74.67v223.2h-.88v24.98h538.76v-24.98h-.88Z"/>
        <path class="cls-40" d="m613.01,232.27V9.08h-148.84c-.08-2.45-1.24-4.86-3.64-6.53-4.39-3.05-10.85-2.49-14.44,1.27-1.48,1.55-2.07,3.41-2.14,5.26H76.02v223.2h-.88v24.98h538.76v-24.98h-.88Z"/>
        <path class="cls-28" d="m614.35,231.98V8.79h-148.85c-.08-2.45-1.24-4.86-3.64-6.53-4.39-3.05-10.85-2.49-14.44,1.27-1.47,1.55-2.07,3.41-2.14,5.26H77.36v223.2h-.88v24.98h538.76v-24.98h-.88Z"/>
        <path class="cls-78" d="m615.69,231.69V8.5h-148.85c-.08-2.45-1.24-4.86-3.64-6.53-4.39-3.05-10.85-2.49-14.44,1.27-1.47,1.55-2.07,3.41-2.14,5.26H78.7v223.2h-.88v24.98h538.76v-24.98h-.88Z"/>
      </g>
      <g>
        <rect class="cls-68" x="77.82" y="231.69" width="538.76" height="24.98"/>
        <rect class="cls-48" x="344.4" y="231.69" width="5.2" height="24.98"/>
        <path class="cls-48" d="m372.3,242.04c0-3.13,7.56-5.69,16.87-5.69s16.92,2.55,16.92,5.69-7.56,5.69-16.92,5.69-16.87-2.55-16.87-5.69Z"/>
        <path class="cls-48" d="m293.34,242.04c0-3.13,7.56-5.69,16.89-5.69s16.92,2.55,16.92,5.69-7.57,5.69-16.92,5.69-16.89-2.55-16.89-5.69Z"/>
        <rect class="cls-70" x="78.7" y="7.98" width="268.05" height="223"/>
        <g>
          <path class="cls-78" d="m323.72,194.87c0,14.18-14.26,25.68-31.85,25.68h-158.29c-17.59,0-31.85-11.5-31.85-25.68v-127.59c0-14.18,14.27-25.68,31.85-25.68h158.29c17.6,0,31.85,11.5,31.85,25.68v127.59Z"/>
          <path class="cls-13" d="m321.56,193.62c0,13.9-13.98,25.18-31.23,25.18h-155.21c-17.25,0-31.23-11.27-31.23-25.18v-125.11c0-13.9,13.99-25.18,31.23-25.18h155.21c17.25,0,31.23,11.27,31.23,25.18v125.11Z"/>
          <path class="cls-75" d="m319.4,192.38c0,13.63-13.7,24.68-30.61,24.68h-152.12c-16.9,0-30.61-11.05-30.61-24.68v-122.62c0-13.63,13.71-24.68,30.61-24.68h152.12c16.91,0,30.61,11.05,30.61,24.68v122.62Z"/>
          <path class="cls-8" d="m317.24,191.14c0,13.35-13.42,24.18-29.99,24.18h-149.04c-16.56,0-29.99-10.82-29.99-24.18v-120.14c0-13.35,13.43-24.18,29.99-24.18h149.04c16.57,0,29.99,10.83,29.99,24.18v120.14Z"/>
          <path class="cls-37" d="m315.08,189.9c0,13.08-13.15,23.68-29.37,23.68h-145.96c-16.22,0-29.37-10.6-29.37-23.68v-117.65c0-13.08,13.15-23.68,29.37-23.68h145.96c16.22,0,29.37,10.6,29.37,23.68v117.65Z"/>
          <path class="cls-14" d="m312.92,188.66c0,12.8-12.87,23.18-28.75,23.18h-142.88c-15.88,0-28.75-10.38-28.75-23.18v-115.17c0-12.8,12.87-23.18,28.75-23.18h142.88c15.88,0,28.75,10.38,28.75,23.18v115.17Z"/>
          <path class="cls-10" d="m310.75,187.41c0,12.52-12.59,22.68-28.13,22.68h-139.8c-15.53,0-28.13-10.15-28.13-22.68v-112.69c0-12.52,12.6-22.68,28.13-22.68h139.8c15.54,0,28.13,10.16,28.13,22.68v112.69Z"/>
          <path class="cls-87" d="m308.59,186.17c0,12.25-12.31,22.17-27.51,22.17h-136.71c-15.19,0-27.51-9.93-27.51-22.17v-110.2c0-12.25,12.32-22.18,27.51-22.18h136.71c15.2,0,27.51,9.93,27.51,22.18v110.2Z"/>
          <path class="cls-17" d="m306.43,184.93c0,11.97-12.04,21.67-26.89,21.67h-133.63c-14.85,0-26.89-9.7-26.89-21.67v-107.72c0-11.97,12.04-21.68,26.89-21.68h133.63c14.85,0,26.89,9.71,26.89,21.68v107.72Z"/>
          <path class="cls-35" d="m304.27,183.69c0,11.69-11.76,21.17-26.27,21.17h-130.55c-14.51,0-26.27-9.48-26.27-21.17v-105.23c0-11.69,11.76-21.18,26.27-21.18h130.55c14.51,0,26.27,9.48,26.27,21.18v105.23Z"/>
          <path class="cls-2" d="m302.11,182.45c0,11.42-11.48,20.67-25.65,20.67h-127.47c-14.17,0-25.65-9.26-25.65-20.67v-102.75c0-11.42,11.48-20.68,25.65-20.68h127.47c14.17,0,25.65,9.26,25.65,20.68v102.75Z"/>
          <path class="cls-71" d="m299.95,181.2c0,11.14-11.21,20.17-25.03,20.17h-124.38c-13.82,0-25.03-9.03-25.03-20.17v-100.26c0-11.14,11.21-20.18,25.03-20.18h124.38c13.82,0,25.03,9.04,25.03,20.18v100.26Z"/>
        </g>
        <path class="cls-3" d="m299.95,181.2c0,11.14-11.21,20.17-25.03,20.17h-124.38c-13.82,0-25.03-9.03-25.03-20.17v-100.26c0-11.14,11.21-20.18,25.03-20.18h124.38c13.82,0,25.03,9.04,25.03,20.18v100.26Z"/>
        <g>
          <g>
            <ellipse class="cls-71" cx="212.73" cy="96.44" rx="18.82" ry="15.17"/>
            <path class="cls-43" d="m231.03,96.44c0,8.15-8.2,14.76-18.3,14.76s-18.3-6.61-18.3-14.76,8.2-14.75,18.3-14.75,18.3,6.61,18.3,14.75Z"/>
            <path class="cls-38" d="m230.52,96.44c0,7.92-7.97,14.34-17.79,14.34s-17.79-6.42-17.79-14.34,7.97-14.34,17.79-14.34,17.79,6.42,17.79,14.34Z"/>
            <path class="cls-8" d="m230.01,96.44c0,7.69-7.74,13.93-17.28,13.93s-17.28-6.24-17.28-13.93,7.74-13.93,17.28-13.93,17.28,6.24,17.28,13.93Z"/>
            <path class="cls-40" d="m229.5,96.44c0,7.47-7.51,13.52-16.77,13.52s-16.77-6.05-16.77-13.52,7.51-13.52,16.77-13.52,16.77,6.05,16.77,13.52Z"/>
            <path class="cls-16" d="m228.98,96.44c0,7.24-7.28,13.11-16.25,13.11s-16.26-5.87-16.26-13.11,7.28-13.1,16.26-13.1,16.25,5.87,16.25,13.1Z"/>
            <path class="cls-73" d="m228.47,96.44c0,7.01-7.05,12.69-15.74,12.69s-15.75-5.68-15.75-12.69,7.05-12.69,15.75-12.69,15.74,5.68,15.74,12.69Z"/>
            <path class="cls-72" d="m227.96,96.44c0,6.78-6.82,12.28-15.23,12.28s-15.24-5.5-15.24-12.28,6.82-12.28,15.24-12.28,15.23,5.5,15.23,12.28Z"/>
            <path class="cls-45" d="m227.45,96.44c0,6.55-6.59,11.87-14.72,11.87s-14.72-5.31-14.72-11.87,6.59-11.86,14.72-11.86,14.72,5.31,14.72,11.86Z"/>
            <path class="cls-64" d="m226.93,96.44c0,6.33-6.36,11.46-14.2,11.46s-14.21-5.13-14.21-11.46,6.36-11.45,14.21-11.45,14.2,5.13,14.2,11.45Z"/>
            <path class="cls-24" d="m226.42,96.44c0,6.1-6.13,11.04-13.69,11.04s-13.7-4.95-13.7-11.04,6.13-11.04,13.7-11.04,13.69,4.95,13.69,11.04Z"/>
            <path class="cls-53" d="m225.91,96.44c0,5.87-5.9,10.63-13.18,10.63s-13.19-4.76-13.19-10.63,5.9-10.62,13.19-10.62,13.18,4.76,13.18,10.62Z"/>
          </g>
          <g>
            <path class="cls-71" d="m228.72,96.44c0,7.12-7.16,12.9-15.99,12.9s-16-5.78-16-12.9,7.16-12.89,16-12.89,15.99,5.78,15.99,12.89Z"/>
            <path class="cls-43" d="m228.29,96.44c0,6.93-6.97,12.55-15.56,12.55s-15.57-5.62-15.57-12.55,6.97-12.54,15.57-12.54,15.56,5.62,15.56,12.54Z"/>
            <path class="cls-38" d="m227.85,96.44c0,6.74-6.77,12.2-15.12,12.2s-15.13-5.46-15.13-12.2,6.77-12.19,15.13-12.19,15.12,5.46,15.12,12.19Z"/>
            <path class="cls-8" d="m227.42,96.44c0,6.54-6.58,11.85-14.69,11.85s-14.7-5.3-14.7-11.85,6.58-11.84,14.7-11.84,14.69,5.3,14.69,11.84Z"/>
            <path class="cls-40" d="m226.98,96.44c0,6.35-6.38,11.5-14.25,11.5s-14.26-5.15-14.26-11.5,6.38-11.49,14.26-11.49,14.25,5.15,14.25,11.49Z"/>
            <path class="cls-16" d="m226.55,96.44c0,6.16-6.19,11.14-13.82,11.14s-13.83-4.99-13.83-11.14,6.19-11.14,13.83-11.14,13.82,4.99,13.82,11.14Z"/>
            <path class="cls-73" d="m226.11,96.44c0,5.96-5.99,10.79-13.38,10.79s-13.39-4.83-13.39-10.79,5.99-10.79,13.39-10.79,13.38,4.83,13.38,10.79Z"/>
            <path class="cls-72" d="m225.68,96.44c0,5.77-5.8,10.44-12.95,10.44s-12.96-4.67-12.96-10.44,5.8-10.44,12.96-10.44,12.95,4.67,12.95,10.44Z"/>
            <path class="cls-45" d="m225.24,96.44c0,5.57-5.6,10.09-12.51,10.09s-12.52-4.52-12.52-10.09,5.6-10.08,12.52-10.08,12.51,4.52,12.51,10.08Z"/>
            <path class="cls-64" d="m224.81,96.44c0,5.38-5.41,9.74-12.08,9.74s-12.08-4.36-12.08-9.74,5.41-9.73,12.08-9.73,12.08,4.36,12.08,9.73Z"/>
            <path class="cls-24" d="m224.37,96.44c0,5.19-5.21,9.39-11.64,9.39s-11.65-4.2-11.65-9.39,5.21-9.38,11.65-9.38,11.64,4.2,11.64,9.38Z"/>
            <path class="cls-53" d="m223.93,96.44c0,4.99-5.02,9.04-11.21,9.04s-11.21-4.05-11.21-9.04,5.02-9.03,11.21-9.03,11.21,4.05,11.21,9.03Z"/>
          </g>
          <g>
            <rect class="cls-71" x="211.2" y="83.54" width="3.07" height="25.79"/>
            <rect class="cls-71" x="196.73" y="95.2" width="32" height="2.47"/>
          </g>
        </g>
        <g>
          <g>
            <path class="cls-20" d="m252,16.55c.89,2.25-.65,4.64-3.44,5.36l-71.17,18.22c-2.79.72-5.76-.52-6.65-2.77l-.24-.62c-.89-2.25.65-4.64,3.44-5.36l71.17-18.22c2.79-.72,5.76.53,6.65,2.78l.24.61Z"/>
            <path class="cls-66" d="m249.33,17.14c.64,1.62-.47,3.36-2.48,3.88l-68.7,17.59c-2.02.52-4.17-.38-4.81-2.01l-.18-.44c-.64-1.63.48-3.36,2.49-3.88l68.7-17.59c2.02-.52,4.17.38,4.81,2.01l.17.45Z"/>
          </g>
          <g>
            <path class="cls-33" d="m222.87,23.67c2.03,5.18-1.51,10.7-7.93,12.34-6.42,1.65-13.27-1.22-15.31-6.39-2.04-5.18,1.51-10.7,7.93-12.34,6.42-1.64,13.26,1.22,15.31,6.39Z"/>
            <path class="cls-42" d="m222.45,23.78c1.96,4.99-1.45,10.31-7.65,11.9-6.18,1.59-12.79-1.18-14.75-6.16-1.97-4.99,1.45-10.31,7.65-11.9,6.18-1.58,12.79,1.18,14.75,6.16Z"/>
            <path class="cls-26" d="m222.03,23.89c1.89,4.8-1.4,9.93-7.36,11.45-5.95,1.53-12.31-1.13-14.2-5.93-1.89-4.8,1.4-9.93,7.36-11.45,5.95-1.52,12.31,1.13,14.2,5.93Z"/>
            <path class="cls-30" d="m221.61,23.99c1.81,4.62-1.35,9.54-7.07,11-5.72,1.47-11.83-1.09-13.65-5.7-1.82-4.61,1.34-9.54,7.07-11,5.72-1.46,11.83,1.09,13.65,5.7Z"/>
            <path class="cls-46" d="m221.19,24.1c1.74,4.43-1.29,9.15-6.79,10.56-5.49,1.41-11.35-1.04-13.09-5.47-1.75-4.43,1.29-9.15,6.79-10.56,5.49-1.4,11.35,1.04,13.09,5.47Z"/>
            <path class="cls-58" d="m220.77,24.21c1.67,4.24-1.24,8.76-6.5,10.11-5.26,1.35-10.87-1-12.54-5.24-1.67-4.24,1.24-8.76,6.5-10.11,5.26-1.34,10.87,1,12.54,5.24Z"/>
            <path class="cls-22" d="m220.35,24.32c1.59,4.05-1.19,8.38-6.21,9.67-5.02,1.29-10.39-.96-11.99-5.01-1.6-4.05,1.18-8.38,6.21-9.67,5.02-1.28,10.39.96,11.99,5.01Z"/>
            <path class="cls-80" d="m219.93,24.42c1.52,3.87-1.13,7.99-5.93,9.22-4.79,1.23-9.91-.91-11.43-4.78-1.52-3.86,1.13-7.99,5.93-9.22,4.79-1.23,9.91.91,11.44,4.78Z"/>
            <path class="cls-32" d="m219.51,24.53c1.45,3.68-1.08,7.6-5.64,8.77-4.56,1.17-9.43-.87-10.88-4.55-1.45-3.68,1.07-7.6,5.64-8.77,4.56-1.17,9.43.87,10.88,4.55Z"/>
            <path class="cls-29" d="m219.09,24.64c1.37,3.49-1.02,7.22-5.35,8.33-4.33,1.11-8.95-.82-10.33-4.32-1.38-3.49,1.02-7.22,5.35-8.33,4.33-1.11,8.95.82,10.33,4.32Z"/>
            <path class="cls-35" d="m218.67,24.75c1.3,3.31-.97,6.83-5.07,7.88-4.1,1.05-8.47-.78-9.78-4.09-1.3-3.3.96-6.83,5.07-7.88,4.1-1.05,8.47.78,9.78,4.09Z"/>
            <path class="cls-71" d="m218.25,24.85c1.23,3.12-.92,6.44-4.78,7.44-3.86.99-7.99-.74-9.22-3.85-1.23-3.11.91-6.44,4.78-7.44,3.87-.99,7.99.74,9.22,3.85Z"/>
          </g>
          <g>
            <path class="cls-20" d="m252.19,111.11c.88,2.25-.65,4.64-3.44,5.36l-3.83.98c-2.79.72-5.76-.53-6.65-2.78l-34.29-87.03c-.89-2.25.65-4.64,3.44-5.36l3.83-.98c2.79-.72,5.76.53,6.65,2.78l34.29,87.03Z"/>
            <path class="cls-81" d="m249.35,110.32c.59,1.51-.44,3.11-2.31,3.6l-2.57.65c-1.87.48-3.87-.35-4.46-1.86l-33.67-85.47c-.59-1.51.44-3.11,2.31-3.6l2.57-.65c1.86-.48,3.87.35,4.46,1.86l33.67,85.47Z"/>
          </g>
          <g>
            <g>
              <g>
                <path class="cls-33" d="m183.57,33.73c1.71,4.35-1.27,8.98-6.66,10.37-5.38,1.38-11.14-1.03-12.85-5.37-1.71-4.35,1.27-8.98,6.65-10.37,5.39-1.38,11.15,1.03,12.86,5.37Z"/>
                <path class="cls-42" d="m183.23,33.82c1.65,4.19-1.23,8.67-6.43,10.01-5.2,1.33-10.75-.99-12.4-5.18-1.65-4.19,1.23-8.67,6.42-10.01,5.2-1.33,10.76.99,12.41,5.18Z"/>
                <path class="cls-26" d="m182.9,33.9c1.59,4.04-1.18,8.36-6.2,9.65-5.01,1.28-10.37-.96-11.96-5-1.59-4.04,1.18-8.36,6.19-9.65,5.02-1.28,10.37.96,11.97,5Z"/>
                <path class="cls-30" d="m182.56,33.99c1.53,3.89-1.14,8.05-5.97,9.29-4.82,1.23-9.98-.92-11.52-4.81-1.53-3.89,1.14-8.05,5.96-9.29,4.83-1.23,9.99.92,11.52,4.81Z"/>
                <path class="cls-46" d="m182.22,34.08c1.47,3.74-1.09,7.74-5.74,8.93-4.64,1.19-9.6-.88-11.07-4.62-1.47-3.74,1.1-7.74,5.74-8.93,4.64-1.19,9.6.88,11.07,4.62Z"/>
                <path class="cls-58" d="m181.88,34.16c1.41,3.59-1.05,7.43-5.51,8.57-4.45,1.14-9.21-.85-10.63-4.44-1.41-3.59,1.05-7.43,5.51-8.57,4.45-1.14,9.22.85,10.63,4.44Z"/>
                <path class="cls-22" d="m181.54,34.25c1.36,3.44-1,7.11-5.28,8.21-4.26,1.09-8.83-.81-10.18-4.25-1.36-3.44,1.01-7.11,5.28-8.21,4.27-1.09,8.83.81,10.18,4.25Z"/>
                <path class="cls-80" d="m181.21,34.34c1.3,3.29-.96,6.8-5.04,7.85-4.08,1.04-8.44-.78-9.74-4.07-1.3-3.29.96-6.8,5.05-7.85,4.08-1.04,8.44.78,9.74,4.07Z"/>
                <path class="cls-32" d="m180.87,34.42c1.24,3.14-.91,6.49-4.81,7.49-3.89.99-8.05-.74-9.29-3.88-1.24-3.14.92-6.49,4.82-7.49,3.89-.99,8.06.74,9.29,3.88Z"/>
                <path class="cls-29" d="m180.53,34.51c1.18,2.99-.87,6.18-4.58,7.13-3.7.95-7.67-.71-8.85-3.7-1.18-2.99.88-6.18,4.59-7.13,3.71-.95,7.67.71,8.84,3.7Z"/>
                <path class="cls-35" d="m180.19,34.6c1.12,2.84-.83,5.87-4.35,6.77-3.52.9-7.28-.67-8.4-3.51-1.12-2.84.83-5.87,4.36-6.77,3.52-.9,7.29.67,8.4,3.51Z"/>
                <path class="cls-71" d="m179.85,34.68c1.06,2.69-.78,5.56-4.12,6.42-3.33.85-6.9-.63-7.96-3.32-1.06-2.69.79-5.56,4.13-6.42,3.33-.85,6.9.63,7.95,3.32Z"/>
              </g>
              <path class="cls-52" d="m179.85,34.68c1.06,2.69-.78,5.56-4.12,6.42-3.33.85-6.9-.63-7.96-3.32-1.06-2.69.79-5.56,4.13-6.42,3.33-.85,6.9.63,7.95,3.32Z"/>
            </g>
            <g>
              <g>
                <path class="cls-33" d="m258.43,14.57c1.71,4.34-1.27,8.98-6.65,10.36-5.39,1.38-11.15-1.02-12.86-5.37-1.71-4.35,1.27-8.98,6.65-10.36,5.39-1.38,11.15,1.02,12.86,5.37Z"/>
                <path class="cls-42" d="m258.09,14.66c1.65,4.19-1.23,8.67-6.42,10-5.2,1.33-10.76-.99-12.41-5.18-1.65-4.19,1.23-8.67,6.42-10,5.2-1.33,10.76.99,12.41,5.18Z"/>
                <path class="cls-26" d="m257.76,14.74c1.59,4.04-1.18,8.36-6.19,9.64-5.02,1.28-10.37-.95-11.97-5-1.59-4.04,1.18-8.36,6.19-9.64,5.02-1.29,10.37.95,11.97,5Z"/>
                <path class="cls-30" d="m257.42,14.83c1.53,3.89-1.14,8.05-5.96,9.28-4.83,1.23-9.99-.92-11.52-4.81-1.53-3.89,1.14-8.05,5.96-9.28,4.83-1.24,9.99.92,11.52,4.81Z"/>
                <path class="cls-46" d="m257.08,14.91c1.47,3.74-1.1,7.74-5.74,8.93-4.64,1.19-9.6-.88-11.08-4.62-1.47-3.74,1.1-7.74,5.74-8.93,4.64-1.19,9.6.88,11.08,4.62Z"/>
                <path class="cls-58" d="m256.74,15c1.42,3.59-1.05,7.43-5.51,8.57-4.45,1.14-9.22-.85-10.63-4.44-1.42-3.59,1.05-7.43,5.51-8.57,4.46-1.14,9.22.85,10.63,4.44Z"/>
                <path class="cls-22" d="m256.41,15.09c1.36,3.44-1.01,7.12-5.28,8.21-4.27,1.09-8.83-.81-10.19-4.25-1.36-3.44,1.01-7.11,5.28-8.21,4.27-1.09,8.83.81,10.19,4.25Z"/>
                <path class="cls-80" d="m256.07,15.17c1.3,3.29-.96,6.81-5.05,7.85-4.08,1.04-8.44-.77-9.74-4.07-1.3-3.29.96-6.8,5.05-7.85,4.08-1.04,8.44.77,9.74,4.07Z"/>
                <path class="cls-32" d="m255.73,15.26c1.24,3.14-.92,6.5-4.82,7.49-3.89.99-8.06-.74-9.3-3.88-1.24-3.14.92-6.49,4.82-7.49,3.89-1,8.06.74,9.3,3.88Z"/>
                <path class="cls-29" d="m255.39,15.35c1.18,2.99-.88,6.18-4.59,7.13-3.71.95-7.67-.7-8.85-3.7-1.18-2.99.88-6.18,4.59-7.13,3.71-.95,7.67.7,8.85,3.7Z"/>
                <path class="cls-35" d="m255.06,15.43c1.12,2.84-.83,5.87-4.36,6.77-3.52.9-7.29-.67-8.4-3.51-1.12-2.84.83-5.87,4.36-6.77,3.52-.9,7.29.67,8.4,3.51Z"/>
                <path class="cls-71" d="m254.72,15.52c1.06,2.69-.79,5.56-4.13,6.42-3.33.85-6.9-.63-7.96-3.32-1.06-2.69.79-5.56,4.13-6.42,3.33-.85,6.9.63,7.96,3.32Z"/>
              </g>
              <path class="cls-49" d="m254.72,15.52c1.06,2.69-.79,5.56-4.13,6.42-3.33.85-6.9-.63-7.96-3.32-1.06-2.69.79-5.56,4.13-6.42,3.33-.85,6.9.63,7.96,3.32Z"/>
            </g>
          </g>
        </g>
        <rect class="cls-70" x="347.64" y="7.98" width="268.05" height="223"/>
        <g>
          <path class="cls-78" d="m592.66,194.87c0,14.18-14.27,25.68-31.85,25.68h-158.29c-17.6,0-31.85-11.5-31.85-25.68v-127.59c0-14.18,14.26-25.68,31.85-25.68h158.29c17.59,0,31.85,11.5,31.85,25.68v127.59Z"/>
          <path class="cls-13" d="m590.5,193.62c0,13.9-13.99,25.18-31.23,25.18h-155.21c-17.25,0-31.23-11.27-31.23-25.18v-125.11c0-13.9,13.98-25.18,31.23-25.18h155.21c17.25,0,31.23,11.27,31.23,25.18v125.11Z"/>
          <path class="cls-75" d="m588.34,192.38c0,13.63-13.71,24.68-30.61,24.68h-152.12c-16.91,0-30.61-11.05-30.61-24.68v-122.62c0-13.63,13.7-24.68,30.61-24.68h152.12c16.9,0,30.61,11.05,30.61,24.68v122.62Z"/>
          <path class="cls-8" d="m586.18,191.14c0,13.35-13.43,24.18-29.99,24.18h-149.04c-16.57,0-29.99-10.82-29.99-24.18v-120.14c0-13.35,13.42-24.18,29.99-24.18h149.04c16.56,0,29.99,10.83,29.99,24.18v120.14Z"/>
          <path class="cls-37" d="m584.02,189.9c0,13.08-13.15,23.68-29.37,23.68h-145.96c-16.22,0-29.37-10.6-29.37-23.68v-117.65c0-13.08,13.15-23.68,29.37-23.68h145.96c16.22,0,29.37,10.6,29.37,23.68v117.65Z"/>
          <path class="cls-14" d="m581.86,188.66c0,12.8-12.87,23.18-28.75,23.18h-142.88c-15.88,0-28.75-10.38-28.75-23.18v-115.17c0-12.8,12.87-23.18,28.75-23.18h142.88c15.88,0,28.75,10.38,28.75,23.18v115.17Z"/>
          <path class="cls-10" d="m579.7,187.41c0,12.52-12.6,22.68-28.13,22.68h-139.8c-15.54,0-28.13-10.15-28.13-22.68v-112.69c0-12.52,12.59-22.68,28.13-22.68h139.8c15.53,0,28.13,10.16,28.13,22.68v112.69Z"/>
          <path class="cls-87" d="m577.53,186.17c0,12.25-12.32,22.17-27.51,22.17h-136.71c-15.2,0-27.51-9.93-27.51-22.17v-110.2c0-12.25,12.32-22.18,27.51-22.18h136.71c15.19,0,27.51,9.93,27.51,22.18v110.2Z"/>
          <path class="cls-17" d="m575.37,184.93c0,11.97-12.04,21.67-26.89,21.67h-133.63c-14.85,0-26.89-9.7-26.89-21.67v-107.72c0-11.97,12.04-21.68,26.89-21.68h133.63c14.85,0,26.89,9.71,26.89,21.68v107.72Z"/>
          <path class="cls-35" d="m573.21,183.69c0,11.69-11.76,21.17-26.27,21.17h-130.55c-14.51,0-26.27-9.48-26.27-21.17v-105.23c0-11.69,11.76-21.18,26.27-21.18h130.55c14.51,0,26.27,9.48,26.27,21.18v105.23Z"/>
          <path class="cls-2" d="m571.05,182.45c0,11.42-11.48,20.67-25.65,20.67h-127.47c-14.17,0-25.65-9.26-25.65-20.67v-102.75c0-11.42,11.48-20.68,25.65-20.68h127.47c14.17,0,25.65,9.26,25.65,20.68v102.75Z"/>
          <path class="cls-71" d="m568.89,181.2c0,11.14-11.21,20.17-25.03,20.17h-124.38c-13.82,0-25.03-9.03-25.03-20.17v-100.26c0-11.14,11.21-20.18,25.03-20.18h124.38c13.82,0,25.03,9.04,25.03,20.18v100.26Z"/>
        </g>
        <path class="cls-51" d="m568.89,181.2c0,11.14-11.21,20.17-25.03,20.17h-124.38c-13.82,0-25.03-9.03-25.03-20.17v-100.26c0-11.14,11.21-20.18,25.03-20.18h124.38c13.82,0,25.03,9.04,25.03,20.18v100.26Z"/>
        <g>
          <g>
            <ellipse class="cls-71" cx="481.66" cy="96.44" rx="18.82" ry="15.17"/>
            <path class="cls-43" d="m499.97,96.44c0,8.15-8.2,14.76-18.3,14.76s-18.3-6.61-18.3-14.76,8.2-14.75,18.3-14.75,18.3,6.61,18.3,14.75Z"/>
            <path class="cls-38" d="m499.46,96.44c0,7.92-7.97,14.34-17.79,14.34s-17.79-6.42-17.79-14.34,7.97-14.34,17.79-14.34,17.79,6.42,17.79,14.34Z"/>
            <path class="cls-8" d="m498.94,96.44c0,7.69-7.74,13.93-17.28,13.93s-17.28-6.24-17.28-13.93,7.74-13.93,17.28-13.93,17.28,6.24,17.28,13.93Z"/>
            <path class="cls-40" d="m498.43,96.44c0,7.47-7.51,13.52-16.77,13.52s-16.77-6.05-16.77-13.52,7.51-13.52,16.77-13.52,16.77,6.05,16.77,13.52Z"/>
            <path class="cls-16" d="m497.92,96.44c0,7.24-7.28,13.11-16.26,13.11s-16.25-5.87-16.25-13.11,7.28-13.1,16.25-13.1,16.26,5.87,16.26,13.1Z"/>
            <path class="cls-73" d="m497.41,96.44c0,7.01-7.05,12.69-15.75,12.69s-15.74-5.68-15.74-12.69,7.05-12.69,15.74-12.69,15.75,5.68,15.75,12.69Z"/>
            <path class="cls-72" d="m496.9,96.44c0,6.78-6.82,12.28-15.24,12.28s-15.23-5.5-15.23-12.28,6.82-12.28,15.23-12.28,15.24,5.5,15.24,12.28Z"/>
            <path class="cls-45" d="m496.39,96.44c0,6.55-6.59,11.87-14.72,11.87s-14.72-5.31-14.72-11.87,6.59-11.86,14.72-11.86,14.72,5.31,14.72,11.86Z"/>
            <path class="cls-64" d="m495.88,96.44c0,6.33-6.36,11.46-14.21,11.46s-14.2-5.13-14.2-11.46,6.36-11.45,14.2-11.45,14.21,5.13,14.21,11.45Z"/>
            <path class="cls-24" d="m495.36,96.44c0,6.1-6.13,11.04-13.7,11.04s-13.69-4.95-13.69-11.04,6.13-11.04,13.69-11.04,13.7,4.95,13.7,11.04Z"/>
            <path class="cls-53" d="m494.85,96.44c0,5.87-5.9,10.63-13.19,10.63s-13.18-4.76-13.18-10.63,5.9-10.62,13.18-10.62,13.19,4.76,13.19,10.62Z"/>
          </g>
          <g>
            <path class="cls-71" d="m497.67,96.44c0,7.12-7.16,12.9-16,12.9s-15.99-5.78-15.99-12.9,7.16-12.89,15.99-12.89,16,5.78,16,12.89Z"/>
            <path class="cls-43" d="m497.23,96.44c0,6.93-6.97,12.55-15.57,12.55s-15.56-5.62-15.56-12.55,6.97-12.54,15.56-12.54,15.57,5.62,15.57,12.54Z"/>
            <path class="cls-38" d="m496.8,96.44c0,6.74-6.77,12.2-15.13,12.2s-15.12-5.46-15.12-12.2,6.77-12.19,15.12-12.19,15.13,5.46,15.13,12.19Z"/>
            <path class="cls-8" d="m496.36,96.44c0,6.54-6.58,11.85-14.7,11.85s-14.69-5.3-14.69-11.85,6.58-11.84,14.69-11.84,14.7,5.3,14.7,11.84Z"/>
            <path class="cls-40" d="m495.92,96.44c0,6.35-6.38,11.5-14.26,11.5s-14.25-5.15-14.25-11.5,6.38-11.49,14.25-11.49,14.26,5.15,14.26,11.49Z"/>
            <path class="cls-16" d="m495.49,96.44c0,6.16-6.19,11.14-13.83,11.14s-13.82-4.99-13.82-11.14,6.19-11.14,13.82-11.14,13.83,4.99,13.83,11.14Z"/>
            <path class="cls-73" d="m495.05,96.44c0,5.96-5.99,10.79-13.39,10.79s-13.38-4.83-13.38-10.79,5.99-10.79,13.38-10.79,13.39,4.83,13.39,10.79Z"/>
            <path class="cls-72" d="m494.62,96.44c0,5.77-5.8,10.44-12.96,10.44s-12.95-4.67-12.95-10.44,5.8-10.44,12.95-10.44,12.96,4.67,12.96,10.44Z"/>
            <path class="cls-45" d="m494.18,96.44c0,5.57-5.6,10.09-12.52,10.09s-12.51-4.52-12.51-10.09,5.6-10.08,12.51-10.08,12.52,4.52,12.52,10.08Z"/>
            <path class="cls-64" d="m493.75,96.44c0,5.38-5.41,9.74-12.08,9.74s-12.08-4.36-12.08-9.74,5.41-9.73,12.08-9.73,12.08,4.36,12.08,9.73Z"/>
            <path class="cls-24" d="m493.31,96.44c0,5.19-5.21,9.39-11.65,9.39s-11.64-4.2-11.64-9.39,5.21-9.38,11.64-9.38,11.65,4.2,11.65,9.38Z"/>
            <path class="cls-53" d="m492.88,96.44c0,4.99-5.02,9.04-11.21,9.04s-11.21-4.05-11.21-9.04,5.02-9.03,11.21-9.03,11.21,4.05,11.21,9.03Z"/>
          </g>
          <g>
            <rect class="cls-71" x="480.13" y="83.54" width="3.07" height="25.79"/>
            <rect class="cls-71" x="465.67" y="95.2" width="32" height="2.47"/>
          </g>
        </g>
        <g>
          <g>
            <path class="cls-20" d="m519.99,50.05c-1.86,1.83-5.21,2.1-7.47.61l-57.93-37.9c-2.26-1.48-2.6-4.16-.75-5.99l.52-.5c1.85-1.83,5.2-2.1,7.46-.61l57.93,37.9c2.26,1.48,2.6,4.16.75,5.99l-.51.5Z"/>
            <path class="cls-19" d="m517.91,48.58c-1.35,1.31-3.76,1.52-5.4.44l-55.91-36.58c-1.64-1.07-1.89-3.01-.54-4.33l.36-.36c1.35-1.32,3.76-1.53,5.41-.45l55.91,36.58c1.64,1.08,1.88,3.02.53,4.33l-.36.37Z"/>
          </g>
          <g>
            <path class="cls-33" d="m496.63,34.36c-4.27,4.2-11.98,4.84-17.2,1.42-5.22-3.42-5.99-9.6-1.72-13.79,4.28-4.2,11.98-4.84,17.2-1.42,5.22,3.42,5.99,9.6,1.72,13.8Z"/>
            <path class="cls-42" d="m496.29,34.13c-4.12,4.05-11.54,4.66-16.58,1.37-5.03-3.3-5.78-9.25-1.66-13.29,4.13-4.05,11.54-4.67,16.58-1.37,5.03,3.3,5.78,9.25,1.66,13.3Z"/>
            <path class="cls-26" d="m495.95,33.91c-3.96,3.9-11.11,4.49-15.95,1.32-4.84-3.17-5.56-8.9-1.6-12.8,3.97-3.9,11.11-4.49,15.95-1.32,4.84,3.17,5.56,8.9,1.6,12.8Z"/>
            <path class="cls-30" d="m495.61,33.68c-3.81,3.75-10.68,4.31-15.33,1.26-4.65-3.05-5.34-8.56-1.53-12.3,3.82-3.75,10.68-4.32,15.33-1.27,4.65,3.05,5.34,8.56,1.53,12.3Z"/>
            <path class="cls-46" d="m495.26,33.46c-3.65,3.6-10.24,4.14-14.71,1.21-4.47-2.92-5.13-8.21-1.47-11.8,3.66-3.6,10.24-4.14,14.71-1.22,4.47,2.92,5.13,8.21,1.47,11.8Z"/>
            <path class="cls-58" d="m494.92,33.24c-3.5,3.44-9.81,3.96-14.09,1.16s-4.91-7.86-1.41-11.3c3.51-3.44,9.81-3.97,14.09-1.17,4.28,2.8,4.91,7.86,1.41,11.3Z"/>
            <path class="cls-22" d="m494.58,33.01c-3.34,3.29-9.38,3.79-13.47,1.11s-4.69-7.52-1.35-10.8c3.35-3.29,9.38-3.79,13.47-1.12s4.69,7.52,1.35,10.8Z"/>
            <path class="cls-80" d="m494.24,32.79c-3.19,3.14-8.95,3.61-12.85,1.06s-4.48-7.17-1.28-10.3c3.2-3.14,8.95-3.62,12.84-1.06s4.48,7.17,1.28,10.31Z"/>
            <path class="cls-32" d="m493.9,32.56c-3.03,2.99-8.51,3.44-12.22,1.01s-4.26-6.82-1.22-9.8c3.04-2.99,8.51-3.44,12.22-1.01s4.26,6.82,1.22,9.81Z"/>
            <path class="cls-29" d="m493.55,32.34c-2.88,2.84-8.08,3.26-11.6.96s-4.04-6.48-1.16-9.31c2.89-2.84,8.08-3.27,11.6-.96s4.04,6.48,1.16,9.31Z"/>
            <path class="cls-35" d="m493.21,32.11c-2.72,2.69-7.65,3.09-10.98.91-3.33-2.18-3.83-6.13-1.1-8.81,2.73-2.69,7.65-3.09,10.98-.91s3.83,6.13,1.1,8.81Z"/>
            <path class="cls-71" d="m492.87,31.89c-2.57,2.53-7.21,2.92-10.36.86-3.14-2.06-3.61-5.78-1.03-8.31,2.58-2.53,7.21-2.92,10.36-.86s3.61,5.78,1.04,8.31Z"/>
          </g>
          <g>
            <path class="cls-20" d="m421.59,101.92c-1.86,1.82-5.2,2.1-7.47.61l-3.12-2.04c-2.26-1.48-2.6-4.17-.75-5.99l71.9-70.68c1.85-1.83,5.2-2.1,7.46-.62l3.12,2.04c2.27,1.48,2.6,4.16.75,5.99l-71.9,70.69Z"/>
            <path class="cls-60" d="m420.87,99.58c-1.24,1.22-3.48,1.41-5,.42l-2.09-1.37c-1.52-.99-1.75-2.79-.5-4.02l70.6-69.42c1.25-1.22,3.48-1.41,5-.41l2.09,1.36c1.52.99,1.75,2.79.5,4.02l-70.6,69.42Z"/>
          </g>
          <g>
            <g>
              <g>
                <path class="cls-33" d="m464.65,13.43c-3.59,3.53-10.05,4.07-14.43,1.19-4.39-2.87-5.03-8.05-1.45-11.58,3.59-3.53,10.05-4.06,14.44-1.19,4.38,2.87,5.03,8.05,1.44,11.58Z"/>
                <path class="cls-42" d="m464.38,13.25c-3.46,3.41-9.7,3.92-13.93,1.15-4.24-2.77-4.86-7.77-1.4-11.18,3.47-3.41,9.7-3.92,13.94-1.15,4.23,2.77,4.85,7.77,1.39,11.18Z"/>
                <path class="cls-26" d="m464.1,13.07c-3.34,3.28-9.36,3.78-13.43,1.11-4.09-2.67-4.69-7.49-1.35-10.78,3.34-3.28,9.36-3.78,13.44-1.11,4.08,2.67,4.68,7.49,1.34,10.78Z"/>
                <path class="cls-30" d="m463.83,12.89c-3.21,3.16-9.01,3.64-12.93,1.07-3.93-2.57-4.51-7.21-1.3-10.38,3.22-3.16,9.01-3.64,12.94-1.07,3.93,2.57,4.5,7.21,1.29,10.38Z"/>
                <path class="cls-46" d="m463.55,12.71c-3.09,3.04-8.66,3.5-12.43,1.03-3.78-2.47-4.34-6.94-1.25-9.98,3.09-3.04,8.66-3.5,12.44-1.03,3.77,2.47,4.33,6.94,1.24,9.98Z"/>
                <path class="cls-58" d="m463.28,12.53c-2.97,2.92-8.31,3.36-11.93.98-3.63-2.37-4.16-6.66-1.2-9.58,2.97-2.92,8.31-3.36,11.94-.98,3.62,2.37,4.16,6.66,1.19,9.58Z"/>
                <path class="cls-22" d="m463,12.35c-2.84,2.79-7.96,3.22-11.43.94-3.48-2.27-3.99-6.38-1.15-9.17,2.84-2.79,7.96-3.22,11.44-.94,3.47,2.27,3.98,6.38,1.14,9.17Z"/>
                <path class="cls-80" d="m462.73,12.17c-2.72,2.67-7.61,3.08-10.93.9-3.33-2.17-3.82-6.1-1.1-8.77,2.72-2.67,7.61-3.08,10.94-.9,3.32,2.17,3.81,6.1,1.09,8.77Z"/>
                <path class="cls-32" d="m462.45,11.99c-2.59,2.55-7.27,2.94-10.43.86-3.18-2.07-3.64-5.82-1.05-8.37,2.6-2.55,7.27-2.93,10.44-.86,3.17,2.07,3.63,5.82,1.04,8.37Z"/>
                <path class="cls-29" d="m462.18,11.81c-2.47,2.42-6.92,2.8-9.93.82-3.03-1.98-3.47-5.54-1-7.97,2.47-2.42,6.92-2.79,9.94-.82,3.02,1.98,3.46,5.54.99,7.97Z"/>
                <path class="cls-35" d="m461.9,11.63c-2.34,2.3-6.57,2.65-9.43.78-2.87-1.88-3.29-5.26-.95-7.57,2.35-2.3,6.57-2.65,9.44-.78,2.86,1.88,3.28,5.26.94,7.57Z"/>
                <path class="cls-71" d="m461.63,11.45c-2.22,2.18-6.22,2.51-8.93.74-2.72-1.78-3.12-4.99-.9-7.17,2.22-2.18,6.22-2.51,8.94-.74,2.71,1.78,3.11,4.99.89,7.17Z"/>
              </g>
              <path class="cls-52" d="m461.63,11.45c-2.22,2.18-6.22,2.51-8.93.74-2.72-1.78-3.12-4.99-.9-7.17,2.22-2.18,6.22-2.51,8.94-.74,2.71,1.78,3.11,4.99.89,7.17Z"/>
            </g>
            <g>
              <g>
                <path class="cls-33" d="m525.58,53.29c-3.59,3.53-10.05,4.07-14.43,1.19-4.39-2.87-5.03-8.05-1.45-11.58,3.59-3.53,10.05-4.07,14.44-1.19,4.38,2.87,5.03,8.05,1.44,11.58Z"/>
                <path class="cls-42" d="m525.3,53.11c-3.46,3.41-9.7,3.92-13.93,1.15-4.24-2.77-4.86-7.77-1.4-11.18,3.47-3.41,9.7-3.92,13.94-1.15,4.23,2.77,4.85,7.77,1.39,11.18Z"/>
                <path class="cls-26" d="m525.03,52.93c-3.34,3.28-9.36,3.78-13.43,1.11-4.09-2.67-4.69-7.49-1.35-10.78,3.34-3.28,9.36-3.78,13.44-1.11,4.08,2.67,4.68,7.49,1.34,10.78Z"/>
                <path class="cls-30" d="m524.75,52.75c-3.21,3.16-9.01,3.64-12.93,1.07-3.94-2.57-4.51-7.21-1.3-10.38,3.22-3.16,9.01-3.64,12.94-1.07,3.93,2.57,4.5,7.21,1.29,10.38Z"/>
                <path class="cls-46" d="m524.48,52.57c-3.09,3.04-8.66,3.5-12.43,1.03-3.78-2.47-4.34-6.94-1.25-9.98,3.09-3.04,8.66-3.5,12.44-1.03,3.77,2.47,4.33,6.94,1.24,9.98Z"/>
                <path class="cls-58" d="m524.2,52.39c-2.96,2.92-8.31,3.36-11.93.98-3.63-2.37-4.16-6.66-1.2-9.58,2.97-2.92,8.31-3.36,11.94-.98,3.62,2.37,4.16,6.66,1.19,9.58Z"/>
                <path class="cls-22" d="m523.93,52.21c-2.84,2.79-7.96,3.22-11.43.94-3.48-2.27-3.99-6.38-1.15-9.17,2.84-2.79,7.96-3.22,11.44-.94,3.47,2.27,3.98,6.38,1.14,9.17Z"/>
                <path class="cls-80" d="m523.65,52.03c-2.72,2.67-7.61,3.08-10.93.9-3.33-2.17-3.82-6.1-1.1-8.77,2.72-2.67,7.61-3.08,10.94-.9,3.32,2.17,3.81,6.1,1.09,8.77Z"/>
                <path class="cls-32" d="m523.38,51.85c-2.59,2.55-7.27,2.94-10.43.86-3.18-2.07-3.64-5.82-1.05-8.37,2.6-2.55,7.27-2.94,10.44-.86,3.17,2.07,3.63,5.82,1.04,8.37Z"/>
                <path class="cls-29" d="m523.1,51.67c-2.47,2.42-6.92,2.8-9.93.82-3.02-1.98-3.47-5.54-1-7.97,2.47-2.42,6.92-2.8,9.94-.82,3.02,1.98,3.46,5.54.99,7.97Z"/>
                <path class="cls-35" d="m522.83,51.49c-2.34,2.3-6.57,2.65-9.43.78-2.87-1.88-3.29-5.26-.95-7.57,2.35-2.3,6.57-2.65,9.44-.78,2.86,1.88,3.28,5.26.94,7.57Z"/>
                <path class="cls-71" d="m522.55,51.31c-2.22,2.18-6.22,2.51-8.93.74-2.72-1.78-3.12-4.99-.9-7.17,2.22-2.18,6.22-2.51,8.94-.74,2.71,1.78,3.11,4.99.89,7.17Z"/>
              </g>
              <path class="cls-49" d="m522.55,51.31c-2.22,2.18-6.22,2.51-8.93.74-2.72-1.78-3.12-4.99-.9-7.17,2.22-2.18,6.22-2.51,8.94-.74,2.71,1.78,3.11,4.99.89,7.17Z"/>
            </g>
          </g>
        </g>
        <rect class="cls-11" x="77.82" y="231.69" width="538.76" height="24.98"/>
      </g>
    </g>
  </g>
</svg>