<?xml version="1.0" encoding="UTF-8"?>
<svg xmlns="http://www.w3.org/2000/svg" xmlns:xlink="http://www.w3.org/1999/xlink" viewBox="0 0 379.06 335.73">
  <defs>
    <style>
      .cls-1 {
        fill: #ddd;
      }

      .cls-2 {
        fill: #e9e9e9;
      }

      .cls-3 {
        fill: url(#linear-gradient-2);
      }

      .cls-4 {
        fill: #f0f0f0;
      }

      .cls-5 {
        fill: #f4f4f4;
      }

      .cls-6 {
        fill: #fff;
      }

      .cls-7 {
        fill: #c5c5c5;
      }

      .cls-8 {
        fill: #cbcbcb;
      }

      .cls-9 {
        fill: #d1d1d1;
      }

      .cls-10 {
        fill: #fafafa;
      }

      .cls-11 {
        fill: #dbdbdb;
      }

      .cls-12 {
        fill: #cacaca;
      }

      .cls-13 {
        fill: #d8d8d8;
      }

      .cls-14 {
        fill: #f6f6f6;
      }

      .cls-15 {
        fill: url(#linear-gradient);
      }

      .cls-15, .cls-16 {
        mix-blend-mode: multiply;
      }

      .cls-17 {
        fill: #939598;
      }

      .cls-18 {
        fill: silver;
      }

      .cls-19 {
        fill: #e2e2e2;
      }

      .cls-20 {
        fill: #f5f5f5;
      }

      .cls-21 {
        fill: #b2b2b2;
      }

      .cls-22 {
        isolation: isolate;
      }

      .cls-23 {
        fill: #c9c9c8;
      }

      .cls-24 {
        fill: #d6d6d6;
      }

      .cls-25 {
        fill: #c9c9c9;
      }

      .cls-26 {
        fill: #acacab;
      }

      .cls-27 {
        fill: #e0e0e0;
      }

      .cls-28 {
        fill: #c7c7c7;
      }

      .cls-29 {
        fill: #dedede;
      }

      .cls-30 {
        fill: #b3b3b2;
      }

      .cls-31 {
        fill: #c3c3c3;
      }

      .cls-32 {
        fill: #cfcfcf;
      }

      .cls-33 {
        fill: #d7d7d7;
      }

      .cls-34 {
        fill: #9d9d9c;
      }

      .cls-35 {
        fill: #e1e1e1;
      }

      .cls-36 {
        fill: #e6e6e6;
      }

      .cls-37 {
        fill: #e7e7e7;
      }

      .cls-38 {
        fill: #d4d4d4;
      }

      .cls-39 {
        fill: #dadada;
      }

      .cls-40 {
        fill: #eaeaea;
      }

      .cls-41 {
        fill: #c8c8c8;
      }

      .cls-42 {
        fill: #fdfdfd;
      }

      .cls-43 {
        fill: #a4a4a3;
      }

      .cls-44 {
        fill: #e4e4e4;
      }

      .cls-45 {
        fill: none;
        stroke: #949494;
        stroke-linecap: round;
        stroke-linejoin: round;
        stroke-width: .03px;
      }

      .cls-46 {
        fill: #fbfbfb;
      }

      .cls-47 {
        fill: #babab9;
      }

      .cls-48 {
        fill: #f9f9f9;
      }

      .cls-49 {
        fill: #72a6bf;
      }

      .cls-50 {
        fill: #e5e5e5;
      }

      .cls-51 {
        fill: #d16660;
      }

      .cls-52 {
        fill: #d3d3d3;
      }

      .cls-53 {
        fill: #ebebeb;
      }

      .cls-54 {
        fill: #d5d5d5;
      }

      .cls-55 {
        fill: #dcdcdc;
      }

      .cls-56 {
        fill: #c1c1c1;
      }

      .cls-57 {
        fill: #e8e8e8;
      }

      .cls-58 {
        fill: #ccc;
      }

      .cls-59 {
        fill: #f7f7f7;
      }

      .cls-60 {
        fill: #efefef;
      }

      .cls-61 {
        fill: #c2c2c2;
      }

      .cls-62 {
        fill: #f1f1f1;
      }

      .cls-63 {
        fill: url(#linear-gradient-3);
      }

      .cls-64 {
        fill: #cecece;
      }

      .cls-65 {
        fill: #f3f3f3;
      }

      .cls-66 {
        fill: #d9d9d9;
      }

      .cls-67 {
        fill: #cdcdcd;
      }

      .cls-68 {
        fill: #f8f8f8;
      }

      .cls-69 {
        fill: #d2d2d2;
      }

      .cls-70 {
        fill: #c6c6c6;
      }

      .cls-71 {
        fill: #eee;
      }

      .cls-72 {
        fill: #d0d0d0;
      }

      .cls-73 {
        fill: #ececec;
      }

      .cls-74 {
        fill: #f2f2f2;
      }

      .cls-75 {
        fill: #c4c4c4;
      }

      .cls-76 {
        fill: #fefefe;
      }

      .cls-77 {
        fill: #e3e3e3;
      }

      .cls-78 {
        fill: #fcfcfc;
      }

      .cls-79 {
        fill: #ededed;
      }

      .cls-80 {
        fill: #dfdfdf;
      }
    </style>
    <linearGradient id="linear-gradient" x1="278.75" y1="74.87" x2="200.44" y2="196.45" gradientUnits="userSpaceOnUse">
      <stop offset="0" stop-color="#e0e0e0"/>
      <stop offset="1" stop-color="#fff"/>
    </linearGradient>
    <linearGradient id="linear-gradient-2" x1="779.09" y1="1892.32" x2="887.94" y2="1892.32" gradientTransform="translate(2239.98 -660.93) rotate(90.6)" gradientUnits="userSpaceOnUse">
      <stop offset="0" stop-color="#bfbfbe"/>
      <stop offset=".57" stop-color="#fff"/>
      <stop offset="1" stop-color="#c9c9c8"/>
    </linearGradient>
    <linearGradient id="linear-gradient-3" x1="833.46" y1="1966.87" x2="833.46" y2="1885.38" xlink:href="#linear-gradient-2"/>
  </defs>
  <g class="cls-22">
    <g id="Layer_1" data-name="Layer 1">
      <g>
        <g class="cls-16">
          <path class="cls-6" d="m159.58,30.32C71.45,30.32,0,98.69,0,183.03s71.45,152.7,159.58,152.7h166.24V30.32h-166.24Z"/>
          <path class="cls-76" d="m160.5,29.8C72.37,29.8.92,98.16.92,182.5s71.45,152.7,159.58,152.7h166.24V29.8h-166.24Z"/>
          <path class="cls-42" d="m161.42,29.28C73.29,29.28,1.84,97.64,1.84,181.98s71.45,152.7,159.58,152.7h166.24V29.28h-166.24Z"/>
          <path class="cls-78" d="m162.34,28.76C74.21,28.76,2.75,97.12,2.75,181.46s71.45,152.7,159.58,152.7h166.24V28.76h-166.24Z"/>
          <path class="cls-46" d="m163.25,28.23C75.13,28.23,3.67,96.6,3.67,180.94s71.45,152.7,159.58,152.7h166.24V28.23h-166.24Z"/>
          <path class="cls-10" d="m164.17,27.71C76.04,27.71,4.59,96.07,4.59,180.41s71.45,152.7,159.58,152.7h166.24V27.71h-166.24Z"/>
          <path class="cls-48" d="m165.09,27.19C76.96,27.19,5.51,95.55,5.51,179.89s71.45,152.7,159.58,152.7h166.24V27.19h-166.24Z"/>
          <path class="cls-68" d="m166.01,26.67C77.88,26.67,6.42,95.03,6.42,179.37s71.45,152.7,159.58,152.7h166.24V26.67h-166.24Z"/>
          <path class="cls-59" d="m166.93,26.14C78.8,26.14,7.34,94.51,7.34,178.85s71.45,152.7,159.58,152.7h166.24V26.14h-166.24Z"/>
          <path class="cls-14" d="m167.84,25.62C79.71,25.62,8.26,93.98,8.26,178.32s71.45,152.7,159.58,152.7h166.24V25.62h-166.24Z"/>
          <path class="cls-20" d="m168.76,25.1C80.63,25.1,9.18,93.46,9.18,177.8s71.45,152.7,159.58,152.7h166.24V25.1h-166.24Z"/>
          <path class="cls-5" d="m169.68,24.58C81.55,24.58,10.09,92.94,10.09,177.28s71.45,152.7,159.58,152.7h166.24V24.58h-166.24Z"/>
          <path class="cls-65" d="m170.6,24.05C82.47,24.05,11.01,92.42,11.01,176.76s71.45,152.7,159.58,152.7h166.24V24.05h-166.24Z"/>
          <path class="cls-74" d="m171.51,23.53C83.38,23.53,11.93,91.89,11.93,176.23s71.45,152.7,159.58,152.7h166.24V23.53h-166.24Z"/>
          <path class="cls-62" d="m172.43,23.01C84.3,23.01,12.85,91.37,12.85,175.71s71.45,152.7,159.58,152.7h166.24V23.01h-166.24Z"/>
          <path class="cls-4" d="m173.35,22.49C85.22,22.49,13.76,90.85,13.76,175.19s71.45,152.7,159.58,152.7h166.24V22.49h-166.24Z"/>
          <path class="cls-60" d="m174.27,21.96C86.14,21.96,14.68,90.33,14.68,174.66s71.45,152.7,159.58,152.7h166.24V21.96h-166.24Z"/>
          <path class="cls-71" d="m175.18,21.44C87.05,21.44,15.6,89.8,15.6,174.14s71.45,152.7,159.58,152.7h166.24V21.44h-166.24Z"/>
          <path class="cls-79" d="m176.1,20.92C87.97,20.92,16.52,89.28,16.52,173.62s71.45,152.7,159.58,152.7h166.24V20.92h-166.24Z"/>
          <path class="cls-73" d="m177.02,20.4C88.89,20.4,17.44,88.76,17.44,173.1s71.45,152.7,159.58,152.7h166.24V20.4h-166.24Z"/>
          <path class="cls-53" d="m177.94,19.87C89.81,19.87,18.35,88.24,18.35,172.57s71.45,152.7,159.58,152.7h166.24V19.87h-166.24Z"/>
          <path class="cls-40" d="m178.85,19.35C90.72,19.35,19.27,87.71,19.27,172.05s71.45,152.7,159.58,152.7h166.24V19.35h-166.24Z"/>
          <path class="cls-2" d="m179.77,18.83C91.64,18.83,20.19,87.19,20.19,171.53s71.45,152.7,159.58,152.7h166.24V18.83h-166.24Z"/>
          <path class="cls-57" d="m180.69,18.3C92.56,18.3,21.11,86.67,21.11,171.01s71.45,152.7,159.58,152.7h166.24V18.3h-166.24Z"/>
          <path class="cls-37" d="m181.61,17.78C93.48,17.78,22.02,86.15,22.02,170.48s71.45,152.7,159.58,152.7h166.24V17.78h-166.24Z"/>
          <path class="cls-36" d="m182.52,17.26C94.4,17.26,22.94,85.62,22.94,169.96s71.45,152.7,159.58,152.7h166.24V17.26h-166.24Z"/>
          <path class="cls-50" d="m183.44,16.74C95.31,16.74,23.86,85.1,23.86,169.44s71.45,152.7,159.58,152.7h166.24V16.74h-166.24Z"/>
          <path class="cls-44" d="m184.36,16.21C96.23,16.21,24.78,84.58,24.78,168.92s71.45,152.7,159.58,152.7h166.24V16.21h-166.24Z"/>
          <path class="cls-77" d="m185.28,15.69C97.15,15.69,25.69,84.06,25.69,168.39s71.45,152.7,159.58,152.7h166.24V15.69h-166.24Z"/>
          <path class="cls-19" d="m186.2,15.17C98.07,15.17,26.61,83.53,26.61,167.87s71.45,152.7,159.58,152.7h166.24V15.17h-166.24Z"/>
          <path class="cls-19" d="m187.11,14.65C98.98,14.65,27.53,83.01,27.53,167.35s71.45,152.7,159.58,152.7h166.24V14.65h-166.24Z"/>
          <path class="cls-35" d="m188.03,14.12C99.9,14.12,28.45,82.49,28.45,166.83s71.45,152.7,159.58,152.7h166.24V14.12h-166.24Z"/>
          <path class="cls-27" d="m188.95,13.6C100.82,13.6,29.36,81.97,29.36,166.3s71.45,152.7,159.58,152.7h166.24V13.6h-166.24Z"/>
          <path class="cls-80" d="m189.87,13.08C101.74,13.08,30.28,81.44,30.28,165.78s71.45,152.7,159.58,152.7h166.24V13.08h-166.24Z"/>
          <path class="cls-29" d="m190.78,12.56C102.65,12.56,31.2,80.92,31.2,165.26s71.45,152.7,159.58,152.7h166.24V12.56h-166.24Z"/>
          <path class="cls-1" d="m191.7,12.03c-88.13,0-159.58,68.37-159.58,152.7s71.45,152.7,159.58,152.7h166.24V12.03h-166.24Z"/>
          <path class="cls-55" d="m192.62,11.51c-88.13,0-159.58,68.37-159.58,152.7s71.45,152.7,159.58,152.7h166.24V11.51h-166.24Z"/>
          <path class="cls-11" d="m193.54,10.99c-88.13,0-159.58,68.37-159.58,152.7s71.45,152.7,159.58,152.7h166.24V10.99h-166.24Z"/>
          <path class="cls-39" d="m194.45,10.47c-88.13,0-159.58,68.37-159.58,152.7s71.45,152.7,159.58,152.7h166.24V10.47h-166.24Z"/>
          <path class="cls-66" d="m195.37,9.94c-88.13,0-159.58,68.37-159.58,152.7s71.45,152.7,159.58,152.7h166.24V9.94h-166.24Z"/>
          <path class="cls-13" d="m196.29,9.42c-88.13,0-159.58,68.37-159.58,152.7s71.45,152.7,159.58,152.7h166.24V9.42h-166.24Z"/>
          <path class="cls-33" d="m197.21,8.9c-88.13,0-159.58,68.37-159.58,152.7s71.45,152.7,159.58,152.7h166.24V8.9h-166.24Z"/>
          <path class="cls-24" d="m198.12,8.38c-88.13,0-159.58,68.37-159.58,152.7s71.45,152.7,159.58,152.7h166.24V8.38h-166.24Z"/>
          <path class="cls-54" d="m199.04,7.85C110.91,7.85,39.46,76.22,39.46,160.55s71.45,152.7,159.58,152.7h166.24V7.85h-166.24Z"/>
          <path class="cls-38" d="m199.96,7.33C111.83,7.33,40.38,75.7,40.38,160.03s71.45,152.7,159.58,152.7h166.24V7.33h-166.24Z"/>
          <path class="cls-52" d="m200.88,6.81C112.75,6.81,41.29,75.17,41.29,159.51s71.45,152.7,159.58,152.7h166.24V6.81h-166.24Z"/>
          <path class="cls-69" d="m201.79,6.28C113.67,6.28,42.21,74.65,42.21,158.99s71.45,152.7,159.58,152.7h166.24V6.28h-166.24Z"/>
          <path class="cls-9" d="m202.71,5.76C114.58,5.76,43.13,74.13,43.13,158.46s71.45,152.7,159.58,152.7h166.24V5.76h-166.24Z"/>
          <path class="cls-72" d="m203.63,5.24C115.5,5.24,44.05,73.61,44.05,157.94s71.45,152.7,159.58,152.7h166.24V5.24h-166.24Z"/>
          <path class="cls-32" d="m204.55,4.72C116.42,4.72,44.96,73.08,44.96,157.42s71.45,152.7,159.58,152.7h166.24V4.72h-166.24Z"/>
          <path class="cls-64" d="m205.47,4.19C117.34,4.19,45.88,72.56,45.88,156.9s71.45,152.7,159.58,152.7h166.24V4.19h-166.24Z"/>
          <path class="cls-67" d="m206.38,3.67C118.25,3.67,46.8,72.04,46.8,156.37s71.45,152.7,159.58,152.7h166.24V3.67h-166.24Z"/>
          <path class="cls-58" d="m207.3,3.15C119.17,3.15,47.72,71.52,47.72,155.85s71.45,152.7,159.58,152.7h166.24V3.15h-166.24Z"/>
          <path class="cls-8" d="m208.22,2.63C120.09,2.63,48.63,70.99,48.63,155.33s71.45,152.7,159.58,152.7h166.24V2.63h-166.24Z"/>
          <path class="cls-12" d="m209.14,2.1C121.01,2.1,49.55,70.47,49.55,154.81s71.45,152.7,159.58,152.7h166.24V2.1h-166.24Z"/>
          <path class="cls-25" d="m210.05,1.58C121.92,1.58,50.47,69.95,50.47,154.28s71.45,152.7,159.58,152.7h166.24V1.58h-166.24Z"/>
          <path class="cls-41" d="m210.97,1.06C122.84,1.06,51.39,69.43,51.39,153.76s71.45,152.7,159.58,152.7h166.24V1.06h-166.24Z"/>
          <path class="cls-28" d="m211.89.54C123.76.54,52.31,68.9,52.31,153.24s71.45,152.7,159.58,152.7h166.24V.54h-166.24Z"/>
          <path class="cls-70" d="m212.81.01C124.68.01,53.22,68.38,53.22,152.72s71.45,152.7,159.58,152.7h166.24V.01h-166.24Z"/>
        </g>
        <g>
          <g>
            <path class="cls-39" d="m212.81,305.42h166.24V.01h-166.24C124.68.01,53.22,68.38,53.22,152.72s71.45,152.7,159.58,152.7Z"/>
            <path class="cls-11" d="m212.81,305.05h164.32V.38h-164.32C124.9.38,53.61,68.58,53.61,152.72s71.28,152.34,159.2,152.34Z"/>
            <path class="cls-55" d="m212.82,304.69h162.4V.75h-162.4C125.12.75,54,68.79,54,152.72s71.11,151.97,158.82,151.97Z"/>
            <path class="cls-1" d="m212.83,304.32h160.48V1.11h-160.48C125.33,1.11,54.39,68.99,54.39,152.72s70.94,151.6,158.44,151.6Z"/>
            <path class="cls-29" d="m212.84,303.95h158.56V1.48h-158.56C125.55,1.48,54.78,69.19,54.78,152.72s70.77,151.24,158.05,151.24Z"/>
            <path class="cls-80" d="m212.85,303.59h156.64V1.84h-156.64C125.77,1.84,55.17,69.39,55.17,152.72s70.6,150.87,157.67,150.87Z"/>
            <path class="cls-27" d="m212.85,303.22h154.72V2.21h-154.72C125.99,2.21,55.56,69.59,55.56,152.72s70.43,150.51,157.29,150.51Z"/>
            <path class="cls-35" d="m212.86,302.86h152.8V2.58h-152.8C126.21,2.58,55.95,69.8,55.95,152.72s70.26,150.14,156.91,150.14Z"/>
            <path class="cls-19" d="m212.87,302.49h150.88V2.94h-150.88C126.43,2.94,56.34,70,56.34,152.72s70.09,149.78,156.53,149.78Z"/>
            <path class="cls-77" d="m212.88,302.13h148.96V3.31h-148.96C126.65,3.31,56.73,70.2,56.73,152.72s69.92,149.41,156.14,149.41Z"/>
            <path class="cls-44" d="m212.89,301.76h147.04V3.67h-147.04C126.87,3.67,57.12,70.4,57.12,152.72s69.75,149.04,155.76,149.04Z"/>
            <path class="cls-50" d="m212.89,301.39h145.12V4.04h-145.12C127.09,4.04,57.51,70.6,57.51,152.72s69.57,148.68,155.38,148.68Z"/>
            <path class="cls-36" d="m212.9,301.03h143.2V4.41h-143.2C127.31,4.41,57.9,70.81,57.9,152.72s69.4,148.31,155,148.31Z"/>
            <path class="cls-37" d="m212.91,300.66h141.29V4.77h-141.29C127.53,4.77,58.29,71.01,58.29,152.72s69.23,147.95,154.62,147.95Z"/>
            <path class="cls-57" d="m212.92,300.3h139.37V5.14h-139.37C127.75,5.14,58.68,71.21,58.68,152.72s69.06,147.58,154.23,147.58Z"/>
            <path class="cls-57" d="m212.93,299.93h137.45V5.5h-137.45C127.97,5.5,59.07,71.41,59.07,152.72s68.89,147.22,153.85,147.22Z"/>
            <path class="cls-2" d="m212.94,299.57h135.53V5.87h-135.53c-84.75,0-153.47,65.74-153.47,146.85s68.72,146.85,153.47,146.85Z"/>
            <path class="cls-40" d="m212.94,299.2h133.61V6.24h-133.61c-84.54,0-153.09,65.58-153.09,146.48s68.55,146.48,153.09,146.48Z"/>
            <path class="cls-53" d="m212.95,298.83h131.69V6.6h-131.69c-84.33,0-152.71,65.42-152.71,146.11s68.38,146.12,152.71,146.12Z"/>
            <path class="cls-73" d="m212.96,298.47h129.77V6.97h-129.77c-84.12,0-152.32,65.25-152.32,145.75s68.21,145.75,152.32,145.75Z"/>
            <path class="cls-79" d="m212.97,298.1h127.85V7.33h-127.85c-83.9,0-151.94,65.09-151.94,145.38s68.04,145.39,151.94,145.39Z"/>
            <path class="cls-71" d="m212.98,297.74h125.93V7.7h-125.93c-83.69,0-151.56,64.92-151.56,145.02s67.87,145.02,151.56,145.02Z"/>
            <path class="cls-60" d="m212.98,297.37h124.01V8.07h-124.01c-83.48,0-151.18,64.76-151.18,144.65s67.7,144.66,151.18,144.66Z"/>
            <path class="cls-4" d="m212.99,297.01h122.09V8.43h-122.09c-83.27,0-150.8,64.6-150.8,144.28s67.53,144.29,150.8,144.29Z"/>
            <path class="cls-62" d="m213,296.64h120.17V8.8h-120.17c-83.06,0-150.41,64.43-150.41,143.92s67.35,143.92,150.41,143.92Z"/>
            <path class="cls-74" d="m213.01,296.27h118.25V9.16h-118.25c-82.85,0-150.03,64.27-150.03,143.55s67.18,143.56,150.03,143.56Z"/>
            <path class="cls-65" d="m213.02,295.91h116.33V9.53h-116.33c-82.64,0-149.65,64.1-149.65,143.19s67.01,143.19,149.65,143.19Z"/>
            <path class="cls-5" d="m213.02,295.54h114.41V9.9h-114.41c-82.43,0-149.27,63.94-149.27,142.82s66.84,142.83,149.27,142.83Z"/>
            <path class="cls-20" d="m213.03,295.18h112.49V10.26h-112.49c-82.21,0-148.89,63.78-148.89,142.45s66.67,142.46,148.89,142.46Z"/>
            <path class="cls-14" d="m213.04,294.81h110.57V10.63h-110.57c-82,0-148.5,63.61-148.5,142.09s66.5,142.09,148.5,142.09Z"/>
            <path class="cls-20" d="m213.11,294.54h110.34V10.9h-110.34c-81.85,0-148.22,63.49-148.22,141.82s66.37,141.83,148.22,141.83Z"/>
            <path class="cls-5" d="m213.18,294.27h110.11V11.17h-110.11c-81.69,0-147.94,63.37-147.94,141.55s66.25,141.56,147.94,141.56Z"/>
            <path class="cls-65" d="m213.25,294h109.87V11.44h-109.87c-81.54,0-147.66,63.25-147.66,141.28s66.12,141.29,147.66,141.29Z"/>
            <path class="cls-74" d="m213.32,293.73h109.64V11.71h-109.64c-81.38,0-147.38,63.13-147.38,141.01s66,141.02,147.38,141.02Z"/>
            <path class="cls-62" d="m213.39,293.46h109.41V11.97h-109.41c-81.23,0-147.1,63.01-147.1,140.74s65.87,140.75,147.1,140.75Z"/>
            <path class="cls-4" d="m213.45,293.2h109.18V12.24h-109.18c-81.07,0-146.82,62.89-146.82,140.47s65.74,140.48,146.82,140.48Z"/>
            <path class="cls-60" d="m213.52,292.93h108.95V12.51h-108.95c-80.92,0-146.53,62.77-146.53,140.21s65.62,140.21,146.53,140.21Z"/>
            <path class="cls-71" d="m213.59,292.66h108.72V12.78h-108.72c-80.76,0-146.25,62.65-146.25,139.94s65.49,139.94,146.25,139.94Z"/>
            <path class="cls-79" d="m213.66,292.39h108.49V13.05h-108.49c-80.6,0-145.97,62.53-145.97,139.67s65.37,139.67,145.97,139.67Z"/>
            <path class="cls-73" d="m213.73,292.12h108.25V13.32h-108.25c-80.45,0-145.69,62.41-145.69,139.4s65.24,139.4,145.69,139.4Z"/>
            <path class="cls-53" d="m213.8,291.85h108.02V13.59h-108.02c-80.29,0-145.41,62.29-145.41,139.13s65.11,139.13,145.41,139.13Z"/>
            <path class="cls-40" d="m213.87,291.58h107.79V13.86h-107.79c-80.14,0-145.13,62.17-145.13,138.86s64.99,138.86,145.13,138.86Z"/>
            <path class="cls-2" d="m213.94,291.31h107.56V14.13h-107.56c-79.98,0-144.85,62.05-144.85,138.59s64.86,138.59,144.85,138.59Z"/>
            <path class="cls-57" d="m214.01,291.04h107.33V14.4h-107.33c-79.83,0-144.56,61.92-144.56,138.32s64.74,138.32,144.56,138.32Z"/>
            <path class="cls-37" d="m214.08,290.77h107.1V14.67h-107.1c-79.67,0-144.28,61.8-144.28,138.05s64.61,138.05,144.28,138.05Z"/>
            <path class="cls-36" d="m214.15,290.5h106.86V14.93h-106.86c-79.52,0-144,61.68-144,137.79s64.48,137.78,144,137.78Z"/>
            <path class="cls-50" d="m214.22,290.23h106.63V15.2h-106.63c-79.36,0-143.72,61.56-143.72,137.52s64.36,137.51,143.72,137.51Z"/>
            <path class="cls-44" d="m214.28,289.96h106.4V15.47h-106.4c-79.21,0-143.44,61.44-143.44,137.25s64.23,137.24,143.44,137.24Z"/>
            <path class="cls-77" d="m214.35,289.7h106.17V15.74h-106.17c-79.05,0-143.16,61.32-143.16,136.98s64.11,136.97,143.16,136.97Z"/>
            <path class="cls-19" d="m214.42,289.43h105.94V16.01h-105.94c-78.89,0-142.88,61.2-142.88,136.71s63.98,136.7,142.88,136.7Z"/>
            <path class="cls-35" d="m214.49,289.16h105.71V16.28h-105.71c-78.74,0-142.59,61.08-142.59,136.44s63.86,136.43,142.59,136.43Z"/>
            <path class="cls-27" d="m214.56,288.89h105.47V16.55h-105.47c-78.58,0-142.31,60.96-142.31,136.17s63.73,136.17,142.31,136.17Z"/>
            <path class="cls-80" d="m214.63,288.62h105.24V16.82h-105.24c-78.43,0-142.03,60.84-142.03,135.9s63.6,135.9,142.03,135.9Z"/>
            <path class="cls-29" d="m214.7,288.35h105.01V17.09h-105.01c-78.27,0-141.75,60.72-141.75,135.64s63.48,135.63,141.75,135.63Z"/>
            <path class="cls-1" d="m214.77,288.08h104.78V17.36h-104.78c-78.12,0-141.47,60.6-141.47,135.37s63.35,135.36,141.47,135.36Z"/>
            <path class="cls-55" d="m214.84,287.81h104.55V17.63h-104.55c-77.96,0-141.19,60.48-141.19,135.1s63.23,135.09,141.19,135.09Z"/>
            <path class="cls-11" d="m214.91,287.54h104.32V17.89h-104.32c-77.81,0-140.91,60.36-140.91,134.83s63.1,134.82,140.91,134.82Z"/>
            <path class="cls-11" d="m214.98,287.27h104.08V18.16h-104.08c-77.65,0-140.62,60.24-140.62,134.56s62.97,134.55,140.62,134.55Z"/>
            <path class="cls-39" d="m215.04,287h103.85V18.43h-103.85c-77.5,0-140.34,60.12-140.34,134.29s62.85,134.28,140.34,134.28Z"/>
            <path class="cls-66" d="m215.11,286.73h103.62V18.7h-103.62c-77.34,0-140.06,60-140.06,134.02s62.72,134.01,140.06,134.01Z"/>
            <path class="cls-13" d="m215.18,286.46h103.39V18.97h-103.39c-77.19,0-139.78,59.88-139.78,133.75s62.6,133.74,139.78,133.74Z"/>
            <path class="cls-33" d="m215.25,286.19h103.16V19.24h-103.16c-77.03,0-139.5,59.76-139.5,133.48s62.47,133.47,139.5,133.47Z"/>
            <path class="cls-24" d="m215.32,285.93h102.93V19.51h-102.93c-76.87,0-139.22,59.63-139.22,133.22s62.34,133.2,139.22,133.2Z"/>
            <path class="cls-54" d="m215.39,285.66h102.7V19.78h-102.7c-76.72,0-138.94,59.51-138.94,132.95s62.22,132.93,138.94,132.93Z"/>
            <path class="cls-38" d="m215.46,285.39h102.46V20.05h-102.46c-76.56,0-138.66,59.39-138.66,132.68s62.09,132.66,138.66,132.66Z"/>
            <path class="cls-52" d="m215.53,285.12h102.23V20.32h-102.23c-76.41,0-138.37,59.27-138.37,132.41s61.97,132.39,138.37,132.39Z"/>
            <path class="cls-69" d="m215.6,284.85h102V20.59h-102c-76.25,0-138.09,59.15-138.09,132.14s61.84,132.12,138.09,132.12Z"/>
            <path class="cls-9" d="m215.67,284.58h101.77V20.85h-101.77c-76.1,0-137.81,59.03-137.81,131.87s61.71,131.85,137.81,131.85Z"/>
            <path class="cls-72" d="m215.74,284.31h101.54V21.12h-101.54c-75.94,0-137.53,58.91-137.53,131.6s61.59,131.58,137.53,131.58Z"/>
            <path class="cls-32" d="m215.8,284.04h101.31V21.39h-101.31c-75.79,0-137.25,58.79-137.25,131.33s61.46,131.31,137.25,131.31Z"/>
            <path class="cls-64" d="m215.87,283.77h101.07V21.66h-101.07c-75.63,0-136.97,58.67-136.97,131.07s61.34,131.04,136.97,131.04Z"/>
            <path class="cls-67" d="m215.94,283.5h100.84V21.93h-100.84c-75.48,0-136.69,58.55-136.69,130.8s61.21,130.77,136.69,130.77Z"/>
            <path class="cls-58" d="m216.01,283.23h100.61V22.2h-100.61c-75.32,0-136.4,58.43-136.4,130.53s61.08,130.51,136.4,130.51Z"/>
            <path class="cls-8" d="m216.08,282.96h100.38V22.47h-100.38c-75.16,0-136.12,58.31-136.12,130.26s60.96,130.24,136.12,130.24Z"/>
            <path class="cls-12" d="m216.15,282.69h100.15V22.74h-100.15c-75.01,0-135.84,58.19-135.84,129.99s60.83,129.97,135.84,129.97Z"/>
            <path class="cls-25" d="m216.22,282.43h99.92V23.01h-99.92c-74.85,0-135.56,58.07-135.56,129.72s60.71,129.7,135.56,129.7Z"/>
            <path class="cls-41" d="m216.29,282.16h99.68V23.28h-99.68c-74.7,0-135.28,57.95-135.28,129.45s60.58,129.43,135.28,129.43Z"/>
            <path class="cls-28" d="m216.36,281.89h99.45V23.55h-99.45c-74.54,0-135,57.83-135,129.18s60.45,129.16,135,129.16Z"/>
            <path class="cls-70" d="m216.43,281.62h99.22V23.81h-99.22c-74.39,0-134.72,57.71-134.72,128.91s60.33,128.89,134.72,128.89Z"/>
            <path class="cls-7" d="m216.5,281.35h98.99V24.08h-98.99c-74.23,0-134.43,57.59-134.43,128.65s60.2,128.62,134.43,128.62Z"/>
            <path class="cls-75" d="m216.57,281.08h98.76V24.35h-98.76c-74.08,0-134.15,57.47-134.15,128.38s60.08,128.35,134.15,128.35Z"/>
            <path class="cls-31" d="m216.63,280.81h98.53V24.62h-98.53c-73.92,0-133.87,57.34-133.87,128.11s59.95,128.08,133.87,128.08Z"/>
            <path class="cls-61" d="m216.7,280.54h98.29V24.89h-98.29c-73.77,0-133.59,57.22-133.59,127.84s59.82,127.81,133.59,127.81Z"/>
            <path class="cls-56" d="m216.77,280.27h98.06V25.16h-98.06c-73.61,0-133.31,57.1-133.31,127.57s59.7,127.54,133.31,127.54Z"/>
            <path class="cls-18" d="m216.84,280h97.83V25.43h-97.83c-73.45,0-133.03,56.98-133.03,127.3s59.57,127.27,133.03,127.27Z"/>
            <path class="cls-56" d="m216.77,279.13h97.38V26.3h-97.38c-72.95,0-132.12,56.59-132.12,126.43s59.17,126.4,132.12,126.4Z"/>
            <path class="cls-61" d="m216.7,278.27h96.92V27.17h-96.92c-72.45,0-131.21,56.2-131.21,125.56s58.76,125.53,131.21,125.53Z"/>
            <path class="cls-31" d="m216.63,277.4h96.47V28.04h-96.47c-71.95,0-130.3,55.82-130.3,124.69s58.35,124.67,130.3,124.67Z"/>
            <path class="cls-75" d="m216.56,276.53h96.02V28.9h-96.02c-71.45,0-129.39,55.43-129.39,123.83s57.95,123.8,129.39,123.8Z"/>
            <path class="cls-7" d="m216.48,275.66h95.56V29.77h-95.56c-70.95,0-128.49,55.04-128.49,122.96s57.54,122.93,128.49,122.93Z"/>
            <path class="cls-70" d="m216.41,274.79h95.11V30.64h-95.11c-70.44,0-127.58,54.65-127.58,122.09s57.13,122.06,127.58,122.06Z"/>
            <path class="cls-28" d="m216.34,273.92h94.66V31.51h-94.66c-69.94,0-126.67,54.26-126.67,121.22s56.73,121.19,126.67,121.19Z"/>
            <path class="cls-41" d="m216.27,273.05h94.2V32.38h-94.2c-69.44,0-125.76,53.87-125.76,120.35s56.32,120.33,125.76,120.33Z"/>
            <path class="cls-25" d="m216.2,272.19h93.75V33.25h-93.75c-68.94,0-124.85,53.48-124.85,119.48s55.91,119.46,124.85,119.46Z"/>
            <path class="cls-12" d="m216.13,271.32h93.3V34.12h-93.3c-68.44,0-123.94,53.09-123.94,118.61s55.51,118.59,123.94,118.59Z"/>
            <path class="cls-8" d="m216.06,270.45h92.84V34.99h-92.84c-67.94,0-123.04,52.7-123.04,117.74s55.1,117.72,123.04,117.72Z"/>
            <path class="cls-58" d="m215.98,269.58h92.39V35.85h-92.39c-67.43,0-122.13,52.31-122.13,116.87s54.69,116.85,122.13,116.85Z"/>
            <path class="cls-67" d="m215.91,268.71h91.94V36.72h-91.94c-66.93,0-121.22,51.92-121.22,116s54.29,115.98,121.22,115.98Z"/>
            <path class="cls-64" d="m215.84,267.84h91.48V37.59h-91.48c-66.43,0-120.31,51.53-120.31,115.13s53.88,115.12,120.31,115.12Z"/>
            <path class="cls-32" d="m215.77,266.97h91.03V38.46h-91.03c-65.93,0-119.4,51.14-119.4,114.27s53.47,114.25,119.4,114.25Z"/>
            <path class="cls-72" d="m215.7,266.11h90.57V39.33h-90.57c-65.43,0-118.49,50.75-118.49,113.4s53.07,113.38,118.49,113.38Z"/>
            <path class="cls-9" d="m215.63,265.24h90.12V40.2h-90.12c-64.93,0-117.59,50.36-117.59,112.53s52.66,112.51,117.59,112.51Z"/>
            <path class="cls-69" d="m215.56,264.37h89.67V41.07h-89.67c-64.42,0-116.68,49.98-116.68,111.66s52.25,111.64,116.68,111.64Z"/>
            <path class="cls-52" d="m215.48,263.5h89.21V41.94h-89.21c-63.92,0-115.77,49.59-115.77,110.79s51.85,110.77,115.77,110.77Z"/>
            <path class="cls-38" d="m215.41,262.63h88.76V42.8h-88.76c-63.42,0-114.86,49.2-114.86,109.92s51.44,109.91,114.86,109.91Z"/>
            <path class="cls-54" d="m215.34,261.76h88.31V43.67h-88.31c-62.92,0-113.95,48.81-113.95,109.05s51.04,109.04,113.95,109.04Z"/>
            <path class="cls-24" d="m215.27,260.89h87.85V44.54h-87.85c-62.42,0-113.05,48.42-113.05,108.18s50.63,108.17,113.05,108.17Z"/>
            <path class="cls-33" d="m215.2,260.03h87.4V45.41h-87.4c-61.91,0-112.14,48.03-112.14,107.31s50.22,107.3,112.14,107.3Z"/>
            <path class="cls-33" d="m215.13,259.16h86.95V46.28h-86.95c-61.41,0-111.23,47.64-111.23,106.44s49.82,106.43,111.23,106.43Z"/>
            <path class="cls-13" d="m215.05,258.29h86.49V47.15h-86.49c-60.91,0-110.32,47.25-110.32,105.57s49.41,105.57,110.32,105.57Z"/>
            <path class="cls-66" d="m214.98,257.42h86.04V48.02h-86.04c-60.41,0-109.41,46.86-109.41,104.71s49,104.7,109.41,104.7Z"/>
            <path class="cls-39" d="m214.91,256.55h85.59V48.89h-85.59c-59.91,0-108.5,46.47-108.5,103.84s48.6,103.83,108.5,103.83Z"/>
            <path class="cls-11" d="m214.84,255.68h85.13V49.75h-85.13c-59.41,0-107.6,46.08-107.6,102.97s48.19,102.96,107.6,102.96Z"/>
            <path class="cls-55" d="m214.77,254.81h84.68V50.62h-84.68c-58.9,0-106.69,45.69-106.69,102.1s47.78,102.09,106.69,102.09Z"/>
            <path class="cls-1" d="m214.7,253.95h84.22V51.49h-84.22c-58.4,0-105.78,45.3-105.78,101.23s47.38,101.22,105.78,101.22Z"/>
            <path class="cls-29" d="m214.63,253.08h83.77V52.36h-83.77c-57.9,0-104.87,44.91-104.87,100.36s46.97,100.36,104.87,100.36Z"/>
            <path class="cls-80" d="m214.55,252.21h83.32V53.23h-83.32c-57.4,0-103.96,44.53-103.96,99.49s46.56,99.49,103.96,99.49Z"/>
            <path class="cls-27" d="m214.48,251.34h82.86V54.1h-82.86c-56.9,0-103.05,44.14-103.05,98.62s46.16,98.62,103.05,98.62Z"/>
            <path class="cls-35" d="m214.41,250.47h82.41V54.97h-82.41c-56.4,0-102.15,43.75-102.15,97.75s45.75,97.75,102.15,97.75Z"/>
            <path class="cls-19" d="m214.34,249.6h81.96V55.84h-81.96c-55.89,0-101.24,43.36-101.24,96.88s45.34,96.88,101.24,96.88Z"/>
            <path class="cls-77" d="m214.27,248.73h81.5V56.7h-81.5c-55.39,0-100.33,42.97-100.33,96.02s44.94,96.01,100.33,96.01Z"/>
            <path class="cls-44" d="m214.2,247.87h81.05V57.57h-81.05c-54.89,0-99.42,42.58-99.42,95.15s44.53,95.15,99.42,95.15Z"/>
            <path class="cls-50" d="m214.13,247h80.6V58.44h-80.6c-54.39,0-98.51,42.19-98.51,94.28s44.12,94.28,98.51,94.28Z"/>
            <path class="cls-36" d="m214.05,246.13h80.14V59.31h-80.14c-53.89,0-97.6,41.8-97.6,93.41s43.72,93.41,97.6,93.41Z"/>
            <path class="cls-37" d="m213.98,245.26h79.69V60.18h-79.69c-53.39,0-96.7,41.41-96.7,92.54s43.31,92.54,96.7,92.54Z"/>
            <path class="cls-57" d="m213.91,244.39h79.24V61.05h-79.24c-52.88,0-95.79,41.02-95.79,91.67s42.9,91.67,95.79,91.67Z"/>
            <path class="cls-2" d="m213.84,243.52h78.78V61.92h-78.78c-52.38,0-94.88,40.63-94.88,90.8s42.5,90.81,94.88,90.81Z"/>
            <path class="cls-40" d="m213.77,242.65h78.33V62.79h-78.33c-51.88,0-93.97,40.24-93.97,89.93s42.09,89.94,93.97,89.94Z"/>
            <path class="cls-53" d="m213.7,241.79h77.88V63.65h-77.88c-51.38,0-93.06,39.85-93.06,89.06s41.68,89.07,93.06,89.07Z"/>
            <path class="cls-73" d="m213.63,240.92h77.42V64.52h-77.42c-50.88,0-92.15,39.46-92.15,88.19s41.28,88.2,92.15,88.2Z"/>
            <path class="cls-79" d="m213.55,240.05h76.97V65.39h-76.97c-50.38,0-91.25,39.08-91.25,87.32s40.87,87.33,91.25,87.33Z"/>
          </g>
          <path class="cls-15" d="m216.84,280h97.83V25.43h-97.83c-73.45,0-133.03,56.98-133.03,127.3s59.57,127.27,133.03,127.27Z"/>
          <g>
            <path class="cls-21" d="m237.04,152.71c0,10.3-9.76,18.62-21.75,18.62s-21.77-8.33-21.77-18.62,9.77-18.6,21.77-18.6,21.75,8.33,21.75,18.6Z"/>
            <path class="cls-17" d="m231.25,152.71c0,7.55-7.16,13.67-15.96,13.67s-15.97-6.11-15.97-13.67,7.17-13.64,15.97-13.64,15.96,6.11,15.96,13.64Z"/>
          </g>
          <g>
            <g>
              <path class="cls-21" d="m337.62,210.91c-4.68-.05-8.43-3.32-8.39-7.31l1.14-101.94c.05-3.99,3.87-7.19,8.55-7.15h1.29c4.68.05,8.43,3.33,8.39,7.32l-1.14,101.94c-.05,3.99-3.86,7.18-8.54,7.14h-1.29Z"/>
              <path class="cls-3" d="m337.83,207.13c-3.38-.03-6.1-2.4-6.06-5.29l1.1-98.39c.03-2.88,2.8-5.2,6.18-5.16h.93c3.39.04,6.11,2.41,6.07,5.3l-1.1,98.39c-.03,2.89-2.8,5.2-6.19,5.17l-.93-.02Z"/>
            </g>
            <g>
              <path class="cls-34" d="m338.73,169.36c-10.77-.1-19.42-7.64-19.31-16.83.1-9.2,8.92-16.56,19.68-16.46,10.77.11,19.41,7.64,19.31,16.84-.1,9.19-8.92,16.56-19.68,16.45Z"/>
              <path class="cls-43" d="m338.73,168.76c-10.38-.1-18.72-7.36-18.62-16.22.1-8.86,8.6-15.96,18.97-15.86,10.38.1,18.71,7.36,18.62,16.23-.09,8.86-8.6,15.96-18.97,15.86Z"/>
              <path class="cls-26" d="m338.74,168.16c-9.99-.09-18.02-7.09-17.92-15.61.09-8.53,8.27-15.36,18.26-15.27,9.99.1,18.01,7.09,17.92,15.62-.09,8.52-8.27,15.36-18.26,15.26Z"/>
              <path class="cls-30" d="m338.75,167.56c-9.6-.09-17.32-6.81-17.22-15.01.09-8.2,7.95-14.76,17.55-14.67,9.6.1,17.31,6.81,17.22,15.01-.09,8.19-7.95,14.76-17.55,14.67Z"/>
              <path class="cls-47" d="m338.75,166.95c-9.21-.09-16.61-6.53-16.52-14.4.09-7.87,7.63-14.16,16.84-14.08,9.21.09,16.61,6.54,16.52,14.4-.08,7.86-7.63,14.16-16.84,14.07Z"/>
              <path class="cls-56" d="m338.76,166.35c-8.82-.08-15.91-6.26-15.83-13.79.08-7.53,7.31-13.57,16.13-13.48,8.82.09,15.9,6.26,15.82,13.79-.08,7.53-7.31,13.57-16.13,13.48Z"/>
              <path class="cls-23" d="m338.77,165.75c-8.44-.08-15.21-5.98-15.13-13.18.08-7.2,6.99-12.97,15.42-12.89,8.43.09,15.2,5.99,15.12,13.19-.07,7.2-6.98,12.97-15.41,12.88Z"/>
              <path class="cls-72" d="m338.77,165.15c-8.05-.08-14.51-5.71-14.43-12.58.08-6.87,6.67-12.37,14.71-12.29,8.04.08,14.5,5.71,14.42,12.58-.07,6.86-6.66,12.37-14.7,12.29Z"/>
              <path class="cls-33" d="m338.78,164.55c-7.66-.07-13.81-5.43-13.73-11.97.07-6.53,6.34-11.77,14-11.7,7.65.08,13.8,5.44,13.73,11.97-.07,6.53-6.34,11.77-13.99,11.7Z"/>
              <path class="cls-29" d="m338.78,163.95c-7.27-.07-13.11-5.15-13.03-11.36.07-6.2,6.02-11.17,13.29-11.1,7.26.08,13.1,5.16,13.03,11.36-.06,6.2-6.01,11.17-13.28,11.1Z"/>
              <path class="cls-36" d="m338.79,163.35c-6.88-.07-12.4-4.88-12.34-10.75.07-5.87,5.7-10.57,12.57-10.51,6.88.07,12.39,4.89,12.33,10.75-.06,5.87-5.69,10.57-12.57,10.51Z"/>
              <path class="cls-79" d="m338.8,162.74c-6.49-.06-11.7-4.6-11.64-10.14.06-5.53,5.38-9.98,11.86-9.91,6.49.07,11.69,4.61,11.63,10.14-.05,5.53-5.37,9.98-11.86,9.91Z"/>
            </g>
            <g>
              <path class="cls-21" d="m267.05,161.82c-4.68-.05-8.43-3.31-8.39-7.31l.06-5.49c.05-3.99,3.87-7.19,8.55-7.15l73.38.89c4.68.05,8.43,3.31,8.39,7.31l-.06,5.49c-.05,3.99-3.87,7.19-8.55,7.15l-73.38-.89Z"/>
              <path class="cls-63" d="m269.97,158.57c-3.14-.03-5.65-2.23-5.62-4.9l.04-3.68c.03-2.68,2.6-4.83,5.74-4.79l70.12.86c3.13.03,5.66,2.22,5.62,4.9l-.04,3.68c-.04,2.67-2.59,4.82-5.74,4.79l-70.12-.85Z"/>
            </g>
            <g>
              <g>
                <g>
                  <path class="cls-34" d="m339.36,113.09c-9.04-.09-16.31-6.42-16.22-14.14.08-7.72,7.49-13.9,16.52-13.81,9.04.09,16.31,6.42,16.22,14.14-.08,7.72-7.49,13.9-16.52,13.81Z"/>
                  <path class="cls-43" d="m339.36,112.6c-8.73-.09-15.74-6.2-15.65-13.65.08-7.45,7.23-13.42,15.95-13.34,8.73.09,15.74,6.2,15.65,13.65-.08,7.45-7.23,13.42-15.95,13.34Z"/>
                  <path class="cls-26" d="m339.37,112.12c-8.42-.09-15.18-5.98-15.09-13.16.08-7.18,6.97-12.94,15.38-12.86,8.42.09,15.18,5.98,15.09,13.16-.08,7.18-6.97,12.94-15.38,12.86Z"/>
                  <path class="cls-30" d="m339.37,111.63c-8.1-.08-14.61-5.75-14.53-12.67.07-6.91,6.71-12.45,14.81-12.38,8.1.08,14.61,5.75,14.53,12.67-.07,6.92-6.71,12.45-14.81,12.38Z"/>
                  <path class="cls-47" d="m339.38,111.15c-7.79-.08-14.04-5.53-13.97-12.18.07-6.65,6.45-11.97,14.23-11.9,7.79.08,14.04,5.53,13.97,12.18-.07,6.65-6.45,11.97-14.23,11.9Z"/>
                  <path class="cls-56" d="m339.38,110.66c-7.48-.07-13.48-5.31-13.41-11.69.07-6.38,6.19-11.49,13.66-11.42,7.48.07,13.48,5.31,13.41,11.69-.07,6.38-6.19,11.49-13.66,11.42Z"/>
                  <path class="cls-23" d="m339.39,110.18c-7.16-.07-12.91-5.08-12.84-11.2.07-6.11,5.93-11.01,13.09-10.94,7.16.07,12.91,5.08,12.84,11.2-.07,6.11-5.93,11.01-13.09,10.94Z"/>
                  <path class="cls-72" d="m339.39,109.7c-6.85-.07-12.35-4.86-12.28-10.71.06-5.84,5.67-10.53,12.52-10.46,6.85.07,12.35,4.86,12.28,10.71-.06,5.85-5.67,10.53-12.52,10.46Z"/>
                  <path class="cls-33" d="m339.4,109.21c-6.54-.06-11.78-4.64-11.72-10.22.06-5.57,5.41-10.05,11.95-9.98,6.54.06,11.78,4.64,11.72,10.22-.06,5.58-5.41,10.05-11.95,9.98Z"/>
                  <path class="cls-29" d="m339.4,108.73c-6.22-.06-11.22-4.42-11.16-9.73.06-5.31,5.15-9.57,11.38-9.51,6.22.06,11.22,4.42,11.16,9.73-.06,5.31-5.16,9.57-11.38,9.51Z"/>
                  <path class="cls-36" d="m339.41,108.24c-5.91-.06-10.65-4.19-10.6-9.24.06-5.04,4.89-9.08,10.81-9.03,5.91.06,10.65,4.19,10.6,9.24-.06,5.05-4.9,9.08-10.81,9.03Z"/>
                  <path class="cls-79" d="m339.41,107.76c-5.59-.05-10.09-3.97-10.04-8.75.05-4.77,4.63-8.6,10.23-8.55,5.59.05,10.09,3.97,10.04,8.75-.05,4.78-4.64,8.6-10.23,8.55Z"/>
                </g>
                <path class="cls-51" d="m339.41,107.76c-5.59-.05-10.09-3.97-10.04-8.75.05-4.77,4.63-8.6,10.23-8.55,5.59.05,10.09,3.97,10.04,8.75-.05,4.78-4.64,8.6-10.23,8.55Z"/>
              </g>
              <g>
                <g>
                  <path class="cls-34" d="m338.16,220.3c-9.05-.09-16.31-6.41-16.22-14.13.08-7.72,7.48-13.91,16.52-13.81,9.04.08,16.31,6.41,16.22,14.13-.08,7.72-7.49,13.9-16.52,13.81Z"/>
                  <path class="cls-43" d="m338.16,219.81c-8.73-.09-15.74-6.19-15.65-13.64.08-7.45,7.23-13.42,15.95-13.34,8.73.08,15.74,6.19,15.65,13.64-.08,7.45-7.23,13.42-15.95,13.34Z"/>
                  <path class="cls-26" d="m338.17,219.33c-8.42-.09-15.18-5.97-15.09-13.15.08-7.18,6.97-12.94,15.38-12.86,8.42.08,15.18,5.97,15.09,13.15-.08,7.18-6.97,12.94-15.38,12.86Z"/>
                  <path class="cls-30" d="m338.17,218.85c-8.1-.08-14.61-5.75-14.53-12.66.07-6.91,6.71-12.46,14.81-12.38,8.1.08,14.61,5.75,14.53,12.66-.07,6.92-6.71,12.45-14.81,12.38Z"/>
                  <path class="cls-47" d="m338.18,218.36c-7.79-.08-14.04-5.53-13.97-12.17.07-6.65,6.45-11.98,14.23-11.9,7.79.07,14.04,5.53,13.97,12.17-.07,6.65-6.45,11.97-14.23,11.9Z"/>
                  <path class="cls-56" d="m338.18,217.88c-7.48-.07-13.48-5.3-13.41-11.68.07-6.38,6.19-11.5,13.66-11.42,7.48.07,13.48,5.3,13.41,11.68-.07,6.38-6.19,11.49-13.66,11.42Z"/>
                  <path class="cls-23" d="m338.19,217.39c-7.16-.07-12.91-5.08-12.84-11.2.07-6.11,5.93-11.01,13.09-10.94,7.16.07,12.91,5.08,12.84,11.2-.07,6.11-5.93,11.01-13.09,10.94Z"/>
                  <path class="cls-72" d="m338.19,216.91c-6.85-.07-12.35-4.86-12.28-10.71.06-5.84,5.67-10.53,12.52-10.46,6.85.07,12.35,4.86,12.28,10.71-.06,5.85-5.67,10.53-12.52,10.46Z"/>
                  <path class="cls-33" d="m338.2,216.42c-6.54-.06-11.78-4.64-11.72-10.22.06-5.57,5.41-10.05,11.95-9.98,6.54.06,11.78,4.64,11.72,10.22-.06,5.58-5.42,10.05-11.95,9.98Z"/>
                  <path class="cls-29" d="m338.2,215.94c-6.22-.06-11.22-4.41-11.16-9.73.06-5.31,5.15-9.57,11.38-9.51,6.22.06,11.22,4.41,11.16,9.73-.06,5.31-5.16,9.57-11.38,9.51Z"/>
                  <path class="cls-36" d="m338.21,215.46c-5.91-.06-10.65-4.19-10.6-9.24.06-5.04,4.89-9.09,10.81-9.03,5.91.06,10.65,4.19,10.6,9.24-.06,5.05-4.9,9.08-10.81,9.03Z"/>
                  <path class="cls-79" d="m338.21,214.97c-5.59-.05-10.09-3.97-10.04-8.75.05-4.77,4.63-8.6,10.23-8.55,5.59.05,10.09,3.97,10.04,8.75-.05,4.78-4.64,8.6-10.23,8.55Z"/>
                </g>
                <path class="cls-49" d="m338.21,214.97c-5.59-.05-10.09-3.97-10.04-8.75.05-4.77,4.63-8.6,10.23-8.55,5.59.05,10.09,3.97,10.04,8.75-.05,4.78-4.64,8.6-10.23,8.55Z"/>
              </g>
            </g>
          </g>
          <path class="cls-45" d="m212.81,305.42h166.24V.01h-166.24C124.68.01,53.22,68.38,53.22,152.72s71.45,152.7,159.58,152.7Z"/>
        </g>
      </g>
    </g>
  </g>
</svg>