<?xml version="1.0" encoding="UTF-8"?>
<svg id="Layer_1" data-name="Layer 1" xmlns="http://www.w3.org/2000/svg" viewBox="0 0 75.25 54.41">
  <defs>
    <style>
      .cls-1 {
        fill: #f0f0f0;
      }

      .cls-2 {
        fill: #fff;
      }

      .cls-3 {
        fill: #f7f8f8;
      }

      .cls-4 {
        fill: #fafafa;
      }

      .cls-5 {
        fill: #939598;
      }

      .cls-6 {
        fill: #ebecec;
      }

      .cls-7 {
        fill: #e6e7e7;
      }

      .cls-8 {
        fill: #f6f7f7;
      }

      .cls-9 {
        fill: #f3f4f4;
      }

      .cls-10 {
        fill: #e5e6e6;
      }

      .cls-11 {
        fill: none;
        stroke: #26281e;
        stroke-linecap: round;
        stroke-linejoin: round;
        stroke-width: .72px;
      }

      .cls-12 {
        fill: #f5f6f6;
      }

      .cls-13 {
        fill: #6d6e71;
      }

      .cls-14 {
        fill: #e7e8e8;
      }

      .cls-15 {
        fill: #fdfdfd;
      }

      .cls-16 {
        fill: #fbfbfb;
      }

      .cls-17 {
        fill: #f9f9f9;
      }

      .cls-18 {
        fill: #808285;
      }

      .cls-19 {
        fill: #e9eaea;
      }

      .cls-20 {
        fill: #cccdcf;
      }

      .cls-21 {
        fill: #e8e9e9;
      }

      .cls-22 {
        fill: #f4f5f5;
      }

      .cls-23 {
        fill: #efefef;
      }

      .cls-24 {
        fill: #eaebeb;
      }

      .cls-25 {
        fill: #f1f1f1;
      }

      .cls-26 {
        fill: #eee;
      }

      .cls-27 {
        fill: #ececec;
      }

      .cls-28 {
        fill: #f2f3f3;
      }

      .cls-29 {
        fill: #f8f9f9;
      }

      .cls-30 {
        fill: #f2f2f2;
      }

      .cls-31 {
        fill: #26281e;
      }

      .cls-32 {
        fill: #fefefe;
      }

      .cls-33 {
        fill: #fcfcfc;
      }

      .cls-34 {
        fill: #ededed;
      }
    </style>
  </defs>
  <g>
    <path class="cls-5" d="m75.1,27.09l-.15-.91-.15-.91-.15-.91-.24-.62-5.95-19.62H10.93l-5.94,19.62-.25.62-.15.91-.15.91-.15.91-.15.91v2.87l.15.91.15.91.15.91.3.91.3.75.3.91.45.91.45.91.45.76.45.91.6.75.6.91.6.75.6.76.75.75.75.75.91.75.75.6.91.75.91.6.91.6.91.6,1.06.6,1.06.6,1.06.6,1.06.45,1.06.45,1.21.45,1.06.45,1.21.3,1.21.45,1.21.3,1.21.3,1.21.15,1.21.3,1.36.15,1.21.15,1.36.15,1.21.15h1.36l1.21.15h1.36l1.21-.15h1.36l1.21-.15,1.36-.15,1.21-.15,1.36-.15,1.21-.3,1.21-.15,1.21-.3,1.21-.3,1.21-.45,1.21-.3,1.06-.45,1.21-.45,1.06-.45,1.06-.45,1.06-.6,1.06-.6,1.06-.6.91-.6.91-.6.91-.6.91-.75.91-.6.75-.75.75-.75.76-.75.6-.76.6-.75.6-.91.6-.75.45-.91.45-.76.45-.91.45-.91.3-.91.3-.75.3-.91.15-.91.15-.91.15-.91v-2.87l-.15-.91ZM39.84,5.49c.7,0,1.28.57,1.28,1.28s-.58,1.28-1.28,1.28-1.28-.58-1.28-1.28.57-1.28,1.28-1.28Zm30.12,23.71v.91l-.15.75-.15.91-.15.91-.3.91-.45.75-.3.91-.45.91-.6.91-.6.75-.3.45-.3.45-.76.75-.91.91-.76.76-1.06.75-.91.75-1.06.75-1.21.6-1.21.6-1.21.75-1.21.45-1.36.6-1.36.45-1.36.45-1.51.45-1.36.3-1.51.3-1.51.15-1.66.3h-1.51l-1.51.15h-3.17l-1.51-.15h-1.51l-1.51-.3-1.66-.15-1.36-.3-1.51-.3-1.51-.45-1.36-.45-1.36-.45-1.36-.6-1.21-.45-1.21-.75-1.21-.6-1.21-.6-1.06-.75-.91-.75-.91-.75-.91-.76-.91-.91-.3-.3-.45-.45-.6-.91-.6-.75-.6-.91-.45-.91-.3-.91-.45-.75-.15-.91-.3-.91-.15-.91v-.75l-.15-.91.15-.91v-.75l.15-.91.3-.91.15-.91.45-.76.3-.91.45-.91.6-.75.6-.91.6-.91.45-.3.3-.45.45-.45.45-.45.91-.75.91-.75.91-.76,1.06-.75,1.21-.6,1.21-.6,1.21-.6,1.21-.6,1.36-.6,1.36-.45,1.36-.45,1.51-.3,1.51-.45,1.36-.3,1.66-.15,1.51-.15,1.51-.15,1.51-.15h3.17l1.51.15,1.51.15,1.66.15,1.51.15,1.51.3,1.36.45,1.51.3,1.36.45,1.36.45,1.36.6,1.21.6,1.21.6,1.21.6,1.21.6,1.06.75.91.76,1.06.75.76.75.45.45.45.45.3.45.45.3.6.91.6.91.6.75.45.91.3.91.45.76.3.91.15.91.15.91.15.75v.91Z"/>
    <path class="cls-5" d="m39.84,12.89c-2.21,0-4,1.79-4,4s1.79,4,4,4,4-1.8,4-4-1.8-4-4-4Zm0,6.19c-1.22,0-2.19-.98-2.19-2.19s.97-2.19,2.19-2.19,2.19.98,2.19,2.19-.98,2.19-2.19,2.19Z"/>
  </g>
  <g>
    <g>
      <polygon class="cls-10" points="5.79 25.38 5.94 26.28 5.94 27.03 6.09 27.93 6.39 28.84 6.54 29.74 6.99 30.49 7.29 31.39 7.75 32.29 8.35 33.19 8.95 33.94 9.55 34.85 10 35.3 10.3 35.6 11.2 36.5 12.1 37.25 13 38 13.9 38.75 14.96 39.5 16.16 40.1 17.36 40.7 18.56 41.46 19.76 41.91 21.12 42.51 22.47 42.96 23.82 43.41 25.32 43.86 26.82 44.16 28.18 44.46 29.83 44.61 31.33 44.91 32.83 44.91 34.34 45.06 35.99 45.06 37.49 45.06 38.99 44.91 40.49 44.91 42.15 44.61 43.65 44.46 45.15 44.16 46.5 43.86 48.01 43.41 49.36 42.96 50.71 42.51 52.06 41.91 53.26 41.46 54.47 40.7 55.67 40.1 56.87 39.5 57.92 38.75 58.82 38 59.87 37.25 60.62 36.5 61.53 35.6 62.28 34.85 62.58 34.39 62.88 33.94 63.48 33.19 64.08 32.29 64.53 31.39 64.83 30.49 65.28 29.74 65.58 28.84 65.73 27.93 65.88 27.03 66.03 26.28 66.03 25.38 66.03 24.48 65.88 23.73 65.73 22.83 65.58 21.93 65.28 21.02 64.83 20.27 64.53 19.37 64.08 18.47 63.48 17.72 62.88 16.82 62.28 15.92 61.83 15.62 61.53 15.17 61.08 14.72 60.62 14.26 59.87 13.51 58.82 12.76 57.92 12.01 56.87 11.26 55.67 10.66 54.47 10.06 53.26 9.46 52.06 8.86 50.71 8.26 49.36 7.8 48.01 7.35 46.5 7.05 45.15 6.6 43.65 6.3 42.15 6.15 40.49 6 38.99 5.85 37.49 5.7 35.99 5.7 34.34 5.7 32.83 5.85 31.33 6 29.83 6.15 28.18 6.3 26.82 6.6 25.32 7.05 23.82 7.35 22.47 7.8 21.12 8.26 19.76 8.86 18.56 9.46 17.36 10.06 16.16 10.66 14.96 11.26 13.9 12.01 13 12.76 12.1 13.51 11.2 14.26 10.75 14.72 10.3 15.17 10 15.62 9.55 15.92 8.95 16.82 8.35 17.72 7.75 18.47 7.29 19.37 6.99 20.27 6.54 21.02 6.39 21.93 6.09 22.83 5.94 23.73 5.94 24.48 5.79 25.38 5.79 25.38"/>
      <polygon class="cls-7" points="6.02 25.32 6.17 26.22 6.17 26.96 6.32 27.85 6.62 28.75 6.77 29.64 7.22 30.39 7.51 31.28 7.96 32.18 8.56 33.07 9.15 33.82 9.75 34.71 10.2 35.16 10.5 35.46 11.39 36.35 12.28 37.1 13.18 37.84 14.07 38.59 15.12 39.33 16.31 39.93 17.5 40.53 18.69 41.27 19.89 41.72 21.23 42.31 22.57 42.76 23.91 43.21 25.4 43.66 26.89 43.95 28.24 44.25 29.88 44.4 31.37 44.7 32.86 44.7 34.35 44.85 35.99 44.85 37.48 44.85 38.97 44.7 40.46 44.7 42.1 44.4 43.59 44.25 45.08 43.95 46.42 43.66 47.91 43.21 49.25 42.76 50.6 42.31 51.94 41.72 53.13 41.27 54.32 40.53 55.52 39.93 56.71 39.33 57.75 38.59 58.65 37.84 59.69 37.1 60.43 36.35 61.33 35.46 62.07 34.71 62.37 34.26 62.67 33.82 63.27 33.07 63.86 32.18 64.31 31.28 64.61 30.39 65.06 29.64 65.35 28.75 65.5 27.85 65.65 26.96 65.8 26.22 65.8 25.32 65.8 24.43 65.65 23.68 65.5 22.79 65.35 21.89 65.06 21 64.61 20.25 64.31 19.36 63.86 18.46 63.27 17.72 62.67 16.82 62.07 15.93 61.63 15.63 61.33 15.18 60.88 14.74 60.43 14.29 59.69 13.54 58.65 12.8 57.75 12.05 56.71 11.31 55.52 10.71 54.32 10.12 53.13 9.52 51.94 8.92 50.6 8.33 49.25 7.88 47.91 7.43 46.42 7.13 45.08 6.69 43.59 6.39 42.1 6.24 40.46 6.09 38.97 5.94 37.48 5.79 35.99 5.79 34.35 5.79 32.86 5.94 31.37 6.09 29.88 6.24 28.24 6.39 26.89 6.69 25.4 7.13 23.91 7.43 22.57 7.88 21.23 8.33 19.89 8.92 18.69 9.52 17.5 10.12 16.31 10.71 15.12 11.31 14.07 12.05 13.18 12.8 12.28 13.54 11.39 14.29 10.94 14.74 10.5 15.18 10.2 15.63 9.75 15.93 9.15 16.82 8.56 17.72 7.96 18.46 7.51 19.36 7.22 20.25 6.77 21 6.62 21.89 6.32 22.79 6.17 23.68 6.17 24.43 6.02 25.32 6.02 25.32"/>
      <polygon class="cls-14" points="6.26 25.26 6.4 26.15 6.4 26.89 6.55 27.77 6.85 28.66 7 29.55 7.44 30.29 7.73 31.18 8.18 32.06 8.77 32.95 9.36 33.69 9.95 34.58 10.4 35.02 10.69 35.32 11.58 36.21 12.47 36.95 13.36 37.69 14.24 38.42 15.28 39.16 16.46 39.76 17.65 40.35 18.83 41.09 20.01 41.53 21.34 42.12 22.67 42.57 24.01 43.01 25.48 43.45 26.96 43.75 28.3 44.05 29.92 44.19 31.4 44.49 32.88 44.49 34.36 44.64 35.99 44.64 37.47 44.64 38.94 44.49 40.42 44.49 42.05 44.19 43.53 44.05 45.01 43.75 46.34 43.45 47.82 43.01 49.15 42.57 50.48 42.12 51.81 41.53 53 41.09 54.18 40.35 55.36 39.76 56.55 39.16 57.58 38.42 58.47 37.69 59.5 36.95 60.24 36.21 61.13 35.32 61.87 34.58 62.17 34.14 62.46 33.69 63.05 32.95 63.65 32.06 64.09 31.18 64.39 30.29 64.83 29.55 65.13 28.66 65.27 27.77 65.42 26.89 65.57 26.15 65.57 25.26 65.57 24.37 65.42 23.63 65.27 22.75 65.13 21.86 64.83 20.97 64.39 20.23 64.09 19.34 63.65 18.46 63.05 17.72 62.46 16.83 61.87 15.94 61.43 15.65 61.13 15.2 60.69 14.76 60.24 14.31 59.5 13.57 58.47 12.84 57.58 12.1 56.55 11.36 55.36 10.76 54.18 10.17 53 9.58 51.81 8.99 50.48 8.4 49.15 7.95 47.82 7.51 46.34 7.21 45.01 6.77 43.53 6.48 42.05 6.33 40.42 6.18 38.94 6.03 37.47 5.88 35.99 5.88 34.36 5.88 32.88 6.03 31.4 6.18 29.92 6.33 28.3 6.48 26.96 6.77 25.48 7.21 24.01 7.51 22.67 7.95 21.34 8.4 20.01 8.99 18.83 9.58 17.65 10.17 16.46 10.76 15.28 11.36 14.24 12.1 13.36 12.84 12.47 13.57 11.58 14.31 11.14 14.76 10.69 15.2 10.4 15.65 9.95 15.94 9.36 16.83 8.77 17.72 8.18 18.46 7.73 19.34 7.44 20.23 7 20.97 6.85 21.86 6.55 22.75 6.4 23.63 6.4 24.37 6.26 25.26 6.26 25.26"/>
      <polygon class="cls-21" points="6.49 25.2 6.63 26.08 6.63 26.81 6.78 27.69 7.07 28.57 7.22 29.46 7.66 30.19 7.96 31.07 8.4 31.95 8.98 32.83 9.57 33.56 10.16 34.45 10.6 34.89 10.89 35.18 11.77 36.06 12.65 36.79 13.53 37.53 14.41 38.26 15.44 38.99 16.61 39.58 17.79 40.17 18.96 40.9 20.14 41.34 21.46 41.93 22.78 42.37 24.1 42.81 25.57 43.25 27.03 43.54 28.35 43.84 29.97 43.98 31.44 44.28 32.9 44.28 34.37 44.42 35.99 44.42 37.45 44.42 38.92 44.28 40.39 44.28 42 43.98 43.47 43.84 44.94 43.54 46.26 43.25 47.73 42.81 49.05 42.37 50.37 41.93 51.69 41.34 52.86 40.9 54.04 40.17 55.21 39.58 56.39 38.99 57.41 38.26 58.29 37.53 59.32 36.79 60.05 36.06 60.93 35.18 61.67 34.45 61.96 34.01 62.26 33.56 62.84 32.83 63.43 31.95 63.87 31.07 64.16 30.19 64.6 29.46 64.9 28.57 65.04 27.69 65.19 26.81 65.34 26.08 65.34 25.2 65.34 24.32 65.19 23.59 65.04 22.7 64.9 21.82 64.6 20.94 64.16 20.21 63.87 19.33 63.43 18.45 62.84 17.72 62.26 16.83 61.67 15.95 61.23 15.66 60.93 15.22 60.49 14.78 60.05 14.34 59.32 13.61 58.29 12.87 57.41 12.14 56.39 11.4 55.21 10.82 54.04 10.23 52.86 9.64 51.69 9.06 50.37 8.47 49.05 8.03 47.73 7.59 46.26 7.3 44.94 6.85 43.47 6.56 42 6.41 40.39 6.27 38.92 6.12 37.45 5.97 35.99 5.97 34.37 5.97 32.9 6.12 31.44 6.27 29.97 6.41 28.35 6.56 27.03 6.85 25.57 7.3 24.1 7.59 22.78 8.03 21.46 8.47 20.14 9.06 18.96 9.64 17.79 10.23 16.61 10.82 15.44 11.4 14.41 12.14 13.53 12.87 12.65 13.61 11.77 14.34 11.33 14.78 10.89 15.22 10.6 15.66 10.16 15.95 9.57 16.83 8.98 17.72 8.4 18.45 7.96 19.33 7.66 20.21 7.22 20.94 7.07 21.82 6.78 22.7 6.63 23.59 6.63 24.32 6.49 25.2 6.49 25.2"/>
      <polygon class="cls-19" points="6.72 25.14 6.87 26.01 6.87 26.74 7.01 27.61 7.3 28.49 7.45 29.36 7.88 30.09 8.18 30.96 8.61 31.84 9.19 32.71 9.78 33.44 10.36 34.31 10.8 34.75 11.09 35.04 11.96 35.91 12.83 36.64 13.71 37.37 14.58 38.1 15.6 38.83 16.77 39.41 17.93 39.99 19.1 40.72 20.26 41.16 21.57 41.74 22.88 42.17 24.19 42.61 25.65 43.05 27.1 43.34 28.41 43.63 30.02 43.78 31.47 44.07 32.93 44.07 34.38 44.21 35.99 44.21 37.44 44.21 38.9 44.07 40.35 44.07 41.96 43.78 43.41 43.63 44.87 43.34 46.18 43.05 47.63 42.61 48.94 42.17 50.25 41.74 51.56 41.16 52.73 40.72 53.89 39.99 55.06 39.41 56.22 38.83 57.24 38.1 58.12 37.37 59.14 36.64 59.86 35.91 60.74 35.04 61.47 34.31 61.76 33.88 62.05 33.44 62.63 32.71 63.21 31.84 63.65 30.96 63.94 30.09 64.38 29.36 64.67 28.49 64.81 27.61 64.96 26.74 65.11 26.01 65.11 25.14 65.11 24.27 64.96 23.54 64.81 22.66 64.67 21.79 64.38 20.92 63.94 20.19 63.65 19.32 63.21 18.44 62.63 17.71 62.05 16.84 61.47 15.97 61.03 15.68 60.74 15.24 60.3 14.8 59.86 14.36 59.14 13.64 58.12 12.91 57.24 12.18 56.22 11.45 55.06 10.87 53.89 10.29 52.73 9.71 51.56 9.12 50.25 8.54 48.94 8.1 47.63 7.67 46.18 7.38 44.87 6.94 43.41 6.65 41.96 6.5 40.35 6.36 38.9 6.21 37.44 6.07 35.99 6.07 34.38 6.07 32.93 6.21 31.47 6.36 30.02 6.5 28.41 6.65 27.1 6.94 25.65 7.38 24.19 7.67 22.88 8.1 21.57 8.54 20.26 9.12 19.1 9.71 17.93 10.29 16.77 10.87 15.6 11.45 14.58 12.18 13.71 12.91 12.83 13.64 11.96 14.36 11.52 14.8 11.09 15.24 10.8 15.68 10.36 15.97 9.78 16.84 9.19 17.71 8.61 18.44 8.18 19.32 7.88 20.19 7.45 20.92 7.3 21.79 7.01 22.66 6.87 23.54 6.87 24.27 6.72 25.14 6.72 25.14"/>
      <polygon class="cls-24" points="6.95 25.08 7.1 25.95 7.1 26.67 7.24 27.53 7.53 28.4 7.67 29.27 8.11 29.99 8.4 30.86 8.83 31.72 9.41 32.59 9.98 33.31 10.56 34.18 11 34.61 11.28 34.9 12.15 35.77 13.02 36.49 13.88 37.21 14.75 37.93 15.76 38.66 16.92 39.23 18.07 39.81 19.23 40.53 20.38 40.97 21.68 41.55 22.98 41.98 24.28 42.41 25.73 42.85 27.17 43.13 28.47 43.42 30.06 43.57 31.51 43.86 32.95 43.86 34.4 44 35.98 44 37.43 44 38.87 43.86 40.32 43.86 41.91 43.57 43.35 43.42 44.8 43.13 46.1 42.85 47.54 42.41 48.84 41.98 50.14 41.55 51.44 40.97 52.6 40.53 53.75 39.81 54.91 39.23 56.06 38.66 57.07 37.93 57.94 37.21 58.95 36.49 59.67 35.77 60.54 34.9 61.26 34.18 61.55 33.75 61.84 33.31 62.42 32.59 63 31.72 63.43 30.86 63.72 29.99 64.15 29.27 64.44 28.4 64.58 27.53 64.73 26.67 64.87 25.95 64.87 25.08 64.87 24.21 64.73 23.49 64.58 22.62 64.44 21.76 64.15 20.89 63.72 20.17 63.43 19.3 63 18.43 62.42 17.71 61.84 16.85 61.26 15.98 60.83 15.69 60.54 15.26 60.11 14.82 59.67 14.39 58.95 13.67 57.94 12.95 57.07 12.22 56.06 11.5 54.91 10.92 53.75 10.35 52.6 9.77 51.44 9.19 50.14 8.61 48.84 8.18 47.54 7.75 46.1 7.46 44.8 7.02 43.35 6.73 41.91 6.59 40.32 6.45 38.87 6.3 37.43 6.16 35.98 6.16 34.4 6.16 32.95 6.3 31.51 6.45 30.06 6.59 28.47 6.73 27.17 7.02 25.73 7.46 24.28 7.75 22.98 8.18 21.68 8.61 20.38 9.19 19.23 9.77 18.07 10.35 16.92 10.92 15.76 11.5 14.75 12.22 13.88 12.95 13.02 13.67 12.15 14.39 11.72 14.82 11.28 15.26 11 15.69 10.56 15.98 9.98 16.85 9.41 17.71 8.83 18.43 8.4 19.3 8.11 20.17 7.67 20.89 7.53 21.76 7.24 22.62 7.1 23.49 7.1 24.21 6.95 25.08 6.95 25.08"/>
      <polygon class="cls-6" points="7.18 25.02 7.33 25.88 7.33 26.59 7.47 27.45 7.76 28.31 7.9 29.17 8.33 29.89 8.62 30.75 9.05 31.61 9.62 32.47 10.19 33.19 10.77 34.05 11.2 34.48 11.48 34.76 12.34 35.62 13.2 36.34 14.06 37.05 14.92 37.77 15.92 38.49 17.07 39.06 18.22 39.63 19.36 40.35 20.51 40.78 21.8 41.35 23.09 41.78 24.38 42.21 25.81 42.64 27.24 42.93 28.53 43.22 30.11 43.36 31.54 43.65 32.98 43.65 34.41 43.79 35.98 43.79 37.42 43.79 38.85 43.65 40.28 43.65 41.86 43.36 43.29 43.22 44.72 42.93 46.01 42.64 47.45 42.21 48.74 41.78 50.03 41.35 51.32 40.78 52.46 40.35 53.61 39.63 54.75 39.06 55.9 38.49 56.9 37.77 57.76 37.05 58.77 36.34 59.48 35.62 60.34 34.76 61.06 34.05 61.35 33.62 61.63 33.19 62.21 32.47 62.78 31.61 63.21 30.75 63.5 29.89 63.93 29.17 64.21 28.31 64.36 27.45 64.5 26.59 64.64 25.88 64.64 25.02 64.64 24.16 64.5 23.44 64.36 22.58 64.21 21.72 63.93 20.86 63.5 20.15 63.21 19.29 62.78 18.43 62.21 17.71 61.63 16.85 61.06 15.99 60.63 15.7 60.34 15.27 59.91 14.84 59.48 14.41 58.77 13.7 57.76 12.98 56.9 12.27 55.9 11.55 54.75 10.98 53.61 10.4 52.46 9.83 51.32 9.26 50.03 8.68 48.74 8.25 47.45 7.82 46.01 7.54 44.72 7.11 43.29 6.82 41.86 6.68 40.28 6.53 38.85 6.39 37.42 6.25 35.98 6.25 34.41 6.25 32.98 6.39 31.54 6.53 30.11 6.68 28.53 6.82 27.24 7.11 25.81 7.54 24.38 7.82 23.09 8.25 21.8 8.68 20.51 9.26 19.36 9.83 18.22 10.4 17.07 10.98 15.92 11.55 14.92 12.27 14.06 12.98 13.2 13.7 12.34 14.41 11.91 14.84 11.48 15.27 11.2 15.7 10.77 15.99 10.19 16.85 9.62 17.71 9.05 18.43 8.62 19.29 8.33 20.15 7.9 20.86 7.76 21.72 7.47 22.58 7.33 23.44 7.33 24.16 7.18 25.02 7.18 25.02"/>
      <polygon class="cls-27" points="7.42 24.96 7.56 25.81 7.56 26.52 7.7 27.37 7.98 28.23 8.13 29.08 8.55 29.79 8.84 30.64 9.26 31.5 9.83 32.35 10.4 33.06 10.97 33.91 11.39 34.34 11.68 34.62 12.53 35.48 13.38 36.19 14.24 36.9 15.09 37.61 16.09 38.32 17.22 38.89 18.36 39.46 19.5 40.17 20.63 40.59 21.91 41.16 23.19 41.59 24.47 42.01 25.89 42.44 27.31 42.72 28.59 43.01 30.16 43.15 31.58 43.43 33 43.43 34.42 43.58 35.98 43.58 37.4 43.58 38.83 43.43 40.25 43.43 41.81 43.15 43.23 43.01 44.65 42.72 45.93 42.44 47.35 42.01 48.63 41.59 49.91 41.16 51.19 40.59 52.33 40.17 53.47 39.46 54.6 38.89 55.74 38.32 56.73 37.61 57.59 36.9 58.58 36.19 59.29 35.48 60.15 34.62 60.86 33.91 61.14 33.49 61.43 33.06 61.99 32.35 62.56 31.5 62.99 30.64 63.27 29.79 63.7 29.08 63.98 28.23 64.13 27.37 64.27 26.52 64.41 25.81 64.41 24.96 64.41 24.1 64.27 23.39 64.13 22.54 63.98 21.69 63.7 20.84 63.27 20.13 62.99 19.27 62.56 18.42 61.99 17.71 61.43 16.86 60.86 16 60.43 15.72 60.15 15.29 59.72 14.87 59.29 14.44 58.58 13.73 57.59 13.02 56.73 12.31 55.74 11.6 54.6 11.03 53.47 10.46 52.33 9.89 51.19 9.32 49.91 8.75 48.63 8.33 47.35 7.9 45.93 7.62 44.65 7.19 43.23 6.91 41.81 6.76 40.25 6.62 38.83 6.48 37.4 6.34 35.98 6.34 34.42 6.34 33 6.48 31.58 6.62 30.16 6.76 28.59 6.91 27.31 7.19 25.89 7.62 24.47 7.9 23.19 8.33 21.91 8.75 20.63 9.32 19.5 9.89 18.36 10.46 17.22 11.03 16.09 11.6 15.09 12.31 14.24 13.02 13.38 13.73 12.53 14.44 12.11 14.87 11.68 15.29 11.39 15.72 10.97 16 10.4 16.86 9.83 17.71 9.26 18.42 8.84 19.27 8.55 20.13 8.13 20.84 7.98 21.69 7.7 22.54 7.56 23.39 7.56 24.1 7.42 24.96 7.42 24.96"/>
      <polygon class="cls-34" points="7.65 24.9 7.79 25.74 7.79 26.45 7.93 27.29 8.21 28.14 8.35 28.99 8.77 29.69 9.06 30.54 9.48 31.38 10.04 32.23 10.61 32.93 11.17 33.78 11.59 34.2 11.88 34.48 12.72 35.33 13.57 36.03 14.41 36.74 15.26 37.44 16.25 38.15 17.37 38.71 18.5 39.28 19.63 39.98 20.76 40.4 22.03 40.97 23.3 41.39 24.56 41.81 25.97 42.24 27.38 42.52 28.65 42.8 30.2 42.94 31.61 43.22 33.02 43.22 34.43 43.36 35.98 43.36 37.39 43.36 38.8 43.22 40.21 43.22 41.76 42.94 43.17 42.8 44.58 42.52 45.85 42.24 47.26 41.81 48.53 41.39 49.8 40.97 51.07 40.4 52.2 39.98 53.32 39.28 54.45 38.71 55.58 38.15 56.57 37.44 57.41 36.74 58.4 36.03 59.1 35.33 59.95 34.48 60.65 33.78 60.94 33.36 61.22 32.93 61.78 32.23 62.35 31.38 62.77 30.54 63.05 29.69 63.47 28.99 63.76 28.14 63.9 27.29 64.04 26.45 64.18 25.74 64.18 24.9 64.18 24.05 64.04 23.35 63.9 22.5 63.76 21.65 63.47 20.81 63.05 20.1 62.77 19.26 62.35 18.41 61.78 17.71 61.22 16.86 60.65 16.02 60.23 15.73 59.95 15.31 59.53 14.89 59.1 14.46 58.4 13.76 57.41 13.06 56.57 12.35 55.58 11.65 54.45 11.08 53.32 10.52 52.2 9.95 51.07 9.39 49.8 8.83 48.53 8.4 47.26 7.98 45.85 7.7 44.58 7.28 43.17 6.99 41.76 6.85 40.21 6.71 38.8 6.57 37.39 6.43 35.98 6.43 34.43 6.43 33.02 6.57 31.61 6.71 30.2 6.85 28.65 6.99 27.38 7.28 25.97 7.7 24.56 7.98 23.3 8.4 22.03 8.83 20.76 9.39 19.63 9.95 18.5 10.52 17.37 11.08 16.25 11.65 15.26 12.35 14.41 13.06 13.57 13.76 12.72 14.46 12.3 14.89 11.88 15.31 11.59 15.73 11.17 16.02 10.61 16.86 10.04 17.71 9.48 18.41 9.06 19.26 8.77 20.1 8.35 20.81 8.21 21.65 7.93 22.5 7.79 23.35 7.79 24.05 7.65 24.9 7.65 24.9"/>
      <polygon class="cls-26" points="7.88 24.84 8.02 25.68 8.02 26.37 8.16 27.21 8.44 28.05 8.58 28.89 9 29.59 9.28 30.43 9.7 31.27 10.26 32.11 10.82 32.81 11.37 33.65 11.79 34.06 12.07 34.34 12.91 35.18 13.75 35.88 14.59 36.58 15.43 37.28 16.41 37.98 17.53 38.54 18.64 39.1 19.76 39.8 20.88 40.22 22.14 40.78 23.4 41.2 24.66 41.61 26.06 42.03 27.45 42.31 28.71 42.59 30.25 42.73 31.65 43.01 33.05 43.01 34.44 43.15 35.98 43.15 37.38 43.15 38.78 43.01 40.18 43.01 41.72 42.73 43.11 42.59 44.51 42.31 45.77 42.03 47.17 41.61 48.43 41.2 49.68 40.78 50.94 40.22 52.06 39.8 53.18 39.1 54.3 38.54 55.42 37.98 56.4 37.28 57.23 36.58 58.21 35.88 58.91 35.18 59.75 34.34 60.45 33.65 60.73 33.23 61.01 32.81 61.57 32.11 62.13 31.27 62.55 30.43 62.83 29.59 63.25 28.89 63.53 28.05 63.67 27.21 63.81 26.37 63.95 25.68 63.95 24.84 63.95 24 63.81 23.3 63.67 22.46 63.53 21.62 63.25 20.78 62.83 20.08 62.55 19.24 62.13 18.4 61.57 17.71 61.01 16.87 60.45 16.03 60.03 15.75 59.75 15.33 59.33 14.91 58.91 14.49 58.21 13.79 57.23 13.09 56.4 12.39 55.42 11.69 54.3 11.13 53.18 10.58 52.06 10.02 50.94 9.46 49.68 8.9 48.43 8.48 47.17 8.06 45.77 7.78 44.51 7.36 43.11 7.08 41.72 6.94 40.18 6.8 38.78 6.66 37.38 6.52 35.98 6.52 34.44 6.52 33.05 6.66 31.65 6.8 30.25 6.94 28.71 7.08 27.45 7.36 26.06 7.78 24.66 8.06 23.4 8.48 22.14 8.9 20.88 9.46 19.76 10.02 18.64 10.58 17.53 11.13 16.41 11.69 15.43 12.39 14.59 13.09 13.75 13.79 12.91 14.49 12.49 14.91 12.07 15.33 11.79 15.75 11.37 16.03 10.82 16.87 10.26 17.71 9.7 18.4 9.28 19.24 9 20.08 8.58 20.78 8.44 21.62 8.16 22.46 8.02 23.3 8.02 24 7.88 24.84 7.88 24.84"/>
      <polygon class="cls-23" points="8.11 24.78 8.25 25.61 8.25 26.3 8.39 27.13 8.67 27.97 8.8 28.8 9.22 29.49 9.5 30.32 9.91 31.15 10.47 31.99 11.02 32.68 11.58 33.51 11.99 33.93 12.27 34.21 13.1 35.04 13.93 35.73 14.77 36.42 15.6 37.12 16.57 37.81 17.68 38.37 18.79 38.92 19.9 39.61 21.01 40.03 22.25 40.58 23.5 41 24.75 41.42 26.14 41.83 27.52 42.11 28.77 42.39 30.3 42.52 31.68 42.8 33.07 42.8 34.46 42.94 35.98 42.94 37.37 42.94 38.76 42.8 40.14 42.8 41.67 42.52 43.05 42.39 44.44 42.11 45.69 41.83 47.07 41.42 48.32 41 49.57 40.58 50.82 40.03 51.93 39.61 53.04 38.92 54.15 38.37 55.26 37.81 56.23 37.12 57.06 36.42 58.03 35.73 58.72 35.04 59.55 34.21 60.25 33.51 60.53 33.1 60.8 32.68 61.36 31.99 61.91 31.15 62.33 30.32 62.61 29.49 63.02 28.8 63.3 27.97 63.44 27.13 63.58 26.3 63.71 25.61 63.71 24.78 63.71 23.94 63.58 23.25 63.44 22.42 63.3 21.59 63.02 20.75 62.61 20.06 62.33 19.23 61.91 18.4 61.36 17.7 60.8 16.87 60.25 16.04 59.83 15.76 59.55 15.35 59.14 14.93 58.72 14.52 58.03 13.82 57.06 13.13 56.23 12.44 55.26 11.74 54.15 11.19 53.04 10.63 51.93 10.08 50.82 9.52 49.57 8.97 48.32 8.55 47.07 8.14 45.69 7.86 44.44 7.44 43.05 7.17 41.67 7.03 40.14 6.89 38.76 6.75 37.37 6.61 35.98 6.61 34.46 6.61 33.07 6.75 31.68 6.89 30.3 7.03 28.77 7.17 27.52 7.44 26.14 7.86 24.75 8.14 23.5 8.55 22.25 8.97 21.01 9.52 19.9 10.08 18.79 10.63 17.68 11.19 16.57 11.74 15.6 12.44 14.77 13.13 13.93 13.82 13.1 14.52 12.69 14.93 12.27 15.35 11.99 15.76 11.58 16.04 11.02 16.87 10.47 17.7 9.91 18.4 9.5 19.23 9.22 20.06 8.8 20.75 8.67 21.59 8.39 22.42 8.25 23.25 8.25 23.94 8.11 24.78 8.11 24.78"/>
      <polygon class="cls-1" points="8.34 24.72 8.48 25.54 8.48 26.23 8.62 27.05 8.89 27.88 9.03 28.7 9.44 29.39 9.72 30.22 10.13 31.04 10.68 31.87 11.23 32.55 11.78 33.38 12.19 33.79 12.47 34.07 13.29 34.89 14.12 35.58 14.94 36.27 15.77 36.95 16.73 37.64 17.83 38.19 18.93 38.74 20.03 39.43 21.13 39.84 22.37 40.39 23.61 40.8 24.84 41.22 26.22 41.63 27.59 41.9 28.83 42.18 30.34 42.32 31.72 42.59 33.09 42.59 34.47 42.73 35.98 42.73 37.36 42.73 38.73 42.59 40.11 42.59 41.62 42.32 42.99 42.18 44.37 41.9 45.61 41.63 46.98 41.22 48.22 40.8 49.46 40.39 50.69 39.84 51.79 39.43 52.89 38.74 53.99 38.19 55.09 37.64 56.06 36.95 56.88 36.27 57.84 35.58 58.53 34.89 59.36 34.07 60.04 33.38 60.32 32.97 60.59 32.55 61.14 31.87 61.69 31.04 62.11 30.22 62.38 29.39 62.8 28.7 63.07 27.88 63.21 27.05 63.35 26.23 63.48 25.54 63.48 24.72 63.48 23.89 63.35 23.2 63.21 22.38 63.07 21.55 62.8 20.73 62.38 20.04 62.11 19.22 61.69 18.39 61.14 17.7 60.59 16.88 60.04 16.05 59.63 15.78 59.36 15.37 58.94 14.95 58.53 14.54 57.84 13.85 56.88 13.17 56.06 12.48 55.09 11.79 53.99 11.24 52.89 10.69 51.79 10.14 50.69 9.59 49.46 9.04 48.22 8.63 46.98 8.21 45.61 7.94 44.37 7.53 42.99 7.25 41.62 7.11 40.11 6.98 38.73 6.84 37.36 6.7 35.98 6.7 34.47 6.7 33.09 6.84 31.72 6.98 30.34 7.11 28.83 7.25 27.59 7.53 26.22 7.94 24.84 8.21 23.61 8.63 22.37 9.04 21.13 9.59 20.03 10.14 18.93 10.69 17.83 11.24 16.73 11.79 15.77 12.48 14.94 13.17 14.12 13.85 13.29 14.54 12.88 14.95 12.47 15.37 12.19 15.78 11.78 16.05 11.23 16.88 10.68 17.7 10.13 18.39 9.72 19.22 9.44 20.04 9.03 20.73 8.89 21.55 8.62 22.38 8.48 23.2 8.48 23.89 8.34 24.72 8.34 24.72"/>
      <polygon class="cls-25" points="8.57 24.66 8.71 25.47 8.71 26.15 8.85 26.97 9.12 27.79 9.26 28.61 9.67 29.29 9.94 30.11 10.35 30.93 10.89 31.75 11.44 32.43 11.98 33.25 12.39 33.65 12.66 33.93 13.48 34.74 14.3 35.43 15.12 36.11 15.94 36.79 16.89 37.47 17.98 38.02 19.07 38.56 20.16 39.24 21.26 39.65 22.48 40.2 23.71 40.61 24.94 41.02 26.3 41.43 27.66 41.7 28.89 41.97 30.39 42.11 31.75 42.38 33.12 42.38 34.48 42.52 35.98 42.52 37.34 42.52 38.71 42.38 40.07 42.38 41.57 42.11 42.93 41.97 44.3 41.7 45.53 41.43 46.89 41.02 48.12 40.61 49.34 40.2 50.57 39.65 51.66 39.24 52.75 38.56 53.84 38.02 54.93 37.47 55.89 36.79 56.71 36.11 57.66 35.43 58.34 34.74 59.16 33.93 59.84 33.25 60.11 32.84 60.39 32.43 60.93 31.75 61.48 30.93 61.89 30.11 62.16 29.29 62.57 28.61 62.84 27.79 62.98 26.97 63.11 26.15 63.25 25.47 63.25 24.66 63.25 23.84 63.11 23.16 62.98 22.34 62.84 21.52 62.57 20.7 62.16 20.02 61.89 19.2 61.48 18.38 60.93 17.7 60.39 16.88 59.84 16.07 59.43 15.79 59.16 15.38 58.75 14.97 58.34 14.57 57.66 13.88 56.71 13.2 55.89 12.52 54.93 11.84 53.84 11.29 52.75 10.75 51.66 10.2 50.57 9.66 49.34 9.11 48.12 8.7 46.89 8.29 45.53 8.02 44.3 7.61 42.93 7.34 41.57 7.2 40.07 7.07 38.71 6.93 37.34 6.79 35.98 6.79 34.48 6.79 33.12 6.93 31.75 7.07 30.39 7.2 28.89 7.34 27.66 7.61 26.3 8.02 24.94 8.29 23.71 8.7 22.48 9.11 21.26 9.66 20.16 10.2 19.07 10.75 17.98 11.29 16.89 11.84 15.94 12.52 15.12 13.2 14.3 13.88 13.48 14.57 13.07 14.97 12.66 15.38 12.39 15.79 11.98 16.07 11.44 16.88 10.89 17.7 10.35 18.38 9.94 19.2 9.67 20.02 9.26 20.7 9.12 21.52 8.85 22.34 8.71 23.16 8.71 23.84 8.57 24.66 8.57 24.66"/>
      <polygon class="cls-30" points="8.81 24.59 8.94 25.41 8.94 26.08 9.08 26.89 9.35 27.7 9.48 28.52 9.89 29.19 10.16 30 10.56 30.81 11.1 31.62 11.65 32.3 12.19 33.11 12.59 33.52 12.86 33.79 13.67 34.6 14.48 35.27 15.3 35.95 16.11 36.63 17.05 37.3 18.13 37.84 19.22 38.38 20.3 39.06 21.38 39.47 22.6 40.01 23.81 40.41 25.03 40.82 26.38 41.22 27.73 41.49 28.95 41.76 30.44 41.9 31.79 42.17 33.14 42.17 34.49 42.3 35.98 42.3 37.33 42.3 38.68 42.17 40.04 42.17 41.52 41.9 42.88 41.76 44.23 41.49 45.44 41.22 46.8 40.82 48.01 40.41 49.23 40.01 50.45 39.47 51.53 39.06 52.61 38.38 53.69 37.84 54.77 37.3 55.72 36.63 56.53 35.95 57.48 35.27 58.15 34.6 58.96 33.79 59.64 33.11 59.91 32.71 60.18 32.3 60.72 31.62 61.26 30.81 61.67 30 61.94 29.19 62.34 28.52 62.61 27.7 62.75 26.89 62.88 26.08 63.02 25.41 63.02 24.59 63.02 23.78 62.88 23.11 62.75 22.3 62.61 21.49 62.34 20.67 61.94 20 61.67 19.19 61.26 18.38 60.72 17.7 60.18 16.89 59.64 16.08 59.23 15.81 58.96 15.4 58.56 15 58.15 14.59 57.48 13.91 56.53 13.24 55.72 12.56 54.77 11.89 53.69 11.35 52.61 10.8 51.53 10.26 50.45 9.72 49.23 9.18 48.01 8.78 46.8 8.37 45.44 8.1 44.23 7.7 42.88 7.43 41.52 7.29 40.04 7.15 38.68 7.02 37.33 6.88 35.98 6.88 34.49 6.88 33.14 7.02 31.79 7.15 30.44 7.29 28.95 7.43 27.73 7.7 26.38 8.1 25.03 8.37 23.81 8.78 22.6 9.18 21.38 9.72 20.3 10.26 19.22 10.8 18.13 11.35 17.05 11.89 16.11 12.56 15.3 13.24 14.48 13.91 13.67 14.59 13.27 15 12.86 15.4 12.59 15.81 12.19 16.08 11.65 16.89 11.1 17.7 10.56 18.38 10.16 19.19 9.89 20 9.48 20.67 9.35 21.49 9.08 22.3 8.94 23.11 8.94 23.78 8.81 24.59 8.81 24.59"/>
      <polygon class="cls-28" points="9.04 24.53 9.17 25.34 9.17 26.01 9.31 26.81 9.57 27.62 9.71 28.42 10.11 29.09 10.38 29.9 10.78 30.7 11.32 31.5 11.85 32.17 12.39 32.98 12.79 33.38 13.06 33.65 13.86 34.45 14.67 35.12 15.47 35.79 16.28 36.46 17.21 37.13 18.29 37.67 19.36 38.21 20.43 38.88 21.5 39.28 22.71 39.81 23.92 40.22 25.12 40.62 26.46 41.02 27.8 41.29 29.01 41.56 30.48 41.69 31.82 41.96 33.16 41.96 34.51 42.09 35.98 42.09 37.32 42.09 38.66 41.96 40 41.96 41.48 41.69 42.82 41.56 44.16 41.29 45.36 41.02 46.7 40.62 47.91 40.22 49.12 39.81 50.32 39.28 51.39 38.88 52.47 38.21 53.54 37.67 54.61 37.13 55.55 36.46 56.35 35.79 57.29 35.12 57.96 34.45 58.77 33.65 59.44 32.98 59.7 32.58 59.97 32.17 60.51 31.5 61.04 30.7 61.45 29.9 61.71 29.09 62.12 28.42 62.38 27.62 62.52 26.81 62.65 26.01 62.79 25.34 62.79 24.53 62.79 23.73 62.65 23.06 62.52 22.26 62.38 21.45 62.12 20.65 61.71 19.98 61.45 19.17 61.04 18.37 60.51 17.7 59.97 16.89 59.44 16.09 59.03 15.82 58.77 15.42 58.36 15.02 57.96 14.62 57.29 13.95 56.35 13.28 55.55 12.6 54.61 11.93 53.54 11.4 52.47 10.86 51.39 10.33 50.32 9.79 49.12 9.25 47.91 8.85 46.7 8.45 45.36 8.18 44.16 7.78 42.82 7.51 41.48 7.38 40 7.24 38.66 7.11 37.32 6.98 35.98 6.98 34.51 6.98 33.16 7.11 31.82 7.24 30.48 7.38 29.01 7.51 27.8 7.78 26.46 8.18 25.12 8.45 23.92 8.85 22.71 9.25 21.5 9.79 20.43 10.33 19.36 10.86 18.29 11.4 17.21 11.93 16.28 12.6 15.47 13.28 14.67 13.95 13.86 14.62 13.46 15.02 13.06 15.42 12.79 15.82 12.39 16.09 11.85 16.89 11.32 17.7 10.78 18.37 10.38 19.17 10.11 19.98 9.71 20.65 9.57 21.45 9.31 22.26 9.17 23.06 9.17 23.73 9.04 24.53 9.04 24.53"/>
      <polygon class="cls-9" points="9.27 24.47 9.4 25.27 9.4 25.94 9.54 26.73 9.8 27.53 9.93 28.33 10.33 28.99 10.6 29.79 11 30.59 11.53 31.38 12.06 32.05 12.59 32.85 12.99 33.24 13.26 33.51 14.05 34.31 14.85 34.97 15.65 35.64 16.45 36.3 17.38 36.96 18.44 37.5 19.5 38.03 20.56 38.69 21.63 39.09 22.82 39.62 24.02 40.02 25.22 40.42 26.54 40.82 27.87 41.08 29.07 41.35 30.53 41.48 31.86 41.75 33.19 41.75 34.52 41.88 35.98 41.88 37.31 41.88 38.64 41.75 39.97 41.75 41.43 41.48 42.76 41.35 44.08 41.08 45.28 40.82 46.61 40.42 47.81 40.02 49 39.62 50.2 39.09 51.26 38.69 52.32 38.03 53.39 37.5 54.45 36.96 55.38 36.3 56.18 35.64 57.11 34.97 57.77 34.31 58.57 33.51 59.23 32.85 59.5 32.45 59.76 32.05 60.3 31.38 60.83 30.59 61.23 29.79 61.49 28.99 61.89 28.33 62.16 27.53 62.29 26.73 62.42 25.94 62.56 25.27 62.56 24.47 62.56 23.68 62.42 23.01 62.29 22.21 62.16 21.42 61.89 20.62 61.49 19.96 61.23 19.16 60.83 18.36 60.3 17.7 59.76 16.9 59.23 16.1 58.83 15.84 58.57 15.44 58.17 15.04 57.77 14.64 57.11 13.98 56.18 13.31 55.38 12.65 54.45 11.98 53.39 11.45 52.32 10.92 51.26 10.39 50.2 9.86 49 9.33 47.81 8.93 46.61 8.53 45.28 8.26 44.08 7.86 42.76 7.6 41.43 7.46 39.97 7.33 38.64 7.2 37.31 7.07 35.98 7.07 34.52 7.07 33.19 7.2 31.86 7.33 30.53 7.46 29.07 7.6 27.87 7.86 26.54 8.26 25.22 8.53 24.02 8.93 22.82 9.33 21.63 9.86 20.56 10.39 19.5 10.92 18.44 11.45 17.38 11.98 16.45 12.65 15.65 13.31 14.85 13.98 14.05 14.64 13.66 15.04 13.26 15.44 12.99 15.84 12.59 16.1 12.06 16.9 11.53 17.7 11 18.36 10.6 19.16 10.33 19.96 9.93 20.62 9.8 21.42 9.54 22.21 9.4 23.01 9.4 23.68 9.27 24.47 9.27 24.47"/>
      <polygon class="cls-22" points="9.5 24.41 9.63 25.2 9.63 25.86 9.77 26.65 10.03 27.44 10.16 28.23 10.56 28.89 10.82 29.68 11.21 30.47 11.74 31.26 12.27 31.92 12.79 32.71 13.19 33.11 13.45 33.37 14.24 34.16 15.03 34.82 15.82 35.48 16.61 36.14 17.54 36.8 18.59 37.32 19.64 37.85 20.7 38.51 21.75 38.9 22.94 39.43 24.12 39.82 25.31 40.22 26.63 40.62 27.94 40.88 29.13 41.14 30.58 41.27 31.9 41.54 33.21 41.54 34.53 41.67 35.98 41.67 37.3 41.67 38.61 41.54 39.93 41.54 41.38 41.27 42.7 41.14 44.01 40.88 45.2 40.62 46.52 40.22 47.7 39.82 48.89 39.43 50.07 38.9 51.13 38.51 52.18 37.85 53.23 37.32 54.29 36.8 55.21 36.14 56 35.48 56.92 34.82 57.58 34.16 58.37 33.37 59.03 32.71 59.29 32.32 59.56 31.92 60.08 31.26 60.61 30.47 61.01 29.68 61.27 28.89 61.66 28.23 61.93 27.44 62.06 26.65 62.19 25.86 62.32 25.2 62.32 24.41 62.32 23.62 62.19 22.96 62.06 22.17 61.93 21.38 61.66 20.59 61.27 19.93 61.01 19.14 60.61 18.35 60.08 17.7 59.56 16.9 59.03 16.11 58.64 15.85 58.37 15.46 57.98 15.06 57.58 14.67 56.92 14.01 56 13.35 55.21 12.69 54.29 12.03 53.23 11.5 52.18 10.98 51.13 10.45 50.07 9.92 48.89 9.4 47.7 9 46.52 8.61 45.2 8.34 44.01 7.95 42.7 7.68 41.38 7.55 39.93 7.42 38.61 7.29 37.3 7.16 35.98 7.16 34.53 7.16 33.21 7.29 31.9 7.42 30.58 7.55 29.13 7.68 27.94 7.95 26.63 8.34 25.31 8.61 24.12 9 22.94 9.4 21.75 9.92 20.7 10.45 19.64 10.98 18.59 11.5 17.54 12.03 16.61 12.69 15.82 13.35 15.03 14.01 14.24 14.67 13.85 15.06 13.45 15.46 13.19 15.85 12.79 16.11 12.27 16.9 11.74 17.7 11.21 18.35 10.82 19.14 10.56 19.93 10.16 20.59 10.03 21.38 9.77 22.17 9.63 22.96 9.63 23.62 9.5 24.41 9.5 24.41"/>
      <polygon class="cls-12" points="9.73 24.35 9.86 25.14 9.86 25.79 9.99 26.57 10.26 27.36 10.39 28.14 10.78 28.79 11.04 29.58 11.43 30.36 11.95 31.14 12.48 31.79 13 32.58 13.39 32.97 13.65 33.23 14.43 34.01 15.22 34.67 16 35.32 16.78 35.97 17.7 36.63 18.74 37.15 19.79 37.67 20.83 38.32 21.88 38.72 23.05 39.24 24.23 39.63 25.4 40.02 26.71 40.41 28.01 40.67 29.19 40.93 30.62 41.07 31.93 41.33 33.24 41.33 34.54 41.46 35.98 41.46 37.28 41.46 38.59 41.33 39.89 41.33 41.33 41.07 42.64 40.93 43.94 40.67 45.12 40.41 46.42 40.02 47.6 39.63 48.77 39.24 49.95 38.72 50.99 38.32 52.04 37.67 53.08 37.15 54.13 36.63 55.04 35.97 55.82 35.32 56.74 34.67 57.39 34.01 58.17 33.23 58.83 32.58 59.09 32.19 59.35 31.79 59.87 31.14 60.39 30.36 60.79 29.58 61.05 28.79 61.44 28.14 61.7 27.36 61.83 26.57 61.96 25.79 62.09 25.14 62.09 24.35 62.09 23.57 61.96 22.92 61.83 22.13 61.7 21.35 61.44 20.57 61.05 19.91 60.79 19.13 60.39 18.35 59.87 17.69 59.35 16.91 58.83 16.13 58.44 15.87 58.17 15.47 57.78 15.08 57.39 14.69 56.74 14.04 55.82 13.38 55.04 12.73 54.13 12.08 53.08 11.56 52.04 11.03 50.99 10.51 49.95 9.99 48.77 9.47 47.6 9.08 46.42 8.68 45.12 8.42 43.94 8.03 42.64 7.77 41.33 7.64 39.89 7.51 38.59 7.38 37.28 7.25 35.98 7.25 34.54 7.25 33.24 7.38 31.93 7.51 30.62 7.64 29.19 7.77 28.01 8.03 26.71 8.42 25.4 8.68 24.23 9.08 23.05 9.47 21.88 9.99 20.83 10.51 19.79 11.03 18.74 11.56 17.7 12.08 16.78 12.73 16 13.38 15.22 14.04 14.43 14.69 14.04 15.08 13.65 15.47 13.39 15.87 13 16.13 12.48 16.91 11.95 17.69 11.43 18.35 11.04 19.13 10.78 19.91 10.39 20.57 10.26 21.35 9.99 22.13 9.86 22.92 9.86 23.57 9.73 24.35 9.73 24.35"/>
      <polygon class="cls-8" points="9.97 24.29 10.09 25.07 10.09 25.72 10.22 26.49 10.48 27.27 10.61 28.05 11 28.69 11.26 29.47 11.65 30.25 12.17 31.02 12.68 31.67 13.2 32.45 13.59 32.83 13.85 33.09 14.62 33.87 15.4 34.52 16.18 35.16 16.95 35.81 17.86 36.46 18.9 36.97 19.93 37.49 20.97 38.14 22 38.53 23.17 39.05 24.33 39.43 25.49 39.82 26.79 40.21 28.08 40.47 29.25 40.73 30.67 40.86 31.97 41.12 33.26 41.12 34.55 41.25 35.98 41.25 37.27 41.25 38.57 41.12 39.86 41.12 41.28 40.86 42.58 40.73 43.87 40.47 45.04 40.21 46.33 39.82 47.49 39.43 48.66 39.05 49.82 38.53 50.86 38.14 51.89 37.49 52.93 36.97 53.97 36.46 54.87 35.81 55.65 35.16 56.55 34.52 57.2 33.87 57.98 33.09 58.62 32.45 58.88 32.06 59.14 31.67 59.66 31.02 60.18 30.25 60.57 29.47 60.82 28.69 61.21 28.05 61.47 27.27 61.6 26.49 61.73 25.72 61.86 25.07 61.86 24.29 61.86 23.52 61.73 22.87 61.6 22.09 61.47 21.32 61.21 20.54 60.82 19.89 60.57 19.12 60.18 18.34 59.66 17.69 59.14 16.92 58.62 16.14 58.24 15.88 57.98 15.49 57.59 15.1 57.2 14.72 56.55 14.07 55.65 13.42 54.87 12.77 53.97 12.13 52.93 11.61 51.89 11.09 50.86 10.57 49.82 10.06 48.66 9.54 47.49 9.15 46.33 8.76 45.04 8.5 43.87 8.12 42.58 7.86 41.28 7.73 39.86 7.6 38.57 7.47 37.27 7.34 35.98 7.34 34.55 7.34 33.26 7.47 31.97 7.6 30.67 7.73 29.25 7.86 28.08 8.12 26.79 8.5 25.49 8.76 24.33 9.15 23.17 9.54 22 10.06 20.97 10.57 19.93 11.09 18.9 11.61 17.86 12.13 16.95 12.77 16.18 13.42 15.4 14.07 14.62 14.72 14.24 15.1 13.85 15.49 13.59 15.88 13.2 16.14 12.68 16.92 12.17 17.69 11.65 18.34 11.26 19.12 11 19.89 10.61 20.54 10.48 21.32 10.22 22.09 10.09 22.87 10.09 23.52 9.97 24.29 9.97 24.29"/>
      <polygon class="cls-3" points="10.2 24.23 10.33 25 10.33 25.64 10.45 26.41 10.71 27.18 10.84 27.95 11.22 28.59 11.48 29.36 11.86 30.13 12.38 30.9 12.89 31.54 13.4 32.31 13.79 32.7 14.05 32.95 14.81 33.72 15.58 34.36 16.35 35.01 17.12 35.65 18.02 36.29 19.05 36.8 20.07 37.31 21.1 37.95 22.13 38.34 23.28 38.85 24.43 39.24 25.59 39.62 26.87 40.01 28.15 40.26 29.31 40.52 30.72 40.65 32 40.9 33.28 40.9 34.57 41.03 35.98 41.03 37.26 41.03 38.54 40.9 39.82 40.9 41.24 40.65 42.52 40.52 43.8 40.26 44.95 40.01 46.24 39.62 47.39 39.24 48.55 38.85 49.7 38.34 50.73 37.95 51.75 37.31 52.78 36.8 53.8 36.29 54.7 35.65 55.47 35.01 56.37 34.36 57.01 33.72 57.78 32.95 58.42 32.31 58.68 31.93 58.93 31.54 59.45 30.9 59.96 30.13 60.35 29.36 60.6 28.59 60.99 27.95 61.24 27.18 61.37 26.41 61.5 25.64 61.63 25 61.63 24.23 61.63 23.46 61.5 22.82 61.37 22.05 61.24 21.28 60.99 20.51 60.6 19.87 60.35 19.1 59.96 18.33 59.45 17.69 58.93 16.92 58.42 16.15 58.04 15.9 57.78 15.51 57.4 15.13 57.01 14.74 56.37 14.1 55.47 13.46 54.7 12.82 53.8 12.18 52.78 11.66 51.75 11.15 50.73 10.64 49.7 10.12 48.55 9.61 47.39 9.23 46.24 8.84 44.95 8.58 43.8 8.2 42.52 7.94 41.24 7.81 39.82 7.69 38.54 7.56 37.26 7.43 35.98 7.43 34.57 7.43 33.28 7.56 32 7.69 30.72 7.81 29.31 7.94 28.15 8.2 26.87 8.58 25.59 8.84 24.43 9.23 23.28 9.61 22.13 10.12 21.1 10.64 20.07 11.15 19.05 11.66 18.02 12.18 17.12 12.82 16.35 13.46 15.58 14.1 14.81 14.74 14.43 15.13 14.05 15.51 13.79 15.9 13.4 16.15 12.89 16.92 12.38 17.69 11.86 18.33 11.48 19.1 11.22 19.87 10.84 20.51 10.71 21.28 10.45 22.05 10.33 22.82 10.33 23.46 10.2 24.23 10.2 24.23"/>
      <polygon class="cls-29" points="10.43 24.17 10.56 24.93 10.56 25.57 10.68 26.33 10.94 27.09 11.06 27.86 11.45 28.49 11.7 29.26 12.08 30.02 12.59 30.78 13.1 31.42 13.61 32.18 13.99 32.56 14.24 32.81 15 33.58 15.77 34.21 16.53 34.85 17.29 35.48 18.18 36.12 19.2 36.63 20.22 37.14 21.23 37.77 22.25 38.15 23.39 38.66 24.54 39.04 25.68 39.42 26.95 39.8 28.22 40.06 29.37 40.31 30.77 40.44 32.04 40.69 33.31 40.69 34.58 40.82 35.98 40.82 37.25 40.82 38.52 40.69 39.79 40.69 41.19 40.44 42.46 40.31 43.73 40.06 44.87 39.8 46.14 39.42 47.29 39.04 48.43 38.66 49.58 38.15 50.59 37.77 51.61 37.14 52.63 36.63 53.64 36.12 54.53 35.48 55.3 34.85 56.18 34.21 56.82 33.58 57.58 32.81 58.22 32.18 58.47 31.8 58.73 31.42 59.24 30.78 59.74 30.02 60.12 29.26 60.38 28.49 60.76 27.86 61.01 27.09 61.14 26.33 61.27 25.57 61.4 24.93 61.4 24.17 61.4 23.41 61.27 22.77 61.14 22.01 61.01 21.25 60.76 20.49 60.38 19.85 60.12 19.09 59.74 18.32 59.24 17.69 58.73 16.93 58.22 16.16 57.84 15.91 57.58 15.53 57.2 15.15 56.82 14.77 56.18 14.13 55.3 13.49 54.53 12.86 53.64 12.22 52.63 11.72 51.61 11.21 50.59 10.7 49.58 10.19 48.43 9.68 47.29 9.3 46.14 8.92 44.87 8.66 43.73 8.28 42.46 8.03 41.19 7.9 39.79 7.78 38.52 7.65 37.25 7.52 35.98 7.52 34.58 7.52 33.31 7.65 32.04 7.78 30.77 7.9 29.37 8.03 28.22 8.28 26.95 8.66 25.68 8.92 24.54 9.3 23.39 9.68 22.25 10.19 21.23 10.7 20.22 11.21 19.2 11.72 18.18 12.22 17.29 12.86 16.53 13.49 15.77 14.13 15 14.77 14.62 15.15 14.24 15.53 13.99 15.91 13.61 16.16 13.1 16.93 12.59 17.69 12.08 18.32 11.7 19.09 11.45 19.85 11.06 20.49 10.94 21.25 10.68 22.01 10.56 22.77 10.56 23.41 10.43 24.17 10.43 24.17"/>
      <polygon class="cls-17" points="10.66 24.11 10.79 24.87 10.79 25.5 10.91 26.25 11.16 27.01 11.29 27.76 11.67 28.39 11.92 29.15 12.3 29.9 12.8 30.66 13.31 31.29 13.81 32.04 14.19 32.42 14.44 32.67 15.2 33.43 15.95 34.06 16.71 34.69 17.46 35.32 18.34 35.95 19.35 36.45 20.36 36.96 21.37 37.59 22.37 37.96 23.51 38.47 24.64 38.85 25.77 39.22 27.03 39.6 28.29 39.85 29.43 40.11 30.81 40.23 32.07 40.48 33.33 40.48 34.59 40.61 35.98 40.61 37.23 40.61 38.49 40.48 39.75 40.48 41.14 40.23 42.4 40.11 43.66 39.85 44.79 39.6 46.05 39.22 47.18 38.85 48.32 38.47 49.45 37.96 50.46 37.59 51.47 36.96 52.47 36.45 53.48 35.95 54.36 35.32 55.12 34.69 56 34.06 56.63 33.43 57.39 32.67 58.02 32.04 58.27 31.67 58.52 31.29 59.02 30.66 59.53 29.9 59.9 29.15 60.16 28.39 60.53 27.76 60.79 27.01 60.91 26.25 61.04 25.5 61.16 24.87 61.16 24.11 61.16 23.35 61.04 22.73 60.91 21.97 60.79 21.21 60.53 20.46 60.16 19.83 59.9 19.07 59.53 18.32 59.02 17.69 58.52 16.93 58.02 16.18 57.64 15.92 57.39 15.55 57.01 15.17 56.63 14.79 56 14.16 55.12 13.53 54.36 12.9 53.48 12.27 52.47 11.77 51.47 11.26 50.46 10.76 49.45 10.26 48.32 9.75 47.18 9.38 46.05 9 44.79 8.75 43.66 8.37 42.4 8.12 41.14 7.99 39.75 7.86 38.49 7.74 37.23 7.61 35.98 7.61 34.59 7.61 33.33 7.74 32.07 7.86 30.81 7.99 29.43 8.12 28.29 8.37 27.03 8.75 25.77 9 24.64 9.38 23.51 9.75 22.37 10.26 21.37 10.76 20.36 11.26 19.35 11.77 18.34 12.27 17.46 12.9 16.71 13.53 15.95 14.16 15.2 14.79 14.82 15.17 14.44 15.55 14.19 15.92 13.81 16.18 13.31 16.93 12.8 17.69 12.3 18.32 11.92 19.07 11.67 19.83 11.29 20.46 11.16 21.21 10.91 21.97 10.79 22.73 10.79 23.35 10.66 24.11 10.66 24.11"/>
      <polygon class="cls-4" points="10.89 24.05 11.02 24.8 11.02 25.42 11.14 26.17 11.39 26.92 11.52 27.67 11.89 28.29 12.14 29.04 12.52 29.79 13.01 30.54 13.51 31.16 14.01 31.91 14.39 32.29 14.64 32.54 15.39 33.28 16.13 33.91 16.88 34.53 17.63 35.16 18.5 35.78 19.5 36.28 20.5 36.78 21.5 37.4 22.5 37.78 23.62 38.28 24.74 38.65 25.87 39.02 27.12 39.4 28.36 39.65 29.49 39.9 30.86 40.02 32.11 40.27 33.35 40.27 34.6 40.4 35.97 40.4 37.22 40.4 38.47 40.27 39.72 40.27 41.09 40.02 42.34 39.9 43.59 39.65 44.71 39.4 45.96 39.02 47.08 38.65 48.2 38.28 49.33 37.78 50.33 37.4 51.32 36.78 52.32 36.28 53.32 35.78 54.19 35.16 54.94 34.53 55.82 33.91 56.44 33.28 57.19 32.54 57.81 31.91 58.06 31.54 58.31 31.16 58.81 30.54 59.31 29.79 59.68 29.04 59.93 28.29 60.31 27.67 60.56 26.92 60.68 26.17 60.81 25.42 60.93 24.8 60.93 24.05 60.93 23.3 60.81 22.68 60.68 21.93 60.56 21.18 60.31 20.43 59.93 19.81 59.68 19.06 59.31 18.31 58.81 17.69 58.31 16.94 57.81 16.19 57.44 15.94 57.19 15.56 56.81 15.19 56.44 14.82 55.82 14.19 54.94 13.57 54.19 12.94 53.32 12.32 52.32 11.82 51.32 11.32 50.33 10.82 49.33 10.32 48.2 9.82 47.08 9.45 45.96 9.08 44.71 8.83 43.59 8.45 42.34 8.2 41.09 8.08 39.72 7.95 38.47 7.83 37.22 7.7 35.97 7.7 34.6 7.7 33.35 7.83 32.11 7.95 30.86 8.08 29.49 8.2 28.36 8.45 27.12 8.83 25.87 9.08 24.74 9.45 23.62 9.82 22.5 10.32 21.5 10.82 20.5 11.32 19.5 11.82 18.5 12.32 17.63 12.94 16.88 13.57 16.13 14.19 15.39 14.82 15.01 15.19 14.64 15.56 14.39 15.94 14.01 16.19 13.51 16.94 13.01 17.69 12.52 18.31 12.14 19.06 11.89 19.81 11.52 20.43 11.39 21.18 11.14 21.93 11.02 22.68 11.02 23.3 10.89 24.05 10.89 24.05"/>
      <polygon class="cls-16" points="11.12 23.99 11.25 24.73 11.25 25.35 11.37 26.09 11.62 26.83 11.74 27.57 12.11 28.19 12.36 28.93 12.73 29.68 13.23 30.42 13.72 31.04 14.22 31.78 14.59 32.15 14.83 32.4 15.58 33.14 16.32 33.76 17.06 34.37 17.8 34.99 18.67 35.61 19.66 36.11 20.64 36.6 21.63 37.22 22.62 37.59 23.74 38.08 24.85 38.45 25.96 38.83 27.2 39.2 28.43 39.44 29.55 39.69 30.91 39.81 32.14 40.06 33.38 40.06 34.61 40.19 35.97 40.19 37.21 40.19 38.45 40.06 39.68 40.06 41.04 39.81 42.28 39.69 43.52 39.44 44.63 39.2 45.86 38.83 46.98 38.45 48.09 38.08 49.2 37.59 50.19 37.22 51.18 36.6 52.17 36.11 53.16 35.61 54.02 34.99 54.77 34.37 55.63 33.76 56.25 33.14 56.99 32.4 57.61 31.78 57.86 31.41 58.1 31.04 58.6 30.42 59.09 29.68 59.46 28.93 59.71 28.19 60.08 27.57 60.33 26.83 60.45 26.09 60.58 25.35 60.7 24.73 60.7 23.99 60.7 23.25 60.58 22.63 60.45 21.89 60.33 21.15 60.08 20.4 59.71 19.79 59.46 19.04 59.09 18.3 58.6 17.68 58.1 16.94 57.61 16.2 57.24 15.95 56.99 15.58 56.62 15.21 56.25 14.84 55.63 14.22 54.77 13.6 54.02 12.99 53.16 12.37 52.17 11.87 51.18 11.38 50.19 10.88 49.2 10.39 48.09 9.9 46.98 9.52 45.86 9.15 44.63 8.91 43.52 8.54 42.28 8.29 41.04 8.16 39.68 8.04 38.45 7.92 37.21 7.79 35.97 7.79 34.61 7.79 33.38 7.92 32.14 8.04 30.91 8.16 29.55 8.29 28.43 8.54 27.2 8.91 25.96 9.15 24.85 9.52 23.74 9.9 22.62 10.39 21.63 10.88 20.64 11.38 19.66 11.87 18.67 12.37 17.8 12.99 17.06 13.6 16.32 14.22 15.58 14.84 15.2 15.21 14.83 15.58 14.59 15.95 14.22 16.2 13.72 16.94 13.23 17.68 12.73 18.3 12.36 19.04 12.11 19.79 11.74 20.4 11.62 21.15 11.37 21.89 11.25 22.63 11.25 23.25 11.12 23.99 11.12 23.99"/>
      <polygon class="cls-33" points="11.36 23.93 11.48 24.66 11.48 25.28 11.6 26.01 11.85 26.75 11.97 27.48 12.34 28.09 12.58 28.83 12.95 29.56 13.44 30.3 13.93 30.91 14.42 31.64 14.79 32.01 15.03 32.26 15.77 32.99 16.5 33.6 17.24 34.22 17.97 34.83 18.83 35.44 19.81 35.93 20.79 36.42 21.77 37.03 22.75 37.4 23.85 37.89 24.95 38.26 26.05 38.63 27.28 38.99 28.5 39.24 29.61 39.48 30.95 39.61 32.18 39.85 33.4 39.85 34.63 39.97 35.97 39.97 37.2 39.97 38.42 39.85 39.65 39.85 41 39.61 42.22 39.48 43.44 39.24 44.55 38.99 45.77 38.63 46.87 38.26 47.98 37.89 49.08 37.4 50.06 37.03 51.04 36.42 52.02 35.93 53 35.44 53.85 34.83 54.59 34.22 55.45 33.6 56.06 32.99 56.79 32.26 57.41 31.64 57.65 31.28 57.9 30.91 58.39 30.3 58.88 29.56 59.24 28.83 59.49 28.09 59.86 27.48 60.1 26.75 60.22 26.01 60.35 25.28 60.47 24.66 60.47 23.93 60.47 23.19 60.35 22.58 60.22 21.85 60.1 21.11 59.86 20.38 59.49 19.76 59.24 19.03 58.88 18.3 58.39 17.68 57.9 16.95 57.41 16.21 57.04 15.97 56.79 15.6 56.43 15.23 56.06 14.87 55.45 14.25 54.59 13.64 53.85 13.03 53 12.42 52.02 11.93 51.04 11.44 50.06 10.95 49.08 10.46 47.98 9.97 46.87 9.6 45.77 9.23 44.55 8.99 43.44 8.62 42.22 8.37 41 8.25 39.65 8.13 38.42 8.01 37.2 7.89 35.97 7.89 34.63 7.89 33.4 8.01 32.18 8.13 30.95 8.25 29.61 8.37 28.5 8.62 27.28 8.99 26.05 9.23 24.95 9.6 23.85 9.97 22.75 10.46 21.77 10.95 20.79 11.44 19.81 11.93 18.83 12.42 17.97 13.03 17.24 13.64 16.5 14.25 15.77 14.87 15.4 15.23 15.03 15.6 14.79 15.97 14.42 16.21 13.93 16.95 13.44 17.68 12.95 18.3 12.58 19.03 12.34 19.76 11.97 20.38 11.85 21.11 11.6 21.85 11.48 22.58 11.48 23.19 11.36 23.93 11.36 23.93"/>
      <polygon class="cls-15" points="11.59 23.87 11.71 24.6 11.71 25.2 11.83 25.93 12.07 26.66 12.2 27.39 12.56 27.99 12.8 28.72 13.17 29.45 13.65 30.18 14.14 30.78 14.62 31.51 14.99 31.88 15.23 32.12 15.96 32.85 16.68 33.45 17.41 34.06 18.14 34.67 18.99 35.27 19.96 35.76 20.93 36.24 21.9 36.85 22.87 37.21 23.96 37.7 25.05 38.06 26.15 38.43 27.36 38.79 28.57 39.03 29.66 39.28 31 39.4 32.21 39.64 33.43 39.64 34.64 39.76 35.97 39.76 37.19 39.76 38.4 39.64 39.61 39.64 40.95 39.4 42.16 39.28 43.37 39.03 44.47 38.79 45.68 38.43 46.77 38.06 47.86 37.7 48.95 37.21 49.92 36.85 50.9 36.24 51.87 35.76 52.84 35.27 53.69 34.67 54.41 34.06 55.26 33.45 55.87 32.85 56.6 32.12 57.2 31.51 57.45 31.15 57.69 30.78 58.17 30.18 58.66 29.45 59.02 28.72 59.27 27.99 59.63 27.39 59.87 26.66 59.99 25.93 60.12 25.2 60.24 24.6 60.24 23.87 60.24 23.14 60.12 22.53 59.99 21.81 59.87 21.08 59.63 20.35 59.27 19.74 59.02 19.02 58.66 18.29 58.17 17.68 57.69 16.95 57.2 16.23 56.84 15.98 56.6 15.62 56.23 15.26 55.87 14.89 55.26 14.28 54.41 13.68 53.69 13.07 52.84 12.46 51.87 11.98 50.9 11.49 49.92 11.01 48.95 10.52 47.86 10.04 46.77 9.67 45.68 9.31 44.47 9.07 43.37 8.7 42.16 8.46 40.95 8.34 39.61 8.22 38.4 8.1 37.19 7.98 35.97 7.98 34.64 7.98 33.43 8.1 32.21 8.22 31 8.34 29.66 8.46 28.57 8.7 27.36 9.07 26.15 9.31 25.05 9.67 23.96 10.04 22.87 10.52 21.9 11.01 20.93 11.49 19.96 11.98 18.99 12.46 18.14 13.07 17.41 13.68 16.68 14.28 15.96 14.89 15.59 15.26 15.23 15.62 14.99 15.98 14.62 16.23 14.14 16.95 13.65 17.68 13.17 18.29 12.8 19.02 12.56 19.74 12.2 20.35 12.07 21.08 11.83 21.81 11.71 22.53 11.71 23.14 11.59 23.87 11.59 23.87"/>
      <polygon class="cls-32" points="11.82 23.81 11.94 24.53 11.94 25.13 12.06 25.85 12.3 26.57 12.42 27.29 12.78 27.89 13.02 28.61 13.38 29.34 13.86 30.06 14.34 30.66 14.82 31.38 15.18 31.74 15.43 31.98 16.15 32.7 16.87 33.3 17.59 33.9 18.31 34.5 19.15 35.1 20.11 35.58 21.07 36.06 22.03 36.67 23 37.03 24.08 37.51 25.16 37.87 26.24 38.23 27.44 38.59 28.64 38.83 29.72 39.07 31.05 39.19 32.25 39.43 33.45 39.43 34.65 39.55 35.97 39.55 37.17 39.55 38.38 39.43 39.58 39.43 40.9 39.19 42.1 39.07 43.3 38.83 44.38 38.59 45.59 38.23 46.67 37.87 47.75 37.51 48.83 37.03 49.79 36.67 50.75 36.06 51.71 35.58 52.68 35.1 53.52 34.5 54.24 33.9 55.08 33.3 55.68 32.7 56.4 31.98 57 31.38 57.24 31.02 57.48 30.66 57.96 30.06 58.44 29.34 58.8 28.61 59.04 27.89 59.4 27.29 59.64 26.57 59.76 25.85 59.88 25.13 60 24.53 60 23.81 60 23.09 59.88 22.49 59.76 21.77 59.64 21.04 59.4 20.32 59.04 19.72 58.8 19 58.44 18.28 57.96 17.68 57.48 16.96 57 16.24 56.64 16 56.4 15.64 56.04 15.28 55.68 14.92 55.08 14.32 54.24 13.71 53.52 13.11 52.68 12.51 51.71 12.03 50.75 11.55 49.79 11.07 48.83 10.59 47.75 10.11 46.67 9.75 45.59 9.39 44.38 9.15 43.3 8.79 42.1 8.55 40.9 8.43 39.58 8.31 38.38 8.19 37.17 8.07 35.97 8.07 34.65 8.07 33.45 8.19 32.25 8.31 31.05 8.43 29.72 8.55 28.64 8.79 27.44 9.15 26.24 9.39 25.16 9.75 24.08 10.11 23 10.59 22.03 11.07 21.07 11.55 20.11 12.03 19.15 12.51 18.31 13.11 17.59 13.71 16.87 14.32 16.15 14.92 15.79 15.28 15.43 15.64 15.18 16 14.82 16.24 14.34 16.96 13.86 17.68 13.38 18.28 13.02 19 12.78 19.72 12.42 20.32 12.3 21.04 12.06 21.77 11.94 22.49 11.94 23.09 11.82 23.81 11.82 23.81"/>
      <polygon class="cls-2" points="12.05 23.75 12.17 24.46 12.17 25.06 12.29 25.77 12.53 26.48 12.65 27.2 13 27.79 13.24 28.51 13.6 29.22 14.08 29.94 14.55 30.53 15.03 31.24 15.38 31.6 15.62 31.84 16.34 32.55 17.05 33.15 17.76 33.74 18.48 34.34 19.31 34.93 20.26 35.41 21.22 35.89 22.17 36.48 23.12 36.84 24.19 37.31 25.26 37.67 26.33 38.03 27.52 38.39 28.71 38.62 29.78 38.86 31.09 38.98 32.28 39.22 33.47 39.22 34.66 39.34 35.97 39.34 37.16 39.34 38.35 39.22 39.54 39.22 40.85 38.98 42.04 38.86 43.23 38.62 44.3 38.39 45.49 38.03 46.56 37.67 47.63 37.31 48.71 36.84 49.66 36.48 50.61 35.89 51.56 35.41 52.51 34.93 53.35 34.34 54.06 33.74 54.89 33.15 55.49 32.55 56.2 31.84 56.8 31.24 57.04 30.89 57.27 30.53 57.75 29.94 58.23 29.22 58.58 28.51 58.82 27.79 59.18 27.2 59.42 26.48 59.53 25.77 59.65 25.06 59.77 24.46 59.77 23.75 59.77 23.03 59.65 22.44 59.53 21.72 59.42 21.01 59.18 20.3 58.82 19.7 58.58 18.99 58.23 18.27 57.75 17.68 57.27 16.96 56.8 16.25 56.44 16.01 56.2 15.66 55.85 15.3 55.49 14.94 54.89 14.35 54.06 13.75 53.35 13.16 52.51 12.56 51.56 12.09 50.61 11.61 49.66 11.13 48.71 10.66 47.63 10.18 46.56 9.82 45.49 9.47 44.3 9.23 43.23 8.87 42.04 8.63 40.85 8.51 39.54 8.4 38.35 8.28 37.16 8.16 35.97 8.16 34.66 8.16 33.47 8.28 32.28 8.4 31.09 8.51 29.78 8.63 28.71 8.87 27.52 9.23 26.33 9.47 25.26 9.82 24.19 10.18 23.12 10.66 22.17 11.13 21.22 11.61 20.26 12.09 19.31 12.56 18.48 13.16 17.76 13.75 17.05 14.35 16.34 14.94 15.98 15.3 15.62 15.66 15.38 16.01 15.03 16.25 14.55 16.96 14.08 17.68 13.6 18.27 13.24 18.99 13 19.7 12.65 20.3 12.53 21.01 12.29 21.72 12.17 22.44 12.17 23.03 12.05 23.75 12.05 23.75"/>
    </g>
    <g>
      <g>
        <path class="cls-2" d="m70.63,19.98l.24.62.15.91.15.91.15.91.15.91v2.87l-.15.91-.15.91-.15.91-.3.91-.3.76-.3.91-.45.91-.45.91-.45.76-.45.91-.6.75-.6.91-.6.75-.6.76-.75.75-.76.75-.75.76-.91.6-.91.76-.91.6-.91.6-.91.6-1.06.6-1.06.6-1.06.6-1.06.45-1.06.45-1.21.45-1.06.45-1.21.3-1.21.45-1.21.3-1.21.3-1.21.15-1.21.3-1.36.15-1.21.15-1.36.15-1.21.15h-1.36l-1.21.15h-1.36l-1.21-.15h-1.36l-1.21-.15-1.36-.15-1.21-.15-1.36-.15-1.21-.3-1.21-.15-1.21-.3-1.21-.3-1.21-.45-1.21-.3-1.06-.45-1.21-.45-1.06-.45-1.06-.45-1.06-.6-1.06-.6-1.06-.6-.91-.6-.91-.6-.91-.6-.91-.76-.75-.6-.91-.76-.75-.75-.75-.75-.6-.76-.6-.75-.6-.91-.6-.75-.45-.91-.45-.76-.45-.91-.45-.91-.3-.91-.3-.76-.3-.91-.15-.91-.15-.91-.15-.91v-2.87l.15-.91.15-.91.15-.91.15-.91.25-.62L7.15.36h57.53l5.95,19.62Zm-4.44,6.35v-1.81l-.15-.75-.15-.91-.15-.91-.3-.91-.45-.76-.3-.91-.45-.91-.6-.75-.6-.91-.6-.91-.45-.3-.3-.45-.45-.45-.45-.45-.75-.75-1.06-.76-.91-.75-1.06-.75-1.21-.6-1.21-.6-1.21-.6-1.21-.6-1.36-.6-1.36-.45-1.36-.45-1.51-.3-1.36-.45-1.51-.3-1.51-.15-1.66-.15-1.51-.15-1.51-.15h-3.17l-1.51.15-1.51.15-1.51.15-1.66.15-1.36.3-1.51.45-1.51.3-1.36.45-1.36.45-1.36.6-1.21.6-1.21.6-1.21.6-1.21.6-1.06.75-.91.75-.91.76-.91.75-.45.45-.45.45-.3.45-.45.3-.6.91-.6.91-.6.75-.45.91-.3.91-.45.76-.15.91-.3.91-.15.91v.75l-.15.91.15.91v.75l.15.91.3.91.15.91.45.75.3.91.45.91.6.91.6.76.6.91.45.45.3.3.91.91.91.75.91.75.91.76,1.06.75,1.21.6,1.21.6,1.21.76,1.21.45,1.36.6,1.36.45,1.36.45,1.51.45,1.51.3,1.36.3,1.66.15,1.51.3h1.51l1.51.15h3.17l1.51-.15h1.51l1.66-.3,1.51-.15,1.51-.3,1.36-.3,1.51-.45,1.36-.45,1.36-.45,1.36-.6,1.21-.45,1.21-.76,1.21-.6,1.21-.6,1.06-.75.91-.76,1.06-.75.75-.75.91-.91.76-.75.3-.45.3-.45.6-.76.6-.91.45-.91.3-.91.45-.75.3-.91.15-.91.15-.91.15-.75ZM45.05,3c0-.72-.58-1.28-1.28-1.28s-1.28.57-1.28,1.28.57,1.28,1.28,1.28,1.28-.58,1.28-1.28Zm-7.7,0c0-.72-.58-1.28-1.28-1.28s-1.28.57-1.28,1.28.57,1.28,1.28,1.28,1.28-.58,1.28-1.28Zm-8.3,0c0-.72-.58-1.28-1.28-1.28s-1.28.57-1.28,1.28.57,1.28,1.28,1.28,1.28-.58,1.28-1.28Z"/>
        <circle class="cls-13" cx="43.77" cy="3" r="1.28"/>
        <path class="cls-18" d="m36.07,9.12c2.2,0,4,1.79,4,4s-1.8,4-4,4-4-1.8-4-4,1.79-4,4-4Zm2.19,4c0-1.21-.98-2.19-2.19-2.19s-2.19.98-2.19,2.19.97,2.19,2.19,2.19,2.19-.98,2.19-2.19Z"/>
        <circle class="cls-20" cx="27.76" cy="3" r="1.28"/>
      </g>
      <g>
        <path class="cls-31" d="m35.24,51l-1.25-.15h-1.31s-5.17-.6-5.17-.6l-1.26-.31-1.17-.14-2.46-.61-1.25-.47-1.17-.29-1.11-.47-1.19-.45-2.13-.91-3.21-1.83-2.74-1.82-2.6-2.14-1.53-1.53-1.23-1.54-.62-.93-.59-.73-.49-.97-.44-.73-.92-1.84-.93-2.61L0,27.14v-2.93s.6-3.68.6-3.68l.32-.82c.07-.19.27-.29.46-.21.19.07.28.27.21.46l-.31.77-.58,3.55v2.81s.45,2.66.45,2.66l.89,2.51.89,1.77.44.73.47.93.56.69.62.93,1.19,1.49,1.48,1.48,2.54,2.09,2.69,1.79,3.15,1.8,2.08.89,1.19.45,1.07.46,1.15.28,1.25.47,2.38.59,1.17.14,1.25.31,5.09.6h1.31s1.25.15,1.25.15h1.31s1.16-.15,1.16-.15h1.4s5.09-.6,5.09-.6l1.16-.29,1.25-.16,2.37-.6,1.17-.44,1.25-.31,1-.43,1.22-.46,2.1-.9,3.13-1.79,2.7-1.8.88-.73.94-.63,2.21-2.22,1.18-1.48.59-.88.62-.78.41-.84.47-.78.89-1.79.28-.86.31-.77.3-.89.44-2.66v-2.81s-.6-3.56-.6-3.56l-.27-.67c-.08-.18,0-.39.18-.48.18-.08.39,0,.48.18l.31.77.62,3.69v2.93s-.45,2.78-.45,2.78l-.32.96-.31.77-.29.89-.93,1.86-.47.78-.44.88-.64.82-.59.88-1.23,1.53-2.29,2.29-.96.65-.88.73-2.75,1.84-3.19,1.83-2.15.92-1.22.46-1.04.45-1.26.32-1.17.44-2.45.62-1.25.16-1.17.29-5.18.61h-1.4s-1.16.15-1.16.15h-1.4Z"/>
        <polygon class="cls-11" points="5.64 25.42 5.8 26.33 5.8 27.09 5.95 27.99 6.25 28.9 6.4 29.8 6.85 30.56 7.15 31.46 7.61 32.37 8.21 33.28 8.82 34.03 9.42 34.94 9.87 35.39 10.17 35.69 11.08 36.6 11.99 37.35 12.89 38.11 13.8 38.86 14.85 39.62 16.06 40.22 17.27 40.82 18.48 41.58 19.69 42.03 21.05 42.64 22.4 43.09 23.76 43.54 25.27 44 26.78 44.3 28.14 44.6 29.8 44.75 31.31 45.05 32.82 45.05 34.33 45.2 35.99 45.2 37.5 45.2 39.01 45.05 40.52 45.05 42.18 44.75 43.69 44.6 45.2 44.3 46.56 44 48.07 43.54 49.43 43.09 50.79 42.64 52.15 42.03 53.36 41.58 54.56 40.82 55.77 40.22 56.98 39.62 58.04 38.86 58.94 38.11 60 37.35 60.76 36.6 61.66 35.69 62.42 34.94 62.72 34.48 63.02 34.03 63.62 33.28 64.23 32.37 64.68 31.46 64.98 30.56 65.44 29.8 65.74 28.9 65.89 27.99 66.04 27.09 66.19 26.33 66.19 25.42 66.19 24.52 66.04 23.76 65.89 22.86 65.74 21.95 65.44 21.05 64.98 20.29 64.68 19.38 64.23 18.48 63.62 17.72 63.02 16.82 62.42 15.91 61.96 15.61 61.66 15.16 61.21 14.7 60.76 14.25 60 13.5 58.94 12.74 58.04 11.99 56.98 11.23 55.77 10.63 54.56 10.02 53.36 9.42 52.15 8.82 50.79 8.21 49.43 7.76 48.07 7.31 46.56 7 45.2 6.55 43.69 6.25 42.18 6.1 40.52 5.95 39.01 5.8 37.5 5.64 35.99 5.64 34.33 5.64 32.82 5.8 31.31 5.95 29.8 6.1 28.14 6.25 26.78 6.55 25.27 7 23.76 7.31 22.4 7.76 21.05 8.21 19.69 8.82 18.48 9.42 17.27 10.02 16.06 10.63 14.85 11.23 13.8 11.99 12.89 12.74 11.99 13.5 11.08 14.25 10.63 14.7 10.17 15.16 9.87 15.61 9.42 15.91 8.82 16.82 8.21 17.72 7.61 18.48 7.15 19.38 6.85 20.29 6.4 21.05 6.25 21.95 5.95 22.86 5.8 23.76 5.8 24.52 5.64 25.42"/>
        <path class="cls-11" d="m36.07,10.93c-1.22,0-2.19.98-2.19,2.19s.97,2.19,2.19,2.19,2.19-.98,2.19-2.19-.98-2.19-2.19-2.19Z"/>
        <circle class="cls-11" cx="36.07" cy="13.12" r="4"/>
        <path class="cls-31" d="m1.11,20.65s-.07,0-.11-.02c-.19-.06-.29-.26-.23-.45l.1-.32L6.81.26c.05-.15.19-.26.34-.26h57.53c.16,0,.3.1.34.26l6.04,19.94c.05.19-.06.39-.25.44-.19.05-.39-.06-.44-.25l-.09-.32L64.41.72H7.42L1.46,20.4c-.05.15-.19.25-.34.25Z"/>
        <circle class="cls-11" cx="36.07" cy="3" r="1.28"/>
        <circle class="cls-11" cx="43.77" cy="3" r="1.28"/>
        <circle class="cls-11" cx="27.76" cy="3" r="1.28"/>
      </g>
    </g>
  </g>
</svg>