<?xml version="1.0" encoding="UTF-8"?>
<svg xmlns="http://www.w3.org/2000/svg" xmlns:xlink="http://www.w3.org/1999/xlink" viewBox="0 0 584.59 376.05">
  <defs>
    <style>
      .cls-1 {
        fill: #ddd;
      }

      .cls-2 {
        fill: #9b9da0;
      }

      .cls-3 {
        fill: #e9e9e9;
      }

      .cls-4 {
        fill: url(#linear-gradient-2);
      }

      .cls-5 {
        fill: #f0f0f0;
      }

      .cls-6 {
        fill: #b4b5b7;
      }

      .cls-7 {
        fill: #f4f4f4;
      }

      .cls-8 {
        fill: #fff;
      }

      .cls-9 {
        fill: #cbcbcb;
      }

      .cls-10 {
        fill: #d1d1d1;
      }

      .cls-11 {
        fill: #fafafa;
      }

      .cls-12 {
        fill: #dbdbdb;
      }

      .cls-13 {
        fill: #a7a9ac;
      }

      .cls-14 {
        fill: #cacaca;
      }

      .cls-15 {
        fill: #d8d8d8;
      }

      .cls-16 {
        fill: #f6f6f6;
      }

      .cls-17 {
        fill: url(#linear-gradient);
      }

      .cls-17, .cls-18, .cls-19 {
        mix-blend-mode: multiply;
      }

      .cls-20 {
        fill: #939598;
      }

      .cls-21 {
        fill: #e2e2e2;
      }

      .cls-22 {
        fill: #f5f5f5;
      }

      .cls-23 {
        fill: #acadaf;
      }

      .cls-24 {
        stroke: #8f8f8f;
        stroke-width: .03px;
      }

      .cls-24, .cls-25 {
        fill: none;
        stroke-linecap: round;
        stroke-linejoin: round;
      }

      .cls-26 {
        fill: url(#linear-gradient-6);
      }

      .cls-27 {
        isolation: isolate;
      }

      .cls-28 {
        fill: #c9c9c8;
      }

      .cls-29 {
        fill: #d6d6d6;
      }

      .cls-30 {
        fill: #c9c9c9;
      }

      .cls-31 {
        fill: #acacab;
      }

      .cls-32 {
        fill: #e0e0e0;
      }

      .cls-33 {
        fill: url(#linear-gradient-11);
      }

      .cls-34 {
        fill: #c7c7c7;
      }

      .cls-35 {
        fill: #dedede;
      }

      .cls-36 {
        fill: #b3b3b2;
      }

      .cls-37 {
        fill: #c3c3c3;
      }

      .cls-38 {
        fill: #cfcfcf;
      }

      .cls-39 {
        fill: #d7d7d7;
      }

      .cls-40 {
        fill: url(#linear-gradient-10);
      }

      .cls-41 {
        fill: #9d9d9c;
      }

      .cls-42 {
        fill: #e1e1e1;
      }

      .cls-43 {
        fill: #e6e6e6;
      }

      .cls-44 {
        fill: #e7e7e7;
      }

      .cls-45 {
        fill: #cccdce;
      }

      .cls-46 {
        fill: url(#New_Gradient_Swatch_19);
      }

      .cls-47 {
        fill: #d4d4d4;
      }

      .cls-48 {
        fill: #dadada;
      }

      .cls-49 {
        fill: #eaeaea;
      }

      .cls-50 {
        fill: #c8c8c8;
      }

      .cls-51 {
        fill: #fdfdfd;
      }

      .cls-52 {
        fill: #a4a4a3;
      }

      .cls-53 {
        fill: #e4e4e4;
      }

      .cls-25 {
        stroke: #949494;
        stroke-width: .03px;
      }

      .cls-54 {
        fill: #fbfbfb;
      }

      .cls-55 {
        fill: #babab9;
      }

      .cls-56 {
        fill: #f9f9f9;
      }

      .cls-57 {
        fill: #72a6bf;
      }

      .cls-58 {
        fill: #e5e5e5;
      }

      .cls-59 {
        fill: url(#linear-gradient-5);
      }

      .cls-60 {
        fill: #d3d3d3;
      }

      .cls-61 {
        fill: #ebebeb;
      }

      .cls-62 {
        fill: #bebebe;
      }

      .cls-63 {
        fill: #d5d5d5;
      }

      .cls-64 {
        fill: #dcdcdc;
      }

      .cls-65 {
        fill: #c1c1c1;
      }

      .cls-66 {
        fill: #e8e8e8;
      }

      .cls-67 {
        fill: url(#linear-gradient-7);
      }

      .cls-18 {
        fill: url(#linear-gradient-12);
      }

      .cls-68 {
        fill: #bcbdbf;
      }

      .cls-69 {
        fill: #ccc;
      }

      .cls-70 {
        fill: #a3a5a7;
      }

      .cls-71 {
        fill: #ddddde;
      }

      .cls-72 {
        fill: #f7f7f7;
      }

      .cls-73 {
        fill: #efefef;
      }

      .cls-74 {
        fill: #c4c5c6;
      }

      .cls-75 {
        fill: url(#linear-gradient-9);
      }

      .cls-76 {
        fill: #f1f1f1;
      }

      .cls-77 {
        fill: url(#linear-gradient-3);
      }

      .cls-78 {
        fill: #cecece;
      }

      .cls-79 {
        fill: #f3f3f3;
      }

      .cls-80 {
        fill: #d9d9d9;
      }

      .cls-81 {
        fill: #cdcdcd;
      }

      .cls-82 {
        fill: #d4d5d6;
      }

      .cls-83 {
        fill: #f8f8f8;
      }

      .cls-84 {
        fill: #d2d2d2;
      }

      .cls-85 {
        fill: #c6c6c6;
      }

      .cls-86 {
        fill: #eee;
      }

      .cls-87 {
        fill: #d0d0d0;
      }

      .cls-88 {
        fill: url(#linear-gradient-4);
      }

      .cls-89 {
        fill: #ececec;
      }

      .cls-90 {
        fill: #f2f2f2;
      }

      .cls-91 {
        fill: url(#linear-gradient-8);
      }

      .cls-92 {
        fill: #fefefe;
      }

      .cls-93 {
        fill: url(#linear-gradient-13);
      }

      .cls-94 {
        fill: #e3e3e3;
      }

      .cls-95 {
        fill: #fcfcfc;
      }

      .cls-96 {
        fill: #ededed;
      }

      .cls-97 {
        fill: #dfdfdf;
      }
    </style>
    <linearGradient id="linear-gradient" x1="59.35" y1="164.54" x2="194.4" y2="164.54" gradientUnits="userSpaceOnUse">
      <stop offset="0" stop-color="#d9d9d9"/>
      <stop offset=".19" stop-color="#e8e8e8"/>
      <stop offset="1" stop-color="#fff"/>
    </linearGradient>
    <linearGradient id="linear-gradient-2" x1="250" y1="-108.58" x2="250" y2="144.88" gradientTransform="translate(175.65 168.35) rotate(-5.71) scale(.91 .9) skewX(-11.2)" gradientUnits="userSpaceOnUse">
      <stop offset="0" stop-color="#c3c3c3"/>
      <stop offset="1" stop-color="#c2c2c2"/>
    </linearGradient>
    <linearGradient id="linear-gradient-3" x1="14.18" y1="-359.76" x2="14.18" y2="-65.33" gradientTransform="translate(351.29 336.7) rotate(-12.53) scale(.84 .76) skewX(-22.95)" gradientUnits="userSpaceOnUse">
      <stop offset="0" stop-color="#c7c7c7"/>
      <stop offset="1" stop-color="#c5c5c6"/>
    </linearGradient>
    <linearGradient id="linear-gradient-4" x1="-408.05" y1="-818.74" x2="-408.05" y2="-441.06" gradientTransform="translate(526.94 505.05) rotate(-20.56) scale(.78 .59) skewX(-33.33)" gradientUnits="userSpaceOnUse">
      <stop offset="0" stop-color="#ccc"/>
      <stop offset="1" stop-color="#c9c9c9"/>
    </linearGradient>
    <linearGradient id="linear-gradient-5" x1="-1389.52" y1="-1901.9" x2="-1389.52" y2="-1310.79" gradientTransform="translate(702.59 673.41) rotate(-29.74) scale(.73 .37) skewX(-40.75)" gradientUnits="userSpaceOnUse">
      <stop offset="0" stop-color="#d1d1d1"/>
      <stop offset="1" stop-color="#cdcdcd"/>
    </linearGradient>
    <linearGradient id="linear-gradient-6" x1="-6283.83" y1="-7356.41" x2="-6283.83" y2="-5632.98" gradientTransform="translate(878.23 841.76) rotate(-39.81) scale(.71 .13) skewX(-44.53)" gradientUnits="userSpaceOnUse">
      <stop offset="0" stop-color="#d5d6d6"/>
      <stop offset="1" stop-color="#d0d1d1"/>
    </linearGradient>
    <linearGradient id="linear-gradient-7" x1="8381.64" y1="7309.6" x2="8381.64" y2="9047.18" gradientTransform="translate(1053.88 1010.11) rotate(-50.19) scale(.71 -.13) skewX(-44.53)" gradientUnits="userSpaceOnUse">
      <stop offset="0" stop-color="#dadada"/>
      <stop offset="1" stop-color="#d4d4d5"/>
    </linearGradient>
    <linearGradient id="linear-gradient-8" x1="3485.81" y1="2990.9" x2="3485.81" y2="3592.44" gradientTransform="translate(1229.53 1178.46) rotate(-60.26) scale(.73 -.37) skewX(-40.75)" gradientUnits="userSpaceOnUse">
      <stop offset="0" stop-color="#dedfdf"/>
      <stop offset="1" stop-color="#d7d8d9"/>
    </linearGradient>
    <linearGradient id="linear-gradient-9" x1="2502.09" y1="2126.78" x2="2502.09" y2="2508.67" gradientTransform="translate(1405.17 1346.81) rotate(-69.44) scale(.78 -.59) skewX(-33.33)" gradientUnits="userSpaceOnUse">
      <stop offset="0" stop-color="#e3e4e4"/>
      <stop offset="1" stop-color="#dbdcdd"/>
    </linearGradient>
    <linearGradient id="linear-gradient-10" x1="2077.64" y1="1757.37" x2="2077.64" y2="2048.52" gradientTransform="translate(1580.82 1515.16) rotate(-77.47) scale(.84 -.76) skewX(-22.95)" gradientUnits="userSpaceOnUse">
      <stop offset="0" stop-color="#e8e9e9"/>
      <stop offset="1" stop-color="#dfe0e0"/>
    </linearGradient>
    <linearGradient id="linear-gradient-11" x1="1839.95" y1="1553.44" x2="1839.95" y2="1795.58" gradientTransform="translate(1756.47 1683.51) rotate(-84.29) scale(.91 -.9) skewX(-11.2)" gradientUnits="userSpaceOnUse">
      <stop offset="0" stop-color="#eceded"/>
      <stop offset="1" stop-color="#e2e3e4"/>
    </linearGradient>
    <linearGradient id="New_Gradient_Swatch_19" data-name="New Gradient Swatch 19" x1="1687.33" y1="1425.02" x2="1687.33" y2="1636.36" gradientTransform="translate(1932.11 1851.87) rotate(-90) scale(1 -1)" gradientUnits="userSpaceOnUse">
      <stop offset="0" stop-color="#f1f2f2"/>
      <stop offset="1" stop-color="#e6e7e8"/>
    </linearGradient>
    <linearGradient id="linear-gradient-12" x1="461.74" y1="109.12" x2="335.92" y2="203.48" gradientUnits="userSpaceOnUse">
      <stop offset="0" stop-color="#e0e0e0"/>
      <stop offset="1" stop-color="#fff"/>
    </linearGradient>
    <linearGradient id="linear-gradient-13" x1="213.21" y1="307.36" x2="213.21" y2="7.72" gradientUnits="userSpaceOnUse">
      <stop offset="0" stop-color="#b8b8b8"/>
      <stop offset=".64" stop-color="#fff"/>
      <stop offset="1" stop-color="#d1d1d1"/>
    </linearGradient>
  </defs>
  <g class="cls-27">
    <g id="Layer_1" data-name="Layer 1">
      <g>
        <g class="cls-19">
          <path class="cls-8" d="m156.18,374.22h0ZM314.03,55.61c-71.95,0-121.17,40.94-145.78,87.63l.03-82.73c.01-7.43-5.34-13.51-11.95-13.54h-1.59c-6.58,0-11.95,6.04-11.96,13.47l-.04,90.93h-4.47v-41.09c0-22.43-15.49-40.68-34.52-40.68H34.53C15.49,69.61,0,87.86,0,110.29v202.45c0,22.43,15.49,40.67,34.53,40.67h69.23c19.03,0,34.52-18.23,34.52-40.67v-41.11h4.4l-.04,90.86c-.01,7.45,5.34,13.54,11.94,13.55h1.59s.02.01.02.01c6.57,0,11.95-6.04,11.96-13.49l.03-82.87c24.6,46.71,73.84,87.72,145.86,87.72,107.6,0,212.83-89.26,212.83-155.87S421.63,55.61,314.03,55.61Z"/>
          <path class="cls-95" d="m158.93,371.98h0ZM316.78,53.38c-71.95,0-121.17,40.94-145.78,87.63l.03-82.73c.01-7.43-5.34-13.51-11.95-13.54h-1.59c-6.58,0-11.95,6.04-11.96,13.47l-.04,90.93h-4.47v-41.09c0-22.43-15.49-40.68-34.52-40.68H37.28c-19.04,0-34.53,18.25-34.53,40.68v202.45c0,22.43,15.49,40.67,34.53,40.67h69.23c19.03,0,34.52-18.23,34.52-40.67v-41.11h4.41l-.04,90.86c-.01,7.45,5.34,13.54,11.94,13.55h1.59s.02.01.02.01c6.57,0,11.95-6.04,11.96-13.49l.03-82.87c24.6,46.71,73.84,87.72,145.86,87.72,107.6,0,212.83-89.26,212.83-155.87S424.38,53.38,316.78,53.38Z"/>
          <path class="cls-11" d="m161.68,369.75h0ZM319.53,51.14c-71.95,0-121.17,40.94-145.78,87.63l.03-82.73c.01-7.43-5.34-13.51-11.95-13.54h-1.59c-6.58,0-11.95,6.04-11.96,13.47l-.04,90.93h-4.47v-41.09c0-22.43-15.49-40.68-34.52-40.68H40.03c-19.04,0-34.53,18.25-34.53,40.68v202.45c0,22.43,15.49,40.67,34.53,40.67h69.23c19.03,0,34.52-18.24,34.52-40.67v-41.11h4.41l-.04,90.86c-.01,7.45,5.34,13.54,11.94,13.55h1.58s.02.01.02.01c6.57,0,11.95-6.04,11.96-13.49l.03-82.87c24.6,46.71,73.84,87.72,145.86,87.72,107.6,0,212.83-89.26,212.83-155.87S427.13,51.14,319.53,51.14Z"/>
          <path class="cls-72" d="m164.43,367.51h0ZM322.28,48.9c-71.95,0-121.17,40.94-145.78,87.63l.03-82.73c.01-7.43-5.34-13.51-11.95-13.54h-1.59c-6.58,0-11.95,6.04-11.96,13.47l-.04,90.93h-4.47v-41.09c0-22.43-15.49-40.68-34.52-40.68H42.78c-19.04,0-34.53,18.25-34.53,40.68v202.45c0,22.43,15.49,40.67,34.53,40.67h69.23c19.03,0,34.52-18.24,34.52-40.67v-41.11h4.41l-.04,90.86c-.01,7.45,5.34,13.54,11.94,13.55h1.58s.02.01.02.01c6.58,0,11.95-6.04,11.96-13.49l.03-82.87c24.6,46.71,73.84,87.72,145.86,87.72,107.6,0,212.83-89.26,212.83-155.87S429.88,48.9,322.28,48.9Z"/>
          <path class="cls-7" d="m167.18,365.27h0ZM325.03,46.67c-71.95,0-121.17,40.94-145.78,87.63l.04-82.73c.01-7.43-5.34-13.51-11.95-13.54h-1.59c-6.58,0-11.95,6.04-11.96,13.47l-.04,90.93h-4.47v-41.09c0-22.43-15.49-40.68-34.52-40.68H45.53c-19.04,0-34.53,18.25-34.53,40.68v202.45c0,22.43,15.49,40.67,34.53,40.67h69.23c19.03,0,34.52-18.24,34.52-40.67v-41.11h4.41l-.04,90.86c-.01,7.45,5.34,13.54,11.94,13.55h1.58s.02.01.02.01c6.58,0,11.95-6.04,11.96-13.49l.04-82.87c24.6,46.71,73.84,87.72,145.86,87.72,107.6,0,212.83-89.26,212.83-155.87S432.63,46.67,325.03,46.67Z"/>
          <path class="cls-76" d="m169.93,363.04h0ZM327.78,44.43c-71.95,0-121.17,40.94-145.78,87.63l.04-82.73c.01-7.43-5.34-13.51-11.95-13.54h-1.59c-6.58,0-11.95,6.04-11.96,13.47l-.04,90.93h-4.47v-41.09c0-22.43-15.49-40.68-34.52-40.68H48.28c-19.04,0-34.53,18.25-34.53,40.68v202.45c0,22.43,15.49,40.67,34.53,40.67h69.23c19.03,0,34.52-18.24,34.52-40.67v-41.11h4.41l-.04,90.86c-.01,7.45,5.34,13.54,11.94,13.55h1.58s.02.01.02.01c6.58,0,11.95-6.04,11.96-13.49l.04-82.87c24.6,46.71,73.84,87.72,145.85,87.72,107.6,0,212.83-89.26,212.83-155.87S435.38,44.43,327.78,44.43Z"/>
          <path class="cls-73" d="m172.68,360.8h0ZM330.53,42.19c-71.95,0-121.17,40.94-145.78,87.63l.04-82.73c.01-7.43-5.34-13.51-11.95-13.54h-1.59c-6.58,0-11.95,6.04-11.96,13.47l-.04,90.93h-4.47v-41.09c0-22.43-15.49-40.68-34.52-40.68H51.03c-19.04,0-34.53,18.25-34.53,40.68v202.45c0,22.43,15.49,40.67,34.53,40.67h69.23c19.03,0,34.52-18.24,34.52-40.67v-41.11h4.41l-.04,90.86c-.01,7.45,5.34,13.54,11.94,13.55h1.58s.02.01.02.01c6.58,0,11.95-6.04,11.96-13.49l.04-82.87c24.6,46.71,73.84,87.72,145.85,87.72,107.6,0,212.83-89.26,212.83-155.87S438.13,42.19,330.53,42.19Z"/>
          <path class="cls-89" d="m175.43,358.56h0ZM333.28,39.95c-71.94,0-121.17,40.94-145.78,87.63l.04-82.73c.01-7.43-5.34-13.51-11.95-13.54h-1.59c-6.58,0-11.95,6.04-11.96,13.47l-.04,90.93h-4.47v-41.09c0-22.43-15.49-40.68-34.52-40.68H53.78c-19.04,0-34.53,18.25-34.53,40.68v202.45c0,22.43,15.49,40.67,34.53,40.67h69.23c19.03,0,34.52-18.24,34.52-40.67v-41.11h4.41l-.04,90.86c-.01,7.45,5.34,13.54,11.94,13.55h1.58s.02.01.02.01c6.58,0,11.95-6.04,11.96-13.49l.04-82.87c24.6,46.71,73.84,87.72,145.85,87.72,107.61,0,212.83-89.26,212.83-155.87S440.88,39.95,333.28,39.95Z"/>
          <path class="cls-3" d="m178.18,356.33h0ZM336.03,37.72c-71.94,0-121.16,40.94-145.78,87.63l.04-82.73c.01-7.43-5.34-13.52-11.95-13.54h-1.59c-6.58,0-11.95,6.04-11.96,13.47l-.04,90.93h-4.47v-41.09c0-22.43-15.49-40.68-34.52-40.68H56.53c-19.04,0-34.53,18.25-34.53,40.68v202.45c0,22.43,15.49,40.67,34.53,40.67h69.23c19.03,0,34.52-18.24,34.52-40.67v-41.11h4.41l-.04,90.86c-.01,7.45,5.34,13.54,11.94,13.55h1.58s.02.01.02.01c6.58,0,11.95-6.04,11.96-13.49l.04-82.87c24.6,46.71,73.84,87.72,145.85,87.72,107.61,0,212.83-89.26,212.83-155.87S443.63,37.72,336.03,37.72Z"/>
          <path class="cls-44" d="m180.93,354.09h0ZM338.78,35.48c-71.94,0-121.16,40.94-145.78,87.63l.04-82.73c.01-7.43-5.34-13.52-11.95-13.54h-1.59c-6.58,0-11.95,6.04-11.96,13.47l-.04,90.93h-4.48v-41.09c0-22.43-15.49-40.68-34.52-40.68H59.28c-19.04,0-34.53,18.25-34.53,40.68v202.45c0,22.43,15.49,40.67,34.53,40.67h69.23c19.03,0,34.52-18.24,34.52-40.67v-41.11h4.41l-.04,90.86c-.01,7.45,5.34,13.54,11.94,13.55h1.58s.02.01.02.01c6.58,0,11.95-6.04,11.96-13.49l.04-82.87c24.6,46.71,73.84,87.72,145.85,87.72,107.61,0,212.83-89.26,212.83-155.87S446.38,35.48,338.78,35.48Z"/>
          <path class="cls-53" d="m183.68,351.85h0ZM341.52,33.24c-71.94,0-121.16,40.94-145.78,87.63l.04-82.73c.01-7.43-5.34-13.52-11.95-13.54h-1.59c-6.58,0-11.95,6.04-11.96,13.47l-.04,90.93h-4.48v-41.09c0-22.43-15.49-40.68-34.52-40.68H62.03c-19.04,0-34.53,18.25-34.53,40.68v202.45c0,22.43,15.49,40.67,34.53,40.67h69.23c19.03,0,34.52-18.24,34.52-40.67v-41.11h4.41l-.04,90.86c-.01,7.45,5.34,13.54,11.94,13.55h1.58s.02.01.02.01c6.58,0,11.95-6.04,11.96-13.49l.04-82.87c24.6,46.71,73.84,87.72,145.85,87.72,107.61,0,212.83-89.26,212.83-155.87S449.13,33.24,341.52,33.24Z"/>
          <path class="cls-42" d="m186.43,349.61h0ZM344.27,31.01c-71.94,0-121.16,40.94-145.78,87.63l.04-82.73c.01-7.43-5.34-13.52-11.95-13.54h-1.59c-6.58,0-11.95,6.04-11.96,13.47l-.04,90.93h-4.48v-41.09c0-22.43-15.49-40.68-34.51-40.68h-69.23c-19.04,0-34.53,18.25-34.53,40.68v202.45c0,22.43,15.49,40.68,34.53,40.68h69.23c19.03,0,34.51-18.24,34.51-40.68v-41.11h4.41l-.04,90.86c-.01,7.45,5.34,13.54,11.94,13.55h1.58s.02.01.02.01c6.58,0,11.95-6.04,11.96-13.49l.04-82.87c24.6,46.71,73.84,87.72,145.85,87.72,107.61,0,212.83-89.26,212.83-155.87S451.88,31.01,344.27,31.01Z"/>
          <path class="cls-35" d="m189.17,347.38h0ZM347.02,28.77c-71.94,0-121.16,40.94-145.78,87.63l.04-82.73c.01-7.44-5.34-13.52-11.95-13.54h-1.59c-6.58,0-11.95,6.04-11.96,13.47l-.04,90.93h-4.48v-41.09c0-22.43-15.49-40.68-34.51-40.68h-69.23c-19.04,0-34.53,18.25-34.53,40.68v202.45c0,22.43,15.49,40.68,34.53,40.68h69.23c19.03,0,34.51-18.24,34.51-40.68v-41.11h4.41l-.04,90.86c-.01,7.45,5.34,13.54,11.94,13.55h1.58s.02.01.02.01c6.58,0,11.95-6.04,11.96-13.49l.04-82.87c24.6,46.71,73.84,87.72,145.85,87.72,107.61,0,212.83-89.26,212.83-155.87S454.63,28.77,347.02,28.77Z"/>
          <path class="cls-64" d="m191.92,345.14h0ZM349.77,26.53c-71.94,0-121.16,40.94-145.78,87.63l.04-82.73c.01-7.44-5.34-13.52-11.95-13.54h-1.59c-6.58,0-11.95,6.04-11.96,13.47l-.04,90.93h-4.48v-41.09c0-22.43-15.49-40.68-34.51-40.68h-69.23c-19.04,0-34.53,18.25-34.53,40.68v202.45c0,22.43,15.49,40.68,34.53,40.68h69.23c19.03,0,34.51-18.24,34.51-40.68v-41.11h4.41l-.04,90.86c-.01,7.45,5.34,13.54,11.94,13.55h1.58s.02.01.02.01c6.58,0,11.95-6.04,11.96-13.49l.04-82.87c24.6,46.71,73.84,87.72,145.85,87.72,107.61,0,212.83-89.26,212.83-155.87S457.38,26.53,349.77,26.53Z"/>
          <path class="cls-80" d="m194.67,342.9h0ZM352.52,24.3c-71.94,0-121.16,40.94-145.78,87.63l.04-82.73c.01-7.44-5.34-13.52-11.95-13.54h-1.59c-6.58,0-11.95,6.04-11.96,13.47l-.04,90.93h-4.48v-41.09c0-22.43-15.49-40.68-34.51-40.68h-69.23c-19.04,0-34.53,18.25-34.53,40.68v202.45c0,22.43,15.49,40.68,34.53,40.68h69.23c19.03,0,34.51-18.24,34.51-40.68v-41.11h4.41l-.04,90.86c-.01,7.45,5.34,13.54,11.94,13.55h1.58s.02.01.02.01c6.58,0,11.95-6.04,11.96-13.49l.04-82.87c24.6,46.71,73.84,87.72,145.85,87.72,107.61,0,212.83-89.26,212.83-155.87S460.13,24.3,352.52,24.3Z"/>
          <path class="cls-29" d="m197.42,340.67h0ZM355.27,22.06c-71.94,0-121.16,40.94-145.78,87.63l.04-82.72c.01-7.44-5.34-13.52-11.95-13.54h-1.59c-6.58,0-11.95,6.04-11.96,13.47l-.04,90.93h-4.48v-41.09c0-22.43-15.49-40.68-34.51-40.68h-69.23c-19.04,0-34.53,18.25-34.53,40.68v202.45c0,22.43,15.49,40.68,34.53,40.68h69.23c19.03,0,34.51-18.24,34.51-40.68v-41.11h4.41l-.04,90.86c-.01,7.45,5.34,13.54,11.94,13.55h1.58s.02.01.02.01c6.58,0,11.95-6.04,11.96-13.49l.04-82.87c24.6,46.71,73.84,87.72,145.85,87.72,107.61,0,212.83-89.26,212.83-155.87S462.88,22.06,355.27,22.06Z"/>
          <path class="cls-47" d="m200.17,338.43h0ZM358.02,19.82c-71.94,0-121.16,40.94-145.78,87.63l.04-82.72c.01-7.44-5.34-13.52-11.95-13.55h-1.59c-6.58,0-11.95,6.04-11.96,13.47l-.04,90.93h-4.48v-41.09c0-22.43-15.48-40.68-34.51-40.68h-69.23c-19.04,0-34.53,18.25-34.53,40.68v202.45c0,22.43,15.49,40.68,34.53,40.68h69.23c19.03,0,34.51-18.24,34.51-40.68v-41.11h4.41l-.04,90.86c-.01,7.45,5.34,13.54,11.94,13.55h1.58s.02.01.02.01c6.58,0,11.95-6.04,11.96-13.49l.04-82.87c24.6,46.71,73.84,87.72,145.85,87.72,107.61,0,212.83-89.26,212.83-155.87S465.63,19.82,358.02,19.82Z"/>
          <path class="cls-10" d="m202.92,336.19h0ZM360.77,17.59c-71.94,0-121.16,40.94-145.78,87.63l.04-82.72c.01-7.44-5.34-13.52-11.95-13.55h-1.59c-6.58,0-11.95,6.04-11.96,13.47l-.04,90.93h-4.48v-41.09c0-22.43-15.48-40.68-34.51-40.68h-69.23c-19.04,0-34.53,18.25-34.53,40.68v202.45c0,22.43,15.49,40.68,34.53,40.68h69.23c19.03,0,34.51-18.24,34.51-40.68v-41.11h4.41l-.04,90.86c-.01,7.45,5.34,13.54,11.94,13.55h1.58s.02.01.02.01c6.58,0,11.95-6.04,11.96-13.49l.04-82.87c24.6,46.71,73.84,87.72,145.85,87.72,107.61,0,212.83-89.26,212.83-155.87S468.38,17.59,360.77,17.59Z"/>
          <path class="cls-78" d="m205.67,333.96h0ZM363.52,15.35c-71.94,0-121.16,40.94-145.78,87.63l.04-82.72c.01-7.44-5.34-13.52-11.95-13.55h-1.59c-6.58,0-11.95,6.04-11.96,13.47l-.04,90.93h-4.48v-41.09c0-22.43-15.48-40.68-34.51-40.68h-69.23c-19.04,0-34.53,18.25-34.53,40.68v202.45c0,22.43,15.49,40.68,34.53,40.68h69.23c19.03,0,34.51-18.24,34.51-40.68v-41.11h4.41l-.04,90.86c-.01,7.45,5.34,13.54,11.94,13.55h1.58s.02.01.02.01c6.58,0,11.95-6.04,11.96-13.49l.04-82.87c24.6,46.71,73.84,87.72,145.85,87.72,107.61,0,212.83-89.26,212.83-155.87S471.13,15.35,363.52,15.35Z"/>
          <path class="cls-9" d="m208.42,331.72h0ZM366.27,13.11c-71.94,0-121.16,40.94-145.78,87.63l.04-82.72c.01-7.44-5.34-13.52-11.95-13.55h-1.59c-6.58,0-11.95,6.04-11.96,13.47l-.04,90.93h-4.48v-41.09c0-22.43-15.48-40.68-34.51-40.68h-69.23c-19.04,0-34.53,18.25-34.53,40.68v202.45c0,22.43,15.49,40.68,34.53,40.68h69.23c19.03,0,34.51-18.25,34.51-40.68v-41.11h4.41l-.04,90.86c-.01,7.45,5.34,13.54,11.94,13.55h1.58s.02.01.02.01c6.58,0,11.95-6.04,11.96-13.49l.04-82.87c24.6,46.71,73.84,87.72,145.85,87.72,107.61,0,212.83-89.26,212.83-155.87S473.88,13.11,366.27,13.11Z"/>
          <path class="cls-30" d="m211.17,329.48h0ZM369.02,10.87c-71.94,0-121.16,40.94-145.78,87.63l.04-82.72c.01-7.44-5.34-13.52-11.95-13.55h-1.59c-6.58,0-11.95,6.04-11.96,13.47l-.04,90.93h-4.48v-41.09c0-22.43-15.48-40.68-34.51-40.68h-69.23c-19.04,0-34.53,18.25-34.53,40.68v202.45c0,22.43,15.49,40.68,34.53,40.68h69.23c19.03,0,34.51-18.25,34.51-40.68v-41.11h4.42l-.04,90.86c-.01,7.45,5.34,13.54,11.94,13.55h1.58s.02.01.02.01c6.58,0,11.95-6.04,11.96-13.49l.04-82.87c24.6,46.71,73.84,87.72,145.85,87.72,107.61,0,212.83-89.26,212.83-155.87S476.63,10.87,369.02,10.87Z"/>
          <path class="cls-85" d="m213.92,327.25h0ZM371.76,8.64c-71.94,0-121.16,40.94-145.78,87.63l.04-82.72c.01-7.44-5.34-13.52-11.95-13.55h-1.59c-6.58,0-11.95,6.04-11.96,13.47l-.04,90.93h-4.48v-41.09c0-22.43-15.48-40.68-34.51-40.68h-69.23c-19.04,0-34.53,18.25-34.53,40.68v202.45c0,22.43,15.49,40.68,34.53,40.68h69.23c19.03,0,34.51-18.25,34.51-40.68v-41.11h4.42l-.04,90.86c-.01,7.45,5.34,13.54,11.94,13.55h1.57s.02.01.02.01c6.58,0,11.95-6.04,11.96-13.49l.04-82.87c24.6,46.71,73.84,87.72,145.84,87.72,107.61,0,212.83-89.26,212.83-155.87S479.38,8.64,371.76,8.64Z"/>
        </g>
        <g>
          <rect class="cls-13" x="68.56" y="104.41" width="194.87" height="120.25"/>
          <g>
            <g>
              <path class="cls-85" d="m194.4,265.76c0,21.45-14.71,38.85-32.9,38.85h-69.24c-18.18,0-32.91-17.4-32.91-38.85V63.3c0-21.46,14.73-38.84,32.91-38.84h69.24c18.19,0,32.9,17.37,32.9,38.84v202.46Z"/>
              <path class="cls-34" d="m193.96,265.27c0,21.48-14.73,38.9-32.95,38.9h-68.25c-18.21,0-32.96-17.42-32.96-38.9V63.8c0-21.49,14.75-38.89,32.96-38.89h68.25c18.22,0,32.95,17.4,32.95,38.89v201.47Z"/>
              <path class="cls-50" d="m193.51,264.77c0,21.51-14.75,38.96-33,38.96h-67.26c-18.23,0-33.01-17.45-33.01-38.96V64.29c0-21.52,14.78-38.95,33.01-38.95h67.26c18.24,0,33,17.42,33,38.95v200.48Z"/>
              <path class="cls-30" d="m193.07,264.28c0,21.54-14.78,39.02-33.05,39.02h-66.27c-18.26,0-33.06-17.47-33.06-39.02V64.79c0-21.55,14.8-39,33.06-39h66.27c18.27,0,33.05,17.45,33.05,39v199.49Z"/>
              <path class="cls-14" d="m192.62,263.78c0,21.57-14.8,39.07-33.09,39.07h-65.29c-18.29,0-33.11-17.5-33.11-39.07V65.28c0-21.58,14.82-39.06,33.11-39.06h65.29c18.3,0,33.09,17.47,33.09,39.06v198.5Z"/>
              <path class="cls-9" d="m192.17,263.29c0,21.61-14.82,39.13-33.14,39.13h-64.3c-18.31,0-33.15-17.52-33.15-39.13V65.78c0-21.61,14.84-39.11,33.15-39.11h64.3c18.32,0,33.14,17.5,33.14,39.11v197.51Z"/>
              <path class="cls-69" d="m191.73,262.79c0,21.64-14.84,39.18-33.19,39.18h-63.31c-18.34,0-33.2-17.55-33.2-39.18V66.27c0-21.65,14.86-39.17,33.2-39.17h63.31c18.35,0,33.19,17.52,33.19,39.17v196.52Z"/>
              <path class="cls-81" d="m191.28,262.29c0,21.67-14.86,39.24-33.24,39.24h-62.32c-18.36,0-33.25-17.57-33.25-39.24V66.77c0-21.68,14.88-39.22,33.25-39.22h62.32c18.37,0,33.24,17.55,33.24,39.22v195.53Z"/>
              <path class="cls-78" d="m190.84,261.8c0,21.7-14.89,39.29-33.29,39.29h-61.33c-18.39,0-33.3-17.6-33.3-39.29V67.26c0-21.71,14.91-39.28,33.3-39.28h61.33c18.4,0,33.29,17.57,33.29,39.28v194.54Z"/>
              <path class="cls-38" d="m190.39,261.3c0,21.73-14.91,39.35-33.33,39.35h-60.34c-18.42,0-33.34-17.62-33.34-39.35V67.76c0-21.74,14.93-39.33,33.34-39.33h60.34c18.43,0,33.33,17.6,33.33,39.33v193.55Z"/>
              <path class="cls-87" d="m189.94,260.81c0,21.76-14.93,39.41-33.38,39.41h-59.36c-18.44,0-33.39-17.64-33.39-39.41V68.25c0-21.77,14.95-39.39,33.39-39.39h59.36c18.45,0,33.38,17.62,33.38,39.39v192.56Z"/>
              <path class="cls-10" d="m189.5,260.31c0,21.79-14.95,39.46-33.43,39.46h-58.37c-18.47,0-33.44-17.67-33.44-39.46V68.75c0-21.8,14.97-39.44,33.44-39.44h58.37c18.48,0,33.43,17.65,33.43,39.44v191.57Z"/>
              <path class="cls-84" d="m189.05,259.82c0,21.82-14.97,39.52-33.48,39.52h-57.38c-18.5,0-33.49-17.69-33.49-39.52V69.24c0-21.83,14.99-39.5,33.49-39.5h57.38c18.5,0,33.48,17.67,33.48,39.5v190.58Z"/>
              <path class="cls-60" d="m188.61,259.32c0,21.85-15,39.57-33.53,39.57h-56.39c-18.52,0-33.54-17.72-33.54-39.57V69.74c0-21.86,15.01-39.55,33.54-39.55h56.39c18.53,0,33.53,17.7,33.53,39.55v189.59Z"/>
              <path class="cls-47" d="m188.16,258.83c0,21.89-15.02,39.63-33.57,39.63h-55.4c-18.55,0-33.58-17.74-33.58-39.63V70.23c0-21.89,15.04-39.61,33.58-39.61h55.4c18.56,0,33.57,17.72,33.57,39.61v188.6Z"/>
              <path class="cls-63" d="m187.71,258.33c0,21.92-15.04,39.68-33.62,39.68h-54.42c-18.57,0-33.63-17.77-33.63-39.68V70.73c0-21.92,15.06-39.67,33.63-39.67h54.42c18.58,0,33.62,17.74,33.62,39.67v187.61Z"/>
              <path class="cls-29" d="m187.27,257.84c0,21.95-15.06,39.74-33.67,39.74h-53.43c-18.6,0-33.68-17.79-33.68-39.74V71.22c0-21.95,15.08-39.72,33.68-39.72h53.43c18.61,0,33.67,17.77,33.67,39.72v186.62Z"/>
              <path class="cls-39" d="m186.82,257.34c0,21.98-15.08,39.8-33.72,39.8h-52.44c-18.63,0-33.73-17.82-33.73-39.8V71.72c0-21.98,15.1-39.78,33.73-39.78h52.44c18.63,0,33.72,17.79,33.72,39.78v185.63Z"/>
              <path class="cls-15" d="m186.37,256.85c0,22.01-15.11,39.85-33.77,39.85h-51.45c-18.65,0-33.77-17.84-33.77-39.85V72.21c0-22.01,15.12-39.83,33.77-39.83h51.45c18.66,0,33.77,17.82,33.77,39.83v184.64Z"/>
              <path class="cls-80" d="m185.93,256.35c0,22.04-15.13,39.91-33.81,39.91h-50.46c-18.68,0-33.82-17.86-33.82-39.91V72.71c0-22.04,15.14-39.89,33.82-39.89h50.46c18.69,0,33.81,17.84,33.81,39.89v183.65Z"/>
              <path class="cls-48" d="m185.48,255.86c0,22.07-15.15,39.96-33.86,39.96h-49.47c-18.7,0-33.87-17.89-33.87-39.96V73.2c0-22.07,15.17-39.94,33.87-39.94h49.47c18.71,0,33.86,17.87,33.86,39.94v182.66Z"/>
              <path class="cls-12" d="m185.04,255.36c0,22.1-15.17,40.02-33.91,40.02h-48.49c-18.73,0-33.92-17.91-33.92-40.02V73.7c0-22.1,15.19-40,33.92-40h48.49c18.74,0,33.91,17.89,33.91,40v181.66Z"/>
              <path class="cls-64" d="m184.59,254.87c0,22.14-15.19,40.07-33.96,40.07h-47.5c-18.76,0-33.97-17.94-33.97-40.07V74.19c0-22.13,15.21-40.05,33.97-40.05h47.5c18.76,0,33.96,17.92,33.96,40.05v180.67Z"/>
              <path class="cls-1" d="m184.14,254.37c0,22.17-15.22,40.13-34.01,40.13h-46.51c-18.78,0-34.01-17.96-34.01-40.13V74.69c0-22.16,15.23-40.11,34.01-40.11h46.51c18.79,0,34.01,17.94,34.01,40.11v179.68Z"/>
              <path class="cls-35" d="m183.7,253.87c0,22.2-15.24,40.18-34.05,40.18h-45.52c-18.81,0-34.06-17.99-34.06-40.18V75.18c0-22.19,15.25-40.16,34.06-40.16h45.52c18.82,0,34.05,17.97,34.05,40.16v178.69Z"/>
              <path class="cls-97" d="m183.25,253.38c0,22.23-15.26,40.24-34.1,40.24h-44.53c-18.84,0-34.11-18.01-34.11-40.24V75.68c0-22.23,15.27-40.22,34.11-40.22h44.53c18.84,0,34.1,17.99,34.1,40.22v177.7Z"/>
              <path class="cls-32" d="m182.81,252.88c0,22.26-15.28,40.3-34.15,40.3h-43.55c-18.86,0-34.16-18.04-34.16-40.3V76.17c0-22.26,15.3-40.27,34.16-40.27h43.55c18.87,0,34.15,18.02,34.15,40.27v176.71Z"/>
              <path class="cls-42" d="m182.36,252.39c0,22.29-15.3,40.35-34.2,40.35h-42.56c-18.89,0-34.21-18.06-34.21-40.35V76.66c0-22.29,15.32-40.33,34.21-40.33h42.56c18.89,0,34.2,18.04,34.2,40.33v175.72Z"/>
              <path class="cls-21" d="m181.91,251.89c0,22.32-15.33,40.41-34.25,40.41h-41.57c-18.91,0-34.25-18.09-34.25-40.41V77.16c0-22.32,15.34-40.38,34.25-40.38h41.57c18.92,0,34.25,18.07,34.25,40.38v174.73Z"/>
              <path class="cls-94" d="m181.47,251.4c0,22.35-15.35,40.46-34.29,40.46h-40.58c-18.94,0-34.3-18.11-34.3-40.46V77.65c0-22.35,15.36-40.44,34.3-40.44h40.58c18.95,0,34.29,18.09,34.29,40.44v173.74Z"/>
              <path class="cls-94" d="m181.02,250.9c0,22.38-15.37,40.52-34.34,40.52h-39.59c-18.97,0-34.35-18.13-34.35-40.52V78.15c0-22.38,15.38-40.49,34.35-40.49h39.59c18.97,0,34.34,18.12,34.34,40.49v172.75Z"/>
              <path class="cls-53" d="m180.57,250.41c0,22.42-15.39,40.57-34.39,40.57h-38.61c-18.99,0-34.4-18.16-34.4-40.57V78.64c0-22.41,15.4-40.55,34.4-40.55h38.61c19,0,34.39,18.14,34.39,40.55v171.76Z"/>
              <path class="cls-58" d="m180.13,249.91c0,22.45-15.42,40.63-34.44,40.63h-37.62c-19.02,0-34.44-18.18-34.44-40.63V79.14c0-22.44,15.43-40.6,34.44-40.6h37.62c19.02,0,34.44,18.17,34.44,40.6v170.77Z"/>
              <path class="cls-43" d="m179.68,249.42c0,22.48-15.44,40.69-34.49,40.69h-36.63c-19.04,0-34.49-18.21-34.49-40.69V79.63c0-22.47,15.45-40.66,34.49-40.66h36.63c19.05,0,34.49,18.19,34.49,40.66v169.78Z"/>
              <path class="cls-44" d="m179.24,248.92c0,22.51-15.46,40.74-34.53,40.74h-35.64c-19.07,0-34.54-18.23-34.54-40.74V80.13c0-22.5,15.47-40.71,34.54-40.71h35.64c19.08,0,34.53,18.21,34.53,40.71v168.79Z"/>
              <path class="cls-66" d="m178.79,248.43c0,22.54-15.48,40.8-34.58,40.8h-34.65c-19.1,0-34.59-18.26-34.59-40.8V80.62c0-22.53,15.49-40.77,34.59-40.77h34.65c19.1,0,34.58,18.24,34.58,40.77v167.8Z"/>
              <path class="cls-3" d="m178.34,247.93c0,22.57-15.5,40.85-34.63,40.85h-33.66c-19.12,0-34.64-18.28-34.64-40.85V81.12c0-22.56,15.51-40.82,34.64-40.82h33.66c19.13,0,34.63,18.26,34.63,40.82v166.81Z"/>
              <path class="cls-49" d="m177.9,247.44c0,22.6-15.53,40.91-34.68,40.91h-32.68c-19.15,0-34.68-18.31-34.68-40.91V81.61c0-22.59,15.53-40.88,34.68-40.88h32.68c19.15,0,34.68,18.29,34.68,40.88v165.82Z"/>
              <path class="cls-61" d="m177.45,246.94c0,22.63-15.55,40.96-34.73,40.96h-31.69c-19.18,0-34.73-18.33-34.73-40.96V82.11c0-22.62,15.56-40.94,34.73-40.94h31.69c19.18,0,34.73,18.31,34.73,40.94v164.83Z"/>
              <path class="cls-89" d="m177.01,246.44c0,22.67-15.57,41.02-34.78,41.02h-30.7c-19.2,0-34.78-18.35-34.78-41.02V82.6c0-22.65,15.58-40.99,34.78-40.99h30.7c19.21,0,34.78,18.34,34.78,40.99v163.84Z"/>
              <path class="cls-96" d="m176.56,245.95c0,22.7-15.59,41.08-34.82,41.08h-29.71c-19.23,0-34.83-18.38-34.83-41.08V83.1c0-22.68,15.6-41.05,34.83-41.05h29.71c19.23,0,34.82,18.36,34.82,41.05v162.85Z"/>
              <path class="cls-86" d="m176.11,245.45c0,22.73-15.61,41.13-34.87,41.13h-28.72c-19.25,0-34.87-18.4-34.87-41.13V83.59c0-22.71,15.62-41.1,34.87-41.1h28.72c19.26,0,34.87,18.39,34.87,41.1v161.86Z"/>
              <path class="cls-73" d="m175.67,244.96c0,22.76-15.64,41.19-34.92,41.19h-27.74c-19.28,0-34.92-18.43-34.92-41.19V84.09c0-22.74,15.64-41.16,34.92-41.16h27.74c19.28,0,34.92,18.41,34.92,41.16v160.87Z"/>
              <path class="cls-5" d="m175.22,244.46c0,22.79-15.66,41.24-34.97,41.24h-26.75c-19.31,0-34.97-18.45-34.97-41.24V84.58c0-22.77,15.66-41.21,34.97-41.21h26.75c19.31,0,34.97,18.44,34.97,41.21v159.88Z"/>
              <path class="cls-76" d="m174.77,243.97c0,22.82-15.68,41.3-35.02,41.3h-25.76c-19.33,0-35.02-18.48-35.02-41.3V85.08c0-22.81,15.69-41.27,35.02-41.27h25.76c19.34,0,35.02,18.46,35.02,41.27v158.89Z"/>
              <path class="cls-90" d="m174.33,243.47c0,22.85-15.7,41.35-35.06,41.35h-24.77c-19.36,0-35.07-18.5-35.07-41.35V85.57c0-22.84,15.71-41.32,35.07-41.32h24.77c19.36,0,35.06,18.49,35.06,41.32v157.9Z"/>
              <path class="cls-79" d="m173.88,242.98c0,22.88-15.72,41.41-35.11,41.41h-23.78c-19.39,0-35.11-18.53-35.11-41.41V86.07c0-22.87,15.73-41.38,35.11-41.38h23.78c19.39,0,35.11,18.51,35.11,41.38v156.91Z"/>
              <path class="cls-7" d="m173.44,242.48c0,22.91-15.75,41.47-35.16,41.47h-22.79c-19.41,0-35.16-18.55-35.16-41.47V86.56c0-22.9,15.75-41.43,35.16-41.43h22.79c19.41,0,35.16,18.54,35.16,41.43v155.92Z"/>
              <path class="cls-22" d="m172.99,241.99c0,22.95-15.77,41.52-35.21,41.52h-21.81c-19.44,0-35.21-18.58-35.21-41.52V87.06c0-22.93,15.77-41.49,35.21-41.49h21.81c19.44,0,35.21,18.56,35.21,41.49v154.93Z"/>
              <path class="cls-16" d="m172.54,241.49c0,22.98-15.79,41.58-35.26,41.58h-20.82c-19.46,0-35.26-18.6-35.26-41.58V87.55c0-22.96,15.79-41.54,35.26-41.54h20.82c19.47,0,35.26,18.59,35.26,41.54v153.94Z"/>
              <path class="cls-72" d="m172.1,241c0,23.01-15.81,41.63-35.3,41.63h-19.83c-19.49,0-35.31-18.62-35.31-41.63V88.05c0-22.99,15.82-41.6,35.31-41.6h19.83c19.49,0,35.3,18.61,35.3,41.6v152.95Z"/>
              <path class="cls-83" d="m171.65,240.5c0,23.04-15.83,41.69-35.35,41.69h-18.84c-19.52,0-35.35-18.65-35.35-41.69V88.54c0-23.02,15.84-41.65,35.35-41.65h18.84c19.52,0,35.35,18.63,35.35,41.65v151.96Z"/>
              <path class="cls-56" d="m171.21,240.01c0,23.07-15.86,41.74-35.4,41.74h-17.85c-19.54,0-35.4-18.67-35.4-41.74V89.04c0-23.05,15.86-41.71,35.4-41.71h17.85c19.54,0,35.4,18.66,35.4,41.71v150.97Z"/>
              <path class="cls-11" d="m170.76,239.51c0,23.1-15.88,41.8-35.45,41.8h-16.87c-19.57,0-35.45-18.7-35.45-41.8V89.53c0-23.08,15.88-41.76,35.45-41.76h16.87c19.57,0,35.45,18.68,35.45,41.76v149.98Z"/>
              <path class="cls-54" d="m170.31,239.01c0,23.13-15.9,41.85-35.5,41.85h-15.88c-19.59,0-35.5-18.72-35.5-41.85V90.03c0-23.11,15.9-41.82,35.5-41.82h15.88c19.6,0,35.5,18.71,35.5,41.82v148.99Z"/>
              <path class="cls-95" d="m169.87,238.52c0,23.16-15.92,41.91-35.54,41.91h-14.89c-19.62,0-35.54-18.75-35.54-41.91V90.52c0-23.14,15.92-41.87,35.54-41.87h14.89c19.62,0,35.54,18.73,35.54,41.87v148Z"/>
              <path class="cls-51" d="m169.42,238.02c0,23.19-15.94,41.97-35.59,41.97h-13.9c-19.65,0-35.59-18.77-35.59-41.97V91.02c0-23.17,15.95-41.93,35.59-41.93h13.9c19.65,0,35.59,18.76,35.59,41.93v147.01Z"/>
              <path class="cls-92" d="m168.97,237.53c0,23.23-15.97,42.02-35.64,42.02h-12.91c-19.67,0-35.64-18.8-35.64-42.02V91.51c0-23.2,15.97-41.98,35.64-41.98h12.91c19.67,0,35.64,18.78,35.64,41.98v146.02Z"/>
              <path class="cls-8" d="m168.53,237.03c0,23.26-15.99,42.08-35.69,42.08h-11.93c-19.7,0-35.69-18.82-35.69-42.08V92.01c0-23.23,15.99-42.04,35.69-42.04h11.93c19.7,0,35.69,18.81,35.69,42.04v145.03Z"/>
            </g>
            <path class="cls-24" d="m194.4,265.76c0,21.45-14.71,38.85-32.9,38.85h-69.24c-18.18,0-32.91-17.4-32.91-38.85V63.3c0-21.46,14.73-38.84,32.91-38.84h69.24c18.19,0,32.9,17.37,32.9,38.84v202.46Z"/>
          </g>
          <path class="cls-17" d="m194.4,265.76c0,21.45-14.71,38.85-32.9,38.85h-69.24c-18.18,0-32.91-17.4-32.91-38.85V63.3c0-21.46,14.73-38.84,32.91-38.84h69.24c18.19,0,32.9,17.37,32.9,38.84v202.46Z"/>
          <g>
            <g>
              <path class="cls-41" d="m126.69,187.13c-11.04-.15-19.92-10.37-19.82-22.86.11-12.48,9.15-22.47,20.21-22.32,11.06.14,19.92,10.37,19.82,22.85-.11,12.48-9.15,22.47-20.21,22.33Z"/>
              <path class="cls-52" d="m126.69,186.35c-10.66-.14-19.23-10.01-19.13-22.07.11-12.04,8.83-21.69,19.51-21.55,10.67.13,19.23,10.01,19.13,22.05-.11,12.04-8.83,21.69-19.51,21.56Z"/>
              <path class="cls-31" d="m126.7,185.56c-10.28-.14-18.54-9.65-18.45-21.27.1-11.61,8.52-20.92,18.8-20.78,10.29.13,18.54,9.65,18.45,21.26-.1,11.61-8.52,20.92-18.81,20.79Z"/>
              <path class="cls-36" d="m126.71,184.78c-9.9-.13-17.85-9.29-17.76-20.48.1-11.18,8.2-20.14,18.1-20,9.91.12,17.85,9.29,17.76,20.47-.1,11.18-8.2,20.14-18.11,20.01Z"/>
              <path class="cls-55" d="m126.71,184c-9.51-.13-17.16-8.93-17.07-19.69.09-10.74,7.88-19.36,17.4-19.23,9.53.12,17.17,8.93,17.08,19.68-.09,10.75-7.88,19.36-17.41,19.24Z"/>
              <path class="cls-65" d="m126.72,183.21c-9.13-.12-16.47-8.57-16.39-18.9.09-10.31,7.56-18.58,16.7-18.46,9.14.11,16.48,8.57,16.39,18.89-.09,10.32-7.57,18.58-16.71,18.47Z"/>
              <path class="cls-28" d="m126.73,182.43c-8.75-.12-15.78-8.21-15.7-18.11.09-9.88,7.25-17.8,16-17.69,8.76.11,15.79,8.21,15.71,18.1-.09,9.89-7.25,17.8-16.01,17.69Z"/>
              <path class="cls-87" d="m126.73,181.65c-8.37-.11-15.09-7.86-15.01-17.31.08-9.45,6.93-17.02,15.3-16.91,8.38.11,15.1,7.86,15.02,17.31-.08,9.45-6.94,17.02-15.31,16.92Z"/>
              <path class="cls-39" d="m126.74,180.87c-7.99-.1-14.4-7.5-14.33-16.52.08-9.01,6.61-16.24,14.6-16.14,8,.1,14.41,7.5,14.33,16.52-.08,9.02-6.62,16.24-14.61,16.14Z"/>
              <path class="cls-35" d="m126.75,180.08c-7.6-.1-13.71-7.14-13.64-15.73.07-8.58,6.29-15.47,13.9-15.37,7.61.1,13.72,7.14,13.65,15.73-.07,8.59-6.3,15.47-13.91,15.37Z"/>
              <path class="cls-43" d="m126.76,179.3c-7.22-.09-13.02-6.78-12.95-14.94.07-8.15,5.98-14.69,13.2-14.59,7.23.09,13.03,6.78,12.96,14.94-.07,8.16-5.99,14.69-13.21,14.6Z"/>
              <path class="cls-96" d="m126.76,178.52c-6.84-.09-12.33-6.42-12.27-14.15.07-7.71,5.66-13.91,12.5-13.82,6.85.09,12.34,6.42,12.28,14.15-.07,7.73-5.67,13.91-12.51,13.82Z"/>
            </g>
            <path class="cls-57" d="m126.76,178.52c-6.84-.09-12.33-6.42-12.27-14.15.07-7.71,5.66-13.91,12.5-13.82,6.85.09,12.34,6.42,12.28,14.15-.07,7.73-5.67,13.91-12.51,13.82Z"/>
          </g>
          <g>
            <path class="cls-85" d="m371.76,318.72c-103.29,0-162.52-85.69-162.52-154.15S268.48,10.34,371.76,10.34s211.31,85.71,211.31,154.23-108.1,154.15-211.31,154.15Z"/>
            <path class="cls-14" d="m372.02,317.11c-102.21,0-160.82-84.79-160.82-152.54S269.81,11.95,372.02,11.95s209.1,84.82,209.1,152.61-106.97,152.54-209.1,152.54Z"/>
            <path class="cls-38" d="m372.27,315.5c-101.13,0-159.12-83.9-159.12-150.93S271.14,13.56,372.27,13.56s206.89,83.92,206.89,151-105.84,150.93-206.89,150.93Z"/>
            <path class="cls-60" d="m372.53,313.89c-100.05,0-157.43-83-157.43-149.32S272.48,15.18,372.53,15.18s204.69,83.03,204.69,149.39-104.71,149.32-204.69,149.32Z"/>
            <path class="cls-39" d="m372.79,312.28c-98.97,0-155.73-82.11-155.73-147.71S273.81,16.79,372.79,16.79s202.48,82.13,202.48,147.78-103.59,147.71-202.48,147.71Z"/>
            <path class="cls-64" d="m373.04,310.67c-97.9,0-154.03-81.21-154.03-146.1S275.14,18.4,373.04,18.4s200.28,81.24,200.28,146.17-102.46,146.1-200.28,146.1Z"/>
            <path class="cls-32" d="m373.3,309.06c-96.82,0-152.34-80.32-152.34-144.49S276.48,20.01,373.3,20.01s198.07,80.34,198.07,144.56-101.33,144.49-198.07,144.49Z"/>
            <path class="cls-58" d="m373.55,307.45c-95.74,0-150.64-79.42-150.64-142.88S277.81,21.62,373.55,21.62s195.86,79.45,195.86,142.95-100.2,142.88-195.86,142.88Z"/>
            <path class="cls-3" d="m373.81,305.84c-94.66,0-148.94-78.53-148.94-141.27S279.15,23.23,373.81,23.23s193.66,78.55,193.66,141.34-99.07,141.27-193.66,141.27Z"/>
            <path class="cls-96" d="m374.06,304.23c-93.58,0-147.25-77.63-147.25-139.66S280.48,24.84,374.06,24.84s191.45,77.66,191.45,139.73-97.94,139.66-191.45,139.66Z"/>
            <path class="cls-90" d="m374.32,302.62c-92.51,0-145.55-76.74-145.55-138.05S281.81,26.45,374.32,26.45s189.24,76.76,189.24,138.12-96.82,138.05-189.24,138.05Z"/>
            <path class="cls-16" d="m374.57,301.01c-91.43,0-143.85-75.84-143.85-136.44S283.15,28.06,374.57,28.06s187.04,75.87,187.04,136.51-95.69,136.44-187.04,136.44Z"/>
            <path class="cls-16" d="m375.08,299.83c-90.84,0-142.93-75.19-142.93-135.26S284.24,29.23,375.08,29.23s185.84,75.21,185.84,135.34-95.08,135.26-185.84,135.26Z"/>
            <path class="cls-16" d="m375.59,298.65c-90.26,0-142.02-74.53-142.02-134.08S285.33,30.41,375.59,30.41s184.65,74.56,184.65,134.16-94.46,134.08-184.65,134.08Z"/>
            <path class="cls-16" d="m376.1,297.48c-89.68,0-141.1-73.88-141.1-132.91S286.42,31.59,376.1,31.59s183.46,73.9,183.46,132.98-93.85,132.91-183.46,132.91Z"/>
            <path class="cls-16" d="m376.61,296.3c-89.09,0-140.18-73.23-140.18-131.73s51.09-131.81,140.18-131.81,182.26,73.25,182.26,131.81-93.24,131.73-182.26,131.73Z"/>
            <path class="cls-16" d="m377.11,295.12c-88.51,0-139.26-72.57-139.26-130.55s50.75-130.63,139.26-130.63,181.07,72.6,181.07,130.63-92.63,130.55-181.07,130.55Z"/>
            <path class="cls-16" d="m377.62,293.95c-87.93,0-138.34-71.92-138.34-129.38s50.42-129.45,138.34-129.45,179.87,71.94,179.87,129.45-92.02,129.38-179.87,129.38Z"/>
            <path class="cls-16" d="m378.13,292.77c-87.34,0-137.43-71.26-137.43-128.2s50.08-128.27,137.43-128.27,178.68,71.29,178.68,128.27-91.41,128.2-178.68,128.2Z"/>
            <path class="cls-16" d="m378.64,291.59c-86.76,0-136.51-70.61-136.51-127.02s49.75-127.1,136.51-127.1,177.48,70.64,177.48,127.1-90.79,127.02-177.48,127.02Z"/>
            <path class="cls-16" d="m379.15,290.41c-86.17,0-135.59-69.96-135.59-125.84s49.42-125.92,135.59-125.92,176.29,69.98,176.29,125.92-90.18,125.84-176.29,125.84Z"/>
            <path class="cls-16" d="m379.66,289.24c-85.59,0-134.67-69.3-134.67-124.67s49.08-124.74,134.67-124.74,175.1,69.33,175.1,124.74-89.57,124.67-175.1,124.67Z"/>
            <path class="cls-16" d="m380.17,288.06c-85.01,0-133.75-68.65-133.75-123.49s48.75-123.56,133.75-123.56,173.9,68.67,173.9,123.56-88.96,123.49-173.9,123.49Z"/>
            <path class="cls-76" d="m380.43,287.26c-84.23,0-132.54-68.25-132.54-122.76s48.31-122.83,132.54-122.83,172.33,68.27,172.33,122.83-88.15,122.76-172.33,122.76Z"/>
            <path class="cls-89" d="m380.69,286.47c-83.45,0-131.33-67.84-131.33-122.03s47.87-122.1,131.33-122.1,170.76,67.86,170.76,122.1-87.35,122.03-170.76,122.03Z"/>
            <path class="cls-44" d="m380.96,285.67c-82.68,0-130.11-67.44-130.11-121.3s47.43-121.37,130.11-121.37,169.18,67.45,169.18,121.37-86.54,121.3-169.18,121.3Z"/>
            <path class="cls-21" d="m381.22,284.88c-81.9,0-128.9-67.04-128.9-120.57s47-120.64,128.9-120.64,167.61,67.05,167.61,120.64-85.73,120.57-167.61,120.57Z"/>
            <path class="cls-1" d="m381.49,284.08c-81.12,0-127.68-66.63-127.68-119.84s46.56-119.91,127.68-119.91,166.04,66.64,166.04,119.91-84.93,119.84-166.04,119.84Z"/>
            <path class="cls-39" d="m381.75,283.29c-80.35,0-126.47-66.23-126.47-119.1s46.12-119.18,126.47-119.18,164.47,66.23,164.47,119.18-84.12,119.1-164.47,119.1Z"/>
            <path class="cls-84" d="m382.02,282.49c-79.57,0-125.26-65.83-125.26-118.37s45.68-118.45,125.26-118.45,162.89,65.83,162.89,118.45-83.31,118.37-162.89,118.37Z"/>
            <path class="cls-81" d="m382.28,281.7c-78.79,0-124.04-65.42-124.04-117.64s45.25-117.72,124.04-117.72,161.32,65.42,161.32,117.72-82.51,117.64-161.32,117.64Z"/>
            <path class="cls-50" d="m382.55,280.9c-78.02,0-122.83-65.02-122.83-116.91s44.81-116.99,122.83-116.99,159.75,65.01,159.75,116.99-81.7,116.91-159.75,116.91Z"/>
            <path class="cls-37" d="m382.81,280.11c-77.24,0-121.61-64.62-121.61-116.18s44.37-116.26,121.61-116.26,158.17,64.61,158.17,116.26-80.89,116.18-158.17,116.18Z"/>
            <path class="cls-62" d="m383.07,279.31c-76.46,0-120.4-64.21-120.4-115.45s43.94-115.53,120.4-115.53,156.6,64.2,156.6,115.53-80.09,115.45-156.6,115.45Z"/>
            <path class="cls-4" d="m383.49,277.28c-74.82,0-117.81-63.04-117.81-113.35s42.99-113.43,117.81-113.43,153.22,63.03,153.22,113.43-78.36,113.35-153.22,113.35Z"/>
            <path class="cls-77" d="m383.9,275.24c-73.17,0-115.22-61.88-115.22-111.26s42.04-111.33,115.22-111.33,149.85,61.87,149.85,111.33-76.63,111.26-149.85,111.26Z"/>
            <path class="cls-88" d="m384.32,273.21c-71.53,0-112.62-60.71-112.62-109.16s41.1-109.23,112.62-109.23,146.47,60.7,146.47,109.23-74.9,109.16-146.47,109.16Z"/>
            <path class="cls-59" d="m384.74,271.18c-69.88,0-110.03-59.54-110.03-107.06s40.15-107.14,110.03-107.14,143.09,59.54,143.09,107.14-73.17,107.06-143.09,107.06Z"/>
            <path class="cls-26" d="m385.15,269.15c-68.23,0-107.44-58.37-107.44-104.96s39.2-105.04,107.44-105.04,139.71,58.37,139.71,105.04-71.45,104.96-139.71,104.96Z"/>
            <path class="cls-67" d="m385.57,267.11c-66.59,0-104.85-57.2-104.85-102.87s38.26-102.94,104.85-102.94,136.34,57.2,136.34,102.94-69.72,102.87-136.34,102.87Z"/>
            <path class="cls-91" d="m385.98,265.08c-64.94,0-102.26-56.04-102.26-100.77s37.31-100.84,102.26-100.84,132.96,56.04,132.96,100.84-67.99,100.77-132.96,100.77Z"/>
            <path class="cls-75" d="m386.4,263.05c-63.3,0-99.66-54.87-99.66-98.67s36.37-98.75,99.66-98.75,129.58,54.87,129.58,98.75-66.26,98.67-129.58,98.67Z"/>
            <path class="cls-40" d="m386.81,261.02c-61.65,0-97.07-53.7-97.07-96.58s35.42-96.65,97.07-96.65,126.21,53.71,126.21,96.65-64.54,96.58-126.21,96.58Z"/>
            <path class="cls-33" d="m387.23,258.98c-60.01,0-94.48-52.53-94.48-94.48s34.47-94.55,94.48-94.55,122.83,52.54,122.83,94.55-62.81,94.48-122.83,94.48Z"/>
            <path class="cls-46" d="m387.64,256.95c-58.36,0-91.89-51.36-91.89-92.38s33.53-92.46,91.89-92.46,119.45,51.38,119.45,92.46-61.08,92.38-119.45,92.38Z"/>
          </g>
          <path class="cls-25" d="m371.76,318.72c-103.29,0-162.52-85.69-162.52-154.15S268.48,10.34,371.76,10.34s211.31,85.71,211.31,154.23-108.1,154.15-211.31,154.15Z"/>
          <g>
            <path class="cls-96" d="m433.55,117.56c-29.64,0-46.69,26.06-46.69,46.94s17.05,47.01,46.69,47.01,60.76-26.14,60.76-47.01-31.05-46.94-60.76-46.94Z"/>
            <path class="cls-58" d="m434.8,119.24c-28.58,0-45.01,25.13-45.01,45.25s16.43,45.33,45.01,45.33,58.58-25.2,58.58-45.33-29.94-45.25-58.58-45.25Z"/>
            <path class="cls-71" d="m436.06,120.93c-27.51,0-43.34,24.19-43.34,43.57s15.82,43.64,43.34,43.64,56.4-24.26,56.4-43.64-28.82-43.57-56.4-43.57Z"/>
            <path class="cls-82" d="m437.31,122.62c-26.45,0-41.66,23.26-41.66,41.88s15.21,41.95,41.66,41.95,54.22-23.32,54.22-41.95-27.71-41.88-54.22-41.88Z"/>
            <path class="cls-45" d="m438.56,124.3c-25.39,0-39.98,22.32-39.98,40.2s14.6,40.26,39.98,40.26,52.04-22.38,52.04-40.26-26.6-40.2-52.04-40.2Z"/>
            <path class="cls-74" d="m439.82,125.99c-24.32,0-38.31,21.39-38.31,38.51s13.99,38.58,38.31,38.58,49.86-21.45,49.86-38.58-25.48-38.51-49.86-38.51Z"/>
            <path class="cls-68" d="m441.07,127.67c-23.26,0-36.63,20.45-36.63,36.83s13.37,36.89,36.63,36.89,47.68-20.51,47.68-36.89-24.37-36.83-47.68-36.83Z"/>
            <path class="cls-6" d="m442.32,129.36c-22.19,0-34.96,19.52-34.96,35.14s12.76,35.2,34.96,35.2,45.5-19.57,45.5-35.2-23.25-35.14-45.5-35.14Z"/>
            <path class="cls-23" d="m443.58,131.04c-21.13,0-33.28,18.58-33.28,33.46s12.15,33.52,33.28,33.52,43.32-18.63,43.32-33.52-22.14-33.46-43.32-33.46Z"/>
            <path class="cls-70" d="m444.83,132.73c-20.07,0-31.61,17.65-31.61,31.77s11.54,31.83,31.61,31.83,41.14-17.69,41.14-31.83-21.02-31.77-41.14-31.77Z"/>
            <path class="cls-2" d="m446.08,134.42c-19,0-29.93,16.71-29.93,30.09s10.93,30.14,29.93,30.14,38.96-16.75,38.96-30.14-19.91-30.09-38.96-30.09Z"/>
            <path class="cls-20" d="m447.34,136.1c-17.94,0-28.25,15.78-28.25,28.4s10.32,28.45,28.25,28.45,36.78-15.82,36.78-28.45-18.8-28.4-36.78-28.4Z"/>
          </g>
          <path class="cls-18" d="m383.07,278.11c-76.46,0-120.4-64.21-120.4-115.45s43.94-115.53,120.4-115.53,156.6,64.2,156.6,115.53-80.09,115.45-156.6,115.45Z"/>
          <path class="cls-93" d="m214.08,1.83c5.71.01,10.34,5.26,10.34,11.72l-.15,302.04c-.01,6.46-4.65,11.68-10.36,11.65h-1.57c-5.71-.02-10.34-5.27-10.34-11.73l.15-302.04c.01-6.46,4.65-11.67,10.36-11.65h1.57Z"/>
          <path class="cls-24" d="m214.08,1.83c5.71.01,10.34,5.26,10.34,11.72l-.15,302.04c-.01,6.46-4.65,11.68-10.36,11.65h-1.57c-5.71-.02-10.34-5.27-10.34-11.73l.15-302.04c.01-6.46,4.65-11.67,10.36-11.65h1.57Z"/>
        </g>
      </g>
    </g>
  </g>
</svg>