<?xml version="1.0" encoding="UTF-8"?>
<svg id="Layer_1" data-name="Layer 1" xmlns="http://www.w3.org/2000/svg" viewBox="0 0 208.04 349.5">
  <defs>
    <style>
      .cls-1 {
        fill: #d6d7d8;
      }

      .cls-2 {
        fill: #cfd0d2;
      }

      .cls-3, .cls-4 {
        fill: #fff;
      }

      .cls-5 {
        fill: #9c9ea1;
      }

      .cls-6 {
        fill: #4c4c4c;
      }

      .cls-7 {
        fill: #a7a9ac;
      }

      .cls-8 {
        fill: #c0c1c2;
      }

      .cls-9 {
        fill: #eab880;
        isolation: isolate;
        opacity: .3;
      }

      .cls-10 {
        fill: #e6e7e7;
      }

      .cls-4 {
        opacity: .1;
      }

      .cls-11 {
        fill: #d7d8da;
      }

      .cls-12 {
        fill: #bbbdbf;
      }

      .cls-13 {
        fill: #d6d6d5;
      }

      .cls-14 {
        fill: #9b9c9e;
      }

      .cls-15 {
        fill: #f8fafa;
      }

      .cls-16 {
        fill: #b1b2b3;
        stroke: #999b9d;
        stroke-miterlimit: 10;
        stroke-width: 1.13px;
      }

      .cls-17 {
        fill: #9b9c9f;
      }

      .cls-18 {
        opacity: .41;
      }

      .cls-19 {
        fill: #dfe2e0;
      }

      .cls-20 {
        fill: #babcbe;
      }

      .cls-21 {
        fill: #b7b8b9;
      }

      .cls-22 {
        fill: #d2d2d2;
      }

      .cls-23 {
        fill: #f2f2f2;
      }

      .cls-24 {
        fill: #a5a8aa;
      }
    </style>
  </defs>
  <g>
    <rect class="cls-6" x="106.01" y="95.58" width="100" height="100"/>
    <g class="cls-18">
      <polygon class="cls-4" points="185.09 100.99 111.15 174.92 111.15 190.18 200.34 100.99 185.09 100.99"/>
      <polygon class="cls-4" points="111.15 100.99 111.15 161.74 171.91 100.99 111.15 100.99"/>
    </g>
  </g>
  <g>
    <path class="cls-15" d="m98.17,199.98c-.84,0-1.52-.62-1.52-1.39V2.09c0-.77.68-1.39,1.52-1.39h106.55c.84,0,1.52.62,1.52,1.39v196.5c0,.77-.68,1.39-1.52,1.39h-106.55Z"/>
    <path class="cls-2" d="m95.89,198.59V2.09c0-1.15,1.02-2.09,2.28-2.09h106.55c1.26,0,2.28.94,2.28,2.09v196.5c0,1.15-1.02,2.09-2.28,2.09h-106.55c-1.26,0-2.28-.94-2.28-2.09ZM205.48,2.09c0-.38-.34-.7-.76-.7h-106.55c-.42,0-.76.31-.76.7v196.5c0,.38.34.7.76.7h106.55c.42,0,.76-.31.76-.7V2.09Z"/>
  </g>
  <g>
    <circle class="cls-13" cx="143.7" cy="100.59" r="43.8" transform="translate(-17.71 31.93) rotate(-11.95)"/>
    <path class="cls-3" d="m99.05,100.59c0-24.62,20.03-44.65,44.65-44.65s44.65,20.03,44.65,44.65-20.03,44.65-44.65,44.65-44.65-20.03-44.65-44.65Zm87.61,0c0-23.69-19.27-42.96-42.96-42.96s-42.96,19.27-42.96,42.96,19.27,42.96,42.96,42.96,42.96-19.27,42.96-42.96Z"/>
  </g>
  <circle class="cls-15" cx="143.7" cy="100.59" r="36.21"/>
  <path class="cls-19" d="m122.19,100.59c0-17.48,12.39-32.06,28.86-35.46-2.37-.49-4.83-.75-7.35-.75-20,0-36.21,16.21-36.21,36.21s16.21,36.21,36.21,36.21c2.52,0,4.98-.26,7.35-.75-16.47-3.4-28.86-17.98-28.86-35.46Z"/>
  <g>
    <g>
      <path class="cls-20" d="m149.26,100.59c0-3.07-2.49-5.56-5.56-5.56s-5.56,2.49-5.56,5.56c0,3.07,2.49,5.56,5.56,5.56s5.56-2.49,5.56-5.56Z"/>
      <path class="cls-24" d="m149.7,100.59c0,3.31-2.69,6-6,6s-6-2.69-6-6,2.69-6,6-6,6,2.69,6,6Zm-.87,0c0-2.83-2.3-5.12-5.12-5.12s-5.12,2.3-5.12,5.12c0,2.82,2.3,5.12,5.12,5.12s5.12-2.3,5.12-5.12Z"/>
    </g>
    <g>
      <path class="cls-1" d="m147.57,100.59c0-2.14-1.73-3.87-3.87-3.87s-3.87,1.73-3.87,3.87c0,2.14,1.73,3.87,3.87,3.87s3.87-1.73,3.87-3.87Z"/>
      <path class="cls-17" d="m148,100.59c0,2.37-1.93,4.3-4.3,4.3-2.37,0-4.3-1.93-4.3-4.3s1.93-4.3,4.3-4.3,4.3,1.93,4.3,4.3Zm-.87,0c0-1.89-1.54-3.43-3.43-3.43-1.89,0-3.43,1.54-3.43,3.43s1.54,3.43,3.43,3.43,3.43-1.54,3.43-3.43Z"/>
    </g>
    <path class="cls-17" d="m145.29,104.11v-7.04c1.34.61,2.28,1.95,2.28,3.52s-.94,2.91-2.28,3.52Z"/>
  </g>
  <g>
    <path class="cls-16" d="m195.79,106.18c-3.45,0-6.25-2.8-6.25-6.25s2.8-6.25,6.25-6.25,6.25,2.8,6.25,6.25-2.8,6.25-6.25,6.25Z"/>
    <rect class="cls-14" x="194.07" y="99.36" width="7.97" height="9.97"/>
    <rect class="cls-21" x="195.9" y="99.36" width="4.33" height="8.83"/>
    <rect class="cls-22" x="197.06" y="99.36" width="1.99" height="8.83"/>
    <path class="cls-14" d="m163.59,96.95h38.74c.94,0,1.71.77,1.71,1.71v2.53c0,.94-.77,1.71-1.71,1.71h-38.74c-.94,0-1.71-.77-1.71-1.71v-2.54c0-.94.77-1.71,1.71-1.71Z"/>
    <path class="cls-8" d="m165.75,101.64c-.88,0-1.59-.44-1.59-.98v-1.46c0-.54.71-.98,1.59-.98h35.99c.88,0,1.59.44,1.59.98v1.46c0,.54-.71.98-1.59.98h-35.99Z"/>
    <path class="cls-22" d="m165.75,100.33c-.88,0-1.59-.1-1.59-.23v-.34c0-.13.71-.23,1.59-.23h35.99c.88,0,1.59.1,1.59.23v.34c0,.13-.71.23-1.59.23h-35.99Z"/>
    <rect class="cls-14" x="190.94" y="108.76" width="13.1" height="4.84"/>
    <rect class="cls-21" x="192.93" y="108.76" width="9.11" height="4.13"/>
    <rect class="cls-22" x="195.92" y="108.76" width="3.13" height="4.13"/>
  </g>
  <g id="wall">
    <g id="t-sink">
      <path class="cls-9" d="m14.71,340.66h126.23s2.74,0,2.74,0h20.82c2.43,4.74,4.23,7.3,4.23,7.3.56.77,1.38,1.54,2.23,1.54h35.55c.85,0,1.54-.68,1.54-1.54v-122.92c0-.85-.69-1.54-1.54-1.54h-35.54c-.85,0-1.68.76-2.23,1.54,0,0-1.81,2.56-4.23,7.3H14.71c-4.85,0-13.54,21.9-14.71,54.16,1.17,32.27,9.86,54.16,14.71,54.16h0Z"/>
      <g>
        <path class="cls-1" d="m23.17,286.5c1.25,29.84,10.5,50.09,15.66,50.09h134.32c.71,0,1.29-.64,1.29-1.42v-97.33c0-.79-.58-1.42-1.29-1.42H38.83c-5.16,0-14.41,20.25-15.66,50.09Z"/>
        <path class="cls-12" d="m25.68,286.5c.99,29.84,8.32,50.09,12.41,50.09h106.48c.56,0,1.02-.64,1.02-1.42v-97.33c0-.79-.45-1.42-1.02-1.42H38.1c-4.09,0-11.42,20.25-12.41,50.09Z"/>
        <g>
          <path class="cls-10" d="m4.14,286.5c1.15,29.84,9.64,50.09,14.38,50.09h123.36c.65,0,1.19-.64,1.19-1.42v-97.33c0-.79-.53-1.42-1.19-1.42H18.53c-4.74,0-13.24,20.25-14.38,50.09Z"/>
          <path class="cls-3" d="m8.75,286.5c1.06,27.87,9,46.77,13.43,46.77h115.2c.61,0,1.11-.59,1.11-1.33v-90.89c0-.73-.5-1.33-1.11-1.33H22.18c-4.42,0-12.36,18.91-13.43,46.78Z"/>
        </g>
        <g>
          <path class="cls-23" d="m169.06,229.66s-16.46,21.98-16.46,56.84,16.46,56.84,16.46,56.84c.54.72,1.35,1.42,2.18,1.42h34.73c.83,0,1.51-.64,1.51-1.42v-113.68c0-.79-.68-1.42-1.51-1.42h-34.73c-.83,0-1.63.71-2.18,1.42Z"/>
          <path class="cls-3" d="m170.17,232.43s-14.79,20.92-14.79,54.07c0,33.16,14.79,54.07,14.79,54.07.5.68,1.21,1.35,1.96,1.35h31.21c.75,0,1.35-.61,1.35-1.35v-108.14c0-.75-.6-1.35-1.35-1.35h-31.21c-.75,0-1.47.67-1.96,1.35Z"/>
        </g>
      </g>
      <g>
        <path class="cls-12" d="m150.04,300.55v19.9c0,.79-.68,1.42-1.51,1.42h-3.94c-.83,0-1.51-.64-1.51-1.42v-19.9c0-.79.68-1.42,1.51-1.42h3.94c.83,0,1.51.64,1.51,1.42Z"/>
        <path class="cls-23" d="m149.46,302.21v16.58c0,.65-.56,1.18-1.25,1.18h-3.28c-.69,0-1.25-.53-1.25-1.18v-16.58c0-.65.56-1.18,1.25-1.18h3.28c.69,0,1.25.53,1.25,1.18h0Z"/>
      </g>
      <g>
        <path class="cls-12" d="m150.04,252.55v19.89c0,.79-.68,1.42-1.51,1.42h-3.94c-.83,0-1.51-.64-1.51-1.42v-19.89c0-.79.68-1.42,1.51-1.42h3.94c.83,0,1.51.64,1.51,1.42Z"/>
        <path class="cls-23" d="m149.46,254.2v16.58c0,.65-.56,1.18-1.25,1.18h-3.28c-.69,0-1.25-.53-1.25-1.18v-16.58c0-.65.56-1.18,1.25-1.18h3.28c.69,0,1.25.53,1.25,1.18Z"/>
      </g>
      <g>
        <g>
          <path class="cls-12" d="m177.41,286.5c0-3.16,2.72-5.72,6.07-5.72,3.35,0,6.07,2.56,6.07,5.72s-2.72,5.72-6.07,5.72-6.07-2.57-6.07-5.72Z"/>
          <path class="cls-7" d="m183.49,280.32c3.61,0,6.55,2.77,6.55,6.17s-2.94,6.17-6.55,6.17c-3.61,0-6.55-2.77-6.55-6.17s2.94-6.17,6.55-6.17Zm0,11.45c3.09,0,5.6-2.36,5.6-5.27s-2.51-5.27-5.6-5.27-5.6,2.37-5.6,5.27,2.51,5.27,5.6,5.27Z"/>
        </g>
        <g>
          <path class="cls-11" d="m179.26,286.5c0-2.2,1.89-3.98,4.23-3.98s4.23,1.78,4.23,3.98-1.89,3.98-4.23,3.98-4.23-1.78-4.23-3.98Z"/>
          <path class="cls-5" d="m183.49,282.06c2.59,0,4.7,1.99,4.7,4.43s-2.11,4.43-4.7,4.43-4.7-1.99-4.7-4.43,2.11-4.43,4.7-4.43Zm0,7.96c2.06,0,3.75-1.59,3.75-3.53s-1.68-3.53-3.75-3.53c-2.06,0-3.75,1.59-3.75,3.53s1.68,3.53,3.75,3.53Z"/>
        </g>
        <path class="cls-5" d="m181.75,290.12v-7.25c-1.47.62-2.49,2.01-2.49,3.62s1.02,2.99,2.49,3.62Z"/>
      </g>
    </g>
  </g>
</svg>