<?xml version="1.0" encoding="UTF-8"?>
<svg xmlns="http://www.w3.org/2000/svg" xmlns:xlink="http://www.w3.org/1999/xlink" viewBox="0 0 62.26 95.78">
  <defs>
    <style>
      .cls-1 {
        fill: #f0f0f0;
      }

      .cls-2 {
        fill: #fff;
      }

      .cls-3 {
        fill: #f7f8f8;
      }

      .cls-4 {
        fill: #fafafa;
      }

      .cls-5 {
        fill: url(#linear-gradient);
      }

      .cls-5, .cls-6 {
        mix-blend-mode: multiply;
      }

      .cls-7 {
        fill: #939598;
      }

      .cls-8 {
        fill: #ebecec;
      }

      .cls-9 {
        fill: #e6e7e7;
      }

      .cls-10 {
        isolation: isolate;
      }

      .cls-11 {
        fill: #f6f7f7;
      }

      .cls-12 {
        fill: #f3f4f4;
      }

      .cls-13 {
        fill: #e5e6e6;
      }

      .cls-14 {
        fill: none;
        stroke: #26281e;
        stroke-linecap: round;
        stroke-linejoin: round;
        stroke-width: .72px;
      }

      .cls-15 {
        fill: #f5f6f6;
      }

      .cls-16 {
        fill: #e7e8e8;
      }

      .cls-17 {
        fill: #fdfdfd;
      }

      .cls-18 {
        fill: #fbfbfb;
      }

      .cls-19 {
        fill: #f9f9f9;
      }

      .cls-20 {
        fill: #808285;
      }

      .cls-21 {
        fill: #e9eaea;
      }

      .cls-22 {
        fill: #e8e9e9;
      }

      .cls-6 {
        fill: url(#linear-gradient-2);
      }

      .cls-23 {
        fill: #e4e5e5;
      }

      .cls-24 {
        fill: #f4f5f5;
      }

      .cls-25 {
        fill: #efefef;
      }

      .cls-26 {
        fill: #eaebeb;
      }

      .cls-27 {
        filter: url(#luminosity-noclip);
      }

      .cls-28 {
        mask: url(#mask-1);
      }

      .cls-29 {
        mask: url(#mask);
      }

      .cls-30 {
        fill: #f1f1f1;
      }

      .cls-31 {
        fill: #f8f8f8;
      }

      .cls-32 {
        fill: #eee;
      }

      .cls-33 {
        fill: #ececec;
      }

      .cls-34 {
        fill: #f2f3f3;
      }

      .cls-35 {
        fill: #f2f2f2;
      }

      .cls-36 {
        fill: #26281e;
      }

      .cls-37 {
        fill: #fefefe;
      }

      .cls-38 {
        fill: #fcfcfc;
      }

      .cls-39 {
        fill: #ededed;
      }
    </style>
    <filter id="luminosity-noclip" x="13.91" y="27.81" width="31.18" height="15.14" color-interpolation-filters="sRGB" filterUnits="userSpaceOnUse">
      <feFlood flood-color="#fff" result="bg"/>
      <feBlend in="SourceGraphic" in2="bg"/>
    </filter>
    <filter id="luminosity-noclip-2" x="13.91" y="-8239.4" width="31.18" height="32766" color-interpolation-filters="sRGB" filterUnits="userSpaceOnUse">
      <feFlood flood-color="#fff" result="bg"/>
      <feBlend in="SourceGraphic" in2="bg"/>
    </filter>
    <mask id="mask-1" x="13.91" y="-8239.4" width="31.18" height="32766" maskUnits="userSpaceOnUse"/>
    <linearGradient id="linear-gradient" x1="-74.72" y1="227.18" x2="-74.72" y2="212.04" gradientTransform="translate(104.22 -184.22)" gradientUnits="userSpaceOnUse">
      <stop offset="0" stop-color="#000"/>
      <stop offset="1" stop-color="#fff"/>
    </linearGradient>
    <mask id="mask" x="13.91" y="27.81" width="31.18" height="15.14" maskUnits="userSpaceOnUse">
      <g class="cls-27">
        <g class="cls-28">
          <path class="cls-5" d="m45.01,40.77c2.15,3.3-33.49,2.62-30.96-.37,2.52-2.99,4.37-12.58,4.37-12.58h22.31s2.13,9.66,4.28,12.96Z"/>
        </g>
      </g>
    </mask>
    <linearGradient id="linear-gradient-2" x1="-74.72" y1="227.18" x2="-74.72" y2="212.04" gradientTransform="translate(104.22 -184.22)" gradientUnits="userSpaceOnUse">
      <stop offset="0" stop-color="#fff"/>
      <stop offset="1" stop-color="#000"/>
    </linearGradient>
  </defs>
  <g class="cls-10">
    <g id="Layer_1" data-name="Layer 1">
      <g>
        <g>
          <path class="cls-7" d="m44.5,31.61H4.13V4.13h58.13v27.48h-17.77Zm-8.52-16.84c0-1.46-1.18-2.64-2.63-2.64s-2.64,1.18-2.64,2.64,1.18,2.64,2.64,2.64,2.63-1.18,2.63-2.64Z"/>
          <path class="cls-7" d="m51.67,49.23l.16.2.45.75.62.75.45.91.45.76.3.91.45.75.29.91.3.91.3.91.3.91.3.91.3.91.15.91.16.91.15.91.15.91.15.91v5.59l-.15,1.06v.91l-.15.91-.15.91-.31.91-.15.91-.15.91-.3.91-.3.91-.3.91-.3.91-.44.75-.45.91-.3.91-.45.75-.47.75-.6.91-.45.75-.6.76-.59.75-.6.76-.6.6-.62.75-.45.3-.3.3-.3.3-.44.3-.3.3-.45.3-.3.3-.45.3-.47.3-.3.3-.45.15-.45.3-.45.3-.29.15-.45.3-.45.15-.45.15-.47.3-.45.15-.45.15-.45.15-.44.15-.6.15-.45.15-.45.15-.47.15h-.45l-.6.15h-.45l-.44.15h-1.06l-.45.15h-1.52l-.45-.15h-1.5l-.62-.15h-.45l-.45-.15-.45-.15h-.59l-.45-.15-.45-.15-.45-.15-.47-.15-.45-.15-.45-.3-.45-.15-.44-.15-.45-.3-.45-.15-.45-.3-.45-.15-.47-.3-.3-.3-.45-.15-.45-.3-.29-.3-.45-.3-.3-.3-.45-.3-.3-.3-.47-.3-.3-.3-.75-.6-.6-.75-.59-.75-.6-.6-.6-.75-.62-.75-.45-.91-.45-.75-.59-.76-.3-.91-.45-.75-.45-.91-.3-.91-.3-.91-.31-.75-.3-.91-.3-.91-.3-.91-.15-.91-.15-.91-.15-1.06-.15-.91-.14-.91v-1.81l-.15-1.06v-.91l.15-.91v-.91l.14-.91v-.91l.15-1.06.15-.91.15-.91.3-.91.15-.91.3-.91.3-.91.31-.91.3-.75.45-.91.3-.91.45-.75.44-.91.45-.75.45-.75.6-.91.03-.03c3.8-5.16,6.29-11.16,7.32-17.49h22.31c1.03,6.33,3.52,12.33,7.32,17.49l-.15.13Zm.16,20.28v-4.23l-.15-1.06-.15-1.06-.15-1.06-.3-1.06-.14-1.06-.3-.91-.3-1.06-.45-.91-.3-1.06-.45-.91-.62-.91-.45-.91-.6-.91-.59-.75-.6-.75-.6-.75-.77-.75-.75-.75-.74-.6-.75-.6-.91-.6-.77-.45-.91-.45-.89-.45-1.06-.3-.92-.3-.91-.3-1.04-.15h-3.93l-1.06.15-.92.3-1.04.3-.91.3-.91.45-.92.45-.75.45-.89.6-.75.6-.77.6-.75.75-.75.75-.59.75-.6.75-.6.75-.62.91-.45.91-.6.91-.44.91-.3,1.06-.45.91-.3,1.06-.3.91-.3,1.06-.15,1.06-.16,1.06-.15,1.06-.15,1.06v4.23l.15,1.06.15,1.06.16,1.06.15,1.06.3,1.06.3.91.3,1.06.45.91.3,1.06.44.91.6.91.45.91.62.75.6.91.6.76.59.75.75.76.75.75.77.6.75.6.89.6.75.45.92.45.91.45.91.3,1.04.3.92.15,1.06.15.89.15h2.13l.91-.15,1.04-.15.91-.15.92-.3,1.06-.3.89-.45.91-.45.77-.45.91-.6.75-.6.74-.6.75-.75.77-.76.6-.75.6-.76.59-.91.6-.75.45-.91.62-.91.45-.91.3-1.06.45-.91.3-1.06.3-.91.14-1.06.3-1.06.15-1.06.15-1.06.15-1.06Z"/>
          <circle class="cls-7" cx="33.35" cy="54.79" r="5.21"/>
          <path class="cls-7" d="m33.35,12.14c1.45,0,2.63,1.18,2.63,2.64s-1.18,2.64-2.63,2.64-2.64-1.18-2.64-2.64,1.18-2.64,2.64-2.64Zm.83,2.64c0-.45-.38-.83-.83-.83s-.84.38-.84.83.38.83.84.83.83-.36.83-.83Z"/>
          <path class="cls-7" d="m33.35,13.95c.45,0,.83.38.83.83s-.38.83-.83.83-.84-.36-.84-.83.38-.83.84-.83Z"/>
        </g>
        <g>
          <polygon class="cls-23" points="29.49 40.68 28.44 40.68 27.53 40.68 26.47 40.83 25.57 41.13 24.51 41.43 23.61 41.73 22.7 42.19 21.79 42.64 21.04 43.09 20.13 43.7 19.38 44.3 18.62 44.9 17.87 45.66 17.11 46.41 16.51 47.17 15.91 47.92 15.3 48.68 14.7 49.59 14.24 50.49 13.64 51.4 13.19 52.3 12.89 53.36 12.43 54.27 12.13 55.32 11.83 56.23 11.53 57.29 11.38 58.34 11.22 59.4 11.07 60.46 10.92 61.51 10.92 62.57 10.92 63.63 10.92 64.68 10.92 65.74 11.07 66.8 11.22 67.85 11.38 68.91 11.53 69.97 11.83 71.03 12.13 71.93 12.43 72.99 12.89 73.89 13.19 74.95 13.64 75.86 14.24 76.76 14.7 77.67 15.3 78.42 15.91 79.33 16.51 80.08 17.11 80.84 17.87 81.59 18.62 82.35 19.38 82.95 20.13 83.56 21.04 84.16 21.79 84.61 22.7 85.07 23.61 85.52 24.51 85.82 25.57 86.12 26.47 86.28 27.53 86.43 28.44 86.58 29.49 86.58 30.55 86.58 31.46 86.43 32.51 86.28 33.42 86.12 34.33 85.82 35.38 85.52 36.29 85.07 37.19 84.61 37.95 84.16 38.86 83.56 39.61 82.95 40.37 82.35 41.12 81.59 41.88 80.84 42.48 80.08 43.08 79.33 43.69 78.42 44.29 77.67 44.74 76.76 45.35 75.86 45.8 74.95 46.1 73.89 46.56 72.99 46.86 71.93 47.16 71.03 47.31 69.97 47.61 68.91 47.76 67.85 47.91 66.8 48.07 65.74 48.07 64.68 48.07 63.63 48.07 62.57 48.07 61.51 47.91 60.46 47.76 59.4 47.61 58.34 47.31 57.29 47.16 56.23 46.86 55.32 46.56 54.27 46.1 53.36 45.8 52.3 45.35 51.4 44.74 50.49 44.29 49.59 43.69 48.68 43.08 47.92 42.48 47.17 41.88 46.41 41.12 45.66 40.37 44.9 39.61 44.3 38.86 43.7 37.95 43.09 37.19 42.64 36.29 42.19 35.38 41.73 34.33 41.43 33.42 41.13 32.51 40.83 31.46 40.68 30.55 40.68 29.49 40.68 29.49 40.68"/>
          <polygon class="cls-13" points="29.49 40.68 28.44 40.68 27.54 40.68 26.49 40.83 25.59 41.13 24.54 41.43 23.64 41.73 22.74 42.18 21.84 42.63 21.09 43.08 20.19 43.68 19.44 44.28 18.69 44.88 17.94 45.63 17.19 46.38 16.6 47.13 16 47.88 15.4 48.63 14.8 49.53 14.35 50.43 13.75 51.33 13.3 52.23 13 53.28 12.55 54.18 12.25 55.23 11.95 56.13 11.65 57.18 11.5 58.23 11.35 59.28 11.2 60.33 11.05 61.38 11.05 62.43 11.05 63.48 11.05 64.53 11.05 65.58 11.2 66.63 11.35 67.68 11.5 68.73 11.65 69.78 11.95 70.83 12.25 71.73 12.55 72.78 13 73.67 13.3 74.72 13.75 75.62 14.35 76.52 14.8 77.42 15.4 78.17 16 79.07 16.6 79.82 17.19 80.57 17.94 81.32 18.69 82.07 19.44 82.67 20.19 83.27 21.09 83.87 21.84 84.32 22.74 84.77 23.64 85.22 24.54 85.52 25.59 85.82 26.49 85.97 27.54 86.12 28.44 86.27 29.49 86.27 30.54 86.27 31.44 86.12 32.49 85.97 33.39 85.82 34.29 85.52 35.34 85.22 36.24 84.77 37.14 84.32 37.89 83.87 38.79 83.27 39.54 82.67 40.29 82.07 41.04 81.32 41.79 80.57 42.39 79.82 42.99 79.07 43.59 78.17 44.19 77.42 44.64 76.52 45.24 75.62 45.69 74.72 45.99 73.67 46.44 72.78 46.74 71.73 47.04 70.83 47.19 69.78 47.49 68.73 47.64 67.68 47.79 66.63 47.94 65.58 47.94 64.53 47.94 63.48 47.94 62.43 47.94 61.38 47.79 60.33 47.64 59.28 47.49 58.23 47.19 57.18 47.04 56.13 46.74 55.23 46.44 54.18 45.99 53.28 45.69 52.23 45.24 51.33 44.64 50.43 44.19 49.53 43.59 48.63 42.99 47.88 42.39 47.13 41.79 46.38 41.04 45.63 40.29 44.88 39.54 44.28 38.79 43.68 37.89 43.08 37.14 42.63 36.24 42.18 35.34 41.73 34.29 41.43 33.39 41.13 32.49 40.83 31.44 40.68 30.54 40.68 29.49 40.68 29.49 40.68"/>
          <polygon class="cls-9" points="29.49 40.68 28.45 40.68 27.56 40.68 26.51 40.83 25.62 41.12 24.58 41.42 23.68 41.72 22.79 42.17 21.9 42.61 21.15 43.06 20.26 43.66 19.51 44.25 18.77 44.85 18.02 45.59 17.28 46.34 16.68 47.08 16.08 47.83 15.49 48.57 14.89 49.47 14.45 50.36 13.85 51.26 13.4 52.15 13.1 53.19 12.66 54.09 12.36 55.13 12.06 56.02 11.76 57.07 11.62 58.11 11.47 59.15 11.32 60.2 11.17 61.24 11.17 62.28 11.17 63.32 11.17 64.37 11.17 65.41 11.32 66.45 11.47 67.5 11.62 68.54 11.76 69.58 12.06 70.62 12.36 71.52 12.66 72.56 13.1 73.46 13.4 74.5 13.85 75.39 14.45 76.29 14.89 77.18 15.49 77.93 16.08 78.82 16.68 79.56 17.28 80.31 18.02 81.05 18.77 81.8 19.51 82.4 20.26 82.99 21.15 83.59 21.9 84.03 22.79 84.48 23.68 84.93 24.58 85.23 25.62 85.52 26.51 85.67 27.56 85.82 28.45 85.97 29.49 85.97 30.54 85.97 31.43 85.82 32.47 85.67 33.37 85.52 34.26 85.23 35.31 84.93 36.2 84.48 37.09 84.03 37.84 83.59 38.73 82.99 39.48 82.4 40.22 81.8 40.97 81.05 41.71 80.31 42.31 79.56 42.9 78.82 43.5 77.93 44.1 77.18 44.54 76.29 45.14 75.39 45.59 74.5 45.88 73.46 46.33 72.56 46.63 71.52 46.93 70.62 47.08 69.58 47.37 68.54 47.52 67.5 47.67 66.45 47.82 65.41 47.82 64.37 47.82 63.32 47.82 62.28 47.82 61.24 47.67 60.2 47.52 59.15 47.37 58.11 47.08 57.07 46.93 56.02 46.63 55.13 46.33 54.09 45.88 53.19 45.59 52.15 45.14 51.26 44.54 50.36 44.1 49.47 43.5 48.57 42.9 47.83 42.31 47.08 41.71 46.34 40.97 45.59 40.22 44.85 39.48 44.25 38.73 43.66 37.84 43.06 37.09 42.61 36.2 42.17 35.31 41.72 34.26 41.42 33.37 41.12 32.47 40.83 31.43 40.68 30.54 40.68 29.49 40.68 29.49 40.68"/>
          <polygon class="cls-16" points="29.49 40.68 28.46 40.68 27.57 40.68 26.53 40.83 25.65 41.12 24.61 41.42 23.72 41.71 22.83 42.16 21.95 42.6 21.21 43.04 20.32 43.64 19.58 44.23 18.84 44.82 18.1 45.56 17.36 46.3 16.77 47.04 16.17 47.78 15.58 48.52 14.99 49.41 14.55 50.3 13.95 51.18 13.51 52.07 13.21 53.11 12.77 54 12.47 55.03 12.18 55.92 11.88 56.96 11.73 57.99 11.59 59.03 11.44 60.06 11.29 61.1 11.29 62.14 11.29 63.17 11.29 64.21 11.29 65.24 11.44 66.28 11.59 67.32 11.73 68.35 11.88 69.39 12.18 70.42 12.47 71.31 12.77 72.35 13.21 73.24 13.51 74.27 13.95 75.16 14.55 76.05 14.99 76.94 15.58 77.68 16.17 78.56 16.77 79.3 17.36 80.04 18.1 80.78 18.84 81.52 19.58 82.12 20.32 82.71 21.21 83.3 21.95 83.74 22.83 84.19 23.72 84.63 24.61 84.93 25.65 85.22 26.53 85.37 27.57 85.52 28.46 85.67 29.49 85.67 30.53 85.67 31.42 85.52 32.45 85.37 33.34 85.22 34.23 84.93 35.27 84.63 36.15 84.19 37.04 83.74 37.78 83.3 38.67 82.71 39.41 82.12 40.15 81.52 40.89 80.78 41.63 80.04 42.22 79.3 42.81 78.56 43.41 77.68 44 76.94 44.44 76.05 45.03 75.16 45.48 74.27 45.77 73.24 46.22 72.35 46.51 71.31 46.81 70.42 46.96 69.39 47.25 68.35 47.4 67.32 47.55 66.28 47.7 65.24 47.7 64.21 47.7 63.17 47.7 62.14 47.7 61.1 47.55 60.06 47.4 59.03 47.25 57.99 46.96 56.96 46.81 55.92 46.51 55.03 46.22 54 45.77 53.11 45.48 52.07 45.03 51.18 44.44 50.3 44 49.41 43.41 48.52 42.81 47.78 42.22 47.04 41.63 46.3 40.89 45.56 40.15 44.82 39.41 44.23 38.67 43.64 37.78 43.04 37.04 42.6 36.15 42.16 35.27 41.71 34.23 41.42 33.34 41.12 32.45 40.83 31.42 40.68 30.53 40.68 29.49 40.68 29.49 40.68"/>
          <polygon class="cls-22" points="29.49 40.68 28.47 40.68 27.58 40.68 26.55 40.82 25.67 41.12 24.64 41.41 23.76 41.71 22.88 42.15 22 42.59 21.26 43.03 20.38 43.62 19.65 44.21 18.91 44.79 18.18 45.53 17.44 46.26 16.85 47 16.26 47.73 15.68 48.47 15.09 49.35 14.65 50.23 14.06 51.11 13.62 52 13.32 53.02 12.88 53.91 12.59 54.94 12.3 55.82 12 56.85 11.85 57.88 11.71 58.9 11.56 59.93 11.41 60.96 11.41 61.99 11.41 63.02 11.41 64.05 11.41 65.08 11.56 66.11 11.71 67.14 11.85 68.17 12 69.19 12.3 70.22 12.59 71.11 12.88 72.13 13.32 73.02 13.62 74.05 14.06 74.93 14.65 75.81 15.09 76.69 15.68 77.43 16.26 78.31 16.85 79.04 17.44 79.78 18.18 80.51 18.91 81.25 19.65 81.84 20.38 82.42 21.26 83.01 22 83.45 22.88 83.89 23.76 84.34 24.64 84.63 25.67 84.92 26.55 85.07 27.58 85.22 28.47 85.36 29.49 85.36 30.52 85.36 31.41 85.22 32.43 85.07 33.32 84.92 34.2 84.63 35.23 84.34 36.11 83.89 36.99 83.45 37.73 83.01 38.61 82.42 39.34 81.84 40.08 81.25 40.81 80.51 41.55 79.78 42.14 79.04 42.72 78.31 43.31 77.43 43.9 76.69 44.34 75.81 44.93 74.93 45.37 74.05 45.66 73.02 46.11 72.13 46.4 71.11 46.69 70.22 46.84 69.19 47.13 68.17 47.28 67.14 47.43 66.11 47.58 65.08 47.58 64.05 47.58 63.02 47.58 61.99 47.58 60.96 47.43 59.93 47.28 58.9 47.13 57.88 46.84 56.85 46.69 55.82 46.4 54.94 46.11 53.91 45.66 53.02 45.37 52 44.93 51.11 44.34 50.23 43.9 49.35 43.31 48.47 42.72 47.73 42.14 47 41.55 46.26 40.81 45.53 40.08 44.79 39.34 44.21 38.61 43.62 37.73 43.03 36.99 42.59 36.11 42.15 35.23 41.71 34.2 41.41 33.32 41.12 32.43 40.82 31.41 40.68 30.52 40.68 29.49 40.68 29.49 40.68"/>
          <polygon class="cls-21" points="29.49 40.68 28.47 40.68 27.6 40.68 26.57 40.82 25.7 41.12 24.68 41.41 23.8 41.7 22.92 42.14 22.05 42.57 21.32 43.01 20.44 43.6 19.71 44.18 18.98 44.77 18.25 45.5 17.52 46.23 16.94 46.96 16.35 47.69 15.77 48.42 15.19 49.29 14.75 50.17 14.16 51.04 13.73 51.92 13.43 52.94 13 53.82 12.7 54.84 12.41 55.72 12.12 56.74 11.97 57.76 11.83 58.78 11.68 59.8 11.54 60.83 11.54 61.85 11.54 62.87 11.54 63.89 11.54 64.91 11.68 65.94 11.83 66.96 11.97 67.98 12.12 69 12.41 70.02 12.7 70.9 13 71.92 13.43 72.8 13.73 73.82 14.16 74.7 14.75 75.57 15.19 76.45 15.77 77.18 16.35 78.05 16.94 78.78 17.52 79.51 18.25 80.24 18.98 80.97 19.71 81.56 20.44 82.14 21.32 82.73 22.05 83.16 22.92 83.6 23.8 84.04 24.68 84.33 25.7 84.62 26.57 84.77 27.6 84.92 28.47 85.06 29.49 85.06 30.52 85.06 31.39 84.92 32.41 84.77 33.29 84.62 34.17 84.33 35.19 84.04 36.06 83.6 36.94 83.16 37.67 82.73 38.55 82.14 39.28 81.56 40.01 80.97 40.74 80.24 41.47 79.51 42.05 78.78 42.63 78.05 43.22 77.18 43.8 76.45 44.24 75.57 44.82 74.7 45.26 73.82 45.55 72.8 45.99 71.92 46.28 70.9 46.58 70.02 46.72 69 47.01 67.98 47.16 66.96 47.31 65.94 47.45 64.91 47.45 63.89 47.45 62.87 47.45 61.85 47.45 60.83 47.31 59.8 47.16 58.78 47.01 57.76 46.72 56.74 46.58 55.72 46.28 54.84 45.99 53.82 45.55 52.94 45.26 51.92 44.82 51.04 44.24 50.17 43.8 49.29 43.22 48.42 42.63 47.69 42.05 46.96 41.47 46.23 40.74 45.5 40.01 44.77 39.28 44.18 38.55 43.6 37.67 43.01 36.94 42.57 36.06 42.14 35.19 41.7 34.17 41.41 33.29 41.12 32.41 40.82 31.39 40.68 30.52 40.68 29.49 40.68 29.49 40.68"/>
          <polygon class="cls-26" points="29.49 40.68 28.48 40.68 27.61 40.68 26.59 40.82 25.72 41.11 24.71 41.4 23.84 41.69 22.97 42.13 22.1 42.56 21.37 43 20.5 43.58 19.78 44.16 19.05 44.74 18.33 45.46 17.6 46.19 17.02 46.91 16.44 47.64 15.86 48.36 15.28 49.23 14.85 50.1 14.27 50.97 13.83 51.84 13.54 52.86 13.11 53.73 12.82 54.74 12.53 55.61 12.24 56.63 12.09 57.64 11.95 58.66 11.8 59.67 11.66 60.69 11.66 61.7 11.66 62.72 11.66 63.73 11.66 64.75 11.8 65.76 11.95 66.78 12.09 67.79 12.24 68.81 12.53 69.82 12.82 70.69 13.11 71.71 13.54 72.58 13.83 73.59 14.27 74.46 14.85 75.33 15.28 76.2 15.86 76.93 16.44 77.8 17.02 78.52 17.6 79.25 18.33 79.97 19.05 80.7 19.78 81.28 20.5 81.86 21.37 82.44 22.1 82.87 22.97 83.31 23.84 83.74 24.71 84.03 25.72 84.32 26.59 84.47 27.61 84.61 28.48 84.76 29.49 84.76 30.51 84.76 31.38 84.61 32.39 84.47 33.26 84.32 34.13 84.03 35.15 83.74 36.02 83.31 36.89 82.87 37.61 82.44 38.48 81.86 39.21 81.28 39.93 80.7 40.66 79.97 41.38 79.25 41.96 78.52 42.54 77.8 43.12 76.93 43.7 76.2 44.14 75.33 44.72 74.46 45.15 73.59 45.44 72.58 45.88 71.71 46.17 70.69 46.46 69.82 46.6 68.81 46.89 67.79 47.04 66.78 47.18 65.76 47.33 64.75 47.33 63.73 47.33 62.72 47.33 61.7 47.33 60.69 47.18 59.67 47.04 58.66 46.89 57.64 46.6 56.63 46.46 55.61 46.17 54.74 45.88 53.73 45.44 52.86 45.15 51.84 44.72 50.97 44.14 50.1 43.7 49.23 43.12 48.36 42.54 47.64 41.96 46.91 41.38 46.19 40.66 45.46 39.93 44.74 39.21 44.16 38.48 43.58 37.61 43 36.89 42.56 36.02 42.13 35.15 41.69 34.13 41.4 33.26 41.11 32.39 40.82 31.38 40.68 30.51 40.68 29.49 40.68 29.49 40.68"/>
          <polygon class="cls-8" points="29.49 40.68 28.49 40.68 27.62 40.68 26.61 40.82 25.75 41.11 24.74 41.4 23.88 41.69 23.01 42.12 22.15 42.55 21.43 42.98 20.57 43.56 19.85 44.13 19.13 44.71 18.41 45.43 17.69 46.15 17.11 46.87 16.53 47.59 15.96 48.31 15.38 49.17 14.95 50.04 14.37 50.9 13.94 51.77 13.65 52.77 13.22 53.64 12.93 54.65 12.65 55.51 12.36 56.52 12.21 57.53 12.07 58.53 11.93 59.54 11.78 60.55 11.78 61.56 11.78 62.57 11.78 63.57 11.78 64.58 11.93 65.59 12.07 66.6 12.21 67.61 12.36 68.61 12.65 69.62 12.93 70.49 13.22 71.49 13.65 72.36 13.94 73.37 14.37 74.23 14.95 75.09 15.38 75.96 15.96 76.68 16.53 77.54 17.11 78.26 17.69 78.98 18.41 79.7 19.13 80.42 19.85 81 20.57 81.58 21.43 82.15 22.15 82.58 23.01 83.02 23.88 83.45 24.74 83.74 25.75 84.02 26.61 84.17 27.62 84.31 28.49 84.46 29.49 84.46 30.5 84.46 31.37 84.31 32.37 84.17 33.24 84.02 34.1 83.74 35.11 83.45 35.97 83.02 36.84 82.58 37.56 82.15 38.42 81.58 39.14 81 39.86 80.42 40.58 79.7 41.3 78.98 41.88 78.26 42.45 77.54 43.03 76.68 43.61 75.96 44.04 75.09 44.62 74.23 45.05 73.37 45.34 72.36 45.77 71.49 46.06 70.49 46.34 69.62 46.49 68.61 46.78 67.61 46.92 66.6 47.06 65.59 47.21 64.58 47.21 63.57 47.21 62.57 47.21 61.56 47.21 60.55 47.06 59.54 46.92 58.53 46.78 57.53 46.49 56.52 46.34 55.51 46.06 54.65 45.77 53.64 45.34 52.77 45.05 51.77 44.62 50.9 44.04 50.04 43.61 49.17 43.03 48.31 42.45 47.59 41.88 46.87 41.3 46.15 40.58 45.43 39.86 44.71 39.14 44.13 38.42 43.56 37.56 42.98 36.84 42.55 35.97 42.12 35.11 41.69 34.1 41.4 33.24 41.11 32.37 40.82 31.37 40.68 30.5 40.68 29.49 40.68 29.49 40.68"/>
          <polygon class="cls-33" points="29.49 40.68 28.49 40.68 27.64 40.68 26.63 40.82 25.78 41.11 24.77 41.39 23.92 41.68 23.06 42.11 22.2 42.54 21.49 42.97 20.63 43.54 19.91 44.11 19.2 44.68 18.48 45.4 17.77 46.11 17.2 46.83 16.62 47.54 16.05 48.26 15.48 49.11 15.05 49.97 14.48 50.83 14.05 51.69 13.76 52.69 13.33 53.55 13.05 54.55 12.76 55.41 12.48 56.41 12.33 57.41 12.19 58.41 12.05 59.41 11.9 60.41 11.9 61.41 11.9 62.41 11.9 63.42 11.9 64.42 12.05 65.42 12.19 66.42 12.33 67.42 12.48 68.42 12.76 69.42 13.05 70.28 13.33 71.28 13.76 72.14 14.05 73.14 14.48 74 15.05 74.86 15.48 75.71 16.05 76.43 16.62 77.29 17.2 78 17.77 78.72 18.48 79.43 19.2 80.15 19.91 80.72 20.63 81.29 21.49 81.86 22.2 82.29 23.06 82.72 23.92 83.15 24.77 83.44 25.78 83.72 26.63 83.87 27.64 84.01 28.49 84.15 29.49 84.15 30.5 84.15 31.35 84.01 32.35 83.87 33.21 83.72 34.07 83.44 35.07 83.15 35.93 82.72 36.79 82.29 37.5 81.86 38.36 81.29 39.08 80.72 39.79 80.15 40.51 79.43 41.22 78.72 41.79 78 42.37 77.29 42.94 76.43 43.51 75.71 43.94 74.86 44.51 74 44.94 73.14 45.23 72.14 45.65 71.28 45.94 70.28 46.23 69.42 46.37 68.42 46.66 67.42 46.8 66.42 46.94 65.42 47.08 64.42 47.08 63.42 47.08 62.41 47.08 61.41 47.08 60.41 46.94 59.41 46.8 58.41 46.66 57.41 46.37 56.41 46.23 55.41 45.94 54.55 45.65 53.55 45.23 52.69 44.94 51.69 44.51 50.83 43.94 49.97 43.51 49.11 42.94 48.26 42.37 47.54 41.79 46.83 41.22 46.11 40.51 45.4 39.79 44.68 39.08 44.11 38.36 43.54 37.5 42.97 36.79 42.54 35.93 42.11 35.07 41.68 34.07 41.39 33.21 41.11 32.35 40.82 31.35 40.68 30.5 40.68 29.49 40.68 29.49 40.68"/>
          <polygon class="cls-39" points="29.49 40.68 28.5 40.68 27.65 40.68 26.65 40.82 25.8 41.1 24.81 41.39 23.96 41.67 23.1 42.1 22.25 42.52 21.54 42.95 20.69 43.52 19.98 44.09 19.27 44.65 18.56 45.36 17.85 46.07 17.28 46.78 16.71 47.49 16.15 48.2 15.58 49.06 15.15 49.91 14.58 50.76 14.16 51.61 13.87 52.61 13.45 53.46 13.16 54.45 12.88 55.3 12.59 56.3 12.45 57.29 12.31 58.29 12.17 59.28 12.03 60.27 12.03 61.27 12.03 62.26 12.03 63.26 12.03 64.25 12.17 65.25 12.31 66.24 12.45 67.23 12.59 68.23 12.88 69.22 13.16 70.07 13.45 71.07 13.87 71.92 14.16 72.91 14.58 73.77 15.15 74.62 15.58 75.47 16.15 76.18 16.71 77.03 17.28 77.74 17.85 78.45 18.56 79.16 19.27 79.87 19.98 80.44 20.69 81.01 21.54 81.58 22.25 82 23.1 82.43 23.96 82.86 24.81 83.14 25.8 83.42 26.65 83.57 27.65 83.71 28.5 83.85 29.49 83.85 30.49 83.85 31.34 83.71 32.33 83.57 33.19 83.42 34.04 83.14 35.03 82.86 35.88 82.43 36.74 82 37.45 81.58 38.3 81.01 39.01 80.44 39.72 79.87 40.43 79.16 41.14 78.45 41.71 77.74 42.28 77.03 42.84 76.18 43.41 75.47 43.84 74.62 44.41 73.77 44.83 72.91 45.12 71.92 45.54 71.07 45.83 70.07 46.11 69.22 46.25 68.23 46.54 67.23 46.68 66.24 46.82 65.25 46.96 64.25 46.96 63.26 46.96 62.26 46.96 61.27 46.96 60.27 46.82 59.28 46.68 58.29 46.54 57.29 46.25 56.3 46.11 55.3 45.83 54.45 45.54 53.46 45.12 52.61 44.83 51.61 44.41 50.76 43.84 49.91 43.41 49.06 42.84 48.2 42.28 47.49 41.71 46.78 41.14 46.07 40.43 45.36 39.72 44.65 39.01 44.09 38.3 43.52 37.45 42.95 36.74 42.52 35.88 42.1 35.03 41.67 34.04 41.39 33.19 41.1 32.33 40.82 31.34 40.68 30.49 40.68 29.49 40.68 29.49 40.68"/>
          <polygon class="cls-32" points="29.49 40.68 28.51 40.68 27.66 40.68 26.67 40.82 25.83 41.1 24.84 41.38 23.99 41.66 23.15 42.09 22.3 42.51 21.6 42.93 20.75 43.5 20.05 44.06 19.34 44.63 18.64 45.33 17.93 46.04 17.37 46.74 16.8 47.45 16.24 48.15 15.67 49 15.25 49.84 14.69 50.69 14.26 51.54 13.98 52.52 13.56 53.37 13.28 54.36 13 55.2 12.71 56.19 12.57 57.18 12.43 58.16 12.29 59.15 12.15 60.14 12.15 61.12 12.15 62.11 12.15 63.1 12.15 64.09 12.29 65.07 12.43 66.06 12.57 67.05 12.71 68.03 13 69.02 13.28 69.87 13.56 70.85 13.98 71.7 14.26 72.69 14.69 73.53 15.25 74.38 15.67 75.23 16.24 75.93 16.8 76.78 17.37 77.48 17.93 78.19 18.64 78.89 19.34 79.6 20.05 80.16 20.75 80.73 21.6 81.29 22.3 81.71 23.15 82.14 23.99 82.56 24.84 82.84 25.83 83.12 26.67 83.26 27.66 83.4 28.51 83.55 29.49 83.55 30.48 83.55 31.33 83.4 32.31 83.26 33.16 83.12 34.01 82.84 34.99 82.56 35.84 82.14 36.69 81.71 37.39 81.29 38.24 80.73 38.94 80.16 39.65 79.6 40.35 78.89 41.06 78.19 41.62 77.48 42.19 76.78 42.75 75.93 43.31 75.23 43.74 74.38 44.3 73.53 44.72 72.69 45.01 71.7 45.43 70.85 45.71 69.87 45.99 69.02 46.13 68.03 46.42 67.05 46.56 66.06 46.7 65.07 46.84 64.09 46.84 63.1 46.84 62.11 46.84 61.12 46.84 60.14 46.7 59.15 46.56 58.16 46.42 57.18 46.13 56.19 45.99 55.2 45.71 54.36 45.43 53.37 45.01 52.52 44.72 51.54 44.3 50.69 43.74 49.84 43.31 49 42.75 48.15 42.19 47.45 41.62 46.74 41.06 46.04 40.35 45.33 39.65 44.63 38.94 44.06 38.24 43.5 37.39 42.93 36.69 42.51 35.84 42.09 34.99 41.66 34.01 41.38 33.16 41.1 32.31 40.82 31.33 40.68 30.48 40.68 29.49 40.68 29.49 40.68"/>
          <polygon class="cls-25" points="29.49 40.68 28.51 40.68 27.67 40.68 26.69 40.82 25.85 41.1 24.87 41.38 24.03 41.66 23.19 42.08 22.35 42.5 21.65 42.92 20.81 43.48 20.11 44.04 19.41 44.6 18.71 45.3 18.01 46 17.45 46.7 16.89 47.4 16.33 48.1 15.77 48.94 15.35 49.78 14.79 50.62 14.37 51.46 14.09 52.44 13.67 53.28 13.39 54.26 13.11 55.1 12.83 56.08 12.69 57.06 12.55 58.04 12.41 59.02 12.27 60 12.27 60.98 12.27 61.96 12.27 62.94 12.27 63.92 12.41 64.9 12.55 65.88 12.69 66.86 12.83 67.84 13.11 68.82 13.39 69.66 13.67 70.64 14.09 71.48 14.37 72.46 14.79 73.3 15.35 74.14 15.77 74.98 16.33 75.68 16.89 76.52 17.45 77.22 18.01 77.92 18.71 78.62 19.41 79.32 20.11 79.88 20.81 80.44 21.65 81 22.35 81.42 23.19 81.84 24.03 82.26 24.87 82.54 25.85 82.82 26.69 82.96 27.67 83.1 28.51 83.24 29.49 83.24 30.47 83.24 31.31 83.1 32.29 82.96 33.13 82.82 33.97 82.54 34.96 82.26 35.8 81.84 36.64 81.42 37.34 81 38.18 80.44 38.88 79.88 39.58 79.32 40.28 78.62 40.98 77.92 41.54 77.22 42.1 76.52 42.66 75.68 43.22 74.98 43.64 74.14 44.2 73.3 44.62 72.46 44.9 71.48 45.32 70.64 45.6 69.66 45.88 68.82 46.02 67.84 46.3 66.86 46.44 65.88 46.58 64.9 46.72 63.92 46.72 62.94 46.72 61.96 46.72 60.98 46.72 60 46.58 59.02 46.44 58.04 46.3 57.06 46.02 56.08 45.88 55.1 45.6 54.26 45.32 53.28 44.9 52.44 44.62 51.46 44.2 50.62 43.64 49.78 43.22 48.94 42.66 48.1 42.1 47.4 41.54 46.7 40.98 46 40.28 45.3 39.58 44.6 38.88 44.04 38.18 43.48 37.34 42.92 36.64 42.5 35.8 42.08 34.96 41.66 33.97 41.38 33.13 41.1 32.29 40.82 31.31 40.68 30.47 40.68 29.49 40.68 29.49 40.68"/>
          <polygon class="cls-1" points="29.49 40.68 28.52 40.68 27.69 40.68 26.71 40.82 25.88 41.09 24.91 41.37 24.07 41.65 23.24 42.07 22.4 42.48 21.71 42.9 20.87 43.46 20.18 44.01 19.48 44.57 18.79 45.26 18.09 45.96 17.54 46.65 16.98 47.35 16.43 48.05 15.87 48.88 15.45 49.71 14.9 50.55 14.48 51.38 14.2 52.35 13.78 53.19 13.51 54.16 13.23 55 12.95 55.97 12.81 56.94 12.67 57.92 12.53 58.89 12.39 59.86 12.39 60.84 12.39 61.81 12.39 62.78 12.39 63.75 12.53 64.73 12.67 65.7 12.81 66.67 12.95 67.65 13.23 68.62 13.51 69.45 13.78 70.43 14.2 71.26 14.48 72.24 14.9 73.07 15.45 73.9 15.87 74.74 16.43 75.43 16.98 76.27 17.54 76.96 18.09 77.66 18.79 78.35 19.48 79.05 20.18 79.6 20.87 80.16 21.71 80.72 22.4 81.13 23.24 81.55 24.07 81.97 24.91 82.24 25.88 82.52 26.71 82.66 27.69 82.8 28.52 82.94 29.49 82.94 30.47 82.94 31.3 82.8 32.27 82.66 33.11 82.52 33.94 82.24 34.92 81.97 35.75 81.55 36.58 81.13 37.28 80.72 38.11 80.16 38.81 79.6 39.5 79.05 40.2 78.35 40.89 77.66 41.45 76.96 42.01 76.27 42.56 75.43 43.12 74.74 43.54 73.9 44.09 73.07 44.51 72.24 44.79 71.26 45.2 70.43 45.48 69.45 45.76 68.62 45.9 67.65 46.18 66.67 46.32 65.7 46.45 64.73 46.59 63.75 46.59 62.78 46.59 61.81 46.59 60.84 46.59 59.86 46.45 58.89 46.32 57.92 46.18 56.94 45.9 55.97 45.76 55 45.48 54.16 45.2 53.19 44.79 52.35 44.51 51.38 44.09 50.55 43.54 49.71 43.12 48.88 42.56 48.05 42.01 47.35 41.45 46.65 40.89 45.96 40.2 45.26 39.5 44.57 38.81 44.01 38.11 43.46 37.28 42.9 36.58 42.48 35.75 42.07 34.92 41.65 33.94 41.37 33.11 41.09 32.27 40.82 31.3 40.68 30.47 40.68 29.49 40.68 29.49 40.68"/>
          <polygon class="cls-30" points="29.49 40.68 28.53 40.68 27.7 40.68 26.73 40.82 25.91 41.09 24.94 41.37 24.11 41.64 23.28 42.06 22.45 42.47 21.76 42.89 20.94 43.44 20.25 43.99 19.56 44.54 18.87 45.23 18.18 45.92 17.62 46.61 17.07 47.3 16.52 47.99 15.97 48.82 15.55 49.65 15 50.48 14.59 51.3 14.31 52.27 13.9 53.1 13.62 54.07 13.35 54.89 13.07 55.86 12.93 56.83 12.79 57.79 12.66 58.76 12.52 59.72 12.52 60.69 12.52 61.66 12.52 62.62 12.52 63.59 12.66 64.56 12.79 65.52 12.93 66.49 13.07 67.45 13.35 68.42 13.62 69.25 13.9 70.21 14.31 71.04 14.59 72.01 15 72.84 15.55 73.66 15.97 74.49 16.52 75.18 17.07 76.01 17.62 76.7 18.18 77.39 18.87 78.08 19.56 78.77 20.25 79.32 20.94 79.88 21.76 80.43 22.45 80.84 23.28 81.26 24.11 81.67 24.94 81.95 25.91 82.22 26.73 82.36 27.7 82.5 28.53 82.64 29.49 82.64 30.46 82.64 31.29 82.5 32.25 82.36 33.08 82.22 33.91 81.95 34.88 81.67 35.71 81.26 36.53 80.84 37.22 80.43 38.05 79.88 38.74 79.32 39.43 78.77 40.12 78.08 40.81 77.39 41.36 76.7 41.92 76.01 42.47 75.18 43.02 74.49 43.43 73.66 43.99 72.84 44.4 72.01 44.68 71.04 45.09 70.21 45.37 69.25 45.64 68.42 45.78 67.45 46.06 66.49 46.2 65.52 46.33 64.56 46.47 63.59 46.47 62.62 46.47 61.66 46.47 60.69 46.47 59.72 46.33 58.76 46.2 57.79 46.06 56.83 45.78 55.86 45.64 54.89 45.37 54.07 45.09 53.1 44.68 52.27 44.4 51.3 43.99 50.48 43.43 49.65 43.02 48.82 42.47 47.99 41.92 47.3 41.36 46.61 40.81 45.92 40.12 45.23 39.43 44.54 38.74 43.99 38.05 43.44 37.22 42.89 36.53 42.47 35.71 42.06 34.88 41.64 33.91 41.37 33.08 41.09 32.25 40.82 31.29 40.68 30.46 40.68 29.49 40.68 29.49 40.68"/>
          <polygon class="cls-35" points="29.49 40.68 28.53 40.68 27.71 40.68 26.75 40.81 25.93 41.09 24.97 41.36 24.15 41.64 23.33 42.05 22.51 42.46 21.82 42.87 21 43.42 20.31 43.97 19.63 44.51 18.94 45.2 18.26 45.88 17.71 46.57 17.16 47.25 16.61 47.94 16.07 48.76 15.65 49.58 15.11 50.41 14.7 51.23 14.42 52.19 14.01 53.01 13.74 53.97 13.46 54.79 13.19 55.75 13.05 56.71 12.91 57.67 12.78 58.63 12.64 59.59 12.64 60.55 12.64 61.51 12.64 62.46 12.64 63.42 12.78 64.38 12.91 65.34 13.05 66.3 13.19 67.26 13.46 68.22 13.74 69.04 14.01 70 14.42 70.82 14.7 71.78 15.11 72.6 15.65 73.43 16.07 74.25 16.61 74.93 17.16 75.76 17.71 76.44 18.26 77.13 18.94 77.81 19.63 78.5 20.31 79.04 21 79.59 21.82 80.14 22.51 80.55 23.33 80.96 24.15 81.37 24.97 81.65 25.93 81.92 26.75 82.06 27.71 82.2 28.53 82.33 29.49 82.33 30.45 82.33 31.28 82.2 32.23 82.06 33.06 81.92 33.88 81.65 34.84 81.37 35.66 80.96 36.48 80.55 37.17 80.14 37.99 79.59 38.68 79.04 39.36 78.5 40.05 77.81 40.73 77.13 41.28 76.44 41.83 75.76 42.37 74.93 42.92 74.25 43.33 73.43 43.88 72.6 44.29 71.78 44.57 70.82 44.98 70 45.25 69.04 45.53 68.22 45.66 67.26 45.94 66.3 46.07 65.34 46.21 64.38 46.35 63.42 46.35 62.46 46.35 61.51 46.35 60.55 46.35 59.59 46.21 58.63 46.07 57.67 45.94 56.71 45.66 55.75 45.53 54.79 45.25 53.97 44.98 53.01 44.57 52.19 44.29 51.23 43.88 50.41 43.33 49.58 42.92 48.76 42.37 47.94 41.83 47.25 41.28 46.57 40.73 45.88 40.05 45.2 39.36 44.51 38.68 43.97 37.99 43.42 37.17 42.87 36.48 42.46 35.66 42.05 34.84 41.64 33.88 41.36 33.06 41.09 32.23 40.81 31.28 40.68 30.45 40.68 29.49 40.68 29.49 40.68"/>
          <polygon class="cls-34" points="29.49 40.68 28.54 40.68 27.73 40.68 26.77 40.81 25.96 41.09 25.01 41.36 24.19 41.63 23.37 42.04 22.56 42.45 21.88 42.85 21.06 43.4 20.38 43.94 19.7 44.49 19.02 45.17 18.34 45.85 17.8 46.53 17.25 47.21 16.71 47.89 16.16 48.7 15.76 49.52 15.21 50.34 14.8 51.15 14.53 52.1 14.12 52.92 13.85 53.87 13.58 54.69 13.31 55.64 13.17 56.59 13.03 57.54 12.9 58.5 12.76 59.45 12.76 60.4 12.76 61.35 12.76 62.31 12.76 63.26 12.9 64.21 13.03 65.16 13.17 66.11 13.31 67.07 13.58 68.02 13.85 68.84 14.12 69.79 14.53 70.6 14.8 71.56 15.21 72.37 15.76 73.19 16.16 74 16.71 74.68 17.25 75.5 17.8 76.18 18.34 76.86 19.02 77.54 19.7 78.22 20.38 78.77 21.06 79.31 21.88 79.85 22.56 80.26 23.37 80.67 24.19 81.08 25.01 81.35 25.96 81.62 26.77 81.76 27.73 81.89 28.54 82.03 29.49 82.03 30.45 82.03 31.26 81.89 32.21 81.76 33.03 81.62 33.85 81.35 34.8 81.08 35.62 80.67 36.43 80.26 37.11 79.85 37.93 79.31 38.61 78.77 39.29 78.22 39.97 77.54 40.65 76.86 41.19 76.18 41.74 75.5 42.28 74.68 42.83 74 43.23 73.19 43.78 72.37 44.19 71.56 44.46 70.6 44.87 69.79 45.14 68.84 45.41 68.02 45.55 67.07 45.82 66.11 45.95 65.16 46.09 64.21 46.23 63.26 46.23 62.31 46.23 61.35 46.23 60.4 46.23 59.45 46.09 58.5 45.95 57.54 45.82 56.59 45.55 55.64 45.41 54.69 45.14 53.87 44.87 52.92 44.46 52.1 44.19 51.15 43.78 50.34 43.23 49.52 42.83 48.7 42.28 47.89 41.74 47.21 41.19 46.53 40.65 45.85 39.97 45.17 39.29 44.49 38.61 43.94 37.93 43.4 37.11 42.85 36.43 42.45 35.62 42.04 34.8 41.63 33.85 41.36 33.03 41.09 32.21 40.81 31.26 40.68 30.45 40.68 29.49 40.68 29.49 40.68"/>
          <polygon class="cls-12" points="29.49 40.68 28.55 40.68 27.74 40.68 26.79 40.81 25.98 41.08 25.04 41.35 24.23 41.62 23.42 42.03 22.61 42.43 21.93 42.84 21.12 43.38 20.45 43.92 19.77 44.46 19.1 45.13 18.42 45.81 17.88 46.48 17.34 47.16 16.8 47.83 16.26 48.64 15.86 49.45 15.32 50.26 14.91 51.07 14.64 52.02 14.24 52.83 13.97 53.78 13.7 54.59 13.43 55.53 13.29 56.48 13.16 57.42 13.02 58.37 12.89 59.31 12.89 60.26 12.89 61.2 12.89 62.15 12.89 63.09 13.02 64.04 13.16 64.98 13.29 65.93 13.43 66.87 13.7 67.82 13.97 68.63 14.24 69.57 14.64 70.38 14.91 71.33 15.32 72.14 15.86 72.95 16.26 73.76 16.8 74.44 17.34 75.25 17.88 75.92 18.42 76.6 19.1 77.27 19.77 77.95 20.45 78.49 21.12 79.03 21.93 79.57 22.61 79.97 23.42 80.38 24.23 80.78 25.04 81.05 25.98 81.32 26.79 81.46 27.74 81.59 28.55 81.73 29.49 81.73 30.44 81.73 31.25 81.59 32.19 81.46 33.01 81.32 33.82 81.05 34.76 80.78 35.57 80.38 36.38 79.97 37.06 79.57 37.87 79.03 38.54 78.49 39.22 77.95 39.89 77.27 40.57 76.6 41.11 75.92 41.65 75.25 42.19 74.44 42.73 73.76 43.13 72.95 43.67 72.14 44.08 71.33 44.35 70.38 44.75 69.57 45.02 68.63 45.29 67.82 45.43 66.87 45.7 65.93 45.83 64.98 45.97 64.04 46.1 63.09 46.1 62.15 46.1 61.2 46.1 60.26 46.1 59.31 45.97 58.37 45.83 57.42 45.7 56.48 45.43 55.53 45.29 54.59 45.02 53.78 44.75 52.83 44.35 52.02 44.08 51.07 43.67 50.26 43.13 49.45 42.73 48.64 42.19 47.83 41.65 47.16 41.11 46.48 40.57 45.81 39.89 45.13 39.22 44.46 38.54 43.92 37.87 43.38 37.06 42.84 36.38 42.43 35.57 42.03 34.76 41.62 33.82 41.35 33.01 41.08 32.19 40.81 31.25 40.68 30.44 40.68 29.49 40.68 29.49 40.68"/>
          <polygon class="cls-24" points="29.49 40.68 28.56 40.68 27.75 40.68 26.81 40.81 26.01 41.08 25.07 41.35 24.27 41.62 23.46 42.02 22.66 42.42 21.99 42.82 21.18 43.36 20.51 43.89 19.84 44.43 19.17 45.1 18.5 45.77 17.97 46.44 17.43 47.11 16.89 47.78 16.36 48.59 15.96 49.39 15.42 50.19 15.02 51 14.75 51.94 14.35 52.74 14.08 53.68 13.81 54.48 13.54 55.42 13.41 56.36 13.28 57.3 13.14 58.24 13.01 59.17 13.01 60.11 13.01 61.05 13.01 61.99 13.01 62.93 13.14 63.87 13.28 64.8 13.41 65.74 13.54 66.68 13.81 67.62 14.08 68.42 14.35 69.36 14.75 70.16 15.02 71.1 15.42 71.91 15.96 72.71 16.36 73.52 16.89 74.19 17.43 74.99 17.97 75.66 18.5 76.33 19.17 77 19.84 77.67 20.51 78.21 21.18 78.74 21.99 79.28 22.66 79.68 23.46 80.08 24.27 80.49 25.07 80.75 26.01 81.02 26.81 81.16 27.75 81.29 28.56 81.42 29.49 81.42 30.43 81.42 31.24 81.29 32.17 81.16 32.98 81.02 33.78 80.75 34.72 80.49 35.53 80.08 36.33 79.68 37 79.28 37.8 78.74 38.47 78.21 39.14 77.67 39.81 77 40.49 76.33 41.02 75.66 41.56 74.99 42.09 74.19 42.63 73.52 43.03 72.71 43.57 71.91 43.97 71.1 44.24 70.16 44.64 69.36 44.91 68.42 45.18 67.62 45.31 66.68 45.58 65.74 45.71 64.8 45.85 63.87 45.98 62.93 45.98 61.99 45.98 61.05 45.98 60.11 45.98 59.17 45.85 58.24 45.71 57.3 45.58 56.36 45.31 55.42 45.18 54.48 44.91 53.68 44.64 52.74 44.24 51.94 43.97 51 43.57 50.19 43.03 49.39 42.63 48.59 42.09 47.78 41.56 47.11 41.02 46.44 40.49 45.77 39.81 45.1 39.14 44.43 38.47 43.89 37.8 43.36 37 42.82 36.33 42.42 35.53 42.02 34.72 41.62 33.78 41.35 32.98 41.08 32.17 40.81 31.24 40.68 30.43 40.68 29.49 40.68 29.49 40.68"/>
          <polygon class="cls-15" points="29.49 40.68 28.56 40.68 27.76 40.68 26.83 40.81 26.04 41.08 25.1 41.34 24.31 41.61 23.51 42.01 22.71 42.41 22.04 42.81 21.25 43.34 20.58 43.87 19.92 44.4 19.25 45.07 18.59 45.73 18.05 46.4 17.52 47.06 16.99 47.73 16.46 48.53 16.06 49.32 15.53 50.12 15.13 50.92 14.86 51.85 14.46 52.65 14.19 53.58 13.93 54.38 13.66 55.31 13.53 56.24 13.4 57.17 13.26 58.11 13.13 59.04 13.13 59.97 13.13 60.9 13.13 61.83 13.13 62.76 13.26 63.69 13.4 64.62 13.53 65.56 13.66 66.49 13.93 67.42 14.19 68.22 14.46 69.15 14.86 69.95 15.13 70.88 15.53 71.68 16.06 72.47 16.46 73.27 16.99 73.94 17.52 74.73 18.05 75.4 18.59 76.07 19.25 76.73 19.92 77.4 20.58 77.93 21.25 78.46 22.04 78.99 22.71 79.39 23.51 79.79 24.31 80.19 25.1 80.46 26.04 80.72 26.83 80.85 27.76 80.99 28.56 81.12 29.49 81.12 30.43 81.12 31.22 80.99 32.15 80.85 32.95 80.72 33.75 80.46 34.68 80.19 35.48 79.79 36.28 79.39 36.94 78.99 37.74 78.46 38.41 77.93 39.07 77.4 39.74 76.73 40.4 76.07 40.94 75.4 41.47 74.73 42 73.94 42.53 73.27 42.93 72.47 43.46 71.68 43.86 70.88 44.13 69.95 44.53 69.15 44.79 68.22 45.06 67.42 45.19 66.49 45.46 65.56 45.59 64.62 45.72 63.69 45.86 62.76 45.86 61.83 45.86 60.9 45.86 59.97 45.86 59.04 45.72 58.11 45.59 57.17 45.46 56.24 45.19 55.31 45.06 54.38 44.79 53.58 44.53 52.65 44.13 51.85 43.86 50.92 43.46 50.12 42.93 49.32 42.53 48.53 42 47.73 41.47 47.06 40.94 46.4 40.4 45.73 39.74 45.07 39.07 44.4 38.41 43.87 37.74 43.34 36.94 42.81 36.28 42.41 35.48 42.01 34.68 41.61 33.75 41.34 32.95 41.08 32.15 40.81 31.22 40.68 30.43 40.68 29.49 40.68 29.49 40.68"/>
          <polygon class="cls-11" points="29.49 40.68 28.57 40.68 27.78 40.68 26.85 40.81 26.06 41.07 25.14 41.34 24.34 41.6 23.55 42 22.76 42.39 22.1 42.79 21.31 43.32 20.65 43.85 19.99 44.37 19.33 45.03 18.67 45.69 18.14 46.35 17.61 47.02 17.08 47.68 16.55 48.47 16.16 49.26 15.63 50.05 15.23 50.84 14.97 51.77 14.57 52.56 14.31 53.49 14.05 54.28 13.78 55.2 13.65 56.13 13.52 57.05 13.39 57.97 13.25 58.9 13.25 59.82 13.25 60.75 13.25 61.67 13.25 62.6 13.39 63.52 13.52 64.44 13.65 65.37 13.78 66.29 14.05 67.22 14.31 68.01 14.57 68.93 14.97 69.73 15.23 70.65 15.63 71.44 16.16 72.23 16.55 73.03 17.08 73.69 17.61 74.48 18.14 75.14 18.67 75.8 19.33 76.46 19.99 77.12 20.65 77.65 21.31 78.18 22.1 78.7 22.76 79.1 23.55 79.5 24.34 79.89 25.14 80.16 26.06 80.42 26.85 80.55 27.78 80.69 28.57 80.82 29.49 80.82 30.42 80.82 31.21 80.69 32.14 80.55 32.93 80.42 33.72 80.16 34.64 79.89 35.44 79.5 36.23 79.1 36.89 78.7 37.68 78.18 38.34 77.65 39 77.12 39.66 76.46 40.32 75.8 40.85 75.14 41.38 74.48 41.91 73.69 42.43 73.03 42.83 72.23 43.36 71.44 43.75 70.65 44.02 69.73 44.41 68.93 44.68 68.01 44.94 67.22 45.08 66.29 45.34 65.37 45.47 64.44 45.6 63.52 45.74 62.6 45.74 61.67 45.74 60.75 45.74 59.82 45.74 58.9 45.6 57.97 45.47 57.05 45.34 56.13 45.08 55.2 44.94 54.28 44.68 53.49 44.41 52.56 44.02 51.77 43.75 50.84 43.36 50.05 42.83 49.26 42.43 48.47 41.91 47.68 41.38 47.02 40.85 46.35 40.32 45.69 39.66 45.03 39 44.37 38.34 43.85 37.68 43.32 36.89 42.79 36.23 42.39 35.44 42 34.64 41.6 33.72 41.34 32.93 41.07 32.14 40.81 31.21 40.68 30.42 40.68 29.49 40.68 29.49 40.68"/>
          <polygon class="cls-3" points="29.49 40.68 28.58 40.68 27.79 40.68 26.87 40.81 26.09 41.07 25.17 41.33 24.38 41.59 23.6 41.99 22.81 42.38 22.16 42.77 21.37 43.3 20.71 43.82 20.06 44.35 19.4 45 18.75 45.66 18.22 46.31 17.7 46.97 17.18 47.62 16.65 48.41 16.26 49.19 15.73 49.98 15.34 50.77 15.08 51.68 14.69 52.47 14.42 53.39 14.16 54.17 13.9 55.09 13.77 56.01 13.64 56.93 13.51 57.84 13.38 58.76 13.38 59.68 13.38 60.6 13.38 61.51 13.38 62.43 13.51 63.35 13.64 64.27 13.77 65.18 13.9 66.1 14.16 67.02 14.42 67.8 14.69 68.72 15.08 69.51 15.34 70.42 15.73 71.21 16.26 72 16.65 72.78 17.18 73.44 17.7 74.22 18.22 74.88 18.75 75.53 19.4 76.19 20.06 76.85 20.71 77.37 21.37 77.89 22.16 78.42 22.81 78.81 23.6 79.2 24.38 79.6 25.17 79.86 26.09 80.12 26.87 80.25 27.79 80.38 28.58 80.51 29.49 80.51 30.41 80.51 31.2 80.38 32.12 80.25 32.9 80.12 33.69 79.86 34.61 79.6 35.39 79.2 36.18 78.81 36.83 78.42 37.62 77.89 38.27 77.37 38.93 76.85 39.58 76.19 40.24 75.53 40.76 74.88 41.29 74.22 41.81 73.44 42.34 72.78 42.73 72 43.25 71.21 43.65 70.42 43.91 69.51 44.3 68.72 44.56 67.8 44.83 67.02 44.96 66.1 45.22 65.18 45.35 64.27 45.48 63.35 45.61 62.43 45.61 61.51 45.61 60.6 45.61 59.68 45.61 58.76 45.48 57.84 45.35 56.93 45.22 56.01 44.96 55.09 44.83 54.17 44.56 53.39 44.3 52.47 43.91 51.68 43.65 50.77 43.25 49.98 42.73 49.19 42.34 48.41 41.81 47.62 41.29 46.97 40.76 46.31 40.24 45.66 39.58 45 38.93 44.35 38.27 43.82 37.62 43.3 36.83 42.77 36.18 42.38 35.39 41.99 34.61 41.59 33.69 41.33 32.9 41.07 32.12 40.81 31.2 40.68 30.41 40.68 29.49 40.68 29.49 40.68"/>
          <polygon class="cls-31" points="29.49 40.68 28.58 40.68 27.8 40.68 26.89 40.81 26.11 41.07 25.2 41.33 24.42 41.59 23.64 41.98 22.86 42.37 22.21 42.76 21.43 43.28 20.78 43.8 20.13 44.32 19.48 44.97 18.83 45.62 18.31 46.27 17.79 46.92 17.27 47.57 16.75 48.35 16.36 49.13 15.84 49.91 15.45 50.69 15.19 51.6 14.8 52.38 14.54 53.29 14.28 54.07 14.02 54.98 13.89 55.89 13.76 56.8 13.63 57.71 13.5 58.62 13.5 59.53 13.5 60.44 13.5 61.35 13.5 62.26 13.63 63.18 13.76 64.09 13.89 65 14.02 65.91 14.28 66.82 14.54 67.6 14.8 68.51 15.19 69.29 15.45 70.2 15.84 70.98 16.36 71.76 16.75 72.54 17.27 73.19 17.79 73.97 18.31 74.62 18.83 75.27 19.48 75.92 20.13 76.57 20.78 77.09 21.43 77.61 22.21 78.13 22.86 78.52 23.64 78.91 24.42 79.3 25.2 79.56 26.11 79.82 26.89 79.95 27.8 80.08 28.58 80.21 29.49 80.21 30.4 80.21 31.18 80.08 32.1 79.95 32.88 79.82 33.66 79.56 34.57 79.3 35.35 78.91 36.13 78.52 36.78 78.13 37.56 77.61 38.21 77.09 38.86 76.57 39.51 75.92 40.16 75.27 40.68 74.62 41.2 73.97 41.72 73.19 42.24 72.54 42.63 71.76 43.15 70.98 43.54 70.2 43.8 69.29 44.19 68.51 44.45 67.6 44.71 66.82 44.84 65.91 45.1 65 45.23 64.09 45.36 63.18 45.49 62.26 45.49 61.35 45.49 60.44 45.49 59.53 45.49 58.62 45.36 57.71 45.23 56.8 45.1 55.89 44.84 54.98 44.71 54.07 44.45 53.29 44.19 52.38 43.8 51.6 43.54 50.69 43.15 49.91 42.63 49.13 42.24 48.35 41.72 47.57 41.2 46.92 40.68 46.27 40.16 45.62 39.51 44.97 38.86 44.32 38.21 43.8 37.56 43.28 36.78 42.76 36.13 42.37 35.35 41.98 34.57 41.59 33.66 41.33 32.88 41.07 32.1 40.81 31.18 40.68 30.4 40.68 29.49 40.68 29.49 40.68"/>
          <polygon class="cls-19" points="29.49 40.68 28.59 40.68 27.82 40.68 26.91 40.81 26.14 41.06 25.24 41.32 24.46 41.58 23.69 41.97 22.91 42.35 22.27 42.74 21.49 43.26 20.85 43.77 20.2 44.29 19.56 44.94 18.91 45.58 18.4 46.23 17.88 46.87 17.36 47.52 16.85 48.29 16.46 49.07 15.94 49.84 15.56 50.61 15.3 51.52 14.91 52.29 14.65 53.19 14.4 53.97 14.14 54.87 14.01 55.78 13.88 56.68 13.75 57.58 13.62 58.49 13.62 59.39 13.62 60.29 13.62 61.2 13.62 62.1 13.75 63 13.88 63.91 14.01 64.81 14.14 65.71 14.4 66.62 14.65 67.39 14.91 68.29 15.3 69.07 15.56 69.97 15.94 70.75 16.46 71.52 16.85 72.29 17.36 72.94 17.88 73.71 18.4 74.36 18.91 75 19.56 75.65 20.2 76.29 20.85 76.81 21.49 77.33 22.27 77.84 22.91 78.23 23.69 78.62 24.46 79 25.24 79.26 26.14 79.52 26.91 79.65 27.82 79.78 28.59 79.91 29.49 79.91 30.4 79.91 31.17 79.78 32.08 79.65 32.85 79.52 33.62 79.26 34.53 79 35.3 78.62 36.08 78.23 36.72 77.84 37.5 77.33 38.14 76.81 38.79 76.29 39.43 75.65 40.08 75 40.59 74.36 41.11 73.71 41.62 72.94 42.14 72.29 42.53 71.52 43.04 70.75 43.43 69.97 43.69 69.07 44.08 68.29 44.33 67.39 44.59 66.62 44.72 65.71 44.98 64.81 45.11 63.91 45.24 63 45.37 62.1 45.37 61.2 45.37 60.29 45.37 59.39 45.37 58.49 45.24 57.58 45.11 56.68 44.98 55.78 44.72 54.87 44.59 53.97 44.33 53.19 44.08 52.29 43.69 51.52 43.43 50.61 43.04 49.84 42.53 49.07 42.14 48.29 41.62 47.52 41.11 46.87 40.59 46.23 40.08 45.58 39.43 44.94 38.79 44.29 38.14 43.77 37.5 43.26 36.72 42.74 36.08 42.35 35.3 41.97 34.53 41.58 33.62 41.32 32.85 41.06 32.08 40.81 31.17 40.68 30.4 40.68 29.49 40.68 29.49 40.68"/>
          <polygon class="cls-4" points="29.49 40.68 28.6 40.68 27.83 40.68 26.93 40.81 26.16 41.06 25.27 41.32 24.5 41.57 23.73 41.96 22.96 42.34 22.32 42.73 21.55 43.24 20.91 43.75 20.27 44.26 19.63 44.9 18.99 45.54 18.48 46.18 17.97 46.82 17.46 47.46 16.94 48.23 16.56 49 16.05 49.77 15.66 50.54 15.41 51.43 15.02 52.2 14.77 53.1 14.51 53.87 14.26 54.76 14.13 55.66 14 56.56 13.87 57.45 13.74 58.35 13.74 59.24 13.74 60.14 13.74 61.04 13.74 61.93 13.87 62.83 14 63.73 14.13 64.62 14.26 65.52 14.51 66.42 14.77 67.18 15.02 68.08 15.41 68.85 15.66 69.75 16.05 70.51 16.56 71.28 16.94 72.05 17.46 72.69 17.97 73.46 18.48 74.1 18.99 74.74 19.63 75.38 20.27 76.02 20.91 76.53 21.55 77.04 22.32 77.56 22.96 77.94 23.73 78.32 24.5 78.71 25.27 78.96 26.16 79.22 26.93 79.35 27.83 79.48 28.6 79.61 29.49 79.61 30.39 79.61 31.16 79.48 32.06 79.35 32.82 79.22 33.59 78.96 34.49 78.71 35.26 78.32 36.02 77.94 36.67 77.56 37.43 77.04 38.07 76.53 38.71 76.02 39.35 75.38 39.99 74.74 40.51 74.1 41.02 73.46 41.53 72.69 42.04 72.05 42.43 71.28 42.94 70.51 43.32 69.75 43.58 68.85 43.96 68.08 44.22 67.18 44.48 66.42 44.6 65.52 44.86 64.62 44.99 63.73 45.12 62.83 45.24 61.93 45.24 61.04 45.24 60.14 45.24 59.24 45.24 58.35 45.12 57.45 44.99 56.56 44.86 55.66 44.6 54.76 44.48 53.87 44.22 53.1 43.96 52.2 43.58 51.43 43.32 50.54 42.94 49.77 42.43 49 42.04 48.23 41.53 47.46 41.02 46.82 40.51 46.18 39.99 45.54 39.35 44.9 38.71 44.26 38.07 43.75 37.43 43.24 36.67 42.73 36.02 42.34 35.26 41.96 34.49 41.57 33.59 41.32 32.82 41.06 32.06 40.81 31.16 40.68 30.39 40.68 29.49 40.68 29.49 40.68"/>
          <polygon class="cls-18" points="29.49 40.68 28.6 40.68 27.84 40.68 26.95 40.8 26.19 41.06 25.3 41.31 24.54 41.57 23.78 41.95 23.01 42.33 22.38 42.71 21.62 43.22 20.98 43.73 20.35 44.23 19.71 44.87 19.08 45.51 18.57 46.14 18.06 46.78 17.55 47.41 17.04 48.17 16.66 48.94 16.15 49.7 15.77 50.46 15.52 51.35 15.14 52.11 14.88 53 14.63 53.76 14.37 54.65 14.25 55.54 14.12 56.43 13.99 57.32 13.87 58.21 13.87 59.1 13.87 59.99 13.87 60.88 13.87 61.77 13.99 62.66 14.12 63.55 14.25 64.44 14.37 65.33 14.63 66.22 14.88 66.98 15.14 67.87 15.52 68.63 15.77 69.52 16.15 70.28 16.66 71.04 17.04 71.81 17.55 72.44 18.06 73.2 18.57 73.84 19.08 74.47 19.71 75.11 20.35 75.74 20.98 76.25 21.62 76.76 22.38 77.27 23.01 77.65 23.78 78.03 24.54 78.41 25.3 78.67 26.19 78.92 26.95 79.05 27.84 79.17 28.6 79.3 29.49 79.3 30.38 79.3 31.15 79.17 32.04 79.05 32.8 78.92 33.56 78.67 34.45 78.41 35.21 78.03 35.97 77.65 36.61 77.27 37.37 76.76 38.01 76.25 38.64 75.74 39.28 75.11 39.91 74.47 40.42 73.84 40.93 73.2 41.44 72.44 41.95 71.81 42.33 71.04 42.84 70.28 43.22 69.52 43.47 68.63 43.85 67.87 44.11 66.98 44.36 66.22 44.49 65.33 44.74 64.44 44.87 63.55 45 62.66 45.12 61.77 45.12 60.88 45.12 59.99 45.12 59.1 45.12 58.21 45 57.32 44.87 56.43 44.74 55.54 44.49 54.65 44.36 53.76 44.11 53 43.85 52.11 43.47 51.35 43.22 50.46 42.84 49.7 42.33 48.94 41.95 48.17 41.44 47.41 40.93 46.78 40.42 46.14 39.91 45.51 39.28 44.87 38.64 44.23 38.01 43.73 37.37 43.22 36.61 42.71 35.97 42.33 35.21 41.95 34.45 41.57 33.56 41.31 32.8 41.06 32.04 40.8 31.15 40.68 30.38 40.68 29.49 40.68 29.49 40.68"/>
          <polygon class="cls-38" points="29.49 40.68 28.61 40.68 27.86 40.68 26.97 40.8 26.22 41.06 25.33 41.31 24.58 41.56 23.82 41.94 23.07 42.32 22.43 42.69 21.68 43.2 21.05 43.7 20.42 44.21 19.79 44.84 19.16 45.47 18.65 46.1 18.15 46.73 17.64 47.36 17.14 48.11 16.76 48.87 16.26 49.63 15.88 50.38 15.63 51.27 15.25 52.02 15 52.9 14.75 53.66 14.49 54.54 14.37 55.43 14.24 56.31 14.12 57.19 13.99 58.07 13.99 58.96 13.99 59.84 13.99 60.72 13.99 61.6 14.12 62.49 14.24 63.37 14.37 64.25 14.49 65.13 14.75 66.01 15 66.77 15.25 67.65 15.63 68.41 15.88 69.29 16.26 70.05 16.76 70.8 17.14 71.56 17.64 72.19 18.15 72.95 18.65 73.58 19.16 74.21 19.79 74.84 20.42 75.47 21.05 75.97 21.68 76.48 22.43 76.98 23.07 77.36 23.82 77.74 24.58 78.12 25.33 78.37 26.22 78.62 26.97 78.75 27.86 78.87 28.61 79 29.49 79 30.38 79 31.13 78.87 32.02 78.75 32.77 78.62 33.53 78.37 34.41 78.12 35.17 77.74 35.92 77.36 36.55 76.98 37.31 76.48 37.94 75.97 38.57 75.47 39.2 74.84 39.83 74.21 40.34 73.58 40.84 72.95 41.34 72.19 41.85 71.56 42.23 70.8 42.73 70.05 43.11 69.29 43.36 68.41 43.74 67.65 43.99 66.77 44.24 66.01 44.37 65.13 44.62 64.25 44.75 63.37 44.87 62.49 45 61.6 45 60.72 45 59.84 45 58.96 45 58.07 44.87 57.19 44.75 56.31 44.62 55.43 44.37 54.54 44.24 53.66 43.99 52.9 43.74 52.02 43.36 51.27 43.11 50.38 42.73 49.63 42.23 48.87 41.85 48.11 41.34 47.36 40.84 46.73 40.34 46.1 39.83 45.47 39.2 44.84 38.57 44.21 37.94 43.7 37.31 43.2 36.55 42.69 35.92 42.32 35.17 41.94 34.41 41.56 33.53 41.31 32.77 41.06 32.02 40.8 31.13 40.68 30.38 40.68 29.49 40.68 29.49 40.68"/>
          <polygon class="cls-17" points="29.49 40.68 28.62 40.68 27.87 40.68 26.99 40.8 26.24 41.05 25.37 41.3 24.62 41.55 23.87 41.93 23.12 42.3 22.49 42.68 21.74 43.18 21.12 43.68 20.49 44.18 19.86 44.8 19.24 45.43 18.74 46.05 18.24 46.68 17.74 47.31 17.24 48.06 16.86 48.81 16.36 49.56 15.99 50.31 15.74 51.18 15.36 51.93 15.11 52.81 14.86 53.56 14.61 54.43 14.49 55.31 14.36 56.18 14.24 57.06 14.11 57.94 14.11 58.81 14.11 59.69 14.11 60.56 14.11 61.44 14.24 62.31 14.36 63.19 14.49 64.06 14.61 64.94 14.86 65.81 15.11 66.56 15.36 67.44 15.74 68.19 15.99 69.07 16.36 69.82 16.86 70.57 17.24 71.32 17.74 71.94 18.24 72.69 18.74 73.32 19.24 73.94 19.86 74.57 20.49 75.19 21.12 75.69 21.74 76.19 22.49 76.69 23.12 77.07 23.87 77.45 24.62 77.82 25.37 78.07 26.24 78.32 26.99 78.45 27.87 78.57 28.62 78.7 29.49 78.7 30.37 78.7 31.12 78.57 32 78.45 32.75 78.32 33.5 78.07 34.37 77.82 35.12 77.45 35.87 77.07 36.5 76.69 37.25 76.19 37.87 75.69 38.5 75.19 39.12 74.57 39.75 73.94 40.25 73.32 40.75 72.69 41.25 71.94 41.75 71.32 42.13 70.57 42.63 69.82 43 69.07 43.25 68.19 43.63 67.44 43.88 66.56 44.13 65.81 44.25 64.94 44.5 64.06 44.63 63.19 44.75 62.31 44.88 61.44 44.88 60.56 44.88 59.69 44.88 58.81 44.88 57.94 44.75 57.06 44.63 56.18 44.5 55.31 44.25 54.43 44.13 53.56 43.88 52.81 43.63 51.93 43.25 51.18 43 50.31 42.63 49.56 42.13 48.81 41.75 48.06 41.25 47.31 40.75 46.68 40.25 46.05 39.75 45.43 39.12 44.8 38.5 44.18 37.87 43.68 37.25 43.18 36.5 42.68 35.87 42.3 35.12 41.93 34.37 41.55 33.5 41.3 32.75 41.05 32 40.8 31.12 40.68 30.37 40.68 29.49 40.68 29.49 40.68"/>
          <polygon class="cls-37" points="29.49 40.68 28.63 40.68 27.88 40.68 27.01 40.8 26.27 41.05 25.4 41.3 24.66 41.55 23.91 41.92 23.17 42.29 22.55 42.66 21.8 43.16 21.18 43.65 20.56 44.15 19.94 44.77 19.32 45.39 18.82 46.01 18.33 46.63 17.83 47.25 17.34 48 16.96 48.74 16.47 49.49 16.1 50.23 15.85 51.1 15.48 51.84 15.23 52.71 14.98 53.46 14.73 54.32 14.61 55.19 14.48 56.06 14.36 56.93 14.23 57.8 14.23 58.67 14.23 59.53 14.23 60.4 14.23 61.27 14.36 62.14 14.48 63.01 14.61 63.88 14.73 64.75 14.98 65.61 15.23 66.36 15.48 67.23 15.85 67.97 16.1 68.84 16.47 69.58 16.96 70.33 17.34 71.07 17.83 71.69 18.33 72.44 18.82 73.06 19.32 73.68 19.94 74.3 20.56 74.92 21.18 75.42 21.8 75.91 22.55 76.41 23.17 76.78 23.91 77.15 24.66 77.52 25.4 77.77 26.27 78.02 27.01 78.14 27.88 78.27 28.63 78.39 29.49 78.39 30.36 78.39 31.11 78.27 31.98 78.14 32.72 78.02 33.46 77.77 34.33 77.52 35.08 77.15 35.82 76.78 36.44 76.41 37.19 75.91 37.81 75.42 38.43 74.92 39.05 74.3 39.67 73.68 40.16 73.06 40.66 72.44 41.16 71.69 41.65 71.07 42.02 70.33 42.52 69.58 42.89 68.84 43.14 67.97 43.51 67.23 43.76 66.36 44.01 65.61 44.13 64.75 44.38 63.88 44.51 63.01 44.63 62.14 44.75 61.27 44.75 60.4 44.75 59.53 44.75 58.67 44.75 57.8 44.63 56.93 44.51 56.06 44.38 55.19 44.13 54.32 44.01 53.46 43.76 52.71 43.51 51.84 43.14 51.1 42.89 50.23 42.52 49.49 42.02 48.74 41.65 48 41.16 47.25 40.66 46.63 40.16 46.01 39.67 45.39 39.05 44.77 38.43 44.15 37.81 43.65 37.19 43.16 36.44 42.66 35.82 42.29 35.08 41.92 34.33 41.55 33.46 41.3 32.72 41.05 31.98 40.8 31.11 40.68 30.36 40.68 29.49 40.68 29.49 40.68"/>
          <polygon class="cls-2" points="29.49 40.68 28.63 40.68 27.89 40.68 27.03 40.8 26.29 41.05 25.43 41.29 24.69 41.54 23.96 41.91 23.22 42.28 22.6 42.65 21.86 43.14 21.25 43.63 20.63 44.12 20.02 44.74 19.4 45.35 18.91 45.97 18.42 46.58 17.93 47.2 17.43 47.94 17.06 48.68 16.57 49.41 16.2 50.15 15.96 51.01 15.59 51.75 15.34 52.61 15.1 53.35 14.85 54.21 14.73 55.08 14.6 55.94 14.48 56.8 14.36 57.66 14.36 58.52 14.36 59.38 14.36 60.24 14.36 61.11 14.48 61.97 14.6 62.83 14.73 63.69 14.85 64.55 15.1 65.41 15.34 66.15 15.59 67.01 15.96 67.75 16.2 68.61 16.57 69.35 17.06 70.09 17.43 70.83 17.93 71.44 18.42 72.18 18.91 72.8 19.4 73.41 20.02 74.03 20.63 74.64 21.25 75.14 21.86 75.63 22.6 76.12 23.22 76.49 23.96 76.86 24.69 77.23 25.43 77.47 26.29 77.72 27.03 77.84 27.89 77.97 28.63 78.09 29.49 78.09 30.36 78.09 31.09 77.97 31.96 77.84 32.69 77.72 33.43 77.47 34.29 77.23 35.03 76.86 35.77 76.49 36.39 76.12 37.12 75.63 37.74 75.14 38.36 74.64 38.97 74.03 39.59 73.41 40.08 72.8 40.57 72.18 41.06 71.44 41.55 70.83 41.92 70.09 42.42 69.35 42.79 68.61 43.03 67.75 43.4 67.01 43.65 66.15 43.89 65.41 44.02 64.55 44.26 63.69 44.39 62.83 44.51 61.97 44.63 61.11 44.63 60.24 44.63 59.38 44.63 58.52 44.63 57.66 44.51 56.8 44.39 55.94 44.26 55.08 44.02 54.21 43.89 53.35 43.65 52.61 43.4 51.75 43.03 51.01 42.79 50.15 42.42 49.41 41.92 48.68 41.55 47.94 41.06 47.2 40.57 46.58 40.08 45.97 39.59 45.35 38.97 44.74 38.36 44.12 37.74 43.63 37.12 43.14 36.39 42.65 35.77 42.28 35.03 41.91 34.29 41.54 33.43 41.29 32.69 41.05 31.96 40.8 31.09 40.68 30.36 40.68 29.49 40.68 29.49 40.68"/>
        </g>
        <g>
          <g>
            <path class="cls-2" d="m18.42,27.84H.36V.36h58.13v27.48H18.42Zm13.79-16.84c0-1.46-1.18-2.64-2.63-2.64s-2.64,1.18-2.64,2.64,1.18,2.64,2.64,2.64,2.63-1.18,2.63-2.64Z"/>
            <path class="cls-2" d="m47.9,45.46l.16.2.45.75.62.76.45.91.45.75.3.91.45.75.29.91.3.91.3.91.3.91.3.91.3.91.15.91.16.91.15.91.15.91.15.91v5.59l-.15,1.06v.91l-.15.91-.15.91-.31.91-.15.91-.15.91-.3.91-.3.91-.3.91-.3.91-.44.75-.45.91-.3.91-.45.75-.47.76-.6.91-.45.75-.6.75-.59.75-.6.76-.6.6-.62.75-.45.3-.3.3-.3.3-.44.3-.3.3-.45.3-.3.3-.45.3-.47.3-.3.3-.45.15-.45.3-.45.3-.29.15-.45.3-.45.15-.45.15-.47.3-.45.15-.45.15-.45.15-.44.15-.6.15-.45.15-.45.15-.47.15h-.45l-.6.15h-.45l-.44.15h-1.06l-.45.15h-1.52l-.45-.15h-1.5l-.62-.15h-.45l-.45-.15-.45-.15h-.59l-.45-.15-.45-.15-.45-.15-.47-.15-.45-.15-.45-.3-.45-.15-.44-.15-.45-.3-.45-.15-.45-.3-.45-.15-.47-.3-.3-.3-.45-.15-.45-.3-.29-.3-.45-.3-.3-.3-.45-.3-.3-.3-.47-.3-.3-.3-.75-.6-.6-.76-.59-.75-.6-.6-.6-.75-.62-.76-.45-.91-.45-.75-.59-.75-.3-.91-.45-.75-.45-.91-.3-.91-.3-.91-.31-.76-.3-.91-.3-.91-.3-.91-.15-.91-.15-.91-.15-1.06-.15-.91-.14-.91v-1.81l-.15-1.06v-.91l.15-.91v-.91l.14-.91v-.91l.15-1.06.15-.91.15-.91.3-.91.15-.91.3-.91.3-.91.31-.91.3-.75.45-.91.3-.91.45-.75.44-.91.45-.75.45-.75.6-.91.03-.03c3.8-5.16,6.29-11.16,7.32-17.49h22.31c1.03,6.33,3.52,12.33,7.32,17.49l-.15.13Zm.16,20.28v-4.23l-.15-1.06-.15-1.06-.15-1.06-.3-1.06-.14-1.06-.3-.91-.3-1.06-.45-.91-.3-1.06-.45-.91-.62-.91-.45-.91-.6-.91-.59-.76-.6-.75-.6-.76-.77-.75-.75-.75-.74-.6-.75-.6-.91-.6-.77-.45-.91-.45-.89-.45-1.06-.3-.92-.3-.91-.3-1.04-.15h-3.93l-1.06.15-.92.3-1.04.3-.91.3-.91.45-.92.45-.75.45-.89.6-.75.6-.77.6-.75.75-.75.75-.59.76-.6.75-.6.76-.62.91-.45.91-.6.91-.44.91-.3,1.06-.45.91-.3,1.06-.3.91-.3,1.06-.15,1.06-.16,1.06-.15,1.06-.15,1.06v4.23l.15,1.06.15,1.06.16,1.06.15,1.06.3,1.06.3.91.3,1.06.45.91.3,1.06.44.91.6.91.45.91.62.75.6.91.6.75.59.75.75.75.75.75.77.6.75.6.89.6.75.45.92.45.91.45.91.3,1.04.3.92.15,1.06.15.89.15h2.13l.91-.15,1.04-.15.91-.15.92-.3,1.06-.3.89-.45.91-.45.77-.45.91-.6.75-.6.74-.6.75-.75.77-.75.6-.75.6-.75.59-.91.6-.75.45-.91.62-.91.45-.91.3-1.06.45-.91.3-1.06.3-.91.14-1.06.3-1.06.15-1.06.15-1.06.15-1.06Z"/>
            <circle class="cls-23" cx="29.58" cy="51.02" r="5.21"/>
            <path class="cls-20" d="m29.58,8.36c1.45,0,2.63,1.18,2.63,2.64s-1.18,2.64-2.63,2.64-2.64-1.18-2.64-2.64,1.18-2.64,2.64-2.64Zm.83,2.64c0-.45-.38-.83-.83-.83s-.84.38-.84.83.38.83.84.83.83-.36.83-.83Z"/>
            <path class="cls-20" d="m29.58,10.17c.45,0,.83.38.83.83s-.38.83-.83.83-.84-.36-.84-.83.38-.83.84-.83Z"/>
          </g>
          <g>
            <polygon class="cls-14" points="29.49 40.67 28.43 40.67 27.54 40.67 26.48 40.82 25.56 41.13 24.52 41.43 23.61 41.73 22.71 42.18 21.79 42.64 21.03 43.09 20.14 43.69 19.38 44.3 18.62 44.9 17.86 45.66 17.11 46.41 16.52 47.17 15.91 47.92 15.31 48.68 14.69 49.58 14.24 50.49 13.63 51.39 13.19 52.3 12.89 53.36 12.44 54.26 12.14 55.32 11.83 56.23 11.53 57.28 11.38 58.34 11.22 59.4 11.07 60.45 10.92 61.51 10.92 62.57 10.92 63.62 10.92 64.68 10.92 65.74 11.07 66.79 11.22 67.85 11.38 68.91 11.53 69.97 11.83 71.02 12.14 71.93 12.44 72.99 12.89 73.89 13.19 74.95 13.63 75.85 14.24 76.76 14.69 77.67 15.31 78.42 15.91 79.33 16.52 80.08 17.11 80.84 17.86 81.59 18.62 82.35 19.38 82.95 20.14 83.55 21.03 84.16 21.79 84.61 22.71 85.06 23.61 85.52 24.52 85.82 25.56 86.12 26.48 86.27 27.54 86.42 28.43 86.57 29.49 86.57 30.56 86.57 31.46 86.42 32.51 86.27 33.41 86.12 34.33 85.82 35.39 85.52 36.28 85.06 37.19 84.61 37.96 84.16 38.86 83.55 39.62 82.95 40.36 82.35 41.11 81.59 41.88 80.84 42.49 80.08 43.09 79.33 43.68 78.42 44.28 77.67 44.74 76.76 45.35 75.85 45.81 74.95 46.11 73.89 46.56 72.99 46.86 71.93 47.17 71.02 47.3 69.97 47.61 68.91 47.76 67.85 47.91 66.79 48.06 65.74 48.06 64.68 48.06 63.62 48.06 62.57 48.06 61.51 47.91 60.45 47.76 59.4 47.61 58.34 47.3 57.28 47.17 56.23 46.86 55.32 46.56 54.26 46.11 53.36 45.81 52.3 45.35 51.39 44.74 50.49 44.28 49.58 43.68 48.68 43.09 47.92 42.49 47.17 41.88 46.41 41.11 45.66 40.36 44.9 39.62 44.3 38.86 43.69 37.96 43.09 37.19 42.64 36.28 42.18 35.39 41.73 34.33 41.43 33.41 41.13 32.51 40.82 31.46 40.67 30.56 40.67 29.49 40.67"/>
            <path class="cls-36" d="m30.41,92.37h-1.52s-.08,0-.11-.02l-.4-.13h-1.44l-.7-.16h-.37s-.08,0-.11,0l-.85-.28h-.53s-.08,0-.11-.02l-2.28-.76s-.06-.02-.09-.04l-.41-.28-.85-.29s-.06-.02-.08-.04l-.41-.28-.41-.14s-.06-.02-.09-.04l-.41-.28-.41-.14s-.06-.02-.08-.04l-.47-.3-.3-.29-.38-.12s-.06-.02-.09-.04l-.45-.3-.35-.35-.39-.25-.36-.35-.4-.26-.36-.35-.41-.25-.36-.35-.72-.58-1.25-1.57-.58-.57-1.24-1.54-.5-.97-.44-.73-.57-.72s-.05-.07-.06-.11l-.3-.91-.42-.68-.47-.93-.62-1.86-.31-.73-.92-2.74-.76-4.74v-1.87s-.15-1.01-.15-1.01v-.96s.15-.97.15-.97v-.85s.14-.96.14-.96v-.85s.45-2.93.45-2.93l.32-.96.14-.85.93-2.78.31-.77.47-.93.28-.86.49-.83.43-.88.92-1.54.61-.92c.11-.17.33-.21.5-.1.17.11.21.33.1.5l-1.5,2.4-.43.88-.47.78-.27.83-.47.95-.6,1.62-.6,1.81-.14.85-.32.96-.44,2.81v.85s-.14.96-.14.96v.85s-.15.97-.15.97v.85s.15,1.01.15,1.01v1.86s.74,4.62.74,4.62l.89,2.66.31.73.61,1.84.43.86.44.73.31.92.55.71.48.79.47.93,1.18,1.45.58.57,1.22,1.54.7.55.33.33.41.25.36.35.4.26.36.35.4.26.35.35.35.22.41.14c.05.02.1.05.14.09l.3.3.37.23.41.14s.06.02.09.04l.41.28.41.14s.06.02.09.04l.41.28.85.29s.06.02.09.04l.41.28,2.18.72h.53s.08,0,.11.02l.85.28h.39l.7.16h1.41s.08,0,.11,0l.4.13h1.41l.4-.13s.08-.02.11-.02h1l.38-.13s.08-.02.12-.02h.45l.52-.14h.48s3.68-1.19,3.68-1.19l.43-.28s.05-.03.08-.04l.86-.29,1.61-1.03s.06-.03.09-.04l.37-.12.24-.24.97-.65.25-.26.51-.35.25-.26.49-.34.55-.56.46-.31.58-.71.63-.63,1.77-2.23.43-.72,1.52-2.42.27-.83.47-.95.45-.78,1.18-3.56.29-1.76.33-.96.29-1.75v-.85s.15-1.11.15-1.11v-5.54s-.77-4.47-.77-4.47l-1.79-5.39-.42-.68-.33-.98-.42-.68-.47-.93-.57-.69-.62-.96-.44-.56c-.12-.16-.1-.38.06-.51.16-.12.38-.1.51.06l.6.75.48.8.59.71.5.97.44.73.33.98.42.68,1.83,5.51.78,4.58v5.65s-.15,1.11-.15,1.11v.86s-.3,1.87-.3,1.87l-.33.96-.29,1.75-1.22,3.68-.47.82-.44.88-.28.86-.95,1.58-1.06,1.66-1.83,2.3-.63.63-.59.73s-.05.05-.08.07l-.45.3-.55.56-.49.34-.25.26-.51.35-.25.26-.98.65-.24.25s-.09.07-.14.09l-.41.13-1.61,1.03s-.06.03-.09.04l-.86.29-.43.28s-.05.03-.08.04l-1.8.6-1.98.61s-.07.02-.11.02h-.45l-.52.14h-.48s-.39.14-.39.14c-.04.01-.08.02-.12.02h-1l-.4.13s-.08.02-.11.02Z"/>
            <path class="cls-36" d="m58.49,28.2H.36c-.2,0-.36-.16-.36-.36V.36c0-.2.16-.36.36-.36h58.13c.2,0,.36.16.36.36v27.48c0,.2-.16.36-.36.36ZM.72,27.48h57.41V.72H.72v26.76Z"/>
            <path class="cls-36" d="m11.09,45.69c-.07,0-.15-.02-.21-.07-.16-.12-.19-.34-.08-.5,3.72-5.05,6.23-11.05,7.26-17.33,0-.2.16-.34.36-.34s.36.18.36.38c-1.05,6.48-3.6,12.58-7.39,17.73-.07.1-.18.15-.29.15Z"/>
            <path class="cls-36" d="m48.05,45.69c-.11,0-.22-.05-.29-.15-3.79-5.15-6.35-11.25-7.39-17.65,0-.2.16-.4.36-.4s.36.12.36.32v.03c1.02,6.23,3.53,12.22,7.25,17.28.12.16.08.39-.08.5-.06.05-.14.07-.21.07Z"/>
            <circle class="cls-14" cx="29.58" cy="51.02" r="5.21"/>
            <path class="cls-14" d="m29.58,8.36c-1.46,0-2.64,1.18-2.64,2.64s1.18,2.64,2.64,2.64,2.63-1.18,2.63-2.64-1.18-2.64-2.63-2.64Z"/>
            <path class="cls-14" d="m29.58,10.17c-.47,0-.84.38-.84.83s.38.83.84.83.83-.36.83-.83-.38-.83-.83-.83Z"/>
          </g>
        </g>
        <g class="cls-29">
          <path class="cls-6" d="m45.01,40.77c2.15,3.3-33.49,2.62-30.96-.37,2.52-2.99,4.37-12.58,4.37-12.58h22.31s2.13,9.66,4.28,12.96Z"/>
        </g>
      </g>
    </g>
  </g>
</svg>