<?xml version="1.0" encoding="UTF-8"?>
<svg id="Layer_1" data-name="Layer 1" xmlns="http://www.w3.org/2000/svg" xmlns:xlink="http://www.w3.org/1999/xlink" viewBox="0 0 174.64 210.85">
  <defs>
    <style>
      .cls-1 {
        fill: url(#_476);
      }

      .cls-2 {
        fill: url(#_304);
      }

      .cls-2, .cls-3, .cls-4, .cls-5, .cls-6, .cls-7, .cls-8, .cls-9, .cls-10, .cls-11, .cls-12, .cls-13, .cls-14, .cls-15, .cls-16, .cls-17, .cls-18 {
        mix-blend-mode: multiply;
      }

      .cls-3 {
        fill: url(#_297);
      }

      .cls-19 {
        filter: url(#luminosity-noclip-11);
      }

      .cls-4 {
        fill: url(#_290);
      }

      .cls-20 {
        fill: url(#_296);
      }

      .cls-5 {
        fill: url(#_292);
      }

      .cls-21 {
        fill: url(#_491);
      }

      .cls-22 {
        fill: #fff;
      }

      .cls-23 {
        filter: url(#luminosity-noclip-17);
      }

      .cls-24 {
        mask: url(#mask-23);
      }

      .cls-25 {
        mask: url(#mask-27);
      }

      .cls-26 {
        mask: url(#mask-10);
      }

      .cls-27 {
        fill: url(#_286);
      }

      .cls-28 {
        mask: url(#mask-26);
      }

      .cls-29 {
        fill: url(#_478);
      }

      .cls-30 {
        filter: url(#luminosity-noclip-7);
      }

      .cls-31 {
        fill: url(#_477);
      }

      .cls-32 {
        filter: url(#luminosity-noclip-13);
      }

      .cls-33 {
        mask: url(#mask-17);
      }

      .cls-34 {
        fill: url(#_474);
      }

      .cls-35 {
        fill: url(#_490);
      }

      .cls-36 {
        filter: url(#luminosity-noclip-5);
      }

      .cls-37 {
        mask: url(#mask-2);
      }

      .cls-38 {
        mask: url(#mask-33);
      }

      .cls-39 {
        filter: url(#luminosity-noclip-25);
      }

      .cls-40 {
        fill: url(#_502);
      }

      .cls-41 {
        fill: url(#_499);
      }

      .cls-6 {
        fill: url(#_295);
      }

      .cls-42 {
        filter: url(#luminosity-noclip-31);
      }

      .cls-43 {
        mask: url(#mask-13);
      }

      .cls-44 {
        mask: url(#mask-3);
      }

      .cls-45 {
        fill: url(#_24);
      }

      .cls-46 {
        filter: url(#luminosity-noclip-29);
      }

      .cls-47 {
        mask: url(#mask-31);
      }

      .cls-48 {
        filter: url(#luminosity-noclip-15);
      }

      .cls-49 {
        mask: url(#mask-30);
      }

      .cls-7 {
        fill: url(#_289);
      }

      .cls-50 {
        mask: url(#mask-32);
      }

      .cls-51 {
        mask: url(#mask-9);
      }

      .cls-52 {
        fill: #a9ddf3;
        opacity: .5;
      }

      .cls-53 {
        mask: url(#mask-12);
      }

      .cls-54 {
        mask: url(#mask-5);
      }

      .cls-55 {
        filter: url(#luminosity-noclip-21);
      }

      .cls-56 {
        opacity: .3;
      }

      .cls-8 {
        fill: url(#_311);
      }

      .cls-57 {
        mask: url(#mask-20);
      }

      .cls-9 {
        fill: url(#_317);
      }

      .cls-58 {
        filter: url(#luminosity-noclip-9);
      }

      .cls-10 {
        fill: url(#_303);
      }

      .cls-59 {
        mask: url(#mask-25);
      }

      .cls-60 {
        mask: url(#mask-8);
      }

      .cls-61 {
        filter: url(#luminosity-noclip-33);
      }

      .cls-62 {
        mask: url(#mask-4);
      }

      .cls-63 {
        mask: url(#mask-24);
      }

      .cls-11 {
        fill: url(#_301);
      }

      .cls-64 {
        mask: url(#mask-19);
      }

      .cls-65 {
        mask: url(#mask-15);
      }

      .cls-66 {
        fill: url(#_476-2);
      }

      .cls-67 {
        fill: url(#_495);
      }

      .cls-68 {
        mask: url(#mask-6);
      }

      .cls-69 {
        fill: #999;
      }

      .cls-70 {
        mask: url(#mask-16);
      }

      .cls-71 {
        mask: url(#mask-18);
      }

      .cls-72 {
        fill: url(#_296-2);
      }

      .cls-73 {
        filter: url(#luminosity-noclip);
      }

      .cls-12 {
        fill: url(#_308);
      }

      .cls-74 {
        mask: url(#mask-1);
      }

      .cls-75 {
        mask: url(#mask);
      }

      .cls-76 {
        filter: url(#luminosity-noclip-23);
      }

      .cls-77 {
        mask: url(#mask-22);
      }

      .cls-13 {
        fill: url(#_298);
      }

      .cls-78 {
        mask: url(#mask-29);
      }

      .cls-14 {
        fill: url(#_293);
      }

      .cls-79 {
        mask: url(#mask-7);
      }

      .cls-80 {
        fill: url(#_488);
      }

      .cls-81 {
        fill: url(#_337);
      }

      .cls-82 {
        mask: url(#mask-14);
      }

      .cls-83 {
        filter: url(#luminosity-noclip-19);
      }

      .cls-15 {
        fill: url(#_310);
      }

      .cls-84 {
        mask: url(#mask-21);
      }

      .cls-85 {
        fill: url(#_492);
      }

      .cls-16 {
        fill: url(#_314);
      }

      .cls-86 {
        filter: url(#luminosity-noclip-27);
      }

      .cls-87 {
        mask: url(#mask-11);
      }

      .cls-88 {
        fill: #666;
      }

      .cls-89 {
        mask: url(#mask-28);
      }

      .cls-17 {
        fill: url(#_306);
      }

      .cls-90 {
        filter: url(#luminosity-noclip-3);
      }

      .cls-18 {
        fill: url(#_313);
      }
    </style>
    <filter id="luminosity-noclip" x="15.37" y="4.51" width="124.42" height="201.54" color-interpolation-filters="sRGB" filterUnits="userSpaceOnUse">
      <feFlood flood-color="#fff" result="bg"/>
      <feBlend in="SourceGraphic" in2="bg"/>
    </filter>
    <filter id="luminosity-noclip-2" x="15.37" y="-8250.85" width="124.42" height="32766" color-interpolation-filters="sRGB" filterUnits="userSpaceOnUse">
      <feFlood flood-color="#fff" result="bg"/>
      <feBlend in="SourceGraphic" in2="bg"/>
    </filter>
    <mask id="mask-1" x="15.37" y="-8250.85" width="124.42" height="32766" maskUnits="userSpaceOnUse"/>
    <linearGradient id="_317" data-name="  317" x1="15.37" y1="105.28" x2="139.8" y2="105.28" gradientUnits="userSpaceOnUse">
      <stop offset="0" stop-color="#000"/>
      <stop offset=".36" stop-color="#020202"/>
      <stop offset=".56" stop-color="#0a0a0a"/>
      <stop offset=".71" stop-color="#171717"/>
      <stop offset=".85" stop-color="#2a2a2a"/>
      <stop offset=".96" stop-color="#434343"/>
      <stop offset="1" stop-color="#4d4d4d"/>
    </linearGradient>
    <mask id="mask" x="15.37" y="4.51" width="124.42" height="201.54" maskUnits="userSpaceOnUse">
      <g class="cls-73">
        <g class="cls-74">
          <path class="cls-9" d="m139.13,4.51c-18.48,0-38.89,0-61.55,0-22.66,0-43.07,0-61.55,0-.81,33.05-.86,65.2-.27,96.43.61,32.34,1.9,63.81,19.66,83.26,4.88,5.35,18.82,20.62,39.03,21.78,1.32.08,2.41.08,3.13.07.72.01,1.81.01,3.13-.07,20.2-1.16,34.15-16.43,39.03-21.78,17.76-19.45,19.05-50.92,19.66-83.26.59-31.23.54-63.38-.27-96.43Z"/>
        </g>
      </g>
    </mask>
    <linearGradient id="_478" data-name="  478" x1="15.37" y1="105.28" x2="139.8" y2="105.28" gradientUnits="userSpaceOnUse">
      <stop offset="0" stop-color="#fff"/>
      <stop offset=".26" stop-color="#fcfcfc"/>
      <stop offset=".4" stop-color="#f4f4f4"/>
      <stop offset=".5" stop-color="#e7e7e7"/>
      <stop offset=".6" stop-color="#d4d4d4"/>
      <stop offset=".68" stop-color="#bbb"/>
      <stop offset=".76" stop-color="#9c9c9c"/>
      <stop offset=".83" stop-color="#777"/>
      <stop offset=".9" stop-color="#4d4d4d"/>
      <stop offset=".96" stop-color="#1e1e1e"/>
      <stop offset="1" stop-color="#000"/>
    </linearGradient>
    <filter id="luminosity-noclip-3" x="15.37" y="4.51" width="124.42" height="201.54" color-interpolation-filters="sRGB" filterUnits="userSpaceOnUse">
      <feFlood flood-color="#fff" result="bg"/>
      <feBlend in="SourceGraphic" in2="bg"/>
    </filter>
    <filter id="luminosity-noclip-4" x="15.37" y="-8250.85" width="124.42" height="32766" color-interpolation-filters="sRGB" filterUnits="userSpaceOnUse">
      <feFlood flood-color="#fff" result="bg"/>
      <feBlend in="SourceGraphic" in2="bg"/>
    </filter>
    <mask id="mask-3" x="15.37" y="-8250.85" width="124.42" height="32766" maskUnits="userSpaceOnUse"/>
    <linearGradient id="_314" data-name="  314" x1="139.8" y1="105.28" x2="15.37" y2="105.28" gradientUnits="userSpaceOnUse">
      <stop offset="0" stop-color="#000"/>
      <stop offset=".47" stop-color="#010101"/>
      <stop offset=".64" stop-color="#080808"/>
      <stop offset=".77" stop-color="#141414"/>
      <stop offset=".86" stop-color="#252525"/>
      <stop offset=".95" stop-color="#3b3b3b"/>
      <stop offset="1" stop-color="#4d4d4d"/>
    </linearGradient>
    <mask id="mask-2" x="15.37" y="4.51" width="124.42" height="201.54" maskUnits="userSpaceOnUse">
      <g class="cls-90">
        <g class="cls-44">
          <path class="cls-16" d="m139.13,4.51c-18.48,0-38.89,0-61.55,0-22.66,0-43.07,0-61.55,0-.81,33.05-.86,65.2-.27,96.43.61,32.34,1.9,63.81,19.66,83.26,4.88,5.35,18.82,20.62,39.03,21.78,1.32.08,2.41.08,3.13.07.72.01,1.81.01,3.13-.07,20.2-1.16,34.15-16.43,39.03-21.78,17.76-19.45,19.05-50.92,19.66-83.26.59-31.23.54-63.38-.27-96.43Z"/>
        </g>
      </g>
    </mask>
    <linearGradient id="_477" data-name="  477" x1="139.8" y1="105.28" x2="15.37" y2="105.28" gradientUnits="userSpaceOnUse">
      <stop offset="0" stop-color="#fff"/>
      <stop offset=".37" stop-color="#fdfdfd"/>
      <stop offset=".51" stop-color="#f6f6f6"/>
      <stop offset=".6" stop-color="#eaeaea"/>
      <stop offset=".68" stop-color="#d9d9d9"/>
      <stop offset=".75" stop-color="#c3c3c3"/>
      <stop offset=".8" stop-color="#a8a8a8"/>
      <stop offset=".86" stop-color="#878787"/>
      <stop offset=".91" stop-color="#626262"/>
      <stop offset=".95" stop-color="#373737"/>
      <stop offset=".99" stop-color="#090909"/>
      <stop offset="1" stop-color="#000"/>
    </linearGradient>
    <filter id="luminosity-noclip-5" x="15.37" y="4.51" width="124.42" height="201.54" color-interpolation-filters="sRGB" filterUnits="userSpaceOnUse">
      <feFlood flood-color="#fff" result="bg"/>
      <feBlend in="SourceGraphic" in2="bg"/>
    </filter>
    <filter id="luminosity-noclip-6" x="15.37" y="-8250.85" width="124.42" height="32766" color-interpolation-filters="sRGB" filterUnits="userSpaceOnUse">
      <feFlood flood-color="#fff" result="bg"/>
      <feBlend in="SourceGraphic" in2="bg"/>
    </filter>
    <mask id="mask-5" x="15.37" y="-8250.85" width="124.42" height="32766" maskUnits="userSpaceOnUse"/>
    <linearGradient id="_313" data-name="  313" x1="77.59" y1="206.05" x2="77.59" y2="4.51" gradientUnits="userSpaceOnUse">
      <stop offset="0" stop-color="#000"/>
      <stop offset=".47" stop-color="#010101"/>
      <stop offset=".64" stop-color="#080808"/>
      <stop offset=".77" stop-color="#141414"/>
      <stop offset=".86" stop-color="#252525"/>
      <stop offset=".95" stop-color="#3b3b3b"/>
      <stop offset="1" stop-color="#4d4d4d"/>
    </linearGradient>
    <mask id="mask-4" x="15.37" y="4.51" width="124.42" height="201.54" maskUnits="userSpaceOnUse">
      <g class="cls-36">
        <g class="cls-54">
          <path class="cls-18" d="m139.13,4.51c-18.48,0-38.89,0-61.55,0-22.66,0-43.07,0-61.55,0-.81,33.05-.86,65.2-.27,96.43.61,32.34,1.9,63.81,19.66,83.26,4.88,5.35,18.82,20.62,39.03,21.78,1.32.08,2.41.08,3.13.07.72.01,1.81.01,3.13-.07,20.2-1.16,34.15-16.43,39.03-21.78,17.76-19.45,19.05-50.92,19.66-83.26.59-31.23.54-63.38-.27-96.43Z"/>
        </g>
      </g>
    </mask>
    <linearGradient id="_492" data-name="  492" x1="77.59" y1="206.05" x2="77.59" y2="4.51" gradientUnits="userSpaceOnUse">
      <stop offset="0" stop-color="#fff"/>
      <stop offset=".37" stop-color="#fdfdfd"/>
      <stop offset=".51" stop-color="#f6f6f6"/>
      <stop offset=".6" stop-color="#eaeaea"/>
      <stop offset=".68" stop-color="#d9d9d9"/>
      <stop offset=".75" stop-color="#c3c3c3"/>
      <stop offset=".8" stop-color="#a8a8a8"/>
      <stop offset=".86" stop-color="#878787"/>
      <stop offset=".91" stop-color="#626262"/>
      <stop offset=".95" stop-color="#373737"/>
      <stop offset=".99" stop-color="#090909"/>
      <stop offset="1" stop-color="#000"/>
    </linearGradient>
    <filter id="luminosity-noclip-7" x="15.37" y="4.51" width="124.42" height="201.54" color-interpolation-filters="sRGB" filterUnits="userSpaceOnUse">
      <feFlood flood-color="#fff" result="bg"/>
      <feBlend in="SourceGraphic" in2="bg"/>
    </filter>
    <filter id="luminosity-noclip-8" x="15.37" y="-8250.85" width="124.42" height="32766" color-interpolation-filters="sRGB" filterUnits="userSpaceOnUse">
      <feFlood flood-color="#fff" result="bg"/>
      <feBlend in="SourceGraphic" in2="bg"/>
    </filter>
    <mask id="mask-7" x="15.37" y="-8250.85" width="124.42" height="32766" maskUnits="userSpaceOnUse"/>
    <linearGradient id="_311" data-name="  311" x1="77.59" y1="4.51" x2="77.59" y2="206.05" gradientUnits="userSpaceOnUse">
      <stop offset="0" stop-color="#000"/>
      <stop offset=".47" stop-color="#010101"/>
      <stop offset=".64" stop-color="#080808"/>
      <stop offset=".77" stop-color="#141414"/>
      <stop offset=".86" stop-color="#252525"/>
      <stop offset=".95" stop-color="#3b3b3b"/>
      <stop offset="1" stop-color="#4d4d4d"/>
    </linearGradient>
    <mask id="mask-6" x="15.37" y="4.51" width="124.42" height="201.54" maskUnits="userSpaceOnUse">
      <g class="cls-30">
        <g class="cls-79">
          <path class="cls-8" d="m139.13,4.51c-18.48,0-38.89,0-61.55,0-22.66,0-43.07,0-61.55,0-.81,33.05-.86,65.2-.27,96.43.61,32.34,1.9,63.81,19.66,83.26,4.88,5.35,18.82,20.62,39.03,21.78,1.32.08,2.41.08,3.13.07.72.01,1.81.01,3.13-.07,20.2-1.16,34.15-16.43,39.03-21.78,17.76-19.45,19.05-50.92,19.66-83.26.59-31.23.54-63.38-.27-96.43Z"/>
        </g>
      </g>
    </mask>
    <linearGradient id="_491" data-name="  491" x1="77.59" y1="4.51" x2="77.59" y2="206.05" gradientUnits="userSpaceOnUse">
      <stop offset="0" stop-color="#fff"/>
      <stop offset=".37" stop-color="#fdfdfd"/>
      <stop offset=".51" stop-color="#f6f6f6"/>
      <stop offset=".6" stop-color="#eaeaea"/>
      <stop offset=".68" stop-color="#d9d9d9"/>
      <stop offset=".75" stop-color="#c3c3c3"/>
      <stop offset=".8" stop-color="#a8a8a8"/>
      <stop offset=".86" stop-color="#878787"/>
      <stop offset=".91" stop-color="#626262"/>
      <stop offset=".95" stop-color="#373737"/>
      <stop offset=".99" stop-color="#090909"/>
      <stop offset="1" stop-color="#000"/>
    </linearGradient>
    <filter id="luminosity-noclip-9" x="0" y="0" width="155.17" height="58.63" color-interpolation-filters="sRGB" filterUnits="userSpaceOnUse">
      <feFlood flood-color="#fff" result="bg"/>
      <feBlend in="SourceGraphic" in2="bg"/>
    </filter>
    <filter id="luminosity-noclip-10" x="0" y="-8250.85" width="155.17" height="32766" color-interpolation-filters="sRGB" filterUnits="userSpaceOnUse">
      <feFlood flood-color="#fff" result="bg"/>
      <feBlend in="SourceGraphic" in2="bg"/>
    </filter>
    <mask id="mask-9" x="0" y="-8250.85" width="155.17" height="32766" maskUnits="userSpaceOnUse"/>
    <linearGradient id="_310" data-name="  310" x1="0" y1="29.32" x2="155.17" y2="29.32" gradientUnits="userSpaceOnUse">
      <stop offset="0" stop-color="#000"/>
      <stop offset=".47" stop-color="#010101"/>
      <stop offset=".64" stop-color="#080808"/>
      <stop offset=".77" stop-color="#141414"/>
      <stop offset=".86" stop-color="#252525"/>
      <stop offset=".95" stop-color="#3b3b3b"/>
      <stop offset="1" stop-color="#4d4d4d"/>
    </linearGradient>
    <mask id="mask-8" x="0" y="0" width="155.17" height="58.63" maskUnits="userSpaceOnUse">
      <g class="cls-58">
        <g class="cls-51">
          <path class="cls-15" d="m122.09,0H33.09C14.81,0,0,12.99,0,29.32s14.81,29.32,33.09,29.32h89c18.27,0,33.09-12.99,33.09-29.32S140.36,0,122.09,0Z"/>
        </g>
      </g>
    </mask>
    <linearGradient id="_296" data-name="  296" x1="0" y1="29.32" x2="155.17" y2="29.32" gradientUnits="userSpaceOnUse">
      <stop offset="0" stop-color="#fff"/>
      <stop offset=".37" stop-color="#fdfdfd"/>
      <stop offset=".51" stop-color="#f6f6f6"/>
      <stop offset=".6" stop-color="#eaeaea"/>
      <stop offset=".68" stop-color="#d9d9d9"/>
      <stop offset=".75" stop-color="#c3c3c3"/>
      <stop offset=".8" stop-color="#a8a8a8"/>
      <stop offset=".86" stop-color="#878787"/>
      <stop offset=".91" stop-color="#626262"/>
      <stop offset=".95" stop-color="#373737"/>
      <stop offset=".99" stop-color="#090909"/>
      <stop offset="1" stop-color="#000"/>
    </linearGradient>
    <filter id="luminosity-noclip-11" x="28.51" y="77.82" width="98.16" height="116.44" color-interpolation-filters="sRGB" filterUnits="userSpaceOnUse">
      <feFlood flood-color="#fff" result="bg"/>
      <feBlend in="SourceGraphic" in2="bg"/>
    </filter>
    <filter id="luminosity-noclip-12" x="28.51" y="-8250.85" width="98.16" height="32766" color-interpolation-filters="sRGB" filterUnits="userSpaceOnUse">
      <feFlood flood-color="#fff" result="bg"/>
      <feBlend in="SourceGraphic" in2="bg"/>
    </filter>
    <mask id="mask-11" x="28.51" y="-8250.85" width="98.16" height="32766" maskUnits="userSpaceOnUse"/>
    <linearGradient id="_308" data-name="  308" x1="51.43" y1="85.42" x2="107.22" y2="182.04" gradientUnits="userSpaceOnUse">
      <stop offset="0" stop-color="#000"/>
      <stop offset=".25" stop-color="#020202"/>
      <stop offset=".44" stop-color="#0c0c0c"/>
      <stop offset=".61" stop-color="#1c1c1c"/>
      <stop offset=".77" stop-color="#333"/>
      <stop offset=".91" stop-color="#505050"/>
      <stop offset="1" stop-color="#666"/>
    </linearGradient>
    <mask id="mask-10" x="28.51" y="77.82" width="98.16" height="116.44" maskUnits="userSpaceOnUse">
      <g class="cls-19">
        <g class="cls-87">
          <path class="cls-12" d="m126.35,123.44c-.72-6.86-2.3-21.82-16-33.36-12.44-10.47-27.51-11.96-32.76-12.26-5.25.3-20.33,1.78-32.76,12.26-13.7,11.54-15.28,26.5-16,33.36-3.47,32.96,22.04,69.34,46.63,70.78.86.05,1.6.05,2.13.04.54.01,1.27.01,2.13-.04,24.59-1.44,50.1-37.81,46.63-70.78Z"/>
        </g>
      </g>
    </mask>
    <linearGradient id="_490" data-name="  490" x1="51.43" y1="85.42" x2="107.22" y2="182.04" gradientUnits="userSpaceOnUse">
      <stop offset="0" stop-color="#fff"/>
      <stop offset=".18" stop-color="#fcfcfc"/>
      <stop offset=".31" stop-color="#f2f2f2"/>
      <stop offset=".43" stop-color="#e2e2e2"/>
      <stop offset=".54" stop-color="#cbcbcb"/>
      <stop offset=".64" stop-color="#aeaeae"/>
      <stop offset=".74" stop-color="#8a8a8a"/>
      <stop offset=".83" stop-color="#5f5f5f"/>
      <stop offset=".92" stop-color="#2f2f2f"/>
      <stop offset="1" stop-color="#000"/>
    </linearGradient>
    <filter id="luminosity-noclip-13" x="28.51" y="77.82" width="98.16" height="116.44" color-interpolation-filters="sRGB" filterUnits="userSpaceOnUse">
      <feFlood flood-color="#fff" result="bg"/>
      <feBlend in="SourceGraphic" in2="bg"/>
    </filter>
    <filter id="luminosity-noclip-14" x="28.51" y="-8250.85" width="98.16" height="32766" color-interpolation-filters="sRGB" filterUnits="userSpaceOnUse">
      <feFlood flood-color="#fff" result="bg"/>
      <feBlend in="SourceGraphic" in2="bg"/>
    </filter>
    <mask id="mask-13" x="28.51" y="-8250.85" width="98.16" height="32766" maskUnits="userSpaceOnUse"/>
    <linearGradient id="_306" data-name="  306" x1="107.22" y1="182.04" x2="51.43" y2="85.42" gradientUnits="userSpaceOnUse">
      <stop offset="0" stop-color="#000"/>
      <stop offset=".35" stop-color="#242424"/>
      <stop offset="1" stop-color="#666"/>
    </linearGradient>
    <mask id="mask-12" x="28.51" y="77.82" width="98.16" height="116.44" maskUnits="userSpaceOnUse">
      <g class="cls-32">
        <g class="cls-43">
          <path class="cls-17" d="m126.35,123.44c-.72-6.86-2.3-21.82-16-33.36-12.44-10.47-27.51-11.96-32.76-12.26-5.25.3-20.33,1.78-32.76,12.26-13.7,11.54-15.28,26.5-16,33.36-3.47,32.96,22.04,69.34,46.63,70.78.86.05,1.6.05,2.13.04.54.01,1.27.01,2.13-.04,24.59-1.44,50.1-37.81,46.63-70.78Z"/>
        </g>
      </g>
    </mask>
    <linearGradient id="_488" data-name="  488" x1="107.22" y1="182.04" x2="51.43" y2="85.42" gradientUnits="userSpaceOnUse">
      <stop offset="0" stop-color="#fff"/>
      <stop offset=".1" stop-color="#e5e5e5"/>
      <stop offset=".73" stop-color="#414141"/>
      <stop offset="1" stop-color="#000"/>
    </linearGradient>
    <filter id="luminosity-noclip-15" x="0" y="0" width="155.17" height="58.63" color-interpolation-filters="sRGB" filterUnits="userSpaceOnUse">
      <feFlood flood-color="#fff" result="bg"/>
      <feBlend in="SourceGraphic" in2="bg"/>
    </filter>
    <filter id="luminosity-noclip-16" x="0" y="-8250.85" width="155.17" height="32766" color-interpolation-filters="sRGB" filterUnits="userSpaceOnUse">
      <feFlood flood-color="#fff" result="bg"/>
      <feBlend in="SourceGraphic" in2="bg"/>
    </filter>
    <mask id="mask-15" x="0" y="-8250.85" width="155.17" height="32766" maskUnits="userSpaceOnUse"/>
    <linearGradient id="_304" data-name="  304" x1="155.17" y1="29.32" x2="0" y2="29.32" gradientUnits="userSpaceOnUse">
      <stop offset="0" stop-color="#000"/>
      <stop offset=".47" stop-color="#010101"/>
      <stop offset=".64" stop-color="#080808"/>
      <stop offset=".77" stop-color="#141414"/>
      <stop offset=".86" stop-color="#252525"/>
      <stop offset=".95" stop-color="#3b3b3b"/>
      <stop offset="1" stop-color="#4d4d4d"/>
    </linearGradient>
    <mask id="mask-14" x="0" y="0" width="155.17" height="58.63" maskUnits="userSpaceOnUse">
      <g class="cls-48">
        <g class="cls-65">
          <path class="cls-2" d="m122.09,0H33.09C14.81,0,0,12.99,0,29.32s14.81,29.32,33.09,29.32h89c18.27,0,33.09-12.99,33.09-29.32S140.36,0,122.09,0Z"/>
        </g>
      </g>
    </mask>
    <linearGradient id="_296-2" data-name="  296" x1="155.17" y1="29.32" x2="0" y2="29.32" xlink:href="#_296"/>
    <filter id="luminosity-noclip-17" x="0" y="0" width="155.17" height="58.63" color-interpolation-filters="sRGB" filterUnits="userSpaceOnUse">
      <feFlood flood-color="#fff" result="bg"/>
      <feBlend in="SourceGraphic" in2="bg"/>
    </filter>
    <filter id="luminosity-noclip-18" x="0" y="-8250.85" width="155.17" height="32766" color-interpolation-filters="sRGB" filterUnits="userSpaceOnUse">
      <feFlood flood-color="#fff" result="bg"/>
      <feBlend in="SourceGraphic" in2="bg"/>
    </filter>
    <mask id="mask-17" x="0" y="-8250.85" width="155.17" height="32766" maskUnits="userSpaceOnUse"/>
    <linearGradient id="_303" data-name="  303" x1="77.59" y1="58.63" x2="77.59" y2="0" gradientUnits="userSpaceOnUse">
      <stop offset="0" stop-color="#000"/>
      <stop offset=".2" stop-color="#080808"/>
      <stop offset=".53" stop-color="#202020"/>
      <stop offset=".94" stop-color="#464646"/>
      <stop offset="1" stop-color="#4d4d4d"/>
    </linearGradient>
    <mask id="mask-16" x="0" y="0" width="155.17" height="58.63" maskUnits="userSpaceOnUse">
      <g class="cls-23">
        <g class="cls-33">
          <path class="cls-10" d="m122.09,0H33.09C14.81,0,0,12.99,0,29.32s14.81,29.32,33.09,29.32h89c18.27,0,33.09-12.99,33.09-29.32S140.36,0,122.09,0Z"/>
        </g>
      </g>
    </mask>
    <linearGradient id="_476" data-name="  476" x1="77.59" y1="58.63" x2="77.59" y2="0" gradientUnits="userSpaceOnUse">
      <stop offset="0" stop-color="#fff"/>
      <stop offset=".09" stop-color="#f6f6f6"/>
      <stop offset=".22" stop-color="#dedede"/>
      <stop offset=".39" stop-color="#b8b8b8"/>
      <stop offset=".59" stop-color="#828282"/>
      <stop offset=".81" stop-color="#3f3f3f"/>
      <stop offset="1" stop-color="#000"/>
    </linearGradient>
    <filter id="luminosity-noclip-19" x="0" y="0" width="155.17" height="58.63" color-interpolation-filters="sRGB" filterUnits="userSpaceOnUse">
      <feFlood flood-color="#fff" result="bg"/>
      <feBlend in="SourceGraphic" in2="bg"/>
    </filter>
    <filter id="luminosity-noclip-20" x="0" y="-8250.85" width="155.17" height="32766" color-interpolation-filters="sRGB" filterUnits="userSpaceOnUse">
      <feFlood flood-color="#fff" result="bg"/>
      <feBlend in="SourceGraphic" in2="bg"/>
    </filter>
    <mask id="mask-19" x="0" y="-8250.85" width="155.17" height="32766" maskUnits="userSpaceOnUse"/>
    <linearGradient id="_301" data-name="  301" x1="77.59" y1="0" x2="77.59" y2="58.63" gradientUnits="userSpaceOnUse">
      <stop offset="0" stop-color="#000"/>
      <stop offset=".2" stop-color="#080808"/>
      <stop offset=".53" stop-color="#202020"/>
      <stop offset=".94" stop-color="#464646"/>
      <stop offset="1" stop-color="#4d4d4d"/>
    </linearGradient>
    <mask id="mask-18" x="0" y="0" width="155.17" height="58.63" maskUnits="userSpaceOnUse">
      <g class="cls-83">
        <g class="cls-64">
          <path class="cls-11" d="m122.09,0H33.09C14.81,0,0,12.99,0,29.32s14.81,29.32,33.09,29.32h89c18.27,0,33.09-12.99,33.09-29.32S140.36,0,122.09,0Z"/>
        </g>
      </g>
    </mask>
    <linearGradient id="_476-2" data-name="  476" x1="77.59" y1="0" x2="77.59" y2="58.63" xlink:href="#_476"/>
    <filter id="luminosity-noclip-21" x="58.52" y="103.97" width="64.08" height="88.49" color-interpolation-filters="sRGB" filterUnits="userSpaceOnUse">
      <feFlood flood-color="#fff" result="bg"/>
      <feBlend in="SourceGraphic" in2="bg"/>
    </filter>
    <filter id="luminosity-noclip-22" x="58.52" y="-8250.85" width="64.08" height="32766" color-interpolation-filters="sRGB" filterUnits="userSpaceOnUse">
      <feFlood flood-color="#fff" result="bg"/>
      <feBlend in="SourceGraphic" in2="bg"/>
    </filter>
    <mask id="mask-21" x="58.52" y="-8250.85" width="64.08" height="32766" maskUnits="userSpaceOnUse"/>
    <linearGradient id="_298" data-name="  298" x1="108.84" y1="178.25" x2="74.17" y2="118.2" gradientUnits="userSpaceOnUse">
      <stop offset="0" stop-color="#000"/>
      <stop offset=".28" stop-color="#2c2c2c"/>
      <stop offset=".6" stop-color="#595959"/>
      <stop offset=".85" stop-color="#757575"/>
      <stop offset="1" stop-color="gray"/>
    </linearGradient>
    <mask id="mask-20" x="58.52" y="103.97" width="64.08" height="88.49" maskUnits="userSpaceOnUse">
      <g class="cls-55">
        <g class="cls-84">
          <path class="cls-13" d="m74.9,192.03c-12.87-3.32-18.37-26.19-15.74-42.35,2.46-15.11,12.1-24.79,16.07-28.67,3.93-3.84,21.12-20.64,34.13-16.34,12.31,4.07,14.6,24.99,12.59,38.2-4.12,27.08-31.05,53.29-47.05,49.16Z"/>
        </g>
      </g>
    </mask>
    <linearGradient id="_495" data-name="  495" x1="108.84" y1="178.25" x2="74.17" y2="118.2" gradientUnits="userSpaceOnUse">
      <stop offset="0" stop-color="#fff"/>
      <stop offset="1" stop-color="#fff"/>
    </linearGradient>
    <filter id="luminosity-noclip-23" x="42.16" y="85.49" width="41.07" height="51.3" color-interpolation-filters="sRGB" filterUnits="userSpaceOnUse">
      <feFlood flood-color="#fff" result="bg"/>
      <feBlend in="SourceGraphic" in2="bg"/>
    </filter>
    <filter id="luminosity-noclip-24" x="42.16" y="-8250.85" width="41.07" height="32766" color-interpolation-filters="sRGB" filterUnits="userSpaceOnUse">
      <feFlood flood-color="#fff" result="bg"/>
      <feBlend in="SourceGraphic" in2="bg"/>
    </filter>
    <mask id="mask-23" x="42.16" y="-8250.85" width="41.07" height="32766" maskUnits="userSpaceOnUse"/>
    <linearGradient id="_297" data-name="  297" x1="78.93" y1="137.52" x2="49.82" y2="87.09" gradientUnits="userSpaceOnUse">
      <stop offset="0" stop-color="#000"/>
      <stop offset=".43" stop-color="#010101"/>
      <stop offset=".58" stop-color="#080808"/>
      <stop offset=".69" stop-color="#141414"/>
      <stop offset=".78" stop-color="#252525"/>
      <stop offset=".86" stop-color="#3b3b3b"/>
      <stop offset=".92" stop-color="#565656"/>
      <stop offset=".98" stop-color="#767676"/>
      <stop offset="1" stop-color="gray"/>
    </linearGradient>
    <mask id="mask-22" x="42.16" y="85.49" width="41.07" height="51.3" maskUnits="userSpaceOnUse">
      <g class="cls-76">
        <g class="cls-24">
          <path class="cls-3" d="m80.93,136.37c-5.87,3.33-23.52-14.26-24.36-15.1-6-6.04-17.92-18.05-13.42-27.54,2.08-4.38,7.81-8.53,13.42-8.22,17.67,1,32.53,46.22,24.35,50.86Z"/>
        </g>
      </g>
    </mask>
    <linearGradient id="_499" data-name="  499" x1="78.93" y1="137.52" x2="49.82" y2="87.09" gradientUnits="userSpaceOnUse">
      <stop offset="0" stop-color="#fff"/>
      <stop offset=".86" stop-color="#fff"/>
      <stop offset="1" stop-color="#fff"/>
    </linearGradient>
    <filter id="luminosity-noclip-25" x="55.09" y="101.86" width="45.01" height="67.23" color-interpolation-filters="sRGB" filterUnits="userSpaceOnUse">
      <feFlood flood-color="#fff" result="bg"/>
      <feBlend in="SourceGraphic" in2="bg"/>
    </filter>
    <filter id="luminosity-noclip-26" x="55.09" y="-8250.85" width="45.01" height="32766" color-interpolation-filters="sRGB" filterUnits="userSpaceOnUse">
      <feFlood flood-color="#fff" result="bg"/>
      <feBlend in="SourceGraphic" in2="bg"/>
    </filter>
    <mask id="mask-25" x="55.09" y="-8250.85" width="45.01" height="32766" maskUnits="userSpaceOnUse"/>
    <linearGradient id="_295" data-name="  295" x1="61.99" y1="162.51" x2="93.21" y2="108.44" gradientUnits="userSpaceOnUse">
      <stop offset="0" stop-color="#1a1a1a"/>
      <stop offset=".69" stop-color="#989898"/>
      <stop offset="1" stop-color="#ccc"/>
    </linearGradient>
    <mask id="mask-24" x="55.09" y="101.86" width="45.01" height="67.23" maskUnits="userSpaceOnUse">
      <g class="cls-39">
        <g class="cls-59">
          <ellipse class="cls-6" cx="77.6" cy="135.47" rx="22.51" ry="33.62"/>
        </g>
      </g>
    </mask>
    <linearGradient id="_24" data-name="  24" x1="61.99" y1="162.51" x2="93.21" y2="108.44" gradientUnits="userSpaceOnUse">
      <stop offset="0" stop-color="#64a99d"/>
      <stop offset=".68" stop-color="#1e332f"/>
      <stop offset="1" stop-color="#000"/>
    </linearGradient>
    <filter id="luminosity-noclip-27" x="55.06" y="101.86" width="45.05" height="46.36" color-interpolation-filters="sRGB" filterUnits="userSpaceOnUse">
      <feFlood flood-color="#fff" result="bg"/>
      <feBlend in="SourceGraphic" in2="bg"/>
    </filter>
    <filter id="luminosity-noclip-28" x="55.06" y="-8250.85" width="45.05" height="32766" color-interpolation-filters="sRGB" filterUnits="userSpaceOnUse">
      <feFlood flood-color="#fff" result="bg"/>
      <feBlend in="SourceGraphic" in2="bg"/>
    </filter>
    <mask id="mask-27" x="55.06" y="-8250.85" width="45.05" height="32766" maskUnits="userSpaceOnUse"/>
    <linearGradient id="_293" data-name="  293" x1="55.06" y1="125.04" x2="100.11" y2="125.04" gradientUnits="userSpaceOnUse">
      <stop offset="0" stop-color="#000"/>
      <stop offset=".12" stop-color="#0c0c0c"/>
      <stop offset=".34" stop-color="#2e2e2e"/>
      <stop offset=".63" stop-color="#646464"/>
      <stop offset=".98" stop-color="#afafaf"/>
      <stop offset="1" stop-color="#b3b3b3"/>
    </linearGradient>
    <mask id="mask-26" x="55.06" y="101.86" width="45.05" height="46.36" maskUnits="userSpaceOnUse">
      <g class="cls-86">
        <g class="cls-25">
          <path class="cls-14" d="m98.43,148.22c-14.46-4.25-28.91-8.5-43.37-12.74.05-1.49,1-21.8,11.88-29.62,1.89-1.35,5.54-3.98,10.62-4,3.68-.01,6.49,1.39,7.73,2.02,2.16,1.09,4.65,2.88,7.42,6.69,5.92,8.15,6.86,16.94,7.19,20.36.38,3.99.45,10.05-1.47,17.3Z"/>
        </g>
      </g>
    </mask>
    <linearGradient id="_286" data-name="  286" x1="55.06" y1="125.04" x2="100.11" y2="125.04" gradientUnits="userSpaceOnUse">
      <stop offset="0" stop-color="#fff"/>
      <stop offset="1" stop-color="#fff"/>
    </linearGradient>
    <filter id="luminosity-noclip-29" x="69.03" y="21.67" width="17.11" height="15.29" color-interpolation-filters="sRGB" filterUnits="userSpaceOnUse">
      <feFlood flood-color="#fff" result="bg"/>
      <feBlend in="SourceGraphic" in2="bg"/>
    </filter>
    <filter id="luminosity-noclip-30" x="69.03" y="-8250.85" width="17.11" height="32766" color-interpolation-filters="sRGB" filterUnits="userSpaceOnUse">
      <feFlood flood-color="#fff" result="bg"/>
      <feBlend in="SourceGraphic" in2="bg"/>
    </filter>
    <mask id="mask-29" x="69.03" y="-8250.85" width="17.11" height="32766" maskUnits="userSpaceOnUse"/>
    <linearGradient id="_292" data-name="  292" x1="69.03" y1="29.32" x2="86.14" y2="29.32" gradientUnits="userSpaceOnUse">
      <stop offset="0" stop-color="#000"/>
      <stop offset=".52" stop-color="#444"/>
      <stop offset="1" stop-color="gray"/>
    </linearGradient>
    <mask id="mask-28" x="69.03" y="21.67" width="17.11" height="15.29" maskUnits="userSpaceOnUse">
      <g class="cls-46">
        <g class="cls-78">
          <ellipse class="cls-5" cx="77.59" cy="29.32" rx="8.56" ry="7.65"/>
        </g>
      </g>
    </mask>
    <linearGradient id="_337" data-name="  337" x1="69.03" y1="29.32" x2="86.14" y2="29.32" gradientUnits="userSpaceOnUse">
      <stop offset="0" stop-color="#fff"/>
      <stop offset="1" stop-color="#fff"/>
    </linearGradient>
    <filter id="luminosity-noclip-31" x="70.65" y="23.12" width="13.87" height="12.4" color-interpolation-filters="sRGB" filterUnits="userSpaceOnUse">
      <feFlood flood-color="#fff" result="bg"/>
      <feBlend in="SourceGraphic" in2="bg"/>
    </filter>
    <filter id="luminosity-noclip-32" x="70.65" y="-8250.85" width="13.87" height="32766" color-interpolation-filters="sRGB" filterUnits="userSpaceOnUse">
      <feFlood flood-color="#fff" result="bg"/>
      <feBlend in="SourceGraphic" in2="bg"/>
    </filter>
    <mask id="mask-31" x="70.65" y="-8250.85" width="13.87" height="32766" maskUnits="userSpaceOnUse"/>
    <linearGradient id="_290" data-name="  290" x1="84.52" y1="29.32" x2="70.65" y2="29.32" gradientUnits="userSpaceOnUse">
      <stop offset="0" stop-color="#000"/>
      <stop offset=".4" stop-color="#393939"/>
      <stop offset=".8" stop-color="#6c6c6c"/>
      <stop offset="1" stop-color="gray"/>
    </linearGradient>
    <mask id="mask-30" x="70.65" y="23.12" width="13.87" height="12.4" maskUnits="userSpaceOnUse">
      <g class="cls-42">
        <g class="cls-47">
          <ellipse class="cls-4" cx="77.59" cy="29.32" rx="6.94" ry="6.2"/>
        </g>
      </g>
    </mask>
    <linearGradient id="_474" data-name="  474" x1="84.52" y1="29.32" x2="70.65" y2="29.32" gradientUnits="userSpaceOnUse">
      <stop offset="0" stop-color="#fff"/>
      <stop offset=".36" stop-color="#999"/>
      <stop offset=".67" stop-color="#464646"/>
      <stop offset=".89" stop-color="#131313"/>
      <stop offset="1" stop-color="#000"/>
    </linearGradient>
    <filter id="luminosity-noclip-33" x="72.97" y="22.9" width="13.17" height="12.83" color-interpolation-filters="sRGB" filterUnits="userSpaceOnUse">
      <feFlood flood-color="#fff" result="bg"/>
      <feBlend in="SourceGraphic" in2="bg"/>
    </filter>
    <filter id="luminosity-noclip-34" x="72.97" y="-8250.85" width="13.17" height="32766" color-interpolation-filters="sRGB" filterUnits="userSpaceOnUse">
      <feFlood flood-color="#fff" result="bg"/>
      <feBlend in="SourceGraphic" in2="bg"/>
    </filter>
    <mask id="mask-33" x="72.97" y="-8250.85" width="13.17" height="32766" maskUnits="userSpaceOnUse"/>
    <linearGradient id="_289" data-name="  289" x1="86.14" y1="29.32" x2="72.97" y2="29.32" gradientUnits="userSpaceOnUse">
      <stop offset="0" stop-color="#000"/>
      <stop offset=".12" stop-color="#040404"/>
      <stop offset=".24" stop-color="#101010"/>
      <stop offset=".37" stop-color="#262626"/>
      <stop offset=".5" stop-color="#434343"/>
      <stop offset=".63" stop-color="#696969"/>
      <stop offset=".76" stop-color="#989898"/>
      <stop offset=".9" stop-color="#cecece"/>
      <stop offset="1" stop-color="#fff"/>
    </linearGradient>
    <mask id="mask-32" x="72.97" y="22.9" width="13.17" height="12.83" maskUnits="userSpaceOnUse">
      <g class="cls-61">
        <g class="cls-38">
          <path class="cls-7" d="m86.14,29.32c0,3.61-4.65,6.94-8.33,6.35-3.25-.53-4.91-3.99-4.84-6.52.06-2.36,1.67-5.66,4.84-6.18,3.67-.6,8.33,2.74,8.33,6.35Z"/>
        </g>
      </g>
    </mask>
    <linearGradient id="_502" data-name="  502" x1="86.14" y1="29.32" x2="72.97" y2="29.32" gradientUnits="userSpaceOnUse">
      <stop offset="0" stop-color="#fff"/>
      <stop offset="1" stop-color="#fff"/>
    </linearGradient>
  </defs>
  <path class="cls-56" d="m174.64,33.64c0-16.49-16.18-28.31-36.15-28.31H41.25C21.29,5.33,5.1,17.15,5.1,33.64c0,10.61,6.72,19.14,16.81,24.37-.04,15.99.11,31.44.42,46.98.67,32.66,2.08,64.27,21.48,83.91,5.33,5.4,20.57,20.74,42.64,21.91,1.44.08,2.63.04,3.42.03.79.01,1.98,0,3.42-.09,22.07-1.17,37.31-16.6,42.64-22,19.4-19.64,20.81-51.42,21.48-84.07.32-15.54.46-30.67.42-46.66,10.09-5.22,16.81-13.76,16.81-24.37Z"/>
  <g>
    <path class="cls-22" d="m139.13,4.51c-18.48,0-38.89,0-61.55,0-22.66,0-43.07,0-61.55,0-.81,33.05-.86,65.2-.27,96.43.61,32.34,1.9,63.81,19.66,83.26,4.88,5.35,18.82,20.62,39.03,21.78,1.32.08,2.41.08,3.13.07.72.01,1.81.01,3.13-.07,20.2-1.16,34.15-16.43,39.03-21.78,17.76-19.45,19.05-50.92,19.66-83.26.59-31.23.54-63.38-.27-96.43Z"/>
    <g class="cls-75">
      <path class="cls-29" d="m139.13,4.51c-18.48,0-38.89,0-61.55,0-22.66,0-43.07,0-61.55,0-.81,33.05-.86,65.2-.27,96.43.61,32.34,1.9,63.81,19.66,83.26,4.88,5.35,18.82,20.62,39.03,21.78,1.32.08,2.41.08,3.13.07.72.01,1.81.01,3.13-.07,20.2-1.16,34.15-16.43,39.03-21.78,17.76-19.45,19.05-50.92,19.66-83.26.59-31.23.54-63.38-.27-96.43Z"/>
    </g>
    <g class="cls-37">
      <path class="cls-31" d="m139.13,4.51c-18.48,0-38.89,0-61.55,0-22.66,0-43.07,0-61.55,0-.81,33.05-.86,65.2-.27,96.43.61,32.34,1.9,63.81,19.66,83.26,4.88,5.35,18.82,20.62,39.03,21.78,1.32.08,2.41.08,3.13.07.72.01,1.81.01,3.13-.07,20.2-1.16,34.15-16.43,39.03-21.78,17.76-19.45,19.05-50.92,19.66-83.26.59-31.23.54-63.38-.27-96.43Z"/>
    </g>
    <g class="cls-62">
      <path class="cls-85" d="m139.13,4.51c-18.48,0-38.89,0-61.55,0-22.66,0-43.07,0-61.55,0-.81,33.05-.86,65.2-.27,96.43.61,32.34,1.9,63.81,19.66,83.26,4.88,5.35,18.82,20.62,39.03,21.78,1.32.08,2.41.08,3.13.07.72.01,1.81.01,3.13-.07,20.2-1.16,34.15-16.43,39.03-21.78,17.76-19.45,19.05-50.92,19.66-83.26.59-31.23.54-63.38-.27-96.43Z"/>
    </g>
    <g class="cls-68">
      <path class="cls-21" d="m139.13,4.51c-18.48,0-38.89,0-61.55,0-22.66,0-43.07,0-61.55,0-.81,33.05-.86,65.2-.27,96.43.61,32.34,1.9,63.81,19.66,83.26,4.88,5.35,18.82,20.62,39.03,21.78,1.32.08,2.41.08,3.13.07.72.01,1.81.01,3.13-.07,20.2-1.16,34.15-16.43,39.03-21.78,17.76-19.45,19.05-50.92,19.66-83.26.59-31.23.54-63.38-.27-96.43Z"/>
    </g>
    <path class="cls-22" d="m122.09,0H33.09C14.81,0,0,12.99,0,29.32s14.81,29.32,33.09,29.32h89c18.27,0,33.09-12.99,33.09-29.32S140.36,0,122.09,0Z"/>
    <g class="cls-60">
      <path class="cls-20" d="m122.09,0H33.09C14.81,0,0,12.99,0,29.32s14.81,29.32,33.09,29.32h89c18.27,0,33.09-12.99,33.09-29.32S140.36,0,122.09,0Z"/>
    </g>
    <path class="cls-22" d="m126.35,123.44c-.72-6.86-2.3-21.82-16-33.36-12.44-10.47-27.51-11.96-32.76-12.26-5.25.3-20.33,1.78-32.76,12.26-13.7,11.54-15.28,26.5-16,33.36-3.47,32.96,22.04,69.34,46.63,70.78.86.05,1.6.05,2.13.04.54.01,1.27.01,2.13-.04,24.59-1.44,50.1-37.81,46.63-70.78Z"/>
    <g class="cls-26">
      <path class="cls-35" d="m126.35,123.44c-.72-6.86-2.3-21.82-16-33.36-12.44-10.47-27.51-11.96-32.76-12.26-5.25.3-20.33,1.78-32.76,12.26-13.7,11.54-15.28,26.5-16,33.36-3.47,32.96,22.04,69.34,46.63,70.78.86.05,1.6.05,2.13.04.54.01,1.27.01,2.13-.04,24.59-1.44,50.1-37.81,46.63-70.78Z"/>
    </g>
    <g class="cls-53">
      <path class="cls-80" d="m126.35,123.44c-.72-6.86-2.3-21.82-16-33.36-12.44-10.47-27.51-11.96-32.76-12.26-5.25.3-20.33,1.78-32.76,12.26-13.7,11.54-15.28,26.5-16,33.36-3.47,32.96,22.04,69.34,46.63,70.78.86.05,1.6.05,2.13.04.54.01,1.27.01,2.13-.04,24.59-1.44,50.1-37.81,46.63-70.78Z"/>
    </g>
    <g class="cls-82">
      <path class="cls-72" d="m122.09,0H33.09C14.81,0,0,12.99,0,29.32s14.81,29.32,33.09,29.32h89c18.27,0,33.09-12.99,33.09-29.32S140.36,0,122.09,0Z"/>
    </g>
    <g class="cls-70">
      <path class="cls-1" d="m122.09,0H33.09C14.81,0,0,12.99,0,29.32s14.81,29.32,33.09,29.32h89c18.27,0,33.09-12.99,33.09-29.32S140.36,0,122.09,0Z"/>
    </g>
    <g class="cls-71">
      <path class="cls-66" d="m122.09,0H33.09C14.81,0,0,12.99,0,29.32s14.81,29.32,33.09,29.32h89c18.27,0,33.09-12.99,33.09-29.32S140.36,0,122.09,0Z"/>
    </g>
    <g class="cls-57">
      <path class="cls-67" d="m74.9,192.03c-12.87-3.32-18.37-26.19-15.74-42.35,2.46-15.11,12.1-24.79,16.07-28.67,3.93-3.84,21.12-20.64,34.13-16.34,12.31,4.07,14.6,24.99,12.59,38.2-4.12,27.08-31.05,53.29-47.05,49.16Z"/>
    </g>
    <g class="cls-77">
      <path class="cls-41" d="m80.93,136.37c-5.87,3.33-23.52-14.26-24.36-15.1-6-6.04-17.92-18.05-13.42-27.54,2.08-4.38,7.81-8.53,13.42-8.22,17.67,1,32.53,46.22,24.35,50.86Z"/>
    </g>
    <path d="m88.76,125.13c0,5.52-5,9.99-11.17,9.99s-11.17-4.47-11.17-9.99,5-9.99,11.17-9.99,11.17,4.47,11.17,9.99Z"/>
    <g>
      <ellipse class="cls-52" cx="77.6" cy="135.47" rx="22.51" ry="33.62"/>
      <g class="cls-63">
        <ellipse class="cls-45" cx="77.6" cy="135.47" rx="22.51" ry="33.62"/>
      </g>
      <g class="cls-28">
        <path class="cls-27" d="m98.43,148.22c-14.46-4.25-28.91-8.5-43.37-12.74.05-1.49,1-21.8,11.88-29.62,1.89-1.35,5.54-3.98,10.62-4,3.68-.01,6.49,1.39,7.73,2.02,2.16,1.09,4.65,2.88,7.42,6.69,5.92,8.15,6.86,16.94,7.19,20.36.38,3.99.45,10.05-1.47,17.3Z"/>
      </g>
    </g>
    <path class="cls-69" d="m47.47,74.64c0,2.04-1.85,3.7-4.14,3.7s-4.14-1.66-4.14-3.7,1.85-3.7,4.14-3.7,4.14,1.66,4.14,3.7Z"/>
    <path class="cls-69" d="m107.7,74.64c0,2.04,1.85,3.7,4.14,3.7s4.14-1.66,4.14-3.7-1.85-3.7-4.14-3.7-4.14,1.66-4.14,3.7Z"/>
    <g>
      <ellipse class="cls-69" cx="77.59" cy="29.32" rx="8.56" ry="7.65"/>
      <g class="cls-89">
        <ellipse class="cls-81" cx="77.59" cy="29.32" rx="8.56" ry="7.65"/>
      </g>
      <ellipse class="cls-88" cx="77.59" cy="29.32" rx="6.94" ry="6.2"/>
      <g class="cls-49">
        <ellipse class="cls-34" cx="77.59" cy="29.32" rx="6.94" ry="6.2"/>
      </g>
      <g class="cls-50">
        <path class="cls-40" d="m86.14,29.32c0,3.61-4.65,6.94-8.33,6.35-3.25-.53-4.91-3.99-4.84-6.52.06-2.36,1.67-5.66,4.84-6.18,3.67-.6,8.33,2.74,8.33,6.35Z"/>
      </g>
    </g>
  </g>
</svg>