<?xml version="1.0" encoding="UTF-8"?>
<svg xmlns="http://www.w3.org/2000/svg" viewBox="0 0 162.04 252.09">
  <defs>
    <style>
      .cls-1 {
        fill: #d6d7d8;
      }

      .cls-2 {
        fill: #fff;
      }

      .cls-3 {
        fill: #9c9ea1;
      }

      .cls-4 {
        fill: #a7a9ac;
      }

      .cls-5 {
        fill: #e6e7e7;
      }

      .cls-6 {
        isolation: isolate;
      }

      .cls-7 {
        fill: #d7d8da;
      }

      .cls-8 {
        fill: #bbbdbf;
      }

      .cls-9 {
        fill: #eab880;
        mix-blend-mode: multiply;
        opacity: .3;
      }

      .cls-10 {
        fill: #f2f2f2;
      }
    </style>
  </defs>
  <g class="cls-6">
    <g id="wall">
      <g id="t-sink">
        <path class="cls-9" d="m150.68,234.26V81.31h0v-3.32h0v-25.23c6.1-2.94,9.39-5.12,9.39-5.12.99-.68,1.98-1.67,1.98-2.7V1.87c0-1.03-.88-1.87-1.98-1.87H1.98C.89,0,0,.84,0,1.87v43.06c0,1.03.98,2.03,1.98,2.7,0,0,3.29,2.19,9.39,5.12v181.5c0,5.88,28.16,16.41,69.66,17.83,41.5-1.42,69.66-11.95,69.66-17.83Z"/>
        <g>
          <path class="cls-1" d="m81.02,224c38.38-1.51,64.42-12.72,64.42-18.97V42.27c0-.86-.82-1.56-1.83-1.56H18.43c-1.01,0-1.83.7-1.83,1.56v162.76c0,6.25,26.04,17.46,64.42,18.97Z"/>
          <path class="cls-8" d="m81.02,220.96c38.38-1.2,64.42-10.08,64.42-15.04V76.9c0-.68-.82-1.24-1.83-1.24H18.43c-1.01,0-1.83.55-1.83,1.24v129.02c0,4.96,26.04,13.84,64.42,15.04Z"/>
          <g>
            <path class="cls-5" d="m81.02,247.06c38.38-1.39,64.42-11.68,64.42-17.43V80.15c0-.79-.82-1.44-1.83-1.44H18.43c-1.01,0-1.83.64-1.83,1.44v149.48c0,5.74,26.04,16.04,64.42,17.43Z"/>
            <path class="cls-2" d="m81.02,241.48c35.84-1.29,60.15-10.91,60.15-16.27V85.62c0-.74-.76-1.34-1.71-1.34H22.57c-.94,0-1.71.6-1.71,1.34v139.59c0,5.36,24.32,14.98,60.16,16.27Z"/>
          </g>
          <g>
            <path class="cls-10" d="m7.92,47.23s28.27,19.94,73.1,19.94,73.1-19.94,73.1-19.94c.92-.66,1.83-1.63,1.83-2.64V2.51c0-1.01-.82-1.83-1.83-1.83H7.92c-1.01,0-1.83.82-1.83,1.83v42.08c0,1.01.91,1.98,1.83,2.64Z"/>
            <path class="cls-2" d="m11.48,45.89s26.9,17.92,69.54,17.92c42.65,0,69.54-17.92,69.54-17.92.87-.6,1.74-1.47,1.74-2.38V5.69c0-.91-.78-1.64-1.74-1.64H11.48c-.96,0-1.74.73-1.74,1.64v37.82c0,.91.86,1.78,1.74,2.38Z"/>
          </g>
        </g>
        <g>
          <path class="cls-8" d="m99.09,70.28h25.59c1.01,0,1.83.82,1.83,1.83v4.78c0,1.01-.82,1.83-1.83,1.83h-25.59c-1.01,0-1.83-.82-1.83-1.83v-4.78c0-1.01.82-1.83,1.83-1.83Z"/>
          <path class="cls-10" d="m101.23,70.98h21.33c.84,0,1.52.68,1.52,1.52v3.98c0,.84-.68,1.52-1.52,1.52h-21.32c-.84,0-1.52-.68-1.52-1.52v-3.98c0-.84.68-1.52,1.52-1.52Z"/>
        </g>
        <g>
          <rect class="cls-8" x="35.53" y="70.28" width="29.24" height="8.43" rx="1.83" ry="1.83"/>
          <path class="cls-10" d="m39.49,70.98h21.33c.84,0,1.52.68,1.52,1.52v3.98c0,.84-.68,1.52-1.52,1.52h-21.33c-.84,0-1.52-.68-1.52-1.52v-3.98c0-.84.68-1.52,1.52-1.52Z"/>
        </g>
        <g>
          <g>
            <path class="cls-8" d="m81.02,37.11c-4.07,0-7.36-3.3-7.36-7.36s3.29-7.36,7.36-7.36,7.36,3.3,7.36,7.36-3.3,7.36-7.36,7.36Z"/>
            <path class="cls-4" d="m73.08,29.75c0-4.38,3.56-7.94,7.94-7.94s7.94,3.56,7.94,7.94-3.56,7.94-7.94,7.94-7.94-3.56-7.94-7.94Zm14.72,0c0-3.74-3.04-6.78-6.78-6.78s-6.78,3.04-6.78,6.78,3.05,6.78,6.78,6.78,6.78-3.04,6.78-6.78Z"/>
          </g>
          <g>
            <path class="cls-7" d="m81.02,34.87c-2.83,0-5.12-2.29-5.12-5.12s2.29-5.12,5.12-5.12,5.12,2.29,5.12,5.12-2.29,5.12-5.12,5.12Z"/>
            <path class="cls-3" d="m75.32,29.75c0-3.14,2.56-5.7,5.7-5.7s5.7,2.56,5.7,5.7-2.56,5.7-5.7,5.7-5.7-2.56-5.7-5.7Zm10.24,0c0-2.5-2.04-4.54-4.54-4.54s-4.54,2.04-4.54,4.54,2.04,4.54,4.54,4.54,4.54-2.04,4.54-4.54Z"/>
          </g>
          <path class="cls-3" d="m85.68,31.85h-9.32c.8,1.78,2.58,3.02,4.66,3.02s3.85-1.24,4.66-3.02Z"/>
        </g>
      </g>
    </g>
  </g>
</svg>