<?xml version="1.0" encoding="UTF-8"?>
<svg xmlns="http://www.w3.org/2000/svg" xmlns:xlink="http://www.w3.org/1999/xlink" viewBox="0 0 466.21 281.26">
  <defs>
    <style>
      .cls-1 {
        fill: #ddd;
      }

      .cls-2 {
        fill: #e9e9e9;
      }

      .cls-3 {
        fill: #f0f0f0;
      }

      .cls-4 {
        fill: #f4f4f4;
      }

      .cls-5 {
        fill: #fff;
      }

      .cls-6 {
        fill: #cbcbcb;
      }

      .cls-7 {
        fill: #d1d1d1;
      }

      .cls-8 {
        fill: #fafafa;
      }

      .cls-9 {
        fill: #dbdbdb;
      }

      .cls-10 {
        fill: #ff564a;
      }

      .cls-10, .cls-11 {
        mix-blend-mode: multiply;
      }

      .cls-12 {
        fill: #cacaca;
      }

      .cls-13 {
        fill: #d8d8d8;
      }

      .cls-14 {
        fill: #f6f6f6;
      }

      .cls-15 {
        fill: #e2e2e2;
      }

      .cls-16 {
        fill: #f5f5f5;
      }

      .cls-17 {
        isolation: isolate;
      }

      .cls-18 {
        fill: #d6d6d6;
      }

      .cls-19 {
        fill: #c9c9c9;
      }

      .cls-20 {
        fill: #e0e0e0;
      }

      .cls-21 {
        fill: #c7c7c7;
      }

      .cls-22 {
        fill: #dedede;
      }

      .cls-23 {
        fill: #cfcfcf;
      }

      .cls-24 {
        fill: #d7d7d7;
      }

      .cls-25 {
        fill: #e1e1e1;
      }

      .cls-26 {
        fill: #e6e6e6;
      }

      .cls-27 {
        fill: #e7e7e7;
      }

      .cls-28 {
        fill: #d4d4d4;
      }

      .cls-29 {
        fill: #dadada;
      }

      .cls-30 {
        fill: #eaeaea;
      }

      .cls-31 {
        fill: #c8c8c8;
      }

      .cls-32 {
        fill: #fdfdfd;
      }

      .cls-33 {
        fill: #e4e4e4;
      }

      .cls-34 {
        fill: #fbfbfb;
      }

      .cls-35 {
        fill: #f9f9f9;
      }

      .cls-36 {
        fill: #e5e5e5;
      }

      .cls-37 {
        fill: none;
        stroke: #9d9d9c;
        stroke-miterlimit: 10;
        stroke-width: .03px;
      }

      .cls-38 {
        fill: #d3d3d3;
      }

      .cls-39 {
        fill: #ebebeb;
      }

      .cls-40 {
        fill: #d5d5d5;
      }

      .cls-41 {
        fill: #dcdcdc;
      }

      .cls-42 {
        fill: #e8e8e8;
      }

      .cls-43 {
        fill: #ccc;
      }

      .cls-44 {
        fill: #f7f7f7;
      }

      .cls-45 {
        fill: #efefef;
      }

      .cls-46 {
        fill: #f1f1f1;
      }

      .cls-47 {
        fill: #cecece;
      }

      .cls-48 {
        fill: url(#linear-gradient);
      }

      .cls-49 {
        fill: #f3f3f3;
      }

      .cls-50 {
        fill: #d9d9d9;
      }

      .cls-51 {
        fill: #cdcdcd;
      }

      .cls-52 {
        fill: #f8f8f8;
      }

      .cls-53 {
        fill: #d2d2d2;
      }

      .cls-54 {
        fill: #c6c6c6;
      }

      .cls-55 {
        fill: #eee;
      }

      .cls-56 {
        fill: #d0d0d0;
      }

      .cls-57 {
        fill: #ececec;
      }

      .cls-58 {
        fill: #f2f2f2;
      }

      .cls-59 {
        fill: #fefefe;
      }

      .cls-60 {
        fill: #e3e3e3;
      }

      .cls-61 {
        fill: #fcfcfc;
      }

      .cls-62 {
        fill: #ededed;
      }

      .cls-63 {
        fill: #dfdfdf;
      }
    </style>
    <linearGradient id="linear-gradient" x1="323.34" y1="93.46" x2="240.09" y2="202.05" gradientUnits="userSpaceOnUse">
      <stop offset="0" stop-color="#e8e8e8"/>
      <stop offset="1" stop-color="#fff"/>
    </linearGradient>
  </defs>
  <g class="cls-17">
    <g id="Layer_1" data-name="Layer 1">
      <g>
        <g class="cls-11">
          <path class="cls-5" d="m359.34,23.9H28.57C12.86,23.9,0,34.56,0,47.59v209.97c0,13.03,12.86,23.69,28.57,23.69h20.38c15.7,0,28.57-10.66,28.57-23.69,0,13.03,12.86,23.69,28.57,23.69h175.62c15.7,0,28.57-10.66,28.57-23.69,0,13.03,12.86,23.69,28.57,23.69h20.48c15.7,0,28.57-10.66,28.57-23.69V47.59c0-13.04-12.87-23.7-28.57-23.7Z"/>
          <path class="cls-59" d="m360.66,23.51H29.89c-15.71,0-28.57,10.66-28.57,23.7v209.97c0,13.03,12.86,23.69,28.57,23.69h20.38c15.7,0,28.57-10.66,28.57-23.69,0,13.03,12.86,23.69,28.57,23.69h175.62c15.7,0,28.57-10.66,28.57-23.69,0,13.03,12.86,23.69,28.57,23.69h20.48c15.7,0,28.57-10.66,28.57-23.69V47.2c0-13.04-12.87-23.7-28.57-23.7Z"/>
          <path class="cls-32" d="m361.99,23.12H31.22c-15.71,0-28.57,10.66-28.57,23.7v209.97c0,13.03,12.86,23.69,28.57,23.69h20.38c15.7,0,28.57-10.66,28.57-23.69,0,13.03,12.86,23.69,28.57,23.69h175.62c15.7,0,28.57-10.66,28.57-23.69,0,13.03,12.86,23.69,28.57,23.69h20.48c15.7,0,28.57-10.66,28.57-23.69V46.81c0-13.04-12.87-23.7-28.57-23.7Z"/>
          <path class="cls-61" d="m363.31,22.73H32.54c-15.71,0-28.57,10.66-28.57,23.7v209.97c0,13.03,12.86,23.69,28.57,23.69h20.38c15.7,0,28.57-10.66,28.57-23.69,0,13.03,12.86,23.69,28.57,23.69h175.62c15.7,0,28.57-10.66,28.57-23.69,0,13.03,12.86,23.69,28.57,23.69h20.48c15.7,0,28.57-10.66,28.57-23.69V46.42c0-13.04-12.87-23.7-28.57-23.7Z"/>
          <path class="cls-34" d="m364.63,22.34H33.87c-15.71,0-28.57,10.66-28.57,23.7v209.98c0,13.03,12.86,23.69,28.57,23.69h20.38c15.7,0,28.57-10.66,28.57-23.69,0,13.03,12.86,23.69,28.57,23.69h175.62c15.7,0,28.57-10.66,28.57-23.69,0,13.03,12.86,23.69,28.57,23.69h20.48c15.7,0,28.57-10.66,28.57-23.69V46.03c0-13.04-12.87-23.7-28.57-23.7Z"/>
          <path class="cls-8" d="m365.96,21.94H35.19c-15.71,0-28.57,10.66-28.57,23.7v209.98c0,13.03,12.86,23.69,28.57,23.69h20.38c15.7,0,28.57-10.66,28.57-23.69,0,13.03,12.86,23.69,28.57,23.69h175.62c15.7,0,28.57-10.66,28.57-23.69,0,13.03,12.86,23.69,28.57,23.69h20.48c15.7,0,28.57-10.66,28.57-23.69V45.64c0-13.04-12.87-23.7-28.57-23.7Z"/>
          <path class="cls-35" d="m367.28,21.55H36.52c-15.71,0-28.57,10.66-28.57,23.7v209.98c0,13.03,12.86,23.69,28.57,23.69h20.38c15.7,0,28.57-10.66,28.57-23.69,0,13.03,12.86,23.69,28.57,23.69h175.62c15.7,0,28.57-10.66,28.57-23.69,0,13.03,12.86,23.69,28.57,23.69h20.48c15.7,0,28.57-10.66,28.57-23.69V45.25c0-13.04-12.87-23.7-28.57-23.7Z"/>
          <path class="cls-52" d="m368.61,21.16H37.84c-15.71,0-28.57,10.66-28.57,23.7v209.98c0,13.03,12.86,23.69,28.57,23.69h20.38c15.7,0,28.57-10.66,28.57-23.69,0,13.03,12.86,23.69,28.57,23.69h175.62c15.7,0,28.57-10.66,28.57-23.69,0,13.03,12.86,23.69,28.57,23.69h20.48c15.7,0,28.57-10.66,28.57-23.69V44.86c0-13.04-12.87-23.7-28.57-23.7Z"/>
          <path class="cls-44" d="m369.93,20.77H39.16c-15.71,0-28.57,10.66-28.57,23.7v209.98c0,13.03,12.86,23.69,28.57,23.69h20.38c15.7,0,28.57-10.66,28.57-23.69,0,13.03,12.86,23.69,28.57,23.69h175.62c15.7,0,28.57-10.66,28.57-23.69,0,13.03,12.86,23.69,28.57,23.69h20.48c15.7,0,28.57-10.66,28.57-23.69V44.47c0-13.04-12.87-23.7-28.57-23.7Z"/>
          <path class="cls-14" d="m371.26,20.38H40.49c-15.71,0-28.57,10.66-28.57,23.7v209.98c0,13.03,12.86,23.69,28.57,23.69h20.38c15.7,0,28.57-10.66,28.57-23.69,0,13.03,12.86,23.69,28.57,23.69h175.62c15.7,0,28.57-10.66,28.57-23.69,0,13.03,12.86,23.69,28.57,23.69h20.48c15.7,0,28.57-10.66,28.57-23.69V44.08c0-13.04-12.87-23.7-28.57-23.7Z"/>
          <path class="cls-16" d="m372.58,19.99H41.81c-15.71,0-28.57,10.66-28.57,23.7v209.98c0,13.03,12.86,23.69,28.57,23.69h20.38c15.7,0,28.57-10.66,28.57-23.69,0,13.03,12.86,23.69,28.57,23.69h175.62c15.7,0,28.57-10.66,28.57-23.69,0,13.03,12.86,23.69,28.57,23.69h20.48c15.7,0,28.57-10.66,28.57-23.69V43.69c0-13.03-12.87-23.7-28.57-23.7Z"/>
          <path class="cls-4" d="m373.9,19.6H43.14c-15.71,0-28.57,10.66-28.57,23.7v209.98c0,13.03,12.86,23.69,28.57,23.69h20.38c15.7,0,28.57-10.66,28.57-23.69,0,13.03,12.86,23.69,28.57,23.69h175.62c15.7,0,28.57-10.66,28.57-23.69,0,13.03,12.86,23.69,28.57,23.69h20.48c15.7,0,28.57-10.66,28.57-23.69V43.3c0-13.03-12.87-23.7-28.57-23.7Z"/>
          <path class="cls-49" d="m375.23,19.21H44.46c-15.71,0-28.57,10.66-28.57,23.7v209.98c0,13.03,12.86,23.69,28.57,23.69h20.38c15.7,0,28.57-10.66,28.57-23.69,0,13.03,12.86,23.69,28.57,23.69h175.62c15.7,0,28.57-10.66,28.57-23.69,0,13.03,12.86,23.69,28.57,23.69h20.48c15.7,0,28.57-10.66,28.57-23.69V42.91c0-13.03-12.87-23.7-28.57-23.7Z"/>
          <path class="cls-58" d="m376.55,18.82H45.78c-15.71,0-28.57,10.66-28.57,23.7v209.98c0,13.03,12.86,23.69,28.57,23.69h20.38c15.7,0,28.57-10.66,28.57-23.69,0,13.03,12.86,23.69,28.57,23.69h175.62c15.7,0,28.57-10.66,28.57-23.69,0,13.03,12.86,23.69,28.57,23.69h20.48c15.7,0,28.57-10.66,28.57-23.69V42.52c0-13.03-12.87-23.7-28.57-23.7Z"/>
          <path class="cls-46" d="m377.88,18.43H47.11c-15.71,0-28.57,10.66-28.57,23.7v209.98c0,13.03,12.86,23.69,28.57,23.69h20.38c15.7,0,28.57-10.66,28.57-23.69,0,13.03,12.86,23.69,28.57,23.69h175.62c15.7,0,28.57-10.66,28.57-23.69,0,13.03,12.86,23.69,28.57,23.69h20.48c15.7,0,28.57-10.66,28.57-23.69V42.13c0-13.03-12.87-23.7-28.57-23.7Z"/>
          <path class="cls-3" d="m379.2,18.04H48.43c-15.71,0-28.57,10.66-28.57,23.7v209.98c0,13.03,12.86,23.69,28.57,23.69h20.38c15.7,0,28.57-10.66,28.57-23.69,0,13.03,12.86,23.69,28.57,23.69h175.62c15.7,0,28.57-10.66,28.57-23.69,0,13.03,12.86,23.69,28.57,23.69h20.48c15.7,0,28.57-10.66,28.57-23.69V41.73c0-13.03-12.87-23.7-28.57-23.7Z"/>
          <path class="cls-45" d="m380.52,17.65H49.76c-15.71,0-28.57,10.66-28.57,23.69v209.98c0,13.03,12.86,23.69,28.57,23.69h20.38c15.7,0,28.57-10.66,28.57-23.69,0,13.03,12.86,23.69,28.57,23.69h175.62c15.7,0,28.57-10.66,28.57-23.69,0,13.03,12.86,23.69,28.57,23.69h20.48c15.7,0,28.57-10.66,28.57-23.69V41.34c0-13.03-12.87-23.69-28.57-23.69Z"/>
          <path class="cls-55" d="m381.85,17.26H51.08c-15.71,0-28.57,10.66-28.57,23.69v209.98c0,13.03,12.86,23.69,28.57,23.69h20.38c15.7,0,28.57-10.66,28.57-23.69,0,13.03,12.86,23.69,28.57,23.69h175.62c15.7,0,28.57-10.66,28.57-23.69,0,13.03,12.86,23.69,28.57,23.69h20.48c15.7,0,28.57-10.66,28.57-23.69V40.95c0-13.03-12.87-23.69-28.57-23.69Z"/>
          <path class="cls-62" d="m383.17,16.87H52.41c-15.71,0-28.57,10.66-28.57,23.69v209.98c0,13.03,12.86,23.69,28.57,23.69h20.38c15.7,0,28.57-10.66,28.57-23.69,0,13.03,12.86,23.69,28.57,23.69h175.62c15.7,0,28.57-10.66,28.57-23.69,0,13.03,12.86,23.69,28.57,23.69h20.48c15.7,0,28.57-10.66,28.57-23.69V40.56c0-13.03-12.87-23.69-28.57-23.69Z"/>
          <path class="cls-57" d="m384.5,16.48H53.73c-15.71,0-28.57,10.66-28.57,23.69v209.98c0,13.03,12.86,23.69,28.57,23.69h20.38c15.7,0,28.57-10.66,28.57-23.69,0,13.03,12.86,23.69,28.57,23.69h175.62c15.7,0,28.57-10.66,28.57-23.69,0,13.03,12.86,23.69,28.57,23.69h20.48c15.7,0,28.57-10.66,28.57-23.69V40.17c0-13.03-12.87-23.69-28.57-23.69Z"/>
          <path class="cls-39" d="m385.82,16.09H55.05c-15.71,0-28.57,10.66-28.57,23.69v209.98c0,13.03,12.86,23.69,28.57,23.69h20.38c15.7,0,28.57-10.66,28.57-23.69,0,13.03,12.86,23.69,28.57,23.69h175.62c15.7,0,28.57-10.66,28.57-23.69,0,13.03,12.86,23.69,28.57,23.69h20.48c15.7,0,28.57-10.66,28.57-23.69V39.78c0-13.03-12.87-23.69-28.57-23.69Z"/>
          <path class="cls-30" d="m387.15,15.7H56.38c-15.71,0-28.57,10.66-28.57,23.69v209.98c0,13.03,12.86,23.69,28.57,23.69h20.38c15.7,0,28.57-10.66,28.57-23.69,0,13.03,12.86,23.69,28.57,23.69h175.62c15.7,0,28.57-10.66,28.57-23.69,0,13.03,12.86,23.69,28.57,23.69h20.48c15.7,0,28.57-10.66,28.57-23.69V39.39c0-13.03-12.87-23.69-28.57-23.69Z"/>
          <path class="cls-2" d="m388.47,15.31H57.7c-15.71,0-28.57,10.66-28.57,23.69v209.98c0,13.03,12.86,23.69,28.57,23.69h20.38c15.7,0,28.57-10.66,28.57-23.69,0,13.03,12.86,23.69,28.57,23.69h175.62c15.7,0,28.57-10.66,28.57-23.69,0,13.03,12.86,23.69,28.57,23.69h20.48c15.7,0,28.57-10.66,28.57-23.69V39c0-13.03-12.87-23.69-28.57-23.69Z"/>
          <path class="cls-42" d="m389.79,14.92H59.03c-15.71,0-28.57,10.66-28.57,23.69v209.98c0,13.03,12.86,23.69,28.57,23.69h20.38c15.7,0,28.57-10.66,28.57-23.69,0,13.03,12.86,23.69,28.57,23.69h175.62c15.7,0,28.57-10.66,28.57-23.69,0,13.03,12.86,23.69,28.57,23.69h20.48c15.7,0,28.57-10.66,28.57-23.69V38.61c0-13.03-12.87-23.69-28.57-23.69Z"/>
          <path class="cls-27" d="m391.12,14.53H60.35c-15.71,0-28.57,10.66-28.57,23.69v209.98c0,13.03,12.86,23.69,28.57,23.69h20.38c15.7,0,28.57-10.66,28.57-23.69,0,13.03,12.86,23.69,28.57,23.69h175.62c15.7,0,28.57-10.66,28.57-23.69,0,13.03,12.86,23.69,28.57,23.69h20.48c15.7,0,28.57-10.66,28.57-23.69V38.22c0-13.03-12.87-23.69-28.57-23.69Z"/>
          <path class="cls-26" d="m392.44,14.13H61.67c-15.71,0-28.57,10.66-28.57,23.69v209.98c0,13.03,12.86,23.69,28.57,23.69h20.38c15.71,0,28.57-10.66,28.57-23.69,0,13.03,12.86,23.69,28.57,23.69h175.62c15.71,0,28.57-10.66,28.57-23.69,0,13.03,12.86,23.69,28.57,23.69h20.48c15.71,0,28.57-10.66,28.57-23.69V37.83c0-13.03-12.87-23.69-28.57-23.69Z"/>
          <path class="cls-36" d="m393.77,13.74H63c-15.71,0-28.57,10.66-28.57,23.69v209.98c0,13.03,12.86,23.69,28.57,23.69h20.38c15.71,0,28.57-10.66,28.57-23.69,0,13.03,12.86,23.69,28.57,23.69h175.62c15.71,0,28.57-10.66,28.57-23.69,0,13.03,12.86,23.69,28.57,23.69h20.48c15.71,0,28.57-10.66,28.57-23.69V37.44c0-13.03-12.87-23.69-28.57-23.69Z"/>
          <path class="cls-33" d="m395.09,13.35H64.32c-15.71,0-28.57,10.66-28.57,23.69v209.98c0,13.03,12.86,23.69,28.57,23.69h20.38c15.71,0,28.57-10.66,28.57-23.69,0,13.03,12.86,23.69,28.57,23.69h175.62c15.71,0,28.57-10.66,28.57-23.69,0,13.03,12.86,23.69,28.57,23.69h20.48c15.71,0,28.57-10.66,28.57-23.69V37.05c0-13.03-12.86-23.69-28.57-23.69Z"/>
          <path class="cls-60" d="m396.41,12.96H65.65c-15.71,0-28.57,10.66-28.57,23.69v209.98c0,13.03,12.86,23.69,28.57,23.69h20.38c15.71,0,28.57-10.66,28.57-23.69,0,13.03,12.86,23.69,28.57,23.69h175.62c15.71,0,28.57-10.66,28.57-23.69,0,13.03,12.86,23.69,28.57,23.69h20.48c15.71,0,28.57-10.66,28.57-23.69V36.66c0-13.03-12.86-23.69-28.57-23.69Z"/>
          <path class="cls-15" d="m397.74,12.57H66.97c-15.71,0-28.57,10.66-28.57,23.69v209.98c0,13.03,12.86,23.69,28.57,23.69h20.38c15.71,0,28.57-10.66,28.57-23.69,0,13.03,12.86,23.69,28.57,23.69h175.62c15.71,0,28.57-10.66,28.57-23.69,0,13.03,12.86,23.69,28.57,23.69h20.48c15.71,0,28.57-10.66,28.57-23.69V36.27c0-13.03-12.86-23.69-28.57-23.69Z"/>
          <path class="cls-15" d="m399.06,12.18H68.3c-15.71,0-28.57,10.66-28.57,23.69v209.98c0,13.03,12.86,23.69,28.57,23.69h20.38c15.71,0,28.57-10.66,28.57-23.69,0,13.03,12.86,23.69,28.57,23.69h175.62c15.71,0,28.57-10.66,28.57-23.69,0,13.03,12.86,23.69,28.57,23.69h20.48c15.71,0,28.57-10.66,28.57-23.69V35.87c0-13.03-12.86-23.69-28.57-23.69Z"/>
          <path class="cls-25" d="m400.39,11.79H69.62c-15.71,0-28.57,10.66-28.57,23.69v209.98c0,13.03,12.86,23.69,28.57,23.69h20.38c15.71,0,28.57-10.66,28.57-23.69,0,13.03,12.86,23.69,28.57,23.69h175.62c15.71,0,28.57-10.66,28.57-23.69,0,13.03,12.86,23.69,28.57,23.69h20.48c15.71,0,28.57-10.66,28.57-23.69V35.48c0-13.03-12.86-23.69-28.57-23.69Z"/>
          <path class="cls-20" d="m401.71,11.4H70.94c-15.71,0-28.57,10.66-28.57,23.69v209.98c0,13.03,12.87,23.69,28.57,23.69h20.38c15.71,0,28.57-10.66,28.57-23.69,0,13.03,12.87,23.69,28.57,23.69h175.62c15.71,0,28.57-10.66,28.57-23.69,0,13.03,12.86,23.69,28.57,23.69h20.48c15.71,0,28.57-10.66,28.57-23.69V35.09c0-13.03-12.86-23.69-28.57-23.69Z"/>
          <path class="cls-63" d="m403.04,11.01H72.27c-15.71,0-28.57,10.66-28.57,23.69v209.98c0,13.03,12.87,23.69,28.57,23.69h20.38c15.71,0,28.57-10.66,28.57-23.69,0,13.03,12.87,23.69,28.57,23.69h175.62c15.71,0,28.57-10.66,28.57-23.69,0,13.03,12.86,23.69,28.57,23.69h20.48c15.71,0,28.57-10.66,28.57-23.69V34.7c0-13.03-12.86-23.69-28.57-23.69Z"/>
          <path class="cls-22" d="m404.36,10.62H73.59c-15.7,0-28.57,10.66-28.57,23.69v209.98c0,13.03,12.87,23.69,28.57,23.69h20.38c15.71,0,28.57-10.66,28.57-23.69,0,13.03,12.87,23.69,28.57,23.69h175.62c15.71,0,28.57-10.66,28.57-23.69,0,13.03,12.86,23.69,28.57,23.69h20.48c15.71,0,28.57-10.66,28.57-23.69V34.31c0-13.03-12.86-23.69-28.57-23.69Z"/>
          <path class="cls-1" d="m405.68,10.23H74.92c-15.7,0-28.57,10.66-28.57,23.69v209.98c0,13.03,12.87,23.69,28.57,23.69h20.38c15.71,0,28.57-10.66,28.57-23.69,0,13.03,12.87,23.69,28.57,23.69h175.62c15.71,0,28.57-10.66,28.57-23.69,0,13.03,12.86,23.69,28.57,23.69h20.48c15.71,0,28.57-10.66,28.57-23.69V33.92c0-13.03-12.86-23.69-28.57-23.69Z"/>
          <path class="cls-41" d="m407.01,9.84H76.24c-15.7,0-28.57,10.66-28.57,23.69v209.98c0,13.03,12.87,23.69,28.57,23.69h20.38c15.71,0,28.57-10.66,28.57-23.69,0,13.03,12.87,23.69,28.57,23.69h175.62c15.71,0,28.57-10.66,28.57-23.69,0,13.03,12.86,23.69,28.57,23.69h20.48c15.71,0,28.57-10.66,28.57-23.69V33.53c0-13.03-12.86-23.69-28.57-23.69Z"/>
          <path class="cls-9" d="m408.33,9.45H77.56c-15.7,0-28.57,10.66-28.57,23.69v209.98c0,13.03,12.87,23.69,28.57,23.69h20.38c15.71,0,28.57-10.66,28.57-23.69,0,13.03,12.87,23.69,28.57,23.69h175.62c15.71,0,28.57-10.66,28.57-23.69,0,13.03,12.86,23.69,28.57,23.69h20.48c15.71,0,28.57-10.66,28.57-23.69V33.14c0-13.03-12.86-23.69-28.57-23.69Z"/>
          <path class="cls-29" d="m409.66,9.06H78.89c-15.7,0-28.57,10.66-28.57,23.69v209.98c0,13.03,12.87,23.69,28.57,23.69h20.38c15.71,0,28.57-10.66,28.57-23.69,0,13.03,12.87,23.69,28.57,23.69h175.62c15.71,0,28.57-10.66,28.57-23.69,0,13.03,12.86,23.69,28.57,23.69h20.48c15.71,0,28.57-10.66,28.57-23.69V32.75c0-13.03-12.86-23.69-28.57-23.69Z"/>
          <path class="cls-50" d="m410.98,8.67H80.21c-15.7,0-28.57,10.66-28.57,23.69v209.98c0,13.03,12.87,23.69,28.57,23.69h20.38c15.71,0,28.57-10.66,28.57-23.69,0,13.03,12.87,23.69,28.57,23.69h175.62c15.71,0,28.57-10.66,28.57-23.69,0,13.03,12.86,23.69,28.57,23.69h20.48c15.71,0,28.57-10.66,28.57-23.69V32.36c0-13.03-12.86-23.69-28.57-23.69Z"/>
          <path class="cls-13" d="m412.3,8.28H81.54c-15.7,0-28.57,10.66-28.57,23.69v209.98c0,13.03,12.87,23.69,28.57,23.69h20.38c15.71,0,28.57-10.66,28.57-23.69,0,13.03,12.87,23.69,28.57,23.69h175.62c15.71,0,28.57-10.66,28.57-23.69,0,13.03,12.86,23.69,28.57,23.69h20.48c15.71,0,28.57-10.66,28.57-23.69V31.97c0-13.03-12.86-23.69-28.57-23.69Z"/>
          <path class="cls-24" d="m413.63,7.89H82.86c-15.7,0-28.57,10.66-28.57,23.69v209.98c0,13.03,12.87,23.69,28.57,23.69h20.38c15.71,0,28.57-10.66,28.57-23.69,0,13.03,12.87,23.69,28.57,23.69h175.62c15.71,0,28.57-10.66,28.57-23.69,0,13.03,12.86,23.69,28.57,23.69h20.48c15.71,0,28.57-10.66,28.57-23.69V31.58c0-13.03-12.86-23.69-28.57-23.69Z"/>
          <path class="cls-18" d="m414.95,7.5H84.19c-15.7,0-28.57,10.66-28.57,23.69v209.98c0,13.03,12.87,23.69,28.57,23.69h20.38c15.71,0,28.57-10.66,28.57-23.69,0,13.03,12.87,23.69,28.57,23.69h175.62c15.71,0,28.57-10.66,28.57-23.69,0,13.03,12.86,23.69,28.57,23.69h20.48c15.71,0,28.57-10.66,28.57-23.69V31.19c0-13.03-12.86-23.69-28.57-23.69Z"/>
          <path class="cls-40" d="m416.28,7.11H85.51c-15.7,0-28.57,10.66-28.57,23.69v209.98c0,13.03,12.87,23.69,28.57,23.69h20.38c15.71,0,28.57-10.66,28.57-23.69,0,13.03,12.87,23.69,28.57,23.69h175.62c15.71,0,28.57-10.66,28.57-23.69,0,13.03,12.86,23.69,28.57,23.69h20.48c15.71,0,28.57-10.66,28.57-23.69V30.8c0-13.03-12.86-23.69-28.57-23.69Z"/>
          <path class="cls-28" d="m417.6,6.71H86.83c-15.7,0-28.57,10.66-28.57,23.69v209.98c0,13.03,12.87,23.69,28.57,23.69h20.38c15.71,0,28.57-10.66,28.57-23.69,0,13.03,12.87,23.69,28.57,23.69h175.62c15.71,0,28.57-10.66,28.57-23.69,0,13.03,12.86,23.69,28.57,23.69h20.48c15.71,0,28.57-10.66,28.57-23.69V30.4c0-13.03-12.86-23.69-28.57-23.69Z"/>
          <path class="cls-38" d="m418.93,6.32H88.16c-15.7,0-28.57,10.66-28.57,23.69v209.98c0,13.03,12.87,23.69,28.57,23.69h20.38c15.71,0,28.57-10.66,28.57-23.69,0,13.03,12.87,23.69,28.57,23.69h175.62c15.71,0,28.57-10.66,28.57-23.69,0,13.03,12.86,23.69,28.57,23.69h20.48c15.71,0,28.57-10.66,28.57-23.69V30.01c0-13.03-12.86-23.69-28.57-23.69Z"/>
          <path class="cls-53" d="m420.25,5.93H89.48c-15.7,0-28.57,10.66-28.57,23.69v209.98c0,13.03,12.87,23.69,28.57,23.69h20.38c15.71,0,28.57-10.66,28.57-23.69,0,13.03,12.87,23.69,28.57,23.69h175.62c15.71,0,28.57-10.66,28.57-23.69,0,13.03,12.86,23.69,28.57,23.69h20.48c15.71,0,28.57-10.66,28.57-23.69V29.62c0-13.03-12.86-23.69-28.57-23.69Z"/>
          <path class="cls-7" d="m421.57,5.54H90.81c-15.7,0-28.57,10.66-28.57,23.69v209.98c0,13.03,12.87,23.69,28.57,23.69h20.38c15.71,0,28.57-10.66,28.57-23.69,0,13.03,12.87,23.69,28.57,23.69h175.62c15.71,0,28.57-10.66,28.57-23.69,0,13.03,12.86,23.69,28.57,23.69h20.48c15.71,0,28.57-10.66,28.57-23.69V29.23c0-13.03-12.86-23.69-28.57-23.69Z"/>
          <path class="cls-56" d="m422.9,5.15H92.13c-15.7,0-28.57,10.66-28.57,23.69v209.98c0,13.03,12.87,23.69,28.57,23.69h20.38c15.71,0,28.57-10.66,28.57-23.69,0,13.03,12.87,23.69,28.57,23.69h175.62c15.71,0,28.57-10.66,28.57-23.69,0,13.03,12.86,23.69,28.57,23.69h20.48c15.71,0,28.57-10.66,28.57-23.69V28.84c0-13.03-12.86-23.69-28.57-23.69Z"/>
          <path class="cls-23" d="m424.22,4.76H93.45c-15.7,0-28.57,10.66-28.57,23.69v209.98c0,13.03,12.87,23.69,28.57,23.69h20.38c15.71,0,28.57-10.66,28.57-23.69,0,13.03,12.87,23.69,28.57,23.69h175.62c15.71,0,28.57-10.66,28.57-23.69,0,13.03,12.86,23.69,28.57,23.69h20.48c15.71,0,28.57-10.66,28.57-23.69V28.45c0-13.03-12.86-23.69-28.57-23.69Z"/>
          <path class="cls-47" d="m425.55,4.37H94.78c-15.7,0-28.57,10.66-28.57,23.69v209.98c0,13.03,12.87,23.69,28.57,23.69h20.38c15.71,0,28.57-10.66,28.57-23.69,0,13.03,12.87,23.69,28.57,23.69h175.62c15.71,0,28.57-10.66,28.57-23.69,0,13.03,12.86,23.69,28.57,23.69h20.48c15.71,0,28.57-10.66,28.57-23.69V28.06c0-13.03-12.86-23.69-28.57-23.69Z"/>
          <path class="cls-51" d="m426.87,3.98H96.1c-15.7,0-28.57,10.66-28.57,23.69v209.98c0,13.03,12.87,23.69,28.57,23.69h20.38c15.71,0,28.57-10.66,28.57-23.69,0,13.03,12.87,23.69,28.57,23.69h175.62c15.71,0,28.57-10.66,28.57-23.69,0,13.03,12.86,23.69,28.57,23.69h20.48c15.71,0,28.57-10.66,28.57-23.69V27.67c0-13.03-12.86-23.69-28.57-23.69Z"/>
          <path class="cls-43" d="m428.19,3.59H97.43c-15.7,0-28.57,10.66-28.57,23.69v209.98c0,13.03,12.87,23.69,28.57,23.69h20.38c15.71,0,28.57-10.66,28.57-23.69,0,13.03,12.87,23.69,28.57,23.69h175.62c15.71,0,28.57-10.66,28.57-23.69,0,13.03,12.86,23.69,28.57,23.69h20.48c15.71,0,28.57-10.66,28.57-23.69V27.28c0-13.03-12.86-23.69-28.57-23.69Z"/>
          <path class="cls-6" d="m429.52,3.2H98.75c-15.7,0-28.57,10.66-28.57,23.69v209.98c0,13.03,12.87,23.69,28.57,23.69h20.38c15.71,0,28.57-10.66,28.57-23.69,0,13.03,12.87,23.69,28.57,23.69h175.62c15.71,0,28.57-10.66,28.57-23.69,0,13.03,12.86,23.69,28.57,23.69h20.48c15.71,0,28.57-10.66,28.57-23.69V26.89c0-13.03-12.86-23.69-28.57-23.69Z"/>
          <path class="cls-12" d="m430.84,2.81H100.08c-15.7,0-28.57,10.66-28.57,23.69v209.98c0,13.03,12.87,23.69,28.57,23.69h20.38c15.71,0,28.57-10.66,28.57-23.69,0,13.03,12.87,23.69,28.57,23.69h175.62c15.71,0,28.57-10.66,28.57-23.69,0,13.03,12.86,23.69,28.57,23.69h20.48c15.71,0,28.57-10.66,28.57-23.69V26.5c0-13.03-12.86-23.69-28.57-23.69Z"/>
          <path class="cls-19" d="m432.17,2.42H101.4c-15.7,0-28.57,10.66-28.57,23.69v209.98c0,13.03,12.87,23.69,28.57,23.69h20.38c15.71,0,28.57-10.66,28.57-23.69,0,13.03,12.87,23.69,28.57,23.69h175.62c15.71,0,28.57-10.66,28.57-23.69,0,13.03,12.86,23.69,28.57,23.69h20.48c15.71,0,28.57-10.66,28.57-23.69V26.11c0-13.03-12.86-23.69-28.57-23.69Z"/>
          <path class="cls-31" d="m433.49,2.03H102.72c-15.7,0-28.57,10.66-28.57,23.69v209.98c0,13.03,12.87,23.69,28.57,23.69h20.38c15.71,0,28.57-10.66,28.57-23.69,0,13.03,12.87,23.69,28.57,23.69h175.62c15.71,0,28.57-10.66,28.57-23.69,0,13.03,12.86,23.69,28.57,23.69h20.48c15.71,0,28.57-10.66,28.57-23.69V25.72c0-13.03-12.86-23.69-28.57-23.69Z"/>
          <path class="cls-21" d="m434.82,1.64H104.05c-15.7,0-28.57,10.66-28.57,23.69v209.98c0,13.03,12.87,23.69,28.57,23.69h20.38c15.71,0,28.57-10.66,28.57-23.69,0,13.03,12.87,23.69,28.57,23.69h175.62c15.71,0,28.57-10.66,28.57-23.69,0,13.03,12.86,23.69,28.57,23.69h20.48c15.71,0,28.57-10.66,28.57-23.69V25.33c0-13.03-12.86-23.69-28.57-23.69Z"/>
          <path class="cls-54" d="m436.14,1.25H105.37c-15.7,0-28.57,10.66-28.57,23.69v209.98c0,13.03,12.87,23.69,28.57,23.69h20.38c15.71,0,28.57-10.66,28.57-23.69,0,13.03,12.87,23.69,28.57,23.69h175.62c15.71,0,28.57-10.66,28.57-23.69,0,13.03,12.86,23.69,28.57,23.69h20.48c15.71,0,28.57-10.66,28.57-23.69V24.94c0-13.03-12.86-23.69-28.57-23.69Z"/>
        </g>
        <g>
          <g>
            <path class="cls-54" d="m387.09,217.93V89.31c0-13.03-12.86-23.69-28.57-23.69h-175.62c-15.7,0-28.57,10.66-28.57,23.69v145.61c0,13.03,12.87,23.69,28.57,23.69h175.62c15.71,0,28.57-10.66,28.57-23.69v-16.99Z"/>
            <path class="cls-31" d="m155.71,90.34c0-12.89,12.74-22.14,28.17-23.54.08,0,6.79-.02,6.88-.02h159.98c.09,0,6.7.01,6.79.02,15.45,1.39,28.18,10.66,28.18,23.54v16.62c0,12.42,0,34.3,0,46.7v16.77c0,12.41,0,34.3,0,46.71v16.75c0,12.89-12.73,22.14-28.17,23.54-.08,0-6.78.02-6.87.02h-159.95c-.09,0-6.74-.01-6.82-.02-15.44-1.39-28.18-10.66-28.18-23.54V90.34Z"/>
            <path class="cls-6" d="m157.1,91.37c0-12.75,12.54-21.97,27.78-23.4.16-.02,6.63-.04,6.8-.04h158.16c.17,0,6.55.03,6.71.04,15.25,1.42,27.78,10.65,27.78,23.4v16.38c0,11.8,0,34.25,0,46.03v16.53c0,11.79,0,34.25,0,46.04v16.51c0,12.75-12.53,21.97-27.78,23.4-.16.02-6.62.04-6.79.04h-158.13c-.17,0-6.58-.03-6.74-.04-15.24-1.42-27.78-10.65-27.78-23.4V91.37Z"/>
            <path class="cls-51" d="m158.49,92.4c0-12.61,12.34-21.79,27.38-23.26.25-.02,6.46-.07,6.72-.07h156.33c.26,0,6.39.04,6.63.06,15.05,1.45,27.39,10.64,27.39,23.26v16.14c0,11.17,0,34.2,0,45.36v16.29c0,11.17,0,34.21,0,45.37v16.27c0,12.61-12.34,21.79-27.38,23.26-.25.02-6.45.07-6.71.07h-156.31c-.26,0-6.42-.04-6.66-.07-15.04-1.46-27.38-10.65-27.38-23.26V92.4Z"/>
            <path class="cls-23" d="m159.87,93.42c0-12.47,12.15-21.62,26.98-23.11.33-.03,6.29-.09,6.64-.09h154.51c.34,0,6.23.05,6.55.09,14.85,1.48,26.99,10.64,26.99,23.12v15.9c0,10.55,0,34.15,0,44.69v16.06c0,10.55,0,34.16,0,44.71v16.02c0,12.47-12.14,21.62-26.98,23.12-.33.03-6.29.09-6.63.09h-154.48c-.34,0-6.26-.05-6.59-.09-14.84-1.49-26.99-10.64-26.99-23.12V93.42Z"/>
            <path class="cls-7" d="m161.26,94.45c0-12.34,11.95-21.45,26.58-22.97.41-.04,6.13-.11,6.56-.11h152.69c.43,0,6.07.07,6.48.11,14.65,1.51,26.59,10.63,26.59,22.97v15.66c0,9.93,0,34.1,0,44.02v15.82c0,9.93,0,34.11,0,44.04v15.78c0,12.34-11.94,21.45-26.58,22.97-.41.04-6.12.11-6.55.11h-152.66c-.43,0-6.1-.07-6.51-.11-14.64-1.52-26.59-10.63-26.59-22.97V94.45Z"/>
            <path class="cls-28" d="m162.65,95.48c0-12.2,11.75-21.27,26.19-22.83.49-.05,5.96-.13,6.48-.13h150.86c.51,0,5.91.08,6.4.13,14.45,1.54,26.2,10.63,26.2,22.83v15.42c0,9.31,0,34.05,0,43.35v15.58c0,9.3,0,34.07,0,43.37v15.54c0,12.2-11.75,21.27-26.18,22.83-.49.05-5.96.13-6.47.13h-150.84c-.51,0-5.94-.08-6.43-.13-14.44-1.55-26.19-10.63-26.19-22.83V95.48Z"/>
            <path class="cls-18" d="m164.03,96.51c0-12.06,11.56-21.1,25.79-22.69.58-.06,5.8-.15,6.4-.15h149.04c.6,0,5.75.09,6.32.15,14.25,1.57,25.8,10.62,25.8,22.69v15.18c0,8.69,0,34,0,42.68v15.34c0,8.68,0,34.02,0,42.7v15.3c0,12.06-11.55,21.1-25.79,22.69-.57.06-5.79.15-6.39.15h-149.02c-.6,0-5.78-.09-6.35-.15-14.24-1.58-25.8-10.62-25.8-22.69V96.51Z"/>
            <path class="cls-13" d="m165.42,97.54c0-11.92,11.36-20.92,25.39-22.54.66-.08,5.63-.18,6.32-.18h147.22c.68,0,5.59.1,6.24.17,14.05,1.61,25.41,10.62,25.41,22.55v14.94c0,8.07,0,33.95,0,42.01v15.1c0,8.06,0,33.97,0,42.04v15.06c0,11.92-11.35,20.92-25.39,22.54-.66.08-5.63.18-6.32.18h-147.19c-.69,0-5.62-.1-6.27-.17-14.04-1.61-25.4-10.62-25.4-22.54V97.54Z"/>
            <path class="cls-9" d="m166.81,98.57c0-11.78,11.16-20.75,24.99-22.4.74-.09,5.47-.2,6.24-.2h145.39c.77,0,5.44.11,6.17.19,13.85,1.64,25.01,10.61,25.01,22.4v14.7c0,7.45,0,33.9,0,41.34v14.86c0,7.44,0,33.93,0,41.37v14.82c0,11.78-11.15,20.75-24.99,22.4-.74.09-5.46.2-6.24.2h-145.37c-.77,0-5.46-.11-6.2-.2-13.84-1.64-25.01-10.61-25.01-22.4v-127.09Z"/>
            <path class="cls-1" d="m168.19,99.6c0-11.65,10.96-20.57,24.59-22.26.82-.1,5.3-.22,6.17-.22h143.57c.85,0,5.28.12,6.09.22,13.65,1.67,24.62,10.61,24.62,22.26v14.46c0,6.83,0,33.85,0,40.67v14.62c0,6.82,0,33.88,0,40.7v14.57c0,11.65-10.95,20.57-24.59,22.26-.82.1-5.29.22-6.16.22h-143.55c-.86,0-5.3-.12-6.12-.22-13.65-1.67-24.61-10.61-24.61-22.26v-125.03Z"/>
            <path class="cls-63" d="m169.58,100.63c0-11.51,10.76-20.4,24.2-22.11.9-.12,5.14-.24,6.09-.24h141.75c.94,0,5.12.12,6.01.24,13.46,1.7,24.22,10.6,24.22,22.12v14.22c0,6.21,0,33.8,0,40v14.39c0,6.2,0,33.83,0,40.03v14.33c0,11.51-10.75,20.4-24.2,22.11-.9.11-5.13.24-6.08.24h-141.72c-.94,0-5.14-.12-6.04-.24-13.45-1.7-24.21-10.6-24.21-22.12v-122.97Z"/>
            <path class="cls-25" d="m170.97,101.65c0-11.37,10.56-20.22,23.8-21.97.98-.13,4.97-.26,6.01-.26h139.92c1.02,0,4.96.13,5.93.26,13.26,1.73,23.82,10.6,23.82,21.97v13.98c0,5.59,0,33.75,0,39.33v14.15c0,5.58,0,33.78,0,39.37v14.09c0,11.37-10.55,20.22-23.8,21.97-.98.13-4.96.26-6,.26h-139.9c-1.03,0-4.98-.13-5.96-.26-13.25-1.74-23.82-10.6-23.82-21.97v-120.92Z"/>
            <path class="cls-33" d="m172.35,102.68c0-11.23,10.35-20.05,23.4-21.83,1.06-.15,4.8-.29,5.93-.29h138.1c1.11,0,4.8.14,5.86.28,13.06,1.76,23.43,10.59,23.43,21.83v13.74c0,4.97,0,33.7,0,38.66v13.91c0,4.96,0,33.74,0,38.7v13.85c0,11.23-10.35,20.05-23.4,21.83-1.06.14-4.8.29-5.92.29h-138.08c-1.12,0-4.83-.14-5.88-.28-13.06-1.77-23.42-10.59-23.42-21.83v-118.86Z"/>
            <path class="cls-26" d="m173.74,103.71c0-11.09,10.15-19.87,23-21.68,1.15-.16,4.64-.31,5.85-.31h136.28c1.2,0,4.64.14,5.78.3,12.87,1.79,23.03,10.59,23.03,21.69v13.5c0,4.35,0,33.65,0,37.99v13.67c0,4.34,0,33.69,0,38.03v13.61c0,11.09-10.15,19.88-23,21.68-1.14.16-4.63.31-5.84.31h-136.25c-1.2,0-4.67-.14-5.81-.3-12.86-1.8-23.03-10.59-23.03-21.69v-116.8Z"/>
            <path class="cls-42" d="m175.13,104.74c0-10.95,9.95-19.7,22.6-21.54,1.23-.18,4.47-.33,5.77-.33h134.45c1.28,0,4.49.15,5.7.32,12.67,1.82,22.64,10.58,22.64,21.55v13.26c0,3.72,0,33.6,0,37.32v13.43c0,3.72,0,33.64,0,37.37v13.37c0,10.96-9.95,19.7-22.6,21.54-1.23.18-4.47.33-5.76.33h-134.43c-1.29,0-4.51-.15-5.73-.33-12.67-1.83-22.63-10.58-22.63-21.54v-114.74Z"/>
            <path class="cls-39" d="m176.52,105.77c0-10.82,9.74-19.52,22.21-21.4,1.31-.2,4.31-.35,5.69-.35h132.63c1.37,0,4.33.15,5.62.34,12.48,1.86,22.24,10.58,22.24,21.4v13.02c0,3.1,0,33.55,0,36.65v13.19c0,3.1,0,33.6,0,36.7v13.13c0,10.82-9.74,19.53-22.21,21.4-1.31.2-4.3.35-5.68.35h-132.61c-1.37,0-4.35-.15-5.65-.35-12.48-1.86-22.23-10.58-22.23-21.4v-112.69Z"/>
            <path class="cls-62" d="m177.9,106.8c0-10.68,9.54-19.35,21.81-21.25,1.39-.22,4.14-.37,5.61-.37h130.81c1.45,0,4.17.15,5.55.37,12.29,1.89,21.85,10.57,21.85,21.26v12.78c0,2.48,0,33.5,0,35.98v12.95c0,2.48,0,33.55,0,36.03v12.88c0,10.68-9.54,19.35-21.81,21.25-1.39.22-4.14.37-5.6.37h-130.78c-1.46,0-4.19-.16-5.57-.37-12.28-1.89-21.84-10.57-21.84-21.26v-110.63Z"/>
            <path class="cls-45" d="m179.29,107.83c0-10.54,9.33-19.17,21.41-21.11,1.47-.24,3.98-.4,5.53-.4h128.99c1.54,0,4.01.16,5.47.39,12.1,1.92,21.45,10.57,21.45,21.12v12.54c0,1.86,0,33.45,0,35.31v12.72c0,1.86,0,33.5,0,35.36v12.64c0,10.54-9.33,19.18-21.41,21.11-1.47.24-3.97.39-5.52.39h-128.96c-1.54,0-4.03-.16-5.49-.39-12.09-1.93-21.44-10.57-21.44-21.12v-108.57Z"/>
            <path class="cls-46" d="m180.68,108.85c0-10.4,9.13-19,21.01-20.97,1.55-.26,3.81-.42,5.45-.42h127.16c1.62,0,3.86.16,5.39.41,11.91,1.95,21.06,10.56,21.06,20.98v12.3c0,1.24,0,33.4,0,34.64v12.48c0,1.24,0,33.46,0,34.7v12.4c0,10.4-9.13,19-21.01,20.97-1.55.26-3.81.42-5.45.42h-127.14c-1.63,0-3.88-.16-5.42-.41-11.9-1.96-21.04-10.56-21.04-20.97v-106.51Z"/>
            <path class="cls-4" d="m182.06,109.88c0-10.26,8.92-18.82,20.62-20.82,1.63-.28,3.65-.44,5.37-.44h125.34c1.71,0,3.7.16,5.31.43,11.72,1.98,20.66,10.55,20.66,20.83v12.06c0,.62,0,33.35,0,33.97v12.24c0,.62,0,33.41,0,34.03v12.16c0,10.26-8.92,18.82-20.62,20.82-1.63.28-3.64.44-5.37.44h-125.31c-1.72,0-3.72-.16-5.34-.43-11.71-1.99-20.65-10.56-20.65-20.83v-104.45Z"/>
            <path class="cls-14" d="m183.45,110.91c0-11.63,11.49-21.14,25.51-21.14h123.52c14.01,0,25.5,9.51,25.5,21.14l-.02,102.4c0,11.63-11.49,21.14-25.5,21.14h-123.49c-14.02,0-25.51-9.51-25.51-21.14v-102.4Z"/>
          </g>
          <g class="cls-11">
            <path class="cls-48" d="m387.09,217.93V89.31c0-13.03-12.86-23.69-28.57-23.69h-175.62c-15.7,0-28.57,10.66-28.57,23.69v145.61c0,13.03,12.87,23.69,28.57,23.69h175.62c15.71,0,28.57-10.66,28.57-23.69v-16.99Z"/>
            <g class="cls-11">
              <path class="cls-48" d="m387.09,217.93V89.31c0-13.03-12.86-23.69-28.57-23.69h-175.62c-15.7,0-28.57,10.66-28.57,23.69v145.61c0,13.03,12.87,23.69,28.57,23.69h175.62c15.71,0,28.57-10.66,28.57-23.69v-16.99Z"/>
            </g>
          </g>
          <g>
            <path class="cls-54" d="m281,65.62h77.52c15.71,0,28.57,10.66,28.57,23.69v145.61c0,13.03,12.86,23.69,28.57,23.69h20.48c15.71,0,28.57-10.66,28.57-23.69V24.94c0-13.03-12.86-23.69-28.57-23.69H105.37c-15.7,0-28.57,10.66-28.57,23.69v209.98c0,13.03,12.87,23.69,28.57,23.69h20.38c15.71,0,28.57-10.66,28.57-23.69V89.31c0-13.03,12.87-23.69,28.57-23.69h98.1Z"/>
            <path class="cls-31" d="m78.26,25.67c0-9.37,6.82-17.48,16.52-21.09,3.49-1.36,7.87-2.12,11.96-2.12h328.03c4.09,0,8.47.76,11.96,2.12,9.71,3.61,16.52,11.72,16.52,21.09v191.05c0,.46.01.9,0,1.34-.01.37-.26,16.77-.39,16.77-.14,6.33-3.57,11.82-8.68,15.52-4.91,3.95-11.59,5.5-18.92,5.5l-19.5-.85c-14.96,0-27.21-11.85-27.21-24.26v-81c0-13.05-.46-33.9-1.12-46.57-.25-.1-.53-16.21-.82-16.21,0-12.41-13.93-22.56-28.89-22.56h-174.43c-11.19,0-22.16,5.69-26.32,13.75-1.53,2.71-2.44,5.7-2.57,8.84-.24.04-.46,16.17-.65,16.28-.54,11.02-.89,28.15-.89,41.04,0,1.93,0,3.98,0,5.66v16.89c0,12.41,0,34.65,0,47.05v16.88c0,12.41-12.25,24.24-27.21,24.24l-19.41.83c-7.25,0-13.87-1.52-18.76-5.4-5.19-3.71-8.69-9.25-8.83-15.64-.14,0-.38-16.43-.38-16.83V25.67Z"/>
            <path class="cls-6" d="m79.72,26.41c0-9.28,6.85-17.29,16.52-20.72,3.32-1.29,7.98-2.02,11.87-2.02h325.29c3.89,0,8.55.72,11.87,2.01,9.68,3.43,16.52,11.44,16.52,20.73v190.45c0,.45.01.9,0,1.34-.03.74-.51,16.56-.77,16.56-.27,6.01-3.8,10.97-8.65,14.06-4.66,3.75-11.01,4.3-17.97,4.3l-18.53-1.69c-14.22,0-25.85-13.05-25.85-24.83v-80.63c0-13.07-.91-33.46-2.23-45.77-.5-.19-1.05-15.56-1.64-15.56,0-11.79-15-21.43-29.21-21.43h-173.24c-10.63,0-22.4,5.4-26.36,13.06-1.6,2.57-2.6,5.43-2.85,8.43-.47.08-.91,15.49-1.3,15.7-1.07,10.77-1.78,27.57-1.78,40.41,0,1.83,0,4.03,0,5.62v16.78c0,11.79,0,34.95,0,46.73v16.76c0,11.79-11.63,24.79-25.85,24.79l-18.44,1.66c-6.89,0-13.18-.54-17.83-4.22-4.94-3.1-8.52-8.11-8.79-14.17-.27,0-.77-15.87-.77-16.68V26.41Z"/>
            <path class="cls-51" d="m81.18,27.14c0-9.19,6.88-17.11,16.52-20.35,3.14-1.22,8.1-1.91,11.78-1.91h322.55c3.68,0,8.63.68,11.77,1.91,9.65,3.25,16.52,11.16,16.52,20.36v189.86c0,.45,0,.9,0,1.33-.04,1.11-.77,16.34-1.16,16.34-.41,5.69-4.03,10.12-8.62,12.6-4.42,3.55-10.43,3.1-17.03,3.1l-17.55-2.54c-13.47,0-24.49-14.24-24.49-25.41v-80.26c0-13.09-1.37-33.03-3.35-44.97-.75-.29-1.58-14.9-2.45-14.9,0-11.17-16.06-20.3-29.53-20.3h-172.04c-10.07,0-22.65,5.12-26.39,12.38-1.66,2.44-2.75,5.15-3.13,8.03-.71.12-1.37,14.8-1.95,15.11-1.61,10.52-2.67,26.98-2.67,39.77,0,1.74,0,4.07,0,5.58v16.66c0,11.17,0,35.25,0,46.41v16.65c0,11.17-11.02,25.35-24.49,25.35l-17.47,2.49c-6.53,0-12.48.44-16.89-3.04-4.68-2.49-8.35-6.96-8.75-12.71-.41,0-1.15-15.31-1.15-16.52V27.14Z"/>
            <path class="cls-23" d="m82.64,27.88c0-9.1,6.91-16.92,16.52-19.98,2.97-1.16,8.21-1.8,11.69-1.8h319.8c3.48,0,8.72.65,11.68,1.8,9.62,3.06,16.52,10.88,16.52,19.99v189.26c0,.45,0,.9,0,1.33-.06,1.48-1.03,16.12-1.55,16.12-.55,5.38-4.25,9.26-8.59,11.14-4.17,3.36-9.85,1.9-16.08,1.9l-16.58-3.39c-12.72,0-23.13-15.43-23.13-25.98v-79.88c0-13.11-1.83-32.59-4.47-44.16-.99-.39-2.1-14.25-3.27-14.25,0-10.55-17.13-19.18-29.85-19.18h-170.85c-9.51,0-22.89,4.84-26.43,11.69-1.73,2.3-2.91,4.88-3.42,7.62-.94.16-1.82,14.11-2.6,14.53-2.14,10.27-3.56,26.4-3.56,39.14,0,1.64,0,4.11,0,5.54v16.55c0,10.55,0,35.55,0,46.09v16.53c0,10.55-10.41,25.9-23.13,25.9l-16.5,3.32c-6.16,0-11.79,1.43-15.95-1.87-4.42-1.88-8.17-5.81-8.72-11.24-.54,0-1.54-14.75-1.54-16.36V27.88Z"/>
            <path class="cls-7" d="m84.11,28.61c0-9.01,6.94-16.73,16.52-19.61,2.8-1.09,8.32-1.7,11.6-1.7h317.06c3.27,0,8.8.61,11.59,1.69,9.59,2.88,16.52,10.61,16.52,19.62v188.66c0,.45,0,.89,0,1.33-.07,1.85-1.28,15.91-1.93,15.91-.68,5.06-4.48,8.41-8.57,9.68-3.93,3.16-9.27.69-15.14.69l-15.6-4.23c-11.97,0-21.77-16.63-21.77-26.55v-79.51c0-13.14-2.29-32.15-5.58-43.36-1.24-.48-2.63-13.6-4.09-13.6,0-9.93-18.2-18.05-30.17-18.05h-169.66c-8.95,0-23.13,4.55-26.46,11-1.79,2.17-3.07,4.61-3.7,7.21-1.18.2-2.28,13.43-3.26,13.95-2.68,10.02-4.45,25.81-4.45,38.5,0,1.54,0,4.16,0,5.5v16.43c0,9.93,0,35.85,0,45.77v16.42c0,9.93-9.8,26.46-21.77,26.46l-15.53,4.15c-5.8,0-11.1,2.41-15.01-.69-4.16-1.27-8-4.66-8.68-9.77-.68,0-1.92-14.19-1.92-16.21V28.61Z"/>
            <path class="cls-28" d="m85.57,29.35c0-8.92,6.97-16.54,16.52-19.24,2.62-1.02,8.44-1.59,11.51-1.59h314.32c3.07,0,8.88.57,11.5,1.59,9.56,2.7,16.52,10.33,16.52,19.25v188.06c0,.45,0,.89-.01,1.32-.09,2.21-1.54,15.69-2.32,15.69-.82,4.74-4.71,7.56-8.54,8.21-3.68,2.96-8.69-.51-14.19-.51l-14.63-5.08c-11.22,0-20.41-17.82-20.41-27.12v-79.14c0-13.16-2.74-31.71-6.7-42.56-1.49-.58-3.15-12.95-4.91-12.95,0-9.3-19.27-16.92-30.49-16.92h-168.47c-8.39,0-23.37,4.27-26.5,10.31-1.85,2.03-3.22,4.33-3.98,6.8-1.41.24-2.73,12.74-3.91,13.37-3.21,9.77-5.34,25.23-5.34,37.87,0,1.45,0,4.2,0,5.46v16.31c0,9.3,0,36.15,0,45.45v16.31c0,9.3-9.19,27.01-20.41,27.01l-14.56,4.98c-5.44,0-10.4,3.4-14.07.49-3.9-.66-7.83-3.51-8.64-8.31-.81,0-2.31-13.62-2.31-16.05V29.35Z"/>
            <path class="cls-18" d="m87.03,30.09c0-8.83,7-16.35,16.53-18.88,2.45-.95,8.55-1.49,11.41-1.49h311.58c2.87,0,8.96.53,11.41,1.48,9.53,2.52,16.52,10.05,16.52,18.88v187.46c0,.45,0,.89-.01,1.32-.11,2.58-1.8,15.47-2.71,15.47-.96,4.43-4.94,6.71-8.51,6.75-3.43,2.76-8.11-1.71-13.24-1.71l-13.65-5.93c-10.47,0-19.05-19.01-19.05-27.7v-78.77c0-13.18-3.2-31.27-7.81-41.76-1.74-.68-3.68-12.29-5.72-12.29,0-8.68-20.33-15.79-30.81-15.79h-167.27c-7.83,0-23.62,3.98-26.53,9.63-1.92,1.9-3.38,4.06-4.27,6.4-1.65.28-3.19,12.05-4.56,12.79-3.75,9.51-6.23,24.64-6.23,37.23,0,1.35,0,4.25,0,5.42v16.2c0,8.68,0,36.45,0,45.13v16.19c0,8.68-8.57,27.56-19.05,27.56l-13.59,5.81c-5.08,0-9.71,4.38-13.14,1.67-3.64-.05-7.65-2.37-8.6-6.84-.95,0-2.69-13.06-2.69-15.89V30.09Z"/>
            <path class="cls-13" d="m88.49,30.82c0-8.74,7.03-16.16,16.53-18.51,2.27-.88,8.66-1.38,11.32-1.38h308.84c2.66,0,9.05.49,11.32,1.38,9.5,2.34,16.53,9.77,16.53,18.51v186.87c0,.45,0,.89-.02,1.32-.13,2.95-2.05,15.25-3.09,15.25-1.09,4.11-5.17,5.86-8.48,5.29-3.19,2.57-7.53-2.91-12.3-2.91l-12.68-6.77c-9.73,0-17.69-20.2-17.69-28.27v-78.39c0-13.2-3.66-30.84-8.93-40.95-1.99-.77-4.2-11.64-6.54-11.64,0-8.06-21.4-14.66-31.13-14.66h-166.08c-7.28,0-23.86,3.7-26.56,8.94-1.98,1.76-3.54,3.79-4.55,5.99-1.88.32-3.64,11.37-5.21,12.2-4.28,9.26-7.13,24.06-7.13,36.6,0,1.25,0,4.29,0,5.38v16.08c0,8.06,0,36.75,0,44.81v16.08c0,8.06-7.96,28.12-17.69,28.12l-12.62,6.64c-4.71,0-9.02,5.36-12.2,2.84-3.38.56-7.48-1.22-8.57-5.37-1.09,0-3.08-12.5-3.08-15.74V30.82Z"/>
            <path class="cls-9" d="m89.95,31.56c0-8.65,7.06-15.97,16.53-18.14,2.1-.82,8.78-1.27,11.23-1.27h306.1c2.46,0,9.13.46,11.23,1.27,9.47,2.16,16.53,9.49,16.53,18.14v186.27c0,.45,0,.88-.02,1.31-.15,3.32-2.31,15.04-3.48,15.04-1.23,3.8-5.39,5.01-8.46,3.83-2.94,2.37-6.95-4.11-11.35-4.11l-11.7-7.62c-8.98,0-16.32-21.4-16.32-28.84v-78.02c0-13.22-4.12-30.4-10.05-40.15-2.24-.87-4.73-10.99-7.36-10.99,0-7.44-22.47-13.54-31.45-13.54h-164.89c-6.72,0-24.1,3.41-26.6,8.25-2.05,1.63-3.69,3.52-4.83,5.58-2.12.36-4.1,10.68-5.86,11.62-4.82,9.01-8.02,23.48-8.02,35.96,0,1.16,0,4.34,0,5.34v15.97c0,7.44,0,37.05,0,44.49v15.96c0,7.44-7.35,28.67-16.33,28.67l-11.65,7.47c-4.35,0-8.32,6.35-11.26,4.02-3.12,1.17-7.31-.07-8.53-3.9-1.22,0-3.46-11.94-3.46-15.58V31.56Z"/>
            <path class="cls-1" d="m91.41,32.29c0-8.56,7.09-15.78,16.53-17.77,1.92-.75,8.89-1.17,11.14-1.17h303.36c2.25,0,9.21.42,11.13,1.16,9.44,1.98,16.53,9.21,16.53,17.77v185.67c0,.44,0,.88-.02,1.31-.17,3.69-2.57,14.82-3.87,14.82-1.36,3.48-5.62,4.16-8.43,2.37-2.7,2.17-6.37-5.31-10.41-5.31l-10.73-8.47c-8.23,0-14.96-22.59-14.96-29.41v-77.65c0-13.24-4.57-29.96-11.16-39.35-2.48-.97-5.26-10.34-8.18-10.34,0-6.82-23.54-12.41-31.77-12.41h-163.7c-6.16,0-24.34,3.13-26.63,7.56-2.11,1.49-3.85,3.24-5.12,5.18-2.35.4-4.55,9.99-6.51,11.04-5.35,8.76-8.91,22.89-8.91,35.33,0,1.06,0,4.38,0,5.3v15.85c0,6.82,0,37.35,0,44.17v15.85c0,6.82-6.74,29.22-14.97,29.22l-10.68,8.3c-3.99,0-7.63,7.33-10.32,5.2-2.86,1.78-7.13,1.08-8.49-2.44-1.36,0-3.85-11.38-3.85-15.43V32.29Z"/>
            <path class="cls-63" d="m92.87,33.03c0-8.47,7.12-15.59,16.53-17.4,1.75-.68,9-1.06,11.05-1.06h300.62c2.05,0,9.3.38,11.04,1.06,9.41,1.8,16.53,8.93,16.53,17.4v185.07c0,.44,0,.88-.02,1.3-.19,4.06-2.82,14.6-4.25,14.6-1.5,3.16-5.85,3.3-8.4.91-2.45,1.97-5.79-6.52-9.46-6.52l-9.75-9.31c-7.48,0-13.6-23.78-13.6-29.99v-77.27c0-13.27-5.03-29.52-12.28-38.55-2.73-1.06-5.78-9.68-8.99-9.68,0-6.2-24.61-11.28-32.09-11.28h-162.5c-5.6,0-24.59,2.84-26.67,6.88-2.18,1.35-4.01,2.97-5.4,4.77-2.59.44-5.01,9.31-7.16,10.46-5.89,8.51-9.8,22.31-9.8,34.69,0,.96,0,4.42,0,5.26v15.74c0,6.2,0,37.65,0,43.85v15.74c0,6.2-6.13,29.78-13.61,29.78l-9.71,9.13c-3.63,0-6.94,8.31-9.38,6.38-2.6,2.39-6.96,2.23-8.45-.97-1.49,0-4.23-10.82-4.23-15.27V33.03Z"/>
            <path class="cls-25" d="m94.33,33.77c0-8.38,7.15-15.41,16.53-17.03,1.57-.61,9.12-.95,10.96-.95h297.88c1.84,0,9.38.34,10.95.95,9.38,1.62,16.53,8.65,16.53,17.03v184.47c0,.44,0,.88-.02,1.3-.22,4.43-3.08,14.39-4.64,14.39-1.64,2.85-6.08,2.45-8.37-.55-2.21,1.78-5.21-7.72-8.51-7.72l-8.78-10.16c-6.73,0-12.24-24.98-12.24-30.56v-76.9c0-13.29-5.49-29.08-13.4-37.74-2.98-1.16-6.31-9.03-9.81-9.03,0-5.58-25.67-10.15-32.41-10.15h-161.31c-5.04,0-24.83,2.56-26.7,6.19-2.24,1.22-4.16,2.7-5.68,4.36-2.83.48-5.46,8.62-7.81,9.87-6.42,8.26-10.69,21.72-10.69,34.06,0,.87,0,4.47,0,5.22v15.62c0,5.58,0,37.95,0,43.53v15.62c0,5.58-5.51,30.33-12.25,30.33l-8.74,9.96c-3.26,0-6.24,9.3-8.44,7.55-2.34,3-6.79,3.37-8.42.5-1.63,0-4.62-10.26-4.62-15.11V33.77Z"/>
            <path class="cls-33" d="m95.79,34.5c0-8.29,7.18-15.22,16.53-16.66,1.4-.54,9.23-.85,10.87-.85h295.14c1.64,0,9.46.3,10.86.85,9.35,1.44,16.53,8.37,16.53,16.66v183.87c0,.44,0,.87-.02,1.3-.24,4.8-3.34,14.17-5.03,14.17-1.77,2.53-6.3,1.6-8.35-2.01-1.96,1.58-4.63-8.92-7.57-8.92l-7.8-11.01c-5.99,0-10.88-26.17-10.88-31.13v-76.53c0-13.31-5.95-28.65-14.51-36.94-3.23-1.25-6.83-8.38-10.63-8.38,0-4.96-26.74-9.02-32.73-9.02h-160.12c-4.48,0-25.07,2.28-26.74,5.5-2.3,1.08-4.32,2.42-5.97,3.95-3.06.52-5.92,7.94-8.46,9.29-6.96,8.01-11.58,21.14-11.58,33.42,0,.77,0,4.51,0,5.18v15.5c0,4.96,0,38.25,0,43.21v15.51c0,4.96-4.9,30.88-10.89,30.88l-7.77,10.79c-2.9,0-5.55,10.28-7.51,8.73-2.08,3.61-6.61,4.52-8.38,1.97-1.77,0-5-9.7-5-14.96V34.5Z"/>
            <path class="cls-26" d="m97.25,35.24c0-8.2,7.21-15.03,16.53-16.29,1.22-.48,9.34-.74,10.77-.74h292.4c1.43,0,9.55.27,10.77.74,9.32,1.26,16.53,8.09,16.53,16.29v183.28c0,.44,0,.87-.03,1.29-.27,5.16-3.59,13.95-5.42,13.95-1.91,2.21-6.53.75-8.32-3.48-1.72,1.38-4.06-10.12-6.62-10.12l-6.83-11.86c-5.24,0-9.52-27.36-9.52-31.7v-76.16c0-13.33-5.2-29.88-15.63-36.14-3.2-1.92-7.36-7.73-11.45-7.73,0-4.34-27.81-7.9-33.05-7.9h-158.93c-3.92,0-25.31,1.99-26.77,4.81-2.37.95-4.48,2.15-6.25,3.55-3.3.57-6.64,6.84-9.12,8.71-8.61,6.49-12.47,20.55-12.47,32.79,0,.67,0,4.56,0,5.14v15.39c0,4.34,0,38.55,0,42.89v15.39c0,4.34-4.29,31.44-9.53,31.44l-6.8,11.62c-2.54,0-4.86,11.27-6.57,9.91-1.82,4.22-6.44,5.67-8.34,3.43-1.9,0-5.39-9.14-5.39-14.8V35.24Z"/>
            <path class="cls-42" d="m98.71,35.97c0-8.11,7.25-14.84,16.54-15.92,1.05-.41,9.46-.64,10.68-.64h289.66c1.23,0,9.63.23,10.68.64,9.29,1.08,16.53,7.81,16.53,15.92v182.68c0,.44,0,.87-.03,1.29-.3,5.53-3.85,13.74-5.8,13.74-2.05,1.9-6.76-.1-8.29-4.94-1.47,1.18-3.48-11.32-5.68-11.32l-5.85-12.7c-4.49,0-8.16-28.55-8.16-32.28v-75.78c0-13.35-5.89-29.24-16.74-35.34-3.49-1.96-7.88-7.07-12.26-7.07,0-3.72-28.88-6.77-33.37-6.77h-157.73c-3.36,0-25.56,1.71-26.8,4.13-2.43.81-4.63,1.88-6.53,3.14-3.53.61-7.06,6.19-9.77,8.13-8.94,6.39-13.36,19.97-13.36,32.16,0,.58,0,4.6,0,5.1v15.27c0,3.72,0,38.85,0,42.57v15.28c0,3.72-3.68,31.99-8.17,31.99l-5.82,12.45c-2.18,0-4.16,12.25-5.63,11.09-1.56,4.83-6.27,6.82-8.3,4.9-2.04,0-5.77-8.58-5.77-14.64V35.97Z"/>
            <path class="cls-39" d="m100.17,36.71c0-8.02,7.28-14.65,16.54-15.55.87-.34,9.57-.53,10.59-.53h286.92c1.02,0,9.71.19,10.59.53,9.26.9,16.53,7.53,16.53,15.55v182.08c0,.44,0,.87-.03,1.29-.33,5.9-4.11,13.52-6.19,13.52-2.18,1.58-6.99-.95-8.26-6.4-1.23.99-2.9-12.53-4.73-12.53l-4.88-13.55c-3.74,0-6.8-29.75-6.8-32.85v-75.41c0-13.37-6.57-28.58-17.86-34.53-3.77-1.99-8.41-6.42-13.08-6.42,0-3.1-29.95-5.64-33.69-5.64h-156.54c-2.8,0-25.8,1.42-26.84,3.44-2.5.68-4.63,1.96-6.82,2.73-3.6,1.27-7.48,5.55-10.42,7.55-9.29,6.3-14.25,19.39-14.25,31.52,0,.48,0,4.64,0,5.06v15.16c0,3.1,0,39.15,0,42.25v15.17c0,3.1-3.06,32.55-6.81,32.55l-4.85,13.28c-1.81,0-3.47,13.23-4.69,12.27-1.3,5.44-6.09,7.97-8.27,6.37-2.17,0-6.16-8.02-6.16-14.49V36.71Z"/>
            <path class="cls-62" d="m101.64,37.44c0-7.93,7.31-14.46,16.54-15.18.7-.27,9.68-.42,10.5-.42h284.18c.82,0,9.8.15,10.5.42,9.23.72,16.53,7.26,16.53,15.18v181.48c0,.44,0,.86-.03,1.28-.36,6.27-4.36,13.3-6.58,13.3-2.32,1.27-7.22-1.8-8.24-7.86-.98.79-2.32-13.73-3.78-13.73l-3.9-14.4c-2.99,0-5.44-30.94-5.44-33.42v-75.04c0-13.4-7.21-27.91-18.98-33.73-4.06-2.01-8.93-5.77-13.9-5.77,0-2.48-31.01-4.51-34.01-4.51h-155.35c-2.24,0-26.04,1.14-26.87,2.75-2.56.54-4.83,1.62-7.1,2.32-3.88,1.2-7.9,4.92-11.07,6.96-9.65,6.22-15.14,18.8-15.14,30.89,0,.39,0,4.69,0,5.02v15.04c0,2.48,0,39.45,0,41.93v15.05c0,2.48-2.45,33.1-5.45,33.1l-3.88,14.11c-1.45,0-2.78,14.22-3.75,13.44-1.04,6.05-5.92,9.11-8.23,7.84-2.31,0-6.54-7.45-6.54-14.33V37.44Z"/>
            <path class="cls-45" d="m103.1,38.18c0-7.84,7.34-14.27,16.54-14.81.52-.2,9.8-.32,10.41-.32h281.44c.61,0,9.88.11,10.4.32,9.2.54,16.53,6.98,16.53,14.81v180.88c0,.44,0,.86-.03,1.28-.39,6.64-4.62,13.09-6.96,13.09-2.46.95-7.44-2.66-8.21-9.32-.74.59-1.74-14.93-2.84-14.93l-2.93-15.24c-2.24,0-4.08-32.13-4.08-33.99v-74.67c0-13.42-7.84-27.23-20.09-32.93-4.35-2.02-9.46-5.12-14.72-5.12,0-1.86-32.08-3.38-34.33-3.38h-154.16c-1.68,0-26.28.85-26.91,2.06-2.63.41-5.03,1.28-7.38,1.92-4.15,1.13-8.32,4.29-11.72,6.38-10.03,6.16-16.03,18.22-16.03,30.25,0,.29,0,4.73,0,4.98v14.92c0,1.86,0,39.75,0,41.61v14.94c0,1.86-1.84,33.65-4.09,33.65l-2.91,14.94c-1.09,0-2.08,15.2-2.82,14.62-.78,6.66-5.75,10.26-8.19,9.3-2.44,0-6.92-6.89-6.92-14.17V38.18Z"/>
            <path class="cls-46" d="m104.56,38.92c0-7.75,7.37-14.08,16.54-14.44.35-.14,9.91-.21,10.32-.21h278.7c.41,0,9.96.08,10.31.21,9.17.36,16.53,6.7,16.53,14.44v180.29c0,.43-.01.86-.04,1.28-.42,7.01-4.88,12.87-7.35,12.87-2.59.63-7.67-3.51-8.18-10.78-.49.39-1.16-16.13-1.89-16.13l-1.95-16.09c-1.5,0-2.72-33.33-2.72-34.57v-74.29c0-13.44-8.45-26.55-21.21-32.12-4.64-2.03-9.99-4.46-15.53-4.46,0-1.24-33.15-2.26-34.65-2.26h-152.96c-1.12,0-26.53.57-26.94,1.38-2.69.27-5.22.93-7.67,1.51-4.42,1.04-8.73,3.67-12.37,5.8-10.42,6.09-16.92,17.63-16.92,29.62,0,.19,0,4.78,0,4.94v14.81c0,1.24,0,40.05,0,41.29v14.82c0,1.24-1.23,34.21-2.72,34.21l-1.94,15.77c-.73,0-1.39,16.19-1.88,15.8-.52,7.27-5.51,11.09-8.15,10.77s-7.31-6.33-7.31-14.02V38.92Z"/>
            <path class="cls-4" d="m106.02,39.65c0-7.66,7.4-13.89,16.54-14.07.17-.07,10.02-.11,10.23-.11h275.95c.2,0,10.05.04,10.22.11,9.14.18,16.53,6.42,16.53,14.07v179.69c0,.43-.01.86-.04,1.27-.47,7.37-5.13,12.65-7.74,12.65-2.73.32-7.9-4.36-8.15-12.24-.25.2-.58-17.33-.95-17.33l-.98-16.94c-.75,0-1.36-34.52-1.36-35.14v-73.92c0-13.46-9.04-25.85-22.33-31.32-4.93-2.03-10.51-3.81-16.35-3.81,0-.62-34.22-1.13-34.96-1.13h-151.77c-.56,0-26.77.28-26.98.69-2.76.14-5.4.59-7.95,1.1-4.68.95-9.15,3.05-13.02,5.22-10.82,6.04-17.81,17.05-17.81,28.98,0,.1,0,4.82,0,4.9v14.69c0,.62,0,40.35,0,40.97v14.71c0,.62-.62,34.76-1.36,34.76l-.97,16.6c-.36,0-.69,17.17-.94,16.98-.26,7.88-5.38,12.4-8.12,12.24s-7.69-5.77-7.69-13.86V39.65Z"/>
            <path class="cls-14" d="m425.87,233.18c-2.87,0-8.13-5.21-8.13-13.71V73.9c0-18.57-18.22-33.68-40.61-33.68h-212.87c-22.39,0-40.61,15.11-40.61,33.68v145.58c-.01,8.49-5.24,13.71-8.09,13.71s-8.08-5.21-8.08-13.71V40.39c0-7.57,7.43-13.71,16.54-13.71h293.48c9.11,0,16.53,6.14,16.53,13.71v179.09c0,8.49-5.28,13.71-8.16,13.71Z"/>
          </g>
          <path class="cls-37" d="m281,65.62h77.52c15.71,0,28.57,10.66,28.57,23.69v145.61c0,13.03,12.86,23.69,28.57,23.69h20.48c15.71,0,28.57-10.66,28.57-23.69V24.94c0-13.03-12.86-23.69-28.57-23.69H105.37c-15.7,0-28.57,10.66-28.57,23.69v209.98c0,13.03,12.87,23.69,28.57,23.69h20.38c15.71,0,28.57-10.66,28.57-23.69V89.31c0-13.03,12.87-23.69,28.57-23.69h98.1Z"/>
          <path class="cls-37" d="m387.09,217.93V89.31c0-13.03-12.86-23.69-28.57-23.69h-175.62c-15.7,0-28.57,10.66-28.57,23.69v145.61c0,13.03,12.87,23.69,28.57,23.69h175.62c15.71,0,28.57-10.66,28.57-23.69v-16.99Z"/>
        </g>
        <path class="cls-10" d="m436.14,0H105.37c-16.58,0-30.08,11.19-30.08,24.94v209.98c0,13.75,13.5,24.94,30.08,24.94h20.38c13.45,0,24.74-7.42,28.57-17.54,3.83,10.12,15.12,17.54,28.57,17.54h175.62c13.45,0,24.74-7.42,28.57-17.54,3.83,10.12,15.12,17.54,28.57,17.54h20.48c16.58,0,30.08-11.19,30.08-24.94V24.94c0-13.75-13.5-24.94-30.08-24.94Z"/>
      </g>
    </g>
  </g>
</svg>