<?xml version="1.0" encoding="UTF-8"?>
<svg xmlns="http://www.w3.org/2000/svg" xmlns:xlink="http://www.w3.org/1999/xlink" viewBox="0 0 367.98 244.65">
  <defs>
    <style>
      .cls-1 {
        fill: #ddd;
      }

      .cls-2 {
        fill: #e9e9e9;
      }

      .cls-3 {
        fill: #f0f0f0;
      }

      .cls-4 {
        fill: #f4f4f4;
      }

      .cls-5 {
        fill: #fff;
      }

      .cls-6 {
        fill: url(#linear-gradient-5);
      }

      .cls-6, .cls-7, .cls-8, .cls-9 {
        stroke: #9d9d9c;
        stroke-miterlimit: 10;
      }

      .cls-6, .cls-8 {
        stroke-width: .03px;
      }

      .cls-10 {
        fill: #cbcbcb;
      }

      .cls-11 {
        fill: #d1d1d1;
      }

      .cls-12 {
        fill: #fafafa;
      }

      .cls-13 {
        fill: #dbdbdb;
      }

      .cls-14 {
        fill: #ff564a;
      }

      .cls-14, .cls-15, .cls-16 {
        mix-blend-mode: multiply;
      }

      .cls-17 {
        fill: #cacaca;
      }

      .cls-7 {
        fill: url(#linear-gradient);
        stroke-width: .03px;
      }

      .cls-18 {
        fill: #d8d8d8;
      }

      .cls-19 {
        fill: #f6f6f6;
      }

      .cls-15 {
        fill: url(#linear-gradient-4);
      }

      .cls-20 {
        fill: #e2e2e2;
      }

      .cls-21 {
        fill: #f5f5f5;
      }

      .cls-8 {
        fill: url(#linear-gradient-6);
      }

      .cls-22 {
        isolation: isolate;
      }

      .cls-23 {
        fill: #d6d6d6;
      }

      .cls-24 {
        fill: #c9c9c9;
      }

      .cls-25 {
        fill: #e0e0e0;
      }

      .cls-26 {
        fill: #c7c7c7;
      }

      .cls-27 {
        fill: #dedede;
      }

      .cls-28 {
        fill: #cfcfcf;
      }

      .cls-29 {
        fill: #d7d7d7;
      }

      .cls-30 {
        fill: #e1e1e1;
      }

      .cls-31 {
        fill: #e6e6e6;
      }

      .cls-32 {
        fill: #e7e7e7;
      }

      .cls-33 {
        fill: #d4d4d4;
      }

      .cls-9 {
        fill: url(#linear-gradient-3);
        stroke-width: .03px;
      }

      .cls-34 {
        fill: #dadada;
      }

      .cls-35 {
        fill: #eaeaea;
      }

      .cls-36 {
        fill: url(#linear-gradient-2);
        stroke-width: .03px;
      }

      .cls-36, .cls-37 {
        stroke: #949494;
        stroke-linecap: round;
        stroke-linejoin: round;
      }

      .cls-38 {
        fill: #c8c8c8;
      }

      .cls-39 {
        fill: #fdfdfd;
      }

      .cls-40 {
        fill: #e4e4e4;
      }

      .cls-41 {
        fill: #fbfbfb;
      }

      .cls-42 {
        fill: #f9f9f9;
      }

      .cls-43 {
        fill: #e5e5e5;
      }

      .cls-44 {
        fill: #d3d3d3;
      }

      .cls-45 {
        fill: #ebebeb;
      }

      .cls-46 {
        fill: #d5d5d5;
      }

      .cls-37 {
        fill: none;
        stroke-width: .03px;
      }

      .cls-47 {
        fill: #dcdcdc;
      }

      .cls-48 {
        fill: #e8e8e8;
      }

      .cls-49 {
        fill: #ccc;
      }

      .cls-50 {
        fill: #f7f7f7;
      }

      .cls-51 {
        fill: #efefef;
      }

      .cls-52 {
        fill: #f1f1f1;
      }

      .cls-53 {
        fill: #cecece;
      }

      .cls-54 {
        fill: #f3f3f3;
      }

      .cls-55 {
        fill: #d9d9d9;
      }

      .cls-56 {
        fill: #cdcdcd;
      }

      .cls-57 {
        fill: #f8f8f8;
      }

      .cls-58 {
        fill: #d2d2d2;
      }

      .cls-59 {
        fill: #c6c6c6;
      }

      .cls-60 {
        fill: #eee;
      }

      .cls-61 {
        fill: #d0d0d0;
      }

      .cls-62 {
        fill: #ececec;
      }

      .cls-63 {
        fill: #f2f2f2;
      }

      .cls-64 {
        fill: #fefefe;
      }

      .cls-65 {
        fill: #e3e3e3;
      }

      .cls-66 {
        fill: #fcfcfc;
      }

      .cls-67 {
        fill: #ededed;
      }

      .cls-68 {
        fill: #dfdfdf;
      }
    </style>
    <linearGradient id="linear-gradient" x1="1971.72" y1="935.78" x2="2203.42" y2="935.78" gradientTransform="translate(2301 1006.51) rotate(-180)" gradientUnits="userSpaceOnUse">
      <stop offset="0" stop-color="#fff"/>
      <stop offset="1" stop-color="#ccc"/>
    </linearGradient>
    <linearGradient id="linear-gradient-2" x1="102.58" y1="89.88" x2="324.27" y2="89.88" gradientUnits="userSpaceOnUse">
      <stop offset="0" stop-color="#c2c2c1"/>
      <stop offset="1" stop-color="#878787"/>
    </linearGradient>
    <linearGradient id="linear-gradient-3" x1="1970.72" y1="875.26" x2="2197.85" y2="875.26" gradientTransform="translate(2301 1031.33) rotate(-180)" gradientUnits="userSpaceOnUse">
      <stop offset="0" stop-color="#e6e6e6"/>
      <stop offset="1" stop-color="#c9c9c9"/>
    </linearGradient>
    <linearGradient id="linear-gradient-4" x1="100.95" y1="154.82" x2="328.09" y2="154.82" gradientTransform="translate(2.2 1.26)" gradientUnits="userSpaceOnUse">
      <stop offset="0" stop-color="#fff"/>
      <stop offset=".35" stop-color="#f2f2f2"/>
      <stop offset=".98" stop-color="#d2d2d2"/>
      <stop offset="1" stop-color="#d1d1d1"/>
    </linearGradient>
    <linearGradient id="linear-gradient-5" x1="2187.77" y1="887.35" x2="2240.44" y2="887.35" gradientTransform="translate(2301 1024.52) rotate(-180)" gradientUnits="userSpaceOnUse">
      <stop offset="0" stop-color="#fff"/>
      <stop offset="1" stop-color="#d6d6d6"/>
    </linearGradient>
    <linearGradient id="linear-gradient-6" x1="1934.71" x2="1987.38" xlink:href="#linear-gradient-5"/>
  </defs>
  <g class="cls-22">
    <g id="Layer_1" data-name="Layer 1">
      <g>
        <g class="cls-16">
          <path class="cls-5" d="m281.1,92.06c-3.07,0-6.07.32-8.97.96v-36.75c0-22.15-29.91-40.15-66.69-40.15h-101.73c-36.77,0-66.69,18.01-66.69,40.15v36.75c-2.91-.64-5.92-.96-8.97-.96-15.46,0-28.05,7.99-28.05,17.81v86.82c0,9.83,12.58,17.82,28.05,17.82,5.68,0,11.26-1.14,15.99-3.26,6.35,19.46,33.32,33.41,65.16,33.41h97.3c30.14,0,56.91-13.13,64.44-31.4,3.32.83,6.72,1.26,10.15,1.26,15.45,0,28.02-7.99,28.02-17.82v-86.82c0-9.82-12.57-17.81-28.02-17.81Z"/>
          <path class="cls-64" d="m282.11,91.79c-3.07,0-6.07.32-8.97.96v-36.75c0-22.15-29.91-40.15-66.69-40.15h-101.73c-36.77,0-66.69,18.01-66.69,40.15v36.75c-2.91-.64-5.92-.96-8.97-.96-15.46,0-28.05,7.99-28.05,17.81v86.82c0,9.83,12.58,17.82,28.05,17.82,5.68,0,11.26-1.14,15.99-3.26,6.35,19.46,33.32,33.41,65.16,33.41h97.3c30.14,0,56.91-13.13,64.44-31.4,3.32.83,6.72,1.26,10.15,1.26,15.45,0,28.02-7.99,28.02-17.82v-86.82c0-9.82-12.57-17.81-28.02-17.81Z"/>
          <path class="cls-39" d="m283.13,91.51c-3.07,0-6.07.32-8.97.96v-36.75c0-22.15-29.91-40.15-66.69-40.15h-101.73c-36.77,0-66.69,18.01-66.69,40.15v36.75c-2.91-.64-5.92-.96-8.97-.96-15.46,0-28.05,7.99-28.05,17.81v86.82c0,9.83,12.58,17.82,28.05,17.82,5.68,0,11.26-1.14,15.99-3.26,6.35,19.46,33.32,33.41,65.16,33.41h97.3c30.14,0,56.91-13.13,64.44-31.4,3.32.83,6.72,1.26,10.15,1.26,15.45,0,28.03-7.99,28.03-17.82v-86.82c0-9.82-12.57-17.81-28.03-17.81Z"/>
          <path class="cls-66" d="m284.14,91.23c-3.07,0-6.07.32-8.97.96v-36.75c0-22.15-29.91-40.15-66.69-40.15h-101.73c-36.77,0-66.69,18.01-66.69,40.15v36.75c-2.91-.64-5.92-.96-8.97-.96-15.46,0-28.05,7.99-28.05,17.81v86.82c0,9.83,12.58,17.82,28.05,17.82,5.68,0,11.26-1.14,15.99-3.27,6.35,19.46,33.32,33.41,65.16,33.41h97.3c30.14,0,56.91-13.13,64.44-31.4,3.32.83,6.72,1.26,10.15,1.26,15.45,0,28.03-7.99,28.03-17.82v-86.82c0-9.82-12.57-17.81-28.03-17.81Z"/>
          <path class="cls-41" d="m285.16,90.95c-3.07,0-6.07.32-8.97.96v-36.75c0-22.15-29.91-40.15-66.68-40.15h-101.73c-36.77,0-66.69,18.01-66.69,40.15v36.75c-2.91-.64-5.92-.96-8.97-.96-15.46,0-28.05,7.99-28.05,17.81v86.82c0,9.83,12.58,17.82,28.05,17.82,5.68,0,11.26-1.14,15.99-3.27,6.35,19.46,33.32,33.41,65.16,33.41h97.3c30.14,0,56.91-13.13,64.44-31.4,3.32.83,6.72,1.26,10.15,1.26,15.45,0,28.03-7.99,28.03-17.82v-86.82c0-9.82-12.57-17.81-28.03-17.81Z"/>
          <path class="cls-12" d="m286.17,90.67c-3.07,0-6.07.32-8.97.96v-36.75c0-22.15-29.91-40.15-66.68-40.15h-101.73c-36.77,0-66.69,18.01-66.69,40.15v36.75c-2.91-.64-5.92-.96-8.97-.96-15.46,0-28.05,7.99-28.05,17.81v86.82c0,9.83,12.58,17.82,28.05,17.82,5.68,0,11.26-1.14,15.99-3.27,6.35,19.46,33.32,33.41,65.16,33.41h97.3c30.14,0,56.91-13.13,64.44-31.4,3.32.83,6.72,1.26,10.15,1.26,15.46,0,28.03-7.99,28.03-17.82v-86.82c0-9.82-12.57-17.81-28.03-17.81Z"/>
          <path class="cls-42" d="m287.19,90.4c-3.07,0-6.07.32-8.97.96v-36.75c0-22.15-29.91-40.15-66.68-40.15h-101.73c-36.77,0-66.69,18.01-66.69,40.15v36.75c-2.91-.64-5.92-.96-8.97-.96-15.46,0-28.05,7.99-28.05,17.81v86.82c0,9.83,12.58,17.82,28.05,17.82,5.68,0,11.26-1.14,15.99-3.27,6.35,19.46,33.32,33.41,65.16,33.41h97.3c30.14,0,56.91-13.13,64.44-31.4,3.32.83,6.72,1.26,10.15,1.26,15.46,0,28.03-7.99,28.03-17.82v-86.82c0-9.82-12.57-17.81-28.03-17.81Z"/>
          <path class="cls-57" d="m288.2,90.12c-3.07,0-6.07.32-8.97.96v-36.75c0-22.15-29.91-40.15-66.68-40.15h-101.73c-36.77,0-66.69,18.01-66.69,40.15v36.75c-2.91-.64-5.92-.96-8.97-.96-15.46,0-28.05,7.99-28.05,17.81v86.82c0,9.83,12.58,17.82,28.05,17.82,5.68,0,11.26-1.14,15.99-3.27,6.35,19.46,33.32,33.41,65.16,33.41h97.3c30.14,0,56.91-13.13,64.44-31.4,3.32.83,6.72,1.26,10.15,1.26,15.46,0,28.03-7.99,28.03-17.82v-86.82c0-9.82-12.57-17.81-28.03-17.81Z"/>
          <path class="cls-50" d="m289.22,89.84c-3.07,0-6.07.32-8.97.96v-36.75c0-22.15-29.91-40.15-66.68-40.15h-101.73c-36.78,0-66.69,18.01-66.69,40.15v36.75c-2.91-.64-5.92-.96-8.97-.96-15.46,0-28.05,7.99-28.05,17.81v86.82c0,9.83,12.58,17.82,28.05,17.82,5.68,0,11.26-1.14,15.99-3.27,6.35,19.46,33.32,33.41,65.16,33.41h97.3c30.14,0,56.91-13.13,64.44-31.4,3.32.83,6.72,1.26,10.15,1.26,15.46,0,28.03-7.99,28.03-17.82v-86.82c0-9.82-12.57-17.81-28.03-17.81Z"/>
          <path class="cls-19" d="m290.23,89.56c-3.07,0-6.07.32-8.97.96v-36.75c0-22.15-29.91-40.15-66.68-40.15h-101.73c-36.78,0-66.69,18.01-66.69,40.15v36.75c-2.91-.64-5.92-.96-8.97-.96-15.46,0-28.05,7.99-28.05,17.81v86.82c0,9.83,12.58,17.82,28.05,17.82,5.68,0,11.26-1.14,15.99-3.27,6.35,19.46,33.32,33.41,65.16,33.41h97.31c30.14,0,56.91-13.13,64.44-31.4,3.32.83,6.72,1.26,10.15,1.26,15.46,0,28.03-7.99,28.03-17.82v-86.82c0-9.82-12.57-17.81-28.03-17.81Z"/>
          <path class="cls-21" d="m291.25,89.29c-3.07,0-6.07.32-8.97.96v-36.75c0-22.15-29.91-40.15-66.68-40.15h-101.73c-36.78,0-66.69,18.01-66.69,40.15v36.75c-2.91-.64-5.92-.96-8.97-.96-15.46,0-28.05,7.99-28.05,17.81v86.82c0,9.83,12.58,17.82,28.05,17.82,5.68,0,11.26-1.14,15.99-3.27,6.35,19.46,33.32,33.41,65.16,33.41h97.31c30.14,0,56.91-13.13,64.44-31.4,3.32.83,6.72,1.26,10.15,1.26,15.46,0,28.03-7.99,28.03-17.82v-86.82c0-9.82-12.57-17.81-28.03-17.81Z"/>
          <path class="cls-4" d="m292.26,89.01c-3.07,0-6.07.32-8.97.96v-36.75c0-22.15-29.91-40.15-66.68-40.15h-101.73c-36.78,0-66.69,18.01-66.69,40.15v36.75c-2.91-.64-5.92-.96-8.97-.96-15.46,0-28.05,7.99-28.05,17.81v86.82c0,9.83,12.58,17.82,28.05,17.82,5.68,0,11.26-1.14,15.99-3.27,6.35,19.46,33.32,33.41,65.16,33.41h97.31c30.14,0,56.91-13.13,64.44-31.4,3.32.83,6.72,1.26,10.15,1.26,15.46,0,28.03-7.99,28.03-17.82v-86.82c0-9.82-12.57-17.81-28.03-17.81Z"/>
          <path class="cls-54" d="m293.28,88.73c-3.06,0-6.07.32-8.97.96v-36.75c0-22.15-29.91-40.15-66.68-40.15h-101.73c-36.78,0-66.69,18.01-66.69,40.15v36.75c-2.91-.64-5.92-.96-8.97-.96-15.46,0-28.05,7.99-28.05,17.81v86.82c0,9.83,12.58,17.82,28.05,17.82,5.68,0,11.26-1.14,15.99-3.27,6.35,19.46,33.32,33.41,65.16,33.41h97.31c30.14,0,56.91-13.13,64.44-31.4,3.32.83,6.72,1.26,10.15,1.26,15.46,0,28.03-7.99,28.03-17.82v-86.82c0-9.82-12.57-17.81-28.03-17.81Z"/>
          <path class="cls-63" d="m294.29,88.45c-3.06,0-6.07.32-8.97.96v-36.75c0-22.15-29.91-40.15-66.68-40.15h-101.73c-36.78,0-66.69,18.01-66.69,40.15v36.75c-2.91-.64-5.92-.96-8.97-.96-15.46,0-28.05,7.99-28.05,17.81v86.82c0,9.83,12.58,17.82,28.05,17.82,5.68,0,11.26-1.14,15.99-3.27,6.35,19.46,33.32,33.41,65.16,33.41h97.31c30.14,0,56.91-13.13,64.44-31.4,3.32.83,6.72,1.26,10.15,1.26,15.46,0,28.03-7.99,28.03-17.82v-86.82c0-9.82-12.57-17.81-28.03-17.81Z"/>
          <path class="cls-52" d="m295.3,88.17c-3.06,0-6.07.32-8.97.96v-36.75c0-22.15-29.91-40.15-66.68-40.15h-101.73c-36.78,0-66.69,18.01-66.69,40.15v36.75c-2.91-.64-5.92-.96-8.97-.96-15.46,0-28.05,7.99-28.05,17.81v86.82c0,9.83,12.58,17.82,28.05,17.82,5.68,0,11.26-1.14,15.99-3.27,6.35,19.46,33.32,33.41,65.16,33.41h97.31c30.14,0,56.91-13.13,64.44-31.4,3.32.83,6.72,1.26,10.15,1.26,15.46,0,28.03-7.99,28.03-17.82v-86.82c0-9.82-12.57-17.81-28.03-17.81Z"/>
          <path class="cls-3" d="m296.32,87.9c-3.06,0-6.07.32-8.97.96v-36.75c0-22.15-29.91-40.15-66.68-40.15h-101.73c-36.78,0-66.69,18.01-66.69,40.15v36.75c-2.91-.64-5.92-.96-8.97-.96-15.46,0-28.05,7.99-28.05,17.81v86.82c0,9.83,12.58,17.82,28.05,17.82,5.68,0,11.26-1.14,15.99-3.27,6.35,19.46,33.32,33.41,65.16,33.41h97.31c30.14,0,56.91-13.13,64.44-31.4,3.32.83,6.72,1.26,10.15,1.26,15.46,0,28.03-7.99,28.03-17.82v-86.82c0-9.82-12.57-17.81-28.03-17.81Z"/>
          <path class="cls-51" d="m297.33,87.62c-3.06,0-6.07.32-8.97.96v-36.75c0-22.15-29.91-40.15-66.68-40.15h-101.73c-36.78,0-66.69,18.01-66.69,40.15v36.75c-2.91-.64-5.92-.96-8.97-.96-15.46,0-28.05,7.99-28.05,17.81v86.82c0,9.83,12.58,17.82,28.05,17.82,5.68,0,11.26-1.14,15.99-3.27,6.35,19.46,33.32,33.41,65.16,33.41h97.31c30.14,0,56.91-13.13,64.44-31.4,3.32.83,6.72,1.26,10.15,1.26,15.46,0,28.03-7.99,28.03-17.82v-86.82c0-9.82-12.57-17.81-28.03-17.81Z"/>
          <path class="cls-60" d="m298.35,87.34c-3.06,0-6.07.32-8.97.96v-36.75c0-22.15-29.91-40.15-66.68-40.15h-101.73c-36.78,0-66.69,18.01-66.69,40.15v36.75c-2.91-.64-5.92-.96-8.97-.96-15.46,0-28.05,7.99-28.05,17.81v86.82c0,9.83,12.58,17.82,28.05,17.82,5.68,0,11.26-1.14,15.99-3.27,6.35,19.46,33.32,33.41,65.16,33.41h97.31c30.14,0,56.91-13.13,64.44-31.4,3.32.83,6.72,1.26,10.15,1.26,15.46,0,28.03-7.99,28.03-17.82v-86.82c0-9.82-12.57-17.81-28.03-17.81Z"/>
          <path class="cls-67" d="m299.36,87.06c-3.06,0-6.07.32-8.97.95v-36.75c0-22.15-29.91-40.15-66.68-40.15h-101.73c-36.78,0-66.69,18.01-66.69,40.15v36.75c-2.91-.64-5.92-.95-8.97-.95-15.46,0-28.05,7.99-28.05,17.81v86.82c0,9.83,12.58,17.82,28.05,17.82,5.68,0,11.26-1.14,15.99-3.27,6.35,19.46,33.32,33.41,65.16,33.41h97.31c30.14,0,56.91-13.13,64.44-31.4,3.32.83,6.72,1.26,10.15,1.26,15.46,0,28.03-7.99,28.03-17.82v-86.82c0-9.82-12.57-17.81-28.03-17.81Z"/>
          <path class="cls-62" d="m300.38,86.79c-3.06,0-6.07.32-8.97.95v-36.75c0-22.14-29.91-40.15-66.68-40.15h-101.73c-36.78,0-66.69,18.01-66.69,40.15v36.75c-2.91-.64-5.92-.95-8.97-.95-15.46,0-28.05,7.99-28.05,17.81v86.82c0,9.83,12.58,17.82,28.05,17.82,5.68,0,11.26-1.14,15.99-3.27,6.35,19.46,33.32,33.41,65.16,33.41h97.31c30.14,0,56.91-13.13,64.44-31.4,3.32.83,6.72,1.26,10.15,1.26,15.46,0,28.03-7.99,28.03-17.82v-86.82c0-9.82-12.57-17.81-28.03-17.81Z"/>
          <path class="cls-45" d="m301.39,86.51c-3.06,0-6.07.32-8.97.95v-36.75c0-22.14-29.91-40.15-66.68-40.15h-101.73c-36.78,0-66.69,18.01-66.69,40.15v36.75c-2.91-.64-5.92-.95-8.97-.95-15.46,0-28.05,7.99-28.05,17.81v86.82c0,9.83,12.58,17.82,28.05,17.82,5.68,0,11.26-1.14,15.99-3.27,6.35,19.46,33.32,33.41,65.16,33.41h97.31c30.14,0,56.91-13.13,64.44-31.4,3.32.83,6.72,1.26,10.15,1.26,15.46,0,28.03-7.99,28.03-17.82v-86.82c0-9.82-12.57-17.81-28.03-17.81Z"/>
          <path class="cls-35" d="m302.41,86.23c-3.06,0-6.07.32-8.97.95v-36.75c0-22.14-29.91-40.15-66.68-40.15h-101.73c-36.78,0-66.69,18.01-66.69,40.15v36.75c-2.91-.64-5.92-.95-8.97-.95-15.46,0-28.05,7.99-28.05,17.81v86.82c0,9.83,12.58,17.82,28.05,17.82,5.68,0,11.26-1.14,15.99-3.27,6.35,19.46,33.32,33.41,65.16,33.41h97.31c30.14,0,56.91-13.13,64.44-31.4,3.32.83,6.72,1.26,10.15,1.26,15.46,0,28.03-7.99,28.03-17.82v-86.82c0-9.82-12.57-17.81-28.03-17.81Z"/>
          <path class="cls-2" d="m303.42,85.95c-3.06,0-6.07.32-8.97.95v-36.75c0-22.14-29.91-40.15-66.68-40.15h-101.73c-36.78,0-66.69,18.01-66.69,40.15v36.75c-2.91-.64-5.92-.95-8.97-.95-15.46,0-28.05,7.99-28.05,17.81v86.82c0,9.83,12.58,17.82,28.05,17.82,5.68,0,11.26-1.14,15.99-3.27,6.35,19.46,33.32,33.41,65.16,33.41h97.31c30.14,0,56.91-13.13,64.44-31.4,3.32.83,6.72,1.26,10.15,1.26,15.46,0,28.03-7.99,28.03-17.82v-86.82c0-9.82-12.57-17.81-28.03-17.81Z"/>
          <path class="cls-48" d="m304.44,85.67c-3.06,0-6.07.32-8.97.95v-36.75c0-22.14-29.91-40.15-66.68-40.15h-101.73c-36.78,0-66.69,18.01-66.69,40.15v36.75c-2.91-.64-5.92-.95-8.97-.95-15.46,0-28.05,7.99-28.05,17.81v86.82c0,9.83,12.58,17.82,28.05,17.82,5.68,0,11.26-1.14,15.99-3.27,6.35,19.46,33.32,33.41,65.16,33.41h97.31c30.14,0,56.91-13.13,64.44-31.4,3.32.83,6.72,1.26,10.15,1.26,15.46,0,28.03-7.99,28.03-17.82v-86.82c0-9.82-12.57-17.81-28.03-17.81Z"/>
          <path class="cls-32" d="m305.45,85.4c-3.06,0-6.06.32-8.97.95v-36.75c0-22.14-29.91-40.15-66.68-40.15h-101.73c-36.78,0-66.69,18.01-66.69,40.15v36.75c-2.91-.64-5.92-.95-8.97-.95-15.46,0-28.05,7.99-28.05,17.81v86.82c0,9.83,12.58,17.82,28.05,17.82,5.68,0,11.26-1.14,15.99-3.27,6.35,19.46,33.32,33.41,65.16,33.41h97.31c30.14,0,56.91-13.13,64.44-31.4,3.32.83,6.72,1.26,10.15,1.26,15.46,0,28.03-7.99,28.03-17.82v-86.82c0-9.82-12.57-17.81-28.03-17.81Z"/>
          <path class="cls-31" d="m306.47,85.12c-3.06,0-6.06.32-8.97.95v-36.75c0-22.14-29.91-40.15-66.68-40.15h-101.73c-36.78,0-66.69,18.01-66.69,40.15v36.75c-2.91-.64-5.92-.95-8.97-.95-15.46,0-28.05,7.99-28.05,17.81v86.82c0,9.83,12.58,17.82,28.05,17.82,5.68,0,11.26-1.14,15.99-3.27,6.35,19.46,33.32,33.41,65.16,33.41h97.31c30.14,0,56.91-13.13,64.44-31.4,3.32.83,6.72,1.26,10.15,1.26,15.46,0,28.03-7.99,28.03-17.82v-86.82c0-9.82-12.57-17.81-28.03-17.81Z"/>
          <path class="cls-43" d="m307.48,84.84c-3.06,0-6.06.32-8.97.95v-36.75c0-22.14-29.91-40.15-66.68-40.15h-101.73c-36.78,0-66.69,18.01-66.69,40.15v36.75c-2.91-.63-5.92-.95-8.97-.95-15.46,0-28.05,7.99-28.05,17.81v86.82c0,9.83,12.58,17.82,28.05,17.82,5.68,0,11.26-1.14,15.99-3.27,6.35,19.46,33.32,33.41,65.16,33.41h97.31c30.14,0,56.91-13.13,64.44-31.4,3.32.83,6.72,1.26,10.15,1.26,15.46,0,28.03-7.99,28.03-17.82v-86.82c0-9.82-12.57-17.81-28.03-17.81Z"/>
          <path class="cls-40" d="m308.49,84.56c-3.06,0-6.06.32-8.97.95v-36.75c0-22.14-29.91-40.15-66.68-40.15h-101.73c-36.78,0-66.69,18.01-66.69,40.15v36.75c-2.91-.63-5.92-.95-8.97-.95-15.46,0-28.05,7.99-28.05,17.81v86.82c0,9.82,12.58,17.82,28.05,17.82,5.68,0,11.26-1.14,15.99-3.27,6.35,19.46,33.32,33.41,65.16,33.41h97.31c30.14,0,56.91-13.13,64.44-31.4,3.32.83,6.72,1.26,10.15,1.26,15.46,0,28.03-7.99,28.03-17.82v-86.82c0-9.82-12.57-17.81-28.03-17.81Z"/>
          <path class="cls-65" d="m309.51,84.28c-3.06,0-6.06.32-8.97.95v-36.75c0-22.14-29.91-40.15-66.68-40.15h-101.73c-36.78,0-66.69,18.01-66.69,40.15v36.75c-2.91-.63-5.92-.95-8.97-.95-15.46,0-28.05,7.99-28.05,17.81v86.82c0,9.82,12.58,17.82,28.05,17.82,5.68,0,11.26-1.14,15.99-3.27,6.35,19.46,33.32,33.41,65.16,33.41h97.31c30.14,0,56.91-13.13,64.44-31.4,3.32.83,6.72,1.26,10.15,1.26,15.46,0,28.03-7.99,28.03-17.82v-86.82c0-9.82-12.57-17.81-28.03-17.81Z"/>
          <path class="cls-20" d="m310.52,84.01c-3.06,0-6.06.32-8.97.95v-36.75c0-22.14-29.91-40.15-66.68-40.15h-101.73c-36.78,0-66.69,18.01-66.69,40.15v36.75c-2.91-.63-5.92-.95-8.97-.95-15.46,0-28.05,7.99-28.05,17.81v86.82c0,9.82,12.58,17.82,28.05,17.82,5.68,0,11.26-1.14,15.99-3.27,6.35,19.46,33.32,33.41,65.16,33.41h97.31c30.14,0,56.91-13.13,64.44-31.4,3.32.83,6.72,1.26,10.15,1.26,15.46,0,28.03-7.99,28.03-17.82v-86.82c0-9.82-12.57-17.81-28.03-17.81Z"/>
          <path class="cls-20" d="m311.54,83.73c-3.06,0-6.06.32-8.97.95v-36.75c0-22.14-29.91-40.15-66.68-40.15h-101.73c-36.78,0-66.69,18.01-66.69,40.15v36.75c-2.91-.63-5.92-.95-8.97-.95-15.46,0-28.05,7.99-28.05,17.81v86.82c0,9.82,12.58,17.82,28.05,17.82,5.68,0,11.26-1.14,15.99-3.27,6.35,19.46,33.32,33.41,65.16,33.41h97.31c30.14,0,56.91-13.13,64.44-31.4,3.32.83,6.72,1.26,10.15,1.26,15.46,0,28.03-7.99,28.03-17.82v-86.82c0-9.82-12.57-17.81-28.03-17.81Z"/>
          <path class="cls-30" d="m312.55,83.45c-3.06,0-6.06.32-8.97.95v-36.75c0-22.14-29.91-40.15-66.68-40.15h-101.73c-36.78,0-66.69,18.01-66.69,40.15v36.75c-2.91-.63-5.92-.95-8.97-.95-15.46,0-28.05,7.99-28.05,17.81v86.82c0,9.82,12.58,17.82,28.05,17.82,5.68,0,11.26-1.14,15.99-3.27,6.35,19.46,33.32,33.41,65.16,33.41h97.31c30.14,0,56.91-13.13,64.44-31.4,3.32.83,6.72,1.26,10.15,1.26,15.46,0,28.03-7.99,28.03-17.82v-86.82c0-9.82-12.57-17.81-28.03-17.81Z"/>
          <path class="cls-25" d="m313.57,83.17c-3.06,0-6.06.32-8.97.95v-36.75c0-22.14-29.91-40.15-66.68-40.15h-101.73c-36.78,0-66.69,18.01-66.69,40.15v36.75c-2.91-.63-5.92-.95-8.97-.95-15.46,0-28.05,7.99-28.05,17.81v86.82c0,9.82,12.58,17.82,28.05,17.82,5.68,0,11.26-1.14,15.99-3.27,6.35,19.46,33.32,33.41,65.16,33.41h97.31c30.14,0,56.91-13.13,64.44-31.4,3.32.83,6.72,1.26,10.15,1.26,15.46,0,28.03-7.99,28.03-17.82v-86.82c0-9.82-12.57-17.81-28.03-17.81Z"/>
          <path class="cls-68" d="m314.58,82.9c-3.06,0-6.06.32-8.97.95v-36.75c0-22.14-29.91-40.15-66.68-40.15h-101.73c-36.78,0-66.69,18.01-66.69,40.15v36.75c-2.91-.63-5.92-.95-8.97-.95-15.46,0-28.05,7.99-28.05,17.81v86.82c0,9.82,12.58,17.82,28.05,17.82,5.68,0,11.26-1.14,15.99-3.27,6.35,19.46,33.32,33.41,65.16,33.41h97.31c30.14,0,56.91-13.13,64.44-31.4,3.32.83,6.72,1.26,10.15,1.26,15.46,0,28.03-7.99,28.03-17.82v-86.82c0-9.82-12.57-17.81-28.03-17.81Z"/>
          <path class="cls-27" d="m315.6,82.62c-3.06,0-6.06.32-8.97.95v-36.75c0-22.14-29.91-40.15-66.68-40.15h-101.73c-36.78,0-66.69,18.01-66.69,40.15v36.75c-2.91-.63-5.92-.95-8.97-.95-15.46,0-28.05,7.99-28.05,17.81v86.82c0,9.82,12.58,17.82,28.05,17.82,5.68,0,11.26-1.14,15.99-3.27,6.35,19.46,33.32,33.41,65.16,33.41h97.31c30.14,0,56.91-13.13,64.44-31.4,3.32.83,6.72,1.26,10.15,1.26,15.46,0,28.03-7.99,28.03-17.82v-86.82c0-9.82-12.57-17.81-28.03-17.81Z"/>
          <path class="cls-1" d="m316.61,82.34c-3.06,0-6.06.32-8.97.95v-36.75c0-22.14-29.91-40.15-66.68-40.15h-101.73c-36.78,0-66.69,18.01-66.69,40.15v36.75c-2.91-.63-5.92-.95-8.97-.95-15.46,0-28.05,7.99-28.05,17.81v86.82c0,9.82,12.58,17.82,28.05,17.82,5.68,0,11.26-1.14,15.99-3.27,6.35,19.46,33.32,33.41,65.16,33.41h97.31c30.14,0,56.91-13.13,64.44-31.4,3.32.83,6.72,1.26,10.15,1.26,15.46,0,28.03-7.99,28.03-17.82v-86.82c0-9.82-12.57-17.81-28.03-17.81Z"/>
          <path class="cls-47" d="m317.63,82.06c-3.06,0-6.06.32-8.97.95v-36.75c0-22.14-29.91-40.15-66.68-40.15h-101.73c-36.78,0-66.69,18.01-66.69,40.15v36.75c-2.91-.63-5.92-.95-8.97-.95-15.46,0-28.05,7.99-28.05,17.81v86.82c0,9.82,12.58,17.82,28.05,17.82,5.68,0,11.26-1.14,15.99-3.27,6.35,19.46,33.32,33.41,65.16,33.41h97.31c30.14,0,56.91-13.13,64.44-31.4,3.32.83,6.72,1.26,10.14,1.26,15.46,0,28.03-7.99,28.03-17.82v-86.82c0-9.82-12.57-17.81-28.03-17.81Z"/>
          <path class="cls-13" d="m318.64,81.78c-3.06,0-6.06.32-8.97.95v-36.75c0-22.14-29.91-40.15-66.68-40.15h-101.73c-36.78,0-66.69,18.01-66.69,40.15v36.75c-2.91-.63-5.92-.95-8.97-.95-15.46,0-28.05,7.99-28.05,17.81v86.82c0,9.82,12.58,17.82,28.05,17.82,5.68,0,11.26-1.14,15.99-3.27,6.35,19.46,33.32,33.41,65.16,33.41h97.31c30.14,0,56.91-13.13,64.44-31.4,3.32.83,6.72,1.26,10.14,1.26,15.46,0,28.03-7.99,28.03-17.82v-86.82c0-9.82-12.57-17.81-28.03-17.81Z"/>
          <path class="cls-34" d="m319.65,81.51c-3.06,0-6.06.32-8.97.95v-36.75c0-22.14-29.91-40.15-66.68-40.15h-101.73c-36.78,0-66.69,18.01-66.69,40.15v36.75c-2.91-.63-5.92-.95-8.97-.95-15.46,0-28.05,7.99-28.05,17.81v86.82c0,9.82,12.58,17.82,28.05,17.82,5.68,0,11.26-1.14,15.99-3.27,6.35,19.46,33.32,33.41,65.16,33.41h97.31c30.14,0,56.91-13.13,64.44-31.4,3.32.83,6.72,1.26,10.14,1.26,15.46,0,28.03-7.99,28.03-17.82v-86.82c0-9.82-12.57-17.81-28.03-17.81Z"/>
          <path class="cls-55" d="m320.67,81.23c-3.06,0-6.06.32-8.97.95v-36.75c0-22.14-29.91-40.15-66.68-40.15h-101.73c-36.78,0-66.69,18.01-66.69,40.15v36.75c-2.91-.63-5.92-.95-8.97-.95-15.46,0-28.05,7.99-28.05,17.81v86.82c0,9.82,12.58,17.82,28.05,17.82,5.68,0,11.26-1.14,15.99-3.27,6.35,19.46,33.32,33.41,65.16,33.41h97.31c30.14,0,56.91-13.13,64.44-31.4,3.32.83,6.72,1.26,10.14,1.26,15.46,0,28.03-7.99,28.03-17.82v-86.82c0-9.82-12.57-17.81-28.03-17.81Z"/>
          <path class="cls-18" d="m321.68,80.95c-3.06,0-6.06.32-8.97.95v-36.75c0-22.14-29.91-40.15-66.68-40.15h-101.73c-36.78,0-66.69,18.01-66.69,40.15v36.75c-2.91-.63-5.92-.95-8.97-.95-15.46,0-28.05,7.99-28.05,17.81v86.82c0,9.82,12.58,17.82,28.05,17.82,5.68,0,11.26-1.14,15.99-3.27,6.35,19.46,33.32,33.41,65.16,33.41h97.31c30.14,0,56.91-13.13,64.44-31.4,3.32.83,6.72,1.26,10.14,1.26,15.46,0,28.03-7.99,28.03-17.82v-86.82c0-9.82-12.57-17.81-28.03-17.81Z"/>
          <path class="cls-29" d="m322.7,80.67c-3.06,0-6.06.32-8.97.95v-36.75c0-22.14-29.91-40.15-66.68-40.15h-101.73c-36.78,0-66.69,18.01-66.69,40.15v36.75c-2.91-.63-5.92-.95-8.97-.95-15.46,0-28.05,7.99-28.05,17.81v86.82c0,9.82,12.58,17.82,28.05,17.82,5.68,0,11.26-1.15,15.99-3.27,6.35,19.46,33.32,33.41,65.16,33.41h97.31c30.14,0,56.91-13.13,64.44-31.4,3.32.83,6.72,1.26,10.14,1.26,15.46,0,28.03-7.99,28.03-17.82v-86.82c0-9.82-12.57-17.81-28.03-17.81Z"/>
          <path class="cls-23" d="m323.71,80.4c-3.06,0-6.06.32-8.97.95v-36.75c0-22.14-29.91-40.15-66.68-40.15h-101.73c-36.78,0-66.69,18.01-66.69,40.15v36.75c-2.91-.63-5.92-.95-8.97-.95-15.46,0-28.05,7.99-28.05,17.81v86.82c0,9.82,12.58,17.82,28.05,17.82,5.68,0,11.26-1.15,15.99-3.27,6.35,19.46,33.32,33.41,65.16,33.41h97.31c30.14,0,56.91-13.13,64.44-31.4,3.32.83,6.72,1.26,10.14,1.26,15.46,0,28.03-7.99,28.03-17.82v-86.82c0-9.82-12.57-17.81-28.03-17.81Z"/>
          <path class="cls-46" d="m324.73,80.12c-3.06,0-6.06.32-8.97.95v-36.75c0-22.14-29.91-40.15-66.68-40.15h-101.73c-36.78,0-66.69,18.01-66.69,40.15v36.75c-2.91-.63-5.92-.95-8.97-.95-15.46,0-28.05,7.99-28.05,17.81v86.82c0,9.82,12.58,17.82,28.05,17.82,5.68,0,11.26-1.15,15.99-3.27,6.35,19.46,33.32,33.41,65.16,33.41h97.31c30.14,0,56.91-13.13,64.44-31.4,3.32.83,6.72,1.26,10.14,1.26,15.46,0,28.03-7.99,28.03-17.82v-86.82c0-9.82-12.57-17.81-28.03-17.81Z"/>
          <path class="cls-33" d="m325.74,79.84c-3.06,0-6.06.32-8.97.95v-36.75c0-22.14-29.91-40.15-66.68-40.15h-101.73c-36.78,0-66.69,18.01-66.69,40.15v36.75c-2.91-.63-5.92-.95-8.97-.95-15.46,0-28.05,7.99-28.05,17.81v86.82c0,9.82,12.58,17.82,28.05,17.82,5.68,0,11.26-1.15,15.99-3.27,6.35,19.46,33.32,33.41,65.16,33.41h97.31c30.14,0,56.91-13.13,64.44-31.4,3.32.83,6.72,1.26,10.14,1.26,15.46,0,28.03-7.99,28.03-17.82v-86.82c0-9.82-12.57-17.81-28.03-17.81Z"/>
          <path class="cls-44" d="m326.76,79.56c-3.06,0-6.06.32-8.97.95v-36.75c0-22.14-29.91-40.15-66.68-40.15h-101.73c-36.78,0-66.69,18.01-66.69,40.15v36.75c-2.91-.63-5.92-.95-8.97-.95-15.46,0-28.05,7.99-28.05,17.81v86.82c0,9.82,12.58,17.82,28.05,17.82,5.68,0,11.26-1.15,15.99-3.27,6.35,19.46,33.32,33.41,65.16,33.41h97.31c30.14,0,56.91-13.13,64.44-31.4,3.32.83,6.72,1.26,10.14,1.26,15.46,0,28.03-7.99,28.03-17.82v-86.82c0-9.82-12.57-17.81-28.03-17.81Z"/>
          <path class="cls-58" d="m327.77,79.28c-3.06,0-6.06.32-8.97.95v-36.75c0-22.14-29.91-40.15-66.68-40.15h-101.73c-36.78,0-66.69,18.01-66.69,40.15v36.75c-2.91-.63-5.92-.95-8.97-.95-15.46,0-28.05,7.99-28.05,17.81v86.82c0,9.82,12.58,17.82,28.05,17.82,5.68,0,11.26-1.15,15.99-3.27,6.35,19.46,33.32,33.41,65.16,33.41h97.31c30.14,0,56.91-13.13,64.44-31.4,3.32.83,6.72,1.26,10.14,1.26,15.46,0,28.03-7.99,28.03-17.82v-86.82c0-9.82-12.57-17.81-28.03-17.81Z"/>
          <path class="cls-11" d="m328.79,79.01c-3.06,0-6.06.32-8.97.95v-36.75c0-22.14-29.91-40.15-66.68-40.15h-101.73c-36.78,0-66.69,18.01-66.69,40.15v36.75c-2.91-.63-5.92-.95-8.97-.95-15.46,0-28.05,7.99-28.05,17.81v86.82c0,9.82,12.58,17.82,28.05,17.82,5.68,0,11.26-1.15,15.99-3.27,6.35,19.46,33.32,33.41,65.16,33.41h97.31c30.14,0,56.91-13.13,64.44-31.4,3.32.83,6.72,1.26,10.14,1.26,15.46,0,28.03-7.99,28.03-17.82v-86.82c0-9.82-12.57-17.81-28.03-17.81Z"/>
          <path class="cls-61" d="m329.8,78.73c-3.06,0-6.06.32-8.97.95v-36.75c0-22.14-29.91-40.15-66.68-40.15h-101.73c-36.78,0-66.69,18.01-66.69,40.15v36.75c-2.91-.63-5.92-.95-8.97-.95-15.46,0-28.05,7.99-28.05,17.81v86.82c0,9.82,12.58,17.82,28.05,17.82,5.68,0,11.26-1.15,15.99-3.27,6.35,19.46,33.32,33.41,65.16,33.41h97.31c30.14,0,56.91-13.13,64.44-31.4,3.32.83,6.72,1.26,10.14,1.26,15.46,0,28.03-7.99,28.03-17.82v-86.82c0-9.82-12.57-17.81-28.03-17.81Z"/>
          <path class="cls-28" d="m330.82,78.45c-3.06,0-6.06.32-8.97.95v-36.75c0-22.14-29.91-40.15-66.68-40.15h-101.73c-36.78,0-66.69,18.01-66.69,40.15v36.75c-2.91-.63-5.92-.95-8.97-.95-15.46,0-28.05,7.99-28.05,17.81v86.82c0,9.82,12.58,17.82,28.05,17.82,5.68,0,11.26-1.15,15.99-3.27,6.35,19.47,33.32,33.41,65.16,33.41h97.31c30.14,0,56.91-13.13,64.44-31.4,3.32.83,6.72,1.26,10.14,1.26,15.46,0,28.03-7.99,28.03-17.82v-86.82c0-9.82-12.57-17.81-28.03-17.81Z"/>
          <path class="cls-53" d="m331.83,78.17c-3.06,0-6.06.32-8.97.95v-36.75c0-22.14-29.91-40.15-66.68-40.15h-101.73c-36.78,0-66.69,18.01-66.69,40.15v36.75c-2.91-.63-5.92-.95-8.97-.95-15.46,0-28.05,7.99-28.05,17.81v86.82c0,9.82,12.58,17.82,28.05,17.82,5.68,0,11.26-1.15,15.99-3.27,6.35,19.47,33.32,33.41,65.15,33.41h97.31c30.14,0,56.91-13.13,64.44-31.4,3.32.83,6.72,1.26,10.14,1.26,15.46,0,28.03-7.99,28.03-17.82v-86.82c0-9.82-12.57-17.81-28.03-17.81Z"/>
          <path class="cls-56" d="m332.84,77.9c-3.06,0-6.06.32-8.97.95v-36.75c0-22.14-29.91-40.15-66.68-40.15h-101.73c-36.78,0-66.69,18.01-66.69,40.15v36.75c-2.91-.63-5.92-.95-8.97-.95-15.46,0-28.05,7.99-28.05,17.81v86.82c0,9.82,12.58,17.82,28.05,17.82,5.68,0,11.26-1.15,15.99-3.27,6.35,19.47,33.32,33.41,65.15,33.41h97.31c30.14,0,56.91-13.13,64.44-31.4,3.32.83,6.72,1.26,10.14,1.26,15.46,0,28.03-7.99,28.03-17.82v-86.82c0-9.82-12.57-17.81-28.03-17.81Z"/>
          <path class="cls-49" d="m333.86,77.62c-3.06,0-6.06.32-8.97.95v-36.75c0-22.14-29.9-40.15-66.68-40.15h-101.73c-36.78,0-66.69,18.01-66.69,40.15v36.75c-2.91-.63-5.92-.95-8.97-.95-15.46,0-28.05,7.99-28.05,17.81v86.82c0,9.82,12.58,17.82,28.05,17.82,5.68,0,11.26-1.15,15.99-3.27,6.35,19.47,33.32,33.41,65.15,33.41h97.31c30.14,0,56.91-13.13,64.44-31.4,3.32.83,6.72,1.26,10.14,1.26,15.46,0,28.03-7.99,28.03-17.82v-86.82c0-9.82-12.57-17.81-28.03-17.81Z"/>
          <path class="cls-10" d="m334.87,77.34c-3.06,0-6.06.32-8.97.95v-36.75c0-22.14-29.9-40.15-66.68-40.15h-101.73c-36.78,0-66.69,18.01-66.69,40.15v36.75c-2.91-.63-5.92-.95-8.97-.95-15.46,0-28.05,7.99-28.05,17.81v86.82c0,9.82,12.58,17.82,28.05,17.82,5.68,0,11.26-1.15,15.99-3.27,6.35,19.47,33.32,33.41,65.15,33.41h97.31c30.14,0,56.91-13.13,64.44-31.4,3.32.83,6.72,1.26,10.14,1.26,15.46,0,28.03-7.99,28.03-17.82v-86.82c0-9.82-12.57-17.81-28.03-17.81Z"/>
          <path class="cls-17" d="m335.89,77.06c-3.06,0-6.06.32-8.97.95v-36.75c0-22.14-29.9-40.15-66.68-40.15h-101.73c-36.78,0-66.69,18.01-66.69,40.15v36.75c-2.92-.63-5.92-.95-8.97-.95-15.46,0-28.05,7.99-28.05,17.81v86.82c0,9.82,12.58,17.82,28.05,17.82,5.68,0,11.26-1.15,15.99-3.27,6.35,19.47,33.32,33.41,65.15,33.41h97.31c30.14,0,56.91-13.13,64.44-31.4,3.32.83,6.72,1.26,10.14,1.26,15.46,0,28.03-8,28.03-17.82v-86.82c0-9.82-12.57-17.81-28.03-17.81Z"/>
          <path class="cls-24" d="m336.9,76.78c-3.06,0-6.06.32-8.97.95v-36.75c0-22.14-29.9-40.15-66.68-40.15h-101.73c-36.78,0-66.69,18.01-66.69,40.15v36.75c-2.92-.63-5.92-.95-8.97-.95-15.46,0-28.05,7.99-28.05,17.81v86.82c0,9.82,12.58,17.82,28.05,17.82,5.68,0,11.26-1.15,15.99-3.27,6.35,19.47,33.32,33.41,65.15,33.41h97.31c30.14,0,56.91-13.13,64.44-31.4,3.32.83,6.72,1.26,10.14,1.26,15.46,0,28.03-8,28.03-17.82v-86.82c0-9.82-12.57-17.81-28.03-17.81Z"/>
          <path class="cls-38" d="m337.92,76.51c-3.06,0-6.06.32-8.97.95v-36.75c0-22.14-29.9-40.15-66.68-40.15h-101.73c-36.78,0-66.69,18.01-66.69,40.15v36.75c-2.92-.63-5.92-.95-8.97-.95-15.46,0-28.05,7.99-28.05,17.81v86.82c0,9.82,12.58,17.82,28.05,17.82,5.68,0,11.26-1.15,15.99-3.27,6.35,19.47,33.32,33.41,65.15,33.41h97.31c30.14,0,56.91-13.13,64.44-31.4,3.32.83,6.72,1.26,10.14,1.26,15.46,0,28.04-8,28.04-17.82v-86.82c0-9.82-12.57-17.81-28.04-17.81Z"/>
          <path class="cls-26" d="m338.93,76.23c-3.06,0-6.06.32-8.97.95v-36.75c0-22.14-29.9-40.15-66.67-40.15h-101.73c-36.78,0-66.69,18.01-66.69,40.15v36.75c-2.92-.63-5.92-.95-8.97-.95-15.46,0-28.05,7.99-28.05,17.81v86.82c0,9.82,12.58,17.82,28.05,17.82,5.68,0,11.26-1.15,15.99-3.27,6.35,19.47,33.32,33.41,65.15,33.41h97.31c30.14,0,56.91-13.13,64.44-31.4,3.32.83,6.72,1.26,10.14,1.26,15.46,0,28.04-8,28.04-17.82v-86.82c0-9.82-12.57-17.81-28.04-17.81Z"/>
          <path class="cls-59" d="m339.95,75.95c-3.06,0-6.06.32-8.97.95v-36.75c0-22.14-29.9-40.15-66.67-40.15h-101.73c-36.78,0-66.69,18.01-66.69,40.15v36.75c-2.92-.63-5.92-.95-8.97-.95-15.46,0-28.05,7.99-28.05,17.81v86.82c0,9.82,12.58,17.82,28.05,17.82,5.68,0,11.26-1.15,15.99-3.27,6.35,19.47,33.32,33.41,65.15,33.41h97.31c30.14,0,56.91-13.13,64.44-31.4,3.32.83,6.72,1.26,10.14,1.26,15.46,0,28.04-8,28.04-17.82v-86.82c0-9.82-12.57-17.81-28.04-17.81Z"/>
        </g>
        <g>
          <path class="cls-7" d="m162.55,140.4h101.73c35.9,0,64.99-17.5,64.99-39.09v-61.16c0-21.59-29.09-39.09-64.99-39.09h-101.73c-35.91,0-64.98,17.5-64.98,39.09v61.16c0,21.59,29.07,39.09,64.98,39.09Z"/>
          <path class="cls-36" d="m164.77,159.56c-34.34,0-62.18-17.52-62.18-39.09v-61.17c0-21.58,27.84-39.09,62.18-39.09h97.31c34.34,0,62.18,17.5,62.18,39.09v61.17c0,21.57-27.84,39.09-62.18,39.09h-97.31Z"/>
          <path class="cls-9" d="m168.05,227.46h97.31c35.8,0,64.92-18.32,64.92-40.81v-61.15c0-22.5-29.12-40.81-64.92-40.81h-97.31c-35.79,0-64.91,18.31-64.91,40.81v61.15c0,22.49,29.12,40.81,64.91,40.81Z"/>
          <g>
            <path class="cls-59" d="m168.05,227.46h97.31c35.8,0,64.92-18.32,64.92-40.81v-61.15c0-22.5-29.12-40.81-64.92-40.81h-97.31c-35.79,0-64.91,18.31-64.91,40.81v61.15c0,22.49,29.12,40.81,64.91,40.81Z"/>
            <path class="cls-26" d="m168.25,227.01h96.69c35.57,0,64.5-18.2,64.5-40.55v-60.76c0-22.36-28.93-40.55-64.5-40.55h-96.69c-35.56,0-64.49,18.19-64.49,40.55v60.76c0,22.35,28.93,40.55,64.49,40.55Z"/>
            <path class="cls-38" d="m168.46,226.55h96.07c35.34,0,64.09-18.09,64.09-40.29v-60.37c0-22.21-28.75-40.29-64.09-40.29h-96.07c-35.33,0-64.08,18.07-64.08,40.29v60.37c0,22.21,28.74,40.29,64.08,40.29Z"/>
            <path class="cls-24" d="m168.66,226.1h95.45c35.12,0,63.67-17.97,63.67-40.03v-59.98c0-22.07-28.56-40.02-63.67-40.02h-95.45c-35.11,0-63.66,17.96-63.66,40.02v59.98c0,22.06,28.56,40.03,63.66,40.03Z"/>
            <path class="cls-17" d="m168.86,225.64h94.83c34.89,0,63.26-17.85,63.26-39.77v-59.59c0-21.93-28.37-39.76-63.26-39.76h-94.83c-34.88,0-63.25,17.84-63.25,39.76v59.59c0,21.92,28.37,39.77,63.25,39.77Z"/>
            <path class="cls-10" d="m169.06,225.19h94.21c34.66,0,62.85-17.73,62.85-39.51v-59.2c0-21.78-28.19-39.5-62.85-39.5h-94.21c-34.65,0-62.84,17.72-62.84,39.5v59.2c0,21.78,28.19,39.51,62.84,39.51Z"/>
            <path class="cls-49" d="m169.27,224.73h93.59c34.43,0,62.43-17.62,62.43-39.25v-58.81c0-21.64-28-39.24-62.43-39.24h-93.59c-34.42,0-62.42,17.6-62.42,39.24v58.81c0,21.63,28,39.25,62.42,39.25Z"/>
            <path class="cls-56" d="m169.47,224.28h92.97c34.2,0,62.02-17.5,62.02-38.99v-58.42c0-21.5-27.82-38.98-62.02-38.98h-92.97c-34.19,0-62.01,17.49-62.01,38.98v58.42c0,21.49,27.81,38.99,62.01,38.99Z"/>
            <path class="cls-53" d="m169.67,223.82h92.35c33.97,0,61.6-17.38,61.6-38.73v-58.03c0-21.35-27.63-38.72-61.6-38.72h-92.35c-33.96,0-61.59,17.37-61.59,38.72v58.03c0,21.35,27.63,38.73,61.59,38.73Z"/>
            <path class="cls-28" d="m169.87,223.37h91.73c33.75,0,61.19-17.27,61.19-38.47v-57.64c0-21.21-27.44-38.46-61.19-38.46h-91.73c-33.74,0-61.18,17.25-61.18,38.46v57.64c0,21.2,27.44,38.47,61.18,38.47Z"/>
            <path class="cls-61" d="m170.08,222.91h91.11c33.52,0,60.78-17.15,60.78-38.21v-57.25c0-21.07-27.26-38.2-60.78-38.2h-91.11c-33.51,0-60.77,17.14-60.77,38.2v57.25c0,21.06,27.26,38.21,60.77,38.21Z"/>
            <path class="cls-11" d="m170.28,222.46h90.49c33.29,0,60.36-17.03,60.36-37.95v-56.86c0-20.92-27.07-37.94-60.36-37.94h-90.49c-33.28,0-60.35,17.02-60.35,37.94v56.86c0,20.92,27.07,37.95,60.35,37.95Z"/>
            <path class="cls-58" d="m170.48,222h89.87c33.06,0,59.95-16.92,59.95-37.69v-56.48c0-20.78-26.89-37.68-59.95-37.68h-89.87c-33.05,0-59.94,16.9-59.94,37.68v56.48c0,20.77,26.89,37.69,59.94,37.69Z"/>
            <path class="cls-44" d="m170.68,221.55h89.25c32.83,0,59.53-16.8,59.53-37.43v-56.09c0-20.63-26.7-37.42-59.53-37.42h-89.25c-32.82,0-59.52,16.79-59.52,37.42v56.09c0,20.63,26.7,37.43,59.52,37.43Z"/>
            <path class="cls-33" d="m170.89,221.09h88.63c32.6,0,59.12-16.68,59.12-37.17v-55.7c0-20.49-26.51-37.16-59.12-37.16h-88.63c-32.6,0-59.11,16.67-59.11,37.16v55.7c0,20.49,26.51,37.17,59.11,37.17Z"/>
            <path class="cls-46" d="m171.09,220.64h88.01c32.38,0,58.71-16.57,58.71-36.91v-55.31c0-20.35-26.33-36.9-58.71-36.9h-88.01c-32.37,0-58.7,16.55-58.7,36.9v55.31c0,20.34,26.33,36.91,58.7,36.91Z"/>
            <path class="cls-23" d="m171.29,220.18h87.39c32.15,0,58.29-16.45,58.29-36.65v-54.92c0-20.2-26.14-36.64-58.29-36.64h-87.39c-32.14,0-58.28,16.44-58.28,36.64v54.92c0,20.2,26.14,36.65,58.28,36.65Z"/>
            <path class="cls-29" d="m171.49,219.73h86.77c31.92,0,57.88-16.33,57.88-36.39v-54.53c0-20.06-25.96-36.38-57.88-36.38h-86.77c-31.91,0-57.87,16.32-57.87,36.38v54.53c0,20.06,25.96,36.39,57.87,36.39Z"/>
            <path class="cls-18" d="m171.7,219.27h86.15c31.69,0,57.46-16.21,57.46-36.13v-54.14c0-19.92-25.77-36.12-57.46-36.12h-86.15c-31.68,0-57.45,16.2-57.45,36.12v54.14c0,19.91,25.77,36.13,57.45,36.13Z"/>
            <path class="cls-55" d="m171.9,218.82h85.53c31.46,0,57.05-16.1,57.05-35.87v-53.75c0-19.77-25.59-35.86-57.05-35.86h-85.53c-31.46,0-57.04,16.09-57.04,35.86v53.75c0,19.77,25.58,35.87,57.04,35.87Z"/>
            <path class="cls-34" d="m172.1,218.36h84.91c31.23,0,56.63-15.98,56.63-35.61v-53.36c0-19.63-25.4-35.6-56.63-35.6h-84.91c-31.23,0-56.63,15.97-56.63,35.6v53.36c0,19.63,25.4,35.61,56.63,35.61Z"/>
            <path class="cls-13" d="m172.31,217.91h84.29c31.01,0,56.22-15.86,56.22-35.35v-52.97c0-19.49-25.21-35.34-56.22-35.34h-84.29c-31,0-56.21,15.85-56.21,35.34v52.97c0,19.48,25.21,35.35,56.21,35.35Z"/>
            <path class="cls-47" d="m172.51,217.45h83.67c30.78,0,55.81-15.75,55.81-35.09v-52.58c0-19.34-25.03-35.08-55.81-35.08h-83.67c-30.77,0-55.8,15.74-55.8,35.08v52.58c0,19.34,25.03,35.09,55.8,35.09Z"/>
            <path class="cls-1" d="m172.71,216.99h83.04c30.55,0,55.39-15.63,55.39-34.83v-52.19c0-19.2-24.84-34.82-55.39-34.82h-83.04c-30.54,0-55.38,15.62-55.38,34.82v52.19c0,19.2,24.84,34.83,55.38,34.83Z"/>
            <path class="cls-27" d="m172.91,216.54h82.42c30.32,0,54.98-15.51,54.98-34.57v-51.8c0-19.06-24.66-34.56-54.98-34.56h-82.42c-30.32,0-54.97,15.5-54.97,34.56v51.8c0,19.05,24.66,34.57,54.97,34.57Z"/>
            <path class="cls-68" d="m173.12,216.08h81.8c30.09,0,54.56-15.4,54.56-34.31v-51.41c0-18.91-24.47-34.3-54.56-34.3h-81.8c-30.09,0-54.56,15.39-54.56,34.3v51.41c0,18.91,24.47,34.31,54.56,34.31Z"/>
            <path class="cls-25" d="m173.32,215.63h81.18c29.87,0,54.15-15.28,54.15-34.05v-51.02c0-18.77-24.28-34.04-54.15-34.04h-81.18c-29.86,0-54.14,15.27-54.14,34.04v51.02c0,18.77,24.28,34.05,54.14,34.05Z"/>
            <path class="cls-30" d="m173.52,215.17h80.56c29.64,0,53.74-15.16,53.74-33.79v-50.63c0-18.63-24.1-33.78-53.74-33.78h-80.56c-29.63,0-53.73,15.15-53.73,33.78v50.63c0,18.62,24.1,33.79,53.73,33.79Z"/>
            <path class="cls-20" d="m173.72,214.72h79.94c29.41,0,53.32-15.05,53.32-33.53v-50.24c0-18.48-23.91-33.52-53.32-33.52h-79.94c-29.4,0-53.32,15.04-53.32,33.52v50.24c0,18.48,23.91,33.53,53.32,33.53Z"/>
            <path class="cls-65" d="m173.93,214.26h79.32c29.18,0,52.91-14.93,52.91-33.26v-49.85c0-18.34-23.73-33.26-52.91-33.26h-79.32c-29.17,0-52.9,14.92-52.9,33.26v49.85c0,18.34,23.73,33.26,52.9,33.26Z"/>
            <path class="cls-65" d="m174.13,213.81h78.7c28.95,0,52.49-14.81,52.49-33v-49.46c0-18.2-23.54-33-52.49-33h-78.7c-28.95,0-52.49,14.8-52.49,33v49.46c0,18.19,23.54,33,52.49,33Z"/>
            <path class="cls-40" d="m174.33,213.35h78.08c28.72,0,52.08-14.69,52.08-32.74v-49.07c0-18.05-23.36-32.74-52.08-32.74h-78.08c-28.72,0-52.07,14.69-52.07,32.74v49.07c0,18.05,23.35,32.74,52.07,32.74Z"/>
            <path class="cls-43" d="m174.53,212.9h77.46c28.5,0,51.67-14.58,51.67-32.48v-48.68c0-17.91-23.17-32.48-51.67-32.48h-77.46c-28.49,0-51.66,14.57-51.66,32.48v48.68c0,17.91,23.17,32.48,51.66,32.48Z"/>
            <path class="cls-31" d="m174.74,212.44h76.84c28.27,0,51.25-14.46,51.25-32.22v-48.29c0-17.77-22.98-32.22-51.25-32.22h-76.84c-28.26,0-51.25,14.45-51.25,32.22v48.29c0,17.76,22.98,32.22,51.25,32.22Z"/>
            <path class="cls-32" d="m174.94,211.99h76.22c28.04,0,50.84-14.34,50.84-31.96v-47.9c0-17.62-22.8-31.96-50.84-31.96h-76.22c-28.03,0-50.83,14.33-50.83,31.96v47.9c0,17.62,22.8,31.96,50.83,31.96Z"/>
            <path class="cls-48" d="m175.14,211.53h75.6c27.81,0,50.42-14.23,50.42-31.7v-47.51c0-17.48-22.61-31.7-50.42-31.7h-75.6c-27.81,0-50.42,14.22-50.42,31.7v47.51c0,17.48,22.61,31.7,50.42,31.7Z"/>
            <path class="cls-2" d="m175.34,211.08h74.98c27.58,0,50.01-14.11,50.01-31.44v-47.12c0-17.34-22.43-31.44-50.01-31.44h-74.98c-27.58,0-50,14.1-50,31.44v47.12c0,17.33,22.43,31.44,50,31.44Z"/>
            <path class="cls-35" d="m175.55,210.62h74.36c27.35,0,49.59-13.99,49.59-31.18v-46.73c0-17.19-22.24-31.18-49.59-31.18h-74.36c-27.35,0-49.59,13.98-49.59,31.18v46.73c0,17.19,22.24,31.18,49.59,31.18Z"/>
            <path class="cls-45" d="m175.75,210.17h73.74c27.13,0,49.18-13.88,49.18-30.92v-46.34c0-17.05-22.05-30.92-49.18-30.92h-73.74c-27.12,0-49.18,13.87-49.18,30.92v46.34c0,17.05,22.05,30.92,49.18,30.92Z"/>
            <path class="cls-62" d="m175.95,209.71h73.12c26.9,0,48.77-13.76,48.77-30.66v-45.95c0-16.9-21.87-30.66-48.77-30.66h-73.12c-26.89,0-48.76,13.75-48.76,30.66v45.95c0,16.9,21.87,30.66,48.76,30.66Z"/>
            <path class="cls-67" d="m176.15,209.26h72.5c26.67,0,48.35-13.64,48.35-30.4v-45.56c0-16.76-21.68-30.4-48.35-30.4h-72.5c-26.67,0-48.35,13.63-48.35,30.4v45.56c0,16.76,21.68,30.4,48.35,30.4Z"/>
            <path class="cls-60" d="m176.36,208.8h71.88c26.44,0,47.94-13.53,47.94-30.14v-45.17c0-16.62-21.5-30.13-47.94-30.13h-71.88c-26.44,0-47.93,13.52-47.93,30.13v45.17c0,16.62,21.5,30.14,47.93,30.14Z"/>
            <path class="cls-51" d="m176.56,208.35h71.26c26.21,0,47.52-13.41,47.52-29.88v-44.78c0-16.47-21.31-29.87-47.52-29.87h-71.26c-26.21,0-47.52,13.4-47.52,29.87v44.78c0,16.47,21.31,29.88,47.52,29.88Z"/>
            <path class="cls-3" d="m176.76,207.89h70.64c25.98,0,47.11-13.29,47.11-29.62v-44.39c0-16.33-21.13-29.61-47.11-29.61h-70.64c-25.98,0-47.11,13.28-47.11,29.61v44.39c0,16.33,21.12,29.62,47.11,29.62Z"/>
            <path class="cls-52" d="m176.96,207.44h70.02c25.76,0,46.7-13.18,46.7-29.36v-44c0-16.19-20.94-29.35-46.7-29.35h-70.02c-25.75,0-46.69,13.17-46.69,29.35v44c0,16.19,20.94,29.36,46.69,29.36Z"/>
            <path class="cls-63" d="m177.17,206.98h69.4c25.53,0,46.28-13.06,46.28-29.1v-43.61c0-16.04-20.75-29.09-46.28-29.09h-69.4c-25.53,0-46.28,13.05-46.28,29.09v43.61c0,16.04,20.75,29.1,46.28,29.1Z"/>
            <path class="cls-54" d="m177.37,206.52h68.78c25.3,0,45.87-12.94,45.87-28.84v-43.22c0-15.9-20.57-28.83-45.87-28.83h-68.78c-25.3,0-45.86,12.93-45.86,28.83v43.22c0,15.9,20.57,28.84,45.86,28.84Z"/>
            <path class="cls-4" d="m177.57,206.07h68.15c25.07,0,45.45-12.82,45.45-28.58v-42.83c0-15.76-20.38-28.57-45.45-28.57h-68.15c-25.07,0-45.45,12.82-45.45,28.57v42.83c0,15.76,20.38,28.58,45.45,28.58Z"/>
            <path class="cls-21" d="m177.78,205.61h67.53c24.84,0,45.04-12.71,45.04-28.32v-42.44c0-15.61-20.2-28.31-45.04-28.31h-67.53c-24.84,0-45.04,12.7-45.04,28.31v42.44c0,15.61,20.2,28.32,45.04,28.32Z"/>
            <path class="cls-19" d="m177.98,205.16h66.91c24.61,0,44.62-12.59,44.62-28.06v-42.05c0-15.47-20.01-28.05-44.62-28.05h-66.91c-24.61,0-44.62,12.58-44.62,28.05v42.05c0,15.47,20.01,28.06,44.62,28.06Z"/>
            <path class="cls-50" d="m178.18,204.7h66.29c24.39,0,44.21-12.47,44.21-27.8v-41.66c0-15.33-19.82-27.79-44.21-27.79h-66.29c-24.38,0-44.21,12.47-44.21,27.79v41.66c0,15.33,19.82,27.8,44.21,27.8Z"/>
            <path class="cls-57" d="m178.38,204.25h65.67c24.16,0,43.8-12.36,43.8-27.54v-41.27c0-15.18-19.64-27.53-43.8-27.53h-65.67c-24.16,0-43.8,12.35-43.8,27.53v41.27c0,15.18,19.64,27.54,43.8,27.54Z"/>
            <path class="cls-42" d="m178.59,203.79h65.05c23.93,0,43.38-12.24,43.38-27.28v-40.88c0-15.04-19.45-27.27-43.38-27.27h-65.05c-23.93,0-43.38,12.23-43.38,27.27v40.88c0,15.04,19.45,27.28,43.38,27.28Z"/>
            <path class="cls-12" d="m178.79,203.34h64.43c23.7,0,42.97-12.12,42.97-27.02v-40.49c0-14.9-19.27-27.01-42.97-27.01h-64.43c-23.7,0-42.97,12.12-42.97,27.01v40.49c0,14.9,19.27,27.02,42.97,27.02Z"/>
            <path class="cls-41" d="m178.99,202.88h63.81c23.47,0,42.55-12.01,42.55-26.76v-40.1c0-14.75-19.08-26.75-42.55-26.75h-63.81c-23.47,0-42.55,12-42.55,26.75v40.1c0,14.75,19.08,26.76,42.55,26.76Z"/>
            <path class="cls-66" d="m179.19,202.43h63.19c23.24,0,42.14-11.89,42.14-26.5v-39.71c0-14.61-18.9-26.49-42.14-26.49h-63.19c-23.24,0-42.14,11.88-42.14,26.49v39.71c0,14.61,18.9,26.5,42.14,26.5Z"/>
            <path class="cls-39" d="m179.4,201.97h62.57c23.02,0,41.73-11.77,41.73-26.24v-39.32c0-14.47-18.71-26.23-41.73-26.23h-62.57c-23.02,0-41.73,11.77-41.73,26.23v39.32c0,14.47,18.71,26.24,41.73,26.24Z"/>
            <path class="cls-64" d="m179.6,201.52h61.95c22.79,0,41.31-11.66,41.31-25.98v-38.93c0-14.32-18.52-25.97-41.31-25.97h-61.95c-22.79,0-41.31,11.65-41.31,25.97v38.93c0,14.32,18.52,25.98,41.31,25.98Z"/>
            <path class="cls-5" d="m179.8,201.06h61.33c22.56,0,40.9-11.54,40.9-25.72v-38.54c0-14.18-18.34-25.71-40.9-25.71h-61.33c-22.56,0-40.9,11.53-40.9,25.71v38.54c0,14.18,18.34,25.72,40.9,25.72Z"/>
          </g>
          <path class="cls-15" d="m168.05,227.46h97.31c35.8,0,64.92-18.32,64.92-40.81v-61.15c0-22.5-29.12-40.81-64.92-40.81h-97.31c-35.79,0-64.91,18.31-64.91,40.81v61.15c0,22.49,29.12,40.81,64.91,40.81Z"/>
          <path class="cls-37" d="m168.05,227.46h97.31c35.8,0,64.92-18.32,64.92-40.81v-61.15c0-22.5-29.12-40.81-64.92-40.81h-97.31c-35.79,0-64.91,18.31-64.91,40.81v61.15c0,22.49,29.12,40.81,64.91,40.81Z"/>
          <g>
            <path class="cls-6" d="m86.89,197.33c14.55,0,26.34-7.51,26.34-16.75v-86.82c0-9.24-11.79-16.74-26.34-16.74s-26.33,7.5-26.33,16.74v86.82c0,9.24,11.79,16.75,26.33,16.75Z"/>
            <path class="cls-8" d="m339.95,197.33c14.53,0,26.34-7.51,26.34-16.75v-86.82c0-9.24-11.81-16.74-26.34-16.74s-26.33,7.5-26.33,16.74v86.82c0,9.24,11.81,16.75,26.33,16.75Z"/>
          </g>
        </g>
        <path class="cls-14" d="m339.95,75.95c-3.24,0-6.31.42-9.2,1.07v-36.86C330.75,18.1,300.93.15,264.3.15h-101.73C125.92.15,96.1,18.1,96.1,40.15v36.86c-2.89-.64-5.96-1.07-9.2-1.07-15.46,0-28.05,7.99-28.05,17.81v86.82c0,9.82,12.58,17.82,28.05,17.82,5.93,0,11.41-1.19,15.94-3.19,6.29,19,33.14,33.33,65.21,33.33h97.31c30.96,0,56.99-13.37,64.43-31.4,3.15.79,6.57,1.26,10.15,1.26,15.46,0,28.04-8,28.04-17.82v-86.82c0-9.82-12.57-17.81-28.04-17.81Z"/>
      </g>
    </g>
  </g>
</svg>