<?xml version="1.0" encoding="UTF-8"?>
<svg xmlns="http://www.w3.org/2000/svg" xmlns:xlink="http://www.w3.org/1999/xlink" viewBox="0 0 407.16 387.43">
  <defs>
    <style>
      .cls-1 {
        fill: url(#_Áåçûìÿííûé_ãðàäèåíò_29-46);
      }

      .cls-1, .cls-2, .cls-3, .cls-4, .cls-5, .cls-6, .cls-7, .cls-8, .cls-9, .cls-10, .cls-11, .cls-12, .cls-13, .cls-14, .cls-15, .cls-16, .cls-17, .cls-18, .cls-19, .cls-20, .cls-21, .cls-22, .cls-23, .cls-24, .cls-25, .cls-26, .cls-27, .cls-28, .cls-29, .cls-30, .cls-31, .cls-32, .cls-33, .cls-34, .cls-35, .cls-36, .cls-37, .cls-38, .cls-39, .cls-40, .cls-41, .cls-42, .cls-43, .cls-44, .cls-45, .cls-46, .cls-47, .cls-48, .cls-49, .cls-50, .cls-51, .cls-52, .cls-53, .cls-54, .cls-55, .cls-56, .cls-57, .cls-58, .cls-59, .cls-60, .cls-61, .cls-62, .cls-63, .cls-64, .cls-65, .cls-66, .cls-67, .cls-68, .cls-69, .cls-70, .cls-71, .cls-72, .cls-73, .cls-74, .cls-75, .cls-76, .cls-77, .cls-78, .cls-79, .cls-80, .cls-81, .cls-82, .cls-83, .cls-84, .cls-85, .cls-86, .cls-87, .cls-88, .cls-89, .cls-90, .cls-91, .cls-92, .cls-93, .cls-94, .cls-95, .cls-96, .cls-97, .cls-98, .cls-99, .cls-100, .cls-101, .cls-102, .cls-103, .cls-104, .cls-105, .cls-106, .cls-107, .cls-108, .cls-109, .cls-110, .cls-111, .cls-112, .cls-113, .cls-114, .cls-115, .cls-116 {
        mix-blend-mode: multiply;
      }

      .cls-1, .cls-3, .cls-4, .cls-5, .cls-6, .cls-7, .cls-8, .cls-9, .cls-10, .cls-11, .cls-12, .cls-13, .cls-14, .cls-15, .cls-16, .cls-17, .cls-19, .cls-20, .cls-22, .cls-23, .cls-24, .cls-26, .cls-27, .cls-28, .cls-29, .cls-30, .cls-32, .cls-33, .cls-34, .cls-35, .cls-36, .cls-37, .cls-38, .cls-40, .cls-41, .cls-42, .cls-43, .cls-44, .cls-45, .cls-46, .cls-48, .cls-49, .cls-50, .cls-51, .cls-52, .cls-53, .cls-54, .cls-55, .cls-57, .cls-58, .cls-59, .cls-60, .cls-61, .cls-62, .cls-63, .cls-64, .cls-65, .cls-66, .cls-67, .cls-68, .cls-69, .cls-70, .cls-72, .cls-73, .cls-74, .cls-75, .cls-76, .cls-77, .cls-78, .cls-79, .cls-80, .cls-81, .cls-83, .cls-84, .cls-85, .cls-86, .cls-87, .cls-88, .cls-89, .cls-90, .cls-91, .cls-92, .cls-93, .cls-94, .cls-95, .cls-96, .cls-97, .cls-98, .cls-99, .cls-100, .cls-101, .cls-102, .cls-103, .cls-104, .cls-105, .cls-106, .cls-107, .cls-108, .cls-109, .cls-110, .cls-111, .cls-112, .cls-113, .cls-114, .cls-116 {
        opacity: .4;
      }

      .cls-2 {
        fill: url(#_Áåçûìÿííûé_ãðàäèåíò_297-2);
      }

      .cls-2, .cls-18, .cls-25, .cls-31, .cls-39, .cls-47, .cls-56, .cls-82, .cls-115 {
        opacity: .37;
      }

      .cls-3 {
        fill: url(#_Áåçûìÿííûé_ãðàäèåíò_29-85);
      }

      .cls-4 {
        fill: url(#_Áåçûìÿííûé_ãðàäèåíò_29-87);
      }

      .cls-5 {
        fill: url(#_Áåçûìÿííûé_ãðàäèåíò_29-30);
      }

      .cls-6 {
        fill: url(#_Áåçûìÿííûé_ãðàäèåíò_29-5);
      }

      .cls-7 {
        fill: url(#_Áåçûìÿííûé_ãðàäèåíò_29-7);
      }

      .cls-8 {
        fill: url(#_Áåçûìÿííûé_ãðàäèåíò_29-17);
      }

      .cls-9 {
        fill: url(#_Áåçûìÿííûé_ãðàäèåíò_29-70);
      }

      .cls-10 {
        fill: url(#_Áåçûìÿííûé_ãðàäèåíò_29-15);
      }

      .cls-117 {
        fill: #d7b37f;
      }

      .cls-11 {
        fill: url(#_Áåçûìÿííûé_ãðàäèåíò_29-37);
      }

      .cls-12 {
        fill: url(#_Áåçûìÿííûé_ãðàäèåíò_29-33);
      }

      .cls-13 {
        fill: url(#_Áåçûìÿííûé_ãðàäèåíò_29-101);
      }

      .cls-14 {
        fill: url(#_Áåçûìÿííûé_ãðàäèåíò_29-67);
      }

      .cls-15 {
        fill: url(#_Áåçûìÿííûé_ãðàäèåíò_29-11);
      }

      .cls-16 {
        fill: url(#_Áåçûìÿííûé_ãðàäèåíò_29-100);
      }

      .cls-17 {
        fill: url(#_Áåçûìÿííûé_ãðàäèåíò_29-47);
      }

      .cls-18 {
        fill: url(#_Áåçûìÿííûé_ãðàäèåíò_297-4);
      }

      .cls-19 {
        fill: url(#_Áåçûìÿííûé_ãðàäèåíò_29-103);
      }

      .cls-20 {
        fill: url(#_Áåçûìÿííûé_ãðàäèåíò_29-27);
      }

      .cls-21 {
        fill: #e5d9c2;
        opacity: .32;
      }

      .cls-22 {
        fill: url(#_Áåçûìÿííûé_ãðàäèåíò_29-93);
      }

      .cls-23 {
        fill: url(#_Áåçûìÿííûé_ãðàäèåíò_29-75);
      }

      .cls-24 {
        fill: url(#_Áåçûìÿííûé_ãðàäèåíò_29);
      }

      .cls-25 {
        fill: url(#_Áåçûìÿííûé_ãðàäèåíò_297);
      }

      .cls-118 {
        isolation: isolate;
      }

      .cls-26 {
        fill: url(#_Áåçûìÿííûé_ãðàäèåíò_29-31);
      }

      .cls-27 {
        fill: url(#_Áåçûìÿííûé_ãðàäèåíò_29-56);
      }

      .cls-28 {
        fill: url(#_Áåçûìÿííûé_ãðàäèåíò_29-35);
      }

      .cls-29 {
        fill: url(#_Áåçûìÿííûé_ãðàäèåíò_29-14);
      }

      .cls-30 {
        fill: url(#_Áåçûìÿííûé_ãðàäèåíò_29-3);
      }

      .cls-119 {
        fill: #f5efe1;
      }

      .cls-31 {
        fill: url(#_Áåçûìÿííûé_ãðàäèåíò_297-5);
      }

      .cls-32 {
        fill: url(#_Áåçûìÿííûé_ãðàäèåíò_29-50);
      }

      .cls-33 {
        fill: url(#_Áåçûìÿííûé_ãðàäèåíò_29-65);
      }

      .cls-34 {
        fill: url(#_Áåçûìÿííûé_ãðàäèåíò_29-105);
      }

      .cls-35 {
        fill: url(#_Áåçûìÿííûé_ãðàäèåíò_29-32);
      }

      .cls-36 {
        fill: url(#_Áåçûìÿííûé_ãðàäèåíò_29-96);
      }

      .cls-37 {
        fill: url(#_Áåçûìÿííûé_ãðàäèåíò_29-2);
      }

      .cls-38 {
        fill: url(#_Áåçûìÿííûé_ãðàäèåíò_29-98);
      }

      .cls-39 {
        fill: url(#_Áåçûìÿííûé_ãðàäèåíò_297-7);
      }

      .cls-40 {
        fill: url(#_Áåçûìÿííûé_ãðàäèåíò_29-4);
      }

      .cls-41 {
        fill: url(#_Áåçûìÿííûé_ãðàäèåíò_29-97);
      }

      .cls-42 {
        fill: url(#_Áåçûìÿííûé_ãðàäèåíò_29-62);
      }

      .cls-43 {
        fill: url(#_Áåçûìÿííûé_ãðàäèåíò_29-90);
      }

      .cls-44 {
        fill: url(#_Áåçûìÿííûé_ãðàäèåíò_29-52);
      }

      .cls-45 {
        fill: url(#_Áåçûìÿííûé_ãðàäèåíò_29-25);
      }

      .cls-46 {
        fill: url(#_Áåçûìÿííûé_ãðàäèåíò_29-71);
      }

      .cls-47 {
        fill: url(#_Áåçûìÿííûé_ãðàäèåíò_297-9);
      }

      .cls-120 {
        fill: #cdbdb6;
      }

      .cls-48 {
        fill: url(#_Áåçûìÿííûé_ãðàäèåíò_29-24);
      }

      .cls-49 {
        fill: url(#_Áåçûìÿííûé_ãðàäèåíò_29-28);
      }

      .cls-50 {
        fill: url(#_Áåçûìÿííûé_ãðàäèåíò_29-42);
      }

      .cls-51 {
        fill: url(#_Áåçûìÿííûé_ãðàäèåíò_29-9);
      }

      .cls-52 {
        fill: url(#_Áåçûìÿííûé_ãðàäèåíò_29-92);
      }

      .cls-53 {
        fill: url(#_Áåçûìÿííûé_ãðàäèåíò_29-55);
      }

      .cls-54 {
        fill: url(#_Áåçûìÿííûé_ãðàäèåíò_29-84);
      }

      .cls-55 {
        fill: url(#_Áåçûìÿííûé_ãðàäèåíò_29-61);
      }

      .cls-56 {
        fill: url(#_Áåçûìÿííûé_ãðàäèåíò_297-6);
      }

      .cls-57 {
        fill: url(#_Áåçûìÿííûé_ãðàäèåíò_29-41);
      }

      .cls-58 {
        fill: url(#_Áåçûìÿííûé_ãðàäèåíò_29-89);
      }

      .cls-59 {
        fill: url(#_Áåçûìÿííûé_ãðàäèåíò_29-88);
      }

      .cls-60 {
        fill: url(#_Áåçûìÿííûé_ãðàäèåíò_29-39);
      }

      .cls-61 {
        fill: url(#_Áåçûìÿííûé_ãðàäèåíò_29-53);
      }

      .cls-62 {
        fill: url(#_Áåçûìÿííûé_ãðàäèåíò_29-8);
      }

      .cls-63 {
        fill: url(#_Áåçûìÿííûé_ãðàäèåíò_29-60);
      }

      .cls-64 {
        fill: url(#_Áåçûìÿííûé_ãðàäèåíò_29-20);
      }

      .cls-65 {
        fill: url(#_Áåçûìÿííûé_ãðàäèåíò_29-21);
      }

      .cls-121 {
        fill: #f8dba7;
      }

      .cls-66 {
        fill: url(#_Áåçûìÿííûé_ãðàäèåíò_29-45);
      }

      .cls-67 {
        fill: url(#_Áåçûìÿííûé_ãðàäèåíò_29-78);
      }

      .cls-68 {
        fill: url(#_Áåçûìÿííûé_ãðàäèåíò_29-91);
      }

      .cls-69 {
        fill: url(#_Áåçûìÿííûé_ãðàäèåíò_29-29);
      }

      .cls-70 {
        fill: url(#_Áåçûìÿííûé_ãðàäèåíò_29-82);
      }

      .cls-71 {
        opacity: .19;
      }

      .cls-71, .cls-122 {
        fill: #7d7d7d;
      }

      .cls-72 {
        fill: url(#_Áåçûìÿííûé_ãðàäèåíò_29-104);
      }

      .cls-73 {
        fill: url(#_Áåçûìÿííûé_ãðàäèåíò_29-58);
      }

      .cls-74 {
        fill: url(#_Áåçûìÿííûé_ãðàäèåíò_29-26);
      }

      .cls-75 {
        fill: url(#_Áåçûìÿííûé_ãðàäèåíò_29-44);
      }

      .cls-76 {
        fill: url(#_Áåçûìÿííûé_ãðàäèåíò_29-77);
      }

      .cls-77 {
        fill: url(#_Áåçûìÿííûé_ãðàäèåíò_29-38);
      }

      .cls-78 {
        fill: url(#_Áåçûìÿííûé_ãðàäèåíò_29-95);
      }

      .cls-79 {
        fill: url(#_Áåçûìÿííûé_ãðàäèåíò_29-57);
      }

      .cls-80 {
        fill: url(#_Áåçûìÿííûé_ãðàäèåíò_29-68);
      }

      .cls-81 {
        fill: url(#_Áåçûìÿííûé_ãðàäèåíò_29-74);
      }

      .cls-82 {
        fill: url(#_Áåçûìÿííûé_ãðàäèåíò_297-3);
      }

      .cls-83 {
        fill: url(#_Áåçûìÿííûé_ãðàäèåíò_29-69);
      }

      .cls-84 {
        fill: url(#_Áåçûìÿííûé_ãðàäèåíò_29-34);
      }

      .cls-85 {
        fill: url(#_Áåçûìÿííûé_ãðàäèåíò_29-94);
      }

      .cls-86 {
        fill: url(#_Áåçûìÿííûé_ãðàäèåíò_29-16);
      }

      .cls-87 {
        fill: url(#_Áåçûìÿííûé_ãðàäèåíò_29-40);
      }

      .cls-88 {
        fill: url(#_Áåçûìÿííûé_ãðàäèåíò_29-63);
      }

      .cls-89 {
        fill: url(#_Áåçûìÿííûé_ãðàäèåíò_29-12);
      }

      .cls-90 {
        fill: url(#_Áåçûìÿííûé_ãðàäèåíò_29-48);
      }

      .cls-91 {
        fill: url(#_Áåçûìÿííûé_ãðàäèåíò_29-43);
      }

      .cls-92 {
        fill: url(#_Áåçûìÿííûé_ãðàäèåíò_29-102);
      }

      .cls-93 {
        fill: url(#_Áåçûìÿííûé_ãðàäèåíò_29-76);
      }

      .cls-94 {
        fill: url(#_Áåçûìÿííûé_ãðàäèåíò_29-86);
      }

      .cls-95 {
        fill: url(#_Áåçûìÿííûé_ãðàäèåíò_29-72);
      }

      .cls-96 {
        fill: url(#_Áåçûìÿííûé_ãðàäèåíò_29-18);
      }

      .cls-97 {
        fill: url(#_Áåçûìÿííûé_ãðàäèåíò_29-73);
      }

      .cls-98 {
        fill: url(#_Áåçûìÿííûé_ãðàäèåíò_29-54);
      }

      .cls-99 {
        fill: url(#_Áåçûìÿííûé_ãðàäèåíò_29-49);
      }

      .cls-123 {
        fill: #d0bb85;
      }

      .cls-100 {
        fill: url(#_Áåçûìÿííûé_ãðàäèåíò_29-10);
      }

      .cls-101 {
        fill: url(#_Áåçûìÿííûé_ãðàäèåíò_29-79);
      }

      .cls-102 {
        fill: url(#_Áåçûìÿííûé_ãðàäèåíò_29-66);
      }

      .cls-103 {
        fill: url(#_Áåçûìÿííûé_ãðàäèåíò_29-59);
      }

      .cls-104 {
        fill: url(#_Áåçûìÿííûé_ãðàäèåíò_29-19);
      }

      .cls-105 {
        fill: url(#_Áåçûìÿííûé_ãðàäèåíò_29-80);
      }

      .cls-106 {
        fill: url(#_Áåçûìÿííûé_ãðàäèåíò_29-64);
      }

      .cls-107 {
        fill: url(#_Áåçûìÿííûé_ãðàäèåíò_29-6);
      }

      .cls-122 {
        mix-blend-mode: color-dodge;
        opacity: .15;
      }

      .cls-108 {
        fill: url(#_Áåçûìÿííûé_ãðàäèåíò_29-99);
      }

      .cls-109 {
        fill: url(#_Áåçûìÿííûé_ãðàäèåíò_29-13);
      }

      .cls-110 {
        fill: url(#_Áåçûìÿííûé_ãðàäèåíò_29-36);
      }

      .cls-111 {
        fill: url(#_Áåçûìÿííûé_ãðàäèåíò_29-83);
      }

      .cls-112 {
        fill: url(#_Áåçûìÿííûé_ãðàäèåíò_29-22);
      }

      .cls-113 {
        fill: url(#_Áåçûìÿííûé_ãðàäèåíò_29-51);
      }

      .cls-114 {
        fill: url(#_Áåçûìÿííûé_ãðàäèåíò_29-81);
      }

      .cls-115 {
        fill: url(#_Áåçûìÿííûé_ãðàäèåíò_297-8);
      }

      .cls-116 {
        fill: url(#_Áåçûìÿííûé_ãðàäèåíò_29-23);
      }
    </style>
    <linearGradient id="_Áåçûìÿííûé_ãðàäèåíò_29" data-name="Áåçûìÿííûé ãðàäèåíò 29" x1="-4029.01" y1="1127.88" x2="-4028.11" y2="1129.2" gradientTransform="translate(4241.24 -1124.57)" gradientUnits="userSpaceOnUse">
      <stop offset="0" stop-color="#e5dfac"/>
      <stop offset=".2" stop-color="#c6b9a2"/>
      <stop offset=".52" stop-color="#9b8494"/>
      <stop offset=".75" stop-color="#81638b"/>
      <stop offset=".88" stop-color="#775788"/>
    </linearGradient>
    <linearGradient id="_Áåçûìÿííûé_ãðàäèåíò_29-2" data-name="Áåçûìÿííûé ãðàäèåíò 29" x1="-4026.82" y1="1129.03" x2="-4026.01" y2="1130.21" xlink:href="#_Áåçûìÿííûé_ãðàäèåíò_29"/>
    <linearGradient id="_Áåçûìÿííûé_ãðàäèåíò_29-3" data-name="Áåçûìÿííûé ãðàäèåíò 29" x1="-4031.25" y1="1126.85" x2="-4030.27" y2="1128.3" xlink:href="#_Áåçûìÿííûé_ãðàäèåíò_29"/>
    <linearGradient id="_Áåçûìÿííûé_ãðàäèåíò_29-4" data-name="Áåçûìÿííûé ãðàäèåíò 29" x1="-4024.66" y1="1130.3" x2="-4023.98" y2="1131.31" xlink:href="#_Áåçûìÿííûé_ãðàäèåíò_29"/>
    <linearGradient id="_Áåçûìÿííûé_ãðàäèåíò_29-5" data-name="Áåçûìÿííûé ãðàäèåíò 29" x1="-4033.51" y1="1125.97" x2="-4032.47" y2="1127.49" xlink:href="#_Áåçûìÿííûé_ãðàäèåíò_29"/>
    <linearGradient id="_Áåçûìÿííûé_ãðàäèåíò_29-6" data-name="Áåçûìÿííûé ãðàäèåíò 29" x1="-4022.56" y1="1131.69" x2="-4022" y2="1132.51" xlink:href="#_Áåçûìÿííûé_ãðàäèåíò_29"/>
    <linearGradient id="_Áåçûìÿííûé_ãðàäèåíò_29-7" data-name="Áåçûìÿííûé ãðàäèåíò 29" x1="-4035.82" y1="1125.2" x2="-4034.73" y2="1126.8" xlink:href="#_Áåçûìÿííûé_ãðàäèåíò_29"/>
    <linearGradient id="_Áåçûìÿííûé_ãðàäèåíò_29-8" data-name="Áåçûìÿííûé ãðàäèåíò 29" x1="-4018.53" y1="1134.77" x2="-4018.25" y2="1135.19" xlink:href="#_Áåçûìÿííûé_ãðàäèåíò_29"/>
    <linearGradient id="_Áåçûìÿííûé_ãðàäèåíò_29-9" data-name="Áåçûìÿííûé ãðàäèåíò 29" x1="-4014.79" y1="1138.22" x2="-4014.79" y2="1138.23" xlink:href="#_Áåçûìÿííûé_ãðàäèåíò_29"/>
    <linearGradient id="_Áåçûìÿííûé_ãðàäèåíò_29-10" data-name="Áåçûìÿííûé ãðàäèåíò 29" x1="-4016.62" y1="1136.46" x2="-4016.48" y2="1136.66" xlink:href="#_Áåçûìÿííûé_ãðàäèåíò_29"/>
    <linearGradient id="_Áåçûìÿííûé_ãðàäèåíò_29-11" data-name="Áåçûìÿííûé ãðàäèåíò 29" x1="-4020.51" y1="1133.18" x2="-4020.09" y2="1133.8" xlink:href="#_Áåçûìÿííûé_ãðàäèåíò_29"/>
    <linearGradient id="_Áåçûìÿííûé_ãðàäèåíò_29-12" data-name="Áåçûìÿííûé ãðàäèåíò 29" x1="-4085.56" y1="1142.11" x2="-4085.32" y2="1142.47" xlink:href="#_Áåçûìÿííûé_ãðàäèåíò_29"/>
    <linearGradient id="_Áåçûìÿííûé_ãðàäèåíò_29-13" data-name="Áåçûìÿííûé ãðàäèåíò 29" x1="-4052.62" y1="1123.61" x2="-4051.64" y2="1125.05" xlink:href="#_Áåçûìÿííûé_ãðàäèåíò_29"/>
    <linearGradient id="_Áåçûìÿííûé_ãðàäèåíò_29-14" data-name="Áåçûìÿííûé ãðàäèåíò 29" x1="-4050.16" y1="1123.51" x2="-4049.2" y2="1124.92" xlink:href="#_Áåçûìÿííûé_ãðàäèåíò_29"/>
    <linearGradient id="_Áåçûìÿííûé_ãðàäèåíò_29-15" data-name="Áåçûìÿííûé ãðàäèåíò 29" x1="-4075.68" y1="1125.1" x2="-4069.13" y2="1134.74" xlink:href="#_Áåçûìÿííûé_ãðàäèåíò_29"/>
    <linearGradient id="_Áåçûìÿííûé_ãðàäèåíò_29-16" data-name="Áåçûìÿííûé ãðàäèåíò 29" x1="-4055.15" y1="1123.72" x2="-4054.05" y2="1125.34" xlink:href="#_Áåçûìÿííûé_ãðàäèåíò_29"/>
    <linearGradient id="_Áåçûìÿííûé_ãðàäèåíò_29-17" data-name="Áåçûìÿííûé ãðàäèåíò 29" x1="-4042.87" y1="1123.74" x2="-4041.78" y2="1125.34" xlink:href="#_Áåçûìÿííûé_ãðàäèåíò_29"/>
    <linearGradient id="_Áåçûìÿííûé_ãðàäèåíò_29-18" data-name="Áåçûìÿííûé ãðàäèåíò 29" x1="-4040.5" y1="1124.08" x2="-4039.39" y2="1125.72" xlink:href="#_Áåçûìÿííûé_ãðàäèåíò_29"/>
    <linearGradient id="_Áåçûìÿííûé_ãðàäèåíò_29-19" data-name="Áåçûìÿííûé ãðàäèåíò 29" x1="-4038.15" y1="1124.57" x2="-4037.04" y2="1126.2" xlink:href="#_Áåçûìÿííûé_ãðàäèåíò_29"/>
    <linearGradient id="_Áåçûìÿííûé_ãðàäèåíò_29-20" data-name="Áåçûìÿííûé ãðàäèåíò 29" x1="-4045.28" y1="1123.52" x2="-4044.22" y2="1125.08" xlink:href="#_Áåçûìÿííûé_ãðàäèåíò_29"/>
    <linearGradient id="_Áåçûìÿííûé_ãðàäèåíò_29-21" data-name="Áåçûìÿííûé ãðàäèåíò 29" x1="-4047.7" y1="1123.45" x2="-4046.69" y2="1124.94" xlink:href="#_Áåçûìÿííûé_ãðàäèåíò_29"/>
    <linearGradient id="_Áåçûìÿííûé_ãðàäèåíò_29-22" data-name="Áåçûìÿííûé ãðàäèåíò 29" x1="-6473.37" y1="-2943.59" x2="-6472.46" y2="-2942.26" gradientTransform="translate(457.69 7261.19) rotate(65)" xlink:href="#_Áåçûìÿííûé_ãðàäèåíò_29"/>
    <linearGradient id="_Áåçûìÿííûé_ãðàäèåíò_29-23" data-name="Áåçûìÿííûé ãðàäèåíò 29" x1="-6471.17" y1="-2942.43" x2="-6470.36" y2="-2941.25" gradientTransform="translate(457.69 7261.19) rotate(65)" xlink:href="#_Áåçûìÿííûé_ãðàäèåíò_29"/>
    <linearGradient id="_Áåçûìÿííûé_ãðàäèåíò_29-24" data-name="Áåçûìÿííûé ãðàäèåíò 29" x1="-6475.6" y1="-2944.61" x2="-6474.62" y2="-2943.16" gradientTransform="translate(457.69 7261.19) rotate(65)" xlink:href="#_Áåçûìÿííûé_ãðàäèåíò_29"/>
    <linearGradient id="_Áåçûìÿííûé_ãðàäèåíò_29-25" data-name="Áåçûìÿííûé ãðàäèåíò 29" x1="-6469.01" y1="-2941.16" x2="-6468.33" y2="-2940.15" gradientTransform="translate(457.69 7261.19) rotate(65)" xlink:href="#_Áåçûìÿííûé_ãðàäèåíò_29"/>
    <linearGradient id="_Áåçûìÿííûé_ãðàäèåíò_29-26" data-name="Áåçûìÿííûé ãðàäèåíò 29" x1="-6477.87" y1="-2945.5" x2="-6476.82" y2="-2943.97" gradientTransform="translate(457.69 7261.19) rotate(65)" xlink:href="#_Áåçûìÿííûé_ãðàäèåíò_29"/>
    <linearGradient id="_Áåçûìÿííûé_ãðàäèåíò_29-27" data-name="Áåçûìÿííûé ãðàäèåíò 29" x1="-6466.91" y1="-2939.77" x2="-6466.35" y2="-2938.96" gradientTransform="translate(457.69 7261.19) rotate(65)" xlink:href="#_Áåçûìÿííûé_ãðàäèåíò_29"/>
    <linearGradient id="_Áåçûìÿííûé_ãðàäèåíò_29-28" data-name="Áåçûìÿííûé ãðàäèåíò 29" x1="-6480.17" y1="-2946.26" x2="-6479.08" y2="-2944.67" gradientTransform="translate(457.69 7261.19) rotate(65)" xlink:href="#_Áåçûìÿííûé_ãðàäèåíò_29"/>
    <linearGradient id="_Áåçûìÿííûé_ãðàäèåíò_29-29" data-name="Áåçûìÿííûé ãðàäèåíò 29" x1="-6462.88" y1="-2936.69" x2="-6462.6" y2="-2936.28" gradientTransform="translate(457.69 7261.19) rotate(65)" xlink:href="#_Áåçûìÿííûé_ãðàäèåíò_29"/>
    <linearGradient id="_Áåçûìÿííûé_ãðàäèåíò_29-30" data-name="Áåçûìÿííûé ãðàäèåíò 29" x1="-6459.14" y1="-2933.25" x2="-6459.14" y2="-2933.24" gradientTransform="translate(457.69 7261.19) rotate(65)" xlink:href="#_Áåçûìÿííûé_ãðàäèåíò_29"/>
    <linearGradient id="_Áåçûìÿííûé_ãðàäèåíò_29-31" data-name="Áåçûìÿííûé ãðàäèåíò 29" x1="-6460.97" y1="-2935.01" x2="-6460.83" y2="-2934.8" gradientTransform="translate(457.69 7261.19) rotate(65)" xlink:href="#_Áåçûìÿííûé_ãðàäèåíò_29"/>
    <linearGradient id="_Áåçûìÿííûé_ãðàäèåíò_29-32" data-name="Áåçûìÿííûé ãðàäèåíò 29" x1="-6464.86" y1="-2938.28" x2="-6464.44" y2="-2937.66" gradientTransform="translate(457.69 7261.19) rotate(65)" xlink:href="#_Áåçûìÿííûé_ãðàäèåíò_29"/>
    <linearGradient id="_Áåçûìÿííûé_ãðàäèåíò_29-33" data-name="Áåçûìÿííûé ãðàäèåíò 29" x1="-6529.91" y1="-2929.35" x2="-6529.67" y2="-2929" gradientTransform="translate(457.69 7261.19) rotate(65)" xlink:href="#_Áåçûìÿííûé_ãðàäèåíò_29"/>
    <linearGradient id="_Áåçûìÿííûé_ãðàäèåíò_29-34" data-name="Áåçûìÿííûé ãðàäèåíò 29" x1="-6496.97" y1="-2947.85" x2="-6495.99" y2="-2946.41" gradientTransform="translate(457.69 7261.19) rotate(65)" xlink:href="#_Áåçûìÿííûé_ãðàäèåíò_29"/>
    <linearGradient id="_Áåçûìÿííûé_ãðàäèåíò_29-35" data-name="Áåçûìÿííûé ãðàäèåíò 29" x1="-6494.51" y1="-2947.95" x2="-6493.55" y2="-2946.54" gradientTransform="translate(457.69 7261.19) rotate(65)" xlink:href="#_Áåçûìÿííûé_ãðàäèåíò_29"/>
    <linearGradient id="_Áåçûìÿííûé_ãðàäèåíò_29-36" data-name="Áåçûìÿííûé ãðàäèåíò 29" x1="-6520.04" y1="-2946.36" x2="-6513.48" y2="-2936.72" gradientTransform="translate(457.69 7261.19) rotate(65)" xlink:href="#_Áåçûìÿííûé_ãðàäèåíò_29"/>
    <linearGradient id="_Áåçûìÿííûé_ãðàäèåíò_29-37" data-name="Áåçûìÿííûé ãðàäèåíò 29" x1="-6499.51" y1="-2947.74" x2="-6498.4" y2="-2946.13" gradientTransform="translate(457.69 7261.19) rotate(65)" xlink:href="#_Áåçûìÿííûé_ãðàäèåíò_29"/>
    <linearGradient id="_Áåçûìÿííûé_ãðàäèåíò_29-38" data-name="Áåçûìÿííûé ãðàäèåíò 29" x1="-6487.22" y1="-2947.73" x2="-6486.13" y2="-2946.13" gradientTransform="translate(457.69 7261.19) rotate(65)" xlink:href="#_Áåçûìÿííûé_ãðàäèåíò_29"/>
    <linearGradient id="_Áåçûìÿííûé_ãðàäèåíò_29-39" data-name="Áåçûìÿííûé ãðàäèåíò 29" x1="-6484.85" y1="-2947.38" x2="-6483.74" y2="-2945.75" gradientTransform="translate(457.69 7261.19) rotate(65)" xlink:href="#_Áåçûìÿííûé_ãðàäèåíò_29"/>
    <linearGradient id="_Áåçûìÿííûé_ãðàäèåíò_29-40" data-name="Áåçûìÿííûé ãðàäèåíò 29" x1="-6482.5" y1="-2946.9" x2="-6481.39" y2="-2945.26" gradientTransform="translate(457.69 7261.19) rotate(65)" xlink:href="#_Áåçûìÿííûé_ãðàäèåíò_29"/>
    <linearGradient id="_Áåçûìÿííûé_ãðàäèåíò_29-41" data-name="Áåçûìÿííûé ãðàäèåíò 29" x1="-6489.63" y1="-2947.94" x2="-6488.57" y2="-2946.38" gradientTransform="translate(457.69 7261.19) rotate(65)" xlink:href="#_Áåçûìÿííûé_ãðàäèåíò_29"/>
    <linearGradient id="_Áåçûìÿííûé_ãðàäèåíò_29-42" data-name="Áåçûìÿííûé ãðàäèåíò 29" x1="-6492.05" y1="-2948.01" x2="-6491.04" y2="-2946.53" gradientTransform="translate(457.69 7261.19) rotate(65)" xlink:href="#_Áåçûìÿííûé_ãðàäèåíò_29"/>
    <linearGradient id="_Áåçûìÿííûé_ãðàäèåíò_29-43" data-name="Áåçûìÿííûé ãðàäèåíò 29" x1="-11908.7" y1="-1557.94" x2="-11907.8" y2="-1556.62" gradientTransform="translate(-10078.15 6411.48) rotate(142.35)" xlink:href="#_Áåçûìÿííûé_ãðàäèåíò_29"/>
    <linearGradient id="_Áåçûìÿííûé_ãðàäèåíò_29-44" data-name="Áåçûìÿííûé ãðàäèåíò 29" x1="-11906.5" y1="-1556.79" x2="-11905.7" y2="-1555.61" gradientTransform="translate(-10078.15 6411.48) rotate(142.35)" xlink:href="#_Áåçûìÿííûé_ãðàäèåíò_29"/>
    <linearGradient id="_Áåçûìÿííûé_ãðàäèåíò_29-45" data-name="Áåçûìÿííûé ãðàäèåíò 29" x1="-11910.94" y1="-1558.97" x2="-11909.95" y2="-1557.52" gradientTransform="translate(-10078.15 6411.48) rotate(142.35)" xlink:href="#_Áåçûìÿííûé_ãðàäèåíò_29"/>
    <linearGradient id="_Áåçûìÿííûé_ãðàäèåíò_29-46" data-name="Áåçûìÿííûé ãðàäèåíò 29" x1="-11904.35" y1="-1555.52" x2="-11903.66" y2="-1554.51" gradientTransform="translate(-10078.15 6411.48) rotate(142.35)" xlink:href="#_Áåçûìÿííûé_ãðàäèåíò_29"/>
    <linearGradient id="_Áåçûìÿííûé_ãðàäèåíò_29-47" data-name="Áåçûìÿííûé ãðàäèåíò 29" x1="-11913.2" y1="-1559.86" x2="-11912.16" y2="-1558.33" gradientTransform="translate(-10078.15 6411.48) rotate(142.35)" xlink:href="#_Áåçûìÿííûé_ãðàäèåíò_29"/>
    <linearGradient id="_Áåçûìÿííûé_ãðàäèåíò_29-48" data-name="Áåçûìÿííûé ãðàäèåíò 29" x1="-11902.24" y1="-1554.13" x2="-11901.69" y2="-1553.31" gradientTransform="translate(-10078.15 6411.48) rotate(142.35)" xlink:href="#_Áåçûìÿííûé_ãðàäèåíò_29"/>
    <linearGradient id="_Áåçûìÿííûé_ãðàäèåíò_29-49" data-name="Áåçûìÿííûé ãðàäèåíò 29" x1="-11915.51" y1="-1560.62" x2="-11914.42" y2="-1559.03" gradientTransform="translate(-10078.15 6411.48) rotate(142.35)" xlink:href="#_Áåçûìÿííûé_ãðàäèåíò_29"/>
    <linearGradient id="_Áåçûìÿííûé_ãðàäèåíò_29-50" data-name="Áåçûìÿííûé ãðàäèåíò 29" x1="-11898.22" y1="-1551.05" x2="-11897.94" y2="-1550.63" gradientTransform="translate(-10078.15 6411.48) rotate(142.35)" xlink:href="#_Áåçûìÿííûé_ãðàäèåíò_29"/>
    <linearGradient id="_Áåçûìÿííûé_ãðàäèåíò_29-51" data-name="Áåçûìÿííûé ãðàäèåíò 29" x1="-11894.48" y1="-1547.6" x2="-11894.47" y2="-1547.59" gradientTransform="translate(-10078.15 6411.48) rotate(142.35)" xlink:href="#_Áåçûìÿííûé_ãðàäèåíò_29"/>
    <linearGradient id="_Áåçûìÿííûé_ãðàäèåíò_29-52" data-name="Áåçûìÿííûé ãðàäèåíò 29" x1="-11896.31" y1="-1549.37" x2="-11896.17" y2="-1549.16" gradientTransform="translate(-10078.15 6411.48) rotate(142.35)" xlink:href="#_Áåçûìÿííûé_ãðàäèåíò_29"/>
    <linearGradient id="_Áåçûìÿííûé_ãðàäèåíò_29-53" data-name="Áåçûìÿííûé ãðàäèåíò 29" x1="-11900.2" y1="-1552.64" x2="-11899.78" y2="-1552.02" gradientTransform="translate(-10078.15 6411.48) rotate(142.35)" xlink:href="#_Áåçûìÿííûé_ãðàäèåíò_29"/>
    <linearGradient id="_Áåçûìÿííûé_ãðàäèåíò_29-54" data-name="Áåçûìÿííûé ãðàäèåíò 29" x1="-11965.24" y1="-1543.7" x2="-11965" y2="-1543.35" gradientTransform="translate(-10078.15 6411.48) rotate(142.35)" xlink:href="#_Áåçûìÿííûé_ãðàäèåíò_29"/>
    <linearGradient id="_Áåçûìÿííûé_ãðàäèåíò_29-55" data-name="Áåçûìÿííûé ãðàäèåíò 29" x1="-11932.31" y1="-1562.21" x2="-11931.33" y2="-1560.77" gradientTransform="translate(-10078.15 6411.48) rotate(142.35)" xlink:href="#_Áåçûìÿííûé_ãðàäèåíò_29"/>
    <linearGradient id="_Áåçûìÿííûé_ãðàäèåíò_29-56" data-name="Áåçûìÿííûé ãðàäèåíò 29" x1="-11929.85" y1="-1562.31" x2="-11928.89" y2="-1560.9" gradientTransform="translate(-10078.15 6411.48) rotate(142.35)" xlink:href="#_Áåçûìÿííûé_ãðàäèåíò_29"/>
    <linearGradient id="_Áåçûìÿííûé_ãðàäèåíò_29-57" data-name="Áåçûìÿííûé ãðàäèåíò 29" x1="-11955.37" y1="-1560.71" x2="-11948.81" y2="-1551.08" gradientTransform="translate(-10078.15 6411.48) rotate(142.35)" xlink:href="#_Áåçûìÿííûé_ãðàäèåíò_29"/>
    <linearGradient id="_Áåçûìÿííûé_ãðàäèåíò_29-58" data-name="Áåçûìÿííûé ãðàäèåíò 29" x1="-11934.84" y1="-1562.1" x2="-11933.74" y2="-1560.48" gradientTransform="translate(-10078.15 6411.48) rotate(142.35)" xlink:href="#_Áåçûìÿííûé_ãðàäèåíò_29"/>
    <linearGradient id="_Áåçûìÿííûé_ãðàäèåíò_29-59" data-name="Áåçûìÿííûé ãðàäèåíò 29" x1="-11922.56" y1="-1562.08" x2="-11921.47" y2="-1560.48" gradientTransform="translate(-10078.15 6411.48) rotate(142.35)" xlink:href="#_Áåçûìÿííûé_ãðàäèåíò_29"/>
    <linearGradient id="_Áåçûìÿííûé_ãðàäèåíò_29-60" data-name="Áåçûìÿííûé ãðàäèåíò 29" x1="-11920.19" y1="-1561.74" x2="-11919.08" y2="-1560.11" gradientTransform="translate(-10078.15 6411.48) rotate(142.35)" xlink:href="#_Áåçûìÿííûé_ãðàäèåíò_29"/>
    <linearGradient id="_Áåçûìÿííûé_ãðàäèåíò_29-61" data-name="Áåçûìÿííûé ãðàäèåíò 29" x1="-11917.84" y1="-1561.26" x2="-11916.73" y2="-1559.62" gradientTransform="translate(-10078.15 6411.48) rotate(142.35)" xlink:href="#_Áåçûìÿííûé_ãðàäèåíò_29"/>
    <linearGradient id="_Áåçûìÿííûé_ãðàäèåíò_29-62" data-name="Áåçûìÿííûé ãðàäèåíò 29" x1="-11924.96" y1="-1562.3" x2="-11923.9" y2="-1560.74" gradientTransform="translate(-10078.15 6411.48) rotate(142.35)" xlink:href="#_Áåçûìÿííûé_ãðàäèåíò_29"/>
    <linearGradient id="_Áåçûìÿííûé_ãðàäèåíò_29-63" data-name="Áåçûìÿííûé ãðàäèåíò 29" x1="-11927.38" y1="-1562.37" x2="-11926.37" y2="-1560.88" gradientTransform="translate(-10078.15 6411.48) rotate(142.35)" xlink:href="#_Áåçûìÿííûé_ãðàäèåíò_29"/>
    <linearGradient id="_Áåçûìÿííûé_ãðàäèåíò_29-64" data-name="Áåçûìÿííûé ãðàäèåíò 29" x1="-4873.79" y1="3870.52" x2="-4872.89" y2="3871.85" gradientTransform="translate(1569.82 6414.52) rotate(37.7) scale(1 -1)" xlink:href="#_Áåçûìÿííûé_ãðàäèåíò_29"/>
    <linearGradient id="_Áåçûìÿííûé_ãðàäèåíò_29-65" data-name="Áåçûìÿííûé ãðàäèåíò 29" x1="-4871.59" y1="3871.67" x2="-4870.79" y2="3872.85" gradientTransform="translate(1569.82 6414.52) rotate(37.7) scale(1 -1)" xlink:href="#_Áåçûìÿííûé_ãðàäèåíò_29"/>
    <linearGradient id="_Áåçûìÿííûé_ãðàäèåíò_29-66" data-name="Áåçûìÿííûé ãðàäèåíò 29" x1="-4876.02" y1="3869.49" x2="-4875.04" y2="3870.94" gradientTransform="translate(1569.82 6414.52) rotate(37.7) scale(1 -1)" xlink:href="#_Áåçûìÿííûé_ãðàäèåíò_29"/>
    <linearGradient id="_Áåçûìÿííûé_ãðàäèåíò_29-67" data-name="Áåçûìÿííûé ãðàäèåíò 29" x1="-4869.44" y1="3872.94" x2="-4868.75" y2="3873.95" gradientTransform="translate(1569.82 6414.52) rotate(37.7) scale(1 -1)" xlink:href="#_Áåçûìÿííûé_ãðàäèåíò_29"/>
    <linearGradient id="_Áåçûìÿííûé_ãðàäèåíò_29-68" data-name="Áåçûìÿííûé ãðàäèåíò 29" x1="-4878.29" y1="3868.61" x2="-4877.25" y2="3870.14" gradientTransform="translate(1569.82 6414.52) rotate(37.7) scale(1 -1)" xlink:href="#_Áåçûìÿííûé_ãðàäèåíò_29"/>
    <linearGradient id="_Áåçûìÿííûé_ãðàäèåíò_29-69" data-name="Áåçûìÿííûé ãðàäèåíò 29" x1="-4867.33" y1="3874.33" x2="-4866.77" y2="3875.15" gradientTransform="translate(1569.82 6414.52) rotate(37.7) scale(1 -1)" xlink:href="#_Áåçûìÿííûé_ãðàäèåíò_29"/>
    <linearGradient id="_Áåçûìÿííûé_ãðàäèåíò_29-70" data-name="Áåçûìÿííûé ãðàäèåíò 29" x1="-4880.59" y1="3867.84" x2="-4879.51" y2="3869.44" gradientTransform="translate(1569.82 6414.52) rotate(37.7) scale(1 -1)" xlink:href="#_Áåçûìÿííûé_ãðàäèåíò_29"/>
    <linearGradient id="_Áåçûìÿííûé_ãðàäèåíò_29-71" data-name="Áåçûìÿííûé ãðàäèåíò 29" x1="-4863.31" y1="3877.41" x2="-4863.02" y2="3877.83" gradientTransform="translate(1569.82 6414.52) rotate(37.7) scale(1 -1)" xlink:href="#_Áåçûìÿííûé_ãðàäèåíò_29"/>
    <linearGradient id="_Áåçûìÿííûé_ãðàäèåíò_29-72" data-name="Áåçûìÿííûé ãðàäèåíò 29" x1="-4859.57" y1="3880.86" x2="-4859.56" y2="3880.87" gradientTransform="translate(1569.82 6414.52) rotate(37.7) scale(1 -1)" xlink:href="#_Áåçûìÿííûé_ãðàäèåíò_29"/>
    <linearGradient id="_Áåçûìÿííûé_ãðàäèåíò_29-73" data-name="Áåçûìÿííûé ãðàäèåíò 29" x1="-4861.4" y1="3879.1" x2="-4861.25" y2="3879.3" gradientTransform="translate(1569.82 6414.52) rotate(37.7) scale(1 -1)" xlink:href="#_Áåçûìÿííûé_ãðàäèåíò_29"/>
    <linearGradient id="_Áåçûìÿííûé_ãðàäèåíò_29-74" data-name="Áåçûìÿííûé ãðàäèåíò 29" x1="-4865.29" y1="3875.82" x2="-4864.86" y2="3876.44" gradientTransform="translate(1569.82 6414.52) rotate(37.7) scale(1 -1)" xlink:href="#_Áåçûìÿííûé_ãðàäèåíò_29"/>
    <linearGradient id="_Áåçûìÿííûé_ãðàäèåíò_29-75" data-name="Áåçûìÿííûé ãðàäèåíò 29" x1="-4930.33" y1="3884.75" x2="-4930.09" y2="3885.11" gradientTransform="translate(1569.82 6414.52) rotate(37.7) scale(1 -1)" xlink:href="#_Áåçûìÿííûé_ãðàäèåíò_29"/>
    <linearGradient id="_Áåçûìÿííûé_ãðàäèåíò_29-76" data-name="Áåçûìÿííûé ãðàäèåíò 29" x1="-4897.4" y1="3866.25" x2="-4896.42" y2="3867.69" gradientTransform="translate(1569.82 6414.52) rotate(37.7) scale(1 -1)" xlink:href="#_Áåçûìÿííûé_ãðàäèåíò_29"/>
    <linearGradient id="_Áåçûìÿííûé_ãðàäèåíò_29-77" data-name="Áåçûìÿííûé ãðàäèåíò 29" x1="-4894.93" y1="3866.15" x2="-4893.98" y2="3867.56" gradientTransform="translate(1569.82 6414.52) rotate(37.7) scale(1 -1)" xlink:href="#_Áåçûìÿííûé_ãðàäèåíò_29"/>
    <linearGradient id="_Áåçûìÿííûé_ãðàäèåíò_29-78" data-name="Áåçûìÿííûé ãðàäèåíò 29" x1="-4920.46" y1="3867.74" x2="-4913.9" y2="3877.38" gradientTransform="translate(1569.82 6414.52) rotate(37.7) scale(1 -1)" xlink:href="#_Áåçûìÿííûé_ãðàäèåíò_29"/>
    <linearGradient id="_Áåçûìÿííûé_ãðàäèåíò_29-79" data-name="Áåçûìÿííûé ãðàäèåíò 29" x1="-4899.93" y1="3866.36" x2="-4898.83" y2="3867.98" gradientTransform="translate(1569.82 6414.52) rotate(37.7) scale(1 -1)" xlink:href="#_Áåçûìÿííûé_ãðàäèåíò_29"/>
    <linearGradient id="_Áåçûìÿííûé_ãðàäèåíò_29-80" data-name="Áåçûìÿííûé ãðàäèåíò 29" x1="-4887.65" y1="3866.38" x2="-4886.56" y2="3867.98" gradientTransform="translate(1569.82 6414.52) rotate(37.7) scale(1 -1)" xlink:href="#_Áåçûìÿííûé_ãðàäèåíò_29"/>
    <linearGradient id="_Áåçûìÿííûé_ãðàäèåíò_29-81" data-name="Áåçûìÿííûé ãðàäèåíò 29" x1="-4885.27" y1="3866.72" x2="-4884.16" y2="3868.36" gradientTransform="translate(1569.82 6414.52) rotate(37.7) scale(1 -1)" xlink:href="#_Áåçûìÿííûé_ãðàäèåíò_29"/>
    <linearGradient id="_Áåçûìÿííûé_ãðàäèåíò_29-82" data-name="Áåçûìÿííûé ãðàäèåíò 29" x1="-4882.93" y1="3867.21" x2="-4881.81" y2="3868.84" gradientTransform="translate(1569.82 6414.52) rotate(37.7) scale(1 -1)" xlink:href="#_Áåçûìÿííûé_ãðàäèåíò_29"/>
    <linearGradient id="_Áåçûìÿííûé_ãðàäèåíò_29-83" data-name="Áåçûìÿííûé ãðàäèåíò 29" x1="-4890.05" y1="3866.16" x2="-4888.99" y2="3867.72" gradientTransform="translate(1569.82 6414.52) rotate(37.7) scale(1 -1)" xlink:href="#_Áåçûìÿííûé_ãðàäèåíò_29"/>
    <linearGradient id="_Áåçûìÿííûé_ãðàäèåíò_29-84" data-name="Áåçûìÿííûé ãðàäèåíò 29" x1="-4892.47" y1="3866.09" x2="-4891.46" y2="3867.58" gradientTransform="translate(1569.82 6414.52) rotate(37.7) scale(1 -1)" xlink:href="#_Áåçûìÿííûé_ãðàäèåíò_29"/>
    <linearGradient id="_Áåçûìÿííûé_ãðàäèåíò_29-85" data-name="Áåçûìÿííûé ãðàäèåíò 29" x1="-10426.25" y1="5380.52" x2="-10425.34" y2="5381.85" gradientTransform="translate(-9312.54 7288.28) rotate(115.23) scale(1 -1)" xlink:href="#_Áåçûìÿííûé_ãðàäèåíò_29"/>
    <linearGradient id="_Áåçûìÿííûé_ãðàäèåíò_29-86" data-name="Áåçûìÿííûé ãðàäèåíò 29" x1="-10424.05" y1="5381.67" x2="-10423.25" y2="5382.85" gradientTransform="translate(-9312.54 7288.28) rotate(115.23) scale(1 -1)" xlink:href="#_Áåçûìÿííûé_ãðàäèåíò_29"/>
    <linearGradient id="_Áåçûìÿííûé_ãðàäèåíò_29-87" data-name="Áåçûìÿííûé ãðàäèåíò 29" x1="-10428.48" y1="5379.49" x2="-10427.5" y2="5380.94" gradientTransform="translate(-9312.54 7288.28) rotate(115.23) scale(1 -1)" xlink:href="#_Áåçûìÿííûé_ãðàäèåíò_29"/>
    <linearGradient id="_Áåçûìÿííûé_ãðàäèåíò_29-88" data-name="Áåçûìÿííûé ãðàäèåíò 29" x1="-10421.9" y1="5382.94" x2="-10421.21" y2="5383.95" gradientTransform="translate(-9312.54 7288.28) rotate(115.23) scale(1 -1)" xlink:href="#_Áåçûìÿííûé_ãðàäèåíò_29"/>
    <linearGradient id="_Áåçûìÿííûé_ãðàäèåíò_29-89" data-name="Áåçûìÿííûé ãðàäèåíò 29" x1="-10430.75" y1="5378.61" x2="-10429.71" y2="5380.13" gradientTransform="translate(-9312.54 7288.28) rotate(115.23) scale(1 -1)" xlink:href="#_Áåçûìÿííûé_ãðàäèåíò_29"/>
    <linearGradient id="_Áåçûìÿííûé_ãðàäèåíò_29-90" data-name="Áåçûìÿííûé ãðàäèåíò 29" x1="-10419.79" y1="5384.33" x2="-10419.23" y2="5385.15" gradientTransform="translate(-9312.54 7288.28) rotate(115.23) scale(1 -1)" xlink:href="#_Áåçûìÿííûé_ãðàäèåíò_29"/>
    <linearGradient id="_Áåçûìÿííûé_ãðàäèåíò_29-91" data-name="Áåçûìÿííûé ãðàäèåíò 29" x1="-10433.05" y1="5377.84" x2="-10431.97" y2="5379.44" gradientTransform="translate(-9312.54 7288.28) rotate(115.23) scale(1 -1)" xlink:href="#_Áåçûìÿííûé_ãðàäèåíò_29"/>
    <linearGradient id="_Áåçûìÿííûé_ãðàäèåíò_29-92" data-name="Áåçûìÿííûé ãðàäèåíò 29" x1="-10415.77" y1="5387.41" x2="-10415.48" y2="5387.83" gradientTransform="translate(-9312.54 7288.28) rotate(115.23) scale(1 -1)" xlink:href="#_Áåçûìÿííûé_ãðàäèåíò_29"/>
    <linearGradient id="_Áåçûìÿííûé_ãðàäèåíò_29-93" data-name="Áåçûìÿííûé ãðàäèåíò 29" x1="-10412.03" y1="5390.86" x2="-10412.02" y2="5390.87" gradientTransform="translate(-9312.54 7288.28) rotate(115.23) scale(1 -1)" xlink:href="#_Áåçûìÿííûé_ãðàäèåíò_29"/>
    <linearGradient id="_Áåçûìÿííûé_ãðàäèåíò_29-94" data-name="Áåçûìÿííûé ãðàäèåíò 29" x1="-10413.85" y1="5389.1" x2="-10413.71" y2="5389.3" gradientTransform="translate(-9312.54 7288.28) rotate(115.23) scale(1 -1)" xlink:href="#_Áåçûìÿííûé_ãðàäèåíò_29"/>
    <linearGradient id="_Áåçûìÿííûé_ãðàäèåíò_29-95" data-name="Áåçûìÿííûé ãðàäèåíò 29" x1="-10417.74" y1="5385.82" x2="-10417.32" y2="5386.44" gradientTransform="translate(-9312.54 7288.28) rotate(115.23) scale(1 -1)" xlink:href="#_Áåçûìÿííûé_ãðàäèåíò_29"/>
    <linearGradient id="_Áåçûìÿííûé_ãðàäèåíò_29-96" data-name="Áåçûìÿííûé ãðàäèåíò 29" x1="-10482.79" y1="5394.75" x2="-10482.55" y2="5395.11" gradientTransform="translate(-9312.54 7288.28) rotate(115.23) scale(1 -1)" xlink:href="#_Áåçûìÿííûé_ãðàäèåíò_29"/>
    <linearGradient id="_Áåçûìÿííûé_ãðàäèåíò_29-97" data-name="Áåçûìÿííûé ãðàäèåíò 29" x1="-10449.85" y1="5376.25" x2="-10448.87" y2="5377.69" gradientTransform="translate(-9312.54 7288.28) rotate(115.23) scale(1 -1)" xlink:href="#_Áåçûìÿííûé_ãðàäèåíò_29"/>
    <linearGradient id="_Áåçûìÿííûé_ãðàäèåíò_29-98" data-name="Áåçûìÿííûé ãðàäèåíò 29" x1="-10447.39" y1="5376.15" x2="-10446.43" y2="5377.56" gradientTransform="translate(-9312.54 7288.28) rotate(115.23) scale(1 -1)" xlink:href="#_Áåçûìÿííûé_ãðàäèåíò_29"/>
    <linearGradient id="_Áåçûìÿííûé_ãðàäèåíò_29-99" data-name="Áåçûìÿííûé ãðàäèåíò 29" x1="-10472.92" y1="5377.74" x2="-10466.36" y2="5387.38" gradientTransform="translate(-9312.54 7288.28) rotate(115.23) scale(1 -1)" xlink:href="#_Áåçûìÿííûé_ãðàäèåíò_29"/>
    <linearGradient id="_Áåçûìÿííûé_ãðàäèåíò_29-100" data-name="Áåçûìÿííûé ãðàäèåíò 29" x1="-10452.39" y1="5376.36" x2="-10451.29" y2="5377.98" gradientTransform="translate(-9312.54 7288.28) rotate(115.23) scale(1 -1)" xlink:href="#_Áåçûìÿííûé_ãðàäèåíò_29"/>
    <linearGradient id="_Áåçûìÿííûé_ãðàäèåíò_29-101" data-name="Áåçûìÿííûé ãðàäèåíò 29" x1="-10440.11" y1="5376.38" x2="-10439.02" y2="5377.98" gradientTransform="translate(-9312.54 7288.28) rotate(115.23) scale(1 -1)" xlink:href="#_Áåçûìÿííûé_ãðàäèåíò_29"/>
    <linearGradient id="_Áåçûìÿííûé_ãðàäèåíò_29-102" data-name="Áåçûìÿííûé ãðàäèåíò 29" x1="-10437.73" y1="5376.72" x2="-10436.62" y2="5378.36" gradientTransform="translate(-9312.54 7288.28) rotate(115.23) scale(1 -1)" xlink:href="#_Áåçûìÿííûé_ãðàäèåíò_29"/>
    <linearGradient id="_Áåçûìÿííûé_ãðàäèåíò_29-103" data-name="Áåçûìÿííûé ãðàäèåíò 29" x1="-10435.38" y1="5377.21" x2="-10434.27" y2="5378.84" gradientTransform="translate(-9312.54 7288.28) rotate(115.23) scale(1 -1)" xlink:href="#_Áåçûìÿííûé_ãðàäèåíò_29"/>
    <linearGradient id="_Áåçûìÿííûé_ãðàäèåíò_29-104" data-name="Áåçûìÿííûé ãðàäèåíò 29" x1="-10442.51" y1="5376.16" x2="-10441.45" y2="5377.72" gradientTransform="translate(-9312.54 7288.28) rotate(115.23) scale(1 -1)" xlink:href="#_Áåçûìÿííûé_ãðàäèåíò_29"/>
    <linearGradient id="_Áåçûìÿííûé_ãðàäèåíò_29-105" data-name="Áåçûìÿííûé ãðàäèåíò 29" x1="-10444.93" y1="5376.09" x2="-10443.92" y2="5377.58" gradientTransform="translate(-9312.54 7288.28) rotate(115.23) scale(1 -1)" xlink:href="#_Áåçûìÿííûé_ãðàäèåíò_29"/>
    <linearGradient id="_Áåçûìÿííûé_ãðàäèåíò_297" data-name="Áåçûìÿííûé ãðàäèåíò 297" x1="221.23" y1="96.47" x2="307.42" y2="182.67" gradientUnits="userSpaceOnUse">
      <stop offset=".2" stop-color="#e6dfc9"/>
      <stop offset=".57" stop-color="#977e9a"/>
      <stop offset=".75" stop-color="#775788"/>
    </linearGradient>
    <linearGradient id="_Áåçûìÿííûé_ãðàäèåíò_297-2" data-name="Áåçûìÿííûé ãðàäèåíò 297" x1="219.04" y1="106.84" x2="228.59" y2="116.38" xlink:href="#_Áåçûìÿííûé_ãðàäèåíò_297"/>
    <linearGradient id="_Áåçûìÿííûé_ãðàäèåíò_297-3" data-name="Áåçûìÿííûé ãðàäèåíò 297" x1="192.39" y1="100.94" x2="205.42" y2="113.97" xlink:href="#_Áåçûìÿííûé_ãðàäèåíò_297"/>
    <linearGradient id="_Áåçûìÿííûé_ãðàäèåíò_297-4" data-name="Áåçûìÿííûé ãðàäèåíò 297" x1="222.03" y1="104.18" x2="247.01" y2="129.16" xlink:href="#_Áåçûìÿííûé_ãðàäèåíò_297"/>
    <linearGradient id="_Áåçûìÿííûé_ãðàäèåíò_297-5" data-name="Áåçûìÿííûé ãðàäèåíò 297" x1="228.33" y1="291.38" x2="238.17" y2="301.22" xlink:href="#_Áåçûìÿííûé_ãðàäèåíò_297"/>
    <linearGradient id="_Áåçûìÿííûé_ãðàäèåíò_297-6" data-name="Áåçûìÿííûé ãðàäèåíò 297" x1="124.53" y1="123.32" x2="147.61" y2="146.4" xlink:href="#_Áåçûìÿííûé_ãðàäèåíò_297"/>
    <linearGradient id="_Áåçûìÿííûé_ãðàäèåíò_297-7" data-name="Áåçûìÿííûé ãðàäèåíò 297" x1="220.94" y1="297.15" x2="225.93" y2="302.14" xlink:href="#_Áåçûìÿííûé_ãðàäèåíò_297"/>
    <linearGradient id="_Áåçûìÿííûé_ãðàäèåíò_297-8" data-name="Áåçûìÿííûé ãðàäèåíò 297" x1="197.67" y1="301.17" x2="203.57" y2="307.07" xlink:href="#_Áåçûìÿííûé_ãðàäèåíò_297"/>
    <linearGradient id="_Áåçûìÿííûé_ãðàäèåíò_297-9" data-name="Áåçûìÿííûé ãðàäèåíò 297" x1="74.43" y1="217.43" x2="218.05" y2="361.05" xlink:href="#_Áåçûìÿííûé_ãðàäèåíò_297"/>
  </defs>
  <g class="cls-118">
    <g id="Layer_1" data-name="Layer 1">
      <g>
        <path class="cls-71" d="m256.63,320.99c-.49.21-.99.41-1.48.61,4.07-1.71,8.03-3.69,11.87-5.89-.21.12-.42.25-.63.38,10.15-5.87,19.29-13.5,26.78-22.53-.07.09-.14.18-.21.27,29.55-34.68,30.94-87.51,2.67-123.75.05.06.09.12.14.18-3.58-4.7-7.6-9.06-11.96-13.05.36.33.72.67,1.08,1.01-5.6-5.28-11.83-9.88-18.49-13.74.21.12.42.25.63.38-4.41-2.59-8.99-4.76-13.72-6.65.22.09.44.19.67.27-21.51-8.63-45.6-9.37-67.61-2.13.25-.08.5-.17.76-.25-16.42,5.23-31.4,14.83-42.98,27.59.17-.19.34-.38.52-.57-1.23,1.36-2.45,2.71-3.6,4.13.16-.19.32-.38.48-.57-1.42,1.66-2.75,3.4-4.07,5.14.25-.34.53-.68.79-1.02-.3.4-.62.78-.91,1.19.03-.04.06-.09.09-.13-1.42,2.01-2.83,4.03-4.15,6.11.29-.46.6-.91.89-1.37-21.15,32.53-21.06,75.33,0,107.42-.3-.46-.6-.91-.89-1.37,4.79,7.63,10.62,14.61,17.27,20.69-.49-.44-.96-.91-1.44-1.37,7.11,6.87,15.27,12.66,24.06,16.88.03.02.07.03.1.05-.03-.02-.07-.03-.1-.05,4.48,2.25,9.16,4.11,13.93,5.65-.25-.08-.5-.17-.76-.25,22.9,7.54,48.19,6.35,70.29-3.23Zm36.53-153.99c-.24-.29-.49-.57-.73-.86.24.29.49.57.73.86Zm-4.89-5.44c-.39-.39-.75-.8-1.14-1.19.39.39.76.8,1.14,1.19Zm-1.16-1.22c-.5-.49-1.02-.95-1.51-1.46.5.48,1.01.96,1.51,1.46Zm-11.88,150c.14-.1.28-.19.42-.29-.16.12-.33.23-.49.35.02-.02.04-.04.07-.05Zm-1.26.88c.2-.14.41-.27.61-.42-.85.61-1.71,1.2-2.57,1.78.66-.44,1.31-.91,1.96-1.37Zm-4.49,2.97c.26-.16.52-.31.78-.47-.7.45-1.41.88-2.13,1.31.45-.27.9-.56,1.35-.84Zm-126.28-149.5s-.03.03-.04.04c.01-.02.03-.03.04-.05,0,0,0,0,0,0Zm8.13,139.33c.27.23.52.47.78.7-.26-.23-.52-.47-.78-.7Zm6.38-152.73c-.83.62-1.65,1.25-2.46,1.9.94-.75,1.88-1.48,2.84-2.2-.13.1-.25.2-.38.29Zm14.5,167.05c.32.16.64.31.95.47-.32-.16-.64-.31-.95-.47Zm79.44,4.62c.76-.31,1.53-.57,2.29-.88-.76.3-1.53.59-2.29.88Z"/>
        <path class="cls-122" d="m139.99,168.49c-.61.75-1.18,1.52-1.76,2.29.54-.71,1.08-1.43,1.64-2.13.04-.05.08-.11.12-.16Z"/>
        <path class="cls-122" d="m142.27,165.74c-.26.3-.51.61-.76.91.25-.3.49-.59.74-.89,0,0,.01-.02.02-.02Z"/>
        <path class="cls-122" d="m144.69,163.04s-.04.04-.06.06c.02-.02.04-.04.05-.06,0,0,0,0,0,0Z"/>
        <path class="cls-122" d="m154.58,153.74c-1.1.9-2.18,1.84-3.25,2.79.02-.02.04-.03.05-.05,1.05-.94,2.11-1.85,3.19-2.74,0,0,0,0,0,0Z"/>
        <path class="cls-122" d="m251.35,323.09s0,0,0,0c-.48.18-.96.37-1.44.53.48-.17.96-.36,1.45-.54Z"/>
        <path class="cls-122" d="m162.37,147.97c-1.1.73-2.18,1.49-3.26,2.27.03-.02.07-.04.1-.07,1.04-.75,2.09-1.49,3.15-2.2,0,0,0,0,0,0Z"/>
        <path class="cls-122" d="m147.29,300.22c.59.59,1.21,1.15,1.82,1.73-.36-.34-.73-.68-1.08-1.03-.24-.23-.49-.46-.73-.7Z"/>
        <path class="cls-122" d="m174.19,319.33c-.14-.07-.28-.14-.42-.21-.16-.08-.33-.16-.49-.24.31.15.61.31.92.45Z"/>
        <path class="cls-122" d="m285.16,158.47c-.09-.09-.19-.18-.29-.27.09.09.19.18.28.27,0,0,0,0,0,0Z"/>
        <path class="cls-122" d="m295.54,169.97s0,0,0,0c.02.03.05.06.07.09-.03-.03-.05-.07-.08-.1Z"/>
        <path class="cls-122" d="m275.68,310.04c1.16-.86,2.31-1.75,3.44-2.66,0,0,0,0,0,0-1.12.91-2.26,1.79-3.41,2.64,0,0-.02.01-.02.02Z"/>
        <path class="cls-122" d="m292.08,294.82c.29-.33.59-.66.87-1-.28.34-.58.66-.87,1,0,0,0,0,0,0Z"/>
        <path class="cls-122" d="m259.27,140.77s0,0,0,0c.22.1.44.2.66.3-.22-.1-.44-.2-.66-.3Z"/>
        <path class="cls-122" d="m290.3,163.7c-.39-.43-.79-.84-1.19-1.26h0c.39.42.8.83,1.18,1.25,0,0,0,0,0,0Z"/>
        <path class="cls-122" d="m275.68,150.52c.66.49,1.31,1.01,1.96,1.52-.06-.05-.13-.1-.19-.15-.59-.45-1.17-.93-1.77-1.37Z"/>
        <path class="cls-122" d="m279.21,153.26c-.52-.42-1.05-.81-1.57-1.22.29.22.57.44.85.66.08.07.17.13.25.19.16.12.32.24.47.37Z"/>
        <path class="cls-122" d="m282.79,156.3c-.84-.74-1.69-1.47-2.54-2.18.24.2.47.41.71.61.09.07.17.15.26.22.48.41.96.81,1.44,1.23.05.04.1.08.14.12Z"/>
        <path class="cls-71" d="m163.35,98.68c.15.26.32.52.5.77.53.75,1.15,1.42,1.85,2.01t0,0c.42.35.88.67,1.36.95.06.03.11.07.17.11.46.26.94.49,1.44.68.08.03.17.06.25.09.5.18,1.02.32,1.56.43.07.01.15.02.23.03.57.09,1.14.15,1.73.15h74.2c3.55,0,6.69-1.76,8.6-4.45.18-.25.34-.5.5-.77.06-.1.13-.2.19-.31.81-1.5,1.27-3.21,1.27-5.03v-39.8h0c0-.89-.03-1.77-.08-2.65-.02-.28-.04-.55-.06-.83-.04-.6-.09-1.2-.16-1.8-.03-.32-.08-.63-.12-.95-.07-.55-.15-1.1-.24-1.65-.05-.32-.11-.63-.17-.94-.1-.55-.22-1.1-.34-1.64-.07-.29-.13-.59-.2-.88-.14-.58-.3-1.16-.46-1.74-.07-.24-.13-.48-.2-.72-.11-.38-.24-.76-.36-1.13-.11-.33-.22-.65-.33-.98-.03-.09-.06-.19-.1-.29-.31-.87-.65-1.73-1.01-2.57-.32-.75-.67-1.5-1.03-2.23-.04-.08-.08-.15-.12-.23-.34-.69-.7-1.37-1.08-2.04-.07-.12-.14-.24-.2-.36-.36-.63-.74-1.26-1.13-1.87-.07-.11-.14-.22-.21-.33-.35-.54-.71-1.07-1.08-1.6-.07-.1-.13-.19-.2-.29-.05-.07-.1-.14-.15-.21-2.55-3.53-5.57-6.69-8.98-9.4,0,0,0,0,0,0h0c-8.14-6.48-18.44-10.36-29.65-10.36-.21,0-.42.01-.63.02-.2,0-.4,0-.6,0-.22,0-.43.02-.64.03.21,0,.43-.01.64-.02-3.48.09-6.86.54-10.11,1.33-.21.05-.42.1-.63.15-1.03.27-2.04.57-3.04.9-.54.18-1.08.36-1.62.56-.74.27-1.46.56-2.18.87-2.04.87-4.01,1.88-5.89,3.02-.02.01-.04.03-.07.04-1.22.74-2.39,1.53-3.53,2.37-.24.18-.48.37-.72.55-.81.62-1.6,1.27-2.37,1.94-.52.45-1.02.92-1.52,1.39-.31.3-.62.59-.92.89-.89.9-1.74,1.84-2.56,2.8,0,0,0,0,0,0-7.02,8.29-11.26,19.02-11.26,30.81h0v39.81c0,1.82.46,3.54,1.27,5.03.06.11.13.2.19.31Z"/>
        <path class="cls-71" d="m163.35,109.2c.15.26.32.52.5.77.53.75,1.15,1.42,1.85,2.01t0,0c.42.35.88.67,1.36.95.06.03.11.07.17.11.46.26.94.49,1.44.68.08.03.17.06.25.09.5.18,1.02.32,1.56.43.07.01.15.02.23.03.57.09,1.14.15,1.73.15h74.2c3.55,0,6.69-1.76,8.6-4.45.18-.25.34-.5.5-.77.06-.1.13-.2.19-.31.81-1.5,1.27-3.21,1.27-5.03v-39.8h0c0-.89-.03-1.77-.08-2.65-.02-.28-.04-.55-.06-.83-.04-.6-.09-1.2-.16-1.8-.03-.32-.08-.63-.12-.95-.07-.55-.15-1.1-.24-1.65-.05-.32-.11-.63-.17-.94-.1-.55-.22-1.1-.34-1.64-.07-.29-.13-.59-.2-.88-.14-.58-.3-1.16-.46-1.73-.07-.24-.13-.48-.2-.72-.11-.38-.24-.76-.36-1.13-.11-.33-.22-.65-.33-.98-.03-.09-.06-.19-.1-.29-.31-.87-.65-1.73-1.01-2.57-.32-.76-.67-1.5-1.03-2.23-.04-.08-.08-.15-.12-.23-.34-.69-.7-1.37-1.08-2.04-.07-.12-.14-.24-.2-.36-.36-.63-.74-1.26-1.13-1.87-.07-.11-.14-.22-.21-.33-.35-.54-.71-1.07-1.08-1.6-.07-.1-.13-.19-.2-.29-.05-.07-.1-.14-.15-.21-2.55-3.53-5.57-6.69-8.98-9.4,0,0,0,0,0,0h0c-8.14-6.48-18.44-10.36-29.65-10.36-.21,0-.42.01-.63.02-.2,0-.4,0-.6,0-.22,0-.43.02-.64.03.21,0,.43-.01.64-.02-3.48.09-6.86.54-10.11,1.33-.21.05-.42.1-.63.15-1.03.27-2.04.57-3.04.9-.54.18-1.08.36-1.62.56-.74.27-1.46.56-2.18.87-2.04.87-4.01,1.88-5.89,3.02-.02.01-.04.03-.07.04-1.22.74-2.39,1.53-3.53,2.37-.24.18-.48.37-.72.55-.81.62-1.6,1.27-2.37,1.94-.52.45-1.02.92-1.52,1.39-.31.3-.62.59-.92.89-.89.9-1.74,1.84-2.56,2.8,0,0,0,0,0,0-7.02,8.29-11.26,19.02-11.26,30.81h0v39.81c0,1.82.46,3.54,1.27,5.03.06.11.13.2.19.31Z"/>
        <path class="cls-71" d="m299.29,144.08c-.18.25-.34.5-.49.77-.46.79-.82,1.64-1.06,2.52t0,0c-.15.53-.24,1.08-.3,1.63,0,.07-.02.13-.02.2-.05.53-.05,1.06-.02,1.6,0,.09.01.18.02.27.05.53.13,1.07.26,1.6.02.07.04.15.06.22.15.55.33,1.1.58,1.64l30.67,67.57c1.47,3.24,4.37,5.36,7.61,5.99.3.06.6.1.9.13.12.01.24.03.36.04,1.7.12,3.45-.17,5.11-.92l29.88-13.56,6.37-2.89h0c.81-.37,1.6-.76,2.38-1.17.25-.13.48-.27.73-.4.53-.29,1.06-.58,1.57-.89.27-.16.54-.33.81-.5.47-.29.94-.59,1.4-.9.27-.18.53-.36.79-.54.46-.32.91-.65,1.35-.99.24-.18.48-.36.72-.55.47-.37.93-.75,1.39-1.14.19-.16.38-.32.57-.48.3-.26.59-.53.88-.8.25-.23.5-.47.75-.7.07-.07.15-.14.22-.21.66-.64,1.3-1.31,1.92-1.99.55-.61,1.09-1.23,1.61-1.86.05-.07.1-.13.16-.2.49-.6.96-1.2,1.41-1.82.08-.11.16-.22.24-.33.43-.59.84-1.19,1.24-1.8.07-.11.14-.22.21-.33.35-.54.68-1.09,1.01-1.64.06-.1.12-.2.18-.3.04-.07.09-.15.13-.22,2.16-3.78,3.79-7.84,4.85-12.06,0,0,0,0,0,0h0c2.54-10.09,1.81-21.07-2.82-31.28-.09-.19-.19-.38-.27-.57-.08-.18-.16-.36-.25-.54-.09-.19-.2-.38-.29-.57.1.19.19.38.28.57-1.52-3.13-3.33-6.02-5.39-8.66-.13-.17-.26-.35-.4-.52-.67-.83-1.37-1.62-2.08-2.39-.39-.42-.78-.84-1.18-1.24-.55-.56-1.12-1.1-1.7-1.63-1.64-1.5-3.37-2.87-5.18-4.11-.02-.01-.04-.03-.07-.04-1.17-.8-2.38-1.55-3.62-2.24-.26-.15-.53-.29-.8-.43-.9-.48-1.82-.94-2.75-1.36-.63-.28-1.26-.55-1.89-.81-.4-.16-.79-.32-1.19-.47-1.19-.44-2.39-.83-3.61-1.18,0,0,0,0,0,0-10.45-2.97-21.98-2.39-32.71,2.48h0s-6.37,2.89-6.37,2.89l-29.88,13.56c-1.66.75-3.03,1.88-4.06,3.24-.07.1-.13.2-.2.3Z"/>
        <path class="cls-71" d="m315.33,272.91c-.28-.11-.57-.22-.86-.31-.88-.27-1.78-.42-2.69-.46t0,0c-.55-.02-1.11.01-1.66.08-.07,0-.13.01-.2.02-.53.07-1.05.19-1.56.34-.09.03-.17.05-.25.08-.51.17-1.01.37-1.5.62-.07.03-.13.07-.2.11-.5.27-1,.58-1.47.94l-58.75,45.33c-2.81,2.17-4.22,5.48-4.09,8.78.01.3.04.61.08.91.02.12.02.24.04.36.27,1.68.95,3.32,2.07,4.76l20.04,25.98,4.27,5.54h0c.54.71,1.11,1.39,1.68,2.05.18.21.37.41.55.62.4.45.81.9,1.22,1.33.22.23.45.45.67.68.4.39.79.78,1.2,1.16.23.22.47.43.71.64.42.37.84.74,1.27,1.09.23.19.46.38.7.57.47.37.95.74,1.43,1.09.2.15.4.3.6.44.32.23.65.45.98.67.28.19.57.38.86.57.08.05.17.11.25.17.78.5,1.57.97,2.37,1.42.72.4,1.45.78,2.18,1.14.08.04.15.07.23.11.69.34,1.39.65,2.1.96.13.05.25.1.38.16.67.28,1.35.55,2.04.79.12.04.25.09.37.13.61.21,1.21.42,1.83.61.11.03.22.07.33.1.08.02.16.05.24.07,4.18,1.23,8.5,1.89,12.85,1.96,0,0,0,0,0,0h0c10.4.16,20.93-3.06,29.81-9.91.17-.13.32-.27.49-.4.16-.12.32-.24.47-.36.17-.14.32-.28.49-.42-.16.14-.33.27-.5.4,2.7-2.19,5.1-4.62,7.19-7.23.14-.17.28-.34.41-.51.65-.84,1.26-1.7,1.85-2.57.32-.47.64-.95.94-1.43.42-.67.81-1.34,1.2-2.02,1.09-1.94,2.02-3.94,2.82-5.99,0-.02.02-.05.03-.07.51-1.33.96-2.67,1.35-4.04.08-.29.16-.58.24-.88.26-.99.49-1.98.69-2.99.13-.67.25-1.35.35-2.03.06-.42.13-.84.19-1.27.16-1.26.26-2.52.32-3.78,0,0,0,0,0,0,.49-10.85-2.71-21.94-9.9-31.27h0s-4.27-5.54-4.27-5.54l-20.04-25.98c-1.11-1.44-2.53-2.52-4.08-3.21-.11-.05-.23-.08-.34-.13Z"/>
        <path class="cls-71" d="m101.64,275.81c.28-.11.57-.22.86-.3.88-.27,1.78-.42,2.69-.46t0,0c.55-.02,1.11.01,1.66.08.07,0,.13.01.2.02.53.07,1.05.19,1.56.35.09.03.17.05.25.08.51.17,1.01.37,1.5.62.07.03.13.07.2.11.5.27,1,.58,1.47.94l58.71,45.38c2.81,2.17,4.22,5.48,4.08,8.78-.01.3-.04.61-.08.91-.02.12-.02.24-.04.36-.27,1.68-.96,3.32-2.07,4.76l-20.07,25.96-4.28,5.53h0c-.54.7-1.11,1.39-1.68,2.05-.18.21-.37.41-.55.62-.4.45-.81.89-1.22,1.32-.22.23-.45.45-.67.68-.4.39-.79.78-1.2,1.16-.24.22-.47.43-.71.64-.42.37-.84.74-1.27,1.09-.23.19-.46.38-.7.57-.47.37-.95.74-1.43,1.09-.2.15-.4.3-.6.44-.32.23-.65.45-.98.67-.28.19-.57.38-.86.57-.08.05-.17.11-.25.17-.78.5-1.57.97-2.37,1.41-.72.4-1.45.78-2.18,1.14-.08.04-.15.07-.23.11-.69.33-1.39.65-2.1.95-.13.05-.25.1-.38.16-.67.28-1.35.54-2.04.79-.12.04-.25.09-.37.13-.61.21-1.21.42-1.83.6-.11.03-.22.07-.33.1-.08.02-.16.05-.24.07-4.18,1.23-8.5,1.88-12.85,1.95,0,0,0,0,0,0h0c-10.4.15-20.93-3.08-29.8-9.94-.17-.13-.32-.27-.49-.4-.16-.12-.32-.24-.47-.36-.17-.14-.32-.28-.49-.42.16.14.33.27.5.4-2.7-2.2-5.1-4.62-7.19-7.24-.14-.17-.28-.34-.41-.51-.65-.84-1.26-1.7-1.85-2.57-.32-.47-.64-.95-.94-1.43-.42-.67-.81-1.34-1.19-2.03-1.09-1.94-2.02-3.94-2.81-5.99,0-.02-.02-.05-.03-.07-.51-1.33-.96-2.67-1.34-4.04-.08-.29-.16-.58-.23-.88-.26-.99-.49-1.98-.69-2.99-.13-.67-.25-1.35-.35-2.03-.06-.42-.13-.84-.19-1.27-.16-1.26-.26-2.52-.31-3.78,0,0,0,0,0,0-.48-10.85,2.73-21.94,9.93-31.26h0s4.28-5.53,4.28-5.53l20.07-25.96c1.11-1.44,2.53-2.52,4.09-3.2.11-.05.23-.08.34-.13Z"/>
        <path class="cls-71" d="m116.01,151.34c.17.25.33.51.48.78.45.8.8,1.65,1.03,2.53t0,0c.14.54.23,1.08.28,1.64,0,.07.02.13.02.2.04.53.04,1.06,0,1.6,0,.09-.01.18-.02.27-.05.53-.14,1.07-.28,1.59-.02.07-.04.15-.07.22-.16.55-.35,1.1-.6,1.63l-31.63,67.12c-1.51,3.21-4.44,5.3-7.69,5.89-.3.05-.6.09-.91.12-.12.01-.24.03-.36.04-1.7.1-3.45-.22-5.1-.99l-29.68-13.99-6.33-2.98h0c-.81-.38-1.59-.78-2.37-1.2-.24-.13-.48-.27-.72-.41-.53-.3-1.05-.59-1.56-.91-.27-.17-.54-.34-.81-.51-.47-.3-.93-.61-1.39-.92-.26-.18-.52-.37-.78-.56-.45-.33-.9-.66-1.34-1-.24-.18-.48-.37-.71-.56-.47-.38-.92-.76-1.37-1.16-.19-.16-.38-.32-.56-.49-.29-.27-.58-.54-.87-.81-.25-.24-.5-.47-.74-.71-.07-.07-.15-.14-.22-.21-.65-.65-1.28-1.33-1.89-2.01-.54-.61-1.07-1.24-1.58-1.88-.05-.07-.1-.13-.15-.2-.48-.6-.94-1.22-1.38-1.84-.08-.11-.16-.22-.23-.34-.42-.6-.82-1.2-1.21-1.82-.07-.11-.14-.22-.21-.33-.34-.55-.67-1.1-.98-1.65-.06-.1-.11-.2-.17-.3-.04-.07-.08-.15-.12-.22-2.1-3.81-3.68-7.89-4.68-12.13,0,0,0,0,0,0h0c-2.39-10.13-1.51-21.1,3.27-31.24.09-.19.19-.37.28-.56.09-.18.16-.36.25-.54.1-.19.2-.38.3-.57-.1.19-.19.38-.29.57,1.56-3.11,3.41-5.98,5.51-8.58.14-.17.27-.34.41-.51.68-.82,1.39-1.6,2.11-2.36.39-.42.79-.83,1.19-1.23.56-.55,1.13-1.08,1.72-1.6,1.66-1.48,3.41-2.82,5.24-4.04.02-.01.04-.03.07-.04,1.19-.79,2.4-1.51,3.65-2.18.27-.14.54-.28.8-.42.91-.47,1.83-.91,2.77-1.32.63-.27,1.27-.54,1.91-.78.4-.15.79-.31,1.2-.45,1.19-.42,2.4-.8,3.63-1.12,0,0,0,0,0,0,10.49-2.82,22.01-2.08,32.67,2.95h0s6.33,2.98,6.33,2.98l29.68,13.99c1.65.78,3,1.93,4.01,3.3.07.1.13.2.2.3Z"/>
        <g>
          <path class="cls-120" d="m230.17,98.03h-74.2c-5.83,0-10.56-4.73-10.56-10.56v-39.81c0-26.32,21.34-47.66,47.66-47.66h0c26.32,0,47.66,21.34,47.66,47.66v39.81c0,5.83-4.73,10.56-10.56,10.56Z"/>
          <path class="cls-119" d="m235.6,83.33v-35.52c0-23.49-19.04-42.53-42.53-42.53s-42.53,19.04-42.53,42.53v35.52c0,5.2,4.22,9.42,9.42,9.42h66.22c5.2,0,9.42-4.22,9.42-9.42Z"/>
          <path class="cls-119" d="m150.53,54.66v-7c0-23.64,18.89-42.39,42.53-42.39s42.53,18.74,42.53,42.39v7h5.13v-7c0-26.32-21.34-47.66-47.66-47.66s-47.66,21.2-47.66,47.66v7h5.13Z"/>
          <g>
            <path class="cls-24" d="m212.59,4.18c.23.1.45.2.68.31-.22-.11-.45-.2-.68-.31Z"/>
            <path class="cls-37" d="m214.76,5.23c.19.1.38.19.57.29-.19-.1-.38-.2-.57-.29Z"/>
            <path class="cls-30" d="m210.36,3.25c.26.1.52.2.78.31-.26-.11-.52-.21-.78-.31Z"/>
            <path class="cls-40" d="m216.88,6.38c.16.09.31.18.47.27-.15-.09-.31-.18-.47-.27Z"/>
            <path class="cls-6" d="m208.1,2.43c.29.1.58.19.87.29-.29-.1-.58-.2-.87-.29Z"/>
            <path class="cls-107" d="m218.94,7.64c.12.08.24.15.36.23-.12-.08-.24-.15-.36-.23Z"/>
            <path class="cls-7" d="m205.78,1.73c.32.09.64.18.96.27-.32-.09-.64-.18-.96-.27Z"/>
            <path class="cls-62" d="m223.01,10.59c-.05-.04-.11-.09-.17-.13.05.04.11.09.17.13Z"/>
            <polygon class="cls-51" points="226.46 13.66 226.46 13.66 226.45 13.66 226.46 13.66"/>
            <path class="cls-100" d="m224.77,12.08s-.05-.04-.08-.07c.03.02.05.04.08.07Z"/>
            <path class="cls-15" d="m220.93,9c.09.06.17.12.26.18-.08-.06-.17-.12-.26-.18Z"/>
            <path class="cls-89" d="m155.7,18.04c.12-.15.23-.3.35-.44-.12.15-.23.29-.35.44Z"/>
            <path class="cls-109" d="m188.69.21c.46-.04.92-.08,1.38-.1-.46.03-.92.06-1.38.1Z"/>
            <path class="cls-29" d="m192.45.02c-.2,0-.4,0-.6,0-.22,0-.43.02-.64.03.41-.02.83-.03,1.25-.03Z"/>
            <path class="cls-10" d="m185.59.58c-11.6,1.79-21.74,7.67-28.93,16.27,7.22-8.53,17.39-14.47,28.93-16.27Z"/>
            <path class="cls-86" d="m186.09.51c.56-.08,1.12-.15,1.69-.21-.57.06-1.13.13-1.69.21Z"/>
            <path class="cls-120" d="m193.07,5.27c-23.64,0-42.53,18.74-42.53,42.39v7h-5.13l8.93,7.67c2.26,1.94,5.77.4,5.84-2.58.39-17.38,7.1-56.7,61.42-43.93-7.52-6.86-17.51-10.55-28.53-10.55Z"/>
            <path class="cls-8" d="m198.64.33c.38.04.77.09,1.15.15-.38-.05-.76-.1-1.15-.15Z"/>
            <path class="cls-96" d="m201.05.68c.37.06.73.13,1.1.2-.37-.07-.73-.13-1.1-.2Z"/>
            <path class="cls-104" d="m203.43,1.14c.35.08.69.16,1.04.24-.34-.08-.69-.16-1.04-.24Z"/>
            <path class="cls-64" d="m196.19.11c.4.03.79.05,1.19.09-.4-.04-.79-.07-1.19-.09Z"/>
            <path class="cls-65" d="m193.72.02c.41,0,.81.02,1.22.03-.4-.02-.81-.02-1.22-.03Z"/>
          </g>
          <path class="cls-21" d="m240.73,87.47v-39.81c0-15.11-7.04-28.57-18.01-37.3,2.62,23.27-1.37,77.73-75.9,82.39.76,1.38,1.76,2.26,2.39,2.83,1.83,1.52,4.18,2.44,6.75,2.44h74.2c5.83,0,10.56-4.73,10.56-10.56Z"/>
          <path class="cls-121" d="m150.53,54.66v-7c0-23.64,18.89-42.39,42.53-42.39s42.53,18.74,42.53,42.39v7h5.13v-7c0-26.32-21.34-47.66-47.66-47.66s-47.66,21.2-47.66,47.66v7h5.13Z"/>
        </g>
        <g>
          <path class="cls-120" d="m311.56,206.71l-31.36-67.25c-2.46-5.29-.18-11.57,5.11-14.03l36.08-16.82c23.86-11.12,52.21-.8,63.34,23.05h0c11.12,23.86.8,52.21-23.05,63.34l-36.08,16.82c-5.29,2.46-11.57.18-14.03-5.11Z"/>
          <path class="cls-119" d="m327.18,205.42l32.19-15.01c21.29-9.93,30.5-35.23,20.57-56.52-9.93-21.29-35.23-30.5-56.52-20.57l-32.19,15.01c-4.72,2.2-6.76,7.81-4.56,12.52l27.99,60.01c2.2,4.72,7.81,6.76,12.52,4.56Z"/>
          <path class="cls-119" d="m317.21,116.21l6.34-2.96c21.43-9.99,46.4-.8,56.39,20.63,9.99,21.43.99,46.47-20.44,56.46l-6.34,2.96,2.17,4.65,6.34-2.96c23.86-11.12,34.18-39.48,23.05-63.34-11.12-23.86-39.36-34.24-63.34-23.05l-6.34,2.96,2.17,4.65Z"/>
          <g>
            <path class="cls-112" d="m389.18,151.12c0,.25,0,.5,0,.74,0-.25,0-.5,0-.74Z"/>
            <path class="cls-116" d="m389.15,153.53c0,.21-.01.43-.02.64.01-.21.02-.43.02-.64Z"/>
            <path class="cls-48" d="m389.09,148.71c.02.28.04.56.05.84-.01-.28-.03-.56-.05-.84Z"/>
            <path class="cls-45" d="m389,155.94c-.02.18-.03.36-.05.54.02-.18.03-.36.05-.54Z"/>
            <path class="cls-74" d="m388.87,146.31c.04.3.07.61.1.91-.03-.3-.07-.61-.1-.91Z"/>
            <path class="cls-20" d="m388.73,158.34c-.02.14-.04.28-.06.42.02-.14.04-.28.06-.42Z"/>
            <path class="cls-49" d="m388.53,143.91c.06.33.11.66.16.98-.05-.33-.1-.66-.16-.98Z"/>
            <path class="cls-69" d="m387.78,163.27c.02-.07.03-.14.05-.2-.02.07-.03.14-.05.2Z"/>
            <polygon class="cls-5" points="386.45 167.69 386.45 167.69 386.46 167.69 386.45 167.69"/>
            <path class="cls-26" d="m387.17,165.5s.02-.07.03-.1c0,.03-.02.07-.03.1Z"/>
            <path class="cls-35" d="m388.34,160.72c-.02.1-.04.21-.06.31.02-.1.04-.21.06-.31Z"/>
            <path class="cls-12" d="m352.58,105.41c.18.04.37.08.55.13-.18-.04-.36-.09-.55-.13Z"/>
            <path class="cls-84" d="m382.69,127.78c.23.4.46.8.68,1.21-.22-.41-.45-.81-.68-1.21Z"/>
            <path class="cls-28" d="m384.45,131.1c-.09-.18-.16-.37-.26-.55-.1-.19-.2-.38-.3-.57.19.37.37.74.55,1.12Z"/>
            <path class="cls-110" d="m381.04,125.13c-6.52-9.76-16.14-16.46-26.98-19.34,10.78,2.94,20.46,9.64,26.98,19.34Z"/>
            <path class="cls-11" d="m381.31,125.55c.31.47.61.95.91,1.44-.3-.49-.6-.97-.91-1.44Z"/>
            <path class="cls-120" d="m379.94,133.89c-9.99-21.43-34.96-30.63-56.39-20.63l-6.34,2.96-2.17-4.65h0l-3.18,11.34c-.8,2.87,2.08,5.4,4.8,4.2,15.91-6.99,54.39-17.53,65.78,37.1,3.03-9.72,2.16-20.32-2.5-30.31Z"/>
            <path class="cls-77" d="m386.77,136.85c.12.37.24.73.35,1.1-.11-.37-.23-.74-.35-1.1Z"/>
            <path class="cls-60" d="m387.48,139.18c.1.36.2.72.29,1.08-.09-.36-.19-.72-.29-1.08Z"/>
            <path class="cls-87" d="m388.07,141.54c.08.35.15.7.22,1.04-.07-.35-.14-.7-.22-1.04Z"/>
            <path class="cls-57" d="m385.94,134.54c.15.37.29.74.42,1.12-.13-.37-.28-.75-.42-1.12Z"/>
            <path class="cls-50" d="m384.98,132.26c.17.37.33.74.49,1.12-.16-.37-.32-.74-.49-1.12Z"/>
          </g>
          <path class="cls-21" d="m325.59,211.82l36.08-16.82c13.69-6.39,22.92-18.45,26.19-32.09-19.98,12.21-71.03,31.61-106.75-33.97-.93,1.27-1.31,2.55-1.56,3.36-.61,2.3-.45,4.82.64,7.15l31.36,67.25c2.46,5.29,8.75,7.57,14.03,5.11Z"/>
          <path class="cls-121" d="m317.21,116.21l6.34-2.96c21.43-9.99,46.4-.8,56.39,20.63,9.99,21.43.99,46.47-20.44,56.46l-6.34,2.96,2.17,4.65,6.34-2.96c23.86-11.12,34.18-39.48,23.05-63.34-11.12-23.86-39.36-34.24-63.34-23.05l-6.34,2.96,2.17,4.65Z"/>
        </g>
        <g>
          <path class="cls-120" d="m230.69,307.19l58.75-45.33c4.62-3.56,11.25-2.71,14.81,1.91l24.31,31.52c16.08,20.84,12.22,50.77-8.62,66.85h0c-20.84,16.08-50.77,12.22-66.85-8.62l-24.31-31.52c-3.56-4.62-2.71-11.25,1.91-14.81Z"/>
          <path class="cls-119" d="m235.37,322.14l21.7,28.12c14.35,18.6,41.06,22.04,59.66,7.7,18.6-14.35,22.04-41.06,7.69-59.66l-21.7-28.12c-3.18-4.12-9.1-4.88-13.22-1.7l-52.43,40.45c-4.12,3.18-4.88,9.1-1.71,13.22Z"/>
          <path class="cls-119" d="m320.24,292.88l4.27,5.54c14.44,18.72,10.94,45.1-7.78,59.54-18.72,14.44-45.13,11.14-59.57-7.58l-4.27-5.54-4.06,3.13,4.27,5.54c16.08,20.84,46.01,24.7,66.85,8.62,20.84-16.08,24.79-45.9,8.62-66.85l-4.27-5.54-4.06,3.13Z"/>
          <g>
            <path class="cls-91" d="m301.94,370.75c-.24.06-.48.12-.72.17.24-.05.48-.11.72-.17Z"/>
            <path class="cls-75" d="m299.58,371.25c-.21.04-.42.08-.63.12.21-.04.42-.08.63-.12Z"/>
            <path class="cls-66" d="m304.27,370.13c-.27.08-.54.16-.8.23.27-.07.54-.15.8-.23Z"/>
            <path class="cls-1" d="m297.2,371.63c-.18.02-.35.05-.53.07.18-.02.35-.05.53-.07Z"/>
            <path class="cls-17" d="m306.56,369.39c-.29.1-.58.2-.87.3.29-.1.58-.2.87-.3Z"/>
            <path class="cls-90" d="m294.8,371.89c-.14.01-.28.03-.42.04.14-.01.28-.03.42-.04Z"/>
            <path class="cls-99" d="m308.82,368.54c-.31.13-.62.25-.93.37.31-.12.62-.24.93-.37Z"/>
            <path class="cls-32" d="m289.77,372.05c.07,0,.14,0,.21,0-.07,0-.14,0-.21,0Z"/>
            <polygon class="cls-113" points="285.17 371.72 285.17 371.72 285.17 371.72 285.17 371.72"/>
            <path class="cls-44" d="m287.47,371.94s.07,0,.1,0c-.03,0-.07,0-.1,0Z"/>
            <path class="cls-61" d="m292.39,372.03c-.11,0-.21,0-.32.01.1,0,.21,0,.32-.01Z"/>
            <path class="cls-98" d="m338.52,325.03c0,.19,0,.37,0,.56,0-.19,0-.37,0-.56Z"/>
            <path class="cls-53" d="m323.29,359.3c-.34.31-.68.62-1.03.92.35-.3.69-.61,1.03-.92Z"/>
            <path class="cls-27" d="m320.43,361.75c.16-.13.32-.24.48-.37.17-.14.32-.28.49-.42-.32.27-.64.53-.97.79Z"/>
            <path class="cls-79" d="m325.51,357.11c8.09-8.5,12.53-19.35,12.97-30.56-.51,11.16-4.93,22.07-12.97,30.56Z"/>
            <path class="cls-73" d="m325.16,357.48c-.39.41-.8.81-1.21,1.2.41-.39.81-.8,1.21-1.2Z"/>
            <path class="cls-120" d="m316.73,357.96c18.72-14.44,22.23-40.82,7.78-59.54l-4.27-5.54,4.06-3.13h0l-11.76-.62c-2.97-.16-4.81,3.21-3.05,5.61,10.31,13.99,29.02,49.23-21.8,72.31,10.14.83,20.3-2.35,29.03-9.08Z"/>
            <path class="cls-103" d="m315.33,365.28c-.33.2-.66.4-1,.59.33-.19.67-.39,1-.59Z"/>
            <path class="cls-63" d="m313.21,366.48c-.33.18-.66.35-.99.52.33-.17.66-.34.99-.52Z"/>
            <path class="cls-55" d="m311.04,367.57c-.32.15-.65.3-.97.45.32-.14.65-.29.97-.45Z"/>
            <path class="cls-42" d="m317.41,363.96c-.33.22-.66.44-1,.66.33-.21.67-.43,1-.66Z"/>
            <path class="cls-88" d="m319.42,362.52c-.33.24-.65.48-.98.72.33-.23.66-.47.98-.72Z"/>
          </g>
          <path class="cls-21" d="m228.78,322l24.31,31.52c9.23,11.96,23.02,18.32,37.04,18.53-16.29-16.82-46.4-62.38,9.76-111.6-1.45-.63-2.77-.72-3.62-.78-2.38-.09-4.8.62-6.84,2.19l-58.75,45.33c-4.62,3.56-5.47,10.19-1.91,14.81Z"/>
          <path class="cls-121" d="m320.24,292.88l4.27,5.54c14.44,18.72,10.94,45.1-7.78,59.54-18.72,14.44-45.13,11.14-59.57-7.58l-4.27-5.54-4.06,3.13,4.27,5.54c16.08,20.84,46.01,24.7,66.85,8.62,20.84-16.08,24.79-45.9,8.62-66.85l-4.27-5.54-4.06,3.13Z"/>
        </g>
        <g>
          <path class="cls-120" d="m153.01,307.39l-58.71-45.38c-4.61-3.57-11.25-2.72-14.81,1.9l-24.34,31.49c-16.1,20.83-12.27,50.76,8.56,66.86h0c20.83,16.1,50.76,12.27,66.86-8.56l24.34-31.49c3.57-4.61,2.72-11.25-1.9-14.81Z"/>
          <path class="cls-119" d="m148.32,322.35l-21.72,28.1c-14.37,18.59-41.08,22.01-59.66,7.64-18.59-14.37-22.01-41.08-7.64-59.66l21.72-28.1c3.18-4.12,9.1-4.88,13.22-1.69l52.39,40.5c4.12,3.18,4.88,9.1,1.69,13.22Z"/>
          <path class="cls-119" d="m63.48,293.01l-4.28,5.53c-14.46,18.71-10.98,45.09,7.73,59.55,18.71,14.46,45.11,11.18,59.58-7.52l4.28-5.53,4.06,3.14-4.28,5.53c-16.1,20.83-46.03,24.66-66.86,8.56-20.83-16.1-24.74-45.92-8.56-66.86l4.28-5.53,4.06,3.14Z"/>
          <g>
            <path class="cls-106" d="m81.7,370.89c.24.06.48.12.72.17-.24-.05-.48-.11-.72-.17Z"/>
            <path class="cls-33" d="m84.06,371.39c.21.04.42.08.63.12-.21-.04-.42-.08-.63-.12Z"/>
            <path class="cls-102" d="m79.37,370.27c.27.08.54.16.8.23-.27-.07-.54-.15-.8-.23Z"/>
            <path class="cls-14" d="m86.44,371.78c.18.02.35.05.53.07-.18-.02-.35-.05-.53-.07Z"/>
            <path class="cls-80" d="m77.08,369.53c.29.1.58.2.87.3-.29-.1-.58-.2-.87-.3Z"/>
            <path class="cls-83" d="m88.84,372.04c.14.01.28.03.42.04-.14-.01-.28-.03-.42-.04Z"/>
            <path class="cls-9" d="m74.82,368.67c.31.13.62.25.92.37-.31-.12-.62-.25-.92-.37Z"/>
            <path class="cls-46" d="m93.87,372.2c-.07,0-.14,0-.21,0,.07,0,.14,0,.21,0Z"/>
            <polygon class="cls-95" points="98.47 371.87 98.47 371.87 98.47 371.87 98.47 371.87"/>
            <path class="cls-97" d="m96.17,372.09s-.07,0-.1,0c.03,0,.07,0,.1,0Z"/>
            <path class="cls-81" d="m91.25,372.18c.11,0,.21,0,.32.01-.1,0-.21,0-.32-.01Z"/>
            <path class="cls-23" d="m45.17,325.13c0,.19,0,.37,0,.56,0-.19,0-.37,0-.56Z"/>
            <path class="cls-93" d="m60.36,359.42c.34.31.68.62,1.03.93-.35-.3-.69-.61-1.03-.93Z"/>
            <path class="cls-76" d="m63.22,361.87c-.16-.13-.32-.24-.48-.37-.17-.14-.32-.28-.49-.42.32.27.64.53.97.79Z"/>
            <path class="cls-67" d="m58.15,357.23c-8.09-8.51-12.51-19.36-12.94-30.57.5,11.16,4.91,22.08,12.94,30.57Z"/>
            <path class="cls-101" d="m58.5,357.59c.39.41.8.81,1.21,1.2-.41-.4-.81-.8-1.21-1.2Z"/>
            <path class="cls-120" d="m66.93,358.09c-18.71-14.46-22.19-40.84-7.73-59.55l4.28-5.53-4.06-3.14h0l11.76-.61c2.97-.15,4.81,3.21,3.04,5.61-10.32,13.98-29.06,49.21,21.73,72.33-10.15.82-20.3-2.36-29.02-9.1Z"/>
            <path class="cls-105" d="m68.31,365.4c.33.2.66.4,1,.59-.33-.19-.67-.39-1-.59Z"/>
            <path class="cls-114" d="m70.43,366.61c.33.18.66.35.99.52-.33-.17-.66-.34-.99-.52Z"/>
            <path class="cls-70" d="m72.6,367.7c.32.15.64.3.97.45-.32-.14-.65-.29-.97-.45Z"/>
            <path class="cls-111" d="m66.24,364.08c.33.22.66.44,1,.66-.33-.21-.67-.43-1-.66Z"/>
            <path class="cls-54" d="m64.23,362.65c.33.24.65.48.98.72-.33-.24-.66-.48-.98-.72Z"/>
          </g>
          <path class="cls-21" d="m154.9,322.21l-24.34,31.49c-9.24,11.95-23.04,18.3-37.06,18.5,16.3-16.81,46.46-62.34-9.66-111.6,1.45-.63,2.77-.71,3.62-.78,2.38-.09,4.8.63,6.84,2.2l58.71,45.38c4.61,3.57,5.46,10.2,1.9,14.81Z"/>
          <path class="cls-121" d="m63.48,293.01l-4.28,5.53c-14.46,18.71-10.98,45.09,7.73,59.55,18.71,14.46,45.11,11.18,59.58-7.52l4.28-5.53,4.06,3.14-4.28,5.53c-16.1,20.83-46.03,24.66-66.86,8.56-20.83-16.1-24.74-45.92-8.56-66.86l4.28-5.53,4.06,3.14Z"/>
        </g>
        <g>
          <path class="cls-120" d="m77.42,207.01l31.63-67.12c2.49-5.28.22-11.57-5.05-14.05l-36.01-16.97c-23.81-11.22-52.21-1.01-63.43,22.8h0c-11.22,23.81-1.01,52.21,22.8,63.43l36.01,16.97c5.28,2.49,11.57.22,14.05-5.05Z"/>
          <path class="cls-119" d="m61.81,205.66l-32.13-15.14c-21.25-10.01-30.36-35.36-20.35-56.61,10.01-21.25,35.36-30.36,56.61-20.34l32.13,15.14c4.71,2.22,6.73,7.83,4.51,12.54l-28.23,59.9c-2.22,4.71-7.83,6.73-12.54,4.51Z"/>
          <path class="cls-119" d="m72.13,116.49l-6.33-2.98c-21.39-10.08-46.4-.98-56.47,20.41-10.08,21.39-1.18,46.47,20.21,56.54l6.33,2.98-2.19,4.64-6.33-2.98c-23.81-11.22-34.02-39.62-22.8-63.43,11.22-23.81,39.5-34.08,63.43-22.8l6.33,2.98-2.19,4.64Z"/>
          <g>
            <path class="cls-3" d="m.02,151.11c0,.25-.01.5-.01.74,0-.25,0-.5.01-.74Z"/>
            <path class="cls-94" d="m.04,153.52c0,.21.01.43.02.64,0-.21-.01-.43-.02-.64Z"/>
            <path class="cls-4" d="m.13,148.7c-.02.28-.04.56-.05.84.01-.28.03-.56.05-.84Z"/>
            <path class="cls-59" d="m.18,155.92c.01.18.03.36.04.54-.02-.18-.03-.36-.04-.54Z"/>
            <path class="cls-58" d="m.35,146.3c-.04.3-.07.61-.1.91.03-.3.07-.61.1-.91Z"/>
            <path class="cls-43" d="m.44,158.32c.02.14.03.28.05.42-.02-.14-.04-.28-.05-.42Z"/>
            <path class="cls-68" d="m.7,143.91c-.06.33-.11.66-.16.98.05-.33.11-.66.16-.98Z"/>
            <path class="cls-52" d="m1.37,163.27c-.02-.07-.03-.14-.05-.2.02.07.03.14.05.2Z"/>
            <polygon class="cls-22" points="2.68 167.69 2.68 167.69 2.68 167.69 2.68 167.69"/>
            <path class="cls-85" d="m1.98,165.49s-.02-.07-.03-.1c0,.03.02.07.03.1Z"/>
            <path class="cls-78" d="m.83,160.71c.02.1.04.21.06.31-.02-.1-.04-.21-.06-.31Z"/>
            <path class="cls-36" d="m36.81,105.55c-.18.04-.37.08-.55.13.18-.04.36-.08.55-.13Z"/>
            <path class="cls-41" d="m6.61,127.79c-.23.4-.46.8-.68,1.2.22-.41.45-.81.68-1.2Z"/>
            <path class="cls-38" d="m4.84,131.11c.09-.18.17-.37.26-.55.1-.19.2-.38.3-.57-.19.37-.38.74-.56,1.11Z"/>
            <path class="cls-108" d="m8.27,125.15c6.56-9.73,16.2-16.4,27.05-19.24-10.79,2.9-20.5,9.56-27.05,19.24Z"/>
            <path class="cls-16" d="m7.99,125.57c-.31.47-.62.95-.91,1.44.3-.49.6-.97.91-1.44Z"/>
            <path class="cls-120" d="m9.33,133.91c10.08-21.39,35.09-30.49,56.47-20.41l6.33,2.98,2.19-4.64h0l3.14,11.35c.79,2.87-2.1,5.39-4.82,4.18-15.88-7.06-54.32-17.75-65.93,36.84-3-9.73-2.08-20.33,2.62-30.3Z"/>
            <path class="cls-13" d="m2.49,136.85c-.12.37-.24.73-.36,1.1.11-.37.23-.73.36-1.1Z"/>
            <path class="cls-92" d="m1.77,139.18c-.1.36-.2.72-.29,1.08.09-.36.19-.72.29-1.08Z"/>
            <path class="cls-19" d="m1.17,141.53c-.08.35-.16.69-.23,1.04.07-.35.15-.7.23-1.04Z"/>
            <path class="cls-72" d="m3.33,134.54c-.15.37-.29.74-.43,1.11.14-.37.28-.74.43-1.11Z"/>
            <path class="cls-34" d="m4.3,132.26c-.17.37-.33.74-.49,1.11.16-.37.32-.74.49-1.11Z"/>
          </g>
          <path class="cls-21" d="m63.36,212.06l-36.01-16.97c-13.67-6.44-22.84-18.55-26.07-32.19,19.93,12.29,70.9,31.9,106.88-33.54.93,1.28,1.3,2.55,1.54,3.37.6,2.31.43,4.83-.67,7.15l-31.63,67.12c-2.49,5.28-8.78,7.54-14.05,5.05Z"/>
          <path class="cls-121" d="m72.13,116.49l-6.33-2.98c-21.39-10.08-46.4-.98-56.47,20.41-10.08,21.39-1.18,46.47,20.21,56.54l6.33,2.98-2.19,4.64-6.33-2.98c-23.81-11.22-34.02-39.62-22.8-63.43,11.22-23.81,39.5-34.08,63.43-22.8l6.33,2.98-2.19,4.64Z"/>
        </g>
        <g>
          <g>
            <circle class="cls-123" cx="193.07" cy="205.02" r="98.89"/>
            <circle class="cls-117" cx="193.07" cy="205.02" r="98.89"/>
            <g>
              <path class="cls-25" d="m273.99,148.21c-3.24-4.6-6.89-9-11-13.12-7.24-7.24-15.32-13.12-23.94-17.65,8.61,4.53,16.7,10.41,23.94,17.65,4.12,4.12,7.77,8.52,11,13.12Z"/>
              <path class="cls-2" d="m225.78,111.67c-1.83-.64-3.68-1.21-5.54-1.74,1.86.53,3.71,1.1,5.54,1.74Z"/>
              <path class="cls-121" d="m254.69,143.4c-34.03-34.03-89.21-34.03-123.24,0-34.03,34.03-34.03,89.21,0,123.24,34.03,34.03,89.21,34.03,123.24,0,34.03-34.03,34.03-89.21,0-123.24Z"/>
              <path class="cls-82" d="m193.07,106.13c3.16,0,6.33.15,9.48.45-3.15-.3-6.32-.45-9.48-.45Z"/>
              <path class="cls-18" d="m225.78,111.67c4.53,1.58,8.97,3.51,13.27,5.77-4.31-2.26-8.74-4.19-13.27-5.77Z"/>
              <path class="cls-31" d="m239.05,292.59c-4.31,2.26-8.74,4.19-13.27,5.77,4.53-1.58,8.97-3.51,13.27-5.77Z"/>
              <path class="cls-56" d="m165.89,109.94c-15.65,4.46-30.42,12.83-42.75,25.15-7.24,7.24-13.12,15.33-17.65,23.94,4.53-8.61,10.41-16.7,17.65-23.94,12.32-12.32,27.1-20.7,42.75-25.15Z"/>
              <path class="cls-39" d="m225.78,298.36c-1.83.64-3.68,1.21-5.54,1.74,1.86-.53,3.71-1.1,5.54-1.74Z"/>
              <path class="cls-115" d="m202.55,303.45c-1.61.15-3.23.27-4.85.34,1.62-.08,3.23-.19,4.85-.34Z"/>
              <path class="cls-47" d="m123.14,274.94c-7.24-7.24-13.12-15.32-17.65-23.94,4.53,8.61,10.41,16.7,17.65,23.94,12.32,12.32,27.1,20.7,42.75,25.15-15.65-4.46-30.42-12.83-42.75-25.15Z"/>
            </g>
          </g>
          <path class="cls-21" d="m266.86,139.29c12.51,34.88,4.81,75.38-23.12,103.32-38.59,38.59-101.16,38.59-139.76,0-1.33-1.33-2.61-2.7-3.85-4.09,4.77,13.3,12.47,25.79,23.12,36.44,38.59,38.59,101.16,38.59,139.76,0,37.26-37.26,38.54-96.87,3.85-135.67Z"/>
        </g>
      </g>
    </g>
  </g>
</svg>