<?xml version="1.0" encoding="UTF-8"?>
<svg xmlns="http://www.w3.org/2000/svg" viewBox="0 0 306.49 285.65">
  <defs>
    <style>
      .cls-1 {
        opacity: .25;
      }

      .cls-1, .cls-2, .cls-3, .cls-4 {
        fill: #cdbdb6;
        stroke: #ed1c24;
        stroke-miterlimit: 10;
      }

      .cls-5 {
        isolation: isolate;
      }

      .cls-2 {
        mix-blend-mode: multiply;
        opacity: .19;
      }

      .cls-4 {
        mix-blend-mode: screen;
        opacity: .27;
      }
    </style>
  </defs>
  <g class="cls-5">
    <g id="Layer_1" data-name="Layer 1">
      <g>
        <path class="cls-2" d="m212.7,102.9c-68.11-62.71-167.72,32.2-101.89,97.07,68.11,62.71,167.72-32.2,101.89-97.07Z"/>
        <path class="cls-2" d="m123.57,223.55c-8.03-11.94-34.35-42.36-50.14-40.09-4.74-1.33-38.04,45.39-41.33,48.17-3.23,3.1-10.37,9.94-13.6,13.03l42.54,40.3c1.52-1.45,11.84-11.34,13.61-13.03h0s30.83-22.56,30.83-22.56c6.83-5.87,26.36-14.45,18.11-25.82Zm-89.28,9.84c13.89,11.08,26.76,23.29,38.48,36.45l-7.13,6.83-38.48-36.45,7.13-6.83Z"/>
        <path class="cls-2" d="m298.99,238.16c-4.35-2.14-38.12-46.15-42.09-50.79-3.12-4.02-9.18-5.47-13.91-3.32-17.14,9.69-31.55,23.55-42.3,39.49-3.19,4.64-1.99,11.22,2.69,14.54,0,0,46.25,33.83,46.25,33.83h0c3.33,3.19,10.34,9.9,13.57,13l.03.03h0s42.54-40.3,42.54-40.3c-1.51-1.45-5.22-5-6.78-6.49Zm-40.37,38.51l-7.13-6.83c11.72-13.17,24.58-25.37,38.48-36.45l7.13,6.83-38.48,36.45Z"/>
        <path class="cls-2" d="m263.69,17.93h0c-3.9,3.65-9.85,9.23-13.75,12.89h0s-46.63,33.35-46.63,33.35c-4.72,3.26-5.97,9.88-2.86,14.52h0c11.02,16.24,25.55,31.65,43.72,40.59,9.6,3.28,16.04-9.4,21.02-14.81,0,0,26.82-32.91,26.82-32.91h0s0,0,0,0c3.93-3.68,9.85-9.23,13.75-12.89l-42.07-40.74h0Zm26.15,51.84c-13.77-11.21-26.47-23.58-38.06-36.85l7.21-6.76,38.05,36.85-7.21,6.76Z"/>
        <path class="cls-2" d="m18.49,58.45l.03.03h0l13.65,12.93h0s0,0,0,0h0s0,0,0,0l35.51,44.06c2.88,3.64,8.06,5.17,12.62,3.74,15.79-8.04,28.8-20.75,39.33-34.42,11.47-12.95,4.24-19.17-8.01-27.03,0,0-37.15-26.87-37.15-26.87h0c-.83-.78-13.38-12.67-13.68-12.96L18.49,58.45h0Zm54.13-25.47c-11.63,13.23-24.44,25.5-38.27,36.65l-7.17-6.79,38.27-36.65,7.17,6.79Z"/>
        <g>
          <ellipse class="cls-3" cx="144.1" cy="134.61" rx="72.05" ry="68.64"/>
          <path class="cls-3" d="m189,177.38c-24.8,23.62-65,23.62-89.8,0-24.8-23.62-24.8-61.92,0-85.54,24.8-23.62,65-23.62,89.8,0,24.8,23.62,24.8,61.92,0,85.54Z"/>
          <path class="cls-1" d="m197.85,88.91c9.12,24.22,3.51,52.35-16.86,71.76-28.14,26.8-73.76,26.8-101.89,0-.97-.93-1.9-1.87-2.81-2.84,3.48,9.24,9.09,17.91,16.86,25.31,28.14,26.8,73.76,26.8,101.89,0,27.17-25.88,28.1-67.28,2.81-94.23Z"/>
        </g>
        <g>
          <g>
            <path class="cls-3" d="m238.59,98.61l35.77-43.87h0c-15.32-12.31-29.4-25.95-42.07-40.74h0l-46.63,33.35c-4.76,3.4-6,9.7-2.86,14.52h0c10.29,15.77,24.13,29.18,40.52,39.23h0c5,3.07,11.63,1.99,15.28-2.48Z"/>
            <polygon class="cls-4" points="234.1 16.12 241.33 9.34 279.39 46.19 272.15 52.97 274.35 54.74 274.35 54.74 288.08 41.88 246 1.14 232.28 14 234.1 16.12"/>
          </g>
          <path class="cls-3" d="m238.59,98.61l35.77-43.87c-15.32-12.31-29.4-25.95-42.07-40.74l-46.64,33.35c-4.76,3.4-6,9.7-2.86,14.52h0c10.29,15.77,24.13,29.18,40.52,39.23h0c5,3.07,11.63,1.99,15.28-2.48Zm-14.88-2.01h0c-14.64-8.99-27-20.96-36.19-35.05h0c-2.8-4.3-1.7-9.93,2.55-12.97l41.66-29.79c11.32,13.21,23.9,25.4,37.58,36.39l-31.95,39.19c-3.26,4-9.18,4.96-13.65,2.22Z"/>
          <polygon class="cls-3" points="288.1 41.85 246.03 1.11 243.54 3.44 285.61 44.18 288.1 41.85"/>
          <path class="cls-1" d="m223.3,101.1h0c5,3.07,11.63,1.99,15.28-2.48l35.77-43.87c-1.25-1-2.48-2.03-3.71-3.05-11.58,8.18-58.43,36.34-89.18,1.54-.17.47-.29,1.44-.29,1.44-.34,2.43.17,4.97,1.62,7.2h0c10.29,15.77,24.13,29.18,40.52,39.23Z"/>
          <polygon class="cls-3" points="231.64 18.43 241.33 9.34 279.39 46.19 269.69 55.28 271.89 57.05 271.89 57.05 285.61 44.18 243.54 3.44 229.82 16.3 231.64 18.43"/>
          <polygon class="cls-3" points="288.11 41.85 246.04 1.11 243.54 3.44 285.61 44.18 288.11 41.85"/>
        </g>
        <g>
          <g>
            <path class="cls-3" d="m50.38,98.2L14.61,54.32h0c15.32-12.31,29.4-25.95,42.07-40.74h0l46.63,33.35c4.76,3.4,6,9.7,2.86,14.52h0c-10.29,15.77-24.13,29.18-40.52,39.23h0c-5,3.07-11.63,1.99-15.28-2.48Z"/>
            <polygon class="cls-4" points="54.86 15.7 47.63 8.92 9.58 45.78 16.81 52.55 14.61 54.32 14.61 54.32 .89 41.46 42.96 .72 56.68 13.58 54.86 15.7"/>
          </g>
          <path class="cls-3" d="m65.66,100.68h0c16.39-10.06,30.23-23.46,40.52-39.24h0c3.14-4.81,1.9-11.11-2.86-14.52L56.68,13.58c-12.67,14.79-26.75,28.43-42.07,40.74l35.77,43.87c3.65,4.48,10.28,5.55,15.28,2.48Zm-14.05-6.71l-31.95-39.19c13.68-11,26.26-23.18,37.58-36.39l41.66,29.79c4.25,3.04,5.36,8.67,2.55,12.97h0c-9.19,14.09-21.55,26.06-36.19,35.05h0c-4.47,2.74-10.39,1.78-13.65-2.22Z"/>
          <polygon class="cls-3" points=".86 41.43 42.93 .69 45.42 3.03 3.35 43.77 .86 41.43"/>
          <path class="cls-1" d="m65.66,100.68h0c-5,3.07-11.63,1.99-15.28-2.48L14.61,54.32c1.25-1,2.48-2.03,3.71-3.05,11.58,8.18,58.43,36.34,89.18,1.54.17.47.29,1.44.29,1.44.34,2.43-.17,4.97-1.62,7.2h0c-10.29,15.77-24.13,29.18-40.52,39.23Z"/>
          <polygon class="cls-3" points="57.33 18.01 47.63 8.92 9.58 45.78 19.27 54.86 17.07 56.63 17.07 56.63 3.35 43.77 45.42 3.03 59.14 15.89 57.33 18.01"/>
          <polygon class="cls-3" points=".86 41.43 42.93 .69 45.42 3.03 3.35 43.77 .86 41.43"/>
        </g>
        <g>
          <g>
            <path class="cls-3" d="m103.08,220.93l-46.06,34.07h0c-12.92-14.59-27.24-28.01-42.77-40.08h0l35.01-44.43c3.57-4.53,10.18-5.71,15.24-2.72h0c16.56,9.8,30.63,22.99,41.18,38.6h0c3.22,4.76,2.09,11.08-2.61,14.56Z"/>
            <polygon class="cls-4" points="16.48 216.65 9.37 223.54 48.05 259.8 55.17 252.91 57.02 255 57.02 255 43.52 268.07 .76 227.99 14.25 214.92 16.48 216.65"/>
          </g>
          <path class="cls-3" d="m105.68,206.37h0c-10.56-15.61-24.63-28.8-41.18-38.6h0c-5.05-2.99-11.67-1.81-15.24,2.72l-35.01,44.43c15.53,12.07,29.84,25.49,42.77,40.08l46.05-34.07c4.7-3.48,5.83-9.79,2.61-14.56Zm-7.05,13.38l-41.14,30.43c-11.54-13.03-24.33-25.02-38.2-35.8l31.27-39.68c3.19-4.05,9.1-5.1,13.61-2.43h0c14.79,8.76,27.36,20.53,36.79,34.48h0c2.88,4.25,1.87,9.9-2.33,13Z"/>
          <polygon class="cls-3" points="43.49 268.1 .73 228.02 3.18 225.65 45.94 265.73 43.49 268.1"/>
          <path class="cls-1" d="m105.68,206.37h0c3.22,4.76,2.09,11.08-2.61,14.56l-46.05,34.07c-1.05-1.19-2.13-2.36-3.2-3.53,8.59-11.03,38.15-55.66,1.61-84.96.49-.16,1.51-.28,1.51-.28,2.55-.32,5.22.16,7.56,1.54h0c16.56,9.8,30.63,22.99,41.18,38.6Z"/>
          <polygon class="cls-3" points="18.91 214.31 9.37 223.54 48.05 259.8 57.59 250.56 59.44 252.65 59.44 252.65 45.94 265.73 3.18 225.65 16.68 212.58 18.91 214.31"/>
          <polygon class="cls-3" points="43.49 268.1 .72 228.02 3.18 225.65 45.94 265.73 43.49 268.1"/>
        </g>
        <g>
          <g>
            <path class="cls-3" d="m185.31,220.6l46.06,34.07h0c12.92-14.59,27.24-28.01,42.77-40.08h0l-35.01-44.43c-3.57-4.53-10.18-5.71-15.24-2.72h0c-16.56,9.8-30.63,22.99-41.18,38.6h0c-3.22,4.76-2.09,11.08,2.61,14.56Z"/>
            <polygon class="cls-4" points="271.9 216.32 279.02 223.21 240.33 259.47 233.22 252.57 231.36 254.67 231.36 254.67 244.86 267.74 287.63 227.66 274.13 214.59 271.9 216.32"/>
          </g>
          <path class="cls-3" d="m185.31,220.6l46.05,34.07c12.92-14.59,27.24-28.01,42.77-40.08l-35.01-44.43c-3.57-4.53-10.18-5.71-15.24-2.72h0c-16.56,9.8-30.63,22.99-41.18,38.6h0c-3.22,4.76-2.09,11.08,2.61,14.56Zm2.11-14.18h0c9.43-13.94,22-25.72,36.79-34.48h0c4.51-2.67,10.42-1.62,13.61,2.43l31.27,39.68c-13.87,10.78-26.66,22.76-38.2,35.8l-41.14-30.43c-4.2-3.1-5.21-8.75-2.33-13Z"/>
          <polygon class="cls-3" points="244.89 267.77 287.66 227.69 285.21 225.32 242.44 265.4 244.89 267.77"/>
          <path class="cls-1" d="m182.7,206.04h0c-3.22,4.76-2.09,11.08,2.61,14.56l46.05,34.07c1.05-1.19,2.13-2.36,3.2-3.53-8.59-11.03-38.15-55.66-1.61-84.96-.49-.16-1.51-.28-1.51-.28-2.55-.32-5.22.16-7.56,1.54h0c-16.56,9.8-30.63,22.99-41.18,38.6Z"/>
          <polygon class="cls-3" points="269.48 213.98 279.02 223.21 240.33 259.47 230.8 250.23 228.94 252.32 228.94 252.32 242.44 265.4 285.21 225.32 271.71 212.24 269.48 213.98"/>
          <polygon class="cls-3" points="244.89 267.77 287.66 227.69 285.21 225.32 242.44 265.4 244.89 267.77"/>
        </g>
      </g>
    </g>
  </g>
</svg>