<?xml version="1.0" encoding="UTF-8"?>
<svg xmlns="http://www.w3.org/2000/svg" xmlns:xlink="http://www.w3.org/1999/xlink" viewBox="0 0 586.94 301.9">
  <defs>
    <style>
      .cls-1 {
        fill: #ddd;
      }

      .cls-2 {
        fill: #e9e9e9;
      }

      .cls-3 {
        fill: #f0f0f0;
      }

      .cls-4 {
        fill: #f4f4f4;
      }

      .cls-5 {
        fill: #fff;
      }

      .cls-6 {
        fill: #cbcbcb;
      }

      .cls-7 {
        fill: #d1d1d1;
      }

      .cls-8 {
        fill: #fafafa;
      }

      .cls-9 {
        fill: #dbdbdb;
      }

      .cls-10 {
        fill: #cacaca;
      }

      .cls-11 {
        fill: #d8d8d8;
      }

      .cls-12 {
        fill: #f6f6f6;
      }

      .cls-13 {
        fill: url(#linear-gradient-3);
      }

      .cls-13, .cls-14, .cls-15 {
        stroke-width: .03px;
      }

      .cls-13, .cls-15 {
        stroke: #9d9d9c;
      }

      .cls-13, .cls-15, .cls-16 {
        stroke-miterlimit: 10;
      }

      .cls-17 {
        fill: #e2e2e2;
      }

      .cls-18 {
        fill: #f5f5f5;
      }

      .cls-19 {
        isolation: isolate;
      }

      .cls-20 {
        fill: #d6d6d6;
      }

      .cls-14 {
        fill: url(#linear-gradient);
        stroke: #949494;
        stroke-linecap: round;
        stroke-linejoin: round;
      }

      .cls-21 {
        fill: #c9c9c9;
      }

      .cls-15 {
        fill: url(#linear-gradient-2);
      }

      .cls-22 {
        fill: #e0e0e0;
      }

      .cls-23 {
        fill: #c7c7c7;
      }

      .cls-16 {
        stroke: #a67c52;
      }

      .cls-16, .cls-24 {
        fill: #706f6f;
      }

      .cls-25 {
        fill: #dedede;
      }

      .cls-26 {
        fill: #cfcfcf;
      }

      .cls-27 {
        fill: #d7d7d7;
      }

      .cls-28 {
        fill: #9d9d9c;
      }

      .cls-29 {
        fill: #e1e1e1;
      }

      .cls-30 {
        fill: #e6e6e6;
      }

      .cls-31 {
        fill: #e7e7e7;
      }

      .cls-32 {
        fill: #d4d4d4;
      }

      .cls-33 {
        fill: #dadada;
      }

      .cls-34 {
        fill: #eaeaea;
      }

      .cls-35 {
        fill: #c8c8c8;
      }

      .cls-36 {
        fill: #fdfdfd;
      }

      .cls-37 {
        fill: #e4e4e4;
      }

      .cls-38 {
        fill: #fbfbfb;
      }

      .cls-39 {
        fill: #f9f9f9;
      }

      .cls-40 {
        fill: #e5e5e5;
      }

      .cls-41 {
        fill: #d3d3d3;
      }

      .cls-42 {
        fill: #ebebeb;
      }

      .cls-43 {
        fill: #d5d5d5;
      }

      .cls-44 {
        fill: #dcdcdc;
      }

      .cls-24, .cls-45 {
        mix-blend-mode: multiply;
      }

      .cls-46 {
        fill: #e8e8e8;
      }

      .cls-47 {
        fill: #ccc;
      }

      .cls-48 {
        fill: #f7f7f7;
      }

      .cls-49 {
        fill: #efefef;
      }

      .cls-50 {
        fill: #d1d3d4;
      }

      .cls-51 {
        fill: #f1f1f1;
      }

      .cls-52 {
        fill: #cecece;
      }

      .cls-53 {
        fill: #f3f3f3;
      }

      .cls-54 {
        fill: #d9d9d9;
      }

      .cls-55 {
        fill: #cdcdcd;
      }

      .cls-56 {
        fill: #f8f8f8;
      }

      .cls-57 {
        fill: #d2d2d2;
      }

      .cls-58 {
        fill: #c6c6c6;
      }

      .cls-59 {
        fill: #eee;
      }

      .cls-60 {
        fill: #d0d0d0;
      }

      .cls-61 {
        fill: #ececec;
      }

      .cls-62 {
        fill: #f2f2f2;
      }

      .cls-63 {
        fill: #fefefe;
      }

      .cls-64 {
        fill: #e3e3e3;
      }

      .cls-65 {
        fill: #fcfcfc;
      }

      .cls-66 {
        fill: #ededed;
      }

      .cls-67 {
        fill: #dfdfdf;
      }
    </style>
    <linearGradient id="linear-gradient" x1="164.01" y1="151.15" x2="505.24" y2="151.15" gradientUnits="userSpaceOnUse">
      <stop offset="0" stop-color="#c2c2c1"/>
      <stop offset="1" stop-color="#787878"/>
    </linearGradient>
    <linearGradient id="linear-gradient-2" x1="2286.51" y1="860" x2="2787.51" y2="860" gradientTransform="translate(2871.63 991.27) rotate(-180)" gradientUnits="userSpaceOnUse">
      <stop offset="0" stop-color="#e6e6e6"/>
      <stop offset="1" stop-color="#c9c9c9"/>
    </linearGradient>
    <linearGradient id="linear-gradient-3" x1="2311.89" y1="860" x2="2762.14" y2="860" gradientTransform="translate(2871.63 991.27) rotate(-180)" gradientUnits="userSpaceOnUse">
      <stop offset="0" stop-color="#fff"/>
      <stop offset="1" stop-color="#d6d6d6"/>
    </linearGradient>
  </defs>
  <g class="cls-19">
    <g id="Layer_1" data-name="Layer 1">
      <g>
        <g class="cls-45">
          <path class="cls-5" d="m459.12,22.27H41.89C18.89,22.27,0,36.62,0,54.15v195.99c0,17.53,18.89,31.88,41.89,31.88h41.15c6.26,11.63,21.28,19.88,38.73,19.88h257.44c17.44,0,32.47-8.25,38.75-19.88h41.16c23.03,0,41.88-14.35,41.88-31.88V54.15c0-17.53-18.85-31.89-41.88-31.89Z"/>
          <path class="cls-63" d="m460.57,21.91H43.34C20.34,21.91,1.45,36.26,1.45,53.79v195.99c0,17.53,18.89,31.88,41.89,31.88h41.15c6.26,11.63,21.28,19.88,38.73,19.88h257.44c17.44,0,32.47-8.25,38.75-19.88h41.16c23.03,0,41.88-14.35,41.88-31.88V53.79c0-17.53-18.85-31.89-41.88-31.89Z"/>
          <path class="cls-36" d="m462.02,21.55H44.79c-23,0-41.89,14.36-41.89,31.89v195.99c0,17.53,18.89,31.88,41.89,31.88h41.15c6.26,11.63,21.28,19.88,38.73,19.88h257.44c17.44,0,32.47-8.25,38.75-19.88h41.16c23.03,0,41.88-14.35,41.88-31.88V53.43c0-17.53-18.85-31.89-41.88-31.89Z"/>
          <path class="cls-65" d="m463.47,21.19H46.24c-23,0-41.89,14.36-41.89,31.89v195.99c0,17.53,18.89,31.88,41.89,31.88h41.15c6.26,11.63,21.28,19.88,38.73,19.88h257.44c17.44,0,32.47-8.25,38.75-19.88h41.16c23.03,0,41.88-14.35,41.88-31.88V53.07c0-17.53-18.85-31.89-41.88-31.89Z"/>
          <path class="cls-38" d="m464.92,20.83H47.69c-23,0-41.89,14.36-41.89,31.89v195.99c0,17.53,18.89,31.88,41.89,31.88h41.15c6.26,11.63,21.28,19.88,38.73,19.88h257.44c17.44,0,32.47-8.25,38.75-19.88h41.16c23.03,0,41.88-14.35,41.88-31.88V52.71c0-17.53-18.85-31.89-41.88-31.89Z"/>
          <path class="cls-8" d="m466.37,20.47H49.14c-23,0-41.89,14.36-41.89,31.89v195.99c0,17.53,18.89,31.88,41.89,31.88h41.15c6.26,11.63,21.28,19.88,38.73,19.88h257.44c17.44,0,32.47-8.25,38.75-19.88h41.16c23.03,0,41.88-14.35,41.88-31.88V52.35c0-17.53-18.85-31.89-41.88-31.89Z"/>
          <path class="cls-39" d="m467.82,20.11H50.59c-23,0-41.89,14.36-41.89,31.89v195.99c0,17.53,18.89,31.88,41.89,31.88h41.15c6.26,11.63,21.28,19.88,38.73,19.88h257.44c17.44,0,32.47-8.25,38.75-19.88h41.16c23.03,0,41.88-14.35,41.88-31.88V51.99c0-17.53-18.85-31.89-41.88-31.89Z"/>
          <path class="cls-56" d="m469.27,19.75H52.04c-23,0-41.89,14.36-41.89,31.89v195.99c0,17.53,18.89,31.88,41.89,31.88h41.15c6.26,11.63,21.28,19.88,38.73,19.88h257.44c17.44,0,32.47-8.25,38.75-19.88h41.16c23.03,0,41.88-14.35,41.88-31.88V51.63c0-17.53-18.85-31.89-41.88-31.89Z"/>
          <path class="cls-48" d="m470.72,19.39H53.49c-23,0-41.89,14.36-41.89,31.89v195.99c0,17.53,18.89,31.88,41.89,31.88h41.15c6.26,11.63,21.27,19.88,38.73,19.88h257.44c17.44,0,32.47-8.25,38.75-19.88h41.16c23.03,0,41.88-14.35,41.88-31.88V51.27c0-17.53-18.85-31.89-41.88-31.89Z"/>
          <path class="cls-12" d="m472.17,19.03H54.95c-23,0-41.89,14.36-41.89,31.89v195.99c0,17.53,18.89,31.88,41.89,31.88h41.15c6.26,11.63,21.27,19.88,38.73,19.88h257.44c17.44,0,32.47-8.25,38.75-19.88h41.16c23.03,0,41.88-14.35,41.88-31.88V50.91c0-17.53-18.85-31.89-41.88-31.89Z"/>
          <path class="cls-18" d="m473.62,18.67H56.4c-23,0-41.89,14.36-41.89,31.89v195.99c0,17.53,18.89,31.88,41.89,31.88h41.15c6.26,11.63,21.27,19.88,38.73,19.88h257.44c17.44,0,32.47-8.25,38.75-19.88h41.16c23.03,0,41.88-14.35,41.88-31.88V50.55c0-17.53-18.85-31.89-41.88-31.89Z"/>
          <path class="cls-4" d="m475.07,18.31H57.85c-23,0-41.89,14.36-41.89,31.89v195.99c0,17.53,18.89,31.88,41.89,31.88h41.15c6.26,11.63,21.27,19.88,38.73,19.88h257.44c17.44,0,32.47-8.25,38.75-19.88h41.16c23.03,0,41.88-14.35,41.88-31.88V50.2c0-17.53-18.85-31.89-41.88-31.89Z"/>
          <path class="cls-53" d="m476.52,17.95H59.3c-23,0-41.89,14.36-41.89,31.89v195.99c0,17.53,18.89,31.88,41.89,31.88h41.15c6.26,11.63,21.27,19.88,38.73,19.88h257.44c17.44,0,32.47-8.25,38.75-19.88h41.16c23.03,0,41.88-14.35,41.88-31.88V49.84c0-17.53-18.85-31.89-41.88-31.89Z"/>
          <path class="cls-62" d="m477.97,17.59H60.75c-23,0-41.89,14.36-41.89,31.89v195.99c0,17.53,18.89,31.88,41.89,31.88h41.15c6.26,11.63,21.27,19.88,38.73,19.88h257.44c17.44,0,32.47-8.25,38.75-19.88h41.16c23.03,0,41.88-14.35,41.88-31.88V49.48c0-17.53-18.85-31.89-41.88-31.89Z"/>
          <path class="cls-51" d="m479.42,17.23H62.2c-23,0-41.89,14.36-41.89,31.89v195.99c0,17.53,18.89,31.88,41.89,31.88h41.15c6.26,11.63,21.27,19.88,38.73,19.88h257.44c17.44,0,32.47-8.25,38.75-19.88h41.16c23.03,0,41.88-14.35,41.88-31.88V49.12c0-17.53-18.85-31.89-41.88-31.89Z"/>
          <path class="cls-3" d="m480.87,16.87H63.65c-23,0-41.89,14.36-41.89,31.89v195.99c0,17.53,18.89,31.88,41.89,31.88h41.15c6.26,11.63,21.27,19.88,38.73,19.88h257.44c17.44,0,32.47-8.25,38.75-19.88h41.16c23.03,0,41.88-14.35,41.88-31.88V48.76c0-17.53-18.85-31.89-41.88-31.89Z"/>
          <path class="cls-49" d="m482.32,16.51H65.1c-23,0-41.89,14.36-41.89,31.89v195.99c0,17.53,18.89,31.88,41.89,31.88h41.15c6.26,11.63,21.27,19.88,38.73,19.88h257.44c17.44,0,32.47-8.25,38.75-19.88h41.16c23.03,0,41.88-14.35,41.88-31.88V48.4c0-17.53-18.85-31.89-41.88-31.89Z"/>
          <path class="cls-59" d="m483.77,16.15H66.55c-23,0-41.89,14.36-41.89,31.89v195.99c0,17.53,18.89,31.88,41.89,31.88h41.15c6.26,11.63,21.27,19.88,38.73,19.88h257.44c17.44,0,32.47-8.25,38.75-19.88h41.16c23.03,0,41.88-14.35,41.88-31.88V48.04c0-17.53-18.85-31.89-41.88-31.89Z"/>
          <path class="cls-66" d="m485.22,15.79H68c-23,0-41.89,14.36-41.89,31.89v195.99c0,17.53,18.89,31.88,41.89,31.88h41.15c6.26,11.63,21.27,19.88,38.73,19.88h257.44c17.44,0,32.47-8.25,38.75-19.88h41.16c23.03,0,41.88-14.35,41.88-31.88V47.68c0-17.53-18.85-31.89-41.88-31.89Z"/>
          <path class="cls-61" d="m486.67,15.43H69.45c-23,0-41.89,14.36-41.89,31.89v195.99c0,17.53,18.89,31.88,41.89,31.88h41.15c6.26,11.63,21.27,19.88,38.73,19.88h257.44c17.44,0,32.47-8.25,38.75-19.88h41.16c23.03,0,41.88-14.35,41.88-31.88V47.32c0-17.53-18.85-31.89-41.88-31.89Z"/>
          <path class="cls-42" d="m488.12,15.07H70.9c-23,0-41.89,14.36-41.89,31.89v195.99c0,17.53,18.89,31.88,41.89,31.88h41.15c6.26,11.63,21.27,19.88,38.73,19.88h257.44c17.44,0,32.47-8.25,38.75-19.88h41.16c23.03,0,41.88-14.35,41.88-31.88V46.96c0-17.53-18.85-31.89-41.88-31.89Z"/>
          <path class="cls-34" d="m489.57,14.71H72.35c-23,0-41.89,14.36-41.89,31.89v195.99c0,17.53,18.89,31.88,41.89,31.88h41.15c6.26,11.63,21.27,19.88,38.73,19.88h257.44c17.44,0,32.47-8.25,38.75-19.88h41.16c23.03,0,41.88-14.35,41.88-31.88V46.6c0-17.53-18.85-31.89-41.88-31.89Z"/>
          <path class="cls-2" d="m491.02,14.35H73.8c-23,0-41.89,14.36-41.89,31.89v195.99c0,17.53,18.89,31.88,41.89,31.88h41.15c6.26,11.63,21.27,19.88,38.73,19.88h257.44c17.44,0,32.47-8.25,38.75-19.88h41.16c23.03,0,41.88-14.35,41.88-31.88V46.24c0-17.53-18.85-31.89-41.88-31.89Z"/>
          <path class="cls-46" d="m492.47,13.99H75.25c-23,0-41.89,14.36-41.89,31.89v195.99c0,17.53,18.89,31.88,41.89,31.88h41.15c6.26,11.63,21.27,19.88,38.73,19.88h257.44c17.44,0,32.47-8.25,38.75-19.88h41.16c23.03,0,41.88-14.35,41.88-31.88V45.88c0-17.53-18.85-31.89-41.88-31.89Z"/>
          <path class="cls-31" d="m493.92,13.63H76.7c-23,0-41.89,14.36-41.89,31.89v195.99c0,17.53,18.89,31.88,41.89,31.88h41.15c6.26,11.63,21.27,19.88,38.73,19.88h257.44c17.44,0,32.47-8.25,38.75-19.88h41.16c23.03,0,41.88-14.35,41.88-31.88V45.52c0-17.53-18.85-31.89-41.88-31.89Z"/>
          <path class="cls-30" d="m495.37,13.27H78.15c-23,0-41.89,14.36-41.89,31.89v195.99c0,17.53,18.89,31.88,41.89,31.88h41.15c6.26,11.63,21.27,19.88,38.73,19.88h257.44c17.44,0,32.47-8.25,38.75-19.88h41.16c23.03,0,41.88-14.35,41.88-31.88V45.16c0-17.53-18.85-31.89-41.88-31.89Z"/>
          <path class="cls-40" d="m496.82,12.91H79.6c-23,0-41.89,14.36-41.89,31.89v195.99c0,17.53,18.89,31.88,41.89,31.88h41.15c6.26,11.63,21.27,19.88,38.73,19.88h257.44c17.44,0,32.47-8.25,38.75-19.88h41.16c23.03,0,41.88-14.35,41.88-31.88V44.8c0-17.53-18.85-31.89-41.88-31.89Z"/>
          <path class="cls-37" d="m498.27,12.55H81.05c-23,0-41.89,14.36-41.89,31.89v195.99c0,17.53,18.89,31.88,41.89,31.88h41.15c6.26,11.63,21.27,19.88,38.73,19.88h257.44c17.44,0,32.47-8.25,38.75-19.88h41.16c23.03,0,41.88-14.35,41.88-31.88V44.44c0-17.53-18.85-31.89-41.88-31.89Z"/>
          <path class="cls-64" d="m499.73,12.19H82.5c-23,0-41.89,14.36-41.89,31.89v195.99c0,17.53,18.89,31.88,41.89,31.88h41.15c6.26,11.63,21.27,19.88,38.73,19.88h257.44c17.44,0,32.47-8.25,38.75-19.88h41.16c23.03,0,41.88-14.35,41.88-31.88V44.08c0-17.53-18.85-31.89-41.88-31.89Z"/>
          <path class="cls-17" d="m501.18,11.83H83.95c-23,0-41.89,14.36-41.89,31.89v195.99c0,17.53,18.89,31.88,41.89,31.88h41.15c6.26,11.63,21.27,19.88,38.73,19.88h257.44c17.44,0,32.47-8.25,38.75-19.88h41.16c23.03,0,41.88-14.35,41.88-31.88V43.72c0-17.53-18.85-31.89-41.88-31.89Z"/>
          <path class="cls-17" d="m502.63,11.47H85.4c-23,0-41.89,14.36-41.89,31.89v195.99c0,17.53,18.89,31.88,41.89,31.88h41.15c6.26,11.63,21.27,19.88,38.73,19.88h257.44c17.44,0,32.47-8.25,38.75-19.88h41.16c23.03,0,41.88-14.35,41.88-31.88V43.36c0-17.53-18.85-31.89-41.88-31.89Z"/>
          <path class="cls-29" d="m504.08,11.11H86.85c-23,0-41.89,14.36-41.89,31.89v195.99c0,17.53,18.89,31.88,41.89,31.88h41.15c6.26,11.63,21.27,19.88,38.73,19.88h257.44c17.44,0,32.47-8.25,38.75-19.88h41.16c23.03,0,41.88-14.35,41.88-31.88V43c0-17.53-18.85-31.89-41.88-31.89Z"/>
          <path class="cls-22" d="m505.53,10.75H88.3c-23,0-41.89,14.36-41.89,31.89v195.99c0,17.53,18.89,31.88,41.89,31.88h41.15c6.26,11.63,21.27,19.88,38.73,19.88h257.44c17.44,0,32.47-8.25,38.75-19.88h41.16c23.03,0,41.88-14.35,41.88-31.88V42.64c0-17.53-18.85-31.89-41.88-31.89Z"/>
          <path class="cls-67" d="m506.98,10.39H89.75c-23,0-41.89,14.36-41.89,31.89v195.99c0,17.53,18.89,31.88,41.89,31.88h41.15c6.26,11.63,21.27,19.88,38.73,19.88h257.44c17.44,0,32.47-8.25,38.75-19.88h41.16c23.03,0,41.88-14.35,41.88-31.88V42.28c0-17.53-18.85-31.89-41.88-31.89Z"/>
          <path class="cls-25" d="m508.43,10.03H91.2c-23,0-41.89,14.36-41.89,31.89v195.99c0,17.53,18.89,31.88,41.89,31.88h41.15c6.26,11.63,21.27,19.88,38.73,19.88h257.44c17.44,0,32.47-8.25,38.75-19.88h41.16c23.03,0,41.88-14.35,41.88-31.88V41.92c0-17.53-18.85-31.89-41.88-31.89Z"/>
          <path class="cls-1" d="m509.88,9.67H92.65c-23,0-41.89,14.36-41.89,31.89v195.99c0,17.53,18.89,31.88,41.89,31.88h41.15c6.26,11.63,21.27,19.88,38.73,19.88h257.44c17.44,0,32.47-8.25,38.75-19.88h41.16c23.03,0,41.88-14.35,41.88-31.88V41.56c0-17.53-18.85-31.89-41.88-31.89Z"/>
          <path class="cls-44" d="m511.33,9.31H94.1c-23,0-41.89,14.36-41.89,31.89v195.99c0,17.53,18.89,31.88,41.89,31.88h41.15c6.26,11.63,21.27,19.88,38.73,19.88h257.44c17.44,0,32.47-8.25,38.75-19.88h41.16c23.03,0,41.88-14.35,41.88-31.88V41.2c0-17.53-18.85-31.89-41.88-31.89Z"/>
          <path class="cls-9" d="m512.78,8.95H95.56c-23,0-41.89,14.36-41.89,31.89v195.99c0,17.53,18.89,31.88,41.89,31.88h41.15c6.26,11.63,21.27,19.88,38.73,19.88h257.44c17.44,0,32.47-8.25,38.75-19.88h41.16c23.03,0,41.88-14.35,41.88-31.88V40.84c0-17.53-18.85-31.89-41.88-31.89Z"/>
          <path class="cls-33" d="m514.23,8.59H97.01c-23,0-41.89,14.36-41.89,31.89v195.99c0,17.53,18.89,31.88,41.89,31.88h41.15c6.26,11.63,21.27,19.88,38.73,19.88h257.44c17.44,0,32.47-8.25,38.75-19.88h41.16c23.03,0,41.88-14.35,41.88-31.88V40.48c0-17.53-18.85-31.89-41.88-31.89Z"/>
          <path class="cls-54" d="m515.68,8.23H98.46c-23,0-41.89,14.36-41.89,31.89v195.99c0,17.53,18.89,31.88,41.89,31.88h41.15c6.26,11.63,21.27,19.88,38.73,19.88h257.44c17.44,0,32.47-8.25,38.75-19.88h41.16c23.03,0,41.88-14.35,41.88-31.88V40.12c0-17.53-18.85-31.89-41.88-31.89Z"/>
          <path class="cls-11" d="m517.13,7.87H99.91c-23,0-41.89,14.36-41.89,31.89v195.99c0,17.53,18.89,31.88,41.89,31.88h41.15c6.26,11.63,21.27,19.88,38.73,19.88h257.44c17.44,0,32.47-8.25,38.75-19.88h41.16c23.03,0,41.88-14.35,41.88-31.88V39.76c0-17.53-18.85-31.89-41.88-31.89Z"/>
          <path class="cls-27" d="m518.58,7.51H101.36c-23,0-41.89,14.36-41.89,31.89v195.99c0,17.53,18.89,31.88,41.89,31.88h41.15c6.26,11.63,21.27,19.88,38.73,19.88h257.44c17.44,0,32.47-8.25,38.75-19.88h41.16c23.03,0,41.88-14.35,41.88-31.88V39.4c0-17.53-18.85-31.89-41.88-31.89Z"/>
          <path class="cls-20" d="m520.03,7.15H102.81c-23,0-41.89,14.36-41.89,31.89v195.99c0,17.53,18.89,31.88,41.89,31.88h41.15c6.26,11.63,21.27,19.88,38.73,19.88h257.44c17.44,0,32.47-8.25,38.75-19.88h41.16c23.03,0,41.88-14.35,41.88-31.88V39.04c0-17.53-18.85-31.89-41.88-31.89Z"/>
          <path class="cls-43" d="m521.48,6.79H104.26c-23,0-41.89,14.36-41.89,31.89v195.99c0,17.53,18.89,31.88,41.89,31.88h41.15c6.26,11.63,21.27,19.88,38.73,19.88h257.44c17.44,0,32.47-8.25,38.75-19.88h41.16c23.03,0,41.88-14.35,41.88-31.88V38.68c0-17.53-18.85-31.89-41.88-31.89Z"/>
          <path class="cls-32" d="m522.93,6.43H105.71c-23,0-41.89,14.36-41.89,31.89v195.99c0,17.53,18.89,31.88,41.89,31.88h41.15c6.26,11.63,21.27,19.88,38.73,19.88h257.44c17.44,0,32.47-8.25,38.75-19.88h41.16c23.03,0,41.88-14.35,41.88-31.88V38.32c0-17.53-18.85-31.89-41.88-31.89Z"/>
          <path class="cls-41" d="m524.38,6.07H107.16c-23,0-41.89,14.36-41.89,31.89v195.99c0,17.53,18.89,31.88,41.89,31.88h41.15c6.26,11.63,21.27,19.88,38.73,19.88h257.44c17.44,0,32.47-8.25,38.75-19.88h41.16c23.03,0,41.88-14.35,41.88-31.88V37.96c0-17.53-18.85-31.89-41.88-31.89Z"/>
          <path class="cls-57" d="m525.83,5.71H108.61c-23,0-41.89,14.36-41.89,31.89v195.99c0,17.53,18.89,31.88,41.89,31.88h41.15c6.26,11.63,21.27,19.88,38.73,19.88h257.44c17.44,0,32.47-8.25,38.75-19.88h41.16c23.03,0,41.88-14.35,41.88-31.88V37.6c0-17.53-18.85-31.89-41.88-31.89Z"/>
          <path class="cls-7" d="m527.28,5.35H110.06c-23,0-41.89,14.36-41.89,31.89v195.99c0,17.53,18.89,31.88,41.89,31.88h41.15c6.26,11.63,21.27,19.88,38.73,19.88h257.44c17.44,0,32.47-8.25,38.75-19.88h41.16c23.03,0,41.88-14.35,41.88-31.88V37.24c0-17.53-18.85-31.89-41.88-31.89Z"/>
          <path class="cls-60" d="m528.73,4.99H111.51c-23,0-41.89,14.36-41.89,31.89v195.99c0,17.53,18.89,31.88,41.89,31.88h41.15c6.26,11.63,21.27,19.88,38.73,19.88h257.44c17.44,0,32.47-8.25,38.75-19.88h41.16c23.03,0,41.88-14.35,41.88-31.88V36.88c0-17.53-18.85-31.89-41.88-31.89Z"/>
          <path class="cls-26" d="m530.18,4.63H112.96c-23,0-41.89,14.36-41.89,31.89v195.99c0,17.53,18.89,31.88,41.89,31.88h41.15c6.26,11.63,21.27,19.88,38.73,19.88h257.44c17.44,0,32.47-8.25,38.75-19.88h41.16c23.03,0,41.88-14.35,41.88-31.88V36.52c0-17.53-18.85-31.89-41.88-31.89Z"/>
          <path class="cls-52" d="m531.63,4.27H114.41c-23,0-41.89,14.36-41.89,31.89v195.99c0,17.53,18.89,31.88,41.89,31.88h41.15c6.26,11.63,21.27,19.88,38.73,19.88h257.44c17.44,0,32.47-8.25,38.75-19.88h41.16c23.03,0,41.88-14.35,41.88-31.88V36.16c0-17.53-18.85-31.89-41.88-31.89Z"/>
          <path class="cls-55" d="m533.08,3.91H115.86c-23,0-41.89,14.36-41.89,31.89v195.99c0,17.53,18.89,31.88,41.89,31.88h41.15c6.26,11.63,21.27,19.88,38.73,19.88h257.44c17.44,0,32.47-8.25,38.75-19.88h41.16c23.03,0,41.88-14.35,41.88-31.88V35.8c0-17.53-18.85-31.89-41.88-31.89Z"/>
          <path class="cls-47" d="m534.53,3.55H117.31c-23,0-41.89,14.36-41.89,31.89v195.99c0,17.53,18.89,31.88,41.89,31.88h41.15c6.26,11.63,21.27,19.88,38.73,19.88h257.44c17.44,0,32.47-8.25,38.75-19.88h41.16c23.03,0,41.88-14.35,41.88-31.88V35.44c0-17.53-18.85-31.89-41.88-31.89Z"/>
          <path class="cls-6" d="m535.98,3.19H118.76c-23,0-41.89,14.36-41.89,31.89v195.99c0,17.53,18.89,31.88,41.89,31.88h41.15c6.26,11.63,21.27,19.88,38.73,19.88h257.44c17.44,0,32.47-8.25,38.75-19.88h41.16c23.03,0,41.88-14.35,41.88-31.88V35.08c0-17.53-18.85-31.89-41.88-31.89Z"/>
          <path class="cls-10" d="m537.43,2.83H120.21c-23,0-41.89,14.36-41.89,31.89v195.99c0,17.53,18.89,31.88,41.89,31.88h41.15c6.26,11.63,21.27,19.88,38.73,19.88h257.44c17.44,0,32.47-8.25,38.75-19.88h41.16c23.03,0,41.88-14.35,41.88-31.88V34.72c0-17.53-18.85-31.89-41.88-31.89Z"/>
          <path class="cls-21" d="m538.88,2.47H121.66c-23,0-41.89,14.36-41.89,31.89v195.99c0,17.53,18.89,31.88,41.89,31.88h41.15c6.26,11.63,21.27,19.88,38.73,19.88h257.44c17.44,0,32.47-8.25,38.75-19.88h41.16c23.03,0,41.88-14.35,41.88-31.88V34.36c0-17.53-18.85-31.89-41.88-31.89Z"/>
          <path class="cls-35" d="m540.34,2.11H123.11c-23,0-41.89,14.36-41.89,31.89v195.99c0,17.53,18.89,31.88,41.89,31.88h41.15c6.26,11.63,21.27,19.88,38.73,19.88h257.44c17.44,0,32.47-8.25,38.75-19.88h41.16c23.03,0,41.88-14.35,41.88-31.88V34c0-17.53-18.85-31.89-41.88-31.89Z"/>
          <path class="cls-23" d="m541.79,1.75H124.56c-23,0-41.89,14.36-41.89,31.89v195.99c0,17.53,18.89,31.88,41.89,31.88h41.15c6.26,11.63,21.27,19.88,38.73,19.88h257.44c17.44,0,32.47-8.25,38.75-19.88h41.16c23.03,0,41.88-14.35,41.88-31.88V33.64c0-17.53-18.85-31.89-41.88-31.89Z"/>
          <path class="cls-58" d="m543.24,1.39H126.01c-23,0-41.89,14.36-41.89,31.89v195.99c0,17.53,18.89,31.88,41.89,31.88h41.15c6.26,11.63,21.27,19.88,38.73,19.88h257.44c17.44,0,32.47-8.25,38.75-19.88h41.16c23.03,0,41.88-14.35,41.88-31.88V33.28c0-17.53-18.85-31.89-41.88-31.89Z"/>
        </g>
        <g>
          <path class="cls-14" d="m505.24,226.29V53.16c0-17.53-18.89-31.89-41.91-31.89H205.89c-23.03,0-41.88,14.36-41.88,31.89v195.99c0,17.53,18.85,31.88,41.88,31.88h257.44c23.02,0,41.91-14.35,41.91-31.88v-22.86Z"/>
          <path class="cls-15" d="m84.12,56.13v173.14c0,17.53,18.89,31.88,41.89,31.88h417.22c23.03,0,41.88-14.35,41.88-31.88V33.28c0-17.53-18.85-31.89-41.88-31.89H126.01c-23,0-41.89,14.36-41.89,31.89v22.84Z"/>
          <path class="cls-13" d="m109.49,67.16v147.7c0,14.97,16.97,27.21,37.65,27.21h374.97c20.69,0,37.64-12.24,37.64-27.21V47.67c0-14.96-16.95-27.2-37.64-27.2H147.14c-20.68,0-37.65,12.24-37.65,27.2v19.49Z"/>
        </g>
        <path class="cls-24" d="m543.25,0H126.01c-24.1,0-43.72,14.94-43.72,33.27v196c0,18.34,19.62,33.27,43.72,33.27h39.93c6.79,11.68,22.11,19.88,39.95,19.88h257.45c17.84,0,33.16-8.2,39.95-19.88h39.96c24.08,0,43.69-14.93,43.69-33.27V33.27c0-18.33-19.61-33.27-43.69-33.27Z"/>
        <g>
          <path class="cls-28" d="m322.93,176.73c3.73-.72,5.94-3.61,4.97-6.43l-40.02-118.63c-.94-2.83-4.73-4.54-8.44-3.81l-96.76,18.92c-3.69.72-5.96,3.6-5.02,6.44l40.05,118.64c.94,2.82,4.74,4.52,8.47,3.79l96.75-18.92Z"/>
          <path class="cls-16" d="m321.72,176.22c3.7-.71,5.94-3.6,4.99-6.43l-40.03-118.63c-.97-2.83-4.74-4.53-8.44-3.81l-96.79,18.93c-3.7.71-5.94,3.6-4.99,6.44l40.05,118.62c.94,2.83,4.71,4.53,8.43,3.81l96.79-18.93Z"/>
          <polygon class="cls-58" points="318.5 157.97 282.18 50.23 179.83 70.24 216.18 177.99 318.5 157.97"/>
          <path class="cls-50" d="m271.82,181.26c2.88-.57,4.59-2.8,3.86-4.98-.73-2.18-3.66-3.49-6.53-2.93-2.87.56-4.59,2.78-3.86,4.97.75,2.18,3.66,3.5,6.53,2.94Z"/>
        </g>
      </g>
    </g>
  </g>
</svg>