<?xml version="1.0" encoding="UTF-8"?>
<svg xmlns="http://www.w3.org/2000/svg" xmlns:xlink="http://www.w3.org/1999/xlink" viewBox="0 0 597.35 230.94">
  <defs>
    <style>
      .cls-1 {
        fill: url(#linear-gradient-22);
      }

      .cls-1, .cls-2, .cls-3, .cls-4, .cls-5, .cls-6, .cls-7, .cls-8, .cls-9, .cls-10, .cls-11, .cls-12, .cls-13, .cls-14, .cls-15, .cls-16, .cls-17, .cls-18, .cls-19, .cls-20, .cls-21, .cls-22, .cls-23, .cls-24, .cls-25, .cls-26, .cls-27, .cls-28, .cls-29, .cls-30 {
        stroke-linecap: round;
        stroke-linejoin: round;
      }

      .cls-1, .cls-2, .cls-3, .cls-4, .cls-5, .cls-6, .cls-8, .cls-9, .cls-10, .cls-11, .cls-12, .cls-13, .cls-15, .cls-16, .cls-17, .cls-18, .cls-19, .cls-20, .cls-21, .cls-23, .cls-24, .cls-25, .cls-26, .cls-27, .cls-28 {
        stroke: #949494;
        stroke-width: .03px;
      }

      .cls-2 {
        fill: url(#linear-gradient-24);
      }

      .cls-31 {
        fill: #ddd;
      }

      .cls-32 {
        fill: url(#linear-gradient-31);
      }

      .cls-32, .cls-33, .cls-34, .cls-35, .cls-36, .cls-37, .cls-38 {
        mix-blend-mode: multiply;
      }

      .cls-39 {
        fill: #e9e9e9;
      }

      .cls-40 {
        fill: #f0f0f0;
      }

      .cls-3 {
        fill: url(#linear-gradient-9);
      }

      .cls-4 {
        fill: url(#linear-gradient-19);
      }

      .cls-41 {
        fill: #f4f4f4;
      }

      .cls-42 {
        fill: #fff;
      }

      .cls-5 {
        fill: url(#linear-gradient-26);
      }

      .cls-6 {
        fill: url(#linear-gradient-10);
      }

      .cls-43 {
        fill: #cbcbcb;
      }

      .cls-44 {
        fill: #d1d1d1;
      }

      .cls-45 {
        fill: #fafafa;
      }

      .cls-46 {
        fill: #dbdbdb;
      }

      .cls-47 {
        fill: #cacaca;
      }

      .cls-48 {
        fill: #d8d8d8;
      }

      .cls-49 {
        fill: #f6f6f6;
      }

      .cls-7 {
        fill: url(#linear-gradient-4);
      }

      .cls-7, .cls-14, .cls-22, .cls-29 {
        stroke-width: .03px;
      }

      .cls-7, .cls-14, .cls-22, .cls-29, .cls-30 {
        stroke: #8f8f8f;
      }

      .cls-8 {
        fill: url(#linear-gradient-11);
      }

      .cls-50 {
        fill: #e2e2e2;
      }

      .cls-51 {
        fill: #f5f5f5;
      }

      .cls-9 {
        fill: url(#linear-gradient-23);
      }

      .cls-52 {
        isolation: isolate;
      }

      .cls-10 {
        fill: url(#linear-gradient-28);
      }

      .cls-53 {
        fill: #d6d6d6;
      }

      .cls-11 {
        fill: url(#linear-gradient-3);
      }

      .cls-12 {
        fill: url(#linear-gradient-7);
      }

      .cls-13 {
        fill: url(#linear-gradient-15);
      }

      .cls-54 {
        fill: #c9c9c9;
      }

      .cls-55 {
        fill: #e0e0e0;
      }

      .cls-56 {
        fill: #c7c7c7;
      }

      .cls-57 {
        fill: #dedede;
      }

      .cls-58 {
        fill: #cfcfcf;
      }

      .cls-59 {
        fill: #d7d7d7;
      }

      .cls-14 {
        fill: url(#linear-gradient-29);
      }

      .cls-60 {
        fill: #e1e1e1;
      }

      .cls-61 {
        fill: #e6e6e6;
      }

      .cls-15 {
        fill: url(#linear-gradient-17);
      }

      .cls-62 {
        fill: #e7e7e7;
      }

      .cls-16 {
        fill: url(#linear-gradient-8);
      }

      .cls-33 {
        fill: url(#linear-gradient-33);
      }

      .cls-34 {
        fill: url(#linear-gradient-32);
      }

      .cls-35 {
        fill: url(#linear-gradient-34);
      }

      .cls-63 {
        fill: #d4d4d4;
      }

      .cls-64 {
        fill: #dadada;
      }

      .cls-65 {
        fill: #eaeaea;
      }

      .cls-17 {
        fill: url(#linear-gradient-5);
      }

      .cls-66 {
        fill: #c8c8c8;
      }

      .cls-67 {
        fill: #fdfdfd;
      }

      .cls-68 {
        fill: #e4e4e4;
      }

      .cls-18 {
        fill: none;
      }

      .cls-69 {
        fill: #fbfbfb;
      }

      .cls-70 {
        fill: #f9f9f9;
      }

      .cls-19 {
        fill: url(#linear-gradient);
      }

      .cls-71 {
        fill: #e5e5e5;
      }

      .cls-20 {
        fill: url(#linear-gradient-12);
      }

      .cls-21 {
        fill: url(#linear-gradient-18);
      }

      .cls-22 {
        fill: url(#linear-gradient-27);
      }

      .cls-72 {
        fill: #d3d3d3;
      }

      .cls-73 {
        fill: #ebebeb;
      }

      .cls-74 {
        fill: #d5d5d5;
      }

      .cls-75 {
        fill: #dcdcdc;
      }

      .cls-23 {
        fill: url(#linear-gradient-16);
      }

      .cls-24 {
        fill: url(#linear-gradient-14);
      }

      .cls-36 {
        fill: url(#linear-gradient-2);
      }

      .cls-37 {
        fill: #706f6f;
      }

      .cls-76 {
        fill: #e8e8e8;
      }

      .cls-25 {
        fill: url(#linear-gradient-20);
      }

      .cls-77 {
        fill: #ccc;
      }

      .cls-26 {
        fill: url(#linear-gradient-21);
      }

      .cls-78 {
        fill: #f7f7f7;
      }

      .cls-79 {
        fill: #efefef;
      }

      .cls-27 {
        fill: url(#linear-gradient-6);
      }

      .cls-28 {
        fill: url(#linear-gradient-13);
      }

      .cls-80 {
        fill: #f1f1f1;
      }

      .cls-81 {
        fill: #cecece;
      }

      .cls-82 {
        fill: #f3f3f3;
      }

      .cls-29 {
        fill: url(#linear-gradient-30);
      }

      .cls-83 {
        fill: #d9d9d9;
      }

      .cls-30 {
        fill: url(#linear-gradient-25);
        stroke-width: .03px;
      }

      .cls-84 {
        fill: #cdcdcd;
      }

      .cls-85 {
        fill: #f8f8f8;
      }

      .cls-86 {
        fill: #d2d2d2;
      }

      .cls-87 {
        fill: #c6c6c6;
      }

      .cls-88 {
        fill: #eee;
      }

      .cls-89 {
        fill: #d0d0d0;
      }

      .cls-90 {
        fill: #ececec;
      }

      .cls-91 {
        fill: #f2f2f2;
      }

      .cls-92 {
        fill: #fefefe;
      }

      .cls-93 {
        fill: #e3e3e3;
      }

      .cls-94 {
        fill: #fcfcfc;
      }

      .cls-95 {
        fill: #ededed;
      }

      .cls-96 {
        fill: #dfdfdf;
      }
    </style>
    <linearGradient id="linear-gradient" x1="738.05" y1="-382.45" x2="828.48" y2="-382.45" gradientTransform="translate(1315.43 -339.4) rotate(-180)" gradientUnits="userSpaceOnUse">
      <stop offset="0" stop-color="#fff"/>
      <stop offset=".13" stop-color="#e3e3e2"/>
      <stop offset=".89" stop-color="#d1d1d0"/>
      <stop offset="1" stop-color="#878787"/>
    </linearGradient>
    <linearGradient id="linear-gradient-2" x1="328.36" y1="25.99" x2="328.36" y2="77.68" gradientTransform="translate(203.8 7.99)" gradientUnits="userSpaceOnUse">
      <stop offset="0" stop-color="#fff"/>
      <stop offset=".69" stop-color="#fffffe"/>
      <stop offset=".8" stop-color="#f6f6f5"/>
      <stop offset=".97" stop-color="#dddddc"/>
      <stop offset="1" stop-color="#d9d9d8"/>
    </linearGradient>
    <linearGradient id="linear-gradient-3" x1="1186.27" y1="1.77" x2="1268.69" y2="1.77" gradientTransform="translate(1423.49 168.97) rotate(-180) scale(1 -1)" xlink:href="#linear-gradient"/>
    <linearGradient id="linear-gradient-4" x1="1058.99" y1="-446.5" x2="1089.36" y2="-446.5" gradientTransform="translate(1655.88 -266.5) rotate(-180)" gradientUnits="userSpaceOnUse">
      <stop offset="0" stop-color="#fff"/>
      <stop offset=".25" stop-color="#e3e3e2"/>
      <stop offset=".79" stop-color="#d2d2d1"/>
      <stop offset="1" stop-color="#828282"/>
    </linearGradient>
    <linearGradient id="linear-gradient-5" x1="1186.27" y1="37.96" x2="1268.69" y2="37.96" gradientTransform="translate(1423.49 168.97) rotate(-180) scale(1 -1)" gradientUnits="userSpaceOnUse">
      <stop offset="0" stop-color="#858585"/>
      <stop offset=".11" stop-color="#d1d1d0"/>
      <stop offset=".91" stop-color="#b0b0ae"/>
      <stop offset="1" stop-color="#7a7a7a"/>
    </linearGradient>
    <linearGradient id="linear-gradient-6" x1="1186.27" y1="49.91" x2="1268.69" y2="49.91" gradientTransform="translate(1423.49 168.97) rotate(-180) scale(1 -1)" xlink:href="#linear-gradient"/>
    <linearGradient id="linear-gradient-7" x1="1104.03" y1="1.77" x2="1186.45" y2="1.77" gradientTransform="translate(1423.49 168.97) rotate(-180) scale(1 -1)" xlink:href="#linear-gradient"/>
    <linearGradient id="linear-gradient-8" x1="1104.03" x2="1186.45" xlink:href="#linear-gradient-5"/>
    <linearGradient id="linear-gradient-9" x1="1104.03" y1="49.91" x2="1186.45" y2="49.91" gradientTransform="translate(1423.49 168.97) rotate(-180) scale(1 -1)" xlink:href="#linear-gradient"/>
    <linearGradient id="linear-gradient-10" x1="1021.62" y1="1.77" x2="1104.03" y2="1.77" gradientTransform="translate(1423.49 168.97) rotate(-180) scale(1 -1)" xlink:href="#linear-gradient"/>
    <linearGradient id="linear-gradient-11" x1="1021.62" x2="1104.03" xlink:href="#linear-gradient-5"/>
    <linearGradient id="linear-gradient-12" x1="1021.62" y1="49.91" x2="1104.03" y2="49.91" gradientTransform="translate(1423.49 168.97) rotate(-180) scale(1 -1)" xlink:href="#linear-gradient"/>
    <linearGradient id="linear-gradient-13" x1="939.38" y1="1.77" x2="1021.8" y2="1.77" gradientTransform="translate(1423.49 168.97) rotate(-180) scale(1 -1)" xlink:href="#linear-gradient"/>
    <linearGradient id="linear-gradient-14" x1="939.38" x2="1021.8" xlink:href="#linear-gradient-5"/>
    <linearGradient id="linear-gradient-15" x1="939.38" y1="49.91" x2="1021.8" y2="49.91" gradientTransform="translate(1423.49 168.97) rotate(-180) scale(1 -1)" xlink:href="#linear-gradient"/>
    <linearGradient id="linear-gradient-16" x1="856.96" y1="1.77" x2="939.38" y2="1.77" gradientTransform="translate(1423.49 168.97) rotate(-180) scale(1 -1)" gradientUnits="userSpaceOnUse">
      <stop offset="0" stop-color="#9e9e9e"/>
      <stop offset=".13" stop-color="#c2c2c1"/>
      <stop offset=".22" stop-color="#cccccb"/>
      <stop offset=".89" stop-color="#e6e6e2"/>
      <stop offset="1" stop-color="#878787"/>
    </linearGradient>
    <linearGradient id="linear-gradient-17" x1="856.96" y1="37.96" x2="939.38" y2="37.96" gradientTransform="translate(1423.49 168.97) rotate(-180) scale(1 -1)" gradientUnits="userSpaceOnUse">
      <stop offset="0" stop-color="#858585"/>
      <stop offset=".11" stop-color="#b3b3b2"/>
      <stop offset=".91" stop-color="#babab9"/>
      <stop offset="1" stop-color="#7a7a7a"/>
    </linearGradient>
    <linearGradient id="linear-gradient-18" x1="856.96" y1="49.91" x2="939.38" y2="49.91" gradientTransform="translate(1423.49 168.97) rotate(-180) scale(1 -1)" xlink:href="#linear-gradient"/>
    <linearGradient id="linear-gradient-19" x1="194.82" y1="1.77" x2="112.4" y2="1.77" gradientTransform="translate(-39.84 168.97)" xlink:href="#linear-gradient"/>
    <linearGradient id="linear-gradient-20" x1="194.82" y1="-57.36" x2="112.4" y2="-57.36" gradientTransform="translate(-39.84 168.97)" xlink:href="#linear-gradient"/>
    <linearGradient id="linear-gradient-21" x1="194.82" y1="-116.49" x2="112.4" y2="-116.49" gradientTransform="translate(-39.84 168.97)" xlink:href="#linear-gradient"/>
    <linearGradient id="linear-gradient-22" x1="93.97" x2="194.82" gradientTransform="translate(-39.84 168.97)" xlink:href="#linear-gradient-17"/>
    <linearGradient id="linear-gradient-23" x1="194.82" y1="49.91" x2="78.98" y2="49.91" gradientTransform="translate(-39.84 168.97)" xlink:href="#linear-gradient"/>
    <linearGradient id="linear-gradient-24" x1="334.18" y1="-717.95" x2="334.18" y2="-699.69" gradientTransform="translate(772.08 386.67) rotate(-90)" gradientUnits="userSpaceOnUse">
      <stop offset="0" stop-color="#c9c9c9"/>
      <stop offset=".83" stop-color="#bbbbba"/>
      <stop offset=".85" stop-color="#babab8"/>
      <stop offset="1" stop-color="#7a7a7a"/>
    </linearGradient>
    <linearGradient id="linear-gradient-25" x1="822.72" y1="97.84" x2="822.72" y2="112.83" gradientTransform="translate(151.97 -640.03) rotate(90)" xlink:href="#linear-gradient-4"/>
    <linearGradient id="linear-gradient-26" x1="275.05" x2="275.05" xlink:href="#linear-gradient-24"/>
    <linearGradient id="linear-gradient-27" x1="751.64" y1="97.84" x2="751.64" y2="112.83" gradientTransform="translate(151.97 -640.03) rotate(90)" xlink:href="#linear-gradient-4"/>
    <linearGradient id="linear-gradient-28" x1="209.36" x2="209.36" xlink:href="#linear-gradient-24"/>
    <linearGradient id="linear-gradient-29" x1="692.52" y1="97.84" x2="692.52" y2="112.83" gradientTransform="translate(151.97 -640.03) rotate(90)" xlink:href="#linear-gradient-4"/>
    <linearGradient id="linear-gradient-30" x1="651.97" y1="-2.83" x2="651.97" y2="105.33" gradientTransform="translate(151.97 -640.03) rotate(90)" gradientUnits="userSpaceOnUse">
      <stop offset="0" stop-color="#fff"/>
      <stop offset=".08" stop-color="#d4d4d3"/>
      <stop offset=".93" stop-color="#d9d9d8"/>
      <stop offset="1" stop-color="#828282"/>
    </linearGradient>
    <linearGradient id="linear-gradient-31" x1="1218.55" y1="-121.52" x2="1218.55" y2="-86.73" gradientTransform="translate(1315.43 168.97) rotate(-180) scale(1 -1)" xlink:href="#linear-gradient-2"/>
    <linearGradient id="linear-gradient-32" x1="86.75" y1="-441.06" x2="86.75" y2="-406.26" gradientTransform="translate(27.02 -383.4) scale(1 -1)" xlink:href="#linear-gradient-2"/>
    <linearGradient id="linear-gradient-33" x1="1218.55" y1="-62.66" x2="1218.55" y2="-27.86" gradientTransform="translate(1315.43 168.97) rotate(-180) scale(1 -1)" xlink:href="#linear-gradient-2"/>
    <linearGradient id="linear-gradient-34" x1="995.88" y1="-3.68" x2="995.88" y2="31.12" gradientTransform="translate(1315.43 168.97) rotate(-180) scale(1 -1)" xlink:href="#linear-gradient-2"/>
  </defs>
  <g class="cls-52">
    <g id="Layer_1" data-name="Layer 1">
      <g>
        <g class="cls-38">
          <polygon class="cls-42" points="444.22 10.02 444.22 95.27 444.22 95.27 444.22 95.27 534.64 95.27 534.64 43.58 534.64 43.58 534.64 10.02 444.22 10.02"/>
          <polygon class="cls-92" points="444.95 9.86 444.95 95.11 444.95 95.11 444.95 95.11 535.38 95.11 535.38 43.42 535.38 43.42 535.38 9.86 444.95 9.86"/>
          <polygon class="cls-67" points="445.69 9.69 445.69 94.94 445.69 94.94 445.69 94.94 536.12 94.94 536.12 43.25 536.12 43.25 536.12 9.69 445.69 9.69"/>
          <polygon class="cls-94" points="446.43 9.53 446.43 94.78 446.43 94.78 446.43 94.78 536.86 94.78 536.86 43.08 536.86 43.08 536.86 9.53 446.43 9.53"/>
          <polygon class="cls-69" points="447.17 9.36 447.17 94.61 447.17 94.61 447.17 94.61 537.6 94.61 537.6 42.92 537.6 42.92 537.6 9.36 447.17 9.36"/>
          <polygon class="cls-45" points="447.91 9.2 447.91 94.44 447.91 94.44 447.91 94.44 538.33 94.44 538.33 42.75 538.33 42.75 538.33 9.2 447.91 9.2"/>
          <polygon class="cls-70" points="448.65 9.03 448.65 94.28 448.65 94.28 448.65 94.28 539.07 94.28 539.07 42.59 539.07 42.59 539.07 9.03 448.65 9.03"/>
          <polygon class="cls-85" points="449.39 8.87 449.39 94.11 449.39 94.11 449.39 94.11 539.81 94.11 539.81 42.42 539.81 42.42 539.81 8.87 449.39 8.87"/>
          <polygon class="cls-78" points="450.12 8.7 450.12 93.95 450.12 93.95 450.12 93.95 540.55 93.95 540.55 42.26 540.55 42.26 540.55 8.7 450.12 8.7"/>
          <polygon class="cls-49" points="450.86 8.53 450.86 93.78 450.86 93.78 450.86 93.78 541.29 93.78 541.29 42.09 541.29 42.09 541.29 8.53 450.86 8.53"/>
          <polygon class="cls-51" points="451.6 8.37 451.6 93.62 451.6 93.62 451.6 93.62 542.03 93.62 542.03 41.93 542.03 41.93 542.03 8.37 451.6 8.37"/>
          <polygon class="cls-41" points="452.34 8.2 452.34 93.45 452.34 93.45 452.34 93.45 542.77 93.45 542.77 41.76 542.77 41.76 542.77 8.2 452.34 8.2"/>
          <polygon class="cls-82" points="453.08 8.04 453.08 93.29 453.08 93.29 453.08 93.29 543.5 93.29 543.5 41.59 543.5 41.59 543.5 8.04 453.08 8.04"/>
          <polygon class="cls-91" points="453.82 7.87 453.82 93.12 453.82 93.12 453.82 93.12 544.24 93.12 544.24 41.43 544.24 41.43 544.24 7.87 453.82 7.87"/>
          <polygon class="cls-80" points="454.56 7.71 454.56 92.95 454.56 92.95 454.56 92.95 544.98 92.95 544.98 41.26 544.98 41.26 544.98 7.71 454.56 7.71"/>
          <polygon class="cls-40" points="455.29 7.54 455.29 92.79 455.29 92.79 455.29 92.79 545.72 92.79 545.72 41.1 545.72 41.1 545.72 7.54 455.29 7.54"/>
          <polygon class="cls-79" points="456.03 7.37 456.03 92.62 456.03 92.62 456.03 92.62 546.46 92.62 546.46 40.93 546.46 40.93 546.46 7.37 456.03 7.37"/>
          <polygon class="cls-88" points="456.77 7.21 456.77 92.46 456.77 92.46 456.77 92.46 547.2 92.46 547.2 40.77 547.2 40.77 547.2 7.21 456.77 7.21"/>
          <polygon class="cls-95" points="457.51 7.04 457.51 92.29 457.51 92.29 457.51 92.29 547.94 92.29 547.94 40.6 547.94 40.6 547.94 7.04 457.51 7.04"/>
          <polygon class="cls-90" points="458.25 6.88 458.25 92.13 458.25 92.13 458.25 92.13 548.68 92.13 548.68 40.43 548.68 40.43 548.68 6.88 458.25 6.88"/>
          <polygon class="cls-73" points="458.99 6.71 458.99 91.96 458.99 91.96 458.99 91.96 549.41 91.96 549.41 40.27 549.41 40.27 549.41 6.71 458.99 6.71"/>
          <polygon class="cls-65" points="459.73 6.55 459.73 91.8 459.73 91.8 459.73 91.8 550.15 91.8 550.15 40.1 550.15 40.1 550.15 6.55 459.73 6.55"/>
          <polygon class="cls-39" points="460.46 6.38 460.46 91.63 460.46 91.63 460.46 91.63 550.89 91.63 550.89 39.94 550.89 39.94 550.89 6.38 460.46 6.38"/>
          <polygon class="cls-76" points="461.2 6.22 461.2 91.46 461.2 91.46 461.2 91.47 551.63 91.47 551.63 39.77 551.63 39.77 551.63 6.22 461.2 6.22"/>
          <polygon class="cls-62" points="461.94 6.05 461.94 91.3 461.94 91.3 461.94 91.3 552.37 91.3 552.37 39.61 552.37 39.61 552.37 6.05 461.94 6.05"/>
          <polygon class="cls-61" points="462.68 5.88 462.68 91.13 462.68 91.13 462.68 91.13 553.11 91.13 553.11 39.44 553.11 39.44 553.11 5.88 462.68 5.88"/>
          <polygon class="cls-71" points="463.42 5.72 463.42 90.97 463.42 90.97 463.42 90.97 553.85 90.97 553.85 39.28 553.85 39.28 553.85 5.72 463.42 5.72"/>
          <polygon class="cls-68" points="464.16 5.55 464.16 90.8 464.16 90.8 464.16 90.8 554.58 90.8 554.58 39.11 554.58 39.11 554.58 5.55 464.16 5.55"/>
          <polygon class="cls-93" points="464.9 5.39 464.9 90.64 464.9 90.64 464.9 90.64 555.32 90.64 555.32 38.94 555.32 38.94 555.32 5.39 464.9 5.39"/>
          <polygon class="cls-50" points="465.63 5.22 465.63 90.47 465.63 90.47 465.63 90.47 556.06 90.47 556.06 38.78 556.06 38.78 556.06 5.22 465.63 5.22"/>
          <polygon class="cls-50" points="466.37 5.06 466.37 90.3 466.37 90.3 466.37 90.31 556.8 90.31 556.8 38.61 556.8 38.61 556.8 5.06 466.37 5.06"/>
          <polygon class="cls-60" points="467.11 4.89 467.11 90.14 467.11 90.14 467.11 90.14 557.54 90.14 557.54 38.45 557.54 38.45 557.54 4.89 467.11 4.89"/>
          <polygon class="cls-55" points="467.85 4.73 467.85 89.97 467.85 89.97 467.85 89.98 558.28 89.98 558.28 38.28 558.28 38.28 558.28 4.73 467.85 4.73"/>
          <polygon class="cls-96" points="468.59 4.56 468.59 89.81 468.59 89.81 468.59 89.81 559.02 89.81 559.02 38.12 559.02 38.12 559.02 4.56 468.59 4.56"/>
          <polygon class="cls-57" points="469.33 4.39 469.33 89.64 469.33 89.64 469.33 89.64 559.75 89.64 559.75 37.95 559.75 37.95 559.75 4.39 469.33 4.39"/>
          <polygon class="cls-31" points="470.07 4.23 470.07 89.48 470.07 89.48 470.07 89.48 560.49 89.48 560.49 37.79 560.49 37.79 560.49 4.23 470.07 4.23"/>
          <polygon class="cls-75" points="470.8 4.06 470.8 89.31 470.8 89.31 470.8 89.31 561.23 89.31 561.23 37.62 561.23 37.62 561.23 4.06 470.8 4.06"/>
          <polygon class="cls-46" points="471.54 3.9 471.54 89.15 471.54 89.15 471.54 89.15 561.97 89.15 561.97 37.45 561.97 37.45 561.97 3.9 471.54 3.9"/>
          <polygon class="cls-64" points="472.28 3.73 472.28 88.98 472.28 88.98 472.28 88.98 562.71 88.98 562.71 37.29 562.71 37.29 562.71 3.73 472.28 3.73"/>
          <polygon class="cls-83" points="473.02 3.57 473.02 88.81 473.02 88.81 473.02 88.82 563.45 88.82 563.45 37.12 563.45 37.12 563.45 3.57 473.02 3.57"/>
          <polygon class="cls-48" points="473.76 3.4 473.76 88.65 473.76 88.65 473.76 88.65 564.19 88.65 564.19 36.96 564.19 36.96 564.19 3.4 473.76 3.4"/>
          <polygon class="cls-59" points="474.5 3.24 474.5 88.48 474.5 88.48 474.5 88.49 564.92 88.49 564.92 36.79 564.92 36.79 564.92 3.24 474.5 3.24"/>
          <polygon class="cls-53" points="475.24 3.07 475.24 88.32 475.24 88.32 475.24 88.32 565.66 88.32 565.66 36.63 565.66 36.63 565.66 3.07 475.24 3.07"/>
          <polygon class="cls-74" points="475.97 2.9 475.97 88.15 475.97 88.15 475.97 88.15 566.4 88.15 566.4 36.46 566.4 36.46 566.4 2.9 475.97 2.9"/>
          <polygon class="cls-63" points="476.71 2.74 476.71 87.99 476.71 87.99 476.71 87.99 567.14 87.99 567.14 36.3 567.14 36.3 567.14 2.74 476.71 2.74"/>
          <polygon class="cls-72" points="477.45 2.57 477.45 87.82 477.45 87.82 477.45 87.82 567.88 87.82 567.88 36.13 567.88 36.13 567.88 2.57 477.45 2.57"/>
          <polygon class="cls-86" points="478.19 2.41 478.19 87.66 478.19 87.66 478.19 87.66 568.62 87.66 568.62 35.96 568.62 35.96 568.62 2.41 478.19 2.41"/>
          <polygon class="cls-44" points="478.93 2.24 478.93 87.49 478.93 87.49 478.93 87.49 569.36 87.49 569.36 35.8 569.36 35.8 569.36 2.24 478.93 2.24"/>
          <polygon class="cls-89" points="479.67 2.08 479.67 87.32 479.67 87.32 479.67 87.33 570.09 87.33 570.09 35.63 570.09 35.63 570.09 2.08 479.67 2.08"/>
          <polygon class="cls-58" points="480.41 1.91 480.41 87.16 480.41 87.16 480.41 87.16 570.83 87.16 570.83 35.47 570.83 35.47 570.83 1.91 480.41 1.91"/>
          <polygon class="cls-81" points="481.14 1.74 481.14 86.99 481.14 86.99 481.14 87 571.57 87 571.57 35.3 571.57 35.3 571.57 1.74 481.14 1.74"/>
          <polygon class="cls-84" points="481.88 1.58 481.88 86.83 481.88 86.83 481.88 86.83 572.31 86.83 572.31 35.14 572.31 35.14 572.31 1.58 481.88 1.58"/>
          <polygon class="cls-77" points="482.62 1.41 482.62 86.66 482.62 86.66 482.62 86.66 573.05 86.66 573.05 34.97 573.05 34.97 573.05 1.41 482.62 1.41"/>
          <polygon class="cls-43" points="483.36 1.25 483.36 86.5 483.36 86.5 483.36 86.5 573.79 86.5 573.79 34.81 573.79 34.81 573.79 1.25 483.36 1.25"/>
          <polygon class="cls-47" points="484.1 1.08 484.1 86.33 484.1 86.33 484.1 86.33 574.53 86.33 574.53 34.64 574.53 34.64 574.53 1.08 484.1 1.08"/>
          <polygon class="cls-54" points="484.84 .92 484.84 86.17 484.84 86.17 484.84 86.17 575.26 86.17 575.26 34.47 575.26 34.47 575.26 .92 484.84 .92"/>
          <polygon class="cls-66" points="485.58 .75 485.58 86 485.58 86 485.58 86 576 86 576 34.31 576 34.31 576 .75 485.58 .75"/>
          <polygon class="cls-56" points="486.31 .59 486.31 85.83 486.31 85.83 486.31 85.84 576.74 85.84 576.74 34.14 576.74 34.14 576.74 .59 486.31 .59"/>
          <polygon class="cls-87" points="487.05 .42 487.05 85.67 487.05 85.67 487.05 85.67 577.48 85.67 577.48 33.98 577.48 33.98 577.48 .42 487.05 .42"/>
        </g>
        <g>
          <rect class="cls-19" x="486.95" y=".42" width="90.43" height="85.25"/>
          <rect class="cls-36" x="486.95" y="33.98" width="90.43" height="51.69"/>
          <rect class="cls-18" x="486.95" y=".42" width="90.43" height="85.25"/>
        </g>
        <path class="cls-37" d="m577.37,0h-90.43c-.25,0-.45.19-.45.42v85.25c0,.23.2.42.45.42h90.43c.25,0,.45-.19.45-.42V.42c0-.23-.2-.42-.45-.42Z"/>
      </g>
      <g>
        <g class="cls-38">
          <polygon class="cls-42" points="445.16 147.79 445.16 147.79 362.92 147.79 362.75 147.79 280.51 147.79 280.51 147.79 198.27 147.79 198.09 147.79 116.03 147.79 116.03 88.79 116.03 88.66 116.03 64.34 116.03 29.54 115.85 29.54 115.85 7.7 7.69 7.7 7.69 29.54 .2 29.54 .2 54.13 0 54.13 0 88.92 .2 88.92 .2 112.99 0 112.99 0 147.79 .2 147.79 .2 147.92 .2 230.94 .2 230.94 116.03 230.94 116.03 230.94 198.09 230.94 198.27 230.94 280.51 230.94 280.51 230.94 362.75 230.94 362.92 230.94 445.16 230.94 445.16 230.94 527.58 230.94 527.58 225.56 557.95 225.56 557.95 147.79 527.58 147.79 445.16 147.79"/>
          <polygon class="cls-92" points="445.83 147.68 445.83 147.68 363.6 147.68 363.42 147.68 281.18 147.68 281.18 147.68 198.94 147.68 198.76 147.68 116.71 147.68 116.71 88.68 116.71 88.55 116.71 64.22 116.71 29.42 116.53 29.42 116.53 7.59 8.36 7.59 8.36 29.42 .87 29.42 .87 54.01 .67 54.01 .67 88.81 .87 88.81 .87 112.88 .67 112.88 .67 147.68 .87 147.68 .87 147.8 .87 230.83 .87 230.83 116.71 230.83 116.71 230.83 198.76 230.83 198.94 230.83 281.18 230.83 281.18 230.83 363.42 230.83 363.6 230.83 445.83 230.83 445.83 230.83 528.25 230.83 528.25 225.44 558.62 225.44 558.62 147.68 528.25 147.68 445.83 147.68"/>
          <polygon class="cls-67" points="446.51 147.56 446.51 147.56 364.27 147.56 364.09 147.56 281.85 147.56 281.85 147.56 199.62 147.56 199.44 147.56 117.38 147.56 117.38 88.56 117.38 88.43 117.38 64.11 117.38 29.31 117.2 29.31 117.2 7.47 9.04 7.47 9.04 29.31 1.54 29.31 1.54 53.89 1.35 53.89 1.35 88.69 1.54 88.69 1.54 112.76 1.35 112.76 1.35 147.56 1.54 147.56 1.54 147.69 1.54 230.71 1.54 230.71 117.38 230.71 117.38 230.71 199.44 230.71 199.62 230.71 281.85 230.71 281.85 230.71 364.09 230.71 364.27 230.71 446.51 230.71 446.51 230.71 528.92 230.71 528.92 225.33 559.29 225.33 559.29 147.56 528.92 147.56 446.51 147.56"/>
          <polygon class="cls-94" points="447.18 147.45 447.18 147.45 364.94 147.45 364.76 147.45 282.53 147.45 282.53 147.45 200.29 147.45 200.11 147.45 118.05 147.45 118.05 88.45 118.05 88.32 118.05 63.99 118.05 29.19 117.87 29.19 117.87 7.36 9.71 7.36 9.71 29.19 2.22 29.19 2.22 53.78 2.02 53.78 2.02 88.58 2.22 88.58 2.22 112.65 2.02 112.65 2.02 147.45 2.22 147.45 2.22 147.57 2.22 230.6 2.22 230.6 118.05 230.6 118.05 230.6 200.11 230.6 200.29 230.6 282.53 230.6 282.53 230.6 364.76 230.6 364.94 230.6 447.18 230.6 447.18 230.6 529.6 230.6 529.6 225.21 559.97 225.21 559.97 147.45 529.6 147.45 447.18 147.45"/>
          <polygon class="cls-69" points="447.85 147.33 447.85 147.33 365.62 147.33 365.44 147.33 283.2 147.33 283.2 147.33 200.96 147.33 200.78 147.33 118.72 147.33 118.72 88.33 118.72 88.2 118.72 63.88 118.72 29.08 118.55 29.08 118.55 7.24 10.38 7.24 10.38 29.08 2.89 29.08 2.89 53.66 2.69 53.66 2.69 88.46 2.89 88.46 2.89 112.53 2.69 112.53 2.69 147.33 2.89 147.33 2.89 147.46 2.89 230.48 2.89 230.48 118.72 230.48 118.72 230.48 200.78 230.48 200.96 230.48 283.2 230.48 283.2 230.48 365.44 230.48 365.62 230.48 447.85 230.48 447.85 230.48 530.27 230.48 530.27 225.1 560.64 225.1 560.64 147.33 530.27 147.33 447.85 147.33"/>
          <polygon class="cls-45" points="448.53 147.21 448.53 147.21 366.29 147.21 366.11 147.21 283.87 147.21 283.87 147.21 201.64 147.21 201.46 147.21 119.4 147.21 119.4 88.22 119.4 88.09 119.4 63.76 119.4 28.96 119.22 28.96 119.22 7.13 11.06 7.13 11.06 28.96 3.56 28.96 3.56 53.55 3.37 53.55 3.37 88.35 3.56 88.35 3.56 112.41 3.37 112.41 3.37 147.21 3.56 147.21 3.56 147.34 3.56 230.37 3.56 230.37 119.4 230.37 119.4 230.37 201.46 230.37 201.64 230.37 283.87 230.37 283.87 230.37 366.11 230.37 366.29 230.37 448.53 230.37 448.53 230.37 530.94 230.37 530.94 224.98 561.31 224.98 561.31 147.21 530.94 147.21 448.53 147.21"/>
          <polygon class="cls-70" points="449.2 147.1 449.2 147.1 366.96 147.1 366.78 147.1 284.55 147.1 284.55 147.1 202.31 147.1 202.13 147.1 120.07 147.1 120.07 88.1 120.07 87.97 120.07 63.65 120.07 28.85 119.89 28.85 119.89 7.01 11.73 7.01 11.73 28.85 4.24 28.85 4.24 53.43 4.04 53.43 4.04 88.23 4.24 88.23 4.24 112.3 4.04 112.3 4.04 147.1 4.24 147.1 4.24 147.23 4.24 230.25 4.24 230.25 120.07 230.25 120.07 230.25 202.13 230.25 202.31 230.25 284.55 230.25 284.55 230.25 366.78 230.25 366.96 230.25 449.2 230.25 449.2 230.25 531.62 230.25 531.62 224.87 561.98 224.87 561.98 147.1 531.62 147.1 449.2 147.1"/>
          <polygon class="cls-85" points="449.87 146.98 449.87 146.98 367.64 146.98 367.46 146.98 285.22 146.98 285.22 146.98 202.98 146.98 202.8 146.98 120.74 146.98 120.74 87.99 120.74 87.86 120.74 63.53 120.74 28.73 120.57 28.73 120.57 6.9 12.4 6.9 12.4 28.73 4.91 28.73 4.91 53.32 4.71 53.32 4.71 88.12 4.91 88.12 4.91 112.18 4.71 112.18 4.71 146.98 4.91 146.98 4.91 147.11 4.91 230.14 4.91 230.14 120.74 230.14 120.74 230.14 202.8 230.14 202.98 230.14 285.22 230.14 285.22 230.14 367.46 230.14 367.64 230.14 449.87 230.14 449.87 230.14 532.29 230.14 532.29 224.75 562.66 224.75 562.66 146.98 532.29 146.98 449.87 146.98"/>
          <polygon class="cls-78" points="450.55 146.87 450.55 146.87 368.31 146.87 368.13 146.87 285.89 146.87 285.89 146.87 203.65 146.87 203.47 146.87 121.42 146.87 121.42 87.87 121.42 87.74 121.42 63.41 121.42 28.61 121.24 28.61 121.24 6.78 13.08 6.78 13.08 28.61 5.58 28.61 5.58 53.2 5.39 53.2 5.39 88 5.58 88 5.58 112.07 5.39 112.07 5.39 146.87 5.58 146.87 5.58 147 5.58 230.02 5.58 230.02 121.42 230.02 121.42 230.02 203.48 230.02 203.65 230.02 285.89 230.02 285.89 230.02 368.13 230.02 368.31 230.02 450.55 230.02 450.55 230.02 532.96 230.02 532.96 224.64 563.33 224.64 563.33 146.87 532.96 146.87 450.55 146.87"/>
          <polygon class="cls-49" points="451.22 146.75 451.22 146.75 368.98 146.75 368.8 146.75 286.57 146.75 286.57 146.75 204.33 146.75 204.15 146.75 122.09 146.75 122.09 87.76 122.09 87.63 122.09 63.3 122.09 28.5 121.91 28.5 121.91 6.66 13.75 6.66 13.75 28.5 6.26 28.5 6.26 53.09 6.06 53.09 6.06 87.89 6.26 87.89 6.26 111.95 6.06 111.95 6.06 146.75 6.26 146.75 6.26 146.88 6.26 229.91 6.26 229.91 122.09 229.91 122.09 229.91 204.15 229.91 204.33 229.91 286.57 229.91 286.57 229.91 368.8 229.91 368.98 229.91 451.22 229.91 451.22 229.91 533.63 229.91 533.63 224.52 564 224.52 564 146.75 533.63 146.75 451.22 146.75"/>
          <polygon class="cls-51" points="451.89 146.64 451.89 146.64 369.65 146.64 369.48 146.64 287.24 146.64 287.24 146.64 205 146.64 204.82 146.64 122.76 146.64 122.76 87.64 122.76 87.51 122.76 63.18 122.76 28.38 122.59 28.38 122.59 6.55 14.42 6.55 14.42 28.38 6.93 28.38 6.93 52.97 6.73 52.97 6.73 87.77 6.93 87.77 6.93 111.84 6.73 111.84 6.73 146.64 6.93 146.64 6.93 146.77 6.93 229.79 6.93 229.79 122.76 229.79 122.76 229.79 204.82 229.79 205 229.79 287.24 229.79 287.24 229.79 369.48 229.79 369.65 229.79 451.89 229.79 451.89 229.79 534.31 229.79 534.31 224.41 564.68 224.41 564.68 146.64 534.31 146.64 451.89 146.64"/>
          <polygon class="cls-41" points="452.57 146.52 452.57 146.52 370.33 146.52 370.15 146.52 287.91 146.52 287.91 146.52 205.67 146.52 205.49 146.52 123.44 146.52 123.44 87.52 123.44 87.4 123.44 63.07 123.44 28.27 123.26 28.27 123.26 6.43 15.09 6.43 15.09 28.27 7.6 28.27 7.6 52.86 7.4 52.86 7.4 87.66 7.6 87.66 7.6 111.72 7.4 111.72 7.4 146.52 7.6 146.52 7.6 146.65 7.6 229.68 7.6 229.68 123.44 229.68 123.44 229.68 205.5 229.68 205.67 229.68 287.91 229.68 287.91 229.68 370.15 229.68 370.33 229.68 452.57 229.68 452.57 229.68 534.98 229.68 534.98 224.29 565.35 224.29 565.35 146.52 534.98 146.52 452.57 146.52"/>
          <polygon class="cls-82" points="453.24 146.41 453.24 146.41 371 146.41 370.82 146.41 288.59 146.41 288.59 146.41 206.35 146.41 206.17 146.41 124.11 146.41 124.11 87.41 124.11 87.28 124.11 62.95 124.11 28.15 123.93 28.15 123.93 6.32 15.77 6.32 15.77 28.15 8.28 28.15 8.28 52.74 8.08 52.74 8.08 87.54 8.28 87.54 8.28 111.61 8.08 111.61 8.08 146.41 8.28 146.41 8.28 146.54 8.28 229.56 8.28 229.56 124.11 229.56 124.11 229.56 206.17 229.56 206.35 229.56 288.59 229.56 288.59 229.56 370.82 229.56 371 229.56 453.24 229.56 453.24 229.56 535.65 229.56 535.65 224.18 566.02 224.18 566.02 146.41 535.65 146.41 453.24 146.41"/>
          <polygon class="cls-91" points="453.91 146.29 453.91 146.29 371.67 146.29 371.5 146.29 289.26 146.29 289.26 146.29 207.02 146.29 206.84 146.29 124.78 146.29 124.78 87.29 124.78 87.17 124.78 62.84 124.78 28.04 124.61 28.04 124.61 6.2 16.44 6.2 16.44 28.04 8.95 28.04 8.95 52.63 8.75 52.63 8.75 87.43 8.95 87.43 8.95 111.49 8.75 111.49 8.75 146.29 8.95 146.29 8.95 146.42 8.95 229.45 8.95 229.45 124.78 229.45 124.78 229.45 206.84 229.45 207.02 229.45 289.26 229.45 289.26 229.45 371.5 229.45 371.67 229.45 453.91 229.45 453.91 229.45 536.33 229.45 536.33 224.06 566.7 224.06 566.7 146.29 536.33 146.29 453.91 146.29"/>
          <polygon class="cls-80" points="454.58 146.18 454.58 146.18 372.35 146.18 372.17 146.18 289.93 146.18 289.93 146.18 207.69 146.18 207.51 146.18 125.46 146.18 125.46 87.18 125.46 87.05 125.46 62.72 125.46 27.92 125.28 27.92 125.28 6.09 17.11 6.09 17.11 27.92 9.62 27.92 9.62 52.51 9.42 52.51 9.42 87.31 9.62 87.31 9.62 111.38 9.42 111.38 9.42 146.18 9.62 146.18 9.62 146.31 9.62 229.33 9.62 229.33 125.46 229.33 125.46 229.33 207.52 229.33 207.69 229.33 289.93 229.33 289.93 229.33 372.17 229.33 372.35 229.33 454.58 229.33 454.58 229.33 537 229.33 537 223.95 567.37 223.95 567.37 146.18 537 146.18 454.58 146.18"/>
          <polygon class="cls-40" points="455.26 146.06 455.26 146.06 373.02 146.06 372.84 146.06 290.6 146.06 290.6 146.06 208.37 146.06 208.19 146.06 126.13 146.06 126.13 87.06 126.13 86.94 126.13 62.61 126.13 27.81 125.95 27.81 125.95 5.97 17.79 5.97 17.79 27.81 10.3 27.81 10.3 52.4 10.1 52.4 10.1 87.2 10.3 87.2 10.3 111.26 10.1 111.26 10.1 146.06 10.3 146.06 10.3 146.19 10.3 229.22 10.3 229.22 126.13 229.22 126.13 229.22 208.19 229.22 208.37 229.22 290.6 229.22 290.6 229.22 372.84 229.22 373.02 229.22 455.26 229.22 455.26 229.22 537.67 229.22 537.67 223.83 568.04 223.83 568.04 146.06 537.67 146.06 455.26 146.06"/>
          <polygon class="cls-79" points="455.93 145.95 455.93 145.95 373.69 145.95 373.52 145.95 291.28 145.95 291.28 145.95 209.04 145.95 208.86 145.95 126.8 145.95 126.8 86.95 126.8 86.82 126.8 62.49 126.8 27.69 126.62 27.69 126.62 5.86 18.46 5.86 18.46 27.69 10.97 27.69 10.97 52.28 10.77 52.28 10.77 87.08 10.97 87.08 10.97 111.15 10.77 111.15 10.77 145.95 10.97 145.95 10.97 146.08 10.97 229.1 10.97 229.1 126.8 229.1 126.8 229.1 208.86 229.1 209.04 229.1 291.28 229.1 291.28 229.1 373.52 229.1 373.69 229.1 455.93 229.1 455.93 229.1 538.35 229.1 538.35 223.72 568.72 223.72 568.72 145.95 538.35 145.95 455.93 145.95"/>
          <polygon class="cls-88" points="456.6 145.83 456.6 145.83 374.37 145.83 374.19 145.83 291.95 145.83 291.95 145.83 209.71 145.83 209.53 145.83 127.48 145.83 127.48 86.83 127.48 86.71 127.48 62.38 127.48 27.58 127.3 27.58 127.3 5.74 19.13 5.74 19.13 27.58 11.64 27.58 11.64 52.17 11.44 52.17 11.44 86.97 11.64 86.97 11.64 111.03 11.44 111.03 11.44 145.83 11.64 145.83 11.64 145.96 11.64 228.99 11.64 228.99 127.48 228.99 127.48 228.99 209.54 228.99 209.71 228.99 291.95 228.99 291.95 228.99 374.19 228.99 374.37 228.99 456.6 228.99 456.6 228.99 539.02 228.99 539.02 223.6 569.39 223.6 569.39 145.83 539.02 145.83 456.6 145.83"/>
          <polygon class="cls-95" points="457.28 145.72 457.28 145.72 375.04 145.72 374.86 145.72 292.62 145.72 292.62 145.72 210.39 145.72 210.21 145.72 128.15 145.72 128.15 86.72 128.15 86.59 128.15 62.26 128.15 27.46 127.97 27.46 127.97 5.63 19.81 5.63 19.81 27.46 12.32 27.46 12.32 52.05 12.12 52.05 12.12 86.85 12.32 86.85 12.32 110.92 12.12 110.92 12.12 145.72 12.32 145.72 12.32 145.85 12.32 228.87 12.32 228.87 128.15 228.87 128.15 228.87 210.21 228.87 210.39 228.87 292.62 228.87 292.62 228.87 374.86 228.87 375.04 228.87 457.28 228.87 457.28 228.87 539.69 228.87 539.69 223.48 570.06 223.48 570.06 145.72 539.69 145.72 457.28 145.72"/>
          <polygon class="cls-90" points="457.95 145.6 457.95 145.6 375.71 145.6 375.54 145.6 293.3 145.6 293.3 145.6 211.06 145.6 210.88 145.6 128.82 145.6 128.82 86.6 128.82 86.48 128.82 62.15 128.82 27.35 128.64 27.35 128.64 5.51 20.48 5.51 20.48 27.35 12.99 27.35 12.99 51.94 12.79 51.94 12.79 86.74 12.99 86.74 12.99 110.8 12.79 110.8 12.79 145.6 12.99 145.6 12.99 145.73 12.99 228.76 12.99 228.76 128.82 228.76 128.82 228.76 210.88 228.76 211.06 228.76 293.3 228.76 293.3 228.76 375.54 228.76 375.71 228.76 457.95 228.76 457.95 228.76 540.37 228.76 540.37 223.37 570.74 223.37 570.74 145.6 540.37 145.6 457.95 145.6"/>
          <polygon class="cls-73" points="458.62 145.49 458.62 145.49 376.39 145.49 376.21 145.49 293.97 145.49 293.97 145.49 211.73 145.49 211.55 145.49 129.5 145.49 129.5 86.49 129.5 86.36 129.5 62.03 129.5 27.23 129.32 27.23 129.32 5.4 21.15 5.4 21.15 27.23 13.66 27.23 13.66 51.82 13.46 51.82 13.46 86.62 13.66 86.62 13.66 110.69 13.46 110.69 13.46 145.49 13.66 145.49 13.66 145.62 13.66 228.64 13.66 228.64 129.5 228.64 129.5 228.64 211.55 228.64 211.73 228.64 293.97 228.64 293.97 228.64 376.21 228.64 376.39 228.64 458.62 228.64 458.62 228.64 541.04 228.64 541.04 223.25 571.41 223.25 571.41 145.49 541.04 145.49 458.62 145.49"/>
          <polygon class="cls-65" points="459.3 145.37 459.3 145.37 377.06 145.37 376.88 145.37 294.64 145.37 294.64 145.37 212.41 145.37 212.23 145.37 130.17 145.37 130.17 86.37 130.17 86.25 130.17 61.92 130.17 27.12 129.99 27.12 129.99 5.28 21.83 5.28 21.83 27.12 14.33 27.12 14.33 51.71 14.14 51.71 14.14 86.51 14.33 86.51 14.33 110.57 14.14 110.57 14.14 145.37 14.33 145.37 14.33 145.5 14.33 228.53 14.33 228.53 130.17 228.53 130.17 228.53 212.23 228.53 212.41 228.53 294.64 228.53 294.64 228.53 376.88 228.53 377.06 228.53 459.3 228.53 459.3 228.53 541.71 228.53 541.71 223.14 572.08 223.14 572.08 145.37 541.71 145.37 459.3 145.37"/>
          <polygon class="cls-39" points="459.97 145.26 459.97 145.26 377.73 145.26 377.55 145.26 295.32 145.26 295.32 145.26 213.08 145.26 212.9 145.26 130.84 145.26 130.84 86.26 130.84 86.13 130.84 61.8 130.84 27 130.66 27 130.66 5.17 22.5 5.17 22.5 27 15.01 27 15.01 51.59 14.81 51.59 14.81 86.39 15.01 86.39 15.01 110.46 14.81 110.46 14.81 145.26 15.01 145.26 15.01 145.39 15.01 228.41 15.01 228.41 130.84 228.41 130.84 228.41 212.9 228.41 213.08 228.41 295.32 228.41 295.32 228.41 377.55 228.41 377.73 228.41 459.97 228.41 459.97 228.41 542.39 228.41 542.39 223.02 572.76 223.02 572.76 145.26 542.39 145.26 459.97 145.26"/>
          <polygon class="cls-76" points="460.64 145.14 460.64 145.14 378.41 145.14 378.23 145.14 295.99 145.14 295.99 145.14 213.75 145.14 213.57 145.14 131.51 145.14 131.51 86.14 131.51 86.02 131.51 61.69 131.51 26.89 131.34 26.89 131.34 5.05 23.17 5.05 23.17 26.89 15.68 26.89 15.68 51.48 15.48 51.48 15.48 86.28 15.68 86.28 15.68 110.34 15.48 110.34 15.48 145.14 15.68 145.14 15.68 145.27 15.68 228.3 15.68 228.3 131.51 228.3 131.51 228.3 213.57 228.3 213.75 228.3 295.99 228.3 295.99 228.3 378.23 228.3 378.41 228.3 460.64 228.3 460.64 228.3 543.06 228.3 543.06 222.91 573.43 222.91 573.43 145.14 543.06 145.14 460.64 145.14"/>
          <polygon class="cls-62" points="461.32 145.03 461.32 145.03 379.08 145.03 378.9 145.03 296.66 145.03 296.66 145.03 214.43 145.03 214.25 145.03 132.19 145.03 132.19 86.03 132.19 85.9 132.19 61.57 132.19 26.77 132.01 26.77 132.01 4.94 23.85 4.94 23.85 26.77 16.35 26.77 16.35 51.36 16.16 51.36 16.16 86.16 16.35 86.16 16.35 110.23 16.16 110.23 16.16 145.03 16.35 145.03 16.35 145.16 16.35 228.18 16.35 228.18 132.19 228.18 132.19 228.18 214.25 228.18 214.43 228.18 296.66 228.18 296.66 228.18 378.9 228.18 379.08 228.18 461.32 228.18 461.32 228.18 543.73 228.18 543.73 222.79 574.1 222.79 574.1 145.03 543.73 145.03 461.32 145.03"/>
          <polygon class="cls-61" points="461.99 144.91 461.99 144.91 379.75 144.91 379.57 144.91 297.34 144.91 297.34 144.91 215.1 144.91 214.92 144.91 132.86 144.91 132.86 85.91 132.86 85.79 132.86 61.46 132.86 26.66 132.68 26.66 132.68 4.82 24.52 4.82 24.52 26.66 17.03 26.66 17.03 51.25 16.83 51.25 16.83 86.05 17.03 86.05 17.03 110.11 16.83 110.11 16.83 144.91 17.03 144.91 17.03 145.04 17.03 228.07 17.03 228.07 132.86 228.07 132.86 228.07 214.92 228.07 215.1 228.07 297.34 228.07 297.34 228.07 379.57 228.07 379.75 228.07 461.99 228.07 461.99 228.07 544.41 228.07 544.41 222.68 574.77 222.68 574.77 144.91 544.41 144.91 461.99 144.91"/>
          <polygon class="cls-71" points="462.66 144.8 462.66 144.8 380.43 144.8 380.25 144.8 298.01 144.8 298.01 144.8 215.77 144.8 215.59 144.8 133.53 144.8 133.53 85.8 133.53 85.67 133.53 61.34 133.53 26.54 133.36 26.54 133.36 4.71 25.19 4.71 25.19 26.54 17.7 26.54 17.7 51.13 17.5 51.13 17.5 85.93 17.7 85.93 17.7 110 17.5 110 17.5 144.8 17.7 144.8 17.7 144.93 17.7 227.95 17.7 227.95 133.53 227.95 133.53 227.95 215.59 227.95 215.77 227.95 298.01 227.95 298.01 227.95 380.25 227.95 380.43 227.95 462.66 227.95 462.66 227.95 545.08 227.95 545.08 222.56 575.45 222.56 575.45 144.8 545.08 144.8 462.66 144.8"/>
          <polygon class="cls-68" points="463.34 144.68 463.34 144.68 381.1 144.68 380.92 144.68 298.68 144.68 298.68 144.68 216.44 144.68 216.27 144.68 134.21 144.68 134.21 85.68 134.21 85.56 134.21 61.23 134.21 26.43 134.03 26.43 134.03 4.59 25.87 4.59 25.87 26.43 18.37 26.43 18.37 51.02 18.18 51.02 18.18 85.82 18.37 85.82 18.37 109.88 18.18 109.88 18.18 144.68 18.37 144.68 18.37 144.81 18.37 227.84 18.37 227.84 134.21 227.84 134.21 227.84 216.27 227.84 216.44 227.84 298.68 227.84 298.68 227.84 380.92 227.84 381.1 227.84 463.34 227.84 463.34 227.84 545.75 227.84 545.75 222.45 576.12 222.45 576.12 144.68 545.75 144.68 463.34 144.68"/>
          <polygon class="cls-93" points="464.01 144.57 464.01 144.57 381.77 144.57 381.59 144.57 299.36 144.57 299.36 144.57 217.12 144.57 216.94 144.57 134.88 144.57 134.88 85.57 134.88 85.44 134.88 61.11 134.88 26.31 134.7 26.31 134.7 4.48 26.54 4.48 26.54 26.31 19.05 26.31 19.05 50.9 18.85 50.9 18.85 85.7 19.05 85.7 19.05 109.77 18.85 109.77 18.85 144.57 19.05 144.57 19.05 144.7 19.05 227.72 19.05 227.72 134.88 227.72 134.88 227.72 216.94 227.72 217.12 227.72 299.36 227.72 299.36 227.72 381.59 227.72 381.77 227.72 464.01 227.72 464.01 227.72 546.42 227.72 546.42 222.33 576.79 222.33 576.79 144.57 546.42 144.57 464.01 144.57"/>
          <polygon class="cls-50" points="464.68 144.45 464.68 144.45 382.44 144.45 382.27 144.45 300.03 144.45 300.03 144.45 217.79 144.45 217.61 144.45 135.55 144.45 135.55 85.45 135.55 85.33 135.55 61 135.55 26.2 135.38 26.2 135.38 4.36 27.21 4.36 27.21 26.2 19.72 26.2 19.72 50.79 19.52 50.79 19.52 85.59 19.72 85.59 19.72 109.65 19.52 109.65 19.52 144.45 19.72 144.45 19.72 144.58 19.72 227.61 19.72 227.61 135.55 227.61 135.55 227.61 217.61 227.61 217.79 227.61 300.03 227.61 300.03 227.61 382.27 227.61 382.44 227.61 464.68 227.61 464.68 227.61 547.1 227.61 547.1 222.22 577.47 222.22 577.47 144.45 547.1 144.45 464.68 144.45"/>
          <polygon class="cls-50" points="465.36 144.34 465.36 144.34 383.12 144.34 382.94 144.34 300.7 144.34 300.7 144.34 218.46 144.34 218.29 144.34 136.23 144.34 136.23 85.34 136.23 85.21 136.23 60.88 136.23 26.08 136.05 26.08 136.05 4.25 27.89 4.25 27.89 26.08 20.39 26.08 20.39 50.67 20.19 50.67 20.19 85.47 20.39 85.47 20.39 109.54 20.19 109.54 20.19 144.34 20.39 144.34 20.39 144.47 20.39 227.49 20.39 227.49 136.23 227.49 136.23 227.49 218.29 227.49 218.46 227.49 300.7 227.49 300.7 227.49 382.94 227.49 383.12 227.49 465.36 227.49 465.36 227.49 547.77 227.49 547.77 222.1 578.14 222.1 578.14 144.34 547.77 144.34 465.36 144.34"/>
          <polygon class="cls-60" points="466.03 144.22 466.03 144.22 383.79 144.22 383.61 144.22 301.38 144.22 301.38 144.22 219.14 144.22 218.96 144.22 136.9 144.22 136.9 85.22 136.9 85.1 136.9 60.77 136.9 25.97 136.72 25.97 136.72 4.13 28.56 4.13 28.56 25.97 21.07 25.97 21.07 50.56 20.87 50.56 20.87 85.36 21.07 85.36 21.07 109.42 20.87 109.42 20.87 144.22 21.07 144.22 21.07 144.35 21.07 227.38 21.07 227.38 136.9 227.38 136.9 227.38 218.96 227.38 219.14 227.38 301.38 227.38 301.38 227.38 383.61 227.38 383.79 227.38 466.03 227.38 466.03 227.38 548.44 227.38 548.44 221.99 578.81 221.99 578.81 144.22 548.44 144.22 466.03 144.22"/>
          <polygon class="cls-55" points="466.7 144.11 466.7 144.11 384.46 144.11 384.29 144.11 302.05 144.11 302.05 144.11 219.81 144.11 219.63 144.11 137.57 144.11 137.57 85.11 137.57 84.98 137.57 60.65 137.57 25.85 137.39 25.85 137.39 4.02 29.23 4.02 29.23 25.85 21.74 25.85 21.74 50.44 21.54 50.44 21.54 85.24 21.74 85.24 21.74 109.31 21.54 109.31 21.54 144.11 21.74 144.11 21.74 144.24 21.74 227.26 21.74 227.26 137.57 227.26 137.57 227.26 219.63 227.26 219.81 227.26 302.05 227.26 302.05 227.26 384.29 227.26 384.46 227.26 466.7 227.26 466.7 227.26 549.12 227.26 549.12 221.87 579.49 221.87 579.49 144.11 549.12 144.11 466.7 144.11"/>
          <polygon class="cls-96" points="467.37 143.99 467.37 143.99 385.14 143.99 384.96 143.99 302.72 143.99 302.72 143.99 220.48 143.99 220.3 143.99 138.25 143.99 138.25 84.99 138.25 84.86 138.25 60.54 138.25 25.74 138.07 25.74 138.07 3.9 29.91 3.9 29.91 25.74 22.41 25.74 22.41 50.33 22.21 50.33 22.21 85.12 22.41 85.12 22.41 109.19 22.21 109.19 22.21 143.99 22.41 143.99 22.41 144.12 22.41 227.15 22.41 227.15 138.25 227.15 138.25 227.15 220.31 227.15 220.48 227.15 302.72 227.15 302.72 227.15 384.96 227.15 385.14 227.15 467.37 227.15 467.37 227.15 549.79 227.15 549.79 221.76 580.16 221.76 580.16 143.99 549.79 143.99 467.37 143.99"/>
          <polygon class="cls-57" points="468.05 143.88 468.05 143.88 385.81 143.88 385.63 143.88 303.39 143.88 303.39 143.88 221.16 143.88 220.98 143.88 138.92 143.88 138.92 84.88 138.92 84.75 138.92 60.42 138.92 25.62 138.74 25.62 138.74 3.79 30.58 3.79 30.58 25.62 23.09 25.62 23.09 50.21 22.89 50.21 22.89 85.01 23.09 85.01 23.09 109.08 22.89 109.08 22.89 143.88 23.09 143.88 23.09 144.01 23.09 227.03 23.09 227.03 138.92 227.03 138.92 227.03 220.98 227.03 221.16 227.03 303.39 227.03 303.39 227.03 385.63 227.03 385.81 227.03 468.05 227.03 468.05 227.03 550.46 227.03 550.46 221.64 580.83 221.64 580.83 143.88 550.46 143.88 468.05 143.88"/>
          <polygon class="cls-31" points="468.72 143.76 468.72 143.76 386.48 143.76 386.31 143.76 304.07 143.76 304.07 143.76 221.83 143.76 221.65 143.76 139.59 143.76 139.59 84.76 139.59 84.63 139.59 60.31 139.59 25.51 139.41 25.51 139.41 3.67 31.25 3.67 31.25 25.51 23.76 25.51 23.76 50.1 23.56 50.1 23.56 84.89 23.76 84.89 23.76 108.96 23.56 108.96 23.56 143.76 23.76 143.76 23.76 143.89 23.76 226.92 23.76 226.92 139.59 226.92 139.59 226.92 221.65 226.92 221.83 226.92 304.07 226.92 304.07 226.92 386.31 226.92 386.48 226.92 468.72 226.92 468.72 226.92 551.14 226.92 551.14 221.53 581.51 221.53 581.51 143.76 551.14 143.76 468.72 143.76"/>
          <polygon class="cls-75" points="469.39 143.65 469.39 143.65 387.16 143.65 386.98 143.65 304.74 143.65 304.74 143.65 222.5 143.65 222.32 143.65 140.27 143.65 140.27 84.65 140.27 84.52 140.27 60.19 140.27 25.39 140.09 25.39 140.09 3.56 31.92 3.56 31.92 25.39 24.43 25.39 24.43 49.98 24.23 49.98 24.23 84.78 24.43 84.78 24.43 108.85 24.23 108.85 24.23 143.65 24.43 143.65 24.43 143.77 24.43 226.8 24.43 226.8 140.27 226.8 140.27 226.8 222.33 226.8 222.5 226.8 304.74 226.8 304.74 226.8 386.98 226.8 387.16 226.8 469.39 226.8 469.39 226.8 551.81 226.8 551.81 221.41 582.18 221.41 582.18 143.65 551.81 143.65 469.39 143.65"/>
          <polygon class="cls-46" points="470.07 143.53 470.07 143.53 387.83 143.53 387.65 143.53 305.41 143.53 305.41 143.53 223.18 143.53 223 143.53 140.94 143.53 140.94 84.53 140.94 84.4 140.94 60.08 140.94 25.28 140.76 25.28 140.76 3.44 32.6 3.44 32.6 25.28 25.11 25.28 25.11 49.87 24.91 49.87 24.91 84.66 25.11 84.66 25.11 108.73 24.91 108.73 24.91 143.53 25.11 143.53 25.11 143.66 25.11 226.69 25.11 226.69 140.94 226.69 140.94 226.69 223 226.69 223.18 226.69 305.41 226.69 305.41 226.69 387.65 226.69 387.83 226.69 470.07 226.69 470.07 226.69 552.48 226.69 552.48 221.3 582.85 221.3 582.85 143.53 552.48 143.53 470.07 143.53"/>
          <polygon class="cls-64" points="470.74 143.42 470.74 143.42 388.5 143.42 388.33 143.42 306.09 143.42 306.09 143.42 223.85 143.42 223.67 143.42 141.61 143.42 141.61 84.42 141.61 84.29 141.61 59.96 141.61 25.16 141.43 25.16 141.43 3.33 33.27 3.33 33.27 25.16 25.78 25.16 25.78 49.75 25.58 49.75 25.58 84.55 25.78 84.55 25.78 108.62 25.58 108.62 25.58 143.42 25.78 143.42 25.78 143.54 25.78 226.57 25.78 226.57 141.61 226.57 141.61 226.57 223.67 226.57 223.85 226.57 306.09 226.57 306.09 226.57 388.33 226.57 388.5 226.57 470.74 226.57 470.74 226.57 553.16 226.57 553.16 221.18 583.53 221.18 583.53 143.42 553.16 143.42 470.74 143.42"/>
          <polygon class="cls-83" points="471.41 143.3 471.41 143.3 389.18 143.3 389 143.3 306.76 143.3 306.76 143.3 224.52 143.3 224.34 143.3 142.29 143.3 142.29 84.3 142.29 84.17 142.29 59.85 142.29 25.05 142.11 25.05 142.11 3.21 33.94 3.21 33.94 25.05 26.45 25.05 26.45 49.64 26.25 49.64 26.25 84.43 26.45 84.43 26.45 108.5 26.25 108.5 26.25 143.3 26.45 143.3 26.45 143.43 26.45 226.46 26.45 226.46 142.29 226.46 142.29 226.46 224.34 226.46 224.52 226.46 306.76 226.46 306.76 226.46 389 226.46 389.18 226.46 471.41 226.46 471.41 226.46 553.83 226.46 553.83 221.07 584.2 221.07 584.2 143.3 553.83 143.3 471.41 143.3"/>
          <polygon class="cls-48" points="472.09 143.19 472.09 143.19 389.85 143.19 389.67 143.19 307.43 143.19 307.43 143.19 225.2 143.19 225.02 143.19 142.96 143.19 142.96 84.19 142.96 84.06 142.96 59.73 142.96 24.93 142.78 24.93 142.78 3.1 34.62 3.1 34.62 24.93 27.12 24.93 27.12 49.52 26.93 49.52 26.93 84.32 27.12 84.32 27.12 108.39 26.93 108.39 26.93 143.19 27.12 143.19 27.12 143.31 27.12 226.34 27.12 226.34 142.96 226.34 142.96 226.34 225.02 226.34 225.2 226.34 307.43 226.34 307.43 226.34 389.67 226.34 389.85 226.34 472.09 226.34 472.09 226.34 554.5 226.34 554.5 220.95 584.87 220.95 584.87 143.19 554.5 143.19 472.09 143.19"/>
          <polygon class="cls-59" points="472.76 143.07 472.76 143.07 390.52 143.07 390.34 143.07 308.11 143.07 308.11 143.07 225.87 143.07 225.69 143.07 143.63 143.07 143.63 84.07 143.63 83.94 143.63 59.62 143.63 24.82 143.45 24.82 143.45 2.98 35.29 2.98 35.29 24.82 27.8 24.82 27.8 49.41 27.6 49.41 27.6 84.2 27.8 84.2 27.8 108.27 27.6 108.27 27.6 143.07 27.8 143.07 27.8 143.2 27.8 226.23 27.8 226.23 143.63 226.23 143.63 226.23 225.69 226.23 225.87 226.23 308.11 226.23 308.11 226.23 390.34 226.23 390.52 226.23 472.76 226.23 472.76 226.23 555.18 226.23 555.18 220.84 585.54 220.84 585.54 143.07 555.18 143.07 472.76 143.07"/>
          <polygon class="cls-53" points="473.43 142.96 473.43 142.96 391.2 142.96 391.02 142.96 308.78 142.96 308.78 142.96 226.54 142.96 226.36 142.96 144.3 142.96 144.3 83.96 144.3 83.83 144.3 59.5 144.3 24.7 144.13 24.7 144.13 2.87 35.96 2.87 35.96 24.7 28.47 24.7 28.47 49.29 28.27 49.29 28.27 84.09 28.47 84.09 28.47 108.16 28.27 108.16 28.27 142.96 28.47 142.96 28.47 143.08 28.47 226.11 28.47 226.11 144.3 226.11 144.3 226.11 226.36 226.11 226.54 226.11 308.78 226.11 308.78 226.11 391.02 226.11 391.2 226.11 473.43 226.11 473.43 226.11 555.85 226.11 555.85 220.72 586.22 220.72 586.22 142.96 555.85 142.96 473.43 142.96"/>
          <polygon class="cls-74" points="474.11 142.84 474.11 142.84 391.87 142.84 391.69 142.84 309.45 142.84 309.45 142.84 227.22 142.84 227.04 142.84 144.98 142.84 144.98 83.84 144.98 83.71 144.98 59.39 144.98 24.59 144.8 24.59 144.8 2.75 36.64 2.75 36.64 24.59 29.14 24.59 29.14 49.18 28.95 49.18 28.95 83.97 29.14 83.97 29.14 108.04 28.95 108.04 28.95 142.84 29.14 142.84 29.14 142.97 29.14 226 29.14 226 144.98 226 144.98 226 227.04 226 227.22 226 309.45 226 309.45 226 391.69 226 391.87 226 474.11 226 474.11 226 556.52 226 556.52 220.61 586.89 220.61 586.89 142.84 556.52 142.84 474.11 142.84"/>
          <polygon class="cls-63" points="474.78 142.73 474.78 142.73 392.54 142.73 392.36 142.73 310.13 142.73 310.13 142.73 227.89 142.73 227.71 142.73 145.65 142.73 145.65 83.73 145.65 83.6 145.65 59.27 145.65 24.47 145.47 24.47 145.47 2.64 37.31 2.64 37.31 24.47 29.82 24.47 29.82 49.06 29.62 49.06 29.62 83.86 29.82 83.86 29.82 107.93 29.62 107.93 29.62 142.73 29.82 142.73 29.82 142.85 29.82 225.88 29.82 225.88 145.65 225.88 145.65 225.88 227.71 225.88 227.89 225.88 310.13 225.88 310.13 225.88 392.36 225.88 392.54 225.88 474.78 225.88 474.78 225.88 557.2 225.88 557.2 220.49 587.56 220.49 587.56 142.73 557.2 142.73 474.78 142.73"/>
          <polygon class="cls-72" points="475.45 142.61 475.45 142.61 393.22 142.61 393.04 142.61 310.8 142.61 310.8 142.61 228.56 142.61 228.38 142.61 146.32 142.61 146.32 83.61 146.32 83.48 146.32 59.16 146.32 24.36 146.15 24.36 146.15 2.52 37.98 2.52 37.98 24.36 30.49 24.36 30.49 48.95 30.29 48.95 30.29 83.74 30.49 83.74 30.49 107.81 30.29 107.81 30.29 142.61 30.49 142.61 30.49 142.74 30.49 225.77 30.49 225.77 146.32 225.77 146.32 225.77 228.38 225.77 228.56 225.77 310.8 225.77 310.8 225.77 393.04 225.77 393.22 225.77 475.45 225.77 475.45 225.77 557.87 225.77 557.87 220.38 588.24 220.38 588.24 142.61 557.87 142.61 475.45 142.61"/>
          <polygon class="cls-86" points="476.13 142.5 476.13 142.5 393.89 142.5 393.71 142.5 311.47 142.5 311.47 142.5 229.23 142.5 229.06 142.5 147 142.5 147 83.5 147 83.37 147 59.04 147 24.24 146.82 24.24 146.82 2.41 38.66 2.41 38.66 24.24 31.16 24.24 31.16 48.83 30.97 48.83 30.97 83.63 31.16 83.63 31.16 107.7 30.97 107.7 30.97 142.5 31.16 142.5 31.16 142.62 31.16 225.65 31.16 225.65 147 225.65 147 225.65 229.06 225.65 229.23 225.65 311.47 225.65 311.47 225.65 393.71 225.65 393.89 225.65 476.13 225.65 476.13 225.65 558.54 225.65 558.54 220.26 588.91 220.26 588.91 142.5 558.54 142.5 476.13 142.5"/>
          <polygon class="cls-44" points="476.8 142.38 476.8 142.38 394.56 142.38 394.38 142.38 312.15 142.38 312.15 142.38 229.91 142.38 229.73 142.38 147.67 142.38 147.67 83.38 147.67 83.25 147.67 58.93 147.67 24.13 147.49 24.13 147.49 2.29 39.33 2.29 39.33 24.13 31.84 24.13 31.84 48.72 31.64 48.72 31.64 83.51 31.84 83.51 31.84 107.58 31.64 107.58 31.64 142.38 31.84 142.38 31.84 142.51 31.84 225.53 31.84 225.53 147.67 225.53 147.67 225.53 229.73 225.53 229.91 225.53 312.15 225.53 312.15 225.53 394.38 225.53 394.56 225.53 476.8 225.53 476.8 225.53 559.21 225.53 559.21 220.15 589.58 220.15 589.58 142.38 559.21 142.38 476.8 142.38"/>
          <polygon class="cls-89" points="477.47 142.27 477.47 142.27 395.23 142.27 395.06 142.27 312.82 142.27 312.82 142.27 230.58 142.27 230.4 142.27 148.34 142.27 148.34 83.27 148.34 83.14 148.34 58.81 148.34 24.01 148.17 24.01 148.17 2.18 40 2.18 40 24.01 32.51 24.01 32.51 48.6 32.31 48.6 32.31 83.4 32.51 83.4 32.51 107.47 32.31 107.47 32.31 142.27 32.51 142.27 32.51 142.39 32.51 225.42 32.51 225.42 148.34 225.42 148.34 225.42 230.4 225.42 230.58 225.42 312.82 225.42 312.82 225.42 395.06 225.42 395.23 225.42 477.47 225.42 477.47 225.42 559.89 225.42 559.89 220.03 590.26 220.03 590.26 142.27 559.89 142.27 477.47 142.27"/>
          <polygon class="cls-58" points="478.15 142.15 478.15 142.15 395.91 142.15 395.73 142.15 313.49 142.15 313.49 142.15 231.25 142.15 231.08 142.15 149.02 142.15 149.02 83.15 149.02 83.02 149.02 58.7 149.02 23.9 148.84 23.9 148.84 2.06 40.68 2.06 40.68 23.9 33.18 23.9 33.18 48.49 32.98 48.49 32.98 83.28 33.18 83.28 33.18 107.35 32.98 107.35 32.98 142.15 33.18 142.15 33.18 142.28 33.18 225.3 33.18 225.3 149.02 225.3 149.02 225.3 231.08 225.3 231.25 225.3 313.49 225.3 313.49 225.3 395.73 225.3 395.91 225.3 478.15 225.3 478.15 225.3 560.56 225.3 560.56 219.92 590.93 219.92 590.93 142.15 560.56 142.15 478.15 142.15"/>
          <polygon class="cls-81" points="478.82 142.04 478.82 142.04 396.58 142.04 396.4 142.04 314.17 142.04 314.17 142.04 231.93 142.04 231.75 142.04 149.69 142.04 149.69 83.04 149.69 82.91 149.69 58.58 149.69 23.78 149.51 23.78 149.51 1.95 41.35 1.95 41.35 23.78 33.86 23.78 33.86 48.37 33.66 48.37 33.66 83.17 33.86 83.17 33.86 107.24 33.66 107.24 33.66 142.04 33.86 142.04 33.86 142.16 33.86 225.19 33.86 225.19 149.69 225.19 149.69 225.19 231.75 225.19 231.93 225.19 314.17 225.19 314.17 225.19 396.4 225.19 396.58 225.19 478.82 225.19 478.82 225.19 561.23 225.19 561.23 219.8 591.6 219.8 591.6 142.04 561.23 142.04 478.82 142.04"/>
          <polygon class="cls-84" points="479.49 141.92 479.49 141.92 397.25 141.92 397.08 141.92 314.84 141.92 314.84 141.92 232.6 141.92 232.42 141.92 150.36 141.92 150.36 82.92 150.36 82.79 150.36 58.47 150.36 23.67 150.18 23.67 150.18 1.83 42.02 1.83 42.02 23.67 34.53 23.67 34.53 48.26 34.33 48.26 34.33 83.05 34.53 83.05 34.53 107.12 34.33 107.12 34.33 141.92 34.53 141.92 34.53 142.05 34.53 225.07 34.53 225.07 150.36 225.07 150.36 225.07 232.42 225.07 232.6 225.07 314.84 225.07 314.84 225.07 397.08 225.07 397.25 225.07 479.49 225.07 479.49 225.07 561.91 225.07 561.91 219.69 592.28 219.69 592.28 141.92 561.91 141.92 479.49 141.92"/>
          <polygon class="cls-77" points="480.16 141.81 480.16 141.81 397.93 141.81 397.75 141.81 315.51 141.81 315.51 141.81 233.27 141.81 233.1 141.81 151.04 141.81 151.04 82.81 151.04 82.68 151.04 58.35 151.04 23.55 150.86 23.55 150.86 1.72 42.7 1.72 42.7 23.55 35.2 23.55 35.2 48.14 35 48.14 35 82.94 35.2 82.94 35.2 107.01 35 107.01 35 141.81 35.2 141.81 35.2 141.93 35.2 224.96 35.2 224.96 151.04 224.96 151.04 224.96 233.1 224.96 233.27 224.96 315.51 224.96 315.51 224.96 397.75 224.96 397.93 224.96 480.16 224.96 480.16 224.96 562.58 224.96 562.58 219.57 592.95 219.57 592.95 141.81 562.58 141.81 480.16 141.81"/>
          <polygon class="cls-43" points="480.84 141.69 480.84 141.69 398.6 141.69 398.42 141.69 316.18 141.69 316.18 141.69 233.95 141.69 233.77 141.69 151.71 141.69 151.71 82.69 151.71 82.56 151.71 58.24 151.71 23.44 151.53 23.44 151.53 1.6 43.37 1.6 43.37 23.44 35.88 23.44 35.88 48.03 35.68 48.03 35.68 82.82 35.88 82.82 35.88 106.89 35.68 106.89 35.68 141.69 35.88 141.69 35.88 141.82 35.88 224.84 35.88 224.84 151.71 224.84 151.71 224.84 233.77 224.84 233.95 224.84 316.18 224.84 316.18 224.84 398.42 224.84 398.6 224.84 480.84 224.84 480.84 224.84 563.25 224.84 563.25 219.46 593.62 219.46 593.62 141.69 563.25 141.69 480.84 141.69"/>
          <polygon class="cls-47" points="481.51 141.58 481.51 141.58 399.27 141.58 399.1 141.58 316.86 141.58 316.86 141.58 234.62 141.58 234.44 141.58 152.38 141.58 152.38 82.58 152.38 82.45 152.38 58.12 152.38 23.32 152.2 23.32 152.2 1.49 44.04 1.49 44.04 23.32 36.55 23.32 36.55 47.91 36.35 47.91 36.35 82.71 36.55 82.71 36.55 106.78 36.35 106.78 36.35 141.58 36.55 141.58 36.55 141.7 36.55 224.73 36.55 224.73 152.38 224.73 152.38 224.73 234.44 224.73 234.62 224.73 316.86 224.73 316.86 224.73 399.1 224.73 399.27 224.73 481.51 224.73 481.51 224.73 563.93 224.73 563.93 219.34 594.3 219.34 594.3 141.58 563.93 141.58 481.51 141.58"/>
          <polygon class="cls-54" points="482.18 141.46 482.18 141.46 399.95 141.46 399.77 141.46 317.53 141.46 317.53 141.46 235.29 141.46 235.12 141.46 153.06 141.46 153.06 82.46 153.06 82.33 153.06 58.01 153.06 23.21 152.88 23.21 152.88 1.37 44.72 1.37 44.72 23.21 37.22 23.21 37.22 47.79 37.02 47.79 37.02 82.59 37.22 82.59 37.22 106.66 37.02 106.66 37.02 141.46 37.22 141.46 37.22 141.59 37.22 224.61 37.22 224.61 153.06 224.61 153.06 224.61 235.12 224.61 235.29 224.61 317.53 224.61 317.53 224.61 399.77 224.61 399.95 224.61 482.18 224.61 482.18 224.61 564.6 224.61 564.6 219.23 594.97 219.23 594.97 141.46 564.6 141.46 482.18 141.46"/>
          <polygon class="cls-66" points="482.86 141.35 482.86 141.35 400.62 141.35 400.44 141.35 318.2 141.35 318.2 141.35 235.97 141.35 235.79 141.35 153.73 141.35 153.73 82.35 153.73 82.22 153.73 57.89 153.73 23.09 153.55 23.09 153.55 1.26 45.39 1.26 45.39 23.09 37.9 23.09 37.9 47.68 37.7 47.68 37.7 82.48 37.9 82.48 37.9 106.54 37.7 106.54 37.7 141.35 37.9 141.35 37.9 141.47 37.9 224.5 37.9 224.5 153.73 224.5 153.73 224.5 235.79 224.5 235.97 224.5 318.2 224.5 318.2 224.5 400.44 224.5 400.62 224.5 482.86 224.5 482.86 224.5 565.27 224.5 565.27 219.11 595.64 219.11 595.64 141.35 565.27 141.35 482.86 141.35"/>
          <polygon class="cls-56" points="483.53 141.23 483.53 141.23 401.29 141.23 401.11 141.23 318.88 141.23 318.88 141.23 236.64 141.23 236.46 141.23 154.4 141.23 154.4 82.23 154.4 82.1 154.4 57.78 154.4 22.98 154.22 22.98 154.22 1.14 46.06 1.14 46.06 22.98 38.57 22.98 38.57 47.56 38.37 47.56 38.37 82.36 38.57 82.36 38.57 106.43 38.37 106.43 38.37 141.23 38.57 141.23 38.57 141.36 38.57 224.38 38.57 224.38 154.4 224.38 154.4 224.38 236.46 224.38 236.64 224.38 318.88 224.38 318.88 224.38 401.11 224.38 401.29 224.38 483.53 224.38 483.53 224.38 565.95 224.38 565.95 219 596.32 219 596.32 141.23 565.95 141.23 483.53 141.23"/>
          <polygon class="cls-87" points="484.2 141.11 484.2 141.11 401.97 141.11 401.79 141.11 319.55 141.11 319.55 141.11 237.31 141.11 237.13 141.11 155.07 141.11 155.07 82.12 155.07 81.99 155.07 57.66 155.07 22.86 154.9 22.86 154.9 1.03 46.74 1.03 46.74 22.86 39.24 22.86 39.24 47.45 39.04 47.45 39.04 82.25 39.24 82.25 39.24 106.31 39.04 106.31 39.04 141.11 39.24 141.11 39.24 141.24 39.24 224.27 39.24 224.27 155.07 224.27 155.07 224.27 237.13 224.27 237.31 224.27 319.55 224.27 319.55 224.27 401.79 224.27 401.97 224.27 484.2 224.27 484.2 224.27 566.62 224.27 566.62 218.88 596.99 218.88 596.99 141.11 566.62 141.11 484.2 141.11"/>
        </g>
        <g>
          <rect class="cls-11" x="154.8" y="141.11" width="82.42" height="59.26"/>
          <rect class="cls-7" x="566.52" y="141.11" width="30.37" height="77.77"/>
          <rect class="cls-17" x="154.8" y="200.37" width="82.42" height="13.12"/>
          <rect class="cls-27" x="154.8" y="213.49" width="82.42" height="10.78"/>
          <rect class="cls-12" x="237.04" y="141.11" width="82.42" height="59.26"/>
          <rect class="cls-16" x="237.04" y="200.37" width="82.42" height="13.12"/>
          <rect class="cls-3" x="237.04" y="213.49" width="82.42" height="10.78"/>
          <rect class="cls-6" x="319.45" y="141.11" width="82.42" height="59.26"/>
          <rect class="cls-8" x="319.45" y="200.37" width="82.42" height="13.12"/>
          <rect class="cls-20" x="319.45" y="213.49" width="82.42" height="10.78"/>
          <rect class="cls-28" x="401.69" y="141.11" width="82.42" height="59.26"/>
          <rect class="cls-24" x="401.69" y="200.37" width="82.42" height="13.12"/>
          <rect class="cls-13" x="401.69" y="213.49" width="82.42" height="10.78"/>
          <rect class="cls-23" x="484.11" y="141.11" width="82.42" height="59.26"/>
          <rect class="cls-15" x="484.11" y="200.37" width="82.42" height="13.12"/>
          <rect class="cls-21" x="484.11" y="213.49" width="82.42" height="10.78"/>
          <rect class="cls-4" x="72.56" y="141.11" width="82.42" height="59.26"/>
          <rect class="cls-25" x="72.56" y="81.99" width="82.42" height="59.26"/>
          <rect class="cls-26" x="72.56" y="22.86" width="82.42" height="59.26"/>
          <polygon class="cls-1" points="154.98 213.49 54.13 213.49 72.56 200.37 154.98 200.37 154.98 213.49"/>
          <polygon class="cls-9" points="154.98 224.27 39.14 224.27 54.13 213.49 154.98 213.49 154.98 224.27"/>
          <rect class="cls-2" x="54.13" y="22.86" width="18.26" height="59.26"/>
          <polygon class="cls-30" points="39.14 224.27 39.14 141.11 54.13 141.11 54.13 213.49 39.14 224.27"/>
          <rect class="cls-5" x="54.13" y="81.99" width="18.26" height="59.26"/>
          <rect class="cls-22" x="39.14" y="81.99" width="14.98" height="59.26"/>
          <polygon class="cls-10" points="72.38 141.11 72.38 200.37 54.13 213.49 54.13 141.11 72.38 141.11"/>
          <rect class="cls-14" x="39.14" y="22.86" width="14.98" height="59.26"/>
          <rect class="cls-29" x="46.64" y="1.03" width="108.16" height="21.83"/>
          <rect class="cls-18" x="72.56" y="22.86" width="82.42" height="59.26"/>
          <rect class="cls-32" x="38.95" y="47.45" width="115.85" height="34.8"/>
          <rect class="cls-34" x="72.56" y="22.86" width="82.42" height="34.8"/>
          <rect class="cls-33" x="38.95" y="106.31" width="115.85" height="34.8"/>
          <rect class="cls-35" x="72.56" y="165.29" width="493.96" height="34.8"/>
          <rect class="cls-18" x="154.8" y="141.11" width="82.42" height="59.26"/>
          <rect class="cls-18" x="154.8" y="200.37" width="82.42" height="13.12"/>
          <rect class="cls-18" x="154.8" y="213.49" width="82.42" height="10.78"/>
          <rect class="cls-18" x="237.04" y="141.11" width="82.42" height="59.26"/>
          <rect class="cls-18" x="237.04" y="200.37" width="82.42" height="13.12"/>
          <rect class="cls-18" x="237.04" y="213.49" width="82.42" height="10.78"/>
          <rect class="cls-18" x="319.45" y="141.11" width="82.42" height="59.26"/>
          <rect class="cls-18" x="319.45" y="200.37" width="82.42" height="13.12"/>
          <rect class="cls-18" x="319.45" y="213.49" width="82.42" height="10.78"/>
          <rect class="cls-18" x="401.69" y="141.11" width="82.42" height="59.26"/>
          <rect class="cls-18" x="401.69" y="200.37" width="82.42" height="13.12"/>
          <rect class="cls-18" x="401.69" y="213.49" width="82.42" height="10.78"/>
          <rect class="cls-18" x="484.11" y="141.11" width="82.42" height="59.26"/>
          <rect class="cls-18" x="484.11" y="200.37" width="82.42" height="13.12"/>
          <rect class="cls-18" x="484.11" y="213.49" width="82.42" height="10.78"/>
          <rect class="cls-18" x="72.56" y="141.11" width="82.42" height="59.26"/>
          <rect class="cls-18" x="72.56" y="81.99" width="82.42" height="59.26"/>
          <rect class="cls-18" x="72.56" y="22.86" width="82.42" height="59.26"/>
          <polygon class="cls-18" points="154.98 213.49 54.13 213.49 72.56 200.37 154.98 200.37 154.98 213.49"/>
          <polygon class="cls-18" points="154.98 224.27 39.14 224.27 54.13 213.49 154.98 213.49 154.98 224.27"/>
          <rect class="cls-18" x="54.13" y="22.86" width="18.26" height="59.26"/>
          <rect class="cls-18" x="54.13" y="81.99" width="18.26" height="59.26"/>
          <polygon class="cls-18" points="72.38 141.11 72.38 200.37 54.13 213.49 54.13 141.11 72.38 141.11"/>
          <rect class="cls-18" x="72.56" y="22.86" width="82.42" height="59.26"/>
        </g>
        <path class="cls-37" d="m596.89,140.78h-30.37s-.08.03-.12.04H155.39V22.86c0-.09-.05-.16-.13-.21V1.03c0-.18-.2-.33-.46-.33H46.64c-.25,0-.46.15-.46.33v21.5h-7.04c-.25,0-.46.15-.46.33v118.17s-.05.05-.05.08v83.15c0,.15.12.28.31.33.06.02.13.03.19.03.09,0,.16-.04.24-.07h527.14c.23,0,.41-.13.41-.29v-5.06h29.96c.26,0,.46-.15.46-.33v-77.77c0-.18-.2-.33-.46-.33Z"/>
      </g>
    </g>
  </g>
</svg>