<?xml version="1.0" encoding="UTF-8"?>
<svg xmlns="http://www.w3.org/2000/svg" xmlns:xlink="http://www.w3.org/1999/xlink" viewBox="0 0 434.48 500.74">
  <defs>
    <style>
      .cls-1 {
        fill: #ddd;
      }

      .cls-2 {
        fill: #e9e9e9;
      }

      .cls-3 {
        fill: #f0f0f0;
      }

      .cls-4 {
        fill: url(#linear-gradient-19);
      }

      .cls-4, .cls-5, .cls-6, .cls-7, .cls-8, .cls-9, .cls-10, .cls-11, .cls-12, .cls-13, .cls-14, .cls-15, .cls-16, .cls-17, .cls-18, .cls-19, .cls-20, .cls-21, .cls-22, .cls-23, .cls-24, .cls-25, .cls-26, .cls-27, .cls-28, .cls-29, .cls-30, .cls-31, .cls-32, .cls-33 {
        stroke-linecap: round;
        stroke-linejoin: round;
      }

      .cls-4, .cls-5, .cls-8, .cls-9, .cls-10, .cls-11, .cls-12, .cls-16, .cls-18, .cls-19, .cls-20, .cls-21, .cls-22, .cls-23, .cls-24, .cls-26, .cls-27, .cls-28, .cls-29, .cls-30, .cls-31, .cls-32 {
        stroke: #949494;
      }

      .cls-4, .cls-5, .cls-8, .cls-9, .cls-10, .cls-11, .cls-12, .cls-16, .cls-18, .cls-19, .cls-21, .cls-22, .cls-23, .cls-24, .cls-26, .cls-27, .cls-28, .cls-29, .cls-30, .cls-31, .cls-32 {
        stroke-width: .03px;
      }

      .cls-34 {
        fill: url(#linear-gradient-22);
      }

      .cls-34, .cls-35, .cls-36, .cls-37, .cls-38, .cls-39 {
        mix-blend-mode: multiply;
      }

      .cls-40 {
        fill: #f4f4f4;
      }

      .cls-41 {
        fill: #fff;
      }

      .cls-5 {
        fill: url(#linear-gradient-10);
      }

      .cls-42 {
        fill: #cbcbcb;
      }

      .cls-6 {
        fill: url(#linear-gradient-24);
        stroke-width: .03px;
      }

      .cls-6, .cls-7, .cls-13, .cls-14, .cls-15, .cls-17, .cls-25, .cls-33 {
        stroke: #8f8f8f;
      }

      .cls-43 {
        fill: #d1d1d1;
      }

      .cls-44 {
        fill: #fafafa;
      }

      .cls-45 {
        fill: #dbdbdb;
      }

      .cls-46 {
        fill: #cacaca;
      }

      .cls-47 {
        fill: #d8d8d8;
      }

      .cls-48 {
        fill: #f6f6f6;
      }

      .cls-49 {
        fill: #e2e2e2;
      }

      .cls-50 {
        fill: #f5f5f5;
      }

      .cls-7 {
        fill: url(#linear-gradient-26);
      }

      .cls-7, .cls-13, .cls-14, .cls-15, .cls-17, .cls-25, .cls-33 {
        stroke-width: .03px;
      }

      .cls-8 {
        fill: url(#linear-gradient-23);
      }

      .cls-51 {
        isolation: isolate;
      }

      .cls-9 {
        fill: url(#linear-gradient-25);
      }

      .cls-52 {
        fill: #d6d6d6;
      }

      .cls-10 {
        fill: url(#linear-gradient-3);
      }

      .cls-11 {
        fill: url(#linear-gradient-7);
      }

      .cls-12 {
        fill: url(#linear-gradient-15);
      }

      .cls-53 {
        fill: #c9c9c9;
      }

      .cls-54 {
        fill: #e0e0e0;
      }

      .cls-55 {
        fill: #c7c7c7;
      }

      .cls-56 {
        fill: #dedede;
      }

      .cls-13 {
        fill: url(#linear-gradient-28);
      }

      .cls-57 {
        fill: #cfcfcf;
      }

      .cls-58 {
        fill: #d7d7d7;
      }

      .cls-14 {
        fill: url(#linear-gradient-29);
      }

      .cls-59 {
        fill: #e1e1e1;
      }

      .cls-15 {
        fill: url(#linear-gradient-11);
      }

      .cls-60 {
        fill: #e6e6e6;
      }

      .cls-16 {
        fill: url(#linear-gradient-17);
      }

      .cls-61 {
        fill: #e7e7e7;
      }

      .cls-17 {
        fill: url(#linear-gradient);
      }

      .cls-35 {
        fill: url(#linear-gradient-32);
      }

      .cls-62 {
        fill: #d4d4d4;
      }

      .cls-63 {
        fill: #dadada;
      }

      .cls-64 {
        fill: #eaeaea;
      }

      .cls-36 {
        fill: url(#linear-gradient-30);
      }

      .cls-18 {
        fill: url(#linear-gradient-5);
      }

      .cls-37 {
        fill: url(#linear-gradient-8);
      }

      .cls-65 {
        fill: #c8c8c8;
      }

      .cls-66 {
        fill: #fdfdfd;
      }

      .cls-67 {
        fill: #e4e4e4;
      }

      .cls-19, .cls-25 {
        fill: none;
      }

      .cls-20 {
        fill: url(#linear-gradient-21);
        stroke-width: .03px;
      }

      .cls-68 {
        fill: #fbfbfb;
      }

      .cls-21 {
        fill: url(#linear-gradient-2);
      }

      .cls-69 {
        fill: #f9f9f9;
      }

      .cls-70 {
        fill: #e5e5e5;
      }

      .cls-22 {
        fill: url(#linear-gradient-12);
      }

      .cls-23 {
        fill: url(#linear-gradient-18);
      }

      .cls-24 {
        fill: url(#linear-gradient-27);
      }

      .cls-71 {
        fill: #d3d3d3;
      }

      .cls-72 {
        fill: #ebebeb;
      }

      .cls-73 {
        fill: #d5d5d5;
      }

      .cls-74 {
        fill: #dcdcdc;
      }

      .cls-26 {
        fill: url(#linear-gradient-16);
      }

      .cls-27 {
        fill: url(#linear-gradient-14);
      }

      .cls-28 {
        fill: url(#linear-gradient-4);
      }

      .cls-38 {
        fill: #706f6f;
      }

      .cls-75 {
        fill: #e8e8e8;
      }

      .cls-29 {
        fill: url(#linear-gradient-20);
      }

      .cls-76 {
        fill: #ccc;
      }

      .cls-30 {
        fill: url(#linear-gradient-31);
      }

      .cls-77 {
        fill: #f7f7f7;
      }

      .cls-78 {
        fill: #efefef;
      }

      .cls-31 {
        fill: url(#linear-gradient-6);
      }

      .cls-32 {
        fill: url(#linear-gradient-13);
      }

      .cls-79 {
        fill: #f1f1f1;
      }

      .cls-80 {
        fill: #cecece;
      }

      .cls-81 {
        fill: #f3f3f3;
      }

      .cls-82 {
        fill: #d9d9d9;
      }

      .cls-83 {
        fill: #cdcdcd;
      }

      .cls-84 {
        fill: #f8f8f8;
      }

      .cls-85 {
        fill: #d2d2d2;
      }

      .cls-86 {
        fill: #c6c6c6;
      }

      .cls-87 {
        fill: #eee;
      }

      .cls-88 {
        fill: #d0d0d0;
      }

      .cls-89 {
        fill: #ececec;
      }

      .cls-33 {
        fill: url(#linear-gradient-9);
      }

      .cls-90 {
        fill: #f2f2f2;
      }

      .cls-91 {
        fill: #fefefe;
      }

      .cls-92 {
        fill: #e3e3e3;
      }

      .cls-93 {
        fill: #fcfcfc;
      }

      .cls-94 {
        fill: #ededed;
      }

      .cls-95 {
        fill: #dfdfdf;
      }
    </style>
    <linearGradient id="linear-gradient" x1="1276.69" y1="874.08" x2="1310.01" y2="874.08" gradientTransform="translate(1352.74 938.2) rotate(-180)" gradientUnits="userSpaceOnUse">
      <stop offset="0" stop-color="#fff"/>
      <stop offset=".25" stop-color="#e3e3e2"/>
      <stop offset=".79" stop-color="#d2d2d1"/>
      <stop offset="1" stop-color="#828282"/>
    </linearGradient>
    <linearGradient id="linear-gradient-2" x1="1186.26" y1="860.77" x2="1276.69" y2="860.77" gradientTransform="translate(1352.74 938.2) rotate(-180)" gradientUnits="userSpaceOnUse">
      <stop offset="0" stop-color="#fff"/>
      <stop offset=".13" stop-color="#e3e3e2"/>
      <stop offset=".89" stop-color="#d1d1d0"/>
      <stop offset="1" stop-color="#878787"/>
    </linearGradient>
    <linearGradient id="linear-gradient-3" x1="1186.26" y1="912.83" x2="1276.69" y2="912.83" gradientTransform="translate(1352.74 938.2) rotate(-180)" gradientUnits="userSpaceOnUse">
      <stop offset="0" stop-color="#858585"/>
      <stop offset=".11" stop-color="#d1d1d0"/>
      <stop offset=".91" stop-color="#b0b0ae"/>
      <stop offset="1" stop-color="#7a7a7a"/>
    </linearGradient>
    <linearGradient id="linear-gradient-4" y1="930.02" y2="930.02" xlink:href="#linear-gradient-2"/>
    <linearGradient id="linear-gradient-5" x1="1096.03" y1="860.77" x2="1186.45" y2="860.77" gradientTransform="translate(1352.74 938.2) rotate(-180)" gradientUnits="userSpaceOnUse">
      <stop offset="0" stop-color="#9e9e9e"/>
      <stop offset=".13" stop-color="#c2c2c1"/>
      <stop offset=".22" stop-color="#cccccb"/>
      <stop offset=".89" stop-color="#e6e6e2"/>
      <stop offset="1" stop-color="#878787"/>
    </linearGradient>
    <linearGradient id="linear-gradient-6" x1="1096.03" y1="912.83" x2="1186.45" y2="912.83" gradientTransform="translate(1352.74 938.2) rotate(-180)" gradientUnits="userSpaceOnUse">
      <stop offset="0" stop-color="#858585"/>
      <stop offset=".11" stop-color="#b3b3b2"/>
      <stop offset=".91" stop-color="#babab9"/>
      <stop offset="1" stop-color="#7a7a7a"/>
    </linearGradient>
    <linearGradient id="linear-gradient-7" x1="1096.03" y1="930.02" x2="1186.45" y2="930.02" xlink:href="#linear-gradient-2"/>
    <linearGradient id="linear-gradient-8" x1="1293.35" y1="818.14" x2="1293.35" y2="930.02" gradientTransform="translate(1352.74 938.2) rotate(-180)" gradientUnits="userSpaceOnUse">
      <stop offset="0" stop-color="#fff"/>
      <stop offset=".69" stop-color="#fffffe"/>
      <stop offset=".8" stop-color="#f6f6f5"/>
      <stop offset=".97" stop-color="#dddddc"/>
      <stop offset="1" stop-color="#d9d9d8"/>
    </linearGradient>
    <linearGradient id="linear-gradient-9" x1="1062.71" x2="1096.03" xlink:href="#linear-gradient"/>
    <linearGradient id="linear-gradient-10" x1="1136.41" y1="245.16" x2="1226.85" y2="245.16" gradientTransform="translate(1352.74 168.97) rotate(-180) scale(1 -1)" xlink:href="#linear-gradient-2"/>
    <linearGradient id="linear-gradient-11" x1="1227.2" y1="258.48" x2="1260.52" y2="258.48" gradientTransform="translate(1352.74 168.97) rotate(-180) scale(1 -1)" xlink:href="#linear-gradient"/>
    <linearGradient id="linear-gradient-12" x1="1136.41" y1="297.23" x2="1226.84" y2="297.23" gradientTransform="translate(1352.74 168.97) rotate(-180) scale(1 -1)" xlink:href="#linear-gradient-3"/>
    <linearGradient id="linear-gradient-13" x1="1136.41" y1="314.42" x2="1226.84" y2="314.42" gradientTransform="translate(1352.74 168.97) rotate(-180) scale(1 -1)" xlink:href="#linear-gradient-2"/>
    <linearGradient id="linear-gradient-14" x1="1046.19" y1="245.16" x2="1136.61" y2="245.16" gradientTransform="translate(1352.74 168.97) rotate(-180) scale(1 -1)" xlink:href="#linear-gradient-2"/>
    <linearGradient id="linear-gradient-15" x1="1046.19" y1="297.23" x2="1136.61" y2="297.23" gradientTransform="translate(1352.74 168.97) rotate(-180) scale(1 -1)" xlink:href="#linear-gradient-3"/>
    <linearGradient id="linear-gradient-16" x1="1046.19" y1="314.42" x2="1136.61" y2="314.42" gradientTransform="translate(1352.74 168.97) rotate(-180) scale(1 -1)" xlink:href="#linear-gradient-2"/>
    <linearGradient id="linear-gradient-17" x1="955.95" y1="245.16" x2="1046.38" y2="245.16" gradientTransform="translate(1352.74 168.97) rotate(-180) scale(1 -1)" xlink:href="#linear-gradient-5"/>
    <linearGradient id="linear-gradient-18" x1="955.95" y1="160.1" x2="1046.38" y2="160.1" gradientTransform="translate(1352.74 168.97) rotate(-180) scale(1 -1)" xlink:href="#linear-gradient-5"/>
    <linearGradient id="linear-gradient-19" x1="955.95" y1="75.03" x2="1046.38" y2="75.03" gradientTransform="translate(1352.74 168.97) rotate(-180) scale(1 -1)" xlink:href="#linear-gradient-5"/>
    <linearGradient id="linear-gradient-20" x1="935.73" y1="297.23" x2="1046.38" y2="297.23" gradientTransform="translate(1352.74 168.97) rotate(-180) scale(1 -1)" xlink:href="#linear-gradient-6"/>
    <linearGradient id="linear-gradient-21" x1="919.29" y1="314.42" x2="1046.38" y2="314.42" gradientTransform="translate(1352.74 168.97) rotate(-180) scale(1 -1)" xlink:href="#linear-gradient-2"/>
    <linearGradient id="linear-gradient-22" x1="1243.86" y1="202.54" x2="1243.86" y2="314.42" gradientTransform="translate(1352.74 168.97) rotate(-180) scale(1 -1)" xlink:href="#linear-gradient-8"/>
    <linearGradient id="linear-gradient-23" x1="800.12" y1="763.98" x2="800.12" y2="743.96" gradientTransform="translate(1160.96 1044.12) rotate(-90) scale(1 -1)" gradientUnits="userSpaceOnUse">
      <stop offset="0" stop-color="#858585"/>
      <stop offset=".2" stop-color="#b5b5b4"/>
      <stop offset=".85" stop-color="#b0b0ae"/>
      <stop offset="1" stop-color="#7a7a7a"/>
    </linearGradient>
    <linearGradient id="linear-gradient-24" x1="451.21" y1="-70.02" x2="451.21" y2="-86.46" gradientTransform="translate(503.47 -19.88) rotate(90) scale(1 -1)" xlink:href="#linear-gradient"/>
    <linearGradient id="linear-gradient-25" x1="715.05" x2="715.05" xlink:href="#linear-gradient-23"/>
    <linearGradient id="linear-gradient-26" x1="348.95" y1="-70.02" x2="348.95" y2="-86.46" gradientTransform="translate(503.47 -19.88) rotate(90) scale(1 -1)" xlink:href="#linear-gradient"/>
    <linearGradient id="linear-gradient-27" x1="620.55" x2="620.55" xlink:href="#linear-gradient-23"/>
    <linearGradient id="linear-gradient-28" x1="263.89" y1="-70.02" x2="263.89" y2="-86.46" gradientTransform="translate(503.47 -19.88) rotate(90) scale(1 -1)" xlink:href="#linear-gradient"/>
    <linearGradient id="linear-gradient-29" x1="205.56" y1="-78.24" x2="205.56" y2="-196.92" gradientTransform="translate(503.47 -19.88) rotate(90) scale(1 -1)" gradientUnits="userSpaceOnUse">
      <stop offset="0" stop-color="#fff"/>
      <stop offset=".08" stop-color="#d4d4d3"/>
      <stop offset=".9" stop-color="#e3e3e2"/>
      <stop offset="1" stop-color="#828282"/>
    </linearGradient>
    <linearGradient id="linear-gradient-30" x1="101.71" y1="501.37" x2="101.71" y2="586.62" gradientTransform="translate(249.96 788) scale(1 -1)" xlink:href="#linear-gradient-8"/>
    <linearGradient id="linear-gradient-31" x1="918.71" y1="886.35" x2="1009.14" y2="886.35" xlink:href="#linear-gradient-2"/>
    <linearGradient id="linear-gradient-32" x1="185.02" y1="34.79" x2="185.02" y2="86.48" gradientTransform="translate(203.8 7.99)" xlink:href="#linear-gradient-8"/>
  </defs>
  <g class="cls-51">
    <g id="Layer_1" data-name="Layer 1">
      <g>
        <g class="cls-39">
          <polygon class="cls-41" points="247.3 129.66 247.3 17.78 213.98 17.78 213.98 10.03 123.75 10.03 123.55 10.03 33.32 10.03 33.32 17.78 0 17.78 0 129.66 33.32 129.66 33.32 129.66 123.55 129.66 123.75 129.66 213.98 129.66 213.98 129.66 247.3 129.66"/>
          <polygon class="cls-91" points="248.04 129.49 248.04 17.61 214.72 17.61 214.72 9.86 124.49 9.86 124.29 9.86 34.06 9.86 34.06 17.61 .74 17.61 .74 129.49 34.06 129.49 34.06 129.49 124.29 129.49 124.49 129.49 214.72 129.49 214.72 129.49 248.04 129.49"/>
          <polygon class="cls-66" points="248.78 129.33 248.78 17.45 215.46 17.45 215.46 9.7 125.23 9.7 125.03 9.7 34.8 9.7 34.8 17.45 1.48 17.45 1.48 129.33 34.8 129.33 34.8 129.33 125.03 129.33 125.23 129.33 215.46 129.33 215.46 129.33 248.78 129.33"/>
          <polygon class="cls-93" points="249.52 129.16 249.52 17.28 216.2 17.28 216.2 9.53 125.96 9.53 125.77 9.53 35.54 9.53 35.54 17.28 2.22 17.28 2.22 129.16 35.54 129.16 35.54 129.16 125.77 129.16 125.96 129.16 216.2 129.16 216.2 129.16 249.52 129.16"/>
          <polygon class="cls-68" points="250.26 129 250.26 17.12 216.93 17.12 216.93 9.36 126.7 9.36 126.51 9.36 36.28 9.36 36.28 17.12 2.95 17.12 2.95 129 36.28 129 36.28 129 126.51 129 126.7 129 216.93 129 216.93 129 250.26 129"/>
          <polygon class="cls-44" points="250.99 128.83 250.99 16.95 217.67 16.95 217.67 9.2 127.44 9.2 127.25 9.2 37.01 9.2 37.01 16.95 3.69 16.95 3.69 128.83 37.01 128.83 37.01 128.83 127.25 128.83 127.44 128.83 217.67 128.83 217.67 128.83 250.99 128.83"/>
          <polygon class="cls-69" points="251.73 128.66 251.73 16.78 218.41 16.78 218.41 9.03 128.18 9.03 127.98 9.03 37.75 9.03 37.75 16.78 4.43 16.78 4.43 128.66 37.75 128.66 37.75 128.66 127.98 128.66 128.18 128.66 218.41 128.66 218.41 128.66 251.73 128.66"/>
          <polygon class="cls-84" points="252.47 128.5 252.47 16.62 219.15 16.62 219.15 8.87 128.92 8.87 128.72 8.87 38.49 8.87 38.49 16.62 5.17 16.62 5.17 128.5 38.49 128.5 38.49 128.5 128.72 128.5 128.92 128.5 219.15 128.5 219.15 128.5 252.47 128.5"/>
          <polygon class="cls-77" points="253.21 128.33 253.21 16.45 219.89 16.45 219.89 8.7 129.66 8.7 129.46 8.7 39.23 8.7 39.23 16.45 5.91 16.45 5.91 128.33 39.23 128.33 39.23 128.33 129.46 128.33 129.66 128.33 219.89 128.33 219.89 128.33 253.21 128.33"/>
          <polygon class="cls-48" points="253.95 128.17 253.95 16.29 220.63 16.29 220.63 8.54 130.4 8.54 130.2 8.54 39.97 8.54 39.97 16.29 6.65 16.29 6.65 128.17 39.97 128.17 39.97 128.17 130.2 128.17 130.4 128.17 220.63 128.17 220.63 128.17 253.95 128.17"/>
          <polygon class="cls-50" points="254.69 128 254.69 16.12 221.37 16.12 221.37 8.37 131.13 8.37 130.94 8.37 40.71 8.37 40.71 16.12 7.39 16.12 7.39 128 40.71 128 40.71 128 130.94 128 131.13 128 221.37 128 221.37 128 254.69 128"/>
          <polygon class="cls-40" points="255.43 127.84 255.43 15.96 222.1 15.96 222.1 8.21 131.87 8.21 131.68 8.21 41.45 8.21 41.45 15.96 8.12 15.96 8.12 127.84 41.45 127.84 41.45 127.84 131.68 127.84 131.87 127.84 222.1 127.84 222.1 127.84 255.43 127.84"/>
          <polygon class="cls-81" points="256.16 127.67 256.16 15.79 222.84 15.79 222.84 8.04 132.61 8.04 132.42 8.04 42.18 8.04 42.18 15.79 8.86 15.79 8.86 127.67 42.18 127.67 42.18 127.67 132.42 127.67 132.61 127.67 222.84 127.67 222.84 127.67 256.16 127.67"/>
          <polygon class="cls-90" points="256.9 127.5 256.9 15.63 223.58 15.63 223.58 7.87 133.35 7.87 133.15 7.87 42.92 7.87 42.92 15.63 9.6 15.63 9.6 127.5 42.92 127.5 42.92 127.5 133.15 127.5 133.35 127.5 223.58 127.5 223.58 127.5 256.9 127.5"/>
          <polygon class="cls-79" points="257.64 127.34 257.64 15.46 224.32 15.46 224.32 7.71 134.09 7.71 133.89 7.71 43.66 7.71 43.66 15.46 10.34 15.46 10.34 127.34 43.66 127.34 43.66 127.34 133.89 127.34 134.09 127.34 224.32 127.34 224.32 127.34 257.64 127.34"/>
          <polygon class="cls-3" points="258.38 127.17 258.38 15.29 225.06 15.29 225.06 7.54 134.83 7.54 134.63 7.54 44.4 7.54 44.4 15.29 11.08 15.29 11.08 127.17 44.4 127.17 44.4 127.17 134.63 127.17 134.83 127.17 225.06 127.17 225.06 127.17 258.38 127.17"/>
          <polygon class="cls-78" points="259.12 127.01 259.12 15.13 225.8 15.13 225.8 7.38 135.57 7.38 135.37 7.38 45.14 7.38 45.14 15.13 11.82 15.13 11.82 127.01 45.14 127.01 45.14 127.01 135.37 127.01 135.57 127.01 225.8 127.01 225.8 127.01 259.12 127.01"/>
          <polygon class="cls-87" points="259.86 126.84 259.86 14.96 226.54 14.96 226.54 7.21 136.3 7.21 136.11 7.21 45.88 7.21 45.88 14.96 12.56 14.96 12.56 126.84 45.88 126.84 45.88 126.84 136.11 126.84 136.3 126.84 226.54 126.84 226.54 126.84 259.86 126.84"/>
          <polygon class="cls-94" points="260.6 126.68 260.6 14.8 227.27 14.8 227.27 7.05 137.04 7.05 136.85 7.05 46.62 7.05 46.62 14.8 13.29 14.8 13.29 126.68 46.62 126.68 46.62 126.68 136.85 126.68 137.04 126.68 227.27 126.68 227.27 126.68 260.6 126.68"/>
          <polygon class="cls-89" points="261.33 126.51 261.33 14.63 228.01 14.63 228.01 6.88 137.78 6.88 137.59 6.88 47.35 6.88 47.35 14.63 14.03 14.63 14.03 126.51 47.35 126.51 47.35 126.51 137.59 126.51 137.78 126.51 228.01 126.51 228.01 126.51 261.33 126.51"/>
          <polygon class="cls-72" points="262.07 126.35 262.07 14.47 228.75 14.47 228.75 6.72 138.52 6.72 138.32 6.72 48.09 6.72 48.09 14.47 14.77 14.47 14.77 126.35 48.09 126.35 48.09 126.35 138.32 126.35 138.52 126.35 228.75 126.35 228.75 126.35 262.07 126.35"/>
          <polygon class="cls-64" points="262.81 126.18 262.81 14.3 229.49 14.3 229.49 6.55 139.26 6.55 139.06 6.55 48.83 6.55 48.83 14.3 15.51 14.3 15.51 126.18 48.83 126.18 48.83 126.18 139.06 126.18 139.26 126.18 229.49 126.18 229.49 126.18 262.81 126.18"/>
          <polygon class="cls-2" points="263.55 126.01 263.55 14.14 230.23 14.14 230.23 6.38 140 6.38 139.8 6.38 49.57 6.38 49.57 14.14 16.25 14.14 16.25 126.01 49.57 126.01 49.57 126.01 139.8 126.01 140 126.01 230.23 126.01 230.23 126.01 263.55 126.01"/>
          <polygon class="cls-75" points="264.29 125.85 264.29 13.97 230.97 13.97 230.97 6.22 140.74 6.22 140.54 6.22 50.31 6.22 50.31 13.97 16.99 13.97 16.99 125.85 50.31 125.85 50.31 125.85 140.54 125.85 140.74 125.85 230.97 125.85 230.97 125.85 264.29 125.85"/>
          <polygon class="cls-61" points="265.03 125.68 265.03 13.8 231.71 13.8 231.71 6.05 141.47 6.05 141.28 6.05 51.05 6.05 51.05 13.8 17.73 13.8 17.73 125.68 51.05 125.68 51.05 125.68 141.28 125.68 141.47 125.68 231.71 125.68 231.71 125.68 265.03 125.68"/>
          <polygon class="cls-60" points="265.77 125.52 265.77 13.64 232.44 13.64 232.44 5.89 142.21 5.89 142.02 5.89 51.79 5.89 51.79 13.64 18.46 13.64 18.46 125.52 51.79 125.52 51.79 125.52 142.02 125.52 142.21 125.52 232.44 125.52 232.44 125.52 265.77 125.52"/>
          <polygon class="cls-70" points="266.5 125.35 266.5 13.47 233.18 13.47 233.18 5.72 142.95 5.72 142.76 5.72 52.52 5.72 52.52 13.47 19.2 13.47 19.2 125.35 52.52 125.35 52.52 125.35 142.76 125.35 142.95 125.35 233.18 125.35 233.18 125.35 266.5 125.35"/>
          <polygon class="cls-67" points="267.24 125.19 267.24 13.31 233.92 13.31 233.92 5.56 143.69 5.56 143.49 5.56 53.26 5.56 53.26 13.31 19.94 13.31 19.94 125.19 53.26 125.19 53.26 125.19 143.49 125.19 143.69 125.19 233.92 125.19 233.92 125.19 267.24 125.19"/>
          <polygon class="cls-92" points="267.98 125.02 267.98 13.14 234.66 13.14 234.66 5.39 144.43 5.39 144.23 5.39 54 5.39 54 13.14 20.68 13.14 20.68 125.02 54 125.02 54 125.02 144.23 125.02 144.43 125.02 234.66 125.02 234.66 125.02 267.98 125.02"/>
          <polygon class="cls-49" points="268.72 124.86 268.72 12.98 235.4 12.98 235.4 5.23 145.17 5.23 144.97 5.23 54.74 5.23 54.74 12.98 21.42 12.98 21.42 124.86 54.74 124.86 54.74 124.86 144.97 124.86 145.17 124.86 235.4 124.86 235.4 124.86 268.72 124.86"/>
          <polygon class="cls-49" points="269.46 124.69 269.46 12.81 236.14 12.81 236.14 5.06 145.91 5.06 145.71 5.06 55.48 5.06 55.48 12.81 22.16 12.81 22.16 124.69 55.48 124.69 55.48 124.69 145.71 124.69 145.91 124.69 236.14 124.69 236.14 124.69 269.46 124.69"/>
          <polygon class="cls-59" points="270.2 124.52 270.2 12.65 236.88 12.65 236.88 4.89 146.64 4.89 146.45 4.89 56.22 4.89 56.22 12.65 22.9 12.65 22.9 124.52 56.22 124.52 56.22 124.52 146.45 124.52 146.64 124.52 236.88 124.52 236.88 124.52 270.2 124.52"/>
          <polygon class="cls-54" points="270.94 124.36 270.94 12.48 237.61 12.48 237.61 4.73 147.38 4.73 147.19 4.73 56.96 4.73 56.96 12.48 23.63 12.48 23.63 124.36 56.96 124.36 56.96 124.36 147.19 124.36 147.38 124.36 237.61 124.36 237.61 124.36 270.94 124.36"/>
          <polygon class="cls-95" points="271.67 124.19 271.67 12.31 238.35 12.31 238.35 4.56 148.12 4.56 147.93 4.56 57.69 4.56 57.69 12.31 24.37 12.31 24.37 124.19 57.69 124.19 57.69 124.19 147.93 124.19 148.12 124.19 238.35 124.19 238.35 124.19 271.67 124.19"/>
          <polygon class="cls-56" points="272.41 124.03 272.41 12.15 239.09 12.15 239.09 4.4 148.86 4.4 148.66 4.4 58.43 4.4 58.43 12.15 25.11 12.15 25.11 124.03 58.43 124.03 58.43 124.03 148.66 124.03 148.86 124.03 239.09 124.03 239.09 124.03 272.41 124.03"/>
          <polygon class="cls-1" points="273.15 123.86 273.15 11.98 239.83 11.98 239.83 4.23 149.6 4.23 149.4 4.23 59.17 4.23 59.17 11.98 25.85 11.98 25.85 123.86 59.17 123.86 59.17 123.86 149.4 123.86 149.6 123.86 239.83 123.86 239.83 123.86 273.15 123.86"/>
          <polygon class="cls-74" points="273.89 123.7 273.89 11.82 240.57 11.82 240.57 4.07 150.34 4.07 150.14 4.07 59.91 4.07 59.91 11.82 26.59 11.82 26.59 123.7 59.91 123.7 59.91 123.7 150.14 123.7 150.34 123.7 240.57 123.7 240.57 123.7 273.89 123.7"/>
          <polygon class="cls-45" points="274.63 123.53 274.63 11.65 241.31 11.65 241.31 3.9 151.08 3.9 150.88 3.9 60.65 3.9 60.65 11.65 27.33 11.65 27.33 123.53 60.65 123.53 60.65 123.53 150.88 123.53 151.08 123.53 241.31 123.53 241.31 123.53 274.63 123.53"/>
          <polygon class="cls-63" points="275.37 123.37 275.37 11.49 242.05 11.49 242.05 3.73 151.81 3.73 151.62 3.73 61.39 3.73 61.39 11.49 28.07 11.49 28.07 123.37 61.39 123.37 61.39 123.37 151.62 123.37 151.81 123.37 242.05 123.37 242.05 123.37 275.37 123.37"/>
          <polygon class="cls-82" points="276.11 123.2 276.11 11.32 242.79 11.32 242.79 3.57 152.55 3.57 152.36 3.57 62.13 3.57 62.13 11.32 28.8 11.32 28.8 123.2 62.13 123.2 62.13 123.2 152.36 123.2 152.55 123.2 242.79 123.2 242.79 123.2 276.11 123.2"/>
          <polygon class="cls-47" points="276.84 123.03 276.84 11.16 243.52 11.16 243.52 3.4 153.29 3.4 153.1 3.4 62.86 3.4 62.86 11.16 29.54 11.16 29.54 123.03 62.86 123.03 62.86 123.03 153.1 123.03 153.29 123.03 243.52 123.03 243.52 123.03 276.84 123.03"/>
          <polygon class="cls-58" points="277.58 122.87 277.58 10.99 244.26 10.99 244.26 3.24 154.03 3.24 153.84 3.24 63.6 3.24 63.6 10.99 30.28 10.99 30.28 122.87 63.6 122.87 63.6 122.87 153.84 122.87 154.03 122.87 244.26 122.87 244.26 122.87 277.58 122.87"/>
          <polygon class="cls-52" points="278.32 122.7 278.32 10.82 245 10.82 245 3.07 154.77 3.07 154.57 3.07 64.34 3.07 64.34 10.82 31.02 10.82 31.02 122.7 64.34 122.7 64.34 122.7 154.57 122.7 154.77 122.7 245 122.7 245 122.7 278.32 122.7"/>
          <polygon class="cls-73" points="279.06 122.54 279.06 10.66 245.74 10.66 245.74 2.91 155.51 2.91 155.31 2.91 65.08 2.91 65.08 10.66 31.76 10.66 31.76 122.54 65.08 122.54 65.08 122.54 155.31 122.54 155.51 122.54 245.74 122.54 245.74 122.54 279.06 122.54"/>
          <polygon class="cls-62" points="279.8 122.37 279.8 10.49 246.48 10.49 246.48 2.74 156.25 2.74 156.05 2.74 65.82 2.74 65.82 10.49 32.5 10.49 32.5 122.37 65.82 122.37 65.82 122.37 156.05 122.37 156.25 122.37 246.48 122.37 246.48 122.37 279.8 122.37"/>
          <polygon class="cls-71" points="280.54 122.21 280.54 10.33 247.22 10.33 247.22 2.58 156.98 2.58 156.79 2.58 66.56 2.58 66.56 10.33 33.24 10.33 33.24 122.21 66.56 122.21 66.56 122.21 156.79 122.21 156.98 122.21 247.22 122.21 247.22 122.21 280.54 122.21"/>
          <polygon class="cls-85" points="281.28 122.04 281.28 10.16 247.96 10.16 247.96 2.41 157.72 2.41 157.53 2.41 67.3 2.41 67.3 10.16 33.97 10.16 33.97 122.04 67.3 122.04 67.3 122.04 157.53 122.04 157.72 122.04 247.96 122.04 247.96 122.04 281.28 122.04"/>
          <polygon class="cls-43" points="282.02 121.87 282.02 10 248.69 10 248.69 2.24 158.46 2.24 158.27 2.24 68.03 2.24 68.03 10 34.71 10 34.71 121.87 68.03 121.87 68.03 121.87 158.27 121.87 158.46 121.87 248.69 121.87 248.69 121.87 282.02 121.87"/>
          <polygon class="cls-88" points="282.75 121.71 282.75 9.83 249.43 9.83 249.43 2.08 159.2 2.08 159.01 2.08 68.77 2.08 68.77 9.83 35.45 9.83 35.45 121.71 68.77 121.71 68.77 121.71 159.01 121.71 159.2 121.71 249.43 121.71 249.43 121.71 282.75 121.71"/>
          <polygon class="cls-57" points="283.49 121.54 283.49 9.66 250.17 9.66 250.17 1.91 159.94 1.91 159.74 1.91 69.51 1.91 69.51 9.66 36.19 9.66 36.19 121.54 69.51 121.54 69.51 121.54 159.74 121.54 159.94 121.54 250.17 121.54 250.17 121.54 283.49 121.54"/>
          <polygon class="cls-80" points="284.23 121.38 284.23 9.5 250.91 9.5 250.91 1.75 160.68 1.75 160.48 1.75 70.25 1.75 70.25 9.5 36.93 9.5 36.93 121.38 70.25 121.38 70.25 121.38 160.48 121.38 160.68 121.38 250.91 121.38 250.91 121.38 284.23 121.38"/>
          <polygon class="cls-83" points="284.97 121.21 284.97 9.33 251.65 9.33 251.65 1.58 161.42 1.58 161.22 1.58 70.99 1.58 70.99 9.33 37.67 9.33 37.67 121.21 70.99 121.21 70.99 121.21 161.22 121.21 161.42 121.21 251.65 121.21 251.65 121.21 284.97 121.21"/>
          <polygon class="cls-76" points="285.71 121.05 285.71 9.17 252.39 9.17 252.39 1.42 162.15 1.42 161.96 1.42 71.73 1.42 71.73 9.17 38.41 9.17 38.41 121.05 71.73 121.05 71.73 121.05 161.96 121.05 162.15 121.05 252.39 121.05 252.39 121.05 285.71 121.05"/>
          <polygon class="cls-42" points="286.45 120.88 286.45 9 253.13 9 253.13 1.25 162.89 1.25 162.7 1.25 72.47 1.25 72.47 9 39.15 9 39.15 120.88 72.47 120.88 72.47 120.88 162.7 120.88 162.89 120.88 253.13 120.88 253.13 120.88 286.45 120.88"/>
          <polygon class="cls-46" points="287.19 120.72 287.19 8.84 253.86 8.84 253.86 1.09 163.63 1.09 163.44 1.09 73.2 1.09 73.2 8.84 39.88 8.84 39.88 120.72 73.2 120.72 73.2 120.72 163.44 120.72 163.63 120.72 253.86 120.72 253.86 120.72 287.19 120.72"/>
          <polygon class="cls-53" points="287.92 120.55 287.92 8.67 254.6 8.67 254.6 .92 164.37 .92 164.18 .92 73.94 .92 73.94 8.67 40.62 8.67 40.62 120.55 73.94 120.55 73.94 120.55 164.18 120.55 164.37 120.55 254.6 120.55 254.6 120.55 287.92 120.55"/>
          <polygon class="cls-65" points="288.66 120.38 288.66 8.51 255.34 8.51 255.34 .75 165.11 .75 164.91 .75 74.68 .75 74.68 8.51 41.36 8.51 41.36 120.38 74.68 120.38 74.68 120.38 164.91 120.38 165.11 120.38 255.34 120.38 255.34 120.38 288.66 120.38"/>
          <polygon class="cls-55" points="289.4 120.22 289.4 8.34 256.08 8.34 256.08 .59 165.85 .59 165.65 .59 75.42 .59 75.42 8.34 42.1 8.34 42.1 120.22 75.42 120.22 75.42 120.22 165.65 120.22 165.85 120.22 256.08 120.22 256.08 120.22 289.4 120.22"/>
          <polygon class="cls-86" points="290.14 120.05 290.14 8.17 256.82 8.17 256.82 .42 166.59 .42 166.39 .42 76.16 .42 76.16 8.17 42.84 8.17 42.84 120.05 76.16 120.05 76.16 120.05 166.39 120.05 166.59 120.05 256.82 120.05 256.82 120.05 290.14 120.05"/>
        </g>
        <g>
          <rect class="cls-17" x="42.73" y="8.17" width="33.32" height="111.88"/>
          <rect class="cls-21" x="76.05" y="34.81" width="90.43" height="85.25"/>
          <rect class="cls-10" x="76.05" y="15.93" width="90.43" height="18.88"/>
          <rect class="cls-28" x="76.05" y=".42" width="90.43" height="15.5"/>
          <rect class="cls-18" x="166.28" y="34.81" width="90.43" height="85.25"/>
          <rect class="cls-31" x="166.28" y="15.93" width="90.43" height="18.88"/>
          <rect class="cls-11" x="166.28" y=".42" width="90.43" height="15.5"/>
          <rect class="cls-37" x="42.73" y="8.17" width="33.32" height="111.88"/>
          <rect class="cls-33" x="256.71" y="8.17" width="33.32" height="111.88"/>
          <rect class="cls-25" x="42.73" y="8.17" width="33.32" height="111.88"/>
        </g>
        <path class="cls-38" d="m290.03,7.7h-32.87V.42c0-.23-.2-.42-.45-.42H76.05c-.25,0-.45.19-.45.42v7.28h-32.87c-.28,0-.5.21-.5.47v111.88c0,.26.22.47.5.47h33.32c.05,0,.08-.04.13-.05h180.4s.08.05.13.05h33.32c.28,0,.5-.21.5-.47V8.17c0-.26-.22-.47-.5-.47Z"/>
      </g>
      <g>
        <g class="cls-39">
          <polygon class="cls-41" points="390.72 381.11 390.72 296.23 390.72 296.05 390.72 210.99 382.5 210.99 382.5 179.57 263.82 179.57 263.82 210.99 263.63 210.99 263.63 296.05 263.63 296.23 263.63 381.11 173.59 381.11 173.39 381.11 83.16 381.11 82.81 381.11 49.49 381.11 49.49 492.99 82.81 492.99 83.16 500.74 173.39 500.74 173.59 500.74 263.63 500.74 263.63 500.74 390.72 500.74 390.72 500.74 390.72 381.3 390.72 381.11"/>
          <polygon class="cls-91" points="391.46 380.95 391.46 296.07 391.46 295.88 391.46 210.82 383.24 210.82 383.24 179.41 264.56 179.41 264.56 210.82 264.36 210.82 264.36 295.88 264.36 296.07 264.36 380.95 174.33 380.95 174.13 380.95 83.9 380.95 83.55 380.95 50.23 380.95 50.23 492.83 83.55 492.83 83.9 500.58 174.13 500.58 174.33 500.58 264.36 500.58 264.36 500.58 391.46 500.58 391.46 500.58 391.46 381.13 391.46 380.95"/>
          <polygon class="cls-66" points="392.2 380.78 392.2 295.9 392.2 295.72 392.2 210.66 383.97 210.66 383.97 179.24 265.3 179.24 265.3 210.66 265.1 210.66 265.1 295.72 265.1 295.9 265.1 380.78 175.07 380.78 174.87 380.78 84.64 380.78 84.29 380.78 50.97 380.78 50.97 492.66 84.29 492.66 84.64 500.41 174.87 500.41 175.07 500.41 265.1 500.41 265.1 500.41 392.2 500.41 392.2 500.41 392.2 380.97 392.2 380.78"/>
          <polygon class="cls-93" points="392.93 380.62 392.93 295.74 392.93 295.55 392.93 210.49 384.71 210.49 384.71 179.08 266.04 179.08 266.04 210.49 265.84 210.49 265.84 295.55 265.84 295.74 265.84 380.62 175.8 380.62 175.61 380.62 85.38 380.62 85.03 380.62 51.7 380.62 51.7 492.5 85.03 492.5 85.38 500.25 175.61 500.25 175.8 500.25 265.84 500.25 265.84 500.25 392.93 500.25 392.93 500.25 392.93 380.8 392.93 380.62"/>
          <polygon class="cls-68" points="393.67 380.45 393.67 295.57 393.67 295.39 393.67 210.32 385.45 210.32 385.45 178.91 266.77 178.91 266.77 210.32 266.58 210.32 266.58 295.39 266.58 295.57 266.58 380.45 176.54 380.45 176.35 380.45 86.12 380.45 85.76 380.45 52.44 380.45 52.44 492.33 85.76 492.33 86.12 500.08 176.35 500.08 176.54 500.08 266.58 500.08 266.58 500.08 393.67 500.08 393.67 500.08 393.67 380.64 393.67 380.45"/>
          <polygon class="cls-44" points="394.41 380.29 394.41 295.41 394.41 295.22 394.41 210.16 386.19 210.16 386.19 178.75 267.51 178.75 267.51 210.16 267.32 210.16 267.32 295.22 267.32 295.41 267.32 380.29 177.28 380.29 177.09 380.29 86.85 380.29 86.5 380.29 53.18 380.29 53.18 492.17 86.5 492.17 86.85 499.92 177.09 499.92 177.28 499.92 267.32 499.92 267.32 499.92 394.41 499.92 394.41 499.92 394.41 380.47 394.41 380.29"/>
          <polygon class="cls-69" points="395.15 380.12 395.15 295.24 395.15 295.06 395.15 209.99 386.93 209.99 386.93 178.58 268.25 178.58 268.25 209.99 268.06 209.99 268.06 295.06 268.06 295.24 268.06 380.12 178.02 380.12 177.82 380.12 87.59 380.12 87.24 380.12 53.92 380.12 53.92 492 87.24 492 87.59 499.75 177.82 499.75 178.02 499.75 268.06 499.75 268.06 499.75 395.15 499.75 395.15 499.75 395.15 380.31 395.15 380.12"/>
          <polygon class="cls-84" points="395.89 379.96 395.89 295.08 395.89 294.89 395.89 209.83 387.67 209.83 387.67 178.41 268.99 178.41 268.99 209.83 268.8 209.83 268.8 294.89 268.8 295.08 268.8 379.96 178.76 379.96 178.56 379.96 88.33 379.96 87.98 379.96 54.66 379.96 54.66 491.83 87.98 491.83 88.33 499.59 178.56 499.59 178.76 499.59 268.8 499.59 268.8 499.59 395.89 499.59 395.89 499.59 395.89 380.14 395.89 379.96"/>
          <polygon class="cls-77" points="396.63 379.79 396.63 294.91 396.63 294.73 396.63 209.66 388.41 209.66 388.41 178.25 269.73 178.25 269.73 209.66 269.53 209.66 269.53 294.73 269.53 294.91 269.53 379.79 179.5 379.79 179.3 379.79 89.07 379.79 88.72 379.79 55.4 379.79 55.4 491.67 88.72 491.67 89.07 499.42 179.3 499.42 179.5 499.42 269.53 499.42 269.53 499.42 396.63 499.42 396.63 499.42 396.63 379.97 396.63 379.79"/>
          <polygon class="cls-48" points="397.37 379.62 397.37 294.74 397.37 294.56 397.37 209.5 389.14 209.5 389.14 178.08 270.47 178.08 270.47 209.5 270.27 209.5 270.27 294.56 270.27 294.74 270.27 379.62 180.24 379.62 180.04 379.62 89.81 379.62 89.46 379.62 56.14 379.62 56.14 491.5 89.46 491.5 89.81 499.25 180.04 499.25 180.24 499.25 270.27 499.25 270.27 499.25 397.37 499.25 397.37 499.25 397.37 379.81 397.37 379.62"/>
          <polygon class="cls-50" points="398.1 379.46 398.1 294.58 398.1 294.39 398.1 209.33 389.88 209.33 389.88 177.92 271.21 177.92 271.21 209.33 271.01 209.33 271.01 294.39 271.01 294.58 271.01 379.46 180.97 379.46 180.78 379.46 90.55 379.46 90.2 379.46 56.87 379.46 56.87 491.34 90.2 491.34 90.55 499.09 180.78 499.09 180.97 499.09 271.01 499.09 271.01 499.09 398.1 499.09 398.1 499.09 398.1 379.64 398.1 379.46"/>
          <polygon class="cls-40" points="398.84 379.29 398.84 294.41 398.84 294.23 398.84 209.16 390.62 209.16 390.62 177.75 271.95 177.75 271.95 209.16 271.75 209.16 271.75 294.23 271.75 294.41 271.75 379.29 181.71 379.29 181.52 379.29 91.29 379.29 90.93 379.29 57.61 379.29 57.61 491.17 90.93 491.17 91.29 498.92 181.52 498.92 181.71 498.92 271.75 498.92 271.75 498.92 398.84 498.92 398.84 498.92 398.84 379.48 398.84 379.29"/>
          <polygon class="cls-81" points="399.58 379.13 399.58 294.25 399.58 294.06 399.58 209 391.36 209 391.36 177.59 272.68 177.59 272.68 209 272.49 209 272.49 294.06 272.49 294.25 272.49 379.13 182.45 379.13 182.26 379.13 92.02 379.13 91.67 379.13 58.35 379.13 58.35 491.01 91.67 491.01 92.02 498.76 182.26 498.76 182.45 498.76 272.49 498.76 272.49 498.76 399.58 498.76 399.58 498.76 399.58 379.31 399.58 379.13"/>
          <polygon class="cls-90" points="400.32 378.96 400.32 294.08 400.32 293.9 400.32 208.83 392.1 208.83 392.1 177.42 273.42 177.42 273.42 208.83 273.23 208.83 273.23 293.9 273.23 294.08 273.23 378.96 183.19 378.96 183 378.96 92.76 378.96 92.41 378.96 59.09 378.96 59.09 490.84 92.41 490.84 92.76 498.59 183 498.59 183.19 498.59 273.23 498.59 273.23 498.59 400.32 498.59 400.32 498.59 400.32 379.15 400.32 378.96"/>
          <polygon class="cls-79" points="401.06 378.8 401.06 293.92 401.06 293.73 401.06 208.67 392.84 208.67 392.84 177.26 274.16 177.26 274.16 208.67 273.97 208.67 273.97 293.73 273.97 293.92 273.97 378.8 183.93 378.8 183.73 378.8 93.5 378.8 93.15 378.8 59.83 378.8 59.83 490.68 93.15 490.68 93.5 498.43 183.73 498.43 183.93 498.43 273.97 498.43 273.97 498.43 401.06 498.43 401.06 498.43 401.06 378.98 401.06 378.8"/>
          <polygon class="cls-3" points="401.8 378.63 401.8 293.75 401.8 293.57 401.8 208.5 393.58 208.5 393.58 177.09 274.9 177.09 274.9 208.5 274.7 208.5 274.7 293.57 274.7 293.75 274.7 378.63 184.67 378.63 184.47 378.63 94.24 378.63 93.89 378.63 60.57 378.63 60.57 490.51 93.89 490.51 94.24 498.26 184.47 498.26 184.67 498.26 274.7 498.26 274.7 498.26 401.8 498.26 401.8 498.26 401.8 378.81 401.8 378.63"/>
          <polygon class="cls-78" points="402.54 378.47 402.54 293.59 402.54 293.4 402.54 208.34 394.31 208.34 394.31 176.92 275.64 176.92 275.64 208.34 275.44 208.34 275.44 293.4 275.44 293.59 275.44 378.47 185.41 378.47 185.21 378.47 94.98 378.47 94.63 378.47 61.31 378.47 61.31 490.34 94.63 490.34 94.98 498.1 185.21 498.1 185.41 498.1 275.44 498.1 275.44 498.1 402.54 498.1 402.54 498.1 402.54 378.65 402.54 378.47"/>
          <polygon class="cls-87" points="403.27 378.3 403.27 293.42 403.27 293.24 403.27 208.17 395.05 208.17 395.05 176.76 276.38 176.76 276.38 208.17 276.18 208.17 276.18 293.24 276.18 293.42 276.18 378.3 186.14 378.3 185.95 378.3 95.72 378.3 95.37 378.3 62.04 378.3 62.04 490.18 95.37 490.18 95.72 497.93 185.95 497.93 186.14 497.93 276.18 497.93 276.18 497.93 403.27 497.93 403.27 497.93 403.27 378.48 403.27 378.3"/>
          <polygon class="cls-94" points="404.01 378.13 404.01 293.25 404.01 293.07 404.01 208.01 395.79 208.01 395.79 176.59 277.12 176.59 277.12 208.01 276.92 208.01 276.92 293.07 276.92 293.25 276.92 378.13 186.88 378.13 186.69 378.13 96.46 378.13 96.1 378.13 62.78 378.13 62.78 490.01 96.1 490.01 96.46 497.76 186.69 497.76 186.88 497.76 276.92 497.76 276.92 497.76 404.01 497.76 404.01 497.76 404.01 378.32 404.01 378.13"/>
          <polygon class="cls-89" points="404.75 377.97 404.75 293.09 404.75 292.9 404.75 207.84 396.53 207.84 396.53 176.43 277.85 176.43 277.85 207.84 277.66 207.84 277.66 292.9 277.66 293.09 277.66 377.97 187.62 377.97 187.43 377.97 97.19 377.97 96.84 377.97 63.52 377.97 63.52 489.85 96.84 489.85 97.19 497.6 187.43 497.6 187.62 497.6 277.66 497.6 277.66 497.6 404.75 497.6 404.75 497.6 404.75 378.15 404.75 377.97"/>
          <polygon class="cls-72" points="405.49 377.8 405.49 292.92 405.49 292.74 405.49 207.67 397.27 207.67 397.27 176.26 278.59 176.26 278.59 207.67 278.4 207.67 278.4 292.74 278.4 292.92 278.4 377.8 188.36 377.8 188.17 377.8 97.93 377.8 97.58 377.8 64.26 377.8 64.26 489.68 97.58 489.68 97.93 497.43 188.17 497.43 188.36 497.43 278.4 497.43 278.4 497.43 405.49 497.43 405.49 497.43 405.49 377.99 405.49 377.8"/>
          <polygon class="cls-64" points="406.23 377.64 406.23 292.76 406.23 292.57 406.23 207.51 398.01 207.51 398.01 176.1 279.33 176.1 279.33 207.51 279.14 207.51 279.14 292.57 279.14 292.76 279.14 377.64 189.1 377.64 188.9 377.64 98.67 377.64 98.32 377.64 65 377.64 65 489.52 98.32 489.52 98.67 497.27 188.9 497.27 189.1 497.27 279.14 497.27 279.14 497.27 406.23 497.27 406.23 497.27 406.23 377.82 406.23 377.64"/>
          <polygon class="cls-2" points="406.97 377.47 406.97 292.59 406.97 292.41 406.97 207.34 398.75 207.34 398.75 175.93 280.07 175.93 280.07 207.34 279.87 207.34 279.87 292.41 279.87 292.59 279.87 377.47 189.84 377.47 189.64 377.47 99.41 377.47 99.06 377.47 65.74 377.47 65.74 489.35 99.06 489.35 99.41 497.1 189.64 497.1 189.84 497.1 279.87 497.1 279.87 497.1 406.97 497.1 406.97 497.1 406.97 377.66 406.97 377.47"/>
          <polygon class="cls-75" points="407.71 377.31 407.71 292.43 407.71 292.24 407.71 207.18 399.48 207.18 399.48 175.76 280.81 175.76 280.81 207.18 280.61 207.18 280.61 292.24 280.61 292.43 280.61 377.31 190.58 377.31 190.38 377.31 100.15 377.31 99.8 377.31 66.48 377.31 66.48 489.19 99.8 489.19 100.15 496.94 190.38 496.94 190.58 496.94 280.61 496.94 280.61 496.94 407.71 496.94 407.71 496.94 407.71 377.49 407.71 377.31"/>
          <polygon class="cls-61" points="408.44 377.14 408.44 292.26 408.44 292.08 408.44 207.01 400.22 207.01 400.22 175.6 281.55 175.6 281.55 207.01 281.35 207.01 281.35 292.08 281.35 292.26 281.35 377.14 191.31 377.14 191.12 377.14 100.89 377.14 100.54 377.14 67.22 377.14 67.22 489.02 100.54 489.02 100.89 496.77 191.12 496.77 191.31 496.77 281.35 496.77 281.35 496.77 408.44 496.77 408.44 496.77 408.44 377.32 408.44 377.14"/>
          <polygon class="cls-60" points="409.18 376.97 409.18 292.09 409.18 291.91 409.18 206.85 400.96 206.85 400.96 175.43 282.29 175.43 282.29 206.85 282.09 206.85 282.09 291.91 282.09 292.09 282.09 376.97 192.05 376.97 191.86 376.97 101.63 376.97 101.27 376.97 67.95 376.97 67.95 488.85 101.27 488.85 101.63 496.61 191.86 496.61 192.05 496.61 282.09 496.61 282.09 496.61 409.18 496.61 409.18 496.61 409.18 377.16 409.18 376.97"/>
          <polygon class="cls-70" points="409.92 376.81 409.92 291.93 409.92 291.75 409.92 206.68 401.7 206.68 401.7 175.27 283.02 175.27 283.02 206.68 282.83 206.68 282.83 291.75 282.83 291.93 282.83 376.81 192.79 376.81 192.6 376.81 102.37 376.81 102.01 376.81 68.69 376.81 68.69 488.69 102.01 488.69 102.37 496.44 192.6 496.44 192.79 496.44 282.83 496.44 282.83 496.44 409.92 496.44 409.92 496.44 409.92 376.99 409.92 376.81"/>
          <polygon class="cls-67" points="410.66 376.64 410.66 291.76 410.66 291.58 410.66 206.52 402.44 206.52 402.44 175.1 283.76 175.1 283.76 206.52 283.57 206.52 283.57 291.58 283.57 291.76 283.57 376.64 193.53 376.64 193.34 376.64 103.1 376.64 102.75 376.64 69.43 376.64 69.43 488.52 102.75 488.52 103.1 496.27 193.34 496.27 193.53 496.27 283.57 496.27 283.57 496.27 410.66 496.27 410.66 496.27 410.66 376.83 410.66 376.64"/>
          <polygon class="cls-92" points="411.4 376.48 411.4 291.6 411.4 291.41 411.4 206.35 403.18 206.35 403.18 174.94 284.5 174.94 284.5 206.35 284.31 206.35 284.31 291.41 284.31 291.6 284.31 376.48 194.27 376.48 194.07 376.48 103.84 376.48 103.49 376.48 70.17 376.48 70.17 488.36 103.49 488.36 103.84 496.11 194.07 496.11 194.27 496.11 284.31 496.11 284.31 496.11 411.4 496.11 411.4 496.11 411.4 376.66 411.4 376.48"/>
          <polygon class="cls-49" points="412.14 376.31 412.14 291.43 412.14 291.25 412.14 206.18 403.92 206.18 403.92 174.77 285.24 174.77 285.24 206.18 285.04 206.18 285.04 291.25 285.04 291.43 285.04 376.31 195.01 376.31 194.81 376.31 104.58 376.31 104.23 376.31 70.91 376.31 70.91 488.19 104.23 488.19 104.58 495.94 194.81 495.94 195.01 495.94 285.04 495.94 285.04 495.94 412.14 495.94 412.14 495.94 412.14 376.5 412.14 376.31"/>
          <polygon class="cls-49" points="412.88 376.15 412.88 291.27 412.88 291.08 412.88 206.02 404.65 206.02 404.65 174.61 285.98 174.61 285.98 206.02 285.78 206.02 285.78 291.08 285.78 291.27 285.78 376.15 195.75 376.15 195.55 376.15 105.32 376.15 104.97 376.15 71.65 376.15 71.65 488.03 104.97 488.03 105.32 495.78 195.55 495.78 195.75 495.78 285.78 495.78 285.78 495.78 412.88 495.78 412.88 495.78 412.88 376.33 412.88 376.15"/>
          <polygon class="cls-59" points="413.61 375.98 413.61 291.1 413.61 290.92 413.61 205.85 405.39 205.85 405.39 174.44 286.72 174.44 286.72 205.85 286.52 205.85 286.52 290.92 286.52 291.1 286.52 375.98 196.48 375.98 196.29 375.98 106.06 375.98 105.71 375.98 72.39 375.98 72.39 487.86 105.71 487.86 106.06 495.61 196.29 495.61 196.48 495.61 286.52 495.61 286.52 495.61 413.61 495.61 413.61 495.61 413.61 376.17 413.61 375.98"/>
          <polygon class="cls-54" points="414.35 375.82 414.35 290.94 414.35 290.75 414.35 205.69 406.13 205.69 406.13 174.27 287.46 174.27 287.46 205.69 287.26 205.69 287.26 290.75 287.26 290.94 287.26 375.82 197.22 375.82 197.03 375.82 106.8 375.82 106.45 375.82 73.12 375.82 73.12 487.69 106.45 487.69 106.8 495.45 197.03 495.45 197.22 495.45 287.26 495.45 287.26 495.45 414.35 495.45 414.35 495.45 414.35 376 414.35 375.82"/>
          <polygon class="cls-95" points="415.09 375.65 415.09 290.77 415.09 290.59 415.09 205.52 406.87 205.52 406.87 174.11 288.19 174.11 288.19 205.52 288 205.52 288 290.59 288 290.77 288 375.65 197.96 375.65 197.77 375.65 107.54 375.65 107.18 375.65 73.86 375.65 73.86 487.53 107.18 487.53 107.54 495.28 197.77 495.28 197.96 495.28 288 495.28 288 495.28 415.09 495.28 415.09 495.28 415.09 375.83 415.09 375.65"/>
          <polygon class="cls-56" points="415.83 375.48 415.83 290.6 415.83 290.42 415.83 205.36 407.61 205.36 407.61 173.94 288.93 173.94 288.93 205.36 288.74 205.36 288.74 290.42 288.74 290.6 288.74 375.48 198.7 375.48 198.51 375.48 108.27 375.48 107.92 375.48 74.6 375.48 74.6 487.36 107.92 487.36 108.27 495.11 198.51 495.11 198.7 495.11 288.74 495.11 288.74 495.11 415.83 495.11 415.83 495.11 415.83 375.67 415.83 375.48"/>
          <polygon class="cls-1" points="416.57 375.32 416.57 290.44 416.57 290.25 416.57 205.19 408.35 205.19 408.35 173.78 289.67 173.78 289.67 205.19 289.48 205.19 289.48 290.25 289.48 290.44 289.48 375.32 199.44 375.32 199.24 375.32 109.01 375.32 108.66 375.32 75.34 375.32 75.34 487.2 108.66 487.2 109.01 494.95 199.24 494.95 199.44 494.95 289.48 494.95 289.48 494.95 416.57 494.95 416.57 494.95 416.57 375.5 416.57 375.32"/>
          <polygon class="cls-74" points="417.31 375.15 417.31 290.27 417.31 290.09 417.31 205.03 409.09 205.03 409.09 173.61 290.41 173.61 290.41 205.03 290.21 205.03 290.21 290.09 290.21 290.27 290.21 375.15 200.18 375.15 199.98 375.15 109.75 375.15 109.4 375.15 76.08 375.15 76.08 487.03 109.4 487.03 109.75 494.78 199.98 494.78 200.18 494.78 290.21 494.78 290.21 494.78 417.31 494.78 417.31 494.78 417.31 375.34 417.31 375.15"/>
          <polygon class="cls-45" points="418.05 374.99 418.05 290.11 418.05 289.92 418.05 204.86 409.82 204.86 409.82 173.45 291.15 173.45 291.15 204.86 290.95 204.86 290.95 289.92 290.95 290.11 290.95 374.99 200.92 374.99 200.72 374.99 110.49 374.99 110.14 374.99 76.82 374.99 76.82 486.87 110.14 486.87 110.49 494.62 200.72 494.62 200.92 494.62 290.95 494.62 290.95 494.62 418.05 494.62 418.05 494.62 418.05 375.17 418.05 374.99"/>
          <polygon class="cls-63" points="418.79 374.82 418.79 289.94 418.79 289.76 418.79 204.69 410.56 204.69 410.56 173.28 291.89 173.28 291.89 204.69 291.69 204.69 291.69 289.76 291.69 289.94 291.69 374.82 201.66 374.82 201.46 374.82 111.23 374.82 110.88 374.82 77.56 374.82 77.56 486.7 110.88 486.7 111.23 494.45 201.46 494.45 201.66 494.45 291.69 494.45 291.69 494.45 418.79 494.45 418.79 494.45 418.79 375.01 418.79 374.82"/>
          <polygon class="cls-82" points="419.52 374.66 419.52 289.78 419.52 289.59 419.52 204.53 411.3 204.53 411.3 173.12 292.63 173.12 292.63 204.53 292.43 204.53 292.43 289.59 292.43 289.78 292.43 374.66 202.39 374.66 202.2 374.66 111.97 374.66 111.62 374.66 78.29 374.66 78.29 486.54 111.62 486.54 111.97 494.29 202.2 494.29 202.39 494.29 292.43 494.29 292.43 494.29 419.52 494.29 419.52 494.29 419.52 374.84 419.52 374.66"/>
          <polygon class="cls-47" points="420.26 374.49 420.26 289.61 420.26 289.43 420.26 204.36 412.04 204.36 412.04 172.95 293.36 172.95 293.36 204.36 293.17 204.36 293.17 289.43 293.17 289.61 293.17 374.49 203.13 374.49 202.94 374.49 112.71 374.49 112.35 374.49 79.03 374.49 79.03 486.37 112.35 486.37 112.71 494.12 202.94 494.12 203.13 494.12 293.17 494.12 293.17 494.12 420.26 494.12 420.26 494.12 420.26 374.68 420.26 374.49"/>
          <polygon class="cls-58" points="421 374.33 421 289.45 421 289.26 421 204.2 412.78 204.2 412.78 172.78 294.1 172.78 294.1 204.2 293.91 204.2 293.91 289.26 293.91 289.45 293.91 374.33 203.87 374.33 203.68 374.33 113.44 374.33 113.09 374.33 79.77 374.33 79.77 486.2 113.09 486.2 113.44 493.96 203.68 493.96 203.87 493.96 293.91 493.96 293.91 493.96 421 493.96 421 493.96 421 374.51 421 374.33"/>
          <polygon class="cls-52" points="421.74 374.16 421.74 289.28 421.74 289.1 421.74 204.03 413.52 204.03 413.52 172.62 294.84 172.62 294.84 204.03 294.65 204.03 294.65 289.1 294.65 289.28 294.65 374.16 204.61 374.16 204.41 374.16 114.18 374.16 113.83 374.16 80.51 374.16 80.51 486.04 113.83 486.04 114.18 493.79 204.41 493.79 204.61 493.79 294.65 493.79 294.65 493.79 421.74 493.79 421.74 493.79 421.74 374.34 421.74 374.16"/>
          <polygon class="cls-73" points="422.48 373.99 422.48 289.11 422.48 288.93 422.48 203.87 414.26 203.87 414.26 172.45 295.58 172.45 295.58 203.87 295.39 203.87 295.39 288.93 295.39 289.11 295.39 373.99 205.35 373.99 205.15 373.99 114.92 373.99 114.57 373.99 81.25 373.99 81.25 485.87 114.57 485.87 114.92 493.62 205.15 493.62 205.35 493.62 295.39 493.62 295.39 493.62 422.48 493.62 422.48 493.62 422.48 374.18 422.48 373.99"/>
          <polygon class="cls-62" points="423.22 373.83 423.22 288.95 423.22 288.76 423.22 203.7 414.99 203.7 414.99 172.29 296.32 172.29 296.32 203.7 296.12 203.7 296.12 288.76 296.12 288.95 296.12 373.83 206.09 373.83 205.89 373.83 115.66 373.83 115.31 373.83 81.99 373.83 81.99 485.71 115.31 485.71 115.66 493.46 205.89 493.46 206.09 493.46 296.12 493.46 296.12 493.46 423.22 493.46 423.22 493.46 423.22 374.01 423.22 373.83"/>
          <polygon class="cls-71" points="423.96 373.66 423.96 288.78 423.96 288.6 423.96 203.53 415.73 203.53 415.73 172.12 297.06 172.12 297.06 203.53 296.86 203.53 296.86 288.6 296.86 288.78 296.86 373.66 206.83 373.66 206.63 373.66 116.4 373.66 116.05 373.66 82.73 373.66 82.73 485.54 116.05 485.54 116.4 493.29 206.63 493.29 206.83 493.29 296.86 493.29 296.86 493.29 423.96 493.29 423.96 493.29 423.96 373.85 423.96 373.66"/>
          <polygon class="cls-85" points="424.69 373.5 424.69 288.62 424.69 288.43 424.69 203.37 416.47 203.37 416.47 171.96 297.8 171.96 297.8 203.37 297.6 203.37 297.6 288.43 297.6 288.62 297.6 373.5 207.56 373.5 207.37 373.5 117.14 373.5 116.79 373.5 83.46 373.5 83.46 485.38 116.79 485.38 117.14 493.13 207.37 493.13 207.56 493.13 297.6 493.13 297.6 493.13 424.69 493.13 424.69 493.13 424.69 373.68 424.69 373.5"/>
          <polygon class="cls-43" points="425.43 373.33 425.43 288.45 425.43 288.27 425.43 203.2 417.21 203.2 417.21 171.79 298.53 171.79 298.53 203.2 298.34 203.2 298.34 288.27 298.34 288.45 298.34 373.33 208.3 373.33 208.11 373.33 117.88 373.33 117.52 373.33 84.2 373.33 84.2 485.21 117.52 485.21 117.88 492.96 208.11 492.96 208.3 492.96 298.34 492.96 298.34 492.96 425.43 492.96 425.43 492.96 425.43 373.52 425.43 373.33"/>
          <polygon class="cls-88" points="426.17 373.17 426.17 288.29 426.17 288.1 426.17 203.04 417.95 203.04 417.95 171.63 299.27 171.63 299.27 203.04 299.08 203.04 299.08 288.1 299.08 288.29 299.08 373.17 209.04 373.17 208.85 373.17 118.61 373.17 118.26 373.17 84.94 373.17 84.94 485.05 118.26 485.05 118.61 492.8 208.85 492.8 209.04 492.8 299.08 492.8 299.08 492.8 426.17 492.8 426.17 492.8 426.17 373.35 426.17 373.17"/>
          <polygon class="cls-57" points="426.91 373 426.91 288.12 426.91 287.94 426.91 202.87 418.69 202.87 418.69 171.46 300.01 171.46 300.01 202.87 299.82 202.87 299.82 287.94 299.82 288.12 299.82 373 209.78 373 209.58 373 119.35 373 119 373 85.68 373 85.68 484.88 119 484.88 119.35 492.63 209.58 492.63 209.78 492.63 299.82 492.63 299.82 492.63 426.91 492.63 426.91 492.63 426.91 373.18 426.91 373"/>
          <polygon class="cls-80" points="427.65 372.84 427.65 287.96 427.65 287.77 427.65 202.71 419.43 202.71 419.43 171.29 300.75 171.29 300.75 202.71 300.56 202.71 300.56 287.77 300.56 287.96 300.56 372.84 210.52 372.84 210.32 372.84 120.09 372.84 119.74 372.84 86.42 372.84 86.42 484.71 119.74 484.71 120.09 492.47 210.32 492.47 210.52 492.47 300.56 492.47 300.56 492.47 427.65 492.47 427.65 492.47 427.65 373.02 427.65 372.84"/>
          <polygon class="cls-83" points="428.39 372.67 428.39 287.79 428.39 287.61 428.39 202.54 420.16 202.54 420.16 171.13 301.49 171.13 301.49 202.54 301.29 202.54 301.29 287.61 301.29 287.79 301.29 372.67 211.26 372.67 211.06 372.67 120.83 372.67 120.48 372.67 87.16 372.67 87.16 484.55 120.48 484.55 120.83 492.3 211.06 492.3 211.26 492.3 301.29 492.3 301.29 492.3 428.39 492.3 428.39 492.3 428.39 372.85 428.39 372.67"/>
          <polygon class="cls-76" points="429.13 372.5 429.13 287.62 429.13 287.44 429.13 202.38 420.9 202.38 420.9 170.96 302.23 170.96 302.23 202.38 302.03 202.38 302.03 287.44 302.03 287.62 302.03 372.5 212 372.5 211.8 372.5 121.57 372.5 121.22 372.5 87.9 372.5 87.9 484.38 121.22 484.38 121.57 492.13 211.8 492.13 212 492.13 302.03 492.13 302.03 492.13 429.13 492.13 429.13 492.13 429.13 372.69 429.13 372.5"/>
          <polygon class="cls-42" points="429.86 372.34 429.86 287.46 429.86 287.27 429.86 202.21 421.64 202.21 421.64 170.8 302.97 170.8 302.97 202.21 302.77 202.21 302.77 287.27 302.77 287.46 302.77 372.34 212.73 372.34 212.54 372.34 122.31 372.34 121.96 372.34 88.63 372.34 88.63 484.22 121.96 484.22 122.31 491.97 212.54 491.97 212.73 491.97 302.77 491.97 302.77 491.97 429.86 491.97 429.86 491.97 429.86 372.52 429.86 372.34"/>
          <polygon class="cls-46" points="430.6 372.17 430.6 287.29 430.6 287.11 430.6 202.04 422.38 202.04 422.38 170.63 303.7 170.63 303.7 202.04 303.51 202.04 303.51 287.11 303.51 287.29 303.51 372.17 213.47 372.17 213.28 372.17 123.05 372.17 122.69 372.17 89.37 372.17 89.37 484.05 122.69 484.05 123.05 491.8 213.28 491.8 213.47 491.8 303.51 491.8 303.51 491.8 430.6 491.8 430.6 491.8 430.6 372.36 430.6 372.17"/>
          <polygon class="cls-53" points="431.34 372.01 431.34 287.13 431.34 286.94 431.34 201.88 423.12 201.88 423.12 170.47 304.44 170.47 304.44 201.88 304.25 201.88 304.25 286.94 304.25 287.13 304.25 372.01 214.21 372.01 214.02 372.01 123.78 372.01 123.43 372.01 90.11 372.01 90.11 483.89 123.43 483.89 123.78 491.64 214.02 491.64 214.21 491.64 304.25 491.64 304.25 491.64 431.34 491.64 431.34 491.64 431.34 372.19 431.34 372.01"/>
          <polygon class="cls-65" points="432.08 371.84 432.08 286.96 432.08 286.78 432.08 201.71 423.86 201.71 423.86 170.3 305.18 170.3 305.18 201.71 304.99 201.71 304.99 286.78 304.99 286.96 304.99 371.84 214.95 371.84 214.75 371.84 124.52 371.84 124.17 371.84 90.85 371.84 90.85 483.72 124.17 483.72 124.52 491.47 214.75 491.47 214.95 491.47 304.99 491.47 304.99 491.47 432.08 491.47 432.08 491.47 432.08 372.03 432.08 371.84"/>
          <polygon class="cls-55" points="432.82 371.68 432.82 286.8 432.82 286.61 432.82 201.55 424.6 201.55 424.6 170.14 305.92 170.14 305.92 201.55 305.73 201.55 305.73 286.61 305.73 286.8 305.73 371.68 215.69 371.68 215.49 371.68 125.26 371.68 124.91 371.68 91.59 371.68 91.59 483.56 124.91 483.56 125.26 491.31 215.49 491.31 215.69 491.31 305.73 491.31 305.73 491.31 432.82 491.31 432.82 491.31 432.82 371.86 432.82 371.68"/>
          <polygon class="cls-86" points="433.56 371.51 433.56 286.63 433.56 286.45 433.56 201.38 425.33 201.38 425.33 169.97 306.66 169.97 306.66 201.38 306.46 201.38 306.46 286.45 306.46 286.63 306.46 371.51 216.43 371.51 216.23 371.51 126 371.51 125.65 371.51 92.33 371.51 92.33 483.39 125.65 483.39 126 491.14 216.23 491.14 216.43 491.14 306.46 491.14 306.46 491.14 433.56 491.14 433.56 491.14 433.56 371.69 433.56 371.51"/>
        </g>
        <g>
          <rect class="cls-5" x="125.89" y="371.51" width="90.43" height="85.25"/>
          <rect class="cls-15" x="92.22" y="371.51" width="33.32" height="111.88"/>
          <rect class="cls-22" x="125.9" y="456.76" width="90.43" height="18.88"/>
          <rect class="cls-32" x="125.9" y="475.64" width="90.43" height="15.5"/>
          <rect class="cls-27" x="216.12" y="371.51" width="90.43" height="85.25"/>
          <rect class="cls-12" x="216.12" y="456.76" width="90.43" height="18.88"/>
          <rect class="cls-26" x="216.12" y="475.64" width="90.43" height="15.5"/>
          <rect class="cls-16" x="306.36" y="371.51" width="90.43" height="85.25"/>
          <rect class="cls-23" x="306.36" y="286.45" width="90.43" height="85.25"/>
          <rect class="cls-4" x="306.36" y="201.38" width="90.43" height="85.25"/>
          <polygon class="cls-29" points="306.36 475.64 417.01 475.64 396.78 456.76 306.36 456.76 306.36 475.64"/>
          <polygon class="cls-20" points="306.36 491.14 433.45 491.14 417.01 475.64 306.36 475.64 306.36 491.14"/>
          <rect class="cls-34" x="92.22" y="371.51" width="33.32" height="111.88"/>
          <rect class="cls-25" x="92.22" y="371.51" width="33.32" height="111.88"/>
          <rect class="cls-8" x="396.98" y="201.38" width="20.03" height="85.25"/>
          <polygon class="cls-6" points="433.45 491.14 433.45 371.51 417.01 371.51 417.01 475.64 433.45 491.14"/>
          <rect class="cls-9" x="396.98" y="286.45" width="20.03" height="85.25"/>
          <rect class="cls-7" x="417.01" y="286.45" width="16.44" height="85.25"/>
          <polygon class="cls-24" points="396.98 371.51 396.98 456.76 417.01 475.64 417.01 371.51 396.98 371.51"/>
          <rect class="cls-13" x="417.01" y="201.38" width="16.44" height="85.25"/>
          <rect class="cls-14" x="306.55" y="169.97" width="118.68" height="31.41"/>
          <rect class="cls-36" x="306.55" y="201.38" width="90.23" height="85.25"/>
          <rect class="cls-19" x="306.36" y="201.38" width="90.43" height="85.25"/>
        </g>
        <path class="cls-38" d="m433.95,371.39v-170.01c0-.26-.22-.47-.5-.47h-7.72v-30.94c0-.26-.22-.47-.5-.47h-118.68c-.28,0-.5.21-.5.47v31.11c-.08.08-.14.18-.14.3v169.7H125.9s-.07.03-.11.04c-.07-.04-.15-.09-.24-.09h-33.32c-.28,0-.5.21-.5.47v111.88c0,.26.22.47.5.47h33.23v7.28c0,.23.2.42.45.42h180.26c.07.03.12.08.2.08h127.04s.04.02.06.02c.07,0,.14-.02.21-.04.2-.08.34-.27.34-.48v-119.63s-.04-.08-.05-.12Z"/>
      </g>
      <g>
        <g class="cls-39">
          <polygon class="cls-41" points="300.87 18.82 300.87 104.07 300.87 104.07 300.87 104.07 391.3 104.07 391.3 52.38 391.3 52.38 391.3 18.82 300.87 18.82"/>
          <polygon class="cls-91" points="301.61 18.66 301.61 103.91 301.61 103.91 301.61 103.91 392.04 103.91 392.04 52.22 392.04 52.22 392.04 18.66 301.61 18.66"/>
          <polygon class="cls-66" points="302.35 18.49 302.35 103.74 302.35 103.74 302.35 103.74 392.77 103.74 392.77 52.05 392.77 52.05 392.77 18.49 302.35 18.49"/>
          <polygon class="cls-93" points="303.09 18.33 303.09 103.58 303.09 103.58 303.09 103.58 393.51 103.58 393.51 51.88 393.51 51.88 393.51 18.33 303.09 18.33"/>
          <polygon class="cls-68" points="303.83 18.16 303.83 103.41 303.83 103.41 303.83 103.41 394.25 103.41 394.25 51.72 394.25 51.72 394.25 18.16 303.83 18.16"/>
          <polygon class="cls-44" points="304.56 18 304.56 103.24 304.56 103.24 304.56 103.24 394.99 103.24 394.99 51.55 394.99 51.55 394.99 18 304.56 18"/>
          <polygon class="cls-69" points="305.3 17.83 305.3 103.08 305.3 103.08 305.3 103.08 395.73 103.08 395.73 51.39 395.73 51.39 395.73 17.83 305.3 17.83"/>
          <polygon class="cls-84" points="306.04 17.67 306.04 102.91 306.04 102.91 306.04 102.91 396.47 102.91 396.47 51.22 396.47 51.22 396.47 17.67 306.04 17.67"/>
          <polygon class="cls-77" points="306.78 17.5 306.78 102.75 306.78 102.75 306.78 102.75 397.21 102.75 397.21 51.06 397.21 51.06 397.21 17.5 306.78 17.5"/>
          <polygon class="cls-48" points="307.52 17.33 307.52 102.58 307.52 102.58 307.52 102.58 397.94 102.58 397.94 50.89 397.94 50.89 397.94 17.33 307.52 17.33"/>
          <polygon class="cls-50" points="308.26 17.17 308.26 102.42 308.26 102.42 308.26 102.42 398.68 102.42 398.68 50.73 398.68 50.73 398.68 17.17 308.26 17.17"/>
          <polygon class="cls-40" points="309 17 309 102.25 309 102.25 309 102.25 399.42 102.25 399.42 50.56 399.42 50.56 399.42 17 309 17"/>
          <polygon class="cls-81" points="309.73 16.84 309.73 102.09 309.73 102.09 309.73 102.09 400.16 102.09 400.16 50.39 400.16 50.39 400.16 16.84 309.73 16.84"/>
          <polygon class="cls-90" points="310.47 16.67 310.47 101.92 310.47 101.92 310.47 101.92 400.9 101.92 400.9 50.23 400.9 50.23 400.9 16.67 310.47 16.67"/>
          <polygon class="cls-79" points="311.21 16.51 311.21 101.75 311.21 101.75 311.21 101.76 401.64 101.76 401.64 50.06 401.64 50.06 401.64 16.51 311.21 16.51"/>
          <polygon class="cls-3" points="311.95 16.34 311.95 101.59 311.95 101.59 311.95 101.59 402.38 101.59 402.38 49.9 402.38 49.9 402.38 16.34 311.95 16.34"/>
          <polygon class="cls-78" points="312.69 16.18 312.69 101.42 312.69 101.42 312.69 101.42 403.11 101.42 403.11 49.73 403.11 49.73 403.11 16.18 312.69 16.18"/>
          <polygon class="cls-87" points="313.43 16.01 313.43 101.26 313.43 101.26 313.43 101.26 403.85 101.26 403.85 49.57 403.85 49.57 403.85 16.01 313.43 16.01"/>
          <polygon class="cls-94" points="314.17 15.84 314.17 101.09 314.17 101.09 314.17 101.09 404.59 101.09 404.59 49.4 404.59 49.4 404.59 15.84 314.17 15.84"/>
          <polygon class="cls-89" points="314.9 15.68 314.9 100.93 314.9 100.93 314.9 100.93 405.33 100.93 405.33 49.24 405.33 49.24 405.33 15.68 314.9 15.68"/>
          <polygon class="cls-72" points="315.64 15.51 315.64 100.76 315.64 100.76 315.64 100.76 406.07 100.76 406.07 49.07 406.07 49.07 406.07 15.51 315.64 15.51"/>
          <polygon class="cls-64" points="316.38 15.35 316.38 100.6 316.38 100.6 316.38 100.6 406.81 100.6 406.81 48.9 406.81 48.9 406.81 15.35 316.38 15.35"/>
          <polygon class="cls-2" points="317.12 15.18 317.12 100.43 317.12 100.43 317.12 100.43 407.55 100.43 407.55 48.74 407.55 48.74 407.55 15.18 317.12 15.18"/>
          <polygon class="cls-75" points="317.86 15.02 317.86 100.26 317.86 100.26 317.86 100.27 408.29 100.27 408.29 48.57 408.29 48.57 408.29 15.02 317.86 15.02"/>
          <polygon class="cls-61" points="318.6 14.85 318.6 100.1 318.6 100.1 318.6 100.1 409.02 100.1 409.02 48.41 409.02 48.41 409.02 14.85 318.6 14.85"/>
          <polygon class="cls-60" points="319.34 14.68 319.34 99.93 319.34 99.93 319.34 99.93 409.76 99.93 409.76 48.24 409.76 48.24 409.76 14.68 319.34 14.68"/>
          <polygon class="cls-70" points="320.07 14.52 320.07 99.77 320.07 99.77 320.07 99.77 410.5 99.77 410.5 48.08 410.5 48.08 410.5 14.52 320.07 14.52"/>
          <polygon class="cls-67" points="320.81 14.35 320.81 99.6 320.81 99.6 320.81 99.6 411.24 99.6 411.24 47.91 411.24 47.91 411.24 14.35 320.81 14.35"/>
          <polygon class="cls-92" points="321.55 14.19 321.55 99.44 321.55 99.44 321.55 99.44 411.98 99.44 411.98 47.74 411.98 47.74 411.98 14.19 321.55 14.19"/>
          <polygon class="cls-49" points="322.29 14.02 322.29 99.27 322.29 99.27 322.29 99.27 412.72 99.27 412.72 47.58 412.72 47.58 412.72 14.02 322.29 14.02"/>
          <polygon class="cls-49" points="323.03 13.86 323.03 99.11 323.03 99.11 323.03 99.11 413.46 99.11 413.46 47.41 413.46 47.41 413.46 13.86 323.03 13.86"/>
          <polygon class="cls-59" points="323.77 13.69 323.77 98.94 323.77 98.94 323.77 98.94 414.19 98.94 414.19 47.25 414.19 47.25 414.19 13.69 323.77 13.69"/>
          <polygon class="cls-54" points="324.51 13.53 324.51 98.77 324.51 98.77 324.51 98.78 414.93 98.78 414.93 47.08 414.93 47.08 414.93 13.53 324.51 13.53"/>
          <polygon class="cls-95" points="325.24 13.36 325.24 98.61 325.24 98.61 325.24 98.61 415.67 98.61 415.67 46.92 415.67 46.92 415.67 13.36 325.24 13.36"/>
          <polygon class="cls-56" points="325.98 13.19 325.98 98.44 325.98 98.44 325.98 98.44 416.41 98.44 416.41 46.75 416.41 46.75 416.41 13.19 325.98 13.19"/>
          <polygon class="cls-1" points="326.72 13.03 326.72 98.28 326.72 98.28 326.72 98.28 417.15 98.28 417.15 46.59 417.15 46.59 417.15 13.03 326.72 13.03"/>
          <polygon class="cls-74" points="327.46 12.86 327.46 98.11 327.46 98.11 327.46 98.11 417.89 98.11 417.89 46.42 417.89 46.42 417.89 12.86 327.46 12.86"/>
          <polygon class="cls-45" points="328.2 12.7 328.2 97.95 328.2 97.95 328.2 97.95 418.63 97.95 418.63 46.25 418.63 46.25 418.63 12.7 328.2 12.7"/>
          <polygon class="cls-63" points="328.94 12.53 328.94 97.78 328.94 97.78 328.94 97.78 419.36 97.78 419.36 46.09 419.36 46.09 419.36 12.53 328.94 12.53"/>
          <polygon class="cls-82" points="329.68 12.37 329.68 97.61 329.68 97.61 329.68 97.62 420.1 97.62 420.1 45.92 420.1 45.92 420.1 12.37 329.68 12.37"/>
          <polygon class="cls-47" points="330.41 12.2 330.41 97.45 330.41 97.45 330.41 97.45 420.84 97.45 420.84 45.76 420.84 45.76 420.84 12.2 330.41 12.2"/>
          <polygon class="cls-58" points="331.15 12.04 331.15 97.28 331.15 97.28 331.15 97.29 421.58 97.29 421.58 45.59 421.58 45.59 421.58 12.04 331.15 12.04"/>
          <polygon class="cls-52" points="331.89 11.87 331.89 97.12 331.89 97.12 331.89 97.12 422.32 97.12 422.32 45.43 422.32 45.43 422.32 11.87 331.89 11.87"/>
          <polygon class="cls-73" points="332.63 11.7 332.63 96.95 332.63 96.95 332.63 96.95 423.06 96.95 423.06 45.26 423.06 45.26 423.06 11.7 332.63 11.7"/>
          <polygon class="cls-62" points="333.37 11.54 333.37 96.79 333.37 96.79 333.37 96.79 423.8 96.79 423.8 45.1 423.8 45.1 423.8 11.54 333.37 11.54"/>
          <polygon class="cls-71" points="334.11 11.37 334.11 96.62 334.11 96.62 334.11 96.62 424.53 96.62 424.53 44.93 424.53 44.93 424.53 11.37 334.11 11.37"/>
          <polygon class="cls-85" points="334.85 11.21 334.85 96.46 334.85 96.46 334.85 96.46 425.27 96.46 425.27 44.76 425.27 44.76 425.27 11.21 334.85 11.21"/>
          <polygon class="cls-43" points="335.58 11.04 335.58 96.29 335.58 96.29 335.58 96.29 426.01 96.29 426.01 44.6 426.01 44.6 426.01 11.04 335.58 11.04"/>
          <polygon class="cls-88" points="336.32 10.88 336.32 96.12 336.32 96.12 336.32 96.13 426.75 96.13 426.75 44.43 426.75 44.43 426.75 10.88 336.32 10.88"/>
          <polygon class="cls-57" points="337.06 10.71 337.06 95.96 337.06 95.96 337.06 95.96 427.49 95.96 427.49 44.27 427.49 44.27 427.49 10.71 337.06 10.71"/>
          <polygon class="cls-80" points="337.8 10.55 337.8 95.79 337.8 95.79 337.8 95.8 428.23 95.8 428.23 44.1 428.23 44.1 428.23 10.55 337.8 10.55"/>
          <polygon class="cls-83" points="338.54 10.38 338.54 95.63 338.54 95.63 338.54 95.63 428.97 95.63 428.97 43.94 428.97 43.94 428.97 10.38 338.54 10.38"/>
          <polygon class="cls-76" points="339.28 10.21 339.28 95.46 339.28 95.46 339.28 95.46 429.7 95.46 429.7 43.77 429.7 43.77 429.7 10.21 339.28 10.21"/>
          <polygon class="cls-42" points="340.02 10.05 340.02 95.3 340.02 95.3 340.02 95.3 430.44 95.3 430.44 43.61 430.44 43.61 430.44 10.05 340.02 10.05"/>
          <polygon class="cls-46" points="340.75 9.88 340.75 95.13 340.75 95.13 340.75 95.13 431.18 95.13 431.18 43.44 431.18 43.44 431.18 9.88 340.75 9.88"/>
          <polygon class="cls-53" points="341.49 9.72 341.49 94.97 341.49 94.97 341.49 94.97 431.92 94.97 431.92 43.27 431.92 43.27 431.92 9.72 341.49 9.72"/>
          <polygon class="cls-65" points="342.23 9.55 342.23 94.8 342.23 94.8 342.23 94.8 432.66 94.8 432.66 43.11 432.66 43.11 432.66 9.55 342.23 9.55"/>
          <polygon class="cls-55" points="342.97 9.39 342.97 94.63 342.97 94.63 342.97 94.64 433.4 94.64 433.4 42.94 433.4 42.94 433.4 9.39 342.97 9.39"/>
          <polygon class="cls-86" points="343.71 9.22 343.71 94.47 343.71 94.47 343.71 94.47 434.14 94.47 434.14 42.78 434.14 42.78 434.14 9.22 343.71 9.22"/>
        </g>
        <g>
          <rect class="cls-30" x="343.6" y="9.22" width="90.43" height="85.25"/>
          <rect class="cls-35" x="343.6" y="42.78" width="90.43" height="51.69"/>
          <rect class="cls-19" x="343.6" y="9.22" width="90.43" height="85.25"/>
        </g>
        <path class="cls-38" d="m434.03,8.8h-90.43c-.25,0-.45.19-.45.42v85.25c0,.23.2.42.45.42h90.43c.25,0,.45-.19.45-.42V9.22c0-.23-.2-.42-.45-.42Z"/>
      </g>
    </g>
  </g>
</svg>