<?xml version="1.0" encoding="UTF-8"?>
<svg xmlns="http://www.w3.org/2000/svg" xmlns:xlink="http://www.w3.org/1999/xlink" viewBox="0 0 68.99 200.2">
  <defs>
    <style>
      .cls-1 {
        fill: url(#linear-gradient-3);
      }

      .cls-1, .cls-2, .cls-3, .cls-4, .cls-5, .cls-6 {
        mix-blend-mode: multiply;
      }

      .cls-7 {
        fill: #fff;
      }

      .cls-2 {
        fill: url(#linear-gradient);
      }

      .cls-3 {
        fill: url(#linear-gradient-4);
      }

      .cls-8 {
        filter: url(#luminosity-noclip-5);
      }

      .cls-9 {
        mask: url(#mask-2);
      }

      .cls-10 {
        isolation: isolate;
      }

      .cls-11 {
        mask: url(#mask-3);
      }

      .cls-4 {
        fill: url(#linear-gradient-6);
      }

      .cls-12 {
        fill: none;
        stroke: #000;
        stroke-linecap: round;
        stroke-linejoin: round;
      }

      .cls-5 {
        fill: url(#linear-gradient-5);
      }

      .cls-13 {
        mask: url(#mask-5);
      }

      .cls-14 {
        mask: url(#mask-4);
      }

      .cls-6 {
        fill: url(#linear-gradient-2);
      }

      .cls-15 {
        filter: url(#luminosity-noclip);
      }

      .cls-16 {
        mask: url(#mask-1);
      }

      .cls-17 {
        mask: url(#mask);
      }

      .cls-18 {
        fill: #def0fa;
      }

      .cls-19 {
        filter: url(#luminosity-noclip-3);
      }
    </style>
    <filter id="luminosity-noclip" x="9.68" y="15.61" width="44.11" height="12.58" color-interpolation-filters="sRGB" filterUnits="userSpaceOnUse">
      <feFlood flood-color="#fff" result="bg"/>
      <feBlend in="SourceGraphic" in2="bg"/>
    </filter>
    <filter id="luminosity-noclip-2" x="9.68" y="-8291.61" width="44.11" height="32766" color-interpolation-filters="sRGB" filterUnits="userSpaceOnUse">
      <feFlood flood-color="#fff" result="bg"/>
      <feBlend in="SourceGraphic" in2="bg"/>
    </filter>
    <mask id="mask-1" x="9.68" y="-8291.61" width="44.11" height="32766" maskUnits="userSpaceOnUse"/>
    <linearGradient id="linear-gradient" x1="-1628.6" y1="212.41" x2="-1628.6" y2="199.83" gradientTransform="translate(-1596.87 -184.22) rotate(-180) scale(1 -1)" gradientUnits="userSpaceOnUse">
      <stop offset="0" stop-color="#000"/>
      <stop offset="1" stop-color="#fff"/>
    </linearGradient>
    <mask id="mask" x="9.68" y="15.61" width="44.11" height="12.58" maskUnits="userSpaceOnUse">
      <g class="cls-15">
        <g class="cls-16">
          <rect class="cls-2" x="9.68" y="15.61" width="44.11" height="12.58"/>
        </g>
      </g>
    </mask>
    <linearGradient id="linear-gradient-2" x1="-1628.6" y1="212.41" x2="-1628.6" y2="199.83" gradientTransform="translate(-1596.87 -184.22) rotate(-180) scale(1 -1)" gradientUnits="userSpaceOnUse">
      <stop offset="0" stop-color="#fff"/>
      <stop offset="1" stop-color="#000"/>
    </linearGradient>
    <filter id="luminosity-noclip-3" x="10.05" y="172.38" width="44.11" height="12.58" color-interpolation-filters="sRGB" filterUnits="userSpaceOnUse">
      <feFlood flood-color="#fff" result="bg"/>
      <feBlend in="SourceGraphic" in2="bg"/>
    </filter>
    <filter id="luminosity-noclip-4" x="10.05" y="-8291.61" width="44.11" height="32766" color-interpolation-filters="sRGB" filterUnits="userSpaceOnUse">
      <feFlood flood-color="#fff" result="bg"/>
      <feBlend in="SourceGraphic" in2="bg"/>
    </filter>
    <mask id="mask-3" x="10.05" y="-8291.61" width="44.11" height="32766" maskUnits="userSpaceOnUse"/>
    <linearGradient id="linear-gradient-3" x1="-2070.65" y1="5353.66" x2="-2070.65" y2="5341.07" gradientTransform="translate(2102.75 5526.04) scale(1 -1)" xlink:href="#linear-gradient"/>
    <mask id="mask-2" x="10.05" y="172.38" width="44.11" height="12.58" maskUnits="userSpaceOnUse">
      <g class="cls-19">
        <g class="cls-11">
          <rect class="cls-1" x="10.05" y="172.38" width="44.11" height="12.58"/>
        </g>
      </g>
    </mask>
    <linearGradient id="linear-gradient-4" x1="-2070.65" y1="5353.66" x2="-2070.65" y2="5341.07" gradientTransform="translate(2102.75 5526.04) scale(1 -1)" xlink:href="#linear-gradient-2"/>
    <filter id="luminosity-noclip-5" x="41.07" y="15.62" width="12.58" height="169.69" color-interpolation-filters="sRGB" filterUnits="userSpaceOnUse">
      <feFlood flood-color="#fff" result="bg"/>
      <feBlend in="SourceGraphic" in2="bg"/>
    </filter>
    <filter id="luminosity-noclip-6" x="41.07" y="-8291.61" width="12.58" height="32766" color-interpolation-filters="sRGB" filterUnits="userSpaceOnUse">
      <feFlood flood-color="#fff" result="bg"/>
      <feBlend in="SourceGraphic" in2="bg"/>
    </filter>
    <mask id="mask-5" x="41.07" y="-8291.61" width="12.58" height="32766" maskUnits="userSpaceOnUse"/>
    <linearGradient id="linear-gradient-5" x1="642.76" y1="2983.64" x2="642.76" y2="2971.05" gradientTransform="translate(3024.7 743.23) rotate(-90) scale(1 -1)" xlink:href="#linear-gradient"/>
    <mask id="mask-4" x="41.07" y="15.62" width="12.58" height="169.69" maskUnits="userSpaceOnUse">
      <g class="cls-8">
        <g class="cls-13">
          <rect class="cls-5" x="41.07" y="15.62" width="12.58" height="169.69"/>
        </g>
      </g>
    </mask>
    <linearGradient id="linear-gradient-6" x1="642.76" y1="2983.64" x2="642.76" y2="2971.05" gradientTransform="translate(3024.7 743.23) rotate(-90) scale(1 -1)" xlink:href="#linear-gradient-2"/>
  </defs>
  <g class="cls-10">
    <g id="Layer_1" data-name="Layer 1">
      <g>
        <g>
          <g>
            <path class="cls-18" d="m68.49,136.25v51.09c0,2.95-2.38,5.35-5.32,5.35h-2.76v-2.03c0-2.96-2.39-5.35-5.33-5.35h-1.29v-53.49h10.11c.44,0,.87-.06,1.28-.18,1.91.55,3.31,2.32,3.31,4.42v.19Z"/>
            <path class="cls-18" d="m68.49,73.54v53.67c0,2.1-1.4,3.88-3.31,4.43-.41.12-.84.18-1.28.18h-10.11v-62.71h10.11c.44,0,.87-.06,1.28-.18,1.91.55,3.31,2.32,3.31,4.42v.19Z"/>
            <path class="cls-18" d="m68.49,13.41v51.09c0,2.1-1.4,3.88-3.31,4.43-.41.12-.84.18-1.28.18h-10.11V15.62h1.29c2.94,0,5.33-2.39,5.33-5.34v-2.4h2.75c2.95,0,5.33,2.39,5.33,5.35v.18Z"/>
            <path class="cls-18" d="m60.41,192.69v1.66c0,2.95-2.39,5.35-5.33,5.35H14.65c-2.95,0-5.33-2.4-5.33-5.35v-9.04h45.76c2.94,0,5.33,2.39,5.33,5.35v2.03Z"/>
            <path class="cls-18" d="m60.41,10.09v.19c0,2.95-2.39,5.34-5.33,5.34H9.32V5.85c0-2.96,2.38-5.35,5.33-5.35h40.43c2.94,0,5.33,2.39,5.33,5.35v4.24Z"/>
            <path class="cls-7" d="m12.83,138.78c-.2-.41-.63-.69-1.12-.69-.71,0-1.29.58-1.29,1.29s.58,1.29,1.29,1.29,1.28-.57,1.28-1.29c0-.22-.05-.42-.16-.6Zm.11,38.26c-.14-.55-.64-.95-1.23-.95-.71,0-1.29.58-1.29,1.29s.58,1.29,1.29,1.29,1.28-.58,1.28-1.29c0-.12-.02-.23-.05-.34Zm17.9-19.08c-.2-.41-.63-.69-1.12-.69-.71,0-1.29.58-1.29,1.3s.58,1.29,1.29,1.29,1.28-.58,1.28-1.29c0-.22-.05-.43-.16-.61Zm-25.75-26.14h48.7v53.49H5.09c-2.54,0-4.59-2.07-4.59-4.61v-44.64c0-2.1,1.4-3.87,3.31-4.42.41.12.84.18,1.28.18Zm43.56,7.56c0-.71-.58-1.29-1.29-1.29s-1.29.58-1.29,1.29.58,1.29,1.29,1.29,1.29-.57,1.29-1.29Zm0,38c0-.71-.58-1.29-1.29-1.29s-1.29.58-1.29,1.29.58,1.29,1.29,1.29,1.29-.58,1.29-1.29Z"/>
            <path class="cls-7" d="m12.83,123.29c-.2-.41-.63-.69-1.12-.69-.71,0-1.29.58-1.29,1.29s.58,1.29,1.29,1.29,1.28-.58,1.28-1.29c0-.22-.05-.42-.16-.6Zm.11-46.96c-.14-.55-.64-.95-1.23-.95-.71,0-1.29.58-1.29,1.29s.58,1.3,1.29,1.3,1.28-.58,1.28-1.3c0-.12-.02-.23-.05-.34Zm17.9,23.35c-.2-.41-.63-.69-1.12-.69-.71,0-1.29.58-1.29,1.29s.58,1.29,1.29,1.29,1.28-.57,1.28-1.29c0-.22-.05-.42-.16-.6Zm-25.75-30.57h48.7v62.71H5.09c-.44,0-.87-.06-1.28-.18-1.91-.55-3.31-2.33-3.31-4.43v-53.86c0-2.1,1.4-3.87,3.31-4.42.41.12.84.18,1.28.18Zm43.56,7.56c0-.71-.58-1.29-1.29-1.29s-1.29.58-1.29,1.29.58,1.3,1.29,1.3,1.29-.58,1.29-1.3Zm0,47.22c0-.71-.58-1.29-1.29-1.29s-1.29.58-1.29,1.29.58,1.29,1.29,1.29,1.29-.58,1.29-1.29Z"/>
            <path class="cls-7" d="m12.81,23.83c.12-.19.18-.41.18-.64,0-.72-.57-1.29-1.28-1.29s-1.29.57-1.29,1.29.58,1.29,1.29,1.29c.48,0,.89-.26,1.1-.65Zm18,17.51c-.21-.38-.62-.63-1.09-.63-.71,0-1.29.58-1.29,1.29s.58,1.29,1.29,1.29,1.28-.58,1.28-1.29c0-.24-.07-.47-.19-.66Zm22.98-25.72v53.49H5.09c-.44,0-.87-.06-1.28-.18-1.91-.55-3.31-2.33-3.31-4.43V20.24c0-2.55,2.05-4.62,4.59-4.62h48.7Zm-5.14,7.57c0-.72-.58-1.29-1.29-1.29s-1.29.57-1.29,1.29.58,1.29,1.29,1.29,1.29-.58,1.29-1.29Zm0,37.99c0-.71-.58-1.29-1.29-1.29s-1.29.58-1.29,1.29.58,1.29,1.29,1.29,1.29-.58,1.29-1.29Zm-35.66,0c0-.71-.57-1.29-1.28-1.29s-1.29.58-1.29,1.29.58,1.29,1.29,1.29,1.28-.58,1.28-1.29Z"/>
            <circle class="cls-18" cx="47.36" cy="23.19" r="1.29"/>
            <circle class="cls-18" cx="47.36" cy="61.18" r="1.29"/>
            <path class="cls-18" d="m47.36,75.38c.71,0,1.29.58,1.29,1.29s-.58,1.3-1.29,1.3-1.29-.58-1.29-1.3.58-1.29,1.29-1.29Z"/>
            <circle class="cls-18" cx="47.36" cy="123.89" r="1.29"/>
            <circle class="cls-18" cx="47.36" cy="139.38" r="1.29"/>
            <circle class="cls-18" cx="47.36" cy="177.38" r="1.29"/>
            <path class="cls-18" d="m30.81,41.34c.12.19.19.42.19.66,0,.71-.57,1.29-1.28,1.29s-1.29-.58-1.29-1.29.58-1.29,1.29-1.29c.47,0,.88.25,1.09.63Z"/>
            <path class="cls-18" d="m30.84,99.68c.11.18.16.38.16.6,0,.72-.57,1.29-1.28,1.29s-1.29-.57-1.29-1.29.58-1.29,1.29-1.29c.49,0,.92.28,1.12.69Z"/>
            <path class="cls-18" d="m30.84,157.96c.11.18.16.39.16.61,0,.71-.57,1.29-1.28,1.29s-1.29-.58-1.29-1.29.58-1.3,1.29-1.3c.49,0,.92.28,1.12.69Z"/>
            <path class="cls-18" d="m12.94,76.33c.03.11.05.22.05.34,0,.72-.57,1.3-1.28,1.3s-1.29-.58-1.29-1.3.58-1.29,1.29-1.29c.59,0,1.09.4,1.23.95Z"/>
            <path class="cls-18" d="m12.94,177.04c.03.11.05.22.05.34,0,.71-.57,1.29-1.28,1.29s-1.29-.58-1.29-1.29.58-1.29,1.29-1.29c.59,0,1.09.4,1.23.95Z"/>
            <path class="cls-18" d="m12.81,23.83c-.21.39-.62.65-1.1.65-.71,0-1.29-.58-1.29-1.29s.58-1.29,1.29-1.29,1.28.57,1.28,1.29c0,.23-.06.45-.18.64Z"/>
            <path class="cls-18" d="m12.83,123.29c.11.18.16.38.16.6,0,.71-.57,1.29-1.28,1.29s-1.29-.58-1.29-1.29.58-1.29,1.29-1.29c.49,0,.92.28,1.12.69Z"/>
            <path class="cls-18" d="m12.83,138.78c.11.18.16.38.16.6,0,.72-.57,1.29-1.28,1.29s-1.29-.57-1.29-1.29.58-1.29,1.29-1.29c.49,0,.92.28,1.12.69Z"/>
            <path class="cls-18" d="m11.71,59.89c.71,0,1.28.58,1.28,1.29s-.57,1.29-1.28,1.29-1.29-.58-1.29-1.29.58-1.29,1.29-1.29Z"/>
          </g>
          <g>
            <path d="m.5,127.89c-.28,0-.5-.22-.5-.5v-53.85c0-.28.22-.5.5-.5s.5.22.5.5v53.85c0,.28-.22.5-.5.5Z"/>
            <path d="m5.09,132.32c-.49,0-.97-.07-1.42-.2-2.16-.62-3.67-2.64-3.67-4.91,0-.28.22-.5.5-.5s.5.22.5.5c0,1.83,1.21,3.45,2.95,3.95.36.11.75.16,1.14.16.28,0,.5.22.5.5s-.22.5-.5.5Z"/>
            <path d="m53.79,132.32c-.28,0-.5-.22-.5-.5v-62.71c0-.28.22-.5.5-.5s.5.22.5.5v62.71c0,.28-.22.5-.5.5Z"/>
            <path d="m.5,73.85c-.28,0-.5-.22-.5-.5,0-2.26,1.51-4.28,3.67-4.9.27-.08.54.08.62.34.08.27-.08.54-.34.62-1.74.5-2.95,2.12-2.95,3.94,0,.28-.22.5-.5.5Z"/>
            <path d="m29.72,102.07c-.99,0-1.79-.8-1.79-1.79s.8-1.79,1.79-1.79c.66,0,1.28.38,1.57.97.13.21.21.5.21.82,0,.99-.8,1.79-1.78,1.79Zm0-2.58c-.44,0-.79.35-.79.79s.35.79.79.79.78-.35.78-.79c0-.13-.03-.24-.09-.34-.14-.29-.41-.45-.69-.45Z"/>
            <path class="cls-12" d="m48.65,76.67c0-.71-.58-1.29-1.29-1.29s-1.29.58-1.29,1.29.58,1.3,1.29,1.3,1.29-.58,1.29-1.3Z"/>
            <circle class="cls-12" cx="47.36" cy="123.89" r="1.29"/>
            <path d="m11.71,78.47c-.99,0-1.79-.81-1.79-1.8s.8-1.79,1.79-1.79c.81,0,1.52.54,1.71,1.33.04.16.07.31.07.46,0,.99-.8,1.8-1.78,1.8Zm0-2.59c-.44,0-.79.35-.79.79s.35.8.79.8.78-.36.78-.8c0-.06,0-.13-.03-.21-.09-.35-.39-.58-.75-.58Z"/>
            <path d="m11.71,125.68c-.99,0-1.79-.8-1.79-1.79s.8-1.79,1.79-1.79c.67,0,1.28.38,1.57.97.13.21.21.5.21.82,0,.99-.8,1.79-1.78,1.79Zm0-2.58c-.44,0-.79.35-.79.79s.35.79.79.79.78-.35.78-.79c0-.13-.03-.24-.09-.34-.14-.29-.41-.45-.69-.45Z"/>
            <path d="m12.63,76.99c-.18,0-.36-.1-.44-.27-.13-.25-.03-.55.21-.67l1.48-.74c.25-.12.55-.02.67.22.12.25.02.55-.22.67l-1.46.74c-.07.04-.15.06-.23.06Z"/>
            <path d="m14.46,79.57c-.09,0-.18-.02-.26-.07l-1.83-1.1c-.24-.14-.31-.45-.17-.69.14-.24.45-.31.69-.17l1.83,1.1c.24.14.31.45.17.69-.09.16-.26.24-.43.24Z"/>
            <path d="m9.68,78.83c-.19,0-.36-.1-.45-.28-.12-.25-.02-.55.23-.67l.74-.36c.25-.12.55-.02.67.23.12.25.02.55-.23.67l-.74.36c-.07.03-.15.05-.22.05Z"/>
            <path d="m10.42,79.57c-.08,0-.15-.02-.22-.05-.25-.12-.35-.42-.22-.67l.37-.74c.12-.25.42-.35.67-.22.25.12.35.42.22.67l-.37.74c-.09.17-.26.28-.45.28Z"/>
            <path d="m10.42,76.25c-.18,0-.36-.1-.45-.28l-.37-.74c-.12-.25-.02-.55.22-.67.24-.12.55-.02.67.22l.37.74c.12.25.02.55-.22.67-.07.04-.15.05-.22.05Z"/>
            <path d="m10.79,75.88c-.28,0-.5-.22-.5-.5v-1.1c0-.28.22-.5.5-.5s.5.22.5.5v1.1c0,.28-.22.5-.5.5Z"/>
            <path d="m30.64,100.23c-.22,0-.43-.15-.49-.38-.07-.27.1-.54.36-.61l1.47-.37c.27-.07.54.09.61.36.07.27-.09.54-.36.61l-1.47.37s-.08.01-.12.01Z"/>
            <path d="m32.47,102.81c-.09,0-.18-.02-.26-.07l-1.83-1.11c-.24-.14-.31-.45-.17-.69.14-.24.45-.31.69-.17l1.83,1.11c.24.14.31.45.17.69-.09.15-.26.24-.43.24Z"/>
            <path d="m27.7,102.07c-.13,0-.25-.05-.35-.14-.2-.19-.2-.51,0-.71l.36-.37c.2-.2.51-.2.71,0,.2.19.2.51,0,.71l-.36.37c-.1.1-.23.15-.36.15Z"/>
            <path d="m28.43,103.18c-.05,0-.11,0-.16-.03-.26-.09-.4-.37-.32-.63l.37-1.11c.09-.26.37-.4.63-.32.26.09.4.37.32.63l-.37,1.11c-.07.21-.27.34-.47.34Z"/>
            <path d="m28.43,99.86c-.18,0-.36-.1-.45-.28l-.37-.74c-.12-.25-.02-.55.22-.67.25-.12.55-.02.67.22l.37.74c.12.25.02.55-.22.67-.07.04-.15.05-.22.05Z"/>
            <path d="m28.8,99.49c-.21,0-.4-.13-.47-.34l-.37-1.11c-.09-.26.05-.54.32-.63.26-.08.54.05.63.32l.37,1.11c.09.26-.05.54-.32.63-.05.02-.11.03-.16.03Z"/>
            <path d="m48.65,76.99c-.18,0-.36-.1-.45-.28-.12-.25-.03-.55.22-.67l1.47-.74c.24-.13.55-.03.67.22.12.25.03.55-.22.67l-1.47.74c-.07.04-.15.05-.22.05Z"/>
            <path d="m50.48,79.57c-.09,0-.18-.02-.26-.07l-1.83-1.1c-.24-.14-.31-.45-.17-.69.14-.24.45-.31.69-.17l1.83,1.1c.24.14.31.45.17.69-.09.16-.26.24-.43.24Z"/>
            <path d="m45.71,78.83c-.13,0-.26-.05-.35-.15-.2-.2-.2-.51,0-.71l.36-.36c.2-.2.51-.2.71,0,.2.2.2.51,0,.71l-.36.36c-.1.1-.23.15-.35.15Z"/>
            <path d="m46.44,79.57c-.08,0-.15-.02-.22-.05-.25-.12-.35-.42-.22-.67l.37-.74c.12-.25.42-.35.67-.22.25.12.35.42.22.67l-.37.74c-.09.17-.26.28-.45.28Z"/>
            <path d="m46.44,76.25c-.18,0-.36-.1-.45-.28l-.37-.74c-.12-.25-.02-.55.22-.67.25-.12.55-.02.67.22l.37.74c.12.25.02.55-.22.67-.07.04-.15.05-.22.05Z"/>
            <path d="m46.81,75.88c-.21,0-.4-.13-.47-.34l-.37-1.1c-.09-.26.05-.54.31-.63.26-.09.54.05.63.31l.37,1.1c.09.26-.05.55-.31.63-.05.02-.11.03-.16.03Z"/>
            <path d="m48.65,123.84c-.22,0-.43-.15-.49-.38-.07-.27.1-.54.36-.61l1.47-.37c.27-.06.54.1.61.36.07.27-.1.54-.36.61l-1.47.37s-.08.01-.12.01Z"/>
            <path d="m50.48,126.42c-.09,0-.18-.02-.26-.07l-1.83-1.11c-.24-.14-.31-.45-.17-.69.14-.24.45-.31.69-.17l1.83,1.11c.24.14.31.45.17.69-.09.16-.26.24-.43.24Z"/>
            <path d="m45.71,125.68c-.13,0-.25-.05-.35-.14-.2-.19-.2-.51,0-.71l.36-.37c.19-.2.51-.2.71,0,.2.19.2.51,0,.71l-.36.37c-.1.1-.23.15-.36.15Z"/>
            <path d="m46.44,126.42c-.08,0-.15-.02-.22-.05-.25-.12-.35-.42-.22-.67l.37-.74c.12-.25.43-.35.67-.22.25.12.35.42.22.67l-.37.74c-.09.17-.26.28-.45.28Z"/>
            <path d="m46.44,123.47c-.18,0-.36-.1-.45-.28l-.37-.74c-.12-.25-.02-.55.22-.67.25-.12.55-.02.67.22l.37.74c.12.25.02.55-.22.67-.07.04-.15.05-.22.05Z"/>
            <path d="m46.81,123.1c-.21,0-.4-.13-.47-.34l-.37-1.11c-.09-.26.05-.54.32-.63.26-.09.54.05.63.32l.37,1.11c.09.26-.05.54-.32.63-.05.02-.11.03-.16.03Z"/>
            <path d="m12.63,123.84c-.22,0-.43-.15-.48-.38-.07-.27.09-.54.36-.61l1.47-.37c.27-.07.54.1.61.36.07.27-.1.54-.36.61l-1.47.37s-.08.02-.12.02Z"/>
            <path d="m14.46,126.42c-.09,0-.18-.02-.26-.07l-1.83-1.11c-.24-.14-.31-.45-.17-.69.14-.24.45-.31.69-.17l1.83,1.11c.24.14.31.45.17.69-.09.16-.26.24-.43.24Z"/>
            <path d="m9.68,125.68c-.18,0-.36-.1-.45-.28-.12-.25-.02-.55.22-.67l.74-.37c.25-.12.55-.02.67.22.12.25.02.55-.22.67l-.74.37c-.07.04-.15.05-.22.05Z"/>
            <path d="m10.42,126.42c-.08,0-.15-.02-.22-.05-.25-.12-.35-.42-.22-.67l.37-.74c.12-.25.43-.35.67-.22.25.12.35.42.22.67l-.37.74c-.09.17-.26.28-.45.28Z"/>
            <path d="m10.42,123.47c-.18,0-.36-.1-.45-.28l-.37-.74c-.12-.25-.02-.55.22-.67.25-.12.55-.02.67.22l.37.74c.12.25.02.55-.22.67-.07.04-.15.05-.22.05Z"/>
            <path d="m10.79,123.1c-.28,0-.5-.22-.5-.5v-1.11c0-.28.22-.5.5-.5s.5.22.5.5v1.11c0,.28-.22.5-.5.5Z"/>
            <path d="m63.9,132.32c-.28,0-.5-.22-.5-.5s.22-.5.5-.5c.39,0,.78-.05,1.14-.16,1.74-.5,2.95-2.12,2.95-3.95,0-.28.22-.5.5-.5s.5.22.5.5c0,2.27-1.51,4.29-3.67,4.91-.45.13-.93.2-1.42.2Z"/>
            <path d="m68.49,127.89c-.28,0-.5-.22-.5-.5v-53.85c0-.28.22-.5.5-.5s.5.22.5.5v53.85c0,.28-.22.5-.5.5Z"/>
            <path d="m68.49,73.85c-.28,0-.5-.22-.5-.5,0-1.82-1.21-3.44-2.95-3.94-.26-.08-.42-.35-.34-.62.08-.26.35-.42.62-.34,2.16.62,3.67,2.64,3.67,4.9,0,.28-.22.5-.5.5Z"/>
            <path d="m63.72,69.61h-9.93c-.28,0-.5-.22-.5-.5s.22-.5.5-.5h9.93c.28,0,.5.22.5.5s-.22.5-.5.5Z"/>
            <path d="m5.09,185.81c-2.81,0-5.09-2.29-5.09-5.11,0-.28.22-.5.5-.5s.5.22.5.5c0,2.27,1.83,4.11,4.09,4.11.28,0,.5.22.5.5s-.22.5-.5.5Z"/>
            <path d="m53.79,132.32H4.91c-.28,0-.5-.22-.5-.5s.22-.5.5-.5h48.88c.28,0,.5.22.5.5s-.22.5-.5.5Z"/>
            <path d="m9.32,185.81h-4.41c-.28,0-.5-.22-.5-.5s.22-.5.5-.5h4.41c.28,0,.5.22.5.5s-.22.5-.5.5Z"/>
            <path d="m.5,136.56c-.28,0-.5-.22-.5-.5,0-2.26,1.51-4.28,3.67-4.9.27-.08.54.08.62.34.08.27-.08.54-.34.62-1.74.5-2.95,2.12-2.95,3.94,0,.28-.22.5-.5.5Z"/>
            <path d="m.5,181.38c-.28,0-.5-.22-.5-.5v-44.63c0-.28.22-.5.5-.5s.5.22.5.5v44.63c0,.28-.22.5-.5.5Z"/>
            <path d="m29.72,160.36c-.99,0-1.79-.8-1.79-1.79s.8-1.8,1.79-1.8c.66,0,1.28.38,1.57.97.13.21.21.51.21.83,0,.99-.8,1.79-1.78,1.79Zm0-2.59c-.44,0-.79.36-.79.8s.35.79.79.79.78-.35.78-.79c0-.14-.03-.25-.09-.35-.14-.29-.41-.45-.69-.45Z"/>
            <circle class="cls-12" cx="47.36" cy="139.38" r="1.29"/>
            <circle class="cls-12" cx="47.36" cy="177.38" r="1.29"/>
            <path d="m11.71,141.17c-.99,0-1.79-.8-1.79-1.79s.8-1.79,1.79-1.79c.67,0,1.28.38,1.57.97.13.21.21.5.21.82,0,.99-.8,1.79-1.78,1.79Zm0-2.58c-.44,0-.79.35-.79.79s.35.79.79.79.78-.35.78-.79c0-.14-.03-.24-.09-.34-.14-.29-.41-.45-.69-.45Z"/>
            <path d="m11.71,179.17c-.99,0-1.79-.8-1.79-1.79s.8-1.79,1.79-1.79c.81,0,1.52.54,1.71,1.33.04.16.07.31.07.46,0,.99-.8,1.79-1.78,1.79Zm0-2.58c-.44,0-.79.35-.79.79s.35.79.79.79.78-.35.78-.79c0-.06,0-.13-.03-.21-.09-.35-.39-.58-.75-.58Z"/>
            <path d="m12.63,139.33c-.22,0-.43-.15-.49-.38-.07-.27.1-.54.36-.61l1.47-.37c.27-.07.54.09.61.36.07.27-.09.54-.36.61l-1.47.37s-.08.01-.12.01Z"/>
            <path d="m14.46,141.91c-.09,0-.18-.02-.26-.07l-1.83-1.1c-.24-.14-.31-.45-.17-.69.14-.24.45-.31.69-.17l1.83,1.1c.24.14.31.45.17.69-.09.16-.26.24-.43.24Z"/>
            <path d="m9.68,141.17c-.19,0-.36-.1-.45-.28-.12-.25-.02-.55.23-.67l.74-.36c.25-.12.55-.02.67.23.12.25.02.55-.23.67l-.74.36c-.07.03-.15.05-.22.05Z"/>
            <path d="m10.42,142.28c-.05,0-.11,0-.16-.03-.26-.09-.4-.37-.32-.63l.37-1.11c.09-.26.37-.4.63-.32.26.09.4.37.32.63l-.37,1.11c-.07.21-.27.34-.47.34Z"/>
            <path d="m10.42,138.96c-.18,0-.36-.1-.45-.28l-.37-.74c-.12-.25-.02-.55.22-.67.24-.12.55-.02.67.22l.37.74c.12.25.02.55-.22.67-.07.04-.15.05-.22.05Z"/>
            <path d="m10.79,138.59c-.28,0-.5-.22-.5-.5v-1.1c0-.28.22-.5.5-.5s.5.22.5.5v1.1c0,.28-.22.5-.5.5Z"/>
            <path d="m30.64,158.51c-.22,0-.43-.15-.48-.38-.07-.27.09-.54.36-.61l1.47-.37c.27-.07.54.1.61.36.07.27-.1.54-.36.61l-1.47.37s-.08.02-.12.02Z"/>
            <path d="m32.47,161.09c-.09,0-.18-.02-.26-.07l-1.83-1.1c-.24-.14-.31-.45-.17-.69.14-.24.45-.31.69-.17l1.83,1.1c.24.14.31.45.17.69-.09.16-.26.24-.43.24Z"/>
            <path d="m27.7,160.36c-.13,0-.25-.05-.35-.14-.2-.19-.2-.51,0-.71l.36-.37c.2-.2.51-.2.71,0,.2.19.2.51,0,.71l-.36.37c-.1.1-.23.15-.36.15Z"/>
            <path d="m28.43,161.09c-.08,0-.15-.02-.23-.05-.25-.12-.35-.43-.22-.67l.37-.73c.13-.25.43-.34.67-.22.25.12.35.43.22.67l-.37.73c-.09.17-.26.27-.45.27Z"/>
            <path d="m28.43,157.77c-.13,0-.25-.05-.35-.14l-.37-.36c-.2-.19-.2-.51,0-.71.2-.2.51-.2.71,0l.37.36c.2.19.2.51,0,.71-.1.1-.23.15-.36.15Z"/>
            <path d="m28.8,157.77c-.22,0-.43-.15-.48-.38l-.37-1.47c-.07-.27.09-.54.36-.61.27-.07.54.09.61.36l.37,1.47c.07.27-.09.54-.36.61-.04,0-.08.01-.12.01Z"/>
            <path d="m48.65,139.33c-.22,0-.43-.15-.49-.38-.07-.27.1-.54.36-.61l1.47-.37c.27-.07.54.1.61.36.07.27-.1.54-.36.61l-1.47.37s-.08.01-.12.01Z"/>
            <path d="m50.48,141.91c-.09,0-.18-.02-.26-.07l-1.83-1.1c-.24-.14-.31-.45-.17-.69.14-.24.45-.31.69-.17l1.83,1.1c.24.14.31.45.17.69-.09.16-.26.24-.43.24Z"/>
            <path d="m45.71,141.17c-.13,0-.26-.05-.35-.15-.2-.2-.2-.51,0-.71l.36-.36c.2-.2.51-.2.71,0s.2.51,0,.71l-.36.36c-.1.1-.23.15-.35.15Z"/>
            <path d="m46.44,142.28c-.05,0-.11,0-.16-.03-.26-.09-.4-.37-.32-.63l.37-1.11c.09-.26.37-.4.63-.32.26.09.4.37.32.63l-.37,1.11c-.07.21-.27.34-.47.34Z"/>
            <path d="m46.44,138.96c-.18,0-.36-.1-.45-.28l-.37-.74c-.12-.25-.02-.55.22-.67.25-.12.55-.02.67.22l.37.74c.12.25.02.55-.22.67-.07.04-.15.05-.22.05Z"/>
            <path d="m46.81,138.59c-.21,0-.4-.13-.47-.34l-.37-1.1c-.09-.26.05-.54.31-.63.26-.09.54.05.63.31l.37,1.1c.09.26-.05.54-.31.63-.05.02-.11.03-.16.03Z"/>
            <path d="m48.65,177.69c-.18,0-.36-.1-.45-.28-.12-.25-.02-.55.23-.67l1.47-.73c.25-.12.55-.02.67.23.12.25.02.55-.23.67l-1.47.73c-.07.04-.15.05-.22.05Z"/>
            <path d="m50.48,180.28c-.09,0-.18-.02-.26-.07l-1.83-1.11c-.24-.14-.31-.45-.17-.69.15-.24.45-.31.69-.17l1.83,1.11c.24.14.31.45.17.69-.09.15-.26.24-.43.24Z"/>
            <path d="m45.71,179.54c-.13,0-.25-.05-.35-.14-.2-.19-.2-.51,0-.71l.36-.37c.19-.2.51-.2.71,0,.2.19.2.51,0,.71l-.36.37c-.1.1-.23.15-.36.15Z"/>
            <path d="m46.44,180.28c-.08,0-.15-.02-.22-.05-.25-.12-.35-.42-.22-.67l.37-.74c.12-.25.42-.35.67-.22.25.12.35.42.22.67l-.37.74c-.09.17-.26.28-.45.28Z"/>
            <path d="m46.44,176.96c-.18,0-.36-.1-.45-.28l-.37-.74c-.12-.25-.02-.55.22-.67.25-.12.55-.02.67.22l.37.74c.12.25.02.55-.22.67-.07.04-.15.05-.22.05Z"/>
            <path d="m46.81,176.59c-.21,0-.4-.13-.47-.34l-.37-1.11c-.09-.26.05-.54.32-.63.26-.08.54.05.63.32l.37,1.11c.09.26-.05.54-.32.63-.05.02-.11.03-.16.03Z"/>
            <path d="m12.63,177.69c-.19,0-.36-.1-.45-.28-.12-.25-.02-.55.23-.67l1.46-.73c.25-.12.55-.02.67.22.12.25.02.55-.22.67l-1.47.73c-.07.03-.15.05-.22.05Z"/>
            <path d="m14.46,180.28c-.09,0-.18-.02-.26-.07l-1.83-1.11c-.24-.14-.31-.45-.17-.69.14-.24.45-.31.69-.17l1.83,1.11c.24.14.31.45.17.69-.09.15-.26.24-.43.24Z"/>
            <path d="m9.68,179.54c-.18,0-.36-.1-.45-.28-.12-.25-.02-.55.22-.67l.74-.37c.25-.12.55-.02.67.22.12.25.02.55-.22.67l-.74.37c-.07.04-.15.05-.22.05Z"/>
            <path d="m10.42,180.28c-.08,0-.15-.02-.22-.05-.25-.12-.35-.42-.22-.67l.37-.74c.12-.25.42-.35.67-.22.25.12.35.42.22.67l-.37.74c-.09.17-.26.28-.45.28Z"/>
            <path d="m10.42,176.96c-.18,0-.36-.1-.45-.28l-.37-.74c-.12-.25-.02-.55.22-.67.24-.12.55-.02.67.22l.37.74c.12.25.02.55-.22.67-.07.04-.15.05-.22.05Z"/>
            <path d="m10.79,176.59c-.28,0-.5-.22-.5-.5v-1.11c0-.28.22-.5.5-.5s.5.22.5.5v1.11c0,.28-.22.5-.5.5Z"/>
            <path d="m53.79,185.81c-.28,0-.5-.22-.5-.5v-53.49c0-.28.22-.5.5-.5s.5.22.5.5v53.49c0,.28-.22.5-.5.5Z"/>
            <path d="m62.61,193.19h-2.2c-.28,0-.5-.22-.5-.5s.22-.5.5-.5h2.2c.28,0,.5.22.5.5s-.22.5-.5.5Z"/>
            <path d="m63.17,193.19c-.28,0-.5-.22-.5-.5s.22-.5.5-.5c2.66,0,4.82-2.18,4.82-4.85,0-.28.22-.5.5-.5s.5.22.5.5c0,3.23-2.61,5.85-5.82,5.85Z"/>
            <path d="m68.49,188.02c-.28,0-.5-.22-.5-.5v-51.27c0-.28.22-.5.5-.5s.5.22.5.5v51.27c0,.28-.22.5-.5.5Z"/>
            <path d="m68.49,136.56c-.28,0-.5-.22-.5-.5,0-1.82-1.21-3.44-2.95-3.94-.26-.08-.42-.35-.34-.62.08-.26.35-.42.62-.34,2.16.62,3.67,2.64,3.67,4.9,0,.28-.22.5-.5.5Z"/>
            <path d="m63.72,132.32h-9.93c-.28,0-.5-.22-.5-.5s.22-.5.5-.5h9.93c.28,0,.5.22.5.5s-.22.5-.5.5Z"/>
            <path d="m14.65,200.2c-3.21,0-5.83-2.62-5.83-5.85,0-.28.22-.5.5-.5s.5.22.5.5c0,2.67,2.17,4.85,4.83,4.85.28,0,.5.22.5.5s-.22.5-.5.5Z"/>
            <path d="m54.89,200.2H14.83c-.28,0-.5-.22-.5-.5s.22-.5.5-.5h40.06c.28,0,.5.22.5.5s-.22.5-.5.5Z"/>
            <path d="m55.08,200.2c-.28,0-.5-.22-.5-.5s.22-.5.5-.5c2.66,0,4.83-2.18,4.83-4.85,0-.28.22-.5.5-.5s.5.22.5.5c0,3.23-2.62,5.85-5.83,5.85Z"/>
            <path d="m60.41,195.03c-.28,0-.5-.22-.5-.5v-3.69c0-.28.22-.5.5-.5s.5.22.5.5v3.69c0,.28-.22.5-.5.5Z"/>
            <path d="m60.41,191.16c-.28,0-.5-.22-.5-.5,0-2.67-2.17-4.85-4.83-4.85-.28,0-.5-.22-.5-.5s.22-.5.5-.5c3.21,0,5.83,2.62,5.83,5.85,0,.28-.22.5-.5.5Z"/>
            <path d="m9.32,195.03c-.28,0-.5-.22-.5-.5v-9.22c0-.28.22-.5.5-.5h45.57c.28,0,.5.22.5.5s-.22.5-.5.5H9.82v8.72c0,.28-.22.5-.5.5Z"/>
            <path d="m.5,20.74c-.28,0-.5-.22-.5-.5,0-2.82,2.28-5.12,5.09-5.12.28,0,.5.22.5.5s-.22.5-.5.5c-2.25,0-4.09,1.85-4.09,4.12,0,.28-.22.5-.5.5Z"/>
            <path d="m53.79,69.61H4.91c-.28,0-.5-.22-.5-.5s.22-.5.5-.5h48.38V15.62c0-.28.22-.5.5-.5s.5.22.5.5v53.49c0,.28-.22.5-.5.5Z"/>
            <path d="m9.32,16.12h-4.41c-.28,0-.5-.22-.5-.5s.22-.5.5-.5h4.41c.28,0,.5.22.5.5s-.22.5-.5.5Z"/>
            <path d="m5.09,69.61c-.49,0-.97-.07-1.42-.2-2.16-.62-3.67-2.64-3.67-4.91,0-.28.22-.5.5-.5s.5.22.5.5c0,1.83,1.21,3.45,2.95,3.95.36.11.75.16,1.14.16.28,0,.5.22.5.5s-.22.5-.5.5Z"/>
            <path d="m.5,65.19c-.28,0-.5-.22-.5-.5V20.05c0-.28.22-.5.5-.5s.5.22.5.5v44.64c0,.28-.22.5-.5.5Z"/>
            <path d="m29.72,43.79c-.99,0-1.79-.8-1.79-1.79s.8-1.79,1.79-1.79c.64,0,1.23.34,1.53.89.16.25.25.57.25.9,0,.99-.8,1.79-1.78,1.79Zm0-2.58c-.44,0-.79.35-.79.79s.35.79.79.79.78-.35.78-.79c0-.14-.04-.28-.11-.39-.14-.26-.39-.4-.67-.4Z"/>
            <circle class="cls-12" cx="47.36" cy="61.18" r="1.29"/>
            <circle class="cls-12" cx="47.36" cy="23.19" r="1.29"/>
            <path class="cls-12" d="m12.99,61.18c0-.71-.57-1.29-1.28-1.29s-1.29.58-1.29,1.29.58,1.29,1.29,1.29,1.28-.58,1.28-1.29Z"/>
            <path d="m11.71,24.98c-.99,0-1.79-.8-1.79-1.79s.8-1.79,1.79-1.79,1.78.8,1.78,1.79c0,.33-.09.64-.26.91-.28.53-.87.88-1.52.88Zm0-2.58c-.44,0-.79.35-.79.79s.35.79.79.79c.28,0,.53-.14.66-.39.08-.14.12-.27.12-.4,0-.44-.34-.79-.78-.79Z"/>
            <path d="m14.1,62.97s-.08,0-.12-.02l-1.47-.37c-.27-.07-.43-.34-.36-.61.07-.27.34-.43.61-.36l1.47.37c.27.07.43.34.36.61-.06.23-.26.38-.49.38Z"/>
            <path d="m12.63,60.76c-.2,0-.38-.12-.46-.31-.1-.26.02-.55.28-.65l1.83-.74c.25-.1.55.02.65.28.1.26-.02.55-.28.65l-1.83.74c-.06.02-.12.04-.19.04Z"/>
            <path d="m10.42,60.76c-.08,0-.15-.02-.22-.05l-.74-.37c-.25-.12-.35-.42-.22-.67.12-.25.42-.35.67-.22l.74.37c.25.12.35.42.22.67-.09.17-.26.28-.45.28Z"/>
            <path d="m10.79,60.39c-.18,0-.36-.1-.45-.28l-.37-.74c-.12-.25-.02-.55.22-.67.25-.12.55-.02.67.22l.37.74c.12.25.02.55-.22.67-.07.04-.15.05-.22.05Z"/>
            <path d="m10.05,63.71c-.08,0-.15-.02-.22-.05-.25-.12-.35-.42-.22-.67l.37-.74c.12-.25.43-.35.67-.22.25.12.35.42.22.67l-.37.74c-.09.17-.26.28-.45.28Z"/>
            <path d="m10.79,64.45c-.28,0-.5-.22-.5-.5v-1.11c0-.28.22-.5.5-.5s.5.22.5.5v1.11c0,.28-.22.5-.5.5Z"/>
            <path d="m32.11,43.79s-.08,0-.12-.02l-1.47-.37c-.27-.07-.43-.34-.36-.61.07-.27.34-.43.61-.36l1.47.37c.27.07.43.34.36.61-.06.23-.26.38-.49.38Z"/>
            <path d="m30.64,41.95c-.16,0-.33-.08-.42-.23-.15-.23-.08-.54.15-.69l.17-.11,1.67-1.01c.23-.14.54-.07.69.17.14.24.07.54-.17.69l-1.82,1.1c-.08.05-.18.08-.27.08Z"/>
            <path d="m28.06,41.95c-.13,0-.26-.05-.36-.15l-.36-.37c-.19-.2-.19-.51,0-.71.2-.19.51-.19.71,0l.36.37c.19.2.19.51,0,.71-.1.09-.22.14-.35.14Z"/>
            <path d="m28.8,41.58c-.18,0-.36-.1-.45-.28l-.37-.74c-.12-.25-.02-.55.22-.67.24-.12.55-.02.67.22l.37.74c.12.25.02.55-.22.67-.07.04-.15.05-.22.05Z"/>
            <path d="m28.06,44.53c-.08,0-.15-.02-.22-.05-.25-.12-.35-.42-.22-.67l.37-.74c.12-.25.42-.35.67-.22.25.12.35.42.22.67l-.37.74c-.09.17-.26.28-.45.28Z"/>
            <path d="m28.43,45.63s-.08,0-.12-.01c-.27-.07-.43-.34-.36-.61l.37-1.47c.07-.27.33-.43.61-.36.27.07.43.34.36.61l-.37,1.47c-.06.23-.26.38-.49.38Z"/>
            <path d="m50.12,62.97s-.08,0-.12-.01l-1.47-.37c-.27-.07-.43-.34-.36-.61.07-.27.34-.43.61-.36l1.47.37c.27.07.43.34.36.61-.06.23-.26.38-.49.38Z"/>
            <path d="m48.65,60.76c-.2,0-.38-.12-.46-.31-.1-.26.02-.55.28-.65l1.83-.74c.25-.1.55.02.65.28.1.26-.02.55-.28.65l-1.83.74c-.06.02-.12.04-.19.04Z"/>
            <path d="m46.07,60.76c-.13,0-.26-.05-.36-.15l-.36-.37c-.19-.2-.19-.51,0-.71.2-.19.52-.19.71,0l.36.37c.19.2.19.51,0,.71-.1.09-.22.14-.35.14Z"/>
            <path d="m46.81,60.39c-.18,0-.36-.1-.45-.28l-.37-.74c-.12-.25-.02-.55.22-.67.25-.12.55-.02.67.22l.37.74c.12.25.02.55-.22.67-.07.04-.15.05-.22.05Z"/>
            <path d="m46.07,63.71c-.08,0-.15-.02-.22-.05-.25-.12-.35-.42-.22-.67l.37-.74c.12-.25.43-.35.67-.22.25.12.35.42.22.67l-.37.74c-.09.17-.26.28-.45.28Z"/>
            <path d="m46.44,64.45c-.05,0-.11,0-.16-.03-.26-.09-.4-.37-.32-.63l.37-1.11c.09-.26.37-.4.63-.32.26.09.4.37.32.63l-.37,1.11c-.07.21-.27.34-.47.34Z"/>
            <path d="m50.12,24.98c-.08,0-.15-.02-.22-.05l-1.47-.74c-.25-.12-.35-.42-.22-.67.12-.25.42-.35.67-.22l1.47.74c.25.12.35.42.22.67-.09.17-.26.28-.45.28Z"/>
            <path d="m48.65,22.76c-.17,0-.33-.09-.43-.24-.14-.24-.07-.54.17-.69l1.83-1.1c.24-.14.54-.07.69.17.14.24.07.54-.17.69l-1.83,1.1c-.08.05-.17.07-.26.07Z"/>
            <path d="m46.07,22.76c-.13,0-.26-.05-.35-.15l-.36-.36c-.19-.2-.19-.51,0-.71.2-.19.51-.19.71,0l.36.36c.19.2.19.51,0,.71-.1.1-.23.15-.35.15Z"/>
            <path d="m46.81,22.4c-.18,0-.36-.1-.45-.28l-.37-.74c-.12-.25-.02-.55.22-.67.25-.12.55-.02.67.22l.37.74c.12.25.02.55-.22.67-.07.04-.15.05-.22.05Z"/>
            <path d="m46.07,25.35c-.13,0-.26-.05-.35-.15-.2-.2-.2-.51,0-.71l.37-.37c.2-.2.51-.2.71,0s.2.51,0,.71l-.37.37c-.1.1-.23.15-.35.15Z"/>
            <path d="m46.44,26.45s-.08,0-.12-.01c-.27-.07-.43-.34-.36-.61l.37-1.47c.07-.27.33-.43.61-.36.27.07.43.34.36.61l-.37,1.47c-.06.23-.26.38-.49.38Z"/>
            <path d="m14.1,24.98c-.08,0-.15-.02-.22-.05l-1.47-.74c-.25-.12-.35-.42-.22-.67.12-.25.42-.35.67-.22l1.47.74c.25.12.35.42.22.67-.09.17-.26.28-.45.28Z"/>
            <path d="m12.63,22.76c-.17,0-.33-.09-.43-.24-.14-.24-.07-.54.17-.69l1.83-1.1c.24-.14.54-.07.69.17.14.24.07.54-.17.69l-1.83,1.1c-.08.05-.17.07-.26.07Z"/>
            <path d="m10.42,22.76c-.07,0-.15-.02-.22-.05l-.74-.36c-.25-.12-.35-.42-.23-.67.12-.25.42-.35.67-.23l.74.36c.25.12.35.42.23.67-.09.18-.26.28-.45.28Z"/>
            <path d="m10.79,22.4c-.18,0-.36-.1-.45-.28l-.37-.74c-.12-.25-.02-.55.22-.67.25-.12.55-.02.67.22l.37.74c.12.25.02.55-.22.67-.07.04-.15.05-.22.05Z"/>
            <path d="m10.05,25.35c-.13,0-.26-.05-.35-.15-.2-.2-.2-.51,0-.71l.37-.37c.2-.2.51-.2.71,0s.2.51,0,.71l-.37.37c-.1.1-.23.15-.35.15Z"/>
            <path d="m10.79,26.45c-.28,0-.5-.22-.5-.5v-1.47c0-.28.22-.5.5-.5s.5.22.5.5v1.47c0,.28-.22.5-.5.5Z"/>
            <path d="m62.61,8.38h-2.2c-.28,0-.5-.22-.5-.5s.22-.5.5-.5h2.2c.28,0,.5.22.5.5s-.22.5-.5.5Z"/>
            <path d="m68.49,13.73c-.28,0-.5-.22-.5-.5,0-2.67-2.17-4.85-4.83-4.85-.28,0-.5-.22-.5-.5s.22-.5.5-.5c3.21,0,5.83,2.62,5.83,5.85,0,.28-.22.5-.5.5Z"/>
            <path d="m68.49,65.19c-.28,0-.5-.22-.5-.5V13.41c0-.28.22-.5.5-.5s.5.22.5.5v51.28c0,.28-.22.5-.5.5Z"/>
            <path d="m63.9,69.61c-.28,0-.5-.22-.5-.5s.22-.5.5-.5c.39,0,.78-.05,1.14-.16,1.74-.5,2.95-2.12,2.95-3.95,0-.28.22-.5.5-.5s.5.22.5.5c0,2.27-1.51,4.29-3.67,4.91-.45.13-.93.2-1.42.2Z"/>
            <path d="m9.32,6.35c-.28,0-.5-.22-.5-.5,0-3.23,2.62-5.85,5.83-5.85.28,0,.5.22.5.5s-.22.5-.5.5c-2.66,0-4.83,2.18-4.83,4.85,0,.28-.22.5-.5.5Z"/>
            <path d="m54.89,1H14.83c-.28,0-.5-.22-.5-.5s.22-.5.5-.5h40.06c.28,0,.5.22.5.5s-.22.5-.5.5Z"/>
            <path d="m60.41,6.35c-.28,0-.5-.22-.5-.5,0-2.67-2.17-4.85-4.83-4.85-.28,0-.5-.22-.5-.5s.22-.5.5-.5c3.21,0,5.83,2.62,5.83,5.85,0,.28-.22.5-.5.5Z"/>
            <path d="m60.41,10.59c-.28,0-.5-.22-.5-.5v-4.06c0-.28.22-.5.5-.5s.5.22.5.5v4.06c0,.28-.22.5-.5.5Z"/>
            <path d="m55.08,16.12c-.28,0-.5-.22-.5-.5s.22-.5.5-.5c2.66,0,4.83-2.17,4.83-4.84,0-.28.22-.5.5-.5s.5.22.5.5c0,3.22-2.62,5.84-5.83,5.84Z"/>
            <path d="m54.89,16.12H9.32c-.28,0-.5-.22-.5-.5V6.03c0-.28.22-.5.5-.5s.5.22.5.5v9.09h45.07c.28,0,.5.22.5.5s-.22.5-.5.5Z"/>
          </g>
        </g>
        <g class="cls-17">
          <rect class="cls-6" x="9.68" y="15.61" width="44.11" height="12.58"/>
        </g>
        <g class="cls-9">
          <rect class="cls-3" x="10.05" y="172.38" width="44.11" height="12.58"/>
        </g>
        <g class="cls-14">
          <rect class="cls-4" x="41.07" y="15.62" width="12.58" height="169.69"/>
        </g>
      </g>
    </g>
  </g>
</svg>