<?xml version="1.0" encoding="UTF-8"?>
<svg xmlns="http://www.w3.org/2000/svg" xmlns:xlink="http://www.w3.org/1999/xlink" viewBox="0 0 234.918 171.763">
  <defs>
    <style>
      .cls-1 {
        fill: #d0e3fc;
      }

      .cls-2 {
        opacity: .7;
      }

      .cls-3 {
        fill: #d34262;
      }

      .cls-3, .cls-4, .cls-5, .cls-6, .cls-7, .cls-8, .cls-9, .cls-10 {
        fill-rule: evenodd;
      }

      .cls-4 {
        fill: #ed6e8a;
      }

      .cls-11, .cls-7 {
        fill: #ddd3cc;
        mix-blend-mode: multiply;
      }

      .cls-5 {
        fill: #7c0f2c;
      }

      .cls-12 {
        opacity: .8;
      }

      .cls-12, .cls-13 {
        fill: #d2e9f9;
        mix-blend-mode: screen;
      }

      .cls-14 {
        isolation: isolate;
      }

      .cls-6 {
        fill: #c43b58;
      }

      .cls-15 {
        fill: #5b5552;
      }

      .cls-8 {
        fill: #79a85e;
      }

      .cls-16 {
        fill: #01090c;
      }

      .cls-13 {
        opacity: .5;
      }

      .cls-17 {
        clip-path: url(#clippath);
      }

      .cls-9 {
        fill: #e5576f;
      }

      .cls-10 {
        fill: #6c9556;
      }

      .cls-18 {
        fill: none;
      }

      .cls-19 {
        fill: #3a4f19;
      }
    </style>
    <clipPath id="clippath">
      <path class="cls-18" d="m149.829,90.024c0,11.041-9.531,19.99-21.291,19.99s-21.285-8.949-21.285-19.99,9.531-19.991,21.285-19.991,21.291,8.95,21.291,19.991Z"/>
    </clipPath>
  </defs>
  <g class="cls-14">
    <g id="Layer_1" data-name="Layer 1">
      <path class="cls-7" d="m231.644,9.659h-54.441c-1.804,0-3.276,1.386-3.276,3.078v3.501c-2.8,2.111-4.598,5.348-4.598,8.984v89.069c0,3.635,1.798,6.871,4.598,8.983v.43c0,1.69,1.477,3.075,3.276,3.075h54.441c1.797,0,3.274-1.383,3.274-3.075V12.737c0-1.692-1.47-3.078-3.274-3.078Z"/>
      <path class="cls-7" d="m228.84,5.468h-54.446c-1.799,0-3.276,1.385-3.276,3.077v3.501c-2.8,2.112-4.596,5.349-4.596,8.984v89.07c0,3.634,1.795,6.87,4.596,8.982v.43c0,1.69,1.477,3.076,3.276,3.076h54.446c1.797,0,3.274-1.384,3.274-3.076V8.545c0-1.692-1.475-3.077-3.274-3.077Z"/>
      <g>
        <path class="cls-6" d="m203.009,105.667c0,6.364-5.495,11.522-12.27,11.522h-15.137c-6.775,0-12.268-5.158-12.268-11.522V16.598c0-6.364,5.493-11.522,12.268-11.522h15.137c6.775,0,12.27,5.158,12.27,11.522v89.069Z"/>
        <path class="cls-5" d="m201.877,103.13c0,6.001-5.176,10.865-11.569,10.865h-14.275c-6.389,0-11.569-4.864-11.569-10.865V19.135c0-6.002,5.181-10.866,11.569-10.866h14.275c6.393,0,11.569,4.864,11.569,10.866v83.995Z"/>
        <g>
          <path class="cls-5" d="m225.651,1.036c1.802,0,3.272,1.385,3.272,3.076v110.967c0,1.692-1.477,3.076-3.272,3.076h-54.444V1.036h54.444Z"/>
          <path class="cls-3" d="m209.923,60.702c1.8,0,3.274,1.385,3.274,3.077v36.529c0,1.692-1.479,3.077-3.274,3.077h-38.719c-1.791,0-3.272-1.391-3.272-3.077v-36.53c0-1.684,1.47-3.077,3.272-3.077h38.719Z"/>
          <path class="cls-6" d="m209.923,60.702c1.8,0,3.274,1.385,3.274,3.077v36.529c0,1.692-1.479,3.077-3.274,3.077h-3.276v-42.682h3.276Z"/>
          <path class="cls-4" d="m225.651,1.036c1.797,0,3.272,1.385,3.272,3.076v110.967c0,1.69-1.477,3.076-3.272,3.076h-6.825c-1.797,0-3.274-1.387-3.274-3.076V4.113c0-1.69,1.475-3.076,3.274-3.076h6.825Z"/>
          <path class="cls-6" d="m218.826,118.155c-1.797,0-3.274-1.387-3.274-3.076V4.113c0-1.69,1.475-3.076,3.274-3.076v117.119Z"/>
          <g>
            <path class="cls-9" d="m167.932,4.113c0-1.692,1.472-3.076,3.276-3.076h38.713c1.8,0,3.276,1.387,3.276,3.076v6.404c0,1.688-1.477,3.077-3.276,3.077h-38.713c-1.799,0-3.276-1.385-3.276-3.077v-6.404Z"/>
            <path class="cls-6" d="m206.646,1.036h3.274c1.8,0,3.276,1.387,3.276,3.076v6.404c0,1.688-1.477,3.077-3.276,3.077h-3.274V1.036Z"/>
          </g>
          <g>
            <path class="cls-9" d="m167.932,108.673c0-1.69,1.472-3.073,3.276-3.073h38.713c1.8,0,3.276,1.385,3.276,3.073v6.406c0,1.69-1.477,3.076-3.276,3.076h-38.713c-1.799,0-3.276-1.386-3.276-3.076v-6.406Z"/>
            <path class="cls-6" d="m206.646,105.599h3.274c1.8,0,3.276,1.387,3.276,3.075v6.408c0,1.688-1.477,3.074-3.276,3.074h-3.274v-12.557Z"/>
          </g>
          <path class="cls-3" d="m209.923,15.806c1.8,0,3.274,1.385,3.274,3.077v36.53c0,1.692-1.479,3.077-3.274,3.077h-38.719c-1.791-.001-3.272-1.393-3.272-3.078V18.883c0-1.684,1.47-3.077,3.272-3.077h38.719Z"/>
          <path class="cls-6" d="m209.923,15.806c1.8,0,3.274,1.385,3.274,3.077v36.53c0,1.692-1.479,3.077-3.274,3.077h-3.276V15.806h3.276Z"/>
        </g>
      </g>
      <path class="cls-7" d="m152.065,8.348h-60.417c-1.548,0-2.819,1.383-2.819,3.075v51.127c0,1.692,1.271,3.077,2.819,3.077h3.207c1.932,2.629,4.898,4.316,8.226,4.316h40.361c3.331,0,6.292-1.687,8.226-4.316h.396c1.55,0,2.817-1.387,2.817-3.077V11.422c0-1.688-1.267-3.075-2.817-3.075Z"/>
      <path class="cls-7" d="m146.695,4.062h-60.417c-1.548,0-2.819,1.383-2.819,3.075v51.127c0,1.692,1.271,3.077,2.819,3.077h3.207c1.932,2.629,4.898,4.316,8.226,4.316h40.361c3.331,0,6.292-1.687,8.226-4.316h.396c1.55,0,2.817-1.387,2.817-3.077V7.136c0-1.688-1.267-3.075-2.817-3.075Z"/>
      <g>
        <path class="cls-6" d="m134.851,25.626c5.831,0,10.554,5.159,10.554,11.521v14.215c0,6.362-4.723,11.521-10.554,11.521h-40.361c-5.829,0-10.554-5.159-10.554-11.521v-14.215c0-6.362,4.726-11.521,10.554-11.521h40.361Z"/>
        <path class="cls-5" d="m132.529,26.687c5.495,0,9.948,4.863,9.948,10.863v13.406c0,6.002-4.453,10.865-9.948,10.865h-35.715c-5.495,0-9.952-4.863-9.952-10.865v-13.406c0-6,4.457-10.863,9.952-10.863h35.715Z"/>
        <g>
          <path class="cls-5" d="m80.237,4.363c0-1.692,1.271-3.075,2.819-3.075h60.417c1.55,0,2.817,1.387,2.817,3.075v51.127h-66.053V4.363Z"/>
          <path class="cls-4" d="m80.237,4.363c0-1.69,1.271-3.075,2.819-3.075h60.417c1.55,0,2.817,1.387,2.817,3.075v6.405c0,1.688-1.271,3.077-2.817,3.077h-60.417c-1.548,0-2.819-1.385-2.819-3.077v-6.405Z"/>
          <path class="cls-6" d="m146.29,10.768c0,1.688-1.271,3.077-2.817,3.077h-60.417c-1.548,0-2.819-1.385-2.819-3.077h66.053Z"/>
          <g>
            <path class="cls-9" d="m83.056,58.567c-1.548,0-2.819-1.385-2.819-3.077V19.136c0-1.692,1.271-3.077,2.819-3.077h5.864c1.548,0,2.819,1.387,2.819,3.077v36.355c0,1.69-1.269,3.077-2.819,3.077h-5.864Z"/>
            <path class="cls-6" d="m80.237,22.21v-3.075c0-1.692,1.271-3.077,2.819-3.077h5.864c1.548,0,2.819,1.387,2.819,3.077v3.075h-11.502Z"/>
          </g>
          <g>
            <path class="cls-9" d="m137.605,58.567c-1.548,0-2.817-1.385-2.817-3.077V19.136c0-1.692,1.271-3.077,2.817-3.077h5.869c1.55,0,2.817,1.387,2.817,3.077v36.355c0,1.69-1.267,3.077-2.817,3.077h-5.869Z"/>
            <path class="cls-6" d="m134.788,22.21v-3.075c0-1.692,1.271-3.077,2.817-3.077h5.871c1.548,0,2.815,1.387,2.815,3.077v3.075h-11.502Z"/>
          </g>
          <path class="cls-3" d="m93.764,19.134c0-1.692,1.269-3.075,2.819-3.075h33.459c1.55,0,2.819,1.389,2.819,3.075v36.359c0,1.682-1.273,3.075-2.819,3.075h-33.459c-1.541,0-2.819-1.383-2.819-3.075V19.134Z"/>
          <path class="cls-6" d="m93.764,19.134c0-1.692,1.269-3.075,2.819-3.075h33.459c1.55,0,2.819,1.389,2.819,3.075v3.077h-39.097v-3.077Z"/>
        </g>
      </g>
      <path class="cls-7" d="m116.349,130.569l-2.305-2.165c.6-3.132-.182-6.278-2.527-8.481l-28.54-26.801c-2.345-2.203-5.697-2.939-9.032-2.376l-.317-.296c-1.093-1.029-3.035-.89-4.306.304l-33.676,31.624-4.822,4.529c-1.271,1.194-1.42,3.016-.323,4.045l42.723,40.119c1.093,1.028,3.035.894,4.306-.301l38.499-36.153c1.275-1.197,1.416-3.02.321-4.048Z"/>
      <path class="cls-7" d="m115.992,128.048l-2.305-2.165c.6-3.132-.184-6.278-2.528-8.481l-28.54-26.801c-2.345-2.203-5.697-2.939-9.03-2.376l-.317-.296c-1.097-1.029-3.037-.89-4.31.304l-33.675,31.624-4.822,4.529c-1.271,1.194-1.42,3.016-.323,4.045l42.723,40.119c1.095,1.028,3.033.894,4.306-.301l38.497-36.153c1.278-1.197,1.42-3.02.323-4.048Z"/>
      <g>
        <path class="cls-6" d="m54.474,113.08c-4.124-3.87-3.578-10.654,1.21-15.153l10.703-10.052c4.793-4.499,12.018-5.01,16.14-1.139l28.538,26.801c4.121,3.87,3.578,10.656-1.212,15.155l-10.703,10.052c-4.788,4.499-12.016,5.008-16.136,1.137l-28.54-26.802Z"/>
        <path class="cls-5" d="m56.914,113.873c-3.885-3.649-3.373-10.047,1.145-14.288l10.093-9.479c4.522-4.245,11.33-4.724,15.219-1.075l25.253,23.715c3.886,3.65,3.377,10.049-1.143,14.292l-10.095,9.479c-4.518,4.243-11.329,4.722-15.219,1.071l-25.253-23.715Z"/>
        <g>
          <path class="cls-5" d="m77.081,164.383c-1.271,1.196-3.213,1.33-4.306.301l-42.723-40.119c-1.097-1.029-.948-2.851.323-4.045l38.499-36.153,46.706,43.862-38.499,36.153Z"/>
          <path class="cls-4" d="m77.081,164.383c-1.271,1.195-3.213,1.33-4.306.301l-42.723-40.119c-1.097-1.029-.948-2.851.323-4.045l4.824-4.529c1.271-1.194,3.213-1.332,4.308-.305l42.721,40.12c1.093,1.028.95,2.851-.323,4.048l-4.824,4.529Z"/>
          <path class="cls-6" d="m35.199,115.992c1.271-1.194,3.213-1.332,4.308-.305l42.721,40.12c1.093,1.028.95,2.851-.323,4.048l-46.706-43.862Z"/>
          <g>
            <path class="cls-9" d="m115.902,124.183c1.093,1.028.95,2.851-.323,4.048l-27.374,25.707c-1.273,1.196-3.215,1.331-4.31.303l-4.147-3.895c-1.097-1.027-.95-2.851.321-4.047l27.376-25.707c1.271-1.195,3.213-1.335,4.308-.304l4.149,3.895Z"/>
            <path class="cls-6" d="m90.521,151.763l-2.316,2.175c-1.273,1.196-3.215,1.331-4.31.303l-4.147-3.895c-1.097-1.027-.95-2.851.321-4.047l2.318-2.174,8.134,7.638Z"/>
          </g>
          <g>
            <path class="cls-9" d="m77.33,87.959c1.093,1.028.95,2.85-.327,4.047l-27.372,25.707c-1.275,1.196-3.218,1.332-4.31.304l-4.147-3.895c-1.097-1.029-.948-2.851.325-4.046l27.374-25.708c1.271-1.195,3.213-1.334,4.306-.304l4.151,3.895Z"/>
            <path class="cls-6" d="m51.947,115.538l-2.316,2.175c-1.275,1.196-3.218,1.332-4.31.304l-4.149-3.897c-1.095-1.027-.946-2.849.327-4.044l2.314-2.175,8.134,7.636Z"/>
          </g>
          <path class="cls-3" d="m78.639,144.955c-1.275,1.196-3.213,1.331-4.308.302l-23.659-22.218c-1.099-1.029-.948-2.854.319-4.046l27.38-25.709c1.267-1.19,3.213-1.329,4.308-.302l23.657,22.216c1.091,1.025.954,2.85-.323,4.047l-27.374,25.71Z"/>
          <path class="cls-6" d="m78.639,144.955c-1.275,1.196-3.213,1.331-4.308.302l-23.659-22.218c-1.099-1.029-.948-2.854.319-4.046l2.32-2.176,27.644,25.961-2.316,2.176Z"/>
        </g>
      </g>
      <g>
        <path class="cls-11" d="m152.782,91.179c0,11.04-9.531,19.991-21.291,19.991s-21.285-8.95-21.285-19.991,9.531-19.99,21.285-19.99,21.291,8.948,21.291,19.99Z"/>
        <path class="cls-11" d="m155.041,94.141c0,11.04-9.533,19.99-21.285,19.99s-21.291-8.95-21.291-19.99,9.531-19.991,21.291-19.991,21.285,8.949,21.285,19.991Z"/>
        <path class="cls-15" d="m131.247,73.846c0,.831-.717,1.503-1.6,1.503s-1.598-.672-1.598-1.503.715-1.501,1.598-1.501,1.6.672,1.6,1.501Z"/>
        <path class="cls-15" d="m147.733,88.869c0,.829-.715,1.501-1.598,1.501s-1.598-.672-1.598-1.501.713-1.503,1.598-1.503,1.598.672,1.598,1.503Z"/>
        <path class="cls-15" d="m130.507,106.548c0,.83-.715,1.502-1.601,1.502-.879,0-1.594-.672-1.594-1.502s.715-1.502,1.594-1.502c.885,0,1.601.672,1.601,1.502Z"/>
        <path class="cls-15" d="m112.177,89.216c0,.829-.722,1.501-1.602,1.501s-1.6-.672-1.6-1.501.717-1.503,1.6-1.503,1.602.672,1.602,1.503Z"/>
        <g class="cls-17">
          <g class="cls-2">
            <rect class="cls-1" x="106.422" y="69.59" width="44.021" height="41.341"/>
            <path class="cls-16" d="m150.6,111.083l-44.342-.003v-41.638h44.342v41.641Zm-44.021-.302l43.705.003v-41.042h-43.705v41.039Z"/>
          </g>
          <g>
            <polygon class="cls-13" points="140.581 69.861 144.583 70.025 114.784 110.199 110.571 110.033 140.581 69.861"/>
            <polygon class="cls-12" points="146.418 69.966 146.901 70.027 117.102 110.201 116.278 110.209 146.418 69.966"/>
            <polygon class="cls-12" points="137.273 69.959 137.754 70.017 107.955 110.193 107.127 110.201 137.273 69.959"/>
          </g>
        </g>
      </g>
      <g>
        <path class="cls-7" d="m50.831,30.314c.512-.179.94-.371,1.248-.566-.163-.203-.405-.428-.682-.661.113-.645-.09-1.204-.589-1.604,1.263-.842,1.248-2.428-.476-4.143-1.594-.904-1.064-2.22-.778-3.243.048-.1.107-.206.141-.296-.017-.005-.042-.007-.061-.012.157-.723.038-1.238-1.412-1.224.017-1.935-.795-3.068-2.001-3.231.052-.108.111-.221.147-.319-.107-.028-.243-.047-.373-.069,1.208-1.93-2.143-1.94-2.808-3.887.034-3.339-3.878-2.237-5.086-1.978-1.346-1.195-2.63-1.533-3.572-1.153-.573-1.782-2.347-2.101-4.294-.372-.055-.048-.105-.075-.162-.118-1.925.059-2.246-2.294-3.855-1.383-.199-.236-.392-.431-.562-.553-.122.167-.239.413-.35.7-2.215-1.582-3.889,1.005-4.172,2.007-1.756-.015-2.8.619-3.018,1.559-1.414,1.828-3.56-.099-3.534,2.447-1.886-.016-2.968.711-3.062,1.771-1.242-.025-2.108,1.018-2.087,2.894-.543-.005-.893.079-1.128.22-.409.106-.761.232-.988.364.126.169.336.365.589.569.05.933.634,2.224-.34,3.073-1.592,1.586-1.544,3.045-.277,3.762.073.5.38,1.054.982,1.613-.547.563-.984,1.152-1.135,1.553.044.013.105.021.157.031-.128.692.214,1.281.998,1.615-.405.883-.046,2.088,1.227,3.355-2.54,2.523-1.451,4.809,2.108,4.777-.036,3.296,2.337,4.32,4.979,2.057-.776,1.408.109,2.605,2.414,2.666.078,2.667,1.993,3.352,3.906,1.52,1.877,1.799,3.746,1.159,3.891-1.389.155.034.35.037.526.056.187.317.376.581.56.802.317,1.801,1.892,2.216,3.62.684,1.949,1.728,3.713.988,3.685-1.434.371.004.694-.038.988-.099.069,2.15,3.039,1.595,3.492,1.188,1.85,1.642,3.832-.703,3.503-1.364-1.37-3.501,3.203-1.552,1.453-3.293.212-.209.382-.416.52-.617.944.434,1.825.738,2.448.813.032-.422-.036-1.001-.17-1.645.573-.456.927-1.3.915-2.497-1.661-2.368,4.107-1.99,1.863-4.221.248-.246.445-.489.613-.727Z"/>
        <path class="cls-7" d="m46.536,27.121c.51-.179.94-.371,1.248-.566-.163-.203-.407-.428-.682-.661.113-.645-.09-1.204-.589-1.604,1.265-.842,1.248-2.428-.478-4.143-1.592-.904-1.061-2.22-.774-3.243.046-.1.105-.206.139-.296-.019-.005-.044-.007-.061-.012.157-.723.038-1.238-1.412-1.224.017-1.935-.795-3.068-2.001-3.231.052-.108.111-.221.147-.319-.107-.028-.243-.047-.373-.069,1.208-1.93-2.143-1.94-2.808-3.887.034-3.339-3.878-2.237-5.086-1.978-1.346-1.195-2.63-1.533-3.572-1.153-.573-1.782-2.347-2.101-4.294-.372-.055-.048-.105-.075-.162-.118-1.925.059-2.246-2.294-3.855-1.383-.199-.236-.392-.431-.562-.552-.122.167-.239.413-.35.7-2.215-1.582-3.889,1.005-4.172,2.007-1.756-.015-2.8.619-3.018,1.559-1.414,1.828-3.56-.099-3.534,2.447-1.886-.016-2.968.711-3.062,1.771-1.242-.025-2.108,1.018-2.087,2.894-.543-.005-.893.079-1.128.22-.409.106-.761.232-.988.364.126.169.336.365.589.569.05.933.634,2.224-.34,3.073-1.592,1.586-1.544,3.045-.277,3.762.073.5.38,1.054.982,1.613-.547.563-.984,1.152-1.135,1.553.044.013.105.021.157.031-.128.692.214,1.281.998,1.615-.405.883-.046,2.088,1.227,3.355-2.54,2.523-1.451,4.809,2.108,4.776-.036,3.296,2.337,4.321,4.979,2.058-.776,1.408.109,2.605,2.414,2.666.078,2.667,1.993,3.352,3.906,1.52,1.877,1.799,3.746,1.159,3.891-1.389.155.034.35.036.526.056.187.317.376.581.56.802.317,1.801,1.892,2.216,3.62.684,1.949,1.728,3.713.988,3.685-1.434.371.004.694-.038.988-.099.069,2.15,3.039,1.595,3.492,1.188,1.85,1.642,3.832-.703,3.503-1.364-1.37-3.501,3.203-1.552,1.453-3.293.212-.209.382-.416.52-.617.944.434,1.825.738,2.448.813.032-.423-.036-1.001-.17-1.645.573-.456.927-1.3.915-2.497-1.661-2.368,4.107-1.99,1.863-4.221.248-.246.443-.489.613-.727Z"/>
        <g>
          <path class="cls-19" d="m43.979,17.839c-2.97-1.684,1.447-4.809-2.11-4.776.021-2.188-1.019-3.355-2.49-3.25,1.892-2.307-1.842-2.192-2.546-4.256.036-3.339-3.878-2.237-5.086-1.978-1.346-1.196-2.63-1.534-3.57-1.153-.573-1.782-2.347-2.101-4.293-.372-.055-.048-.105-.075-.162-.118-2.142.066-2.282-2.889-4.436-.978-2.378-2.112-4.208.698-4.503,1.75-1.756-.015-2.8.619-3.018,1.559-1.416,1.828-3.559-.098-3.534,2.447-1.886-.016-2.968.711-3.064,1.771-1.24-.025-2.106,1.018-2.085,2.895-3.15-.028-.193,2.762-1.867,4.226-1.594,1.586-1.546,3.045-.277,3.762.073.506.382,1.067.996,1.633-1.424,1.309-1.33,2.612.004,3.18-.405.883-.046,2.088,1.227,3.355-2.538,2.523-1.451,4.809,2.108,4.777-.036,3.296,2.336,4.321,4.981,2.057-.776,1.408.109,2.605,2.412,2.666.08,2.667,1.995,3.351,3.906,1.52,1.879,1.799,3.748,1.159,3.891-1.389.304.066.636.112,1.021.108-.025,2.422,1.739,3.161,3.687,1.434,1.947,1.727,3.712.988,3.683-1.434.373.004.696-.037.99-.099.069,2.15,3.039,1.595,3.492,1.188,1.85,1.642,3.83-.703,3.503-1.364-1.372-3.501,3.201-1.552,1.454-3.293.422-.42.69-.827.833-1.208,1.649.566,2.903-.481,2.878-2.736-1.659-2.368,4.107-1.991,1.865-4.221,1.451-1.444,1.544-2.789.587-3.558,1.265-.842,1.248-2.428-.476-4.143Z"/>
          <path class="cls-8" d="m.748,17.816c2.485,1.451,12.56,2.519,9.686-1.856.822-5.08-8.004-.395-9.686,1.856Z"/>
          <path class="cls-10" d="m2.743,25.101c2.486,1.451,12.557,2.518,9.686-1.857.82-5.079-8.002-.395-9.686,1.857Z"/>
          <path class="cls-8" d="m10.466,34.572c2.915-.255,11.624-5.127,6.519-6.981-2.618-4.511-6.628,4.233-6.519,6.981Z"/>
          <path class="cls-8" d="m14.455,23.75c2.913-.255,11.624-5.127,6.519-6.981-2.618-4.511-6.628,4.233-6.519,6.981Z"/>
          <path class="cls-8" d="m20.668,13.377c.489,1.371,4.178,4.977,4.583,2.303,2.146-1.795-3.096-2.683-4.583-2.303Z"/>
          <path class="cls-8" d="m24.051,2.574c-.73,1.272-1.003,6.268,1.351,4.712,2.863.239-.038-3.956-1.351-4.712Z"/>
          <path class="cls-8" d="m11.529,4.551c-.732,1.272-1.003,6.269,1.351,4.713,2.863.239-.038-3.956-1.351-4.713Z"/>
          <path class="cls-8" d="m12.515,21.045c1.481-.4,5.468-3.715,2.639-4.203-1.823-2.088-2.982,2.795-2.639,4.203Z"/>
          <path class="cls-8" d="m19.556,27.424c1.038-1.068,2.586-5.855-.094-4.878-2.718-.882-.986,3.848.094,4.878Z"/>
          <path class="cls-8" d="m26.205,38.039c1.038-1.069,2.586-5.855-.097-4.878-2.716-.882-.984,3.847.097,4.878Z"/>
          <path class="cls-8" d="m15.015,38.455c1.493-.353,5.598-3.544,2.787-4.118-1.749-2.144-3.081,2.7-2.787,4.118Z"/>
          <path class="cls-8" d="m4.622,30.581c1.474.41,6.737-.374,4.629-2.211-.344-2.684-4.115.85-4.629,2.211Z"/>
          <path class="cls-8" d="m.782,22.533c1.475.41,6.737-.374,4.629-2.211-.342-2.684-4.115.85-4.629,2.211Z"/>
          <path class="cls-8" d="m.962,11.963c.883,1.184,5.52,3.649,5.09.977,1.51-2.3-3.786-1.741-5.09-.977Z"/>
          <path class="cls-8" d="m19.304,0c-.866,1.194-1.678,6.139.828,4.815,2.825.51.392-3.941-.828-4.815Z"/>
          <path class="cls-10" d="m21.714,38.228c2.06-1.952,5.409-10.939.227-9.281-5.088-1.882-2.19,7.241-.227,9.281Z"/>
          <path class="cls-8" d="m34.609,36.608c.214-2.74-3.455-11.616-6.248-7.195-5.172,1.675,3.341,6.841,6.248,7.195Z"/>
          <path class="cls-8" d="m29.29,28.561c.216-2.74-3.455-11.616-6.246-7.194-5.172,1.674,3.339,6.84,6.246,7.194Z"/>
          <path class="cls-10" d="m41.258,33.903c.214-2.74-3.455-11.616-6.246-7.195-5.174,1.675,3.339,6.841,6.246,7.195Z"/>
          <path class="cls-8" d="m45.726,24.247c-1.766-2.188-10.772-6.566-9.753-1.516-2.697,4.468,7.326,3.054,9.753,1.516Z"/>
          <path class="cls-10" d="m43.341,14.299c-2.817-.746-12.811.862-8.755,4.314.717,5.092,7.807-1.712,8.755-4.314Z"/>
          <path class="cls-10" d="m34.957,22.614c-.636-2.683-6.88-10.186-8.193-5.195-4.434,3.006,5.302,5.643,8.193,5.195Z"/>
          <path class="cls-8" d="m40.017,9.513c-2.815-.746-12.811.862-8.755,4.314.717,5.091,7.805-1.713,8.755-4.314Z"/>
          <path class="cls-10" d="m6.481,9.631c1.04,2.566,8.371,9.143,8.906,4.028,3.929-3.578-6.114-4.864-8.906-4.028Z"/>
          <path class="cls-8" d="m15.074,4.418c-.065,2.748,4.082,11.434,6.63,6.886,5.074-1.921-3.706-6.671-6.63-6.886Z"/>
          <path class="cls-10" d="m32.344,6.371c-2.928.043-12.014,4.269-7.075,6.486,2.238,4.688,6.955-3.736,7.075-6.486Z"/>
        </g>
      </g>
    </g>
  </g>
</svg>