<?xml version="1.0" encoding="UTF-8"?>
<svg xmlns="http://www.w3.org/2000/svg" xmlns:xlink="http://www.w3.org/1999/xlink" viewBox="0 0 541.27 264.57">
  <defs>
    <style>
      .cls-1 {
        fill: url(#_Áåçûìÿííûé_ãðàäèåíò_271-40);
      }

      .cls-1, .cls-2, .cls-3, .cls-4, .cls-5, .cls-6, .cls-7, .cls-8, .cls-9, .cls-10, .cls-11, .cls-12, .cls-13, .cls-14, .cls-15, .cls-16, .cls-17, .cls-18, .cls-19, .cls-20, .cls-21, .cls-22, .cls-23, .cls-24, .cls-25, .cls-26, .cls-27, .cls-28, .cls-29, .cls-30, .cls-31, .cls-32, .cls-33, .cls-34, .cls-35, .cls-36, .cls-37, .cls-38, .cls-39, .cls-40, .cls-41, .cls-42, .cls-43, .cls-44, .cls-45, .cls-46, .cls-47, .cls-48, .cls-49, .cls-50, .cls-51 {
        mix-blend-mode: multiply;
      }

      .cls-1, .cls-2, .cls-3, .cls-4, .cls-5, .cls-6, .cls-10, .cls-11, .cls-12, .cls-13, .cls-14, .cls-15, .cls-16, .cls-17, .cls-19, .cls-20, .cls-21, .cls-22, .cls-23, .cls-24, .cls-25, .cls-26, .cls-28, .cls-29, .cls-33, .cls-34, .cls-35, .cls-36, .cls-39, .cls-40, .cls-41, .cls-42, .cls-44, .cls-45, .cls-48, .cls-49, .cls-51 {
        opacity: .4;
      }

      .cls-2 {
        fill: url(#_Áåçûìÿííûé_ãðàäèåíò_271-16);
      }

      .cls-52 {
        fill: url(#_Áåçûìÿííûé_ãðàäèåíò_67-15);
      }

      .cls-53 {
        fill: url(#_Áåçûìÿííûé_ãðàäèåíò_67-10);
      }

      .cls-54 {
        fill: url(#_Áåçûìÿííûé_ãðàäèåíò_67-20);
      }

      .cls-3 {
        fill: url(#_Áåçûìÿííûé_ãðàäèåíò_271-32);
      }

      .cls-4 {
        fill: url(#_Áåçûìÿííûé_ãðàäèåíò_271-31);
      }

      .cls-55 {
        fill: url(#_Áåçûìÿííûé_ãðàäèåíò_42-2);
      }

      .cls-5 {
        fill: url(#_Áåçûìÿííûé_ãðàäèåíò_271-7);
      }

      .cls-6 {
        fill: url(#_Áåçûìÿííûé_ãðàäèåíò_271-21);
      }

      .cls-7 {
        fill: url(#_Áåçûìÿííûé_ãðàäèåíò_271-19);
      }

      .cls-7, .cls-31, .cls-38 {
        opacity: .6;
      }

      .cls-8 {
        fill: url(#_Áåçûìÿííûé_ãðàäèåíò_35-6);
      }

      .cls-8, .cls-9, .cls-27, .cls-30, .cls-46 {
        opacity: .1;
      }

      .cls-9 {
        fill: url(#_Áåçûìÿííûé_ãðàäèåíò_35-10);
      }

      .cls-10 {
        fill: url(#_Áåçûìÿííûé_ãðàäèåíò_271-34);
      }

      .cls-56 {
        fill: url(#_Áåçûìÿííûé_ãðàäèåíò_67-9);
      }

      .cls-57 {
        fill: url(#_Áåçûìÿííûé_ãðàäèåíò_67-22);
      }

      .cls-11 {
        fill: url(#_Áåçûìÿííûé_ãðàäèåíò_271-30);
      }

      .cls-58 {
        fill: url(#_Áåçûìÿííûé_ãðàäèåíò_42);
      }

      .cls-59 {
        fill: url(#_Áåçûìÿííûé_ãðàäèåíò_67-18);
      }

      .cls-12 {
        fill: url(#_Áåçûìÿííûé_ãðàäèåíò_271-9);
      }

      .cls-60 {
        fill: url(#_Áåçûìÿííûé_ãðàäèåíò_52);
      }

      .cls-60, .cls-61, .cls-62, .cls-63 {
        mix-blend-mode: screen;
        opacity: .42;
      }

      .cls-61 {
        fill: url(#_Áåçûìÿííûé_ãðàäèåíò_52-3);
      }

      .cls-13 {
        fill: url(#_Áåçûìÿííûé_ãðàäèåíò_271-12);
      }

      .cls-14 {
        fill: url(#_Áåçûìÿííûé_ãðàäèåíò_271-5);
      }

      .cls-15 {
        fill: url(#_Áåçûìÿííûé_ãðàäèåíò_271-28);
      }

      .cls-16 {
        fill: url(#_Áåçûìÿííûé_ãðàäèåíò_271-36);
      }

      .cls-17 {
        fill: url(#_Áåçûìÿííûé_ãðàäèåíò_271-39);
      }

      .cls-64 {
        fill: #39274c;
      }

      .cls-18 {
        fill: url(#_Áåçûìÿííûé_ãðàäèåíò_35-2);
      }

      .cls-18, .cls-32, .cls-37, .cls-43, .cls-47 {
        opacity: .15;
      }

      .cls-65 {
        fill: url(#_Áåçûìÿííûé_ãðàäèåíò_67-4);
      }

      .cls-66 {
        fill: url(#_Áåçûìÿííûé_ãðàäèåíò_215-2);
      }

      .cls-67 {
        isolation: isolate;
      }

      .cls-19 {
        fill: url(#_Áåçûìÿííûé_ãðàäèåíò_271-10);
      }

      .cls-68 {
        fill: url(#_Áåçûìÿííûé_ãðàäèåíò_67-17);
      }

      .cls-69 {
        fill: url(#_Áåçûìÿííûé_ãðàäèåíò_42-4);
      }

      .cls-20 {
        fill: url(#_Áåçûìÿííûé_ãðàäèåíò_271);
      }

      .cls-21 {
        fill: url(#_Áåçûìÿííûé_ãðàäèåíò_271-22);
      }

      .cls-22 {
        fill: url(#_Áåçûìÿííûé_ãðàäèåíò_271-11);
      }

      .cls-23 {
        fill: url(#_Áåçûìÿííûé_ãðàäèåíò_271-20);
      }

      .cls-70 {
        fill: url(#_Áåçûìÿííûé_ãðàäèåíò_9-2);
      }

      .cls-24 {
        fill: url(#_Áåçûìÿííûé_ãðàäèåíò_271-37);
      }

      .cls-71 {
        fill: url(#_Áåçûìÿííûé_ãðàäèåíò_67-5);
      }

      .cls-25 {
        fill: url(#_Áåçûìÿííûé_ãðàäèåíò_271-33);
      }

      .cls-26 {
        fill: url(#_Áåçûìÿííûé_ãðàäèåíò_271-2);
      }

      .cls-72 {
        fill: url(#_Áåçûìÿííûé_ãðàäèåíò_67-3);
      }

      .cls-73 {
        fill: #5d5b89;
      }

      .cls-27 {
        fill: url(#_Áåçûìÿííûé_ãðàäèåíò_35-8);
      }

      .cls-74 {
        fill: url(#_Áåçûìÿííûé_ãðàäèåíò_27);
      }

      .cls-28 {
        fill: url(#_Áåçûìÿííûé_ãðàäèåíò_271-35);
      }

      .cls-75 {
        fill: url(#_Áåçûìÿííûé_ãðàäèåíò_67-19);
      }

      .cls-76 {
        fill: url(#_Áåçûìÿííûé_ãðàäèåíò_9);
      }

      .cls-77 {
        fill: #937eaa;
      }

      .cls-29 {
        fill: url(#_Áåçûìÿííûé_ãðàäèåíò_271-23);
      }

      .cls-78 {
        fill: #35273f;
      }

      .cls-30 {
        fill: url(#_Áåçûìÿííûé_ãðàäèåíò_35-7);
      }

      .cls-79 {
        fill: #76608c;
      }

      .cls-31 {
        fill: url(#_Áåçûìÿííûé_ãðàäèåíò_271-15);
      }

      .cls-80 {
        fill: url(#_Áåçûìÿííûé_ãðàäèåíò_67-11);
      }

      .cls-81 {
        fill: url(#_Áåçûìÿííûé_ãðàäèåíò_27-2);
      }

      .cls-32 {
        fill: url(#_Áåçûìÿííûé_ãðàäèåíò_35-3);
      }

      .cls-82 {
        fill: url(#_Áåçûìÿííûé_ãðàäèåíò_42-3);
      }

      .cls-33 {
        fill: url(#_Áåçûìÿííûé_ãðàäèåíò_271-24);
      }

      .cls-83 {
        fill: url(#_Áåçûìÿííûé_ãðàäèåíò_215-3);
      }

      .cls-84 {
        fill: #f9dfa5;
      }

      .cls-34 {
        fill: url(#_Áåçûìÿííûé_ãðàäèåíò_271-4);
      }

      .cls-85 {
        fill: #c1856b;
      }

      .cls-35 {
        fill: url(#_Áåçûìÿííûé_ãðàäèåíò_271-14);
      }

      .cls-86 {
        fill: url(#_Áåçûìÿííûé_ãðàäèåíò_215);
      }

      .cls-87 {
        fill: #a9a0a3;
      }

      .cls-88 {
        fill: url(#_Áåçûìÿííûé_ãðàäèåíò_67-8);
      }

      .cls-89 {
        fill: url(#_Áåçûìÿííûé_ãðàäèåíò_5-3);
      }

      .cls-36 {
        fill: url(#_Áåçûìÿííûé_ãðàäèåíò_271-8);
      }

      .cls-90 {
        fill: url(#_Áåçûìÿííûé_ãðàäèåíò_67-21);
      }

      .cls-37 {
        fill: url(#_Áåçûìÿííûé_ãðàäèåíò_35-5);
      }

      .cls-38 {
        fill: #88546d;
      }

      .cls-39 {
        fill: url(#_Áåçûìÿííûé_ãðàäèåíò_271-26);
      }

      .cls-91 {
        fill: url(#_Áåçûìÿííûé_ãðàäèåíò_42-5);
      }

      .cls-40 {
        fill: url(#_Áåçûìÿííûé_ãðàäèåíò_271-27);
      }

      .cls-92 {
        fill: url(#_Áåçûìÿííûé_ãðàäèåíò_5);
      }

      .cls-41 {
        fill: url(#_Áåçûìÿííûé_ãðàäèåíò_271-17);
      }

      .cls-93 {
        fill: #777493;
      }

      .cls-42 {
        fill: url(#_Áåçûìÿííûé_ãðàäèåíò_271-25);
      }

      .cls-43 {
        fill: url(#_Áåçûìÿííûé_ãðàäèåíò_35-4);
      }

      .cls-94 {
        fill: url(#_Áåçûìÿííûé_ãðàäèåíò_67-7);
      }

      .cls-95 {
        fill: url(#_Áåçûìÿííûé_ãðàäèåíò_67);
      }

      .cls-62 {
        fill: url(#_Áåçûìÿííûé_ãðàäèåíò_52-4);
      }

      .cls-44 {
        fill: url(#_Áåçûìÿííûé_ãðàäèåíò_271-6);
      }

      .cls-63 {
        fill: url(#_Áåçûìÿííûé_ãðàäèåíò_52-2);
      }

      .cls-45 {
        fill: url(#_Áåçûìÿííûé_ãðàäèåíò_271-18);
      }

      .cls-96 {
        fill: url(#_Áåçûìÿííûé_ãðàäèåíò_5-2);
      }

      .cls-97 {
        fill: url(#_Áåçûìÿííûé_ãðàäèåíò_67-12);
      }

      .cls-98 {
        fill: url(#_Áåçûìÿííûé_ãðàäèåíò_67-13);
      }

      .cls-46 {
        fill: url(#_Áåçûìÿííûé_ãðàäèåíò_35-9);
      }

      .cls-47 {
        fill: url(#_Áåçûìÿííûé_ãðàäèåíò_35);
      }

      .cls-99 {
        fill: url(#_Áåçûìÿííûé_ãðàäèåíò_67-23);
      }

      .cls-48 {
        fill: url(#_Áåçûìÿííûé_ãðàäèåíò_271-13);
      }

      .cls-49 {
        fill: url(#_Áåçûìÿííûé_ãðàäèåíò_271-38);
      }

      .cls-100 {
        fill: url(#_Áåçûìÿííûé_ãðàäèåíò_67-2);
      }

      .cls-101 {
        fill: #394c0f;
      }

      .cls-102 {
        fill: url(#_Áåçûìÿííûé_ãðàäèåíò_67-16);
      }

      .cls-103 {
        fill: url(#_Áåçûìÿííûé_ãðàäèåíò_67-14);
      }

      .cls-50 {
        fill: url(#_Áåçûìÿííûé_ãðàäèåíò_271-3);
        opacity: .5;
      }

      .cls-104 {
        fill: url(#_Áåçûìÿííûé_ãðàäèåíò_67-24);
      }

      .cls-105 {
        fill: url(#_Áåçûìÿííûé_ãðàäèåíò_67-6);
      }

      .cls-51 {
        fill: url(#_Áåçûìÿííûé_ãðàäèåíò_271-29);
      }

      .cls-106 {
        fill: #3f2f4c;
      }
    </style>
    <radialGradient id="_Áåçûìÿííûé_ãðàäèåíò_215" data-name="Áåçûìÿííûé ãðàäèåíò 215" cx="304.22" cy="192.81" fx="304.22" fy="192.81" r="120.15" gradientUnits="userSpaceOnUse">
      <stop offset=".03" stop-color="#a9a0a3"/>
      <stop offset=".99" stop-color="#8c88a3"/>
    </radialGradient>
    <radialGradient id="_Áåçûìÿííûé_ãðàäèåíò_215-2" data-name="Áåçûìÿííûé ãðàäèåíò 215" cx="253.45" cy="174.85" fx="253.45" fy="174.85" r="67.09" xlink:href="#_Áåçûìÿííûé_ãðàäèåíò_215"/>
    <linearGradient id="_Áåçûìÿííûé_ãðàäèåíò_271" data-name="Áåçûìÿííûé ãðàäèåíò 271" x1="157.83" y1="263.96" x2="381.38" y2="87.02" gradientUnits="userSpaceOnUse">
      <stop offset="0" stop-color="#fff"/>
      <stop offset=".98" stop-color="#aa0038"/>
    </linearGradient>
    <linearGradient id="_Áåçûìÿííûé_ãðàäèåíò_271-2" data-name="Áåçûìÿííûé ãðàäèåíò 271" x1="239.69" y1="224.55" x2="346.84" y2="139.74" xlink:href="#_Áåçûìÿííûé_ãðàäèåíò_271"/>
    <radialGradient id="_Áåçûìÿííûé_ãðàäèåíò_215-3" data-name="Áåçûìÿííûé ãðàäèåíò 215" cx="-1111.74" cy="161.29" fx="-1111.74" fy="161.29" r="67.1" gradientTransform="translate(-776.11 -7.78) rotate(-178.99) scale(1 -1)" xlink:href="#_Áåçûìÿííûé_ãðàäèåíò_215"/>
    <linearGradient id="_Áåçûìÿííûé_ãðàäèåíò_271-3" data-name="Áåçûìÿííûé ãðàäèåíò 271" x1="-1207.37" y1="250.4" x2="-983.8" y2="73.46" gradientTransform="translate(-776.11 -7.78) rotate(-178.99) scale(1 -1)" xlink:href="#_Áåçûìÿííûé_ãðàäèåíò_271"/>
    <linearGradient id="_Áåçûìÿííûé_ãðàäèåíò_271-4" data-name="Áåçûìÿííûé ãðàäèåíò 271" x1="-1125.5" y1="210.99" x2="-1018.35" y2="126.18" gradientTransform="translate(-776.11 -7.78) rotate(-178.99) scale(1 -1)" xlink:href="#_Áåçûìÿííûé_ãðàäèåíò_271"/>
    <linearGradient id="_Áåçûìÿííûé_ãðàäèåíò_271-5" data-name="Áåçûìÿííûé ãðàäèåíò 271" x1="325.71" y1="179.2" x2="362.81" y2="233.18" xlink:href="#_Áåçûìÿííûé_ãðàäèåíò_271"/>
    <linearGradient id="_Áåçûìÿííûé_ãðàäèåíò_271-6" data-name="Áåçûìÿííûé ãðàäèåíò 271" x1="271.16" y1="161.24" x2="227.79" y2="238.89" xlink:href="#_Áåçûìÿííûé_ãðàäèåíò_271"/>
    <linearGradient id="_Áåçûìÿííûé_ãðàäèåíò_271-7" data-name="Áåçûìÿííûé ãðàäèåíò 271" x1="186.61" y1="232.47" x2="199.9" y2="232.47" xlink:href="#_Áåçûìÿííûé_ãðàäèåíò_271"/>
    <linearGradient id="_Áåçûìÿííûé_ãðàäèåíò_271-8" data-name="Áåçûìÿííûé ãðàäèåíò 271" x1="-873" y1="232.72" x2="-862.62" y2="232.72" gradientTransform="translate(-472.76) rotate(-180) scale(1 -1)" xlink:href="#_Áåçûìÿííûé_ãðàäèåíò_271"/>
    <radialGradient id="_Áåçûìÿííûé_ãðàäèåíò_42" data-name="Áåçûìÿííûé ãðàäèåíò 42" cx="656.18" cy="-358.08" fx="656.18" fy="-358.08" r="31.52" gradientTransform="translate(784.61 -317.16) rotate(95.03) scale(.83 -1)" gradientUnits="userSpaceOnUse">
      <stop offset="0" stop-color="#ffb500"/>
      <stop offset="1" stop-color="#ffb72d"/>
    </radialGradient>
    <linearGradient id="_Áåçûìÿííûé_ãðàäèåíò_271-9" data-name="Áåçûìÿííûé ãðàäèåíò 271" x1="-941.56" y1="191.91" x2="-917.01" y2="193.41" gradientTransform="translate(-550.72) rotate(-180) scale(1 -1)" xlink:href="#_Áåçûìÿííûé_ãðàäèåíò_271"/>
    <linearGradient id="_Áåçûìÿííûé_ãðàäèåíò_271-10" data-name="Áåçûìÿííûé ãðàäèåíò 271" x1="690.02" y1="-338.5" x2="700.99" y2="-366.56" gradientTransform="translate(784.61 -317.16) rotate(95.03) scale(.83 -1)" xlink:href="#_Áåçûìÿííûé_ãðàäèåíò_271"/>
    <radialGradient id="_Áåçûìÿííûé_ãðàäèåíò_42-2" data-name="Áåçûìÿííûé ãðàäèåíò 42" cx="774.73" cy="-1492.04" fx="774.73" fy="-1492.04" r="31.52" gradientTransform="translate(-1335.32 -317.16) rotate(84.97) scale(.83 1)" xlink:href="#_Áåçûìÿííûé_ãðàäèåíò_42"/>
    <linearGradient id="_Áåçûìÿííûé_ãðàäèåíò_271-11" data-name="Áåçûìÿííûé ãðàäèåíò 271" x1="196.66" y1="190.13" x2="221.22" y2="191.63" xlink:href="#_Áåçûìÿííûé_ãðàäèåíò_271"/>
    <linearGradient id="_Áåçûìÿííûé_ãðàäèåíò_271-12" data-name="Áåçûìÿííûé ãðàäèåíò 271" x1="808.57" y1="-1472.46" x2="819.54" y2="-1500.51" gradientTransform="translate(-1335.32 -317.16) rotate(84.97) scale(.83 1)" xlink:href="#_Áåçûìÿííûé_ãðàäèåíò_271"/>
    <radialGradient id="_Áåçûìÿííûé_ãðàäèåíò_42-3" data-name="Áåçûìÿííûé ãðàäèåíò 42" cx="252.02" cy="220.32" fx="252.02" fy="220.32" r="31.41" gradientTransform="matrix(1,0,0,1,0,0)" xlink:href="#_Áåçûìÿííûé_ãðàäèåíò_42"/>
    <linearGradient id="_Áåçûìÿííûé_ãðàäèåíò_271-13" data-name="Áåçûìÿííûé ãðàäèåíò 271" x1="242.25" y1="250.12" x2="262.06" y2="199.45" xlink:href="#_Áåçûìÿííûé_ãðàäèåíò_271"/>
    <linearGradient id="_Áåçûìÿííûé_ãðàäèåíò_271-14" data-name="Áåçûìÿííûé ãðàäèåíò 271" x1="285.69" y1="239.9" x2="296.66" y2="211.84" xlink:href="#_Áåçûìÿííûé_ãðàäèåíò_271"/>
    <linearGradient id="_Áåçûìÿííûé_ãðàäèåíò_271-15" data-name="Áåçûìÿííûé ãðàäèåíò 271" x1="227.24" y1="219.16" x2="210.09" y2="203.98" xlink:href="#_Áåçûìÿííûé_ãðàäèåíò_271"/>
    <linearGradient id="_Áåçûìÿííûé_ãðàäèåíò_271-16" data-name="Áåçûìÿííûé ãðàäèåíò 271" x1="213.1" y1="222.94" x2="214.14" y2="220.26" xlink:href="#_Áåçûìÿííûé_ãðàäèåíò_271"/>
    <radialGradient id="_Áåçûìÿííûé_ãðàäèåíò_42-4" data-name="Áåçûìÿííûé ãðàäèåíò 42" cx="-1018.27" cy="223.9" fx="-1018.27" fy="223.9" r="31.41" gradientTransform="translate(-684.1 2.9) rotate(179.59) scale(1 -1)" xlink:href="#_Áåçûìÿííûé_ãðàäèåíò_42"/>
    <linearGradient id="_Áåçûìÿííûé_ãðàäèåíò_271-17" data-name="Áåçûìÿííûé ãðàäèåíò 271" x1="-1028.04" y1="253.71" x2="-1008.23" y2="203.04" gradientTransform="translate(-684.1 2.9) rotate(179.59) scale(1 -1)" xlink:href="#_Áåçûìÿííûé_ãðàäèåíò_271"/>
    <linearGradient id="_Áåçûìÿííûé_ãðàäèåíò_271-18" data-name="Áåçûìÿííûé ãðàäèåíò 271" x1="-984.6" y1="243.48" x2="-973.63" y2="215.43" gradientTransform="translate(-684.1 2.9) rotate(179.59) scale(1 -1)" xlink:href="#_Áåçûìÿííûé_ãðàäèåíò_271"/>
    <linearGradient id="_Áåçûìÿííûé_ãðàäèåíò_271-19" data-name="Áåçûìÿííûé ãðàäèåíò 271" x1="-1043.05" y1="222.75" x2="-1060.2" y2="207.57" gradientTransform="translate(-684.1 2.9) rotate(179.59) scale(1 -1)" xlink:href="#_Áåçûìÿííûé_ãðàäèåíò_271"/>
    <linearGradient id="_Áåçûìÿííûé_ãðàäèåíò_271-20" data-name="Áåçûìÿííûé ãðàäèåíò 271" x1="-1057.19" y1="226.53" x2="-1056.15" y2="223.85" gradientTransform="translate(-684.1 2.9) rotate(179.59) scale(1 -1)" xlink:href="#_Áåçûìÿííûé_ãðàäèåíò_271"/>
    <linearGradient id="_Áåçûìÿííûé_ãðàäèåíò_271-21" data-name="Áåçûìÿííûé ãðàäèåíò 271" x1="288.56" y1="222.05" x2="298.13" y2="214.47" xlink:href="#_Áåçûìÿííûé_ãðàäèåíò_271"/>
    <linearGradient id="_Áåçûìÿííûé_ãðàäèåíò_271-22" data-name="Áåçûìÿííûé ãðàäèåíò 271" x1="166.69" y1="-1901.78" x2="139.77" y2="-1866.88" gradientTransform="translate(-1360.01 -570.9) rotate(109.96)" xlink:href="#_Áåçûìÿííûé_ãðàäèåíò_271"/>
    <radialGradient id="_Áåçûìÿííûé_ãðàäèåíò_9" data-name="Áåçûìÿííûé ãðàäèåíò 9" cx="142.23" cy="-1882.19" fx="142.23" fy="-1882.19" r="29.58" gradientTransform="translate(-1360.01 -570.9) rotate(109.96)" gradientUnits="userSpaceOnUse">
      <stop offset=".02" stop-color="#49456c"/>
      <stop offset=".99" stop-color="#4a335f"/>
    </radialGradient>
    <linearGradient id="_Áåçûìÿííûé_ãðàäèåíò_271-23" data-name="Áåçûìÿííûé ãðàäèåíò 271" x1="-1221.01" y1="-1685.98" x2="-1216.14" y2="-1724.22" gradientTransform="translate(-727.44 -1599.82) rotate(-176.04)" xlink:href="#_Áåçûìÿííûé_ãðàäèåíò_271"/>
    <linearGradient id="_Áåçûìÿííûé_ãðàäèåíò_271-24" data-name="Áåçûìÿííûé ãðàäèåíò 271" x1="-1196.18" y1="-1727.19" x2="-1194.67" y2="-1739.04" gradientTransform="translate(-727.44 -1599.82) rotate(-176.04)" xlink:href="#_Áåçûìÿííûé_ãðàäèåíò_271"/>
    <linearGradient id="_Áåçûìÿííûé_ãðàäèåíò_271-25" data-name="Áåçûìÿííûé ãðàäèåíò 271" x1="-1207.34" y1="-1702.14" x2="-1207.69" y2="-1695.94" gradientTransform="translate(-727.44 -1599.82) rotate(-176.04)" xlink:href="#_Áåçûìÿííûé_ãðàäèåíò_271"/>
    <linearGradient id="_Áåçûìÿííûé_ãðàäèåíò_271-26" data-name="Áåçûìÿííûé ãðàäèåíò 271" x1="366.51" y1="216.23" x2="340.65" y2="176.6" xlink:href="#_Áåçûìÿííûé_ãðàäèåíò_271"/>
    <linearGradient id="_Áåçûìÿííûé_ãðàäèåíò_271-27" data-name="Áåçûìÿííûé ãðàäèåíò 271" x1="-1184.57" y1="-1757.04" x2="-1187.05" y2="-1711.9" gradientTransform="translate(-727.44 -1599.82) rotate(-176.04)" xlink:href="#_Áåçûìÿííûé_ãðàäèåíò_271"/>
    <linearGradient id="_Áåçûìÿííûé_ãðàäèåíò_271-28" data-name="Áåçûìÿííûé ãðàäèåíò 271" x1="139.33" y1="-1875.17" x2="142.57" y2="-1887.61" gradientTransform="translate(-1360.01 -570.9) rotate(109.96)" xlink:href="#_Áåçûìÿííûé_ãðàäèåíò_271"/>
    <linearGradient id="_Áåçûìÿííûé_ãðàäèåíò_271-29" data-name="Áåçûìÿííûé ãðàäèåíò 271" x1="791.64" y1="-180.57" x2="764.72" y2="-145.67" gradientTransform="translate(116.84 -570.9) rotate(70.04) scale(1 -1)" xlink:href="#_Áåçûìÿííûé_ãðàäèåíò_271"/>
    <radialGradient id="_Áåçûìÿííûé_ãðàäèåíò_9-2" data-name="Áåçûìÿííûé ãðàäèåíò 9" cx="238.17" cy="184.95" fx="238.17" fy="184.95" r="31.29" gradientTransform="matrix(1,0,0,1,0,0)" xlink:href="#_Áåçûìÿííûé_ãðàäèåíò_9"/>
    <linearGradient id="_Áåçûìÿííûé_ãðàäèåíò_271-30" data-name="Áåçûìÿííûé ãðàäèåíò 271" x1="604.67" y1="-1812.67" x2="609.55" y2="-1850.91" gradientTransform="translate(-515.73 -1599.82) rotate(-3.96) scale(1 -1)" xlink:href="#_Áåçûìÿííûé_ãðàäèåíò_271"/>
    <linearGradient id="_Áåçûìÿííûé_ãðàäèåíò_271-31" data-name="Áåçûìÿííûé ãðàäèåíò 271" x1="630.68" y1="-1853.73" x2="632.19" y2="-1865.58" gradientTransform="translate(-515.73 -1599.82) rotate(-3.96) scale(1 -1)" xlink:href="#_Áåçûìÿííûé_ãðàäèåíò_271"/>
    <linearGradient id="_Áåçûìÿííûé_ãðàäèåíò_271-32" data-name="Áåçûìÿííûé ãðàäèåíò 271" x1="-1597.03" y1="-1312.98" x2="-1594.08" y2="-1324.36" gradientTransform="translate(-1513.29 -918.63) rotate(-107.6) scale(1 -1)" xlink:href="#_Áåçûìÿííûé_ãðàäèåíò_271"/>
    <linearGradient id="_Áåçûìÿííûé_ãðàäèåíò_271-33" data-name="Áåçûìÿííûé ãðàäèåíò 271" x1="235.24" y1="209.43" x2="238.33" y2="184.55" xlink:href="#_Áåçûìÿííûé_ãðàäèåíò_271"/>
    <linearGradient id="_Áåçûìÿííûé_ãðàäèåíò_271-34" data-name="Áåçûìÿííûé ãðàäèåíò 271" x1="509.65" y1="226" x2="506.53" y2="206.77" xlink:href="#_Áåçûìÿííûé_ãðàäèåíò_271"/>
    <linearGradient id="_Áåçûìÿííûé_ãðàäèåíò_271-35" data-name="Áåçûìÿííûé ãðàäèåíò 271" x1="497.38" y1="311.45" x2="507.17" y2="238.53" xlink:href="#_Áåçûìÿííûé_ãðàäèåíò_271"/>
    <linearGradient id="_Áåçûìÿííûé_ãðàäèåíò_5" data-name="Áåçûìÿííûé ãðàäèåíò 5" x1="-128.01" y1="633.42" x2="-121.6" y2="642.18" gradientTransform="translate(339.2 -458.34) rotate(-22.64)" gradientUnits="userSpaceOnUse">
      <stop offset="0" stop-color="#62652a"/>
      <stop offset="1" stop-color="#404e12"/>
    </linearGradient>
    <linearGradient id="_Áåçûìÿííûé_ãðàäèåíò_67" data-name="Áåçûìÿííûé ãðàäèåíò 67" x1="-92.38" y1="727.15" x2="-134.36" y2="689.78" gradientTransform="translate(339.2 -458.34) rotate(-22.64)" gradientUnits="userSpaceOnUse">
      <stop offset="0" stop-color="#798633"/>
      <stop offset="1" stop-color="#506f15"/>
    </linearGradient>
    <linearGradient id="_Áåçûìÿííûé_ãðàäèåíò_67-2" data-name="Áåçûìÿííûé ãðàäèåíò 67" x1="-67.23" y1="701.61" x2="-109.21" y2="664.24" xlink:href="#_Áåçûìÿííûé_ãðàäèåíò_67"/>
    <linearGradient id="_Áåçûìÿííûé_ãðàäèåíò_271-36" data-name="Áåçûìÿííûé ãðàäèåíò 271" x1="-111.78" y1="653.5" x2="-104.38" y2="684.17" gradientTransform="translate(339.2 -458.34) rotate(-22.64)" xlink:href="#_Áåçûìÿííûé_ãðàäèåíò_271"/>
    <linearGradient id="_Áåçûìÿííûé_ãðàäèåíò_5-2" data-name="Áåçûìÿííûé ãðàäèåíò 5" x1="-149.56" y1="633.38" x2="-141.88" y2="643.88" xlink:href="#_Áåçûìÿííûé_ãðàäèåíò_5"/>
    <linearGradient id="_Áåçûìÿííûé_ãðàäèåíò_67-3" data-name="Áåçûìÿííûé ãðàäèåíò 67" x1="-82.55" y1="722.83" x2="-124.52" y2="685.47" xlink:href="#_Áåçûìÿííûé_ãðàäèåíò_67"/>
    <linearGradient id="_Áåçûìÿííûé_ãðàäèåíò_5-3" data-name="Áåçûìÿííûé ãðàäèåíò 5" x1="-83.07" y1="717.02" x2="-120.8" y2="683.44" xlink:href="#_Áåçûìÿííûé_ãðàäèåíò_5"/>
    <linearGradient id="_Áåçûìÿííûé_ãðàäèåíò_67-4" data-name="Áåçûìÿííûé ãðàäèåíò 67" x1="519.95" y1="272.81" x2="503.72" y2="224.43" gradientTransform="matrix(1,0,0,1,0,0)" xlink:href="#_Áåçûìÿííûé_ãðàäèåíò_67"/>
    <linearGradient id="_Áåçûìÿííûé_ãðàäèåíò_67-5" data-name="Áåçûìÿííûé ãðàäèåíò 67" x1="573.8" y1="240.73" x2="434.88" y2="192.8" gradientTransform="matrix(1,0,0,1,0,0)" xlink:href="#_Áåçûìÿííûé_ãðàäèåíò_67"/>
    <linearGradient id="_Áåçûìÿííûé_ãðàäèåíò_67-6" data-name="Áåçûìÿííûé ãðàäèåíò 67" x1="-2282.11" y1="424.89" x2="-2421.03" y2="376.96" gradientTransform="translate(-23.7 -2101.05) rotate(-92.98)" xlink:href="#_Áåçûìÿííûé_ãðàäèåíò_67"/>
    <linearGradient id="_Áåçûìÿííûé_ãðàäèåíò_52" data-name="Áåçûìÿííûé ãðàäèåíò 52" x1="478.58" y1="386.45" x2="473.59" y2="376.41" gradientTransform="translate(191.84 774.08) rotate(-27.92) scale(1 -1)" gradientUnits="userSpaceOnUse">
      <stop offset=".01" stop-color="#ffff6a"/>
      <stop offset=".12" stop-color="#f0e968"/>
      <stop offset=".35" stop-color="#ccb364"/>
      <stop offset=".66" stop-color="#925c5d"/>
      <stop offset=".98" stop-color="#540056"/>
    </linearGradient>
    <linearGradient id="_Áåçûìÿííûé_ãðàäèåíò_52-2" data-name="Áåçûìÿííûé ãðàäèåíò 52" x1="485.25" y1="383.23" x2="480.23" y2="373.14" xlink:href="#_Áåçûìÿííûé_ãðàäèåíò_52"/>
    <linearGradient id="_Áåçûìÿííûé_ãðàäèåíò_271-37" data-name="Áåçûìÿííûé ãðàäèåíò 271" x1="475.54" y1="382.25" x2="475.45" y2="355.54" gradientTransform="translate(191.84 774.08) rotate(-27.92) scale(1 -1)" xlink:href="#_Áåçûìÿííûé_ãðàäèåíò_271"/>
    <radialGradient id="_Áåçûìÿííûé_ãðàäèåíò_27" data-name="Áåçûìÿííûé ãðàäèåíò 27" cx="476.01" cy="369.56" fx="476.01" fy="369.56" r="4.53" gradientTransform="translate(191.84 774.08) rotate(-27.92) scale(1 -1)" gradientUnits="userSpaceOnUse">
      <stop offset="0" stop-color="#d7dcdf"/>
      <stop offset=".96" stop-color="#dccad4"/>
    </radialGradient>
    <linearGradient id="_Áåçûìÿííûé_ãðàäèåíò_52-3" data-name="Áåçûìÿííûé ãðàäèåíò 52" x1="174.65" y1="544.96" x2="169.65" y2="534.92" gradientTransform="translate(86.99 776.98) rotate(-155.75)" xlink:href="#_Áåçûìÿííûé_ãðàäèåíò_52"/>
    <linearGradient id="_Áåçûìÿííûé_ãðàäèåíò_52-4" data-name="Áåçûìÿííûé ãðàäèåíò 52" x1="181.31" y1="541.74" x2="176.3" y2="531.65" gradientTransform="translate(86.99 776.98) rotate(-155.75)" xlink:href="#_Áåçûìÿííûé_ãðàäèåíò_52"/>
    <linearGradient id="_Áåçûìÿííûé_ãðàäèåíò_271-38" data-name="Áåçûìÿííûé ãðàäèåíò 271" x1="171.61" y1="540.76" x2="171.51" y2="514.05" gradientTransform="translate(86.99 776.98) rotate(-155.75)" xlink:href="#_Áåçûìÿííûé_ãðàäèåíò_271"/>
    <radialGradient id="_Áåçûìÿííûé_ãðàäèåíò_27-2" data-name="Áåçûìÿííûé ãðàäèåíò 27" cx="172.08" cy="528.07" fx="172.08" fy="528.07" r="4.53" gradientTransform="translate(86.99 776.98) rotate(-155.75)" xlink:href="#_Áåçûìÿííûé_ãðàäèåíò_27"/>
    <radialGradient id="_Áåçûìÿííûé_ãðàäèåíò_42-5" data-name="Áåçûìÿííûé ãðàäèåíò 42" cx="224.19" cy="345.61" fx="224.19" fy="345.61" r="34.92" gradientTransform="translate(249.89 -116.67) rotate(65)" xlink:href="#_Áåçûìÿííûé_ãðàäèåíò_42"/>
    <linearGradient id="_Áåçûìÿííûé_ãðàäèåíò_271-39" data-name="Áåçûìÿííûé ãðàäèåíò 271" x1="228.26" y1="318.63" x2="225.19" y2="299.67" gradientTransform="translate(249.89 -116.67) rotate(65)" xlink:href="#_Áåçûìÿííûé_ãðàäèåíò_271"/>
    <linearGradient id="_Áåçûìÿííûé_ãðàäèåíò_271-40" data-name="Áåçûìÿííûé ãðàäèåíò 271" x1="216.16" y1="402.87" x2="225.81" y2="330.98" gradientTransform="translate(375.62 -6.33) rotate(90)" xlink:href="#_Áåçûìÿííûé_ãðàäèåíò_271"/>
    <linearGradient id="_Áåçûìÿííûé_ãðàäèåíò_67-7" data-name="Áåçûìÿííûé ãðàäèåíò 67" x1="230.24" y1="284.51" x2="262.53" y2="284.51" gradientTransform="translate(249.89 -116.67) rotate(65)" xlink:href="#_Áåçûìÿííûé_ãðàäèåíò_67"/>
    <linearGradient id="_Áåçûìÿííûé_ãðàäèåíò_67-8" data-name="Áåçûìÿííûé ãðàäèåíò 67" x1="232.57" y1="293.96" x2="255.25" y2="293.96" gradientTransform="translate(249.89 -116.67) rotate(65)" xlink:href="#_Áåçûìÿííûé_ãðàäèåíò_67"/>
    <linearGradient id="_Áåçûìÿííûé_ãðàäèåíò_67-9" data-name="Áåçûìÿííûé ãðàäèåíò 67" x1="-1945.92" y1="-850.52" x2="-1923.23" y2="-850.52" gradientTransform="translate(1756.14 -2371.85) rotate(-72.8) scale(1.53 1)" xlink:href="#_Áåçûìÿííûé_ãðàäèåíò_67"/>
    <linearGradient id="_Áåçûìÿííûé_ãðàäèåíò_67-10" data-name="Áåçûìÿííûé ãðàäèåíò 67" x1="196.85" y1="233.91" x2="206.48" y2="233.91" gradientTransform="translate(249.89 -116.67) rotate(65)" xlink:href="#_Áåçûìÿííûé_ãðàäèåíò_67"/>
    <linearGradient id="_Áåçûìÿííûé_ãðàäèåíò_67-11" data-name="Áåçûìÿííûé ãðàäèåíò 67" x1="209.57" y1="249.17" x2="216.08" y2="249.17" gradientTransform="translate(249.89 -116.67) rotate(65)" xlink:href="#_Áåçûìÿííûé_ãðàäèåíò_67"/>
    <linearGradient id="_Áåçûìÿííûé_ãðàäèåíò_67-12" data-name="Áåçûìÿííûé ãðàäèåíò 67" x1="182.92" y1="253.68" x2="206.48" y2="253.68" gradientTransform="translate(249.89 -116.67) rotate(65)" xlink:href="#_Áåçûìÿííûé_ãðàäèåíò_67"/>
    <linearGradient id="_Áåçûìÿííûé_ãðàäèåíò_67-13" data-name="Áåçûìÿííûé ãðàäèåíò 67" x1="216.36" y1="256.15" x2="232.66" y2="256.15" gradientTransform="translate(249.89 -116.67) rotate(65)" xlink:href="#_Áåçûìÿííûé_ãðàäèåíò_67"/>
    <linearGradient id="_Áåçûìÿííûé_ãðàäèåíò_67-14" data-name="Áåçûìÿííûé ãðàäèåíò 67" x1="223.06" y1="282.04" x2="232.08" y2="282.04" gradientTransform="translate(249.89 -116.67) rotate(65)" xlink:href="#_Áåçûìÿííûé_ãðàäèåíò_67"/>
    <linearGradient id="_Áåçûìÿííûé_ãðàäèåíò_67-15" data-name="Áåçûìÿííûé ãðàäèåíò 67" x1="176.23" y1="270.93" x2="212.3" y2="270.93" gradientTransform="translate(249.89 -116.67) rotate(65)" xlink:href="#_Áåçûìÿííûé_ãðàäèåíò_67"/>
    <linearGradient id="_Áåçûìÿííûé_ãðàäèåíò_67-16" data-name="Áåçûìÿííûé ãðàäèåíò 67" x1="190.63" y1="281.17" x2="219.14" y2="281.17" gradientTransform="translate(249.89 -116.67) rotate(65)" xlink:href="#_Áåçûìÿííûé_ãðàäèåíò_67"/>
    <linearGradient id="_Áåçûìÿííûé_ãðàäèåíò_67-17" data-name="Áåçûìÿííûé ãðàäèåíò 67" x1="194.76" y1="-2249.86" x2="204.38" y2="-2249.86" gradientTransform="translate(1588.41 -721.81) rotate(65.31) scale(1 -.81)" xlink:href="#_Áåçûìÿííûé_ãðàäèåíò_67"/>
    <linearGradient id="_Áåçûìÿííûé_ãðàäèåíò_67-18" data-name="Áåçûìÿííûé ãðàäèåíò 67" x1="60.92" y1="-2829.73" x2="67.43" y2="-2829.73" gradientTransform="translate(1506.47 -784.69) rotate(57.6) scale(1 -.63)" xlink:href="#_Áåçûìÿííûé_ãðàäèåíò_67"/>
    <linearGradient id="_Áåçûìÿííûé_ãðàäèåíò_67-19" data-name="Áåçûìÿííûé ãðàäèåíò 67" x1="-253.29" y1="-3135.9" x2="-246.78" y2="-3135.9" gradientTransform="translate(1582.17 -1034.03) rotate(43.4) scale(1 -.63)" xlink:href="#_Áåçûìÿííûé_ãðàäèåíò_67"/>
    <linearGradient id="_Áåçûìÿííûé_ãðàäèåíò_67-20" data-name="Áåçûìÿííûé ãðàäèåíò 67" x1="34.27" y1="-2825.22" x2="57.83" y2="-2825.22" gradientTransform="translate(1506.47 -784.69) rotate(57.6) scale(1 -.63)" xlink:href="#_Áåçûìÿííûé_ãðàäèåíò_67"/>
    <linearGradient id="_Áåçûìÿííûé_ãðàäèåíò_67-21" data-name="Áåçûìÿííûé ãðàäèåíò 67" x1="357.31" y1="-2331.03" x2="373.61" y2="-2331.03" gradientTransform="translate(1354.81 -540.46) rotate(73.39) scale(1 -.63)" xlink:href="#_Áåçûìÿííûé_ãðàäèåíò_67"/>
    <linearGradient id="_Áåçûìÿííûé_ãðàäèåíò_67-22" data-name="Áåçûìÿííûé ãðàäèåíò 67" x1="74.41" y1="-2796.86" x2="83.43" y2="-2796.86" gradientTransform="translate(1506.47 -784.69) rotate(57.6) scale(1 -.63)" xlink:href="#_Áåçûìÿííûé_ãðàäèåíò_67"/>
    <linearGradient id="_Áåçûìÿííûé_ãðàäèåíò_67-23" data-name="Áåçûìÿííûé ãðàäèåíò 67" x1="27.58" y1="-2807.97" x2="63.65" y2="-2807.97" gradientTransform="translate(1506.47 -784.69) rotate(57.6) scale(1 -.63)" xlink:href="#_Áåçûìÿííûé_ãðàäèåíò_67"/>
    <linearGradient id="_Áåçûìÿííûé_ãðàäèåíò_67-24" data-name="Áåçûìÿííûé ãðàäèåíò 67" x1="41.98" y1="-2797.74" x2="70.48" y2="-2797.74" gradientTransform="translate(1506.47 -784.69) rotate(57.6) scale(1 -.63)" xlink:href="#_Áåçûìÿííûé_ãðàäèåíò_67"/>
    <linearGradient id="_Áåçûìÿííûé_ãðàäèåíò_35" data-name="Áåçûìÿííûé ãðàäèåíò 35" x1="280.11" y1="-96.65" x2="221.08" y2="91.42" gradientUnits="userSpaceOnUse">
      <stop offset=".01" stop-color="#fff"/>
      <stop offset=".12" stop-color="#f0e9f1"/>
      <stop offset=".35" stop-color="#ccb3cc"/>
      <stop offset=".66" stop-color="#925c93"/>
      <stop offset=".98" stop-color="#540056"/>
    </linearGradient>
    <linearGradient id="_Áåçûìÿííûé_ãðàäèåíò_35-2" data-name="Áåçûìÿííûé ãðàäèåíò 35" x1="341.08" y1="-77.51" x2="282.04" y2="110.56" xlink:href="#_Áåçûìÿííûé_ãðàäèåíò_35"/>
    <linearGradient id="_Áåçûìÿííûé_ãðàäèåíò_35-3" data-name="Áåçûìÿííûé ãðàäèåíò 35" x1="339.33" y1="-78.06" x2="280.29" y2="110.01" xlink:href="#_Áåçûìÿííûé_ãðàäèåíò_35"/>
    <linearGradient id="_Áåçûìÿííûé_ãðàäèåíò_35-4" data-name="Áåçûìÿííûé ãðàäèåíò 35" x1="353.57" y1="-73.59" x2="294.54" y2="114.48" xlink:href="#_Áåçûìÿííûé_ãðàäèåíò_35"/>
    <linearGradient id="_Áåçûìÿííûé_ãðàäèåíò_35-5" data-name="Áåçûìÿííûé ãðàäèåíò 35" x1="278.24" y1="169.12" x2="284.42" y2="138.75" xlink:href="#_Áåçûìÿííûé_ãðàäèåíò_35"/>
    <linearGradient id="_Áåçûìÿííûé_ãðàäèåíò_35-6" data-name="Áåçûìÿííûé ãðàäèåíò 35" x1="219.04" y1="155.25" x2="323.2" y2="-47.16" xlink:href="#_Áåçûìÿííûé_ãðàäèåíò_35"/>
    <linearGradient id="_Áåçûìÿííûé_ãðàäèåíò_35-7" data-name="Áåçûìÿííûé ãðàäèåíò 35" x1="229.02" y1="160.38" x2="333.17" y2="-42.03" xlink:href="#_Áåçûìÿííûé_ãðàäèåíò_35"/>
    <linearGradient id="_Áåçûìÿííûé_ãðàäèåíò_35-8" data-name="Áåçûìÿííûé ãðàäèåíò 35" x1="231.86" y1="161.84" x2="336.01" y2="-40.56" xlink:href="#_Áåçûìÿííûé_ãðàäèåíò_35"/>
    <linearGradient id="_Áåçûìÿííûé_ãðàäèåíò_35-9" data-name="Áåçûìÿííûé ãðàäèåíò 35" x1="272.3" y1="182.65" x2="376.45" y2="-19.75" xlink:href="#_Áåçûìÿííûé_ãðàäèåíò_35"/>
    <linearGradient id="_Áåçûìÿííûé_ãðàäèåíò_35-10" data-name="Áåçûìÿííûé ãðàäèåíò 35" x1="304.41" y1="199.18" x2="408.56" y2="-3.23" xlink:href="#_Áåçûìÿííûé_ãðàäèåíò_35"/>
  </defs>
  <g class="cls-67">
    <g id="Layer_1" data-name="Layer 1">
      <g>
        <g>
          <path class="cls-86" d="m403.57,162.76c4.99,3.93-3.71,78.01-3.71,78.01,0,0-45.94,4.36-100.74,5.48-54.8,1.12-112.19-5.06-112.19-5.06,0,0-8.3-75.55-2.42-76.32,7.51-.99,214.06-6.04,219.05-2.11Z"/>
          <path class="cls-38" d="m191.04,164.49l2.05,66.9s54.25,6.22,106.07,5.09c51.82-1.13,95.26-5.52,95.26-5.52l.95-68.49-103.55-.47-100.78,2.48Z"/>
          <g>
            <path class="cls-66" d="m292.13,206.2c-.05,1.1-.1,2.17-.15,3.2v.04c-.39,7.68-.87,13.31-1.42,13.89-1.86,1.97-85.89-.7-85.89-.7,0,0-4.5-55.94-1.46-61,.65-1.07,5-1.84,11.47-2.37,16.19-1.33,45.62-1.16,63.32-.5,7.46.28,12.84.64,14.26,1.02.21.06.34.11.37.17.2.36.3,3.36.32,7.88h0c.05,9.56-.26,25.89-.81,38.37Z"/>
            <path class="cls-20" d="m292.13,206.2l.81,10.51c-.73.73-1.18-.37-1.03-4.76.03-.79.05-1.63.06-2.5v-.04c.03-1.54.03-3.19.02-4.92-.08-16.37-1.57-39.8-1.75-42.5-.01-.17-.02-.26-.02-.26,0,0-41.05-3.56-75.34-2.25l-.21-.21c16.19-1.33,45.62-1.16,63.32-.5,7.46.28,12.84.64,14.26,1.02.21.06.34.11.37.17.2.36.3,3.36.32,7.88h0c.05,9.56-.26,25.89-.81,38.37Z"/>
            <path class="cls-26" d="m292.13,206.2l-.13-1.72c-.08-16.37-1.57-39.8-1.75-42.5.55-.56,1.24-1.29,2-2.2.21.06.34.11.37.17.2.36.3,3.36.32,7.88h0c.05,9.56-.26,25.89-.81,38.37Z"/>
          </g>
          <g>
            <path class="cls-83" d="m293.32,203.82c.03,1.1.06,2.17.1,3.2v.04c.25,7.69.63,13.32,1.17,13.91,1.82,2,85.89.82,85.89.82,0,0,5.49-55.86,2.54-60.97-.63-1.08-4.97-1.93-11.42-2.58-16.16-1.61-45.59-1.96-63.3-1.62-7.46.14-12.85.41-14.27.77-.22.05-.34.1-.37.16-.2.36-.36,3.36-.46,7.88h0c-.22,9.55-.19,25.89.13,38.38Z"/>
            <path class="cls-50" d="m293.32,203.82l-1,10.49c.72.74,1.18-.35,1.11-4.74-.01-.79-.02-1.63-.02-2.51v-.04c0-1.54.02-3.19.07-4.92.37-16.37,2.28-39.76,2.5-42.46.01-.17.02-.26.02-.26,0,0,41.1-2.83,75.37-.92l.22-.21c-16.16-1.61-45.59-1.96-63.3-1.62-7.46.14-12.85.41-14.27.77-.22.05-.34.1-.37.16-.2.36-.36,3.36-.46,7.88h0c-.22,9.55-.19,25.89.13,38.38Z"/>
            <path class="cls-34" d="m293.32,203.82l.16-1.72c.37-16.37,2.28-39.76,2.5-42.46-.54-.57-1.22-1.31-1.96-2.24-.22.05-.34.1-.37.16-.2.36-.36,3.36-.46,7.88h0c-.22,9.55-.19,25.89.13,38.38Z"/>
          </g>
          <path class="cls-14" d="m355.07,200.71c9.84-5.62,14.43-36.73,14.43-36.73l8.34,61.47-86.02-16.59,63.25-8.15Z"/>
          <path class="cls-44" d="m234.47,201.27c-9.84-5.62-16.59-38.51-16.59-38.51l-5.34,59.6,82.09-9.28-60.16-11.81Z"/>
          <path class="cls-5" d="m186.93,241.19c3.59-.47,12.96-17.43,12.96-17.43l-13.28,14.41.32,3.02Z"/>
          <path class="cls-36" d="m399.92,240.56c-3.59-.47-10.06-15.67-10.06-15.67l10.38,12.65-.32,3.02Z"/>
          <g>
            <path class="cls-58" d="m366.43,225.15c19.8,1.74,19.49,1.51,20.38,1.55h.06c1.52.08,2.65.11,3.13.07.36-.03.76-1.02,1.18-2.76,2.57-10.64,5.76-49.16,3.52-65.08l-5.13-1.56-.96-.15-17.32,3.22c-8.01,21.57-5.51,56.92-4.95,63.6.06.63.09,1.01.1,1.09v.02Z"/>
            <path class="cls-12" d="m366.43,225.15c19.8,1.74,19.49,1.51,20.38,1.55h.06s3.13.07,3.13.07l-6.03-2.08s1.52-33.51,5.6-67.32l-.96-.15-17.32,3.22c-8.01,21.57-5.51,56.92-4.95,63.6,0,.09.02.18.02.26.01.11.02.2.02.29.02.19.03.33.04.42,0,.06,0,.1.01.12v.02Z"/>
            <path class="cls-19" d="m366.43,225.15c19.8,1.74,19.49,1.51,20.38,1.55h.06c1.52.08,2.65.11,3.13.07l-6.03-2.08c-2.86.69-13.44-.36-17.63-.65,0,.09.02.18.02.26.01.11.02.2.02.29.02.19.03.33.04.42,0,.06,0,.1.01.12v.02Z"/>
          </g>
          <g>
            <path class="cls-55" d="m221.08,223.37c-19.8,1.74-19.49,1.51-20.38,1.55h-.06c-1.52.08-2.65.11-3.13.07-.36-.03-.76-1.02-1.18-2.76-2.57-10.64-5.76-49.16-3.52-65.08l5.13-1.56.96-.15,17.32,3.22c8.01,21.57,5.51,56.92,4.95,63.6-.06.63-.09,1.01-.1,1.09v.02Z"/>
            <path class="cls-22" d="m221.08,223.37c-19.8,1.74-19.49,1.51-20.38,1.55h-.06s-3.13.07-3.13.07l6.03-2.08s-1.52-33.51-5.6-67.32l.96-.15,17.32,3.22c8.01,21.57,5.51,56.92,4.95,63.6,0,.09-.02.18-.02.26-.01.11-.02.2-.02.29-.02.19-.03.33-.04.42,0,.06,0,.1-.01.12v.02Z"/>
            <path class="cls-13" d="m221.08,223.37c-19.8,1.74-19.49,1.51-20.38,1.55h-.06c-1.52.08-2.65.11-3.13.07l6.03-2.08c2.86.69,13.44-.36,17.63-.65,0,.09-.02.18-.02.26-.01.11-.02.2-.02.29-.02.19-.03.33-.04.42,0,.06,0,.1-.01.12v.02Z"/>
          </g>
          <g>
            <path class="cls-82" d="m293.98,209.38s0,13.83-.29,20.44v.06c-.07,1.52-.15,2.65-.25,3.12-.07.35-1.32.67-3.45.93-13.1,1.62-59.89,1.43-78.85-2.2l-1-12.1-.08-.97,5.38-10.12c26.86-6.09,69.22-.5,77.21.64.75.11,1.21.18,1.3.19h.02Z"/>
            <path class="cls-48" d="m293.98,209.37s0,13.83-.29,20.44v.06l-.25,3.12-2.42-12.23s-39.68-2.24-80.88-1.13l-.02-.25-.06-.72,5.38-10.12s.08-.02.12-.03c1.32-.3,2.69-.57,4.07-.8,3.35-.58,6.88-1.02,10.51-1.32,25.49-2.17,55.87,1.85,62.51,2.8.11.02.21.03.31.04.13.02.24.04.35.05.23.03.39.06.51.08.07.01.12.02.14.02h.02Z"/>
            <path class="cls-35" d="m293.98,209.38s0,13.83-.29,20.44v.06c-.07,1.52-.15,2.65-.25,3.12l-2.42-12.23c1.14-2.79,1.54-7.38,1.63-11.58.11.02.21.03.31.04.13.02.24.04.35.05.23.03.39.06.51.08.07.01.12.02.14.02h.02Z"/>
            <path class="cls-31" d="m230.15,206.38c-12.51,1.55-18.38,9.17-20.02,12.99l-.06-.72,5.38-10.12s.08-.02.12-.03c1.32-.3,2.69-.57,4.07-.8,3.35-.58,6.88-1.02,10.51-1.32Z"/>
            <path class="cls-2" d="m210.03,218.73c1.37,6.24,6.93,6.37,6.93,6.37l-6.93-6.37Z"/>
          </g>
          <g>
            <path class="cls-69" d="m293.73,208.92s.1,13.83.43,20.43v.06c.08,1.52.17,2.65.28,3.12.07.35,1.32.66,3.46.91,13.11,1.53,59.89,1.01,78.83-2.75l.91-12.11.08-.98-5.45-10.08c-26.9-5.9-69.22-.01-77.2,1.19-.75.12-1.2.18-1.3.2h-.02Z"/>
            <path class="cls-41" d="m293.73,208.92s.1,13.83.43,20.43v.06s.28,3.12.28,3.12l2.33-12.25s39.66-2.52,80.87-1.71l.02-.25.06-.72-5.45-10.08s-.08-.02-.12-.03c-1.32-.29-2.69-.55-4.08-.78-3.35-.56-6.88-.97-10.52-1.25-25.5-1.99-55.85,2.24-62.49,3.24-.11.02-.21.03-.31.05-.13.02-.24.04-.35.05-.23.03-.39.06-.51.08-.07.01-.12.02-.14.02h-.02Z"/>
            <path class="cls-45" d="m293.73,208.92s.1,13.83.43,20.43v.06c.08,1.52.17,2.65.28,3.12l2.33-12.25c-1.16-2.78-1.59-7.37-1.71-11.57-.11.02-.21.03-.31.05-.13.02-.24.04-.35.05-.23.03-.39.06-.51.08-.07.01-.12.02-.14.02h-.02Z"/>
            <path class="cls-7" d="m357.54,205.47c12.52,1.46,18.44,9.04,20.11,12.85l.06-.72-5.45-10.08s-.08-.02-.12-.03c-1.32-.29-2.69-.55-4.08-.78-3.35-.56-6.88-.97-10.52-1.25Z"/>
            <path class="cls-23" d="m377.74,217.69c-1.33,6.25-6.89,6.42-6.89,6.42l6.89-6.42Z"/>
          </g>
          <path class="cls-6" d="m293.29,216.27l-.06,4.11-.28-3.67c.1-.11.22-.25.34-.44Z"/>
        </g>
        <g>
          <path class="cls-21" d="m368.99,169.31c-2.8,4.82-11.26,16.85-18.32,23.52-8.11,7.67-37.48,14.06-37.48,14.06,0,0,18.42-2.45,24.36,3,5.95,5.45,7.73,7.45,7.73,7.45,0,0,5.48-.59,14.04-5.88,15.55-9.61,19.42-21.36,19.42-21.36l-11.38-14.65,1.63-6.14Z"/>
          <path class="cls-76" d="m344.06,215.18h0c0-.08,0-.13,0-.13v-.02s-.02,0-.02-.02c-.09-.11-.32-.48-.66-1.06-.63-1.07-1.68-2.82-2.85-4.92h0c-.78-1.4-1.71-2.95-2.68-4.55-1.42-2.37-2.9-4.85-4.02-7.06-.13-.26-.25-.5-.37-.74-.3-.64-.56-1.24-.78-1.81-.09-.24-.18-.47-.25-.69-.27-.77-2.8-1.99-2.83-2.56-.04-1.14,3.39-1.91,4.79-3.32.13-.14.26-.27.41-.4.01-.02.04-.04.06-.06.06-.05.11-.11.16-.16.17-.17.36-.33.53-.52.02-.02.05-.05.07-.07.21-.19.41-.39.62-.58.03-.03.06-.05.09-.08.36-.34.72-.67,1.09-1.02.13-.13.27-.27.4-.4,0,0,0,0,0,0h.01c3.86-3.87,9.87-7.69,15.99-9.25,1.84-.46,3.7-.73,5.51-.72.68,0,1.32.04,1.97.11h.03s.04.01.04.01c.09.03.2.09.34.17.04.02.1.05.15.08,1.16.73,3.69,2.81,6.46,5.12.2.17.4.33.59.49.02.03.05.05.07.07.22.19.45.38.68.57.4.33.79.67,1.18,1,.13.11.25.21.38.31,1.85,1.56,3.62,3.04,4.99,4.11.17.14.34.27.5.39,1.05.81,1.77,1.3,1.96,1.27.93-.17,2.19.05,2.19.05l-.93,1.67c-.54.99-1.27,2.02-2.13,3.08-.49.6-1.02,1.21-1.59,1.82-9.55,10.31-29.75,22.27-30.93,22-1.15-.28-1.24-1.72-1.22-2.16Z"/>
          <path class="cls-29" d="m361.3,175.14c1.38.17,16.42,13.77,17.36,13.59.94-.16,2.19.04,2.19.04-2.24-.07-5.13,1.43-7.77,3.25-.07.04-.13.09-.2.13-2.06,1.44-3.96,3.06-5.27,4.24,1.36-1.3,3.22-3.15,4.68-4.81.02-.02.03-.03.04-.04,1.47-1.66,2.51-3.12,2.21-3.64-.83-1.45-13.24-12.77-13.24-12.77Z"/>
          <path class="cls-33" d="m344.38,215.13c.51-2.9,3.77-5.45,3.77-5.45l-5.39,3.18,1.62,2.27Z"/>
          <path class="cls-42" d="m358.2,178.59l1.13-3.57c.67,0,1.32.04,1.97.11h.03s.42.23.42.23c-1.88.4-3.54,3.23-3.54,3.23Z"/>
          <path class="cls-39" d="m337.84,204.48c-1.42-2.37-2.9-4.85-4.02-7.06-.13-.26-.25-.5-.37-.74-.3-.64-.56-1.24-.78-1.81-.09-.24-.18-.47-.25-.69-.27-.77-.42-1.45-.44-2.03-.04-1.14,1-2.44,2.4-3.86.13-.14.26-.27.41-.4,1.35-.86,2.42-1.53,2.42-1.53.02-.09-.69.26-1.67.8.02-.02.05-.05.07-.07.21-.19.41-.39.62-.58.03-.03.06-.05.09-.08.36-.34.72-.67,1.09-1.02.13-.13.27-.27.4-.4,0,0,0,0,0,0h.01c3.86-3.87,9.87-7.69,15.99-9.25,1.92.08,3.59.48,4.98.99.21.08.42.16.61.24,2.71,1.13,4.21,2.61,4.21,2.61-15.81.95-27.32,17.19-25.77,24.9Z"/>
          <path class="cls-40" d="m329.59,191.62c-.04-1.15,3.39-1.91,4.79-3.32.15-.15.3-.31.47-.46.06-.05.11-.11.17-.16l-.34,3.96,1.56-5.13.14-.47s-.03.13-.05.39c-.23,2.06-.91,12.17,6.51,26.39.1.19.2.38.3.57.29.54.59,1.08.9,1.63-.08-.11-.31-.48-.66-1.06-.63-1.07-1.68-2.82-2.85-4.92h0c-1.93-3.45-4.82-7.91-6.7-11.62-.13-.25-.25-.5-.37-.74-.3-.64-.57-1.24-.78-1.81-.09-.24-.18-.47-.25-.69-.26-.77-2.81-1.99-2.83-2.56Z"/>
          <path class="cls-15" d="m371.79,197.85c-10.75,8.81-20.41,13.38-20.41,13.38,0,0,4.74-1.12,11.18-5.66,4.91-3.46,9.23-7.71,9.23-7.71Z"/>
        </g>
        <g>
          <path class="cls-64" d="m209.92,193.77c12.74,11.24,29.99,22.86,29.99,22.86l-7.12-15.93-22.86-6.93Z"/>
          <path class="cls-51" d="m219.06,169.31c2.8,4.82,11.26,16.85,18.32,23.52,8.11,7.67,37.48,14.06,37.48,14.06,0,0-18.42-2.45-24.36,3-5.95,5.45-7.73,7.45-7.73,7.45,0,0-5.48-.59-14.04-5.88-15.55-9.61-21.76-20.95-21.76-20.95l13.72-15.06-1.63-6.14Z"/>
          <path class="cls-70" d="m257.71,190.68c-.01.24-.32.74-.69,1.31-.54.81-1.23,1.74-1.38,2.19-.08.22-.16.45-.25.69-.11.29-.23.59-.36.89-.13.3-.26.6-.41.91-.13.25-.24.48-.37.74-1.12,2.21-2.6,4.69-4.02,7.06-.96,1.61-1.9,3.16-2.68,4.55h0c-1.17,2.11-2.22,3.85-2.86,4.93-.35.58-.57.95-.66,1.06t0,.02v.02s0,.04,0,.12h0c.02.45-1.35,4.38-2.49,4.65-1.18.28-3.66-9.96-22.91-20.95-.72-.41-12.25-7.04-12.8-8.03l-.93-1.67s1.26-.21,2.19-.04c.19.03,3.25-.87,4.3-1.68.15-.13.32-.25.5-.39,1.36-1.07,3.14-2.55,4.98-4.11.13-.1.25-.21.38-.31.4-.33.79-.67,1.18-1,.23-.19.46-.38.68-.57.02-.02.06-.03.08-.07h0c.2-.17.39-.32.59-.49,2.4-2,5.47-4.24,6.22-5.78.03-.07.06-.14.08-.21-.19-1.03-.46-2.68-.14-3.25.1-.19,1.19.2,2.85.96,5.76,2.63,18.47,9.73,21.47,12.73h.02s0,.01,0,.02c.13.13.26.28.4.4.36.35.73.68,1.09,1.02.03.03.06.06.09.08.21.19.41.39.62.58.02.02.04.04.07.07.18.18.36.35.53.52.05.05.11.11.17.16.02.02.04.04.06.06.15.13.29.26.41.4.34.35.77.6,1.2.8h0c1.35.61,2.86.72,2.83,1.59Z"/>
          <path class="cls-11" d="m226.76,175.14c-1.38.17-18.76,14.17-19.7,14-.94-.16-2.19.04-2.19.04,2.24-.07,7.48,1.02,10.12,2.85.07.04.13.09.2.13,2.06,1.44,3.96,3.06,5.27,4.24-1.36-1.3-3.22-3.15-4.68-4.81-.02-.02-.03-.03-.04-.04-1.47-1.66-2.51-3.12-2.21-3.64.83-1.45,13.24-12.77,13.24-12.77Z"/>
          <path class="cls-4" d="m243.68,215.13c-.51-2.9-3.77-5.45-3.77-5.45l5.39,3.18-1.62,2.27Z"/>
          <path class="cls-3" d="m236.44,209.8c-10.38-9.24-18.63-13.77-18.63-13.77,0,0,4.69,1.31,10.93,6.12,4.76,3.66,7.7,7.65,7.7,7.65Z"/>
          <path class="cls-25" d="m257.02,191.99c-.54.81-1.23,1.74-1.38,2.19-.08.22-.16.45-.25.69-.11.29-.23.59-.36.89.9-4.32-5.09-7.97-5.36-7.64-.28.35,2.53,4.71,2.53,4.71,0,0-23.19-15.46-33.03-11.83h0c.2-.17.39-.32.59-.49,2.4-2,5.47-4.24,6.22-5.78.05.04.1.08.15.12.02.02.04.03.07.05,1.56,1.18,3.56,1.76,3.8,1.06.22-.67-.59-2.47-1.22-3.72,5.76,2.63,18.47,9.73,21.47,12.73h.02s0,.01,0,.02c.13.13.26.28.4.4.36.35.73.68,1.09,1.02.03.03.06.06.09.08.21.19.41.39.62.58.02.02.04.04.07.07.18.18.36.35.53.52.05.05.11.11.17.16.02.02.04.04.06.06.15.13.29.26.41.4.34.35.77.6,1.2.8-.58.08-.87.44.05,1.49.81.93,1.53,1.29,2.09,1.4Z"/>
        </g>
      </g>
      <g>
        <g>
          <path class="cls-73" d="m541.27,217.87c0,2.37-.31,4.68-.88,6.9-3.44,13.17-16.49,22.98-32.06,22.98-13.37,0-24.88-7.23-30.04-17.61-1.86-3.75-2.9-7.9-2.9-12.27,0-16.49,14.75-29.87,32.94-29.87s32.94,13.38,32.94,29.87Z"/>
          <path class="cls-10" d="m541.27,217.87c0,2.37-.31,4.68-.88,6.9-.25-5.58-2.9-11.5-11.58-15.06-.66-.27-1.36-.53-2.1-.77-11.98-3.95-26.75-3.55-36.81,2.1-6.83,3.85-11.49,10.11-11.61,19.1-1.86-3.75-2.9-7.9-2.9-12.27,0-16.49,14.75-29.87,32.94-29.87s32.94,13.38,32.94,29.87Z"/>
          <ellipse class="cls-78" cx="509.62" cy="216.73" rx="20.69" ry="18.77"/>
          <ellipse class="cls-28" cx="509.79" cy="218.97" rx="20.71" ry="18.78"/>
        </g>
        <path class="cls-106" d="m515.4,213.47c-.98,5.61,1.28,11.9,5.41,10.62,4.13-1.28,4.92-7.87,2.66-10.52-2.26-2.66-8.06-.1-8.06-.1Z"/>
        <path class="cls-106" d="m510.18,210.33c-.89,1.87,1.57,6.1,1.87,5.7.3-.39,1.48-2.16,1.28-3.44-.2-1.28-3.15-2.26-3.15-2.26Z"/>
        <path class="cls-106" d="m521.2,210.67c.79.98,5.31-.1,4.03-1.77s-6.39-.59-5.21.59l1.18,1.18Z"/>
        <path class="cls-92" d="m512.83,200.33c1.53,7.78-2.21,14.5-5.3,18.53-1.93,2.49-3.61,3.95-3.61,3.95-10.43-9.68-10.73-26.24-9.31-37.95.95-7.82,2.68-13.47,2.68-13.47,0,0,13.06,16.32,15.55,28.95Z"/>
        <path class="cls-95" d="m495.66,223.6c-17.66-11.77-22.1,16.15-22.1,16.15l22.1-16.15Z"/>
        <path class="cls-100" d="m506.63,222.33c2.83-11.16,22.02-34.97,22.02-34.97,0,0-6.84,22.82-12.18,28.65-5.33,5.83-9.84,6.32-9.84,6.32Z"/>
        <path class="cls-16" d="m507.71,219.32c-1.93,2.49-3.61,3.95-3.61,3.95-10.43-9.68-10.73-26.24-9.31-37.95.34-.47.54-.75.54-.75.48,18.18,9.43,31.01,12.38,34.75Z"/>
        <path class="cls-96" d="m464.3,189.11c12.34,27.58,36.22,32.31,35.49,31.23s-35.49-31.23-35.49-31.23Z"/>
        <path class="cls-72" d="m507.19,223.43c28.03-3.93,22.57,22.2,22.57,22.2l-22.57-22.2Z"/>
        <path class="cls-89" d="m506.91,222.92c28.03-3.93,21.93,15.19,21.93,15.19l-21.93-15.19Z"/>
        <path class="cls-65" d="m507.22,225.22c20.06,16.85,10.86,39.34,10.86,39.34,0,0-10.92-8.23-14.93-15.19-4.01-6.96,4.07-24.15,4.07-24.15Z"/>
        <path class="cls-71" d="m486.48,204.28c5.8,17.41,19.67,20.06,19.67,20.06,0,0-1.08-6.29-5.9-12.98-4.82-6.69-13.77-7.08-13.77-7.08Z"/>
        <path class="cls-105" d="m487.4,244.86c17.08-6.7,19.01-20.69,19.01-20.69,0,0-6.23,1.41-12.66,6.57-6.43,5.16-6.36,14.12-6.36,14.12Z"/>
      </g>
      <g>
        <path class="cls-77" d="m445.36,214.22c-.67-1.27-1.59-2.33-2.66-3.16-.39-.3-.81-.58-1.24-.81-1.93-1.07-4.21-1.47-6.43-1.07-.98.17-1.95.5-2.87.99-.83.44-1.57.98-2.21,1.6-3.05,2.95-3.93,7.66-1.85,11.6,2.52,4.77,8.43,6.58,13.2,4.05,4.77-2.52,6.58-8.43,4.06-13.2Z"/>
        <path class="cls-60" d="m435.03,209.18c-.98.17-1.95.5-2.87.99-.83.44-1.57.98-2.21,1.6l5.58,7.68h2.44s-2.94-10.26-2.94-10.26Z"/>
        <path class="cls-63" d="m442.7,211.06c-.39-.3-.81-.58-1.24-.81l-1.46,8.41.55.35,2.15-7.95Z"/>
        <path class="cls-78" d="m444.23,220.83c-1.48-2.8-4.96-3.87-7.76-2.38-2.8,1.48-3.87,4.96-2.38,7.76s4.96,3.87,7.76,2.38c2.8-1.48,3.87-4.96,2.38-7.76Z"/>
        <path class="cls-85" d="m451.93,215.43c-.04-.07-.07-.14-.11-.21.25.78.43,1.58.55,2.37.09.61.15,1.22.16,1.83.16,5.69-2.85,11.26-8.22,14.11-5.53,2.93-12.03,2.17-16.68-1.41-.97-.75-1.87-1.62-2.66-2.61-.54-.68-1.03-1.42-1.47-2.2.28.89.64,1.76,1.09,2.61.5.95,1.1,1.83,1.75,2.63,4.58,5.54,12.56,7.29,19.17,3.8,6.42-3.4,9.46-10.67,7.78-17.42-.3-1.19-.74-2.37-1.35-3.5Z"/>
        <g>
          <path class="cls-79" d="m446,220.84c-2.03-3.83-6.78-5.29-10.61-3.26-3.83,2.03-5.29,6.78-3.26,10.61,2.03,3.83,6.78,5.29,10.6,3.26,3.83-2.03,5.29-6.78,3.26-10.6Zm-.3.35c1.89,3.56.53,7.99-3.04,9.88-3.56,1.89-7.99.53-9.87-3.04-1.89-3.56-.53-7.98,3.03-9.87,3.56-1.89,7.99-.53,9.88,3.03Z"/>
          <polygon class="cls-79" points="423.8 230.61 431.78 227.25 432.13 228.19 423.59 231.15 423.8 230.61"/>
          <path class="cls-79" d="m446.49,227.12c.31.05,8.15,2.79,8.15,2.79l-8.14-3.58v.79Z"/>
          <polygon class="cls-79" points="437.41 217.16 436.46 205.61 438.09 217.09 437.41 217.16"/>
        </g>
        <path class="cls-84" d="m456.06,210.85c-5.57-10.51-18.6-14.52-29.12-8.95-10.51,5.57-14.52,18.6-8.95,29.12.6,1.13,1.28,2.18,2.04,3.16,6.3,8.11,17.7,10.76,27.08,5.79,8.94-4.73,13.17-14.86,10.82-24.25-.41-1.66-1.03-3.29-1.87-4.86Zm-4.46,5.05c.29.56.55,1.12.77,1.7.2.53.37,1.06.51,1.6,1.68,6.54-1.26,13.62-7.49,16.93-6.4,3.39-14.15,1.67-18.57-3.73-.62-.76-1.18-1.59-1.66-2.49-.07-.13-.13-.26-.2-.39-3.57-7.23-.76-16.03,6.42-19.83,7.3-3.87,16.36-1.08,20.23,6.22Z"/>
        <path class="cls-24" d="m457.93,215.71c-1.4,1-2.95,2.09-4.65,3.22-.13.09-.27.18-.41.27-.11.08-.23.15-.35.23.16,5.69-2.85,11.26-8.22,14.11-5.53,2.93-12.03,2.17-16.68-1.41-.27.09-.53.18-.8.27-.16.05-.32.1-.48.15-2.1.67-4.21,1.21-6.3,1.62,6.3,8.11,17.7,10.76,27.08,5.79,8.94-4.73,13.17-14.86,10.82-24.25Z"/>
        <path class="cls-74" d="m443.42,222.55c-1.17-2.21-3.92-3.06-6.13-1.88-2.21,1.17-3.06,3.92-1.88,6.13,1.17,2.21,3.92,3.06,6.13,1.88,2.21-1.17,3.06-3.92,1.88-6.13Z"/>
      </g>
      <g>
        <path class="cls-77" d="m140.37,214.77c.59-1.31,1.43-2.43,2.45-3.32.37-.33.77-.63,1.18-.89,1.86-1.2,4.1-1.74,6.35-1.48.99.11,1.97.37,2.93.8.86.39,1.63.88,2.31,1.46,3.24,2.74,4.42,7.39,2.59,11.45-2.21,4.92-8,7.11-12.91,4.89-4.92-2.21-7.11-7.99-4.89-12.91Z"/>
        <path class="cls-61" d="m150.36,209.07c.99.11,1.97.37,2.93.8.86.39,1.63.88,2.31,1.46l-5.08,8.02-2.44.16,2.28-10.43Z"/>
        <path class="cls-62" d="m142.83,211.45c.37-.33.77-.63,1.18-.89l2,8.29-.53.39-2.66-7.79Z"/>
        <path class="cls-78" d="m141.92,221.29c1.3-2.89,4.7-4.18,7.59-2.88,2.89,1.3,4.18,4.7,2.88,7.59-1.3,2.89-4.7,4.18-7.59,2.88-2.89-1.3-4.18-4.7-2.88-7.59Z"/>
        <path class="cls-85" d="m133.89,216.39c.03-.07.06-.14.1-.21-.2.8-.33,1.6-.39,2.4-.05.61-.07,1.23-.04,1.84.2,5.69,3.57,11.06,9.11,13.56,5.71,2.57,12.14,1.4,16.56-2.48.92-.81,1.76-1.74,2.48-2.78.5-.72.94-1.48,1.32-2.29-.22.9-.53,1.79-.92,2.67-.44.98-.98,1.9-1.58,2.74-4.22,5.82-12.07,8.08-18.88,5.02-6.62-2.98-10.13-10.05-8.88-16.89.22-1.21.59-2.41,1.12-3.58Z"/>
        <g>
          <path class="cls-79" d="m144.09,231.79c3.95,1.78,8.59.02,10.37-3.93,1.78-3.95.02-8.6-3.93-10.38-3.95-1.78-8.6-.02-10.38,3.93-1.78,3.95-.02,8.59,3.93,10.37Zm6.05-13.7c3.68,1.66,5.32,5.98,3.66,9.66-1.66,3.68-5.98,5.32-9.66,3.66-3.68-1.66-5.32-5.98-3.66-9.66s5.98-5.32,9.66-3.66Z"/>
          <polygon class="cls-79" points="162.93 229.74 154.76 226.9 154.47 227.86 163.18 230.27 162.93 229.74"/>
          <path class="cls-79" d="m140.07,227.72c-.31.07-7.95,3.3-7.95,3.3l7.89-4.09.06.79Z"/>
          <polygon class="cls-79" points="148.49 217.19 148.71 205.6 147.81 217.16 148.49 217.19"/>
        </g>
        <path class="cls-84" d="m127.93,217.06c-1.75,9.52,3.13,19.36,12.35,23.51,9.68,4.36,20.88.98,26.65-7.51.69-1.02,1.31-2.12,1.83-3.28,4.89-10.85.05-23.6-10.79-28.48-10.85-4.89-23.6-.05-28.48,10.79-.73,1.63-1.25,3.29-1.55,4.97Zm26.12-7.71c7.4,3.33,10.77,11.94,7.67,19.38-.06.13-.11.27-.17.4-.42.93-.92,1.8-1.49,2.59-4.06,5.67-11.69,7.88-18.29,4.91-6.43-2.9-9.82-9.77-8.56-16.41.1-.55.24-1.09.4-1.63.18-.58.4-1.17.66-1.74,3.39-7.53,12.25-10.89,19.79-7.5Z"/>
        <path class="cls-49" d="m127.93,217.06c1.46.91,3.08,1.89,4.85,2.91.14.08.28.16.42.24.12.07.24.14.36.21.2,5.69,3.57,11.06,9.11,13.56,5.71,2.57,12.14,1.4,16.56-2.48.27.08.54.15.82.22.16.04.33.08.49.12,2.14.53,4.28.94,6.39,1.21-5.77,8.49-16.97,11.87-26.65,7.51-9.22-4.15-14.09-13.99-12.35-23.51Z"/>
        <path class="cls-81" d="m142.84,222.95c1.03-2.28,3.71-3.3,5.99-2.27,2.28,1.03,3.3,3.71,2.27,5.99-1.03,2.28-3.71,3.3-5.99,2.27-2.28-1.03-3.3-3.71-2.27-5.99Z"/>
      </g>
      <g>
        <g>
          <path class="cls-91" d="m78.01,249.72c-2.12.99-4.31,1.67-6.53,2.09-13.2,2.41-27.4-5.16-33.89-19.07-5.57-11.95-3.91-25.24,3.22-34.18,2.58-3.22,5.85-5.88,9.76-7.7,14.73-6.87,32.84.73,40.42,16.99,7.58,16.25,1.77,35.01-12.96,41.88Z"/>
          <path class="cls-17" d="m78.01,249.72c-2.12.99-4.31,1.67-6.53,2.09,4.88-2.55,9.07-7.38,8.63-16.62-.03-.7-.09-1.44-.19-2.2-1.46-12.35-7.97-25.38-17.21-32.02-6.29-4.5-13.82-6.05-21.9-2.42,2.58-3.22,5.85-5.88,9.76-7.7,14.73-6.87,32.84.73,40.42,16.99,7.58,16.25,1.77,35.01-12.96,41.88Z"/>
          <ellipse class="cls-78" cx="65.85" cy="220.96" rx="18.5" ry="20.4" transform="translate(-87.22 48.54) rotate(-25)"/>
          <ellipse class="cls-1" cx="63.92" cy="222.05" rx="18.52" ry="20.41" transform="translate(-87.86 47.82) rotate(-25)"/>
        </g>
        <path class="cls-94" d="m75.23,218.8c26.85-6.42,41.85,16.11,41.85,16.11l-41.85-16.11Z"/>
        <path class="cls-88" d="m75.16,221.4c10.81-.23,22.77,14.42,22.77,14.42l-22.77-14.42Z"/>
        <path class="cls-56" d="m72.39,215.37c-7.48-9.28-3.65-37.37-3.65-37.37l3.65,37.37Z"/>
        <g>
          <path class="cls-53" d="m145.45,150.54c-21.46,4.23-45.2,30.39-44.15,29.9,1.05-.49,44.15-29.9,44.15-29.9Z"/>
          <path class="cls-80" d="m93.55,187.9c20.11-11.94,41.07-12.41,41.07-12.41l-41.07,12.41Z"/>
          <path class="cls-97" d="m99.46,181.29c8.12-11.49,5.6-28.61,5.6-28.61l-5.6,28.61Z"/>
          <path class="cls-98" d="m88.74,197.53c25.13-14.93,47.89-4.68,47.89-4.68l-47.89,4.68Z"/>
          <path class="cls-103" d="m79.71,208.8c16.89-3.7,21.47-.06,21.47-.06l-21.47.06Z"/>
          <path class="cls-52" d="m87.16,193.45c9.67-20.56-1.54-39.08-1.54-39.08l1.54,39.08Z"/>
          <path class="cls-102" d="m82.14,203.33c6.3-16.09-.98-31-.98-31l.98,31Z"/>
          <path class="cls-101" d="m105.03,177.41c-19.5,15.99-35.37,39.77-35.37,39.77l1.36.17s5.27-7.27,14.77-18.92c9.49-11.65,19.25-21.01,19.25-21.01Z"/>
        </g>
        <g>
          <path class="cls-68" d="m0,224.22c13.39-11.92,43.01-10.49,42.16-10.1-.85.39-42.16,10.1-42.16,10.1Z"/>
          <path class="cls-59" d="m48.58,212.99c-13.6,5.87-19.27,19.46-19.27,19.46l19.27-19.46Z"/>
          <path class="cls-75" d="m53.2,214.99c-11.74,9.03-13.9,23.6-13.9,23.6l13.9-23.6Z"/>
          <path class="cls-54" d="m42.39,212.78c-10.23-1.78-21.73-14.11-21.73-14.11l21.73,14.11Z"/>
          <path class="cls-90" d="m66.51,217.25c-18.35,2.44-22.76,23.49-22.76,23.49l22.76-23.49Z"/>
          <path class="cls-57" d="m66.94,216.84c-6.93,8.88-5.51,14.18-5.51,14.18l5.51-14.18Z"/>
          <path class="cls-99" d="m54.15,212.21c-17.06-6.4-27.35-25.36-27.35-25.36l27.35,25.36Z"/>
          <path class="cls-104" d="m62.44,215.04c-13.03-5.86-21.76-19.95-21.76-19.95l21.76,19.95Z"/>
          <path class="cls-101" d="m40.09,214.01c9.94-1.75,26.77,3.72,26.77,3.72l-1.57-1.99-24.18-3.33-1.02,1.6Z"/>
        </g>
        <path class="cls-106" d="m71.53,223.95c-5.42,1.46-10.1,6.1-7.24,9.26,2.86,3.16,9.08,1.12,10.51-2.01,1.43-3.13-3.27-7.25-3.27-7.25Z"/>
        <path class="cls-106" d="m71.8,218.8c-2.04-.01-4.79,3.95-4.32,4.05s2.55.42,3.61-.29c1.06-.71.71-3.75.71-3.75Z"/>
        <path class="cls-106" d="m73.21,222.96c-.55,1.11,2.3,4.7,3.26,2.87s-2.14-5.96-2.7-4.41l-.56,1.55Z"/>
      </g>
      <g>
        <path class="cls-38" d="m397.48,76.43c0,4.82-.62,9.54-1.81,14.1-.7,2.69-1.59,5.32-2.66,7.89-.99,2.37-2.14,4.68-3.44,6.94-5.74,10.02-14.38,18.92-25.13,26.12-11.31,7.58-24.97,13.28-40.08,16.45-6.4,1.34-13.05,2.24-19.91,2.61-2.55.15-5.11.22-7.71.22-5.14,0-10.18-.29-15.11-.83-3.32-.37-6.6-.86-9.79-1.46-.13-.02-.26-.04-.39-.07-24.51-4.67-45.41-15.98-58.96-31.18-2.99-3.35-5.62-6.89-7.86-10.6-3.08-5.1-5.4-10.5-6.86-16.14-1.18-4.55-1.8-9.25-1.8-14.05,0-4.46.53-8.84,1.56-13.1,1.17-4.84,2.97-9.51,5.33-13.98,3.5-6.6,8.25-12.75,14.03-18.27,1.91-1.83,3.94-3.59,6.07-5.28,1.1-.87,2.23-1.72,3.39-2.55,4.15-2.99,8.64-5.72,13.44-8.15,11.21-5.68,24.05-9.72,37.9-11.67.61-.09,1.21-.17,1.81-.25,2-.25,4.02-.47,6.06-.63,3.67-.3,7.39-.45,11.17-.45,5.11,0,10.14.28,15.03.83,1.32.14,2.63.31,3.93.49.11.02.21.03.32.05,22.95,3.28,43.11,12.31,57.65,24.96,5.47,4.77,10.14,10.05,13.85,15.73,1.84,2.82,3.45,5.74,4.8,8.74.99,2.17,1.84,4.38,2.54,6.64.69,2.17,1.24,4.38,1.66,6.62.54,2.88.85,5.81.93,8.8.02.49.02.99.02,1.48Z"/>
        <path class="cls-93" d="m397.48,74.33c0,4.82-.62,9.54-1.81,14.1-.7,2.69-1.59,5.32-2.66,7.89-.99,2.37-3.86,5.16-5.16,7.41-5.74,10.02-12.66,18.44-23.41,25.65-11.31,7.58-24.97,13.28-40.08,16.45-6.4,1.34-13.05,2.24-19.91,2.61-2.55.15-5.11.22-7.71.22-5.14,0-10.18-.29-15.11-.83-3.32-.37-6.6-.86-9.79-1.46-.13-.02-.26-.04-.39-.07-24.51-4.67-43.79-15.84-57.34-31.04-2.99-3.35-7.24-7.03-9.47-10.74-3.08-5.1-3.83-10.34-5.29-15.97-1.18-4.55-3.37-9.41-3.37-14.22,0-4.46.53-8.84,1.56-13.1,1.17-4.84,2.97-9.51,5.33-13.98,3.5-6.6,10.24-12.22,16.02-17.74,1.91-1.83,1.95-4.13,4.08-5.82,1.1-.87,2.23-1.72,3.39-2.55,4.15-2.99,8.64-5.72,13.44-8.15,11.21-5.68,24.05-9.72,37.9-11.67.61-.09,1.21-.17,1.81-.25,2-.25,4.02-.47,6.06-.63,3.67-.3,7.39-.45,11.17-.45,5.11,0,10.14.28,15.03.83,1.32.14,2.63.31,3.93.49.11.02.21.03.32.05,22.95,3.28,43.11,12.31,57.65,24.96,5.47,4.77,8.21,11,11.92,16.68,1.84,2.82,5.38,4.79,6.73,7.79.99,2.17,1.84,4.38,2.54,6.64.69,2.17,1.24,4.38,1.66,6.62.54,2.88.85,5.81.93,8.8.02.49.02.99.02,1.48Z"/>
        <path class="cls-47" d="m249.81,41.6l-23.46-20.45c4.15-2.99,8.64-5.72,13.44-8.15l14.24,26.92-4.22,1.68Z"/>
        <path class="cls-18" d="m316.02,1.37l-5.49,33.49-3.79-.84,5.03-33.19c1.32.14,2.63.31,3.93.49.11.02.21.03.32.05Z"/>
        <path class="cls-32" d="m394.86,57.43l-197.09,30.95c-1.18-4.55-1.8-9.25-1.8-14.05,0-4.46.53-8.84,1.56-13.1l194.79-10.44c.99,2.17,1.84,4.38,2.54,6.64Z"/>
        <path class="cls-43" d="m397.48,74.33c0,4.82-.62,9.54-1.81,14.1-.7,2.69-1.59,5.32-2.66,7.89-.99,2.37-2.14,4.68-3.44,6.94-41.51,2.37-109.5,6.53-177.07,11.86-2.99-3.35-5.62-6.89-7.86-10.6l192.82-31.67c.02.49.02.99.02,1.48Z"/>
        <g>
          <path class="cls-37" d="m379.69,74.07c0,3.93-.51,7.77-1.47,11.49-.57,2.19-1.3,4.33-2.17,6.42-4.4,10.48-12.54,19.74-23.28,26.94-9.22,6.18-20.35,10.82-32.66,13.4-5.21,1.09-10.64,1.82-16.22,2.13-2.07.12-4.17.18-6.28.18-4.18,0-8.29-.23-12.31-.67-2.7-.3-5.37-.7-7.98-1.19-.1-.02-.21-.03-.31-.06-35.37-6.74-61.49-30.44-61.49-58.63,0-7.78,1.99-15.22,5.62-22.06,2.85-5.38,6.72-10.39,11.43-14.89,1.56-1.49,3.21-2.93,4.94-4.3,11.63-9.22,27.13-15.76,44.59-18.22.49-.07.98-.14,1.47-.2,1.63-.21,3.27-.38,4.94-.51,2.98-.24,6.02-.37,9.1-.37,5.28,0,10.45.37,15.45,1.07,18.81,2.64,35.34,10.02,47.23,20.38,4.45,3.88,8.26,8.19,11.29,12.81,3.63,5.55,6.15,11.58,7.33,17.92.51,2.74.78,5.53.78,8.37Z"/>
          <path class="cls-87" d="m376.03,74.91c0,3.75-.48,7.43-1.41,10.98-.54,2.09-1.24,4.14-2.08,6.14-4.2,10.01-11.98,18.86-22.24,25.74-8.81,5.9-19.44,10.34-31.2,12.81-4.98,1.05-10.16,1.74-15.5,2.03-1.98.12-3.98.17-6,.17-4,0-7.92-.22-11.76-.64-2.58-.29-5.13-.67-7.62-1.14-.1-.02-.2-.03-.3-.06-33.8-6.44-58.75-29.08-58.75-56.02,0-7.43,1.9-14.54,5.37-21.07,2.73-5.14,6.42-9.93,10.92-14.23,1.49-1.43,3.07-2.8,4.72-4.11,11.12-8.81,25.92-15.06,42.6-17.41.47-.07.94-.13,1.41-.19,1.56-.2,3.13-.36,4.72-.49,2.85-.23,5.75-.35,8.69-.35,5.05,0,9.99.35,14.77,1.02,17.97,2.53,33.76,9.57,45.13,19.47,4.26,3.71,7.89,7.82,10.78,12.24,3.47,5.31,5.87,11.07,7.01,17.12.49,2.61.74,5.29.74,8Z"/>
          <path class="cls-8" d="m278.22,130.99c-.1-.02-.2-.03-.3-.06-7.23-13.71-25.18-45.03-53.38-77.1,2.73-5.14,6.42-9.93,10.92-14.23l42.76,91.38Z"/>
          <path class="cls-30" d="m295.91,65.64l-11.72-47.74c1.56-.2,3.13-.36,4.72-.49l7,48.23Z"/>
          <path class="cls-27" d="m303.6,132.6c-1.98.12-3.98.17-6,.17-4,0-7.92-.22-11.76-.64l-45.67-96.63c11.12-8.81,25.92-15.06,42.6-17.41l20.82,114.51Z"/>
          <path class="cls-46" d="m357.49,37.55l-7.19,80.22c-8.81,5.9-19.44,10.34-31.2,12.81l-6.73-112.49c17.97,2.53,33.76,9.57,45.13,19.47Z"/>
          <path class="cls-9" d="m375.29,66.91l-.67,18.98c-.54,2.09-1.24,4.14-2.08,6.14l-4.27-42.24c3.47,5.31,5.87,11.07,7.01,17.12Z"/>
        </g>
      </g>
    </g>
  </g>
</svg>