<?xml version="1.0" encoding="UTF-8"?>
<svg xmlns="http://www.w3.org/2000/svg" xmlns:xlink="http://www.w3.org/1999/xlink" viewBox="0 0 185.47 131.12">
  <defs>
    <style>
      .cls-1 {
        fill: url(#linear-gradient-3);
      }

      .cls-1, .cls-2, .cls-3, .cls-4 {
        mix-blend-mode: multiply;
      }

      .cls-5 {
        fill: #fff;
      }

      .cls-2 {
        fill: url(#linear-gradient);
      }

      .cls-6 {
        fill: #939598;
      }

      .cls-3 {
        fill: url(#linear-gradient-4);
      }

      .cls-7 {
        mask: url(#mask-2);
      }

      .cls-8 {
        isolation: isolate;
      }

      .cls-9 {
        mask: url(#mask-3);
      }

      .cls-4 {
        fill: url(#linear-gradient-2);
      }

      .cls-10 {
        filter: url(#luminosity-noclip);
      }

      .cls-11 {
        mask: url(#mask-1);
      }

      .cls-12 {
        mask: url(#mask);
      }

      .cls-13 {
        fill: #def0fa;
      }

      .cls-14 {
        filter: url(#luminosity-noclip-3);
      }

      .cls-15 {
        fill: #26281e;
      }
    </style>
    <filter id="luminosity-noclip" x="24.01" y="20.69" width="12.58" height="106.65" color-interpolation-filters="sRGB" filterUnits="userSpaceOnUse">
      <feFlood flood-color="#fff" result="bg"/>
      <feBlend in="SourceGraphic" in2="bg"/>
    </filter>
    <filter id="luminosity-noclip-2" x="24.01" y="-8257.06" width="12.58" height="32766" color-interpolation-filters="sRGB" filterUnits="userSpaceOnUse">
      <feFlood flood-color="#fff" result="bg"/>
      <feBlend in="SourceGraphic" in2="bg"/>
    </filter>
    <mask id="mask-1" x="24.01" y="-8257.06" width="12.58" height="32766" maskUnits="userSpaceOnUse"/>
    <linearGradient id="linear-gradient" x1="-460.58" y1="204.86" x2="-460.58" y2="192.28" gradientTransform="translate(-168.27 534.59) rotate(90) scale(1 -1)" gradientUnits="userSpaceOnUse">
      <stop offset="0" stop-color="#000"/>
      <stop offset="1" stop-color="#fff"/>
    </linearGradient>
    <mask id="mask" x="24.01" y="20.69" width="12.58" height="106.65" maskUnits="userSpaceOnUse">
      <g class="cls-10">
        <g class="cls-11">
          <rect class="cls-2" x="24.01" y="20.69" width="12.58" height="106.65"/>
        </g>
      </g>
    </mask>
    <linearGradient id="linear-gradient-2" x1="-460.58" y1="204.86" x2="-460.58" y2="192.28" gradientTransform="translate(-168.27 534.59) rotate(90) scale(1 -1)" gradientUnits="userSpaceOnUse">
      <stop offset="0" stop-color="#fff"/>
      <stop offset="1" stop-color="#000"/>
    </linearGradient>
    <filter id="luminosity-noclip-3" x="24.01" y="20.69" width="150.53" height="12.58" color-interpolation-filters="sRGB" filterUnits="userSpaceOnUse">
      <feFlood flood-color="#fff" result="bg"/>
      <feBlend in="SourceGraphic" in2="bg"/>
    </filter>
    <filter id="luminosity-noclip-4" x="24.01" y="-8257.06" width="150.53" height="32766" color-interpolation-filters="sRGB" filterUnits="userSpaceOnUse">
      <feFlood flood-color="#fff" result="bg"/>
      <feBlend in="SourceGraphic" in2="bg"/>
    </filter>
    <mask id="mask-3" x="24.01" y="-8257.06" width="150.53" height="32766" maskUnits="userSpaceOnUse"/>
    <linearGradient id="linear-gradient-3" x1="-1579.66" y1="217.49" x2="-1579.66" y2="204.91" gradientTransform="translate(-1480.38 -184.22) rotate(-180) scale(1 -1)" xlink:href="#linear-gradient"/>
    <mask id="mask-2" x="24.01" y="20.69" width="150.53" height="12.58" maskUnits="userSpaceOnUse">
      <g class="cls-14">
        <g class="cls-9">
          <rect class="cls-1" x="24.01" y="20.69" width="150.53" height="12.58"/>
        </g>
      </g>
    </mask>
    <linearGradient id="linear-gradient-4" x1="-1579.66" y1="217.49" x2="-1579.66" y2="204.91" gradientTransform="translate(-1480.38 -184.22) rotate(-180) scale(1 -1)" xlink:href="#linear-gradient-2"/>
  </defs>
  <g class="cls-8">
    <g id="Layer_1" data-name="Layer 1">
      <polygon class="cls-6" points="181.34 4.13 181.34 77.82 64.02 77.82 64.02 131.12 0 131.12 0 77.82 0 14.85 0 4.13 181.34 4.13"/>
      <g>
        <g>
          <polygon class="cls-5" points="3.77 74.04 3.77 127.34 14.34 127.34 14.34 74.04 14.34 11.08 67.79 11.08 121.09 11.08 174.54 11.08 174.54 20.59 174.54 74.04 185.11 74.04 185.11 .36 3.77 .36 3.77 74.04"/>
          <rect class="cls-13" x="14.34" y="74.04" width="9.66" height="53.3"/>
          <polygon class="cls-13" points="14.34 11.08 14.34 74.04 24.01 74.04 24.01 20.59 25.06 20.59 67.79 20.59 67.79 11.08 14.34 11.08"/>
          <rect class="cls-5" x="24.01" y="74.04" width="43.79" height="53.3"/>
          <polygon class="cls-5" points="24.01 20.59 24.01 74.04 67.79 74.04 67.79 20.59 25.06 20.59 24.01 20.59"/>
          <rect class="cls-5" x="67.79" y="20.59" width="53.3" height="53.45"/>
          <rect class="cls-13" x="67.79" y="11.08" width="53.3" height="9.51"/>
          <rect class="cls-5" x="121.09" y="20.59" width="53.45" height="53.45"/>
          <rect class="cls-13" x="121.09" y="11.08" width="53.45" height="9.51"/>
        </g>
        <g>
          <path class="cls-15" d="m174.54,74.4h-53.45c-.2,0-.36-.16-.36-.36s.16-.36.36-.36h53.45c.2,0,.36.16.36.36s-.16.36-.36.36Z"/>
          <path class="cls-15" d="m174.54,20.95h-53.45c-.2,0-.36-.16-.36-.36s.16-.36.36-.36h53.45c.2,0,.36.16.36.36s-.16.36-.36.36Z"/>
          <path class="cls-15" d="m121.09,74.4c-.2,0-.36-.16-.36-.36V20.59c0-.2.16-.36.36-.36s.36.16.36.36v53.45c0,.2-.16.36-.36.36Z"/>
          <path class="cls-15" d="m121.09,74.4h-53.3c-.2,0-.36-.16-.36-.36s.16-.36.36-.36h53.3c.2,0,.36.16.36.36s-.16.36-.36.36Z"/>
          <path class="cls-15" d="m121.09,20.95c-.2,0-.36-.16-.36-.36v-9.51c0-.2.16-.36.36-.36s.36.16.36.36v9.51c0,.2-.16.36-.36.36Z"/>
          <path class="cls-15" d="m121.09,20.95h-53.3c-.2,0-.36-.16-.36-.36s.16-.36.36-.36h53.3c.2,0,.36.16.36.36s-.16.36-.36.36Z"/>
          <path class="cls-15" d="m24.01,127.7c-.2,0-.36-.16-.36-.36V20.59c0-.2.16-.36.36-.36h1.06c.2,0,.36.16.36.36s-.16.36-.36.36h-.7v106.39c0,.2-.16.36-.36.36Z"/>
          <path class="cls-15" d="m67.79,20.95c-.2,0-.36-.16-.36-.36v-9.51c0-.2.16-.36.36-.36s.36.16.36.36v9.51c0,.2-.16.36-.36.36Z"/>
          <path class="cls-15" d="m67.79,74.4H14.34c-.2,0-.36-.16-.36-.36s.16-.36.36-.36h53.09V20.59c0-.2.16-.36.36-.36s.36.16.36.36v53.45c0,.2-.16.36-.36.36Z"/>
          <path class="cls-15" d="m67.79,20.95H25.06c-.2,0-.36-.16-.36-.36s.16-.36.36-.36h42.73c.2,0,.36.16.36.36s-.16.36-.36.36Z"/>
          <path class="cls-15" d="m174.54,74.4c-.2,0-.36-.16-.36-.36V11.08c0-.2.16-.36.36-.36s.36.16.36.36v62.96c0,.2-.16.36-.36.36Z"/>
          <path class="cls-15" d="m185.11,74.4c-.2,0-.36-.16-.36-.36V.36c0-.2.16-.36.36-.36s.36.16.36.36v73.68c0,.2-.16.36-.36.36Z"/>
          <path class="cls-15" d="m174.54,11.44H14.34c-.2,0-.36-.16-.36-.36s.16-.36.36-.36h160.2c.2,0,.36.16.36.36s-.16.36-.36.36Z"/>
          <path class="cls-15" d="m185.11.72H3.77c-.2,0-.36-.16-.36-.36s.16-.36.36-.36h181.34c.2,0,.36.16.36.36s-.16.36-.36.36Z"/>
          <path class="cls-15" d="m14.34,74.4c-.2,0-.36-.16-.36-.36V11.08c0-.2.16-.36.36-.36s.36.16.36.36v62.96c0,.2-.16.36-.36.36Z"/>
          <path class="cls-15" d="m3.77,74.4c-.2,0-.36-.16-.36-.36V.36c0-.2.16-.36.36-.36s.36.16.36.36v73.68c0,.2-.16.36-.36.36Z"/>
          <path class="cls-15" d="m185.11,74.4h-10.57c-.2,0-.36-.16-.36-.36s.16-.36.36-.36h10.57c.2,0,.36.16.36.36s-.16.36-.36.36Z"/>
          <path class="cls-15" d="m67.79,127.7H3.77c-.2,0-.36-.16-.36-.36s.16-.36.36-.36h63.66v-52.94c0-.2.16-.36.36-.36s.36.16.36.36v53.3c0,.2-.16.36-.36.36Z"/>
          <path class="cls-15" d="m14.34,127.7c-.2,0-.36-.16-.36-.36v-53.3c0-.2.16-.36.36-.36s.36.16.36.36v53.3c0,.2-.16.36-.36.36Z"/>
          <path class="cls-15" d="m3.77,127.7c-.2,0-.36-.16-.36-.36v-53.3c0-.2.16-.36.36-.36s.36.16.36.36v53.3c0,.2-.16.36-.36.36Z"/>
        </g>
      </g>
      <g class="cls-12">
        <rect class="cls-4" x="24.01" y="20.69" width="12.58" height="106.65"/>
      </g>
      <g class="cls-7">
        <rect class="cls-3" x="24.01" y="20.69" width="150.53" height="12.58"/>
      </g>
    </g>
  </g>
</svg>