<?xml version="1.0" encoding="UTF-8"?>
<svg xmlns="http://www.w3.org/2000/svg" xmlns:xlink="http://www.w3.org/1999/xlink" viewBox="0 0 405.1 312.34">
  <defs>
    <style>
      .cls-1 {
        fill: url(#linear-gradient-7);
      }

      .cls-1, .cls-2, .cls-3, .cls-4, .cls-5, .cls-6, .cls-7, .cls-8, .cls-9, .cls-10, .cls-11, .cls-12, .cls-13, .cls-14, .cls-15, .cls-16, .cls-17, .cls-18, .cls-19, .cls-20, .cls-21, .cls-22, .cls-23, .cls-24, .cls-25, .cls-26, .cls-27, .cls-28, .cls-29, .cls-30, .cls-31, .cls-32, .cls-33, .cls-34 {
        stroke-linecap: round;
        stroke-linejoin: round;
      }

      .cls-1, .cls-5, .cls-14, .cls-17, .cls-30 {
        stroke: #8f8f8f;
      }

      .cls-1, .cls-5, .cls-14, .cls-30 {
        stroke-width: .03px;
      }

      .cls-35 {
        fill: #cfcfce;
      }

      .cls-36 {
        fill: #cbcaca;
      }

      .cls-37 {
        fill: url(#linear-gradient-35);
      }

      .cls-37, .cls-38, .cls-39, .cls-40, .cls-41, .cls-42, .cls-43, .cls-44, .cls-45 {
        mix-blend-mode: multiply;
      }

      .cls-2 {
        fill: url(#linear-gradient-2);
      }

      .cls-2, .cls-3, .cls-4, .cls-6, .cls-7, .cls-8, .cls-9, .cls-10, .cls-11, .cls-12, .cls-13, .cls-15, .cls-16, .cls-18, .cls-19, .cls-20, .cls-21, .cls-22, .cls-23, .cls-24, .cls-25, .cls-26, .cls-27, .cls-28, .cls-29, .cls-31, .cls-32, .cls-33, .cls-34 {
        stroke: #959494;
        stroke-width: .03px;
      }

      .cls-3 {
        fill: url(#linear-gradient-5);
      }

      .cls-46 {
        fill: #e5e4e4;
      }

      .cls-47 {
        fill: #f9f8f8;
      }

      .cls-48 {
        fill: #fff;
      }

      .cls-4 {
        fill: url(#linear-gradient-14);
      }

      .cls-5 {
        fill: url(#linear-gradient-32);
      }

      .cls-6 {
        fill: url(#linear-gradient-8);
      }

      .cls-7 {
        fill: url(#linear-gradient-27);
      }

      .cls-49 {
        fill: #dad9d8;
      }

      .cls-50 {
        fill: #939598;
      }

      .cls-38 {
        fill: #f1594e;
      }

      .cls-39 {
        fill: #717070;
      }

      .cls-51 {
        fill: #d7d6d6;
      }

      .cls-52 {
        fill: #c9c8c7;
      }

      .cls-53 {
        fill: #dddcdb;
      }

      .cls-8 {
        fill: url(#linear-gradient-6);
      }

      .cls-54 {
        fill: #e7e6e5;
      }

      .cls-55 {
        fill: #d8d7d6;
      }

      .cls-56 {
        fill: #d0cfcf;
      }

      .cls-57 {
        fill: #e6e7e7;
      }

      .cls-58 {
        fill: #dedddc;
      }

      .cls-59 {
        isolation: isolate;
      }

      .cls-40 {
        fill: url(#linear-gradient-37);
      }

      .cls-41 {
        fill: #c58042;
      }

      .cls-60 {
        fill: #c9c9c8;
      }

      .cls-61 {
        fill: #f5f4f4;
      }

      .cls-9 {
        fill: url(#linear-gradient-11);
      }

      .cls-62 {
        fill: #dbdad9;
      }

      .cls-63 {
        fill: #6e6f72;
      }

      .cls-64 {
        fill: #dbdada;
      }

      .cls-10 {
        fill: url(#linear-gradient-31);
      }

      .cls-65 {
        fill: #f1f0ef;
      }

      .cls-66 {
        fill: #e8e7e6;
      }

      .cls-11 {
        fill: url(#linear-gradient-21);
      }

      .cls-67 {
        fill: #eae9e8;
      }

      .cls-68 {
        fill: #ecebea;
      }

      .cls-69 {
        fill: #cfcecd;
      }

      .cls-12 {
        fill: url(#linear-gradient-18);
      }

      .cls-13 {
        fill: url(#linear-gradient-25);
      }

      .cls-14 {
        fill: url(#linear-gradient-33);
      }

      .cls-70 {
        fill: #dcdbda;
      }

      .cls-15 {
        fill: url(#linear-gradient-13);
      }

      .cls-16 {
        fill: url(#linear-gradient-24);
      }

      .cls-71 {
        fill: #ebeae9;
      }

      .cls-17 {
        fill: url(#linear-gradient-28);
        stroke-width: .03px;
      }

      .cls-72 {
        fill: #f3f2f1;
      }

      .cls-73 {
        fill: #d3d2d1;
      }

      .cls-74 {
        fill: #f7f7f6;
      }

      .cls-75 {
        fill: #cecdcc;
      }

      .cls-18 {
        fill: url(#linear-gradient-12);
      }

      .cls-76 {
        fill: #e6e5e4;
      }

      .cls-19 {
        fill: url(#linear-gradient-29);
      }

      .cls-20 {
        fill: url(#linear-gradient-19);
      }

      .cls-77 {
        fill: #c7c6c5;
      }

      .cls-78 {
        fill: #bdbec0;
      }

      .cls-21 {
        fill: url(#linear-gradient-10);
      }

      .cls-42 {
        fill: url(#linear-gradient-34);
      }

      .cls-79 {
        fill: #f0efee;
      }

      .cls-80 {
        fill: #d6d6d5;
      }

      .cls-81 {
        fill: #f6f5f5;
      }

      .cls-22 {
        fill: url(#linear-gradient-3);
      }

      .cls-82 {
        fill: #fdfdfd;
      }

      .cls-83 {
        mix-blend-mode: screen;
      }

      .cls-84 {
        fill: #e4e3e3;
      }

      .cls-23 {
        fill: url(#linear-gradient-22);
      }

      .cls-85 {
        fill: #fbfbfb;
      }

      .cls-86 {
        fill: #efeeed;
      }

      .cls-87 {
        fill: #d5d5d4;
      }

      .cls-88 {
        fill: #c8c7c6;
      }

      .cls-89 {
        fill: #f4f3f3;
      }

      .cls-90 {
        fill: #cccbca;
      }

      .cls-24 {
        fill: url(#linear-gradient-17);
      }

      .cls-25 {
        fill: url(#linear-gradient-16);
      }

      .cls-91 {
        fill: #d2d3d4;
      }

      .cls-92 {
        fill: #dfdedd;
      }

      .cls-93 {
        fill: #d1d0cf;
      }

      .cls-26 {
        fill: url(#linear-gradient-26);
      }

      .cls-94 {
        fill: #e3e2e2;
      }

      .cls-43 {
        fill: url(#linear-gradient-36);
      }

      .cls-27 {
        fill: url(#linear-gradient-23);
      }

      .cls-95 {
        fill: #d4d3d2;
      }

      .cls-96 {
        fill: #999;
      }

      .cls-28 {
        fill: url(#linear-gradient-15);
      }

      .cls-97 {
        fill: #edeceb;
      }

      .cls-98 {
        fill: #d5d4d3;
      }

      .cls-99 {
        fill: #b3b3b3;
      }

      .cls-44 {
        fill: #b8773a;
      }

      .cls-100 {
        fill: #e1e0e0;
      }

      .cls-29 {
        fill: url(#linear-gradient-20);
      }

      .cls-101 {
        fill: #f2f1f0;
      }

      .cls-102 {
        fill: #e2e1e1;
      }

      .cls-103 {
        fill: #e0dfde;
      }

      .cls-104 {
        fill: #d2d1d0;
      }

      .cls-105 {
        fill: #e9e8e7;
      }

      .cls-30 {
        fill: url(#linear-gradient-30);
      }

      .cls-106 {
        fill: #eeedec;
      }

      .cls-31 {
        fill: url(#linear-gradient-4);
      }

      .cls-107 {
        fill: #cac9c9;
      }

      .cls-108 {
        fill: #cdcccb;
      }

      .cls-109 {
        fill: #d9d8d7;
      }

      .cls-110 {
        fill: #fafaf9;
      }

      .cls-32 {
        fill: url(#linear-gradient-9);
      }

      .cls-33 {
        fill: none;
      }

      .cls-34 {
        fill: url(#linear-gradient);
      }

      .cls-111 {
        fill: #e0e0df;
      }
    </style>
    <linearGradient id="linear-gradient" x1="320.13" y1="293.95" x2="396.52" y2="293.95" gradientUnits="userSpaceOnUse">
      <stop offset="0" stop-color="#c3c2c1"/>
      <stop offset="1" stop-color="#878787"/>
    </linearGradient>
    <linearGradient id="linear-gradient-2" x1="156.48" y1="258.04" x2="220.32" y2="258.04" gradientTransform="translate(547.88) rotate(-180) scale(1 -1)" gradientUnits="userSpaceOnUse">
      <stop offset="0" stop-color="#ebebeb"/>
      <stop offset="1" stop-color="#d7d6d5"/>
    </linearGradient>
    <linearGradient id="linear-gradient-3" x1="399.51" y1="250.95" x2="349.49" y2="253.38" gradientUnits="userSpaceOnUse">
      <stop offset="0" stop-color="#fff"/>
      <stop offset="1" stop-color="#acacaa"/>
    </linearGradient>
    <linearGradient id="linear-gradient-4" x1="36.19" y1="76.19" x2="103.9" y2="76.19" xlink:href="#linear-gradient"/>
    <linearGradient id="linear-gradient-5" x1="448.52" y1="38.14" x2="505.11" y2="38.14" xlink:href="#linear-gradient-2"/>
    <linearGradient id="linear-gradient-6" x1="-37.87" y1="431.76" x2=".14" y2="431.76" gradientTransform="translate(323.14 488.07) scale(1 -1)" gradientUnits="userSpaceOnUse">
      <stop offset="0" stop-color="#fff"/>
      <stop offset=".13" stop-color="#e3e3e2"/>
      <stop offset=".89" stop-color="#d1d2d0"/>
      <stop offset="1" stop-color="#878787"/>
    </linearGradient>
    <linearGradient id="linear-gradient-7" x1="28.68" y1="-76.99" x2="42.68" y2="-76.99" gradientTransform="translate(90.75 124.64)" gradientUnits="userSpaceOnUse">
      <stop offset="0" stop-color="#fff"/>
      <stop offset=".25" stop-color="#e3e3e2"/>
      <stop offset=".79" stop-color="#d2d3d1"/>
      <stop offset="1" stop-color="#828282"/>
    </linearGradient>
    <linearGradient id="linear-gradient-8" x1="-37.87" y1="465.61" x2=".14" y2="465.61" gradientTransform="translate(323.14 488.07) scale(1 -1)" gradientUnits="userSpaceOnUse">
      <stop offset="0" stop-color="#858585"/>
      <stop offset=".11" stop-color="#d1d2d0"/>
      <stop offset=".91" stop-color="#b1b1af"/>
      <stop offset="1" stop-color="#7a7a7a"/>
    </linearGradient>
    <linearGradient id="linear-gradient-9" x1="-37.87" y1="476.78" x2=".14" y2="476.78" xlink:href="#linear-gradient-6"/>
    <linearGradient id="linear-gradient-10" x1="-75.79" y1="431.76" x2="-37.78" y2="431.76" xlink:href="#linear-gradient-6"/>
    <linearGradient id="linear-gradient-11" x1="-75.79" y1="465.61" x2="-37.78" y2="465.61" xlink:href="#linear-gradient-8"/>
    <linearGradient id="linear-gradient-12" x1="-75.79" y1="476.78" x2="-37.78" y2="476.78" xlink:href="#linear-gradient-6"/>
    <linearGradient id="linear-gradient-13" x1="-113.79" y1="431.76" x2="-75.79" y2="431.76" xlink:href="#linear-gradient-6"/>
    <linearGradient id="linear-gradient-14" x1="-113.79" y1="465.61" x2="-75.79" y2="465.61" xlink:href="#linear-gradient-8"/>
    <linearGradient id="linear-gradient-15" x1="-113.79" y1="476.78" x2="-75.79" y2="476.78" xlink:href="#linear-gradient-6"/>
    <linearGradient id="linear-gradient-16" x1="-151.71" y1="431.76" x2="-113.71" y2="431.76" xlink:href="#linear-gradient-6"/>
    <linearGradient id="linear-gradient-17" x1="-151.71" y1="465.61" x2="-113.71" y2="465.61" xlink:href="#linear-gradient-8"/>
    <linearGradient id="linear-gradient-18" x1="-151.71" y1="476.78" x2="-113.71" y2="476.78" xlink:href="#linear-gradient-6"/>
    <linearGradient id="linear-gradient-19" x1="-189.72" y1="431.76" x2="-151.71" y2="431.76" gradientTransform="translate(323.14 488.07) scale(1 -1)" gradientUnits="userSpaceOnUse">
      <stop offset="0" stop-color="#9e9e9e"/>
      <stop offset=".13" stop-color="#c3c2c1"/>
      <stop offset=".22" stop-color="#cccccb"/>
      <stop offset=".89" stop-color="#e6e6e2"/>
      <stop offset="1" stop-color="#878787"/>
    </linearGradient>
    <linearGradient id="linear-gradient-20" x1="-189.72" y1="465.61" x2="-151.71" y2="465.61" gradientTransform="translate(323.14 488.07) scale(1 -1)" gradientUnits="userSpaceOnUse">
      <stop offset="0" stop-color="#858585"/>
      <stop offset=".11" stop-color="#b4b4b3"/>
      <stop offset=".91" stop-color="#bbbbba"/>
      <stop offset="1" stop-color="#7a7a7a"/>
    </linearGradient>
    <linearGradient id="linear-gradient-21" x1="-189.72" y1="476.78" x2="-151.71" y2="476.78" xlink:href="#linear-gradient-6"/>
    <linearGradient id="linear-gradient-22" x1="215.31" y1="431.76" x2="177.3" y2="431.76" gradientTransform="translate(538.51 488.07) rotate(-180)" xlink:href="#linear-gradient-6"/>
    <linearGradient id="linear-gradient-23" x1="215.31" y1="376.46" x2="177.3" y2="376.46" gradientTransform="translate(538.51 488.07) rotate(-180)" xlink:href="#linear-gradient-6"/>
    <linearGradient id="linear-gradient-24" x1="215.31" y1="321.15" x2="177.3" y2="321.15" gradientTransform="translate(538.51 488.07) rotate(-180)" xlink:href="#linear-gradient-6"/>
    <linearGradient id="linear-gradient-25" x1="168.8" y1="465.61" x2="215.31" y2="465.61" gradientTransform="translate(538.51 488.07) rotate(-180)" xlink:href="#linear-gradient-20"/>
    <linearGradient id="linear-gradient-26" x1="215.31" y1="476.78" x2="161.89" y2="476.78" gradientTransform="translate(538.51 488.07) rotate(-180)" xlink:href="#linear-gradient-6"/>
    <linearGradient id="linear-gradient-27" x1="-327.99" y1="380.31" x2="-327.99" y2="388.73" gradientTransform="translate(750.02 494.91) rotate(90)" gradientUnits="userSpaceOnUse">
      <stop offset="0" stop-color="#c9c9c9"/>
      <stop offset=".83" stop-color="#bcbbbb"/>
      <stop offset=".85" stop-color="#bbbab8"/>
      <stop offset="1" stop-color="#7a7a7a"/>
    </linearGradient>
    <linearGradient id="linear-gradient-28" x1="228.51" y1="-201.53" x2="228.51" y2="-194.62" gradientTransform="translate(571.23 273.64) rotate(-90)" xlink:href="#linear-gradient-7"/>
    <linearGradient id="linear-gradient-29" x1="-383.3" y1="380.31" x2="-383.3" y2="388.73" xlink:href="#linear-gradient-27"/>
    <linearGradient id="linear-gradient-30" x1="162.03" y1="-201.53" x2="162.03" y2="-194.62" gradientTransform="translate(571.23 273.64) rotate(-90)" xlink:href="#linear-gradient-7"/>
    <linearGradient id="linear-gradient-31" x1="-444.74" y1="380.31" x2="-444.74" y2="388.73" xlink:href="#linear-gradient-27"/>
    <linearGradient id="linear-gradient-32" x1="106.73" y1="-201.53" x2="106.73" y2="-194.62" gradientTransform="translate(571.23 273.64) rotate(-90)" xlink:href="#linear-gradient-7"/>
    <linearGradient id="linear-gradient-33" x1="68.8" y1="-247.95" x2="68.8" y2="-198.07" gradientTransform="translate(571.23 273.64) rotate(-90)" gradientUnits="userSpaceOnUse">
      <stop offset="0" stop-color="#fff"/>
      <stop offset=".08" stop-color="#d4d4d3"/>
      <stop offset=".93" stop-color="#d9dad8"/>
      <stop offset="1" stop-color="#828282"/>
    </linearGradient>
    <linearGradient id="linear-gradient-34" x1="-81.21" y1="316.44" x2="-81.21" y2="348.99" gradientTransform="translate(431.2 488.07) scale(1 -1)" gradientUnits="userSpaceOnUse">
      <stop offset="0" stop-color="#fff"/>
      <stop offset=".69" stop-color="#fff"/>
      <stop offset=".8" stop-color="#f6f6f6"/>
      <stop offset=".97" stop-color="#dedfdd"/>
      <stop offset="1" stop-color="#d9dad8"/>
    </linearGradient>
    <linearGradient id="linear-gradient-35" x1="129.44" y1="-79.47" x2="129.44" y2="-46.92" gradientTransform="translate(471.65 241.54) rotate(-180) scale(1 -1)" xlink:href="#linear-gradient-34"/>
    <linearGradient id="linear-gradient-36" x1="-81.21" y1="371.5" x2="-81.21" y2="404.05" xlink:href="#linear-gradient-34"/>
    <linearGradient id="linear-gradient-37" x1="-183.89" y1="426.66" x2="-183.89" y2="459.21" xlink:href="#linear-gradient-34"/>
  </defs>
  <g class="cls-59">
    <g id="Layer_1" data-name="Layer 1">
      <g>
        <g class="cls-45">
          <polygon class="cls-48" points="279.31 238.49 279.31 298.86 279.31 300.89 279.31 312.34 355.7 312.34 355.7 300.89 355.7 298.86 355.7 238.49 279.31 238.49"/>
          <polygon class="cls-82" points="280.03 238.29 280.03 298.66 280.03 300.69 280.03 312.13 356.42 312.13 356.42 300.69 356.42 298.66 356.42 238.29 280.03 238.29"/>
          <polygon class="cls-85" points="280.74 238.09 280.74 298.46 280.74 300.48 280.74 311.93 357.13 311.93 357.13 300.48 357.13 298.46 357.13 238.09 280.74 238.09"/>
          <polygon class="cls-110" points="281.46 237.89 281.46 298.25 281.46 300.28 281.46 311.73 357.85 311.73 357.85 300.28 357.85 298.25 357.85 237.89 281.46 237.89"/>
          <polygon class="cls-47" points="282.18 237.68 282.18 298.05 282.18 300.08 282.18 311.53 358.57 311.53 358.57 300.08 358.57 298.05 358.57 237.68 282.18 237.68"/>
          <polygon class="cls-74" points="282.89 237.48 282.89 297.85 282.89 299.88 282.89 311.32 359.28 311.32 359.28 299.88 359.28 297.85 359.28 237.48 282.89 237.48"/>
          <polygon class="cls-81" points="283.61 237.28 283.61 297.65 283.61 299.67 283.61 311.12 360 311.12 360 299.67 360 297.65 360 237.28 283.61 237.28"/>
          <polygon class="cls-61" points="284.33 237.08 284.33 297.45 284.33 299.47 284.33 310.92 360.71 310.92 360.71 299.47 360.71 297.45 360.71 237.08 284.33 237.08"/>
          <polygon class="cls-89" points="285.04 236.88 285.04 297.24 285.04 299.27 285.04 310.72 361.43 310.72 361.43 299.27 361.43 297.24 361.43 236.88 285.04 236.88"/>
          <polygon class="cls-72" points="285.76 236.67 285.76 297.04 285.76 299.07 285.76 310.51 362.15 310.51 362.15 299.07 362.15 297.04 362.15 236.67 285.76 236.67"/>
          <polygon class="cls-101" points="286.47 236.47 286.47 296.84 286.47 298.86 286.47 310.31 362.86 310.31 362.86 298.86 362.86 296.84 362.86 236.47 286.47 236.47"/>
          <polygon class="cls-65" points="287.19 236.27 287.19 296.64 287.19 298.66 287.19 310.11 363.58 310.11 363.58 298.66 363.58 296.64 363.58 236.27 287.19 236.27"/>
          <polygon class="cls-79" points="287.91 236.07 287.91 296.43 287.91 298.46 287.91 309.91 364.3 309.91 364.3 298.46 364.3 296.43 364.3 236.07 287.91 236.07"/>
          <polygon class="cls-86" points="288.62 235.86 288.62 296.23 288.62 298.26 288.62 309.7 365.01 309.7 365.01 298.26 365.01 296.23 365.01 235.86 288.62 235.86"/>
          <polygon class="cls-106" points="289.34 235.66 289.34 296.03 289.34 298.05 289.34 309.5 365.73 309.5 365.73 298.05 365.73 296.03 365.73 235.66 289.34 235.66"/>
          <polygon class="cls-97" points="290.05 235.46 290.05 295.83 290.05 297.85 290.05 309.3 366.44 309.3 366.44 297.85 366.44 295.83 366.44 235.46 290.05 235.46"/>
          <polygon class="cls-68" points="290.77 235.26 290.77 295.62 290.77 297.65 290.77 309.1 367.16 309.1 367.16 297.65 367.16 295.62 367.16 235.26 290.77 235.26"/>
          <polygon class="cls-71" points="291.49 235.05 291.49 295.42 291.49 297.45 291.49 308.89 367.88 308.89 367.88 297.45 367.88 295.42 367.88 235.05 291.49 235.05"/>
          <polygon class="cls-67" points="292.2 234.85 292.2 295.22 292.2 297.24 292.2 308.69 368.59 308.69 368.59 297.24 368.59 295.22 368.59 234.85 292.2 234.85"/>
          <polygon class="cls-105" points="292.92 234.65 292.92 295.02 292.92 297.04 292.92 308.49 369.31 308.49 369.31 297.04 369.31 295.02 369.31 234.65 292.92 234.65"/>
          <polygon class="cls-66" points="293.64 234.45 293.64 294.81 293.64 296.84 293.64 308.29 370.03 308.29 370.03 296.84 370.03 294.81 370.03 234.45 293.64 234.45"/>
          <polygon class="cls-54" points="294.35 234.24 294.35 294.61 294.35 296.64 294.35 308.08 370.74 308.08 370.74 296.64 370.74 294.61 370.74 234.24 294.35 234.24"/>
          <polygon class="cls-76" points="295.07 234.04 295.07 294.41 295.07 296.43 295.07 307.88 371.46 307.88 371.46 296.43 371.46 294.41 371.46 234.04 295.07 234.04"/>
          <polygon class="cls-46" points="295.78 233.84 295.78 294.21 295.78 296.23 295.78 307.68 372.17 307.68 372.17 296.23 372.17 294.21 372.17 233.84 295.78 233.84"/>
          <polygon class="cls-84" points="296.5 233.64 296.5 294 296.5 296.03 296.5 307.48 372.89 307.48 372.89 296.03 372.89 294 372.89 233.64 296.5 233.64"/>
          <polygon class="cls-94" points="297.22 233.43 297.22 293.8 297.22 295.83 297.22 307.27 373.61 307.27 373.61 295.83 373.61 293.8 373.61 233.43 297.22 233.43"/>
          <polygon class="cls-102" points="297.93 233.23 297.93 293.6 297.93 295.62 297.93 307.07 374.32 307.07 374.32 295.62 374.32 293.6 374.32 233.23 297.93 233.23"/>
          <polygon class="cls-100" points="298.65 233.03 298.65 293.4 298.65 295.42 298.65 306.87 375.04 306.87 375.04 295.42 375.04 293.4 375.04 233.03 298.65 233.03"/>
          <polygon class="cls-111" points="299.37 232.83 299.37 293.19 299.37 295.22 299.37 306.67 375.75 306.67 375.75 295.22 375.75 293.19 375.75 232.83 299.37 232.83"/>
          <polygon class="cls-103" points="300.08 232.62 300.08 292.99 300.08 295.02 300.08 306.46 376.47 306.46 376.47 295.02 376.47 292.99 376.47 232.62 300.08 232.62"/>
          <polygon class="cls-92" points="300.8 232.42 300.8 292.79 300.8 294.81 300.8 306.26 377.19 306.26 377.19 294.81 377.19 292.79 377.19 232.42 300.8 232.42"/>
          <polygon class="cls-58" points="301.51 232.22 301.51 292.59 301.51 294.61 301.51 306.06 377.9 306.06 377.9 294.61 377.9 292.59 377.9 232.22 301.51 232.22"/>
          <polygon class="cls-53" points="302.23 232.02 302.23 292.38 302.23 294.41 302.23 305.86 378.62 305.86 378.62 294.41 378.62 292.38 378.62 232.02 302.23 232.02"/>
          <polygon class="cls-70" points="302.95 231.81 302.95 292.18 302.95 294.21 302.95 305.65 379.34 305.65 379.34 294.21 379.34 292.18 379.34 231.81 302.95 231.81"/>
          <polygon class="cls-62" points="303.66 231.61 303.66 291.98 303.66 294.01 303.66 305.45 380.05 305.45 380.05 294.01 380.05 291.98 380.05 231.61 303.66 231.61"/>
          <polygon class="cls-49" points="304.38 231.41 304.38 291.78 304.38 293.8 304.38 305.25 380.77 305.25 380.77 293.8 380.77 291.78 380.77 231.41 304.38 231.41"/>
          <polygon class="cls-109" points="305.09 231.21 305.09 291.57 305.09 293.6 305.09 305.05 381.48 305.05 381.48 293.6 381.48 291.57 381.48 231.21 305.09 231.21"/>
          <polygon class="cls-55" points="305.81 231 305.81 291.37 305.81 293.4 305.81 304.85 382.2 304.85 382.2 293.4 382.2 291.37 382.2 231 305.81 231"/>
          <polygon class="cls-51" points="306.53 230.8 306.53 291.17 306.53 293.2 306.53 304.64 382.92 304.64 382.92 293.2 382.92 291.17 382.92 230.8 306.53 230.8"/>
          <polygon class="cls-80" points="307.24 230.6 307.24 290.97 307.24 292.99 307.24 304.44 383.63 304.44 383.63 292.99 383.63 290.97 383.63 230.6 307.24 230.6"/>
          <polygon class="cls-87" points="307.96 230.4 307.96 290.77 307.96 292.79 307.96 304.24 384.35 304.24 384.35 292.79 384.35 290.77 384.35 230.4 307.96 230.4"/>
          <polygon class="cls-98" points="308.68 230.2 308.68 290.56 308.68 292.59 308.68 304.04 385.07 304.04 385.07 292.59 385.07 290.56 385.07 230.2 308.68 230.2"/>
          <polygon class="cls-95" points="309.39 229.99 309.39 290.36 309.39 292.39 309.39 303.83 385.78 303.83 385.78 292.39 385.78 290.36 385.78 229.99 309.39 229.99"/>
          <polygon class="cls-73" points="310.11 229.79 310.11 290.16 310.11 292.18 310.11 303.63 386.5 303.63 386.5 292.18 386.5 290.16 386.5 229.79 310.11 229.79"/>
          <polygon class="cls-104" points="310.82 229.59 310.82 289.96 310.82 291.98 310.82 303.43 387.21 303.43 387.21 291.98 387.21 289.96 387.21 229.59 310.82 229.59"/>
          <polygon class="cls-93" points="311.54 229.39 311.54 289.75 311.54 291.78 311.54 303.23 387.93 303.23 387.93 291.78 387.93 289.75 387.93 229.39 311.54 229.39"/>
          <polygon class="cls-56" points="312.26 229.18 312.26 289.55 312.26 291.58 312.26 303.02 388.65 303.02 388.65 291.58 388.65 289.55 388.65 229.18 312.26 229.18"/>
          <polygon class="cls-35" points="312.97 228.98 312.97 289.35 312.97 291.37 312.97 302.82 389.36 302.82 389.36 291.37 389.36 289.35 389.36 228.98 312.97 228.98"/>
          <polygon class="cls-69" points="313.69 228.78 313.69 289.15 313.69 291.17 313.69 302.62 390.08 302.62 390.08 291.17 390.08 289.15 390.08 228.78 313.69 228.78"/>
          <polygon class="cls-75" points="314.41 228.58 314.41 288.94 314.41 290.97 314.41 302.42 390.79 302.42 390.79 290.97 390.79 288.94 390.79 228.58 314.41 228.58"/>
          <polygon class="cls-108" points="315.12 228.37 315.12 288.74 315.12 290.77 315.12 302.21 391.51 302.21 391.51 290.77 391.51 288.74 391.51 228.37 315.12 228.37"/>
          <polygon class="cls-90" points="315.84 228.17 315.84 288.54 315.84 290.56 315.84 302.01 392.23 302.01 392.23 290.56 392.23 288.54 392.23 228.17 315.84 228.17"/>
          <polygon class="cls-36" points="316.55 227.97 316.55 288.34 316.55 290.36 316.55 301.81 392.94 301.81 392.94 290.36 392.94 288.34 392.94 227.97 316.55 227.97"/>
          <polygon class="cls-107" points="317.27 227.77 317.27 288.13 317.27 290.16 317.27 301.61 393.66 301.61 393.66 290.16 393.66 288.13 393.66 227.77 317.27 227.77"/>
          <polygon class="cls-60" points="317.99 227.56 317.99 287.93 317.99 289.96 317.99 301.4 394.38 301.4 394.38 289.96 394.38 287.93 394.38 227.56 317.99 227.56"/>
          <polygon class="cls-52" points="318.7 227.36 318.7 287.73 318.7 289.75 318.7 301.2 395.09 301.2 395.09 289.75 395.09 287.73 395.09 227.36 318.7 227.36"/>
          <polygon class="cls-88" points="319.42 227.16 319.42 287.53 319.42 289.55 319.42 301 395.81 301 395.81 289.55 395.81 287.53 395.81 227.16 319.42 227.16"/>
          <polygon class="cls-77" points="320.13 226.96 320.13 287.32 320.13 289.35 320.13 300.8 396.52 300.8 396.52 289.35 396.52 287.32 396.52 226.96 320.13 226.96"/>
        </g>
        <rect class="cls-34" x="320.13" y="287.21" width="76.39" height="13.48"/>
        <rect class="cls-2" x="320.13" y="226.85" width="76.39" height="62.39"/>
        <path class="cls-41" d="m396.53,226.45h-76.39c-.26,0-.48.18-.48.39v73.84c0,.22.22.39.48.39h76.39c.26,0,.48-.17.48-.39v-73.84c0-.22-.21-.39-.48-.39Z"/>
        <g>
          <path class="cls-78" d="m367.82,251.01c-.83,2.32.8,4.76,3.65,5.44,2.85.68,5.83-.65,6.66-2.98.83-2.33-.8-4.76-3.65-5.44-2.85-.68-5.83.65-6.66,2.98Z"/>
          <g>
            <polygon class="cls-96" points="379.96 263.94 381.29 263.34 366 240.54 364.67 241.13 379.96 263.94"/>
            <polygon class="cls-96" points="387.3 246.54 386.58 245.45 358.66 257.94 359.38 259.02 387.3 246.54"/>
          </g>
          <path class="cls-22" d="m401.05,239.52c-3.96-5.83-10.61-10.43-19.06-12.45h0c-8.45-2.02-17.1-1.07-24.27,2.1-7.21,3.18-12.93,8.61-15.48,15.52-.02.07-.06.13-.08.19-2.47,6.9-1.3,13.96,2.57,19.82,3.94,5.95,10.66,10.66,19.24,12.71h0c8.57,2.05,17.35,1.04,24.58-2.24,7.13-3.23,12.77-8.67,15.24-15.57.02-.07.04-.13.06-.2,2.41-6.94,1.17-14.03-2.81-19.88Zm-15.74,15.67c-.98,2.73-3.2,4.88-6.01,6.18-2.91,1.34-6.46,1.77-9.92.94h0c-3.46-.83-6.17-2.74-7.74-5.16-1.51-2.33-1.96-5.12-.98-7.85.02-.07.06-.13.08-.2,1.05-2.74,3.35-4.88,6.24-6.12,2.85-1.24,6.27-1.6,9.61-.8h0c3.34.8,5.97,2.61,7.57,4.9,1.61,2.32,2.14,5.14,1.21,7.91-.02.07-.03.13-.06.2Z"/>
          <path class="cls-96" d="m372.05,254.85c1.76.42,3.62-.41,4.14-1.85.51-1.44-.5-2.95-2.27-3.37-1.77-.42-3.62.41-4.14,1.85-.51,1.44.5,2.95,2.27,3.38Z"/>
          <path class="cls-78" d="m373.74,250.13c1.42.34,2.24,1.56,1.83,2.72-.42,1.16-1.92,1.84-3.34,1.49-1.43-.34-2.25-1.56-1.83-2.73.41-1.16,1.91-1.83,3.34-1.49Z"/>
          <g>
            <path class="cls-57" d="m363,249.86c1.61-4.49,7.4-7.08,12.9-5.77,5.5,1.31,8.67,6.04,7.06,10.53-1.61,4.49-7.39,7.08-12.89,5.77-5.5-1.32-8.67-6.04-7.07-10.53Zm.62.15c-1.51,4.21,1.46,8.65,6.63,9.88,5.16,1.23,10.59-1.2,12.1-5.41,1.51-4.22-1.46-8.65-6.62-9.88-5.16-1.23-10.59,1.2-12.1,5.41Z"/>
            <path class="cls-48" d="m377.6,250.02c.79,1.26,2.05,2.03,2.81,1.71.76-.32.73-1.6-.06-2.86-.79-1.26-2.05-2.03-2.81-1.72-.76.32-.73,1.6.06,2.86Z"/>
            <g class="cls-83">
              <path class="cls-63" d="m364.2,254.26c.88,2.71,3.58,4.48,6,3.95,2.42-.53,3.67-3.16,2.77-5.87-.89-2.71-3.58-4.47-6-3.94-2.42.54-3.66,3.16-2.77,5.86Z"/>
            </g>
          </g>
        </g>
      </g>
      <g>
        <g class="cls-45">
          <polygon class="cls-48" points="0 17.42 0 81.4 0 83.54 0 95.68 67.71 95.68 67.71 83.54 67.71 81.4 67.71 17.42 0 17.42"/>
          <polygon class="cls-82" points=".63 17.21 .63 81.18 .63 83.33 .63 95.46 68.35 95.46 68.35 83.33 68.35 81.18 68.35 17.21 .63 17.21"/>
          <polygon class="cls-85" points="1.27 17 1.27 80.97 1.27 83.11 1.27 95.25 68.98 95.25 68.98 83.11 68.98 80.97 68.98 17 1.27 17"/>
          <polygon class="cls-110" points="1.9 16.78 1.9 80.75 1.9 82.9 1.9 95.03 69.62 95.03 69.62 82.9 69.62 80.75 69.62 16.78 1.9 16.78"/>
          <polygon class="cls-47" points="2.54 16.57 2.54 80.54 2.54 82.68 2.54 94.82 70.25 94.82 70.25 82.68 70.25 80.54 70.25 16.57 2.54 16.57"/>
          <polygon class="cls-74" points="3.17 16.35 3.17 80.32 3.17 82.47 3.17 94.6 70.89 94.6 70.89 82.47 70.89 80.32 70.89 16.35 3.17 16.35"/>
          <polygon class="cls-81" points="3.81 16.14 3.81 80.11 3.81 82.26 3.81 94.39 71.52 94.39 71.52 82.26 71.52 80.11 71.52 16.14 3.81 16.14"/>
          <polygon class="cls-61" points="4.44 15.92 4.44 79.89 4.44 82.04 4.44 94.17 72.16 94.17 72.16 82.04 72.16 79.89 72.16 15.92 4.44 15.92"/>
          <polygon class="cls-89" points="5.08 15.71 5.08 79.68 5.08 81.83 5.08 93.96 72.79 93.96 72.79 81.83 72.79 79.68 72.79 15.71 5.08 15.71"/>
          <polygon class="cls-72" points="5.71 15.49 5.71 79.47 5.71 81.61 5.71 93.75 73.43 93.75 73.43 81.61 73.43 79.47 73.43 15.49 5.71 15.49"/>
          <polygon class="cls-101" points="6.35 15.28 6.35 79.25 6.35 81.4 6.35 93.53 74.06 93.53 74.06 81.4 74.06 79.25 74.06 15.28 6.35 15.28"/>
          <polygon class="cls-65" points="6.98 15.07 6.98 79.04 6.98 81.18 6.98 93.32 74.7 93.32 74.7 81.18 74.7 79.04 74.7 15.07 6.98 15.07"/>
          <polygon class="cls-79" points="7.62 14.85 7.62 78.82 7.62 80.97 7.62 93.1 75.33 93.1 75.33 80.97 75.33 78.82 75.33 14.85 7.62 14.85"/>
          <polygon class="cls-86" points="8.25 14.64 8.25 78.61 8.25 80.75 8.25 92.89 75.97 92.89 75.97 80.75 75.97 78.61 75.97 14.64 8.25 14.64"/>
          <polygon class="cls-106" points="8.89 14.42 8.89 78.39 8.89 80.54 8.89 92.67 76.6 92.67 76.6 80.54 76.6 78.39 76.6 14.42 8.89 14.42"/>
          <polygon class="cls-97" points="9.52 14.21 9.52 78.18 9.52 80.32 9.52 92.46 77.24 92.46 77.24 80.32 77.24 78.18 77.24 14.21 9.52 14.21"/>
          <polygon class="cls-68" points="10.16 13.99 10.16 77.96 10.16 80.11 10.16 92.24 77.87 92.24 77.87 80.11 77.87 77.96 77.87 13.99 10.16 13.99"/>
          <polygon class="cls-71" points="10.79 13.78 10.79 77.75 10.79 79.9 10.79 92.03 78.51 92.03 78.51 79.9 78.51 77.75 78.51 13.78 10.79 13.78"/>
          <polygon class="cls-67" points="11.43 13.56 11.43 77.54 11.43 79.68 11.43 91.81 79.14 91.81 79.14 79.68 79.14 77.54 79.14 13.56 11.43 13.56"/>
          <polygon class="cls-105" points="12.06 13.35 12.06 77.32 12.06 79.47 12.06 91.6 79.78 91.6 79.78 79.47 79.78 77.32 79.78 13.35 12.06 13.35"/>
          <polygon class="cls-66" points="12.7 13.13 12.7 77.11 12.7 79.25 12.7 91.39 80.41 91.39 80.41 79.25 80.41 77.11 80.41 13.13 12.7 13.13"/>
          <polygon class="cls-54" points="13.33 12.92 13.33 76.89 13.33 79.04 13.33 91.17 81.05 91.17 81.05 79.04 81.05 76.89 81.05 12.92 13.33 12.92"/>
          <polygon class="cls-76" points="13.97 12.71 13.97 76.68 13.97 78.82 13.97 90.96 81.68 90.96 81.68 78.82 81.68 76.68 81.68 12.71 13.97 12.71"/>
          <polygon class="cls-46" points="14.6 12.49 14.6 76.46 14.6 78.61 14.6 90.74 82.31 90.74 82.31 78.61 82.31 76.46 82.31 12.49 14.6 12.49"/>
          <polygon class="cls-84" points="15.24 12.28 15.24 76.25 15.24 78.39 15.24 90.53 82.95 90.53 82.95 78.39 82.95 76.25 82.95 12.28 15.24 12.28"/>
          <polygon class="cls-94" points="15.87 12.06 15.87 76.03 15.87 78.18 15.87 90.31 83.58 90.31 83.58 78.18 83.58 76.03 83.58 12.06 15.87 12.06"/>
          <polygon class="cls-102" points="16.51 11.85 16.51 75.82 16.51 77.97 16.51 90.1 84.22 90.1 84.22 77.97 84.22 75.82 84.22 11.85 16.51 11.85"/>
          <polygon class="cls-100" points="17.14 11.63 17.14 75.6 17.14 77.75 17.14 89.88 84.85 89.88 84.85 77.75 84.85 75.6 84.85 11.63 17.14 11.63"/>
          <polygon class="cls-111" points="17.78 11.42 17.78 75.39 17.78 77.54 17.78 89.67 85.49 89.67 85.49 77.54 85.49 75.39 85.49 11.42 17.78 11.42"/>
          <polygon class="cls-103" points="18.41 11.2 18.41 75.18 18.41 77.32 18.41 89.45 86.12 89.45 86.12 77.32 86.12 75.18 86.12 11.2 18.41 11.2"/>
          <polygon class="cls-92" points="19.05 10.99 19.05 74.96 19.05 77.11 19.05 89.24 86.76 89.24 86.76 77.11 86.76 74.96 86.76 10.99 19.05 10.99"/>
          <polygon class="cls-58" points="19.68 10.77 19.68 74.75 19.68 76.89 19.68 89.02 87.39 89.02 87.39 76.89 87.39 74.75 87.39 10.77 19.68 10.77"/>
          <polygon class="cls-53" points="20.31 10.56 20.31 74.53 20.31 76.68 20.31 88.81 88.03 88.81 88.03 76.68 88.03 74.53 88.03 10.56 20.31 10.56"/>
          <polygon class="cls-70" points="20.95 10.35 20.95 74.32 20.95 76.46 20.95 88.6 88.66 88.6 88.66 76.46 88.66 74.32 88.66 10.35 20.95 10.35"/>
          <polygon class="cls-62" points="21.58 10.13 21.58 74.1 21.58 76.25 21.58 88.38 89.3 88.38 89.3 76.25 89.3 74.1 89.3 10.13 21.58 10.13"/>
          <polygon class="cls-49" points="22.22 9.92 22.22 73.89 22.22 76.03 22.22 88.17 89.93 88.17 89.93 76.03 89.93 73.89 89.93 9.92 22.22 9.92"/>
          <polygon class="cls-109" points="22.85 9.7 22.85 73.67 22.85 75.82 22.85 87.95 90.57 87.95 90.57 75.82 90.57 73.67 90.57 9.7 22.85 9.7"/>
          <polygon class="cls-55" points="23.49 9.49 23.49 73.46 23.49 75.61 23.49 87.74 91.2 87.74 91.2 75.61 91.2 73.46 91.2 9.49 23.49 9.49"/>
          <polygon class="cls-51" points="24.12 9.27 24.12 73.24 24.12 75.39 24.12 87.52 91.84 87.52 91.84 75.39 91.84 73.24 91.84 9.27 24.12 9.27"/>
          <polygon class="cls-80" points="24.76 9.06 24.76 73.03 24.76 75.18 24.76 87.31 92.47 87.31 92.47 75.18 92.47 73.03 92.47 9.06 24.76 9.06"/>
          <polygon class="cls-87" points="25.39 8.84 25.39 72.82 25.39 74.96 25.39 87.09 93.11 87.09 93.11 74.96 93.11 72.82 93.11 8.84 25.39 8.84"/>
          <polygon class="cls-98" points="26.03 8.63 26.03 72.6 26.03 74.75 26.03 86.88 93.74 86.88 93.74 74.75 93.74 72.6 93.74 8.63 26.03 8.63"/>
          <polygon class="cls-95" points="26.66 8.42 26.66 72.39 26.66 74.53 26.66 86.66 94.38 86.66 94.38 74.53 94.38 72.39 94.38 8.42 26.66 8.42"/>
          <polygon class="cls-73" points="27.3 8.2 27.3 72.17 27.3 74.32 27.3 86.45 95.01 86.45 95.01 74.32 95.01 72.17 95.01 8.2 27.3 8.2"/>
          <polygon class="cls-104" points="27.93 7.99 27.93 71.96 27.93 74.1 27.93 86.24 95.65 86.24 95.65 74.1 95.65 71.96 95.65 7.99 27.93 7.99"/>
          <polygon class="cls-93" points="28.57 7.77 28.57 71.74 28.57 73.89 28.57 86.02 96.28 86.02 96.28 73.89 96.28 71.74 96.28 7.77 28.57 7.77"/>
          <polygon class="cls-56" points="29.2 7.56 29.2 71.53 29.2 73.67 29.2 85.81 96.92 85.81 96.92 73.67 96.92 71.53 96.92 7.56 29.2 7.56"/>
          <polygon class="cls-35" points="29.84 7.34 29.84 71.31 29.84 73.46 29.84 85.59 97.55 85.59 97.55 73.46 97.55 71.31 97.55 7.34 29.84 7.34"/>
          <polygon class="cls-69" points="30.47 7.13 30.47 71.1 30.47 73.25 30.47 85.38 98.19 85.38 98.19 73.25 98.19 71.1 98.19 7.13 30.47 7.13"/>
          <polygon class="cls-75" points="31.11 6.91 31.11 70.89 31.11 73.03 31.11 85.16 98.82 85.16 98.82 73.03 98.82 70.89 98.82 6.91 31.11 6.91"/>
          <polygon class="cls-108" points="31.74 6.7 31.74 70.67 31.74 72.82 31.74 84.95 99.46 84.95 99.46 72.82 99.46 70.67 99.46 6.7 31.74 6.7"/>
          <polygon class="cls-90" points="32.38 6.48 32.38 70.46 32.38 72.6 32.38 84.73 100.09 84.73 100.09 72.6 100.09 70.46 100.09 6.48 32.38 6.48"/>
          <polygon class="cls-36" points="33.01 6.27 33.01 70.24 33.01 72.39 33.01 84.52 100.72 84.52 100.72 72.39 100.72 70.24 100.72 6.27 33.01 6.27"/>
          <polygon class="cls-107" points="33.65 6.06 33.65 70.03 33.65 72.17 33.65 84.3 101.36 84.3 101.36 72.17 101.36 70.03 101.36 6.06 33.65 6.06"/>
          <polygon class="cls-60" points="34.28 5.84 34.28 69.81 34.28 71.96 34.28 84.09 101.99 84.09 101.99 71.96 101.99 69.81 101.99 5.84 34.28 5.84"/>
          <polygon class="cls-52" points="34.92 5.63 34.92 69.6 34.92 71.74 34.92 83.88 102.63 83.88 102.63 71.74 102.63 69.6 102.63 5.63 34.92 5.63"/>
          <polygon class="cls-88" points="35.55 5.41 35.55 69.38 35.55 71.53 35.55 83.66 103.26 83.66 103.26 71.53 103.26 69.38 103.26 5.41 35.55 5.41"/>
          <polygon class="cls-77" points="36.19 5.2 36.19 69.17 36.19 71.32 36.19 83.45 103.9 83.45 103.9 71.32 103.9 69.17 103.9 5.2 36.19 5.2"/>
        </g>
        <g>
          <rect class="cls-31" x="36.19" y="69.05" width="67.71" height="14.28"/>
          <rect class="cls-3" x="36.19" y="5.08" width="67.71" height="66.12"/>
        </g>
        <path class="cls-44" d="m103.9,4.66H36.19c-.23,0-.42.19-.42.42v78.25c0,.23.19.41.42.41h67.71c.23,0,.43-.18.43-.41V5.08c0-.23-.19-.42-.43-.42Z"/>
        <g>
          <path class="cls-64" d="m46.68,29.98l-1.3.55c-3.84-7.35-3.63-14.71.56-19.23l1.14,1.06c-3.78,4.09-3.94,10.84-.4,17.62Z"/>
          <path class="cls-99" d="m52.78,38.61c-.39.42-1.09.41-1.56-.03-2.74-2.54-4.96-5.41-6.58-8.52-.3-.56-.09-1.21.44-1.43.54-.23,1.21.04,1.51.6,1.49,2.85,3.52,5.49,6.05,7.82.47.44.54,1.14.15,1.55Z"/>
          <path class="cls-64" d="m56.69,38.35c1.75,1.62,2.37,3.8,1.38,4.88-.99,1.06-3.21.62-4.97-1.01-1.75-1.62-2.37-3.81-1.38-4.87,1-1.07,3.22-.62,4.97,1Z"/>
          <path class="cls-50" d="m61.25,41.17c.89.83,1.02,2.15.28,2.96h0c-.74.8-2.07.78-2.97-.05l-7.33-6.79c-.9-.83-1.02-2.15-.28-2.96h0c.74-.8,2.07-.78,2.97.05l7.33,6.79Z"/>
          <path class="cls-50" d="m60.54,34.73c.84.78.56,2.47-.64,3.77h0c-1.2,1.29-2.86,1.71-3.7.93l-5.51-5.1c-.84-.78-.56-2.47.64-3.76h0c1.2-1.3,2.86-1.71,3.71-.93l5.51,5.1Z"/>
          <path class="cls-99" d="m61.8,37.49c1.03.95,1.17,2.46.33,3.38h0c-.85.92-2.37.89-3.4-.06l-6.68-6.19c-1.03-.95-1.17-2.46-.32-3.38h0c.85-.92,2.37-.88,3.39.07l6.68,6.19Z"/>
          <g>
            <path class="cls-64" d="m64.61,10.61l.45-1.34c-7.62-3.27-14.95-2.49-19.13,2.02l1.14,1.06c3.78-4.08,10.51-4.75,17.54-1.74Z"/>
            <path class="cls-99" d="m73.69,16.04c.39-.42.33-1.12-.14-1.56-2.75-2.54-5.77-4.53-9-5.91-.59-.25-1.22,0-1.4.55-.19.55.13,1.21.71,1.46,2.96,1.27,5.74,3.1,8.26,5.43.47.44,1.18.45,1.56.03Z"/>
            <path class="cls-64" d="m73.73,19.95c1.75,1.62,3.97,2.08,4.97,1.01.99-1.07.37-3.25-1.38-4.87-1.75-1.62-3.97-2.07-4.97-1.01-.99,1.07-.36,3.26,1.38,4.87Z"/>
            <path class="cls-50" d="m76.89,24.28c.9.83,2.23.86,2.97.05h0c.74-.8.62-2.13-.28-2.96l-7.33-6.79c-.9-.83-2.23-.85-2.97-.05h0c-.74.8-.62,2.13.28,2.96l7.33,6.79Z"/>
            <path class="cls-50" d="m75.25,28.56c1.43,1.32,3.55,1.36,4.73.08h0c1.19-1.28.98-3.38-.44-4.71l-9.3-8.61c-1.43-1.32-3.54-1.36-4.73-.09h0c-1.19,1.28-.98,3.38.44,4.71l9.3,8.61Z"/>
          </g>
          <path class="cls-99" d="m46.42,11.75c2.65-2.86,5.87-4.31,7.72-3.6-.07-.11-.15-.21-.26-.31-1.62-1.5-5.37-.07-8.39,3.19-3.02,3.26-4.16,7.11-2.54,8.62.21.19.41.3.62.34-1.11-1.7.07-5.22,2.86-8.22Z"/>
          <path class="cls-50" d="m49.02,14.3c2.81-3.03,6.01-4.72,5.12-6.15-1.84-.71-5.07.74-7.72,3.6-2.78,3.01-3.97,6.52-2.86,8.22,1.39.25,2.82-2.83,5.45-5.68Z"/>
          <path class="cls-99" d="m75.96,22.2c1.03.95,1.17,2.47.32,3.38h0c-.85.91-2.36.89-3.39-.06l-6.68-6.19c-1.03-.95-1.17-2.47-.32-3.38h0c.85-.91,2.37-.89,3.4.07l6.68,6.18Z"/>
        </g>
        <g>
          <path class="cls-77" d="m95.56,68.04c.68.07,1.24-.45,1.25-1.16l.19-16.44c.01-.71-.54-1.35-1.22-1.42l-29.25-3.05c-.68-.07-1.24.45-1.25,1.16l-.2,16.44c0,.72.54,1.35,1.22,1.42l29.25,3.05Z"/>
          <path class="cls-48" d="m94.97,67.13c.68.07,1.24-.45,1.25-1.17l.2-16.44c.01-.71-.53-1.35-1.22-1.42l-29.25-3.05c-.68-.07-1.24.45-1.25,1.16l-.19,16.43c-.01.71.53,1.35,1.22,1.42l29.25,3.06Z"/>
          <polygon class="cls-99" points="91.41 48.64 67.25 46.12 67.05 63.28 91.21 65.81 91.41 48.64"/>
          <path class="cls-91" d="m66.15,52.54c0-.22-.17-.42-.38-.44h0c-.21-.02-.39.14-.39.36l-.05,4.1c0,.22.17.42.38.44h0c.22.02.39-.14.39-.36l.05-4.1Z"/>
          <path class="cls-91" d="m94.93,57.6c0-.71-.54-1.35-1.22-1.42-.68-.07-1.24.45-1.24,1.16-.01.71.54,1.35,1.21,1.42.68.07,1.24-.45,1.25-1.16Z"/>
        </g>
      </g>
      <path class="cls-38" d="m282.38,76.19h-108.81c-25.99,0-47.14,6.25-47.14,13.92v78.35c0,7.68,21.16,13.92,47.14,13.92h108.81c26,0,47.14-6.24,47.14-13.92v-78.35c0-7.68-21.14-13.92-47.14-13.92Z"/>
      <g>
        <g class="cls-45">
          <polygon class="cls-48" points="189.39 77.77 189.39 77.77 227.31 77.77 227.39 77.77 265.31 77.77 265.31 77.77 303.24 77.77 303.32 77.77 341.16 77.77 341.16 132.96 341.16 133.08 341.16 155.83 341.16 188.38 341.24 188.38 341.24 208.8 391.12 208.8 391.12 188.38 394.57 188.38 394.57 165.38 394.66 165.38 394.66 132.83 394.57 132.83 394.57 110.32 394.66 110.32 394.66 77.77 394.57 77.77 394.57 77.66 394.57 0 394.57 0 341.16 0 341.16 0 303.32 0 303.24 0 265.31 0 265.31 0 227.39 0 227.31 0 189.39 0 189.39 0 151.38 0 151.38 5.04 137.38 5.04 137.38 77.77 151.38 77.77 189.39 77.77"/>
          <polygon class="cls-82" points="189.07 77.88 189.07 77.88 226.99 77.88 227.08 77.88 265 77.88 265 77.88 302.92 77.88 303 77.88 340.84 77.88 340.84 133.07 340.84 133.19 340.84 155.94 340.84 188.49 340.92 188.49 340.92 208.91 390.8 208.91 390.8 188.49 394.26 188.49 394.26 165.49 394.35 165.49 394.35 132.94 394.26 132.94 394.26 110.43 394.35 110.43 394.35 77.88 394.26 77.88 394.26 77.76 394.26 .11 394.26 .11 340.84 .11 340.84 .11 303 .11 302.92 .11 265 .11 265 .11 227.08 .11 226.99 .11 189.07 .11 189.07 .11 151.07 .11 151.07 5.15 137.06 5.15 137.06 77.88 151.07 77.88 189.07 77.88"/>
          <polygon class="cls-85" points="188.76 77.99 188.76 77.99 226.68 77.99 226.76 77.99 264.68 77.99 264.68 77.99 302.6 77.99 302.69 77.99 340.53 77.99 340.53 133.18 340.53 133.3 340.53 156.05 340.53 188.6 340.61 188.6 340.61 209.02 390.49 209.02 390.49 188.6 393.94 188.6 393.94 165.6 394.03 165.6 394.03 133.05 393.94 133.05 393.94 110.54 394.03 110.54 394.03 77.99 393.94 77.99 393.94 77.87 393.94 .22 393.94 .22 340.53 .22 340.53 .22 302.69 .22 302.6 .22 264.68 .22 264.68 .22 226.76 .22 226.68 .22 188.76 .22 188.76 .22 150.75 .22 150.75 5.26 136.75 5.26 136.75 77.99 150.75 77.99 188.76 77.99"/>
          <polygon class="cls-110" points="188.44 78.1 188.44 78.1 226.36 78.1 226.44 78.1 264.37 78.1 264.37 78.1 302.29 78.1 302.37 78.1 340.21 78.1 340.21 133.29 340.21 133.41 340.21 156.16 340.21 188.71 340.29 188.71 340.29 209.13 390.17 209.13 390.17 188.71 393.62 188.71 393.62 165.71 393.72 165.71 393.72 133.16 393.62 133.16 393.62 110.65 393.72 110.65 393.72 78.1 393.62 78.1 393.62 77.98 393.62 .33 393.62 .33 340.21 .33 340.21 .33 302.37 .33 302.29 .33 264.37 .33 264.37 .33 226.44 .33 226.36 .33 188.44 .33 188.44 .33 150.44 .33 150.44 5.37 136.43 5.37 136.43 78.1 150.44 78.1 188.44 78.1"/>
          <polygon class="cls-47" points="188.12 78.21 188.12 78.21 226.05 78.21 226.13 78.21 264.05 78.21 264.05 78.21 301.97 78.21 302.06 78.21 339.89 78.21 339.89 133.4 339.89 133.52 339.89 156.27 339.89 188.82 339.98 188.82 339.98 209.24 389.85 209.24 389.85 188.82 393.31 188.82 393.31 165.82 393.4 165.82 393.4 133.27 393.31 133.27 393.31 110.76 393.4 110.76 393.4 78.21 393.31 78.21 393.31 78.09 393.31 .44 393.31 .44 339.89 .44 339.89 .44 302.05 .44 301.97 .44 264.05 .44 264.05 .44 226.13 .44 226.05 .44 188.12 .44 188.12 .44 150.12 .44 150.12 5.48 136.12 5.48 136.12 78.21 150.12 78.21 188.12 78.21"/>
          <polygon class="cls-74" points="187.81 78.32 187.81 78.32 225.73 78.32 225.81 78.32 263.74 78.32 263.74 78.32 301.66 78.32 301.74 78.32 339.58 78.32 339.58 133.51 339.58 133.63 339.58 156.38 339.58 188.93 339.66 188.93 339.66 209.35 389.54 209.35 389.54 188.93 392.99 188.93 392.99 165.93 393.08 165.93 393.08 133.38 392.99 133.38 392.99 110.87 393.08 110.87 393.08 78.32 392.99 78.32 392.99 78.2 392.99 .55 392.99 .55 339.58 .55 339.58 .55 301.74 .55 301.66 .55 263.74 .55 263.74 .55 225.81 .55 225.73 .55 187.81 .55 187.81 .55 149.81 .55 149.81 5.59 135.8 5.59 135.8 78.32 149.81 78.32 187.81 78.32"/>
          <polygon class="cls-81" points="187.49 78.43 187.49 78.43 225.42 78.43 225.5 78.43 263.42 78.43 263.42 78.43 301.34 78.43 301.42 78.43 339.26 78.43 339.26 133.62 339.26 133.73 339.26 156.49 339.26 189.04 339.35 189.04 339.35 209.46 389.22 209.46 389.22 189.04 392.68 189.04 392.68 166.04 392.77 166.04 392.77 133.49 392.68 133.49 392.68 110.98 392.77 110.98 392.77 78.43 392.68 78.43 392.68 78.31 392.68 .66 392.68 .66 339.26 .66 339.26 .66 301.42 .66 301.34 .66 263.42 .66 263.42 .66 225.5 .66 225.42 .66 187.49 .66 187.49 .66 149.49 .66 149.49 5.7 135.49 5.7 135.49 78.43 149.49 78.43 187.49 78.43"/>
          <polygon class="cls-61" points="187.18 78.54 187.18 78.54 225.1 78.54 225.18 78.54 263.1 78.54 263.1 78.54 301.03 78.54 301.11 78.54 338.95 78.54 338.95 133.72 338.95 133.84 338.95 156.6 338.95 189.15 339.03 189.15 339.03 209.57 388.91 209.57 388.91 189.15 392.36 189.15 392.36 166.15 392.45 166.15 392.45 133.6 392.36 133.6 392.36 111.09 392.45 111.09 392.45 78.54 392.36 78.54 392.36 78.42 392.36 .77 392.36 .77 338.95 .77 338.95 .77 301.11 .77 301.03 .77 263.1 .77 263.1 .77 225.18 .77 225.1 .77 187.18 .77 187.18 .77 149.17 .77 149.17 5.81 135.17 5.81 135.17 78.54 149.17 78.54 187.18 78.54"/>
          <polygon class="cls-89" points="186.86 78.65 186.86 78.65 224.78 78.65 224.87 78.65 262.79 78.65 262.79 78.65 300.71 78.65 300.79 78.65 338.63 78.65 338.63 133.83 338.63 133.95 338.63 156.71 338.63 189.26 338.71 189.26 338.71 209.68 388.59 209.68 388.59 189.26 392.05 189.26 392.05 166.26 392.14 166.26 392.14 133.71 392.05 133.71 392.05 111.2 392.14 111.2 392.14 78.65 392.05 78.65 392.05 78.53 392.05 .88 392.05 .88 338.63 .88 338.63 .88 300.79 .88 300.71 .88 262.79 .88 262.79 .88 224.87 .88 224.78 .88 186.86 .88 186.86 .88 148.86 .88 148.86 5.92 134.85 5.92 134.85 78.65 148.86 78.65 186.86 78.65"/>
          <polygon class="cls-72" points="186.55 78.76 186.55 78.76 224.47 78.76 224.55 78.76 262.47 78.76 262.47 78.76 300.39 78.76 300.48 78.76 338.32 78.76 338.32 133.94 338.32 134.06 338.32 156.82 338.32 189.37 338.4 189.37 338.4 209.79 388.28 209.79 388.28 189.37 391.73 189.37 391.73 166.37 391.82 166.37 391.82 133.82 391.73 133.82 391.73 111.31 391.82 111.31 391.82 78.76 391.73 78.76 391.73 78.64 391.73 .99 391.73 .99 338.32 .99 338.32 .99 300.48 .99 300.39 .99 262.47 .99 262.47 .99 224.55 .99 224.47 .99 186.55 .99 186.55 .99 148.54 .99 148.54 6.03 134.54 6.03 134.54 78.76 148.54 78.76 186.55 78.76"/>
          <polygon class="cls-101" points="186.23 78.87 186.23 78.87 224.15 78.87 224.23 78.87 262.16 78.87 262.16 78.87 300.08 78.87 300.16 78.87 338 78.87 338 134.05 338 134.17 338 156.93 338 189.48 338.08 189.48 338.08 209.9 387.96 209.9 387.96 189.48 391.41 189.48 391.41 166.48 391.51 166.48 391.51 133.93 391.41 133.93 391.41 111.42 391.51 111.42 391.51 78.87 391.41 78.87 391.41 78.75 391.41 1.1 391.41 1.1 338 1.1 338 1.1 300.16 1.1 300.08 1.1 262.16 1.1 262.16 1.1 224.23 1.1 224.15 1.1 186.23 1.1 186.23 1.1 148.23 1.1 148.23 6.13 134.22 6.13 134.22 78.87 148.23 78.87 186.23 78.87"/>
          <polygon class="cls-65" points="185.91 78.98 185.91 78.98 223.84 78.98 223.92 78.98 261.84 78.98 261.84 78.98 299.76 78.98 299.84 78.98 337.68 78.98 337.68 134.16 337.68 134.28 337.68 157.04 337.68 189.58 337.77 189.58 337.77 210.01 387.64 210.01 387.64 189.58 391.1 189.58 391.1 166.59 391.19 166.59 391.19 134.04 391.1 134.04 391.1 111.53 391.19 111.53 391.19 78.98 391.1 78.98 391.1 78.86 391.1 1.2 391.1 1.2 337.68 1.2 337.68 1.2 299.84 1.2 299.76 1.2 261.84 1.2 261.84 1.2 223.92 1.2 223.84 1.2 185.91 1.2 185.91 1.2 147.91 1.2 147.91 6.24 133.91 6.24 133.91 78.98 147.91 78.98 185.91 78.98"/>
          <polygon class="cls-79" points="185.6 79.09 185.6 79.09 223.52 79.09 223.6 79.09 261.52 79.09 261.52 79.09 299.45 79.09 299.53 79.09 337.37 79.09 337.37 134.27 337.37 134.39 337.37 157.15 337.37 189.69 337.45 189.69 337.45 210.12 387.33 210.12 387.33 189.69 390.78 189.69 390.78 166.7 390.87 166.7 390.87 134.15 390.78 134.15 390.78 111.64 390.87 111.64 390.87 79.09 390.78 79.09 390.78 78.97 390.78 1.31 390.78 1.31 337.37 1.31 337.37 1.31 299.53 1.31 299.45 1.31 261.52 1.31 261.52 1.31 223.6 1.31 223.52 1.31 185.6 1.31 185.6 1.31 147.59 1.31 147.59 6.35 133.59 6.35 133.59 79.09 147.59 79.09 185.6 79.09"/>
          <polygon class="cls-86" points="185.28 79.2 185.28 79.2 223.2 79.2 223.29 79.2 261.21 79.2 261.21 79.2 299.13 79.2 299.21 79.2 337.05 79.2 337.05 134.38 337.05 134.5 337.05 157.26 337.05 189.8 337.13 189.8 337.13 210.23 387.01 210.23 387.01 189.8 390.47 189.8 390.47 166.81 390.56 166.81 390.56 134.26 390.47 134.26 390.47 111.75 390.56 111.75 390.56 79.2 390.47 79.2 390.47 79.08 390.47 1.42 390.47 1.42 337.05 1.42 337.05 1.42 299.21 1.42 299.13 1.42 261.21 1.42 261.21 1.42 223.29 1.42 223.2 1.42 185.28 1.42 185.28 1.42 147.28 1.42 147.28 6.46 133.27 6.46 133.27 79.2 147.28 79.2 185.28 79.2"/>
          <polygon class="cls-106" points="184.97 79.31 184.97 79.31 222.89 79.31 222.97 79.31 260.89 79.31 260.89 79.31 298.81 79.31 298.9 79.31 336.74 79.31 336.74 134.49 336.74 134.61 336.74 157.36 336.74 189.91 336.82 189.91 336.82 210.34 386.7 210.34 386.7 189.91 390.15 189.91 390.15 166.91 390.24 166.91 390.24 134.37 390.15 134.37 390.15 111.86 390.24 111.86 390.24 79.31 390.15 79.31 390.15 79.19 390.15 1.53 390.15 1.53 336.74 1.53 336.74 1.53 298.9 1.53 298.81 1.53 260.89 1.53 260.89 1.53 222.97 1.53 222.89 1.53 184.97 1.53 184.97 1.53 146.96 1.53 146.96 6.57 132.96 6.57 132.96 79.31 146.96 79.31 184.97 79.31"/>
          <polygon class="cls-97" points="184.65 79.42 184.65 79.42 222.57 79.42 222.65 79.42 260.58 79.42 260.58 79.42 298.5 79.42 298.58 79.42 336.42 79.42 336.42 134.6 336.42 134.72 336.42 157.47 336.42 190.02 336.5 190.02 336.5 210.45 386.38 210.45 386.38 190.02 389.83 190.02 389.83 167.02 389.93 167.02 389.93 134.48 389.83 134.48 389.83 111.97 389.93 111.97 389.93 79.42 389.83 79.42 389.83 79.3 389.83 1.64 389.83 1.64 336.42 1.64 336.42 1.64 298.58 1.64 298.5 1.64 260.58 1.64 260.58 1.64 222.65 1.64 222.57 1.64 184.65 1.64 184.65 1.64 146.65 1.64 146.65 6.68 132.64 6.68 132.64 79.42 146.65 79.42 184.65 79.42"/>
          <polygon class="cls-68" points="184.33 79.53 184.33 79.53 222.26 79.53 222.34 79.53 260.26 79.53 260.26 79.53 298.18 79.53 298.27 79.53 336.1 79.53 336.1 134.71 336.1 134.83 336.1 157.58 336.1 190.13 336.19 190.13 336.19 210.56 386.06 210.56 386.06 190.13 389.52 190.13 389.52 167.13 389.61 167.13 389.61 134.59 389.52 134.59 389.52 112.08 389.61 112.08 389.61 79.53 389.52 79.53 389.52 79.41 389.52 1.75 389.52 1.75 336.1 1.75 336.1 1.75 298.26 1.75 298.18 1.75 260.26 1.75 260.26 1.75 222.34 1.75 222.26 1.75 184.33 1.75 184.33 1.75 146.33 1.75 146.33 6.79 132.33 6.79 132.33 79.53 146.33 79.53 184.33 79.53"/>
          <polygon class="cls-71" points="184.02 79.64 184.02 79.64 221.94 79.64 222.02 79.64 259.94 79.64 259.94 79.64 297.87 79.64 297.95 79.64 335.79 79.64 335.79 134.82 335.79 134.94 335.79 157.69 335.79 190.24 335.87 190.24 335.87 210.66 385.75 210.66 385.75 190.24 389.2 190.24 389.2 167.24 389.29 167.24 389.29 134.7 389.2 134.7 389.2 112.19 389.29 112.19 389.29 79.64 389.2 79.64 389.2 79.52 389.2 1.86 389.2 1.86 335.79 1.86 335.79 1.86 297.95 1.86 297.87 1.86 259.94 1.86 259.94 1.86 222.02 1.86 221.94 1.86 184.02 1.86 184.02 1.86 146.01 1.86 146.01 6.9 132.01 6.9 132.01 79.64 146.01 79.64 184.02 79.64"/>
          <polygon class="cls-67" points="183.7 79.75 183.7 79.75 221.62 79.75 221.71 79.75 259.63 79.75 259.63 79.75 297.55 79.75 297.63 79.75 335.47 79.75 335.47 134.93 335.47 135.05 335.47 157.8 335.47 190.35 335.55 190.35 335.55 210.77 385.43 210.77 385.43 190.35 388.89 190.35 388.89 167.35 388.98 167.35 388.98 134.81 388.89 134.81 388.89 112.3 388.98 112.3 388.98 79.75 388.89 79.75 388.89 79.63 388.89 1.97 388.89 1.97 335.47 1.97 335.47 1.97 297.63 1.97 297.55 1.97 259.63 1.97 259.63 1.97 221.71 1.97 221.62 1.97 183.7 1.97 183.7 1.97 145.7 1.97 145.7 7.01 131.69 7.01 131.69 79.75 145.7 79.75 183.7 79.75"/>
          <polygon class="cls-105" points="183.39 79.86 183.39 79.86 221.31 79.86 221.39 79.86 259.31 79.86 259.31 79.86 297.24 79.86 297.32 79.86 335.16 79.86 335.16 135.04 335.16 135.16 335.16 157.91 335.16 190.46 335.24 190.46 335.24 210.88 385.12 210.88 385.12 190.46 388.57 190.46 388.57 167.46 388.66 167.46 388.66 134.92 388.57 134.92 388.57 112.41 388.66 112.41 388.66 79.86 388.57 79.86 388.57 79.74 388.57 2.08 388.57 2.08 335.16 2.08 335.16 2.08 297.32 2.08 297.24 2.08 259.31 2.08 259.31 2.08 221.39 2.08 221.31 2.08 183.39 2.08 183.39 2.08 145.38 2.08 145.38 7.12 131.38 7.12 131.38 79.86 145.38 79.86 183.39 79.86"/>
          <polygon class="cls-66" points="183.07 79.97 183.07 79.97 220.99 79.97 221.08 79.97 259 79.97 259 79.97 296.92 79.97 297 79.97 334.84 79.97 334.84 135.15 334.84 135.27 334.84 158.02 334.84 190.57 334.92 190.57 334.92 210.99 384.8 210.99 384.8 190.57 388.25 190.57 388.25 167.57 388.35 167.57 388.35 135.03 388.25 135.03 388.25 112.51 388.35 112.51 388.35 79.97 388.25 79.97 388.25 79.85 388.25 2.19 388.25 2.19 334.84 2.19 334.84 2.19 297 2.19 296.92 2.19 259 2.19 259 2.19 221.08 2.19 220.99 2.19 183.07 2.19 183.07 2.19 145.07 2.19 145.07 7.23 131.06 7.23 131.06 79.97 145.07 79.97 183.07 79.97"/>
          <polygon class="cls-54" points="182.76 80.08 182.76 80.08 220.68 80.08 220.76 80.08 258.68 80.08 258.68 80.08 296.6 80.08 296.69 80.08 334.53 80.08 334.53 135.26 334.53 135.38 334.53 158.13 334.53 190.68 334.61 190.68 334.61 211.1 384.48 211.1 384.48 190.68 387.94 190.68 387.94 167.68 388.03 167.68 388.03 135.13 387.94 135.13 387.94 112.62 388.03 112.62 388.03 80.08 387.94 80.08 387.94 79.96 387.94 2.3 387.94 2.3 334.53 2.3 334.53 2.3 296.69 2.3 296.6 2.3 258.68 2.3 258.68 2.3 220.76 2.3 220.68 2.3 182.76 2.3 182.76 2.3 144.75 2.3 144.75 7.34 130.75 7.34 130.75 80.08 144.75 80.08 182.76 80.08"/>
          <polygon class="cls-76" points="182.44 80.18 182.44 80.18 220.36 80.18 220.44 80.18 258.37 80.18 258.37 80.18 296.29 80.18 296.37 80.18 334.21 80.18 334.21 135.37 334.21 135.49 334.21 158.24 334.21 190.79 334.29 190.79 334.29 211.21 384.17 211.21 384.17 190.79 387.62 190.79 387.62 167.79 387.71 167.79 387.71 135.24 387.62 135.24 387.62 112.73 387.71 112.73 387.71 80.18 387.62 80.18 387.62 80.07 387.62 2.41 387.62 2.41 334.21 2.41 334.21 2.41 296.37 2.41 296.29 2.41 258.37 2.41 258.37 2.41 220.44 2.41 220.36 2.41 182.44 2.41 182.44 2.41 144.44 2.41 144.44 7.45 130.43 7.45 130.43 80.18 144.44 80.18 182.44 80.18"/>
          <polygon class="cls-46" points="182.12 80.29 182.12 80.29 220.05 80.29 220.13 80.29 258.05 80.29 258.05 80.29 295.97 80.29 296.05 80.29 333.89 80.29 333.89 135.48 333.89 135.6 333.89 158.35 333.89 190.9 333.98 190.9 333.98 211.32 383.85 211.32 383.85 190.9 387.31 190.9 387.31 167.9 387.4 167.9 387.4 135.35 387.31 135.35 387.31 112.84 387.4 112.84 387.4 80.29 387.31 80.29 387.31 80.17 387.31 2.52 387.31 2.52 333.89 2.52 333.89 2.52 296.05 2.52 295.97 2.52 258.05 2.52 258.05 2.52 220.13 2.52 220.05 2.52 182.12 2.52 182.12 2.52 144.12 2.52 144.12 7.56 130.12 7.56 130.12 80.29 144.12 80.29 182.12 80.29"/>
          <polygon class="cls-84" points="181.81 80.4 181.81 80.4 219.73 80.4 219.81 80.4 257.73 80.4 257.73 80.4 295.66 80.4 295.74 80.4 333.58 80.4 333.58 135.59 333.58 135.71 333.58 158.46 333.58 191.01 333.66 191.01 333.66 211.43 383.54 211.43 383.54 191.01 386.99 191.01 386.99 168.01 387.08 168.01 387.08 135.46 386.99 135.46 386.99 112.95 387.08 112.95 387.08 80.4 386.99 80.4 386.99 80.28 386.99 2.63 386.99 2.63 333.58 2.63 333.58 2.63 295.74 2.63 295.66 2.63 257.73 2.63 257.73 2.63 219.81 2.63 219.73 2.63 181.81 2.63 181.81 2.63 143.8 2.63 143.8 7.67 129.8 7.67 129.8 80.4 143.8 80.4 181.81 80.4"/>
          <polygon class="cls-94" points="181.49 80.51 181.49 80.51 219.41 80.51 219.5 80.51 257.42 80.51 257.42 80.51 295.34 80.51 295.42 80.51 333.26 80.51 333.26 135.7 333.26 135.82 333.26 158.57 333.26 191.12 333.34 191.12 333.34 211.54 383.22 211.54 383.22 191.12 386.68 191.12 386.68 168.12 386.77 168.12 386.77 135.57 386.68 135.57 386.68 113.06 386.77 113.06 386.77 80.51 386.68 80.51 386.68 80.39 386.68 2.74 386.68 2.74 333.26 2.74 333.26 2.74 295.42 2.74 295.34 2.74 257.42 2.74 257.42 2.74 219.5 2.74 219.41 2.74 181.49 2.74 181.49 2.74 143.49 2.74 143.49 7.78 129.48 7.78 129.48 80.51 143.49 80.51 181.49 80.51"/>
          <polygon class="cls-102" points="181.18 80.62 181.18 80.62 219.1 80.62 219.18 80.62 257.1 80.62 257.1 80.62 295.02 80.62 295.11 80.62 332.95 80.62 332.95 135.81 332.95 135.93 332.95 158.68 332.95 191.23 333.03 191.23 333.03 211.65 382.91 211.65 382.91 191.23 386.36 191.23 386.36 168.23 386.45 168.23 386.45 135.68 386.36 135.68 386.36 113.17 386.45 113.17 386.45 80.62 386.36 80.62 386.36 80.5 386.36 2.85 386.36 2.85 332.95 2.85 332.95 2.85 295.11 2.85 295.02 2.85 257.1 2.85 257.1 2.85 219.18 2.85 219.1 2.85 181.18 2.85 181.18 2.85 143.17 2.85 143.17 7.89 129.17 7.89 129.17 80.62 143.17 80.62 181.18 80.62"/>
          <polygon class="cls-100" points="180.86 80.73 180.86 80.73 218.78 80.73 218.86 80.73 256.79 80.73 256.79 80.73 294.71 80.73 294.79 80.73 332.63 80.73 332.63 135.92 332.63 136.04 332.63 158.79 332.63 191.34 332.71 191.34 332.71 211.76 382.59 211.76 382.59 191.34 386.04 191.34 386.04 168.34 386.14 168.34 386.14 135.79 386.04 135.79 386.04 113.28 386.14 113.28 386.14 80.73 386.04 80.73 386.04 80.61 386.04 2.96 386.04 2.96 332.63 2.96 332.63 2.96 294.79 2.96 294.71 2.96 256.79 2.96 256.79 2.96 218.86 2.96 218.78 2.96 180.86 2.96 180.86 2.96 142.86 2.96 142.86 8 128.85 8 128.85 80.73 142.86 80.73 180.86 80.73"/>
          <polygon class="cls-111" points="180.54 80.84 180.54 80.84 218.47 80.84 218.55 80.84 256.47 80.84 256.47 80.84 294.39 80.84 294.48 80.84 332.31 80.84 332.31 136.02 332.31 136.14 332.31 158.9 332.31 191.45 332.4 191.45 332.4 211.87 382.27 211.87 382.27 191.45 385.73 191.45 385.73 168.45 385.82 168.45 385.82 135.9 385.73 135.9 385.73 113.39 385.82 113.39 385.82 80.84 385.73 80.84 385.73 80.72 385.73 3.07 385.73 3.07 332.31 3.07 332.31 3.07 294.47 3.07 294.39 3.07 256.47 3.07 256.47 3.07 218.55 3.07 218.47 3.07 180.54 3.07 180.54 3.07 142.54 3.07 142.54 8.11 128.54 8.11 128.54 80.84 142.54 80.84 180.54 80.84"/>
          <polygon class="cls-103" points="180.23 80.95 180.23 80.95 218.15 80.95 218.23 80.95 256.15 80.95 256.15 80.95 294.08 80.95 294.16 80.95 332 80.95 332 136.13 332 136.25 332 159.01 332 191.56 332.08 191.56 332.08 211.98 381.96 211.98 381.96 191.56 385.41 191.56 385.41 168.56 385.5 168.56 385.5 136.01 385.41 136.01 385.41 113.5 385.5 113.5 385.5 80.95 385.41 80.95 385.41 80.83 385.41 3.18 385.41 3.18 332 3.18 332 3.18 294.16 3.18 294.08 3.18 256.15 3.18 256.15 3.18 218.23 3.18 218.15 3.18 180.23 3.18 180.23 3.18 142.22 3.18 142.22 8.22 128.22 8.22 128.22 80.95 142.22 80.95 180.23 80.95"/>
          <polygon class="cls-92" points="179.91 81.06 179.91 81.06 217.83 81.06 217.92 81.06 255.84 81.06 255.84 81.06 293.76 81.06 293.84 81.06 331.68 81.06 331.68 136.24 331.68 136.36 331.68 159.12 331.68 191.67 331.76 191.67 331.76 212.09 381.64 212.09 381.64 191.67 385.1 191.67 385.1 168.67 385.19 168.67 385.19 136.12 385.1 136.12 385.1 113.61 385.19 113.61 385.19 81.06 385.1 81.06 385.1 80.94 385.1 3.29 385.1 3.29 331.68 3.29 331.68 3.29 293.84 3.29 293.76 3.29 255.84 3.29 255.84 3.29 217.92 3.29 217.83 3.29 179.91 3.29 179.91 3.29 141.91 3.29 141.91 8.33 127.9 8.33 127.9 81.06 141.91 81.06 179.91 81.06"/>
          <polygon class="cls-58" points="179.6 81.17 179.6 81.17 217.52 81.17 217.6 81.17 255.52 81.17 255.52 81.17 293.44 81.17 293.53 81.17 331.37 81.17 331.37 136.35 331.37 136.47 331.37 159.23 331.37 191.78 331.45 191.78 331.45 212.2 381.33 212.2 381.33 191.78 384.78 191.78 384.78 168.78 384.87 168.78 384.87 136.23 384.78 136.23 384.78 113.72 384.87 113.72 384.87 81.17 384.78 81.17 384.78 81.05 384.78 3.4 384.78 3.4 331.37 3.4 331.37 3.4 293.53 3.4 293.44 3.4 255.52 3.4 255.52 3.4 217.6 3.4 217.52 3.4 179.6 3.4 179.6 3.4 141.59 3.4 141.59 8.44 127.59 8.44 127.59 81.17 141.59 81.17 179.6 81.17"/>
          <polygon class="cls-53" points="179.28 81.28 179.28 81.28 217.2 81.28 217.29 81.28 255.21 81.28 255.21 81.28 293.13 81.28 293.21 81.28 331.05 81.28 331.05 136.46 331.05 136.58 331.05 159.34 331.05 191.89 331.13 191.89 331.13 212.31 381.01 212.31 381.01 191.89 384.46 191.89 384.46 168.89 384.56 168.89 384.56 136.34 384.46 136.34 384.46 113.83 384.56 113.83 384.56 81.28 384.46 81.28 384.46 81.16 384.46 3.51 384.46 3.51 331.05 3.51 331.05 3.51 293.21 3.51 293.13 3.51 255.21 3.51 255.21 3.51 217.29 3.51 217.2 3.51 179.28 3.51 179.28 3.51 141.28 3.51 141.28 8.54 127.27 8.54 127.27 81.28 141.28 81.28 179.28 81.28"/>
          <polygon class="cls-70" points="178.97 81.39 178.97 81.39 216.89 81.39 216.97 81.39 254.89 81.39 254.89 81.39 292.81 81.39 292.9 81.39 330.74 81.39 330.74 136.57 330.74 136.69 330.74 159.45 330.74 191.99 330.82 191.99 330.82 212.42 380.69 212.42 380.69 191.99 384.15 191.99 384.15 169 384.24 169 384.24 136.45 384.15 136.45 384.15 113.94 384.24 113.94 384.24 81.39 384.15 81.39 384.15 81.27 384.15 3.61 384.15 3.61 330.74 3.61 330.74 3.61 292.9 3.61 292.81 3.61 254.89 3.61 254.89 3.61 216.97 3.61 216.89 3.61 178.97 3.61 178.97 3.61 140.96 3.61 140.96 8.65 126.96 8.65 126.96 81.39 140.96 81.39 178.97 81.39"/>
          <polygon class="cls-62" points="178.65 81.5 178.65 81.5 216.57 81.5 216.65 81.5 254.58 81.5 254.58 81.5 292.5 81.5 292.58 81.5 330.42 81.5 330.42 136.68 330.42 136.8 330.42 159.56 330.42 192.1 330.5 192.1 330.5 212.53 380.38 212.53 380.38 192.1 383.83 192.1 383.83 169.11 383.92 169.11 383.92 136.56 383.83 136.56 383.83 114.05 383.92 114.05 383.92 81.5 383.83 81.5 383.83 81.38 383.83 3.72 383.83 3.72 330.42 3.72 330.42 3.72 292.58 3.72 292.5 3.72 254.58 3.72 254.58 3.72 216.65 3.72 216.57 3.72 178.65 3.72 178.65 3.72 140.65 3.72 140.65 8.76 126.64 8.76 126.64 81.5 140.65 81.5 178.65 81.5"/>
          <polygon class="cls-49" points="178.33 81.61 178.33 81.61 216.26 81.61 216.34 81.61 254.26 81.61 254.26 81.61 292.18 81.61 292.26 81.61 330.1 81.61 330.1 136.79 330.1 136.91 330.1 159.66 330.1 192.21 330.19 192.21 330.19 212.64 380.06 212.64 380.06 192.21 383.52 192.21 383.52 169.22 383.61 169.22 383.61 136.67 383.52 136.67 383.52 114.16 383.61 114.16 383.61 81.61 383.52 81.61 383.52 81.49 383.52 3.83 383.52 3.83 330.1 3.83 330.1 3.83 292.26 3.83 292.18 3.83 254.26 3.83 254.26 3.83 216.34 3.83 216.26 3.83 178.33 3.83 178.33 3.83 140.33 3.83 140.33 8.87 126.33 8.87 126.33 81.61 140.33 81.61 178.33 81.61"/>
          <polygon class="cls-109" points="178.02 81.72 178.02 81.72 215.94 81.72 216.02 81.72 253.94 81.72 253.94 81.72 291.87 81.72 291.95 81.72 329.79 81.72 329.79 136.9 329.79 137.02 329.79 159.77 329.79 192.32 329.87 192.32 329.87 212.75 379.75 212.75 379.75 192.32 383.2 192.32 383.2 169.32 383.29 169.32 383.29 136.78 383.2 136.78 383.2 114.27 383.29 114.27 383.29 81.72 383.2 81.72 383.2 81.6 383.2 3.94 383.2 3.94 329.79 3.94 329.79 3.94 291.95 3.94 291.87 3.94 253.94 3.94 253.94 3.94 216.02 3.94 215.94 3.94 178.02 3.94 178.02 3.94 140.01 3.94 140.01 8.98 126.01 8.98 126.01 81.72 140.01 81.72 178.02 81.72"/>
          <polygon class="cls-55" points="177.7 81.83 177.7 81.83 215.62 81.83 215.71 81.83 253.63 81.83 253.63 81.83 291.55 81.83 291.63 81.83 329.47 81.83 329.47 137.01 329.47 137.13 329.47 159.88 329.47 192.43 329.55 192.43 329.55 212.86 379.43 212.86 379.43 192.43 382.89 192.43 382.89 169.43 382.98 169.43 382.98 136.89 382.89 136.89 382.89 114.38 382.98 114.38 382.98 81.83 382.89 81.83 382.89 81.71 382.89 4.05 382.89 4.05 329.47 4.05 329.47 4.05 291.63 4.05 291.55 4.05 253.63 4.05 253.63 4.05 215.71 4.05 215.62 4.05 177.7 4.05 177.7 4.05 139.7 4.05 139.7 9.09 125.69 9.09 125.69 81.83 139.7 81.83 177.7 81.83"/>
          <polygon class="cls-51" points="177.39 81.94 177.39 81.94 215.31 81.94 215.39 81.94 253.31 81.94 253.31 81.94 291.23 81.94 291.32 81.94 329.16 81.94 329.16 137.12 329.16 137.24 329.16 159.99 329.16 192.54 329.24 192.54 329.24 212.96 379.11 212.96 379.11 192.54 382.57 192.54 382.57 169.54 382.66 169.54 382.66 137 382.57 137 382.57 114.49 382.66 114.49 382.66 81.94 382.57 81.94 382.57 81.82 382.57 4.16 382.57 4.16 329.16 4.16 329.16 4.16 291.32 4.16 291.23 4.16 253.31 4.16 253.31 4.16 215.39 4.16 215.31 4.16 177.39 4.16 177.39 4.16 139.38 4.16 139.38 9.2 125.38 9.2 125.38 81.94 139.38 81.94 177.39 81.94"/>
          <polygon class="cls-80" points="177.07 82.05 177.07 82.05 214.99 82.05 215.07 82.05 253 82.05 253 82.05 290.92 82.05 291 82.05 328.84 82.05 328.84 137.23 328.84 137.35 328.84 160.1 328.84 192.65 328.92 192.65 328.92 213.07 378.8 213.07 378.8 192.65 382.25 192.65 382.25 169.65 382.35 169.65 382.35 137.11 382.25 137.11 382.25 114.6 382.35 114.6 382.35 82.05 382.25 82.05 382.25 81.93 382.25 4.27 382.25 4.27 328.84 4.27 328.84 4.27 291 4.27 290.92 4.27 253 4.27 253 4.27 215.07 4.27 214.99 4.27 177.07 4.27 177.07 4.27 139.07 4.27 139.07 9.31 125.06 9.31 125.06 82.05 139.07 82.05 177.07 82.05"/>
          <polygon class="cls-87" points="176.75 82.16 176.75 82.16 214.68 82.16 214.76 82.16 252.68 82.16 252.68 82.16 290.6 82.16 290.68 82.16 328.52 82.16 328.52 137.34 328.52 137.46 328.52 160.21 328.52 192.76 328.61 192.76 328.61 213.18 378.48 213.18 378.48 192.76 381.94 192.76 381.94 169.76 382.03 169.76 382.03 137.22 381.94 137.22 381.94 114.71 382.03 114.71 382.03 82.16 381.94 82.16 381.94 82.04 381.94 4.38 381.94 4.38 328.52 4.38 328.52 4.38 290.68 4.38 290.6 4.38 252.68 4.38 252.68 4.38 214.76 4.38 214.68 4.38 176.75 4.38 176.75 4.38 138.75 4.38 138.75 9.42 124.75 9.42 124.75 82.16 138.75 82.16 176.75 82.16"/>
          <polygon class="cls-98" points="176.44 82.27 176.44 82.27 214.36 82.27 214.44 82.27 252.36 82.27 252.36 82.27 290.29 82.27 290.37 82.27 328.21 82.27 328.21 137.45 328.21 137.57 328.21 160.32 328.21 192.87 328.29 192.87 328.29 213.29 378.17 213.29 378.17 192.87 381.62 192.87 381.62 169.87 381.71 169.87 381.71 137.33 381.62 137.33 381.62 114.82 381.71 114.82 381.71 82.27 381.62 82.27 381.62 82.15 381.62 4.49 381.62 4.49 328.21 4.49 328.21 4.49 290.37 4.49 290.29 4.49 252.36 4.49 252.36 4.49 214.44 4.49 214.36 4.49 176.44 4.49 176.44 4.49 138.43 4.49 138.43 9.53 124.43 9.53 124.43 82.27 138.43 82.27 176.44 82.27"/>
          <polygon class="cls-95" points="176.12 82.38 176.12 82.38 214.04 82.38 214.13 82.38 252.05 82.38 252.05 82.38 289.97 82.38 290.05 82.38 327.89 82.38 327.89 137.56 327.89 137.68 327.89 160.43 327.89 192.98 327.97 192.98 327.97 213.4 377.85 213.4 377.85 192.98 381.31 192.98 381.31 169.98 381.4 169.98 381.4 137.43 381.31 137.43 381.31 114.92 381.4 114.92 381.4 82.38 381.31 82.38 381.31 82.26 381.31 4.6 381.31 4.6 327.89 4.6 327.89 4.6 290.05 4.6 289.97 4.6 252.05 4.6 252.05 4.6 214.13 4.6 214.04 4.6 176.12 4.6 176.12 4.6 138.12 4.6 138.12 9.64 124.11 9.64 124.11 82.38 138.12 82.38 176.12 82.38"/>
          <polygon class="cls-73" points="175.81 82.49 175.81 82.49 213.73 82.49 213.81 82.49 251.73 82.49 251.73 82.49 289.65 82.49 289.74 82.49 327.58 82.49 327.58 137.67 327.58 137.79 327.58 160.54 327.58 193.09 327.66 193.09 327.66 213.51 377.54 213.51 377.54 193.09 380.99 193.09 380.99 170.09 381.08 170.09 381.08 137.54 380.99 137.54 380.99 115.03 381.08 115.03 381.08 82.49 380.99 82.49 380.99 82.37 380.99 4.71 380.99 4.71 327.58 4.71 327.58 4.71 289.74 4.71 289.65 4.71 251.73 4.71 251.73 4.71 213.81 4.71 213.73 4.71 175.81 4.71 175.81 4.71 137.8 4.71 137.8 9.75 123.8 9.75 123.8 82.49 137.8 82.49 175.81 82.49"/>
          <polygon class="cls-104" points="175.49 82.59 175.49 82.59 213.41 82.59 213.49 82.59 251.42 82.59 251.42 82.59 289.34 82.59 289.42 82.59 327.26 82.59 327.26 137.78 327.26 137.9 327.26 160.65 327.26 193.2 327.34 193.2 327.34 213.62 377.22 213.62 377.22 193.2 380.67 193.2 380.67 170.2 380.77 170.2 380.77 137.65 380.67 137.65 380.67 115.14 380.77 115.14 380.77 82.59 380.67 82.59 380.67 82.48 380.67 4.82 380.67 4.82 327.26 4.82 327.26 4.82 289.42 4.82 289.34 4.82 251.42 4.82 251.42 4.82 213.49 4.82 213.41 4.82 175.49 4.82 175.49 4.82 137.49 4.82 137.49 9.86 123.48 9.86 123.48 82.59 137.49 82.59 175.49 82.59"/>
          <polygon class="cls-93" points="175.17 82.7 175.17 82.7 213.1 82.7 213.18 82.7 251.1 82.7 251.1 82.7 289.02 82.7 289.11 82.7 326.94 82.7 326.94 137.89 326.94 138.01 326.94 160.76 326.94 193.31 327.03 193.31 327.03 213.73 376.9 213.73 376.9 193.31 380.36 193.31 380.36 170.31 380.45 170.31 380.45 137.76 380.36 137.76 380.36 115.25 380.45 115.25 380.45 82.7 380.36 82.7 380.36 82.58 380.36 4.93 380.36 4.93 326.94 4.93 326.94 4.93 289.1 4.93 289.02 4.93 251.1 4.93 251.1 4.93 213.18 4.93 213.1 4.93 175.17 4.93 175.17 4.93 137.17 4.93 137.17 9.97 123.17 9.97 123.17 82.7 137.17 82.7 175.17 82.7"/>
          <polygon class="cls-56" points="174.86 82.81 174.86 82.81 212.78 82.81 212.86 82.81 250.79 82.81 250.79 82.81 288.71 82.81 288.79 82.81 326.63 82.81 326.63 138 326.63 138.12 326.63 160.87 326.63 193.42 326.71 193.42 326.71 213.84 376.59 213.84 376.59 193.42 380.04 193.42 380.04 170.42 380.13 170.42 380.13 137.87 380.04 137.87 380.04 115.36 380.13 115.36 380.13 82.81 380.04 82.81 380.04 82.69 380.04 5.04 380.04 5.04 326.63 5.04 326.63 5.04 288.79 5.04 288.71 5.04 250.79 5.04 250.79 5.04 212.86 5.04 212.78 5.04 174.86 5.04 174.86 5.04 136.85 5.04 136.85 10.08 122.85 10.08 122.85 82.81 136.85 82.81 174.86 82.81"/>
          <polygon class="cls-35" points="174.54 82.92 174.54 82.92 212.47 82.92 212.55 82.92 250.47 82.92 250.47 82.92 288.39 82.92 288.47 82.92 326.31 82.92 326.31 138.11 326.31 138.23 326.31 160.98 326.31 193.53 326.4 193.53 326.4 213.95 376.27 213.95 376.27 193.53 379.73 193.53 379.73 170.53 379.82 170.53 379.82 137.98 379.73 137.98 379.73 115.47 379.82 115.47 379.82 82.92 379.73 82.92 379.73 82.8 379.73 5.15 379.73 5.15 326.31 5.15 326.31 5.15 288.47 5.15 288.39 5.15 250.47 5.15 250.47 5.15 212.55 5.15 212.47 5.15 174.54 5.15 174.54 5.15 136.54 5.15 136.54 10.19 122.54 10.19 122.54 82.92 136.54 82.92 174.54 82.92"/>
          <polygon class="cls-69" points="174.23 83.03 174.23 83.03 212.15 83.03 212.23 83.03 250.15 83.03 250.15 83.03 288.08 83.03 288.16 83.03 326 83.03 326 138.22 326 138.34 326 161.09 326 193.64 326.08 193.64 326.08 214.06 375.96 214.06 375.96 193.64 379.41 193.64 379.41 170.64 379.5 170.64 379.5 138.09 379.41 138.09 379.41 115.58 379.5 115.58 379.5 83.03 379.41 83.03 379.41 82.91 379.41 5.26 379.41 5.26 326 5.26 326 5.26 288.16 5.26 288.08 5.26 250.15 5.26 250.15 5.26 212.23 5.26 212.15 5.26 174.23 5.26 174.23 5.26 136.22 5.26 136.22 10.3 122.22 10.3 122.22 83.03 136.22 83.03 174.23 83.03"/>
          <polygon class="cls-75" points="173.91 83.14 173.91 83.14 211.83 83.14 211.92 83.14 249.84 83.14 249.84 83.14 287.76 83.14 287.84 83.14 325.68 83.14 325.68 138.33 325.68 138.44 325.68 161.2 325.68 193.75 325.76 193.75 325.76 214.17 375.64 214.17 375.64 193.75 379.1 193.75 379.1 170.75 379.19 170.75 379.19 138.2 379.1 138.2 379.1 115.69 379.19 115.69 379.19 83.14 379.1 83.14 379.1 83.02 379.1 5.37 379.1 5.37 325.68 5.37 325.68 5.37 287.84 5.37 287.76 5.37 249.84 5.37 249.84 5.37 211.92 5.37 211.83 5.37 173.91 5.37 173.91 5.37 135.91 5.37 135.91 10.41 121.9 10.41 121.9 83.14 135.91 83.14 173.91 83.14"/>
          <polygon class="cls-108" points="173.6 83.25 173.6 83.25 211.52 83.25 211.6 83.25 249.52 83.25 249.52 83.25 287.44 83.25 287.53 83.25 325.37 83.25 325.37 138.43 325.37 138.55 325.37 161.31 325.37 193.86 325.45 193.86 325.45 214.28 375.32 214.28 375.32 193.86 378.78 193.86 378.78 170.86 378.87 170.86 378.87 138.31 378.78 138.31 378.78 115.8 378.87 115.8 378.87 83.25 378.78 83.25 378.78 83.13 378.78 5.48 378.78 5.48 325.37 5.48 325.37 5.48 287.53 5.48 287.44 5.48 249.52 5.48 249.52 5.48 211.6 5.48 211.52 5.48 173.6 5.48 173.6 5.48 135.59 5.48 135.59 10.52 121.59 10.52 121.59 83.25 135.59 83.25 173.6 83.25"/>
          <polygon class="cls-90" points="173.28 83.36 173.28 83.36 211.2 83.36 211.28 83.36 249.21 83.36 249.21 83.36 287.13 83.36 287.21 83.36 325.05 83.36 325.05 138.54 325.05 138.66 325.05 161.42 325.05 193.97 325.13 193.97 325.13 214.39 375.01 214.39 375.01 193.97 378.46 193.97 378.46 170.97 378.56 170.97 378.56 138.42 378.46 138.42 378.46 115.91 378.56 115.91 378.56 83.36 378.46 83.36 378.46 83.24 378.46 5.59 378.46 5.59 325.05 5.59 325.05 5.59 287.21 5.59 287.13 5.59 249.21 5.59 249.21 5.59 211.28 5.59 211.2 5.59 173.28 5.59 173.28 5.59 135.28 5.59 135.28 10.63 121.27 10.63 121.27 83.36 135.28 83.36 173.28 83.36"/>
          <polygon class="cls-36" points="172.96 83.47 172.96 83.47 210.89 83.47 210.97 83.47 248.89 83.47 248.89 83.47 286.81 83.47 286.89 83.47 324.73 83.47 324.73 138.65 324.73 138.77 324.73 161.53 324.73 194.08 324.82 194.08 324.82 214.5 374.69 214.5 374.69 194.08 378.15 194.08 378.15 171.08 378.24 171.08 378.24 138.53 378.15 138.53 378.15 116.02 378.24 116.02 378.24 83.47 378.15 83.47 378.15 83.35 378.15 5.7 378.15 5.7 324.73 5.7 324.73 5.7 286.89 5.7 286.81 5.7 248.89 5.7 248.89 5.7 210.97 5.7 210.89 5.7 172.96 5.7 172.96 5.7 134.96 5.7 134.96 10.74 120.96 10.74 120.96 83.47 134.96 83.47 172.96 83.47"/>
          <polygon class="cls-107" points="172.65 83.58 172.65 83.58 210.57 83.58 210.65 83.58 248.57 83.58 248.57 83.58 286.5 83.58 286.58 83.58 324.42 83.58 324.42 138.76 324.42 138.88 324.42 161.64 324.42 194.19 324.5 194.19 324.5 214.61 374.38 214.61 374.38 194.19 377.83 194.19 377.83 171.19 377.92 171.19 377.92 138.64 377.83 138.64 377.83 116.13 377.92 116.13 377.92 83.58 377.83 83.58 377.83 83.46 377.83 5.81 377.83 5.81 324.42 5.81 324.42 5.81 286.58 5.81 286.5 5.81 248.57 5.81 248.57 5.81 210.65 5.81 210.57 5.81 172.65 5.81 172.65 5.81 134.64 5.81 134.64 10.84 120.64 10.84 120.64 83.58 134.64 83.58 172.65 83.58"/>
          <polygon class="cls-60" points="172.33 83.69 172.33 83.69 210.25 83.69 210.34 83.69 248.26 83.69 248.26 83.69 286.18 83.69 286.26 83.69 324.1 83.69 324.1 138.87 324.1 138.99 324.1 161.75 324.1 194.3 324.18 194.3 324.18 214.72 374.06 214.72 374.06 194.3 377.52 194.3 377.52 171.3 377.61 171.3 377.61 138.75 377.52 138.75 377.52 116.24 377.61 116.24 377.61 83.69 377.52 83.69 377.52 83.57 377.52 5.92 377.52 5.92 324.1 5.92 324.1 5.92 286.26 5.92 286.18 5.92 248.26 5.92 248.26 5.92 210.34 5.92 210.25 5.92 172.33 5.92 172.33 5.92 134.33 5.92 134.33 10.95 120.32 10.95 120.32 83.69 134.33 83.69 172.33 83.69"/>
          <polygon class="cls-52" points="172.02 83.8 172.02 83.8 209.94 83.8 210.02 83.8 247.94 83.8 247.94 83.8 285.86 83.8 285.95 83.8 323.79 83.8 323.79 138.98 323.79 139.1 323.79 161.86 323.79 194.4 323.87 194.4 323.87 214.83 373.74 214.83 373.74 194.4 377.2 194.4 377.2 171.41 377.29 171.41 377.29 138.86 377.2 138.86 377.2 116.35 377.29 116.35 377.29 83.8 377.2 83.8 377.2 83.68 377.2 6.02 377.2 6.02 323.79 6.02 323.79 6.02 285.95 6.02 285.86 6.02 247.94 6.02 247.94 6.02 210.02 6.02 209.94 6.02 172.02 6.02 172.02 6.02 134.01 6.02 134.01 11.06 120.01 11.06 120.01 83.8 134.01 83.8 172.02 83.8"/>
          <polygon class="cls-88" points="171.7 83.91 171.7 83.91 209.62 83.91 209.7 83.91 247.63 83.91 247.63 83.91 285.55 83.91 285.63 83.91 323.47 83.91 323.47 139.09 323.47 139.21 323.47 161.97 323.47 194.51 323.55 194.51 323.55 214.94 373.43 214.94 373.43 194.51 376.88 194.51 376.88 171.52 376.98 171.52 376.98 138.97 376.88 138.97 376.88 116.46 376.98 116.46 376.98 83.91 376.88 83.91 376.88 83.79 376.88 6.13 376.88 6.13 323.47 6.13 323.47 6.13 285.63 6.13 285.55 6.13 247.63 6.13 247.63 6.13 209.7 6.13 209.62 6.13 171.7 6.13 171.7 6.13 133.7 6.13 133.7 11.17 119.69 11.17 119.69 83.91 133.7 83.91 171.7 83.91"/>
          <polygon class="cls-77" points="171.38 84.02 171.38 84.02 209.31 84.02 209.39 84.02 247.31 84.02 247.31 84.02 285.23 84.02 285.31 84.02 323.15 84.02 323.15 139.2 323.15 139.32 323.15 162.07 323.15 194.62 323.24 194.62 323.24 215.05 373.11 215.05 373.11 194.62 376.57 194.62 376.57 171.62 376.66 171.62 376.66 139.08 376.57 139.08 376.57 116.57 376.66 116.57 376.66 84.02 376.57 84.02 376.57 83.9 376.57 6.24 376.57 6.24 323.15 6.24 323.15 6.24 285.31 6.24 285.23 6.24 247.31 6.24 247.31 6.24 209.39 6.24 209.31 6.24 171.38 6.24 171.38 6.24 133.38 6.24 133.38 11.28 119.38 11.28 119.38 84.02 133.38 84.02 171.38 84.02"/>
        </g>
        <g>
          <rect class="cls-8" x="285.28" y="28.6" width="38" height="55.42"/>
          <rect class="cls-1" x="119.42" y="11.28" width="14" height="72.74"/>
          <rect class="cls-6" x="285.28" y="16.32" width="38" height="12.27"/>
          <rect class="cls-32" x="285.28" y="6.24" width="38" height="10.08"/>
          <rect class="cls-21" x="247.36" y="28.6" width="38" height="55.42"/>
          <rect class="cls-9" x="247.36" y="16.32" width="38" height="12.27"/>
          <rect class="cls-18" x="247.36" y="6.24" width="38" height="10.08"/>
          <rect class="cls-15" x="209.35" y="28.6" width="38" height="55.42"/>
          <rect class="cls-4" x="209.35" y="16.32" width="38" height="12.27"/>
          <rect class="cls-28" x="209.35" y="6.24" width="38" height="10.08"/>
          <rect class="cls-25" x="171.43" y="28.6" width="38" height="55.42"/>
          <rect class="cls-24" x="171.43" y="16.32" width="38" height="12.27"/>
          <rect class="cls-12" x="171.43" y="6.24" width="38" height="10.08"/>
          <rect class="cls-20" x="133.43" y="28.6" width="38" height="55.42"/>
          <rect class="cls-29" x="133.43" y="16.32" width="38" height="12.27"/>
          <rect class="cls-11" x="133.43" y="6.24" width="38" height="10.08"/>
          <rect class="cls-23" x="323.2" y="28.6" width="38.01" height="55.42"/>
          <rect class="cls-27" x="323.2" y="83.9" width="38.01" height="55.42"/>
          <rect class="cls-16" x="323.2" y="139.2" width="38.01" height="55.42"/>
          <polygon class="cls-13" points="323.2 16.32 369.7 16.32 361.2 28.6 323.2 28.6 323.2 16.32"/>
          <polygon class="cls-26" points="323.2 6.24 376.61 6.24 369.7 16.32 323.2 16.32 323.2 6.24"/>
          <rect class="cls-7" x="361.29" y="139.2" width="8.42" height="55.42"/>
          <polygon class="cls-17" points="376.61 6.24 376.61 84.02 369.7 84.02 369.7 16.32 376.61 6.24"/>
          <rect class="cls-19" x="361.29" y="83.9" width="8.42" height="55.42"/>
          <rect class="cls-30" x="369.7" y="83.9" width="6.91" height="55.42"/>
          <polygon class="cls-10" points="361.29 84.02 361.29 28.6 369.7 16.32 369.7 84.02 361.29 84.02"/>
          <rect class="cls-5" x="369.7" y="139.2" width="6.91" height="55.42"/>
          <rect class="cls-14" x="323.28" y="194.62" width="49.88" height="20.42"/>
          <rect class="cls-33" x="323.2" y="139.2" width="38.01" height="55.42"/>
          <rect class="cls-42" x="323.28" y="139.08" width="53.42" height="32.55"/>
          <rect class="cls-37" x="323.2" y="162.07" width="38.01" height="32.55"/>
          <rect class="cls-43" x="323.28" y="84.02" width="53.42" height="32.55"/>
          <rect class="cls-40" x="133.43" y="28.86" width="227.78" height="32.55"/>
          <rect class="cls-33" x="285.28" y="28.6" width="38" height="55.42"/>
          <rect class="cls-33" x="285.28" y="16.32" width="38" height="12.27"/>
          <rect class="cls-33" x="285.28" y="6.24" width="38" height="10.08"/>
          <rect class="cls-33" x="247.36" y="28.6" width="38" height="55.42"/>
          <rect class="cls-33" x="247.36" y="16.32" width="38" height="12.27"/>
          <rect class="cls-33" x="247.36" y="6.24" width="38" height="10.08"/>
          <rect class="cls-33" x="209.35" y="28.6" width="38" height="55.42"/>
          <rect class="cls-33" x="209.35" y="16.32" width="38" height="12.27"/>
          <rect class="cls-33" x="209.35" y="6.24" width="38" height="10.08"/>
          <rect class="cls-33" x="171.43" y="28.6" width="38" height="55.42"/>
          <rect class="cls-33" x="171.43" y="16.32" width="38" height="12.27"/>
          <rect class="cls-33" x="171.43" y="6.24" width="38" height="10.08"/>
          <rect class="cls-33" x="133.43" y="28.6" width="38" height="55.42"/>
          <rect class="cls-33" x="133.43" y="16.32" width="38" height="12.27"/>
          <rect class="cls-33" x="133.43" y="6.24" width="38" height="10.08"/>
          <rect class="cls-33" x="323.2" y="28.6" width="38.01" height="55.42"/>
          <rect class="cls-33" x="323.2" y="83.9" width="38.01" height="55.42"/>
          <rect class="cls-33" x="323.2" y="139.2" width="38.01" height="55.42"/>
          <polygon class="cls-33" points="323.2 16.32 369.7 16.32 361.2 28.6 323.2 28.6 323.2 16.32"/>
          <polygon class="cls-33" points="323.2 6.24 376.61 6.24 369.7 16.32 323.2 16.32 323.2 6.24"/>
          <rect class="cls-33" x="361.29" y="139.2" width="8.42" height="55.42"/>
          <rect class="cls-33" x="361.29" y="83.9" width="8.42" height="55.42"/>
          <polygon class="cls-33" points="361.29 84.02 361.29 28.6 369.7 16.32 369.7 84.02 361.29 84.02"/>
          <rect class="cls-33" x="323.2" y="139.2" width="38.01" height="55.42"/>
        </g>
        <path class="cls-39" d="m119.42,84.33h14s.04-.03.06-.03h37.95s37.92,0,37.92,0h.08s37.92,0,37.92,0h37.92s.08,0,.08,0h37.65v54.91s0,.12,0,.12v55.3c0,.08.02.15.06.2v20.22c0,.17.09.31.21.31h49.88c.12,0,.21-.14.21-.31v-20.11h3.24c.12,0,.21-.14.21-.31v-55.3s0-.12,0-.12v-55.1s.02-.05.02-.08V6.24c0-.14-.06-.26-.14-.31-.03-.02-.06-.03-.09-.03-.04,0-.08.04-.11.07h-53.22s-.08,0-.08,0h-37.84s-.08,0-.08,0h-37.92s-37.92,0-37.92,0h-.08s-37.92,0-37.92,0h-38.01c-.1,0-.19.12-.19.27v4.73h-13.82c-.12,0-.21.14-.21.31v72.74c0,.17.09.31.21.31Z"/>
      </g>
    </g>
  </g>
</svg>