<?xml version="1.0" encoding="UTF-8"?>
<svg xmlns="http://www.w3.org/2000/svg" xmlns:xlink="http://www.w3.org/1999/xlink" viewBox="0 0 413.7 99">
  <defs>
    <style>
      .cls-1 {
        fill: url(#_Áåçûìÿííûé_ãðàäèåíò_271-16);
      }

      .cls-1, .cls-2, .cls-3, .cls-4, .cls-5, .cls-6, .cls-7, .cls-8, .cls-9, .cls-10, .cls-11, .cls-12, .cls-13, .cls-14, .cls-15, .cls-16, .cls-17, .cls-18, .cls-19, .cls-20, .cls-21, .cls-22, .cls-23, .cls-24, .cls-25, .cls-26, .cls-27, .cls-28, .cls-29, .cls-30, .cls-31, .cls-32, .cls-33, .cls-34, .cls-35, .cls-36, .cls-37, .cls-38, .cls-39 {
        mix-blend-mode: multiply;
      }

      .cls-1, .cls-2, .cls-3, .cls-4, .cls-5, .cls-7, .cls-8, .cls-9, .cls-10, .cls-11, .cls-12, .cls-13, .cls-14, .cls-15, .cls-16, .cls-17, .cls-18, .cls-19, .cls-20, .cls-21, .cls-22, .cls-23, .cls-25, .cls-26, .cls-27, .cls-28, .cls-30, .cls-31, .cls-32, .cls-33, .cls-34, .cls-35, .cls-36, .cls-37, .cls-39 {
        opacity: .4;
      }

      .cls-2 {
        fill: url(#_Áåçûìÿííûé_ãðàäèåíò_271-32);
      }

      .cls-3 {
        fill: url(#_Áåçûìÿííûé_ãðàäèåíò_271-31);
      }

      .cls-40 {
        fill: url(#_Áåçûìÿííûé_ãðàäèåíò_42-2);
      }

      .cls-4 {
        fill: url(#_Áåçûìÿííûé_ãðàäèåíò_271-7);
      }

      .cls-5 {
        fill: url(#_Áåçûìÿííûé_ãðàäèåíò_271-21);
      }

      .cls-6 {
        fill: url(#_Áåçûìÿííûé_ãðàäèåíò_271-19);
      }

      .cls-6, .cls-24, .cls-29 {
        opacity: .6;
      }

      .cls-7 {
        fill: url(#_Áåçûìÿííûé_ãðàäèåíò_271-34);
      }

      .cls-8 {
        fill: url(#_Áåçûìÿííûé_ãðàäèåíò_271-30);
      }

      .cls-41 {
        fill: url(#_Áåçûìÿííûé_ãðàäèåíò_42);
      }

      .cls-9 {
        fill: url(#_Áåçûìÿííûé_ãðàäèåíò_271-9);
      }

      .cls-42 {
        fill: url(#_Áåçûìÿííûé_ãðàäèåíò_52);
      }

      .cls-42, .cls-43, .cls-44, .cls-45 {
        mix-blend-mode: screen;
        opacity: .42;
      }

      .cls-43 {
        fill: url(#_Áåçûìÿííûé_ãðàäèåíò_52-3);
      }

      .cls-10 {
        fill: url(#_Áåçûìÿííûé_ãðàäèåíò_271-12);
      }

      .cls-11 {
        fill: url(#_Áåçûìÿííûé_ãðàäèåíò_271-5);
      }

      .cls-12 {
        fill: url(#_Áåçûìÿííûé_ãðàäèåíò_271-28);
      }

      .cls-13 {
        fill: url(#_Áåçûìÿííûé_ãðàäèåíò_271-36);
      }

      .cls-46 {
        fill: #39274c;
      }

      .cls-47 {
        fill: url(#_Áåçûìÿííûé_ãðàäèåíò_67-4);
      }

      .cls-48 {
        fill: url(#_Áåçûìÿííûé_ãðàäèåíò_215-2);
      }

      .cls-49 {
        isolation: isolate;
      }

      .cls-14 {
        fill: url(#_Áåçûìÿííûé_ãðàäèåíò_271-10);
      }

      .cls-50 {
        fill: url(#_Áåçûìÿííûé_ãðàäèåíò_42-4);
      }

      .cls-15 {
        fill: url(#_Áåçûìÿííûé_ãðàäèåíò_271);
      }

      .cls-16 {
        fill: url(#_Áåçûìÿííûé_ãðàäèåíò_271-22);
      }

      .cls-17 {
        fill: url(#_Áåçûìÿííûé_ãðàäèåíò_271-11);
      }

      .cls-18 {
        fill: url(#_Áåçûìÿííûé_ãðàäèåíò_271-20);
      }

      .cls-51 {
        fill: url(#_Áåçûìÿííûé_ãðàäèåíò_9-2);
      }

      .cls-19 {
        fill: url(#_Áåçûìÿííûé_ãðàäèåíò_271-37);
      }

      .cls-52 {
        fill: url(#_Áåçûìÿííûé_ãðàäèåíò_67-5);
      }

      .cls-20 {
        fill: url(#_Áåçûìÿííûé_ãðàäèåíò_271-33);
      }

      .cls-21 {
        fill: url(#_Áåçûìÿííûé_ãðàäèåíò_271-2);
      }

      .cls-53 {
        fill: url(#_Áåçûìÿííûé_ãðàäèåíò_67-3);
      }

      .cls-54 {
        fill: #5d5b89;
      }

      .cls-55 {
        fill: url(#_Áåçûìÿííûé_ãðàäèåíò_27);
      }

      .cls-22 {
        fill: url(#_Áåçûìÿííûé_ãðàäèåíò_271-35);
      }

      .cls-56 {
        fill: url(#_Áåçûìÿííûé_ãðàäèåíò_9);
      }

      .cls-57 {
        fill: #937eaa;
      }

      .cls-23 {
        fill: url(#_Áåçûìÿííûé_ãðàäèåíò_271-23);
      }

      .cls-58 {
        fill: #35273f;
      }

      .cls-59 {
        fill: #76608c;
      }

      .cls-24 {
        fill: url(#_Áåçûìÿííûé_ãðàäèåíò_271-15);
      }

      .cls-60 {
        fill: url(#_Áåçûìÿííûé_ãðàäèåíò_27-2);
      }

      .cls-61 {
        fill: url(#_Áåçûìÿííûé_ãðàäèåíò_42-3);
      }

      .cls-25 {
        fill: url(#_Áåçûìÿííûé_ãðàäèåíò_271-24);
      }

      .cls-62 {
        fill: url(#_Áåçûìÿííûé_ãðàäèåíò_215-3);
      }

      .cls-63 {
        fill: #f9dfa5;
      }

      .cls-26 {
        fill: url(#_Áåçûìÿííûé_ãðàäèåíò_271-4);
      }

      .cls-64 {
        fill: #c1856b;
      }

      .cls-27 {
        fill: url(#_Áåçûìÿííûé_ãðàäèåíò_271-14);
      }

      .cls-65 {
        fill: url(#_Áåçûìÿííûé_ãðàäèåíò_215);
      }

      .cls-66 {
        fill: url(#_Áåçûìÿííûé_ãðàäèåíò_5-3);
      }

      .cls-28 {
        fill: url(#_Áåçûìÿííûé_ãðàäèåíò_271-8);
      }

      .cls-29 {
        fill: #88546d;
      }

      .cls-30 {
        fill: url(#_Áåçûìÿííûé_ãðàäèåíò_271-26);
      }

      .cls-31 {
        fill: url(#_Áåçûìÿííûé_ãðàäèåíò_271-27);
      }

      .cls-67 {
        fill: url(#_Áåçûìÿííûé_ãðàäèåíò_5);
      }

      .cls-32 {
        fill: url(#_Áåçûìÿííûé_ãðàäèåíò_271-17);
      }

      .cls-33 {
        fill: url(#_Áåçûìÿííûé_ãðàäèåíò_271-25);
      }

      .cls-68 {
        fill: url(#_Áåçûìÿííûé_ãðàäèåíò_67);
      }

      .cls-44 {
        fill: url(#_Áåçûìÿííûé_ãðàäèåíò_52-4);
      }

      .cls-34 {
        fill: url(#_Áåçûìÿííûé_ãðàäèåíò_271-6);
      }

      .cls-45 {
        fill: url(#_Áåçûìÿííûé_ãðàäèåíò_52-2);
      }

      .cls-35 {
        fill: url(#_Áåçûìÿííûé_ãðàäèåíò_271-18);
      }

      .cls-69 {
        fill: url(#_Áåçûìÿííûé_ãðàäèåíò_5-2);
      }

      .cls-36 {
        fill: url(#_Áåçûìÿííûé_ãðàäèåíò_271-13);
      }

      .cls-37 {
        fill: url(#_Áåçûìÿííûé_ãðàäèåíò_271-38);
      }

      .cls-70 {
        fill: url(#_Áåçûìÿííûé_ãðàäèåíò_67-2);
      }

      .cls-38 {
        fill: url(#_Áåçûìÿííûé_ãðàäèåíò_271-3);
        opacity: .5;
      }

      .cls-71 {
        fill: url(#_Áåçûìÿííûé_ãðàäèåíò_67-6);
      }

      .cls-39 {
        fill: url(#_Áåçûìÿííûé_ãðàäèåíò_271-29);
      }

      .cls-72 {
        fill: #3f2f4c;
      }
    </style>
    <radialGradient id="_Áåçûìÿííûé_ãðàäèåíò_215" data-name="Áåçûìÿííûé ãðàäèåíò 215" cx="176.64" cy="45.42" fx="176.64" fy="45.42" r="120.15" gradientUnits="userSpaceOnUse">
      <stop offset=".03" stop-color="#a9a0a3"/>
      <stop offset=".99" stop-color="#8c88a3"/>
    </radialGradient>
    <radialGradient id="_Áåçûìÿííûé_ãðàäèåíò_215-2" data-name="Áåçûìÿííûé ãðàäèåíò 215" cx="125.87" cy="27.46" fx="125.87" fy="27.46" r="67.09" xlink:href="#_Áåçûìÿííûé_ãðàäèåíò_215"/>
    <linearGradient id="_Áåçûìÿííûé_ãðàäèåíò_271" data-name="Áåçûìÿííûé ãðàäèåíò 271" x1="30.25" y1="116.57" x2="253.81" y2="-60.37" gradientUnits="userSpaceOnUse">
      <stop offset="0" stop-color="#fff"/>
      <stop offset=".98" stop-color="#aa0038"/>
    </linearGradient>
    <linearGradient id="_Áåçûìÿííûé_ãðàäèåíò_271-2" data-name="Áåçûìÿííûé ãðàäèåíò 271" x1="112.11" y1="77.16" x2="219.26" y2="-7.65" xlink:href="#_Áåçûìÿííûé_ãðàäèåíò_271"/>
    <radialGradient id="_Áåçûìÿííûé_ãðàäèåíò_215-3" data-name="Áåçûìÿííûé ãðàäèåíò 215" cx="-1239.32" cy="13.9" fx="-1239.32" fy="13.9" r="67.1" gradientTransform="translate(-1033.85 -10.07) rotate(-178.99) scale(1 -1)" xlink:href="#_Áåçûìÿííûé_ãðàäèåíò_215"/>
    <linearGradient id="_Áåçûìÿííûé_ãðàäèåíò_271-3" data-name="Áåçûìÿííûé ãðàäèåíò 271" x1="-1334.94" y1="103.02" x2="-1111.38" y2="-73.93" gradientTransform="translate(-1033.85 -10.07) rotate(-178.99) scale(1 -1)" xlink:href="#_Áåçûìÿííûé_ãðàäèåíò_271"/>
    <linearGradient id="_Áåçûìÿííûé_ãðàäèåíò_271-4" data-name="Áåçûìÿííûé ãðàäèåíò 271" x1="-1253.08" y1="63.6" x2="-1145.93" y2="-21.21" gradientTransform="translate(-1033.85 -10.07) rotate(-178.99) scale(1 -1)" xlink:href="#_Áåçûìÿííûé_ãðàäèåíò_271"/>
    <linearGradient id="_Áåçûìÿííûé_ãðàäèåíò_271-5" data-name="Áåçûìÿííûé ãðàäèåíò 271" x1="198.13" y1="31.82" x2="235.24" y2="85.79" xlink:href="#_Áåçûìÿííûé_ãðàäèåíò_271"/>
    <linearGradient id="_Áåçûìÿííûé_ãðàäèåíò_271-6" data-name="Áåçûìÿííûé ãðàäèåíò 271" x1="143.58" y1="13.85" x2="100.21" y2="91.51" xlink:href="#_Áåçûìÿííûé_ãðàäèåíò_271"/>
    <linearGradient id="_Áåçûìÿííûé_ãðàäèåíò_271-7" data-name="Áåçûìÿííûé ãðàäèåíò 271" x1="59.04" y1="85.09" x2="72.32" y2="85.09" xlink:href="#_Áåçûìÿííûé_ãðàäèåíò_271"/>
    <linearGradient id="_Áåçûìÿííûé_ãðàäèåíò_271-8" data-name="Áåçûìÿííûé ãðàäèåíò 271" x1="-1000.57" y1="85.33" x2="-990.19" y2="85.33" gradientTransform="translate(-727.91) rotate(-180) scale(1 -1)" xlink:href="#_Áåçûìÿííûé_ãðàäèåíò_271"/>
    <radialGradient id="_Áåçûìÿííûé_ãðàäèåíò_42" data-name="Áåçûìÿííûé ãðàäèåíò 42" cx="528.6" cy="-505.47" fx="528.6" fy="-505.47" r="31.52" gradientTransform="translate(794.62 -346.65) rotate(95.03) scale(.83 -1)" gradientUnits="userSpaceOnUse">
      <stop offset="0" stop-color="#ffb500"/>
      <stop offset="1" stop-color="#ffb72d"/>
    </radialGradient>
    <linearGradient id="_Áåçûìÿííûé_ãðàäèåíò_271-9" data-name="Áåçûìÿííûé ãðàäèåíò 271" x1="-1069.14" y1="44.52" x2="-1044.59" y2="46.02" gradientTransform="translate(-805.87) rotate(-180) scale(1 -1)" xlink:href="#_Áåçûìÿííûé_ãðàäèåíò_271"/>
    <linearGradient id="_Áåçûìÿííûé_ãðàäèåíò_271-10" data-name="Áåçûìÿííûé ãðàäèåíò 271" x1="562.44" y1="-485.89" x2="573.41" y2="-513.95" gradientTransform="translate(794.62 -346.65) rotate(95.03) scale(.83 -1)" xlink:href="#_Áåçûìÿííûé_ãðàäèåíò_271"/>
    <radialGradient id="_Áåçûìÿííûé_ãðàäèåíò_42-2" data-name="Áåçûìÿííûé ãðàäèåíò 42" cx="647.15" cy="-1639.42" fx="647.15" fy="-1639.42" r="31.52" gradientTransform="translate(-1600.49 -346.65) rotate(84.97) scale(.83 1)" xlink:href="#_Áåçûìÿííûé_ãðàäèåíò_42"/>
    <linearGradient id="_Áåçûìÿííûé_ãðàäèåíò_271-11" data-name="Áåçûìÿííûé ãðàäèåíò 271" x1="69.09" y1="42.74" x2="93.64" y2="44.24" xlink:href="#_Áåçûìÿííûé_ãðàäèåíò_271"/>
    <linearGradient id="_Áåçûìÿííûé_ãðàäèåíò_271-12" data-name="Áåçûìÿííûé ãðàäèåíò 271" x1="680.99" y1="-1619.84" x2="691.96" y2="-1647.9" gradientTransform="translate(-1600.49 -346.65) rotate(84.97) scale(.83 1)" xlink:href="#_Áåçûìÿííûé_ãðàäèåíò_271"/>
    <radialGradient id="_Áåçûìÿííûé_ãðàäèåíò_42-3" data-name="Áåçûìÿííûé ãðàäèåíò 42" cx="124.45" cy="72.93" fx="124.45" fy="72.93" r="31.41" gradientTransform="matrix(1,0,0,1,0,0)" xlink:href="#_Áåçûìÿííûé_ãðàäèåíò_42"/>
    <linearGradient id="_Áåçûìÿííûé_ãðàäèåíò_271-13" data-name="Áåçûìÿííûé ãðàäèåíò 271" x1="114.67" y1="102.74" x2="134.49" y2="52.07" xlink:href="#_Áåçûìÿííûé_ãðàäèåíò_271"/>
    <linearGradient id="_Áåçûìÿííûé_ãðàäèåíò_271-14" data-name="Áåçûìÿííûé ãðàäèåíò 271" x1="158.11" y1="92.51" x2="169.09" y2="64.46" xlink:href="#_Áåçûìÿííûé_ãðàäèåíò_271"/>
    <linearGradient id="_Áåçûìÿííûé_ãðàäèåíò_271-15" data-name="Áåçûìÿííûé ãðàäèåíò 271" x1="99.66" y1="71.78" x2="82.52" y2="56.6" xlink:href="#_Áåçûìÿííûé_ãðàäèåíò_271"/>
    <linearGradient id="_Áåçûìÿííûé_ãðàäèåíò_271-16" data-name="Áåçûìÿííûé ãðàäèåíò 271" x1="85.52" y1="75.56" x2="86.57" y2="72.88" xlink:href="#_Áåçûìÿííûé_ãðàäèåíò_271"/>
    <radialGradient id="_Áåçûìÿííûé_ãðàäèåíò_42-4" data-name="Áåçûìÿííûé ãðàäèåíò 42" cx="-1145.85" cy="76.52" fx="-1145.85" fy="76.52" r="31.41" gradientTransform="translate(-938.21 3.8) rotate(179.59) scale(1 -1)" xlink:href="#_Áåçûìÿííûé_ãðàäèåíò_42"/>
    <linearGradient id="_Áåçûìÿííûé_ãðàäèåíò_271-17" data-name="Áåçûìÿííûé ãðàäèåíò 271" x1="-1155.62" y1="106.32" x2="-1135.81" y2="55.65" gradientTransform="translate(-938.21 3.8) rotate(179.59) scale(1 -1)" xlink:href="#_Áåçûìÿííûé_ãðàäèåíò_271"/>
    <linearGradient id="_Áåçûìÿííûé_ãðàäèåíò_271-18" data-name="Áåçûìÿííûé ãðàäèåíò 271" x1="-1112.18" y1="96.1" x2="-1101.21" y2="68.04" gradientTransform="translate(-938.21 3.8) rotate(179.59) scale(1 -1)" xlink:href="#_Áåçûìÿííûé_ãðàäèåíò_271"/>
    <linearGradient id="_Áåçûìÿííûé_ãðàäèåíò_271-19" data-name="Áåçûìÿííûé ãðàäèåíò 271" x1="-1170.63" y1="75.36" x2="-1187.78" y2="60.18" gradientTransform="translate(-938.21 3.8) rotate(179.59) scale(1 -1)" xlink:href="#_Áåçûìÿííûé_ãðàäèåíò_271"/>
    <linearGradient id="_Áåçûìÿííûé_ãðàäèåíò_271-20" data-name="Áåçûìÿííûé ãðàäèåíò 271" x1="-1184.77" y1="79.14" x2="-1183.72" y2="76.46" gradientTransform="translate(-938.21 3.8) rotate(179.59) scale(1 -1)" xlink:href="#_Áåçûìÿííûé_ãðàäèåíò_271"/>
    <linearGradient id="_Áåçûìÿííûé_ãðàäèåíò_271-21" data-name="Áåçûìÿííûé ãðàäèåíò 271" x1="160.98" y1="74.66" x2="170.56" y2="67.08" xlink:href="#_Áåçûìÿííûé_ãðàäèåíò_271"/>
    <linearGradient id="_Áåçûìÿííûé_ãðàäèåíò_271-22" data-name="Áåçûìÿííûé ãðàäèåíò 271" x1="39.12" y1="-2049.16" x2="12.2" y2="-2014.27" gradientTransform="translate(-1669.67 -648.67) rotate(109.96)" xlink:href="#_Áåçûìÿííûé_ãðàäèåíò_271"/>
    <radialGradient id="_Áåçûìÿííûé_ãðàäèåíò_9" data-name="Áåçûìÿííûé ãðàäèåíò 9" cx="14.65" cy="-2029.58" fx="14.65" fy="-2029.58" r="29.58" gradientTransform="translate(-1669.67 -648.67) rotate(109.96)" gradientUnits="userSpaceOnUse">
      <stop offset=".02" stop-color="#49456c"/>
      <stop offset=".99" stop-color="#4a335f"/>
    </radialGradient>
    <linearGradient id="_Áåçûìÿííûé_ãðàäèåíò_271-23" data-name="Áåçûìÿííûé ãðàäèåíò 271" x1="-1348.59" y1="-1833.37" x2="-1343.72" y2="-1871.6" gradientTransform="translate(-972.1 -1903.06) rotate(-176.04)" xlink:href="#_Áåçûìÿííûé_ãðàäèåíò_271"/>
    <linearGradient id="_Áåçûìÿííûé_ãðàäèåíò_271-24" data-name="Áåçûìÿííûé ãðàäèåíò 271" x1="-1323.76" y1="-1874.58" x2="-1322.25" y2="-1886.43" gradientTransform="translate(-972.1 -1903.06) rotate(-176.04)" xlink:href="#_Áåçûìÿííûé_ãðàäèåíò_271"/>
    <linearGradient id="_Áåçûìÿííûé_ãðàäèåíò_271-25" data-name="Áåçûìÿííûé ãðàäèåíò 271" x1="-1334.92" y1="-1849.52" x2="-1335.26" y2="-1843.33" gradientTransform="translate(-972.1 -1903.06) rotate(-176.04)" xlink:href="#_Áåçûìÿííûé_ãðàäèåíò_271"/>
    <linearGradient id="_Áåçûìÿííûé_ãðàäèåíò_271-26" data-name="Áåçûìÿííûé ãðàäèåíò 271" x1="238.94" y1="68.85" x2="213.07" y2="29.21" xlink:href="#_Áåçûìÿííûé_ãðàäèåíò_271"/>
    <linearGradient id="_Áåçûìÿííûé_ãðàäèåíò_271-27" data-name="Áåçûìÿííûé ãðàäèåíò 271" x1="-1312.14" y1="-1904.42" x2="-1314.63" y2="-1859.29" gradientTransform="translate(-972.1 -1903.06) rotate(-176.04)" xlink:href="#_Áåçûìÿííûé_ãðàäèåíò_271"/>
    <linearGradient id="_Áåçûìÿííûé_ãðàäèåíò_271-28" data-name="Áåçûìÿííûé ãðàäèåíò 271" x1="11.76" y1="-2022.56" x2="14.99" y2="-2035" gradientTransform="translate(-1669.67 -648.67) rotate(109.96)" xlink:href="#_Áåçûìÿííûé_ãðàäèåíò_271"/>
    <linearGradient id="_Áåçûìÿííûé_ãðàäèåíò_271-29" data-name="Áåçûìÿííûé ãðàäèåíò 271" x1="664.06" y1="-327.96" x2="637.14" y2="-293.06" gradientTransform="translate(171.35 -648.67) rotate(70.04) scale(1 -1)" xlink:href="#_Áåçûìÿííûé_ãðàäèåíò_271"/>
    <radialGradient id="_Áåçûìÿííûé_ãðàäèåíò_9-2" data-name="Áåçûìÿííûé ãðàäèåíò 9" cx="110.59" cy="37.56" fx="110.59" fy="37.56" r="31.29" gradientTransform="matrix(1,0,0,1,0,0)" xlink:href="#_Áåçûìÿííûé_ãðàäèåíò_9"/>
    <linearGradient id="_Áåçûìÿííûé_ãðàäèåíò_271-30" data-name="Áåçûìÿííûé ãðàäèåíò 271" x1="477.1" y1="-1960.06" x2="481.97" y2="-1998.29" gradientTransform="translate(-526.22 -1903.06) rotate(-3.96) scale(1 -1)" xlink:href="#_Áåçûìÿííûé_ãðàäèåíò_271"/>
    <linearGradient id="_Áåçûìÿííûé_ãðàäèåíò_271-31" data-name="Áåçûìÿííûé ãðàäèåíò 271" x1="503.11" y1="-2001.12" x2="504.62" y2="-2012.97" gradientTransform="translate(-526.22 -1903.06) rotate(-3.96) scale(1 -1)" xlink:href="#_Áåçûìÿííûé_ãðàäèåíò_271"/>
    <linearGradient id="_Áåçûìÿííûé_ãðàäèåíò_271-32" data-name="Áåçûìÿííûé ãðàäèåíò 271" x1="-1724.61" y1="-1460.37" x2="-1721.65" y2="-1471.74" gradientTransform="translate(-1819.92 -1143.07) rotate(-107.6) scale(1 -1)" xlink:href="#_Áåçûìÿííûé_ãðàäèåíò_271"/>
    <linearGradient id="_Áåçûìÿííûé_ãðàäèåíò_271-33" data-name="Áåçûìÿííûé ãðàäèåíò 271" x1="107.66" y1="62.04" x2="110.75" y2="37.16" xlink:href="#_Áåçûìÿííûé_ãðàäèåíò_271"/>
    <linearGradient id="_Áåçûìÿííûé_ãðàäèåíò_271-34" data-name="Áåçûìÿííûé ãðàäèåíò 271" x1="382.07" y1="54.61" x2="378.96" y2="35.38" xlink:href="#_Áåçûìÿííûé_ãðàäèåíò_271"/>
    <linearGradient id="_Áåçûìÿííûé_ãðàäèåíò_271-35" data-name="Áåçûìÿííûé ãðàäèåíò 271" x1="369.8" y1="140.07" x2="379.59" y2="67.15" xlink:href="#_Áåçûìÿííûé_ãðàäèåíò_271"/>
    <linearGradient id="_Áåçûìÿííûé_ãðàäèåíò_5" data-name="Áåçûìÿííûé ãðàäèåíò 5" x1="-246.34" y1="463.88" x2="-239.93" y2="472.64" gradientTransform="translate(386.11 -518.82) rotate(-22.64)" gradientUnits="userSpaceOnUse">
      <stop offset="0" stop-color="#62652a"/>
      <stop offset="1" stop-color="#404e12"/>
    </linearGradient>
    <linearGradient id="_Áåçûìÿííûé_ãðàäèåíò_67" data-name="Áåçûìÿííûé ãðàäèåíò 67" x1="-210.72" y1="557.62" x2="-252.69" y2="520.25" gradientTransform="translate(386.11 -518.82) rotate(-22.64)" gradientUnits="userSpaceOnUse">
      <stop offset="0" stop-color="#798633"/>
      <stop offset="1" stop-color="#506f15"/>
    </linearGradient>
    <linearGradient id="_Áåçûìÿííûé_ãðàäèåíò_67-2" data-name="Áåçûìÿííûé ãðàäèåíò 67" x1="-185.56" y1="532.08" x2="-227.54" y2="494.71" xlink:href="#_Áåçûìÿííûé_ãðàäèåíò_67"/>
    <linearGradient id="_Áåçûìÿííûé_ãðàäèåíò_271-36" data-name="Áåçûìÿííûé ãðàäèåíò 271" x1="-230.12" y1="483.97" x2="-222.71" y2="514.63" gradientTransform="translate(386.11 -518.82) rotate(-22.64)" xlink:href="#_Áåçûìÿííûé_ãðàäèåíò_271"/>
    <linearGradient id="_Áåçûìÿííûé_ãðàäèåíò_5-2" data-name="Áåçûìÿííûé ãðàäèåíò 5" x1="-267.89" y1="463.85" x2="-260.22" y2="474.34" xlink:href="#_Áåçûìÿííûé_ãðàäèåíò_5"/>
    <linearGradient id="_Áåçûìÿííûé_ãðàäèåíò_67-3" data-name="Áåçûìÿííûé ãðàäèåíò 67" x1="-200.88" y1="553.3" x2="-242.86" y2="515.93" xlink:href="#_Áåçûìÿííûé_ãðàäèåíò_67"/>
    <linearGradient id="_Áåçûìÿííûé_ãðàäèåíò_5-3" data-name="Áåçûìÿííûé ãðàäèåíò 5" x1="-201.41" y1="547.49" x2="-239.14" y2="513.9" xlink:href="#_Áåçûìÿííûé_ãðàäèåíò_5"/>
    <linearGradient id="_Áåçûìÿííûé_ãðàäèåíò_67-4" data-name="Áåçûìÿííûé ãðàäèåíò 67" x1="392.37" y1="101.42" x2="376.15" y2="53.04" gradientTransform="matrix(1,0,0,1,0,0)" xlink:href="#_Áåçûìÿííûé_ãðàäèåíò_67"/>
    <linearGradient id="_Áåçûìÿííûé_ãðàäèåíò_67-5" data-name="Áåçûìÿííûé ãðàäèåíò 67" x1="446.22" y1="69.34" x2="307.3" y2="21.42" gradientTransform="matrix(1,0,0,1,0,0)" xlink:href="#_Áåçûìÿííûé_ãðàäèåíò_67"/>
    <linearGradient id="_Áåçûìÿííûé_ãðàäèåíò_67-6" data-name="Áåçûìÿííûé ãðàäèåíò 67" x1="-2385.72" y1="278.75" x2="-2524.64" y2="230.82" gradientTransform="translate(-10.73 -2383.5) rotate(-92.98)" xlink:href="#_Áåçûìÿííûé_ãðàäèåíò_67"/>
    <linearGradient id="_Áåçûìÿííûé_ãðàäèåíò_52" data-name="Áåçûìÿííûé ãðàäèåíò 52" x1="351.01" y1="239.07" x2="346.01" y2="229.02" gradientTransform="translate(107.98 436.74) rotate(-27.92) scale(1 -1)" gradientUnits="userSpaceOnUse">
      <stop offset=".01" stop-color="#ffff6a"/>
      <stop offset=".12" stop-color="#f0e968"/>
      <stop offset=".35" stop-color="#ccb364"/>
      <stop offset=".66" stop-color="#925c5d"/>
      <stop offset=".98" stop-color="#540056"/>
    </linearGradient>
    <linearGradient id="_Áåçûìÿííûé_ãðàäèåíò_52-2" data-name="Áåçûìÿííûé ãðàäèåíò 52" x1="357.67" y1="235.84" x2="352.66" y2="225.76" xlink:href="#_Áåçûìÿííûé_ãðàäèåíò_52"/>
    <linearGradient id="_Áåçûìÿííûé_ãðàäèåíò_271-37" data-name="Áåçûìÿííûé ãðàäèåíò 271" x1="347.97" y1="234.86" x2="347.87" y2="208.15" gradientTransform="translate(107.98 436.74) rotate(-27.92) scale(1 -1)" xlink:href="#_Áåçûìÿííûé_ãðàäèåíò_271"/>
    <radialGradient id="_Áåçûìÿííûé_ãðàäèåíò_27" data-name="Áåçûìÿííûé ãðàäèåíò 27" cx="348.44" cy="222.18" fx="348.44" fy="222.18" r="4.53" gradientTransform="translate(107.98 436.74) rotate(-27.92) scale(1 -1)" gradientUnits="userSpaceOnUse">
      <stop offset="0" stop-color="#d7dcdf"/>
      <stop offset=".96" stop-color="#dccad4"/>
    </radialGradient>
    <linearGradient id="_Áåçûìÿííûé_ãðàäèåíò_52-3" data-name="Áåçûìÿííûé ãðàäèåíò 52" x1="47.07" y1="397.58" x2="42.08" y2="387.53" gradientTransform="translate(-96.38 442.81) rotate(-155.75)" xlink:href="#_Áåçûìÿííûé_ãðàäèåíò_52"/>
    <linearGradient id="_Áåçûìÿííûé_ãðàäèåíò_52-4" data-name="Áåçûìÿííûé ãðàäèåíò 52" x1="53.73" y1="394.35" x2="48.72" y2="384.27" gradientTransform="translate(-96.38 442.81) rotate(-155.75)" xlink:href="#_Áåçûìÿííûé_ãðàäèåíò_52"/>
    <linearGradient id="_Áåçûìÿííûé_ãðàäèåíò_271-38" data-name="Áåçûìÿííûé ãðàäèåíò 271" x1="44.03" y1="393.37" x2="43.93" y2="366.67" gradientTransform="translate(-96.38 442.81) rotate(-155.75)" xlink:href="#_Áåçûìÿííûé_ãðàäèåíò_271"/>
    <radialGradient id="_Áåçûìÿííûé_ãðàäèåíò_27-2" data-name="Áåçûìÿííûé ãðàäèåíò 27" cx="44.5" cy="380.69" fx="44.5" fy="380.69" r="4.53" gradientTransform="translate(-96.38 442.81) rotate(-155.75)" xlink:href="#_Áåçûìÿííûé_ãðàäèåíò_27"/>
  </defs>
  <g class="cls-49">
    <g id="Layer_1" data-name="Layer 1">
      <g>
        <g>
          <path class="cls-65" d="m275.99,15.37c4.99,3.93-3.71,78.01-3.71,78.01,0,0-45.94,4.36-100.74,5.48-54.8,1.12-112.19-5.06-112.19-5.06,0,0-8.3-75.55-2.42-76.32,7.51-.99,214.06-6.04,219.05-2.11Z"/>
          <path class="cls-29" d="m63.47,17.1l2.05,66.9s54.25,6.22,106.07,5.09c51.82-1.13,95.26-5.52,95.26-5.52l.95-68.49-103.55-.47-100.78,2.48Z"/>
          <g>
            <path class="cls-48" d="m164.56,58.82c-.05,1.1-.1,2.17-.15,3.2v.04c-.39,7.68-.87,13.31-1.42,13.89-1.86,1.97-85.89-.7-85.89-.7,0,0-4.5-55.94-1.46-61,.65-1.07,5-1.84,11.47-2.37,16.19-1.33,45.62-1.16,63.32-.5,7.46.28,12.84.64,14.26,1.02.21.06.34.11.37.17.2.36.3,3.36.32,7.88h0c.05,9.56-.26,25.89-.81,38.37Z"/>
            <path class="cls-15" d="m164.56,58.82l.81,10.51c-.73.73-1.18-.37-1.03-4.76.03-.79.05-1.63.06-2.5v-.04c.03-1.54.03-3.19.02-4.92-.08-16.37-1.57-39.8-1.75-42.5-.01-.17-.02-.26-.02-.26,0,0-41.05-3.56-75.34-2.25l-.21-.21c16.19-1.33,45.62-1.16,63.32-.5,7.46.28,12.84.64,14.26,1.02.21.06.34.11.37.17.2.36.3,3.36.32,7.88h0c.05,9.56-.26,25.89-.81,38.37Z"/>
            <path class="cls-21" d="m164.56,58.82l-.13-1.72c-.08-16.37-1.57-39.8-1.75-42.5.55-.56,1.24-1.29,2-2.2.21.06.34.11.37.17.2.36.3,3.36.32,7.88h0c.05,9.56-.26,25.89-.81,38.37Z"/>
          </g>
          <g>
            <path class="cls-62" d="m165.75,56.43c.03,1.1.06,2.17.1,3.2v.04c.25,7.69.63,13.32,1.17,13.91,1.82,2,85.89.82,85.89.82,0,0,5.49-55.86,2.54-60.97-.63-1.08-4.97-1.93-11.42-2.58-16.16-1.61-45.59-1.96-63.3-1.62-7.46.14-12.85.41-14.27.77-.22.05-.34.1-.37.16-.2.36-.36,3.36-.46,7.88h0c-.22,9.55-.19,25.89.13,38.38Z"/>
            <path class="cls-38" d="m165.75,56.43l-1,10.49c.72.74,1.18-.35,1.11-4.74-.01-.79-.02-1.63-.02-2.51v-.04c0-1.54.02-3.19.07-4.92.37-16.37,2.28-39.76,2.5-42.46.01-.17.02-.26.02-.26,0,0,41.1-2.83,75.37-.92l.22-.21c-16.16-1.61-45.59-1.96-63.3-1.62-7.46.14-12.85.41-14.27.77-.22.05-.34.1-.37.16-.2.36-.36,3.36-.46,7.88h0c-.22,9.55-.19,25.89.13,38.38Z"/>
            <path class="cls-26" d="m165.75,56.43l.16-1.72c.37-16.37,2.28-39.76,2.5-42.46-.54-.57-1.22-1.31-1.96-2.24-.22.05-.34.1-.37.16-.2.36-.36,3.36-.46,7.88h0c-.22,9.55-.19,25.89.13,38.38Z"/>
          </g>
          <path class="cls-11" d="m227.5,53.32c9.84-5.62,14.43-36.73,14.43-36.73l8.34,61.47-86.02-16.59,63.25-8.15Z"/>
          <path class="cls-34" d="m106.9,53.88c-9.84-5.62-16.59-38.51-16.59-38.51l-5.34,59.6,82.09-9.28-60.16-11.81Z"/>
          <path class="cls-4" d="m59.36,93.8c3.59-.47,12.96-17.43,12.96-17.43l-13.28,14.41.32,3.02Z"/>
          <path class="cls-28" d="m272.34,93.17c-3.59-.47-10.06-15.67-10.06-15.67l10.38,12.65-.32,3.02Z"/>
          <g>
            <path class="cls-41" d="m238.85,77.77c19.8,1.74,19.49,1.51,20.38,1.55h.06c1.52.08,2.65.11,3.13.07.36-.03.76-1.02,1.18-2.76,2.57-10.64,5.76-49.16,3.52-65.08l-5.13-1.56-.96-.15-17.32,3.22c-8.01,21.57-5.51,56.92-4.95,63.6.06.63.09,1.01.1,1.09v.02Z"/>
            <path class="cls-9" d="m238.85,77.77c19.8,1.74,19.49,1.51,20.38,1.55h.06s3.13.07,3.13.07l-6.03-2.08s1.52-33.51,5.6-67.32l-.96-.15-17.32,3.22c-8.01,21.57-5.51,56.92-4.95,63.6,0,.09.02.18.02.26.01.11.02.2.02.29.02.19.03.33.04.42,0,.06,0,.1.01.12v.02Z"/>
            <path class="cls-14" d="m238.85,77.77c19.8,1.74,19.49,1.51,20.38,1.55h.06c1.52.08,2.65.11,3.13.07l-6.03-2.08c-2.86.69-13.44-.36-17.63-.65,0,.09.02.18.02.26.01.11.02.2.02.29.02.19.03.33.04.42,0,.06,0,.1.01.12v.02Z"/>
          </g>
          <g>
            <path class="cls-40" d="m93.51,75.99c-19.8,1.74-19.49,1.51-20.38,1.55h-.06c-1.52.08-2.65.11-3.13.07-.36-.03-.76-1.02-1.18-2.76-2.57-10.64-5.76-49.16-3.52-65.08l5.13-1.56.96-.15,17.32,3.22c8.01,21.57,5.51,56.92,4.95,63.6-.06.63-.09,1.01-.1,1.09v.02Z"/>
            <path class="cls-17" d="m93.51,75.99c-19.8,1.74-19.49,1.51-20.38,1.55h-.06s-3.13.07-3.13.07l6.03-2.08s-1.52-33.51-5.6-67.32l.96-.15,17.32,3.22c8.01,21.57,5.51,56.92,4.95,63.6,0,.09-.02.18-.02.26-.01.11-.02.2-.02.29-.02.19-.03.33-.04.42,0,.06,0,.1-.01.12v.02Z"/>
            <path class="cls-10" d="m93.51,75.99c-19.8,1.74-19.49,1.51-20.38,1.55h-.06c-1.52.08-2.65.11-3.13.07l6.03-2.08c2.86.69,13.44-.36,17.63-.65,0,.09-.02.18-.02.26-.01.11-.02.2-.02.29-.02.19-.03.33-.04.42,0,.06,0,.1-.01.12v.02Z"/>
          </g>
          <g>
            <path class="cls-61" d="m166.4,61.99s0,13.83-.29,20.44v.06c-.07,1.52-.15,2.65-.25,3.12-.07.35-1.32.67-3.45.93-13.1,1.62-59.89,1.43-78.85-2.2l-1-12.1-.08-.97,5.38-10.12c26.86-6.09,69.22-.5,77.21.64.75.11,1.21.18,1.3.19h.02Z"/>
            <path class="cls-36" d="m166.4,61.99s0,13.83-.29,20.44v.06l-.25,3.12-2.42-12.23s-39.68-2.24-80.88-1.13l-.02-.25-.06-.72,5.38-10.12s.08-.02.12-.03c1.32-.3,2.69-.57,4.07-.8,3.35-.58,6.88-1.02,10.51-1.32,25.49-2.17,55.87,1.85,62.51,2.8.11.02.21.03.31.04.13.02.24.04.35.05.23.03.39.06.51.08.07.01.12.02.14.02h.02Z"/>
            <path class="cls-27" d="m166.4,61.99s0,13.83-.29,20.44v.06c-.07,1.52-.15,2.65-.25,3.12l-2.42-12.23c1.14-2.79,1.54-7.38,1.63-11.58.11.02.21.03.31.04.13.02.24.04.35.05.23.03.39.06.51.08.07.01.12.02.14.02h.02Z"/>
            <path class="cls-24" d="m102.57,58.99c-12.51,1.55-18.38,9.17-20.02,12.99l-.06-.72,5.38-10.12s.08-.02.12-.03c1.32-.3,2.69-.57,4.07-.8,3.35-.58,6.88-1.02,10.51-1.32Z"/>
            <path class="cls-1" d="m82.45,71.35c1.37,6.24,6.93,6.37,6.93,6.37l-6.93-6.37Z"/>
          </g>
          <g>
            <path class="cls-50" d="m166.15,61.54s.1,13.83.43,20.43v.06c.08,1.52.17,2.65.28,3.12.07.35,1.32.66,3.46.91,13.11,1.53,59.89,1.01,78.83-2.75l.91-12.11.08-.98-5.45-10.08c-26.9-5.9-69.22-.01-77.2,1.19-.75.12-1.2.18-1.3.2h-.02Z"/>
            <path class="cls-32" d="m166.15,61.53s.1,13.83.43,20.43v.06s.28,3.12.28,3.12l2.33-12.25s39.66-2.52,80.87-1.71l.02-.25.06-.72-5.45-10.08s-.08-.02-.12-.03c-1.32-.29-2.69-.55-4.08-.78-3.35-.56-6.88-.97-10.52-1.25-25.5-1.99-55.85,2.24-62.49,3.24-.11.02-.21.03-.31.05-.13.02-.24.04-.35.05-.23.03-.39.06-.51.08-.07.01-.12.02-.14.02h-.02Z"/>
            <path class="cls-35" d="m166.15,61.54s.1,13.83.43,20.43v.06c.08,1.52.17,2.65.28,3.12l2.33-12.25c-1.16-2.78-1.59-7.37-1.71-11.57-.11.02-.21.03-.31.05-.13.02-.24.04-.35.05-.23.03-.39.06-.51.08-.07.01-.12.02-.14.02h-.02Z"/>
            <path class="cls-6" d="m229.96,58.09c12.52,1.46,18.44,9.04,20.11,12.85l.06-.72-5.45-10.08s-.08-.02-.12-.03c-1.32-.29-2.69-.55-4.08-.78-3.35-.56-6.88-.97-10.52-1.25Z"/>
            <path class="cls-18" d="m250.17,70.3c-1.33,6.25-6.89,6.42-6.89,6.42l6.89-6.42Z"/>
          </g>
          <path class="cls-5" d="m165.71,68.88l-.06,4.11-.28-3.67c.1-.11.22-.25.34-.44Z"/>
        </g>
        <g>
          <path class="cls-16" d="m241.41,21.93c-2.8,4.82-11.26,16.85-18.32,23.52-8.11,7.67-37.48,14.06-37.48,14.06,0,0,18.42-2.45,24.36,3,5.95,5.45,7.73,7.45,7.73,7.45,0,0,5.48-.59,14.04-5.88,15.55-9.61,19.42-21.36,19.42-21.36l-11.38-14.65,1.63-6.14Z"/>
          <path class="cls-56" d="m216.48,67.79h0c0-.08,0-.13,0-.13v-.02s-.02,0-.02-.02c-.09-.11-.32-.48-.66-1.06-.63-1.07-1.68-2.82-2.85-4.92h0c-.78-1.4-1.71-2.95-2.68-4.55-1.42-2.37-2.9-4.85-4.02-7.06-.13-.26-.25-.5-.37-.74-.3-.64-.56-1.24-.78-1.81-.09-.24-.18-.47-.25-.69-.27-.77-2.8-1.99-2.83-2.56-.04-1.14,3.39-1.91,4.79-3.32.13-.14.26-.27.41-.4.01-.02.04-.04.06-.06.06-.05.11-.11.16-.16.17-.17.36-.33.53-.52.02-.02.05-.05.07-.07.21-.19.41-.39.62-.58.03-.03.06-.05.09-.08.36-.34.72-.67,1.09-1.02.13-.13.27-.27.4-.4,0,0,0,0,0,0h.01c3.86-3.87,9.87-7.69,15.99-9.25,1.84-.46,3.7-.73,5.51-.72.68,0,1.32.04,1.97.11h.03s.04.01.04.01c.09.03.2.09.34.17.04.02.1.05.15.08,1.16.73,3.69,2.81,6.46,5.12.2.17.4.33.59.49.02.03.05.05.07.07.22.19.45.38.68.57.4.33.79.67,1.18,1,.13.11.25.21.38.31,1.85,1.56,3.62,3.04,4.99,4.11.17.14.34.27.5.39,1.05.81,1.77,1.3,1.96,1.27.93-.17,2.19.05,2.19.05l-.93,1.67c-.54.99-1.27,2.02-2.13,3.08-.49.6-1.02,1.21-1.59,1.82-9.55,10.31-29.75,22.27-30.93,22-1.15-.28-1.24-1.72-1.22-2.16Z"/>
          <path class="cls-23" d="m233.72,27.75c1.38.17,16.42,13.77,17.36,13.59.94-.16,2.19.04,2.19.04-2.24-.07-5.13,1.43-7.77,3.25-.07.04-.13.09-.2.13-2.06,1.44-3.96,3.06-5.27,4.24,1.36-1.3,3.22-3.15,4.68-4.81.02-.02.03-.03.04-.04,1.47-1.66,2.51-3.12,2.21-3.64-.83-1.45-13.24-12.77-13.24-12.77Z"/>
          <path class="cls-25" d="m216.8,67.74c.51-2.9,3.77-5.45,3.77-5.45l-5.39,3.18,1.62,2.27Z"/>
          <path class="cls-33" d="m230.62,31.21l1.13-3.57c.67,0,1.32.04,1.97.11h.03s.42.23.42.23c-1.88.4-3.54,3.23-3.54,3.23Z"/>
          <path class="cls-30" d="m210.26,57.1c-1.42-2.37-2.9-4.85-4.02-7.06-.13-.26-.25-.5-.37-.74-.3-.64-.56-1.24-.78-1.81-.09-.24-.18-.47-.25-.69-.27-.77-.42-1.45-.44-2.03-.04-1.14,1-2.44,2.4-3.86.13-.14.26-.27.41-.4,1.35-.86,2.42-1.53,2.42-1.53.02-.09-.69.26-1.67.8.02-.02.05-.05.07-.07.21-.19.41-.39.62-.58.03-.03.06-.05.09-.08.36-.34.72-.67,1.09-1.02.13-.13.27-.27.4-.4,0,0,0,0,0,0h.01c3.86-3.87,9.87-7.69,15.99-9.25,1.92.08,3.59.48,4.98.99.21.08.42.16.61.24,2.71,1.13,4.21,2.61,4.21,2.61-15.81.95-27.32,17.19-25.77,24.9Z"/>
          <path class="cls-31" d="m202.01,44.23c-.04-1.15,3.39-1.91,4.79-3.32.15-.15.3-.31.47-.46.06-.05.11-.11.17-.16l-.34,3.96,1.56-5.13.14-.47s-.03.13-.05.39c-.23,2.06-.91,12.17,6.51,26.39.1.19.2.38.3.57.29.54.59,1.08.9,1.63-.08-.11-.31-.48-.66-1.06-.63-1.07-1.68-2.82-2.85-4.92h0c-1.93-3.45-4.82-7.91-6.7-11.62-.13-.25-.25-.5-.37-.74-.3-.64-.57-1.24-.78-1.81-.09-.24-.18-.47-.25-.69-.26-.77-2.81-1.99-2.83-2.56Z"/>
          <path class="cls-12" d="m244.22,50.46c-10.75,8.81-20.41,13.38-20.41,13.38,0,0,4.74-1.12,11.18-5.66,4.91-3.46,9.23-7.71,9.23-7.71Z"/>
        </g>
        <g>
          <path class="cls-46" d="m82.35,46.39c12.74,11.24,29.99,22.86,29.99,22.86l-7.12-15.93-22.86-6.93Z"/>
          <path class="cls-39" d="m91.49,21.93c2.8,4.82,11.26,16.85,18.32,23.52,8.11,7.67,37.48,14.06,37.48,14.06,0,0-18.42-2.45-24.36,3-5.95,5.45-7.73,7.45-7.73,7.45,0,0-5.48-.59-14.04-5.88-15.55-9.61-21.76-20.95-21.76-20.95l13.72-15.06-1.63-6.14Z"/>
          <path class="cls-51" d="m130.13,43.29c-.01.24-.32.74-.69,1.31-.54.81-1.23,1.74-1.38,2.19-.08.22-.16.45-.25.69-.11.29-.23.59-.36.89-.13.3-.26.6-.41.91-.13.25-.24.48-.37.74-1.12,2.21-2.6,4.69-4.02,7.06-.96,1.61-1.9,3.16-2.68,4.55h0c-1.17,2.11-2.22,3.85-2.86,4.93-.35.58-.57.95-.66,1.06t0,.02v.02s0,.04,0,.12h0c.02.45-1.35,4.38-2.49,4.65-1.18.28-3.66-9.96-22.91-20.95-.72-.41-12.25-7.04-12.8-8.03l-.93-1.67s1.26-.21,2.19-.04c.19.03,3.25-.87,4.3-1.68.15-.13.32-.25.5-.39,1.36-1.07,3.14-2.55,4.98-4.11.13-.1.25-.21.38-.31.4-.33.79-.67,1.18-1,.23-.19.46-.38.68-.57.02-.02.06-.03.08-.07h0c.2-.17.39-.32.59-.49,2.4-2,5.47-4.24,6.22-5.78.03-.07.06-.14.08-.21-.19-1.03-.46-2.68-.14-3.25.1-.19,1.19.2,2.85.96,5.76,2.63,18.47,9.73,21.47,12.73h.02s0,.01,0,.02c.13.13.26.28.4.4.36.35.73.68,1.09,1.02.03.03.06.06.09.08.21.19.41.39.62.58.02.02.04.04.07.07.18.18.36.35.53.52.05.05.11.11.17.16.02.02.04.04.06.06.15.13.29.26.41.4.34.35.77.6,1.2.8h0c1.35.61,2.86.72,2.83,1.59Z"/>
          <path class="cls-8" d="m99.18,27.75c-1.38.17-18.76,14.17-19.7,14-.94-.16-2.19.04-2.19.04,2.24-.07,7.48,1.02,10.12,2.85.07.04.13.09.2.13,2.06,1.44,3.96,3.06,5.27,4.24-1.36-1.3-3.22-3.15-4.68-4.81-.02-.02-.03-.03-.04-.04-1.47-1.66-2.51-3.12-2.21-3.64.83-1.45,13.24-12.77,13.24-12.77Z"/>
          <path class="cls-3" d="m116.1,67.74c-.51-2.9-3.77-5.45-3.77-5.45l5.39,3.18-1.62,2.27Z"/>
          <path class="cls-2" d="m108.87,62.41c-10.38-9.24-18.63-13.77-18.63-13.77,0,0,4.69,1.31,10.93,6.12,4.76,3.66,7.7,7.65,7.7,7.65Z"/>
          <path class="cls-20" d="m129.44,44.6c-.54.81-1.23,1.74-1.38,2.19-.08.22-.16.45-.25.69-.11.29-.23.59-.36.89.9-4.32-5.09-7.97-5.36-7.64-.28.35,2.53,4.71,2.53,4.71,0,0-23.19-15.46-33.03-11.83h0c.2-.17.39-.32.59-.49,2.4-2,5.47-4.24,6.22-5.78.05.04.1.08.15.12.02.02.04.03.07.05,1.56,1.18,3.56,1.76,3.8,1.06.22-.67-.59-2.47-1.22-3.72,5.76,2.63,18.47,9.73,21.47,12.73h.02s0,.01,0,.02c.13.13.26.28.4.4.36.35.73.68,1.09,1.02.03.03.06.06.09.08.21.19.41.39.62.58.02.02.04.04.07.07.18.18.36.35.53.52.05.05.11.11.17.16.02.02.04.04.06.06.15.13.29.26.41.4.34.35.77.6,1.2.8-.58.08-.87.44.05,1.49.81.93,1.53,1.29,2.09,1.4Z"/>
        </g>
      </g>
      <g>
        <g>
          <path class="cls-54" d="m413.7,46.49c0,2.37-.31,4.68-.88,6.9-3.44,13.17-16.49,22.98-32.06,22.98-13.37,0-24.88-7.23-30.04-17.61-1.86-3.75-2.9-7.9-2.9-12.27,0-16.49,14.75-29.87,32.94-29.87s32.94,13.38,32.94,29.87Z"/>
          <path class="cls-7" d="m413.7,46.49c0,2.37-.31,4.68-.88,6.9-.25-5.58-2.9-11.5-11.58-15.06-.66-.27-1.36-.53-2.1-.77-11.98-3.95-26.75-3.55-36.81,2.1-6.83,3.85-11.49,10.11-11.61,19.1-1.86-3.75-2.9-7.9-2.9-12.27,0-16.49,14.75-29.87,32.94-29.87s32.94,13.38,32.94,29.87Z"/>
          <ellipse class="cls-58" cx="382.04" cy="45.34" rx="20.69" ry="18.77"/>
          <ellipse class="cls-22" cx="382.22" cy="47.58" rx="20.71" ry="18.78"/>
        </g>
        <path class="cls-72" d="m387.82,42.09c-.98,5.61,1.28,11.9,5.41,10.62,4.13-1.28,4.92-7.87,2.66-10.52-2.26-2.66-8.06-.1-8.06-.1Z"/>
        <path class="cls-72" d="m382.61,38.94c-.89,1.87,1.57,6.1,1.87,5.7.3-.39,1.48-2.16,1.28-3.44-.2-1.28-3.15-2.26-3.15-2.26Z"/>
        <path class="cls-72" d="m393.62,39.28c.79.98,5.31-.1,4.03-1.77s-6.39-.59-5.21.59l1.18,1.18Z"/>
        <path class="cls-67" d="m385.25,28.95c1.53,7.78-2.21,14.5-5.3,18.53-1.93,2.49-3.61,3.95-3.61,3.95-10.43-9.68-10.73-26.24-9.31-37.95.95-7.82,2.68-13.47,2.68-13.47,0,0,13.06,16.32,15.55,28.95Z"/>
        <path class="cls-68" d="m368.08,52.22c-17.66-11.77-22.1,16.15-22.1,16.15l22.1-16.15Z"/>
        <path class="cls-70" d="m379.06,50.94c2.83-11.16,22.02-34.97,22.02-34.97,0,0-6.84,22.82-12.18,28.65-5.33,5.83-9.84,6.32-9.84,6.32Z"/>
        <path class="cls-13" d="m380.14,47.93c-1.93,2.49-3.61,3.95-3.61,3.95-10.43-9.68-10.73-26.24-9.31-37.95.34-.47.54-.75.54-.75.48,18.18,9.43,31.01,12.38,34.75Z"/>
        <path class="cls-69" d="m336.73,17.73c12.34,27.58,36.22,32.31,35.49,31.23s-35.49-31.23-35.49-31.23Z"/>
        <path class="cls-53" d="m379.62,52.04c28.03-3.93,22.57,22.2,22.57,22.2l-22.57-22.2Z"/>
        <path class="cls-66" d="m379.34,51.54c28.03-3.93,21.93,15.19,21.93,15.19l-21.93-15.19Z"/>
        <path class="cls-47" d="m379.64,53.84c20.06,16.85,10.86,39.34,10.86,39.34,0,0-10.92-8.23-14.93-15.19-4.01-6.96,4.07-24.15,4.07-24.15Z"/>
        <path class="cls-52" d="m358.91,32.89c5.8,17.41,19.67,20.06,19.67,20.06,0,0-1.08-6.29-5.9-12.98-4.82-6.69-13.77-7.08-13.77-7.08Z"/>
        <path class="cls-71" d="m359.82,73.48c17.08-6.7,19.01-20.69,19.01-20.69,0,0-6.23,1.41-12.66,6.57-6.43,5.16-6.36,14.12-6.36,14.12Z"/>
      </g>
      <g>
        <path class="cls-57" d="m317.78,66.83c-.67-1.27-1.59-2.33-2.66-3.16-.39-.3-.81-.58-1.24-.81-1.93-1.07-4.21-1.47-6.43-1.07-.98.17-1.95.5-2.87.99-.83.44-1.57.98-2.21,1.6-3.05,2.95-3.93,7.66-1.85,11.6,2.52,4.77,8.43,6.58,13.2,4.05,4.77-2.52,6.58-8.43,4.06-13.2Z"/>
        <path class="cls-42" d="m307.46,61.79c-.98.17-1.95.5-2.87.99-.83.44-1.57.98-2.21,1.6l5.58,7.68h2.44s-2.94-10.26-2.94-10.26Z"/>
        <path class="cls-45" d="m315.12,63.68c-.39-.3-.81-.58-1.24-.81l-1.46,8.41.55.35,2.15-7.95Z"/>
        <path class="cls-58" d="m316.65,73.44c-1.48-2.8-4.96-3.87-7.76-2.38-2.8,1.48-3.87,4.96-2.38,7.76s4.96,3.87,7.76,2.38c2.8-1.48,3.87-4.96,2.38-7.76Z"/>
        <path class="cls-64" d="m324.35,68.04c-.04-.07-.07-.14-.11-.21.25.78.43,1.58.55,2.37.09.61.15,1.22.16,1.83.16,5.69-2.85,11.26-8.22,14.11-5.53,2.93-12.03,2.17-16.68-1.41-.97-.75-1.87-1.62-2.66-2.61-.54-.68-1.03-1.42-1.47-2.2.28.89.64,1.76,1.09,2.61.5.95,1.1,1.83,1.75,2.63,4.58,5.54,12.56,7.29,19.17,3.8,6.42-3.4,9.46-10.67,7.78-17.42-.3-1.19-.74-2.37-1.35-3.5Z"/>
        <g>
          <path class="cls-59" d="m318.42,73.46c-2.03-3.83-6.78-5.29-10.61-3.26-3.83,2.03-5.29,6.78-3.26,10.61,2.03,3.83,6.78,5.29,10.6,3.26,3.83-2.03,5.29-6.78,3.26-10.6Zm-.3.35c1.89,3.56.53,7.99-3.04,9.88-3.56,1.89-7.99.53-9.87-3.04-1.89-3.56-.53-7.98,3.03-9.87,3.56-1.89,7.99-.53,9.88,3.03Z"/>
          <polygon class="cls-59" points="296.23 83.22 304.2 79.86 304.56 80.8 296.01 83.77 296.23 83.22"/>
          <path class="cls-59" d="m318.92,79.74c.31.05,8.15,2.79,8.15,2.79l-8.14-3.58v.79Z"/>
          <polygon class="cls-59" points="309.83 69.77 308.88 58.22 310.51 69.7 309.83 69.77"/>
        </g>
        <path class="cls-63" d="m328.48,63.46c-5.57-10.51-18.6-14.52-29.12-8.95-10.51,5.57-14.52,18.6-8.95,29.12.6,1.13,1.28,2.18,2.04,3.16,6.3,8.11,17.7,10.76,27.08,5.79,8.94-4.73,13.17-14.86,10.82-24.25-.41-1.66-1.03-3.29-1.87-4.86Zm-4.46,5.05c.29.56.55,1.12.77,1.7.2.53.37,1.06.51,1.6,1.68,6.54-1.26,13.62-7.49,16.93-6.4,3.39-14.15,1.67-18.57-3.73-.62-.76-1.18-1.59-1.66-2.49-.07-.13-.13-.26-.2-.39-3.57-7.23-.76-16.03,6.42-19.83,7.3-3.87,16.36-1.08,20.23,6.22Z"/>
        <path class="cls-19" d="m330.35,68.33c-1.4,1-2.95,2.09-4.65,3.22-.13.09-.27.18-.41.27-.11.08-.23.15-.35.23.16,5.69-2.85,11.26-8.22,14.11-5.53,2.93-12.03,2.17-16.68-1.41-.27.09-.53.18-.8.27-.16.05-.32.1-.48.15-2.1.67-4.21,1.21-6.3,1.62,6.3,8.11,17.7,10.76,27.08,5.79,8.94-4.73,13.17-14.86,10.82-24.25Z"/>
        <path class="cls-55" d="m315.84,75.16c-1.17-2.21-3.92-3.06-6.13-1.88-2.21,1.17-3.06,3.92-1.88,6.13,1.17,2.21,3.92,3.06,6.13,1.88,2.21-1.17,3.06-3.92,1.88-6.13Z"/>
      </g>
      <g>
        <path class="cls-57" d="m12.8,67.38c.59-1.31,1.43-2.43,2.45-3.32.37-.33.77-.63,1.18-.89,1.86-1.2,4.1-1.74,6.35-1.48.99.11,1.97.37,2.93.8.86.39,1.63.88,2.31,1.46,3.24,2.74,4.42,7.39,2.59,11.45-2.21,4.92-8,7.11-12.91,4.89-4.92-2.21-7.11-7.99-4.89-12.91Z"/>
        <path class="cls-43" d="m22.78,61.69c.99.11,1.97.37,2.93.8.86.39,1.63.88,2.31,1.46l-5.08,8.02-2.44.16,2.28-10.43Z"/>
        <path class="cls-44" d="m15.25,64.06c.37-.33.77-.63,1.18-.89l2,8.29-.53.39-2.66-7.79Z"/>
        <path class="cls-58" d="m14.34,73.9c1.3-2.89,4.7-4.18,7.59-2.88,2.89,1.3,4.18,4.7,2.88,7.59-1.3,2.89-4.7,4.18-7.59,2.88-2.89-1.3-4.18-4.7-2.88-7.59Z"/>
        <path class="cls-64" d="m6.32,69.01c.03-.07.06-.14.1-.21-.2.8-.33,1.6-.39,2.4-.05.61-.07,1.23-.04,1.84.2,5.69,3.57,11.06,9.11,13.56,5.71,2.57,12.14,1.4,16.56-2.48.92-.81,1.76-1.74,2.48-2.78.5-.72.94-1.48,1.32-2.29-.22.9-.53,1.79-.92,2.67-.44.98-.98,1.9-1.58,2.74-4.22,5.82-12.07,8.08-18.88,5.02-6.62-2.98-10.13-10.05-8.88-16.89.22-1.21.59-2.41,1.12-3.58Z"/>
        <g>
          <path class="cls-59" d="m16.52,84.4c3.95,1.78,8.59.02,10.37-3.93,1.78-3.95.02-8.6-3.93-10.38-3.95-1.78-8.6-.02-10.38,3.93-1.78,3.95-.02,8.59,3.93,10.37Zm6.05-13.7c3.68,1.66,5.32,5.98,3.66,9.66-1.66,3.68-5.98,5.32-9.66,3.66-3.68-1.66-5.32-5.98-3.66-9.66s5.98-5.32,9.66-3.66Z"/>
          <polygon class="cls-59" points="35.36 82.36 27.18 79.51 26.89 80.47 35.61 82.88 35.36 82.36"/>
          <path class="cls-59" d="m12.49,80.33c-.31.07-7.95,3.3-7.95,3.3l7.89-4.09.06.79Z"/>
          <polygon class="cls-59" points="20.92 69.8 21.13 58.22 20.24 69.77 20.92 69.8"/>
        </g>
        <path class="cls-63" d="m.35,69.67c-1.75,9.52,3.13,19.36,12.35,23.51,9.68,4.36,20.88.98,26.65-7.51.69-1.02,1.31-2.12,1.83-3.28,4.89-10.85.05-23.6-10.79-28.48-10.85-4.89-23.6-.05-28.48,10.79-.73,1.63-1.25,3.29-1.55,4.97Zm26.12-7.71c7.4,3.33,10.77,11.94,7.67,19.38-.06.13-.11.27-.17.4-.42.93-.92,1.8-1.49,2.59-4.06,5.67-11.69,7.88-18.29,4.91-6.43-2.9-9.82-9.77-8.56-16.41.1-.55.24-1.09.4-1.63.18-.58.4-1.17.66-1.74,3.39-7.53,12.25-10.89,19.79-7.5Z"/>
        <path class="cls-37" d="m.35,69.67c1.46.91,3.08,1.89,4.85,2.91.14.08.28.16.42.24.12.07.24.14.36.21.2,5.69,3.57,11.06,9.11,13.56,5.71,2.57,12.14,1.4,16.56-2.48.27.08.54.15.82.22.16.04.33.08.49.12,2.14.53,4.28.94,6.39,1.21-5.77,8.49-16.97,11.87-26.65,7.51C3.48,89.03-1.4,79.19.35,69.67Z"/>
        <path class="cls-60" d="m15.26,75.56c1.03-2.28,3.71-3.3,5.99-2.27,2.28,1.03,3.3,3.71,2.27,5.99-1.03,2.28-3.71,3.3-5.99,2.27-2.28-1.03-3.3-3.71-2.27-5.99Z"/>
      </g>
    </g>
  </g>
</svg>