<?xml version="1.0" encoding="UTF-8"?>
<svg xmlns="http://www.w3.org/2000/svg" xmlns:xlink="http://www.w3.org/1999/xlink" viewBox="0 0 158.842 262.865">
  <defs>
    <style>
      .cls-1 {
        fill: #d0e3fc;
      }

      .cls-2 {
        opacity: .7;
      }

      .cls-3 {
        fill: #d34262;
      }

      .cls-3, .cls-4, .cls-5, .cls-6, .cls-7, .cls-8, .cls-9, .cls-10 {
        fill-rule: evenodd;
      }

      .cls-4 {
        fill: #ed6e8a;
      }

      .cls-11, .cls-7 {
        fill: #ddd3cc;
        mix-blend-mode: multiply;
      }

      .cls-5 {
        fill: #7c0f2c;
      }

      .cls-12 {
        opacity: .8;
      }

      .cls-12, .cls-13 {
        fill: #d2e9f9;
        mix-blend-mode: screen;
      }

      .cls-14 {
        isolation: isolate;
      }

      .cls-6 {
        fill: #c43b58;
      }

      .cls-15 {
        fill: #5b5552;
      }

      .cls-8 {
        fill: #79a85e;
      }

      .cls-16 {
        fill: #01090c;
      }

      .cls-13 {
        opacity: .5;
      }

      .cls-17 {
        clip-path: url(#clippath);
      }

      .cls-9 {
        fill: #e5576f;
      }

      .cls-10 {
        fill: #6c9556;
      }

      .cls-18 {
        fill: none;
      }

      .cls-19 {
        fill: #3a4f19;
      }
    </style>
    <clipPath id="clippath">
      <path class="cls-18" d="m45.591,140.736c0,11.041-9.531,19.99-21.291,19.99s-21.285-8.949-21.285-19.99,9.531-19.991,21.285-19.991,21.291,8.95,21.291,19.991Z"/>
    </clipPath>
  </defs>
  <g class="cls-14">
    <g id="Layer_1" data-name="Layer 1">
      <path class="cls-7" d="m151.406,80.371h-54.441c-1.804,0-3.276,1.386-3.276,3.078v3.501c-2.8,2.111-4.598,5.348-4.598,8.984v89.069c0,3.635,1.798,6.871,4.598,8.983v.43c0,1.69,1.477,3.075,3.276,3.075h54.441c1.797,0,3.274-1.383,3.274-3.075v-110.967c0-1.692-1.47-3.078-3.274-3.078Z"/>
      <path class="cls-7" d="m148.602,76.18h-54.446c-1.799,0-3.276,1.385-3.276,3.077v3.501c-2.8,2.112-4.596,5.349-4.596,8.984v89.07c0,3.634,1.795,6.87,4.596,8.982v.43c0,1.69,1.477,3.076,3.276,3.076h54.446c1.797,0,3.274-1.384,3.274-3.076v-110.967c0-1.692-1.475-3.077-3.274-3.077Z"/>
      <g>
        <path class="cls-6" d="m122.772,176.378c0,6.364-5.495,11.522-12.27,11.522h-15.137c-6.775,0-12.268-5.158-12.268-11.522v-89.069c0-6.364,5.493-11.522,12.268-11.522h15.137c6.775,0,12.27,5.158,12.27,11.522v89.069Z"/>
        <path class="cls-5" d="m121.639,173.841c0,6.001-5.176,10.865-11.569,10.865h-14.275c-6.389,0-11.569-4.864-11.569-10.865v-83.995c0-6.002,5.181-10.866,11.569-10.866h14.275c6.393,0,11.569,4.864,11.569,10.866v83.995Z"/>
        <g>
          <path class="cls-5" d="m145.414,71.748c1.802,0,3.272,1.385,3.272,3.076v110.967c0,1.692-1.477,3.076-3.272,3.076h-54.444v-117.119h54.444Z"/>
          <path class="cls-3" d="m129.685,131.414c1.8,0,3.274,1.385,3.274,3.077v36.529c0,1.692-1.479,3.077-3.274,3.077h-38.719c-1.791,0-3.272-1.391-3.272-3.077v-36.53c0-1.684,1.47-3.077,3.272-3.077h38.719Z"/>
          <path class="cls-6" d="m129.685,131.414c1.8,0,3.274,1.385,3.274,3.077v36.529c0,1.692-1.479,3.077-3.274,3.077h-3.276v-42.682h3.276Z"/>
          <path class="cls-4" d="m145.414,71.748c1.797,0,3.272,1.385,3.272,3.076v110.967c0,1.69-1.477,3.076-3.272,3.076h-6.825c-1.797,0-3.274-1.387-3.274-3.076v-110.967c0-1.69,1.475-3.076,3.274-3.076h6.825Z"/>
          <path class="cls-6" d="m138.589,188.867c-1.797,0-3.274-1.387-3.274-3.076v-110.967c0-1.69,1.475-3.076,3.274-3.076v117.119Z"/>
          <g>
            <path class="cls-9" d="m87.694,74.824c0-1.692,1.472-3.076,3.276-3.076h38.713c1.8,0,3.276,1.387,3.276,3.076v6.404c0,1.688-1.477,3.077-3.276,3.077h-38.713c-1.799,0-3.276-1.385-3.276-3.077v-6.404Z"/>
            <path class="cls-6" d="m126.409,71.748h3.274c1.8,0,3.276,1.387,3.276,3.076v6.404c0,1.688-1.477,3.077-3.276,3.077h-3.274v-12.558Z"/>
          </g>
          <g>
            <path class="cls-9" d="m87.694,179.385c0-1.69,1.472-3.073,3.276-3.073h38.713c1.8,0,3.276,1.385,3.276,3.073v6.406c0,1.69-1.477,3.076-3.276,3.076h-38.713c-1.799,0-3.276-1.386-3.276-3.076v-6.406Z"/>
            <path class="cls-6" d="m126.409,176.31h3.274c1.8,0,3.276,1.387,3.276,3.075v6.408c0,1.688-1.477,3.074-3.276,3.074h-3.274v-12.557Z"/>
          </g>
          <path class="cls-3" d="m129.685,86.518c1.8,0,3.274,1.385,3.274,3.077v36.53c0,1.692-1.479,3.077-3.274,3.077h-38.719c-1.791-.001-3.272-1.393-3.272-3.078v-36.529c0-1.684,1.47-3.077,3.272-3.077h38.719Z"/>
          <path class="cls-6" d="m129.685,86.518c1.8,0,3.274,1.385,3.274,3.077v36.53c0,1.692-1.479,3.077-3.274,3.077h-3.276v-42.683h3.276Z"/>
        </g>
      </g>
      <path class="cls-7" d="m71.827,7.059H11.41c-1.548,0-2.819,1.383-2.819,3.075v51.127c0,1.692,1.271,3.077,2.819,3.077h3.207c1.932,2.629,4.898,4.316,8.226,4.316h40.361c3.331,0,6.292-1.687,8.226-4.316h.396c1.55,0,2.817-1.387,2.817-3.077V10.134c0-1.688-1.267-3.075-2.817-3.075Z"/>
      <path class="cls-7" d="m66.458,2.773H6.041c-1.548,0-2.819,1.383-2.819,3.075v51.127c0,1.692,1.271,3.077,2.819,3.077h3.207c1.932,2.629,4.898,4.316,8.226,4.316h40.361c3.331,0,6.292-1.687,8.226-4.316h.396c1.55,0,2.817-1.387,2.817-3.077V5.848c0-1.688-1.267-3.075-2.817-3.075Z"/>
      <g>
        <path class="cls-6" d="m54.613,24.338c5.831,0,10.554,5.159,10.554,11.521v14.215c0,6.362-4.723,11.521-10.554,11.521H14.252c-5.829,0-10.554-5.159-10.554-11.521v-14.215c0-6.362,4.726-11.521,10.554-11.521h40.361Z"/>
        <path class="cls-5" d="m52.292,25.399c5.495,0,9.948,4.863,9.948,10.863v13.406c0,6.002-4.453,10.865-9.948,10.865H16.576c-5.495,0-9.952-4.863-9.952-10.865v-13.406c0-6,4.457-10.863,9.952-10.863h35.715Z"/>
        <g>
          <path class="cls-5" d="m0,3.075C0,1.383,1.271,0,2.819,0h60.417c1.55,0,2.817,1.387,2.817,3.075v51.127H0V3.075Z"/>
          <path class="cls-4" d="m0,3.075C0,1.385,1.271,0,2.819,0h60.417c1.55,0,2.817,1.387,2.817,3.075v6.405c0,1.688-1.271,3.077-2.817,3.077H2.819c-1.548,0-2.819-1.385-2.819-3.077V3.075Z"/>
          <path class="cls-6" d="m66.053,9.48c0,1.688-1.271,3.077-2.817,3.077H2.819c-1.548,0-2.819-1.385-2.819-3.077h66.053Z"/>
          <g>
            <path class="cls-9" d="m2.819,57.279c-1.548,0-2.819-1.385-2.819-3.077V17.847c0-1.692,1.271-3.077,2.819-3.077h5.864c1.548,0,2.819,1.387,2.819,3.077v36.355c0,1.69-1.269,3.077-2.819,3.077H2.819Z"/>
            <path class="cls-6" d="m0,20.922v-3.075c0-1.692,1.271-3.077,2.819-3.077h5.864c1.548,0,2.819,1.387,2.819,3.077v3.075H0Z"/>
          </g>
          <g>
            <path class="cls-9" d="m57.367,57.279c-1.548,0-2.817-1.385-2.817-3.077V17.847c0-1.692,1.271-3.077,2.817-3.077h5.869c1.55,0,2.817,1.387,2.817,3.077v36.355c0,1.69-1.267,3.077-2.817,3.077h-5.869Z"/>
            <path class="cls-6" d="m54.55,20.922v-3.075c0-1.692,1.271-3.077,2.817-3.077h5.871c1.548,0,2.815,1.387,2.815,3.077v3.075h-11.502Z"/>
          </g>
          <path class="cls-3" d="m13.526,17.845c0-1.692,1.269-3.075,2.819-3.075h33.459c1.55,0,2.819,1.389,2.819,3.075v36.359c0,1.682-1.273,3.075-2.819,3.075H16.345c-1.541,0-2.819-1.383-2.819-3.075V17.845Z"/>
          <path class="cls-6" d="m13.526,17.845c0-1.692,1.269-3.075,2.819-3.075h33.459c1.55,0,2.819,1.389,2.819,3.075v3.077H13.526v-3.077Z"/>
        </g>
      </g>
      <path class="cls-7" d="m69.548,200.293l-3.158.155c-1.836-2.607-4.643-4.23-7.856-4.073l-39.104,1.913c-3.214.156-6.071,2.057-7.983,4.846l-.433.022c-1.499.071-2.749,1.565-2.772,3.309l-.646,46.192-.092,6.615c-.024,1.744,1.183,3.116,2.685,3.042l58.537-2.863c1.499-.072,2.751-1.562,2.774-3.307l.737-52.808c.025-1.749-1.189-3.116-2.689-3.043Z"/>
      <path class="cls-7" d="m67.487,198.799l-3.158.154c-1.836-2.607-4.644-4.229-7.856-4.073l-39.104,1.912c-3.214.156-6.071,2.057-7.982,4.845l-.433.022c-1.502.074-2.75,1.566-2.775,3.312l-.644,46.191-.092,6.615c-.024,1.744,1.183,3.116,2.685,3.042l58.537-2.863c1.5-.073,2.75-1.56,2.775-3.307l.736-52.806c.027-1.75-1.186-3.119-2.687-3.044Z"/>
      <g>
        <path class="cls-6" d="m13.986,232.653c-5.649.278-10.15-4.827-10.06-11.397l.204-14.682c.093-6.573,4.745-12.126,10.393-12.401l39.103-1.911c5.647-.276,10.151,4.828,10.059,11.4l-.204,14.682c-.09,6.569-4.745,12.123-10.391,12.397l-39.105,1.912Z"/>
        <path class="cls-5" d="m16.25,231.45c-5.323.26-9.57-4.553-9.483-10.749l.192-13.845c.088-6.202,4.472-11.432,9.799-11.695l34.602-1.692c5.325-.26,9.574,4.551,9.487,10.751l-.194,13.846c-.087,6.197-4.472,11.429-9.801,11.692l-34.602,1.692Z"/>
        <g>
          <path class="cls-5" d="m66.594,252.03c-.023,1.745-1.276,3.235-2.775,3.307l-58.537,2.863c-1.502.074-2.71-1.299-2.685-3.042l.737-52.808,63.997-3.128-.737,52.808Z"/>
          <path class="cls-4" d="m66.594,252.03c-.024,1.744-1.276,3.235-2.775,3.307l-58.537,2.863c-1.502.074-2.71-1.299-2.685-3.042l.093-6.617c.024-1.743,1.274-3.236,2.773-3.311l58.536-2.861c1.499-.072,2.711,1.297,2.687,3.044l-.093,6.616Z"/>
          <path class="cls-6" d="m2.69,248.541c.024-1.743,1.274-3.236,2.773-3.311l58.536-2.861c1.499-.072,2.711,1.297,2.687,3.044l-63.997,3.128Z"/>
          <g>
            <path class="cls-9" d="m64.643,196.178c1.499-.072,2.711,1.297,2.688,3.044l-.524,37.548c-.024,1.747-1.276,3.238-2.776,3.311l-5.683.277c-1.501.075-2.711-1.297-2.688-3.042l.525-37.55c.024-1.744,1.272-3.239,2.774-3.311l5.684-.279Z"/>
            <path class="cls-6" d="m66.851,233.594l-.044,3.176c-.024,1.747-1.276,3.238-2.776,3.311l-5.683.277c-1.501.075-2.711-1.297-2.688-3.042l.046-3.177,11.144-.545Z"/>
          </g>
          <g>
            <path class="cls-9" d="m11.792,198.761c1.499-.072,2.71,1.296,2.684,3.046l-.522,37.547c-.026,1.748-1.277,3.24-2.775,3.312l-5.682.277c-1.502.074-2.709-1.299-2.684-3.044l.523-37.549c.024-1.744,1.273-3.238,2.772-3.309l5.686-.28Z"/>
            <path class="cls-6" d="m13.998,236.179l-.044,3.176c-.026,1.748-1.277,3.24-2.775,3.312l-5.685.277c-1.5.074-2.707-1.299-2.682-3.044l.043-3.175,11.143-.546Z"/>
          </g>
          <path class="cls-3" d="m53.701,237.413c-.025,1.748-1.274,3.236-2.775,3.309l-32.418,1.585c-1.504.076-2.712-1.3-2.689-3.04l.527-37.554c.024-1.738,1.276-3.234,2.775-3.309l32.415-1.585c1.495-.073,2.713,1.293,2.687,3.043l-.522,37.551Z"/>
          <path class="cls-6" d="m53.701,237.413c-.025,1.748-1.274,3.236-2.775,3.309l-32.418,1.585c-1.504.076-2.712-1.3-2.689-3.04l.047-3.18,37.879-1.851-.044,3.177Z"/>
        </g>
      </g>
      <g>
        <path class="cls-11" d="m48.544,141.891c0,11.04-9.531,19.991-21.291,19.991s-21.285-8.95-21.285-19.991,9.531-19.99,21.285-19.99,21.291,8.948,21.291,19.99Z"/>
        <path class="cls-11" d="m50.803,144.853c0,11.04-9.533,19.99-21.285,19.99s-21.291-8.95-21.291-19.99,9.531-19.991,21.291-19.991,21.285,8.949,21.285,19.991Z"/>
        <path class="cls-15" d="m27.01,124.558c0,.831-.717,1.503-1.6,1.503s-1.598-.672-1.598-1.503.715-1.501,1.598-1.501,1.6.672,1.6,1.501Z"/>
        <path class="cls-15" d="m43.496,139.581c0,.829-.715,1.501-1.598,1.501s-1.598-.672-1.598-1.501.713-1.503,1.598-1.503,1.598.672,1.598,1.503Z"/>
        <path class="cls-15" d="m26.27,157.26c0,.83-.715,1.502-1.601,1.502-.879,0-1.594-.672-1.594-1.502s.715-1.502,1.594-1.502c.885,0,1.601.672,1.601,1.502Z"/>
        <path class="cls-15" d="m7.94,139.927c0,.829-.722,1.501-1.602,1.501s-1.6-.672-1.6-1.501.717-1.503,1.6-1.503,1.602.672,1.602,1.503Z"/>
        <g class="cls-17">
          <g class="cls-2">
            <rect class="cls-1" x="2.185" y="120.302" width="44.021" height="41.341"/>
            <path class="cls-16" d="m46.363,161.795l-44.342-.003v-41.638h44.342v41.641Zm-44.021-.302l43.705.003v-41.042H2.342v41.039Z"/>
          </g>
          <g>
            <polygon class="cls-13" points="36.344 120.573 40.346 120.737 10.547 160.911 6.333 160.745 36.344 120.573"/>
            <polygon class="cls-12" points="42.181 120.678 42.663 120.738 12.865 160.913 12.041 160.92 42.181 120.678"/>
            <polygon class="cls-12" points="33.036 120.671 33.516 120.729 3.718 160.905 2.889 160.913 33.036 120.671"/>
          </g>
        </g>
      </g>
      <g>
        <path class="cls-7" d="m157.594,248.025c.512-.179.94-.371,1.248-.566-.163-.203-.405-.428-.682-.661.113-.645-.09-1.204-.589-1.604,1.263-.842,1.248-2.428-.476-4.143-1.594-.904-1.064-2.22-.778-3.243.048-.1.107-.206.141-.296-.017-.005-.042-.007-.061-.012.157-.723.038-1.238-1.412-1.224.017-1.935-.795-3.068-2.001-3.231.052-.108.111-.221.147-.319-.107-.028-.243-.047-.373-.069,1.208-1.93-2.143-1.94-2.808-3.887.034-3.339-3.878-2.237-5.086-1.978-1.346-1.195-2.63-1.533-3.572-1.153-.573-1.782-2.347-2.101-4.294-.372-.055-.048-.105-.075-.162-.118-1.925.059-2.246-2.294-3.855-1.383-.199-.236-.392-.431-.562-.553-.122.167-.239.413-.35.7-2.215-1.582-3.889,1.005-4.172,2.007-1.756-.015-2.8.619-3.018,1.559-1.414,1.828-3.56-.099-3.534,2.447-1.886-.016-2.968.711-3.062,1.771-1.242-.025-2.108,1.018-2.087,2.894-.543-.005-.893.079-1.128.22-.409.106-.761.232-.988.364.126.169.336.365.589.569.05.933.634,2.224-.34,3.073-1.592,1.586-1.544,3.045-.277,3.762.073.5.38,1.054.982,1.613-.547.563-.984,1.152-1.135,1.553.044.013.105.021.157.031-.128.692.214,1.281.998,1.615-.405.883-.046,2.088,1.227,3.355-2.54,2.523-1.451,4.809,2.108,4.777-.036,3.296,2.337,4.32,4.979,2.057-.776,1.408.109,2.605,2.414,2.666.078,2.667,1.993,3.352,3.906,1.52,1.877,1.799,3.746,1.159,3.891-1.389.155.034.35.037.526.056.187.317.376.581.56.802.317,1.801,1.892,2.216,3.62.684,1.949,1.728,3.713.988,3.685-1.434.371.004.694-.038.988-.099.069,2.15,3.039,1.595,3.492,1.188,1.85,1.642,3.832-.703,3.503-1.364-1.37-3.501,3.203-1.552,1.453-3.293.212-.209.382-.416.52-.617.944.434,1.825.738,2.448.813.032-.422-.036-1.001-.17-1.645.573-.456.927-1.3.915-2.497-1.661-2.368,4.107-1.99,1.863-4.221.248-.246.445-.489.613-.727Z"/>
        <path class="cls-7" d="m153.298,244.833c.51-.179.94-.371,1.248-.566-.163-.203-.407-.428-.682-.661.113-.645-.09-1.204-.589-1.604,1.265-.842,1.248-2.428-.478-4.143-1.592-.904-1.061-2.22-.774-3.243.046-.1.105-.206.139-.296-.019-.005-.044-.007-.061-.012.157-.723.038-1.238-1.412-1.224.017-1.935-.795-3.068-2.001-3.231.052-.108.111-.221.147-.319-.107-.028-.243-.047-.373-.069,1.208-1.93-2.143-1.94-2.808-3.887.034-3.339-3.878-2.237-5.086-1.978-1.346-1.195-2.63-1.533-3.572-1.153-.573-1.782-2.347-2.101-4.294-.372-.055-.048-.105-.075-.162-.118-1.925.059-2.246-2.294-3.855-1.383-.199-.236-.392-.431-.562-.552-.122.167-.239.413-.35.7-2.215-1.582-3.889,1.005-4.172,2.007-1.756-.015-2.8.619-3.018,1.559-1.414,1.828-3.56-.099-3.534,2.447-1.886-.016-2.968.711-3.062,1.771-1.242-.025-2.108,1.018-2.087,2.894-.543-.005-.893.079-1.128.22-.409.106-.761.232-.988.364.126.169.336.365.589.569.05.933.634,2.224-.34,3.073-1.592,1.586-1.544,3.045-.277,3.762.073.5.38,1.054.982,1.613-.547.563-.984,1.152-1.135,1.553.044.013.105.021.157.031-.128.692.214,1.281.998,1.615-.405.883-.046,2.088,1.227,3.355-2.54,2.523-1.451,4.809,2.108,4.776-.036,3.296,2.337,4.321,4.979,2.058-.776,1.408.109,2.605,2.414,2.666.078,2.667,1.993,3.352,3.906,1.52,1.877,1.799,3.746,1.159,3.891-1.389.155.034.35.036.526.056.187.317.376.581.56.802.317,1.801,1.892,2.216,3.62.684,1.949,1.728,3.713.988,3.685-1.434.371.004.694-.038.988-.099.069,2.15,3.039,1.595,3.492,1.188,1.85,1.642,3.832-.703,3.503-1.364-1.37-3.501,3.203-1.552,1.453-3.293.212-.209.382-.416.52-.617.944.434,1.825.738,2.448.813.032-.423-.036-1.001-.17-1.645.573-.456.927-1.3.915-2.497-1.661-2.368,4.107-1.99,1.863-4.221.248-.246.443-.489.613-.727Z"/>
        <g>
          <path class="cls-19" d="m150.741,235.55c-2.97-1.684,1.447-4.809-2.11-4.776.021-2.188-1.019-3.355-2.49-3.25,1.892-2.307-1.842-2.192-2.546-4.256.036-3.339-3.878-2.237-5.086-1.978-1.346-1.196-2.63-1.534-3.57-1.153-.573-1.782-2.347-2.101-4.293-.372-.055-.048-.105-.075-.162-.118-2.142.066-2.282-2.889-4.436-.978-2.378-2.112-4.208.698-4.503,1.75-1.756-.015-2.8.619-3.018,1.559-1.416,1.828-3.559-.098-3.534,2.447-1.886-.016-2.968.711-3.064,1.771-1.24-.025-2.106,1.018-2.085,2.895-3.15-.028-.193,2.762-1.867,4.226-1.594,1.586-1.546,3.045-.277,3.762.073.506.382,1.067.996,1.633-1.424,1.309-1.33,2.612.004,3.18-.405.883-.046,2.088,1.227,3.355-2.538,2.523-1.451,4.809,2.108,4.777-.036,3.296,2.336,4.321,4.981,2.057-.776,1.408.109,2.605,2.412,2.666.08,2.667,1.995,3.351,3.906,1.52,1.879,1.799,3.748,1.159,3.891-1.389.304.066.636.112,1.021.108-.025,2.422,1.739,3.161,3.687,1.434,1.947,1.727,3.712.988,3.683-1.434.373.004.696-.037.99-.099.069,2.15,3.039,1.595,3.492,1.188,1.85,1.642,3.83-.703,3.503-1.364-1.372-3.501,3.201-1.552,1.454-3.293.422-.42.69-.827.833-1.208,1.649.566,2.903-.481,2.878-2.736-1.659-2.368,4.107-1.991,1.865-4.221,1.451-1.444,1.544-2.789.587-3.558,1.265-.842,1.248-2.428-.476-4.143Z"/>
          <path class="cls-8" d="m107.511,235.528c2.485,1.451,12.56,2.519,9.686-1.856.822-5.08-8.004-.395-9.686,1.856Z"/>
          <path class="cls-10" d="m109.505,242.813c2.486,1.451,12.557,2.518,9.686-1.857.82-5.079-8.002-.395-9.686,1.857Z"/>
          <path class="cls-8" d="m117.228,252.284c2.915-.255,11.624-5.127,6.519-6.981-2.618-4.511-6.628,4.233-6.519,6.981Z"/>
          <path class="cls-8" d="m121.218,241.461c2.913-.255,11.624-5.127,6.519-6.981-2.618-4.511-6.628,4.233-6.519,6.981Z"/>
          <path class="cls-8" d="m127.43,231.089c.489,1.371,4.178,4.977,4.583,2.303,2.146-1.795-3.096-2.683-4.583-2.303Z"/>
          <path class="cls-8" d="m130.813,220.286c-.73,1.272-1.003,6.268,1.351,4.712,2.863.239-.038-3.956-1.351-4.712Z"/>
          <path class="cls-8" d="m118.292,222.263c-.732,1.272-1.003,6.269,1.351,4.713,2.863.239-.038-3.956-1.351-4.713Z"/>
          <path class="cls-8" d="m119.277,238.757c1.481-.4,5.468-3.715,2.639-4.203-1.823-2.088-2.982,2.795-2.639,4.203Z"/>
          <path class="cls-8" d="m126.319,245.136c1.038-1.068,2.586-5.855-.094-4.878-2.718-.882-.986,3.848.094,4.878Z"/>
          <path class="cls-8" d="m132.968,255.751c1.038-1.069,2.586-5.855-.097-4.878-2.716-.882-.984,3.847.097,4.878Z"/>
          <path class="cls-8" d="m121.778,256.167c1.493-.353,5.598-3.544,2.787-4.118-1.749-2.144-3.081,2.7-2.787,4.118Z"/>
          <path class="cls-8" d="m111.385,248.292c1.474.41,6.737-.374,4.629-2.211-.344-2.684-4.115.85-4.629,2.211Z"/>
          <path class="cls-8" d="m107.544,240.245c1.475.41,6.737-.374,4.629-2.211-.342-2.684-4.115.85-4.629,2.211Z"/>
          <path class="cls-8" d="m107.725,229.675c.883,1.184,5.52,3.649,5.09.977,1.51-2.3-3.786-1.741-5.09-.977Z"/>
          <path class="cls-8" d="m126.067,217.712c-.866,1.194-1.678,6.139.828,4.815,2.825.51.392-3.941-.828-4.815Z"/>
          <path class="cls-10" d="m128.477,255.94c2.06-1.952,5.409-10.939.227-9.281-5.088-1.882-2.19,7.241-.227,9.281Z"/>
          <path class="cls-8" d="m141.372,254.32c.214-2.74-3.455-11.616-6.248-7.195-5.172,1.675,3.341,6.841,6.248,7.195Z"/>
          <path class="cls-8" d="m136.053,246.272c.216-2.74-3.455-11.616-6.246-7.194-5.172,1.674,3.339,6.84,6.246,7.194Z"/>
          <path class="cls-10" d="m148.021,251.614c.214-2.74-3.455-11.616-6.246-7.195-5.174,1.675,3.339,6.841,6.246,7.195Z"/>
          <path class="cls-8" d="m152.488,241.959c-1.766-2.188-10.772-6.566-9.753-1.516-2.697,4.468,7.326,3.054,9.753,1.516Z"/>
          <path class="cls-10" d="m150.104,232.011c-2.817-.746-12.811.862-8.755,4.314.717,5.092,7.807-1.712,8.755-4.314Z"/>
          <path class="cls-10" d="m141.72,240.326c-.636-2.683-6.88-10.186-8.193-5.195-4.434,3.006,5.302,5.643,8.193,5.195Z"/>
          <path class="cls-8" d="m146.779,227.224c-2.815-.746-12.811.862-8.755,4.314.717,5.091,7.805-1.713,8.755-4.314Z"/>
          <path class="cls-10" d="m113.243,227.343c1.04,2.566,8.371,9.143,8.906,4.028,3.929-3.578-6.114-4.864-8.906-4.028Z"/>
          <path class="cls-8" d="m121.836,222.13c-.065,2.748,4.082,11.434,6.63,6.886,5.074-1.921-3.706-6.671-6.63-6.886Z"/>
          <path class="cls-10" d="m139.107,224.083c-2.928.043-12.014,4.269-7.075,6.486,2.238,4.688,6.955-3.736,7.075-6.486Z"/>
        </g>
      </g>
      <g>
        <path class="cls-7" d="m148.821,37.107c.512-.179.94-.371,1.248-.566-.163-.203-.405-.428-.682-.661.113-.645-.09-1.204-.589-1.604,1.263-.842,1.248-2.428-.476-4.143-1.594-.904-1.064-2.22-.778-3.243.048-.1.107-.206.141-.296-.017-.005-.042-.007-.061-.012.157-.723.038-1.238-1.412-1.224.017-1.935-.795-3.068-2.001-3.231.052-.108.111-.221.147-.319-.107-.028-.243-.047-.373-.069,1.208-1.93-2.143-1.94-2.808-3.887.034-3.339-3.878-2.237-5.086-1.978-1.346-1.195-2.63-1.533-3.572-1.153-.573-1.782-2.347-2.101-4.294-.372-.055-.048-.105-.075-.162-.118-1.925.059-2.246-2.294-3.855-1.383-.199-.236-.392-.431-.562-.553-.122.167-.239.413-.35.7-2.215-1.582-3.889,1.005-4.172,2.007-1.756-.015-2.8.619-3.018,1.559-1.414,1.828-3.56-.099-3.534,2.447-1.886-.016-2.968.711-3.062,1.771-1.242-.025-2.108,1.018-2.087,2.894-.543-.005-.893.079-1.128.22-.409.106-.761.232-.988.364.126.169.336.365.589.569.05.933.634,2.224-.34,3.073-1.592,1.586-1.544,3.045-.277,3.762.073.5.38,1.054.982,1.613-.547.563-.984,1.152-1.135,1.553.044.013.105.021.157.031-.128.692.214,1.281.998,1.615-.405.883-.046,2.088,1.227,3.355-2.54,2.523-1.451,4.809,2.108,4.777-.036,3.296,2.337,4.32,4.979,2.057-.776,1.408.109,2.605,2.414,2.666.078,2.667,1.993,3.352,3.906,1.52,1.877,1.799,3.746,1.159,3.891-1.389.155.034.35.037.526.056.187.317.376.581.56.802.317,1.801,1.892,2.216,3.62.684,1.949,1.728,3.713.988,3.685-1.434.371.004.694-.038.988-.099.069,2.15,3.039,1.595,3.492,1.188,1.85,1.642,3.832-.703,3.503-1.364-1.37-3.501,3.203-1.552,1.453-3.293.212-.209.382-.416.52-.617.944.434,1.825.738,2.448.813.032-.422-.036-1.001-.17-1.645.573-.456.927-1.3.915-2.497-1.661-2.368,4.107-1.99,1.863-4.221.248-.246.445-.489.613-.727Z"/>
        <path class="cls-7" d="m144.526,33.914c.51-.179.94-.371,1.248-.566-.163-.203-.407-.428-.682-.661.113-.645-.09-1.204-.589-1.604,1.265-.842,1.248-2.428-.478-4.143-1.592-.904-1.061-2.22-.774-3.243.046-.1.105-.206.139-.296-.019-.005-.044-.007-.061-.012.157-.723.038-1.238-1.412-1.224.017-1.935-.795-3.068-2.001-3.231.052-.108.111-.221.147-.319-.107-.028-.243-.047-.373-.069,1.208-1.93-2.143-1.94-2.808-3.887.034-3.339-3.878-2.237-5.086-1.978-1.346-1.195-2.63-1.533-3.572-1.153-.573-1.782-2.347-2.101-4.294-.372-.055-.048-.105-.075-.162-.118-1.925.059-2.246-2.294-3.855-1.383-.199-.236-.392-.431-.562-.552-.122.167-.239.413-.35.7-2.215-1.582-3.889,1.005-4.172,2.007-1.756-.015-2.8.619-3.018,1.559-1.414,1.828-3.56-.099-3.534,2.447-1.886-.016-2.968.711-3.062,1.771-1.242-.025-2.108,1.018-2.087,2.894-.543-.005-.893.079-1.128.22-.409.106-.761.232-.988.364.126.169.336.365.589.569.05.933.634,2.224-.34,3.073-1.592,1.586-1.544,3.045-.277,3.762.073.5.38,1.054.982,1.613-.547.563-.984,1.152-1.135,1.553.044.013.105.021.157.031-.128.692.214,1.281.998,1.615-.405.883-.046,2.088,1.227,3.355-2.54,2.523-1.451,4.809,2.108,4.776-.036,3.296,2.337,4.321,4.979,2.058-.776,1.408.109,2.605,2.414,2.666.078,2.667,1.993,3.352,3.906,1.52,1.877,1.799,3.746,1.159,3.891-1.389.155.034.35.036.526.056.187.317.376.581.56.802.317,1.801,1.892,2.216,3.62.684,1.949,1.728,3.713.988,3.685-1.434.371.004.694-.038.988-.099.069,2.15,3.039,1.595,3.492,1.188,1.85,1.642,3.832-.703,3.503-1.364-1.37-3.501,3.203-1.552,1.453-3.293.212-.209.382-.416.52-.617.944.434,1.825.738,2.448.813.032-.423-.036-1.001-.17-1.645.573-.456.927-1.3.915-2.497-1.661-2.368,4.107-1.99,1.863-4.221.248-.246.443-.489.613-.727Z"/>
        <g>
          <path class="cls-19" d="m141.969,24.632c-2.97-1.684,1.447-4.809-2.11-4.776.021-2.188-1.019-3.355-2.49-3.25,1.892-2.307-1.842-2.192-2.546-4.256.036-3.339-3.878-2.237-5.086-1.978-1.346-1.196-2.63-1.534-3.57-1.153-.573-1.782-2.347-2.101-4.293-.372-.055-.048-.105-.075-.162-.118-2.142.066-2.282-2.889-4.436-.978-2.378-2.112-4.208.698-4.503,1.75-1.756-.015-2.8.619-3.018,1.559-1.416,1.828-3.559-.098-3.534,2.447-1.886-.016-2.968.711-3.064,1.771-1.24-.025-2.106,1.018-2.085,2.895-3.15-.028-.193,2.762-1.867,4.226-1.594,1.586-1.546,3.045-.277,3.762.073.506.382,1.067.996,1.633-1.424,1.309-1.33,2.612.004,3.18-.405.883-.046,2.088,1.227,3.355-2.538,2.523-1.451,4.809,2.108,4.777-.036,3.296,2.336,4.321,4.981,2.057-.776,1.408.109,2.605,2.412,2.666.08,2.667,1.995,3.351,3.906,1.52,1.879,1.799,3.748,1.159,3.891-1.389.304.066.636.112,1.021.108-.025,2.422,1.739,3.161,3.687,1.434,1.947,1.727,3.712.988,3.683-1.434.373.004.696-.037.99-.099.069,2.15,3.039,1.595,3.492,1.188,1.85,1.642,3.83-.703,3.503-1.364-1.372-3.501,3.201-1.552,1.454-3.293.422-.42.69-.827.833-1.208,1.649.566,2.903-.481,2.878-2.736-1.659-2.368,4.107-1.991,1.865-4.221,1.451-1.444,1.544-2.789.587-3.558,1.265-.842,1.248-2.428-.476-4.143Z"/>
          <path class="cls-8" d="m98.738,24.609c2.485,1.451,12.56,2.519,9.686-1.856.822-5.08-8.004-.395-9.686,1.856Z"/>
          <path class="cls-10" d="m100.733,31.894c2.486,1.451,12.557,2.518,9.686-1.857.82-5.079-8.002-.395-9.686,1.857Z"/>
          <path class="cls-8" d="m108.456,41.366c2.915-.255,11.624-5.127,6.519-6.981-2.618-4.511-6.628,4.233-6.519,6.981Z"/>
          <path class="cls-8" d="m112.445,30.543c2.913-.255,11.624-5.127,6.519-6.981-2.618-4.511-6.628,4.233-6.519,6.981Z"/>
          <path class="cls-8" d="m118.658,20.171c.489,1.371,4.178,4.977,4.583,2.303,2.146-1.795-3.096-2.683-4.583-2.303Z"/>
          <path class="cls-8" d="m122.041,9.368c-.73,1.272-1.003,6.268,1.351,4.712,2.863.239-.038-3.956-1.351-4.712Z"/>
          <path class="cls-8" d="m109.519,11.344c-.732,1.272-1.003,6.269,1.351,4.713,2.863.239-.038-3.956-1.351-4.713Z"/>
          <path class="cls-8" d="m110.505,27.839c1.481-.4,5.468-3.715,2.639-4.203-1.823-2.088-2.982,2.795-2.639,4.203Z"/>
          <path class="cls-8" d="m117.546,34.218c1.038-1.068,2.586-5.855-.094-4.878-2.718-.882-.986,3.848.094,4.878Z"/>
          <path class="cls-8" d="m124.195,44.832c1.038-1.069,2.586-5.855-.097-4.878-2.716-.882-.984,3.847.097,4.878Z"/>
          <path class="cls-8" d="m113.005,45.249c1.493-.353,5.598-3.544,2.787-4.118-1.749-2.144-3.081,2.7-2.787,4.118Z"/>
          <path class="cls-8" d="m102.612,37.374c1.474.41,6.737-.374,4.629-2.211-.344-2.684-4.115.85-4.629,2.211Z"/>
          <path class="cls-8" d="m98.772,29.327c1.475.41,6.737-.374,4.629-2.211-.342-2.684-4.115.85-4.629,2.211Z"/>
          <path class="cls-8" d="m98.952,18.756c.883,1.184,5.52,3.649,5.09.977,1.51-2.3-3.786-1.741-5.09-.977Z"/>
          <path class="cls-8" d="m117.295,6.793c-.866,1.194-1.678,6.139.828,4.815,2.825.51.392-3.941-.828-4.815Z"/>
          <path class="cls-10" d="m119.704,45.021c2.06-1.952,5.409-10.939.227-9.281-5.088-1.882-2.19,7.241-.227,9.281Z"/>
          <path class="cls-8" d="m132.599,43.401c.214-2.74-3.455-11.616-6.248-7.195-5.172,1.675,3.341,6.841,6.248,7.195Z"/>
          <path class="cls-8" d="m127.28,35.354c.216-2.74-3.455-11.616-6.246-7.194-5.172,1.674,3.339,6.84,6.246,7.194Z"/>
          <path class="cls-10" d="m139.248,40.696c.214-2.74-3.455-11.616-6.246-7.195-5.174,1.675,3.339,6.841,6.246,7.195Z"/>
          <path class="cls-8" d="m143.716,31.041c-1.766-2.188-10.772-6.566-9.753-1.516-2.697,4.468,7.326,3.054,9.753,1.516Z"/>
          <path class="cls-10" d="m141.331,21.092c-2.817-.746-12.811.862-8.755,4.314.717,5.092,7.807-1.712,8.755-4.314Z"/>
          <path class="cls-10" d="m132.948,29.408c-.636-2.683-6.88-10.186-8.193-5.195-4.434,3.006,5.302,5.643,8.193,5.195Z"/>
          <path class="cls-8" d="m138.007,16.306c-2.815-.746-12.811.862-8.755,4.314.717,5.091,7.805-1.713,8.755-4.314Z"/>
          <path class="cls-10" d="m104.471,16.424c1.04,2.566,8.371,9.143,8.906,4.028,3.929-3.578-6.114-4.864-8.906-4.028Z"/>
          <path class="cls-8" d="m113.064,11.211c-.065,2.748,4.082,11.434,6.63,6.886,5.074-1.921-3.706-6.671-6.63-6.886Z"/>
          <path class="cls-10" d="m130.334,13.164c-2.928.043-12.014,4.269-7.075,6.486,2.238,4.688,6.955-3.736,7.075-6.486Z"/>
        </g>
      </g>
    </g>
  </g>
</svg>