<?xml version="1.0" encoding="UTF-8"?>
<svg xmlns="http://www.w3.org/2000/svg" xmlns:xlink="http://www.w3.org/1999/xlink" viewBox="0 0 413.7 256">
  <defs>
    <style>
      .cls-1 {
        fill: url(#_Áåçûìÿííûé_ãðàäèåíò_271-40);
      }

      .cls-1, .cls-2, .cls-3, .cls-4, .cls-5, .cls-6, .cls-7, .cls-8, .cls-9, .cls-10, .cls-11, .cls-12, .cls-13, .cls-14, .cls-15, .cls-16, .cls-17, .cls-18, .cls-19, .cls-20, .cls-21, .cls-22, .cls-23, .cls-24, .cls-25, .cls-26, .cls-27, .cls-28, .cls-29, .cls-30, .cls-31, .cls-32, .cls-33, .cls-34, .cls-35, .cls-36, .cls-37, .cls-38, .cls-39, .cls-40, .cls-41, .cls-42, .cls-43, .cls-44, .cls-45, .cls-46, .cls-47, .cls-48, .cls-49, .cls-50, .cls-51, .cls-52, .cls-53, .cls-54, .cls-55, .cls-56, .cls-57, .cls-58, .cls-59, .cls-60, .cls-61 {
        mix-blend-mode: multiply;
      }

      .cls-1, .cls-2, .cls-4, .cls-6, .cls-8, .cls-9, .cls-12, .cls-13, .cls-15, .cls-16, .cls-17, .cls-18, .cls-19, .cls-20, .cls-22, .cls-23, .cls-24, .cls-25, .cls-26, .cls-27, .cls-29, .cls-30, .cls-32, .cls-33, .cls-36, .cls-37, .cls-38, .cls-39, .cls-43, .cls-45, .cls-47, .cls-49, .cls-52, .cls-53, .cls-55, .cls-57, .cls-61 {
        opacity: .4;
      }

      .cls-2 {
        fill: url(#_Áåçûìÿííûé_ãðàäèåíò_271-16);
      }

      .cls-62 {
        fill: url(#_Áåçûìÿííûé_ãðàäèåíò_67-15);
      }

      .cls-63 {
        fill: url(#_Áåçûìÿííûé_ãðàäèåíò_67-10);
      }

      .cls-64 {
        fill: url(#_Áåçûìÿííûé_ãðàäèåíò_67-20);
      }

      .cls-3 {
        fill: url(#_Áåçûìÿííûé_ãðàäèåíò_35-9);
      }

      .cls-3, .cls-28, .cls-42, .cls-44, .cls-46, .cls-48, .cls-56, .cls-58 {
        opacity: .25;
      }

      .cls-4 {
        fill: url(#_Áåçûìÿííûé_ãðàäèåíò_271-32);
      }

      .cls-5 {
        fill: url(#_Áåçûìÿííûé_ãðàäèåíò_35-16);
      }

      .cls-5, .cls-7, .cls-11, .cls-14, .cls-21, .cls-31, .cls-35, .cls-40, .cls-50, .cls-51, .cls-54, .cls-59 {
        opacity: .15;
      }

      .cls-6 {
        fill: url(#_Áåçûìÿííûé_ãðàäèåíò_271-31);
      }

      .cls-65 {
        fill: url(#_Áåçûìÿííûé_ãðàäèåíò_42-2);
      }

      .cls-7 {
        fill: url(#_Áåçûìÿííûé_ãðàäèåíò_35-12);
      }

      .cls-8 {
        fill: url(#_Áåçûìÿííûé_ãðàäèåíò_271-7);
      }

      .cls-9 {
        fill: url(#_Áåçûìÿííûé_ãðàäèåíò_271-21);
      }

      .cls-10 {
        fill: url(#_Áåçûìÿííûé_ãðàäèåíò_271-19);
      }

      .cls-10, .cls-34, .cls-41 {
        opacity: .6;
      }

      .cls-11 {
        fill: url(#_Áåçûìÿííûé_ãðàäèåíò_35-6);
      }

      .cls-12 {
        fill: url(#_Áåçûìÿííûé_ãðàäèåíò_271-34);
      }

      .cls-66 {
        fill: url(#_Áåçûìÿííûé_ãðàäèåíò_67-9);
      }

      .cls-67 {
        fill: url(#_Áåçûìÿííûé_ãðàäèåíò_67-22);
      }

      .cls-13 {
        fill: url(#_Áåçûìÿííûé_ãðàäèåíò_271-30);
      }

      .cls-68 {
        fill: url(#_Áåçûìÿííûé_ãðàäèåíò_42);
      }

      .cls-69 {
        fill: url(#_Áåçûìÿííûé_ãðàäèåíò_67-18);
      }

      .cls-14 {
        fill: url(#_Áåçûìÿííûé_ãðàäèåíò_35-13);
      }

      .cls-15 {
        fill: url(#_Áåçûìÿííûé_ãðàäèåíò_271-9);
      }

      .cls-70 {
        fill: url(#_Áåçûìÿííûé_ãðàäèåíò_52);
      }

      .cls-70, .cls-71, .cls-72, .cls-73 {
        mix-blend-mode: screen;
        opacity: .42;
      }

      .cls-71 {
        fill: url(#_Áåçûìÿííûé_ãðàäèåíò_52-3);
      }

      .cls-16 {
        fill: url(#_Áåçûìÿííûé_ãðàäèåíò_271-12);
      }

      .cls-17 {
        fill: url(#_Áåçûìÿííûé_ãðàäèåíò_271-5);
      }

      .cls-18 {
        fill: url(#_Áåçûìÿííûé_ãðàäèåíò_271-28);
      }

      .cls-19 {
        fill: url(#_Áåçûìÿííûé_ãðàäèåíò_271-36);
      }

      .cls-20 {
        fill: url(#_Áåçûìÿííûé_ãðàäèåíò_271-39);
      }

      .cls-74 {
        fill: #39274c;
      }

      .cls-21 {
        fill: url(#_Áåçûìÿííûé_ãðàäèåíò_35-2);
      }

      .cls-75 {
        fill: url(#_Áåçûìÿííûé_ãðàäèåíò_67-4);
      }

      .cls-76 {
        fill: url(#_Áåçûìÿííûé_ãðàäèåíò_215-2);
      }

      .cls-77 {
        isolation: isolate;
      }

      .cls-22 {
        fill: url(#_Áåçûìÿííûé_ãðàäèåíò_271-10);
      }

      .cls-78 {
        fill: url(#_Áåçûìÿííûé_ãðàäèåíò_67-17);
      }

      .cls-79 {
        fill: url(#_Áåçûìÿííûé_ãðàäèåíò_42-4);
      }

      .cls-23 {
        fill: url(#_Áåçûìÿííûé_ãðàäèåíò_271);
      }

      .cls-24 {
        fill: url(#_Áåçûìÿííûé_ãðàäèåíò_271-22);
      }

      .cls-25 {
        fill: url(#_Áåçûìÿííûé_ãðàäèåíò_271-11);
      }

      .cls-26 {
        fill: url(#_Áåçûìÿííûé_ãðàäèåíò_271-20);
      }

      .cls-80 {
        fill: url(#_Áåçûìÿííûé_ãðàäèåíò_9-2);
      }

      .cls-27 {
        fill: url(#_Áåçûìÿííûé_ãðàäèåíò_271-37);
      }

      .cls-28 {
        fill: url(#_Áåçûìÿííûé_ãðàäèåíò_35-20);
      }

      .cls-81 {
        fill: url(#_Áåçûìÿííûé_ãðàäèåíò_67-5);
      }

      .cls-29 {
        fill: url(#_Áåçûìÿííûé_ãðàäèåíò_271-33);
      }

      .cls-30 {
        fill: url(#_Áåçûìÿííûé_ãðàäèåíò_271-2);
      }

      .cls-31 {
        fill: url(#_Áåçûìÿííûé_ãðàäèåíò_35-15);
      }

      .cls-82 {
        fill: url(#_Áåçûìÿííûé_ãðàäèåíò_67-3);
      }

      .cls-83 {
        fill: #5d5b89;
      }

      .cls-84 {
        fill: url(#_Áåçûìÿííûé_ãðàäèåíò_27);
      }

      .cls-32 {
        fill: url(#_Áåçûìÿííûé_ãðàäèåíò_271-35);
      }

      .cls-85 {
        fill: url(#_Áåçûìÿííûé_ãðàäèåíò_67-19);
      }

      .cls-86 {
        fill: url(#_Áåçûìÿííûé_ãðàäèåíò_9);
      }

      .cls-87 {
        fill: #937eaa;
      }

      .cls-33 {
        fill: url(#_Áåçûìÿííûé_ãðàäèåíò_271-23);
      }

      .cls-88 {
        fill: #35273f;
      }

      .cls-89 {
        fill: #76608c;
      }

      .cls-34 {
        fill: url(#_Áåçûìÿííûé_ãðàäèåíò_271-15);
      }

      .cls-90 {
        fill: url(#_Áåçûìÿííûé_ãðàäèåíò_67-11);
      }

      .cls-91 {
        fill: #9a7ab5;
      }

      .cls-92 {
        fill: url(#_Áåçûìÿííûé_ãðàäèåíò_27-2);
      }

      .cls-35 {
        fill: url(#_Áåçûìÿííûé_ãðàäèåíò_35-3);
      }

      .cls-93 {
        fill: url(#_Áåçûìÿííûé_ãðàäèåíò_42-3);
      }

      .cls-36 {
        fill: url(#_Áåçûìÿííûé_ãðàäèåíò_271-24);
      }

      .cls-94 {
        fill: url(#_Áåçûìÿííûé_ãðàäèåíò_215-3);
      }

      .cls-95 {
        fill: #f9dfa5;
      }

      .cls-37 {
        fill: url(#_Áåçûìÿííûé_ãðàäèåíò_271-4);
      }

      .cls-96 {
        fill: #c1856b;
      }

      .cls-38 {
        fill: url(#_Áåçûìÿííûé_ãðàäèåíò_271-14);
      }

      .cls-97 {
        fill: url(#_Áåçûìÿííûé_ãðàäèåíò_215);
      }

      .cls-98 {
        fill: url(#_Áåçûìÿííûé_ãðàäèåíò_67-8);
      }

      .cls-99 {
        fill: url(#_Áåçûìÿííûé_ãðàäèåíò_5-3);
      }

      .cls-39 {
        fill: url(#_Áåçûìÿííûé_ãðàäèåíò_271-8);
      }

      .cls-100 {
        fill: url(#_Áåçûìÿííûé_ãðàäèåíò_67-21);
      }

      .cls-40 {
        fill: url(#_Áåçûìÿííûé_ãðàäèåíò_35-5);
      }

      .cls-41 {
        fill: #88546d;
      }

      .cls-42 {
        fill: url(#_Áåçûìÿííûé_ãðàäèåíò_35-17);
      }

      .cls-101 {
        fill: url(#_Áåçûìÿííûé_ãðàäèåíò_27-4);
      }

      .cls-43 {
        fill: url(#_Áåçûìÿííûé_ãðàäèåíò_271-26);
      }

      .cls-44 {
        fill: url(#_Áåçûìÿííûé_ãðàäèåíò_35-18);
      }

      .cls-102 {
        fill: url(#_Áåçûìÿííûé_ãðàäèåíò_42-5);
      }

      .cls-45 {
        fill: url(#_Áåçûìÿííûé_ãðàäèåíò_271-27);
      }

      .cls-46 {
        fill: url(#_Áåçûìÿííûé_ãðàäèåíò_35-8);
      }

      .cls-103 {
        fill: url(#_Áåçûìÿííûé_ãðàäèåíò_5);
      }

      .cls-47 {
        fill: url(#_Áåçûìÿííûé_ãðàäèåíò_271-17);
      }

      .cls-48 {
        fill: url(#_Áåçûìÿííûé_ãðàäèåíò_35-10);
      }

      .cls-49 {
        fill: url(#_Áåçûìÿííûé_ãðàäèåíò_271-25);
      }

      .cls-50 {
        fill: url(#_Áåçûìÿííûé_ãðàäèåíò_35-4);
      }

      .cls-104 {
        fill: url(#_Áåçûìÿííûé_ãðàäèåíò_67-7);
      }

      .cls-105 {
        fill: url(#_Áåçûìÿííûé_ãðàäèåíò_67);
      }

      .cls-51 {
        fill: url(#_Áåçûìÿííûé_ãðàäèåíò_35-11);
      }

      .cls-106 {
        fill: url(#_Áåçûìÿííûé_ãðàäèåíò_27-3);
      }

      .cls-72 {
        fill: url(#_Áåçûìÿííûé_ãðàäèåíò_52-4);
      }

      .cls-52 {
        fill: url(#_Áåçûìÿííûé_ãðàäèåíò_271-6);
      }

      .cls-73 {
        fill: url(#_Áåçûìÿííûé_ãðàäèåíò_52-2);
      }

      .cls-53 {
        fill: url(#_Áåçûìÿííûé_ãðàäèåíò_271-18);
      }

      .cls-107 {
        fill: url(#_Áåçûìÿííûé_ãðàäèåíò_5-2);
      }

      .cls-108 {
        fill: url(#_Áåçûìÿííûé_ãðàäèåíò_67-12);
      }

      .cls-109 {
        fill: url(#_Áåçûìÿííûé_ãðàäèåíò_67-13);
      }

      .cls-54 {
        fill: url(#_Áåçûìÿííûé_ãðàäèåíò_35);
      }

      .cls-110 {
        fill: url(#_Áåçûìÿííûé_ãðàäèåíò_67-23);
      }

      .cls-55 {
        fill: url(#_Áåçûìÿííûé_ãðàäèåíò_271-13);
      }

      .cls-56 {
        fill: url(#_Áåçûìÿííûé_ãðàäèåíò_35-7);
      }

      .cls-57 {
        fill: url(#_Áåçûìÿííûé_ãðàäèåíò_271-38);
      }

      .cls-111 {
        fill: url(#_Áåçûìÿííûé_ãðàäèåíò_67-2);
      }

      .cls-112 {
        fill: #394c0f;
      }

      .cls-58 {
        fill: url(#_Áåçûìÿííûé_ãðàäèåíò_35-19);
      }

      .cls-113 {
        fill: url(#_Áåçûìÿííûé_ãðàäèåíò_67-16);
      }

      .cls-59 {
        fill: url(#_Áåçûìÿííûé_ãðàäèåíò_35-14);
      }

      .cls-114 {
        fill: url(#_Áåçûìÿííûé_ãðàäèåíò_67-14);
      }

      .cls-60 {
        fill: url(#_Áåçûìÿííûé_ãðàäèåíò_271-3);
        opacity: .5;
      }

      .cls-115 {
        fill: url(#_Áåçûìÿííûé_ãðàäèåíò_67-24);
      }

      .cls-116 {
        fill: url(#_Áåçûìÿííûé_ãðàäèåíò_67-6);
      }

      .cls-61 {
        fill: url(#_Áåçûìÿííûé_ãðàäèåíò_271-29);
      }

      .cls-117 {
        fill: #3f2f4c;
      }
    </style>
    <radialGradient id="_Áåçûìÿííûé_ãðàäèåíò_27" data-name="Áåçûìÿííûé ãðàäèåíò 27" cx="124.3" cy="142.13" fx="124.3" fy="142.13" r="41.96" gradientUnits="userSpaceOnUse">
      <stop offset="0" stop-color="#d7dcdf"/>
      <stop offset=".96" stop-color="#dccad4"/>
    </radialGradient>
    <linearGradient id="_Áåçûìÿííûé_ãðàäèåíò_35" data-name="Áåçûìÿííûé ãðàäèåíò 35" x1="82.66" y1="179.2" x2="159.05" y2="157.26" gradientUnits="userSpaceOnUse">
      <stop offset=".01" stop-color="#fff"/>
      <stop offset=".12" stop-color="#f0e9f1"/>
      <stop offset=".35" stop-color="#ccb3cc"/>
      <stop offset=".66" stop-color="#925c93"/>
      <stop offset=".98" stop-color="#540056"/>
    </linearGradient>
    <linearGradient id="_Áåçûìÿííûé_ãðàäèåíò_35-2" data-name="Áåçûìÿííûé ãðàäèåíò 35" x1="80.95" y1="137.17" x2="94.08" y2="133.4" xlink:href="#_Áåçûìÿííûé_ãðàäèåíò_35"/>
    <linearGradient id="_Áåçûìÿííûé_ãðàäèåíò_35-3" data-name="Áåçûìÿííûé ãðàäèåíò 35" x1="72.51" y1="142.4" x2="146.35" y2="121.19" xlink:href="#_Áåçûìÿííûé_ãðàäèåíò_35"/>
    <linearGradient id="_Áåçûìÿííûé_ãðàäèåíò_35-4" data-name="Áåçûìÿííûé ãðàäèåíò 35" x1="76.04" y1="157.62" x2="151.04" y2="136.08" xlink:href="#_Áåçûìÿííûé_ãðàäèåíò_35"/>
    <linearGradient id="_Áåçûìÿííûé_ãðàäèåíò_35-5" data-name="Áåçûìÿííûé ãðàäèåíò 35" x1="82.98" y1="112.75" x2="126.97" y2="100.11" xlink:href="#_Áåçûìÿííûé_ãðàäèåíò_35"/>
    <linearGradient id="_Áåçûìÿííûé_ãðàäèåíò_35-6" data-name="Áåçûìÿííûé ãðàäèåíò 35" x1="94.49" y1="117.23" x2="136.56" y2="105.15" xlink:href="#_Áåçûìÿííûé_ãðàäèåíò_35"/>
    <linearGradient id="_Áåçûìÿííûé_ãðàäèåíò_35-7" data-name="Áåçûìÿííûé ãðàäèåíò 35" x1="141.31" y1="210.75" x2="132.88" y2="189.11" xlink:href="#_Áåçûìÿííûé_ãðàäèåíò_35"/>
    <linearGradient id="_Áåçûìÿííûé_ãðàäèåíò_35-8" data-name="Áåçûìÿííûé ãðàäèåíò 35" x1="169.87" y1="199.63" x2="161.44" y2="177.98" xlink:href="#_Áåçûìÿííûé_ãðàäèåíò_35"/>
    <linearGradient id="_Áåçûìÿííûé_ãðàäèåíò_35-9" data-name="Áåçûìÿííûé ãðàäèåíò 35" x1="121.65" y1="218.41" x2="113.22" y2="196.77" xlink:href="#_Áåçûìÿííûé_ãðàäèåíò_35"/>
    <linearGradient id="_Áåçûìÿííûé_ãðàäèåíò_35-10" data-name="Áåçûìÿííûé ãðàäèåíò 35" x1="175.13" y1="197.58" x2="166.7" y2="175.93" xlink:href="#_Áåçûìÿííûé_ãðàäèåíò_35"/>
    <radialGradient id="_Áåçûìÿííûé_ãðàäèåíò_215" data-name="Áåçûìÿííûé ãðàäèåíò 215" cx="176.64" cy="202.42" fx="176.64" fy="202.42" r="120.15" gradientUnits="userSpaceOnUse">
      <stop offset=".03" stop-color="#a9a0a3"/>
      <stop offset=".99" stop-color="#8c88a3"/>
    </radialGradient>
    <radialGradient id="_Áåçûìÿííûé_ãðàäèåíò_215-2" data-name="Áåçûìÿííûé ãðàäèåíò 215" cx="125.87" cy="184.46" fx="125.87" fy="184.46" r="67.09" xlink:href="#_Áåçûìÿííûé_ãðàäèåíò_215"/>
    <linearGradient id="_Áåçûìÿííûé_ãðàäèåíò_271" data-name="Áåçûìÿííûé ãðàäèåíò 271" x1="30.25" y1="273.57" x2="253.81" y2="96.63" gradientUnits="userSpaceOnUse">
      <stop offset="0" stop-color="#fff"/>
      <stop offset=".98" stop-color="#aa0038"/>
    </linearGradient>
    <linearGradient id="_Áåçûìÿííûé_ãðàäèåíò_271-2" data-name="Áåçûìÿííûé ãðàäèåíò 271" x1="112.11" y1="234.16" x2="219.26" y2="149.35" xlink:href="#_Áåçûìÿííûé_ãðàäèåíò_271"/>
    <radialGradient id="_Áåçûìÿííûé_ãðàäèåíò_215-3" data-name="Áåçûìÿííûé ãðàäèåíò 215" cx="-1343.82" cy="169.98" fx="-1343.82" fy="169.98" r="67.1" gradientTransform="translate(-1135.56 -10.97) rotate(-178.99) scale(1 -1)" xlink:href="#_Áåçûìÿííûé_ãðàäèåíò_215"/>
    <linearGradient id="_Áåçûìÿííûé_ãðàäèåíò_271-3" data-name="Áåçûìÿííûé ãðàäèåíò 271" x1="-1439.45" y1="259.09" x2="-1215.88" y2="82.15" gradientTransform="translate(-1135.56 -10.97) rotate(-178.99) scale(1 -1)" xlink:href="#_Áåçûìÿííûé_ãðàäèåíò_271"/>
    <linearGradient id="_Áåçûìÿííûé_ãðàäèåíò_271-4" data-name="Áåçûìÿííûé ãðàäèåíò 271" x1="-1357.58" y1="219.68" x2="-1250.43" y2="134.87" gradientTransform="translate(-1135.56 -10.97) rotate(-178.99) scale(1 -1)" xlink:href="#_Áåçûìÿííûé_ãðàäèåíò_271"/>
    <linearGradient id="_Áåçûìÿííûé_ãðàäèåíò_271-5" data-name="Áåçûìÿííûé ãðàäèåíò 271" x1="198.13" y1="188.82" x2="235.24" y2="242.79" xlink:href="#_Áåçûìÿííûé_ãðàäèåíò_271"/>
    <linearGradient id="_Áåçûìÿííûé_ãðàäèåíò_271-6" data-name="Áåçûìÿííûé ãðàäèåíò 271" x1="143.58" y1="170.85" x2="100.21" y2="248.51" xlink:href="#_Áåçûìÿííûé_ãðàäèåíò_271"/>
    <linearGradient id="_Áåçûìÿííûé_ãðàäèåíò_271-7" data-name="Áåçûìÿííûé ãðàäèåíò 271" x1="59.04" y1="242.09" x2="72.32" y2="242.09" xlink:href="#_Áåçûìÿííûé_ãðàäèåíò_271"/>
    <linearGradient id="_Áåçûìÿííûé_ãðàäèåíò_271-8" data-name="Áåçûìÿííûé ãðàäèåíò 271" x1="-1103.71" y1="242.33" x2="-1093.33" y2="242.33" gradientTransform="translate(-831.04) rotate(-180) scale(1 -1)" xlink:href="#_Áåçûìÿííûé_ãðàäèåíò_271"/>
    <radialGradient id="_Áåçûìÿííûé_ãðàäèåíò_42" data-name="Áåçûìÿííûé ãðàäèåíò 42" cx="565.02" cy="-367.81" fx="565.02" fy="-367.81" r="31.52" gradientTransform="translate(660.12 -231.68) rotate(95.03) scale(.83 -1)" gradientUnits="userSpaceOnUse">
      <stop offset="0" stop-color="#ffb500"/>
      <stop offset="1" stop-color="#ffb72d"/>
    </radialGradient>
    <linearGradient id="_Áåçûìÿííûé_ãðàäèåíò_271-9" data-name="Áåçûìÿííûé ãðàäèåíò 271" x1="-1172.27" y1="201.52" x2="-1147.72" y2="203.02" gradientTransform="translate(-909) rotate(-180) scale(1 -1)" xlink:href="#_Áåçûìÿííûé_ãðàäèåíò_271"/>
    <linearGradient id="_Áåçûìÿííûé_ãðàäèåíò_271-10" data-name="Áåçûìÿííûé ãðàäèåíò 271" x1="598.86" y1="-348.23" x2="609.83" y2="-376.29" gradientTransform="translate(660.12 -231.68) rotate(95.03) scale(.83 -1)" xlink:href="#_Áåçûìÿííûé_ãðàäèåíò_271"/>
    <radialGradient id="_Áåçûìÿííûé_ãðàäèåíò_42-2" data-name="Áåçûìÿííûé ãðàäèåíò 42" cx="694.51" cy="-1604.5" fx="694.51" fy="-1604.5" r="31.52" gradientTransform="translate(-1569.13 -231.68) rotate(84.97) scale(.83 1)" xlink:href="#_Áåçûìÿííûé_ãðàäèåíò_42"/>
    <linearGradient id="_Áåçûìÿííûé_ãðàäèåíò_271-11" data-name="Áåçûìÿííûé ãðàäèåíò 271" x1="69.09" y1="199.74" x2="93.64" y2="201.24" xlink:href="#_Áåçûìÿííûé_ãðàäèåíò_271"/>
    <linearGradient id="_Áåçûìÿííûé_ãðàäèåíò_271-12" data-name="Áåçûìÿííûé ãðàäèåíò 271" x1="728.35" y1="-1584.92" x2="739.32" y2="-1612.97" gradientTransform="translate(-1569.13 -231.68) rotate(84.97) scale(.83 1)" xlink:href="#_Áåçûìÿííûé_ãðàäèåíò_271"/>
    <radialGradient id="_Áåçûìÿííûé_ãðàäèåíò_42-3" data-name="Áåçûìÿííûé ãðàäèåíò 42" cx="124.45" cy="229.93" fx="124.45" fy="229.93" r="31.41" gradientTransform="matrix(1,0,0,1,0,0)" xlink:href="#_Áåçûìÿííûé_ãðàäèåíò_42"/>
    <linearGradient id="_Áåçûìÿííûé_ãðàäèåíò_271-13" data-name="Áåçûìÿííûé ãðàäèåíò 271" x1="114.67" y1="259.74" x2="134.49" y2="209.07" xlink:href="#_Áåçûìÿííûé_ãðàäèåíò_271"/>
    <linearGradient id="_Áåçûìÿííûé_ãðàäèåíò_271-14" data-name="Áåçûìÿííûé ãðàäèåíò 271" x1="158.11" y1="249.51" x2="169.09" y2="221.46" xlink:href="#_Áåçûìÿííûé_ãðàäèåíò_271"/>
    <linearGradient id="_Áåçûìÿííûé_ãðàäèåíò_271-15" data-name="Áåçûìÿííûé ãðàäèåíò 271" x1="99.66" y1="228.78" x2="82.52" y2="213.6" xlink:href="#_Áåçûìÿííûé_ãðàäèåíò_271"/>
    <linearGradient id="_Áåçûìÿííûé_ãðàäèåíò_271-16" data-name="Áåçûìÿííûé ãðàäèåíò 271" x1="85.52" y1="232.56" x2="86.57" y2="229.88" xlink:href="#_Áåçûìÿííûé_ãðàäèåíò_271"/>
    <radialGradient id="_Áåçûìÿííûé_ãðàäèåíò_42-4" data-name="Áåçûìÿííûé ãðàäèåíò 42" cx="-1248.43" cy="233.88" fx="-1248.43" fy="233.88" r="31.41" gradientTransform="translate(-1041.91 4.17) rotate(179.59) scale(1 -1)" xlink:href="#_Áåçûìÿííûé_ãðàäèåíò_42"/>
    <linearGradient id="_Áåçûìÿííûé_ãðàäèåíò_271-17" data-name="Áåçûìÿííûé ãðàäèåíò 271" x1="-1258.2" y1="263.68" x2="-1238.39" y2="213.01" gradientTransform="translate(-1041.91 4.17) rotate(179.59) scale(1 -1)" xlink:href="#_Áåçûìÿííûé_ãðàäèåíò_271"/>
    <linearGradient id="_Áåçûìÿííûé_ãðàäèåíò_271-18" data-name="Áåçûìÿííûé ãðàäèåíò 271" x1="-1214.76" y1="253.46" x2="-1203.79" y2="225.4" gradientTransform="translate(-1041.91 4.17) rotate(179.59) scale(1 -1)" xlink:href="#_Áåçûìÿííûé_ãðàäèåíò_271"/>
    <linearGradient id="_Áåçûìÿííûé_ãðàäèåíò_271-19" data-name="Áåçûìÿííûé ãðàäèåíò 271" x1="-1273.21" y1="232.73" x2="-1290.36" y2="217.55" gradientTransform="translate(-1041.91 4.17) rotate(179.59) scale(1 -1)" xlink:href="#_Áåçûìÿííûé_ãðàäèåíò_271"/>
    <linearGradient id="_Áåçûìÿííûé_ãðàäèåíò_271-20" data-name="Áåçûìÿííûé ãðàäèåíò 271" x1="-1287.35" y1="236.5" x2="-1286.31" y2="233.83" gradientTransform="translate(-1041.91 4.17) rotate(179.59) scale(1 -1)" xlink:href="#_Áåçûìÿííûé_ãðàäèåíò_271"/>
    <linearGradient id="_Áåçûìÿííûé_ãðàäèåíò_271-21" data-name="Áåçûìÿííûé ãðàäèåíò 271" x1="160.98" y1="231.66" x2="170.56" y2="224.08" xlink:href="#_Áåçûìÿííûé_ãðàäèåíò_271"/>
    <linearGradient id="_Áåçûìÿííûé_ãðàäèåíò_271-22" data-name="Áåçûìÿííûé ãðàäèåíò 271" x1="42.8" y1="-2044.58" x2="15.88" y2="-2009.68" gradientTransform="translate(-1664.11 -493.56) rotate(109.96)" xlink:href="#_Áåçûìÿííûé_ãðàäèåíò_271"/>
    <radialGradient id="_Áåçûìÿííûé_ãðàäèåíò_9" data-name="Áåçûìÿííûé ãðàäèåíò 9" cx="18.33" cy="-2025" fx="18.33" fy="-2025" r="29.58" gradientTransform="translate(-1664.11 -493.56) rotate(109.96)" gradientUnits="userSpaceOnUse">
      <stop offset=".02" stop-color="#49456c"/>
      <stop offset=".99" stop-color="#4a335f"/>
    </radialGradient>
    <linearGradient id="_Áåçûìÿííûé_ãðàäèåíò_271-23" data-name="Áåçûìÿííûé ãðàäèåíò 271" x1="-1456.96" y1="-1827.62" x2="-1452.08" y2="-1865.86" gradientTransform="translate(-1080.61 -1747.81) rotate(-176.04)" xlink:href="#_Áåçûìÿííûé_ãðàäèåíò_271"/>
    <linearGradient id="_Áåçûìÿííûé_ãðàäèåíò_271-24" data-name="Áåçûìÿííûé ãðàäèåíò 271" x1="-1432.13" y1="-1868.83" x2="-1430.62" y2="-1880.68" gradientTransform="translate(-1080.61 -1747.81) rotate(-176.04)" xlink:href="#_Áåçûìÿííûé_ãðàäèåíò_271"/>
    <linearGradient id="_Áåçûìÿííûé_ãðàäèåíò_271-25" data-name="Áåçûìÿííûé ãðàäèåíò 271" x1="-1443.29" y1="-1843.78" x2="-1443.63" y2="-1837.58" gradientTransform="translate(-1080.61 -1747.81) rotate(-176.04)" xlink:href="#_Áåçûìÿííûé_ãðàäèåíò_271"/>
    <linearGradient id="_Áåçûìÿííûé_ãðàäèåíò_271-26" data-name="Áåçûìÿííûé ãðàäèåíò 271" x1="238.94" y1="225.85" x2="213.07" y2="186.21" xlink:href="#_Áåçûìÿííûé_ãðàäèåíò_271"/>
    <linearGradient id="_Áåçûìÿííûé_ãðàäèåíò_271-27" data-name="Áåçûìÿííûé ãðàäèåíò 271" x1="-1420.51" y1="-1898.68" x2="-1423" y2="-1853.54" gradientTransform="translate(-1080.61 -1747.81) rotate(-176.04)" xlink:href="#_Áåçûìÿííûé_ãðàäèåíò_271"/>
    <linearGradient id="_Áåçûìÿííûé_ãðàäèåíò_271-28" data-name="Áåçûìÿííûé ãðàäèåíò 271" x1="15.43" y1="-2017.98" x2="18.67" y2="-2030.42" gradientTransform="translate(-1664.11 -493.56) rotate(109.96)" xlink:href="#_Áåçûìÿííûé_ãðàäèåíò_271"/>
    <linearGradient id="_Áåçûìÿííûé_ãðàäèåíò_271-29" data-name="Áåçûìÿííûé ãðàäèåíò 271" x1="702.94" y1="-226.44" x2="676.02" y2="-191.54" gradientTransform="translate(62.65 -493.56) rotate(70.04) scale(1 -1)" xlink:href="#_Áåçûìÿííûé_ãðàäèåíò_271"/>
    <radialGradient id="_Áåçûìÿííûé_ãðàäèåíò_9-2" data-name="Áåçûìÿííûé ãðàäèåíò 9" cx="110.59" cy="194.56" fx="110.59" fy="194.56" r="31.29" gradientTransform="matrix(1,0,0,1,0,0)" xlink:href="#_Áåçûìÿííûé_ãðàäèåíò_9"/>
    <linearGradient id="_Áåçûìÿííûé_ãðàäèåíò_271-30" data-name="Áåçûìÿííûé ãðàäèåíò 271" x1="471.62" y1="-1961.44" x2="476.49" y2="-1999.67" gradientTransform="translate(-520.86 -1747.81) rotate(-3.96) scale(1 -1)" xlink:href="#_Áåçûìÿííûé_ãðàäèåíò_271"/>
    <linearGradient id="_Áåçûìÿííûé_ãðàäèåíò_271-31" data-name="Áåçûìÿííûé ãðàäèåíò 271" x1="497.63" y1="-2002.5" x2="499.14" y2="-2014.35" gradientTransform="translate(-520.86 -1747.81) rotate(-3.96) scale(1 -1)" xlink:href="#_Áåçûìÿííûé_ãðàäèåíò_271"/>
    <linearGradient id="_Áåçûìÿííûé_ãðàäèåíò_271-32" data-name="Áåçûìÿííûé ãðàäèåíò 271" x1="-1865.64" y1="-1406.6" x2="-1862.69" y2="-1417.97" gradientTransform="translate(-1811.3 -1136.75) rotate(-107.6) scale(1 -1)" xlink:href="#_Áåçûìÿííûé_ãðàäèåíò_271"/>
    <linearGradient id="_Áåçûìÿííûé_ãðàäèåíò_271-33" data-name="Áåçûìÿííûé ãðàäèåíò 271" x1="107.66" y1="219.04" x2="110.75" y2="194.16" xlink:href="#_Áåçûìÿííûé_ãðàäèåíò_271"/>
    <radialGradient id="_Áåçûìÿííûé_ãðàäèåíò_42-5" data-name="Áåçûìÿííûé ãðàäèåíò 42" cx="47.93" cy="75.97" fx="47.93" fy="75.97" r="34.92" gradientTransform="translate(84.92 6.49) rotate(65)" xlink:href="#_Áåçûìÿííûé_ãðàäèåíò_42"/>
    <linearGradient id="_Áåçûìÿííûé_ãðàäèåíò_271-34" data-name="Áåçûìÿííûé ãðàäèåíò 271" x1="52" y1="48.98" x2="48.93" y2="30.02" gradientTransform="translate(84.92 6.49) rotate(65)" xlink:href="#_Áåçûìÿííûé_ãðàäèåíò_271"/>
    <linearGradient id="_Áåçûìÿííûé_ãðàäèåíò_271-35" data-name="Áåçûìÿííûé ãðàäèåíò 271" x1="39.9" y1="133.23" x2="49.55" y2="61.33" gradientTransform="translate(110.9 19.37) rotate(90)" xlink:href="#_Áåçûìÿííûé_ãðàäèåíò_271"/>
    <linearGradient id="_Áåçûìÿííûé_ãðàäèåíò_67" data-name="Áåçûìÿííûé ãðàäèåíò 67" x1="53.98" y1="14.86" x2="86.27" y2="14.86" gradientTransform="translate(84.92 6.49) rotate(65)" gradientUnits="userSpaceOnUse">
      <stop offset="0" stop-color="#798633"/>
      <stop offset="1" stop-color="#506f15"/>
    </linearGradient>
    <linearGradient id="_Áåçûìÿííûé_ãðàäèåíò_67-2" data-name="Áåçûìÿííûé ãðàäèåíò 67" x1="56.31" y1="24.31" x2="78.99" y2="24.31" xlink:href="#_Áåçûìÿííûé_ãðàäèåíò_67"/>
    <linearGradient id="_Áåçûìÿííûé_ãðàäèåíò_67-3" data-name="Áåçûìÿííûé ãðàäèåíò 67" x1="-2037.66" y1="-767.01" x2="-2014.97" y2="-767.01" gradientTransform="translate(1722.7 -2680.81) rotate(-72.8) scale(1.53 1)" xlink:href="#_Áåçûìÿííûé_ãðàäèåíò_67"/>
    <linearGradient id="_Áåçûìÿííûé_ãðàäèåíò_67-4" data-name="Áåçûìÿííûé ãðàäèåíò 67" x1="20.59" y1="-35.73" x2="30.22" y2="-35.73" xlink:href="#_Áåçûìÿííûé_ãðàäèåíò_67"/>
    <linearGradient id="_Áåçûìÿííûé_ãðàäèåíò_67-5" data-name="Áåçûìÿííûé ãðàäèåíò 67" x1="33.31" y1="-20.48" x2="39.82" y2="-20.48" xlink:href="#_Áåçûìÿííûé_ãðàäèåíò_67"/>
    <linearGradient id="_Áåçûìÿííûé_ãðàäèåíò_67-6" data-name="Áåçûìÿííûé ãðàäèåíò 67" x1="6.66" y1="-15.97" x2="30.22" y2="-15.97" xlink:href="#_Áåçûìÿííûé_ãðàäèåíò_67"/>
    <linearGradient id="_Áåçûìÿííûé_ãðàäèåíò_67-7" data-name="Áåçûìÿííûé ãðàäèåíò 67" x1="40.1" y1="-13.5" x2="56.4" y2="-13.5" xlink:href="#_Áåçûìÿííûé_ãðàäèåíò_67"/>
    <linearGradient id="_Áåçûìÿííûé_ãðàäèåíò_67-8" data-name="Áåçûìÿííûé ãðàäèåíò 67" x1="46.8" y1="12.39" x2="55.82" y2="12.39" xlink:href="#_Áåçûìÿííûé_ãðàäèåíò_67"/>
    <linearGradient id="_Áåçûìÿííûé_ãðàäèåíò_67-9" data-name="Áåçûìÿííûé ãðàäèåíò 67" x1="-.03" y1="1.29" x2="36.04" y2="1.29" xlink:href="#_Áåçûìÿííûé_ãðàäèåíò_67"/>
    <linearGradient id="_Áåçûìÿííûé_ãðàäèåíò_67-10" data-name="Áåçûìÿííûé ãðàäèåíò 67" x1="14.37" y1="11.52" x2="42.88" y2="11.52" xlink:href="#_Áåçûìÿííûé_ãðàäèåíò_67"/>
    <linearGradient id="_Áåçûìÿííûé_ãðàäèåíò_67-11" data-name="Áåçûìÿííûé ãðàäèåíò 67" x1="17.42" y1="-2067.93" x2="27.05" y2="-2067.93" gradientTransform="translate(1533.93 -649.83) rotate(65.31) scale(1 -.81)" xlink:href="#_Áåçûìÿííûé_ãðàäèåíò_67"/>
    <linearGradient id="_Áåçûìÿííûé_ãðàäèåíò_67-12" data-name="Áåçûìÿííûé ãðàäèåíò 67" x1="-89.39" y1="-2579.94" x2="-82.88" y2="-2579.94" gradientTransform="translate(1459.35 -724.19) rotate(57.6) scale(1 -.63)" xlink:href="#_Áåçûìÿííûé_ãðàäèåíò_67"/>
    <linearGradient id="_Áåçûìÿííûé_ãðàäèåíò_67-13" data-name="Áåçûìÿííûé ãðàäèåíò 67" x1="-355.47" y1="-2907.08" x2="-348.95" y2="-2907.08" gradientTransform="translate(1562.51 -1009.84) rotate(43.4) scale(1 -.63)" xlink:href="#_Áåçûìÿííûé_ãðàäèåíò_67"/>
    <linearGradient id="_Áåçûìÿííûé_ãðàäèåíò_67-14" data-name="Áåçûìÿííûé ãðàäèåíò 67" x1="-116.04" y1="-2575.43" x2="-92.48" y2="-2575.43" gradientTransform="translate(1459.35 -724.19) rotate(57.6) scale(1 -.63)" xlink:href="#_Áåçûìÿííûé_ãðàäèåíò_67"/>
    <linearGradient id="_Áåçûìÿííûé_ãðàäèåíò_67-15" data-name="Áåçûìÿííûé ãðàäèåíò 67" x1="151.61" y1="-2080.74" x2="167.91" y2="-2080.74" gradientTransform="translate(1267.78 -448.89) rotate(73.39) scale(1 -.63)" xlink:href="#_Áåçûìÿííûé_ãðàäèåíò_67"/>
    <linearGradient id="_Áåçûìÿííûé_ãðàäèåíò_67-16" data-name="Áåçûìÿííûé ãðàäèåíò 67" x1="-75.9" y1="-2547.07" x2="-66.88" y2="-2547.07" gradientTransform="translate(1459.35 -724.19) rotate(57.6) scale(1 -.63)" xlink:href="#_Áåçûìÿííûé_ãðàäèåíò_67"/>
    <linearGradient id="_Áåçûìÿííûé_ãðàäèåíò_67-17" data-name="Áåçûìÿííûé ãðàäèåíò 67" x1="-122.73" y1="-2558.17" x2="-86.66" y2="-2558.17" gradientTransform="translate(1459.35 -724.19) rotate(57.6) scale(1 -.63)" xlink:href="#_Áåçûìÿííûé_ãðàäèåíò_67"/>
    <linearGradient id="_Áåçûìÿííûé_ãðàäèåíò_67-18" data-name="Áåçûìÿííûé ãðàäèåíò 67" x1="-108.33" y1="-2547.94" x2="-79.83" y2="-2547.94" gradientTransform="translate(1459.35 -724.19) rotate(57.6) scale(1 -.63)" xlink:href="#_Áåçûìÿííûé_ãðàäèåíò_67"/>
    <linearGradient id="_Áåçûìÿííûé_ãðàäèåíò_271-36" data-name="Áåçûìÿííûé ãðàäèåíò 271" x1="382.07" y1="211.61" x2="378.96" y2="192.38" xlink:href="#_Áåçûìÿííûé_ãðàäèåíò_271"/>
    <linearGradient id="_Áåçûìÿííûé_ãðàäèåíò_271-37" data-name="Áåçûìÿííûé ãðàäèåíò 271" x1="369.8" y1="297.07" x2="379.59" y2="224.15" xlink:href="#_Áåçûìÿííûé_ãðàäèåíò_271"/>
    <linearGradient id="_Áåçûìÿííûé_ãðàäèåíò_5" data-name="Áåçûìÿííûé ãðàäèåíò 5" x1="-280.16" y1="634.76" x2="-273.75" y2="643.53" gradientTransform="translate(351.52 -532.54) rotate(-22.64)" gradientUnits="userSpaceOnUse">
      <stop offset="0" stop-color="#62652a"/>
      <stop offset="1" stop-color="#404e12"/>
    </linearGradient>
    <linearGradient id="_Áåçûìÿííûé_ãðàäèåíò_67-19" data-name="Áåçûìÿííûé ãðàäèåíò 67" x1="-244.53" y1="728.5" x2="-286.51" y2="691.13" gradientTransform="translate(351.52 -532.54) rotate(-22.64)" xlink:href="#_Áåçûìÿííûé_ãðàäèåíò_67"/>
    <linearGradient id="_Áåçûìÿííûé_ãðàäèåíò_67-20" data-name="Áåçûìÿííûé ãðàäèåíò 67" x1="-219.38" y1="702.96" x2="-261.36" y2="665.59" gradientTransform="translate(351.52 -532.54) rotate(-22.64)" xlink:href="#_Áåçûìÿííûé_ãðàäèåíò_67"/>
    <linearGradient id="_Áåçûìÿííûé_ãðàäèåíò_271-38" data-name="Áåçûìÿííûé ãðàäèåíò 271" x1="-263.93" y1="654.85" x2="-256.53" y2="685.51" gradientTransform="translate(351.52 -532.54) rotate(-22.64)" xlink:href="#_Áåçûìÿííûé_ãðàäèåíò_271"/>
    <linearGradient id="_Áåçûìÿííûé_ãðàäèåíò_5-2" data-name="Áåçûìÿííûé ãðàäèåíò 5" x1="-301.71" y1="634.73" x2="-294.03" y2="645.22" xlink:href="#_Áåçûìÿííûé_ãðàäèåíò_5"/>
    <linearGradient id="_Áåçûìÿííûé_ãðàäèåíò_67-21" data-name="Áåçûìÿííûé ãðàäèåíò 67" x1="-234.7" y1="724.18" x2="-276.67" y2="686.81" gradientTransform="translate(351.52 -532.54) rotate(-22.64)" xlink:href="#_Áåçûìÿííûé_ãðàäèåíò_67"/>
    <linearGradient id="_Áåçûìÿííûé_ãðàäèåíò_5-3" data-name="Áåçûìÿííûé ãðàäèåíò 5" x1="-235.22" y1="718.37" x2="-272.95" y2="684.78" xlink:href="#_Áåçûìÿííûé_ãðàäèåíò_5"/>
    <linearGradient id="_Áåçûìÿííûé_ãðàäèåíò_67-22" data-name="Áåçûìÿííûé ãðàäèåíò 67" x1="392.37" y1="258.42" x2="376.15" y2="210.04" gradientTransform="matrix(1,0,0,1,0,0)" xlink:href="#_Áåçûìÿííûé_ãðàäèåíò_67"/>
    <linearGradient id="_Áåçûìÿííûé_ãðàäèåíò_67-23" data-name="Áåçûìÿííûé ãðàäèåíò 67" x1="446.22" y1="226.34" x2="307.3" y2="178.42" gradientTransform="matrix(1,0,0,1,0,0)" xlink:href="#_Áåçûìÿííûé_ãðàäèåíò_67"/>
    <linearGradient id="_Áåçûìÿííûé_ãðàäèåíò_67-24" data-name="Áåçûìÿííûé ãðàäèåíò 67" x1="-2517.37" y1="405.72" x2="-2656.29" y2="357.79" gradientTransform="translate(-144.37 -2351.36) rotate(-92.98)" xlink:href="#_Áåçûìÿííûé_ãðàäèåíò_67"/>
    <linearGradient id="_Áåçûìÿííûé_ãðàäèåíò_52" data-name="Áåçûìÿííûé ãðàäèåíò 52" x1="308.72" y1="225.94" x2="303.73" y2="215.9" gradientTransform="translate(139.2 562.34) rotate(-27.92) scale(1 -1)" gradientUnits="userSpaceOnUse">
      <stop offset=".01" stop-color="#ffff6a"/>
      <stop offset=".12" stop-color="#f0e968"/>
      <stop offset=".35" stop-color="#ccb364"/>
      <stop offset=".66" stop-color="#925c5d"/>
      <stop offset=".98" stop-color="#540056"/>
    </linearGradient>
    <linearGradient id="_Áåçûìÿííûé_ãðàäèåíò_52-2" data-name="Áåçûìÿííûé ãðàäèåíò 52" x1="315.38" y1="222.72" x2="310.37" y2="212.63" xlink:href="#_Áåçûìÿííûé_ãðàäèåíò_52"/>
    <linearGradient id="_Áåçûìÿííûé_ãðàäèåíò_271-39" data-name="Áåçûìÿííûé ãðàäèåíò 271" x1="305.68" y1="221.74" x2="305.58" y2="195.03" gradientTransform="translate(139.2 562.34) rotate(-27.92) scale(1 -1)" xlink:href="#_Áåçûìÿííûé_ãðàäèåíò_271"/>
    <radialGradient id="_Áåçûìÿííûé_ãðàäèåíò_27-2" data-name="Áåçûìÿííûé ãðàäèåíò 27" cx="306.15" cy="209.05" fx="306.15" fy="209.05" r="4.53" gradientTransform="translate(139.2 562.34) rotate(-27.92) scale(1 -1)" xlink:href="#_Áåçûìÿííûé_ãðàäèåíò_27"/>
    <linearGradient id="_Áåçûìÿííûé_ãðàäèåíò_52-3" data-name="Áåçûìÿííûé ãðàäèåíò 52" x1="-83.34" y1="427.59" x2="-88.33" y2="417.55" gradientTransform="translate(-227.62 573.62) rotate(-155.75)" xlink:href="#_Áåçûìÿííûé_ãðàäèåíò_52"/>
    <linearGradient id="_Áåçûìÿííûé_ãðàäèåíò_52-4" data-name="Áåçûìÿííûé ãðàäèåíò 52" x1="-76.68" y1="424.37" x2="-81.69" y2="414.28" gradientTransform="translate(-227.62 573.62) rotate(-155.75)" xlink:href="#_Áåçûìÿííûé_ãðàäèåíò_52"/>
    <linearGradient id="_Áåçûìÿííûé_ãðàäèåíò_271-40" data-name="Áåçûìÿííûé ãðàäèåíò 271" x1="-86.38" y1="423.39" x2="-86.48" y2="396.68" gradientTransform="translate(-227.62 573.62) rotate(-155.75)" xlink:href="#_Áåçûìÿííûé_ãðàäèåíò_271"/>
    <radialGradient id="_Áåçûìÿííûé_ãðàäèåíò_27-3" data-name="Áåçûìÿííûé ãðàäèåíò 27" cx="-85.91" cy="410.7" fx="-85.91" fy="410.7" r="4.53" gradientTransform="translate(-227.62 573.62) rotate(-155.75)" xlink:href="#_Áåçûìÿííûé_ãðàäèåíò_27"/>
    <radialGradient id="_Áåçûìÿííûé_ãðàäèåíò_27-4" data-name="Áåçûìÿííûé ãðàäèåíò 27" cx="223.85" cy="123.85" fx="223.85" fy="123.85" r="41.96" xlink:href="#_Áåçûìÿííûé_ãðàäèåíò_27"/>
    <linearGradient id="_Áåçûìÿííûé_ãðàäèåíò_35-11" data-name="Áåçûìÿííûé ãðàäèåíò 35" x1="182.21" y1="160.92" x2="258.6" y2="138.98" xlink:href="#_Áåçûìÿííûé_ãðàäèåíò_35"/>
    <linearGradient id="_Áåçûìÿííûé_ãðàäèåíò_35-12" data-name="Áåçûìÿííûé ãðàäèåíò 35" x1="180.5" y1="118.89" x2="193.63" y2="115.12" xlink:href="#_Áåçûìÿííûé_ãðàäèåíò_35"/>
    <linearGradient id="_Áåçûìÿííûé_ãðàäèåíò_35-13" data-name="Áåçûìÿííûé ãðàäèåíò 35" x1="172.06" y1="124.12" x2="245.9" y2="102.91" xlink:href="#_Áåçûìÿííûé_ãðàäèåíò_35"/>
    <linearGradient id="_Áåçûìÿííûé_ãðàäèåíò_35-14" data-name="Áåçûìÿííûé ãðàäèåíò 35" x1="175.6" y1="139.34" x2="250.6" y2="117.8" xlink:href="#_Áåçûìÿííûé_ãðàäèåíò_35"/>
    <linearGradient id="_Áåçûìÿííûé_ãðàäèåíò_35-15" data-name="Áåçûìÿííûé ãðàäèåíò 35" x1="182.53" y1="94.47" x2="226.52" y2="81.83" xlink:href="#_Áåçûìÿííûé_ãðàäèåíò_35"/>
    <linearGradient id="_Áåçûìÿííûé_ãðàäèåíò_35-16" data-name="Áåçûìÿííûé ãðàäèåíò 35" x1="194.04" y1="98.95" x2="236.11" y2="86.87" xlink:href="#_Áåçûìÿííûé_ãðàäèåíò_35"/>
    <linearGradient id="_Áåçûìÿííûé_ãðàäèåíò_35-17" data-name="Áåçûìÿííûé ãðàäèåíò 35" x1="240.87" y1="192.47" x2="232.43" y2="170.83" xlink:href="#_Áåçûìÿííûé_ãðàäèåíò_35"/>
    <linearGradient id="_Áåçûìÿííûé_ãðàäèåíò_35-18" data-name="Áåçûìÿííûé ãðàäèåíò 35" x1="269.43" y1="181.35" x2="260.99" y2="159.7" xlink:href="#_Áåçûìÿííûé_ãðàäèåíò_35"/>
    <linearGradient id="_Áåçûìÿííûé_ãðàäèåíò_35-19" data-name="Áåçûìÿííûé ãðàäèåíò 35" x1="221.21" y1="200.13" x2="212.77" y2="178.49" xlink:href="#_Áåçûìÿííûé_ãðàäèåíò_35"/>
    <linearGradient id="_Áåçûìÿííûé_ãðàäèåíò_35-20" data-name="Áåçûìÿííûé ãðàäèåíò 35" x1="274.69" y1="179.3" x2="266.25" y2="157.65" xlink:href="#_Áåçûìÿííûé_ãðàäèåíò_35"/>
  </defs>
  <g class="cls-77">
    <g id="_Ñëîé_1" data-name="Ñëîé 1">
      <g>
        <path class="cls-91" d="m166.49,143.92c0,3.72-.48,7.33-1.39,10.76-.01.05-.03.09-.04.14-.36,1.34-.78,2.65-1.27,3.93-2.92,7.72-8.05,14.36-14.62,19.13-6.91,5.03-15.43,7.99-24.64,7.99-7.1,0-13.79-1.76-19.65-4.88h0c-7.36-3.91-13.41-9.94-17.35-17.28-1.12-2.08-2.06-4.26-2.82-6.52-.23-.68-.43-1.37-.62-2.06-.45-1.62-.81-3.29-1.06-4.99-.14-.95-.25-1.91-.33-2.88-.09-1.11-.13-2.22-.13-3.35,0-1.54.08-3.06.25-4.55.01-.14.03-.28.04-.42h0c1.19-10.06,5.94-19.03,12.95-25.61,7.5-7.05,17.61-11.37,28.72-11.37,2.25,0,4.46.18,6.62.52,1.57.25,3.12.58,4.63,1,1.37.38,2.71.83,4.02,1.34,4.01,1.57,7.73,3.74,11.03,6.4.18.14.36.29.53.43,5.37,4.47,9.6,10.25,12.21,16.86.02.03.03.07.04.1,1.86,4.74,2.88,9.9,2.88,15.29Z"/>
        <path class="cls-84" d="m166.26,142.13c0,3.72-.48,7.33-1.39,10.76-.01.05-.03.09-.04.14-.36,1.34-.78,2.65-1.27,3.93-2.92,7.72-8.05,14.36-14.62,19.13-6.91,5.03-15.43,7.99-24.64,7.99-7.1,0-13.79-1.76-19.65-4.88h0c-7.36-3.91-13.41-9.94-17.35-17.28-1.12-2.08-2.06-4.26-2.82-6.52-.23-.68-.43-1.37-.62-2.06-.45-1.62-.81-3.29-1.06-4.99-.14-.95-.25-1.91-.33-2.88-.09-1.11-.13-2.22-.13-3.35,0-1.54.08-3.06.25-4.55.01-.14.03-.28.04-.42h0c1.19-10.06,5.94-19.03,12.95-25.61,7.5-7.05,17.61-11.37,28.72-11.37,2.25,0,4.46.18,6.62.52,1.57.25,3.12.58,4.63,1,1.37.38,2.71.83,4.02,1.34,4.01,1.57,7.73,3.74,11.03,6.4.18.14.36.29.53.43,5.37,4.47,9.6,10.25,12.21,16.86.02.03.03.07.04.1,1.86,4.74,2.88,9.9,2.88,15.29Z"/>
        <path class="cls-54" d="m107.36,161.32c-1.82,2.28,40.32-2.49,56.2-4.35-2.92,7.72-8.05,14.36-14.62,19.13-14.28.91-34.8,2.41-44.28,3.12h0c-7.36-3.91-13.41-9.94-17.35-17.28,25.85-4.37,62.5-7.75,77.56-9.04-.01.05-.03.09-.04.14-16.26,1.7-55.68,6.06-57.46,8.29Z"/>
        <path class="cls-21" d="m96.38,131.87l-13.79,5.7c.01-.14.03-.28.04-.42h0c4.04-1.83,9.28-4.02,13.74-5.28Z"/>
        <path class="cls-35" d="m163.38,126.83l-80.57,21.52c-.14-.95-.25-1.91-.33-2.88,10.22-4.09,25.07-10.69,22.64-13.67-1.18-1.45-4.62-1.08-8.74.07l54.23-22.43c.18.14.36.29.53.43-14.48,6.86-37.83,18.05-38.99,19.39-1.68,1.97-3.09,8.15,1.41,8.71,3.23.4,33.2-7.04,49.79-11.25.02.03.03.07.04.1Z"/>
        <path class="cls-50" d="m121.11,146.7l-36.63,8.7c-.23-.68-.43-1.37-.62-2.06,8.38-1.86,36.24-6.47,37.25-6.64Z"/>
        <path class="cls-40" d="m130.92,100.7c-9.66,2.84-24.29,7.38-35.33,10.85,7.5-7.05,17.61-11.37,28.72-11.37,2.25,0,4.46.18,6.62.52Z"/>
        <path class="cls-11" d="m139.57,103.04l-32.65,14.37c1.63-.88,19.37-10.34,28.63-15.71,1.37.38,2.71.83,4.02,1.34Z"/>
        <path class="cls-56" d="m102.49,130.11c5.53.66,13.12-5.34,13.12-5.34l-13.59,5.15.47.19Z"/>
        <polygon class="cls-46" points="127.7 106.03 137.73 102.47 135.2 101.72 127.7 106.03"/>
        <path class="cls-3" d="m90.64,167.36c8.01-2.39,21.65-1.55,21.65-1.55l-20.1,3.37-1.55-1.83Z"/>
        <polygon class="cls-48" points="163.17 158.37 155.44 157.94 163.56 156.96 163.17 158.37"/>
      </g>
      <g>
        <g>
          <path class="cls-97" d="m275.99,172.37c4.99,3.93-3.71,78.01-3.71,78.01,0,0-45.94,4.36-100.74,5.48-54.8,1.12-112.19-5.06-112.19-5.06,0,0-8.3-75.55-2.42-76.32,7.51-.99,214.06-6.04,219.05-2.11Z"/>
          <path class="cls-41" d="m63.47,174.1l2.05,66.9s54.25,6.22,106.07,5.09c51.82-1.13,95.26-5.52,95.26-5.52l.95-68.49-103.55-.47-100.78,2.48Z"/>
          <g>
            <path class="cls-76" d="m164.56,215.82c-.05,1.1-.1,2.17-.15,3.2v.04c-.39,7.68-.87,13.31-1.42,13.89-1.86,1.97-85.89-.7-85.89-.7,0,0-4.5-55.94-1.46-61,.65-1.07,5-1.84,11.47-2.37,16.19-1.33,45.62-1.16,63.32-.5,7.46.28,12.84.64,14.26,1.02.21.06.34.11.37.17.2.36.3,3.36.32,7.88h0c.05,9.56-.26,25.89-.81,38.37Z"/>
            <path class="cls-23" d="m164.56,215.82l.81,10.51c-.73.73-1.18-.37-1.03-4.76.03-.79.05-1.63.06-2.5v-.04c.03-1.54.03-3.19.02-4.92-.08-16.37-1.57-39.8-1.75-42.5-.01-.17-.02-.26-.02-.26,0,0-41.05-3.56-75.34-2.25l-.21-.21c16.19-1.33,45.62-1.16,63.32-.5,7.46.28,12.84.64,14.26,1.02.21.06.34.11.37.17.2.36.3,3.36.32,7.88h0c.05,9.56-.26,25.89-.81,38.37Z"/>
            <path class="cls-30" d="m164.56,215.82l-.13-1.72c-.08-16.37-1.57-39.8-1.75-42.5.55-.56,1.24-1.29,2-2.2.21.06.34.11.37.17.2.36.3,3.36.32,7.88h0c.05,9.56-.26,25.89-.81,38.37Z"/>
          </g>
          <g>
            <path class="cls-94" d="m165.75,213.43c.03,1.1.06,2.17.1,3.2v.04c.25,7.69.63,13.32,1.17,13.91,1.82,2,85.89.82,85.89.82,0,0,5.49-55.86,2.54-60.97-.63-1.08-4.97-1.93-11.42-2.58-16.16-1.61-45.59-1.96-63.3-1.62-7.46.14-12.85.41-14.27.77-.22.05-.34.1-.37.16-.2.36-.36,3.36-.46,7.88h0c-.22,9.55-.19,25.89.13,38.38Z"/>
            <path class="cls-60" d="m165.75,213.43l-1,10.49c.72.75,1.18-.35,1.11-4.74-.01-.79-.02-1.63-.02-2.51v-.04c0-1.54.02-3.19.07-4.92.37-16.37,2.28-39.76,2.5-42.46.01-.17.02-.26.02-.26,0,0,41.1-2.83,75.37-.92l.22-.21c-16.16-1.61-45.59-1.96-63.3-1.62-7.46.14-12.85.41-14.27.77-.22.05-.34.1-.37.16-.2.36-.36,3.36-.46,7.88h0c-.22,9.55-.19,25.89.13,38.38Z"/>
            <path class="cls-37" d="m165.75,213.43l.16-1.72c.37-16.37,2.28-39.76,2.5-42.46-.54-.57-1.22-1.31-1.96-2.24-.22.05-.34.1-.37.16-.2.36-.36,3.36-.46,7.88h0c-.22,9.55-.19,25.89.13,38.38Z"/>
          </g>
          <path class="cls-17" d="m227.5,210.32c9.84-5.62,14.43-36.73,14.43-36.73l8.34,61.47-86.02-16.59,63.25-8.15Z"/>
          <path class="cls-52" d="m106.9,210.88c-9.84-5.62-16.59-38.51-16.59-38.51l-5.34,59.6,82.09-9.28-60.16-11.81Z"/>
          <path class="cls-8" d="m59.36,250.8c3.59-.47,12.96-17.43,12.96-17.43l-13.28,14.41.32,3.02Z"/>
          <path class="cls-39" d="m272.34,250.17c-3.59-.47-10.06-15.67-10.06-15.67l10.38,12.65-.32,3.02Z"/>
          <g>
            <path class="cls-68" d="m238.85,234.77c19.8,1.74,19.49,1.51,20.38,1.55h.06c1.52.08,2.65.11,3.13.07.36-.03.76-1.02,1.18-2.76,2.57-10.64,5.76-49.16,3.52-65.08l-5.13-1.56-.96-.15-17.32,3.22c-8.01,21.57-5.51,56.92-4.95,63.6.06.63.09,1.01.1,1.09v.02Z"/>
            <path class="cls-15" d="m238.85,234.77c19.8,1.74,19.49,1.51,20.38,1.55h.06s3.13.07,3.13.07l-6.03-2.08s1.52-33.51,5.6-67.32l-.96-.15-17.32,3.22c-8.01,21.57-5.51,56.92-4.95,63.6,0,.09.02.18.02.26.01.11.02.2.02.29.02.19.03.33.04.42,0,.06,0,.1.01.12v.02Z"/>
            <path class="cls-22" d="m238.85,234.77c19.8,1.74,19.49,1.51,20.38,1.55h.06c1.52.08,2.65.11,3.13.07l-6.03-2.08c-2.86.69-13.44-.36-17.63-.65,0,.09.02.18.02.26.01.11.02.2.02.29.02.19.03.33.04.42,0,.06,0,.1.01.12v.02Z"/>
          </g>
          <g>
            <path class="cls-65" d="m93.51,232.99c-19.8,1.74-19.49,1.51-20.38,1.55h-.06c-1.52.08-2.65.11-3.13.07-.36-.03-.76-1.02-1.18-2.76-2.57-10.64-5.76-49.16-3.52-65.08l5.13-1.56.96-.15,17.32,3.22c8.01,21.57,5.51,56.92,4.95,63.6-.06.63-.09,1.01-.1,1.09v.02Z"/>
            <path class="cls-25" d="m93.51,232.99c-19.8,1.74-19.49,1.51-20.38,1.55h-.06s-3.13.07-3.13.07l6.03-2.08s-1.52-33.51-5.6-67.32l.96-.15,17.32,3.22c8.01,21.57,5.51,56.92,4.95,63.6,0,.09-.02.18-.02.26-.01.11-.02.2-.02.29-.02.19-.03.33-.04.42,0,.06,0,.1-.01.12v.02Z"/>
            <path class="cls-16" d="m93.51,232.99c-19.8,1.74-19.49,1.51-20.38,1.55h-.06c-1.52.08-2.65.11-3.13.07l6.03-2.08c2.86.69,13.44-.36,17.63-.65,0,.09-.02.18-.02.26-.01.11-.02.2-.02.29-.02.19-.03.33-.04.42,0,.06,0,.1-.01.12v.02Z"/>
          </g>
          <g>
            <path class="cls-93" d="m166.4,218.99s0,13.83-.29,20.44v.06c-.07,1.52-.15,2.65-.25,3.12-.07.35-1.32.67-3.45.93-13.1,1.62-59.89,1.43-78.85-2.2l-1-12.1-.08-.97,5.38-10.12c26.86-6.09,69.22-.5,77.21.64.75.11,1.21.18,1.3.19h.02Z"/>
            <path class="cls-55" d="m166.4,218.99s0,13.83-.29,20.44v.06l-.25,3.12-2.42-12.23s-39.68-2.24-80.88-1.13l-.02-.25-.06-.72,5.38-10.12s.08-.02.12-.03c1.32-.3,2.69-.57,4.07-.8,3.35-.58,6.88-1.02,10.51-1.32,25.49-2.17,55.87,1.85,62.51,2.8.11.02.21.03.31.04.13.02.24.04.35.05.23.03.39.06.51.08.07.01.12.02.14.02h.02Z"/>
            <path class="cls-38" d="m166.4,218.99s0,13.83-.29,20.44v.06c-.07,1.52-.15,2.65-.25,3.12l-2.42-12.23c1.14-2.79,1.54-7.38,1.63-11.58.11.02.21.03.31.04.13.02.24.04.35.05.23.03.39.06.51.08.07.01.12.02.14.02h.02Z"/>
            <path class="cls-34" d="m102.57,215.99c-12.51,1.55-18.38,9.17-20.02,12.99l-.06-.72,5.38-10.12s.08-.02.12-.03c1.32-.3,2.69-.57,4.07-.8,3.35-.58,6.88-1.02,10.51-1.32Z"/>
            <path class="cls-2" d="m82.45,228.35c1.37,6.24,6.93,6.37,6.93,6.37l-6.93-6.37Z"/>
          </g>
          <g>
            <path class="cls-79" d="m166.15,218.54s.1,13.83.43,20.43v.06c.08,1.52.17,2.65.28,3.12.07.35,1.32.66,3.46.91,13.11,1.53,59.89,1.01,78.83-2.75l.91-12.11.08-.98-5.45-10.08c-26.9-5.9-69.22-.01-77.2,1.19-.75.12-1.2.18-1.3.2h-.02Z"/>
            <path class="cls-47" d="m166.15,218.53s.1,13.83.43,20.43v.06s.28,3.12.28,3.12l2.33-12.25s39.66-2.52,80.87-1.71l.02-.25.06-.72-5.45-10.08s-.08-.02-.12-.03c-1.32-.29-2.69-.55-4.08-.77-3.35-.56-6.88-.97-10.52-1.25-25.5-1.99-55.85,2.24-62.49,3.24-.11.02-.21.03-.31.05-.13.02-.24.04-.35.05-.23.03-.39.06-.51.08-.07.01-.12.02-.14.02h-.02Z"/>
            <path class="cls-53" d="m166.15,218.54s.1,13.83.43,20.43v.06c.08,1.52.17,2.65.28,3.12l2.33-12.25c-1.16-2.78-1.59-7.37-1.71-11.57-.11.02-.21.03-.31.05-.13.02-.24.04-.35.05-.23.03-.39.06-.51.08-.07.01-.12.02-.14.02h-.02Z"/>
            <path class="cls-10" d="m229.96,215.09c12.52,1.46,18.44,9.04,20.11,12.85l.06-.72-5.45-10.08s-.08-.02-.12-.03c-1.32-.29-2.69-.55-4.08-.77-3.35-.56-6.88-.97-10.52-1.25Z"/>
            <path class="cls-26" d="m250.17,227.3c-1.33,6.25-6.89,6.42-6.89,6.42l6.89-6.42Z"/>
          </g>
          <path class="cls-9" d="m165.71,225.88l-.06,4.11-.28-3.67c.1-.11.22-.25.34-.44Z"/>
        </g>
        <g>
          <path class="cls-24" d="m241.41,178.93c-2.8,4.82-11.26,16.85-18.32,23.52-8.11,7.67-37.48,14.06-37.48,14.06,0,0,18.42-2.45,24.36,3,5.95,5.45,7.73,7.45,7.73,7.45,0,0,5.48-.59,14.04-5.88,15.55-9.61,19.42-21.36,19.42-21.36l-11.38-14.65,1.63-6.14Z"/>
          <path class="cls-86" d="m216.48,224.79h0c0-.08,0-.13,0-.13v-.02s-.02,0-.02-.02c-.09-.11-.32-.48-.66-1.06-.63-1.07-1.68-2.82-2.85-4.92h0c-.78-1.4-1.71-2.95-2.68-4.55-1.42-2.37-2.9-4.85-4.02-7.06-.13-.26-.25-.5-.37-.74-.3-.64-.56-1.24-.78-1.81-.09-.24-.18-.47-.25-.69-.27-.77-2.8-1.99-2.83-2.56-.04-1.14,3.39-1.91,4.79-3.32.13-.14.26-.27.41-.4.01-.02.04-.04.06-.06.06-.05.11-.11.16-.16.17-.17.36-.33.53-.52.02-.02.05-.05.07-.07.21-.19.41-.39.62-.58.03-.03.06-.05.09-.08.36-.34.72-.67,1.09-1.02.13-.13.27-.27.4-.4,0,0,0,0,0,0h.01c3.86-3.87,9.87-7.69,15.99-9.25,1.84-.46,3.7-.73,5.51-.72.68,0,1.32.04,1.97.11h.03s.04.01.04.01c.09.03.2.09.34.17.04.02.1.05.15.08,1.16.73,3.69,2.81,6.46,5.12.2.17.4.33.59.49.02.03.05.05.07.07.22.19.45.38.68.57.4.33.79.67,1.18,1,.13.11.25.21.38.31,1.85,1.56,3.62,3.04,4.99,4.11.17.14.34.27.5.39,1.05.81,1.77,1.3,1.96,1.27.93-.17,2.19.05,2.19.05l-.93,1.67c-.54.99-1.27,2.02-2.13,3.08-.49.6-1.02,1.21-1.59,1.82-9.55,10.31-29.75,22.27-30.93,22-1.15-.28-1.24-1.72-1.22-2.16Z"/>
          <path class="cls-33" d="m233.72,184.75c1.38.17,16.42,13.77,17.36,13.59.94-.16,2.19.04,2.19.04-2.24-.07-5.13,1.43-7.77,3.25-.07.04-.13.09-.2.13-2.06,1.44-3.96,3.06-5.27,4.24,1.36-1.3,3.22-3.15,4.68-4.81.02-.02.03-.03.04-.04,1.47-1.66,2.51-3.12,2.21-3.64-.83-1.45-13.24-12.77-13.24-12.77Z"/>
          <path class="cls-36" d="m216.8,224.74c.51-2.9,3.77-5.45,3.77-5.45l-5.39,3.18,1.62,2.27Z"/>
          <path class="cls-49" d="m230.62,188.21l1.13-3.57c.67,0,1.32.04,1.97.11h.03s.42.23.42.23c-1.88.4-3.54,3.23-3.54,3.23Z"/>
          <path class="cls-43" d="m210.26,214.1c-1.42-2.37-2.9-4.85-4.02-7.06-.13-.26-.25-.5-.37-.74-.3-.64-.56-1.24-.78-1.81-.09-.24-.18-.47-.25-.69-.27-.77-.42-1.45-.44-2.03-.04-1.14,1-2.44,2.4-3.86.13-.14.26-.27.41-.4,1.35-.86,2.42-1.53,2.42-1.53.02-.09-.69.26-1.67.8.02-.02.05-.05.07-.07.21-.19.41-.39.62-.58.03-.03.06-.05.09-.08.36-.34.72-.67,1.09-1.02.13-.13.27-.27.4-.4,0,0,0,0,0,0h.01c3.86-3.87,9.87-7.69,15.99-9.25,1.92.08,3.59.48,4.98.99.21.08.42.16.61.24,2.71,1.13,4.21,2.61,4.21,2.61-15.81.95-27.32,17.19-25.77,24.9Z"/>
          <path class="cls-45" d="m202.01,201.23c-.04-1.15,3.39-1.91,4.79-3.32.15-.15.3-.31.47-.46.06-.05.11-.11.17-.16l-.34,3.96,1.56-5.13.14-.47s-.03.13-.05.39c-.23,2.06-.91,12.17,6.51,26.39.1.19.2.38.3.57.29.54.59,1.08.9,1.63-.08-.11-.31-.48-.66-1.06-.63-1.07-1.68-2.82-2.85-4.92h0c-1.93-3.45-4.82-7.91-6.7-11.62-.13-.25-.25-.5-.37-.74-.3-.64-.57-1.24-.78-1.81-.09-.24-.18-.47-.25-.69-.26-.77-2.81-1.99-2.83-2.56Z"/>
          <path class="cls-18" d="m244.22,207.46c-10.75,8.81-20.41,13.38-20.41,13.38,0,0,4.74-1.12,11.18-5.66,4.91-3.46,9.23-7.71,9.23-7.71Z"/>
        </g>
        <g>
          <path class="cls-74" d="m82.35,203.39c12.74,11.24,29.99,22.86,29.99,22.86l-7.12-15.93-22.86-6.93Z"/>
          <path class="cls-61" d="m91.49,178.93c2.8,4.82,11.26,16.85,18.32,23.52,8.11,7.67,37.48,14.06,37.48,14.06,0,0-18.42-2.45-24.36,3-5.95,5.45-7.73,7.45-7.73,7.45,0,0-5.48-.59-14.04-5.88-15.55-9.61-21.76-20.95-21.76-20.95l13.72-15.06-1.63-6.14Z"/>
          <path class="cls-80" d="m130.13,200.29c-.01.24-.32.74-.69,1.31-.54.81-1.23,1.74-1.38,2.19-.08.22-.16.45-.25.69-.11.29-.23.59-.36.89-.13.3-.26.6-.41.91-.13.25-.24.48-.37.74-1.12,2.21-2.6,4.69-4.02,7.06-.96,1.61-1.9,3.16-2.68,4.55h0c-1.17,2.11-2.22,3.85-2.86,4.93-.35.58-.57.95-.66,1.06t0,.02v.02s0,.04,0,.12h0c.02.45-1.35,4.38-2.49,4.65-1.18.28-3.66-9.96-22.91-20.95-.72-.41-12.25-7.04-12.8-8.03l-.93-1.67s1.26-.21,2.19-.04c.19.03,3.25-.87,4.3-1.68.15-.13.32-.25.5-.39,1.36-1.07,3.14-2.55,4.98-4.11.13-.1.25-.21.38-.31.4-.33.79-.67,1.18-1,.23-.19.46-.38.68-.57.02-.02.06-.03.08-.07h0c.2-.17.39-.32.59-.49,2.4-2,5.47-4.24,6.22-5.78.03-.07.06-.14.08-.21-.19-1.03-.46-2.68-.14-3.25.1-.19,1.19.2,2.85.96,5.76,2.63,18.47,9.73,21.47,12.73h.02s0,.01,0,.02c.13.13.26.28.4.4.36.35.73.68,1.09,1.02.03.03.06.06.09.08.21.19.41.39.62.58.02.02.04.04.07.07.18.18.36.35.53.52.05.05.11.11.17.16.02.02.04.04.06.06.15.13.29.26.41.4.34.35.77.6,1.2.8h0c1.35.61,2.86.72,2.83,1.59Z"/>
          <path class="cls-13" d="m99.18,184.75c-1.38.17-18.76,14.17-19.7,14-.94-.16-2.19.04-2.19.04,2.24-.07,7.48,1.02,10.12,2.85.07.04.13.09.2.13,2.06,1.44,3.96,3.06,5.27,4.24-1.36-1.3-3.22-3.15-4.68-4.81-.02-.02-.03-.03-.04-.04-1.47-1.66-2.51-3.12-2.21-3.64.83-1.45,13.24-12.77,13.24-12.77Z"/>
          <path class="cls-6" d="m116.1,224.74c-.51-2.9-3.77-5.45-3.77-5.45l5.39,3.18-1.62,2.27Z"/>
          <path class="cls-4" d="m108.87,219.41c-10.38-9.24-18.63-13.77-18.63-13.77,0,0,4.69,1.31,10.93,6.12,4.76,3.66,7.7,7.65,7.7,7.65Z"/>
          <path class="cls-29" d="m129.44,201.6c-.54.81-1.23,1.74-1.38,2.19-.08.22-.16.45-.25.69-.11.29-.23.59-.36.89.9-4.32-5.09-7.97-5.36-7.64-.28.35,2.53,4.71,2.53,4.71,0,0-23.19-15.46-33.03-11.83h0c.2-.17.39-.32.59-.49,2.4-2,5.47-4.24,6.22-5.78.05.04.1.08.15.12.02.02.04.03.07.05,1.56,1.18,3.56,1.76,3.8,1.06.22-.67-.59-2.47-1.22-3.72,5.76,2.63,18.47,9.73,21.47,12.73h.02s0,.01,0,.02c.13.13.26.28.4.4.36.35.73.68,1.09,1.02.03.03.06.06.09.08.21.19.41.39.62.58.02.02.04.04.07.07.18.18.36.35.53.52.05.05.11.11.17.16.02.02.04.04.06.06.15.13.29.26.41.4.34.35.77.6,1.2.8-.58.08-.87.44.05,1.49.81.93,1.53,1.29,2.09,1.4Z"/>
        </g>
      </g>
      <g>
        <g>
          <path class="cls-102" d="m82.94,99.18c-2.12.99-4.31,1.67-6.53,2.09-13.2,2.41-27.4-5.16-33.89-19.07-5.57-11.95-3.91-25.24,3.22-34.18,2.58-3.22,5.85-5.88,9.76-7.7,14.73-6.87,32.84.73,40.42,16.99,7.58,16.25,1.77,35.01-12.96,41.88Z"/>
          <path class="cls-12" d="m82.94,99.18c-2.12.99-4.31,1.67-6.53,2.09,4.88-2.55,9.07-7.38,8.63-16.62-.03-.7-.09-1.44-.19-2.2-1.46-12.35-7.97-25.38-17.21-32.02-6.29-4.5-13.82-6.05-21.9-2.42,2.58-3.22,5.85-5.88,9.76-7.7,14.73-6.87,32.84.73,40.42,16.99,7.58,16.25,1.77,35.01-12.96,41.88Z"/>
          <ellipse class="cls-88" cx="70.78" cy="70.42" rx="18.5" ry="20.4" transform="translate(-23.13 36.51) rotate(-25)"/>
          <ellipse class="cls-32" cx="68.85" cy="71.51" rx="18.52" ry="20.41" transform="translate(-23.77 35.8) rotate(-25)"/>
        </g>
        <path class="cls-105" d="m80.16,68.27c26.85-6.42,41.85,16.11,41.85,16.11l-41.85-16.11Z"/>
        <path class="cls-111" d="m80.09,70.87c10.81-.23,22.77,14.42,22.77,14.42l-22.77-14.42Z"/>
        <path class="cls-82" d="m77.32,64.83c-7.48-9.28-3.65-37.37-3.65-37.37l3.65,37.37Z"/>
        <g>
          <path class="cls-75" d="m150.38,0c-21.46,4.23-45.2,30.39-44.15,29.9,1.05-.49,44.15-29.9,44.15-29.9Z"/>
          <path class="cls-81" d="m98.48,37.36c20.11-11.94,41.07-12.41,41.07-12.41l-41.07,12.41Z"/>
          <path class="cls-116" d="m104.39,30.76c8.12-11.49,5.6-28.61,5.6-28.61l-5.6,28.61Z"/>
          <path class="cls-104" d="m93.67,46.99c25.13-14.93,47.89-4.68,47.89-4.68l-47.89,4.68Z"/>
          <path class="cls-98" d="m84.64,58.26c16.89-3.7,21.47-.06,21.47-.06l-21.47.06Z"/>
          <path class="cls-66" d="m92.09,42.91c9.67-20.56-1.54-39.08-1.54-39.08l1.54,39.08Z"/>
          <path class="cls-63" d="m87.07,52.8c6.3-16.09-.98-31-.98-31l.98,31Z"/>
          <path class="cls-112" d="m109.96,26.87c-19.5,15.99-35.37,39.77-35.37,39.77l1.36.17s5.27-7.27,14.77-18.92c9.49-11.65,19.25-21.01,19.25-21.01Z"/>
        </g>
        <g>
          <path class="cls-90" d="m4.93,73.69c13.39-11.92,43.01-10.49,42.16-10.1-.85.39-42.16,10.1-42.16,10.1Z"/>
          <path class="cls-108" d="m53.51,62.45c-13.6,5.87-19.27,19.46-19.27,19.46l19.27-19.46Z"/>
          <path class="cls-109" d="m58.13,64.45c-11.74,9.03-13.9,23.6-13.9,23.6l13.9-23.6Z"/>
          <path class="cls-114" d="m47.32,62.25c-10.23-1.78-21.73-14.11-21.73-14.11l21.73,14.11Z"/>
          <path class="cls-62" d="m71.44,66.71c-18.35,2.44-22.76,23.49-22.76,23.49l22.76-23.49Z"/>
          <path class="cls-113" d="m71.87,66.3c-6.93,8.88-5.51,14.18-5.51,14.18l5.51-14.18Z"/>
          <path class="cls-78" d="m59.08,61.67c-17.06-6.4-27.35-25.36-27.35-25.36l27.35,25.36Z"/>
          <path class="cls-69" d="m67.38,64.5c-13.03-5.86-21.76-19.95-21.76-19.95l21.76,19.95Z"/>
          <path class="cls-112" d="m45.03,63.47c9.94-1.75,26.77,3.72,26.77,3.72l-1.57-1.99-24.18-3.33-1.02,1.6Z"/>
        </g>
        <path class="cls-117" d="m76.46,73.41c-5.42,1.46-10.1,6.1-7.24,9.26,2.86,3.16,9.08,1.12,10.51-2.01,1.43-3.13-3.27-7.25-3.27-7.25Z"/>
        <path class="cls-117" d="m76.73,68.26c-2.04-.01-4.79,3.95-4.32,4.05s2.55.42,3.61-.29c1.06-.71.71-3.75.71-3.75Z"/>
        <path class="cls-117" d="m78.14,72.42c-.55,1.11,2.3,4.7,3.26,2.87s-2.14-5.96-2.7-4.41l-.56,1.55Z"/>
      </g>
      <g>
        <g>
          <path class="cls-83" d="m413.7,203.49c0,2.37-.31,4.68-.88,6.9-3.44,13.17-16.49,22.98-32.06,22.98-13.37,0-24.88-7.23-30.04-17.61-1.86-3.75-2.9-7.9-2.9-12.27,0-16.49,14.75-29.87,32.94-29.87s32.94,13.38,32.94,29.87Z"/>
          <path class="cls-19" d="m413.7,203.49c0,2.37-.31,4.68-.88,6.9-.25-5.58-2.9-11.5-11.58-15.06-.66-.27-1.36-.53-2.1-.77-11.98-3.95-26.75-3.55-36.81,2.1-6.83,3.85-11.49,10.11-11.61,19.1-1.86-3.75-2.9-7.9-2.9-12.27,0-16.49,14.75-29.87,32.94-29.87s32.94,13.38,32.94,29.87Z"/>
          <ellipse class="cls-88" cx="382.04" cy="202.34" rx="20.69" ry="18.77"/>
          <ellipse class="cls-27" cx="382.22" cy="204.58" rx="20.71" ry="18.78"/>
        </g>
        <path class="cls-117" d="m387.82,199.09c-.98,5.61,1.28,11.9,5.41,10.62,4.13-1.28,4.92-7.87,2.66-10.52-2.26-2.66-8.06-.1-8.06-.1Z"/>
        <path class="cls-117" d="m382.61,195.94c-.89,1.87,1.57,6.1,1.87,5.7.3-.39,1.48-2.16,1.28-3.44-.2-1.28-3.15-2.26-3.15-2.26Z"/>
        <path class="cls-117" d="m393.62,196.28c.79.98,5.31-.1,4.03-1.77s-6.39-.59-5.21.59l1.18,1.18Z"/>
        <path class="cls-103" d="m385.25,185.95c1.53,7.78-2.21,14.5-5.3,18.53-1.93,2.49-3.61,3.95-3.61,3.95-10.43-9.68-10.73-26.24-9.31-37.95.95-7.82,2.68-13.47,2.68-13.47,0,0,13.06,16.32,15.55,28.95Z"/>
        <path class="cls-85" d="m368.08,209.22c-17.66-11.77-22.1,16.15-22.1,16.15l22.1-16.15Z"/>
        <path class="cls-64" d="m379.06,207.94c2.83-11.16,22.02-34.97,22.02-34.97,0,0-6.84,22.82-12.18,28.65-5.33,5.83-9.84,6.32-9.84,6.32Z"/>
        <path class="cls-57" d="m380.14,204.93c-1.93,2.49-3.61,3.95-3.61,3.95-10.43-9.68-10.73-26.24-9.31-37.95.34-.47.54-.75.54-.75.48,18.18,9.43,31.01,12.38,34.75Z"/>
        <path class="cls-107" d="m336.73,174.73c12.34,27.58,36.22,32.31,35.49,31.23s-35.49-31.23-35.49-31.23Z"/>
        <path class="cls-100" d="m379.62,209.04c28.03-3.93,22.57,22.2,22.57,22.2l-22.57-22.2Z"/>
        <path class="cls-99" d="m379.34,208.54c28.03-3.93,21.93,15.19,21.93,15.19l-21.93-15.19Z"/>
        <path class="cls-67" d="m379.64,210.84c20.06,16.85,10.86,39.34,10.86,39.34,0,0-10.92-8.23-14.93-15.19-4.01-6.96,4.07-24.15,4.07-24.15Z"/>
        <path class="cls-110" d="m358.91,189.89c5.8,17.41,19.67,20.06,19.67,20.06,0,0-1.08-6.29-5.9-12.98-4.82-6.69-13.77-7.08-13.77-7.08Z"/>
        <path class="cls-115" d="m359.82,230.48c17.08-6.7,19.01-20.69,19.01-20.69,0,0-6.23,1.41-12.66,6.57-6.43,5.16-6.36,14.12-6.36,14.12Z"/>
      </g>
      <g>
        <path class="cls-87" d="m317.78,223.83c-.67-1.27-1.59-2.33-2.66-3.16-.39-.3-.81-.58-1.24-.81-1.93-1.07-4.21-1.47-6.43-1.07-.98.17-1.95.5-2.87.99-.83.44-1.57.98-2.21,1.6-3.05,2.95-3.93,7.66-1.85,11.6,2.52,4.77,8.43,6.58,13.2,4.05,4.77-2.52,6.58-8.43,4.06-13.2Z"/>
        <path class="cls-70" d="m307.46,218.79c-.98.17-1.95.5-2.87.99-.83.44-1.57.98-2.21,1.6l5.58,7.68h2.44s-2.94-10.26-2.94-10.26Z"/>
        <path class="cls-73" d="m315.12,220.68c-.39-.3-.81-.58-1.24-.81l-1.46,8.41.55.35,2.15-7.95Z"/>
        <path class="cls-88" d="m316.65,230.44c-1.48-2.8-4.96-3.87-7.76-2.38s-3.87,4.96-2.38,7.76,4.96,3.87,7.76,2.38,3.87-4.96,2.38-7.76Z"/>
        <path class="cls-96" d="m324.35,225.04c-.04-.07-.07-.14-.11-.21.25.78.43,1.58.55,2.37.09.61.15,1.22.16,1.83.16,5.69-2.85,11.26-8.22,14.11-5.53,2.93-12.03,2.17-16.68-1.41-.97-.75-1.87-1.62-2.66-2.61-.54-.68-1.03-1.42-1.47-2.2.28.89.64,1.76,1.09,2.61.5.95,1.1,1.83,1.75,2.63,4.58,5.54,12.56,7.29,19.17,3.8,6.42-3.4,9.46-10.67,7.78-17.42-.3-1.19-.74-2.37-1.35-3.5Z"/>
        <g>
          <path class="cls-89" d="m318.42,230.46c-2.03-3.83-6.78-5.29-10.61-3.26-3.83,2.03-5.29,6.78-3.26,10.61,2.03,3.83,6.78,5.29,10.6,3.26,3.83-2.03,5.29-6.78,3.26-10.6Zm-.3.36c1.89,3.56.53,7.99-3.04,9.88-3.56,1.89-7.99.53-9.87-3.04-1.89-3.56-.53-7.98,3.03-9.87,3.56-1.89,7.99-.53,9.88,3.03Z"/>
          <polygon class="cls-89" points="296.23 240.22 304.2 236.86 304.56 237.8 296.01 240.77 296.23 240.22"/>
          <path class="cls-89" d="m318.92,236.74c.31.05,8.15,2.79,8.15,2.79l-8.14-3.58v.79Z"/>
          <polygon class="cls-89" points="309.83 226.77 308.88 215.22 310.51 226.7 309.83 226.77"/>
        </g>
        <path class="cls-95" d="m328.48,220.46c-5.57-10.51-18.6-14.52-29.12-8.95-10.51,5.57-14.52,18.6-8.95,29.12.6,1.13,1.28,2.18,2.04,3.16,6.3,8.11,17.7,10.76,27.08,5.79,8.94-4.73,13.17-14.86,10.82-24.25-.41-1.66-1.03-3.29-1.87-4.86Zm-4.46,5.05c.29.56.55,1.12.77,1.7.2.53.37,1.06.51,1.6,1.68,6.54-1.26,13.62-7.49,16.93-6.4,3.39-14.15,1.67-18.57-3.73-.62-.76-1.18-1.59-1.66-2.49-.07-.13-.13-.26-.2-.39-3.57-7.23-.76-16.03,6.42-19.83,7.3-3.87,16.36-1.08,20.23,6.22Z"/>
        <path class="cls-20" d="m330.35,225.33c-1.4,1-2.95,2.09-4.65,3.22-.13.09-.27.18-.41.27-.11.08-.23.15-.35.23.16,5.69-2.85,11.26-8.22,14.11-5.53,2.93-12.03,2.17-16.68-1.41-.27.09-.53.18-.8.27-.16.05-.32.1-.48.15-2.1.67-4.21,1.21-6.3,1.62,6.3,8.11,17.7,10.76,27.08,5.79,8.94-4.73,13.17-14.86,10.82-24.25Z"/>
        <path class="cls-92" d="m315.84,232.16c-1.17-2.21-3.92-3.06-6.13-1.88-2.21,1.17-3.06,3.92-1.88,6.13,1.17,2.21,3.92,3.06,6.13,1.88,2.21-1.17,3.06-3.92,1.88-6.13Z"/>
      </g>
      <g>
        <path class="cls-87" d="m12.8,224.38c.59-1.31,1.43-2.43,2.45-3.32.37-.33.77-.63,1.18-.89,1.86-1.2,4.1-1.74,6.35-1.48.99.11,1.97.37,2.93.8.86.39,1.63.88,2.31,1.46,3.24,2.74,4.42,7.39,2.59,11.45-2.21,4.92-8,7.11-12.91,4.89-4.92-2.21-7.11-7.99-4.89-12.91Z"/>
        <path class="cls-71" d="m22.78,218.69c.99.11,1.97.37,2.93.8.86.39,1.63.88,2.31,1.46l-5.08,8.02-2.44.16,2.28-10.43Z"/>
        <path class="cls-72" d="m15.25,221.06c.37-.33.77-.63,1.18-.89l2,8.29-.53.39-2.66-7.79Z"/>
        <path class="cls-88" d="m14.34,230.9c1.3-2.89,4.7-4.18,7.59-2.88,2.89,1.3,4.18,4.7,2.88,7.59-1.3,2.89-4.7,4.18-7.59,2.88-2.89-1.3-4.18-4.7-2.88-7.59Z"/>
        <path class="cls-96" d="m6.32,226.01c.03-.07.06-.14.1-.21-.2.8-.33,1.6-.39,2.4-.05.61-.07,1.23-.04,1.84.2,5.69,3.57,11.06,9.11,13.56,5.71,2.57,12.14,1.4,16.56-2.48.92-.81,1.76-1.74,2.48-2.78.5-.72.94-1.48,1.32-2.29-.22.9-.53,1.79-.92,2.67-.44.98-.98,1.9-1.58,2.74-4.22,5.82-12.07,8.08-18.88,5.02-6.62-2.98-10.13-10.05-8.88-16.89.22-1.21.59-2.41,1.12-3.58Z"/>
        <g>
          <path class="cls-89" d="m16.52,241.4c3.95,1.78,8.59.02,10.37-3.93,1.78-3.95.02-8.6-3.93-10.38-3.95-1.78-8.6-.02-10.38,3.93-1.78,3.95-.02,8.59,3.93,10.37Zm6.05-13.7c3.68,1.66,5.32,5.98,3.66,9.66-1.66,3.68-5.98,5.32-9.66,3.66-3.68-1.66-5.32-5.98-3.66-9.66s5.98-5.32,9.66-3.66Z"/>
          <polygon class="cls-89" points="35.36 239.36 27.18 236.51 26.89 237.47 35.61 239.88 35.36 239.36"/>
          <path class="cls-89" d="m12.49,237.33c-.31.07-7.95,3.3-7.95,3.3l7.89-4.09.06.79Z"/>
          <polygon class="cls-89" points="20.92 226.8 21.13 215.22 20.24 226.77 20.92 226.8"/>
        </g>
        <path class="cls-95" d="m.35,226.67c-1.75,9.52,3.13,19.36,12.35,23.51,9.68,4.36,20.88.98,26.65-7.51.69-1.02,1.31-2.12,1.83-3.28,4.89-10.85.05-23.6-10.79-28.48-10.85-4.89-23.6-.05-28.48,10.79-.73,1.63-1.25,3.29-1.55,4.97Zm26.12-7.71c7.4,3.33,10.77,11.94,7.67,19.38-.06.13-.11.27-.17.4-.42.93-.92,1.8-1.49,2.59-4.06,5.67-11.69,7.88-18.29,4.91-6.43-2.9-9.82-9.77-8.56-16.41.1-.55.24-1.09.4-1.63.18-.58.4-1.17.66-1.74,3.39-7.53,12.25-10.89,19.79-7.5Z"/>
        <path class="cls-1" d="m.35,226.67c1.46.91,3.08,1.89,4.85,2.91.14.08.28.16.42.24.12.07.24.14.36.21.2,5.69,3.57,11.06,9.11,13.56,5.71,2.57,12.14,1.4,16.56-2.48.27.08.54.15.82.22.16.04.33.08.49.12,2.14.53,4.28.94,6.39,1.21-5.77,8.49-16.97,11.87-26.65,7.51-9.22-4.15-14.09-13.99-12.35-23.51Z"/>
        <path class="cls-106" d="m15.26,232.57c1.03-2.28,3.71-3.3,5.99-2.27,2.28,1.03,3.3,3.71,2.27,5.99-1.03,2.28-3.71,3.3-5.99,2.27-2.28-1.03-3.3-3.71-2.27-5.99Z"/>
      </g>
      <g>
        <path class="cls-91" d="m266.04,125.64c0,3.72-.48,7.33-1.39,10.76-.01.05-.03.09-.04.14-.36,1.34-.78,2.65-1.27,3.93-2.92,7.72-8.05,14.36-14.62,19.13-6.91,5.03-15.43,7.99-24.64,7.99-7.1,0-13.79-1.76-19.65-4.88h0c-7.36-3.91-13.41-9.94-17.35-17.28-1.12-2.08-2.06-4.26-2.82-6.52-.23-.68-.43-1.37-.62-2.06-.45-1.62-.81-3.29-1.06-4.99-.14-.95-.25-1.91-.33-2.88-.09-1.11-.13-2.22-.13-3.35,0-1.54.08-3.06.25-4.55.01-.14.03-.28.04-.42h0c1.19-10.06,5.94-19.03,12.95-25.61,7.5-7.05,17.61-11.37,28.72-11.37,2.25,0,4.46.18,6.62.52,1.57.25,3.12.58,4.63,1,1.37.38,2.71.83,4.02,1.34,4.01,1.57,7.73,3.74,11.03,6.4.18.14.36.29.53.43,5.37,4.47,9.6,10.25,12.21,16.86.02.03.03.07.04.1,1.86,4.74,2.88,9.9,2.88,15.29Z"/>
        <path class="cls-101" d="m265.81,123.85c0,3.72-.48,7.33-1.39,10.76-.01.05-.03.09-.04.14-.36,1.34-.78,2.65-1.27,3.93-2.92,7.72-8.05,14.36-14.62,19.13-6.91,5.03-15.43,7.99-24.64,7.99-7.1,0-13.79-1.76-19.65-4.88h0c-7.36-3.91-13.41-9.94-17.35-17.28-1.12-2.08-2.06-4.26-2.82-6.52-.23-.68-.43-1.37-.62-2.06-.45-1.62-.81-3.29-1.06-4.99-.14-.95-.25-1.91-.33-2.88-.09-1.11-.13-2.22-.13-3.35,0-1.54.08-3.06.25-4.55.01-.14.03-.28.04-.42h0c1.19-10.06,5.94-19.03,12.95-25.61,7.5-7.05,17.61-11.37,28.72-11.37,2.25,0,4.46.18,6.62.52,1.57.25,3.12.58,4.63,1,1.37.38,2.71.83,4.02,1.34,4.01,1.57,7.73,3.74,11.03,6.4.18.14.36.29.53.43,5.37,4.47,9.6,10.25,12.21,16.86.02.03.03.07.04.1,1.86,4.74,2.88,9.9,2.88,15.29Z"/>
        <path class="cls-51" d="m206.92,143.04c-1.82,2.28,40.32-2.49,56.2-4.35-2.92,7.72-8.05,14.36-14.62,19.13-14.28.91-34.8,2.41-44.28,3.12h0c-7.36-3.91-13.41-9.94-17.35-17.28,25.85-4.37,62.5-7.75,77.56-9.04-.01.05-.03.09-.04.14-16.26,1.7-55.68,6.06-57.46,8.29Z"/>
        <path class="cls-7" d="m195.93,113.59l-13.79,5.7c.01-.14.03-.28.04-.42h0c4.04-1.83,9.28-4.02,13.74-5.28Z"/>
        <path class="cls-14" d="m262.93,108.55l-80.57,21.52c-.14-.95-.25-1.91-.33-2.88,10.22-4.09,25.07-10.69,22.64-13.67-1.18-1.45-4.62-1.08-8.74.07l54.23-22.43c.18.14.36.29.53.43-14.48,6.86-37.83,18.05-38.99,19.39-1.68,1.97-3.09,8.15,1.41,8.71,3.23.4,33.2-7.04,49.79-11.25.02.03.03.07.04.1Z"/>
        <path class="cls-59" d="m220.66,128.42l-36.63,8.7c-.23-.68-.43-1.37-.62-2.06,8.38-1.86,36.24-6.47,37.25-6.64Z"/>
        <path class="cls-31" d="m230.47,82.42c-9.66,2.84-24.29,7.38-35.33,10.85,7.5-7.05,17.61-11.37,28.72-11.37,2.25,0,4.46.18,6.62.52Z"/>
        <path class="cls-5" d="m239.12,84.75l-32.65,14.37c1.63-.88,19.37-10.34,28.63-15.71,1.37.38,2.71.83,4.02,1.34Z"/>
        <path class="cls-42" d="m202.05,111.83c5.53.66,13.12-5.34,13.12-5.34l-13.59,5.15.47.19Z"/>
        <polygon class="cls-44" points="227.25 87.75 237.28 84.19 234.75 83.44 227.25 87.75"/>
        <path class="cls-58" d="m190.19,149.08c8.01-2.39,21.65-1.55,21.65-1.55l-20.1,3.37-1.55-1.83Z"/>
        <polygon class="cls-28" points="262.72 140.08 254.99 139.66 263.11 138.68 262.72 140.08"/>
      </g>
    </g>
  </g>
</svg>