<?xml version="1.0" encoding="UTF-8"?>
<svg xmlns="http://www.w3.org/2000/svg" xmlns:xlink="http://www.w3.org/1999/xlink" viewBox="0 0 476.13 391.17">
  <defs>
    <style>
      .cls-1 {
        fill: url(#_Áåçûìÿííûé_ãðàäèåíò_271-40);
      }

      .cls-1, .cls-2, .cls-3, .cls-4, .cls-5, .cls-6, .cls-7, .cls-8, .cls-9, .cls-10, .cls-11, .cls-12, .cls-13, .cls-14, .cls-15, .cls-16, .cls-17, .cls-18, .cls-19, .cls-20, .cls-21, .cls-22, .cls-23, .cls-24, .cls-25, .cls-26, .cls-27, .cls-28, .cls-29, .cls-30, .cls-31, .cls-32, .cls-33, .cls-34, .cls-35, .cls-36, .cls-37, .cls-38, .cls-39, .cls-40, .cls-41, .cls-42, .cls-43, .cls-44, .cls-45, .cls-46, .cls-47, .cls-48, .cls-49, .cls-50, .cls-51, .cls-52, .cls-53, .cls-54, .cls-55, .cls-56, .cls-57, .cls-58, .cls-59, .cls-60, .cls-61, .cls-62, .cls-63, .cls-64, .cls-65, .cls-66, .cls-67, .cls-68, .cls-69, .cls-70, .cls-71, .cls-72, .cls-73, .cls-74, .cls-75, .cls-76, .cls-77, .cls-78, .cls-79, .cls-80, .cls-81, .cls-82, .cls-83, .cls-84, .cls-85, .cls-86, .cls-87, .cls-88, .cls-89, .cls-90, .cls-91, .cls-92, .cls-93, .cls-94, .cls-95, .cls-96 {
        mix-blend-mode: multiply;
      }

      .cls-1, .cls-2, .cls-3, .cls-6, .cls-9, .cls-10, .cls-13, .cls-14, .cls-17, .cls-19, .cls-21, .cls-23, .cls-24, .cls-25, .cls-26, .cls-27, .cls-30, .cls-32, .cls-33, .cls-34, .cls-35, .cls-36, .cls-37, .cls-38, .cls-39, .cls-40, .cls-42, .cls-43, .cls-45, .cls-47, .cls-48, .cls-49, .cls-51, .cls-52, .cls-53, .cls-54, .cls-55, .cls-57, .cls-58, .cls-59, .cls-60, .cls-61, .cls-62, .cls-65, .cls-66, .cls-68, .cls-70, .cls-73, .cls-76, .cls-82, .cls-83, .cls-84, .cls-86, .cls-87, .cls-88, .cls-90, .cls-92, .cls-95, .cls-96 {
        opacity: .4;
      }

      .cls-2 {
        fill: url(#_Áåçûìÿííûé_ãðàäèåíò_271-62);
      }

      .cls-3 {
        fill: url(#_Áåçûìÿííûé_ãðàäèåíò_271-16);
      }

      .cls-97 {
        fill: url(#_Áåçûìÿííûé_ãðàäèåíò_67-15);
      }

      .cls-98 {
        fill: url(#_Áåçûìÿííûé_ãðàäèåíò_67-10);
      }

      .cls-99 {
        fill: url(#_Áåçûìÿííûé_ãðàäèåíò_67-20);
      }

      .cls-4 {
        stroke: url(#Orange_Yellow-7);
      }

      .cls-4, .cls-7, .cls-100, .cls-15, .cls-18, .cls-22, .cls-31, .cls-101, .cls-63, .cls-71, .cls-77, .cls-79, .cls-89 {
        fill: #d1d3d4;
        stroke-miterlimit: 10;
      }

      .cls-4, .cls-8, .cls-12, .cls-16, .cls-18, .cls-20, .cls-28, .cls-44, .cls-56, .cls-63, .cls-64, .cls-77, .cls-78, .cls-80, .cls-85, .cls-89, .cls-94 {
        opacity: .15;
      }

      .cls-5 {
        fill: url(#_Áåçûìÿííûé_ãðàäèåíò_35-9);
      }

      .cls-5, .cls-41, .cls-102, .cls-67, .cls-69, .cls-72, .cls-74, .cls-91, .cls-93 {
        opacity: .25;
      }

      .cls-6 {
        fill: url(#_Áåçûìÿííûé_ãðàäèåíò_271-32);
      }

      .cls-7 {
        stroke: url(#Orange_Yellow-12);
      }

      .cls-7, .cls-15, .cls-31, .cls-71, .cls-79 {
        opacity: .1;
      }

      .cls-8 {
        fill: url(#_Áåçûìÿííûé_ãðàäèåíò_35-16);
      }

      .cls-9 {
        fill: url(#_Áåçûìÿííûé_ãðàäèåíò_271-31);
      }

      .cls-100 {
        stroke: url(#Orange_Yellow-8);
      }

      .cls-10 {
        fill: url(#_Áåçûìÿííûé_ãðàäèåíò_271-57);
      }

      .cls-103 {
        fill: url(#_Áåçûìÿííûé_ãðàäèåíò_42-2);
      }

      .cls-11 {
        fill: url(#_Áåçûìÿííûé_ãðàäèåíò_8);
      }

      .cls-11, .cls-46 {
        opacity: .63;
      }

      .cls-12 {
        fill: url(#_Áåçûìÿííûé_ãðàäèåíò_35-12);
      }

      .cls-104 {
        fill: #fff;
      }

      .cls-13 {
        fill: url(#_Áåçûìÿííûé_ãðàäèåíò_271-7);
      }

      .cls-14 {
        fill: url(#_Áåçûìÿííûé_ãðàäèåíò_271-21);
      }

      .cls-15 {
        stroke: url(#Orange_Yellow-10);
      }

      .cls-105 {
        fill: #5a4563;
      }

      .cls-16 {
        fill: url(#_Áåçûìÿííûé_ãðàäèåíò_35-6);
      }

      .cls-17 {
        fill: url(#_Áåçûìÿííûé_ãðàäèåíò_271-34);
      }

      .cls-106 {
        fill: #c1856c;
      }

      .cls-107 {
        fill: url(#_Áåçûìÿííûé_ãðàäèåíò_67-9);
      }

      .cls-108 {
        fill: url(#_Áåçûìÿííûé_ãðàäèåíò_67-22);
      }

      .cls-18 {
        stroke: url(#Orange_Yellow-3);
      }

      .cls-19 {
        fill: url(#_Áåçûìÿííûé_ãðàäèåíò_271-30);
      }

      .cls-109 {
        fill: url(#_Áåçûìÿííûé_ãðàäèåíò_42);
      }

      .cls-110 {
        fill: url(#_Áåçûìÿííûé_ãðàäèåíò_67-18);
      }

      .cls-20 {
        fill: url(#_Áåçûìÿííûé_ãðàäèåíò_35-13);
      }

      .cls-21 {
        fill: url(#_Áåçûìÿííûé_ãðàäèåíò_271-9);
      }

      .cls-111 {
        fill: url(#_Áåçûìÿííûé_ãðàäèåíò_52);
      }

      .cls-111, .cls-112, .cls-102, .cls-113, .cls-114 {
        mix-blend-mode: screen;
      }

      .cls-111, .cls-112, .cls-113, .cls-114 {
        opacity: .42;
      }

      .cls-22 {
        stroke: url(#Orange_Yellow);
      }

      .cls-22, .cls-50, .cls-75, .cls-81 {
        opacity: .6;
      }

      .cls-112 {
        fill: url(#_Áåçûìÿííûé_ãðàäèåíò_52-3);
      }

      .cls-23 {
        fill: url(#_Áåçûìÿííûé_ãðàäèåíò_271-12);
      }

      .cls-24 {
        fill: url(#_Áåçûìÿííûé_ãðàäèåíò_271-5);
      }

      .cls-25 {
        fill: url(#_Áåçûìÿííûé_ãðàäèåíò_271-28);
      }

      .cls-26 {
        fill: url(#_Áåçûìÿííûé_ãðàäèåíò_271-36);
      }

      .cls-27 {
        fill: url(#_Áåçûìÿííûé_ãðàäèåíò_271-39);
      }

      .cls-28 {
        fill: url(#_Áåçûìÿííûé_ãðàäèåíò_35-2);
      }

      .cls-115 {
        fill: url(#_Áåçûìÿííûé_ãðàäèåíò_67-4);
      }

      .cls-116 {
        fill: url(#_Áåçûìÿííûé_ãðàäèåíò_215-2);
      }

      .cls-29 {
        fill: url(#_Áåçûìÿííûé_ãðàäèåíò_271-25);
        opacity: .5;
      }

      .cls-30 {
        fill: url(#_Áåçûìÿííûé_ãðàäèåíò_271-49);
      }

      .cls-117 {
        isolation: isolate;
      }

      .cls-31 {
        stroke: url(#Orange_Yellow-9);
      }

      .cls-32 {
        fill: url(#_Áåçûìÿííûé_ãðàäèåíò_271-58);
      }

      .cls-33 {
        fill: url(#_Áåçûìÿííûé_ãðàäèåíò_271-10);
      }

      .cls-118 {
        fill: url(#_Áåçûìÿííûé_ãðàäèåíò_67-17);
      }

      .cls-119 {
        fill: url(#_Áåçûìÿííûé_ãðàäèåíò_42-4);
      }

      .cls-120 {
        fill: url(#_Áåçûìÿííûé_ãðàäèåíò_42-6);
      }

      .cls-121 {
        fill: url(#_Áåçûìÿííûé_ãðàäèåíò_215-4);
      }

      .cls-34 {
        fill: url(#_Áåçûìÿííûé_ãðàäèåíò_271);
      }

      .cls-35 {
        fill: url(#_Áåçûìÿííûé_ãðàäèåíò_271-61);
      }

      .cls-122 {
        fill: url(#_Áåçûìÿííûé_ãðàäèåíò_9-3);
      }

      .cls-36 {
        fill: url(#_Áåçûìÿííûé_ãðàäèåíò_271-22);
      }

      .cls-37 {
        fill: url(#_Áåçûìÿííûé_ãðàäèåíò_271-11);
      }

      .cls-38 {
        fill: url(#_Áåçûìÿííûé_ãðàäèåíò_271-53);
      }

      .cls-39 {
        fill: url(#_Áåçûìÿííûé_ãðàäèåíò_271-20);
      }

      .cls-40 {
        fill: url(#_Áåçûìÿííûé_ãðàäèåíò_271-48);
      }

      .cls-123 {
        fill: url(#_Áåçûìÿííûé_ãðàäèåíò_9-2);
      }

      .cls-124 {
        fill: #40304c;
      }

      .cls-41 {
        fill: url(#_Áåçûìÿííûé_ãðàäèåíò_35-20);
      }

      .cls-125 {
        fill: url(#_Áåçûìÿííûé_ãðàäèåíò_67-5);
      }

      .cls-42 {
        fill: url(#_Áåçûìÿííûé_ãðàäèåíò_271-33);
      }

      .cls-43 {
        fill: url(#_Áåçûìÿííûé_ãðàäèåíò_271-2);
      }

      .cls-44 {
        fill: url(#_Áåçûìÿííûé_ãðàäèåíò_35-15);
      }

      .cls-126 {
        fill: #3c4d22;
      }

      .cls-45 {
        fill: url(#_Áåçûìÿííûé_ãðàäèåíò_271-54);
      }

      .cls-127 {
        fill: url(#_Áåçûìÿííûé_ãðàäèåíò_67-3);
      }

      .cls-46 {
        fill: url(#_Áåçûìÿííûé_ãðàäèåíò_8-2);
      }

      .cls-128 {
        fill: url(#_Áåçûìÿííûé_ãðàäèåíò_9-4);
      }

      .cls-129 {
        fill: url(#_Áåçûìÿííûé_ãðàäèåíò_27);
      }

      .cls-47 {
        fill: url(#_Áåçûìÿííûé_ãðàäèåíò_271-35);
      }

      .cls-130 {
        fill: url(#_Áåçûìÿííûé_ãðàäèåíò_10);
      }

      .cls-48 {
        fill: url(#_Áåçûìÿííûé_ãðàäèåíò_271-46);
      }

      .cls-131 {
        fill: url(#_Áåçûìÿííûé_ãðàäèåíò_67-19);
      }

      .cls-132 {
        fill: url(#_Áåçûìÿííûé_ãðàäèåíò_9);
      }

      .cls-49 {
        fill: url(#_Áåçûìÿííûé_ãðàäèåíò_271-23);
      }

      .cls-50 {
        fill: #89566e;
      }

      .cls-133 {
        fill: #35273f;
      }

      .cls-134 {
        fill: #77618d;
      }

      .cls-51 {
        fill: url(#_Áåçûìÿííûé_ãðàäèåíò_271-50);
      }

      .cls-52 {
        fill: url(#_Áåçûìÿííûé_ãðàäèåíò_271-15);
      }

      .cls-135 {
        fill: url(#_Áåçûìÿííûé_ãðàäèåíò_67-11);
      }

      .cls-53 {
        fill: url(#_Áåçûìÿííûé_ãðàäèåíò_271-55);
      }

      .cls-54 {
        fill: url(#_Áåçûìÿííûé_ãðàäèåíò_271-42);
      }

      .cls-55 {
        fill: url(#_Áåçûìÿííûé_ãðàäèåíò_271-56);
      }

      .cls-101 {
        stroke: url(#Orange_Yellow-2);
      }

      .cls-136 {
        fill: url(#_Áåçûìÿííûé_ãðàäèåíò_27-2);
      }

      .cls-56 {
        fill: url(#_Áåçûìÿííûé_ãðàäèåíò_35-3);
      }

      .cls-137 {
        fill: url(#_Áåçûìÿííûé_ãðàäèåíò_42-3);
      }

      .cls-138 {
        fill: #9b7bb5;
      }

      .cls-57 {
        fill: url(#_Áåçûìÿííûé_ãðàäèåíò_271-24);
      }

      .cls-139 {
        fill: url(#_Áåçûìÿííûé_ãðàäèåíò_215-3);
      }

      .cls-140 {
        fill: #937faa;
      }

      .cls-141 {
        fill: #f9dfa5;
      }

      .cls-58 {
        fill: url(#_Áåçûìÿííûé_ãðàäèåíò_271-4);
      }

      .cls-59 {
        fill: url(#_Áåçûìÿííûé_ãðàäèåíò_271-14);
      }

      .cls-142 {
        fill: #5e5c8a;
      }

      .cls-60 {
        fill: url(#_Áåçûìÿííûé_ãðàäèåíò_271-52);
      }

      .cls-143 {
        fill: url(#_Áåçûìÿííûé_ãðàäèåíò_215);
      }

      .cls-61 {
        fill: url(#_Áåçûìÿííûé_ãðàäèåíò_271-59);
      }

      .cls-144 {
        fill: url(#_Áåçûìÿííûé_ãðàäèåíò_67-8);
      }

      .cls-145 {
        fill: url(#_Áåçûìÿííûé_ãðàäèåíò_5-3);
      }

      .cls-62 {
        fill: url(#_Áåçûìÿííûé_ãðàäèåíò_271-8);
      }

      .cls-146 {
        fill: url(#_Áåçûìÿííûé_ãðàäèåíò_10-2);
      }

      .cls-102 {
        fill: #ffedb3;
      }

      .cls-147 {
        fill: url(#_Áåçûìÿííûé_ãðàäèåíò_67-21);
      }

      .cls-63 {
        stroke: url(#Orange_Yellow-6);
      }

      .cls-64 {
        fill: url(#_Áåçûìÿííûé_ãðàäèåíò_35-5);
      }

      .cls-65 {
        fill: url(#_Áåçûìÿííûé_ãðàäèåíò_271-19);
      }

      .cls-66 {
        fill: url(#_Áåçûìÿííûé_ãðàäèåíò_271-47);
      }

      .cls-67 {
        fill: url(#_Áåçûìÿííûé_ãðàäèåíò_35-17);
      }

      .cls-148 {
        fill: url(#_Áåçûìÿííûé_ãðàäèåíò_27-4);
      }

      .cls-68 {
        fill: url(#_Áåçûìÿííûé_ãðàäèåíò_271-26);
      }

      .cls-69 {
        fill: url(#_Áåçûìÿííûé_ãðàäèåíò_35-18);
      }

      .cls-149 {
        fill: url(#_Áåçûìÿííûé_ãðàäèåíò_42-5);
      }

      .cls-150 {
        fill: url(#_Áåçûìÿííûé_ãðàäèåíò_215-5);
      }

      .cls-70 {
        fill: url(#_Áåçûìÿííûé_ãðàäèåíò_271-27);
      }

      .cls-71 {
        stroke: url(#Orange_Yellow-13);
      }

      .cls-72 {
        fill: url(#_Áåçûìÿííûé_ãðàäèåíò_35-8);
      }

      .cls-151 {
        fill: url(#_Áåçûìÿííûé_ãðàäèåíò_5);
      }

      .cls-73 {
        fill: url(#_Áåçûìÿííûé_ãðàäèåíò_271-17);
      }

      .cls-74 {
        fill: url(#_Áåçûìÿííûé_ãðàäèåíò_35-10);
      }

      .cls-152 {
        fill: #40304a;
      }

      .cls-75 {
        fill: url(#_Áåçûìÿííûé_ãðàäèåíò_271-37);
      }

      .cls-76 {
        fill: url(#_Áåçûìÿííûé_ãðàäèåíò_271-45);
      }

      .cls-77 {
        stroke: url(#Orange_Yellow-5);
      }

      .cls-78 {
        fill: url(#_Áåçûìÿííûé_ãðàäèåíò_35-4);
      }

      .cls-153 {
        fill: url(#_Áåçûìÿííûé_ãðàäèåíò_67-7);
      }

      .cls-154 {
        fill: url(#_Áåçûìÿííûé_ãðàäèåíò_67);
      }

      .cls-79 {
        stroke: url(#Orange_Yellow-11);
      }

      .cls-80 {
        fill: url(#_Áåçûìÿííûé_ãðàäèåíò_35-11);
      }

      .cls-155 {
        fill: url(#_Áåçûìÿííûé_ãðàäèåíò_27-3);
      }

      .cls-81 {
        fill: url(#_Áåçûìÿííûé_ãðàäèåíò_271-41);
      }

      .cls-113 {
        fill: url(#_Áåçûìÿííûé_ãðàäèåíò_52-4);
      }

      .cls-82 {
        fill: url(#_Áåçûìÿííûé_ãðàäèåíò_271-6);
      }

      .cls-114 {
        fill: url(#_Áåçûìÿííûé_ãðàäèåíò_52-2);
      }

      .cls-83 {
        fill: url(#_Áåçûìÿííûé_ãðàäèåíò_271-18);
      }

      .cls-84 {
        fill: url(#_Áåçûìÿííûé_ãðàäèåíò_271-51);
      }

      .cls-156 {
        fill: url(#_Áåçûìÿííûé_ãðàäèåíò_42-8);
      }

      .cls-157 {
        fill: url(#_Áåçûìÿííûé_ãðàäèåíò_5-2);
      }

      .cls-158 {
        fill: url(#_Áåçûìÿííûé_ãðàäèåíò_67-12);
      }

      .cls-159 {
        fill: url(#_Áåçûìÿííûé_ãðàäèåíò_67-13);
      }

      .cls-85 {
        fill: url(#_Áåçûìÿííûé_ãðàäèåíò_35);
      }

      .cls-160 {
        fill: url(#_Áåçûìÿííûé_ãðàäèåíò_67-23);
      }

      .cls-86 {
        fill: url(#_Áåçûìÿííûé_ãðàäèåíò_271-60);
      }

      .cls-87 {
        fill: url(#_Áåçûìÿííûé_ãðàäèåíò_271-43);
      }

      .cls-88 {
        fill: url(#_Áåçûìÿííûé_ãðàäèåíò_271-44);
      }

      .cls-89 {
        stroke: url(#Orange_Yellow-4);
      }

      .cls-90 {
        fill: url(#_Áåçûìÿííûé_ãðàäèåíò_271-13);
      }

      .cls-91 {
        fill: url(#_Áåçûìÿííûé_ãðàäèåíò_35-7);
      }

      .cls-92 {
        fill: url(#_Áåçûìÿííûé_ãðàäèåíò_271-38);
      }

      .cls-161 {
        fill: url(#_Áåçûìÿííûé_ãðàäèåíò_67-2);
      }

      .cls-162 {
        fill: #3a284c;
      }

      .cls-93 {
        fill: url(#_Áåçûìÿííûé_ãðàäèåíò_35-19);
      }

      .cls-163 {
        fill: url(#_Áåçûìÿííûé_ãðàäèåíò_67-16);
      }

      .cls-94 {
        fill: url(#_Áåçûìÿííûé_ãðàäèåíò_35-14);
      }

      .cls-164 {
        fill: url(#_Áåçûìÿííûé_ãðàäèåíò_67-14);
      }

      .cls-95 {
        fill: url(#_Áåçûìÿííûé_ãðàäèåíò_271-3);
      }

      .cls-165 {
        fill: url(#_Áåçûìÿííûé_ãðàäèåíò_67-24);
      }

      .cls-166 {
        fill: url(#_Áåçûìÿííûé_ãðàäèåíò_42-7);
      }

      .cls-167 {
        fill: url(#_Áåçûìÿííûé_ãðàäèåíò_67-6);
      }

      .cls-96 {
        fill: url(#_Áåçûìÿííûé_ãðàäèåíò_271-29);
      }
    </style>
    <radialGradient id="_Áåçûìÿííûé_ãðàäèåíò_215" data-name="Áåçûìÿííûé ãðàäèåíò 215" cx="419.93" cy="428.14" fx="419.93" fy="428.14" r="82.06" gradientTransform="translate(714 1.18) rotate(90) scale(.91 .98)" gradientUnits="userSpaceOnUse">
      <stop offset=".03" stop-color="#a89fa2"/>
      <stop offset=".99" stop-color="#8d88a3"/>
    </radialGradient>
    <linearGradient id="_Áåçûìÿííûé_ãðàäèåíò_271" data-name="Áåçûìÿííûé ãðàäèåíò 271" x1="-1788.55" y1="-311.06" x2="-1778.06" y2="-311.06" gradientTransform="translate(2021.65 707.99) rotate(.76)" gradientUnits="userSpaceOnUse">
      <stop offset="0" stop-color="#fff"/>
      <stop offset=".98" stop-color="#ab1d3c"/>
    </linearGradient>
    <linearGradient id="_Áåçûìÿííûé_ãðàäèåíò_271-2" data-name="Áåçûìÿííûé ãðàäèåíò 271" x1="1013.84" y1="-308.5" x2="1024.2" y2="-308.5" gradientTransform="translate(1358.94 698.56) rotate(-179.24) scale(1 -1)" xlink:href="#_Áåçûìÿííûé_ãðàäèåíò_271"/>
    <radialGradient id="_Áåçûìÿííûé_ãðàäèåíò_215-2" data-name="Áåçûìÿííûé ãðàäèåíò 215" cx="364.26" cy="425.61" fx="364.26" fy="425.61" r="50.43" xlink:href="#_Áåçûìÿííûé_ãðàäèåíò_215"/>
    <linearGradient id="_Áåçûìÿííûé_ãðàäèåíò_271-3" data-name="Áåçûìÿííûé ãðàäèåíò 271" x1="551.41" y1="-294.77" x2="648.56" y2="-371.65" gradientTransform="translate(941.92 682.25) rotate(-178.23) scale(1.18 -1)" xlink:href="#_Áåçûìÿííûé_ãðàäèåíò_271"/>
    <linearGradient id="_Áåçûìÿííûé_ãðàäèåíò_271-4" data-name="Áåçûìÿííûé ãðàäèåíò 271" x1="-1771.4" y1="-318.46" x2="-1762.75" y2="-325.3" xlink:href="#_Áåçûìÿííûé_ãðàäèåíò_271"/>
    <linearGradient id="_Áåçûìÿííûé_ãðàäèåíò_271-5" data-name="Áåçûìÿííûé ãðàäèåíò 271" x1="789.25" y1="-1818.85" x2="787.61" y2="-1875.45" gradientTransform="translate(1101.91 -1498.87) rotate(-179.24)" xlink:href="#_Áåçûìÿííûé_ãðàäèåíò_271"/>
    <radialGradient id="_Áåçûìÿííûé_ãðàäèåíò_42" data-name="Áåçûìÿííûé ãðàäèåíò 42" cx="243.29" cy="-2843.34" fx="243.29" fy="-2843.34" r="31.52" gradientTransform="translate(2490.17 405.46) rotate(95.11) scale(.75 -.76) skewX(1.5)" gradientUnits="userSpaceOnUse">
      <stop offset="0" stop-color="#fdb515"/>
      <stop offset="1" stop-color="#fdb72d"/>
    </radialGradient>
    <linearGradient id="_Áåçûìÿííûé_ãðàäèåíò_271-6" data-name="Áåçûìÿííûé ãðàäèåíò 271" x1="290.19" y1="294.56" x2="291.46" y2="324.82" gradientTransform="translate(642.02 49.43) rotate(90)" xlink:href="#_Áåçûìÿííûé_ãðàäèåíò_271"/>
    <linearGradient id="_Áåçûìÿííûé_ãðàäèåíò_271-7" data-name="Áåçûìÿííûé ãðàäèåíò 271" x1="118.4" y1="-2395.28" x2="127.03" y2="-2417.36" gradientTransform="translate(2636.52 497.05) rotate(95.79) scale(.83 -.96)" xlink:href="#_Áåçûìÿííûé_ãðàäèåíò_271"/>
    <radialGradient id="_Áåçûìÿííûé_ãðàäèåíò_42-2" data-name="Áåçûìÿííûé ãðàäèåíò 42" cx="-46.81" cy="780.92" fx="-46.81" fy="780.92" r="31.52" gradientTransform="translate(872.25 350.32) rotate(88.49) scale(.75 .79) skewX(.62)" xlink:href="#_Áåçûìÿííûé_ãðàäèåíò_42"/>
    <linearGradient id="_Áåçûìÿííûé_ãðàäèåíò_271-8" data-name="Áåçûìÿííûé ãðàäèåíò 271" x1="286.62" y1="409.88" x2="292.32" y2="365.17" gradientTransform="translate(642.02 49.43) rotate(90)" xlink:href="#_Áåçûìÿííûé_ãðàäèåíò_271"/>
    <linearGradient id="_Áåçûìÿííûé_ãðàäèåíò_271-9" data-name="Áåçûìÿííûé ãðàäèåíò 271" x1="-104.46" y1="344.59" x2="-95.8" y2="322.44" gradientTransform="translate(589.4 434.14) rotate(88.22) scale(.83 1)" xlink:href="#_Áåçûìÿííûé_ãðàäèåíò_271"/>
    <radialGradient id="_Áåçûìÿííûé_ãðàäèåíò_42-3" data-name="Áåçûìÿííûé ãðàäèåíò 42" cx="1438.67" cy="-152.43" fx="1438.67" fy="-152.43" r="31.33" gradientTransform="translate(1316.64 570.49) rotate(-176.51) scale(.72 -.91) skewX(-1.19)" xlink:href="#_Áåçûìÿííûé_ãðàäèåíò_42"/>
    <linearGradient id="_Áåçûìÿííûé_ãðàäèåíò_271-10" data-name="Áåçûìÿííûé ãðàäèåíò 271" x1="734.68" y1="-1904.79" x2="754.82" y2="-1956.29" gradientTransform="translate(1154.36 -1521.93) rotate(-176.61)" xlink:href="#_Áåçûìÿííûé_ãðàäèåíò_271"/>
    <linearGradient id="_Áåçûìÿííûé_ãðàäèåíò_271-11" data-name="Áåçûìÿííûé ãðàäèåíò 271" x1="931.64" y1="-246.72" x2="941.49" y2="-271.9" gradientTransform="translate(1133.23 677.87) rotate(-177.02) scale(.94 -1)" xlink:href="#_Áåçûìÿííûé_ãðàäèåíò_271"/>
    <linearGradient id="_Áåçûìÿííûé_ãðàäèåíò_271-12" data-name="Áåçûìÿííûé ãðàäèåíò 271" x1="877.83" y1="-261.34" x2="878.85" y2="-263.94" gradientTransform="translate(1133.23 677.87) rotate(-177.02) scale(.94 -1)" xlink:href="#_Áåçûìÿííûé_ãðàäèåíò_271"/>
    <linearGradient id="_Áåçûìÿííûé_ãðàäèåíò_271-13" data-name="Áåçûìÿííûé ãðàäèåíò 271" x1="-1731.66" y1="-242.74" x2="-1730.64" y2="-245.37" gradientTransform="translate(1877.34 721.77) rotate(3.79) scale(.94 1)" xlink:href="#_Áåçûìÿííûé_ãðàäèåíò_271"/>
    <linearGradient id="_Áåçûìÿííûé_ãðàäèåíò_271-14" data-name="Áåçûìÿííûé ãðàäèåíò 271" x1="722.01" y1="-1935.85" x2="722.09" y2="-1930.34" gradientTransform="translate(1154.36 -1521.93) rotate(-176.61)" xlink:href="#_Áåçûìÿííûé_ãðàäèåíò_271"/>
    <linearGradient id="_Áåçûìÿííûé_ãðàäèåíò_271-15" data-name="Áåçûìÿííûé ãðàäèåíò 271" x1="770.43" y1="-1940.03" x2="770.54" y2="-1932.13" gradientTransform="translate(1154.36 -1521.93) rotate(-176.61)" xlink:href="#_Áåçûìÿííûé_ãðàäèåíò_271"/>
    <linearGradient id="_Áåçûìÿííûé_ãðàäèåíò_271-16" data-name="Áåçûìÿííûé ãðàäèåíò 271" x1="326.82" y1="287.7" x2="295.2" y2="328.69" gradientTransform="translate(642.02 49.43) rotate(90)" xlink:href="#_Áåçûìÿííûé_ãðàäèåíò_271"/>
    <radialGradient id="_Áåçûìÿííûé_ãðàäèåíò_9" data-name="Áåçûìÿííûé ãðàäèåíò 9" cx="388.44" cy="394.36" fx="388.44" fy="394.36" r="28.42" gradientTransform="translate(714 1.18) rotate(90) scale(.91 .98)" gradientUnits="userSpaceOnUse">
      <stop offset=".02" stop-color="#4a466d"/>
      <stop offset=".99" stop-color="#4a345f"/>
    </radialGradient>
    <linearGradient id="_Áåçûìÿííûé_ãðàäèåíò_271-17" data-name="Áåçûìÿííûé ãðàäèåíò 271" x1="840.88" y1="-1312.48" x2="845.33" y2="-1347.38" gradientTransform="translate(774.9 -1177.76) rotate(164.01)" xlink:href="#_Áåçûìÿííûé_ãðàäèåíò_271"/>
    <linearGradient id="_Áåçûìÿííûé_ãðàäèåíò_271-18" data-name="Áåçûìÿííûé ãðàäèåíò 271" x1="864.34" y1="-1349.76" x2="865.7" y2="-1360.45" gradientTransform="translate(774.9 -1177.76) rotate(164.01)" xlink:href="#_Áåçûìÿííûé_ãðàäèåíò_271"/>
    <linearGradient id="_Áåçûìÿííûé_ãðàäèåíò_271-19" data-name="Áåçûìÿííûé ãðàäèåíò 271" x1="854.1" y1="-1327.04" x2="853.79" y2="-1321.47" gradientTransform="translate(774.9 -1177.76) rotate(164.01)" xlink:href="#_Áåçûìÿííûé_ãðàäèåíò_271"/>
    <linearGradient id="_Áåçûìÿííûé_ãðàäèåíò_271-20" data-name="Áåçûìÿííûé ãðàäèåíò 271" x1="270.4" y1="281.98" x2="308.06" y2="358.02" gradientTransform="translate(642.02 49.43) rotate(90)" xlink:href="#_Áåçûìÿííûé_ãðàäèåíò_271"/>
    <linearGradient id="_Áåçûìÿííûé_ãðàäèåíò_271-21" data-name="Áåçûìÿííûé ãðàäèåíò 271" x1="874.43" y1="-1376.97" x2="872.16" y2="-1335.67" gradientTransform="translate(774.9 -1177.76) rotate(164.01)" xlink:href="#_Áåçûìÿííûé_ãðàäèåíò_271"/>
    <linearGradient id="_Áåçûìÿííûé_ãðàäèåíò_271-22" data-name="Áåçûìÿííûé ãðàäèåíò 271" x1="300.62" y1="320.57" x2="303.89" y2="307.97" gradientTransform="translate(642.02 49.43) rotate(90)" xlink:href="#_Áåçûìÿííûé_ãðàäèåíò_271"/>
    <radialGradient id="_Áåçûìÿííûé_ãðàäèåíò_215-3" data-name="Áåçûìÿííûé ãðàäèåíò 215" cx="105.84" cy="747.79" fx="105.84" fy="747.79" r="120.15" gradientTransform="translate(-523.74 284.53) rotate(-90) scale(1.14 1.24)" xlink:href="#_Áåçûìÿííûé_ãðàäèåíò_215"/>
    <radialGradient id="_Áåçûìÿííûé_ãðàäèåíò_215-4" data-name="Áåçûìÿííûé ãðàäèåíò 215" cx="55.07" cy="729.83" fx="55.07" fy="729.83" r="67.09" gradientTransform="translate(-523.74 284.53) rotate(-90) scale(1.14 1.24)" xlink:href="#_Áåçûìÿííûé_ãðàäèåíò_215"/>
    <linearGradient id="_Áåçûìÿííûé_ãðàäèåíò_271-23" data-name="Áåçûìÿííûé ãðàäèåíò 271" x1="-123.74" y1="688.67" x2="130.76" y2="487.23" gradientTransform="translate(-207.44 205.54) rotate(-90)" xlink:href="#_Áåçûìÿííûé_ãðàäèåíò_271"/>
    <linearGradient id="_Áåçûìÿííûé_ãðàäèåíò_271-24" data-name="Áåçûìÿííûé ãðàäèåíò 271" x1="-37.05" y1="648.47" x2="95.43" y2="543.61" gradientTransform="translate(-207.44 205.54) rotate(-90)" xlink:href="#_Áåçûìÿííûé_ãðàäèåíò_271"/>
    <radialGradient id="_Áåçûìÿííûé_ãðàäèåíò_215-5" data-name="Áåçûìÿííûé ãðàäèåíò 215" cx="-1112.94" cy="718.04" fx="-1112.94" fy="718.04" r="67.1" gradientTransform="translate(-535.45 1384.74) rotate(91.1) scale(1.14 -1.24) skewX(-.18)" xlink:href="#_Áåçûìÿííûé_ãðàäèåíò_215"/>
    <linearGradient id="_Áåçûìÿííûé_ãðàäèåíò_271-25" data-name="Áåçûìÿííûé ãðàäèåíò 271" x1="-1157.73" y1="677.66" x2="-902.9" y2="475.97" gradientTransform="translate(-216.9 1171.38) rotate(91.01) scale(1 -1)" xlink:href="#_Áåçûìÿííûé_ãðàäèåíò_271"/>
    <linearGradient id="_Áåçûìÿííûé_ãðàäèåíò_271-26" data-name="Áåçûìÿííûé ãðàäèåíò 271" x1="-1071.01" y1="637.38" x2="-938.3" y2="532.34" gradientTransform="translate(-216.9 1171.38) rotate(91.01) scale(1 -1)" xlink:href="#_Áåçûìÿííûé_ãðàäèåíò_271"/>
    <linearGradient id="_Áåçûìÿííûé_ãðàäèåíò_271-27" data-name="Áåçûìÿííûé ãðàäèåíò 271" x1="67.02" y1="594.51" x2="110.09" y2="657.16" gradientTransform="translate(-207.44 205.54) rotate(-90)" xlink:href="#_Áåçûìÿííûé_ãðàäèåíò_271"/>
    <linearGradient id="_Áåçûìÿííûé_ãðàäèåíò_271-28" data-name="Áåçûìÿííûé ãðàäèåíò 271" x1="6.22" y1="568.66" x2="-47.25" y2="664.4" gradientTransform="translate(-207.44 205.54) rotate(-90)" xlink:href="#_Áåçûìÿííûé_ãðàäèåíò_271"/>
    <linearGradient id="_Áåçûìÿííûé_ãðàäèåíò_271-29" data-name="Áåçûìÿííûé ãðàäèåíò 271" x1="-92.39" y1="658.32" x2="-77.26" y2="658.32" gradientTransform="translate(-207.44 205.54) rotate(-90)" xlink:href="#_Áåçûìÿííûé_ãðàäèåíò_271"/>
    <linearGradient id="_Áåçûìÿííûé_ãðàäèåíò_271-30" data-name="Áåçûìÿííûé ãðàäèåíò 271" x1="-813.91" y1="658.63" x2="-802.09" y2="658.63" gradientTransform="translate(-207.44 868.5) rotate(90) scale(1 -1)" xlink:href="#_Áåçûìÿííûé_ãðàäèåíò_271"/>
    <radialGradient id="_Áåçûìÿííûé_ãðàäèåíò_42-4" data-name="Áåçûìÿííûé ãðàäèåíò 42" cx="1210.43" cy="-388.99" fx="1210.43" fy="-388.99" r="31.52" gradientTransform="translate(-790.54 -464.03) rotate(4.63) scale(1.02 -1.14) skewX(.92)" xlink:href="#_Áåçûìÿííûé_ãðàäèåíò_42"/>
    <linearGradient id="_Áåçûìÿííûé_ãðàäèåíò_271-31" data-name="Áåçûìÿííûé ãðàäèåíò 271" x1="-881.37" y1="608.11" x2="-853.06" y2="609.84" gradientTransform="translate(-207.44 946.46) rotate(90) scale(1 -1)" xlink:href="#_Áåçûìÿííûé_ãðàäèåíò_271"/>
    <linearGradient id="_Áåçûìÿííûé_ãðàäèåíò_271-32" data-name="Áåçûìÿííûé ãðàäèåíò 271" x1="1091.25" y1="-432.09" x2="1103.72" y2="-463.97" gradientTransform="translate(-423 -451.6) rotate(5.03) scale(.83 -1)" xlink:href="#_Áåçûìÿííûé_ãðàäèåíò_271"/>
    <radialGradient id="_Áåçûìÿííûé_ãðàäèåíò_42-5" data-name="Áåçûìÿííûé ãðàäèåíò 42" cx="1307.08" cy="-1317.18" fx="1307.08" fy="-1317.18" r="31.52" gradientTransform="translate(-790.54 1877.09) rotate(-4.63) scale(1.02 1.14) skewX(.92)" xlink:href="#_Áåçûìÿííûé_ãðàäèåíò_42"/>
    <linearGradient id="_Áåçûìÿííûé_ãðàäèåíò_271-33" data-name="Áåçûìÿííûé ãðàäèåíò 271" x1="-81.14" y1="605.91" x2="-52.83" y2="607.64" gradientTransform="translate(-207.44 205.54) rotate(-90)" xlink:href="#_Áåçûìÿííûé_ãðàäèåíò_271"/>
    <linearGradient id="_Áåçûìÿííûé_ãðàäèåíò_271-34" data-name="Áåçûìÿííûé ãðàäèåíò 271" x1="1173.45" y1="-1229.39" x2="1185.91" y2="-1261.28" gradientTransform="translate(-423 1603.6) rotate(-5.03) scale(.83 1)" xlink:href="#_Áåçûìÿííûé_ãðàäèåíò_271"/>
    <radialGradient id="_Áåçûìÿííûé_ãðàäèåíò_42-6" data-name="Áåçûìÿííûé ãðàäèåíò 42" cx="53.64" cy="775.3" fx="53.64" fy="775.3" r="31.41" gradientTransform="translate(-523.74 284.53) rotate(-90) scale(1.14 1.24)" xlink:href="#_Áåçûìÿííûé_ãðàäèåíò_42"/>
    <linearGradient id="_Áåçûìÿííûé_ãðàäèåíò_271-35" data-name="Áåçûìÿííûé ãðàäèåíò 271" x1="-28.95" y1="677.6" x2="-5.92" y2="618.7" gradientTransform="translate(-207.44 205.54) rotate(-90)" xlink:href="#_Áåçûìÿííûé_ãðàäèåíò_271"/>
    <linearGradient id="_Áåçûìÿííûé_ãðàäèåíò_271-36" data-name="Áåçûìÿííûé ãðàäèåíò 271" x1="19.74" y1="667.52" x2="33.31" y2="632.82" gradientTransform="translate(-207.44 205.54) rotate(-90)" xlink:href="#_Áåçûìÿííûé_ãðàäèåíò_271"/>
    <linearGradient id="_Áåçûìÿííûé_ãðàäèåíò_271-37" data-name="Áåçûìÿííûé ãðàäèåíò 271" x1="-46.5" y1="640.89" x2="-65.78" y2="623.82" gradientTransform="translate(-207.44 205.54) rotate(-90)" xlink:href="#_Áåçûìÿííûé_ãðàäèåíò_271"/>
    <linearGradient id="_Áåçûìÿííûé_ãðàäèåíò_271-38" data-name="Áåçûìÿííûé ãðàäèåíò 271" x1="-62.27" y1="646.53" x2="-60.92" y2="643.09" gradientTransform="translate(-207.44 205.54) rotate(-90)" xlink:href="#_Áåçûìÿííûé_ãðàäèåíò_271"/>
    <radialGradient id="_Áåçûìÿííûé_ãðàäèåíò_42-7" data-name="Áåçûìÿííûé ãðàäèåíò 42" cx="-1006.34" cy="778.13" fx="-1006.34" fy="778.13" r="31.41" gradientTransform="translate(-519.32 1280.67) rotate(89.56) scale(1.14 -1.24) skewX(.07)" xlink:href="#_Áåçûìÿííûé_ãðàäèåíò_42"/>
    <linearGradient id="_Áåçûìÿííûé_ãðàäèåíò_271-39" data-name="Áåçûìÿííûé ãðàäèåíò 271" x1="-958.45" y1="679.79" x2="-935.44" y2="620.95" gradientTransform="translate(-203.87 1080.02) rotate(89.59) scale(1 -1)" xlink:href="#_Áåçûìÿííûé_ãðàäèåíò_271"/>
    <linearGradient id="_Áåçûìÿííûé_ãðàäèåíò_271-40" data-name="Áåçûìÿííûé ãðàäèåíò 271" x1="-909.78" y1="669.77" x2="-896.21" y2="635.07" gradientTransform="translate(-203.87 1080.02) rotate(89.59) scale(1 -1)" xlink:href="#_Áåçûìÿííûé_ãðàäèåíò_271"/>
    <linearGradient id="_Áåçûìÿííûé_ãðàäèåíò_271-41" data-name="Áåçûìÿííûé ãðàäèåíò 271" x1="-976.02" y1="643.1" x2="-995.31" y2="626.02" gradientTransform="translate(-203.87 1080.02) rotate(89.59) scale(1 -1)" xlink:href="#_Áåçûìÿííûé_ãðàäèåíò_271"/>
    <linearGradient id="_Áåçûìÿííûé_ãðàäèåíò_271-42" data-name="Áåçûìÿííûé ãðàäèåíò 271" x1="-991.78" y1="648.73" x2="-990.44" y2="645.29" gradientTransform="translate(-203.87 1080.02) rotate(89.59) scale(1 -1)" xlink:href="#_Áåçûìÿííûé_ãðàäèåíò_271"/>
    <linearGradient id="_Áåçûìÿííûé_ãðàäèåíò_271-43" data-name="Áåçûìÿííûé ãðàäèåíò 271" x1="23.28" y1="645.41" x2="35.11" y2="636.04" gradientTransform="translate(-207.44 205.54) rotate(-90)" xlink:href="#_Áåçûìÿííûé_ãðàäèåíò_271"/>
    <linearGradient id="_Áåçûìÿííûé_ãðàäèåíò_271-44" data-name="Áåçûìÿííûé ãðàäèåíò 271" x1="501.07" y1="-1866.57" x2="467.28" y2="-1822.77" gradientTransform="translate(-654.63 1669.07) rotate(19.96)" xlink:href="#_Áåçûìÿííûé_ãðàäèåíò_271"/>
    <radialGradient id="_Áåçûìÿííûé_ãðàäèåíò_9-2" data-name="Áåçûìÿííûé ãðàäèåíò 9" cx="579.97" cy="-1940.21" fx="579.97" fy="-1940.21" r="29.58" gradientTransform="translate(-1077.23 1951.67) rotate(18.48) scale(1.23 1.15) skewX(-2.86)" xlink:href="#_Áåçûìÿííûé_ãðàäèåíò_9"/>
    <linearGradient id="_Áåçûìÿííûé_ãðàäèåíò_271-45" data-name="Áåçûìÿííûé ãðàäèåíò 271" x1="-1185.59" y1="-2054.7" x2="-1179.52" y2="-2102.26" gradientTransform="translate(-1762.73 1124.72) rotate(93.96)" xlink:href="#_Áåçûìÿííûé_ãðàäèåíò_271"/>
    <linearGradient id="_Áåçûìÿííûé_ãðàäèåíò_271-46" data-name="Áåçûìÿííûé ãðàäèåíò 271" x1="-1157.33" y1="-2105.88" x2="-1155.48" y2="-2120.4" gradientTransform="translate(-1762.73 1124.72) rotate(93.96)" xlink:href="#_Áåçûìÿííûé_ãðàäèåíò_271"/>
    <linearGradient id="_Áåçûìÿííûé_ãðàäèåíò_271-47" data-name="Áåçûìÿííûé ãðàäèåíò 271" x1="-1169.73" y1="-2074.82" x2="-1170.15" y2="-2067.22" gradientTransform="translate(-1762.73 1124.72) rotate(93.96)" xlink:href="#_Áåçûìÿííûé_ãðàäèåíò_271"/>
    <linearGradient id="_Áåçûìÿííûé_ãðàäèåíò_271-48" data-name="Áåçûìÿííûé ãðàäèåíò 271" x1="114.75" y1="639.23" x2="82.22" y2="589.38" gradientTransform="translate(-207.44 205.54) rotate(-90)" xlink:href="#_Áåçûìÿííûé_ãðàäèåíò_271"/>
    <linearGradient id="_Áåçûìÿííûé_ãðàäèåíò_271-49" data-name="Áåçûìÿííûé ãðàäèåíò 271" x1="-1143.8" y1="-2142.82" x2="-1146.89" y2="-2086.81" gradientTransform="translate(-1762.73 1124.72) rotate(93.96)" xlink:href="#_Áåçûìÿííûé_ãðàäèåíò_271"/>
    <linearGradient id="_Áåçûìÿííûé_ãðàäèåíò_271-50" data-name="Áåçûìÿííûé ãðàäèåíò 271" x1="468.55" y1="-1833.51" x2="471.97" y2="-1846.67" gradientTransform="translate(-654.63 1669.07) rotate(19.96)" xlink:href="#_Áåçûìÿííûé_ãðàäèåíò_271"/>
    <linearGradient id="_Áåçûìÿííûé_ãðàäèåíò_271-51" data-name="Áåçûìÿííûé ãðàäèåíò 271" x1="1010.69" y1="-462.99" x2="976.9" y2="-419.19" gradientTransform="translate(-654.63 175.39) rotate(-19.96) scale(1 -1)" xlink:href="#_Áåçûìÿííûé_ãðàäèåíò_271"/>
    <radialGradient id="_Áåçûìÿííûé_ãðàäèåíò_9-3" data-name="Áåçûìÿííûé ãðàäèåíò 9" cx="39.79" cy="739.93" fx="39.79" fy="739.93" r="31.29" gradientTransform="translate(-523.74 284.53) rotate(-90) scale(1.14 1.24)" xlink:href="#_Áåçûìÿííûé_ãðàäèåíò_9"/>
    <linearGradient id="_Áåçûìÿííûé_ãðàäèåíò_271-52" data-name="Áåçûìÿííûé ãðàäèåíò 271" x1="302.82" y1="-2158.06" x2="308.88" y2="-2205.62" gradientTransform="translate(-1762.73 719.73) rotate(-93.96) scale(1 -1)" xlink:href="#_Áåçûìÿííûé_ãðàäèåíò_271"/>
    <linearGradient id="_Áåçûìÿííûé_ãðàäèåíò_271-53" data-name="Áåçûìÿííûé ãðàäèåíò 271" x1="332.42" y1="-2209.07" x2="334.27" y2="-2223.59" gradientTransform="translate(-1762.73 719.73) rotate(-93.96) scale(1 -1)" xlink:href="#_Áåçûìÿííûé_ãðàäèåíò_271"/>
    <linearGradient id="_Áåçûìÿííûé_ãðàäèåíò_271-54" data-name="Áåçûìÿííûé ãðàäèåíò 271" x1="-2013.19" y1="-998.22" x2="-2010.07" y2="-1010.2" gradientTransform="translate(-1198.87 1818.3) rotate(162.4) scale(1 -1)" xlink:href="#_Áåçûìÿííûé_ãðàäèåíò_271"/>
    <linearGradient id="_Áåçûìÿííûé_ãðàäèåíò_271-55" data-name="Áåçûìÿííûé ãðàäèåíò 271" x1="-37.34" y1="630.26" x2="-33.47" y2="599.07" gradientTransform="translate(-207.44 205.54) rotate(-90)" xlink:href="#_Áåçûìÿííûé_ãðàäèåíò_271"/>
    <radialGradient id="_Áåçûìÿííûé_ãðàäèåíò_9-4" data-name="Áåçûìÿííûé ãðàäèåíò 9" cx="922.45" cy="-358.04" fx="922.45" fy="-358.04" r="62.22" gradientTransform="translate(311.6 869.27) rotate(-90) scale(.77 .79)" xlink:href="#_Áåçûìÿííûé_ãðàäèåíò_9"/>
    <linearGradient id="_Áåçûìÿííûé_ãðàäèåíò_8" data-name="Áåçûìÿííûé ãðàäèåíò 8" x1="946.52" y1="-362.04" x2="947.01" y2="-373.78" gradientTransform="translate(408.56 1108.48) rotate(-90)" gradientUnits="userSpaceOnUse">
      <stop offset="0" stop-color="#89bf89"/>
      <stop offset="1" stop-color="#31275d"/>
    </linearGradient>
    <linearGradient id="_Áåçûìÿííûé_ãðàäèåíò_8-2" data-name="Áåçûìÿííûé ãðàäèåíò 8" x1="951.86" y1="-380.72" x2="951.78" y2="-360.25" xlink:href="#_Áåçûìÿííûé_ãðàäèåíò_8"/>
    <radialGradient id="_Áåçûìÿííûé_ãðàäèåíò_10" data-name="Áåçûìÿííûé ãðàäèåíò 10" cx="930.99" cy="-337.03" fx="930.99" fy="-337.03" r="36.34" gradientTransform="translate(311.6 869.27) rotate(-90) scale(.77 .79)" gradientUnits="userSpaceOnUse">
      <stop offset=".02" stop-color="#7a74b6"/>
      <stop offset=".99" stop-color="#835aa5"/>
    </radialGradient>
    <radialGradient id="_Áåçûìÿííûé_ãðàäèåíò_10-2" data-name="Áåçûìÿííûé ãðàäèåíò 10" cx="925.06" cy="-371.29" fx="925.06" fy="-371.29" r="59.94" xlink:href="#_Áåçûìÿííûé_ãðàäèåíò_10"/>
    <linearGradient id="Orange_Yellow" data-name="Orange, Yellow" x1="192.48" y1="161.63" x2="336.45" y2="161.63" gradientUnits="userSpaceOnUse">
      <stop offset="0" stop-color="#fff33b"/>
      <stop offset=".04" stop-color="#fee62d"/>
      <stop offset=".12" stop-color="#fdd51b"/>
      <stop offset=".2" stop-color="#fdca0f"/>
      <stop offset=".28" stop-color="#fdc70c"/>
      <stop offset=".67" stop-color="#f3903f"/>
      <stop offset=".89" stop-color="#ed683c"/>
      <stop offset="1" stop-color="#e93e3a"/>
    </linearGradient>
    <linearGradient id="Orange_Yellow-2" data-name="Orange, Yellow" x1="190.45" y1="161.63" x2="334.43" y2="161.63" xlink:href="#Orange_Yellow"/>
    <linearGradient id="Orange_Yellow-3" data-name="Orange, Yellow" x1="202.83" y1="227.07" x2="231.52" y2="227.07" xlink:href="#Orange_Yellow"/>
    <linearGradient id="Orange_Yellow-4" data-name="Orange, Yellow" x1="191.21" y1="144.69" x2="225.06" y2="144.69" xlink:href="#Orange_Yellow"/>
    <linearGradient id="Orange_Yellow-5" data-name="Orange, Yellow" x1="239.29" y1="163.05" x2="276.51" y2="163.05" xlink:href="#Orange_Yellow"/>
    <linearGradient id="Orange_Yellow-6" data-name="Orange, Yellow" x1="260.44" y1="156.82" x2="302.18" y2="156.82" xlink:href="#Orange_Yellow"/>
    <linearGradient id="Orange_Yellow-7" data-name="Orange, Yellow" x1="203.45" y1="160.62" x2="320.94" y2="160.62" xlink:href="#Orange_Yellow"/>
    <linearGradient id="Orange_Yellow-8" data-name="Orange, Yellow" x1="206.85" y1="160.62" x2="319.15" y2="160.62" xlink:href="#Orange_Yellow"/>
    <linearGradient id="Orange_Yellow-9" data-name="Orange, Yellow" x1="228.3" y1="213.92" x2="317.57" y2="213.92" xlink:href="#Orange_Yellow"/>
    <linearGradient id="Orange_Yellow-10" data-name="Orange, Yellow" x1="207.16" y1="169.43" x2="254.22" y2="169.43" xlink:href="#Orange_Yellow"/>
    <linearGradient id="Orange_Yellow-11" data-name="Orange, Yellow" x1="207.8" y1="190.37" x2="319.15" y2="190.37" xlink:href="#Orange_Yellow"/>
    <linearGradient id="Orange_Yellow-12" data-name="Orange, Yellow" x1="207.77" y1="117.47" x2="317.12" y2="117.47" xlink:href="#Orange_Yellow"/>
    <linearGradient id="Orange_Yellow-13" data-name="Orange, Yellow" x1="237.13" y1="74.96" x2="281.17" y2="74.96" xlink:href="#Orange_Yellow"/>
    <radialGradient id="_Áåçûìÿííûé_ãðàäèåíò_27" data-name="Áåçûìÿííûé ãðàäèåíò 27" cx="929.92" cy="-272.47" fx="929.92" fy="-272.47" r="103.14" gradientTransform="translate(311.6 869.27) rotate(-90) scale(.77 .79)" gradientUnits="userSpaceOnUse">
      <stop offset="0" stop-color="#d7dcdf"/>
      <stop offset=".96" stop-color="#dccbd5"/>
    </radialGradient>
    <linearGradient id="_Áåçûìÿííûé_ãðàäèåíò_35" data-name="Áåçûìÿííûé ãðàäèåíò 35" x1="887.09" y1="-342.67" x2="887.23" y2="-345.36" gradientTransform="translate(408.56 1108.48) rotate(-90)" gradientUnits="userSpaceOnUse">
      <stop offset=".01" stop-color="#fff"/>
      <stop offset=".13" stop-color="#efe9ef"/>
      <stop offset=".38" stop-color="#c6b3c7"/>
      <stop offset=".73" stop-color="#855d87"/>
      <stop offset=".98" stop-color="#531a56"/>
    </linearGradient>
    <linearGradient id="_Áåçûìÿííûé_ãðàäèåíò_35-2" data-name="Áåçûìÿííûé ãðàäèåíò 35" x1="913.49" y1="-327.45" x2="913.64" y2="-330.41" xlink:href="#_Áåçûìÿííûé_ãðàäèåíò_35"/>
    <linearGradient id="_Áåçûìÿííûé_ãðàäèåíò_35-3" data-name="Áåçûìÿííûé ãðàäèåíò 35" x1="994.07" y1="-328.67" x2="994.2" y2="-331.22" xlink:href="#_Áåçûìÿííûé_ãðàäèåíò_35"/>
    <linearGradient id="_Áåçûìÿííûé_ãðàäèåíò_35-4" data-name="Áåçûìÿííûé ãðàäèåíò 35" x1="946.53" y1="-333.28" x2="946.77" y2="-337.94" xlink:href="#_Áåçûìÿííûé_ãðàäèåíò_35"/>
    <linearGradient id="_Áåçûìÿííûé_ãðàäèåíò_35-5" data-name="Áåçûìÿííûé ãðàäèåíò 35" x1="993.27" y1="-350.75" x2="993.39" y2="-353.03" xlink:href="#_Áåçûìÿííûé_ãðàäèåíò_35"/>
    <linearGradient id="_Áåçûìÿííûé_ãðàäèåíò_35-6" data-name="Áåçûìÿííûé ãðàäèåíò 35" x1="965.73" y1="-342.96" x2="965.95" y2="-347.08" xlink:href="#_Áåçûìÿííûé_ãðàäèåíò_35"/>
    <linearGradient id="_Áåçûìÿííûé_ãðàäèåíò_35-7" data-name="Áåçûìÿííûé ãðàäèåíò 35" x1="948.88" y1="-319.68" x2="966.95" y2="-336.03" xlink:href="#_Áåçûìÿííûé_ãðàäèåíò_35"/>
    <linearGradient id="_Áåçûìÿííûé_ãðàäèåíò_35-8" data-name="Áåçûìÿííûé ãðàäèåíò 35" x1="857.02" y1="-328.51" x2="875.26" y2="-345.02" xlink:href="#_Áåçûìÿííûé_ãðàäèåíò_35"/>
    <linearGradient id="_Áåçûìÿííûé_ãðàäèåíò_35-9" data-name="Áåçûìÿííûé ãðàäèåíò 35" x1="938.72" y1="-339.81" x2="947.94" y2="-348.14" xlink:href="#_Áåçûìÿííûé_ãðàäèåíò_35"/>
    <linearGradient id="_Áåçûìÿííûé_ãðàäèåíò_35-10" data-name="Áåçûìÿííûé ãðàäèåíò 35" x1="1009.07" y1="-337.16" x2="1025.07" y2="-337.16" xlink:href="#_Áåçûìÿííûé_ãðàäèåíò_35"/>
    <radialGradient id="_Áåçûìÿííûé_ãðàäèåíò_42-8" data-name="Áåçûìÿííûé ãðàäèåíò 42" cx="5.44" cy="156.69" fx="5.44" fy="156.69" r="34.92" gradientTransform="translate(160.5 8.33) rotate(64.21) scale(.77 .79) skewX(-1.6)" xlink:href="#_Áåçûìÿííûé_ãðàäèåíò_42"/>
    <linearGradient id="_Áåçûìÿííûé_ãðàäèåíò_271-56" data-name="Áåçûìÿííûé ãðàäèåíò 271" x1="3.43" y1="164.23" x2="1.05" y2="149.54" gradientTransform="translate(218.16 -15.71) rotate(65)" xlink:href="#_Áåçûìÿííûé_ãðàäèåíò_271"/>
    <linearGradient id="_Áåçûìÿííûé_ãðàäèåíò_271-57" data-name="Áåçûìÿííûé ãðàäèåíò 271" x1="-6.12" y1="231.29" x2="1.52" y2="174.39" gradientTransform="translate(232.76 78.99) rotate(100.04)" xlink:href="#_Áåçûìÿííûé_ãðàäèåíò_271"/>
    <linearGradient id="_Áåçûìÿííûé_ãðàäèåíò_67" data-name="Áåçûìÿííûé ãðàäèåíò 67" x1="5.1" y1="137.5" x2="30.32" y2="137.5" gradientTransform="translate(218.16 -15.71) rotate(65)" gradientUnits="userSpaceOnUse">
      <stop offset="0" stop-color="#7b8736"/>
      <stop offset="1" stop-color="#527033"/>
    </linearGradient>
    <linearGradient id="_Áåçûìÿííûé_ãðàäèåíò_67-2" data-name="Áåçûìÿííûé ãðàäèåíò 67" x1="6.89" y1="144.98" x2="24.53" y2="144.98" xlink:href="#_Áåçûìÿííûé_ãðàäèåíò_67"/>
    <linearGradient id="_Áåçûìÿííûé_ãðàäèåíò_67-3" data-name="Áåçûìÿííûé ãðàäèåíò 67" x1="-1900.94" y1="-779.68" x2="-1883.59" y2="-779.68" gradientTransform="translate(1679.52 -2492.47) rotate(-72.8) scale(1.53 1)" xlink:href="#_Áåçûìÿííûé_ãðàäèåíò_67"/>
    <linearGradient id="_Áåçûìÿííûé_ãðàäèåíò_67-4" data-name="Áåçûìÿííûé ãðàäèåíò 67" x1="-19.77" y1="98.07" x2="-12.78" y2="98.07" xlink:href="#_Áåçûìÿííûé_ãðàäèåíò_67"/>
    <linearGradient id="_Áåçûìÿííûé_ãðàäèåíò_67-5" data-name="Áåçûìÿííûé ãðàäèåíò 67" x1="-10.43" y1="109.99" x2="-5.04" y2="109.99" xlink:href="#_Áåçûìÿííûé_ãðàäèåíò_67"/>
    <linearGradient id="_Áåçûìÿííûé_ãðàäèåíò_67-6" data-name="Áåçûìÿííûé ãðàäèåíò 67" x1="-30.78" y1="113.74" x2="-12.8" y2="113.74" xlink:href="#_Áåçûìÿííûé_ãðàäèåíò_67"/>
    <linearGradient id="_Áåçûìÿííûé_ãðàäèåíò_67-7" data-name="Áåçûìÿííûé ãðàäèåíò 67" x1="-5.31" y1="115.37" x2="7.68" y2="115.37" xlink:href="#_Áåçûìÿííûé_ãðàäèåíò_67"/>
    <linearGradient id="_Áåçûìÿííûé_ãðàäèåíò_67-8" data-name="Áåçûìÿííûé ãðàäèåíò 67" x1="-.34" y1="135.75" x2="6.82" y2="135.75" xlink:href="#_Áåçûìÿííûé_ãðàäèåíò_67"/>
    <linearGradient id="_Áåçûìÿííûé_ãðàäèåíò_67-9" data-name="Áåçûìÿííûé ãðàäèåíò 67" x1="-36.13" y1="127.33" x2="-8.49" y2="127.33" xlink:href="#_Áåçûìÿííûé_ãðàäèåíò_67"/>
    <linearGradient id="_Áåçûìÿííûé_ãðàäèåíò_67-10" data-name="Áåçûìÿííûé ãðàäèåíò 67" x1="-25.16" y1="135.3" x2="-3.32" y2="135.3" xlink:href="#_Áåçûìÿííûé_ãðàäèåíò_67"/>
    <linearGradient id="_Áåçûìÿííûé_ãðàäèåíò_67-11" data-name="Áåçûìÿííûé ãðàäèåíò 67" x1="-25.61" y1="-1994.98" x2="-17.83" y2="-1994.98" gradientTransform="translate(1514.27 -601.19) rotate(65.31) scale(1 -.81)" xlink:href="#_Áåçûìÿííûé_ãðàäèåíò_67"/>
    <linearGradient id="_Áåçûìÿííûé_ãðàäèåíò_67-12" data-name="Áåçûìÿííûé ãðàäèåíò 67" x1="-136.4" y1="-2489.5" x2="-131.62" y2="-2489.5" gradientTransform="translate(1448.75 -670.2) rotate(57.6) scale(1 -.63)" xlink:href="#_Áåçûìÿííûé_ãðàäèåíò_67"/>
    <linearGradient id="_Áåçûìÿííûé_ãðàäèåíò_67-13" data-name="Áåçûìÿííûé ãðàäèåíò 67" x1="-400.66" y1="-2765.61" x2="-395.87" y2="-2765.61" gradientTransform="translate(1545.12 -931.42) rotate(43.4) scale(1 -.63)" xlink:href="#_Áåçûìÿííûé_ãðàäèåíò_67"/>
    <linearGradient id="_Áåçûìÿííûé_ãðàäèåíò_67-14" data-name="Áåçûìÿííûé ãðàäèåíò 67" x1="-157.15" y1="-2486.32" x2="-138.78" y2="-2486.32" gradientTransform="translate(1448.75 -670.2) rotate(57.6) scale(1 -.63)" xlink:href="#_Áåçûìÿííûé_ãðàäèåíò_67"/>
    <linearGradient id="_Áåçûìÿííûé_ãðàäèåíò_67-15" data-name="Áåçûìÿííûé ãðàäèåíò 67" x1="108.85" y1="-2051.7" x2="121.19" y2="-2051.7" gradientTransform="translate(1271.49 -419.15) rotate(73.39) scale(1 -.63)" xlink:href="#_Áåçûìÿííûé_ãðàäèåíò_67"/>
    <linearGradient id="_Áåçûìÿííûé_ãðàäèåíò_67-16" data-name="Áåçûìÿííûé ãðàäèåíò 67" x1="-125.72" y1="-2463.38" x2="-118.89" y2="-2463.38" gradientTransform="translate(1448.75 -670.2) rotate(57.6) scale(1 -.63)" xlink:href="#_Áåçûìÿííûé_ãðàäèåíò_67"/>
    <linearGradient id="_Áåçûìÿííûé_ãðàäèåíò_67-17" data-name="Áåçûìÿííûé ãðàäèåíò 67" x1="-162.18" y1="-2472.75" x2="-134.15" y2="-2472.75" gradientTransform="translate(1448.75 -670.2) rotate(57.6) scale(1 -.63)" xlink:href="#_Áåçûìÿííûé_ãðàäèåíò_67"/>
    <linearGradient id="_Áåçûìÿííûé_ãðàäèåíò_67-18" data-name="Áåçûìÿííûé ãðàäèåíò 67" x1="-150.95" y1="-2464.52" x2="-128.79" y2="-2464.52" gradientTransform="translate(1448.75 -670.2) rotate(57.6) scale(1 -.63)" xlink:href="#_Áåçûìÿííûé_ãðàäèåíò_67"/>
    <linearGradient id="_Áåçûìÿííûé_ãðàäèåíò_271-58" data-name="Áåçûìÿííûé ãðàäèåíò 271" x1="83.92" y1="310.55" x2="81.52" y2="295.74" gradientTransform="matrix(1, 0, 0, 1, 0, 0)" xlink:href="#_Áåçûìÿííûé_ãðàäèåíò_271"/>
    <linearGradient id="_Áåçûìÿííûé_ãðàäèåíò_271-59" data-name="Áåçûìÿííûé ãðàäèåíò 271" x1="74.54" y1="375.92" x2="82.04" y2="320.03" gradientTransform="matrix(1, 0, 0, 1, 0, 0)" xlink:href="#_Áåçûìÿííûé_ãðàäèåíò_271"/>
    <linearGradient id="_Áåçûìÿííûé_ãðàäèåíò_5" data-name="Áåçûìÿííûé ãðàäèåíò 5" x1="-546.19" y1="600.61" x2="-541.23" y2="607.4" gradientTransform="translate(322.02 -492.98) rotate(-22.64)" gradientUnits="userSpaceOnUse">
      <stop offset="0" stop-color="#63662b"/>
      <stop offset="1" stop-color="#424f22"/>
    </linearGradient>
    <linearGradient id="_Áåçûìÿííûé_ãðàäèåíò_67-19" data-name="Áåçûìÿííûé ãðàäèåíò 67" x1="-517.84" y1="673.66" x2="-551.38" y2="643.8" gradientTransform="translate(322.02 -492.98) rotate(-22.64)" xlink:href="#_Áåçûìÿííûé_ãðàäèåíò_67"/>
    <linearGradient id="_Áåçûìÿííûé_ãðàäèåíò_67-20" data-name="Áåçûìÿííûé ãðàäèåíò 67" x1="-497.81" y1="654.36" x2="-532.18" y2="623.75" gradientTransform="translate(322.02 -492.98) rotate(-22.64)" xlink:href="#_Áåçûìÿííûé_ãðàäèåíò_67"/>
    <linearGradient id="_Áåçûìÿííûé_ãðàäèåíò_271-60" data-name="Áåçûìÿííûé ãðàäèåíò 271" x1="-533.66" y1="616.16" x2="-527.97" y2="639.76" gradientTransform="translate(322.02 -492.98) rotate(-22.64)" xlink:href="#_Áåçûìÿííûé_ãðàäèåíò_271"/>
    <linearGradient id="_Áåçûìÿííûé_ãðàäèåíò_5-2" data-name="Áåçûìÿííûé ãðàäèåíò 5" x1="-563.52" y1="600.07" x2="-557.5" y2="608.3" xlink:href="#_Áåçûìÿííûé_ãðàäèåíò_5"/>
    <linearGradient id="_Áåçûìÿííûé_ãðàäèåíò_67-21" data-name="Áåçûìÿííûé ãðàäèåíò 67" x1="-510.34" y1="669.81" x2="-543.35" y2="640.42" gradientTransform="translate(322.02 -492.98) rotate(-22.64)" xlink:href="#_Áåçûìÿííûé_ãðàäèåíò_67"/>
    <linearGradient id="_Áåçûìÿííûé_ãðàäèåíò_5-3" data-name="Áåçûìÿííûé ãðàäèåíò 5" x1="-510.76" y1="665.33" x2="-540.5" y2="638.86" xlink:href="#_Áåçûìÿííûé_ãðàäèåíò_5"/>
    <linearGradient id="_Áåçûìÿííûé_ãðàäèåíò_67-22" data-name="Áåçûìÿííûé ãðàäèåíò 67" x1="91.88" y1="346.35" x2="79.41" y2="309.18" gradientTransform="matrix(1, 0, 0, 1, 0, 0)" xlink:href="#_Áåçûìÿííûé_ãðàäèåíò_67"/>
    <linearGradient id="_Áåçûìÿííûé_ãðàäèåíò_67-23" data-name="Áåçûìÿííûé ãðàäèåíò 67" x1="134.28" y1="322.23" x2="25.05" y2="284.55" gradientTransform="matrix(1, 0, 0, 1, 0, 0)" xlink:href="#_Áåçûìÿííûé_ãðàäèåíò_67"/>
    <linearGradient id="_Áåçûìÿííûé_ãðàäèåíò_67-24" data-name="Áåçûìÿííûé ãðàäèåíò 67" x1="-2434.63" y1="113.93" x2="-2541.82" y2="76.95" gradientTransform="translate(-149.29 -2169.11) rotate(-92.98)" xlink:href="#_Áåçûìÿííûé_ãðàäèåíò_67"/>
    <linearGradient id="_Áåçûìÿííûé_ãðàäèåíò_52" data-name="Áåçûìÿííûé ãðàäèåíò 52" x1="199.83" y1="508.59" x2="196" y2="500.89" gradientTransform="translate(192.75 777.74) rotate(-27.92) scale(1 -1)" gradientUnits="userSpaceOnUse">
      <stop offset=".01" stop-color="#f9f06f"/>
      <stop offset=".14" stop-color="#e8da6c"/>
      <stop offset=".4" stop-color="#bea466"/>
      <stop offset=".77" stop-color="#7b4e5c"/>
      <stop offset=".98" stop-color="#531a56"/>
    </linearGradient>
    <linearGradient id="_Áåçûìÿííûé_ãðàäèåíò_52-2" data-name="Áåçûìÿííûé ãðàäèåíò 52" x1="205.11" y1="506.02" x2="201.27" y2="498.3" xlink:href="#_Áåçûìÿííûé_ãðàäèåíò_52"/>
    <linearGradient id="_Áåçûìÿííûé_ãðàäèåíò_271-61" data-name="Áåçûìÿííûé ãðàäèåíò 271" x1="197.62" y1="505.79" x2="197.55" y2="484.8" gradientTransform="translate(192.75 777.74) rotate(-27.92) scale(1 -1)" xlink:href="#_Áåçûìÿííûé_ãðàäèåíò_271"/>
    <radialGradient id="_Áåçûìÿííûé_ãðàäèåíò_27-2" data-name="Áåçûìÿííûé ãðàäèåíò 27" cx="220.29" cy="428.34" fx="220.29" fy="428.34" r="4.53" gradientTransform="translate(140.34 615.98) rotate(-27.08) scale(.79 -.77) skewX(-1.65)" xlink:href="#_Áåçûìÿííûé_ãðàäèåíò_27"/>
    <linearGradient id="_Áåçûìÿííûé_ãðàäèåíò_52-3" data-name="Áåçûìÿííûé ãðàäèåíò 52" x1="67.62" y1="728.05" x2="63.79" y2="720.37" gradientTransform="translate(-105.33 786.83) rotate(-155.75)" xlink:href="#_Áåçûìÿííûé_ãðàäèåíò_52"/>
    <linearGradient id="_Áåçûìÿííûé_ãðàäèåíò_52-4" data-name="Áåçûìÿííûé ãðàäèåíò 52" x1="72.91" y1="725.5" x2="69.07" y2="717.77" gradientTransform="translate(-105.33 786.83) rotate(-155.75)" xlink:href="#_Áåçûìÿííûé_ãðàäèåíò_52"/>
    <linearGradient id="_Áåçûìÿííûé_ãðàäèåíò_271-62" data-name="Áåçûìÿííûé ãðàäèåíò 271" x1="65.4" y1="725.21" x2="65.32" y2="704.3" gradientTransform="translate(-105.33 786.83) rotate(-155.75)" xlink:href="#_Áåçûìÿííûé_ãðàäèåíò_271"/>
    <radialGradient id="_Áåçûìÿííûé_ãðàäèåíò_27-3" data-name="Áåçûìÿííûé ãðàäèåíò 27" cx="18.21" cy="729.49" fx="18.21" fy="729.49" r="4.53" gradientTransform="translate(-96.2 622.94) rotate(-156.51) scale(.79 .77) skewX(-1.49)" xlink:href="#_Áåçûìÿííûé_ãðàäèåíò_27"/>
    <radialGradient id="_Áåçûìÿííûé_ãðàäèåíò_27-4" data-name="Áåçûìÿííûé ãðàäèåíò 27" cx="184.23" cy="205.21" fx="184.23" fy="205.21" r="41.96" gradientTransform="translate(-12.61 20.37) scale(.79 .77)" xlink:href="#_Áåçûìÿííûé_ãðàäèåíò_27"/>
    <linearGradient id="_Áåçûìÿííûé_ãðàäèåíò_35-11" data-name="Áåçûìÿííûé ãðàäèåíò 35" x1="100.5" y1="206.2" x2="161.05" y2="188.82" gradientTransform="matrix(1, 0, 0, 1, 0, 0)" xlink:href="#_Áåçûìÿííûé_ãðàäèåíò_35"/>
    <linearGradient id="_Áåçûìÿííûé_ãðàäèåíò_35-12" data-name="Áåçûìÿííûé ãðàäèåíò 35" x1="99.21" y1="173.79" x2="109.58" y2="170.81" gradientTransform="matrix(1, 0, 0, 1, 0, 0)" xlink:href="#_Áåçûìÿííûé_ãðàäèåíò_35"/>
    <linearGradient id="_Áåçûìÿííûé_ãðàäèåíò_35-13" data-name="Áåçûìÿííûé ãðàäèåíò 35" x1="92.72" y1="178.33" x2="151.17" y2="161.55" gradientTransform="matrix(1, 0, 0, 1, 0, 0)" xlink:href="#_Áåçûìÿííûé_ãðàäèåíò_35"/>
    <linearGradient id="_Áåçûìÿííûé_ãðàäèåíò_35-14" data-name="Áåçûìÿííûé ãðàäèåíò 35" x1="95.33" y1="189.58" x2="154.74" y2="172.52" gradientTransform="matrix(1, 0, 0, 1, 0, 0)" xlink:href="#_Áåçûìÿííûé_ãðàäèåíò_35"/>
    <linearGradient id="_Áåçûìÿííûé_ãðàäèåíò_35-15" data-name="Áåçûìÿííûé ãðàäèåíò 35" x1="100.86" y1="155.17" x2="135.67" y2="145.17" gradientTransform="matrix(1, 0, 0, 1, 0, 0)" xlink:href="#_Áåçûìÿííûé_ãðàäèåíò_35"/>
    <linearGradient id="_Áåçûìÿííûé_ãðàäèåíò_35-16" data-name="Áåçûìÿííûé ãðàäèåíò 35" x1="110.02" y1="158.64" x2="143.27" y2="149.09" gradientTransform="matrix(1, 0, 0, 1, 0, 0)" xlink:href="#_Áåçûìÿííûé_ãðàäèåíò_35"/>
    <linearGradient id="_Áåçûìÿííûé_ãðàäèåíò_35-17" data-name="Áåçûìÿííûé ãðàäèåíò 35" x1="147.54" y1="233.56" x2="140.72" y2="216.06" gradientTransform="matrix(1, 0, 0, 1, 0, 0)" xlink:href="#_Áåçûìÿííûé_ãðàäèåíò_35"/>
    <linearGradient id="_Áåçûìÿííûé_ãðàäèåíò_35-18" data-name="Áåçûìÿííûé ãðàäèåíò 35" x1="169.32" y1="223.1" x2="162.73" y2="206.18" gradientTransform="matrix(1, 0, 0, 1, 0, 0)" xlink:href="#_Áåçûìÿííûé_ãðàäèåíò_35"/>
    <linearGradient id="_Áåçûìÿííûé_ãðàäèåíò_35-19" data-name="Áåçûìÿííûé ãðàäèåíò 35" x1="131.61" y1="237.7" x2="124.86" y2="220.39" gradientTransform="matrix(1, 0, 0, 1, 0, 0)" xlink:href="#_Áåçûìÿííûé_ãðàäèåíò_35"/>
    <linearGradient id="_Áåçûìÿííûé_ãðàäèåíò_35-20" data-name="Áåçûìÿííûé ãðàäèåíò 35" x1="173.86" y1="220.95" x2="167.2" y2="203.84" gradientTransform="matrix(1, 0, 0, 1, 0, 0)" xlink:href="#_Áåçûìÿííûé_ãðàäèåíò_35"/>
  </defs>
  <g class="cls-117">
    <g id="Layer_1" data-name="Layer 1">
      <rect class="cls-104" y="61.82" width="476.13" height="206.77"/>
      <g>
        <g>
          <path class="cls-152" d="m336.02,306.47c.3,1.02-3.1,7.93-3.1,7.93l-74.92-2.42-5.36-6.82-11,10.44,99.3,2.82.11-8.65-5.02-3.3Z"/>
          <path class="cls-105" d="m343.67,314.39l-6.98-5.11s-9.54-6.33-38.47-7.76c-28.93-1.43-44.22,4.04-44.22,4.04l-4.88,8.67,94.56.16Z"/>
          <g>
            <path class="cls-143" d="m352.71,313.71c3.91,3.62-3.8,70.58-3.8,70.58,0,0-11.85,7.87-55.19,6.76-45.2-1.15-56.15-10.01-56.15-10.01,0,0-5.72-68.49-1.06-69.13,5.95-.81,112.3-1.83,116.2,1.78Z"/>
            <path class="cls-50" d="m241.67,311.66l.87,60.59s11.94,8.29,52.93,7.97c38.25-.3,48.38-4.57,48.38-4.57l2.37-62.29-24.83-2.82-79.73,1.11Z"/>
            <path class="cls-34" d="m237.56,381.05c2.85-.39,10.45-15.64,10.45-15.64l-10.67,12.89.22,2.74Z"/>
            <path class="cls-43" d="m348.95,384.11c-2.84-.47-9.91-15.14-9.91-15.14l10.19,12.41-.29,2.73Z"/>
          </g>
          <g>
            <path class="cls-116" d="m249.63,349.17c.02,1,.04,1.97.07,2.9v.04c.17,6.96.49,12.08,1,12.62,1.72,1.84,81.88,2.16,81.88,2.16,0,0,5.72-50.48,2.95-55.16-.29-.48-17.81-4.26-38.11-5.29-21.57-1.1-46,.57-46.71.72-.21.04-.32.09-.36.14-.2.32-.37,3.03-.51,7.12h0c-.29,8.65-.41,23.43-.2,34.75Z"/>
            <path class="cls-95" d="m245.56,349.11l.18-1.55c.51-14.81,2.61-35.96,2.85-38.4-.53-.52-1.2-1.21-1.94-2.06-.21.04-.34.09-.37.14-.21.32-.39,3.03-.53,7.12h0c-.3,8.65-.41,23.43-.19,34.75Z"/>
          </g>
          <path class="cls-58" d="m259,360.84l-.1,3.72-.2-3.33c.09-.1.19-.23.29-.39Z"/>
          <path class="cls-24" d="m325.41,311.23s-7.04,35.97-11.37,40.24c-4.32,4.27-24.02,5.26-24.02,5.26,0,0-20.86-1.06-24.85-4.68-3.99-3.62-7.09-40.83-7.09-40.83l-5.59,56.68,73.92.13-1.02-56.79Z"/>
          <polygon class="cls-105" points="352.71 313.71 340.61 306.71 336.02 306.47 342.27 313.18 352.71 313.71"/>
          <polygon class="cls-105" points="235.79 311.92 248.06 305.26 252.64 305.16 246.24 311.69 235.79 311.92"/>
          <g>
            <path class="cls-109" d="m322.02,369.76c14.97,1.73,14.73,1.51,15.41,1.56h.05c1.15.08,2,.12,2.37.09.27-.02.59-.92.93-2.49,2.09-9.61,5.06-44.44,3.59-58.87l-3.86-1.45-.73-.15-13.16,2.78c-6.37,19.46-4.98,51.47-4.65,57.52.03.57.05.91.06.99v.02Z"/>
            <path class="cls-82" d="m322.02,369.76c14.97,1.73,14.73,1.51,15.41,1.56h.05s2.37.09,2.37.09l-4.54-1.93s1.63-30.32,5.2-60.88l-.73-.15-13.16,2.78c-6.37,19.46-4.98,51.47-4.65,57.52,0,.08.01.16.01.24,0,.1.01.18.01.26,0,.17.02.3.02.38,0,.05,0,.09,0,.1v.02Z"/>
            <path class="cls-13" d="m322.02,369.76c14.97,1.73,14.73,1.51,15.41,1.56h.05c1.15.08,2,.12,2.37.09l-4.54-1.93c-2.17.61-11.39-2.09-13.67-8.8,0,.08.34,8.23.34,8.31,0,.1.01.18.01.26,0,.17.02.3.02.38,0,.05,0,.09,0,.1v.02Z"/>
          </g>
          <g>
            <path class="cls-103" d="m264,369.13c-15.7.58-15.45.38-16.15.38h-.05c-1.2,0-2.09-.04-2.47-.1-.28-.04-.55-.96-.8-2.55-1.54-9.74-2.31-44.73.18-59.01l4.12-1.15.77-.09,13.52,3.79c5.34,19.9,1.76,51.73,1.02,57.74-.07.57-.12.91-.13.98v.02Z"/>
            <path class="cls-62" d="m264,369.13c-15.7.58-15.45.38-16.15.38h-.05s-2.47-.1-2.47-.1l4.86-1.58s.32-30.37-1.37-61.14l.77-.09,13.52,3.79c5.34,19.9,1.76,51.73,1.02,57.74-.01.08-.02.16-.03.24-.01.1-.03.18-.03.26-.02.17-.04.29-.05.38,0,.05-.01.09-.01.1v.02Z"/>
            <path class="cls-21" d="m264,369.13c-15.7.58-15.45.38-16.15.38h-.05c-1.2,0-2.09-.04-2.47-.1l4.86-1.58c2.22.77,12.74-1.03,15.2-12.4-.01.08-1.29,12.86-1.29,12.94-.01.1-.03.18-.03.26-.02.17-.04.29-.05.38,0,.05-.01.09-.01.1v.02Z"/>
          </g>
          <g>
            <g>
              <path class="cls-137" d="m266.02,358.05s-1.51,12.63-1.57,18.61v.05c-.01,1.38,0,2.4.05,2.83.04.32.91.66,2.43.99,9.29,2.04,42.74,3.91,56.43,1.45l1.2-10.9.1-.88-3.44-9.38c-18.95-6.68-48.49-3.59-54.24-2.91-.54.07-.87.11-.94.12h-.02Z"/>
              <path class="cls-33" d="m266.01,358.04h.02s.05-.01.1-.02c.02,0,.05,0,.08,0,.07,0,.16-.02.28-.04.08,0,.16-.01.25-.03.07,0,.15-.01.23-.02,1.55-.18,4.77-.54,9.05-.83,8.96-.61,22.5-.93,34.77,1.15,1.49.25,2.96.54,4.39.87h0c1.04.24,2.06.5,3.07.78.98.27,1.95.58,2.88.9.03.01.06.02.09.03l2.36,6.45,1.07,2.94-.07.65-.02.23c-29.4-2.8-57.84-2.5-57.84-2.5l-2.22,10.96-.05-2.84v-.05c.07-5.98,1.58-18.61,1.58-18.61Z"/>
              <path class="cls-37" d="m266.02,358.05s-1.51,12.63-1.57,18.61v.05c-.01,1.38,0,2.4.05,2.83l2.22-10.96c-.7-2.57.15-6.86.26-10.67-.08.01-.15.02-.23.03-.09.01-.17.02-.25.03-.16.02-.28.04-.37.05-.05,0-.08,0-.1.01h-.02Z"/>
              <path class="cls-23" d="m324.68,370.29c-1.23,5.59-5.21,5.46-5.21,5.46l5.21-5.46Z"/>
              <path class="cls-90" d="m266.51,367.86c.66,5.72,4.63,6.14,4.63,6.14l-4.63-6.14Z"/>
            </g>
            <path class="cls-59" d="m315.19,359.11c1.04.24,2.06.5,3.07.78.98.27,1.95.58,2.88.9.03.01.06.02.09.03l2.36,6.45v.03c-2.53-5.43-6.29-7.46-8.39-8.19Z"/>
            <path class="cls-52" d="m266.21,358.02c.07,0,.16-.02.28-.04.08,0,.16-.01.25-.03.07,0,.15-.01.23-.02,1.55-.18,4.77-.54,9.05-.83l-.8.22s-8.1.01-8.41,5.28l-.31,5.27-.29-9.85Z"/>
          </g>
        </g>
        <g>
          <path class="cls-3" d="m324.23,319.79c-.96,4.96-14.67,23.33-21.12,29.78-6.45,6.45-17.23,7.13-17.23,7.13,0,0,13.67,2.29,20.94,5.09s11.66,6.2,11.66,6.2c0,0,4.83-2.2,10.92-9.34,11.06-12.98,10.7-24.18,10.7-24.18l-15.31-8.95-.55-5.73Z"/>
          <path class="cls-132" d="m316.63,366.53h0c-.03-.07-.04-.11-.04-.11h-.02s-.01-.01-.01-.02c-.12-.07-.45-.31-.96-.7-.94-.72-2.48-1.88-4.25-3.3h-.01c-1.18-.95-2.55-1.98-3.97-3.05-2.09-1.58-4.28-3.24-6.04-4.77-.2-.18-.39-.35-.59-.52-.49-.45-.93-.88-1.32-1.3-.17-.18-.32-.34-.46-.51-.5-.57-.86-1.11-1.08-1.59-.41-.96.1-2.39.92-4.03.07-.15.15-.31.24-.47,0-.02.02-.04.03-.06.04-.06.06-.13.1-.19.1-.2.21-.39.32-.6.02-.02.03-.05.04-.08.12-.23.25-.46.38-.69.02-.03.04-.06.05-.1.21-.4.44-.8.66-1.21.08-.15.16-.31.23-.46,0,0,0,0,0-.01h.01c2.26-4.5,6.49-9.6,11.59-12.82,1.54-.96,3.15-1.76,4.81-2.31.62-.21,1.22-.37,1.84-.51h.03s.04,0,.04,0c.09,0,.21,0,.37.04.05,0,.11.01.16.02,1.31.26,4.32,1.26,7.63,2.36.24.08.47.16.71.23.03.02.06.02.09.03.27.09.54.18.81.27.47.16.95.32,1.42.48.16.05.3.1.45.15,2.21.75,4.33,1.47,5.94,1.95.2.06.4.12.59.18,1.24.36,2.06.56,2.22.48.8-.43,2.03-.64,2.03-.64l-.3,1.7c-.17,1.01-.49,2.11-.92,3.28-.25.66-.54,1.35-.85,2.04-5.33,11.72-19.86,28.15-21.04,28.28-1.14.12-1.71-1.08-1.84-1.46Z"/>
          <path class="cls-73" d="m319.11,327.12c1.32-.28,19.64,6.64,20.44,6.21.8-.43,2.02-.64,2.02-.64-2.08.63-4.23,2.8-6.05,5.17-.05.06-.09.12-.14.17-1.41,1.87-2.61,3.83-3.42,5.24.81-1.53,1.9-3.68,2.69-5.54.01-.02.02-.03.02-.05.79-1.86,1.26-3.43.82-3.78-1.24-.97-16.4-6.78-16.4-6.78Z"/>
          <path class="cls-83" d="m316.91,366.39c-.5-2.62,1.65-5.81,1.65-5.81l-3.89,4.37,2.24,1.44Z"/>
          <path class="cls-65" d="m317.42,331.02l-.15-3.39c.61-.21,1.22-.38,1.84-.52h.03s.46.06.46.06c-1.59.93-2.18,3.84-2.18,3.84Z"/>
          <path class="cls-39" d="m307.37,359.35c-2.09-1.58-4.28-3.24-6.04-4.77-.2-.18-.39-.35-.59-.52-.49-.45-.93-.88-1.32-1.3-.17-.18-.32-.34-.46-.51-.5-.57-.86-1.11-1.08-1.59-.41-.96.1-2.39.92-4.03.07-.15.15-.31.24-.47.96-1.15,1.71-2.05,1.71-2.05-.02-.08-.54.43-1.27,1.2.02-.02.03-.05.04-.08.12-.23.25-.46.38-.69.02-.03.04-.06.05-.1.21-.4.44-.8.66-1.21.08-.15.16-.31.23-.46,0,0,0,0,0-.01h.01c2.26-4.5,6.49-9.6,11.59-12.82,1.78-.52,3.45-.7,4.89-.69.22,0,.44,0,.64.01,2.86.12,4.73.92,4.73.92-14.18,5.69-19.33,23.07-15.35,29.15Z"/>
          <path class="cls-14" d="m297.89,350.67c-.42-.96.1-2.39.91-4.03.08-.18.18-.35.28-.53.04-.06.06-.13.1-.19l1.01,3.47-.27-4.85-.03-.44s.02.12.08.35c.47,1.83,3.22,10.64,14.76,20.45.16.13.31.26.47.39.44.37.9.74,1.37,1.11-.11-.07-.45-.32-.96-.7-.94-.71-2.48-1.88-4.25-3.3h-.01c-2.92-2.34-7.05-5.24-10.01-7.82-.2-.18-.39-.35-.58-.52-.49-.45-.93-.88-1.32-1.29-.17-.18-.32-.34-.46-.51-.5-.57-.87-1.11-1.08-1.59Z"/>
          <path class="cls-36" d="m336.3,343.21c-6.93,10.82-14.26,17.69-14.26,17.69,0,0,3.98-2.42,8.37-8.27,3.35-4.46,5.9-9.42,5.9-9.42Z"/>
        </g>
      </g>
      <g>
        <g>
          <path class="cls-139" d="m364.6,50.8c4.87-5.69,96.55,4.22,96.55,4.22,0,0,5.39,52.33,6.78,114.76,1.39,62.43-6.26,127.79-6.26,127.79,0,0-93.51,9.45-94.46,2.75-1.22-8.55-7.48-243.84-2.61-249.53Z"/>
          <path class="cls-50" d="m366.74,292.89l82.81-2.33s7.7-61.8,6.3-120.83c-1.4-59.03-6.83-108.51-6.83-108.51l-84.77-1.08-.58,117.95,3.07,114.8Z"/>
          <g>
            <path class="cls-121" d="m418.37,177.73c1.36.06,2.68.11,3.96.18h.05c9.51.44,16.48.99,17.19,1.62,2.44,2.11-.87,97.84-.87,97.84,0,0-69.24,5.13-75.5,1.66-1.33-.74-2.28-5.69-2.94-13.06-1.64-18.44-1.43-51.96-.61-72.13.34-8.5.79-14.62,1.26-16.24.07-.24.14-.38.2-.42.45-.23,4.16-.34,9.76-.37h0c11.82-.06,32.03.3,47.48.93Z"/>
            <path class="cls-49" d="m418.37,177.73l13.01-.93c.91.83-.46,1.34-5.89,1.17-.98-.03-2.02-.06-3.1-.07h-.05c-1.9-.03-3.95-.04-6.08-.03-20.26.09-49.26,1.79-52.6,1.99-.21.01-.32.02-.32.02,0,0-4.41,46.76-2.79,85.83l-.27.24c-1.64-18.44-1.43-51.96-.61-72.13.34-8.5.79-14.62,1.26-16.24.07-.24.14-.38.2-.42.45-.23,4.16-.34,9.76-.37h0c11.82-.06,32.03.3,47.48.93Z"/>
            <path class="cls-57" d="m418.37,177.73l-2.13.15c-20.26.09-49.26,1.79-52.6,1.99-.69-.63-1.59-1.41-2.73-2.28.07-.24.14-.38.2-.42.45-.23,4.16-.34,9.76-.37h0c11.82-.06,32.03.3,47.48.93Z"/>
          </g>
          <g>
            <path class="cls-150" d="m415.42,176.38c1.36-.03,2.69-.07,3.96-.11h.05c9.51-.28,16.49-.72,17.22-1.34,2.48-2.07,1.02-97.84,1.02-97.84,0,0-69.13-6.26-75.46-2.89-1.34.72-2.39,5.66-3.19,13.01-2,18.41-2.43,51.93-2,72.11.18,8.5.51,14.63.95,16.26.06.25.13.38.2.42.45.23,4.16.41,9.75.53h0c11.82.25,32.03.22,47.5-.15Z"/>
            <path class="cls-29" d="m415.42,176.38l12.99,1.14c.92-.82-.44-1.35-5.87-1.27-.98.02-2.02.02-3.1.02h-.05c-1.9,0-3.95-.03-6.08-.08-20.26-.42-49.21-2.6-52.56-2.85-.21-.02-.32-.02-.32-.02,0,0-3.51-46.82-1.13-85.86l-.26-.25c-2,18.41-2.43,51.93-2,72.11.18,8.5.51,14.63.95,16.26.06.25.13.38.2.42.45.23,4.16.41,9.75.53h0c11.82.25,32.03.22,47.5-.15Z"/>
            <path class="cls-68" d="m415.42,176.38l-2.12-.19c-20.26-.42-49.21-2.6-52.56-2.85-.7.62-1.62,1.38-2.77,2.24.06.25.13.38.2.42.45.23,4.16.41,9.75.53h0c11.82.25,32.03.22,47.5-.15Z"/>
          </g>
          <path class="cls-70" d="m411.57,106.03c-6.96-11.21-45.46-16.44-45.46-16.44l76.08-9.5-20.53,97.99-10.09-72.05Z"/>
          <path class="cls-25" d="m412.26,243.41c-6.96,11.21-47.67,18.89-47.67,18.89l73.76,6.08-11.48-93.51-14.61,68.53Z"/>
          <path class="cls-96" d="m461.67,297.57c-.58-4.09-21.57-14.77-21.57-14.77l17.83,15.13,3.74-.36Z"/>
          <path class="cls-19" d="m460.89,54.95c-.58,4.09-19.4,11.46-19.4,11.46l15.66-11.82,3.74.36Z"/>
          <g>
            <path class="cls-119" d="m441.82,93.1c2.16-22.56,1.87-22.2,1.92-23.21v-.07c.1-1.73.14-3.02.09-3.56-.03-.41-1.27-.86-3.41-1.34-13.16-2.92-60.84-6.56-80.54-4.01l-1.93,5.84-.19,1.1,3.99,19.73c26.7,9.12,70.44,6.28,78.71,5.63.78-.06,1.25-.1,1.35-.11h.02Z"/>
            <path class="cls-9" d="m441.82,93.1c2.16-22.56,1.87-22.2,1.92-23.21v-.07s.09-3.56.09-3.56l-2.58,6.87s-41.48-1.73-83.31-6.38l-.19,1.1,3.99,19.73c26.7,9.12,70.44,6.28,78.71,5.63.11,0,.22-.02.32-.02.13-.01.25-.02.36-.03.23-.02.4-.04.52-.05.07,0,.12,0,.14-.01h.02Z"/>
            <path class="cls-6" d="m441.82,93.1c2.16-22.56,1.87-22.2,1.92-23.21v-.07c.1-1.73.14-3.02.09-3.56l-2.58,6.87c.86,3.26-.44,15.31-.81,20.09.11,0,.22-.02.32-.02.13-.01.25-.02.36-.03.23-.02.4-.04.52-.05.07,0,.12,0,.14-.01h.02Z"/>
          </g>
          <g>
            <path class="cls-149" d="m439.62,258.67c2.16,22.56,1.87,22.2,1.92,23.21v.07c.1,1.73.14,3.02.09,3.56-.03.41-1.27.86-3.41,1.34-13.16,2.92-60.84,6.56-80.54,4.01l-1.93-5.84-.19-1.1,3.99-19.73c26.7-9.12,70.44-6.28,78.71-5.63.78.06,1.25.1,1.35.11h.02Z"/>
            <path class="cls-42" d="m439.62,258.67c2.16,22.56,1.87,22.2,1.92,23.21v.07s.09,3.56.09,3.56l-2.58-6.87s-41.48,1.73-83.31,6.38l-.19-1.1,3.99-19.73c26.7-9.12,70.44-6.28,78.71-5.63.11,0,.22.02.32.02.13.01.25.02.36.03.23.02.4.04.52.05.07,0,.12,0,.14.01h.02Z"/>
            <path class="cls-17" d="m439.62,258.67c2.16,22.56,1.87,22.2,1.92,23.21v.07c.1,1.73.14,3.02.09,3.56l-2.58-6.87c.86-3.25-.44-15.31-.81-20.09.11,0,.22.02.32.02.13.01.25.02.36.03.23.02.4.04.52.05.07,0,.12,0,.14.01h.02Z"/>
          </g>
          <g>
            <path class="cls-120" d="m422.3,175.63s17.12,0,25.29.33h.08c1.88.08,3.28.18,3.86.29.44.08.82,1.5,1.15,3.93,2.01,14.92,1.77,68.22-2.72,89.82l-14.98,1.14-1.21.09-12.52-6.13c-7.54-30.6-.62-78.85.8-87.95.14-.86.22-1.37.24-1.49v-.03Z"/>
            <path class="cls-47" d="m422.29,175.63s17.12,0,25.29.33h.08s3.86.29,3.86.29l-15.14,2.75s-2.77,45.2-1.4,92.13l-.31.03-.89.07-12.52-6.13s-.02-.09-.03-.14c-.37-1.51-.7-3.06-.99-4.64-.72-3.81-1.26-7.83-1.64-11.97-2.69-29.04,2.29-63.64,3.46-71.2.02-.13.04-.24.05-.36.03-.14.05-.28.06-.4.04-.26.08-.45.1-.58.01-.08.02-.13.03-.16v-.03Z"/>
            <path class="cls-26" d="m422.3,175.63s17.12,0,25.29.33h.08c1.88.08,3.28.18,3.86.29l-15.14,2.75c-3.45-1.3-9.13-1.76-14.34-1.86.02-.13.04-.24.05-.36.03-.14.05-.28.06-.4.04-.26.07-.45.1-.58.01-.08.02-.13.03-.16v-.03Z"/>
            <path class="cls-75" d="m418.59,248.34c1.91,14.25,11.34,20.93,16.08,22.81l-.89.07-12.52-6.13s-.02-.09-.03-.14c-.37-1.51-.7-3.06-.99-4.64-.72-3.81-1.26-7.83-1.64-11.97Z"/>
            <path class="cls-92" d="m433.88,271.26c7.73-1.56,7.89-7.9,7.89-7.9l-7.89,7.9Z"/>
          </g>
          <g>
            <path class="cls-166" d="m421.74,175.92s17.12-.11,25.29-.49h.07c1.88-.09,3.28-.2,3.86-.31.44-.08.81-1.5,1.12-3.94,1.9-14.93,1.25-68.23-3.41-89.8l-14.98-1.04-1.21-.09-12.48,6.21c-7.3,30.65-.01,78.85,1.47,87.95.14.86.23,1.37.25,1.48v.03Z"/>
            <path class="cls-27" d="m421.73,175.92s17.12-.11,25.29-.49h.08s3.86-.31,3.86-.31l-15.16-2.65s-3.12-45.18-2.11-92.12l-.31-.02-.89-.06-12.48,6.21s-.02.09-.03.14c-.36,1.51-.68,3.06-.96,4.65-.69,3.82-1.2,7.84-1.54,11.98-2.47,29.05,2.78,63.62,4.01,71.18.02.13.04.24.06.36.03.14.05.28.06.39.04.26.08.44.1.58.01.08.02.13.03.16v.03Z"/>
            <path class="cls-1" d="m421.74,175.92s17.12-.11,25.29-.49h.07c1.88-.09,3.28-.2,3.86-.31l-15.16-2.65c-3.44,1.32-9.12,1.82-14.32,1.95.02.13.04.24.06.36.03.14.05.28.06.39.04.26.08.44.1.58.01.08.02.13.03.16v.03Z"/>
            <path class="cls-81" d="m417.47,103.23c1.81-14.27,11.18-21.01,15.9-22.91l-.89-.06-12.48,6.21s-.02.09-.03.14c-.36,1.51-.68,3.06-.96,4.65-.69,3.82-1.2,7.84-1.54,11.98Z"/>
            <path class="cls-54" d="m432.58,80.21c7.74,1.51,7.95,7.85,7.95,7.85l-7.95-7.85Z"/>
          </g>
          <path class="cls-87" d="m430.83,176.42l5.09.07-4.54.32c-.14-.12-.31-.25-.55-.39Z"/>
        </g>
        <g>
          <path class="cls-88" d="m372.71,90.18c5.96,3.18,20.85,12.83,29.11,20.87,9.5,9.24,17.4,42.7,17.4,42.7,0,0-3.03-20.98,3.71-27.75,6.74-6.77,9.22-8.8,9.22-8.8,0,0-.73-6.24-7.28-16-11.89-17.71-26.44-22.12-26.44-22.12l-18.13,12.96-7.6-1.86Z"/>
          <path class="cls-123" d="m429.48,118.59h0c-.09,0-.15,0-.15,0h-.02s-.01.02-.02.02c-.14.1-.6.36-1.31.76-1.33.72-3.49,1.92-6.09,3.25h-.01c-1.72.9-3.64,1.96-5.63,3.06-2.94,1.62-6.01,3.3-8.74,4.58-.32.15-.62.28-.92.42-.79.34-1.53.64-2.23.89-.3.11-.58.2-.85.29-.95.3-2.46,3.2-3.17,3.22-1.42.04-2.36-3.86-4.11-5.46-.17-.14-.33-.3-.5-.47-.02-.01-.05-.04-.07-.06-.06-.07-.14-.13-.2-.19-.21-.2-.41-.4-.64-.61-.03-.03-.06-.05-.08-.08-.24-.23-.48-.47-.72-.71-.03-.03-.06-.07-.1-.1-.42-.41-.83-.83-1.27-1.24-.16-.15-.33-.3-.5-.45,0,0,0,0-.01-.01v-.02c-4.8-4.4-9.52-11.24-11.45-18.21-.57-2.1-.9-4.21-.89-6.27,0-.77.05-1.5.14-2.24v-.03s.02-.04.02-.04c.03-.1.11-.23.21-.39.03-.05.07-.11.1-.17.9-1.32,3.48-4.2,6.34-7.36.2-.23.41-.45.61-.68.04-.03.06-.06.08-.09.24-.25.47-.51.7-.77.41-.45.83-.9,1.24-1.35.13-.15.26-.28.39-.43,1.93-2.11,3.76-4.13,5.08-5.68.17-.2.33-.39.48-.57,1-1.2,1.61-2.02,1.58-2.23-.2-1.06.06-2.5.06-2.5l2.06,1.06c1.22.62,2.5,1.45,3.81,2.42.74.56,1.5,1.17,2.25,1.81,12.76,10.88,27.57,33.88,27.23,35.23-.34,1.31-2.12,1.41-2.67,1.39Z"/>
          <path class="cls-76" d="m379.92,98.95c.21-1.57,17.04-18.7,16.83-19.77-.2-1.07.05-2.5.05-2.5-.09,2.56,1.77,5.85,4.03,8.85.05.08.11.15.16.23,1.79,2.35,3.79,4.51,5.25,6-1.61-1.55-3.9-3.67-5.95-5.33-.02-.02-.03-.03-.05-.04-2.05-1.67-3.86-2.86-4.5-2.52-1.79.94-15.81,15.08-15.81,15.08Z"/>
          <path class="cls-48" d="m429.42,118.22c-3.59-.58-6.75-4.3-6.75-4.3l3.93,6.14,2.81-1.84Z"/>
          <path class="cls-66" d="m384.2,102.47l-4.42-1.28c0-.77.05-1.51.14-2.24v-.03s.29-.48.29-.48c.5,2.14,4,4.04,4,4.04Z"/>
          <path class="cls-40" d="m416.24,125.67c-2.94,1.62-6.01,3.3-8.74,4.58-.32.15-.62.28-.92.42-.79.34-1.53.64-2.23.89-.3.11-.58.2-.85.29-.95.3-1.8.47-2.51.5-1.42.04-3.02-1.14-4.78-2.74-.17-.14-.33-.3-.5-.47-1.06-1.54-1.89-2.76-1.9-2.76-.12-.02.32.78.99,1.9-.03-.03-.06-.05-.08-.08-.24-.23-.48-.47-.72-.71-.03-.03-.06-.07-.1-.1-.42-.41-.83-.83-1.27-1.24-.16-.15-.33-.3-.5-.45,0,0,0,0-.01-.01v-.02c-4.8-4.4-9.52-11.24-11.45-18.21.1-2.18.59-4.09,1.23-5.67.1-.24.2-.47.3-.7,1.4-3.08,3.23-4.79,3.23-4.79,1.18,18.01,21.27,31.12,30.82,29.36Z"/>
          <path class="cls-30" d="m400.32,135.07c-1.42.04-2.36-3.86-4.11-5.46-.19-.17-.38-.34-.57-.53-.06-.07-.14-.12-.2-.19l4.9.38-6.34-1.78-.58-.16s.17.03.48.06c2.55.27,15.07,1.03,32.66-7.41.23-.12.47-.23.71-.35.66-.33,1.34-.67,2.02-1.03-.14.09-.6.35-1.31.75-1.32.72-3.49,1.92-6.08,3.25h-.01c-4.26,2.21-9.78,5.5-14.37,7.64-.31.15-.62.28-.92.42-.79.34-1.53.65-2.23.89-.3.1-.58.2-.85.29-.95.3-2.46,3.2-3.17,3.22Z"/>
          <path class="cls-51" d="m408.03,86.99c10.9,12.24,16.56,23.25,16.56,23.25,0,0-1.39-5.4-7.01-12.73-4.29-5.59-9.55-10.52-9.55-10.52Z"/>
        </g>
        <g>
          <path class="cls-162" d="m402.99,271.38c13.92-14.52,28.3-34.16,28.3-34.16l-19.72,8.11-8.58,26.05Z"/>
          <path class="cls-84" d="m372.71,260.97c5.96-3.18,20.85-12.83,29.11-20.87,9.5-9.24,17.4-42.7,17.4-42.7,0,0-3.03,20.98,3.71,27.75,6.74,6.77,9.22,8.8,9.22,8.8,0,0-.73,6.24-7.28,16-11.89,17.71-25.93,24.79-25.93,24.79l-18.64-15.63-7.6,1.86Z"/>
          <path class="cls-122" d="m399.16,216.94c.29.01.92.36,1.62.79,1,.62,2.15,1.4,2.71,1.57.27.09.55.18.85.29.36.13.73.26,1.1.41.37.14.74.3,1.13.47.31.14.6.28.92.42,2.74,1.28,5.81,2.96,8.74,4.58,1.99,1.1,3.91,2.16,5.63,3.05h.01c2.6,1.34,4.76,2.53,6.08,3.26.72.4,1.17.65,1.32.75t.02,0h.02s.05,0,.15,0h.01c.55-.01,5.4,1.54,5.74,2.85.34,1.35-12.33,4.16-25.93,26.1-.5.82-8.71,13.96-9.93,14.58l-2.06,1.06s-.26-1.44-.05-2.5c.04-.21-1.08-3.7-2.08-4.9-.16-.18-.31-.37-.48-.57-1.32-1.55-3.16-3.57-5.08-5.68-.13-.15-.26-.28-.39-.43-.41-.45-.82-.9-1.23-1.35-.24-.26-.47-.52-.71-.77-.02-.03-.04-.06-.08-.09h0c-.2-.23-.4-.45-.6-.68-2.47-2.73-5.25-6.23-7.15-7.08-.09-.04-.18-.07-.26-.09-1.27.21-3.32.52-4.02.16-.23-.12.25-1.35,1.19-3.25,3.26-6.57,12.05-21.04,15.76-24.46v-.02s.01,0,.02,0c.16-.15.34-.3.5-.45.43-.41.84-.83,1.27-1.24.04-.03.07-.07.1-.1.24-.24.48-.47.72-.71.03-.03.05-.05.08-.08.22-.2.43-.41.64-.6.06-.06.14-.13.2-.19.02-.03.05-.05.08-.06.16-.17.33-.33.5-.47.43-.39.74-.87.99-1.37h0c.76-1.54.89-3.26,1.96-3.23Z"/>
          <path class="cls-60" d="m379.92,252.21c.21,1.57,17.54,21.37,17.33,22.44-.2,1.07.05,2.5.05,2.5-.09-2.56,1.27-8.52,3.52-11.53.05-.08.11-.15.16-.23,1.79-2.35,3.79-4.51,5.25-6-1.61,1.55-3.9,3.67-5.95,5.33-.02.02-.03.03-.05.04-2.05,1.67-3.86,2.86-4.5,2.52-1.79-.94-15.81-15.08-15.81-15.08Z"/>
          <path class="cls-38" d="m429.42,232.93c-3.59.58-6.75,4.3-6.75,4.3l3.93-6.14,2.81,1.84Z"/>
          <path class="cls-45" d="m422.82,241.17c-11.44,11.82-17.04,21.23-17.04,21.23,0,0,1.63-5.35,7.57-12.46,4.53-5.42,9.47-8.77,9.47-8.77Z"/>
          <path class="cls-53" d="m400.78,217.73c1,.62,2.15,1.4,2.71,1.57.27.09.55.18.85.29.36.13.73.26,1.1.41-5.34-1.02-9.87,5.8-9.45,6.11.44.32,5.83-2.88,5.83-2.88,0,0-19.14,26.42-14.64,37.63h0c-.2-.23-.4-.45-.6-.68-2.47-2.73-5.25-6.23-7.15-7.08.05-.06.1-.11.15-.17.02-.03.04-.05.06-.08,1.46-1.78,2.17-4.06,1.31-4.33-.82-.25-3.06.67-4.61,1.39,3.26-6.57,12.05-21.04,15.76-24.46v-.02s.01,0,.02,0c.16-.15.34-.3.5-.45.43-.41.84-.83,1.27-1.24.04-.03.07-.07.1-.1.24-.24.48-.47.72-.71.03-.03.05-.05.08-.08.22-.2.43-.41.64-.6.06-.06.14-.13.2-.19.02-.03.05-.05.08-.06.16-.17.33-.33.5-.47.43-.39.74-.87.99-1.37.1.66.55.99,1.85-.06,1.15-.93,1.6-1.74,1.74-2.38Z"/>
        </g>
      </g>
      <g>
        <polygon class="cls-128" points="28.1 226.42 27.31 97.04 48.02 116.09 48.19 197.73 28.1 226.42"/>
        <polygon class="cls-11" points="29.27 221.74 28.57 100.73 47.42 117.21 47.59 196.55 29.27 221.74"/>
        <polygon class="cls-46" points="46.6 195.75 34.96 210.86 34.81 171.35 46.42 164.78 46.47 120.75 28.6 107.75 28.7 102.42 46.52 117.57 46.6 195.75"/>
        <polygon class="cls-130" points="47.59 196.55 46.6 195.75 46.52 117.57 47.42 117.21 47.59 196.55"/>
        <polygon class="cls-146" points="24.65 97.04 27.31 97.04 27.8 176.69 27.87 189.08 28.1 226.42 25.45 226.55 25.22 189.72 25.06 162.95 25.04 159.65 25.03 158.64 24.65 97.04"/>
        <polygon class="cls-102" points="25.06 162.95 27.56 162.04 27.8 176.69 27.99 189.05 27.87 189.08 25.22 189.72 25.06 162.95"/>
        <polygon class="cls-102" points="27.65 157.99 27.65 158.57 25.04 159.65 25.03 158.64 27.65 157.99"/>
      </g>
      <g>
        <path class="cls-22" d="m264.47,45.15c4.64,0,9.18.72,13.56,2.09,2.58.81,5.11,1.84,7.59,3.08,2.28,1.15,4.5,2.48,6.67,3.98,9.64,6.64,18.19,16.63,25.12,29.06,7.29,13.08,12.78,28.87,15.82,46.34,1.29,7.4,2.15,15.09,2.51,23.02.14,2.95.21,5.91.21,8.91,0,5.94-.28,11.77-.79,17.47-.35,3.84-.83,7.63-1.41,11.32-.02.15-.04.3-.07.45-4.5,28.34-15.37,52.5-29.99,68.16-3.22,3.46-6.63,6.5-10.19,9.08-4.91,3.56-10.1,6.24-15.52,7.93-4.38,1.37-8.9,2.08-13.52,2.08-4.29,0-8.5-.62-12.6-1.8-4.65-1.35-9.15-3.43-13.44-6.17-6.35-4.05-12.26-9.53-17.57-16.22-1.76-2.21-3.46-4.55-5.08-7.01-.84-1.27-1.66-2.58-2.45-3.91-2.88-4.79-5.5-9.99-7.84-15.54-5.46-12.96-9.35-27.8-11.23-43.82-.08-.7-.16-1.39-.24-2.09-.24-2.32-.45-4.65-.6-7.01-.29-4.24-.43-8.55-.43-12.91,0-5.91.27-11.72.79-17.38.14-1.53.3-3.04.47-4.54.02-.13.03-.25.05-.38,3.15-26.54,11.84-49.84,24.01-66.65,4.59-6.32,9.67-11.72,15.13-16.01,2.71-2.13,5.52-3.99,8.4-5.55,2.09-1.14,4.21-2.13,6.39-2.94,2.09-.8,4.21-1.44,6.36-1.92,2.77-.62,5.59-.99,8.46-1.08.47-.02.95-.03,1.42-.03Z"/>
        <path class="cls-101" d="m262.44,45.15c4.64,0,9.18.72,13.56,2.09,2.58.81,5.11,1.84,7.59,3.08,2.28,1.15,4.96,4.47,7.13,5.97,9.64,6.64,17.74,14.63,24.67,27.06,7.29,13.08,12.78,28.87,15.82,46.34,1.29,7.4,2.15,15.09,2.51,23.02.14,2.95.21,5.91.21,8.91,0,5.94-.28,11.77-.79,17.47-.35,3.84-.83,7.63-1.41,11.32-.02.15-.04.3-.07.45-4.5,28.34-15.24,50.63-29.85,66.29-3.22,3.46-6.76,8.37-10.33,10.95-4.91,3.56-9.94,4.43-15.36,6.11-4.38,1.37-9.05,3.9-13.68,3.9-4.29,0-8.5-.62-12.6-1.8-4.65-1.35-9.15-3.43-13.44-6.17-6.35-4.05-11.75-11.84-17.06-18.52-1.76-2.21-3.97-2.25-5.6-4.71-.84-1.27-1.66-2.58-2.45-3.91-2.88-4.79-5.5-9.99-7.84-15.54-5.46-12.96-9.35-27.8-11.23-43.82-.08-.7-.16-1.39-.24-2.09-.24-2.32-.45-4.65-.6-7.01-.29-4.24-.43-8.55-.43-12.91,0-5.91.27-11.72.79-17.38.14-1.53.3-3.04.47-4.54.02-.13.03-.25.05-.38,3.15-26.54,11.84-49.84,24.01-66.65,4.59-6.32,10.58-9.49,16.04-13.78,2.71-2.13,4.6-6.22,7.49-7.78,2.09-1.14,4.21-2.13,6.39-2.94,2.09-.8,4.21-1.44,6.36-1.92,2.77-.62,5.59-.99,8.46-1.08.47-.02.95-.03,1.42-.03Z"/>
        <path class="cls-18" d="m230.96,215.87l-19.67,27.13c-2.88-4.79-5.5-9.99-7.84-15.54l25.89-16.46,1.62,4.88Z"/>
        <path class="cls-89" d="m192.27,139.32l32.21,6.35-.81,4.39-31.92-5.82c.14-1.53.3-3.04.47-4.54.02-.13.03-.25.05-.38Z"/>
        <path class="cls-77" d="m246.19,48.17l29.77,227.87c-4.38,1.37-8.9,2.08-13.52,2.08-4.29,0-8.5-.62-12.6-1.8l-10.04-225.21c2.09-1.14,4.21-2.13,6.39-2.94Z"/>
        <path class="cls-63" d="m262.44,45.15c4.64,0,9.18.72,13.56,2.09,2.58.81,5.11,1.84,7.59,3.08,2.28,1.15,4.5,2.48,6.67,3.98,2.28,47.99,6.28,126.6,11.41,204.72-3.22,3.46-6.63,6.5-10.19,9.08l-30.46-222.93c.47-.02.95-.03,1.42-.03Z"/>
        <g>
          <path class="cls-4" d="m262.19,65.72c3.78,0,7.48.59,11.05,1.71,2.11.66,4.17,1.5,6.18,2.51,10.08,5.08,18.99,14.5,25.91,26.91,5.94,10.66,10.41,23.52,12.89,37.76,1.05,6.03,1.75,12.3,2.04,18.75.12,2.4.17,4.82.17,7.26,0,4.84-.22,9.59-.65,14.23-.29,3.12-.67,6.21-1.15,9.23-.02.12-.03.24-.06.36-6.48,40.9-29.28,71.09-56.39,71.09-7.48,0-14.64-2.3-21.21-6.5-5.18-3.3-9.99-7.77-14.32-13.21-1.44-1.8-2.82-3.71-4.14-5.72-8.87-13.45-15.16-31.36-17.53-51.55-.07-.57-.13-1.13-.19-1.71-.2-1.89-.37-3.78-.49-5.71-.23-3.45-.35-6.96-.35-10.52,0-6.11.35-12.08,1.03-17.87,2.54-21.74,9.64-40.86,19.6-54.61,3.74-5.15,7.87-9.55,12.32-13.05,5.34-4.2,11.14-7.11,17.23-8.48,2.63-.59,5.32-.9,8.05-.9Z"/>
          <path class="cls-100" d="m263,69.94c3.61,0,7.14.56,10.56,1.63,2.01.63,3.98,1.43,5.9,2.4,9.63,4.86,18.14,13.86,24.75,25.71,5.68,10.18,9.94,22.47,12.32,36.08,1.01,5.76,1.67,11.75,1.95,17.92.11,2.29.16,4.6.16,6.94,0,4.62-.21,9.16-.62,13.6-.28,2.99-.64,5.93-1.1,8.82-.02.11-.03.23-.05.34-6.2,39.07-27.97,67.93-53.88,67.93-7.15,0-13.99-2.2-20.27-6.21-4.95-3.15-9.55-7.42-13.68-12.62-1.37-1.72-2.69-3.55-3.96-5.46-8.48-12.85-14.49-29.97-16.75-49.26-.07-.54-.13-1.08-.19-1.63-.19-1.8-.35-3.62-.47-5.45-.22-3.3-.34-6.65-.34-10.05,0-5.84.34-11.55.98-17.07,2.43-20.78,9.21-39.04,18.73-52.17,3.57-4.92,7.52-9.12,11.78-12.47,5.1-4.01,10.64-6.79,16.47-8.1,2.52-.57,5.08-.86,7.69-.86Z"/>
          <path class="cls-31" d="m316.94,183.03c-.02.11-.03.23-.05.34-13.19,8.36-43.31,29.11-74.15,61.72-4.95-3.15-9.55-7.42-13.68-12.62l87.89-49.44Z"/>
          <path class="cls-15" d="m254.08,162.57l-45.92,13.55c-.19-1.8-.35-3.62-.47-5.45l46.39-8.1Z"/>
          <path class="cls-79" d="m318.49,153.68c.11,2.29.16,4.6.16,6.94,0,4.62-.21,9.16-.62,13.6l-92.94,52.8c-8.48-12.85-14.49-29.97-16.75-49.26l110.14-24.07Z"/>
          <path class="cls-7" d="m227.07,91.38l77.15,8.31c5.68,10.18,9.94,22.47,12.32,36.08l-108.2,7.78c2.43-20.78,9.21-39.04,18.73-52.17Z"/>
          <path class="cls-71" d="m255.31,70.8l18.25.77c2.01.63,3.98,1.43,5.9,2.4l-40.62,4.93c5.1-4.01,10.64-6.79,16.47-8.1Z"/>
        </g>
      </g>
      <g>
        <g>
          <polygon class="cls-129" points="55.21 82.84 56.73 82.91 60.98 83.09 62.93 83.17 70.62 83.5 76.51 83.75 76.7 83.76 77.63 83.8 77.9 144.8 77.92 149.7 78.31 239.46 73.72 239.74 70.46 239.92 70.06 239.95 64.48 240.28 62.4 240.41 56.56 240.75 55.76 147.37 55.21 82.84"/>
          <path class="cls-85" d="m62.4,240.41c-.15-8.65-.37-22.4-.55-38.42.87,12.63,1.93,28.03,2.63,38.29l-2.08.12Z"/>
          <path class="cls-28" d="m73.72,239.74c1.77-33.79,3.85-81.88,4.2-90.04l.39,89.76-4.59.27Z"/>
          <polygon class="cls-56" points="77.9 144.8 76.7 83.76 77.63 83.8 77.9 144.8"/>
          <path class="cls-78" d="m70.62,83.5l5.88.25-6.05,156.17-.4.03c.71-42.05,2.18-140.53.57-156.45Z"/>
          <polygon class="cls-64" points="56.73 82.91 55.76 147.37 55.21 82.84 56.73 82.91"/>
          <path class="cls-16" d="m60.98,83.09l1.96.08c-1.75,24.05-1.54,78.59-1.09,118.82-.79-11.46-1.42-20.64-1.5-21.62-.2-2.45.47-78.56.63-97.28Z"/>
          <path class="cls-91" d="m72.28,149.47c-.89-4.84.33-16.04.33-16.04,0,0,.78,5.92.56,9.04-.22,3.12-.89,7-.89,7Z"/>
          <polygon class="cls-72" points="63.21 240.43 63.28 225.36 64.38 240.25 63.21 240.43"/>
          <path class="cls-5" d="m60.35,164.54c.95-3.5.06-8.07.06-8.07,0,0-.56,2.64-.45,4.63.11,1.99.39,3.44.39,3.44Z"/>
          <path class="cls-74" d="m71.35,99.41c.22-8.4,1.41-15.79,1.19-15.72-.22.07-2.31-.29-2.31-.29l1.12,16Z"/>
        </g>
        <polygon class="cls-138" points="78.31 239.46 82.43 220.19 81.99 98.98 77.63 83.8 78.31 239.46"/>
      </g>
      <g>
        <g>
          <path class="cls-156" d="m86.63,75.96c-1.68.76-3.42,1.28-5.18,1.6-10.48,1.85-21.75-3.95-26.9-14.61-4.42-9.15-3.1-19.33,2.55-26.18,2.04-2.47,4.64-4.51,7.74-5.9,11.69-5.26,26.06.56,32.07,13.01,6.01,12.45,1.4,26.81-10.29,32.07Z"/>
          <path class="cls-55" d="m86.63,75.96c-1.68.76-3.42,1.28-5.18,1.6,3.87-1.95,7.2-5.65,6.85-12.73-.03-.54-.07-1.1-.15-1.68-1.16-9.46-6.33-19.44-13.66-24.52-4.99-3.45-10.97-4.64-17.38-1.85,2.04-2.47,4.64-4.51,7.74-5.9,11.69-5.26,26.06.56,32.07,13.01,6.01,12.45,1.4,26.81-10.29,32.07Z"/>
          <ellipse class="cls-133" cx="76.97" cy="53.93" rx="14.55" ry="15.76" transform="translate(-17.01 53.96) rotate(-35.04)"/>
          <ellipse class="cls-10" cx="75.44" cy="54.77" rx="14.56" ry="15.77" transform="translate(-17.77 53.23) rotate(-35.04)"/>
        </g>
        <path class="cls-154" d="m84.42,52.28c21.31-4.92,33.21,12.34,33.21,12.34l-33.21-12.34Z"/>
        <path class="cls-161" d="m84.36,54.27c8.58-.17,18.07,11.04,18.07,11.04l-18.07-11.04Z"/>
        <path class="cls-127" d="m82.17,49.65c-5.93-7.11-2.9-28.62-2.9-28.62l2.9,28.62Z"/>
        <g>
          <path class="cls-115" d="m140.15,0c-17.03,3.24-35.87,23.27-35.03,22.9.84-.38,35.03-22.9,35.03-22.9Z"/>
          <path class="cls-125" d="m98.96,28.61c15.95-9.15,32.59-9.51,32.59-9.51l-32.59,9.51Z"/>
          <path class="cls-167" d="m103.65,23.55c6.44-8.8,4.44-21.91,4.44-21.91l-4.44,21.91Z"/>
          <path class="cls-153" d="m95.14,35.99c19.94-11.43,38-3.58,38-3.58l-38,3.58Z"/>
          <path class="cls-144" d="m87.97,44.62c13.4-2.84,17.04-.05,17.04-.05l-17.04.05Z"/>
          <path class="cls-107" d="m93.88,32.86c7.67-15.74-1.22-29.93-1.22-29.93l1.22,29.93Z"/>
          <path class="cls-98" d="m89.9,40.43c5-12.33-.77-23.74-.77-23.74l.77,23.74Z"/>
          <path class="cls-126" d="m108.07,20.58c-15.47,12.25-28.07,30.45-28.07,30.45l1.08.13s4.18-5.57,11.72-14.49c7.53-8.92,15.27-16.09,15.27-16.09Z"/>
        </g>
        <g>
          <path class="cls-135" d="m24.72,56.43c10.63-9.13,34.13-8.04,33.45-7.74-.68.3-33.45,7.74-33.45,7.74Z"/>
          <path class="cls-158" d="m63.27,47.83c-10.79,4.5-15.29,14.9-15.29,14.9l15.29-14.9Z"/>
          <path class="cls-159" d="m66.94,49.36c-9.32,6.92-11.03,18.07-11.03,18.07l11.03-18.07Z"/>
          <path class="cls-164" d="m58.36,47.67c-8.11-1.36-17.25-10.81-17.25-10.81l17.25,10.81Z"/>
          <path class="cls-97" d="m77.5,51.09c-14.57,1.87-18.06,17.99-18.06,17.99l18.06-17.99Z"/>
          <path class="cls-163" d="m77.84,50.78c-5.5,6.8-4.38,10.86-4.38,10.86l4.38-10.86Z"/>
          <path class="cls-118" d="m67.69,47.23c-13.54-4.9-21.71-19.42-21.71-19.42l21.71,19.42Z"/>
          <path class="cls-110" d="m74.27,49.4c-10.34-4.49-17.27-15.28-17.27-15.28l17.27,15.28Z"/>
          <path class="cls-126" d="m56.54,48.61c7.89-1.34,21.24,2.85,21.24,2.85l-1.25-1.53-19.19-2.55-.81,1.22Z"/>
        </g>
        <path class="cls-124" d="m81.48,56.22c-4.3,1.12-8.01,4.67-5.74,7.09,2.27,2.42,7.2.85,8.34-1.54,1.13-2.4-2.6-5.55-2.6-5.55Z"/>
        <path class="cls-124" d="m81.7,52.28c-1.62,0-3.8,3.02-3.43,3.1s2.02.32,2.86-.22c.84-.54.56-2.88.56-2.88Z"/>
        <path class="cls-124" d="m82.81,55.46c-.44.85,1.83,3.6,2.59,2.19s-1.7-4.56-2.14-3.38l-.45,1.18Z"/>
      </g>
      <g>
        <g>
          <path class="cls-142" d="m109.03,304.2c0,1.82-.25,3.58-.7,5.28-2.73,10.09-13.09,17.6-25.44,17.6-10.61,0-19.74-5.54-23.84-13.49-1.48-2.87-2.3-6.05-2.3-9.4,0-12.63,11.71-22.88,26.14-22.88s26.14,10.25,26.14,22.88Z"/>
          <path class="cls-32" d="m109.03,304.2c0,1.82-.25,3.58-.7,5.28-.2-4.27-2.3-8.81-9.19-11.53-.52-.21-1.08-.41-1.67-.59-9.51-3.03-21.23-2.72-29.21,1.61-5.42,2.95-9.12,7.74-9.21,14.63-1.48-2.87-2.3-6.05-2.3-9.4,0-12.63,11.71-22.88,26.14-22.88s26.14,10.25,26.14,22.88Z"/>
          <ellipse class="cls-133" cx="83.91" cy="303.32" rx="16.42" ry="14.37"/>
          <ellipse class="cls-61" cx="84.05" cy="305.04" rx="16.43" ry="14.38"/>
        </g>
        <path class="cls-124" d="m88.49,300.83c-.78,4.29,1.01,9.11,4.29,8.13,3.28-.98,3.9-6.03,2.11-8.06-1.8-2.03-6.4-.08-6.4-.08Z"/>
        <path class="cls-124" d="m84.36,298.42c-.7,1.43,1.25,4.67,1.48,4.37.23-.3,1.17-1.66,1.01-2.64-.16-.98-2.5-1.73-2.5-1.73Z"/>
        <path class="cls-124" d="m93.1,298.68c.62.75,4.21-.08,3.2-1.36s-5.07-.45-4.14.45l.94.9Z"/>
        <path class="cls-151" d="m86.46,290.77c1.22,5.95-1.76,11.11-4.21,14.19-1.53,1.91-2.87,3.02-2.87,3.02-8.27-7.41-8.52-20.1-7.39-29.06.76-5.99,2.12-10.32,2.12-10.32,0,0,10.36,12.5,12.34,22.17Z"/>
        <path class="cls-131" d="m72.83,308.58c-14.02-9.01-17.54,12.37-17.54,12.37l17.54-12.37Z"/>
        <path class="cls-99" d="m81.54,307.61c2.25-8.55,17.47-26.78,17.47-26.78,0,0-5.43,17.48-9.66,21.94-4.23,4.46-7.81,4.84-7.81,4.84Z"/>
        <path class="cls-86" d="m82.4,305.3c-1.53,1.91-2.87,3.02-2.87,3.02-8.27-7.41-8.52-20.1-7.39-29.06.27-.36.43-.57.43-.57.38,13.92,7.48,23.75,9.82,26.61Z"/>
        <path class="cls-157" d="m47.95,282.17c9.79,21.12,28.74,24.75,28.16,23.92s-28.16-23.92-28.16-23.92Z"/>
        <path class="cls-147" d="m81.99,308.45c22.25-3.01,17.91,17,17.91,17l-17.91-17Z"/>
        <path class="cls-145" d="m81.76,308.07c22.25-3.01,17.4,11.63,17.4,11.63l-17.4-11.63Z"/>
        <path class="cls-108" d="m82.01,309.83c15.92,12.9,8.62,30.13,8.62,30.13,0,0-8.66-6.3-11.85-11.63-3.18-5.33,3.23-18.5,3.23-18.5Z"/>
        <path class="cls-160" d="m65.55,293.79c4.6,13.33,15.61,15.36,15.61,15.36,0,0-.86-4.82-4.68-9.94-3.82-5.12-10.93-5.42-10.93-5.42Z"/>
        <path class="cls-165" d="m66.28,324.87c13.56-5.13,15.09-15.84,15.09-15.84,0,0-4.94,1.08-10.04,5.03-5.1,3.95-5.04,10.81-5.04,10.81Z"/>
      </g>
      <g>
        <path class="cls-140" d="m140.38,239.14c-.53-.97-1.26-1.79-2.11-2.42-.31-.23-.64-.44-.98-.62-1.54-.82-3.34-1.13-5.1-.82-.78.13-1.54.38-2.28.75-.66.34-1.25.75-1.75,1.23-2.42,2.26-3.12,5.87-1.47,8.88,2,3.65,6.69,5.04,10.47,3.1,3.78-1.93,5.22-6.46,3.22-10.11Z"/>
        <path class="cls-111" d="m132.18,235.28c-.78.13-1.54.38-2.28.75-.66.34-1.25.75-1.75,1.23l4.43,5.88h1.94s-2.34-7.86-2.34-7.86Z"/>
        <path class="cls-114" d="m138.27,236.72c-.31-.23-.64-.44-.98-.62l-1.16,6.44.44.27,1.71-6.09Z"/>
        <path class="cls-133" d="m139.48,244.2c-1.18-2.14-3.93-2.96-6.15-1.83s-3.07,3.8-1.89,5.94,3.93,2.96,6.15,1.83,3.07-3.8,1.89-5.94Z"/>
        <path class="cls-106" d="m145.59,240.07c-.03-.05-.06-.11-.09-.16.2.6.34,1.21.43,1.82.07.47.12.94.13,1.4.13,4.36-2.26,8.63-6.53,10.81-4.39,2.24-9.55,1.66-13.24-1.08-.77-.57-1.48-1.24-2.11-2-.43-.52-.82-1.09-1.16-1.69.22.68.51,1.34.86,2,.4.73.87,1.4,1.39,2.02,3.64,4.24,9.97,5.59,15.21,2.91,5.09-2.6,7.51-8.18,6.17-13.34-.24-.91-.59-1.81-1.07-2.68Z"/>
        <g>
          <path class="cls-134" d="m140.88,244.21c-1.61-2.93-5.38-4.05-8.42-2.5-3.04,1.55-4.2,5.19-2.59,8.12,1.61,2.93,5.38,4.05,8.41,2.5,3.04-1.55,4.2-5.19,2.59-8.12Zm-.24.27c1.5,2.73.42,6.12-2.41,7.56-2.83,1.45-6.34.4-7.84-2.33-1.5-2.73-.42-6.12,2.41-7.56,2.83-1.45,6.34-.41,7.84,2.32Z"/>
          <polygon class="cls-134" points="123.27 251.69 129.6 249.12 129.88 249.84 123.1 252.11 123.27 251.69"/>
          <path class="cls-134" d="m141.28,249.02c.25.04,6.47,2.13,6.47,2.13l-6.46-2.74v.61Z"/>
          <polygon class="cls-134" points="134.07 241.39 133.31 232.55 134.61 241.34 134.07 241.39"/>
        </g>
        <path class="cls-141" d="m148.87,236.56c-4.42-8.05-14.76-11.12-23.11-6.85-8.34,4.27-11.52,14.25-7.1,22.3.47.86,1.02,1.67,1.62,2.42,5,6.21,14.04,8.24,21.49,4.44,7.09-3.63,10.45-11.38,8.58-18.57-.33-1.27-.82-2.52-1.48-3.73Zm-3.54,3.87c.23.43.44.86.61,1.3.16.41.29.82.4,1.23,1.34,5.01-1,10.43-5.95,12.96-5.08,2.6-11.23,1.28-14.74-2.85-.5-.58-.94-1.22-1.31-1.91-.05-.1-.11-.2-.16-.3-2.83-5.53-.6-12.28,5.09-15.19,5.8-2.96,12.98-.83,16.05,4.76Z"/>
        <path class="cls-35" d="m150.35,240.28c-1.11.77-2.34,1.6-3.69,2.46-.11.07-.21.14-.32.21-.09.06-.18.12-.28.18.13,4.36-2.26,8.63-6.53,10.81-4.39,2.24-9.55,1.66-13.24-1.08-.21.07-.42.14-.64.21-.13.04-.25.08-.38.12-1.67.51-3.34.93-5,1.24,5,6.21,14.04,8.24,21.49,4.44,7.09-3.63,10.45-11.38,8.58-18.57Z"/>
        <path class="cls-136" d="m138.84,245.52c-.93-1.69-3.11-2.34-4.86-1.44-1.76.9-2.42,3-1.49,4.69.93,1.69,3.11,2.34,4.86,1.44,1.76-.9,2.42-3,1.49-4.69Z"/>
      </g>
      <g>
        <path class="cls-140" d="m123.14,100.13c.47-1,1.14-1.86,1.95-2.54.29-.25.61-.48.94-.68,1.48-.92,3.26-1.33,5.04-1.14.79.08,1.57.28,2.32.61.68.3,1.29.67,1.83,1.12,2.57,2.1,3.5,5.66,2.05,8.77-1.76,3.77-6.35,5.44-10.25,3.75-3.9-1.7-5.64-6.12-3.88-9.89Z"/>
        <path class="cls-112" d="m131.06,95.77c.79.08,1.57.28,2.32.61.68.3,1.29.67,1.83,1.12l-4.03,6.14-1.93.12,1.81-7.99Z"/>
        <path class="cls-113" d="m125.09,97.58c.29-.25.61-.48.94-.68l1.59,6.35-.42.3-2.11-5.97Z"/>
        <path class="cls-133" d="m124.37,105.12c1.03-2.21,3.73-3.2,6.02-2.2,2.29,1,3.31,3.6,2.28,5.81-1.03,2.21-3.73,3.2-6.02,2.2-2.29-1-3.31-3.6-2.28-5.81Z"/>
        <path class="cls-106" d="m118,101.37c.03-.05.05-.11.08-.16-.16.61-.26,1.23-.31,1.84-.04.47-.05.94-.03,1.41.16,4.36,2.83,8.47,7.23,10.38,4.53,1.97,9.64,1.07,13.14-1.9.73-.62,1.4-1.33,1.97-2.13.4-.55.75-1.13,1.05-1.76-.17.69-.42,1.37-.73,2.04-.35.75-.78,1.45-1.25,2.1-3.35,4.45-9.58,6.19-14.99,3.84-5.26-2.28-8.04-7.69-7.04-12.93.18-.92.47-1.85.89-2.74Z"/>
        <g>
          <path class="cls-134" d="m126.09,113.16c3.13,1.36,6.82.01,8.23-3.01,1.41-3.03.02-6.58-3.12-7.95-3.14-1.36-6.82-.01-8.23,3.01-1.41,3.02-.01,6.58,3.12,7.94Zm4.8-10.49c2.92,1.27,4.22,4.58,2.9,7.4-1.31,2.82-4.75,4.07-7.67,2.8-2.92-1.27-4.22-4.58-2.91-7.4s4.75-4.07,7.67-2.8Z"/>
          <polygon class="cls-134" points="141.05 111.6 134.56 109.42 134.32 110.15 141.24 112 141.05 111.6"/>
          <path class="cls-134" d="m122.9,110.05c-.25.05-6.31,2.53-6.31,2.53l6.26-3.13.05.61Z"/>
          <polygon class="cls-134" points="129.59 101.98 129.75 93.11 129.04 101.96 129.59 101.98"/>
        </g>
        <path class="cls-141" d="m113.27,101.88c-1.39,7.29,2.48,14.82,9.8,18.01,7.68,3.34,16.57.75,21.15-5.75.55-.78,1.04-1.62,1.45-2.51,3.88-8.31.04-18.07-8.57-21.81-8.61-3.74-18.73-.04-22.6,8.27-.58,1.25-.99,2.52-1.23,3.81Zm20.73-5.91c5.87,2.55,8.55,9.15,6.09,14.84-.04.1-.09.21-.14.31-.33.71-.73,1.38-1.19,1.98-3.23,4.34-9.27,6.04-14.52,3.76-5.1-2.22-7.79-7.49-6.79-12.57.08-.42.19-.83.32-1.25.14-.45.32-.89.52-1.33,2.69-5.77,9.72-8.34,15.7-5.74Z"/>
        <path class="cls-2" d="m113.27,101.88c1.16.7,2.44,1.45,3.85,2.23.11.06.22.12.33.19.09.05.19.1.29.16.16,4.36,2.83,8.47,7.23,10.38,4.53,1.97,9.64,1.07,13.14-1.9.22.06.43.11.65.17.13.03.26.06.39.09,1.7.41,3.39.72,5.07.93-4.58,6.5-13.47,9.09-21.15,5.75-7.32-3.18-11.18-10.71-9.8-18.01Z"/>
        <path class="cls-155" d="m125.1,106.4c.82-1.75,2.95-2.53,4.76-1.74,1.81.79,2.62,2.84,1.8,4.59-.82,1.75-2.95,2.53-4.76,1.74-1.81-.79-2.62-2.84-1.8-4.59Z"/>
      </g>
      <g>
        <path class="cls-138" d="m167.06,178.89c0,2.85-.38,5.61-1.11,8.24,0,.04-.02.07-.03.11-.28,1.02-.62,2.03-1,3.01-2.32,5.92-6.39,11-11.6,14.65-5.49,3.85-12.24,6.12-19.55,6.12-5.64,0-10.94-1.35-15.59-3.74h0c-5.84-2.99-10.64-7.61-13.77-13.23-.89-1.59-1.63-3.26-2.24-5-.18-.52-.35-1.05-.49-1.58-.36-1.24-.64-2.52-.84-3.82-.11-.73-.2-1.46-.26-2.2-.07-.85-.1-1.7-.1-2.56,0-1.18.07-2.34.2-3.49,0-.11.02-.22.03-.32h0c.94-7.71,4.71-14.58,10.28-19.61,5.95-5.4,13.97-8.71,22.79-8.71,1.79,0,3.54.13,5.25.4,1.25.19,2.48.45,3.67.77,1.09.29,2.15.63,3.19,1.02,3.18,1.2,6.13,2.86,8.75,4.9.14.11.28.22.42.33,4.26,3.42,7.62,7.85,9.69,12.91.01.03.02.05.03.08,1.48,3.63,2.28,7.58,2.28,11.71Z"/>
        <path class="cls-148" d="m166.88,177.52c0,2.85-.38,5.61-1.11,8.24,0,.04-.02.07-.03.11-.28,1.02-.62,2.03-1,3.01-2.32,5.92-6.39,11-11.6,14.65-5.49,3.85-12.24,6.12-19.55,6.12-5.64,0-10.94-1.35-15.59-3.74h0c-5.84-2.99-10.64-7.61-13.77-13.23-.89-1.59-1.63-3.26-2.24-5-.18-.52-.35-1.05-.49-1.58-.36-1.24-.64-2.52-.84-3.82-.11-.73-.2-1.46-.26-2.21-.07-.85-.1-1.7-.1-2.56,0-1.18.07-2.34.2-3.49,0-.11.02-.21.03-.32h0c.94-7.71,4.71-14.57,10.28-19.61,5.95-5.4,13.97-8.71,22.79-8.71,1.79,0,3.54.13,5.25.4,1.25.19,2.48.45,3.67.77,1.09.29,2.15.63,3.19,1.02,3.18,1.2,6.13,2.86,8.75,4.9.14.11.28.22.42.33,4.26,3.42,7.62,7.85,9.69,12.91.01.03.02.05.03.08,1.48,3.63,2.28,7.58,2.28,11.71Z"/>
        <path class="cls-80" d="m120.14,192.22c-1.45,1.75,32-1.91,44.6-3.33-2.32,5.92-6.39,11-11.6,14.65-11.33.7-27.62,1.85-35.14,2.39h0c-5.84-2.99-10.64-7.61-13.77-13.23,20.51-3.34,49.59-5.94,61.55-6.92,0,.04-.02.07-.03.11-12.9,1.3-44.18,4.64-45.6,6.35Z"/>
        <path class="cls-12" d="m111.42,169.67l-10.94,4.37c0-.11.02-.21.03-.32h0c3.2-1.4,7.37-3.08,10.9-4.04Z"/>
        <path class="cls-20" d="m164.59,165.81l-63.94,16.48c-.11-.73-.2-1.46-.26-2.21,8.11-3.13,19.89-8.18,17.97-10.47-.94-1.11-3.67-.83-6.94.05l43.03-17.18c.14.11.28.22.42.33-11.49,5.25-30.02,13.82-30.94,14.85-1.34,1.51-2.45,6.24,1.12,6.67,2.56.31,26.35-5.39,39.51-8.62.01.03.02.05.03.08Z"/>
        <path class="cls-94" d="m131.05,181.02l-29.06,6.67c-.18-.52-.35-1.05-.49-1.58,6.65-1.42,28.75-4.96,29.56-5.08Z"/>
        <path class="cls-44" d="m138.84,145.79c-7.66,2.17-19.28,5.65-28.04,8.31,5.95-5.4,13.97-8.71,22.79-8.71,1.79,0,3.54.13,5.25.4Z"/>
        <path class="cls-8" d="m145.7,147.58l-25.91,11c1.3-.67,15.37-7.92,22.72-12.03,1.09.29,2.15.63,3.19,1.02Z"/>
        <path class="cls-67" d="m116.28,168.32c4.39.5,10.41-4.09,10.41-4.09l-10.78,3.95.37.14Z"/>
        <polygon class="cls-69" points="136.28 149.88 144.24 147.15 142.23 146.58 136.28 149.88"/>
        <path class="cls-93" d="m106.87,196.85c6.36-1.83,17.18-1.18,17.18-1.18l-15.95,2.58-1.23-1.4Z"/>
        <polygon class="cls-41" points="164.43 189.96 158.29 189.63 164.74 188.88 164.43 189.96"/>
      </g>
    </g>
  </g>
</svg>