<?xml version="1.0" encoding="UTF-8"?>
<svg id="Layer_1" data-name="Layer 1" xmlns="http://www.w3.org/2000/svg" viewBox="0 0 118.99 118.75">
  <defs>
    <style>
      .cls-1 {
        fill: #b8b8b8;
      }

      .cls-2 {
        fill: #ebebeb;
      }

      .cls-3 {
        fill: #dcdcdc;
      }

      .cls-4 {
        fill: #ababab;
      }

      .cls-5 {
        fill: #cdcdcd;
      }

      .cls-6 {
        fill: #e3e3e3;
      }
    </style>
  </defs>
  <g>
    <rect class="cls-3" x="57.86" width=".22" height=".57"/>
    <polygon class="cls-3" points="47.95 .57 57.86 .57 57.86 0 38.03 0 38.03 .57 47.95 .57"/>
    <polygon class="cls-1" points="28.11 .57 38.03 .57 38.03 0 18.2 0 18.2 .57 28.11 .57"/>
    <polygon class="cls-4" points="18.2 .57 18.2 0 0 0 0 .57 8.08 .57 18.2 .57"/>
    <rect class="cls-2" x="57.86" y="40.43" width=".22" height="17.85"/>
    <rect class="cls-6" x="57.86" y=".57" width=".22" height="20.03"/>
    <polygon class="cls-1" points="47.95 20.6 47.95 40.43 57.86 40.43 58.08 40.43 58.08 20.6 57.86 20.6 47.95 20.6"/>
    <polygon class="cls-2" points="47.95 40.43 38.03 40.43 38.03 58.28 57.86 58.28 57.86 40.43 47.95 40.43"/>
    <polygon class="cls-4" points="38.03 .57 38.03 20.6 47.95 20.6 57.86 20.6 57.86 .57 47.95 .57 38.03 .57"/>
    <polygon class="cls-5" points="28.11 20.6 28.11 40.43 38.03 40.43 47.95 40.43 47.95 20.6 38.03 20.6 28.11 20.6"/>
    <polygon class="cls-3" points="28.11 40.43 18.2 40.43 18.2 58.28 38.03 58.28 38.03 40.43 28.11 40.43"/>
    <polygon class="cls-3" points="38.03 20.6 38.03 .57 28.11 .57 18.2 .57 18.2 20.6 28.11 20.6 38.03 20.6"/>
    <polygon class="cls-4" points="18.2 20.6 8.08 20.6 8.08 40.43 18.2 40.43 28.11 40.43 28.11 20.6 18.2 20.6"/>
    <polygon class="cls-3" points="8.08 40.43 0 40.43 0 58.28 18.2 58.28 18.2 40.43 8.08 40.43"/>
    <polygon class="cls-4" points="18.2 20.6 18.2 .57 8.08 .57 0 .57 0 20.6 8.08 20.6 18.2 20.6"/>
    <rect class="cls-2" y="20.6" width="8.08" height="19.83"/>
  </g>
  <g>
    <rect class="cls-4" x="118.77" width=".22" height=".57"/>
    <polygon class="cls-4" points="108.86 .57 118.77 .57 118.77 0 98.94 0 98.94 .57 108.86 .57"/>
    <polygon class="cls-1" points="89.03 .57 98.94 .57 98.94 0 79.11 0 79.11 .57 89.03 .57"/>
    <polygon class="cls-5" points="79.11 .57 79.11 0 60.91 0 60.91 .57 68.99 .57 79.11 .57"/>
    <rect class="cls-3" x="118.77" y="40.43" width=".22" height="17.85"/>
    <rect class="cls-2" x="118.77" y=".57" width=".22" height="20.03"/>
    <polygon class="cls-1" points="108.86 20.6 108.86 40.43 118.77 40.43 118.99 40.43 118.99 20.6 118.77 20.6 108.86 20.6"/>
    <polygon class="cls-3" points="108.86 40.43 98.94 40.43 98.94 58.28 118.77 58.28 118.77 40.43 108.86 40.43"/>
    <polygon class="cls-5" points="98.94 .57 98.94 20.6 108.86 20.6 118.77 20.6 118.77 .57 108.86 .57 98.94 .57"/>
    <polygon class="cls-6" points="89.03 20.6 89.03 40.43 98.94 40.43 108.86 40.43 108.86 20.6 98.94 20.6 89.03 20.6"/>
    <polygon class="cls-4" points="89.03 40.43 79.11 40.43 79.11 58.28 98.94 58.28 98.94 40.43 89.03 40.43"/>
    <polygon class="cls-4" points="98.94 20.6 98.94 .57 89.03 .57 79.11 .57 79.11 20.6 89.03 20.6 98.94 20.6"/>
    <polygon class="cls-5" points="79.11 20.6 68.99 20.6 68.99 40.43 79.11 40.43 89.03 40.43 89.03 20.6 79.11 20.6"/>
    <polygon class="cls-4" points="68.99 40.43 60.91 40.43 60.91 58.28 79.11 58.28 79.11 40.43 68.99 40.43"/>
    <polygon class="cls-5" points="79.11 20.6 79.11 .57 68.99 .57 60.91 .57 60.91 20.6 68.99 20.6 79.11 20.6"/>
    <rect class="cls-3" x="60.91" y="20.6" width="8.08" height="19.83"/>
  </g>
  <g>
    <rect class="cls-1" x="57.86" y="60.47" width=".22" height=".57"/>
    <polygon class="cls-1" points="47.95 61.04 57.86 61.04 57.86 60.47 38.03 60.47 38.03 61.04 47.95 61.04"/>
    <polygon class="cls-5" points="28.11 61.04 38.03 61.04 38.03 60.47 18.2 60.47 18.2 61.04 28.11 61.04"/>
    <polygon class="cls-6" points="18.2 61.04 18.2 60.47 0 60.47 0 61.04 8.08 61.04 18.2 61.04"/>
    <rect class="cls-3" x="57.86" y="100.9" width=".22" height="17.85"/>
    <rect class="cls-4" x="57.86" y="61.04" width=".22" height="20.03"/>
    <polygon class="cls-5" points="47.95 81.07 47.95 100.9 57.86 100.9 58.08 100.9 58.08 81.07 57.86 81.07 47.95 81.07"/>
    <polygon class="cls-3" points="47.95 100.9 38.03 100.9 38.03 118.75 57.86 118.75 57.86 100.9 47.95 100.9"/>
    <polygon class="cls-6" points="38.03 61.04 38.03 81.07 47.95 81.07 57.86 81.07 57.86 61.04 47.95 61.04 38.03 61.04"/>
    <polygon class="cls-2" points="28.11 81.07 28.11 100.9 38.03 100.9 47.95 100.9 47.95 81.07 38.03 81.07 28.11 81.07"/>
    <polygon class="cls-1" points="28.11 100.9 18.2 100.9 18.2 118.75 38.03 118.75 38.03 100.9 28.11 100.9"/>
    <polygon class="cls-1" points="38.03 81.07 38.03 61.04 28.11 61.04 18.2 61.04 18.2 81.07 28.11 81.07 38.03 81.07"/>
    <polygon class="cls-6" points="18.2 81.07 8.08 81.07 8.08 100.9 18.2 100.9 28.11 100.9 28.11 81.07 18.2 81.07"/>
    <polygon class="cls-1" points="8.08 100.9 0 100.9 0 118.75 18.2 118.75 18.2 100.9 8.08 100.9"/>
    <polygon class="cls-6" points="18.2 81.07 18.2 61.04 8.08 61.04 0 61.04 0 81.07 8.08 81.07 18.2 81.07"/>
    <rect class="cls-3" y="81.07" width="8.08" height="19.83"/>
  </g>
  <g>
    <rect class="cls-4" x="118.77" y="60.47" width=".22" height=".57"/>
    <polygon class="cls-4" points="108.86 61.04 118.77 61.04 118.77 60.47 98.94 60.47 98.94 61.04 108.86 61.04"/>
    <polygon class="cls-2" points="89.03 61.04 98.94 61.04 98.94 60.47 79.11 60.47 79.11 61.04 89.03 61.04"/>
    <polygon class="cls-5" points="79.11 61.04 79.11 60.47 60.91 60.47 60.91 61.04 68.99 61.04 79.11 61.04"/>
    <rect class="cls-3" x="118.77" y="100.9" width=".22" height="17.85"/>
    <rect class="cls-1" x="118.77" y="61.04" width=".22" height="20.03"/>
    <polygon class="cls-2" points="108.86 81.07 108.86 100.9 118.77 100.9 118.99 100.9 118.99 81.07 118.77 81.07 108.86 81.07"/>
    <polygon class="cls-3" points="108.86 100.9 98.94 100.9 98.94 118.75 118.77 118.75 118.77 100.9 108.86 100.9"/>
    <polygon class="cls-5" points="98.94 61.04 98.94 81.07 108.86 81.07 118.77 81.07 118.77 61.04 108.86 61.04 98.94 61.04"/>
    <polygon class="cls-6" points="89.03 81.07 89.03 100.9 98.94 100.9 108.86 100.9 108.86 81.07 98.94 81.07 89.03 81.07"/>
    <polygon class="cls-4" points="89.03 100.9 79.11 100.9 79.11 118.75 98.94 118.75 98.94 100.9 89.03 100.9"/>
    <polygon class="cls-4" points="98.94 81.07 98.94 61.04 89.03 61.04 79.11 61.04 79.11 81.07 89.03 81.07 98.94 81.07"/>
    <polygon class="cls-5" points="79.11 81.07 68.99 81.07 68.99 100.9 79.11 100.9 89.03 100.9 89.03 81.07 79.11 81.07"/>
    <polygon class="cls-4" points="68.99 100.9 60.91 100.9 60.91 118.75 79.11 118.75 79.11 100.9 68.99 100.9"/>
    <polygon class="cls-5" points="79.11 81.07 79.11 61.04 68.99 61.04 60.91 61.04 60.91 81.07 68.99 81.07 79.11 81.07"/>
    <rect class="cls-3" x="60.91" y="81.07" width="8.08" height="19.83"/>
  </g>
</svg>