<?xml version="1.0" encoding="UTF-8"?>
<svg xmlns="http://www.w3.org/2000/svg" xmlns:xlink="http://www.w3.org/1999/xlink" viewBox="0 0 687 659">
  <defs>
    <style>
      .cls-1 {
        fill: #beb0af;
        fill-rule: evenodd;
        mix-blend-mode: multiply;
      }

      .cls-2 {
        isolation: isolate;
      }

      .cls-3 {
        fill: url(#linear-gradient);
        opacity: .5;
      }

      .cls-4 {
        clip-path: url(#clippath);
      }

      .cls-5 {
        fill: none;
      }
    </style>
    <clipPath id="clippath">
      <polygon class="cls-5" points="683 659 683 0 241 0 8 0 8 122 8 659 241 659 241 659 683 659"/>
    </clipPath>
    <linearGradient id="linear-gradient" x1="23.278" y1="497.925" x2="760.887" y2="817.853" gradientTransform="translate(1006.45 -69.751) rotate(90)" gradientUnits="userSpaceOnUse">
      <stop offset="0" stop-color="#c19068"/>
      <stop offset=".202" stop-color="#e8cdaf"/>
      <stop offset=".444" stop-color="#d3b08d"/>
      <stop offset=".691" stop-color="#a67d59"/>
      <stop offset=".854" stop-color="#e8d1b6"/>
      <stop offset="1" stop-color="#b08258"/>
    </linearGradient>
  </defs>
  <g class="cls-2">
    <g id="Layer_1" data-name="Layer 1">
      <g class="cls-4">
        <g>
          <rect class="cls-3" x="0" y="9" width="687" height="650"/>
          <g>
            <g>
              <path class="cls-1" d="m687,26v1c-229.001,0-458,0-687,0v-1c229,0,457.999,0,687,0Z"/>
              <path class="cls-1" d="m687,45v1c-229.001,0-458,0-687,0v-1c229,0,457.999,0,687,0Z"/>
              <path class="cls-1" d="m687,64v1c-229.001,0-458,0-687,0v-1c229,0,457.999,0,687,0Z"/>
              <path class="cls-1" d="m687,82v1c-229.001,0-458,0-687,0v-1c229,0,457.999,0,687,0Z"/>
              <path class="cls-1" d="m687,101v1c-229.001,0-458,0-687,0v-1c229,0,457.999,0,687,0Z"/>
              <path class="cls-1" d="m687,119v1c-229.001,0-458,0-687,0v-1c229,0,457.999,0,687,0Z"/>
              <path class="cls-1" d="m687,138v1c-229.001,0-458,0-687,0v-1c229,0,457.999,0,687,0Z"/>
              <path class="cls-1" d="m687,157v1c-229.001,0-458,0-687,0v-1c229,0,457.999,0,687,0Z"/>
              <path class="cls-1" d="m687,175v1c-229.001,0-458,0-687,0v-1c229,0,457.999,0,687,0Z"/>
              <path class="cls-1" d="m687,194v1c-229.001,0-458,0-687,0v-1c229,0,457.999,0,687,0Z"/>
              <path class="cls-1" d="m687,212v1c-229.001,0-458,0-687,0v-1c229,0,457.999,0,687,0Z"/>
              <path class="cls-1" d="m687,231v1c-229.001,0-458,0-687,0v-1c229,0,457.999,0,687,0Z"/>
              <path class="cls-1" d="m687,250v1c-229.001,0-458,0-687,0v-1c229,0,457.999,0,687,0Z"/>
              <path class="cls-1" d="m687,268v1c-229.001,0-458,0-687,0v-1c229,0,457.999,0,687,0Z"/>
              <path class="cls-1" d="m687,287v1c-229.001,0-458,0-687,0v-1c229,0,457.999,0,687,0Z"/>
              <path class="cls-1" d="m687,305v1c-229.001,0-458,0-687,0v-1c229,0,457.999,0,687,0Z"/>
              <path class="cls-1" d="m687,324v1c-229.001,0-458,0-687,0v-1c229,0,457.999,0,687,0Z"/>
              <path class="cls-1" d="m687,343v1c-229.001,0-458,0-687,0v-1c229,0,457.999,0,687,0Z"/>
              <path class="cls-1" d="m687,361v1c-229.001,0-458,0-687,0v-1c229,0,457.999,0,687,0Z"/>
              <path class="cls-1" d="m687,380v1c-229.001,0-458,0-687,0v-1c229,0,457.999,0,687,0Z"/>
              <path class="cls-1" d="m687,398v1c-229.001,0-458,0-687,0v-1c229,0,457.999,0,687,0Z"/>
              <path class="cls-1" d="m687,417v1c-229.001,0-458,0-687,0v-1c229,0,457.999,0,687,0Z"/>
              <path class="cls-1" d="m687,436v1c-229.001,0-458,0-687,0v-1c229,0,457.999,0,687,0Z"/>
              <path class="cls-1" d="m687,454v1c-229.001,0-458,0-687,0v-1c229,0,457.999,0,687,0Z"/>
              <path class="cls-1" d="m687,473v1c-229.001,0-458,0-687,0v-1c229,0,457.999,0,687,0Z"/>
              <path class="cls-1" d="m687,491v1c-229.001,0-458,0-687,0v-1c229,0,457.999,0,687,0Z"/>
              <path class="cls-1" d="m687,510v1c-229.001,0-458,0-687,0v-1c229,0,457.999,0,687,0Z"/>
              <path class="cls-1" d="m687,529v1c-229.001,0-458,0-687,0v-1c229,0,457.999,0,687,0Z"/>
              <path class="cls-1" d="m687,547v1c-229.001,0-458,0-687,0v-1c229,0,457.999,0,687,0Z"/>
              <path class="cls-1" d="m687,566v1c-229.001,0-458,0-687,0v-1c229,0,457.999,0,687,0Z"/>
              <path class="cls-1" d="m687,584v1c-229.001,0-458,0-687,0v-1c229,0,457.999,0,687,0Z"/>
              <path class="cls-1" d="m687,603v1c-229.001,0-458,0-687,0v-1c229,0,457.999,0,687,0Z"/>
              <path class="cls-1" d="m687,622v1c-229.001,0-458,0-687,0v-1c229,0,457.999,0,687,0Z"/>
              <path class="cls-1" d="m687,640v1c-229.001,0-458,0-687,0v-1c229,0,457.999,0,687,0Z"/>
            </g>
            <path class="cls-1" d="m613,640h1c0,6.33,0,12.665,0,19h-1c0-6.335,0-12.67,0-19h0Zm-590,0h1c0,6.33,0,12.665,0,19h-1c0-6.335,0-12.67,0-19h0Zm98,0h1c0,6.33,0,12.665,0,19h-1c0-6.335,0-12.67,0-19h0Zm99,0h1c0,6.33,0,12.665,0,19h-1c0-6.335,0-12.67,0-19h0Zm98,0h1c0,6.33,0,12.665,0,19h-1c0-6.335,0-12.67,0-19h0Zm98,0h1v19h-1c0-6.335,0-12.67,0-19h0Zm99,0h1v19h-1c0-6.335,0-12.67,0-19Z"/>
            <path class="cls-1" d="m662,621h1c0,6.668,0,13.337,0,20h-1c0-6.663,0-13.332,0-20h0Zm-590,0h1c0,6.668,0,13.337,0,20h-1c0-6.663,0-13.332,0-20h0Zm99,0h1c0,6.668,0,13.337,0,20h-1c0-6.663,0-13.332,0-20h0Zm98,0h1c0,6.668,0,13.337,0,20h-1c0-6.663,0-13.332,0-20h0Zm98,0h1c0,6.668,0,13.337,0,20h-1c0-6.663,0-13.332,0-20h0Zm99,0h1c0,6.668,0,13.337,0,20h-1c0-6.663,0-13.332,0-20h0Zm98,0h1c0,6.668,0,13.337,0,20h-1c0-6.663,0-13.332,0-20Z"/>
            <path class="cls-1" d="m613,9h1c0,6.333,0,12.665,0,19h-1c0-6.335,0-12.667,0-19h0ZM23,9h1c0,6.333,0,12.665,0,19h-1c0-6.335,0-12.667,0-19h0Zm98,0h1v19h-1c0-6.335,0-12.667,0-19h0Zm99,0h1c0,6.333,0,12.665,0,19h-1c0-6.335,0-12.667,0-19h0Zm98,0h1c0,6.333,0,12.665,0,19h-1c0-6.335,0-12.667,0-19h0Zm98,0h1c0,6.333,0,12.665,0,19h-1c0-6.335,0-12.667,0-19h0Zm99,0h1c0,6.333,0,12.665,0,19h-1c0-6.335,0-12.667,0-19Z"/>
            <path class="cls-1" d="m662,584h1c0,6.669,0,13.339,0,20h-1c0-6.661,0-13.331,0-20h0Zm-590,0h1c0,6.669,0,13.339,0,20h-1c0-6.661,0-13.331,0-20h0Zm99,0h1c0,6.669,0,13.339,0,20h-1c0-6.661,0-13.331,0-20h0Zm98,0h1v20h-1c0-6.661,0-13.331,0-20h0Zm98,0h1c0,6.669,0,13.339,0,20h-1c0-6.661,0-13.331,0-20h0Zm99,0h1c0,6.669,0,13.339,0,20h-1c0-6.661,0-13.331,0-20h0Zm98,0h1c0,6.669,0,13.339,0,20h-1c0-6.661,0-13.331,0-20Z"/>
            <path class="cls-1" d="m613,603h1c0,6.67,0,13.33,0,20h-1c0-6.67,0-13.33,0-20h0Zm-590,0h1c0,6.67,0,13.33,0,20h-1c0-6.67,0-13.33,0-20h0Zm98,0h1c0,6.67,0,13.33,0,20h-1c0-6.67,0-13.33,0-20h0Zm99,0h1c0,6.67,0,13.33,0,20h-1c0-6.67,0-13.33,0-20h0Zm98,0h1c0,6.67,0,13.33,0,20h-1c0-6.67,0-13.33,0-20h0Zm98,0h1c0,6.67,0,13.33,0,20h-1c0-6.67,0-13.33,0-20h0Zm99,0h1c0,6.67,0,13.33,0,20h-1c0-6.67,0-13.33,0-20Z"/>
            <path class="cls-1" d="m662,547h1c0,6.665,0,13.335,0,20h-1c0-6.665,0-13.335,0-20h0Zm-590,0h1c0,6.665,0,13.335,0,20h-1c0-6.665,0-13.335,0-20h0Zm99,0h1c0,6.665,0,13.335,0,20h-1c0-6.665,0-13.335,0-20h0Zm98,0h1c0,6.665,0,13.335,0,20h-1v-20h0Zm98,0h1c0,6.665,0,13.335,0,20h-1c0-6.665,0-13.335,0-20h0Zm99,0h1c0,6.665,0,13.335,0,20h-1v-20h0Zm98,0h1c0,6.665,0,13.335,0,20h-1v-20Z"/>
            <path class="cls-1" d="m613,566h1c0,6.663,0,13.332,0,20h-1c0-6.668,0-13.337,0-20h0Zm-590,0h1c0,6.663,0,13.332,0,20h-1c0-6.668,0-13.337,0-20h0Zm98,0h1c0,6.663,0,13.332,0,20h-1c0-6.668,0-13.337,0-20h0Zm99,0h1c0,6.663,0,13.332,0,20h-1c0-6.668,0-13.337,0-20h0Zm98,0h1c0,6.663,0,13.332,0,20h-1c0-6.668,0-13.337,0-20h0Zm98,0h1c0,6.663,0,13.332,0,20h-1c0-6.668,0-13.337,0-20h0Zm99,0h1c0,6.663,0,13.332,0,20h-1c0-6.668,0-13.337,0-20Z"/>
            <path class="cls-1" d="m662,510h1c0,6.669,0,13.333,0,20h-1c0-6.667,0-13.331,0-20h0Zm-590,0h1c0,6.669,0,13.333,0,20h-1c0-6.667,0-13.331,0-20h0Zm99,0h1c0,6.669,0,13.333,0,20h-1c0-6.667,0-13.331,0-20h0Zm98,0h1c0,6.669,0,13.333,0,20h-1c0-6.667,0-13.331,0-20h0Zm98,0h1c0,6.669,0,13.333,0,20h-1c0-6.667,0-13.331,0-20h0Zm99,0h1c0,6.669,0,13.333,0,20h-1c0-6.667,0-13.331,0-20h0Zm98,0h1c0,6.669,0,13.333,0,20h-1c0-6.667,0-13.331,0-20Z"/>
            <path class="cls-1" d="m613,528h1c0,6.664,0,13.333,0,20h-1c0-6.667,0-13.336,0-20h0Zm-590,0h1c0,6.664,0,13.333,0,20h-1c0-6.667,0-13.336,0-20h0Zm98,0h1c0,6.664,0,13.333,0,20h-1c0-6.667,0-13.336,0-20h0Zm99,0h1c0,6.664,0,13.333,0,20h-1c0-6.667,0-13.336,0-20h0Zm98,0h1c0,6.664,0,13.333,0,20h-1c0-6.667,0-13.336,0-20h0Zm98,0h1c0,6.664,0,13.333,0,20h-1c0-6.667,0-13.336,0-20h0Zm99,0h1c0,6.664,0,13.333,0,20h-1c0-6.667,0-13.336,0-20Z"/>
            <path class="cls-1" d="m662,473h1c0,6.667,0,13.33,0,20h-1c0-6.67,0-13.333,0-20h0Zm-590,0h1c0,6.667,0,13.33,0,20h-1c0-6.67,0-13.333,0-20h0Zm99,0h1c0,6.667,0,13.33,0,20h-1c0-6.67,0-13.333,0-20h0Zm98,0h1c0,6.667,0,13.33,0,20h-1c0-6.67,0-13.333,0-20h0Zm98,0h1c0,6.667,0,13.33,0,20h-1c0-6.67,0-13.333,0-20h0Zm99,0h1c0,6.667,0,13.33,0,20h-1c0-6.67,0-13.333,0-20h0Zm98,0h1v20h-1c0-6.67,0-13.333,0-20Z"/>
            <path class="cls-1" d="m613,491h1c0,6.667,0,13.336,0,20h-1c0-6.664,0-13.333,0-20h0Zm-590,0h1c0,6.667,0,13.336,0,20h-1c0-6.664,0-13.333,0-20h0Zm98,0h1c0,6.667,0,13.336,0,20h-1v-20h0Zm99,0h1c0,6.667,0,13.336,0,20h-1c0-6.664,0-13.333,0-20h0Zm98,0h1c0,6.667,0,13.336,0,20h-1c0-6.664,0-13.333,0-20h0Zm98,0h1c0,6.667,0,13.336,0,20h-1c0-6.664,0-13.333,0-20h0Zm99,0h1c0,6.667,0,13.336,0,20h-1c0-6.664,0-13.333,0-20Z"/>
            <path class="cls-1" d="m662,435h1c0,6.663,0,13.331,0,20h-1c0-6.669,0-13.337,0-20h0Zm-590,0h1c0,6.663,0,13.331,0,20h-1c0-6.669,0-13.337,0-20h0Zm99,0h1c0,6.663,0,13.331,0,20h-1c0-6.669,0-13.337,0-20h0Zm98,0h1c0,6.663,0,13.331,0,20h-1c0-6.669,0-13.337,0-20h0Zm98,0h1c0,6.663,0,13.331,0,20h-1v-20h0Zm99,0h1c0,6.663,0,13.331,0,20h-1c0-6.669,0-13.337,0-20h0Zm98,0h1c0,6.663,0,13.331,0,20h-1c0-6.669,0-13.337,0-20Z"/>
            <path class="cls-1" d="m613,454h1c0,6.667,0,13.333,0,20h-1c0-6.667,0-13.333,0-20h0Zm-590,0h1c0,6.667,0,13.333,0,20h-1v-20h0Zm98,0h1c0,6.667,0,13.333,0,20h-1c0-6.667,0-13.333,0-20h0Zm99,0h1c0,6.667,0,13.333,0,20h-1v-20h0Zm98,0h1c0,6.667,0,13.333,0,20h-1c0-6.667,0-13.333,0-20h0Zm98,0h1c0,6.667,0,13.333,0,20h-1c0-6.667,0-13.333,0-20h0Zm99,0h1c0,6.667,0,13.333,0,20h-1c0-6.667,0-13.333,0-20Z"/>
            <path class="cls-1" d="m662,398h1c0,6.667,0,13.332,0,20h-1c0-6.668,0-13.333,0-20h0Zm-590,0h1c0,6.667,0,13.332,0,20h-1c0-6.668,0-13.333,0-20h0Zm99,0h1c0,6.667,0,13.332,0,20h-1v-20h0Zm98,0h1c0,6.667,0,13.332,0,20h-1c0-6.668,0-13.333,0-20h0Zm98,0h1c0,6.667,0,13.332,0,20h-1v-20h0Zm99,0h1v20h-1c0-6.668,0-13.333,0-20h0Zm98,0h1c0,6.667,0,13.332,0,20h-1c0-6.668,0-13.333,0-20Z"/>
            <path class="cls-1" d="m613,417h1v20h-1c0-6.661,0-13.331,0-20h0Zm-590,0h1c0,6.669,0,13.339,0,20h-1c0-6.661,0-13.331,0-20h0Zm98,0h1c0,6.669,0,13.339,0,20h-1c0-6.661,0-13.331,0-20h0Zm99,0h1c0,6.669,0,13.339,0,20h-1c0-6.661,0-13.331,0-20h0Zm98,0h1c0,6.669,0,13.339,0,20h-1c0-6.661,0-13.331,0-20h0Zm98,0h1c0,6.669,0,13.339,0,20h-1c0-6.661,0-13.331,0-20h0Zm99,0h1c0,6.669,0,13.339,0,20h-1c0-6.661,0-13.331,0-20Z"/>
            <path class="cls-1" d="m662,361h1c0,6.665,0,13.332,0,20h-1c0-6.668,0-13.335,0-20h0Zm-590,0h1c0,6.665,0,13.332,0,20h-1c0-6.668,0-13.335,0-20h0Zm99,0h1c0,6.665,0,13.332,0,20h-1c0-6.668,0-13.335,0-20h0Zm98,0h1c0,6.665,0,13.332,0,20h-1c0-6.668,0-13.335,0-20h0Zm98,0h1v20h-1c0-6.668,0-13.335,0-20h0Zm99,0h1c0,6.665,0,13.332,0,20h-1c0-6.668,0-13.335,0-20h0Zm98,0h1c0,6.665,0,13.332,0,20h-1c0-6.668,0-13.335,0-20Z"/>
            <path class="cls-1" d="m613,380h1c0,6.668,0,13.334,0,20h-1c0-6.666,0-13.332,0-20h0Zm-590,0h1c0,6.668,0,13.334,0,20h-1c0-6.666,0-13.332,0-20h0Zm98,0h1v20h-1c0-6.666,0-13.332,0-20h0Zm99,0h1c0,6.668,0,13.334,0,20h-1c0-6.666,0-13.332,0-20h0Zm98,0h1c0,6.668,0,13.334,0,20h-1c0-6.666,0-13.332,0-20h0Zm98,0h1c0,6.668,0,13.334,0,20h-1c0-6.666,0-13.332,0-20h0Zm99,0h1c0,6.668,0,13.334,0,20h-1c0-6.666,0-13.332,0-20Z"/>
            <path class="cls-1" d="m662,324h1c0,6.668,0,13.336,0,20h-1c0-6.664,0-13.332,0-20h0Zm-590,0h1c0,6.668,0,13.336,0,20h-1c0-6.664,0-13.332,0-20h0Zm99,0h1v20h-1c0-6.664,0-13.332,0-20h0Zm98,0h1v20h-1v-20h0Zm98,0h1c0,6.668,0,13.336,0,20h-1c0-6.664,0-13.332,0-20h0Zm99,0h1c0,6.668,0,13.336,0,20h-1c0-6.664,0-13.332,0-20h0Zm98,0h1c0,6.668,0,13.336,0,20h-1v-20Z"/>
            <path class="cls-1" d="m613,342h1c0,6.666,0,13.329,0,20h-1c0-6.671,0-13.334,0-20h0Zm-590,0h1c0,6.666,0,13.329,0,20h-1c0-6.671,0-13.334,0-20h0Zm98,0h1v20h-1c0-6.671,0-13.334,0-20h0Zm99,0h1c0,6.666,0,13.329,0,20h-1v-20h0Zm98,0h1c0,6.666,0,13.329,0,20h-1c0-6.671,0-13.334,0-20h0Zm98,0h1c0,6.666,0,13.329,0,20h-1c0-6.671,0-13.334,0-20h0Zm99,0h1c0,6.666,0,13.329,0,20h-1c0-6.671,0-13.334,0-20Z"/>
            <path class="cls-1" d="m662,287h1c0,6.669,0,13.333,0,20h-1c0-6.667,0-13.331,0-20h0Zm-590,0h1c0,6.669,0,13.333,0,20h-1c0-6.667,0-13.331,0-20h0Zm99,0h1v20h-1v-20h0Zm98,0h1c0,6.669,0,13.333,0,20h-1c0-6.667,0-13.331,0-20h0Zm98,0h1c0,6.669,0,13.333,0,20h-1v-20h0Zm99,0h1c0,6.669,0,13.333,0,20h-1c0-6.667,0-13.331,0-20h0Zm98,0h1c0,6.669,0,13.333,0,20h-1c0-6.667,0-13.331,0-20Z"/>
            <path class="cls-1" d="m613,305h1c0,6.667,0,13.336,0,20h-1c0-6.664,0-13.333,0-20h0Zm-590,0h1c0,6.667,0,13.336,0,20h-1c0-6.664,0-13.333,0-20h0Zm98,0h1v20h-1c0-6.664,0-13.333,0-20h0Zm99,0h1c0,6.667,0,13.336,0,20h-1c0-6.664,0-13.333,0-20h0Zm98,0h1v20h-1c0-6.664,0-13.333,0-20h0Zm98,0h1c0,6.667,0,13.336,0,20h-1c0-6.664,0-13.333,0-20h0Zm99,0h1c0,6.667,0,13.336,0,20h-1c0-6.664,0-13.333,0-20Z"/>
            <path class="cls-1" d="m662,249h1c0,6.666,0,13.334,0,20h-1c0-6.666,0-13.334,0-20h0Zm-590,0h1c0,6.666,0,13.334,0,20h-1c0-6.666,0-13.334,0-20h0Zm99,0h1c0,6.666,0,13.334,0,20h-1c0-6.666,0-13.334,0-20h0Zm98,0h1c0,6.666,0,13.334,0,20h-1c0-6.666,0-13.334,0-20h0Zm98,0h1c0,6.666,0,13.334,0,20h-1c0-6.666,0-13.334,0-20h0Zm99,0h1c0,6.666,0,13.334,0,20h-1c0-6.666,0-13.334,0-20h0Zm98,0h1c0,6.666,0,13.334,0,20h-1c0-6.666,0-13.334,0-20Z"/>
            <path class="cls-1" d="m613,268h1c0,6.667,0,13.332,0,20h-1c0-6.668,0-13.333,0-20h0Zm-590,0h1c0,6.667,0,13.332,0,20h-1c0-6.668,0-13.333,0-20h0Zm98,0h1v20h-1v-20h0Zm99,0h1c0,6.667,0,13.332,0,20h-1c0-6.668,0-13.333,0-20h0Zm98,0h1c0,6.667,0,13.332,0,20h-1c0-6.668,0-13.333,0-20h0Zm98,0h1c0,6.667,0,13.332,0,20h-1v-20h0Zm99,0h1c0,6.667,0,13.332,0,20h-1c0-6.668,0-13.333,0-20Z"/>
            <path class="cls-1" d="m662,212h1c0,6.665,0,13.335,0,20h-1c0-6.665,0-13.335,0-20h0Zm-590,0h1c0,6.665,0,13.335,0,20h-1c0-6.665,0-13.335,0-20h0Zm99,0h1c0,6.665,0,13.335,0,20h-1c0-6.665,0-13.335,0-20h0Zm98,0h1c0,6.665,0,13.335,0,20h-1c0-6.665,0-13.335,0-20h0Zm98,0h1c0,6.665,0,13.335,0,20h-1c0-6.665,0-13.335,0-20h0Zm99,0h1c0,6.665,0,13.335,0,20h-1c0-6.665,0-13.335,0-20h0Zm98,0h1c0,6.665,0,13.335,0,20h-1c0-6.665,0-13.335,0-20Z"/>
            <path class="cls-1" d="m613,231h1c0,6.668,0,13.334,0,20h-1c0-6.666,0-13.332,0-20h0Zm-590,0h1c0,6.668,0,13.334,0,20h-1c0-6.666,0-13.332,0-20h0Zm98,0h1c0,6.668,0,13.334,0,20h-1v-20h0Zm99,0h1c0,6.668,0,13.334,0,20h-1c0-6.666,0-13.332,0-20h0Zm98,0h1c0,6.668,0,13.334,0,20h-1c0-6.666,0-13.332,0-20h0Zm98,0h1c0,6.668,0,13.334,0,20h-1c0-6.666,0-13.332,0-20h0Zm99,0h1c0,6.668,0,13.334,0,20h-1c0-6.666,0-13.332,0-20Z"/>
            <path class="cls-1" d="m662,175h1c0,6.666,0,13.335,0,20h-1c0-6.665,0-13.334,0-20h0Zm-590,0h1c0,6.666,0,13.335,0,20h-1c0-6.665,0-13.334,0-20h0Zm99,0h1v20h-1c0-6.665,0-13.334,0-20h0Zm98,0h1c0,6.666,0,13.335,0,20h-1c0-6.665,0-13.334,0-20h0Zm98,0h1c0,6.666,0,13.335,0,20h-1c0-6.665,0-13.334,0-20h0Zm99,0h1c0,6.666,0,13.335,0,20h-1c0-6.665,0-13.334,0-20h0Zm98,0h1c0,6.666,0,13.335,0,20h-1c0-6.665,0-13.334,0-20Z"/>
            <path class="cls-1" d="m613,194h1c0,6.667,0,13.331,0,20h-1c0-6.669,0-13.333,0-20h0Zm-590,0h1c0,6.667,0,13.331,0,20h-1c0-6.669,0-13.333,0-20h0Zm98,0h1c0,6.667,0,13.331,0,20h-1c0-6.669,0-13.333,0-20h0Zm99,0h1c0,6.667,0,13.331,0,20h-1c0-6.669,0-13.333,0-20h0Zm98,0h1c0,6.667,0,13.331,0,20h-1c0-6.669,0-13.333,0-20h0Zm98,0h1v20h-1c0-6.669,0-13.333,0-20h0Zm99,0h1c0,6.667,0,13.331,0,20h-1c0-6.669,0-13.333,0-20Z"/>
            <path class="cls-1" d="m662,138h1c0,6.666,0,13.334,0,20h-1c0-6.666,0-13.334,0-20h0Zm-590,0h1c0,6.666,0,13.334,0,20h-1c0-6.666,0-13.334,0-20h0Zm99,0h1c0,6.666,0,13.334,0,20h-1c0-6.666,0-13.334,0-20h0Zm98,0h1c0,6.666,0,13.334,0,20h-1c0-6.666,0-13.334,0-20h0Zm98,0h1c0,6.666,0,13.334,0,20h-1c0-6.666,0-13.334,0-20h0Zm99,0h1c0,6.666,0,13.334,0,20h-1c0-6.666,0-13.334,0-20h0Zm98,0h1v20h-1v-20Z"/>
            <path class="cls-1" d="m613,156h1c0,6.668,0,13.333,0,20h-1c0-6.667,0-13.332,0-20h0Zm-590,0h1c0,6.668,0,13.333,0,20h-1v-20h0Zm98,0h1c0,6.668,0,13.333,0,20h-1c0-6.667,0-13.332,0-20h0Zm99,0h1v20h-1v-20h0Zm98,0h1v20h-1v-20h0Zm98,0h1c0,6.668,0,13.333,0,20h-1c0-6.667,0-13.332,0-20h0Zm99,0h1c0,6.668,0,13.333,0,20h-1c0-6.667,0-13.332,0-20Z"/>
            <path class="cls-1" d="m662,101h1c0,6.666,0,13.332,0,20h-1c0-6.668,0-13.334,0-20h0Zm-590,0h1v20h-1c0-6.668,0-13.334,0-20h0Zm99,0h1v20h-1c0-6.668,0-13.334,0-20h0Zm98,0h1c0,6.666,0,13.332,0,20h-1c0-6.668,0-13.334,0-20h0Zm98,0h1c0,6.666,0,13.332,0,20h-1c0-6.668,0-13.334,0-20h0Zm99,0h1c0,6.666,0,13.332,0,20h-1c0-6.668,0-13.334,0-20h0Zm98,0h1c0,6.666,0,13.332,0,20h-1c0-6.668,0-13.334,0-20Z"/>
            <path class="cls-1" d="m613,119h1c0,6.666,0,13.332,0,20h-1c0-6.668,0-13.334,0-20h0Zm-590,0h1c0,6.666,0,13.332,0,20h-1c0-6.668,0-13.334,0-20h0Zm98,0h1c0,6.666,0,13.332,0,20h-1c0-6.668,0-13.334,0-20h0Zm99,0h1c0,6.666,0,13.332,0,20h-1c0-6.668,0-13.334,0-20h0Zm98,0h1c0,6.666,0,13.332,0,20h-1c0-6.668,0-13.334,0-20h0Zm98,0h1c0,6.666,0,13.332,0,20h-1c0-6.668,0-13.334,0-20h0Zm99,0h1c0,6.666,0,13.332,0,20h-1c0-6.668,0-13.334,0-20Z"/>
            <path class="cls-1" d="m662,63h1c0,6.667,0,13.333,0,20h-1c0-6.667,0-13.333,0-20h0Zm-590,0h1c0,6.667,0,13.333,0,20h-1c0-6.667,0-13.333,0-20h0Zm99,0h1c0,6.667,0,13.333,0,20h-1c0-6.667,0-13.333,0-20h0Zm98,0h1c0,6.667,0,13.333,0,20h-1c0-6.667,0-13.333,0-20h0Zm98,0h1c0,6.667,0,13.333,0,20h-1c0-6.667,0-13.333,0-20h0Zm99,0h1c0,6.667,0,13.333,0,20h-1c0-6.667,0-13.333,0-20h0Zm98,0h1c0,6.667,0,13.333,0,20h-1c0-6.667,0-13.333,0-20Z"/>
            <path class="cls-1" d="m613,82h1c0,6.668,0,13.334,0,20h-1c0-6.666,0-13.332,0-20h0Zm-590,0h1c0,6.668,0,13.334,0,20h-1c0-6.666,0-13.332,0-20h0Zm98,0h1c0,6.668,0,13.334,0,20h-1c0-6.666,0-13.332,0-20h0Zm99,0h1c0,6.668,0,13.334,0,20h-1c0-6.666,0-13.332,0-20h0Zm98,0h1c0,6.668,0,13.334,0,20h-1c0-6.666,0-13.332,0-20h0Zm98,0h1v20h-1c0-6.666,0-13.332,0-20h0Zm99,0h1c0,6.668,0,13.334,0,20h-1c0-6.666,0-13.332,0-20Z"/>
            <path class="cls-1" d="m662,26h1c0,6.667,0,13.335,0,20h-1c0-6.665,0-13.333,0-20h0Zm-590,0h1c0,6.667,0,13.335,0,20h-1c0-6.665,0-13.333,0-20h0Zm99,0h1c0,6.667,0,13.335,0,20h-1c0-6.665,0-13.333,0-20h0Zm98,0h1c0,6.667,0,13.335,0,20h-1c0-6.665,0-13.333,0-20h0Zm98,0h1c0,6.667,0,13.335,0,20h-1c0-6.665,0-13.333,0-20h0Zm99,0h1c0,6.667,0,13.335,0,20h-1v-20h0Zm98,0h1c0,6.667,0,13.335,0,20h-1c0-6.665,0-13.333,0-20Z"/>
            <path class="cls-1" d="m613,45h1c0,6.666,0,13.333,0,20h-1c0-6.667,0-13.334,0-20h0Zm-590,0h1v20h-1c0-6.667,0-13.334,0-20h0Zm98,0h1c0,6.666,0,13.333,0,20h-1v-20h0Zm99,0h1c0,6.666,0,13.333,0,20h-1c0-6.667,0-13.334,0-20h0Zm98,0h1c0,6.666,0,13.333,0,20h-1c0-6.667,0-13.334,0-20h0Zm98,0h1c0,6.666,0,13.333,0,20h-1c0-6.667,0-13.334,0-20h0Zm99,0h1c0,6.666,0,13.333,0,20h-1c0-6.667,0-13.334,0-20Z"/>
          </g>
        </g>
      </g>
    </g>
  </g>
</svg>