<?xml version="1.0" encoding="UTF-8"?>
<svg id="wall" xmlns="http://www.w3.org/2000/svg" viewBox="0 0 371.58 241.82">
  <defs>
    <style>
      .cls-1 {
        fill: #faf6b7;
      }
    </style>
  </defs>
  <polygon class="cls-1" points="20.07 241.82 14.26 236.72 8.45 241.82 20.07 241.82"/>
  <polygon class="cls-1" points="7.28 241.82 13.68 236.2 0 224.2 0 241.82 7.28 241.82"/>
  <polygon class="cls-1" points="72.62 241.82 66.81 236.72 61 241.82 72.62 241.82"/>
  <polygon class="cls-1" points="59.83 241.82 66.23 236.2 40.54 213.66 14.85 236.2 21.25 241.82 59.83 241.82"/>
  <polygon class="cls-1" points="39.95 213.14 14.26 190.6 0 203.12 0 223.17 14.27 235.69 39.95 213.14"/>
  <polygon class="cls-1" points="0 178.08 0 202.09 13.68 190.08 0 178.08"/>
  <polygon class="cls-1" points="125.17 241.82 119.36 236.72 113.55 241.82 125.17 241.82"/>
  <polygon class="cls-1" points="112.38 241.82 118.78 236.2 93.09 213.66 67.4 236.2 73.8 241.82 112.38 241.82"/>
  <polygon class="cls-1" points="92.5 213.14 66.81 190.6 41.13 213.14 66.81 235.69 92.5 213.14"/>
  <polygon class="cls-1" points="40.54 167.54 14.85 190.08 40.54 212.63 66.23 190.08 40.54 167.54"/>
  <polygon class="cls-1" points="39.95 167.03 14.26 144.48 0 157 0 177.05 14.27 189.57 39.95 167.03"/>
  <polygon class="cls-1" points="0 131.96 0 155.97 13.68 143.97 0 131.96"/>
  <polygon class="cls-1" points="177.72 241.82 171.91 236.72 166.1 241.82 177.72 241.82"/>
  <polygon class="cls-1" points="164.93 241.82 171.33 236.2 145.64 213.66 119.95 236.2 126.35 241.82 164.93 241.82"/>
  <polygon class="cls-1" points="119.36 235.69 145.05 213.14 119.36 190.6 93.68 213.14 119.36 235.69"/>
  <polygon class="cls-1" points="93.09 212.63 118.78 190.08 93.09 167.54 67.4 190.08 93.09 212.63"/>
  <polygon class="cls-1" points="92.5 167.03 66.81 144.48 41.13 167.02 66.81 189.57 92.5 167.03"/>
  <polygon class="cls-1" points="40.54 121.42 14.85 143.97 40.54 166.51 66.23 143.97 40.54 121.42"/>
  <polygon class="cls-1" points="39.95 120.91 14.26 98.36 0 110.88 0 130.93 14.27 143.45 39.95 120.91"/>
  <polygon class="cls-1" points="0 85.85 0 109.85 13.68 97.85 0 85.85"/>
  <polygon class="cls-1" points="230.27 241.82 224.46 236.72 218.65 241.82 230.27 241.82"/>
  <polygon class="cls-1" points="217.48 241.82 223.88 236.2 198.19 213.66 172.5 236.2 178.9 241.82 217.48 241.82"/>
  <polygon class="cls-1" points="171.91 235.69 197.6 213.14 171.91 190.6 146.23 213.14 171.91 235.69"/>
  <polygon class="cls-1" points="145.64 212.63 171.33 190.08 145.64 167.54 119.95 190.08 145.64 212.63"/>
  <polygon class="cls-1" points="119.36 189.57 145.05 167.03 119.36 144.48 93.68 167.02 119.36 189.57"/>
  <polygon class="cls-1" points="93.09 166.51 118.78 143.97 93.09 121.42 67.4 143.97 93.09 166.51"/>
  <polygon class="cls-1" points="92.5 120.91 66.81 98.36 41.13 120.91 66.81 143.45 92.5 120.91"/>
  <polygon class="cls-1" points="40.54 75.31 14.85 97.85 40.54 120.39 66.23 97.85 40.54 75.31"/>
  <polygon class="cls-1" points="39.95 74.79 14.26 52.25 0 64.76 0 84.81 14.27 97.33 39.95 74.79"/>
  <polygon class="cls-1" points="0 39.73 0 63.74 13.68 51.73 0 39.73"/>
  <polygon class="cls-1" points="282.82 241.82 277.01 236.72 271.2 241.82 282.82 241.82"/>
  <polygon class="cls-1" points="270.03 241.82 276.42 236.2 250.74 213.66 225.05 236.2 231.45 241.82 270.03 241.82"/>
  <polygon class="cls-1" points="224.46 235.69 250.15 213.14 224.46 190.6 198.77 213.14 224.46 235.69"/>
  <polygon class="cls-1" points="198.19 167.54 172.5 190.08 198.19 212.63 223.88 190.08 198.19 167.54"/>
  <polygon class="cls-1" points="171.91 189.57 197.6 167.03 171.91 144.48 146.23 167.02 171.91 189.57"/>
  <polygon class="cls-1" points="145.64 166.51 171.33 143.97 145.64 121.42 119.95 143.97 145.64 166.51"/>
  <polygon class="cls-1" points="119.36 143.45 145.05 120.91 119.36 98.36 93.68 120.91 119.36 143.45"/>
  <polygon class="cls-1" points="93.09 120.39 118.78 97.85 93.09 75.31 67.4 97.85 93.09 120.39"/>
  <polygon class="cls-1" points="92.5 74.79 66.81 52.25 41.13 74.79 66.81 97.33 92.5 74.79"/>
  <polygon class="cls-1" points="40.54 29.19 14.85 51.73 40.54 74.28 66.23 51.73 40.54 29.19"/>
  <polygon class="cls-1" points="39.95 28.67 14.26 6.13 0 18.65 0 38.7 14.27 51.22 39.95 28.67"/>
  <polygon class="cls-1" points="0 0 0 17.62 13.68 5.61 7.28 0 0 0"/>
  <polygon class="cls-1" points="335.37 241.82 329.56 236.72 323.75 241.82 335.37 241.82"/>
  <polygon class="cls-1" points="322.58 241.82 328.97 236.2 303.29 213.66 277.6 236.2 284 241.82 322.58 241.82"/>
  <polygon class="cls-1" points="277.01 190.6 251.32 213.14 277.01 235.69 302.7 213.14 277.01 190.6"/>
  <polygon class="cls-1" points="250.74 167.54 225.05 190.08 250.74 212.63 276.42 190.08 250.74 167.54"/>
  <polygon class="cls-1" points="224.46 144.48 198.77 167.02 224.46 189.57 250.15 167.03 224.46 144.48"/>
  <polygon class="cls-1" points="198.19 121.42 172.5 143.97 198.19 166.51 223.88 143.97 198.19 121.42"/>
  <polygon class="cls-1" points="171.91 143.45 197.6 120.91 171.91 98.36 146.23 120.91 171.91 143.45"/>
  <polygon class="cls-1" points="145.64 120.39 171.33 97.85 145.64 75.31 119.95 97.85 145.64 120.39"/>
  <polygon class="cls-1" points="119.36 97.33 145.05 74.79 119.36 52.25 93.68 74.79 119.36 97.33"/>
  <polygon class="cls-1" points="93.09 74.28 118.78 51.73 93.09 29.19 67.4 51.73 93.09 74.28"/>
  <polygon class="cls-1" points="92.5 28.67 66.81 6.13 41.13 28.67 66.81 51.22 92.5 28.67"/>
  <polygon class="cls-1" points="66.23 5.61 59.83 0 21.25 0 14.85 5.61 40.54 28.16 66.23 5.61"/>
  <polygon class="cls-1" points="20.08 0 8.46 0 14.27 5.1 20.08 0"/>
  <polygon class="cls-1" points="371.58 241.82 371.58 227.48 355.84 213.66 330.15 236.2 336.55 241.82 371.58 241.82"/>
  <polygon class="cls-1" points="329.56 235.69 355.25 213.14 329.56 190.6 303.87 213.14 329.56 235.69"/>
  <polygon class="cls-1" points="277.6 190.08 303.29 212.63 328.97 190.08 303.29 167.54 277.6 190.08"/>
  <polygon class="cls-1" points="277.01 144.48 251.32 167.02 277.01 189.57 302.7 167.03 277.01 144.48"/>
  <polygon class="cls-1" points="250.74 121.42 225.05 143.97 250.74 166.51 276.42 143.97 250.74 121.42"/>
  <polygon class="cls-1" points="224.46 98.36 198.77 120.91 224.46 143.45 250.15 120.91 224.46 98.36"/>
  <polygon class="cls-1" points="198.19 75.31 172.5 97.85 198.19 120.39 223.88 97.85 198.19 75.31"/>
  <polygon class="cls-1" points="171.91 97.33 197.6 74.79 171.91 52.25 146.23 74.79 171.91 97.33"/>
  <polygon class="cls-1" points="145.64 74.28 171.33 51.73 145.64 29.19 119.95 51.73 145.64 74.28"/>
  <polygon class="cls-1" points="119.36 51.22 145.05 28.67 119.36 6.13 93.68 28.67 119.36 51.22"/>
  <polygon class="cls-1" points="118.78 5.61 112.38 0 73.8 0 67.4 5.61 93.09 28.16 118.78 5.61"/>
  <polygon class="cls-1" points="72.62 0 61 0 66.81 5.1 72.62 0"/>
  <polygon class="cls-1" points="371.58 226.44 371.58 199.84 356.42 213.14 371.58 226.44"/>
  <polygon class="cls-1" points="330.15 190.08 355.84 212.63 371.58 198.81 371.58 181.36 355.84 167.54 330.15 190.08"/>
  <polygon class="cls-1" points="329.56 189.57 355.25 167.03 329.56 144.48 303.87 167.02 329.56 189.57"/>
  <polygon class="cls-1" points="277.6 143.97 303.29 166.51 328.97 143.97 303.29 121.42 277.6 143.97"/>
  <polygon class="cls-1" points="277.01 98.36 251.32 120.91 277.01 143.45 302.7 120.91 277.01 98.36"/>
  <polygon class="cls-1" points="250.74 75.31 225.05 97.85 250.74 120.39 276.42 97.85 250.74 75.31"/>
  <polygon class="cls-1" points="224.46 52.25 198.77 74.79 224.46 97.33 250.15 74.79 224.46 52.25"/>
  <polygon class="cls-1" points="198.19 29.19 172.5 51.73 198.19 74.28 223.88 51.73 198.19 29.19"/>
  <polygon class="cls-1" points="146.23 28.67 171.91 51.22 197.6 28.67 171.91 6.13 146.23 28.67"/>
  <polygon class="cls-1" points="171.33 5.61 164.93 0 126.35 0 119.95 5.61 145.64 28.16 171.33 5.61"/>
  <polygon class="cls-1" points="125.17 0 113.55 0 119.36 5.1 125.17 0"/>
  <polygon class="cls-1" points="371.58 180.33 371.58 153.72 356.42 167.02 371.58 180.33"/>
  <polygon class="cls-1" points="330.15 143.97 355.84 166.51 371.58 152.69 371.58 135.24 355.84 121.42 330.15 143.97"/>
  <polygon class="cls-1" points="329.56 143.45 355.25 120.91 329.56 98.36 303.87 120.91 329.56 143.45"/>
  <polygon class="cls-1" points="277.6 97.85 303.29 120.39 328.97 97.85 303.29 75.31 277.6 97.85"/>
  <polygon class="cls-1" points="277.01 52.25 251.32 74.79 277.01 97.33 302.7 74.79 277.01 52.25"/>
  <polygon class="cls-1" points="250.74 29.19 225.05 51.73 250.74 74.28 276.42 51.73 250.74 29.19"/>
  <polygon class="cls-1" points="224.46 6.13 198.77 28.67 224.46 51.22 250.15 28.67 224.46 6.13"/>
  <polygon class="cls-1" points="223.88 5.61 217.48 0 178.9 0 172.5 5.61 198.19 28.16 223.88 5.61"/>
  <polygon class="cls-1" points="177.72 0 166.1 0 171.91 5.1 177.72 0"/>
  <polygon class="cls-1" points="371.58 134.21 371.58 107.6 356.42 120.91 371.58 134.21"/>
  <polygon class="cls-1" points="330.15 97.85 355.84 120.39 371.58 106.58 371.58 89.12 355.84 75.31 330.15 97.85"/>
  <polygon class="cls-1" points="329.56 97.33 355.25 74.79 329.56 52.25 303.87 74.79 329.56 97.33"/>
  <polygon class="cls-1" points="277.6 51.73 303.29 74.28 328.97 51.73 303.29 29.19 277.6 51.73"/>
  <polygon class="cls-1" points="277.01 6.13 251.32 28.67 277.01 51.22 302.7 28.67 277.01 6.13"/>
  <polygon class="cls-1" points="276.42 5.61 270.03 0 231.45 0 225.05 5.61 250.74 28.16 276.42 5.61"/>
  <polygon class="cls-1" points="230.27 0 218.65 0 224.46 5.1 230.27 0"/>
  <polygon class="cls-1" points="371.58 88.09 371.58 61.49 356.42 74.79 371.58 88.09"/>
  <polygon class="cls-1" points="330.15 51.73 355.84 74.28 371.58 60.46 371.58 43.01 355.84 29.19 330.15 51.73"/>
  <polygon class="cls-1" points="329.56 51.22 355.25 28.67 329.56 6.13 303.87 28.67 329.56 51.22"/>
  <polygon class="cls-1" points="328.97 5.61 322.58 0 284 0 277.6 5.61 303.29 28.16 328.97 5.61"/>
  <polygon class="cls-1" points="282.82 0 271.2 0 277.01 5.1 282.82 0"/>
  <polygon class="cls-1" points="371.58 41.97 371.58 15.37 356.42 28.67 371.58 41.97"/>
  <polygon class="cls-1" points="371.58 14.34 371.58 0 336.55 0 330.15 5.61 355.84 28.16 371.58 14.34"/>
  <polygon class="cls-1" points="335.37 0 323.75 0 329.56 5.1 335.37 0"/>
</svg>