<?xml version="1.0" encoding="UTF-8"?>
<svg id="Layer_1" data-name="Layer 1" xmlns="http://www.w3.org/2000/svg" viewBox="0 0 119.6 119.6">
  <defs>
    <style>
      .cls-1 {
        fill: #d8d8d8;
      }

      .cls-2 {
        fill: #bfbfbf;
      }

      .cls-3 {
        fill: #d6d6d6;
      }

      .cls-4 {
        fill: #eaeaea;
      }

      .cls-5 {
        fill: #c1c1c1;
      }

      .cls-6 {
        fill: #ababab;
      }

      .cls-7 {
        fill: #f7f7f7;
      }

      .cls-8 {
        fill: #a8a8a8;
      }

      .cls-9 {
        fill: #d0d0d0;
      }

      .cls-10 {
        fill: #ececec;
      }
    </style>
  </defs>
  <polygon class="cls-4" points="114.33 0 119.6 0 119.6 2.23 117.98 3.24 114.33 0"/>
  <path class="cls-9" d="m90.2,27.45l5.11-2.16,1.82-6.27-1.82-6.48-5.26-1.82-4.86,2.23-2.23,6.07,1.82,5.87,5.26,2.23.15.34ZM112.92,0h1.42l3.64,3.24,1.62-1.01v19.43l-.4-.81-5.26-1.62-3.44,4.86v9.71l7.49,6.88,1.62-1.01v5.87h-.4l-6.48-8.3-9.31-3.04-6.68,4.25-.81,8.9,7.89,8.5,2.65.13-.02.27h-2.23l-2.23,2.63h-5.67l.81-2.63-1.82-6.27-5.26-1.82-4.86,2.23-2.23,5.87.81,2.63h-1.62l-.4-.81-5.26-1.42-1.42,2.23h-2.63v-.81l-3.44-1.82.02-.27,5.24.27,7.08-3.04.4-7.69-6.27-8.3-9.31-3.04-5.46,3.24v-3.24l2.83-1.01-2.83-4.45V12.34l5.67,6.27,7.89.4,7.08-3.04.4-7.89-6.27-8.09h1.62l3.64,3.24,4.45-2.63v-.61h1.01l.81,6.88,3.04,1.21,4.45-4.05-.4-4.05h4.25l-1.62,1.01-.81,8.9,7.89,8.7,7.89.4,7.08-3.04.4-7.89-6.27-8.09Zm-6.48,19.02h-2.23l-2.63,2.83-1.21,7.49,3.84,3.84,4.45-3.04,1.21-9.31-3.44-1.82Zm-37.44,0h-2.23l-2.63,2.83-1.01,7.49,3.64,3.84,4.45-3.04,1.21-9.31-3.44-1.82Zm12.75,1.82l-5.26-1.62-3.24,4.86v9.71l7.49,6.88,4.45-2.63.61-9.31-4.05-7.89Zm19.02,12.34l-3.24-5.67-1.62,4.45,1.21,2.63,3.64-1.42Zm-10.73-3.84l-1.82.4-2.02,7.49.81,7.08,3.04,1.21,4.45-4.25-.81-8.5-3.64-3.44Z"/>
  <polygon class="cls-4" points="98.35 0 112.92 0 119.19 8.09 118.79 15.99 111.7 19.02 103.81 18.62 95.92 9.92 96.73 1.01 98.35 0"/>
  <polygon class="cls-4" points="86.21 0 94.1 0 94.5 4.05 90.05 8.09 87.02 6.88 86.21 0"/>
  <polygon class="cls-4" points="77.1 0 85.19 0 85.19 .61 80.74 3.24 77.1 0"/>
  <polygon class="cls-4" points="61.11 0 75.48 0 81.75 8.09 81.35 15.99 74.27 19.02 66.37 18.62 60.71 12.34 60.71 .2 61.11 0"/>
  <polygon class="cls-1" points="53.63 0 58.89 0 58.89 2.23 57.27 3.24 53.63 0"/>
  <path class="cls-9" d="m29.29,27.45l5.11-2.16,1.82-6.48-1.82-6.27-5.26-1.82-4.86,2.23-2.23,5.87,1.82,6.07,5.26,2.23.15.34ZM52.01,0h1.62l3.64,3.24,1.62-1.01v19.43l-.61-1.01-5.26-1.42-3.24,4.86v9.71l7.49,6.68,1.62-.81v19.02h-.2l-.4-.61-5.26-1.42-1.42,2.02h-2.63v-.61l-3.24-1.82h-2.43l-2.02,2.43h-5.67l.61-2.43-1.82-6.48-5.26-1.82-4.86,2.23-2.23,6.07.81,2.43h-1.62l-.2-.61-5.26-1.42-1.62,2.02h-2.63v-.61l-3.24-1.82.02-.27,5.24.27,7.08-3.04.4-7.89-6.48-8.09-9.31-3.04-5.26,3.24v-3.24l2.63-1.21-2.63-4.45V12.34l5.67,6.07,7.89.4,7.08-3.04.4-7.69L14.77,0h1.42l3.64,3.24,4.45-2.63.2-.61h1.01l.81,6.88,2.83,1.21,4.45-4.25-.2-3.84h4.25l-1.62,1.01-.81,8.9,7.89,8.5,7.69.4,7.08-3.04.4-7.69L52.01,0Zm-6.27,18.82h-2.43l-2.43,3.04-1.21,7.49,3.64,3.64,4.65-2.83,1.01-9.51-3.24-1.82Zm-37.44,0h-2.23l-2.63,3.04-1.21,7.49,3.84,3.64,4.45-2.83,1.01-9.51-3.24-1.82Zm12.75,1.82l-5.26-1.42-3.44,4.86v9.71l7.49,6.68,4.45-2.63.81-9.31-4.05-7.89Zm19.02,12.34l-3.44-5.46-1.42,4.45,1.01,2.63,3.84-1.62Zm-10.93-3.64l-1.82.4-1.82,7.49.81,7.08,2.83,1.01,4.45-4.05-.61-8.5-3.84-3.44Zm13.56,4.86l-6.68,4.05-.81,9.11,7.89,8.5,7.69.4,7.08-3.04.4-7.89-6.27-8.09-9.31-3.04Z"/>
  <polygon class="cls-4" points="37.64 0 52.01 0 58.28 8.09 57.88 15.78 50.79 18.82 43.1 18.41 35.21 9.92 36.02 1.01 37.64 0"/>
  <polygon class="cls-1" points="25.5 0 33.39 0 33.59 3.84 29.14 8.09 26.31 6.88 25.5 0"/>
  <polygon class="cls-1" points="16.19 0 24.49 0 24.28 .61 19.83 3.24 16.19 0"/>
  <polygon class="cls-4" points=".2 0 14.77 0 21.05 8.09 20.64 15.78 13.56 18.82 5.67 18.41 0 12.34 0 0 .2 0"/>
  <polygon class="cls-1" points="24.28 12.95 29.14 10.73 34.4 12.55 36.22 18.82 34.4 25.3 29.29 27.45 29.14 27.12 23.88 24.89 22.06 18.82 24.28 12.95"/>
  <polygon class="cls-5" points="85.19 12.95 90.05 10.73 95.31 12.55 97.13 19.02 95.31 25.3 90.2 27.45 90.05 27.12 84.79 24.89 82.97 19.02 85.19 12.95"/>
  <polygon class="cls-4" points="43.31 18.82 45.73 18.82 48.97 20.64 47.96 30.15 43.31 32.98 39.66 29.34 40.88 21.85 43.31 18.82"/>
  <polygon class="cls-6" points="6.07 18.82 8.3 18.82 11.53 20.64 10.52 30.15 6.07 32.98 2.23 29.34 3.44 21.85 6.07 18.82"/>
  <polygon class="cls-5" points="104.22 19.02 106.44 19.02 109.88 20.84 108.67 30.15 104.22 33.19 100.37 29.34 101.59 21.85 104.22 19.02"/>
  <polygon class="cls-4" points="66.78 19.02 69 19.02 72.45 20.84 71.23 30.15 66.78 33.19 63.14 29.34 64.15 21.85 66.78 19.02"/>
  <polygon class="cls-4" points="15.78 19.22 21.05 20.64 25.09 28.53 24.28 37.84 19.83 40.47 12.34 33.79 12.34 24.08 15.78 19.22"/>
  <polygon class="cls-4" points="53.02 19.22 58.28 20.64 58.89 21.65 58.89 39.66 57.27 40.47 49.78 33.79 49.78 24.08 53.02 19.22"/>
  <polygon class="cls-6" points="76.49 19.22 81.75 20.84 85.8 28.74 85.19 38.04 80.74 40.67 73.25 33.79 73.25 24.08 76.49 19.22"/>
  <polygon class="cls-6" points="113.93 19.22 119.19 20.84 119.6 21.65 119.6 39.66 117.98 40.67 110.49 33.79 110.49 24.08 113.93 19.22"/>
  <polygon class="cls-4" points="36.63 27.52 40.07 32.98 36.22 34.6 35.21 31.97 36.63 27.52"/>
  <polygon class="cls-4" points="97.54 27.52 100.78 33.19 97.13 34.6 95.92 31.97 97.54 27.52"/>
  <polygon class="cls-1" points="0 28.53 2.63 32.98 0 34.2 0 28.53"/>
  <polygon class="cls-4" points="60.71 28.74 63.54 33.19 60.71 34.2 60.71 28.74"/>
  <polygon class="cls-1" points="27.32 29.75 29.14 29.34 32.98 32.78 33.59 41.28 29.14 45.33 26.31 44.32 25.5 37.23 27.32 29.75"/>
  <polygon class="cls-4" points="88.23 29.75 90.05 29.34 93.69 32.78 94.5 41.28 90.05 45.53 87.02 44.32 86.21 37.23 88.23 29.75"/>
  <polygon class="cls-4" points="0 37.44 5.26 34.2 14.57 37.23 21.05 45.33 20.64 53.22 13.56 56.26 8.31 55.99 5.67 55.85 0 49.58 0 37.44"/>
  <polygon class="cls-6" points="36.02 38.25 42.7 34.2 52.01 37.23 58.28 45.33 57.88 53.22 50.79 56.26 43.1 55.85 35.21 47.35 36.02 38.25"/>
  <polygon class="cls-3" points="60.71 37.44 66.17 34.2 75.48 37.23 81.75 45.53 81.35 53.22 74.27 56.26 69.02 55.99 66.37 55.85 60.71 49.78 60.71 37.44"/>
  <polygon class="cls-5" points="96.73 38.45 103.41 34.2 112.71 37.23 119.19 45.53 118.79 53.22 111.7 56.26 106.46 55.99 103.81 55.85 95.92 47.35 96.73 38.45"/>
  <polygon class="cls-9" points="119.19 45.53 119.6 45.53 119.6 58.89 119.19 58.08 113.93 56.66 112.51 58.89 109.68 58.89 109.88 58.08 106.44 56.26 106.46 55.99 111.7 56.26 118.79 53.22 119.19 45.53"/>
  <polygon class="cls-4" points="24.28 50.19 29.14 47.96 34.4 49.78 36.22 56.26 35.62 58.68 22.87 58.68 22.06 56.26 24.28 50.19"/>
  <polygon class="cls-4" points="85.19 50.39 90.05 48.16 95.31 49.98 97.13 56.26 96.32 58.89 83.78 58.89 82.97 56.26 85.19 50.39"/>
  <polygon class="cls-4" points="60.71 49.78 66.37 55.85 69.02 55.99 69 56.26 66.78 56.26 64.55 58.89 60.71 58.89 60.71 49.78"/>
  <polygon class="cls-4" points="104.22 56.26 106.44 56.26 109.88 58.08 109.68 58.89 101.99 58.89 104.22 56.26"/>
  <polygon class="cls-4" points="66.78 56.26 69 56.26 72.45 58.08 72.45 58.89 64.55 58.89 66.78 56.26"/>
  <polygon class="cls-4" points="43.31 56.26 45.73 56.26 48.97 58.08 48.97 58.68 41.28 58.68 43.31 56.26"/>
  <polygon class="cls-1" points="6.07 56.26 8.3 56.26 11.53 58.08 11.53 58.68 3.84 58.68 6.07 56.26"/>
  <polygon class="cls-1" points="15.78 56.66 21.05 58.08 21.25 58.68 14.17 58.68 15.78 56.66"/>
  <polygon class="cls-4" points="53.02 56.66 58.28 58.08 58.68 58.68 51.6 58.68 53.02 56.66"/>
  <polygon class="cls-4" points="76.49 56.66 81.75 58.08 82.16 58.89 75.08 58.89 76.49 56.66"/>
  <polygon class="cls-4" points="113.93 56.66 119.19 58.08 119.6 58.89 112.51 58.89 113.93 56.66"/>
  <polygon class="cls-9" points="114.33 60.71 119.6 60.71 119.6 63.14 117.98 64.15 114.33 60.71"/>
  <path class="cls-9" d="m90.2,88.36l5.11-2.36,1.82-6.27-1.82-6.27-5.26-2.02-4.86,2.43-2.23,5.87,1.82,6.07,5.26,2.23.15.34Zm22.72-27.66h1.42l3.64,3.44,1.62-1.01v19.43l-.4-1.01-5.26-1.42-3.44,4.86v9.71l7.49,6.68,1.62-.81v5.67h-.4l-6.48-8.09-9.31-3.04-6.68,4.05-.81,8.9,7.89,8.7,2.65.13-.02.27h-2.23l-2.23,2.43h-5.67l.81-2.43-1.82-6.48-5.26-1.82-4.86,2.23-2.23,6.07.81,2.43h-1.62l-.4-.61-5.26-1.42-1.42,2.02h-2.63v-.61l-3.44-1.82.02-.27,5.24.27,7.08-3.04.4-7.89-6.27-8.09-9.31-3.04-5.46,3.24v-3.24l2.83-1.21-2.83-4.45v-16.39l5.67,6.27,7.89.4,7.08-3.04.4-7.69-6.27-8.3h1.62l3.64,3.44,4.45-2.63v-.81h1.01l.81,7.08,3.04,1.21,4.45-4.25-.4-4.05h4.25l-1.62,1.01-.81,9.11,7.89,8.5,7.89.4,7.08-3.04.4-7.69-6.27-8.3Zm-6.48,19.02h-2.23l-2.63,3.04-1.21,7.49,3.84,3.64,4.45-3.04,1.21-9.31-3.44-1.82Zm-37.44,0h-2.23l-2.63,3.04-1.01,7.49,3.64,3.64,4.45-3.04,1.21-9.31-3.44-1.82Zm12.75,1.82l-5.26-1.42-3.24,4.86v9.71l7.49,6.68,4.45-2.63.61-9.31-4.05-7.89Zm19.02,12.34l-3.24-5.46-1.62,4.45,1.21,2.63,3.64-1.62Zm-10.73-3.64l-1.82.4-2.02,7.49.81,7.08,3.04,1.01,4.45-4.05-.81-8.7-3.64-3.24Z"/>
  <polygon class="cls-8" points="98.35 60.71 112.92 60.71 119.19 69.01 118.79 76.69 111.7 79.73 103.81 79.33 95.92 70.83 96.73 61.72 98.35 60.71"/>
  <polygon class="cls-8" points="86.21 60.71 94.1 60.71 94.5 64.76 90.05 69.01 87.02 67.79 86.21 60.71"/>
  <polygon class="cls-10" points="77.1 60.71 85.19 60.71 85.19 61.52 80.74 64.15 77.1 60.71"/>
  <polygon class="cls-10" points="61.11 60.71 75.48 60.71 81.75 69.01 81.35 76.69 74.27 79.73 66.37 79.33 60.71 73.05 60.71 60.91 61.11 60.71"/>
  <polygon class="cls-10" points="53.63 60.71 58.89 60.71 58.89 63.14 57.27 63.95 53.63 60.71"/>
  <path class="cls-9" d="m29.29,88.16l5.11-2.16,1.82-6.27-1.82-6.48-5.26-1.82-4.86,2.23-2.23,6.07,1.82,5.87,5.26,2.23.15.34Zm22.72-27.45h1.62l3.64,3.24,1.62-.81v19.22l-.61-.81-5.26-1.42-3.24,4.86v9.71l7.49,6.68,1.62-1.01v19.22h-.2l-.4-.61-5.26-1.62-1.42,2.23h-2.63v-.61l-3.24-2.02h-2.43l-2.02,2.63h-5.67l.61-2.63-1.82-6.27-5.26-1.82-4.86,2.23-2.23,5.87.81,2.63h-1.62l-.2-.61-5.26-1.62-1.62,2.23h-2.63v-.61l-3.24-2.02v-.13l5.26.13,7.08-2.83.4-7.89-6.48-8.3-9.31-3.04-5.26,3.24v-3.24l2.63-1.01-2.63-4.45v-16.39l5.67,6.27,7.89.4,7.08-3.04.4-7.89-6.27-8.09h1.42l3.64,3.24,4.45-2.63.2-.61h1.01l.81,7.08,2.83,1.01,4.45-4.05-.2-4.05h4.25l-1.62,1.01-.81,8.9,7.89,8.7,7.69.4,7.08-3.04.4-7.89-6.27-8.09Zm-6.27,19.02h-2.43l-2.43,2.83-1.21,7.49,3.64,3.84,4.65-3.04,1.01-9.31-3.24-1.82Zm-37.44,0h-2.23l-2.63,2.83-1.21,7.49,3.84,3.84,4.45-3.04,1.01-9.31-3.24-1.82Zm12.75,1.82l-5.26-1.42-3.44,4.86v9.71l7.49,6.68,4.45-2.63.81-9.31-4.05-7.89Zm19.02,12.34l-3.44-5.67-1.42,4.45,1.01,2.63,3.84-1.42Zm-10.93-3.84l-1.82.4-1.82,7.49.81,7.08,2.83,1.21,4.45-4.05-.61-8.7-3.84-3.44Zm13.56,4.86l-6.68,4.25-.81,8.9,7.89,8.7,7.69.2,7.08-2.83.4-7.89-6.27-8.3-9.31-3.04Z"/>
  <polygon class="cls-2" points="37.64 60.71 52.01 60.71 58.28 68.8 57.88 76.69 50.79 79.73 43.1 79.33 35.21 70.62 36.02 61.72 37.64 60.71"/>
  <polygon class="cls-10" points="25.5 60.71 33.39 60.71 33.59 64.76 29.14 68.8 26.31 67.79 25.5 60.71"/>
  <polygon class="cls-10" points="16.19 60.71 24.49 60.71 24.28 61.32 19.83 63.95 16.19 60.71"/>
  <polygon class="cls-1" points=".2 60.71 14.77 60.71 21.05 68.8 20.64 76.69 13.56 79.73 5.67 79.33 0 73.05 0 60.91 .2 60.71"/>
  <polygon class="cls-1" points="24.28 73.66 29.14 71.43 34.4 73.25 36.22 79.73 34.4 86 29.29 88.16 29.14 87.82 23.88 85.6 22.06 79.73 24.28 73.66"/>
  <polygon class="cls-10" points="85.19 73.86 90.05 71.43 95.31 73.46 97.13 79.73 95.31 86 90.2 88.36 90.05 88.03 84.79 85.8 82.97 79.73 85.19 73.86"/>
  <polygon class="cls-8" points="104.22 79.73 106.44 79.73 109.88 81.55 108.67 90.86 104.22 93.9 100.37 90.25 101.59 82.77 104.22 79.73"/>
  <polygon class="cls-8" points="66.78 79.73 69 79.73 72.45 81.55 71.23 90.86 66.78 93.9 63.14 90.25 64.15 82.77 66.78 79.73"/>
  <polygon class="cls-2" points="43.31 79.73 45.73 79.73 48.97 81.55 47.96 90.86 43.31 93.9 39.66 90.05 40.88 82.56 43.31 79.73"/>
  <polygon class="cls-2" points="6.07 79.73 8.3 79.73 11.53 81.55 10.52 90.86 6.07 93.9 2.23 90.05 3.44 82.56 6.07 79.73"/>
  <polygon class="cls-7" points="15.78 80.13 21.05 81.55 25.09 89.44 24.28 98.75 19.83 101.38 12.34 94.7 12.34 84.99 15.78 80.13"/>
  <polygon class="cls-10" points="53.02 80.13 58.28 81.55 58.89 82.36 58.89 100.37 57.27 101.38 49.78 94.7 49.78 84.99 53.02 80.13"/>
  <polygon class="cls-10" points="76.49 80.13 81.75 81.55 85.8 89.44 85.19 98.75 80.74 101.38 73.25 94.7 73.25 84.99 76.49 80.13"/>
  <polygon class="cls-8" points="113.93 80.13 119.19 81.55 119.6 82.56 119.6 100.57 117.98 101.38 110.49 94.7 110.49 84.99 113.93 80.13"/>
  <polygon class="cls-8" points="97.54 88.43 100.78 93.9 97.13 95.51 95.92 92.88 97.54 88.43"/>
  <polygon class="cls-1" points="0 89.44 2.63 93.9 0 94.91 0 89.44"/>
  <polygon class="cls-10" points="27.32 90.46 29.14 90.05 32.98 93.49 33.59 102.19 29.14 106.24 26.31 105.03 25.5 97.94 27.32 90.46"/>
  <polygon class="cls-8" points="88.23 90.66 90.05 90.25 93.69 93.49 94.5 102.19 90.05 106.24 87.02 105.23 86.21 98.14 88.23 90.66"/>
  <polygon class="cls-10" points="0 98.14 5.26 94.91 14.57 97.94 21.05 106.24 20.64 114.13 13.56 116.96 8.3 116.83 5.67 116.76 0 110.49 0 98.14"/>
  <polygon class="cls-1" points="36.02 99.16 42.7 94.91 52.01 97.94 58.28 106.24 57.88 114.13 50.79 116.96 43.1 116.76 35.21 108.06 36.02 99.16"/>
  <polygon class="cls-10" points="60.71 98.35 66.17 95.11 75.48 98.14 81.75 106.24 81.35 114.13 74.27 117.17 69.02 116.9 66.37 116.76 60.71 110.49 60.71 98.35"/>
  <polygon class="cls-10" points="96.73 99.16 103.41 95.11 112.71 98.14 119.19 106.24 118.79 114.13 111.7 117.17 106.46 116.9 103.81 116.76 95.92 108.06 96.73 99.16"/>
  <polygon class="cls-9" points="119.19 106.24 119.6 106.24 119.6 119.6 119.19 118.99 113.93 117.57 112.51 119.6 109.68 119.6 109.88 118.99 106.44 117.17 106.46 116.9 111.7 117.17 118.79 114.13 119.19 106.24"/>
  <polygon class="cls-1" points="24.28 111.1 29.14 108.87 34.4 110.69 36.22 116.96 35.62 119.6 22.87 119.6 22.06 116.96 24.28 111.1"/>
  <polygon class="cls-8" points="85.19 111.1 90.05 108.87 95.31 110.69 97.13 117.17 96.32 119.6 83.78 119.6 82.97 117.17 85.19 111.1"/>
  <polygon class="cls-10" points="43.31 116.96 45.73 116.96 48.97 118.99 48.97 119.6 41.28 119.6 43.31 116.96"/>
  <polygon class="cls-2" points="6.07 116.96 8.3 116.96 11.53 118.99 11.53 119.6 3.84 119.6 6.07 116.96"/>
  <polygon class="cls-8" points="104.22 117.17 106.44 117.17 109.88 118.99 109.68 119.6 101.99 119.6 104.22 117.17"/>
  <polygon class="cls-8" points="66.78 117.17 69 117.17 72.45 118.99 72.45 119.6 64.55 119.6 66.78 117.17"/>
  <polygon class="cls-10" points="15.78 117.37 21.05 118.99 21.25 119.6 14.17 119.6 15.78 117.37"/>
  <polygon class="cls-10" points="53.02 117.37 58.28 118.99 58.68 119.6 51.6 119.6 53.02 117.37"/>
  <polygon class="cls-8" points="76.49 117.57 81.75 118.99 82.16 119.6 75.08 119.6 76.49 117.57"/>
  <polygon class="cls-8" points="113.93 117.57 119.19 118.99 119.6 119.6 112.51 119.6 113.93 117.57"/>
</svg>