<?xml version="1.0" encoding="UTF-8"?>
<svg id="Layer_1" data-name="Layer 1" xmlns="http://www.w3.org/2000/svg" viewBox="0 0 119.6 120.86">
  <defs>
    <style>
      .cls-1 {
        fill: #d8d8d8;
      }

      .cls-2 {
        fill: #d6d6d6;
      }

      .cls-3 {
        fill: #eaeaea;
      }

      .cls-4 {
        fill: #f7f7f7;
      }

      .cls-5 {
        fill: #a8a8a8;
      }

      .cls-6 {
        fill: #ececec;
      }
    </style>
  </defs>
  <g>
    <polygon class="cls-5" points="114.33 61.97 119.6 61.97 119.6 64.4 117.98 65.41 114.33 61.97"/>
    <path class="cls-5" d="m90.2,89.63l5.11-2.36,1.82-6.27-1.82-6.27-5.26-2.02-4.86,2.43-2.23,5.87,1.82,6.07,5.26,2.23.15.34Zm22.71-27.66h1.42l3.64,3.44,1.62-1.01v19.43l-.4-1.01-5.26-1.42-3.44,4.86v9.71l7.49,6.68,1.62-.81v5.67h-.4l-6.48-8.09-9.31-3.04-6.68,4.05-.81,8.9,7.89,8.7,2.65.13-.02.27h-2.23l-2.23,2.43h-5.67l.81-2.43-1.82-6.48-5.26-1.82-4.86,2.23-2.23,6.07.81,2.43h-1.62l-.4-.61-5.26-1.42-1.42,2.02h-2.63v-.61l-3.44-1.82.02-.27,5.24.27,7.08-3.04.4-7.89-6.27-8.09-9.31-3.04-5.46,3.24v-3.24l2.83-1.21-2.83-4.45v-16.39l5.67,6.27,7.89.4,7.08-3.04.4-7.69-6.27-8.3h1.62l3.64,3.44,4.45-2.63v-.81h1.01l.81,7.08,3.04,1.21,4.45-4.25-.4-4.05h4.25l-1.62,1.01-.81,9.11,7.89,8.5,7.89.4,7.08-3.04.4-7.69-6.27-8.3Zm-6.48,19.02h-2.23l-2.63,3.04-1.21,7.49,3.84,3.64,4.45-3.04,1.21-9.31-3.44-1.82Zm-37.44,0h-2.23l-2.63,3.04-1.01,7.49,3.64,3.64,4.45-3.04,1.21-9.31-3.44-1.82Zm12.75,1.82l-5.26-1.42-3.24,4.86v9.71l7.49,6.68,4.45-2.63.61-9.31-4.05-7.89Zm19.02,12.34l-3.24-5.46-1.62,4.45,1.21,2.63,3.64-1.62Zm-10.73-3.64l-1.82.4-2.02,7.49.81,7.08,3.04,1.01,4.45-4.05-.81-8.7-3.64-3.24Z"/>
    <polygon class="cls-2" points="98.35 61.97 112.92 61.97 119.19 70.27 118.79 77.96 111.7 81 103.81 80.59 95.92 72.09 96.73 62.99 98.35 61.97"/>
    <polygon class="cls-2" points="86.21 61.97 94.1 61.97 94.5 66.02 90.05 70.27 87.02 69.06 86.21 61.97"/>
    <polygon class="cls-4" points="77.1 61.97 85.19 61.97 85.19 62.78 80.74 65.41 77.1 61.97"/>
    <polygon class="cls-4" points="61.11 61.97 75.48 61.97 81.75 70.27 81.35 77.96 74.27 81 66.37 80.59 60.71 74.32 60.71 62.18 61.11 61.97"/>
    <polygon class="cls-4" points="53.63 61.97 58.89 61.97 58.89 64.4 57.27 65.21 53.63 61.97"/>
    <path class="cls-5" d="m29.29,89.43l5.11-2.16,1.82-6.27-1.82-6.48-5.26-1.82-4.86,2.23-2.23,6.07,1.82,5.87,5.26,2.23.15.34Zm22.72-27.45h1.62l3.64,3.24,1.62-.81v19.22l-.61-.81-5.26-1.42-3.24,4.86v9.71l7.49,6.68,1.62-1.01v19.22h-.2l-.4-.61-5.26-1.62-1.42,2.23h-2.63v-.61l-3.24-2.02h-2.43l-2.02,2.63h-5.67l.61-2.63-1.82-6.27-5.26-1.82-4.86,2.23-2.23,5.87.81,2.63h-1.62l-.2-.61-5.26-1.62-1.62,2.23h-2.63v-.61l-3.24-2.02v-.13l5.26.13,7.08-2.83.4-7.89-6.48-8.3-9.31-3.04-5.26,3.24v-3.24l2.63-1.01-2.63-4.45v-16.39l5.67,6.27,7.89.4,7.08-3.04.4-7.89-6.27-8.09h1.42l3.64,3.24,4.45-2.63.2-.61h1.01l.81,7.08,2.83,1.01,4.45-4.05-.2-4.05h4.25l-1.62,1.01-.81,8.9,7.89,8.7,7.69.4,7.08-3.04.4-7.89-6.27-8.09Zm-6.27,19.02h-2.43l-2.43,2.83-1.21,7.49,3.64,3.84,4.65-3.04,1.01-9.31-3.24-1.82Zm-37.44,0h-2.23l-2.63,2.83-1.21,7.49,3.84,3.84,4.45-3.04,1.01-9.31-3.24-1.82Zm12.75,1.82l-5.26-1.42-3.44,4.86v9.71l7.49,6.68,4.45-2.63.81-9.31-4.05-7.89Zm19.02,12.34l-3.44-5.67-1.42,4.45,1.01,2.63,3.84-1.42Zm-10.93-3.84l-1.82.4-1.82,7.49.81,7.08,2.83,1.21,4.45-4.05-.61-8.7-3.84-3.44Zm13.56,4.86l-6.68,4.25-.81,8.9,7.89,8.7,7.69.2,7.08-2.83.4-7.89-6.27-8.3-9.31-3.04Z"/>
    <polygon class="cls-1" points="37.64 61.97 52.01 61.97 58.28 70.07 57.88 77.96 50.79 81 43.1 80.59 35.21 71.89 36.02 62.99 37.64 61.97"/>
    <polygon class="cls-4" points="25.5 61.97 33.39 61.97 33.59 66.02 29.14 70.07 26.31 69.06 25.5 61.97"/>
    <polygon class="cls-4" points="16.19 61.97 24.49 61.97 24.28 62.58 19.83 65.21 16.19 61.97"/>
    <polygon class="cls-3" points=".2 61.97 14.77 61.97 21.05 70.07 20.64 77.96 13.56 81 5.67 80.59 0 74.32 0 62.18 .2 61.97"/>
    <polygon class="cls-3" points="24.28 74.93 29.14 72.7 34.4 74.52 36.22 81 34.4 87.27 29.29 89.43 29.14 89.09 23.88 86.86 22.06 81 24.28 74.93"/>
    <polygon class="cls-4" points="85.19 75.13 90.05 72.7 95.31 74.72 97.13 81 95.31 87.27 90.2 89.63 90.05 89.29 84.79 87.07 82.97 81 85.19 75.13"/>
    <polygon class="cls-2" points="104.22 81 106.44 81 109.88 82.82 108.67 92.13 104.22 95.16 100.37 91.52 101.59 84.03 104.22 81"/>
    <polygon class="cls-2" points="66.78 81 69.01 81 72.45 82.82 71.23 92.13 66.78 95.16 63.14 91.52 64.15 84.03 66.78 81"/>
    <polygon class="cls-1" points="43.31 81 45.73 81 48.97 82.82 47.96 92.13 43.31 95.16 39.66 91.32 40.88 83.83 43.31 81"/>
    <polygon class="cls-1" points="6.07 81 8.3 81 11.53 82.82 10.52 92.13 6.07 95.16 2.23 91.32 3.44 83.83 6.07 81"/>
    <polygon class="cls-6" points="15.78 81.4 21.05 82.82 25.09 90.71 24.28 100.02 19.83 102.65 12.34 95.97 12.34 86.26 15.78 81.4"/>
    <polygon class="cls-4" points="53.02 81.4 58.28 82.82 58.89 83.63 58.89 101.64 57.27 102.65 49.78 95.97 49.78 86.26 53.02 81.4"/>
    <polygon class="cls-4" points="76.49 81.4 81.75 82.82 85.8 90.71 85.19 100.02 80.74 102.65 73.25 95.97 73.25 86.26 76.49 81.4"/>
    <polygon class="cls-2" points="113.93 81.4 119.19 82.82 119.6 83.83 119.6 101.84 117.98 102.65 110.49 95.97 110.49 86.26 113.93 81.4"/>
    <polygon class="cls-2" points="97.54 89.7 100.78 95.16 97.13 96.78 95.92 94.15 97.54 89.7"/>
    <polygon class="cls-3" points="0 90.71 2.63 95.16 0 96.17 0 90.71"/>
    <polygon class="cls-4" points="27.32 91.72 29.14 91.32 32.98 94.76 33.59 103.46 29.14 107.51 26.31 106.29 25.5 99.21 27.32 91.72"/>
    <polygon class="cls-2" points="88.23 91.92 90.05 91.52 93.69 94.76 94.5 103.46 90.05 107.51 87.02 106.49 86.21 99.41 88.23 91.92"/>
    <polygon class="cls-4" points="0 99.41 5.26 96.17 14.57 99.21 21.05 107.51 20.64 115.4 13.56 118.23 8.3 118.1 5.67 118.03 0 111.75 0 99.41"/>
    <polygon class="cls-3" points="36.02 100.42 42.7 96.17 52.01 99.21 58.28 107.51 57.88 115.4 50.79 118.23 43.1 118.03 35.21 109.33 36.02 100.42"/>
    <polygon class="cls-4" points="60.71 99.61 66.17 96.38 75.48 99.41 81.75 107.51 81.35 115.4 74.27 118.43 69.02 118.16 66.37 118.03 60.71 111.75 60.71 99.61"/>
    <polygon class="cls-4" points="96.73 100.42 103.41 96.38 112.71 99.41 119.19 107.51 118.79 115.4 111.7 118.43 106.46 118.16 103.81 118.03 95.92 109.33 96.73 100.42"/>
    <polygon class="cls-5" points="119.19 107.51 119.6 107.51 119.6 120.86 119.19 120.25 113.93 118.84 112.51 120.86 109.68 120.86 109.88 120.25 106.44 118.43 106.46 118.16 111.7 118.43 118.79 115.4 119.19 107.51"/>
    <polygon class="cls-3" points="24.28 112.36 29.14 110.14 34.4 111.96 36.22 118.23 35.62 120.86 22.87 120.86 22.06 118.23 24.28 112.36"/>
    <polygon class="cls-2" points="85.19 112.36 90.05 110.14 95.31 111.96 97.13 118.43 96.32 120.86 83.78 120.86 82.97 118.43 85.19 112.36"/>
    <polygon class="cls-4" points="43.31 118.23 45.73 118.23 48.97 120.25 48.97 120.86 41.28 120.86 43.31 118.23"/>
    <polygon class="cls-1" points="6.07 118.23 8.3 118.23 11.53 120.25 11.53 120.86 3.84 120.86 6.07 118.23"/>
    <polygon class="cls-2" points="104.22 118.43 106.44 118.43 109.88 120.25 109.68 120.86 101.99 120.86 104.22 118.43"/>
    <polygon class="cls-2" points="66.78 118.43 69.01 118.43 72.45 120.25 72.45 120.86 64.55 120.86 66.78 118.43"/>
    <polygon class="cls-4" points="15.78 118.63 21.05 120.25 21.25 120.86 14.17 120.86 15.78 118.63"/>
    <polygon class="cls-4" points="53.02 118.63 58.28 120.25 58.68 120.86 51.6 120.86 53.02 118.63"/>
    <polygon class="cls-2" points="76.49 118.84 81.75 120.25 82.16 120.86 75.08 120.86 76.49 118.84"/>
    <polygon class="cls-2" points="113.93 118.84 119.19 120.25 119.6 120.86 112.51 120.86 113.93 118.84"/>
  </g>
  <g>
    <polygon class="cls-5" points="114.33 0 119.6 0 119.6 2.43 117.98 3.44 114.33 0"/>
    <path class="cls-5" d="m90.2,27.66l5.11-2.36,1.82-6.27-1.82-6.27-5.26-2.02-4.86,2.43-2.23,5.87,1.82,6.07,5.26,2.23.15.34ZM112.92,0h1.42l3.64,3.44,1.62-1.01v19.43l-.4-1.01-5.26-1.42-3.44,4.86v9.71l7.49,6.68,1.62-.81v5.67h-.4l-6.48-8.09-9.31-3.04-6.68,4.05-.81,8.9,7.89,8.7,2.65.13-.02.27h-2.23l-2.23,2.43h-5.67l.81-2.43-1.82-6.48-5.26-1.82-4.86,2.23-2.23,6.07.81,2.43h-1.62l-.4-.61-5.26-1.42-1.42,2.02h-2.63v-.61l-3.44-1.82.02-.27,5.24.27,7.08-3.04.4-7.89-6.27-8.09-9.31-3.04-5.46,3.24v-3.24l2.83-1.21-2.83-4.45V12.34l5.67,6.27,7.89.4,7.08-3.04.4-7.69-6.27-8.3h1.62l3.64,3.44,4.45-2.63v-.81h1.01l.81,7.08,3.04,1.21,4.45-4.25-.4-4.05h4.25l-1.62,1.01-.81,9.11,7.89,8.5,7.89.4,7.08-3.04.4-7.69-6.27-8.3Zm-6.48,19.02h-2.23l-2.63,3.04-1.21,7.49,3.84,3.64,4.45-3.04,1.21-9.31-3.44-1.82Zm-37.44,0h-2.23l-2.63,3.04-1.01,7.49,3.64,3.64,4.45-3.04,1.21-9.31-3.44-1.82Zm12.75,1.82l-5.26-1.42-3.24,4.86v9.71l7.49,6.68,4.45-2.63.61-9.31-4.05-7.89Zm19.02,12.34l-3.24-5.46-1.62,4.45,1.21,2.63,3.64-1.62Zm-10.73-3.64l-1.82.4-2.02,7.49.81,7.08,3.04,1.01,4.45-4.05-.81-8.7-3.64-3.24Z"/>
    <polygon class="cls-2" points="98.35 0 112.92 0 119.19 8.3 118.79 15.99 111.7 19.02 103.81 18.62 95.92 10.12 96.73 1.01 98.35 0"/>
    <polygon class="cls-2" points="86.21 0 94.1 0 94.5 4.05 90.05 8.3 87.02 7.08 86.21 0"/>
    <polygon class="cls-4" points="77.1 0 85.19 0 85.19 .81 80.74 3.44 77.1 0"/>
    <polygon class="cls-4" points="61.11 0 75.48 0 81.75 8.3 81.35 15.99 74.27 19.02 66.37 18.62 60.71 12.34 60.71 .2 61.11 0"/>
    <polygon class="cls-4" points="53.63 0 58.89 0 58.89 2.43 57.27 3.24 53.63 0"/>
    <path class="cls-5" d="m29.29,27.45l5.11-2.16,1.82-6.27-1.82-6.48-5.26-1.82-4.86,2.23-2.23,6.07,1.82,5.87,5.26,2.23.15.34ZM52.01,0h1.62l3.64,3.24,1.62-.81v19.22l-.61-.81-5.26-1.42-3.24,4.86v9.71l7.49,6.68,1.62-1.01v19.22h-.2l-.4-.61-5.26-1.62-1.42,2.23h-2.63v-.61l-3.24-2.02h-2.43l-2.02,2.63h-5.67l.61-2.63-1.82-6.27-5.26-1.82-4.86,2.23-2.23,5.87.81,2.63h-1.62l-.2-.61-5.26-1.62-1.62,2.23h-2.63v-.61l-3.24-2.02v-.13l5.26.13,7.08-2.83.4-7.89-6.48-8.3-9.31-3.04-5.26,3.24v-3.24l2.63-1.01-2.63-4.45V12.34l5.67,6.27,7.89.4,7.08-3.04.4-7.89L14.77,0h1.42l3.64,3.24,4.45-2.63.2-.61h1.01l.81,7.08,2.83,1.01,4.45-4.05-.2-4.05h4.25l-1.62,1.01-.81,8.9,7.89,8.7,7.69.4,7.08-3.04.4-7.89L52.01,0Zm-6.27,19.02h-2.43l-2.43,2.83-1.21,7.49,3.64,3.84,4.65-3.04,1.01-9.31-3.24-1.82Zm-37.44,0h-2.23l-2.63,2.83-1.21,7.49,3.84,3.84,4.45-3.04,1.01-9.31-3.24-1.82Zm12.75,1.82l-5.26-1.42-3.44,4.86v9.71l7.49,6.68,4.45-2.63.81-9.31-4.05-7.89Zm19.02,12.34l-3.44-5.67-1.42,4.45,1.01,2.63,3.84-1.42Zm-10.93-3.84l-1.82.4-1.82,7.49.81,7.08,2.83,1.21,4.45-4.05-.61-8.7-3.84-3.44Zm13.56,4.86l-6.68,4.25-.81,8.9,7.89,8.7,7.69.2,7.08-2.83.4-7.89-6.27-8.3-9.31-3.04Z"/>
    <polygon class="cls-1" points="37.64 0 52.01 0 58.28 8.09 57.88 15.99 50.79 19.02 43.1 18.62 35.21 9.92 36.02 1.01 37.64 0"/>
    <polygon class="cls-4" points="25.5 0 33.39 0 33.59 4.05 29.14 8.09 26.31 7.08 25.5 0"/>
    <polygon class="cls-4" points="16.19 0 24.49 0 24.28 .61 19.83 3.24 16.19 0"/>
    <polygon class="cls-3" points=".2 0 14.77 0 21.05 8.09 20.64 15.99 13.56 19.02 5.67 18.62 0 12.34 0 .2 .2 0"/>
    <polygon class="cls-3" points="24.28 12.95 29.14 10.73 34.4 12.55 36.22 19.02 34.4 25.3 29.29 27.45 29.14 27.12 23.88 24.89 22.06 19.02 24.28 12.95"/>
    <polygon class="cls-4" points="85.19 13.15 90.05 10.73 95.31 12.75 97.13 19.02 95.31 25.3 90.2 27.66 90.05 27.32 84.79 25.09 82.97 19.02 85.19 13.15"/>
    <polygon class="cls-2" points="104.22 19.02 106.44 19.02 109.88 20.84 108.67 30.15 104.22 33.19 100.37 29.54 101.59 22.06 104.22 19.02"/>
    <polygon class="cls-2" points="66.78 19.02 69.01 19.02 72.45 20.84 71.23 30.15 66.78 33.19 63.14 29.54 64.15 22.06 66.78 19.02"/>
    <polygon class="cls-1" points="43.31 19.02 45.73 19.02 48.97 20.84 47.96 30.15 43.31 33.19 39.66 29.34 40.88 21.85 43.31 19.02"/>
    <polygon class="cls-1" points="6.07 19.02 8.3 19.02 11.53 20.84 10.52 30.15 6.07 33.19 2.23 29.34 3.44 21.85 6.07 19.02"/>
    <polygon class="cls-6" points="15.78 19.43 21.05 20.84 25.09 28.74 24.28 38.04 19.83 40.67 12.34 34 12.34 24.28 15.78 19.43"/>
    <polygon class="cls-4" points="53.02 19.43 58.28 20.84 58.89 21.65 58.89 39.66 57.27 40.67 49.78 34 49.78 24.28 53.02 19.43"/>
    <polygon class="cls-4" points="76.49 19.43 81.75 20.84 85.8 28.74 85.19 38.04 80.74 40.67 73.25 34 73.25 24.28 76.49 19.43"/>
    <polygon class="cls-2" points="113.93 19.43 119.19 20.84 119.6 21.85 119.6 39.86 117.98 40.67 110.49 34 110.49 24.28 113.93 19.43"/>
    <polygon class="cls-2" points="97.54 27.72 100.78 33.19 97.13 34.81 95.92 32.18 97.54 27.72"/>
    <polygon class="cls-3" points="0 28.74 2.63 33.19 0 34.2 0 28.74"/>
    <polygon class="cls-4" points="27.32 29.75 29.14 29.34 32.98 32.78 33.59 41.48 29.14 45.53 26.31 44.32 25.5 37.23 27.32 29.75"/>
    <polygon class="cls-2" points="88.23 29.95 90.05 29.54 93.69 32.78 94.5 41.48 90.05 45.53 87.02 44.52 86.21 37.44 88.23 29.95"/>
    <polygon class="cls-4" points="0 37.44 5.26 34.2 14.57 37.23 21.05 45.53 20.64 53.42 13.56 56.26 8.3 56.12 5.67 56.05 0 49.78 0 37.44"/>
    <polygon class="cls-3" points="36.02 38.45 42.7 34.2 52.01 37.23 58.28 45.53 57.88 53.42 50.79 56.26 43.1 56.05 35.21 47.35 36.02 38.45"/>
    <polygon class="cls-4" points="60.71 37.64 66.17 34.4 75.48 37.44 81.75 45.53 81.35 53.42 74.27 56.46 69.02 56.19 66.37 56.05 60.71 49.78 60.71 37.64"/>
    <polygon class="cls-4" points="96.73 38.45 103.41 34.4 112.71 37.44 119.19 45.53 118.79 53.42 111.7 56.46 106.46 56.19 103.81 56.05 95.92 47.35 96.73 38.45"/>
    <polygon class="cls-5" points="119.19 45.53 119.6 45.53 119.6 58.89 119.19 58.28 113.93 56.86 112.51 58.89 109.68 58.89 109.88 58.28 106.44 56.46 106.46 56.19 111.7 56.46 118.79 53.42 119.19 45.53"/>
    <polygon class="cls-3" points="24.28 50.39 29.14 48.16 34.4 49.98 36.22 56.26 35.62 58.89 22.87 58.89 22.06 56.26 24.28 50.39"/>
    <polygon class="cls-2" points="85.19 50.39 90.05 48.16 95.31 49.98 97.13 56.46 96.32 58.89 83.78 58.89 82.97 56.46 85.19 50.39"/>
    <polygon class="cls-4" points="43.31 56.26 45.73 56.26 48.97 58.28 48.97 58.89 41.28 58.89 43.31 56.26"/>
    <polygon class="cls-1" points="6.07 56.26 8.3 56.26 11.53 58.28 11.53 58.89 3.84 58.89 6.07 56.26"/>
    <polygon class="cls-2" points="104.22 56.46 106.44 56.46 109.88 58.28 109.68 58.89 101.99 58.89 104.22 56.46"/>
    <polygon class="cls-2" points="66.78 56.46 69.01 56.46 72.45 58.28 72.45 58.89 64.55 58.89 66.78 56.46"/>
    <polygon class="cls-4" points="15.78 56.66 21.05 58.28 21.25 58.89 14.17 58.89 15.78 56.66"/>
    <polygon class="cls-4" points="53.02 56.66 58.28 58.28 58.68 58.89 51.6 58.89 53.02 56.66"/>
    <polygon class="cls-2" points="76.49 56.86 81.75 58.28 82.16 58.89 75.08 58.89 76.49 56.86"/>
    <polygon class="cls-2" points="113.93 56.86 119.19 58.28 119.6 58.89 112.51 58.89 113.93 56.86"/>
  </g>
</svg>