<?xml version="1.0" encoding="UTF-8"?><svg id="Layer_1" xmlns="http://www.w3.org/2000/svg" viewBox="0 0 1220.43 673.41"><defs><style>.cls-1{fill:#c98036;}.cls-2{fill:#d6d7d8;}.cls-3{fill:#c9cacb;}.cls-4{fill:#f5decc;}.cls-5{fill:#fff;}.cls-6{fill:#9c9ea1;}.cls-7{fill:#dddedf;}.cls-8{fill:ivory;stroke-width:.25px;}.cls-8,.cls-9{stroke:#000;stroke-miterlimit:10;}.cls-10{fill:#7c7d7f;}.cls-11{fill:#eab880;}.cls-11,.cls-12{opacity:.3;}.cls-11,.cls-12,.cls-9,.cls-13,.cls-14{isolation:isolate;}.cls-15{fill:#ffc383;}.cls-16{fill:#f7ae5e;}.cls-17{fill:#d6bba3;}.cls-18{fill:#a6a8ab;}.cls-19{fill:#c3c3c3;}.cls-20{fill:#d7d8da;}.cls-21{fill:#f7d6ba;}.cls-22{fill:#d0d2d3;}.cls-23{fill:#ffd186;}.cls-24{fill:#e6e6e6;}.cls-25{fill:#b0afaf;}.cls-26{fill:#f0ebeb;}.cls-27{fill:#232236;}.cls-28{fill:#bbbdbf;}.cls-29{fill:#f5f5f6;}.cls-30{fill:#aeb0b1;}.cls-31{fill:#dbae86;}.cls-32{fill:#e6bf9b;}.cls-33{fill:#cbcdce;}.cls-34{fill:#333345;}.cls-35{fill:#f5e8df;}.cls-36{fill:#ccc;}.cls-12{fill:#eaf180;}.cls-37{fill:#e1e2e2;}.cls-38{fill:#b3b3b3;}.cls-9{fill:#bfcbff;opacity:.4;stroke-width:.5px;}.cls-39{fill:#e6e7e8;}.cls-40{fill:#b5b5b6;}.cls-41{fill:#9696a6;}.cls-42{fill:#f1f1f2;}.cls-13{opacity:.5;}.cls-43{fill:#999b9c;}.cls-44{fill:#f2f2f2;}.cls-14{opacity:.25;}</style></defs><rect class="cls-26" x="363.07" y="392.09" width="160.38" height="147.31"/><rect class="cls-26" x="521.87" y="508.67" width="104.97" height="164.74"/><rect class="cls-26" x="521.87" y="201.11" width="132.35" height="190.98"/><rect class="cls-26" x="521.87" y="103.52" width="104.97" height="97.59"/><rect class="cls-5" x="626.84" y="508.67" width="104.97" height="153.73"/><rect class="cls-26" x="652.61" y="392.09" width="138.41" height="146.18"/><rect class="cls-26" x="626.84" y="103.52" width="104.97" height="97.59"/><rect class="cls-26" x="731.81" y="508.67" width="104.97" height="163.38"/><rect class="cls-26" x="791.02" y="249.75" width="158.55" height="142.34"/><rect class="cls-26" x="731.81" y="103.52" width="104.97" height="97.59"/><rect class="cls-5" x="836.87" y="508.67" width="104.97" height="153.73"/><rect class="cls-26" x="948.84" y="392.09" width="156.22" height="149.58"/><rect class="cls-26" x="836.87" y="103.52" width="104.97" height="97.59"/><rect class="cls-26" x="1104.43" y="539.55" width="116" height="132.51"/><rect class="cls-26" x="1105.06" y="261.13" width="114.05" height="130.96"/><rect class="cls-26" x="940.6" y="173.77" width="104.97" height="86.26"/><rect class="cls-26" x="1045.65" y="173.77" width="104.97" height="86.26"/><rect class="cls-26" x="231.02" y="539.4" width="132.04" height="132.66"/><rect class="cls-26" x="2.6" y="519.43" width="114.39" height="153.73"/><rect class="cls-26" x="121.53" y="392.09" width="109.49" height="147.31"/><rect class="cls-26" x="231.46" y="256.07" width="130" height="136.02"/><rect class="cls-26" x="2.6" y="251.85" width="118.93" height="140.24"/><rect class="cls-26" x="361.46" y="103.52" width="114.37" height="152.54"/><rect class="cls-26" x="121.53" y="103.52" width="119.36" height="148.32"/><rect class="cls-26" x="248.67" y=".06" width="114.39" height="103.46"/><rect class="cls-26" x=".6" y="0" width="120.93" height="103.52"/><path class="cls-44" d="m1104.43,110.52c0-.89.98-1.61,2.21-1.61h7.2c1.23,0,2.21.71,2.21,1.61h0c0,.89-.98,1.61-2.21,1.61h-7.2c-1.23,0-2.21-.71-2.21-1.61h0Z"/><path class="cls-14" d="m169.04,80.16h149.83s.4,2.93.4,2.93c.32,2.52,8.3,62.58,8.3,85.06,0,48.49-37.52,87.92-83.66,87.92-46.14,0-83.66-39.43-83.66-87.92,0-27.17,7.98-82.74,8.3-85.06l.4-2.86.08-.07Z"/><path class="cls-24" d="m173.59,64.9h140.81s.4,2.86.4,2.86c.32,2.5,7.82,61.77,7.82,83.94,0,47.83-35.28,86.8-78.63,86.8-43.35,0-78.63-38.97-78.63-86.8,0-26.81,7.5-81.65,7.82-83.94,0,0,.4-2.86.4-2.86Z"/><path class="cls-5" d="m294.93,85.25c2.47,21.24,5.91,53.35,5.91,67.36,0,36.54-26.02,67.36-56.92,67.36-30.89,0-56.92-30.82-56.92-67.36,0-17.66,3.59-49.13,5.83-67.36,0,0,102.1,0,102.1,0Z"/><path class="cls-14" d="m137.15,50.26v-30.1c0-11.13,10.58-20.16,23.63-20.16h166.28c13.05,0,23.63,9.02,23.63,20.16v30.1c0,11.13-10.58,20.16-23.63,20.16h-166.28c-13.05,0-23.63-9.02-23.63-20.16Z"/><path class="cls-24" d="m144.09,46.38v-27.85c0-10.23,9.8-18.52,21.88-18.52h154.37c12.08,0,21.88,8.29,21.88,18.52v27.85c0,10.23-9.8,18.52-21.88,18.52h-154.37c-12.08,0-21.88-8.29-21.88-18.52Z"/><path class="cls-5" d="m158.7,44.47v-24.11c0-8.88,8.43-16.07,18.84-16.07h132.75c10.4,0,18.84,7.2,18.84,16.07v24.11c0,8.88-8.43,16.07-18.84,16.07h-132.75c-10.4,0-18.84-7.2-18.84-16.07Z"/><path class="cls-13" d="m231.02,30.24c0-4.7,4.47-8.58,9.98-8.58s10.06,3.81,10.06,8.58c0,4.77-4.47,8.51-10.06,8.51-5.59,0-9.98-3.81-9.98-8.51Z"/><path class="cls-38" d="m232.78,30.24c0-3.88,3.67-7.01,8.22-7.01,4.55,0,8.22,3.13,8.22,7.01,0,3.88-3.67,7.01-8.22,7.01s-8.22-3.13-8.22-7.01Z"/><path class="cls-36" d="m234.86,30.24c0-2.93,2.79-5.24,6.15-5.24,3.35,0,6.15,2.38,6.15,5.24,0,2.86-2.79,5.24-6.15,5.24-3.35,0-6.15-2.38-6.15-5.24Z"/><path class="cls-9" d="m241,23.22c-4.55,0-8.22,3.13-8.22,7.01h16.44c0-3.88-3.67-7.01-8.22-7.01Z"/><rect x="449.09" y="0" width="14.91" height="673.41"/><g id="t-paper"><path class="cls-28" d="m26.15,135.61H1.16v-9.72h25c.63,0,1.18-.43,1.18-.98V37.35c0-.52-.52-.98-1.18-.98H0v-9.74h26.15c7.07,0,12.8,4.8,12.8,10.72v87.55c0,5.9-5.74,10.7-12.8,10.7h0Z"/><path class="cls-22" d="m28.51,131.71H8.16v-1.96h20.35c2.62,0,4.76-2.19,4.76-4.87V37.33c0-2.69-2.14-4.87-4.76-4.87H7.2v-1.96h21.31c3.66,0,6.65,3.07,6.65,6.81v87.55c0,3.76-2.99,6.81-6.65,6.81v.05Z"/><rect class="cls-8" x="11.26" y="50.65" width="45.94" height="62.47"/></g><g id="sink"><path class="cls-12" d="m.41,623.44v-202.33c0-3.76,2.71-6.85,6.06-6.85h147.72c3.34,0,6.06,3.05,6.06,6.85v202.33c0,3.76-2.71,6.85-6.06,6.85H6.47c-3.34,0-6.06-3.05-6.06-6.85h0Z"/><path class="cls-42" d="m5.28,617.32v-190.04c0-3.54,2.55-6.41,5.68-6.41h138.75c3.13,0,5.68,2.87,5.68,6.41v190.04c0,3.55-2.55,6.41-5.68,6.41H10.96c-3.13,0-5.68-2.87-5.68-6.41h0Z"/><path class="cls-2" d="m156.25,427.28v190.04c0,4.07-2.94,7.39-6.54,7.39H10.96c-3.61,0-6.54-3.31-6.54-7.39v-190.04c0-4.07,2.94-7.39,6.54-7.39h138.75c3.61,0,6.54,3.31,6.54,7.39ZM6.12,617.3c0,3.01,2.18,5.46,4.84,5.46h138.75c2.66,0,4.84-2.45,4.84-5.46v-190.04c0-3.02-2.18-5.46-4.84-5.46H10.96c-2.67,0-4.84,2.45-4.84,5.46v190.04h0Z"/><path class="cls-33" d="m47.92,599.66v-154.74c0-3.54,2.55-6.41,5.68-6.41h83.6c3.13,0,5.68,2.87,5.68,6.41v154.74c0,3.54-2.55,6.41-5.68,6.41H53.61c-3.13,0-5.68-2.87-5.68-6.41h0Z"/><path class="cls-5" d="m143.73,444.92v154.72c0,4.07-2.94,7.38-6.53,7.38H53.61c-3.61,0-6.54-3.31-6.54-7.38v-154.72c0-4.07,2.94-7.39,6.54-7.39h83.6c3.61,0,6.53,3.31,6.53,7.39Zm-94.96,154.72c0,3.02,2.18,5.46,4.84,5.46h83.6c2.66,0,4.84-2.45,4.84-5.46v-154.72c0-3.02-2.17-5.46-4.84-5.46H53.61c-2.66,0-4.84,2.45-4.84,5.46,0,0,0,154.72,0,154.72Z"/><path class="cls-2" d="m135.2,441.4c2.98,0,5.41,2.77,5.41,6.2v149.39c0,3.43-2.43,6.2-5.41,6.2H55.61c-2.98,0-5.41-2.78-5.41-6.2v-149.39c0-3.43,2.43-6.2,5.41-6.2h79.59Z"/><path class="cls-37" d="m133.36,451.03c2.85,0,5.16,2.43,5.16,5.46v131.61c0,3.02-2.3,5.46-5.16,5.46H57.44c-2.85,0-5.16-2.43-5.16-5.46v-131.61c0-3.02,2.3-5.46,5.16-5.46h75.92Z"/><path class="cls-3" d="m67.82,522.29c0-32.34-6.47-61.65-16.96-82.99-1.74,1.1-2.94,3.19-2.94,5.62v154.72c0,2.42,1.19,4.52,2.94,5.62,10.49-21.33,16.96-50.63,16.96-82.98h0Z"/><path class="cls-28" d="m90.1,522.29c0-6.7,4.81-12.14,10.75-12.14,5.94,0,10.75,5.43,10.75,12.14,0,6.71-4.81,12.14-10.75,12.14-5.94,0-10.75-5.43-10.75-12.14Z"/><path class="cls-18" d="m100.85,509.22c6.39,0,11.58,5.87,11.58,13.08,0,7.21-5.19,13.08-11.58,13.08-6.39,0-11.58-5.87-11.58-13.08,0-7.21,5.19-13.08,11.58-13.08Zm0,24.25c5.46,0,9.89-5.02,9.89-11.17,0-6.15-4.44-11.17-9.89-11.17-5.45,0-9.89,5.02-9.89,11.17,0,6.15,4.44,11.17,9.89,11.17h0Z"/><path class="cls-20" d="m93.37,522.29c0-4.66,3.35-8.45,7.47-8.45,4.12,0,7.47,3.78,7.47,8.45,0,4.67-3.34,8.44-7.47,8.44-4.13,0-7.47-3.78-7.47-8.44Z"/><path class="cls-6" d="m100.85,512.9c4.59,0,8.31,4.2,8.31,9.39,0,5.19-3.73,9.39-8.31,9.39-4.58,0-8.31-4.2-8.31-9.39,0-5.19,3.73-9.39,8.31-9.39Zm0,16.87c3.65,0,6.64-3.36,6.64-7.48s-2.97-7.48-6.64-7.48c-3.67,0-6.64,3.36-6.64,7.48,0,4.13,2.97,7.48,6.64,7.48Z"/><path class="cls-6" d="m97.77,529.97v-15.36c-2.6,1.32-4.41,4.25-4.41,7.68s1.83,6.35,4.41,7.68h0Z"/><path class="cls-10" d="m66.59,516.47c1.95,0,3.54,1.3,3.54,2.89v5.99c0,1.6-1.59,2.89-3.54,2.89H27.13c-1.95,0-3.54-1.3-3.54-2.89v-5.99c0-1.6,1.59-2.89,3.54-2.89h39.46Z"/><path class="cls-43" d="m64.64,517.8c1.47,0,2.66.94,2.66,2.1v4.32c0,1.15-1.19,2.1-2.66,2.1h-29.65c-1.47,0-2.66-.95-2.66-2.1v-4.32c0-1.15,1.19-2.1,2.66-2.1h29.65Z"/><path class="cls-40" d="m64.64,519.42c1.47,0,2.66.57,2.66,1.28v2.66c0,.71-1.19,1.28-2.66,1.28h-29.65c-1.47,0-2.66-.57-2.66-1.28v-2.66c0-.71,1.19-1.28,2.66-1.28h29.65Z"/><polygon class="cls-30" points="24.26 523.29 21.6 521.08 32.6 504.2 35.24 506.4 24.26 523.29"/><path class="cls-43" d="m36.62,506.43c0,.32-.08.65-.27.92l-11,16.87c-.45.7-1.31.83-1.93.33l-2.64-2.19c-.61-.51-.75-1.48-.29-2.18l11-16.87c.22-.33.55-.56.91-.62.37-.08.72.05,1.04.29l2.64,2.19c.37.3.56.79.56,1.25h-.01Zm-12.67,14.69l9.35-14.36-.42-.35-9.35,14.36.42.35Z"/><path class="cls-30" d="m13.53,528.14v-11.56c0-1.81,1.29-3.28,2.9-3.28h9.09c1.61,0,2.9,1.47,2.9,3.28v11.56c0,1.81-1.29,3.28-2.9,3.28h-9.09c-1.61,0-2.9-1.47-2.9-3.28Z"/><path class="cls-19" d="m20.1,513.31h-3.67c-1.61,0-2.9,1.47-2.9,3.28v11.56c0,1.81,1.29,3.28,2.9,3.28h3.67s0-18.13,0-18.13h0Z"/><path class="cls-43" d="m29.28,516.59v11.56c0,2.34-1.69,4.25-3.76,4.25h-9.09c-2.07,0-3.76-1.9-3.76-4.25v-11.56c0-2.34,1.69-4.25,3.76-4.25h9.09c2.07,0,3.76,1.9,3.76,4.25Zm-14.89,11.56c0,1.25.91,2.28,2.03,2.28h9.09c1.12,0,2.03-1.03,2.03-2.28v-11.56c0-1.25-.91-2.28-2.03-2.28h-9.09c-1.12,0-2.03,1.03-2.03,2.28v11.56Z"/></g><g id="tub"><path class="cls-11" d="m456.86,4.65c0-2.57,2.7-4.65,6.04-4.65h750.17c3.34,0,6.04,2.08,6.04,4.65v283.52c0,2.57-2.7,4.65-6.04,4.65H462.9c-3.36,0-6.04-2.08-6.04-4.65V4.65s0,0,0,0Z"/><path class="cls-29" d="m480.2,14.59c0-2.32,2.55-4.21,5.68-4.21h704.22c3.13,0,5.68,1.88,5.68,4.21v255.86c0,2.32-2.55,4.21-5.68,4.21H485.9c-3.15,0-5.68-1.88-5.68-4.21V14.59s-.02,0-.02,0Z"/><path class="cls-39" d="m485.88,7.76h704.22c4.85,0,8.8,3.06,8.8,6.82v255.86c0,3.77-3.95,6.82-8.8,6.82H485.9c-4.85,0-8.8-3.06-8.8-6.82V14.58c0-3.77,3.95-6.82,8.8-6.82h-.02Zm704.22,264.28c1.38,0,2.55-.73,2.55-1.59V14.59c0-.85-1.17-1.59-2.55-1.59H485.9c-1.38,0-2.57.73-2.57,1.59v255.86c0,.85,1.17,1.59,2.57,1.59h704.2Z"/><path class="cls-5" d="m517.37,39.45c0-2.38,2.59-4.32,5.81-4.32h625.13c3.22,0,5.81,1.92,5.81,4.32v206.14c0,2.38-2.59,4.31-5.81,4.31h-625.15c-3.22,0-5.81-1.92-5.81-4.31V39.45h.02Z"/><path class="cls-39" d="m519.94,42.14c0-2.32,2.59-4.21,5.75-4.21h620.1c3.18,0,5.75,1.89,5.75,4.21v200.76c0,2.32-2.59,4.21-5.75,4.21h-620.12c-3.18,0-5.75-1.89-5.75-4.21V42.14h.02Z"/><path class="cls-20" d="m523.45,246.78c6.04.3,102.09-28.32,105.18-28.32l15.59,1.58,472.29-.93s29.06,26.66,32.11,27.49c-.82.35-1.76.52-2.78.52h-620.12c-.79,0-1.53-.11-2.22-.32h0l-.04-.02Z"/><path class="cls-20" d="m523.45,38.5c6.04-.3,102.09,28.32,105.18,28.32l15.59-1.58,472.29.93s29.06-26.65,32.11-27.49c-.82-.35-1.76-.52-2.78-.52h-620.12c-.79,0-1.53.11-2.22.33h-.04Z"/><path class="cls-42" d="m627.55,69.22c0-2.32,2.59-4.21,5.75-4.21h479.18c3.18,0,5.75,1.88,5.75,4.21v146.61c0,2.32-2.59,4.21-5.75,4.21h-479.18c-3.18,0-5.75-1.88-5.75-4.21V69.22s0,0,0,0Z"/><path class="cls-28" d="m1094.09,141.67c0-7.04-6.83-12.75-15.23-12.75-8.4,0-15.23,5.71-15.23,12.75,0,7.04,6.83,12.75,15.23,12.75,8.4,0,15.23-5.71,15.23-12.75Z"/><path class="cls-18" d="m1095.13,141.67c0,7.51-7.31,13.62-16.26,13.62-8.96,0-16.26-6.11-16.26-13.62,0-7.51,7.31-13.62,16.26-13.62s16.26,6.11,16.26,13.62Zm-2.09,0c0-6.55-6.37-11.88-14.19-11.88-7.82,0-14.19,5.32-14.19,11.88,0,6.56,6.37,11.88,14.19,11.88,7.82,0,14.19-5.33,14.19-11.88Z"/><path class="cls-20" d="m1089.43,141.67c0-4.89-4.76-8.87-10.61-8.87-5.85,0-10.61,3.98-10.61,8.87,0,4.89,4.76,8.87,10.61,8.87,5.85,0,10.61-3.98,10.61-8.87Z"/><path class="cls-6" d="m1090.49,141.67c0,5.36-5.22,9.75-11.64,9.75-6.42,0-11.64-4.37-11.64-9.75,0-5.38,5.22-9.75,11.64-9.75s11.64,4.39,11.64,9.75Zm-2.09,0c0-4.4-4.3-8-9.55-8s-9.55,3.6-9.55,8,4.3,8,9.55,8c5.25,0,9.55-3.6,9.55-8Z"/><path class="cls-6" d="m1083.2,149.75v-16.14c3.68,1.39,6.25,4.48,6.25,8.08s-2.59,6.69-6.25,8.08h0v-.02Z"/><path class="cls-10" d="m1110.41,152.53c-2.74,0-4.99-1.36-4.99-3.01v-6.25c0-1.67,2.24-3.01,4.99-3.01h55.54c2.74,0,4.99,1.36,4.99,3.01v6.25c0,1.67-2.24,3.01-4.99,3.01h-55.54Z"/><path class="cls-43" d="m1113.15,151.15c-2.07,0-3.74-.98-3.74-2.19v-4.51c0-1.2,1.67-2.19,3.74-2.19h41.73c2.07,0,3.74.98,3.74,2.19v4.51c0,1.2-1.67,2.19-3.74,2.19h-41.73Z"/><path class="cls-40" d="m1113.15,149.45c-2.07,0-3.74-.6-3.74-1.34v-2.78c0-.74,1.67-1.34,3.74-1.34h41.73c2.07,0,3.74.6,3.74,1.34v2.78c0,.74-1.67,1.34-3.74,1.34h-41.73Z"/><polygon class="cls-30" points="1170.02 145.41 1173.76 147.71 1158.28 165.32 1154.54 163.02 1170.02 145.41"/><path class="cls-43" d="m1152.61,163.02c0-.33.12-.68.38-.96l15.48-17.61c.63-.73,1.84-.88,2.72-.35l3.72,2.29c.86.54,1.05,1.55.4,2.27l-15.48,17.61c-.31.35-.77.58-1.28.65-.52.08-1.02-.05-1.46-.3l-3.72-2.29c-.52-.32-.79-.82-.79-1.31h.02Zm17.84-15.34l-13.16,14.99.59.36,13.16-14.99s-.59-.36-.59-.36Z"/><path class="cls-30" d="m1185.09,140.35v12.07c0,1.89-1.82,3.42-4.09,3.42h-12.79c-2.26,0-4.09-1.53-4.09-3.42v-12.07c0-1.89,1.82-3.42,4.09-3.42h12.79c2.26,0,4.09,1.53,4.09,3.42Z"/><path class="cls-19" d="m1175.83,155.82h5.16c2.26,0,4.09-1.53,4.09-3.42v-12.07c0-1.89-1.82-3.42-4.09-3.42h-5.16s0,18.92,0,18.92h0Z"/><path class="cls-43" d="m1162.92,152.42v-12.07c0-2.45,2.38-4.43,5.29-4.43h12.79c2.92,0,5.29,1.99,5.29,4.43v12.07c0,2.45-2.38,4.43-5.29,4.43h-12.79c-2.92,0-5.29-1.99-5.29-4.43Zm20.96-12.07c0-1.31-1.28-2.38-2.86-2.38h-12.79c-1.57,0-2.86,1.07-2.86,2.38v12.07c0,1.31,1.28,2.38,2.86,2.38h12.79c1.57,0,2.86-1.07,2.86-2.38v-12.07Z"/></g><path class="cls-5" d="m623.41,647.62s10.11.67,11.19-15.3c1.08-15.96,1.35-98.12-2.29-101.47-3.64-3.35-9.99-3-9.99-3l1.09,119.76h0Z"/><path class="cls-27" d="m622.89,527.48c1.7,0,6.58.26,9.68,3.11,3.82,3.51,3.51,85.57,2.41,101.76-.42,6.21-2.23,10.69-5.37,13.31-3,2.51-6.09,2.33-6.22,2.33-.2-.01-.35-.17-.36-.36l-1.09-119.76c0-.2.16-.36.36-.36.05,0,.26-.01.6-.01h0Zm.89,119.78c.76-.03,2.67-.26,4.63-1.62,3.36-2.33,5.37-6.95,5.8-13.33,1.15-17.01,1.19-98.08-2.18-101.18-2.99-2.75-7.95-2.93-9.34-2.9l1.08,119.04h0Z"/><rect x="465.63" y="499.08" width="598.97" height="172.39"/><rect class="cls-34" x="465.63" y="491.96" width="598.97" height="7.11"/><rect class="cls-21" x="475.63" y="471.87" width="578.98" height="20.09"/><path class="cls-32" d="m475.63,477.16v-5.29h578.98v20.09h-8.74c-4.84-5.34-16.15-14.8-35.47-14.8H475.63Z"/><rect class="cls-31" x="1037.21" y="471.87" width=".76" height="20.09"/><rect class="cls-31" x="1019.05" y="471.87" width=".76" height="20.09"/><rect class="cls-31" x="1000.89" y="471.87" width=".76" height="20.09"/><rect class="cls-31" x="982.73" y="471.87" width=".76" height="20.09"/><rect class="cls-31" x="964.57" y="471.87" width=".76" height="20.09"/><rect class="cls-31" x="946.4" y="471.87" width=".76" height="20.09"/><rect class="cls-31" x="928.24" y="471.87" width=".76" height="20.09"/><rect class="cls-31" x="910.08" y="471.87" width=".76" height="20.09"/><rect class="cls-31" x="891.92" y="471.87" width=".76" height="20.09"/><rect class="cls-31" x="873.76" y="471.87" width=".76" height="20.09"/><rect class="cls-31" x="855.6" y="471.87" width=".76" height="20.09"/><rect class="cls-31" x="837.44" y="471.87" width=".76" height="20.09"/><rect class="cls-31" x="819.28" y="471.87" width=".76" height="20.09"/><rect class="cls-31" x="801.12" y="471.87" width=".76" height="20.09"/><rect class="cls-31" x="782.95" y="471.87" width=".76" height="20.09"/><rect class="cls-31" x="764.79" y="471.87" width=".76" height="20.09"/><rect class="cls-31" x="746.63" y="471.87" width=".76" height="20.09"/><rect class="cls-31" x="728.47" y="471.87" width=".76" height="20.09"/><rect class="cls-31" x="710.31" y="471.87" width=".76" height="20.09"/><rect class="cls-31" x="692.14" y="471.87" width=".76" height="20.09"/><rect class="cls-31" x="673.98" y="471.87" width=".76" height="20.09"/><rect class="cls-31" x="655.82" y="471.87" width=".76" height="20.09"/><rect class="cls-31" x="637.66" y="471.87" width=".76" height="20.09"/><rect class="cls-31" x="619.5" y="471.87" width=".76" height="20.09"/><rect class="cls-31" x="601.34" y="471.87" width=".76" height="20.09"/><rect class="cls-31" x="583.18" y="471.87" width=".76" height="20.09"/><rect class="cls-31" x="565.02" y="471.87" width=".76" height="20.09"/><rect class="cls-31" x="546.86" y="471.87" width=".76" height="20.09"/><rect class="cls-31" x="528.7" y="471.87" width=".76" height="20.09"/><rect class="cls-31" x="510.54" y="471.87" width=".76" height="20.09"/><rect class="cls-31" x="492.37" y="471.87" width=".76" height="20.09"/><ellipse class="cls-35" cx="918.7" cy="585.27" rx="91.7" ry="57.95"/><ellipse class="cls-5" cx="918.7" cy="582.5" rx="67.23" ry="40.31"/><ellipse class="cls-41" cx="918.7" cy="585.27" rx="11.34" ry="10.82"/><path class="cls-4" d="m915.74,604.76h5.91c1.92,0,3.49,1.44,3.56,3.27l1.34,47.54c.08,1.92-1.54,3.53-3.56,3.53h-8.6c-2.02,0-3.64-1.6-3.56-3.53l1.34-47.54c.08-1.83,1.64-3.27,3.56-3.27h0Z"/><path class="cls-4" d="m912.16,650.99h-3.15c-1.44,0-2.61-1.12-2.61-2.49v-10.61c0-1.37,1.17-2.49,2.61-2.49h2.66s.49,15.58.49,15.58Z"/><path class="cls-16" d="m527.11,638.75v-98.89c0-6.19,5.26-11.2,11.74-11.2h77.39c1.49-.44,2.79-.69,3.93-.77.27-.02.53-.04.78-.04,7.04-.06,7.04,6.79,7.04,12.01v98.89c0,2.3-.73,4.44-1.97,6.22-.69.98-1.53,1.85-2.5,2.58-1.99,1.51-4.52,2.41-7.27,2.41h-77.39c-6,0-10.94-4.29-11.65-9.83-.06-.45-.09-.91-.09-1.38Z"/><path class="cls-15" d="m513.81,522.87c3.63-2.77,28.38-5.54,47.76-4.14,2.25.16,4.43.38,6.49.66,8.55,1.17,17.32.9,24.63.55,9.66-.46,16.79-1.04,17.47,1.38.21.74.55,3.37.96,7.33.22,2.11.47,4.59.73,7.37.02.24.05.49.07.74.47,5.04.99,11.01,1.52,17.43.02.26.04.52.06.79.53,6.41,1.07,13.26,1.58,20.1.02.25.05.5.06.76.43,5.64.84,11.27,1.21,16.62.02.26.04.52.06.78.65,9.37,1.18,17.85,1.49,24.06v.21c0,.19.02.38.03.57.47,8.88,1.6,14.83,2.87,18.83.08.26.16.5.24.74,2.31,6.71,4.96,7.33,4.96,7.33l-2.5,2.58c-1.99,1.51-4.52,2.41-7.27,2.41h-77.39c-6,0-10.94-4.29-11.65-9.83l-.09-1.38v-.03c0-.11,0-.55,0-1.27,0-.22,0-.47,0-.74-.04-3.4-.18-10.8-.71-19.79,0-.23-.02-.47-.04-.72-.26-4.36-.61-9.08-1.08-13.89-.02-.24-.05-.48-.08-.73-.72-7.19-1.7-14.55-3.06-21.21-.05-.25-.11-.5-.16-.74-.15-.71-.3-1.41-.46-2.1-1-4.37-2.02-8.82-2.99-13.2-.05-.24-.11-.47-.16-.71-1.45-6.55-2.79-12.92-3.83-18.62-.04-.24-.08-.48-.12-.71-2.02-11.28-2.76-19.78-.6-21.42h0Z"/><path class="cls-5" d="m527.1,636.72c4.63.64,9.24,1.41,13.92,1.61,8.37.34,16.24-2.31,24.44-3.32,8.76-1.08,17.63.27,26.38.86,9.65.66,19.31,1,28.98,1.04.08.26.16.5.24.74-2.12,0-4.23-.03-6.34-.07-8.76-.16-17.51-.57-26.24-1.22-8.99-.68-17.81-1.65-26.76-.04-4.06.74-8.08,1.73-12.18,2.3-3.88.54-7.75.58-11.66.23-3.61-.33-7.19-.9-10.77-1.39,0-.22,0-.47,0-.74Z"/><path class="cls-5" d="m526.35,616.21c1.6.03,3.22.07,4.82.09,10.41.2,20.81.39,31.22.54,10.29.15,20.69.65,30.97.08,5-.27,9.96-1.23,14.97-1.2,3.31.02,6.45.74,9.58,1.57v.21c0,.19.02.38.03.57-4.11-1.07-8.14-1.81-12.52-1.54-4.91.3-9.75,1.06-14.68,1.22-10.57.34-21.21-.08-31.79-.25-10.86-.17-21.71-.37-32.57-.59,0-.23-.02-.47-.04-.72h0Z"/><path class="cls-5" d="m525.19,601.59c2.51.28,5.03.48,7.57.55,20.86.65,40.34-8.03,60.89-9.87,7.56-.68,15.14-.2,22.71.18.02.26.04.52.06.78-8.63-.4-17.23-.96-25.86.09-10.51,1.28-20.72,4.15-31.03,6.4-10,2.19-20.12,3.72-30.41,2.95-1.29-.09-2.57-.22-3.86-.36-.02-.24-.05-.48-.08-.73h0Z"/><path class="cls-5" d="m521.97,579.64c10.03.49,20.08.88,30.13.97,12.39.11,24.98-.49,36.91-3.91,2.79-.8,5.49-1.96,8.31-2.63,2.6-.61,5.07-.36,7.67.09,3.36.59,6.73.84,10.11.92.02.25.05.5.06.76-1.63-.02-3.25-.09-4.87-.23-3.06-.26-6.07-1.1-9.12-1.22-3.26-.12-6.26,1.2-9.28,2.19-2.88.94-5.82,1.71-8.79,2.33-11.8,2.46-23.95,2.61-35.96,2.35-8.34-.17-16.68-.48-25.01-.87-.05-.25-.11-.5-.16-.74h0Z"/><path class="cls-5" d="m518.36,563.63c2.69-.05,5.38-.15,8.07-.31,10.81-.63,21.57-2.1,32.13-4.37,5.16-1.12,10.22-2.51,15.3-3.89,4.87-1.33,9.65-1.96,14.72-1.86,8.3.17,16.58.71,24.88,1,.02.26.04.52.06.79-4.21-.1-8.42-.26-12.63-.45-5.44-.26-10.92-.81-16.37-.57-5.52.25-10.65,1.9-15.93,3.31-5,1.33-10.05,2.49-15.14,3.45-11.51,2.17-23.2,3.38-34.92,3.62-.05-.24-.11-.47-.16-.71Z"/><path class="cls-5" d="m514.41,544.29c11.02-1.18,21.98-2.86,32.87-4.88,6.31-1.18,12.6-2.48,18.86-3.88,5.71-1.28,11.46-3.05,17.31-3.63,6.02-.59,11.65,1.14,17.43,2.48,3.61.84,7.28,1.35,10.98,1.65.02.24.05.49.07.74-5.23-.44-10.28-1.44-15.37-2.69-3.15-.77-6.34-1.49-9.6-1.58-3.13-.08-6.23.44-9.26,1.12-12.36,2.73-24.65,5.61-37.15,7.75-8.63,1.48-17.31,2.72-26.02,3.65-.04-.24-.08-.48-.12-.71h0Z"/><path class="cls-4" d="m694.99,537.96c1.2-.14,2.41-.19,3.58-.21,4.52-.09,9.84.25,12.26,3.88,1.36,2.03,1.41,4.6,1.4,7.01-.02,14.78-.02,29.57-.04,44.35,0,7.28-.02,14.57-.02,21.85,0,5.9,1,12.41-6.32,14.62-2.64.79-5.46.71-8.23.61-3.55-.13-7.53-.44-9.82-3.03-1.95-2.19-2.05-5.33-2.05-8.2,0-23.42-.02-46.85-.03-70.27,0-2.35.04-4.84,1.36-6.83,1.65-2.49,4.71-3.43,7.9-3.78Z"/><path class="cls-5" d="m679.55,574.05c0-24.53,0-40.37,1.62-39.4,1.62.96,5.94,7.09,13.56,11.59,7.63,4.5,17.51,2.65,17.51,2.65,0,0-.2,72.98-.19,73.13.05,4.05-4.07,6.99-7.77,7.74-2.57.53-5.57.68-8.53.61-2.43-.07-4.83-.28-6.97-.55-.16-.02-.32-.04-.5-.07-.24-.04-.5-.07-.76-.11-3.05-.47-7.47-1.53-7.98-4.6-.61-3.67,0-26.46,0-50.99Z"/><path class="cls-4" d="m750.06,537.96c1.2-.14,2.41-.19,3.58-.21,4.52-.09,9.84.25,12.26,3.88,1.36,2.03,1.41,4.6,1.4,7.01-.02,14.78-.02,29.57-.04,44.35,0,7.28-.02,14.57-.02,21.85,0,5.9,1,12.41-6.32,14.62-2.64.79-5.46.71-8.23.61-3.55-.13-7.53-.44-9.82-3.03-1.95-2.19-2.05-5.33-2.05-8.2,0-23.42-.02-46.85-.03-70.27,0-2.35.04-4.84,1.36-6.83,1.65-2.49,4.71-3.43,7.9-3.78Z"/><path class="cls-5" d="m734.61,574.05c0-24.53,0-40.37,1.62-39.4,1.62.96,5.94,7.09,13.56,11.59,7.63,4.5,17.51,2.65,17.51,2.65,0,0-.2,72.98-.19,73.13.05,4.05-4.07,6.99-7.77,7.74-2.57.53-5.57.68-8.53.61-2.43-.07-4.83-.28-6.97-.55-.57-.07-1.25-.17-1.99-.3-.25-.04-.51-.09-.77-.15-2.83-.58-6.05-1.73-6.48-4.33-.61-3.67,0-26.46,0-50.99h0Z"/><path class="cls-17" d="m911.21,635.49h0c.21,0,.38.17.37.37l-.37,14.9c0,.2-.18.34-.39.36-.21,0-.38-.17-.37-.37l.37-14.9c0-.2.18-.36.38-.36Z"/><path class="cls-35" d="m741.64,562.69c.03-.47.79-.47.76,0-1.34,22.26-1.52,44.56-.54,66.82-.25-.04-.51-.09-.77-.15-.97-22.22-.79-44.47.55-66.68Z"/><path class="cls-35" d="m686.12,563.18c0-.47.76-.47.76,0,.13,22.2.6,44.39,1.41,66.57-.24-.04-.5-.07-.76-.11-.81-22.15-1.28-44.3-1.41-66.46Z"/><path class="cls-16" d="m565.72,522.45c3.25,3.29,5.3,7.3,6.82,11.52.09.23.18.47.25.71.34.97.65,1.95.94,2.92,1.57,5.27,2.8,10.6,4.82,15.74.08.2.16.39.24.59.09.23.18.45.27.68,1.12,2.78,2.28,5.56,3.45,8.33.63,1.49,1.07,3.06,1.67,4.57s1.53,4.99,2.77,2.68c1.33-2.48.43-7.04.17-9.69-.21-2.2-.5-4.4-.6-6.6,0-.24-.02-.47-.02-.71-.02-.8,0-1.6.05-2.41.24-3.56,2.29-6.84,2.24-10.41-.03-2.68-1.24-5.23-1.55-7.87-.03-.23-.05-.46-.06-.69-.04-.71,0-1.41.15-2.14.63-3.05,2.7-5.59,4.37-8.18.29-.45.64-.98.99-1.55-7.31.34-16.08.61-24.63-.55-2.06-.28-4.24-.5-6.49-.66,1.46,1.18,2.85,2.41,4.15,3.73h0Z"/><path class="cls-35" d="m578.79,553.95c2.54-.44,5.1-.7,7.72-.75,0,.24.02.47.02.71-.67,0-1.34.02-2.02.05-1.86.08-3.67.33-5.46.66-.08-.23-.18-.45-.27-.68h0Z"/><path class="cls-35" d="m572.54,533.98c3.61-.88,7.24-1.71,10.91-2.08,1.26-.12,2.51-.15,3.74-.09.02.23.03.46.06.69-.1,0-.2,0-.3,0-3.13-.08-6.23.44-9.26,1.12-1.64.36-3.27.72-4.9,1.09-.08-.24-.16-.48-.25-.71h0Z"/><path class="cls-1" d="m620.17,527.89c.27-.02.53-.04.78-.04,4.09,16.3,2.85,102.66,2.79,106.41,0,.2-.18.36-.38.36h0c-.21,0-.37-.17-.37-.37.02-.92,1.31-90.54-2.8-106.36h0Z"/><rect class="cls-36" x="468.53" y="326.1" width="17.3" height="7.08"/><path class="cls-7" d="m485.85,326.1c-3.58,0-6.48,2.14-6.48,4.82v32.85c0,2.65,2.89,4.82,6.48,4.82h0c3.58,0,6.48-2.14,6.48-4.82v-32.85c0-2.65-2.89-4.82-6.48-4.82h0Z"/><path class="cls-25" d="m485.85,326.1c-1.49,0-2.69,2.07-2.69,4.62v31.6c0,2.55,1.2,4.62,2.69,4.62h0c1.49,0,2.69-2.07,2.69-4.62v-31.6c0-2.55-1.2-4.62-2.69-4.62h0Z"/><polygon class="cls-23" points="446.46 442.18 455.56 442.18 455.56 313.78 446.46 313.78 446.46 305.53 468.53 305.53 468.53 450.43 446.46 450.43 446.46 442.18"/><rect class="cls-36" x="422.49" y="422.8" width="17.3" height="7.08"/><path class="cls-7" d="m422.47,429.87c3.58,0,6.48-2.14,6.48-4.82v-32.85c0-2.65-2.89-4.82-6.48-4.82h0c-3.58,0-6.48,2.14-6.48,4.82v32.85c0,2.65,2.89,4.82,6.48,4.82h0Z"/><path class="cls-25" d="m422.47,429.87c1.49,0,2.69-2.07,2.69-4.62v-31.6c0-2.55-1.2-4.62-2.69-4.62h0c-1.49,0-2.69,2.07-2.69,4.62v31.6c0,2.55,1.2,4.62,2.69,4.62h0Z"/><polygon class="cls-23" points="461.86 313.79 452.76 313.79 452.76 442.19 461.86 442.19 461.86 450.43 439.79 450.43 439.79 305.53 461.86 305.53 461.86 313.79"/></svg>