<?xml version="1.0" encoding="UTF-8"?>
<svg id="Layer_1" data-name="Layer 1" xmlns="http://www.w3.org/2000/svg" viewBox="0 0 317.29 176.08">
  <defs>
    <style>
      .cls-1 {
        fill: #e0e2ed;
      }

      .cls-2 {
        fill: #fcfcff;
      }

      .cls-3 {
        fill: #a0a9bd;
      }

      .cls-4 {
        fill: #c9cede;
      }
    </style>
  </defs>
  <g id="Layer_1-2" data-name="Layer 1">
    <path class="cls-3" d="m175.87,148.12v27.96h29.27v-27.96h-29.27Z"/>
    <path class="cls-1" d="m205.14,176.08h29.27v-27.96h-29.27v27.96h0Z"/>
    <rect class="cls-2" x="205.14" y="118.85" width="29.27" height="29.27"/>
    <path class="cls-2" d="m146.6,148.12v27.96h29.27v-27.96h-29.27Z"/>
    <rect class="cls-3" x="205.14" y="1.76" width="29.27" height="29.27"/>
    <path class="cls-2" d="m234.41,1.76V0h-29.27v1.76h29.27Z"/>
    <rect class="cls-2" x="205.14" y="31.04" width="29.27" height="29.27"/>
    <rect class="cls-1" x="234.41" y="31.04" width="29.27" height="29.27"/>
    <path class="cls-2" d="m205.14,1.76V0h-29.27v1.76h29.27Z"/>
    <rect class="cls-3" x="234.41" y="89.58" width="29.27" height="29.27"/>
    <path class="cls-2" d="m175.87,1.76V0h-29.27v1.76h29.27Z"/>
    <rect class="cls-2" x="205.14" y="89.58" width="29.27" height="29.27"/>
    <rect class="cls-2" x="234.41" y="60.31" width="29.27" height="29.27"/>
    <path class="cls-2" d="m146.6,1.76V0h-29.27v1.76h29.27Z"/>
    <rect class="cls-2" x="146.6" y="89.58" width="29.27" height="29.27"/>
    <rect class="cls-1" x="175.87" y="89.58" width="29.27" height="29.27"/>
    <rect class="cls-1" x="175.87" y="118.85" width="29.27" height="29.27"/>
    <rect class="cls-3" x="146.6" y="118.85" width="29.27" height="29.27"/>
    <path class="cls-2" d="m117.33,0h-29.27v1.76h29.27V0Z"/>
    <rect class="cls-3" x="175.87" y="60.31" width="29.27" height="29.27"/>
    <rect class="cls-2" x="146.6" y="60.31" width="29.27" height="29.27"/>
    <rect class="cls-1" x="205.14" y="60.31" width="29.27" height="29.27"/>
    <rect class="cls-1" x="117.33" y="60.31" width="29.27" height="29.27"/>
    <rect class="cls-4" x="175.87" y="31.04" width="29.27" height="29.27"/>
    <rect class="cls-3" x="146.6" y="31.04" width="29.27" height="29.27"/>
    <rect class="cls-2" x="88.05" y="89.58" width="29.27" height="29.27"/>
    <rect class="cls-4" x="117.33" y="89.58" width="29.27" height="29.27"/>
    <rect class="cls-1" x="175.87" y="1.76" width="29.27" height="29.27"/>
    <rect class="cls-2" x="117.33" y="118.85" width="29.27" height="29.27"/>
    <rect class="cls-3" x="88.05" y="60.31" width="29.27" height="29.27"/>
    <rect class="cls-1" x="117.33" y="1.76" width="29.27" height="29.27"/>
    <path class="cls-3" d="m117.33,148.12v27.96h29.27v-27.96h-29.27Z"/>
    <rect class="cls-2" x="88.05" y="31.04" width="29.27" height="29.27"/>
    <rect class="cls-4" x="117.33" y="31.04" width="29.27" height="29.27"/>
    <path class="cls-2" d="m88.05,176.08v-27.96h-29.27v27.96h29.27Z"/>
    <path class="cls-3" d="m263.68,148.12v27.96h29.27v-27.96h-29.27Z"/>
    <path class="cls-2" d="m88.05,1.76V0h-29.27v1.76h29.27Z"/>
    <path class="cls-1" d="m292.95,31.04h24.34V1.76h-24.34v29.27h0Z"/>
    <path class="cls-2" d="m292.95,60.31h24.34v-29.27h-24.34v29.27Z"/>
    <path class="cls-2" d="m317.28,1.76V0h-24.34v1.76h24.34Z"/>
    <path class="cls-2" d="m263.68,0v1.76h29.27V0h-29.27Z"/>
    <path class="cls-2" d="m292.95,176.08h24.34v-27.96h-24.34v27.96h0Z"/>
    <path class="cls-1" d="m292.95,148.12h24.34v-29.27h-24.34v29.27Z"/>
    <path class="cls-4" d="m292.95,118.85h24.34v-29.27h-24.34s0,29.27,0,29.27Z"/>
    <path class="cls-3" d="m292.95,89.58h24.34v-29.27h-24.34v29.27Z"/>
    <rect class="cls-2" x="58.78" y="89.58" width="29.27" height="29.27"/>
    <rect class="cls-4" x="88.05" y="1.76" width="29.27" height="29.27"/>
    <rect class="cls-2" x="88.05" y="118.85" width="29.27" height="29.27"/>
    <rect class="cls-4" x="58.78" y="118.85" width="29.27" height="29.27"/>
    <path class="cls-2" d="m234.41,176.08h29.27v-27.96h-29.27v27.96h0Z"/>
    <path class="cls-1" d="m117.33,148.12h-29.27v27.96h29.27v-27.96Z"/>
    <rect class="cls-3" x="58.78" y="1.76" width="29.27" height="29.27"/>
    <rect class="cls-1" x="58.78" y="60.31" width="29.27" height="29.27"/>
    <rect class="cls-2" x="58.78" y="31.04" width="29.27" height="29.27"/>
    <rect class="cls-3" x="263.68" y="31.04" width="29.27" height="29.27"/>
    <rect class="cls-1" x="234.41" y="118.85" width="29.27" height="29.27"/>
    <path class="cls-2" d="m234.41,1.76h29.27V0h-29.27v1.76h0Z"/>
    <rect class="cls-2" x="263.68" y="1.76" width="29.27" height="29.27"/>
    <rect class="cls-2" x="263.68" y="118.85" width="29.27" height="29.27"/>
    <rect class="cls-2" x="263.68" y="89.58" width="29.27" height="29.27"/>
    <rect class="cls-4" x="263.68" y="60.31" width="29.27" height="29.27"/>
    <rect class="cls-1" x="234.41" y="1.76" width="29.27" height="29.27"/>
    <polyline class="cls-1" points="0 60.31 29.27 60.31 29.27 31.04 0 31.04"/>
    <polyline class="cls-3" points="0 118.85 29.27 118.85 29.27 89.58 0 89.58"/>
    <polyline class="cls-2" points="0 89.58 29.27 89.58 29.27 60.31 0 60.31"/>
    <path class="cls-3" d="m29.27,148.12v27.96h29.27v-27.96h-29.27Z"/>
    <path class="cls-2" d="m29.27,0v1.76h29.27V0h-29.27Z"/>
    <path class="cls-2" d="m0,176.08h29.27v-27.96H0"/>
    <rect class="cls-3" x="29.27" y="31.04" width="29.27" height="29.27"/>
    <polyline class="cls-1" points="0 148.12 29.27 148.12 29.27 118.85 0 118.85"/>
    <path class="cls-2" d="m0,1.76h29.27V0H0"/>
    <rect class="cls-2" x="29.27" y="1.76" width="29.27" height="29.27"/>
    <rect class="cls-2" x="29.27" y="118.85" width="29.27" height="29.27"/>
    <rect class="cls-2" x="29.27" y="89.58" width="29.27" height="29.27"/>
    <rect class="cls-4" x="29.27" y="60.31" width="29.27" height="29.27"/>
    <polyline class="cls-1" points="0 31.04 29.27 31.04 29.27 1.76 0 1.76"/>
  </g>
</svg>