<?xml version="1.0" encoding="UTF-8"?><svg id="Layer_1" xmlns="http://www.w3.org/2000/svg" viewBox="0 0 533.29 397.92"><defs><style>.cls-1{fill:#c98036;}.cls-2{fill:#d6d7d8;}.cls-3{fill:#f5decc;}.cls-4{fill:#fff;}.cls-5{fill:#56c4ce;}.cls-5,.cls-6{stroke:#00866a;stroke-miterlimit:10;stroke-width:.25px;}.cls-7{fill:#9c9ea1;}.cls-8{fill:#eab880;isolation:isolate;opacity:.3;}.cls-9{fill:#faaa48;}.cls-10{fill:#ffc383;}.cls-11{fill:#f7ae5e;}.cls-12{fill:#d6bba3;}.cls-13{fill:#a6a8ab;}.cls-14{fill:#d7d8da;}.cls-15{fill:#f7d6ba;}.cls-16{fill:#d0d2d3;}.cls-17{fill:#faf5b6;}.cls-18{fill:#232236;}.cls-19{fill:#bbbdbf;}.cls-20{fill:#dbae86;}.cls-21{fill:#e6bf9b;}.cls-22{fill:#333345;}.cls-23{fill:#f5e8df;}.cls-24{fill:#e6e7e8;}.cls-6{fill:#b6e0d8;}.cls-25{fill:#f1f1f2;}.cls-26{fill:#cdf4ff;}</style></defs><rect class="cls-9" x=".02" width="532.86" height="394.96"/><polygon class="cls-17" points="28.79 397.92 20.46 389.63 12.13 397.92 28.79 397.92"/><polygon class="cls-17" points="10.44 397.92 19.62 388.8 0 369.29 0 397.92 10.44 397.92"/><polygon class="cls-17" points="104.14 397.92 95.82 389.63 87.48 397.92 104.14 397.92"/><polygon class="cls-17" points="85.81 397.92 94.97 388.8 58.13 352.17 21.29 388.8 30.47 397.92 85.81 397.92"/><polygon class="cls-17" points="57.29 351.33 20.46 314.7 0 335.04 0 367.61 20.46 387.96 57.29 351.33"/><polygon class="cls-17" points="0 294.35 0 333.36 19.62 313.86 0 294.35"/><polygon class="cls-17" points="179.51 397.92 171.18 389.63 162.84 397.92 179.51 397.92"/><polygon class="cls-17" points="161.16 397.92 170.33 388.8 133.49 352.17 96.66 388.8 105.83 397.92 161.16 397.92"/><polygon class="cls-17" points="58.97 351.34 95.81 314.71 132.65 351.34 95.81 387.96 58.97 351.34"/><polygon class="cls-17" points="21.3 313.86 58.14 277.23 94.97 313.86 58.14 350.48 21.3 313.86"/><polygon class="cls-17" points="57.29 276.4 20.46 239.77 0 260.1 0 292.68 20.46 313.02 57.29 276.4"/><polygon class="cls-17" points="0 219.42 0 258.43 19.62 238.93 0 219.42"/><polygon class="cls-17" points="254.87 397.92 246.54 389.63 238.21 397.92 254.87 397.92"/><polygon class="cls-17" points="236.52 397.92 245.7 388.8 208.86 352.17 172.02 388.8 181.2 397.92 236.52 397.92"/><polygon class="cls-17" points="134.34 351.32 171.18 314.7 208.02 351.32 171.18 387.95 134.34 351.32"/><polygon class="cls-17" points="96.65 313.87 133.49 277.24 170.32 313.87 133.49 350.5 96.65 313.87"/><polygon class="cls-17" points="58.97 276.4 95.81 239.77 132.65 276.4 95.81 313.02 58.97 276.4"/><polygon class="cls-17" points="21.3 238.92 58.13 202.29 94.97 238.92 58.13 275.55 21.3 238.92"/><polygon class="cls-17" points="57.29 201.45 20.46 164.83 0 185.16 0 217.75 20.46 238.09 57.29 201.45"/><polygon class="cls-17" points="0 144.48 0 183.49 19.62 163.99 0 144.48"/><polygon class="cls-17" points="330.22 397.92 321.9 389.63 313.56 397.92 330.22 397.92"/><polygon class="cls-17" points="311.89 397.92 321.06 388.8 284.22 352.17 247.38 388.8 256.55 397.92 311.89 397.92"/><polygon class="cls-17" points="209.7 351.33 246.53 314.7 283.37 351.33 246.53 387.96 209.7 351.33"/><polygon class="cls-17" points="172.02 313.86 208.85 277.24 245.69 313.86 208.85 350.49 172.02 313.86"/><polygon class="cls-17" points="134.33 276.38 171.17 239.76 208.01 276.38 171.17 313.01 134.33 276.38"/><polygon class="cls-17" points="96.66 238.94 133.49 202.3 170.33 238.94 133.49 275.57 96.66 238.94"/><polygon class="cls-17" points="58.98 201.45 95.82 164.83 132.65 201.45 95.82 238.09 58.98 201.45"/><polygon class="cls-17" points="21.3 163.98 58.13 127.36 94.97 163.98 58.13 200.62 21.3 163.98"/><polygon class="cls-17" points="57.29 126.52 20.46 89.89 0 110.23 0 142.8 20.46 163.15 57.29 126.52"/><polygon class="cls-17" points="0 69.55 0 108.56 19.62 89.05 0 69.55"/><polygon class="cls-17" points="405.59 397.92 397.26 389.63 388.92 397.92 405.59 397.92"/><polygon class="cls-17" points="387.24 397.92 396.41 388.8 359.57 352.17 322.74 388.8 331.91 397.92 387.24 397.92"/><polygon class="cls-17" points="285.06 351.33 321.9 314.7 358.74 351.33 321.9 387.96 285.06 351.33"/><polygon class="cls-17" points="247.38 313.86 284.21 277.23 321.05 313.86 284.21 350.49 247.38 313.86"/><polygon class="cls-17" points="209.69 276.39 246.53 239.76 283.37 276.39 246.53 313.02 209.69 276.39"/><polygon class="cls-17" points="172.02 238.93 208.86 202.29 245.7 238.93 208.86 275.56 172.02 238.93"/><polygon class="cls-17" points="134.34 201.45 171.18 164.82 208.01 201.45 171.18 238.09 134.34 201.45"/><polygon class="cls-17" points="96.66 163.99 133.49 127.36 170.33 163.99 133.49 200.63 96.66 163.99"/><polygon class="cls-17" points="58.99 126.52 95.82 89.89 132.66 126.52 95.82 163.15 58.99 126.52"/><polygon class="cls-17" points="21.29 89.05 58.13 52.42 94.97 89.05 58.13 125.68 21.29 89.05"/><polygon class="cls-17" points="57.29 51.59 20.46 14.96 0 35.29 0 67.87 20.46 88.22 57.29 51.59"/><polygon class="cls-17" points="0 5 0 33.63 19.62 14.12 10.44 5 0 5"/><polygon class="cls-17" points="480.95 397.92 472.61 389.63 464.29 397.92 480.95 397.92"/><polygon class="cls-17" points="462.6 397.92 471.78 388.8 434.94 352.17 398.1 388.8 407.28 397.92 462.6 397.92"/><polygon class="cls-17" points="360.42 351.34 397.26 314.72 434.1 351.34 397.26 387.97 360.42 351.34"/><polygon class="cls-17" points="322.74 313.86 359.58 277.23 396.41 313.86 359.58 350.48 322.74 313.86"/><polygon class="cls-17" points="285.06 276.39 321.9 239.76 358.73 276.39 321.9 313.02 285.06 276.39"/><polygon class="cls-17" points="247.38 238.93 284.21 202.29 321.05 238.93 284.21 275.55 247.38 238.93"/><polygon class="cls-17" points="209.69 201.47 246.53 164.83 283.36 201.47 246.53 238.09 209.69 201.47"/><polygon class="cls-17" points="172.01 163.98 208.85 127.35 245.69 163.98 208.85 200.62 172.01 163.98"/><polygon class="cls-17" points="134.34 126.52 171.17 89.89 208.01 126.52 171.17 163.14 134.34 126.52"/><polygon class="cls-17" points="96.65 89.06 133.49 52.43 170.33 89.06 133.49 125.68 96.65 89.06"/><polygon class="cls-17" points="58.98 51.58 95.81 14.95 132.65 51.58 95.81 88.21 58.98 51.58"/><polygon class="cls-17" points="94.97 14.12 85.8 5 30.47 5 21.29 14.12 58.13 50.75 94.97 14.12"/><polygon class="cls-17" points="28.79 5 12.13 5 20.46 13.28 28.79 5"/><polygon class="cls-17" points="532.88 397.92 532.88 374.62 510.3 352.17 473.46 388.8 482.64 397.92 532.88 397.92"/><polygon class="cls-17" points="435.77 351.32 472.61 314.7 509.45 351.32 472.61 387.95 435.77 351.32"/><polygon class="cls-17" points="398.1 313.86 434.93 277.23 471.77 313.86 434.93 350.48 398.1 313.86"/><polygon class="cls-17" points="360.41 276.39 397.25 239.76 434.09 276.39 397.25 313.01 360.41 276.39"/><polygon class="cls-17" points="322.74 238.93 359.57 202.3 396.41 238.93 359.57 275.56 322.74 238.93"/><polygon class="cls-17" points="285.06 201.45 321.9 164.82 358.73 201.45 321.9 238.08 285.06 201.45"/><polygon class="cls-17" points="247.37 163.98 284.21 127.35 321.05 163.98 284.21 200.6 247.37 163.98"/><polygon class="cls-17" points="209.7 126.52 246.53 89.9 283.37 126.52 246.53 163.15 209.7 126.52"/><polygon class="cls-17" points="172.02 89.05 208.86 52.42 245.69 89.05 208.86 125.68 172.02 89.05"/><polygon class="cls-17" points="134.34 51.59 171.18 14.96 208.02 51.59 171.18 88.21 134.34 51.59"/><polygon class="cls-17" points="170.33 14.12 161.16 5 105.83 5 96.66 14.12 133.5 50.75 170.33 14.12"/><polygon class="cls-17" points="104.15 5 87.48 5 95.82 13.28 104.15 5"/><polygon class="cls-17" points="532.88 372.95 532.88 329.71 511.14 351.33 532.88 372.95"/><polygon class="cls-17" points="473.46 313.86 510.3 350.49 532.88 328.05 532.88 299.68 510.3 277.24 473.46 313.86"/><polygon class="cls-17" points="435.77 276.38 472.61 239.76 509.45 276.38 472.61 313.01 435.77 276.38"/><polygon class="cls-17" points="398.1 238.92 434.94 202.29 471.78 238.92 434.94 275.55 398.1 238.92"/><polygon class="cls-17" points="360.42 201.45 397.26 164.83 434.09 201.45 397.26 238.09 360.42 201.45"/><polygon class="cls-17" points="322.74 163.98 359.57 127.36 396.41 163.98 359.57 200.62 322.74 163.98"/><polygon class="cls-17" points="285.06 126.51 321.9 89.89 358.74 126.52 321.91 163.15 285.06 126.51"/><polygon class="cls-17" points="247.38 89.05 284.22 52.43 321.05 89.05 284.22 125.68 247.38 89.05"/><polygon class="cls-17" points="209.7 51.59 246.54 14.96 283.38 51.59 246.54 88.22 209.7 51.59"/><polygon class="cls-17" points="245.7 14.12 236.52 5 181.2 5 172.02 14.12 208.86 50.75 245.7 14.12"/><polygon class="cls-17" points="179.51 5 162.85 5 171.18 13.28 179.51 5"/><polygon class="cls-17" points="532.88 298 532.88 254.77 511.14 276.4 532.88 298"/><polygon class="cls-17" points="473.46 238.93 510.3 275.56 532.88 253.1 532.88 224.75 510.3 202.29 473.46 238.93"/><polygon class="cls-17" points="435.78 201.47 472.62 164.83 509.45 201.47 472.62 238.1 435.78 201.47"/><polygon class="cls-17" points="398.09 163.97 434.93 127.35 471.77 163.97 434.93 200.6 398.09 163.97"/><polygon class="cls-17" points="360.42 126.52 397.25 89.89 434.09 126.52 397.25 163.15 360.42 126.52"/><polygon class="cls-17" points="322.74 89.06 359.58 52.43 396.41 89.06 359.58 125.69 322.74 89.06"/><polygon class="cls-17" points="285.05 51.58 321.89 14.95 358.73 51.58 321.89 88.2 285.05 51.58"/><polygon class="cls-17" points="321.06 14.12 311.88 5 256.55 5 247.38 14.12 284.22 50.75 321.06 14.12"/><polygon class="cls-17" points="254.87 5 238.21 5 246.54 13.28 254.87 5"/><polygon class="cls-17" points="532.88 223.07 532.88 179.84 511.14 201.45 532.88 223.07"/><polygon class="cls-17" points="473.46 163.99 510.3 200.63 532.88 178.17 532.88 149.82 510.3 127.36 473.46 163.99"/><polygon class="cls-17" points="435.79 126.53 472.62 89.9 509.46 126.53 472.62 163.15 435.79 126.53"/><polygon class="cls-17" points="398.1 89.05 434.94 52.42 471.77 89.05 434.94 125.68 398.1 89.05"/><polygon class="cls-17" points="360.42 51.59 397.26 14.96 434.09 51.59 397.26 88.21 360.42 51.59"/><polygon class="cls-17" points="396.41 14.12 387.24 5 331.91 5 322.74 14.12 359.58 50.75 396.41 14.12"/><polygon class="cls-17" points="330.23 5 313.56 5 321.9 13.28 330.23 5"/><polygon class="cls-17" points="532.88 148.14 532.88 104.91 511.14 126.52 532.88 148.14"/><polygon class="cls-17" points="473.46 89.05 510.3 125.68 532.88 103.24 532.88 74.87 510.3 52.43 473.46 89.05"/><polygon class="cls-17" points="435.79 51.6 472.63 14.97 509.46 51.6 472.63 88.23 435.79 51.6"/><polygon class="cls-17" points="471.78 14.12 462.6 5 407.27 5 398.1 14.12 434.94 50.75 471.78 14.12"/><polygon class="cls-17" points="405.59 5 388.93 5 397.26 13.28 405.59 5"/><polygon class="cls-17" points="532.88 73.19 532.88 29.97 511.14 51.59 532.88 73.19"/><polygon class="cls-17" points="532.88 28.29 532.88 5 482.64 5 473.46 14.12 510.3 50.75 532.88 28.29"/><polygon class="cls-17" points="480.95 5 464.29 5 472.62 13.28 480.95 5"/><path class="cls-5" d="m518.83,240.11c0,1.41-1.62,2.57-3.62,2.57H227.79c-2,0-3.62-1.15-3.62-2.57V111.12c0-1.41,1.62-2.56,3.62-2.56h287.42c2,0,3.62,1.14,3.62,2.56v128.99s0,0,0,0Z"/><rect class="cls-6" x="239.39" y="108.56" width="11.75" height="134.12"/><rect class="cls-6" x="262.9" y="108.56" width="11.75" height="134.12"/><rect class="cls-6" x="286.41" y="108.56" width="11.75" height="134.12"/><rect class="cls-6" x="309.92" y="108.56" width="11.75" height="134.12"/><rect class="cls-6" x="333.43" y="108.56" width="11.75" height="134.12"/><rect class="cls-6" x="356.94" y="108.56" width="11.75" height="134.12"/><rect class="cls-6" x="380.45" y="108.56" width="11.75" height="134.12"/><rect class="cls-6" x="403.96" y="108.56" width="11.75" height="134.12"/><rect class="cls-6" x="427.46" y="108.56" width="11.75" height="134.12"/><rect class="cls-6" x="450.97" y="108.56" width="11.75" height="134.12"/><rect class="cls-6" x="474.48" y="108.56" width="11.75" height="134.12"/><rect class="cls-6" x="497.99" y="108.56" width="11.75" height="134.12"/><g id="t-sink"><path class="cls-8" d="m172.22,218.19V81.88h0v-2.96h0v-22.48c5.53-2.62,8.52-4.56,8.52-4.56.9-.61,1.8-1.49,1.8-2.41V11.09c0-.92-.8-1.67-1.8-1.67H37.36c-.99,0-1.8.75-1.8,1.67v38.37c0,.92.89,1.81,1.8,2.41,0,0,2.98,1.95,8.52,4.56v161.75c0,5.24,25.54,14.62,63.18,15.89,37.64-1.27,63.18-10.65,63.18-15.89h-.02Z"/><path class="cls-2" d="m109.04,209.05c34.81-1.35,58.42-11.34,58.42-16.91V47.09c0-.77-.74-1.39-1.66-1.39H52.28c-.92,0-1.66.62-1.66,1.39v145.05c0,5.57,23.62,15.56,58.42,16.91h0Z"/><path class="cls-19" d="m109.04,206.34c34.81-1.07,58.42-8.98,58.42-13.4v-114.98c0-.61-.74-1.11-1.66-1.11H52.28c-.92,0-1.66.49-1.66,1.11v114.98c0,4.42,23.62,12.33,58.42,13.4Z"/><path class="cls-24" d="m109.04,229.59c34.81-1.24,58.42-10.41,58.42-15.53V80.85c0-.7-.74-1.28-1.66-1.28H52.28c-.92,0-1.66.57-1.66,1.28v133.22c0,5.12,23.62,14.29,58.42,15.53h0Z"/><path class="cls-4" d="m109.04,224.63c32.5-1.15,54.55-9.72,54.55-14.5v-124.4c0-.66-.69-1.19-1.55-1.19H56.03c-.85,0-1.55.53-1.55,1.19v124.4c0,4.78,22.06,13.35,54.56,14.5Z"/><path class="cls-25" d="m42.74,51.51s25.64,17.77,66.3,17.77,66.3-17.77,66.3-17.77c.83-.59,1.66-1.45,1.66-2.35V11.66c0-.9-.74-1.63-1.66-1.63H42.74c-.92,0-1.66.73-1.66,1.63v37.5c0,.9.83,1.76,1.66,2.35Z"/><path class="cls-4" d="m45.97,50.32s24.4,15.97,63.07,15.97,63.07-15.97,63.07-15.97c.79-.53,1.58-1.31,1.58-2.12V14.49c0-.81-.71-1.46-1.58-1.46H45.97c-.87,0-1.58.65-1.58,1.46v33.71c0,.81.78,1.59,1.58,2.12Z"/><path class="cls-19" d="m125.43,72.05h23.21c.92,0,1.66.73,1.66,1.63v4.26c0,.9-.74,1.63-1.66,1.63h-23.21c-.92,0-1.66-.73-1.66-1.63v-4.26c0-.9.74-1.63,1.66-1.63Z"/><path class="cls-25" d="m127.36,72.68h19.34c.76,0,1.38.61,1.38,1.35v3.55c0,.75-.62,1.35-1.38,1.35h-19.34c-.76,0-1.38-.61-1.38-1.35v-3.55c0-.75.62-1.35,1.38-1.35h0Z"/><path class="cls-19" d="m69.44,72.05h23.21c.92,0,1.66.73,1.66,1.63v4.26c0,.9-.74,1.63-1.66,1.63h-23.21c-.92,0-1.66-.73-1.66-1.63v-4.26c0-.9.74-1.63,1.66-1.63Z"/><path class="cls-25" d="m71.38,72.68h19.34c.76,0,1.38.61,1.38,1.35v3.55c0,.75-.62,1.35-1.38,1.35h-19.34c-.76,0-1.38-.61-1.38-1.35v-3.55c0-.75.62-1.35,1.38-1.35Z"/><path class="cls-19" d="m109.04,42.49c-3.69,0-6.68-2.94-6.68-6.56s2.98-6.56,6.68-6.56,6.68,2.94,6.68,6.56-2.99,6.56-6.68,6.56Z"/><path class="cls-13" d="m101.84,35.93c0-3.9,3.23-7.08,7.2-7.08s7.2,3.17,7.2,7.08-3.23,7.08-7.2,7.08-7.2-3.17-7.2-7.08Zm13.35,0c0-3.33-2.76-6.04-6.15-6.04s-6.15,2.71-6.15,6.04,2.77,6.04,6.15,6.04,6.15-2.71,6.15-6.04Z"/><path class="cls-14" d="m109.04,40.5c-2.57,0-4.64-2.04-4.64-4.56s2.08-4.56,4.64-4.56,4.64,2.04,4.64,4.56-2.08,4.56-4.64,4.56Z"/><path class="cls-7" d="m103.87,35.93c0-2.8,2.32-5.08,5.17-5.08s5.17,2.28,5.17,5.08-2.32,5.08-5.17,5.08-5.17-2.28-5.17-5.08Zm9.29,0c0-2.23-1.85-4.05-4.12-4.05s-4.12,1.82-4.12,4.05,1.85,4.05,4.12,4.05,4.12-1.82,4.12-4.05Z"/><path class="cls-7" d="m113.27,37.8h-8.45c.73,1.59,2.34,2.69,4.23,2.69s3.49-1.11,4.23-2.69h-.01Z"/></g><g id="t-paper"><path class="cls-19" d="m12.35,160.63H.89v-5.1h11.46c.29,0,.54-.23.54-.51v-45.95c0-.27-.24-.51-.54-.51H.36v-5.11h11.99c3.24,0,5.87,2.52,5.87,5.63v45.95c0,3.09-2.63,5.61-5.87,5.61h0Z"/><path class="cls-16" d="m13.43,158.59H4.1v-1.03h9.33c1.2,0,2.18-1.15,2.18-2.56v-45.95c0-1.41-.98-2.56-2.18-2.56H3.66v-1.03h9.77c1.68,0,3.05,1.61,3.05,3.57v45.95c0,1.97-1.37,3.57-3.05,3.57v.02Z"/><rect class="cls-4" x="5.52" y="116.04" width="21.06" height="32.78"/></g><path class="cls-4" d="m228.32,21.61s-5.61-.55-6.21,12.45c-.6,12.99-.75,79.85,1.27,82.58,2.02,2.72,5.55,2.44,5.55,2.44l-.61-97.46h0Z"/><path class="cls-18" d="m228.61,119.38c-.94,0-3.65-.21-5.38-2.53-2.12-2.85-1.95-69.64-1.34-82.81.23-5.05,1.24-8.7,2.98-10.83,1.67-2.04,3.38-1.9,3.45-1.89.11.01.2.14.2.3l.61,97.46c0,.16-.09.29-.2.3-.03,0-.14.01-.33.01h0Zm-.5-97.48c-.42.02-1.48.21-2.57,1.32-1.87,1.9-2.98,5.65-3.22,10.85-.64,13.85-.66,79.82,1.21,82.34,1.66,2.24,4.41,2.38,5.19,2.36l-.6-96.88h0Z"/><rect x="200.33" y="3.28" width="332.72" height="142.39"/><rect class="cls-22" x="200.57" y="145.66" width="332.72" height="5.79"/><rect class="cls-15" x="206.12" y="151.45" width="321.62" height="16.35"/><path class="cls-21" d="m527.74,163.5v4.31H206.12v-16.35h4.86c2.69,4.34,8.97,12.04,19.7,12.04h297.06Z"/><rect class="cls-20" x="215.36" y="151.45" width=".42" height="16.35"/><rect class="cls-20" x="225.45" y="151.45" width=".42" height="16.35"/><rect class="cls-20" x="235.54" y="151.45" width=".42" height="16.35"/><rect class="cls-20" x="245.63" y="151.45" width=".42" height="16.35"/><rect class="cls-20" x="255.71" y="151.45" width=".42" height="16.35"/><rect class="cls-20" x="265.8" y="151.45" width=".42" height="16.35"/><rect class="cls-20" x="275.89" y="151.45" width=".42" height="16.35"/><rect class="cls-20" x="285.98" y="151.45" width=".42" height="16.35"/><rect class="cls-20" x="296.07" y="151.45" width=".42" height="16.35"/><rect class="cls-20" x="306.16" y="151.45" width=".42" height="16.35"/><rect class="cls-20" x="316.24" y="151.45" width=".42" height="16.35"/><rect class="cls-20" x="326.33" y="151.45" width=".42" height="16.35"/><rect class="cls-20" x="336.42" y="151.45" width=".42" height="16.35"/><rect class="cls-20" x="346.51" y="151.45" width=".42" height="16.35"/><rect class="cls-20" x="356.6" y="151.45" width=".42" height="16.35"/><rect class="cls-20" x="366.69" y="151.45" width=".42" height="16.35"/><rect class="cls-20" x="376.78" y="151.45" width=".42" height="16.35"/><rect class="cls-20" x="386.87" y="151.45" width=".42" height="16.35"/><rect class="cls-20" x="396.96" y="151.45" width=".42" height="16.35"/><rect class="cls-20" x="407.04" y="151.45" width=".42" height="16.35"/><rect class="cls-20" x="417.13" y="151.45" width=".42" height="16.35"/><rect class="cls-20" x="427.22" y="151.45" width=".42" height="16.35"/><rect class="cls-20" x="437.31" y="151.45" width=".42" height="16.35"/><rect class="cls-20" x="447.4" y="151.45" width=".42" height="16.35"/><rect class="cls-20" x="457.48" y="151.45" width=".42" height="16.35"/><rect class="cls-20" x="467.57" y="151.45" width=".42" height="16.35"/><rect class="cls-20" x="477.66" y="151.45" width=".42" height="16.35"/><rect class="cls-20" x="487.75" y="151.45" width=".42" height="16.35"/><rect class="cls-20" x="497.84" y="151.45" width=".42" height="16.35"/><rect class="cls-20" x="507.93" y="151.45" width=".42" height="16.35"/><rect class="cls-20" x="518.01" y="151.45" width=".42" height="16.35"/><path class="cls-11" d="m281.82,28.82v80.48c0,5.04-2.92,9.12-6.52,9.12h-42.99c-.83.36-1.55.56-2.18.63-.15.02-.29.03-.43.03-3.91.05-3.91-5.53-3.91-9.78V28.82c0-1.87.4-3.61,1.09-5.06.38-.79.85-1.51,1.39-2.1,1.11-1.23,2.51-1.96,4.04-1.96h42.99c3.33,0,6.08,3.49,6.47,8,.03.37.05.74.05,1.12Z"/><path class="cls-10" d="m289.21,123.13c-2.02,2.25-15.76,4.51-26.53,3.37-1.25-.13-2.46-.31-3.61-.54-4.75-.95-9.62-.73-13.68-.45-5.37.37-9.32.85-9.71-1.12-.12-.61-.31-2.74-.53-5.97-.12-1.71-.26-3.73-.4-6-.01-.2-.03-.4-.04-.6-.26-4.11-.55-8.96-.84-14.18-.01-.21-.02-.43-.03-.64-.29-5.22-.59-10.79-.88-16.36-.01-.2-.03-.41-.03-.62-.24-4.59-.47-9.17-.67-13.53-.01-.21-.02-.42-.03-.63-.36-7.62-.66-14.53-.83-19.58v-.17c0-.15,0-.31-.02-.46-.26-7.23-.89-12.07-1.6-15.32-.04-.21-.09-.41-.13-.6-1.28-5.46-2.75-5.96-2.75-5.96l1.39-2.1c1.11-1.23,2.51-1.96,4.04-1.96h42.99c3.33,0,6.08,3.49,6.47,8l.05,1.12v.02c0,.09,0,.44,0,1.03,0,.18,0,.38,0,.6.02,2.77.1,8.79.39,16.11,0,.19.01.39.02.59.14,3.55.34,7.39.6,11.3.01.2.03.39.04.59.4,5.85.95,11.84,1.7,17.26.03.2.06.4.09.61.08.58.17,1.14.25,1.71.56,3.55,1.12,7.18,1.66,10.74.03.2.06.39.09.58.81,5.33,1.55,10.52,2.13,15.15.02.2.05.39.07.58,1.12,9.18,1.53,16.09.33,17.44h0Z"/><path class="cls-4" d="m281.83,30.48c-2.57-.52-5.14-1.15-7.73-1.31-4.65-.28-9.02,1.88-13.58,2.71-4.86.88-9.8-.22-14.65-.7-5.36-.53-10.73-.81-16.1-.85-.04-.21-.09-.41-.13-.6,1.18,0,2.35.02,3.52.05,4.87.13,9.73.46,14.58,1,5,.55,9.89,1.34,14.86.03,2.26-.6,4.49-1.41,6.77-1.87,2.16-.44,4.31-.47,6.48-.18,2,.27,3.99.74,5.98,1.13,0,.18,0,.38,0,.6Z"/><path class="cls-4" d="m282.24,47.17c-.89-.02-1.79-.05-2.68-.08-5.78-.16-11.56-.31-17.34-.44-5.72-.12-11.49-.53-17.21-.07-2.78.22-5.53,1-8.31.97-1.84-.02-3.58-.6-5.32-1.28v-.17c0-.15,0-.31-.02-.46,2.28.87,4.52,1.47,6.96,1.25,2.73-.24,5.42-.87,8.15-1,5.87-.27,11.78.07,17.66.2,6.03.14,12.06.3,18.09.48,0,.19.01.39.02.59h0Z"/><path class="cls-4" d="m282.89,59.07c-1.4-.23-2.8-.39-4.21-.45-11.59-.53-22.41,6.53-33.82,8.03-4.2.55-8.41.16-12.62-.15-.01-.21-.02-.42-.03-.63,4.79.33,9.57.78,14.37-.08,5.84-1.04,11.51-3.38,17.24-5.21,5.56-1.78,11.18-3.03,16.89-2.4.72.08,1.43.18,2.14.3.01.2.03.39.04.59h0Z"/><path class="cls-4" d="m284.68,76.93c-5.57-.4-11.15-.72-16.73-.79-6.88-.09-13.87.4-20.5,3.19-1.55.65-3.05,1.6-4.62,2.14-1.44.5-2.82.29-4.26-.08-1.87-.48-3.74-.68-5.61-.75-.01-.2-.03-.41-.03-.62.9.02,1.8.07,2.7.18,1.7.21,3.37.9,5.07,1,1.81.1,3.48-.98,5.15-1.79,1.6-.77,3.23-1.39,4.88-1.89,6.55-2,13.31-2.12,19.98-1.92,4.63.14,9.26.39,13.89.71.03.2.06.4.09.61h0Z"/><path class="cls-4" d="m286.68,89.96c-1.49.04-2.99.12-4.48.26-6.01.52-11.98,1.71-17.85,3.56-2.86.91-5.67,2.04-8.5,3.16-2.71,1.08-5.36,1.6-8.18,1.51-4.61-.14-9.21-.58-13.82-.81-.01-.21-.02-.43-.03-.64,2.34.08,4.68.21,7.02.37,3.02.21,6.06.66,9.09.46,3.07-.2,5.92-1.55,8.85-2.69,2.78-1.09,5.58-2.02,8.41-2.81,6.4-1.77,12.89-2.75,19.4-2.95.03.2.06.39.09.58Z"/><path class="cls-4" d="m288.88,105.7c-6.12.96-12.21,2.33-18.26,3.97-3.51.96-7,2.02-10.48,3.16-3.17,1.04-6.37,2.49-9.62,2.95-3.34.48-6.47-.93-9.68-2.02-2.01-.68-4.04-1.1-6.1-1.34-.01-.2-.03-.4-.04-.6,2.9.36,5.71,1.17,8.54,2.19,1.75.63,3.52,1.22,5.33,1.29,1.74.07,3.46-.36,5.14-.91,6.87-2.22,13.69-4.56,20.63-6.31,4.79-1.2,9.61-2.21,14.45-2.97.02.2.05.39.07.58h0Z"/><ellipse class="cls-23" cx="423.49" cy="80.27" rx="87.07" ry="59.39"/><ellipse class="cls-4" cx="423.49" cy="83.11" rx="63.84" ry="41.32"/><ellipse class="cls-26" cx="423.49" cy="80.27" rx="10.77" ry="11.09"/><path class="cls-3" d="m426.3,60.29h-5.61c-1.82,0-3.32-1.48-3.38-3.35l-1.28-48.72c-.07-1.97,1.47-3.62,3.38-3.62h8.17c1.92,0,3.45,1.64,3.38,3.62l-1.28,48.72c-.07,1.88-1.56,3.35-3.38,3.35h0Z"/><path class="cls-3" d="m429.71,12.92h2.99c1.36,0,2.47,1.14,2.47,2.55v10.87c0,1.4-1.11,2.55-2.47,2.55h-2.52s-.46-15.97-.46-15.97Z"/><path class="cls-12" d="m430.61,28.8h0c-.2,0-.36-.18-.36-.38l.36-15.27c0-.21.17-.34.37-.37.2,0,.36.18.36.38l-.36,15.27c0,.2-.17.37-.36.37Z"/><path class="cls-11" d="m260.37,123.47c-1.81-2.68-2.95-5.94-3.79-9.38-.05-.19-.1-.39-.14-.58-.19-.79-.36-1.58-.52-2.38-.87-4.29-1.55-8.63-2.68-12.81-.04-.16-.09-.32-.13-.48-.05-.18-.1-.37-.15-.55-.62-2.27-1.26-4.53-1.92-6.78-.35-1.22-.59-2.49-.93-3.72s-.85-4.06-1.54-2.18c-.74,2.02-.24,5.73-.09,7.88.12,1.79.28,3.58.33,5.37,0,.2,0,.39.01.58,0,.65,0,1.31-.03,1.96-.13,2.9-1.27,5.57-1.24,8.47.02,2.18.69,4.26.86,6.41.02.18.03.37.03.56.02.58,0,1.15-.08,1.74-.35,2.48-1.5,4.55-2.43,6.66-.16.37-.36.8-.55,1.26,4.06-.28,8.93-.5,13.68.45,1.15.23,2.36.41,3.61.54-.81-.96-1.58-1.96-2.3-3.03h0Z"/><path class="cls-23" d="m253.11,97.84c-1.41.36-2.83.57-4.29.61,0-.2,0-.39-.01-.58.37,0,.75-.02,1.12-.04,1.03-.07,2.04-.27,3.03-.54.05.18.1.37.15.55h0Z"/><path class="cls-23" d="m256.58,114.09c-2,.72-4.02,1.39-6.06,1.69-.7.1-1.39.12-2.08.07,0-.18-.02-.37-.03-.56.06,0,.11,0,.17,0,1.74.07,3.46-.36,5.14-.91.91-.29,1.82-.59,2.72-.88.04.2.09.39.14.58h0Z"/><path class="cls-1" d="m230.12,119.05c-.15.02-.29.03-.43.03-2.27-13.26-1.58-83.55-1.55-86.6,0-.16.1-.29.21-.29h0c.11,0,.21.14.21.3,0,.75-.73,73.69,1.56,86.56h0Z"/></svg>