<?xml version="1.0" encoding="utf-8"?>
<!-- Generator: Adobe Illustrator 27.3.1, SVG Export Plug-In . SVG Version: 6.00 Build 0)  -->
<svg version="1.1" id="Layer_1" xmlns="http://www.w3.org/2000/svg" xmlns:xlink="http://www.w3.org/1999/xlink" x="0px" y="0px"
	 viewBox="0 0 390 422.6" style="enable-background:new 0 0 390 422.6;" xml:space="preserve">
<style type="text/css">
	.st0{fill:none;}
	.st1{fill:#C6DD7F;}
	.st2{fill:#E9DDB7;}
	.st3{fill:#A6D0E4;}
	.st4{fill:#4C4C4C;}
	.st5{opacity:0.41;}
	.st6{opacity:0.1;fill:#FFFFFF;enable-background:new    ;}
	.st7{opacity:0.33;}
	.st8{fill:#CCFF99;}
	.st9{opacity:0.1;fill:#CCFF99;enable-background:new    ;}
	.st10{opacity:0.24;}
	.st11{fill:url(#SVGID_1_);}
	.st12{opacity:0.1;fill:url(#SVGID_00000034809392195544684560000006883373827349733815_);enable-background:new    ;}
	.st13{opacity:0.1;fill:url(#SVGID_00000118364518919241249030000015386336062026113931_);enable-background:new    ;}
	.st14{opacity:0.46;}
	.st15{fill:#E0EEA8;}
	.st16{opacity:0.1;fill:#E0EEA8;enable-background:new    ;}
	.st17{opacity:0.39;}
	.st18{fill:url(#SVGID_00000093855179130792966030000016886977859068255114_);}
	.st19{opacity:0.1;}
	.st20{opacity:0.3;fill:url(#SVGID_00000149373005479298618300000006542547183217018792_);enable-background:new    ;}
	.st21{opacity:0.3;fill:url(#SVGID_00000030470794361049656500000001478185861219109278_);enable-background:new    ;}
	.st22{fill:#F8F9F9;}
	.st23{fill:#CFD0D2;}
	.st24{fill:#D6D5D5;}
	.st25{fill:#FFFFFF;}
	.st26{fill:#DFE2E1;}
	.st27{fill:#BABCBE;}
	.st28{fill:#A5A8AA;}
	.st29{fill:#D6D7D8;}
	.st30{fill:#9B9CA0;}
	.st31{fill:#B0B2B3;stroke:#9A9C9E;stroke-width:1.13;stroke-miterlimit:10;}
	.st32{fill:#9B9C9F;}
	.st33{fill:#B6B7B9;}
	.st34{fill:#D1D1D2;}
	.st35{fill:#C0C1C2;}
	.st36{fill:#BBB9B9;}
	.st37{fill:#EEEEEE;}
	.st38{fill:#EBEBEB;}
	.st39{fill:#CCCDD1;}
	.st40{fill:#979594;}
	.st41{fill:#D1CFCF;}
	.st42{fill:#8A8887;}
	.st43{fill:#8D9092;}
	.st44{fill:#98999C;}
	.st45{fill:#B4B4B6;}
	.st46{fill:#CCCCCC;}
	.st47{fill:#DDDEDF;}
	.st48{fill:#B0AFAF;}
	.st49{fill:#EFF0F0;}
	.st50{fill:#E2E2E2;}
	.st51{fill:#FFFFE2;}
	.st52{opacity:0.2;fill:#48423B;enable-background:new    ;}
	.st53{opacity:0.97;}
	.st54{fill:url(#SVGID_00000025418462752385658640000013970846838243663540_);}
	.st55{fill:url(#SVGID_00000168805117695048786570000012900751913174945413_);}
	.st56{fill:url(#SVGID_00000000210780256484951010000013974811020757339575_);}
	.st57{fill:url(#SVGID_00000057867173166277455470000013066293777180103859_);}
</style>
<pattern  y="422.6" width="144.1" height="138.4" patternUnits="userSpaceOnUse" id="Alyssa" viewBox="100 -203.1 144.1 138.4" style="overflow:visible;">
	<g>
		<rect x="100" y="-203.1" class="st0" width="144.1" height="138.4"/>
		<g>
			<rect x="100" y="-203.1" class="st0" width="144.1" height="138.4"/>
			<g>
				<rect x="100" y="-203.1" class="st0" width="144.1" height="138.4"/>
				<g>
					<rect x="100" y="-203.1" class="st0" width="144.1" height="138.4"/>
					<path class="st1" d="M311-223.2c-11.8,1.4-19.4-0.4-22.6-3.1c-3-2.5-5-5.4-2.2-11.9c2.9-7.1,1.5-14.7-5.5-15.9
						c-6.2-1-10.9,4.8-11.2,12.3c-0.2,5.2-1.9,8.3-5.5,7.6s-4.6-5.9-3.6-11.8c1.4-8.1,5.5-11.8,6.2-20.2c0.5-6-2.9-13.7-12.4-15
						c-9.3-1.4-15.9,4.3-16.6,10.5c-0.7,6.6,3.6,10.9,3.1,17.6c-0.5,6.8-4,10.2-5.9,17.3c-2.8,10.6,1.2,19,7.8,22.6
						c14.8,8.1,22.8-3.6,36-1.6c10.9,1.7,23.4,18.2,33,19.5c8.2,1.2,13.8-4.7,15-14C327.6-218.6,321.7-224.5,311-223.2L311-223.2
						L311-223.2z M268.8-223.8c0,2.3-1.9,4.1-4.2,4.1c-2.3,0-4.1-1.9-4.1-4.1s1.9-4.1,4.1-4.1C267-227.9,268.8-226.1,268.8-223.8z
						 M318.3-208.4c0,1-0.8,1.7-1.7,1.7c-0.9,0-1.7-0.8-1.7-1.7s0.8-1.7,1.7-1.7C317.5-210.1,318.3-209.3,318.3-208.4z"/>
					<g>
						<path class="st2" d="M148.8-204.1c0-7.2,4.6-13.8-1-16.3c-8.5-3.8-28,14.3-28,36.2c0,12,8.7,19,17.8,19c12.3,0,18-8.2,18-17.5
							S148.8-195.9,148.8-204.1L148.8-204.1L148.8-204.1z M143.4-198.7c0,1.1-0.9,2.1-2.1,2.1s-2.1-0.9-2.1-2.1s0.9-2.1,2.1-2.1
							S143.4-199.8,143.4-198.7z"/>
						<path class="st3" d="M223.5-227.6c-7.9-2.7-19.4,15.3-17.7,27c1.2,8.2,7.1,13.2,13.1,14.2c7.5,1.3,12.9-2.6,13.3-7.2
							c0.6-6.3-3.6-7.5-4.2-15C227.4-215.7,231.7-224.7,223.5-227.6L223.5-227.6L223.5-227.6z M219.7-200.1c0,1.4-1.2,2.6-2.6,2.6
							s-2.6-1.2-2.6-2.6s1.2-2.6,2.6-2.6S219.7-201.5,219.7-200.1z"/>
						<path class="st2" d="M119.4-205.1c0-1.4-1.2-2.6-2.6-2.6c-1.4,0-2.6,1.2-2.6,2.6s1.2,2.6,2.6,2.6
							C118.2-202.5,119.4-203.7,119.4-205.1z"/>
						<path class="st3" d="M184.6-197.4c0.7-8.1,12.7-7,17.9-14.2c10.5-14.5-1.2-46.4-21.6-46.4c-11.7,0-24.2,9.7-24.2,29.2
							c0,15.8,10.2,21.5,8.2,42.2c-1,10.8-12.5,20.3-12.5,34.8c0,5.9,3.6,13.4,11.6,13.4c7.1,0,10.8-5.9,10.8-12.9
							c0-6.9-5.4-15.7,1.4-19c5.2-2.6,13.2,4.8,19.5,6.8c5.2,1.6,12.4-0.2,14.8-8.5c2.5-8.9-3.2-14.8-11.6-16.7
							C192.5-190.2,184-190.9,184.6-197.4L184.6-197.4L184.6-197.4z M168.6-166.8c0,1.8-1.5,3.3-3.3,3.3c-1.8,0-3.3-1.5-3.3-3.3
							s1.5-3.3,3.3-3.3C167.1-170.1,168.6-168.6,168.6-166.8z M194.6-176.5c1.3,0,2.3,1,2.3,2.3s-1,2.3-2.3,2.3s-2.3-1-2.3-2.3
							S193.3-176.5,194.6-176.5z M174.6-236.2c0,1.8-1.5,3.3-3.3,3.3c-1.8,0-3.3-1.5-3.3-3.3s1.5-3.3,3.3-3.3
							C173.1-239.5,174.6-238,174.6-236.2z"/>
						<path class="st1" d="M166.9-223.2c-11.8,1.4-19.4-0.4-22.6-3.1c-3-2.5-5-5.4-2.2-11.9c2.9-7.1,1.5-14.7-5.5-15.9
							c-6.2-1-10.9,4.8-11.2,12.3c-0.2,5.2-1.9,8.3-5.5,7.6c-3.6-0.7-4.6-5.9-3.6-11.8c1.4-8.1,5.5-11.8,6.2-20.2
							c0.5-6-2.9-13.7-12.5-15c-9.3-1.4-15.9,4.3-16.6,10.5c-0.7,6.6,3.6,10.9,3.1,17.6c-0.5,6.8-4,10.2-5.9,17.3
							c-2.8,10.6,1.2,19,7.8,22.6c14.7,8.1,22.8-3.6,36-1.6c10.9,1.7,23.4,18.2,33,19.5c8.2,1.2,13.8-4.7,15-14
							C183.5-218.6,177.6-224.5,166.9-223.2L166.9-223.2L166.9-223.2z M124.7-223.8c0,2.3-1.9,4.1-4.2,4.1s-4.2-1.9-4.2-4.1
							s1.9-4.1,4.2-4.1S124.7-226.1,124.7-223.8z M174.2-208.4c0,1-0.8,1.7-1.7,1.7c-1,0-1.7-0.8-1.7-1.7s0.8-1.7,1.7-1.7
							C173.4-210.1,174.2-209.3,174.2-208.4z"/>
					</g>
					<g>
						<path class="st3" d="M290.3-176.7c0-6.2-4.1-10.7-8.6-11.6s-8.3,1.3-13-1.2c-4.8-2.6-7.1-11.1-16.8-11.1
							c-8,0-15.2,8-15.2,18.9c0,20.2,13.1,29.2,25.6,29.2C278.9-152.5,290.3-165.1,290.3-176.7L290.3-176.7L290.3-176.7z
							 M270.6-162.4c0,2.1-1.7,3.8-3.8,3.8c-2.1,0-3.8-1.7-3.8-3.8s1.7-3.8,3.8-3.8C268.9-166.2,270.6-164.5,270.6-162.4z"/>
						<path class="st1" d="M311-84.9c-11.8,1.4-19.4-0.3-22.6-3.1c-3-2.5-5-5.4-2.2-11.9c2.9-7.1,1.5-14.7-5.5-15.9
							c-6.2-1-10.9,4.8-11.2,12.3c-0.2,5.2-1.9,8.3-5.5,7.6s-4.6-5.9-3.6-11.8c1.4-8.1,5.5-11.8,6.2-20.2c0.5-6-2.9-13.7-12.4-15
							c-9.3-1.3-15.9,4.3-16.6,10.6c-0.7,6.6,3.6,10.9,3.1,17.6s-4,10.2-5.9,17.3c-2.8,10.5,1.2,19,7.8,22.7
							c14.8,8.1,22.8-3.6,36-1.6c10.9,1.7,23.4,18.2,33,19.5c8.2,1.2,13.8-4.7,15-14C327.6-80.2,321.7-86.1,311-84.9L311-84.9
							L311-84.9z M268.8-85.4c0,2.3-1.9,4.2-4.2,4.2c-2.3,0-4.1-1.9-4.1-4.2s1.9-4.2,4.1-4.2C267-89.6,268.8-87.7,268.8-85.4z
							 M318.3-70c0,1-0.8,1.7-1.7,1.7c-0.9,0-1.7-0.8-1.7-1.7s0.8-1.7,1.7-1.7C317.5-71.7,318.3-71,318.3-70z"/>
					</g>
					<g>
						<path class="st3" d="M131.8-148.4c-14-2-21.2,13.3-17.7,20.3c3.7,7.3,12.1,4.2,19.5,4.2c9.7,0,16.4,7.6,20.4,2.2
							C158.3-127.2,149-145.9,131.8-148.4z M132.3-130.9c0,1.2-1,2.2-2.2,2.2c-1.2,0-2.3-1-2.3-2.2s1-2.2,2.3-2.2
							C131.3-133.1,132.3-132.1,132.3-130.9z"/>
						<path class="st2" d="M148.8-65.7c0-7.2,4.6-13.8-1-16.3c-8.5-3.8-28,14.3-28,36.2c0,12,8.7,19,17.8,19c12.3,0,18-8.2,18-17.5
							S148.8-57.5,148.8-65.7L148.8-65.7L148.8-65.7z M143.4-60.3c0,1.1-0.9,2.1-2.1,2.1s-2.1-0.9-2.1-2.1c0-1.2,0.9-2.1,2.1-2.1
							S143.4-61.5,143.4-60.3z"/>
						<path class="st3" d="M146.2-176.7c0-6.2-4.2-10.7-8.6-11.6c-4.5-0.9-8.3,1.3-13-1.2c-4.8-2.6-7.1-11.1-16.8-11.1
							c-8,0-15.2,8-15.2,18.9c0,20.2,13.1,29.2,25.6,29.2C134.7-152.5,146.2-165.1,146.2-176.7z M126.4-162.4c0,2.1-1.7,3.8-3.8,3.8
							s-3.8-1.7-3.8-3.8s1.7-3.8,3.8-3.8S126.4-164.5,126.4-162.4z"/>
						<path class="st1" d="M145.5-153c0-1.3-1.1-2.4-2.4-2.4s-2.4,1.1-2.4,2.4s1.1,2.4,2.4,2.4S145.5-151.7,145.5-153z"/>
						<path class="st3" d="M229.2-134.5c-3.2-4.7,1-10.7-1.4-15.2c-2.4-4.5-6.7-5-9.9-2.6c-3.6,2.8-3.4,6.6-8.3,8.8
							c-5.5,2.5-18-2.2-19.7,7.3c-0.9,4.8,2.4,8.6,7.3,9.7c6.1,1.4,9.4,0.2,15.4,3.1c6,2.9,11.2,9,22.1,12.1
							c10.4,3,16.1-1.6,16.6-5.9C252.3-125.7,234.2-127.2,229.2-134.5L229.2-134.5L229.2-134.5z M226.9-127.1c0,1.2-1,2.2-2.2,2.2
							s-2.2-1-2.2-2.2s1-2.2,2.2-2.2S226.9-128.3,226.9-127.1z"/>
						<path class="st2" d="M256.1-173.7c0-17.2-14.5-25.5-27-22.8c-10.3,2.2-12.8,17.3-16.7,26.2c-3.7,8.6-8.8,22.5-20.2,22.5
							s-12.8-14.5-23.7-14.5s-24.5,15.7-24.5,39.7c0,14.7,9.8,31.5,20.8,30.7c11.7-0.8,4.5-19.7,15.3-19.7c9.5,0,7.9,16.3,9.2,23.3
							c1.7,9,6.8,14.2,18.5,13.2c14.4-1.2,22.3-13.5,18.9-23.3c-4-11.5-23.9-17.3-21.5-30.5c1.4-7.6,13-12,26-16.2
							C245.8-149.9,256.1-156.5,256.1-173.7L256.1-173.7L256.1-173.7L256.1-173.7z M211.2-97.9c0-1.8,1.5-3.3,3.3-3.3
							c1.8,0,3.3,1.5,3.3,3.3s-1.5,3.3-3.3,3.3C212.7-94.6,211.2-96,211.2-97.9z M164.5-122.8c0,1-0.8,1.7-1.7,1.7
							c-1,0-1.7-0.8-1.7-1.7s0.8-1.7,1.7-1.7S164.5-123.7,164.5-122.8z M182-133.5c0,2.1-1.7,3.8-3.8,3.8s-3.8-1.7-3.8-3.8
							s1.7-3.8,3.8-3.8S182-135.6,182-133.5z M201.9-117.9c0,0.9-0.7,1.6-1.6,1.6s-1.6-0.7-1.6-1.6s0.7-1.6,1.6-1.6
							S201.9-118.8,201.9-117.9z M231.5-172.6c0,1.8-1.4,3.2-3.2,3.2s-3.2-1.4-3.2-3.2s1.4-3.2,3.2-3.2S231.5-174.4,231.5-172.6z"/>
						<path class="st3" d="M223.5-89.2c-7.9-2.7-19.4,15.3-17.7,27c1.2,8.2,7.1,13.2,13.1,14.2c7.5,1.3,12.9-2.6,13.3-7.2
							c0.6-6.3-3.6-7.5-4.2-15C227.4-77.3,231.7-86.3,223.5-89.2L223.5-89.2L223.5-89.2z M219.7-61.7c0,1.4-1.2,2.6-2.6,2.6
							s-2.6-1.2-2.6-2.6s1.2-2.6,2.6-2.6S219.7-63.1,219.7-61.7z"/>
						<path class="st2" d="M119.4-66.7c0-1.4-1.2-2.6-2.6-2.6c-1.4,0-2.6,1.2-2.6,2.6s1.2,2.6,2.6,2.6
							C118.2-64.1,119.4-65.3,119.4-66.7z"/>
						<path class="st2" d="M253.4-153.5c0,8.4-5.1,15.2-11.3,15.2s-11.3-6.8-11.3-15.2s5.1-12.4,11.3-12.4S253.4-161.9,253.4-153.5z
							"/>
						<path class="st3" d="M184.6-59c0.7-8.1,12.7-7,17.9-14.2c10.5-14.5-1.2-46.4-21.6-46.4c-11.7,0-24.2,9.7-24.2,29.2
							c0,15.8,10.2,21.5,8.2,42.2c-1,10.8-12.5,20.3-12.5,34.8C152.4-7.5,156,0,163.9,0c7.1,0,10.8-6,10.8-12.9s-5.4-15.7,1.4-19
							c5.2-2.6,13.2,4.8,19.5,6.8c5.2,1.6,12.4-0.2,14.8-8.5c2.5-8.9-3.2-14.8-11.6-16.7C192.5-51.9,184-52.6,184.6-59L184.6-59
							L184.6-59z M168.6-28.4c0,1.8-1.5,3.3-3.3,3.3c-1.8,0-3.3-1.5-3.3-3.3s1.5-3.3,3.3-3.3C167.1-31.7,168.6-30.3,168.6-28.4z
							 M194.6-38.1c1.3,0,2.3,1,2.3,2.3c0,1.3-1,2.3-2.3,2.3s-2.3-1-2.3-2.3C192.2-37.1,193.3-38.1,194.6-38.1z M174.6-97.8
							c0,1.8-1.5,3.3-3.3,3.3c-1.8,0-3.3-1.5-3.3-3.3c0-1.8,1.5-3.3,3.3-3.3C173.1-101.1,174.6-99.6,174.6-97.8z"/>
						<path class="st1" d="M166.9-84.9c-11.8,1.4-19.4-0.3-22.6-3.1c-3-2.5-5-5.4-2.2-11.9c2.9-7.1,1.5-14.7-5.5-15.9
							c-6.2-1-10.9,4.8-11.2,12.3c-0.2,5.2-1.9,8.3-5.5,7.6c-3.6-0.7-4.6-5.9-3.6-11.8c1.4-8.1,5.5-11.8,6.2-20.2
							c0.5-6-2.9-13.7-12.5-15c-9.3-1.3-15.9,4.3-16.6,10.6c-0.7,6.6,3.6,10.9,3.1,17.6c-0.5,6.8-4,10.2-5.9,17.3
							c-2.8,10.5,1.2,19,7.8,22.7c14.7,8.1,22.8-3.6,36-1.6c10.9,1.7,23.4,18.2,33,19.5c8.2,1.2,13.8-4.7,15-14
							C183.5-80.2,177.6-86.1,166.9-84.9z M124.7-85.4c0,2.3-1.9,4.2-4.2,4.2s-4.2-1.9-4.2-4.2s1.9-4.2,4.2-4.2
							S124.7-87.7,124.7-85.4z M174.2-70c0,1-0.8,1.7-1.7,1.7c-1,0-1.7-0.8-1.7-1.7s0.8-1.7,1.7-1.7C173.4-71.7,174.2-71,174.2-70z"
							/>
						<path class="st1" d="M230.2-107.2c0-0.8-0.6-1.4-1.4-1.4s-1.4,0.6-1.4,1.4s0.6,1.4,1.4,1.4S230.2-106.4,230.2-107.2z"/>
						<path class="st2" d="M235.7-68.8c0-1.2-1-2.2-2.2-2.2s-2.2,1-2.2,2.2c0,1.2,1,2.2,2.2,2.2S235.7-67.6,235.7-68.8z"/>
						<path class="st3" d="M152.2-92c0-0.7-0.5-1.2-1.2-1.2s-1.2,0.5-1.2,1.2s0.5,1.2,1.2,1.2S152.2-91.3,152.2-92z"/>
						<path class="st3" d="M148.6-160.5c0-0.8-0.6-1.4-1.4-1.4c-0.8,0-1.4,0.6-1.4,1.4c0,0.8,0.6,1.4,1.4,1.4
							C148-159.1,148.6-159.7,148.6-160.5z"/>
						<path class="st2" d="M233.1-138.5c0-0.7-0.5-1.2-1.2-1.2s-1.2,0.5-1.2,1.2c0,0.7,0.5,1.2,1.2,1.2S233.1-137.8,233.1-138.5z"/>
						<path class="st1" d="M195.9-156.4c0-1.9-1.5-3.4-3.4-3.4s-3.4,1.5-3.4,3.4s1.5,3.4,3.4,3.4S195.9-154.5,195.9-156.4z"/>
						<path class="st2" d="M200.8-196.3c0-1.2-0.9-2.1-2.1-2.1s-2.1,0.9-2.1,2.1s0.9,2.1,2.1,2.1S200.8-195.1,200.8-196.3z"/>
						<path class="st2" d="M162-190c0-0.9-0.7-1.6-1.6-1.6s-1.6,0.7-1.6,1.6s0.7,1.6,1.6,1.6S162-189.1,162-190z"/>
						<circle class="st1" cx="233.1" cy="-75.9" r="2.6"/>
						<circle class="st3" cx="223.1" cy="-110.8" r="2.4"/>
						<path class="st2" d="M127.7-117.4c0-1.4-1.2-2.6-2.6-2.6s-2.6,1.2-2.6,2.6c0,1.5,1.2,2.6,2.6,2.6S127.7-115.9,127.7-117.4z"/>
						<path class="st3" d="M122.7-110.3c0-0.7-0.6-1.3-1.3-1.3s-1.3,0.6-1.3,1.3s0.6,1.3,1.3,1.3S122.7-109.6,122.7-110.3z"/>
						<path class="st2" d="M186.9-162.2c0-0.9-0.7-1.6-1.6-1.6c-0.9,0-1.6,0.7-1.6,1.6c0,0.9,0.7,1.6,1.6,1.6
							C186.2-160.6,186.9-161.3,186.9-162.2z"/>
					</g>
					<g>
						<path class="st3" d="M85-134.5c-3.2-4.7,1-10.7-1.4-15.2s-6.7-5-9.9-2.6c-3.6,2.8-3.4,6.6-8.3,8.8c-5.5,2.5-18-2.2-19.7,7.3
							c-0.9,4.8,2.4,8.6,7.3,9.7c6,1.4,9.3,0.2,15.4,3.1c6.1,2.9,11.2,9,22.1,12.1c10.4,3,16.1-1.6,16.6-5.9
							C108.2-125.7,90.1-127.2,85-134.5L85-134.5L85-134.5z M82.8-127.1c0,1.2-1,2.2-2.2,2.2s-2.2-1-2.2-2.2s1-2.2,2.2-2.2
							S82.8-128.3,82.8-127.1z"/>
						<path class="st2" d="M112-173.7c0-17.2-14.5-25.5-27-22.8c-10.3,2.2-12.8,17.3-16.7,26.2c-3.7,8.6-8.8,22.5-20.2,22.5
							s-12.8-14.5-23.7-14.5S0-146.7,0-122.7C0-108,9.8-91.2,20.8-92c11.7-0.8,4.5-19.7,15.3-19.7c9.5,0,7.9,16.3,9.2,23.3
							c1.7,9,6.8,14.2,18.5,13.2c14.4-1.2,22.3-13.5,18.9-23.3c-4-11.5-23.9-17.3-21.5-30.5c1.3-7.6,13-12,26-16.2
							C101.7-149.9,112-156.5,112-173.7L112-173.7L112-173.7L112-173.7z M67.1-97.9c0-1.8,1.5-3.3,3.3-3.3c1.8,0,3.3,1.5,3.3,3.3
							c0,1.8-1.5,3.3-3.3,3.3C68.5-94.6,67.1-96,67.1-97.9z M20.4-122.8c0,1-0.8,1.7-1.7,1.7s-1.7-0.8-1.7-1.7s0.8-1.7,1.7-1.7
							S20.4-123.7,20.4-122.8z M37.8-133.5c0,2.1-1.7,3.8-3.8,3.8c-2.1,0-3.8-1.7-3.8-3.8s1.7-3.8,3.8-3.8S37.8-135.6,37.8-133.5z
							 M57.7-117.9c0,0.9-0.7,1.6-1.6,1.6s-1.6-0.7-1.6-1.6s0.7-1.6,1.6-1.6S57.7-118.8,57.7-117.9z M87.4-172.6
							c0,1.8-1.4,3.2-3.2,3.2s-3.2-1.4-3.2-3.2s1.4-3.2,3.2-3.2S87.4-174.4,87.4-172.6z"/>
						<path class="st2" d="M109.2-153.5c0,8.4-5.1,15.2-11.3,15.2c-6.3,0-11.3-6.8-11.3-15.2s5.1-12.4,11.3-12.4
							C104.2-165.9,109.2-161.9,109.2-153.5z"/>
					</g>
				</g>
			</g>
		</g>
	</g>
</pattern>
<g>
	<g>
		<rect x="-1" y="339.6" class="st4" width="96.6" height="83.5"/>
		<g class="st5">
			<polygon class="st6" points="4.2,357 75.6,418.7 90.4,418.7 4.2,344.3 			"/>
			<polygon class="st6" points="4.2,418.7 62.9,418.7 4.2,368 			"/>
		</g>
	</g>
	<g>
		<rect x="-1" y="255.7" class="st4" width="96.6" height="83"/>
		<g class="st5">
			<polygon class="st6" points="4.2,273.1 75.6,334.5 90.4,334.5 4.2,260.4 			"/>
			<polygon class="st6" points="4.2,334.5 62.9,334.5 4.2,284 			"/>
		</g>
	</g>
	<g>
		<rect x="-1" y="171.8" class="st4" width="96.6" height="83.1"/>
		<g class="st5">
			<polygon class="st6" points="4.2,189.2 75.6,250.6 90.4,250.6 4.2,176.5 			"/>
			<polygon class="st6" points="4.2,250.6 62.9,250.6 4.2,200.1 			"/>
		</g>
	</g>
	<g>
		<rect x="-1" y="87.9" class="st4" width="96.6" height="83.1"/>
		<g class="st5">
			<polygon class="st6" points="4.2,105.3 75.6,166.7 90.4,166.7 4.2,92.6 			"/>
			<polygon class="st6" points="4.2,166.7 62.9,166.7 4.2,116.2 			"/>
		</g>
	</g>
	<g>
		<rect y="4" class="st4" width="96.6" height="83.1"/>
		<g class="st5">
			<polygon class="st6" points="5.2,21.4 76.6,82.8 91.4,82.8 5.2,8.8 			"/>
			<polygon class="st6" points="5.2,82.8 63.9,82.8 5.2,32.4 			"/>
		</g>
	</g>
	<g>
		<rect x="297.5" y="340" class="st4" width="92.8" height="83"/>
		<g class="st5">
			<polygon class="st6" points="302.5,357.4 371.1,418.8 385.3,418.8 302.5,344.7 			"/>
			<polygon class="st6" points="302.5,418.8 358.9,418.8 302.5,368.3 			"/>
		</g>
	</g>
	<g>
		<rect x="297.5" y="256.1" class="st4" width="92.8" height="83"/>
		<g class="st5">
			<polygon class="st6" points="302.5,273.5 371.1,334.9 385.3,334.9 302.5,260.8 			"/>
			<polygon class="st6" points="302.5,334.9 358.9,334.9 302.5,284.4 			"/>
		</g>
	</g>
	<g>
		<rect x="97.1" y="171.8" class="st4" width="96.9" height="83.1"/>
		<g class="st5">
			<polygon class="st6" points="102.4,189.2 174,250.6 188.8,250.6 102.4,176.5 			"/>
			<polygon class="st6" points="102.4,250.6 161.3,250.6 102.4,200.1 			"/>
		</g>
	</g>
	<g>
		<rect x="97.1" y="87.9" class="st4" width="96.9" height="83.1"/>
		<g class="st5">
			<polygon class="st6" points="102.4,105.3 174,166.7 188.8,166.7 102.4,92.6 			"/>
			<polygon class="st6" points="102.4,166.7 161.3,166.7 102.4,116.2 			"/>
		</g>
	</g>
	<g>
		<rect x="101.3" y="4" class="st4" width="92.8" height="83.1"/>
		<g class="st5">
			<polygon class="st6" points="106.3,21.4 175,82.8 189.1,82.8 106.3,8.8 			"/>
			<polygon class="st6" points="106.3,82.8 162.7,82.8 106.3,32.4 			"/>
		</g>
	</g>
	<g>
		<rect x="195.1" y="339.6" class="st4" width="92.8" height="83.5"/>
		<g class="st5">
			<polygon class="st6" points="200.1,357 268.7,418.7 282.9,418.7 200.1,344.3 			"/>
			<polygon class="st6" points="200.1,418.7 256.5,418.7 200.1,368 			"/>
		</g>
	</g>
	<g>
		<rect x="195.1" y="255.7" class="st4" width="92.8" height="83"/>
		<g class="st5">
			<polygon class="st6" points="200.1,273.1 268.7,334.5 282.9,334.5 200.1,260.4 			"/>
			<polygon class="st6" points="200.1,334.5 256.5,334.5 200.1,284 			"/>
		</g>
	</g>
	<g>
		<rect x="195.1" y="171.8" class="st4" width="92.8" height="83.1"/>
		<g class="st5">
			<polygon class="st6" points="200.1,189.2 268.7,250.6 282.9,250.6 200.1,176.5 			"/>
			<polygon class="st6" points="200.1,250.6 256.5,250.6 200.1,200.1 			"/>
		</g>
	</g>
	<g class="st7">
		<rect x="195.1" y="87.9" class="st8" width="92.8" height="83.1"/>
		<g class="st5">
			<polygon class="st9" points="200.1,105.3 268.7,166.7 282.9,166.7 200.1,92.6 			"/>
			<polygon class="st9" points="200.1,166.7 256.5,166.7 200.1,116.2 			"/>
		</g>
	</g>
	<g class="st10">
		<pattern  id="SVGID_1_" xlink:href="#Alyssa" patternTransform="matrix(1 0 0 -1 -632.72 -32554.6582)"  class="st10">
		</pattern>
		<rect x="195.1" y="4" class="st11" width="92.8" height="83.1"/>
		<g class="st5">
			
				<pattern  id="SVGID_00000123422980214392412560000001105823703932946088_" xlink:href="#Alyssa" patternTransform="matrix(1 0 0 -1 -632.72 -32554.6582)"  class="st5">
			</pattern>
			
				<polygon style="opacity:0.1;fill:url(#SVGID_00000123422980214392412560000001105823703932946088_);enable-background:new    ;" points="
				200.1,21.4 268.7,82.8 282.9,82.8 200.1,8.8 			"/>
			
				<pattern  id="SVGID_00000013194994949030316120000016037486476301130669_" xlink:href="#Alyssa" patternTransform="matrix(1 0 0 -1 -632.72 -32554.6582)"  class="st5">
			</pattern>
			
				<polygon style="opacity:0.1;fill:url(#SVGID_00000013194994949030316120000016037486476301130669_);enable-background:new    ;" points="
				200.1,82.8 256.5,82.8 200.1,32.4 			"/>
		</g>
	</g>
	<g>
		<rect x="289.1" y="340" class="st4" width="92.8" height="83"/>
		<g class="st5">
			<polygon class="st6" points="294.1,357.4 362.7,418.8 376.9,418.8 294.1,344.7 			"/>
			<polygon class="st6" points="294.1,418.8 350.5,418.8 294.1,368.3 			"/>
		</g>
	</g>
	<g>
		<rect x="289.1" y="256.1" class="st4" width="92.8" height="83"/>
		<g class="st5">
			<polygon class="st6" points="294.1,273.5 362.7,334.9 376.9,334.9 294.1,260.8 			"/>
			<polygon class="st6" points="294.1,334.9 350.5,334.9 294.1,284.4 			"/>
		</g>
	</g>
	<g>
		<rect x="288.8" y="171.8" class="st4" width="101.2" height="83.1"/>
		<g class="st5">
			<polygon class="st6" points="294.3,189.2 369.1,250.6 384.5,250.6 294.3,176.5 			"/>
			<polygon class="st6" points="294.3,250.6 355.8,250.6 294.3,200.1 			"/>
		</g>
	</g>
	<g class="st14">
		<rect x="288.8" y="87.9" class="st15" width="101.2" height="83.1"/>
		<g class="st5">
			<polygon class="st16" points="294.3,105.3 369.1,166.7 384.5,166.7 294.3,92.6 			"/>
			<polygon class="st16" points="294.3,166.7 355.8,166.7 294.3,116.2 			"/>
		</g>
	</g>
	<g class="st17">
		
			<pattern  id="SVGID_00000021091502067529392990000005830806622161746851_" xlink:href="#Alyssa" patternTransform="matrix(1 0 0 -1 -632.72 -32554.6582)"  class="st17">
		</pattern>
		
			<rect x="288.8" y="4" style="fill:url(#SVGID_00000021091502067529392990000005830806622161746851_);" width="101.2" height="83.1"/>
		<g class="st19">
			
				<pattern  id="SVGID_00000145016888471620576300000007479725876893308828_" xlink:href="#Alyssa" patternTransform="matrix(1 0 0 -1 -632.72 -32554.6582)"  class="st19">
			</pattern>
			
				<polygon style="opacity:0.3;fill:url(#SVGID_00000145016888471620576300000007479725876893308828_);enable-background:new    ;" points="
				294.3,21.4 369.1,82.8 384.5,82.8 294.3,8.8 			"/>
			
				<pattern  id="SVGID_00000116958391424984792900000003302864432784197801_" xlink:href="#Alyssa" patternTransform="matrix(1 0 0 -1 -632.72 -32554.6582)"  class="st19">
			</pattern>
			
				<polygon style="opacity:0.3;fill:url(#SVGID_00000116958391424984792900000003302864432784197801_);enable-background:new    ;" points="
				294.3,82.8 355.8,82.8 294.3,32.4 			"/>
		</g>
	</g>
	<rect x="195" width="6.6" height="171.8"/>
	<g>
		<path class="st22" d="M193.4,98.9c0,0.8-0.6,1.4-1.4,1.4H2c-0.7,0-1.4-0.6-1.4-1.4V2.1c0-0.8,0.6-1.4,1.4-1.4h190
			c0.7,0,1.4,0.6,1.4,1.4L193.4,98.9L193.4,98.9L193.4,98.9z"/>
		<path class="st23" d="M192,101H2c-1.1,0-2-0.9-2-2.1V2.1C0,0.9,0.9,0,2,0h190c1.1,0,2,0.9,2,2.1v96.9
			C194.1,100.1,193.2,101,192,101L192,101L192,101z M2,1.4c-0.4,0-0.7,0.3-0.7,0.7v96.9c0,0.4,0.3,0.7,0.7,0.7h190
			c0.4,0,0.7-0.3,0.7-0.7V2.1c0-0.4-0.3-0.7-0.7-0.7H2z"/>
	</g>
	<g>
		<ellipse class="st24" cx="102.4" cy="55.8" rx="42.3" ry="36.4"/>
		<path class="st25" d="M102.4,92.9c-23.8,0-43.1-16.6-43.1-37.1s19.3-37.1,43.1-37.1s43.1,16.6,43.1,37.1S126.2,92.9,102.4,92.9z
			 M102.4,20.1c-22.9,0-41.5,16-41.5,35.7s18.6,35.7,41.5,35.7s41.5-16,41.5-35.7S125.3,20.1,102.4,20.1z"/>
	</g>
	<ellipse class="st22" cx="106" cy="55.8" rx="33.6" ry="30.1"/>
	<path class="st26" d="M106,73.7c-16.2,0-29.8-10.3-32.9-24c-0.4,2-0.7,4-0.7,6.1c0,16.6,15.1,30.1,33.6,30.1s33.6-13.5,33.6-30.1
		c0-2.1-0.2-4.1-0.7-6.1C135.7,63.4,122.2,73.7,106,73.7L106,73.7z"/>
	<g>
		<g>
			<path class="st27" d="M106,51.2c-2.8,0-5.2,2.1-5.2,4.6s2.3,4.6,5.2,4.6s5.2-2.1,5.2-4.6S108.8,51.2,106,51.2z"/>
			<path class="st28" d="M106,50.8c3.1,0,5.6,2.2,5.6,5s-2.5,5-5.6,5s-5.6-2.2-5.6-5S102.9,50.8,106,50.8z M106,51.5
				c-2.6,0-4.8,1.9-4.8,4.2s2.1,4.2,4.8,4.2s4.8-1.9,4.8-4.2S108.6,51.5,106,51.5z"/>
		</g>
		<g>
			<path class="st29" d="M106,52.6c-2,0-3.6,1.4-3.6,3.2S104,59,106,59s3.6-1.4,3.6-3.2S107.9,52.6,106,52.6z"/>
			<path class="st30" d="M106,52.2c2.2,0,4,1.6,4,3.6s-1.8,3.6-4,3.6s-4-1.6-4-3.6S103.8,52.2,106,52.2z M106,52.9
				c-1.8,0-3.2,1.3-3.2,2.8s1.4,2.8,3.2,2.8s3.2-1.3,3.2-2.8S107.7,52.9,106,52.9z"/>
		</g>
		<path class="st30" d="M109.2,54.5h-6.5c0.6-1.1,1.8-1.9,3.3-1.9S108.7,53.4,109.2,54.5L109.2,54.5L109.2,54.5z"/>
	</g>
	<g>
		<path class="st31" d="M111.2,12.5c0,2.9-2.6,5.2-5.8,5.2s-5.8-2.3-5.8-5.2s2.6-5.2,5.8-5.2S111.2,9.7,111.2,12.5z"/>
		<rect x="104.8" y="7.3" class="st32" width="9.2" height="6.6"/>
		<rect x="104.8" y="8.8" class="st33" width="8.2" height="3.6"/>
		<rect x="104.8" y="9.8" class="st34" width="8.2" height="1.6"/>
		<path class="st32" d="M104.2,5.7h2.4c0.9,0,1.6,0.6,1.6,1.4v32.2c0,0.8-0.7,1.4-1.6,1.4h-2.3c-0.9,0-1.6-0.6-1.6-1.4V7.1
			C102.6,6.3,103.3,5.7,104.2,5.7L104.2,5.7z"/>
		<path class="st35" d="M106.9,37.5c0,0.7-0.4,1.3-0.9,1.3h-1.4c-0.5,0-0.9-0.6-0.9-1.3V7.6c0-0.7,0.4-1.3,0.9-1.3h1.4
			c0.5,0,0.9,0.6,0.9,1.3V37.5z"/>
		<path class="st34" d="M105.7,37.5c0,0.7-0.1,1.3-0.2,1.3h-0.3c-0.1,0-0.2-0.6-0.2-1.3V7.6c0-0.7,0.1-1.3,0.2-1.3h0.3
			c0.1,0,0.2,0.6,0.2,1.3V37.5z"/>
		<rect x="113.6" y="5.7" class="st32" width="4.5" height="10.9"/>
		<rect x="113.6" y="7.3" class="st33" width="3.8" height="7.6"/>
		<rect x="113.6" y="9.8" class="st34" width="3.8" height="2.6"/>
	</g>
	<path class="st24" d="M222.4,393.2h86.4c6.2,0,10.8-2.3,10.8-7.8l-4.4-10c-1-1.2-11.5-7.3-13.1-32.5l-36.5,4.6l-36.5-4.6
		c-1.6,25.2-12.1,31.3-13.1,32.5l-4.4,10C211.6,390.9,216.2,393.2,222.4,393.2L222.4,393.2z"/>
	<path class="st36" d="M221.8,393.2h87.1c6.2,0,10.8-2.3,10.8-7.8c0,0-3.1-7.6-4.4-10c-0.9-1.8-3-2.7-5.5-6c-0.3,0-8.6,7.3-44.4,7.3
		c-35.8,0-43.5-7.3-43.5-7.3c-0.3,0-0.6,0-0.9,0c-2.6,3.9-5.1,5.5-5.5,6l-4.4,10C211,390.9,215.6,393.2,221.8,393.2L221.8,393.2
		L221.8,393.2z"/>
	<g>
		<path class="st37" d="M278,364.6c0-1.8,1.6-3.2,3.6-3.2l0,0c2,0,3.6,1.4,3.6,3.2v3.9c0,1.8-1.6,3.2-3.6,3.2l0,0
			c-2,0-3.6-1.4-3.6-3.2V364.6z"/>
		<path class="st36" d="M281.6,361c2.2,0,4,1.6,4,3.6v3.9c0,2-1.8,3.6-4,3.6s-4-1.6-4-3.6v-3.9C277.6,362.6,279.4,361,281.6,361z
			 M281.6,371.2c1.7,0,3.1-1.2,3.1-2.8v-3.9c0-1.5-1.4-2.8-3.1-2.8s-3.1,1.2-3.1,2.8v3.9C278.4,370,279.8,371.2,281.6,371.2z"/>
	</g>
	<g>
		<path class="st37" d="M107.8,363.1c0-1.8-1.6-3.2-3.6-3.2l0,0c-2,0-3.6,1.4-3.6,3.2v3.9c0,1.8,1.6,3.2,3.6,3.2l0,0
			c2,0,3.6-1.4,3.6-3.2V363.1z"/>
		<path class="st36" d="M104.2,359.5c2.2,0,4,1.6,4,3.6v3.9c0,2-1.8,3.6-4,3.6s-4-1.6-4-3.6v-3.9C100.2,361.1,102,359.5,104.2,359.5
			z M104.2,369.8c1.7,0,3.1-1.2,3.1-2.8v-3.9c0-1.5-1.4-2.8-3.1-2.8s-3.1,1.2-3.1,2.8v3.9C101.1,368.5,102.5,369.8,104.2,369.8z"/>
	</g>
	<path class="st38" d="M240.2,366.6H291c9.8-8.5,16.2-22.2,16.2-38.4c0-27.8-18.6-52.8-41.6-52.8s-41.6,25-41.6,52.8
		C224.1,344.4,230.4,358,240.2,366.6L240.2,366.6L240.2,366.6z"/>
	<path class="st36" d="M240.2,367.8H291c0.4,0,0.7-0.1,0.9-0.3c4.7-4.1,8.5-9.2,11.3-15.1c-0.1-0.8-0.3-1.5-0.4-2.3
		c-2.8,6.6-6.9,12.2-11.9,16.5h-50.8c-5-4.3-9-9.9-11.9-16.5c-0.1,0.8-0.2,1.6-0.4,2.3c2.8,5.9,6.6,11,11.3,15.1
		C239.5,367.7,239.9,367.8,240.2,367.8L240.2,367.8z"/>
	<path class="st39" d="M239.9,366.3l3.9-4l0.3-0.3c0.1,0.1,0.2,0.2,0.3,0.3h42.5l4.1,4.3h-50.8C240.1,366.5,240,366.4,239.9,366.3
		L239.9,366.3L239.9,366.3z"/>
	<path class="st22" d="M230.8,328.8c0-24.3,15.6-46,34.8-46s34.8,21.8,34.8,46c0,14.2-5.3,26-13.5,33.5h-42.5
		c-0.1-0.1-0.2-0.2-0.3-0.3C236,354.6,230.8,342.8,230.8,328.8L230.8,328.8L230.8,328.8z"/>
	<path class="st38" d="M211.1,411.8c1.9,6.2,3.7,10,9.8,10h89.4c6.2,0,8-3.8,9.8-10l1.3-18.4c0-5.5-2.1-13.2-11.3-11.9
		c0,0-26.9,3.2-41.9,3.2H263c-15,0-41.9-3.2-41.9-3.2c-9.2-1.3-11.3,6.3-11.3,11.9L211.1,411.8L211.1,411.8L211.1,411.8z"/>
	<path class="st22" d="M216.5,411.2c1.7,5.3,3.3,8.6,8.9,8.6h80.5c5.6,0,7.2-3.3,8.9-8.6l1.2-15.8c0-4.8-1.9-11.3-10.2-10.2
		c0,0-24.2,2.8-37.7,2.8h-4.8c-13.5,0-37.7-2.8-37.7-2.8c-8.3-1.2-10.2,5.5-10.2,10.2L216.5,411.2L216.5,411.2L216.5,411.2
		L216.5,411.2z"/>
	<g>
		<g>
			<path class="st36" d="M265.6,397.9c-3,0-5.4,2.2-5.4,4.8s2.4,4.8,5.4,4.8s5.4-2.2,5.4-4.8S268.6,397.9,265.6,397.9z"/>
			<path class="st40" d="M265.6,397.6c3.2,0,5.8,2.3,5.8,5.2c0,2.9-2.6,5.2-5.8,5.2s-5.8-2.3-5.8-5.2
				C259.8,399.9,262.4,397.6,265.6,397.6z M265.6,398.3c-2.7,0-5,2-5,4.4s2.2,4.4,5,4.4s5-2,5-4.4S268.4,398.3,265.6,398.3z"/>
		</g>
		<g>
			<path class="st41" d="M265.6,399.4c-2.1,0-3.8,1.5-3.8,3.4s1.7,3.4,3.8,3.4s3.8-1.5,3.8-3.4S267.7,399.4,265.6,399.4z"/>
			<path class="st42" d="M265.6,399c2.3,0,4.2,1.7,4.2,3.7c0,2-1.9,3.7-4.2,3.7s-4.2-1.7-4.2-3.7S263.3,399,265.6,399z M265.6,399.8
				c-1.8,0-3.3,1.3-3.3,3s1.5,3,3.3,3s3.3-1.3,3.3-3S267.5,399.8,265.6,399.8z"/>
		</g>
		<path class="st42" d="M269.1,401.4h-6.8c0.6-1.2,1.9-2,3.4-2S268.5,400.2,269.1,401.4L269.1,401.4L269.1,401.4z"/>
	</g>
	<g>
		<ellipse class="st32" cx="292.5" cy="30.2" rx="17.6" ry="15.8"/>
		<ellipse class="st33" cx="292.5" cy="30.2" rx="15.6" ry="14"/>
		<path class="st34" d="M279,37.3c2.7,4.1,7.7,6.9,13.5,6.9s10.8-2.8,13.5-6.9C305.9,37.3,279,37.3,279,37.3z"/>
		<g>
			<path class="st43" d="M289,6.1c0-1.1,0.8-2,1.8-2h3.8c1,0,1.8,0.9,1.8,2l0,22.5c0,1.1-0.8,2-1.8,2h-3.8c-1,0-1.8-0.9-1.8-2
				C289,28.6,289,6.1,289,6.1z"/>
			<path class="st44" d="M289.8,6.9c0-1,0.6-1.9,1.3-1.9h2.7c0.7,0,1.3,0.8,1.3,1.9l0,20.8c0,1-0.6,1.9-1.3,1.9h-2.7
				c-0.7,0-1.3-0.9-1.3-1.9L289.8,6.9C289.8,6.9,289.8,6.9,289.8,6.9z"/>
			<path class="st45" d="M290.9,6.9c0-1,0.4-1.9,0.8-1.9h1.7c0.5,0,0.8,0.8,0.8,1.9l0,20.8c0,1-0.4,1.9-0.8,1.9h-1.7
				c-0.5,0-0.8-0.9-0.8-1.9C290.8,27.7,290.9,6.9,290.9,6.9z"/>
		</g>
	</g>
	<g>
		<rect x="305.6" class="st32" width="7.9" height="8.8"/>
		<rect x="307.4" class="st33" width="4.3" height="7.8"/>
		<rect x="308.5" class="st34" width="2" height="7.8"/>
		<g>
			<rect x="303.1" y="8.3" class="st32" width="13" height="4.3"/>
			<rect x="305.1" y="8.3" class="st33" width="9" height="3.7"/>
			<rect x="308" y="8.3" class="st34" width="3.1" height="3.7"/>
		</g>
	</g>
	<g>
		<rect x="272.8" class="st32" width="7.9" height="8.8"/>
		<rect x="274.6" class="st33" width="4.3" height="7.8"/>
		<rect x="275.8" class="st34" width="2" height="7.8"/>
		<g>
			<rect x="270.3" y="8.3" class="st32" width="13" height="4.3"/>
			<rect x="272.3" y="8.3" class="st33" width="9" height="3.7"/>
			<rect x="275.3" y="8.3" class="st34" width="3.1" height="3.7"/>
		</g>
	</g>
	<g>
		<g>
			<rect x="14.5" y="298" class="st46" width="11.3" height="6.8"/>
			<path class="st47" d="M25.8,298c-2.3,0-4.2,2.1-4.2,4.6v31.5c0,2.5,1.9,4.6,4.2,4.6l0,0c2.3,0,4.2-2.1,4.2-4.6v-31.5
				C30,300,28.2,298,25.8,298L25.8,298z"/>
			<path class="st48" d="M25.8,298c-1,0-1.8,2-1.8,4.4v30.3c0,2.4,0.8,4.4,1.8,4.4l0,0c1,0,1.8-2,1.8-4.4v-30.3
				C27.6,299.9,26.8,298,25.8,298L25.8,298z"/>
		</g>
		<polygon class="st49" points="0,409.3 6,409.3 6,286.1 0,286.1 0,278.2 14.5,278.2 14.5,417.2 0,417.2 		"/>
	</g>
	<g id="t-paper">
		<g>
			<path class="st47" d="M374.9,276.7h13.3v5.9h-13.3c-0.3,0-0.6,0.3-0.6,0.6v53.2c0,0.3,0.3,0.6,0.6,0.6h13.9v5.9h-13.9
				c-3.7,0-6.8-2.9-6.8-6.5v-53.2C368.1,279.6,371.1,276.7,374.9,276.7L374.9,276.7L374.9,276.7z"/>
			<path class="st40" d="M374.9,279.1h13.3v1.2h-13.3c-1.7,0-3.1,1.3-3.1,3v53.2c0,1.6,1.4,3,3.1,3h13.9v1.2h-13.9
				c-2.4,0-4.3-1.9-4.3-4.1v-53.2C370.5,280.9,372.5,279.1,374.9,279.1z"/>
		</g>
		<rect x="356.2" y="290.4" class="st50" width="29.9" height="37.9"/>
		<rect x="360.6" y="290.4" class="st51" width="21.2" height="37.9"/>
	</g>
	<g>
		<path class="st52" d="M234.9,35.1c-8.4,0-15.2-6.1-15.2-13.6s6.8-13.6,15.2-13.6s15.2,6.1,15.2,13.6S243.3,35.1,234.9,35.1
			L234.9,35.1z"/>
		<path class="st50" d="M234.9,33.1c-7.2,0-13-5.2-13-11.6s5.8-11.6,13-11.6s13,5.2,13,11.6S242.1,33.1,234.9,33.1L234.9,33.1z"/>
		<path class="st25" d="M234.9,29.6c-5,0-9-3.6-9-8.1s4-8.1,9-8.1s9,3.6,9,8.1S239.9,29.6,234.9,29.6z"/>
		<path class="st41" d="M234.9,22.9c-5,0-9-0.6-9-1.5s4-1.5,9-1.5s9,0.6,9,1.5S239.9,22.9,234.9,22.9z"/>
	</g>
	<g id="t-paper-2">
		<g>
			<path class="st47" d="M374.9,154.9v8.7h-6.2V155c0-0.2-0.3-0.4-0.6-0.4h-55.8c-0.3,0-0.6,0.2-0.6,0.4v9.1h-6.2V155
				c0-2.4,3.1-4.4,6.8-4.4h55.8C371.9,150.5,374.9,152.5,374.9,154.9L374.9,154.9L374.9,154.9z"/>
			<path class="st40" d="M372.5,154.9v8.7h-1.2V155c0-1.1-1.4-2-3.1-2h-55.8c-1.7,0-3.1,0.9-3.1,2v9.1h-1.2V155c0-1.6,2-2.8,4.3-2.8
				h55.8C370.5,152.1,372.5,153.4,372.5,154.9L372.5,154.9L372.5,154.9z"/>
		</g>
		<rect x="320.8" y="142.7" class="st50" width="39.8" height="19.6"/>
		<rect x="320.8" y="145.6" class="st25" width="39.8" height="13.9"/>
	</g>
	<g>
		<rect x="97" y="255.7" class="st4" width="96.9" height="83"/>
		<g class="st5">
			<polygon class="st6" points="102.3,273.1 174,334.5 188.8,334.5 102.3,260.4 			"/>
			<polygon class="st6" points="102.3,334.5 161.2,334.5 102.3,284 			"/>
		</g>
	</g>
	<g>
		<rect x="97" y="339.6" class="st4" width="96.9" height="83.5"/>
		<g class="st5">
			<polygon class="st6" points="102.3,357 174,418.7 188.8,418.7 102.3,344.3 			"/>
			<polygon class="st6" points="102.3,418.7 161.2,418.7 102.3,368 			"/>
		</g>
	</g>
	<g class="st53">
		<g>
			
				<linearGradient id="SVGID_00000067944084885496099020000017315693743043590074_" gradientUnits="userSpaceOnUse" x1="-2933.54" y1="-1770.0651" x2="-2927.8" y2="-1770.0651" gradientTransform="matrix(6.123234e-17 -1 -1 -6.123234e-17 -1558.41 -2767.77)">
				<stop  offset="0" style="stop-color:#FF7BAC"/>
				<stop  offset="0.22" style="stop-color:#FF7BAC;stop-opacity:0.76"/>
				<stop  offset="0.6" style="stop-color:#FF7BAC;stop-opacity:0.36"/>
				<stop  offset="0.87" style="stop-color:#FF7BAC;stop-opacity:0.1"/>
				<stop  offset="1" style="stop-color:#FF7BAC;stop-opacity:0"/>
			</linearGradient>
			
				<rect x="210.5" y="160" style="fill:url(#SVGID_00000067944084885496099020000017315693743043590074_);" width="2.3" height="5.8"/>
			
				<linearGradient id="SVGID_00000105393891741883056120000016221595240394926007_" gradientUnits="userSpaceOnUse" x1="-2929.95" y1="-1775.78" x2="-2925.6401" y2="-1775.78" gradientTransform="matrix(6.123234e-17 -1 -1 -6.123234e-17 -1558.41 -2767.77)">
				<stop  offset="0" style="stop-color:#FF7BAC"/>
				<stop  offset="0.22" style="stop-color:#FF7BAC;stop-opacity:0.76"/>
				<stop  offset="0.6" style="stop-color:#FF7BAC;stop-opacity:0.36"/>
				<stop  offset="0.87" style="stop-color:#FF7BAC;stop-opacity:0.1"/>
				<stop  offset="1" style="stop-color:#FF7BAC;stop-opacity:0"/>
			</linearGradient>
			<path style="fill:url(#SVGID_00000105393891741883056120000016221595240394926007_);" d="M210.5,160c0,1.2,0.7,2.2,1.6,2.2h10.6
				c0.9,0,1.6-1,1.6-2.2l0,0c0-1.2-0.7-2.2-1.6-2.2h-10.6C211.2,157.9,210.5,158.8,210.5,160L210.5,160z"/>
			
				<linearGradient id="SVGID_00000055679025778713492560000008138024784463975593_" gradientUnits="userSpaceOnUse" x1="-2928.6899" y1="-1775.53" x2="-2926.9001" y2="-1775.53" gradientTransform="matrix(6.123234e-17 -1 -1 -6.123234e-17 -1558.41 -2767.77)">
				<stop  offset="0" style="stop-color:#FF7BAC"/>
				<stop  offset="0.22" style="stop-color:#FF7BAC;stop-opacity:0.76"/>
				<stop  offset="0.6" style="stop-color:#FF7BAC;stop-opacity:0.36"/>
				<stop  offset="0.87" style="stop-color:#FF7BAC;stop-opacity:0.1"/>
				<stop  offset="1" style="stop-color:#FF7BAC;stop-opacity:0"/>
			</linearGradient>
			<path style="fill:url(#SVGID_00000055679025778713492560000008138024784463975593_);" d="M210.5,160c0,0.5,0.7,0.9,1.5,0.9h10.2
				c0.8,0,1.5-0.4,1.5-0.9l0,0c0-0.5-0.7-0.9-1.5-0.9H212C211.2,159.1,210.5,159.5,210.5,160L210.5,160z"/>
		</g>
		
			<linearGradient id="SVGID_00000155853417093104240260000010307958838380782480_" gradientUnits="userSpaceOnUse" x1="-2938.6699" y1="-1802.485" x2="-2928.4199" y2="-1802.485" gradientTransform="matrix(6.123234e-17 -1 -1 -6.123234e-17 -1558.41 -2767.77)">
			<stop  offset="0" style="stop-color:#FF7BAC"/>
			<stop  offset="0.22" style="stop-color:#FF7BAC;stop-opacity:0.76"/>
			<stop  offset="0.6" style="stop-color:#FF7BAC;stop-opacity:0.36"/>
			<stop  offset="0.87" style="stop-color:#FF7BAC;stop-opacity:0.1"/>
			<stop  offset="1" style="stop-color:#FF7BAC;stop-opacity:0"/>
		</linearGradient>
		<polygon style="fill:url(#SVGID_00000155853417093104240260000010307958838380782480_);" points="205.2,160.6 205.2,164.9 
			282.9,164.9 282.9,160.6 287.9,160.6 287.9,170.9 200.3,170.9 200.3,160.6 		"/>
	</g>
	<rect x="290.6" y="166.6" width="99.4" height="5"/>
	<g>
		<path class="st52" d="M178.5,415c-8.4,0-15.2-6.1-15.2-13.6c0-7.5,6.8-13.6,15.2-13.6s15.2,6.1,15.2,13.6
			C193.7,408.9,186.9,415,178.5,415z"/>
		<path class="st50" d="M178.5,413c-7.2,0-13-5.2-13-11.7s5.8-11.6,13-11.6s13,5.2,13,11.6S185.6,413,178.5,413z"/>
		<path class="st25" d="M178.5,409.5c-5,0-9-3.6-9-8.1s4-8.1,9-8.1s9,3.6,9,8.1S183.4,409.5,178.5,409.5z"/>
		<path class="st41" d="M178.5,402.8c-5,0-9-0.7-9-1.5c0-0.8,4-1.5,9-1.5s9,0.6,9,1.5C187.5,402.2,183.4,402.8,178.5,402.8z"/>
	</g>
</g>
</svg>
