<?xml version="1.0" encoding="UTF-8"?>
<svg xmlns="http://www.w3.org/2000/svg" viewBox="0 0 398.97 212.74">
  <defs>
    <style>
      .cls-1 {
        opacity: .37;
      }

      .cls-1, .cls-2 {
        mix-blend-mode: multiply;
      }

      .cls-1, .cls-2, .cls-3, .cls-4 {
        fill: #d7b37f;
        stroke: #603913;
        stroke-miterlimit: 10;
      }

      .cls-2 {
        opacity: .2;
      }

      .cls-5 {
        isolation: isolate;
      }

      .cls-4 {
        stroke-width: 0px;
      }
    </style>
  </defs>
  <g class="cls-5">
    <g id="Layer_1" data-name="Layer 1">
      <g>
        <g>
          <path class="cls-2" d="m165.67,85.68c.57,1.78,1.28,3.49,2.12,5.13.03.05.05.1.08.15.82,1.61,1.76,3.14,2.81,4.6.03.04.06.09.09.13.52.72,1.07,1.42,1.64,2.09.03.04.07.08.1.12,1.14,1.34,2.39,2.6,3.71,3.76.08.07.16.14.24.21.66.56,1.33,1.11,2.03,1.63.01.01.03.02.04.03.68.5,1.38.98,2.1,1.43.09.06.18.12.27.17.71.44,1.44.86,2.18,1.25.12.06.24.12.36.18.74.38,1.5.74,2.27,1.08.02,0,.04.02.06.03.78.33,1.57.63,2.38.9.16.05.32.11.48.16.79.26,1.6.5,2.41.7.11.03.23.05.34.08.76.18,1.52.34,2.29.47.14.02.28.05.43.08.83.13,1.67.23,2.52.31.18.02.37.03.55.04.87.06,1.75.11,2.64.11,0,0,0,0,0,0,4.33,0,8.49-.77,12.34-2.18.55-.2,1.09-.42,1.63-.64,2.92-1.23,5.63-2.85,8.1-4.78.5-.39.98-.79,1.46-1.2,1.07-.93,2.09-1.91,3.04-2.96.39-.42.76-.86,1.13-1.3.73-.89,1.42-1.81,2.07-2.76.32-.48.63-.96.93-1.46.45-.75.87-1.51,1.27-2.29.27-.53.53-1.08.78-1.63,2.01-4.48,3.14-9.45,3.14-14.68h0c0-.67-.02-1.34-.06-2-.01-.21-.03-.42-.05-.63-.03-.45-.07-.9-.12-1.35-.03-.24-.06-.48-.09-.72-.05-.41-.11-.83-.18-1.24-.04-.24-.08-.48-.13-.72-.08-.41-.16-.83-.26-1.24-.05-.22-.1-.44-.15-.66-.11-.45-.23-.89-.35-1.33-.05-.17-.1-.35-.15-.52-.17-.57-.36-1.13-.56-1.68-.01-.04-.03-.08-.04-.12-.45-1.24-.97-2.45-1.55-3.63-.03-.07-.07-.14-.11-.21-.25-.51-.52-1.01-.8-1.5-.05-.09-.1-.18-.16-.27-.27-.48-.56-.95-.86-1.42-.05-.08-.1-.16-.15-.24-.32-.49-.65-.98-1-1.46-.03-.04-.05-.07-.08-.11-1.93-2.67-4.23-5.05-6.81-7.1,0,0,0,0,0,0,0,0,0,0,0,0-6.12-4.84-13.84-7.74-22.25-7.74-19.82,0-35.88,16.06-35.88,35.88,0,3.85.61,7.56,1.74,11.04,0,0,0,0,0,0,0,0,0,0,0,0Z"/>
          <path class="cls-2" d="m153.51,74.63c0-25.53,20.77-46.31,46.31-46.31,7.8,0,15.16,1.95,21.62,5.37,1.79.95,3.51,2.02,5.16,3.19.07.05.14.1.21.15,1.62,1.16,3.15,2.43,4.61,3.78.06.06.13.12.19.18.67.63,1.32,1.28,1.95,1.95.06.06.11.12.17.18,1.33,1.43,2.56,2.94,3.7,4.52.1.13.19.27.29.4.53.76,1.05,1.53,1.54,2.32.02.02.03.05.05.07.51.83.99,1.67,1.44,2.53.08.15.16.31.23.46.37.71.72,1.43,1.05,2.16.08.18.17.37.25.55.38.88.75,1.77,1.08,2.67.01.04.03.08.04.12.31.84.58,1.7.84,2.57.07.24.14.48.21.72.21.76.4,1.53.58,2.3.04.18.09.35.12.53.2.93.36,1.87.5,2.83.03.22.06.44.08.67.1.76.18,1.52.24,2.29.02.27.05.55.06.82.06.98.1,1.96.1,2.95v1.8h0s3.61,0,3.61,0h0s0,0,0,0v-1.8s0,0,0,0c0-1.15-.05-2.28-.13-3.41-.02-.28-.04-.56-.06-.85-.1-1.12-.21-2.24-.38-3.34,0-.01,0-.02,0-.03-.17-1.09-.39-2.17-.62-3.24-.06-.27-.12-.53-.18-.79-.26-1.07-.54-2.13-.86-3.18,0-.02-.01-.03-.02-.05-.32-1.03-.69-2.05-1.08-3.05-.09-.24-.19-.49-.29-.73-.41-1.01-.84-2.01-1.31-2.98,0-.01-.01-.02-.02-.03-.47-.97-.98-1.91-1.51-2.84-.12-.22-.25-.43-.37-.65-.55-.94-1.12-1.86-1.73-2.76,0,0,0,0,0-.01-.61-.89-1.25-1.76-1.91-2.61-.14-.19-.29-.37-.44-.55-1.36-1.7-2.82-3.3-4.39-4.81-.16-.16-.32-.31-.49-.46-1.59-1.49-3.28-2.88-5.05-4.16-.18-.13-.35-.25-.53-.38-1.8-1.26-3.68-2.4-5.64-3.41-.19-.1-.38-.2-.57-.29-.99-.5-2-.97-3.03-1.41,0,0,0,0,0,0,0,0,0,0,0,0-5.94-2.5-12.45-3.88-19.29-3.88-27.52,0-49.91,22.39-49.91,49.91v1.8h3.61v-1.8Z"/>
          <path class="cls-2" d="m287.22,85.68c.57,1.77,1.28,3.48,2.11,5.12.03.05.05.1.08.15.82,1.61,1.76,3.14,2.81,4.6.03.04.06.09.09.13.52.72,1.07,1.42,1.64,2.09.03.04.07.08.1.12,1.14,1.34,2.39,2.6,3.71,3.76.08.07.16.14.24.21.66.56,1.33,1.11,2.03,1.63.01.01.03.02.04.03.68.5,1.38.98,2.1,1.43.09.06.18.12.27.17.71.44,1.44.86,2.18,1.25.12.06.24.12.36.18.74.38,1.5.74,2.27,1.08.02,0,.04.02.06.03.78.33,1.57.63,2.38.9.16.05.32.11.48.16.79.26,1.6.5,2.41.7.11.03.23.05.34.08.76.18,1.52.34,2.29.47.14.02.28.05.43.08.83.13,1.67.23,2.52.31.18.02.37.03.55.04.87.06,1.75.11,2.64.11,0,0,0,0,0,0,8.54,0,16.37-2.99,22.53-7.97.16-.13.31-.25.46-.38,2.58-2.16,4.86-4.68,6.76-7.48.32-.48.63-.96.93-1.46.45-.75.87-1.51,1.27-2.29.55-1.08,1.05-2.19,1.49-3.33,1.56-4.03,2.43-8.4,2.43-12.98h0c0-.67-.02-1.34-.06-2-.01-.21-.03-.42-.05-.63-.03-.45-.07-.9-.12-1.35-.03-.24-.06-.48-.09-.72-.05-.41-.11-.83-.18-1.24-.04-.24-.08-.48-.13-.72-.08-.41-.16-.83-.26-1.24-.05-.22-.1-.44-.15-.66-.11-.45-.23-.89-.35-1.33-.05-.17-.1-.35-.15-.52-.17-.57-.36-1.13-.56-1.68-.01-.04-.03-.08-.04-.12-.45-1.24-.97-2.45-1.55-3.63-.03-.07-.07-.14-.11-.21-.25-.51-.52-1.01-.8-1.5-.05-.09-.1-.18-.16-.27-.27-.48-.56-.95-.86-1.42-.05-.08-.1-.16-.15-.24-.32-.49-.65-.98-.99-1.46-.03-.04-.05-.08-.08-.11-1.93-2.67-4.22-5.05-6.8-7.1,0,0,0,0,0,0,0,0,0,0,0,0-6.12-4.84-13.84-7.74-22.25-7.74-19.82,0-35.88,16.06-35.88,35.88,0,3.85.61,7.56,1.74,11.04,0,0,0,0,0,0,0,0,0,0,0,0Z"/>
          <path class="cls-2" d="m275.05,74.63c0-25.53,20.77-46.31,46.31-46.31,7.8,0,15.16,1.95,21.62,5.37,1.79.95,3.51,2.02,5.16,3.19.07.05.14.1.21.15,1.62,1.16,3.16,2.43,4.61,3.78.06.06.12.12.19.18.67.63,1.32,1.29,1.95,1.96.06.06.11.12.17.18,1.33,1.43,2.56,2.94,3.7,4.52.1.13.19.27.29.4.53.76,1.05,1.53,1.54,2.32.02.02.03.05.05.07.51.83.99,1.67,1.44,2.53.08.15.16.31.23.46.37.71.72,1.43,1.05,2.16.08.18.17.37.25.55.38.88.75,1.77,1.08,2.67.01.04.03.08.04.12.31.84.58,1.7.84,2.57.07.24.14.48.21.72.21.76.4,1.53.58,2.3.04.18.09.35.12.53.2.93.36,1.87.5,2.83.03.22.06.44.08.67.1.76.18,1.52.24,2.29.02.27.05.55.06.82.06.98.1,1.96.1,2.95v1.8h0s3.61,0,3.61,0h0s0,0,0,0v-1.8s0,0,0,0c0-1.15-.05-2.28-.13-3.41-.02-.28-.04-.56-.06-.85-.1-1.12-.21-2.24-.38-3.34,0-.01,0-.02,0-.03-.17-1.09-.39-2.17-.62-3.24-.06-.27-.12-.53-.18-.79-.26-1.07-.54-2.13-.86-3.18,0-.02-.01-.03-.02-.05-.32-1.03-.69-2.05-1.08-3.05-.09-.24-.19-.49-.29-.73-.41-1.01-.84-2.01-1.31-2.98,0-.01-.01-.02-.02-.03-.47-.97-.98-1.91-1.51-2.84-.12-.22-.25-.43-.37-.65-.55-.94-1.12-1.86-1.73-2.76,0,0,0,0,0-.01-.61-.89-1.25-1.76-1.91-2.61-.14-.19-.29-.37-.44-.55-1.36-1.7-2.82-3.3-4.39-4.81-.16-.16-.32-.31-.49-.46-1.59-1.49-3.28-2.88-5.05-4.16-.18-.13-.35-.25-.53-.38-1.8-1.26-3.68-2.4-5.64-3.41-.19-.1-.38-.2-.57-.29-.99-.5-2-.97-3.03-1.41,0,0,0,0,0,0,0,0,0,0,0,0-5.94-2.5-12.45-3.88-19.29-3.88-27.52,0-49.91,22.39-49.91,49.91v1.8h3.61v-1.8Z"/>
          <path class="cls-2" d="m44.12,85.68c.57,1.78,1.28,3.49,2.12,5.13.03.05.05.1.08.15.82,1.61,1.76,3.14,2.81,4.6.03.04.06.09.09.13.52.72,1.07,1.42,1.64,2.09.03.04.07.08.1.12,1.14,1.34,2.39,2.6,3.71,3.76.08.07.16.14.24.21.66.56,1.33,1.11,2.03,1.63.01.01.03.02.04.03.68.5,1.38.98,2.1,1.43.09.06.18.12.27.17.71.44,1.44.86,2.18,1.25.12.06.24.12.36.18.74.38,1.5.75,2.27,1.08.02,0,.04.02.06.03.78.33,1.57.63,2.38.9.16.05.32.11.47.16.79.26,1.6.5,2.41.7.11.03.23.05.34.08.76.18,1.52.34,2.29.47.14.02.28.05.43.08.83.13,1.67.23,2.52.31.18.02.36.03.55.04.87.06,1.75.11,2.64.11,0,0,0,0,0,0,8.54,0,16.37-2.99,22.53-7.97.16-.13.31-.25.46-.38,7.87-6.58,12.88-16.47,12.88-27.54,0,0,0-.02,0-.03,0-.66-.02-1.32-.06-1.97-.01-.21-.03-.42-.05-.64-.03-.45-.07-.9-.12-1.34-.03-.24-.06-.49-.09-.73-.05-.41-.11-.82-.18-1.23-.04-.24-.08-.49-.13-.73-.08-.41-.16-.82-.25-1.23-.05-.22-.1-.44-.15-.67-.11-.44-.23-.88-.35-1.32-.05-.18-.1-.35-.15-.53-.17-.56-.35-1.12-.55-1.67-.02-.04-.03-.09-.04-.13-.45-1.24-.97-2.45-1.55-3.62-.04-.07-.07-.14-.11-.22-.25-.51-.52-1.01-.79-1.5-.05-.09-.11-.19-.16-.28-.27-.48-.56-.95-.85-1.41-.05-.08-.1-.16-.15-.24-.32-.49-.65-.98-.99-1.45-.03-.04-.05-.08-.08-.12-1.93-2.67-4.22-5.05-6.8-7.1,0,0,0,0,0,0,0,0,0,0,0,0-6.12-4.84-13.84-7.74-22.25-7.74-19.82,0-35.88,16.06-35.88,35.88,0,3.85.61,7.56,1.74,11.04,0,0,0,0,0,0,0,0,0,0,0,0Z"/>
          <path class="cls-2" d="m31.96,74.63c0-25.53,20.77-46.31,46.31-46.31,7.8,0,15.16,1.95,21.62,5.37,1.79.95,3.51,2.02,5.16,3.19.07.05.14.1.21.15,1.62,1.16,3.16,2.43,4.61,3.78.06.06.12.12.19.18.67.63,1.32,1.29,1.95,1.96.06.06.11.12.17.18,1.33,1.43,2.56,2.94,3.7,4.52.1.13.19.27.29.4.53.76,1.05,1.53,1.54,2.32.02.02.03.05.05.07.51.83.99,1.67,1.44,2.53.08.15.16.31.23.46.37.71.72,1.43,1.05,2.16.08.18.17.37.25.55.38.88.75,1.77,1.08,2.67.01.04.03.08.04.12.31.84.58,1.7.84,2.57.07.24.14.48.21.72.21.76.4,1.53.58,2.3.04.18.09.35.12.53.2.93.36,1.87.5,2.83.03.22.06.44.08.67.1.76.18,1.52.24,2.29.02.27.05.55.06.82.06.98.1,1.96.1,2.95v1.8h0s3.61,0,3.61,0h0v-1.8c0-1.15-.05-2.29-.13-3.42-.02-.28-.04-.56-.06-.84-.1-1.12-.21-2.24-.38-3.34,0,0,0-.02,0-.02-.17-1.1-.39-2.18-.63-3.25-.06-.27-.12-.53-.18-.79-.26-1.07-.54-2.13-.86-3.18,0-.01,0-.03-.01-.04-.32-1.04-.69-2.05-1.08-3.06-.09-.24-.19-.48-.29-.72-.41-1.01-.84-2.01-1.31-2.99,0-.01-.01-.02-.02-.03-.47-.97-.98-1.91-1.51-2.85-.12-.22-.25-.43-.37-.64-.55-.94-1.12-1.86-1.73-2.76,0,0,0,0,0-.01-.61-.89-1.25-1.76-1.91-2.61-.14-.19-.29-.37-.44-.55-1.36-1.7-2.82-3.3-4.39-4.81-.16-.15-.32-.31-.48-.46-1.59-1.49-3.28-2.88-5.06-4.16-.18-.13-.35-.25-.53-.38-1.8-1.26-3.68-2.4-5.64-3.41-.19-.1-.38-.2-.57-.29-.99-.5-2-.97-3.03-1.41,0,0,0,0,0,0,0,0,0,0,0,0-5.94-2.5-12.45-3.88-19.29-3.88-27.52,0-49.91,22.39-49.91,49.91v1.8h3.61v-1.8Z"/>
          <path class="cls-2" d="m398.47,168.51c0-17.07-14.7-31.84-36.13-39.04h0s0,0,0,0c-4.38-1.47-9.03-2.63-13.91-3.42-.22-.04-.44-.07-.66-.1-.93-.15-1.88-.28-2.83-.4-.34-.04-.68-.08-1.02-.12-.85-.1-1.71-.18-2.57-.26-.39-.03-.77-.07-1.16-.1-.86-.06-1.73-.11-2.61-.16-.37-.02-.73-.04-1.1-.06-1.22-.05-2.44-.07-3.68-.07-.01,0-.02,0-.03,0h-32.64s-43.69,0-43.69,0h0s-29.6,0-29.6,0h0s-202.13,0-202.13,0v87.45h308.06c1.51,0,3-.05,4.48-.11.36-.02.71-.03,1.07-.05,1.46-.08,2.92-.18,4.35-.33,0,0,0,0,0,0,1.48-.15,2.93-.34,4.37-.55.29-.04.58-.09.87-.13,19.88-3.13,36.25-12.25,44.58-24.36h0s0,0,0,0c.83-1.21,1.59-2.45,2.26-3.72,0,0,0,0,0-.01.33-.63.64-1.27.93-1.91,0-.01,0-.02.01-.04.28-.64.55-1.28.79-1.93,0-.02.01-.04.02-.06.24-.64.46-1.29.65-1.94,0,0,0,0,0,0,.59-1.99.99-4.04,1.16-6.12,0-.02,0-.05,0-.07h0c.06-.78.1-1.57.1-2.37h0Z"/>
        </g>
        <g>
          <circle class="cls-3" cx="54.04" cy="50.41" r="35.88" transform="translate(-7.3 9.2) rotate(-9.11)"/>
          <path class="cls-3" d="m103.96,52.22h-3.61v-1.8c0-25.53-20.77-46.31-46.31-46.31S7.74,24.88,7.74,50.41v1.8h-3.61v-1.8C4.13,22.89,26.52.5,54.04.5s49.91,22.39,49.91,49.91v1.8Z"/>
          <path class="cls-3" d="m54.04,81.3c-17.06,0-30.88-13.83-30.88-30.88s13.83-30.88,30.88-30.88,30.88,13.83,30.88,30.88-13.83,30.88-30.88,30.88Z"/>
          <path class="cls-1" d="m51.33,50.41c0,1.5,1.21,2.71,2.71,2.71s2.71-1.21,2.71-2.71-1.21-2.71-2.71-2.71-2.71,1.21-2.71,2.71Z"/>
          <path class="cls-1" d="m76.29,22.27c1.12,3.48,1.74,7.19,1.74,11.04,0,19.82-16.06,35.88-35.88,35.88-8.41,0-16.13-2.9-22.25-7.74,4.66,14.41,18.18,24.84,34.14,24.84,19.82,0,35.88-16.06,35.88-35.88,0-11.41-5.33-21.57-13.63-28.14Z"/>
        </g>
        <g>
          <path class="cls-4" d="m.5,100.57v87.45h308.06c36.28,0,65.69-19.58,65.69-43.72h0c0-24.15-29.41-43.72-65.69-43.72H.5Z"/>
          <g>
            <path class="cls-3" d="m.5,100.57v87.45h308.06c36.28,0,65.69-19.58,65.69-43.72h0c0-24.15-29.41-43.72-65.69-43.72H.5Z"/>
            <path class="cls-3" d="m7.01,183.68v-78.78h301.55c32.63,0,61.18,17.67,61.18,39.39s-28.55,39.39-61.18,39.39H7.01Z"/>
          </g>
        </g>
        <g>
          <circle class="cls-3" cx="174.48" cy="50.41" r="35.88" transform="translate(-3.55 14.48) rotate(-4.7)"/>
          <path class="cls-3" d="m224.39,52.22h-3.61v-1.8c0-25.53-20.77-46.31-46.31-46.31s-46.31,20.77-46.31,46.31v1.8h-3.61v-1.8c0-27.52,22.39-49.91,49.91-49.91s49.91,22.39,49.91,49.91v1.8Z"/>
          <path class="cls-3" d="m174.48,81.3c-17.06,0-30.88-13.83-30.88-30.88s13.83-30.88,30.88-30.88,30.88,13.83,30.88,30.88-13.83,30.88-30.88,30.88Z"/>
          <path class="cls-1" d="m171.77,50.41c0,1.5,1.21,2.71,2.71,2.71s2.71-1.21,2.71-2.71-1.21-2.71-2.71-2.71-2.71,1.21-2.71,2.71Z"/>
          <path class="cls-1" d="m196.73,22.27c1.12,3.48,1.74,7.19,1.74,11.04,0,19.82-16.06,35.88-35.88,35.88-8.41,0-16.13-2.9-22.25-7.74,4.66,14.41,18.18,24.84,34.14,24.84,19.82,0,35.88-16.06,35.88-35.88,0-11.41-5.33-21.57-13.63-28.14Z"/>
        </g>
        <g>
          <circle class="cls-3" cx="294.91" cy="50.41" r="35.88" transform="translate(-4.26 47.35) rotate(-9.11)"/>
          <path class="cls-3" d="m344.83,52.22h-3.61v-1.8c0-25.53-20.77-46.31-46.31-46.31s-46.31,20.77-46.31,46.31v1.8h-3.61v-1.8c0-27.52,22.39-49.91,49.91-49.91s49.91,22.39,49.91,49.91v1.8Z"/>
          <path class="cls-3" d="m294.91,81.3c-17.06,0-30.88-13.83-30.88-30.88s13.83-30.88,30.88-30.88,30.88,13.83,30.88,30.88-13.83,30.88-30.88,30.88Z"/>
          <path class="cls-1" d="m292.2,50.41c0,1.5,1.21,2.71,2.71,2.71s2.71-1.21,2.71-2.71-1.21-2.71-2.71-2.71-2.71,1.21-2.71,2.71Z"/>
          <path class="cls-1" d="m317.16,22.27c1.12,3.48,1.74,7.19,1.74,11.04,0,19.82-16.06,35.88-35.88,35.88-8.41,0-16.13-2.9-22.25-7.74,4.66,14.41,18.18,24.84,34.14,24.84,19.82,0,35.88-16.06,35.88-35.88,0-11.41-5.33-21.57-13.63-28.14Z"/>
        </g>
      </g>
    </g>
  </g>
</svg>