<?xml version="1.0" encoding="UTF-8"?>
<svg xmlns="http://www.w3.org/2000/svg" viewBox="0 0 391.42 206.99">
  <defs>
    <style>
      .cls-1 {
        fill: #d7b37f;
      }

      .cls-2 {
        fill: #e5d9c2;
        opacity: .32;
      }

      .cls-2, .cls-3 {
        mix-blend-mode: multiply;
      }

      .cls-4 {
        isolation: isolate;
      }

      .cls-5 {
        fill: #f5efe1;
      }

      .cls-6 {
        fill: #cdbdb6;
      }

      .cls-7 {
        fill: #f8dba7;
      }

      .cls-3 {
        fill: #7d7d7d;
        opacity: .19;
      }
    </style>
  </defs>
  <g class="cls-4">
    <g id="Layer_1" data-name="Layer 1">
      <g>
        <rect class="cls-3" x="16.12" y="111.7" width="375.3" height="95.29"/>
        <g>
          <path class="cls-3" d="m46.34,66.04c1.22,49.66,75.79,45.69,71.54-3.98-5.37-44.33-71.13-40.65-71.54,3.98Z"/>
          <path class="cls-3" d="m35.92,66.04c0-25.53,20.77-46.31,46.31-46.31,7.81,0,15.16,1.95,21.62,5.37,1.79.95,3.51,2.02,5.15,3.19.07.05.14.1.21.15,1.61,1.16,3.15,2.42,4.6,3.78.06.06.13.12.19.18.67.63,1.32,1.28,1.95,1.95.06.06.12.12.17.18,1.33,1.43,2.56,2.94,3.7,4.52.1.14.19.27.29.41.53.75,1.04,1.52,1.53,2.31.02.03.04.05.05.08.51.83.99,1.67,1.44,2.53.08.15.16.31.23.46.37.71.72,1.43,1.05,2.16.08.19.17.37.25.56.38.88.75,1.77,1.08,2.67.01.04.03.08.04.12.31.85.58,1.7.84,2.57.07.24.14.48.21.73.21.76.4,1.52.57,2.3.04.18.09.36.12.54.2.93.36,1.87.5,2.82.03.22.06.45.09.67.1.76.18,1.52.24,2.29.02.27.05.55.06.82.06.98.1,1.96.1,2.95h0v1.8h0s3.61,0,3.61,0h0v-1.8s0,0,0,0c0-1.15-.05-2.28-.13-3.41-.02-.28-.04-.57-.06-.85-.1-1.12-.21-2.24-.38-3.34,0-.01,0-.03,0-.04-.17-1.09-.38-2.17-.62-3.23-.06-.27-.12-.53-.18-.8-.26-1.07-.54-2.13-.86-3.17,0-.02-.01-.03-.02-.05-.32-1.03-.69-2.04-1.08-3.04-.09-.24-.19-.49-.29-.73-.41-1.01-.84-2.01-1.31-2.98,0-.01-.01-.03-.02-.04-.47-.97-.98-1.91-1.5-2.84-.12-.22-.25-.43-.37-.65-.55-.94-1.12-1.86-1.73-2.75,0,0,0-.01-.01-.02-.6-.89-1.24-1.75-1.9-2.6-.15-.19-.29-.37-.44-.56-.68-.85-1.38-1.68-2.11-2.49,0,0,0,0,0,0-.73-.8-1.49-1.57-2.27-2.32-.16-.16-.33-.31-.49-.47-1.59-1.49-3.28-2.88-5.05-4.15-.18-.13-.35-.25-.53-.38-1.8-1.26-3.68-2.39-5.63-3.41-.19-.1-.38-.2-.58-.3-.99-.5-2-.97-3.03-1.41,0,0,0,0,0,0h0c-5.94-2.5-12.46-3.88-19.29-3.88-27.52,0-49.91,22.39-49.91,49.91v1.8h3.61v-1.8Z"/>
          <circle class="cls-6" cx="66.1" cy="49.91" r="35.88" transform="translate(-7.07 11.1) rotate(-9.11)"/>
          <path class="cls-7" d="m116.02,51.72h-3.61v-1.8c0-25.53-20.77-46.31-46.31-46.31S19.8,24.38,19.8,49.91v1.8h-3.61v-1.8C16.19,22.39,38.58,0,66.1,0s49.91,22.39,49.91,49.91v1.8Z"/>
          <path class="cls-5" d="m66.1,80.8c-17.06,0-30.88-13.83-30.88-30.88s13.83-30.88,30.88-30.88,30.88,13.83,30.88,30.88-13.83,30.88-30.88,30.88Z"/>
          <path class="cls-6" d="m63.39,49.91c0,1.5,1.21,2.71,2.71,2.71s2.71-1.21,2.71-2.71-1.21-2.71-2.71-2.71-2.71,1.21-2.71,2.71Z"/>
          <path class="cls-2" d="m88.35,21.77c1.12,3.48,1.74,7.19,1.74,11.04,0,19.82-16.06,35.88-35.88,35.88-8.41,0-16.13-2.9-22.25-7.74,4.66,14.41,18.18,24.84,34.14,24.84,19.82,0,35.88-16.06,35.88-35.88,0-11.41-5.33-21.57-13.63-28.14Z"/>
        </g>
        <g>
          <path class="cls-3" d="m167.89,66.04c1.22,49.66,75.79,45.69,71.54-3.98-5.37-44.33-71.13-40.65-71.54,3.98Z"/>
          <path class="cls-3" d="m157.47,66.04c0-25.53,20.77-46.31,46.31-46.31,7.81,0,15.16,1.95,21.62,5.37,1.79.95,3.51,2.02,5.15,3.19.07.05.14.1.21.15,1.61,1.16,3.15,2.42,4.6,3.78.06.06.13.12.19.18.67.63,1.32,1.28,1.95,1.95.06.06.12.12.17.18,1.33,1.43,2.56,2.94,3.7,4.52.1.14.19.27.29.41.53.75,1.04,1.52,1.53,2.31.02.03.04.05.05.08.51.83.99,1.67,1.44,2.53.08.15.16.31.23.46.37.71.72,1.43,1.05,2.16.08.19.17.37.25.56.38.88.75,1.77,1.08,2.67.01.04.03.08.04.12.31.85.58,1.7.84,2.57.07.24.14.48.21.73.21.76.4,1.52.57,2.3.04.18.09.36.12.54.2.93.36,1.87.5,2.82.03.22.06.45.09.67.1.76.18,1.52.24,2.29.02.27.05.55.06.82.06.98.1,1.96.1,2.95h0v1.8h0s3.61,0,3.61,0h0v-1.8s0,0,0,0c0-1.15-.05-2.28-.13-3.41-.02-.28-.04-.57-.06-.85-.1-1.12-.21-2.24-.38-3.34,0-.01,0-.03,0-.04-.17-1.09-.38-2.17-.62-3.23-.06-.27-.12-.53-.18-.8-.26-1.07-.54-2.13-.86-3.17,0-.02-.01-.03-.02-.05-.32-1.03-.69-2.04-1.08-3.04-.09-.24-.19-.49-.29-.73-.41-1.01-.84-2.01-1.31-2.98,0-.01-.01-.03-.02-.04-.47-.97-.98-1.91-1.5-2.84-.12-.22-.25-.43-.37-.65-.55-.94-1.12-1.86-1.73-2.75,0,0,0-.01-.01-.02-.6-.89-1.24-1.75-1.9-2.6-.15-.19-.29-.37-.44-.56-.68-.85-1.38-1.68-2.11-2.49,0,0,0,0,0,0-.73-.8-1.49-1.57-2.27-2.32-.16-.16-.33-.31-.49-.47-1.59-1.49-3.28-2.88-5.05-4.15-.18-.13-.35-.25-.53-.38-1.8-1.26-3.68-2.39-5.63-3.41-.19-.1-.38-.2-.58-.3-.99-.5-2-.97-3.03-1.41,0,0,0,0,0,0h0c-5.94-2.5-12.46-3.88-19.29-3.88-27.52,0-49.91,22.39-49.91,49.91v1.8h3.61v-1.8Z"/>
          <circle class="cls-6" cx="187.65" cy="49.91" r="35.88" transform="translate(-5.54 30.36) rotate(-9.11)"/>
          <path class="cls-7" d="m237.56,51.72h-3.61v-1.8c0-25.53-20.77-46.31-46.31-46.31s-46.31,20.77-46.31,46.31v1.8h-3.61v-1.8c0-27.52,22.39-49.91,49.91-49.91s49.91,22.39,49.91,49.91v1.8Z"/>
          <path class="cls-5" d="m187.65,80.8c-17.06,0-30.88-13.83-30.88-30.88s13.83-30.88,30.88-30.88,30.88,13.83,30.88,30.88-13.83,30.88-30.88,30.88Z"/>
          <path class="cls-6" d="m184.94,49.91c0,1.5,1.21,2.71,2.71,2.71s2.71-1.21,2.71-2.71-1.21-2.71-2.71-2.71-2.71,1.21-2.71,2.71Z"/>
          <path class="cls-2" d="m209.9,21.77c1.12,3.48,1.74,7.19,1.74,11.04,0,19.82-16.06,35.88-35.88,35.88-8.41,0-16.13-2.9-22.25-7.74,4.66,14.41,18.18,24.84,34.14,24.84,19.82,0,35.88-16.06,35.88-35.88,0-11.41-5.33-21.57-13.63-28.14Z"/>
        </g>
        <g>
          <path class="cls-3" d="m289.44,66.04c1.22,49.66,75.79,45.69,71.54-3.98-5.37-44.33-71.13-40.65-71.54,3.98Z"/>
          <path class="cls-3" d="m279.01,66.04c0-25.53,20.77-46.31,46.31-46.31,7.81,0,15.16,1.95,21.62,5.37,1.79.95,3.51,2.02,5.15,3.19.07.05.14.1.21.15,1.61,1.16,3.15,2.42,4.6,3.78.06.06.13.12.19.18.67.63,1.32,1.28,1.95,1.95.06.06.12.12.17.18,1.33,1.43,2.56,2.94,3.7,4.52.1.14.19.27.29.41.53.75,1.04,1.52,1.53,2.31.02.03.04.05.05.08.51.83.99,1.67,1.44,2.53.08.15.16.31.23.46.37.71.72,1.43,1.05,2.16.08.19.17.37.25.56.38.88.75,1.77,1.08,2.67.01.04.03.08.04.12.31.85.58,1.7.84,2.57.07.24.14.48.21.73.21.76.4,1.52.57,2.3.04.18.09.36.12.54.2.93.36,1.87.5,2.82.03.22.06.45.09.67.1.76.18,1.52.24,2.29.02.27.05.55.06.82.06.98.1,1.96.1,2.95h0v1.8h0s3.61,0,3.61,0h0v-1.8s0,0,0,0c0-1.15-.05-2.28-.13-3.41-.02-.28-.04-.57-.06-.85-.1-1.12-.21-2.24-.38-3.34,0-.01,0-.03,0-.04-.17-1.09-.38-2.17-.62-3.23-.06-.27-.12-.53-.18-.8-.26-1.07-.54-2.13-.86-3.17,0-.02-.01-.03-.02-.05-.32-1.03-.69-2.04-1.08-3.04-.09-.24-.19-.49-.29-.73-.41-1.01-.84-2.01-1.31-2.98,0-.01-.01-.03-.02-.04-.47-.97-.98-1.91-1.5-2.84-.12-.22-.25-.43-.37-.65-.55-.94-1.12-1.86-1.73-2.75,0,0,0-.01-.01-.02-.6-.89-1.24-1.75-1.9-2.6-.15-.19-.29-.37-.44-.56-.68-.85-1.38-1.68-2.11-2.49,0,0,0,0,0,0-.73-.8-1.49-1.57-2.27-2.32-.16-.16-.33-.31-.49-.47-1.59-1.49-3.28-2.88-5.05-4.15-.18-.13-.35-.25-.53-.38-1.8-1.26-3.68-2.39-5.63-3.41-.19-.1-.38-.2-.58-.3-.99-.5-2-.97-3.03-1.41,0,0,0,0,0,0h0c-5.94-2.5-12.46-3.88-19.29-3.88-27.52,0-49.91,22.39-49.91,49.91v1.8h3.61v-1.8Z"/>
          <circle class="cls-6" cx="309.2" cy="49.91" r="35.88" transform="translate(-3.98 46.46) rotate(-8.54)"/>
          <path class="cls-7" d="m359.11,51.72h-3.61v-1.8c0-25.53-20.77-46.31-46.31-46.31s-46.31,20.77-46.31,46.31v1.8h-3.61v-1.8c0-27.52,22.39-49.91,49.91-49.91s49.91,22.39,49.91,49.91v1.8Z"/>
          <path class="cls-5" d="m309.2,80.8c-17.06,0-30.88-13.83-30.88-30.88s13.83-30.88,30.88-30.88,30.88,13.83,30.88,30.88-13.83,30.88-30.88,30.88Z"/>
          <path class="cls-6" d="m306.49,49.91c0,1.5,1.21,2.71,2.71,2.71s2.71-1.21,2.71-2.71-1.21-2.71-2.71-2.71-2.71,1.21-2.71,2.71Z"/>
          <path class="cls-2" d="m331.44,21.77c1.12,3.48,1.74,7.19,1.74,11.04,0,19.82-16.06,35.88-35.88,35.88-8.41,0-16.13-2.9-22.25-7.74,4.66,14.41,18.18,24.84,34.14,24.84,19.82,0,35.88-16.06,35.88-35.88,0-11.41-5.33-21.57-13.63-28.14Z"/>
        </g>
        <g>
          <rect class="cls-1" y="95.58" width="375.3" height="95.29"/>
          <rect class="cls-7" x="10.42" y="104.08" width="354.45" height="78.29"/>
        </g>
      </g>
    </g>
  </g>
</svg>