<?xml version="1.0" encoding="UTF-8"?>
<svg xmlns="http://www.w3.org/2000/svg" xmlns:xlink="http://www.w3.org/1999/xlink" viewBox="0 0 277.94 717.7">
  <defs>
    <style>
      .cls-1 {
        fill: #cfcfce;
      }

      .cls-2 {
        fill: #cbcaca;
      }

      .cls-3 {
        fill: #e9e9e9;
      }

      .cls-4 {
        fill: url(#linear-gradient-8);
      }

      .cls-4, .cls-5, .cls-6, .cls-7, .cls-8, .cls-9, .cls-10, .cls-11, .cls-12, .cls-13, .cls-14 {
        stroke: #9c9c9b;
        stroke-miterlimit: 10;
        stroke-width: .03px;
      }

      .cls-15 {
        fill: #e5e4e4;
      }

      .cls-16 {
        fill: #a8aaad;
      }

      .cls-17 {
        fill: #f9f8f8;
      }

      .cls-18 {
        fill: #fff;
      }

      .cls-5 {
        fill: url(#linear-gradient-20);
      }

      .cls-19 {
        fill: url(#linear-gradient-17);
      }

      .cls-6, .cls-20 {
        fill: #ededee;
      }

      .cls-21 {
        fill: #dbdbda;
      }

      .cls-22 {
        fill: #b0b0af;
      }

      .cls-7 {
        fill: url(#linear-gradient-2);
      }

      .cls-23 {
        fill: #dad9d8;
      }

      .cls-24 {
        fill: #f1594e;
      }

      .cls-24, .cls-25 {
        mix-blend-mode: multiply;
      }

      .cls-26 {
        fill: url(#linear-gradient-15);
      }

      .cls-27 {
        fill: #d06660;
      }

      .cls-28 {
        fill: #d7d6d6;
      }

      .cls-29 {
        fill: #c9c8c7;
      }

      .cls-30 {
        fill: url(#linear-gradient-18);
      }

      .cls-31 {
        fill: #e2e2e2;
      }

      .cls-32 {
        fill: #dddcdb;
      }

      .cls-33 {
        fill: #e7e6e5;
      }

      .cls-34 {
        fill: #bfbebd;
      }

      .cls-35 {
        fill: #d8d7d6;
      }

      .cls-36 {
        fill: #d0cfcf;
      }

      .cls-37 {
        fill: url(#linear-gradient-14);
      }

      .cls-38 {
        fill: url(#linear-gradient-6);
      }

      .cls-39 {
        fill: #a3a3a2;
      }

      .cls-40 {
        fill: #dedddc;
      }

      .cls-41 {
        isolation: isolate;
      }

      .cls-42 {
        fill: #c9c9c8;
      }

      .cls-43 {
        fill: #f5f4f4;
      }

      .cls-8 {
        fill: url(#linear-gradient);
      }

      .cls-44 {
        fill: #dbdad9;
      }

      .cls-45 {
        fill: #d6d6d6;
      }

      .cls-9 {
        fill: url(#linear-gradient-22);
      }

      .cls-46 {
        fill: #f1f0ef;
      }

      .cls-47 {
        fill: #e8e7e6;
      }

      .cls-48 {
        fill: #eae9e8;
      }

      .cls-49 {
        fill: #ecebea;
      }

      .cls-50 {
        fill: #8f8e8e;
      }

      .cls-51 {
        fill: #cfcecd;
      }

      .cls-10 {
        fill: url(#linear-gradient-7);
      }

      .cls-52 {
        fill: url(#linear-gradient-11);
      }

      .cls-53 {
        fill: #a7a6a6;
      }

      .cls-11 {
        fill: url(#linear-gradient-12);
      }

      .cls-54 {
        fill: #dedede;
      }

      .cls-55 {
        fill: #e5e6e6;
      }

      .cls-56 {
        fill: #d7d7d7;
      }

      .cls-12 {
        fill: url(#linear-gradient-10);
      }

      .cls-57 {
        fill: #979696;
      }

      .cls-58 {
        fill: #dcdbda;
      }

      .cls-59 {
        fill: #ebeae9;
      }

      .cls-60 {
        fill: #e1e1e1;
      }

      .cls-61 {
        fill: #f3f2f1;
      }

      .cls-62 {
        fill: #d3d2d1;
      }

      .cls-63 {
        fill: #f7f7f6;
      }

      .cls-64 {
        fill: #cecdcc;
      }

      .cls-65 {
        fill: #e6e5e4;
      }

      .cls-66 {
        fill: #b0afaf;
      }

      .cls-67 {
        fill: #c7c6c5;
      }

      .cls-68 {
        fill: #d4d4d4;
      }

      .cls-69 {
        fill: url(#linear-gradient-16);
      }

      .cls-70 {
        fill: #f0efee;
      }

      .cls-71 {
        fill: #9f9e9e;
      }

      .cls-72 {
        fill: #d6d6d5;
      }

      .cls-73 {
        fill: #f6f5f5;
      }

      .cls-74 {
        fill: #b7b7b6;
      }

      .cls-75 {
        fill: #fdfdfd;
      }

      .cls-76 {
        fill: #e4e3e3;
      }

      .cls-77 {
        fill: #fbfbfb;
      }

      .cls-78 {
        fill: url(#linear-gradient-21);
      }

      .cls-79 {
        fill: #efeeed;
      }

      .cls-80 {
        fill: #d5d5d4;
      }

      .cls-81 {
        fill: #c8c7c6;
      }

      .cls-82 {
        fill: #f4f3f3;
      }

      .cls-83 {
        fill: #cdcdcc;
      }

      .cls-84 {
        fill: #cccbca;
      }

      .cls-85 {
        fill: #878787;
      }

      .cls-86 {
        fill: #aaa9a8;
      }

      .cls-87 {
        fill: #b9b8b8;
      }

      .cls-88 {
        fill: #d2d3d4;
      }

      .cls-89 {
        fill: #dfdedd;
      }

      .cls-90 {
        fill: #d1d0cf;
      }

      .cls-91 {
        fill: #e4e4e5;
      }

      .cls-92 {
        fill: #dcdcdc;
      }

      .cls-93 {
        fill: #e3e2e2;
      }

      .cls-94 {
        fill: #d4d3d2;
      }

      .cls-95 {
        fill: #9c9c9b;
      }

      .cls-13 {
        fill: url(#linear-gradient-4);
      }

      .cls-96 {
        fill: #edeceb;
      }

      .cls-97 {
        fill: #d1d0d0;
      }

      .cls-98 {
        fill: #d5d4d3;
      }

      .cls-99 {
        fill: #b3b3b3;
      }

      .cls-100 {
        fill: #d4d4d3;
      }

      .cls-101 {
        fill: #c3c1c2;
      }

      .cls-102 {
        fill: #e1e0e0;
      }

      .cls-103 {
        fill: #cccbcc;
      }

      .cls-104 {
        fill: url(#linear-gradient-9);
      }

      .cls-105 {
        fill: #908f8e;
      }

      .cls-106 {
        fill: #f2f1f0;
      }

      .cls-107 {
        fill: #e2e1e1;
      }

      .cls-108 {
        fill: url(#linear-gradient-3);
      }

      .cls-109 {
        fill: #e0dfde;
      }

      .cls-110 {
        fill: #d2d1d0;
      }

      .cls-111 {
        fill: #e9e8e7;
      }

      .cls-112 {
        fill: #c6c5c5;
      }

      .cls-113 {
        fill: #eeedec;
      }

      .cls-114 {
        fill: url(#linear-gradient-19);
      }

      .cls-115 {
        fill: #cac9c9;
      }

      .cls-116 {
        fill: #cdcccb;
      }

      .cls-14 {
        fill: url(#linear-gradient-5);
      }

      .cls-117 {
        fill: #d9d8d7;
      }

      .cls-118 {
        fill: #73a6bf;
      }

      .cls-119 {
        fill: #f6db88;
      }

      .cls-120 {
        fill: #fafaf9;
      }

      .cls-121 {
        fill: url(#linear-gradient-13);
      }

      .cls-122 {
        fill: #e0e0df;
      }
    </style>
    <linearGradient id="linear-gradient" x1="1115.4" y1="30.5" x2="1366.85" y2="30.5" gradientTransform="translate(1367.31) rotate(-180) scale(1 -1)" gradientUnits="userSpaceOnUse">
      <stop offset="0" stop-color="#e6e6e5"/>
      <stop offset="1" stop-color="#c9c9c9"/>
    </linearGradient>
    <linearGradient id="linear-gradient-2" x1="1121.13" y1="30.5" x2="1361.12" y2="30.5" gradientTransform="translate(1367.31) rotate(-180) scale(1 -1)" gradientUnits="userSpaceOnUse">
      <stop offset="0" stop-color="#fff"/>
      <stop offset="1" stop-color="#d7d6d6"/>
    </linearGradient>
    <linearGradient id="linear-gradient-3" x1="251.91" y1="66.89" x2=".47" y2="66.89" gradientUnits="userSpaceOnUse">
      <stop offset="0" stop-color="#c8c7c6"/>
      <stop offset="1" stop-color="#b4b4b4"/>
    </linearGradient>
    <linearGradient id="linear-gradient-4" x1="1115.43" y1="129.72" x2="1366.82" y2="129.72" xlink:href="#linear-gradient"/>
    <linearGradient id="linear-gradient-5" x1="1121.5" y1="129.72" x2="1360.75" y2="129.72" xlink:href="#linear-gradient-2"/>
    <linearGradient id="linear-gradient-6" x1="251.59" y1="169.1" x2=".08" y2="169.1" xlink:href="#linear-gradient-3"/>
    <linearGradient id="linear-gradient-7" x1="1116.13" y1="234.83" x2="1365.62" y2="234.83" xlink:href="#linear-gradient"/>
    <linearGradient id="linear-gradient-8" x1="1130.9" y1="234.83" x2="1350.86" y2="234.83" xlink:href="#linear-gradient-2"/>
    <linearGradient id="linear-gradient-9" x1="251.18" y1="277.73" x2="1.7" y2="277.73" xlink:href="#linear-gradient-3"/>
    <linearGradient id="linear-gradient-10" x1="1205.54" y1="357.49" x2="1359.54" y2="357.49" xlink:href="#linear-gradient"/>
    <linearGradient id="linear-gradient-11" x1="161.78" y1="404.26" x2="7.77" y2="404.26" xlink:href="#linear-gradient-3"/>
    <linearGradient id="linear-gradient-12" x1="1209.05" y1="357.49" x2="1356.03" y2="357.49" xlink:href="#linear-gradient-2"/>
    <linearGradient id="linear-gradient-13" x1="277.94" y1="542.54" x2="45.61" y2="542.54" xlink:href="#linear-gradient-3"/>
    <linearGradient id="linear-gradient-14" x1="66.17" y1="492.58" x2="141.4" y2="492.58" gradientTransform="matrix(1, 0, 0, 1, 0, 0)" xlink:href="#linear-gradient-2"/>
    <linearGradient id="linear-gradient-15" x1="17.58" y1="492.45" x2="51.44" y2="492.45" gradientTransform="translate(-78.81 -12.46) rotate(-17.62)" gradientUnits="userSpaceOnUse">
      <stop offset="0" stop-color="#bfbfbe"/>
      <stop offset=".57" stop-color="#fff"/>
      <stop offset="1" stop-color="#c9c9c8"/>
    </linearGradient>
    <linearGradient id="linear-gradient-16" x1="35.7" y1="533.87" x2="35.7" y2="490.85" xlink:href="#linear-gradient-15"/>
    <linearGradient id="linear-gradient-17" x1="182.15" y1="492.58" x2="257.38" y2="492.58" gradientTransform="matrix(1, 0, 0, 1, 0, 0)" xlink:href="#linear-gradient-2"/>
    <linearGradient id="linear-gradient-18" x1="438.6" y1="981.22" x2="470.6" y2="981.22" gradientTransform="translate(490.1 -600.58) rotate(39.2)" xlink:href="#linear-gradient-15"/>
    <linearGradient id="linear-gradient-19" x1="452.53" y1="1025.35" x2="452.53" y2="979.49" gradientTransform="translate(490.1 -600.58) rotate(39.2)" xlink:href="#linear-gradient-15"/>
    <linearGradient id="linear-gradient-20" x1="1133.64" y1="638.03" x2="1255.5" y2="638.03" xlink:href="#linear-gradient"/>
    <linearGradient id="linear-gradient-21" x1="233.67" y1="699.64" x2="111.81" y2="699.64" xlink:href="#linear-gradient-3"/>
    <linearGradient id="linear-gradient-22" x1="1140.86" y1="638.03" x2="1248.29" y2="638.03" xlink:href="#linear-gradient-2"/>
  </defs>
  <g class="cls-41">
    <g id="Layer_1" data-name="Layer 1">
      <g>
        <rect class="cls-8" x=".47" y=".44" width="251.44" height="60.11"/>
        <rect class="cls-7" x="6.19" y="5.74" width="239.99" height="49.51"/>
        <rect class="cls-108" x=".47" y="60.55" width="251.44" height="12.67"/>
        <path class="cls-105" d="m118.74,66.45c0-1.59,3.34-2.89,7.45-2.89s7.45,1.3,7.45,2.89-3.35,2.88-7.45,2.88-7.45-1.29-7.45-2.88Z"/>
        <polygon class="cls-24" points="252.38 0 0 0 0 60.99 .47 60.99 .47 73.22 251.91 73.22 251.91 60.99 252.38 60.99 252.38 0"/>
      </g>
      <g>
        <rect class="cls-13" x=".49" y="96.42" width="251.39" height="66.61"/>
        <rect class="cls-14" x="6.56" y="102.31" width="239.25" height="54.82"/>
        <rect class="cls-38" x=".08" y="161.87" width="251.51" height="14.48"/>
        <rect class="cls-105" x="124.53" y="161.87" width="2.43" height="14.48"/>
        <path class="cls-105" d="m137.56,167.86c0-1.81,3.53-3.29,7.87-3.29s7.9,1.48,7.9,3.29-3.53,3.3-7.9,3.3-7.87-1.47-7.87-3.3Z"/>
        <path class="cls-105" d="m100.69,167.86c0-1.81,3.53-3.29,7.89-3.29s7.9,1.48,7.9,3.29-3.53,3.3-7.9,3.3-7.89-1.47-7.89-3.3Z"/>
        <polygon class="cls-24" points="252.38 95.92 0 95.92 0 163.52 .08 163.52 .08 176.34 124.53 176.34 126.95 176.34 251.59 176.34 251.59 163.52 252.38 163.52 252.38 95.92"/>
      </g>
      <g>
        <rect class="cls-10" x="1.7" y="199.42" width="249.49" height="70.82"/>
        <rect class="cls-4" x="16.46" y="205.69" width="219.96" height="58.28"/>
        <rect class="cls-104" x="1.7" y="270.24" width="249.49" height="15"/>
        <path class="cls-105" d="m107.25,277.22c0-1.88,8.59-3.42,19.19-3.42s19.21,1.53,19.21,3.42-8.63,3.41-19.21,3.41-19.19-1.53-19.19-3.41Z"/>
        <polygon class="cls-24" points="252.38 198.89 .49 198.89 .49 270.77 1.7 270.77 1.7 285.23 251.18 285.23 251.18 270.77 252.38 270.77 252.38 198.89"/>
      </g>
      <g>
        <rect class="cls-12" x="7.77" y="315.3" width="154" height="84.37"/>
        <rect class="cls-52" x="7.77" y="399.67" width="154" height="9.17"/>
        <path class="cls-105" d="m80.21,403.94c0-1.15,2.04-2.09,4.56-2.09s4.56.93,4.56,2.09-2.05,2.08-4.56,2.08-4.56-.93-4.56-2.08Z"/>
        <polygon class="cls-24" points="162.06 314.98 7.49 314.98 7.49 399.99 7.77 399.99 7.77 408.84 161.78 408.84 161.78 399.99 162.06 399.99 162.06 314.98"/>
        <rect class="cls-11" x="11.28" y="319.13" width="146.99" height="76.7"/>
      </g>
      <path class="cls-88" d="m89.25,324.5l-63.58,6.99c-3.8.42-6.26,3.25-5.49,6.34l9.12,36.65c.76,3.09,4.46,5.24,8.25,4.82l63.58-6.98c3.8-.42,6.26-3.25,5.49-6.34l-9.12-36.65c-.77-3.08-4.46-5.24-8.26-4.82Zm4.81,21.11c1.94-.21,3.81.89,4.21,2.45.39,1.58-.86,3.03-2.79,3.24-1.93.21-3.82-.89-4.21-2.46-.39-1.57.87-3.01,2.8-3.23Z"/>
      <g>
        <path class="cls-16" d="m61.13,351.23c.28-.49-.18-1.05-1.01-1.21h0c-.83-.18-1.72.09-2,.59l-8.63,15.61c-.27.5.19,1.04,1.02,1.21h0c.83.18,1.72-.09,2.01-.61l8.6-15.6Z"/>
        <path class="cls-119" d="m45.98,351.15c-4.17-.63-8.23.43-9.19,2.45-.96,2.02,1.56,4.23,5.63,5.05l3.56-7.5Z"/>
        <path class="cls-119" d="m36.88,345.69c1.06,2.53,4.53,4.2,7.92,3.75,3.38-.45,5.39-2.84,4.64-5.41l-12.56,1.66Z"/>
        <path class="cls-119" d="m49.76,338.52c0,2.17-3.8,3.93-8.48,3.93s-8.48-1.76-8.48-3.93,3.8-3.93,8.48-3.93,8.48,1.76,8.48,3.93Z"/>
        <path class="cls-119" d="m61.34,334.73c2.64,1.05,2.94,3.59.69,5.69-2.25,2.09-6.22,2.94-8.85,1.89-2.63-1.05-2.94-3.59-.69-5.68,2.26-2.09,6.22-2.94,8.85-1.89Z"/>
        <polygon class="cls-119" points="73.4 345.01 70.3 344.43 74.93 335.29 78.04 335.87 73.4 345.01"/>
        <polygon class="cls-119" points="73.6 349.27 70.72 348.36 78 339.88 80.88 340.79 73.6 349.27"/>
        <polygon class="cls-119" points="71.12 343.78 67.91 343.49 70.24 334.03 73.44 334.32 71.12 343.78"/>
        <polygon class="cls-119" points="76.24 355.85 73.03 355.55 75.36 346.09 78.57 346.38 76.24 355.85"/>
        <polygon class="cls-119" points="81.27 348.62 78.07 348.33 80.38 338.87 83.59 339.16 81.27 348.62"/>
        <polygon class="cls-119" points="67.01 351.72 63.81 351.42 66.12 341.96 69.34 342.25 67.01 351.72"/>
        <polygon class="cls-119" points="86.39 356.2 83.15 356.24 82.84 346.67 86.08 346.64 86.39 356.2"/>
      </g>
      <g class="cls-25">
        <path class="cls-18" d="m243.12,550.63v-88.49h-61.73c-.04-.97-.52-1.93-1.51-2.59-1.82-1.21-4.5-.99-5.99.5-.62.62-.86,1.35-.89,2.09H20.41v88.49h-.37v9.91h223.44v-9.91h-.37Z"/>
        <path class="cls-75" d="m243.69,550.51v-88.49h-61.73c-.04-.97-.52-1.93-1.51-2.59-1.82-1.21-4.5-.99-5.99.5-.62.62-.86,1.35-.89,2.09H20.98v88.49h-.37v9.91h223.44v-9.91h-.37Z"/>
        <path class="cls-77" d="m244.25,550.4v-88.49h-61.73c-.04-.97-.52-1.93-1.51-2.59-1.82-1.21-4.5-.99-5.99.5-.62.62-.86,1.35-.89,2.09H21.55v88.49h-.37v9.91h223.44v-9.91h-.37Z"/>
        <path class="cls-120" d="m244.82,550.28v-88.49h-61.73c-.03-.97-.52-1.93-1.51-2.59-1.82-1.21-4.5-.99-5.99.5-.61.62-.86,1.35-.89,2.09H22.11v88.49h-.37v9.91h223.44v-9.91h-.37Z"/>
        <path class="cls-17" d="m245.38,550.16v-88.49h-61.73c-.03-.97-.52-1.93-1.51-2.59-1.82-1.21-4.5-.99-5.99.5-.61.62-.86,1.35-.89,2.09H22.68v88.49h-.37v9.91h223.44v-9.91h-.37Z"/>
        <path class="cls-63" d="m245.95,550.05v-88.49h-61.73c-.03-.97-.52-1.93-1.51-2.59-1.82-1.21-4.5-.99-5.99.5-.61.62-.86,1.35-.89,2.09H23.24v88.49h-.37v9.91h223.44v-9.91h-.37Z"/>
        <path class="cls-73" d="m246.52,549.93v-88.49h-61.73c-.03-.97-.52-1.93-1.51-2.59-1.82-1.21-4.5-.99-5.99.5-.61.62-.86,1.35-.89,2.09H23.81v88.49h-.37v9.91h223.44v-9.91h-.37Z"/>
        <path class="cls-43" d="m247.08,549.81v-88.49h-61.73c-.03-.97-.52-1.93-1.51-2.59-1.82-1.21-4.5-.99-5.99.5-.61.62-.86,1.35-.89,2.09H24.38v88.49h-.37v9.91h223.44v-9.91h-.37Z"/>
        <path class="cls-82" d="m247.65,549.69v-88.49h-61.73c-.03-.97-.52-1.93-1.51-2.59-1.82-1.21-4.5-.99-5.99.5-.61.62-.86,1.35-.89,2.09H24.94v88.49h-.37v9.91h223.44v-9.91h-.37Z"/>
        <path class="cls-61" d="m248.22,549.58v-88.49h-61.73c-.03-.97-.52-1.93-1.51-2.59-1.82-1.21-4.5-.99-5.99.5-.61.62-.86,1.35-.89,2.09H25.51v88.49h-.37v9.91h223.44v-9.91h-.37Z"/>
        <path class="cls-106" d="m248.78,549.46v-88.49h-61.73c-.03-.97-.52-1.93-1.51-2.59-1.82-1.21-4.5-.99-5.99.5-.61.62-.86,1.35-.89,2.09H26.08v88.49h-.37v9.91h223.44v-9.91h-.37Z"/>
        <path class="cls-46" d="m249.35,549.34v-88.49h-61.73c-.03-.97-.52-1.93-1.51-2.59-1.82-1.21-4.5-.99-5.99.5-.61.62-.86,1.35-.89,2.09H26.64v88.49h-.37v9.91h223.44v-9.91h-.37Z"/>
        <path class="cls-70" d="m249.91,549.22v-88.49h-61.73c-.03-.97-.52-1.93-1.51-2.59-1.82-1.21-4.5-.99-5.99.5-.61.62-.86,1.35-.89,2.09H27.21v88.49h-.37v9.91h223.44v-9.91h-.37Z"/>
        <path class="cls-79" d="m250.48,549.11v-88.49h-61.73c-.03-.97-.52-1.93-1.51-2.59-1.82-1.21-4.5-.99-5.99.5-.61.62-.86,1.35-.89,2.09H27.77v88.49h-.37v9.91h223.44v-9.91h-.37Z"/>
        <path class="cls-113" d="m251.05,548.99v-88.49h-61.73c-.03-.97-.52-1.93-1.51-2.59-1.82-1.21-4.5-.99-5.99.5-.61.62-.86,1.35-.89,2.09H28.34v88.49h-.37v9.91h223.44v-9.91h-.37Z"/>
        <path class="cls-96" d="m251.61,548.87v-88.49h-61.73c-.03-.97-.52-1.93-1.51-2.59-1.82-1.21-4.5-.99-5.99.5-.61.61-.86,1.35-.89,2.09H28.91v88.49h-.37v9.91h223.44v-9.91h-.37Z"/>
        <path class="cls-49" d="m252.18,548.75v-88.49h-61.73c-.03-.97-.52-1.93-1.51-2.59-1.82-1.21-4.5-.99-5.99.5-.61.61-.86,1.35-.89,2.09H29.47v88.49h-.37v9.91h223.44v-9.91h-.37Z"/>
        <path class="cls-59" d="m252.74,548.64v-88.49h-61.73c-.03-.97-.52-1.93-1.51-2.59-1.82-1.21-4.5-.99-5.99.5-.61.61-.86,1.35-.89,2.09H30.04v88.49h-.37v9.91h223.44v-9.91h-.37Z"/>
        <path class="cls-48" d="m253.31,548.52v-88.49h-61.73c-.03-.97-.52-1.93-1.51-2.59-1.82-1.21-4.5-.99-5.99.5-.61.61-.86,1.35-.89,2.09H30.6v88.49h-.37v9.91h223.44v-9.91h-.37Z"/>
        <path class="cls-111" d="m253.88,548.4v-88.49h-61.73c-.03-.97-.52-1.93-1.51-2.59-1.82-1.21-4.5-.99-5.99.5-.61.61-.86,1.35-.89,2.09H31.17v88.49h-.37v9.91h223.44v-9.91h-.37Z"/>
        <path class="cls-47" d="m254.44,548.29v-88.49h-61.73c-.03-.97-.52-1.93-1.51-2.59-1.82-1.21-4.5-.99-5.99.5-.61.61-.86,1.35-.89,2.09H31.74v88.49h-.37v9.91h223.44v-9.91h-.37Z"/>
        <path class="cls-33" d="m255.01,548.17v-88.49h-61.73c-.03-.97-.52-1.93-1.51-2.59-1.82-1.21-4.5-.99-5.99.5-.61.61-.86,1.35-.89,2.09H32.3v88.49h-.37v9.91h223.44v-9.91h-.37Z"/>
        <path class="cls-65" d="m255.58,548.05v-88.49h-61.73c-.03-.97-.52-1.93-1.51-2.59-1.82-1.21-4.5-.99-5.99.5-.61.61-.86,1.35-.89,2.09H32.87v88.49h-.37v9.91h223.44v-9.91h-.37Z"/>
        <path class="cls-15" d="m256.14,547.93v-88.49h-61.73c-.03-.97-.52-1.93-1.51-2.59-1.82-1.21-4.5-.99-5.99.5-.61.61-.86,1.35-.89,2.09H33.44v88.49h-.37v9.91h223.44v-9.91h-.37Z"/>
        <path class="cls-76" d="m256.71,547.82v-88.49h-61.73c-.03-.97-.52-1.93-1.51-2.59-1.82-1.21-4.5-.99-5.99.5-.61.61-.86,1.35-.89,2.09H34v88.49h-.37v9.91h223.44v-9.91h-.37Z"/>
        <path class="cls-93" d="m257.27,547.7v-88.49h-61.73c-.03-.97-.52-1.93-1.51-2.59-1.82-1.21-4.5-.99-5.99.5-.61.61-.86,1.35-.89,2.09H34.57v88.49h-.37v9.91h223.44v-9.91h-.37Z"/>
        <path class="cls-107" d="m257.84,547.58v-88.49h-61.73c-.03-.97-.52-1.93-1.51-2.59-1.82-1.21-4.5-.99-5.99.5-.61.61-.86,1.35-.89,2.09H35.13v88.49h-.37v9.91h223.44v-9.91h-.37Z"/>
        <path class="cls-102" d="m258.41,547.46v-88.49h-61.73c-.03-.97-.52-1.93-1.51-2.59-1.82-1.21-4.5-.99-5.99.5-.61.61-.86,1.35-.89,2.09H35.7v88.49h-.37v9.91h223.44v-9.91h-.37Z"/>
        <path class="cls-122" d="m258.97,547.35v-88.49h-61.73c-.03-.97-.52-1.93-1.51-2.59-1.82-1.21-4.5-.99-5.99.5-.61.61-.86,1.35-.89,2.09H36.27v88.49h-.37v9.91h223.44v-9.91h-.37Z"/>
        <path class="cls-109" d="m259.54,547.23v-88.49h-61.73c-.03-.97-.52-1.93-1.51-2.59-1.82-1.21-4.5-.99-5.99.5-.61.61-.86,1.35-.89,2.09H36.83v88.49h-.37v9.91h223.44v-9.91h-.37Z"/>
        <path class="cls-89" d="m260.11,547.11v-88.49h-61.73c-.03-.97-.52-1.93-1.51-2.59-1.82-1.21-4.5-.99-5.99.5-.61.61-.86,1.35-.89,2.09H37.4v88.49h-.37v9.91h223.44v-9.91h-.37Z"/>
        <path class="cls-40" d="m260.67,546.99v-88.49h-61.73c-.03-.97-.52-1.93-1.51-2.59-1.82-1.21-4.5-.99-5.99.5-.61.61-.86,1.35-.89,2.09H37.97v88.49h-.37v9.91h223.44v-9.91h-.37Z"/>
        <path class="cls-32" d="m261.24,546.88v-88.49h-61.73c-.03-.97-.52-1.93-1.51-2.59-1.82-1.21-4.5-.99-5.99.5-.61.61-.86,1.35-.89,2.09H38.53v88.49h-.37v9.91h223.44v-9.91h-.37Z"/>
        <path class="cls-58" d="m261.8,546.76v-88.49h-61.73c-.03-.97-.52-1.93-1.51-2.59-1.82-1.21-4.5-.99-5.99.5-.61.61-.86,1.35-.89,2.09H39.1v88.49h-.37v9.91h223.44v-9.91h-.37Z"/>
        <path class="cls-44" d="m262.37,546.64v-88.49h-61.73c-.03-.97-.52-1.93-1.51-2.59-1.82-1.21-4.5-.99-5.99.5-.61.61-.86,1.35-.89,2.09H39.66v88.49h-.37v9.91h223.44v-9.91h-.37Z"/>
        <path class="cls-23" d="m262.94,546.52v-88.49h-61.73c-.03-.97-.52-1.93-1.51-2.59-1.82-1.21-4.5-.99-5.99.5-.61.61-.86,1.35-.89,2.09H40.23v88.49h-.37v9.91h223.44v-9.91h-.37Z"/>
        <path class="cls-117" d="m263.5,546.41v-88.49h-61.73c-.03-.97-.51-1.93-1.51-2.59-1.82-1.21-4.5-.99-5.99.5-.61.61-.86,1.35-.89,2.09H40.8v88.49h-.37v9.91h223.44v-9.91h-.37Z"/>
        <path class="cls-35" d="m264.07,546.29v-88.49h-61.73c-.03-.97-.51-1.93-1.51-2.59-1.82-1.21-4.5-.99-5.99.5-.61.61-.86,1.35-.89,2.09H41.36v88.49h-.37v9.91h223.44v-9.91h-.37Z"/>
        <path class="cls-28" d="m264.63,546.17v-88.49h-61.73c-.03-.97-.51-1.93-1.51-2.59-1.82-1.21-4.5-.99-5.99.5-.61.61-.86,1.35-.89,2.09H41.93v88.49h-.37v9.91h223.44v-9.91h-.37Z"/>
        <path class="cls-72" d="m265.2,546.06v-88.49h-61.73c-.03-.97-.51-1.93-1.51-2.59-1.82-1.21-4.5-.99-5.99.5-.61.61-.86,1.35-.89,2.09H42.5v88.49h-.37v9.91h223.44v-9.91h-.37Z"/>
        <path class="cls-80" d="m265.77,545.94v-88.49h-61.73c-.03-.97-.51-1.93-1.51-2.59-1.82-1.21-4.5-.99-5.99.5-.61.61-.86,1.35-.89,2.09H43.06v88.49h-.37v9.91h223.44v-9.91h-.37Z"/>
        <path class="cls-98" d="m266.33,545.82v-88.49h-61.73c-.03-.97-.51-1.93-1.51-2.59-1.82-1.21-4.5-.99-5.99.5-.61.61-.86,1.35-.89,2.09H43.63v88.49h-.37v9.91h223.44v-9.91h-.37Z"/>
        <path class="cls-94" d="m266.9,545.7v-88.49h-61.73c-.03-.97-.51-1.93-1.51-2.59-1.82-1.21-4.5-.99-5.99.5-.61.61-.86,1.35-.89,2.09H44.19v88.49h-.37v9.91h223.44v-9.91h-.37Z"/>
        <path class="cls-62" d="m267.47,545.59v-88.49h-61.73c-.03-.97-.51-1.93-1.51-2.59-1.82-1.21-4.5-.99-5.99.5-.61.61-.86,1.35-.89,2.09H44.76v88.49h-.37v9.91h223.44v-9.91h-.37Z"/>
        <path class="cls-110" d="m268.03,545.47v-88.49h-61.73c-.03-.97-.51-1.93-1.51-2.59-1.82-1.21-4.5-.99-5.99.5-.61.61-.86,1.35-.89,2.09H45.33v88.49h-.37v9.91h223.44v-9.91h-.37Z"/>
        <path class="cls-90" d="m268.6,545.35v-88.49h-61.73c-.03-.97-.51-1.93-1.51-2.59-1.82-1.21-4.5-.99-5.99.5-.61.61-.86,1.35-.89,2.09H45.89v88.49h-.37v9.91h223.44v-9.91h-.37Z"/>
        <path class="cls-36" d="m269.16,545.23v-88.49h-61.73c-.03-.97-.51-1.93-1.51-2.59-1.82-1.21-4.5-.99-5.99.5-.61.61-.86,1.35-.89,2.09H46.46v88.49h-.37v9.91h223.44v-9.91h-.37Z"/>
        <path class="cls-1" d="m269.73,545.12v-88.49h-61.73c-.03-.97-.51-1.93-1.51-2.59-1.82-1.21-4.5-.99-5.99.5-.61.61-.86,1.35-.89,2.09H47.02v88.49h-.37v9.91h223.44v-9.91h-.37Z"/>
        <path class="cls-51" d="m270.3,545v-88.49h-61.73c-.03-.97-.51-1.93-1.51-2.59-1.82-1.21-4.5-.99-5.99.5-.61.61-.86,1.35-.89,2.09H47.59v88.49h-.37v9.91h223.44v-9.91h-.37Z"/>
        <path class="cls-64" d="m270.86,544.88v-88.49h-61.73c-.03-.97-.51-1.93-1.51-2.59-1.82-1.21-4.5-.99-5.99.5-.61.61-.86,1.35-.89,2.09H48.16v88.49h-.37v9.91h223.44v-9.91h-.37Z"/>
        <path class="cls-116" d="m271.43,544.76v-88.49h-61.73c-.03-.97-.51-1.93-1.51-2.59-1.82-1.21-4.5-.99-5.99.5-.61.61-.86,1.35-.89,2.09H48.72v88.49h-.37v9.91h223.44v-9.91h-.37Z"/>
        <path class="cls-84" d="m272,544.65v-88.49h-61.73c-.03-.97-.51-1.93-1.51-2.59-1.82-1.21-4.5-.99-5.99.5-.61.61-.86,1.35-.89,2.08H49.29v88.49h-.37v9.91h223.44v-9.91h-.37Z"/>
        <path class="cls-2" d="m272.56,544.53v-88.49h-61.73c-.03-.97-.51-1.93-1.51-2.59-1.82-1.21-4.5-.99-5.99.5-.61.61-.86,1.35-.89,2.08H49.86v88.49h-.37v9.91h223.44v-9.91h-.37Z"/>
        <path class="cls-115" d="m273.13,544.41v-88.49h-61.73c-.03-.97-.51-1.93-1.51-2.59-1.82-1.21-4.5-.99-5.99.5-.61.61-.86,1.35-.89,2.08H50.42v88.49h-.37v9.91h223.44v-9.91h-.37Z"/>
        <path class="cls-42" d="m273.69,544.3v-88.49h-61.73c-.03-.97-.51-1.93-1.51-2.59-1.82-1.21-4.5-.99-5.99.5-.61.61-.86,1.35-.89,2.08H50.99v88.49h-.37v9.91h223.44v-9.91h-.37Z"/>
        <path class="cls-29" d="m274.26,544.18v-88.49h-61.73c-.03-.97-.51-1.93-1.51-2.59-1.82-1.21-4.5-.99-5.99.5-.61.61-.86,1.35-.89,2.08H51.55v88.49h-.37v9.91h223.44v-9.91h-.37Z"/>
        <path class="cls-81" d="m274.83,544.06v-88.49h-61.73c-.03-.97-.51-1.93-1.51-2.59-1.82-1.21-4.5-.99-5.99.5-.61.61-.86,1.35-.89,2.08H52.12v88.49h-.37v9.91h223.44v-9.91h-.37Z"/>
        <path class="cls-67" d="m275.39,543.94v-88.49h-61.73c-.03-.97-.51-1.93-1.51-2.59-1.82-1.21-4.5-.99-5.99.5-.61.61-.86,1.35-.89,2.08H52.69v88.49h-.37v9.91h223.44v-9.91h-.37Z"/>
      </g>
      <g>
        <rect class="cls-121" x="45.61" y="537.02" width="232.33" height="11.04"/>
        <rect class="cls-105" x="160.57" y="537.02" width="2.24" height="11.04"/>
        <path class="cls-105" d="m172.6,541.59c0-1.38,3.26-2.51,7.27-2.51s7.3,1.13,7.3,2.51-3.26,2.51-7.3,2.51-7.27-1.13-7.27-2.51Z"/>
        <path class="cls-105" d="m138.55,541.59c0-1.38,3.26-2.51,7.28-2.51s7.3,1.13,7.3,2.51-3.26,2.51-7.3,2.51-7.28-1.13-7.28-2.51Z"/>
        <rect class="cls-6" x="45.99" y="438.21" width="115.59" height="98.5"/>
        <g>
          <path class="cls-67" d="m151.65,520.76c0,6.26-6.15,11.34-13.74,11.34h-68.26c-7.58,0-13.74-5.08-13.74-11.34v-56.36c0-6.26,6.15-11.34,13.74-11.34h68.26c7.59,0,13.74,5.08,13.74,11.34v56.36Z"/>
          <path class="cls-115" d="m150.72,520.21c0,6.14-6.03,11.12-13.47,11.12h-66.93c-7.44,0-13.47-4.98-13.47-11.12v-55.26c0-6.14,6.03-11.12,13.47-11.12h66.93c7.44,0,13.47,4.98,13.47,11.12v55.26Z"/>
          <path class="cls-83" d="m149.79,519.66c0,6.02-5.91,10.9-13.2,10.9h-65.6c-7.29,0-13.2-4.88-13.2-10.9v-54.17c0-6.02,5.91-10.9,13.2-10.9h65.6c7.29,0,13.2,4.88,13.2,10.9v54.17Z"/>
          <path class="cls-97" d="m148.86,519.11c0,5.9-5.79,10.68-12.93,10.68h-64.27c-7.14,0-12.93-4.78-12.93-10.68v-53.07c0-5.9,5.79-10.68,12.93-10.68h64.27c7.14,0,12.93,4.78,12.93,10.68v53.07Z"/>
          <path class="cls-100" d="m147.93,518.56c0,5.78-5.67,10.46-12.67,10.46h-62.94c-6.99,0-12.67-4.68-12.67-10.46v-51.97c0-5.78,5.67-10.46,12.67-10.46h62.94c7,0,12.67,4.68,12.67,10.46v51.97Z"/>
          <path class="cls-56" d="m146.99,518.01c0,5.65-5.55,10.24-12.4,10.24h-61.61c-6.85,0-12.4-4.58-12.4-10.24v-50.87c0-5.65,5.55-10.24,12.4-10.24h61.61c6.85,0,12.4,4.58,12.4,10.24v50.87Z"/>
          <path class="cls-21" d="m146.06,517.46c0,5.53-5.43,10.02-12.13,10.02h-60.28c-6.7,0-12.13-4.48-12.13-10.02v-49.78c0-5.53,5.43-10.02,12.13-10.02h60.28c6.7,0,12.13,4.49,12.13,10.02v49.78Z"/>
          <path class="cls-54" d="m145.13,516.91c0,5.41-5.31,9.79-11.86,9.79h-58.96c-6.55,0-11.86-4.39-11.86-9.79v-48.68c0-5.41,5.31-9.8,11.86-9.8h58.96c6.55,0,11.86,4.39,11.86,9.8v48.68Z"/>
          <path class="cls-31" d="m144.2,516.37c0,5.29-5.19,9.57-11.6,9.57h-57.63c-6.4,0-11.6-4.29-11.6-9.57v-47.58c0-5.29,5.19-9.58,11.6-9.58h57.63c6.41,0,11.6,4.29,11.6,9.58v47.58Z"/>
          <path class="cls-55" d="m143.26,515.82c0,5.17-5.07,9.35-11.33,9.35h-56.3c-6.26,0-11.33-4.19-11.33-9.35v-46.48c0-5.17,5.07-9.36,11.33-9.36h56.3c6.26,0,11.33,4.19,11.33,9.36v46.48Z"/>
          <path class="cls-3" d="m142.33,515.27c0,5.04-4.95,9.13-11.06,9.13h-54.97c-6.11,0-11.06-4.09-11.06-9.13v-45.39c0-5.04,4.95-9.13,11.06-9.13h54.97c6.11,0,11.06,4.09,11.06,9.13v45.39Z"/>
          <path class="cls-20" d="m141.4,514.72c0,4.92-4.83,8.91-10.79,8.91h-53.64c-5.96,0-10.79-3.99-10.79-8.91v-44.29c0-4.92,4.83-8.91,10.79-8.91h53.64c5.96,0,10.79,3.99,10.79,8.91v44.29Z"/>
        </g>
        <path class="cls-37" d="m141.4,514.72c0,4.92-4.83,8.91-10.79,8.91h-53.64c-5.96,0-10.79-3.99-10.79-8.91v-44.29c0-4.92,4.83-8.91,10.79-8.91h53.64c5.96,0,10.79,3.99,10.79,8.91v44.29Z"/>
        <g>
          <g>
            <ellipse class="cls-20" cx="103.79" cy="477.28" rx="8.11" ry="6.7"/>
            <path class="cls-60" d="m111.68,477.28c0,3.6-3.53,6.52-7.89,6.52s-7.89-2.92-7.89-6.52,3.53-6.52,7.89-6.52,7.89,2.92,7.89,6.52Z"/>
            <path class="cls-45" d="m111.46,477.28c0,3.5-3.44,6.34-7.67,6.34s-7.67-2.84-7.67-6.34,3.44-6.33,7.67-6.33,7.67,2.84,7.67,6.33Z"/>
            <path class="cls-103" d="m111.24,477.28c0,3.4-3.34,6.15-7.45,6.15s-7.45-2.75-7.45-6.15,3.34-6.15,7.45-6.15,7.45,2.75,7.45,6.15Z"/>
            <path class="cls-101" d="m111.02,477.28c0,3.3-3.24,5.97-7.23,5.97s-7.23-2.67-7.23-5.97,3.24-5.97,7.23-5.97,7.23,2.67,7.23,5.97Z"/>
            <path class="cls-87" d="m110.8,477.28c0,3.2-3.14,5.79-7.01,5.79s-7.01-2.59-7.01-5.79,3.14-5.79,7.01-5.79,7.01,2.59,7.01,5.79Z"/>
            <path class="cls-66" d="m110.58,477.28c0,3.1-3.04,5.61-6.79,5.61s-6.79-2.51-6.79-5.61,3.04-5.61,6.79-5.61,6.79,2.51,6.79,5.61Z"/>
            <path class="cls-53" d="m110.36,477.28c0,3-2.94,5.42-6.57,5.42s-6.57-2.43-6.57-5.42,2.94-5.42,6.57-5.42,6.57,2.43,6.57,5.42Z"/>
            <path class="cls-71" d="m110.14,477.28c0,2.9-2.84,5.24-6.35,5.24s-6.35-2.35-6.35-5.24,2.84-5.24,6.35-5.24,6.35,2.35,6.35,5.24Z"/>
            <path class="cls-57" d="m109.92,477.28c0,2.79-2.74,5.06-6.13,5.06s-6.13-2.27-6.13-5.06,2.74-5.06,6.13-5.06,6.13,2.27,6.13,5.06Z"/>
            <path class="cls-50" d="m109.69,477.28c0,2.69-2.64,4.88-5.9,4.88s-5.91-2.18-5.91-4.88,2.64-4.88,5.91-4.88,5.9,2.18,5.9,4.88Z"/>
            <path class="cls-85" d="m109.47,477.28c0,2.59-2.54,4.7-5.68,4.7s-5.69-2.1-5.69-4.7,2.54-4.69,5.69-4.69,5.68,2.1,5.68,4.69Z"/>
          </g>
          <g>
            <path class="cls-20" d="m110.69,477.28c0,3.15-3.09,5.7-6.9,5.7s-6.9-2.55-6.9-5.7,3.09-5.7,6.9-5.7,6.9,2.55,6.9,5.7Z"/>
            <path class="cls-60" d="m110.5,477.28c0,3.06-3,5.54-6.71,5.54s-6.71-2.48-6.71-5.54,3-5.54,6.71-5.54,6.71,2.48,6.71,5.54Z"/>
            <path class="cls-45" d="m110.31,477.28c0,2.98-2.92,5.39-6.52,5.39s-6.53-2.41-6.53-5.39,2.92-5.38,6.53-5.38,6.52,2.41,6.52,5.38Z"/>
            <path class="cls-103" d="m110.12,477.28c0,2.89-2.84,5.23-6.33,5.23s-6.34-2.34-6.34-5.23,2.84-5.23,6.34-5.23,6.33,2.34,6.33,5.23Z"/>
            <path class="cls-101" d="m109.94,477.28c0,2.8-2.75,5.08-6.15,5.08s-6.15-2.27-6.15-5.08,2.75-5.07,6.15-5.07,6.15,2.27,6.15,5.07Z"/>
            <path class="cls-87" d="m109.75,477.28c0,2.72-2.67,4.92-5.96,4.92s-5.96-2.2-5.96-4.92,2.67-4.92,5.96-4.92,5.96,2.2,5.96,4.92Z"/>
            <path class="cls-66" d="m109.56,477.28c0,2.63-2.58,4.77-5.77,4.77s-5.77-2.13-5.77-4.77,2.58-4.76,5.77-4.76,5.77,2.13,5.77,4.76Z"/>
            <path class="cls-53" d="m109.37,477.28c0,2.55-2.5,4.61-5.58,4.61s-5.59-2.06-5.59-4.61,2.5-4.61,5.59-4.61,5.58,2.06,5.58,4.61Z"/>
            <path class="cls-71" d="m109.18,477.28c0,2.46-2.42,4.46-5.4,4.46s-5.4-2-5.4-4.46,2.42-4.45,5.4-4.45,5.4,2,5.4,4.45Z"/>
            <path class="cls-57" d="m109,477.28c0,2.38-2.33,4.3-5.21,4.3s-5.21-1.93-5.21-4.3,2.33-4.3,5.21-4.3,5.21,1.93,5.21,4.3Z"/>
            <path class="cls-50" d="m108.81,477.28c0,2.29-2.25,4.15-5.02,4.15s-5.02-1.86-5.02-4.15,2.25-4.14,5.02-4.14,5.02,1.86,5.02,4.14Z"/>
            <path class="cls-85" d="m108.62,477.28c0,2.21-2.16,3.99-4.83,3.99s-4.84-1.79-4.84-3.99,2.16-3.99,4.84-3.99,4.83,1.79,4.83,3.99Z"/>
          </g>
          <g>
            <rect class="cls-20" x="103.13" y="471.58" width="1.32" height="11.39"/>
            <rect class="cls-20" x="96.89" y="476.73" width="13.8" height="1.09"/>
          </g>
        </g>
        <g>
          <g>
            <path class="cls-99" d="m120.72,441.99c.38.99-.28,2.05-1.48,2.37l-30.69,8.05c-1.2.32-2.49-.23-2.87-1.22l-.1-.27c-.38-.99.28-2.05,1.48-2.37l30.69-8.05c1.2-.32,2.49.23,2.87,1.23l.1.27Z"/>
            <path class="cls-26" d="m119.57,442.25c.28.72-.2,1.48-1.07,1.71l-29.62,7.77c-.87.23-1.8-.17-2.08-.89l-.08-.2c-.27-.72.21-1.49,1.07-1.71l29.62-7.77c.87-.23,1.8.17,2.08.89l.07.2Z"/>
          </g>
          <g>
            <path class="cls-95" d="m108.16,445.13c.88,2.29-.65,4.73-3.42,5.45-2.77.73-5.72-.54-6.6-2.82-.88-2.29.65-4.73,3.42-5.45,2.77-.73,5.72.54,6.6,2.82Z"/>
            <path class="cls-39" d="m107.98,445.18c.85,2.2-.63,4.56-3.3,5.25-2.67.7-5.52-.52-6.36-2.72-.85-2.2.63-4.56,3.3-5.25,2.67-.7,5.51.52,6.36,2.72Z"/>
            <path class="cls-86" d="m107.8,445.23c.81,2.12-.6,4.38-3.17,5.06-2.57.67-5.31-.5-6.12-2.62-.82-2.12.6-4.38,3.17-5.06,2.57-.67,5.31.5,6.12,2.62Z"/>
            <path class="cls-22" d="m107.62,445.28c.78,2.04-.58,4.21-3.05,4.86-2.47.65-5.1-.48-5.89-2.52-.79-2.04.58-4.21,3.05-4.86,2.47-.65,5.1.48,5.89,2.52Z"/>
            <path class="cls-74" d="m107.44,445.33c.75,1.96-.56,4.04-2.93,4.66-2.37.62-4.9-.46-5.65-2.41-.75-1.95.56-4.04,2.93-4.66,2.37-.62,4.89.46,5.65,2.41Z"/>
            <path class="cls-34" d="m107.26,445.37c.72,1.87-.53,3.87-2.8,4.47-2.27.6-4.69-.44-5.41-2.31-.72-1.87.53-3.87,2.8-4.47,2.27-.59,4.69.44,5.41,2.31Z"/>
            <path class="cls-112" d="m107.07,445.42c.69,1.79-.51,3.7-2.68,4.27-2.17.57-4.48-.42-5.17-2.21-.69-1.79.51-3.7,2.68-4.27,2.17-.57,4.48.42,5.17,2.21Z"/>
            <path class="cls-83" d="m106.89,445.47c.66,1.71-.49,3.53-2.56,4.07-2.07.54-4.27-.4-4.93-2.11-.66-1.71.49-3.53,2.56-4.07,2.07-.54,4.27.4,4.93,2.11Z"/>
            <path class="cls-68" d="m106.71,445.52c.62,1.63-.46,3.36-2.43,3.88-1.97.52-4.07-.38-4.69-2.01-.63-1.62.46-3.36,2.43-3.88,1.97-.51,4.07.38,4.69,2.01Z"/>
            <path class="cls-92" d="m106.53,445.56c.59,1.54-.44,3.19-2.31,3.68-1.87.49-3.86-.36-4.45-1.91-.59-1.54.44-3.19,2.31-3.68,1.87-.49,3.86.36,4.45,1.91Z"/>
            <path class="cls-91" d="m106.35,445.61c.56,1.46-.42,3.02-2.19,3.48-1.77.46-3.65-.34-4.22-1.8-.56-1.46.41-3.02,2.19-3.48,1.77-.46,3.65.34,4.22,1.8Z"/>
            <path class="cls-20" d="m106.17,445.66c.53,1.38-.4,2.85-2.06,3.29-1.67.44-3.45-.32-3.98-1.7-.53-1.37.39-2.85,2.06-3.29,1.67-.44,3.45.32,3.98,1.7Z"/>
          </g>
          <g>
            <path class="cls-99" d="m120.8,483.76c.38.99-.28,2.05-1.48,2.37l-1.65.43c-1.2.32-2.49-.23-2.87-1.23l-14.78-38.44c-.38-.99.28-2.05,1.48-2.37l1.65-.43c1.2-.32,2.49.23,2.87,1.23l14.78,38.44Z"/>
            <path class="cls-69" d="m119.58,483.41c.26.66-.19,1.37-.99,1.59l-1.11.29c-.81.21-1.67-.16-1.92-.82l-14.52-37.75c-.26-.66.19-1.37,1-1.59l1.11-.29c.8-.21,1.67.16,1.92.82l14.52,37.75Z"/>
          </g>
          <g>
            <g>
              <g>
                <path class="cls-95" d="m91.22,449.58c.74,1.92-.55,3.97-2.87,4.58-2.32.61-4.8-.45-5.54-2.37-.74-1.92.55-3.97,2.87-4.58,2.32-.61,4.81.45,5.54,2.37Z"/>
                <path class="cls-39" d="m91.07,449.62c.71,1.85-.53,3.83-2.77,4.42-2.24.59-4.64-.44-5.35-2.29-.71-1.85.53-3.83,2.77-4.42,2.24-.59,4.64.44,5.35,2.29Z"/>
                <path class="cls-86" d="m90.92,449.65c.69,1.79-.51,3.69-2.67,4.26-2.16.57-4.47-.42-5.16-2.21-.69-1.79.51-3.69,2.67-4.26,2.16-.57,4.47.42,5.16,2.21Z"/>
                <path class="cls-22" d="m90.78,449.69c.66,1.72-.49,3.56-2.57,4.1-2.08.54-4.3-.41-4.97-2.12-.66-1.72.49-3.56,2.57-4.1,2.08-.54,4.31.41,4.97,2.12Z"/>
                <path class="cls-74" d="m90.63,449.73c.64,1.65-.47,3.42-2.47,3.94-2,.52-4.14-.39-4.77-2.04-.64-1.65.47-3.42,2.47-3.94,2-.52,4.14.39,4.78,2.04Z"/>
                <path class="cls-34" d="m90.49,449.77c.61,1.59-.45,3.28-2.37,3.79-1.92.5-3.97-.37-4.58-1.96-.61-1.59.45-3.28,2.37-3.79,1.92-.5,3.97.37,4.58,1.96Z"/>
                <path class="cls-112" d="m90.34,449.81c.58,1.52-.43,3.14-2.28,3.63-1.84.48-3.81-.36-4.39-1.88-.58-1.52.43-3.14,2.28-3.63,1.84-.48,3.81.36,4.39,1.88Z"/>
                <path class="cls-83" d="m90.2,449.85c.56,1.45-.41,3.01-2.18,3.47-1.76.46-3.64-.34-4.2-1.8-.56-1.45.42-3.01,2.18-3.47,1.76-.46,3.64.34,4.2,1.8Z"/>
                <path class="cls-68" d="m90.05,449.88c.53,1.39-.39,2.87-2.08,3.31-1.68.44-3.47-.33-4.01-1.71-.53-1.39.4-2.87,2.08-3.31,1.68-.44,3.47.33,4.01,1.71Z"/>
                <path class="cls-92" d="m89.9,449.92c.51,1.32-.38,2.73-1.98,3.15-1.6.42-3.31-.31-3.82-1.63-.51-1.32.38-2.73,1.98-3.15,1.6-.42,3.31.31,3.81,1.63Z"/>
                <path class="cls-91" d="m89.76,449.96c.48,1.25-.36,2.59-1.88,2.99-1.52.4-3.14-.3-3.62-1.55-.48-1.25.36-2.59,1.88-2.99,1.52-.4,3.14.3,3.62,1.55Z"/>
                <path class="cls-20" d="m89.61,450c.46,1.19-.34,2.45-1.78,2.83-1.44.38-2.97-.28-3.43-1.47-.46-1.19.34-2.45,1.78-2.83,1.44-.38,2.98.28,3.43,1.47Z"/>
              </g>
              <path class="cls-27" d="m89.61,450c.46,1.19-.34,2.45-1.78,2.83-1.44.38-2.97-.28-3.43-1.47-.46-1.19.34-2.45,1.78-2.83,1.44-.38,2.98.28,3.43,1.47Z"/>
            </g>
            <g>
              <g>
                <path class="cls-95" d="m123.5,441.12c.74,1.92-.55,3.97-2.87,4.58-2.32.61-4.81-.45-5.54-2.37s.55-3.97,2.87-4.58c2.33-.61,4.81.45,5.54,2.37Z"/>
                <path class="cls-39" d="m123.35,441.15c.71,1.85-.53,3.83-2.77,4.42-2.24.59-4.64-.44-5.35-2.29s.53-3.83,2.77-4.42c2.24-.59,4.64.44,5.35,2.29Z"/>
                <path class="cls-86" d="m123.21,441.19c.69,1.78-.51,3.69-2.67,4.26-2.16.57-4.47-.42-5.16-2.21s.51-3.69,2.67-4.26c2.16-.57,4.47.42,5.16,2.21Z"/>
                <path class="cls-22" d="m123.06,441.23c.66,1.72-.49,3.55-2.57,4.1-2.08.54-4.31-.4-4.97-2.12s.49-3.56,2.57-4.1c2.08-.55,4.31.4,4.97,2.12Z"/>
                <path class="cls-74" d="m122.92,441.27c.64,1.65-.47,3.42-2.47,3.94-2,.52-4.14-.39-4.78-2.04s.47-3.42,2.47-3.94c2-.53,4.14.39,4.78,2.04Z"/>
                <path class="cls-34" d="m122.77,441.31c.61,1.59-.45,3.28-2.37,3.78-1.92.5-3.97-.37-4.58-1.96s.45-3.28,2.37-3.78c1.92-.5,3.97.37,4.58,1.96Z"/>
                <path class="cls-112" d="m122.62,441.34c.58,1.52-.43,3.14-2.28,3.63-1.84.48-3.81-.36-4.39-1.88s.43-3.14,2.28-3.63c1.84-.48,3.81.36,4.39,1.88Z"/>
                <path class="cls-83" d="m122.48,441.38c.56,1.45-.42,3.01-2.18,3.47-1.76.46-3.64-.34-4.2-1.8s.42-3.01,2.18-3.47c1.76-.46,3.64.34,4.2,1.8Z"/>
                <path class="cls-68" d="m122.33,441.42c.53,1.39-.4,2.87-2.08,3.31-1.68.44-3.47-.33-4.01-1.71s.4-2.87,2.08-3.31c1.68-.44,3.47.33,4.01,1.71Z"/>
                <path class="cls-92" d="m122.19,441.46c.51,1.32-.38,2.73-1.98,3.15-1.6.42-3.31-.31-3.82-1.63s.38-2.73,1.98-3.15c1.6-.42,3.31.31,3.82,1.63Z"/>
                <path class="cls-91" d="m122.04,441.5c.48,1.25-.36,2.59-1.88,2.99-1.52.4-3.14-.3-3.62-1.55s.36-2.59,1.88-2.99c1.52-.4,3.14.3,3.62,1.55Z"/>
                <path class="cls-20" d="m121.9,441.53c.46,1.19-.34,2.46-1.78,2.83-1.44.38-2.98-.28-3.43-1.47s.34-2.45,1.78-2.83c1.44-.38,2.98.28,3.43,1.47Z"/>
              </g>
              <path class="cls-118" d="m121.9,441.53c.46,1.19-.34,2.46-1.78,2.83-1.44.38-2.98-.28-3.43-1.47s.34-2.45,1.78-2.83c1.44-.38,2.98.28,3.43,1.47Z"/>
            </g>
          </g>
        </g>
        <rect class="cls-6" x="161.97" y="438.21" width="115.59" height="98.5"/>
        <g>
          <path class="cls-67" d="m267.63,520.76c0,6.26-6.15,11.34-13.74,11.34h-68.26c-7.59,0-13.74-5.08-13.74-11.34v-56.36c0-6.26,6.15-11.34,13.74-11.34h68.26c7.58,0,13.74,5.08,13.74,11.34v56.36Z"/>
          <path class="cls-115" d="m266.7,520.21c0,6.14-6.03,11.12-13.47,11.12h-66.93c-7.44,0-13.47-4.98-13.47-11.12v-55.26c0-6.14,6.03-11.12,13.47-11.12h66.93c7.44,0,13.47,4.98,13.47,11.12v55.26Z"/>
          <path class="cls-83" d="m265.77,519.66c0,6.02-5.91,10.9-13.2,10.9h-65.6c-7.29,0-13.2-4.88-13.2-10.9v-54.17c0-6.02,5.91-10.9,13.2-10.9h65.6c7.29,0,13.2,4.88,13.2,10.9v54.17Z"/>
          <path class="cls-97" d="m264.83,519.11c0,5.9-5.79,10.68-12.93,10.68h-64.27c-7.14,0-12.93-4.78-12.93-10.68v-53.07c0-5.9,5.79-10.68,12.93-10.68h64.27c7.14,0,12.93,4.78,12.93,10.68v53.07Z"/>
          <path class="cls-100" d="m263.9,518.56c0,5.78-5.67,10.46-12.67,10.46h-62.94c-7,0-12.67-4.68-12.67-10.46v-51.97c0-5.78,5.67-10.46,12.67-10.46h62.94c6.99,0,12.67,4.68,12.67,10.46v51.97Z"/>
          <path class="cls-56" d="m262.97,518.01c0,5.65-5.55,10.24-12.4,10.24h-61.61c-6.85,0-12.4-4.58-12.4-10.24v-50.87c0-5.65,5.55-10.24,12.4-10.24h61.61c6.85,0,12.4,4.58,12.4,10.24v50.87Z"/>
          <path class="cls-21" d="m262.04,517.46c0,5.53-5.43,10.02-12.13,10.02h-60.28c-6.7,0-12.13-4.48-12.13-10.02v-49.78c0-5.53,5.43-10.02,12.13-10.02h60.28c6.7,0,12.13,4.49,12.13,10.02v49.78Z"/>
          <path class="cls-54" d="m261.11,516.91c0,5.41-5.31,9.79-11.86,9.79h-58.96c-6.55,0-11.86-4.39-11.86-9.79v-48.68c0-5.41,5.31-9.8,11.86-9.8h58.96c6.55,0,11.86,4.39,11.86,9.8v48.68Z"/>
          <path class="cls-31" d="m260.17,516.37c0,5.29-5.19,9.57-11.6,9.57h-57.63c-6.4,0-11.6-4.29-11.6-9.57v-47.58c0-5.29,5.19-9.58,11.6-9.58h57.63c6.4,0,11.6,4.29,11.6,9.58v47.58Z"/>
          <path class="cls-55" d="m259.24,515.82c0,5.17-5.07,9.35-11.33,9.35h-56.3c-6.26,0-11.33-4.19-11.33-9.35v-46.48c0-5.17,5.07-9.36,11.33-9.36h56.3c6.26,0,11.33,4.19,11.33,9.36v46.48Z"/>
          <path class="cls-3" d="m258.31,515.27c0,5.04-4.95,9.13-11.06,9.13h-54.97c-6.11,0-11.06-4.09-11.06-9.13v-45.39c0-5.04,4.95-9.13,11.06-9.13h54.97c6.11,0,11.06,4.09,11.06,9.13v45.39Z"/>
          <path class="cls-20" d="m257.38,514.72c0,4.92-4.83,8.91-10.79,8.91h-53.64c-5.96,0-10.79-3.99-10.79-8.91v-44.29c0-4.92,4.83-8.91,10.79-8.91h53.64c5.96,0,10.79,3.99,10.79,8.91v44.29Z"/>
        </g>
        <path class="cls-19" d="m257.38,514.72c0,4.92-4.83,8.91-10.79,8.91h-53.64c-5.96,0-10.79-3.99-10.79-8.91v-44.29c0-4.92,4.83-8.91,10.79-8.91h53.64c5.96,0,10.79,3.99,10.79,8.91v44.29Z"/>
        <g>
          <g>
            <ellipse class="cls-20" cx="219.76" cy="477.28" rx="8.11" ry="6.7"/>
            <path class="cls-60" d="m227.66,477.28c0,3.6-3.53,6.52-7.89,6.52s-7.89-2.92-7.89-6.52,3.53-6.52,7.89-6.52,7.89,2.92,7.89,6.52Z"/>
            <path class="cls-45" d="m227.44,477.28c0,3.5-3.44,6.34-7.67,6.34s-7.67-2.84-7.67-6.34,3.44-6.33,7.67-6.33,7.67,2.84,7.67,6.33Z"/>
            <path class="cls-103" d="m227.22,477.28c0,3.4-3.34,6.15-7.45,6.15s-7.45-2.75-7.45-6.15,3.34-6.15,7.45-6.15,7.45,2.75,7.45,6.15Z"/>
            <path class="cls-101" d="m226.99,477.28c0,3.3-3.24,5.97-7.23,5.97s-7.23-2.67-7.23-5.97,3.24-5.97,7.23-5.97,7.23,2.67,7.23,5.97Z"/>
            <path class="cls-87" d="m226.77,477.28c0,3.2-3.14,5.79-7.01,5.79s-7.01-2.59-7.01-5.79,3.14-5.79,7.01-5.79,7.01,2.59,7.01,5.79Z"/>
            <path class="cls-66" d="m226.55,477.28c0,3.1-3.04,5.61-6.79,5.61s-6.79-2.51-6.79-5.61,3.04-5.61,6.79-5.61,6.79,2.51,6.79,5.61Z"/>
            <path class="cls-53" d="m226.33,477.28c0,3-2.94,5.42-6.57,5.42s-6.57-2.43-6.57-5.42,2.94-5.42,6.57-5.42,6.57,2.43,6.57,5.42Z"/>
            <path class="cls-71" d="m226.11,477.28c0,2.9-2.84,5.24-6.35,5.24s-6.35-2.35-6.35-5.24,2.84-5.24,6.35-5.24,6.35,2.35,6.35,5.24Z"/>
            <path class="cls-57" d="m225.89,477.28c0,2.79-2.74,5.06-6.13,5.06s-6.13-2.27-6.13-5.06,2.74-5.06,6.13-5.06,6.13,2.27,6.13,5.06Z"/>
            <path class="cls-50" d="m225.67,477.28c0,2.69-2.64,4.88-5.91,4.88s-5.9-2.18-5.9-4.88,2.64-4.88,5.9-4.88,5.91,2.18,5.91,4.88Z"/>
            <path class="cls-85" d="m225.45,477.28c0,2.59-2.54,4.7-5.69,4.7s-5.68-2.1-5.68-4.7,2.54-4.69,5.68-4.69,5.69,2.1,5.69,4.69Z"/>
          </g>
          <g>
            <path class="cls-20" d="m226.66,477.28c0,3.15-3.09,5.7-6.9,5.7s-6.9-2.55-6.9-5.7,3.09-5.7,6.9-5.7,6.9,2.55,6.9,5.7Z"/>
            <path class="cls-60" d="m226.48,477.28c0,3.06-3,5.54-6.71,5.54s-6.71-2.48-6.71-5.54,3-5.54,6.71-5.54,6.71,2.48,6.71,5.54Z"/>
            <path class="cls-45" d="m226.29,477.28c0,2.98-2.92,5.39-6.53,5.39s-6.52-2.41-6.52-5.39,2.92-5.38,6.52-5.38,6.53,2.41,6.53,5.38Z"/>
            <path class="cls-103" d="m226.1,477.28c0,2.89-2.84,5.23-6.34,5.23s-6.33-2.34-6.33-5.23,2.84-5.23,6.33-5.23,6.34,2.34,6.34,5.23Z"/>
            <path class="cls-101" d="m225.91,477.28c0,2.8-2.75,5.08-6.15,5.08s-6.15-2.27-6.15-5.08,2.75-5.07,6.15-5.07,6.15,2.27,6.15,5.07Z"/>
            <path class="cls-87" d="m225.73,477.28c0,2.72-2.67,4.92-5.96,4.92s-5.96-2.2-5.96-4.92,2.67-4.92,5.96-4.92,5.96,2.2,5.96,4.92Z"/>
            <path class="cls-66" d="m225.54,477.28c0,2.63-2.58,4.77-5.77,4.77s-5.77-2.13-5.77-4.77,2.58-4.76,5.77-4.76,5.77,2.13,5.77,4.76Z"/>
            <path class="cls-53" d="m225.35,477.28c0,2.55-2.5,4.61-5.59,4.61s-5.58-2.06-5.58-4.61,2.5-4.61,5.58-4.61,5.59,2.06,5.59,4.61Z"/>
            <path class="cls-71" d="m225.16,477.28c0,2.46-2.42,4.46-5.4,4.46s-5.4-2-5.4-4.46,2.42-4.45,5.4-4.45,5.4,2,5.4,4.45Z"/>
            <path class="cls-57" d="m224.97,477.28c0,2.38-2.33,4.3-5.21,4.3s-5.21-1.93-5.21-4.3,2.33-4.3,5.21-4.3,5.21,1.93,5.21,4.3Z"/>
            <path class="cls-50" d="m224.79,477.28c0,2.29-2.25,4.15-5.02,4.15s-5.02-1.86-5.02-4.15,2.25-4.14,5.02-4.14,5.02,1.86,5.02,4.14Z"/>
            <path class="cls-85" d="m224.6,477.28c0,2.21-2.16,3.99-4.84,3.99s-4.83-1.79-4.83-3.99,2.16-3.99,4.83-3.99,4.84,1.79,4.84,3.99Z"/>
          </g>
          <g>
            <rect class="cls-20" x="219.1" y="471.58" width="1.32" height="11.39"/>
            <rect class="cls-20" x="212.87" y="476.73" width="13.8" height="1.09"/>
          </g>
        </g>
        <g>
          <g>
            <path class="cls-99" d="m236.29,456.79c-.8.81-2.24.93-3.22.27l-24.98-16.74c-.98-.65-1.12-1.84-.32-2.64l.22-.22c.8-.81,2.24-.93,3.22-.27l24.98,16.74c.98.66,1.12,1.84.32,2.64l-.22.22Z"/>
            <path class="cls-30" d="m235.4,456.14c-.58.58-1.62.67-2.33.2l-24.11-16.16c-.71-.47-.82-1.33-.23-1.91l.16-.16c.58-.58,1.62-.67,2.33-.2l24.11,16.16c.71.48.81,1.33.23,1.91l-.16.16Z"/>
          </g>
          <g>
            <path class="cls-95" d="m226.22,449.85c-1.84,1.86-5.16,2.14-7.42.63s-2.58-4.24-.74-6.09c1.85-1.86,5.16-2.14,7.42-.63,2.25,1.51,2.58,4.24.74,6.1Z"/>
            <path class="cls-39" d="m226.07,449.76c-1.78,1.79-4.98,2.06-7.15.6-2.17-1.46-2.49-4.09-.72-5.87,1.78-1.79,4.98-2.06,7.15-.61,2.17,1.46,2.49,4.09.72,5.87Z"/>
            <path class="cls-86" d="m225.92,449.66c-1.71,1.72-4.79,1.98-6.88.58-2.09-1.4-2.4-3.93-.69-5.65,1.71-1.72,4.79-1.98,6.88-.58,2.09,1.4,2.4,3.93.69,5.65Z"/>
            <path class="cls-22" d="m225.78,449.56c-1.64,1.66-4.6,1.9-6.61.56-2.01-1.35-2.3-3.78-.66-5.43,1.65-1.66,4.6-1.91,6.61-.56,2.01,1.35,2.3,3.78.66,5.43Z"/>
            <path class="cls-74" d="m225.63,449.46c-1.57,1.59-4.42,1.83-6.34.54-1.93-1.29-2.21-3.63-.63-5.21,1.58-1.59,4.42-1.83,6.34-.54,1.93,1.29,2.21,3.63.63,5.21Z"/>
            <path class="cls-34" d="m225.48,449.36c-1.51,1.52-4.23,1.75-6.08.51-1.84-1.24-2.12-3.47-.61-4.99,1.51-1.52,4.23-1.75,6.08-.52,1.84,1.24,2.12,3.47.61,4.99Z"/>
            <path class="cls-112" d="m225.33,449.26c-1.44,1.45-4.04,1.67-5.81.49-1.76-1.18-2.02-3.32-.58-4.77,1.45-1.45,4.04-1.67,5.81-.49,1.76,1.18,2.02,3.32.58,4.77Z"/>
            <path class="cls-83" d="m225.19,449.16c-1.37,1.39-3.86,1.6-5.54.47-1.68-1.13-1.93-3.17-.55-4.55,1.38-1.39,3.86-1.6,5.54-.47,1.68,1.13,1.93,3.17.55,4.55Z"/>
            <path class="cls-68" d="m225.04,449.06c-1.31,1.32-3.67,1.52-5.27.45-1.6-1.07-1.84-3.01-.53-4.33,1.31-1.32,3.67-1.52,5.27-.45,1.6,1.07,1.84,3.01.53,4.33Z"/>
            <path class="cls-92" d="m224.89,448.96c-1.24,1.25-3.48,1.44-5,.42-1.52-1.02-1.74-2.86-.5-4.11,1.25-1.25,3.48-1.44,5-.42,1.52,1.02,1.74,2.86.5,4.11Z"/>
            <path class="cls-91" d="m224.74,448.86c-1.17,1.19-3.3,1.36-4.74.4-1.44-.96-1.65-2.71-.47-3.89,1.18-1.19,3.3-1.37,4.73-.4,1.44.96,1.65,2.71.47,3.89Z"/>
            <path class="cls-20" d="m224.6,448.77c-1.11,1.12-3.11,1.29-4.47.38-1.36-.91-1.56-2.55-.45-3.67,1.11-1.12,3.11-1.29,4.47-.38s1.56,2.55.45,3.67Z"/>
          </g>
          <g>
            <path class="cls-99" d="m193.86,479.7c-.8.8-2.24.93-3.22.27l-1.35-.9c-.98-.66-1.12-1.84-.32-2.65l31.01-31.22c.8-.81,2.24-.93,3.22-.27l1.35.9c.98.66,1.12,1.84.33,2.64l-31.01,31.22Z"/>
            <path class="cls-114" d="m193.54,478.66c-.53.54-1.5.62-2.16.18l-.9-.6c-.65-.44-.75-1.23-.22-1.77l30.45-30.66c.54-.54,1.5-.62,2.16-.18l.9.6c.65.44.75,1.23.22,1.77l-30.45,30.66Z"/>
          </g>
          <g>
            <g>
              <g>
                <path class="cls-95" d="m212.43,440.61c-1.55,1.56-4.33,1.8-6.22.53-1.89-1.27-2.17-3.56-.63-5.11,1.55-1.56,4.33-1.79,6.23-.53,1.89,1.27,2.17,3.56.62,5.11Z"/>
                <path class="cls-39" d="m212.31,440.53c-1.49,1.5-4.18,1.73-6.01.51-1.83-1.22-2.1-3.43-.6-4.94,1.5-1.5,4.18-1.73,6.01-.51,1.82,1.22,2.09,3.43.6,4.94Z"/>
                <path class="cls-86" d="m212.19,440.45c-1.44,1.45-4.03,1.67-5.79.49-1.76-1.18-2.02-3.31-.58-4.76,1.44-1.45,4.03-1.67,5.8-.49,1.76,1.18,2.02,3.31.58,4.76Z"/>
                <path class="cls-22" d="m212.07,440.37c-1.39,1.4-3.88,1.61-5.58.47-1.7-1.14-1.95-3.19-.56-4.58,1.39-1.4,3.88-1.61,5.58-.47,1.69,1.14,1.94,3.19.56,4.58Z"/>
                <path class="cls-74" d="m211.95,440.29c-1.33,1.34-3.73,1.55-5.36.45-1.63-1.09-1.87-3.06-.54-4.41,1.33-1.34,3.73-1.54,5.37-.45,1.63,1.09,1.87,3.06.53,4.41Z"/>
                <path class="cls-34" d="m211.83,440.21c-1.28,1.29-3.58,1.48-5.15.43-1.57-1.05-1.8-2.94-.52-4.23,1.28-1.29,3.58-1.48,5.15-.43,1.56,1.05,1.79,2.94.51,4.23Z"/>
                <path class="cls-112" d="m211.72,440.13c-1.23,1.23-3.43,1.42-4.93.42-1.5-1-1.72-2.82-.5-4.05,1.23-1.23,3.43-1.42,4.93-.42,1.5,1,1.72,2.82.49,4.05Z"/>
                <path class="cls-83" d="m211.6,440.05c-1.17,1.18-3.28,1.36-4.71.4-1.44-.96-1.65-2.69-.47-3.88,1.17-1.18,3.28-1.36,4.72-.4,1.43.96,1.64,2.69.47,3.88Z"/>
                <path class="cls-68" d="m211.48,439.98c-1.12,1.13-3.13,1.3-4.5.38-1.37-.92-1.57-2.57-.45-3.7,1.12-1.13,3.13-1.3,4.5-.38,1.37.92,1.57,2.57.45,3.7Z"/>
                <path class="cls-92" d="m211.36,439.9c-1.06,1.07-2.98,1.23-4.28.36-1.3-.87-1.5-2.45-.43-3.52,1.07-1.07,2.98-1.23,4.29-.36,1.3.87,1.49,2.45.43,3.52Z"/>
                <path class="cls-91" d="m211.24,439.82c-1.01,1.02-2.83,1.17-4.07.34-1.24-.83-1.42-2.33-.41-3.34,1.01-1.02,2.83-1.17,4.07-.34,1.24.83,1.42,2.33.41,3.34Z"/>
                <path class="cls-20" d="m211.12,439.74c-.96.96-2.68,1.11-3.85.32-1.17-.79-1.35-2.2-.39-3.17.96-.96,2.68-1.11,3.86-.32,1.17.79,1.34,2.2.38,3.17Z"/>
              </g>
              <path class="cls-27" d="m211.12,439.74c-.96.96-2.68,1.11-3.85.32-1.17-.79-1.35-2.2-.39-3.17.96-.96,2.68-1.11,3.86-.32,1.17.79,1.34,2.2.38,3.17Z"/>
            </g>
            <g>
              <g>
                <path class="cls-95" d="m238.7,458.22c-1.55,1.56-4.33,1.8-6.22.53-1.89-1.27-2.17-3.56-.63-5.11,1.55-1.56,4.33-1.8,6.23-.53,1.89,1.27,2.17,3.56.62,5.11Z"/>
                <path class="cls-39" d="m238.58,458.14c-1.49,1.5-4.18,1.73-6.01.51-1.83-1.22-2.1-3.43-.6-4.94,1.5-1.5,4.18-1.73,6.01-.51,1.82,1.22,2.09,3.43.6,4.94Z"/>
                <path class="cls-86" d="m238.46,458.06c-1.44,1.45-4.03,1.67-5.79.49-1.76-1.18-2.02-3.31-.58-4.76,1.44-1.45,4.03-1.67,5.8-.49,1.76,1.18,2.02,3.31.58,4.76Z"/>
                <path class="cls-22" d="m238.34,457.98c-1.39,1.4-3.88,1.61-5.58.47-1.7-1.14-1.95-3.19-.56-4.58,1.39-1.4,3.88-1.61,5.58-.47,1.69,1.14,1.94,3.19.56,4.58Z"/>
                <path class="cls-74" d="m238.23,457.9c-1.33,1.34-3.73,1.55-5.36.45-1.63-1.09-1.87-3.06-.54-4.41,1.33-1.34,3.73-1.55,5.37-.45,1.63,1.09,1.87,3.06.53,4.41Z"/>
                <path class="cls-34" d="m238.11,457.82c-1.28,1.29-3.58,1.48-5.15.43-1.57-1.05-1.8-2.94-.52-4.23,1.28-1.29,3.58-1.48,5.15-.43,1.56,1.05,1.79,2.94.51,4.23Z"/>
                <path class="cls-112" d="m237.99,457.74c-1.22,1.23-3.43,1.42-4.93.42-1.5-1-1.72-2.82-.5-4.05,1.23-1.23,3.43-1.42,4.93-.42,1.5,1,1.72,2.82.49,4.05Z"/>
                <path class="cls-83" d="m237.87,457.66c-1.17,1.18-3.28,1.36-4.72.4-1.44-.96-1.65-2.69-.47-3.88,1.17-1.18,3.28-1.36,4.72-.4,1.43.96,1.64,2.69.47,3.88Z"/>
                <path class="cls-68" d="m237.75,457.58c-1.12,1.13-3.13,1.3-4.5.38-1.37-.92-1.57-2.57-.45-3.7,1.12-1.13,3.13-1.3,4.5-.38,1.37.92,1.57,2.57.45,3.7Z"/>
                <path class="cls-92" d="m237.63,457.5c-1.06,1.07-2.98,1.23-4.28.36-1.3-.87-1.49-2.45-.43-3.52,1.07-1.07,2.98-1.23,4.29-.36,1.3.87,1.49,2.45.43,3.52Z"/>
                <path class="cls-91" d="m237.51,457.43c-1.01,1.02-2.83,1.17-4.07.34-1.24-.83-1.42-2.33-.41-3.34,1.01-1.02,2.83-1.17,4.07-.34,1.24.83,1.42,2.33.41,3.34Z"/>
                <path class="cls-20" d="m237.4,457.35c-.96.96-2.68,1.11-3.85.32-1.17-.79-1.34-2.2-.39-3.17.96-.96,2.68-1.11,3.86-.32,1.17.79,1.34,2.2.38,3.17Z"/>
              </g>
              <path class="cls-118" d="m237.4,457.35c-.96.96-2.68,1.11-3.85.32-1.17-.79-1.34-2.2-.39-3.17.96-.96,2.68-1.11,3.86-.32,1.17.79,1.34,2.2.38,3.17Z"/>
            </g>
          </g>
        </g>
        <rect class="cls-24" x="45.61" y="537.02" width="232.33" height="11.04"/>
      </g>
      <g class="cls-25">
        <polygon class="cls-18" points="86.37 597.94 86.37 705.96 86.37 717.7 199.25 717.7 199.25 705.96 199.25 597.94 86.37 597.94"/>
        <polygon class="cls-75" points="87.07 597.8 87.07 705.82 87.07 717.55 199.96 717.55 199.96 705.82 199.96 597.8 87.07 597.8"/>
        <polygon class="cls-77" points="87.77 597.66 87.77 705.67 87.77 717.41 200.66 717.41 200.66 705.67 200.66 597.66 87.77 597.66"/>
        <polygon class="cls-120" points="88.47 597.52 88.47 705.53 88.47 717.27 201.36 717.27 201.36 705.53 201.36 597.52 88.47 597.52"/>
        <polygon class="cls-17" points="89.18 597.37 89.18 705.39 89.18 717.13 202.06 717.13 202.06 705.39 202.06 597.37 89.18 597.37"/>
        <polygon class="cls-63" points="89.88 597.23 89.88 705.24 89.88 716.98 202.76 716.98 202.76 705.24 202.76 597.23 89.88 597.23"/>
        <polygon class="cls-73" points="90.58 597.09 90.58 705.1 90.58 716.84 203.46 716.84 203.46 705.1 203.46 597.09 90.58 597.09"/>
        <polygon class="cls-43" points="91.28 596.95 91.28 704.96 91.28 716.7 204.17 716.7 204.17 704.96 204.17 596.95 91.28 596.95"/>
        <polygon class="cls-82" points="91.98 596.8 91.98 704.82 91.98 716.56 204.87 716.56 204.87 704.82 204.87 596.8 91.98 596.8"/>
        <polygon class="cls-61" points="92.68 596.66 92.68 704.67 92.68 716.41 205.57 716.41 205.57 704.67 205.57 596.66 92.68 596.66"/>
        <polygon class="cls-106" points="93.39 596.52 93.39 704.53 93.39 716.27 206.27 716.27 206.27 704.53 206.27 596.52 93.39 596.52"/>
        <polygon class="cls-46" points="94.09 596.37 94.09 704.39 94.09 716.13 206.97 716.13 206.97 704.39 206.97 596.37 94.09 596.37"/>
        <polygon class="cls-70" points="94.79 596.23 94.79 704.24 94.79 715.98 207.67 715.98 207.67 704.24 207.67 596.23 94.79 596.23"/>
        <polygon class="cls-79" points="95.49 596.09 95.49 704.1 95.49 715.84 208.38 715.84 208.38 704.1 208.38 596.09 95.49 596.09"/>
        <polygon class="cls-113" points="96.19 595.95 96.19 703.96 96.19 715.7 209.08 715.7 209.08 703.96 209.08 595.95 96.19 595.95"/>
        <polygon class="cls-96" points="96.89 595.8 96.89 703.82 96.89 715.56 209.78 715.56 209.78 703.82 209.78 595.8 96.89 595.8"/>
        <polygon class="cls-49" points="97.6 595.66 97.6 703.67 97.6 715.41 210.48 715.41 210.48 703.67 210.48 595.66 97.6 595.66"/>
        <polygon class="cls-59" points="98.3 595.52 98.3 703.53 98.3 715.27 211.18 715.27 211.18 703.53 211.18 595.52 98.3 595.52"/>
        <polygon class="cls-48" points="99 595.37 99 703.39 99 715.13 211.88 715.13 211.88 703.39 211.88 595.37 99 595.37"/>
        <polygon class="cls-111" points="99.7 595.23 99.7 703.25 99.7 714.98 212.59 714.98 212.59 703.25 212.59 595.23 99.7 595.23"/>
        <polygon class="cls-47" points="100.4 595.09 100.4 703.1 100.4 714.84 213.29 714.84 213.29 703.1 213.29 595.09 100.4 595.09"/>
        <polygon class="cls-33" points="101.1 594.95 101.1 702.96 101.1 714.7 213.99 714.7 213.99 702.96 213.99 594.95 101.1 594.95"/>
        <polygon class="cls-65" points="101.81 594.8 101.81 702.82 101.81 714.56 214.69 714.56 214.69 702.82 214.69 594.8 101.81 594.8"/>
        <polygon class="cls-15" points="102.51 594.66 102.51 702.67 102.51 714.41 215.39 714.41 215.39 702.67 215.39 594.66 102.51 594.66"/>
        <polygon class="cls-76" points="103.21 594.52 103.21 702.53 103.21 714.27 216.09 714.27 216.09 702.53 216.09 594.52 103.21 594.52"/>
        <polygon class="cls-93" points="103.91 594.38 103.91 702.39 103.91 714.13 216.8 714.13 216.8 702.39 216.8 594.38 103.91 594.38"/>
        <polygon class="cls-107" points="104.61 594.23 104.61 702.25 104.61 713.98 217.5 713.98 217.5 702.25 217.5 594.23 104.61 594.23"/>
        <polygon class="cls-102" points="105.31 594.09 105.31 702.1 105.31 713.84 218.2 713.84 218.2 702.1 218.2 594.09 105.31 594.09"/>
        <polygon class="cls-122" points="106.02 593.95 106.02 701.96 106.02 713.7 218.9 713.7 218.9 701.96 218.9 593.95 106.02 593.95"/>
        <polygon class="cls-109" points="106.72 593.8 106.72 701.82 106.72 713.56 219.6 713.56 219.6 701.82 219.6 593.8 106.72 593.8"/>
        <polygon class="cls-89" points="107.42 593.66 107.42 701.67 107.42 713.41 220.3 713.41 220.3 701.67 220.3 593.66 107.42 593.66"/>
        <polygon class="cls-40" points="108.12 593.52 108.12 701.53 108.12 713.27 221 713.27 221 701.53 221 593.52 108.12 593.52"/>
        <polygon class="cls-32" points="108.82 593.38 108.82 701.39 108.82 713.13 221.71 713.13 221.71 701.39 221.71 593.38 108.82 593.38"/>
        <polygon class="cls-58" points="109.52 593.23 109.52 701.25 109.52 712.99 222.41 712.99 222.41 701.25 222.41 593.23 109.52 593.23"/>
        <polygon class="cls-44" points="110.23 593.09 110.23 701.1 110.23 712.84 223.11 712.84 223.11 701.1 223.11 593.09 110.23 593.09"/>
        <polygon class="cls-23" points="110.93 592.95 110.93 700.96 110.93 712.7 223.81 712.7 223.81 700.96 223.81 592.95 110.93 592.95"/>
        <polygon class="cls-117" points="111.63 592.8 111.63 700.82 111.63 712.56 224.51 712.56 224.51 700.82 224.51 592.8 111.63 592.8"/>
        <polygon class="cls-35" points="112.33 592.66 112.33 700.68 112.33 712.41 225.21 712.41 225.21 700.68 225.21 592.66 112.33 592.66"/>
        <polygon class="cls-28" points="113.03 592.52 113.03 700.53 113.03 712.27 225.92 712.27 225.92 700.53 225.92 592.52 113.03 592.52"/>
        <polygon class="cls-72" points="113.73 592.38 113.73 700.39 113.73 712.13 226.62 712.13 226.62 700.39 226.62 592.38 113.73 592.38"/>
        <polygon class="cls-80" points="114.44 592.23 114.44 700.25 114.44 711.99 227.32 711.99 227.32 700.25 227.32 592.23 114.44 592.23"/>
        <polygon class="cls-98" points="115.14 592.09 115.14 700.1 115.14 711.84 228.02 711.84 228.02 700.1 228.02 592.09 115.14 592.09"/>
        <polygon class="cls-94" points="115.84 591.95 115.84 699.96 115.84 711.7 228.72 711.7 228.72 699.96 228.72 591.95 115.84 591.95"/>
        <polygon class="cls-62" points="116.54 591.81 116.54 699.82 116.54 711.56 229.42 711.56 229.42 699.82 229.42 591.81 116.54 591.81"/>
        <polygon class="cls-110" points="117.24 591.66 117.24 699.68 117.24 711.41 230.13 711.41 230.13 699.68 230.13 591.66 117.24 591.66"/>
        <polygon class="cls-90" points="117.94 591.52 117.94 699.53 117.94 711.27 230.83 711.27 230.83 699.53 230.83 591.52 117.94 591.52"/>
        <polygon class="cls-36" points="118.65 591.38 118.65 699.39 118.65 711.13 231.53 711.13 231.53 699.39 231.53 591.38 118.65 591.38"/>
        <polygon class="cls-1" points="119.35 591.23 119.35 699.25 119.35 710.99 232.23 710.99 232.23 699.25 232.23 591.23 119.35 591.23"/>
        <polygon class="cls-51" points="120.05 591.09 120.05 699.1 120.05 710.84 232.93 710.84 232.93 699.1 232.93 591.09 120.05 591.09"/>
        <polygon class="cls-64" points="120.75 590.95 120.75 698.96 120.75 710.7 233.63 710.7 233.63 698.96 233.63 590.95 120.75 590.95"/>
        <polygon class="cls-116" points="121.45 590.81 121.45 698.82 121.45 710.56 234.34 710.56 234.34 698.82 234.34 590.81 121.45 590.81"/>
        <polygon class="cls-84" points="122.15 590.66 122.15 698.68 122.15 710.42 235.04 710.42 235.04 698.68 235.04 590.66 122.15 590.66"/>
        <polygon class="cls-2" points="122.86 590.52 122.86 698.53 122.86 710.27 235.74 710.27 235.74 698.53 235.74 590.52 122.86 590.52"/>
        <polygon class="cls-115" points="123.56 590.38 123.56 698.39 123.56 710.13 236.44 710.13 236.44 698.39 236.44 590.38 123.56 590.38"/>
        <polygon class="cls-42" points="124.26 590.23 124.26 698.25 124.26 709.99 237.14 709.99 237.14 698.25 237.14 590.23 124.26 590.23"/>
        <polygon class="cls-29" points="124.96 590.09 124.96 698.11 124.96 709.84 237.84 709.84 237.84 698.11 237.84 590.09 124.96 590.09"/>
        <polygon class="cls-81" points="125.66 589.95 125.66 697.96 125.66 709.7 238.55 709.7 238.55 697.96 238.55 589.95 125.66 589.95"/>
        <polygon class="cls-67" points="126.36 589.81 126.36 697.82 126.36 709.56 239.25 709.56 239.25 697.82 239.25 589.81 126.36 589.81"/>
      </g>
      <g>
        <rect class="cls-5" x="111.81" y="582.46" width="121.86" height="111.14"/>
        <rect class="cls-78" x="111.81" y="693.6" width="121.86" height="12.08"/>
        <path class="cls-105" d="m163.37,699.22c0-1.52,4.19-2.75,9.37-2.75s9.38,1.23,9.38,2.75-4.21,2.75-9.38,2.75-9.37-1.23-9.37-2.75Z"/>
        <polygon class="cls-24" points="234.25 582.03 111.22 582.03 111.22 694.02 111.81 694.02 111.81 705.68 233.67 705.68 233.67 694.02 234.25 694.02 234.25 582.03"/>
        <rect class="cls-9" x="119.02" y="587.51" width="107.44" height="101.04"/>
      </g>
    </g>
  </g>
</svg>