<?xml version="1.0" encoding="UTF-8"?>
<svg xmlns="http://www.w3.org/2000/svg" xmlns:xlink="http://www.w3.org/1999/xlink" viewBox="0 0 293.38 395.54">
  <defs>
    <style>
      .cls-1 {
        fill: url(#linear-gradient-8);
      }

      .cls-1, .cls-2, .cls-3, .cls-4, .cls-5, .cls-6 {
        stroke: #9c9c9b;
        stroke-miterlimit: 10;
        stroke-width: .03px;
      }

      .cls-2 {
        fill: url(#linear-gradient-2);
      }

      .cls-7 {
        fill: #f1594e;
        mix-blend-mode: multiply;
      }

      .cls-8 {
        fill: url(#linear-gradient-6);
      }

      .cls-9 {
        isolation: isolate;
      }

      .cls-3 {
        fill: url(#linear-gradient);
      }

      .cls-4 {
        fill: url(#linear-gradient-7);
      }

      .cls-5 {
        fill: url(#linear-gradient-4);
      }

      .cls-10 {
        fill: url(#linear-gradient-9);
      }

      .cls-11 {
        fill: #908f8e;
      }

      .cls-12 {
        fill: url(#linear-gradient-3);
      }

      .cls-6 {
        fill: url(#linear-gradient-5);
      }
    </style>
    <linearGradient id="linear-gradient" x1="1023.49" y1="42.29" x2="1315.78" y2="42.29" gradientTransform="translate(1316.32) rotate(-180) scale(1 -1)" gradientUnits="userSpaceOnUse">
      <stop offset="0" stop-color="#e6e6e5"/>
      <stop offset="1" stop-color="#c9c9c9"/>
    </linearGradient>
    <linearGradient id="linear-gradient-2" x1="1030.15" y1="42.29" x2="1309.12" y2="42.29" gradientTransform="translate(1316.32) rotate(-180) scale(1 -1)" gradientUnits="userSpaceOnUse">
      <stop offset="0" stop-color="#fff"/>
      <stop offset="1" stop-color="#d7d6d6"/>
    </linearGradient>
    <linearGradient id="linear-gradient-3" x1="292.84" y1="92.75" x2=".54" y2="92.75" gradientUnits="userSpaceOnUse">
      <stop offset="0" stop-color="#c8c7c6"/>
      <stop offset="1" stop-color="#b4b4b4"/>
    </linearGradient>
    <linearGradient id="linear-gradient-4" x1="1023.52" y1="179.89" x2="1315.75" y2="179.89" xlink:href="#linear-gradient"/>
    <linearGradient id="linear-gradient-5" x1="1030.58" y1="179.89" x2="1308.7" y2="179.89" xlink:href="#linear-gradient-2"/>
    <linearGradient id="linear-gradient-6" x1="292.46" y1="234.5" x2=".1" y2="234.5" xlink:href="#linear-gradient-3"/>
    <linearGradient id="linear-gradient-7" x1="1024.33" y1="325.64" x2="1314.35" y2="325.64" xlink:href="#linear-gradient"/>
    <linearGradient id="linear-gradient-8" x1="1041.5" y1="325.64" x2="1297.19" y2="325.64" xlink:href="#linear-gradient-2"/>
    <linearGradient id="linear-gradient-9" x1="291.99" y1="385.14" x2="1.97" y2="385.14" xlink:href="#linear-gradient-3"/>
  </defs>
  <g class="cls-9">
    <g id="Layer_1" data-name="Layer 1">
      <g>
        <rect class="cls-3" x=".54" y=".61" width="292.29" height="83.36"/>
        <rect class="cls-2" x="7.2" y="7.96" width="278.97" height="68.66"/>
        <rect class="cls-12" x=".54" y="83.97" width="292.29" height="17.57"/>
        <path class="cls-11" d="m138.03,92.15c0-2.21,3.88-4,8.66-4s8.66,1.8,8.66,4-3.89,3.99-8.66,3.99-8.66-1.79-8.66-3.99Z"/>
        <polygon class="cls-7" points="293.38 0 0 0 0 84.58 .54 84.58 .54 101.54 292.84 101.54 292.84 84.58 293.38 84.58 293.38 0"/>
      </g>
      <g>
        <rect class="cls-5" x=".57" y="133.7" width="292.22" height="92.37"/>
        <rect class="cls-6" x="7.63" y="141.88" width="278.12" height="76.01"/>
        <rect class="cls-8" x=".1" y="224.46" width="292.37" height="20.07"/>
        <rect class="cls-11" x="144.76" y="224.46" width="2.82" height="20.07"/>
        <path class="cls-11" d="m159.9,232.77c0-2.51,4.1-4.57,9.15-4.57s9.18,2.05,9.18,4.57-4.1,4.57-9.18,4.57-9.15-2.04-9.15-4.57Z"/>
        <path class="cls-11" d="m117.05,232.77c0-2.51,4.1-4.57,9.17-4.57s9.18,2.05,9.18,4.57-4.11,4.57-9.18,4.57-9.17-2.04-9.17-4.57Z"/>
        <polygon class="cls-7" points="293.38 133.02 0 133.02 0 226.76 .1 226.76 .1 244.54 144.76 244.54 147.58 244.54 292.46 244.54 292.46 226.76 293.38 226.76 293.38 133.02"/>
      </g>
      <g>
        <rect class="cls-4" x="1.97" y="276.54" width="290.02" height="98.21"/>
        <rect class="cls-1" x="19.13" y="285.23" width="255.69" height="80.82"/>
        <rect class="cls-10" x="1.97" y="374.74" width="290.02" height="20.79"/>
        <path class="cls-11" d="m124.68,384.43c0-2.61,9.98-4.74,22.31-4.74s22.33,2.12,22.33,4.74-10.03,4.73-22.33,4.73-22.31-2.12-22.31-4.73Z"/>
        <polygon class="cls-7" points="293.38 275.81 .57 275.81 .57 375.48 1.97 375.48 1.97 395.54 291.99 395.54 291.99 375.48 293.38 375.48 293.38 275.81"/>
      </g>
    </g>
  </g>
</svg>