<?xml version="1.0" encoding="UTF-8"?>
<svg xmlns="http://www.w3.org/2000/svg" viewBox="0 0 364.72 107.93">
  <defs>
    <style>
      .cls-1 {
        fill: #7d7d7d;
        mix-blend-mode: multiply;
        opacity: .4;
        stroke-width: 0px;
      }

      .cls-1, .cls-2, .cls-3 {
        stroke: #fbb040;
        stroke-miterlimit: 10;
      }

      .cls-4 {
        isolation: isolate;
      }

      .cls-2 {
        fill: #f5efe1;
      }

      .cls-3 {
        fill: #e5d9c2;
      }
    </style>
  </defs>
  <g class="cls-4">
    <g id="Layer_1" data-name="Layer 1">
      <g>
        <polygon class="cls-1" points="364.72 107.93 6.14 107.93 .5 102.29 359.08 .5 364.72 6.14 364.72 107.93"/>
        <rect class="cls-3" x=".5" y=".5" width="358.58" height="101.79"/>
        <path class="cls-2" d="m324.83,97.87l23.75-23.72-24.27-23.22,23.75-23.72-24.46-23.4-23.8,23.4-24.31-23.4-23.8,23.4-24.31-23.4-23.8,23.4-24.31-23.4-23.8,23.4-24.31-23.4-23.8,23.4L83.05,3.82l-23.8,23.4L34.93,3.82,10.99,27.22l23.94,23.72-23.94,23.22,23.94,23.72h0l24.31-23.72,23.8,23.72h0l24.31-23.72,23.8,23.72h0l24.83-23.72,24.12,23.72h.38l23.61-23.72,24.12,23.72h.38l23.61-23.72,24.12,23.72h.38l23.61-23.72,24.12,23.72h.38ZM59.25,74.15l-24.31-23.22,24.31-23.72,23.8,23.72-23.8,23.22Zm48.11,0l-24.31-23.22,24.31-23.72,23.8,23.72-23.8,23.22Zm48.63,0l-24.83-23.22,24.32-23.72,24.12,23.72-23.61,23.22Zm48.11,0l-24.12-23.22,23.61-23.72,24.12,23.72-23.61,23.22Zm48.11,0l-24.12-23.22,23.61-23.72,24.12,23.72-23.61,23.22Zm48.11,0l-24.12-23.22,23.61-23.72,24.12,23.72-23.61,23.22Z"/>
      </g>
    </g>
  </g>
</svg>