<?xml version="1.0" encoding="UTF-8"?>
<svg xmlns="http://www.w3.org/2000/svg" xmlns:xlink="http://www.w3.org/1999/xlink" viewBox="0 0 489.6 688.41">
  <defs>
    <style>
      .cls-1 {
        fill: url(#_Áåçûìÿííûé_ãðàäèåíò_29-5);
      }

      .cls-1, .cls-2, .cls-3, .cls-4, .cls-5, .cls-6, .cls-7, .cls-8, .cls-9, .cls-10, .cls-11, .cls-12, .cls-13, .cls-14, .cls-15, .cls-16, .cls-17, .cls-18, .cls-19, .cls-20, .cls-21, .cls-22, .cls-23, .cls-24, .cls-25, .cls-26 {
        mix-blend-mode: multiply;
      }

      .cls-1, .cls-2, .cls-3, .cls-4, .cls-6, .cls-10, .cls-11, .cls-12, .cls-13, .cls-14, .cls-15, .cls-16, .cls-17, .cls-18, .cls-19, .cls-20, .cls-21, .cls-22, .cls-23, .cls-25, .cls-26 {
        opacity: .4;
      }

      .cls-2 {
        fill: url(#_Áåçûìÿííûé_ãðàäèåíò_29-7);
      }

      .cls-3 {
        fill: url(#_Áåçûìÿííûé_ãðàäèåíò_29-17);
      }

      .cls-4 {
        fill: url(#_Áåçûìÿííûé_ãðàäèåíò_29-15);
      }

      .cls-27 {
        fill: #d7b37f;
      }

      .cls-5, .cls-7 {
        opacity: .32;
      }

      .cls-5, .cls-8, .cls-28 {
        fill: #cdbdb6;
      }

      .cls-29 {
        fill: #bba898;
      }

      .cls-6 {
        fill: url(#_Áåçûìÿííûé_ãðàäèåíò_29-11);
      }

      .cls-7, .cls-30 {
        fill: #e5d9c2;
      }

      .cls-8 {
        opacity: .39;
      }

      .cls-9 {
        fill: #b5b5b5;
      }

      .cls-9, .cls-31, .cls-32, .cls-33, .cls-34, .cls-35 {
        stroke: #9e1f63;
        stroke-miterlimit: 10;
      }

      .cls-9, .cls-32 {
        stroke-width: 0px;
      }

      .cls-10 {
        fill: url(#_Áåçûìÿííûé_ãðàäèåíò_29);
      }

      .cls-36 {
        isolation: isolate;
      }

      .cls-11 {
        fill: url(#_Áåçûìÿííûé_ãðàäèåíò_29-14);
      }

      .cls-12 {
        fill: url(#_Áåçûìÿííûé_ãðàäèåíò_29-3);
      }

      .cls-37 {
        fill: #f5efe1;
      }

      .cls-31 {
        fill: url(#White_Black);
      }

      .cls-13 {
        fill: url(#_Áåçûìÿííûé_ãðàäèåíò_29-2);
      }

      .cls-14 {
        fill: url(#_Áåçûìÿííûé_ãðàäèåíò_29-4);
      }

      .cls-38 {
        fill: #5b4f4a;
        mix-blend-mode: screen;
        opacity: .6;
      }

      .cls-15 {
        fill: url(#_Áåçûìÿííûé_ãðàäèåíò_29-9);
      }

      .cls-39 {
        fill: #d1c69f;
      }

      .cls-40 {
        fill: #e0c9be;
      }

      .cls-16 {
        fill: url(#_Áåçûìÿííûé_ãðàäèåíò_29-8);
      }

      .cls-17 {
        fill: url(#_Áåçûìÿííûé_ãðàäèåíò_29-20);
      }

      .cls-18 {
        fill: url(#_Áåçûìÿííûé_ãðàäèåíò_29-21);
      }

      .cls-41, .cls-34 {
        fill: #f8dba7;
      }

      .cls-42 {
        fill: #bfa693;
      }

      .cls-43 {
        fill: #c5b3a9;
      }

      .cls-19 {
        fill: url(#_Áåçûìÿííûé_ãðàäèåíò_29-16);
      }

      .cls-20 {
        fill: url(#_Áåçûìÿííûé_ãðàäèåíò_29-12);
      }

      .cls-21 {
        fill: url(#_Áåçûìÿííûé_ãðàäèåíò_29-18);
      }

      .cls-32 {
        fill: #6a6a6a;
      }

      .cls-44 {
        fill: #d0bb85;
      }

      .cls-22 {
        fill: url(#_Áåçûìÿííûé_ãðàäèåíò_29-10);
      }

      .cls-23 {
        fill: url(#_Áåçûìÿííûé_ãðàäèåíò_29-19);
      }

      .cls-24 {
        fill: url(#_Áåçûìÿííûé_ãðàäèåíò_53);
        opacity: .67;
      }

      .cls-25 {
        fill: url(#_Áåçûìÿííûé_ãðàäèåíò_29-6);
      }

      .cls-33 {
        fill: url(#White_Black-3);
      }

      .cls-26 {
        fill: url(#_Áåçûìÿííûé_ãðàäèåíò_29-13);
      }

      .cls-35 {
        fill: url(#White_Black-2);
      }
    </style>
    <linearGradient id="_Áåçûìÿííûé_ãðàäèåíò_53" data-name="Áåçûìÿííûé ãðàäèåíò 53" x1="468.82" y1="275.79" x2="369.34" y2="-13.51" gradientUnits="userSpaceOnUse">
      <stop offset="0" stop-color="#775788"/>
      <stop offset=".15" stop-color="#82658e"/>
      <stop offset=".44" stop-color="#a089a0"/>
      <stop offset=".82" stop-color="#d0c5bc"/>
      <stop offset=".98" stop-color="#e6dfc9"/>
    </linearGradient>
    <linearGradient id="_Áåçûìÿííûé_ãðàäèåíò_29" data-name="Áåçûìÿííûé ãðàäèåíò 29" x1="-3792.16" y1="1520.07" x2="-3791.1" y2="1521.63" gradientTransform="translate(4241.24 -1124.57)" gradientUnits="userSpaceOnUse">
      <stop offset="0" stop-color="#e5dfac"/>
      <stop offset=".2" stop-color="#c6b9a2"/>
      <stop offset=".52" stop-color="#9b8494"/>
      <stop offset=".75" stop-color="#81638b"/>
      <stop offset=".88" stop-color="#775788"/>
    </linearGradient>
    <linearGradient id="_Áåçûìÿííûé_ãðàäèåíò_29-2" data-name="Áåçûìÿííûé ãðàäèåíò 29" x1="-3789.59" y1="1521.42" x2="-3788.65" y2="1522.8" xlink:href="#_Áåçûìÿííûé_ãðàäèåíò_29"/>
    <linearGradient id="_Áåçûìÿííûé_ãðàäèåíò_29-3" data-name="Áåçûìÿííûé ãðàäèåíò 29" x1="-3794.78" y1="1518.88" x2="-3793.62" y2="1520.57" xlink:href="#_Áåçûìÿííûé_ãðàäèåíò_29"/>
    <linearGradient id="_Áåçûìÿííûé_ãðàäèåíò_29-4" data-name="Áåçûìÿííûé ãðàäèåíò 29" x1="-3787.07" y1="1522.91" x2="-3786.27" y2="1524.09" xlink:href="#_Áåçûìÿííûé_ãðàäèåíò_29"/>
    <linearGradient id="_Áåçûìÿííûé_ãðàäèåíò_29-5" data-name="Áåçûìÿííûé ãðàäèåíò 29" x1="-3797.42" y1="1517.84" x2="-3796.21" y2="1519.63" xlink:href="#_Áåçûìÿííûé_ãðàäèåíò_29"/>
    <linearGradient id="_Áåçûìÿííûé_ãðàäèåíò_29-6" data-name="Áåçûìÿííûé ãðàäèåíò 29" x1="-3784.6" y1="1524.54" x2="-3783.95" y2="1525.49" xlink:href="#_Áåçûìÿííûé_ãðàäèåíò_29"/>
    <linearGradient id="_Áåçûìÿííûé_ãðàäèåíò_29-7" data-name="Áåçûìÿííûé ãðàäèåíò 29" x1="-3800.12" y1="1516.94" x2="-3798.85" y2="1518.81" xlink:href="#_Áåçûìÿííûé_ãðàäèåíò_29"/>
    <linearGradient id="_Áåçûìÿííûé_ãðàäèåíò_29-8" data-name="Áåçûìÿííûé ãðàäèåíò 29" x1="-3779.9" y1="1528.14" x2="-3779.57" y2="1528.63" xlink:href="#_Áåçûìÿííûé_ãðàäèåíò_29"/>
    <linearGradient id="_Áåçûìÿííûé_ãðàäèåíò_29-9" data-name="Áåçûìÿííûé ãðàäèåíò 29" x1="-3775.53" y1="1532.17" x2="-3775.52" y2="1532.18" xlink:href="#_Áåçûìÿííûé_ãðàäèåíò_29"/>
    <linearGradient id="_Áåçûìÿííûé_ãðàäèåíò_29-10" data-name="Áåçûìÿííûé ãðàäèåíò 29" x1="-3777.66" y1="1530.11" x2="-3777.5" y2="1530.35" xlink:href="#_Áåçûìÿííûé_ãðàäèåíò_29"/>
    <linearGradient id="_Áåçûìÿííûé_ãðàäèåíò_29-11" data-name="Áåçûìÿííûé ãðàäèåíò 29" x1="-3782.21" y1="1526.28" x2="-3781.72" y2="1527" xlink:href="#_Áåçûìÿííûé_ãðàäèåíò_29"/>
    <linearGradient id="_Áåçûìÿííûé_ãðàäèåíò_29-12" data-name="Áåçûìÿííûé ãðàäèåíò 29" x1="-3858.31" y1="1536.73" x2="-3858.02" y2="1537.14" xlink:href="#_Áåçûìÿííûé_ãðàäèåíò_29"/>
    <linearGradient id="_Áåçûìÿííûé_ãðàäèåíò_29-13" data-name="Áåçûìÿííûé ãðàäèåíò 29" x1="-3819.78" y1="1515.08" x2="-3818.63" y2="1516.77" xlink:href="#_Áåçûìÿííûé_ãðàäèåíò_29"/>
    <linearGradient id="_Áåçûìÿííûé_ãðàäèåíò_29-14" data-name="Áåçûìÿííûé ãðàäèåíò 29" x1="-3816.9" y1="1514.96" x2="-3815.77" y2="1516.61" xlink:href="#_Áåçûìÿííûé_ãðàäèåíò_29"/>
    <linearGradient id="_Áåçûìÿííûé_ãðàäèåíò_29-15" data-name="Áåçûìÿííûé ãðàäèåíò 29" x1="-3846.75" y1="1516.83" x2="-3839.08" y2="1528.1" xlink:href="#_Áåçûìÿííûé_ãðàäèåíò_29"/>
    <linearGradient id="_Áåçûìÿííûé_ãðàäèåíò_29-16" data-name="Áåçûìÿííûé ãðàäèåíò 29" x1="-3822.74" y1="1515.21" x2="-3821.45" y2="1517.1" xlink:href="#_Áåçûìÿííûé_ãðàäèåíò_29"/>
    <linearGradient id="_Áåçûìÿííûé_ãðàäèåíò_29-17" data-name="Áåçûìÿííûé ãðàäèåíò 29" x1="-3808.37" y1="1515.23" x2="-3807.1" y2="1517.1" xlink:href="#_Áåçûìÿííûé_ãðàäèåíò_29"/>
    <linearGradient id="_Áåçûìÿííûé_ãðàäèåíò_29-18" data-name="Áåçûìÿííûé ãðàäèåíò 29" x1="-3805.6" y1="1515.64" x2="-3804.3" y2="1517.54" xlink:href="#_Áåçûìÿííûé_ãðàäèåíò_29"/>
    <linearGradient id="_Áåçûìÿííûé_ãðàäèåíò_29-19" data-name="Áåçûìÿííûé ãðàäèåíò 29" x1="-3802.85" y1="1516.2" x2="-3801.55" y2="1518.11" xlink:href="#_Áåçûìÿííûé_ãðàäèåíò_29"/>
    <linearGradient id="_Áåçûìÿííûé_ãðàäèåíò_29-20" data-name="Áåçûìÿííûé ãðàäèåíò 29" x1="-3811.18" y1="1514.98" x2="-3809.94" y2="1516.8" xlink:href="#_Áåçûìÿííûé_ãðàäèåíò_29"/>
    <linearGradient id="_Áåçûìÿííûé_ãðàäèåíò_29-21" data-name="Áåçûìÿííûé ãðàäèåíò 29" x1="-3814.01" y1="1514.9" x2="-3812.83" y2="1516.63" xlink:href="#_Áåçûìÿííûé_ãðàäèåíò_29"/>
    <linearGradient id="White_Black" data-name="White, Black" x1="194.89" y1="686.06" x2="201.58" y2="686.06" gradientUnits="userSpaceOnUse">
      <stop offset="0" stop-color="#fff"/>
      <stop offset="1" stop-color="#231f20"/>
    </linearGradient>
    <linearGradient id="White_Black-2" data-name="White, Black" x1="186.46" y1="632.55" x2="295.97" y2="632.55" xlink:href="#White_Black"/>
    <linearGradient id="White_Black-3" data-name="White, Black" x1="186.46" y1="678.58" x2="295.97" y2="678.58" xlink:href="#White_Black"/>
  </defs>
  <g class="cls-36">
    <g id="Layer_1" data-name="Layer 1">
      <g>
        <g>
          <polygon class="cls-28" points="214.79 227.44 214.79 214.93 281.67 214.93 281.67 227.44 285.2 227.11 285.2 227.11 285.2 203.38 211.26 203.38 211.26 227.11 214.79 227.44"/>
          <path class="cls-28" d="m294.75,298.34l-9.55-71.24h0c-24.59,2.29-49.35,2.29-73.94,0h0l-9.55,71.24c-.97,7.27,3.76,14.07,10.92,15.68h0c23.44,5.27,47.76,5.27,71.21,0h0c7.15-1.61,11.89-8.42,10.92-15.68Z"/>
        </g>
        <polygon class="cls-43" points="214.79 231.69 214.79 214.93 281.67 214.93 281.67 231.69 285.2 231.36 285.2 231.36 285.2 207.64 211.26 207.64 211.26 231.36 214.79 231.69"/>
        <path class="cls-37" d="m215.21,231.96l-8.53,63.63c-.87,6.49,3.36,12.57,9.75,14.01h0c20.94,4.71,42.66,4.71,63.6,0,6.39-1.44,10.62-7.52,9.75-14.01l-8.53-63.63c-21.97,2.05-44.08,2.05-66.05,0Z"/>
        <polygon class="cls-37" points="285.2 227.11 285.2 227.11 285.19 227.11 285.2 227.11"/>
        <path class="cls-7" d="m283.83,314.02h0c7.15-1.61,11.89-8.42,10.92-15.68l-9.55-71.24c-2.01.19-4.01.33-6.02.49-2.46,17.6-16.28,84.34-74.96,79.78.12.53.25,1.03.37,1.54,1.95,2.5,4.73,4.36,8.04,5.11h0c23.44,5.27,47.76,5.27,71.21,0Z"/>
      </g>
      <g>
        <g>
          <path class="cls-28" d="m279.65,63.74l13.47-20.4-5.58-3.69-13.28,20.1c-3.63-2-7.8-3.15-12.24-3.15h-41.62c-3.85,0-7.48.88-10.74,2.41l-12.79-19.36-5.58,3.69,12.73,19.27c-5.5,4.66-9,11.6-9,19.38v39.29c0,14.02,11.37,25.39,25.39,25.39h41.62c14.02,0,25.38-11.37,25.38-25.39v-39.29c0-7.17-2.98-13.63-7.76-18.25Z"/>
          <rect class="cls-37" x="200.37" y="61.95" width="81.7" height="79.37" rx="20.04" ry="20.04"/>
          <path class="cls-40" d="m306.32,59.23c-.29-.27-29.75-26.74-65.11-26.74-35.47,0-64.81,26.47-65.11,26.73l-6.77-7.41c1.31-1.2,32.56-29.36,71.88-29.36,39.32,0,70.57,28.17,71.88,29.36l-6.77,7.41Z"/>
        </g>
        <path class="cls-5" d="m287.41,121.28v-39.29c0-1.47-.15-2.9-.39-4.3-8.68,17.92-34.11,55.93-91.38,49.11,2.53,11.36,12.64,19.86,24.76,19.86h41.62c14.02,0,25.39-11.37,25.39-25.39Z"/>
      </g>
      <g>
        <path class="cls-27" d="m125.41,135.24H39.07c-5.62,0-10.21-4.6-10.21-10.21l5.72-78.97c0-5.62,4.6-10.21,10.21-10.21h74.77c5.62,0,10.21,4.6,10.21,10.21l5.85,78.97c0,5.62-4.6,10.21-10.21,10.21Z"/>
        <path class="cls-27" d="m37.53,38.9c1.31-1.33,2.98-2.3,4.84-2.76-1.17-5.71-3.72-17.33-3.72-17.33l17.47-5.16,18.46.52v22.55s14.89,0,14.89,0V14.18h18.66l17.14,5.21s-2.4,10.95-3.59,16.7c1.89.41,3.6,1.35,4.95,2.65.44-2.3,5.74-25.54,5.74-25.54l-23.44-6.59h-53.42l-23.86,6.59s5.77,25.29,5.77,25.72h.09Z"/>
        <polygon class="cls-41" points="132.39 6.59 108.95 0 55.53 0 31.67 6.59 31.67 13.18 55.53 6.59 108.95 6.59 132.39 13.18 132.39 6.59"/>
        <path class="cls-41" d="m122.17,48.89v-.34c-.01-2.73-2.23-4.95-4.96-4.95H47.16c-2.73,0-4.95,2.22-4.95,4.95v.17l-5.36,73.96c.07,2.67,2.26,4.81,4.95,4.81h80.89c2.68,0,4.87-2.14,4.95-4.81l-5.46-73.79Z"/>
        <path class="cls-7" d="m126.01,38.22c-2.09,34.83-19.74,83.6-95.31,92.61,1.85,2.65,4.91,4.41,8.37,4.41h86.33c5.62,0,10.21-4.59,10.21-10.21l-5.85-78.97c0-3.16-1.49-5.96-3.76-7.84Z"/>
      </g>
      <g>
        <path class="cls-37" d="m469.54,101.29l-2.07-15.53c-.18-1.47-1.39-1.2-2.69-1.05-.67.05-1.33.14-2.06.15v.04c-2.38.14-4.27.42-6.95.55-22.37,1.97-45.27,1.97-67.65.13-.15-.08-.54-.03-.73-.04-.19-.04-.41-.04-.59-.04-2.82-.24-5.48-.51-8.19-.68-.8-.13-2.1-.31-2.68-.23-.52.03-.96.44-1.02,1.01l-2.1,15.71c-2.83,16.17-1.17,61.51-1.6,78.44,0,7.44,47.92,7.54,49.98,7.54s49.93-.1,49.93-7.54c-.62-17.21,1.31-62.02-1.6-78.44Z"/>
        <path class="cls-44" d="m473.33,128.29v55.91c-1.1,2.38-20.33,5.85-52.12,5.85s-51.03-3.47-52.12-5.76v-56.74c0-9.68.64-19.46,1.92-29.01l3.15-19.23.78,6.21v.05l-2.1,15.71c-1.05,7.86-1.6,15.81-1.6,23.71v54.73c0,7.45,47.92,7.54,49.98,7.54s49.93-.09,49.93-7.54v-54.73c0-7.9-.55-15.85-1.6-23.71l-2.06-15.53.73-5.98,2.97,18c1.42,10.1,2.15,20.37,2.15,30.52Z"/>
        <path class="cls-44" d="m473.64,97.41l-4.42-26.63-1.02,8.99-.73,5.98,2.06,15.53c1.05,7.86,1.6,15.81,1.6,23.71v54.73c0,7.45-47.92,7.54-49.93,7.54s-49.98-.09-49.98-7.54v-54.73c0-7.9.55-15.85,1.6-23.71l2.1-15.71v-.05l-1.88-15.05-4.52,27.7c-1.32,9.68-1.96,19.6-1.96,29.37v56.74c0,8.18,52.4,8.27,54.63,8.27s54.59-.09,54.59-8.27v-56.01c0-10.28-.68-20.65-2.15-30.88Z"/>
        <path class="cls-24" d="m473.64,97.41l-4.42-26.63-1.02,8.99-.73,5.98,2.06,15.53c1.05,7.86,1.6,15.81,1.6,23.71v54.73c0,7.45-47.92,7.54-49.93,7.54s-49.98-.09-49.98-7.54v-54.73c0-7.9.55-15.85,1.6-23.71l2.1-15.71v-.05l-1.88-15.05-4.52,27.7c-1.32,9.68-1.96,19.6-1.96,29.37v56.74c0,8.18,52.4,8.27,54.63,8.27s54.59-.09,54.59-8.27v-56.01c0-10.28-.68-20.65-2.15-30.88Z"/>
        <path class="cls-28" d="m361.98,160.45h-9.14v-22.11c-.84-32.4,5.94-59.85,6.23-61l8.86,2.22c-.07.27-6.76,27.45-5.95,58.66v22.23Z"/>
        <path class="cls-28" d="m480.4,160.45h9.14v-22.11c.84-32.4-5.94-59.85-6.23-61l-8.86,2.22c.07.27,6.76,27.45,5.95,58.66v22.23Z"/>
        <path class="cls-30" d="m466.48,37.98l-6.09,47.09c-1.32.13-2.87.28-4.61.37h-.22c-.25.03-.5.06-.76.09-.29.03-.59.06-.89.08-.3.03-.61.06-.94.08-.31.02-.64.04-.97.07h-.5c-2.14.19-4.43.32-6.86.46-2.42.15-4.98.28-7.54.41-2.29.07-4.59.16-6.92.23-.84.02-1.69.03-2.52.04-2.16.04-4.34.09-6.44.09-1.33,0-2.66,0-3.98-.04-.83,0-1.64,0-2.47-.04h-.64c-2.38-.04-4.76-.14-7.08-.23-.59,0-1.15-.04-1.74-.04-.55-.04-1.14-.04-1.69-.09-1.14-.04-2.29-.09-3.38-.18-.36,0-.73-.04-1.09-.04-.77-.06-1.51-.1-2.19-.15-2.1-.13-4.11-.27-6.03-.41-.18,0-.35-.01-.5-.03-.16-.01-.3-.03-.46-.06h-.64c-.41-.04-.83-.04-1.19-.09-.09-.04-.18-.04-.31-.04h-.41c-.19-.04-.41-.04-.59-.04-.19-.04-.32-.04-.41-.04-.59-.04-1.2-.09-1.7-.13-1-.1-1.91-.19-2.74-.23l-.46-3.52-5.57-43.58c8.13-1.46,26.49-4.34,43.44-4.52h1.83c17.44,0,36.73,3.01,45.27,4.52Z"/>
        <path class="cls-43" d="m391.77,104.67c-1.43,0-2.59,1.16-2.59,2.59s1.16,2.59,2.59,2.59,2.59-1.16,2.59-2.59-1.16-2.59-2.59-2.59Z"/>
        <path class="cls-28" d="m473,27.75c-.27-.05-31.61-5.71-51.8-5.71-23.3,0-52.76,5.89-52.76,5.89v4.48s0,0,0,0v1.14l.09.92c49.26-13.08,104.75-.87,105.36-.73l.03-.18v-.33h0v-5.29l-.91-.18Z"/>
        <path class="cls-43" d="m368.53,34.47l4.5,36.13.02.15,1.09,8.59.78,6.21v.04l.13,1.14.87.1s.46.04,1.14.09c.78.09,22.11,1.69,26.68,1.92,1.09.05,2.24.13,3.43.13,1.14.04,2.28.09,3.47.13,1.18.04,2.38.09,3.52.09,2.38.04,49.52-2.1,51.16-2.23.69-.09,1.05-.13,1.09-.13l.92-.1.13-.96.74-5.98,1.05-8.59v-.12s4.52-36.56,4.52-36.56l.13-.96-.03.18c-.61-.13-56.1-12.35-105.36.73Zm91.86,50.61c-1.32.13-2.87.28-4.61.37h-.22c-.25.03-.5.06-.76.09-.29.03-.59.06-.89.08-.31.03-.63.06-.94.08-.28.02-.56.04-.84.07h-.64c-2.14.19-4.43.32-6.86.46-2.42.15-4.98.28-7.54.41-2.29.07-4.59.16-6.92.23-.84.02-1.69.03-2.52.04-2.16.04-4.34.09-6.44.09-1.33,0-2.66,0-3.98-.04-.83,0-1.64,0-2.47-.04h-.64c-2.38-.04-4.76-.14-7.08-.23-.59,0-1.15-.04-1.74-.04-.55-.04-1.14-.04-1.69-.09-1.14-.04-2.29-.09-3.38-.18-.36,0-.73-.04-1.09-.04-.77-.06-1.51-.1-2.19-.15h-.37c-.92-.04-1.83-.13-2.75-.18-.99-.09-1.95-.13-2.91-.23-.18,0-.35-.01-.5-.03-.16-.01-.3-.03-.46-.06h-.64c-.41-.04-.83-.04-1.19-.09-.27,0-.5-.04-.73-.04-.19-.04-.41-.04-.59-.04-.19-.04-.32-.04-.41-.04-.59-.04-1.2-.09-1.7-.13-1.01-.1-1.91-.19-2.74-.23l-.46-3.52-5.57-43.58c8.13-1.46,26.49-4.34,43.44-4.52h1.83c17.44,0,36.73,3.01,45.27,4.52l-6.09,47.09Z"/>
        <path class="cls-30" d="m475.79,184.3v-56.01c0-10.28-.68-20.65-2.15-30.88l-1.6-9.67c-4.44,26.41-23.46,94.91-100.74,86.86,0,1.9-3.15-.36-4.73-.58v10.28c0,8.18,52.4,8.27,54.63,8.27s54.59-.09,54.59-8.27Z"/>
        <path class="cls-43" d="m453.39,104.67c-1.43,0-2.59,1.16-2.59,2.59s1.16,2.59,2.59,2.59,2.59-1.16,2.59-2.59-1.16-2.59-2.59-2.59Z"/>
        <path class="cls-43" d="m391.77,165.03c-1.43,0-2.59,1.16-2.59,2.59s1.16,2.59,2.59,2.59,2.59-1.16,2.59-2.59-1.16-2.59-2.59-2.59Z"/>
        <path class="cls-43" d="m453.39,165.03c-1.43,0-2.59,1.16-2.59,2.59s1.16,2.59,2.59,2.59,2.59-1.16,2.59-2.59-1.16-2.59-2.59-2.59Z"/>
        <path class="cls-28" d="m473.64,97.41l-4.42-26.63-1.02,8.99-.73,5.98,2.06,15.53c1.05,7.86,1.6,15.81,1.6,23.71v54.73c0,7.45-47.92,7.54-49.93,7.54s-49.98-.09-49.98-7.54v-54.73c0-7.9.55-15.85,1.6-23.71l2.1-15.71v-.05l-1.88-15.05-4.52,27.7c-1.32,9.68-1.96,19.6-1.96,29.37v56.74c0,8.18,52.4,8.27,54.63,8.27s54.59-.09,54.59-8.27v-56.01c0-10.28-.68-20.65-2.15-30.88Z"/>
      </g>
      <g>
        <circle class="cls-29" cx="64.66" cy="273.32" r="46.48" transform="translate(-42.68 13.78) rotate(-9.16)"/>
        <path class="cls-40" d="m129.33,275.66h-4.67v-2.34c0-33.08-26.91-59.99-59.99-59.99s-59.99,26.91-59.99,59.99v2.34H0v-2.34c0-35.66,29.01-64.66,64.66-64.66s64.66,29.01,64.66,64.66v2.34Z"/>
        <path class="cls-28" d="m64.66,313.33c-22.1,0-40.01-17.91-40.01-40.01s17.91-40.01,40.01-40.01,40.01,17.91,40.01,40.01-17.91,40.01-40.01,40.01Z"/>
        <path class="cls-8" d="m129.33,275.66v-2.34c0-26.8-16.39-49.84-39.67-59.64,1.34,2.65,2.32,4.88,3.01,6.61,19.01,10.08,31.99,30.06,31.99,53.03v2.34h4.67Z"/>
        <path class="cls-8" d="m93.49,236.87c1.46,4.51,2.25,9.31,2.25,14.3,0,25.67-20.81,46.48-46.48,46.48-10.89,0-20.9-3.76-28.82-10.03,6.03,18.67,23.55,32.18,44.23,32.18,25.67,0,46.48-20.81,46.48-46.48,0-14.78-6.91-27.94-17.66-36.46Z"/>
        <path class="cls-29" d="m61.15,273.32c0,1.94,1.57,3.51,3.51,3.51s3.51-1.57,3.51-3.51-1.57-3.51-3.51-3.51-3.51,1.57-3.51,3.51Z"/>
      </g>
      <g>
        <path class="cls-29" d="m470.07,506.31h-86.8c-6.82,0-12.35-5.53-12.35-12.35v-46.56c0-30.79,24.96-55.75,55.75-55.75h0c30.79,0,55.75,24.96,55.75,55.75v46.56c0,6.82-5.53,12.35-12.35,12.35Z"/>
        <path class="cls-28" d="m476.42,489.11v-41.55c0-27.48-22.28-49.76-49.76-49.76s-49.76,22.28-49.76,49.76v41.55c0,6.09,4.94,11.02,11.02,11.02h77.46c6.09,0,11.02-4.94,11.02-11.02Z"/>
        <path class="cls-38" d="m376.91,455.57v-8.18c0-27.66,22.1-49.59,49.76-49.59s49.76,21.93,49.76,49.59v8.18h6v-8.18c0-30.79-24.96-55.75-55.75-55.75s-55.75,24.8-55.75,55.75v8.18h6Z"/>
        <g>
          <path class="cls-10" d="m449.5,396.53c.26.12.53.24.79.36-.26-.12-.53-.24-.79-.36Z"/>
          <path class="cls-13" d="m452.04,397.75c.22.11.45.23.67.34-.22-.12-.45-.23-.67-.34Z"/>
          <path class="cls-12" d="m446.9,395.44c.3.12.61.24.91.36-.3-.12-.61-.24-.91-.36Z"/>
          <path class="cls-14" d="m454.52,399.1c.18.1.36.21.54.31-.18-.11-.36-.21-.54-.31Z"/>
          <path class="cls-1" d="m444.25,394.48c.34.11.68.22,1.02.34-.34-.12-.68-.23-1.02-.34Z"/>
          <path class="cls-25" d="m456.93,400.57c.14.09.28.18.42.27-.14-.09-.28-.18-.42-.27Z"/>
          <path class="cls-2" d="m441.54,393.66c.38.1.75.21,1.12.32-.37-.11-.75-.21-1.12-.32Z"/>
          <path class="cls-16" d="m461.7,404.02c-.06-.05-.13-.1-.19-.15.06.05.13.1.19.15Z"/>
          <polygon class="cls-15" points="465.73 407.61 465.73 407.61 465.72 407.61 465.73 407.61"/>
          <path class="cls-22" d="m463.75,405.77s-.06-.05-.09-.08c.03.03.06.05.09.08Z"/>
          <path class="cls-6" d="m459.26,402.17c.1.07.2.14.3.21-.1-.07-.2-.14-.3-.21Z"/>
          <path class="cls-20" d="m382.95,412.74c.14-.17.27-.35.41-.52-.14.17-.27.34-.41.52Z"/>
          <path class="cls-26" d="m421.55,391.88c.54-.05,1.07-.09,1.61-.12-.54.03-1.08.07-1.61.12Z"/>
          <path class="cls-11" d="m425.94,391.65c-.24,0-.47,0-.71,0-.25,0-.5.03-.75.04.48-.02.97-.03,1.46-.04Z"/>
          <path class="cls-4" d="m417.93,392.32c-13.57,2.09-25.43,8.97-33.85,19.04,8.45-9.98,20.34-16.92,33.85-19.04Z"/>
          <path class="cls-19" d="m418.51,392.23c.66-.1,1.31-.18,1.98-.25-.66.07-1.32.16-1.98.25Z"/>
          <path class="cls-29" d="m426.67,397.8c-27.66,0-49.76,21.93-49.76,49.59v8.18h-6l10.45,8.98c2.64,2.27,6.75.47,6.83-3.02.45-20.33,8.3-66.33,71.85-51.39-8.8-8.02-20.48-12.34-33.37-12.34Z"/>
          <path class="cls-3" d="m433.18,392.03c.45.05.9.11,1.34.17-.45-.06-.89-.12-1.34-.17Z"/>
          <path class="cls-21" d="m436.01,392.43c.43.07.86.15,1.29.23-.43-.08-.86-.16-1.29-.23Z"/>
          <path class="cls-23" d="m438.79,392.97c.41.09.81.18,1.22.28-.4-.1-.81-.19-1.22-.28Z"/>
          <path class="cls-17" d="m430.32,391.77c.47.03.93.06,1.39.11-.46-.04-.93-.08-1.39-.11Z"/>
          <path class="cls-18" d="m427.43,391.65c.48,0,.95.02,1.42.04-.47-.02-.95-.03-1.42-.04Z"/>
        </g>
        <path class="cls-8" d="m482.42,493.95v-46.56c0-17.68-8.23-33.42-21.07-43.63,3.06,27.22-1.6,90.93-88.79,96.38.89,1.62,2.05,2.64,2.8,3.31,2.14,1.78,4.89,2.86,7.9,2.86h86.8c6.82,0,12.35-5.53,12.35-12.35Z"/>
        <path class="cls-40" d="m376.91,455.57v-8.18c0-27.66,22.1-49.59,49.76-49.59s49.76,21.93,49.76,49.59v8.18h6v-8.18c0-30.79-24.96-55.75-55.75-55.75s-55.75,24.8-55.75,55.75v8.18h6Z"/>
      </g>
      <g>
        <g>
          <path class="cls-41" d="m135.51,501.16l-11.06-81.88h0c-28.27,2.66-56.73,2.69-85,.08h0l-10.9,81.9c-1.11,8.35,4.34,16.17,12.57,18.02h0c26.96,6.03,54.91,6.01,81.86-.08h0c8.22-1.86,13.66-9.69,12.53-18.04Z"/>
          <polygon class="cls-41" points="43.51 419.73 43.49 405.36 120.38 405.28 120.39 419.66 124.45 419.28 124.45 419.28 124.42 392 39.42 392.09 39.45 419.36 43.51 419.73"/>
        </g>
        <path class="cls-27" d="m135.51,501.16l-11.06-81.88c-28.27,2.66-56.73,2.69-85,.08l-10.9,81.9c-1.11,8.35,4.34,16.17,12.57,18.02h0c26.96,6.03,54.91,6.01,81.86-.08h0c8.22-1.86,13.66-9.69,12.53-18.04Zm-16.91,12.95h0c-24.07,5.44-49.04,5.46-73.12.07h0c-7.35-1.64-12.22-8.63-11.23-16.09l9.74-73.16c25.26,2.33,50.67,2.3,75.92-.07l9.88,73.14c1.01,7.46-3.85,14.45-11.19,16.11Z"/>
        <polygon class="cls-27" points="43.51 424.63 43.49 405.36 120.38 405.28 120.4 424.55 124.45 424.17 124.45 424.17 124.43 396.9 39.43 396.98 39.45 424.26 43.51 424.63"/>
        <path class="cls-7" d="m135.51,501.16l-7.12-52.72-.86-6.38h0l-3.08-22.77c-2.31.22-4.61.39-6.92.57-6.72,46.13-40.5,95.35-86.88,91.8.57.98,1.27,1.84,1.27,1.84,2.24,2.87,5.4,4.94,9.2,5.79,26.95,6.03,54.91,6.01,81.86-.08h0c8.22-1.86,13.66-9.69,12.53-18.04Z"/>
      </g>
      <g>
        <g>
          <path class="cls-42" d="m288,389.56s-.43-.08-1.17-.19c-4.94-.98-24.56-4.5-42.47-4.63h-.78c-18.18,0-38.32,3.65-43.29,4.63-.75.12-1.96.35-1.96.35v.98l.08.78,3.86,30.98.02.12.94,7.36.67,5.32v.04l.11.98.75.09s.39.04.98.08c.67.08,1.65.15,2.9.27.79.09,1.61.16,2.55.24.39.04.78.04,1.18.08.58.04,1.21.08,1.88.15.39.05.75.09,1.14.09.74.08,1.52.11,2.35.19,3.29.24,6.97.43,10.89.63.94.04,1.92.11,2.94.11.98.04,1.95.08,2.98.12,1.02.04,2.04.08,3.02.08,2.04.04,4.03.08,6.03.08s3.99-.04,6.03-.08c.98,0,1.99-.04,2.98-.08,1.01-.04,2.03-.08,3.02-.12.98,0,1.95-.08,2.93-.11,4.86-.24,9.4-.52,13.21-.79.51-.04.98-.08,1.45-.12,3.88-.31,6.82-.58,8.23-.7.59-.08.9-.12.94-.12l.79-.09.11-.82.63-5.12.9-7.36v-.11s3.88-31.35,3.88-31.35l.11-.82v-.98l-.78-.16Zm-14.77,45.64h-.19c-.21.03-.43.05-.65.08-.25.03-.51.05-.77.07-.27.03-.54.05-.8.07-.24.02-.48.04-.72.06h-.55c-1.84.16-3.8.28-5.88.39-2.08.12-4.27.24-6.46.35-1.96.06-3.94.13-5.94.2-.72.02-1.45.03-2.16.04-1.85.04-3.73.08-5.53.08-1.14,0-2.28,0-3.41-.04-.71,0-1.41,0-2.12-.04h-.55c-2.04-.04-4.08-.12-6.07-.2-.51,0-.99-.04-1.49-.04-.47-.04-.98-.04-1.45-.08-.98-.04-1.96-.08-2.9-.15-.31,0-.62-.04-.94-.04-.66-.05-1.29-.09-1.88-.12h-.32c-.78-.04-1.57-.11-2.36-.15-.85-.08-1.68-.12-2.5-.2-.15,0-.3,0-.43-.03-.13,0-.26-.03-.39-.05h-.55c-.35-.04-.71-.04-1.02-.08-.08-.04-.15-.04-.27-.04h-.35c-.16-.04-.35-.04-.51-.04-.16-.04-.28-.04-.35-.04-.51-.04-1.02-.08-1.46-.11-.86-.09-1.64-.16-2.35-.2-.39-.04-.71-.08-1.02-.08l1.04,1.36-5.19-41.66c6.97-1.25,22.71-3.73,37.25-3.88h1.57c14.96,0,31.5,2.59,38.82,3.88l-5.22,40.38c-1.13.11-2.46.24-3.95.32Z"/>
          <path class="cls-42" d="m288,389.56c-19.08-5.81-70.96-5.63-89.66.16.94,10.85,4.49,36.05,5.68,46.57,25.44,2.79,53.97,2.81,79.13,0,1.19-10.22,4.63-36.03,5.64-46.57l-.78-.16Zm-14.77,45.64c-21.3,1.91-43.04,1.58-64.32-.39l1.04,1.36-5.19-41.66c15.79-4.63,62.03-4.53,77.65,0l-5.22,40.38c-1.13.11-2.46.24-3.95.32Z"/>
          <path class="cls-39" d="m288,389.56c-19.08-5.81-70.96-5.63-89.66.16.94,10.85,4.49,36.05,5.68,46.57,25.44,2.79,53.97,2.81,79.13,0,1.19-10.22,4.63-36.03,5.64-46.57l-.78-.16Zm-14.77,45.64c-21.3,1.91-43.04,1.58-64.32-.39l1.04,1.36-5.19-41.66c15.79-4.63,62.03-4.53,77.65,0l-5.22,40.38c-1.13.11-2.46.24-3.95.32Z"/>
          <path class="cls-29" d="m288,389.56c-19.08-5.81-70.96-5.63-89.66.16.94,10.85,4.49,36.05,5.68,46.57,25.44,2.79,53.97,2.81,79.13,0,1.19-10.22,4.63-36.03,5.64-46.57l-.78-.16Zm-10.81,45.33c-1.13.11-2.46.24-3.95.32-21.01,1.89-42.44,1.58-63.44-.32l-5.03-40.38c15.79-4.63,62.03-4.53,77.65,0l-5.22,40.38Z"/>
          <path class="cls-40" d="m243.58,380.82c-19.98,0-41.99,4.39-44.46,4.9l-.78.16v3.84s0,.98,0,.98l.08.78v.02c.05-.02.1-.04.15-.05.33-.08.68-.11,1.01-.14.17-.01.33-.03.5-.05.02,0,.04,0,.06,0,0,0,.02,0,.03,0,0,0,.03,0,0,0,0,0,0,0,.01,0,.04,0,.08-.01.12-.02.08-.01.15-.03.23-.04.04,0,.08.02.1.05,4.73-.89,24.28-4.46,42.17-4.54h.79c17.95,0,37.89,3.61,42.86,4.56,0,0,0,0,0,0,.03,0,2.21.38,2.21.38l.13-.94v-.28s0-4.53,0-4.53c0,0-27.89-5.05-45.21-5.05Z"/>
        </g>
        <path class="cls-28" d="m285.03,448.79c-.06-.29-1.73-13.25-1.81-13.51-.48-1.61-2.73-.38-4.03-.58v.04c-2.04.12-3.66.36-5.96.47-21.62,1.93-43.73,1.59-65.3-.51-1.33.16-3.53-1.06-4.03.58-4.3,21.01-3.06,59.11-3.17,80.78,5.16,9.07,80.46,8.98,85.67,0-.51-14.87,1.12-53.11-1.37-67.27Z"/>
        <path class="cls-40" d="m243.38,517.34c-19.89,0-32.96-2.15-37.17-3.92,0-3.43-.02-7.19-.04-11.18-.11-19.28-.26-45.16,2.39-61.99,11.93,1.13,23.84,1.7,35.41,1.7,10.07,0,20.03-.43,29.63-1.29,1.31-.07,2.41-.17,3.49-.27.42-.04.84-.08,1.27-.11.19,1.42.39,2.96.56,4.24.66,5.06.67,5.07.73,5.37,1.54,8.81,1.37,29.05,1.23,45.31-.06,7.1-.12,13.4-.03,18.22-4.33,1.77-17.49,3.92-37.46,3.92,0,0,0,0,0,0Z"/>
        <path class="cls-8" d="m286.4,516.05c-.51-14.87,1.12-53.11-1.37-67.27-.06-.29-1.73-13.25-1.81-13.51-.15-.5-.48-.71-.89-.79-3.86,18.25-22.79,85.68-81.6,80.84,0,.24,0,.49,0,.73,5.16,9.07,80.46,8.98,85.67,0Z"/>
      </g>
      <g>
        <rect class="cls-34" x="342.69" y="571.86" width="114.73" height="51.06"/>
        <rect class="cls-32" x="390.56" y="622.92" width="4.68" height="1.83"/>
        <rect class="cls-32" x="404.94" y="622.92" width="4.68" height="1.83"/>
        <polygon class="cls-9" points="457.42 619.6 342.69 619.6 342.69 620.44 399.34 620.44 399.34 622.92 400.77 622.92 400.77 620.44 457.42 620.44 457.42 619.6"/>
      </g>
      <g>
        <rect class="cls-31" x="194.89" y="684.2" width="6.7" height="3.71"/>
        <rect class="cls-35" x="186.46" y="580.79" width="109.5" height="103.51"/>
        <rect class="cls-33" x="186.46" y="677.72" width="109.5" height="1.71"/>
      </g>
    </g>
  </g>
</svg>