<?xml version="1.0" encoding="UTF-8"?>
<svg xmlns="http://www.w3.org/2000/svg" viewBox="0 0 527.18 394.65">
  <defs>
    <style>
      .cls-1 {
        isolation: isolate;
      }

      .cls-2 {
        mix-blend-mode: screen;
        opacity: .27;
      }

      .cls-2, .cls-3, .cls-4, .cls-5 {
        fill: #c38722;
        stroke: #2e3192;
        stroke-miterlimit: 10;
      }

      .cls-6 {
        opacity: .58;
      }

      .cls-4 {
        opacity: .19;
      }

      .cls-4, .cls-5 {
        mix-blend-mode: multiply;
      }

      .cls-5 {
        opacity: .32;
      }
    </style>
  </defs>
  <g class="cls-1">
    <g id="Layer_1" data-name="Layer 1">
      <g class="cls-6">
        <g>
          <path class="cls-4" d="m163.14,112.34c.13.15.26.29.4.43.01.01.02.03.04.04.12.13.23.26.36.39.11.11.23.21.35.32.03.03.06.06.09.08.23.21.47.41.71.6.06.05.12.09.18.13.16.12.31.24.47.35.07.05.15.09.23.14.09.06.19.12.29.18.22.13.43.26.66.39.14.07.28.14.42.2.16.08.32.17.49.24.03.01.07.03.11.04.19.08.39.15.59.23.16.06.32.13.49.18.35.11.7.21,1.06.29.02,0,.05.01.07.02h0c6.63,1.49,13.34,2.52,20.09,3.08,1.35.11,2.7.21,4.05.28,2.7.15,5.4.22,8.11.22,10.81,0,21.63-1.19,32.24-3.58h0c1.21-.27,2.35-.71,3.39-1.29,1.74-.96,3.2-2.3,4.31-3.89.22-.32.43-.65.62-.98.38-.67.71-1.38.97-2.12.26-.74.45-1.5.57-2.29.18-1.18.2-2.4.03-3.63l-8.65-64.5h0v-21.53h0s-66.95,0-66.95,0h0v21.53h0l-8.65,64.5c-.33,2.47.07,4.88,1.03,7,.48,1.06,1.11,2.05,1.86,2.94Zm8.95-85.47h60.56v11.29c-1.72.14-3.44.3-5.16.42-8.36.58-16.74.87-25.12.87-10.1,0-20.2-.45-30.28-1.3v-11.29Z"/>
          <path class="cls-4" d="m240.68,294.68c-.74-.32-1.52-.58-2.34-.77h0c-5.16-1.16-10.37-2.03-15.6-2.63-1.49-.17-2.99-.32-4.49-.45-2.64-.22-5.29-.36-7.94-.44-.07,0-.14,0-.22,0-1.33-.04-2.67-.06-4-.06-2.7,0-5.41.07-8.11.22-1.35.07-2.7.17-4.05.28-6.74.56-13.45,1.59-20.09,3.08h0s-.05.02-.08.02c-.36.08-.71.18-1.06.29-.17.05-.33.12-.49.18-.2.07-.4.14-.59.22-.2.09-.4.19-.6.28-.14.07-.28.13-.42.21-.23.12-.44.25-.66.39-.1.06-.19.11-.29.18-.24.16-.47.32-.7.49-.06.04-.12.09-.18.13-.25.19-.48.39-.71.6-.03.03-.06.06-.1.09-.25.23-.48.46-.71.7-.01.01-.02.03-.04.04-2.24,2.43-3.52,5.69-3.39,9.15.02.41.05.82.11,1.23l8.65,64.5h0v21.53h0s66.95,0,66.95,0h0v-21.53h0s0,0,0,0l8.65-64.5c.11-.82.14-1.64.09-2.44-.27-4.8-3.24-9.07-7.64-10.99Zm-4.29,88.96h-60.56v-11.29c4.51-.38,9.02-.7,13.53-.91,2.79-.13,5.58-.23,8.37-.29,2.79-.06,5.58-.1,8.38-.1,8.38,0,16.76.29,25.12.87,1.72.12,3.44.28,5.16.42v11.29Z"/>
          <path class="cls-4" d="m373.23,294.68c-.74-.32-1.52-.58-2.34-.77h0c-5.17-1.16-10.4-2.04-15.64-2.64-1.48-.17-2.96-.32-4.44-.44-1.35-.11-2.7-.21-4.05-.28-2.7-.15-5.4-.22-8.11-.22-5.41,0-10.81.3-16.19.9-1.35.15-2.69.32-4.03.5-2.68.37-5.36.82-8.02,1.34-1.33.26-2.66.54-3.99.84h0s-.05.02-.08.02c-.36.08-.71.18-1.06.29-.17.05-.33.12-.49.18-.2.07-.4.14-.59.22-.2.09-.4.19-.6.28-.14.07-.28.13-.42.21-.23.12-.44.25-.66.39-.1.06-.19.11-.29.18-.24.16-.47.32-.7.49-.06.04-.12.09-.18.13-.25.19-.48.39-.71.6-.03.03-.06.06-.1.09-.25.23-.48.46-.71.7-.01.01-.02.03-.04.04-2.24,2.43-3.52,5.69-3.39,9.15.02.41.05.82.11,1.23l8.65,64.5v21.53h0s66.95,0,66.95,0h0v-21.53h0s0,0,0,0l8.65-64.5c.11-.82.14-1.64.09-2.44-.27-4.8-3.24-9.07-7.64-10.99Zm-42.95,76.48c2.79-.06,5.58-.1,8.38-.1,10.1,0,20.2.45,30.28,1.3v11.29h-60.56v-11.29c7.29-.61,14.59-1.03,21.9-1.2Z"/>
          <path class="cls-4" d="m382.23,96.32c-3.37-3.21-6.69-6.47-9.94-9.81-10.84-11.16-20.94-23.02-30.26-35.49l8.44-7.49,40.2,45.3-8.44,7.49Z"/>
          <path class="cls-4" d="m526.67,172.7h-21.53l-64.5-8.65c-.82-.11-1.64-.14-2.44-.09-.4.02-.8.06-1.19.12-.78.12-1.55.31-2.29.57-.37.13-.73.27-1.08.44-.71.32-1.38.71-2.02,1.15-.32.22-.63.46-.92.71-.15.13-.29.26-.43.4-.01.01-.02.02-.04.03-.24.23-.48.46-.71.71-.03.03-.05.06-.08.09-.21.23-.41.47-.6.72-.05.06-.09.12-.13.18-.17.23-.34.46-.49.7-.06.09-.12.19-.17.28-.13.22-.27.43-.39.66-.07.13-.14.27-.2.41-.1.2-.2.4-.28.6-.08.19-.15.39-.22.59-.06.16-.13.32-.18.49-.11.34-.21.7-.29,1.06,0,.03-.02.05-.02.08h0c-.3,1.33-.58,2.66-.84,3.99-.52,2.66-.97,5.34-1.34,8.02-.19,1.34-.35,2.69-.5,4.03-.6,5.38-.9,10.79-.9,16.19,0,2.7.07,5.41.22,8.11.15,2.7.37,5.4.67,8.09.3,2.69.67,5.38,1.12,8.05.45,2.68.97,5.34,1.57,7.99h0c.18.81.44,1.59.76,2.32.16.37.34.73.53,1.07,2.11,3.82,6.07,6.34,10.47,6.59.8.05,1.62.02,2.44-.09l64.5-8.65h0s0,0,0,0h21.53v-66.95h0Zm-10.5,63.76h-11.29c-.38-4.51-.7-9.02-.91-13.53-.13-2.79-.23-5.58-.29-8.37-.06-2.79-.1-5.58-.1-8.38s.03-5.59.1-8.38c.17-7.31.58-14.61,1.2-21.9h11.29v60.56Z"/>
          <path class="cls-4" d="m119.23,189.98c-.15-1.35-.32-2.69-.5-4.03-.37-2.68-.82-5.36-1.34-8.02-.26-1.33-.54-2.66-.84-3.99h0s-.02-.05-.02-.08c-.08-.36-.18-.71-.29-1.06-.05-.17-.12-.33-.18-.49-.07-.2-.14-.4-.22-.59-.09-.2-.19-.4-.28-.6-.07-.14-.13-.28-.2-.41-.12-.23-.25-.44-.39-.66-.06-.09-.11-.19-.17-.28-.16-.24-.32-.47-.49-.7-.04-.06-.09-.12-.13-.18-.19-.25-.39-.49-.6-.72-.03-.03-.05-.06-.08-.09-.23-.25-.46-.48-.71-.71-.01-.01-.02-.02-.04-.03-.14-.13-.28-.27-.43-.4-.3-.25-.61-.49-.92-.71-.64-.44-1.31-.83-2.02-1.15-.35-.16-.72-.31-1.08-.44-.74-.26-1.5-.45-2.29-.57-.39-.06-.79-.1-1.19-.12-.8-.05-1.62-.02-2.44.09l-64.5,8.65h-21.53v66.95h21.53s64.5,8.65,64.5,8.65c.82.11,1.64.14,2.44.09,4.41-.25,8.36-2.77,10.47-6.59.19-.35.37-.7.53-1.07.32-.74.58-1.51.76-2.32h0c.6-2.65,1.12-5.32,1.57-7.99.45-2.68.82-5.36,1.12-8.05.3-2.69.52-5.39.67-8.09.15-2.7.22-5.4.22-8.11,0-5.41-.3-10.81-.9-16.19Zm-92.42,46.47v-60.56h11.29c.61,7.29,1.03,14.59,1.2,21.9.06,2.79.1,5.58.1,8.38s-.03,5.59-.1,8.38c-.06,2.79-.16,5.58-.29,8.37-.21,4.51-.53,9.02-.91,13.53h-11.29Z"/>
        </g>
        <g>
          <g>
            <path class="cls-3" d="m228.64,86.53l-8.65-64.5h0c-22.27,2.07-44.68,2.07-66.95,0h0l-8.65,64.5c-.88,6.58,3.41,12.74,9.89,14.2h0c21.23,4.77,43.25,4.77,64.48,0h0c6.48-1.46,10.77-7.62,9.89-14.2Z"/>
            <polygon class="cls-2" points="156.23 22.33 156.23 11 216.8 11 216.8 22.33 219.99 22.03 219.99 22.03 219.99 .55 153.04 .55 153.04 22.03 156.23 22.33"/>
          </g>
          <path class="cls-3" d="m228.64,86.53l-8.65-64.5c-22.27,2.07-44.68,2.07-66.95,0l-8.65,64.5c-.88,6.58,3.41,12.74,9.89,14.2h0c21.23,4.77,43.25,4.77,64.48,0h0c6.48-1.46,10.77-7.62,9.89-14.2Zm-13.33,10.19h0c-18.96,4.26-38.63,4.26-57.59,0h0c-5.78-1.3-9.62-6.81-8.83-12.68l7.72-57.61c19.89,1.85,39.91,1.85,59.8,0l7.72,57.61c.79,5.88-3.04,11.38-8.83,12.68Z"/>
          <polygon class="cls-3" points="156.23 26.18 156.23 11 216.8 11 216.8 26.18 219.99 25.89 219.99 25.89 219.99 4.4 153.04 4.4 153.04 25.89 156.23 26.18"/>
          <rect class="cls-3" x="153.04" y=".5" width="66.95" height="3.9"/>
          <rect class="cls-3" x="153.04" y=".5" width="66.95" height="3.9"/>
          <path class="cls-5" d="m218.75,100.73h0c6.48-1.46,10.77-7.62,9.89-14.2l-8.65-64.5c-1.82.17-3.63.3-5.45.44-2.22,15.93-14.74,76.36-67.88,72.24.11.48.22.93.33,1.39,1.76,2.26,4.28,3.95,7.28,4.62h0c21.23,4.77,43.25,4.77,64.48,0Z"/>
        </g>
        <g>
          <g>
            <path class="cls-3" d="m86.53,232.3l-64.5-8.65h0c2.07-22.27,2.07-44.68,0-66.95h0l64.5-8.65c6.58-.88,12.74,3.41,14.2,9.89h0c4.77,21.23,4.77,43.25,0,64.48h0c-1.46,6.48-7.62,10.77-14.2,9.89Z"/>
            <polygon class="cls-2" points="22.33 159.9 11 159.9 11 220.46 22.33 220.46 22.03 223.65 22.03 223.65 .55 223.65 .55 156.7 22.03 156.7 22.33 159.9"/>
          </g>
          <path class="cls-3" d="m100.73,222.42h0c4.77-21.23,4.77-43.25,0-64.48h0c-1.46-6.48-7.62-10.77-14.2-9.89l-64.5,8.65c2.07,22.27,2.07,44.68,0,66.95l64.5,8.65c6.58.88,12.74-3.41,14.2-9.89Zm-16.69,5.39l-57.61-7.72c1.85-19.89,1.85-39.91,0-59.8l57.61-7.73c5.88-.79,11.38,3.04,12.68,8.83h0c4.26,18.96,4.26,38.63,0,57.59h0c-1.3,5.79-6.81,9.62-12.68,8.83Z"/>
          <polygon class="cls-3" points="26.18 159.9 11 159.9 11 220.46 26.18 220.46 25.89 223.65 25.89 223.65 4.4 223.65 4.4 156.7 25.89 156.7 26.18 159.9"/>
          <rect class="cls-3" x="-31.02" y="188.23" width="66.95" height="3.9" transform="translate(192.63 187.72) rotate(90)"/>
          <rect class="cls-3" x="-31.02" y="188.23" width="66.95" height="3.9" transform="translate(192.63 187.73) rotate(90)"/>
          <path class="cls-5" d="m100.73,222.42h0c-1.46,6.48-7.62,10.77-14.2,9.89l-64.5-8.65c.17-1.82.3-3.63.44-5.45,15.93-2.22,76.36-14.74,72.24-67.88.48.11.93.22,1.39.33,2.26,1.76,3.95,4.28,4.62,7.28h0c4.77,21.23,4.77,43.25,0,64.48Z"/>
        </g>
        <g>
          <g>
            <path class="cls-3" d="m325.74,131.96l42.5-49.28h0c-16.33-15.28-31.21-32.04-44.44-50.07h0l-53.98,36.35c-5.51,3.71-7.27,11.01-4.06,16.82h0c10.52,19.05,25.14,35.52,42.8,48.22h0c5.39,3.88,12.85,3,17.18-2.03Z"/>
            <polygon class="cls-2" points="325.69 35.19 334.16 27.67 374.36 72.97 365.89 80.49 368.24 82.68 368.24 82.68 384.3 68.42 339.86 18.34 323.79 32.6 325.69 35.19"/>
          </g>
          <path class="cls-3" d="m325.74,131.96l42.5-49.28c-16.33-15.28-31.21-32.04-44.44-50.07l-53.98,36.35c-5.51,3.71-7.27,11.01-4.06,16.82h0c10.52,19.05,25.14,35.52,42.8,48.22h0c5.39,3.88,12.85,3,17.18-2.03Zm-16.47-3.2h0c-15.78-11.35-28.83-26.06-38.23-43.07h0c-2.87-5.19-1.29-11.71,3.63-15.02l48.22-32.47c11.82,16.11,25.11,31.08,39.7,44.73l-37.96,44.02c-3.87,4.49-10.53,5.28-15.35,1.82Z"/>
          <polygon class="cls-3" points="322.81 37.75 334.16 27.67 374.36 72.97 363.01 83.05 365.35 85.24 365.35 85.24 381.42 70.98 336.98 20.9 320.91 35.16 322.81 37.75"/>
          <rect class="cls-3" x="327.18" y="42.7" width="66.95" height="3.9" transform="translate(154.65 -254.73) rotate(48.41)"/>
          <rect class="cls-3" x="327.18" y="42.69" width="66.95" height="3.9" transform="translate(154.65 -254.73) rotate(48.41)"/>
          <path class="cls-5" d="m308.55,134h0c5.39,3.88,12.85,3,17.18-2.03l42.5-49.28c-1.33-1.25-2.64-2.52-3.95-3.78-13.39,8.91-66.9,39.67-99.08-2.81-.28.4-.55.78-.82,1.17-.52,2.82-.11,5.83,1.37,8.51h0c10.52,19.05,25.14,35.52,42.8,48.22Z"/>
        </g>
        <g>
          <rect class="cls-4" x="137.26" y="132.39" width="281.31" height="158.67" transform="translate(555.82 423.44) rotate(180)"/>
          <g>
            <rect class="cls-3" x="115.71" y="110.84" width="281.31" height="158.67" transform="translate(512.73 380.36) rotate(180)"/>
            <rect class="cls-3" x="187.83" y="59.67" width="137.06" height="261.02" transform="translate(446.54 -66.19) rotate(90)"/>
          </g>
        </g>
        <g>
          <g>
            <path class="cls-3" d="m424.78,232.3l64.5-8.65h0c-2.07-22.27-2.07-44.68,0-66.95h0l-64.5-8.65c-6.58-.88-12.74,3.41-14.2,9.89h0c-4.77,21.23-4.77,43.25,0,64.48h0c1.46,6.48,7.62,10.77,14.2,9.89Z"/>
            <polygon class="cls-2" points="488.99 159.9 500.31 159.9 500.31 220.46 488.99 220.46 489.29 223.65 489.29 223.65 510.77 223.65 510.77 156.7 489.29 156.7 488.99 159.9"/>
          </g>
          <path class="cls-3" d="m424.78,232.3l64.5-8.65c-2.07-22.27-2.07-44.68,0-66.95l-64.5-8.65c-6.58-.88-12.74,3.41-14.2,9.89h0c-4.77,21.23-4.77,43.25,0,64.48h0c1.46,6.48,7.62,10.77,14.2,9.89Zm-10.19-13.33h0c-4.26-18.96-4.26-38.63,0-57.59h0c1.3-5.79,6.81-9.62,12.68-8.83l57.61,7.73c-1.85,19.89-1.85,39.91,0,59.8l-57.61,7.72c-5.88.79-11.38-3.04-12.68-8.83Z"/>
          <polygon class="cls-3" points="485.13 159.9 500.31 159.9 500.31 220.46 485.13 220.46 485.43 223.65 485.43 223.65 506.91 223.65 506.91 156.7 485.43 156.7 485.13 159.9"/>
          <rect class="cls-3" x="475.39" y="188.23" width="66.95" height="3.9" transform="translate(699.04 -318.69) rotate(90)"/>
          <rect class="cls-3" x="475.39" y="188.23" width="66.95" height="3.9" transform="translate(699.04 -318.69) rotate(90)"/>
          <path class="cls-5" d="m410.58,222.42h0c1.46,6.48,7.62,10.77,14.2,9.89l64.5-8.65c-.17-1.82-.3-3.63-.44-5.45-15.93-2.22-76.36-14.74-72.24-67.88-.48.11-.93.22-1.39.33-2.26,1.76-3.95,4.28-4.62,7.28h0c-4.77,21.23-4.77,43.25,0,64.48Z"/>
        </g>
        <g>
          <g>
            <path class="cls-3" d="m232.38,292.26l-8.65,64.5h0c-22.27-2.07-44.68-2.07-66.95,0h0l-8.65-64.5c-.88-6.58,3.41-12.74,9.89-14.2h0c21.23-4.77,43.25-4.77,64.48,0h0c6.48,1.46,10.77,7.62,9.89,14.2Z"/>
            <polygon class="cls-2" points="159.97 356.46 159.97 367.79 220.53 367.79 220.53 356.46 223.73 356.76 223.73 356.76 223.73 378.24 156.78 378.24 156.78 356.76 159.97 356.46"/>
          </g>
          <path class="cls-3" d="m222.49,278.06h0c-21.23-4.77-43.25-4.77-64.48,0h0c-6.48,1.46-10.77,7.62-9.89,14.2l8.65,64.5c22.27-2.07,44.68-2.07,66.95,0l8.65-64.5c.88-6.58-3.41-12.74-9.89-14.2Zm5.39,16.69l-7.73,57.61c-19.89-1.85-39.91-1.85-59.8,0l-7.72-57.61c-.79-5.88,3.04-11.38,8.83-12.68h0c18.96-4.26,38.63-4.26,57.59,0h0c5.79,1.3,9.62,6.81,8.83,12.68Z"/>
          <polygon class="cls-3" points="159.97 352.61 159.97 367.79 220.53 367.79 220.53 352.61 223.73 352.9 223.73 352.9 223.73 374.39 156.78 374.39 156.78 352.9 159.97 352.61"/>
          <rect class="cls-3" x="156.78" y="374.39" width="66.95" height="3.9"/>
          <rect class="cls-3" x="156.78" y="374.39" width="66.95" height="3.9"/>
          <path class="cls-5" d="m222.49,278.06h0c6.48,1.46,10.77,7.62,9.89,14.2l-8.65,64.5c-1.82-.17-3.63-.3-5.45-.44-2.22-15.93-14.74-76.36-67.88-72.24.11-.48.22-.93.33-1.39,1.76-2.26,4.28-3.95,7.28-4.62h0c21.23-4.77,43.25-4.77,64.48,0Z"/>
        </g>
        <g>
          <g>
            <path class="cls-3" d="m364.92,292.26l-8.65,64.5h0c-22.27-2.07-44.68-2.07-66.95,0h0l-8.65-64.5c-.88-6.58,3.41-12.74,9.89-14.2h0c21.23-4.77,43.25-4.77,64.48,0h0c6.48,1.46,10.77,7.62,9.89,14.2Z"/>
            <polygon class="cls-2" points="292.51 356.46 292.51 367.79 353.08 367.79 353.08 356.46 356.27 356.76 356.27 356.76 356.27 378.24 289.32 378.24 289.32 356.76 292.51 356.46"/>
          </g>
          <path class="cls-3" d="m355.03,278.06h0c-21.23-4.77-43.25-4.77-64.48,0h0c-6.48,1.46-10.77,7.62-9.89,14.2l8.65,64.5c22.27-2.07,44.68-2.07,66.95,0l8.65-64.5c.88-6.58-3.41-12.74-9.89-14.2Zm5.39,16.69l-7.72,57.61c-19.89-1.85-39.91-1.85-59.8,0l-7.72-57.61c-.79-5.88,3.04-11.38,8.83-12.68h0c18.96-4.26,38.63-4.26,57.59,0h0c5.79,1.3,9.62,6.81,8.83,12.68Z"/>
          <polygon class="cls-3" points="292.51 352.61 292.51 367.79 353.08 367.79 353.08 352.61 356.27 352.9 356.27 352.9 356.27 374.39 289.32 374.39 289.32 352.9 292.51 352.61"/>
          <rect class="cls-3" x="289.32" y="374.39" width="66.95" height="3.9"/>
          <rect class="cls-3" x="289.32" y="374.39" width="66.95" height="3.9"/>
          <path class="cls-5" d="m355.03,278.06h0c6.48,1.46,10.77,7.62,9.89,14.2l-8.65,64.5c-1.82-.17-3.63-.3-5.45-.44-2.22-15.93-14.74-76.36-67.88-72.24.11-.48.22-.93.33-1.39,1.76-2.26,4.28-3.95,7.28-4.62h0c21.23-4.77,43.25-4.77,64.48,0Z"/>
        </g>
      </g>
    </g>
  </g>
</svg>