<?xml version="1.0" encoding="UTF-8"?>
<svg xmlns="http://www.w3.org/2000/svg" xmlns:xlink="http://www.w3.org/1999/xlink" viewBox="0 0 374.18 263.54">
  <defs>
    <style>
      .cls-1 {
        fill: #ddd;
      }

      .cls-2 {
        fill: #e9e9e9;
      }

      .cls-3 {
        fill: url(#linear-gradient-2);
      }

      .cls-4 {
        fill: #f0f0f0;
      }

      .cls-5 {
        fill: #f4f4f4;
      }

      .cls-6 {
        fill: #fff;
      }

      .cls-7 {
        fill: #cbcbcb;
      }

      .cls-8 {
        fill: #d1d1d1;
      }

      .cls-9 {
        fill: #fafafa;
      }

      .cls-10 {
        fill: #dbdbdb;
      }

      .cls-11 {
        fill: #cacaca;
      }

      .cls-12 {
        fill: #d8d8d8;
      }

      .cls-13 {
        fill: #f6f6f6;
      }

      .cls-14 {
        fill: #e2e2e2;
      }

      .cls-15 {
        fill: #f5f5f5;
      }

      .cls-16 {
        isolation: isolate;
      }

      .cls-17 {
        fill: #d6d6d6;
      }

      .cls-18 {
        fill: #c9c9c9;
      }

      .cls-19 {
        fill: #e0e0e0;
      }

      .cls-20 {
        fill: #c7c7c7;
      }

      .cls-21 {
        fill: #dedede;
      }

      .cls-22 {
        fill: #cfcfcf;
      }

      .cls-23 {
        fill: #d7d7d7;
      }

      .cls-24 {
        fill: #e1e1e1;
      }

      .cls-25 {
        fill: #e6e6e6;
      }

      .cls-26 {
        fill: #e7e7e7;
      }

      .cls-27 {
        fill: #d4d4d4;
      }

      .cls-28 {
        fill: #dadada;
      }

      .cls-29 {
        fill: #eaeaea;
      }

      .cls-30 {
        fill: #c8c8c8;
      }

      .cls-31 {
        fill: #fdfdfd;
      }

      .cls-32 {
        fill: #e4e4e4;
      }

      .cls-33 {
        fill: #fbfbfb;
      }

      .cls-34 {
        fill: #f9f9f9;
      }

      .cls-35 {
        fill: #8f8f8e;
      }

      .cls-36 {
        fill: #e5e5e5;
      }

      .cls-37 {
        fill: #d3d3d3;
      }

      .cls-38 {
        fill: #ebebeb;
      }

      .cls-39 {
        fill: #d5d5d5;
      }

      .cls-40 {
        fill: #dcdcdc;
      }

      .cls-41 {
        fill: #e8e8e8;
      }

      .cls-42 {
        fill: #ccc;
      }

      .cls-43 {
        fill: #f7f7f7;
      }

      .cls-44 {
        fill: #efefef;
      }

      .cls-45 {
        fill: #f1f1f1;
      }

      .cls-46 {
        fill: #cecece;
      }

      .cls-47 {
        fill: url(#linear-gradient);
      }

      .cls-48 {
        fill: #f3f3f3;
      }

      .cls-49 {
        fill: #d9d9d9;
      }

      .cls-50 {
        fill: #cdcdcd;
      }

      .cls-51 {
        fill: #f8f8f8;
      }

      .cls-52 {
        fill: #d2d2d2;
      }

      .cls-53 {
        fill: #c6c6c6;
      }

      .cls-54 {
        fill: #eee;
      }

      .cls-55 {
        fill: #d0d0d0;
      }

      .cls-56 {
        mix-blend-mode: multiply;
      }

      .cls-57 {
        fill: #ececec;
      }

      .cls-58 {
        fill: #f2f2f2;
      }

      .cls-59 {
        fill: #fefefe;
      }

      .cls-60 {
        fill: #e3e3e3;
      }

      .cls-61 {
        fill: #fcfcfc;
      }

      .cls-62 {
        fill: #ededed;
      }

      .cls-63 {
        fill: #dfdfdf;
      }
    </style>
    <linearGradient id="linear-gradient" x1="1950.24" y1="-162.93" x2="2232.45" y2="-162.93" gradientTransform="translate(2318.54 -49.14) rotate(-180)" gradientUnits="userSpaceOnUse">
      <stop offset="0" stop-color="#fff"/>
      <stop offset="1" stop-color="#d6d6d6"/>
    </linearGradient>
    <linearGradient id="linear-gradient-2" x1="1949.31" y1="-162.93" x2="2233.37" y2="-162.93" xlink:href="#linear-gradient"/>
  </defs>
  <g class="cls-16">
    <g id="Layer_1" data-name="Layer 1">
      <g class="cls-56">
        <path class="cls-6" d="m281.83,16.86H12.15c-6.7,0-12.15,4.24-12.15,9.46v209.59c0,.97.24,1.9.59,2.78v24.84h291.41v-22.47c1.25-1.49,1.99-3.25,1.99-5.16V26.32c0-5.22-5.46-9.46-12.16-9.46Z"/>
        <path class="cls-59" d="m283.22,16.57H13.53c-6.7,0-12.15,4.24-12.15,9.46v209.59c0,.97.24,1.9.59,2.78v24.84h291.41v-22.47c1.25-1.49,1.99-3.25,1.99-5.16V26.03c0-5.22-5.46-9.46-12.16-9.46Z"/>
        <path class="cls-31" d="m284.6,16.27H14.92c-6.7,0-12.15,4.24-12.15,9.46v209.59c0,.97.24,1.9.59,2.78v24.84h291.41v-22.47c1.25-1.49,1.99-3.25,1.99-5.16V25.74c0-5.22-5.46-9.46-12.16-9.46Z"/>
        <path class="cls-61" d="m285.98,15.98H16.3c-6.7,0-12.15,4.24-12.15,9.46v209.59c0,.97.24,1.9.59,2.78v24.84h291.41v-22.47c1.25-1.49,1.99-3.25,1.99-5.16V25.45c0-5.22-5.46-9.46-12.16-9.46Z"/>
        <path class="cls-33" d="m287.37,15.69H17.68c-6.7,0-12.15,4.24-12.15,9.46v209.59c0,.97.24,1.9.59,2.78v24.84h291.41v-22.47c1.25-1.49,1.99-3.25,1.99-5.16V25.16c0-5.22-5.46-9.46-12.16-9.46Z"/>
        <path class="cls-9" d="m288.75,15.4H19.06c-6.7,0-12.15,4.24-12.15,9.46v209.59c0,.97.24,1.9.59,2.78v24.84h291.41v-22.47c1.25-1.49,1.99-3.25,1.99-5.16V24.87c0-5.22-5.46-9.46-12.16-9.46Z"/>
        <path class="cls-34" d="m290.13,15.11H20.45c-6.7,0-12.15,4.24-12.15,9.46v209.59c0,.97.24,1.9.59,2.78v24.84h291.41v-22.47c1.25-1.49,1.99-3.25,1.99-5.16V24.57c0-5.22-5.46-9.46-12.16-9.46Z"/>
        <path class="cls-51" d="m291.51,14.82H21.83c-6.7,0-12.15,4.24-12.15,9.46v209.59c0,.97.24,1.9.59,2.78v24.84h291.41v-22.47c1.25-1.49,1.99-3.25,1.99-5.16V24.28c0-5.22-5.46-9.46-12.16-9.46Z"/>
        <path class="cls-43" d="m292.9,14.53H23.21c-6.7,0-12.15,4.24-12.15,9.46v209.59c0,.97.24,1.9.59,2.78v24.84h291.41v-22.47c1.25-1.49,1.99-3.25,1.99-5.16V23.99c0-5.22-5.46-9.46-12.16-9.46Z"/>
        <path class="cls-13" d="m294.28,14.24H24.6c-6.7,0-12.15,4.24-12.15,9.46v209.59c0,.97.24,1.9.59,2.78v24.84h291.41v-22.47c1.25-1.49,1.99-3.25,1.99-5.15V23.7c0-5.22-5.46-9.46-12.16-9.46Z"/>
        <path class="cls-15" d="m295.66,13.95H25.98c-6.7,0-12.15,4.24-12.15,9.46v209.59c0,.97.24,1.9.59,2.78v24.84h291.41v-22.47c1.25-1.49,1.99-3.25,1.99-5.15V23.41c0-5.22-5.46-9.46-12.16-9.46Z"/>
        <path class="cls-5" d="m297.04,13.66H27.36c-6.7,0-12.15,4.24-12.15,9.46v209.59c0,.97.24,1.9.59,2.78v24.84h291.41v-22.47c1.25-1.49,1.99-3.25,1.99-5.15V23.12c0-5.22-5.46-9.46-12.16-9.46Z"/>
        <path class="cls-48" d="m298.43,13.37H28.74c-6.7,0-12.15,4.24-12.15,9.46v209.59c0,.97.24,1.9.59,2.78v24.84h291.41v-22.47c1.25-1.49,1.99-3.25,1.99-5.15V22.83c0-5.22-5.46-9.46-12.16-9.46Z"/>
        <path class="cls-58" d="m299.81,13.08H30.13c-6.7,0-12.15,4.24-12.15,9.46v209.59c0,.97.24,1.9.59,2.78v24.84h291.41v-22.47c1.25-1.49,1.99-3.25,1.99-5.15V22.54c0-5.22-5.46-9.46-12.16-9.46Z"/>
        <path class="cls-45" d="m301.19,12.79H31.51c-6.7,0-12.15,4.24-12.15,9.46v209.59c0,.97.24,1.9.59,2.78v24.84h291.41v-22.47c1.25-1.49,1.99-3.25,1.99-5.15V22.25c0-5.22-5.46-9.46-12.16-9.46Z"/>
        <path class="cls-4" d="m302.58,12.5H32.89c-6.7,0-12.15,4.24-12.15,9.46v209.59c0,.97.24,1.9.59,2.78v24.84h291.41v-22.47c1.25-1.49,1.99-3.25,1.99-5.15V21.96c0-5.22-5.46-9.46-12.16-9.46Z"/>
        <path class="cls-44" d="m303.96,12.21H34.28c-6.7,0-12.15,4.24-12.15,9.46v209.59c0,.97.24,1.9.59,2.78v24.84h291.41v-22.47c1.25-1.49,1.99-3.25,1.99-5.15V21.67c0-5.22-5.46-9.46-12.16-9.46Z"/>
        <path class="cls-54" d="m305.34,11.92H35.66c-6.7,0-12.15,4.24-12.15,9.46v209.59c0,.97.24,1.9.59,2.78v24.84h291.41v-22.47c1.25-1.49,1.99-3.25,1.99-5.15V21.38c0-5.22-5.46-9.46-12.16-9.46Z"/>
        <path class="cls-62" d="m306.72,11.62H37.04c-6.7,0-12.15,4.24-12.15,9.46v209.59c0,.97.24,1.9.59,2.78v24.84h291.41v-22.47c1.25-1.49,1.99-3.25,1.99-5.15V21.09c0-5.22-5.46-9.46-12.16-9.46Z"/>
        <path class="cls-57" d="m308.11,11.33H38.42c-6.7,0-12.15,4.24-12.15,9.46v209.59c0,.97.24,1.9.59,2.78v24.84h291.41v-22.47c1.25-1.49,1.99-3.25,1.99-5.15V20.8c0-5.22-5.46-9.46-12.16-9.46Z"/>
        <path class="cls-38" d="m309.49,11.04H39.81c-6.7,0-12.15,4.24-12.15,9.46v209.59c0,.97.24,1.9.59,2.78v24.84h291.41v-22.47c1.25-1.49,1.99-3.25,1.99-5.15V20.51c0-5.22-5.46-9.46-12.16-9.46Z"/>
        <path class="cls-29" d="m310.87,10.75H41.19c-6.7,0-12.15,4.24-12.15,9.46v209.59c0,.97.24,1.9.59,2.78v24.84h291.41v-22.47c1.25-1.49,1.99-3.25,1.99-5.15V20.22c0-5.22-5.46-9.46-12.16-9.46Z"/>
        <path class="cls-2" d="m312.25,10.46H42.57c-6.7,0-12.15,4.24-12.15,9.46v209.59c0,.97.24,1.9.59,2.78v24.84h291.41v-22.47c1.25-1.49,1.99-3.25,1.99-5.15V19.93c0-5.22-5.46-9.46-12.16-9.46Z"/>
        <path class="cls-41" d="m313.64,10.17H43.95c-6.7,0-12.15,4.24-12.15,9.46v209.59c0,.97.24,1.9.59,2.78v24.84h291.41v-22.47c1.25-1.49,1.99-3.25,1.99-5.15V19.64c0-5.22-5.46-9.46-12.16-9.46Z"/>
        <path class="cls-26" d="m315.02,9.88H45.34c-6.7,0-12.15,4.24-12.15,9.46v209.59c0,.97.24,1.89.59,2.78v24.84h291.41v-22.47c1.25-1.49,1.99-3.25,1.99-5.15V19.35c0-5.22-5.46-9.46-12.16-9.46Z"/>
        <path class="cls-25" d="m316.4,9.59H46.72c-6.7,0-12.15,4.24-12.15,9.46v209.59c0,.97.24,1.89.59,2.78v24.84h291.41v-22.47c1.25-1.49,1.99-3.25,1.99-5.15V19.06c0-5.22-5.46-9.46-12.16-9.46Z"/>
        <path class="cls-36" d="m317.79,9.3H48.1c-6.7,0-12.15,4.24-12.15,9.46v209.59c0,.97.24,1.89.59,2.78v24.84h291.41v-22.47c1.25-1.49,1.99-3.25,1.99-5.15V18.76c0-5.22-5.46-9.46-12.16-9.46Z"/>
        <path class="cls-32" d="m319.17,9.01H49.49c-6.7,0-12.15,4.24-12.15,9.46v209.59c0,.97.24,1.89.59,2.78v24.84h291.41v-22.47c1.25-1.49,1.99-3.25,1.99-5.15V18.47c0-5.22-5.46-9.46-12.16-9.46Z"/>
        <path class="cls-60" d="m320.55,8.72H50.87c-6.7,0-12.15,4.24-12.15,9.47v209.59c0,.97.24,1.89.59,2.78v24.84h291.41v-22.47c1.25-1.49,1.99-3.25,1.99-5.15V18.18c0-5.22-5.46-9.47-12.16-9.47Z"/>
        <path class="cls-14" d="m321.93,8.43H52.25c-6.7,0-12.15,4.24-12.15,9.47v209.59c0,.97.24,1.89.59,2.78v24.84h291.41v-22.47c1.25-1.49,1.99-3.25,1.99-5.15V17.89c0-5.22-5.46-9.47-12.15-9.47Z"/>
        <path class="cls-14" d="m323.32,8.14H53.63c-6.7,0-12.15,4.24-12.15,9.47v209.59c0,.97.24,1.89.59,2.78v24.84h291.41v-22.47c1.25-1.49,1.99-3.25,1.99-5.15V17.6c0-5.22-5.46-9.47-12.15-9.47Z"/>
        <path class="cls-24" d="m324.7,7.85H55.02c-6.7,0-12.15,4.24-12.15,9.47v209.59c0,.97.24,1.89.59,2.78v24.85h291.41v-22.47c1.25-1.49,1.99-3.25,1.99-5.15V17.31c0-5.22-5.46-9.47-12.15-9.47Z"/>
        <path class="cls-19" d="m326.08,7.56H56.4c-6.7,0-12.15,4.24-12.15,9.47v209.59c0,.97.24,1.89.59,2.78v24.85h291.41v-22.47c1.25-1.49,1.99-3.25,1.99-5.15V17.02c0-5.22-5.45-9.47-12.15-9.47Z"/>
        <path class="cls-63" d="m327.46,7.27H57.78c-6.7,0-12.15,4.24-12.15,9.47v209.59c0,.97.24,1.89.59,2.78v24.85h291.41v-22.47c1.25-1.49,1.99-3.25,1.99-5.15V16.73c0-5.22-5.45-9.47-12.15-9.47Z"/>
        <path class="cls-21" d="m328.85,6.97H59.17c-6.7,0-12.15,4.24-12.15,9.47v209.59c0,.97.24,1.89.59,2.78v24.85h291.41v-22.47c1.25-1.49,1.99-3.25,1.99-5.15V16.44c0-5.22-5.45-9.47-12.15-9.47Z"/>
        <path class="cls-1" d="m330.23,6.68H60.55c-6.7,0-12.15,4.24-12.15,9.47v209.59c0,.97.24,1.89.59,2.78v24.85h291.41v-22.47c1.25-1.49,1.99-3.25,1.99-5.15V16.15c0-5.22-5.45-9.47-12.15-9.47Z"/>
        <path class="cls-40" d="m331.61,6.39H61.93c-6.7,0-12.15,4.24-12.15,9.47v209.59c0,.97.24,1.89.59,2.78v24.85h291.41v-22.47c1.25-1.49,1.99-3.25,1.99-5.15V15.86c0-5.22-5.45-9.47-12.15-9.47Z"/>
        <path class="cls-10" d="m333,6.1H63.31c-6.7,0-12.15,4.24-12.15,9.47v209.59c0,.97.24,1.89.59,2.78v24.85h291.41v-22.47c1.25-1.49,1.99-3.25,1.99-5.15V15.57c0-5.22-5.45-9.47-12.15-9.47Z"/>
        <path class="cls-28" d="m334.38,5.81H64.7c-6.7,0-12.15,4.24-12.15,9.47v209.59c0,.97.24,1.89.59,2.78v24.85h291.41v-22.47c1.25-1.49,1.99-3.25,1.99-5.15V15.28c0-5.22-5.45-9.47-12.15-9.47Z"/>
        <path class="cls-49" d="m335.76,5.52H66.08c-6.7,0-12.15,4.24-12.15,9.47v209.59c0,.97.24,1.89.59,2.78v24.85h291.41v-22.47c1.25-1.49,1.99-3.25,1.99-5.15V14.99c0-5.22-5.45-9.47-12.15-9.47Z"/>
        <path class="cls-12" d="m337.14,5.23H67.46c-6.7,0-12.15,4.24-12.15,9.47v209.59c0,.97.24,1.89.59,2.78v24.85h291.41v-22.47c1.25-1.48,1.99-3.25,1.99-5.15V14.7c0-5.22-5.45-9.47-12.15-9.47Z"/>
        <path class="cls-23" d="m338.53,4.94H68.84c-6.7,0-12.15,4.24-12.15,9.47v209.59c0,.97.24,1.89.59,2.78v24.85h291.41v-22.47c1.25-1.48,1.99-3.25,1.99-5.15V14.41c0-5.22-5.45-9.47-12.15-9.47Z"/>
        <path class="cls-17" d="m339.91,4.65H70.23c-6.7,0-12.15,4.24-12.15,9.47v209.59c0,.97.24,1.89.59,2.78v24.85h291.41v-22.47c1.25-1.48,1.99-3.25,1.99-5.15V14.12c0-5.22-5.45-9.47-12.15-9.47Z"/>
        <path class="cls-39" d="m341.29,4.36H71.61c-6.7,0-12.15,4.24-12.15,9.47v209.59c0,.97.24,1.89.59,2.78v24.85h291.41v-22.47c1.25-1.48,1.99-3.25,1.99-5.15V13.83c0-5.22-5.45-9.47-12.15-9.47Z"/>
        <path class="cls-27" d="m342.67,4.07H72.99c-6.7,0-12.15,4.24-12.15,9.47v209.59c0,.97.24,1.89.59,2.78v24.85h291.41v-22.47c1.25-1.48,1.99-3.25,1.99-5.15V13.54c0-5.22-5.45-9.47-12.15-9.47Z"/>
        <path class="cls-37" d="m344.06,3.78H74.38c-6.7,0-12.15,4.24-12.15,9.47v209.59c0,.97.24,1.89.59,2.78v24.85h291.41v-22.47c1.25-1.48,1.98-3.25,1.98-5.15V13.25c0-5.22-5.45-9.47-12.15-9.47Z"/>
        <path class="cls-52" d="m345.44,3.49H75.76c-6.7,0-12.15,4.24-12.15,9.47v209.59c0,.97.24,1.89.59,2.78v24.85h291.41v-22.47c1.25-1.48,1.98-3.25,1.98-5.15V12.95c0-5.22-5.45-9.47-12.15-9.47Z"/>
        <path class="cls-8" d="m346.82,3.2H77.14c-6.7,0-12.15,4.24-12.15,9.47v209.59c0,.97.24,1.89.59,2.78v24.85h291.41v-22.47c1.25-1.48,1.98-3.25,1.98-5.15V12.66c0-5.22-5.45-9.47-12.15-9.47Z"/>
        <path class="cls-55" d="m348.21,2.91H78.52c-6.7,0-12.15,4.24-12.15,9.47v209.59c0,.97.24,1.89.59,2.78v24.85h291.41v-22.47c1.25-1.48,1.98-3.25,1.98-5.15V12.37c0-5.22-5.45-9.47-12.15-9.47Z"/>
        <path class="cls-22" d="m349.59,2.62H79.91c-6.7,0-12.15,4.24-12.15,9.47v209.59c0,.97.24,1.89.59,2.78v24.85h291.41v-22.47c1.25-1.48,1.98-3.25,1.98-5.15V12.08c0-5.22-5.45-9.47-12.15-9.47Z"/>
        <path class="cls-46" d="m350.97,2.32H81.29c-6.7,0-12.15,4.24-12.15,9.47v209.59c0,.97.24,1.89.59,2.78v24.85h291.41v-22.47c1.25-1.48,1.98-3.25,1.98-5.15V11.79c0-5.22-5.45-9.47-12.15-9.47Z"/>
        <path class="cls-50" d="m352.35,2.03H82.67c-6.7,0-12.15,4.24-12.15,9.47v209.59c0,.97.24,1.89.59,2.78v24.85h291.41v-22.47c1.25-1.48,1.98-3.25,1.98-5.15V11.5c0-5.22-5.45-9.47-12.15-9.47Z"/>
        <path class="cls-42" d="m353.74,1.74H84.05c-6.7,0-12.15,4.24-12.15,9.47v209.59c0,.97.24,1.89.59,2.78v24.85h291.41v-22.47c1.25-1.48,1.98-3.25,1.98-5.15V11.21c0-5.22-5.45-9.47-12.15-9.47Z"/>
        <path class="cls-7" d="m355.12,1.45H85.44c-6.7,0-12.15,4.24-12.15,9.47v209.59c0,.97.24,1.89.59,2.78v24.85h291.41v-22.47c1.25-1.48,1.98-3.25,1.98-5.15V10.92c0-5.22-5.45-9.47-12.15-9.47Z"/>
        <path class="cls-11" d="m356.5,1.16H86.82c-6.7,0-12.15,4.24-12.15,9.47v209.59c0,.97.24,1.89.59,2.78v24.85h291.41v-22.47c1.25-1.48,1.98-3.25,1.98-5.15V10.63c0-5.22-5.45-9.47-12.15-9.47Z"/>
        <path class="cls-18" d="m357.89.87H88.2c-6.7,0-12.15,4.24-12.15,9.47v209.59c0,.97.24,1.89.59,2.78v24.85h291.41v-22.47c1.25-1.48,1.98-3.25,1.98-5.15V10.34c0-5.22-5.45-9.47-12.15-9.47Z"/>
        <path class="cls-30" d="m359.27.58H89.59c-6.7,0-12.15,4.24-12.15,9.47v209.59c0,.97.24,1.89.59,2.78v24.85h291.41v-22.47c1.25-1.48,1.98-3.25,1.98-5.15V10.05c0-5.22-5.45-9.47-12.15-9.47Z"/>
        <path class="cls-20" d="m360.65.29H90.97c-6.7,0-12.15,4.24-12.15,9.47v209.59c0,.97.24,1.89.59,2.78v24.85h291.41v-22.47c1.25-1.48,1.98-3.25,1.98-5.15V9.76c0-5.22-5.45-9.47-12.15-9.47Z"/>
        <path class="cls-53" d="m362.03,0H92.35c-6.7,0-12.15,4.24-12.15,9.47v209.59c0,.97.24,1.89.59,2.78v24.85h291.41v-22.47c1.25-1.48,1.98-3.25,1.98-5.15V9.47c0-5.22-5.45-9.47-12.15-9.47Z"/>
      </g>
      <g>
        <rect class="cls-53" x="80.79" y="221.74" width="291.41" height="24.95"/>
        <g>
          <g>
            <ellipse class="cls-35" cx="131.27" cy="229.25" rx="12.83" ry="9.99"/>
            <path class="cls-35" d="m131.27,239.97c-7.59,0-13.77-4.8-13.77-10.71s6.18-10.72,13.77-10.72,13.76,4.81,13.76,10.72-6.18,10.71-13.76,10.71Zm0-19.98c-6.57,0-11.91,4.16-11.91,9.27s5.34,9.26,11.91,9.26,11.9-4.16,11.9-9.26-5.34-9.27-11.9-9.27Z"/>
          </g>
          <g>
            <path class="cls-35" d="m148.76,229.01c0,2.5-7.84,4.52-17.49,4.52s-17.5-2.03-17.5-4.52,7.84-4.53,17.5-4.53,17.49,2.03,17.49,4.53Z"/>
            <path class="cls-35" d="m131.27,234.27c-8.94,0-18.42-1.84-18.42-5.25s9.49-5.25,18.42-5.25,18.41,1.84,18.41,5.25-9.49,5.25-18.41,5.25Zm0-9.05c-10.26,0-16.56,2.21-16.56,3.8s6.3,3.8,16.56,3.8,16.55-2.22,16.55-3.8-6.3-3.8-16.55-3.8Z"/>
          </g>
        </g>
        <g>
          <g>
            <path class="cls-35" d="m207.3,229.25c0,5.52-5.75,9.99-12.83,9.99s-12.83-4.48-12.83-9.99,5.74-9.99,12.83-9.99,12.83,4.47,12.83,9.99Z"/>
            <path class="cls-35" d="m194.47,239.97c-7.59,0-13.77-4.8-13.77-10.71s6.18-10.72,13.77-10.72,13.76,4.81,13.76,10.72-6.18,10.71-13.76,10.71Zm0-19.98c-6.57,0-11.91,4.16-11.91,9.27s5.34,9.26,11.91,9.26,11.9-4.16,11.9-9.26-5.34-9.27-11.9-9.27Z"/>
          </g>
          <g>
            <path class="cls-35" d="m211.96,229.01c0,2.5-7.84,4.52-17.49,4.52s-17.5-2.03-17.5-4.52,7.84-4.53,17.5-4.53,17.49,2.03,17.49,4.53Z"/>
            <path class="cls-35" d="m194.47,234.27c-8.93,0-18.42-1.84-18.42-5.25s9.49-5.25,18.42-5.25,18.41,1.84,18.41,5.25-9.49,5.25-18.41,5.25Zm0-9.05c-10.26,0-16.56,2.21-16.56,3.8s6.3,3.8,16.56,3.8,16.55-2.22,16.55-3.8-6.3-3.8-16.55-3.8Z"/>
          </g>
        </g>
        <g>
          <g>
            <ellipse class="cls-35" cx="257.67" cy="229.25" rx="12.83" ry="9.99"/>
            <path class="cls-35" d="m257.67,239.97c-7.59,0-13.77-4.8-13.77-10.71s6.18-10.72,13.77-10.72,13.76,4.81,13.76,10.72-6.18,10.71-13.76,10.71Zm0-19.98c-6.57,0-11.91,4.16-11.91,9.27s5.34,9.26,11.91,9.26,11.9-4.16,11.9-9.26-5.34-9.27-11.9-9.27Z"/>
          </g>
          <g>
            <path class="cls-35" d="m275.16,229.01c0,2.5-7.83,4.52-17.49,4.52s-17.49-2.03-17.49-4.52,7.83-4.53,17.49-4.53,17.49,2.03,17.49,4.53Z"/>
            <path class="cls-35" d="m257.67,234.27c-8.94,0-18.42-1.84-18.42-5.25s9.49-5.25,18.42-5.25,18.41,1.84,18.41,5.25-9.49,5.25-18.41,5.25Zm0-9.05c-10.26,0-16.56,2.21-16.56,3.8s6.3,3.8,16.56,3.8,16.55-2.22,16.55-3.8-6.3-3.8-16.55-3.8Z"/>
          </g>
        </g>
        <g>
          <g>
            <path class="cls-35" d="m333.7,229.25c0,5.52-5.75,9.99-12.83,9.99s-12.83-4.48-12.83-9.99,5.74-9.99,12.83-9.99,12.83,4.47,12.83,9.99Z"/>
            <path class="cls-35" d="m320.87,239.97c-7.59,0-13.77-4.8-13.77-10.71s6.18-10.72,13.77-10.72,13.76,4.81,13.76,10.72-6.17,10.71-13.76,10.71Zm0-19.98c-6.57,0-11.91,4.16-11.91,9.27s5.34,9.26,11.91,9.26,11.9-4.16,11.9-9.26-5.34-9.27-11.9-9.27Z"/>
          </g>
          <g>
            <path class="cls-35" d="m338.36,229.01c0,2.5-7.83,4.52-17.49,4.52s-17.49-2.03-17.49-4.52,7.83-4.53,17.49-4.53,17.49,2.03,17.49,4.53Z"/>
            <path class="cls-35" d="m320.87,234.27c-8.94,0-18.42-1.84-18.42-5.25s9.49-5.25,18.42-5.25,18.41,1.84,18.41,5.25-9.49,5.25-18.41,5.25Zm0-9.05c-10.26,0-16.56,2.21-16.56,3.8s6.3,3.8,16.56,3.8,16.55-2.22,16.55-3.8-6.3-3.8-16.55-3.8Z"/>
          </g>
        </g>
        <g>
          <path class="cls-62" d="m362.03,227.8H92.35c-6.2,0-11.23-3.91-11.23-8.74V9.47c0-4.83,5.02-8.74,11.23-8.74h269.68c6.2,0,11.23,3.91,11.23,8.74v209.59c0,4.83-5.02,8.74-11.23,8.74Z"/>
          <path class="cls-53" d="m362.03,228.52H92.35c-6.7,0-12.15-4.24-12.15-9.46V9.47c0-5.22,5.45-9.47,12.15-9.47h269.68c6.7,0,12.15,4.24,12.15,9.47v209.59c0,5.22-5.45,9.46-12.15,9.46ZM92.35,1.45c-5.68,0-10.29,3.6-10.29,8.02v209.59c0,4.42,4.61,8.01,10.29,8.01h269.68c5.68,0,10.29-3.59,10.29-8.01V9.47c0-4.42-4.61-8.02-10.29-8.02H92.35Z"/>
        </g>
        <g>
          <path class="cls-47" d="m96.93,4.9h260.53c5.98,0,10.84,3.68,10.84,8.22v201.32c0,4.54-4.86,8.23-10.84,8.23H96.93c-5.98,0-10.84-3.69-10.84-8.23V13.13c0-4.54,4.86-8.22,10.84-8.22Z"/>
          <path class="cls-3" d="m96.93,4.18h260.53c6.49,0,11.77,4.01,11.77,8.95v201.32c0,4.94-5.28,8.95-11.77,8.95H96.93c-6.49,0-11.77-4.01-11.77-8.95V13.13c0-4.94,5.28-8.95,11.77-8.95Zm260.53,217.77c5.46,0,9.91-3.36,9.91-7.5V13.13c0-4.14-4.45-7.5-9.91-7.5H96.93c-5.46,0-9.91,3.37-9.91,7.5v201.32c0,4.14,4.46,7.5,9.91,7.5h260.53Z"/>
        </g>
        <g>
          <ellipse class="cls-62" cx="158.24" cy="61.1" rx="45.25" ry="35.24"/>
          <ellipse class="cls-2" cx="158.24" cy="61.1" rx="44.87" ry="34.94"/>
          <ellipse class="cls-25" cx="158.24" cy="61.1" rx="44.49" ry="34.64"/>
          <ellipse class="cls-14" cx="158.24" cy="61.1" rx="44.11" ry="34.35"/>
          <ellipse class="cls-63" cx="158.24" cy="61.1" rx="43.73" ry="34.05"/>
          <ellipse class="cls-10" cx="158.24" cy="61.1" rx="43.35" ry="33.75"/>
          <ellipse class="cls-12" cx="158.24" cy="61.1" rx="42.97" ry="33.46"/>
          <ellipse class="cls-27" cx="158.24" cy="61.1" rx="42.59" ry="33.16"/>
          <ellipse class="cls-8" cx="158.24" cy="61.1" rx="42.21" ry="32.87"/>
          <ellipse class="cls-50" cx="158.24" cy="61.1" rx="41.83" ry="32.57"/>
          <ellipse class="cls-11" cx="158.24" cy="61.1" rx="41.45" ry="32.27"/>
          <ellipse class="cls-53" cx="158.24" cy="61.1" rx="41.07" ry="31.98"/>
          <ellipse class="cls-11" cx="158.24" cy="61.1" rx="40.54" ry="31.56"/>
          <ellipse class="cls-50" cx="158.24" cy="61.1" rx="40" ry="31.15"/>
          <ellipse class="cls-8" cx="158.24" cy="61.1" rx="39.47" ry="30.74"/>
          <ellipse class="cls-27" cx="158.24" cy="61.1" rx="38.94" ry="30.32"/>
          <ellipse class="cls-12" cx="158.24" cy="61.1" rx="38.41" ry="29.91"/>
          <ellipse class="cls-10" cx="158.24" cy="61.1" rx="37.88" ry="29.5"/>
          <ellipse class="cls-63" cx="158.24" cy="61.1" rx="37.35" ry="29.09"/>
          <ellipse class="cls-14" cx="158.24" cy="61.1" rx="36.82" ry="28.67"/>
          <ellipse class="cls-25" cx="158.24" cy="61.1" rx="36.29" ry="28.26"/>
          <ellipse class="cls-2" cx="158.24" cy="61.1" rx="35.76" ry="27.85"/>
          <ellipse class="cls-62" cx="158.24" cy="61.1" rx="35.23" ry="27.43"/>
        </g>
        <ellipse class="cls-35" cx="158.24" cy="61.1" rx="30.91" ry="24.07"/>
        <g>
          <path class="cls-62" d="m337.32,61.1c0,17.29-18,31.3-40.2,31.3s-40.2-14.01-40.2-31.3,18-31.3,40.2-31.3,40.2,14.01,40.2,31.3Z"/>
          <path class="cls-2" d="m336.98,61.1c0,17.15-17.84,31.04-39.86,31.04s-39.86-13.89-39.86-31.04,17.85-31.04,39.86-31.04,39.86,13.89,39.86,31.04Z"/>
          <path class="cls-25" d="m336.65,61.1c0,17-17.69,30.78-39.52,30.78s-39.53-13.78-39.53-30.78,17.7-30.78,39.53-30.78,39.52,13.78,39.52,30.78Z"/>
          <path class="cls-14" d="m336.31,61.1c0,16.86-17.54,30.51-39.19,30.51s-39.19-13.66-39.19-30.51,17.55-30.52,39.19-30.52,39.19,13.66,39.19,30.52Z"/>
          <path class="cls-63" d="m335.97,61.1c0,16.71-17.39,30.25-38.85,30.25s-38.85-13.54-38.85-30.25,17.4-30.25,38.85-30.25,38.85,13.54,38.85,30.25Z"/>
          <path class="cls-10" d="m335.63,61.1c0,16.56-17.24,29.99-38.51,29.99s-38.51-13.42-38.51-29.99,17.25-29.99,38.51-29.99,38.51,13.42,38.51,29.99Z"/>
          <path class="cls-12" d="m335.3,61.1c0,16.42-17.09,29.72-38.17,29.72s-38.17-13.3-38.17-29.72,17.09-29.73,38.17-29.73,38.17,13.31,38.17,29.73Z"/>
          <path class="cls-27" d="m334.96,61.1c0,16.27-16.94,29.46-37.84,29.46s-37.83-13.19-37.83-29.46,16.94-29.46,37.83-29.46,37.84,13.19,37.84,29.46Z"/>
          <path class="cls-8" d="m334.62,61.1c0,16.13-16.79,29.2-37.5,29.2s-37.5-13.07-37.5-29.2,16.79-29.2,37.5-29.2,37.5,13.07,37.5,29.2Z"/>
          <path class="cls-50" d="m334.28,61.1c0,15.98-16.64,28.93-37.16,28.93s-37.16-12.95-37.16-28.93,16.64-28.94,37.16-28.94,37.16,12.95,37.16,28.94Z"/>
          <path class="cls-11" d="m333.95,61.1c0,15.84-16.49,28.67-36.82,28.67s-36.82-12.83-36.82-28.67,16.49-28.68,36.82-28.68,36.82,12.84,36.82,28.68Z"/>
          <path class="cls-53" d="m333.61,61.1c0,15.69-16.34,28.41-36.49,28.41s-36.48-12.71-36.48-28.41,16.34-28.41,36.48-28.41,36.49,12.72,36.49,28.41Z"/>
          <path class="cls-11" d="m333.14,61.1c0,15.49-16.12,28.04-36.02,28.04s-36.01-12.55-36.01-28.04,16.12-28.05,36.01-28.05,36.02,12.56,36.02,28.05Z"/>
          <path class="cls-50" d="m332.66,61.1c0,15.29-15.91,27.67-35.54,27.67s-35.54-12.39-35.54-27.67,15.91-27.68,35.54-27.68,35.54,12.39,35.54,27.68Z"/>
          <path class="cls-8" d="m332.19,61.1c0,15.08-15.7,27.31-35.07,27.31s-35.07-12.22-35.07-27.31,15.7-27.31,35.07-27.31,35.07,12.23,35.07,27.31Z"/>
          <path class="cls-27" d="m331.72,61.1c0,14.88-15.49,26.94-34.6,26.94s-34.6-12.06-34.6-26.94,15.49-26.94,34.6-26.94,34.6,12.06,34.6,26.94Z"/>
          <path class="cls-12" d="m331.25,61.1c0,14.68-15.28,26.57-34.13,26.57s-34.13-11.89-34.13-26.57,15.28-26.58,34.13-26.58,34.13,11.9,34.13,26.58Z"/>
          <path class="cls-10" d="m330.78,61.1c0,14.48-15.07,26.21-33.66,26.21s-33.65-11.73-33.65-26.21,15.07-26.21,33.65-26.21,33.66,11.73,33.66,26.21Z"/>
          <path class="cls-63" d="m330.31,61.1c0,14.27-14.86,25.84-33.18,25.84s-33.18-11.57-33.18-25.84,14.86-25.84,33.18-25.84,33.18,11.57,33.18,25.84Z"/>
          <path class="cls-14" d="m329.83,61.1c0,14.07-14.65,25.47-32.71,25.47s-32.71-11.4-32.71-25.47,14.65-25.47,32.71-25.47,32.71,11.4,32.71,25.47Z"/>
          <path class="cls-25" d="m329.36,61.1c0,13.87-14.43,25.11-32.24,25.11s-32.24-11.24-32.24-25.11,14.43-25.11,32.24-25.11,32.24,11.24,32.24,25.11Z"/>
          <path class="cls-2" d="m328.89,61.1c0,13.66-14.22,24.74-31.77,24.74s-31.77-11.07-31.77-24.74,14.22-24.74,31.77-24.74,31.77,11.08,31.77,24.74Z"/>
          <path class="cls-62" d="m328.42,61.1c0,13.46-14.01,24.37-31.3,24.37s-31.3-10.91-31.3-24.37,14.01-24.37,31.3-24.37,31.3,10.91,31.3,24.37Z"/>
        </g>
        <path class="cls-35" d="m324.59,61.1c0,11.81-12.3,21.39-27.47,21.39s-27.47-9.58-27.47-21.39,12.3-21.39,27.47-21.39,27.47,9.58,27.47,21.39Z"/>
        <g>
          <path class="cls-62" d="m191.25,167.94c0,14.19-14.77,25.69-33,25.69s-32.99-11.5-32.99-25.69,14.77-25.7,32.99-25.7,33,11.5,33,25.7Z"/>
          <path class="cls-2" d="m190.97,167.94c0,14.07-14.65,25.48-32.73,25.48s-32.72-11.41-32.72-25.48,14.65-25.48,32.72-25.48,32.73,11.41,32.73,25.48Z"/>
          <path class="cls-25" d="m190.69,167.94c0,13.95-14.52,25.26-32.45,25.26s-32.44-11.31-32.44-25.26,14.52-25.27,32.44-25.27,32.45,11.31,32.45,25.27Z"/>
          <path class="cls-14" d="m190.42,167.94c0,13.83-14.4,25.04-32.17,25.04s-32.16-11.21-32.16-25.04,14.4-25.05,32.16-25.05,32.17,11.21,32.17,25.05Z"/>
          <path class="cls-63" d="m190.14,167.94c0,13.71-14.28,24.83-31.89,24.83s-31.89-11.12-31.89-24.83,14.28-24.84,31.89-24.84,31.89,11.12,31.89,24.84Z"/>
          <path class="cls-10" d="m189.86,167.94c0,13.59-14.15,24.61-31.62,24.61s-31.61-11.02-31.61-24.61,14.15-24.62,31.61-24.62,31.62,11.02,31.62,24.62Z"/>
          <path class="cls-12" d="m189.58,167.94c0,13.47-14.03,24.4-31.34,24.4s-31.33-10.92-31.33-24.4,14.03-24.4,31.33-24.4,31.34,10.92,31.34,24.4Z"/>
          <path class="cls-27" d="m189.31,167.94c0,13.35-13.9,24.18-31.06,24.18s-31.05-10.83-31.05-24.18,13.9-24.19,31.05-24.19,31.06,10.83,31.06,24.19Z"/>
          <path class="cls-8" d="m189.03,167.94c0,13.23-13.78,23.97-30.79,23.97s-30.78-10.73-30.78-23.97,13.78-23.97,30.78-23.97,30.79,10.73,30.79,23.97Z"/>
          <path class="cls-50" d="m188.75,167.94c0,13.12-13.66,23.75-30.51,23.75s-30.5-10.63-30.5-23.75,13.66-23.76,30.5-23.76,30.51,10.63,30.51,23.76Z"/>
          <path class="cls-11" d="m188.47,167.94c0,13-13.53,23.53-30.23,23.53s-30.22-10.54-30.22-23.53,13.53-23.54,30.22-23.54,30.23,10.54,30.23,23.54Z"/>
          <path class="cls-53" d="m188.2,167.94c0,12.88-13.41,23.32-29.95,23.32s-29.95-10.44-29.95-23.32,13.41-23.32,29.95-23.32,29.95,10.44,29.95,23.32Z"/>
          <path class="cls-11" d="m187.81,167.94c0,12.71-13.24,23.02-29.57,23.02s-29.56-10.31-29.56-23.02,13.24-23.02,29.56-23.02,29.57,10.31,29.57,23.02Z"/>
          <path class="cls-50" d="m187.42,167.94c0,12.54-13.06,22.72-29.18,22.72s-29.17-10.17-29.17-22.72,13.06-22.72,29.17-22.72,29.18,10.17,29.18,22.72Z"/>
          <path class="cls-8" d="m187.03,167.94c0,12.38-12.89,22.41-28.79,22.41s-28.79-10.04-28.79-22.41,12.89-22.42,28.79-22.42,28.79,10.04,28.79,22.42Z"/>
          <path class="cls-27" d="m186.65,167.94c0,12.21-12.71,22.11-28.4,22.11s-28.4-9.9-28.4-22.11,12.72-22.12,28.4-22.12,28.4,9.9,28.4,22.12Z"/>
          <path class="cls-12" d="m186.26,167.94c0,12.04-12.54,21.81-28.02,21.81s-28.01-9.77-28.01-21.81,12.54-21.82,28.01-21.82,28.02,9.76,28.02,21.82Z"/>
          <path class="cls-10" d="m185.87,167.94c0,11.88-12.37,21.51-27.63,21.51s-27.62-9.63-27.62-21.51,12.37-21.51,27.62-21.51,27.63,9.63,27.63,21.51Z"/>
          <path class="cls-63" d="m185.48,167.94c0,11.71-12.19,21.21-27.24,21.21s-27.24-9.5-27.24-21.21,12.2-21.21,27.24-21.21,27.24,9.49,27.24,21.21Z"/>
          <path class="cls-14" d="m185.1,167.94c0,11.55-12.02,20.91-26.85,20.91s-26.85-9.36-26.85-20.91,12.02-20.91,26.85-20.91,26.85,9.36,26.85,20.91Z"/>
          <path class="cls-25" d="m184.71,167.94c0,11.38-11.84,20.61-26.47,20.61s-26.46-9.23-26.46-20.61,11.85-20.61,26.46-20.61,26.47,9.22,26.47,20.61Z"/>
          <path class="cls-2" d="m184.32,167.94c0,11.21-11.67,20.31-26.08,20.31s-26.08-9.09-26.08-20.31,11.68-20.31,26.08-20.31,26.08,9.09,26.08,20.31Z"/>
          <ellipse class="cls-62" cx="158.24" cy="167.94" rx="25.69" ry="20.01"/>
        </g>
        <ellipse class="cls-35" cx="158.24" cy="167.94" rx="22.55" ry="17.56"/>
        <g>
          <path class="cls-62" d="m323.31,167.94c0,11.26-11.72,20.39-26.19,20.39s-26.19-9.13-26.19-20.39,11.72-20.39,26.19-20.39,26.19,9.13,26.19,20.39Z"/>
          <path class="cls-2" d="m323.09,167.94c0,11.17-11.62,20.22-25.97,20.22s-25.97-9.05-25.97-20.22,11.62-20.22,25.97-20.22,25.97,9.05,25.97,20.22Z"/>
          <path class="cls-25" d="m322.87,167.94c0,11.08-11.53,20.05-25.75,20.05s-25.75-8.98-25.75-20.05,11.53-20.05,25.75-20.05,25.75,8.98,25.75,20.05Z"/>
          <path class="cls-14" d="m322.65,167.94c0,10.98-11.43,19.88-25.53,19.88s-25.53-8.9-25.53-19.88,11.43-19.88,25.53-19.88,25.53,8.9,25.53,19.88Z"/>
          <path class="cls-63" d="m322.43,167.94c0,10.89-11.33,19.71-25.31,19.71s-25.31-8.82-25.31-19.71,11.33-19.71,25.31-19.71,25.31,8.82,25.31,19.71Z"/>
          <path class="cls-10" d="m322.21,167.94c0,10.79-11.23,19.54-25.09,19.54s-25.09-8.75-25.09-19.54,11.23-19.54,25.09-19.54,25.09,8.75,25.09,19.54Z"/>
          <path class="cls-12" d="m321.99,167.94c0,10.7-11.13,19.37-24.87,19.37s-24.87-8.67-24.87-19.37,11.13-19.37,24.87-19.37,24.87,8.67,24.87,19.37Z"/>
          <path class="cls-27" d="m321.77,167.94c0,10.6-11.03,19.19-24.65,19.19s-24.65-8.59-24.65-19.19,11.03-19.19,24.65-19.19,24.65,8.59,24.65,19.19Z"/>
          <path class="cls-8" d="m321.55,167.94c0,10.51-10.94,19.02-24.43,19.02s-24.43-8.52-24.43-19.02,10.94-19.02,24.43-19.02,24.43,8.52,24.43,19.02Z"/>
          <path class="cls-50" d="m321.33,167.94c0,10.41-10.84,18.85-24.21,18.85s-24.21-8.44-24.21-18.85,10.84-18.85,24.21-18.85,24.21,8.44,24.21,18.85Z"/>
          <path class="cls-11" d="m321.11,167.94c0,10.32-10.74,18.68-23.99,18.68s-23.99-8.36-23.99-18.68,10.74-18.68,23.99-18.68,23.99,8.36,23.99,18.68Z"/>
          <path class="cls-53" d="m320.89,167.94c0,10.22-10.64,18.51-23.77,18.51s-23.77-8.29-23.77-18.51,10.64-18.51,23.77-18.51,23.77,8.29,23.77,18.51Z"/>
          <path class="cls-11" d="m320.58,167.94c0,10.09-10.5,18.27-23.46,18.27s-23.46-8.18-23.46-18.27,10.5-18.27,23.46-18.27,23.46,8.18,23.46,18.27Z"/>
          <path class="cls-50" d="m320.28,167.94c0,9.96-10.37,18.03-23.16,18.03s-23.16-8.07-23.16-18.03,10.37-18.03,23.16-18.03,23.16,8.07,23.16,18.03Z"/>
          <path class="cls-8" d="m319.97,167.94c0,9.83-10.23,17.79-22.85,17.79s-22.85-7.96-22.85-17.79,10.23-17.79,22.85-17.79,22.85,7.97,22.85,17.79Z"/>
          <path class="cls-27" d="m319.66,167.94c0,9.69-10.09,17.55-22.54,17.55s-22.54-7.86-22.54-17.55,10.09-17.55,22.54-17.55,22.54,7.86,22.54,17.55Z"/>
          <path class="cls-12" d="m319.36,167.94c0,9.56-9.96,17.31-22.24,17.31s-22.23-7.75-22.23-17.31,9.95-17.32,22.23-17.32,22.24,7.75,22.24,17.32Z"/>
          <path class="cls-10" d="m319.05,167.94c0,9.43-9.82,17.07-21.93,17.07s-21.93-7.64-21.93-17.07,9.82-17.08,21.93-17.08,21.93,7.65,21.93,17.08Z"/>
          <path class="cls-63" d="m318.74,167.94c0,9.3-9.68,16.83-21.62,16.83s-21.62-7.54-21.62-16.83,9.68-16.84,21.62-16.84,21.62,7.54,21.62,16.84Z"/>
          <path class="cls-14" d="m318.44,167.94c0,9.16-9.55,16.59-21.32,16.59s-21.31-7.43-21.31-16.59,9.54-16.6,21.31-16.6,21.32,7.43,21.32,16.6Z"/>
          <path class="cls-25" d="m318.13,167.94c0,9.03-9.41,16.35-21.01,16.35s-21-7.32-21-16.35,9.4-16.36,21-16.36,21.01,7.33,21.01,16.36Z"/>
          <path class="cls-2" d="m317.82,167.94c0,8.9-9.27,16.12-20.7,16.12s-20.7-7.22-20.7-16.12,9.27-16.12,20.7-16.12,20.7,7.22,20.7,16.12Z"/>
          <path class="cls-62" d="m317.52,167.94c0,8.77-9.14,15.88-20.4,15.88s-20.39-7.11-20.39-15.88,9.13-15.88,20.39-15.88,20.4,7.12,20.4,15.88Z"/>
        </g>
        <path class="cls-35" d="m315.02,167.94c0,7.69-8.01,13.93-17.9,13.93s-17.89-6.24-17.89-13.93,8.01-13.94,17.89-13.94,17.9,6.24,17.9,13.94Z"/>
        <g>
          <path class="cls-35" d="m219.49,113.75h-122.49c-3.83,0-6.95-2.39-6.95-5.31V13.77c0-2.93,3.12-5.31,6.95-5.31h122.49c3.83,0,6.96,2.38,6.96,5.31v94.66c0,2.92-3.13,5.31-6.96,5.31ZM97,11.35c-1.78,0-3.24,1.09-3.24,2.42v94.66c0,1.33,1.46,2.41,3.24,2.41h122.49c1.79,0,3.24-1.08,3.24-2.41V13.77c0-1.33-1.45-2.42-3.24-2.42h-122.49Z"/>
          <g>
            <path class="cls-35" d="m114.09,62.55h-20.85c-1.03,0-1.86-.65-1.86-1.45s.83-1.45,1.86-1.45h20.85c1.02,0,1.86.65,1.86,1.45s-.84,1.45-1.86,1.45Z"/>
            <path class="cls-35" d="m223.26,62.55h-20.87c-1.03,0-1.86-.65-1.86-1.45s.83-1.45,1.86-1.45h20.87c1.02,0,1.86.65,1.86,1.45s-.84,1.45-1.86,1.45Z"/>
          </g>
          <g>
            <path class="cls-35" d="m158.24,111.83c-1.03,0-1.86-.65-1.86-1.45v-15.45c0-.8.83-1.45,1.86-1.45s1.86.65,1.86,1.45v15.45c0,.8-.83,1.45-1.86,1.45Z"/>
            <path class="cls-35" d="m158.24,28.73c-1.03,0-1.86-.65-1.86-1.45v-15.45c0-.8.83-1.45,1.86-1.45s1.86.65,1.86,1.45v15.45c0,.8-.83,1.45-1.86,1.45Z"/>
          </g>
        </g>
        <g>
          <path class="cls-35" d="m358.36,113.75h-122.49c-3.83,0-6.95-2.39-6.95-5.31V13.77c0-2.93,3.12-5.31,6.95-5.31h122.49c3.84,0,6.96,2.38,6.96,5.31v94.66c0,2.92-3.12,5.31-6.96,5.31ZM235.88,11.35c-1.78,0-3.23,1.09-3.23,2.42v94.66c0,1.33,1.45,2.41,3.23,2.41h122.49c1.79,0,3.24-1.08,3.24-2.41V13.77c0-1.33-1.45-2.42-3.24-2.42h-122.49Z"/>
          <g>
            <path class="cls-35" d="m256.68,62.55h-24.57c-1.03,0-1.86-.65-1.86-1.45s.83-1.45,1.86-1.45h24.57c1.02,0,1.86.65,1.86,1.45s-.84,1.45-1.86,1.45Z"/>
            <path class="cls-35" d="m362.14,62.55h-24.59c-1.03,0-1.86-.65-1.86-1.45s.83-1.45,1.86-1.45h24.59c1.02,0,1.86.65,1.86,1.45s-.84,1.45-1.86,1.45Z"/>
          </g>
          <g>
            <path class="cls-35" d="m297.12,111.83c-1.02,0-1.86-.65-1.86-1.45v-18.35c0-.8.84-1.45,1.86-1.45s1.86.65,1.86,1.45v18.35c0,.8-.83,1.45-1.86,1.45Z"/>
            <path class="cls-35" d="m297.12,31.63c-1.02,0-1.86-.65-1.86-1.45V11.83c0-.8.84-1.45,1.86-1.45s1.86.65,1.86,1.45v18.35c0,.8-.83,1.45-1.86,1.45Z"/>
          </g>
        </g>
        <g>
          <path class="cls-35" d="m219.49,220.58h-122.49c-3.83,0-6.95-2.39-6.95-5.32v-94.65c0-2.93,3.12-5.32,6.95-5.32h122.49c3.83,0,6.96,2.39,6.96,5.32v94.65c0,2.93-3.13,5.32-6.96,5.32Zm-122.49-102.39c-1.78,0-3.24,1.09-3.24,2.42v94.65c0,1.34,1.46,2.42,3.24,2.42h122.49c1.79,0,3.24-1.08,3.24-2.42v-94.65c0-1.33-1.45-2.42-3.24-2.42h-122.49Z"/>
          <g>
            <path class="cls-35" d="m125.24,169.39h-32.01c-1.03,0-1.86-.65-1.86-1.45s.83-1.45,1.86-1.45h32.01c1.03,0,1.86.65,1.86,1.45s-.83,1.45-1.86,1.45Z"/>
            <path class="cls-35" d="m223.26,169.39h-32.03c-1.03,0-1.86-.65-1.86-1.45s.83-1.45,1.86-1.45h32.03c1.02,0,1.86.65,1.86,1.45s-.84,1.45-1.86,1.45Z"/>
          </g>
          <g>
            <path class="cls-35" d="m158.24,218.66c-1.03,0-1.86-.65-1.86-1.45v-22.7c0-.8.83-1.45,1.86-1.45s1.86.65,1.86,1.45v22.7c0,.8-.83,1.45-1.86,1.45Z"/>
            <path class="cls-35" d="m158.24,142.81c-1.03,0-1.86-.65-1.86-1.45v-22.7c0-.8.83-1.45,1.86-1.45s1.86.65,1.86,1.45v22.7c0,.8-.83,1.45-1.86,1.45Z"/>
          </g>
        </g>
        <g>
          <path class="cls-35" d="m358.36,220.58h-122.49c-3.83,0-6.95-2.39-6.95-5.32v-94.65c0-2.93,3.12-5.32,6.95-5.32h122.49c3.84,0,6.96,2.39,6.96,5.32v94.65c0,2.93-3.12,5.32-6.96,5.32Zm-122.49-102.39c-1.78,0-3.23,1.09-3.23,2.42v94.65c0,1.34,1.45,2.42,3.23,2.42h122.49c1.79,0,3.24-1.08,3.24-2.42v-94.65c0-1.33-1.45-2.42-3.24-2.42h-122.49Z"/>
          <g>
            <path class="cls-35" d="m267.84,169.39h-35.73c-1.03,0-1.86-.65-1.86-1.45s.83-1.45,1.86-1.45h35.73c1.03,0,1.86.65,1.86,1.45s-.83,1.45-1.86,1.45Z"/>
            <path class="cls-35" d="m362.14,169.39h-35.75c-1.02,0-1.86-.65-1.86-1.45s.84-1.45,1.86-1.45h35.75c1.02,0,1.86.65,1.86,1.45s-.84,1.45-1.86,1.45Z"/>
          </g>
          <g>
            <path class="cls-35" d="m297.12,218.66c-1.02,0-1.86-.65-1.86-1.45v-27.05c0-.8.84-1.45,1.86-1.45s1.86.65,1.86,1.45v27.05c0,.8-.83,1.45-1.86,1.45Z"/>
            <path class="cls-35" d="m297.12,147.16c-1.02,0-1.86-.65-1.86-1.45v-27.05c0-.8.84-1.45,1.86-1.45s1.86.65,1.86,1.45v27.05c0,.8-.83,1.45-1.86,1.45Z"/>
          </g>
        </g>
      </g>
    </g>
  </g>
</svg>