<?xml version="1.0" encoding="UTF-8"?>
<svg id="Layer_1" data-name="Layer 1" xmlns="http://www.w3.org/2000/svg" viewBox="0 0 503.05 90.08">
  <defs>
    <style>
      .cls-1 {
        fill: #e5d9c2;
      }

      .cls-1, .cls-2, .cls-3, .cls-4, .cls-5, .cls-6, .cls-7, .cls-8, .cls-9 {
        stroke: #3c2415;
        stroke-miterlimit: 10;
      }

      .cls-2 {
        fill: #f5efe1;
      }

      .cls-3 {
        fill: #c5b3a9;
      }

      .cls-4 {
        fill: #a09f9f;
      }

      .cls-5 {
        fill: #888;
      }

      .cls-6 {
        fill: #cdbdb6;
      }

      .cls-7 {
        fill: #6a6a6a;
      }

      .cls-8 {
        fill: #676564;
      }

      .cls-9 {
        fill: #bba898;
      }
    </style>
  </defs>
  <rect class="cls-1" x=".5" y=".5" width="73.35" height="81.23"/>
  <rect class="cls-1" x="73.85" y=".5" width="148.07" height="81.23"/>
  <rect class="cls-1" x="303.3" y=".5" width="199.25" height="81.23"/>
  <g>
    <rect class="cls-3" x="221.88" y="73.6" width="81.42" height="8.15"/>
    <rect class="cls-2" x="221.88" y=".5" width="81.42" height="73.1"/>
    <path class="cls-5" d="m247.22,75.13v-.73h-1.88v.73c-.89.4-1.51,1.36-1.51,2.49s.63,2.08,1.51,2.49v.73h1.88v-.73c.89-.4,1.51-1.36,1.51-2.49s-.63-2.08-1.51-2.49Z"/>
    <path class="cls-5" d="m258.24,75.13v-.73h-1.88v.73c-.89.4-1.51,1.36-1.51,2.49s.63,2.08,1.51,2.49v.73h1.88v-.73c.89-.4,1.51-1.36,1.51-2.49s-.63-2.08-1.51-2.49Z"/>
    <path class="cls-5" d="m269.25,75.13v-.73h-1.88v.73c-.89.4-1.51,1.36-1.51,2.49s.63,2.08,1.51,2.49v.73h1.88v-.73c.89-.4,1.51-1.36,1.51-2.49s-.63-2.08-1.51-2.49Z"/>
    <path class="cls-5" d="m280.26,75.13v-.73h-1.88v.73c-.89.4-1.51,1.36-1.51,2.49s.63,2.08,1.51,2.49v.73h1.88v-.73c.89-.4,1.51-1.36,1.51-2.49s-.63-2.08-1.51-2.49Z"/>
    <polygon class="cls-9" points="289.81 89.58 235.3 89.58 235.3 81.75 238.37 81.75 238.37 86.82 286.74 86.82 286.74 81.75 289.81 81.75 289.81 89.58"/>
    <g>
      <path class="cls-8" d="m242.76,33.86v-2.68h-.39c-3.09-.13-5.97-1.55-8.1-4-1.98-2.29-3.13-5.28-3.23-8.43v-.43h-2.45v-.04h2.44v-.43c.22-6.74,5.2-12.19,11.34-12.42h.39v-2.69h.03v2.68h.39c3.09.13,5.97,1.55,8.1,4,1.98,2.29,3.13,5.28,3.22,8.43v.43h2.45v.04h-2.44v.43c-.12,3.39-1.41,6.55-3.65,8.88-2.09,2.18-4.81,3.43-7.68,3.54h-.39v2.69h-.03Zm6.72-15.12c-.1,1.87-.83,3.61-2.07,4.91-1.15,1.2-2.66,1.92-4.23,2.02l-.38.02v5.47l.42-.02c2.85-.11,5.56-1.36,7.63-3.53,2.23-2.32,3.51-5.46,3.63-8.83l.02-.46h-4.98l-.02.41Zm-18.4.04c.1,3.13,1.24,6.1,3.21,8.38,2.12,2.44,4.98,3.85,8.05,3.98l.42.02v-5.47l-.38-.02c-1.71-.11-3.29-.92-4.47-2.27-1.11-1.28-1.75-2.89-1.84-4.65l-.02-.42h-4.98l.02.46Zm11.71-7.85l.38.02c3.4.22,6.11,3.19,6.31,6.92l.02.41h4.98l-.02-.46c-.1-3.13-1.24-6.1-3.21-8.38-2.12-2.44-4.97-3.85-8.05-3.98l-.42-.02v5.47Zm-.45-5.45c-6.09.24-11.04,5.67-11.26,12.35l-.02.46h4.98l.02-.41c.1-1.87.84-3.61,2.07-4.91,1.15-1.2,2.65-1.92,4.23-2.02l.38-.02v-5.47l-.42.02Z"/>
      <path class="cls-4" d="m242.77,11.37l.37.02c3.2.21,5.75,3,5.93,6.51l.02.41-.02.41c-.09,1.76-.79,3.4-1.95,4.61-1.1,1.15-2.47,1.8-3.98,1.9l-.37.02-.38-.02c-1.6-.1-3.1-.86-4.2-2.14-1.04-1.2-1.64-2.71-1.73-4.37l-.02-.41.02-.41c.09-1.76.79-3.4,1.95-4.61,1.1-1.15,2.47-1.8,3.98-1.9l.37-.02h0Zm.42-9.06h-.84v2.69c-6.33.24-11.49,5.83-11.71,12.85h-2.45v.92h2.45c.1,3.26,1.27,6.33,3.33,8.72,2.21,2.55,5.18,4.01,8.38,4.13v2.69h.84v-2.69c2.97-.11,5.77-1.39,7.95-3.66,2.32-2.42,3.65-5.68,3.76-9.19h2.45v-.92h-2.45c-.1-3.26-1.27-6.33-3.33-8.72-2.21-2.55-5.18-4.01-8.38-4.13v-2.69h0Zm-11.71,15.54c.22-6.51,5-11.69,10.87-11.93v4.59c-1.68.11-3.26.85-4.49,2.14-1.32,1.38-2.09,3.21-2.2,5.2h-4.19Zm18.39,0c-.21-3.92-3.08-7.1-6.69-7.34v-4.59c2.97.12,5.72,1.48,7.77,3.84,1.92,2.21,3.01,5.06,3.1,8.09h-4.19Zm-6.69,12.85v-4.59c1.68-.11,3.26-.85,4.49-2.14,1.32-1.38,2.09-3.21,2.2-5.2h4.19c-.11,3.25-1.35,6.28-3.5,8.52-2.02,2.11-4.61,3.3-7.37,3.41h0Zm-.84,0c-2.97-.12-5.72-1.48-7.77-3.84-1.92-2.21-3.01-5.06-3.1-8.09h4.19c.1,1.84.77,3.57,1.95,4.92,1.25,1.45,2.93,2.3,4.74,2.41v4.59h0Z"/>
    </g>
    <g>
      <path class="cls-8" d="m280.75,26.87v-2.54l-.38-.02c-1.71-.11-3.29-.91-4.46-2.26-1.1-1.27-1.75-2.93-1.83-4.69l-.02-.42h-2.36v-.04h2.36l.02-.41c.22-3.69,2.92-6.63,6.28-6.85l.38-.02v-2.65h.03v2.65l.38.02c3.37.22,6.07,3.16,6.29,6.85l.02.41h2.36v.04h-2.36l-.02.42c-.18,3.74-2.88,6.73-6.29,6.95l-.38.02v2.54h-.03Zm3.65-9.54c-.09.95-.48,1.83-1.11,2.49-.59.62-1.33.99-2.14,1.08l-.36.04v3.36l.43-.03c3.34-.24,6.01-3.2,6.21-6.87l.02-.47h-3.01l-.04.4Zm-10.29.07c.09,1.73.74,3.36,1.82,4.62,1.15,1.33,2.71,2.13,4.39,2.25l.43.03v-3.35l-.36-.04c-1.71-.19-3.08-1.7-3.26-3.57l-.04-.4h-3.01l.02.47Zm6.67-4.51l.36.04c.88.1,1.66.52,2.27,1.22.56.65.9,1.46.99,2.35l.04.4h3.01l-.03-.47c-.11-1.7-.74-3.25-1.82-4.5-1.15-1.33-2.71-2.13-4.39-2.25l-.43-.03v3.24Zm-.46-3.21c-3.29.24-5.95,3.14-6.2,6.74l-.03.47h3.01l.04-.4c.18-1.88,1.55-3.38,3.25-3.57l.36-.04v-3.24l-.43.03Z"/>
      <path class="cls-4" d="m280.76,13.33l.34.04c.78.09,1.48.46,2.02,1.09.5.58.8,1.3.88,2.09l.03.37-.03.37c-.08.85-.42,1.62-.99,2.22-.53.55-1.19.88-1.9.96l-.33.04-.34-.04c-1.52-.17-2.74-1.51-2.9-3.18l-.03-.37.03-.37c.16-1.67,1.38-3.01,2.9-3.18l.33-.04h0Zm.42-6.8h-.84v2.67c-3.55.23-6.42,3.33-6.66,7.26h-2.39v.92h2.38c.08,1.86.76,3.61,1.94,4.97,1.25,1.44,2.92,2.28,4.73,2.4v2.56h.84v-2.56c3.58-.23,6.48-3.39,6.67-7.37h2.38v-.92h-2.38c-.23-3.89-3.08-7.02-6.67-7.26v-2.68h0Zm-6.66,9.93c.23-3.42,2.73-6.11,5.82-6.34v2.37c-1.89.21-3.42,1.87-3.61,3.96h-2.21Zm10.27,0c-.09-.98-.47-1.89-1.09-2.61-.67-.78-1.56-1.25-2.52-1.36v-2.37c1.57.11,3.03.85,4.12,2.11,1.01,1.16,1.6,2.64,1.71,4.22h-2.22Zm-3.61,7.37v-2.49c.89-.1,1.72-.52,2.38-1.2.71-.74,1.14-1.71,1.24-2.76h2.22c-.18,3.47-2.71,6.23-5.83,6.45h0Zm-.84,0c-1.57-.11-3.03-.85-4.12-2.11-1.03-1.19-1.63-2.72-1.71-4.34h2.22c.2,2.08,1.7,3.75,3.61,3.96v2.49h0Z"/>
    </g>
    <g>
      <path class="cls-8" d="m242.76,66.24v-2.92l-.39-.02c-5.19-.23-9.41-4.86-9.62-10.55v-.42h-2.68v-.04h2.67l.02-.42c.1-2.88,1.21-5.55,3.1-7.53,1.76-1.84,4.07-2.91,6.51-3.01l.39-.02v-2.93h.03v2.92l.39.02c2.62.11,5.06,1.32,6.87,3.4,1.68,1.93,2.65,4.47,2.74,7.14l.02.42h2.67v.04h-2.66l-.02.42c-.21,5.69-4.43,10.33-9.62,10.55l-.39.02v2.92h-.03Zm-9.96-13.45c.22,5.63,4.41,10.23,9.54,10.47l.42.02v-5.43l-.37-.03c-2.45-.21-4.44-2.39-4.63-5.08l-.03-.41h-4.95l.02.46Zm15-.05c-.19,2.69-2.18,4.87-4.63,5.08l-.37.03v5.43l.42-.02c5.13-.24,9.32-4.84,9.55-10.47l.02-.46h-4.95l-.03.41Zm-5-5.96l.37.03c2.45.21,4.44,2.39,4.63,5.08l.03.41h4.95l-.02-.46c-.1-2.65-1.07-5.17-2.74-7.08-1.79-2.06-4.21-3.27-6.81-3.39l-.42-.02v5.43Zm-.45-5.41c-2.42.11-4.71,1.18-6.46,3-1.88,1.96-2.98,4.62-3.09,7.47l-.02.46h4.95l.03-.41c.19-2.69,2.18-4.88,4.63-5.08l.37-.03v-5.43l-.42.02Z"/>
      <path class="cls-4" d="m242.78,47.22l.36.03c2.26.19,4.09,2.2,4.26,4.68l.03.39-.03.39c-.17,2.48-2.01,4.48-4.26,4.67l-.37.03-.35-.03c-2.26-.19-4.09-2.2-4.26-4.68l-.03-.39.03-.39c.17-2.48,2.01-4.49,4.26-4.68l.36-.03h0Zm.42-9.27h-.84v2.95c-2.53.11-4.92,1.2-6.77,3.13-1.98,2.07-3.12,4.84-3.23,7.83h-2.68v.92h2.68c.21,5.92,4.56,10.74,10,10.97v2.94h.84v-2.94c5.39-.23,9.79-5,10-10.98h2.68v-.92h-2.69c-.1-2.78-1.09-5.4-2.86-7.43-1.88-2.17-4.42-3.42-7.14-3.54v-2.94h0Zm5,13.91c-.2-2.91-2.32-5.26-5-5.49v-4.57c2.49.12,4.81,1.26,6.53,3.25,1.62,1.86,2.53,4.25,2.63,6.8h-4.16Zm-15,0c.11-2.74,1.15-5.28,2.97-7.17,1.7-1.77,3.88-2.77,6.2-2.88v4.56c-2.65.22-4.8,2.55-5,5.49h-4.16Zm10,10.96v-4.56c2.65-.22,4.8-2.55,5-5.48h4.16c-.22,5.47-4.23,9.81-9.16,10.05h0Zm-.84,0c-4.98-.24-8.95-4.64-9.16-10.05h4.16c.2,2.91,2.32,5.26,5,5.49v4.57h0Z"/>
    </g>
    <g>
      <path class="cls-8" d="m280.75,69.78v-2.61h-.39c-4-.13-7.72-1.95-10.47-5.12-2.57-2.96-4.04-6.84-4.13-10.91v-.43h-2.39v-.04h2.38v-.43c.12-4.39,1.77-8.47,4.67-11.49,2.7-2.82,6.23-4.43,9.94-4.53h.39v-2.63h.03v2.61h.39c4,.13,7.72,1.95,10.47,5.12,2.57,2.96,4.04,6.83,4.13,10.91v.43h2.39v.04h-2.38v.43c-.12,4.39-1.77,8.47-4.67,11.49-2.7,2.81-6.23,4.42-9.94,4.53h-.39v2.63h-.03Zm-14.96-18.62c.1,4.06,1.56,7.91,4.12,10.86,2.74,3.16,6.45,4.97,10.43,5.1h.41s0-7.17,0-7.17l-.38-.02c-4.3-.22-7.82-4.09-8.02-8.8l-.02-.42h-6.55v.45Zm23.41-.03c-.2,4.72-3.73,8.58-8.02,8.8l-.38.02v7.19h.41c3.7-.12,7.21-1.73,9.9-4.53,2.88-3.01,4.53-7.07,4.65-11.44v-.45s-6.54,0-6.54,0l-.02.42Zm-8.4-9.69l.38.02c4.3.22,7.82,4.09,8.02,8.8l.02.42h6.55v-.45c-.11-4.06-1.58-7.91-4.13-10.86-2.74-3.16-6.45-4.98-10.43-5.1h-.41s0,7.17,0,7.17Zm-.45-7.17c-3.7.11-7.21,1.72-9.9,4.52-2.88,3.01-4.53,7.07-4.65,11.44v.45s6.54,0,6.54,0l.02-.42c.1-2.39,1.03-4.62,2.61-6.26,1.47-1.53,3.39-2.43,5.41-2.54l.38-.02v-7.18h-.41Z"/>
      <path class="cls-4" d="m280.76,41.87l.38.02c4.09.21,7.45,3.89,7.64,8.38l.02.41-.02.42c-.19,4.49-3.55,8.17-7.64,8.38l-.36.02-.41-.02c-4.09-.21-7.45-3.89-7.64-8.38l-.02-.42.02-.42c.1-2.28.98-4.4,2.48-5.97,1.4-1.46,3.23-2.32,5.15-2.42l.38-.02h0Zm.42-10.72h-.84v2.63c-3.82.11-7.42,1.74-10.21,4.65-2.98,3.11-4.67,7.29-4.78,11.8h-2.39v.92h2.39c.1,4.19,1.59,8.14,4.24,11.2,2.83,3.26,6.65,5.13,10.75,5.25v2.63h.84v-2.63c3.82-.11,7.42-1.74,10.21-4.65,2.98-3.11,4.67-7.29,4.78-11.8h2.39v-.92h-2.39c-.1-4.19-1.59-8.14-4.24-11.2-2.83-3.26-6.65-5.13-10.75-5.25v-2.63h0Zm8.4,19.08c-.21-4.95-3.84-8.98-8.4-9.22v-6.31c3.87.12,7.48,1.88,10.15,4.96,2.5,2.89,3.91,6.61,4.01,10.57h-5.76Zm-23.4,0c.11-4.25,1.72-8.2,4.52-11.13,2.63-2.75,6.03-4.29,9.63-4.4v6.31c-2.12.11-4.12,1.03-5.67,2.66-1.66,1.73-2.63,4.06-2.73,6.56h-5.76Zm14.99,16.45v-6.31c4.52-.23,8.19-4.22,8.4-9.22h5.76c-.11,4.25-1.72,8.2-4.52,11.13-2.63,2.75-6.03,4.29-9.63,4.4h0Zm-.84,0c-3.87-.12-7.47-1.88-10.15-4.96-2.5-2.89-3.91-6.61-4.01-10.57h5.76c.21,4.95,3.84,8.98,8.4,9.22v6.31h0Z"/>
    </g>
  </g>
  <g>
    <rect class="cls-6" x="382" y="5.18" width="114.9" height="72.06" rx="13.23" ry="13.23" transform="translate(878.9 82.42) rotate(180)"/>
    <path class="cls-9" d="m393.46,11.55h48.53c2.6,0,4.71,2.4,4.71,5.35v48.62c0,2.96-2.11,5.35-4.71,5.35h-48.53c-2.6,0-4.71-2.4-4.71-5.35V16.9c0-2.96,2.11-5.35,4.71-5.35Z"/>
    <path class="cls-3" d="m393.45,66.31c-.38,0-.7-.36-.7-.79V16.9c0-.44.31-.79.7-.79h48.53c.38,0,.7.36.7.79v48.62c0,.44-.31.79-.7.79h-48.53Z"/>
    <path class="cls-9" d="m454.21,11.55h35.49c1.9,0,3.44,2.4,3.44,5.35v48.62c0,2.96-1.54,5.35-3.44,5.35h-35.49c-1.9,0-3.44-2.4-3.44-5.35V16.9c0-2.96,1.54-5.35,3.44-5.35Z"/>
    <ellipse class="cls-9" cx="417.72" cy="25.42" rx="3.89" ry="4.27"/>
    <path class="cls-8" d="m420.51,25.42c0,1.69-1.25,3.06-2.79,3.06s-2.79-1.37-2.79-3.06,1.25-3.06,2.79-3.06,2.79,1.37,2.79,3.06Z"/>
    <g>
      <path class="cls-2" d="m427.39,29.26c0,.59.2,1.17.61,1.62.79.87,2.06.9,2.88.07l18.38-17.99c-.06.05-5.08-5.52-5.02-5.6l-16.31,20.36c-.36.44-.54.99-.54,1.54Z"/>
      <ellipse class="cls-9" cx="447.14" cy="9.73" rx="3.62" ry="3.97"/>
      <path class="cls-9" d="m437.07,20.96c.8.92,8.23-6.4,9.37-6.4-2,0-3.62-1.78-3.62-3.98,0,.95-6.52,9.47-5.74,10.37Z"/>
    </g>
    <g>
      <rect class="cls-6" x="452.28" y="15.91" width="39.35" height="3.34"/>
      <rect class="cls-6" x="452.28" y="22.68" width="39.29" height="3.32"/>
      <rect class="cls-6" x="452.28" y="29.45" width="39.23" height="3.3"/>
      <rect class="cls-6" x="452.28" y="36.22" width="39.16" height="3.28"/>
      <rect class="cls-6" x="452.28" y="43" width="39.1" height="3.26"/>
      <rect class="cls-6" x="452.28" y="49.77" width="39.04" height="3.24"/>
      <rect class="cls-6" x="452.28" y="56.54" width="38.98" height="3.22"/>
      <rect class="cls-6" x="452.28" y="63.31" width="38.91" height="3.2"/>
    </g>
  </g>
  <path class="cls-7" d="m45.53,30.32l-6.54,9.5v.15l10.39-1.52v5.17l-10.39-1.37v.15l6.6,9.12-4.33,2.74-4.13-10.64h-.14l-4.47,10.72-3.92-2.74,6.54-9.28v-.15l-10.18,1.44v-5.17l10.11,1.44v-.15l-6.47-9.28,4.2-2.66,4.26,10.57h.14l4.2-10.64,4.13,2.59Z"/>
  <rect class="cls-3" x=".5" y="74.93" width="73.35" height="1.23"/>
  <rect class="cls-3" x="72.73" y=".5" width="1.12" height="81.23"/>
</svg>