<?xml version="1.0" encoding="UTF-8"?>
<svg xmlns="http://www.w3.org/2000/svg" xmlns:xlink="http://www.w3.org/1999/xlink" viewBox="0 0 352.64 280.86">
  <defs>
    <style>
      .cls-1 {
        fill: #5a68b1;
      }

      .cls-1, .cls-2, .cls-3, .cls-4, .cls-5, .cls-6, .cls-7, .cls-8, .cls-9, .cls-10 {
        stroke: #ed1c24;
        stroke-miterlimit: 10;
      }

      .cls-2 {
        fill: #d7b37f;
      }

      .cls-3 {
        fill: url(#Orange_Yellow-4);
      }

      .cls-11 {
        isolation: isolate;
      }

      .cls-4, .cls-5 {
        fill: #fdb81a;
        stroke-width: .75px;
      }

      .cls-4, .cls-7 {
        mix-blend-mode: multiply;
        opacity: .6;
      }

      .cls-6 {
        fill: url(#Orange_Yellow);
      }

      .cls-7, .cls-10 {
        fill: #d63092;
      }

      .cls-8 {
        fill: url(#Orange_Yellow-2);
      }

      .cls-12 {
        opacity: .89;
      }

      .cls-9 {
        fill: url(#Orange_Yellow-3);
      }
    </style>
    <linearGradient id="Orange_Yellow" data-name="Orange, Yellow" x1="203.17" y1="12.08" x2="210.09" y2="12.08" gradientUnits="userSpaceOnUse">
      <stop offset="0" stop-color="#fff33b"/>
      <stop offset=".04" stop-color="#fee62d"/>
      <stop offset=".12" stop-color="#fdd51b"/>
      <stop offset=".2" stop-color="#fdca0f"/>
      <stop offset=".28" stop-color="#fdc70c"/>
      <stop offset=".67" stop-color="#f3903f"/>
      <stop offset=".89" stop-color="#ed683c"/>
      <stop offset="1" stop-color="#e93e3a"/>
    </linearGradient>
    <linearGradient id="Orange_Yellow-2" data-name="Orange, Yellow" x1="197.04" y1="35.59" x2="216.22" y2="35.59" xlink:href="#Orange_Yellow"/>
    <linearGradient id="Orange_Yellow-3" data-name="Orange, Yellow" x1="138.28" y1="39.58" x2="151.09" y2="39.58" xlink:href="#Orange_Yellow"/>
    <linearGradient id="Orange_Yellow-4" data-name="Orange, Yellow" x1="136.69" y1="16.73" x2="152.69" y2="16.73" xlink:href="#Orange_Yellow"/>
  </defs>
  <g class="cls-11">
    <g id="Layer_1" data-name="Layer 1">
      <g class="cls-12">
        <rect class="cls-1" x="63.63" y=".51" width="63.38" height="61.49"/>
        <polygon class="cls-1" points="352.08 62 352.08 .51 225.95 .51 225.95 62 289.02 62 289.02 280.36 352.14 280.36 352.14 62 352.08 62"/>
        <g>
          <g>
            <rect class="cls-10" x="127.36" y=".84" width="98.24" height="52.64"/>
            <path class="cls-10" d="m225.26,1.17v51.98h-97.56V1.17h97.56Zm.68-.67h-98.92v53.31h98.92V.51h0Z"/>
          </g>
          <g>
            <rect class="cls-10" x="127.36" y="54.15" width="98.24" height="7.48"/>
            <path class="cls-10" d="m225.26,54.48v6.82h-97.56v-6.82h97.56Zm.68-.67h-98.92v8.15h98.92v-8.15h0Z"/>
          </g>
          <g>
            <g>
              <g>
                <path class="cls-10" d="m146.85,56.09c-.76.29-1.29.99-1.29,1.81s.53,1.52,1.29,1.81v-3.63Z"/>
                <path class="cls-10" d="m148.45,56.09v3.63c.76-.29,1.29-.99,1.29-1.81s-.53-1.52-1.29-1.81Z"/>
              </g>
              <rect class="cls-10" x="146.85" y="55.56" width="1.6" height="4.69"/>
            </g>
            <g>
              <g>
                <path class="cls-10" d="m156.24,56.09c-.76.29-1.29.99-1.29,1.81s.53,1.52,1.29,1.81v-3.63Z"/>
                <path class="cls-10" d="m157.84,56.09v3.63c.76-.29,1.29-.99,1.29-1.81s-.53-1.52-1.29-1.81Z"/>
              </g>
              <rect class="cls-10" x="156.24" y="55.56" width="1.6" height="4.69"/>
            </g>
            <g>
              <g>
                <path class="cls-10" d="m195.13,56.09c-.76.29-1.29.99-1.29,1.81s.53,1.52,1.29,1.81v-3.63Z"/>
                <path class="cls-10" d="m196.73,56.09v3.63c.76-.29,1.29-.99,1.29-1.81s-.53-1.52-1.29-1.81Z"/>
              </g>
              <rect class="cls-10" x="195.13" y="55.56" width="1.6" height="4.69"/>
            </g>
            <g>
              <g>
                <path class="cls-10" d="m204.52,56.09c-.76.29-1.29.99-1.29,1.81s.53,1.52,1.29,1.81v-3.63Z"/>
                <path class="cls-10" d="m206.12,56.09v3.63c.76-.29,1.29-.99,1.29-1.81s-.53-1.52-1.29-1.81Z"/>
              </g>
              <rect class="cls-10" x="204.52" y="55.56" width="1.6" height="4.69"/>
            </g>
            <path class="cls-10" d="m169.3,57.94c0,.62-.53,1.12-1.19,1.12s-1.19-.5-1.19-1.12.53-1.12,1.19-1.12,1.19.5,1.19,1.12Z"/>
            <path class="cls-10" d="m177.9,57.94c0,.62-.53,1.12-1.19,1.12s-1.19-.5-1.19-1.12.53-1.12,1.19-1.12,1.19.5,1.19,1.12Z"/>
            <path class="cls-10" d="m186.51,57.94c0,.62-.53,1.12-1.19,1.12s-1.19-.5-1.19-1.12.53-1.12,1.19-1.12,1.19.5,1.19,1.12Z"/>
          </g>
          <polygon class="cls-10" points="199.72 67.68 153.25 67.68 153.25 61.97 155.86 61.97 155.86 65.67 197.11 65.67 197.11 61.97 199.72 61.97 199.72 67.68"/>
          <path class="cls-7" d="m200.93,11.94c.08-2.95,2.69-5.29,5.84-5.21,3.15.07,5.64,2.53,5.56,5.48-.08,2.95-2.69,5.29-5.84,5.21-3.15-.07-5.64-2.53-5.56-5.48Z"/>
          <path class="cls-7" d="m219.42,35.89c-.18,6.63-6.04,11.86-13.11,11.7-7.06-.17-12.64-5.67-12.47-12.3.18-6.63,6.04-11.86,13.11-11.7,7.06.16,12.64,5.67,12.47,12.3Z"/>
          <rect class="cls-7" x="166.72" y="7.02" width="19.53" height="39.44" rx="6.83" ry="6.83"/>
          <path class="cls-7" d="m153.22,39.78c-.12,4.42-4.03,7.92-8.75,7.81-4.71-.11-8.44-3.79-8.32-8.21.12-4.42,4.03-7.92,8.75-7.81,4.71.11,8.44,3.79,8.32,8.21Z"/>
          <path class="cls-6" d="m203.17,11.99c.05-1.79,1.64-3.21,3.55-3.17,1.91.04,3.42,1.53,3.37,3.33-.05,1.79-1.64,3.21-3.55,3.17-1.91-.04-3.42-1.53-3.37-3.33Z"/>
          <path class="cls-8" d="m216.22,35.82c-.13,4.97-4.53,8.9-9.83,8.77-5.3-.12-9.48-4.25-9.35-9.22.13-4.97,4.53-8.9,9.83-8.77,5.3.12,9.48,4.25,9.35,9.22Z"/>
          <rect class="cls-10" x="169.16" y="9.73" width="14.65" height="34.13" rx="5.12" ry="5.12"/>
          <path class="cls-9" d="m151.09,39.73c-.09,3.32-3.03,5.94-6.56,5.86-3.54-.08-6.33-2.84-6.24-6.16.09-3.32,3.03-5.94,6.56-5.86,3.54.08,6.33,2.84,6.24,6.16Z"/>
          <path class="cls-7" d="m134.03,16.49c.15-5.53,5.04-9.89,10.93-9.76,5.89.14,10.54,4.73,10.4,10.25-.15,5.53-5.04,9.89-10.93,9.76-5.89-.14-10.54-4.73-10.4-10.25Z"/>
          <path class="cls-3" d="m136.69,16.55c.11-4.14,3.78-7.42,8.2-7.32,4.42.1,7.91,3.55,7.8,7.69-.11,4.14-3.78,7.42-8.2,7.32-4.42-.1-7.91-3.55-7.8-7.69Z"/>
        </g>
        <g>
          <path class="cls-5" d="m292.8,243.62v-111.34c0-3,2.49-5.43,5.57-5.43h44.42c3.08,0,5.57,2.43,5.57,5.43v111.34c0,3-2.49,5.43-5.57,5.43h-44.42c-3.08,0-5.57-2.43-5.57-5.43Z"/>
          <path class="cls-5" d="m302.85,168.54h36.48c2.22,0,4.02,1.75,4.02,3.91v-36.46c0-2.16-1.8-3.91-4.02-3.91h-36.48c-2.22,0-4.02,1.75-4.02,3.91v36.46c0-2.16,1.8-3.91,4.02-3.91Z"/>
          <rect class="cls-4" x="297.02" y="198.24" width="48.13" height="44.51" rx="10.1" ry="10.1" transform="translate(541.58 -100.59) rotate(90)"/>
          <path class="cls-5" d="m306.12,198.43h29.92c2.89,0,5.24,2.35,5.24,5.24v33.65c0,2.89-2.35,5.24-5.24,5.24h-29.92c-2.89,0-5.24-2.35-5.24-5.24v-33.65c0-2.89,2.35-5.24,5.24-5.24Z" transform="translate(642.17 440.99) rotate(180)"/>
          <ellipse class="cls-5" cx="333.39" cy="219.43" rx="4.18" ry="4.07"/>
          <g>
            <rect class="cls-5" x="337.58" y="133.68" width="2.51" height="32.68"/>
            <rect class="cls-5" x="332.51" y="133.73" width="2.49" height="32.63"/>
            <rect class="cls-5" x="327.44" y="133.78" width="2.48" height="32.58"/>
            <rect class="cls-5" x="322.38" y="133.83" width="2.46" height="32.53"/>
            <rect class="cls-5" x="317.31" y="133.88" width="2.45" height="32.48"/>
            <rect class="cls-5" x="312.25" y="133.94" width="2.43" height="32.42"/>
            <rect class="cls-5" x="307.18" y="133.99" width="2.42" height="32.37"/>
            <rect class="cls-5" x="302.11" y="134.04" width="2.4" height="32.32"/>
          </g>
          <ellipse class="cls-5" cx="333.39" cy="219.43" rx="3.27" ry="3.19"/>
          <rect class="cls-4" x="309.43" y="157.94" width="23.31" height="44.51" rx="9.5" ry="9.5" transform="translate(501.28 -140.89) rotate(90)"/>
          <path class="cls-5" d="m305.53,170.54h31.12c2.56,0,4.64,2.08,4.64,4.64v10.02c0,2.56-2.08,4.64-4.64,4.64h-31.12c-2.56,0-4.64-2.08-4.64-4.64v-10.02c0-2.56,2.08-4.64,4.64-4.64Z"/>
          <g>
            <path class="cls-5" d="m327.05,208.36c0,.45.15.89.49,1.24.66.67,1.74.72,2.45.11l15.97-13.28c-.06.04-4.23-4.27-4.18-4.33l-14.25,15.12c-.32.32-.48.74-.49,1.15Z"/>
            <path class="cls-5" d="m341.13,193.88c-.04,1.66,1.32,3.04,3.02,3.07,1.71.04,3.12-1.28,3.16-2.94.04-1.66-1.32-3.04-3.02-3.07-1.71-.04-3.12,1.28-3.16,2.94Z"/>
            <path class="cls-5" d="m335.44,202.26c.67.71,7.13-4.69,8.09-4.67-1.7-.04-3.06-1.41-3.02-3.07-.02.72-5.71,7.05-5.07,7.75Z"/>
          </g>
          <ellipse class="cls-5" cx="333.39" cy="179.83" rx="4.18" ry="4.07"/>
          <ellipse class="cls-5" cx="333.39" cy="179.83" rx="3.27" ry="3.19"/>
        </g>
        <g>
          <rect class="cls-2" x=".5" y=".5" width="63.13" height="61.5"/>
          <polygon class="cls-1" points="41.04 29.98 41.04 29.02 40.18 29.02 41.39 27.85 40.69 27.17 38.79 29.02 33.15 29.02 37.17 25.11 39.86 25.11 39.86 24.15 38.16 24.15 38.78 23.54 38.08 22.86 37.46 23.47 37.46 21.81 36.47 21.81 36.47 24.43 32.57 28.23 32.57 22.85 34.47 21 33.77 20.32 32.57 21.49 32.57 20.66 31.58 20.66 31.58 21.49 30.37 20.32 29.68 21 31.58 22.85 31.58 28.23 27.67 24.43 27.67 21.81 26.69 21.81 26.69 23.47 26.06 22.86 25.36 23.54 25.99 24.15 24.29 24.15 24.29 25.11 26.98 25.11 30.99 29.02 25.37 29.02 23.47 27.07 22.75 27.73 24 29.02 23.11 29.02 23.11 29.98 23.96 29.98 22.76 31.16 23.46 31.84 25.36 29.98 30.77 29.98 26.98 33.68 24.29 33.68 24.29 34.64 25.99 34.64 25.36 35.25 26.06 35.93 26.69 35.32 26.69 36.98 27.67 36.98 27.67 34.36 31.58 30.55 31.58 35.93 29.68 37.79 30.37 38.47 31.58 37.29 31.58 38.13 32.57 38.13 32.57 37.29 33.77 38.47 34.47 37.79 32.57 35.93 32.57 30.55 36.47 34.36 36.47 36.98 37.46 36.98 37.46 35.32 38.08 35.93 38.78 35.25 38.16 34.64 39.86 34.64 39.86 33.68 37.17 33.68 33.38 29.98 38.78 29.98 40.69 31.84 41.39 31.16 40.18 29.98 41.04 29.98"/>
          <rect class="cls-1" x=".5" y="58.09" width="63.13" height="1.01"/>
        </g>
      </g>
    </g>
  </g>
</svg>