<?xml version="1.0" encoding="UTF-8"?>
<svg xmlns="http://www.w3.org/2000/svg" xmlns:xlink="http://www.w3.org/1999/xlink" viewBox="0 0 967.69 283.29">
  <defs>
    <style>
      .cls-1 {
        fill: #e6e7e8;
      }

      .cls-1, .cls-2, .cls-3, .cls-4, .cls-5, .cls-6, .cls-7, .cls-8, .cls-9, .cls-10, .cls-11, .cls-12, .cls-13, .cls-14 {
        stroke-width: .03px;
      }

      .cls-1, .cls-2, .cls-3, .cls-4, .cls-5, .cls-10, .cls-11, .cls-12, .cls-14 {
        stroke-miterlimit: 10;
      }

      .cls-1, .cls-5, .cls-10 {
        stroke: #b2b2b2;
      }

      .cls-2 {
        fill: url(#linear-gradient-13);
      }

      .cls-2, .cls-3, .cls-4, .cls-6, .cls-7, .cls-8, .cls-9, .cls-11, .cls-12, .cls-13, .cls-14 {
        stroke: #9d9d9c;
      }

      .cls-15 {
        fill: #ff564a;
        mix-blend-mode: multiply;
      }

      .cls-3 {
        fill: url(#linear-gradient-9);
      }

      .cls-4 {
        fill: url(#linear-gradient-10);
      }

      .cls-16 {
        fill: url(#linear-gradient-14);
      }

      .cls-17 {
        isolation: isolate;
      }

      .cls-5 {
        fill: #c4c6c7;
      }

      .cls-6 {
        fill: url(#linear-gradient-2);
      }

      .cls-6, .cls-7, .cls-8, .cls-9, .cls-13 {
        stroke-linecap: round;
        stroke-linejoin: round;
      }

      .cls-18 {
        fill: url(#linear-gradient-11);
      }

      .cls-7 {
        fill: url(#linear-gradient);
      }

      .cls-19 {
        fill: #8f8f8e;
      }

      .cls-8 {
        fill: url(#linear-gradient-3);
      }

      .cls-9 {
        fill: url(#linear-gradient-5);
      }

      .cls-10 {
        fill: #f1f2f2;
      }

      .cls-11 {
        fill: url(#linear-gradient-7);
      }

      .cls-12 {
        fill: url(#linear-gradient-6);
      }

      .cls-13 {
        fill: url(#linear-gradient-4);
      }

      .cls-20 {
        fill: url(#linear-gradient-8);
      }

      .cls-14 {
        fill: url(#linear-gradient-12);
      }
    </style>
    <linearGradient id="linear-gradient" x1="1587.3" y1="141.64" x2="1514.45" y2="141.64" gradientTransform="translate(1587.8) rotate(-180) scale(1 -1)" gradientUnits="userSpaceOnUse">
      <stop offset="0" stop-color="#d9d9d9"/>
      <stop offset="1" stop-color="#b3b3b3"/>
    </linearGradient>
    <linearGradient id="linear-gradient-2" x1="1441.43" y1="141.64" x2="1514.29" y2="141.64" gradientTransform="translate(1587.8) rotate(-180) scale(1 -1)" gradientUnits="userSpaceOnUse">
      <stop offset="0" stop-color="#fff"/>
      <stop offset=".5" stop-color="#ececec"/>
      <stop offset="1" stop-color="#d6d6d6"/>
    </linearGradient>
    <linearGradient id="linear-gradient-3" x1="1587.3" y1="71.39" x2="1441.43" y2="71.39" gradientTransform="translate(1587.8) rotate(-180) scale(1 -1)" gradientUnits="userSpaceOnUse">
      <stop offset="0" stop-color="#e3e3e3"/>
      <stop offset="1" stop-color="#dbdbdb"/>
    </linearGradient>
    <linearGradient id="linear-gradient-4" x1="1441.43" y1="211.91" x2="1587.3" y2="211.91" xlink:href="#linear-gradient-3"/>
    <linearGradient id="linear-gradient-5" x1="1670.25" y1="99.59" x2="1729.49" y2="99.59" gradientTransform="translate(1772.94) rotate(-180) scale(1 -1)" gradientUnits="userSpaceOnUse">
      <stop offset="0" stop-color="#fff"/>
      <stop offset=".3" stop-color="#f9f9f9"/>
      <stop offset=".67" stop-color="#e9e9e9"/>
      <stop offset="1" stop-color="#d6d6d6"/>
    </linearGradient>
    <linearGradient id="linear-gradient-6" x1="1293.69" y1="88.79" x2="1564.63" y2="88.79" gradientTransform="translate(1772.94) rotate(-180) scale(1 -1)" gradientUnits="userSpaceOnUse">
      <stop offset="0" stop-color="#e6e6e6"/>
      <stop offset="1" stop-color="#c9c9c9"/>
    </linearGradient>
    <linearGradient id="linear-gradient-7" x1="1299.86" y1="88.79" x2="1558.46" y2="88.79" gradientTransform="translate(1772.94) rotate(-180) scale(1 -1)" gradientUnits="userSpaceOnUse">
      <stop offset="0" stop-color="#fff"/>
      <stop offset="1" stop-color="#d6d6d6"/>
    </linearGradient>
    <linearGradient id="linear-gradient-8" x1="479.25" y1="181.75" x2="208.31" y2="181.75" gradientUnits="userSpaceOnUse">
      <stop offset="0" stop-color="#c7c7c7"/>
      <stop offset="1" stop-color="#b3b3b3"/>
    </linearGradient>
    <linearGradient id="linear-gradient-9" x1="805.75" y1="91.43" x2="910.05" y2="91.43" xlink:href="#linear-gradient-6"/>
    <linearGradient id="linear-gradient-10" x1="811.93" y1="91.43" x2="903.88" y2="91.43" xlink:href="#linear-gradient-7"/>
    <linearGradient id="linear-gradient-11" x1="967.19" y1="183.63" x2="862.89" y2="183.63" xlink:href="#linear-gradient-8"/>
    <linearGradient id="linear-gradient-12" x1="978.05" y1="91.43" x2="1233.76" y2="91.43" xlink:href="#linear-gradient-6"/>
    <linearGradient id="linear-gradient-13" x1="984.22" y1="91.43" x2="1227.59" y2="91.43" xlink:href="#linear-gradient-7"/>
    <linearGradient id="linear-gradient-14" x1="794.6" y1="181.4" x2="538.77" y2="181.4" xlink:href="#linear-gradient-8"/>
  </defs>
  <g class="cls-17">
    <g id="Layer_1" data-name="Layer 1">
      <g>
        <polygon class="cls-7" points=".5 141.65 .5 1.13 36.93 71.39 73.36 141.65 36.93 211.89 .5 282.14 .5 141.65"/>
        <polygon class="cls-6" points="146.37 141.65 146.37 1.13 109.94 71.39 73.51 141.65 109.94 211.89 146.37 282.14 146.37 141.65"/>
        <polygon class="cls-8" points="146.37 1.13 .5 1.13 73.36 141.65 73.51 141.65 146.37 1.13"/>
        <polygon class="cls-13" points="146.37 282.16 .5 282.16 73.36 141.65 73.51 141.65 146.37 282.16"/>
        <rect class="cls-9" x="43.45" y="1.13" width="59.24" height="196.93"/>
        <rect class="cls-10" x="97.54" y="2.53" width="5.15" height="195.53"/>
        <rect class="cls-5" x="43.45" y="2.53" width="5.16" height="195.53"/>
        <polygon class="cls-1" points="97.77 179.68 48.37 179.68 43.45 198.06 102.69 198.06 97.77 179.68"/>
        <path class="cls-15" d="m146.9,282.16s-.02-.05-.02-.05V1.13c0-.08-.05-.11-.06-.19,0-.07.04-.13.02-.2-.02-.14-.1-.13-.15-.23-.04-.13-.04-.32-.12-.4-.04-.05-.08.05-.12.04-.04-.02-.05-.14-.09-.14H.5s-.05.13-.09.14c-.04,0-.08-.08-.12-.04-.07.07-.07.27-.12.4-.04.11-.12.1-.15.23-.01.07.03.13.02.2,0,.08-.05.11-.05.19v281.02c0,.09.04.12.05.2,0,0-.04.14-.02.21.02.14.11.14.16.24.04.12.04.32.11.38.06.06.13.09.19.1l.02.02h145.89s.03-.05.05-.05c.04-.02.09-.02.13-.06l.02-.07c.17-.19.3-.5.3-.94Z"/>
      </g>
      <g>
        <rect class="cls-12" x="208.31" y="12" width="270.94" height="153.57"/>
        <rect class="cls-11" x="214.48" y="25.54" width="258.6" height="126.49"/>
        <rect class="cls-20" x="208.31" y="165.57" width="270.94" height="32.37"/>
        <path class="cls-19" d="m335.76,180.64c0-4.07,3.59-7.38,8.03-7.38s8.03,3.31,8.03,7.38-3.61,7.36-8.03,7.36-8.03-3.3-8.03-7.36Z"/>
        <polygon class="cls-15" points="479.76 10.88 207.81 10.88 207.81 166.7 208.31 166.7 208.31 197.93 479.25 197.93 479.25 166.7 479.76 166.7 479.76 10.88"/>
      </g>
      <g>
        <rect class="cls-3" x="862.89" y="15.35" width="104.3" height="152.17"/>
        <rect class="cls-4" x="869.06" y="28.82" width="91.95" height="125.22"/>
        <rect class="cls-18" x="862.89" y="167.52" width="104.3" height="32.22"/>
        <path class="cls-19" d="m907.02,182.52c0-4.05,3.59-7.34,8.02-7.34s8.03,3.29,8.03,7.34-3.61,7.32-8.03,7.32-8.02-3.28-8.02-7.32Z"/>
        <polygon class="cls-15" points="967.69 14.22 862.39 14.22 862.39 168.65 862.89 168.65 862.89 199.74 967.19 199.74 967.19 168.65 967.69 168.65 967.69 14.22"/>
      </g>
      <g>
        <rect class="cls-14" x="539.19" y="15.35" width="255.7" height="152.17"/>
        <rect class="cls-2" x="545.36" y="28.82" width="243.36" height="125.22"/>
        <rect class="cls-16" x="538.77" y="164.87" width="255.83" height="33.07"/>
        <rect class="cls-19" x="665.35" y="164.87" width="2.47" height="33.07"/>
        <path class="cls-19" d="m678.6,178.55c0-4.14,3.59-7.52,8.01-7.52s8.03,3.38,8.03,7.52-3.59,7.53-8.03,7.53-8.01-3.36-8.01-7.53Z"/>
        <path class="cls-19" d="m641.11,178.55c0-4.14,3.59-7.52,8.02-7.52s8.03,3.38,8.03,7.52-3.59,7.53-8.03,7.53-8.02-3.36-8.02-7.53Z"/>
        <polygon class="cls-15" points="795.4 14.22 538.68 14.22 538.68 168.65 538.77 168.65 538.77 197.93 665.35 197.93 667.82 197.93 794.6 197.93 794.6 168.65 795.4 168.65 795.4 14.22"/>
      </g>
    </g>
  </g>
</svg>