<?xml version="1.0" encoding="UTF-8"?>
<svg xmlns="http://www.w3.org/2000/svg" viewBox="0 0 526.66 197.99">
  <defs>
    <style>
      .cls-1, .cls-2, .cls-3, .cls-4 {
        fill: #e6e7e8;
        stroke: #2e3192;
        stroke-miterlimit: 10;
      }

      .cls-1, .cls-5 {
        opacity: .6;
      }

      .cls-1, .cls-5, .cls-3, .cls-4 {
        mix-blend-mode: multiply;
      }

      .cls-6 {
        isolation: isolate;
      }

      .cls-4 {
        opacity: .72;
      }
    </style>
  </defs>
  <g class="cls-6">
    <g id="Layer_1" data-name="Layer 1">
      <g>
        <polygon class="cls-2" points="124.03 .59 124.03 81.72 88.02 116.04 .5 116.04 .5 .59 124.03 .59"/>
        <g>
          <rect class="cls-2" x="124.03" y=".59" width="131.3" height="81.13"/>
          <polygon class="cls-1" points="177.54 81.72 177.54 83.75 164.33 83.75 164.33 81.72 160.83 81.72 160.83 85.79 181.04 85.79 181.04 81.72 177.54 81.72"/>
          <polygon class="cls-1" points="218.64 81.72 218.64 83.75 205.43 83.75 205.43 81.72 201.93 81.72 201.93 85.79 222.14 85.79 222.14 81.72 218.64 81.72"/>
          <rect class="cls-2" x="124.03" y=".65" width="131.3" height="76.73"/>
        </g>
        <g>
          <rect class="cls-2" x="351.76" y=".5" width="87.52" height="81.44"/>
          <rect class="cls-2" x="351.76" y=".5" width="87.52" height="77.02"/>
          <polygon class="cls-1" points="403.02 81.94 403.02 83.63 389.81 83.63 389.81 81.94 386.31 81.94 386.31 85.66 406.52 85.66 406.52 81.94 403.02 81.94"/>
        </g>
        <polygon class="cls-2" points="124.03 .59 124.03 77.31 83.29 116.04 .5 116.04 .5 .59 124.03 .59"/>
        <g>
          <g>
            <rect class="cls-2" x="255.8" y="1.03" width="95.48" height="72.55"/>
            <path class="cls-2" d="m350.81,1.47v71.66h-94.53V1.47h94.53Zm.95-.88h-96.43v73.43h96.43V.59h0Z"/>
          </g>
          <g>
            <rect class="cls-2" x="255.8" y="74.46" width="95.48" height="7.3"/>
            <path class="cls-2" d="m350.81,74.9v6.42h-94.53v-6.42h94.53Zm.95-.88h-96.43v8.19h96.43v-8.19h0Z"/>
          </g>
          <path class="cls-1" d="m280.39,4.61c-8.54-.19-15.64,5.86-15.85,13.52-.21,7.66,6.54,14.02,15.08,14.21,8.54.19,15.64-5.86,15.85-13.52.21-7.66-6.54-14.02-15.08-14.21Z"/>
          <path class="cls-2" d="m280.29,8.08c-6.41-.14-11.73,4.4-11.89,10.14-.16,5.74,4.9,10.51,11.31,10.66,6.41.14,11.73-4.4,11.89-10.14.16-5.74-4.9-10.51-11.31-10.66Z"/>
          <path class="cls-1" d="m292.38,51.28c-.17,6.13-5.85,10.98-12.69,10.82-6.84-.15-12.24-5.25-12.07-11.38.17-6.13,5.85-10.98,12.69-10.82,6.84.15,12.24,5.25,12.07,11.38Z"/>
          <ellipse class="cls-2" cx="280" cy="51" rx="9.29" ry="8.33"/>
          <path class="cls-1" d="m342.82,51.01c-.24,8.79-8.39,15.74-18.2,15.53s-17.56-7.52-17.32-16.32c.24-8.79,8.39-15.74,18.2-15.53s17.56,7.52,17.32,16.32Z"/>
          <path class="cls-1" d="m317.15,18.3c.11-3.92,3.74-7.02,8.11-6.92,4.37.1,7.83,3.35,7.72,7.27-.11,3.92-3.74,7.02-8.11,6.92-4.37-.1-7.83-3.35-7.72-7.27Z"/>
          <path class="cls-2" d="m320.26,18.37c.07-2.38,2.27-4.26,4.93-4.2,2.65.06,4.75,2.04,4.69,4.42-.07,2.38-2.27,4.26-4.93,4.2-2.65-.06-4.75-2.04-4.69-4.42Z"/>
          <path class="cls-2" d="m338.38,50.91c-.18,6.6-6.3,11.81-13.65,11.64-7.36-.16-13.17-5.64-12.99-12.24.18-6.59,6.3-11.81,13.65-11.64,7.36.16,13.17,5.64,12.99,12.24Z"/>
          <g>
            <g>
              <path class="cls-1" d="m283.12,75.65c-1.05.39-1.79,1.32-1.79,2.41s.74,2.01,1.79,2.41v-4.81Z"/>
              <path class="cls-1" d="m285.34,75.65v4.81c1.05-.39,1.79-1.32,1.79-2.41s-.74-2.01-1.79-2.41Z"/>
            </g>
            <rect class="cls-2" x="283.12" y="74.95" width="2.22" height="6.22"/>
          </g>
          <g>
            <g class="cls-5">
              <path class="cls-2" d="m309.21,75.65c-1.05.39-1.79,1.32-1.79,2.41s.74,2.01,1.79,2.41v-4.81Z"/>
              <path class="cls-2" d="m311.43,75.65v4.81c1.05-.39,1.79-1.32,1.79-2.41s-.74-2.01-1.79-2.41Z"/>
            </g>
            <rect class="cls-2" x="309.21" y="74.95" width="2.22" height="6.22"/>
          </g>
          <g>
            <g class="cls-5">
              <path class="cls-1" d="m322.25,75.65c-1.05.39-1.79,1.32-1.79,2.41s.74,2.01,1.79,2.41v-4.81Z"/>
              <path class="cls-1" d="m324.47,75.65v4.81c1.05-.39,1.79-1.32,1.79-2.41s-.74-2.01-1.79-2.41Z"/>
            </g>
            <rect class="cls-2" x="322.25" y="74.95" width="2.22" height="6.22"/>
          </g>
          <g>
            <g class="cls-5">
              <path class="cls-1" d="m296.16,75.65c-1.05.39-1.79,1.32-1.79,2.41s.74,2.01,1.79,2.41v-4.81Z"/>
              <path class="cls-1" d="m298.38,75.65v4.81c1.05-.39,1.79-1.32,1.79-2.41s-.74-2.01-1.79-2.41Z"/>
            </g>
            <rect class="cls-2" x="296.16" y="74.95" width="2.22" height="6.22"/>
          </g>
        </g>
        <g>
          <polygon class="cls-2" points="439.29 .5 439.29 76.21 439.29 81.94 526.16 81.94 526.16 76.21 526.16 .5 439.29 .5"/>
          <rect class="cls-2" x="439.29" y="76.51" width="86.88" height="1.01"/>
          <path class="cls-2" d="m492.62,30.45l-7.74,9.55v.15l12.3-1.53v5.19l-12.3-1.37v.15l7.82,9.17-5.13,2.75-4.89-10.69h-.16l-5.3,10.77-4.64-2.75,7.74-9.32v-.15l-12.06,1.45v-5.19l11.98,1.45v-.15l-7.66-9.32,4.97-2.67,5.05,10.62h.16l4.97-10.69,4.89,2.6Z"/>
        </g>
        <g>
          <rect class="cls-2" x="3.54" y="113" width="81.44" height="87.52" transform="translate(-112.5 201.03) rotate(-90)"/>
          <rect class="cls-2" x="1.17" y="115.37" width="81.44" height="82.79" transform="translate(-114.87 198.66) rotate(-90)"/>
          <polygon class="cls-1" points="88.03 149.81 90.21 149.81 90.21 162.1 88.03 162.1 88.03 165.36 92.39 165.36 92.39 146.55 88.03 146.55 88.03 149.81"/>
        </g>
        <g>
          <path class="cls-2" d="m20,76.25l60.66-56.44c.93-.86,2.18-1.35,3.49-1.35h25.91c2.73,0,4.94,2.06,4.94,4.6v53.4c0,1.22-.52,2.39-1.45,3.25l-29.12,27.1c-.93.86-2.18,1.35-3.49,1.35H23.49c-2.73,0-4.94-2.06-4.94-4.6v-24.05c0-1.22.52-2.39,1.45-3.25Z"/>
          <path class="cls-1" d="m106.6,79.58l-22.05,20.52c-3.42,3.19-8.98,3.19-12.4,0l-29.97-27.88c-3.42-3.19-3.42-8.35,0-11.54l22.05-20.52c3.42-3.19,8.98-3.19,12.4,0l29.97,27.88c3.42,3.19,3.42,8.35,0,11.54Z"/>
          <path class="cls-4" d="m82.77,94.54c-2.44,2.27-6.4,2.27-8.84,0l-25.78-23.99c-2.44-2.27-2.44-5.95,0-8.22l17.86-16.62c2.44-2.27,6.4-2.27,8.84,0l25.78,23.99c2.44,2.27,2.44,5.95,0,8.22l-17.86,16.62Z"/>
          <ellipse class="cls-2" cx="70.32" cy="58.32" rx="5.29" ry="4.93"/>
          <ellipse class="cls-3" cx="70.32" cy="58.32" rx="3.88" ry="3.61"/>
          <path class="cls-1" d="m84.5,43.89l18.78,17.48c2.68,2.49,7.25.73,7.25-2.8v-31.56c0-2.18-1.9-3.95-4.25-3.95h-18.81c-2.35,0-4.25,1.77-4.25,3.96l.02,14.08c0,1.05.45,2.05,1.24,2.79Z"/>
          <path class="cls-4" d="m106.26,60.77c-.43,0-1.05-.11-1.63-.65l-18.78-17.48c-.44-.41-.69-.96-.69-1.54l-.02-14.07c0-.58.24-1.13.69-1.55.44-.41,1.03-.64,1.66-.64h18.81c1.29,0,2.35.98,2.35,2.19v31.56c0,.79-.39,1.3-.72,1.58-.45.39-1.05.61-1.66.61h0Z"/>
          <polygon class="cls-1" points="24.26 89.76 41.15 74.04 37.07 70.24 24.26 82.16 24.26 89.76"/>
          <polygon class="cls-1" points="24.22 100.87 47.1 79.57 43.02 75.77 24.22 93.26 24.22 100.87"/>
          <polygon class="cls-1" points="37.77 102.33 54.66 86.61 58.75 90.41 45.94 102.33 37.77 102.33"/>
          <polygon class="cls-1" points="25.83 102.37 48.71 81.07 52.8 84.88 34 102.37 25.83 102.37"/>
          <polygon class="cls-1" points="49.45 102.42 60.55 92.09 64.64 95.89 57.62 102.42 49.45 102.42"/>
          <g>
            <path class="cls-2" d="m68.43,59.2c.33.51.86.89,1.53,1.04,1.28.29,2.59-.41,2.95-1.59l8.47-25.98c-.04.08-8.24-1.82-8.22-1.92l-5.05,26.82c-.12.58,0,1.16.32,1.63Z"/>
            <path class="cls-2" d="m73.77,33.2c1.23,1.88,3.87,2.48,5.9,1.33,2.02-1.15,2.66-3.61,1.43-5.49-1.23-1.88-3.87-2.48-5.9-1.33-2.02,1.15-2.66,3.61-1.43,5.49Z"/>
            <path class="cls-2" d="m73.55,46.52c1.33.33,4.73-10.21,5.87-10.86-2.02,1.15-4.67.55-5.9-1.33.53.81-1.26,11.86.02,12.19Z"/>
          </g>
          <path class="cls-2" d="m97.31,37.76c0,1.99-1.74,3.61-3.88,3.61s-3.88-1.62-3.88-3.61,1.74-3.61,3.88-3.61,3.88,1.62,3.88,3.61Z"/>
          <path class="cls-3" d="m96.27,37.76c0,1.46-1.27,2.65-2.84,2.65s-2.84-1.18-2.84-2.65,1.27-2.65,2.84-2.65,2.84,1.18,2.84,2.65Z"/>
        </g>
      </g>
    </g>
  </g>
</svg>