<?xml version="1.0" encoding="UTF-8"?>
<svg xmlns="http://www.w3.org/2000/svg" xmlns:xlink="http://www.w3.org/1999/xlink" viewBox="0 0 306.67 287">
  <defs>
    <style>
      .cls-1 {
        fill: #d7b37f;
      }

      .cls-1, .cls-2, .cls-3, .cls-4, .cls-5, .cls-6, .cls-7, .cls-8, .cls-9, .cls-10, .cls-11, .cls-12, .cls-13, .cls-14, .cls-15, .cls-16, .cls-17 {
        stroke: #ed1c24;
        stroke-miterlimit: 10;
      }

      .cls-2 {
        fill: url(#Orange_Yellow-4);
      }

      .cls-18 {
        isolation: isolate;
      }

      .cls-3 {
        fill: #cdbdb6;
      }

      .cls-4 {
        fill: #f8dba7;
      }

      .cls-5 {
        fill: #e6d3c9;
      }

      .cls-6, .cls-13 {
        fill: #e0c9be;
      }

      .cls-7 {
        fill: url(#Orange_Yellow);
      }

      .cls-8, .cls-16 {
        fill: #c5b3a9;
      }

      .cls-9 {
        fill: #dec095;
      }

      .cls-10 {
        fill: #f9e1b7;
      }

      .cls-11 {
        fill: url(#Orange_Yellow-2);
      }

      .cls-12 {
        fill: #bba898;
      }

      .cls-13, .cls-16 {
        mix-blend-mode: multiply;
        opacity: .6;
      }

      .cls-14 {
        fill: #8d8d8d;
      }

      .cls-15 {
        fill: url(#Orange_Yellow-3);
      }

      .cls-17 {
        fill: #676564;
      }
    </style>
    <linearGradient id="Orange_Yellow" data-name="Orange, Yellow" x1="176.67" y1="12.33" x2="182.69" y2="12.33" gradientUnits="userSpaceOnUse">
      <stop offset="0" stop-color="#fff33b"/>
      <stop offset=".04" stop-color="#fee62d"/>
      <stop offset=".12" stop-color="#fdd51b"/>
      <stop offset=".2" stop-color="#fdca0f"/>
      <stop offset=".28" stop-color="#fdc70c"/>
      <stop offset=".67" stop-color="#f3903f"/>
      <stop offset=".89" stop-color="#ed683c"/>
      <stop offset="1" stop-color="#e93e3a"/>
    </linearGradient>
    <linearGradient id="Orange_Yellow-2" data-name="Orange, Yellow" x1="171.34" y1="36.36" x2="188.02" y2="36.36" xlink:href="#Orange_Yellow"/>
    <linearGradient id="Orange_Yellow-3" data-name="Orange, Yellow" x1="120.27" y1="40.44" x2="131.4" y2="40.44" xlink:href="#Orange_Yellow"/>
    <linearGradient id="Orange_Yellow-4" data-name="Orange, Yellow" x1="118.88" y1="17.09" x2="132.79" y2="17.09" xlink:href="#Orange_Yellow"/>
  </defs>
  <g class="cls-18">
    <g id="Layer_1" data-name="Layer 1">
      <g>
        <rect class="cls-4" x="55.38" y=".51" width="55.1" height="62.84"/>
        <polygon class="cls-4" points="306.12 63.35 306.12 .51 196.47 .51 196.47 63.35 251.3 63.35 251.3 286.5 306.17 286.5 306.17 63.35 306.12 63.35"/>
        <g>
          <rect class="cls-6" x="110.48" y=".51" width="85.99" height="54.48"/>
          <rect class="cls-12" x="110.48" y="54.98" width="85.99" height="8.33"/>
          <g>
            <g>
              <g>
                <path class="cls-5" d="m127.72,57.31c-.66.3-1.12,1.02-1.12,1.85s.46,1.55,1.12,1.85v-3.7Z"/>
                <path class="cls-5" d="m129.11,57.31v3.7c.66-.3,1.12-1.02,1.12-1.85s-.46-1.55-1.12-1.85Z"/>
              </g>
              <rect class="cls-14" x="127.72" y="56.77" width="1.39" height="4.79"/>
            </g>
            <g>
              <g>
                <path class="cls-5" d="m135.88,57.31c-.66.3-1.12,1.02-1.12,1.85s.46,1.55,1.12,1.85v-3.7Z"/>
                <path class="cls-5" d="m137.27,57.31v3.7c.66-.3,1.12-1.02,1.12-1.85s-.46-1.55-1.12-1.85Z"/>
              </g>
              <rect class="cls-14" x="135.88" y="56.77" width="1.39" height="4.79"/>
            </g>
            <g>
              <g>
                <path class="cls-5" d="m169.69,57.31c-.66.3-1.12,1.02-1.12,1.85s.46,1.55,1.12,1.85v-3.7Z"/>
                <path class="cls-5" d="m171.08,57.31v3.7c.66-.3,1.12-1.02,1.12-1.85s-.46-1.55-1.12-1.85Z"/>
              </g>
              <rect class="cls-14" x="169.69" y="56.77" width="1.39" height="4.79"/>
            </g>
            <g>
              <g>
                <path class="cls-5" d="m177.85,57.31c-.66.3-1.12,1.02-1.12,1.85s.46,1.55,1.12,1.85v-3.7Z"/>
                <path class="cls-5" d="m179.24,57.31v3.7c.66-.3,1.12-1.02,1.12-1.85s-.46-1.55-1.12-1.85Z"/>
              </g>
              <rect class="cls-14" x="177.85" y="56.77" width="1.39" height="4.79"/>
            </g>
            <path class="cls-5" d="m147.23,59.2c0,.63-.46,1.14-1.03,1.14s-1.03-.51-1.03-1.14.46-1.14,1.03-1.14,1.03.51,1.03,1.14Z"/>
            <path class="cls-5" d="m154.71,59.2c0,.63-.46,1.14-1.03,1.14s-1.03-.51-1.03-1.14.46-1.14,1.03-1.14,1.03.51,1.03,1.14Z"/>
            <path class="cls-5" d="m162.19,59.2c0,.63-.46,1.14-1.03,1.14s-1.03-.51-1.03-1.14.46-1.14,1.03-1.14,1.03.51,1.03,1.14Z"/>
          </g>
          <polygon class="cls-8" points="173.68 69.15 133.28 69.15 133.28 63.31 135.55 63.31 135.55 67.1 171.41 67.1 171.41 63.31 173.68 63.31 173.68 69.15"/>
          <path class="cls-13" d="m174.73,12.19c.07-3.02,2.34-5.4,5.08-5.33,2.74.08,4.9,2.58,4.83,5.6-.07,3.02-2.34,5.4-5.08,5.33-2.74-.08-4.9-2.58-4.83-5.6Z"/>
          <ellipse class="cls-13" cx="179.68" cy="36.36" rx="11.12" ry="12.27"/>
          <rect class="cls-16" x="144.99" y="7.16" width="16.98" height="40.31" rx="8.49" ry="8.49"/>
          <path class="cls-13" d="m133.26,40.64c-.1,4.52-3.51,8.09-7.61,7.98-4.1-.11-7.34-3.87-7.24-8.39.1-4.52,3.51-8.09,7.61-7.98,4.1.11,7.34,3.87,7.24,8.39Z"/>
          <path class="cls-7" d="m179.76,9.01c-1.66-.05-3.04,1.4-3.08,3.24-.04,1.83,1.27,3.35,2.93,3.4,1.66.05,3.04-1.4,3.08-3.24.04-1.83-1.27-3.35-2.93-3.4Z"/>
          <path class="cls-11" d="m179.89,27.17c-4.6-.13-8.43,3.89-8.54,8.97-.11,5.08,3.52,9.3,8.13,9.43,4.6.13,8.43-3.89,8.54-8.97.11-5.08-3.52-9.3-8.13-9.43Z"/>
          <path class="cls-14" d="m155.71,9.93h-4.46c-2.29,0-4.14,2.12-4.14,4.74v25.41c0,2.62,1.85,4.74,4.14,4.74h4.46c2.29,0,4.14-2.12,4.14-4.74V14.67c0-2.62-1.85-4.74-4.14-4.74Z"/>
          <path class="cls-15" d="m125.98,34.3c-3.07-.08-5.63,2.6-5.7,5.99-.08,3.39,2.35,6.21,5.43,6.29,3.07.08,5.63-2.6,5.7-5.99.08-3.39-2.35-6.21-5.43-6.29Z"/>
          <ellipse class="cls-13" cx="125.84" cy="17.09" rx="9.27" ry="10.23"/>
          <path class="cls-2" d="m126.01,9.42c-3.84-.11-7.03,3.24-7.12,7.48-.1,4.24,2.94,7.75,6.78,7.86s7.03-3.24,7.12-7.48c.1-4.24-2.94-7.75-6.78-7.86Z"/>
        </g>
        <g>
          <path class="cls-3" d="m254.59,248.95v-113.79c0-3.06,2.17-5.54,4.84-5.54h38.61c2.67,0,4.84,2.48,4.84,5.54v113.79c0,3.06-2.17,5.54-4.84,5.54h-38.61c-2.67,0-4.84-2.48-4.84-5.54Z"/>
          <rect class="cls-13" x="254.58" y="205.97" width="49.19" height="38.69" rx="10.1" ry="10.1" transform="translate(504.49 -53.86) rotate(90)"/>
          <path class="cls-14" d="m294.81,202.77h-31.27c-1.06,0-1.93.99-1.93,2.21v40.69c0,1.22.86,2.21,1.93,2.21h31.27c1.06,0,1.93-.99,1.93-2.21v-40.69c0-1.22-.86-2.21-1.93-2.21Z"/>
          <ellipse class="cls-6" cx="289.87" cy="224.23" rx="3.64" ry="4.16"/>
          <g>
            <rect class="cls-14" x="293.51" y="136.6" width="2.18" height="33.4"/>
            <rect class="cls-14" x="289.11" y="136.65" width="2.16" height="33.35"/>
            <rect class="cls-14" x="284.7" y="136.7" width="2.15" height="33.29"/>
            <rect class="cls-14" x="280.3" y="136.76" width="2.14" height="33.24"/>
            <rect class="cls-14" x="275.89" y="136.81" width="2.13" height="33.19"/>
            <rect class="cls-14" x="271.49" y="136.86" width="2.11" height="33.14"/>
            <rect class="cls-14" x="267.09" y="136.92" width="2.1" height="33.08"/>
            <rect class="cls-14" x="262.68" y="136.97" width="2.09" height="33.03"/>
          </g>
          <ellipse class="cls-17" cx="289.87" cy="224.23" rx="2.84" ry="3.26"/>
          <path class="cls-13" d="m298.52,138.97c0-2.21-1.56-4-3.49-4h-31.71c-1.93,0-3.49,1.79-3.49,4v53.08c0,2.21,1.56,4,3.49,4h31.71c1.93,0,3.49-1.79,3.49-4v-53.08Z"/>
          <path class="cls-14" d="m266.26,174.27h25.83c2.56,0,4.64,2.08,4.64,4.64v10.44c0,2.56-2.08,4.64-4.64,4.64h-25.83c-2.56,0-4.64-2.08-4.64-4.64v-10.44c0-2.56,2.08-4.64,4.64-4.64Z"/>
          <g>
            <path class="cls-9" d="m284.36,212.92c0,.46.13.91.43,1.26.57.69,1.51.73,2.13.11l13.89-13.57s-3.68-4.36-3.63-4.42l-12.39,15.45c-.27.33-.42.76-.42,1.18Z"/>
            <path class="cls-10" d="m296.6,198.12c-.03,1.7,1.14,3.1,2.63,3.14,1.48.04,2.71-1.31,2.74-3.01.03-1.7-1.14-3.1-2.63-3.14-1.48-.04-2.71,1.31-2.74,3.01Z"/>
            <path class="cls-10" d="m291.65,206.68c.58.73,6.19-4.79,7.03-4.77-1.48-.04-2.66-1.45-2.63-3.14-.01.73-4.97,7.21-4.41,7.92Z"/>
          </g>
          <ellipse class="cls-6" cx="289.87" cy="183.76" rx="3.64" ry="4.16"/>
          <ellipse class="cls-17" cx="289.87" cy="183.76" rx="2.84" ry="3.26"/>
        </g>
        <g>
          <rect class="cls-1" x=".5" y=".5" width="54.88" height="62.85"/>
          <polygon class="cls-1" points="35.74 30.63 35.74 29.65 35 29.65 36.04 28.45 35.43 27.75 33.78 29.65 28.88 29.65 32.37 25.65 34.71 25.65 34.71 24.66 33.23 24.66 33.78 24.04 33.17 23.35 32.63 23.97 32.63 22.27 31.77 22.27 31.77 24.95 28.37 28.84 28.37 23.34 30.03 21.45 29.42 20.75 28.37 21.95 28.37 21.1 27.52 21.1 27.52 21.95 26.47 20.75 25.86 21.45 27.52 23.34 27.52 28.84 24.12 24.95 24.12 22.27 23.26 22.27 23.26 23.97 22.72 23.35 22.11 24.04 22.66 24.66 21.18 24.66 21.18 25.65 23.51 25.65 27 29.65 22.11 29.65 20.46 27.65 19.84 28.33 20.93 29.65 20.15 29.65 20.15 30.63 20.89 30.63 19.85 31.83 20.46 32.52 22.11 30.63 26.81 30.63 23.51 34.4 21.18 34.4 21.18 35.39 22.66 35.39 22.11 36.01 22.72 36.71 23.26 36.08 23.26 37.78 24.12 37.78 24.12 35.1 27.52 31.21 27.52 36.71 25.86 38.6 26.47 39.3 27.52 38.1 27.52 38.95 28.37 38.95 28.37 38.1 29.42 39.3 30.03 38.6 28.37 36.71 28.37 31.21 31.77 35.1 31.77 37.78 32.63 37.78 32.63 36.08 33.17 36.71 33.78 36.01 33.23 35.39 34.71 35.39 34.71 34.4 32.37 34.4 29.08 30.63 33.78 30.63 35.43 32.52 36.04 31.83 34.99 30.63 35.74 30.63"/>
          <rect class="cls-1" x=".5" y="59.35" width="54.88" height="1.04"/>
        </g>
      </g>
    </g>
  </g>
</svg>