<?xml version="1.0" encoding="UTF-8"?>
<svg id="Layer_1" data-name="Layer 1" xmlns="http://www.w3.org/2000/svg" viewBox="0 0 314.62 81.76">
  <defs>
    <style>
      .cls-1 {
        fill: #fafaf8;
      }

      .cls-2 {
        fill: #fff;
      }

      .cls-3 {
        fill: #939598;
      }

      .cls-4 {
        fill: none;
        stroke: #26281e;
        stroke-linecap: round;
        stroke-linejoin: round;
        stroke-width: .72px;
      }

      .cls-5 {
        fill: #6d6e71;
      }

      .cls-6 {
        fill: #808285;
      }

      .cls-7 {
        fill: #cccdcf;
      }

      .cls-8 {
        fill: #26281e;
      }
    </style>
  </defs>
  <polygon class="cls-3" points="262.88 4.13 133.51 4.13 81.76 4.13 4.13 4.13 4.13 76.72 4.13 81.76 81.76 81.76 133.51 81.76 211.13 81.76 262.88 81.76 314.62 81.76 314.62 76.72 314.62 4.13 262.88 4.13"/>
  <g>
    <g>
      <rect class="cls-2" x=".36" y="72.94" width="77.62" height="5.04"/>
      <rect class="cls-1" x="77.98" y="72.94" width="51.75" height="5.04"/>
      <rect class="cls-1" x="259.1" y="72.94" width="51.75" height="5.04"/>
      <path class="cls-2" d="m77.98,72.94H.36l25.83-24.15c3.26,3.49,7.91,5.67,13.06,5.67s9.73-2.14,12.98-5.59l25.75,24.07Z"/>
      <rect class="cls-1" x="77.98" y=".36" width="51.75" height="72.58"/>
      <rect class="cls-1" x="259.1" y=".36" width="51.75" height="72.58"/>
      <path class="cls-2" d="m77.98,72.94l-25.75-24.07c3.05-3.22,4.91-7.55,4.91-12.31s-1.82-9-4.83-12.21L77.98.36v72.58Z"/>
      <path class="cls-2" d="m26.19,48.79L.36,72.94V.36l25.75,24.08c-2.95,3.19-4.75,7.45-4.75,12.12s1.83,9.02,4.83,12.22Z"/>
      <path class="cls-2" d="m145.69,56.9h.17c0,2.8,2.25,5.08,5.04,5.12h28.14c2.8,0,5.08-2.25,5.12-5.04v-25.79c0-2.83-2.3-5.12-5.12-5.12l-.08.17h-12.26v-5.21h22.68v41c-.04,2.79-2.32,5.04-5.12,5.04l-.08.17h-38.39v-.17c-2.83,0-5.12-2.3-5.12-5.12h-.17V21.03h22.68v5.21h-12.18v-.17c-2.83,0-5.12,2.3-5.12,5.12l-.17.08v25.62Z"/>
      <path class="cls-2" d="m206.01,56.9h.17c0,2.8,2.25,5.08,5.04,5.12h28.31c2.8,0,5.08-2.25,5.12-5.04v-25.79c0-2.83-2.3-5.12-5.12-5.12l-.08.17h-12.43v-5.21h22.68v40.91h.17c0,2.83-2.3,5.12-5.12,5.12l-.08.17h-38.56v-.17c-2.8,0-5.08-2.25-5.12-5.04V21.03h22.68v5.21h-12.35v-.17c-2.83,0-5.12,2.3-5.12,5.12l-.17.08v25.62Z"/>
      <path class="cls-2" d="m150.98,26.23h12.18v6.22h3.53v-6.22h12.26l.08-.17c2.83,0,5.12,2.3,5.12,5.12v25.79c-.04,2.79-2.32,5.04-5.12,5.04h-28.14c-2.79-.04-5.04-2.32-5.04-5.12h-.17v-25.62l.17-.08c0-2.83,2.3-5.12,5.12-5.12v.17Zm13.61,23.69c3.19,0,5.8-2.59,5.8-5.8s-2.6-5.8-5.8-5.8-5.8,2.59-5.8,5.8,2.59,5.8,5.8,5.8Z"/>
      <path class="cls-2" d="m211.3,26.23h12.35v6.22h3.36v-6.22h12.43l.08-.17c2.83,0,5.12,2.3,5.12,5.12v25.79c-.04,2.79-2.32,5.04-5.12,5.04h-28.31c-2.79-.04-5.04-2.32-5.04-5.12h-.17v-25.62l.17-.08c0-2.83,2.3-5.12,5.12-5.12v.17Zm14.62,23.69c3.19,0,5.8-2.59,5.8-5.8s-2.6-5.8-5.8-5.8-5.8,2.59-5.8,5.8,2.59,5.8,5.8,5.8Z"/>
      <path class="cls-2" d="m52.23,48.87c-3.25,3.44-7.85,5.59-12.98,5.59s-9.8-2.18-13.06-5.67l12.98-12.14,13.06,12.22Z"/>
      <path class="cls-2" d="m52.23,48.87l-13.06-12.22,13.15-12.29c3.01,3.21,4.83,7.49,4.83,12.21s-1.86,9.09-4.91,12.31Z"/>
      <path class="cls-2" d="m39.17,36.65l-12.98,12.14c-3-3.21-4.83-7.49-4.83-12.22s1.79-8.93,4.75-12.12l13.06,12.21Z"/>
      <path class="cls-2" d="m164.59,47.4c-1.81,0-3.28-1.47-3.28-3.28s1.47-3.28,3.28-3.28,3.28,1.47,3.28,3.28-1.47,3.28-3.28,3.28Z"/>
      <path class="cls-2" d="m225.92,47.4c-1.81,0-3.28-1.47-3.28-3.28s1.47-3.28,3.28-3.28,3.28,1.47,3.28,3.28-1.47,3.28-3.28,3.28Z"/>
      <path class="cls-6" d="m222.64,44.13c0,1.81,1.47,3.28,3.28,3.28s3.28-1.47,3.28-3.28-1.47-3.28-3.28-3.28-3.28,1.47-3.28,3.28Zm3.28-5.8c3.19,0,5.8,2.59,5.8,5.8s-2.6,5.8-5.8,5.8-5.8-2.59-5.8-5.8,2.59-5.8,5.8-5.8Z"/>
      <path class="cls-6" d="m164.59,49.92c-3.21,0-5.8-2.59-5.8-5.8s2.59-5.8,5.8-5.8,5.8,2.59,5.8,5.8-2.6,5.8-5.8,5.8Zm-3.28-5.8c0,1.81,1.47,3.28,3.28,3.28s3.28-1.47,3.28-3.28-1.47-3.28-3.28-3.28-3.28,1.47-3.28,3.28Z"/>
      <path class="cls-2" d="m52.32,24.36l-13.15,12.29-13.06-12.21c3.25-3.54,7.94-5.77,13.15-5.77s9.81,2.18,13.06,5.68Z"/>
      <path class="cls-2" d="m26.11,24.44L.36.36h77.62l-25.66,24c-3.25-3.5-7.9-5.68-13.06-5.68s-9.9,2.23-13.15,5.77Z"/>
      <path class="cls-1" d="m217.52,19.01c1.16,0,2.1-.94,2.1-2.1s-.94-2.1-2.1-2.1-2.1.94-2.1,2.1.94,2.1,2.1,2.1Zm15.79,0c1.16,0,2.1-.94,2.1-2.1s-.94-2.1-2.1-2.1-2.1.94-2.1,2.1.94,2.1,2.1,2.1Zm-62.42-2.1c0,1.16.94,2.1,2.1,2.1s2.1-.94,2.1-2.1-.94-2.1-2.1-2.1-2.1.94-2.1,2.1Zm-15.96,0c0,1.16.94,2.1,2.1,2.1s2.1-.94,2.1-2.1-.94-2.1-2.1-2.1-2.1.94-2.1,2.1Zm68.72,4.12h-22.68v41c.04,2.79,2.32,5.04,5.12,5.04v.17h38.56l.08-.17c2.83,0,5.12-2.3,5.12-5.12h-.17V21.03h-22.68v-6.55h-3.36v6.55Zm-60.48,0h-22.68v40.91h.17c0,2.83,2.3,5.12,5.12,5.12v.17h38.39l.08-.17c2.8,0,5.08-2.25,5.12-5.04V21.03h-22.68v-6.55h-3.53v6.55Zm44.19,56.96h-77.62V.36h129.37v77.62h-51.75Z"/>
      <polygon class="cls-6" points="166.69 26.23 166.69 32.45 163.17 32.45 163.17 26.23 163.17 21.03 163.17 14.47 166.69 14.47 166.69 21.03 166.69 26.23"/>
      <polygon class="cls-6" points="227.01 26.23 227.01 32.45 223.65 32.45 223.65 26.23 223.65 21.03 223.65 14.47 227.01 14.47 227.01 21.03 227.01 26.23"/>
      <circle class="cls-7" cx="233.31" cy="16.91" r="2.1"/>
      <path class="cls-5" d="m219.62,16.91c0,1.16-.94,2.1-2.1,2.1s-2.1-.94-2.1-2.1.94-2.1,2.1-2.1,2.1.94,2.1,2.1Z"/>
      <path class="cls-7" d="m175.09,16.91c0,1.16-.94,2.1-2.1,2.1s-2.1-.94-2.1-2.1.94-2.1,2.1-2.1,2.1.94,2.1,2.1Z"/>
      <path class="cls-5" d="m159.13,16.91c0,1.16-.94,2.1-2.1,2.1s-2.1-.94-2.1-2.1.94-2.1,2.1-2.1,2.1.94,2.1,2.1Z"/>
    </g>
    <path class="cls-8" d="m207.35,78.34h-77.62c-.2,0-.36-.16-.36-.36s.16-.36.36-.36h77.62c.2,0,.36.16.36.36s-.16.36-.36.36Z"/>
    <path class="cls-8" d="m259.1.72h-129.37c-.2,0-.36-.16-.36-.36s.16-.36.36-.36h129.37c.2,0,.36.16.36.36s-.16.36-.36.36Z"/>
    <path class="cls-8" d="m259.1,78.34h-51.75c-.2,0-.36-.16-.36-.36s.16-.36.36-.36h51.75c.2,0,.36.16.36.36s-.16.36-.36.36Z"/>
    <path class="cls-8" d="m189.38,62.3c-.2,0-.36-.16-.36-.36V21.39h-22.32c-.2,0-.36-.16-.36-.36s.16-.36.36-.36h22.68c.2,0,.36.16.36.36v40.91c0,.2-.16.36-.36.36Z"/>
    <path class="cls-8" d="m184.25,67.42c-.2,0-.36-.16-.36-.36s.16-.36.36-.36c2.59,0,4.73-2.1,4.76-4.69,0-.2.16-.44.36-.4.2,0,.36.12.36.32-.04,3.06-2.5,5.48-5.48,5.48Z"/>
    <path class="cls-8" d="m184.17,67.59h-38.39c-.2,0-.4-.16-.4-.36s.12-.36.32-.36h38.48c.2,0,.36.16.36.36s-.16.36-.36.36Z"/>
    <path class="cls-8" d="m145.78,67.42c-3.02,0-5.48-2.46-5.48-5.48,0-.2.16-.36.36-.36s.36.16.36.36c0,2.63,2.14,4.76,4.76,4.76.2,0,.36.16.36.36s-.16.36-.36.36Z"/>
    <path class="cls-8" d="m140.48,62.34c-.2,0-.36-.12-.36-.32V21.03c0-.2.16-.36.36-.36h22.68c.2,0,.36.16.36.36s-.16.36-.36.36h-22.32v40.55c0,.2-.16.4-.36.4Z"/>
    <path class="cls-8" d="m178.96,26.59h-12.27c-.2,0-.36-.16-.36-.36s.16-.36.36-.36h12.27c.2,0,.36.16.36.36s-.16.36-.36.36Z"/>
    <path class="cls-8" d="m184.17,31.55c-.2,0-.36-.16-.36-.36,0-2.63-2.14-4.76-4.76-4.76-.2,0-.36-.16-.36-.36s.16-.36.36-.36c3.02,0,5.48,2.46,5.48,5.48,0,.2-.16.36-.36.36Z"/>
    <path class="cls-8" d="m184.17,57.26c-.2,0-.36-.16-.36-.36v-25.62c0-.2.16-.36.36-.36s.36.16.36.36v25.62c0,.2-.16.36-.36.36Z"/>
    <path class="cls-8" d="m179.04,62.38c-.2,0-.36-.16-.36-.36s.16-.36.36-.36c2.59,0,4.73-2.1,4.76-4.69,0-.2.16-.4.36-.4h0c.2,0,.36.12.36.32-.04,3.06-2.5,5.49-5.48,5.49Z"/>
    <path class="cls-8" d="m178.96,62.38h-27.97c-.2,0-.36-.16-.36-.36s.16-.36.36-.36h27.97c.2,0,.36.16.36.36s-.16.36-.36.36Z"/>
    <path class="cls-8" d="m150.98,62.38c-3.06-.05-5.48-2.51-5.48-5.49,0-.2.16-.36.36-.36s.36.16.36.36c0,2.59,2.1,4.73,4.69,4.76.2,0,.4.17.4.36,0,.2-.12.36-.32.36Z"/>
    <path class="cls-8" d="m145.69,57.3c-.2,0-.36-.12-.36-.32v-25.71c0-.2.16-.36.36-.36s.36.16.36.36v25.62c0,.2-.16.4-.36.4Z"/>
    <path class="cls-8" d="m145.86,31.55c-.2,0-.36-.16-.36-.36,0-3.02,2.46-5.48,5.48-5.48.2,0,.36.16.36.36s-.16.36-.36.36c-2.63,0-4.76,2.14-4.76,4.76,0,.2-.16.36-.36.36Z"/>
    <path class="cls-8" d="m163.17,26.59h-12.18c-.2,0-.4-.16-.4-.36s.12-.36.32-.36h12.26c.2,0,.36.16.36.36s-.16.36-.36.36Z"/>
    <path class="cls-4" d="m167.87,44.13c0-1.81-1.47-3.28-3.28-3.28s-3.28,1.47-3.28,3.28,1.47,3.28,3.28,3.28,3.28-1.47,3.28-3.28Z"/>
    <path class="cls-4" d="m170.39,44.13c0-3.21-2.6-5.8-5.8-5.8s-5.8,2.59-5.8,5.8,2.59,5.8,5.8,5.8,5.8-2.59,5.8-5.8Z"/>
    <path class="cls-8" d="m166.69,32.81h-3.53c-.2,0-.36-.16-.36-.36V14.47c0-.2.16-.36.36-.36h3.53c.2,0,.36.16.36.36v17.98c0,.2-.16.36-.36.36Zm-3.17-.72h2.81V14.83h-2.81v17.26Z"/>
    <path class="cls-8" d="m200.97,62.3c-.2,0-.36-.16-.36-.36V21.03c0-.2.16-.36.36-.36h22.68c.2,0,.36.16.36.36s-.16.36-.36.36h-22.32v40.55c0,.2-.16.36-.36.36Z"/>
    <path class="cls-8" d="m206.09,67.42c-2.98,0-5.44-2.42-5.48-5.39l.36-.09h.36v.08c.04,2.58,2.18,4.68,4.76,4.68.2,0,.36.16.36.36s-.16.36-.36.36Z"/>
    <path class="cls-8" d="m244.65,67.59h-38.56c-.2,0-.4-.16-.4-.36s.12-.36.32-.36h38.64c.2,0,.36.16.36.36s-.16.36-.36.36Z"/>
    <path class="cls-8" d="m244.74,67.42c-.2,0-.36-.16-.36-.36s.16-.36.36-.36c2.63,0,4.76-2.14,4.76-4.76,0-.2.16-.36.36-.36s.36.16.36.36c0,3.02-2.46,5.48-5.48,5.48Z"/>
    <path class="cls-8" d="m249.69,62.34c-.2,0-.36-.12-.36-.32V21.39h-22.32c-.2,0-.36-.16-.36-.36s.16-.36.36-.36h22.68c.2,0,.36.16.36.36v40.91c0,.2-.16.4-.36.4Z"/>
    <path class="cls-8" d="m223.65,26.59h-12.35c-.2,0-.4-.16-.4-.36s.12-.36.32-.36h12.43c.2,0,.36.16.36.36s-.16.36-.36.36Z"/>
    <path class="cls-8" d="m206.18,31.55c-.2,0-.36-.16-.36-.36,0-3.02,2.46-5.48,5.48-5.48.2,0,.36.16.36.36s-.16.36-.36.36c-2.63,0-4.76,2.14-4.76,4.76,0,.2-.16.36-.36.36Z"/>
    <path class="cls-8" d="m206.01,57.3c-.2,0-.36-.12-.36-.32v-25.71c0-.2.16-.36.36-.36s.36.16.36.36v25.62c0,.2-.16.4-.36.4Z"/>
    <path class="cls-8" d="m211.22,62.38h0c-2.98-.05-5.4-2.51-5.4-5.49,0-.2.16-.36.36-.36s.36.16.36.36c0,2.59,2.1,4.73,4.69,4.76.2,0,.36.17.35.37,0,.2-.16.35-.36.35Z"/>
    <path class="cls-8" d="m239.44,62.38h-28.14c-.2,0-.4-.16-.4-.36s.12-.36.32-.36h28.23c.2,0,.36.16.36.36s-.16.36-.36.36Z"/>
    <path class="cls-8" d="m239.53,62.38c-.2,0-.36-.16-.36-.36s.16-.36.36-.36c2.59,0,4.73-2.1,4.76-4.69,0-.2.18-.32.37-.35.2,0,.36.17.35.37-.04,2.97-2.5,5.4-5.48,5.4Z"/>
    <path class="cls-8" d="m244.65,57.3c-.2,0-.36-.12-.36-.32v-25.71c0-.2.16-.36.36-.36s.36.16.36.36v25.62c0,.2-.16.4-.36.4Z"/>
    <path class="cls-8" d="m244.65,31.55c-.2,0-.36-.16-.36-.36,0-2.63-2.14-4.76-4.76-4.76-.2,0-.36-.16-.36-.36s.16-.36.36-.36c3.02,0,5.48,2.46,5.48,5.48,0,.2-.16.36-.36.36Z"/>
    <path class="cls-8" d="m239.44,26.59h-12.43c-.2,0-.36-.16-.36-.36s.16-.36.36-.36h12.43c.2,0,.36.16.36.36s-.16.36-.36.36Z"/>
    <path class="cls-4" d="m229.19,44.13c0-1.81-1.47-3.28-3.28-3.28s-3.28,1.47-3.28,3.28,1.47,3.28,3.28,3.28,3.28-1.47,3.28-3.28Z"/>
    <circle class="cls-4" cx="225.92" cy="44.13" r="5.8"/>
    <path class="cls-8" d="m165.85,44.57h-2.69c-.2,0-.36-.16-.36-.36s.16-.36.36-.36h2.69c.2,0,.36.16.36.36s-.16.36-.36.36Z"/>
    <path class="cls-8" d="m164.51,45.75c-.2,0-.36-.16-.36-.36v-2.52c0-.2.16-.36.36-.36s.36.16.36.36v2.52c0,.2-.16.36-.36.36Z"/>
    <path class="cls-8" d="m227.01,44.57h-2.52c-.2,0-.36-.16-.36-.36s.16-.36.36-.36h2.52c.2,0,.36.16.36.36s-.16.36-.36.36Z"/>
    <path class="cls-8" d="m225.83,45.75c-.2,0-.36-.16-.36-.36v-2.52c0-.2.16-.36.36-.36s.36.16.36.36v2.52c0,.2-.16.36-.36.36Z"/>
    <path class="cls-4" d="m159.13,16.91c0-1.16-.94-2.1-2.1-2.1s-2.1.94-2.1,2.1.94,2.1,2.1,2.1,2.1-.94,2.1-2.1Z"/>
    <path class="cls-4" d="m175.09,16.91c0-1.16-.94-2.1-2.1-2.1s-2.1.94-2.1,2.1.94,2.1,2.1,2.1,2.1-.94,2.1-2.1Z"/>
    <path class="cls-8" d="m227.01,32.81h-3.36c-.2,0-.36-.16-.36-.36V14.47c0-.2.16-.36.36-.36h3.36c.2,0,.36.16.36.36v17.98c0,.2-.16.36-.36.36Zm-3-.72h2.64V14.83h-2.64v17.26Z"/>
    <path class="cls-4" d="m219.62,16.91c0-1.16-.94-2.1-2.1-2.1s-2.1.94-2.1,2.1.94,2.1,2.1,2.1,2.1-.94,2.1-2.1Z"/>
    <circle class="cls-4" cx="233.31" cy="16.91" r="2.1"/>
    <path class="cls-8" d="m129.73,78.34h-51.75c-.2,0-.36-.16-.36-.36s.16-.36.36-.36h51.75c.2,0,.36.16.36.36s-.16.36-.36.36Z"/>
    <path class="cls-8" d="m129.73,73.3h-51.75c-.2,0-.36-.16-.36-.36s.16-.36.36-.36h51.75c.2,0,.36.16.36.36s-.16.36-.36.36Z"/>
    <path class="cls-8" d="m129.73,78.34c-.2,0-.36-.16-.36-.36V.72h-51.39c-.2,0-.36-.16-.36-.36s.16-.36.36-.36h51.75c.2,0,.36.16.36.36v77.62c0,.2-.16.36-.36.36Z"/>
    <path class="cls-8" d="m310.85,78.34h-51.75c-.2,0-.36-.16-.36-.36s.16-.36.36-.36h51.75c.2,0,.36.16.36.36s-.16.36-.36.36Z"/>
    <path class="cls-8" d="m310.85,73.3h-51.75c-.2,0-.36-.16-.36-.36s.16-.36.36-.36h51.75c.2,0,.36.16.36.36s-.16.36-.36.36Z"/>
    <path class="cls-8" d="m310.85,78.34c-.2,0-.36-.16-.36-.36V.72h-51.03v77.26c0,.2-.16.36-.36.36s-.36-.16-.36-.36V.36c0-.2.16-.36.36-.36h51.75c.2,0,.36.16.36.36v77.62c0,.2-.16.36-.36.36Z"/>
    <path class="cls-8" d="m77.98,78.34H.36c-.2,0-.36-.16-.36-.36s.16-.36.36-.36h77.62c.2,0,.36.16.36.36s-.16.36-.36.36Z"/>
    <path class="cls-8" d="m77.98,73.3H.36c-.2,0-.36-.16-.36-.36s.16-.36.36-.36h77.62c.2,0,.36.16.36.36s-.16.36-.36.36Z"/>
    <path class="cls-8" d="m77.98,78.34c-.2,0-.36-.16-.36-.36V.72H.72v77.26c0,.2-.16.36-.36.36S0,78.18,0,77.98V.36C0,.16.16,0,.36,0h77.62c.2,0,.36.16.36.36v77.62c0,.2-.16.36-.36.36Z"/>
    <path class="cls-8" d="m.36,73.3c-.1,0-.19-.04-.26-.11-.14-.15-.13-.37.02-.51L77.74.1c.15-.14.37-.13.51.02.14.15.13.37-.02.51L.61,73.21c-.07.07-.16.1-.25.1Z"/>
    <path class="cls-8" d="m77.98,73.3c-.09,0-.18-.03-.25-.1L.11.62C-.03.49-.04.26.1.11.23-.03.46-.04.61.1l77.62,72.58c.15.14.15.36.02.51-.07.08-.17.11-.26.11Z"/>
    <path class="cls-8" d="m39.26,54.82c-5.03,0-9.89-2.11-13.33-5.79-3.18-3.4-4.93-7.83-4.93-12.47s1.72-9,4.84-12.37c3.43-3.74,8.32-5.88,13.41-5.88s9.91,2.11,13.33,5.8c3.18,3.38,4.93,7.81,4.93,12.45s-1.78,9.14-5.01,12.55c-3.47,3.67-8.17,5.7-13.24,5.7Zm0-35.79c-4.89,0-9.59,2.06-12.88,5.65-3,3.24-4.65,7.46-4.65,11.88s1.68,8.71,4.73,11.98c3.3,3.53,7.97,5.56,12.8,5.56s9.39-1.94,12.72-5.47c3.11-3.28,4.82-7.56,4.82-12.06s-1.68-8.71-4.73-11.96c-3.29-3.54-7.95-5.57-12.8-5.57Z"/>
  </g>
</svg>