<?xml version="1.0" encoding="UTF-8"?>
<svg xmlns="http://www.w3.org/2000/svg" viewBox="0 0 297.73 741.26">
  <defs>
    <style>
      .cls-1, .cls-2, .cls-3, .cls-4 {
        fill: #bba898;
      }

      .cls-2, .cls-5, .cls-6, .cls-7, .cls-8, .cls-9, .cls-10, .cls-11, .cls-12, .cls-13, .cls-14, .cls-15, .cls-16, .cls-17, .cls-18, .cls-19, .cls-20, .cls-21, .cls-22 {
        stroke-miterlimit: 10;
      }

      .cls-2, .cls-6, .cls-8, .cls-11, .cls-14 {
        stroke: #00aeef;
      }

      .cls-5, .cls-7, .cls-9, .cls-10, .cls-13, .cls-18, .cls-20, .cls-3, .cls-4, .cls-23, .cls-22 {
        mix-blend-mode: multiply;
      }

      .cls-5, .cls-7, .cls-10, .cls-16, .cls-21 {
        fill: #c49a6c;
        stroke: #3c2415;
      }

      .cls-6, .cls-15, .cls-22 {
        fill: #f5efe1;
      }

      .cls-24 {
        isolation: isolate;
      }

      .cls-7, .cls-4, .cls-22 {
        opacity: .6;
      }

      .cls-8 {
        fill: #cdbdb6;
      }

      .cls-9 {
        opacity: .55;
      }

      .cls-9, .cls-12, .cls-13, .cls-17, .cls-18, .cls-19, .cls-20 {
        stroke: #fbb040;
      }

      .cls-9, .cls-13 {
        fill: #b5b09f;
      }

      .cls-10 {
        opacity: .34;
      }

      .cls-11 {
        fill: #676564;
      }

      .cls-12 {
        fill: #d0c596;
      }

      .cls-13 {
        opacity: .58;
      }

      .cls-14 {
        fill: #c5b3a9;
      }

      .cls-15, .cls-22 {
        stroke: #27aae1;
      }

      .cls-16 {
        mix-blend-mode: screen;
        opacity: .4;
      }

      .cls-17 {
        fill: #efe9d3;
      }

      .cls-18 {
        opacity: .29;
      }

      .cls-18, .cls-20 {
        fill: #f0e4b4;
      }

      .cls-19 {
        fill: #9c9472;
      }

      .cls-20 {
        opacity: .49;
      }
    </style>
  </defs>
  <g class="cls-24">
    <g id="Layer_1" data-name="Layer 1">
      <g>
        <path class="cls-1" d="m85.61,290.29h146.07c2.23,0,4.37.89,5.95,2.46l31.19,31.19c3.28,3.28,3.28,8.61,0,11.89l-69.09,69.09c-1.58,1.58-3.72,2.46-5.95,2.46h-70.13c-2.23,0-4.37-.89-5.95-2.46l-69.16-69.16c-3.28-3.28-3.28-8.61,0-11.89l31.12-31.12c1.58-1.58,3.72-2.46,5.95-2.46Z"/>
        <path class="cls-1" d="m85.61,290.29h146.07c2.23,0,4.37.89,5.95,2.46l31.19,31.19c3.28,3.28,3.28,8.61,0,11.89l-69.09,69.09c-1.58,1.58-3.72,2.46-5.95,2.46h-70.13c-2.23,0-4.37-.89-5.95-2.46l-69.16-69.16c-3.28-3.28-3.28-8.61,0-11.89l31.12-31.12c1.58-1.58,3.72-2.46,5.95-2.46Z"/>
        <path class="cls-4" d="m185.58,398.86h-53.1c-8.25,0-14.93-6.68-14.93-14.93v-72.17c0-8.25,6.68-14.93,14.93-14.93h53.1c8.25,0,14.93,6.69,14.93,14.93v72.16c0,8.25-6.68,14.93-14.93,14.93Z"/>
        <path class="cls-4" d="m127.99,315.7h62.08c5.87,0,10.64,4.77,10.64,10.64v43.01c0,5.87-4.77,10.64-10.64,10.64h-62.08c-5.87,0-10.64-4.77-10.64-10.64v-43.01c0-5.87,4.77-10.64,10.64-10.64Z" transform="translate(506.88 188.82) rotate(90)"/>
        <path class="cls-1" d="m175.78,334.04c-3.52,3.52-9.23,3.52-12.75,0-3.52-3.52-3.52-9.23,0-12.75,3.52-3.52,9.23-3.52,12.75,0,3.52,3.52,3.52,9.23,0,12.75Z"/>
        <circle class="cls-3" cx="169.4" cy="327.67" r="6.61"/>
        <path class="cls-4" d="m205.13,326.07v45.24c0,6.45,7.79,9.68,12.35,5.12l40.83-40.83c2.83-2.83,2.83-7.41,0-10.23l-22.64-22.64c-2.83-2.83-7.42-2.83-10.24,0l-18.19,18.24c-1.35,1.36-2.11,3.19-2.11,5.11Z"/>
        <path class="cls-4" d="m209.49,374.11c-.51-.51-1.12-1.42-1.12-2.8v-45.24c0-1.07.42-2.07,1.17-2.82l18.19-18.24c.75-.76,1.76-1.17,2.83-1.18,1.07,0,2.07.41,2.83,1.17l22.64,22.64c1.56,1.56,1.56,4.1,0,5.65l-40.83,40.83c-1.03,1.03-2.15,1.21-2.91,1.18-1.04-.03-2.06-.48-2.79-1.21h0Z"/>
        <polygon class="cls-4" points="73.26 312.9 113.94 312.9 113.94 303.06 83.1 303.06 73.26 312.9"/>
        <polygon class="cls-4" points="58.84 327.22 113.94 327.22 113.94 317.38 68.67 317.38 58.84 327.22"/>
        <polygon class="cls-4" points="73.26 345.42 113.94 345.42 113.94 355.26 83.1 355.26 73.26 345.42"/>
        <polygon class="cls-4" points="58.84 331.1 113.94 331.1 113.94 340.94 68.67 340.94 58.84 331.1"/>
        <polygon class="cls-4" points="87.2 359.61 113.94 359.61 113.94 369.45 97.04 369.45 87.2 359.61"/>
        <g>
          <path class="cls-1" d="m165.99,326.54c-.25,1.05-.11,2.19.5,3.18,1.17,1.92,3.65,2.58,5.61,1.49l43.81-23.42c-.15.06-7.56-12.27-7.41-12.39l-40.79,28.63c-.9.61-1.49,1.51-1.73,2.49Z"/>
          <path class="cls-1" d="m206.06,299.31c-.95,3.92,1.46,7.87,5.38,8.82,3.92.95,7.87-1.46,8.82-5.38.95-3.92-1.46-7.87-5.38-8.82-3.92-.95-7.87,1.46-8.82,5.38Z"/>
          <path class="cls-1" d="m188.56,316.3c1.17,2.03,18.9-7.52,21.13-6.98-3.92-.95-6.33-4.9-5.38-8.82-.41,1.7-16.87,13.83-15.75,15.8Z"/>
        </g>
        <path class="cls-1" d="m228.5,333.57c-2.58,2.58-6.76,2.58-9.34,0-2.58-2.58-2.58-6.76,0-9.34,2.58-2.58,6.76-2.58,9.34,0s2.58,6.76,0,9.34Z"/>
        <path class="cls-3" d="m227.25,332.32c-1.89,1.89-4.96,1.89-6.85,0s-1.89-4.96,0-6.85c1.89-1.89,4.96-1.89,6.85,0s1.89,4.96,0,6.85Z"/>
      </g>
      <g>
        <rect class="cls-8" x="44.52" y=".5" width="231.73" height="132.47" rx="13.23" ry="13.23"/>
        <path class="cls-2" d="m253.15,12.2h-97.88c-5.25,0-9.5,4.41-9.5,9.84v89.38c0,5.44,4.25,9.84,9.5,9.84h97.88c5.25,0,9.5-4.41,9.5-9.84V22.05c0-5.44-4.25-9.84-9.5-9.84Z"/>
        <path class="cls-14" d="m253.15,112.88c.77,0,1.41-.65,1.41-1.46V22.05c0-.8-.63-1.46-1.41-1.46h-97.88c-.78,0-1.41.65-1.41,1.46v89.38c0,.8.63,1.46,1.41,1.46h97.88Z"/>
        <path class="cls-2" d="m130.62,12.2H59.05c-3.84,0-6.95,4.41-6.95,9.84v89.38c0,5.44,3.11,9.84,6.95,9.84h71.57c3.84,0,6.95-4.41,6.95-9.84V22.05c0-5.44-3.11-9.84-6.95-9.84Z"/>
        <circle class="cls-2" cx="204.21" cy="37.71" r="7.85" transform="translate(91.23 211.95) rotate(-67.5)"/>
        <path class="cls-11" d="m198.6,37.71c0,3.1,2.52,5.62,5.62,5.62s5.62-2.52,5.62-5.62-2.52-5.62-5.62-5.62-5.62,2.52-5.62,5.62Z"/>
        <g>
          <path class="cls-6" d="m184.72,44.76c0,1.08-.41,2.16-1.23,2.98-1.59,1.6-4.15,1.65-5.8.13l-37.07-33.07c.13.09,10.24-10.14,10.12-10.29l32.9,37.43c.73.8,1.09,1.82,1.09,2.83Z"/>
          <circle class="cls-2" cx="144.88" cy="8.87" r="7.31"/>
          <path class="cls-2" d="m165.2,29.5c-1.61,1.7-16.6-11.76-18.89-11.76,4.03,0,7.31-3.28,7.31-7.31,0,1.75,13.14,17.41,11.58,19.07Z"/>
        </g>
        <g>
          <rect class="cls-8" x="55.15" y="20.22" width="79.37" height="6.14"/>
          <rect class="cls-8" x="55.28" y="32.67" width="79.24" height="6.1"/>
          <rect class="cls-8" x="55.41" y="45.12" width="79.12" height="6.07"/>
          <rect class="cls-8" x="55.53" y="57.57" width="78.99" height="6.03"/>
          <rect class="cls-8" x="55.66" y="70.01" width="78.86" height="6"/>
          <rect class="cls-8" x="55.79" y="82.46" width="78.74" height="5.96"/>
          <rect class="cls-8" x="55.91" y="94.91" width="78.61" height="5.92"/>
          <rect class="cls-8" x="56.04" y="107.36" width="78.48" height="5.89"/>
        </g>
      </g>
      <g>
        <path class="cls-15" d="m202.85,161.26h-78.3c-30.54,0-55.39,23.54-55.39,52.48s24.85,52.49,55.39,52.49h78.29c30.12-.4,54.62-23.94,54.62-52.49s-24.5-52.09-54.61-52.48Z"/>
        <g>
          <path class="cls-22" d="m251.81,213.74c0-25.82-21.9-46.78-49.05-47.13h0c-.23,0-.46,0-.69,0-19.32,0-36.06,10.43-44.3,25.68-.92,1.69-1.73,3.45-2.42,5.25-.14.36-.27.72-.4,1.09-.26.73-.5,1.47-.73,2.21-.22.75-.43,1.5-.61,2.26-.19.76-.35,1.53-.5,2.3-.07.39-.14.78-.2,1.17-.13.78-.23,1.57-.32,2.36-.17,1.58-.26,3.19-.26,4.82,0,.41,0,.81.02,1.22.02.81.06,1.61.13,2.41.03.4.07.8.11,1.19.08.79.19,1.58.32,2.36.06.39.13.78.2,1.17.22,1.16.48,2.31.79,3.44.1.38.21.75.32,1.12,5.92,19.76,25.11,34.23,47.86,34.23.23,0,.46,0,.69,0h0c27.15-.35,49.05-21.31,49.05-47.13Z"/>
          <ellipse class="cls-22" cx="202.07" cy="213.74" rx="40.3" ry="38.19"/>
          <g>
            <path class="cls-15" d="m153.85,185.4h-59.82c-1.42,1.38-2.73,2.83-3.92,4.35h61.16c.79-1.49,1.65-2.94,2.57-4.35Z"/>
            <path class="cls-15" d="m149.18,194.23h-62.09c-.82,1.4-1.54,2.85-2.17,4.33h62.7c.46-1.47.98-2.91,1.56-4.33Z"/>
            <path class="cls-15" d="m146.44,203.06h-63.12c-.4,1.41-.73,2.85-.97,4.3h63.37c.18-1.45.43-2.89.73-4.3Z"/>
            <path class="cls-15" d="m161.17,176.49h-53.42c-2.84,1.15-5.55,2.6-8.09,4.33h57.56c1.24-1.51,2.56-2.95,3.95-4.33Z"/>
            <path class="cls-15" d="m145.35,211.89h-63.48c-.03.62-.05,1.23-.05,1.85,0,.81.03,1.62.08,2.43h63.48c-.04-.8-.06-1.61-.06-2.43,0-.62.01-1.24.03-1.85Z"/>
            <path class="cls-15" d="m82.45,220.72c.26,1.44.61,2.86,1.03,4.25h63.08c-.31-1.4-.57-2.82-.77-4.25h-63.34Z"/>
            <path class="cls-15" d="m85.19,229.54c.65,1.45,1.38,2.86,2.21,4.23h62c-.59-1.38-1.11-2.79-1.58-4.23h-62.63Z"/>
            <path class="cls-15" d="m90.63,238.37c1.13,1.4,2.37,2.73,3.71,4,.07.07.15.13.22.2h59.63c-.92-1.36-1.77-2.76-2.55-4.2h-61Z"/>
            <path class="cls-15" d="m100.47,247.2c2.6,1.68,5.36,3.08,8.26,4.18h52.83c-1.37-1.33-2.67-2.72-3.9-4.18h-57.2Z"/>
          </g>
          <ellipse class="cls-15" cx="184.32" cy="195.21" rx="6.91" ry="6.55"/>
          <path class="cls-15" d="m180.16,195.21c0,2.18,1.86,3.94,4.16,3.94s4.16-1.77,4.16-3.94-1.86-3.94-4.16-3.94-4.16,1.77-4.16,3.94Z"/>
          <g>
            <path class="cls-15" d="m199.48,211.99c.59.57,1.4.92,2.3.92,1.74.02,3.19-1.28,3.28-2.92l2.47-36.42c-.02.12-11.17-.03-11.19-.17l2.2,36.55c.03.8.39,1.52.94,2.04Z"/>
            <path class="cls-15" d="m197.91,176.43c2.2,2.11,5.78,2.14,8.01.06,2.23-2.08,2.25-5.48.06-7.59-2.2-2.11-5.78-2.14-8.01-.06-2.23,2.08-2.25,5.48-.06,7.59Z"/>
            <path class="cls-15" d="m201.95,193.94c1.82.06,2.77-14.71,4.03-15.89-2.23,2.08-5.82,2.05-8.01-.06.95.91,2.22,15.89,3.98,15.95Z"/>
          </g>
        </g>
      </g>
      <g>
        <rect class="cls-17" x="50.01" y="445.71" width="231.73" height="132.47" rx="13.23" ry="13.23"/>
        <path class="cls-18" d="m268.51,445.71H63.23c-7.3,0-13.23,5.92-13.23,13.23v106.02c0,7.3,5.92,13.23,13.23,13.23h205.28c7.31,0,13.23-5.92,13.23-13.23v-106.02c0-7.3-5.92-13.23-13.23-13.23Zm9.99,119.24c0,5.51-4.48,9.99-9.99,9.99H63.23c-5.51,0-9.99-4.48-9.99-9.99v-106.02c0-5.51,4.48-9.99,9.99-9.99h205.28c5.51,0,9.99,4.48,9.99,9.99v106.02Z"/>
        <path class="cls-20" d="m258.64,457.42h-97.88c-5.25,0-9.5,4.41-9.5,9.84v89.38c0,5.44,4.25,9.84,9.5,9.84h97.88c5.25,0,9.5-4.41,9.5-9.84v-89.38c0-5.44-4.25-9.84-9.5-9.84Z"/>
        <path class="cls-20" d="m258.64,558.09c.77,0,1.41-.65,1.41-1.46v-89.38c0-.8-.63-1.46-1.41-1.46h-97.88c-.78,0-1.41.65-1.41,1.46v89.38c0,.8.63,1.46,1.41,1.46h97.88Z"/>
        <path class="cls-20" d="m139.08,457.42h-71.57c-3.84,0-6.95,4.41-6.95,9.84v89.38c0,5.44,3.11,9.84,6.95,9.84h71.57c3.84,0,6.95-4.41,6.95-9.84v-89.38c0-5.44-3.11-9.84-6.95-9.84Z"/>
        <circle class="cls-9" cx="209.7" cy="482.92" r="7.85" transform="translate(-74.65 39.83) rotate(-9.22)"/>
        <path class="cls-13" d="m204.08,482.92c0,3.1,2.52,5.62,5.62,5.62s5.62-2.52,5.62-5.62-2.52-5.62-5.62-5.62-5.62,2.52-5.62,5.62Z"/>
        <g>
          <path class="cls-19" d="m190.2,489.97c0,1.08-.41,2.16-1.23,2.98-1.59,1.6-4.15,1.65-5.8.13l-37.07-33.07c.13.09,10.24-10.14,10.12-10.29l32.9,37.43c.73.8,1.09,1.82,1.09,2.83Z"/>
          <circle class="cls-12" cx="150.36" cy="454.08" r="7.31"/>
          <path class="cls-12" d="m170.68,474.71c-1.61,1.7-16.6-11.76-18.89-11.76,4.03,0,7.31-3.28,7.31-7.31,0,1.75,13.14,17.41,11.58,19.07Z"/>
        </g>
        <g class="cls-23">
          <rect class="cls-20" x="63.61" y="465.44" width="79.37" height="6.14"/>
          <rect class="cls-20" x="63.74" y="477.88" width="79.24" height="6.1"/>
          <rect class="cls-20" x="63.86" y="490.33" width="79.12" height="6.07"/>
          <rect class="cls-20" x="63.99" y="502.78" width="78.99" height="6.03"/>
          <rect class="cls-20" x="64.12" y="515.23" width="78.86" height="6"/>
          <rect class="cls-20" x="64.24" y="527.68" width="78.74" height="5.96"/>
          <rect class="cls-20" x="64.37" y="540.12" width="78.61" height="5.92"/>
          <rect class="cls-20" x="64.5" y="552.57" width="78.48" height="5.89"/>
        </g>
      </g>
      <g>
        <rect class="cls-21" x=".5" y="609.35" width="296.73" height="131.42" rx="13.17" ry="13.17"/>
        <rect class="cls-16" x=".5" y="609.35" width="296.73" height="131.42" rx="13.17" ry="13.17"/>
        <path class="cls-10" d="m101.75,717v-86.28c0-5.25,4.25-9.5,9.5-9.5H22.72c-5.25,0-9.5,4.25-9.5,9.5v86.28c0,5.25,4.25,9.5,9.5,9.5h88.53c-5.25,0-9.5-4.25-9.5-9.5Z"/>
        <rect class="cls-7" x="169.46" y="621.21" width="116.88" height="105.28" rx="10.1" ry="10.1"/>
        <path class="cls-7" d="m185.36,620.27h85.09c2.89,0,5.24,2.35,5.24,5.24v96.69c0,2.89-2.35,5.24-5.24,5.24h-85.09c-2.89,0-5.24-2.35-5.24-5.24v-96.68c0-2.89,2.35-5.24,5.24-5.24Z" transform="translate(901.76 445.96) rotate(90)"/>
        <circle class="cls-21" cx="225.33" cy="644.75" r="9.89"/>
        <g>
          <rect class="cls-7" x="17.08" y="628.93" width="79.37" height="5.93"/>
          <rect class="cls-7" x="17.21" y="640.94" width="79.24" height="5.89"/>
          <rect class="cls-7" x="17.33" y="652.96" width="79.12" height="5.86"/>
          <rect class="cls-7" x="17.46" y="664.98" width="78.99" height="5.82"/>
          <rect class="cls-7" x="17.59" y="677" width="78.86" height="5.79"/>
          <rect class="cls-7" x="17.71" y="689.01" width="78.74" height="5.75"/>
          <rect class="cls-7" x="17.84" y="701.03" width="78.61" height="5.72"/>
          <rect class="cls-7" x="17.97" y="713.05" width="78.48" height="5.68"/>
        </g>
        <circle class="cls-5" cx="225.33" cy="644.75" r="7.74"/>
        <rect class="cls-7" x="101.75" y="621.21" width="56.59" height="105.28" rx="9.5" ry="9.5"/>
        <rect class="cls-7" x="82.26" y="650.42" width="95.57" height="46.88" rx="4.64" ry="4.64" transform="translate(-543.81 803.9) rotate(-90)"/>
        <g>
          <path class="cls-21" d="m198.44,659.76c1.08.02,2.16-.36,3-1.17,1.63-1.55,1.74-4.12.26-5.8l-32.26-37.78c.09.13-10.37,10.01-10.51,9.89l36.71,33.71c.79.75,1.8,1.13,2.8,1.15Z"/>
          <path class="cls-21" d="m163.27,626.45c4.03.09,7.38-3.11,7.46-7.15.09-4.03-3.11-7.38-7.15-7.46-4.03-.09-7.38,3.11-7.47,7.15-.09,4.03,3.11,7.38,7.15,7.46Z"/>
          <path class="cls-21" d="m183.61,639.91c1.73-1.58-11.39-16.86-11.34-19.14-.09,4.03-3.43,7.23-7.47,7.15,1.74.04,17.12,13.52,18.81,12Z"/>
        </g>
        <circle class="cls-21" cx="129.15" cy="644.75" r="9.89"/>
        <circle class="cls-5" cx="129.15" cy="644.75" r="7.74"/>
      </g>
    </g>
  </g>
</svg>