<?xml version="1.0" encoding="UTF-8"?><svg id="Layer_1" xmlns="http://www.w3.org/2000/svg" viewBox="0 0 319.62 161.09"><defs><style>.cls-1,.cls-2,.cls-3{stroke:#000;stroke-miterlimit:10;}.cls-2{fill:#fff;}.cls-3{fill:none;stroke-width:.6px;}</style></defs><polygon class="cls-3" points=".3 .3 .3 159.75 319.18 159.75 319.32 159.75 319.32 .3 319.18 .3 .3 .3"/><line class="cls-3" x1="319.18" y1="80.03" x2="80.17" y2="80.03"/><line class="cls-3" x1="292.77" y1=".3" x2="292.77" y2="159.75"/><line class="cls-3" x1="266.19" y1=".3" x2="266.19" y2="159.75"/><line class="cls-3" x1="239.62" y1=".3" x2="239.62" y2="159.75"/><line class="cls-3" x1="213.04" y1=".3" x2="213.04" y2="159.75"/><line class="cls-3" x1="186.47" y1=".3" x2="186.47" y2="159.75"/><line class="cls-3" x1="66.17" y1="45.54" x2="66.17" y2="55.07"/><line class="cls-3" x1="133.32" y1=".3" x2="133.32" y2="159.75"/><line class="cls-3" x1="106.74" y1=".3" x2="106.74" y2="159.75"/><line class="cls-3" x1="80.17" y1=".3" x2="80.17" y2="159.75"/><line class="cls-3" x1="66.17" y1="40.1" x2="300.57" y2="40.1"/><line class="cls-3" x1="310.57" y1="120.12" x2="89.58" y2="120.12"/><polygon class="cls-2" points="315.63 40.29 296.28 35.05 296.28 40.29 296.28 45.54 315.63 40.29"/><polygon class="cls-1" points="80.17 120.12 99.52 125.37 99.52 120.12 99.52 114.88 80.17 120.12"/><path class="cls-1" d="m311.32,123.77c2.54,0,4.61-2.06,4.61-4.61s-2.06-4.61-4.61-4.61-4.61,2.06-4.61,4.61,2.06,4.61,4.61,4.61Z"/><path class="cls-2" d="m66.17,44.71c2.54,0,4.61-2.06,4.61-4.61s-2.06-4.61-4.61-4.61-4.61,2.06-4.61,4.61,2.06,4.61,4.61,4.61Z"/><line class="cls-3" x1="155.82" y1="1.64" x2="155.82" y2="161.09"/><line class="cls-3" x1="66.64" y1="120.49" x2="85.7" y2="120.49"/><line class="cls-3" x1="155.82" y1="71.83" x2="155.82" y2="90.9"/><line class="cls-3" x1="66.17" y1="59.56" x2="66.17" y2="66.83"/><line class="cls-3" x1="66.17" y1="69.09" x2="66.17" y2="78.62"/><line class="cls-3" x1="66.17" y1="80.51" x2="66.17" y2="90.05"/><line class="cls-3" x1="66.17" y1="93.6" x2="66.17" y2="103.13"/><line class="cls-3" x1="66.17" y1="105.13" x2="66.17" y2="120.49"/></svg>