<?xml version="1.0" encoding="UTF-8"?><svg id="Layer_1" xmlns="http://www.w3.org/2000/svg" viewBox="0 0 319.62 161.09"><defs><style>.cls-1,.cls-2,.cls-3{stroke:#000;stroke-miterlimit:10;}.cls-2{fill:#fff;}.cls-3{fill:none;stroke-width:.6px;}</style></defs><polygon class="cls-3" points="319.32 160.79 319.32 1.34 .44 1.34 .3 1.34 .3 160.79 .44 160.79 319.32 160.79"/><line class="cls-3" x1=".44" y1="81.06" x2="239.45" y2="81.06"/><line class="cls-3" x1="26.85" y1="160.79" x2="26.85" y2="1.34"/><line class="cls-3" x1="53.43" y1="160.79" x2="53.43" y2="1.34"/><line class="cls-3" x1="80" y1="160.79" x2="80" y2="1.34"/><line class="cls-3" x1="106.58" y1="160.79" x2="106.58" y2="1.34"/><line class="cls-3" x1="133.15" y1="160.79" x2="133.15" y2="1.34"/><line class="cls-3" x1="253.45" y1="115.55" x2="253.45" y2="106.02"/><line class="cls-3" x1="186.3" y1="160.79" x2="186.3" y2="1.34"/><line class="cls-3" x1="212.88" y1="160.79" x2="212.88" y2="1.34"/><line class="cls-3" x1="239.45" y1="160.79" x2="239.45" y2="1.34"/><line class="cls-3" x1="253.45" y1="120.99" x2="19.05" y2="120.99"/><line class="cls-3" x1="9.05" y1="40.97" x2="230.04" y2="40.97"/><polygon class="cls-2" points="3.99 120.8 23.34 126.04 23.34 120.8 23.34 115.55 3.99 120.8"/><polygon class="cls-1" points="239.45 40.97 220.1 35.72 220.1 40.97 220.1 46.21 239.45 40.97"/><path class="cls-1" d="m8.3,37.32c-2.54,0-4.61,2.06-4.61,4.61s2.06,4.61,4.61,4.61,4.61-2.06,4.61-4.61-2.06-4.61-4.61-4.61Z"/><path class="cls-2" d="m253.45,116.38c-2.54,0-4.61,2.06-4.61,4.61s2.06,4.61,4.61,4.61c2.55,0,4.61-2.06,4.61-4.61s-2.06-4.61-4.61-4.61Z"/><line class="cls-3" x1="163.8" y1="159.45" x2="163.8" y2="0"/><line class="cls-3" x1="252.98" y1="40.6" x2="233.92" y2="40.6"/><line class="cls-3" x1="163.8" y1="89.26" x2="163.8" y2="70.19"/><line class="cls-3" x1="253.45" y1="101.53" x2="253.45" y2="94.26"/><line class="cls-3" x1="253.45" y1="92" x2="253.45" y2="82.47"/><line class="cls-3" x1="253.45" y1="80.58" x2="253.45" y2="71.04"/><line class="cls-3" x1="253.45" y1="67.49" x2="253.45" y2="57.96"/><line class="cls-3" x1="253.45" y1="55.96" x2="253.45" y2="40.6"/></svg>