<?xml version="1.0" encoding="UTF-8"?><svg id="Layer_1" xmlns="http://www.w3.org/2000/svg" xmlns:xlink="http://www.w3.org/1999/xlink" viewBox="0 0 714.4 943.54"><defs><style>.cls-1{fill:url(#linear-gradient-2);}.cls-2{fill:url(#linear-gradient-14);}.cls-3{fill:#756d6a;isolation:isolate;opacity:.2;}.cls-4{fill:url(#linear-gradient-6);}.cls-5{fill:url(#linear-gradient-11);}.cls-6{fill:url(#linear-gradient-10);}.cls-7{fill:#b5ac94;}.cls-8{fill:url(#linear-gradient-5);}.cls-9{fill:url(#linear-gradient-7);}.cls-10{fill:url(#linear-gradient-9);}.cls-11{fill:url(#linear-gradient-3);}.cls-12{fill:url(#linear-gradient);}.cls-13{fill:url(#linear-gradient-4);}.cls-14{fill:url(#linear-gradient-8);}.cls-15{fill:url(#linear-gradient-12);}.cls-16{fill:url(#linear-gradient-13);}</style><linearGradient id="linear-gradient" x1="562.02" y1="226.54" x2="636.47" y2="223.7" gradientTransform="translate(0 944) scale(1 -1)" gradientUnits="userSpaceOnUse"><stop offset="0" stop-color="#b5ac94"/><stop offset=".02" stop-color="#b9b098"/><stop offset=".13" stop-color="#c7bfa9"/><stop offset=".27" stop-color="#d1c9b5"/><stop offset=".46" stop-color="#d7cfbc"/><stop offset="1" stop-color="#d9d1be"/></linearGradient><linearGradient id="linear-gradient-2" x1="464.86" y1="230.21" x2="617.48" y2="203.87" gradientTransform="translate(0 944) scale(1 -1)" gradientUnits="userSpaceOnUse"><stop offset="0" stop-color="#b5ac94"/><stop offset=".02" stop-color="#b9b098"/><stop offset=".13" stop-color="#c7bfa9"/><stop offset=".27" stop-color="#d1c9b5"/><stop offset=".46" stop-color="#d7cfbc"/><stop offset="1" stop-color="#d9d1be"/></linearGradient><linearGradient id="linear-gradient-3" x1="376.36" y1="233.74" x2="556.94" y2="175.13" gradientTransform="translate(0 944) scale(1 -1)" gradientUnits="userSpaceOnUse"><stop offset="0" stop-color="#b5ac94"/><stop offset=".02" stop-color="#b9b098"/><stop offset=".13" stop-color="#c7bfa9"/><stop offset=".27" stop-color="#d1c9b5"/><stop offset=".46" stop-color="#d7cfbc"/><stop offset="1" stop-color="#d9d1be"/></linearGradient><linearGradient id="linear-gradient-4" x1="276.9" y1="229.97" x2="433.48" y2="141.26" gradientTransform="translate(0 944) scale(1 -1)" gradientUnits="userSpaceOnUse"><stop offset="0" stop-color="#b5ac94"/><stop offset=".02" stop-color="#b9b098"/><stop offset=".13" stop-color="#c7bfa9"/><stop offset=".27" stop-color="#d1c9b5"/><stop offset=".46" stop-color="#d7cfbc"/><stop offset="1" stop-color="#d9d1be"/></linearGradient><linearGradient id="linear-gradient-5" x1="172.25" y1="275.24" x2="269.07" y2="124.05" gradientTransform="translate(0 944) scale(1 -1)" gradientUnits="userSpaceOnUse"><stop offset="0" stop-color="#b5ac94"/><stop offset=".02" stop-color="#b9b098"/><stop offset=".11" stop-color="#c7bfa9"/><stop offset=".22" stop-color="#d1c9b5"/><stop offset=".38" stop-color="#d7cfbc"/><stop offset=".83" stop-color="#d9d1be"/></linearGradient><linearGradient id="linear-gradient-6" x1="172.64" y1="381.8" x2="194.01" y2="294.36" gradientTransform="translate(0 944) scale(1 -1)" gradientUnits="userSpaceOnUse"><stop offset="0" stop-color="#b5ac94"/><stop offset=".02" stop-color="#b9b098"/><stop offset=".13" stop-color="#c7bfa9"/><stop offset=".27" stop-color="#d1c9b5"/><stop offset=".46" stop-color="#d7cfbc"/><stop offset="1" stop-color="#d9d1be"/></linearGradient><linearGradient id="linear-gradient-7" x1="193.47" y1="484.35" x2="193.42" y2="389.87" gradientTransform="translate(0 944) scale(1 -1)" gradientUnits="userSpaceOnUse"><stop offset="0" stop-color="#b5ac94"/><stop offset=".02" stop-color="#b9b098"/><stop offset=".11" stop-color="#c7bfa9"/><stop offset=".22" stop-color="#d1c9b5"/><stop offset=".38" stop-color="#d7cfbc"/><stop offset=".83" stop-color="#d9d1be"/></linearGradient><linearGradient id="linear-gradient-8" x1="180.64" y1="458.89" x2="197.16" y2="563.14" gradientTransform="translate(0 944) scale(1 -1)" gradientUnits="userSpaceOnUse"><stop offset=".23" stop-color="#d9d1be"/><stop offset=".64" stop-color="#d7cfbc"/><stop offset=".79" stop-color="#d1c9b5"/><stop offset=".9" stop-color="#c7bfa9"/><stop offset=".98" stop-color="#b9b098"/><stop offset="1" stop-color="#b5ac94"/></linearGradient><linearGradient id="linear-gradient-9" x1="219.13" y1="693.46" x2="141.99" y2="575.05" gradientTransform="translate(0 944) scale(1 -1)" gradientUnits="userSpaceOnUse"><stop offset=".24" stop-color="#b5ac94"/><stop offset=".25" stop-color="#b9b098"/><stop offset=".32" stop-color="#c7bfa9"/><stop offset=".4" stop-color="#d1c9b5"/><stop offset=".51" stop-color="#d7cfbc"/><stop offset=".83" stop-color="#d9d1be"/></linearGradient><linearGradient id="linear-gradient-10" x1="236.05" y1="771.34" x2="136.97" y2="702.47" gradientTransform="translate(0 944) scale(1 -1)" gradientUnits="userSpaceOnUse"><stop offset="0" stop-color="#b5ac94"/><stop offset=".02" stop-color="#b9b098"/><stop offset=".11" stop-color="#c7bfa9"/><stop offset=".22" stop-color="#d1c9b5"/><stop offset=".38" stop-color="#d7cfbc"/><stop offset=".83" stop-color="#d9d1be"/></linearGradient><linearGradient id="linear-gradient-11" x1="341.91" y1="776.89" x2="257.33" y2="746.03" gradientTransform="translate(0 944) scale(1 -1)" gradientUnits="userSpaceOnUse"><stop offset="0" stop-color="#b5ac94"/><stop offset=".02" stop-color="#b9b098"/><stop offset=".11" stop-color="#c7bfa9"/><stop offset=".22" stop-color="#d1c9b5"/><stop offset=".38" stop-color="#d7cfbc"/><stop offset=".83" stop-color="#d9d1be"/></linearGradient><linearGradient id="linear-gradient-12" x1="440.72" y1="764.06" x2="355.12" y2="747.78" gradientTransform="translate(0 944) scale(1 -1)" gradientUnits="userSpaceOnUse"><stop offset="0" stop-color="#b5ac94"/><stop offset=".02" stop-color="#b9b098"/><stop offset=".13" stop-color="#c7bfa9"/><stop offset=".27" stop-color="#d1c9b5"/><stop offset=".46" stop-color="#d7cfbc"/><stop offset=".99" stop-color="#d9d1be"/></linearGradient><linearGradient id="linear-gradient-13" x1="531.45" y1="755.69" x2="443.36" y2="751.04" gradientTransform="translate(0 944) scale(1 -1)" gradientUnits="userSpaceOnUse"><stop offset="0" stop-color="#b5ac94"/><stop offset=".02" stop-color="#b9b098"/><stop offset=".11" stop-color="#c7bfa9"/><stop offset=".22" stop-color="#d1c9b5"/><stop offset=".38" stop-color="#d7cfbc"/><stop offset=".83" stop-color="#d9d1be"/></linearGradient><linearGradient id="linear-gradient-14" x1="643.22" y1="752.18" x2="536.56" y2="753.26" gradientTransform="translate(0 944) scale(1 -1)" gradientUnits="userSpaceOnUse"><stop offset="0" stop-color="#b5ac94"/><stop offset=".02" stop-color="#b9b098"/><stop offset=".11" stop-color="#c7bfa9"/><stop offset=".22" stop-color="#d1c9b5"/><stop offset=".38" stop-color="#d7cfbc"/><stop offset=".83" stop-color="#d9d1be"/></linearGradient></defs><g id="Layer_1-2"><g id="stairs"><rect class="cls-12" x="533.93" y="548.73" width="108.72" height="339.46"/><polygon class="cls-1" points="412.22 888.2 561.51 888.2 571.65 548.73 462.93 548.73 412.22 888.2"/><polygon class="cls-11" points="306.73 888.2 445.87 888.2 496.58 548.73 387.87 548.73 306.73 888.2"/><polygon class="cls-13" points="131.49 888.2 316.27 888.2 437.97 548.73 329.25 548.73 131.49 888.2"/><polygon class="cls-8" points="20.2 888.2 168.95 888.2 387.97 548.73 366.14 548.73 20.2 773.01 20.2 888.2"/><polygon class="cls-4" points="20.2 773.01 20.2 591.59 366.71 521.73 366.71 548.73 20.2 773.01"/><polygon class="cls-9" points="366.71 521.73 366.71 463.84 20.2 463.84 20.2 591.59 366.71 521.73"/><polygon class="cls-14" points="366.71 463.84 366.71 413.13 20.2 344.67 20.2 463.84 366.71 463.84"/><polyline class="cls-10" points="366.71 413.13 366.71 386.51 20.2 166.77 20.2 344.67"/><polyline class="cls-6" points="20.2 166.77 20.2 18.03 139.09 18.03 366.71 364.53 366.71 386.51"/><polygon class="cls-5" points="366.71 364.53 412.22 364.53 289.52 18.03 139.09 18.03 366.71 364.53"/><polygon class="cls-15" points="412.22 364.53 472.63 364.53 412.22 18.03 289.52 18.03 412.22 364.53"/><polygon class="cls-16" points="472.63 364.53 537.99 364.53 524.47 18.03 412.22 18.03 472.63 364.53"/><polygon class="cls-2" points="524.47 18.03 537.99 364.53 642.65 364.53 642.65 18.03 524.47 18.03"/><polygon class="cls-7" points="387.97 530.18 387.97 384.25 642.65 384.25 642.65 364.53 366.71 364.53 366.71 548.73 642.65 548.73 642.65 530.18 387.97 530.18"/><polygon class="cls-7" points="642.65 888.2 642.65 906.83 0 906.83 0 0 642.65 0 642.65 18.03 20.2 18.03 20.2 888.2 642.65 888.2"/><polygon class="cls-3" points="642.9 529.95 714.4 601.45 714.4 617.95 674.65 578.2 674.65 896.95 707.28 929.57 706.91 943.54 697.9 934.95 689.77 934.72 661.9 906.95 642.65 906.83 642.9 529.95"/></g></g></svg>