<?xml version="1.0" encoding="UTF-8"?><svg id="Layer_1" xmlns="http://www.w3.org/2000/svg" viewBox="0 0 161.09 319.62"><defs><style>.cls-1,.cls-2,.cls-3{stroke:#000;stroke-miterlimit:10;}.cls-2{fill:#fff;}.cls-3{fill:none;stroke-width:.6px;}</style></defs><polygon class="cls-3" points=".3 319.32 159.75 319.32 159.75 .44 159.75 .3 .3 .3 .3 .44 .3 319.32"/><line class="cls-3" x1="80.03" y1=".44" x2="80.03" y2="239.45"/><line class="cls-3" x1=".3" y1="26.85" x2="159.75" y2="26.85"/><line class="cls-3" x1=".3" y1="53.43" x2="159.75" y2="53.43"/><line class="cls-3" x1=".3" y1="80" x2="159.75" y2="80"/><line class="cls-3" x1=".3" y1="106.58" x2="159.75" y2="106.58"/><line class="cls-3" x1=".3" y1="133.15" x2="159.75" y2="133.15"/><line class="cls-3" x1="45.54" y1="253.45" x2="55.07" y2="253.45"/><line class="cls-3" x1=".3" y1="186.3" x2="159.75" y2="186.3"/><line class="cls-3" x1=".3" y1="212.88" x2="159.75" y2="212.88"/><line class="cls-3" x1=".3" y1="239.45" x2="159.75" y2="239.45"/><line class="cls-3" x1="40.1" y1="253.45" x2="40.1" y2="19.05"/><line class="cls-3" x1="120.12" y1="9.05" x2="120.12" y2="230.04"/><polygon class="cls-2" points="40.29 3.99 35.05 23.34 40.29 23.34 45.54 23.34 40.29 3.99"/><polygon class="cls-1" points="120.12 239.45 125.37 220.1 120.12 220.1 114.88 220.1 120.12 239.45"/><path class="cls-1" d="m123.77,8.3c0-2.54-2.06-4.61-4.61-4.61s-4.61,2.06-4.61,4.61,2.06,4.61,4.61,4.61,4.61-2.06,4.61-4.61Z"/><path class="cls-2" d="m44.71,253.45c0-2.54-2.06-4.61-4.61-4.61s-4.61,2.06-4.61,4.61,2.06,4.61,4.61,4.61,4.61-2.06,4.61-4.61Z"/><line class="cls-3" x1="1.64" y1="163.8" x2="161.09" y2="163.8"/><line class="cls-3" x1="120.49" y1="252.98" x2="120.49" y2="233.92"/><line class="cls-3" x1="71.83" y1="163.8" x2="90.9" y2="163.8"/><line class="cls-3" x1="59.56" y1="253.45" x2="66.83" y2="253.45"/><line class="cls-3" x1="69.09" y1="253.45" x2="78.62" y2="253.45"/><line class="cls-3" x1="80.51" y1="253.45" x2="90.05" y2="253.45"/><line class="cls-3" x1="93.6" y1="253.45" x2="103.13" y2="253.45"/><line class="cls-3" x1="105.13" y1="253.45" x2="120.49" y2="253.45"/></svg>