<?xml version="1.0" encoding="UTF-8"?><svg id="Layer_1" xmlns="http://www.w3.org/2000/svg" viewBox="0 0 161.09 319.62"><defs><style>.cls-1,.cls-2,.cls-3{stroke:#000;stroke-miterlimit:10;}.cls-2{fill:#fff;}.cls-3{fill:none;stroke-width:.6px;}</style></defs><polygon class="cls-3" points="160.79 .3 1.34 .3 1.34 319.18 1.34 319.32 160.79 319.32 160.79 319.18 160.79 .3"/><line class="cls-3" x1="81.06" y1="319.18" x2="81.06" y2="80.17"/><line class="cls-3" x1="160.79" y1="292.77" x2="1.34" y2="292.77"/><line class="cls-3" x1="160.79" y1="266.19" x2="1.34" y2="266.19"/><line class="cls-3" x1="160.79" y1="239.62" x2="1.34" y2="239.62"/><line class="cls-3" x1="160.79" y1="213.04" x2="1.34" y2="213.04"/><line class="cls-3" x1="160.79" y1="186.47" x2="1.34" y2="186.47"/><line class="cls-3" x1="115.55" y1="66.17" x2="106.02" y2="66.17"/><line class="cls-3" x1="160.79" y1="133.32" x2="1.34" y2="133.32"/><line class="cls-3" x1="160.79" y1="106.74" x2="1.34" y2="106.74"/><line class="cls-3" x1="160.79" y1="80.17" x2="1.34" y2="80.17"/><line class="cls-3" x1="120.99" y1="66.17" x2="120.99" y2="300.57"/><line class="cls-3" x1="40.97" y1="310.57" x2="40.97" y2="89.58"/><polygon class="cls-2" points="120.8 315.63 126.04 296.28 120.8 296.28 115.55 296.28 120.8 315.63"/><polygon class="cls-1" points="40.97 80.17 35.72 99.52 40.97 99.52 46.21 99.52 40.97 80.17"/><path class="cls-1" d="m37.32,311.32c0,2.54,2.06,4.61,4.61,4.61s4.61-2.06,4.61-4.61-2.06-4.61-4.61-4.61-4.61,2.06-4.61,4.61Z"/><path class="cls-2" d="m116.38,66.17c0,2.54,2.06,4.61,4.61,4.61s4.61-2.06,4.61-4.61-2.06-4.61-4.61-4.61-4.61,2.06-4.61,4.61Z"/><line class="cls-3" x1="159.45" y1="155.82" x2="0" y2="155.82"/><line class="cls-3" x1="40.6" y1="66.64" x2="40.6" y2="85.7"/><line class="cls-3" x1="89.26" y1="155.82" x2="70.19" y2="155.82"/><line class="cls-3" x1="101.53" y1="66.17" x2="94.26" y2="66.17"/><line class="cls-3" x1="92" y1="66.17" x2="82.47" y2="66.17"/><line class="cls-3" x1="80.58" y1="66.17" x2="71.04" y2="66.17"/><line class="cls-3" x1="67.49" y1="66.17" x2="57.96" y2="66.17"/><line class="cls-3" x1="55.96" y1="66.17" x2="40.6" y2="66.17"/></svg>