<?xml version="1.0" encoding="UTF-8"?>
<svg id="Layer_1" data-name="Layer 1" xmlns="http://www.w3.org/2000/svg" viewBox="0 0 332.92 332.92">
  <defs>
    <style>
      .cls-1 {
        fill: #fff;
      }

      .cls-2 {
        fill: #231f20;
      }
    </style>
  </defs>
  <path class="cls-1" d="m75.22,124.93V0h4.42v124.93c0,70.77,57.58,128.34,128.34,128.34h124.93v4.42h-124.93c-73.21,0-132.77-59.56-132.77-132.77Z"/>
  <path class="cls-1" d="m4.42,124.93V0h4.43v124.93c0,109.8,89.34,199.14,199.14,199.14h124.93v4.43h-124.93C95.74,328.49,4.42,237.17,4.42,124.93Z"/>
  <path class="cls-2" d="m84.07,124.93c0,68.33,55.59,123.92,123.92,123.92h124.93v4.42h-124.93c-70.77,0-128.34-57.57-128.34-128.34V0h4.42v124.93Z"/>
  <path class="cls-2" d="m4.42,124.93c0,112.25,91.32,203.56,203.57,203.56h124.93v4.43h-124.93C93.3,332.92,0,239.62,0,124.93V0h4.42v124.93Z"/>
  <path class="cls-2" d="m75.22,0H8.85v124.93c0,109.8,89.34,199.14,199.14,199.14h124.93v-30.98h-12.47v-4.42h12.47v-30.97h-124.93c-73.21,0-132.77-59.56-132.77-132.77V0Zm212.03,288.67h16.6v4.42h-16.6v-4.42Zm-33.19,0h16.59v4.42h-16.59v-4.42Zm-33.19,0h16.6v4.42h-16.6v-4.42Zm-33.4,3.17l.54-4.39c5.38.66,10.86,1.06,16.31,1.17l-.09,4.43c-5.6-.13-11.24-.54-16.76-1.22Zm-32.74-7.44l1.41-4.19c5.17,1.74,10.45,3.23,15.75,4.42l-.99,4.31c-5.43-1.23-10.86-2.75-16.18-4.54Zm-30.58-13.84l2.22-3.83c4.7,2.73,9.6,5.24,14.55,7.49l-1.83,4.03c-5.09-2.3-10.12-4.89-14.94-7.69Zm-27.22-19.62l2.92-3.32c4.07,3.59,8.37,7.02,12.8,10.22l-2.6,3.59c-4.53-3.28-8.95-6.81-13.12-10.48Zm-22.85-24.59l3.52-2.68c3.29,4.33,6.83,8.54,10.53,12.52l-3.24,3.02c-3.8-4.09-7.45-8.42-10.81-12.85ZM44.25,16.74h-4.42V.14h4.42v16.6Zm0,33.19h-4.42v-16.59h4.42v16.59Zm0,33.19h-4.42v-16.6h4.42v16.6Zm0,33.19h-4.42v-16.6h4.42v16.6Zm1.79,32.76l-4.38.65c-.82-5.52-1.38-11.14-1.64-16.72l4.41-.22c.26,5.43.81,10.92,1.61,16.28Zm8.06,31.67l-4.16,1.51c-1.92-5.23-3.59-10.64-4.96-16.06l4.29-1.09c1.34,5.27,2.97,10.53,4.83,15.63Zm14.24,29.42l-3.77,2.31c-2.91-4.75-5.63-9.7-8.06-14.73l3.99-1.94c2.37,4.91,5,9.73,7.85,14.36Z"/>
  <path class="cls-1" d="m40.02,133.01l4.41-.22c.26,5.43.81,10.92,1.61,16.28l-4.38.65c-.82-5.52-1.38-11.14-1.64-16.72Z"/>
  <path class="cls-1" d="m44.98,166.2l4.29-1.09c1.34,5.27,2.97,10.53,4.83,15.63l-4.16,1.51c-1.92-5.23-3.59-10.64-4.96-16.06Z"/>
  <path class="cls-1" d="m56.5,197.74l3.99-1.94c2.37,4.91,5,9.73,7.85,14.36l-3.77,2.31c-2.91-4.75-5.63-9.7-8.06-14.73Z"/>
  <rect class="cls-1" x="220.87" y="288.67" width="16.6" height="4.42"/>
  <rect class="cls-1" x="39.83" y="99.71" width="4.42" height="16.6"/>
  <path class="cls-1" d="m204.32,288.62l-.09,4.43c-5.6-.13-11.24-.54-16.76-1.22l.54-4.39c5.38.66,10.86,1.06,16.31,1.17Z"/>
  <rect class="cls-1" x="320.44" y="288.67" width="12.47" height="4.42"/>
  <rect class="cls-1" x="287.25" y="288.67" width="16.6" height="4.42"/>
  <path class="cls-1" d="m171.9,284.63l-.99,4.31c-5.43-1.23-10.86-2.75-16.18-4.54l1.41-4.19c5.17,1.74,10.45,3.23,15.75,4.42Z"/>
  <rect class="cls-1" x="254.06" y="288.67" width="16.59" height="4.42"/>
  <rect class="cls-1" x="39.83" y="33.34" width="4.42" height="16.59"/>
  <rect class="cls-1" x="39.83" y="66.52" width="4.42" height="16.6"/>
  <rect class="cls-1" x="39.83" y=".14" width="4.42" height="16.6"/>
  <path class="cls-1" d="m112.65,257.84l-2.6,3.59c-4.53-3.28-8.95-6.81-13.12-10.48l2.92-3.32c4.07,3.59,8.37,7.02,12.8,10.22Z"/>
  <path class="cls-1" d="m140.92,274.22l-1.83,4.03c-5.09-2.3-10.12-4.89-14.94-7.69l2.22-3.83c4.7,2.73,9.6,5.24,14.55,7.49Z"/>
  <path class="cls-1" d="m88.13,236.18l-3.24,3.02c-3.8-4.09-7.45-8.42-10.81-12.85l3.52-2.68c3.29,4.33,6.83,8.54,10.53,12.52Z"/>
</svg>