<?xml version="1.0" encoding="UTF-8"?>
<svg id="Layer_1" data-name="Layer 1" xmlns="http://www.w3.org/2000/svg" viewBox="0 0 523.84 321.41">
  <defs>
    <style>
      .cls-1 {
        fill: #fff;
      }

      .cls-2 {
        fill: #818285;
      }

      .cls-3 {
        fill: #231f20;
      }
    </style>
  </defs>
  <rect class="cls-2" x="196.09" width="131.27" height="321.41"/>
  <g>
    <rect class="cls-3" y="101.63" width="523.84" height="118.15"/>
    <rect class="cls-1" y="105.06" width="523.84" height="111.31"/>
    <rect class="cls-3" y="108.47" width="523.84" height="104.48"/>
    <g>
      <rect class="cls-1" y="158.43" width="14.33" height="4.56"/>
      <path class="cls-1" d="m490.48,162.99h-28.59v-4.56h28.59v4.56Zm-47.63,0h-28.55v-4.56h28.55v4.56Zm-47.62,0h-28.55v-4.56h28.55v4.56Zm-47.59,0h-28.59v-4.56h28.59v4.56Zm-47.64,0h-28.57v-4.56h28.57v4.56Zm-47.6,0h-28.59v-4.56h28.59v4.56Zm-47.63,0h-28.56v-4.56h28.56v4.56Zm-47.61,0h-28.57v-4.56h28.57v4.56Zm-47.62,0h-28.57v-4.56h28.57v4.56Zm-47.61,0h-28.58v-4.56h28.58v4.56Z"/>
      <rect class="cls-1" x="509.54" y="158.43" width="14.3" height="4.56"/>
    </g>
  </g>
  <rect class="cls-3" x="200.08" width="123.7" height="321.41"/>
  <rect class="cls-1" x="203.65" width="116.54" height="321.41"/>
  <rect class="cls-3" x="207.24" width="109.39" height="321.41"/>
  <path class="cls-1" d="m264.3,321.41h-4.77v-2.29h4.77v2.29Zm0-20.53h-4.77v-27.35h4.77v27.35Zm0-45.58h-4.77v-27.36h4.77v27.36Zm0-45.59h-4.77v-27.35h4.77v27.35Zm0-45.58h-4.77v-27.35h4.77v27.35Zm0-45.58h-4.77v-27.35h4.77v27.35Zm0-45.59h-4.77v-27.36h4.77v27.36Zm0-45.58h-4.77V0h4.77v27.36Z"/>
</svg>