<?xml version="1.0" encoding="UTF-8"?>
<svg id="Layer_1" data-name="Layer 1" xmlns="http://www.w3.org/2000/svg" viewBox="0 0 448.61 511.21">
  <defs>
    <style>
      .cls-1 {
        fill: #fff;
      }

      .cls-2 {
        fill: #231f20;
      }
    </style>
  </defs>
  <rect class="cls-2" x="186.41" width="75.78" height="511.21"/>
  <rect class="cls-2" y="212.44" width="448.61" height="86.34"/>
  <rect class="cls-1" y="214.92" width="448.61" height="81.38"/>
  <rect class="cls-1" x="188.59" width="71.4" height="511.21"/>
  <rect class="cls-2" y="217.43" width="448.61" height="76.37"/>
  <rect class="cls-2" x="190.78" width="67.02" height="511.21"/>
  <polygon class="cls-2" points="257.8 0 257.8 217.43 190.78 217.44 190.78 0 257.8 0"/>
  <g>
    <rect class="cls-1" x="222.83" y="501.22" width="2.92" height="9.99"/>
    <path class="cls-1" d="m225.75,487.57h-2.92v-20.46h2.92v20.46Zm0-34.12h-2.92v-20.46h2.92v20.46Zm0-34.1h-2.92v-20.49h2.92v20.49Zm0-34.11h-2.92v-20.46h2.92v20.46Zm0-34.12h-2.92v-20.46h2.92v20.46Zm0-34.12h-2.92v-20.46h2.92v20.46Zm0-34.1h-2.92v-20.47h2.92v20.47Zm0-34.11h-2.92v-20.46h2.92v20.46Zm0-34.11h-2.92v-20.46h2.92v20.46Zm0-34.11h-2.92v-20.46h2.92v20.46Zm0-34.1h-2.92v-20.48h2.92v20.48Zm0-34.11h-2.92v-20.46h2.92v20.46Zm0-34.12h-2.92v-20.46h2.92v20.46Zm0-34.11h-2.92v-20.46h2.92v20.46Z"/>
    <rect class="cls-1" x="222.83" width="2.92" height="10"/>
  </g>
  <g>
    <rect class="cls-1" y="253.95" width="8.76" height="3.33"/>
    <path class="cls-1" d="m427.85,257.28h-17.96v-3.33h17.96v3.33Zm-29.94,0h-17.96v-3.33h17.96v3.33Zm-29.93,0h-17.96v-3.33h17.96v3.33Zm-29.94,0h-17.95v-3.33h17.95v3.33Zm-29.94,0h-17.96v-3.33h17.96v3.33Zm-29.93,0h-17.96v-3.33h17.96v3.33Zm-29.94,0h-17.96v-3.33h17.96v3.33Zm-29.94,0h-17.96v-3.33h17.96v3.33Zm-29.94,0h-17.95v-3.33h17.95v3.33Zm-29.93,0h-17.96v-3.33h17.96v3.33Zm-29.94,0h-17.95v-3.33h17.95v3.33Zm-29.93,0h-17.96v-3.33h17.96v3.33Zm-29.93,0h-17.96v-3.33h17.96v3.33Zm-29.94,0h-17.96v-3.33h17.96v3.33Z"/>
    <rect class="cls-1" x="439.83" y="253.95" width="8.78" height="3.33"/>
  </g>
</svg>