<?xml version="1.0" encoding="UTF-8"?>
<svg id="Layer_1" data-name="Layer 1" xmlns="http://www.w3.org/2000/svg" viewBox="0 0 470.02 377.55">
  <defs>
    <style>
      .cls-1 {
        fill: #fff;
      }

      .cls-2 {
        fill: none;
      }

      .cls-3 {
        fill: #231f20;
      }
    </style>
  </defs>
  <g>
    <g>
      <path class="cls-2" d="m408.51,297.53c1.25.47,2.48.95,3.6,1.45-1.17-.52-2.39-.99-3.6-1.45Z"/>
      <path class="cls-2" d="m403.56,295.83c1.03.32,2.09.67,3.16,1.05-1.05-.37-2.1-.73-3.16-1.05Z"/>
      <path class="cls-2" d="m403.91,293.44c.17.05.34.12.51.17-.17-.05-.34-.11-.51-.16h0Z"/>
      <path class="cls-2" d="m409.56,295.37c-.6-.22-1.19-.44-1.81-.66.61.21,1.21.43,1.81.66Z"/>
      <path class="cls-1" d="m433.21,368.06l-2.01-.6c9.19-24.18-5.71-50.43-33.29-58.56l.68-1.77c28.69,8.46,44.2,35.77,34.63,60.92Z"/>
      <path class="cls-1" d="m463.98,377.13l-2.02-.6c14.9-39.05-9.17-81.47-53.72-94.61l.68-1.76c45.65,13.45,70.33,56.94,55.06,96.96Z"/>
      <path class="cls-3" d="m431.2,367.46l-1.43-.42c8.92-23.49-5.55-48.99-32.35-56.88l.49-1.26c27.58,8.13,42.49,34.38,33.29,58.56Z"/>
      <path class="cls-3" d="m465.42,377.55l-1.43-.42c15.28-40.03-9.4-83.51-55.06-96.96l.48-1.26c46.45,13.69,71.55,57.93,56.01,98.64Z"/>
      <path class="cls-3" d="m408.11,281.89l-4.41,11.5s.18.05.2.06h0c.17.04.34.11.51.16,1.1.34,2.21.71,3.34,1.11.61.21,1.21.43,1.81.66,1.3.49,2.58,1,3.76,1.51l-1.21,2.1c-1.17-.52-2.39-.99-3.6-1.45-.6-.22-1.19-.45-1.79-.65-1.05-.37-2.1-.73-3.16-1.05-.19-.06-.52-.17-.71-.22l-4.41,11.48c28.7,8.46,44.34,35.81,34.77,60.96l13.1,3.86c1.02-2.69,1.85-5.45,2.43-8.21l2.64.43c-.61,2.87-1.46,5.73-2.52,8.53l13.11,3.86c14.9-39.05-9.31-81.52-53.86-94.65Zm44.06,64.43c.36,2.96.47,5.97.33,8.94l-2.67-.09c.13-2.87.02-5.76-.32-8.6l2.66-.25Zm-4.98-17.29c1.29,2.76,2.37,5.61,3.19,8.49l-2.59.58c-.8-2.77-1.84-5.52-3.08-8.18l2.48-.89Zm-10.32-15.36c2.12,2.33,4.07,4.8,5.78,7.36l-2.31,1.18c-1.65-2.46-3.51-4.84-5.56-7.08l2.09-1.46Zm-8.74-4.86c-2.38-1.96-4.94-3.78-7.61-5.42l1.53-1.92c2.78,1.7,5.44,3.6,7.91,5.64l-1.83,1.71Z"/>
      <path class="cls-1" d="m440.35,322.21c-1.65-2.46-3.51-4.84-5.56-7.08l2.09-1.46c2.12,2.33,4.07,4.8,5.78,7.36l-2.31,1.18Z"/>
      <path class="cls-1" d="m422.07,301.47c2.78,1.7,5.44,3.6,7.91,5.64l-1.83,1.71c-2.38-1.96-4.94-3.78-7.61-5.42l1.53-1.92Z"/>
      <path class="cls-1" d="m402.53,295.51l.85-2.23c.15.04.3.1.45.14l-.85,2.22c-.15-.04-.31-.1-.45-.14Z"/>
      <path class="cls-1" d="m403.9,293.45c.17.05.34.11.51.16,1.13.34,2.24.72,3.34,1.11.61.21,1.21.44,1.81.66,1.26.48,2.53.97,3.76,1.51l-1.21,2.1c-1.12-.5-2.35-.98-3.6-1.45-.6-.23-1.19-.45-1.79-.65-1.07-.38-2.13-.72-3.16-1.05-.17-.05-.34-.12-.51-.17l.85-2.22Z"/>
      <path class="cls-1" d="m403.05,295.66c.17.05.34.12.51.17-.19-.06-.39-.12-.58-.18l.85-2.22s.04.01.07.02l-.85,2.22Z"/>
      <path class="cls-1" d="m407.75,294.71c-1.1-.39-2.21-.76-3.34-1.11,1.1.34,2.21.71,3.34,1.11Z"/>
      <path class="cls-1" d="m413.32,296.88c-1.23-.54-2.49-1.03-3.76-1.51,1.3.49,2.58,1,3.76,1.51Z"/>
      <path class="cls-1" d="m406.72,296.88c.6.21,1.19.42,1.79.65-.6-.22-1.19-.45-1.79-.65Z"/>
      <path class="cls-1" d="m447.8,338.1c-.8-2.77-1.84-5.52-3.08-8.18l2.48-.89c1.29,2.76,2.37,5.61,3.19,8.49l-2.59.58Z"/>
      <path class="cls-1" d="m448.74,363.71l2.64.43c-.61,2.87-1.46,5.73-2.52,8.53l-2.54-.75c1.02-2.69,1.85-5.45,2.43-8.21Z"/>
      <path class="cls-1" d="m449.83,355.17c.13-2.87.02-5.76-.32-8.6l2.66-.25c.36,2.96.47,5.97.33,8.94l-2.67-.09Z"/>
    </g>
    <g>
      <path class="cls-1" d="m375.53,221.45c-9.29,24.22,5.63,50.54,33.26,58.69.04.01.09.02.14.03l-.68,1.76s-.1-.02-.14-.03c-28.74-8.47-44.26-35.85-34.59-61.05,9.66-25.19,40.9-38.79,69.64-30.32l-.67,1.77c-27.63-8.14-57.67,4.94-66.95,29.15Z"/>
      <path class="cls-1" d="m344.77,212.38c-15,39.09,9.08,81.58,53.67,94.72.05.01.09.02.14.04l-.68,1.77s-.09-.03-.14-.04c-45.7-13.47-70.38-57.02-55.01-97.08,15.36-40.06,65.05-61.7,110.75-48.23l-.68,1.77c-44.59-13.14-93.07,7.97-108.06,47.05Z"/>
      <path class="cls-3" d="m408.79,280.13c-27.63-8.14-42.55-34.47-33.26-58.69,9.29-24.21,39.33-37.29,66.95-29.15l-.49,1.26c-26.84-7.91-56.01,4.8-65.03,28.31-9.03,23.53,5.47,49.1,32.31,57,.05.02.09.02.14.04l-.48,1.26c-.05-.01-.1-.02-.14-.03Z"/>
      <path class="cls-3" d="m342.75,211.79c-15.37,40.06,9.31,83.61,55.01,97.08.05.01.09.03.14.04l-.48,1.26c-.05-.02-.09-.02-.14-.04-46.49-13.7-71.6-58.01-55.97-98.77,15.64-40.76,66.18-62.77,112.68-49.06l-.48,1.26c-45.7-13.47-95.39,8.17-110.75,48.23Z"/>
      <path class="cls-3" d="m443.16,190.53l4.41-11.49c-3.07-.9-6.22-1.62-9.36-2.14l.5-2.31c3.27.54,6.54,1.29,9.72,2.22l4.41-11.49c-44.59-13.14-93.07,7.97-108.06,47.05-15,39.09,9.08,81.58,53.67,94.72.05.01.09.02.14.04l4.41-11.49s-.1-.02-.14-.03l-.28-.08,1.13-2.15s.1.02.14.04l4.4-11.49s-.1-.02-.14-.03c-28.74-8.47-44.26-35.85-34.59-61.05,9.66-25.19,40.9-38.79,69.64-30.32Zm-58.72,96.93l1.54-1.93c2.68,1.66,5.51,3.15,8.41,4.44l-1.21,2.1c-3.02-1.35-5.95-2.89-8.74-4.61Zm-14.78-12.24l2.1-1.46c2.03,2.25,4.27,4.39,6.63,6.34l-1.84,1.71c-2.46-2.03-4.78-4.25-6.89-6.58Zm-10.26-15.39l2.48-.88c1.24,2.66,2.69,5.25,4.34,7.72l-2.32,1.19c-1.7-2.56-3.22-5.26-4.5-8.02Zm-4.05-35.11l2.63.43c-.61,2.81-.98,5.68-1.12,8.54l-2.68-.1c.14-2.97.54-5.95,1.17-8.87Zm6.54-16.88l2.39,1.06c-1.47,2.54-2.75,5.21-3.8,7.93l-2.54-.76c1.09-2.82,2.42-5.59,3.95-8.23Zm13.64-12.98c-2.24,2.09-4.33,4.33-6.2,6.67l-2.19-1.35c1.95-2.43,4.12-4.76,6.44-6.93l1.95,1.61Zm-16.69,55.91l-2.6.57c-.82-2.88-1.42-5.85-1.76-8.81l2.67-.23c.33,2.85.9,5.7,1.69,8.47Zm32-66.59c-2.82,1.44-5.54,3.08-8.09,4.86l-1.67-1.84c2.65-1.85,5.47-3.54,8.41-5.05l1.35,2.03Zm27.52-10.31c3.37-.3,6.8-.4,10.2-.27l-.12,2.35c-3.27-.12-6.58-.03-9.81.26l-.28-2.34Zm-9.39,3.83c-3.16.7-6.3,1.6-9.33,2.67l-1.01-2.17c3.14-1.12,6.4-2.06,9.69-2.78l.65,2.28Z"/>
      <path class="cls-1" d="m438.7,174.59c3.27.54,6.54,1.29,9.72,2.22l-.85,2.23c-3.07-.9-6.22-1.62-9.36-2.14l.5-2.31Z"/>
      <path class="cls-1" d="m428.45,175.93c-3.27-.12-6.58-.03-9.81.26l-.28-2.34c3.37-.3,6.8-.4,10.2-.27l-.12,2.35Z"/>
      <polygon class="cls-1" points="448.55 176.86 447.56 179.04 448.42 176.82 448.55 176.86"/>
      <path class="cls-1" d="m366.23,266.65l-2.32,1.19c-1.7-2.56-3.22-5.26-4.5-8.02l2.48-.88c1.24,2.66,2.69,5.25,4.34,7.72Z"/>
      <path class="cls-1" d="m356.86,233.67l-2.68-.1c.14-2.97.54-5.95,1.17-8.87l2.63.43c-.61,2.81-.98,5.68-1.12,8.54Z"/>
      <path class="cls-1" d="m360.48,216.81l-2.54-.76c1.09-2.82,2.42-5.59,3.95-8.23l2.39,1.06c-1.47,2.54-2.75,5.21-3.8,7.93Z"/>
      <path class="cls-1" d="m356.24,251.32c-.82-2.88-1.42-5.85-1.76-8.81l2.67-.23c.33,2.85.9,5.7,1.69,8.47l-2.6.57Z"/>
      <path class="cls-1" d="m381.08,187.19c2.65-1.85,5.47-3.54,8.41-5.05l1.35,2.03c-2.82,1.44-5.54,3.08-8.09,4.86l-1.67-1.84Z"/>
      <path class="cls-1" d="m367.14,200.16c1.95-2.43,4.12-4.76,6.44-6.93l1.95,1.61c-2.24,2.09-4.33,4.33-6.2,6.67l-2.19-1.35Z"/>
      <path class="cls-1" d="m402.57,295.53l1.13-2.15s.1.02.14.04l-.86,2.23s-.1-.02-.14-.03l-.28-.08Z"/>
      <path class="cls-1" d="m398.64,178.19c3.14-1.12,6.4-2.06,9.69-2.78l.65,2.28c-3.16.7-6.3,1.6-9.33,2.67l-1.01-2.17Z"/>
      <path class="cls-1" d="m378.38,280.08l-1.84,1.71c-2.46-2.03-4.78-4.25-6.89-6.58l2.1-1.46c2.03,2.25,4.27,4.39,6.63,6.34Z"/>
      <path class="cls-1" d="m394.39,289.97l-1.21,2.1c-3.02-1.35-5.95-2.89-8.74-4.61l1.54-1.93c2.68,1.66,5.51,3.15,8.41,4.44Z"/>
    </g>
  </g>
  <g>
    <g>
      <path class="cls-2" d="m365.08,67.48c-1.36.16-2.71.33-3.95.54,1.3-.22,2.63-.39,3.95-.54Z"/>
      <path class="cls-2" d="m370.42,67.02c-1.1.06-2.24.15-3.4.25,1.13-.11,2.27-.19,3.4-.25Z"/>
      <path class="cls-2" d="m370.84,64.61c-.18,0-.37.03-.55.04.18,0,.37-.02.55-.03h0Z"/>
      <path class="cls-2" d="m364.74,65.12c.65-.07,1.29-.14,1.95-.21-.65.06-1.31.13-1.95.21Z"/>
      <path class="cls-1" d="m318.86,130.15l2.15-.1c-1.35-25.76,21.42-47.7,50.82-48.94l-.1-1.88c-30.59,1.3-54.26,24.12-52.87,50.92Z"/>
      <path class="cls-1" d="m286.06,131.53l2.15-.09c-2.21-41.6,34.55-77.07,82.03-79.08l-.1-1.88c-48.66,2.07-86.34,38.41-84.07,81.05Z"/>
      <path class="cls-3" d="m321.01,130.05l1.53-.07c-1.31-25.01,20.8-46.32,49.36-47.53l-.07-1.34c-29.4,1.25-52.17,23.18-50.82,48.94Z"/>
      <path class="cls-3" d="m284.53,131.6l1.54-.07c-2.27-42.64,35.41-78.99,84.07-81.05l-.07-1.34c-49.51,2.1-87.85,39.08-85.54,82.46Z"/>
      <path class="cls-3" d="m288.21,131.44l13.98-.6c-.16-2.98-.09-5.97.22-8.91l2.7.22c-.3,2.82-.37,5.71-.21,8.57l13.96-.59c-1.4-26.8,22.42-49.63,53.01-50.93l-.68-12.24c-.2.01-.56.03-.77.05-1.13.05-2.27.14-3.4.25-.65.06-1.3.13-1.95.21-1.32.16-2.65.32-3.95.54l-.52-2.34c1.3-.22,2.71-.4,4.14-.56.65-.07,1.31-.14,1.95-.21,1.22-.11,2.43-.2,3.6-.27.18,0,.37-.03.55-.04h0s.2,0,.22,0l-.68-12.25c-47.48,2.01-84.38,37.49-82.17,79.09Zm21.54-26.16c-1.22,2.68-2.24,5.47-3.01,8.29l-2.63-.55c.8-2.93,1.86-5.83,3.14-8.62l2.51.88Zm9.9-15.04c-2.05,2.29-3.92,4.71-5.56,7.21l-2.35-1.19c1.72-2.6,3.66-5.12,5.78-7.49l2.13,1.47Zm14.31-11.99c-2.69,1.69-5.26,3.55-7.64,5.55l-1.88-1.72c2.48-2.07,5.14-4.02,7.94-5.76l1.58,1.93Zm7.2-6.65c3.04-1.39,6.24-2.59,9.47-3.58l.89,2.24c-3.11.95-6.18,2.1-9.11,3.44l-1.25-2.11Z"/>
      <path class="cls-1" d="m326.33,83.81c2.38-2,4.95-3.86,7.64-5.55l-1.58-1.93c-2.79,1.75-5.46,3.69-7.94,5.76l1.88,1.72Z"/>
      <path class="cls-1" d="m350.64,68.03c-3.23.99-6.43,2.19-9.47,3.58l1.25,2.11c2.93-1.34,6-2.49,9.11-3.44l-.89-2.24Z"/>
      <path class="cls-1" d="m371.52,66.95l-.12-2.37c-.16,0-.33.02-.49.03l.13,2.37c.16,0,.33-.02.48-.03Z"/>
      <path class="cls-1" d="m370.84,64.62c-.18.01-.37.02-.55.03-1.2.06-2.4.16-3.6.27-.66.06-1.31.13-1.95.21-1.39.16-2.77.34-4.14.56l.52,2.34c1.25-.21,2.59-.39,3.95-.54.65-.08,1.3-.15,1.95-.21,1.16-.1,2.3-.19,3.4-.25.19-.01.37-.03.55-.05l-.13-2.36Z"/>
      <path class="cls-1" d="m370.97,66.98c-.19.01-.37.03-.55.05.21-.01.42-.03.62-.04l-.13-2.37s-.05,0-.07,0l.13,2.36Z"/>
      <path class="cls-1" d="m366.69,64.91c1.2-.11,2.4-.21,3.6-.27-1.17.07-2.38.15-3.6.27Z"/>
      <path class="cls-1" d="m360.6,65.68c1.36-.23,2.75-.4,4.14-.56-1.43.16-2.84.35-4.14.56Z"/>
      <path class="cls-1" d="m367.02,67.27c-.65.06-1.3.13-1.95.21.65-.07,1.3-.15,1.95-.21Z"/>
      <path class="cls-1" d="m314.09,97.46c1.65-2.5,3.51-4.93,5.56-7.21l-2.13-1.47c-2.12,2.37-4.06,4.9-5.78,7.49l2.35,1.19Z"/>
      <path class="cls-1" d="m305.11,122.16l-2.7-.22c-.31,2.94-.38,5.93-.22,8.91l2.71-.11c-.16-2.87-.09-5.75.21-8.57Z"/>
      <path class="cls-1" d="m306.74,113.58c.77-2.82,1.79-5.61,3.01-8.29l-2.51-.88c-1.28,2.79-2.33,5.69-3.14,8.62l2.63.55Z"/>
    </g>
    <g>
      <path class="cls-2" d="m376.21,64.12c1.36-.16,2.71-.33,3.96-.54-1.31.22-2.63.39-3.96.54Z"/>
      <path class="cls-2" d="m370.87,64.58c1.1-.06,2.24-.15,3.4-.26-1.14.11-2.27.21-3.4.26Z"/>
      <path class="cls-2" d="m370.45,66.99c.18,0,.37-.03.55-.04-.18,0-.37.02-.55.03h0Z"/>
      <path class="cls-2" d="m376.56,66.47c-.65.07-1.3.14-1.96.21.65-.06,1.31-.12,1.96-.21Z"/>
      <path class="cls-1" d="m422.43,1.45l-2.14.09c1.34,25.75-21.42,47.7-50.82,48.94l.11,1.88c30.58-1.29,54.26-24.13,52.86-50.92Z"/>
      <path class="cls-1" d="m455.23.06l-2.15.09c2.22,41.61-34.55,77.08-82.03,79.09l.1,1.87c48.67-2.06,86.35-38.41,84.08-81.05Z"/>
      <path class="cls-3" d="m420.29,1.54l-1.54.07c1.3,25.01-20.8,46.33-49.36,47.53l.07,1.35c29.4-1.25,52.16-23.19,50.82-48.94Z"/>
      <path class="cls-3" d="m456.76,0l-1.53.06c2.27,42.64-35.41,78.99-84.08,81.05l.07,1.34c49.51-2.1,87.85-39.08,85.53-82.46Z"/>
      <path class="cls-3" d="m453.08.15l-13.97.6c.16,2.98.08,5.97-.23,8.91l-2.7-.22c.3-2.82.37-5.71.21-8.57l-13.97.59c1.4,26.79-22.42,49.63-53,50.92l.68,12.24c.2,0,.56-.03.77-.04,1.13-.06,2.26-.15,3.4-.26.65-.06,1.3-.12,1.95-.2,1.33-.16,2.65-.32,3.96-.54l.51,2.34c-1.29.22-2.7.4-4.13.56-.65.08-1.31.14-1.96.21-1.23.12-2.43.21-3.6.27-.18,0-.37.03-.55.04h0s-.2,0-.22,0l.68,12.26c47.48-2.01,84.39-37.49,82.17-79.09Zm-21.55,26.16c1.22-2.69,2.24-5.47,3.02-8.29l2.63.55c-.8,2.93-1.85,5.83-3.13,8.62l-2.52-.88Zm-9.9,15.04c2.05-2.28,3.92-4.71,5.57-7.21l2.34,1.19c-1.71,2.59-3.65,5.11-5.78,7.49l-2.13-1.47Zm-14.31,12c2.69-1.69,5.26-3.55,7.64-5.55l1.87,1.72c-2.47,2.08-5.14,4.02-7.94,5.77l-1.58-1.93Zm-7.21,6.65c-3.04,1.38-6.23,2.58-9.47,3.57l-.89-2.24c3.12-.95,6.18-2.11,9.11-3.44l1.25,2.11Z"/>
      <path class="cls-1" d="m414.97,47.79c-2.38,2-4.95,3.87-7.64,5.55l1.58,1.93c2.8-1.75,5.47-3.69,7.94-5.77l-1.87-1.72Z"/>
      <path class="cls-1" d="m390.64,63.56c3.24-.99,6.43-2.19,9.47-3.57l-1.25-2.11c-2.93,1.33-5.99,2.49-9.11,3.44l.89,2.24Z"/>
      <path class="cls-1" d="m369.76,64.64l.13,2.37c.16,0,.32-.02.48-.03l-.13-2.37c-.16,0-.32.02-.48.03Z"/>
      <path class="cls-1" d="m370.45,66.98c.18,0,.37-.02.55-.03,1.2-.06,2.4-.16,3.6-.27.65-.06,1.31-.13,1.96-.21,1.38-.16,2.77-.33,4.13-.56l-.51-2.34c-1.25.21-2.6.38-3.96.54-.65.08-1.29.14-1.95.2-1.16.11-2.3.2-3.4.26-.18,0-.37.03-.55.04l.13,2.36Z"/>
      <path class="cls-1" d="m370.32,64.62c.18,0,.37-.04.55-.04-.21,0-.42.02-.63.03l.13,2.37s.05,0,.07,0l-.13-2.36Z"/>
      <path class="cls-1" d="m374.6,66.68c-1.2.11-2.4.21-3.6.27,1.17-.07,2.37-.16,3.6-.27Z"/>
      <path class="cls-1" d="m380.68,65.91c-1.36.22-2.74.4-4.13.56,1.42-.16,2.83-.34,4.13-.56Z"/>
      <path class="cls-1" d="m374.27,64.32c.65-.06,1.3-.12,1.95-.2-.65.07-1.29.14-1.95.2Z"/>
      <path class="cls-1" d="m427.2,34.13c-1.65,2.5-3.52,4.93-5.57,7.21l2.13,1.47c2.13-2.37,4.07-4.89,5.78-7.49l-2.34-1.19Z"/>
      <path class="cls-1" d="m436.18,9.43l2.7.22c.31-2.94.38-5.93.23-8.91l-2.71.11c.15,2.87.08,5.75-.21,8.57Z"/>
      <path class="cls-1" d="m434.55,18.01c-.77,2.82-1.79,5.61-3.02,8.29l2.52.88c1.28-2.79,2.33-5.69,3.13-8.62l-2.63-.55Z"/>
    </g>
  </g>
  <g>
    <g>
      <path class="cls-1" d="m37.26,234.28c0,26.38,24.48,47.83,54.58,47.83.04,0,.1,0,.14,0v1.93s-.1,0-.14,0c-31.3,0-56.76-22.32-56.76-49.76s25.46-49.76,56.76-49.76v1.93c-30.09,0-54.58,21.46-54.58,47.83Z"/>
      <path class="cls-1" d="m3.75,234.28c0,42.57,39.51,77.2,88.08,77.2h.14v1.92s-.1,0-.14,0c-49.78,0-90.27-35.5-90.27-79.13s40.49-79.13,90.27-79.13v1.92c-48.57,0-88.08,34.64-88.08,77.21Z"/>
      <path class="cls-3" d="m91.83,282.11c-30.09,0-54.58-21.46-54.58-47.83s24.48-47.83,54.58-47.83v1.37c-29.23,0-53,20.84-53,46.46s23.78,46.46,53,46.46c.04,0,.1,0,.14,0v1.37s-.1,0-.14,0Z"/>
      <path class="cls-3" d="m1.56,234.28c0,43.63,40.49,79.13,90.27,79.13.04,0,.1,0,.14,0v1.37s-.1,0-.14,0C41.19,314.78,0,278.67,0,234.28s41.19-80.5,91.83-80.5v1.37C42.06,155.15,1.56,190.65,1.56,234.28Z"/>
      <path class="cls-3" d="m91.83,184.52v-12.51c-3.35,0-6.69.2-9.97.61l-.38-2.41c3.4-.41,6.88-.63,10.35-.63v-12.51c-48.57,0-88.08,34.64-88.08,77.21s39.51,77.2,88.08,77.2h.14v-12.52s-.1,0-.14,0h-.3l.3-2.43s.1,0,.14,0v-12.51s-.1,0-.14,0c-31.3,0-56.76-22.32-56.76-49.76s25.46-49.76,56.76-49.76Zm-21.08,111.78l.79-2.32c3.24.84,6.56,1.49,9.89,1.91l-.4,2.4c-3.46-.44-6.91-1.11-10.28-1.99Zm-19.05-7.71l1.51-2.04c2.84,1.61,5.82,3.06,8.86,4.29l-1.16,2.2c-3.16-1.29-6.26-2.78-9.21-4.45Zm-15.82-12.11l2.1-1.58c2.21,2.25,4.61,4.37,7.14,6.3l-1.82,1.83c-2.63-2.01-5.13-4.22-7.42-6.55Zm-17.15-33.19l2.73-.34c.47,2.93,1.18,5.84,2.11,8.68l-2.65.68c-.98-2.95-1.71-5.98-2.19-9.02Zm.06-18.4l2.74.35c-.48,2.92-.74,5.89-.74,8.86h-2.77c.01-3.08.27-6.18.77-9.2Zm8.48-16.63c-1.42,2.69-2.62,5.49-3.57,8.31l-2.65-.69c.99-2.94,2.24-5.84,3.71-8.63l2.51,1.01Zm4.65,59.52l-2.33,1.31c-1.89-2.58-3.58-5.31-5.03-8.11l2.52-.99c1.4,2.69,3.03,5.32,4.83,7.8Zm6.33-74.38c-2.21,2.22-4.26,4.61-6.1,7.09l-2.32-1.32c1.9-2.56,4.03-5.04,6.33-7.36l2.09,1.59Zm23.06-18.03c3.19-1.27,6.51-2.35,9.88-3.21l.77,2.33c-3.24.83-6.45,1.87-9.5,3.09l-1.15-2.2Zm-7.75,6.46c-2.83,1.59-5.57,3.38-8.13,5.31l-1.81-1.84c2.66-2.01,5.49-3.86,8.44-5.51l1.49,2.04Z"/>
      <path class="cls-1" d="m81.48,170.21c3.4-.41,6.88-.63,10.35-.63v2.43c-3.35,0-6.69.2-9.97.61l-.38-2.41Z"/>
      <path class="cls-1" d="m71.96,174.47c-3.24.83-6.45,1.87-9.5,3.09l-1.15-2.2c3.19-1.27,6.51-2.35,9.88-3.21l.77,2.33Z"/>
      <polygon class="cls-1" points="91.98 169.58 91.83 172.01 91.83 169.58 91.98 169.58"/>
      <path class="cls-1" d="m45.12,281.2l-1.82,1.83c-2.63-2.01-5.13-4.22-7.42-6.55l2.1-1.58c2.21,2.25,4.61,4.37,7.14,6.3Z"/>
      <path class="cls-1" d="m23.58,251.63l-2.65.68c-.98-2.95-1.71-5.98-2.19-9.02l2.73-.34c.47,2.93,1.18,5.84,2.11,8.68Z"/>
      <path class="cls-1" d="m20.79,234.08h-2.77c.01-3.08.27-6.18.77-9.2l2.74.35c-.48,2.92-.74,5.89-.74,8.86Z"/>
      <path class="cls-1" d="m29.6,269.08c-1.89-2.58-3.58-5.31-5.03-8.11l2.52-.99c1.4,2.69,3.03,5.32,4.83,7.8l-2.33,1.31Z"/>
      <path class="cls-1" d="m29.84,199.15c1.9-2.56,4.03-5.04,6.33-7.36l2.09,1.59c-2.21,2.22-4.26,4.61-6.1,7.09l-2.32-1.32Z"/>
      <path class="cls-1" d="m21.06,215.87c.99-2.94,2.24-5.84,3.71-8.63l2.51,1.01c-1.42,2.69-2.62,5.49-3.57,8.31l-2.65-.69Z"/>
      <path class="cls-1" d="m91.53,298.97l.3-2.43s.1,0,.14,0v2.43s-.1,0-.14,0h-.3Z"/>
      <path class="cls-1" d="m43.63,185.29c2.66-2.01,5.49-3.86,8.44-5.51l1.49,2.04c-2.83,1.59-5.57,3.38-8.13,5.31l-1.81-1.84Z"/>
      <path class="cls-1" d="m62.07,290.84l-1.16,2.2c-3.16-1.29-6.26-2.78-9.21-4.45l1.51-2.04c2.84,1.61,5.82,3.06,8.86,4.29Z"/>
      <path class="cls-1" d="m81.43,295.89l-.4,2.4c-3.46-.44-6.91-1.11-10.28-1.99l.79-2.32c3.24.84,6.56,1.49,9.89,1.91Z"/>
    </g>
    <rect class="cls-3" x="91.94" y="280.74" width="199.62" height="34.04"/>
    <rect class="cls-1" x="91.76" y="282.11" width="199.81" height="31.3"/>
    <rect class="cls-3" x="90.52" y="284.04" width="201.05" height="27.44"/>
    <g>
      <rect class="cls-1" x="90.52" y="296.48" width="4.37" height="2.56"/>
      <path class="cls-1" d="m204.52,296.48v2.56h-8.22v-2.56h8.22Zm-13.7,0v2.56h-8.23v-2.56h8.23Zm-13.71,0v2.56h-8.22v-2.56h8.22Zm-13.7,0v2.56h-8.22v-2.56h8.22Zm-13.7,0v2.56h-8.23v-2.56h8.23Zm-13.71,0v2.56h-8.22v-2.56h8.22Zm-13.7,0v2.56h-8.22v-2.56h8.22Zm-13.7,0v2.56h-8.22v-2.56h8.22Z"/>
      <rect class="cls-1" x="210" y="296.48" width="81.56" height="2.56"/>
    </g>
    <rect class="cls-3" x="91.81" y="153.78" width="199.62" height="34.04"/>
    <rect class="cls-1" x="91.62" y="155.15" width="199.81" height="31.3"/>
    <rect class="cls-3" x="90.39" y="157.07" width="201.04" height="27.44"/>
    <g>
      <rect class="cls-1" x="90.39" y="169.52" width="4.37" height="2.56"/>
      <path class="cls-1" d="m204.39,169.52v2.56h-8.23v-2.56h8.23Zm-13.7,0v2.56h-8.23v-2.56h8.23Zm-13.7,0v2.56h-8.22v-2.56h8.22Zm-13.71,0v2.56h-8.22v-2.56h8.22Zm-13.7,0v2.56h-8.22v-2.56h8.22Zm-13.7,0v2.56h-8.22v-2.56h8.22Zm-13.7,0v2.56h-8.22v-2.56h8.22Zm-13.7,0v2.56h-8.22v-2.56h8.22Z"/>
      <rect class="cls-1" x="209.87" y="169.52" width="81.56" height="2.56"/>
    </g>
  </g>
</svg>