<?xml version="1.0" encoding="UTF-8"?>
<svg id="Layer_1" data-name="Layer 1" xmlns="http://www.w3.org/2000/svg" viewBox="0 0 51.94 202.36">
  <defs>
    <style>
      .cls-1 {
        fill: #fff;
      }

      .cls-2 {
        fill: #231f20;
      }
    </style>
  </defs>
  <path class="cls-2" d="m34.07,202.36C11.78,173.04,0,138.05,0,101.18S11.78,29.32,34.07,0l17.87,13.33c-39.33,51.73-39.33,123.98,0,175.71l-17.87,13.33Z"/>
  <path class="cls-1" d="m43.45,195.92c-20.87-27.45-31.9-60.21-31.9-94.74S22.58,33.89,43.45,6.44l.6.44C1.84,62.41,1.84,139.96,44.05,195.48l-.6.44Z"/>
  <path class="cls-1" d="m39.29,194.36c-.74-1-1.46-2-2.17-3.01l.61-.42c.71,1,1.43,2,2.16,2.99l-.6.44Zm-4.68-6.68c-.68-1.03-1.36-2.07-2.01-3.11l.63-.39c.65,1.04,1.32,2.07,2,3.1l-.62.4Zm-3.95-6.27c-.75-1.26-1.5-2.56-2.23-3.85l.65-.36c.72,1.29,1.46,2.58,2.21,3.83l-.64.38Zm-4-7.11c-.58-1.09-1.14-2.19-1.69-3.29l.67-.33c.55,1.1,1.11,2.19,1.68,3.28l-.66.34Zm-3.62-7.3c-.52-1.12-1.03-2.25-1.52-3.38l.69-.29c.49,1.13.99,2.25,1.51,3.36l-.68.31Zm-2.95-6.79c-.56-1.37-1.1-2.76-1.62-4.14l.7-.26c.51,1.37,1.05,2.76,1.61,4.12l-.69.28Zm-2.87-7.62c-.4-1.17-.8-2.34-1.17-3.51l.71-.22c.37,1.17.76,2.33,1.17,3.5l-.71.24Zm-2.47-7.76c-.34-1.19-.67-2.37-.99-3.57l.72-.19c.31,1.19.64,2.37.98,3.55l-.72.2Zm-1.89-7.16c-.34-1.43-.67-2.89-.97-4.33l.73-.15c.3,1.44.63,2.89.97,4.31l-.73.17Zm-1.69-7.97c-.22-1.21-.43-2.43-.63-3.65l.74-.12c.19,1.21.4,2.42.63,3.63l-.73.13Zm-1.27-8.04c-.16-1.22-.31-2.45-.44-3.67l.74-.08c.13,1.22.28,2.44.44,3.66l-.74.1Zm-.79-7.36c-.12-1.47-.23-2.96-.31-4.43l.74-.04c.08,1.46.18,2.94.31,4.41l-.74.06Zm-.47-8.13c-.04-1.23-.06-2.47-.07-3.7h.75c0,1.22.03,2.45.07,3.68l-.75.02Zm.7-8.12h-.75c.02-1.25.06-2.48.12-3.71l.75.03c-.05,1.23-.09,2.45-.12,3.68Zm.32-7.36l-.74-.05c.1-1.47.22-2.96.36-4.43l.74.07c-.14,1.46-.26,2.94-.36,4.41Zm.75-8.07l-.74-.09c.15-1.22.31-2.45.48-3.67l.74.1c-.18,1.22-.34,2.43-.48,3.65Zm1.17-8.02l-.74-.12c.21-1.22.43-2.43.67-3.64l.73.14c-.24,1.21-.46,2.41-.67,3.62Zm1.42-7.23l-.73-.16c.32-1.45.66-2.9,1.02-4.33l.72.18c-.36,1.42-.7,2.87-1.02,4.31Zm1.96-7.87l-.72-.2c.33-1.19.67-2.38,1.03-3.56l.71.21c-.36,1.18-.7,2.36-1.02,3.54Zm2.37-7.76l-.71-.23c.39-1.17.8-2.34,1.22-3.5l.7.25c-.42,1.16-.82,2.32-1.21,3.49Zm2.5-6.94l-.7-.26c.53-1.38,1.09-2.76,1.67-4.12l.69.28c-.57,1.36-1.13,2.74-1.66,4.1Zm3.13-7.49l-.68-.3c.51-1.13,1.03-2.25,1.56-3.37l.67.32c-.53,1.11-1.05,2.23-1.55,3.35Zm3.52-7.32l-.66-.34c.56-1.1,1.14-2.19,1.73-3.28l.66.35c-.59,1.08-1.16,2.17-1.73,3.27Zm3.53-6.49l-.65-.36c.73-1.28,1.5-2.57,2.28-3.83l.64.38c-.77,1.26-1.54,2.54-2.26,3.81Zm4.24-6.94l-.63-.4c.67-1.04,1.36-2.07,2.06-3.09l.62.41c-.7,1.02-1.38,2.05-2.05,3.08Zm4.6-6.71l-.61-.43c.73-1,1.46-2,2.22-2.98l.59.44c-.75.98-1.48,1.97-2.21,2.97Z"/>
</svg>