<?xml version="1.0" encoding="UTF-8"?>
<svg id="Layer_1" data-name="Layer 1" xmlns="http://www.w3.org/2000/svg" viewBox="0 0 468.17 148.22">
  <defs>
    <style>
      .cls-1 {
        fill: #fff;
      }

      .cls-2 {
        fill: #231f20;
      }
    </style>
  </defs>
  <path class="cls-2" d="m437.34,148.22c-119.67-112.23-286.84-112.23-406.51,0L0,97.24C67.84,33.62,148.78,0,234.08,0s166.25,33.62,234.09,97.24l-30.83,50.98Z"/>
  <path class="cls-1" d="m16.18,124l-1.54-2.55c2.29-2.14,4.59-4.25,6.92-6.33l1.49,2.59c-2.3,2.06-4.59,4.15-6.87,6.28Zm432.2-3.33c-2.29-2.09-4.59-4.15-6.91-6.16l1.47-2.62c2.34,2.03,4.66,4.1,6.96,6.21l-1.52,2.57ZM31.45,110.45l-1.43-2.64c2.37-2,4.76-3.96,7.17-5.88l1.38,2.69c-2.39,1.9-4.76,3.85-7.12,5.83Zm401.58-3.06c-2.37-1.94-4.76-3.84-7.16-5.71l1.35-2.71c2.42,1.88,4.82,3.79,7.21,5.75l-1.4,2.67Zm-387.24-8.39l-1.33-2.73c2.91-2.2,5.89-4.39,8.87-6.5l1.27,2.77c-2.95,2.09-5.92,4.27-8.81,6.46Zm372.81-2.81c-2.93-2.16-5.9-4.28-8.86-6.32l1.24-2.79c2.97,2.05,5.97,4.19,8.91,6.36l-1.3,2.75Zm-356.56-8.79l-1.22-2.81c2.52-1.69,5.06-3.34,7.6-4.96l1.16,2.85c-2.53,1.6-5.04,3.24-7.55,4.92Zm340.21-2.55c-2.51-1.64-5.04-3.24-7.58-4.8l1.13-2.86c2.56,1.58,5.1,3.19,7.63,4.83l-1.19,2.83Zm-323.5-7.98l-1.09-2.88c2.58-1.53,5.18-3.01,7.79-4.46l1.04,2.92c-2.59,1.43-5.17,2.91-7.74,4.43Zm306.7-2.28c-2.58-1.47-5.17-2.91-7.77-4.3l1.01-2.93c2.62,1.4,5.23,2.85,7.83,4.34l-1.07,2.89Zm-291.14-6.34l-.99-2.95c3.13-1.62,6.35-3.23,9.56-4.76l.92,2.98c-3.19,1.53-6.38,3.11-9.49,4.73Zm275.52-2.04c-3.14-1.58-6.34-3.12-9.52-4.59l.89-2.99c3.2,1.47,6.43,3.03,9.59,4.62l-.96,2.96Zm-258.05-6.38l-.86-3.01c2.69-1.2,5.4-2.35,8.11-3.47l.81,3.02c-2.7,1.11-5.38,2.27-8.05,3.45Zm240.52-1.76c-2.68-1.16-5.37-2.27-8.07-3.33l.77-3.04c2.72,1.08,5.44,2.19,8.14,3.35l-.84,3.02Zm-222.72-5.51l-.74-3.06c2.74-1.02,5.49-2,8.24-2.95l.68,3.08c-2.73.93-5.46,1.9-8.18,2.92Zm204.87-1.49c-2.73-.97-5.47-1.91-8.21-2.8l.65-3.09c2.76.91,5.52,1.84,8.27,2.82l-.71,3.07Zm-188.45-4.12l-.62-3.09c3.29-1.03,6.66-2.01,10.02-2.92l.55,3.11c-3.33.91-6.67,1.89-9.94,2.9Zm171.99-1.25c-3.31-.98-6.66-1.9-9.97-2.75l.52-3.12c3.33.85,6.7,1.79,10.04,2.77l-.59,3.1Zm-153.71-3.8l-.49-3.13c2.81-.68,5.61-1.32,8.43-1.92l.43,3.14c-2.79.59-5.58,1.23-8.37,1.9Zm135.39-.98c-2.79-.63-5.59-1.22-8.39-1.78l.4-3.15c2.82.56,5.64,1.15,8.45,1.8l-.46,3.13Zm-116.92-2.89l-.36-3.16c2.83-.5,5.66-.96,8.5-1.38l.3,3.17c-2.82.42-5.63.88-8.44,1.37Zm98.43-.71c-2.81-.46-5.63-.87-8.45-1.24l.27-3.18c2.84.38,5.68.79,8.51,1.25l-.33,3.17Zm-81.53-1.78l-.24-3.18c3.41-.4,6.87-.75,10.25-1.03l.17,3.18c-3.36.28-6.79.63-10.19,1.02Zm64.6-.46c-3.38-.35-6.81-.65-10.19-.88l.14-3.19c3.41.23,6.86.53,10.27.89l-.21,3.18Zm-45.92-1.14l-.11-3.19c2.85-.16,5.71-.26,8.57-.33l.05,3.19c-2.84.07-5.68.18-8.51.33Zm27.23-.2c-2.84-.11-5.67-.18-8.51-.21l.02-3.19c2.86.03,5.72.1,8.57.21l-.08,3.19Z"/>
</svg>