<?xml version="1.0" encoding="UTF-8"?>
<svg id="Layer_1" data-name="Layer 1" xmlns="http://www.w3.org/2000/svg" viewBox="0 0 381.58 442.57">
  <defs>
    <style>
      .cls-1 {
        fill: #fff;
      }

      .cls-2 {
        fill: #feea2c;
      }

      .cls-3 {
        fill: #231f20;
      }
    </style>
  </defs>
  <rect class="cls-3" x="164.06" width="53.52" height="441.99"/>
  <g>
    <g>
      <path class="cls-3" d="m381.58,189.46v-1.9h-60.16c-51.93-12.73-92.59-62.11-101.24-122.95V0h-2.66v189.46h164.06Zm-161.41-42.98c9.67,15.62,21.61,29.67,34.93,41.08h-34.93v-41.08Z"/>
      <path class="cls-1" d="m381.58,190.65v-1.19h-60.34c-52.72-12.85-93.98-62.93-102.7-124.69V0h-1.02v190.65h164.06Zm-163.04-50.24c11.03,19.16,25.34,36,41.68,49.05h-41.68v-49.05Z"/>
    </g>
    <path class="cls-3" d="m381.58,203.12v-12.47h-60.44c-53.22-12.91-94.8-63.03-103.62-125.79V0h-10.73v203.12h174.8,0Zm-164.06-12.47v-54.23c11.87,21.65,27.59,40.17,46.06,54.23h-46.06Z"/>
    <path class="cls-3" d="m381.58,203.12v-12.47h-60.44c-53.22-12.91-94.8-63.03-103.62-125.79V0h-10.73v203.12h174.8,0Zm-164.06-12.47v-54.23c11.87,21.65,27.59,40.17,46.06,54.23h-46.06Z"/>
    <path class="cls-1" d="m314.52,202.96c-2.01-.49-2.16-.56-4.14-1.16l.26-1.15c1.97.59,2.11.65,4.1,1.15l-.22,1.16Z"/>
    <path class="cls-1" d="m305.89,200.22c-1.96-.69-3.93-1.45-5.86-2.24l.34-1.12c1.91.79,3.86,1.54,5.81,2.24l-.3,1.13Z"/>
    <path class="cls-1" d="m294.27,195.43c-1.89-.89-3.79-1.84-5.66-2.83l.43-1.08c1.86.98,3.75,1.92,5.62,2.8l-.38,1.11Z"/>
    <path class="cls-1" d="m283.05,189.51c-1.82-1.07-3.64-2.21-5.43-3.37l.5-1.03c1.77,1.15,3.59,2.28,5.39,3.35l-.46,1.06Z"/>
    <path class="cls-1" d="m272.32,182.5c-1.73-1.26-3.47-2.57-5.16-3.91l.58-.98c1.67,1.32,3.4,2.63,5.12,3.87l-.54,1.02Z"/>
    <path class="cls-1" d="m262.14,174.43c-1.63-1.41-3.26-2.89-4.86-4.39l.65-.92c1.58,1.49,3.21,2.96,4.82,4.36l-.61.95Z"/>
    <path class="cls-1" d="m252.6,165.42c-1.53-1.58-3.05-3.22-4.52-4.86l.71-.86c1.45,1.63,2.96,3.26,4.48,4.82l-.68.89Z"/>
    <path class="cls-1" d="m243.74,155.48c-1.41-1.72-2.8-3.49-4.14-5.28l.77-.78c1.33,1.78,2.72,3.54,4.12,5.25l-.74.82Z"/>
    <path class="cls-1" d="m235.65,144.72c-1.28-1.86-2.54-3.77-3.74-5.67l.82-.71c1.19,1.89,2.45,3.79,3.72,5.64l-.8.74Z"/>
    <path class="cls-1" d="m228.37,133.2c-1.14-1.97-2.26-4-3.31-6.02l.87-.63c1.06,2.01,2.16,4.02,3.29,5.98l-.85.66Z"/>
    <path class="cls-1" d="m221.96,121.01c-.99-2.08-1.95-4.2-2.86-6.32l.92-.53c.9,2.1,1.85,4.21,2.84,6.28l-.89.58Z"/>
    <path class="cls-1" d="m216.47,108.23c-.83-2.16-1.63-4.37-2.38-6.58l.95-.44c.75,2.19,1.54,4.39,2.37,6.53l-.94.48Z"/>
    <path class="cls-1" d="m211.95,94.95c-.67-2.22-1.3-4.51-1.89-6.79l.98-.34c.59,2.26,1.22,4.54,1.88,6.74l-.97.39Z"/>
  </g>
  <g>
    <g>
      <path class="cls-3" d="m217.52,253.12v189.46h2.66v-64.61c8.65-60.84,49.31-110.22,101.24-122.95h60.16v-1.9h-164.06Zm2.66,1.9h34.93c-13.32,11.42-25.26,25.46-34.93,41.08v-41.08Z"/>
      <path class="cls-1" d="m217.52,251.93v190.65h1.02v-64.76c8.72-61.77,49.98-111.85,102.7-124.69h60.34v-1.19h-164.06Zm1.02,1.19h41.68c-16.33,13.05-30.65,29.89-41.68,49.05v-49.05Z"/>
    </g>
    <path class="cls-3" d="m381.58,239.46h-174.8v203.12h10.73v-64.86c8.83-62.75,50.41-112.89,103.62-125.79h60.44v-12.47h0Zm-118.01,12.47c-18.46,14.06-34.19,32.59-46.06,54.23v-54.23h46.06Z"/>
    <path class="cls-3" d="m381.58,239.46h-174.8v203.12h10.73v-64.86c8.83-62.75,50.41-112.89,103.62-125.79h60.44v-12.47h0Zm-118.01,12.47c-18.46,14.06-34.19,32.59-46.06,54.23v-54.23h46.06Z"/>
    <path class="cls-1" d="m314.74,240.78c-1.99.5-2.13.56-4.1,1.15l-.26-1.15c1.98-.6,2.14-.66,4.14-1.16l.22,1.16Z"/>
    <path class="cls-1" d="m306.19,243.49c-1.95.7-3.9,1.45-5.81,2.24l-.34-1.13c1.93-.79,3.89-1.55,5.86-2.24l.3,1.13Z"/>
    <path class="cls-1" d="m294.65,248.24c-1.87.88-3.76,1.83-5.62,2.81l-.43-1.08c1.87-.99,3.77-1.93,5.66-2.82l.38,1.1Z"/>
    <path class="cls-1" d="m283.52,254.13c-1.8,1.06-3.62,2.2-5.39,3.35l-.5-1.04c1.79-1.16,3.61-2.3,5.43-3.37l.46,1.06Z"/>
    <path class="cls-1" d="m272.86,261.09c-1.73,1.24-3.45,2.55-5.12,3.87l-.58-.98c1.69-1.33,3.43-2.64,5.16-3.9l.54,1.01Z"/>
    <path class="cls-1" d="m262.76,269.09c-1.62,1.4-3.24,2.87-4.82,4.36l-.65-.92c1.6-1.51,3.23-2.99,4.86-4.39l.61.95Z"/>
    <path class="cls-1" d="m253.28,278.05c-1.52,1.56-3.03,3.19-4.48,4.82l-.71-.85c1.47-1.65,2.99-3.28,4.52-4.86l.68.89Z"/>
    <path class="cls-1" d="m244.48,287.91c-1.4,1.7-2.78,3.47-4.12,5.24l-.77-.78c1.34-1.79,2.74-3.57,4.14-5.29l.74.82Z"/>
    <path class="cls-1" d="m236.45,298.6c-1.27,1.84-2.52,3.74-3.72,5.63l-.82-.71c1.2-1.91,2.46-3.82,3.74-5.67l.8.74Z"/>
    <path class="cls-1" d="m229.22,310.04c-1.13,1.96-2.24,3.97-3.29,5.98l-.87-.62c1.06-2.02,2.18-4.04,3.31-6.01l.85.66Z"/>
    <path class="cls-1" d="m222.85,322.15c-.98,2.06-1.94,4.17-2.84,6.28l-.92-.53c.91-2.11,1.87-4.24,2.86-6.32l.89.57Z"/>
    <path class="cls-1" d="m217.41,334.84c-.82,2.14-1.62,4.34-2.37,6.53l-.95-.44c.75-2.2,1.55-4.42,2.38-6.58l.94.49Z"/>
    <path class="cls-1" d="m212.92,348.01c-.67,2.21-1.3,4.48-1.88,6.74l-.98-.34c.59-2.28,1.22-4.57,1.89-6.79l.97.39Z"/>
  </g>
  <rect class="cls-3" y="190.65" width="381.17" height="61.28"/>
  <g>
    <path class="cls-1" d="m381,238.08h-6.13v-1.19h6.13v1.19Zm-10.22,0h-6.14v-1.19h6.14v1.19Zm-10.23,0h-6.13v-1.19h6.13v1.19Zm-10.22,0h-6.13v-1.19h6.13v1.19Zm-10.22,0h-6.13v-1.19h6.13v1.19Zm-10.22,0h-6.13v-1.19h6.13v1.19Zm-10.22,0h-6.13v-1.19h6.13v1.19Zm-10.22,0h-6.13v-1.19h6.13v1.19Zm-10.22,0h-6.13v-1.19h6.13v1.19Zm-10.22,0h-6.13v-1.19h6.13v1.19Zm-10.22,0h-6.13v-1.19h6.13v1.19Zm-10.22,0h-6.13v-1.19h6.13v1.19Zm-10.22,0h-6.13v-1.19h6.13v1.19Zm-10.22,0h-6.13v-1.19h6.13v1.19Zm-10.23,0h-6.13v-1.19h6.13v1.19Zm-10.22,0h-6.13v-1.19h6.13v1.19Zm-10.22,0h-6.14v-1.19h6.14v1.19Zm-10.22,0h-6.13v-1.19h6.13v1.19Zm-10.22,0h-6.13v-1.19h6.13v1.19Zm-10.22,0h-6.13v-1.19h6.13v1.19Zm-10.22,0h-6.14v-1.19h6.14v1.19Zm-10.23,0h-6.13v-1.19h6.13v1.19Zm-10.22,0h-6.13v-1.19h6.13v1.19Zm-10.22,0h-6.14v-1.19h6.14v1.19Zm-10.22,0h-6.13v-1.19h6.13v1.19Zm-10.22,0h-6.13v-1.19h6.13v1.19Zm-10.22,0h-6.14v-1.19h6.14v1.19Zm-10.23,0h-6.14v-1.19h6.14v1.19Zm-10.22,0h-6.13v-1.19h6.13v1.19Zm-10.22,0h-6.13v-1.19h6.13v1.19Zm-10.22,0h-6.14v-1.19h6.14v1.19Zm-10.22,0h-6.13v-1.19h6.13v1.19Zm-10.22,0h-6.13v-1.19h6.13v1.19Zm-10.22,0h-6.13v-1.19h6.13v1.19Zm-10.22,0h-6.14v-1.19h6.14v1.19Zm-10.22,0h-6.13v-1.19h6.13v1.19Zm-10.22,0h-6.13v-1.19h6.13v1.19Zm-10.22,0H.64v-1.19h2.15v1.19Z"/>
    <path class="cls-1" d="m381,205.1h-6.13v-1.19h6.13v1.19Zm-10.22,0h-6.14v-1.19h6.14v1.19Zm-10.23,0h-6.13v-1.19h6.13v1.19Zm-10.22,0h-6.13v-1.19h6.13v1.19Zm-10.22,0h-6.13v-1.19h6.13v1.19Zm-10.22,0h-6.13v-1.19h6.13v1.19Zm-10.22,0h-6.13v-1.19h6.13v1.19Zm-10.22,0h-6.13v-1.19h6.13v1.19Zm-10.22,0h-6.13v-1.19h6.13v1.19Zm-10.22,0h-6.13v-1.19h6.13v1.19Zm-10.22,0h-6.13v-1.19h6.13v1.19Zm-10.22,0h-6.13v-1.19h6.13v1.19Zm-10.22,0h-6.13v-1.19h6.13v1.19Zm-10.22,0h-6.13v-1.19h6.13v1.19Zm-10.23,0h-6.13v-1.19h6.13v1.19Zm-10.22,0h-6.13v-1.19h6.13v1.19Zm-10.22,0h-6.14v-1.19h6.14v1.19Zm-10.22,0h-6.13v-1.19h6.13v1.19Zm-10.22,0h-6.13v-1.19h6.13v1.19Zm-10.22,0h-6.13v-1.19h6.13v1.19Zm-10.22,0h-6.14v-1.19h6.14v1.19Zm-10.23,0h-6.13v-1.19h6.13v1.19Zm-10.22,0h-6.13v-1.19h6.13v1.19Zm-10.22,0h-6.14v-1.19h6.14v1.19Zm-10.22,0h-6.13v-1.19h6.13v1.19Zm-10.22,0h-6.13v-1.19h6.13v1.19Zm-10.22,0h-6.14v-1.19h6.14v1.19Zm-10.23,0h-6.14v-1.19h6.14v1.19Zm-10.22,0h-6.13v-1.19h6.13v1.19Zm-10.22,0h-6.13v-1.19h6.13v1.19Zm-10.22,0h-6.14v-1.19h6.14v1.19Zm-10.22,0h-6.13v-1.19h6.13v1.19Zm-10.22,0h-6.13v-1.19h6.13v1.19Zm-10.22,0h-6.13v-1.19h6.13v1.19Zm-10.22,0h-6.14v-1.19h6.14v1.19Zm-10.22,0h-6.13v-1.19h6.13v1.19Zm-10.22,0h-6.13v-1.19h6.13v1.19Zm-10.22,0H.64v-1.19h2.15v1.19Z"/>
  </g>
  <g>
    <g>
      <path class="cls-3" d="m164.06,189.46V0h-2.66v64.61c-8.64,60.84-49.31,110.22-101.24,122.95H0v1.9h164.06Zm-2.66-1.9h-34.93c13.32-11.42,25.26-25.46,34.93-41.08v41.08Z"/>
      <path class="cls-1" d="m164.06,190.65V0h-1.02v64.77c-8.73,61.77-49.98,111.85-102.71,124.69H0v1.19h164.06Zm-1.02-1.19h-41.68c16.33-13.05,30.65-29.89,41.68-49.05v49.05Z"/>
    </g>
    <path class="cls-3" d="m0,203.12h174.8V0h-10.73v64.86c-8.83,62.76-50.41,112.88-103.62,125.79H0v12.47h0Zm118-12.47c18.46-14.07,34.19-32.58,46.06-54.23v54.23h-46.06Z"/>
    <path class="cls-3" d="m0,203.12h174.8V0h-10.73v64.86c-8.83,62.76-50.41,112.88-103.62,125.79H0v12.47h0Zm118-12.47c18.46-14.07,34.19-32.58,46.06-54.23v54.23h-46.06Z"/>
    <path class="cls-1" d="m66.84,201.8c1.98-.5,2.13-.56,4.09-1.15l.26,1.15c-1.98.6-2.14.67-4.14,1.16l-.21-1.16Z"/>
    <path class="cls-1" d="m75.39,199.08c1.94-.69,3.9-1.44,5.81-2.24l.33,1.12c-1.92.79-3.89,1.55-5.85,2.24l-.3-1.13Z"/>
    <path class="cls-1" d="m86.93,194.33c1.87-.88,3.76-1.82,5.62-2.8l.42,1.08c-1.87.99-3.78,1.94-5.66,2.83l-.38-1.11Z"/>
    <path class="cls-1" d="m98.06,188.45c1.81-1.07,3.62-2.2,5.39-3.35l.5,1.03c-1.79,1.17-3.61,2.3-5.43,3.37l-.46-1.06Z"/>
    <path class="cls-1" d="m108.72,181.48c1.73-1.24,3.45-2.54,5.13-3.87l.57.98c-1.69,1.34-3.42,2.65-5.16,3.91l-.54-1.02Z"/>
    <path class="cls-1" d="m118.82,173.49c1.62-1.4,3.24-2.87,4.82-4.36l.65.92c-1.59,1.51-3.23,2.99-4.86,4.39l-.61-.95Z"/>
    <path class="cls-1" d="m128.3,164.53c1.52-1.57,3.03-3.19,4.49-4.82l.71.86c-1.47,1.64-2.99,3.27-4.52,4.86l-.68-.89Z"/>
    <path class="cls-1" d="m137.09,154.67c1.4-1.71,2.78-3.47,4.12-5.25l.77.78c-1.34,1.79-2.73,3.56-4.14,5.28l-.74-.82Z"/>
    <path class="cls-1" d="m145.13,143.98c1.27-1.85,2.52-3.74,3.72-5.64l.82.71c-1.2,1.9-2.46,3.81-3.74,5.67l-.8-.74Z"/>
    <path class="cls-1" d="m152.36,132.54c1.13-1.96,2.24-3.97,3.3-5.98l.87.63c-1.06,2.02-2.17,4.04-3.32,6.02l-.85-.66Z"/>
    <path class="cls-1" d="m158.72,120.43c.98-2.06,1.94-4.18,2.84-6.28l.91.53c-.91,2.12-1.87,4.24-2.86,6.32l-.89-.58Z"/>
    <path class="cls-1" d="m164.17,107.74c.83-2.14,1.62-4.34,2.37-6.53l.95.44c-.75,2.21-1.56,4.42-2.39,6.58l-.93-.48Z"/>
    <path class="cls-1" d="m168.66,94.56c.66-2.21,1.3-4.48,1.88-6.74l.98.34c-.59,2.28-1.22,4.57-1.89,6.79l-.97-.39Z"/>
  </g>
  <g>
    <g>
      <path class="cls-3" d="m0,253.12v1.9h60.16c51.93,12.73,92.59,62.11,101.24,122.95v64.61h2.66v-189.46H0Zm161.4,42.98c-9.67-15.62-21.61-29.66-34.93-41.08h34.93v41.08Z"/>
      <path class="cls-1" d="m0,251.93v1.19h60.33c52.72,12.84,93.98,62.93,102.71,124.69v64.76h1.02v-190.65H0Zm163.04,50.24c-11.03-19.16-25.35-36-41.68-49.05h41.68v49.05Z"/>
    </g>
    <path class="cls-3" d="m0,239.46v12.47h60.43c53.21,12.9,94.79,63.04,103.62,125.79v64.86h10.73v-203.12H0h0Zm164.06,12.47v54.23c-11.87-21.64-27.59-40.16-46.06-54.23h46.06Z"/>
    <path class="cls-3" d="m0,239.46v12.47h60.43c53.21,12.9,94.79,63.04,103.62,125.79v64.86h10.73v-203.12H0h0Zm164.06,12.47v54.23c-11.87-21.64-27.59-40.16-46.06-54.23h46.06Z"/>
    <path class="cls-1" d="m67.06,239.61c2.01.5,2.16.56,4.14,1.16l-.26,1.15c-1.96-.59-2.11-.65-4.09-1.15l.21-1.16Z"/>
    <path class="cls-1" d="m75.69,242.36c1.96.69,3.92,1.45,5.85,2.24l-.33,1.13c-1.91-.79-3.87-1.54-5.81-2.24l.3-1.13Z"/>
    <path class="cls-1" d="m87.31,247.14c1.89.89,3.79,1.83,5.66,2.82l-.42,1.08c-1.86-.98-3.75-1.92-5.62-2.81l.38-1.1Z"/>
    <path class="cls-1" d="m98.52,253.07c1.82,1.07,3.65,2.21,5.43,3.37l-.5,1.04c-1.77-1.15-3.59-2.29-5.39-3.35l.46-1.06Z"/>
    <path class="cls-1" d="m109.26,260.08c1.74,1.26,3.47,2.57,5.16,3.9l-.57.98c-1.68-1.32-3.4-2.63-5.13-3.87l.54-1.01Z"/>
    <path class="cls-1" d="m119.43,268.14c1.63,1.41,3.26,2.89,4.86,4.39l-.65.92c-1.58-1.49-3.2-2.96-4.82-4.36l.61-.95Z"/>
    <path class="cls-1" d="m128.98,277.16c1.53,1.58,3.05,3.21,4.52,4.86l-.71.85c-1.46-1.63-2.97-3.26-4.49-4.82l.68-.89Z"/>
    <path class="cls-1" d="m137.83,287.09c1.41,1.72,2.8,3.5,4.14,5.29l-.77.78c-1.33-1.77-2.72-3.54-4.12-5.24l.74-.82Z"/>
    <path class="cls-1" d="m145.93,297.86c1.28,1.85,2.54,3.76,3.74,5.67l-.82.71c-1.19-1.89-2.44-3.79-3.72-5.63l.8-.74Z"/>
    <path class="cls-1" d="m153.21,309.38c1.14,1.97,2.25,3.99,3.32,6.01l-.87.62c-1.05-2.01-2.17-4.02-3.3-5.98l.85-.66Z"/>
    <path class="cls-1" d="m159.62,321.57c.99,2.08,1.95,4.2,2.86,6.32l-.91.53c-.91-2.1-1.86-4.22-2.84-6.28l.89-.57Z"/>
    <path class="cls-1" d="m165.1,334.35c.83,2.16,1.63,4.37,2.39,6.58l-.95.44c-.75-2.19-1.54-4.39-2.37-6.53l.93-.49Z"/>
    <path class="cls-1" d="m169.63,347.62c.67,2.23,1.3,4.51,1.89,6.79l-.98.34c-.59-2.26-1.22-4.53-1.88-6.74l.97-.39Z"/>
  </g>
  <rect class="cls-2" x="2.57" y="220.41" width="376.55" height="1.19"/>
  <rect class="cls-1" x="163.04" y="185.1" width="1.02" height="72.38"/>
  <rect class="cls-1" x="217.58" y="185.1" width=".96" height="72.38"/>
  <rect class="cls-3" x="164.17" y="136.42" width="53.35" height="169.74"/>
  <rect class="cls-2" x="190.32" width="1.02" height="441.99"/>
  <g>
    <path class="cls-1" d="m205.53,441.99h-1.03v-2.49h1.03v2.49Zm0-7.24h-1.03v-7.13h1.03v7.13Zm0-11.88h-1.03v-7.12h1.03v7.12Zm0-11.88h-1.03v-7.13h1.03v7.13Zm0-11.88h-1.03v-7.13h1.03v7.13Zm0-11.88h-1.03v-7.13h1.03v7.13Zm0-11.88h-1.03v-7.13h1.03v7.13Zm0-11.88h-1.03v-7.13h1.03v7.13Zm0-11.88h-1.03v-7.13h1.03v7.13Zm0-11.88h-1.03v-7.13h1.03v7.13Zm0-11.88h-1.03v-7.13h1.03v7.13Zm0-11.87h-1.03v-7.13h1.03v7.13Zm0-11.88h-1.03v-7.13h1.03v7.13Zm0-11.88h-1.03v-7.12h1.03v7.12Zm0-11.88h-1.03v-7.12h1.03v7.12Zm0-11.88h-1.03v-7.13h1.03v7.13Zm0-11.88h-1.03v-7.13h1.03v7.13Zm0-11.88h-1.03v-7.13h1.03v7.13Zm0-11.88h-1.03v-7.13h1.03v7.13Zm0-11.88h-1.03v-7.13h1.03v7.13Zm0-11.88h-1.03v-7.13h1.03v7.13Zm0-11.88h-1.03v-7.13h1.03v7.13Zm0-11.88h-1.03v-7.12h1.03v7.12Zm0-11.87h-1.03v-7.13h1.03v7.13Zm0-11.88h-1.03v-7.13h1.03v7.13Zm0-11.88h-1.03v-7.12h1.03v7.12Zm0-11.87h-1.03v-7.13h1.03v7.13Zm0-11.88h-1.03v-7.13h1.03v7.13Zm0-11.88h-1.03v-7.12h1.03v7.12Zm0-11.88h-1.03v-7.13h1.03v7.13Zm0-11.88h-1.03v-7.13h1.03v7.13Zm0-11.88h-1.03v-7.12h1.03v7.12Zm0-11.88h-1.03v-7.13h1.03v7.13Zm0-11.88h-1.03v-7.13h1.03v7.13Zm0-11.88h-1.03v-7.13h1.03v7.13Zm0-11.88h-1.03v-7.13h1.03v7.13Zm0-11.88h-1.03v-7.12h1.03v7.12Zm0-11.87h-1.03V0h1.03v7.13Z"/>
    <path class="cls-1" d="m177.14,441.99h-1.02v-2.49h1.02v2.49Zm0-7.24h-1.02v-7.13h1.02v7.13Zm0-11.88h-1.02v-7.12h1.02v7.12Zm0-11.88h-1.02v-7.13h1.02v7.13Zm0-11.88h-1.02v-7.13h1.02v7.13Zm0-11.88h-1.02v-7.13h1.02v7.13Zm0-11.88h-1.02v-7.13h1.02v7.13Zm0-11.88h-1.02v-7.13h1.02v7.13Zm0-11.88h-1.02v-7.13h1.02v7.13Zm0-11.88h-1.02v-7.13h1.02v7.13Zm0-11.88h-1.02v-7.13h1.02v7.13Zm0-11.87h-1.02v-7.13h1.02v7.13Zm0-11.88h-1.02v-7.13h1.02v7.13Zm0-11.88h-1.02v-7.12h1.02v7.12Zm0-11.88h-1.02v-7.12h1.02v7.12Zm0-11.88h-1.02v-7.13h1.02v7.13Zm0-11.88h-1.02v-7.13h1.02v7.13Zm0-11.88h-1.02v-7.13h1.02v7.13Zm0-11.88h-1.02v-7.13h1.02v7.13Zm0-11.88h-1.02v-7.13h1.02v7.13Zm0-11.88h-1.02v-7.13h1.02v7.13Zm0-11.88h-1.02v-7.13h1.02v7.13Zm0-11.88h-1.02v-7.12h1.02v7.12Zm0-11.87h-1.02v-7.13h1.02v7.13Zm0-11.88h-1.02v-7.13h1.02v7.13Zm0-11.88h-1.02v-7.12h1.02v7.12Zm0-11.87h-1.02v-7.13h1.02v7.13Zm0-11.88h-1.02v-7.13h1.02v7.13Zm0-11.88h-1.02v-7.12h1.02v7.12Zm0-11.88h-1.02v-7.13h1.02v7.13Zm0-11.88h-1.02v-7.13h1.02v7.13Zm0-11.88h-1.02v-7.12h1.02v7.12Zm0-11.88h-1.02v-7.13h1.02v7.13Zm0-11.88h-1.02v-7.13h1.02v7.13Zm0-11.88h-1.02v-7.13h1.02v7.13Zm0-11.88h-1.02v-7.13h1.02v7.13Zm0-11.88h-1.02v-7.12h1.02v7.12Zm0-11.87h-1.02V0h1.02v7.13Z"/>
  </g>
</svg>