<?xml version="1.0" encoding="UTF-8"?>
<svg id="Layer_1" data-name="Layer 1" xmlns="http://www.w3.org/2000/svg" viewBox="0 0 385.14 509.17">
  <defs>
    <style>
      .cls-1 {
        fill: #fff;
      }

      .cls-2 {
        fill: #feea2c;
      }

      .cls-3 {
        fill: #231f20;
      }
    </style>
  </defs>
  <g>
    <path class="cls-3" d="m288.19,420.57c-31.89,0-49.57-6.18-62.48-10.68-10.88-3.8-17.44-6.09-33.58-6.09s-22.7,2.29-33.58,6.09c-12.91,4.51-30.59,10.68-62.48,10.68s-49.58-6.18-62.48-10.68c-10.87-3.8-17.44-6.09-33.58-6.09v-27.83c31.89,0,49.57,6.17,62.48,10.68,10.88,3.8,17.44,6.09,33.58,6.09s22.7-2.29,33.58-6.09c12.91-4.51,30.59-10.68,62.48-10.68s49.57,6.17,62.48,10.68c10.87,3.8,17.44,6.09,33.58,6.09s22.71-2.29,33.58-6.09c12.91-4.51,30.59-10.68,62.48-10.68v27.83c-16.14,0-22.7,2.29-33.58,6.09-12.91,4.51-30.59,10.68-62.48,10.68Z"/>
    <path class="cls-1" d="m288.19,419.05c-32.11,0-49.89-6.21-62.88-10.75-10.77-3.76-17.26-6.03-33.19-6.03s-22.42,2.27-33.18,6.03c-12.99,4.53-30.78,10.75-62.88,10.75s-49.89-6.21-62.88-10.75c-10.76-3.76-17.26-6.03-33.18-6.03v-.76c16.35,0,22.99,2.31,33.97,6.15,12.84,4.48,30.41,10.62,62.09,10.62s49.25-6.14,62.09-10.62c10.99-3.84,17.62-6.15,33.98-6.15s22.99,2.31,33.98,6.15c12.84,4.48,30.41,10.62,62.09,10.62s49.25-6.14,62.09-10.62c10.99-3.84,17.62-6.15,33.98-6.15v.76c-15.92,0-22.42,2.27-33.18,6.03-12.99,4.53-30.78,10.75-62.88,10.75Z"/>
    <path class="cls-1" d="m289.08,394.96c-16.5,0-24.28-2.3-35.13-6.09l-1.49-.52c-12.91-4.53-28.97-10.16-59.43-10.16s-47.36,5.96-59.77,10.31l-1.6.56c-10.52,3.67-18.1,5.9-34.7,5.9s-23.33-1.83-34.45-5.71l-1.91-.67c-12.48-4.39-29.58-10.39-59.71-10.39v-.76c30.56,0,47.87,6.08,60.5,10.52l1.9.67c10.87,3.8,17.74,5.59,33.65,5.59s22.66-1.85,33.9-5.78l1.6-.56c12.56-4.41,29.75-10.44,60.56-10.44s47.16,5.7,60.23,10.28l1.49.52c10.63,3.71,18.25,5.97,34.34,5.97s22.42-2.27,33.19-6.03c12.99-4.53,30.78-10.75,62.88-10.75v.76c-31.67,0-49.25,6.14-62.09,10.62-10.99,3.84-17.62,6.15-33.98,6.15Z"/>
    <path class="cls-1" d="m94.3,407.03c-2.73-.02-5.4-.11-7.94-.24l.15-.76c2.5.14,5.13.21,7.82.24l-.02.76Zm191.49,0c-2.74-.03-5.41-.12-7.94-.27l.16-.76c2.49.14,5.12.23,7.82.26l-.03.76Zm10.84-.17l-.12-.76c2.67-.12,5.28-.31,7.75-.56l.27.75c-2.52.25-5.18.44-7.89.57Zm-191.49-.03l-.13-.76c2.67-.13,5.28-.33,7.75-.59l.28.75c-2.52.26-5.17.46-7.89.6Zm-29.49-1.01c-2.59-.34-5.14-.77-7.61-1.27l.51-.71c2.44.49,4.88.9,7.45,1.24l-.35.74Zm191.51-.08c-2.61-.36-5.09-.78-7.59-1.3l.53-.71c2.45.51,4.87.93,7.43,1.28l-.36.74Zm47.86-.95l-.49-.72c2.42-.46,4.77-.99,7.18-1.63l.64.68c-2.46.65-4.86,1.19-7.34,1.66Zm-191.53-.12l-.5-.72c2.4-.47,4.75-1.01,7.15-1.66l.65.68c-2.46.66-4.85,1.22-7.3,1.7Zm-65.28-2.58c-2.04-.61-4.2-1.3-6.79-2.19l.78-.64c2.57.88,4.71,1.56,6.71,2.16l-.7.67Zm191.57-.17c-2.02-.61-4.11-1.29-6.77-2.2l.78-.64c2.64.91,4.7,1.58,6.7,2.18l-.71.66Zm81.98-1.66l-.77-.64c1.62-.54,3.2-1.1,4.79-1.65l1.82-.63.79.64-1.81.63c-1.59.56-3.19,1.11-4.81,1.66Zm-191.59-.18l-.78-.64c1.44-.49,2.85-.98,4.27-1.48.78-.27,1.56-.54,2.34-.82l.79.64c-.78.27-1.55.54-2.33.81-1.42.5-2.85.99-4.28,1.48Zm-97.79-3.3c-2.51-.84-4.66-1.51-6.77-2.11l.68-.67c2.13.61,4.31,1.28,6.86,2.13l-.77.64Zm191.59-.18c-2.5-.83-4.66-1.49-6.79-2.08l.66-.67c2.17.6,4.36,1.27,6.89,2.11l-.76.65Zm113.54-1.61l-.7-.66c2.45-.72,4.8-1.33,7.16-1.86l.56.7c-2.32.52-4.62,1.12-7.02,1.82Zm-191.58-.16l-.69-.67c2.45-.71,4.81-1.3,7.19-1.83l.55.71c-2.34.51-4.65,1.09-7.05,1.79Zm-130.06-2.44c-2.43-.45-4.95-.83-7.51-1.14l.31-.75c2.62.31,5.2.7,7.68,1.16l-.48.72Zm191.53-.11c-2.42-.44-4.96-.81-7.53-1.1l.3-.75c2.63.3,5.21.68,7.69,1.12l-.47.72Zm147.23-.88l-.34-.74c2.51-.32,5.15-.58,7.84-.77l.18.75c-2.64.18-5.23.44-7.68.75Zm-191.52-.08l-.32-.74c2.51-.31,5.15-.56,7.85-.73l.17.76c-2.65.17-5.24.41-7.7.72Zm-165.3-.9c-2.5-.11-5.13-.16-7.83-.16v-.76c2.74,0,5.41.05,7.95.16l-.11.76Zm191.5-.03c-2.31-.09-4.73-.14-7.21-.14h-.62s-.01-.76-.01-.76h.64c2.51,0,4.98.05,7.31.14l-.1.76Zm183.66-.13l-.02-.76c.42,0,.84,0,1.27,0v.76c-.42,0-.84,0-1.25,0Z"/>
    <g>
      <path class="cls-3" d="m384.25,509.17c-47.15,0-71.53-14.22-89.34-24.61-15.15-8.84-22.53-12.74-38.75-12.74s-23.59,3.9-38.75,12.74c-17.8,10.39-42.19,24.61-89.34,24.61s-71.53-14.22-89.34-24.61c-15.15-8.84-22.54-12.74-38.74-12.74v-36.22c47.14,0,71.54,14.23,89.34,24.61,15.15,8.84,22.53,12.75,38.74,12.75s23.59-3.91,38.75-12.75c17.81-10.39,42.19-24.61,89.34-24.61s71.54,14.23,89.34,24.61c15.15,8.84,22.53,12.75,38.75,12.75v36.21Z"/>
      <path class="cls-2" d="m384.25,491.44c-32.34,0-48.72-9.56-64.57-18.81-15.64-9.12-31.81-18.56-63.51-18.56s-47.87,9.43-63.51,18.56c-15.85,9.24-32.24,18.81-64.58,18.81s-48.72-9.56-64.57-18.81c-15.64-9.12-31.81-18.56-63.51-18.56v-.76c32.34,0,48.72,9.56,64.57,18.8,15.64,9.12,31.81,18.56,63.51,18.56s47.87-9.43,63.51-18.56c15.85-9.24,32.24-18.8,64.58-18.8s48.73,9.56,64.58,18.8c15.64,9.12,31.81,18.56,63.51,18.56v.76Z"/>
      <path class="cls-1" d="m384.25,475.37c-18.58,0-30.19-6.76-43.64-14.59-18.33-10.67-39.11-22.77-84.45-22.77s-64.34,11.87-82.41,22.34c-13.91,8.06-25.91,15.02-45.68,15.02-18.17,0-30.1-6.77-43.91-14.61-18.79-10.66-40.08-22.75-84.17-22.75v-.76c44.71,0,66.23,12.22,85.22,22.99,13.58,7.71,25.32,14.37,42.86,14.37,19.13,0,30.94-6.85,44.61-14.77,18.27-10.59,38.97-22.59,83.47-22.59s66.98,12.23,85.51,23.02c13.22,7.7,24.63,14.34,42.57,14.34v.76Z"/>
      <path class="cls-1" d="m384.25,507.41c-44.71,0-66.23-12.22-85.22-22.99-13.59-7.71-25.32-14.37-42.86-14.37-19.13,0-30.94,6.84-44.62,14.77-18.27,10.59-38.97,22.59-83.47,22.59s-66.97-12.23-85.51-23.02c-13.22-7.69-24.64-14.34-42.58-14.34v-.76c18.58,0,30.19,6.76,43.64,14.59,18.33,10.67,39.11,22.77,84.44,22.77s64.35-11.87,82.41-22.34c13.9-8.06,25.91-15.02,45.68-15.02,18.16,0,30.1,6.77,43.91,14.61,18.79,10.66,40.09,22.75,84.17,22.75v.76Z"/>
    </g>
  </g>
  <g>
    <rect class="cls-1" y="260.06" width="375.88" height="2.21"/>
    <rect class="cls-2" y="281.39" width="375.88" height="2.21"/>
    <g>
      <rect class="cls-1" width="375.88" height="1.11"/>
      <rect class="cls-1" y="20.99" width="375.88" height="1.11"/>
    </g>
  </g>
</svg>