<?xml version="1.0" encoding="UTF-8"?>
<svg id="Layer_1" data-name="Layer 1" xmlns="http://www.w3.org/2000/svg" viewBox="0 0 428.13 117.29">
  <defs>
    <style>
      .cls-1 {
        fill: #fff;
      }

      .cls-2 {
        fill: #feea2c;
      }

      .cls-3 {
        fill: #231f20;
      }
    </style>
  </defs>
  <path class="cls-3" d="m428.13,117.29c-113.79,0-171.44-16.04-227.18-31.55C149.17,71.34,100.26,57.73,0,57.73V0c113.8,0,171.44,16.04,227.18,31.55,51.78,14.4,100.68,28.01,200.95,28.01v57.73Z"/>
  <path class="cls-1" d="m422.86,89.02c-3.78-.02-7.55-.06-11.23-.11l.03-1.22c3.67.06,7.44.09,11.21.11v1.22Zm-24.86-.41c-3.76-.11-7.53-.24-11.21-.39l.09-1.22c3.67.15,7.44.28,11.18.39l-.06,1.21Zm-24.81-1.05c-3.74-.22-7.5-.45-11.18-.72l.15-1.21c3.67.26,7.42.5,11.15.71l-.12,1.22Zm-24.73-1.81c-3.73-.33-7.47-.7-11.13-1.09l.22-1.2c3.65.39,7.38.75,11.1,1.08l-.19,1.21Zm-24.59-2.66c-3.69-.47-7.4-.98-11.04-1.51l.3-1.2c3.63.53,7.33,1.04,11,1.51l-.26,1.2Zm-24.38-3.61c-3.62-.61-7.3-1.27-10.92-1.95l.39-1.18c3.61.68,7.27,1.34,10.88,1.95l-.35,1.18Zm-24.09-4.59c-3.55-.75-7.18-1.56-10.77-2.39l.46-1.16c3.58.83,7.2,1.62,10.73,2.37l-.43,1.17Zm-23.74-5.5c-3.45-.86-6.92-1.75-10.62-2.72l.52-1.15c3.69.97,7.16,1.86,10.59,2.72l-.5,1.15Zm-23.44-6.17c-3.53-.97-7.03-1.94-10.53-2.91l.55-1.14c3.5.97,7,1.94,10.52,2.91l-.54,1.14Zm-23.29-6.46c-3.5-.96-7-1.92-10.53-2.88l.54-1.15c3.54.95,7.04,1.92,10.54,2.89l-.55,1.14Zm-23.36-6.27c-3.72-.95-7.19-1.82-10.62-2.66l.49-1.16c3.44.84,6.92,1.7,10.65,2.66l-.51,1.15Zm-23.6-5.67c-3.61-.8-7.23-1.57-10.77-2.29l.42-1.18c3.54.72,7.18,1.5,10.8,2.3l-.45,1.17Zm-23.93-4.81c-3.6-.64-7.27-1.27-10.91-1.85l.33-1.19c3.66.58,7.34,1.21,10.95,1.86l-.37,1.18Zm-24.23-3.83c-3.64-.5-7.35-.98-11.03-1.41l.25-1.2c3.69.44,7.41.91,11.06,1.42l-.29,1.2Zm-24.47-2.87c-3.65-.36-7.39-.7-11.11-1l.17-1.21c3.73.31,7.48.65,11.14,1.01l-.21,1.2Zm-24.63-1.99c-3.68-.24-7.43-.45-11.16-.64l.11-1.21c3.74.19,7.5.41,11.19.64l-.13,1.21Zm-24.73-1.22c-3.7-.13-7.46-.24-11.19-.32l.05-1.22c3.74.09,7.51.2,11.21.33l-.07,1.21Zm-24.78-.55c-3.69-.04-7.45-.06-11.2-.06v-1.22c3.75,0,7.53.02,11.22.06l-.02,1.22Z"/>
  <path class="cls-2" d="m428.13,63.41c-101.5,0-151.51-14.04-204.44-28.9C170,19.43,114.49,3.85,0,3.85v-1.22c114.77,0,170.42,15.62,224.24,30.73,52.8,14.83,102.67,28.82,203.88,28.82v1.22Z"/>
  <path class="cls-2" d="m428.13,114.51c-114.77,0-170.42-15.62-224.24-30.73C151.09,68.95,101.22,54.95,0,54.95v-1.22c101.5,0,151.51,14.04,204.44,28.9,53.69,15.07,109.2,30.66,223.68,30.66v1.21Z"/>
</svg>