<?xml version="1.0" encoding="UTF-8"?>
<svg id="Layer_1" data-name="Layer 1" xmlns="http://www.w3.org/2000/svg" viewBox="0 0 415.24 580.16">
  <defs>
    <style>
      .cls-1 {
        fill: #fff;
      }

      .cls-2 {
        fill: #231f20;
      }
    </style>
  </defs>
  <rect class="cls-2" x="123.37" y="258.54" width="291.87" height="67.99"/>
  <rect class="cls-1" x="123.37" y="261.28" width="291.28" height="62.51"/>
  <rect class="cls-2" x="121.73" y="265.13" width="292.47" height="54.81"/>
  <g>
    <rect class="cls-1" x="121.73" y="290.12" width="7.06" height="4.85"/>
    <path class="cls-1" d="m284.46,294.95h-13.34v-4.85h13.34v4.85Zm-22.24,0h-13.34s0-4.84,0-4.84h13.34s0,4.84,0,4.84Zm-22.24.01h-13.33v-4.85h13.33v4.85Zm-22.23,0h-13.34v-4.85h13.34v4.85Zm-22.24,0h-13.35v-4.85h13.35v4.85Zm-22.24,0h-13.34v-4.85h13.34v4.85Zm-22.23,0h-13.35v-4.85h13.35v4.85Z"/>
    <rect class="cls-1" x="293.35" y="290.11" width="116.97" height="4.85"/>
  </g>
  <rect class="cls-2" x="197.23" width="52.87" height="419.41"/>
  <rect class="cls-1" x="199.36" width="48.61" height="419.41"/>
  <rect class="cls-2" x="202.37" width="42.62" height="422.59"/>
  <g>
    <rect class="cls-1" x="221.79" y="413.51" width="3.77" height="9.08"/>
    <path class="cls-1" d="m225.56,245.89h-3.77v-18.63h3.77v18.63Zm0,31.04h-3.77v-18.62h3.77v18.62Zm0,31.05h-3.77v-18.63h3.77v18.63Zm0,31.05h-3.77v-18.64h3.77v18.64Zm0,31.04h-3.77v-18.63h3.77v18.63Zm0,31.05h-3.77v-18.63h3.77v18.63Z"/>
    <rect class="cls-1" x="221.79" width="3.77" height="214.84"/>
  </g>
  <path class="cls-1" d="m125.05,518.74c-42.62,0-77.29-44.59-77.29-99.41s34.67-99.39,77.29-99.39v3.85c-40.98,0-74.31,42.87-74.31,95.55s33.33,95.56,74.31,95.56,74.31-42.85,74.31-95.56h2.98c0,54.82-34.67,99.41-77.29,99.41Z"/>
  <path class="cls-1" d="m125.05,577.42c-67.78,0-122.92-70.91-122.92-158.08s55.14-158.06,122.92-158.06v3.84c-66.13,0-119.94,69.19-119.94,154.22s53.8,154.24,119.94,154.24,119.94-69.18,119.94-154.24h2.98c0,87.17-55.14,158.08-122.91,158.08Z"/>
  <path class="cls-2" d="m52.87,419.34c0,51.19,32.38,92.82,72.18,92.82s72.16-41.63,72.16-92.82h2.14c0,52.71-33.33,95.56-74.31,95.56s-74.31-42.85-74.31-95.56,33.33-95.55,74.31-95.55v2.74c-39.8,0-72.18,41.64-72.18,92.8Z"/>
  <path class="cls-2" d="m2.14,419.34c0,87.17,55.14,158.08,122.92,158.08s122.91-70.91,122.91-158.08h2.14c0,88.68-56.09,160.82-125.05,160.82S0,508.02,0,419.34s56.1-160.81,125.05-160.81v2.75c-67.78,0-122.92,70.92-122.92,158.06Z"/>
  <path class="cls-2" d="m125.05,290.11v-24.99c-66.13,0-119.94,69.19-119.94,154.22s53.8,154.24,119.94,154.24,119.94-69.18,119.94-154.24h-42.65c0,54.82-34.67,99.41-77.29,99.41s-77.29-44.59-77.29-99.41,34.67-99.39,77.29-99.39v-24.99c-4.55,0-9.11.4-13.57,1.21l-.52-4.8c4.62-.83,9.36-1.25,14.09-1.25Zm99.47,147.74l-3.72-.68c.65-5.83.97-11.77.99-17.7h3.76c0,6.15-.35,12.32-1.03,18.38Zm-11.48,33.25c1.91-5.35,3.53-10.94,4.84-16.6l3.61,1.37c-1.35,5.87-3.04,11.69-5.03,17.25l-3.41-2.02Zm-14.9,29.73c2.99-4.44,5.79-9.2,8.27-14.18l3.16,2.62c-2.59,5.17-5.49,10.12-8.6,14.75l-2.84-3.18Zm-20.81,23.19c3.85-3.2,7.56-6.77,11.05-10.66l2.46,3.67c-3.61,4.02-7.47,7.75-11.47,11.05l-2.04-4.06Zm-25.05,14.71c4.42-1.67,8.77-3.74,12.94-6.21l1.57,4.4c-4.33,2.56-8.85,4.73-13.44,6.45l-1.06-4.64Zm-27.64,9.84l.41-4.85c4.61,0,9.25-.42,13.76-1.25l.53,4.79c-4.7.86-9.51,1.3-14.3,1.3h-.41Zm-28.29-5.34l1.07-4.64c4.4,1.68,8.94,2.96,13.47,3.81l-.55,4.79c-4.71-.87-9.41-2.21-14-3.96Zm-25.95-15.42l2.04-4.07c3.87,3.23,7.93,6.11,12.07,8.58l-1.58,4.4c-4.31-2.57-8.53-5.57-12.53-8.91Zm-21.53-24.19l2.85-3.16c3.01,4.49,6.28,8.73,9.72,12.59l-2.47,3.65c-3.58-4.02-6.98-8.41-10.1-13.08Zm-23.36-66.3l3.72-.68c.64,5.85,1.61,11.68,2.88,17.35l-3.61,1.34c-1.32-5.88-2.33-11.95-2.99-18.01Zm.08-36.77l3.73.71c-.66,5.81-1,11.76-1.01,17.68h-3.76c.01-6.16.37-12.34,1.05-18.38Zm11.54-33.22c-1.92,5.36-3.55,10.94-4.85,16.6l-3.61-1.37c1.35-5.88,3.05-11.69,5.04-17.25l3.41,2.02Zm6.34,118.9l-3.16,2.61c-2.57-5.16-4.87-10.61-6.85-16.2l3.43-2c1.9,5.38,4.11,10.63,6.58,15.59Zm8.61-148.59c-3.02,4.44-5.82,9.21-8.3,14.15l-3.16-2.63c2.59-5.14,5.49-10.08,8.62-14.7l2.84,3.18Zm20.84-23.13c-3.86,3.19-7.58,6.75-11.06,10.61l-2.46-3.67c3.61-4.01,7.47-7.72,11.48-11.02l2.04,4.08Zm25.06-14.65c-4.42,1.65-8.78,3.74-12.94,6.17l-1.56-4.41c4.33-2.53,8.86-4.69,13.46-6.4l1.05,4.65Z"/>
  <path class="cls-1" d="m209.58,489.27c-2.59,5.17-5.49,10.12-8.6,14.75l-2.84-3.18c2.99-4.44,5.79-9.2,8.27-14.18l3.16,2.62Z"/>
  <path class="cls-1" d="m221.49,455.87c-1.35,5.87-3.04,11.69-5.03,17.25l-3.41-2.02c1.91-5.35,3.53-10.94,4.84-16.6l3.61,1.37Z"/>
  <path class="cls-1" d="m221.79,418.48h3.76c0,6.15-.35,13.32-1.03,19.37l-3.72-.68c.65-5.83.97-12.77.99-18.69Z"/>
  <path class="cls-1" d="m110.96,291.36c4.62-.83,9.36-1.25,14.09-1.25v4.85c-4.55,0-9.11.4-13.57,1.21l-.52-4.8Z"/>
  <path class="cls-1" d="m83.5,301.63c4.33-2.53,8.86-4.69,13.46-6.4l1.05,4.65c-4.42,1.65-8.78,3.74-12.94,6.17l-1.56-4.41Z"/>
  <polygon class="cls-1" points="125.26 290.11 125.05 294.95 125.05 290.11 125.26 290.11"/>
  <path class="cls-1" d="m190.84,517.04c-3.61,4.02-7.47,7.75-11.47,11.05l-2.04-4.06c3.85-3.2,7.56-6.77,11.05-10.66l2.46,3.67Z"/>
  <path class="cls-1" d="m138.82,542.49l.53,4.79c-4.7.86-9.51,1.3-14.3,1.3h-.41l.41-4.85c4.61,0,9.25-.42,13.76-1.25Z"/>
  <path class="cls-1" d="m166.79,536.93c-4.33,2.56-8.85,4.73-13.44,6.45l-1.06-4.64c4.42-1.67,8.77-3.74,12.94-6.21l1.57,4.4Z"/>
  <path class="cls-1" d="m84.52,532.34l-1.58,4.4c-4.31-2.57-8.53-5.57-12.53-8.91l2.04-4.07c3.87,3.23,7.93,6.11,12.07,8.58Z"/>
  <path class="cls-1" d="m110.9,542.41l-.55,4.79c-4.71-.87-9.41-2.21-14-3.96l1.07-4.64c4.4,1.68,8.94,2.96,13.47,3.81Z"/>
</svg>