<?xml version="1.0" encoding="UTF-8"?>
<svg id="Layer_1" data-name="Layer 1" xmlns="http://www.w3.org/2000/svg" viewBox="0 0 479.15 354.2">
  <defs>
    <style>
      .cls-1 {
        fill: #fff;
      }

      .cls-2 {
        fill: #231f20;
      }
    </style>
  </defs>
  <g>
    <rect class="cls-2" y="157.84" width="377.22" height="41.51"/>
    <rect class="cls-1" x=".48" y="159.52" width="376.74" height="38.16"/>
    <rect class="cls-2" x=".84" y="161.87" width="377.73" height="33.46"/>
    <g>
      <rect class="cls-1" x="372.74" y="177.13" width="5.83" height="2.96"/>
      <path class="cls-1" d="m244.13,177.12h11.03v2.95h-11.03v-2.95Zm18.38,0h11.02v2.96h-11.02v-2.96Zm18.37,0h11.02v2.96h-11.02v-2.96Zm18.37,0h11.02v2.96h-11.02v-2.96Zm18.37,0h11.02v2.96h-11.02v-2.96Zm18.37,0h11.02v2.96h-11.02v-2.96Zm18.37,0h11.03v2.96h-11.03v-2.96Z"/>
      <rect class="cls-1" x="4.05" y="177.12" width="232.74" height="2.95"/>
    </g>
    <rect class="cls-2" x="272.52" width="43.68" height="256.06"/>
    <rect class="cls-1" x="274.29" width="40.15" height="256.06"/>
    <rect class="cls-2" x="276.75" width="35.21" height="258"/>
    <g>
      <rect class="cls-1" x="292.8" y="252.46" width="3.12" height="5.54"/>
      <path class="cls-1" d="m292.8,138.75h3.12v11.37h-3.12v-11.37Zm0,18.95h3.12v11.37h-3.12v-11.37Zm0,18.95h3.12v11.37h-3.12v-11.37Zm0,18.95h3.12v11.37h-3.12v-11.37Zm0,18.95h3.12v11.37h-3.12v-11.37Zm0,18.96h3.12v11.37h-3.12v-11.37Z"/>
      <rect class="cls-1" x="292.8" width="3.12" height="131.17"/>
    </g>
    <path class="cls-1" d="m375.83,316.71c35.21,0,63.86-27.22,63.86-60.69s-28.65-60.69-63.86-60.69v2.34c33.85,0,61.39,26.18,61.39,58.35s-27.54,58.34-61.39,58.34-61.39-26.17-61.39-58.34h-2.47c0,33.47,28.65,60.69,63.85,60.69Z"/>
    <path class="cls-1" d="m375.83,352.53c56,0,101.55-43.29,101.55-96.5s-45.56-96.51-101.55-96.51v2.34c54.63,0,99.09,42.25,99.09,94.17s-44.46,94.16-99.09,94.16-99.09-42.24-99.09-94.16h-2.46c0,53.22,45.55,96.5,101.55,96.5Z"/>
    <path class="cls-2" d="m435.46,256.02c0,31.25-26.75,56.66-59.63,56.66s-59.62-25.42-59.62-56.66h-1.76c0,32.17,27.54,58.34,61.39,58.34s61.39-26.17,61.39-58.34-27.54-58.35-61.39-58.35v1.68c32.88,0,59.63,25.42,59.63,56.67Z"/>
    <path class="cls-2" d="m477.39,256.02c0,53.22-45.56,96.5-101.55,96.5s-101.55-43.29-101.55-96.5h-1.77c0,54.14,46.35,98.18,103.31,98.18s103.32-44.04,103.32-98.18-46.35-98.19-103.32-98.19v1.68c56,0,101.55,43.3,101.55,96.51Z"/>
    <path class="cls-2" d="m387.48,177.89l-.44,2.93c-3.68-.48-7.45-.74-11.21-.74v15.26c35.21,0,63.86,27.23,63.86,60.69s-28.65,60.69-63.86,60.69-63.85-27.22-63.85-60.69h-35.23c0,51.93,44.45,94.16,99.09,94.16s99.09-42.24,99.09-94.16-44.46-94.17-99.09-94.17v15.27c3.9,0,7.82.26,11.64.76Zm-94.67,78.21h3.11c0,3.62.28,7.25.82,10.8l-3.08.42c-.56-3.69-.84-7.47-.84-11.22Zm7.51,32.76c-1.64-3.4-3.03-6.95-4.15-10.54l2.98-.84c1.07,3.46,2.41,6.87,4,10.14l-2.83,1.23Zm12.79,18.86c-2.57-2.82-4.97-5.85-7.1-9l2.62-1.6c2.05,3.04,4.36,5.95,6.84,8.67l-2.35,1.94Zm17.86,14.7c-3.31-2.02-6.49-4.29-9.48-6.74l2.03-2.23c2.88,2.37,5.95,4.55,9.12,6.5l-1.68,2.48Zm21.49,9.34c-3.79-1.05-7.53-2.38-11.1-3.94l1.3-2.68c3.44,1.5,7.03,2.77,10.69,3.79l-.88,2.83Zm23.38,3.18c-3.96,0-7.93-.27-11.81-.8l.44-2.93c3.73.5,7.56.77,11.37.77l.34,2.96h-.34Zm12.14-.85l-.44-2.92c3.74-.52,7.48-1.3,11.12-2.33l.89,2.84c-3.79,1.07-7.68,1.88-11.57,2.42Zm22.65-6.4l-1.3-2.68c3.42-1.51,6.78-3.27,9.97-5.23l1.7,2.48c-3.31,2.03-6.8,3.87-10.36,5.43Zm19.8-12.21l-2.05-2.23c2.85-2.36,5.55-4.94,8.03-7.69l2.36,1.93c-2.58,2.85-5.39,5.54-8.34,7.99Zm25.17-37.47l-2.99-.82c1.05-3.46,1.86-7.02,2.38-10.59l3.07.41c-.54,3.7-1.37,7.41-2.47,11Zm3.27-22.23h-3.12c0-3.61-.29-7.23-.84-10.79l3.09-.43c.56,3.69.85,7.46.87,11.21Zm-7.58-32.74c1.65,3.4,3.05,6.94,4.17,10.53l-2.99.84c-1.07-3.45-2.42-6.86-4.01-10.13l2.82-1.24Zm-2.62,64.31l2.83,1.22c-1.63,3.41-3.53,6.74-5.66,9.89l-2.62-1.59c2.04-3.03,3.87-6.24,5.44-9.52Zm-10.21-83.15c2.59,2.83,4.99,5.85,7.12,8.98l-2.61,1.61c-2.05-3.01-4.36-5.93-6.85-8.64l2.34-1.95Zm-17.89-14.66c3.31,2.01,6.51,4.28,9.49,6.72l-2.03,2.24c-2.88-2.36-5.95-4.53-9.14-6.47l1.68-2.49Zm-21.52-9.3c3.8,1.04,7.54,2.37,11.11,3.91l-1.29,2.7c-3.43-1.49-7.03-2.76-10.69-3.77l.87-2.84Z"/>
    <path class="cls-1" d="m306,298.72c2.13,3.16,4.53,6.18,7.1,9l2.35-1.94c-2.48-2.71-4.78-5.63-6.84-8.67l-2.62,1.6Z"/>
    <path class="cls-1" d="m296.16,278.32c1.12,3.59,2.51,7.14,4.15,10.54l2.83-1.23c-1.58-3.27-2.92-6.69-4-10.14l-2.98.84Z"/>
    <path class="cls-1" d="m295.91,255.5h-3.11c0,3.75.29,8.13.84,11.83l3.08-.42c-.53-3.55-.81-7.79-.82-11.41Z"/>
    <path class="cls-1" d="m387.48,177.89c-3.82-.5-7.74-.76-11.64-.76v2.95c3.76,0,7.53.25,11.21.74l.44-2.93Z"/>
    <path class="cls-1" d="m410.16,184.15c-3.57-1.54-7.31-2.86-11.11-3.91l-.87,2.84c3.65,1.01,7.25,2.28,10.69,3.77l1.29-2.7Z"/>
    <polygon class="cls-1" points="375.67 177.12 375.83 180.08 375.83 177.12 375.67 177.12"/>
    <path class="cls-1" d="m321.48,315.67c2.99,2.46,6.17,4.73,9.48,6.74l1.68-2.48c-3.17-1.95-6.25-4.13-9.12-6.5l-2.03,2.23Z"/>
    <path class="cls-1" d="m364.46,331.2l-.44,2.93c3.87.53,7.85.8,11.81.8h.34l-.34-2.96c-3.81,0-7.64-.26-11.37-.77Z"/>
    <path class="cls-1" d="m341.35,327.81c3.57,1.56,7.31,2.89,11.1,3.94l.88-2.83c-3.65-1.02-7.24-2.29-10.69-3.79l-1.3,2.68Z"/>
    <path class="cls-1" d="m409.32,325l1.3,2.68c3.56-1.56,7.05-3.4,10.36-5.43l-1.7-2.48c-3.19,1.97-6.54,3.73-9.97,5.23Z"/>
    <path class="cls-1" d="m387.53,331.16l.44,2.92c3.89-.54,7.78-1.35,11.57-2.42l-.89-2.84c-3.64,1.03-7.38,1.81-11.12,2.33Z"/>
  </g>
  <g>
    <rect class="cls-1" x="65.6" y="190.27" width="30.85" height="3.33"/>
    <rect class="cls-2" x="65.6" y="186.93" width="30.85" height="3.33"/>
    <rect class="cls-1" x="65.6" y="183.61" width="30.85" height="3.33"/>
    <rect class="cls-2" x="65.6" y="180.27" width="30.85" height="3.34"/>
    <rect class="cls-2" x="60.22" y="175.27" width="40.78" height="6.67"/>
    <rect class="cls-1" x="65.6" y="176.93" width="30.85" height="3.33"/>
    <rect class="cls-2" x="65.6" y="173.6" width="30.85" height="3.34"/>
    <rect class="cls-1" x="65.6" y="170.27" width="30.85" height="3.33"/>
    <rect class="cls-2" x="65.6" y="166.93" width="30.85" height="3.34"/>
    <rect class="cls-1" x="65.6" y="163.6" width="30.85" height="3.34"/>
  </g>
</svg>