<?xml version="1.0" encoding="UTF-8"?>
<svg id="Layer_1" data-name="Layer 1" xmlns="http://www.w3.org/2000/svg" viewBox="0 0 372.42 475.8">
  <defs>
    <style>
      .cls-1 {
        fill: #fff;
      }

      .cls-2 {
        fill: #231f20;
      }
    </style>
  </defs>
  <g>
    <path class="cls-1" d="m333.98,130.76v345.04h-2.26V130.76c0-44.49-29.42-80.68-65.58-80.68H0v-2.78h266.15c37.4,0,67.83,37.44,67.83,83.47Z"/>
    <path class="cls-1" d="m370.16,130.76v345.04h-2.27V130.76c0-69.04-45.65-125.2-101.75-125.2H0v-2.78h266.15c57.36,0,104.02,57.41,104.02,127.98Z"/>
    <path class="cls-2" d="m329.46,130.76c0-42.96-28.4-77.9-63.31-77.9H0v-2.78h266.15c36.16,0,65.58,36.2,65.58,80.68v345.04h-2.26V130.76Z"/>
    <path class="cls-2" d="m370.16,130.76c0-70.57-46.66-127.98-104.02-127.98H0V0h266.15c58.6,0,106.28,58.66,106.28,130.76v345.04h-2.26V130.76Z"/>
    <path class="cls-2" d="m333.98,475.8h33.92V130.76c0-69.04-45.65-125.2-101.75-125.2H0v19.48h208.69v2.78H0v19.47h266.15c37.4,0,67.83,37.44,67.83,83.47v345.04ZM225.64,27.82h-8.48v-2.78h8.48v2.78Zm16.96,0h-8.48v-2.78h8.48v2.78Zm16.96,0h-8.48v-2.78h8.48v2.78Zm17.06-1.99l-.27,2.76c-2.75-.42-5.55-.66-8.34-.75l.05-2.78c2.86.08,5.74.34,8.56.77Zm16.73,4.67l-.72,2.64c-2.64-1.09-5.34-2.03-8.05-2.78l.5-2.71c2.78.77,5.56,1.74,8.27,2.86Zm15.62,8.7l-1.13,2.41c-2.4-1.71-4.91-3.3-7.44-4.71l.93-2.53c2.6,1.45,5.17,3.07,7.64,4.83Zm13.91,12.34l-1.5,2.08c-2.08-2.26-4.27-4.42-6.54-6.42l1.33-2.26c2.31,2.06,4.57,4.28,6.7,6.6Zm11.68,15.46l-1.8,1.68c-1.68-2.72-3.49-5.37-5.38-7.88l1.65-1.89c1.95,2.57,3.81,5.29,5.53,8.08Zm15.24,131.78h2.26v276.93h-2.26V198.78Zm0-20.87h2.26v10.44h-2.26v-10.44Zm0-20.87h2.26v10.44h-2.26v-10.44Zm0-20.86h2.26v10.43h-2.26v-10.43Zm-.91-20.6l2.24-.41c.42,3.47.7,7.01.84,10.51l-2.26.14c-.13-3.42-.41-6.86-.81-10.24Zm-4.13-19.91l2.13-.95c.98,3.29,1.83,6.68,2.53,10.09l-2.19.69c-.69-3.32-1.51-6.62-2.47-9.83Zm-7.27-18.5l1.93-1.46c1.49,2.99,2.88,6.11,4.12,9.27l-2.04,1.21c-1.21-3.08-2.56-6.11-4.01-9.02Z"/>
    <path class="cls-1" d="m351.97,125.69l-2.26.14c-.13-3.42-.41-6.86-.81-10.24l2.24-.41c.42,3.47.7,7.01.84,10.51Z"/>
    <path class="cls-1" d="m349.43,104.81l-2.19.69c-.69-3.32-1.51-6.62-2.47-9.83l2.13-.95c.98,3.29,1.83,6.68,2.53,10.09Z"/>
    <path class="cls-1" d="m343.55,84.99l-2.04,1.21c-1.21-3.08-2.56-6.11-4.01-9.02l1.93-1.46c1.49,2.99,2.88,6.11,4.12,9.27Z"/>
    <rect class="cls-1" x="251.08" y="25.04" width="8.48" height="2.78"/>
    <rect class="cls-1" x="349.81" y="136.19" width="2.26" height="10.43"/>
    <path class="cls-1" d="m268.02,27.84l.05-2.78c2.86.08,5.74.34,8.56.77l-.27,2.76c-2.75-.42-5.55-.66-8.34-.75Z"/>
    <rect class="cls-1" y="25.04" width="208.69" height="2.78"/>
    <rect class="cls-1" x="217.17" y="25.04" width="8.48" height="2.78"/>
    <path class="cls-1" d="m284.59,30.36l.5-2.71c2.78.77,5.56,1.74,8.27,2.86l-.72,2.64c-2.64-1.09-5.34-2.03-8.05-2.78Z"/>
    <rect class="cls-1" x="234.13" y="25.04" width="8.48" height="2.78"/>
    <rect class="cls-1" x="349.81" y="177.91" width="2.26" height="10.44"/>
    <rect class="cls-1" x="349.81" y="157.04" width="2.26" height="10.44"/>
    <rect class="cls-1" x="349.81" y="198.78" width="2.26" height="276.93"/>
    <path class="cls-1" d="m314.86,47.21l1.33-2.26c2.31,2.06,4.57,4.28,6.7,6.6l-1.5,2.08c-2.08-2.26-4.27-4.42-6.54-6.42Z"/>
    <path class="cls-1" d="m300.42,36.91l.93-2.53c2.6,1.45,5.17,3.07,7.64,4.83l-1.13,2.41c-2.4-1.71-4.91-3.3-7.44-4.71Z"/>
    <path class="cls-1" d="m327.39,60.81l1.65-1.89c1.95,2.57,3.81,5.29,5.53,8.08l-1.8,1.68c-1.68-2.72-3.49-5.37-5.38-7.88Z"/>
  </g>
  <g>
    <rect class="cls-1" x="331.72" y="393.75" width="2.26" height="28.46"/>
    <rect class="cls-2" x="333.98" y="393.75" width="2.26" height="28.46"/>
    <rect class="cls-1" x="336.25" y="393.75" width="2.26" height="28.46"/>
    <rect class="cls-2" x="338.5" y="393.75" width="2.27" height="28.46"/>
    <rect class="cls-1" x="340.77" y="393.75" width="2.26" height="28.46"/>
    <rect class="cls-2" x="343.03" y="393.75" width="2.27" height="28.46"/>
    <rect class="cls-1" x="345.29" y="393.75" width="2.25" height="28.46"/>
    <rect class="cls-2" x="347.55" y="393.75" width="2.26" height="28.46"/>
    <rect class="cls-2" x="348.68" y="383.25" width="4.52" height="46.21"/>
    <rect class="cls-1" x="349.81" y="393.75" width="2.26" height="28.46"/>
    <rect class="cls-2" x="352.07" y="393.75" width="2.27" height="28.46"/>
    <rect class="cls-1" x="354.34" y="393.75" width="2.25" height="28.46"/>
    <rect class="cls-2" x="356.59" y="393.75" width="2.28" height="28.46"/>
    <rect class="cls-1" x="358.86" y="393.75" width="2.25" height="28.46"/>
    <rect class="cls-2" x="361.12" y="393.75" width="2.27" height="28.46"/>
    <rect class="cls-1" x="363.38" y="393.75" width="2.26" height="28.46"/>
    <rect class="cls-2" x="365.64" y="393.75" width="2.26" height="28.46"/>
    <rect class="cls-1" x="367.9" y="393.75" width="2.26" height="28.46"/>
  </g>
</svg>