<?xml version="1.0" encoding="UTF-8"?>
<svg id="Layer_1" data-name="Layer 1" xmlns="http://www.w3.org/2000/svg" viewBox="0 0 332.92 639.07">
  <defs>
    <style>
      .cls-1 {
        fill: #fff;
      }

      .cls-2 {
        fill: #231f20;
      }
    </style>
  </defs>
  <path class="cls-1" d="m257.69,208v431.07h-4.43V208c0-70.77-57.57-128.34-128.33-128.34H0v-4.42h124.93c73.21,0,132.76,59.56,132.76,132.77Z"/>
  <path class="cls-1" d="m328.49,208v431.07h-4.42V208c0-109.8-89.33-199.14-199.14-199.14H0v-4.42h124.93c112.25,0,203.56,91.32,203.56,203.56Z"/>
  <path class="cls-2" d="m248.84,208c0-68.33-55.59-123.92-123.91-123.92H0v-4.42h124.93c70.77,0,128.33,57.58,128.33,128.34v431.07h-4.42V208Z"/>
  <path class="cls-2" d="m328.49,208C328.49,95.75,237.17,4.43,124.93,4.43H0V0h124.93c114.69,0,207.99,93.31,207.99,208v431.07h-4.42V208Z"/>
  <path class="cls-2" d="m257.69,639.07h66.38V208c0-109.8-89.33-199.14-199.14-199.14H0v30.98h12.47v4.42H0v30.97h124.93c73.21,0,132.76,59.56,132.76,132.77v431.07ZM45.67,44.26h-16.6v-4.42h16.6v4.42Zm33.18,0h-16.59v-4.42h16.59v4.42Zm33.2,0h-16.6v-4.42h16.6v4.42Zm33.39-3.17l-.54,4.39c-5.38-.66-10.86-1.06-16.31-1.18l.1-4.43c5.6.13,11.24.54,16.76,1.22Zm32.73,7.43l-1.41,4.19c-5.17-1.74-10.47-3.23-15.75-4.42l.99-4.31c5.44,1.23,10.87,2.76,16.17,4.54Zm30.58,13.84l-2.21,3.83c-4.7-2.73-9.6-5.24-14.55-7.49l1.83-4.03c5.08,2.3,10.11,4.89,14.94,7.69Zm27.24,19.62l-2.93,3.32c-4.07-3.59-8.36-7.02-12.78-10.22l2.59-3.59c4.54,3.28,8.96,6.81,13.12,10.48Zm22.85,24.59l-3.53,2.68c-3.28-4.33-6.83-8.54-10.54-12.52l3.24-3.02c3.81,4.09,7.45,8.42,10.83,12.85Zm29.82,209.61h4.43v322.74h-4.43v-322.74Zm0-33.19h4.43v16.59h-4.43v-16.59Zm0-33.19h4.43v16.6h-4.43v-16.6Zm0-33.19h4.43v16.6h-4.43v-16.6Zm-1.79-32.76l4.38-.65c.82,5.52,1.38,11.14,1.65,16.72l-4.42.22c-.26-5.43-.79-10.92-1.6-16.28Zm-8.06-31.66l4.15-1.52c1.92,5.23,3.59,10.64,4.97,16.06l-4.28,1.08c-1.35-5.27-2.98-10.53-4.84-15.62Zm-14.25-29.42l3.77-2.32c2.93,4.75,5.64,9.7,8.06,14.73l-3.98,1.94c-2.37-4.9-5-9.73-7.85-14.35Z"/>
  <path class="cls-1" d="m292.91,199.92l-4.42.22c-.26-5.43-.79-10.92-1.6-16.28l4.38-.65c.82,5.52,1.38,11.14,1.65,16.72Z"/>
  <path class="cls-1" d="m287.94,166.73l-4.28,1.08c-1.35-5.27-2.98-10.53-4.84-15.62l4.15-1.52c1.92,5.23,3.59,10.64,4.97,16.06Z"/>
  <path class="cls-1" d="m276.41,135.19l-3.98,1.94c-2.37-4.9-5-9.73-7.85-14.35l3.77-2.32c2.93,4.75,5.64,9.7,8.06,14.73Z"/>
  <rect class="cls-1" x="95.45" y="39.84" width="16.6" height="4.42"/>
  <rect class="cls-1" x="288.67" y="216.61" width="4.43" height="16.6"/>
  <path class="cls-1" d="m128.59,44.3l.1-4.43c5.6.13,11.24.54,16.76,1.22l-.54,4.39c-5.38-.66-10.86-1.06-16.31-1.18Z"/>
  <rect class="cls-1" y="39.84" width="12.47" height="4.42"/>
  <rect class="cls-1" x="29.07" y="39.84" width="16.6" height="4.42"/>
  <path class="cls-1" d="m161.02,48.29l.99-4.31c5.44,1.23,10.87,2.76,16.17,4.54l-1.41,4.19c-5.17-1.74-10.47-3.23-15.75-4.42Z"/>
  <rect class="cls-1" x="62.26" y="39.84" width="16.59" height="4.42"/>
  <rect class="cls-1" x="288.67" y="282.99" width="4.43" height="16.59"/>
  <rect class="cls-1" x="288.67" y="249.8" width="4.43" height="16.6"/>
  <rect class="cls-1" x="288.67" y="316.18" width="4.43" height="322.74"/>
  <path class="cls-1" d="m220.28,75.09l2.59-3.59c4.54,3.28,8.96,6.81,13.12,10.48l-2.93,3.32c-4.07-3.59-8.36-7.02-12.78-10.22Z"/>
  <path class="cls-1" d="m192,58.7l1.83-4.03c5.08,2.3,10.11,4.89,14.94,7.69l-2.21,3.83c-4.7-2.73-9.6-5.24-14.55-7.49Z"/>
  <path class="cls-1" d="m244.78,96.74l3.24-3.02c3.81,4.09,7.45,8.42,10.83,12.85l-3.53,2.68c-3.28-4.33-6.83-8.54-10.54-12.52Z"/>
</svg>