<?xml version="1.0" encoding="UTF-8"?>
<svg id="Layer_1" data-name="Layer 1" xmlns="http://www.w3.org/2000/svg" viewBox="0 0 254.53 676.05">
  <defs>
    <style>
      .cls-1 {
        fill: #fff;
      }

      .cls-2 {
        fill: #231f20;
      }
    </style>
  </defs>
  <path class="cls-2" d="m151.24,523.08h-4.33c0-155.56-65.9-282.09-146.9-282.09v-8.32c83.39,0,151.24,130.25,151.24,290.42Z"/>
  <path class="cls-2" d="m250.18,523.08C250.18,258.16,137.94,42.62,0,42.62v-8.34c140.34,0,254.53,219.3,254.53,488.79h-4.35Z"/>
  <rect class="cls-2" x="146.91" y="0" width="107.62" height="676.05"/>
  <path class="cls-1" d="m0,54.28v-11.65c137.94,0,250.18,215.53,250.18,480.45h-6.06C244.12,264.6,134.59,54.28,0,54.28Z"/>
  <rect class="cls-1" x="151.25" y="0" width="98.93" height="676.05"/>
  <rect class="cls-2" x="157.34" y="0" width="86.76" height="676.05"/>
  <path class="cls-1" d="m0,232.66v-11.69c86.74,0,157.3,135.5,157.32,302.1h-6.09C151.24,362.92,83.39,232.66,0,232.66Z"/>
  <path class="cls-2" d="m244.12,523.08h-86.8C157.3,356.48,86.74,220.98,0,220.98V54.28c134.59,0,244.12,210.32,244.12,468.8Z"/>
  <path class="cls-1" d="m29.51,134.36l-1.09,14.54c9.22,2.56,18.43,6.42,27.41,11.53l2.18-14.1c-9.34-5.28-18.93-9.3-28.5-11.96Z"/>
  <path class="cls-1" d="m85.32,165.99l-3.19,13.36c8.46,7.44,16.72,16.18,24.59,25.93l4.17-12.35c-8.19-10.14-16.79-19.22-25.57-26.95Z"/>
  <path class="cls-1" d="m134.19,226.56l-5.04,11.12c7.06,11.8,13.72,24.63,19.84,38.18l5.77-9.62c-6.33-14.07-13.26-27.43-20.57-39.68Z"/>
  <path class="cls-1" d="m165.8,319.07c5.06,15.07,9.56,30.97,13.46,47.32l6.96-6.08c-4.02-17.01-8.73-33.55-13.98-49.22l-6.44,7.98Z"/>
  <g>
    <rect class="cls-1" x="196.87" y="0" width="7.66" height="27.61"/>
    <path class="cls-1" d="m196.87,551.44h7.66v58.21h-7.66v-58.21Zm0-97h7.66v58.19h-7.66v-58.19Zm0-97.03h7.66v58.22h-7.66v-58.22Zm0-97h7.66v58.21h-7.66v-58.21Zm0-97h7.66v58.17h-7.66v-58.17Zm0-97.01h7.66v58.22h-7.66v-58.22Z"/>
    <rect class="cls-1" x="196.87" y="648.44" width="7.66" height="27.61"/>
  </g>
</svg>