<?xml version="1.0" encoding="UTF-8"?>
<svg id="Layer_1" data-name="Layer 1" xmlns="http://www.w3.org/2000/svg" viewBox="0 0 399.98 535.53">
  <defs>
    <style>
      .cls-1 {
        fill: #fff;
      }

      .cls-2 {
        fill: #231f20;
      }
    </style>
  </defs>
  <g>
    <path class="cls-2" d="m277.87,264.72h3.5c.01-55.91,53.22-101.38,118.61-101.38v-3c-67.32,0-122.1,46.82-122.11,104.38Z"/>
    <path class="cls-2" d="m197.99,264.72c0-95.21,90.61-172.66,201.99-172.66v-2.99c-113.31,0-205.49,78.79-205.49,175.65h3.5Z"/>
    <rect class="cls-2" x="194.49" y="0" width="86.89" height="535.53"/>
    <path class="cls-1" d="m399.98,96.25v-4.2c-111.38,0-201.99,77.45-201.99,172.66h4.89c0-92.9,88.44-168.47,197.1-168.47Z"/>
    <rect class="cls-1" x="197.99" y="0" width="79.88" height="535.53"/>
    <rect class="cls-2" x="202.92" y="0" width="70.05" height="535.53"/>
    <path class="cls-1" d="m399.98,160.33v-4.19c-70.03,0-127.01,48.7-127.01,108.57h4.9c0-57.56,54.79-104.38,122.11-104.38Z"/>
    <path class="cls-2" d="m202.88,264.72h70.09c0-59.87,56.99-108.57,127.01-108.57v-59.9c-108.67,0-197.1,75.57-197.1,168.47Z"/>
    <path class="cls-1" d="m376.16,125.02l.89,5.23c-7.44.9-14.89,2.3-22.13,4.13l-1.75-5.06c7.52-1.9,15.27-3.35,23-4.3Z"/>
    <path class="cls-1" d="m331.09,136.39l2.58,4.8c-6.83,2.68-13.5,5.82-19.85,9.32l-3.37-4.44c6.61-3.65,13.54-6.91,20.63-9.68Z"/>
    <path class="cls-1" d="m291.65,158.16l4.05,3.99c-5.68,4.24-11.08,8.85-16,13.71l-4.67-3.44c5.11-5.06,10.71-9.86,16.62-14.26Z"/>
    <path class="cls-1" d="m266.11,191.41c-4.07,5.4-7.71,11.12-10.87,17l-5.62-2.19c3.25-6.11,7.05-12.05,11.29-17.68l5.19,2.88Z"/>
    <g>
      <rect class="cls-1" x="234.85" y="0" width="6.19" height="86.66"/>
      <path class="cls-1" d="m241.04,295.82h-6.19v-20.93h6.19v20.93Zm0-34.86h-6.19v-20.91h6.19v20.91Zm0-34.85h-6.19v-20.93h6.19v20.93Zm0-34.86h-6.19v-20.91h6.19v20.91Zm0-34.85h-6.19v-20.93h6.19v20.93Zm0-34.88h-6.19v-20.91h6.19v20.91Z"/>
      <rect class="cls-1" x="234.85" y="309.76" width="6.19" height="225.77"/>
    </g>
  </g>
  <g>
    <path class="cls-2" d="m122.1,264.72h-3.51c0-55.91-53.21-101.38-118.6-101.38v-3c67.32,0,122.1,46.82,122.1,104.38Z"/>
    <path class="cls-2" d="m201.99,264.72C201.99,169.51,111.37,92.05,0,92.05v-2.99c113.3,0,205.49,78.79,205.49,175.65h-3.5Z"/>
    <rect class="cls-2" x="118.61" y="0" width="86.89" height="535.53"/>
    <path class="cls-1" d="m0,96.25v-4.2c111.37,0,201.99,77.45,201.99,172.66h-4.9C197.1,171.82,108.67,96.25,0,96.25Z"/>
    <rect class="cls-1" x="122.11" y="0" width="79.88" height="535.53"/>
    <rect class="cls-2" x="127.02" y="0" width="70.05" height="535.53"/>
    <path class="cls-1" d="m0,160.33v-4.19c70.03,0,127.01,48.7,127.01,108.57h-4.91c0-57.56-54.78-104.38-122.1-104.38Z"/>
    <path class="cls-2" d="m197.1,264.72h-70.08c0-59.87-56.99-108.57-127.01-108.57v-59.9c108.67,0,197.1,75.57,197.1,168.47Z"/>
    <path class="cls-1" d="m23.82,125.02l-.87,5.23c7.44.9,14.88,2.3,22.11,4.13l1.77-5.06c-7.53-1.9-15.28-3.35-23.01-4.3Z"/>
    <path class="cls-1" d="m68.89,136.39l-2.59,4.8c6.83,2.68,13.5,5.82,19.86,9.32l3.36-4.44c-6.61-3.65-13.54-6.91-20.63-9.68Z"/>
    <path class="cls-1" d="m108.33,158.16l-4.07,3.99c5.7,4.24,11.08,8.85,16.02,13.71l4.67-3.44c-5.12-5.06-10.71-9.86-16.62-14.26Z"/>
    <path class="cls-1" d="m133.86,191.41c4.08,5.4,7.72,11.12,10.87,17l5.63-2.19c-3.26-6.11-7.05-12.05-11.29-17.68l-5.21,2.88Z"/>
    <g>
      <rect class="cls-1" x="158.94" y="0" width="6.19" height="86.66"/>
      <path class="cls-1" d="m158.94,274.89h6.19v20.93h-6.19v-20.93Zm0-34.85h6.19v20.91h-6.19v-20.91Zm0-34.87h6.19v20.93h-6.19v-20.93Zm0-34.84h6.19v20.91h-6.19v-20.91Zm0-34.87h6.19v20.93h-6.19v-20.93Zm0-34.85h6.19v20.91h-6.19v-20.91Z"/>
      <rect class="cls-1" x="158.94" y="309.76" width="6.19" height="225.77"/>
    </g>
  </g>
</svg>