<?xml version="1.0" encoding="UTF-8"?>
<svg id="Layer_1" data-name="Layer 1" xmlns="http://www.w3.org/2000/svg" viewBox="0 0 321.06 379.37">
  <defs>
    <style>
      .cls-1 {
        fill: #fff;
      }

      .cls-2 {
        fill: #231f20;
      }
    </style>
  </defs>
  <rect class="cls-2" x="94.6" width="69.3" height="217.75"/>
  <rect class="cls-1" x="97.4" width="63.7" height="217.75"/>
  <rect class="cls-2" x="101.31" width="55.85" height="221"/>
  <g>
    <rect class="cls-1" x="126.76" y="211.75" width="4.95" height="9.25"/>
    <path class="cls-1" d="m131.71,199.08h-4.95v-18.97h4.95v18.97Zm0-31.63h-4.95v-18.99h4.95v18.99Zm0-31.65h-4.95v-18.97h4.95v18.97Zm0-31.63h-4.95v-18.98h4.95v18.98Zm0-31.63h-4.95v-18.99h4.95v18.99Zm0-31.65h-4.95v-18.98h4.95v18.98Z"/>
    <rect class="cls-1" x="126.76" width="4.95" height="9.26"/>
  </g>
  <path class="cls-1" d="m0,312.87v3.91c55.85,0,101.3-45.45,101.3-101.31h-3.92c0,53.71-43.69,97.41-97.38,97.41Z"/>
  <path class="cls-1" d="m0,372.66v3.91c88.83,0,161.1-72.26,161.1-161.11h-3.89c-.02,86.68-70.53,157.2-157.2,157.2Z"/>
  <path class="cls-2" d="m97.38,215.46h-2.79c0,52.16-42.44,94.61-94.59,94.61v2.8c53.7,0,97.38-43.69,97.38-97.41Z"/>
  <path class="cls-2" d="m161.1,215.46c0,88.84-72.27,161.11-161.1,161.11v2.8c90.36,0,163.88-73.52,163.9-163.91h-2.8Z"/>
  <path class="cls-2" d="m157.2,215.46h-55.91c0,55.87-45.45,101.31-101.3,101.31v55.88c86.67,0,157.18-70.51,157.2-157.2Z"/>
  <path class="cls-1" d="m18.99,345.82l-.7-4.89c5.94-.85,11.88-2.15,17.66-3.87l1.4,4.74c-6.01,1.77-12.17,3.12-18.36,4.02Z"/>
  <path class="cls-1" d="m54.93,335.21l-2.06-4.49c5.45-2.49,10.77-5.42,15.83-8.7l2.68,4.15c-5.26,3.41-10.79,6.45-16.45,9.04Z"/>
  <path class="cls-1" d="m125.53,233.38l4.9.68c-.88,6.19-2.21,12.37-3.97,18.36l-4.74-1.38c1.69-5.76,2.96-11.71,3.81-17.66Z"/>
  <path class="cls-1" d="m86.4,314.89l-3.25-3.72c4.54-3.96,8.85-8.27,12.77-12.81l3.74,3.23c-4.09,4.7-8.54,9.19-13.26,13.3Z"/>
  <path class="cls-1" d="m106.76,283.87c3.25-5.05,6.17-10.39,8.66-15.86l4.49,2.05c-2.58,5.69-5.63,11.23-9,16.49l-4.16-2.67Z"/>
  <rect class="cls-2" x="157.17" width="69.3" height="217.75"/>
  <rect class="cls-1" x="159.97" width="63.71" height="217.75"/>
  <rect class="cls-2" x="163.9" width="55.87" height="221"/>
  <g>
    <rect class="cls-1" x="189.37" y="211.75" width="4.93" height="9.25"/>
    <path class="cls-1" d="m189.37,180.11h4.93v18.97h-4.93v-18.97Zm0-31.65h4.93v18.99h-4.93v-18.99Zm0-31.63h4.93v18.97h-4.93v-18.97Zm0-31.64h4.93v18.98h-4.93v-18.98Zm0-31.64h4.93v18.99h-4.93v-18.99Zm0-31.64h4.93v18.98h-4.93v-18.98Z"/>
    <rect class="cls-1" x="189.37" width="4.93" height="9.26"/>
  </g>
  <path class="cls-1" d="m321.06,312.87v3.91c-55.85,0-101.3-45.45-101.3-101.31h3.92c0,53.71,43.68,97.41,97.38,97.41Z"/>
  <path class="cls-1" d="m321.06,372.66v3.91c-88.83,0-161.1-72.26-161.1-161.11h3.9c0,86.68,70.53,157.2,157.2,157.2Z"/>
  <path class="cls-2" d="m223.69,215.46h2.79c0,52.16,42.43,94.61,94.58,94.61v2.8c-53.7,0-97.38-43.69-97.38-97.41Z"/>
  <path class="cls-2" d="m159.97,215.46c0,88.84,72.27,161.11,161.1,161.11v2.8c-90.37,0-163.9-73.52-163.9-163.91h2.8Z"/>
  <path class="cls-2" d="m163.87,215.46h55.9c0,55.87,45.45,101.31,101.3,101.31v55.88c-86.67,0-157.19-70.51-157.2-157.2Z"/>
  <path class="cls-1" d="m302.06,345.82l.71-4.89c-5.93-.85-11.88-2.15-17.65-3.87l-1.4,4.74c6.01,1.77,12.17,3.12,18.34,4.02Z"/>
  <path class="cls-1" d="m266.14,335.21l2.04-4.49c-5.44-2.49-10.77-5.42-15.83-8.7l-2.69,4.15c5.27,3.41,10.81,6.45,16.47,9.04Z"/>
  <path class="cls-1" d="m195.54,233.38l-4.88.68c.88,6.19,2.19,12.37,3.95,18.36l4.74-1.38c-1.68-5.76-2.96-11.71-3.81-17.66Z"/>
  <path class="cls-1" d="m234.66,314.89l3.24-3.72c-4.54-3.96-8.83-8.27-12.77-12.81l-3.72,3.23c4.08,4.7,8.54,9.19,13.25,13.3Z"/>
  <path class="cls-1" d="m214.3,283.87c-3.24-5.05-6.16-10.39-8.66-15.86l-4.48,2.05c2.58,5.69,5.62,11.23,9,16.49l4.14-2.67Z"/>
</svg>