<?xml version="1.0" encoding="UTF-8"?>
<svg id="Layer_1" data-name="Layer 1" xmlns="http://www.w3.org/2000/svg" viewBox="0 0 277.69 581.07">
  <defs>
    <style>
      .cls-1 {
        fill: #fff;
      }

      .cls-2 {
        fill: #fcee23;
      }

      .cls-3 {
        fill: #ee3324;
      }

      .cls-4 {
        fill: #767676;
      }

      .cls-5 {
        fill: #231f20;
      }
    </style>
  </defs>
  <g>
    <g>
      <rect class="cls-5" x="24.26" width="15.01" height="80.25"/>
      <rect class="cls-5" x="238.49" width="14.99" height="80.25"/>
    </g>
    <g>
      <g>
        <rect class="cls-1" x="2.07" y="25.34" width="273.57" height="29.56"/>
        <path class="cls-4" d="m2.07,54.89v-29.56h273.57v29.56H2.07M0,56.45h277.69V23.78H0v32.67H0Z"/>
      </g>
      <polygon class="cls-3" points="12.61 54.89 38.98 25.34 28.41 25.34 2.07 54.89 12.61 54.89"/>
      <polygon class="cls-3" points="42.18 54.89 68.52 25.34 58.01 25.34 31.65 54.89 42.18 54.89"/>
      <polygon class="cls-3" points="71.73 54.89 98.06 25.34 87.54 25.34 61.21 54.89 71.73 54.89"/>
      <polygon class="cls-3" points="101.3 54.89 127.65 25.34 117.1 25.34 90.74 54.89 101.3 54.89"/>
      <polygon class="cls-3" points="130.84 54.89 157.2 25.34 146.66 25.34 120.33 54.89 130.84 54.89"/>
      <polygon class="cls-3" points="160.45 54.89 186.77 25.34 176.22 25.34 149.87 54.89 160.45 54.89"/>
      <polygon class="cls-3" points="189.98 54.89 216.31 25.34 205.8 25.34 179.46 54.89 189.98 54.89"/>
      <polygon class="cls-3" points="219.55 54.89 245.91 25.34 235.33 25.34 209.01 54.89 219.55 54.89"/>
      <polygon class="cls-3" points="249.09 54.89 275.43 25.34 264.92 25.34 238.55 54.89 249.09 54.89"/>
    </g>
  </g>
  <g>
    <g>
      <rect class="cls-5" x="24.26" y="136.86" width="15.01" height="80.24"/>
      <rect class="cls-5" x="238.49" y="136.86" width="14.99" height="80.24"/>
    </g>
    <g>
      <g>
        <rect class="cls-2" x="2.07" y="162.19" width="273.57" height="29.56"/>
        <path class="cls-4" d="m2.07,191.74v-29.56h273.57v29.56H2.07m-2.07,1.57h277.69v-32.67H0v32.67h0Z"/>
      </g>
      <polygon class="cls-3" points="12.61 191.74 38.97 162.19 28.41 162.19 2.07 191.74 12.61 191.74"/>
      <polygon class="cls-3" points="42.17 191.74 68.51 162.19 58.01 162.19 31.65 191.74 42.17 191.74"/>
      <polygon class="cls-3" points="71.72 191.74 98.06 162.19 87.54 162.19 61.21 191.74 71.72 191.74"/>
      <polygon class="cls-3" points="101.3 191.74 127.65 162.19 117.1 162.19 90.74 191.74 101.3 191.74"/>
      <polygon class="cls-3" points="130.84 191.74 157.2 162.19 146.66 162.19 120.33 191.74 130.84 191.74"/>
      <polygon class="cls-3" points="160.44 191.74 186.77 162.19 176.22 162.19 149.86 191.74 160.44 191.74"/>
      <polygon class="cls-3" points="189.97 191.74 216.31 162.19 205.8 162.19 179.46 191.74 189.97 191.74"/>
      <polygon class="cls-3" points="219.55 191.74 245.9 162.19 235.33 162.19 209.01 191.74 219.55 191.74"/>
      <polygon class="cls-3" points="249.09 191.74 275.43 162.19 264.91 162.19 238.55 191.74 249.09 191.74"/>
    </g>
  </g>
  <g>
    <g>
      <rect class="cls-5" x="24.26" y="500.83" width="15.01" height="80.24"/>
      <rect class="cls-5" x="238.49" y="500.83" width="14.99" height="80.24"/>
    </g>
    <g>
      <g>
        <rect class="cls-2" x="2.07" y="526.16" width="273.57" height="29.56"/>
        <path class="cls-4" d="m2.07,555.72v-29.56h273.57v29.56H2.07m-2.07,1.56h277.69v-32.67H0v32.67h0Z"/>
      </g>
      <polygon class="cls-5" points="12.61 555.72 38.98 526.16 28.41 526.16 2.07 555.72 12.61 555.72"/>
      <polygon class="cls-5" points="42.18 555.72 68.52 526.16 58.01 526.16 31.65 555.72 42.18 555.72"/>
      <polygon class="cls-5" points="71.73 555.72 98.06 526.16 87.54 526.16 61.21 555.72 71.73 555.72"/>
      <polygon class="cls-5" points="101.3 555.72 127.65 526.16 117.1 526.16 90.74 555.72 101.3 555.72"/>
      <polygon class="cls-5" points="130.84 555.72 157.2 526.16 146.66 526.16 120.33 555.72 130.84 555.72"/>
      <polygon class="cls-5" points="160.45 555.72 186.77 526.16 176.22 526.16 149.87 555.72 160.45 555.72"/>
      <polygon class="cls-5" points="189.98 555.72 216.31 526.16 205.8 526.16 179.46 555.72 189.98 555.72"/>
      <polygon class="cls-5" points="219.55 555.72 245.9 526.16 235.33 526.16 209.01 555.72 219.55 555.72"/>
      <polygon class="cls-5" points="249.1 555.72 275.43 526.16 264.92 526.16 238.55 555.72 249.1 555.72"/>
    </g>
  </g>
</svg>