<?xml version="1.0" encoding="UTF-8"?>
<svg id="Layer_1" data-name="Layer 1" xmlns="http://www.w3.org/2000/svg" viewBox="0 0 327.41 519">
  <defs>
    <style>
      .cls-1 {
        fill: #fff;
      }

      .cls-2 {
        fill: #feea2c;
      }

      .cls-3 {
        fill: #231f20;
      }
    </style>
  </defs>
  <path class="cls-1" d="m210.61,14.21h116.8v-7.11h-116.8C96.95,7.1,4.48,153.68,4.48,333.85v185.15h4.49v-185.15C8.96,157.6,99.42,14.21,210.61,14.21Z"/>
  <path class="cls-1" d="m210.61,127.86h116.8v-7.1h-116.8c-74.13,0-134.43,95.59-134.43,213.09v185.15h4.48v-185.15c0-113.59,58.3-205.99,129.96-205.99Z"/>
  <path class="cls-3" d="m210.61,134.95h116.8v-7.1h-116.8c-71.66,0-129.96,92.41-129.96,205.99v185.15h4.48v-185.15c0-109.66,56.3-198.9,125.48-198.9Z"/>
  <path class="cls-3" d="m4.48,333.85C4.48,153.68,96.95,7.1,210.61,7.1h116.8V0h-116.8C94.48,0,0,149.77,0,333.85v185.15h4.48v-185.15Z"/>
  <path class="cls-3" d="m210.61,65.27h116.8V14.21h-116.8C99.42,14.21,8.96,157.6,8.96,333.85v185.15h32.2v-185.14c0-148.1,76.02-268.59,169.44-268.59Z"/>
  <path class="cls-3" d="m210.61,120.76h116.8v-51.05h-116.8c-91.88,0-166.65,118.49-166.65,264.15v185.14h32.21v-185.15c0-117.5,60.3-213.09,134.43-213.09Z"/>
  <path class="cls-2" d="m210.61,69.71h116.8v-4.44h-116.8c-93.43,0-169.44,120.49-169.44,268.59v185.14h2.8v-185.14c0-145.65,74.76-264.15,166.65-264.15Z"/>
</svg>