<?xml version="1.0" encoding="UTF-8"?>
<svg id="Layer_1" data-name="Layer 1" xmlns="http://www.w3.org/2000/svg" viewBox="0 0 332.91 332.92">
  <defs>
    <style>
      .cls-1 {
        fill: #fff;
      }

      .cls-2 {
        fill: #231f20;
      }
    </style>
  </defs>
  <path class="cls-1" d="m75.22,207.99v124.94h4.42v-124.94c0-70.76,57.57-128.33,128.34-128.33h124.92v-4.43h-124.92c-73.21,0-132.77,59.56-132.77,132.76Z"/>
  <path class="cls-1" d="m4.41,207.99v124.94h4.44v-124.94C8.85,98.19,98.18,8.85,207.99,8.85h124.92v-4.42h-124.92C95.74,4.42,4.41,95.75,4.41,207.99Z"/>
  <path class="cls-2" d="m84.06,207.99c0-68.32,55.6-123.91,123.92-123.91h124.92v-4.42h-124.92c-70.77,0-128.34,57.57-128.34,128.33v124.94h4.42v-124.94Z"/>
  <path class="cls-2" d="m4.41,207.99C4.41,95.75,95.74,4.42,207.99,4.42h124.92V0h-124.92C93.29,0,0,93.3,0,207.99v124.94h4.41v-124.94Z"/>
  <path class="cls-2" d="m75.22,207.99c0-73.2,59.56-132.76,132.77-132.76h124.92v-30.98h-12.47v-4.42h12.47V8.85h-124.92C98.18,8.85,8.85,98.19,8.85,207.99v124.94h66.37v-124.94ZM287.25,39.83h16.59v4.42h-16.59v-4.42Zm-33.19,0h16.58v4.42h-16.58v-4.42Zm-33.2,0h16.6v4.42h-16.6v-4.42Zm-16.64.03l.09,4.42c-5.44.13-10.93.52-16.31,1.18l-.53-4.39c5.51-.68,11.15-1.1,16.76-1.22Zm-33.33,4.11l.99,4.31c-5.29,1.2-10.58,2.69-15.75,4.42l-1.42-4.19c5.31-1.79,10.74-3.31,16.17-4.54Zm-31.81,10.7l1.82,4.03c-4.95,2.25-9.85,4.76-14.55,7.49l-2.22-3.83c4.82-2.81,9.85-5.4,14.95-7.69Zm-29.05,16.82l2.6,3.59c-4.42,3.19-8.73,6.63-12.79,10.22l-2.93-3.32c4.18-3.68,8.59-7.22,13.12-10.49Zm-25.16,22.21l3.24,3.02c-3.71,3.99-7.25,8.2-10.53,12.53l-3.51-2.68c3.35-4.44,7-8.77,10.8-12.86Zm-40.63,239.07h-4.42v-16.6h4.42v16.6Zm0-33.19h-4.42v-16.61h4.42v16.61Zm0-33.19h-4.42v-16.6h4.42v16.6Zm0-33.19h-4.42v-16.59h4.42v16.59Zm.18-33.08l-4.42-.21c.27-5.59.82-11.22,1.64-16.73l4.37.65c-.79,5.37-1.33,10.85-1.59,16.28Zm4.84-32.32l-4.28-1.1c1.37-5.41,3.05-10.81,4.96-16.04l4.16,1.52c-1.86,5.09-3.48,10.35-4.83,15.63Zm11.23-30.7l-4-1.93c2.44-5.02,5.15-9.98,8.07-14.74l3.77,2.32c-2.84,4.63-5.49,9.45-7.85,14.35Z"/>
  <path class="cls-1" d="m40.01,199.92l4.42.21c.26-5.44.8-10.92,1.59-16.28l-4.37-.65c-.82,5.51-1.37,11.14-1.64,16.73Z"/>
  <path class="cls-1" d="m44.98,166.71l4.28,1.1c1.35-5.28,2.97-10.53,4.83-15.63l-4.16-1.52c-1.91,5.23-3.59,10.63-4.96,16.04Z"/>
  <path class="cls-1" d="m56.5,135.18l4,1.93c2.36-4.9,5-9.73,7.85-14.35l-3.77-2.32c-2.92,4.76-5.63,9.72-8.07,14.74Z"/>
  <rect class="cls-1" x="220.87" y="39.83" width="16.6" height="4.42"/>
  <rect class="cls-1" x="39.82" y="216.62" width="4.42" height="16.59"/>
  <path class="cls-1" d="m204.32,44.29l-.09-4.42c-5.61.12-11.25.54-16.76,1.22l.53,4.39c5.38-.66,10.87-1.06,16.31-1.18Z"/>
  <rect class="cls-1" x="320.44" y="39.83" width="12.47" height="4.42"/>
  <rect class="cls-1" x="287.25" y="39.83" width="16.59" height="4.42"/>
  <path class="cls-1" d="m171.89,48.29l-.99-4.31c-5.43,1.23-10.86,2.76-16.17,4.54l1.42,4.19c5.17-1.74,10.46-3.23,15.75-4.42Z"/>
  <rect class="cls-1" x="254.06" y="39.83" width="16.58" height="4.42"/>
  <rect class="cls-1" x="39.82" y="282.98" width="4.42" height="16.61"/>
  <rect class="cls-1" x="39.82" y="249.8" width="4.42" height="16.6"/>
  <rect class="cls-1" x="39.82" y="316.18" width="4.42" height="16.6"/>
  <path class="cls-1" d="m112.64,75.08l-2.6-3.59c-4.53,3.27-8.95,6.81-13.12,10.49l2.93,3.32c4.06-3.59,8.37-7.03,12.79-10.22Z"/>
  <path class="cls-1" d="m140.91,58.7l-1.82-4.03c-5.1,2.29-10.12,4.88-14.95,7.69l2.22,3.83c4.7-2.73,9.6-5.24,14.55-7.49Z"/>
  <path class="cls-1" d="m88.12,96.73l-3.24-3.02c-3.8,4.1-7.45,8.42-10.8,12.86l3.51,2.68c3.29-4.33,6.83-8.54,10.53-12.53Z"/>
</svg>