<?xml version="1.0" encoding="UTF-8"?>
<svg id="Layer_1" data-name="Layer 1" xmlns="http://www.w3.org/2000/svg" viewBox="0 0 273.97 594.73">
  <defs>
    <style>
      .cls-1 {
        fill: #fff;
      }

      .cls-2 {
        fill: #231f20;
      }
    </style>
  </defs>
  <path class="cls-2" d="m111.19,234.84h4.66c0-64.25,70.94-116.5,158.12-116.5v-3.44c-89.75,0-162.78,53.79-162.78,119.94Z"/>
  <path class="cls-2" d="m4.67,234.84c0-109.41,120.82-198.41,269.3-198.41v-3.44C122.92,33,0,123.54,0,234.84h4.67Z"/>
  <rect class="cls-2" x="0" y="0" width="115.84" height="594.73"/>
  <path class="cls-1" d="m273.97,41.25v-4.81c-148.48,0-269.3,89-269.3,198.41h6.53c0-106.75,117.89-193.59,262.77-193.59Z"/>
  <rect class="cls-1" x="4.67" y="0" width="106.5" height="594.73"/>
  <rect class="cls-2" x="11.24" y="0" width="93.39" height="594.73"/>
  <path class="cls-1" d="m273.97,114.9v-4.82c-93.36,0-169.33,55.97-169.34,124.76h6.56c0-66.15,73.03-119.94,162.78-119.94Z"/>
  <path class="cls-2" d="m11.2,234.84h93.43c.01-68.8,75.99-124.76,169.34-124.76V41.25c-144.87,0-262.77,86.84-262.77,193.59Z"/>
  <path class="cls-1" d="m242.22,74.32l1.17,6.01c-9.91,1.05-19.83,2.65-29.5,4.75l-2.34-5.83c10.05-2.18,20.36-3.85,30.67-4.94Z"/>
  <path class="cls-1" d="m182.13,87.38l3.44,5.52c-9.09,3.07-18,6.68-26.47,10.71l-4.48-5.09c8.8-4.19,18.06-7.94,27.51-11.13Z"/>
  <path class="cls-1" d="m129.54,112.39l5.41,4.59c-7.58,4.87-14.76,10.17-21.35,15.77l-6.22-3.98c6.81-5.8,14.29-11.33,22.15-16.38Z"/>
  <path class="cls-1" d="m95.5,150.59c-5.43,6.22-10.29,12.79-14.49,19.54l-7.49-2.52c4.33-7.02,9.4-13.84,15.05-20.3l6.93,3.29Z"/>
  <g>
    <rect class="cls-1" x="53.82" y="0" width="8.25" height="30.24"/>
    <path class="cls-1" d="m62.07,270.58h-8.25v-24.03h8.25v24.03Zm0-40.06h-8.25v-24.03h8.25v24.03Zm0-40.05h-8.25v-24.04h8.25v24.04Zm0-40.06h-8.25v-24.03h8.25v24.03Zm0-40.06h-8.25v-24.04h8.25v24.04Zm0-40.06h-8.25v-24.03h8.25v24.03Z"/>
    <rect class="cls-1" x="53.82" y="286.6" width="8.25" height="308.13"/>
  </g>
</svg>