<?xml version="1.0" encoding="UTF-8"?>
<svg id="Layer_1" data-name="Layer 1" xmlns="http://www.w3.org/2000/svg" viewBox="0 0 318.87 718.83">
  <defs>
    <style>
      .cls-1 {
        fill: #fff;
      }

      .cls-2 {
        fill: #feea2c;
      }

      .cls-3 {
        fill: #231f20;
      }
    </style>
  </defs>
  <g>
    <path class="cls-3" d="m156.67,299.4h4.65c0-86.89,70.69-157.56,157.55-157.56v-4.66c-89.44,0-162.2,72.76-162.2,162.21Z"/>
    <path class="cls-3" d="m50.55,299.4c0-147.97,120.38-268.34,268.32-268.34v-4.66c-150.51,0-272.98,122.46-272.98,273h4.66Z"/>
    <rect class="cls-3" x="45.9" y="7.25" width="115.42" height="377.57"/>
    <path class="cls-1" d="m318.87,37.58v-6.53c-147.94,0-268.32,120.38-268.32,268.34h6.51c0-144.38,117.46-261.81,261.81-261.81Z"/>
    <rect class="cls-1" x="50.55" y="7.25" width="106.11" height="377.57"/>
    <rect class="cls-3" x="57.09" y="7.25" width="93.05" height="377.57"/>
    <path class="cls-1" d="m318.87,137.18v-6.52c-93.02,0-168.71,75.69-168.74,168.73h6.54c0-89.45,72.76-162.21,162.2-162.21Z"/>
    <path class="cls-3" d="m57.06,299.4h93.08c.02-93.04,75.72-168.73,168.74-168.73V37.58c-144.35,0-261.81,117.43-261.81,261.81Z"/>
    <path class="cls-1" d="m287.22,82.3l1.17,8.12c-9.88,1.41-19.77,3.59-29.4,6.44l-2.33-7.88c10-2.95,20.29-5.2,30.55-6.68Z"/>
    <path class="cls-1" d="m227.37,99.97l3.43,7.46c-9.07,4.16-17.94,9.04-26.38,14.48l-4.46-6.9c8.77-5.68,17.98-10.73,27.41-15.05Z"/>
    <path class="cls-1" d="m174.96,133.8l5.41,6.2c-7.57,6.6-14.72,13.76-21.29,21.33l-6.19-5.38c6.79-7.85,14.23-15.31,22.07-22.15Z"/>
    <path class="cls-1" d="m141.06,185.46c-5.41,8.42-10.25,17.29-14.43,26.44l-7.46-3.42c4.31-9.49,9.36-18.73,14.99-27.47l6.91,4.45Z"/>
    <g>
      <rect class="cls-1" x="99.51" y="7.25" width="8.23" height="15.42"/>
      <path class="cls-1" d="m107.74,347.73h-8.23v-32.51h8.23v32.51Zm0-54.18h-8.23v-32.51h8.23v32.51Zm0-54.18h-8.23v-32.5h8.23v32.5Zm0-54.18h-8.23v-32.49h8.23v32.49Zm0-54.17h-8.23v-32.51h8.23v32.51Zm0-54.18h-8.23v-32.51h8.23v32.51Z"/>
      <rect class="cls-1" x="99.51" y="369.41" width="8.23" height="15.41"/>
    </g>
  </g>
  <g>
    <rect class="cls-3" x="0" y="0" width="165.96" height="718.83"/>
    <rect class="cls-1" x="3.95" y="255.25" width="156.4" height="463.58"/>
    <g>
      <rect class="cls-1" x="3.95" y="2.41" width="156.4" height="70.77"/>
      <rect class="cls-1" x="3.95" y="54.55" width="6.41" height="200.7"/>
    </g>
    <rect class="cls-3" x="9.59" y="0" width="146.79" height="718.83"/>
    <rect class="cls-2" x="81.3" y="0" width="3.34" height="718.83"/>
  </g>
</svg>