<?xml version="1.0" encoding="UTF-8"?>
<svg id="Layer_1" data-name="Layer 1" xmlns="http://www.w3.org/2000/svg" viewBox="0 0 297.11 399.99">
  <defs>
    <style>
      .cls-1 {
        fill: #fff;
      }

      .cls-2 {
        fill: #231f20;
      }
    </style>
  </defs>
  <path class="cls-2" d="m120.58,187.97h5.05c0-55.91,76.94-101.37,171.48-101.37v-3c-97.33,0-176.53,46.82-176.53,104.38Z"/>
  <path class="cls-2" d="m5.05,187.97c0-95.21,131.04-172.65,292.05-172.65v-2.99C133.29,12.32,0,91.12,0,187.97h5.05Z"/>
  <rect class="cls-2" x="0" y="0" width="125.62" height="399.99"/>
  <path class="cls-1" d="m297.11,19.51v-4.19c-161.02,0-292.05,77.44-292.05,172.65h7.1c0-92.89,127.83-168.46,284.96-168.46Z"/>
  <rect class="cls-1" x="5.05" y="0" width="115.51" height="399.99"/>
  <rect class="cls-2" x="12.18" y="0" width="101.28" height="399.99"/>
  <path class="cls-1" d="m297.11,83.59v-4.19c-101.25,0-183.63,48.7-183.64,108.57h7.11c0-57.56,79.2-104.38,176.53-104.38Z"/>
  <path class="cls-2" d="m12.15,187.97h101.31c.01-59.87,82.39-108.57,183.64-108.57V19.51c-157.12,0-284.96,75.57-284.96,168.46Z"/>
  <path class="cls-1" d="m262.65,48.28l1.3,5.22c-10.76.91-21.52,2.31-32.01,4.15l-2.53-5.08c10.89-1.89,22.09-3.34,33.24-4.29Z"/>
  <path class="cls-1" d="m197.53,59.64l3.73,4.81c-9.87,2.67-19.54,5.81-28.71,9.31l-4.85-4.43c9.54-3.65,19.56-6.9,29.83-9.69Z"/>
  <path class="cls-1" d="m140.48,81.41l5.88,4c-8.24,4.24-16.02,8.85-23.17,13.72l-6.75-3.46c7.4-5.06,15.51-9.85,24.04-14.25Z"/>
  <path class="cls-1" d="m103.57,114.66c-5.89,5.41-11.15,11.12-15.72,17l-8.12-2.19c4.7-6.11,10.2-12.05,16.32-17.67l7.52,2.86Z"/>
  <g>
    <rect class="cls-1" x="58.36" y="0" width="8.95" height="9.92"/>
    <path class="cls-1" d="m67.32,219.07h-8.95v-20.92h8.95v20.92Zm0-34.87h-8.95v-20.91h8.95v20.91Zm0-34.85h-8.95v-20.92h8.95v20.92Zm0-34.86h-8.95v-20.92h8.95v20.92Zm0-34.87h-8.95v-20.9h8.95v20.9Zm0-34.85h-8.95v-20.91h8.95v20.91Z"/>
    <rect class="cls-1" x="58.36" y="233.01" width="8.95" height="166.97"/>
  </g>
</svg>