<?xml version="1.0" encoding="UTF-8"?>
<svg id="Layer_1" data-name="Layer 1" xmlns="http://www.w3.org/2000/svg" viewBox="0 0 212 565.02">
  <defs>
    <style>
      .cls-1 {
        fill: #fff;
      }

      .cls-2 {
        fill: #231f20;
      }
    </style>
  </defs>
  <path class="cls-2" d="m86.04,265.52h3.6c0-78.98,54.9-143.2,122.36-143.2v-4.24c-69.45,0-125.96,66.13-125.96,147.44Z"/>
  <path class="cls-2" d="m3.61,265.52c0-134.5,93.5-243.88,208.39-243.88v-4.23C95.11,17.41,0,128.71,0,265.52h3.61Z"/>
  <rect class="cls-2" x="0" y="0" width="89.64" height="565.02"/>
  <path class="cls-1" d="m212,27.56v-5.92c-114.89,0-208.39,109.39-208.39,243.88h5.06c0-131.22,91.21-237.96,203.33-237.96Z"/>
  <rect class="cls-1" x="3.61" y="0" width="82.42" height="565.02"/>
  <rect class="cls-2" x="8.69" y="0" width="72.27" height="565.02"/>
  <path class="cls-1" d="m212,118.08v-5.92c-72.25,0-131.03,68.79-131.04,153.36h5.07c0-81.31,56.51-147.44,125.96-147.44Z"/>
  <path class="cls-2" d="m8.67,265.52h72.29c.01-84.58,58.79-153.36,131.04-153.36V27.56c-112.11,0-203.33,106.74-203.33,237.96Z"/>
  <path class="cls-1" d="m187.41,68.2l.92,7.37c-7.68,1.29-15.36,3.26-22.84,5.86l-1.81-7.17c7.77-2.67,15.76-4.72,23.72-6.06Z"/>
  <path class="cls-1" d="m140.95,84.25l2.66,6.79c-7.04,3.78-13.94,8.21-20.48,13.16l-3.46-6.26c6.81-5.15,13.95-9.75,21.28-13.69Z"/>
  <path class="cls-1" d="m100.24,115l4.19,5.65c-5.88,5.99-11.43,12.5-16.53,19.37l-4.81-4.89c5.28-7.15,11.06-13.92,17.15-20.14Z"/>
  <path class="cls-1" d="m73.9,161.96c-4.2,7.65-7.95,15.72-11.22,24.01l-5.79-3.09c3.36-8.63,7.28-17.03,11.65-24.96l5.36,4.04Z"/>
  <g>
    <rect class="cls-1" x="41.64" y="0" width="6.39" height="14.01"/>
    <path class="cls-1" d="m48.03,309.46h-6.39v-29.55h6.39v29.55Zm0-49.25h-6.39v-29.54h6.39v29.54Zm0-49.23h-6.39v-29.55h6.39v29.55Zm0-49.24h-6.39v-29.55h6.39v29.55Zm0-49.25h-6.39v-29.52h6.39v29.52Zm0-49.23h-6.39v-29.54h6.39v29.54Z"/>
    <rect class="cls-1" x="41.64" y="329.15" width="6.39" height="235.87"/>
  </g>
</svg>