<?xml version="1.0" encoding="UTF-8"?>
<svg id="Layer_1" data-name="Layer 1" xmlns="http://www.w3.org/2000/svg" viewBox="0 0 396.11 30.49">
  <defs>
    <style>
      .cls-1 {
        fill: #fff;
      }

      .cls-2 {
        fill: #feea2c;
      }

      .cls-3 {
        fill: #231f20;
      }
    </style>
  </defs>
  <rect class="cls-3" width="396.11" height="30.49"/>
  <path class="cls-2" d="m396.11,15.77h-5.18v-1.04h5.18v1.04Zm-10.35,0h-5.18v-1.04h5.18v1.04Zm-10.35,0h-5.18v-1.04h5.18v1.04Zm-10.35,0h-5.18v-1.04h5.18v1.04Zm-10.35,0h-5.18v-1.04h5.18v1.04Zm-10.35,0h-5.18v-1.04h5.18v1.04Zm-10.35,0h-5.18v-1.04h5.18v1.04Zm-10.35,0h-5.18v-1.04h5.18v1.04Zm-10.35,0h-5.18v-1.04h5.18v1.04Zm-10.35,0h-5.18v-1.04h5.18v1.04Zm-10.35,0h-5.18v-1.04h5.18v1.04Zm-10.35,0h-5.18v-1.04h5.18v1.04Zm-10.35,0h-5.17v-1.04h5.17v1.04Zm-10.35,0h-5.17v-1.04h5.17v1.04Zm-10.35,0h-5.17v-1.04h5.17v1.04Zm-10.35,0h-5.18v-1.04h5.18v1.04Zm-10.35,0h-5.18v-1.04h5.18v1.04Zm-10.35,0h-5.17v-1.04h5.17v1.04Zm-10.35,0h-5.17v-1.04h5.17v1.04Zm-10.35,0h-5.18v-1.04h5.18v1.04Zm-10.35,0h-5.18v-1.04h5.18v1.04Zm-10.35,0h-5.18v-1.04h5.18v1.04Zm-10.35,0h-5.18v-1.04h5.18v1.04Zm-10.35,0h-5.18v-1.04h5.18v1.04Zm-10.35,0h-5.18v-1.04h5.18v1.04Zm-10.35,0h-5.18v-1.04h5.18v1.04Zm-10.35,0h-5.17v-1.04h5.17v1.04Zm-10.35,0h-5.17v-1.04h5.17v1.04Zm-10.35,0h-5.18v-1.04h5.18v1.04Zm-10.35,0h-5.18v-1.04h5.18v1.04Zm-10.35,0h-5.18v-1.04h5.18v1.04Zm-10.35,0h-5.17v-1.04h5.17v1.04Zm-10.35,0h-5.18v-1.04h5.18v1.04Zm-10.35,0h-5.18v-1.04h5.18v1.04Zm-10.35,0h-5.18v-1.04h5.18v1.04Zm-10.35,0h-5.18v-1.04h5.18v1.04Zm-10.35,0h-5.18v-1.04h5.18v1.04Zm-10.35,0h-5.18v-1.04h5.18v1.04Zm-10.35,0H0v-1.04h2.7v1.04Z"/>
  <g>
    <rect class="cls-1" y="2.35" width="396.11" height="1.04"/>
    <rect class="cls-1" y="27.1" width="396.11" height="1.04"/>
  </g>
</svg>