<?xml version="1.0" encoding="UTF-8"?>
<svg id="Layer_1" data-name="Layer 1" xmlns="http://www.w3.org/2000/svg" viewBox="0 0 508.22 29.97">
  <defs>
    <style>
      .cls-1 {
        fill: #fff;
      }

      .cls-2 {
        fill: #feea2c;
      }

      .cls-3 {
        fill: #231f20;
      }
    </style>
  </defs>
  <path class="cls-1" d="m508.22,11.48h-9.49v-3.93h9.49v3.93Zm-20.87,0h-9.49v-3.93h9.49v3.93Zm-20.87,0h-9.49v-3.93h9.49v3.93Zm-20.88,0h-9.48v-3.93h9.48v3.93Zm-20.87,0h-9.49v-3.93h9.49v3.93Zm-20.87,0h-9.49v-3.93h9.49v3.93Zm-20.88,0h-9.49v-3.93h9.49v3.93Zm-20.87,0h-9.49v-3.93h9.49v3.93Zm-20.87,0h-9.49v-3.93h9.49v3.93Zm-20.88,0h-9.48v-3.93h9.48v3.93Zm-20.87,0h-9.49v-3.93h9.49v3.93Zm-20.87,0h-9.49v-3.93h9.49v3.93Zm-20.88,0h-9.49v-3.93h9.49v3.93Zm-20.87,0h-9.48v-3.93h9.48v3.93Zm-20.87,0h-9.49v-3.93h9.49v3.93Zm-20.88,0h-9.49v-3.93h9.49v3.93Zm-20.87,0h-9.49v-3.93h9.49v3.93Zm-20.87,0h-9.49v-3.93h9.49v3.93Zm-20.87,0h-9.49v-3.93h9.49v3.93Zm-20.87,0h-9.49v-3.93h9.49v3.93Zm-20.87,0h-9.49v-3.93h9.49v3.93Zm-20.87,0h-9.49v-3.93h9.49v3.93Zm-20.88,0h-9.48v-3.93h9.48v3.93Zm-20.87,0h-9.49v-3.93h9.49v3.93Zm-20.87,0H0v-3.93h7.25v3.93Z"/>
  <rect class="cls-3" x="31.7" width="396.1" height="29.97"/>
  <rect class="cls-2" x="31.7" y="14.46" width="396.1" height="1.04"/>
  <g>
    <rect class="cls-1" x="31.7" y="2.29" width="396.1" height="1.04"/>
    <rect class="cls-1" x="31.7" y="26.63" width="396.1" height="1.04"/>
  </g>
</svg>