<?xml version="1.0" encoding="UTF-8"?>
<svg id="Layer_1" data-name="Layer 1" xmlns="http://www.w3.org/2000/svg" viewBox="0 0 508.22 92">
  <defs>
    <style>
      .cls-1 {
        fill: #fff;
      }

      .cls-2 {
        fill: #231f20;
      }
    </style>
  </defs>
  <rect class="cls-2" width="508.22" height="92"/>
  <path class="cls-1" d="m508.22,47.98h-9.49v-3.93h9.49v3.93Zm-20.87,0h-9.49v-3.93h9.49v3.93Zm-20.87,0h-9.49v-3.93h9.49v3.93Zm-20.88,0h-9.48v-3.93h9.48v3.93Zm-20.87,0h-9.49v-3.93h9.49v3.93Zm-20.87,0h-9.49v-3.93h9.49v3.93Zm-20.88,0h-9.49v-3.93h9.49v3.93Zm-20.87,0h-9.49v-3.93h9.49v3.93Zm-20.87,0h-9.49v-3.93h9.49v3.93Zm-20.88,0h-9.48v-3.93h9.48v3.93Zm-20.87,0h-9.49v-3.93h9.49v3.93Zm-20.87,0h-9.49v-3.93h9.49v3.93Zm-20.88,0h-9.49v-3.93h9.49v3.93Zm-20.87,0h-9.48v-3.93h9.48v3.93Zm-20.87,0h-9.49v-3.93h9.49v3.93Zm-20.88,0h-9.49v-3.93h9.49v3.93Zm-20.87,0h-9.49v-3.93h9.49v3.93Zm-20.87,0h-9.49v-3.93h9.49v3.93Zm-20.87,0h-9.49v-3.93h9.49v3.93Zm-20.87,0h-9.49v-3.93h9.49v3.93Zm-20.87,0h-9.49v-3.93h9.49v3.93Zm-20.87,0h-9.49v-3.93h9.49v3.93Zm-20.88,0h-9.48v-3.93h9.48v3.93Zm-20.87,0h-9.49v-3.93h9.49v3.93Zm-20.87,0H0v-3.93h7.25v3.93Z"/>
  <g>
    <rect class="cls-1" y="6.68" width="508.22" height="3.93"/>
    <rect class="cls-1" y="81.38" width="508.22" height="3.93"/>
  </g>
</svg>