<?xml version="1.0" encoding="UTF-8"?>
<svg id="Layer_1" data-name="Layer 1" xmlns="http://www.w3.org/2000/svg" viewBox="0 0 508.22 152.86">
  <defs>
    <style>
      .cls-1 {
        fill: #fff;
      }

      .cls-2 {
        fill: #feea2c;
      }

      .cls-3 {
        fill: #231f20;
      }
    </style>
  </defs>
  <path class="cls-1" d="m508.22,41.3h-9.49v-3.93h9.49v3.93Zm-20.87,0h-9.49v-3.93h9.49v3.93Zm-20.87,0h-9.49v-3.93h9.49v3.93Zm-20.88,0h-9.48v-3.93h9.48v3.93Zm-20.87,0h-9.49v-3.93h9.49v3.93Zm-20.87,0h-9.49v-3.93h9.49v3.93Zm-20.88,0h-9.49v-3.93h9.49v3.93Zm-20.87,0h-9.49v-3.93h9.49v3.93Zm-20.87,0h-9.49v-3.93h9.49v3.93Zm-20.88,0h-9.48v-3.93h9.48v3.93Zm-20.87,0h-9.49v-3.93h9.49v3.93Zm-20.87,0h-9.49v-3.93h9.49v3.93Zm-20.88,0h-9.49v-3.93h9.49v3.93Zm-20.87,0h-9.48v-3.93h9.48v3.93Zm-20.87,0h-9.49v-3.93h9.49v3.93Zm-20.88,0h-9.49v-3.93h9.49v3.93Zm-20.87,0h-9.49v-3.93h9.49v3.93Zm-20.87,0h-9.49v-3.93h9.49v3.93Zm-20.87,0h-9.49v-3.93h9.49v3.93Zm-20.87,0h-9.49v-3.93h9.49v3.93Zm-20.87,0h-9.49v-3.93h9.49v3.93Zm-20.87,0h-9.49v-3.93h9.49v3.93Zm-20.88,0h-9.48v-3.93h9.48v3.93Zm-20.87,0h-9.49v-3.93h9.49v3.93Zm-20.87,0H0v-3.93h7.25v3.93Z"/>
  <g>
    <rect class="cls-1" width="508.22" height="3.93"/>
    <rect class="cls-1" y="74.7" width="508.22" height="3.93"/>
  </g>
  <rect class="cls-3" x="38.6" y="112.78" width="396.28" height="40.08"/>
  <g>
    <path class="cls-1" d="m434.03,142.69h-5.18v-1.04h5.18v1.04Zm-10.35,0h-5.18v-1.04h5.18v1.04Zm-10.35,0h-5.18v-1.04h5.18v1.04Zm-10.35,0h-5.18v-1.04h5.18v1.04Zm-10.35,0h-5.18v-1.04h5.18v1.04Zm-10.35,0h-5.18v-1.04h5.18v1.04Zm-10.35,0h-5.18v-1.04h5.18v1.04Zm-10.35,0h-5.18v-1.04h5.18v1.04Zm-10.35,0h-5.18v-1.04h5.18v1.04Zm-10.35,0h-5.18v-1.04h5.18v1.04Zm-10.35,0h-5.18v-1.04h5.18v1.04Zm-10.36,0h-5.17v-1.04h5.17v1.04Zm-10.35,0h-5.18v-1.04h5.18v1.04Zm-10.35,0h-5.18v-1.04h5.18v1.04Zm-10.35,0h-5.18v-1.04h5.18v1.04Zm-10.35,0h-5.18v-1.04h5.18v1.04Zm-10.35,0h-5.18v-1.04h5.18v1.04Zm-10.35,0h-5.18v-1.04h5.18v1.04Zm-10.35,0h-5.18v-1.04h5.18v1.04Zm-10.35,0h-5.18v-1.04h5.18v1.04Zm-10.35,0h-5.18v-1.04h5.18v1.04Zm-10.35,0h-5.18v-1.04h5.18v1.04Zm-10.35,0h-5.18v-1.04h5.18v1.04Zm-10.35,0h-5.18v-1.04h5.18v1.04Zm-10.35,0h-5.17v-1.04h5.17v1.04Zm-10.35,0h-5.18v-1.04h5.18v1.04Zm-10.35,0h-5.17v-1.04h5.17v1.04Zm-10.35,0h-5.18v-1.04h5.18v1.04Zm-10.35,0h-5.17v-1.04h5.17v1.04Zm-10.35,0h-5.18v-1.04h5.18v1.04Zm-10.35,0h-5.18v-1.04h5.18v1.04Zm-10.35,0h-5.17v-1.04h5.17v1.04Zm-10.35,0h-5.17v-1.04h5.17v1.04Zm-10.35,0h-5.18v-1.04h5.18v1.04Zm-10.35,0h-5.18v-1.04h5.18v1.04Zm-10.35,0h-5.18v-1.04h5.18v1.04Zm-10.35,0h-5.18v-1.04h5.18v1.04Zm-10.35,0h-5.18v-1.04h5.18v1.04Zm-10.35,0h-2.03v-1.04h2.03v1.04Z"/>
    <path class="cls-1" d="m434.03,123.66h-5.18v-1.04h5.18v1.04Zm-10.35,0h-5.18v-1.04h5.18v1.04Zm-10.35,0h-5.18v-1.04h5.18v1.04Zm-10.35,0h-5.18v-1.04h5.18v1.04Zm-10.35,0h-5.18v-1.04h5.18v1.04Zm-10.35,0h-5.18v-1.04h5.18v1.04Zm-10.35,0h-5.18v-1.04h5.18v1.04Zm-10.35,0h-5.18v-1.04h5.18v1.04Zm-10.35,0h-5.18v-1.04h5.18v1.04Zm-10.35,0h-5.18v-1.04h5.18v1.04Zm-10.35,0h-5.18v-1.04h5.18v1.04Zm-10.36,0h-5.17v-1.04h5.17v1.04Zm-10.35,0h-5.18v-1.04h5.18v1.04Zm-10.35,0h-5.18v-1.04h5.18v1.04Zm-10.35,0h-5.18v-1.04h5.18v1.04Zm-10.35,0h-5.18v-1.04h5.18v1.04Zm-10.35,0h-5.18v-1.04h5.18v1.04Zm-10.35,0h-5.18v-1.04h5.18v1.04Zm-10.35,0h-5.18v-1.04h5.18v1.04Zm-10.35,0h-5.18v-1.04h5.18v1.04Zm-10.35,0h-5.18v-1.04h5.18v1.04Zm-10.35,0h-5.18v-1.04h5.18v1.04Zm-10.35,0h-5.18v-1.04h5.18v1.04Zm-10.35,0h-5.18v-1.04h5.18v1.04Zm-10.35,0h-5.17v-1.04h5.17v1.04Zm-10.35,0h-5.18v-1.04h5.18v1.04Zm-10.35,0h-5.17v-1.04h5.17v1.04Zm-10.35,0h-5.18v-1.04h5.18v1.04Zm-10.35,0h-5.17v-1.04h5.17v1.04Zm-10.35,0h-5.18v-1.04h5.18v1.04Zm-10.35,0h-5.18v-1.04h5.18v1.04Zm-10.35,0h-5.17v-1.04h5.17v1.04Zm-10.35,0h-5.17v-1.04h5.17v1.04Zm-10.35,0h-5.18v-1.04h5.18v1.04Zm-10.35,0h-5.18v-1.04h5.18v1.04Zm-10.35,0h-5.18v-1.04h5.18v1.04Zm-10.35,0h-5.18v-1.04h5.18v1.04Zm-10.35,0h-5.18v-1.04h5.18v1.04Zm-10.35,0h-2.03v-1.04h2.03v1.04Z"/>
  </g>
  <rect class="cls-2" x="38.6" y="132.3" width="396.81" height="1.04"/>
</svg>