<?xml version="1.0" encoding="UTF-8"?>
<svg id="Layer_1" data-name="Layer 1" xmlns="http://www.w3.org/2000/svg" viewBox="0 0 1090.16 765.1">
  <defs>
    <style>
      .cls-1 {
        fill: #fff;
      }

      .cls-2 {
        fill: #b3b5b7;
      }

      .cls-3 {
        fill: #f5f5f5;
      }

      .cls-4 {
        fill: #d0d2d3;
      }

      .cls-5 {
        fill: #231f20;
      }
    </style>
  </defs>
  <g>
    <path class="cls-2" d="m1018.82,365.6h-22.18v-75.18h22.18c39.33,0,71.34-24.39,71.34-54.37s-32-54.37-71.34-54.37-71.34,24.39-71.34,54.37v16.39h-.15v.4h-79.58v37.58h79.58v75.18h-79.58v37.58h79.58v.4h.15v16.39c0,29.98,32,54.37,71.34,54.37s71.34-24.39,71.34-54.37-32-54.37-71.34-54.37Zm-22.03-129.55c0-9.26,9.88-16.79,22.03-16.79s22.03,7.53,22.03,16.79-9.88,16.79-22.03,16.79h-22.03v-16.79Zm22.03,200.72c-12.15,0-22.03-7.53-22.03-16.79v-16.79h22.03c12.15,0,22.03,7.53,22.03,16.79s-9.88,16.79-22.03,16.79Z"/>
    <path class="cls-5" d="m1018.82,187.27c-35.29,0-63.99,21.88-63.99,48.78v22.39h-7.49v26.39h71.48c35.29,0,63.99-21.88,63.99-48.78s-28.71-48.78-63.99-48.78Zm0,71.17h-29.37v-22.39c0-12.35,13.18-22.39,29.37-22.39s29.37,10.04,29.37,22.39-13.18,22.39-29.37,22.39Z"/>
    <rect class="cls-5" x="867.75" y="258.43" width="87.07" height="26.39"/>
    <rect class="cls-5" x="954.68" y="243.18" width="34.62" height="115.61"/>
    <rect class="cls-1" x="972.66" y="342.66" width="2.1" height="4"/>
    <rect class="cls-1" x="972.66" y="331.46" width="2.1" height="4"/>
    <rect class="cls-1" x="972.66" y="320.27" width="2.1" height="4"/>
    <rect class="cls-1" x="972.66" y="309.08" width="2.1" height="4"/>
    <rect class="cls-1" x="972.66" y="297.88" width="2.1" height="4"/>
    <rect class="cls-1" x="972.66" y="286.69" width="2.1" height="4"/>
    <rect class="cls-1" x="972.66" y="275.49" width="2.1" height="4"/>
    <rect class="cls-1" x="972.66" y="264.3" width="2.1" height="4"/>
    <rect class="cls-1" x="972.66" y="253.1" width="2.1" height="4"/>
    <path class="cls-1" d="m974.76,357.85h-2.1v-4h2.1v4Zm44.06-86.63v-1.6c1.71,0,3.43-.08,5.11-.22l.24,1.59c-1.77.16-3.57.24-5.35.24Zm-9.44,0h-5.25v-1.6h5.25v1.6Zm-14.69,0h-5.24v-1.6h5.24v1.6Zm-40.01,0h-3.26v-1.6h3.26v1.6Zm-12.7,0h-5.25v-1.6h5.25v1.6Zm-14.69,0h-5.24v-1.6h5.24v1.6Zm-14.69,0h-5.25v-1.6h5.25v1.6Zm-14.69,0h-5.25v-1.6h5.25v1.6Zm-14.69,0h-5.24v-1.6h5.24v1.6Zm150.35-1.85l-.67-1.51c1.61-.42,3.21-.91,4.75-1.47l.9,1.45c-1.61.58-3.29,1.1-4.97,1.54Zm13.21-5.36l-1.27-1.27c1.35-.79,2.66-1.64,3.88-2.54l1.46,1.15c-1.28.94-2.65,1.84-4.07,2.66Zm10.27-8.29l-1.74-.9c.95-1.07,1.84-2.2,2.62-3.35l1.86.74c-.82,1.2-1.75,2.39-2.74,3.51Zm-82.3-9.82h-2.1v-4h2.1v4Zm88.57-.53l-2.02-.43c.45-1.25.81-2.53,1.07-3.81l2.07.24c-.27,1.34-.65,2.69-1.12,4Zm-88.54-10.64l-2.1-.06c.07-1.36.24-2.73.51-4.07l2.07.25c-.26,1.28-.43,2.58-.49,3.88Zm88.02-.61c-.1-1.3-.29-2.6-.58-3.88l2.07-.27c.3,1.33.51,2.7.61,4.06l-2.09.09Zm-85.17-10.05l-1.96-.57c.64-1.27,1.38-2.52,2.21-3.72l1.86.74c-.79,1.15-1.5,2.35-2.1,3.56Zm82.06-.57c-.64-1.2-1.37-2.39-2.19-3.53l1.84-.77c.86,1.19,1.63,2.44,2.3,3.7l-1.95.6Zm-74.86-8.83l-1.62-1.02c1.13-1.05,2.36-2.05,3.65-3l1.45,1.15c-1.23.9-2.4,1.86-3.48,2.86Zm67.43-.47c-1.11-.99-2.3-1.93-3.55-2.81l1.42-1.17c1.31.92,2.56,1.91,3.72,2.94l-1.59,1.04Zm-56.69-6.7l-1.11-1.36c1.51-.72,3.1-1.38,4.71-1.96l.9,1.45c-1.54.55-3.05,1.18-4.5,1.87Zm45.77-.32c-1.46-.67-2.99-1.27-4.54-1.8l.86-1.46c1.62.56,3.22,1.19,4.75,1.89l-1.08,1.37Zm-32.58-3.86l-.48-1.56c1.74-.31,3.51-.54,5.29-.7l.24,1.59c-1.69.15-3.39.37-5.04.67Zm19.31-.13c-1.66-.27-3.36-.47-5.06-.59l.2-1.59c1.77.13,3.56.34,5.3.62l-.44,1.56Z"/>
    <rect class="cls-5" x="867.75" y="371.19" width="87.07" height="26.39"/>
    <path class="cls-5" d="m1018.82,371.19h-29.52v-13.06h-34.62v13.06h-7.34v26.39h7.34v15.26h.15v7.13c0,26.89,28.71,48.78,63.99,48.78s63.99-21.88,63.99-48.78-28.71-48.78-63.99-48.78Zm0,71.16c-16.2,0-29.37-10.04-29.37-22.39v-22.39h29.37c16.2,0,29.37,10.04,29.37,22.39s-13.18,22.39-29.37,22.39Z"/>
    <g>
      <path class="cls-1" d="m1024.17,385.02l-.24,1.59c-1.68-.15-3.4-.22-5.11-.22v-1.6c1.79,0,3.59.08,5.35.23Zm-14.79,1.36h-5.25v-1.6h5.25v1.6Zm-14.69,0h-5.24v-1.6h5.24v1.6Zm-40.01,0h-3.26v-1.6h3.26v1.6Zm-12.7,0h-5.25v-1.6h5.25v1.6Zm-14.69,0h-5.24v-1.6h5.24v1.6Zm-14.69,0h-5.25v-1.6h5.25v1.6Zm-14.69,0h-5.25v-1.6h5.25v1.6Zm-14.69,0h-5.24v-1.6h5.24v1.6Zm155.33,1.78l-.9,1.44c-1.54-.56-3.14-1.05-4.75-1.47l.67-1.51c1.69.43,3.36.95,4.97,1.54Zm12.3,6.49l-1.46,1.15c-1.22-.9-2.53-1.76-3.88-2.54l1.27-1.27c1.42.83,2.78,1.72,4.07,2.66Zm8.95,9.13l-1.86.74c-.79-1.15-1.67-2.28-2.62-3.35l1.74-.9c1,1.12,1.92,2.3,2.74,3.51Zm-85.04,10.31h-2.1v-4h2.1v4Zm89.69.53l-2.07.24c-.26-1.28-.62-2.57-1.07-3.81l2.02-.42c.47,1.31.85,2.65,1.12,4Zm-89.17,10.52l-2.07.25c-.27-1.34-.45-2.71-.51-4.07l2.1-.06c.07,1.3.23,2.61.49,3.88Zm89.62-3.18c-.1,1.36-.3,2.73-.61,4.06l-2.07-.27c.29-1.27.49-2.58.58-3.88l2.09.09Zm-85.16,13.51l-1.86.74c-.83-1.2-1.57-2.46-2.21-3.72l1.96-.57c.61,1.21,1.32,2.41,2.1,3.55Zm81.9-2.38c-.67,1.26-1.44,2.5-2.3,3.7l-1.84-.77c.82-1.14,1.55-2.33,2.19-3.53l1.95.6Zm-73.32,11.09l-1.45,1.15c-1.29-.94-2.51-1.95-3.65-3l1.62-1.02c1.08,1,2.25,1.96,3.48,2.86Zm65.55-1.35c-1.16,1.03-2.41,2.02-3.72,2.94l-1.42-1.17c1.25-.88,2.44-1.83,3.55-2.81l1.59,1.04Zm-53.78,7.52l-.9,1.45c-1.61-.58-3.2-1.24-4.71-1.96l1.11-1.36c1.45.69,2.96,1.31,4.5,1.87Zm42.35-.17c-1.53.7-3.13,1.33-4.75,1.89l-.86-1.46c1.55-.53,3.08-1.14,4.54-1.8l1.08,1.37Zm-28.62,3.15l-.24,1.59c-1.77-.15-3.55-.39-5.29-.7l.48-1.56c1.66.29,3.36.52,5.04.66Zm14.7,1.03c-1.74.29-3.53.5-5.3.62l-.2-1.59c1.69-.12,3.4-.32,5.06-.59l.44,1.56Z"/>
      <g>
        <rect class="cls-1" x="972.66" y="309.35" width="2.1" height="4"/>
        <rect class="cls-1" x="972.66" y="320.55" width="2.1" height="4"/>
        <rect class="cls-1" x="972.66" y="331.74" width="2.1" height="4"/>
        <rect class="cls-1" x="972.66" y="342.94" width="2.1" height="4"/>
        <rect class="cls-1" x="972.66" y="354.13" width="2.1" height="4"/>
        <rect class="cls-1" x="972.66" y="365.33" width="2.1" height="4"/>
        <rect class="cls-1" x="972.66" y="376.52" width="2.1" height="4"/>
        <rect class="cls-1" x="972.66" y="387.71" width="2.1" height="4"/>
        <rect class="cls-1" x="972.66" y="398.91" width="2.1" height="4"/>
        <rect class="cls-1" x="972.66" y="298.16" width="2.1" height="4"/>
      </g>
    </g>
  </g>
  <g>
    <g>
      <path class="cls-2" d="m428.14,180.66h103.33c26.45,0,47.38-8.62,57.49-13.76,15.82-8.04,22.94-16.35,22.94-19.69v-5.6h49.31v5.6c0,17.69-15.91,36.05-43.65,50.37-1.23.64-2.48,1.26-3.75,1.88,1.27.61,2.52,1.24,3.75,1.88,27.74,14.32,43.65,32.67,43.65,50.36v5.6h-49.31v-5.6c0-3.34-7.12-11.65-22.94-19.69-10.12-5.14-31.04-13.76-57.49-13.76h-103.33v-37.58Z"/>
      <path class="cls-5" d="m653.87,141.61v5.6c0,15.81-14.73,32.47-40.42,45.73-4.58,2.37-9.37,4.54-14.3,6.51,4.93,1.97,9.72,4.14,14.3,6.51,25.69,13.26,40.42,29.93,40.42,45.73v5.6h-34.48l-.14-5.6c0-12.86-40.63-39.05-87.77-39.05h-103.33v-26.39h103.33c47.14,0,87.77-26.19,87.77-39.05v-5.6h34.62Z"/>
    </g>
    <g>
      <path class="cls-1" d="m428.14,200.25v-1.6h5.25v1.6h-5.25Zm14.69,0v-1.6h5.25v1.6h-5.25Zm14.68,0v-1.6h5.25v1.6h-5.25Zm14.69,0v-1.6h5.25v1.6h-5.25Zm14.69,0v-1.6h5.25v1.6h-5.25Zm14.69,0v-1.6h5.25v1.6h-5.25Zm14.68,0v-1.6h5.25v1.6h-5.25Zm14.69,0v-1.6h5.25v1.6h-5.25Zm14.69,0v-1.6h5.25v1.6h-5.25Zm14.69,0v-1.6h5.25v1.6h-5.25Z"/>
      <path class="cls-1" d="m575.02,194.4c1.36-.12,2.76-.31,4.17-.54l.46,1.56c-1.48.25-2.95.44-4.38.58l-.25-1.59Zm12.92-2.72c1.52-.5,3.08-1.09,4.62-1.73l1.01,1.4c-1.6.67-3.21,1.27-4.79,1.8l-.84-1.47Zm12.36-5.61c1.34-.79,2.68-1.63,3.99-2.51l1.39,1.2c-1.35.9-2.73,1.77-4.11,2.57l-1.27-1.27Zm10.64-7.5c1.17-.98,2.31-1.98,3.41-2.99l1.62,1.02c-1.13,1.04-2.29,2.05-3.48,3.05l-1.55-1.08Zm9.08-8.67c1.01-1.1,1.98-2.19,2.92-3.3l1.75.88c-.95,1.11-1.94,2.23-2.96,3.34l-1.71-.92Zm7.77-9.41c.87-1.19,1.71-2.35,2.5-3.5l1.85.74c-.81,1.16-1.65,2.34-2.53,3.54l-1.83-.79Zm6.69-9.93c.76-1.26,1.48-2.48,2.13-3.63l1.93.63c-.66,1.16-1.38,2.39-2.16,3.67l-1.9-.68Z"/>
      <path class="cls-1" d="m574.98,201.86l.25-1.59c1.42.13,2.9.32,4.38.57l-.45,1.56c-1.42-.23-2.82-.42-4.17-.54Zm12.93,2.7l.83-1.47c1.58.52,3.2,1.12,4.79,1.79l-1.01,1.4c-1.54-.64-3.09-1.22-4.62-1.72Zm12.37,5.59l1.27-1.27c1.38.8,2.77,1.67,4.12,2.57l-1.39,1.2c-1.31-.88-2.66-1.72-4-2.5Zm10.65,7.49l1.55-1.08c1.2,1,2.36,2.01,3.49,3.04l-1.62,1.02c-1.1-1.01-2.25-2.01-3.41-2.99Zm9.1,8.66l1.71-.92c1.03,1.11,2.01,2.22,2.97,3.34l-1.75.88c-.94-1.1-1.91-2.2-2.93-3.29Zm7.79,9.41l1.82-.79c.89,1.2,1.73,2.37,2.54,3.54l-1.85.75c-.8-1.14-1.63-2.31-2.51-3.49Zm6.71,9.92l1.9-.68c.78,1.28,1.5,2.51,2.17,3.67l-1.93.63c-.65-1.15-1.37-2.37-2.14-3.63Z"/>
    </g>
  </g>
  <g>
    <path class="cls-2" d="m712.6,121.81v-37.58h59.31c33.07,0,57.89-6.97,73.76-20.71,19.41-16.81,22.74-40.6,22.99-53.34-.02-1.27-.02-2.48,0-3.62l-.2-6.56h49.71l-.16,5.72c-.31,11.17,1.31,39.19,23.05,57.91,15.87,13.67,40.64,20.6,73.64,20.6h59.31v37.58h-361.4Zm186.84-37.58c-2.15-2.09-4.2-4.27-6.13-6.53-1.94,2.26-3.99,4.44-6.13,6.53h12.27Z"/>
    <path class="cls-5" d="m1014.69,89.83c-35.19,0-61.81-7.57-79.14-22.49-23.06-19.86-25.26-54.08-24.89-67.34h-34.7c0,.31.02,6.22.03,6.54-.02,1.15-.02,2.37,0,3.65-.27,14.43-4.12,39.11-24.82,57.03-17.32,15-43.99,22.61-79.27,22.61h-59.31v26.39h361.4v-26.39h-59.31Zm-144.02,0c2.25-1.65,4.42-3.37,6.5-5.17,6.56-5.68,11.86-11.77,16.14-18.01,4.28,6.24,9.58,12.34,16.14,18.01,2.08,1.8,4.25,3.52,6.5,5.17h-45.27Z"/>
    <path class="cls-1" d="m1064.87,103.42h-5.24v-1.6h5.24v1.6Zm-14.69,0h-5.25v-1.6h5.25v1.6Zm-14.69,0h-5.24v-1.6h5.24v1.6Zm-14.69,0h-5.25v-1.6h5.25v1.6Zm-255.83,0h-5.25v-1.6h5.25v1.6Zm-14.69,0h-5.25v-1.6h5.25v1.6Zm-14.69,0h-5.25v-1.6h5.25v1.6Zm-14.69,0h-5.25v-1.6h5.25v1.6Zm53.52-.01l-.03-1.6c1.76-.02,3.5-.05,5.21-.11l.09,1.6c-1.74.06-3.5.09-5.27.11Zm231.64-.13c-1.78-.06-3.53-.14-5.26-.24l.15-1.59c1.71.09,3.45.17,5.21.23l-.1,1.6Zm-216.9-.46l-.19-1.59c1.74-.12,3.47-.27,5.18-.43l.26,1.59c-1.73.17-3.48.31-5.25.43Zm202.18-.51c-1.76-.18-3.5-.38-5.22-.6l.34-1.58c1.7.22,3.41.41,5.16.58l-.28,1.59Zm-187.54-1.05l-.39-1.57c1.72-.25,3.41-.52,5.09-.82l.48,1.56c-1.7.3-3.42.58-5.17.83Zm173-.96c-1.73-.32-3.44-.65-5.12-1.01l.57-1.54c1.65.35,3.33.68,5.04.99l-.49,1.56Zm-158.64-1.76l-.63-1.52c1.67-.4,3.32-.82,4.93-1.26l.71,1.5c-1.65.45-3.32.88-5.01,1.28Zm144.46-1.48c-1.67-.47-3.31-.96-4.92-1.47l.81-1.48c1.58.51,3.2,1,4.83,1.45l-.72,1.5Zm-130.62-2.53l-.88-1.46c1.58-.56,3.13-1.13,4.66-1.74l.97,1.42c-1.56.62-3.14,1.21-4.76,1.77Zm117.09-2.07c-1.57-.63-3.1-1.3-4.61-1.99l1.08-1.37c1.47.68,2.98,1.32,4.51,1.95l-.99,1.41Zm-104.09-3.38l-1.15-1.35c1.46-.72,2.88-1.47,4.27-2.24l1.24,1.29c-1.43.79-2.88,1.56-4.36,2.3Zm91.56-2.66c-1.41-.81-2.8-1.64-4.15-2.5l1.34-1.22c1.32.84,2.68,1.65,4.07,2.45l-1.26,1.28Zm-79.8-4.22l-1.4-1.19c1.28-.88,2.54-1.79,3.75-2.72l1.49,1.12c-1.25.96-2.53,1.89-3.84,2.79Zm68.64-3.22c-1.1-.86-2.18-1.74-3.23-2.65l-.36-.32,1.56-1.07.39.34c1.01.87,2.06,1.73,3.13,2.57l-1.49,1.12Zm-58.42-4.98l-1.63-1.01c1.1-1.03,2.15-2.07,3.16-3.13l1.7.93c-1.03,1.09-2.11,2.16-3.23,3.21Zm48.9-3.69c-1.04-1.11-2.03-2.22-2.98-3.34l1.77-.87c.93,1.1,1.9,2.19,2.92,3.28l-1.71.93Zm-40.42-5.58l-1.8-.82c.89-1.14,1.74-2.29,2.55-3.45l1.85.75c-.82,1.18-1.69,2.36-2.6,3.53Zm32.66-4.04c-.82-1.2-1.61-2.41-2.35-3.62l1.9-.68c.73,1.19,1.49,2.37,2.3,3.55l-1.86.75Zm-25.94-6.02l-1.93-.63c.69-1.22,1.34-2.45,1.96-3.67l1.96.58c-.62,1.23-1.28,2.48-1.99,3.73Zm19.92-4.29c-.62-1.27-1.2-2.54-1.75-3.8l1.99-.5c.54,1.25,1.11,2.5,1.72,3.75l-1.96.56Zm-14.87-6.31l-2.01-.47c.51-1.28.97-2.55,1.41-3.81l2.03.4c-.44,1.29-.92,2.58-1.43,3.88Zm10.47-4.47c-.44-1.31-.84-2.62-1.2-3.92l2.05-.33c.36,1.28.76,2.57,1.19,3.87l-2.04.39Zm-6.94-6.48l-2.06-.3c.34-1.33.64-2.63.91-3.92l2.07.26c-.28,1.3-.58,2.62-.93,3.96Z"/>
  </g>
  <g>
    <path class="cls-2" d="m165.23,9.59c-39.33,0-71.34,24.39-71.34,54.37v16.79h-.15v37.58h71.49c39.33,0,71.34-24.39,71.34-54.37S204.56,9.59,165.23,9.59Zm0,71.17h-22.03v-16.79c0-9.26,9.88-16.79,22.03-16.79s22.03,7.53,22.03,16.79-9.88,16.79-22.03,16.79Z"/>
    <rect class="cls-2" x="14.16" y="80.76" width="79.58" height="37.58"/>
    <rect class="cls-5" x="14.16" y="86.35" width="87.07" height="26.39"/>
    <rect class="cls-2" x="93.74" y="80.36" width="49.31" height="106.35"/>
    <path class="cls-5" d="m165.23,15.19c-35.29,0-63.99,21.88-63.99,48.78v7.13h-.15v115.61h34.62v-73.96h29.52c35.29,0,63.99-21.88,63.99-48.78s-28.71-48.78-63.99-48.78Zm0,71.17h-29.37v-22.39c0-12.35,13.18-22.39,29.37-22.39s29.37,10.04,29.37,22.39-13.18,22.39-29.37,22.39Z"/>
    <g>
      <path class="cls-1" d="m165.23,99.15v-1.6c1.71,0,3.43-.08,5.11-.22l.24,1.59c-1.77.16-3.57.23-5.35.23Zm-9.44,0h-5.25v-1.6h5.25v1.6Zm-67.4,0h-5.25v-1.6h5.25v1.6Zm-14.69,0h-5.25v-1.6h5.25v1.6Zm-14.69,0h-5.24v-1.6h5.24v1.6Zm-14.69,0h-5.25v-1.6h5.25v1.6Zm-14.69,0h-5.24v-1.6h5.24v1.6Zm150.35-1.84l-.67-1.51c1.61-.42,3.21-.91,4.75-1.47l.9,1.45c-1.61.58-3.29,1.1-4.97,1.54Zm13.21-5.36l-1.27-1.27c1.35-.79,2.66-1.64,3.88-2.54l1.46,1.15c-1.28.94-2.65,1.84-4.07,2.66Zm10.27-8.29l-1.74-.9c.95-1.07,1.84-2.2,2.62-3.35l1.86.74c-.82,1.2-1.75,2.38-2.74,3.51Zm-82.3-9.82h-2.1v-4h2.1v4Zm88.57-.53l-2.02-.43c.45-1.25.81-2.53,1.07-3.81l2.07.24c-.27,1.34-.65,2.69-1.12,4Zm-88.54-10.64l-2.1-.06c.07-1.36.24-2.73.51-4.07l2.07.25c-.26,1.28-.43,2.58-.49,3.88Zm88.02-.61c-.1-1.3-.29-2.6-.58-3.88l2.07-.27c.31,1.33.51,2.7.61,4.06l-2.09.09Zm-85.17-10.05l-1.96-.57c.64-1.27,1.38-2.52,2.21-3.72l1.86.74c-.79,1.15-1.5,2.35-2.1,3.55Zm82.06-.57c-.64-1.2-1.37-2.39-2.19-3.53l1.84-.77c.86,1.19,1.63,2.44,2.3,3.7l-1.95.6Zm-74.86-8.83l-1.62-1.02c1.13-1.05,2.36-2.05,3.65-3l1.45,1.15c-1.23.9-2.4,1.86-3.48,2.86Zm67.43-.47c-1.11-.99-2.3-1.93-3.55-2.81l1.42-1.17c1.31.92,2.56,1.91,3.72,2.94l-1.59,1.04Zm-56.69-6.7l-1.11-1.36c1.51-.72,3.1-1.38,4.71-1.96l.9,1.45c-1.54.55-3.05,1.18-4.5,1.87Zm45.77-.32c-1.46-.67-2.99-1.27-4.54-1.8l.86-1.46c1.62.56,3.22,1.19,4.75,1.89l-1.08,1.37Zm-32.58-3.86l-.48-1.56c1.74-.31,3.51-.54,5.29-.7l.24,1.59c-1.69.15-3.39.37-5.04.67Zm19.31-.13c-1.66-.27-3.37-.47-5.06-.59l.2-1.59c1.77.13,3.56.34,5.3.62l-.44,1.56Z"/>
      <g>
        <rect class="cls-1" x="119.07" y="170.58" width="2.1" height="4"/>
        <rect class="cls-1" x="119.07" y="159.39" width="2.1" height="4"/>
        <rect class="cls-1" x="119.07" y="148.19" width="2.1" height="4"/>
        <rect class="cls-1" x="119.07" y="137" width="2.1" height="4"/>
        <rect class="cls-1" x="119.07" y="125.8" width="2.1" height="4"/>
        <rect class="cls-1" x="119.07" y="114.61" width="2.1" height="4"/>
        <rect class="cls-1" x="119.07" y="103.41" width="2.1" height="4"/>
        <rect class="cls-1" x="119.07" y="92.22" width="2.1" height="4"/>
        <rect class="cls-1" x="119.07" y="81.02" width="2.1" height="4"/>
        <rect class="cls-1" x="119.07" y="181.77" width="2.1" height="4"/>
      </g>
    </g>
  </g>
  <g>
    <g>
      <path class="cls-2" d="m323.97,535.06h-137.09v-71.56c0-12.57-11.18-22.79-24.92-22.79s-24.92,10.22-24.92,22.79v71.56H.06v-37.58h87.68v-33.98c0-33.29,33.29-60.37,74.22-60.37s74.22,27.08,74.22,60.37v33.98h87.79v37.58Z"/>
      <path class="cls-5" d="m323.97,503.07v26.39h-129.75v-65.97c0-15.65-14.47-28.39-32.26-28.39s-32.26,12.73-32.26,28.39v65.97H.06v-26.39h95.02v-39.58c0-30.2,30-54.77,66.88-54.77s66.88,24.57,66.88,54.77v39.58h95.13Z"/>
    </g>
    <path class="cls-1" d="m306.77,515.06v1.6h-5.37v-1.6h5.37Zm12.75,0v1.6h-5.37v-1.6h5.37Zm-25.49,0v1.6h-5.37v-1.6h5.37Zm-15.04,0v1.6h-5.37v-1.6h5.37Zm-15.05,0v1.6h-5.37v-1.6h5.37Zm-15.05,0v1.6h-5.37v-1.6h5.37Zm-15.05,0v1.6h-1.66c-1.32,0-2.64-.11-3.91-.32l.46-1.56c1.12.18,2.28.27,3.45.27h1.66Zm-12.97-3.45l-1.51,1.15c-1.35-1-2.5-2.14-3.38-3.4l1.9-.75c.78,1.12,1.79,2.12,2.99,3Zm-4.81-47.16v4h-2.15v-4h2.15Zm0,11.2v3.99h-2.15v-3.99h2.15Zm0,11.19v4h-2.15v-4h2.15Zm0,11.2v4h-2.15v-4h2.15Zm-.58-40.86l-2.12.21c-.23-1.29-.55-2.58-.94-3.86l2.09-.36c.41,1.32.73,2.67.97,4Zm-3.91-10.98l-1.99.6c-.66-1.21-1.39-2.4-2.2-3.57l1.91-.73c.83,1.21,1.6,2.45,2.27,3.7Zm-7.5-9.91l-1.72.97c-1.05-1.05-2.19-2.06-3.36-3.01l1.58-1.08c1.22.99,2.4,2.05,3.5,3.13Zm-10.79-8.06l-1.3,1.28c-1.38-.78-2.85-1.51-4.35-2.19l1.11-1.37c1.56.7,3.09,1.46,4.54,2.27Zm-13.46-5.41l-.72,1.5c-1.65-.43-3.35-.81-5.04-1.1l.49-1.56c1.76.31,3.54.7,5.26,1.16Zm-15.08-2.07l-.02,1.6h-1.04c-1.41,0-2.82.04-4.21.13l-.19-1.59c1.44-.09,2.92-.15,4.39-.16h1.07Zm-14.51,3.1c-1.69.39-3.34.85-4.93,1.36l-.85-1.47c1.65-.53,3.38-1.01,5.14-1.41l.64,1.52Zm-13.17,4.78c-1.4.72-2.8,1.52-4.17,2.39l-1.39-1.21c1.42-.91,2.89-1.74,4.34-2.49l1.23,1.31Zm-10.77,7.44c-1.09,1-2.14,2.06-3.13,3.15l-1.78-.89c1.02-1.14,2.11-2.24,3.24-3.28l1.67,1.01Zm-7.71,9.32c-.72,1.21-1.36,2.44-1.92,3.65l-2.03-.52c.58-1.25,1.25-2.52,2-3.78l1.96.65Zm-4.25,10.5c-.3,1.24-.52,2.55-.67,3.89l-2.14-.13c.15-1.39.39-2.74.69-4.03l2.12.28Zm-.88,11.02v4h-2.15v-4h2.15Zm0,11.19v4h-2.15v-4h2.15Zm0,11.2v4h-2.15v-4h2.15Zm0,11.2v2.62c0,.5-.04.99-.1,1.46l-2.14-.18c.07-.42.09-.85.09-1.29v-2.62h2.15Zm-3.95,11.06c-1.18,1.11-2.59,2.07-4.18,2.86l-1.2-1.32c1.41-.71,2.65-1.56,3.68-2.53l1.69.99Zm-13.81,5.15h-5.43s0-1.6,0-1.6h5.32s.1,1.6.1,1.6Zm-15.1-1.6v1.6h-5.37v-1.6h5.37Zm-15.05,0v1.6h-5.37v-1.6h5.37Zm-15.05,0v1.6h-5.37v-1.6h5.37Zm-15.04,0v1.6h-5.37v-1.6h5.37Zm-15.05,0v1.6h-5.37v-1.6h5.37Zm-15.05,0v1.6H0v-1.6h5.37Z"/>
  </g>
  <g>
    <path class="cls-2" d="m704.42,156.23h42v60.66c6.18-1.56,12.69-2.37,19.21-2.37h4.77c33.75,0,61.21,20.93,61.21,46.65v211.64h-41.99v-60.66c-6.18,1.56-12.69,2.37-19.21,2.37h-4.77c-33.75,0-61.21-20.93-61.21-46.65v-66.68s0-144.96,0-144.96Zm85.18,104.94c0-8.07-8.62-14.64-19.21-14.64h-4.77c-10.59,0-19.21,6.57-19.21,14.64v106.7c0,8.07,8.62,14.64,19.21,14.64h4.77c10.59,0,19.21-6.57,19.21-14.64v-106.7Z"/>
    <path class="cls-5" d="m825.34,472.81v-211.64c0-23.1-24.65-41.88-54.95-41.88h-4.77c-9.19,0-17.85,1.74-25.46,4.79v-67.85h-29.49v144.96h0v66.68c0,23.09,24.65,41.88,54.95,41.88h4.77c9.19,0,17.85-1.74,25.47-4.79v67.85h29.49Zm-54.95-85.53h-4.77c-14.04,0-25.46-8.71-25.46-19.41v-106.7c0-10.7,11.42-19.41,25.46-19.41h4.77c14.04,0,25.47,8.71,25.47,19.41v106.7c0,10.7-11.42,19.41-25.47,19.41Z"/>
    <g>
      <path class="cls-1" d="m723.78,362.77v-3.41h1.79v3.41h-1.79Zm0-9.54v-3.41h1.79v3.41h-1.79Zm0-9.54v-3.41h1.79v3.41h-1.79Zm0-9.53v-3.41h1.79v3.41h-1.79Zm0-9.54v-3.41h1.79v3.41h-1.79Zm0-9.54v-3.41h1.79v3.41h-1.79Zm0-9.54v-3.41h1.79v3.41h-1.79Zm0-9.53v-3.41h1.79v3.41h-1.79Zm0-9.54v-3.41h1.79v3.41h-1.79Zm0-9.54v-3.41h1.79v3.41h-1.79Zm0-9.54v-3.41h1.79v3.41h-1.79Zm0-10.98v-3.41h1.79v3.41h-1.79Zm.29,112.53l1.78-.17c.18,1.11.45,2.21.8,3.26l-1.73.33c-.37-1.11-.65-2.26-.85-3.42Zm3.69,9.3l1.6-.61c.65,1,1.39,1.98,2.17,2.88l-1.49.75c-.83-.95-1.59-1.97-2.28-3.02Zm7.45,7.88l1.27-.96c1.01.78,2.11,1.53,3.24,2.22l-1.12,1.06c-1.19-.73-2.33-1.51-3.39-2.33Zm7.09-152.61c1.25-.62,2.59-1.19,3.97-1.71l.8,1.22c-1.32.5-2.6,1.05-3.8,1.64l-.97-1.15Zm3.16,158.36l.83-1.2c1.29.52,2.62.98,3.97,1.38l-.66,1.27c-1.4-.42-2.8-.91-4.15-1.45Zm8.47-162.32c1.46-.3,2.96-.56,4.44-.75l.3,1.34c-1.43.18-2.86.42-4.27.72l-.47-1.32Zm3.55,165.5l.34-1.34c1.45.21,2.9.36,4.33.45l-.15,1.35c-1.48-.09-3-.25-4.51-.47Zm9.05-165.35v-1.37h4.47v1.37h-4.47Zm3.58,165.95v-1.36h.65c1.26,0,2.51-.04,3.74-.12l.16,1.35c-1.28.09-2.59.13-3.9.13h-.65Zm8.71-165.36l.34-1.34c1.49.22,2.98.5,4.42.83l-.52,1.31c-1.39-.32-2.82-.59-4.24-.81Zm3.41,162.79c1.41-.31,2.8-.67,4.14-1.08l.66,1.27c-1.39.42-2.84.8-4.31,1.11l-.49-1.31Zm8.1-159.71l.83-1.2c1.34.54,2.65,1.14,3.91,1.79l-1.01,1.13c-1.19-.62-2.45-1.2-3.74-1.72Zm9.77,5.53l1.28-.96c1.07.83,2.09,1.72,3.01,2.61l-1.4.84c-.89-.86-1.86-1.7-2.89-2.5Zm7.08,7.55l1.6-.6c.67,1.04,1.27,2.12,1.77,3.21l-1.69.45c-.48-1.04-1.04-2.07-1.68-3.07Zm3.47,8.88l1.78-.16c.18,1.16.27,2.33.27,3.47v2.49h-1.79v-2.49c0-1.09-.09-2.2-.26-3.31Zm.25,110.66v-3.39h1.8v3.42s-1.8-.03-1.8-.03Zm0,13.31v-3.39h1.8v3.42s-1.8-.03-1.8-.03Zm0,13.31v-3.39h1.8v3.42s-1.8-.03-1.8-.03Zm.01-36.14v-3.4h1.79v3.4h-1.79Zm0-9.53v-3.41h1.79v3.41h-1.79Zm0-9.54v-3.41h1.79v3.41h-1.79Zm0-9.54v-3.41h1.79v3.41h-1.79Zm0-9.54v-3.4h1.79v3.4h-1.79Zm0-9.53v-3.41h1.79v3.41h-1.79Zm0-9.54v-3.41h1.79v3.41h-1.79Zm0-9.54v-3.41h1.79v3.41h-1.79Zm0-9.54v-3.4h1.79v3.4h-1.79Zm0-9.53v-3.41h1.79v3.41h-1.79Z"/>
      <path class="cls-1" d="m725.86,226.37v-3.41h1.79v3.41h-1.79Zm0,10.02v-3.41h1.79v3.41h-1.79Zm0-19.55v-3.41h1.79v3.41h-1.79Zm0-9.53v-3.41h1.79v3.41h-1.79Zm0-9.54v-3.41h1.79v3.41h-1.79Zm0-9.54v-3.41h1.79v3.41h-1.79Zm0-9.54v-3.41h1.79v3.41h-1.79Zm0-9.53v-3.41h1.79v3.41h-1.79Zm0-9.54v-3.41h1.79v3.41h-1.79Z"/>
      <path class="cls-1" d="m808.36,464.01v-3.41h1.79v3.41h-1.79Zm0-9.53v-3.41h1.79v3.41h-1.79Zm0-9.54v-3.41h1.79v3.41h-1.79Zm0-9.54v-3.41h1.79v3.41h-1.79Zm0-9.54v-3.41h1.79v3.41h-1.79Zm0-9.53v-3.41h1.79v3.41h-1.79Zm0-9.54v-3.41h1.79v3.41h-1.79Z"/>
    </g>
  </g>
  <g>
    <g>
      <path class="cls-2" d="m682.89,11.37h0c-13.59,0-24.65,8.43-24.65,18.79,0,.28.02.56.04.83-.02.28-.04.55-.04.83v33.98c0,9.59-8.14,17.52-18.6,18.65-.13.01-.26.03-.4.04-.15.01-.3.02-.45.03-.21.02-.42.03-.63.04-.2,0-.41,0-.61.01-.16,0-.31.01-.47.01-5.48,0-10.68-1.87-14.66-5.28-4.19-3.59-6.5-8.39-6.5-13.51V31.83c0-10.36-11.06-18.79-24.65-18.79s-24.65,8.43-24.65,18.79v33.98c0,5.13-2.31,9.93-6.5,13.51-.29.25-.6.47-.9.7-.22.17-.43.35-.66.51-.28.2-.57.37-.86.55-.27.17-.52.35-.8.51-.25.15-.52.27-.78.4-.32.17-.64.35-.97.5-.22.1-.44.18-.67.27-.38.16-.76.33-1.16.47-.19.07-.4.12-.59.18-.43.14-.86.29-1.3.4-.19.05-.39.08-.59.13-.45.11-.9.22-1.37.3-.21.04-.43.05-.64.08-.45.07-.9.14-1.36.18-.67.06-1.35.09-2.04.09-11.67,0-21.16-8.43-21.16-18.79V31.83c0-.28-.02-.56-.04-.83.02-.28.04-.55.04-.83,0-10.36-11.06-18.79-24.65-18.79h-75.88v37.58h51.23v16.86c0,31.08,31.61,56.37,70.46,56.37,1.1,0,2.21-.02,3.31-.07.73-.03,1.46-.07,2.18-.12.31-.02.62-.03.93-.06,14.62-1.05,28.26-5.66,39.4-13.34.81.55,1.64,1.09,2.48,1.62.18.11.37.22.55.33.71.44,1.43.86,2.17,1.28.33.19.67.36,1,.54.6.33,1.2.65,1.81.96.38.19.76.38,1.14.56.58.29,1.17.57,1.77.84.4.18.79.36,1.2.53.6.26,1.2.51,1.81.76.4.16.79.32,1.19.48.65.25,1.3.49,1.96.73.37.13.73.27,1.11.4.81.28,1.63.54,2.46.79.22.07.44.14.66.21,1.05.31,2.1.6,3.16.87.31.08.63.15.94.22.76.19,1.52.37,2.29.53.41.09.82.17,1.23.25.68.14,1.36.27,2.05.39.44.08.88.15,1.33.22.67.11,1.34.2,2.01.29.45.06.9.12,1.35.17.69.08,1.37.15,2.06.22.43.04.87.08,1.3.12.75.06,1.51.1,2.27.14.37.02.74.05,1.11.06,1.13.04,2.26.07,3.39.07h0c38.85,0,70.46-25.29,70.46-56.37v-16.86h51.23V11.37h-75.88Z"/>
      <path class="cls-5" d="m682.89,16.97c-9.56,0-17.31,5.91-17.31,13.19,0,.28.03.56.06.83-.02.28-.06.55-.06.83v33.98c0,13.45-12.78,24.39-28.5,24.39h0c-7.86,0-14.98-2.74-20.14-7.15-5.16-4.42-8.36-10.51-8.36-17.24V31.83c0-7.29-7.75-13.19-17.31-13.19s-17.31,5.91-17.31,13.19v33.98c0,6.72-3.2,12.82-8.36,17.24-5.16,4.42-12.29,7.15-20.14,7.15h0c-15.71,0-28.5-10.94-28.5-24.39V31.83c0-.28-.03-.56-.06-.83.02-.28.06-.55.06-.83,0-7.29-7.75-13.19-17.31-13.19h-75.88v26.39h58.57v22.46c0,28,28.32,50.78,63.12,50.78,18.02,0,34.3-6.12,45.81-15.9,11.51,9.78,27.78,15.9,45.81,15.9,34.8,0,63.12-22.78,63.12-50.78v-22.46h58.57v-26.39h-75.88Z"/>
    </g>
    <g>
      <path class="cls-1" d="m545.46,105.39h-1.08s.04-1.61.04-1.61h1.04c1.36.01,2.74-.04,4.08-.13l.2,1.59c-1.41.1-2.85.16-4.28.16Zm95.74-.15l-.19-1.59c1.69-.12,3.39-.31,5.06-.58l.43,1.57c-1.75.28-3.53.48-5.3.61Zm-9.64-.11c-1.78-.17-3.56-.41-5.28-.73l.5-1.56c1.64.31,3.33.54,5.03.7l-.26,1.59Zm-96.74-.71c-1.73-.32-3.46-.72-5.13-1.19l.73-1.5c1.59.45,3.24.83,4.89,1.13l-.49,1.56Zm24.38-.65l-.64-1.52c1.63-.39,3.24-.87,4.78-1.4l.86,1.46c-1.62.56-3.3,1.05-5,1.47Zm96.48-1.42l-.86-1.46c1.57-.53,3.1-1.14,4.55-1.8l1.07,1.38c-1.52.68-3.12,1.32-4.76,1.87Zm-38.47-.45c-1.58-.58-3.16-1.25-4.68-1.99l1.12-1.35c1.45.7,2.96,1.34,4.47,1.9l-.91,1.43Zm-96.17-1.92c-1.48-.71-2.96-1.51-4.37-2.36l1.31-1.26c1.35.82,2.75,1.58,4.18,2.26l-1.12,1.36Zm51.48-1.37l-1.23-1.29c1.35-.75,2.68-1.58,3.97-2.48l1.42,1.18c-1.35.93-2.74,1.81-4.16,2.59Zm95.67-2.49l-1.4-1.19c1.25-.86,2.47-1.79,3.62-2.76l1.56,1.07c-1.2,1.02-2.48,2-3.78,2.89Zm-63.22-.75c-.94-.7-1.86-1.41-2.75-2.17l-.91-.77,1.56-1.07.91.77c.85.72,1.74,1.42,2.64,2.08l-1.45,1.16Zm-95.2-2.85c-1.15-1.02-2.24-2.11-3.26-3.23l1.73-.91c.97,1.08,2.02,2.12,3.12,3.1l-1.59,1.05Zm73.48-1.78l-1.56-1.07,3.51-2.98,1.56,1.07-3.51,2.98Zm94.46-3.4l-1.79-.83c.88-1.1,1.7-2.26,2.44-3.44l1.9.69c-.77,1.23-1.62,2.44-2.55,3.59Zm-82.71-.27l-3.5-2.98,1.56-1.07,3.5,2.98-1.56,1.07Zm-93.2-4.18c-.73-1.23-1.38-2.51-1.94-3.8l1.99-.5c.54,1.24,1.17,2.47,1.86,3.65l-1.91.66Zm181.8-6.02l-2.02-.42c.44-1.24.81-2.52,1.1-3.82l2.06.27c-.3,1.35-.69,2.69-1.15,3.98Zm-185.96-4.91c-.26-1.35-.43-2.71-.52-4.05l2.09-.08c.08,1.3.25,2.61.5,3.9l-2.07.23Zm187.89-6.36h-2.1v-4h2.1v4Zm-186.38-4.93h-2.1v-4h2.1v4Zm186.38-6.27h-2.1v-4h2.1v4Zm-186.38-4.93h-2.1v-4h2.1v4Zm186.38-6.27h-2.1v-4h2.1v4Zm-186.38-4.93h-2.1v-3.99h2.1v3.99Zm248.45-6.13h-5.25v-1.6h5.25v1.6Zm-14.69,0h-5.25v-1.6h5.25v1.6Zm-14.69,0h-5.25v-1.6h5.25v1.6Zm-14.69,0h-5.25v-1.6h5.25v1.6Zm-14.69,0h-4.37v-.13h-1.05v-1.47h5.42v1.6Zm-196.33,0h-5.24v-1.6h5.24v1.6Zm-14.69,0h-5.25v-1.6h5.25v1.6Zm-14.69,0h-5.24v-1.6h5.24v1.6Zm-14.69,0h-5.25v-1.6h5.25v1.6Zm-14.69,0h-5.24v-1.6h5.24v1.6Z"/>
      <path class="cls-1" d="m592.32,77.68h-2.1v-4h2.1v4Zm0-11.2h-2.1v-4h2.1v4Zm0-11.19h-2.1v-4h2.1v4Zm0-11.2h-2.1v-4h2.1v4Zm0-11.2h-2.1v-3.6h2.1v3.6Z"/>
    </g>
  </g>
  <g>
    <path class="cls-2" d="m258.32,237.6v-79.69h89.17c17.06,0,30.95-10.58,30.95-23.59v-3.73c0-13.01-13.88-23.59-30.95-23.59h-89.17V.85h48.78v70.17h40.39c43.1,0,78.16,26.72,78.16,59.57v3.73c0,32.85-35.06,59.57-78.16,59.57h-40.39v43.71h-48.78Z"/>
    <path class="cls-5" d="m347.49,76.61h-47.73V.85h-34.1v100.55h81.83c21.11,0,38.29,13.09,38.29,29.19v3.73c0,16.09-17.18,29.19-38.29,29.19h-81.83v74.1h34.1v-49.31h47.73c39.05,0,70.81-24.21,70.81-53.97v-3.73c0-29.76-31.77-53.97-70.81-53.97Z"/>
    <path class="cls-1" d="m285.07,229.77h-2.1v-4h2.1v4Zm0-11.2h-2.1v-4h2.1v4Zm0-11.2h-2.1v-4h2.1v4Zm0-11.2h-2.1v-3.99h2.1v3.99Zm0-11.19h-2.1v-4h2.1v4Zm62.42-7.9h-1.44v-1.6h1.44c1.26,0,2.49-.03,3.72-.09l.15,1.59c-1.28.07-2.57.11-3.87.11Zm-10.89,0h-5.25v-1.6h5.25v1.6Zm-14.69,0h-5.25v-1.6h5.25v1.6Zm-14.69,0h-5.24v-1.6h5.24v1.6Zm-14.69,0h-5.25v-1.6h5.25v1.6Zm68.31-1.22l-.5-1.56c1.67-.31,3.33-.68,4.92-1.11l.7,1.51c-1.66.44-3.38.83-5.12,1.16Zm13.88-4.16l-1.02-1.4c1.48-.62,2.95-1.32,4.36-2.06l1.2,1.31c-1.47.78-3.01,1.5-4.54,2.15Zm11.95-6.81l-1.46-1.15c1.22-.91,2.4-1.87,3.5-2.87l1.61,1.03c-1.15,1.03-2.37,2.04-3.65,2.98Zm9.22-8.95l-1.81-.81c.88-1.14,1.68-2.3,2.39-3.47l1.9.68c-.74,1.21-1.58,2.41-2.48,3.6Zm5.79-10.48l-2.03-.41c.45-1.3.83-2.59,1.09-3.83l2.07.27c-.29,1.29-.67,2.63-1.14,3.97Zm1.93-11.27h-2.1v-3.99h2.1v3.99Zm-2.97-11.01c-.31-1.29-.7-2.57-1.16-3.81l2.01-.43c.48,1.29.89,2.63,1.2,3.96l-2.06.29Zm-4.44-10.41c-.75-1.19-1.57-2.35-2.44-3.44l1.8-.83c.9,1.14,1.76,2.34,2.55,3.58l-1.9.69Zm-7.88-9.15c-1.16-1.01-2.35-1.96-3.55-2.83l1.45-1.16c1.24.9,2.48,1.89,3.68,2.94l-1.58,1.05Zm-10.77-7.26c-1.42-.72-2.9-1.41-4.39-2.02l.99-1.4c1.56.64,3.09,1.35,4.57,2.1l-1.17,1.32Zm-12.86-4.83c-1.64-.42-3.31-.77-4.96-1.07l.48-1.56c1.7.31,3.43.68,5.13,1.11l-.66,1.51Zm-14.11-2.07c-1.01-.04-2.05-.07-3.09-.07h-2.1v-1.6h2.1c1.08,0,2.15.02,3.2.07l-.12,1.6Zm-14.63-.07h-5.25v-1.6h5.25v1.6Zm-14.68,0h-5.25v-1.6h5.25v1.6Zm-14.69,0h-5.25v-1.6h5.25v1.6Zm-14.69,0h-5.25v-1.6h5.25v1.6Zm-6.82-6h-2.1v-4h2.1v4Zm0-11.2h-2.1v-4h2.1v4Zm0-11.2h-2.1v-4h2.1v4Zm0-11.19h-2.1v-4h2.1v4Zm0-11.2h-2.1v-4h2.1v4Zm0-11.2h-2.1v-4h2.1v4Zm0-11.2h-2.1v-4h2.1v4Zm0-11.19h-2.1V1.05h2.1v4Z"/>
  </g>
  <g>
    <g>
      <path class="cls-2" d="m111.18,399.75v-50.49c-16.28-5.3-29.36-15.27-36.31-27.68H8.62v-41.05h66.24c6.96-12.4,20.04-22.38,36.31-27.68v-50.49h53.86v50.49c16.28,5.3,29.36,15.27,36.31,27.68h66.24v41.05h-66.24c-6.96,12.4-20.04,22.38-36.31,27.68v50.49h-53.86Zm26.93-110.05c-8.21,0-14.9,5.09-14.9,11.35s6.68,11.35,14.9,11.35,14.9-5.09,14.9-11.35-6.68-11.35-14.9-11.35Z"/>
      <path class="cls-5" d="m195.81,286.65c-6.01-13.95-20.5-24.99-38.8-29.57v-54.71h-37.82v54.71c-18.3,4.58-32.78,15.62-38.8,29.57H8.62v28.82h71.78c6.01,13.95,20.5,24.99,38.8,29.57v54.71h37.82v-54.71c18.3-4.58,32.78-15.62,38.8-29.57h71.78v-28.82h-71.78Zm-57.7,31.88c-12.64,0-22.92-7.84-22.92-17.47s10.28-17.47,22.92-17.47,22.92,7.84,22.92,17.47-10.28,17.47-22.92,17.47Z"/>
    </g>
    <g>
      <path class="cls-1" d="m138.11,333.38c-.44,0-.88,0-1.31-.02l.08-1.75c1.88.05,3.71,0,5.55-.15l.24,1.74c-1.51.12-3.05.18-4.57.18Zm-11.74-1.26c-1.86-.41-3.72-.93-5.53-1.54l.94-1.59c1.7.58,3.46,1.07,5.23,1.46l-.64,1.68Zm26.61-.78l-.81-1.64c1.73-.49,3.43-1.09,5.07-1.76l1.1,1.53c-1.73.72-3.53,1.34-5.36,1.87Zm-41.16-4.94c-1.52-.92-2.99-1.93-4.35-3.03l1.66-1.2c1.29,1.03,2.68,1.99,4.11,2.85l-1.42,1.37Zm55.09-1.63l-1.56-1.28c1.34-.95,2.62-1.99,3.82-3.09l1.77,1.11c-1.26,1.17-2.61,2.27-4.02,3.26Zm-65.74-7.86c-.96-1.28-1.81-2.65-2.53-4.05l2.14-.64c.69,1.33,1.49,2.62,2.39,3.83l-1.99.86Zm75.39-2.22l-2.07-.74c.77-1.26,1.44-2.59,2-3.95l2.18.51c-.58,1.45-1.29,2.85-2.11,4.19Zm-80.53-9.64c-.21-1.29-.32-2.63-.32-3.98v-.48h2.3v.48c0,1.28.1,2.54.3,3.76l-2.28.22Zm84.43-2.49l-2.3-.09c.03-.47.05-.94.05-1.41,0-.95-.06-1.9-.17-2.83l2.28-.17c.13.99.18,1.99.18,3,0,.5-.02,1-.05,1.49Zm-81.07-9.51l-2.22-.46c.53-1.45,1.18-2.87,1.94-4.23l2.1.69c-.73,1.29-1.34,2.64-1.83,4Zm76.49-2.26c-.62-1.32-1.38-2.63-2.24-3.88l2.03-.81c.92,1.33,1.71,2.71,2.37,4.11l-2.15.58Zm-69.6-8.32l-1.82-1.07c1.2-1.18,2.51-2.31,3.9-3.36l1.61,1.25c-1.31.98-2.56,2.05-3.69,3.18Zm61.65-1.82c-1.23-1.04-2.58-2.04-3.99-2.97l1.48-1.32c1.51.97,2.93,2.02,4.22,3.12l-1.71,1.17Zm-50.02-6l-1.15-1.51c1.7-.76,3.47-1.43,5.27-1.99l.88,1.62c-1.7.53-3.38,1.17-5,1.88Zm37.65-1.12c-1.67-.62-3.41-1.15-5.16-1.58l.7-1.66c1.86.46,3.7,1.02,5.47,1.68l-1,1.57Zm-23.01-2.76l-.3-1.73c2.83-.3,5.72-.36,8.47-.25l-.13,1.75c-2.67-.12-5.36-.05-8.04.22Z"/>
      <path class="cls-1" d="m139.25,254.44h-2.3v-4.37h2.3v4.37Zm0-12.23h-2.3v-4.37h2.3v4.37Zm0-12.22h-2.3v-4.37h2.3v4.37Zm0-12.23h-2.3v-4.37h2.3v4.37Zm0-11.02h-2.3v-4.37h2.3v4.37Z"/>
      <path class="cls-1" d="m139.25,398.46h-2.3v-4.75h2.3v4.75Zm0-13.3h-2.3v-4.75h2.3v4.75Zm0-13.31h-2.3v-4.75h2.3v4.75Zm0-13.31h-2.3v-4.75h2.3v4.75Z"/>
      <path class="cls-1" d="m78.71,301.93h-5.73v-1.75h5.73v1.75Zm-16.05,0h-5.73v-1.75h5.73v1.75Zm-16.04,0h-5.73v-1.75h5.73v1.75Zm-16.05,0h-5.73v-1.75h5.73v1.75Zm-16.04,0h-5.73v-1.75h5.73v1.75Z"/>
      <path class="cls-1" d="m258.86,301.93h-5.73v-1.75h5.73v1.75Zm-16.05,0h-5.73v-1.75h5.73v1.75Zm-16.04,0h-5.73v-1.75h5.73v1.75Zm-16.05,0h-5.73v-1.75h5.73v1.75Z"/>
    </g>
    <path class="cls-1" d="m138.11,333.38c-.44,0-.88,0-1.31-.02l.08-1.75c1.88.05,3.71,0,5.55-.15l.24,1.74c-1.51.12-3.05.18-4.57.18Zm-11.74-1.26c-1.86-.41-3.72-.93-5.53-1.54l.94-1.59c1.7.58,3.46,1.07,5.23,1.46l-.64,1.68Zm26.61-.78l-.81-1.64c1.73-.49,3.43-1.09,5.07-1.76l1.1,1.53c-1.73.72-3.53,1.34-5.36,1.87Zm-41.16-4.94c-1.52-.92-2.99-1.93-4.35-3.03l1.66-1.2c1.29,1.03,2.68,1.99,4.11,2.85l-1.42,1.37Zm55.09-1.63l-1.56-1.28c1.34-.95,2.62-1.99,3.82-3.09l1.77,1.11c-1.26,1.17-2.61,2.27-4.02,3.26Zm-65.74-7.86c-.96-1.28-1.81-2.65-2.53-4.05l2.14-.64c.69,1.33,1.49,2.62,2.39,3.83l-1.99.86Zm75.39-2.22l-2.07-.74c.77-1.26,1.44-2.59,2-3.95l2.18.51c-.58,1.45-1.29,2.85-2.11,4.19Zm-80.53-9.64c-.21-1.29-.32-2.63-.32-3.98v-.48h2.3v.48c0,1.28.1,2.54.3,3.76l-2.28.22Zm84.43-2.49l-2.3-.09c.03-.47.05-.94.05-1.41,0-.95-.06-1.9-.17-2.83l2.28-.17c.13.99.18,1.99.18,3,0,.5-.02,1-.05,1.49Zm-81.07-9.51l-2.22-.46c.53-1.45,1.18-2.87,1.94-4.23l2.1.69c-.73,1.29-1.34,2.64-1.83,4Zm76.49-2.26c-.62-1.32-1.38-2.63-2.24-3.88l2.03-.81c.92,1.33,1.71,2.71,2.37,4.11l-2.15.58Zm-69.6-8.32l-1.82-1.07c1.2-1.18,2.51-2.31,3.9-3.36l1.61,1.25c-1.31.98-2.56,2.05-3.69,3.18Zm61.65-1.82c-1.23-1.04-2.58-2.04-3.99-2.97l1.48-1.32c1.51.97,2.93,2.02,4.22,3.12l-1.71,1.17Zm-50.02-6l-1.15-1.51c1.7-.76,3.47-1.43,5.27-1.99l.88,1.62c-1.7.53-3.38,1.17-5,1.88Zm37.65-1.12c-1.67-.62-3.41-1.15-5.16-1.58l.7-1.66c1.86.46,3.7,1.02,5.47,1.68l-1,1.57Zm-23.01-2.76l-.3-1.73c2.83-.3,5.72-.36,8.47-.25l-.13,1.75c-2.67-.12-5.36-.05-8.04.22Z"/>
    <path class="cls-1" d="m139.25,254.44h-2.3v-4.37h2.3v4.37Zm0-12.23h-2.3v-4.37h2.3v4.37Zm0-12.22h-2.3v-4.37h2.3v4.37Zm0-12.23h-2.3v-4.37h2.3v4.37Zm0-11.02h-2.3v-4.37h2.3v4.37Z"/>
    <path class="cls-1" d="m139.25,398.46h-2.3v-4.75h2.3v4.75Zm0-13.3h-2.3v-4.75h2.3v4.75Zm0-13.31h-2.3v-4.75h2.3v4.75Zm0-13.31h-2.3v-4.75h2.3v4.75Z"/>
    <path class="cls-1" d="m78.71,301.93h-5.73v-1.75h5.73v1.75Zm-16.05,0h-5.73v-1.75h5.73v1.75Zm-16.04,0h-5.73v-1.75h5.73v1.75Zm-16.05,0h-5.73v-1.75h5.73v1.75Zm-16.04,0h-5.73v-1.75h5.73v1.75Z"/>
    <path class="cls-1" d="m258.86,301.93h-5.73v-1.75h5.73v1.75Zm-16.05,0h-5.73v-1.75h5.73v1.75Zm-16.04,0h-5.73v-1.75h5.73v1.75Zm-16.05,0h-5.73v-1.75h5.73v1.75Z"/>
  </g>
  <g>
    <g>
      <rect class="cls-2" x="146.15" y="553.88" width="74.89" height="200.1" transform="translate(367.2 1307.85) rotate(180)"/>
      <rect class="cls-5" x="157.43" y="553.88" width="52.34" height="200.1"/>
    </g>
    <g>
      <g>
        <g>
          <rect class="cls-2" x="155.06" y="490.44" width="57.08" height="262.52" transform="translate(805.3 438.1) rotate(90)"/>
          <rect class="cls-5" x="52.34" y="601.75" width="262.52" height="39.9"/>
        </g>
        <path class="cls-1" d="m314.86,622.93h-7.59v-2.46h7.59v2.46Zm-21.24,0h-7.59v-2.46h7.59v2.46Zm-21.25,0h-7.59v-2.46h7.59v2.46Zm-21.25,0h-7.59v-2.46h7.59v2.46Zm-21.25,0h-7.59v-2.46h7.59v2.46Zm-84.98,0h-7.59v-2.46h7.59v2.46Zm-21.25,0h-7.59v-2.46h7.59v2.46Zm-21.25,0h-7.59v-2.46h7.59v2.46Zm-21.25,0h-7.59v-2.46h7.59v2.46Zm-21.25,0h-7.59v-2.46h7.59v2.46Z"/>
        <g>
          <rect class="cls-2" x="155.06" y="554.89" width="57.08" height="262.52" transform="translate(869.75 502.55) rotate(90)"/>
          <rect class="cls-5" x="52.34" y="666.2" width="262.52" height="39.9"/>
        </g>
      </g>
      <path class="cls-1" d="m185.21,750.31h-3.23v-5.57h3.23v5.57Zm0-15.61h-3.23v-5.57h3.23v5.57Zm0-15.61h-3.23v-5.57h3.23v5.57Zm0-15.61h-3.23v-5.57h3.23v5.57Zm0-15.61h-3.23v-5.57h3.23v5.57Zm0-15.61h-3.23v-5.57h3.23v5.57Zm0-15.61h-3.23v-5.57h3.23v5.57Zm0-15.61h-3.23v-5.57h3.23v5.57Zm0-15.61h-3.23v-5.57h3.23v5.57Zm0-15.61h-3.23v-5.57h3.23v5.57Zm0-15.61h-3.23v-5.57h3.23v5.57Zm0-15.61h-3.23v-5.57h3.23v5.57Zm0-15.61h-3.23v-5.57h3.23v5.57Z"/>
      <path class="cls-1" d="m314.86,687.38h-7.59v-2.46h7.59v2.46Zm-21.24,0h-7.59v-2.46h7.59v2.46Zm-21.25,0h-7.59v-2.46h7.59v2.46Zm-21.25,0h-7.59v-2.46h7.59v2.46Zm-21.25,0h-7.59v-2.46h7.59v2.46Zm-84.98,0h-7.59v-2.46h7.59v2.46Zm-21.25,0h-7.59v-2.46h7.59v2.46Zm-21.25,0h-7.59v-2.46h7.59v2.46Zm-21.25,0h-7.59v-2.46h7.59v2.46Zm-21.25,0h-7.59v-2.46h7.59v2.46Z"/>
    </g>
  </g>
  <g>
    <path class="cls-2" d="m341.95,353.68v-38.89c0-23.59,24.13-42.78,53.8-42.78h36.49v37.58h-36.49c-2.03,0-4.49,2.32-4.49,5.2v38.89h-49.31Z"/>
    <path class="cls-5" d="m383.91,353.68h-34.62v-38.89c0-20.5,20.84-37.18,46.45-37.18h36.49v26.39h-36.49c-6.41,0-11.83,4.94-11.83,10.79v38.89Z"/>
    <path class="cls-1" d="m368.18,347.79h-2.1v-4h2.1v4Zm0-11.2h-2.1v-4h2.1v4Zm0-11.2h-2.1v-4h2.1v4Zm.01-11.18l-2.1-.02c.03-1.35.21-2.73.54-4.1l2.06.29c-.3,1.29-.47,2.58-.5,3.84Zm3.41-10.42l-1.87-.72c.81-1.22,1.77-2.4,2.85-3.51l1.68.96c-1.01,1.03-1.9,2.14-2.66,3.28Zm9.14-8.12l-1.21-1.3c1.49-.81,3.07-1.5,4.71-2.07l.86,1.46c-1.51.52-2.99,1.17-4.36,1.91Zm13.1-3.63l-.16-1.59c.69-.04,1.37-.06,2.06-.06h3.26v1.6h-3.26c-.63,0-1.28.02-1.9.05Zm34.54-.05h-5.25v-1.6h5.25v1.6Zm-14.68,0h-5.25v-1.6h5.25v1.6Z"/>
  </g>
  <g>
    <path class="cls-2" d="m570.34,352.8v-38.89c0-23.59-24.13-42.78-53.8-42.78h-36.49v37.58h36.49c2.03,0,4.49,2.32,4.49,5.2v38.89h49.31Z"/>
    <path class="cls-5" d="m528.37,352.8h34.62v-38.89c0-20.5-20.84-37.18-46.45-37.18h-36.49v26.39h36.49c6.41,0,11.83,4.94,11.83,10.79v38.89Z"/>
    <path class="cls-1" d="m546.21,346.91h-2.1v-4h2.1v4Zm0-11.2h-2.1v-4h2.1v4Zm0-11.2h-2.1v-4h2.1v4Zm-2.12-11.18c-.02-1.26-.2-2.55-.5-3.84l2.06-.29c.33,1.37.51,2.75.54,4.11l-2.1.02Zm-3.41-10.42c-.76-1.14-1.66-2.24-2.66-3.28l1.68-.96c1.09,1.11,2.04,2.29,2.85,3.51l-1.87.72Zm-9.14-8.12c-1.38-.75-2.85-1.39-4.36-1.91l.86-1.46c1.64.57,3.23,1.26,4.71,2.07l-1.21,1.3Zm-13.1-3.63c-.63-.03-1.27-.05-1.9-.05h-3.26v-1.6h3.26c.69,0,1.38.02,2.06.06l-.16,1.59Zm-14.61-.05h-5.25v-1.6h5.25v1.6Zm-14.68,0h-5.25v-1.6h5.25v1.6Z"/>
  </g>
  <g>
    <path class="cls-2" d="m623.92,540.02v-27.19c0-13.26-2.82-45.18-28.95-55.28-11.58-4.47-25.63-6.37-40.51-8.38-4.48-.6-9.68-1.31-14.88-2.12l-5.88-.91v-38.67l9.05,1.65c6.56,1.19,13.54,2.14,20.29,3.05,17.77,2.39,36.14,4.87,54.23,11.87,2.27.88,4.49,1.83,6.65,2.86v-63.59h49.31v176.71h-49.31Z"/>
    <path class="cls-5" d="m631.26,363.3v74.82c-5.22-3.61-10.99-6.66-17.31-9.1-17.12-6.62-34.95-9.02-52.19-11.35-7.24-.98-21.42-2.52-28.06-3.73v27.41c4.95.77,17.22,1.65,22.03,2.3,15.43,2.08,30.01,4.05,42.55,8.9,29.76,11.51,32.97,45.99,32.97,60.28v27.19h34.62v-176.71h-34.62Z"/>
    <path class="cls-1" d="m648.05,538.02h-2.1v-4h2.1v4Zm0-11.2h-2.1v-4h2.1v4Zm0-11.2h-2.1v-4h2.1v4Zm0-11.19h-2.1v-4h2.1v4Zm0-11.2h-2.1v-4h2.1v4Zm0-11.2h-2.1v-4h2.1v4Zm0-11.2h-2.1v-4h2.1v4Zm0-11.19h-2.1v-4h2.1v4Zm0-11.2h-2.1v-4h2.1v4Zm0-11.2h-2.1v-4h2.1v4Zm0-11.2h-2.1v-4h2.1v4Zm0-11.19h-2.1v-4h2.1v4Zm0-11.2h-2.1v-4h2.1v4Zm0-11.2h-2.1v-4h2.1v4Zm0-11.2h-2.1v-4h2.1v4Zm0-11.19h-2.1v-4h2.1v4Z"/>
    <path class="cls-1" d="m616.19,447.66c-1.17-.98-2.51-1.95-3.97-2.89l1.46-1.31c1.53.98,2.94,2.01,4.17,3.04l-1.66,1.16Zm-12.13-7.26c-1.57-.71-3.2-1.39-4.9-2.05l1.02-1.53c1.74.68,3.41,1.37,5.03,2.1l-1.15,1.48Zm-14.09-5.21c-1.71-.53-3.47-1.04-5.25-1.53l.77-1.62c1.81.5,3.58,1.02,5.33,1.55l-.85,1.6Zm-14.88-3.94c-1.8-.41-3.6-.8-5.42-1.18l.6-1.66c1.83.38,3.66.77,5.47,1.19l-.64,1.65Zm-15.26-3.05c-1.85-.32-3.69-.63-5.52-.92l.47-1.69c1.84.3,3.69.61,5.55.93l-.5,1.68Zm-15.5-2.4c-1.89-.26-3.75-.5-5.56-.73l.37-1.7c1.82.23,3.7.47,5.6.74l-.41,1.69Z"/>
  </g>
  <g>
    <path class="cls-2" d="m407.61,566.13v-27.19c0-13.26,2.82-45.18,28.95-55.28,11.57-4.47,25.63-6.37,40.51-8.38,4.47-.6,9.68-1.31,14.88-2.12l5.88-.91v-38.67l-9.05,1.65c-6.56,1.19-13.54,2.14-20.29,3.05-17.77,2.39-36.14,4.87-54.23,11.87-2.27.88-4.49,1.83-6.65,2.86v-63.59h-49.31v176.71h49.31Z"/>
    <path class="cls-5" d="m400.27,389.41v74.82c5.22-3.61,10.99-6.66,17.31-9.1,17.12-6.62,34.95-9.02,52.19-11.35,7.24-.98,21.42-2.52,28.06-3.73v27.41c-4.95.77-17.22,1.65-22.03,2.3-15.43,2.08-30.01,4.04-42.56,8.9-29.76,11.51-32.97,45.99-32.97,60.28v27.19h-34.62v-176.71h34.62Z"/>
    <path class="cls-1" d="m383.48,560.13h2.1v4h-2.1v-4Zm0-11.2h2.1v4h-2.1v-4Zm0-11.2h2.1v4h-2.1v-4Zm0-11.19h2.1v4h-2.1v-4Zm0-11.2h2.1v4h-2.1v-4Zm0-11.2h2.1v4h-2.1v-4Zm0-11.2h2.1v4h-2.1v-4Zm0-11.19h2.1v4h-2.1v-4Zm0-11.2h2.1v4h-2.1v-4Zm0-11.2h2.1v4h-2.1v-4Zm0-11.2h2.1v4h-2.1v-4Zm0-11.19h2.1v4h-2.1v-4Zm0-11.2h2.1v4h-2.1v-4Zm0-11.2h2.1v4h-2.1v-4Zm0-11.2h2.1v4h-2.1v-4Zm0-11.19h2.1v4h-2.1v-4Z"/>
    <path class="cls-1" d="m413.68,472.62c1.23-1.03,2.64-2.06,4.17-3.04l1.46,1.31c-1.46.94-2.79,1.91-3.97,2.89l-1.66-1.16Zm12.64-7.59c1.61-.73,3.29-1.42,5.03-2.1l1.02,1.53c-1.69.66-3.33,1.34-4.9,2.05l-1.15-1.48Zm14.4-5.33c1.74-.53,3.52-1.05,5.33-1.55l.77,1.62c-1.78.49-3.54,1-5.25,1.53l-.85-1.6Zm15.08-3.99c1.81-.42,3.63-.81,5.47-1.19l.6,1.66c-1.82.38-3.63.77-5.42,1.18l-.64-1.65Zm15.4-3.09c1.85-.32,3.71-.63,5.55-.93l.47,1.69c-1.82.29-3.66.6-5.52.92l-.5-1.68Zm15.59-2.41c1.9-.27,3.78-.51,5.6-.74l.36,1.7c-1.81.23-3.67.47-5.56.73l-.41-1.69Z"/>
  </g>
  <g>
    <g>
      <polygon class="cls-2" points="675.59 613.16 606.61 641.09 680.28 739.82 680.28 725.46 619.44 643.92 680.28 619.15 680.28 614.84 680.28 614.31 680.28 611.27 679.63 611.53 675.59 613.16"/>
      <path class="cls-2" d="m667.59,759.1h-.03s-24.99-33.48-24.99-33.48h-112.88l-30.25-40.41-32.87,14.06-10.97-15.91,32.15-13.75-41.21-55.05-6.77,2.82-.08.03c-12.24,4.9-18.72,11.36-19.81,19.76-.66,5.05.95,9.39,1.46,10.6l.09.21,26.6,38.62.05-.02,10.96,15.91-.05.02,5.94,8.62c4.39,6.37,5.26,13.67,2.45,20.54-2.81,6.87-8.96,12.5-17.32,15.85-5.04,2.02-10.7,3.08-16.37,3.08-13.22,0-25.24-5.52-31.37-14.42-4.39-6.37-5.26-13.67-2.45-20.54,2.79-6.82,8.87-12.42,17.13-15.77l2.92-1.25,10.96,15.91-2.78,1.18c-2.76,1.12-4.79,2.99-5.73,5.27-.94,2.29-.65,4.72.81,6.85,2.04,2.96,6.05,4.81,10.45,4.81,1.89,0,3.78-.36,5.46-1.03,5.75-2.3,7.98-7.74,4.96-12.13l-5.62-8.16h-.03s-10.98-15.91-10.98-15.91h.03s-27.49-39.92-27.49-39.92l-.21-.39c-.49-.9-4.72-9.12-3.34-19.69.84-6.47,3.59-12.46,8.16-17.81,5.51-6.45,13.6-11.84,24.04-16.04l92.61-38.53-6.81-9.12h-10.72l4.74,6.35-84.2,35.03c-11.84,4.76-21.08,10.96-27.46,18.43-5.4,6.32-8.64,13.38-9.63,20.99-1.56,12.03,3.06,21.35,4,23.1l.37.69,23.48,34.09-2.45,1.05c-10.41,4.24-18.08,11.31-21.59,19.9-3.55,8.68-2.45,17.9,3.1,25.95,7.74,11.24,22.92,18.22,39.62,18.22,7.17,0,14.33-1.35,20.7-3.9,10.57-4.23,18.34-11.34,21.89-20.02,3.55-8.68,2.45-17.9-3.1-25.95l-1.72-2.49.05-.02h0s24.42-10.45,24.42-10.45l28.35,37.86h112.87l21.31,28.56h10.76l-1.63-2.18Zm-215.72-82.29l-.04.02-21.75-31.58c-.42-1.1-1.36-4.06-.92-7.38.74-5.69,5.14-10.07,13.82-13.74l32.03,42.79-23.13,9.89h0Zm-20.6,46.28c.11-.28.42-.79,1.21-1.11l.07-.03,2.08-.89,1.18,1.71c.63.92.17,2.06-1.04,2.54-.36.14-.74.21-1.13.21-.73,0-1.69-.26-2.2-1.01-.41-.6-.28-1.15-.17-1.43Z"/>
      <path class="cls-2" d="m543.37,707.65h85.79l-43.35-58.09-65.86,26.81,23.42,31.28Zm69.77-7.1h-64.36l-15.98-21.35,49.4-20.11,30.94,41.46Z"/>
      <path class="cls-2" d="m508.3,660.81l3.15-1.35,62.7-25.53-41.27-55.31-65.66,27.31,41.08,54.87Zm53.02-29.7l-49.45,20.13-31.84-42.53,49.28-20.5,32.01,42.9Z"/>
      <polygon class="cls-2" points="655.13 601.06 655.13 592.92 655.13 553.89 652.71 553.89 652.71 553.92 648.39 553.92 648.39 594.24 648.39 595.66 598.56 615.95 552.26 553.89 541.54 553.89 594.95 625.47 655.13 601.06"/>
      <path class="cls-5" d="m428.62,601.54c-10.44,4.19-18.53,9.59-24.04,16.04-4.57,5.35-7.32,11.35-8.16,17.81-1.37,10.57,2.86,18.79,3.34,19.69l.21.39,27.49,39.91h-.03s10.98,15.94,10.98,15.94h.03s5.62,8.15,5.62,8.15c3.02,4.38.8,9.83-4.96,12.13-1.68.67-3.57,1.03-5.46,1.03-4.4,0-8.41-1.84-10.45-4.81-1.46-2.12-1.75-4.55-.81-6.85.93-2.28,2.97-4.15,5.73-5.27l2.78-1.18-10.96-15.91-2.92,1.25c-8.26,3.35-14.35,8.95-17.13,15.77-2.81,6.87-1.94,14.17,2.45,20.54,6.13,8.89,18.15,14.42,31.37,14.42,5.67,0,11.33-1.07,16.37-3.08,8.36-3.35,14.51-8.97,17.32-15.85,2.81-6.87,1.94-14.17-2.45-20.54l-5.94-8.62.05-.02-10.96-15.91-.05.02-26.6-38.62-.09-.21c-.51-1.21-2.12-5.55-1.46-10.6,1.09-8.4,7.57-14.86,19.81-19.76l.08-.03,6.77-2.82,41.21,55.05-32.15,13.75,10.97,15.91,32.87-14.06,30.25,40.41h112.88l25.02,33.48,1.63,2.18h11.06v-21.45l-73.67-98.73,68.98-27.93,4.04-1.64.65-.26v-20.01l-11.63,4.33v-5.14h-.01v-36.55h-13.51v47.17l-60.18,24.41-53.42-71.58h-27.12l6.81,9.12-92.61,38.53Zm200.54,106.11h-85.79l-23.42-31.28,65.86-26.81,43.35,58.09Zm-55-73.71l-62.7,25.53-3.15,1.35-41.08-54.87,65.66-27.31,41.27,55.31Z"/>
      <polygon class="cls-2" points="668.65 590.45 668.65 592.63 668.65 592.74 668.65 595.58 680.28 591.26 680.28 590.86 680.28 584.11 675.59 585.77 675.59 585.01 675.59 583.81 675.59 565.54 675.59 555.5 675.59 553.89 668.63 553.89 668.63 590.45 668.65 590.45"/>
    </g>
    <g>
      <g>
        <path class="cls-3" d="m441.4,694.71l-1.53-2.22.73-.29,1.53,2.22-.73.29Zm-2.8-4.07l-1.53-2.22.73-.29,1.53,2.22-.73.29Zm-2.8-4.07l-1.53-2.22.73-.29,1.53,2.22-.73.29Zm-2.8-4.07l-1.53-2.22.73-.29,1.53,2.22-.73.29Zm-2.8-4.07l-1.53-2.22.73-.29,1.53,2.22-.73.29Zm-2.8-4.07l-1.53-2.22.73-.29,1.53,2.22-.73.29Zm-2.8-4.07l-1.53-2.22.73-.29,1.53,2.22-.73.29Zm-2.8-4.07l-1.53-2.22.73-.29,1.53,2.22-.73.29Zm-2.8-4.07l-1.53-2.22.73-.29,1.53,2.22-.73.29Zm-2.8-4.07l-1.53-2.22.73-.29,1.53,2.22-.73.29Zm-2.8-4.07l-1.53-2.22.73-.29,1.53,2.22-.73.29Zm-2.54-4.22c-.3-.77-.58-1.6-.83-2.45l.8-.13c.24.84.51,1.64.81,2.4l-.79.18Zm-1.34-4.52c-.17-.83-.31-1.67-.41-2.51l.82-.06c.1.82.23,1.65.4,2.47l-.81.1Zm-.58-4.61c-.01-.36-.02-.73-.02-1.09,0-.48.01-.97.04-1.44l.82.03c-.03.47-.04.94-.04,1.41,0,.35,0,.71.02,1.07l-.82.02Zm1.04-4.56l-.82-.07c.12-.84.28-1.69.48-2.5l.81.12c-.2.8-.36,1.63-.47,2.45Zm1.06-4.47l-.8-.16c.28-.82.61-1.63.97-2.42l.78.21c-.36.77-.68,1.57-.95,2.37Zm1.94-4.29l-.75-.25c.44-.77.93-1.53,1.46-2.27l.72.3c-.52.72-1,1.47-1.43,2.22Zm2.81-4l-.69-.34c.59-.7,1.23-1.4,1.91-2.07l.65.38c-.66.66-1.29,1.34-1.87,2.03Zm3.59-3.63l-.62-.41c.72-.62,1.48-1.24,2.28-1.84l.58.45c-.78.58-1.53,1.19-2.24,1.8Zm4.23-3.21l-.54-.47c.82-.54,1.68-1.08,2.56-1.6l.5.5c-.87.51-1.72,1.04-2.52,1.57Zm4.72-2.79l-.47-.52c.89-.47,1.82-.93,2.77-1.38l.43.53c-.94.44-1.86.9-2.73,1.36Zm5.08-2.41l-.4-.55c.54-.23,1.09-.46,1.65-.68l1.25-.52.39.55-1.25.52c-.55.22-1.1.45-1.63.67Zm5.29-2.2l-.39-.55,2.89-1.2.39.55-2.89,1.2Zm5.29-2.2l-.39-.55,2.89-1.2.39.55-2.89,1.2Zm6.03-2.92l-.39-.55,2.89-1.2.39.55-2.89,1.2Z"/>
        <polygon class="cls-3" points="445.46 700.61 444.51 699.23 444.56 699.2 443.69 697.95 443.64 697.97 442.68 696.57 443.41 696.28 443.98 697.11 444.02 697.09 445.66 699.45 445.61 699.47 446.19 700.31 445.46 700.61"/>
        <path class="cls-3" d="m433.69,742.96h-.14v-.63h.14c1.03,0,2.07-.05,3.1-.15l.11.62c-1.06.11-2.14.16-3.21.16Zm-2.92-.13c-1.11-.1-2.22-.25-3.3-.45l.2-.61c1.04.2,2.12.35,3.19.44l-.09.62Zm8.88-.42l-.19-.61c1.05-.2,2.09-.45,3.09-.74l.3.58c-1.04.31-2.11.57-3.2.77Zm-14.85-.66c-1.05-.3-2.07-.65-3.06-1.04l.38-.55c.95.38,1.95.72,2.96,1.01l-.29.59Zm20.58-.99l-.37-.56c.97-.39,1.89-.82,2.76-1.28l.47.51c-.9.48-1.85.92-2.83,1.32h-.03Zm-26.03-1.14c-.92-.48-1.81-1.01-2.64-1.57l.55-.47c.8.55,1.66,1.06,2.55,1.52l-.46.52Zm31.09-1.49l-.54-.47c.81-.54,1.58-1.13,2.28-1.75l.62.41c-.73.64-1.52,1.25-2.36,1.81Zm-35.7-1.58c-.74-.63-1.44-1.31-2.06-2.01l.68-.35c.61.68,1.28,1.33,2,1.95l-.61.42Zm39.77-1.91l-.68-.36c.61-.68,1.17-1.39,1.65-2.12l.73.28c-.5.76-1.08,1.5-1.71,2.2Zm-43.27-1.92l-.05-.07c-.5-.73-.95-1.49-1.32-2.26l.77-.22c.36.74.79,1.48,1.28,2.18l.05.07-.73.29Zm46.11-2.22l-.77-.22c.17-.34.33-.7.47-1.05.18-.43.34-.87.47-1.31l.8.14c-.14.45-.3.91-.49,1.36-.15.36-.31.73-.49,1.08Zm-48.32-2.14c-.27-.82-.48-1.67-.6-2.51l.82-.07c.12.82.32,1.63.58,2.43l-.8.15Zm49.78-2.4l-.82-.07c.12-.74.18-1.49.18-2.24,0-.08,0-.15,0-.23h.82c0,.07,0,.15,0,.23,0,.77-.06,1.55-.18,2.31Zm-49.72-2.24h-.82v-.03c0-.84.07-1.68.22-2.52l.82.08c-.14.81-.21,1.62-.21,2.43v.03Zm48.9-2.36c-.13-.81-.34-1.63-.61-2.43l.79-.16c.29.82.5,1.67.64,2.51l-.82.08Zm-48.18-2.13l-.8-.15c.13-.39.27-.78.42-1.16.18-.43.37-.86.58-1.27l.77.23c-.21.4-.4.82-.56,1.23-.15.37-.29.75-.41,1.12Zm46.74-2.26c-.34-.68-.74-1.35-1.19-2l-.17-.25.73-.29.17.25c.46.67.88,1.37,1.23,2.07l-.77.22Zm-44.65-1.98l-.73-.29c.52-.76,1.1-1.49,1.74-2.18l.67.36c-.62.67-1.19,1.38-1.68,2.11Zm42.01-2.12l-1.53-2.23.73-.29,1.53,2.23-.73.29Zm-2.81-4.08l-1.53-2.23.73-.29,1.53,2.23-.73.29Zm-2.81-4.08l-1.53-2.23.73-.29,1.53,2.23-.73.29Z"/>
        <path class="cls-3" d="m415.26,711.24l-.62-.42c.37-.31.75-.63,1.15-.92l.58.45c-.38.29-.76.59-1.11.9Z"/>
      </g>
      <g>
        <rect class="cls-3" x="646.98" y="717.36" width="1.65" height=".63"/>
        <path class="cls-3" d="m644.28,717.99h-3.24v-.63h3.24v.63Zm-5.94,0h-3.24v-.63h3.24v.63Zm-5.94,0h-3.24v-.63h3.24v.63Zm-5.94,0h-3.24v-.63h3.24v.63Zm-5.94,0h-3.24v-.63h3.24v.63Zm-5.94,0h-3.24v-.63h3.24v.63Zm-5.94,0h-3.24v-.63h3.24v.63Zm-5.94,0h-3.24v-.63h3.24v.63Zm-5.94,0h-3.24v-.63h3.24v.63Zm-5.94,0h-3.24v-.63h3.24v.63Zm-5.94,0h-3.24v-.63h3.24v.63Zm-5.94,0h-3.24v-.63h3.24v.63Zm-5.94,0h-3.24v-.63h3.24v.63Zm-5.94,0h-3.24v-.63h3.24v.63Zm-5.94,0h-3.24v-.63h3.24v.63Zm-5.94,0h-3.24v-.63h3.24v.63Zm-5.94,0h-3.24v-.63h3.24v.63Zm-5.94,0h-3.24v-.63h3.24v.63Z"/>
        <polygon class="cls-3" points="537.37 717.99 535.49 717.99 534.56 716.74 535.27 716.43 535.97 717.36 537.37 717.36 537.37 717.99"/>
        <path class="cls-3" d="m533.22,714.96l-1.6-2.14.71-.31,1.6,2.14-.71.31Zm-2.94-3.93l-1.6-2.14.71-.31,1.6,2.14-.71.31Zm-2.94-3.93l-1.6-2.14.71-.31,1.6,2.14-.71.31Zm-2.94-3.93l-1.6-2.14.71-.31,1.6,2.14-.71.31Zm-2.94-3.93l-1.6-2.14.71-.31,1.6,2.14-.71.31Zm-2.94-3.93l-1.6-2.14.71-.31,1.6,2.14-.71.31Zm-2.94-3.93l-1.6-2.14.71-.31,1.6,2.14-.71.31Zm-2.94-3.93l-1.6-2.14.71-.31,1.6,2.14-.71.31Zm-2.94-3.93l-1.6-2.14.71-.31,1.6,2.14-.71.31Zm-2.94-3.93l-1.6-2.14.71-.31,1.6,2.14-.71.31Z"/>
      </g>
      <g>
        <path class="cls-3" d="m596.25,636.67l-.39-.55,2.81-1.14.39.55-2.81,1.14Zm5.15-2.1l-.39-.55,2.81-1.14.39.55-2.81,1.14Zm5.15-2.1l-.39-.55,2.81-1.14.39.55-2.81,1.14Zm5.15-2.1l-.39-.55,2.81-1.14.39.55-2.81,1.14Zm5.15-2.1l-.39-.55,2.81-1.14.39.55-2.81,1.14Zm5.15-2.1l-.39-.55,2.81-1.14.39.55-2.81,1.14Zm5.15-2.1l-.39-.55,2.81-1.14.39.55-2.81,1.14Zm5.15-2.1l-.39-.55,2.81-1.14.39.55-2.81,1.14Zm5.15-2.1l-.39-.55,2.81-1.14.39.55-2.81,1.14Zm5.15-2.1l-.39-.55,2.81-1.14.39.55-2.81,1.14Zm5.15-2.1l-.39-.55,2.81-1.14.39.55-2.81,1.14Zm5.15-2.1l-.39-.55,2.81-1.14.39.55-2.81,1.14Zm5.15-2.1l-.39-.55,2.81-1.14.39.55-2.81,1.14Zm5.15-2.1l-.39-.55,2.81-1.14.39.55-2.81,1.14Zm5.11-1.99l-.39-.55,2.81-1.14.39.55-2.81,1.14Zm5.64-2.07l-.39-.55,2.81-1.14.39.55-2.81,1.14Z"/>
        <path class="cls-3" d="m671.3,744.48l-1.65-2.21.71-.31,1.65,2.21-.71.31Zm-3.02-4.05l-1.65-2.21.71-.31,1.65,2.21-.71.31Zm-3.02-4.05l-1.65-2.21.71-.31,1.65,2.21-.71.31Zm-3.02-4.05l-1.65-2.21.71-.31,1.65,2.21-.71.31Zm-3.02-4.05l-1.65-2.21.71-.31,1.65,2.21-.71.31Zm-3.02-4.05l-1.65-2.21.71-.31,1.65,2.21-.71.31Zm-3.02-4.05l-1.65-2.21.71-.31,1.65,2.21-.71.31Zm-3.02-4.05l-1.65-2.21.71-.31,1.65,2.21-.71.31Zm-3.02-4.05l-1.65-2.21.71-.31,1.65,2.21-.71.31Zm-3.02-4.05l-1.65-2.21.71-.31,1.65,2.21-.71.31Zm-3.02-4.05l-1.65-2.21.71-.31,1.65,2.21-.71.31Zm-3.02-4.05l-1.65-2.21.71-.31,1.65,2.21-.71.31Zm-3.02-4.05l-1.65-2.21.71-.31,1.65,2.21-.71.31Zm-3.02-4.05l-1.65-2.21.71-.31,1.65,2.21-.71.31Zm-3.02-4.05l-1.65-2.21.71-.31,1.65,2.21-.71.31Zm-3.02-4.05l-1.65-2.21.71-.31,1.65,2.21-.71.31Zm-3.02-4.05l-1.65-2.21.71-.31,1.65,2.21-.71.31Zm-3.02-4.05l-1.65-2.21.71-.31,1.65,2.21-.71.31Zm-3.02-4.05l-1.65-2.21.71-.31,1.65,2.21-.71.31Zm-3.02-4.05l-1.65-2.21.71-.31,1.65,2.21-.71.31Zm-3.02-4.05l-1.65-2.21.71-.31,1.65,2.21-.71.31Zm-3.02-4.05l-1.65-2.21.71-.31,1.65,2.21-.71.31Zm-3.02-4.05l-1.65-2.21.71-.31,1.65,2.21-.71.31Zm-3.02-4.05l-1.65-2.21.71-.31,1.65,2.21-.71.31Zm-3.02-4.05l-1.65-2.21.71-.31,1.65,2.21-.71.31Zm-3.02-4.05l-1.65-2.21.71-.31,1.65,2.21-.71.31Z"/>
        <polygon class="cls-3" points="673.49 747.41 672.67 746.32 673.39 746.01 674.2 747.1 673.49 747.41"/>
      </g>
      <g>
        <path class="cls-3" d="m588.39,633.37l-1.62-2.17.71-.31,1.62,2.17-.71.31Zm-2.97-3.98l-1.62-2.17.71-.31,1.62,2.17-.71.31Zm-2.97-3.98l-1.62-2.17.71-.31,1.62,2.17-.71.31Zm-2.97-3.98l-1.62-2.17.71-.31,1.62,2.17-.71.31Zm-2.97-3.98l-1.62-2.17.71-.31,1.62,2.17-.71.31Zm-2.97-3.98l-1.62-2.17.71-.31,1.62,2.17-.71.31Zm-2.97-3.98l-1.62-2.17.71-.31,1.62,2.17-.71.31Zm-2.97-3.98l-1.62-2.17.71-.31,1.62,2.17-.71.31Zm-2.97-3.98l-1.62-2.17.71-.31,1.62,2.17-.71.31Zm-2.97-3.98l-1.62-2.17.71-.31,1.62,2.17-.71.31Zm-2.97-3.98l-1.62-2.17.71-.31,1.62,2.17-.71.31Zm-2.97-3.98l-1.62-2.17.71-.31,1.62,2.17-.71.31Zm-2.97-3.98l-1.62-2.17.71-.31,1.62,2.17-.71.31Zm-2.97-3.98l-1.62-2.17.71-.31,1.62,2.17-.71.31Zm-2.97-3.98l-1.62-2.17.71-.31,1.62,2.17-.71.31Zm-2.97-3.98l-1.62-2.17.71-.31,1.62,2.17-.71.31Zm-2.97-3.98l-1.62-2.17.71-.31,1.62,2.17-.71.31Zm-2.97-3.98l-1.62-2.17.71-.31,1.62,2.17-.71.31Zm-2.97-3.98l-1.62-2.17.71-.31,1.62,2.17-.71.31Zm-2.97-3.98l-1.62-2.17.71-.31,1.62,2.17-.71.31Z"/>
        <polygon class="cls-3" points="590.55 636.27 589.74 635.18 590.46 634.87 591.27 635.96 590.55 636.27"/>
      </g>
      <g>
        <path class="cls-3" d="m468.45,594.37l-.39-.55,2.99-1.24.39.55-2.99,1.24Zm-6.85,3.34l-.39-.55,2.99-1.24.39.55-2.99,1.24Zm-5.76,2.92l-.39-.55,2.99-1.24.39.55-2.99,1.24Zm18.09-8.55l-.39-.55,2.99-1.24.39.55-2.99,1.24Zm5.49-2.28l-.39-.55,2.99-1.24.39.55-2.99,1.24Zm5.49-2.28l-.39-.55,2.99-1.24.39.55-2.99,1.24Zm5.49-2.28l-.39-.55,2.99-1.24.39.55-2.99,1.25Zm5.48-2.28l-.39-.55,2.99-1.24.39.55-2.99,1.24Zm5.49-2.28l-.39-.55,2.99-1.24.39.55-2.99,1.24Zm5.49-2.28l-.39-.55,2.99-1.24.39.55-2.99,1.24Zm5.49-2.28l-.39-.55,2.99-1.24.39.55-2.99,1.24Zm5.48-2.28l-.39-.55,2.99-1.24.39.55-2.99,1.24Zm5.49-2.28l-.39-.55,2.99-1.25.39.55-2.99,1.24Zm5.49-2.28l-.39-.55,2.99-1.24.39.55-2.99,1.24Z"/>
        <polygon class="cls-3" points="534.28 566.99 533.88 566.44 535.32 565.84 535.72 566.39 534.28 566.99"/>
      </g>
    </g>
    <path class="cls-3" d="m498.45,667.53l-1.71-2.26.89-.39,1.71,2.26-.89.39Zm-3.42-4.52l-1.71-2.26.89-.39,1.71,2.26-.89.39Zm-3.42-4.53l-1.71-2.26.89-.39,1.71,2.26-.89.39Zm-3.42-4.52l-1.71-2.26.89-.39,1.71,2.26-.89.39Zm-3.42-4.52l-1.71-2.26.89-.39,1.71,2.26-.89.39Zm-3.42-4.52l-1.71-2.26.89-.39,1.71,2.26-.89.39Zm-3.42-4.53l-1.71-2.26.89-.39,1.71,2.26-.89.39Zm-3.42-4.52l-1.71-2.26.89-.39,1.71,2.26-.89.39Zm-3.42-4.52l-1.71-2.26.89-.39,1.71,2.26-.89.39Zm-3.42-4.52l-1.71-2.26.89-.39,1.71,2.26-.89.39Zm-3.42-4.53l-1.71-2.26.89-.39,1.71,2.26-.89.39Zm-3.42-4.52l-1.71-2.26.89-.39,1.71,2.26-.89.39Zm-3.42-4.52l-1.71-2.26.89-.39,1.71,2.26-.89.39Zm-3.42-4.52l-1.71-2.26.89-.39,1.71,2.26-.89.39Z"/>
    <path class="cls-3" d="m462.99,690.32l-.49-.69,3.02-1.24.49.69-3.02,1.24Zm6.03-2.47l-.49-.69,3.02-1.24.49.69-3.02,1.24Zm6.03-2.47l-.49-.69,3.02-1.24.49.69-3.02,1.24Zm6.03-2.47l-.49-.69,3.02-1.24.49.69-3.02,1.24Zm6.03-2.47l-.49-.69,3.02-1.24.49.69-3.02,1.24Zm6.03-2.47l-.49-.69,3.01-1.24.49.69-3.01,1.24Zm6.03-2.47l-.49-.69,3.02-1.24.49.69-3.02,1.24Zm6.03-2.47l-.49-.69,3.02-1.24.49.69-3.02,1.24Zm6.03-2.47l-.49-.69,3.01-1.24.49.69-3.01,1.24Zm6.03-2.47l-.49-.69,3.02-1.24.49.69-3.02,1.24Zm6.03-2.47l-.49-.69,3.02-1.24.49.69-3.02,1.24Zm6.03-2.47l-.49-.69,3.02-1.24.49.69-3.02,1.24Zm6.03-2.47l-.49-.69,3.02-1.24.49.69-3.02,1.24Zm6.03-2.47l-.49-.69,3.02-1.24.49.69-3.02,1.24Zm6.03-2.47l-.49-.69,3.02-1.24.49.69-3.02,1.24Zm6.03-2.47l-.49-.69,3.01-1.24.49.69-3.01,1.24Zm6.03-2.47l-.49-.69,3.02-1.24.49.69-3.02,1.24Zm6.03-2.47l-.49-.69,3.02-1.24.49.69-3.02,1.24Zm6.03-2.47l-.49-.69,3.01-1.24.49.69-3.01,1.24Zm6.03-2.47l-.49-.69,3.02-1.24.49.69-3.02,1.24Z"/>
  </g>
  <g>
    <g>
      <path class="cls-2" d="m718.85,615.49h96.76v-109.14h44.58v109.14h46.34v-109.14h44.51v171.11h109.15v33.98h-109.15v53.66h-44.51v-53.66h-91v-33.98h.09v-27.99h-96.76v-33.98Zm141.34,61.97h46.34v-27.99h-46.34v27.99Z"/>
      <path class="cls-5" d="m943.61,705.78h116.59v-22.65h-116.59v-176.78h-29.64v114.8h-61.2v-114.8h-29.72v114.8h-104.2v22.65h104.2v39.32h-.08v22.65h91v59.32h29.64v-59.32Zm-90.85-22.65v-39.32h61.2v39.32h-61.2Z"/>
    </g>
    <g>
      <rect class="cls-4" x="972.52" y="678.69" width="2.46" height="14.59" transform="translate(1659.74 -287.77) rotate(90)"/>
      <rect class="cls-4" x="972.52" y="683.22" width="2.46" height="14.59" transform="translate(1664.26 -283.24) rotate(90)"/>
      <rect class="cls-4" x="972.52" y="687.75" width="2.46" height="14.59" transform="translate(1668.79 -278.71) rotate(90)"/>
      <rect class="cls-4" x="972.52" y="692.27" width="2.46" height="14.59" transform="translate(1673.32 -274.18) rotate(90)"/>
      <rect class="cls-4" x="972.52" y="696.8" width="2.46" height="14.59" transform="translate(1677.85 -269.65) rotate(90)"/>
    </g>
    <g>
      <rect class="cls-4" x="861.5" y="679.16" width="2.46" height="14.59" transform="translate(1549.2 -176.27) rotate(90)"/>
      <rect class="cls-4" x="861.5" y="683.69" width="2.46" height="14.59" transform="translate(1553.72 -171.75) rotate(90)"/>
      <rect class="cls-4" x="861.5" y="688.22" width="2.46" height="14.59" transform="translate(1558.25 -167.22) rotate(90)"/>
      <rect class="cls-4" x="861.5" y="692.75" width="2.46" height="14.59" transform="translate(1562.78 -162.69) rotate(90)"/>
      <rect class="cls-4" x="861.5" y="697.28" width="2.46" height="14.59" transform="translate(1567.31 -158.16) rotate(90)"/>
    </g>
    <g>
      <rect class="cls-4" x="768.62" y="616.24" width="2.46" height="14.59" transform="translate(1393.39 -146.32) rotate(90)"/>
      <rect class="cls-4" x="768.62" y="620.77" width="2.46" height="14.59" transform="translate(1397.92 -141.79) rotate(90)"/>
      <rect class="cls-4" x="768.62" y="625.29" width="2.46" height="14.59" transform="translate(1402.45 -137.26) rotate(90)"/>
      <rect class="cls-4" x="768.62" y="629.82" width="2.46" height="14.59" transform="translate(1406.98 -132.74) rotate(90)"/>
      <rect class="cls-4" x="768.62" y="634.35" width="2.46" height="14.59" transform="translate(1411.51 -128.21) rotate(90)"/>
    </g>
    <g>
      <rect class="cls-1" x="929.18" y="506.35" width="1.57" height="2.33"/>
      <path class="cls-1" d="m929.18,615.13v-4.84h1.57v4.84h-1.57Zm0-9.68v-4.84h1.57v4.84h-1.57Zm0-9.68v-4.84h1.57v4.84h-1.57Zm0-9.68v-4.84h1.57v4.84h-1.57Zm0-9.68v-4.84h1.57v4.84h-1.57Zm0-9.68v-4.84h1.57v4.84h-1.57Zm0-9.68v-4.84h1.57v4.84h-1.57Zm0-9.68v-4.84h1.57v4.84h-1.57Zm0-9.68v-4.84h1.57v4.84h-1.57Zm0-9.68v-4.84h1.57v4.84h-1.57Zm0-9.68v-4.84h1.57v4.84h-1.57Z"/>
      <rect class="cls-1" x="929.18" y="619.97" width="1.57" height="2.33"/>
    </g>
    <g>
      <rect class="cls-1" x="929.18" y="642.07" width="1.57" height="2.33"/>
      <path class="cls-1" d="m929.18,750.85v-4.84h1.57v4.84h-1.57Zm0-9.68v-4.84h1.57v4.84h-1.57Zm0-9.68v-4.84h1.57v4.84h-1.57Zm0-9.68v-4.84h1.57v4.84h-1.57Zm0-9.68v-4.84h1.57v4.84h-1.57Zm0-29.03v-4.84h1.57v4.84h-1.57Zm0-9.68v-4.84h1.57v4.84h-1.57Zm0-9.68v-4.84h1.57v4.84h-1.57Zm0-9.68v-4.84h1.57v4.84h-1.57Z"/>
      <rect class="cls-1" x="929.18" y="755.69" width="1.57" height="2.33"/>
    </g>
    <g>
      <rect class="cls-1" x="835.65" y="506.35" width="1.57" height="2.33"/>
      <path class="cls-1" d="m835.65,615.13v-4.84h1.57v4.84h-1.57Zm0-9.68v-4.84h1.57v4.84h-1.57Zm0-9.68v-4.84h1.57v4.84h-1.57Zm0-9.68v-4.84h1.57v4.84h-1.57Zm0-9.68v-4.84h1.57v4.84h-1.57Zm0-9.68v-4.84h1.57v4.84h-1.57Zm0-9.68v-4.84h1.57v4.84h-1.57Zm0-9.68v-4.84h1.57v4.84h-1.57Zm0-9.68v-4.84h1.57v4.84h-1.57Zm0-9.68v-4.84h1.57v4.84h-1.57Zm0-9.68v-4.84h1.57v4.84h-1.57Z"/>
      <rect class="cls-1" x="835.65" y="619.97" width="1.57" height="2.33"/>
    </g>
    <g>
      <rect class="cls-1" x="942.22" y="693" width="3.05" height="1.2"/>
      <path class="cls-1" d="m951.16,694.2v-1.2h5.89v1.2h-5.89Zm35.33,0v-1.2h5.89v1.2h-5.89Zm11.77,0v-1.2h5.89v1.2h-5.89Zm11.77,0v-1.2h5.89v1.2h-5.89Zm11.78,0v-1.2h5.89v1.2h-5.89Zm11.77,0v-1.2h5.89v1.2h-5.89Zm11.77,0v-1.2h5.89v1.2h-5.89Z"/>
      <rect class="cls-1" x="1057.14" y="693" width="3.05" height="1.2"/>
    </g>
    <g>
      <rect class="cls-1" x="835.65" y="642.83" width="1.57" height="2.33"/>
      <path class="cls-1" d="m835.65,686.15v-5.12h1.57v5.12h-1.57Zm0-10.25v-5.12h1.57v5.12h-1.57Zm0-10.25v-5.12h1.57v5.12h-1.57Zm0-10.24v-5.12h1.57v5.12h-1.57Z"/>
      <path class="cls-1" d="m845.98,694.2v-1.2h6.49v1.2h-6.49Zm25.97,0v-1.2h6.49v1.2h-6.49Zm12.98,0v-1.2h6.49v1.2h-6.49Zm12.98,0v-1.2h6.49v1.2h-6.49Z"/>
      <rect class="cls-1" x="910.91" y="693" width="3.05" height="1.2"/>
    </g>
    <g>
      <rect class="cls-1" x="819.55" y="631.06" width="3.05" height="1.2"/>
      <path class="cls-1" d="m728.39,632.25v-1.2h6.52v1.2h-6.52Zm13.04,0v-1.2h6.51v1.2h-6.51Zm13.02,0v-1.2h6.51v1.2h-6.51Zm26.06,0v-1.2h6.51v1.2h-6.51Zm13.01,0v-1.2h6.51v1.2h-6.51Zm13.04,0v-1.2h6.51v1.2h-6.51Z"/>
      <rect class="cls-1" x="718.85" y="631.06" width="3.03" height="1.2"/>
    </g>
    <g>
      <rect class="cls-1" x="912.66" y="631.06" width="3.05" height="1.2"/>
      <path class="cls-1" d="m862.16,632.25v-1.2h6.31v1.2h-6.31Zm12.64,0v-1.2h6.31v1.2h-6.31Zm12.63,0v-1.2h6.32v1.2h-6.32Zm12.63,0v-1.2h6.32v1.2h-6.32Z"/>
      <rect class="cls-1" x="852.76" y="631.06" width="3.03" height="1.2"/>
    </g>
  </g>
</svg>