<?xml version="1.0" encoding="UTF-8"?>
<svg id="Layer_1" data-name="Layer 1" xmlns="http://www.w3.org/2000/svg" viewBox="0 0 540.84 451.92">
  <defs>
    <style>
      .cls-1 {
        fill: #fff;
      }

      .cls-2 {
        fill: #231f20;
      }
    </style>
  </defs>
  <polygon class="cls-2" points="58.39 0 112.22 92.47 54.6 125.46 .78 32.99 58.39 0"/>
  <path class="cls-1" d="m12.33,225.29c0,75.91,62.26,137.67,138.78,137.67s138.79-61.76,138.79-137.67-62.25-137.66-138.79-137.66S12.33,149.38,12.33,225.29Zm222.69,0c0,45.88-37.64,83.22-83.91,83.22s-83.9-37.34-83.9-83.22,37.65-83.21,83.9-83.21,83.91,37.33,83.91,83.21Z"/>
  <path class="cls-2" d="m12.33,225.29c0-75.91,62.26-137.66,138.78-137.66s138.79,61.75,138.79,137.66-62.25,137.67-138.79,137.67S12.33,301.2,12.33,225.29m222.69,0c0-45.89-37.64-83.21-83.91-83.21s-83.9,37.33-83.9,83.21,37.65,83.22,83.9,83.22,83.91-37.34,83.91-83.22m-225.1,0c0,77.23,63.34,140.06,141.19,140.06s141.2-62.83,141.2-140.06-63.33-140.05-141.2-140.05S9.93,148.07,9.93,225.29h0Zm222.68,0c0,44.57-36.55,80.83-81.5,80.83s-81.49-36.26-81.49-80.83,36.56-80.82,81.49-80.82,81.5,36.25,81.5,80.82h0Z"/>
  <polygon class="cls-1" points="56.24 1.23 111 95.32 57.7 125.84 2.93 31.75 56.24 1.23"/>
  <path class="cls-2" d="m286.54,225.29c0,74.06-60.74,134.32-135.42,134.32S15.7,299.35,15.7,225.29,76.45,90.98,151.11,90.98s135.42,60.25,135.42,134.31Zm-222.68,0c0,47.73,39.15,86.57,87.26,86.57s87.27-38.83,87.27-86.57-39.15-86.56-87.27-86.56-87.26,38.83-87.26,86.56Z"/>
  <polygon class="cls-2" points="53.47 2.82 112.45 104.15 64.67 131.5 5.69 30.17 53.47 2.82"/>
  <g>
    <polygon class="cls-1" points="86.73 118.88 82.74 112.04 86.41 109.92 90.4 116.77 86.73 118.88"/>
    <path class="cls-1" d="m76.74,101.73l-9.01-15.47,3.69-2.11,9,15.47-3.68,2.11Zm-15-25.78l-9.01-15.47,3.68-2.11,9,15.47-3.67,2.11Zm-15.01-25.78l-8.99-15.47,3.67-2.11,9.01,15.46-3.69,2.11Z"/>
    <polygon class="cls-1" points="31.73 24.4 27.75 17.55 31.42 15.44 35.41 22.29 31.73 24.4"/>
  </g>
  <polygon class="cls-2" points="57.61 451.92 111.44 359.45 53.83 326.46 0 418.93 57.61 451.92"/>
  <polygon class="cls-1" points="55.46 450.68 110.22 356.6 56.92 326.08 2.15 420.16 55.46 450.68"/>
  <polygon class="cls-2" points="52.69 449.11 111.68 347.78 63.9 320.42 4.91 421.75 52.69 449.11"/>
  <g>
    <polygon class="cls-1" points="85.64 342 81.96 339.89 85.95 333.04 89.62 335.15 85.64 342"/>
    <path class="cls-1" d="m40.63,419.32l-3.68-2.11,9-15.46,3.69,2.11-9.01,15.46Zm15-25.77l-3.67-2.11,9.01-15.47,3.67,2.11-9.01,15.47Zm15.01-25.78l-3.68-2.11,9-15.46,3.68,2.11-9,15.46Z"/>
    <polygon class="cls-1" points="30.64 436.48 26.97 434.37 30.95 427.52 34.62 429.64 30.64 436.48"/>
  </g>
  <rect class="cls-2" x="287.32" y="193.07" width="253.52" height="65.98"/>
  <rect class="cls-1" x="285.44" y="195.54" width="255.39" height="61.04"/>
  <rect class="cls-2" x="277.01" y="198.7" width="263.83" height="54.72"/>
  <g>
    <rect class="cls-1" x="277.01" y="223.96" width="7.97" height="4.21"/>
    <path class="cls-1" d="m375,228.17h-18v-4.21h18v4.21Zm-30,0h-18.01v-4.21h18.01v4.21Zm-30.01,0h-18.01v-4.21h18.01v4.21Z"/>
    <rect class="cls-1" x="387" y="223.96" width="153.84" height="4.21"/>
  </g>
  <path class="cls-1" d="m151.34,337.85h-.23c-5.33,0-10.67-.37-15.9-1.1l.59-4.18c5.03.7,10.18,1.06,15.31,1.06l.23,4.22Zm16.14-1.17l-.6-4.17c5.12-.73,10.24-1.84,15.21-3.3l1.2,4.05c-5.16,1.5-10.48,2.66-15.81,3.42Zm-48.1-3.29c-5.17-1.49-10.28-3.37-15.18-5.58l1.76-3.84c4.73,2.13,9.64,3.94,14.61,5.37l-1.19,4.05Zm79.06-5.77l-1.77-3.83c4.7-2.15,9.3-4.64,13.65-7.43l2.31,3.54c-4.52,2.9-9.29,5.49-14.18,7.72Zm-108.46-7.48c-4.52-2.88-8.89-6.11-12.97-9.6l2.77-3.19c3.93,3.36,8.13,6.47,12.49,9.24l-2.3,3.55Zm135.57-9.88l-2.79-3.18c3.91-3.37,7.61-7.05,11-10.95l3.22,2.76c-3.52,4.04-7.37,7.86-11.43,11.37Zm-160-11.05c-3.53-4.02-6.81-8.32-9.74-12.81l3.57-2.29c2.82,4.31,5.98,8.46,9.37,12.33l-3.2,2.76Zm181.12-13.17l-3.58-2.28c2.8-4.33,5.32-8.89,7.46-13.57l3.87,1.75c-2.23,4.86-4.83,9.6-7.75,14.1Zm-198.66-13.69c-2.26-4.84-4.16-9.9-5.7-15.02l4.08-1.2c1.47,4.93,3.31,9.79,5.48,14.45l-3.86,1.76Zm212.06-15.47l-4.08-1.18c1.44-4.92,2.55-10.01,3.28-15.1l4.2.59c-.75,5.29-1.9,10.57-3.4,15.69Zm-221.23-15.23c-.77-5.27-1.16-10.65-1.18-16h4.25c0,5.14.4,10.32,1.15,15.39l-4.22.61Zm221.51-16.46c0-5.16-.37-10.34-1.11-15.41l4.2-.6c.76,5.27,1.15,10.65,1.16,16h-4.25Zm-217.39-14.97l-4.21-.58c.74-5.29,1.87-10.57,3.37-15.7l4.08,1.18c-1.44,4.93-2.54,10.01-3.25,15.1Zm212.98-15.53c-1.46-4.93-3.3-9.8-5.47-14.47l3.87-1.76c2.24,4.86,4.15,9.91,5.66,15.04l-4.07,1.19Zm-204.34-14.08l-3.87-1.74c2.22-4.86,4.82-9.61,7.73-14.11l3.58,2.27c-2.8,4.33-5.3,8.91-7.44,13.58Zm191.4-13.92c-2.81-4.33-5.96-8.48-9.36-12.36l3.22-2.77c3.53,4.03,6.8,8.35,9.71,12.83l-3.57,2.29Zm-174.66-12.05l-3.22-2.76c3.51-4.04,7.35-7.87,11.4-11.38l2.8,3.18c-3.91,3.37-7.6,7.07-10.98,10.96Zm154.29-11.23c-3.92-3.37-8.11-6.48-12.46-9.26l2.29-3.56c4.53,2.89,8.89,6.14,12.96,9.63l-2.78,3.19Zm-130.89-9.04l-2.31-3.54c4.52-2.9,9.28-5.51,14.16-7.75l1.79,3.83c-4.7,2.15-9.28,4.67-13.64,7.46Zm104.75-7.65c-4.73-2.13-9.64-3.95-14.6-5.39l1.19-4.05c5.16,1.49,10.26,3.39,15.18,5.61l-1.77,3.83Zm-76.55-5.27l-1.21-4.04c5.15-1.52,10.47-2.69,15.8-3.47l.61,4.18c-5.13.74-10.25,1.87-15.2,3.33Zm46.72-3.39c-5.11-.73-10.33-1.09-15.54-1.09l-.45-4.22h.45c5.4,0,10.84.39,16.14,1.14l-.6,4.17Z"/>
</svg>