<?xml version="1.0" encoding="UTF-8"?>
<svg id="Layer_1" data-name="Layer 1" xmlns="http://www.w3.org/2000/svg" viewBox="0 0 451.6 458.58">
  <defs>
    <style>
      .cls-1 {
        fill: #fff;
      }

      .cls-2 {
        fill: #231f20;
      }
    </style>
  </defs>
  <rect class="cls-2" x="351.91" y="198.02" width="99.68" height="62.55"/>
  <path class="cls-1" d="m226.52,98.78c-70.87,0-128.52,58.55-128.52,130.5s57.65,130.51,128.52,130.51,128.51-58.55,128.51-130.51-57.65-130.5-128.51-130.5Zm0,209.4c-42.84,0-77.7-35.39-77.7-78.9s34.85-78.89,77.7-78.89,77.68,35.39,77.68,78.89-34.85,78.9-77.68,78.9Z"/>
  <path class="cls-2" d="m226.52,98.78c70.86,0,128.51,58.55,128.51,130.5s-57.65,130.51-128.51,130.51-128.52-58.55-128.52-130.51,57.65-130.5,128.52-130.5m0,209.4c42.83,0,77.68-35.39,77.68-78.9s-34.85-78.89-77.68-78.89-77.7,35.39-77.7,78.89,34.85,78.9,77.7,78.9m0-211.66c-72.1,0-130.76,59.55-130.76,132.76s58.65,132.77,130.76,132.77,130.73-59.56,130.73-132.77-58.64-132.76-130.73-132.76h0Zm0,209.39c-41.61,0-75.47-34.37-75.47-76.63s33.85-76.62,75.47-76.62,75.45,34.37,75.45,76.62-33.85,76.63-75.45,76.63h0Z"/>
  <rect class="cls-1" x="350.17" y="200.35" width="101.42" height="57.87"/>
  <path class="cls-2" d="m226.52,356.62c-69.15,0-125.4-57.11-125.4-127.33s56.25-127.33,125.4-127.33,125.39,57.12,125.39,127.33-56.25,127.33-125.39,127.33Zm0-209.39c-44.57,0-80.82,36.81-80.82,82.06s36.25,82.06,80.82,82.06,80.81-36.81,80.81-82.06-36.25-82.06-80.81-82.06Z"/>
  <rect class="cls-2" x="342.37" y="203.35" width="109.23" height="51.88"/>
  <g>
    <rect class="cls-1" x="342.37" y="227.48" width="6.69" height="3.62"/>
    <path class="cls-1" d="m436.19,231.09h-13.06v-3.62h13.06v3.62Zm-21.79,0h-13.07v-3.62h13.07v3.62Zm-21.78,0h-13.07v-3.62h13.07v3.62Zm-21.79,0h-13.07v-3.62h13.07v3.62Z"/>
    <rect class="cls-1" x="444.91" y="227.48" width="6.68" height="3.62"/>
  </g>
  <rect class="cls-2" y="198.02" width="99.69" height="62.55"/>
  <rect class="cls-1" y="200.35" width="101.43" height="57.87"/>
  <rect class="cls-2" y="203.35" width="109.23" height="51.88"/>
  <g>
    <rect class="cls-1" x="102.54" y="227.48" width="6.68" height="3.62"/>
    <path class="cls-1" d="m93.82,231.09h-13.07v-3.62h13.07v3.62Zm-21.78,0h-13.08v-3.62h13.08v3.62Zm-21.79,0h-13.07v-3.62h13.07v3.62Zm-21.78,0h-13.07v-3.62h13.07v3.62Z"/>
    <rect class="cls-1" y="227.48" width="6.68" height="3.62"/>
  </g>
  <rect class="cls-2" x="195" width="61.6" height="101.23"/>
  <rect class="cls-1" x="197.3" width="56.99" height="102.99"/>
  <rect class="cls-2" x="200.25" width="51.09" height="110.92"/>
  <g>
    <rect class="cls-1" x="224.02" y="104.12" width="3.56" height="6.8"/>
    <path class="cls-1" d="m227.58,95.27h-3.56v-13.27h3.56v13.27Zm0-22.13h-3.56v-13.27h3.56v13.27Zm0-22.12h-3.56v-13.27h3.56v13.27Zm0-22.12h-3.56v-13.28h3.56v13.28Z"/>
    <rect class="cls-1" x="224.02" width="3.56" height="6.79"/>
  </g>
  <rect class="cls-2" x="195" y="357.35" width="61.6" height="101.23"/>
  <rect class="cls-1" x="197.3" y="355.59" width="56.99" height="103"/>
  <rect class="cls-2" x="200.25" y="347.66" width="51.09" height="110.92"/>
  <g>
    <rect class="cls-1" x="224.02" y="347.66" width="3.56" height="6.79"/>
    <path class="cls-1" d="m227.58,442.94h-3.56v-13.27h3.56v13.27Zm0-22.12h-3.56v-13.27h3.56v13.27Zm0-22.13h-3.56v-13.27h3.56v13.27Zm0-22.12h-3.56v-13.28h3.56v13.28Z"/>
    <rect class="cls-1" x="224.02" y="451.79" width="3.56" height="6.79"/>
  </g>
  <path class="cls-1" d="m226.62,335.79h-.1c-4.54,0-9.1-.29-13.58-.89l.46-3.59c4.31.57,8.73.86,13.12.86l.1,3.62Zm13.68-.91l-.47-3.59c4.38-.58,8.75-1.46,12.99-2.61l.92,3.5c-4.39,1.2-8.92,2.11-13.45,2.71Zm-40.82-2.66c-4.42-1.19-8.79-2.69-13-4.46l1.37-3.35c4.06,1.72,8.29,3.16,12.56,4.31l-.92,3.5Zm67.25-4.55l-1.36-3.34c4.05-1.72,8.05-3.71,11.86-5.96l1.79,3.13c-3.95,2.32-8.08,4.39-12.28,6.17Zm-92.55-6.06c-3.95-2.31-7.79-4.91-11.41-7.74l2.17-2.87c3.5,2.73,7.21,5.25,11.02,7.47l-1.78,3.14Zm116.22-7.85l-2.18-2.87c3.49-2.74,6.84-5.71,9.96-8.88l2.52,2.56c-3.22,3.27-6.69,6.36-10.3,9.19Zm-137.95-9.06c-3.23-3.26-6.27-6.78-9.06-10.45l2.83-2.21c2.68,3.54,5.63,6.94,8.75,10.1l-2.52,2.56Zm157.3-10.6l-2.83-2.21c2.68-3.55,5.17-7.31,7.37-11.18l3.09,1.81c-2.28,4.02-4.84,7.91-7.62,11.58Zm-174-11.41c-2.29-4-4.34-8.2-6.1-12.46l3.3-1.4c1.69,4.12,3.67,8.17,5.88,12.04l-3.08,1.81Zm187.7-12.66l-3.3-1.38c1.69-4.14,3.12-8.44,4.25-12.75l3.45.93c-1.17,4.47-2.65,8.91-4.4,13.2Zm-198.23-12.99c-1.18-4.45-2.08-9.05-2.69-13.65l3.53-.48c.58,4.45,1.46,8.88,2.6,13.19l-3.45.94Zm205.29-13.87l-3.54-.47c.57-4.42.86-8.93.86-13.43l3.56-.43v.43c0,4.64-.3,9.32-.88,13.9Zm-208.89-13.68v-.22c0-4.57.28-9.16.86-13.67l3.54.46c-.54,4.36-.83,8.8-.83,13.21l-3.56.22Zm205.3-14.07c-.59-4.43-1.47-8.87-2.63-13.18l3.45-.96c1.19,4.48,2.11,9.07,2.71,13.65l-3.53.49Zm-198.36-12.57l-3.44-.92c1.17-4.48,2.64-8.92,4.38-13.21l3.3,1.38c-1.68,4.14-3.11,8.43-4.23,12.75Zm191.44-13.34c-1.7-4.12-3.69-8.16-5.92-12.03l3.09-1.82c2.29,4,4.36,8.19,6.11,12.45l-3.29,1.4Zm-181.37-11.49l-3.09-1.81c2.27-4.02,4.83-7.92,7.61-11.59l2.83,2.2c-2.68,3.55-5.15,7.32-7.35,11.2Zm168.05-11.68c-2.69-3.54-5.64-6.92-8.78-10.08l2.52-2.57c3.22,3.26,6.28,6.78,9.07,10.43l-2.82,2.21Zm-151.98-9.65l-2.52-2.56c3.21-3.27,6.68-6.37,10.27-9.21l2.19,2.87c-3.49,2.74-6.83,5.73-9.94,8.9Zm133.22-9.27c-3.5-2.72-7.21-5.23-11.03-7.45l1.77-3.14c3.95,2.3,7.8,4.9,11.42,7.71l-2.16,2.88Zm-112.3-7.15l-1.79-3.13c3.94-2.33,8.07-4.42,12.27-6.2l1.38,3.34c-4.05,1.72-8.03,3.74-11.85,5.99Zm89.36-6.23c-4.06-1.7-8.29-3.14-12.56-4.28l.91-3.5c4.42,1.18,8.8,2.67,13.01,4.43l-1.36,3.35Zm-64.98-4.12l-.93-3.5c4.41-1.21,8.92-2.13,13.44-2.74l.47,3.59c-4.36.59-8.73,1.48-12.98,2.65Zm39.42-2.73c-4.24-.55-8.59-.83-12.9-.83l-.33-3.62h.33c4.46,0,8.96.29,13.35.85l-.45,3.6Z"/>
</svg>