<?xml version="1.0" encoding="UTF-8"?>
<svg id="Layer_1" data-name="Layer 1" xmlns="http://www.w3.org/2000/svg" viewBox="0 0 520.41 515.49">
  <defs>
    <style>
      .cls-1 {
        fill: #fff;
      }

      .cls-2 {
        fill: #231f20;
      }
    </style>
  </defs>
  <g>
    <path class="cls-2" d="m249.02,515.49l-1.49-1.48v-52.81c-50.09-3-97.22-24.03-132.84-59.32-35.62-35.28-56.85-81.96-59.88-131.58H1.49l-1.49-1.48v-22.15l1.49-1.48h53.32c3.03-49.62,24.26-96.3,59.88-131.58,35.62-35.29,82.75-56.32,132.84-59.32V1.48l1.49-1.48h22.36l1.49,1.48v52.81c50.09,3,97.22,24.03,132.84,59.32,35.62,35.29,56.85,81.97,59.88,131.58h53.32l1.49,1.48v22.15l-1.49,1.48h-53.32c-3.03,49.62-24.26,96.3-59.88,131.58-35.62,35.29-82.75,56.32-132.84,59.32v52.81l-1.49,1.48h-22.36Zm11.18-436.48c-99.5,0-180.44,80.18-180.44,178.73s80.95,178.74,180.44,178.74,180.45-80.18,180.45-178.74-80.95-178.73-180.45-178.73Z"/>
    <path class="cls-1" d="m249.18,515.12h22.05l1.27-1.26v-53.01l.35-.02c49.98-2.99,97.07-24.02,132.6-59.21,35.53-35.19,56.75-81.83,59.77-131.35l.02-.35h53.51l1.27-1.26v-21.84l-1.27-1.26h-53.51l-.02-.35c-3.02-49.51-24.25-96.16-59.78-131.35-35.52-35.19-82.61-56.22-132.6-59.21l-.35-.02V1.63l-1.27-1.26h-22.05l-1.27,1.26v53.01l-.35.02c-49.99,2.99-97.08,24.02-132.6,59.21-35.53,35.18-56.75,81.83-59.78,131.35l-.02.35H1.65l-1.27,1.26v21.84l1.27,1.26h53.51l.02.35c3.02,49.51,24.25,96.16,59.77,131.35,35.53,35.19,82.62,56.22,132.6,59.21l.35.02v53.01l1.27,1.26Zm11.03-78.27c-99.7,0-180.82-80.35-180.82-179.11s81.11-179.1,180.82-179.1,180.82,80.34,180.82,179.1-81.11,179.11-180.82,179.11Z"/>
  </g>
  <path class="cls-2" d="m518.92,246.67h-54.73c-2.7-49.89-23.59-96.42-59.53-132.02-35.94-35.6-82.91-56.29-133.28-58.97V1.48h-22.36v54.21c-50.37,2.67-97.34,23.37-133.28,58.97-35.94,35.6-56.83,82.13-59.53,132.02H1.49v22.15h54.73c2.7,49.89,23.59,96.42,59.53,132.02,35.94,35.6,82.91,56.29,133.28,58.96v54.21h22.36v-54.21c50.37-2.67,97.34-23.36,133.28-58.96,35.94-35.6,56.83-82.13,59.53-132.02h54.73v-22.15Zm-258.72,191.29c-100.32,0-181.93-80.84-181.93-180.21s81.62-180.21,181.93-180.21,181.94,80.84,181.94,180.21-81.62,180.21-181.94,180.21Z"/>
  <g>
    <path class="cls-1" d="m260.21,449.58c-.98,0-1.97,0-2.95-.02h-.56s.02-1.11.02-1.11h.56c1.48.03,2.97.03,4.46.02h.56s0,1.1,0,1.1h-.56c-.51,0-1.02,0-1.54,0Zm4.71-.05l-.03-1.11h.56c1.24-.05,2.48-.09,3.71-.15l.56-.02.05,1.11-.56.03c-1.24.06-2.49.1-3.73.13l-.56.02Zm-10.84-.04l-.56-.02c-1.25-.04-2.49-.1-3.73-.16l-.56-.03.06-1.11.56.03c1.23.07,2.47.12,3.71.16l.56.02-.04,1.11Zm19.05-.33l-.08-1.11.56-.04c1.24-.09,2.47-.18,3.7-.29l.56-.05.1,1.1-.56.05c-1.24.11-2.48.2-3.72.29l-.56.04Zm-27.26-.1l-.56-.04c-1.24-.1-2.48-.2-3.72-.32l-.56-.05.11-1.1.56.05c1.23.12,2.47.22,3.7.32l.56.04-.09,1.1Zm34.71-.53l-.12-1.1.56-.06c1.48-.16,2.97-.33,4.43-.52l.56-.07.14,1.1-.55.07c-1.46.19-2.96.36-4.46.53l-.55.06Zm-42.15-.15l-.55-.06c-1.48-.17-2.98-.36-4.45-.56l-.55-.08.15-1.1.55.08c1.46.2,2.95.39,4.42.55l.56.06-.13,1.1Zm50.31-.87l-.17-1.1.55-.08c1.23-.18,2.45-.38,3.67-.58l.55-.09.19,1.09-.55.09c-1.23.21-2.46.4-3.69.59l-.55.08Zm-58.46-.21l-.55-.09c-1.23-.19-2.46-.4-3.69-.61l-.55-.1.2-1.09.55.1c1.22.21,2.44.42,3.67.61l.55.09-.18,1.1Zm66.56-1.15l-.21-1.09.55-.1c1.22-.24,2.43-.48,3.64-.74l.55-.12.23,1.08-.55.12c-1.22.26-2.44.51-3.66.74l-.55.11Zm-74.66-.27l-.55-.11c-1.22-.24-2.44-.5-3.66-.77l-.54-.12.24-1.08.55.12c1.21.27,2.42.52,3.64.77l.55.11-.22,1.09Zm81.97-1.27l-.26-1.08.54-.13c1.43-.33,2.89-.69,4.33-1.06l.54-.14.28,1.07-.54.14c-1.45.37-2.91.73-4.35,1.07l-.54.13Zm-89.27-.32l-.54-.13c-1.46-.35-2.92-.72-4.35-1.1l-.54-.14.29-1.07.54.14c1.42.38,2.87.74,4.32,1.09l.55.13-.26,1.08Zm97.24-1.69l-.3-1.07.54-.15c1.19-.33,2.38-.67,3.57-1.03l.54-.16.32,1.06-.54.16c-1.19.36-2.39.7-3.59,1.03l-.54.15Zm-105.19-.38l-.54-.15c-1.2-.34-2.39-.7-3.58-1.06l-.53-.17.33-1.06.53.16c1.18.36,2.37.71,3.56,1.06l.54.15-.31,1.06Zm113.07-1.97l-.35-1.05.53-.17c1.18-.38,2.35-.78,3.52-1.18l.53-.18.37,1.05-.53.18c-1.18.41-2.35.8-3.54,1.19l-.53.17Zm-120.94-.44l-.53-.17c-1.19-.4-2.37-.8-3.54-1.22l-.53-.19.38-1.04.53.19c1.17.41,2.34.82,3.53,1.21l.53.17-.36,1.05Zm128-1.98l-.39-1.04.52-.19c1.38-.51,2.78-1.04,4.16-1.58l.52-.2.41,1.03-.52.2c-1.39.55-2.8,1.08-4.19,1.59l-.53.19Zm-135.07-.5l-.52-.2c-1.39-.52-2.8-1.07-4.19-1.63l-.52-.21.42-1.03.52.21c1.38.56,2.78,1.1,4.16,1.62l.52.2-.4,1.04Zm142.71-2.47l-.43-1.02.52-.21c1.14-.48,2.27-.96,3.4-1.45l.51-.23.45,1.01-.51.23c-1.13.5-2.27.98-3.42,1.46l-.52.21Zm-150.37-.57l-.51-.22c-1.15-.49-2.29-.99-3.43-1.5l-.51-.23.46-1.01.51.23c1.13.51,2.27,1,3.41,1.49l.51.22-.44,1.02Zm157.86-2.71l-.48-1,.5-.23c1.12-.52,2.23-1.06,3.34-1.6l.5-.25.5.99-.5.25c-1.11.55-2.23,1.08-3.35,1.61l-.5.24Zm-165.37-.65l-.5-.24c-1.13-.54-2.24-1.08-3.36-1.64l-.5-.25.51-.99.5.25c1.11.55,2.22,1.1,3.34,1.63l.5.24-.49,1Zm172.06-2.6l-.52-.98.5-.26c1.3-.67,2.62-1.37,3.92-2.08l.49-.27.54.97-.49.27c-1.3.71-2.63,1.41-3.94,2.09l-.5.26Zm-178.75-.73l-.49-.26c-1.31-.69-2.64-1.41-3.95-2.13l-.49-.27.55-.97.49.27c1.3.72,2.62,1.43,3.92,2.12l.49.26-.52.98Zm185.96-3.15l-.56-.96.48-.28c1.07-.61,2.14-1.23,3.2-1.86l.48-.29.58.95-.48.29c-1.06.63-2.14,1.26-3.21,1.87l-.49.28Zm-193.16-.8l-.48-.28c-1.08-.62-2.15-1.26-3.21-1.9l-.48-.29.58-.94.48.29c1.06.64,2.12,1.27,3.19,1.89l.48.28-.56.96Zm200.2-3.38l-.6-.94.47-.29c1.05-.65,2.08-1.32,3.11-2l.47-.3.62.92-.47.3c-1.04.68-2.08,1.35-3.13,2.01l-.47.3Zm-207.23-.87l-.47-.3c-1.05-.67-2.09-1.35-3.13-2.04l-.46-.31.62-.92.46.31c1.03.68,2.06,1.36,3.11,2.02l.47.3-.61.93Zm213.47-3.18l-.63-.91.46-.31c1.22-.83,2.45-1.69,3.64-2.54l.45-.33.66.9-.45.33c-1.2.86-2.43,1.72-3.66,2.56l-.46.31Zm-219.69-.94l-.46-.32c-1.23-.85-2.45-1.72-3.65-2.59l-.45-.33.66-.89.45.33c1.18.86,2.4,1.73,3.62,2.58l.46.32-.64.91Zm226.37-3.79l-.67-.88.45-.33c.99-.74,1.97-1.48,2.94-2.24l.44-.34.69.87-.44.34c-.98.76-1.97,1.51-2.96,2.25l-.45.33Zm-233.02-1.01l-.44-.34c-.99-.75-1.97-1.51-2.95-2.28l-.44-.35.7-.86.44.35c.97.76,1.95,1.52,2.93,2.27l.44.34-.68.88Zm239.5-4l-.71-.86.43-.35c.96-.78,1.91-1.56,2.85-2.36l.43-.36.73.84-.43.36c-.95.8-1.9,1.59-2.87,2.37l-.43.35Zm-245.94-1.07l-.43-.35c-.96-.79-1.91-1.59-2.85-2.4l-.42-.36.73-.84.42.36c.93.8,1.88,1.6,2.83,2.39l.43.36-.72.85Zm251.63-3.71l-.74-.83.42-.37c1.11-.98,2.22-1.97,3.3-2.96l.41-.38.76.81-.41.38c-1.08,1-2.2,2-3.32,2.98l-.42.37Zm-257.29-1.13l-.41-.37c-1.11-.99-2.22-2.01-3.3-3.02l-.41-.38.77-.81.41.38c1.07,1,2.17,2.01,3.28,3l.41.37-.75.82Zm263.34-4.38l-.78-.8.4-.39c.89-.85,1.77-1.71,2.65-2.58l.39-.39.79.78-.39.39c-.88.87-1.77,1.74-2.67,2.6l-.4.39Zm-269.34-1.18l-.4-.39c-.89-.86-1.77-1.74-2.64-2.62l-.39-.4.8-.78.39.4c.87.87,1.74,1.74,2.63,2.6l.4.39-.78.79Zm275.16-4.58l-.81-.77.39-.4c.85-.89,1.7-1.79,2.54-2.69l.38-.41.82.75-.38.41c-.84.91-1.69,1.81-2.55,2.71l-.39.4Zm-280.92-1.23l-.38-.4c-.85-.9-1.69-1.81-2.53-2.73l-.37-.41.83-.74.37.41c.83.91,1.67,1.82,2.51,2.71l.38.41-.82.76Zm285.98-4.21l-.84-.73.37-.42c.97-1.09,1.95-2.22,2.91-3.35l.36-.42.86.71-.36.42c-.97,1.14-1.95,2.27-2.93,3.37l-.37.42Zm-291-1.27l-.37-.42c-.97-1.11-1.94-2.25-2.89-3.39l-.36-.43.86-.71.36.43c.95,1.13,1.92,2.27,2.88,3.37l.37.42-.85.73Zm296.32-4.94l-.87-.7.35-.43c.78-.95,1.55-1.92,2.31-2.89l.34-.44.88.68-.34.44c-.77.97-1.54,1.94-2.32,2.9l-.35.43Zm-301.59-1.31l-.35-.43c-.77-.96-1.54-1.94-2.3-2.92l-.34-.44.89-.67.34.44c.75.98,1.51,1.94,2.28,2.9l.35.43-.88.69Zm306.65-5.12l-.9-.66.33-.44c.74-.99,1.47-1.98,2.19-2.98l.32-.45.91.64-.33.45c-.72,1.01-1.46,2.01-2.2,3l-.33.44Zm-311.64-1.34l-.33-.45c-.73-1-1.46-2-2.17-3.01l-.32-.46.91-.64.32.45c.71,1,1.43,2,2.16,2.99l.33.45-.9.65Zm316-4.68l-.92-.62.32-.46c.84-1.21,1.67-2.45,2.48-3.68l.3-.46.94.6-.3.46c-.82,1.24-1.65,2.48-2.49,3.7l-.32.46Zm-320.3-1.36l-.31-.46c-.83-1.23-1.66-2.47-2.45-3.71l-.3-.47.94-.6.3.47c.79,1.23,1.61,2.47,2.44,3.69l.31.46-.93.62Zm324.82-5.45l-.95-.58.3-.47c.66-1.04,1.3-2.09,1.94-3.15l.29-.48.96.57-.28.48c-.64,1.06-1.29,2.12-1.95,3.17l-.29.47Zm-329.26-1.38l-.29-.47c-.65-1.05-1.29-2.11-1.91-3.17l-.28-.48.96-.56.28.48c.62,1.06,1.26,2.11,1.9,3.15l.29.47-.95.58Zm333.49-5.62l-.97-.54.27-.48c.61-1.07,1.21-2.15,1.8-3.23l.27-.49.98.53-.27.49c-.59,1.09-1.2,2.17-1.81,3.25l-.28.48Zm-337.64-1.39l-.27-.48c-.6-1.08-1.19-2.16-1.78-3.25l-.26-.49.99-.52.26.49c.58,1.08,1.17,2.16,1.77,3.23l.27.48-.98.54Zm341.22-5.13l-.99-.51.26-.49c.68-1.31,1.35-2.64,2-3.96l.24-.5,1.01.48-.24.5c-.65,1.33-1.33,2.67-2.01,3.98l-.26.49Zm-344.73-1.39l-.25-.5c-.67-1.31-1.33-2.65-1.97-3.98l-.24-.5,1.01-.48.24.5c.63,1.32,1.29,2.65,1.96,3.95l.25.5-1,.5Zm348.37-5.94l-1.01-.47.23-.5c.52-1.11,1.03-2.23,1.53-3.36l.22-.51,1.02.45-.22.51c-.5,1.13-1.02,2.26-1.54,3.38l-.23.5Zm-351.93-1.38l-.23-.5c-.51-1.12-1.01-2.24-1.5-3.37l-.22-.51,1.03-.44.22.51c.49,1.12.98,2.24,1.49,3.35l.23.51-1.02.46Zm355.25-6.1l-1.03-.42.21-.51c.47-1.14.93-2.28,1.38-3.43l.2-.52,1.04.4-.2.51c-.45,1.15-.92,2.31-1.39,3.45l-.21.51Zm-358.49-1.35l-.21-.51c-.46-1.14-.92-2.29-1.36-3.45l-.2-.52,1.05-.39.2.52c.44,1.15.89,2.29,1.35,3.43l.21.52-1.04.41Zm361.23-5.56l-1.05-.38.19-.52c.51-1.38,1.01-2.78,1.49-4.18l.18-.52,1.06.36-.18.52c-.48,1.4-.99,2.82-1.5,4.2l-.19.52Zm-363.91-1.35l-.19-.52c-.5-1.39-1-2.8-1.46-4.2l-.18-.53,1.06-.35.18.53c.46,1.38.95,2.79,1.45,4.17l.19.52-1.05.37Zm366.6-6.37l-1.07-.34.17-.53c.38-1.17.74-2.34,1.09-3.52l.16-.53,1.07.32-.16.53c-.35,1.19-.72,2.36-1.1,3.54l-.17.53Zm-369.23-1.34l-.17-.53c-.37-1.18-.73-2.36-1.07-3.55l-.16-.53,1.07-.31.16.53c.34,1.18.7,2.35,1.07,3.53l.17.53-1.07.33Zm371.58-6.46l-1.08-.29.15-.53c.32-1.18.64-2.37.94-3.56l.14-.54,1.08.27-.14.54c-.3,1.2-.62,2.39-.95,3.58l-.15.53Zm-373.87-1.36l-.14-.53c-.32-1.19-.62-2.39-.92-3.59l-.13-.54,1.09-.26.13.54c.29,1.19.6,2.38.91,3.57l.14.54-1.08.28Zm375.72-5.81l-1.09-.25.12-.54c.33-1.42.65-2.87.95-4.31l.11-.54,1.1.22-.11.54c-.3,1.45-.62,2.91-.96,4.34l-.13.54Zm-377.51-1.37l-.12-.54c-.32-1.44-.63-2.9-.92-4.35l-.11-.54,1.1-.21.11.54c.29,1.44.6,2.89.92,4.32l.12.54-1.09.24Zm379.21-6.6l-1.1-.2.1-.54c.23-1.2.44-2.41.64-3.62l.09-.55,1.1.18-.09.55c-.2,1.22-.42,2.43-.65,3.65l-.1.54Zm-380.85-1.38l-.1-.55c-.22-1.21-.43-2.43-.62-3.65l-.09-.55,1.1-.17.09.55c.19,1.21.4,2.42.62,3.63l.1.54-1.1.19Zm382.2-6.65l-1.11-.16.08-.55c.17-1.21.34-2.43.49-3.65l.07-.55,1.11.14-.07.55c-.15,1.23-.32,2.45-.49,3.67l-.08.55Zm-383.5-1.4l-.07-.55c-.17-1.22-.32-2.45-.46-3.67l-.06-.55,1.11-.13.06.55c.14,1.22.3,2.44.46,3.65l.07.55-1.11.15Zm384.43-5.95l-1.11-.11.06-.55c.15-1.45.29-2.93.41-4.4l.04-.55,1.12.09-.05.55c-.12,1.47-.26,2.96-.41,4.42l-.06.55Zm-385.31-1.4l-.05-.55c-.14-1.46-.27-2.95-.38-4.42l-.04-.55,1.12-.08.04.55c.11,1.47.23,2.95.37,4.4l.05.55-1.11.11Zm386.01-6.71l-1.12-.07.04-.55c.07-1.22.14-2.45.19-3.68l.02-.55,1.12.05-.02.55c-.05,1.24-.12,2.47-.19,3.7l-.03.55Zm-386.64-1.41l-.03-.55c-.07-1.23-.12-2.46-.16-3.7l-.02-.55,1.12-.04.02.55c.04,1.23.1,2.46.16,3.68l.03.55-1.12.06Zm386.99-6.73l-1.12-.02v-.55c.04-1.22.05-2.45.05-3.68v-.88c0-1.47-.03-2.95-.07-4.41l-.02-.55,1.12-.03.02.55c.04,1.47.06,2.96.07,4.44v.55h0v.33c0,1.24-.01,2.47-.04,3.7v.55Zm-387.29-1.4v-.55c-.02-.76-.02-1.53-.02-2.3,0-.47,0-.94,0-1.4v-.55s1.12,0,1.12,0v.55c0,.47,0,.93,0,1.4,0,.76,0,1.53.01,2.29v.55s-1.11.01-1.11.01Zm1.15-7.37l-1.12-.03v-.55c.05-1.47.11-2.96.18-4.44l.03-.55,1.12.06-.03.55c-.07,1.46-.13,2.95-.17,4.41v.55Zm384.86-3.9l-.02-.55c-.06-1.23-.13-2.45-.21-3.68l-.04-.55,1.12-.07.04.55c.08,1.23.15,2.46.21,3.7l.03.55-1.12.05Zm-384.52-4.19l-1.11-.07.04-.55c.09-1.23.18-2.46.29-3.69l.05-.55,1.12.1-.05.55c-.11,1.22-.2,2.44-.29,3.67l-.04.55Zm383.99-3.89l-.05-.55c-.11-1.22-.23-2.44-.36-3.66l-.06-.55,1.11-.12.06.55c.13,1.22.26,2.45.36,3.68l.05.55-1.12.1Zm-383.29-4.18l-1.11-.12.06-.55c.14-1.23.29-2.45.45-3.68l.07-.55,1.11.15-.07.55c-.16,1.21-.31,2.43-.44,3.66l-.06.55Zm382.51-3.14l-.07-.55c-.19-1.45-.39-2.93-.62-4.37l-.08-.55,1.11-.16.08.55c.22,1.45.43,2.93.62,4.4l.07.55-1.11.14Zm-381.57-4.16l-1.11-.16.08-.55c.22-1.46.46-2.94.72-4.39l.1-.54,1.1.19-.1.55c-.25,1.44-.49,2.91-.71,4.36l-.08.55Zm380.39-3.85l-.09-.55c-.21-1.21-.43-2.42-.66-3.62l-.11-.54,1.1-.21.1.54c.23,1.21.46,2.43.67,3.64l.09.55-1.1.19Zm-379.03-4.13l-1.1-.21.11-.54c.24-1.21.49-2.42.75-3.63l.12-.54,1.09.23-.12.54c-.26,1.2-.51,2.4-.74,3.6l-.11.54Zm377.5-3.82l-.12-.54c-.26-1.2-.53-2.4-.82-3.59l-.13-.54,1.09-.25.13.54c.29,1.2.56,2.4.82,3.61l.12.54-1.09.23Zm-375.8-4.1l-1.09-.26.13-.54c.29-1.2.59-2.4.9-3.59l.14-.54,1.08.28-.14.54c-.31,1.19-.61,2.38-.9,3.57l-.13.54Zm374.12-3.08l-.14-.54c-.37-1.42-.76-2.85-1.16-4.27l-.15-.53,1.08-.3.15.53c.4,1.42.79,2.86,1.16,4.29l.14.54-1.08.27Zm-372.27-4.06l-1.08-.3.15-.53c.4-1.42.83-2.86,1.26-4.26l.16-.53,1.07.32-.16.53c-.43,1.4-.85,2.82-1.25,4.24l-.15.53Zm370.1-3.75l-.16-.53c-.36-1.18-.73-2.35-1.11-3.51l-.17-.53,1.06-.34.17.53c.39,1.17.76,2.35,1.12,3.53l.16.53-1.07.32Zm-367.75-4.02l-1.06-.34.17-.53c.39-1.18.79-2.35,1.2-3.52l.18-.52,1.06.36-.18.52c-.41,1.16-.81,2.33-1.19,3.5l-.18.53Zm365.23-3.68l-.18-.52c-.41-1.16-.83-2.31-1.26-3.46l-.2-.52,1.05-.39.2.52c.43,1.15.86,2.31,1.27,3.48l.18.52-1.06.37Zm-362.54-3.99l-1.05-.39.2-.52c.44-1.16.89-2.32,1.35-3.47l.21-.51,1.04.41-.21.52c-.46,1.14-.91,2.29-1.34,3.45l-.2.52Zm359.97-2.92l-.2-.51c-.54-1.36-1.1-2.73-1.68-4.07l-.22-.51,1.03-.43.22.51c.58,1.35,1.14,2.73,1.69,4.1l.2.52-1.04.4Zm-357.24-3.95l-1.03-.43.22-.51c.58-1.36,1.18-2.73,1.79-4.08l.23-.51,1.02.45-.23.51c-.61,1.34-1.21,2.71-1.78,4.06l-.22.51Zm354.11-3.5l-.23-.51c-.5-1.12-1.01-2.23-1.54-3.34l-.24-.5,1.01-.47.24.5c.53,1.11,1.04,2.23,1.54,3.36l.23.51-1.02.45Zm-350.8-3.93l-1.01-.47.24-.5c.53-1.12,1.08-2.23,1.63-3.34l.25-.5,1,.49-.25.5c-.55,1.1-1.09,2.21-1.62,3.32l-.24.5Zm347.36-3.39l-.25-.5c-.55-1.1-1.11-2.19-1.68-3.27l-.26-.49.99-.51.26.49c.57,1.09,1.14,2.19,1.69,3.29l.25.5-1,.49Zm-343.73-3.89l-.99-.52.26-.49c.58-1.1,1.17-2.19,1.77-3.27l.27-.49.98.53-.27.48c-.6,1.08-1.18,2.16-1.76,3.25l-.26.49Zm340.33-2.63l-.27-.49c-.7-1.28-1.43-2.57-2.17-3.84l-.28-.48.97-.55.28.48c.75,1.28,1.48,2.58,2.19,3.87l.27.49-.98.53Zm-336.76-3.84l-.97-.55.28-.48c.74-1.28,1.51-2.57,2.28-3.83l.29-.48.96.58-.29.47c-.77,1.25-1.53,2.54-2.27,3.81l-.28.48Zm332.72-3.18l-.29-.48c-.64-1.05-1.28-2.09-1.94-3.13l-.3-.47.95-.59.3.47c.66,1.04,1.31,2.09,1.95,3.15l.29.48-.96.57Zm-328.51-3.77l-.94-.59.3-.47c.67-1.04,1.34-2.08,2.03-3.11l.31-.46.93.61-.31.46c-.68,1.03-1.36,2.06-2.02,3.1l-.3.47Zm324.18-3.08l-.31-.46c-.68-1.02-1.37-2.04-2.07-3.04l-.32-.46.92-.63.32.46c.71,1.01,1.4,2.03,2.09,3.06l.31.46-.93.61Zm-319.67-3.69l-.92-.63.32-.46c.71-1.01,1.43-2.02,2.16-3.02l.33-.45.91.65-.33.45c-.73.99-1.44,2-2.15,3l-.32.46Zm315.48-2.37l-.32-.45c-.86-1.19-1.75-2.39-2.64-3.56l-.34-.44.89-.66.34.44c.89,1.17,1.79,2.38,2.65,3.58l.33.45-.91.65Zm-311.14-3.61l-.89-.67.34-.44c.89-1.18,1.82-2.36,2.74-3.52l.35-.44.88.69-.35.43c-.92,1.15-1.84,2.33-2.73,3.5l-.34.44Zm306.26-2.88l-.34-.44c-.76-.96-1.54-1.92-2.32-2.87l-.35-.43.86-.7.35.43c.79.96,1.56,1.92,2.33,2.89l.34.44-.88.68Zm-301.22-3.5l-.86-.7.36-.43c.79-.95,1.59-1.9,2.4-2.84l.36-.42.85.72-.36.42c-.81.93-1.6,1.87-2.39,2.82l-.35.43Zm296.07-2.77l-.36-.42c-.8-.94-1.62-1.86-2.44-2.77l-.37-.42.84-.73.37.41c.83.92,1.64,1.85,2.45,2.79l.36.42-.85.72Zm-290.77-3.39l-.83-.74.37-.41c.83-.92,1.67-1.83,2.52-2.73l.38-.41.82.75-.38.4c-.84.9-1.68,1.81-2.5,2.72l-.37.41Zm285.85-2.12l-.38-.41c-1.01-1.08-2.04-2.16-3.06-3.21l-.39-.4.8-.77.39.4c1.03,1.06,2.06,2.14,3.08,3.23l.38.41-.82.75Zm-280.81-3.28l-.81-.77.39-.4c1.04-1.06,2.1-2.12,3.15-3.16l.4-.39.79.79-.4.39c-1.05,1.03-2.11,2.08-3.14,3.14l-.39.4Zm275.16-2.57l-.4-.39c-.88-.86-1.76-1.72-2.66-2.57l-.4-.38.77-.8.4.38c.9.85,1.79,1.72,2.67,2.59l.4.39-.79.78Zm-269.37-3.15l-.77-.8.41-.38c.9-.85,1.81-1.69,2.73-2.52l.41-.37.76.82-.41.37c-.91.83-1.82,1.66-2.72,2.51l-.41.38Zm263.48-2.46l-.41-.38c-.91-.83-1.84-1.65-2.76-2.46l-.42-.37.74-.83.42.37c.93.81,1.86,1.64,2.78,2.47l.41.37-.75.82Zm-257.45-3.01l-.74-.83.42-.36c.94-.81,1.88-1.61,2.84-2.41l.43-.36.72.85-.43.36c-.95.79-1.89,1.59-2.82,2.39l-.42.36Zm251.89-1.87l-.42-.36c-1.12-.94-2.28-1.89-3.44-2.82l-.43-.35.7-.86.43.35c1.16.93,2.33,1.89,3.46,2.83l.43.36-.72.85Zm-246.22-2.87l-.7-.86.43-.35c1.15-.92,2.33-1.84,3.52-2.75l.44-.34.68.88-.44.34c-1.18.9-2.36,1.82-3.5,2.73l-.43.35Zm239.88-2.25l-.44-.34c-.98-.75-1.96-1.5-2.96-2.23l-.45-.33.67-.89.45.33c1,.74,1.99,1.49,2.98,2.24l.44.34-.69.88Zm-233.44-2.72l-.67-.89.45-.33c1-.73,2.01-1.46,3.02-2.17l.46-.32.65.9-.46.32c-1.01.71-2.01,1.43-3,2.16l-.45.33Zm226.89-2.14l-.46-.32c-1.01-.71-2.03-1.42-3.05-2.11l-.46-.31.63-.91.46.31c1.03.7,2.05,1.4,3.07,2.12l.46.32-.65.9Zm-220.24-2.55l-.63-.92.46-.31c1.03-.69,2.07-1.37,3.11-2.04l.47-.3.61.93-.47.3c-1.04.67-2.07,1.34-3.09,2.03l-.46.31Zm214.11-1.62l-.47-.3c-1.26-.81-2.52-1.62-3.76-2.38l-.48-.29.59-.94.48.29c1.25.77,2.52,1.57,3.78,2.39l.47.3-.61.93Zm-207.9-2.4l-.59-.94.48-.29c1.27-.78,2.55-1.55,3.83-2.3l.48-.28.57.95-.48.28c-1.27.74-2.55,1.51-3.81,2.29l-.47.29Zm200.97-1.92l-.48-.28c-1.07-.63-2.14-1.25-3.22-1.86l-.48-.27.55-.96.49.27c1.09.61,2.16,1.23,3.23,1.87l.48.28-.57.95Zm-193.97-2.22l-.55-.97.49-.27c1.08-.6,2.17-1.2,3.26-1.79l.49-.26.53.97-.49.26c-1.09.58-2.17,1.17-3.25,1.78l-.49.27Zm186.86-1.8l-.49-.26c-1.09-.58-2.19-1.15-3.29-1.72l-.5-.25.51-.98.5.25c1.11.57,2.21,1.14,3.31,1.73l.49.26-.53.97Zm-179.69-2.04l-.51-.99.5-.25c1.11-.56,2.22-1.11,3.34-1.65l.5-.24.49,1-.5.24c-1.11.54-2.22,1.08-3.32,1.64l-.5.25Zm173.08-1.35l-.5-.24c-1.32-.64-2.68-1.28-4.03-1.9l-.51-.23.47-1.01.51.23c1.37.62,2.73,1.27,4.06,1.91l.5.24-.49,1Zm-166.42-1.88l-.47-1,.51-.23c1.34-.61,2.71-1.22,4.08-1.81l.51-.22.45,1.02-.51.22c-1.36.58-2.72,1.19-4.05,1.8l-.51.23Zm159-1.56l-.51-.22c-1.14-.49-2.28-.98-3.43-1.45l-.52-.21.43-1.02.52.21c1.15.47,2.3.96,3.45,1.46l.51.22-.45,1.01Zm-151.55-1.68l-.42-1.03.52-.21c1.15-.47,2.31-.93,3.47-1.38l.52-.2.41,1.03-.52.2c-1.16.44-2.31.9-3.45,1.37l-.52.21Zm143.98-1.44l-.52-.2c-1.16-.45-2.32-.88-3.49-1.3l-.53-.19.38-1.04.53.19c1.17.43,2.34.86,3.51,1.31l.52.2-.4,1.03Zm-136.36-1.51l-.38-1.04.52-.19c1.17-.42,2.35-.83,3.53-1.23l.53-.18.36,1.05-.53.18c-1.17.39-2.34.8-3.5,1.22l-.52.19Zm129.37-1.05l-.53-.18c-1.41-.48-2.84-.95-4.25-1.39l-.53-.17.34-1.06.53.17c1.41.45,2.85.92,4.27,1.4l.53.18-.36,1.05Zm-122.34-1.34l-.34-1.06.53-.17c1.42-.45,2.87-.89,4.29-1.3l.54-.15.32,1.06-.54.15c-1.41.41-2.85.85-4.26,1.29l-.53.17Zm114.55-1.15l-.54-.16c-1.19-.35-2.38-.69-3.57-1.01l-.54-.15.3-1.07.54.15c1.2.33,2.4.67,3.59,1.02l.54.16-.32,1.06Zm-106.72-1.17l-.29-1.07.54-.15c1.2-.32,2.41-.64,3.61-.94l.54-.13.27,1.07-.54.14c-1.2.3-2.4.61-3.59.93l-.54.15Zm98.84-.99l-.54-.14c-1.2-.3-2.41-.58-3.61-.86l-.55-.12.25-1.08.54.12c1.22.28,2.43.57,3.64.87l.54.13-.27,1.08Zm-90.92-.99l-.25-1.08.54-.12c1.21-.27,2.43-.54,3.65-.79l.55-.11.23,1.09-.55.11c-1.21.25-2.42.51-3.63.78l-.54.12Zm83.68-.68l-.55-.11c-1.44-.3-2.92-.59-4.37-.86l-.55-.1.2-1.09.55.1c1.47.27,2.95.56,4.4.86l.55.11-.23,1.08Zm-76.41-.83l-.21-1.09.55-.1c1.48-.27,2.97-.53,4.42-.76l.55-.09.18,1.09-.55.09c-1.44.23-2.92.49-4.39.76l-.55.1Zm68.38-.68l-.55-.09c-1.22-.2-2.44-.39-3.67-.57l-.55-.08.16-1.1.55.08c1.24.18,2.47.37,3.69.57l.55.09-.18,1.09Zm-60.32-.66l-.16-1.1.55-.08c1.23-.17,2.47-.34,3.7-.49l.55-.07.14,1.1-.55.07c-1.23.15-2.46.31-3.68.49l-.55.08Zm52.23-.52l-.56-.07c-1.23-.15-2.46-.28-3.69-.41l-.56-.06.11-1.1.55.06c1.24.13,2.48.27,3.71.41l.55.07-.13,1.1Zm-44.12-.48l-.11-1.1.56-.06c1.24-.12,2.48-.23,3.72-.33l.56-.04.09,1.1-.56.05c-1.24.1-2.47.21-3.7.33l-.56.06Zm36.73-.3l-.56-.05c-1.48-.12-2.98-.23-4.45-.32l-.56-.03.07-1.11.56.03c1.48.09,2.98.2,4.47.32l.56.04-.09,1.11Zm-29.32-.32l-.07-1.11.56-.04c1.48-.09,2.99-.16,4.48-.22l.56-.02.04,1.11-.56.02c-1.48.06-2.98.13-4.45.22l-.56.04Zm21.17-.21l-.56-.02c-1.23-.05-2.47-.09-3.71-.11h-.56s.03-1.12.03-1.12h.56c1.25.04,2.49.08,3.73.13l.56.02-.05,1.11Zm-13.01-.14l-.02-1.11h.56c1.24-.04,2.49-.05,3.74-.05h.56v1.11s-.56,0-.56,0c-1.24,0-2.48.01-3.72.04h-.56Z"/>
    <g>
      <path class="cls-1" d="m519.48,258.3h-3.35v-1.11h3.35v1.11Zm-5.96,0h-4.85v-1.11h4.85v1.11Zm-8.2,0h-4.85v-1.11h4.85v1.11Zm-7.45,0h-5.59v-1.11h5.59v1.11Zm-8.2,0h-4.85v-1.11h4.85v1.11Zm-8.2,0h-4.85v-1.11h4.85v1.11Zm-7.45,0h-5.59v-1.11h5.59v1.11Zm-8.2,0h-4.84v-1.11h4.84v1.11Zm-8.2,0h-4.85v-1.11h4.85v1.11Z"/>
      <path class="cls-1" d="m67.65,258.3h-3.35v-1.11h3.35v1.11Zm-5.96,0h-4.85v-1.11h4.85v1.11Zm-8.2,0h-4.85v-1.11h4.85v1.11Zm-7.46,0h-5.59v-1.11h5.59v1.11Zm-8.2,0h-4.85v-1.11h4.85v1.11Zm-8.2,0h-4.84v-1.11h4.84v1.11Zm-7.45,0h-5.59v-1.11h5.59v1.11Zm-8.2,0h-4.85v-1.11h4.85v1.11Zm-8.2,0H.93v-1.11h4.85v1.11Z"/>
    </g>
    <g>
      <path class="cls-1" d="m260.77,514.56h-1.12v-3.32h1.12v3.32Zm0-5.91h-1.12v-4.8h1.12v4.8Zm0-8.12h-1.12v-4.8h1.12v4.8Zm0-7.39h-1.12v-5.54h1.12v5.54Zm0-8.12h-1.12v-4.8h1.12v4.8Zm0-8.12h-1.12v-4.8h1.12v4.8Zm0-7.38h-1.12v-5.54h1.12v5.54Zm0-8.12h-1.12v-4.8h1.12v4.8Zm0-8.12h-1.12v-4.8h1.12v4.8Z"/>
      <path class="cls-1" d="m260.77,67.01h-1.12v-3.32h1.12v3.32Zm0-5.91h-1.12v-4.8h1.12v4.8Zm0-8.12h-1.12v-4.8h1.12v4.8Zm0-7.38h-1.12v-5.54h1.12v5.54Zm0-8.12h-1.12v-4.8h1.12v4.8Zm0-8.12h-1.12v-4.8h1.12v4.8Zm0-7.39h-1.12v-5.54h1.12v5.54Zm0-8.12h-1.12v-4.8h1.12v4.8Zm0-8.12h-1.12V.92h1.12v4.8Z"/>
    </g>
  </g>
  <g>
    <g>
      <g>
        <rect class="cls-1" x="482" y="266.67" width="14.48" height="1.63"/>
        <rect class="cls-2" x="482" y="265.04" width="14.48" height="1.63"/>
        <rect class="cls-1" x="482" y="263.41" width="14.48" height="1.63"/>
        <rect class="cls-2" x="482" y="261.78" width="14.48" height="1.63"/>
        <rect class="cls-1" x="482" y="260.15" width="14.48" height="1.63"/>
        <rect class="cls-2" x="482" y="258.52" width="14.48" height="1.63"/>
        <rect class="cls-2" x="479" y="256.07" width="20.11" height="3.26"/>
        <rect class="cls-1" x="482" y="256.89" width="14.48" height="1.63"/>
        <rect class="cls-2" x="482" y="255.25" width="14.48" height="1.63"/>
        <rect class="cls-1" x="482" y="253.62" width="14.48" height="1.63"/>
        <rect class="cls-2" x="482" y="252" width="14.48" height="1.63"/>
        <rect class="cls-1" x="482" y="250.36" width="14.48" height="1.63"/>
        <rect class="cls-2" x="482" y="248.73" width="14.48" height="1.63"/>
        <rect class="cls-1" x="482" y="247.1" width="14.48" height="1.63"/>
      </g>
      <g>
        <rect class="cls-1" x="24.29" y="266.75" width="14.48" height="1.63"/>
        <rect class="cls-2" x="24.29" y="265.12" width="14.48" height="1.63"/>
        <rect class="cls-1" x="24.29" y="263.49" width="14.48" height="1.63"/>
        <rect class="cls-2" x="24.29" y="261.86" width="14.48" height="1.63"/>
        <rect class="cls-1" x="24.29" y="260.23" width="14.48" height="1.63"/>
        <rect class="cls-2" x="24.29" y="258.6" width="14.48" height="1.63"/>
        <rect class="cls-2" x="21.3" y="256.16" width="20.11" height="3.26"/>
        <rect class="cls-1" x="24.29" y="256.97" width="14.48" height="1.63"/>
        <rect class="cls-2" x="24.29" y="255.34" width="14.48" height="1.63"/>
        <rect class="cls-1" x="24.29" y="253.71" width="14.48" height="1.63"/>
        <rect class="cls-2" x="24.29" y="252.08" width="14.48" height="1.63"/>
        <rect class="cls-1" x="24.29" y="250.45" width="14.48" height="1.63"/>
        <rect class="cls-2" x="24.29" y="248.82" width="14.48" height="1.63"/>
        <rect class="cls-1" x="24.29" y="247.19" width="14.48" height="1.63"/>
      </g>
    </g>
    <g>
      <g>
        <rect class="cls-1" x="269.22" y="23.71" width="1.65" height="14.34"/>
        <rect class="cls-2" x="267.57" y="23.71" width="1.65" height="14.34"/>
        <rect class="cls-1" x="265.93" y="23.71" width="1.64" height="14.34"/>
        <rect class="cls-2" x="264.28" y="23.71" width="1.65" height="14.34"/>
        <rect class="cls-1" x="262.64" y="23.71" width="1.64" height="14.34"/>
        <rect class="cls-2" x="260.99" y="23.71" width="1.65" height="14.34"/>
        <rect class="cls-2" x="258.52" y="21.1" width="3.29" height="19.92"/>
        <rect class="cls-1" x="259.34" y="23.71" width="1.65" height="14.34"/>
        <rect class="cls-2" x="257.7" y="23.71" width="1.65" height="14.34"/>
        <rect class="cls-1" x="256.05" y="23.71" width="1.65" height="14.34"/>
        <rect class="cls-2" x="254.4" y="23.71" width="1.64" height="14.34"/>
        <rect class="cls-1" x="252.76" y="23.71" width="1.65" height="14.34"/>
        <rect class="cls-2" x="251.11" y="23.71" width="1.65" height="14.34"/>
        <rect class="cls-1" x="249.47" y="23.71" width="1.65" height="14.34"/>
      </g>
      <g>
        <rect class="cls-1" x="269.3" y="477.09" width="1.65" height="14.34"/>
        <rect class="cls-2" x="267.66" y="477.09" width="1.65" height="14.34"/>
        <rect class="cls-1" x="266.01" y="477.09" width="1.64" height="14.34"/>
        <rect class="cls-2" x="264.37" y="477.09" width="1.65" height="14.34"/>
        <rect class="cls-1" x="262.72" y="477.09" width="1.65" height="14.34"/>
        <rect class="cls-2" x="261.07" y="477.09" width="1.65" height="14.34"/>
        <rect class="cls-2" x="258.61" y="474.47" width="3.29" height="19.92"/>
        <rect class="cls-1" x="259.43" y="477.09" width="1.65" height="14.34"/>
        <rect class="cls-2" x="257.78" y="477.09" width="1.64" height="14.34"/>
        <rect class="cls-1" x="256.14" y="477.09" width="1.64" height="14.34"/>
        <rect class="cls-2" x="254.49" y="477.09" width="1.65" height="14.34"/>
        <rect class="cls-1" x="252.84" y="477.09" width="1.65" height="14.34"/>
        <rect class="cls-2" x="251.2" y="477.09" width="1.64" height="14.34"/>
        <rect class="cls-1" x="249.55" y="477.09" width="1.65" height="14.34"/>
      </g>
    </g>
  </g>
</svg>