<?xml version="1.0" encoding="UTF-8"?>
<svg id="Layer_1" data-name="Layer 1" xmlns="http://www.w3.org/2000/svg" viewBox="0 0 106 360.44">
  <defs>
    <style>
      .cls-1 {
        fill: #cfd0d2;
      }

      .cls-2 {
        fill: #fff;
      }

      .cls-3 {
        opacity: .29;
      }

      .cls-4 {
        fill: #aeafb2;
      }

      .cls-5 {
        fill: #d7d8da;
      }

      .cls-6 {
        fill: #bbbdbf;
      }

      .cls-7 {
        fill: #8ca03b;
      }

      .cls-8 {
        fill: #a5a7aa;
      }

      .cls-9 {
        fill: #221f1f;
      }

      .cls-10 {
        fill: #707376;
      }

      .cls-11 {
        fill: #e6e7e8;
      }

      .cls-12 {
        fill: #d9d8d7;
      }
    </style>
  </defs>
  <path class="cls-11" d="m105.63,292.33c-.62-1.25-1.87-1.96-3.16-1.96-.53,0-1.07.12-1.58.37l-2.59,1.3v-17.45c0-1.61-.3-3.14-.85-4.57h-3.23c-.02-1.35-.28-2.65-.74-3.86h1.77c3.54,0,6.44-2.91,6.44-6.48v-74.57s0-22.64,0-22.64c0-1.16-.39-2.2-.93-3.14.54-.71.93-1.48.93-2.35v-55.75s0-16.93,0-16.93c0-.66-.18-1.28-.5-1.85.32-.57.5-1.2.5-1.85V24.86s0-16.93,0-16.93c0-2.66-2.9-4.83-6.44-4.84l-1.79-3.1h-58.75l-1.81,3.14c-3.41.12-6.16,2.21-6.16,4.8v72.68c0,.66.18,1.29.5,1.86-.32.57-.5,1.19-.5,1.84v72.68c0,.87.4,1.65.94,2.36-.54.94-.94,1.97-.94,3.13v97.21c0,3.57,2.89,6.48,6.44,6.48h1.77c-.47,1.21-.72,2.51-.75,3.86h-3.22c-.55,1.43-.85,2.97-.85,4.57v17.68l-3.06-1.54c-.51-.25-1.05-.38-1.58-.37-1.3,0-2.54.72-3.16,1.96-.87,1.75-.16,3.88,1.58,4.76l6.22,3.12v10.95s.28,3.37.28,3.37v33.82c0,6.59,6.35,11.99,14.11,11.99h.91c.29.02.57.09.87.09h35.85c.29,0,.58-.07.87-.09h.8c7.76,0,14.11-5.4,14.11-11.99v-32.54l.38-4.66v-11.19s5.75-2.89,5.75-2.89c1.74-.88,2.45-3.01,1.58-4.76Z"/>
  <g>
    <rect class="cls-6" x="22.12" y="63.56" width="3.41" height="162.03"/>
    <rect class="cls-6" x="67.6" y="63.56" width="3.41" height="162.03"/>
    <g>
      <g>
        <polygon class="cls-9" points="35.74 176.34 57.9 176.34 84.03 176.34 79.47 168.04 57.9 168.04 35.74 168.04 14.18 168.04 9.61 176.34 35.74 176.34"/>
        <path class="cls-9" d="m89.47,288.57c1.44,0,2.83.63,3.51,1.71.97,1.53.18,3.38-1.75,4.15l-13.08,5.15c-1.94.76-4.3.14-5.27-1.38-.97-1.53-.18-3.38,1.76-4.15l13.08-5.15c.56-.22,1.16-.33,1.75-.33Z"/>
        <g>
          <g>
            <path class="cls-9" d="m3.93,288.57c-1.44,0-2.83.63-3.51,1.71-.97,1.53-.18,3.38,1.75,4.15l13.08,5.15c1.94.76,4.3.14,5.27-1.38.97-1.53.18-3.38-1.76-4.15l-13.08-5.15c-.56-.22-1.16-.33-1.75-.33Z"/>
            <path class="cls-2" d="m9.61,198.92v-21.65c0-1.22,1.31-2.25,2.87-2.25h68.97c1.55,0,2.86,1.03,2.86,2.25v21.66l-4.84,2.2v27.8l4.84,2.2v30.75c0,1.22-1.31,2.25-2.86,2.25h-4.78c-2.24-1.75-5.32-2.84-8.71-2.84H25.97c-3.39,0-6.48,1.09-8.71,2.84h-4.78c-1.55,0-2.87-1.03-2.87-2.25v-30.74l4.84-2.2v-27.8l-4.84-2.2Z"/>
            <polygon class="cls-7" points="9.61 231.13 9.61 198.92 14.45 201.13 14.45 228.93 9.61 231.13"/>
            <path class="cls-8" d="m13.6,299.04v-28.03c0-1.23.3-2.41.84-3.5h65.04c.54,1.09.84,2.27.83,3.5v28.03s-2.91,28.06-2.91,28.06c-.56,5.33-6.36,9.7-12.9,9.7H29.42c-6.54,0-12.35-4.37-12.9-9.7l-2.92-28.06Zm10.43-12.74c-1.39,1.25-1.4,2.73-1.34,3.29v12.1l.86.62c5.91,4.25,14.71,6.69,24.11,6.69h.87c9.42,0,18.21-2.44,24.12-6.69l.87-.62v-12.1c.05-.56.04-2.04-1.35-3.29-.79-.71-2.3-1.56-4.98-1.56H29.01c-2.68,0-4.19.85-4.98,1.56Z"/>
            <path class="cls-8" d="m9.08,306.68v-31.83c0-1.4.33-2.74.95-3.98h73.86c.61,1.24.95,2.58.95,3.98v31.83s-3.31,31.87-3.31,31.87c-.64,6.06-7.22,11.02-14.65,11.02H27.04c-7.43,0-14.03-4.96-14.65-11.02l-3.32-31.87Zm11.84-14.46c-1.58,1.42-1.59,3.1-1.52,3.73v13.75l.98.7c6.71,4.83,16.7,7.59,27.38,7.59h.99c10.7,0,20.68-2.77,27.39-7.59l.98-.7v-13.75c.06-.64.04-2.31-1.54-3.73-.9-.8-2.61-1.77-5.65-1.77H26.57c-3.04,0-4.75.97-5.65,1.77Z"/>
            <path class="cls-10" d="m9.38,339.05v-30.07l3.7,30.1c.7,5.72,8.07,10.4,16.36,10.4h-4.38c-8.63,0-15.69-4.7-15.69-10.43Z"/>
            <path class="cls-10" d="m84.42,339.05v-30.07l-3.7,30.1c-.7,5.72-8.07,10.4-16.36,10.4h4.38c8.63,0,15.69-4.7,15.68-10.43Z"/>
            <path class="cls-12" d="m76.67,264.13H17.25c2.23-1.75,5.32-2.84,8.71-2.84h41.99c3.39,0,6.47,1.09,8.71,2.84Z"/>
            <path class="cls-9" d="m25.64,289.59c-.02-.23-.04-1.04.62-1.68.56-.54,1.51-.82,2.75-.82h38.18c1.24,0,2.19.28,2.75.82.66.64.64,1.45.63,1.68v.1s-.01,11.97-.01,11.97c-5.37,4.09-13.39,6.44-22.02,6.44h-.87c-8.62,0-16.64-2.35-22.01-6.44v-11.97s0-.1,0-.1Z"/>
            <path class="cls-4" d="m25.65,301.65c5.37,4.09,13.39,6.44,22.01,6.44h.87c8.63,0,16.65-2.35,22.02-6.44v-11.97s.01-.1.01-.1c.02-.23.03-1.04-.63-1.68-.56-.54-1.51-.82-2.75-.82H29.01c-1.24,0-2.19.28-2.75.82-.66.64-.65,1.45-.62,1.68v.1s0,11.97,0,11.97Zm-2.1.67l-.86-.62v-12.1c-.06-.56-.04-2.04,1.34-3.29.79-.71,2.3-1.56,4.98-1.56h38.18c2.68,0,4.19.85,4.98,1.56,1.39,1.25,1.4,2.73,1.35,3.29v12.1l-.87.62c-5.91,4.25-14.7,6.69-24.12,6.69h-.87c-9.41,0-18.21-2.44-24.11-6.69Z"/>
            <path class="cls-5" d="m12.47,267.51h68.97c3.93,0,7.16-2.53,7.16-5.64v-64.9s0-19.7,0-19.7c0-3.1-3.23-5.63-7.16-5.63H12.47c-3.94,0-7.16,2.53-7.16,5.63v84.6c0,3.1,3.22,5.64,7.16,5.64Zm-2.87-36.38v-53.86c0-1.22,1.31-2.25,2.87-2.25h68.97c1.55,0,2.86,1.03,2.86,2.25v84.6c0,1.22-1.31,2.25-2.86,2.25h-4.78s-59.41,0-59.41,0h-4.78c-1.55,0-2.87-1.03-2.87-2.25v-30.74Z"/>
          </g>
          <path class="cls-3" d="m29.01,286.74h38.18c1.38,0,2.45.33,3.08.95.73.71.75,1.58.72,1.92v.1s0,12.09,0,12.09l-.13.1c-5.45,4.15-13.59,6.54-22.32,6.54h-.87c-8.73,0-16.86-2.38-22.31-6.54l-.13-.1v-12.18c-.03-.18-.09-1.15.71-1.92.64-.62,1.7-.95,3.08-.95Zm41.11,14.77v-11.94c.02-.2.03-.91-.52-1.44-.47-.46-1.3-.7-2.41-.7H29.01c-1.11,0-1.94.24-2.41.7-.6.58-.53,1.35-.52,1.44v.1s0,11.84,0,11.84c5.29,3.97,13.14,6.24,21.57,6.24h.87c8.44,0,16.29-2.27,21.58-6.24Z"/>
        </g>
      </g>
      <rect class="cls-1" x="18.31" y="179.44" width="58.56" height="1.34"/>
      <rect class="cls-1" x="18.31" y="185.93" width="58.56" height="1.34"/>
      <rect class="cls-1" x="18.31" y="192.42" width="58.56" height="1.34"/>
      <rect class="cls-1" x="18.31" y="198.91" width="58.56" height="1.34"/>
      <rect class="cls-1" x="18.31" y="205.4" width="58.56" height="1.34"/>
      <rect class="cls-1" x="18.31" y="211.89" width="58.56" height="1.34"/>
      <rect class="cls-1" x="18.31" y="218.38" width="58.56" height="1.34"/>
      <rect class="cls-1" x="18.31" y="224.87" width="58.56" height="1.34"/>
      <rect class="cls-1" x="18.31" y="231.36" width="58.56" height="1.34"/>
      <rect class="cls-1" x="18.31" y="237.85" width="58.56" height="1.34"/>
      <rect class="cls-1" x="18.31" y="244.35" width="58.56" height="1.34"/>
      <rect class="cls-1" x="18.31" y="250.84" width="58.56" height="1.34"/>
      <rect class="cls-1" x="18.31" y="257.33" width="58.56" height="1.34"/>
      <polygon class="cls-9" points="84.3 198.93 79.47 201.13 79.47 228.93 84.3 231.12 88.61 233.08 88.6 196.97 84.3 198.93"/>
      <polygon class="cls-9" points="9.61 198.92 14.45 201.13 14.45 228.93 9.61 231.13 5.32 233.08 5.32 196.97 9.61 198.92"/>
      <path class="cls-8" d="m76.67,264.13h4.78c1.55,0,2.86-1.03,2.86-2.25v-30.75s-4.84-2.2-4.84-2.2v-27.8l4.84-2.2v-21.66c0-1.22-1.31-2.25-2.86-2.25h-10.88s0,86.49,0,86.49c2.35.4,4.45,1.33,6.1,2.62Z"/>
      <path class="cls-8" d="m17.17,264.13h-4.78c-1.55,0-2.86-1.03-2.86-2.25v-30.75l4.84-2.2v-27.8l-4.84-2.2v-21.66c0-1.22,1.31-2.25,2.86-2.25h10.88v86.49c-2.35.4-4.45,1.33-6.1,2.62Z"/>
      <path class="cls-10" d="m79.48,267.51H14.44c-.52,1.05-.8,2.18-.83,3.36h66.69c-.02-1.18-.31-2.31-.83-3.36Z"/>
    </g>
    <g>
      <polygon class="cls-9" points="35.74 91.25 57.9 91.25 84.03 91.25 79.47 85.05 57.9 85.05 35.74 85.05 14.18 85.05 9.61 91.25 35.74 91.25"/>
      <path class="cls-2" d="m9.61,108.14v-16.19c0-.91,1.31-1.68,2.87-1.68h68.97c1.55,0,2.86.77,2.86,1.68v16.19l-4.84,1.64v20.78l4.84,1.64v22.99c0,.91-1.31,1.69-2.86,1.69h-4.78c-2.24-1.31-5.32-2.13-8.71-2.13H25.97c-3.39,0-6.48.82-8.71,2.13h-4.78c-1.55,0-2.87-.77-2.87-1.69v-22.98l4.84-1.65v-20.78l-4.84-1.65Z"/>
      <polygon class="cls-7" points="9.61 132.22 9.61 108.14 14.45 109.79 14.45 130.57 9.61 132.22"/>
      <path class="cls-12" d="m76.67,156.89H17.25c2.23-1.31,5.32-2.13,8.71-2.13h41.99c3.39,0,6.47.82,8.71,2.13Z"/>
      <path class="cls-5" d="m12.47,159.42h68.97c3.93,0,7.16-1.89,7.16-4.22v-48.52s0-14.73,0-14.73c0-2.31-3.23-4.21-7.16-4.21H12.47c-3.94,0-7.16,1.89-7.16,4.21v63.25c0,2.32,3.22,4.21,7.16,4.21Zm-2.87-27.2v-40.27c0-.91,1.31-1.68,2.87-1.68h68.97c1.55,0,2.86.77,2.86,1.68v63.25c0,.91-1.31,1.69-2.86,1.69H12.47c-1.55,0-2.87-.77-2.87-1.69v-22.98Z"/>
      <rect class="cls-1" x="18.31" y="93.41" width="58.56" height="1.34"/>
      <rect class="cls-1" x="18.31" y="98.26" width="58.56" height="1.34"/>
      <rect class="cls-1" x="18.31" y="103.11" width="58.56" height="1.34"/>
      <rect class="cls-1" x="18.31" y="107.96" width="58.56" height="1.34"/>
      <rect class="cls-1" x="18.31" y="112.82" width="58.56" height="1.34"/>
      <rect class="cls-1" x="18.31" y="117.67" width="58.56" height="1.34"/>
      <rect class="cls-1" x="18.31" y="122.52" width="58.56" height="1.34"/>
      <rect class="cls-1" x="18.31" y="127.37" width="58.56" height="1.34"/>
      <rect class="cls-1" x="18.31" y="132.22" width="58.56" height="1.34"/>
      <rect class="cls-1" x="18.31" y="137.07" width="58.56" height="1.34"/>
      <rect class="cls-1" x="18.31" y="141.93" width="58.56" height="1.34"/>
      <rect class="cls-1" x="18.31" y="146.78" width="58.56" height="1.34"/>
      <rect class="cls-1" x="18.31" y="151.63" width="58.56" height="1.34"/>
      <polygon class="cls-9" points="84.3 108.15 79.47 109.79 79.47 130.57 84.3 132.21 88.61 133.68 88.6 106.68 84.3 108.15"/>
      <polygon class="cls-9" points="9.61 108.14 14.45 109.79 14.45 130.57 9.61 132.22 5.32 133.68 5.32 106.68 9.61 108.14"/>
      <path class="cls-8" d="m76.67,156.89h4.78c1.55,0,2.86-.77,2.86-1.69v-22.99s-4.84-1.64-4.84-1.64v-20.78l4.84-1.64v-16.19c0-.91-1.31-1.68-2.86-1.68h-10.88s0,64.66,0,64.66c2.35.3,4.45.99,6.1,1.96Z"/>
      <path class="cls-8" d="m17.17,156.89h-4.78c-1.55,0-2.86-.77-2.86-1.68v-22.99l4.84-1.64v-20.78l-4.84-1.64v-16.19c0-.91,1.31-1.68,2.86-1.68h10.88v64.66c-2.35.3-4.45.99-6.1,1.96Z"/>
    </g>
    <g>
      <polygon class="cls-9" points="35.74 10.69 57.9 10.69 84.03 10.69 79.47 4.48 57.9 4.48 35.74 4.48 14.18 4.48 9.61 10.69 35.74 10.69"/>
      <path class="cls-2" d="m9.61,27.58V11.39c0-.91,1.31-1.68,2.87-1.68h68.97c1.55,0,2.86.77,2.86,1.68v16.19l-4.84,1.64v20.78l4.84,1.64v22.99c0,.91-1.31,1.68-2.86,1.68h-4.78c-2.24-1.31-5.32-2.13-8.71-2.13H25.97c-3.39,0-6.48.82-8.71,2.13h-4.78c-1.55,0-2.87-.77-2.87-1.68v-22.99l4.84-1.65v-20.78l-4.84-1.65Z"/>
      <polygon class="cls-7" points="9.61 51.66 9.61 27.58 14.45 29.23 14.45 50.01 9.61 51.66"/>
      <path class="cls-12" d="m76.67,76.33H17.25c2.23-1.31,5.32-2.13,8.71-2.13h41.99c3.39,0,6.47.82,8.71,2.13Z"/>
      <path class="cls-5" d="m12.47,78.86h68.97c3.93,0,7.16-1.89,7.16-4.21V26.12s0-14.73,0-14.73c0-2.31-3.23-4.21-7.16-4.21H12.47c-3.94,0-7.16,1.89-7.16,4.21v63.25c0,2.32,3.22,4.21,7.16,4.21Zm-2.87-27.2V11.39c0-.91,1.31-1.68,2.87-1.68h68.97c1.55,0,2.86.77,2.86,1.68v63.25c0,.91-1.31,1.68-2.86,1.68H12.47c-1.55,0-2.87-.77-2.87-1.68v-22.99Z"/>
      <rect class="cls-1" x="18.31" y="12.84" width="58.56" height="1.34"/>
      <rect class="cls-1" x="18.31" y="17.69" width="58.56" height="1.34"/>
      <rect class="cls-1" x="18.31" y="22.55" width="58.56" height="1.34"/>
      <rect class="cls-1" x="18.31" y="27.4" width="58.56" height="1.34"/>
      <rect class="cls-1" x="18.31" y="32.25" width="58.56" height="1.34"/>
      <rect class="cls-1" x="18.31" y="37.1" width="58.56" height="1.34"/>
      <rect class="cls-1" x="18.31" y="41.96" width="58.56" height="1.34"/>
      <rect class="cls-1" x="18.31" y="46.81" width="58.56" height="1.34"/>
      <rect class="cls-1" x="18.31" y="51.66" width="58.56" height="1.34"/>
      <rect class="cls-1" x="18.31" y="56.51" width="58.56" height="1.34"/>
      <rect class="cls-1" x="18.31" y="61.36" width="58.56" height="1.34"/>
      <rect class="cls-1" x="18.31" y="66.22" width="58.56" height="1.34"/>
      <rect class="cls-1" x="18.31" y="71.07" width="58.56" height="1.34"/>
      <polygon class="cls-9" points="84.3 27.58 79.47 29.23 79.47 50.01 84.3 51.65 88.61 53.11 88.6 26.12 84.3 27.58"/>
      <polygon class="cls-9" points="9.61 27.58 14.45 29.23 14.45 50.01 9.61 51.66 5.32 53.11 5.32 26.12 9.61 27.58"/>
      <path class="cls-8" d="m76.67,76.33h4.78c1.55,0,2.86-.77,2.86-1.68v-22.99s-4.84-1.64-4.84-1.64v-20.78l4.84-1.64V11.39c0-.91-1.31-1.68-2.86-1.68h-10.88s0,64.67,0,64.67c2.35.3,4.45.99,6.1,1.96Z"/>
      <path class="cls-8" d="m17.17,76.33h-4.78c-1.55,0-2.86-.77-2.86-1.68v-22.99l4.84-1.64v-20.78l-4.84-1.64V11.39c0-.91,1.31-1.68,2.86-1.68h10.88v64.67c-2.35.3-4.45.99-6.1,1.96Z"/>
    </g>
  </g>
</svg>