<?xml version="1.0" encoding="UTF-8"?>
<svg xmlns="http://www.w3.org/2000/svg" xmlns:xlink="http://www.w3.org/1999/xlink" viewBox="0 0 250.28 203.09">
  <defs>
    <style>
      .cls-1 {
        fill: url(#linear-gradient-3);
      }

      .cls-1, .cls-2, .cls-3, .cls-4, .cls-5, .cls-6, .cls-7 {
        mix-blend-mode: multiply;
      }

      .cls-8 {
        fill: #fff;
      }

      .cls-2, .cls-9 {
        fill: #939598;
      }

      .cls-3 {
        fill: url(#linear-gradient);
      }

      .cls-4 {
        fill: url(#linear-gradient-4);
      }

      .cls-10 {
        filter: url(#luminosity-noclip-5);
      }

      .cls-11 {
        mask: url(#mask-2);
      }

      .cls-12 {
        isolation: isolate;
      }

      .cls-13 {
        mask: url(#mask-3);
      }

      .cls-5 {
        fill: url(#linear-gradient-6);
      }

      .cls-6 {
        fill: url(#linear-gradient-5);
      }

      .cls-14 {
        mask: url(#mask-5);
      }

      .cls-15 {
        mask: url(#mask-4);
      }

      .cls-7 {
        fill: url(#linear-gradient-2);
      }

      .cls-16 {
        fill: #818285;
      }

      .cls-17 {
        filter: url(#luminosity-noclip);
      }

      .cls-18 {
        mask: url(#mask-1);
      }

      .cls-19 {
        mask: url(#mask);
      }

      .cls-20 {
        fill: #27281f;
      }

      .cls-21 {
        fill: none;
        stroke: #27281f;
        stroke-linecap: round;
        stroke-linejoin: round;
      }

      .cls-22 {
        fill: #def0fa;
      }

      .cls-23 {
        filter: url(#luminosity-noclip-3);
      }
    </style>
    <filter id="luminosity-noclip" x="36.28" y="15.06" width="175.22" height="12.58" color-interpolation-filters="sRGB" filterUnits="userSpaceOnUse">
      <feFlood flood-color="#fff" result="bg"/>
      <feBlend in="SourceGraphic" in2="bg"/>
    </filter>
    <filter id="luminosity-noclip-2" x="36.28" y="-8293.85" width="175.22" height="32766" color-interpolation-filters="sRGB" filterUnits="userSpaceOnUse">
      <feFlood flood-color="#fff" result="bg"/>
      <feBlend in="SourceGraphic" in2="bg"/>
    </filter>
    <mask id="mask-1" x="36.28" y="-8293.85" width="175.22" height="32766" maskUnits="userSpaceOnUse"/>
    <linearGradient id="linear-gradient" x1="-1539.5" y1="211.86" x2="-1539.5" y2="199.28" gradientTransform="translate(-1415.61 -184.22) rotate(-180) scale(1 -1)" gradientUnits="userSpaceOnUse">
      <stop offset="0" stop-color="#000"/>
      <stop offset="1" stop-color="#fff"/>
    </linearGradient>
    <mask id="mask" x="36.28" y="15.06" width="175.22" height="12.58" maskUnits="userSpaceOnUse">
      <g class="cls-17">
        <g class="cls-18">
          <rect class="cls-3" x="36.28" y="15.06" width="175.22" height="12.58"/>
        </g>
      </g>
    </mask>
    <linearGradient id="linear-gradient-2" x1="-1539.5" y1="211.86" x2="-1539.5" y2="199.28" gradientTransform="translate(-1415.61 -184.22) rotate(-180) scale(1 -1)" gradientUnits="userSpaceOnUse">
      <stop offset="0" stop-color="#fff"/>
      <stop offset="1" stop-color="#000"/>
    </linearGradient>
    <filter id="luminosity-noclip-3" x="198.92" y="14.89" width="12.58" height="35.55" color-interpolation-filters="sRGB" filterUnits="userSpaceOnUse">
      <feFlood flood-color="#fff" result="bg"/>
      <feBlend in="SourceGraphic" in2="bg"/>
    </filter>
    <filter id="luminosity-noclip-4" x="198.92" y="-8293.85" width="12.58" height="32766" color-interpolation-filters="sRGB" filterUnits="userSpaceOnUse">
      <feFlood flood-color="#fff" result="bg"/>
      <feBlend in="SourceGraphic" in2="bg"/>
    </filter>
    <mask id="mask-3" x="198.92" y="-8293.85" width="12.58" height="32766" maskUnits="userSpaceOnUse"/>
    <linearGradient id="linear-gradient-3" x1="1965.69" y1="3866.88" x2="1965.69" y2="3854.29" gradientTransform="translate(4065.79 1998.36) rotate(-90) scale(1 -1)" xlink:href="#linear-gradient"/>
    <mask id="mask-2" x="198.92" y="14.89" width="12.58" height="35.55" maskUnits="userSpaceOnUse">
      <g class="cls-23">
        <g class="cls-13">
          <rect class="cls-1" x="198.92" y="14.89" width="12.58" height="35.55"/>
        </g>
      </g>
    </mask>
    <linearGradient id="linear-gradient-4" x1="1965.69" y1="3866.88" x2="1965.69" y2="3854.29" gradientTransform="translate(4065.79 1998.36) rotate(-90) scale(1 -1)" xlink:href="#linear-gradient-2"/>
    <filter id="luminosity-noclip-5" x="36.28" y="14.89" width="12.58" height="35.55" color-interpolation-filters="sRGB" filterUnits="userSpaceOnUse">
      <feFlood flood-color="#fff" result="bg"/>
      <feBlend in="SourceGraphic" in2="bg"/>
    </filter>
    <filter id="luminosity-noclip-6" x="36.28" y="-8293.85" width="12.58" height="32766" color-interpolation-filters="sRGB" filterUnits="userSpaceOnUse">
      <feFlood flood-color="#fff" result="bg"/>
      <feBlend in="SourceGraphic" in2="bg"/>
    </filter>
    <mask id="mask-5" x="36.28" y="-8293.85" width="12.58" height="32766" maskUnits="userSpaceOnUse"/>
    <linearGradient id="linear-gradient-5" x1="-5149.91" y1="3847.77" x2="-5149.91" y2="3835.19" gradientTransform="translate(-3798.91 5182.58) rotate(90) scale(1 -1)" xlink:href="#linear-gradient"/>
    <mask id="mask-4" x="36.28" y="14.89" width="12.58" height="35.55" maskUnits="userSpaceOnUse">
      <g class="cls-10">
        <g class="cls-14">
          <rect class="cls-6" x="36.28" y="14.89" width="12.58" height="35.55"/>
        </g>
      </g>
    </mask>
    <linearGradient id="linear-gradient-6" x1="-5149.91" y1="3847.77" x2="-5149.91" y2="3835.19" gradientTransform="translate(-3798.91 5182.58) rotate(90) scale(1 -1)" xlink:href="#linear-gradient-2"/>
  </defs>
  <g class="cls-12">
    <g id="Layer_1" data-name="Layer 1">
      <g>
        <polygon class="cls-2" points="3.5 3.5 3.5 17.84 3.5 53.49 39.28 53.49 39.28 203.09 214.5 203.09 214.5 53.49 250.28 53.49 250.28 17.84 250.28 3.5 3.5 3.5"/>
        <g>
          <g>
            <g>
              <path class="cls-9" d="m36.28,14.84v35.65H.5V14.84h35.78Zm-5.9,27.93v-22.42H7.51v22.42h22.87Z"/>
              <path class="cls-9" d="m247.28,14.84v35.65h-35.78V14.84h35.78Zm-7.01,27.93v-22.42h-22.87v22.42h22.87Z"/>
              <path class="cls-8" d="m228.65,25.87c1.58,0,2.99.67,3.96,1.75.87.94,1.39,2.2,1.39,3.58,0,1.47-.6,2.8-1.56,3.76-.97.96-2.31,1.56-3.79,1.56s-2.81-.6-3.78-1.56-1.57-2.29-1.57-3.76c0-1.38.53-2.64,1.4-3.58.97-1.08,2.38-1.75,3.95-1.75Zm-3.5,5.33c0,1.92,1.57,3.49,3.5,3.49s3.51-1.57,3.51-3.49-1.57-3.5-3.51-3.5-3.5,1.57-3.5,3.5Z"/>
              <path class="cls-8" d="m22.54,34.96c-.97.96-2.3,1.56-3.78,1.56-1.38,0-2.64-.52-3.58-1.39-1.09-.96-1.77-2.36-1.77-3.93,0-1.48.6-2.81,1.57-3.77.97-.97,2.3-1.56,3.78-1.56,1.57,0,2.98.67,3.95,1.75.87.94,1.4,2.2,1.4,3.58,0,1.47-.6,2.8-1.57,3.76Zm-.28-3.76c0-1.93-1.56-3.5-3.5-3.5s-3.5,1.57-3.5,3.5,1.56,3.49,3.5,3.49,3.5-1.57,3.5-3.49Z"/>
              <path class="cls-8" d="m18.76,27.7c1.94,0,3.5,1.57,3.5,3.5s-1.56,3.49-3.5,3.49-3.5-1.57-3.5-3.49,1.56-3.5,3.5-3.5Z"/>
              <path class="cls-8" d="m228.65,27.7c1.94,0,3.51,1.57,3.51,3.5s-1.57,3.49-3.51,3.49-3.5-1.57-3.5-3.49,1.57-3.5,3.5-3.5Z"/>
              <rect class="cls-22" x="43.29" y="73.65" width="161.2" height="17.64"/>
              <rect class="cls-8" x="43.29" y="91.29" width="161.2" height="101.82"/>
              <polygon class="cls-8" points="191.6 61.8 191.58 61.89 191.58 63.72 128.87 63.72 128.87 18.88 191.58 18.88 191.58 35.98 168.71 31.01 163.18 55.64 191.6 61.8"/>
              <polygon class="cls-8" points="119.65 18.88 119.65 63.72 56.94 63.72 56.94 61.64 84.61 55.64 79.07 31.01 56.95 35.81 56.94 35.79 56.94 18.88 119.65 18.88"/>
              <polygon class="cls-8" points="191.58 63.72 191.58 61.89 191.6 61.8 200.43 63.72 204.32 46.41 204.49 46.45 204.49 73.65 43.29 73.65 43.29 46.45 43.46 46.41 47.35 63.72 56.94 61.64 56.94 63.72 119.65 63.72 119.65 18.88 56.94 18.88 56.94 35.79 56.95 35.81 56.95 35.82 43.3 38.78 43.29 38.73 43.29 14.84 204.49 14.84 204.49 38.73 204.48 38.78 191.58 35.98 191.58 18.88 128.87 18.88 128.87 63.72 191.58 63.72"/>
              <polygon class="cls-16" points="205.97 39.1 204.48 38.78 204.49 38.73 204.49 14.84 211.5 14.84 211.5 50.49 211.5 200.09 36.28 200.09 36.28 50.49 36.28 14.84 43.29 14.84 43.29 38.73 43.3 38.78 41.82 39.1 43.46 46.41 43.29 46.45 43.29 73.65 43.29 91.29 43.29 193.11 204.49 193.11 204.49 91.29 204.49 73.65 204.49 46.45 204.32 46.41 205.97 39.1"/>
              <polygon class="cls-22" points="191.58 35.98 204.48 38.78 205.97 39.1 204.32 46.41 200.43 63.72 191.6 61.8 163.18 55.64 168.71 31.01 191.58 35.98"/>
              <polygon class="cls-22" points="56.94 61.64 47.35 63.72 43.46 46.41 41.82 39.1 43.3 38.78 56.95 35.82 56.95 35.81 79.07 31.01 84.61 55.64 56.94 61.64"/>
              <path class="cls-22" d="m30.38,20.35v22.42l-7.75-7.72-.09-.09c.97-.96,1.57-2.29,1.57-3.76,0-1.38-.53-2.64-1.4-3.58l7.67-7.27Z"/>
              <path class="cls-22" d="m30.38,42.77H7.51l7.67-7.64c.94.87,2.2,1.39,3.58,1.39,1.48,0,2.81-.6,3.78-1.56l.09.09,7.75,7.72Z"/>
              <path class="cls-22" d="m15.18,35.13l-7.67,7.64v-22.42l7.47,7.08c-.97.96-1.57,2.29-1.57,3.77,0,1.57.68,2.97,1.77,3.93Z"/>
              <path class="cls-22" d="m30.38,20.35l-7.67,7.27c-.97-1.08-2.38-1.75-3.95-1.75-1.48,0-2.81.59-3.78,1.56l-7.47-7.08h22.87Z"/>
              <path class="cls-22" d="m240.27,20.35v22.42l-7.74-7.72-.09-.09c.96-.96,1.56-2.29,1.56-3.76,0-1.38-.52-2.64-1.39-3.58l7.66-7.27Z"/>
              <path class="cls-22" d="m224.78,35.05l.09-.09c.97.96,2.31,1.56,3.78,1.56s2.82-.6,3.79-1.56l.09.09,7.74,7.72h-22.87l7.38-7.72Z"/>
              <path class="cls-22" d="m224.87,34.96l-.09.09-7.38,7.72v-22.42l7.3,7.27c-.87.94-1.4,2.2-1.4,3.58,0,1.47.6,2.8,1.57,3.76Z"/>
              <path class="cls-22" d="m240.27,20.35l-7.66,7.27c-.97-1.08-2.38-1.75-3.96-1.75s-2.98.67-3.95,1.75l-7.3-7.27h22.87Z"/>
              <polygon class="cls-22" points="247.28 .5 247.28 14.84 211.5 14.84 204.49 14.84 43.29 14.84 36.28 14.84 .5 14.84 .5 .5 247.28 .5"/>
            </g>
            <g>
              <path class="cls-20" d="m204.49,193.61H43.29c-.28,0-.5-.22-.5-.5s.22-.5.5-.5h160.7V46.45c0-.28.22-.5.5-.5s.5.22.5.5v146.66c0,.28-.22.5-.5.5Z"/>
              <path class="cls-20" d="m204.49,39.23c-.28,0-.5-.22-.5-.5V14.84c0-.28.22-.5.5-.5s.5.22.5.5v23.89c0,.28-.22.5-.5.5Z"/>
              <path class="cls-20" d="m211.5,15.34H36.28c-.28,0-.5-.22-.5-.5s.22-.5.5-.5h175.22c.28,0,.5.22.5.5s-.22.5-.5.5Z"/>
              <path class="cls-20" d="m43.29,39.23c-.28,0-.5-.22-.5-.5V14.84c0-.28.22-.5.5-.5s.5.22.5.5v23.89c0,.28-.22.5-.5.5Z"/>
              <path class="cls-20" d="m43.29,193.61c-.28,0-.5-.22-.5-.5V46.45c0-.28.22-.5.5-.5s.5.22.5.5v146.66c0,.28-.22.5-.5.5Z"/>
              <path class="cls-20" d="m211.5,200.59H36.28c-.28,0-.5-.22-.5-.5s.22-.5.5-.5h174.72V50.49c0-.28.22-.5.5-.5s.5.22.5.5v149.6c0,.28-.22.5-.5.5Z"/>
              <path class="cls-20" d="m247.28,1H.5c-.28,0-.5-.22-.5-.5s.22-.5.5-.5h246.78c.28,0,.5.22.5.5s-.22.5-.5.5Z"/>
              <path class="cls-20" d="m36.28,200.59c-.28,0-.5-.22-.5-.5V50.49c0-.28.22-.5.5-.5s.5.22.5.5v149.6c0,.28-.22.5-.5.5Z"/>
              <path class="cls-20" d="m119.65,64.22h-62.71c-.28,0-.5-.22-.5-.5v-2.2c0-.28.22-.5.5-.5s.5.22.5.5v1.7h61.71V19.38h-61.71v16.41c0,.28-.22.5-.5.5s-.5-.22-.5-.5v-16.91c0-.28.22-.5.5-.5h62.71c.28,0,.5.22.5.5v44.84c0,.28-.22.5-.5.5Z"/>
              <path class="cls-20" d="m191.58,64.22h-62.71c-.28,0-.5-.22-.5-.5V18.88c0-.28.22-.5.5-.5h62.71c.28,0,.5.22.5.5v17.28c0,.28-.22.5-.5.5s-.5-.22-.5-.5v-16.78h-61.71v43.84h61.71v-1.33c0-.28.22-.5.5-.5s.5.22.5.5v1.83c0,.28-.22.5-.5.5Z"/>
              <path class="cls-20" d="m47.35,64.22c-.23,0-.44-.16-.49-.39l-5.53-24.62c-.03-.13,0-.27.07-.38.07-.11.19-.19.32-.22l15.04-3.26s.06-.02.09-.03l22.12-4.8c.28-.07.53.11.59.38l5.54,24.63c.03.13,0,.27-.07.38-.07.11-.19.19-.32.22l-37.26,8.08s-.07.01-.11.01Zm-4.93-24.74l5.31,23.64,36.28-7.87-5.32-23.65-21.54,4.67s-.06.02-.09.03l-14.64,3.17Z"/>
              <path class="cls-20" d="m200.43,64.22s-.07,0-.11-.01l-37.25-8.08c-.13-.03-.24-.11-.32-.22-.07-.11-.09-.25-.07-.38l5.53-24.63c.06-.27.33-.44.59-.38l37.26,8.09c.13.03.24.11.32.22.07.11.1.25.07.38l-5.54,24.62c-.05.23-.26.39-.49.39Zm-36.65-8.96l36.27,7.87,5.32-23.64-13.9-3.01-22.38-4.86-5.31,23.65Z"/>
              <path class="cls-20" d="m204.49,74.15H43.29c-.28,0-.5-.22-.5-.5s.22-.5.5-.5h161.2c.28,0,.5.22.5.5s-.22.5-.5.5Z"/>
              <path class="cls-20" d="m204.49,91.79H43.29c-.28,0-.5-.22-.5-.5s.22-.5.5-.5h161.2c.28,0,.5.22.5.5s-.22.5-.5.5Z"/>
              <path class="cls-20" d="m247.28,50.99h-35.78c-.28,0-.5-.22-.5-.5s.22-.5.5-.5h35.28V.5c0-.28.22-.5.5-.5s.5.22.5.5v49.99c0,.28-.22.5-.5.5Z"/>
              <path class="cls-20" d="m211.5,50.99c-.28,0-.5-.22-.5-.5V14.84c0-.28.22-.5.5-.5h35.78c.28,0,.5.22.5.5s-.22.5-.5.5h-35.28v35.15c0,.28-.22.5-.5.5Z"/>
              <path class="cls-20" d="m36.28,50.99H.5c-.28,0-.5-.22-.5-.5s.22-.5.5-.5h35.78c.28,0,.5.22.5.5s-.22.5-.5.5Z"/>
              <path class="cls-20" d="m30.38,43.27H7.51c-.28,0-.5-.22-.5-.5v-22.42c0-.28.22-.5.5-.5h22.87c.28,0,.5.22.5.5v22.42c0,.28-.22.5-.5.5Zm-22.37-1h21.87v-21.42H8.01v21.42Z"/>
              <path class="cls-20" d="m36.28,50.99c-.28,0-.5-.22-.5-.5V15.34H.5c-.28,0-.5-.22-.5-.5s.22-.5.5-.5h35.78c.28,0,.5.22.5.5v35.65c0,.28-.22.5-.5.5Z"/>
              <path class="cls-20" d="m.5,50.99c-.28,0-.5-.22-.5-.5V.5C0,.22.22,0,.5,0s.5.22.5.5v49.99c0,.28-.22.5-.5.5Z"/>
              <path class="cls-20" d="m22.63,28.2c-.13,0-.26-.05-.36-.15-.19-.2-.19-.51,0-.71l.08-.08,7.68-7.28c.2-.19.52-.18.71.02.19.2.18.52-.02.71l-7.74,7.34c-.1.1-.22.14-.35.14Z"/>
              <path class="cls-20" d="m18.76,37.02c-1.47,0-2.86-.54-3.92-1.52-1.22-1.08-1.93-2.65-1.93-4.3,0-1.56.61-3.03,1.72-4.12,1.1-1.1,2.57-1.7,4.13-1.7,1.65,0,3.23.7,4.32,1.92.98,1.06,1.53,2.45,1.53,3.91,0,1.56-.61,3.02-1.72,4.12-1.11,1.1-2.58,1.7-4.13,1.7Zm0-10.65c-1.3,0-2.52.5-3.43,1.41-.92.91-1.42,2.12-1.42,3.42,0,1.36.58,2.66,1.6,3.56.88.82,2.04,1.26,3.25,1.26,1.29,0,2.51-.5,3.43-1.41.92-.91,1.42-2.12,1.42-3.41,0-1.21-.45-2.36-1.27-3.24-.91-1.01-2.21-1.59-3.58-1.59Z"/>
              <path class="cls-20" d="m30.38,43.27c-.13,0-.26-.05-.35-.15l-7.75-7.72c-.2-.2-.2-.51,0-.71.19-.2.51-.2.71,0l7.75,7.72c.2.2.2.51,0,.71-.1.1-.23.15-.35.15Z"/>
              <path class="cls-21" d="m18.76,27.7c-1.94,0-3.5,1.57-3.5,3.5s1.56,3.49,3.5,3.49,3.5-1.57,3.5-3.49-1.56-3.5-3.5-3.5Z"/>
              <path class="cls-20" d="m15.26,28.2c-.12,0-.25-.05-.35-.14l-.28-.27-7.47-7.08c-.2-.19-.21-.51-.02-.71s.51-.21.71-.02l7.75,7.35c.2.19.21.51.01.71-.1.1-.23.15-.36.15Z"/>
              <path class="cls-20" d="m228.65,37.02c-1.55,0-3.02-.61-4.13-1.7-1.11-1.1-1.72-2.56-1.72-4.12,0-1.46.54-2.85,1.53-3.92,1.09-1.21,2.66-1.91,4.32-1.91s3.24.7,4.33,1.92c.98,1.05,1.52,2.45,1.52,3.91,0,1.55-.61,3.01-1.71,4.11-1.11,1.1-2.58,1.71-4.14,1.71Zm0-10.65c-1.37,0-2.67.58-3.58,1.58-.82.89-1.27,2.04-1.27,3.25,0,1.29.5,2.5,1.42,3.41.92.91,2.14,1.41,3.43,1.41s2.52-.5,3.44-1.41c.91-.91,1.41-2.12,1.41-3.41,0-1.21-.45-2.36-1.26-3.24-.91-1.01-2.22-1.59-3.59-1.59Z"/>
              <path class="cls-20" d="m7.51,43.27c-.13,0-.26-.05-.35-.15-.19-.2-.19-.51,0-.71l7.75-7.72c.2-.2.51-.2.71,0,.2.2.2.51,0,.71l-7.75,7.72c-.1.1-.23.15-.35.15Z"/>
              <path class="cls-20" d="m240.27,43.27h-22.87c-.28,0-.5-.22-.5-.5v-22.42c0-.28.22-.5.5-.5h22.87c.12,0,.24.05.33.12.02.02.05.05.07.07h0c.06.08.1.17.1.27,0,.01,0,.02,0,.04v22.42c0,.28-.22.5-.5.5Zm-22.37-1h21.87v-20.76l-6.89,6.54c-.2.2-.51.19-.71,0-.19-.2-.19-.51,0-.71l.08-.08,6.76-6.42h-21.12v21.42Z"/>
              <path class="cls-20" d="m240.27,43.27c-.13,0-.26-.05-.35-.15l-7.74-7.72c-.2-.2-.2-.51,0-.71.2-.2.51-.19.71,0l7.74,7.72c.2.2.2.51,0,.71-.1.1-.23.15-.35.15Z"/>
              <path class="cls-21" d="m228.65,27.7c-1.93,0-3.5,1.57-3.5,3.5s1.57,3.49,3.5,3.49,3.51-1.57,3.51-3.49-1.57-3.5-3.51-3.5Z"/>
              <path class="cls-20" d="m217.4,43.27c-.12,0-.25-.05-.35-.14-.2-.19-.21-.51-.02-.71l7.38-7.72c.19-.2.51-.21.71-.02.2.19.21.51.02.71l-7.38,7.72c-.1.1-.23.15-.36.15Z"/>
              <path class="cls-20" d="m224.78,28.2c-.13,0-.26-.05-.35-.15l-7.38-7.35c-.2-.2-.2-.51,0-.71.2-.2.51-.2.71,0l7.38,7.35c.2.2.2.51,0,.71-.1.1-.23.15-.35.15Z"/>
            </g>
          </g>
          <g class="cls-19">
            <rect class="cls-7" x="36.28" y="15.06" width="175.22" height="12.58"/>
          </g>
          <g class="cls-11">
            <rect class="cls-4" x="198.92" y="14.89" width="12.58" height="35.55"/>
          </g>
          <g class="cls-15">
            <rect class="cls-5" x="36.28" y="14.89" width="12.58" height="35.55"/>
          </g>
        </g>
      </g>
    </g>
  </g>
</svg>