<?xml version="1.0" encoding="UTF-8"?>
<svg xmlns="http://www.w3.org/2000/svg" xmlns:xlink="http://www.w3.org/1999/xlink" viewBox="0 0 712 729">
  <defs>
    <style>
      .cls-1 {
        fill: url(#radial-gradient-7);
      }

      .cls-2 {
        fill: #fff;
      }

      .cls-3 {
        fill: url(#radial-gradient-6);
      }

      .cls-3, .cls-4, .cls-5, .cls-6, .cls-7 {
        mix-blend-mode: multiply;
      }

      .cls-8 {
        filter: url(#luminosity-noclip-7);
      }

      .cls-4 {
        fill: url(#linear-gradient);
      }

      .cls-9 {
        fill: #939598;
      }

      .cls-10 {
        filter: url(#luminosity-noclip-5);
      }

      .cls-5 {
        fill: url(#radial-gradient-2);
      }

      .cls-11 {
        mask: url(#mask-2);
      }

      .cls-12 {
        fill: url(#radial-gradient-5);
      }

      .cls-13 {
        isolation: isolate;
      }

      .cls-6 {
        fill: url(#radial-gradient-4);
      }

      .cls-14 {
        mask: url(#mask-3);
      }

      .cls-7 {
        fill: url(#radial-gradient);
      }

      .cls-15 {
        mask: url(#mask-5);
      }

      .cls-16 {
        mask: url(#mask-4);
      }

      .cls-17 {
        fill: url(#radial-gradient-3);
      }

      .cls-18 {
        mask: url(#mask-6);
      }

      .cls-19 {
        filter: url(#luminosity-noclip);
      }

      .cls-20 {
        mask: url(#mask-1);
      }

      .cls-21 {
        mask: url(#mask);
      }

      .cls-22 {
        mask: url(#mask-7);
      }

      .cls-23 {
        fill: #def0fa;
      }

      .cls-24 {
        filter: url(#luminosity-noclip-3);
      }
    </style>
    <filter id="luminosity-noclip" x="47.34" y="43.65" width="610.96" height="282.41" color-interpolation-filters="sRGB" filterUnits="userSpaceOnUse">
      <feFlood flood-color="#fff" result="bg"/>
      <feBlend in="SourceGraphic" in2="bg"/>
    </filter>
    <filter id="luminosity-noclip-2" x="47.34" y="-8495" width="610.96" height="32766" color-interpolation-filters="sRGB" filterUnits="userSpaceOnUse">
      <feFlood flood-color="#fff" result="bg"/>
      <feBlend in="SourceGraphic" in2="bg"/>
    </filter>
    <mask id="mask-1" x="47.34" y="-8495" width="610.96" height="32766" maskUnits="userSpaceOnUse"/>
    <linearGradient id="linear-gradient" x1="45.69" y1="184.85" x2="910.46" y2="184.85" gradientUnits="userSpaceOnUse">
      <stop offset="0" stop-color="#4262ad"/>
      <stop offset=".62" stop-color="#4767b0"/>
      <stop offset=".63" stop-color="#4b66b0"/>
      <stop offset=".98" stop-color="#52c8e8"/>
    </linearGradient>
    <mask id="mask" x="47.34" y="43.65" width="610.96" height="282.41" maskUnits="userSpaceOnUse">
      <g class="cls-19">
        <g class="cls-20">
          <path class="cls-4" d="m352.82,43.65c-168.72,0-305.48,126.43-305.48,282.41h23.1c0-144.17,126.43-261.06,282.38-261.06s282.38,116.88,282.38,261.06h23.1c0-155.98-136.76-282.41-305.48-282.41Z"/>
        </g>
      </g>
    </mask>
    <radialGradient id="radial-gradient" cx="501.54" cy="371.73" fx="501.54" fy="371.73" r="124.43" gradientTransform="translate(-887.83 -524.05) scale(2.47 2.28)" gradientUnits="userSpaceOnUse">
      <stop offset=".92" stop-color="#fff"/>
      <stop offset=".94" stop-color="#a9a9a9"/>
      <stop offset=".96" stop-color="#606060"/>
      <stop offset=".98" stop-color="#2c2c2c"/>
      <stop offset=".99" stop-color="#0c0c0c"/>
      <stop offset="1" stop-color="#000"/>
    </radialGradient>
    <filter id="luminosity-noclip-3" x="421.29" y="547.01" width="248.81" height="175.14" color-interpolation-filters="sRGB" filterUnits="userSpaceOnUse">
      <feFlood flood-color="#fff" result="bg"/>
      <feBlend in="SourceGraphic" in2="bg"/>
    </filter>
    <filter id="luminosity-noclip-4" x="421.29" y="-8495" width="248.81" height="32766" color-interpolation-filters="sRGB" filterUnits="userSpaceOnUse">
      <feFlood flood-color="#fff" result="bg"/>
      <feBlend in="SourceGraphic" in2="bg"/>
    </filter>
    <mask id="mask-3" x="421.29" y="-8495" width="248.81" height="32766" maskUnits="userSpaceOnUse"/>
    <radialGradient id="radial-gradient-2" cx="403.95" cy="490.34" fx="403.95" fy="490.34" r="132.92" gradientTransform="translate(-268.82 -591.13) scale(2.28 2.11)" gradientUnits="userSpaceOnUse">
      <stop offset=".6" stop-color="#fff"/>
      <stop offset=".6" stop-color="#f5f5f5"/>
      <stop offset=".62" stop-color="#c7c7c7"/>
      <stop offset=".64" stop-color="#9c9c9c"/>
      <stop offset=".66" stop-color="#777"/>
      <stop offset=".68" stop-color="#565656"/>
      <stop offset=".7" stop-color="#3b3b3b"/>
      <stop offset=".73" stop-color="#252525"/>
      <stop offset=".76" stop-color="#141414"/>
      <stop offset=".8" stop-color="#080808"/>
      <stop offset=".85" stop-color="#010101"/>
      <stop offset="1" stop-color="#000"/>
    </radialGradient>
    <mask id="mask-2" x="421.29" y="547.01" width="248.81" height="175.14" maskUnits="userSpaceOnUse">
      <g class="cls-24">
        <g class="cls-14">
          <path class="cls-5" d="m670.1,609.06v113.09h-.1c-93.28,0-182.73-34.23-248.71-95.19l.05-.05,86.31-79.79.12-.11c43.03,39.71,101.38,62.05,162.23,62.05h.1Z"/>
        </g>
      </g>
    </mask>
    <radialGradient id="radial-gradient-3" cx="403.95" cy="490.34" fx="403.95" fy="490.34" r="132.92" gradientTransform="translate(-268.82 -591.13) scale(2.28 2.11)" gradientUnits="userSpaceOnUse">
      <stop offset=".6" stop-color="#000"/>
      <stop offset=".6" stop-color="#090909"/>
      <stop offset=".62" stop-color="#373737"/>
      <stop offset=".64" stop-color="#626262"/>
      <stop offset=".66" stop-color="#878787"/>
      <stop offset=".68" stop-color="#a8a8a8"/>
      <stop offset=".7" stop-color="#c3c3c3"/>
      <stop offset=".73" stop-color="#d9d9d9"/>
      <stop offset=".76" stop-color="#eaeaea"/>
      <stop offset=".8" stop-color="#f6f6f6"/>
      <stop offset=".85" stop-color="#fdfdfd"/>
      <stop offset="1" stop-color="#fff"/>
    </radialGradient>
    <filter id="luminosity-noclip-5" x="291.65" y="464.31" width="216" height="162.65" color-interpolation-filters="sRGB" filterUnits="userSpaceOnUse">
      <feFlood flood-color="#fff" result="bg"/>
      <feBlend in="SourceGraphic" in2="bg"/>
    </filter>
    <filter id="luminosity-noclip-6" x="291.65" y="-8495" width="216" height="32766" color-interpolation-filters="sRGB" filterUnits="userSpaceOnUse">
      <feFlood flood-color="#fff" result="bg"/>
      <feBlend in="SourceGraphic" in2="bg"/>
    </filter>
    <mask id="mask-5" x="291.65" y="-8495" width="216" height="32766" maskUnits="userSpaceOnUse"/>
    <radialGradient id="radial-gradient-4" cx="247.86" cy="624.62" fx="247.86" fy="624.62" r="123.28" gradientTransform="translate(-268.82 -591.13) scale(2.28 2.11)" gradientUnits="userSpaceOnUse">
      <stop offset=".74" stop-color="#000"/>
      <stop offset=".83" stop-color="#010101"/>
      <stop offset=".87" stop-color="#080808"/>
      <stop offset=".9" stop-color="#141414"/>
      <stop offset=".92" stop-color="#252525"/>
      <stop offset=".93" stop-color="#3b3b3b"/>
      <stop offset=".95" stop-color="#565656"/>
      <stop offset=".96" stop-color="#777"/>
      <stop offset=".98" stop-color="#9c9c9c"/>
      <stop offset=".99" stop-color="#c7c7c7"/>
      <stop offset="1" stop-color="#f5f5f5"/>
      <stop offset="1" stop-color="#fff"/>
    </radialGradient>
    <mask id="mask-4" x="291.65" y="464.31" width="216" height="162.65" maskUnits="userSpaceOnUse">
      <g class="cls-10">
        <g class="cls-15">
          <path class="cls-6" d="m507.66,547.12l-86.31,79.79-.05.05s-.07-.05-.12-.09l.02-.05c-35.77-33.07-82.66-49.6-129.54-49.63v-112.89c78.14.02,156.25,27.59,215.88,82.69l.12.11Z"/>
        </g>
      </g>
    </mask>
    <radialGradient id="radial-gradient-5" cx="247.86" cy="624.62" fx="247.86" fy="624.62" r="123.28" gradientTransform="translate(-268.82 -591.13) scale(2.28 2.11)" gradientUnits="userSpaceOnUse">
      <stop offset=".74" stop-color="#fff"/>
      <stop offset=".83" stop-color="#fdfdfd"/>
      <stop offset=".87" stop-color="#f6f6f6"/>
      <stop offset=".9" stop-color="#eaeaea"/>
      <stop offset=".92" stop-color="#d9d9d9"/>
      <stop offset=".93" stop-color="#c3c3c3"/>
      <stop offset=".95" stop-color="#a8a8a8"/>
      <stop offset=".96" stop-color="#878787"/>
      <stop offset=".98" stop-color="#626262"/>
      <stop offset=".99" stop-color="#373737"/>
      <stop offset="1" stop-color="#090909"/>
      <stop offset="1" stop-color="#000"/>
    </radialGradient>
    <filter id="luminosity-noclip-7" x="75.57" y="464.31" width="216.08" height="162.44" color-interpolation-filters="sRGB" filterUnits="userSpaceOnUse">
      <feFlood flood-color="#fff" result="bg"/>
      <feBlend in="SourceGraphic" in2="bg"/>
    </filter>
    <filter id="luminosity-noclip-8" x="75.57" y="-8495" width="216.08" height="32766" color-interpolation-filters="sRGB" filterUnits="userSpaceOnUse">
      <feFlood flood-color="#fff" result="bg"/>
      <feBlend in="SourceGraphic" in2="bg"/>
    </filter>
    <mask id="mask-7" x="75.57" y="-8495" width="216.08" height="32766" maskUnits="userSpaceOnUse"/>
    <radialGradient id="radial-gradient-6" cx="246.05" cy="641.07" fx="246.05" fy="641.07" r="139.21" xlink:href="#radial-gradient-4"/>
    <mask id="mask-6" x="75.57" y="464.31" width="216.08" height="162.44" maskUnits="userSpaceOnUse">
      <g class="cls-8">
        <g class="cls-22">
          <path class="cls-3" d="m291.65,464.31v112.89c-46.91-.02-93.85,16.49-129.64,49.56l-86.44-79.75c59.68-55.15,137.89-82.72,216.08-82.69Z"/>
        </g>
      </g>
    </mask>
    <radialGradient id="radial-gradient-7" cx="246.05" cy="641.07" fx="246.05" fy="641.07" r="139.21" xlink:href="#radial-gradient-5"/>
  </defs>
  <g class="cls-13">
    <g id="Layer_1" data-name="Layer 1">
      <g>
        <path class="cls-9" d="m712,332.88v.14h-24.51v-.14c0-83.49-36.61-159.11-95.8-213.87-59.19-54.81-141.05-88.72-231.47-88.75h-.12c-90.46,0-172.35,33.91-231.59,88.75-59.19,54.79-95.77,130.38-95.77,213.9v.11H8.23v-.11C8.23,153.24,165.76,7.61,360.1,7.61c194.34-.02,351.87,145.61,351.9,325.27Z"/>
        <path class="cls-9" d="m687.49,332.88v.14h-21.91v-.14c0-77.92-34.14-148.47-89.38-199.55l15.42-14.25.07-.07c59.19,54.76,95.8,130.38,95.8,213.87Z"/>
        <path class="cls-9" d="m665.58,332.88v.14h-122.11v-.11c0-46.75-20.48-89.09-53.61-119.76l86.34-79.82c55.24,51.09,89.38,121.63,89.38,199.55Z"/>
        <path class="cls-9" d="m360.23,30.26c90.41.02,172.28,33.94,231.47,88.75l-.07.07-15.42,14.25c-55.24-51.16-131.62-82.81-215.98-82.83v-20.23Z"/>
        <path class="cls-9" d="m360.23,50.5c84.36.02,160.74,31.68,215.98,82.83l-86.34,79.82c-33.15-30.72-78.98-49.74-129.64-49.76V50.5Z"/>
        <path class="cls-9" d="m360.23,50.5v112.89h-.12c-50.69,0-96.56,19.02-129.77,49.74l-86.34-79.79c55.29-51.16,131.69-82.81,216.1-82.83h.12Z"/>
        <path class="cls-9" d="m360.23,30.45v20.05h-.12c-84.41.02-160.82,31.68-216.1,82.83l-15.41-14.25-.07-.07c59.24-54.83,141.13-88.75,231.59-88.75h.12v.18Z"/>
        <path class="cls-9" d="m144,133.33l86.34,79.79c-33.13,30.69-53.61,73.01-53.61,119.78v.11H54.65v-.11c0-77.9,34.14-148.47,89.35-199.58Z"/>
        <path class="cls-9" d="m128.59,119.08l15.41,14.25c-55.21,51.11-89.35,121.68-89.35,199.58v.11h-21.91v-.11c0-83.52,36.59-159.11,95.77-213.9l.07.07Z"/>
      </g>
      <g>
        <g>
          <path class="cls-2" d="m704.59,326.03v.14h-24.51v-.14c0-83.49-36.61-159.11-95.8-213.87-59.19-54.81-141.05-88.72-231.47-88.75h-.12c-90.46,0-172.35,33.91-231.59,88.75C61.91,166.95,25.33,242.54,25.33,326.06v.11H.82v-.11C.82,146.39,158.35.76,352.69.76c194.34-.02,351.87,145.61,351.9,325.27Z"/>
          <path class="cls-23" d="m680.08,326.03v.14h-21.91v-.14c0-77.92-34.14-148.47-89.38-199.55l15.42-14.25.07-.07c59.19,54.76,95.8,130.38,95.8,213.87Z"/>
          <path class="cls-2" d="m658.17,326.03v.14h-122.11v-.11c0-46.75-20.48-89.09-53.61-119.76l86.34-79.82c55.24,51.09,89.38,121.63,89.38,199.55Z"/>
          <path class="cls-23" d="m352.82,23.41c90.41.02,172.28,33.94,231.47,88.75l-.07.07-15.42,14.25c-55.24-51.16-131.62-82.81-215.98-82.83v-20.23Z"/>
          <path class="cls-2" d="m352.82,43.65c84.36.02,160.74,31.68,215.98,82.83l-86.34,79.82c-33.15-30.72-78.98-49.74-129.64-49.76V43.65Z"/>
          <path class="cls-2" d="m352.82,43.65v112.89h-.12c-50.69,0-96.56,19.02-129.77,49.74l-86.34-79.79c55.29-51.16,131.69-82.81,216.1-82.83h.12Z"/>
          <path class="cls-23" d="m352.82,23.6v20.05h-.12c-84.41.02-160.82,31.68-216.1,82.83l-15.41-14.25-.07-.07c59.24-54.83,141.13-88.75,231.59-88.75h.12v.18Z"/>
          <path class="cls-2" d="m136.59,126.48l86.34,79.79c-33.13,30.69-53.61,73.01-53.61,119.78v.11H47.24v-.11c0-77.9,34.14-148.47,89.35-199.58Z"/>
          <path class="cls-23" d="m121.17,112.23l15.41,14.25c-55.21,51.11-89.35,121.68-89.35,199.58v.11h-21.91v-.11c0-83.52,36.59-159.11,95.77-213.9l.07.07Z"/>
        </g>
        <g>
          <path d="m47.24,326.81c-.45,0-.82-.34-.82-.76,0-75.56,31.82-146.63,89.59-200.11,57.86-53.54,134.81-83.03,216.68-83.05,81.97.02,158.88,29.52,216.68,83.05,57.79,53.45,89.62,124.51,89.62,200.09,0,.42-.37.76-.82.76s-.82-.34-.82-.76c0-75.18-31.66-145.86-89.14-199.02-57.5-53.25-133.99-82.59-215.4-82.61-81.56.02-158.1,29.36-215.65,82.61-57.47,53.2-89.11,123.88-89.11,199.04,0,.42-.37.76-.82.76Z"/>
          <path d="m25.33,326.81c-.45,0-.82-.34-.82-.76,0-80.97,34.1-157.12,96.01-214.43,61.98-57.37,144.43-88.97,232.17-88.97,87.83.02,170.24,31.62,232.17,88.97,61.93,57.3,96.04,133.45,96.04,214.41,0,.42-.37.76-.82.76s-.82-.34-.82-.76c0-80.56-33.94-156.32-95.56-213.34-61.62-57.06-143.62-88.5-230.89-88.52-87.42,0-169.47,31.44-231.13,88.52C60.08,169.72,26.15,245.49,26.15,326.06c0,.42-.37.76-.82.76Z"/>
          <path d="m536.06,326.81c-.45,0-.82-.34-.82-.76,0-45.02-18.95-87.36-53.37-119.22-34.46-31.92-80.29-49.52-129.06-49.54-48.92,0-94.8,17.59-129.31,49.52-34.42,31.89-53.37,74.24-53.37,119.25,0,.42-.37.76-.82.76s-.82-.34-.82-.76c0-45.42,19.12-88.15,53.85-120.32,34.82-32.22,81.12-49.96,130.35-49.96,49.34.02,95.58,17.77,130.35,49.98,34.72,32.15,53.85,74.87,53.85,120.3,0,.42-.37.76-.82.76Z"/>
          <path d="m.82,326.81c-.45,0-.82-.34-.82-.76C0,146.27,158.22,0,352.69,0h.05c94.19,0,182.74,33.9,249.35,95.48,66.62,61.58,103.31,143.46,103.32,230.56,0,.42-.37.76-.82.76s-.82-.34-.82-.76c-.01-86.69-36.53-168.19-102.84-229.48C534.63,35.27,446.49,1.52,352.74,1.52h-.05C159.12,1.52,1.64,147.1,1.64,326.06c0,.42-.37.76-.82.76Z"/>
          <path d="m169.54,326.93H.82c-.45,0-.82-.34-.82-.76s.37-.76.82-.76h168.72c.45,0,.82.34.82.76s-.37.76-.82.76Z"/>
          <path d="m704.59,326.93h-168.52c-.45,0-.82-.34-.82-.76s.37-.76.82-.76h168.52c.45,0,.82.34.82.76s-.37.76-.82.76Z"/>
          <path d="m352.82,157.5c-.45,0-.82-.34-.82-.76V23.59c0-.42.37-.76.82-.76s.82.34.82.76v133.14c0,.42-.37.76-.82.76Z"/>
          <path d="m223.12,207.21c-.21,0-.42-.07-.58-.22l-.2-.18-101.75-94.05c-.32-.3-.32-.78,0-1.07.32-.3.84-.3,1.16,0l101.95,94.22c.32.3.32.78,0,1.07-.16.15-.37.22-.58.22Z"/>
          <path d="m482.28,207.21c-.21,0-.42-.07-.58-.22-.32-.3-.32-.78,0-1.07l.17-.16,101.75-94.07c.32-.3.84-.3,1.16,0,.32.3.32.78,0,1.07l-101.93,94.23c-.16.15-.37.22-.58.22Z"/>
        </g>
      </g>
      <g class="cls-21">
        <path class="cls-7" d="m352.82,43.65c-168.72,0-305.48,126.43-305.48,282.41h23.1c0-144.17,126.43-261.06,282.38-261.06s282.38,116.88,282.38,261.06h23.1c0-155.98-136.76-282.41-305.48-282.41Z"/>
      </g>
      <g>
        <path class="cls-9" d="m677.51,615.91v113.09h-.1c-93.28,0-182.73-34.23-248.71-95.19l.05-.05,86.31-79.79.12-.11c43.03,39.71,101.38,62.05,162.23,62.05h.1Z"/>
        <path class="cls-9" d="m677.51,595.67v20.23h-.1c-60.84,0-119.19-22.33-162.23-62.05l15.37-14.2.12-.14c38.93,35.95,91.7,56.16,146.74,56.16h.1Z"/>
        <path class="cls-9" d="m530.68,539.52l-.12.14-.12-.11c-63.91-59.06-147.63-88.61-231.37-88.63-83.82-.02-167.61,29.53-231.57,88.63l-17.19-15.85-.17-.16c137.42-127.02,360.2-127.05,497.62-.02v.05c34.39,31.79,81.03,49.65,129.67,49.65h.1v22.47h-.1c-55.04,0-107.8-20.21-146.74-56.16Z"/>
        <path class="cls-9" d="m515.19,553.86l-.12.11-.12-.11c-59.63-55.11-137.74-82.67-215.88-82.69v-20.26c83.74.02,167.46,29.57,231.37,88.63l.12.11-15.37,14.2Z"/>
        <path class="cls-9" d="m515.07,553.97l-86.31,79.79-.05.05s-.07-.05-.12-.09l.02-.05c-35.77-33.07-82.66-49.6-129.54-49.63v-112.89c78.14.02,156.25,27.59,215.88,82.69l.12.11Z"/>
        <path class="cls-9" d="m299.06,471.16v112.89c-46.91-.02-93.85,16.49-129.64,49.56l-86.44-79.75c59.68-55.15,137.89-82.72,216.08-82.69Z"/>
        <path class="cls-9" d="m299.06,450.91v20.26c-78.19-.02-156.4,27.54-216.08,82.69l-15.49-14.32c63.96-59.1,147.75-88.66,231.57-88.63Z"/>
      </g>
      <path class="cls-2" d="m670.1,609.06v113.09h-.1c-93.28,0-182.73-34.23-248.71-95.19l.05-.05,86.31-79.79.12-.11c43.03,39.71,101.38,62.05,162.23,62.05h.1Z"/>
      <g class="cls-11">
        <path class="cls-17" d="m670.1,609.06v113.09h-.1c-93.28,0-182.73-34.23-248.71-95.19l.05-.05,86.31-79.79.12-.11c43.03,39.71,101.38,62.05,162.23,62.05h.1Z"/>
      </g>
      <path class="cls-23" d="m670.1,588.82v20.23h-.1c-60.84,0-119.19-22.34-162.23-62.05l15.37-14.2.12-.14c38.93,35.95,91.7,56.16,146.74,56.16h.1Z"/>
      <path class="cls-2" d="m523.27,532.67l-.12.14-.12-.11c-63.91-59.06-147.63-88.61-231.37-88.63-83.82-.02-167.61,29.53-231.57,88.63l-17.19-15.85-.17-.16c137.42-127.02,360.2-127.04,497.62-.02v.05c34.39,31.79,81.03,49.65,129.67,49.65h.1v22.47h-.1c-55.04,0-107.8-20.21-146.74-56.16Z"/>
      <path class="cls-23" d="m507.78,547.01l-.12.11-.12-.11c-59.63-55.11-137.74-82.67-215.88-82.69v-20.26c83.74.02,167.46,29.57,231.37,88.63l.12.11-15.37,14.2Z"/>
      <path class="cls-2" d="m507.66,547.12l-86.31,79.79-.05.05s-.07-.05-.12-.09l.02-.05c-35.77-33.07-82.66-49.6-129.54-49.63v-112.89c78.14.02,156.25,27.59,215.88,82.69l.12.11Z"/>
      <g class="cls-16">
        <path class="cls-12" d="m507.66,547.12l-86.31,79.79-.05.05s-.07-.05-.12-.09l.02-.05c-35.77-33.07-82.66-49.6-129.54-49.63v-112.89c78.14.02,156.25,27.59,215.88,82.69l.12.11Z"/>
      </g>
      <path class="cls-2" d="m291.65,464.31v112.89c-46.91-.02-93.85,16.49-129.64,49.56l-86.44-79.75c59.68-55.15,137.89-82.72,216.08-82.69Z"/>
      <g class="cls-18">
        <path class="cls-1" d="m291.65,464.31v112.89c-46.91-.02-93.85,16.49-129.64,49.56l-86.44-79.75c59.68-55.15,137.89-82.72,216.08-82.69Z"/>
      </g>
      <path class="cls-23" d="m291.65,444.06v20.26c-78.19-.02-156.4,27.54-216.08,82.69l-15.49-14.32c63.96-59.1,147.75-88.66,231.57-88.63Z"/>
      <g>
        <path d="m75.55,547.77c-.2,0-.41-.07-.56-.21-.32-.29-.34-.76-.03-1.06,57.9-53.51,134.81-82.95,216.6-82.95h.1c81.75.02,158.63,29.47,216.46,82.92.32.3.32.78,0,1.07s-.84.3-1.16,0c-57.52-53.16-133.99-82.45-215.3-82.47h-.1c-81.35,0-157.84,29.29-215.4,82.47-.16.15-.38.23-.6.23Z"/>
        <path d="m523.02,533.45c-.21,0-.42-.07-.58-.22-61.67-56.99-143.63-88.39-230.79-88.41h-.1c-87.2,0-169.19,31.39-230.88,88.41l-1.16-1.07c62-57.3,144.41-88.85,232.04-88.85h.1c87.6.02,169.97,31.58,231.95,88.85.32.3.32.78,0,1.07-.16.15-.37.22-.58.22Z"/>
        <path d="m161.84,627.64c-.21,0-.42-.08-.58-.24-.32-.3-.28-.8.04-1.1.03-.03.09-.07.15-.12,34.74-32.09,80.95-49.76,130.1-49.76h.1c49.17.02,95.38,17.73,130.13,49.85.32.3.32.78,0,1.07-.32.3-.84.3-1.16,0-34.43-31.83-80.24-49.38-128.96-49.4h-.1c-48.73,0-94.52,17.52-128.96,49.34-.06.06-.14.1-.21.14-.15.14-.34.21-.53.21Z"/>
        <path d="m42.72,517.44c-.21,0-.42-.07-.58-.22-.32-.3-.32-.78,0-1.07,137.52-127.11,361.27-127.12,498.78-.02.32.3.32.78,0,1.07-.32.3-.84.3-1.16,0-136.87-126.51-359.58-126.5-496.46.02-.16.15-.37.22-.58.22Z"/>
        <path d="m291.65,578.05c-.45,0-.82-.25-.82-.67v-133.32c0-.42.37-.76.82-.76s.82.34.82.76v133.14c0,.42-.37.85-.82.85Z"/>
        <path d="m162.18,627.67c-.21,0-.42-.07-.58-.22l-.17-.16-119.12-109.92c-.32-.3-.32-.78,0-1.07.32-.3.84-.3,1.16,0l119.29,110.08c.32.3.32.78,0,1.07-.16.15-.37.22-.58.22Z"/>
        <path d="m670,567.11c-49.2,0-95.46-17.71-130.25-49.87-.32-.3-.32-.78,0-1.07.32-.3.84-.3,1.16,0,34.47,31.87,80.32,49.43,129.09,49.43.45,0,.82.34.82.76s-.37.76-.82.76Z"/>
        <path d="m670,589.58c-55.6,0-107.91-20.01-147.28-56.35-.05-.03-.1-.07-.13-.1-.32-.3-.32-.78,0-1.07.31-.28.8-.3,1.12-.03.05.03.09.06.13.1,39.07,36.07,90.97,55.94,146.16,55.94.45,0,.82.34.82.76s-.37.76-.82.76Z"/>
        <path d="m670,609.82c-61.48,0-119.29-22.12-162.8-62.27l.48-.63.58-.54.1.09c43.2,39.87,100.61,61.83,161.64,61.83.45,0,.82.34.82.76s-.37.76-.82.76Z"/>
        <path d="m670,722.91c-94.14,0-182.67-33.87-249.27-95.39-.06-.05-.12-.09-.16-.12-.32-.3-.31-.78.01-1.07.32-.29.84-.29,1.16.01l-.59.53.61-.51c66.39,61.31,154.51,95.03,248.23,95.03.45,0,.82.34.82.76s-.37.76-.82.76Z"/>
        <path d="m670.1,722.91c-.45,0-.82-.34-.82-.76v-155.8c0-.42.37-.76.82-.76s.82.34.82.76v155.8c0,.42-.37.76-.82.76Z"/>
        <path d="m421.34,627.67c-.21,0-.42-.07-.58-.22-.32-.3-.32-.78,0-1.07l101.8-94.11c.31-.29.87-.37,1.19-.09.32.27.42.66.14.98-.02.02-.16.17-.17.19l-101.8,94.11c-.16.15-.37.22-.58.22Z"/>
      </g>
    </g>
  </g>
</svg>