<?xml version="1.0" encoding="UTF-8"?>
<svg xmlns="http://www.w3.org/2000/svg" xmlns:xlink="http://www.w3.org/1999/xlink" viewBox="0 0 821.27 148.97">
  <defs>
    <style>
      .cls-1 {
        fill: url(#linear-gradient-3);
      }

      .cls-1, .cls-2, .cls-3, .cls-4, .cls-5, .cls-6, .cls-7, .cls-8, .cls-9, .cls-10, .cls-11, .cls-12, .cls-13, .cls-14, .cls-15, .cls-16 {
        mix-blend-mode: multiply;
      }

      .cls-17 {
        filter: url(#luminosity-noclip-11);
      }

      .cls-18 {
        fill: #fafaf8;
      }

      .cls-19 {
        fill: #fff;
      }

      .cls-20 {
        mask: url(#mask-10);
      }

      .cls-2 {
        fill: url(#linear-gradient-13);
      }

      .cls-21 {
        filter: url(#luminosity-noclip-7);
      }

      .cls-3 {
        fill: url(#linear-gradient-11);
      }

      .cls-4 {
        fill: url(#linear-gradient-10);
      }

      .cls-5 {
        fill: url(#linear-gradient);
      }

      .cls-22 {
        fill: #939598;
      }

      .cls-6 {
        fill: url(#linear-gradient-4);
      }

      .cls-23 {
        filter: url(#luminosity-noclip-13);
      }

      .cls-7 {
        fill: url(#linear-gradient-16);
      }

      .cls-24 {
        filter: url(#luminosity-noclip-5);
      }

      .cls-25 {
        mask: url(#mask-2);
      }

      .cls-26 {
        isolation: isolate;
      }

      .cls-27 {
        mask: url(#mask-13);
      }

      .cls-28 {
        mask: url(#mask-3);
      }

      .cls-29 {
        filter: url(#luminosity-noclip-15);
      }

      .cls-8 {
        fill: url(#linear-gradient-6);
      }

      .cls-30 {
        mask: url(#mask-9);
      }

      .cls-31 {
        mask: url(#mask-12);
      }

      .cls-9 {
        fill: url(#linear-gradient-5);
      }

      .cls-32 {
        mask: url(#mask-5);
      }

      .cls-10 {
        fill: url(#linear-gradient-9);
      }

      .cls-11 {
        fill: url(#linear-gradient-8);
      }

      .cls-33 {
        filter: url(#luminosity-noclip-9);
      }

      .cls-34 {
        mask: url(#mask-8);
      }

      .cls-12 {
        fill: url(#linear-gradient-15);
      }

      .cls-35 {
        mask: url(#mask-4);
      }

      .cls-36 {
        mask: url(#mask-15);
      }

      .cls-13 {
        fill: url(#linear-gradient-2);
      }

      .cls-37 {
        mask: url(#mask-6);
      }

      .cls-14 {
        fill: url(#linear-gradient-12);
      }

      .cls-38 {
        filter: url(#luminosity-noclip);
      }

      .cls-39 {
        mask: url(#mask-1);
      }

      .cls-40 {
        mask: url(#mask);
      }

      .cls-15 {
        fill: url(#linear-gradient-7);
      }

      .cls-41 {
        mask: url(#mask-7);
      }

      .cls-16 {
        fill: url(#linear-gradient-14);
      }

      .cls-42 {
        mask: url(#mask-14);
      }

      .cls-43 {
        mask: url(#mask-11);
      }

      .cls-44 {
        filter: url(#luminosity-noclip-3);
      }

      .cls-45 {
        fill: #26281e;
      }
    </style>
    <filter id="luminosity-noclip" x="381.02" y="117.67" width="32.2" height="3.86" color-interpolation-filters="sRGB" filterUnits="userSpaceOnUse">
      <feFlood flood-color="#fff" result="bg"/>
      <feBlend in="SourceGraphic" in2="bg"/>
    </filter>
    <filter id="luminosity-noclip-2" x="381.02" y="-8264.66" width="32.2" height="32766" color-interpolation-filters="sRGB" filterUnits="userSpaceOnUse">
      <feFlood flood-color="#fff" result="bg"/>
      <feBlend in="SourceGraphic" in2="bg"/>
    </filter>
    <mask id="mask-1" x="381.02" y="-8264.66" width="32.2" height="32766" maskUnits="userSpaceOnUse"/>
    <linearGradient id="linear-gradient" x1="397.12" y1="121.54" x2="397.12" y2="117.67" gradientUnits="userSpaceOnUse">
      <stop offset="0" stop-color="#000"/>
      <stop offset=".04" stop-color="#0f0f0f"/>
      <stop offset=".25" stop-color="#575757"/>
      <stop offset=".45" stop-color="#939393"/>
      <stop offset=".63" stop-color="#c1c1c1"/>
      <stop offset=".78" stop-color="#e3e3e3"/>
      <stop offset=".91" stop-color="#f7f7f7"/>
      <stop offset="1" stop-color="#fff"/>
    </linearGradient>
    <mask id="mask" x="381.02" y="117.67" width="32.2" height="3.86" maskUnits="userSpaceOnUse">
      <g class="cls-38">
        <g class="cls-39">
          <rect class="cls-5" x="381.02" y="117.67" width="32.2" height="3.86"/>
        </g>
      </g>
    </mask>
    <linearGradient id="linear-gradient-2" x1="397.12" y1="121.54" x2="397.12" y2="117.67" gradientUnits="userSpaceOnUse">
      <stop offset="0" stop-color="#fff"/>
      <stop offset=".04" stop-color="#efefef"/>
      <stop offset=".25" stop-color="#a7a7a7"/>
      <stop offset=".45" stop-color="#6b6b6b"/>
      <stop offset=".63" stop-color="#3d3d3d"/>
      <stop offset=".78" stop-color="#1b1b1b"/>
      <stop offset=".91" stop-color="#070707"/>
      <stop offset="1" stop-color="#000"/>
    </linearGradient>
    <filter id="luminosity-noclip-3" x="444.06" y="117.67" width="32.2" height="3.86" color-interpolation-filters="sRGB" filterUnits="userSpaceOnUse">
      <feFlood flood-color="#fff" result="bg"/>
      <feBlend in="SourceGraphic" in2="bg"/>
    </filter>
    <filter id="luminosity-noclip-4" x="444.06" y="-8264.66" width="32.2" height="32766" color-interpolation-filters="sRGB" filterUnits="userSpaceOnUse">
      <feFlood flood-color="#fff" result="bg"/>
      <feBlend in="SourceGraphic" in2="bg"/>
    </filter>
    <mask id="mask-3" x="444.06" y="-8264.66" width="32.2" height="32766" maskUnits="userSpaceOnUse"/>
    <linearGradient id="linear-gradient-3" x1="460.16" x2="460.16" xlink:href="#linear-gradient"/>
    <mask id="mask-2" x="444.06" y="117.67" width="32.2" height="3.86" maskUnits="userSpaceOnUse">
      <g class="cls-44">
        <g class="cls-28">
          <rect class="cls-1" x="444.06" y="117.67" width="32.2" height="3.86"/>
        </g>
      </g>
    </mask>
    <linearGradient id="linear-gradient-4" x1="460.16" x2="460.16" xlink:href="#linear-gradient-2"/>
    <filter id="luminosity-noclip-5" x="671.8" y="120.04" width="32.2" height="3.86" color-interpolation-filters="sRGB" filterUnits="userSpaceOnUse">
      <feFlood flood-color="#fff" result="bg"/>
      <feBlend in="SourceGraphic" in2="bg"/>
    </filter>
    <filter id="luminosity-noclip-6" x="671.8" y="-8264.66" width="32.2" height="32766" color-interpolation-filters="sRGB" filterUnits="userSpaceOnUse">
      <feFlood flood-color="#fff" result="bg"/>
      <feBlend in="SourceGraphic" in2="bg"/>
    </filter>
    <mask id="mask-5" x="671.8" y="-8264.66" width="32.2" height="32766" maskUnits="userSpaceOnUse"/>
    <linearGradient id="linear-gradient-5" x1="687.9" y1="123.9" x2="687.9" y2="120.04" xlink:href="#linear-gradient"/>
    <mask id="mask-4" x="671.8" y="120.04" width="32.2" height="3.86" maskUnits="userSpaceOnUse">
      <g class="cls-24">
        <g class="cls-32">
          <rect class="cls-9" x="671.8" y="120.04" width="32.2" height="3.86"/>
        </g>
      </g>
    </mask>
    <linearGradient id="linear-gradient-6" x1="687.9" y1="123.9" x2="687.9" y2="120.04" xlink:href="#linear-gradient-2"/>
    <filter id="luminosity-noclip-7" x="734.84" y="120.04" width="32.2" height="3.86" color-interpolation-filters="sRGB" filterUnits="userSpaceOnUse">
      <feFlood flood-color="#fff" result="bg"/>
      <feBlend in="SourceGraphic" in2="bg"/>
    </filter>
    <filter id="luminosity-noclip-8" x="734.84" y="-8264.66" width="32.2" height="32766" color-interpolation-filters="sRGB" filterUnits="userSpaceOnUse">
      <feFlood flood-color="#fff" result="bg"/>
      <feBlend in="SourceGraphic" in2="bg"/>
    </filter>
    <mask id="mask-7" x="734.84" y="-8264.66" width="32.2" height="32766" maskUnits="userSpaceOnUse"/>
    <linearGradient id="linear-gradient-7" x1="750.94" y1="123.9" x2="750.94" y2="120.04" xlink:href="#linear-gradient"/>
    <mask id="mask-6" x="734.84" y="120.04" width="32.2" height="3.86" maskUnits="userSpaceOnUse">
      <g class="cls-21">
        <g class="cls-41">
          <rect class="cls-15" x="734.84" y="120.04" width="32.2" height="3.86"/>
        </g>
      </g>
    </mask>
    <linearGradient id="linear-gradient-8" x1="750.94" y1="123.9" x2="750.94" y2="120.04" xlink:href="#linear-gradient-2"/>
    <filter id="luminosity-noclip-9" x="795.45" y="59.56" width="3.77" height="32.85" color-interpolation-filters="sRGB" filterUnits="userSpaceOnUse">
      <feFlood flood-color="#fff" result="bg"/>
      <feBlend in="SourceGraphic" in2="bg"/>
    </filter>
    <filter id="luminosity-noclip-10" x="795.45" y="-8264.66" width="3.77" height="32766" color-interpolation-filters="sRGB" filterUnits="userSpaceOnUse">
      <feFlood flood-color="#fff" result="bg"/>
      <feBlend in="SourceGraphic" in2="bg"/>
    </filter>
    <mask id="mask-9" x="795.45" y="-8264.66" width="3.77" height="32766" maskUnits="userSpaceOnUse"/>
    <linearGradient id="linear-gradient-9" x1="799.22" y1="75.99" x2="795.45" y2="75.99" xlink:href="#linear-gradient"/>
    <mask id="mask-8" x="795.45" y="59.56" width="3.77" height="32.85" maskUnits="userSpaceOnUse">
      <g class="cls-33">
        <g class="cls-30">
          <rect class="cls-10" x="795.45" y="59.56" width="3.77" height="32.85"/>
        </g>
      </g>
    </mask>
    <linearGradient id="linear-gradient-10" x1="799.22" y1="75.99" x2="795.45" y2="75.99" xlink:href="#linear-gradient-2"/>
    <filter id="luminosity-noclip-11" x="117.55" y="62.48" width="33.42" height="21.01" color-interpolation-filters="sRGB" filterUnits="userSpaceOnUse">
      <feFlood flood-color="#fff" result="bg"/>
      <feBlend in="SourceGraphic" in2="bg"/>
    </filter>
    <filter id="luminosity-noclip-12" x="117.55" y="-8264.66" width="33.42" height="32766" color-interpolation-filters="sRGB" filterUnits="userSpaceOnUse">
      <feFlood flood-color="#fff" result="bg"/>
      <feBlend in="SourceGraphic" in2="bg"/>
    </filter>
    <mask id="mask-11" x="117.55" y="-8264.66" width="33.42" height="32766" maskUnits="userSpaceOnUse"/>
    <linearGradient id="linear-gradient-11" x1="134.26" y1="62.48" x2="134.26" y2="83.49" gradientUnits="userSpaceOnUse">
      <stop offset="0" stop-color="#fff"/>
      <stop offset=".17" stop-color="#fbfbfb"/>
      <stop offset=".3" stop-color="#f2f2f2"/>
      <stop offset=".42" stop-color="#e1e1e1"/>
      <stop offset=".53" stop-color="#c9c9c9"/>
      <stop offset=".64" stop-color="#ababab"/>
      <stop offset=".74" stop-color="#868686"/>
      <stop offset=".84" stop-color="#5a5a5a"/>
      <stop offset=".93" stop-color="#282828"/>
      <stop offset="1" stop-color="#000"/>
    </linearGradient>
    <mask id="mask-10" x="117.55" y="62.48" width="33.42" height="21.01" maskUnits="userSpaceOnUse">
      <g class="cls-17">
        <g class="cls-43">
          <path class="cls-3" d="m149.75,83.49h-32.2v-21.01s29.44.33,32.2,0c2.76-.33,0,21.01,0,21.01Z"/>
        </g>
      </g>
    </mask>
    <linearGradient id="linear-gradient-12" x1="134.26" y1="62.48" x2="134.26" y2="83.49" gradientUnits="userSpaceOnUse">
      <stop offset="0" stop-color="#000"/>
      <stop offset=".17" stop-color="#030303"/>
      <stop offset=".3" stop-color="#0c0c0c"/>
      <stop offset=".42" stop-color="#1d1d1d"/>
      <stop offset=".53" stop-color="#353535"/>
      <stop offset=".64" stop-color="#535353"/>
      <stop offset=".74" stop-color="#787878"/>
      <stop offset=".84" stop-color="#a4a4a4"/>
      <stop offset=".93" stop-color="#d6d6d6"/>
      <stop offset="1" stop-color="#fff"/>
    </linearGradient>
    <filter id="luminosity-noclip-13" x="157.83" y="55.84" width="10.51" height="34.3" color-interpolation-filters="sRGB" filterUnits="userSpaceOnUse">
      <feFlood flood-color="#fff" result="bg"/>
      <feBlend in="SourceGraphic" in2="bg"/>
    </filter>
    <filter id="luminosity-noclip-14" x="157.83" y="-8264.66" width="10.51" height="32766" color-interpolation-filters="sRGB" filterUnits="userSpaceOnUse">
      <feFlood flood-color="#fff" result="bg"/>
      <feBlend in="SourceGraphic" in2="bg"/>
    </filter>
    <mask id="mask-13" x="157.83" y="-8264.66" width="10.51" height="32766" maskUnits="userSpaceOnUse"/>
    <linearGradient id="linear-gradient-13" x1="60.63" y1="495.54" x2="60.63" y2="506.05" gradientTransform="translate(-337.71 133.61) rotate(-90)" gradientUnits="userSpaceOnUse">
      <stop offset="0" stop-color="#fff"/>
      <stop offset=".19" stop-color="#fcfcfc"/>
      <stop offset=".32" stop-color="#f3f3f3"/>
      <stop offset=".44" stop-color="#e3e3e3"/>
      <stop offset=".55" stop-color="#cdcdcd"/>
      <stop offset=".65" stop-color="#b1b1b1"/>
      <stop offset=".74" stop-color="#8e8e8e"/>
      <stop offset=".83" stop-color="#646464"/>
      <stop offset=".92" stop-color="#363636"/>
      <stop offset="1" stop-color="#010101"/>
      <stop offset="1" stop-color="#000"/>
    </linearGradient>
    <mask id="mask-12" x="157.83" y="55.84" width="10.51" height="34.3" maskUnits="userSpaceOnUse">
      <g class="cls-23">
        <g class="cls-27">
          <path class="cls-2" d="m168.34,56.58v33.18s-10.51,1-10.51-.3c0-1.3.16-29.44,0-32.2s10.51-.69,10.51-.69Z"/>
        </g>
      </g>
    </mask>
    <linearGradient id="linear-gradient-14" x1="60.63" y1="495.54" x2="60.63" y2="506.05" gradientTransform="translate(-337.71 133.61) rotate(-90)" gradientUnits="userSpaceOnUse">
      <stop offset="0" stop-color="#000"/>
      <stop offset=".19" stop-color="#020202"/>
      <stop offset=".32" stop-color="#0b0b0b"/>
      <stop offset=".44" stop-color="#1b1b1b"/>
      <stop offset=".55" stop-color="#313131"/>
      <stop offset=".65" stop-color="#4d4d4d"/>
      <stop offset=".74" stop-color="#707070"/>
      <stop offset=".83" stop-color="#9a9a9a"/>
      <stop offset=".92" stop-color="#c8c8c8"/>
      <stop offset="1" stop-color="#fdfdfd"/>
      <stop offset="1" stop-color="#fff"/>
    </linearGradient>
    <filter id="luminosity-noclip-15" x="53.32" y="62.48" width="33.42" height="21.01" color-interpolation-filters="sRGB" filterUnits="userSpaceOnUse">
      <feFlood flood-color="#fff" result="bg"/>
      <feBlend in="SourceGraphic" in2="bg"/>
    </filter>
    <filter id="luminosity-noclip-16" x="53.32" y="-8264.66" width="33.42" height="32766" color-interpolation-filters="sRGB" filterUnits="userSpaceOnUse">
      <feFlood flood-color="#fff" result="bg"/>
      <feBlend in="SourceGraphic" in2="bg"/>
    </filter>
    <mask id="mask-15" x="53.32" y="-8264.66" width="33.42" height="32766" maskUnits="userSpaceOnUse"/>
    <linearGradient id="linear-gradient-15" x1="-314.8" y1="62.48" x2="-314.8" y2="83.49" gradientTransform="translate(-244.76) rotate(-180) scale(1 -1)" xlink:href="#linear-gradient-11"/>
    <mask id="mask-14" x="53.32" y="62.48" width="33.42" height="21.01" maskUnits="userSpaceOnUse">
      <g class="cls-29">
        <g class="cls-36">
          <path class="cls-12" d="m54.55,83.49h32.2v-21.01s-29.44.33-32.2,0,0,21.01,0,21.01Z"/>
        </g>
      </g>
    </mask>
    <linearGradient id="linear-gradient-16" x1="-314.8" y1="62.48" x2="-314.8" y2="83.49" gradientTransform="translate(-244.76) rotate(-180) scale(1 -1)" xlink:href="#linear-gradient-12"/>
  </defs>
  <g class="cls-26">
    <g id="Layer_1" data-name="Layer 1">
      <g>
        <g>
          <rect class="cls-22" x="355.37" y="31.8" width="152.53" height="88.36"/>
          <path class="cls-22" d="m507.9,120.16V31.8h-152.53v88.36h152.53Zm.72-88.72v89.08c0,.2-.16.36-.36.36h-153.25c-.2,0-.36-.16-.36-.36V31.44c0-.2.16-.36.36-.36h153.25c.2,0,.36.16.36.36Z"/>
        </g>
        <g>
          <path class="cls-22" d="m483.02,9.03l-.1.09-3.86,3.41c-3.8-4.37-9.3-6.88-15.09-6.88s-11.31,2.52-15.11,6.9l-.06.05-4.01-3.41.09-.1c4.81-5.54,11.76-8.72,19.09-8.72s14.27,3.17,19.06,8.67Z"/>
          <path class="cls-22" d="m482.92,137l.03.03c-4.79,5.46-11.71,8.58-18.97,8.58s-14.29-3.17-19.1-8.71h-.01s3.94-3.37,3.94-3.37v-.08s.06-.01.06-.01c3.8,4.37,9.31,6.88,15.11,6.88s11.22-2.48,15.02-6.79l3.93,3.47Z"/>
          <path class="cls-22" d="m481.4,38.56c.06,1.21-.36,2.38-1.18,3.26-.84.91-2.03,1.42-3.26,1.42h-26.05c-1.22-.03-2.37-.53-3.2-1.42-.84-.91-1.27-2.13-1.17-3.37h-.15s2.4-25.86,2.4-25.86l.06-.05c3.8-4.38,9.31-6.9,15.11-6.9s11.29,2.52,15.09,6.88l-.06.06,2.26,25.97h.14Z"/>
          <path class="cls-22" d="m480.21,104.32c.84.91,1.27,2.13,1.18,3.36l-.14.04-2.26,25.81h0c-3.8,4.33-9.27,6.81-15.02,6.81s-11.31-2.52-15.11-6.88h-.08s-2.4-25.73-2.4-25.73l.16-.04c-.1-1.23.33-2.45,1.17-3.36.83-.91,1.98-1.41,3.2-1.43h26.05c1.23,0,2.42.52,3.26,1.43Z"/>
          <path class="cls-22" d="m419.95,9.07v.05s-4,3.41-4,3.41c-3.8-4.37-9.3-6.88-15.09-6.88s-11.31,2.52-15.11,6.9l-.06.05-4.01-3.41.09-.1c4.81-5.54,11.76-8.72,19.1-8.72s14.29,3.18,19.09,8.71Z"/>
          <path class="cls-22" d="m415.88,133.53l4.01,3.42c-4.78,5.51-11.74,8.66-19.04,8.66s-14.29-3.17-19.1-8.71h-.01s3.94-3.37,3.94-3.37v-.09s.06,0,.06,0c3.8,4.37,9.31,6.88,15.11,6.88s11.22-2.48,15.02-6.79Z"/>
          <path class="cls-22" d="m418.28,38.56c.06,1.21-.36,2.38-1.18,3.26-.84.91-2.03,1.42-3.26,1.42h-26.05c-1.22-.03-2.37-.53-3.2-1.42-.84-.91-1.27-2.13-1.17-3.37l2.25-25.86.06-.05c3.8-4.38,9.31-6.9,15.11-6.9s11.29,2.52,15.09,6.88l-.06.06,2.26,25.97h.14Z"/>
          <path class="cls-22" d="m417.1,104.32c.84.91,1.27,2.13,1.18,3.36l-.14.04-2.26,25.81h0c-3.8,4.33-9.27,6.81-15.02,6.81s-11.31-2.52-15.11-6.88h-.08l-2.25-25.73v-.04c-.09-1.23.34-2.45,1.18-3.36.83-.91,1.98-1.41,3.2-1.43h26.05c1.23,0,2.42.52,3.26,1.43Z"/>
        </g>
        <g>
          <g>
            <path class="cls-19" d="m479.25,9.03l-.1.09-3.86,3.41c-3.8-4.37-9.3-6.88-15.09-6.88s-11.31,2.52-15.11,6.9l-.06.05-4.01-3.41.09-.1c4.81-5.54,11.76-8.72,19.09-8.72s14.27,3.17,19.06,8.67Z"/>
            <path class="cls-19" d="m479.15,137l.03.03c-4.79,5.46-11.71,8.58-18.97,8.58s-14.29-3.17-19.1-8.71h-.01s3.94-3.37,3.94-3.37v-.08s.06-.01.06-.01c3.8,4.37,9.31,6.88,15.11,6.88s11.22-2.48,15.02-6.79l3.93,3.47Z"/>
            <path class="cls-18" d="m477.62,38.56c.06,1.21-.36,2.38-1.18,3.26-.84.91-2.03,1.42-3.26,1.42h-26.05c-1.22-.03-2.37-.53-3.2-1.42-.84-.91-1.27-2.13-1.17-3.37h-.15s2.4-25.86,2.4-25.86l.06-.05c3.8-4.38,9.31-6.9,15.11-6.9s11.29,2.52,15.09,6.88l-.06.06,2.26,25.97h.14Z"/>
            <path class="cls-18" d="m476.44,104.32c.84.91,1.27,2.13,1.18,3.36l-.14.04-2.26,25.81h0c-3.8,4.33-9.27,6.81-15.02,6.81s-11.31-2.52-15.11-6.88h-.08s-2.4-25.73-2.4-25.73l.16-.04c-.1-1.23.33-2.45,1.17-3.36.83-.91,1.98-1.41,3.2-1.43h26.05c1.23,0,2.42.52,3.26,1.43Z"/>
            <path class="cls-19" d="m416.17,9.07v.05s-4,3.41-4,3.41c-3.8-4.37-9.3-6.88-15.09-6.88s-11.31,2.52-15.11,6.9l-.06.05-4.01-3.41.09-.1c4.81-5.54,11.76-8.72,19.1-8.72s14.29,3.18,19.09,8.71Z"/>
            <path class="cls-19" d="m412.11,133.53l4.01,3.42c-4.78,5.51-11.74,8.66-19.04,8.66s-14.29-3.17-19.1-8.71h-.01s3.94-3.37,3.94-3.37v-.09s.06,0,.06,0c3.8,4.37,9.31,6.88,15.11,6.88s11.22-2.48,15.02-6.79Z"/>
            <path class="cls-18" d="m414.51,38.56c.06,1.21-.36,2.38-1.18,3.26-.84.91-2.03,1.42-3.26,1.42h-26.05c-1.22-.03-2.37-.53-3.2-1.42-.84-.91-1.27-2.13-1.17-3.37l2.25-25.86.06-.05c3.8-4.38,9.31-6.9,15.11-6.9s11.29,2.52,15.09,6.88l-.06.06,2.26,25.97h.14Z"/>
            <path class="cls-18" d="m413.33,104.32c.84.91,1.27,2.13,1.18,3.36l-.14.04-2.26,25.81h0c-3.8,4.33-9.27,6.81-15.02,6.81s-11.31-2.52-15.11-6.88h-.08l-2.25-25.73v-.04c-.09-1.23.34-2.45,1.18-3.36.83-.91,1.98-1.41,3.2-1.43h26.05c1.23,0,2.42.52,3.26,1.43Z"/>
          </g>
          <g>
            <path class="cls-45" d="m409.99,43.6h-25.89c-.2,0-.36-.16-.36-.36s.16-.36.36-.36h25.89c.2,0,.36.16.36.36s-.16.36-.36.36Z"/>
            <path class="cls-45" d="m410.07,43.6c-.2,0-.36-.16-.36-.36s.16-.36.36-.36c1.13,0,2.22-.48,3-1.31.76-.82,1.14-1.88,1.09-3,0-.04,0-.07.01-.11.03-.18.17-.34.35-.34.2,0,.36.12.36.32,0,.03,0,.08,0,.14.06,1.29-.4,2.53-1.28,3.48-.91.98-2.19,1.54-3.52,1.54Z"/>
            <path class="cls-45" d="m414.37,38.92c-.18,0-.34-.14-.36-.33l-2.26-25.97c-.02-.2.13-.37.33-.39.2-.01.37.13.39.33l2.26,25.97c.02.2-.13.37-.33.39-.01,0-.02,0-.03,0Z"/>
            <path class="cls-45" d="m379.64,38.92s-.03,0-.04,0c-.2-.02-.34-.2-.32-.4v-.11s2.26-25.85,2.26-25.85c.02-.2.19-.34.39-.33.2.02.34.19.33.39l-2.27,25.98c-.02.18-.18.32-.36.32Z"/>
            <path class="cls-45" d="m384.1,43.6c-1.41-.03-2.64-.57-3.54-1.54-.91-.98-1.37-2.31-1.27-3.65.02-.2.19-.35.39-.33.2.02.35.19.33.39-.09,1.14.3,2.27,1.07,3.1.76.82,1.81,1.28,2.94,1.31.2,0,.39.17.39.36,0,.2-.12.36-.32.36Z"/>
            <path class="cls-45" d="m381.97,12.9c-.08,0-.17-.03-.24-.09-.15-.13-.17-.36-.04-.51,3.87-4.46,9.48-7.02,15.38-7.02s11.48,2.55,15.36,7.01c.13.15.12.37-.02.51-.14.13-.36.13-.49,0h-.01c-3.76-4.33-9.16-6.79-14.83-6.79s-11.1,2.47-14.84,6.77c-.07.08-.17.12-.27.12Z"/>
            <path class="cls-45" d="m377.98,9.44c-.08,0-.17-.03-.24-.09-.15-.13-.17-.36-.04-.51,4.88-5.62,11.94-8.84,19.37-8.84s14.49,3.22,19.36,8.83c.13.15.11.38-.04.51-.15.13-.38.11-.51-.04-4.73-5.45-11.59-8.58-18.82-8.58s-14.09,3.13-18.83,8.6c-.07.08-.17.12-.27.12Z"/>
            <path class="cls-45" d="m381.91,12.95c-.08,0-.17-.03-.23-.09l-4.01-3.41s-.08-.08-.08-.08c-.14-.14-.14-.37,0-.51s.37-.14.51,0l.06.06,3.99,3.39c.15.13.17.36.04.51-.07.08-.17.13-.27.13Z"/>
            <path class="cls-45" d="m412.12,12.9c-.09,0-.19-.03-.25-.1-.13-.14-.16-.33-.02-.47,0,0,.08-.08.08-.08l4.01-3.41c.15-.13.38-.11.51.04.13.15.11.38-.04.51l-4.01,3.41c-.08.06-.18.1-.28.1Z"/>
            <path class="cls-45" d="m409.99,103.24h-25.89c-.2,0-.36-.16-.36-.36s.16-.36.36-.36h25.89c.2,0,.36.16.36.36s-.16.36-.36.36Z"/>
            <path class="cls-45" d="m414.51,108.04s-.02,0-.03,0c-.2-.01-.35-.19-.33-.38.08-1.13-.31-2.26-1.09-3.09-.77-.84-1.86-1.32-3-1.32-.2,0-.36-.16-.36-.36s.16-.36.36-.36c1.34,0,2.62.57,3.52,1.55.91.97,1.37,2.3,1.28,3.63-.01.19-.17.33-.36.33Z"/>
            <path class="cls-45" d="m412.11,133.88s-.02,0-.03,0c-.2-.02-.34-.19-.33-.39l2.26-25.81c.02-.2.21-.35.39-.33.2.02.34.19.33.39l-2.26,25.81c-.02.19-.17.33-.36.33Z"/>
            <path class="cls-45" d="m381.89,133.85c-.17,0-.31-.09-.33-.27v-.09s-2.27-25.75-2.27-25.75c-.02-.2.13-.37.33-.39.2-.02.37.13.39.33l2.25,25.73c.02.19-.12.41-.31.43-.02,0-.04,0-.06,0Z"/>
            <path class="cls-45" d="m379.66,108.04c-.19,0-.34-.14-.36-.33-.11-1.33.35-2.65,1.27-3.63.89-.97,2.12-1.52,3.45-1.55l.08.36v.36h-.08c-1.13.02-2.17.49-2.93,1.32-.78.83-1.17,1.96-1.08,3.09.02.2-.13.37-.33.39,0,0-.02,0-.03,0Z"/>
            <path class="cls-45" d="m397.08,140.69c-5.9,0-11.51-2.55-15.38-7.01-.13-.15-.11-.38.04-.51.15-.13.38-.12.51.04,3.74,4.3,9.15,6.76,14.84,6.76s10.98-2.42,14.71-6.63c.01-.03.03-.05.05-.07.14-.14.41-.18.55-.04.14.14.18.33.04.47h-.01s-.03.05-.05.07c-3.87,4.4-9.45,6.92-15.29,6.92Z"/>
            <path class="cls-45" d="m397.08,145.97c-7.44,0-14.5-3.22-19.37-8.83-.13-.15-.11-.38.04-.51.15-.13.38-.12.51.04,4.74,5.45,11.6,8.58,18.83,8.58s14.06-3.11,18.77-8.53c.03-.03.07-.06.11-.08h0c.14-.08.33-.07.44.04.14.14.16.34.02.48-.01.02-.03.04-.05.05-4.84,5.57-11.87,8.76-19.29,8.76Z"/>
            <path class="cls-45" d="m377.83,137.36c-.1,0-.21-.04-.28-.13-.13-.15-.1-.38.05-.51l.14-.11,3.93-3.35c.15-.13.38-.11.51.04.13.15.11.38-.04.51l-4.08,3.48c-.07.05-.15.08-.23.08Z"/>
            <path class="cls-45" d="m416.15,137.35c-.06,0-.13-.02-.19-.07l-.06-.05-4.02-3.43c-.15-.13-.17-.36-.04-.51.13-.15.36-.17.51-.04l4.01,3.42c.15.13.2.38.08.53-.08.09-.18.15-.28.15Z"/>
            <path class="cls-45" d="m473.11,43.6h-25.89c-.2,0-.36-.16-.36-.36s.16-.36.36-.36h25.89c.2,0,.36.16.36.36s-.16.36-.36.36Z"/>
            <path class="cls-45" d="m473.18,43.6c-.2,0-.36-.16-.36-.36s.16-.36.36-.36c1.13,0,2.22-.48,3-1.31.76-.82,1.14-1.88,1.09-3,0-.04,0-.07.01-.11.03-.18.17-.34.35-.34.2,0,.36.12.36.32,0,.03,0,.08,0,.14.06,1.29-.4,2.53-1.28,3.48-.91.98-2.19,1.54-3.52,1.54Z"/>
            <path class="cls-45" d="m477.48,38.92c-.18,0-.34-.14-.36-.33l-2.26-25.97c-.02-.2.13-.37.33-.39.2-.01.37.13.39.33l2.26,25.97c.02.2-.13.37-.33.39-.01,0-.02,0-.03,0Z"/>
            <path class="cls-45" d="m442.61,38.92s-.02,0-.04,0c-.2-.02-.34-.2-.32-.39v-.13s2.42-25.84,2.42-25.84c.02-.2.2-.34.39-.33.2.02.34.19.33.39l-2.42,25.97c-.02.19-.17.33-.36.33Z"/>
            <path class="cls-45" d="m447.21,43.6c-1.41-.03-2.64-.57-3.54-1.54-.91-.98-1.37-2.31-1.27-3.65.02-.2.19-.35.39-.33.2.02.35.19.33.39-.09,1.14.3,2.27,1.07,3.1.76.82,1.81,1.28,2.94,1.31.2,0,.39.17.39.36s-.12.36-.32.36Z"/>
            <path class="cls-45" d="m445.09,12.9c-.08,0-.17-.03-.24-.09-.15-.13-.17-.36-.04-.51,3.87-4.46,9.48-7.02,15.38-7.02s11.48,2.55,15.36,7.01c.13.15.12.37-.02.51-.14.13-.36.13-.49,0h-.01c-3.76-4.33-9.16-6.79-14.83-6.79s-11.1,2.47-14.84,6.77c-.07.08-.17.12-.27.12Z"/>
            <path class="cls-45" d="m441.1,9.44c-.08,0-.17-.03-.24-.09-.15-.13-.17-.36-.04-.51,4.88-5.62,11.94-8.84,19.36-8.84s14.46,3.2,19.33,8.79c.13.15.13.39,0,.52-.14.13-.34.15-.48.01,0,0-.01-.01-.01-.01-4.77-5.47-11.62-8.59-18.83-8.59s-14.07,3.13-18.82,8.6c-.07.08-.17.12-.27.12Z"/>
            <path class="cls-45" d="m445.02,12.95c-.08,0-.17-.03-.23-.09l-4.01-3.41s-.08-.08-.08-.08c-.14-.14-.14-.37,0-.51.14-.14.37-.14.51,0l.06.06,3.99,3.39c.15.13.17.36.04.51-.07.08-.17.13-.27.13Z"/>
            <path class="cls-45" d="m475.23,12.9c-.09,0-.18-.03-.25-.1-.13-.14-.16-.33-.02-.47,0,0,.07-.07.08-.08l3.86-3.41c.15-.13.38-.12.51.03.13.15.12.38-.03.51l-3.86,3.41c-.08.07-.18.11-.29.11Z"/>
            <path class="cls-45" d="m473.11,103.24h-25.89c-.2,0-.36-.16-.36-.36s.16-.36.36-.36h25.89c.2,0,.36.16.36.36s-.16.36-.36.36Z"/>
            <path class="cls-45" d="m477.62,108.04s-.02,0-.03,0c-.2-.01-.35-.19-.33-.38.08-1.13-.32-2.26-1.09-3.09-.77-.84-1.86-1.32-3-1.32-.2,0-.36-.16-.36-.36s.16-.36.36-.36c1.34,0,2.62.57,3.52,1.55.91.97,1.37,2.3,1.28,3.63-.01.19-.17.33-.36.33Z"/>
            <path class="cls-45" d="m475.22,133.88s-.02,0-.03,0c-.2-.02-.34-.19-.33-.39l2.26-25.81c.02-.2.21-.35.39-.33.2.02.34.19.33.39l-2.26,25.81c-.02.19-.17.33-.36.33Z"/>
            <path class="cls-45" d="m445,133.85c-.17,0-.31-.09-.33-.26v-.08s-2.42-25.77-2.42-25.77c-.02-.2.13-.37.32-.39.21-.01.37.13.39.33l2.4,25.74c.02.19-.11.4-.31.43-.02,0-.04,0-.06,0Z"/>
            <path class="cls-45" d="m442.77,108.04c-.19,0-.34-.14-.36-.33-.11-1.33.35-2.65,1.27-3.63.89-.97,2.12-1.52,3.45-1.55l.08.36v.36h-.08c-1.13.02-2.17.49-2.93,1.32-.78.83-1.17,1.96-1.08,3.09.02.2-.13.37-.33.39,0,0-.02,0-.03,0Z"/>
            <path class="cls-45" d="m460.2,140.69c-5.9,0-11.51-2.55-15.38-7.01-.13-.15-.11-.38.04-.51.15-.13.38-.12.51.04,3.74,4.3,9.15,6.76,14.84,6.76s10.98-2.42,14.71-6.63c.01-.03.03-.05.05-.07l.41.25h.21c0,.06-.01.12-.04.17h0s0,0,0,0c-.01.03-.03.05-.05.08-3.87,4.4-9.44,6.92-15.29,6.92Z"/>
            <path class="cls-45" d="m460.2,145.97c-7.44,0-14.5-3.22-19.37-8.83-.13-.15-.11-.38.04-.51.15-.13.38-.12.51.04,4.74,5.45,11.6,8.58,18.83,8.58s13.98-3.08,18.7-8.46l.13-.14c.14-.14.37-.14.51,0,.14.14.14.37,0,.51l-.12.13c-4.84,5.51-11.85,8.69-19.23,8.69Z"/>
            <path class="cls-45" d="m440.95,137.36c-.1,0-.21-.05-.28-.13-.13-.15-.1-.38.05-.51l.14-.11,3.93-3.35c.15-.13.38-.11.51.04.13.15.11.38-.04.51l-4.08,3.48c-.07.05-.15.08-.23.08Z"/>
            <path class="cls-45" d="m479.15,137.36c-.08,0-.17-.03-.24-.09l-3.93-3.47c-.15-.13-.16-.36-.03-.51.13-.15.36-.16.51-.03l3.93,3.47c.15.13.16.36.03.51-.07.08-.17.12-.27.12Z"/>
          </g>
        </g>
        <g class="cls-40">
          <rect class="cls-13" x="381.02" y="117.67" width="32.2" height="3.86"/>
        </g>
        <g class="cls-25">
          <rect class="cls-6" x="444.06" y="117.67" width="32.2" height="3.86"/>
        </g>
        <g>
          <rect class="cls-19" x="352.37" y="28.8" width="152.53" height="88.36"/>
          <path class="cls-45" d="m504.9,117.16V28.8h-152.53v88.36h152.53Zm.72-88.72v89.08c0,.2-.16.36-.36.36h-153.25c-.2,0-.36-.16-.36-.36V28.44c0-.2.16-.36.36-.36h153.25c.2,0,.36.16.36.36Z"/>
        </g>
      </g>
      <g>
        <g>
          <rect class="cls-22" x="645.97" y="34.8" width="152.53" height="88.36"/>
          <path class="cls-22" d="m798.5,123.16V34.8h-152.53v88.36h152.53Zm.72-88.72v89.08c0,.2-.16.36-.36.36h-153.25c-.2,0-.36-.16-.36-.36V34.44c0-.2.16-.36.36-.36h153.25c.2,0,.36.16.36.36Z"/>
        </g>
        <g>
          <path class="cls-22" d="m812.6,57.01c5.51,4.79,8.67,11.75,8.67,19.05s-3.18,14.29-8.72,19.1l-.1.09-3.41-4.01.05-.06c4.38-3.8,6.9-9.31,6.9-15.11s-2.49-11.24-6.82-15.02l3.35-3.93.09-.1Z"/>
          <path class="cls-22" d="m782.82,93.5c-1.11,0-2.19-.42-3.01-1.18-.89-.83-1.4-1.98-1.42-3.2v-26.05c0-1.23.52-2.42,1.42-3.26.63-.58,1.38-.96,2.21-1.12l1.2.08,25.82,2.42.13-.15c4.33,3.79,6.82,9.27,6.82,15.02s-2.52,11.31-6.9,15.11l-.05.06-25.82,2.42-.4-.15Z"/>
          <path class="cls-22" d="m773.69,12.07v.05s-4,3.41-4,3.41c-3.8-4.37-9.3-6.88-15.09-6.88s-11.31,2.52-15.11,6.9l-.06.05-3.93-3.47v-.04c4.81-5.54,11.76-8.72,19.1-8.72s14.29,3.18,19.09,8.71Z"/>
          <path class="cls-22" d="m769.63,136.53l4.01,3.42c-4.78,5.51-11.74,8.66-19.04,8.66s-14.26-3.15-19.05-8.66l3.88-3.42v-.09s.06,0,.06,0c3.8,4.37,9.31,6.88,15.11,6.88s11.22-2.48,15.02-6.79Z"/>
          <path class="cls-22" d="m772.03,41.45c.09,1.25-.34,2.47-1.18,3.37-.84.91-2.03,1.42-3.26,1.42h-26.05c-1.22-.03-2.37-.53-3.2-1.42-.84-.91-1.27-2.13-1.17-3.37l2.25-25.86.06-.05c3.8-4.38,9.31-6.9,15.11-6.9s11.29,2.52,15.09,6.88l-.06.06,2.4,25.86Z"/>
          <path class="cls-22" d="m770.85,107.32c.84.91,1.27,2.13,1.18,3.36v.04s-2.4,25.81-2.4,25.81h0c-3.8,4.33-9.27,6.81-15.02,6.81s-11.31-2.52-15.11-6.88h-.08l-2.25-25.73v-.04c-.09-1.23.34-2.45,1.18-3.36.83-.91,1.98-1.41,3.2-1.43h26.05c1.23,0,2.42.52,3.26,1.43Z"/>
          <path class="cls-22" d="m710.58,12.07v.05s-4,3.41-4,3.41c-3.8-4.37-9.3-6.88-15.09-6.88s-11.31,2.52-15.11,6.9l-.06.05-3.93-3.47v-.04c4.81-5.54,11.76-8.72,19.09-8.72s14.31,3.18,19.1,8.71Z"/>
          <path class="cls-22" d="m706.52,136.53l4.01,3.42c-4.78,5.51-11.74,8.66-19.04,8.66s-14.26-3.15-19.05-8.66l3.88-3.42v-.09s.06,0,.06,0c3.8,4.37,9.31,6.88,15.11,6.88s11.22-2.48,15.02-6.79Z"/>
          <path class="cls-22" d="m708.92,41.45c.09,1.25-.34,2.47-1.18,3.37-.84.91-2.03,1.42-3.26,1.42h-26.05c-1.22-.03-2.37-.53-3.2-1.42-.84-.91-1.27-2.13-1.17-3.37l2.25-25.86.06-.05c3.8-4.38,9.31-6.9,15.11-6.9s11.29,2.52,15.09,6.88l-.06.06,2.4,25.86Z"/>
          <path class="cls-22" d="m707.74,107.32c.84.91,1.27,2.13,1.18,3.36v.04s-2.4,25.81-2.4,25.81h0c-3.8,4.33-9.27,6.81-15.02,6.81s-11.31-2.52-15.11-6.88h-.08l-2.25-25.73v-.04c-.09-1.23.34-2.45,1.18-3.36.83-.91,1.98-1.41,3.2-1.43h26.05c1.23,0,2.42.52,3.26,1.43Z"/>
          <path class="cls-22" d="m667.86,90.56h.15c0,1.25-.52,2.43-1.43,3.27-.91.84-2.13,1.27-3.36,1.17l-.04.16-25.82-2.42-.06-.06c-4.38-3.8-6.88-9.31-6.88-15.11s2.5-11.3,6.88-15.1l.06.08,25.82-2.26.04-.14c1.23-.09,2.45.34,3.36,1.18.92.84,1.43,2.03,1.43,3.26l-.15.08v25.89Z"/>
          <path class="cls-22" d="m637.36,92.74l-3.42,4.01-.1-.09c-5.54-4.81-8.71-11.76-8.71-19.1s3.15-14.26,8.66-19.05l.1.1,3.41,3.85c-4.38,3.8-6.88,9.31-6.88,15.1s2.5,11.31,6.88,15.11l.06.06Z"/>
        </g>
        <g>
          <g>
            <path class="cls-19" d="m808.82,57.01c5.51,4.79,8.67,11.75,8.67,19.05s-3.18,14.29-8.72,19.1l-.1.09-3.41-4.01.05-.06c4.38-3.8,6.9-9.31,6.9-15.11s-2.49-11.24-6.82-15.02l3.35-3.93.09-.1Z"/>
            <path class="cls-18" d="m779.04,93.5c-1.11,0-2.19-.42-3.01-1.18-.89-.83-1.4-1.98-1.42-3.2v-26.05c0-1.23.52-2.42,1.42-3.26.63-.58,1.38-.96,2.21-1.12l1.2.08,25.82,2.42.13-.15c4.33,3.79,6.82,9.27,6.82,15.02s-2.52,11.31-6.9,15.11l-.05.06-25.82,2.42-.4-.15Z"/>
            <path class="cls-19" d="m769.92,12.07v.05s-4,3.41-4,3.41c-3.8-4.37-9.3-6.88-15.09-6.88s-11.31,2.52-15.11,6.9l-.06.05-3.93-3.47v-.04c4.81-5.54,11.76-8.72,19.1-8.72s14.29,3.18,19.09,8.71Z"/>
            <path class="cls-19" d="m765.86,136.53l4.01,3.42c-4.78,5.51-11.74,8.66-19.04,8.66s-14.26-3.15-19.05-8.66l3.88-3.42v-.09s.06,0,.06,0c3.8,4.37,9.31,6.88,15.11,6.88s11.22-2.48,15.02-6.79Z"/>
            <path class="cls-18" d="m768.26,41.45c.09,1.25-.34,2.47-1.18,3.37-.84.91-2.03,1.42-3.26,1.42h-26.05c-1.22-.03-2.37-.53-3.2-1.42-.84-.91-1.27-2.13-1.17-3.37l2.25-25.86.06-.05c3.8-4.38,9.31-6.9,15.11-6.9s11.29,2.52,15.09,6.88l-.06.06,2.4,25.86Z"/>
            <path class="cls-18" d="m767.08,107.32c.84.91,1.27,2.13,1.18,3.36v.04s-2.4,25.81-2.4,25.81h0c-3.8,4.33-9.27,6.81-15.02,6.81s-11.31-2.52-15.11-6.88h-.08l-2.25-25.73v-.04c-.09-1.23.34-2.45,1.18-3.36.83-.91,1.98-1.41,3.2-1.43h26.05c1.23,0,2.42.52,3.26,1.43Z"/>
            <path class="cls-19" d="m706.81,12.07v.05s-4,3.41-4,3.41c-3.8-4.37-9.3-6.88-15.09-6.88s-11.31,2.52-15.11,6.9l-.06.05-3.93-3.47v-.04c4.81-5.54,11.76-8.72,19.09-8.72s14.31,3.18,19.1,8.71Z"/>
            <path class="cls-19" d="m702.74,136.53l4.01,3.42c-4.78,5.51-11.74,8.66-19.04,8.66s-14.26-3.15-19.05-8.66l3.88-3.42v-.09s.06,0,.06,0c3.8,4.37,9.31,6.88,15.11,6.88s11.22-2.48,15.02-6.79Z"/>
            <path class="cls-18" d="m705.15,41.45c.09,1.25-.34,2.47-1.18,3.37-.84.91-2.03,1.42-3.26,1.42h-26.05c-1.22-.03-2.37-.53-3.2-1.42-.84-.91-1.27-2.13-1.17-3.37l2.25-25.86.06-.05c3.8-4.38,9.31-6.9,15.11-6.9s11.29,2.52,15.09,6.88l-.06.06,2.4,25.86Z"/>
            <path class="cls-18" d="m703.96,107.32c.84.91,1.27,2.13,1.18,3.36v.04s-2.4,25.81-2.4,25.81h0c-3.8,4.33-9.27,6.81-15.02,6.81s-11.31-2.52-15.11-6.88h-.08l-2.25-25.73v-.04c-.09-1.23.34-2.45,1.18-3.36.83-.91,1.98-1.41,3.2-1.43h26.05c1.23,0,2.42.52,3.26,1.43Z"/>
            <path class="cls-18" d="m664.09,90.56h.15c0,1.25-.52,2.43-1.43,3.27-.91.84-2.13,1.27-3.36,1.17l-.04.16-25.82-2.42-.06-.06c-4.38-3.8-6.88-9.31-6.88-15.11s2.5-11.3,6.88-15.1l.06.08,25.82-2.26.04-.14c1.23-.09,2.45.34,3.36,1.18.92.84,1.43,2.03,1.43,3.26l-.15.08v25.89Z"/>
            <path class="cls-19" d="m633.59,92.74l-3.42,4.01-.1-.09c-5.54-4.81-8.71-11.76-8.71-19.1s3.15-14.26,8.66-19.05l.1.1,3.41,3.85c-4.38,3.8-6.88,9.31-6.88,15.1s2.5,11.31,6.88,15.11l.06.06Z"/>
          </g>
          <g>
            <path class="cls-45" d="m700.63,46.6h-25.89c-.2,0-.36-.16-.36-.36s.16-.36.36-.36h25.89c.2,0,.36.16.36.36s-.16.36-.36.36Z"/>
            <path class="cls-45" d="m700.7,46.6c-.2,0-.36-.16-.36-.36s.16-.36.36-.36c1.13,0,2.22-.48,3-1.31.77-.83,1.17-1.96,1.09-3.1-.01-.2.14-.37.33-.38.2,0,.37.14.38.33.09,1.34-.37,2.67-1.28,3.64-.91.98-2.19,1.54-3.52,1.54Z"/>
            <path class="cls-45" d="m705.16,41.92c-.18,0-.34-.14-.36-.32v-.11s-2.42-25.86-2.42-25.86c-.02-.2.13-.37.33-.39.2-.01.37.13.39.33l2.42,25.96c.02.2-.12.38-.32.4-.01,0-.03,0-.04,0Z"/>
            <path class="cls-45" d="m670.28,41.92s-.03,0-.04,0c-.2-.02-.34-.2-.32-.4v-.11s2.26-25.85,2.26-25.85c.02-.2.2-.34.39-.33.2.02.34.19.33.39l-2.27,25.98c-.02.18-.18.32-.36.32Z"/>
            <path class="cls-45" d="m674.73,46.6c-1.41-.03-2.64-.57-3.54-1.54-.91-.98-1.37-2.31-1.27-3.65.02-.2.19-.35.39-.33.2.02.35.19.33.39-.09,1.14.3,2.27,1.07,3.1.76.82,1.81,1.28,2.94,1.31.2,0,.39.17.39.36,0,.2-.12.36-.32.36Z"/>
            <path class="cls-45" d="m672.61,15.9c-.08,0-.17-.03-.24-.09-.15-.13-.17-.36-.04-.51,3.87-4.46,9.48-7.02,15.38-7.02s11.48,2.55,15.36,7.01c.13.15.12.37-.02.51-.14.13-.36.13-.49,0h-.01c-3.76-4.33-9.16-6.79-14.83-6.79s-11.11,2.47-14.84,6.77c-.07.08-.17.12-.27.12Z"/>
            <path class="cls-45" d="m668.62,12.44c-.08,0-.17-.03-.24-.09-.15-.13-.17-.36-.04-.51,4.88-5.62,11.94-8.84,19.36-8.84s14.5,3.22,19.37,8.83c.13.15.11.38-.04.51-.15.13-.38.11-.51-.04-4.73-5.45-11.6-8.58-18.83-8.58s-14.07,3.13-18.82,8.6c-.07.08-.17.12-.27.12Z"/>
            <path class="cls-45" d="m672.54,15.95c-.08,0-.17-.03-.24-.09l-3.93-3.47c-.15-.13-.16-.36-.03-.51.13-.15.36-.16.51-.03l3.93,3.47c.15.13.16.36.03.51-.07.08-.17.12-.27.12Z"/>
            <path class="cls-45" d="m702.76,15.9c-.09,0-.19-.03-.25-.1-.13-.14-.16-.33-.02-.47,0,0,.08-.08.08-.08l4.01-3.41c.15-.13.38-.11.51.04.13.15.11.38-.04.51l-4.01,3.41c-.08.06-.18.1-.28.1Z"/>
            <path class="cls-45" d="m700.63,106.24h-25.89c-.2,0-.36-.16-.36-.36s.16-.36.36-.36h25.89c.2,0,.36.16.36.36s-.16.36-.36.36Z"/>
            <path class="cls-45" d="m705.15,111.04s-.02,0-.03,0c-.2-.01-.35-.19-.33-.38.08-1.13-.32-2.26-1.09-3.09-.77-.84-1.86-1.32-3-1.32-.2,0-.36-.16-.36-.36s.16-.36.36-.36c1.33,0,2.62.57,3.52,1.55.91.97,1.37,2.3,1.28,3.63-.01.19-.17.33-.36.33Z"/>
            <path class="cls-45" d="m702.74,136.88s-.02,0-.03,0c-.2-.02-.34-.19-.32-.39l2.42-25.81c.02-.2.19-.33.39-.33.2.02.34.19.32.39l-2.42,25.81c-.02.19-.17.33-.36.33Z"/>
            <path class="cls-45" d="m672.52,136.85c-.17,0-.31-.09-.33-.27v-.09s-2.27-25.75-2.27-25.75c-.02-.2.13-.37.33-.39.19-.02.37.13.39.33l2.25,25.73c.02.19-.12.41-.31.43-.02,0-.04,0-.06,0Z"/>
            <path class="cls-45" d="m670.29,111.04c-.19,0-.34-.14-.36-.33-.11-1.33.35-2.65,1.27-3.63.89-.97,2.12-1.52,3.45-1.55l.08.36v.36h-.08c-1.13.02-2.17.49-2.93,1.32-.78.83-1.17,1.96-1.08,3.09.02.2-.13.37-.33.39,0,0-.02,0-.03,0Z"/>
            <path class="cls-45" d="m687.72,143.69c-5.9,0-11.51-2.55-15.38-7.01-.13-.15-.11-.38.04-.51.15-.13.38-.12.51.04,3.74,4.3,9.15,6.76,14.84,6.76s10.98-2.42,14.71-6.63c.02-.03.03-.05.06-.07.14-.14.41-.18.55-.04.14.14.18.33.04.47h0s-.03.05-.05.07c-3.87,4.4-9.44,6.92-15.29,6.92Z"/>
            <path class="cls-45" d="m687.72,148.97c-7.42,0-14.46-3.2-19.31-8.77-.03-.02-.05-.05-.06-.07-.14-.14-.13-.36.01-.5.14-.14.38-.13.52.01,0,0,.02.02.02.03.02.01.03.03.04.04,4.72,5.42,11.56,8.53,18.78,8.53s14.06-3.11,18.76-8.53c.03-.04.07-.06.11-.09h0c.14-.08.33-.07.44.04.14.14.16.34.02.48-.01.02-.03.04-.05.06-4.84,5.57-11.87,8.76-19.29,8.76Z"/>
            <path class="cls-45" d="m668.63,140.33c-.09,0-.19-.03-.25-.1-.13-.14-.15-.34-.02-.48l.05-.05,3.89-3.44c.15-.13.38-.12.51.03.13.15.12.38-.03.51l-3.88,3.42c-.08.07-.18.1-.28.1Z"/>
            <path class="cls-45" d="m706.78,140.35c-.06,0-.13-.02-.19-.07l-.06-.05-4.02-3.43c-.15-.13-.17-.36-.04-.51.13-.15.36-.17.51-.04l4.01,3.42c.15.13.2.38.08.53-.08.09-.18.15-.28.15Z"/>
            <path class="cls-45" d="m763.74,46.6h-25.89c-.2,0-.36-.16-.36-.36s.16-.36.36-.36h25.89c.2,0,.36.16.36.36s-.16.36-.36.36Z"/>
            <path class="cls-45" d="m763.82,46.6c-.2,0-.36-.16-.36-.36s.16-.36.36-.36c1.13,0,2.22-.48,3-1.31.77-.83,1.17-1.96,1.09-3.1-.01-.2.14-.37.33-.38.2,0,.37.14.38.33.09,1.34-.37,2.67-1.28,3.64-.91.98-2.19,1.54-3.52,1.54Z"/>
            <path class="cls-45" d="m768.27,41.92c-.18,0-.34-.14-.36-.32v-.11s-2.42-25.86-2.42-25.86c-.02-.2.13-.37.33-.39.2-.01.37.13.39.33l2.41,25.96c.02.2-.12.38-.32.4-.01,0-.03,0-.04,0Z"/>
            <path class="cls-45" d="m733.39,41.92s-.03,0-.04,0c-.2-.02-.34-.2-.32-.4v-.11s2.26-25.85,2.26-25.85c.02-.2.2-.34.39-.33.2.02.34.19.33.39l-2.27,25.98c-.02.18-.18.32-.36.32Z"/>
            <path class="cls-45" d="m737.85,46.6c-1.41-.03-2.64-.57-3.54-1.54-.91-.98-1.37-2.31-1.27-3.65.02-.2.2-.35.39-.33.2.02.35.19.33.39-.09,1.14.3,2.27,1.07,3.1.76.82,1.81,1.28,2.94,1.31.2,0,.39.17.39.36s-.12.36-.32.36Z"/>
            <path class="cls-45" d="m735.72,15.9c-.08,0-.17-.03-.24-.09-.15-.13-.17-.36-.04-.51,3.87-4.46,9.48-7.02,15.38-7.02s11.48,2.55,15.36,7.01c.13.15.12.38-.02.51-.14.13-.36.13-.5,0h-.01c-3.75-4.32-9.15-6.79-14.83-6.79s-11.1,2.47-14.84,6.77c-.07.08-.17.12-.27.12Z"/>
            <path class="cls-45" d="m731.73,12.44c-.08,0-.17-.03-.24-.09-.15-.13-.17-.36-.04-.51,4.88-5.62,11.94-8.84,19.37-8.84s14.49,3.22,19.36,8.83c.13.15.11.38-.04.51-.15.13-.38.11-.51-.04-4.73-5.45-11.59-8.58-18.82-8.58s-14.09,3.13-18.83,8.6c-.07.08-.17.12-.27.12Z"/>
            <path class="cls-45" d="m735.66,15.95c-.08,0-.17-.03-.24-.09l-3.93-3.47c-.15-.13-.16-.36-.03-.51.13-.15.36-.16.51-.03l3.93,3.47c.15.13.16.36.03.51-.07.08-.17.12-.27.12Z"/>
            <path class="cls-45" d="m765.87,15.9c-.09,0-.19-.03-.25-.1-.13-.14-.16-.33-.02-.47,0,0,.08-.08.08-.08l4.01-3.41c.15-.13.38-.11.51.04.13.15.11.38-.04.51l-4.01,3.41c-.08.06-.18.1-.28.1Z"/>
            <path class="cls-45" d="m763.74,106.24h-25.89c-.2,0-.36-.16-.36-.36s.16-.36.36-.36h25.89c.2,0,.36.16.36.36s-.16.36-.36.36Z"/>
            <path class="cls-45" d="m768.26,111.04s-.02,0-.02,0c-.21-.01-.36-.19-.34-.38.08-1.13-.32-2.26-1.09-3.09-.77-.84-1.86-1.32-3-1.32-.2,0-.36-.16-.36-.36s.16-.36.36-.36c1.34,0,2.62.57,3.52,1.55.91.97,1.37,2.29,1.28,3.63-.01.19-.17.33-.36.33Z"/>
            <path class="cls-45" d="m765.86,136.88s-.02,0-.03,0c-.2-.02-.34-.19-.32-.39l2.42-25.81c.02-.2.2-.33.39-.33.2.02.34.19.32.39l-2.42,25.81c-.02.19-.17.33-.36.33Z"/>
            <path class="cls-45" d="m735.64,136.85c-.17,0-.31-.09-.33-.27v-.09s-2.27-25.75-2.27-25.75c-.02-.2.13-.37.33-.39.2-.02.37.13.39.33l2.25,25.73c.02.19-.12.41-.31.43-.02,0-.04,0-.06,0Z"/>
            <path class="cls-45" d="m733.4,111.04c-.19,0-.34-.14-.36-.33-.11-1.33.35-2.65,1.27-3.63.89-.97,2.12-1.52,3.45-1.55l.08.36v.36h-.08c-1.13.02-2.17.49-2.93,1.32-.78.83-1.17,1.96-1.08,3.09.02.2-.13.37-.33.39,0,0-.02,0-.03,0Z"/>
            <path class="cls-45" d="m750.83,143.69c-5.9,0-11.51-2.55-15.38-7.01-.13-.15-.11-.38.04-.51.15-.13.38-.12.51.04,3.74,4.3,9.15,6.76,14.84,6.76s10.98-2.42,14.71-6.63c.01-.03.03-.05.05-.07.14-.14.4-.18.55-.04.14.14.18.33.04.47h-.01s-.03.05-.05.07c-3.87,4.4-9.44,6.92-15.29,6.92Z"/>
            <path class="cls-45" d="m750.83,148.97c-7.42,0-14.46-3.2-19.31-8.77-.03-.02-.05-.05-.06-.07-.14-.14-.13-.36,0-.5s.38-.13.52.01c0,0,.02.02.02.03.02.01.03.03.04.04,4.72,5.42,11.56,8.53,18.78,8.53s14.06-3.11,18.77-8.53c.03-.03.07-.06.11-.08h0c.14-.08.33-.07.44.04.14.14.16.34.02.48-.01.02-.03.04-.05.05-4.84,5.57-11.87,8.76-19.29,8.76Z"/>
            <path class="cls-45" d="m731.74,140.33c-.09,0-.19-.03-.25-.1-.13-.14-.15-.34-.02-.48l.05-.05,3.89-3.44c.15-.13.38-.12.51.03.13.15.12.38-.03.51l-3.88,3.42c-.08.07-.18.1-.28.1Z"/>
            <path class="cls-45" d="m769.9,140.35c-.06,0-.13-.02-.19-.07l-.06-.05-4.02-3.43c-.15-.13-.17-.36-.04-.51.13-.15.36-.17.51-.04l4.01,3.42c.15.13.2.38.08.53-.08.09-.18.15-.28.15Z"/>
            <path class="cls-45" d="m664.09,90.95c-.2,0-.36-.12-.36-.32v-25.97c0-.2.16-.36.36-.36s.36.16.36.36v25.89c0,.2-.16.4-.36.4Z"/>
            <path class="cls-45" d="m664.24,64.95c-.2,0-.36-.16-.36-.36,0-1.13-.48-2.23-1.32-2.99-.83-.77-1.95-1.17-3.09-1.09-.19,0-.37-.14-.38-.33-.01-.2.13-.37.33-.38,1.32-.09,2.66.37,3.63,1.28.98.9,1.55,2.19,1.55,3.52,0,.2-.16.36-.36.36Z"/>
            <path class="cls-45" d="m633.59,62.91c-.18,0-.34-.14-.36-.33-.02-.2.13-.37.33-.39l25.82-2.26c.19-.02.37.13.39.33.02.2-.13.37-.33.39l-25.82,2.26s-.02,0-.03,0Z"/>
            <path class="cls-45" d="m659.41,95.52s-.02,0-.03,0l-25.82-2.42c-.2-.02-.34-.19-.32-.39.02-.2.19-.34.39-.33l25.82,2.42c.2.02.34.19.32.39-.02.19-.17.33-.36.33Z"/>
            <path class="cls-45" d="m659.8,95.37c-.13,0-.25,0-.38-.02-.2-.02-.35-.19-.33-.39.02-.2.19-.34.39-.33,1.13.09,2.25-.3,3.09-1.08.84-.77,1.32-1.87,1.32-3.01,0-.2.16-.36.36-.36s.36.16.36.36c0,1.34-.56,2.63-1.55,3.54-.88.82-2.05,1.28-3.25,1.28Z"/>
            <path class="cls-45" d="m633.53,93.04c-.08,0-.17-.03-.24-.09-4.45-3.86-7.01-9.47-7.01-15.38s2.55-11.51,7.01-15.37c.15-.13.38-.12.51.04.13.15.11.38-.04.51-4.29,3.73-6.76,9.13-6.76,14.83s2.46,11.11,6.76,14.84c.15.13.17.36.04.51-.07.08-.17.12-.27.12Z"/>
            <path class="cls-45" d="m630.07,97.03c-.08,0-.17-.03-.24-.09-5.61-4.87-8.83-11.93-8.83-19.37s3.2-14.46,8.77-19.31c.02-.03.05-.05.06-.06.14-.14.36-.13.5,0,.14.14.13.38-.01.52,0,0-.02.02-.03.02-.01.01-.03.03-.04.04-5.42,4.72-8.53,11.56-8.53,18.78s3.13,14.09,8.58,18.83c.15.13.17.36.04.51-.07.08-.17.12-.27.12Z"/>
            <path class="cls-45" d="m630.12,97.14c-.08,0-.15-.02-.21-.07-.15-.13-.2-.32-.08-.47l.05-.06,3.43-4.02c.13-.15.36-.17.51-.04.15.13.17.36.04.51l-3.42,4.01c-.08.09-.2.15-.32.15Z"/>
            <path class="cls-45" d="m633.59,62.91c-.1,0-.2-.04-.28-.13l-.06-.08-3.4-3.84c-.13-.15-.12-.38.03-.51.15-.13.38-.12.51.03l3.48,3.93c.13.15.11.38-.04.51-.07.06-.15.08-.23.08Z"/>
            <path class="cls-45" d="m774.61,89.41c-.2,0-.36-.16-.36-.36v-25.89c0-.2.16-.36.36-.36s.36.16.36.36v25.89c0,.2-.16.36-.36.36Z"/>
            <path class="cls-45" d="m774.61,63.44c-.2,0-.36-.16-.36-.36,0-1.33.56-2.61,1.54-3.52.68-.62,1.48-1.03,2.39-1.21.41-.07.83-.09,1.24-.07.2.01.35.18.34.38-.01.2-.19.34-.38.34-.35-.02-.71,0-1.06.06-.77.15-1.45.5-2.03,1.03-.83.77-1.31,1.86-1.31,3,0,.2-.16.36-.36.36Z"/>
            <path class="cls-45" d="m805.26,61.55s-.02,0-.03,0l-25.82-2.42c-.2-.02-.34-.19-.32-.39.02-.2.19-.34.39-.33l25.82,2.42c.2.02.34.19.32.39-.02.19-.17.33-.36.33Z"/>
            <path class="cls-45" d="m779.44,94.01c-.18,0-.34-.14-.36-.33-.02-.2.13-.37.32-.39l25.82-2.42c.21-.02.37.13.39.33.02.2-.13.37-.32.39l-25.82,2.42s-.02,0-.03,0Z"/>
            <path class="cls-45" d="m779.04,93.86c-1.22,0-2.37-.46-3.25-1.28-.96-.9-1.51-2.12-1.54-3.45l.36-.08h.36v.08c.02,1.13.49,2.17,1.31,2.93.76.71,1.73,1.12,2.8,1.09.09,0,.19,0,.27,0,.2-.03.38.12.4.32.02.2-.12.38-.32.4-.13.01-.27.02-.39.02Z"/>
            <path class="cls-45" d="m805.31,91.53c-.1,0-.2-.04-.27-.12-.13-.15-.11-.38.04-.51,4.3-3.73,6.77-9.14,6.77-14.84s-2.44-11.03-6.7-14.75l.16-.35.25-.25c4.47,3.92,7,9.49,7,15.35s-2.56,11.51-7.02,15.38c-.07.06-.15.09-.24.09Z"/>
            <path class="cls-45" d="m808.77,95.52c-.1,0-.2-.04-.27-.12-.13-.15-.11-.38.04-.51,5.46-4.74,8.6-11.6,8.6-18.83s-3.11-14.05-8.55-18.78c-.04-.03-.06-.07-.09-.11h0c-.08-.14-.07-.33.04-.44.14-.14.34-.16.48-.02.02.01.04.03.06.05,5.57,4.86,8.77,11.89,8.77,19.3s-3.22,14.49-8.84,19.37c-.07.06-.15.09-.24.09Z"/>
            <path class="cls-45" d="m808.69,95.66c-.07,0-.15-.03-.21-.09l-.06-.06-3.43-4.04c-.13-.15-.11-.38.04-.51.15-.13.38-.11.51.04l3.41,4.01c.12.15.14.4,0,.53-.08.07-.17.11-.26.11Z"/>
            <path class="cls-45" d="m805.26,61.55c-.08,0-.16-.03-.23-.08-.15-.13-.17-.35-.05-.51l.13-.15,3.35-3.93c.13-.15.36-.17.51-.04.15.13.17.36.04.51l-3.47,4.07c-.07.09-.17.13-.28.13Z"/>
          </g>
        </g>
        <g class="cls-35">
          <rect class="cls-8" x="671.8" y="120.04" width="32.2" height="3.86"/>
        </g>
        <g class="cls-37">
          <rect class="cls-11" x="734.84" y="120.04" width="32.2" height="3.86"/>
        </g>
        <g class="cls-34">
          <rect class="cls-4" x="795.45" y="59.56" width="3.77" height="32.85"/>
        </g>
      </g>
      <g>
        <rect class="cls-19" x="645.87" y="34.81" width="152.53" height="88.36"/>
        <path class="cls-45" d="m798.4,123.17V34.81h-152.53v88.36h152.53Zm.72-88.72v89.08c0,.2-.16.36-.36.36h-153.25c-.2,0-.36-.16-.36-.36V34.45c0-.2.16-.36.36-.36h153.25c.2,0,.36.16.36.36Z"/>
      </g>
      <g>
        <path class="cls-22" d="m79.93,117.38c-24.52-.04-44.39-19.93-44.39-44.47s19.87-44.43,44.39-44.47h44.47c24.55,0,44.47,19.91,44.47,44.47s-19.92,44.47-44.47,44.47l-.08.15h-44.39v-.15Z"/>
        <g>
          <path class="cls-22" d="m191.6,54.01c5.51,4.79,8.67,11.75,8.67,19.05s-3.18,14.29-8.72,19.1l-.1.09-3.5-3.95.14-.13c4.38-3.8,6.9-9.31,6.9-15.11s-2.52-11.3-6.9-15.1l3.42-3.85.09-.1Z"/>
          <path class="cls-22" d="m188.09,57.96c4.38,3.8,6.9,9.31,6.9,15.1s-2.52,11.31-6.9,15.11l-.14.13-.06-.06-25.71,2.4v-.15c-1.25.1-2.47-.33-3.37-1.17-.89-.83-1.4-1.98-1.42-3.2v-26.05c0-1.23.52-2.42,1.42-3.26.88-.82,2.06-1.25,3.26-1.18v.14l25.82,2.42.2-.23Z"/>
          <path class="cls-22" d="m156.58,9.03l-.1.09-3.86,3.41c-3.8-4.37-9.3-6.88-15.09-6.88s-11.31,2.52-15.11,6.9l-.06.05-4.01-3.41.09-.1c4.81-5.54,11.76-8.72,19.09-8.72s14.27,3.17,19.06,8.67Z"/>
          <path class="cls-22" d="m156.48,137l.03.03c-4.79,5.46-11.71,8.58-18.97,8.58s-14.29-3.17-19.1-8.71h-.01s3.94-3.37,3.94-3.37v-.08s.06-.01.06-.01c3.8,4.37,9.31,6.88,15.11,6.88s11.22-2.48,15.02-6.79l3.93,3.47Z"/>
          <path class="cls-22" d="m154.96,38.56c.06,1.21-.36,2.38-1.18,3.26-.84.91-2.03,1.42-3.26,1.42h-26.05c-1.22-.03-2.37-.53-3.2-1.42-.84-.91-1.27-2.13-1.17-3.37h-.15s2.4-25.86,2.4-25.86l.06-.05c3.8-4.38,9.31-6.9,15.11-6.9s11.29,2.52,15.09,6.88l-.06.06,2.26,25.97h.14Z"/>
          <path class="cls-22" d="m153.78,104.32c.84.91,1.27,2.13,1.18,3.36l-.14.04-2.26,25.81h0c-3.8,4.33-9.27,6.81-15.02,6.81s-11.31-2.52-15.11-6.88h-.08s-2.4-25.73-2.4-25.73l.16-.04c-.1-1.23.33-2.45,1.17-3.36.83-.91,1.98-1.41,3.2-1.43h26.05c1.23,0,2.42.52,3.26,1.43Z"/>
          <path class="cls-22" d="m93.51,9.07v.05s-4,3.41-4,3.41c-3.8-4.37-9.3-6.88-15.09-6.88s-11.31,2.52-15.11,6.9l-.06.05-4.01-3.41.09-.1C60.13,3.54,67.08.36,74.41.36s14.31,3.18,19.1,8.71Z"/>
          <path class="cls-22" d="m89.44,133.53l4.01,3.42c-4.78,5.51-11.74,8.66-19.04,8.66s-14.29-3.17-19.1-8.71h-.01s3.94-3.37,3.94-3.37v-.09s.06,0,.06,0c3.8,4.37,9.31,6.88,15.11,6.88s11.22-2.48,15.02-6.79Z"/>
          <path class="cls-22" d="m91.85,38.56c.06,1.21-.36,2.38-1.18,3.26-.84.91-2.03,1.42-3.26,1.42h-26.05c-1.22-.03-2.37-.53-3.2-1.42-.84-.91-1.27-2.13-1.17-3.37l2.25-25.86.06-.05c3.8-4.38,9.31-6.9,15.11-6.9s11.29,2.52,15.09,6.88l-.06.06,2.26,25.97h.14Z"/>
          <path class="cls-22" d="m90.66,104.32c.84.91,1.27,2.13,1.18,3.36l-.14.04-2.26,25.81h0c-3.8,4.33-9.27,6.81-15.02,6.81s-11.31-2.52-15.11-6.88h-.08l-2.25-25.73v-.04c-.09-1.23.34-2.45,1.18-3.36.83-.91,1.98-1.41,3.2-1.43h26.05c1.23,0,2.42.52,3.26,1.43Z"/>
          <path class="cls-22" d="m46.86,87.56h.15c0,1.25-.52,2.43-1.43,3.27-.91.84-2.13,1.27-3.36,1.17l-.19.16-25.74-2.4v-.08c-4.37-3.8-6.87-9.31-6.87-15.11s2.47-11.22,6.79-15.02l25.82-2.26.19-.14c1.23-.09,2.45.34,3.36,1.18.91.84,1.43,2.03,1.43,3.26l-.15.08v25.89Z"/>
          <path class="cls-22" d="m16.3,89.68v.08s-.09-.01-.09-.01l-3.36,3.94h-.01c-5.54-4.82-8.71-11.78-8.71-19.11s3.12-14.18,8.58-18.97l.03.03,3.47,3.93c-4.33,3.8-6.79,9.27-6.79,15.02s2.5,11.31,6.88,15.11Z"/>
        </g>
        <g>
          <g>
            <path class="cls-19" d="m187.82,54.01c5.51,4.79,8.67,11.75,8.67,19.05s-3.18,14.29-8.72,19.1l-.1.09-3.5-3.95.14-.13c4.38-3.8,6.9-9.31,6.9-15.11s-2.52-11.3-6.9-15.1l3.42-3.85.09-.1Z"/>
            <path class="cls-18" d="m184.31,57.96c4.38,3.8,6.9,9.31,6.9,15.1s-2.52,11.31-6.9,15.11l-.14.13-.06-.06-25.71,2.4v-.15c-1.25.1-2.47-.33-3.37-1.17-.89-.83-1.4-1.98-1.42-3.2v-26.05c0-1.23.52-2.42,1.42-3.26.88-.82,2.06-1.25,3.26-1.18v.14l25.82,2.42.2-.23Z"/>
            <path class="cls-19" d="m152.81,9.03l-.1.09-3.86,3.41c-3.8-4.37-9.3-6.88-15.09-6.88s-11.31,2.52-15.11,6.9l-.06.05-4.01-3.41.09-.1C119.46,3.54,126.42.36,133.75.36s14.27,3.17,19.06,8.67Z"/>
            <path class="cls-19" d="m152.71,137l.03.03c-4.79,5.46-11.71,8.58-18.97,8.58s-14.29-3.17-19.1-8.71h-.01s3.94-3.37,3.94-3.37v-.08s.06-.01.06-.01c3.8,4.37,9.31,6.88,15.11,6.88s11.22-2.48,15.02-6.79l3.93,3.47Z"/>
            <path class="cls-18" d="m151.18,38.56c.06,1.21-.36,2.38-1.18,3.26-.84.91-2.03,1.42-3.26,1.42h-26.05c-1.22-.03-2.37-.53-3.2-1.42-.84-.91-1.27-2.13-1.17-3.37h-.15s2.4-25.86,2.4-25.86l.06-.05c3.8-4.38,9.31-6.9,15.11-6.9s11.29,2.52,15.09,6.88l-.06.06,2.26,25.97h.14Z"/>
            <path class="cls-18" d="m150,104.32c.84.91,1.27,2.13,1.18,3.36l-.14.04-2.26,25.81h0c-3.8,4.33-9.27,6.81-15.02,6.81s-11.31-2.52-15.11-6.88h-.08s-2.4-25.73-2.4-25.73l.16-.04c-.1-1.23.33-2.45,1.17-3.36.83-.91,1.98-1.41,3.2-1.43h26.05c1.23,0,2.42.52,3.26,1.43Z"/>
            <path class="cls-19" d="m89.73,9.07v.05s-4,3.41-4,3.41c-3.8-4.37-9.3-6.88-15.09-6.88s-11.31,2.52-15.11,6.9l-.06.05-4.01-3.41.09-.1C56.35,3.54,63.31.36,70.63.36s14.31,3.18,19.1,8.71Z"/>
            <path class="cls-19" d="m85.67,133.53l4.01,3.42c-4.78,5.51-11.74,8.66-19.04,8.66s-14.29-3.17-19.1-8.71h-.01s3.94-3.37,3.94-3.37v-.09s.06,0,.06,0c3.8,4.37,9.31,6.88,15.11,6.88s11.22-2.48,15.02-6.79Z"/>
            <path class="cls-18" d="m88.07,38.56c.06,1.21-.36,2.38-1.18,3.26-.84.91-2.03,1.42-3.26,1.42h-26.05c-1.22-.03-2.37-.53-3.2-1.42-.84-.91-1.27-2.13-1.17-3.37l2.25-25.86.06-.05c3.8-4.38,9.31-6.9,15.11-6.9s11.29,2.52,15.09,6.88l-.06.06,2.26,25.97h.14Z"/>
            <path class="cls-18" d="m86.89,104.32c.84.91,1.27,2.13,1.18,3.36l-.14.04-2.26,25.81h0c-3.8,4.33-9.27,6.81-15.02,6.81s-11.31-2.52-15.11-6.88h-.08l-2.25-25.73v-.04c-.09-1.23.34-2.45,1.18-3.36.83-.91,1.98-1.41,3.2-1.43h26.05c1.23,0,2.42.52,3.26,1.43Z"/>
            <path class="cls-18" d="m43.09,87.56h.15c0,1.25-.52,2.43-1.43,3.27-.91.84-2.13,1.27-3.36,1.17l-.19.16-25.74-2.4v-.08c-4.37-3.8-6.87-9.31-6.87-15.11s2.47-11.22,6.79-15.02l25.82-2.26.19-.14c1.23-.09,2.45.34,3.36,1.18.91.84,1.43,2.03,1.43,3.26l-.15.08v25.89Z"/>
            <path class="cls-19" d="m12.53,89.68v.08s-.09-.01-.09-.01l-3.36,3.94h-.01C3.53,88.86.36,81.91.36,74.57s3.12-14.18,8.58-18.97l.03.03,3.47,3.93c-4.33,3.8-6.79,9.27-6.79,15.02s2.5,11.31,6.88,15.11Z"/>
          </g>
          <g>
            <path class="cls-45" d="m83.55,43.6h-25.89c-.2,0-.36-.16-.36-.36s.16-.36.36-.36h25.89c.2,0,.36.16.36.36s-.16.36-.36.36Z"/>
            <path class="cls-45" d="m83.63,43.6c-.2,0-.36-.16-.36-.36s.16-.36.36-.36c1.13,0,2.22-.48,3-1.31.76-.82,1.15-1.88,1.09-3,0-.04,0-.07.01-.11.03-.18.17-.34.35-.34.2,0,.36.12.36.32,0,.03,0,.08,0,.14.06,1.29-.4,2.53-1.28,3.48-.91.98-2.19,1.54-3.52,1.54Z"/>
            <path class="cls-45" d="m87.93,38.92c-.18,0-.34-.14-.36-.33l-2.27-25.97c-.02-.2.13-.37.33-.39.19-.01.37.13.39.33l2.27,25.97c.02.2-.13.37-.33.39-.01,0-.02,0-.03,0Z"/>
            <path class="cls-45" d="m53.21,38.92s-.03,0-.04,0c-.2-.02-.34-.2-.32-.4v-.11s2.26-25.85,2.26-25.85c.02-.2.19-.34.39-.33.2.02.34.19.33.39l-2.27,25.98c-.02.18-.18.32-.36.32Z"/>
            <path class="cls-45" d="m57.66,43.6c-1.41-.03-2.64-.57-3.54-1.54-.91-.98-1.37-2.31-1.27-3.65.02-.2.19-.35.39-.33.2.02.35.19.33.39-.09,1.14.3,2.27,1.07,3.1.76.82,1.81,1.28,2.94,1.31.2,0,.39.17.39.36,0,.2-.12.36-.32.36Z"/>
            <path class="cls-45" d="m55.53,12.9c-.08,0-.17-.03-.24-.09-.15-.13-.17-.36-.04-.51,3.87-4.46,9.48-7.02,15.38-7.02s11.48,2.55,15.36,7.01c.13.15.12.37-.02.51-.14.13-.36.13-.49,0h-.01c-3.76-4.33-9.16-6.79-14.83-6.79s-11.11,2.47-14.84,6.77c-.07.08-.17.12-.27.12Z"/>
            <path class="cls-45" d="m51.54,9.44c-.08,0-.17-.03-.24-.09-.15-.13-.17-.36-.04-.51C56.15,3.22,63.21,0,70.63,0s14.5,3.22,19.37,8.83c.13.15.11.38-.04.51-.15.13-.38.11-.51-.04-4.73-5.45-11.6-8.58-18.83-8.58s-14.07,3.13-18.82,8.6c-.07.08-.17.12-.27.12Z"/>
            <path class="cls-45" d="m55.47,12.95c-.08,0-.17-.03-.23-.09l-4.01-3.41s-.08-.08-.08-.08c-.14-.14-.14-.37,0-.51s.37-.14.51,0l.06.06,3.99,3.39c.15.13.17.36.04.51-.07.08-.17.13-.27.13Z"/>
            <path class="cls-45" d="m85.68,12.9c-.09,0-.19-.03-.25-.1-.13-.14-.16-.33-.02-.47,0,0,.08-.08.08-.08l4.01-3.41c.15-.13.38-.11.51.04.13.15.11.38-.04.51l-4.01,3.41c-.08.06-.18.1-.28.1Z"/>
            <path class="cls-45" d="m83.55,103.24h-25.89c-.2,0-.36-.16-.36-.36s.16-.36.36-.36h25.89c.2,0,.36.16.36.36s-.16.36-.36.36Z"/>
            <path class="cls-45" d="m88.07,108.04s-.02,0-.03,0c-.2-.01-.35-.19-.33-.38.08-1.13-.32-2.26-1.09-3.09-.77-.84-1.86-1.32-3-1.32-.2,0-.36-.16-.36-.36s.16-.36.36-.36c1.33,0,2.62.57,3.52,1.55.91.97,1.37,2.3,1.28,3.63-.01.19-.17.33-.36.33Z"/>
            <path class="cls-45" d="m85.67,133.88s-.02,0-.03,0c-.2-.02-.34-.19-.33-.39l2.27-25.81c.02-.2.21-.35.39-.33.2.02.34.19.33.39l-2.27,25.81c-.02.19-.17.33-.36.33Z"/>
            <path class="cls-45" d="m55.45,133.85c-.17,0-.31-.09-.34-.27v-.09s-2.27-25.75-2.27-25.75c-.02-.2.13-.37.33-.39.2-.02.37.13.39.33l2.25,25.73c.02.19-.12.41-.31.43-.02,0-.04,0-.06,0Z"/>
            <path class="cls-45" d="m53.22,108.04c-.19,0-.34-.14-.36-.33-.11-1.33.35-2.65,1.27-3.63.89-.97,2.12-1.52,3.45-1.55l.08.36v.36h-.08c-1.13.02-2.17.49-2.93,1.32-.78.83-1.17,1.96-1.08,3.09.02.2-.13.37-.33.39,0,0-.02,0-.03,0Z"/>
            <path class="cls-45" d="m70.64,140.69c-5.9,0-11.51-2.55-15.38-7.01-.13-.15-.11-.38.04-.51.15-.13.38-.12.51.04,3.74,4.3,9.15,6.76,14.84,6.76s10.98-2.42,14.71-6.63c.02-.03.03-.05.06-.07.14-.14.41-.18.55-.04.14.14.18.33.04.47h0s-.03.05-.05.07c-3.87,4.4-9.44,6.92-15.29,6.92Z"/>
            <path class="cls-45" d="m70.64,145.97c-7.44,0-14.5-3.22-19.37-8.83-.13-.15-.11-.38.04-.51.15-.13.38-.12.51.04,4.74,5.45,11.6,8.58,18.83,8.58s14.06-3.11,18.77-8.53c.03-.04.07-.06.11-.09h0c.14-.08.32-.07.44.04.14.14.17.34.03.49-.01.02-.03.04-.06.06-4.84,5.57-11.87,8.76-19.29,8.76Z"/>
            <path class="cls-45" d="m51.39,137.36c-.1,0-.21-.05-.28-.13-.13-.15-.1-.38.05-.51l.14-.11,3.93-3.35c.15-.13.38-.11.51.04.13.15.11.38-.04.51l-4.08,3.48c-.07.05-.15.08-.23.08Z"/>
            <path class="cls-45" d="m89.71,137.35c-.06,0-.13-.02-.19-.07l-.06-.05-4.02-3.43c-.15-.13-.17-.36-.04-.51.13-.15.36-.17.51-.04l4.01,3.42c.15.13.2.38.08.53-.08.09-.18.15-.28.15Z"/>
            <path class="cls-45" d="m146.67,43.6h-25.89c-.2,0-.36-.16-.36-.36s.16-.36.36-.36h25.89c.2,0,.36.16.36.36s-.16.36-.36.36Z"/>
            <path class="cls-45" d="m146.74,43.6c-.2,0-.36-.16-.36-.36s.16-.36.36-.36c1.13,0,2.22-.48,3-1.31.76-.82,1.15-1.88,1.09-3,0-.04,0-.07.01-.11.03-.18.17-.34.35-.34.2,0,.36.12.36.32,0,.03,0,.08,0,.14.06,1.29-.4,2.53-1.28,3.48-.91.98-2.19,1.54-3.52,1.54Z"/>
            <path class="cls-45" d="m151.05,38.92c-.18,0-.34-.14-.36-.33l-2.26-25.97c-.02-.2.13-.37.33-.39.19-.01.37.13.39.33l2.26,25.97c.02.2-.13.37-.33.39-.01,0-.02,0-.03,0Z"/>
            <path class="cls-45" d="m116.17,38.92s-.02,0-.04,0c-.2-.02-.34-.2-.32-.39v-.13s2.42-25.84,2.42-25.84c.02-.2.2-.34.39-.33.2.02.34.19.33.39l-2.42,25.97c-.02.19-.18.32-.36.32Z"/>
            <path class="cls-45" d="m120.77,43.6c-1.41-.03-2.64-.57-3.54-1.54-.91-.98-1.37-2.31-1.27-3.65.02-.2.19-.35.39-.33.2.02.35.19.33.39-.09,1.14.3,2.27,1.07,3.1.76.82,1.81,1.28,2.94,1.31.2,0,.39.17.39.36s-.12.36-.32.36Z"/>
            <path class="cls-45" d="m118.65,12.9c-.08,0-.17-.03-.24-.09-.15-.13-.17-.36-.04-.51,3.87-4.46,9.48-7.02,15.38-7.02s11.48,2.55,15.36,7.01c.13.15.12.37-.02.51-.14.13-.36.13-.49,0h-.01c-3.76-4.33-9.16-6.79-14.83-6.79s-11.1,2.47-14.84,6.77c-.07.08-.17.12-.27.12Z"/>
            <path class="cls-45" d="m114.66,9.44c-.08,0-.17-.03-.24-.09-.15-.13-.17-.36-.04-.51,4.88-5.62,11.94-8.84,19.36-8.84s14.46,3.2,19.33,8.79c.13.15.13.39,0,.52-.14.13-.34.15-.48.01l-.04-.04c-4.75-5.45-11.6-8.56-18.81-8.56s-14.07,3.13-18.82,8.6c-.07.08-.17.12-.27.12Z"/>
            <path class="cls-45" d="m118.58,12.95c-.08,0-.17-.03-.23-.09l-4.01-3.41s-.08-.08-.08-.08c-.14-.14-.14-.37,0-.51s.37-.14.51,0l.06.06,3.99,3.39c.15.13.17.36.04.51-.07.08-.17.13-.27.13Z"/>
            <path class="cls-45" d="m148.8,12.9c-.09,0-.18-.03-.25-.1-.13-.14-.16-.33-.02-.47,0,0,.07-.07.08-.08l3.86-3.41c.15-.13.38-.12.51.03.13.15.12.38-.03.51l-3.86,3.41c-.08.07-.18.11-.29.11Z"/>
            <path class="cls-45" d="m146.67,103.24h-25.89c-.2,0-.36-.16-.36-.36s.16-.36.36-.36h25.89c.2,0,.36.16.36.36s-.16.36-.36.36Z"/>
            <path class="cls-45" d="m151.18,108.04s-.02,0-.03,0c-.2-.01-.35-.19-.33-.38.08-1.13-.31-2.26-1.09-3.09-.77-.84-1.86-1.32-3-1.32-.2,0-.36-.16-.36-.36s.16-.36.36-.36c1.34,0,2.62.57,3.52,1.55.91.97,1.37,2.3,1.28,3.63-.01.19-.17.33-.36.33Z"/>
            <path class="cls-45" d="m148.78,133.88s-.02,0-.03,0c-.2-.02-.34-.19-.33-.39l2.26-25.81c.02-.2.21-.35.39-.33.2.02.34.19.33.39l-2.26,25.81c-.02.19-.17.33-.36.33Z"/>
            <path class="cls-45" d="m118.56,133.85c-.17,0-.31-.09-.33-.26v-.08s-2.42-25.77-2.42-25.77c-.02-.2.13-.37.32-.39.2-.01.37.13.39.33l2.4,25.74c.02.19-.11.4-.31.43-.02,0-.04,0-.06,0Z"/>
            <path class="cls-45" d="m116.33,108.04c-.19,0-.34-.14-.36-.33-.11-1.33.35-2.65,1.27-3.63.89-.97,2.12-1.52,3.45-1.55l.08.36v.36h-.08c-1.13.02-2.17.49-2.93,1.32-.78.83-1.17,1.96-1.08,3.09.02.2-.13.37-.33.39,0,0-.02,0-.03,0Z"/>
            <path class="cls-45" d="m133.76,140.69c-5.9,0-11.51-2.55-15.38-7.01-.13-.15-.11-.38.04-.51.15-.13.38-.12.51.04,3.74,4.3,9.15,6.76,14.84,6.76s10.98-2.42,14.71-6.63c.01-.03.03-.05.05-.07.14-.14.41-.18.55-.04.14.14.18.33.04.47h-.01s-.03.05-.05.07c-3.87,4.4-9.44,6.92-15.29,6.92Z"/>
            <path class="cls-45" d="m133.76,145.97c-7.44,0-14.5-3.22-19.37-8.83-.13-.15-.11-.38.04-.51.15-.13.38-.12.51.04,4.74,5.45,11.6,8.58,18.83,8.58s13.98-3.08,18.7-8.46l.13-.14c.14-.14.37-.14.51,0,.14.14.14.37,0,.51l-.11.13c-4.84,5.52-11.86,8.69-19.23,8.69Z"/>
            <path class="cls-45" d="m114.51,137.36c-.1,0-.21-.04-.28-.13-.13-.15-.1-.38.05-.51l.14-.11,3.93-3.35c.15-.13.38-.11.51.04.13.15.11.38-.04.51l-4.08,3.48c-.07.05-.15.08-.23.08Z"/>
            <path class="cls-45" d="m152.71,137.36c-.08,0-.17-.03-.24-.09l-3.93-3.47c-.15-.13-.16-.36-.03-.51.13-.15.36-.16.51-.03l3.93,3.47c.15.13.16.36.03.51-.07.08-.17.12-.27.12Z"/>
            <path class="cls-45" d="m43.09,87.95c-.2,0-.36-.12-.36-.32v-25.97c0-.2.16-.36.36-.36s.36.16.36.36v25.89c0,.2-.16.4-.36.4Z"/>
            <path class="cls-45" d="m43.24,61.95c-.2,0-.36-.16-.36-.36,0-1.12-.48-2.21-1.32-3-.83-.77-1.95-1.17-3.09-1.09-.19,0-.37-.14-.38-.33-.01-.2.13-.37.33-.38,1.33-.09,2.65.37,3.63,1.28.98.92,1.55,2.2,1.55,3.52,0,.2-.16.36-.36.36Z"/>
            <path class="cls-45" d="m12.44,59.91c-.18,0-.34-.14-.36-.33-.02-.2.13-.37.33-.39l25.82-2.26c.19-.02.37.13.39.33.02.2-.13.37-.33.39l-25.82,2.26s-.02,0-.03,0Z"/>
            <path class="cls-45" d="m38.26,92.52s-.02,0-.03,0l-25.74-2.4s-.09-.01-.1-.02c-.2-.03-.33-.22-.29-.42.03-.2.22-.33.42-.29h.08s25.72,2.41,25.72,2.41c.2.02.34.19.32.39-.02.19-.17.33-.36.33Z"/>
            <path class="cls-45" d="m38.8,92.37c-.13,0-.25,0-.38-.02-.2-.02-.35-.19-.33-.39.02-.2.19-.34.39-.33,1.13.09,2.25-.3,3.08-1.08.84-.77,1.32-1.87,1.32-3.01,0-.2.16-.36.36-.36s.36.16.36.36c0,1.34-.57,2.63-1.55,3.54-.88.82-2.05,1.28-3.25,1.28Z"/>
            <path class="cls-45" d="m12.53,90.04c-.08,0-.17-.03-.24-.09-4.45-3.86-7.01-9.47-7.01-15.38s2.52-11.44,6.92-15.29l.31.21-.24-.27c.14-.13.37-.13.51.01.13.14.14.36,0,.49-.01.01-.07.06-.08.07-4.27,3.75-6.7,9.12-6.7,14.78s2.46,11.11,6.76,14.84c.15.13.17.36.04.51-.07.08-.17.12-.27.12Z"/>
            <path class="cls-45" d="m9.07,94.03c-.08,0-.17-.03-.24-.09-5.61-4.87-8.83-11.93-8.83-19.37s3.17-14.39,8.7-19.24c0,0,.05-.05.09-.09.14-.13.39-.14.52,0,.13.14.15.35,0,.49,0,0-.05.04-.05.05-.02.02-.07.08-.09.09C3.8,60.59.72,67.4.72,74.57s3.13,14.09,8.58,18.83c.15.13.17.36.04.51-.07.08-.17.12-.27.12Z"/>
            <path class="cls-45" d="m8.97,94.18c-.08,0-.16-.03-.23-.08-.15-.12-.18-.35-.05-.51l.11-.14,3.36-3.94c.13-.15.36-.17.51-.04.15.13.17.36.04.51l-3.47,4.07c-.07.09-.17.13-.28.13Z"/>
            <path class="cls-45" d="m12.44,59.91c-.1,0-.2-.04-.27-.12l-3.47-3.93c-.13-.15-.12-.38.03-.51.15-.13.38-.12.51.03l3.47,3.93c.13.15.12.38-.03.51-.07.06-.15.09-.24.09Z"/>
            <path class="cls-45" d="m153.61,86.41c-.2,0-.36-.16-.36-.36v-25.89c0-.2.16-.36.36-.36s.36.16.36.36v25.89c0,.2-.16.36-.36.36Z"/>
            <path class="cls-45" d="m153.61,60.44c-.2,0-.36-.16-.36-.36,0-1.33.56-2.61,1.54-3.52.94-.88,2.23-1.34,3.51-1.28.04,0,.08,0,.11,0,.2,0,.35.16.35.36s-.17.36-.37.36c0,0-.03,0-.05,0-.02,0-.04,0-.07,0-1.1-.06-2.19.34-2.99,1.09-.83.77-1.31,1.87-1.31,3,0,.2-.16.36-.36.36Z"/>
            <path class="cls-45" d="m184.11,58.55s-.02,0-.03,0l-25.82-2.42c-.2-.02-.34-.19-.32-.39.02-.2.19-.34.39-.33l25.82,2.42c.2.02.34.19.32.39-.02.19-.17.33-.36.33Z"/>
            <path class="cls-45" d="m158.29,91.01c-.18,0-.34-.14-.36-.32-.02-.2.12-.38.32-.4h.11s25.71-2.42,25.71-2.42c.2-.02.37.13.39.33.02.2-.13.37-.32.39l-25.81,2.41s-.03,0-.04,0Z"/>
            <path class="cls-45" d="m158.04,90.86c-1.2,0-2.36-.46-3.25-1.28-.96-.9-1.51-2.12-1.54-3.45l.36-.08h.36v.08c.02,1.13.49,2.17,1.31,2.93.83.77,1.96,1.17,3.08,1.08.2-.02.37.13.39.33.02.2-.13.37-.33.39-.13.01-.26.02-.38.02Z"/>
            <path class="cls-45" d="m184.31,88.53c-.1,0-.2-.04-.27-.12-.13-.15-.11-.38.04-.51,4.3-3.73,6.77-9.14,6.77-14.84s-2.47-11.09-6.77-14.83c-.15-.13-.17-.36-.04-.51.13-.15.36-.17.51-.04,4.46,3.87,7.02,9.47,7.02,15.37s-2.56,11.51-7.02,15.38c-.07.06-.15.09-.24.09Z"/>
            <path class="cls-45" d="m187.77,92.52c-.1,0-.2-.04-.27-.12-.13-.15-.11-.38.04-.51,5.46-4.74,8.6-11.6,8.6-18.83s-3.11-14.05-8.55-18.78c-.04-.03-.06-.07-.09-.11h0c-.07-.15-.07-.33.05-.44.14-.14.34-.16.48-.02.02.01.04.03.05.05,5.57,4.86,8.77,11.89,8.77,19.3s-3.22,14.49-8.84,19.37c-.07.06-.15.09-.24.09Z"/>
            <path class="cls-45" d="m187.69,92.66c-.07,0-.15-.03-.21-.09l-.06-.06-3.51-3.97c-.13-.15-.15-.4,0-.53.14-.13.33-.16.47-.03,0,0,.07.07.08.08l3.5,3.95c.13.15.15.4,0,.53-.08.07-.17.12-.26.12Z"/>
            <path class="cls-45" d="m184.11,58.55c-.08,0-.17-.03-.24-.09-.15-.13-.16-.36-.03-.51l3.62-4.08c.13-.15.36-.16.51-.03.15.13.16.36.03.51l-3.62,4.08c-.07.08-.17.12-.27.12Z"/>
          </g>
        </g>
        <g class="cls-20">
          <path class="cls-14" d="m149.75,83.49h-32.2v-21.01s29.44.33,32.2,0c2.76-.33,0,21.01,0,21.01Z"/>
        </g>
        <g class="cls-31">
          <path class="cls-16" d="m168.34,56.58v33.18s-10.51,1-10.51-.3c0-1.3.16-29.44,0-32.2s10.51-.69,10.51-.69Z"/>
        </g>
        <g class="cls-42">
          <path class="cls-7" d="m54.55,83.49h32.2v-21.01s-29.44.33-32.2,0,0,21.01,0,21.01Z"/>
        </g>
        <g>
          <path class="cls-19" d="m76.16,117.38c-24.52-.04-44.39-19.93-44.39-44.47s19.87-44.43,44.39-44.47h44.47c24.55,0,44.47,19.91,44.47,44.47s-19.92,44.47-44.47,44.47l-.08.15h-44.39v-.15Z"/>
          <g>
            <path class="cls-45" d="m76.23,117.74c-24.75-.04-44.83-20.15-44.83-44.83s20.07-44.79,44.75-44.83h0c.2,0,.36.16.36.36,0,.2-.16.36-.36.36-24.28.04-44.03,19.82-44.03,44.11s19.75,44.07,44.03,44.11c.2,0,.4.16.4.36,0,.2-.12.36-.32.36Z"/>
            <path class="cls-45" d="m120.62,117.74c-.2,0-.36-.16-.36-.36s.16-.36.36-.36c24.32,0,44.11-19.79,44.11-44.11s-19.79-44.11-44.11-44.11c-.2,0-.36-.16-.36-.36s.16-.36.36-.36c24.72,0,44.83,20.11,44.83,44.83s-20.11,44.83-44.83,44.83Z"/>
            <path class="cls-45" d="m120.55,28.8h-44.31c-.2,0-.4-.16-.4-.36s.12-.36.32-.36h44.39c.2,0,.36.16.36.36s-.16.36-.36.36Z"/>
            <path class="cls-45" d="m120.55,117.89h-44.39c-.2,0-.36-.16-.36-.36s.16-.36.36-.36h44.39c.2,0,.36.16.36.36s-.16.36-.36.36Z"/>
          </g>
        </g>
      </g>
    </g>
  </g>
</svg>