<?xml version="1.0" encoding="UTF-8"?>
<svg id="Layer_1" data-name="Layer 1" xmlns="http://www.w3.org/2000/svg" viewBox="0 0 363.54 702.49">
  <defs>
    <style>
      .cls-1 {
        fill: #d8d8d8;
      }

      .cls-2 {
        fill: #bfbfbf;
      }

      .cls-3 {
        fill: #d6d6d6;
      }

      .cls-4 {
        fill: #b8b8b8;
      }

      .cls-5 {
        fill: #eaeaea;
      }

      .cls-6 {
        fill: #ebebeb;
      }

      .cls-7 {
        fill: #dcdcdc;
      }

      .cls-8 {
        fill: #c1c1c1;
      }

      .cls-9 {
        fill: #ababab;
      }

      .cls-10 {
        fill: #f7f7f7;
      }

      .cls-11 {
        fill: #a8a8a8;
      }

      .cls-12 {
        fill: #cdcdcd;
      }

      .cls-13 {
        fill: #d0d0d0;
      }

      .cls-14 {
        fill: #ececec;
      }

      .cls-15 {
        fill: #e3e3e3;
      }
    </style>
  </defs>
  <g>
    <g>
      <polygon class="cls-11" points="347.54 111.86 363.54 111.86 363.54 116.24 358.62 118.07 347.54 111.86"/>
      <path class="cls-11" d="m274.19,161.78l15.53-4.26,5.54-11.32-5.54-11.32-15.99-3.65-14.76,4.38-6.77,10.59,5.54,10.96,15.99,4.02.46.61Zm69.05-49.92h4.31l11.07,6.21,4.92-1.83v35.06l-1.23-1.83-15.99-2.56-10.46,8.77v17.53l22.76,12.05,4.92-1.46v10.23h-1.23l-19.68-14.61-28.3-5.48-20.3,7.3-2.46,16.07,23.99,15.71,8.05.24-.05.49h-6.77l-6.77,4.38h-17.22l2.46-4.38-5.54-11.69-15.99-3.29-14.76,4.02-6.77,10.96,2.46,4.38h-4.92l-1.23-1.1-15.99-2.56-4.31,3.65h-8v-1.1l-10.46-3.29.05-.49,15.94.49,21.53-5.48,1.23-14.24-19.07-14.61-28.3-5.48-16.61,5.84v-5.84l8.61-2.19-8.61-8.04v-29.58l17.22,11.32,23.99.73,21.53-5.48,1.23-13.88-19.07-14.98h4.92l11.07,6.21,13.53-4.75v-1.46h3.08l2.46,12.78,9.23,2.19,13.53-7.67-1.23-7.3h12.92l-4.92,1.83-2.46,16.44,23.99,15.34,23.99.73,21.53-5.48,1.23-13.88-19.07-14.98Zm-19.68,34.33h-6.77l-8,5.48-3.69,13.51,11.69,6.57,13.53-5.48,3.69-16.8-10.46-3.29Zm-113.8,0h-6.77l-8,5.48-3.08,13.51,11.07,6.57,13.53-5.48,3.69-16.8-10.46-3.29Zm38.75,3.29l-15.99-2.56-9.84,8.77v17.53l22.76,12.05,13.53-4.75,1.85-16.8-12.3-14.24Zm57.82,22.28l-9.84-9.86-4.92,8.04,3.69,4.75,11.07-2.92Zm-32.6-6.57l-5.54.73-6.15,13.51,2.46,12.78,9.23,1.83,13.53-7.3-2.46-15.71-11.07-5.84Z"/>
      <polygon class="cls-3" points="298.95 111.86 343.24 111.86 362.31 126.83 361.08 140.71 339.55 146.19 315.56 145.46 291.57 130.12 294.03 113.68 298.95 111.86"/>
      <polygon class="cls-3" points="262.04 111.86 286.03 111.86 287.26 119.16 273.73 126.83 264.5 124.64 262.04 111.86"/>
      <polygon class="cls-10" points="234.36 111.86 258.97 111.86 258.97 113.32 245.43 118.07 234.36 111.86"/>
      <polygon class="cls-10" points="185.77 111.86 229.44 111.86 248.51 126.83 247.28 140.71 225.75 146.19 201.76 145.46 184.54 134.14 184.54 112.22 185.77 111.86"/>
      <polygon class="cls-10" points="163.01 111.86 179 111.86 179 116.24 174.08 117.7 163.01 111.86"/>
      <path class="cls-11" d="m89.04,161.41l15.53-3.9,5.54-11.32-5.54-11.69-15.99-3.29-14.76,4.02-6.77,10.96,5.54,10.59,15.99,4.02.46.61Zm69.05-49.55h4.92l11.07,5.84,4.92-1.46v34.7l-1.85-1.46-15.99-2.56-9.84,8.77v17.53l22.76,12.05,4.92-1.83v34.7h-.62l-1.23-1.1-15.99-2.92-4.31,4.02h-8v-1.1l-9.84-3.65h-7.38l-6.15,4.75h-17.22l1.85-4.75-5.54-11.32-15.99-3.29-14.76,4.02-6.77,10.59,2.46,4.75h-4.92l-.62-1.1-15.99-2.92-4.92,4.02h-8v-1.1l-9.84-3.65v-.24l15.99.24,21.53-5.11,1.23-14.24-19.68-14.98-28.3-5.48-15.99,5.84v-5.84l8-1.83-8-8.04v-29.58l17.22,11.32,23.99.73,21.53-5.48,1.23-14.24-19.07-14.61h4.31l11.07,5.84,13.53-4.75.61-1.1h3.08l2.46,12.78,8.61,1.83,13.53-7.3-.62-7.3h12.92l-4.92,1.83-2.46,16.07,23.99,15.71,23.37.73,21.53-5.48,1.23-14.24-19.07-14.61Zm-19.07,34.33h-7.38l-7.38,5.11-3.69,13.51,11.07,6.94,14.15-5.48,3.08-16.8-9.84-3.29Zm-113.8,0h-6.77l-8,5.11-3.69,13.51,11.69,6.94,13.53-5.48,3.08-16.8-9.84-3.29Zm38.75,3.29l-15.99-2.56-10.46,8.77v17.53l22.76,12.05,13.53-4.75,2.46-16.8-12.3-14.24Zm57.82,22.28l-10.46-10.23-4.31,8.04,3.08,4.75,11.69-2.56Zm-33.22-6.94l-5.54.73-5.54,13.51,2.46,12.78,8.61,2.19,13.53-7.3-1.85-15.71-11.69-6.21Zm41.21,8.77l-20.3,7.67-2.46,16.07,23.99,15.71,23.37.37,21.53-5.11,1.23-14.24-19.07-14.98-28.3-5.48Z"/>
      <polygon class="cls-1" points="114.41 111.86 158.09 111.86 177.15 126.47 175.92 140.71 154.4 146.19 131.02 145.46 107.03 129.76 109.49 113.68 114.41 111.86"/>
      <polygon class="cls-10" points="77.51 111.86 101.49 111.86 102.11 119.16 88.58 126.47 79.97 124.64 77.51 111.86"/>
      <polygon class="cls-10" points="49.21 111.86 74.43 111.86 73.81 112.95 60.28 117.7 49.21 111.86"/>
      <polygon class="cls-5" points=".62 111.86 44.9 111.86 63.97 126.47 62.74 140.71 41.21 146.19 17.22 145.46 0 134.14 0 112.22 .62 111.86"/>
      <polygon class="cls-5" points="73.81 135.23 88.58 131.22 104.57 134.5 110.11 146.19 104.57 157.51 89.04 161.41 88.58 160.8 72.58 156.78 67.05 146.19 73.81 135.23"/>
      <polygon class="cls-10" points="258.97 135.6 273.73 131.22 289.72 134.87 295.26 146.19 289.72 157.51 274.19 161.78 273.73 161.17 257.74 157.15 252.2 146.19 258.97 135.6"/>
      <polygon class="cls-3" points="316.79 146.19 323.55 146.19 334.01 149.48 330.32 166.28 316.79 171.76 305.1 165.18 308.79 151.67 316.79 146.19"/>
      <polygon class="cls-3" points="202.99 146.19 209.76 146.19 220.21 149.48 216.52 166.28 202.99 171.76 191.92 165.18 194.99 151.67 202.99 146.19"/>
      <polygon class="cls-1" points="131.64 146.19 139.02 146.19 148.86 149.48 145.78 166.28 131.64 171.76 120.56 164.82 124.25 151.31 131.64 146.19"/>
      <polygon class="cls-1" points="18.45 146.19 25.22 146.19 35.06 149.48 31.99 166.28 18.45 171.76 6.77 164.82 10.46 151.31 18.45 146.19"/>
      <polygon class="cls-14" points="47.98 146.92 63.97 149.48 76.27 163.72 73.81 180.52 60.28 185.27 37.52 173.22 37.52 155.69 47.98 146.92"/>
      <polygon class="cls-10" points="161.16 146.92 177.15 149.48 179 150.94 179 183.45 174.08 185.27 151.32 173.22 151.32 155.69 161.16 146.92"/>
      <polygon class="cls-10" points="232.52 146.92 248.51 149.48 260.81 163.72 258.97 180.52 245.43 185.27 222.67 173.22 222.67 155.69 232.52 146.92"/>
      <polygon class="cls-3" points="346.31 146.92 362.31 149.48 363.54 151.31 363.54 183.81 358.62 185.27 335.86 173.22 335.86 155.69 346.31 146.92"/>
      <polygon class="cls-3" points="296.49 161.9 306.33 171.76 295.26 174.68 291.57 169.93 296.49 161.9"/>
      <polygon class="cls-5" points="0 163.72 8 171.76 0 173.59 0 163.72"/>
      <polygon class="cls-10" points="83.04 165.55 88.58 164.82 100.26 171.03 102.11 186.73 88.58 194.04 79.97 191.85 77.51 179.06 83.04 165.55"/>
      <polygon class="cls-3" points="268.19 165.92 273.73 165.18 284.8 171.03 287.26 186.73 273.73 194.04 264.5 192.21 262.04 179.43 268.19 165.92"/>
      <polygon class="cls-10" points="0 179.43 15.99 173.59 44.29 179.06 63.97 194.04 62.74 208.28 41.21 213.4 25.22 213.15 17.22 213.03 0 201.71 0 179.43"/>
      <polygon class="cls-5" points="109.49 181.26 129.79 173.59 158.09 179.06 177.15 194.04 175.92 208.28 154.4 213.4 131.02 213.03 107.03 197.33 109.49 181.26"/>
      <polygon class="cls-10" points="184.54 179.79 201.14 173.95 229.44 179.43 248.51 194.04 247.28 208.28 225.75 213.76 209.81 213.28 201.76 213.03 184.54 201.71 184.54 179.79"/>
      <polygon class="cls-10" points="294.03 181.26 314.33 173.95 342.62 179.43 362.31 194.04 361.08 208.28 339.55 213.76 323.61 213.28 315.56 213.03 291.57 197.33 294.03 181.26"/>
      <polygon class="cls-11" points="362.31 194.04 363.54 194.04 363.54 218.15 362.31 217.05 346.31 214.49 342.01 218.15 333.4 218.15 334.01 217.05 323.55 213.76 323.61 213.28 339.55 213.76 361.08 208.28 362.31 194.04"/>
      <polygon class="cls-5" points="73.81 202.8 88.58 198.79 104.57 202.07 110.11 213.4 108.26 218.15 69.51 218.15 67.05 213.4 73.81 202.8"/>
      <polygon class="cls-3" points="258.97 202.8 273.73 198.79 289.72 202.07 295.26 213.76 292.8 218.15 254.66 218.15 252.2 213.76 258.97 202.8"/>
      <polygon class="cls-10" points="131.64 213.4 139.02 213.4 148.86 217.05 148.86 218.15 125.48 218.15 131.64 213.4"/>
      <polygon class="cls-1" points="18.45 213.4 25.22 213.4 35.06 217.05 35.06 218.15 11.69 218.15 18.45 213.4"/>
      <polygon class="cls-3" points="316.79 213.76 323.55 213.76 334.01 217.05 333.4 218.15 310.02 218.15 316.79 213.76"/>
      <polygon class="cls-3" points="202.99 213.76 209.76 213.76 220.21 217.05 220.21 218.15 196.22 218.15 202.99 213.76"/>
      <polygon class="cls-10" points="47.98 214.13 63.97 217.05 64.59 218.15 43.06 218.15 47.98 214.13"/>
      <polygon class="cls-10" points="161.16 214.13 177.15 217.05 178.39 218.15 156.86 218.15 161.16 214.13"/>
      <polygon class="cls-3" points="232.52 214.49 248.51 217.05 249.74 218.15 228.21 218.15 232.52 214.49"/>
      <polygon class="cls-3" points="346.31 214.49 362.31 217.05 363.54 218.15 342.01 218.15 346.31 214.49"/>
    </g>
    <g>
      <polygon class="cls-11" points="347.54 0 363.54 0 363.54 4.38 358.62 6.21 347.54 0"/>
      <path class="cls-11" d="m274.19,49.92l15.53-4.26,5.54-11.32-5.54-11.32-15.99-3.65-14.76,4.38-6.77,10.59,5.54,10.96,15.99,4.02.46.61ZM343.24,0h4.31l11.07,6.21,4.92-1.83v35.06l-1.23-1.83-15.99-2.56-10.46,8.77v17.53l22.76,12.05,4.92-1.46v10.23h-1.23l-19.68-14.61-28.3-5.48-20.3,7.3-2.46,16.07,23.99,15.71,8.05.24-.05.49h-6.77l-6.77,4.38h-17.22l2.46-4.38-5.54-11.69-15.99-3.29-14.76,4.02-6.77,10.96,2.46,4.38h-4.92l-1.23-1.1-15.99-2.56-4.31,3.65h-8v-1.1l-10.46-3.29.05-.49,15.94.49,21.53-5.48,1.23-14.24-19.07-14.61-28.3-5.48-16.61,5.84v-5.84l8.61-2.19-8.61-8.04v-29.58l17.22,11.32,23.99.73,21.53-5.48,1.23-13.88L229.44,0h4.92l11.07,6.21,13.53-4.75V0h3.08l2.46,12.78,9.23,2.19,13.53-7.67-1.23-7.3h12.92l-4.92,1.83-2.46,16.44,23.99,15.34,23.99.73,21.53-5.48,1.23-13.88-19.07-14.98Zm-19.68,34.33h-6.77l-8,5.48-3.69,13.51,11.69,6.57,13.53-5.48,3.69-16.8-10.46-3.29Zm-113.8,0h-6.77l-8,5.48-3.08,13.51,11.07,6.57,13.53-5.48,3.69-16.8-10.46-3.29Zm38.75,3.29l-15.99-2.56-9.84,8.77v17.53l22.76,12.05,13.53-4.75,1.85-16.8-12.3-14.24Zm57.82,22.28l-9.84-9.86-4.92,8.04,3.69,4.75,11.07-2.92Zm-32.6-6.57l-5.54.73-6.15,13.51,2.46,12.78,9.23,1.83,13.53-7.3-2.46-15.71-11.07-5.84Z"/>
      <polygon class="cls-3" points="298.95 0 343.24 0 362.31 14.98 361.08 28.85 339.55 34.33 315.56 33.6 291.57 18.26 294.03 1.83 298.95 0"/>
      <polygon class="cls-3" points="262.04 0 286.03 0 287.26 7.3 273.73 14.98 264.5 12.78 262.04 0"/>
      <polygon class="cls-10" points="234.36 0 258.97 0 258.97 1.46 245.43 6.21 234.36 0"/>
      <polygon class="cls-10" points="185.77 0 229.44 0 248.51 14.98 247.28 28.85 225.75 34.33 201.76 33.6 184.54 22.28 184.54 .37 185.77 0"/>
      <polygon class="cls-10" points="163.01 0 179 0 179 4.38 174.08 5.84 163.01 0"/>
      <path class="cls-11" d="m89.04,49.55l15.53-3.9,5.54-11.32-5.54-11.69-15.99-3.29-14.76,4.02-6.77,10.96,5.54,10.59,15.99,4.02.46.61ZM158.09,0h4.92l11.07,5.84,4.92-1.46v34.7l-1.85-1.46-15.99-2.56-9.84,8.77v17.53l22.76,12.05,4.92-1.83v34.7h-.62l-1.23-1.1-15.99-2.92-4.31,4.02h-8v-1.1l-9.84-3.65h-7.38l-6.15,4.75h-17.22l1.85-4.75-5.54-11.32-15.99-3.29-14.76,4.02-6.77,10.59,2.46,4.75h-4.92l-.62-1.1-15.99-2.92-4.92,4.02h-8v-1.1l-9.84-3.65v-.24l15.99.24,21.53-5.11,1.23-14.24-19.68-14.98-28.3-5.48-15.99,5.84v-5.84l8-1.83L0,51.86v-29.58l17.22,11.32,23.99.73,21.53-5.48,1.23-14.24L44.9,0h4.31l11.07,5.84,13.53-4.75.61-1.1h3.08l2.46,12.78,8.61,1.83,13.53-7.3-.62-7.3h12.92l-4.92,1.83-2.46,16.07,23.99,15.71,23.37.73,21.53-5.48,1.23-14.24L158.09,0Zm-19.07,34.33h-7.38l-7.38,5.11-3.69,13.51,11.07,6.94,14.15-5.48,3.08-16.8-9.84-3.29Zm-113.8,0h-6.77l-8,5.11-3.69,13.51,11.69,6.94,13.53-5.48,3.08-16.8-9.84-3.29Zm38.75,3.29l-15.99-2.56-10.46,8.77v17.53l22.76,12.05,13.53-4.75,2.46-16.8-12.3-14.24Zm57.82,22.28l-10.46-10.23-4.31,8.04,3.08,4.75,11.69-2.56Zm-33.22-6.94l-5.54.73-5.54,13.51,2.46,12.78,8.61,2.19,13.53-7.3-1.85-15.71-11.69-6.21Zm41.21,8.77l-20.3,7.67-2.46,16.07,23.99,15.71,23.37.37,21.53-5.11,1.23-14.24-19.07-14.98-28.3-5.48Z"/>
      <polygon class="cls-1" points="114.41 0 158.09 0 177.15 14.61 175.92 28.85 154.4 34.33 131.02 33.6 107.03 17.9 109.49 1.83 114.41 0"/>
      <polygon class="cls-10" points="77.51 0 101.49 0 102.11 7.3 88.58 14.61 79.97 12.78 77.51 0"/>
      <polygon class="cls-10" points="49.21 0 74.43 0 73.81 1.1 60.28 5.84 49.21 0"/>
      <polygon class="cls-5" points=".62 0 44.9 0 63.97 14.61 62.74 28.85 41.21 34.33 17.22 33.6 0 22.28 0 .37 .62 0"/>
      <polygon class="cls-5" points="73.81 23.38 88.58 19.36 104.57 22.65 110.11 34.33 104.57 45.66 89.04 49.55 88.58 48.94 72.58 44.93 67.05 34.33 73.81 23.38"/>
      <polygon class="cls-10" points="258.97 23.74 273.73 19.36 289.72 23.01 295.26 34.33 289.72 45.66 274.19 49.92 273.73 49.31 257.74 45.29 252.2 34.33 258.97 23.74"/>
      <polygon class="cls-3" points="316.79 34.33 323.55 34.33 334.01 37.62 330.32 54.42 316.79 59.9 305.1 53.33 308.79 39.81 316.79 34.33"/>
      <polygon class="cls-3" points="202.99 34.33 209.76 34.33 220.21 37.62 216.52 54.42 202.99 59.9 191.92 53.33 194.99 39.81 202.99 34.33"/>
      <polygon class="cls-1" points="131.64 34.33 139.02 34.33 148.86 37.62 145.78 54.42 131.64 59.9 120.56 52.96 124.25 39.45 131.64 34.33"/>
      <polygon class="cls-1" points="18.45 34.33 25.22 34.33 35.06 37.62 31.99 54.42 18.45 59.9 6.77 52.96 10.46 39.45 18.45 34.33"/>
      <polygon class="cls-14" points="47.98 35.06 63.97 37.62 76.27 51.86 73.81 68.67 60.28 73.41 37.52 61.36 37.52 43.83 47.98 35.06"/>
      <polygon class="cls-10" points="161.16 35.06 177.15 37.62 179 39.08 179 71.59 174.08 73.41 151.32 61.36 151.32 43.83 161.16 35.06"/>
      <polygon class="cls-10" points="232.52 35.06 248.51 37.62 260.81 51.86 258.97 68.67 245.43 73.41 222.67 61.36 222.67 43.83 232.52 35.06"/>
      <polygon class="cls-3" points="346.31 35.06 362.31 37.62 363.54 39.45 363.54 71.95 358.62 73.41 335.86 61.36 335.86 43.83 346.31 35.06"/>
      <polygon class="cls-3" points="296.49 50.04 306.33 59.9 295.26 62.82 291.57 58.07 296.49 50.04"/>
      <polygon class="cls-5" points="0 51.86 8 59.9 0 61.73 0 51.86"/>
      <polygon class="cls-10" points="83.04 53.69 88.58 52.96 100.26 59.17 102.11 74.88 88.58 82.18 79.97 79.99 77.51 67.21 83.04 53.69"/>
      <polygon class="cls-3" points="268.19 54.06 273.73 53.33 284.8 59.17 287.26 74.88 273.73 82.18 264.5 80.35 262.04 67.57 268.19 54.06"/>
      <polygon class="cls-10" points="0 67.57 15.99 61.73 44.29 67.21 63.97 82.18 62.74 96.42 41.21 101.54 25.22 101.29 17.22 101.17 0 89.85 0 67.57"/>
      <polygon class="cls-5" points="109.49 69.4 129.79 61.73 158.09 67.21 177.15 82.18 175.92 96.42 154.4 101.54 131.02 101.17 107.03 85.47 109.49 69.4"/>
      <polygon class="cls-10" points="184.54 67.94 201.14 62.09 229.44 67.57 248.51 82.18 247.28 96.42 225.75 101.9 209.81 101.42 201.76 101.17 184.54 89.85 184.54 67.94"/>
      <polygon class="cls-10" points="294.03 69.4 314.33 62.09 342.62 67.57 362.31 82.18 361.08 96.42 339.55 101.9 323.61 101.42 315.56 101.17 291.57 85.47 294.03 69.4"/>
      <polygon class="cls-11" points="362.31 82.18 363.54 82.18 363.54 106.29 362.31 105.19 346.31 102.63 342.01 106.29 333.4 106.29 334.01 105.19 323.55 101.9 323.61 101.42 339.55 101.9 361.08 96.42 362.31 82.18"/>
      <polygon class="cls-5" points="73.81 90.95 88.58 86.93 104.57 90.22 110.11 101.54 108.26 106.29 69.51 106.29 67.05 101.54 73.81 90.95"/>
      <polygon class="cls-3" points="258.97 90.95 273.73 86.93 289.72 90.22 295.26 101.9 292.8 106.29 254.66 106.29 252.2 101.9 258.97 90.95"/>
      <polygon class="cls-10" points="131.64 101.54 139.02 101.54 148.86 105.19 148.86 106.29 125.48 106.29 131.64 101.54"/>
      <polygon class="cls-1" points="18.45 101.54 25.22 101.54 35.06 105.19 35.06 106.29 11.69 106.29 18.45 101.54"/>
      <polygon class="cls-3" points="316.79 101.9 323.55 101.9 334.01 105.19 333.4 106.29 310.02 106.29 316.79 101.9"/>
      <polygon class="cls-3" points="202.99 101.9 209.76 101.9 220.21 105.19 220.21 106.29 196.22 106.29 202.99 101.9"/>
      <polygon class="cls-10" points="47.98 102.27 63.97 105.19 64.59 106.29 43.06 106.29 47.98 102.27"/>
      <polygon class="cls-10" points="161.16 102.27 177.15 105.19 178.39 106.29 156.86 106.29 161.16 102.27"/>
      <polygon class="cls-3" points="232.52 102.63 248.51 105.19 249.74 106.29 228.21 106.29 232.52 102.63"/>
      <polygon class="cls-3" points="346.31 102.63 362.31 105.19 363.54 106.29 342.01 106.29 346.31 102.63"/>
    </g>
  </g>
  <g>
    <polygon class="cls-5" points="347.54 486.63 363.54 486.63 363.54 490.65 358.62 492.47 347.54 486.63"/>
    <path class="cls-13" d="m274.19,536.18l15.53-3.9,5.54-11.32-5.54-11.69-15.99-3.29-14.76,4.02-6.77,10.96,5.54,10.59,15.99,4.02.46.61Zm69.05-49.55h4.31l11.07,5.84,4.92-1.83v35.06l-1.23-1.46-15.99-2.92-10.46,8.77v17.53l22.76,12.42,4.92-1.83v10.59h-1.23l-19.68-14.98-28.3-5.48-20.3,7.67-2.46,16.07,23.99,15.34,8.05.24-.05.49h-6.77l-6.77,4.75h-17.22l2.46-4.75-5.54-11.32-15.99-3.29-14.76,4.02-6.77,10.59,2.46,4.75h-4.92l-1.23-1.46-15.99-2.56-4.31,4.02h-8v-1.46l-10.46-3.29.05-.49,15.94.49,21.53-5.48,1.23-13.88-19.07-14.98-28.3-5.48-16.61,5.84v-5.84l8.61-1.83-8.61-8.04v-29.58l17.22,11.32,23.99.73,21.53-5.48,1.23-14.24-19.07-14.61h4.92l11.07,5.84,13.53-4.75v-1.1h3.08l2.46,12.42,9.23,2.19,13.53-7.3-1.23-7.3h12.92l-4.92,1.83-2.46,16.07,23.99,15.71,23.99.73,21.53-5.48,1.23-14.24-19.07-14.61Zm-19.68,34.33h-6.77l-8,5.11-3.69,13.51,11.69,6.94,13.53-5.48,3.69-16.8-10.46-3.29Zm-113.8,0h-6.77l-8,5.11-3.08,13.51,11.07,6.94,13.53-5.48,3.69-16.8-10.46-3.29Zm38.75,3.29l-15.99-2.92-9.84,8.77v17.53l22.76,12.42,13.53-4.75,1.85-16.8-12.3-14.24Zm57.82,22.28l-9.84-10.23-4.92,8.04,3.69,4.75,11.07-2.56Zm-32.6-6.94l-5.54.73-6.15,13.51,2.46,12.78,9.23,2.19,13.53-7.67-2.46-15.34-11.07-6.21Z"/>
    <polygon class="cls-5" points="298.95 486.63 343.24 486.63 362.31 501.24 361.08 515.48 339.55 520.96 315.56 520.23 291.57 504.53 294.03 488.45 298.95 486.63"/>
    <polygon class="cls-5" points="262.04 486.63 286.03 486.63 287.26 493.93 273.73 501.24 264.5 499.05 262.04 486.63"/>
    <polygon class="cls-5" points="234.36 486.63 258.97 486.63 258.97 487.72 245.43 492.47 234.36 486.63"/>
    <polygon class="cls-5" points="185.77 486.63 229.44 486.63 248.51 501.24 247.28 515.48 225.75 520.96 201.76 520.23 184.54 508.91 184.54 486.99 185.77 486.63"/>
    <polygon class="cls-1" points="163.01 486.63 179 486.63 179 490.65 174.08 492.47 163.01 486.63"/>
    <path class="cls-13" d="m89.04,536.18l15.53-3.9,5.54-11.69-5.54-11.32-15.99-3.29-14.76,4.02-6.77,10.59,5.54,10.96,15.99,4.02.46.61Zm69.05-49.55h4.92l11.07,5.84,4.92-1.83v35.06l-1.85-1.83-15.99-2.56-9.84,8.77v17.53l22.76,12.05,4.92-1.46v34.33h-.61l-1.23-1.1-15.99-2.56-4.31,3.65h-8v-1.1l-9.84-3.29h-7.38l-6.15,4.38h-17.22l1.85-4.38-5.54-11.69-15.99-3.29-14.76,4.02-6.77,10.96,2.46,4.38h-4.92l-.61-1.1-15.99-2.56-4.92,3.65h-8v-1.1l-9.84-3.29.05-.49,15.94.49,21.53-5.48,1.23-14.24-19.68-14.61-28.3-5.48-15.99,5.84v-5.84l8-2.19-8-8.04v-29.22l17.22,10.96,23.99.73,21.53-5.48,1.23-13.88-19.07-14.61h4.31l11.07,5.84,13.53-4.75.62-1.1h3.08l2.46,12.42,8.61,2.19,13.53-7.67-.61-6.94h12.92l-4.92,1.83-2.46,16.07,23.99,15.34,23.37.73,21.53-5.48,1.23-13.88-19.07-14.61Zm-19.07,33.97h-7.38l-7.38,5.48-3.69,13.51,11.07,6.57,14.15-5.11,3.08-17.17-9.84-3.29Zm-113.8,0h-6.77l-8,5.48-3.69,13.51,11.69,6.57,13.53-5.11,3.08-17.17-9.84-3.29Zm38.75,3.29l-15.99-2.56-10.46,8.77v17.53l22.76,12.05,13.53-4.75,2.46-16.8-12.3-14.24Zm57.82,22.28l-10.46-9.86-4.31,8.04,3.08,4.75,11.69-2.92Zm-33.22-6.57l-5.54.73-5.54,13.51,2.46,12.78,8.61,1.83,13.53-7.3-1.85-15.34-11.69-6.21Zm41.21,8.77l-20.3,7.3-2.46,16.44,23.99,15.34,23.37.73,21.53-5.48,1.23-14.24-19.07-14.61-28.3-5.48Z"/>
    <polygon class="cls-5" points="114.41 486.63 158.09 486.63 177.15 501.24 175.92 515.12 154.4 520.6 131.02 519.87 107.03 504.53 109.49 488.45 114.41 486.63"/>
    <polygon class="cls-1" points="77.51 486.63 101.49 486.63 102.11 493.57 88.58 501.24 79.97 499.05 77.51 486.63"/>
    <polygon class="cls-1" points="49.21 486.63 74.43 486.63 73.81 487.72 60.28 492.47 49.21 486.63"/>
    <polygon class="cls-5" points=".61 486.63 44.9 486.63 63.97 501.24 62.74 515.12 41.21 520.6 17.22 519.87 0 508.91 0 486.63 .61 486.63"/>
    <polygon class="cls-1" points="73.81 510 88.58 505.99 104.57 509.27 110.11 520.6 104.57 532.28 89.04 536.18 88.58 535.57 72.58 531.55 67.05 520.6 73.81 510"/>
    <polygon class="cls-8" points="258.97 510 273.73 505.99 289.72 509.27 295.26 520.96 289.72 532.28 274.19 536.18 273.73 535.57 257.74 531.55 252.2 520.96 258.97 510"/>
    <polygon class="cls-5" points="131.64 520.6 139.02 520.6 148.86 523.88 145.78 541.05 131.64 546.16 120.56 539.59 124.25 526.08 131.64 520.6"/>
    <polygon class="cls-9" points="18.45 520.6 25.22 520.6 35.06 523.88 31.99 541.05 18.45 546.16 6.77 539.59 10.46 526.08 18.45 520.6"/>
    <polygon class="cls-8" points="316.79 520.96 323.55 520.96 334.01 524.25 330.32 541.05 316.79 546.53 305.1 539.59 308.79 526.08 316.79 520.96"/>
    <polygon class="cls-5" points="202.99 520.96 209.76 520.96 220.21 524.25 216.52 541.05 202.99 546.53 191.92 539.59 194.99 526.08 202.99 520.96"/>
    <polygon class="cls-5" points="47.98 521.33 63.97 523.88 76.27 538.13 73.81 554.93 60.28 559.68 37.52 547.62 37.52 530.09 47.98 521.33"/>
    <polygon class="cls-5" points="161.16 521.33 177.15 523.88 179 525.71 179 558.22 174.08 559.68 151.32 547.62 151.32 530.09 161.16 521.33"/>
    <polygon class="cls-9" points="232.52 521.33 248.51 524.25 260.81 538.49 258.97 555.29 245.43 560.04 222.67 547.62 222.67 530.09 232.52 521.33"/>
    <polygon class="cls-9" points="346.31 521.33 362.31 524.25 363.54 525.71 363.54 558.22 358.62 560.04 335.86 547.62 335.86 530.09 346.31 521.33"/>
    <polygon class="cls-5" points="111.34 536.3 121.79 546.16 110.11 549.09 107.03 544.34 111.34 536.3"/>
    <polygon class="cls-5" points="296.49 536.3 306.33 546.53 295.26 549.09 291.57 544.34 296.49 536.3"/>
    <polygon class="cls-1" points="0 538.13 8 546.16 0 548.36 0 538.13"/>
    <polygon class="cls-5" points="184.54 538.49 193.15 546.53 184.54 548.36 184.54 538.49"/>
    <polygon class="cls-1" points="83.04 540.32 88.58 539.59 100.26 545.8 102.11 561.14 88.58 568.44 79.97 566.62 77.51 553.83 83.04 540.32"/>
    <polygon class="cls-5" points="268.19 540.32 273.73 539.59 284.8 545.8 287.26 561.14 273.73 568.81 264.5 566.62 262.04 553.83 268.19 540.32"/>
    <polygon class="cls-5" points="0 554.2 15.99 548.36 44.29 553.83 63.97 568.44 62.74 582.69 41.21 588.17 25.27 587.68 17.22 587.44 0 576.11 0 554.2"/>
    <polygon class="cls-9" points="109.49 555.66 129.79 548.36 158.09 553.83 177.15 568.44 175.92 582.69 154.4 588.17 131.02 587.44 107.03 572.1 109.49 555.66"/>
    <polygon class="cls-3" points="184.54 554.2 201.14 548.36 229.44 553.83 248.51 568.81 247.28 582.69 225.75 588.17 209.81 587.68 201.76 587.44 184.54 576.48 184.54 554.2"/>
    <polygon class="cls-8" points="294.03 556.03 314.33 548.36 342.62 553.83 362.31 568.81 361.08 582.69 339.55 588.17 323.6 587.68 315.56 587.44 291.57 572.1 294.03 556.03"/>
    <polygon class="cls-13" points="362.31 568.81 363.54 568.81 363.54 592.92 362.31 591.45 346.31 588.9 342.01 592.92 333.4 592.92 334.01 591.45 323.55 588.17 323.6 587.68 339.55 588.17 361.08 582.69 362.31 568.81"/>
    <polygon class="cls-5" points="73.81 577.21 88.58 573.19 104.57 576.48 110.11 588.17 108.26 592.55 69.51 592.55 67.05 588.17 73.81 577.21"/>
    <polygon class="cls-5" points="258.97 577.57 273.73 573.56 289.72 576.84 295.26 588.17 292.8 592.92 254.66 592.92 252.2 588.17 258.97 577.57"/>
    <polygon class="cls-5" points="184.54 576.48 201.76 587.44 209.81 587.68 209.76 588.17 202.99 588.17 196.22 592.92 184.54 592.92 184.54 576.48"/>
    <polygon class="cls-5" points="316.79 588.17 323.55 588.17 334.01 591.45 333.4 592.92 310.02 592.92 316.79 588.17"/>
    <polygon class="cls-5" points="202.99 588.17 209.76 588.17 220.21 591.45 220.21 592.92 196.22 592.92 202.99 588.17"/>
    <polygon class="cls-5" points="131.64 588.17 139.02 588.17 148.86 591.45 148.86 592.55 125.48 592.55 131.64 588.17"/>
    <polygon class="cls-1" points="18.45 588.17 25.22 588.17 35.06 591.45 35.06 592.55 11.69 592.55 18.45 588.17"/>
    <polygon class="cls-1" points="47.98 588.9 63.97 591.45 64.59 592.55 43.06 592.55 47.98 588.9"/>
    <polygon class="cls-5" points="161.16 588.9 177.15 591.45 178.39 592.55 156.86 592.55 161.16 588.9"/>
    <polygon class="cls-5" points="232.52 588.9 248.51 591.45 249.74 592.92 228.21 592.92 232.52 588.9"/>
    <polygon class="cls-5" points="346.31 588.9 362.31 591.45 363.54 592.92 342.01 592.92 346.31 588.9"/>
    <polygon class="cls-13" points="347.54 596.2 363.54 596.2 363.54 600.59 358.62 602.41 347.54 596.2"/>
    <path class="cls-13" d="m274.19,646.12l15.53-4.26,5.54-11.32-5.54-11.32-15.99-3.65-14.76,4.38-6.77,10.59,5.54,10.96,15.99,4.02.46.61Zm69.05-49.92h4.31l11.07,6.21,4.92-1.83v35.06l-1.23-1.83-15.99-2.56-10.46,8.77v17.53l22.76,12.05,4.92-1.46v10.23h-1.23l-19.68-14.61-28.3-5.48-20.3,7.3-2.46,16.07,23.99,15.71,8.05.24-.05.49h-6.77l-6.77,4.38h-17.22l2.46-4.38-5.54-11.69-15.99-3.29-14.76,4.02-6.77,10.96,2.46,4.38h-4.92l-1.23-1.1-15.99-2.56-4.31,3.65h-8v-1.1l-10.46-3.29.05-.49,15.94.49,21.53-5.48,1.23-14.24-19.07-14.61-28.3-5.48-16.61,5.84v-5.84l8.61-2.19-8.61-8.04v-29.58l17.22,11.32,23.99.73,21.53-5.48,1.23-13.88-19.07-14.98h4.92l11.07,6.21,13.53-4.75v-1.46h3.08l2.46,12.78,9.23,2.19,13.53-7.67-1.23-7.3h12.92l-4.92,1.83-2.46,16.44,23.99,15.34,23.99.73,21.53-5.48,1.23-13.88-19.07-14.98Zm-19.68,34.33h-6.77l-8,5.48-3.69,13.51,11.69,6.57,13.53-5.48,3.69-16.8-10.46-3.29Zm-113.8,0h-6.77l-8,5.48-3.08,13.51,11.07,6.57,13.53-5.48,3.69-16.8-10.46-3.29Zm38.75,3.29l-15.99-2.56-9.84,8.77v17.53l22.76,12.05,13.53-4.75,1.85-16.8-12.3-14.24Zm57.82,22.28l-9.84-9.86-4.92,8.04,3.69,4.75,11.07-2.92Zm-32.6-6.57l-5.54.73-6.15,13.51,2.46,12.78,9.23,1.83,13.53-7.3-2.46-15.71-11.07-5.84Z"/>
    <polygon class="cls-11" points="298.95 596.2 343.24 596.2 362.31 611.18 361.08 625.06 339.55 630.54 315.56 629.81 291.57 614.46 294.03 598.03 298.95 596.2"/>
    <polygon class="cls-11" points="262.04 596.2 286.03 596.2 287.26 603.51 273.73 611.18 264.5 608.99 262.04 596.2"/>
    <polygon class="cls-14" points="234.36 596.2 258.97 596.2 258.97 597.66 245.43 602.41 234.36 596.2"/>
    <polygon class="cls-14" points="185.77 596.2 229.44 596.2 248.51 611.18 247.28 625.06 225.75 630.54 201.76 629.81 184.54 618.48 184.54 596.57 185.77 596.2"/>
    <polygon class="cls-14" points="163.01 596.2 179 596.2 179 600.59 174.08 602.05 163.01 596.2"/>
    <path class="cls-13" d="m89.04,645.75l15.53-3.9,5.54-11.32-5.54-11.69-15.99-3.29-14.76,4.02-6.77,10.96,5.54,10.59,15.99,4.02.46.61Zm69.05-49.55h4.92l11.07,5.84,4.92-1.46v34.7l-1.85-1.46-15.99-2.56-9.84,8.77v17.53l22.76,12.05,4.92-1.83v34.7h-.61l-1.23-1.1-15.99-2.92-4.31,4.02h-8v-1.1l-9.84-3.65h-7.38l-6.15,4.75h-17.22l1.85-4.75-5.54-11.32-15.99-3.29-14.76,4.02-6.77,10.59,2.46,4.75h-4.92l-.61-1.1-15.99-2.92-4.92,4.02h-8v-1.1l-9.84-3.65v-.24l15.99.24,21.53-5.11,1.23-14.24-19.68-14.98-28.3-5.48-15.99,5.84v-5.84l8-1.83-8-8.04v-29.58l17.22,11.32,23.99.73,21.53-5.48,1.23-14.24-19.07-14.61h4.31l11.07,5.84,13.53-4.75.62-1.1h3.08l2.46,12.78,8.61,1.83,13.53-7.3-.61-7.3h12.92l-4.92,1.83-2.46,16.07,23.99,15.71,23.37.73,21.53-5.48,1.23-14.24-19.07-14.61Zm-19.07,34.33h-7.38l-7.38,5.11-3.69,13.51,11.07,6.94,14.15-5.48,3.08-16.8-9.84-3.29Zm-113.8,0h-6.77l-8,5.11-3.69,13.51,11.69,6.94,13.53-5.48,3.08-16.8-9.84-3.29Zm38.75,3.29l-15.99-2.56-10.46,8.77v17.53l22.76,12.05,13.53-4.75,2.46-16.8-12.3-14.24Zm57.82,22.28l-10.46-10.23-4.31,8.04,3.08,4.75,11.69-2.56Zm-33.22-6.94l-5.54.73-5.54,13.51,2.46,12.78,8.61,2.19,13.53-7.3-1.85-15.71-11.69-6.21Zm41.21,8.77l-20.3,7.67-2.46,16.07,23.99,15.71,23.37.37,21.53-5.11,1.23-14.24-19.07-14.98-28.3-5.48Z"/>
    <polygon class="cls-2" points="114.41 596.2 158.09 596.2 177.15 610.81 175.92 625.06 154.4 630.54 131.02 629.81 107.03 614.1 109.49 598.03 114.41 596.2"/>
    <polygon class="cls-14" points="77.51 596.2 101.49 596.2 102.11 603.51 88.58 610.81 79.97 608.99 77.51 596.2"/>
    <polygon class="cls-14" points="49.21 596.2 74.43 596.2 73.81 597.3 60.28 602.05 49.21 596.2"/>
    <polygon class="cls-1" points=".61 596.2 44.9 596.2 63.97 610.81 62.74 625.06 41.21 630.54 17.22 629.81 0 618.48 0 596.57 .61 596.2"/>
    <polygon class="cls-1" points="73.81 619.58 88.58 615.56 104.57 618.85 110.11 630.54 104.57 641.86 89.04 645.75 88.58 645.15 72.58 641.13 67.05 630.54 73.81 619.58"/>
    <polygon class="cls-14" points="258.97 619.94 273.73 615.56 289.72 619.21 295.26 630.54 289.72 641.86 274.19 646.12 273.73 645.51 257.74 641.49 252.2 630.54 258.97 619.94"/>
    <polygon class="cls-11" points="316.79 630.54 323.55 630.54 334.01 633.82 330.32 650.62 316.79 656.1 305.1 649.53 308.79 636.01 316.79 630.54"/>
    <polygon class="cls-11" points="202.99 630.54 209.76 630.54 220.21 633.82 216.52 650.62 202.99 656.1 191.92 649.53 194.99 636.01 202.99 630.54"/>
    <polygon class="cls-2" points="131.64 630.54 139.02 630.54 148.86 633.82 145.78 650.62 131.64 656.1 120.56 649.16 124.25 635.65 131.64 630.54"/>
    <polygon class="cls-2" points="18.45 630.54 25.22 630.54 35.06 633.82 31.99 650.62 18.45 656.1 6.77 649.16 10.46 635.65 18.45 630.54"/>
    <polygon class="cls-10" points="47.98 631.27 63.97 633.82 76.27 648.07 73.81 664.87 60.28 669.62 37.52 657.56 37.52 640.03 47.98 631.27"/>
    <polygon class="cls-14" points="161.16 631.27 177.15 633.82 179 635.28 179 667.79 174.08 669.62 151.32 657.56 151.32 640.03 161.16 631.27"/>
    <polygon class="cls-14" points="232.52 631.27 248.51 633.82 260.81 648.07 258.97 664.87 245.43 669.62 222.67 657.56 222.67 640.03 232.52 631.27"/>
    <polygon class="cls-11" points="346.31 631.27 362.31 633.82 363.54 635.65 363.54 668.16 358.62 669.62 335.86 657.56 335.86 640.03 346.31 631.27"/>
    <polygon class="cls-11" points="296.49 646.24 306.33 656.1 295.26 659.02 291.57 654.28 296.49 646.24"/>
    <polygon class="cls-1" points="0 648.07 8 656.1 0 657.93 0 648.07"/>
    <polygon class="cls-14" points="83.04 649.89 88.58 649.16 100.26 655.37 102.11 671.08 88.58 678.38 79.97 676.19 77.51 663.41 83.04 649.89"/>
    <polygon class="cls-11" points="268.19 650.26 273.73 649.53 284.8 655.37 287.26 671.08 273.73 678.38 264.5 676.56 262.04 663.77 268.19 650.26"/>
    <polygon class="cls-14" points="0 663.77 15.99 657.93 44.29 663.41 63.97 678.38 62.74 692.63 41.21 697.74 25.22 697.5 17.22 697.38 0 686.05 0 663.77"/>
    <polygon class="cls-1" points="109.49 665.6 129.79 657.93 158.09 663.41 177.15 678.38 175.92 692.63 154.4 697.74 131.02 697.38 107.03 681.67 109.49 665.6"/>
    <polygon class="cls-14" points="184.54 664.14 201.14 658.29 229.44 663.77 248.51 678.38 247.28 692.63 225.75 698.11 209.81 697.62 201.76 697.38 184.54 686.05 184.54 664.14"/>
    <polygon class="cls-14" points="294.03 665.6 314.33 658.29 342.62 663.77 362.31 678.38 361.08 692.63 339.55 698.11 323.6 697.62 315.56 697.38 291.57 681.67 294.03 665.6"/>
    <polygon class="cls-13" points="362.31 678.38 363.54 678.38 363.54 702.49 362.31 701.39 346.31 698.84 342.01 702.49 333.4 702.49 334.01 701.39 323.55 698.11 323.6 697.62 339.55 698.11 361.08 692.63 362.31 678.38"/>
    <polygon class="cls-1" points="73.81 687.15 88.58 683.13 104.57 686.42 110.11 697.74 108.26 702.49 69.51 702.49 67.05 697.74 73.81 687.15"/>
    <polygon class="cls-11" points="258.97 687.15 273.73 683.13 289.72 686.42 295.26 698.11 292.8 702.49 254.66 702.49 252.2 698.11 258.97 687.15"/>
    <polygon class="cls-14" points="131.64 697.74 139.02 697.74 148.86 701.39 148.86 702.49 125.48 702.49 131.64 697.74"/>
    <polygon class="cls-2" points="18.45 697.74 25.22 697.74 35.06 701.39 35.06 702.49 11.69 702.49 18.45 697.74"/>
    <polygon class="cls-11" points="316.79 698.11 323.55 698.11 334.01 701.39 333.4 702.49 310.02 702.49 316.79 698.11"/>
    <polygon class="cls-11" points="202.99 698.11 209.76 698.11 220.21 701.39 220.21 702.49 196.22 702.49 202.99 698.11"/>
    <polygon class="cls-14" points="47.98 698.47 63.97 701.39 64.59 702.49 43.06 702.49 47.98 698.47"/>
    <polygon class="cls-14" points="161.16 698.47 177.15 701.39 178.39 702.49 156.86 702.49 161.16 698.47"/>
    <polygon class="cls-11" points="232.52 698.84 248.51 701.39 249.74 702.49 228.21 702.49 232.52 698.84"/>
    <polygon class="cls-11" points="346.31 698.84 362.31 701.39 363.54 702.49 342.01 702.49 346.31 698.84"/>
  </g>
  <g>
    <g>
      <rect class="cls-7" x="176.81" y="245.22" width=".66" height="1.02"/>
      <polygon class="cls-7" points="146.67 246.24 176.81 246.24 176.81 245.22 116.52 245.22 116.52 246.24 146.67 246.24"/>
      <polygon class="cls-4" points="86.38 246.24 116.52 246.24 116.52 245.22 56.24 245.22 56.24 246.24 86.38 246.24"/>
      <polygon class="cls-9" points="56.24 246.24 56.24 245.22 .92 245.22 .92 246.24 25.49 246.24 56.24 246.24"/>
      <rect class="cls-6" x="176.81" y="318.19" width=".66" height="32.22"/>
      <rect class="cls-15" x="176.81" y="246.24" width=".66" height="36.16"/>
      <polygon class="cls-4" points="146.67 282.4 146.67 318.19 176.81 318.19 177.46 318.19 177.46 282.4 176.81 282.4 146.67 282.4"/>
      <polygon class="cls-6" points="146.67 318.19 116.52 318.19 116.52 350.41 176.81 350.41 176.81 318.19 146.67 318.19"/>
      <polygon class="cls-9" points="116.52 246.24 116.52 282.4 146.67 282.4 176.81 282.4 176.81 246.24 146.67 246.24 116.52 246.24"/>
      <polygon class="cls-12" points="86.38 282.4 86.38 318.19 116.52 318.19 146.67 318.19 146.67 282.4 116.52 282.4 86.38 282.4"/>
      <polygon class="cls-7" points="86.38 318.19 56.24 318.19 56.24 350.41 116.52 350.41 116.52 318.19 86.38 318.19"/>
      <polygon class="cls-7" points="116.52 282.4 116.52 246.24 86.38 246.24 56.24 246.24 56.24 282.4 86.38 282.4 116.52 282.4"/>
      <polygon class="cls-9" points="56.24 282.4 25.49 282.4 25.49 318.19 56.24 318.19 86.38 318.19 86.38 282.4 56.24 282.4"/>
      <polygon class="cls-7" points="25.49 318.19 .92 318.19 .92 350.41 56.24 350.41 56.24 318.19 25.49 318.19"/>
      <polygon class="cls-9" points="56.24 282.4 56.24 246.24 25.49 246.24 .92 246.24 .92 282.4 25.49 282.4 56.24 282.4"/>
      <rect class="cls-6" x=".92" y="282.4" width="24.56" height="35.79"/>
    </g>
    <g>
      <rect class="cls-9" x="361.96" y="245.22" width=".66" height="1.02"/>
      <polygon class="cls-9" points="331.82 246.24 361.96 246.24 361.96 245.22 301.68 245.22 301.68 246.24 331.82 246.24"/>
      <polygon class="cls-4" points="271.53 246.24 301.68 246.24 301.68 245.22 241.39 245.22 241.39 246.24 271.53 246.24"/>
      <polygon class="cls-12" points="241.39 246.24 241.39 245.22 186.07 245.22 186.07 246.24 210.64 246.24 241.39 246.24"/>
      <rect class="cls-7" x="361.96" y="318.19" width=".66" height="32.22"/>
      <rect class="cls-6" x="361.96" y="246.24" width=".66" height="36.16"/>
      <polygon class="cls-4" points="331.82 282.4 331.82 318.19 361.96 318.19 362.61 318.19 362.61 282.4 361.96 282.4 331.82 282.4"/>
      <polygon class="cls-7" points="331.82 318.19 301.68 318.19 301.68 350.41 361.96 350.41 361.96 318.19 331.82 318.19"/>
      <polygon class="cls-12" points="301.68 246.24 301.68 282.4 331.82 282.4 361.96 282.4 361.96 246.24 331.82 246.24 301.68 246.24"/>
      <polygon class="cls-15" points="271.53 282.4 271.53 318.19 301.68 318.19 331.82 318.19 331.82 282.4 301.68 282.4 271.53 282.4"/>
      <polygon class="cls-9" points="271.53 318.19 241.39 318.19 241.39 350.41 301.68 350.41 301.68 318.19 271.53 318.19"/>
      <polygon class="cls-9" points="301.68 282.4 301.68 246.24 271.53 246.24 241.39 246.24 241.39 282.4 271.53 282.4 301.68 282.4"/>
      <polygon class="cls-12" points="241.39 282.4 210.64 282.4 210.64 318.19 241.39 318.19 271.53 318.19 271.53 282.4 241.39 282.4"/>
      <polygon class="cls-9" points="210.64 318.19 186.07 318.19 186.07 350.41 241.39 350.41 241.39 318.19 210.64 318.19"/>
      <polygon class="cls-12" points="241.39 282.4 241.39 246.24 210.64 246.24 186.07 246.24 186.07 282.4 210.64 282.4 241.39 282.4"/>
      <rect class="cls-7" x="186.07" y="282.4" width="24.56" height="35.79"/>
    </g>
    <g>
      <rect class="cls-4" x="176.81" y="354.36" width=".66" height="1.02"/>
      <polygon class="cls-4" points="146.67 355.39 176.81 355.39 176.81 354.36 116.52 354.36 116.52 355.39 146.67 355.39"/>
      <polygon class="cls-12" points="86.38 355.39 116.52 355.39 116.52 354.36 56.24 354.36 56.24 355.39 86.38 355.39"/>
      <polygon class="cls-15" points="56.24 355.39 56.24 354.36 .92 354.36 .92 355.39 25.49 355.39 56.24 355.39"/>
      <rect class="cls-7" x="176.81" y="427.34" width=".66" height="32.22"/>
      <rect class="cls-9" x="176.81" y="355.39" width=".66" height="36.16"/>
      <polygon class="cls-12" points="146.67 391.55 146.67 427.34 176.81 427.34 177.46 427.34 177.46 391.55 176.81 391.55 146.67 391.55"/>
      <polygon class="cls-7" points="146.67 427.34 116.52 427.34 116.52 459.55 176.81 459.55 176.81 427.34 146.67 427.34"/>
      <polygon class="cls-15" points="116.52 355.39 116.52 391.55 146.67 391.55 176.81 391.55 176.81 355.39 146.67 355.39 116.52 355.39"/>
      <polygon class="cls-6" points="86.38 391.55 86.38 427.34 116.52 427.34 146.67 427.34 146.67 391.55 116.52 391.55 86.38 391.55"/>
      <polygon class="cls-4" points="86.38 427.34 56.24 427.34 56.24 459.55 116.52 459.55 116.52 427.34 86.38 427.34"/>
      <polygon class="cls-4" points="116.52 391.55 116.52 355.39 86.38 355.39 56.24 355.39 56.24 391.55 86.38 391.55 116.52 391.55"/>
      <polygon class="cls-15" points="56.24 391.55 25.49 391.55 25.49 427.34 56.24 427.34 86.38 427.34 86.38 391.55 56.24 391.55"/>
      <polygon class="cls-4" points="25.49 427.34 .92 427.34 .92 459.55 56.24 459.55 56.24 427.34 25.49 427.34"/>
      <polygon class="cls-15" points="56.24 391.55 56.24 355.39 25.49 355.39 .92 355.39 .92 391.55 25.49 391.55 56.24 391.55"/>
      <rect class="cls-7" x=".92" y="391.55" width="24.56" height="35.79"/>
    </g>
    <g>
      <rect class="cls-9" x="361.96" y="354.36" width=".66" height="1.02"/>
      <polygon class="cls-9" points="331.82 355.39 361.96 355.39 361.96 354.36 301.68 354.36 301.68 355.39 331.82 355.39"/>
      <polygon class="cls-6" points="271.53 355.39 301.68 355.39 301.68 354.36 241.39 354.36 241.39 355.39 271.53 355.39"/>
      <polygon class="cls-12" points="241.39 355.39 241.39 354.36 186.07 354.36 186.07 355.39 210.64 355.39 241.39 355.39"/>
      <rect class="cls-7" x="361.96" y="427.34" width=".66" height="32.22"/>
      <rect class="cls-4" x="361.96" y="355.39" width=".66" height="36.16"/>
      <polygon class="cls-6" points="331.82 391.55 331.82 427.34 361.96 427.34 362.61 427.34 362.61 391.55 361.96 391.55 331.82 391.55"/>
      <polygon class="cls-7" points="331.82 427.34 301.68 427.34 301.68 459.55 361.96 459.55 361.96 427.34 331.82 427.34"/>
      <polygon class="cls-12" points="301.68 355.39 301.68 391.55 331.82 391.55 361.96 391.55 361.96 355.39 331.82 355.39 301.68 355.39"/>
      <polygon class="cls-15" points="271.53 391.55 271.53 427.34 301.68 427.34 331.82 427.34 331.82 391.55 301.68 391.55 271.53 391.55"/>
      <polygon class="cls-9" points="271.53 427.34 241.39 427.34 241.39 459.55 301.68 459.55 301.68 427.34 271.53 427.34"/>
      <polygon class="cls-9" points="301.68 391.55 301.68 355.39 271.53 355.39 241.39 355.39 241.39 391.55 271.53 391.55 301.68 391.55"/>
      <polygon class="cls-12" points="241.39 391.55 210.64 391.55 210.64 427.34 241.39 427.34 271.53 427.34 271.53 391.55 241.39 391.55"/>
      <polygon class="cls-9" points="210.64 427.34 186.07 427.34 186.07 459.55 241.39 459.55 241.39 427.34 210.64 427.34"/>
      <polygon class="cls-12" points="241.39 391.55 241.39 355.39 210.64 355.39 186.07 355.39 186.07 391.55 210.64 391.55 241.39 391.55"/>
      <rect class="cls-7" x="186.07" y="391.55" width="24.56" height="35.79"/>
    </g>
  </g>
</svg>