<?xml version="1.0" encoding="UTF-8"?>
<svg id="Layer_1" data-name="Layer 1" xmlns="http://www.w3.org/2000/svg" viewBox="0 0 616.66 322.37">
  <defs>
    <style>
      .cls-1, .cls-2 {
        fill: #fafaf8;
      }

      .cls-3, .cls-4 {
        fill: #fff;
      }

      .cls-5 {
        fill: none;
        stroke-linecap: round;
        stroke-linejoin: round;
        stroke-width: .63px;
      }

      .cls-5, .cls-6, .cls-4, .cls-2 {
        stroke: #26281e;
      }

      .cls-6, .cls-4, .cls-2 {
        stroke-miterlimit: 10;
        stroke-width: .87px;
      }

      .cls-6, .cls-7 {
        fill: #26281e;
      }

      .cls-8 {
        fill: #6d6e71;
      }

      .cls-9 {
        fill: #808285;
      }

      .cls-10 {
        fill: #cccdcf;
      }
    </style>
  </defs>
  <g>
    <g>
      <polygon class="cls-2" points="101.17 1.02 101.17 127.28 108.38 127.28 108.38 121.27 108.38 116.07 108.38 1.02 101.17 1.02"/>
      <rect class="cls-4" x=".93" y="1.02" width="100.24" height="126.26"/>
      <path class="cls-6" d="m108.38,127.86c.28,0,.5-.26.5-.59v-6.01c0-.32-.22-.59-.5-.59s-.5.26-.5.59v6.01c0,.32.22.59.5.59Z"/>
      <path class="cls-6" d="m108.38,116.66c.28,0,.5-.26.5-.59V1.02c0-.32-.22-.59-.5-.59s-.5.26-.5.59v115.05c0,.32.22.59.5.59Z"/>
      <path class="cls-6" d="m101.17,127.86c.28,0,.5-.26.5-.59V1.02c0-.32-.22-.59-.5-.59s-.5.26-.5.59v126.26c0,.32.22.59.5.59Z"/>
      <path class="cls-6" d="m.93,127.86c.28,0,.5-.26.5-.59V1.61h106.95c.28,0,.5-.26.5-.59s-.22-.59-.5-.59H.93c-.28,0-.5.26-.5.59v126.26c0,.32.22.59.5.59Z"/>
      <path class="cls-6" d="m108.38,121.85h3.26c.28,0,.5-.26.5-.59s-.22-.59-.5-.59h-3.26c-.28,0-.5.26-.5.59s.22.59.5.59Z"/>
      <path class="cls-6" d="m111.75,121.85c1.24,0,2.24-1.18,2.24-2.64,0-.32-.22-.59-.5-.59s-.5.26-.5.59c0,.82-.55,1.46-1.25,1.46-.28,0-.5.26-.5.59s.22.59.5.59Z"/>
      <path class="cls-6" d="m113.26,119.94c.28,0,.5-.26.5-.59v-1.09c0-.32-.22-.59-.5-.59s-.5.26-.5.59v1.09c0,.32.22.59.5.59Z"/>
      <path class="cls-6" d="m113.49,118.71c.28,0,.5-.26.5-.59,0-1.45-1.01-2.64-2.24-2.64-.28,0-.5.26-.5.59s.22.59.5.59c.69,0,1.25.66,1.25,1.46,0,.32.22.59.5.59Z"/>
      <path class="cls-6" d="m108.38,121.85c.28,0,.5-.26.5-.59v-4.61h2.76c.28,0,.5-.26.5-.59s-.22-.59-.5-.59h-3.26c-.28,0-.5.26-.5.59v5.19c0,.32.22.59.5.59Z"/>
    </g>
    <g>
      <path class="cls-2" d="m108.38,127.86h-6.94c.95,35.19,21.11,65.98,50.2,75.79v-8.56h.19v-.2c-25.8-9.72-43.22-37.92-43.22-69.6h-.23v2.57Z"/>
      <path class="cls-4" d="m.93,127.86v193.48h150.7v-117.69c-29.09-9.82-49.25-40.61-50.2-75.79H.93Z"/>
      <path class="cls-6" d="m151.83,195.47c.21,0,.41-.16.47-.41.08-.31-.06-.64-.32-.74-25.64-9.67-42.87-37.41-42.87-69.04,0-.79.02-1.59.04-2.38l-1-.05c-.02.81-.04,1.63-.04,2.43,0,32.14,17.51,60.33,43.56,70.15.05.02.1.03.15.03Z"/>
      <path class="cls-6" d="m151.81,204.31c.21,0,.41-.16.47-.4.09-.31-.06-.64-.32-.74l-.16-.06c-28.88-9.75-48.91-39.99-49.86-75.26-.04-1.73-.04-3.49,0-5.23,0-.32-.21-.59-.49-.6-.26-.01-.5.25-.51.57-.04,1.76-.04,3.54,0,5.29.97,35.78,21.28,66.46,50.56,76.34l.16.06c.05.02.1.03.15.03Z"/>
      <path class="cls-6" d="m.93,321.94h150.7c.28,0,.5-.26.5-.59s-.22-.59-.5-.59H.93c-.28,0-.5.26-.5.59s.22.59.5.59Z"/>
      <path class="cls-6" d="m.93,321.94c.28,0,.5-.26.5-.59V127.86c0-.32-.22-.59-.5-.59s-.5.26-.5.59v193.49c0,.32.22.59.5.59Z"/>
    </g>
  </g>
  <g>
    <g>
      <rect class="cls-4" x="509.78" y="196.59" width="106.38" height="8.35"/>
      <rect class="cls-4" x="509.78" y="204.94" width="106.38" height="116.41"/>
    </g>
    <g>
      <path class="cls-7" d="m616.16,196h-106.38c-.28,0-.5.26-.5.59s.22.59.5.59h106.38c.28,0,.5-.26.5-.59s-.22-.59-.5-.59Z"/>
      <path class="cls-7" d="m616.16,204.35h-106.38c-.28,0-.5.26-.5.59s.22.59.5.59h106.38c.28,0,.5-.26.5-.59s-.22-.59-.5-.59Z"/>
      <path class="cls-7" d="m616.16,196c-.28,0-.5.26-.5.59v124.17h-105.38v-124.17c0-.32-.22-.59-.5-.59s-.5.26-.5.59v124.76c0,.32.22.59.5.59h106.38c.28,0,.5-.26.5-.59v-124.76c0-.32-.22-.59-.5-.59Z"/>
    </g>
  </g>
  <g>
    <g>
      <rect class="cls-4" x="330.55" y="196.59" width="70.85" height="8.35"/>
      <rect class="cls-4" x="330.55" y="204.94" width="70.85" height="116.41"/>
    </g>
    <g>
      <path class="cls-7" d="m401.4,196h-70.85c-.28,0-.5.26-.5.59s.22.59.5.59h70.85c.28,0,.5-.26.5-.59s-.22-.59-.5-.59Z"/>
      <path class="cls-7" d="m401.4,204.35h-70.85c-.28,0-.5.26-.5.59s.22.59.5.59h70.85c.28,0,.5-.26.5-.59s-.22-.59-.5-.59Z"/>
      <path class="cls-7" d="m401.4,196c-.28,0-.5.26-.5.59v124.17h-69.85v-124.17c0-.32-.22-.59-.5-.59s-.5.26-.5.59v124.76c0,.32.22.59.5.59h70.85c.28,0,.5-.26.5-.59v-124.76c0-.32-.22-.59-.5-.59Z"/>
    </g>
  </g>
  <g>
    <g>
      <path class="cls-1" d="m402.4,309.07v-112.48h106.38v112.48h-106.38Zm78.06-46.66c-8.95,0-16.2,8.51-16.2,19.03s7.25,19.03,16.2,19.03,16.2-8.53,16.2-19.03-7.26-19.03-16.2-19.03Zm0-56.24c-8.95,0-16.2,8.51-16.2,19.03s7.25,19.03,16.2,19.03,16.2-8.53,16.2-19.03-7.26-19.03-16.2-19.03Zm-50.16,56.24c-8.95,0-16.2,8.51-16.2,19.03s7.25,19.03,16.2,19.03,16.2-8.53,16.2-19.03-7.26-19.03-16.2-19.03Zm0-56.24c-8.95,0-16.2,8.51-16.2,19.03s7.25,19.03,16.2,19.03,16.2-8.53,16.2-19.03-7.26-19.03-16.2-19.03Z"/>
      <rect class="cls-1" x="402.4" y="309.07" width="106.38" height="12.28"/>
      <path class="cls-9" d="m464.26,281.44c0-10.52,7.25-19.03,16.2-19.03s16.2,8.51,16.2,19.03-7.26,19.03-16.2,19.03-16.2-8.53-16.2-19.03Zm16.2-14.86c-6.98,0-12.64,6.65-12.64,14.86s5.66,14.86,12.64,14.86,12.64-6.65,12.64-14.86-5.66-14.86-12.64-14.86Z"/>
      <path class="cls-9" d="m464.26,225.2c0-10.52,7.25-19.03,16.2-19.03s16.2,8.51,16.2,19.03-7.26,19.03-16.2,19.03-16.2-8.53-16.2-19.03Zm16.2-14.86c-6.98,0-12.64,6.65-12.64,14.86s5.66,14.86,12.64,14.86,12.64-6.65,12.64-14.86-5.66-14.86-12.64-14.86Z"/>
      <path class="cls-9" d="m467.82,281.44c0-8.21,5.66-14.86,12.64-14.86s12.64,6.65,12.64,14.86-5.66,14.86-12.64,14.86-12.64-6.65-12.64-14.86Zm12.64-10.68c-5.03,0-9.09,4.77-9.09,10.68s4.06,10.68,9.09,10.68,9.09-4.79,9.09-10.68-4.08-10.68-9.09-10.68Z"/>
      <path class="cls-9" d="m467.82,225.2c0-8.21,5.66-14.86,12.64-14.86s12.64,6.65,12.64,14.86-5.66,14.86-12.64,14.86-12.64-6.65-12.64-14.86Zm12.64-10.68c-5.03,0-9.09,4.77-9.09,10.68s4.06,10.68,9.09,10.68,9.09-4.79,9.09-10.68-4.08-10.68-9.09-10.68Z"/>
      <path class="cls-8" d="m471.37,281.44c0-5.91,4.06-10.68,9.09-10.68s9.09,4.77,9.09,10.68-4.08,10.68-9.09,10.68-9.09-4.79-9.09-10.68Zm9.09-6.51c-3.07,0-5.54,2.91-5.54,6.51s2.47,6.51,5.54,6.51,5.54-2.93,5.54-6.51-2.49-6.51-5.54-6.51Z"/>
      <path class="cls-8" d="m471.37,225.2c0-5.91,4.06-10.68,9.09-10.68s9.09,4.77,9.09,10.68-4.08,10.68-9.09,10.68-9.09-4.79-9.09-10.68Zm9.09-6.51c-3.07,0-5.54,2.91-5.54,6.51s2.47,6.51,5.54,6.51,5.54-2.93,5.54-6.51-2.49-6.51-5.54-6.51Z"/>
      <path class="cls-9" d="m480.46,287.95c3.05,0,5.54-2.93,5.54-6.51s-2.49-6.51-5.54-6.51-5.54,2.91-5.54,6.51,2.47,6.51,5.54,6.51Z"/>
      <path class="cls-9" d="m480.46,231.71c3.05,0,5.54-2.93,5.54-6.51s-2.49-6.51-5.54-6.51-5.54,2.91-5.54,6.51,2.47,6.51,5.54,6.51Z"/>
      <path class="cls-9" d="m467.61,194.5v2.09h3.55v-2.21c-.05-3.36-2.37-6.08-5.23-6.14h-20.8c-2.94,0-5.33,2.8-5.33,6.26h.21v2.09h3.55v-2.21l-.19-.02c.05-1.11.8-1.94,1.76-1.94h20.69c.98,0,1.78.92,1.78,2.09Z"/>
      <path class="cls-9" d="m430.3,240.06c-6.98,0-12.64-6.65-12.64-14.86s5.66-14.86,12.64-14.86,12.64,6.65,12.64,14.86-5.66,14.86-12.64,14.86Zm0-25.54c-5.03,0-9.09,4.77-9.09,10.68s4.06,10.68,9.09,10.68,9.09-4.79,9.09-10.68-4.08-10.68-9.09-10.68Z"/>
      <path class="cls-9" d="m414.1,281.44c0-10.52,7.25-19.03,16.2-19.03s16.2,8.51,16.2,19.03-7.26,19.03-16.2,19.03-16.2-8.53-16.2-19.03Zm16.2-14.86c-6.98,0-12.64,6.65-12.64,14.86s5.66,14.86,12.64,14.86,12.64-6.65,12.64-14.86-5.66-14.86-12.64-14.86Z"/>
      <path class="cls-9" d="m414.1,225.2c0-10.52,7.25-19.03,16.2-19.03s16.2,8.51,16.2,19.03-7.26,19.03-16.2,19.03-16.2-8.53-16.2-19.03Zm3.55,0c0,8.21,5.66,14.86,12.64,14.86s12.64-6.65,12.64-14.86-5.66-14.86-12.64-14.86-12.64,6.65-12.64,14.86Z"/>
      <path class="cls-9" d="m417.66,281.44c0-8.21,5.66-14.86,12.64-14.86s12.64,6.65,12.64,14.86-5.66,14.86-12.64,14.86-12.64-6.65-12.64-14.86Zm12.64-10.68c-5.03,0-9.09,4.77-9.09,10.68s4.06,10.68,9.09,10.68,9.09-4.79,9.09-10.68-4.08-10.68-9.09-10.68Z"/>
      <path class="cls-8" d="m421.21,281.44c0-5.91,4.06-10.68,9.09-10.68s9.09,4.77,9.09,10.68-4.08,10.68-9.09,10.68-9.09-4.79-9.09-10.68Zm9.09-6.51c-3.07,0-5.54,2.91-5.54,6.51s2.47,6.51,5.54,6.51,5.54-2.93,5.54-6.51-2.49-6.51-5.54-6.51Z"/>
      <path class="cls-8" d="m421.21,225.2c0-5.91,4.06-10.68,9.09-10.68s9.09,4.77,9.09,10.68-4.08,10.68-9.09,10.68-9.09-4.79-9.09-10.68Zm9.09-6.51c-3.07,0-5.54,2.91-5.54,6.51s2.47,6.51,5.54,6.51,5.54-2.93,5.54-6.51-2.49-6.51-5.54-6.51Z"/>
      <path class="cls-9" d="m430.3,287.95c3.05,0,5.54-2.93,5.54-6.51s-2.49-6.51-5.54-6.51-5.54,2.91-5.54,6.51,2.47,6.51,5.54,6.51Z"/>
      <path class="cls-9" d="m430.3,231.71c3.05,0,5.54-2.93,5.54-6.51s-2.49-6.51-5.54-6.51-5.54,2.91-5.54,6.51,2.47,6.51,5.54,6.51Z"/>
    </g>
    <g>
      <path class="cls-7" d="m508.78,196h-106.38c-.28,0-.5.26-.5.59s.22.59.5.59h105.88v123.59h-105.88c-.28,0-.5.26-.5.59s.22.59.5.59h106.38c.28,0,.5-.26.5-.59v-124.76c0-.32-.22-.59-.5-.59Z"/>
      <path class="cls-7" d="m508.78,308.48h-106.38c-.28,0-.5.26-.5.59s.22.59.5.59h106.38c.28,0,.5-.26.5-.59s-.22-.59-.5-.59Z"/>
      <path class="cls-7" d="m402.4,196c-.28,0-.5.26-.5.59v124.76c0,.32.22.59.5.59s.5-.26.5-.59v-124.76c0-.32-.22-.59-.5-.59Z"/>
      <path class="cls-7" d="m443.57,193.79c-.28,0-.5.26-.5.59v2.21c0,.32.22.59.5.59s.5-.26.5-.59v-2.21c0-.32-.22-.59-.5-.59Z"/>
      <path class="cls-7" d="m440.02,193.86c-.28,0-.5.2-.5.52v2.21c0,.32.22.59.5.59s.5-.26.5-.59v-2.09c0-.32-.22-.65-.5-.65Z"/>
      <path class="cls-7" d="m465.94,191.83h-20.69c-.28,0-.5.26-.5.59s.22.59.5.59h20.59c.28,0,.55-.26.55-.59s-.17-.59-.45-.59Z"/>
      <path class="cls-7" d="m465.83,187.65h-20.59c-.28,0-.5.26-.5.59s.22.59.5.59h20.59c.28,0,.5-.26.5-.59s-.22-.59-.5-.59Z"/>
      <path class="cls-7" d="m445.14,191.83c-1.22,0-2.19,1.07-2.26,2.49-.01.07-.02.14-.02.19,0,.32.22.59.5.59s.5-.26.5-.59h-.5l.5-.02c.05-.9.59-1.48,1.28-1.48.28,0,.5-.26.5-.59s-.22-.59-.5-.59Z"/>
      <path class="cls-7" d="m445.14,187.65c-3.21,0-5.83,3.07-5.83,6.85,0,.32.22.59.5.59s.5-.26.5-.59c0-3.13,2.17-5.68,4.83-5.68.28,0,.5-.26.5-.59s-.22-.59-.5-.59Z"/>
      <path class="cls-7" d="m467.61,193.86c-.28,0-.5.2-.5.52v2.21c0,.32.22.59.5.59s.5-.26.5-.59v-2.09c0-.32-.22-.65-.5-.65Z"/>
      <path class="cls-7" d="m471.16,193.92c-.28,0-.5.26-.5.59v2.09c0,.32.22.59.5.59s.5-.26.5-.59v-2.09c0-.32-.22-.59-.5-.59Z"/>
      <path class="cls-7" d="m465.83,191.83c-.28,0-.5.26-.5.59s.22.59.5.59c.71,0,1.28.67,1.28,1.5,0,.32.22.59.5.59s.5-.26.5-.59c0-1.47-1.02-2.67-2.28-2.67Z"/>
      <path class="cls-7" d="m465.95,187.65l-.11.59v.59h.1c2.6.06,4.68,2.5,4.73,5.56,0,.32.23.64.5.64h0c.27,0,.49-.2.49-.52-.06-3.83-2.57-6.78-5.71-6.85Z"/>
      <path class="cls-5" d="m430.3,300.47c-8.95,0-16.2-8.53-16.2-19.03s7.25-19.03,16.2-19.03,16.2,8.51,16.2,19.03-7.26,19.03-16.2,19.03Z"/>
      <ellipse class="cls-5" cx="430.3" cy="281.44" rx="12.64" ry="14.86"/>
      <path class="cls-5" d="m430.3,292.12c-5.03,0-9.09-4.79-9.09-10.68s4.06-10.68,9.09-10.68,9.09,4.77,9.09,10.68-4.08,10.68-9.09,10.68Z"/>
      <path class="cls-5" d="m430.3,287.95c-3.07,0-5.54-2.93-5.54-6.51s2.47-6.51,5.54-6.51,5.54,2.91,5.54,6.51-2.49,6.51-5.54,6.51Z"/>
      <path class="cls-5" d="m480.46,300.47c-8.95,0-16.2-8.53-16.2-19.03s7.25-19.03,16.2-19.03,16.2,8.51,16.2,19.03-7.26,19.03-16.2,19.03Z"/>
      <ellipse class="cls-5" cx="480.46" cy="281.44" rx="12.64" ry="14.86"/>
      <path class="cls-5" d="m480.46,292.12c-5.03,0-9.09-4.79-9.09-10.68s4.06-10.68,9.09-10.68,9.09,4.77,9.09,10.68-4.08,10.68-9.09,10.68Z"/>
      <path class="cls-5" d="m480.46,287.95c-3.07,0-5.54-2.93-5.54-6.51s2.47-6.51,5.54-6.51,5.54,2.91,5.54,6.51-2.49,6.51-5.54,6.51Z"/>
      <ellipse class="cls-5" cx="430.3" cy="225.2" rx="16.2" ry="19.03"/>
      <path class="cls-5" d="m430.3,235.88c-5.03,0-9.09-4.79-9.09-10.68s4.06-10.68,9.09-10.68,9.09,4.77,9.09,10.68-4.08,10.68-9.09,10.68Z"/>
      <path class="cls-5" d="m430.3,231.71c-3.07,0-5.54-2.93-5.54-6.51s2.47-6.51,5.54-6.51,5.54,2.91,5.54,6.51-2.49,6.51-5.54,6.51Z"/>
      <ellipse class="cls-5" cx="430.3" cy="225.2" rx="12.64" ry="14.86"/>
      <ellipse class="cls-5" cx="480.46" cy="225.2" rx="16.2" ry="19.03"/>
      <ellipse class="cls-5" cx="480.46" cy="225.2" rx="12.64" ry="14.86"/>
      <path class="cls-5" d="m480.46,235.88c-5.03,0-9.09-4.79-9.09-10.68s4.06-10.68,9.09-10.68,9.09,4.77,9.09,10.68-4.08,10.68-9.09,10.68Z"/>
      <path class="cls-5" d="m480.46,231.71c-3.07,0-5.54-2.93-5.54-6.51s2.47-6.51,5.54-6.51,5.54,2.91,5.54,6.51-2.49,6.51-5.54,6.51Z"/>
    </g>
  </g>
  <g>
    <g>
      <path class="cls-4" d="m317.1,222.25c0-4.54-3.13-8.23-7-8.23v-.25h-52.56l-.1.25c-3.83,0-6.95,3.62-7,8.1v66.31h31.14v10.31h4.6v-10.31h31.14v-66.19h-.21Zm-82.76,0c0-4.54-3.13-8.23-7-8.23v-.25h-52.56l-.1.25c-3.83,0-6.95,3.62-7,8.1v66.31h31.14v10.31h4.81v-10.31h30.93v-66.19h-.21Zm-81.51,99.1v-124.76h177.23v124.76h-177.23Zm141.81-29.72c-1.55,0-2.82,1.47-2.82,3.32s1.27,3.32,2.82,3.32,2.82-1.49,2.82-3.32-1.27-3.32-2.82-3.32Zm-21.74,0c-1.55,0-2.82,1.47-2.82,3.32s1.27,3.32,2.82,3.32,2.82-1.49,2.82-3.32-1.27-3.32-2.82-3.32Zm-61.03,0c-1.55,0-2.82,1.47-2.82,3.32s1.27,3.32,2.82,3.32,2.82-1.49,2.82-3.32-1.27-3.32-2.82-3.32Zm-21.53,0c-1.55,0-2.82,1.47-2.82,3.32s1.27,3.32,2.82,3.32,2.82-1.49,2.82-3.32-1.27-3.32-2.82-3.32Z"/>
      <path class="cls-3" d="m310.2,230.6v41.14l-.21.12c0,4.5-3.08,8.17-6.9,8.23h-16.93v8.35h31.14v-66.19h-.21c0-4.54-3.13-8.23-7-8.23v-.25h-52.56l-.1.25c-3.83,0-6.95,3.62-7,8.1v66.31h31.14v-8.35h-17.03c-3.87,0-7-3.68-7-8.23v-41.38c.05-4.48,3.17-8.1,7-8.1l.1-.25h38.35v.25c3.87,0,7,3.68,7,8.23h.21Z"/>
      <path class="cls-3" d="m309.99,271.86c0,4.5-3.08,8.17-6.9,8.23h-16.93v-10.07h-4.6v10.07h-17.03c-3.87,0-7-3.68-7-8.23v-41.38c.05-4.48,3.17-8.1,7-8.1l.1-.25h38.35v.25c3.87,0,7,3.68,7,8.23h.21v41.14l-.21.12Zm-25.6-29.84c-4.34,0-7.84,4.11-7.84,9.21s3.5,9.21,7.84,9.21,7.84-4.13,7.84-9.21-3.5-9.21-7.84-9.21Z"/>
      <path class="cls-8" d="m294.63,298.26c1.55,0,2.82-1.49,2.82-3.32s-1.27-3.32-2.82-3.32-2.82,1.47-2.82,3.32,1.27,3.32,2.82,3.32Z"/>
      <path class="cls-9" d="m276.55,251.23c0-5.1,3.5-9.21,7.84-9.21s7.84,4.11,7.84,9.21-3.5,9.21-7.84,9.21-7.84-4.13-7.84-9.21Zm7.84-5.03c-2.37,0-4.28,2.25-4.28,5.03s1.92,5.03,4.28,5.03,4.28-2.25,4.28-5.03-1.92-5.03-4.28-5.03Z"/>
      <path class="cls-3" d="m284.39,256.27c2.37,0,4.28-2.25,4.28-5.03s-1.92-5.03-4.28-5.03-4.28,2.25-4.28,5.03,1.92,5.03,4.28,5.03Z"/>
      <polygon class="cls-9" points="286.17 280.09 286.17 270.02 281.57 270.02 281.57 280.09 281.57 288.44 281.57 298.76 286.17 298.76 286.17 288.44 286.17 280.09"/>
      <path class="cls-10" d="m272.89,298.26c1.55,0,2.82-1.49,2.82-3.32s-1.27-3.32-2.82-3.32-2.82,1.47-2.82,3.32,1.27,3.32,2.82,3.32Z"/>
      <path class="cls-3" d="m220.44,222.13v.25c3.83,0,6.95,3.62,7,8.1v41.38c0,4.5-3.08,8.17-6.9,8.23h-16.93v8.35h30.93v-66.19h-.21c0-4.54-3.13-8.23-7-8.23v-.25h-52.56l-.1.25c-3.83,0-6.95,3.62-7,8.1v66.31h31.14v-8.35h-17.03c-3.87,0-7-3.68-7-8.23v-41.38c.05-4.48,3.17-8.1,7-8.1l.1-.25h38.56Z"/>
      <path class="cls-3" d="m227.44,271.74v.12c0,4.5-3.08,8.17-6.9,8.23h-16.93v-10.07h-4.81v10.07h-17.03c-3.87,0-7-3.68-7-8.23v-41.38c.05-4.48,3.17-8.1,7-8.1l.1-.25h38.56v.25c3.83,0,6.95,3.62,7,8.1v41.26Zm-27.07-29.72c-4.34,0-7.84,4.11-7.84,9.21s3.5,9.21,7.84,9.21,7.84-4.13,7.84-9.21-3.5-9.21-7.84-9.21Z"/>
      <path class="cls-8" d="m211.87,298.26c1.55,0,2.82-1.49,2.82-3.32s-1.27-3.32-2.82-3.32-2.82,1.47-2.82,3.32,1.27,3.32,2.82,3.32Z"/>
      <path class="cls-9" d="m192.53,251.23c0-5.1,3.5-9.21,7.84-9.21s7.84,4.11,7.84,9.21-3.5,9.21-7.84,9.21-7.84-4.13-7.84-9.21Zm7.84-5.03c-2.37,0-4.28,2.25-4.28,5.03s1.92,5.03,4.28,5.03,4.28-2.25,4.28-5.03-1.92-5.03-4.28-5.03Z"/>
      <path class="cls-3" d="m200.37,256.27c2.37,0,4.28-2.25,4.28-5.03s-1.92-5.03-4.28-5.03-4.28,2.25-4.28,5.03,1.92,5.03,4.28,5.03Z"/>
      <polygon class="cls-9" points="203.61 280.09 203.61 270.02 198.8 270.02 198.8 280.09 198.8 288.44 198.8 298.76 203.61 298.76 203.61 288.44 203.61 280.09"/>
      <path class="cls-10" d="m190.34,298.26c1.55,0,2.82-1.49,2.82-3.32s-1.27-3.32-2.82-3.32-2.82,1.47-2.82,3.32,1.27,3.32,2.82,3.32Z"/>
    </g>
    <g>
      <path class="cls-7" d="m259.2,196h-106.38c-.28,0-.5.26-.5.59s.22.59.5.59h106.38c.28,0,.5-.26.5-.59s-.22-.59-.5-.59Z"/>
      <path class="cls-7" d="m152.83,196c-.28,0-.5.26-.5.59v124.76c0,.32.22.59.5.59h177.23c.28,0,.5-.26.5-.59s-.22-.59-.5-.59h-176.73v-124.17c0-.32-.22-.59-.5-.59Z"/>
      <path class="cls-7" d="m330.06,196h-70.85c-.28,0-.5.26-.5.59s.22.59.5.59h70.35v124.17c0,.32.22.59.5.59s.5-.26.5-.59v-124.76c0-.32-.22-.59-.5-.59Z"/>
      <path class="cls-7" d="m234.54,221.61c-.28,0-.5.2-.5.52v65.72h-30.43c-.28,0-.5.26-.5.59s.22.59.5.59h30.93c.28,0,.5-.26.5-.59v-66.19c0-.32-.22-.65-.5-.65Z"/>
      <path class="cls-7" d="m227.33,213.44c-.28,0-.5.26-.5.59s.22.59.5.59c3.59,0,6.5,3.43,6.5,7.64,0,.32.22.59.5.59s.5-.26.5-.59c0-4.86-3.36-8.81-7.5-8.81Z"/>
      <path class="cls-7" d="m227.44,213.2h-52.67c-.28,0-.5.26-.5.59s.22.59.5.59h52.56c.28,0,.55-.26.55-.59s-.17-.59-.45-.59Z"/>
      <path class="cls-7" d="m174.66,213.44c-4.08,0-7.44,3.89-7.5,8.68,0,.32.22.59.49.59.29-.04.5-.25.5-.58.05-4.15,2.97-7.53,6.5-7.53.28,0,.5-.26.5-.59s-.22-.59-.5-.59Z"/>
      <path class="cls-7" d="m167.66,221.61c-.28,0-.5.2-.5.52v66.31c0,.32.22.59.5.59h31.14c.28,0,.5-.26.5-.59s-.22-.59-.5-.59h-30.64v-65.6c0-.32-.22-.65-.5-.65Z"/>
      <path class="cls-7" d="m220.44,279.51h-16.82c-.28,0-.5.26-.5.59s.22.59.5.59h16.82c.28,0,.5-.26.5-.59s-.22-.59-.5-.59Z"/>
      <path class="cls-7" d="m227.44,271.28c-.28,0-.5.26-.5.59,0,4.16-2.87,7.58-6.41,7.64-.27,0-.55.27-.54.59,0,.32.17.58.45.58,4.19-.07,7.5-4.02,7.5-8.81,0-.32-.22-.59-.5-.59Z"/>
      <path class="cls-7" d="m227.44,230.02c-.28,0-.5.26-.5.59v41.14c0,.32.22.59.5.59s.5-.26.5-.59v-41.14c0-.32-.22-.59-.5-.59Z"/>
      <path class="cls-7" d="m220.44,221.79c-.28,0-.5.26-.5.59s.22.59.5.59c3.54,0,6.45,3.38,6.5,7.53,0,.32.23.64.5.64h0c.27,0,.49-.2.49-.52-.06-4.92-3.42-8.81-7.5-8.81Z"/>
      <path class="cls-7" d="m220.54,221.54h-38.66c-.28,0-.5.26-.5.59s.22.59.5.59h38.56c.28,0,.55-.26.55-.59s-.17-.59-.45-.59Z"/>
      <path class="cls-7" d="m181.77,221.79c-4.08,0-7.44,3.89-7.5,8.68,0,.32.22.59.49.59.32,0,.5-.25.5-.58.05-4.15,2.97-7.53,6.5-7.53.28,0,.5-.26.5-.59s-.22-.59-.5-.59Z"/>
      <path class="cls-7" d="m174.77,229.96c-.28,0-.5.2-.5.52v41.26c0,.32.22.59.5.59s.5-.26.5-.59v-41.14c0-.32-.22-.65-.5-.65Z"/>
      <path class="cls-7" d="m174.77,271.28c-.28,0-.5.26-.5.59,0,4.86,3.36,8.81,7.5,8.81.28,0,.5-.26.5-.59s-.22-.59-.5-.59c-3.59,0-6.5-3.43-6.5-7.64,0-.32-.22-.59-.5-.59Z"/>
      <path class="cls-7" d="m198.8,279.51h-16.93c-.28,0-.5.26-.5.59s.22.59.5.59h16.93c.28,0,.5-.26.5-.59s-.22-.59-.5-.59Z"/>
      <path class="cls-5" d="m200.37,256.27c-2.37,0-4.28-2.25-4.28-5.03s1.92-5.03,4.28-5.03,4.28,2.25,4.28,5.03-1.92,5.03-4.28,5.03Z"/>
      <path class="cls-5" d="m200.37,260.44c-4.34,0-7.84-4.13-7.84-9.21s3.5-9.21,7.84-9.21,7.84,4.11,7.84,9.21-3.5,9.21-7.84,9.21Z"/>
      <path class="cls-7" d="m204.11,270.02v28.73c0,.32-.22.59-.5.59h-4.81c-.28,0-.5-.26-.5-.59v-28.73c0-.32.22-.59.5-.59h4.81c.28,0,.5.26.5.59Zm-4.81,28.15h3.81v-27.56h-3.81v27.56Z"/>
      <path class="cls-7" d="m250.43,221.67c-.28,0-.5.26-.5.59v66.19c0,.32.22.59.5.59h31.14c.28,0,.5-.26.5-.59s-.22-.59-.5-.59h-30.64v-65.6c0-.32-.22-.59-.5-.59Z"/>
      <path class="cls-7" d="m257.43,213.44c-4.08,0-7.44,3.89-7.5,8.68l.5.13h.5v-.12c.05-4.14,2.97-7.52,6.5-7.52.28,0,.5-.26.5-.59s-.22-.59-.5-.59Z"/>
      <path class="cls-7" d="m310.2,213.2h-52.67c-.28,0-.5.26-.5.59s.22.59.5.59h52.56c.28,0,.55-.26.55-.59s-.17-.59-.45-.59Z"/>
      <path class="cls-7" d="m310.1,213.44c-.28,0-.5.26-.5.59s.22.59.5.59c3.59,0,6.5,3.43,6.5,7.64,0,.32.22.59.5.59s.5-.26.5-.59c0-4.86-3.36-8.81-7.5-8.81Z"/>
      <path class="cls-7" d="m317.31,221.61c-.28,0-.5.2-.5.52v65.72h-30.64c-.28,0-.5.26-.5.59s.22.59.5.59h31.14c.28,0,.5-.26.5-.59v-66.19c0-.32-.22-.65-.5-.65Z"/>
      <path class="cls-7" d="m281.57,279.51h-16.93c-.28,0-.5.26-.5.59s.22.59.5.59h16.93c.28,0,.5-.26.5-.59s-.22-.59-.5-.59Z"/>
      <path class="cls-7" d="m257.53,271.28c-.28,0-.5.26-.5.59,0,4.86,3.36,8.81,7.5,8.81.28,0,.5-.26.5-.59s-.22-.59-.5-.59c-3.59,0-6.5-3.43-6.5-7.64,0-.32-.22-.59-.5-.59Z"/>
      <path class="cls-7" d="m257.53,230.02c-.28,0-.5.26-.5.59v41.14c0,.32.22.59.5.59s.5-.26.5-.59v-41.14c0-.32-.22-.59-.5-.59Z"/>
      <path class="cls-7" d="m264.53,221.79c-4.08,0-7.44,3.89-7.5,8.68l.5.13h.5v-.12c.05-4.14,2.97-7.52,6.5-7.52.28,0,.5-.26.5-.59s-.22-.59-.5-.59Z"/>
      <path class="cls-7" d="m303.09,221.54h-38.46c-.28,0-.5.26-.5.59s.22.59.5.59h38.35c.28,0,.55-.26.55-.59s-.17-.59-.45-.59Z"/>
      <path class="cls-7" d="m302.99,221.79c-.28,0-.5.26-.5.59s.22.59.5.59c3.59,0,6.5,3.43,6.5,7.64,0,.32.22.59.5.59s.5-.26.5-.59c0-4.86-3.36-8.81-7.5-8.81Z"/>
      <path class="cls-7" d="m310.2,229.96c-.28,0-.5.2-.5.52v41.26c0,.32.22.59.5.59s.5-.26.5-.59v-41.14c0-.32-.22-.65-.5-.65Z"/>
      <path class="cls-7" d="m309.99,271.28c-.28,0-.5.26-.5.59,0,4.16-2.87,7.58-6.41,7.64-.28,0-.5.27-.49.59,0,.32.27.61.5.58,4.07-.07,7.39-4.02,7.39-8.81,0-.32-.22-.59-.5-.59Z"/>
      <path class="cls-7" d="m303.09,279.51h-16.93c-.28,0-.5.26-.5.59s.22.59.5.59h16.82c.28,0,.55-.26.55-.59s-.17-.59-.45-.59Z"/>
      <path class="cls-5" d="m284.39,256.27c-2.37,0-4.28-2.25-4.28-5.03s1.92-5.03,4.28-5.03,4.28,2.25,4.28,5.03-1.92,5.03-4.28,5.03Z"/>
      <path class="cls-5" d="m284.39,260.44c-4.34,0-7.84-4.13-7.84-9.21s3.5-9.21,7.84-9.21,7.84,4.11,7.84,9.21-3.5,9.21-7.84,9.21Z"/>
      <path class="cls-7" d="m202.36,250.53h-3.55c-.28,0-.5.26-.5.59s.22.59.5.59h3.55c.28,0,.5-.26.5-.59s-.22-.59-.5-.59Z"/>
      <path class="cls-7" d="m200.48,248.31c-.28,0-.5.26-.5.59v4.17c0,.32.22.59.5.59s.5-.26.5-.59v-4.17c0-.32-.22-.59-.5-.59Z"/>
      <path class="cls-7" d="m286.17,250.53h-3.55c-.28,0-.5.26-.5.59s.22.59.5.59h3.55c.28,0,.5-.26.5-.59s-.22-.59-.5-.59Z"/>
      <path class="cls-7" d="m284.49,248.31c-.28,0-.5.26-.5.59v4.17c0,.32.22.59.5.59s.5-.26.5-.59v-4.17c0-.32-.22-.59-.5-.59Z"/>
      <path class="cls-5" d="m190.34,298.26c-1.55,0-2.82-1.49-2.82-3.32s1.27-3.32,2.82-3.32,2.82,1.47,2.82,3.32-1.27,3.32-2.82,3.32Z"/>
      <path class="cls-5" d="m211.87,298.26c-1.55,0-2.82-1.49-2.82-3.32s1.27-3.32,2.82-3.32,2.82,1.47,2.82,3.32-1.27,3.32-2.82,3.32Z"/>
      <path class="cls-7" d="m286.66,270.02v28.73c0,.32-.22.59-.5.59h-4.6c-.28,0-.5-.26-.5-.59v-28.73c0-.32.22-.59.5-.59h4.6c.28,0,.5.26.5.59Zm-4.6,28.15h3.6v-27.56h-3.6v27.56Z"/>
      <path class="cls-5" d="m272.89,298.26c-1.55,0-2.82-1.49-2.82-3.32s1.27-3.32,2.82-3.32,2.82,1.47,2.82,3.32-1.27,3.32-2.82,3.32Z"/>
      <path class="cls-5" d="m294.63,298.26c-1.55,0-2.82-1.49-2.82-3.32s1.27-3.32,2.82-3.32,2.82,1.47,2.82,3.32-1.27,3.32-2.82,3.32Z"/>
    </g>
  </g>
  <rect class="cls-7" x="151.64" y="204.41" width="178.92" height="1.06"/>
</svg>