<?xml version="1.0" encoding="UTF-8"?>
<svg id="Layer_1" data-name="Layer 1" xmlns="http://www.w3.org/2000/svg" xmlns:xlink="http://www.w3.org/1999/xlink" viewBox="0 0 469.95 84.36">
  <defs>
    <style>
      .cls-1 {
        fill: #7f8081;
      }

      .cls-2 {
        fill: #cecfcf;
      }

      .cls-3 {
        fill: #a2a3a4;
      }

      .cls-4 {
        fill: url(#linear-gradient-2);
      }

      .cls-5 {
        fill: #949596;
      }

      .cls-6 {
        fill: #696a6c;
      }

      .cls-7 {
        fill: #979899;
      }

      .cls-8 {
        fill: #666769;
      }

      .cls-9 {
        fill: #c0bfc0;
      }

      .cls-10 {
        fill: #fff;
      }

      .cls-11 {
        fill: #d0d1d1;
      }

      .cls-12 {
        fill: #a9a8aa;
      }

      .cls-13 {
        fill: #808182;
      }

      .cls-14 {
        fill: #7c7d7f;
      }

      .cls-15 {
        fill: #f7f8f8;
      }

      .cls-16 {
        fill: #757677;
      }

      .cls-17 {
        fill: #9fa0a2;
      }

      .cls-18 {
        fill: #616264;
      }

      .cls-19 {
        fill: #cacaca;
      }

      .cls-20 {
        fill: #737476;
      }

      .cls-21 {
        fill: #f6f6f6;
      }

      .cls-22 {
        fill: #878889;
      }

      .cls-23 {
        fill: url(#linear-gradient);
        mix-blend-mode: multiply;
      }

      .cls-24 {
        fill: #939598;
      }

      .cls-25 {
        fill: #5e5f61;
      }

      .cls-26 {
        fill: #d7d6d6;
      }

      .cls-27 {
        fill: #a7a7a8;
      }

      .cls-28 {
        fill: #666767;
      }

      .cls-29 {
        fill: #e2e2e2;
      }

      .cls-30 {
        fill: #898a8b;
      }

      .cls-31 {
        fill: #8c8b8d;
      }

      .cls-32 {
        fill: #98999b;
      }

      .cls-33 {
        fill: #707173;
      }

      .cls-34 {
        fill: #78797a;
      }

      .cls-35 {
        fill: #77787a;
      }

      .cls-36 {
        fill: #737375;
      }

      .cls-37 {
        fill: #f0efef;
      }

      .cls-38 {
        fill: #6e6f72;
      }

      .cls-39 {
        fill: #cdcdcf;
      }

      .cls-40 {
        fill: #dbdada;
      }

      .cls-41 {
        fill: #acacad;
      }

      .cls-42 {
        fill: #6b6c6e;
      }

      .cls-43 {
        fill: #838485;
      }

      .cls-44 {
        fill: #858687;
      }

      .cls-45 {
        fill: #606163;
      }

      .cls-46 {
        fill: #8e8f8f;
      }

      .cls-47 {
        fill: #969698;
      }

      .cls-48 {
        fill: #6f7072;
      }

      .cls-49 {
        fill: #c8c8c9;
      }

      .cls-50 {
        fill: #9b9c9d;
      }

      .cls-51 {
        fill: #747577;
      }

      .cls-52 {
        fill: #717274;
      }

      .cls-53 {
        fill: #f3f3f4;
      }

      .cls-54 {
        fill: #c2c3c3;
      }

      .cls-55 {
        fill: #afafb1;
      }

      .cls-56 {
        fill: #ededee;
      }

      .cls-57 {
        fill: #7e7f81;
      }

      .cls-58 {
        fill: #d4d4d4;
      }

      .cls-59 {
        fill: #7d7e80;
      }

      .cls-60 {
        fill: #626364;
      }

      .cls-61 {
        fill: #b5b6b6;
      }

      .cls-62 {
        fill: #e6e6e7;
      }

      .cls-63 {
        fill: #6c6d6f;
      }

      .cls-64 {
        fill: #6e6f71;
      }

      .cls-65 {
        fill: #bbbcbd;
      }

      .cls-66 {
        fill: #929294;
      }

      .cls-67 {
        fill: #e4e4e4;
      }

      .cls-68 {
        fill: #8e9091;
      }

      .cls-69 {
        fill: #7b7b7d;
      }

      .cls-70 {
        fill: #929293;
      }

      .cls-71 {
        fill: #898a8c;
      }

      .cls-72 {
        fill: #646566;
      }

      .cls-73 {
        fill: #67686a;
      }

      .cls-74 {
        fill: #c7c6c7;
      }

      .cls-75 {
        fill: #c1c1c2;
      }

      .cls-76 {
        fill: #828384;
      }

      .cls-77 {
        fill: #b0b1b2;
      }

      .cls-78 {
        fill: #808282;
      }

      .cls-79 {
        fill: #9a9a9b;
      }

      .cls-80 {
        fill: #9b9b9c;
      }

      .cls-81 {
        fill: #8d8c8e;
      }

      .cls-82 {
        clip-path: url(#clippath);
      }

      .cls-83 {
        fill: #797a7b;
      }

      .cls-84 {
        fill: #9e9e9f;
      }

      .cls-85 {
        fill: #d3d3d3;
      }

      .cls-86 {
        fill: #939495;
      }

      .cls-87 {
        fill: #5f6062;
      }

      .cls-88 {
        fill: #68696a;
      }

      .cls-89 {
        fill: #c4c5c4;
      }

      .cls-90 {
        fill: #767678;
      }

      .cls-91, .cls-92 {
        fill: none;
      }

      .cls-93 {
        fill: #7a7a7c;
      }

      .cls-94 {
        fill: #8f9091;
      }

      .cls-95 {
        fill: #dcdcdc;
      }

      .cls-96 {
        fill: #dfdfde;
      }

      .cls-97 {
        fill: #818285;
      }

      .cls-98 {
        fill: #636466;
      }

      .cls-99 {
        fill: #b7b7b8;
      }

      .cls-100 {
        fill: #828385;
      }

      .cls-101 {
        fill: #cccccd;
      }

      .cls-102 {
        fill: #6f7172;
      }

      .cls-103 {
        fill: #767779;
      }

      .cls-104 {
        fill: #b2b3b3;
      }

      .cls-105 {
        fill: #bbb;
      }

      .cls-106 {
        fill: #9ea0a1;
      }

      .cls-107 {
        fill: #eaebeb;
      }

      .cls-108 {
        filter: url(#luminosity-noclip);
      }

      .cls-109 {
        mask: url(#mask-1);
      }

      .cls-110 {
        mask: url(#mask);
      }

      .cls-111 {
        fill: #656668;
      }

      .cls-112 {
        fill: #27281f;
      }

      .cls-113 {
        fill: #aaabac;
      }

      .cls-114 {
        fill: #a5a5a7;
      }

      .cls-92 {
        stroke: #27281f;
        stroke-linecap: round;
        stroke-linejoin: round;
        stroke-width: .72px;
      }

      .cls-115 {
        fill: #d8d9d8;
      }

      .cls-116 {
        fill: #aeaeaf;
      }

      .cls-117 {
        fill: #6a6b6d;
      }

      .cls-118 {
        fill: #848586;
      }

      .cls-119 {
        fill: #7b7c7e;
      }

      .cls-120 {
        fill: #727374;
      }

      .cls-121 {
        fill: #e9e8e9;
      }

      .cls-122 {
        fill: #6d6e70;
      }

      .cls-123 {
        fill: #fafbfc;
      }

      .cls-124 {
        fill: #b9b9ba;
      }

      .cls-125 {
        fill: #e0e1e0;
      }

      .cls-126 {
        fill: #868788;
      }

      .cls-127 {
        fill: #f2f2f2;
      }

      .cls-128 {
        fill: #bdbebe;
      }

      .cls-129 {
        fill: #a2a2a3;
      }

      .cls-130 {
        fill: #b4b4b5;
      }
    </style>
    <clipPath id="clippath">
      <polygon class="cls-91" points="354.51 29.94 277.65 29.94 277.65 75.99 354.51 75.99 354.51 29.94 354.51 29.94"/>
    </clipPath>
    <filter id="luminosity-noclip" x="301.52" y="39.31" width="29.28" height="36.69" color-interpolation-filters="sRGB" filterUnits="userSpaceOnUse">
      <feFlood flood-color="#fff" result="bg"/>
      <feBlend in="SourceGraphic" in2="bg"/>
    </filter>
    <filter id="luminosity-noclip-2" x="301.52" y="-8234.48" width="29.28" height="32766" color-interpolation-filters="sRGB" filterUnits="userSpaceOnUse">
      <feFlood flood-color="#fff" result="bg"/>
      <feBlend in="SourceGraphic" in2="bg"/>
    </filter>
    <mask id="mask-1" x="301.52" y="-8234.48" width="29.28" height="32766" maskUnits="userSpaceOnUse"/>
    <linearGradient id="linear-gradient" x1="-1701.33" y1="3283.11" x2="-1701.33" y2="3246.42" gradientTransform="translate(-1385.17 3322.42) rotate(-180)" gradientUnits="userSpaceOnUse">
      <stop offset="0" stop-color="#fff"/>
      <stop offset=".1" stop-color="#f9f9f9"/>
      <stop offset=".22" stop-color="#e8e8e8"/>
      <stop offset=".36" stop-color="#cdcdcd"/>
      <stop offset=".51" stop-color="#a7a7a7"/>
      <stop offset=".68" stop-color="#777"/>
      <stop offset=".84" stop-color="#3c3c3c"/>
      <stop offset="1" stop-color="#000"/>
    </linearGradient>
    <mask id="mask" x="301.52" y="39.31" width="29.28" height="36.69" maskUnits="userSpaceOnUse">
      <g class="cls-108">
        <g class="cls-109">
          <path class="cls-23" d="m304.22,76l-2.71-22.11h.14c0-8.07,6.53-14.58,14.57-14.58s14.53,6.48,14.57,14.49h-.15l-2.72,22.2h-23.71Z"/>
        </g>
      </g>
    </mask>
    <linearGradient id="linear-gradient-2" x1="-1701.33" y1="3283.11" x2="-1701.33" y2="3246.42" gradientTransform="translate(-1385.17 3322.42) rotate(-180)" gradientUnits="userSpaceOnUse">
      <stop offset="0" stop-color="#393939"/>
      <stop offset=".11" stop-color="#3e3e3e"/>
      <stop offset=".26" stop-color="#4f4f4f"/>
      <stop offset=".42" stop-color="#6a6a6a"/>
      <stop offset=".6" stop-color="#909090"/>
      <stop offset=".79" stop-color="silver"/>
      <stop offset=".99" stop-color="#fbfbfb"/>
      <stop offset="1" stop-color="#fff"/>
    </linearGradient>
  </defs>
  <g>
    <polygon class="cls-24" points="357.74 33.17 280.88 33.17 280.88 33.17 280.88 33.17 280.88 79.22 307.45 79.22 331.16 79.22 357.73 79.22 357.73 79.22 357.74 79.22 357.74 33.17"/>
    <g>
      <path class="cls-97" d="m301.52,53.89l2.71,22.11h-26.57V29.94h76.85v46.05h-26.57l2.72-22.2h.15c-.04-8.01-6.54-14.49-14.57-14.49s-14.57,6.52-14.57,14.57h-.14Z"/>
      <g>
        <g class="cls-82">
          <rect class="cls-25" x="277.65" y="29.94" width="76.85" height=".28"/>
          <rect class="cls-25" x="277.65" y="30.23" width="76.85" height=".28"/>
          <rect class="cls-25" x="277.65" y="30.51" width="76.85" height=".28"/>
          <rect class="cls-25" x="277.65" y="30.79" width="76.85" height=".28"/>
          <rect class="cls-25" x="277.65" y="31.08" width="76.85" height=".28"/>
          <rect class="cls-25" x="277.65" y="31.36" width="76.85" height=".28"/>
          <rect class="cls-25" x="277.65" y="31.65" width="76.85" height=".28"/>
          <rect class="cls-25" x="277.65" y="31.93" width="76.85" height=".28"/>
          <rect class="cls-25" x="277.65" y="32.22" width="76.85" height=".28"/>
          <rect class="cls-25" x="277.65" y="32.5" width="76.85" height=".28"/>
          <rect class="cls-25" x="277.65" y="32.78" width="76.85" height=".28"/>
          <rect class="cls-25" x="277.65" y="33.07" width="76.85" height=".28"/>
          <rect class="cls-25" x="277.65" y="33.35" width="76.85" height=".28"/>
          <rect class="cls-25" x="277.65" y="33.64" width="76.85" height=".28"/>
          <rect class="cls-87" x="277.65" y="33.92" width="76.85" height=".28"/>
          <rect class="cls-87" x="277.65" y="34.21" width="76.85" height=".28"/>
          <rect class="cls-87" x="277.65" y="34.49" width="76.85" height=".28"/>
          <rect class="cls-87" x="277.65" y="34.77" width="76.85" height=".28"/>
          <rect class="cls-87" x="277.65" y="35.06" width="76.85" height=".28"/>
          <rect class="cls-87" x="277.65" y="35.34" width="76.85" height=".28"/>
          <rect class="cls-87" x="277.65" y="35.63" width="76.85" height=".28"/>
          <rect class="cls-87" x="277.65" y="35.91" width="76.85" height=".28"/>
          <rect class="cls-87" x="277.65" y="36.2" width="76.85" height=".28"/>
          <rect class="cls-45" x="277.65" y="36.48" width="76.85" height=".28"/>
          <rect class="cls-45" x="277.65" y="36.76" width="76.85" height=".28"/>
          <rect class="cls-45" x="277.65" y="37.05" width="76.85" height=".28"/>
          <rect class="cls-45" x="277.65" y="37.33" width="76.85" height=".28"/>
          <rect class="cls-45" x="277.65" y="37.62" width="76.85" height=".28"/>
          <rect class="cls-18" x="277.65" y="37.9" width="76.85" height=".28"/>
          <rect class="cls-18" x="277.65" y="38.19" width="76.85" height=".28"/>
          <rect class="cls-18" x="277.65" y="38.47" width="76.85" height=".28"/>
          <rect class="cls-18" x="277.65" y="38.75" width="76.85" height=".28"/>
          <rect class="cls-60" x="277.65" y="39.04" width="76.85" height=".28"/>
          <rect class="cls-60" x="277.65" y="39.32" width="76.85" height=".28"/>
          <rect class="cls-60" x="277.65" y="39.61" width="76.85" height=".28"/>
          <rect class="cls-60" x="277.65" y="39.89" width="76.85" height=".28"/>
          <rect class="cls-98" x="277.65" y="40.18" width="76.85" height=".28"/>
          <rect class="cls-98" x="277.65" y="40.46" width="76.85" height=".28"/>
          <rect class="cls-98" x="277.65" y="40.74" width="76.85" height=".28"/>
          <rect class="cls-72" x="277.65" y="41.03" width="76.85" height=".28"/>
          <rect class="cls-72" x="277.65" y="41.31" width="76.85" height=".28"/>
          <rect class="cls-72" x="277.65" y="41.6" width="76.85" height=".28"/>
          <rect class="cls-111" x="277.65" y="41.88" width="76.85" height=".28"/>
          <rect class="cls-111" x="277.65" y="42.17" width="76.85" height=".28"/>
          <rect class="cls-28" x="277.65" y="42.45" width="76.85" height=".28"/>
          <rect class="cls-8" x="277.65" y="42.73" width="76.85" height=".28"/>
          <rect class="cls-8" x="277.65" y="43.02" width="76.85" height=".28"/>
          <rect class="cls-73" x="277.65" y="43.3" width="76.85" height=".28"/>
          <rect class="cls-73" x="277.65" y="43.59" width="76.85" height=".28"/>
          <rect class="cls-88" x="277.65" y="43.87" width="76.85" height=".28"/>
          <rect class="cls-88" x="277.65" y="44.15" width="76.85" height=".28"/>
          <rect class="cls-6" x="277.65" y="44.44" width="76.85" height=".28"/>
          <rect class="cls-6" x="277.65" y="44.72" width="76.85" height=".28"/>
          <rect class="cls-117" x="277.65" y="45.01" width="76.85" height=".28"/>
          <rect class="cls-117" x="277.65" y="45.29" width="76.85" height=".28"/>
          <rect class="cls-42" x="277.65" y="45.58" width="76.85" height=".28"/>
          <rect class="cls-42" x="277.65" y="45.86" width="76.85" height=".28"/>
          <rect class="cls-63" x="277.65" y="46.14" width="76.85" height=".28"/>
          <rect class="cls-63" x="277.65" y="46.43" width="76.85" height=".28"/>
          <rect class="cls-122" x="277.65" y="46.71" width="76.85" height=".28"/>
          <rect class="cls-64" x="277.65" y="47" width="76.85" height=".28"/>
          <rect class="cls-64" x="277.65" y="47.28" width="76.85" height=".28"/>
          <rect class="cls-48" x="277.65" y="47.57" width="76.85" height=".28"/>
          <rect class="cls-102" x="277.65" y="47.85" width="76.85" height=".28"/>
          <rect class="cls-33" x="277.65" y="48.13" width="76.85" height=".28"/>
          <rect class="cls-52" x="277.65" y="48.42" width="76.85" height=".28"/>
          <rect class="cls-120" x="277.65" y="48.7" width="76.85" height=".28"/>
          <rect class="cls-36" x="277.65" y="48.99" width="76.85" height=".28"/>
          <rect class="cls-20" x="277.65" y="49.27" width="76.85" height=".28"/>
          <rect class="cls-51" x="277.65" y="49.56" width="76.85" height=".28"/>
          <rect class="cls-16" x="277.65" y="49.84" width="76.85" height=".28"/>
          <rect class="cls-90" x="277.65" y="50.12" width="76.85" height=".28"/>
          <rect class="cls-103" x="277.65" y="50.41" width="76.85" height=".28"/>
          <rect class="cls-35" x="277.65" y="50.69" width="76.85" height=".28"/>
          <rect class="cls-34" x="277.65" y="50.98" width="76.85" height=".28"/>
          <rect class="cls-83" x="277.65" y="51.26" width="76.85" height=".28"/>
          <rect class="cls-93" x="277.65" y="51.55" width="76.85" height=".28"/>
          <rect class="cls-69" x="277.65" y="51.83" width="76.85" height=".28"/>
          <rect class="cls-119" x="277.65" y="52.11" width="76.85" height=".28"/>
          <rect class="cls-14" x="277.65" y="52.4" width="76.85" height=".28"/>
          <rect class="cls-59" x="277.65" y="52.68" width="76.85" height=".28"/>
          <rect class="cls-57" x="277.65" y="52.97" width="76.85" height=".28"/>
          <rect class="cls-1" x="277.65" y="53.25" width="76.85" height=".28"/>
          <rect class="cls-13" x="277.65" y="53.54" width="76.85" height=".28"/>
          <rect class="cls-78" x="277.65" y="53.82" width="76.85" height=".28"/>
          <rect class="cls-76" x="277.65" y="54.1" width="76.85" height=".28"/>
          <rect class="cls-100" x="277.65" y="54.39" width="76.85" height=".28"/>
          <rect class="cls-43" x="277.65" y="54.67" width="76.85" height=".28"/>
          <rect class="cls-118" x="277.65" y="54.96" width="76.85" height=".28"/>
          <rect class="cls-44" x="277.65" y="55.24" width="76.85" height=".28"/>
          <rect class="cls-126" x="277.65" y="55.53" width="76.85" height=".28"/>
          <rect class="cls-22" x="277.65" y="55.81" width="76.85" height=".28"/>
          <rect class="cls-30" x="277.65" y="56.09" width="76.85" height=".28"/>
          <rect class="cls-71" x="277.65" y="56.38" width="76.85" height=".28"/>
          <rect class="cls-31" x="277.65" y="56.66" width="76.85" height=".28"/>
          <rect class="cls-81" x="277.65" y="56.95" width="76.85" height=".28"/>
          <rect class="cls-46" x="277.65" y="57.23" width="76.85" height=".28"/>
          <rect class="cls-68" x="277.65" y="57.52" width="76.85" height=".28"/>
          <rect class="cls-94" x="277.65" y="57.8" width="76.85" height=".28"/>
          <rect class="cls-70" x="277.65" y="58.08" width="76.85" height=".28"/>
          <rect class="cls-66" x="277.65" y="58.37" width="76.85" height=".28"/>
          <rect class="cls-86" x="277.65" y="58.65" width="76.85" height=".28"/>
          <rect class="cls-5" x="277.65" y="58.94" width="76.85" height=".28"/>
          <rect class="cls-47" x="277.65" y="59.22" width="76.85" height=".28"/>
          <rect class="cls-7" x="277.65" y="59.51" width="76.85" height=".28"/>
          <rect class="cls-32" x="277.65" y="59.79" width="76.85" height=".28"/>
          <rect class="cls-79" x="277.65" y="60.07" width="76.85" height=".28"/>
          <rect class="cls-80" x="277.65" y="60.36" width="76.85" height=".28"/>
          <rect class="cls-50" x="277.65" y="60.64" width="76.85" height=".28"/>
          <rect class="cls-84" x="277.65" y="60.93" width="76.85" height=".28"/>
          <rect class="cls-106" x="277.65" y="61.21" width="76.85" height=".28"/>
          <rect class="cls-17" x="277.65" y="61.5" width="76.85" height=".28"/>
          <rect class="cls-129" x="277.65" y="61.78" width="76.85" height=".28"/>
          <rect class="cls-3" x="277.65" y="62.06" width="76.85" height=".28"/>
          <rect class="cls-114" x="277.65" y="62.35" width="76.85" height=".28"/>
          <rect class="cls-27" x="277.65" y="62.63" width="76.85" height=".28"/>
          <rect class="cls-12" x="277.65" y="62.92" width="76.85" height=".28"/>
          <rect class="cls-113" x="277.65" y="63.2" width="76.85" height=".28"/>
          <rect class="cls-41" x="277.65" y="63.49" width="76.85" height=".28"/>
          <rect class="cls-116" x="277.65" y="63.77" width="76.85" height=".28"/>
          <rect class="cls-55" x="277.65" y="64.05" width="76.85" height=".28"/>
          <rect class="cls-77" x="277.65" y="64.34" width="76.85" height=".28"/>
          <rect class="cls-104" x="277.65" y="64.62" width="76.85" height=".28"/>
          <rect class="cls-130" x="277.65" y="64.91" width="76.85" height=".28"/>
          <rect class="cls-61" x="277.65" y="65.19" width="76.85" height=".28"/>
          <rect class="cls-99" x="277.65" y="65.48" width="76.85" height=".28"/>
          <rect class="cls-124" x="277.65" y="65.76" width="76.85" height=".28"/>
          <rect class="cls-105" x="277.65" y="66.04" width="76.85" height=".28"/>
          <rect class="cls-65" x="277.65" y="66.33" width="76.85" height=".28"/>
          <rect class="cls-128" x="277.65" y="66.61" width="76.85" height=".28"/>
          <rect class="cls-9" x="277.65" y="66.9" width="76.85" height=".28"/>
          <rect class="cls-75" x="277.65" y="67.18" width="76.85" height=".28"/>
          <rect class="cls-54" x="277.65" y="67.47" width="76.85" height=".28"/>
          <rect class="cls-89" x="277.65" y="67.75" width="76.85" height=".28"/>
          <rect class="cls-74" x="277.65" y="68.03" width="76.85" height=".28"/>
          <rect class="cls-49" x="277.65" y="68.32" width="76.85" height=".28"/>
          <rect class="cls-19" x="277.65" y="68.6" width="76.85" height=".28"/>
          <rect class="cls-101" x="277.65" y="68.89" width="76.85" height=".28"/>
          <rect class="cls-2" x="277.65" y="69.17" width="76.85" height=".28"/>
          <rect class="cls-11" x="277.65" y="69.45" width="76.85" height=".28"/>
          <rect class="cls-85" x="277.65" y="69.74" width="76.85" height=".28"/>
          <rect class="cls-58" x="277.65" y="70.02" width="76.85" height=".28"/>
          <rect class="cls-26" x="277.65" y="70.31" width="76.85" height=".28"/>
          <rect class="cls-115" x="277.65" y="70.59" width="76.85" height=".28"/>
          <rect class="cls-40" x="277.65" y="70.88" width="76.85" height=".28"/>
          <rect class="cls-95" x="277.65" y="71.16" width="76.85" height=".28"/>
          <rect class="cls-96" x="277.65" y="71.44" width="76.85" height=".28"/>
          <rect class="cls-125" x="277.65" y="71.73" width="76.85" height=".28"/>
          <rect class="cls-29" x="277.65" y="72.01" width="76.85" height=".28"/>
          <rect class="cls-67" x="277.65" y="72.3" width="76.85" height=".28"/>
          <rect class="cls-62" x="277.65" y="72.58" width="76.85" height=".28"/>
          <rect class="cls-121" x="277.65" y="72.87" width="76.85" height=".28"/>
          <rect class="cls-107" x="277.65" y="73.15" width="76.85" height=".28"/>
          <rect class="cls-56" x="277.65" y="73.43" width="76.85" height=".28"/>
          <rect class="cls-37" x="277.65" y="73.72" width="76.85" height=".28"/>
          <rect class="cls-127" x="277.65" y="74" width="76.85" height=".28"/>
          <rect class="cls-53" x="277.65" y="74.29" width="76.85" height=".28"/>
          <rect class="cls-21" x="277.65" y="74.57" width="76.85" height=".28"/>
          <rect class="cls-15" x="277.65" y="74.86" width="76.85" height=".28"/>
          <rect class="cls-123" x="277.65" y="75.14" width="76.85" height=".28"/>
          <rect class="cls-10" x="277.65" y="75.42" width="76.85" height=".28"/>
          <rect class="cls-10" x="277.65" y="75.71" width="76.85" height=".28"/>
        </g>
        <path class="cls-112" d="m354.51,76.35h-76.85c-.2,0-.36-.16-.36-.36V29.94c0-.2.16-.36.36-.36h76.85c.2,0,.36.16.36.36v46.05c0,.2-.16.36-.36.36Zm-76.49-.72h76.13V30.3h-76.13v45.33Z"/>
      </g>
      <path class="cls-38" d="m304.22,76l-2.71-22.11h.14c0-8.07,6.53-14.58,14.57-14.58s14.53,6.48,14.57,14.49h-.15l-2.72,22.2h-23.71Z"/>
      <g class="cls-110">
        <path class="cls-4" d="m304.22,76l-2.71-22.11h.14c0-8.07,6.53-14.58,14.57-14.58s14.53,6.48,14.57,14.49h-.15l-2.72,22.2h-23.71Z"/>
      </g>
      <path class="cls-112" d="m354.5,76.36h-76.85c-.2,0-.36-.16-.36-.36V29.94c0-.2.16-.36.36-.36h76.85c.2,0,.36.16.36.36v46.05c0,.2-.16.36-.36.36Zm-76.49-.72h76.13V30.31h-76.13v45.33Z"/>
      <path class="cls-112" d="m301.66,54.24c-.2,0-.36-.16-.36-.36,0-8.23,6.7-14.93,14.93-14.93s14.89,6.66,14.93,14.85l-.36.08h-.36v-.08c-.04-7.79-6.41-14.13-14.21-14.13s-14.21,6.37-14.21,14.21c0,.2-.16.36-.36.36Z"/>
      <path class="cls-112" d="m327.93,76.36s-.03,0-.04,0c-.2-.02-.34-.2-.31-.4l2.72-22.2c.02-.2.2-.34.4-.31.2.02.34.2.31.4l-2.72,22.2c-.02.18-.18.32-.36.32Z"/>
      <path class="cls-112" d="m304.22,76.36c-.18,0-.33-.13-.36-.32l-2.71-22.11c-.02-.2.11-.42.3-.44.19-.03.37.07.4.26v.09s2.72,22.12,2.72,22.12c.02.2-.12.38-.31.4-.02,0-.03,0-.04,0Z"/>
    </g>
  </g>
  <g>
    <polygon class="cls-24" points="393.25 33.17 393.25 38.3 393.25 84.36 469.95 84.36 469.95 38.3 469.95 33.17 393.25 33.17"/>
    <g>
      <g>
        <rect class="cls-10" x="390.02" y="29.94" width="76.7" height="5.13"/>
        <rect class="cls-10" x="390.02" y="35.08" width="76.7" height="46.05"/>
      </g>
      <g>
        <path class="cls-112" d="m466.72,35.44h-76.7c-.2,0-.36-.16-.36-.36s.16-.36.36-.36h76.7c.2,0,.36.16.36.36s-.16.36-.36.36Z"/>
        <path class="cls-112" d="m466.72,81.49h-76.7c-.2,0-.36-.16-.36-.36V29.94c0-.2.16-.36.36-.36h76.7c.2,0,.36.16.36.36v51.18c0,.2-.16.36-.36.36Zm-76.34-.72h75.98V30.3h-75.98v50.46Z"/>
      </g>
    </g>
  </g>
  <g>
    <g>
      <path class="cls-24" d="m63.17,65.06V24.37h-22.35v-6.34h-3.47v6.34H14.85v40.77c.04,2.76,2.29,4.98,5.06,4.98l.08.15h37.97v-.15c2.79,0,5.06-2.26,5.06-5.06h.15Zm59.79,0V24.37h-22.5v-6.34h-3.32v6.34h-22.5v40.77c.04,2.76,2.29,4.98,5.06,4.98l.08.15h37.97v-.15c2.79,0,5.06-2.26,5.06-5.06h.15Zm9.21-60.92v76.7H4.13V4.13h128.04Zm-23.55,16.23c0-1.12-.92-2.04-2.04-2.04s-2.04.92-2.04,2.04.92,2.04,2.04,2.04,2.04-.91,2.04-2.04Zm-15.7,0c0-1.12-.92-2.04-2.04-2.04s-2.04.92-2.04,2.04.92,2.04,2.04,2.04,2.04-.91,2.04-2.04Zm-44.09,0c0-1.12-.92-2.04-2.04-2.04s-2.04.92-2.04,2.04.92,2.04,2.04,2.04,2.04-.91,2.04-2.04Zm-15.55,0c0-1.12-.92-2.04-2.04-2.04s-2.04.92-2.04,2.04.92,2.04,2.04,2.04,2.04-.91,2.04-2.04Z"/>
      <path class="cls-24" d="m117.83,59.92v-25.29l-.15-.08c0-2.77-2.23-5.02-4.98-5.06h-12.23v-5.13h22.5v40.69h-.15c0,2.79-2.26,5.06-5.06,5.06v.15h-37.97l-.08-.15c-2.77,0-5.02-2.23-5.06-4.98V24.37h22.5v5.13h-12.31c-2.79,0-5.06,2.26-5.06,5.06v25.44c.04,2.76,2.29,4.98,5.06,4.98l.08.15h27.71v-.15c2.79,0,5.06-2.26,5.06-5.06h.15Z"/>
      <path class="cls-24" d="m117.83,34.63v25.29h-.15c0,2.79-2.26,5.06-5.06,5.06v.15h-27.71l-.08-.15c-2.77,0-5.02-2.23-5.06-4.98v-25.44c0-2.79,2.26-5.06,5.06-5.06h12.31v6.19h3.32v-6.19h12.23c2.76.04,4.98,2.29,4.98,5.06l.15.08Zm-12.98,12.61c0-3.12-2.53-5.66-5.66-5.66s-5.66,2.54-5.66,5.66,2.53,5.66,5.66,5.66,5.66-2.53,5.66-5.66Z"/>
      <circle class="cls-24" cx="106.58" cy="20.37" r="2.04"/>
      <path class="cls-24" d="m99.18,41.58c3.13,0,5.66,2.54,5.66,5.66s-2.53,5.66-5.66,5.66-5.66-2.53-5.66-5.66,2.53-5.66,5.66-5.66Zm3.1,5.66c0-1.71-1.38-3.1-3.1-3.1s-3.1,1.38-3.1,3.1,1.38,3.1,3.1,3.1,3.1-1.38,3.1-3.1Z"/>
      <path class="cls-24" d="m99.18,44.15c1.71,0,3.1,1.38,3.1,3.1s-1.38,3.1-3.1,3.1-3.1-1.38-3.1-3.1,1.38-3.1,3.1-3.1Z"/>
      <polygon class="cls-24" points="100.46 29.5 100.46 35.69 97.14 35.69 97.14 29.5 97.14 24.37 97.14 18.03 100.46 18.03 100.46 24.37 100.46 29.5"/>
      <path class="cls-24" d="m90.88,18.33c1.12,0,2.04.92,2.04,2.04s-.92,2.04-2.04,2.04-2.04-.91-2.04-2.04.92-2.04,2.04-2.04Z"/>
      <path class="cls-24" d="m52.98,65.13v-.15c2.77,0,5.02-2.23,5.06-4.98v-25.44c0-2.77-2.23-5.02-4.98-5.06h-12.23v-5.13h22.35v40.69h-.15c0,2.79-2.26,5.06-5.06,5.06v.15H19.99l-.08-.15c-2.77,0-5.02-2.23-5.06-4.98V24.37h22.5v5.13h-12.31c-2.79,0-5.06,2.26-5.06,5.06v25.44c.04,2.76,2.29,4.98,5.06,4.98l.08.15h27.86Z"/>
      <path class="cls-24" d="m58.04,59.92v.08c-.04,2.76-2.29,4.98-5.06,4.98v.15h-27.86l-.08-.15c-2.77,0-5.02-2.23-5.06-4.98v-25.44c0-2.79,2.26-5.06,5.06-5.06h12.31v6.19h3.47v-6.19h12.23c2.76.04,4.98,2.29,4.98,5.06v25.37Zm-13.89-12.68c0-3.12-2.53-5.66-5.66-5.66s-5.66,2.54-5.66,5.66,2.53,5.66,5.66,5.66,5.66-2.53,5.66-5.66Z"/>
      <path class="cls-24" d="m46.79,18.33c1.12,0,2.04.92,2.04,2.04s-.92,2.04-2.04,2.04-2.04-.91-2.04-2.04.92-2.04,2.04-2.04Z"/>
      <path class="cls-24" d="m38.48,41.58c3.13,0,5.66,2.54,5.66,5.66s-2.53,5.66-5.66,5.66-5.66-2.53-5.66-5.66,2.53-5.66,5.66-5.66Zm3.1,5.66c0-1.71-1.38-3.1-3.1-3.1s-3.1,1.38-3.1,3.1,1.38,3.1,3.1,3.1,3.1-1.38,3.1-3.1Z"/>
      <path class="cls-24" d="m38.48,44.15c1.71,0,3.1,1.38,3.1,3.1s-1.38,3.1-3.1,3.1-3.1-1.38-3.1-3.1,1.38-3.1,3.1-3.1Z"/>
      <polygon class="cls-24" points="40.82 29.5 40.82 35.69 37.35 35.69 37.35 29.5 37.35 24.37 37.35 18.03 40.82 18.03 40.82 24.37 40.82 29.5"/>
      <path class="cls-24" d="m31.24,18.33c1.12,0,2.04.92,2.04,2.04s-.92,2.04-2.04,2.04-2.04-.91-2.04-2.04.92-2.04,2.04-2.04Z"/>
    </g>
    <g>
      <g>
        <path class="cls-10" d="m119.19,61.28V20.59h-22.5v-6.34h-3.32v6.34h-22.5v40.77c.04,2.76,2.29,4.98,5.06,4.98l.08.15h37.97v-.15c2.79,0,5.06-2.26,5.06-5.06h.15Zm-59.79,0V20.59h-22.35v-6.34h-3.47v6.34H11.08v40.77c.04,2.76,2.29,4.98,5.06,4.98l.08.15h37.97v-.15c2.79,0,5.06-2.26,5.06-5.06h.15ZM128.4.36v76.7H.36V.36h128.04Zm-23.55,16.23c0-1.12-.92-2.04-2.04-2.04s-2.04.92-2.04,2.04.92,2.04,2.04,2.04,2.04-.91,2.04-2.04Zm-15.7,0c0-1.12-.92-2.04-2.04-2.04s-2.04.92-2.04,2.04.92,2.04,2.04,2.04,2.04-.91,2.04-2.04Zm-44.09,0c0-1.12-.92-2.04-2.04-2.04s-2.04.92-2.04,2.04.92,2.04,2.04,2.04,2.04-.91,2.04-2.04Zm-15.55,0c0-1.12-.92-2.04-2.04-2.04s-2.04.92-2.04,2.04.92,2.04,2.04,2.04,2.04-.91,2.04-2.04Z"/>
        <path class="cls-10" d="m114.05,56.15v-25.29l-.15-.08c0-2.77-2.23-5.02-4.98-5.06h-12.23v-5.13h22.5v40.69h-.15c0,2.79-2.26,5.06-5.06,5.06v.15h-37.97l-.08-.15c-2.77,0-5.02-2.23-5.06-4.98V20.59h22.5v5.13h-12.31c-2.79,0-5.06,2.26-5.06,5.06v25.44c.04,2.76,2.29,4.98,5.06,4.98l.08.15h27.71v-.15c2.79,0,5.06-2.26,5.06-5.06h.15Z"/>
        <path class="cls-10" d="m114.05,30.86v25.29h-.15c0,2.79-2.26,5.06-5.06,5.06v.15h-27.71l-.08-.15c-2.77,0-5.02-2.23-5.06-4.98v-25.44c0-2.79,2.26-5.06,5.06-5.06h12.31v6.19h3.32v-6.19h12.23c2.76.04,4.98,2.29,4.98,5.06l.15.08Zm-12.98,12.61c0-3.12-2.53-5.66-5.66-5.66s-5.66,2.54-5.66,5.66,2.53,5.66,5.66,5.66,5.66-2.53,5.66-5.66Z"/>
        <circle class="cls-38" cx="102.81" cy="16.59" r="2.04"/>
        <path class="cls-97" d="m95.41,37.8c3.13,0,5.66,2.54,5.66,5.66s-2.53,5.66-5.66,5.66-5.66-2.53-5.66-5.66,2.53-5.66,5.66-5.66Zm3.1,5.66c0-1.71-1.38-3.1-3.1-3.1s-3.1,1.38-3.1,3.1,1.38,3.1,3.1,3.1,3.1-1.38,3.1-3.1Z"/>
        <path class="cls-10" d="m95.41,40.37c1.71,0,3.1,1.38,3.1,3.1s-1.38,3.1-3.1,3.1-3.1-1.38-3.1-3.1,1.38-3.1,3.1-3.1Z"/>
        <polygon class="cls-97" points="96.69 25.73 96.69 31.92 93.37 31.92 93.37 25.73 93.37 20.59 93.37 14.25 96.69 14.25 96.69 20.59 96.69 25.73"/>
        <path class="cls-39" d="m87.1,14.55c1.12,0,2.04.92,2.04,2.04s-.92,2.04-2.04,2.04-2.04-.91-2.04-2.04.92-2.04,2.04-2.04Z"/>
        <path class="cls-10" d="m49.2,61.36v-.15c2.77,0,5.02-2.23,5.06-4.98v-25.44c0-2.77-2.23-5.02-4.98-5.06h-12.23v-5.13h22.35v40.69h-.15c0,2.79-2.26,5.06-5.06,5.06v.15H16.21l-.08-.15c-2.77,0-5.02-2.23-5.06-4.98V20.59h22.5v5.13h-12.31c-2.79,0-5.06,2.26-5.06,5.06v25.44c.04,2.76,2.29,4.98,5.06,4.98l.08.15h27.86Z"/>
        <path class="cls-10" d="m54.26,56.15v.08c-.04,2.76-2.29,4.98-5.06,4.98v.15h-27.86l-.08-.15c-2.77,0-5.02-2.23-5.06-4.98v-25.44c0-2.79,2.26-5.06,5.06-5.06h12.31v6.19h3.47v-6.19h12.23c2.76.04,4.98,2.29,4.98,5.06v25.37Zm-13.89-12.68c0-3.12-2.53-5.66-5.66-5.66s-5.66,2.54-5.66,5.66,2.53,5.66,5.66,5.66,5.66-2.53,5.66-5.66Z"/>
        <path class="cls-38" d="m43.01,14.55c1.12,0,2.04.92,2.04,2.04s-.92,2.04-2.04,2.04-2.04-.91-2.04-2.04.92-2.04,2.04-2.04Z"/>
        <path class="cls-97" d="m34.71,37.8c3.13,0,5.66,2.54,5.66,5.66s-2.53,5.66-5.66,5.66-5.66-2.53-5.66-5.66,2.53-5.66,5.66-5.66Zm3.1,5.66c0-1.71-1.38-3.1-3.1-3.1s-3.1,1.38-3.1,3.1,1.38,3.1,3.1,3.1,3.1-1.38,3.1-3.1Z"/>
        <path class="cls-10" d="m34.71,40.37c1.71,0,3.1,1.38,3.1,3.1s-1.38,3.1-3.1,3.1-3.1-1.38-3.1-3.1,1.38-3.1,3.1-3.1Z"/>
        <polygon class="cls-97" points="37.05 25.73 37.05 31.92 33.58 31.92 33.58 25.73 33.58 20.59 33.58 14.25 37.05 14.25 37.05 20.59 37.05 25.73"/>
        <path class="cls-39" d="m27.46,14.55c1.12,0,2.04.92,2.04,2.04s-.92,2.04-2.04,2.04-2.04-.91-2.04-2.04.92-2.04,2.04-2.04Z"/>
      </g>
      <g>
        <path class="cls-112" d="m77.21,77.42H.36c-.2,0-.36-.16-.36-.36s.16-.36.36-.36h76.85c.2,0,.36.16.36.36s-.16.36-.36.36Z"/>
        <path class="cls-112" d="m.36,77.42c-.2,0-.36-.16-.36-.36V.36c0-.2.16-.36.36-.36h128.04c.2,0,.36.16.36.36s-.16.36-.36.36H.72v76.34c0,.2-.16.36-.36.36Z"/>
        <path class="cls-112" d="m128.4,77.42h-51.18c-.2,0-.36-.16-.36-.36s.16-.36.36-.36h50.83V.36c0-.2.16-.36.36-.36s.36.16.36.36v76.7c0,.2-.16.36-.36.36Z"/>
        <path class="cls-112" d="m59.4,61.68c-.2,0-.36-.12-.36-.32V20.95h-21.99c-.2,0-.36-.16-.36-.36s.16-.36.36-.36h22.35c.2,0,.36.16.36.36v40.69c0,.2-.16.4-.36.4Z"/>
        <path class="cls-112" d="m54.19,66.7c-.2,0-.36-.16-.36-.36s.16-.36.36-.36c2.59,0,4.7-2.11,4.7-4.7,0-.2.16-.36.36-.36s.36.16.36.36c0,2.99-2.43,5.42-5.42,5.42Z"/>
        <path class="cls-112" d="m54.26,66.85H16.21c-.2,0-.36-.16-.36-.36s.16-.36.36-.36h37.97c.2,0,.4.16.4.36s-.12.36-.32.36Z"/>
        <path class="cls-112" d="m16.14,66.7c-2.95,0-5.38-2.39-5.42-5.34,0-.2.16-.36.36-.37.21.02.36.16.36.36.04,2.55,2.14,4.63,4.7,4.63.2,0,.36.16.36.36s-.16.36-.36.36Z"/>
        <path class="cls-112" d="m11.08,61.68c-.2,0-.36-.12-.36-.32V20.59c0-.2.16-.36.36-.36h22.5c.2,0,.36.16.36.36s-.16.36-.36.36H11.44v40.33c0,.2-.16.4-.36.4Z"/>
        <path class="cls-112" d="m49.2,26.09h-12.15c-.2,0-.36-.16-.36-.36s.16-.36.36-.36h12.15c.2,0,.36.16.36.36s-.16.36-.36.36Z"/>
        <path class="cls-112" d="m54.26,31.14c-.2,0-.36-.16-.36-.36,0-2.56-2.08-4.66-4.63-4.7-.2,0-.39-.17-.39-.36,0-.2.12-.36.32-.36,3.02.04,5.42,2.47,5.42,5.42,0,.2-.16.36-.36.36Z"/>
        <path class="cls-112" d="m54.26,56.51c-.2,0-.36-.16-.36-.36v-25.29c0-.2.16-.36.36-.36s.36.16.36.36v25.29c0,.2-.16.36-.36.36Z"/>
        <path class="cls-112" d="m49.2,61.57c-.2,0-.36-.16-.36-.36s.16-.36.36-.36c2.56,0,4.66-2.08,4.7-4.63,0-.2.16-.39.36-.39h0c.2,0,.36.12.36.32-.04,3.02-2.47,5.42-5.42,5.42Z"/>
        <path class="cls-112" d="m49.28,61.72h-27.93c-.2,0-.36-.16-.36-.36s.16-.36.36-.36h27.86c.2,0,.4.16.4.36s-.12.36-.32.36Z"/>
        <path class="cls-112" d="m21.27,61.57c-2.95,0-5.38-2.39-5.42-5.34,0-.2.16-.36.35-.37.23,0,.36.16.36.36.04,2.55,2.14,4.63,4.7,4.63.2,0,.36.16.36.36s-.16.36-.36.36Z"/>
        <path class="cls-112" d="m16.21,56.55c-.2,0-.36-.12-.36-.32v-25.37c0-.2.16-.36.36-.36s.36.16.36.36v25.29c0,.2-.16.4-.36.4Z"/>
        <path class="cls-112" d="m16.21,31.14c-.2,0-.36-.16-.36-.36,0-2.99,2.43-5.42,5.42-5.42.2,0,.36.16.36.36s-.16.36-.36.36c-2.59,0-4.7,2.11-4.7,4.7,0,.2-.16.36-.36.36Z"/>
        <path class="cls-112" d="m33.58,26.09h-12.23c-.2,0-.36-.16-.36-.36s.16-.36.36-.36h12.23c.2,0,.36.16.36.36s-.16.36-.36.36Z"/>
        <path class="cls-92" d="m34.71,40.37c-1.71,0-3.1,1.38-3.1,3.1s1.38,3.1,3.1,3.1,3.1-1.38,3.1-3.1-1.38-3.1-3.1-3.1Z"/>
        <path class="cls-92" d="m34.71,37.8c-3.13,0-5.66,2.54-5.66,5.66s2.53,5.66,5.66,5.66,5.66-2.53,5.66-5.66-2.53-5.66-5.66-5.66Z"/>
        <path class="cls-112" d="m37.05,32.28h-3.47c-.2,0-.36-.16-.36-.36V14.25c0-.2.16-.36.36-.36h3.47c.2,0,.36.16.36.36v17.66c0,.2-.16.36-.36.36Zm-3.11-.72h2.75V14.61h-2.75v16.94Z"/>
        <path class="cls-112" d="m70.87,61.64c-.2,0-.36-.16-.36-.36V20.59c0-.2.16-.36.36-.36h22.5c.2,0,.36.16.36.36s-.16.36-.36.36h-22.14v40.33c0,.2-.16.36-.36.36Z"/>
        <path class="cls-112" d="m75.93,66.7c-2.95,0-5.38-2.39-5.42-5.34l.36-.08h.36v.08c.04,2.55,2.14,4.62,4.7,4.62.2,0,.36.16.36.36s-.16.36-.36.36Z"/>
        <path class="cls-112" d="m114.05,66.85h-38.05c-.2,0-.36-.16-.36-.36s.16-.36.36-.36h37.97c.2,0,.4.16.4.36s-.12.36-.32.36Z"/>
        <path class="cls-112" d="m113.98,66.7c-.2,0-.36-.16-.36-.36s.16-.36.36-.36c2.59,0,4.7-2.11,4.7-4.7,0-.2.16-.36.36-.36s.36.16.36.36c0,2.99-2.43,5.42-5.42,5.42Z"/>
        <path class="cls-112" d="m119.19,61.68c-.2,0-.36-.12-.36-.32V20.95h-22.14c-.2,0-.36-.16-.36-.36s.16-.36.36-.36h22.5c.2,0,.36.16.36.36v40.69c0,.2-.16.4-.36.4Z"/>
        <path class="cls-112" d="m93.37,26.09h-12.23c-.2,0-.36-.16-.36-.36s.16-.36.36-.36h12.23c.2,0,.36.16.36.36s-.16.36-.36.36Z"/>
        <path class="cls-112" d="m76,31.14c-.2,0-.36-.16-.36-.36,0-2.99,2.43-5.42,5.42-5.42.2,0,.36.16.36.36s-.16.36-.36.36c-2.59,0-4.7,2.11-4.7,4.7,0,.2-.16.36-.36.36Z"/>
        <path class="cls-112" d="m76,56.51c-.2,0-.36-.16-.36-.36v-25.29c0-.2.16-.36.36-.36s.36.16.36.36v25.29c0,.2-.16.36-.36.36Z"/>
        <path class="cls-112" d="m81.06,61.57c-2.95,0-5.38-2.39-5.42-5.34l.36-.08h.36v.08c.04,2.55,2.14,4.62,4.7,4.62.2,0,.36.16.36.36s-.16.36-.36.36Z"/>
        <path class="cls-112" d="m108.92,61.72h-27.78c-.2,0-.36-.16-.36-.36s.16-.36.36-.36h27.71c.2,0,.4.16.4.36s-.12.36-.32.36Z"/>
        <path class="cls-112" d="m108.84,61.57c-.2,0-.36-.16-.36-.36s.16-.36.36-.36c2.59,0,4.7-2.11,4.7-4.7,0-.2.16-.36.36-.36s.36.16.36.36c0,2.99-2.43,5.42-5.42,5.42Z"/>
        <path class="cls-112" d="m114.05,56.55c-.2,0-.36-.12-.36-.32v-25.37c0-.2.16-.36.36-.36s.36.16.36.36v25.29c0,.2-.16.4-.36.4Z"/>
        <path class="cls-112" d="m113.9,31.14c-.2,0-.36-.16-.36-.36,0-2.56-2.08-4.66-4.63-4.7-.2,0-.36-.17-.36-.37,0-.2.2-.38.36-.36,2.94.04,5.34,2.47,5.34,5.42,0,.2-.16.36-.36.36Z"/>
        <path class="cls-112" d="m108.92,26.09h-12.23c-.2,0-.36-.16-.36-.36s.16-.36.36-.36h12.15c.2,0,.4.16.4.36s-.12.36-.32.36Z"/>
        <path class="cls-92" d="m95.41,40.37c-1.71,0-3.1,1.38-3.1,3.1s1.38,3.1,3.1,3.1,3.1-1.38,3.1-3.1-1.38-3.1-3.1-3.1Z"/>
        <path class="cls-92" d="m95.41,37.8c-3.13,0-5.66,2.54-5.66,5.66s2.53,5.66,5.66,5.66,5.66-2.53,5.66-5.66-2.53-5.66-5.66-5.66Z"/>
        <path class="cls-112" d="m36.14,43.9h-2.57c-.2,0-.36-.16-.36-.36s.16-.36.36-.36h2.57c.2,0,.36.16.36.36s-.16.36-.36.36Z"/>
        <path class="cls-112" d="m34.79,45.26c-.2,0-.36-.16-.36-.36v-2.57c0-.2.16-.36.36-.36s.36.16.36.36v2.57c0,.2-.16.36-.36.36Z"/>
        <path class="cls-112" d="m96.69,43.9h-2.57c-.2,0-.36-.16-.36-.36s.16-.36.36-.36h2.57c.2,0,.36.16.36.36s-.16.36-.36.36Z"/>
        <path class="cls-112" d="m95.48,45.26c-.2,0-.36-.16-.36-.36v-2.57c0-.2.16-.36.36-.36s.36.16.36.36v2.57c0,.2-.16.36-.36.36Z"/>
        <path class="cls-92" d="m27.46,14.55c-1.12,0-2.04.92-2.04,2.04s.92,2.04,2.04,2.04,2.04-.91,2.04-2.04-.92-2.04-2.04-2.04Z"/>
        <path class="cls-92" d="m43.01,14.55c-1.12,0-2.04.92-2.04,2.04s.92,2.04,2.04,2.04,2.04-.91,2.04-2.04-.92-2.04-2.04-2.04Z"/>
        <path class="cls-112" d="m96.69,32.28h-3.32c-.2,0-.36-.16-.36-.36V14.25c0-.2.16-.36.36-.36h3.32c.2,0,.36.16.36.36v17.66c0,.2-.16.36-.36.36Zm-2.96-.72h2.6V14.61h-2.6v16.94Z"/>
        <path class="cls-92" d="m87.1,14.55c-1.12,0-2.04.92-2.04,2.04s.92,2.04,2.04,2.04,2.04-.91,2.04-2.04-.92-2.04-2.04-2.04Z"/>
        <circle class="cls-92" cx="102.81" cy="16.59" r="2.04"/>
      </g>
    </g>
  </g>
  <g>
    <g>
      <path class="cls-24" d="m230.74,65.06V24.37h-22.5v-6.34h-3.32v6.34h-22.5v40.77c.04,2.76,2.29,4.98,5.06,4.98l.08.15h37.97v-.15c2.79,0,5.06-2.26,5.06-5.06h.15Zm14.19-60.92v76.7h-76.7V4.13h76.7Zm-28.54,16.23c0-1.12-.92-2.04-2.04-2.04s-2.04.92-2.04,2.04.92,2.04,2.04,2.04,2.04-.91,2.04-2.04Zm-15.7,0c0-1.12-.92-2.04-2.04-2.04s-2.04.92-2.04,2.04.92,2.04,2.04,2.04,2.04-.91,2.04-2.04Z"/>
      <path class="cls-24" d="m225.61,59.92v-25.29l-.15-.08c0-2.77-2.23-5.02-4.98-5.06h-12.23v-5.13h22.5v40.69h-.15c0,2.79-2.26,5.06-5.06,5.06v.15h-37.97l-.08-.15c-2.77,0-5.02-2.23-5.06-4.98V24.37h22.5v5.13h-12.31c-2.79,0-5.06,2.26-5.06,5.06v25.44c.04,2.76,2.29,4.98,5.06,4.98l.08.15h27.71v-.15c2.79,0,5.06-2.26,5.06-5.06h.15Z"/>
      <path class="cls-24" d="m225.61,34.63v25.29h-.15c0,2.79-2.26,5.06-5.06,5.06v.15h-27.71l-.08-.15c-2.77,0-5.02-2.23-5.06-4.98v-25.44c0-2.79,2.26-5.06,5.06-5.06h12.31v6.19h3.32v-6.19h12.23c2.76.04,4.98,2.29,4.98,5.06l.15.08Zm-13.89,12.61c0-3.12-2.53-5.66-5.66-5.66s-5.66,2.54-5.66,5.66,2.53,5.66,5.66,5.66,5.66-2.53,5.66-5.66Z"/>
      <path class="cls-24" d="m214.36,18.33c1.12,0,2.04.92,2.04,2.04s-.92,2.04-2.04,2.04-2.04-.91-2.04-2.04.92-2.04,2.04-2.04Z"/>
      <path class="cls-24" d="m206.06,41.58c3.13,0,5.66,2.54,5.66,5.66s-2.53,5.66-5.66,5.66-5.66-2.53-5.66-5.66,2.53-5.66,5.66-5.66Zm3.1,5.66c0-1.71-1.38-3.1-3.1-3.1s-3.1,1.38-3.1,3.1,1.38,3.1,3.1,3.1,3.1-1.38,3.1-3.1Z"/>
      <path class="cls-24" d="m206.06,44.15c1.71,0,3.1,1.38,3.1,3.1s-1.38,3.1-3.1,3.1-3.1-1.38-3.1-3.1,1.38-3.1,3.1-3.1Z"/>
      <polygon class="cls-24" points="208.25 29.5 208.25 35.69 204.92 35.69 204.92 29.5 204.92 24.37 204.92 18.03 208.25 18.03 208.25 24.37 208.25 29.5"/>
      <circle class="cls-24" cx="198.66" cy="20.37" r="2.04"/>
    </g>
    <g>
      <g>
        <path class="cls-10" d="m226.97,61.28V20.59h-22.5v-6.34h-3.32v6.34h-22.5v40.77c.04,2.76,2.29,4.98,5.06,4.98l.08.15h37.97v-.15c2.79,0,5.06-2.26,5.06-5.06h.15ZM241.16.36v76.7h-76.7V.36h76.7Zm-28.54,16.23c0-1.12-.92-2.04-2.04-2.04s-2.04.92-2.04,2.04.92,2.04,2.04,2.04,2.04-.91,2.04-2.04Zm-15.7,0c0-1.12-.92-2.04-2.04-2.04s-2.04.92-2.04,2.04.92,2.04,2.04,2.04,2.04-.91,2.04-2.04Z"/>
        <path class="cls-10" d="m221.83,56.15v-25.29l-.15-.08c0-2.77-2.23-5.02-4.98-5.06h-12.23v-5.13h22.5v40.69h-.15c0,2.79-2.26,5.06-5.06,5.06v.15h-37.97l-.08-.15c-2.77,0-5.02-2.23-5.06-4.98V20.59h22.5v5.13h-12.31c-2.79,0-5.06,2.26-5.06,5.06v25.44c.04,2.76,2.29,4.98,5.06,4.98l.08.15h27.71v-.15c2.79,0,5.06-2.26,5.06-5.06h.15Z"/>
        <path class="cls-10" d="m221.83,30.86v25.29h-.15c0,2.79-2.26,5.06-5.06,5.06v.15h-27.71l-.08-.15c-2.77,0-5.02-2.23-5.06-4.98v-25.44c0-2.79,2.26-5.06,5.06-5.06h12.31v6.19h3.32v-6.19h12.23c2.76.04,4.98,2.29,4.98,5.06l.15.08Zm-13.89,12.61c0-3.12-2.53-5.66-5.66-5.66s-5.66,2.54-5.66,5.66,2.53,5.66,5.66,5.66,5.66-2.53,5.66-5.66Z"/>
        <path class="cls-38" d="m210.59,14.55c1.12,0,2.04.92,2.04,2.04s-.92,2.04-2.04,2.04-2.04-.91-2.04-2.04.92-2.04,2.04-2.04Z"/>
        <path class="cls-97" d="m202.28,37.8c3.13,0,5.66,2.54,5.66,5.66s-2.53,5.66-5.66,5.66-5.66-2.53-5.66-5.66,2.53-5.66,5.66-5.66Zm3.1,5.66c0-1.71-1.38-3.1-3.1-3.1s-3.1,1.38-3.1,3.1,1.38,3.1,3.1,3.1,3.1-1.38,3.1-3.1Z"/>
        <path class="cls-10" d="m202.28,40.37c1.71,0,3.1,1.38,3.1,3.1s-1.38,3.1-3.1,3.1-3.1-1.38-3.1-3.1,1.38-3.1,3.1-3.1Z"/>
        <polygon class="cls-97" points="204.47 25.73 204.47 31.92 201.15 31.92 201.15 25.73 201.15 20.59 201.15 14.25 204.47 14.25 204.47 20.59 204.47 25.73"/>
        <circle class="cls-39" cx="194.88" cy="16.59" r="2.04"/>
      </g>
      <g>
        <path class="cls-112" d="m241.16,77.42h-76.7c-.2,0-.36-.16-.36-.36s.16-.36.36-.36h76.7c.2,0,.36.16.36.36s-.16.36-.36.36Z"/>
        <path class="cls-112" d="m241.16,77.42c-.2,0-.36-.16-.36-.36V.72h-75.98v76.34c0,.2-.16.36-.36.36s-.36-.16-.36-.36V.36c0-.2.16-.36.36-.36h76.7c.2,0,.36.16.36.36v76.7c0,.2-.16.36-.36.36Z"/>
        <path class="cls-112" d="m226.97,61.68c-.2,0-.36-.12-.36-.32V20.95h-22.14c-.2,0-.36-.16-.36-.36s.16-.36.36-.36h22.5c.2,0,.36.16.36.36v40.69c0,.2-.16.4-.36.4Z"/>
        <path class="cls-112" d="m221.76,66.7c-.2,0-.36-.16-.36-.36s.16-.36.36-.36c2.59,0,4.7-2.11,4.7-4.7,0-.2.16-.36.36-.36s.36.16.36.36c0,2.99-2.43,5.42-5.42,5.42Z"/>
        <path class="cls-112" d="m221.83,66.85h-38.05c-.2,0-.36-.16-.36-.36s.16-.36.36-.36h37.97c.2,0,.4.16.4.36s-.12.36-.32.36Z"/>
        <path class="cls-112" d="m183.71,66.7c-2.95,0-5.38-2.39-5.42-5.34,0-.2.16-.36.35-.37.22.02.36.16.36.36.04,2.55,2.14,4.63,4.7,4.63.2,0,.36.16.36.36s-.16.36-.36.36Z"/>
        <path class="cls-112" d="m178.65,61.68c-.2,0-.36-.12-.36-.32V20.59c0-.2.16-.36.36-.36h22.5c.2,0,.36.16.36.36s-.16.36-.36.36h-22.14v40.33c0,.2-.16.4-.36.4Z"/>
        <path class="cls-112" d="m216.62,26.09h-12.15c-.2,0-.36-.16-.36-.36s.16-.36.36-.36h12.15c.2,0,.36.16.36.36s-.16.36-.36.36Z"/>
        <path class="cls-112" d="m221.68,31.14c-.2,0-.36-.16-.36-.36,0-2.56-2.08-4.66-4.63-4.7-.2,0-.39-.17-.39-.36,0-.2.12-.36.32-.36,3.02.04,5.42,2.47,5.42,5.42,0,.2-.16.36-.36.36Z"/>
        <path class="cls-112" d="m221.83,56.55c-.2,0-.36-.12-.36-.32v-25.37c0-.2.16-.36.36-.36s.36.16.36.36v25.29c0,.2-.16.4-.36.4Z"/>
        <path class="cls-112" d="m216.62,61.57c-.2,0-.36-.16-.36-.36s.16-.36.36-.36c2.59,0,4.7-2.11,4.7-4.7,0-.2.16-.36.36-.36s.36.16.36.36c0,2.99-2.43,5.42-5.42,5.42Z"/>
        <path class="cls-112" d="m216.7,61.72h-27.78c-.2,0-.36-.16-.36-.36s.16-.36.36-.36h27.71c.2,0,.4.16.4.36s-.12.36-.32.36Z"/>
        <path class="cls-112" d="m188.84,61.57c-2.95,0-5.38-2.39-5.42-5.34,0-.2.16-.36.36-.37.24,0,.36.16.36.36.04,2.55,2.14,4.63,4.7,4.63.2,0,.36.16.36.36s-.16.36-.36.36Z"/>
        <path class="cls-112" d="m183.79,56.55c-.2,0-.36-.12-.36-.32v-25.37c0-.2.16-.36.36-.36s.36.16.36.36v25.29c0,.2-.16.4-.36.4Z"/>
        <path class="cls-112" d="m183.79,31.14c-.2,0-.36-.16-.36-.36,0-2.99,2.43-5.42,5.42-5.42.2,0,.36.16.36.36s-.16.36-.36.36c-2.59,0-4.7,2.11-4.7,4.7,0,.2-.16.36-.36.36Z"/>
        <path class="cls-112" d="m201.15,26.09h-12.23c-.2,0-.36-.16-.36-.36s.16-.36.36-.36h12.23c.2,0,.36.16.36.36s-.16.36-.36.36Z"/>
        <path class="cls-92" d="m202.28,40.37c-1.71,0-3.1,1.38-3.1,3.1s1.38,3.1,3.1,3.1,3.1-1.38,3.1-3.1-1.38-3.1-3.1-3.1Z"/>
        <path class="cls-92" d="m202.28,37.8c-3.13,0-5.66,2.54-5.66,5.66s2.53,5.66,5.66,5.66,5.66-2.53,5.66-5.66-2.53-5.66-5.66-5.66Z"/>
        <path class="cls-112" d="m204.47,32.28h-3.32c-.2,0-.36-.16-.36-.36V14.25c0-.2.16-.36.36-.36h3.32c.2,0,.36.16.36.36v17.66c0,.2-.16.36-.36.36Zm-2.96-.72h2.6V14.61h-2.6v16.94Z"/>
        <path class="cls-112" d="m203.56,43.9h-2.57c-.2,0-.36-.16-.36-.36s.16-.36.36-.36h2.57c.2,0,.36.16.36.36s-.16.36-.36.36Z"/>
        <path class="cls-112" d="m202.36,45.26c-.2,0-.36-.16-.36-.36v-2.57c0-.2.16-.36.36-.36s.36.16.36.36v2.57c0,.2-.16.36-.36.36Z"/>
        <circle class="cls-92" cx="194.88" cy="16.59" r="2.04"/>
        <path class="cls-92" d="m210.59,14.55c-1.12,0-2.04.92-2.04,2.04s.92,2.04,2.04,2.04,2.04-.91,2.04-2.04-.92-2.04-2.04-2.04Z"/>
      </g>
    </g>
  </g>
</svg>