<?xml version="1.0" encoding="UTF-8"?>
<svg id="Layer_1" data-name="Layer 1" xmlns="http://www.w3.org/2000/svg" viewBox="0 0 397.62 278.33">
  <defs>
    <style>
      .cls-1 {
        fill: #fff;
      }

      .cls-2 {
        fill: #fafbf9;
      }

      .cls-3 {
        fill: #939598;
      }

      .cls-4 {
        fill: #6e6f72;
      }

      .cls-5 {
        fill: #cdcdcf;
      }

      .cls-6 {
        fill: #818285;
      }

      .cls-7 {
        fill: #27281f;
      }

      .cls-8 {
        fill: none;
        stroke: #27281f;
        stroke-linecap: round;
        stroke-linejoin: round;
        stroke-width: .72px;
      }
    </style>
  </defs>
  <path class="cls-3" d="m325.21,4.13h-5.21v153.66h-.17c0,19.48-12.59,36.81-31.22,42.79v.13H4.13v77.62h393.49V4.13h-72.41Zm-74.85,227.15c1.81,0,3.28,1.47,3.28,3.28s-1.47,3.28-3.28,3.28-3.28-1.47-3.28-3.28,1.46-3.28,3.28-3.28Z"/>
  <g>
    <g>
      <path class="cls-4" d="m102.51,249.61c0-2.18-1.78-3.95-3.95-3.95s-3.95,1.76-3.95,3.95,1.76,3.95,3.95,3.95,3.95-1.76,3.95-3.95Zm2.69,0c0,3.67-2.98,6.64-6.64,6.64s-6.64-2.97-6.64-6.64,2.97-6.64,6.64-6.64,6.64,2.97,6.64,6.64Z"/>
      <path class="cls-4" d="m141.83,249.61c0,3.67-2.98,6.64-6.64,6.64s-6.64-2.97-6.64-6.64,2.97-6.64,6.64-6.64,6.64,2.97,6.64,6.64Zm-6.64,3.95c2.17,0,3.95-1.76,3.95-3.95s-1.78-3.95-3.95-3.95-3.95,1.76-3.95,3.95,1.76,3.95,3.95,3.95Z"/>
      <path class="cls-4" d="m141.83,214.66c0,3.67-2.98,6.64-6.64,6.64s-6.64-2.97-6.64-6.64,2.97-6.64,6.64-6.64,6.64,2.97,6.64,6.64Zm-6.64,3.95c2.17,0,3.95-1.76,3.95-3.95s-1.78-3.95-3.95-3.95-3.95,1.76-3.95,3.95,1.76,3.95,3.95,3.95Z"/>
      <path class="cls-4" d="m102.51,214.66c0-2.18-1.78-3.95-3.95-3.95s-3.95,1.76-3.95,3.95,1.76,3.95,3.95,3.95,3.95-1.76,3.95-3.95Zm2.69,0c0,3.67-2.98,6.64-6.64,6.64s-6.64-2.97-6.64-6.64,2.97-6.64,6.64-6.64,6.64,2.97,6.64,6.64Z"/>
      <path class="cls-6" d="m98.56,245.66c2.17,0,3.95,1.76,3.95,3.95s-1.78,3.95-3.95,3.95-3.95-1.76-3.95-3.95,1.76-3.95,3.95-3.95Z"/>
      <path class="cls-6" d="m105.2,249.61c0-3.67-2.98-6.64-6.64-6.64s-6.64,2.97-6.64,6.64,2.97,6.64,6.64,6.64,6.64-2.97,6.64-6.64Zm-15.79,0c0-5.05,4.09-9.16,9.16-9.16s9.16,4.1,9.16,9.16-4.1,9.16-9.16,9.16-9.16-4.1-9.16-9.16Z"/>
      <path class="cls-6" d="m86.72,249.61c0-6.54,5.29-11.85,11.84-11.85s11.84,5.31,11.84,11.85-5.31,11.84-11.84,11.84-11.84-5.31-11.84-11.84Zm2.69,0c0,5.05,4.09,9.16,9.16,9.16s9.16-4.1,9.16-9.16-4.1-9.16-9.16-9.16-9.16,4.1-9.16,9.16Z"/>
      <circle class="cls-6" cx="135.19" cy="249.61" r="3.95"/>
      <path class="cls-6" d="m135.19,258.76c-5.07,0-9.16-4.1-9.16-9.16s4.09-9.16,9.16-9.16,9.16,4.1,9.16,9.16-4.1,9.16-9.16,9.16Zm0-2.52c3.65,0,6.64-2.97,6.64-6.64s-2.98-6.64-6.64-6.64-6.64,2.97-6.64,6.64,2.97,6.64,6.64,6.64Z"/>
      <path class="cls-6" d="m135.19,240.45c-5.07,0-9.16,4.1-9.16,9.16s4.09,9.16,9.16,9.16,9.16-4.1,9.16-9.16-4.1-9.16-9.16-9.16Zm11.84,9.16c0,6.54-5.31,11.84-11.84,11.84s-11.84-5.31-11.84-11.84,5.29-11.85,11.84-11.85,11.84,5.31,11.84,11.85Z"/>
      <path class="cls-6" d="m135.19,210.71c2.17,0,3.95,1.76,3.95,3.95s-1.78,3.95-3.95,3.95-3.95-1.76-3.95-3.95,1.76-3.95,3.95-3.95Z"/>
      <path class="cls-6" d="m144.35,214.66c0,5.05-4.1,9.16-9.16,9.16s-9.16-4.1-9.16-9.16,4.09-9.16,9.16-9.16,9.16,4.1,9.16,9.16Zm-9.16,6.64c3.65,0,6.64-2.97,6.64-6.64s-2.98-6.64-6.64-6.64-6.64,2.97-6.64,6.64,2.97,6.64,6.64,6.64Z"/>
      <path class="cls-6" d="m147.04,214.66c0,6.54-5.31,11.84-11.84,11.84s-11.84-5.31-11.84-11.84,5.29-11.84,11.84-11.84,11.84,5.31,11.84,11.84Zm-11.84,9.16c5.05,0,9.16-4.1,9.16-9.16s-4.1-9.16-9.16-9.16-9.16,4.1-9.16,9.16,4.09,9.16,9.16,9.16Z"/>
      <path class="cls-6" d="m86.72,214.66c0-6.54,5.29-11.84,11.84-11.84s11.84,5.31,11.84,11.84-5.31,11.84-11.84,11.84-11.84-5.31-11.84-11.84Zm2.69,0c0,5.05,4.09,9.16,9.16,9.16s9.16-4.1,9.16-9.16-4.1-9.16-9.16-9.16-9.16,4.1-9.16,9.16Z"/>
      <path class="cls-6" d="m105.2,214.66c0-3.67-2.98-6.64-6.64-6.64s-6.64,2.97-6.64,6.64,2.97,6.64,6.64,6.64,6.64-2.97,6.64-6.64Zm-15.79,0c0-5.05,4.09-9.16,9.16-9.16s9.16,4.1,9.16,9.16-4.1,9.16-9.16,9.16-9.16-4.1-9.16-9.16Z"/>
      <path class="cls-6" d="m98.56,210.71c2.17,0,3.95,1.76,3.95,3.95s-1.78,3.95-3.95,3.95-3.95-1.76-3.95-3.95,1.76-3.95,3.95-3.95Z"/>
      <polygon class="cls-6" points="244.48 254.06 244.48 248.85 244.48 242.64 247.84 242.64 247.84 248.85 247.84 254.06 247.84 260.61 244.48 260.61 244.48 254.06"/>
      <path class="cls-4" d="m253.98,255.91c1.15,0,2.1.94,2.1,2.1s-.95,2.1-2.1,2.1-2.1-.94-2.1-2.1.94-2.1,2.1-2.1Z"/>
      <path class="cls-5" d="m238.18,255.91c1.15,0,2.1.94,2.1,2.1s-.95,2.1-2.1,2.1-2.1-.94-2.1-2.1.94-2.1,2.1-2.1Z"/>
      <path class="cls-6" d="m240.79,230.79c0-3.19,2.59-5.8,5.8-5.8s5.8,2.6,5.8,5.8-2.6,5.8-5.8,5.8-5.8-2.59-5.8-5.8Zm5.8-3.28c-1.82,0-3.28,1.47-3.28,3.28s1.46,3.28,3.28,3.28,3.28-1.47,3.28-3.28-1.47-3.28-3.28-3.28Z"/>
      <path class="cls-1" d="m265.49,218.11v25.45h-.17c0,2.83-2.3,5.12-5.12,5.12v.17h-12.35v-6.22h-3.36v6.22h-12.26l-.08-.17c-2.81,0-5.08-2.25-5.12-5.04v-25.62c0-2.83,2.28-5.12,5.12-5.12h28.14c2.79.04,5.04,2.32,5.04,5.12l.17.08Zm-13.11,12.68c0-3.19-2.6-5.8-5.8-5.8s-5.8,2.6-5.8,5.8,2.59,5.8,5.8,5.8,5.8-2.59,5.8-5.8Z"/>
      <path class="cls-1" d="m265.49,243.56v-25.45l-.17-.08c0-2.8-2.25-5.08-5.04-5.12h-28.14c-2.84,0-5.12,2.3-5.12,5.12v25.62c.04,2.79,2.31,5.04,5.12,5.04l.08.17h12.26v5.21h-22.68v-41.25c0-2.83,2.28-5.12,5.12-5.12h38.56c2.79.04,5.03,2.32,5.04,5.12l.17.08v41.16h-22.85v-5.21h12.35v-.17c2.83,0,5.12-2.3,5.12-5.12h.17Z"/>
      <rect class="cls-2" x="77.98" y="266.83" width="77.62" height="7.73"/>
      <path class="cls-2" d="m155.6,202.14v64.69h-77.62v-69.89h77.62v5.21Zm-20.41,24.36c6.54,0,11.84-5.31,11.84-11.84s-5.31-11.84-11.84-11.84-11.84,5.31-11.84,11.84,5.29,11.84,11.84,11.84Zm11.84,23.1c0-6.54-5.31-11.85-11.84-11.85s-11.84,5.31-11.84,11.85,5.29,11.84,11.84,11.84,11.84-5.31,11.84-11.84Zm-36.63-34.95c0-6.54-5.31-11.84-11.84-11.84s-11.84,5.31-11.84,11.84,5.29,11.84,11.84,11.84,11.84-5.31,11.84-11.84Zm0,34.95c0-6.54-5.31-11.85-11.84-11.85s-11.84,5.31-11.84,11.85,5.29,11.84,11.84,11.84,11.84-5.31,11.84-11.84Z"/>
      <rect class="cls-2" x=".36" y="196.94" width="77.62" height="5.21"/>
      <rect class="cls-2" x="155.6" y="196.94" width="51.75" height="5.21"/>
      <path class="cls-2" d="m316.23,155.6h5.01c-.69,21.63-15.25,40.56-36.26,46.6v-5.26h-.14v-.13c18.64-5.98,31.22-23.31,31.22-42.79h.17v1.58Z"/>
      <polygon class="cls-2" points="321.43 77.98 321.43 155.6 321.24 155.6 316.23 155.6 316.23 154.02 316.23 77.98 321.43 77.98"/>
      <polygon class="cls-2" points="321.43 .36 321.43 77.98 316.23 77.98 316.23 74.29 316.23 71.09 316.23 .36 321.43 .36"/>
      <rect class="cls-1" x="321.43" y=".36" width="72.41" height="77.62"/>
      <rect class="cls-1" x="321.43" y="77.98" width="72.41" height="77.62"/>
      <path class="cls-1" d="m393.85,155.6v118.95h-108.87v-72.36c21.02-6.03,35.58-24.96,36.26-46.6h72.61Z"/>
      <path class="cls-1" d="m253.98,255.91c-1.16,0-2.1.94-2.1,2.1s.94,2.1,2.1,2.1,2.1-.94,2.1-2.1-.95-2.1-2.1-2.1Zm31-53.71v72.36h-77.62v-77.62h77.62v5.26Zm-44.69,55.81c0-1.16-.95-2.1-2.1-2.1s-2.1.94-2.1,2.1.94,2.1,2.1,2.1,2.1-.94,2.1-2.1Zm4.2-3.95v6.55h3.36v-6.55h22.85v-41.16l-.17-.08c-.01-2.8-2.25-5.08-5.04-5.12h-38.56c-2.84,0-5.12,2.3-5.12,5.12v41.25h22.68Z"/>
      <polygon class="cls-1" points="207.35 202.14 207.35 274.56 155.6 274.56 155.6 266.83 155.6 202.14 207.35 202.14"/>
      <polygon class="cls-1" points="77.98 266.83 77.98 274.56 .36 274.56 .36 202.14 77.98 202.14 77.98 266.83"/>
    </g>
    <path class="cls-7" d="m155.6,274.92h-77.62c-.2,0-.36-.16-.36-.36s.16-.36.36-.36h77.62c.2,0,.36.16.36.36s-.16.36-.36.36Z"/>
    <path class="cls-7" d="m155.6,197.3h-77.62c-.2,0-.36-.16-.36-.36s.16-.36.36-.36h77.62c.2,0,.36.16.36.36s-.16.36-.36.36Z"/>
    <path class="cls-7" d="m155.6,267.19h-77.62c-.2,0-.36-.16-.36-.36s.16-.36.36-.36h77.62c.2,0,.36.16.36.36s-.16.36-.36.36Z"/>
    <path class="cls-7" d="m125.7,197.3c-.2,0-.36-.16-.36-.36v-1.18c0-.2.16-.36.36-.36s.36.16.36.36v1.18c0,.2-.16.36-.36.36Z"/>
    <path class="cls-7" d="m128.22,197.3c-.2,0-.36-.16-.36-.36v-1.18c0-.2.16-.36.36-.36s.36.16.36.36v1.18c0,.2-.16.36-.36.36Z"/>
    <path class="cls-7" d="m124.35,194.78h-14.95c-.2,0-.36-.16-.36-.36s.16-.36.36-.36h14.87c.2,0,.4.16.4.36s-.12.36-.32.36Z"/>
    <path class="cls-7" d="m124.35,192.26h-14.95c-.2,0-.36-.16-.36-.36s.16-.36.36-.36h14.95c.2,0,.36.16.36.36s-.16.36-.36.36Z"/>
    <path class="cls-7" d="m125.53,196.04c-.2,0-.36-.16-.36-.36,0-.49-.41-.9-.9-.9-.2,0-.36-.16-.36-.36s.16-.36.36-.36c.88,0,1.62.74,1.62,1.62,0,.2-.16.36-.36.36Z"/>
    <path class="cls-7" d="m128.22,196.04c-.2,0-.36-.16-.36-.36,0-1.98-1.61-3.59-3.59-3.59-.2,0-.36-.16-.36-.36s.16-.36.36-.36c2.38,0,4.31,1.93,4.31,4.31,0,.2-.16.36-.36.36Z"/>
    <path class="cls-7" d="m108.06,197.3c-.2,0-.36-.16-.36-.36v-1.18c0-.2.16-.36.36-.36s.36.16.36.36v1.18c0,.2-.16.36-.36.36Z"/>
    <path class="cls-7" d="m105.54,197.3c-.2,0-.36-.16-.36-.36v-1.18c0-.2.16-.36.36-.36s.36.16.36.36v1.18c0,.2-.16.36-.36.36Z"/>
    <path class="cls-7" d="m108.06,196.04c-.2,0-.36-.16-.36-.36,0-.89.73-1.62,1.62-1.62.2,0,.36.16.36.36s-.16.36-.36.36c-.5,0-.9.4-.9.9,0,.2-.16.36-.36.36Z"/>
    <path class="cls-7" d="m105.37,196.04c-.2,0-.36-.16-.36-.36,0-2.38,1.93-4.31,4.31-4.31.2,0,.36.16.36.36s-.16.36-.36.36c-1.98,0-3.59,1.61-3.59,3.59,0,.2-.16.36-.36.36Z"/>
    <path class="cls-8" d="m135.19,237.76c-6.55,0-11.84,5.31-11.84,11.85s5.29,11.84,11.84,11.84,11.84-5.31,11.84-11.84-5.31-11.85-11.84-11.85Z"/>
    <path class="cls-8" d="m135.19,240.45c-5.07,0-9.16,4.1-9.16,9.16s4.09,9.16,9.16,9.16,9.16-4.1,9.16-9.16-4.1-9.16-9.16-9.16Z"/>
    <path class="cls-8" d="m135.19,242.97c-3.67,0-6.64,2.97-6.64,6.64s2.97,6.64,6.64,6.64,6.64-2.97,6.64-6.64-2.98-6.64-6.64-6.64Z"/>
    <circle class="cls-8" cx="135.19" cy="249.61" r="3.95" transform="translate(-37.98 24.68) rotate(-9.15)"/>
    <circle class="cls-8" cx="98.56" cy="249.61" r="11.84" transform="translate(-54.98 29.51) rotate(-13.35)"/>
    <circle class="cls-8" cx="98.56" cy="249.61" r="9.16" transform="translate(-54.92 29.46) rotate(-13.34)"/>
    <path class="cls-8" d="m98.56,242.97c-3.67,0-6.64,2.97-6.64,6.64s2.97,6.64,6.64,6.64,6.64-2.97,6.64-6.64-2.98-6.64-6.64-6.64Z"/>
    <path class="cls-8" d="m98.56,245.66c-2.18,0-3.95,1.76-3.95,3.95s1.76,3.95,3.95,3.95,3.95-1.76,3.95-3.95-1.78-3.95-3.95-3.95Z"/>
    <path class="cls-8" d="m135.19,202.82c-6.55,0-11.84,5.31-11.84,11.84s5.29,11.84,11.84,11.84,11.84-5.31,11.84-11.84-5.31-11.84-11.84-11.84Z"/>
    <path class="cls-8" d="m135.19,208.02c-3.67,0-6.64,2.97-6.64,6.64s2.97,6.64,6.64,6.64,6.64-2.97,6.64-6.64-2.98-6.64-6.64-6.64Z"/>
    <path class="cls-8" d="m135.19,210.71c-2.18,0-3.95,1.76-3.95,3.95s1.76,3.95,3.95,3.95,3.95-1.76,3.95-3.95-1.78-3.95-3.95-3.95Z"/>
    <path class="cls-8" d="m135.19,205.5c-5.07,0-9.16,4.1-9.16,9.16s4.09,9.16,9.16,9.16,9.16-4.1,9.16-9.16-4.1-9.16-9.16-9.16Z"/>
    <circle class="cls-8" cx="98.56" cy="214.66" r="11.84" transform="translate(-122.92 132.57) rotate(-45)"/>
    <circle class="cls-8" cx="98.56" cy="214.66" r="9.16" transform="translate(-122.92 132.57) rotate(-45)"/>
    <path class="cls-8" d="m98.56,208.02c-3.67,0-6.64,2.97-6.64,6.64s2.97,6.64,6.64,6.64,6.64-2.97,6.64-6.64-2.98-6.64-6.64-6.64Z"/>
    <path class="cls-8" d="m98.56,210.71c-2.18,0-3.95,1.76-3.95,3.95s1.76,3.95,3.95,3.95,3.95-1.76,3.95-3.95-1.78-3.95-3.95-3.95Z"/>
    <path class="cls-7" d="m77.98,197.3H.36c-.2,0-.36-.16-.36-.36s.16-.36.36-.36h77.62c.2,0,.36.16.36.36s-.16.36-.36.36Z"/>
    <path class="cls-7" d="m77.98,202.5H.36c-.2,0-.36-.16-.36-.36s.16-.36.36-.36h77.62c.2,0,.36.16.36.36s-.16.36-.36.36Z"/>
    <path class="cls-7" d="m77.98,274.92H.36c-.2,0-.36-.16-.36-.36v-77.62c0-.2.16-.36.36-.36s.36.16.36.36v77.26h76.9v-77.26c0-.2.16-.36.36-.36s.36.16.36.36v77.62c0,.2-.16.36-.36.36Z"/>
    <path class="cls-7" d="m207.35,197.3h-51.75c-.2,0-.36-.16-.36-.36s.16-.36.36-.36h51.75c.2,0,.36.16.36.36s-.16.36-.36.36Z"/>
    <path class="cls-7" d="m207.35,202.5h-51.75c-.2,0-.36-.16-.36-.36s.16-.36.36-.36h51.75c.2,0,.36.16.36.36s-.16.36-.36.36Z"/>
    <path class="cls-7" d="m207.35,202.5c-.2,0-.36-.16-.36-.36v-5.21c0-.2.16-.36.36-.36s.36.16.36.36v5.21c0,.2-.16.36-.36.36Z"/>
    <path class="cls-7" d="m207.35,274.92c-.2,0-.36-.16-.36-.36v-72.41c0-.2.16-.36.36-.36s.36.16.36.36v72.41c0,.2-.16.36-.36.36Z"/>
    <path class="cls-7" d="m207.35,274.92h-51.75c-.2,0-.36-.16-.36-.36v-77.62c0-.2.16-.36.36-.36s.36.16.36.36v77.26h51.39c.2,0,.36.16.36.36s-.16.36-.36.36Z"/>
    <path class="cls-8" d="m246.58,224.99c-3.21,0-5.8,2.6-5.8,5.8s2.59,5.8,5.8,5.8,5.8-2.59,5.8-5.8-2.6-5.8-5.8-5.8Z"/>
    <path class="cls-7" d="m284.97,197.3h-77.62c-.2,0-.36-.16-.36-.36s.16-.36.36-.36h77.62c.2,0,.36.16.36.36s-.16.36-.36.36Z"/>
    <path class="cls-7" d="m284.97,274.92h-77.62c-.2,0-.36-.16-.36-.36s.16-.36.36-.36h77.26v-77.26c0-.2.16-.36.36-.36s.36.16.36.36v77.62c0,.2-.16.36-.36.36Z"/>
    <path class="cls-7" d="m244.48,254.42h-22.68c-.2,0-.36-.16-.36-.36v-41.16c0-.2.16-.36.36-.36s.36.16.36.36v40.8h22.32c.2,0,.36.16.36.36s-.16.36-.36.36Z"/>
    <path class="cls-7" d="m221.8,213.17c-.2,0-.36-.16-.36-.36,0-3.02,2.46-5.49,5.48-5.49.2,0,.36.16.36.36s-.16.36-.36.36c-2.63,0-4.76,2.14-4.76,4.76,0,.2-.16.36-.36.36Z"/>
    <path class="cls-7" d="m265.4,208.05h-38.39c-.2,0-.36-.16-.36-.36s.16-.36.36-.36h38.39c.2,0,.36.16.36.36s-.16.36-.36.36Z"/>
    <path class="cls-7" d="m270.53,213.17c-.2,0-.36-.16-.36-.36-.01-2.59-2.12-4.73-4.69-4.77-.2,0-.4-.16-.4-.36,0-.2.12-.36.32-.36,3.05.04,5.47,2.5,5.48,5.48,0,.2-.16.36-.36.36h0Z"/>
    <path class="cls-7" d="m270.69,254.42h-22.85c-.2,0-.36-.16-.36-.36s.16-.36.36-.36h22.49v-40.8c0-.2.16-.36.36-.36s.36.16.36.36v41.16c0,.2-.16.36-.36.36Z"/>
    <path class="cls-7" d="m244.48,249.21h-12.27c-.2,0-.36-.16-.36-.36s.16-.36.36-.36h12.27c.2,0,.36.16.36.36s-.16.36-.36.36Z"/>
    <path class="cls-7" d="m232.13,249.04c-2.98,0-5.44-2.42-5.48-5.4,0-.2.16-.36.35-.37.23-.03.36.16.37.35.04,2.58,2.18,4.69,4.76,4.69.2,0,.36.16.36.36s-.16.36-.36.36Z"/>
    <path class="cls-7" d="m227.01,243.96c-.2,0-.36-.12-.36-.32v-25.54c0-.2.16-.36.36-.36s.36.16.36.36v25.45c0,.2-.16.4-.36.4Z"/>
    <path class="cls-7" d="m227.01,218.38c-.2,0-.36-.16-.36-.36,0-3.02,2.46-5.48,5.48-5.48.2,0,.36.16.36.36s-.16.36-.36.36c-2.63,0-4.76,2.14-4.76,4.76,0,.2-.16.36-.36.36Z"/>
    <path class="cls-7" d="m260.19,213.26h-27.97c-.2,0-.36-.16-.36-.36s.16-.36.36-.36h27.97c.2,0,.36.16.36.36s-.16.36-.36.36Z"/>
    <path class="cls-7" d="m265.32,218.38c-.2,0-.36-.16-.36-.36,0-2.59-2.1-4.73-4.69-4.76-.2,0-.4-.17-.4-.36,0-.2.12-.36.32-.36,3.06.04,5.48,2.5,5.48,5.48,0,.2-.16.36-.36.36Z"/>
    <path class="cls-7" d="m265.49,243.96c-.2,0-.36-.12-.36-.32v-25.54c0-.2.16-.36.36-.36s.36.16.36.36v25.45c0,.2-.16.4-.36.4Z"/>
    <path class="cls-7" d="m260.19,249.04c-.2,0-.36-.16-.36-.36s.16-.36.36-.36c2.63,0,4.76-2.14,4.76-4.76,0-.2.16-.36.36-.36s.36.16.36.36c0,3.02-2.46,5.49-5.48,5.49Z"/>
    <path class="cls-7" d="m260.28,249.21h-12.43c-.2,0-.36-.16-.36-.36s.16-.36.36-.36h12.35c.2,0,.4.16.4.36s-.12.36-.32.36Z"/>
    <path class="cls-8" d="m246.58,227.51c-1.82,0-3.28,1.47-3.28,3.28s1.46,3.28,3.28,3.28,3.28-1.47,3.28-3.28-1.47-3.28-3.28-3.28Z"/>
    <path class="cls-7" d="m248.01,231.24h-2.69c-.2,0-.36-.16-.36-.36s.16-.36.36-.36h2.69c.2,0,.36.16.36.36s-.16.36-.36.36Z"/>
    <path class="cls-7" d="m246.67,232.58c-.2,0-.36-.16-.36-.36v-2.52c0-.2.16-.36.36-.36s.36.16.36.36v2.52c0,.2-.16.36-.36.36Z"/>
    <path class="cls-8" d="m238.18,255.91c-1.16,0-2.1.94-2.1,2.1s.94,2.1,2.1,2.1,2.1-.94,2.1-2.1-.95-2.1-2.1-2.1Z"/>
    <path class="cls-8" d="m253.98,255.91c-1.16,0-2.1.94-2.1,2.1s.94,2.1,2.1,2.1,2.1-.94,2.1-2.1-.95-2.1-2.1-2.1Z"/>
    <path class="cls-7" d="m247.84,260.97h-3.36c-.2,0-.36-.16-.36-.36v-17.98c0-.2.16-.36.36-.36h3.36c.2,0,.36.16.36.36v17.98c0,.2-.16.36-.36.36Zm-3-.72h2.64v-17.26h-2.64v17.26Z"/>
    <path class="cls-7" d="m316.23,78.34c-.2,0-.36-.16-.36-.36v-3.7c0-.2.16-.36.36-.36s.36.16.36.36v3.7c0,.2-.16.36-.36.36Z"/>
    <path class="cls-7" d="m316.23,71.45c-.2,0-.36-.16-.36-.36V.36c0-.2.16-.36.36-.36s.36.16.36.36v70.73c0,.2-.16.36-.36.36Z"/>
    <path class="cls-7" d="m321.43,78.34c-.2,0-.36-.16-.36-.36V.36c0-.2.16-.36.36-.36s.36.16.36.36v77.62c0,.2-.16.36-.36.36Z"/>
    <path class="cls-7" d="m393.85,78.34c-.2,0-.36-.16-.36-.36V.72h-77.26c-.2,0-.36-.16-.36-.36s.16-.36.36-.36h77.62c.2,0,.36.16.36.36v77.62c0,.2-.16.36-.36.36Z"/>
    <path class="cls-7" d="m316.23,74.65h-2.35c-.2,0-.36-.16-.36-.36s.16-.36.36-.36h2.35c.2,0,.36.16.36.36s-.16.36-.36.36Z"/>
    <path class="cls-7" d="m313.79,74.65c-.89,0-1.62-.73-1.62-1.62,0-.2.16-.36.36-.36s.36.16.36.36c0,.5.4.9.9.9.2,0,.36.16.36.36s-.16.36-.36.36Z"/>
    <path class="cls-7" d="m312.7,73.47c-.2,0-.36-.16-.36-.36v-.67c0-.2.16-.36.36-.36s.36.16.36.36v.67c0,.2-.16.36-.36.36Z"/>
    <path class="cls-7" d="m312.53,72.71c-.2,0-.36-.16-.36-.36,0-.89.73-1.62,1.62-1.62.2,0,.36.16.36.36s-.16.36-.36.36c-.5,0-.9.4-.9.9,0,.2-.16.36-.36.36Z"/>
    <path class="cls-7" d="m316.23,74.65c-.2,0-.36-.16-.36-.36v-2.83h-1.99c-.2,0-.36-.16-.36-.36s.16-.36.36-.36h2.35c.2,0,.36.16.36.36v3.19c0,.2-.16.36-.36.36Z"/>
    <path class="cls-7" d="m316.23,155.96c-.2,0-.36-.16-.36-.36v-77.62c0-.2.16-.36.36-.36s.36.16.36.36v77.62c0,.2-.16.36-.36.36Z"/>
    <path class="cls-7" d="m321.43,155.96c-.2,0-.36-.16-.36-.36v-77.62c0-.2.16-.36.36-.36s.36.16.36.36v77.62c0,.2-.16.36-.36.36Z"/>
    <path class="cls-7" d="m393.85,155.96h-77.62c-.2,0-.36-.16-.36-.36s.16-.36.36-.36h77.26v-76.9h-77.26c-.2,0-.36-.16-.36-.36s.16-.36.36-.36h77.62c.2,0,.36.16.36.36v77.62c0,.2-.16.36-.36.36Z"/>
    <path class="cls-7" d="m284.83,197.17c-.15,0-.29-.1-.34-.25-.06-.19.04-.39.23-.45,18.53-5.94,30.97-23,30.97-42.44,0-.48-.01-.98-.03-1.46l.72-.03c.01.5.03,1,.03,1.49,0,19.76-12.65,37.09-31.47,43.13-.04.01-.07.02-.11.02Z"/>
    <path class="cls-7" d="m284.85,202.6c-.15,0-.29-.1-.34-.25-.06-.19.04-.39.23-.45l.12-.04c20.87-5.99,35.33-24.58,36.02-46.27.03-1.06.03-2.15,0-3.21,0-.2.15-.36.35-.37.19,0,.36.15.37.35.03,1.08.03,2.17,0,3.25-.7,22-15.37,40.86-36.52,46.93l-.11.04s-.07.02-.11.02Z"/>
    <path class="cls-7" d="m393.85,274.92h-108.87c-.2,0-.36-.16-.36-.36s.16-.36.36-.36h108.87c.2,0,.36.16.36.36s-.16.36-.36.36Z"/>
    <path class="cls-7" d="m393.85,274.92c-.2,0-.36-.16-.36-.36v-118.95c0-.2.16-.36.36-.36s.36.16.36.36v118.95c0,.2-.16.36-.36.36Z"/>
  </g>
</svg>