<?xml version="1.0" encoding="UTF-8"?>
<svg id="Layer_1" data-name="Layer 1" xmlns="http://www.w3.org/2000/svg" viewBox="0 0 480.73 200.69">
  <defs>
    <style>
      .cls-1 {
        stroke-linecap: round;
        stroke-linejoin: round;
        stroke-width: .63px;
      }

      .cls-1, .cls-2 {
        fill: none;
      }

      .cls-1, .cls-2, .cls-3, .cls-4, .cls-5 {
        stroke: #27281f;
      }

      .cls-2, .cls-3, .cls-4, .cls-5 {
        stroke-miterlimit: 10;
        stroke-width: .87px;
      }

      .cls-6, .cls-3 {
        fill: #fafbf9;
      }

      .cls-7 {
        fill: #939598;
      }

      .cls-4 {
        fill: #fff;
      }

      .cls-8 {
        fill: #6e6f72;
      }

      .cls-9 {
        fill: #cdcdcf;
      }

      .cls-10 {
        fill: #818285;
      }

      .cls-11, .cls-5 {
        fill: #27281f;
      }
    </style>
  </defs>
  <g>
    <path class="cls-7" d="m112.75,119.65c.06-.19-.04-.39-.23-.45-18.52-5.94-30.97-23-30.97-42.44,0-.48.01-.98.03-1.46h-.2v-.65h1.99s.03,0,.04,0c.01,0,.03,0,.04,0,.89,0,1.62-.73,1.62-1.62,0-.13-.07-.23-.17-.3v-.08c.1-.06.17-.17.17-.3,0-.89-.73-1.62-1.62-1.62-.01,0-.03,0-.04,0-.01,0-.03,0-.04,0h-1.99V.36c0-.2-.16-.36-.36-.36H3.4c-.2,0-.36.16-.36.36v77.62c0,.07.02.13.06.18-.03.05-.06.11-.06.18v118.95c0,.2.16.36.36.36h108.87c.2,0,.36-.16.36-.36s-.16-.36-.36-.36v-71.62h.01s.07.02.11.02c.15,0,.29-.1.34-.25.06-.19-.04-.39-.23-.45l-.12-.04s-.08-.03-.12-.04v-4.68s.02,0,.03.01c.04.01.07.02.11.02.15,0,.29-.1.34-.25Zm-31.89-41.31h-4.49c0-.13,0-.24,0-.36h4.29c0,.14.08.26.2.32,0,.01,0,.03,0,.04Zm-77.1-.36h0s71.69,0,71.69,0h0c0,.14.08.26.2.32,0,.01,0,.03,0,.04H3.76c0-.07-.02-.13-.06-.18.03-.05.06-.11.06-.18Zm79.7-4.06s-.03,0-.04,0c-.01,0-.03,0-.04,0h-1.99v-2.47h1.99s.03,0,.04,0c.01,0,.03,0,.04,0,.43,0,.77.31.86.71-.08.07-.13.16-.13.27v.67c0,.1.04.19.1.25-.13.33-.45.57-.83.57Z"/>
    <path class="cls-7" d="m480.73,78.34c0-.07-.02-.13-.06-.18.03-.05.06-.11.06-.18V.36c0-.2-.16-.36-.36-.36h-77.62c-.2,0-.36.16-.36.36v70.37h-1.99s-.03,0-.04,0c-.01,0-.03,0-.04,0-.89,0-1.62.73-1.62,1.62,0,.13.07.23.17.3v.08c-.1.06-.17.17-.17.3,0,.89.73,1.62,1.62,1.62.01,0,.03,0,.04,0,.01,0,.03,0,.04,0h1.99v.64h-.2c.01.49.03.99.03,1.47,0,19.44-12.45,36.5-30.97,42.44-.19.06-.29.26-.23.45.05.15.19.25.34.25.04,0,.07,0,.11-.02.01,0,.02,0,.03-.01v4.68s-.08.03-.12.04l-.12.04c-.19.06-.29.27-.23.45.05.15.19.25.34.25.04,0,.07,0,.11-.02h.01s0,71.61,0,71.61c-.2,0-.36.16-.36.36s.16.36.36.36h108.87c.2,0,.36-.16.36-.36v-118.95Zm-73.33,0h-4.49s0-.03,0-.04c.12-.06.2-.18.2-.32h0s4.29,0,4.29,0c0,.12,0,.23,0,.35h0Zm72.61-.35h0c0,.07.02.13.06.18-.03.05-.06.11-.06.18h0s-71.89,0-71.89,0c0-.01,0-.03,0-.04.12-.06.2-.18.2-.32h0s71.69,0,71.69,0Zm-79.7-6.53s.03,0,.04,0c.01,0,.03,0,.04,0h1.99v2.47h-1.99s-.03,0-.04,0c-.01,0-.03,0-.04,0-.39,0-.7-.23-.83-.57.06-.06.1-.15.1-.25v-.67c0-.11-.05-.21-.13-.27.09-.4.43-.71.86-.71Z"/>
    <path class="cls-7" d="m371,120.59c0-.2-.16-.36-.36-.36h-128.04c-.2,0-.36.16-.36.36h0c0-.2-.16-.36-.36-.36h-51.18c-.2,0-.36.16-.36.36,0-.2-.16-.36-.36-.36h-26.82v-.64c.09-.07.15-.17.15-.29,0-2.32-1.89-4.21-4.21-4.21-.01,0-.02,0-.04,0-.01,0-.02,0-.04,0h-14.87s-.05,0-.08.02v-.02c-2.28.04-4.09,1.86-4.13,4.21v.92h-26.82c-.2,0-.36.16-.36.36v76.7c0,.2.16.36.36.36h76.85c.2,0,.36-.16.36-.36,0,.2.16.36.36.36h51.18c.2,0,.36-.16.36-.36h0c0,.2.16.36.36.36h128.04c.2,0,.36-.16.36-.36v-76.7Zm-211.12-1.36v1h-16.64v-.92c0-.51.41-.92.92-.92h14.87s.02,0,.04,0c.01,0,.02,0,.04,0,.41,0,.72.24.85.63-.05.06-.08.14-.08.22Z"/>
  </g>
  <g>
    <g>
      <g>
        <polygon class="cls-3" points="73.21 2.97 73.21 80.59 78.41 80.59 78.41 76.89 78.41 73.7 78.41 2.97 73.21 2.97"/>
        <rect class="cls-4" x=".79" y="2.97" width="72.41" height="77.62"/>
        <path class="cls-5" d="m78.41,80.95c.2,0,.36-.16.36-.36v-3.7c0-.2-.16-.36-.36-.36s-.36.16-.36.36v3.7c0,.2.16.36.36.36Z"/>
        <path class="cls-5" d="m78.41,74.06c.2,0,.36-.16.36-.36V2.97c0-.2-.16-.36-.36-.36s-.36.16-.36.36v70.73c0,.2.16.36.36.36Z"/>
        <path class="cls-5" d="m73.21,80.95c.2,0,.36-.16.36-.36V2.97c0-.2-.16-.36-.36-.36s-.36.16-.36.36v77.62c0,.2.16.36.36.36Z"/>
        <path class="cls-5" d="m.79,80.95c.2,0,.36-.16.36-.36V3.33h77.26c.2,0,.36-.16.36-.36s-.16-.36-.36-.36H.79c-.2,0-.36.16-.36.36v77.62c0,.2.16.36.36.36Z"/>
        <path class="cls-5" d="m78.41,77.25h2.35c.2,0,.36-.16.36-.36s-.16-.36-.36-.36h-2.35c-.2,0-.36.16-.36.36s.16.36.36.36Z"/>
        <path class="cls-5" d="m80.85,77.25c.89,0,1.62-.73,1.62-1.62,0-.2-.16-.36-.36-.36s-.36.16-.36.36c0,.5-.4.9-.9.9-.2,0-.36.16-.36.36s.16.36.36.36Z"/>
        <path class="cls-5" d="m81.94,76.08c.2,0,.36-.16.36-.36v-.67c0-.2-.16-.36-.36-.36s-.36.16-.36.36v.67c0,.2.16.36.36.36Z"/>
        <path class="cls-5" d="m82.11,75.32c.2,0,.36-.16.36-.36,0-.89-.73-1.62-1.62-1.62-.2,0-.36.16-.36.36s.16.36.36.36c.5,0,.9.4.9.9,0,.2.16.36.36.36Z"/>
        <path class="cls-5" d="m78.41,77.25c.2,0,.36-.16.36-.36v-2.83h1.99c.2,0,.36-.16.36-.36s-.16-.36-.36-.36h-2.35c-.2,0-.36.16-.36.36v3.19c0,.2.16.36.36.36Z"/>
      </g>
      <g>
        <path class="cls-3" d="m78.41,80.95h-5.01c.69,21.63,15.25,40.56,36.26,46.59v-5.26h.14v-.13c-18.63-5.98-31.22-23.31-31.22-42.79h-.17v1.58Z"/>
        <path class="cls-4" d="m.79,80.95v118.95h108.87v-72.36c-21.02-6.03-35.58-24.96-36.26-46.59H.79Z"/>
        <path class="cls-5" d="m109.8,122.51c.15,0,.29-.1.34-.25.06-.19-.04-.39-.23-.45-18.52-5.94-30.97-23-30.97-42.44,0-.48.01-.98.03-1.46l-.72-.03c-.01.5-.03,1-.03,1.49,0,19.76,12.65,37.09,31.47,43.13.04.01.07.02.11.02Z"/>
        <path class="cls-5" d="m109.79,127.94c.15,0,.29-.1.34-.25.06-.19-.04-.39-.23-.45l-.12-.04c-20.86-5.99-35.33-24.58-36.02-46.27-.03-1.06-.03-2.15,0-3.21,0-.2-.15-.36-.35-.37-.19,0-.36.15-.37.35-.03,1.08-.03,2.17,0,3.25.7,22,15.37,40.86,36.52,46.93l.11.04s.07.02.11.02Z"/>
        <path class="cls-5" d="m.79,200.26h108.87c.2,0,.36-.16.36-.36s-.16-.36-.36-.36H.79c-.2,0-.36.16-.36.36s.16.36.36.36Z"/>
        <path class="cls-5" d="m.79,200.26c.2,0,.36-.16.36-.36v-118.95c0-.2-.16-.36-.36-.36s-.36.16-.36.36v118.95c0,.2.16.36.36.36Z"/>
      </g>
    </g>
    <g>
      <g>
        <polygon class="cls-3" points="405.35 2.97 405.35 80.59 400.14 80.59 400.14 76.89 400.14 73.7 400.14 2.97 405.35 2.97"/>
        <rect class="cls-4" x="405.35" y="2.97" width="72.41" height="77.62"/>
        <path class="cls-5" d="m400.14,80.95c-.2,0-.36-.16-.36-.36v-3.7c0-.2.16-.36.36-.36s.36.16.36.36v3.7c0,.2-.16.36-.36.36Z"/>
        <path class="cls-5" d="m400.14,74.06c-.2,0-.36-.16-.36-.36V2.97c0-.2.16-.36.36-.36s.36.16.36.36v70.73c0,.2-.16.36-.36.36Z"/>
        <path class="cls-5" d="m405.35,80.95c-.2,0-.36-.16-.36-.36V2.97c0-.2.16-.36.36-.36s.36.16.36.36v77.62c0,.2-.16.36-.36.36Z"/>
        <path class="cls-5" d="m477.76,80.95c-.2,0-.36-.16-.36-.36V3.33h-77.26c-.2,0-.36-.16-.36-.36s.16-.36.36-.36h77.62c.2,0,.36.16.36.36v77.62c0,.2-.16.36-.36.36Z"/>
        <path class="cls-5" d="m400.14,77.25h-2.35c-.2,0-.36-.16-.36-.36s.16-.36.36-.36h2.35c.2,0,.36.16.36.36s-.16.36-.36.36Z"/>
        <path class="cls-5" d="m397.71,77.25c-.89,0-1.62-.73-1.62-1.62,0-.2.16-.36.36-.36s.36.16.36.36c0,.5.4.9.9.9.2,0,.36.16.36.36s-.16.36-.36.36Z"/>
        <path class="cls-5" d="m396.61,76.08c-.2,0-.36-.16-.36-.36v-.67c0-.2.16-.36.36-.36s.36.16.36.36v.67c0,.2-.16.36-.36.36Z"/>
        <path class="cls-5" d="m396.44,75.32c-.2,0-.36-.16-.36-.36,0-.89.73-1.62,1.62-1.62.2,0,.36.16.36.36s-.16.36-.36.36c-.5,0-.9.4-.9.9,0,.2-.16.36-.36.36Z"/>
        <path class="cls-5" d="m400.14,77.25c-.2,0-.36-.16-.36-.36v-2.83h-1.99c-.2,0-.36-.16-.36-.36s.16-.36.36-.36h2.35c.2,0,.36.16.36.36v3.19c0,.2-.16.36-.36.36Z"/>
      </g>
      <g>
        <path class="cls-3" d="m400.14,80.95h5.01c-.69,21.63-15.25,40.56-36.26,46.59v-5.26h-.14v-.13c18.63-5.98,31.22-23.31,31.22-42.79h.17v1.58Z"/>
        <path class="cls-4" d="m477.76,80.95v118.95h-108.87v-72.36c21.01-6.03,35.58-24.96,36.26-46.59h72.61Z"/>
        <path class="cls-5" d="m368.75,122.51c-.15,0-.29-.1-.34-.25-.06-.19.04-.39.23-.45,18.52-5.94,30.97-23,30.97-42.44,0-.48-.01-.98-.03-1.46l.72-.03c.01.5.03,1,.03,1.49,0,19.76-12.65,37.09-31.47,43.13-.04.01-.07.02-.11.02Z"/>
        <path class="cls-5" d="m368.77,127.94c-.15,0-.29-.1-.34-.25-.06-.19.04-.39.23-.45l.12-.04c20.87-5.99,35.33-24.58,36.02-46.27.03-1.06.03-2.15,0-3.21,0-.2.15-.36.35-.37.19,0,.36.15.37.35.03,1.08.03,2.17,0,3.25-.7,22-15.37,40.86-36.52,46.93l-.11.04s-.07.02-.11.02Z"/>
        <path class="cls-5" d="m477.76,200.26h-108.87c-.2,0-.36-.16-.36-.36s.16-.36.36-.36h108.87c.2,0,.36.16.36.36s-.16.36-.36.36Z"/>
        <path class="cls-5" d="m477.76,200.26c-.2,0-.36-.16-.36-.36v-118.95c0-.2.16-.36.36-.36s.36.16.36.36v118.95c0,.2-.16.36-.36.36Z"/>
      </g>
    </g>
    <g>
      <g>
        <rect class="cls-4" x="188.09" y="123.2" width="51.18" height="5.13"/>
        <rect class="cls-4" x="188.09" y="128.33" width="51.18" height="71.57"/>
      </g>
      <g>
        <path class="cls-11" d="m239.28,122.84h-51.18c-.2,0-.36.16-.36.36s.16.36.36.36h51.18c.2,0,.36-.16.36-.36s-.16-.36-.36-.36Z"/>
        <path class="cls-11" d="m239.28,127.97h-51.18c-.2,0-.36.16-.36.36s.16.36.36.36h51.18c.2,0,.36-.16.36-.36s-.16-.36-.36-.36Z"/>
        <path class="cls-11" d="m239.28,122.84c-.2,0-.36.16-.36.36v76.34h-50.46v-76.34c0-.2-.16-.36-.36-.36s-.36.16-.36.36v76.7c0,.2.16.36.36.36h51.18c.2,0,.36-.16.36-.36v-76.7c0-.2-.16-.36-.36-.36Z"/>
      </g>
    </g>
    <g>
      <g>
        <path class="cls-6" d="m110.52,192.35v-69.15h76.85v69.15h-76.85Zm8.76-16.99c0,6.45,5.25,11.7,11.7,11.7s11.7-5.25,11.7-11.7-5.23-11.7-11.7-11.7-11.7,5.23-11.7,11.7Zm0-34.58c0,6.45,5.25,11.7,11.7,11.7s11.7-5.25,11.7-11.7-5.23-11.7-11.7-11.7-11.7,5.23-11.7,11.7Zm36.24,34.58c0,6.45,5.25,11.7,11.7,11.7s11.7-5.25,11.7-11.7-5.23-11.7-11.7-11.7-11.7,5.23-11.7,11.7Zm0-34.58c0,6.45,5.25,11.7,11.7,11.7s11.7-5.25,11.7-11.7-5.23-11.7-11.7-11.7-11.7,5.23-11.7,11.7Z"/>
        <rect class="cls-6" x="110.52" y="192.35" width="76.85" height="7.55"/>
        <path class="cls-10" d="m130.98,187.07c-6.45,0-11.7-5.25-11.7-11.7s5.25-11.7,11.7-11.7,11.7,5.23,11.7,11.7-5.23,11.7-11.7,11.7Zm-9.13-11.7c0,5.05,4.09,9.13,9.13,9.13s9.13-4.09,9.13-9.13-4.09-9.13-9.13-9.13-9.13,4.09-9.13,9.13Z"/>
        <path class="cls-10" d="m130.98,152.49c-6.45,0-11.7-5.25-11.7-11.7s5.25-11.7,11.7-11.7,11.7,5.23,11.7,11.7-5.23,11.7-11.7,11.7Zm-9.13-11.7c0,5.05,4.09,9.13,9.13,9.13s9.13-4.09,9.13-9.13-4.09-9.13-9.13-9.13-9.13,4.09-9.13,9.13Z"/>
        <path class="cls-10" d="m130.98,184.5c-5.05,0-9.13-4.09-9.13-9.13s4.09-9.13,9.13-9.13,9.13,4.09,9.13,9.13-4.09,9.13-9.13,9.13Zm-6.57-9.13c0,3.62,2.94,6.57,6.57,6.57s6.57-2.94,6.57-6.57-2.93-6.57-6.57-6.57-6.57,2.93-6.57,6.57Z"/>
        <path class="cls-10" d="m130.98,149.92c-5.05,0-9.13-4.09-9.13-9.13s4.09-9.13,9.13-9.13,9.13,4.09,9.13,9.13-4.09,9.13-9.13,9.13Zm-6.57-9.13c0,3.62,2.94,6.57,6.57,6.57s6.57-2.94,6.57-6.57-2.93-6.57-6.57-6.57-6.57,2.93-6.57,6.57Z"/>
        <path class="cls-8" d="m130.98,181.93c-3.62,0-6.57-2.94-6.57-6.57s2.94-6.57,6.57-6.57,6.57,2.93,6.57,6.57-2.93,6.57-6.57,6.57Zm-4-6.57c0,2.2,1.8,4,4,4s4-1.8,4-4-1.79-4-4-4-4,1.79-4,4Z"/>
        <path class="cls-8" d="m130.98,147.36c-3.62,0-6.57-2.94-6.57-6.57s2.94-6.57,6.57-6.57,6.57,2.93,6.57,6.57-2.93,6.57-6.57,6.57Zm-4-6.57c0,2.2,1.8,4,4,4s4-1.8,4-4-1.79-4-4-4-4,1.79-4,4Z"/>
        <path class="cls-10" d="m130.98,179.37c-2.2,0-4-1.8-4-4s1.8-4,4-4,4,1.79,4,4-1.79,4-4,4Z"/>
        <circle class="cls-10" cx="130.98" cy="140.79" r="4"/>
        <path class="cls-10" d="m140.27,121.92v1.28h-2.57v-1.36c.04-2.06,1.71-3.74,3.77-3.77h15.02c2.13,0,3.85,1.72,3.85,3.85h-.15v1.28h-2.57v-1.36h.14c-.04-.69-.58-1.21-1.27-1.21h-14.95c-.7,0-1.28.57-1.28,1.28Z"/>
        <path class="cls-10" d="m158.08,140.79c0-5.05,4.09-9.13,9.13-9.13s9.13,4.09,9.13,9.13-4.09,9.13-9.13,9.13-9.13-4.09-9.13-9.13Zm2.57,0c0,3.62,2.94,6.57,6.57,6.57s6.57-2.94,6.57-6.57-2.93-6.57-6.57-6.57-6.57,2.93-6.57,6.57Z"/>
        <path class="cls-10" d="m167.22,187.07c-6.45,0-11.7-5.25-11.7-11.7s5.25-11.7,11.7-11.7,11.7,5.23,11.7,11.7-5.23,11.7-11.7,11.7Zm-9.13-11.7c0,5.05,4.09,9.13,9.13,9.13s9.13-4.09,9.13-9.13-4.09-9.13-9.13-9.13-9.13,4.09-9.13,9.13Z"/>
        <path class="cls-10" d="m167.22,152.49c-6.45,0-11.7-5.25-11.7-11.7s5.25-11.7,11.7-11.7,11.7,5.23,11.7,11.7-5.23,11.7-11.7,11.7Zm0-20.84c-5.05,0-9.13,4.09-9.13,9.13s4.09,9.13,9.13,9.13,9.13-4.09,9.13-9.13-4.09-9.13-9.13-9.13Z"/>
        <path class="cls-10" d="m167.22,184.5c-5.05,0-9.13-4.09-9.13-9.13s4.09-9.13,9.13-9.13,9.13,4.09,9.13,9.13-4.09,9.13-9.13,9.13Zm-6.57-9.13c0,3.62,2.94,6.57,6.57,6.57s6.57-2.94,6.57-6.57-2.93-6.57-6.57-6.57-6.57,2.93-6.57,6.57Z"/>
        <path class="cls-8" d="m167.22,181.93c-3.62,0-6.57-2.94-6.57-6.57s2.94-6.57,6.57-6.57,6.57,2.93,6.57,6.57-2.93,6.57-6.57,6.57Zm-4-6.57c0,2.2,1.8,4,4,4s4-1.8,4-4-1.79-4-4-4-4,1.79-4,4Z"/>
        <path class="cls-8" d="m167.22,147.36c-3.62,0-6.57-2.94-6.57-6.57s2.94-6.57,6.57-6.57,6.57,2.93,6.57,6.57-2.93,6.57-6.57,6.57Zm-4-6.57c0,2.2,1.8,4,4,4s4-1.8,4-4-1.79-4-4-4-4,1.79-4,4Z"/>
        <path class="cls-10" d="m167.22,179.37c-2.2,0-4-1.8-4-4s1.8-4,4-4,4,1.79,4,4-1.79,4-4,4Z"/>
        <circle class="cls-10" cx="167.22" cy="140.79" r="4"/>
      </g>
      <g>
        <path class="cls-11" d="m110.52,122.84h76.85c.2,0,.36.16.36.36s-.16.36-.36.36h-76.49v75.98h76.49c.2,0,.36.16.36.36s-.16.36-.36.36h-76.85c-.2,0-.36-.16-.36-.36v-76.7c0-.2.16-.36.36-.36Z"/>
        <path class="cls-11" d="m110.52,191.99h76.85c.2,0,.36.16.36.36s-.16.36-.36.36h-76.85c-.2,0-.36-.16-.36-.36s.16-.36.36-.36Z"/>
        <path class="cls-11" d="m187.37,122.84c.2,0,.36.16.36.36v76.7c0,.2-.16.36-.36.36s-.36-.16-.36-.36v-76.7c0-.2.16-.36.36-.36Z"/>
        <path class="cls-11" d="m157.63,121.48c.2,0,.36.16.36.36v1.36c0,.2-.16.36-.36.36s-.36-.16-.36-.36v-1.36c0-.2.16-.36.36-.36Z"/>
        <path class="cls-11" d="m160.2,121.52c.2,0,.36.12.36.32v1.36c0,.2-.16.36-.36.36s-.36-.16-.36-.36v-1.28c0-.2.16-.4.36-.4Z"/>
        <path class="cls-11" d="m141.47,120.27h14.95c.2,0,.36.16.36.36s-.16.36-.36.36h-14.87c-.2,0-.4-.16-.4-.36s.12-.36.32-.36Z"/>
        <path class="cls-11" d="m141.55,117.71h14.87c.2,0,.36.16.36.36s-.16.36-.36.36h-14.87c-.2,0-.36-.16-.36-.36s.16-.36.36-.36Z"/>
        <path class="cls-11" d="m156.5,120.27c.88,0,1.58.66,1.63,1.53,0,.04.01.09.01.11,0,.2-.16.36-.36.36s-.36-.16-.36-.36h.36-.36c-.04-.56-.42-.92-.92-.92-.2,0-.36-.16-.36-.36s.16-.36.36-.36Z"/>
        <path class="cls-11" d="m156.5,117.71c2.32,0,4.21,1.89,4.21,4.21,0,.2-.16.36-.36.36s-.36-.16-.36-.36c0-1.92-1.57-3.49-3.49-3.49-.2,0-.36-.16-.36-.36s.16-.36.36-.36Z"/>
        <path class="cls-11" d="m140.27,121.52c.2,0,.36.12.36.32v1.36c0,.2-.16.36-.36.36s-.36-.16-.36-.36v-1.28c0-.2.16-.4.36-.4Z"/>
        <path class="cls-11" d="m137.7,121.56c.2,0,.36.16.36.36v1.28c0,.2-.16.36-.36.36s-.36-.16-.36-.36v-1.28c0-.2.16-.36.36-.36Z"/>
        <path class="cls-11" d="m141.55,120.27c.2,0,.36.16.36.36s-.16.36-.36.36c-.51,0-.92.41-.92.92,0,.2-.16.36-.36.36s-.36-.16-.36-.36c0-.91.74-1.64,1.64-1.64Z"/>
        <path class="cls-11" d="m141.47,117.71l.08.36v.36h-.08c-1.88.03-3.38,1.54-3.41,3.42,0,.2-.16.39-.36.39h0c-.2,0-.36-.12-.36-.32.04-2.36,1.85-4.17,4.13-4.21Z"/>
        <circle class="cls-1" cx="167.22" cy="175.36" r="11.7"/>
        <circle class="cls-1" cx="167.22" cy="175.36" r="9.13"/>
        <path class="cls-1" d="m167.22,181.93c3.64,0,6.57-2.94,6.57-6.57s-2.93-6.57-6.57-6.57-6.57,2.93-6.57,6.57,2.94,6.57,6.57,6.57Z"/>
        <path class="cls-1" d="m167.22,179.37c2.21,0,4-1.8,4-4s-1.79-4-4-4-4,1.79-4,4,1.8,4,4,4Z"/>
        <circle class="cls-1" cx="130.98" cy="175.36" r="11.7" transform="translate(-36.79 34.78) rotate(-13.28)"/>
        <circle class="cls-1" cx="130.98" cy="175.36" r="9.13" transform="translate(-85.64 143.98) rotate(-45)"/>
        <path class="cls-1" d="m130.98,181.93c3.64,0,6.57-2.94,6.57-6.57s-2.93-6.57-6.57-6.57-6.57,2.93-6.57,6.57,2.94,6.57,6.57,6.57Z"/>
        <path class="cls-1" d="m130.98,179.37c2.21,0,4-1.8,4-4s-1.79-4-4-4-4,1.79-4,4,1.8,4,4,4Z"/>
        <circle class="cls-1" cx="167.22" cy="140.79" r="11.7"/>
        <path class="cls-1" d="m167.22,147.36c3.64,0,6.57-2.94,6.57-6.57s-2.93-6.57-6.57-6.57-6.57,2.93-6.57,6.57,2.94,6.57,6.57,6.57Z"/>
        <circle class="cls-1" cx="167.22" cy="140.79" r="4"/>
        <circle class="cls-1" cx="167.22" cy="140.79" r="9.13"/>
        <circle class="cls-1" cx="130.98" cy="140.79" r="11.7" transform="translate(-20.86 22.8) rotate(-9.22)"/>
        <circle class="cls-1" cx="130.98" cy="140.79" r="9.13" transform="translate(-49.22 207.92) rotate(-67.5)"/>
        <path class="cls-1" d="m130.98,147.36c3.64,0,6.57-2.94,6.57-6.57s-2.93-6.57-6.57-6.57-6.57,2.93-6.57,6.57,2.94,6.57,6.57,6.57Z"/>
        <circle class="cls-1" cx="130.98" cy="140.79" r="4"/>
      </g>
    </g>
    <g>
      <g>
        <path class="cls-11" d="m239.64,199.9v-76.7c0-.2.16-.36.36-.36h51.19c-.2,0-.36.16-.36.36s.16.36.36.36h-50.83v75.98h-.36c-.2,0-.36.16-.36.36Z"/>
        <path class="cls-11" d="m240,200.26c-.2,0-.36-.16-.36-.36s.16-.36.36-.36h.36v.36c0,.2-.16.36-.36.36Z"/>
        <path class="cls-11" d="m368.03,200.26h-128.04c.2,0,.36-.16.36-.36v-.36h127.32v-75.98h.36c.2,0,.36-.16.36-.36v76.7c0,.2-.16.36-.36.36Z"/>
        <path class="cls-4" d="m367.67,199.54v-75.98h-127.32v75.98h127.32Zm-98.2-67.58h84c3.66,0,6.63,2.97,6.63,6.63v47.74c0,3.66-2.97,6.63-6.63,6.63h-83.99c-3.66,0-6.63-2.97-6.63-6.63v-47.75c0-3.66,2.96-6.62,6.62-6.62Z"/>
        <path class="cls-7" d="m269.49,192.96h83.99c3.66,0,6.63-2.97,6.63-6.63v-47.74c0-3.66-2.97-6.63-6.63-6.63h-84c-3.66,0-6.62,2.96-6.62,6.62v47.75c0,3.66,2.97,6.63,6.63,6.63Zm49.36-54.25c.04-.1.14-.17.27-.17h27.93c.13,0,.24.06.29.16,2.85.1,5.17,2.46,5.21,5.33h0v25.37s0,.03-.01.04c.01.01.01.03.01.04,0,2.99-2.43,5.42-5.42,5.42-.01,0-.03,0-.04,0-.01,0-.03,0-.04,0h-11.87v11.11c0,.2-.16.36-.36.36h-3.47c-.2,0-.36-.16-.36-.36v-11.11h-11.79c-3.03-.05-5.42-2.48-5.42-5.42,0-.01,0-.03.01-.04-.01,0-.01-.03-.01-.04v-25.29c.04-2.9,2.28-5.23,5.07-5.4Zm6.54,42.92c1.12,0,2.03.91,2.03,2.04s-.91,2.04-2.03,2.04-2.04-.92-2.04-2.04.92-2.04,2.04-2.04Zm15.55,0c1.12,0,2.04.91,2.04,2.04s-.92,2.04-2.04,2.04-2.04-.92-2.04-2.04.92-2.04,2.04-2.04Z"/>
        <circle class="cls-11" cx="291.18" cy="123.2" r=".36"/>
        <path class="cls-11" d="m367.67,123.56h-76.49c.2,0,.36-.16.36-.36s-.16-.36-.36-.36h76.85c-.2,0-.36.16-.36.36v.36Z"/>
        <path class="cls-11" d="m313.77,169.4v-25.29c0,.2.16.32.36.32.18,0,.33-.17.35-.35,0,.01,0,.02,0,.03v25.29s0,.03,0,.04c-.01-.18-.16-.32-.35-.32s-.34.14-.35.32c-.01,0-.01-.03-.01-.04Z"/>
        <path class="cls-11" d="m313.77,169.48s0-.03.01-.04c.01.18.16.32.35.32s.34-.14.35-.32c0,.01,0,.03,0,.04,0,2.55,2.07,4.66,4.62,4.7.01,0,.03,0,.04,0-.18.01-.32.16-.32.35s.16.36.36.36c-3.03-.05-5.42-2.48-5.42-5.42Z"/>
        <path class="cls-11" d="m314.13,169.76c-.19,0-.34-.14-.35-.32.01-.18.16-.32.35-.32s.34.14.35.32c-.01.18-.16.32-.35.32Z"/>
        <path class="cls-11" d="m314.13,144.43c-.2,0-.36-.12-.36-.32s.16-.36.36-.36.34.14.35.33c-.02.18-.17.35-.35.35Z"/>
        <path class="cls-11" d="m314.13,143.75c-.2,0-.36.16-.36.36.04-2.9,2.28-5.23,5.07-5.4-.04.06-.05.12-.05.19,0,.2.2.36.4.36h.28c-.06.09-.17.15-.28.15-2.56,0-4.67,2.08-4.7,4.63,0,.01,0,.03,0,.04-.01-.19-.16-.33-.35-.33Z"/>
        <path class="cls-10" d="m319.11,174.18s.03,0,.04,0c0,0,.03,0,.04,0h11.79v-5.83c0-.2.16-.37.36-.37h3.47c.2,0,.36.17.36.37v5.83h11.87s.03,0,.04,0c0,0,.03,0,.04,0,2.59,0,4.7-2.11,4.7-4.7,0-.01,0-.03.01-.04-.01,0-.01-.03-.01-.04v-25.29s0-.02.01-.03c-.01,0-.01-.03-.01-.04-.04-2.55-2.15-4.63-4.7-4.63-.12,0-.23-.06-.29-.15h-27.36c-.06.09-.17.15-.28.15-2.56,0-4.67,2.08-4.7,4.63,0,.01,0,.03,0,.04,0,.01,0,.02,0,.03v25.29s0,.03,0,.04c0,.01,0,.03,0,.04,0,2.55,2.07,4.66,4.62,4.7Zm14.57-23.05c3.13,0,5.66,2.53,5.66,5.66s-2.53,5.67-5.66,5.67-5.66-2.55-5.66-5.67,2.53-5.66,5.66-5.66Z"/>
        <path class="cls-11" d="m318.79,138.9c0-.07.01-.13.05-.19.12-.02.23-.02.35-.02.19,0,.36.16.36.36,0,.08-.03.15-.08.21h-.28c-.2,0-.4-.16-.4-.36Z"/>
        <path class="cls-11" d="m319.19,138.69c-.12,0-.23,0-.35.02.04-.1.14-.17.27-.17h27.93c.13,0,.24.06.29.16-.07-.01-.14-.01-.21-.01-.2,0-.36.16-.36.36,0,.08.03.15.07.21h-27.36c.05-.06.08-.13.08-.21,0-.2-.17-.36-.36-.36Z"/>
        <path class="cls-11" d="m319.19,174.9c-.2,0-.36-.17-.36-.36s.14-.34.32-.35c.19.01.36.16.36.35,0,.2-.13.36-.32.36Z"/>
        <path class="cls-11" d="m319.15,174.19s.03,0,.04,0h11.79v.72h-11.79c.19,0,.32-.16.32-.36s-.17-.34-.36-.35Z"/>
        <path class="cls-9" d="m325.38,185.71c-1.12,0-2.04-.92-2.04-2.04s.92-2.04,2.04-2.04,2.03.91,2.03,2.04-.91,2.04-2.03,2.04Z"/>
        <path class="cls-7" d="m339.34,156.79c0-3.13-2.53-5.66-5.66-5.66s-5.66,2.53-5.66,5.66,2.53,5.67,5.66,5.67,5.66-2.55,5.66-5.67Zm-5.66-3.09c1.71,0,3.1,1.38,3.1,3.09s-1.39,3.1-3.1,3.1-3.1-1.38-3.1-3.1,1.39-3.09,3.1-3.09Z"/>
        <path class="cls-11" d="m330.98,174.18v-5.83c0-.2.16-.37.36-.37h3.47c.2,0,.36.17.36.37v5.83h-.36c-.2,0-.36.16-.36.36v-5.83h-2.75v5.83c0-.2-.16-.36-.36-.36h-.36Z"/>
        <path class="cls-11" d="m330.98,174.9v-.72h.36c.2,0,.36.16.36.36s-.16.36-.36.36h-.36Z"/>
        <path class="cls-11" d="m330.98,186.01v-11.11h.36c.2,0,.36-.17.36-.36v11.11h2.75v-11.11c0,.19.16.36.36.36h.36v11.11c0,.2-.16.36-.36.36h-3.47c-.2,0-.36-.16-.36-.36Z"/>
        <path class="cls-9" d="m336.78,156.79c0-1.71-1.39-3.09-3.1-3.09s-3.1,1.38-3.1,3.09,1.39,3.1,3.1,3.1,3.1-1.38,3.1-3.1Zm-4.53-.43h.99v-1c0-.2.17-.36.36-.36.2,0,.36.16.36.36v1h.85c.2,0,.36.16.36.36s-.16.36-.36.36h-.85v.85c0,.2-.16.36-.36.36s-.36-.16-.36-.36v-.85h-.99c-.2,0-.36-.16-.36-.36s.16-.36.36-.36Z"/>
        <polygon class="cls-7" points="331.7 174.54 331.7 168.71 334.45 168.71 334.45 174.54 334.45 185.65 331.7 185.65 331.7 174.54"/>
        <path class="cls-11" d="m332.25,157.08c-.2,0-.36-.16-.36-.36s.16-.36.36-.36h.99v.72h-.99Z"/>
        <path class="cls-11" d="m333.24,156.36v-1c0-.2.17-.36.36-.36.2,0,.36.16.36.36v1h-.72Z"/>
        <rect class="cls-11" x="333.24" y="156.36" width=".72" height=".72"/>
        <path class="cls-11" d="m333.24,157.93v-.85h.72v.85c0,.2-.16.36-.36.36s-.36-.16-.36-.36Z"/>
        <path class="cls-11" d="m333.96,157.08v-.72h.85c.2,0,.36.16.36.36s-.16.36-.36.36h-.85Z"/>
        <path class="cls-11" d="m334.81,174.9c-.2,0-.36-.17-.36-.36,0-.2.16-.36.36-.36h.36v.72h-.36Z"/>
        <path class="cls-11" d="m335.17,174.9v-.72h11.87s.03,0,.04,0c-.18.01-.32.16-.32.35,0,.18.14.34.32.35-.01,0-.03,0-.04,0h-11.87Z"/>
        <path class="cls-6" d="m340.93,185.71c-1.12,0-2.04-.92-2.04-2.04s.92-2.04,2.04-2.04,2.04.91,2.04,2.04-.92,2.04-2.04,2.04Z"/>
        <path class="cls-11" d="m346.83,139.26c-.04-.06-.07-.13-.07-.21,0-.2.16-.36.36-.36.07,0,.14,0,.21.01.05.06.07.13.07.2,0,.2-.16.36-.36.36h-.21Z"/>
        <path class="cls-11" d="m346.83,139.26h.21c.2,0,.36-.16.36-.36,0-.07-.02-.14-.07-.2,2.85.1,5.17,2.46,5.21,5.33-.01-.19-.16-.32-.36-.32s-.34.18-.35.37c-.01,0-.01-.03-.01-.04-.04-2.55-2.15-4.63-4.7-4.63-.12,0-.23-.06-.29-.15Z"/>
        <path class="cls-11" d="m347.08,174.89c-.18-.01-.32-.17-.32-.35,0-.19.14-.34.32-.35.18.01.32.16.32.35,0,.18-.14.34-.32.35Z"/>
        <path class="cls-11" d="m347.12,174.9s-.03,0-.04,0c.18-.01.32-.17.32-.35,0-.19-.14-.34-.32-.35,0,0,.03,0,.04,0,2.59,0,4.7-2.11,4.7-4.7,0-.01,0-.03.01-.04.01.18.16.32.35.32s.34-.14.35-.32c.01.01.01.03.01.04,0,2.99-2.43,5.42-5.42,5.42Z"/>
        <path class="cls-11" d="m351.82,169.4v-25.29s0-.02.01-.03c.01.18.14.31.35.32.2,0,.35-.16.36-.36v25.36s0,.03-.01.04c0-.18-.16-.32-.35-.32s-.34.14-.35.32c-.01,0-.01-.03-.01-.04Z"/>
        <path class="cls-11" d="m352.18,144.4c-.21,0-.34-.14-.35-.32.01-.19.16-.37.35-.37.2,0,.35.13.36.32h0c-.01.21-.16.36-.36.37Z"/>
        <path class="cls-11" d="m352.18,169.76c-.19,0-.34-.14-.35-.32.01-.18.16-.32.35-.32s.34.14.35.32c0,.18-.16.32-.35.32Z"/>
        <path class="cls-11" d="m367.67,123.56v-.36c0-.2.16-.36.36-.36s.36.16.36.36-.16.36-.36.36h-.36Z"/>
      </g>
      <g>
        <path class="cls-1" d="m333.68,159.89c1.71,0,3.1-1.38,3.1-3.1s-1.39-3.09-3.1-3.09-3.1,1.38-3.1,3.09,1.39,3.1,3.1,3.1Z"/>
        <path class="cls-1" d="m333.68,162.46c3.13,0,5.66-2.55,5.66-5.67s-2.53-5.66-5.66-5.66-5.66,2.53-5.66,5.66,2.53,5.67,5.66,5.67Z"/>
        <path class="cls-1" d="m340.93,185.71c1.12,0,2.04-.92,2.04-2.04s-.92-2.04-2.04-2.04-2.04.91-2.04,2.04.92,2.04,2.04,2.04Z"/>
        <path class="cls-1" d="m325.38,185.71c1.12,0,2.03-.92,2.03-2.04s-.91-2.04-2.03-2.04-2.04.91-2.04,2.04.92,2.04,2.04,2.04Z"/>
        <path class="cls-2" d="m269.48,131.96h84c3.66,0,6.63,2.97,6.63,6.63v47.74c0,3.66-2.97,6.63-6.63,6.63h-83.99c-3.66,0-6.63-2.97-6.63-6.63v-47.75c0-3.66,2.96-6.62,6.62-6.62Z"/>
        <rect class="cls-11" x="269.35" y="185.43" width="28.75" height=".87"/>
        <rect class="cls-11" x="269.35" y="179.58" width="28.75" height=".87"/>
        <rect class="cls-11" x="269.35" y="173.73" width="28.75" height=".87"/>
        <rect class="cls-11" x="269.35" y="167.87" width="28.75" height=".87"/>
        <rect class="cls-11" x="269.35" y="162.03" width="28.75" height=".87"/>
        <rect class="cls-11" x="269.35" y="156.17" width="28.75" height=".87"/>
        <rect class="cls-11" x="269.35" y="150.32" width="28.75" height=".87"/>
        <rect class="cls-11" x="269.35" y="144.46" width="28.75" height=".87"/>
        <rect class="cls-11" x="269.35" y="138.61" width="28.75" height=".87"/>
      </g>
    </g>
    <rect class="cls-11" x="232.86" y="127.23" width="136.02" height=".87"/>
  </g>
</svg>