<?xml version="1.0" encoding="UTF-8"?>
<svg xmlns="http://www.w3.org/2000/svg" xmlns:xlink="http://www.w3.org/1999/xlink" viewBox="0 0 399.25 537.34">
  <defs>
    <style>
      .cls-1 {
        fill: url(#radial-gradient-11);
      }

      .cls-1, .cls-2, .cls-3, .cls-4, .cls-5, .cls-6, .cls-7, .cls-8, .cls-9, .cls-10, .cls-11, .cls-12, .cls-13, .cls-14, .cls-15, .cls-16, .cls-17, .cls-18, .cls-19, .cls-20, .cls-21, .cls-22 {
        mix-blend-mode: multiply;
      }

      .cls-23 {
        filter: url(#luminosity-noclip-11);
      }

      .cls-24 {
        fill: url(#radial-gradient-10);
      }

      .cls-25 {
        filter: url(#luminosity-noclip-17);
      }

      .cls-26 {
        mask: url(#mask-23);
      }

      .cls-27 {
        mask: url(#mask-27);
      }

      .cls-28 {
        mask: url(#mask-10);
      }

      .cls-2 {
        fill: url(#radial-gradient-6);
      }

      .cls-29 {
        mask: url(#mask-26);
      }

      .cls-30 {
        filter: url(#luminosity-noclip-7);
      }

      .cls-3 {
        fill: url(#radial-gradient-18);
      }

      .cls-31 {
        filter: url(#luminosity-noclip-13);
      }

      .cls-32 {
        mask: url(#mask-17);
      }

      .cls-33 {
        filter: url(#luminosity-noclip-5);
      }

      .cls-4 {
        fill: url(#radial-gradient-8);
      }

      .cls-34 {
        fill: url(#radial-gradient-16);
      }

      .cls-35 {
        fill: url(#radial-gradient-20);
      }

      .cls-5 {
        fill: url(#radial-gradient-2);
      }

      .cls-36 {
        mask: url(#mask-2);
      }

      .cls-37 {
        fill: url(#radial-gradient-4);
      }

      .cls-38 {
        isolation: isolate;
      }

      .cls-39 {
        filter: url(#luminosity-noclip-25);
      }

      .cls-40 {
        mask: url(#mask-13);
      }

      .cls-41 {
        mask: url(#mask-3);
      }

      .cls-42 {
        filter: url(#luminosity-noclip-15);
      }

      .cls-43 {
        fill: url(#radial-gradient-26);
      }

      .cls-6 {
        fill: url(#radial-gradient-9);
      }

      .cls-7 {
        fill: url(#radial-gradient-5);
      }

      .cls-8 {
        fill: url(#radial-gradient);
      }

      .cls-44 {
        fill: url(#radial-gradient-22);
      }

      .cls-45 {
        mask: url(#mask-9);
      }

      .cls-9 {
        fill: url(#radial-gradient-19);
      }

      .cls-46 {
        mask: url(#mask-12);
      }

      .cls-47 {
        mask: url(#mask-5);
      }

      .cls-48 {
        filter: url(#luminosity-noclip-21);
      }

      .cls-49 {
        mask: url(#mask-20);
      }

      .cls-50 {
        filter: url(#luminosity-noclip-9);
      }

      .cls-51 {
        mask: url(#mask-25);
      }

      .cls-52 {
        mask: url(#mask-8);
      }

      .cls-10 {
        fill: url(#radial-gradient-28);
      }

      .cls-53 {
        mask: url(#mask-4);
      }

      .cls-54 {
        mask: url(#mask-24);
      }

      .cls-55 {
        mask: url(#mask-19);
      }

      .cls-56 {
        mask: url(#mask-15);
      }

      .cls-11 {
        fill: url(#radial-gradient-15);
      }

      .cls-57 {
        mask: url(#mask-6);
      }

      .cls-12 {
        fill: url(#radial-gradient-23);
      }

      .cls-58 {
        mask: url(#mask-16);
      }

      .cls-59 {
        mask: url(#mask-18);
      }

      .cls-13 {
        fill: url(#radial-gradient-14);
      }

      .cls-60 {
        filter: url(#luminosity-noclip);
      }

      .cls-14 {
        fill: url(#radial-gradient-27);
      }

      .cls-61 {
        mask: url(#mask-1);
      }

      .cls-62 {
        mask: url(#mask);
      }

      .cls-63 {
        filter: url(#luminosity-noclip-23);
      }

      .cls-64 {
        mask: url(#mask-22);
      }

      .cls-15 {
        fill: url(#radial-gradient-17);
      }

      .cls-16 {
        fill: url(#radial-gradient-13);
      }

      .cls-65 {
        mask: url(#mask-7);
      }

      .cls-17 {
        fill: url(#radial-gradient-3);
      }

      .cls-66 {
        mask: url(#mask-14);
      }

      .cls-18 {
        fill: url(#radial-gradient-7);
      }

      .cls-67 {
        filter: url(#luminosity-noclip-19);
      }

      .cls-19 {
        fill: url(#radial-gradient-25);
      }

      .cls-68 {
        mask: url(#mask-21);
      }

      .cls-69 {
        filter: url(#luminosity-noclip-27);
      }

      .cls-70 {
        mask: url(#mask-11);
      }

      .cls-71 {
        filter: url(#luminosity-noclip-3);
      }

      .cls-20 {
        fill: url(#radial-gradient-21);
      }

      .cls-21 {
        fill: url(#radial-gradient-12);
      }

      .cls-22 {
        fill: url(#radial-gradient-24);
      }
    </style>
    <filter id="luminosity-noclip" x="115.89" y="205.32" width="177.24" height="85.8" color-interpolation-filters="sRGB" filterUnits="userSpaceOnUse">
      <feFlood flood-color="#fff" result="bg"/>
      <feBlend in="SourceGraphic" in2="bg"/>
    </filter>
    <filter id="luminosity-noclip-2" x="115.89" y="-8470.49" width="177.24" height="32766" color-interpolation-filters="sRGB" filterUnits="userSpaceOnUse">
      <feFlood flood-color="#fff" result="bg"/>
      <feBlend in="SourceGraphic" in2="bg"/>
    </filter>
    <mask id="mask-1" x="115.89" y="-8470.49" width="177.24" height="32766" maskUnits="userSpaceOnUse"/>
    <radialGradient id="radial-gradient" cx="919.87" cy="1922.64" fx="919.87" fy="1922.64" r="53.83" gradientTransform="translate(3369.77 -484.88) rotate(90) scale(.8 1.65)" gradientUnits="userSpaceOnUse">
      <stop offset="0" stop-color="#fff"/>
      <stop offset=".18" stop-color="#fcfcfc"/>
      <stop offset=".31" stop-color="#f2f2f2"/>
      <stop offset=".43" stop-color="#e2e2e2"/>
      <stop offset=".54" stop-color="#cbcbcb"/>
      <stop offset=".64" stop-color="#aeaeae"/>
      <stop offset=".74" stop-color="#8a8a8a"/>
      <stop offset=".83" stop-color="#5f5f5f"/>
      <stop offset=".92" stop-color="#2f2f2f"/>
      <stop offset="1" stop-color="#000"/>
    </radialGradient>
    <mask id="mask" x="115.89" y="205.32" width="177.24" height="85.8" maskUnits="userSpaceOnUse">
      <g class="cls-60">
        <g class="cls-61">
          <ellipse class="cls-8" cx="204.51" cy="248.22" rx="88.62" ry="42.9"/>
        </g>
      </g>
    </mask>
    <radialGradient id="radial-gradient-2" cx="919.87" cy="1922.64" fx="919.87" fy="1922.64" r="53.83" gradientTransform="translate(3369.77 -484.88) rotate(90) scale(.8 1.65)" gradientUnits="userSpaceOnUse">
      <stop offset="0" stop-color="#575757"/>
      <stop offset=".21" stop-color="#595959"/>
      <stop offset=".37" stop-color="#636363"/>
      <stop offset=".5" stop-color="#737373"/>
      <stop offset=".63" stop-color="#8a8a8a"/>
      <stop offset=".75" stop-color="#a7a7a7"/>
      <stop offset=".87" stop-color="#cbcbcb"/>
      <stop offset=".98" stop-color="#f4f4f4"/>
      <stop offset="1" stop-color="#fff"/>
    </radialGradient>
    <filter id="luminosity-noclip-3" x="152.57" y="212.31" width="139.27" height="67.42" color-interpolation-filters="sRGB" filterUnits="userSpaceOnUse">
      <feFlood flood-color="#fff" result="bg"/>
      <feBlend in="SourceGraphic" in2="bg"/>
    </filter>
    <filter id="luminosity-noclip-4" x="152.57" y="-8470.49" width="139.27" height="32766" color-interpolation-filters="sRGB" filterUnits="userSpaceOnUse">
      <feFlood flood-color="#fff" result="bg"/>
      <feBlend in="SourceGraphic" in2="bg"/>
    </filter>
    <mask id="mask-3" x="152.57" y="-8470.49" width="139.27" height="32766" maskUnits="userSpaceOnUse"/>
    <radialGradient id="radial-gradient-3" cx="917.11" cy="1911.89" fx="917.11" fy="1911.89" r="42.3" gradientTransform="translate(3369.77 -484.88) rotate(90) scale(.8 1.65)" gradientUnits="userSpaceOnUse">
      <stop offset="0" stop-color="#fff"/>
      <stop offset=".19" stop-color="#fcfcfc"/>
      <stop offset=".32" stop-color="#f3f3f3"/>
      <stop offset=".44" stop-color="#e3e3e3"/>
      <stop offset=".55" stop-color="#cdcdcd"/>
      <stop offset=".65" stop-color="#b1b1b1"/>
      <stop offset=".74" stop-color="#8e8e8e"/>
      <stop offset=".83" stop-color="#646464"/>
      <stop offset=".92" stop-color="#363636"/>
      <stop offset="1" stop-color="#010101"/>
      <stop offset="1" stop-color="#000"/>
    </radialGradient>
    <mask id="mask-2" x="152.57" y="212.31" width="139.27" height="67.42" maskUnits="userSpaceOnUse">
      <g class="cls-71">
        <g class="cls-41">
          <ellipse class="cls-17" cx="222.21" cy="246.03" rx="69.64" ry="33.71"/>
        </g>
      </g>
    </mask>
    <radialGradient id="radial-gradient-4" cx="917.11" cy="1911.89" fx="917.11" fy="1911.89" r="42.3" gradientTransform="translate(3369.77 -484.88) rotate(90) scale(.8 1.65)" gradientUnits="userSpaceOnUse">
      <stop offset="0" stop-color="#85a086"/>
      <stop offset=".25" stop-color="#87a288"/>
      <stop offset=".43" stop-color="#90a991"/>
      <stop offset=".58" stop-color="#a0b5a1"/>
      <stop offset=".72" stop-color="#b6c6b6"/>
      <stop offset=".85" stop-color="#d2dcd2"/>
      <stop offset=".97" stop-color="#f4f7f4"/>
      <stop offset="1" stop-color="#fff"/>
    </radialGradient>
    <filter id="luminosity-noclip-5" x="171.28" y="199.89" width="139.27" height="67.42" color-interpolation-filters="sRGB" filterUnits="userSpaceOnUse">
      <feFlood flood-color="#fff" result="bg"/>
      <feBlend in="SourceGraphic" in2="bg"/>
    </filter>
    <filter id="luminosity-noclip-6" x="171.28" y="-8470.49" width="139.27" height="32766" color-interpolation-filters="sRGB" filterUnits="userSpaceOnUse">
      <feFlood flood-color="#fff" result="bg"/>
      <feBlend in="SourceGraphic" in2="bg"/>
    </filter>
    <mask id="mask-5" x="171.28" y="-8470.49" width="139.27" height="32766" maskUnits="userSpaceOnUse"/>
    <radialGradient id="radial-gradient-5" cx="901.53" cy="1900.52" fx="901.53" fy="1900.52" r="42.3" xlink:href="#radial-gradient-3"/>
    <mask id="mask-4" x="171.28" y="199.89" width="139.27" height="67.42" maskUnits="userSpaceOnUse">
      <g class="cls-33">
        <g class="cls-47">
          <ellipse class="cls-7" cx="240.92" cy="233.6" rx="69.64" ry="33.71"/>
        </g>
      </g>
    </mask>
    <radialGradient id="radial-gradient-6" cx="901.53" cy="1900.52" fx="901.53" fy="1900.52" r="42.3" gradientTransform="translate(3369.77 -484.88) rotate(90) scale(.8 1.65)" gradientUnits="userSpaceOnUse">
      <stop offset="0" stop-color="#acd699"/>
      <stop offset=".27" stop-color="#aed79b"/>
      <stop offset=".45" stop-color="#b5daa4"/>
      <stop offset=".62" stop-color="#c2e1b4"/>
      <stop offset=".77" stop-color="#d4e9ca"/>
      <stop offset=".9" stop-color="#eaf5e6"/>
      <stop offset="1" stop-color="#fff"/>
    </radialGradient>
    <filter id="luminosity-noclip-7" x="115.89" y="328.43" width="177.24" height="85.8" color-interpolation-filters="sRGB" filterUnits="userSpaceOnUse">
      <feFlood flood-color="#fff" result="bg"/>
      <feBlend in="SourceGraphic" in2="bg"/>
    </filter>
    <filter id="luminosity-noclip-8" x="115.89" y="-8470.49" width="177.24" height="32766" color-interpolation-filters="sRGB" filterUnits="userSpaceOnUse">
      <feFlood flood-color="#fff" result="bg"/>
      <feBlend in="SourceGraphic" in2="bg"/>
    </filter>
    <mask id="mask-7" x="115.89" y="-8470.49" width="177.24" height="32766" maskUnits="userSpaceOnUse"/>
    <radialGradient id="radial-gradient-7" cx="1074.34" fx="1074.34" r="53.83" xlink:href="#radial-gradient"/>
    <mask id="mask-6" x="115.89" y="328.43" width="177.24" height="85.8" maskUnits="userSpaceOnUse">
      <g class="cls-30">
        <g class="cls-65">
          <ellipse class="cls-18" cx="204.51" cy="371.33" rx="88.62" ry="42.9"/>
        </g>
      </g>
    </mask>
    <radialGradient id="radial-gradient-8" cx="1074.34" fx="1074.34" r="53.83" xlink:href="#radial-gradient-2"/>
    <filter id="luminosity-noclip-9" x="152.57" y="335.42" width="139.27" height="67.42" color-interpolation-filters="sRGB" filterUnits="userSpaceOnUse">
      <feFlood flood-color="#fff" result="bg"/>
      <feBlend in="SourceGraphic" in2="bg"/>
    </filter>
    <filter id="luminosity-noclip-10" x="152.57" y="-8470.49" width="139.27" height="32766" color-interpolation-filters="sRGB" filterUnits="userSpaceOnUse">
      <feFlood flood-color="#fff" result="bg"/>
      <feBlend in="SourceGraphic" in2="bg"/>
    </filter>
    <mask id="mask-9" x="152.57" y="-8470.49" width="139.27" height="32766" maskUnits="userSpaceOnUse"/>
    <radialGradient id="radial-gradient-9" cx="1071.58" fx="1071.58" r="42.3" xlink:href="#radial-gradient-3"/>
    <mask id="mask-8" x="152.57" y="335.42" width="139.27" height="67.42" maskUnits="userSpaceOnUse">
      <g class="cls-50">
        <g class="cls-45">
          <ellipse class="cls-6" cx="222.21" cy="369.13" rx="69.64" ry="33.71"/>
        </g>
      </g>
    </mask>
    <radialGradient id="radial-gradient-10" cx="1071.58" fx="1071.58" r="42.3" xlink:href="#radial-gradient-4"/>
    <filter id="luminosity-noclip-11" x="171.28" y="323" width="139.27" height="67.42" color-interpolation-filters="sRGB" filterUnits="userSpaceOnUse">
      <feFlood flood-color="#fff" result="bg"/>
      <feBlend in="SourceGraphic" in2="bg"/>
    </filter>
    <filter id="luminosity-noclip-12" x="171.28" y="-8470.49" width="139.27" height="32766" color-interpolation-filters="sRGB" filterUnits="userSpaceOnUse">
      <feFlood flood-color="#fff" result="bg"/>
      <feBlend in="SourceGraphic" in2="bg"/>
    </filter>
    <mask id="mask-11" x="171.28" y="-8470.49" width="139.27" height="32766" maskUnits="userSpaceOnUse"/>
    <radialGradient id="radial-gradient-11" cx="1056" cy="1900.52" fx="1056" fy="1900.52" r="42.3" xlink:href="#radial-gradient-3"/>
    <mask id="mask-10" x="171.28" y="323" width="139.27" height="67.42" maskUnits="userSpaceOnUse">
      <g class="cls-23">
        <g class="cls-70">
          <ellipse class="cls-1" cx="240.92" cy="356.71" rx="69.64" ry="33.71"/>
        </g>
      </g>
    </mask>
    <radialGradient id="radial-gradient-12" cx="1056" fx="1056" xlink:href="#radial-gradient-6"/>
    <filter id="luminosity-noclip-13" x="115.89" y="451.54" width="177.24" height="85.8" color-interpolation-filters="sRGB" filterUnits="userSpaceOnUse">
      <feFlood flood-color="#fff" result="bg"/>
      <feBlend in="SourceGraphic" in2="bg"/>
    </filter>
    <filter id="luminosity-noclip-14" x="115.89" y="-8470.49" width="177.24" height="32766" color-interpolation-filters="sRGB" filterUnits="userSpaceOnUse">
      <feFlood flood-color="#fff" result="bg"/>
      <feBlend in="SourceGraphic" in2="bg"/>
    </filter>
    <mask id="mask-13" x="115.89" y="-8470.49" width="177.24" height="32766" maskUnits="userSpaceOnUse"/>
    <radialGradient id="radial-gradient-13" cx="1228.81" fx="1228.81" r="53.83" xlink:href="#radial-gradient"/>
    <mask id="mask-12" x="115.89" y="451.54" width="177.24" height="85.8" maskUnits="userSpaceOnUse">
      <g class="cls-31">
        <g class="cls-40">
          <ellipse class="cls-16" cx="204.51" cy="494.44" rx="88.62" ry="42.9"/>
        </g>
      </g>
    </mask>
    <radialGradient id="radial-gradient-14" cx="1228.81" fx="1228.81" r="53.83" xlink:href="#radial-gradient-2"/>
    <filter id="luminosity-noclip-15" x="152.57" y="458.53" width="139.27" height="67.42" color-interpolation-filters="sRGB" filterUnits="userSpaceOnUse">
      <feFlood flood-color="#fff" result="bg"/>
      <feBlend in="SourceGraphic" in2="bg"/>
    </filter>
    <filter id="luminosity-noclip-16" x="152.57" y="-8470.49" width="139.27" height="32766" color-interpolation-filters="sRGB" filterUnits="userSpaceOnUse">
      <feFlood flood-color="#fff" result="bg"/>
      <feBlend in="SourceGraphic" in2="bg"/>
    </filter>
    <mask id="mask-15" x="152.57" y="-8470.49" width="139.27" height="32766" maskUnits="userSpaceOnUse"/>
    <radialGradient id="radial-gradient-15" cx="1226.05" fx="1226.05" r="42.3" xlink:href="#radial-gradient-3"/>
    <mask id="mask-14" x="152.57" y="458.53" width="139.27" height="67.42" maskUnits="userSpaceOnUse">
      <g class="cls-42">
        <g class="cls-56">
          <ellipse class="cls-11" cx="222.21" cy="492.24" rx="69.64" ry="33.71"/>
        </g>
      </g>
    </mask>
    <radialGradient id="radial-gradient-16" cx="1226.05" fx="1226.05" r="42.3" xlink:href="#radial-gradient-4"/>
    <filter id="luminosity-noclip-17" x="171.28" y="446.11" width="139.27" height="67.42" color-interpolation-filters="sRGB" filterUnits="userSpaceOnUse">
      <feFlood flood-color="#fff" result="bg"/>
      <feBlend in="SourceGraphic" in2="bg"/>
    </filter>
    <filter id="luminosity-noclip-18" x="171.28" y="-8470.49" width="139.27" height="32766" color-interpolation-filters="sRGB" filterUnits="userSpaceOnUse">
      <feFlood flood-color="#fff" result="bg"/>
      <feBlend in="SourceGraphic" in2="bg"/>
    </filter>
    <mask id="mask-17" x="171.28" y="-8470.49" width="139.27" height="32766" maskUnits="userSpaceOnUse"/>
    <radialGradient id="radial-gradient-17" cx="1210.47" cy="1900.52" fx="1210.47" fy="1900.52" xlink:href="#radial-gradient-3"/>
    <mask id="mask-16" x="171.28" y="446.11" width="139.27" height="67.42" maskUnits="userSpaceOnUse">
      <g class="cls-25">
        <g class="cls-32">
          <ellipse class="cls-15" cx="240.92" cy="479.82" rx="69.64" ry="33.71"/>
        </g>
      </g>
    </mask>
    <radialGradient id="radial-gradient-18" cx="1210.47" fx="1210.47" r="42.3" xlink:href="#radial-gradient-6"/>
    <filter id="luminosity-noclip-19" x="100.54" y="18.88" width="279.88" height="132.24" color-interpolation-filters="sRGB" filterUnits="userSpaceOnUse">
      <feFlood flood-color="#fff" result="bg"/>
      <feBlend in="SourceGraphic" in2="bg"/>
    </filter>
    <filter id="luminosity-noclip-20" x="100.54" y="-8470.49" width="279.88" height="32766" color-interpolation-filters="sRGB" filterUnits="userSpaceOnUse">
      <feFlood flood-color="#fff" result="bg"/>
      <feBlend in="SourceGraphic" in2="bg"/>
    </filter>
    <mask id="mask-19" x="100.54" y="-8470.49" width="279.88" height="32766" maskUnits="userSpaceOnUse"/>
    <radialGradient id="radial-gradient-19" cx="1150.96" cy="1412.09" fx="1150.96" fy="1412.09" r="79.27" gradientTransform="translate(979.55 2894.29) rotate(-159.4) scale(.88 1.68) skewX(28.44)" gradientUnits="userSpaceOnUse">
      <stop offset="0" stop-color="#fff"/>
      <stop offset=".28" stop-color="#fcfcfc"/>
      <stop offset=".42" stop-color="#f5f5f5"/>
      <stop offset=".52" stop-color="#e7e7e7"/>
      <stop offset=".61" stop-color="#d5d5d5"/>
      <stop offset=".69" stop-color="#bdbdbd"/>
      <stop offset=".77" stop-color="#9f9f9f"/>
      <stop offset=".84" stop-color="#7b7b7b"/>
      <stop offset=".9" stop-color="#525252"/>
      <stop offset=".96" stop-color="#242424"/>
      <stop offset="1" stop-color="#000"/>
    </radialGradient>
    <mask id="mask-18" x="100.54" y="18.88" width="279.88" height="132.24" maskUnits="userSpaceOnUse">
      <g class="cls-67">
        <g class="cls-55">
          <ellipse class="cls-9" cx="240.48" cy="85" rx="66.11" ry="139.92" transform="translate(154.12 324.99) rotate(-89.68)"/>
        </g>
      </g>
    </mask>
    <radialGradient id="radial-gradient-20" cx="1150.96" cy="1412.09" fx="1150.96" fy="1412.09" r="79.27" gradientTransform="translate(979.55 2894.29) rotate(-159.4) scale(.88 1.68) skewX(28.44)" gradientUnits="userSpaceOnUse">
      <stop offset="0" stop-color="#0e0e0e"/>
      <stop offset=".28" stop-color="#101010"/>
      <stop offset=".42" stop-color="#171717"/>
      <stop offset=".53" stop-color="#252525"/>
      <stop offset=".62" stop-color="#373737"/>
      <stop offset=".71" stop-color="#4f4f4f"/>
      <stop offset=".78" stop-color="#6d6d6d"/>
      <stop offset=".85" stop-color="#919191"/>
      <stop offset=".91" stop-color="#bababa"/>
      <stop offset=".97" stop-color="#e8e8e8"/>
      <stop offset="1" stop-color="#fff"/>
    </radialGradient>
    <filter id="luminosity-noclip-21" x="107.76" y="0" width="279.88" height="132.24" color-interpolation-filters="sRGB" filterUnits="userSpaceOnUse">
      <feFlood flood-color="#fff" result="bg"/>
      <feBlend in="SourceGraphic" in2="bg"/>
    </filter>
    <filter id="luminosity-noclip-22" x="107.76" y="-8470.49" width="279.88" height="32766" color-interpolation-filters="sRGB" filterUnits="userSpaceOnUse">
      <feFlood flood-color="#fff" result="bg"/>
      <feBlend in="SourceGraphic" in2="bg"/>
    </filter>
    <mask id="mask-21" x="107.76" y="-8470.49" width="279.88" height="32766" maskUnits="userSpaceOnUse"/>
    <radialGradient id="radial-gradient-21" cx="1127.91" cy="1412.09" fx="1127.91" fy="1412.09" r="79.27" gradientTransform="translate(967.85 2868.29) rotate(-159.4) scale(.88 1.68) skewX(28.44)" xlink:href="#radial-gradient-3"/>
    <mask id="mask-20" x="107.76" y="0" width="279.88" height="132.24" maskUnits="userSpaceOnUse">
      <g class="cls-48">
        <g class="cls-68">
          <ellipse class="cls-20" cx="247.7" cy="66.12" rx="66.11" ry="139.92" transform="translate(180.18 313.44) rotate(-89.68)"/>
        </g>
      </g>
    </mask>
    <radialGradient id="radial-gradient-22" cx="1127.91" cy="1412.09" fx="1127.91" fy="1412.09" r="79.27" gradientTransform="translate(967.85 2868.29) rotate(-159.4) scale(.88 1.68) skewX(28.44)" xlink:href="#radial-gradient-6"/>
    <filter id="luminosity-noclip-23" x="21.23" y="87.88" width="194.73" height="94.27" color-interpolation-filters="sRGB" filterUnits="userSpaceOnUse">
      <feFlood flood-color="#fff" result="bg"/>
      <feBlend in="SourceGraphic" in2="bg"/>
    </filter>
    <filter id="luminosity-noclip-24" x="21.23" y="-8470.49" width="194.73" height="32766" color-interpolation-filters="sRGB" filterUnits="userSpaceOnUse">
      <feFlood flood-color="#fff" result="bg"/>
      <feBlend in="SourceGraphic" in2="bg"/>
    </filter>
    <mask id="mask-23" x="21.23" y="-8470.49" width="194.73" height="32766" maskUnits="userSpaceOnUse"/>
    <radialGradient id="radial-gradient-23" cx="413.96" cy="-670.18" fx="413.96" fy="-670.18" r="59.13" gradientTransform="translate(-266.42 734.46) rotate(-7.1) scale(1.61 .82) skewX(10.98)" xlink:href="#radial-gradient"/>
    <mask id="mask-22" x="21.23" y="87.88" width="194.73" height="94.27" maskUnits="userSpaceOnUse">
      <g class="cls-63">
        <g class="cls-26">
          <ellipse class="cls-12" cx="118.6" cy="135.01" rx="97.34" ry="47.12"/>
        </g>
      </g>
    </mask>
    <radialGradient id="radial-gradient-24" cx="413.96" cy="-670.18" fx="413.96" fy="-670.18" r="59.13" gradientTransform="translate(-266.42 734.46) rotate(-7.1) scale(1.61 .82) skewX(10.98)" xlink:href="#radial-gradient-2"/>
    <filter id="luminosity-noclip-25" x="32.42" y="89.46" width="153.02" height="74.07" color-interpolation-filters="sRGB" filterUnits="userSpaceOnUse">
      <feFlood flood-color="#fff" result="bg"/>
      <feBlend in="SourceGraphic" in2="bg"/>
    </filter>
    <filter id="luminosity-noclip-26" x="32.42" y="-8470.49" width="153.02" height="32766" color-interpolation-filters="sRGB" filterUnits="userSpaceOnUse">
      <feFlood flood-color="#fff" result="bg"/>
      <feBlend in="SourceGraphic" in2="bg"/>
    </filter>
    <mask id="mask-25" x="32.42" y="-8470.49" width="153.02" height="32766" maskUnits="userSpaceOnUse"/>
    <radialGradient id="radial-gradient-25" cx="410.93" cy="-681.99" fx="410.93" fy="-681.99" r="46.46" gradientTransform="translate(-266.42 734.46) rotate(-7.1) scale(1.61 .82) skewX(10.98)" xlink:href="#radial-gradient-3"/>
    <mask id="mask-24" x="32.42" y="89.46" width="153.02" height="74.07" maskUnits="userSpaceOnUse">
      <g class="cls-39">
        <g class="cls-51">
          <ellipse class="cls-19" cx="108.92" cy="126.5" rx="76.49" ry="37.03"/>
        </g>
      </g>
    </mask>
    <radialGradient id="radial-gradient-26" cx="410.93" cy="-681.99" fx="410.93" fy="-681.99" r="46.46" gradientTransform="translate(-266.42 734.46) rotate(-7.1) scale(1.61 .82) skewX(10.98)" xlink:href="#radial-gradient-4"/>
    <filter id="luminosity-noclip-27" x="0" y="83.23" width="153.02" height="74.07" color-interpolation-filters="sRGB" filterUnits="userSpaceOnUse">
      <feFlood flood-color="#fff" result="bg"/>
      <feBlend in="SourceGraphic" in2="bg"/>
    </filter>
    <filter id="luminosity-noclip-28" x="0" y="-8470.49" width="153.02" height="32766" color-interpolation-filters="sRGB" filterUnits="userSpaceOnUse">
      <feFlood flood-color="#fff" result="bg"/>
      <feBlend in="SourceGraphic" in2="bg"/>
    </filter>
    <mask id="mask-27" x="0" y="-8470.49" width="153.02" height="32766" maskUnits="userSpaceOnUse"/>
    <radialGradient id="radial-gradient-27" cx="393.81" cy="-694.48" fx="393.81" fy="-694.48" r="46.46" gradientTransform="translate(-266.42 734.46) rotate(-7.1) scale(1.61 .82) skewX(10.98)" xlink:href="#radial-gradient-3"/>
    <mask id="mask-26" x="0" y="83.23" width="153.02" height="74.07" maskUnits="userSpaceOnUse">
      <g class="cls-69">
        <g class="cls-27">
          <ellipse class="cls-14" cx="76.51" cy="120.26" rx="76.49" ry="37.03"/>
        </g>
      </g>
    </mask>
    <radialGradient id="radial-gradient-28" cx="393.81" cy="-694.48" fx="393.81" fy="-694.48" r="46.46" gradientTransform="translate(-266.42 734.46) rotate(-7.1) scale(1.61 .82) skewX(10.98)" xlink:href="#radial-gradient-6"/>
  </defs>
  <g class="cls-38">
    <g id="Layer_1" data-name="Layer 1">
      <g>
        <path d="m287.42,237.17c0-.11.14-.22.38-.27.3-.06.65.01.77.16,2.11,2.59,2.3,5.49.53,8.15-.1.15-.43.23-.75.19-.31-.05-.48-.21-.38-.36,1.69-2.53,1.51-5.29-.51-7.76-.03-.03-.04-.07-.04-.11Z"/>
        <path d="m286.04,254.68c0-.12.15-.22.38-.27,3.72-.68,6.35-2.36,6.7-4.27.34-1.91-1.62-3.79-5.02-4.78-.28-.08-.37-.26-.2-.39.17-.14.53-.18.81-.1,3.79,1.1,5.98,3.2,5.59,5.33-.4,2.13-3.33,4-7.47,4.76-.31.06-.65-.02-.76-.17-.03-.03-.04-.07-.04-.1Z"/>
        <g class="cls-62">
          <ellipse class="cls-5" cx="204.51" cy="248.22" rx="88.62" ry="42.9"/>
        </g>
        <g class="cls-36">
          <ellipse class="cls-37" cx="222.21" cy="246.03" rx="69.64" ry="33.71"/>
        </g>
        <g class="cls-53">
          <ellipse class="cls-2" cx="240.92" cy="233.6" rx="69.64" ry="33.71"/>
        </g>
        <path d="m233.38,236.18c0-.12.17-.24.42-.27.31-.05.64.04.74.19,1.24,2,3.59,3.8,6.78,5.21.24.11.26.29.04.41-.22.12-.59.13-.84.02-3.35-1.48-5.81-3.37-7.12-5.47-.02-.03-.03-.06-.03-.08Z"/>
        <path d="m198.52,225.52c0-.72.13-1.44.4-2.15.06-.16.37-.26.69-.23.32.03.54.17.48.33-.9,2.44-.19,4.9,2.07,7.12.15.14.02.31-.27.38-.29.07-.65.01-.79-.13-1.71-1.68-2.57-3.49-2.57-5.32Z"/>
        <path d="m172.71,235.17h0c0-4.92,6.08-9.31,15.48-11.18.3-.06.65.01.77.16s-.02.31-.32.37c-8.95,1.78-14.74,5.96-14.74,10.65,0,.16-.27.29-.59.29s-.59-.13-.59-.29Z"/>
        <path d="m182.21,244.53c0-.06.04-.12.12-.18.2-.13.57-.15.83-.05,7,2.61,16.35,3.13,24.39,1.35.3-.07.65,0,.78.14.14.15,0,.31-.29.38-8.44,1.87-18.25,1.32-25.61-1.42-.15-.06-.23-.14-.23-.23Z"/>
        <path d="m198.96,223.41s0-.01,0-.02c.03-.16.31-.28.64-.26,7.03.26,13.53,1.96,17.84,4.66,4.31,2.7,6.07,6.17,4.82,9.53-.06.16-.37.26-.69.23-.32-.03-.54-.17-.48-.33,1.18-3.2-.49-6.51-4.6-9.08-4.1-2.57-10.3-4.19-16.99-4.44-.31-.01-.55-.14-.55-.29Z"/>
        <path d="m160.94,251.14c0-2.77,1.99-5.52,5.64-7.67.21-.12.58-.14.83-.04.25.1.29.28.08.4-3.98,2.36-5.9,5.45-5.24,8.48.65,3.03,3.83,5.86,8.73,7.78.26.1.3.28.09.4-.21.12-.58.14-.83.04-5.14-2.01-8.48-4.98-9.17-8.16-.09-.41-.13-.82-.13-1.23Z"/>
        <path d="m179.97,262.63s0-.04.01-.06c.07-.15.39-.25.71-.22,3.53.39,7.26.37,10.79-.04.32-.04.64.06.71.21.08.16-.12.31-.44.35-3.7.43-7.61.45-11.32.04-.27-.03-.46-.15-.46-.28Z"/>
        <path d="m207.2,245.91c0-.11.12-.21.33-.26.29-.07.65-.01.79.13,2.2,2.16,3.01,4.57,2.34,6.96-.04.16-.34.27-.67.25-.32-.02-.57-.17-.51-.32.63-2.28-.13-4.57-2.23-6.63-.04-.04-.06-.08-.06-.13Z"/>
        <path d="m180.99,267.93c0-.12.16-.23.41-.27.31-.05.65.03.75.18,2.87,4.15,10.51,7.2,19.47,7.76.32.02.55.17.51.32-.04.16-.34.27-.67.25-9.41-.6-17.43-3.8-20.44-8.15-.02-.03-.03-.06-.03-.09Z"/>
        <path d="m209.46,252.68s0-.04.01-.06c.07-.15.39-.25.71-.22,4.21.46,8.13,1.44,11.32,2.85.24.11.26.29.04.41-.22.12-.6.13-.84.02-3.04-1.34-6.77-2.28-10.78-2.72-.27-.03-.46-.15-.46-.28Z"/>
        <path d="m179.95,262.61s0-.03,0-.04c.51-1.82,1.9-3.6,4.02-5.12.18-.13.55-.17.82-.08.27.09.34.27.16.4-2.02,1.46-3.35,3.14-3.83,4.88-.04.16-.34.27-.67.25-.3-.02-.51-.14-.51-.28Z"/>
        <path d="m219.39,276.89s.02-.09.06-.13c.14-.14.5-.2.79-.13,11.03,2.62,24.22.78,30.69-4.27.17-.13.54-.18.82-.09.28.08.36.26.19.39-6.79,5.3-20.64,7.23-32.22,4.49-.21-.05-.33-.15-.33-.26Z"/>
        <path d="m220.49,255.45c0-.11.14-.22.36-.26,5.59-1.16,11.85-1.3,17.63-.38.31.05.49.21.38.36-.1.15-.44.23-.75.18-5.5-.87-11.47-.74-16.79.37-.3.06-.65,0-.78-.15-.03-.04-.05-.08-.05-.11Z"/>
        <path d="m237.59,256.26c0-.4.04-.8.12-1.2.03-.16.32-.27.65-.26.33.02.55.16.53.31-.71,3.49,1.86,6.91,7.05,9.36.23.11.24.29,0,.41-.23.11-.6.12-.84,0-4.85-2.3-7.52-5.39-7.52-8.63Z"/>
        <path d="m265.4,267.93c0-.14.21-.26.51-.28,12.87-.89,21.94-6.69,20.23-12.92-.06-.16.18-.3.51-.32.32-.02.62.09.67.25,1.82,6.56-7.73,12.64-21.24,13.57-.32.02-.62-.09-.67-.24,0-.01,0-.03,0-.04Z"/>
        <path d="m250.82,272.5s.01-.06.03-.09c.1-.15.44-.23.75-.18,3.05.5,6.35.3,9.05-.56,2.7-.85,4.41-2.23,4.69-3.79.03-.16.32-.27.64-.26.32.01.58.14.54.31-.31,1.73-2.22,3.27-5.22,4.22-3.01.95-6.68,1.18-10.08.62-.25-.04-.4-.15-.4-.27Z"/>
        <path d="m244.92,264.68c0-.05.03-.1.09-.15,1.84-1.47,4.91-2.44,8.42-2.66.32-.02.62.09.66.25.06.16-.18.3-.51.32-3.15.2-5.91,1.07-7.56,2.39-.17.14-.53.18-.81.1-.18-.05-.29-.15-.29-.25Z"/>
        <path d="m278.56,227.58c0-.13.18-.25.46-.28,5.43-.61,11.01.74,13.26,3.2,2.25,2.47.56,5.37-4.03,6.9-.27.09-.64.06-.82-.07-.19-.13-.12-.31.15-.4,4.12-1.38,5.64-3.98,3.62-6.2-2.03-2.22-7.03-3.43-11.91-2.88-.32.04-.64-.06-.71-.21-.01-.02-.02-.04-.02-.07Z"/>
        <path d="m236.68,226.09c0-.12.17-.24.42-.27.31-.05.64.04.74.19,1.16,1.86,4.48,3.25,8.45,3.54.32.02.54.17.5.33-.05.16-.35.27-.67.24-4.42-.32-8.12-1.86-9.41-3.94-.02-.03-.03-.06-.03-.08Z"/>
        <path d="m164.2,240.4c0-.64.23-1.28.68-1.9,1.34-1.81,4.45-3.15,8.32-3.59.32-.04.64.06.71.21.08.16-.12.31-.44.34-3.47.39-6.27,1.6-7.47,3.22-1.2,1.63-.61,3.41,1.56,4.78.2.13.15.31-.11.4-.26.1-.63.07-.83-.05-1.59-1-2.42-2.2-2.42-3.43Z"/>
        <path d="m182.22,244.53c0-.08.07-.17.22-.22,3-1.19,4.39-3.07,3.62-4.91-.07-.16.14-.31.46-.34.32-.03.63.07.7.22.86,2.05-.69,4.14-4.03,5.47-.25.1-.63.08-.83-.04-.09-.05-.14-.12-.14-.18Z"/>
        <path d="m168.95,262.61c0-.83.38-1.67,1.15-2.44.14-.14.5-.2.79-.13.29.07.42.24.28.38-1.63,1.64-1.32,3.59.83,5.08,2.14,1.49,5.8,2.32,9.55,2.14.33-.01.62.1.65.26.04.17-.21.3-.53.31-4.17.19-8.24-.72-10.63-2.39-1.37-.96-2.08-2.08-2.08-3.21Z"/>
        <path d="m206.25,268.67c0-.11.13-.21.35-.26,3.22-.71,6.88-.68,10.04.09,3.16.77,5.41,2.17,6.15,3.84.08.16-.13.31-.45.34-.32.03-.64-.06-.7-.22-.67-1.5-2.68-2.76-5.52-3.45-2.84-.69-6.13-.72-9.02-.08-.3.07-.65,0-.78-.14-.04-.04-.05-.08-.05-.12Z"/>
        <path d="m200.96,275.9c0-.11.12-.21.33-.26.29-.07.65-.01.79.13,1.58,1.54,4.64,2.58,8.18,2.78,3.54.19,7-.49,9.25-1.83.21-.12.58-.14.83-.04s.29.28.09.4c-2.51,1.49-6.36,2.25-10.3,2.03-3.94-.21-7.35-1.37-9.11-3.09-.04-.04-.06-.08-.06-.13Z"/>
        <path d="m173,244.89c0-.5.44-.98,1.26-1.32.25-.1.62-.09.84.03.21.12.19.3-.06.4-.81.34-1.07.88-.64,1.35.13.14,0,.31-.31.38-.3.06-.65,0-.78-.15-.2-.22-.3-.46-.3-.69Z"/>
        <path d="m176.17,247.58c0-.4.3-.79.84-1.1.21-.12.59-.14.83-.03.25.1.28.28.07.4-.44.25-.63.58-.53.89.1.32.48.61,1.04.78.28.09.36.26.18.4-.18.13-.55.17-.82.09-.85-.27-1.42-.7-1.57-1.18-.02-.08-.04-.16-.04-.25Z"/>
        <path d="m173.7,246.38c0-.5.42-.98,1.16-1.33.24-.11.61-.11.84,0,.23.12.22.3-.01.41-.59.28-.89.68-.78,1.07.1.39.59.75,1.3.94.28.08.38.25.22.39-.16.14-.52.19-.81.11-1.04-.29-1.74-.8-1.89-1.37-.02-.07-.03-.15-.03-.22Z"/>
        <path d="m174.99,242.93c0-.15.05-.29.15-.44.44-.62,1.73-1.01,3.08-.91.32.02.53.15.5.33-.05.16-.35.26-.67.24-.78-.06-1.53.17-1.78.53-.25.36.06.76.75.94.29.08.39.25.23.39-.16.14-.52.19-.81.11-.91-.25-1.45-.71-1.45-1.19Z"/>
        <path d="m177.36,241.45c0-.24.18-.48.52-.67.57-.32,1.48-.44,2.31-.3.31.05.47.21.36.37-.11.15-.45.23-.75.18-.36-.06-.77,0-1.02.13-.26.14-.3.34-.12.51.16.14.05.31-.24.39-.29.07-.65.02-.8-.12-.17-.15-.25-.32-.25-.48Z"/>
        <path d="m185.96,232.78c0-.5.44-.98,1.26-1.32.25-.1.62-.09.84.03.22.12.19.3-.06.4-.81.34-1.07.88-.64,1.35.13.15,0,.31-.31.38-.3.06-.65,0-.78-.15-.2-.22-.3-.46-.3-.69Z"/>
        <path d="m189.23,235.46c0-.4.3-.79.84-1.1.21-.12.59-.14.83-.03.25.1.28.28.07.4-.44.25-.63.58-.53.89.1.32.48.61,1.04.78.28.09.36.27.18.4-.18.13-.54.17-.82.09-.85-.27-1.42-.7-1.57-1.18-.02-.08-.04-.16-.04-.25Z"/>
        <path d="m186.76,234.27c0-.5.42-.98,1.17-1.33.24-.11.61-.11.84,0,.23.12.22.3-.02.41-.59.28-.88.68-.78,1.07.1.39.59.75,1.3.94.28.08.38.25.22.39-.16.14-.52.19-.81.11-1.04-.29-1.74-.8-1.89-1.37-.02-.07-.03-.15-.03-.22Z"/>
        <path d="m188.04,230.82c0-.14.05-.29.15-.44.44-.62,1.73-1.01,3.08-.91.32.02.54.15.5.33-.05.16-.35.26-.67.24-.78-.06-1.53.17-1.78.53-.25.36.07.76.75.94.29.08.39.25.23.39-.16.14-.52.19-.81.11-.91-.25-1.45-.71-1.45-1.19Z"/>
        <path d="m190.41,229.38c0-.24.18-.48.51-.67.57-.32,1.48-.44,2.31-.3.31.05.47.21.36.37-.11.15-.45.23-.75.18-.37-.06-.77,0-1.02.13-.25.14-.29.35-.12.51.16.14.05.31-.24.39-.29.07-.65.02-.8-.12-.17-.15-.25-.32-.25-.48Z"/>
        <path d="m194.66,266.34c0-.5.44-.98,1.26-1.32.25-.1.62-.09.84.03s.19.3-.06.4c-.81.34-1.07.88-.64,1.35.13.14,0,.31-.31.38-.3.06-.65,0-.78-.15-.2-.23-.3-.46-.3-.7Z"/>
        <path d="m197.83,269.03c0-.4.3-.79.84-1.1.21-.12.59-.14.84-.03.25.1.28.29.07.4-.44.25-.62.58-.53.89.1.32.48.61,1.04.78.27.09.36.26.18.4-.18.13-.54.17-.82.09-.85-.27-1.42-.7-1.57-1.18-.02-.08-.04-.16-.04-.25Z"/>
        <path d="m195.36,267.83c0-.5.42-.98,1.17-1.33.24-.11.61-.11.84,0,.23.12.22.3-.02.41-.59.28-.88.68-.78,1.07.1.39.59.75,1.3.94.28.08.38.26.22.39-.16.14-.53.19-.81.11-1.04-.29-1.74-.8-1.89-1.37-.02-.07-.03-.15-.03-.22Z"/>
        <path d="m196.64,264.33c0-.14.05-.29.15-.44.44-.62,1.73-1.01,3.08-.91.32.02.54.15.5.33-.05.16-.35.26-.67.24-.78-.06-1.53.17-1.78.53-.25.36.07.76.75.94.29.08.39.25.23.39-.16.14-.52.19-.81.11-.91-.25-1.45-.71-1.45-1.19Z"/>
        <path d="m199.02,262.9c0-.24.18-.48.51-.67.57-.32,1.48-.44,2.31-.3.31.05.48.21.36.37-.11.15-.45.23-.75.18-.37-.06-.77,0-1.02.13-.25.14-.29.35-.12.51.16.14.05.31-.24.39-.29.07-.65.02-.8-.12-.17-.15-.25-.32-.25-.48Z"/>
      </g>
      <g>
        <path d="m287.42,360.28c0-.11.14-.22.38-.27.3-.06.65.01.77.16,2.11,2.59,2.31,5.49.53,8.14-.1.15-.43.23-.75.19-.31-.05-.48-.21-.38-.36,1.69-2.53,1.51-5.29-.51-7.76-.03-.03-.04-.07-.04-.11Z"/>
        <path d="m286.04,377.79c0-.12.15-.22.38-.27,3.72-.68,6.35-2.36,6.7-4.27.36-1.92-1.61-3.79-5.02-4.78-.28-.08-.37-.26-.2-.39.17-.14.53-.18.81-.1,3.79,1.1,5.98,3.2,5.59,5.33-.4,2.13-3.33,4-7.47,4.76-.31.06-.65-.02-.76-.17-.03-.03-.04-.07-.04-.1Z"/>
        <g class="cls-57">
          <ellipse class="cls-4" cx="204.51" cy="371.33" rx="88.62" ry="42.9"/>
        </g>
        <g class="cls-52">
          <ellipse class="cls-24" cx="222.21" cy="369.13" rx="69.64" ry="33.71"/>
        </g>
        <g class="cls-28">
          <ellipse class="cls-21" cx="240.92" cy="356.71" rx="69.64" ry="33.71"/>
        </g>
        <path d="m233.38,359.29c0-.12.17-.24.42-.27.31-.05.64.04.74.19,1.24,2,3.59,3.8,6.78,5.21.24.11.26.29.04.41-.22.12-.59.13-.84.02-3.35-1.48-5.81-3.37-7.12-5.47-.02-.03-.03-.06-.03-.08Z"/>
        <path d="m198.53,348.59c0-.71.13-1.42.39-2.12.06-.16.37-.26.69-.23.32.03.54.17.48.33-.89,2.4-.16,4.93,2.07,7.12.15.14.02.31-.27.38s-.65.01-.79-.13c-1.69-1.66-2.56-3.51-2.56-5.36Z"/>
        <path d="m172.71,358.28h0c0-4.92,6.08-9.31,15.48-11.18.3-.06.65,0,.77.16.12.15-.02.31-.32.37-8.95,1.78-14.74,5.96-14.74,10.65,0,.16-.27.29-.59.29s-.59-.13-.59-.29Z"/>
        <path d="m182.21,367.63c0-.06.04-.12.12-.18.2-.13.57-.15.83-.05,7,2.61,16.35,3.13,24.39,1.35.3-.07.65,0,.78.14.14.15,0,.32-.29.38-8.44,1.86-18.26,1.32-25.61-1.42-.15-.06-.23-.14-.23-.23Z"/>
        <path d="m198.96,346.52s0-.01,0-.02c.03-.16.31-.28.64-.26,7.03.26,13.53,1.96,17.84,4.66,4.31,2.7,6.07,6.17,4.82,9.53-.06.16-.37.26-.69.23-.32-.03-.54-.18-.48-.33,1.18-3.2-.49-6.51-4.6-9.08-4.11-2.57-10.3-4.19-16.99-4.44-.31-.01-.55-.14-.55-.29Z"/>
        <path d="m160.94,374.25c0-2.77,1.99-5.52,5.64-7.67.21-.12.58-.14.83-.04.25.1.29.28.08.4-3.98,2.36-5.89,5.44-5.24,8.48.65,3.03,3.83,5.86,8.73,7.78.26.1.3.28.09.4-.21.12-.58.14-.83.04-5.14-2.01-8.48-4.98-9.17-8.16-.09-.41-.13-.82-.13-1.23Z"/>
        <path d="m179.97,385.74s0-.04.01-.06c.07-.15.39-.25.71-.22,3.53.38,7.26.37,10.79-.04.32-.04.64.06.71.21.08.16-.12.31-.44.35-3.7.43-7.61.45-11.32.04-.27-.03-.46-.15-.46-.28Z"/>
        <path d="m207.2,369.02c0-.11.12-.21.33-.26.29-.07.65-.01.79.13,2.2,2.16,3.01,4.57,2.34,6.96-.04.16-.34.27-.67.25-.32-.02-.57-.17-.51-.32.63-2.28-.13-4.57-2.23-6.63-.04-.04-.06-.08-.06-.13Z"/>
        <path d="m180.99,391.04c0-.12.16-.23.41-.27.31-.05.65.03.75.18,2.87,4.15,10.51,7.2,19.47,7.76.32.02.55.17.51.32-.04.16-.34.27-.67.25-9.41-.6-17.43-3.8-20.44-8.15-.02-.03-.03-.06-.03-.09Z"/>
        <path d="m209.46,375.78s0-.04.01-.06c.07-.15.39-.25.71-.22,4.21.46,8.13,1.44,11.32,2.85.24.11.26.29.04.41-.22.12-.59.13-.84.02-3.04-1.34-6.77-2.28-10.78-2.71-.27-.03-.46-.15-.46-.28Z"/>
        <path d="m179.95,385.71s0-.03,0-.04c.51-1.82,1.9-3.6,4.02-5.12.18-.13.55-.17.82-.08.27.09.34.27.16.4-2.02,1.46-3.35,3.14-3.83,4.88-.04.16-.34.27-.67.25-.3-.02-.51-.14-.51-.28Z"/>
        <path d="m219.39,400s.02-.09.06-.13c.14-.14.5-.2.79-.13,11.03,2.62,24.22.78,30.69-4.27.17-.13.54-.18.82-.09.28.08.36.26.19.39-6.79,5.3-20.64,7.23-32.22,4.49-.21-.05-.33-.15-.33-.26Z"/>
        <path d="m220.49,378.56c0-.11.14-.22.36-.26,5.59-1.16,11.85-1.3,17.63-.38.31.05.49.21.38.36-.1.15-.44.23-.75.18-5.5-.87-11.47-.74-16.79.37-.3.06-.65,0-.78-.15-.03-.04-.05-.08-.05-.11Z"/>
        <path d="m237.59,379.37c0-.4.04-.8.12-1.2.03-.16.32-.27.65-.26.33.02.55.16.53.31-.71,3.49,1.86,6.91,7.05,9.36.23.11.24.29,0,.41-.23.11-.6.12-.84,0-4.85-2.3-7.52-5.39-7.52-8.63Z"/>
        <path d="m265.4,391.03c0-.14.21-.26.51-.28,12.87-.89,21.94-6.69,20.23-12.92-.06-.16.18-.3.51-.32.32-.02.62.09.67.25,1.81,6.55-7.72,12.64-21.24,13.57-.32.02-.62-.09-.67-.24,0-.01,0-.03,0-.04Z"/>
        <path d="m250.82,395.61s.01-.06.03-.09c.1-.15.44-.23.75-.18,3.05.5,6.35.3,9.05-.56,2.7-.85,4.41-2.23,4.69-3.79.03-.16.32-.27.64-.26.32.01.58.14.54.31-.31,1.73-2.22,3.27-5.22,4.22-3,.95-6.68,1.18-10.08.62-.25-.04-.4-.15-.4-.27Z"/>
        <path d="m244.92,387.79c0-.05.03-.1.09-.15,1.84-1.47,4.91-2.44,8.42-2.66.32-.02.62.09.66.25.06.15-.18.3-.51.32-3.15.2-5.91,1.07-7.56,2.39-.17.14-.53.18-.81.1-.18-.05-.29-.15-.29-.25Z"/>
        <path d="m278.56,350.69c0-.13.18-.25.46-.28,5.43-.61,11,.74,13.26,3.2,2.25,2.47.56,5.37-4.03,6.9-.27.09-.64.06-.82-.07-.18-.13-.12-.31.15-.4,4.12-1.38,5.64-3.99,3.62-6.2-2.03-2.22-7.03-3.43-11.91-2.88-.32.04-.64-.06-.71-.21-.01-.02-.02-.04-.02-.06Z"/>
        <path d="m236.68,349.2c0-.12.17-.24.42-.27.31-.05.64.04.74.19,1.16,1.86,4.48,3.25,8.45,3.54.32.02.54.17.5.33-.05.16-.35.27-.67.24-4.42-.32-8.12-1.86-9.41-3.94-.02-.03-.03-.06-.03-.08Z"/>
        <path d="m164.2,363.51c0-.64.23-1.28.68-1.9,1.34-1.81,4.44-3.15,8.31-3.59.32-.04.64.06.71.21.08.16-.12.31-.44.34-3.48.39-6.27,1.6-7.47,3.22-1.2,1.63-.61,3.42,1.56,4.78.2.12.15.31-.11.4-.26.1-.63.07-.83-.05-1.59-1-2.42-2.21-2.42-3.43Z"/>
        <path d="m182.22,367.63c0-.08.07-.17.22-.22,3-1.19,4.39-3.07,3.62-4.91-.07-.16.14-.31.46-.34.32-.03.63.07.7.22.86,2.05-.69,4.14-4.03,5.47-.25.1-.63.08-.83-.04-.09-.05-.14-.12-.14-.18Z"/>
        <path d="m168.95,385.72c0-.83.38-1.67,1.15-2.44.14-.14.5-.2.79-.13.29.07.42.24.28.38-1.63,1.64-1.32,3.59.83,5.08,2.14,1.49,5.8,2.32,9.55,2.15.33-.01.62.1.65.26.04.17-.21.3-.53.31-4.17.19-8.24-.73-10.63-2.39-1.37-.96-2.08-2.08-2.08-3.21Z"/>
        <path d="m206.25,391.78c0-.11.13-.21.35-.26,3.22-.71,6.88-.68,10.04.09,3.16.77,5.41,2.17,6.15,3.84.08.16-.13.31-.45.34-.32.03-.64-.06-.7-.22-.67-1.5-2.68-2.76-5.52-3.45-2.84-.69-6.13-.72-9.02-.08-.3.07-.65,0-.78-.14-.04-.04-.05-.08-.05-.12Z"/>
        <path d="m200.96,399.01c0-.11.12-.21.33-.26.29-.07.65-.01.79.13,1.58,1.54,4.64,2.58,8.18,2.78,3.54.19,7-.49,9.25-1.83.21-.12.58-.14.83-.04s.29.28.09.4c-2.51,1.49-6.36,2.25-10.3,2.03-3.94-.21-7.35-1.37-9.11-3.09-.04-.04-.06-.08-.06-.13Z"/>
        <path d="m173,368c0-.5.44-.98,1.26-1.32.25-.1.62-.09.84.03s.19.3-.06.4c-.81.34-1.07.88-.64,1.35.13.14,0,.31-.31.38-.3.06-.65,0-.78-.15-.2-.22-.3-.46-.3-.69Z"/>
        <path d="m176.17,370.68c0-.4.3-.79.84-1.1.21-.12.59-.14.83-.03.25.1.28.28.07.4-.44.25-.64.58-.53.89.1.32.48.61,1.04.78.28.09.36.26.18.4-.18.13-.55.17-.82.09-.85-.27-1.42-.7-1.57-1.18-.02-.08-.04-.17-.04-.25Z"/>
        <path d="m173.7,369.49c0-.5.42-.98,1.16-1.33.24-.11.61-.11.84,0,.23.12.22.3-.01.41-.59.28-.89.68-.78,1.07.1.39.59.75,1.3.95.28.08.38.25.22.39-.16.14-.52.19-.81.11-1.04-.29-1.74-.8-1.89-1.37-.02-.07-.03-.15-.03-.22Z"/>
        <path d="m174.99,366.04c0-.15.05-.29.15-.44.44-.62,1.73-1.01,3.08-.91.32.02.53.16.5.33-.05.16-.35.26-.67.24-.78-.06-1.53.17-1.78.53-.25.36.06.76.75.94.29.08.39.25.23.39-.16.14-.52.19-.81.11-.91-.25-1.45-.71-1.45-1.19Z"/>
        <path d="m177.36,364.56c0-.24.18-.48.51-.67.57-.32,1.48-.44,2.31-.3.31.05.47.21.36.37-.11.15-.45.23-.75.18-.36-.06-.77,0-1.02.13-.26.14-.3.34-.12.51.16.14.05.31-.24.39-.29.07-.65.02-.8-.12-.17-.15-.25-.32-.25-.48Z"/>
        <path d="m185.96,355.89c0-.5.44-.98,1.26-1.32.25-.1.62-.09.84.03.22.12.19.3-.06.4-.81.34-1.07.88-.64,1.35.13.15,0,.31-.31.38-.3.06-.65,0-.78-.15-.2-.23-.3-.46-.3-.69Z"/>
        <path d="m189.23,358.57c0-.4.3-.79.84-1.1.21-.12.59-.14.83-.03.25.1.28.28.07.4-.44.25-.63.58-.53.89.1.32.48.61,1.04.78.28.09.36.26.18.4-.18.13-.54.17-.82.09-.85-.27-1.42-.7-1.57-1.18-.02-.08-.04-.17-.04-.25Z"/>
        <path d="m186.76,357.38c0-.5.42-.98,1.17-1.33.24-.11.61-.11.84,0,.23.12.22.29-.02.41-.59.28-.88.68-.78,1.07.1.39.59.75,1.3.94.29.08.38.26.22.39-.16.14-.53.19-.81.11-1.04-.29-1.74-.8-1.89-1.37-.02-.07-.03-.15-.03-.22Z"/>
        <path d="m188.04,353.93c0-.15.05-.29.15-.44.44-.62,1.73-1.01,3.08-.91.32.02.55.16.5.33-.05.16-.35.27-.67.24-.78-.06-1.53.17-1.78.53-.25.36.07.76.75.94.29.08.39.25.23.39-.16.14-.52.19-.81.11-.91-.25-1.45-.71-1.45-1.19Z"/>
        <path d="m190.41,352.49c0-.24.17-.48.51-.67.57-.32,1.48-.44,2.31-.3.31.05.47.21.36.37-.11.15-.45.23-.75.18-.37-.06-.77,0-1.02.13-.25.14-.3.34-.12.51.15.14.05.31-.25.39-.29.07-.65.02-.8-.12-.17-.15-.25-.32-.25-.48Z"/>
        <path d="m194.66,389.45c0-.5.44-.98,1.26-1.32.25-.1.62-.09.84.03s.19.3-.06.4c-.81.34-1.06.88-.64,1.35.13.15,0,.31-.31.38-.3.06-.65,0-.78-.15-.2-.23-.3-.46-.3-.7Z"/>
        <path d="m197.83,392.13c0-.4.3-.79.84-1.1.21-.12.59-.14.83-.03.25.1.28.28.07.4-.44.25-.64.58-.53.89.1.32.48.61,1.04.78.28.09.36.27.18.4-.18.13-.54.17-.82.09-.85-.27-1.42-.7-1.57-1.18-.02-.08-.04-.16-.04-.25Z"/>
        <path d="m195.36,390.94c0-.5.42-.98,1.17-1.33.24-.11.61-.11.84,0,.23.12.22.3-.02.41-.59.28-.88.68-.78,1.07.1.39.59.75,1.3.94.28.08.39.25.22.39-.16.14-.52.19-.81.11-1.04-.29-1.74-.8-1.89-1.37-.02-.07-.03-.15-.03-.22Z"/>
        <path d="m196.64,387.44c0-.15.05-.29.15-.44.44-.62,1.73-1.01,3.08-.91.32.02.54.16.5.33-.05.16-.35.27-.67.24-.78-.06-1.53.17-1.78.53-.25.37.07.76.75.94.29.08.39.25.23.39-.16.14-.52.19-.81.11-.91-.25-1.45-.71-1.45-1.19Z"/>
        <path d="m199.02,386c0-.24.18-.48.51-.67.57-.32,1.48-.44,2.31-.3.31.05.48.21.36.37-.11.15-.45.23-.75.18-.37-.06-.77,0-1.02.13-.25.14-.3.34-.12.51.15.14.04.31-.25.39-.29.07-.65.02-.8-.12-.17-.15-.25-.32-.25-.48Z"/>
      </g>
      <g>
        <path d="m287.42,483.38c0-.11.14-.22.38-.27.3-.06.65.01.77.16,2.11,2.59,2.3,5.49.53,8.15-.1.15-.43.23-.75.19-.31-.05-.48-.21-.38-.36,1.69-2.53,1.51-5.29-.51-7.76-.03-.03-.04-.07-.04-.11Z"/>
        <path d="m286.04,500.89c0-.12.15-.22.38-.27,3.72-.68,6.35-2.36,6.7-4.27.34-1.91-1.62-3.79-5.02-4.78-.28-.08-.37-.26-.2-.39.17-.14.53-.18.81-.1,3.79,1.1,5.98,3.2,5.59,5.33-.4,2.13-3.33,4-7.47,4.76-.31.06-.65-.02-.76-.17-.03-.03-.04-.07-.04-.1Z"/>
        <g class="cls-46">
          <ellipse class="cls-13" cx="204.51" cy="494.44" rx="88.62" ry="42.9"/>
        </g>
        <g class="cls-66">
          <ellipse class="cls-34" cx="222.21" cy="492.24" rx="69.64" ry="33.71"/>
        </g>
        <g class="cls-58">
          <ellipse class="cls-3" cx="240.92" cy="479.82" rx="69.64" ry="33.71"/>
        </g>
        <path d="m233.38,482.39c0-.12.17-.24.42-.27.31-.05.64.04.74.19,1.24,2,3.59,3.8,6.78,5.21.24.11.26.29.04.41-.22.12-.59.13-.84.02-3.35-1.48-5.81-3.37-7.12-5.47-.02-.03-.03-.06-.03-.08Z"/>
        <path d="m198.52,471.74c0-.72.13-1.44.4-2.15.06-.16.37-.26.69-.23.32.03.55.17.48.33-.9,2.44-.19,4.9,2.07,7.12.15.14.02.31-.27.38s-.65.01-.79-.13c-1.71-1.68-2.57-3.49-2.57-5.32Z"/>
        <path d="m172.71,481.39h0c0-4.92,6.08-9.31,15.48-11.18.3-.06.65.01.77.16s-.02.31-.32.37c-8.95,1.78-14.74,5.96-14.74,10.65,0,.16-.27.29-.59.29s-.59-.13-.59-.29Z"/>
        <path d="m182.21,490.74c0-.06.04-.12.12-.18.2-.13.57-.15.83-.05,7,2.61,16.35,3.13,24.39,1.35.3-.07.65,0,.78.14.14.15,0,.31-.29.38-8.44,1.87-18.25,1.32-25.61-1.42-.15-.06-.23-.14-.23-.23Z"/>
        <path d="m198.96,469.62s0-.01,0-.02c.03-.16.31-.28.64-.26,7.03.26,13.53,1.96,17.84,4.66,4.31,2.7,6.07,6.17,4.82,9.53-.06.16-.37.26-.69.23-.32-.03-.54-.17-.48-.33,1.18-3.2-.49-6.51-4.6-9.08-4.1-2.57-10.3-4.19-16.99-4.44-.31-.01-.55-.14-.55-.29Z"/>
        <path d="m160.94,497.36c0-2.77,1.99-5.52,5.64-7.67.21-.12.58-.14.83-.04.25.1.29.28.08.4-3.98,2.36-5.9,5.45-5.24,8.48.65,3.03,3.83,5.86,8.73,7.78.26.1.3.28.09.4-.21.12-.58.14-.83.04-5.14-2.01-8.48-4.98-9.17-8.16-.09-.41-.13-.82-.13-1.23Z"/>
        <path d="m179.97,508.85s0-.04.01-.06c.07-.15.39-.25.71-.22,3.53.39,7.26.37,10.79-.04.32-.04.64.06.71.21.08.16-.12.31-.44.35-3.7.43-7.61.45-11.32.04-.27-.03-.46-.15-.46-.28Z"/>
        <path d="m207.2,492.13c0-.11.12-.21.33-.26.29-.07.65-.01.79.13,2.2,2.16,3.01,4.57,2.34,6.96-.04.16-.34.27-.67.25-.32-.02-.57-.17-.51-.32.63-2.28-.13-4.57-2.23-6.63-.04-.04-.06-.08-.06-.13Z"/>
        <path d="m180.99,514.15c0-.12.16-.23.41-.27.31-.05.65.03.75.18,2.87,4.15,10.51,7.2,19.47,7.76.32.02.55.17.51.32-.04.16-.34.27-.67.25-9.41-.6-17.43-3.8-20.44-8.15-.02-.03-.03-.06-.03-.09Z"/>
        <path d="m209.46,498.89s0-.04.01-.06c.07-.15.39-.25.71-.22,4.21.46,8.13,1.44,11.32,2.85.24.11.26.29.04.41-.22.12-.6.13-.84.02-3.04-1.34-6.77-2.28-10.78-2.72-.27-.03-.46-.15-.46-.28Z"/>
        <path d="m179.95,508.82s0-.03,0-.04c.51-1.82,1.9-3.6,4.02-5.12.18-.13.55-.17.82-.08.27.09.34.27.16.4-2.02,1.46-3.35,3.14-3.83,4.88-.04.16-.34.27-.67.25-.3-.02-.51-.14-.51-.28Z"/>
        <path d="m219.39,523.11s.02-.09.06-.13c.14-.14.5-.2.79-.13,11.03,2.62,24.22.78,30.69-4.27.17-.13.54-.18.82-.09.28.08.36.26.19.39-6.79,5.3-20.64,7.23-32.22,4.49-.21-.05-.33-.15-.33-.26Z"/>
        <path d="m220.49,501.67c0-.11.14-.22.36-.26,5.59-1.16,11.85-1.3,17.63-.38.31.05.49.21.38.36-.1.15-.44.23-.75.18-5.5-.87-11.47-.74-16.79.37-.3.06-.65,0-.78-.15-.03-.04-.05-.08-.05-.11Z"/>
        <path d="m237.59,502.48c0-.4.04-.8.12-1.2.03-.16.32-.27.65-.26.33.02.55.16.53.31-.71,3.49,1.86,6.91,7.05,9.36.23.11.24.29,0,.41-.23.11-.6.12-.84,0-4.85-2.3-7.52-5.39-7.52-8.63Z"/>
        <path d="m265.4,514.14c0-.14.21-.26.51-.28,12.87-.89,21.94-6.69,20.23-12.92-.06-.16.18-.3.51-.32.32-.02.62.09.67.25,1.82,6.56-7.73,12.64-21.24,13.57-.32.02-.62-.09-.67-.24,0-.01,0-.03,0-.04Z"/>
        <path d="m250.82,518.72s.01-.06.03-.09c.1-.15.44-.23.75-.18,3.05.5,6.35.3,9.05-.56,2.7-.85,4.41-2.23,4.69-3.79.03-.16.32-.27.64-.26.32.01.58.15.54.31-.31,1.73-2.22,3.27-5.22,4.22-3.01.95-6.68,1.18-10.08.62-.25-.04-.4-.15-.4-.27Z"/>
        <path d="m244.92,510.89c0-.05.03-.1.09-.15,1.84-1.47,4.91-2.44,8.42-2.66.32-.02.62.09.66.25.06.16-.18.3-.51.32-3.15.2-5.91,1.07-7.56,2.39-.17.14-.53.18-.81.1-.18-.05-.29-.15-.29-.25Z"/>
        <path d="m278.56,473.8c0-.13.18-.25.46-.28,5.43-.61,11.01.74,13.26,3.2,2.25,2.47.56,5.37-4.03,6.9-.27.09-.64.06-.82-.07-.19-.13-.12-.31.15-.4,4.12-1.38,5.64-3.98,3.62-6.2-2.03-2.22-7.03-3.43-11.91-2.88-.32.04-.64-.06-.71-.21-.01-.02-.02-.04-.02-.07Z"/>
        <path d="m236.68,472.31c0-.12.17-.24.42-.27.31-.05.64.04.74.19,1.16,1.86,4.48,3.25,8.45,3.54.32.02.54.17.5.33-.05.16-.35.27-.67.24-4.42-.32-8.12-1.86-9.41-3.94-.02-.03-.03-.06-.03-.08Z"/>
        <path d="m164.2,486.62c0-.64.23-1.28.68-1.9,1.34-1.81,4.45-3.15,8.32-3.59.32-.04.64.06.71.21.08.16-.12.31-.44.34-3.47.39-6.27,1.6-7.47,3.22-1.2,1.63-.61,3.41,1.56,4.78.2.12.15.31-.11.4-.26.1-.63.07-.83-.05-1.59-1-2.42-2.2-2.42-3.43Z"/>
        <path d="m182.22,490.74c0-.08.07-.17.22-.22,3-1.19,4.39-3.07,3.62-4.91-.07-.16.14-.31.46-.34.32-.03.63.07.7.22.86,2.05-.69,4.14-4.03,5.47-.25.1-.63.08-.83-.04-.09-.05-.14-.12-.14-.18Z"/>
        <path d="m168.95,508.82c0-.83.38-1.67,1.15-2.44.14-.14.5-.2.79-.13.29.07.42.24.28.38-1.63,1.64-1.32,3.59.83,5.08,2.14,1.49,5.8,2.32,9.55,2.14.33-.01.62.1.65.26.04.18-.21.3-.53.31-4.17.19-8.24-.72-10.63-2.39-1.37-.96-2.08-2.08-2.08-3.21Z"/>
        <path d="m206.25,514.89c0-.11.13-.21.35-.26,3.22-.71,6.88-.68,10.04.09,3.16.77,5.41,2.17,6.15,3.84.08.16-.13.31-.45.34-.32.03-.64-.06-.7-.22-.67-1.5-2.68-2.76-5.52-3.45-2.84-.69-6.13-.72-9.02-.08-.3.07-.65,0-.78-.14-.04-.04-.05-.08-.05-.12Z"/>
        <path d="m200.96,522.11c0-.11.12-.21.33-.26.29-.07.65-.01.79.13,1.58,1.54,4.64,2.58,8.18,2.78,3.54.19,7-.49,9.25-1.83.21-.12.58-.14.83-.04.25.1.29.28.09.4-2.51,1.49-6.36,2.25-10.3,2.03-3.94-.21-7.35-1.37-9.11-3.09-.04-.04-.06-.08-.06-.13Z"/>
        <path d="m173,491.11c0-.5.44-.98,1.26-1.32.25-.1.62-.09.84.03s.19.3-.06.4c-.81.34-1.07.88-.64,1.35.13.15,0,.31-.31.38-.3.06-.65,0-.78-.15-.2-.22-.3-.46-.3-.69Z"/>
        <path d="m176.17,493.79c0-.4.3-.79.84-1.1.21-.12.59-.14.83-.03.25.1.28.28.07.4-.44.25-.63.58-.53.89.1.32.48.61,1.04.78.28.09.36.26.18.4-.18.13-.55.17-.82.09-.85-.27-1.42-.7-1.57-1.18-.02-.08-.04-.16-.04-.25Z"/>
        <path d="m173.7,492.6c0-.5.42-.98,1.16-1.33.24-.11.61-.11.84,0,.23.12.22.3-.01.41-.59.28-.89.68-.78,1.07.1.39.59.75,1.3.94.28.08.38.25.22.39-.16.14-.52.19-.81.11-1.04-.29-1.74-.8-1.89-1.37-.02-.07-.03-.15-.03-.22Z"/>
        <path d="m174.99,489.15c0-.15.05-.29.15-.44.44-.62,1.73-1.01,3.08-.91.32.02.53.15.5.33-.05.16-.35.26-.67.24-.78-.06-1.53.17-1.78.53-.25.36.06.76.75.94.29.08.39.25.23.39-.16.14-.52.19-.81.11-.91-.25-1.45-.71-1.45-1.19Z"/>
        <path d="m177.36,487.66c0-.24.18-.48.52-.67.57-.32,1.48-.44,2.31-.3.31.05.47.22.36.37-.11.15-.45.23-.75.18-.36-.06-.77,0-1.02.13-.26.14-.3.34-.12.51.16.14.05.31-.24.39-.29.07-.65.02-.8-.12-.17-.15-.25-.32-.25-.48Z"/>
        <path d="m185.96,479c0-.5.44-.98,1.26-1.32.25-.1.62-.09.84.03.22.12.19.3-.06.4-.81.34-1.07.88-.64,1.35.13.15,0,.31-.31.38-.3.06-.65,0-.78-.15-.2-.22-.3-.46-.3-.69Z"/>
        <path d="m189.23,481.68c0-.4.3-.79.84-1.1.21-.12.59-.14.83-.03.25.1.28.28.07.4-.44.25-.63.58-.53.89.1.32.48.61,1.04.78.28.09.36.26.18.4-.18.13-.54.17-.82.09-.85-.27-1.42-.7-1.57-1.18-.02-.08-.04-.17-.04-.25Z"/>
        <path d="m186.76,480.49c0-.5.42-.98,1.17-1.33.24-.11.61-.11.84,0,.23.12.22.3-.02.41-.59.28-.88.68-.78,1.07.1.39.59.75,1.3.94.28.08.38.25.22.39-.16.14-.52.19-.81.11-1.04-.29-1.74-.8-1.89-1.37-.02-.07-.03-.15-.03-.22Z"/>
        <path d="m188.04,477.03c0-.14.05-.29.15-.44.44-.62,1.73-1.01,3.08-.91.32.02.54.15.5.33-.05.16-.35.26-.67.24-.78-.06-1.53.17-1.78.53-.25.36.07.76.75.94.29.08.39.25.23.39-.16.14-.52.19-.81.11-.91-.25-1.45-.71-1.45-1.19Z"/>
        <path d="m190.41,475.6c0-.24.18-.48.51-.67.57-.32,1.48-.44,2.31-.3.31.05.47.21.36.37-.11.15-.45.23-.75.18-.37-.06-.77,0-1.02.13-.25.14-.29.35-.12.51.16.14.05.31-.24.39-.29.07-.65.02-.8-.12-.17-.15-.25-.32-.25-.48Z"/>
        <path d="m194.66,512.56c0-.5.44-.98,1.26-1.32.25-.1.62-.09.84.03s.19.3-.06.4c-.81.34-1.06.88-.64,1.35.13.14,0,.31-.31.38-.3.06-.65,0-.78-.15-.2-.22-.3-.46-.3-.69Z"/>
        <path d="m197.83,515.24c0-.4.3-.79.84-1.1.21-.12.59-.14.84-.03.25.1.28.29.07.4-.44.25-.62.58-.53.89.1.32.48.61,1.04.78.27.09.36.26.18.4s-.54.17-.82.09c-.85-.27-1.42-.7-1.57-1.18-.02-.08-.04-.16-.04-.25Z"/>
        <path d="m195.36,514.05c0-.5.42-.98,1.17-1.33.24-.11.61-.11.84,0,.23.12.22.3-.02.41-.59.28-.88.68-.78,1.07.1.39.59.75,1.3.94.28.08.38.26.22.39-.16.14-.53.19-.81.11-1.04-.29-1.74-.8-1.89-1.37-.02-.07-.03-.15-.03-.22Z"/>
        <path d="m196.64,510.55c0-.14.05-.29.15-.44.44-.62,1.73-1.01,3.08-.91.32.02.54.15.5.33-.05.16-.35.26-.67.24-.78-.06-1.53.17-1.78.53-.25.36.07.76.75.94.29.08.39.25.23.39-.16.14-.52.19-.81.11-.91-.25-1.45-.71-1.45-1.19Z"/>
        <path d="m199.02,509.11c0-.24.18-.48.51-.67.57-.32,1.48-.44,2.31-.3.31.05.48.21.36.37-.11.15-.45.23-.75.18-.37-.06-.77,0-1.02.13-.25.14-.29.35-.12.51.16.14.05.31-.24.39-.29.07-.65.02-.8-.12-.17-.15-.25-.32-.25-.48Z"/>
      </g>
      <g>
        <g>
          <g class="cls-59">
            <ellipse class="cls-35" cx="240.48" cy="85" rx="66.11" ry="139.92" transform="translate(154.12 324.99) rotate(-89.68)"/>
          </g>
          <g class="cls-49">
            <ellipse class="cls-44" cx="247.7" cy="66.12" rx="66.11" ry="139.92" transform="translate(180.18 313.44) rotate(-89.68)"/>
          </g>
          <g>
            <path d="m294.5,34.06s.06-.08.12-.11c6.08-2.96,13.69-5.09,22.01-6.17.24-.03.48.04.54.15.06.12-.08.23-.31.26-8.17,1.06-15.65,3.15-21.62,6.06-.17.08-.45.08-.63,0-.11-.05-.15-.12-.12-.19Z"/>
            <path d="m280.66,53.17c.03-.09.19-.16.39-.17.24-.01.46.07.49.19.94,4.19,4.23,8.19,9.51,11.55.15.09.11.23-.08.3-.2.07-.47.05-.62-.04-5.37-3.42-8.72-7.49-9.68-11.76,0-.02,0-.04,0-.06Z"/>
            <path d="m335.11,27.34c.04-.11.26-.19.49-.17,19.46,1.23,35.47,7.93,40.79,17.07.07.12-.07.23-.31.27-.24.03-.48-.03-.55-.15-5.22-8.98-20.94-15.56-40.05-16.76-.24-.02-.42-.12-.38-.24,0,0,0,0,0-.01Z"/>
            <path d="m229.28,16.43s.04-.06.08-.09c10.73-6.97,28.43-10.53,46.19-9.29,17.77,1.24,32.68,7.06,38.92,15.21.08.11-.03.24-.26.28-.23.04-.49-.02-.57-.13-6.13-8-20.77-13.72-38.21-14.93-17.44-1.21-34.82,2.28-45.35,9.12-.15.1-.43.11-.62.04-.14-.05-.2-.13-.17-.21Z"/>
            <path d="m220.46,26.22c.53-1.38,1.31-2.75,2.36-4.08.09-.11.34-.17.57-.13.23.04.35.17.26.28-3.65,4.68-4.09,9.7-1.3,14.51.07.12-.07.23-.31.27-.24.03-.48-.03-.55-.15-2.05-3.53-2.39-7.16-1.04-10.69Z"/>
            <path d="m162.77,40.57h0c3.63-9.48,18.57-16.88,38.05-18.86.24-.02.48.05.53.17.05.11-.1.23-.34.25-19.13,1.95-33.8,9.21-37.36,18.52-.04.12-.28.19-.52.17-.24-.02-.4-.13-.36-.25Z"/>
            <path d="m174.36,60.52s.06-.09.14-.12c.18-.08.46-.07.63.02,11.92,6.43,30.09,9.13,47.41,7.03.24-.03.48.04.54.16.06.12-.08.23-.32.26-17.64,2.14-36.14-.61-48.29-7.16-.1-.05-.13-.12-.11-.18Z"/>
            <path d="m222.9,22.16s0-.01,0-.02c.06-.11.31-.18.54-.15,13.34,1.72,24.62,6.11,30.94,12.06,6.32,5.94,7.15,12.94,2.27,19.2-.09.11-.34.17-.57.13s-.35-.16-.26-.28c4.78-6.14,3.97-13.01-2.23-18.85-6.2-5.84-17.27-10.15-30.38-11.84-.23-.03-.37-.14-.32-.25Z"/>
            <path d="m127.81,69.73c2.04-5.35,7.91-10.28,16.52-13.81.19-.08.47-.07.63.03.16.09.13.23-.05.3-9.7,3.97-15.84,9.77-16.85,15.9-1.01,6.13,3.16,12.33,11.43,16.99.16.09.14.23-.05.3-.19.08-.47.07-.63-.02-8.43-4.75-12.67-11.06-11.64-17.31.13-.8.35-1.6.65-2.38Z"/>
            <path d="m156.43,95.54s.02-.03.03-.05c.1-.11.36-.16.58-.11,6.73,1.39,14.14,2.03,21.45,1.84.25,0,.45.08.47.2.02.12-.17.22-.42.23-7.44.19-15-.46-21.85-1.88-.19-.04-.3-.14-.26-.24Z"/>
            <path d="m222.18,67.61c.03-.08.15-.15.32-.17.24-.03.48.03.55.15,2.64,4.55,2.43,9.32-.62,13.81-.08.11-.33.17-.56.14-.23-.04-.36-.16-.28-.27,2.99-4.41,3.2-9.09.61-13.56-.02-.03-.02-.07,0-.1Z"/>
            <path d="m154.46,106.09c.03-.09.18-.16.38-.17.24-.02.47.07.5.18,2.54,8.75,15.4,16.16,32.76,18.88.23.04.36.16.29.27-.08.11-.33.17-.56.14-17.68-2.77-30.78-10.32-33.37-19.23,0-.02,0-.05,0-.07Z"/>
            <path d="m221.54,81.24s.02-.03.03-.05c.1-.11.36-.16.58-.11,7.78,1.61,14.59,4.19,19.71,7.45.15.09.11.23-.08.3-.2.07-.47.05-.62-.04-5.03-3.2-11.72-5.73-19.36-7.31-.19-.04-.3-.14-.26-.24Z"/>
            <path d="m156.41,95.49s0-.02.02-.03c2.33-3.43,6.31-6.6,11.53-9.18.17-.08.45-.09.63,0,.17.08.18.22,0,.3-5.12,2.53-9.03,5.65-11.32,9.01-.08.11-.33.17-.56.14-.21-.03-.34-.14-.3-.24Z"/>
            <path d="m222.85,130.34s.04-.06.08-.09c.15-.1.42-.12.62-.04,19.91,7.16,47.51,5.86,64.19-3.02.16-.09.45-.09.63-.01.18.08.2.22.03.3-16.99,9.05-45.1,10.37-65.38,3.08-.14-.05-.2-.13-.17-.21Z"/>
            <path d="m241.04,88.61c.03-.08.16-.15.34-.17,11.62-1.28,23.78-.46,34.25,2.3.21.06.3.19.18.29-.12.1-.39.14-.6.09-10.27-2.71-22.21-3.52-33.62-2.26-.24.03-.48-.05-.53-.16-.01-.03-.01-.06,0-.09Z"/>
            <path d="m273.87,93.18c.29-.76.66-1.53,1.11-2.28.07-.11.31-.18.55-.15.24.03.37.15.3.27-4.06,6.81-1.54,14.05,6.9,19.84.14.1.09.23-.11.3-.2.07-.48.04-.62-.05-7.66-5.26-10.53-11.68-8.14-17.93Z"/>
            <path d="m319.54,120.87c.04-.1.23-.18.46-.18,26.24.53,48.65-9.37,49.99-22.06,0-.12.22-.21.47-.2.25,0,.43.11.42.23-1.35,12.93-24.19,23.01-50.91,22.47-.25,0-.44-.11-.43-.22,0-.01,0-.02,0-.03Z"/>
            <path d="m287.6,127.26s.03-.04.05-.07c.12-.1.39-.14.6-.08,5.8,1.57,12.63,1.76,18.75.52,6.12-1.24,10.65-3.72,12.43-6.82.07-.11.31-.18.55-.15.24.03.37.14.31.26-1.85,3.22-6.56,5.81-12.94,7.1-6.38,1.29-13.5,1.09-19.53-.54-.17-.05-.25-.14-.22-.23Z"/>
            <path d="m281.92,110.93s.05-.07.11-.1c4.54-2.47,11.05-3.78,17.86-3.61.25,0,.43.11.42.23,0,.12-.22.21-.47.2-6.54-.16-12.8,1.1-17.16,3.47-.16.09-.44.1-.63.02-.12-.05-.17-.13-.14-.2Z"/>
            <path d="m375.44,44.28c.04-.1.21-.17.42-.18,10.72-.24,20.31,3.26,22.79,8.32,2.48,5.05-2.83,10.27-12.62,12.39-.22.05-.49,0-.59-.11-.1-.11,0-.24.22-.28,9.41-2.04,14.51-7.04,12.12-11.9-2.38-4.85-11.59-8.21-21.88-7.99-.25,0-.45-.09-.46-.21,0-.02,0-.03,0-.05Z"/>
            <path d="m313.69,22.32c.03-.09.18-.16.38-.17,8.73-.54,17.34,1.47,21.92,5.1.13.1.06.23-.15.3-.21.06-.48.03-.61-.07-4.4-3.49-12.67-5.42-21.05-4.9-.24.01-.47-.07-.5-.19,0-.02,0-.05,0-.07Z"/>
            <path d="m294.65,34.02c.03-.09.19-.16.39-.17.24-.01.46.07.49.19.91,3.98,6.55,7.39,14.37,8.69.23.04.35.16.28.27-.08.11-.33.17-.56.13-8.15-1.35-14.02-4.91-14.97-9.05,0-.02,0-.04,0-.06Z"/>
            <path d="m200.51,21.91s.02-.03.03-.05c4.96-5.44,18.16-7.93,29.43-5.55.22.05.33.18.23.28-.1.11-.36.16-.59.11-10.81-2.29-23.49.11-28.26,5.33-.1.11-.36.16-.59.11-.19-.04-.29-.14-.26-.24Z"/>
            <path d="m142.21,49.3c.46-1.21,1.35-2.38,2.67-3.48,3.84-3.2,10.7-5.22,18.34-5.38.24,0,.45.09.46.21.02.12-.18.22-.42.22-7.34.16-13.92,2.09-17.61,5.17-3.69,3.08-3.89,6.8-.54,9.97.11.11.02.24-.19.29-.22.05-.49.01-.6-.09-2.29-2.17-2.99-4.59-2.1-6.9Z"/>
            <path d="m174.36,60.53c.02-.06.1-.12.22-.15,6.99-1.86,11.26-5.42,11.13-9.28,0-.12.19-.22.44-.22.25,0,.45.09.45.21.13,4.03-4.31,7.73-11.59,9.67-.21.06-.48.02-.6-.08-.05-.05-.07-.1-.05-.14Z"/>
            <path d="m134.9,93.56c.6-1.58,1.93-3.1,3.95-4.43.15-.1.42-.12.62-.05.2.07.24.21.1.3-4.58,3.02-5.44,7.02-2.26,10.44,3.19,3.42,9.96,5.74,17.67,6.08.24.01.43.12.4.23-.03.13-.24.21-.48.2-8.03-.35-15.08-2.77-18.4-6.33-1.91-2.05-2.42-4.3-1.61-6.44Z"/>
            <path d="m203.31,111.96c.03-.08.15-.15.33-.17,6.61-.8,13.52-.12,18.95,1.87,5.43,1.99,8.66,5.02,8.86,8.32.01.12-.19.22-.43.22-.25,0-.45-.09-.46-.21-.19-3.17-3.29-6.08-8.51-7.99-5.22-1.91-11.85-2.57-18.2-1.8-.24.03-.48-.04-.54-.16-.02-.03-.02-.06,0-.09Z"/>
            <path d="m187.55,125.16c.03-.08.15-.14.32-.17.24-.03.48.03.55.15,2.01,3.42,7.4,6.07,14.42,7.1,7.02,1.03,14.55.28,20.14-2.02.19-.08.47-.07.63.02.16.09.13.23-.05.3-5.83,2.39-13.67,3.18-20.98,2.1-7.31-1.08-12.92-3.84-15.01-7.4-.02-.03-.02-.07-.01-.1Z"/>
            <path d="m156.08,59.63c.33-.87,1.43-1.65,3.09-2.12.21-.06.48-.03.61.08.12.1.05.23-.16.29-2.11.6-3.16,1.77-2.62,2.92.05.12-.1.23-.34.26-.24.03-.48-.05-.53-.16-.2-.43-.21-.86-.06-1.27Z"/>
            <path d="m160.26,65.43c.27-.7,1.05-1.34,2.21-1.8.19-.07.47-.06.62.03.16.09.13.23-.07.3-1.2.47-1.92,1.17-1.98,1.92-.06.75.55,1.47,1.68,1.98.18.08.19.22.02.3-.17.09-.45.09-.63,0-1.31-.6-2.02-1.44-1.96-2.31.01-.15.05-.29.1-.44Z"/>
            <path d="m156.32,62.66c.34-.88,1.4-1.67,2.96-2.16.21-.07.48-.04.62.06.13.1.08.23-.13.3-1.55.5-2.55,1.33-2.66,2.23-.11.9.67,1.79,2.1,2.37.19.08.21.21.05.3-.16.09-.44.1-.63.03-1.64-.67-2.54-1.69-2.41-2.72.02-.14.05-.27.1-.4Z"/>
            <path d="m161.41,56.14c.09-.25.27-.49.54-.72,1.15-.99,3.6-1.45,5.82-1.08.23.04.35.16.28.27-.08.11-.33.17-.56.13-1.82-.3-3.82.07-4.76.88-.94.81-.54,1.83.94,2.43.19.08.22.21.06.3-.16.09-.44.1-.63.03-1.39-.56-2-1.42-1.69-2.25Z"/>
            <path d="m167.16,53.65c.15-.39.58-.74,1.25-1,1.13-.44,2.67-.5,3.92-.15.21.06.29.19.17.29-.12.1-.39.14-.61.08-.94-.26-2.09-.21-2.93.11-.84.33-1.17.86-.85,1.36.08.11-.05.23-.29.27-.23.04-.48-.03-.56-.14-.18-.27-.21-.55-.11-.82Z"/>
            <path d="m190.47,38.21c.33-.87,1.43-1.65,3.09-2.12.21-.06.49-.03.61.08.12.1.05.23-.16.29-2.11.59-3.17,1.77-2.62,2.92.05.12-.1.23-.34.26-.24.03-.48-.05-.53-.16-.2-.43-.21-.86-.06-1.27Z"/>
            <path d="m194.85,44.03c.27-.7,1.05-1.34,2.21-1.8.19-.07.47-.06.62.03.16.09.13.23-.07.3-1.2.47-1.93,1.17-1.98,1.92-.06.75.55,1.47,1.68,1.98.18.08.19.22.02.3-.17.09-.45.09-.63,0-1.31-.6-2.02-1.44-1.96-2.31.01-.15.05-.29.1-.44Z"/>
            <path d="m190.91,41.26c.34-.88,1.4-1.67,2.96-2.16.21-.07.48-.04.62.06.13.1.08.23-.13.3-1.56.5-2.55,1.33-2.66,2.23-.11.9.67,1.79,2.1,2.37.19.08.21.21.05.3-.16.09-.44.1-.63.03-1.64-.67-2.54-1.69-2.41-2.72.02-.14.05-.27.1-.4Z"/>
            <path d="m196,34.74c.09-.25.27-.49.54-.72,1.15-.99,3.6-1.45,5.82-1.08.23.04.36.16.28.27-.08.11-.33.17-.56.13-1.82-.3-3.82.07-4.76.88-.94.81-.54,1.83.94,2.43.19.08.22.21.06.3-.16.09-.44.1-.63.03-1.39-.56-2-1.42-1.69-2.25Z"/>
            <path d="m201.72,32.35c.15-.39.58-.74,1.24-1.01,1.13-.44,2.67-.5,3.92-.15.21.06.29.19.17.29-.12.1-.39.14-.61.08-.94-.26-2.09-.21-2.93.11-.84.33-1.17.86-.85,1.36.08.11-.05.23-.29.27-.23.04-.48-.03-.56-.14-.18-.27-.21-.55-.11-.82Z"/>
            <path d="m182.39,105.37c.33-.87,1.43-1.65,3.09-2.12.21-.06.48-.03.61.08.12.1.05.23-.16.29-2.11.6-3.16,1.77-2.62,2.92.05.12-.1.23-.34.26-.24.03-.48-.05-.53-.16-.2-.43-.21-.86-.06-1.27Z"/>
            <path d="m186.58,111.17c.27-.7,1.05-1.34,2.21-1.8.19-.07.47-.06.62.03.16.09.13.23-.07.3-1.2.47-1.93,1.17-1.98,1.92-.06.75.55,1.47,1.68,1.98.18.08.19.22.02.3-.17.09-.45.09-.63,0-1.31-.6-2.02-1.44-1.96-2.31.01-.15.05-.29.1-.44Z"/>
            <path d="m182.63,108.4c.34-.88,1.4-1.67,2.96-2.16.21-.07.48-.04.62.06.13.1.08.23-.13.3-1.55.5-2.55,1.33-2.66,2.23-.11.9.67,1.79,2.09,2.37.19.08.21.21.05.3-.16.09-.44.1-.63.03-1.63-.67-2.54-1.69-2.41-2.72.02-.13.05-.27.1-.4Z"/>
            <path d="m187.76,101.79c.09-.25.27-.49.54-.72,1.15-.99,3.6-1.45,5.82-1.08.23.04.35.16.28.27-.08.11-.33.17-.56.13-1.82-.3-3.82.07-4.76.88-.94.81-.54,1.83.94,2.43.19.08.22.21.06.3-.16.09-.44.1-.63.03-1.39-.56-2-1.42-1.69-2.25Z"/>
            <path d="m193.48,99.4c.15-.39.58-.74,1.24-1.01,1.13-.44,2.67-.5,3.92-.15.21.06.29.19.17.29-.12.1-.39.14-.61.08-.94-.26-2.09-.21-2.93.11-.84.33-1.17.86-.85,1.36.08.11-.05.23-.29.27-.23.04-.48-.03-.56-.14-.18-.27-.21-.55-.11-.82Z"/>
          </g>
        </g>
        <g>
          <path d="m71.56,95.24c-.17.02-.36,0-.47-.08-.14-.1-.1-.23.1-.3,5.09-1.78,11.35-2.67,17.62-2.48.25,0,.43.11.42.23-.02.12-.23.21-.47.2-6.07-.18-12.12.68-17.04,2.4-.05.02-.1.03-.15.03Z"/>
          <path d="m110.41,91.16c-.17.02-.36,0-.47-.08-2.56-1.76-7.04-2.67-11.43-2.32-4.37.35-8.03,1.9-9.3,3.96-.07.11-.32.18-.55.14-.24-.03-.37-.15-.3-.27,1.36-2.22,5.28-3.9,10.01-4.27,4.72-.37,9.54.61,12.3,2.5.14.1.09.23-.11.3-.05.02-.09.03-.15.03Z"/>
          <g class="cls-64">
            <ellipse class="cls-22" cx="118.6" cy="135.01" rx="97.34" ry="47.12"/>
          </g>
          <g class="cls-54">
            <ellipse class="cls-43" cx="108.92" cy="126.5" rx="76.49" ry="37.03"/>
          </g>
          <g class="cls-29">
            <ellipse class="cls-10" cx="76.51" cy="120.26" rx="76.49" ry="37.03"/>
          </g>
          <path d="m84.18,123.34c-.18.02-.39-.01-.49-.1-.13-.1-.06-.23.15-.3,4.09-1.2,7.43-2.91,9.66-4.95.11-.11.38-.15.6-.09.22.06.3.19.19.29-2.31,2.11-5.76,3.89-9.99,5.12-.04.01-.08.02-.12.02Z"/>
          <path d="m70.31,144.21c-1.56.19-3.17.32-4.81.38-.24,0-.46-.08-.48-.2-.02-.12.16-.22.41-.23,5.65-.2,10.9-1.25,15.2-3.04.19-.08.47-.07.63.02.16.09.14.23-.05.3-3.19,1.33-6.9,2.26-10.9,2.76Z"/>
          <path d="m98.58,154.86h0c-10.73,1.33-21.95-.58-28.58-4.87-.15-.09-.11-.23.09-.3.2-.07.47-.05.62.04,6.42,4.15,17.27,6,27.65,4.71.24-.03.48.04.54.16.06.12-.08.23-.32.26Z"/>
          <path d="m116.53,147.41c-.09.01-.19,0-.29-.01-.23-.05-.33-.17-.23-.28,3.85-4.36,2.42-9.35-3.73-13.03-.15-.09-.12-.23.07-.3.19-.07.47-.06.62.03,6.36,3.81,7.84,8.97,3.86,13.47-.06.06-.17.11-.3.12Z"/>
          <path d="m65.54,144.56s-.02,0-.03,0c-.24.02-.47-.06-.51-.17-1.34-3.66.6-7.45,5.31-10.38,4.72-2.94,11.82-4.78,19.47-5.05.24,0,.46.08.48.2.02.12-.17.22-.41.23-7.41.27-14.28,2.05-18.84,4.89-4.56,2.84-6.43,6.5-5.14,10.04.04.11-.1.22-.33.25Z"/>
          <path d="m136.88,156.55c-6.05.75-12.57.48-18.27-.8-.22-.05-.32-.18-.22-.29.1-.11.37-.15.59-.1,6.32,1.42,13.69,1.56,20.22.38,6.53-1.17,11.93-3.61,14.81-6.67.1-.11.36-.16.59-.11.22.05.32.18.22.28-2.98,3.17-8.56,5.69-15.31,6.9-.87.16-1.75.29-2.64.4Z"/>
          <path d="m156.93,143.6s-.06,0-.1,0c-.25,0-.45-.09-.46-.21-.12-1.94-1.18-3.87-3.06-5.59-.12-.11-.03-.24.18-.29.21-.06.48-.02.6.09,1.94,1.77,3.04,3.77,3.17,5.78,0,.1-.14.19-.33.21Z"/>
          <path d="m112.73,134.16c-.16.02-.33,0-.45-.07-.16-.09-.14-.23.05-.3,4.12-1.71,9.14-2.78,14.54-3.08.24-.01.46.07.49.19.03.12-.14.23-.39.24-5.21.3-10.08,1.33-14.06,2.98-.05.02-.11.04-.18.05Z"/>
          <path d="m168.3,141.63c-.18.02-.38-.01-.48-.09-.13-.1-.07-.23.13-.3,8.4-2.63,13.04-7.44,11.83-12.25-.03-.12.15-.22.39-.24.24-.01.47.07.5.19,1.25,4.97-3.54,9.94-12.22,12.66-.04.01-.09.02-.13.03Z"/>
          <path d="m126.98,131.15s-.06,0-.1,0c-.25,0-.45-.09-.46-.21-.14-2.28.94-4.55,3.14-6.56.11-.11.38-.14.6-.09.22.06.3.19.19.29-2.13,1.95-3.18,4.14-3.04,6.35,0,.1-.14.19-.33.22Z"/>
          <path d="m156.88,143.62s-.04,0-.06,0c-4.12.23-8.36,0-12.27-.66-.23-.04-.35-.16-.27-.27.08-.11.34-.17.57-.13,3.78.65,7.89.87,11.87.64.24-.01.46.07.49.19.03.11-.12.21-.33.23Z"/>
          <path d="m177.47,119.4c-.06,0-.13,0-.2,0-.24-.02-.39-.14-.34-.25,2.75-6.44-4.95-12.79-17.93-14.75-.23-.04-.36-.16-.29-.27.07-.11.32-.18.56-.14,13.41,2.03,21.38,8.59,18.53,15.25-.04.08-.17.15-.32.17Z"/>
          <path d="m130.06,124.7c-.17.02-.35,0-.46-.08-4.05-2.54-6.05-5.7-5.63-8.91.02-.12.23-.21.47-.2.24,0,.43.11.42.23-.41,3.1,1.52,6.16,5.44,8.61.15.09.11.23-.08.3-.05.02-.1.03-.16.04Z"/>
          <path d="m127.15,115.68c-.87.11-1.75.2-2.64.26-.24.02-.47-.06-.51-.18-.04-.12.13-.22.37-.25,7.94-.6,14.78-2.87,18.78-6.24.12-.1.39-.14.61-.08.21.06.29.19.16.29-3.69,3.1-9.71,5.31-16.78,6.19Z"/>
          <path d="m145.18,98.16c-.21.03-.44-.03-.52-.13-5.51-6.44-20.86-9.55-34.2-6.94-.22.05-.49,0-.58-.12-.09-.11.02-.24.25-.28,13.8-2.71,29.66.51,35.36,7.17.09.11-.01.24-.24.28-.02,0-.04,0-.06,0Z"/>
          <path d="m159.22,104.42s-.09,0-.14,0c-.24,0-.43-.11-.41-.23.27-1.74-1.1-3.41-3.76-4.59-2.66-1.18-6.23-1.69-9.78-1.4-.24.02-.47-.06-.51-.18-.04-.12.13-.23.37-.25,3.83-.31,7.66.24,10.53,1.51,2.86,1.27,4.34,3.07,4.05,4.94-.01.09-.15.17-.33.19Z"/>
          <path d="m143.64,109.6c-.08,0-.16,0-.24,0-3.67-.53-6.59-1.83-8.02-3.55-.09-.11.02-.24.25-.28.22-.05.49,0,.58.12,1.33,1.6,4.05,2.8,7.45,3.3.23.03.37.15.3.27-.05.07-.17.13-.32.15Z"/>
          <path d="m52.92,102.43c-.2.02-.41-.02-.5-.11-2.78-2.59-1.37-5.77,3.35-7.58,4.73-1.81,11.46-1.73,16.01.18.19.08.21.21.04.3-.16.09-.44.1-.63.02-4.23-1.78-10.48-1.85-14.88-.17-4.39,1.68-5.7,4.64-3.12,7.04.11.11.03.24-.19.29-.03,0-.06.01-.1.02Z"/>
          <path d="m61.11,124.41c-.19.02-.39-.01-.49-.1-.13-.1-.06-.23.15-.3,3.84-1.13,6.02-3.25,5.55-5.42-.03-.12.16-.22.4-.24.24-.01.46.07.49.19.5,2.33-1.84,4.62-5.98,5.83-.04.01-.08.02-.12.02Z"/>
          <path d="m112.39,157.81c-1.38.17-2.82.23-4.29.17-4.28-.19-8.01-1.4-10-3.25-.11-.11-.03-.24.19-.29.22-.06.49-.01.6.09,1.84,1.71,5.32,2.84,9.29,3.02,3.97.18,7.81-.63,10.26-2.15.15-.09.43-.11.62-.04.19.07.23.21.08.3-1.74,1.08-4.12,1.82-6.76,2.15Z"/>
          <path d="m116.53,147.41c-.12.02-.26,0-.37-.04-3.49-1.24-8.09-1.44-11.99-.53-.22.05-.49,0-.59-.1-.11-.11-.01-.24.21-.29,4.2-.98,9.14-.77,12.9.57.2.07.24.2.09.3-.06.04-.15.07-.25.08Z"/>
          <path d="m159.89,149.29c-1.8.22-3.71.26-5.59.07-.24-.02-.4-.14-.35-.25.05-.12.28-.19.52-.17,4.12.4,8.39-.31,11.13-1.85,2.74-1.54,3.56-3.69,2.14-5.6-.08-.11.04-.24.27-.28.23-.04.49.02.57.13,1.53,2.06.65,4.37-2.3,6.03-1.7.95-3.94,1.61-6.39,1.92Z"/>
          <path d="m163,128.42c-.16.02-.34,0-.46-.07-2.41-1.44-3.32-3.3-2.52-5.11.81-1.81,3.23-3.32,6.65-4.15.22-.05.49-.01.6.1.11.11.02.24-.2.29-3.18.77-5.43,2.18-6.18,3.86-.75,1.68.1,3.41,2.34,4.75.15.09.13.23-.07.3-.05.02-.11.03-.17.04Z"/>
          <path d="m180.33,129.17c-.16.02-.33,0-.45-.07-.16-.09-.14-.23.05-.3,3.02-1.26,4.48-3.15,3.93-5.06-.55-1.91-3.04-3.53-6.66-4.34-.22-.05-.32-.18-.22-.29.1-.11.37-.15.59-.11,3.89.87,6.57,2.62,7.17,4.67.6,2.06-.98,4.09-4.23,5.45-.05.02-.11.04-.18.05Z"/>
          <path d="m119.85,152.05c-1.03.13-2.16.04-3.08-.27-.2-.07-.25-.2-.11-.3.14-.1.42-.12.62-.05,1.03.35,2.4.33,3.39-.04.2-.07.47-.05.62.04.15.09.11.23-.08.3-.42.16-.88.26-1.37.32Z"/>
          <path d="m124.88,149.68c-.84.1-1.73.06-2.51-.12-.22-.05-.31-.18-.2-.29.11-.11.37-.15.59-.1.71.17,1.55.18,2.28.03.73-.15,1.3-.44,1.55-.81.08-.11.33-.17.56-.14.23.04.36.16.28.27-.33.48-1.08.87-2.05,1.07-.16.03-.33.06-.5.08Z"/>
          <path d="m122.94,151.28c-1.04.13-2.16.05-3.08-.22-.21-.06-.27-.2-.15-.3.13-.1.4-.13.61-.07.82.25,1.86.29,2.75.12.9-.17,1.59-.54,1.84-1,.06-.11.31-.18.55-.15.24.03.38.15.31.26-.33.58-1.22,1.06-2.38,1.28-.15.03-.31.05-.46.07Z"/>
          <path d="m115,151.57c-.3.04-.61.05-.94.04-1.39-.05-2.51-.57-2.66-1.24-.03-.12.15-.22.39-.24.24-.01.46.07.49.19.1.46.88.83,1.84.86.97.03,1.84-.27,2.08-.72.06-.11.31-.18.54-.15.24.03.38.15.32.26-.27.5-1.08.88-2.07,1Z"/>
          <path d="m111.09,150.75c-.48.06-1,.04-1.47-.07-.79-.19-1.26-.58-1.18-1.01.02-.12.24-.21.48-.2.24,0,.43.11.41.23-.04.25.23.48.69.59.46.11,1,.07,1.38-.1.18-.08.46-.07.63.01.17.09.15.22-.03.3-.27.12-.58.2-.91.24Z"/>
          <path d="m89.69,148.69c-1.03.13-2.16.04-3.08-.27-.2-.07-.25-.2-.11-.3.14-.1.42-.12.62-.05,1.03.35,2.4.33,3.39-.04.2-.07.47-.06.62.04.15.09.11.23-.08.3-.42.16-.88.27-1.37.33Z"/>
          <path d="m94.69,146.28c-.84.1-1.73.06-2.51-.12-.22-.05-.31-.18-.2-.29.11-.11.37-.15.59-.1.71.17,1.55.18,2.28.03.73-.15,1.3-.44,1.55-.81.08-.11.33-.17.56-.14.23.04.36.16.28.27-.33.48-1.08.87-2.05,1.07-.16.03-.33.06-.5.08Z"/>
          <path d="m92.74,147.88c-1.04.13-2.16.05-3.08-.22-.21-.06-.27-.19-.15-.3.13-.1.4-.13.61-.07.82.25,1.85.29,2.75.12.9-.17,1.59-.54,1.85-.99.06-.11.31-.18.55-.15.24.03.38.15.31.26-.33.58-1.22,1.06-2.38,1.28-.15.03-.31.05-.46.07Z"/>
          <path d="m84.81,148.16c-.3.04-.61.05-.94.04-1.39-.05-2.51-.57-2.66-1.24-.03-.12.15-.22.39-.24.24-.01.46.07.49.19.1.47.88.83,1.84.86.96.03,1.84-.27,2.08-.72.06-.11.3-.18.54-.15.24.03.38.15.32.26-.27.5-1.08.88-2.07,1Z"/>
          <path d="m81.01,147.33c-.48.06-1,.04-1.47-.07-.78-.19-1.25-.59-1.18-1.01.02-.12.24-.21.48-.2.24,0,.43.11.41.23-.04.24.23.48.69.59.46.11,1,.07,1.38-.1.18-.08.46-.07.63.01.17.09.15.22-.03.3-.27.12-.58.2-.91.24Z"/>
          <path d="m161.06,135.02c-1.03.13-2.16.04-3.08-.27-.2-.07-.25-.2-.11-.3.14-.1.42-.12.62-.05,1.04.35,2.4.33,3.39-.04.19-.07.47-.06.62.04.15.09.11.23-.08.3-.42.16-.88.26-1.37.32Z"/>
          <path d="m166.09,132.66c-.84.1-1.73.06-2.51-.12-.22-.05-.31-.18-.2-.29.11-.11.37-.15.59-.1.72.17,1.55.18,2.28.03.73-.15,1.3-.44,1.55-.81.08-.11.33-.17.56-.14.23.04.36.16.28.27-.33.48-1.08.87-2.05,1.07-.16.03-.33.06-.5.08Z"/>
          <path d="m164.14,134.26c-1.04.13-2.16.05-3.08-.22-.21-.06-.27-.19-.15-.3.13-.1.4-.13.61-.07.82.25,1.85.29,2.75.12.9-.17,1.59-.54,1.84-.99.06-.11.31-.18.55-.15.24.03.38.15.31.26-.33.58-1.22,1.06-2.38,1.28-.15.03-.31.05-.46.07Z"/>
          <path d="m156.1,134.55c-.3.04-.61.05-.93.04-1.39-.05-2.51-.57-2.66-1.24-.03-.12.15-.22.39-.24.24-.01.46.07.49.19.1.47.88.83,1.84.86.96.03,1.84-.27,2.08-.72.06-.11.3-.18.54-.15.24.03.38.15.32.26-.27.5-1.08.88-2.07,1Z"/>
          <path d="m152.29,133.73c-.48.06-1,.04-1.47-.07-.78-.19-1.26-.59-1.18-1.01.02-.12.24-.21.48-.2.24,0,.43.11.41.23-.04.24.23.48.69.59.46.11,1,.07,1.38-.1.18-.08.46-.07.63.01.17.09.15.22-.03.3-.27.12-.58.2-.91.24Z"/>
        </g>
      </g>
    </g>
  </g>
</svg>