<?xml version="1.0" encoding="UTF-8"?>
<svg xmlns="http://www.w3.org/2000/svg" xmlns:xlink="http://www.w3.org/1999/xlink" viewBox="0 0 277.38 229.44">
  <defs>
    <style>
      .cls-1 {
        fill: url(#linear-gradient-3);
      }

      .cls-1, .cls-2, .cls-3, .cls-4 {
        mix-blend-mode: multiply;
      }

      .cls-5 {
        fill: #fff;
      }

      .cls-2 {
        fill: url(#linear-gradient);
      }

      .cls-6 {
        fill: #939598;
      }

      .cls-3 {
        fill: url(#linear-gradient-4);
      }

      .cls-7 {
        mask: url(#mask-2);
      }

      .cls-8 {
        isolation: isolate;
      }

      .cls-9 {
        mask: url(#mask-3);
      }

      .cls-10 {
        fill: #808285;
      }

      .cls-4 {
        fill: url(#linear-gradient-2);
      }

      .cls-11 {
        filter: url(#luminosity-noclip);
      }

      .cls-12 {
        mask: url(#mask-1);
      }

      .cls-13 {
        mask: url(#mask);
      }

      .cls-14 {
        filter: url(#luminosity-noclip-3);
      }

      .cls-15 {
        fill: #26281e;
      }
    </style>
    <filter id="luminosity-noclip" x=".36" y="167.79" width="273.91" height="26.2" color-interpolation-filters="sRGB" filterUnits="userSpaceOnUse">
      <feFlood flood-color="#fff" result="bg"/>
      <feBlend in="SourceGraphic" in2="bg"/>
    </filter>
    <filter id="luminosity-noclip-2" x=".36" y="-8306.39" width="273.91" height="32766" color-interpolation-filters="sRGB" filterUnits="userSpaceOnUse">
      <feFlood flood-color="#fff" result="bg"/>
      <feBlend in="SourceGraphic" in2="bg"/>
    </filter>
    <mask id="mask-1" x=".36" y="-8306.39" width="273.91" height="32766" maskUnits="userSpaceOnUse"/>
    <linearGradient id="linear-gradient" x1="5767.99" y1="4300.46" x2="5767.99" y2="4274.26" gradientTransform="translate(-5630.68 -4106.47)" gradientUnits="userSpaceOnUse">
      <stop offset="0" stop-color="#000"/>
      <stop offset="1" stop-color="#fff"/>
    </linearGradient>
    <mask id="mask" x=".36" y="167.79" width="273.91" height="26.2" maskUnits="userSpaceOnUse">
      <g class="cls-11">
        <g class="cls-12">
          <rect class="cls-2" x=".36" y="167.79" width="273.91" height="26.2"/>
        </g>
      </g>
    </mask>
    <linearGradient id="linear-gradient-2" x1="5767.99" y1="4300.46" x2="5767.99" y2="4274.26" gradientTransform="translate(-5630.68 -4106.47)" gradientUnits="userSpaceOnUse">
      <stop offset="0" stop-color="#fff"/>
      <stop offset="1" stop-color="#000"/>
    </linearGradient>
    <filter id="luminosity-noclip-3" x=".24" y="159.85" width="273.91" height="9.24" color-interpolation-filters="sRGB" filterUnits="userSpaceOnUse">
      <feFlood flood-color="#fff" result="bg"/>
      <feBlend in="SourceGraphic" in2="bg"/>
    </filter>
    <filter id="luminosity-noclip-4" x=".24" y="-8306.39" width="273.91" height="32766" color-interpolation-filters="sRGB" filterUnits="userSpaceOnUse">
      <feFlood flood-color="#fff" result="bg"/>
      <feBlend in="SourceGraphic" in2="bg"/>
    </filter>
    <mask id="mask-3" x=".24" y="-8306.39" width="273.91" height="32766" maskUnits="userSpaceOnUse"/>
    <linearGradient id="linear-gradient-3" x1="5767.87" y1="4275.56" x2="5767.87" y2="4266.32" xlink:href="#linear-gradient"/>
    <mask id="mask-2" x=".24" y="159.85" width="273.91" height="9.24" maskUnits="userSpaceOnUse">
      <g class="cls-14">
        <g class="cls-9">
          <rect class="cls-1" x=".24" y="159.85" width="273.91" height="9.24"/>
        </g>
      </g>
    </mask>
    <linearGradient id="linear-gradient-4" x1="5767.87" y1="4275.56" x2="5767.87" y2="4266.32" xlink:href="#linear-gradient-2"/>
  </defs>
  <g class="cls-8">
    <g id="Layer_1" data-name="Layer 1">
      <g>
        <g>
          <path class="cls-6" d="m277.38,170.83v58.61H3.4v-58.61h273.98Zm-14.19,53.93v-37.82H17.59v37.82h245.61Z"/>
          <polygon class="cls-6" points="277.38 163.25 277.38 170.83 164.15 170.83 164.15 166.21 164.15 163.25 277.31 163.25 277.38 163.25"/>
          <path class="cls-6" d="m64.8,3.46v-.06c41.75,0,75.58,33.84,75.59,75.58v8.72h61.32v-.07c41.75,0,75.59,33.84,75.59,75.58v.04H3.4V3.46h61.4Z"/>
          <polygon class="cls-6" points="263.19 186.94 263.19 224.76 258.44 224.76 258.44 210.57 259.61 210.57 259.61 186.94 263.19 186.94"/>
          <polygon class="cls-6" points="259.61 186.94 259.61 210.57 258.44 210.57 257.27 210.57 257.27 186.94 259.61 186.94"/>
          <polygon class="cls-6" points="258.44 210.57 258.44 224.76 253.75 224.76 253.75 210.57 254.93 210.57 254.93 186.94 257.27 186.94 257.27 210.57 258.44 210.57"/>
          <polygon class="cls-6" points="254.93 186.94 254.93 210.57 253.75 210.57 252.59 210.57 252.59 186.94 254.93 186.94"/>
          <polygon class="cls-6" points="253.75 210.57 253.75 224.76 249 224.76 249 186.94 252.59 186.94 252.59 210.57 253.75 210.57"/>
          <polygon class="cls-6" points="249 186.94 249 224.76 244.33 224.76 244.33 210.57 245.49 210.57 245.49 186.94 249 186.94"/>
          <polygon class="cls-6" points="245.49 186.94 245.49 210.57 244.33 210.57 243.08 210.57 243.08 186.94 245.49 186.94"/>
          <polygon class="cls-6" points="244.33 210.57 244.33 224.76 239.57 224.76 239.57 210.57 240.74 210.57 240.74 186.94 243.08 186.94 243.08 210.57 244.33 210.57"/>
          <polygon class="cls-6" points="240.74 186.94 240.74 210.57 239.57 210.57 238.4 210.57 238.4 186.94 240.74 186.94"/>
          <polygon class="cls-6" points="239.57 210.57 239.57 224.76 234.82 224.76 234.82 210.57 236.06 210.57 236.06 186.94 238.4 186.94 238.4 210.57 239.57 210.57"/>
          <polygon class="cls-6" points="236.06 186.94 236.06 210.57 234.82 210.57 233.65 210.57 233.65 186.94 236.06 186.94"/>
          <polygon class="cls-6" points="234.82 210.57 234.82 224.76 230.14 224.76 230.14 186.94 233.65 186.94 233.65 210.57 234.82 210.57"/>
          <polygon class="cls-6" points="230.14 186.94 230.14 224.76 225.38 224.76 225.38 210.57 226.55 210.57 226.55 186.94 230.14 186.94"/>
          <polygon class="cls-6" points="226.55 186.94 226.55 210.57 225.38 210.57 224.21 210.57 224.21 186.94 226.55 186.94"/>
          <polygon class="cls-6" points="225.38 210.57 225.38 224.76 220.7 224.76 220.7 210.57 221.87 210.57 221.87 186.94 224.21 186.94 224.21 210.57 225.38 210.57"/>
          <polygon class="cls-6" points="221.87 186.94 221.87 210.57 220.7 210.57 219.52 210.57 219.52 186.94 221.87 186.94"/>
          <polygon class="cls-6" points="220.7 210.57 220.7 224.76 215.95 224.76 215.95 186.94 219.52 186.94 219.52 210.57 220.7 210.57"/>
          <polygon class="cls-6" points="215.95 186.94 215.95 224.76 211.26 224.76 211.26 210.57 212.43 210.57 212.43 186.94 215.95 186.94"/>
          <polygon class="cls-6" points="212.43 186.94 212.43 210.57 211.26 210.57 210.02 210.57 210.02 186.94 212.43 186.94"/>
          <polygon class="cls-6" points="211.26 210.57 211.26 224.76 206.51 224.76 206.51 210.57 207.68 210.57 207.68 186.94 210.02 186.94 210.02 210.57 211.26 210.57"/>
          <polygon class="cls-6" points="207.68 186.94 207.68 210.57 206.51 210.57 205.33 210.57 205.33 186.94 207.68 186.94"/>
          <polygon class="cls-6" points="206.51 210.57 206.51 224.76 201.76 224.76 201.76 210.57 202.99 210.57 202.99 186.94 205.33 186.94 205.33 210.57 206.51 210.57"/>
          <polygon class="cls-6" points="202.99 186.94 202.99 210.57 201.76 210.57 200.58 210.57 200.58 186.94 202.99 186.94"/>
          <polygon class="cls-6" points="201.76 210.57 201.76 224.76 197.07 224.76 197.07 186.94 200.58 186.94 200.58 210.57 201.76 210.57"/>
          <polygon class="cls-6" points="197.07 186.94 197.07 224.76 192.32 224.76 192.32 210.57 193.49 210.57 193.49 186.94 197.07 186.94"/>
          <polygon class="cls-6" points="193.49 186.94 193.49 210.57 192.32 210.57 191.16 210.57 191.16 186.94 193.49 186.94"/>
          <polygon class="cls-6" points="192.32 210.57 192.32 224.76 187.64 224.76 187.64 210.57 188.81 210.57 188.81 186.94 191.16 186.94 191.16 210.57 192.32 210.57"/>
          <polygon class="cls-6" points="188.81 186.94 188.81 210.57 187.64 210.57 186.47 210.57 186.47 186.94 188.81 186.94"/>
          <polygon class="cls-6" points="187.64 210.57 187.64 224.76 182.89 224.76 182.89 186.94 186.47 186.94 186.47 210.57 187.64 210.57"/>
          <polygon class="cls-6" points="182.89 186.94 182.89 224.76 178.2 224.76 178.2 210.57 179.38 210.57 179.38 186.94 182.89 186.94"/>
          <polygon class="cls-6" points="179.38 186.94 179.38 210.57 178.2 210.57 176.97 210.57 176.97 186.94 179.38 186.94"/>
          <polygon class="cls-6" points="178.2 210.57 178.2 224.76 173.45 224.76 173.45 210.57 174.62 210.57 174.62 186.94 176.97 186.94 176.97 210.57 178.2 210.57"/>
          <polygon class="cls-6" points="174.62 186.94 174.62 210.57 173.45 210.57 172.28 210.57 172.28 186.94 174.62 186.94"/>
          <polygon class="cls-6" points="173.45 210.57 173.45 224.76 168.7 224.76 168.7 210.57 169.94 210.57 169.94 186.94 172.28 186.94 172.28 210.57 173.45 210.57"/>
          <polygon class="cls-6" points="169.94 186.94 169.94 210.57 168.7 210.57 167.53 210.57 167.53 186.94 169.94 186.94"/>
          <polygon class="cls-6" points="168.7 210.57 168.7 224.76 164.01 224.76 164.01 186.94 167.53 186.94 167.53 210.57 168.7 210.57"/>
          <rect class="cls-6" x="116.63" y="166.21" width="47.53" height="4.62"/>
          <polygon class="cls-6" points="164.15 163.25 164.15 166.21 116.63 166.21 116.63 170.83 3.4 170.83 3.4 163.25 164.15 163.25"/>
          <polygon class="cls-6" points="164.01 186.94 164.01 224.76 159.26 224.76 159.26 210.57 160.44 210.57 160.44 186.94 164.01 186.94"/>
          <polygon class="cls-6" points="160.44 186.94 160.44 210.57 159.26 210.57 158.09 210.57 158.09 186.94 160.44 186.94"/>
          <polygon class="cls-6" points="159.26 210.57 159.26 224.76 154.57 224.76 154.57 210.57 155.75 210.57 155.75 186.94 158.09 186.94 158.09 210.57 159.26 210.57"/>
          <polygon class="cls-6" points="155.75 186.94 155.75 210.57 154.57 210.57 153.41 210.57 153.41 186.94 155.75 186.94"/>
          <polygon class="cls-6" points="154.57 210.57 154.57 224.76 149.82 224.76 149.82 186.94 153.41 186.94 153.41 210.57 154.57 210.57"/>
          <polygon class="cls-6" points="149.82 186.94 149.82 224.76 145.15 224.76 145.15 210.57 146.31 210.57 146.31 186.94 149.82 186.94"/>
          <polygon class="cls-6" points="146.31 186.94 146.31 210.57 145.15 210.57 143.9 210.57 143.9 186.94 146.31 186.94"/>
          <polygon class="cls-6" points="145.15 210.57 145.15 224.76 140.4 224.76 140.4 210.57 141.56 210.57 141.56 186.94 143.9 186.94 143.9 210.57 145.15 210.57"/>
          <polygon class="cls-6" points="141.56 186.94 141.56 210.57 140.4 210.57 139.22 210.57 139.22 186.94 141.56 186.94"/>
          <polygon class="cls-6" points="140.4 210.57 140.4 224.76 135.64 224.76 135.64 210.57 136.88 210.57 136.88 186.94 139.22 186.94 139.22 210.57 140.4 210.57"/>
          <polygon class="cls-6" points="136.88 186.94 136.88 210.57 135.64 210.57 134.47 210.57 134.47 186.94 136.88 186.94"/>
          <polygon class="cls-6" points="135.64 210.57 135.64 224.76 130.96 224.76 130.96 186.94 134.47 186.94 134.47 210.57 135.64 210.57"/>
          <polygon class="cls-6" points="130.96 186.94 130.96 224.76 126.21 224.76 126.21 210.57 127.37 210.57 127.37 186.94 130.96 186.94"/>
          <polygon class="cls-6" points="127.37 186.94 127.37 210.57 126.21 210.57 125.03 210.57 125.03 186.94 127.37 186.94"/>
          <polygon class="cls-6" points="126.21 210.57 126.21 224.76 121.52 224.76 121.52 210.57 122.69 210.57 122.69 186.94 125.03 186.94 125.03 210.57 126.21 210.57"/>
          <polygon class="cls-6" points="122.69 186.94 122.69 210.57 121.52 210.57 120.35 210.57 120.35 186.94 122.69 186.94"/>
          <polygon class="cls-6" points="121.52 210.57 121.52 224.76 116.77 224.76 116.77 186.94 120.35 186.94 120.35 210.57 121.52 210.57"/>
          <polygon class="cls-6" points="116.77 186.94 116.77 224.76 112.09 224.76 112.09 210.57 113.25 210.57 113.25 186.94 116.77 186.94"/>
          <polygon class="cls-6" points="113.25 186.94 113.25 210.57 112.09 210.57 110.84 210.57 110.84 186.94 113.25 186.94"/>
          <polygon class="cls-6" points="112.09 210.57 112.09 224.76 107.33 224.76 107.33 210.57 108.5 210.57 108.5 186.94 110.84 186.94 110.84 210.57 112.09 210.57"/>
          <polygon class="cls-6" points="108.5 186.94 108.5 210.57 107.33 210.57 106.16 210.57 106.16 186.94 108.5 186.94"/>
          <polygon class="cls-6" points="107.33 210.57 107.33 224.76 102.58 224.76 102.58 210.57 103.81 210.57 103.81 186.94 106.16 186.94 106.16 210.57 107.33 210.57"/>
          <polygon class="cls-6" points="103.81 186.94 103.81 210.57 102.58 210.57 101.4 210.57 101.4 186.94 103.81 186.94"/>
          <polygon class="cls-6" points="102.58 210.57 102.58 224.76 97.9 224.76 97.9 186.94 101.4 186.94 101.4 210.57 102.58 210.57"/>
          <polygon class="cls-6" points="97.9 186.94 97.9 224.76 93.14 224.76 93.14 210.57 94.31 210.57 94.31 186.94 97.9 186.94"/>
          <polygon class="cls-6" points="94.31 186.94 94.31 210.57 93.14 210.57 91.98 210.57 91.98 186.94 94.31 186.94"/>
          <polygon class="cls-6" points="93.14 210.57 93.14 224.76 88.46 224.76 88.46 210.57 89.64 210.57 89.64 186.94 91.98 186.94 91.98 210.57 93.14 210.57"/>
          <polygon class="cls-6" points="89.64 186.94 89.64 210.57 88.46 210.57 87.29 210.57 87.29 186.94 89.64 186.94"/>
          <polygon class="cls-6" points="88.46 210.57 88.46 224.76 83.71 224.76 83.71 186.94 87.29 186.94 87.29 210.57 88.46 210.57"/>
          <polygon class="cls-6" points="83.71 186.94 83.71 224.76 79.02 224.76 79.02 210.57 80.2 210.57 80.2 186.94 83.71 186.94"/>
          <polygon class="cls-6" points="80.2 186.94 80.2 210.57 79.02 210.57 77.79 210.57 77.79 186.94 80.2 186.94"/>
          <polygon class="cls-6" points="79.02 210.57 79.02 224.76 74.27 224.76 74.27 210.57 75.45 210.57 75.45 186.94 77.79 186.94 77.79 210.57 79.02 210.57"/>
          <polygon class="cls-6" points="75.45 186.94 75.45 210.57 74.27 210.57 73.1 210.57 73.1 186.94 75.45 186.94"/>
          <polygon class="cls-6" points="74.27 210.57 74.27 224.76 69.52 224.76 69.52 210.57 70.76 210.57 70.76 186.94 73.1 186.94 73.1 210.57 74.27 210.57"/>
          <polygon class="cls-6" points="70.76 186.94 70.76 210.57 69.52 210.57 68.35 210.57 68.35 186.94 70.76 186.94"/>
          <polygon class="cls-6" points="69.52 210.57 69.52 224.76 64.83 224.76 64.83 186.94 68.35 186.94 68.35 210.57 69.52 210.57"/>
          <polygon class="cls-6" points="64.83 186.94 64.83 224.76 60.08 224.76 60.08 210.57 61.26 210.57 61.26 186.94 64.83 186.94"/>
          <polygon class="cls-6" points="61.26 186.94 61.26 210.57 60.08 210.57 58.91 210.57 58.91 186.94 61.26 186.94"/>
          <polygon class="cls-6" points="60.08 210.57 60.08 224.76 55.4 224.76 55.4 210.57 56.57 210.57 56.57 186.94 58.91 186.94 58.91 210.57 60.08 210.57"/>
          <polygon class="cls-6" points="56.57 186.94 56.57 210.57 55.4 210.57 54.23 210.57 54.23 186.94 56.57 186.94"/>
          <polygon class="cls-6" points="55.4 210.57 55.4 224.76 50.64 224.76 50.64 186.94 54.23 186.94 54.23 210.57 55.4 210.57"/>
          <polygon class="cls-6" points="50.64 186.94 50.64 224.76 45.97 224.76 45.97 210.57 47.14 210.57 47.14 186.94 50.64 186.94"/>
          <polygon class="cls-6" points="47.14 186.94 47.14 210.57 45.97 210.57 44.73 210.57 44.73 186.94 47.14 186.94"/>
          <polygon class="cls-6" points="45.97 210.57 45.97 224.76 41.22 224.76 41.22 210.57 42.38 210.57 42.38 186.94 44.73 186.94 44.73 210.57 45.97 210.57"/>
          <polygon class="cls-6" points="42.38 186.94 42.38 210.57 41.22 210.57 40.04 210.57 40.04 186.94 42.38 186.94"/>
          <polygon class="cls-6" points="41.22 210.57 41.22 224.76 36.47 224.76 36.47 210.57 37.7 210.57 37.7 186.94 40.04 186.94 40.04 210.57 41.22 210.57"/>
          <polygon class="cls-6" points="37.7 186.94 37.7 210.57 36.47 210.57 35.29 210.57 35.29 186.94 37.7 186.94"/>
          <polygon class="cls-6" points="36.47 210.57 36.47 224.76 31.78 224.76 31.78 186.94 35.29 186.94 35.29 210.57 36.47 210.57"/>
          <polygon class="cls-6" points="31.78 186.94 31.78 224.76 27.03 224.76 27.03 210.57 28.19 210.57 28.19 186.94 31.78 186.94"/>
          <polygon class="cls-6" points="28.19 186.94 28.19 210.57 27.03 210.57 25.85 210.57 25.85 186.94 28.19 186.94"/>
          <polygon class="cls-6" points="27.03 210.57 27.03 224.76 22.34 224.76 22.34 210.57 23.51 210.57 23.51 186.94 25.85 186.94 25.85 210.57 27.03 210.57"/>
          <polygon class="cls-6" points="23.51 186.94 23.51 210.57 22.34 210.57 21.17 210.57 21.17 186.94 23.51 186.94"/>
          <polygon class="cls-6" points="22.34 210.57 22.34 224.76 17.59 224.76 17.59 186.94 21.17 186.94 21.17 210.57 22.34 210.57"/>
        </g>
        <g>
          <g>
            <path class="cls-5" d="m274.34,167.79v58.61H.36v-58.61h273.98Zm-14.19,53.93v-37.82H14.55v37.82h245.61Z"/>
            <polygon class="cls-5" points="274.34 160.22 274.34 167.79 161.12 167.79 161.12 163.17 161.12 160.22 274.27 160.22 274.34 160.22"/>
            <path class="cls-5" d="m61.76.42v-.06c41.75,0,75.58,33.84,75.59,75.58v8.72h61.32v-.07c41.75,0,75.59,33.84,75.59,75.58v.04H.36V.42h61.4Z"/>
            <polygon class="cls-5" points="260.16 183.9 260.16 221.72 255.41 221.72 255.41 207.53 256.57 207.53 256.57 183.9 260.16 183.9"/>
            <polygon class="cls-15" points="256.57 183.9 256.57 207.53 255.41 207.53 254.23 207.53 254.23 183.9 256.57 183.9"/>
            <polygon class="cls-5" points="255.41 207.53 255.41 221.72 250.72 221.72 250.72 207.53 251.89 207.53 251.89 183.9 254.23 183.9 254.23 207.53 255.41 207.53"/>
            <polygon class="cls-15" points="251.89 183.9 251.89 207.53 250.72 207.53 249.55 207.53 249.55 183.9 251.89 183.9"/>
            <polygon class="cls-5" points="250.72 207.53 250.72 221.72 245.97 221.72 245.97 183.9 249.55 183.9 249.55 207.53 250.72 207.53"/>
            <polygon class="cls-5" points="245.97 183.9 245.97 221.72 241.29 221.72 241.29 207.53 242.45 207.53 242.45 183.9 245.97 183.9"/>
            <polygon class="cls-15" points="242.45 183.9 242.45 207.53 241.29 207.53 240.04 207.53 240.04 183.9 242.45 183.9"/>
            <polygon class="cls-5" points="241.29 207.53 241.29 221.72 236.53 221.72 236.53 207.53 237.7 207.53 237.7 183.9 240.04 183.9 240.04 207.53 241.29 207.53"/>
            <polygon class="cls-15" points="237.7 183.9 237.7 207.53 236.53 207.53 235.36 207.53 235.36 183.9 237.7 183.9"/>
            <polygon class="cls-5" points="236.53 207.53 236.53 221.72 231.78 221.72 231.78 207.53 233.02 207.53 233.02 183.9 235.36 183.9 235.36 207.53 236.53 207.53"/>
            <polygon class="cls-15" points="233.02 183.9 233.02 207.53 231.78 207.53 230.61 207.53 230.61 183.9 233.02 183.9"/>
            <polygon class="cls-5" points="231.78 207.53 231.78 221.72 227.1 221.72 227.1 183.9 230.61 183.9 230.61 207.53 231.78 207.53"/>
            <polygon class="cls-5" points="227.1 183.9 227.1 221.72 222.34 221.72 222.34 207.53 223.51 207.53 223.51 183.9 227.1 183.9"/>
            <polygon class="cls-15" points="223.51 183.9 223.51 207.53 222.34 207.53 221.17 207.53 221.17 183.9 223.51 183.9"/>
            <polygon class="cls-5" points="222.34 207.53 222.34 221.72 217.66 221.72 217.66 207.53 218.83 207.53 218.83 183.9 221.17 183.9 221.17 207.53 222.34 207.53"/>
            <polygon class="cls-15" points="218.83 183.9 218.83 207.53 217.66 207.53 216.48 207.53 216.48 183.9 218.83 183.9"/>
            <polygon class="cls-5" points="217.66 207.53 217.66 221.72 212.91 221.72 212.91 183.9 216.48 183.9 216.48 207.53 217.66 207.53"/>
            <polygon class="cls-5" points="212.91 183.9 212.91 221.72 208.22 221.72 208.22 207.53 209.4 207.53 209.4 183.9 212.91 183.9"/>
            <polygon class="cls-15" points="209.4 183.9 209.4 207.53 208.22 207.53 206.98 207.53 206.98 183.9 209.4 183.9"/>
            <polygon class="cls-5" points="208.22 207.53 208.22 221.72 203.47 221.72 203.47 207.53 204.65 207.53 204.65 183.9 206.98 183.9 206.98 207.53 208.22 207.53"/>
            <polygon class="cls-15" points="204.65 183.9 204.65 207.53 203.47 207.53 202.3 207.53 202.3 183.9 204.65 183.9"/>
            <polygon class="cls-5" points="203.47 207.53 203.47 221.72 198.72 221.72 198.72 207.53 199.96 207.53 199.96 183.9 202.3 183.9 202.3 207.53 203.47 207.53"/>
            <polygon class="cls-15" points="199.96 183.9 199.96 207.53 198.72 207.53 197.55 207.53 197.55 183.9 199.96 183.9"/>
            <polygon class="cls-5" points="198.72 207.53 198.72 221.72 194.03 221.72 194.03 183.9 197.55 183.9 197.55 207.53 198.72 207.53"/>
            <polygon class="cls-5" points="194.03 183.9 194.03 221.72 189.28 221.72 189.28 207.53 190.46 207.53 190.46 183.9 194.03 183.9"/>
            <polygon class="cls-15" points="190.46 183.9 190.46 207.53 189.28 207.53 188.12 207.53 188.12 183.9 190.46 183.9"/>
            <polygon class="cls-5" points="189.28 207.53 189.28 221.72 184.6 221.72 184.6 207.53 185.77 207.53 185.77 183.9 188.12 183.9 188.12 207.53 189.28 207.53"/>
            <polygon class="cls-15" points="185.77 183.9 185.77 207.53 184.6 207.53 183.43 207.53 183.43 183.9 185.77 183.9"/>
            <polygon class="cls-5" points="184.6 207.53 184.6 221.72 179.85 221.72 179.85 183.9 183.43 183.9 183.43 207.53 184.6 207.53"/>
            <polygon class="cls-5" points="179.85 183.9 179.85 221.72 175.16 221.72 175.16 207.53 176.34 207.53 176.34 183.9 179.85 183.9"/>
            <polygon class="cls-15" points="176.34 183.9 176.34 207.53 175.16 207.53 173.93 207.53 173.93 183.9 176.34 183.9"/>
            <polygon class="cls-5" points="175.16 207.53 175.16 221.72 170.41 221.72 170.41 207.53 171.58 207.53 171.58 183.9 173.93 183.9 173.93 207.53 175.16 207.53"/>
            <polygon class="cls-15" points="171.58 183.9 171.58 207.53 170.41 207.53 169.24 207.53 169.24 183.9 171.58 183.9"/>
            <polygon class="cls-5" points="170.41 207.53 170.41 221.72 165.66 221.72 165.66 207.53 166.9 207.53 166.9 183.9 169.24 183.9 169.24 207.53 170.41 207.53"/>
            <polygon class="cls-15" points="166.9 183.9 166.9 207.53 165.66 207.53 164.49 207.53 164.49 183.9 166.9 183.9"/>
            <polygon class="cls-5" points="165.66 207.53 165.66 221.72 160.97 221.72 160.97 183.9 164.49 183.9 164.49 207.53 165.66 207.53"/>
            <rect class="cls-10" x="113.59" y="163.17" width="47.53" height="4.62"/>
            <polygon class="cls-5" points="161.12 160.22 161.12 163.17 113.59 163.17 113.59 167.79 .36 167.79 .36 160.22 161.12 160.22"/>
            <polygon class="cls-5" points="160.97 183.9 160.97 221.72 156.23 221.72 156.23 207.53 157.4 207.53 157.4 183.9 160.97 183.9"/>
            <polygon class="cls-15" points="157.4 183.9 157.4 207.53 156.23 207.53 155.05 207.53 155.05 183.9 157.4 183.9"/>
            <polygon class="cls-5" points="156.23 207.53 156.23 221.72 151.54 221.72 151.54 207.53 152.71 207.53 152.71 183.9 155.05 183.9 155.05 207.53 156.23 207.53"/>
            <polygon class="cls-15" points="152.71 183.9 152.71 207.53 151.54 207.53 150.37 207.53 150.37 183.9 152.71 183.9"/>
            <polygon class="cls-5" points="151.54 207.53 151.54 221.72 146.79 221.72 146.79 183.9 150.37 183.9 150.37 207.53 151.54 207.53"/>
            <polygon class="cls-5" points="146.79 183.9 146.79 221.72 142.11 221.72 142.11 207.53 143.27 207.53 143.27 183.9 146.79 183.9"/>
            <polygon class="cls-15" points="143.27 183.9 143.27 207.53 142.11 207.53 140.86 207.53 140.86 183.9 143.27 183.9"/>
            <polygon class="cls-5" points="142.11 207.53 142.11 221.72 137.36 221.72 137.36 207.53 138.52 207.53 138.52 183.9 140.86 183.9 140.86 207.53 142.11 207.53"/>
            <polygon class="cls-15" points="138.52 183.9 138.52 207.53 137.36 207.53 136.18 207.53 136.18 183.9 138.52 183.9"/>
            <polygon class="cls-5" points="137.36 207.53 137.36 221.72 132.6 221.72 132.6 207.53 133.84 207.53 133.84 183.9 136.18 183.9 136.18 207.53 137.36 207.53"/>
            <polygon class="cls-15" points="133.84 183.9 133.84 207.53 132.6 207.53 131.43 207.53 131.43 183.9 133.84 183.9"/>
            <polygon class="cls-5" points="132.6 207.53 132.6 221.72 127.92 221.72 127.92 183.9 131.43 183.9 131.43 207.53 132.6 207.53"/>
            <polygon class="cls-5" points="127.92 183.9 127.92 221.72 123.17 221.72 123.17 207.53 124.33 207.53 124.33 183.9 127.92 183.9"/>
            <polygon class="cls-15" points="124.33 183.9 124.33 207.53 123.17 207.53 121.99 207.53 121.99 183.9 124.33 183.9"/>
            <polygon class="cls-5" points="123.17 207.53 123.17 221.72 118.48 221.72 118.48 207.53 119.65 207.53 119.65 183.9 121.99 183.9 121.99 207.53 123.17 207.53"/>
            <polygon class="cls-15" points="119.65 183.9 119.65 207.53 118.48 207.53 117.31 207.53 117.31 183.9 119.65 183.9"/>
            <polygon class="cls-5" points="118.48 207.53 118.48 221.72 113.73 221.72 113.73 183.9 117.31 183.9 117.31 207.53 118.48 207.53"/>
            <polygon class="cls-5" points="113.73 183.9 113.73 221.72 109.05 221.72 109.05 207.53 110.22 207.53 110.22 183.9 113.73 183.9"/>
            <polygon class="cls-15" points="110.22 183.9 110.22 207.53 109.05 207.53 107.8 207.53 107.8 183.9 110.22 183.9"/>
            <polygon class="cls-5" points="109.05 207.53 109.05 221.72 104.29 221.72 104.29 207.53 105.47 207.53 105.47 183.9 107.8 183.9 107.8 207.53 109.05 207.53"/>
            <polygon class="cls-15" points="105.47 183.9 105.47 207.53 104.29 207.53 103.13 207.53 103.13 183.9 105.47 183.9"/>
            <polygon class="cls-5" points="104.29 207.53 104.29 221.72 99.54 221.72 99.54 207.53 100.78 207.53 100.78 183.9 103.13 183.9 103.13 207.53 104.29 207.53"/>
            <polygon class="cls-15" points="100.78 183.9 100.78 207.53 99.54 207.53 98.37 207.53 98.37 183.9 100.78 183.9"/>
            <polygon class="cls-5" points="99.54 207.53 99.54 221.72 94.86 221.72 94.86 183.9 98.37 183.9 98.37 207.53 99.54 207.53"/>
            <polygon class="cls-5" points="94.86 183.9 94.86 221.72 90.1 221.72 90.1 207.53 91.28 207.53 91.28 183.9 94.86 183.9"/>
            <polygon class="cls-15" points="91.28 183.9 91.28 207.53 90.1 207.53 88.94 207.53 88.94 183.9 91.28 183.9"/>
            <polygon class="cls-5" points="90.1 207.53 90.1 221.72 85.42 221.72 85.42 207.53 86.6 207.53 86.6 183.9 88.94 183.9 88.94 207.53 90.1 207.53"/>
            <polygon class="cls-15" points="86.6 183.9 86.6 207.53 85.42 207.53 84.25 207.53 84.25 183.9 86.6 183.9"/>
            <polygon class="cls-5" points="85.42 207.53 85.42 221.72 80.67 221.72 80.67 183.9 84.25 183.9 84.25 207.53 85.42 207.53"/>
            <polygon class="cls-5" points="80.67 183.9 80.67 221.72 75.98 221.72 75.98 207.53 77.16 207.53 77.16 183.9 80.67 183.9"/>
            <polygon class="cls-15" points="77.16 183.9 77.16 207.53 75.98 207.53 74.75 207.53 74.75 183.9 77.16 183.9"/>
            <polygon class="cls-5" points="75.98 207.53 75.98 221.72 71.23 221.72 71.23 207.53 72.41 207.53 72.41 183.9 74.75 183.9 74.75 207.53 75.98 207.53"/>
            <polygon class="cls-15" points="72.41 183.9 72.41 207.53 71.23 207.53 70.06 207.53 70.06 183.9 72.41 183.9"/>
            <polygon class="cls-5" points="71.23 207.53 71.23 221.72 66.48 221.72 66.48 207.53 67.72 207.53 67.72 183.9 70.06 183.9 70.06 207.53 71.23 207.53"/>
            <polygon class="cls-15" points="67.72 183.9 67.72 207.53 66.48 207.53 65.31 207.53 65.31 183.9 67.72 183.9"/>
            <polygon class="cls-5" points="66.48 207.53 66.48 221.72 61.79 221.72 61.79 183.9 65.31 183.9 65.31 207.53 66.48 207.53"/>
            <polygon class="cls-5" points="61.79 183.9 61.79 221.72 57.04 221.72 57.04 207.53 58.22 207.53 58.22 183.9 61.79 183.9"/>
            <polygon class="cls-15" points="58.22 183.9 58.22 207.53 57.04 207.53 55.87 207.53 55.87 183.9 58.22 183.9"/>
            <polygon class="cls-5" points="57.04 207.53 57.04 221.72 52.37 221.72 52.37 207.53 53.53 207.53 53.53 183.9 55.87 183.9 55.87 207.53 57.04 207.53"/>
            <polygon class="cls-15" points="53.53 183.9 53.53 207.53 52.37 207.53 51.19 207.53 51.19 183.9 53.53 183.9"/>
            <polygon class="cls-5" points="52.37 207.53 52.37 221.72 47.61 221.72 47.61 183.9 51.19 183.9 51.19 207.53 52.37 207.53"/>
            <polygon class="cls-5" points="47.61 183.9 47.61 221.72 42.93 221.72 42.93 207.53 44.1 207.53 44.1 183.9 47.61 183.9"/>
            <polygon class="cls-15" points="44.1 183.9 44.1 207.53 42.93 207.53 41.69 207.53 41.69 183.9 44.1 183.9"/>
            <polygon class="cls-5" points="42.93 207.53 42.93 221.72 38.18 221.72 38.18 207.53 39.34 207.53 39.34 183.9 41.69 183.9 41.69 207.53 42.93 207.53"/>
            <polygon class="cls-15" points="39.34 183.9 39.34 207.53 38.18 207.53 37 207.53 37 183.9 39.34 183.9"/>
            <polygon class="cls-5" points="38.18 207.53 38.18 221.72 33.43 221.72 33.43 207.53 34.66 207.53 34.66 183.9 37 183.9 37 207.53 38.18 207.53"/>
            <polygon class="cls-15" points="34.66 183.9 34.66 207.53 33.43 207.53 32.25 207.53 32.25 183.9 34.66 183.9"/>
            <polygon class="cls-5" points="33.43 207.53 33.43 221.72 28.74 221.72 28.74 183.9 32.25 183.9 32.25 207.53 33.43 207.53"/>
            <polygon class="cls-5" points="28.74 183.9 28.74 221.72 23.99 221.72 23.99 207.53 25.15 207.53 25.15 183.9 28.74 183.9"/>
            <polygon class="cls-15" points="25.15 183.9 25.15 207.53 23.99 207.53 22.81 207.53 22.81 183.9 25.15 183.9"/>
            <polygon class="cls-5" points="23.99 207.53 23.99 221.72 19.3 221.72 19.3 207.53 20.47 207.53 20.47 183.9 22.81 183.9 22.81 207.53 23.99 207.53"/>
            <polygon class="cls-15" points="20.47 183.9 20.47 207.53 19.3 207.53 18.13 207.53 18.13 183.9 20.47 183.9"/>
            <polygon class="cls-5" points="19.3 207.53 19.3 221.72 14.55 221.72 14.55 183.9 18.13 183.9 18.13 207.53 19.3 207.53"/>
          </g>
          <g>
            <path d="m.36.06c.2,0,.36.16.36.36v225.98c0,.2-.16.36-.36.36s-.36-.16-.36-.36V.42C0,.22.16.06.36.06Z"/>
            <path d="m274.34,159.86c.2,0,.36.16.36.36v66.18c0,.2-.16.36-.36.36s-.36-.16-.36-.36v-66.18c0-.2.16-.36.36-.36Z"/>
            <path d="m198.68,84.23c41.88,0,75.95,34.07,75.95,75.94,0,.2-.16.36-.36.36s-.36-.16-.36-.36c0-41.48-33.75-75.22-75.23-75.22-.2,0-.36-.16-.36-.36s.16-.36.36-.36Z"/>
            <path d="m.36,226.04h273.98c.2,0,.36.16.36.36s-.16.36-.36.36H.36c-.2,0-.36-.16-.36-.36s.16-.36.36-.36Z"/>
            <path d="m254.23,207.17h2.34c.2,0,.36.16.36.36s-.16.36-.36.36h-2.34c-.2,0-.36-.16-.36-.36s.16-.36.36-.36Z"/>
            <path d="m249.55,207.17h2.34c.2,0,.36.16.36.36s-.16.36-.36.36h-2.34c-.2,0-.36-.16-.36-.36s.16-.36.36-.36Z"/>
            <path d="m241.29,207.17h1.17c.2,0,.36.16.36.36s-.16.36-.36.36h-1.17c-.2,0-.36-.16-.36-.36s.16-.36.36-.36Z"/>
            <path d="m235.36,207.17h2.34c.2,0,.36.16.36.36s-.16.36-.36.36h-2.34c-.2,0-.36-.16-.36-.36s.16-.36.36-.36Z"/>
            <path d="m231.78,207.17h1.25c.2,0,.36.16.36.36s-.16.36-.36.36h-1.25c-.2,0-.36-.16-.36-.36s.16-.36.36-.36Z"/>
            <path d="m240.04,207.17h1.25c.2,0,.36.16.36.36s-.16.36-.36.36h-1.25c-.2,0-.36-.16-.36-.36s.16-.36.36-.36Z"/>
            <path d="m256.57,183.54c.2,0,.36.16.36.36v23.63c0,.2-.16.36-.36.36s-.36-.16-.36-.36v-23.63c0-.2.16-.36.36-.36Z"/>
            <path d="m254.23,183.54c.2,0,.36.16.36.36v23.63c0,.2-.16.36-.36.36s-.36-.16-.36-.36v-23.63c0-.2.16-.36.36-.36Z"/>
            <path d="m251.89,183.54c.2,0,.36.16.36.36v23.63c0,.2-.16.36-.36.36s-.36-.16-.36-.36v-23.63c0-.2.16-.36.36-.36Z"/>
            <path d="m249.55,183.54c.2,0,.36.16.36.36v23.63c0,.2-.16.36-.36.36s-.36-.16-.36-.36v-23.63c0-.2.16-.36.36-.36Z"/>
            <path d="m242.45,183.54c.2,0,.36.16.36.36v23.63c0,.2-.16.36-.36.36s-.36-.16-.36-.36v-23.63c0-.2.16-.36.36-.36Z"/>
            <path d="m240.04,183.54c.2,0,.36.16.36.36v23.63c0,.2-.16.36-.36.36s-.36-.16-.36-.36v-23.63c0-.2.16-.36.36-.36Z"/>
            <path d="m237.7,183.54c.2,0,.36.16.36.36v23.63c0,.2-.16.36-.36.36s-.36-.16-.36-.36v-23.63c0-.2.16-.36.36-.36Z"/>
            <path d="m235.36,183.54c.2,0,.36.16.36.36v23.63c0,.2-.16.36-.36.36s-.36-.16-.36-.36v-23.63c0-.2.16-.36.36-.36Z"/>
            <path d="m233.02,183.54c.2,0,.36.16.36.36v23.63c0,.2-.16.36-.36.36s-.36-.16-.36-.36v-23.63c0-.2.16-.36.36-.36Z"/>
            <path d="m216.48,207.17h2.35c.2,0,.36.16.36.36s-.16.36-.36.36h-2.35c-.2,0-.36-.16-.36-.36s.16-.36.36-.36Z"/>
            <path d="m221.17,207.17h2.34c.2,0,.36.16.36.36s-.16.36-.36.36h-2.34c-.2,0-.36-.16-.36-.36s.16-.36.36-.36Z"/>
            <path d="m206.98,207.17h2.41c.2,0,.36.16.36.36s-.16.36-.36.36h-2.41c-.2,0-.36-.16-.36-.36s.16-.36.36-.36Z"/>
            <path d="m198.72,207.17h1.24c.2,0,.36.16.36.36s-.16.36-.36.36h-1.24c-.2,0-.36-.16-.36-.36s.16-.36.36-.36Z"/>
            <path d="m202.3,207.17h2.35c.2,0,.36.16.36.36s-.16.36-.36.36h-2.35c-.2,0-.36-.16-.36-.36s.16-.36.36-.36Z"/>
            <path d="m216.48,183.54c.2,0,.36.16.36.36v23.63c0,.2-.16.36-.36.36s-.36-.16-.36-.36v-23.63c0-.2.16-.36.36-.36Z"/>
            <path d="m209.4,183.54c.2,0,.36.16.36.36v23.63c0,.2-.16.36-.36.36s-.36-.16-.36-.36v-23.63c0-.2.16-.36.36-.36Z"/>
            <path d="m206.98,183.54c.2,0,.36.16.36.36v23.63c0,.2-.16.36-.36.36s-.36-.16-.36-.36v-23.63c0-.2.16-.36.36-.36Z"/>
            <path d="m204.65,183.54c.2,0,.36.16.36.36v23.63c0,.2-.16.36-.36.36s-.36-.16-.36-.36v-23.63c0-.2.16-.36.36-.36Z"/>
            <path d="m202.3,183.54c.2,0,.36.16.36.36v23.63c0,.2-.16.36-.36.36s-.36-.16-.36-.36v-23.63c0-.2.16-.36.36-.36Z"/>
            <path d="m199.96,183.54c.2,0,.36.16.36.36v23.63c0,.2-.16.36-.36.36s-.36-.16-.36-.36v-23.63c0-.2.16-.36.36-.36Z"/>
            <path d="m230.61,183.54c.2,0,.36.16.36.36v23.63c0,.2-.16.36-.36.36s-.36-.16-.36-.36v-23.63c0-.2.16-.36.36-.36Z"/>
            <path d="m223.51,183.54c.2,0,.36.16.36.36v23.63c0,.2-.16.36-.36.36s-.36-.16-.36-.36v-23.63c0-.2.16-.36.36-.36Z"/>
            <path d="m221.17,183.54c.2,0,.36.16.36.36v23.63c0,.2-.16.36-.36.36s-.36-.16-.36-.36v-23.63c0-.2.16-.36.36-.36Z"/>
            <path d="m218.83,183.54c.2,0,.36.16.36.36v23.63c0,.2-.16.36-.36.36s-.36-.16-.36-.36v-23.63c0-.2.16-.36.36-.36Z"/>
            <path d="m189.28,207.17h1.17c.2,0,.36.16.36.36s-.16.36-.36.36h-1.17c-.2,0-.36-.16-.36-.36s.16-.36.36-.36Z"/>
            <path d="m183.43,207.17h2.34c.2,0,.36.16.36.36s-.16.36-.36.36h-2.34c-.2,0-.36-.16-.36-.36s.16-.36.36-.36Z"/>
            <path d="m188.12,207.17h1.16c.2,0,.36.16.36.36s-.16.36-.36.36h-1.16c-.2,0-.36-.16-.36-.36s.16-.36.36-.36Z"/>
            <path d="m173.93,207.17h2.41c.2,0,.36.16.36.36s-.16.36-.36.36h-2.41c-.2,0-.36-.16-.36-.36s.16-.36.36-.36Z"/>
            <path d="m169.24,207.17h2.34c.2,0,.36.16.36.36s-.16.36-.36.36h-2.34c-.2,0-.36-.16-.36-.36s.16-.36.36-.36Z"/>
            <path d="m164.49,207.17h2.41c.2,0,.36.16.36.36s-.16.36-.36.36h-2.41c-.2,0-.36-.16-.36-.36s.16-.36.36-.36Z"/>
            <path d="m197.55,183.54c.2,0,.36.16.36.36v23.63c0,.2-.16.36-.36.36s-.36-.16-.36-.36v-23.63c0-.2.16-.36.36-.36Z"/>
            <path d="m190.46,183.54c.2,0,.36.16.36.36v23.63c0,.2-.16.36-.36.36s-.36-.16-.36-.36v-23.63c0-.2.16-.36.36-.36Z"/>
            <path d="m188.12,183.54c.2,0,.36.16.36.36v23.63c0,.2-.16.36-.36.36s-.36-.16-.36-.36v-23.63c0-.2.16-.36.36-.36Z"/>
            <path d="m185.77,183.54c.2,0,.36.16.36.36v23.63c0,.2-.16.36-.36.36s-.36-.16-.36-.36v-23.63c0-.2.16-.36.36-.36Z"/>
            <path d="m183.43,183.54c.2,0,.36.16.36.36v23.63c0,.2-.16.36-.36.36s-.36-.16-.36-.36v-23.63c0-.2.16-.36.36-.36Z"/>
            <path d="m176.34,183.54c.2,0,.36.16.36.36v23.63c0,.2-.16.36-.36.36s-.36-.16-.36-.36v-23.63c0-.2.16-.36.36-.36Z"/>
            <path d="m173.93,183.54c.2,0,.36.16.36.36v23.63c0,.2-.16.36-.36.36s-.36-.16-.36-.36v-23.63c0-.2.16-.36.36-.36Z"/>
            <path d="m171.58,183.54c.2,0,.36.16.36.36v23.63c0,.2-.16.36-.36.36s-.36-.16-.36-.36v-23.63c0-.2.16-.36.36-.36Z"/>
            <path d="m169.24,183.54c.2,0,.36.16.36.36v23.63c0,.2-.16.36-.36.36s-.36-.16-.36-.36v-23.63c0-.2.16-.36.36-.36Z"/>
            <path d="m166.9,183.54c.2,0,.36.16.36.36v23.63c0,.2-.16.36-.36.36s-.36-.16-.36-.36v-23.63c0-.2.16-.36.36-.36Z"/>
            <path d="m164.49,183.54c.2,0,.36.16.36.36v23.63c0,.2-.16.36-.36.36s-.36-.16-.36-.36v-23.63c0-.2.16-.36.36-.36Z"/>
            <path d="m197.55,207.17h1.17c.2,0,.36.16.36.36s-.16.36-.36.36h-1.17c-.2,0-.36-.16-.36-.36s.16-.36.36-.36Z"/>
            <path d="m230.61,207.17h1.16c.2,0,.36.16.36.36s-.16.36-.36.36h-1.16c-.2,0-.36-.16-.36-.36s.16-.36.36-.36Z"/>
            <path d="m250.72,221.36h9.44c.2,0,.36.16.36.36s-.16.36-.36.36h-9.44c-.2,0-.36-.16-.36-.36s.16-.36.36-.36Z"/>
            <path d="m241.29,221.36h4.68c.2,0,.36.16.36.36s-.16.36-.36.36h-4.68c-.2,0-.36-.16-.36-.36s.16-.36.36-.36Z"/>
            <path d="m231.78,221.36h9.51c.2,0,.36.16.36.36s-.16.36-.36.36h-9.51c-.2,0-.36-.16-.36-.36s.16-.36.36-.36Z"/>
            <path d="m245.97,221.36h4.75c.2,0,.36.16.36.36s-.16.36-.36.36h-4.75c-.2,0-.36-.16-.36-.36s.16-.36.36-.36Z"/>
            <path d="m217.66,221.36h9.44c.2,0,.36.16.36.36s-.16.36-.36.36h-9.44c-.2,0-.36-.16-.36-.36s.16-.36.36-.36Z"/>
            <path d="m208.22,221.36h4.69c.2,0,.36.16.36.36s-.16.36-.36.36h-4.69c-.2,0-.36-.16-.36-.36s.16-.36.36-.36Z"/>
            <path d="m198.72,221.36h9.5c.2,0,.36.16.36.36s-.16.36-.36.36h-9.5c-.2,0-.36-.16-.36-.36s.16-.36.36-.36Z"/>
            <path d="m212.91,221.36h4.75c.2,0,.36.16.36.36s-.16.36-.36.36h-4.75c-.2,0-.36-.16-.36-.36s.16-.36.36-.36Z"/>
            <path d="m184.6,221.36h9.43c.2,0,.36.16.36.36s-.16.36-.36.36h-9.43c-.2,0-.36-.16-.36-.36s.16-.36.36-.36Z"/>
            <path d="m175.16,221.36h4.69c.2,0,.36.16.36.36s-.16.36-.36.36h-4.69c-.2,0-.36-.16-.36-.36s.16-.36.36-.36Z"/>
            <path d="m165.66,221.36h9.5c.2,0,.36.16.36.36s-.16.36-.36.36h-9.5c-.2,0-.36-.16-.36-.36s.16-.36.36-.36Z"/>
            <path d="m179.85,221.36h4.75c.2,0,.36.16.36.36s-.16.36-.36.36h-4.75c-.2,0-.36-.16-.36-.36s.16-.36.36-.36Z"/>
            <path d="m194.03,221.36h4.69c.2,0,.36.16.36.36s-.16.36-.36.36h-4.69c-.2,0-.36-.16-.36-.36s.16-.36.36-.36Z"/>
            <path d="m227.1,221.36h4.68c.2,0,.36.16.36.36s-.16.36-.36.36h-4.68c-.2,0-.36-.16-.36-.36s.16-.36.36-.36Z"/>
            <path d="m212.91,183.54c.2,0,.36.16.36.36v37.82c0,.2-.16.36-.36.36s-.36-.16-.36-.36v-37.82c0-.2.16-.36.36-.36Z"/>
            <path d="m194.03,183.54c.2,0,.36.16.36.36v37.82c0,.2-.16.36-.36.36s-.36-.16-.36-.36v-37.82c0-.2.16-.36.36-.36Z"/>
            <path d="m260.16,183.54c.2,0,.36.16.36.36v37.82c0,.2-.16.36-.36.36s-.36-.16-.36-.36v-37.82c0-.2.16-.36.36-.36Z"/>
            <path d="m245.97,183.54c.2,0,.36.16.36.36v37.82c0,.2-.16.36-.36.36s-.36-.16-.36-.36v-37.82c0-.2.16-.36.36-.36Z"/>
            <path d="m227.1,183.54c.2,0,.36.16.36.36v37.82c0,.2-.16.36-.36.36s-.36-.16-.36-.36v-37.82c0-.2.16-.36.36-.36Z"/>
            <path d="m179.85,183.54c.2,0,.36.16.36.36v37.82c0,.2-.16.36-.36.36s-.36-.16-.36-.36v-37.82c0-.2.16-.36.36-.36Z"/>
            <path d="m175.16,207.17c.2,0,.36.16.36.36v14.19c0,.2-.16.36-.36.36s-.36-.16-.36-.36v-14.19c0-.2.16-.36.36-.36Z"/>
            <path d="m170.41,207.17c.2,0,.36.16.36.36v14.19c0,.2-.16.36-.36.36s-.36-.16-.36-.36v-14.19c0-.2.16-.36.36-.36Z"/>
            <path d="m165.66,207.17c.2,0,.36.16.36.36v14.19c0,.2-.16.36-.36.36s-.36-.16-.36-.36v-14.19c0-.2.16-.36.36-.36Z"/>
            <path d="m217.66,207.17c.2,0,.36.16.36.36v14.19c0,.2-.16.36-.36.36s-.36-.16-.36-.36v-14.19c0-.2.16-.36.36-.36Z"/>
            <path d="m208.22,207.17c.2,0,.36.16.36.36v14.19c0,.2-.16.36-.36.36s-.36-.16-.36-.36v-14.19c0-.2.16-.36.36-.36Z"/>
            <path d="m203.47,207.17c.2,0,.36.16.36.36v14.19c0,.2-.16.36-.36.36s-.36-.16-.36-.36v-14.19c0-.2.16-.36.36-.36Z"/>
            <path d="m198.72,207.17c.2,0,.36.16.36.36v14.19c0,.2-.16.36-.36.36s-.36-.16-.36-.36v-14.19c0-.2.16-.36.36-.36Z"/>
            <path d="m189.28,207.17c.2,0,.36.16.36.36v14.19c0,.2-.16.36-.36.36s-.36-.16-.36-.36v-14.19c0-.2.16-.36.36-.36Z"/>
            <path d="m184.6,207.17c.2,0,.36.16.36.36v14.19c0,.2-.16.36-.36.36s-.36-.16-.36-.36v-14.19c0-.2.16-.36.36-.36Z"/>
            <path d="m255.41,207.17c.2,0,.36.16.36.36v14.19c0,.2-.16.36-.36.36s-.36-.16-.36-.36v-14.19c0-.2.16-.36.36-.36Z"/>
            <path d="m250.72,207.17c.2,0,.36.16.36.36v14.19c0,.2-.16.36-.36.36s-.36-.16-.36-.36v-14.19c0-.2.16-.36.36-.36Z"/>
            <path d="m241.29,207.17c.2,0,.36.16.36.36v14.19c0,.2-.16.36-.36.36s-.36-.16-.36-.36v-14.19c0-.2.16-.36.36-.36Z"/>
            <path d="m236.53,207.17c.2,0,.36.16.36.36v14.19c0,.2-.16.36-.36.36s-.36-.16-.36-.36v-14.19c0-.2.16-.36.36-.36Z"/>
            <path d="m231.78,207.17c.2,0,.36.16.36.36v14.19c0,.2-.16.36-.36.36s-.36-.16-.36-.36v-14.19c0-.2.16-.36.36-.36Z"/>
            <path d="m222.34,207.17c.2,0,.36.16.36.36v14.19c0,.2-.16.36-.36.36s-.36-.16-.36-.36v-14.19c0-.2.16-.36.36-.36Z"/>
            <path d="m156.22,207.17h1.17c.2,0,.36.16.36.36s-.16.36-.36.36h-1.17c-.2,0-.36-.16-.36-.36s.16-.36.36-.36Z"/>
            <path d="m150.37,207.17h2.34c.2,0,.36.16.36.36s-.16.36-.36.36h-2.34c-.2,0-.36-.16-.36-.36s.16-.36.36-.36Z"/>
            <path d="m155.05,207.17h1.17c.2,0,.36.16.36.36s-.16.36-.36.36h-1.17c-.2,0-.36-.16-.36-.36s.16-.36.36-.36Z"/>
            <path d="m140.86,207.17h2.41c.2,0,.36.16.36.36s-.16.36-.36.36h-2.41c-.2,0-.36-.16-.36-.36s.16-.36.36-.36Z"/>
            <path d="m136.18,207.17h1.17c.2,0,.36.16.36.36s-.16.36-.36.36h-1.17c-.2,0-.36-.16-.36-.36s.16-.36.36-.36Z"/>
            <path d="m131.43,207.17h2.41c.2,0,.36.16.36.36s-.16.36-.36.36h-2.41c-.2,0-.36-.16-.36-.36s.16-.36.36-.36Z"/>
            <path d="m137.36,207.17h1.16c.2,0,.36.16.36.36s-.16.36-.36.36h-1.16c-.2,0-.36-.16-.36-.36s.16-.36.36-.36Z"/>
            <path d="m143.27,183.54c.2,0,.36.16.36.36v23.63c0,.2-.16.36-.36.36s-.36-.16-.36-.36v-23.63c0-.2.16-.36.36-.36Z"/>
            <path d="m140.86,183.54c.2,0,.36.16.36.36v23.63c0,.2-.16.36-.36.36s-.36-.16-.36-.36v-23.63c0-.2.16-.36.36-.36Z"/>
            <path d="m138.52,183.54c.2,0,.36.16.36.36v23.63c0,.2-.16.36-.36.36s-.36-.16-.36-.36v-23.63c0-.2.16-.36.36-.36Z"/>
            <path d="m136.18,183.54c.2,0,.36.16.36.36v23.63c0,.2-.16.36-.36.36s-.36-.16-.36-.36v-23.63c0-.2.16-.36.36-.36Z"/>
            <path d="m133.84,183.54c.2,0,.36.16.36.36v23.63c0,.2-.16.36-.36.36s-.36-.16-.36-.36v-23.63c0-.2.16-.36.36-.36Z"/>
            <path d="m131.43,183.54c.2,0,.36.16.36.36v23.63c0,.2-.16.36-.36.36s-.36-.16-.36-.36v-23.63c0-.2.16-.36.36-.36Z"/>
            <path d="m152.71,183.54c.2,0,.36.16.36.36v23.63c0,.2-.16.36-.36.36s-.36-.16-.36-.36v-23.63c0-.2.16-.36.36-.36Z"/>
            <path d="m150.37,183.54c.2,0,.36.16.36.36v23.63c0,.2-.16.36-.36.36s-.36-.16-.36-.36v-23.63c0-.2.16-.36.36-.36Z"/>
            <path d="m155.05,183.54c.2,0,.36.16.36.36v23.63c0,.2-.16.36-.36.36s-.36-.16-.36-.36v-23.63c0-.2.16-.36.36-.36Z"/>
            <path d="m157.4,183.54c.2,0,.36.16.36.36v23.63c0,.2-.16.36-.36.36s-.36-.16-.36-.36v-23.63c0-.2.16-.36.36-.36Z"/>
            <path d="m121.99,207.17h2.34c.2,0,.36.16.36.36s-.16.36-.36.36h-2.34c-.2,0-.36-.16-.36-.36s.16-.36.36-.36Z"/>
            <path d="m117.31,207.17h2.34c.2,0,.36.16.36.36s-.16.36-.36.36h-2.34c-.2,0-.36-.16-.36-.36s.16-.36.36-.36Z"/>
            <path d="m104.29,207.17h1.17c.2,0,.36.16.36.36s-.16.36-.36.36h-1.17c-.2,0-.36-.16-.36-.36s.16-.36.36-.36Z"/>
            <path d="m107.8,207.17h2.41c.2,0,.36.16.36.36s-.16.36-.36.36h-2.41c-.2,0-.36-.16-.36-.36s.16-.36.36-.36Z"/>
            <path d="m98.37,207.17h2.41c.2,0,.36.16.36.36s-.16.36-.36.36h-2.41c-.2,0-.36-.16-.36-.36s.16-.36.36-.36Z"/>
            <path d="m103.13,207.17h1.16c.2,0,.36.16.36.36s-.16.36-.36.36h-1.16c-.2,0-.36-.16-.36-.36s.16-.36.36-.36Z"/>
            <path d="m124.33,183.54c.2,0,.36.16.36.36v23.63c0,.2-.16.36-.36.36s-.36-.16-.36-.36v-23.63c0-.2.16-.36.36-.36Z"/>
            <path d="m121.99,183.54c.2,0,.36.16.36.36v23.63c0,.2-.16.36-.36.36s-.36-.16-.36-.36v-23.63c0-.2.16-.36.36-.36Z"/>
            <path d="m119.65,183.54c.2,0,.36.16.36.36v23.63c0,.2-.16.36-.36.36s-.36-.16-.36-.36v-23.63c0-.2.16-.36.36-.36Z"/>
            <path d="m117.31,183.54c.2,0,.36.16.36.36v23.63c0,.2-.16.36-.36.36s-.36-.16-.36-.36v-23.63c0-.2.16-.36.36-.36Z"/>
            <path d="m110.21,183.54c.2,0,.36.16.36.36v23.63c0,.2-.16.36-.36.36s-.36-.16-.36-.36v-23.63c0-.2.16-.36.36-.36Z"/>
            <path d="m107.8,183.54c.2,0,.36.16.36.36v23.63c0,.2-.16.36-.36.36s-.36-.16-.36-.36v-23.63c0-.2.16-.36.36-.36Z"/>
            <path d="m105.46,183.54c.2,0,.36.16.36.36v23.63c0,.2-.16.36-.36.36s-.36-.16-.36-.36v-23.63c0-.2.16-.36.36-.36Z"/>
            <path d="m103.13,183.54c.2,0,.36.16.36.36v23.63c0,.2-.16.36-.36.36s-.36-.16-.36-.36v-23.63c0-.2.16-.36.36-.36Z"/>
            <path d="m100.78,183.54c.2,0,.36.16.36.36v23.63c0,.2-.16.36-.36.36s-.36-.16-.36-.36v-23.63c0-.2.16-.36.36-.36Z"/>
            <path d="m98.37,183.54c.2,0,.36.16.36.36v23.63c0,.2-.16.36-.36.36s-.36-.16-.36-.36v-23.63c0-.2.16-.36.36-.36Z"/>
            <path d="m88.94,207.17h2.34c.2,0,.36.16.36.36s-.16.36-.36.36h-2.34c-.2,0-.36-.16-.36-.36s.16-.36.36-.36Z"/>
            <path d="m84.25,207.17h2.35c.2,0,.36.16.36.36s-.16.36-.36.36h-2.35c-.2,0-.36-.16-.36-.36s.16-.36.36-.36Z"/>
            <path d="m74.75,207.17h2.41c.2,0,.36.16.36.36s-.16.36-.36.36h-2.41c-.2,0-.36-.16-.36-.36s.16-.36.36-.36Z"/>
            <path d="m71.23,207.17h1.17c.2,0,.36.16.36.36s-.16.36-.36.36h-1.17c-.2,0-.36-.16-.36-.36s.16-.36.36-.36Z"/>
            <path d="m65.31,207.17h2.41c.2,0,.36.16.36.36s-.16.36-.36.36h-2.41c-.2,0-.36-.16-.36-.36s.16-.36.36-.36Z"/>
            <path d="m70.06,207.17h1.17c.2,0,.36.16.36.36s-.16.36-.36.36h-1.17c-.2,0-.36-.16-.36-.36s.16-.36.36-.36Z"/>
            <path d="m77.16,183.54c.2,0,.36.16.36.36v23.63c0,.2-.16.36-.36.36s-.36-.16-.36-.36v-23.63c0-.2.16-.36.36-.36Z"/>
            <path d="m74.75,183.54c.2,0,.36.16.36.36v23.63c0,.2-.16.36-.36.36s-.36-.16-.36-.36v-23.63c0-.2.16-.36.36-.36Z"/>
            <path d="m72.41,183.54c.2,0,.36.16.36.36v23.63c0,.2-.16.36-.36.36s-.36-.16-.36-.36v-23.63c0-.2.16-.36.36-.36Z"/>
            <path d="m70.06,183.54c.2,0,.36.16.36.36v23.63c0,.2-.16.36-.36.36s-.36-.16-.36-.36v-23.63c0-.2.16-.36.36-.36Z"/>
            <path d="m84.25,183.54c.2,0,.36.16.36.36v23.63c0,.2-.16.36-.36.36s-.36-.16-.36-.36v-23.63c0-.2.16-.36.36-.36Z"/>
            <path d="m91.28,183.54c.2,0,.36.16.36.36v23.63c0,.2-.16.36-.36.36s-.36-.16-.36-.36v-23.63c0-.2.16-.36.36-.36Z"/>
            <path d="m88.94,183.54c.2,0,.36.16.36.36v23.63c0,.2-.16.36-.36.36s-.36-.16-.36-.36v-23.63c0-.2.16-.36.36-.36Z"/>
            <path d="m86.6,183.54c.2,0,.36.16.36.36v23.63c0,.2-.16.36-.36.36s-.36-.16-.36-.36v-23.63c0-.2.16-.36.36-.36Z"/>
            <path d="m67.72,183.54c.2,0,.36.16.36.36v23.63c0,.2-.16.36-.36.36s-.36-.16-.36-.36v-23.63c0-.2.16-.36.36-.36Z"/>
            <path d="m65.31,183.54c.2,0,.36.16.36.36v23.63c0,.2-.16.36-.36.36s-.36-.16-.36-.36v-23.63c0-.2.16-.36.36-.36Z"/>
            <path d="m55.87,207.17h2.35c.2,0,.36.16.36.36s-.16.36-.36.36h-2.35c-.2,0-.36-.16-.36-.36s.16-.36.36-.36Z"/>
            <path d="m51.19,207.17h2.34c.2,0,.36.16.36.36s-.16.36-.36.36h-2.34c-.2,0-.36-.16-.36-.36s.16-.36.36-.36Z"/>
            <path d="m41.69,207.17h1.24c.2,0,.36.16.36.36s-.16.36-.36.36h-1.24c-.2,0-.36-.16-.36-.36s.16-.36.36-.36Z"/>
            <path d="m37,207.17h2.34c.2,0,.36.16.36.36s-.16.36-.36.36h-2.34c-.2,0-.36-.16-.36-.36s.16-.36.36-.36Z"/>
            <path d="m42.93,207.17h1.17c.2,0,.36.16.36.36s-.16.36-.36.36h-1.17c-.2,0-.36-.16-.36-.36s.16-.36.36-.36Z"/>
            <path d="m32.25,207.17h2.41c.2,0,.36.16.36.36s-.16.36-.36.36h-2.41c-.2,0-.36-.16-.36-.36s.16-.36.36-.36Z"/>
            <path d="m58.22,183.54c.2,0,.36.16.36.36v23.63c0,.2-.16.36-.36.36s-.36-.16-.36-.36v-23.63c0-.2.16-.36.36-.36Z"/>
            <path d="m55.87,183.54c.2,0,.36.16.36.36v23.63c0,.2-.16.36-.36.36s-.36-.16-.36-.36v-23.63c0-.2.16-.36.36-.36Z"/>
            <path d="m53.53,183.54c.2,0,.36.16.36.36v23.63c0,.2-.16.36-.36.36s-.36-.16-.36-.36v-23.63c0-.2.16-.36.36-.36Z"/>
            <path d="m51.19,183.54c.2,0,.36.16.36.36v23.63c0,.2-.16.36-.36.36s-.36-.16-.36-.36v-23.63c0-.2.16-.36.36-.36Z"/>
            <path d="m44.1,183.54c.2,0,.36.16.36.36v23.63c0,.2-.16.36-.36.36s-.36-.16-.36-.36v-23.63c0-.2.16-.36.36-.36Z"/>
            <path d="m41.69,183.54c.2,0,.36.16.36.36v23.63c0,.2-.16.36-.36.36s-.36-.16-.36-.36v-23.63c0-.2.16-.36.36-.36Z"/>
            <path d="m39.34,183.54c.2,0,.36.16.36.36v23.63c0,.2-.16.36-.36.36s-.36-.16-.36-.36v-23.63c0-.2.16-.36.36-.36Z"/>
            <path d="m37,183.54c.2,0,.36.16.36.36v23.63c0,.2-.16.36-.36.36s-.36-.16-.36-.36v-23.63c0-.2.16-.36.36-.36Z"/>
            <path d="m34.66,183.54c.2,0,.36.16.36.36v23.63c0,.2-.16.36-.36.36s-.36-.16-.36-.36v-23.63c0-.2.16-.36.36-.36Z"/>
            <path d="m32.25,183.54c.2,0,.36.16.36.36v23.63c0,.2-.16.36-.36.36s-.36-.16-.36-.36v-23.63c0-.2.16-.36.36-.36Z"/>
            <path d="m156.22,221.36h4.75c.2,0,.36.16.36.36s-.16.36-.36.36h-4.75c-.2,0-.36-.16-.36-.36s.16-.36.36-.36Z"/>
            <path d="m146.79,221.36h9.44c.2,0,.36.16.36.36s-.16.36-.36.36h-9.44c-.2,0-.36-.16-.36-.36s.16-.36.36-.36Z"/>
            <path d="m132.6,221.36h14.19c.2,0,.36.16.36.36s-.16.36-.36.36h-14.19c-.2,0-.36-.16-.36-.36s.16-.36.36-.36Z"/>
            <path d="m123.17,221.36h4.75c.2,0,.36.16.36.36s-.16.36-.36.36h-4.75c-.2,0-.36-.16-.36-.36s.16-.36.36-.36Z"/>
            <path d="m113.73,221.36h9.44c.2,0,.36.16.36.36s-.16.36-.36.36h-9.44c-.2,0-.36-.16-.36-.36s.16-.36.36-.36Z"/>
            <path d="m99.54,221.36h14.19c.2,0,.36.16.36.36s-.16.36-.36.36h-14.19c-.2,0-.36-.16-.36-.36s.16-.36.36-.36Z"/>
            <path d="m127.92,221.36h4.68c.2,0,.36.16.36.36s-.16.36-.36.36h-4.68c-.2,0-.36-.16-.36-.36s.16-.36.36-.36Z"/>
            <path d="m90.1,221.36h4.76c.2,0,.36.16.36.36s-.16.36-.36.36h-4.76c-.2,0-.36-.16-.36-.36s.16-.36.36-.36Z"/>
            <path d="m80.67,221.36h9.43c.2,0,.36.16.36.36s-.16.36-.36.36h-9.43c-.2,0-.36-.16-.36-.36s.16-.36.36-.36Z"/>
            <path d="m71.23,221.36h4.75c.2,0,.36.16.36.36s-.16.36-.36.36h-4.75c-.2,0-.36-.16-.36-.36s.16-.36.36-.36Z"/>
            <path d="m61.79,221.36h9.44c.2,0,.36.16.36.36s-.16.36-.36.36h-9.44c-.2,0-.36-.16-.36-.36s.16-.36.36-.36Z"/>
            <path d="m75.98,221.36h4.69c.2,0,.36.16.36.36s-.16.36-.36.36h-4.69c-.2,0-.36-.16-.36-.36s.16-.36.36-.36Z"/>
            <path d="m47.61,221.36h9.44c.2,0,.36.16.36.36s-.16.36-.36.36h-9.44c-.2,0-.36-.16-.36-.36s.16-.36.36-.36Z"/>
            <path d="m38.18,221.36h4.75c.2,0,.36.16.36.36s-.16.36-.36.36h-4.75c-.2,0-.36-.16-.36-.36s.16-.36.36-.36Z"/>
            <path d="m28.74,221.36h9.44c.2,0,.36.16.36.36s-.16.36-.36.36h-9.44c-.2,0-.36-.16-.36-.36s.16-.36.36-.36Z"/>
            <path d="m42.93,221.36h4.68c.2,0,.36.16.36.36s-.16.36-.36.36h-4.68c-.2,0-.36-.16-.36-.36s.16-.36.36-.36Z"/>
            <path d="m57.04,221.36h4.75c.2,0,.36.16.36.36s-.16.36-.36.36h-4.75c-.2,0-.36-.16-.36-.36s.16-.36.36-.36Z"/>
            <path d="m94.86,221.36h4.68c.2,0,.36.16.36.36s-.16.36-.36.36h-4.68c-.2,0-.36-.16-.36-.36s.16-.36.36-.36Z"/>
            <path d="m127.92,183.54c.2,0,.36.16.36.36v37.82c0,.2-.16.36-.36.36s-.36-.16-.36-.36v-37.82c0-.2.16-.36.36-.36Z"/>
            <path d="m113.73,183.54c.2,0,.36.16.36.36v37.82c0,.2-.16.36-.36.36s-.36-.16-.36-.36v-37.82c0-.2.16-.36.36-.36Z"/>
            <path d="m94.86,183.54c.2,0,.36.16.36.36v37.82c0,.2-.16.36-.36.36s-.36-.16-.36-.36v-37.82c0-.2.16-.36.36-.36Z"/>
            <path d="m80.67,183.54c.2,0,.36.16.36.36v37.82c0,.2-.16.36-.36.36s-.36-.16-.36-.36v-37.82c0-.2.16-.36.36-.36Z"/>
            <path d="m61.79,183.54c.2,0,.36.16.36.36v37.82c0,.2-.16.36-.36.36s-.36-.16-.36-.36v-37.82c0-.2.16-.36.36-.36Z"/>
            <path d="m47.61,183.54c.2,0,.36.16.36.36v37.82c0,.2-.16.36-.36.36s-.36-.16-.36-.36v-37.82c0-.2.16-.36.36-.36Z"/>
            <path d="m28.74,183.54c.2,0,.36.16.36.36v37.82c0,.2-.16.36-.36.36s-.36-.16-.36-.36v-37.82c0-.2.16-.36.36-.36Z"/>
            <path d="m66.48,207.17c.2,0,.36.16.36.36v14.19c0,.2-.16.36-.36.36s-.36-.16-.36-.36v-14.19c0-.2.16-.36.36-.36Z"/>
            <path d="m57.04,207.17c.2,0,.36.16.36.36v14.19c0,.2-.16.36-.36.36s-.36-.16-.36-.36v-14.19c0-.2.16-.36.36-.36Z"/>
            <path d="m52.37,207.17c.2,0,.36.16.36.36v14.19c0,.2-.16.36-.36.36s-.36-.16-.36-.36v-14.19c0-.2.16-.36.36-.36Z"/>
            <path d="m42.93,207.17c.2,0,.36.16.36.36v14.19c0,.2-.16.36-.36.36s-.36-.16-.36-.36v-14.19c0-.2.16-.36.36-.36Z"/>
            <path d="m38.18,207.17c.2,0,.36.16.36.36v14.19c0,.2-.16.36-.36.36s-.36-.16-.36-.36v-14.19c0-.2.16-.36.36-.36Z"/>
            <path d="m33.43,207.17c.2,0,.36.16.36.36v14.19c0,.2-.16.36-.36.36s-.36-.16-.36-.36v-14.19c0-.2.16-.36.36-.36Z"/>
            <path d="m104.29,207.17c.2,0,.36.16.36.36v14.19c0,.2-.16.36-.36.36s-.36-.16-.36-.36v-14.19c0-.2.16-.36.36-.36Z"/>
            <path d="m99.54,207.17c.2,0,.36.16.36.36v14.19c0,.2-.16.36-.36.36s-.36-.16-.36-.36v-14.19c0-.2.16-.36.36-.36Z"/>
            <path d="m75.98,207.17c.2,0,.36.16.36.36v14.19c0,.2-.16.36-.36.36s-.36-.16-.36-.36v-14.19c0-.2.16-.36.36-.36Z"/>
            <path d="m71.23,207.17c.2,0,.36.16.36.36v14.19c0,.2-.16.36-.36.36s-.36-.16-.36-.36v-14.19c0-.2.16-.36.36-.36Z"/>
            <path d="m85.42,207.17c.2,0,.36.16.36.36v14.19c0,.2-.16.36-.36.36s-.36-.16-.36-.36v-14.19c0-.2.16-.36.36-.36Z"/>
            <path d="m90.1,207.17c.2,0,.36.16.36.36v14.19c0,.2-.16.36-.36.36s-.36-.16-.36-.36v-14.19c0-.2.16-.36.36-.36Z"/>
            <path d="m142.11,207.17c.2,0,.36.16.36.36v14.19c0,.2-.16.36-.36.36s-.36-.16-.36-.36v-14.19c0-.2.16-.36.36-.36Z"/>
            <path d="m137.36,207.17c.2,0,.36.16.36.36v14.19c0,.2-.16.36-.36.36s-.36-.16-.36-.36v-14.19c0-.2.16-.36.36-.36Z"/>
            <path d="m132.6,207.17c.2,0,.36.16.36.36v14.19c0,.2-.16.36-.36.36s-.36-.16-.36-.36v-14.19c0-.2.16-.36.36-.36Z"/>
            <path d="m123.17,207.17c.2,0,.36.16.36.36v14.19c0,.2-.16.36-.36.36s-.36-.16-.36-.36v-14.19c0-.2.16-.36.36-.36Z"/>
            <path d="m118.48,207.17c.2,0,.36.16.36.36v14.19c0,.2-.16.36-.36.36s-.36-.16-.36-.36v-14.19c0-.2.16-.36.36-.36Z"/>
            <path d="m109.05,207.17c.2,0,.36.16.36.36v14.19c0,.2-.16.36-.36.36s-.36-.16-.36-.36v-14.19c0-.2.16-.36.36-.36Z"/>
            <path d="m146.79,183.54c.2,0,.36.16.36.36v37.82c0,.2-.16.36-.36.36s-.36-.16-.36-.36v-37.82c0-.2.16-.36.36-.36Z"/>
            <path d="m160.97,183.54c.2,0,.36.16.36.36v37.82c0,.2-.16.36-.36.36s-.36-.16-.36-.36v-37.82c0-.2.16-.36.36-.36Z"/>
            <path d="m151.54,207.17c.2,0,.36.16.36.36v14.19c0,.2-.16.36-.36.36s-.36-.16-.36-.36v-14.19c0-.2.16-.36.36-.36Z"/>
            <path d="m156.22,207.17c.2,0,.36.16.36.36v14.19c0,.2-.16.36-.36.36s-.36-.16-.36-.36v-14.19c0-.2.16-.36.36-.36Z"/>
            <path d="m22.81,207.17h2.34c.2,0,.36.16.36.36s-.16.36-.36.36h-2.34c-.2,0-.36-.16-.36-.36s.16-.36.36-.36Z"/>
            <path d="m18.13,207.17h2.34c.2,0,.36.16.36.36s-.16.36-.36.36h-2.34c-.2,0-.36-.16-.36-.36s.16-.36.36-.36Z"/>
            <path d="m25.15,183.54c.2,0,.36.16.36.36v23.63c0,.2-.16.36-.36.36s-.36-.16-.36-.36v-23.63c0-.2.16-.36.36-.36Z"/>
            <path d="m22.81,183.54c.2,0,.36.16.36.36v23.63c0,.2-.16.36-.36.36s-.36-.16-.36-.36v-23.63c0-.2.16-.36.36-.36Z"/>
            <path d="m20.47,183.54c.2,0,.36.16.36.36v23.63c0,.2-.16.36-.36.36s-.36-.16-.36-.36v-23.63c0-.2.16-.36.36-.36Z"/>
            <path d="m18.13,183.54c.2,0,.36.16.36.36v23.63c0,.2-.16.36-.36.36s-.36-.16-.36-.36v-23.63c0-.2.16-.36.36-.36Z"/>
            <path d="m14.55,183.54c.2,0,.36.16.36.36v37.46h8.72v-13.83c0-.2.16-.36.36-.36s.36.16.36.36v14.19c0,.2-.16.36-.36.36h-9.44c-.2,0-.36-.16-.36-.36v-37.82c0-.2.16-.36.36-.36Z"/>
            <path d="m19.3,207.17c.2,0,.36.16.36.36v14.19c0,.2-.16.36-.36.36s-.36-.16-.36-.36v-14.19c0-.2.16-.36.36-.36Z"/>
            <path d="m23.99,221.36h4.75c.2,0,.36.16.36.36s-.16.36-.36.36h-4.75c-.2,0-.36-.16-.36-.36s.16-.36.36-.36Z"/>
            <path d="m14.55,183.54h245.61c.2,0,.36.16.36.36s-.16.36-.36.36H14.55c-.2,0-.36-.16-.36-.36s.16-.36.36-.36Z"/>
            <path d="m160.97,221.36h4.69c.2,0,.36.16.36.36s-.16.36-.36.36h-4.69c-.2,0-.36-.16-.36-.36s.16-.36.36-.36Z"/>
            <path d="m.36.06h61.4c.2,0,.38.16.38.36s-.15.36-.34.36H.36c-.2,0-.36-.16-.36-.36S.16.06.36.06Z"/>
            <path d="m61.76,0c41.87,0,75.94,34.07,75.95,75.94,0,.2-.16.36-.36.36s-.36-.16-.36-.36c-.01-41.48-33.76-75.22-75.23-75.22-.2,0-.36-.16-.36-.36s.16-.36.36-.36Z"/>
            <path d="m137.36,75.62c.2,0,.36.16.36.36v8.32h60.96c.2,0,.38.16.38.36s-.14.36-.34.36h-61.36c-.2,0-.36-.16-.36-.36v-8.68c0-.2.16-.36.36-.36Z"/>
            <path d="m.36,159.86h273.91c.2,0,.4.16.4.36s-.13.36-.33.36H.36c-.2,0-.36-.16-.36-.36s.16-.36.36-.36Z"/>
            <path d="m.36,167.43h113.23c.2,0,.36.16.36.36s-.16.36-.36.36H.36c-.2,0-.36-.16-.36-.36s.16-.36.36-.36Z"/>
            <path d="m161.12,167.43h113.23c.2,0,.36.16.36.36s-.16.36-.36.36h-113.23c-.2,0-.36-.16-.36-.36s.16-.36.36-.36Z"/>
            <path d="m113.59,162.81h47.53c.2,0,.36.16.36.36v4.62c0,.2-.16.36-.36.36h-47.53c-.2,0-.36-.16-.36-.36v-4.62c0-.2.16-.36.36-.36Zm47.17.72h-46.81v3.9h46.81v-3.9Z"/>
          </g>
        </g>
        <g class="cls-13">
          <rect class="cls-4" x=".36" y="167.79" width="273.91" height="26.2"/>
        </g>
        <g class="cls-7">
          <rect class="cls-3" x=".24" y="159.85" width="273.91" height="9.24"/>
        </g>
      </g>
    </g>
  </g>
</svg>