<?xml version="1.0" encoding="UTF-8"?>
<svg xmlns="http://www.w3.org/2000/svg" xmlns:xlink="http://www.w3.org/1999/xlink" viewBox="0 0 89.64 178.09">
  <defs>
    <style>
      .cls-1 {
        fill: url(#linear-gradient-3);
      }

      .cls-1, .cls-2, .cls-3, .cls-4, .cls-5 {
        mix-blend-mode: multiply;
      }

      .cls-6 {
        fill: #fff;
      }

      .cls-2 {
        fill: url(#linear-gradient);
      }

      .cls-7 {
        fill: #939598;
      }

      .cls-3 {
        fill: url(#linear-gradient-4);
      }

      .cls-8 {
        filter: url(#luminosity-noclip-5);
      }

      .cls-9 {
        mask: url(#mask-2);
      }

      .cls-10 {
        isolation: isolate;
      }

      .cls-11 {
        mask: url(#mask-3);
      }

      .cls-4 {
        fill: url(#linear-gradient-5);
      }

      .cls-12 {
        mask: url(#mask-5);
      }

      .cls-13 {
        fill: none;
        stroke: #26281e;
        stroke-linecap: round;
        stroke-linejoin: round;
      }

      .cls-14 {
        mask: url(#mask-4);
      }

      .cls-15 {
        fill: #808285;
      }

      .cls-5 {
        fill: url(#linear-gradient-2);
      }

      .cls-16 {
        filter: url(#luminosity-noclip);
      }

      .cls-17 {
        mask: url(#mask-1);
      }

      .cls-18 {
        mask: url(#mask);
      }

      .cls-19 {
        fill: #def0fa;
      }

      .cls-20 {
        filter: url(#luminosity-noclip-3);
      }

      .cls-21 {
        fill: #26281e;
      }
    </style>
    <filter id="luminosity-noclip" x="3.69" y="158.53" width="85.95" height="12.58" color-interpolation-filters="sRGB" filterUnits="userSpaceOnUse">
      <feFlood flood-color="#fff" result="bg"/>
      <feBlend in="SourceGraphic" in2="bg"/>
    </filter>
    <filter id="luminosity-noclip-2" x="3.69" y="-8280.72" width="85.95" height="32766" color-interpolation-filters="sRGB" filterUnits="userSpaceOnUse">
      <feFlood flood-color="#fff" result="bg"/>
      <feBlend in="SourceGraphic" in2="bg"/>
    </filter>
    <mask id="mask-1" x="3.69" y="-8280.72" width="85.95" height="32766" maskUnits="userSpaceOnUse"/>
    <linearGradient id="linear-gradient" x1="-2159.46" y1="7779.32" x2="-2159.46" y2="7766.74" gradientTransform="translate(2206.12 7937.85) scale(1 -1)" gradientUnits="userSpaceOnUse">
      <stop offset="0" stop-color="#000"/>
      <stop offset="1" stop-color="#fff"/>
    </linearGradient>
    <mask id="mask" x="3.69" y="158.53" width="85.95" height="12.58" maskUnits="userSpaceOnUse">
      <g class="cls-16">
        <g class="cls-17">
          <rect class="cls-2" x="3.69" y="158.53" width="85.95" height="12.58"/>
        </g>
      </g>
    </mask>
    <filter id="luminosity-noclip-3" x=".5" y="7.48" width="85.95" height="12.58" color-interpolation-filters="sRGB" filterUnits="userSpaceOnUse">
      <feFlood flood-color="#fff" result="bg"/>
      <feBlend in="SourceGraphic" in2="bg"/>
    </filter>
    <filter id="luminosity-noclip-4" x=".5" y="-8280.72" width="85.95" height="32766" color-interpolation-filters="sRGB" filterUnits="userSpaceOnUse">
      <feFlood flood-color="#fff" result="bg"/>
      <feBlend in="SourceGraphic" in2="bg"/>
    </filter>
    <mask id="mask-3" x=".5" y="-8280.72" width="85.95" height="32766" maskUnits="userSpaceOnUse"/>
    <linearGradient id="linear-gradient-2" x1="-1620.61" y1="204.29" x2="-1620.61" y2="191.7" gradientTransform="translate(-1577.14 -184.22) rotate(-180) scale(1 -1)" xlink:href="#linear-gradient"/>
    <mask id="mask-2" x=".5" y="7.48" width="85.95" height="12.58" maskUnits="userSpaceOnUse">
      <g class="cls-20">
        <g class="cls-11">
          <rect class="cls-5" x=".5" y="7.48" width="85.95" height="12.58"/>
        </g>
      </g>
    </mask>
    <linearGradient id="linear-gradient-3" x1="-1620.61" y1="204.29" x2="-1620.61" y2="191.7" gradientTransform="translate(-1577.14 -184.22) rotate(-180) scale(1 -1)" gradientUnits="userSpaceOnUse">
      <stop offset="0" stop-color="#fff"/>
      <stop offset="1" stop-color="#000"/>
    </linearGradient>
    <filter id="luminosity-noclip-5" x=".69" y="155.53" width="85.95" height="12.58" color-interpolation-filters="sRGB" filterUnits="userSpaceOnUse">
      <feFlood flood-color="#fff" result="bg"/>
      <feBlend in="SourceGraphic" in2="bg"/>
    </filter>
    <filter id="luminosity-noclip-6" x=".69" y="-8280.72" width="85.95" height="32766" color-interpolation-filters="sRGB" filterUnits="userSpaceOnUse">
      <feFlood flood-color="#fff" result="bg"/>
      <feBlend in="SourceGraphic" in2="bg"/>
    </filter>
    <mask id="mask-5" x=".69" y="-8280.72" width="85.95" height="32766" maskUnits="userSpaceOnUse"/>
    <linearGradient id="linear-gradient-4" x1="-2162.46" y1="7782.32" x2="-2162.46" y2="7769.74" xlink:href="#linear-gradient"/>
    <mask id="mask-4" x=".69" y="155.53" width="85.95" height="12.58" maskUnits="userSpaceOnUse">
      <g class="cls-8">
        <g class="cls-12">
          <rect class="cls-3" x=".69" y="155.53" width="85.95" height="12.58"/>
        </g>
      </g>
    </mask>
    <linearGradient id="linear-gradient-5" x1="-2162.46" y1="7782.32" x2="-2162.46" y2="7769.74" gradientTransform="translate(2206.12 7937.85) scale(1 -1)" xlink:href="#linear-gradient-3"/>
  </defs>
  <g class="cls-10">
    <g id="Layer_1" data-name="Layer 1">
      <g>
        <g>
          <polygon class="cls-7" points="89.45 171.11 89.45 178.09 3.5 178.09 3.5 171.11 10.88 171.11 82.44 171.11 89.45 171.11"/>
          <polygon class="cls-7" points="89.45 10.48 89.45 171.11 82.44 171.11 82.44 82.89 82.44 64.88 82.44 10.48 89.45 10.48"/>
          <polygon class="cls-7" points="89.45 3.5 89.45 10.48 82.44 10.48 10.88 10.48 3.5 10.48 3.5 3.5 89.45 3.5"/>
          <rect class="cls-7" x="10.88" y="82.89" width="71.56" height="88.22"/>
          <rect class="cls-7" x="10.88" y="64.88" width="71.56" height="18.01"/>
          <path class="cls-7" d="m82.44,10.48v54.4H10.88V10.48h71.56Zm-7.38,36.02V15.63H18.62v30.87h56.44Z"/>
          <rect class="cls-7" x="18.62" y="15.63" width="56.44" height="30.87"/>
          <polygon class="cls-7" points="10.88 82.89 10.88 171.11 3.5 171.11 3.5 10.48 10.88 10.48 10.88 64.88 10.88 82.89"/>
        </g>
        <g class="cls-18">
          <rect class="cls-7" x="3.69" y="158.53" width="85.95" height="12.58"/>
        </g>
        <g>
          <g>
            <rect class="cls-6" x="7.88" y="79.89" width="71.56" height="88.22"/>
            <path class="cls-6" d="m79.44,7.48v54.4H7.88V7.48h71.56Zm-7.38,36.02V12.63H15.62v30.87h56.44Z"/>
            <rect class="cls-6" x="15.62" y="12.63" width="56.44" height="30.87"/>
            <rect class="cls-19" x="7.88" y="61.88" width="71.56" height="18.01"/>
            <polygon class="cls-15" points="86.45 168.11 86.45 175.09 .5 175.09 .5 168.11 7.88 168.11 79.44 168.11 86.45 168.11"/>
            <polygon class="cls-15" points="86.45 7.48 86.45 168.11 79.44 168.11 79.44 79.89 79.44 61.88 79.44 7.48 86.45 7.48"/>
            <polygon class="cls-15" points="7.88 79.89 7.88 168.11 .5 168.11 .5 7.48 7.88 7.48 7.88 61.88 7.88 79.89"/>
            <polygon class="cls-15" points="86.45 .5 86.45 7.48 79.44 7.48 7.88 7.48 .5 7.48 .5 .5 86.45 .5"/>
          </g>
          <g>
            <path class="cls-21" d="m79.44,168.61c-.28,0-.5-.22-.5-.5V7.48c0-.28.22-.5.5-.5s.5.22.5.5v160.63c0,.28-.22.5-.5.5Z"/>
            <path class="cls-21" d="m86.45,168.61H.5c-.28,0-.5-.22-.5-.5s.22-.5.5-.5h85.95c.28,0,.5.22.5.5s-.22.5-.5.5Z"/>
            <path class="cls-21" d="m86.45,7.98H.5c-.28,0-.5-.22-.5-.5s.22-.5.5-.5h85.95c.28,0,.5.22.5.5s-.22.5-.5.5Z"/>
            <path class="cls-21" d="m7.88,168.61c-.28,0-.5-.22-.5-.5V7.48c0-.28.22-.5.5-.5s.5.22.5.5v160.63c0,.28-.22.5-.5.5Z"/>
            <path class="cls-21" d="m86.45,175.59H.5c-.28,0-.5-.22-.5-.5V.5C0,.22.22,0,.5,0h85.95c.28,0,.5.22.5.5v174.59c0,.28-.22.5-.5.5Zm-85.45-1h84.95V1H1v173.59Z"/>
            <path class="cls-21" d="m79.44,62.38H7.88c-.28,0-.5-.22-.5-.5s.22-.5.5-.5h71.56c.28,0,.5.22.5.5s-.22.5-.5.5Z"/>
            <path class="cls-21" d="m79.44,80.39H7.88c-.28,0-.5-.22-.5-.5s.22-.5.5-.5h71.56c.28,0,.5.22.5.5s-.22.5-.5.5Z"/>
            <rect class="cls-13" x="15.62" y="12.63" width="56.44" height="30.87"/>
          </g>
        </g>
        <g class="cls-9">
          <rect class="cls-1" x=".5" y="7.48" width="85.95" height="12.58"/>
        </g>
        <g class="cls-14">
          <rect class="cls-4" x=".69" y="155.53" width="85.95" height="12.58"/>
        </g>
      </g>
    </g>
  </g>
</svg>