<?xml version="1.0" encoding="UTF-8"?>
<svg id="Layer_1" data-name="Layer 1" xmlns="http://www.w3.org/2000/svg" viewBox="0 0 75.25 54.41">
  <defs>
    <style>
      .cls-1 {
        fill: #f0f0f0;
      }

      .cls-2 {
        fill: #f4f4f4;
      }

      .cls-3 {
        fill: #fff;
      }

      .cls-4 {
        fill: #fafafa;
      }

      .cls-5 {
        fill: #ecedec;
      }

      .cls-6 {
        fill: #e9eae9;
      }

      .cls-7 {
        fill: #f6f6f6;
      }

      .cls-8 {
        fill: #939598;
      }

      .cls-9 {
        fill: #f5f5f5;
      }

      .cls-10 {
        fill: #ebecec;
      }

      .cls-11 {
        fill: #e6e7e7;
      }

      .cls-12 {
        fill: #eff0ef;
      }

      .cls-13 {
        fill: #6e6f72;
      }

      .cls-14 {
        fill: #cdcdcf;
      }

      .cls-15 {
        fill: #e5e6e6;
      }

      .cls-16 {
        fill: #e7e8e7;
      }

      .cls-17 {
        fill: #eaeaea;
      }

      .cls-18 {
        fill: #fdfdfd;
      }

      .cls-19 {
        fill: #f8f8f7;
      }

      .cls-20 {
        fill: #f9f9f9;
      }

      .cls-21 {
        fill: #ebebeb;
      }

      .cls-22 {
        fill: #818285;
      }

      .cls-23 {
        fill: #edeeed;
      }

      .cls-24 {
        fill: #eeefee;
      }

      .cls-25 {
        fill: #f1f1f1;
      }

      .cls-26 {
        fill: #27281f;
      }

      .cls-27 {
        fill: #f3f3f3;
      }

      .cls-28 {
        fill: none;
        stroke: #27281f;
        stroke-linecap: round;
        stroke-linejoin: round;
        stroke-width: .72px;
      }

      .cls-29 {
        fill: #e8e9e8;
      }

      .cls-30 {
        fill: #f2f2f2;
      }

      .cls-31 {
        fill: #fcfcfc;
      }
    </style>
  </defs>
  <g>
    <path class="cls-8" d="m75.1,27.09l-.15-.91-.15-.91-.15-.91-.24-.62-5.95-19.62H10.93l-5.94,19.62-.25.62-.15.91-.15.91-.15.91-.15.91v2.87l.15.91.15.91.15.91.3.91.3.75.3.91.45.91.45.91.45.76.45.91.6.76.6.91.6.75.6.76.75.76.75.75.91.75.75.6.91.75.91.6.91.6.91.6,1.06.6,1.06.6,1.06.6,1.06.45,1.06.45,1.21.45,1.06.45,1.21.3,1.21.45,1.21.3,1.21.3,1.21.15,1.21.3,1.36.15,1.21.15,1.36.15,1.21.15h1.36l1.21.15h1.36l1.21-.15h1.36l1.21-.15,1.36-.15,1.21-.15,1.36-.15,1.21-.3,1.21-.15,1.21-.3,1.21-.3,1.21-.45,1.21-.3,1.06-.45,1.21-.45,1.06-.45,1.06-.45,1.06-.6,1.06-.6,1.06-.6.91-.6.91-.6.91-.6.91-.75.91-.6.75-.75.75-.75.76-.76.6-.76.6-.75.6-.91.6-.76.45-.91.45-.76.45-.91.45-.91.3-.91.3-.75.3-.91.15-.91.15-.91.15-.91v-2.87l-.15-.91ZM39.84,5.49c.7,0,1.28.57,1.28,1.28s-.58,1.28-1.28,1.28-1.28-.58-1.28-1.28.57-1.28,1.28-1.28Zm30.12,23.7v.91l-.15.75-.15.91-.15.91-.3.91-.45.76-.3.91-.45.91-.6.91-.6.76-.3.45-.3.45-.75.75-.91.91-.76.76-1.06.75-.91.75-1.06.75-1.21.6-1.21.6-1.21.75-1.21.45-1.36.6-1.36.45-1.36.45-1.51.45-1.36.3-1.51.3-1.51.15-1.66.3h-1.51l-1.51.15h-3.17l-1.51-.15h-1.51l-1.51-.3-1.66-.15-1.36-.3-1.51-.3-1.51-.45-1.36-.45-1.36-.45-1.36-.6-1.21-.45-1.21-.75-1.21-.6-1.21-.6-1.06-.75-.91-.75-.91-.75-.91-.76-.91-.91-.3-.3-.45-.45-.6-.91-.6-.76-.6-.91-.45-.91-.3-.91-.45-.76-.15-.91-.3-.91-.15-.91v-.75l-.15-.91.15-.91v-.75l.15-.91.3-.91.15-.91.45-.76.3-.91.45-.91.6-.75.6-.91.6-.91.45-.3.3-.45.45-.45.45-.45.91-.75.91-.75.91-.76,1.06-.75,1.21-.6,1.21-.6,1.21-.6,1.21-.6,1.36-.6,1.36-.45,1.36-.45,1.51-.3,1.51-.45,1.36-.3,1.66-.15,1.51-.15,1.51-.15,1.51-.15h3.17l1.51.15,1.51.15,1.66.15,1.51.15,1.51.3,1.36.45,1.51.3,1.36.45,1.36.45,1.36.6,1.21.6,1.21.6,1.21.6,1.21.6,1.06.75.91.76,1.06.75.76.75.45.45.45.45.3.45.45.3.6.91.6.91.6.75.45.91.3.91.45.76.3.91.15.91.15.91.15.75v.91Z"/>
    <path class="cls-8" d="m39.84,12.89c-2.21,0-4,1.79-4,4s1.79,4,4,4,4-1.8,4-4-1.8-4-4-4Zm0,6.19c-1.22,0-2.19-.98-2.19-2.19s.97-2.19,2.19-2.19,2.19.98,2.19,2.19-.98,2.19-2.19,2.19Z"/>
  </g>
  <g>
    <g>
      <polygon class="cls-15" points="5.79 25.38 5.94 26.28 5.94 27.03 6.09 27.93 6.39 28.84 6.54 29.74 6.99 30.49 7.29 31.39 7.75 32.29 8.35 33.19 8.95 33.94 9.55 34.85 10 35.3 10.3 35.6 11.2 36.5 12.1 37.25 13 38 13.9 38.75 14.96 39.5 16.16 40.1 17.36 40.7 18.56 41.46 19.76 41.91 21.12 42.51 22.47 42.96 23.82 43.41 25.32 43.86 26.82 44.16 28.18 44.46 29.83 44.61 31.33 44.91 32.83 44.91 34.34 45.06 35.99 45.06 37.49 45.06 38.99 44.91 40.49 44.91 42.15 44.61 43.65 44.46 45.15 44.16 46.5 43.86 48.01 43.41 49.36 42.96 50.71 42.51 52.06 41.91 53.26 41.46 54.47 40.7 55.67 40.1 56.87 39.5 57.92 38.75 58.82 38 59.87 37.25 60.62 36.5 61.53 35.6 62.28 34.85 62.58 34.39 62.88 33.94 63.48 33.19 64.08 32.29 64.53 31.39 64.83 30.49 65.28 29.74 65.58 28.84 65.73 27.93 65.88 27.03 66.03 26.28 66.03 25.38 66.03 24.48 65.88 23.73 65.73 22.83 65.58 21.93 65.28 21.02 64.83 20.27 64.53 19.37 64.08 18.47 63.48 17.72 62.88 16.82 62.28 15.92 61.83 15.62 61.53 15.17 61.08 14.72 60.62 14.26 59.87 13.51 58.82 12.76 57.92 12.01 56.87 11.26 55.67 10.66 54.47 10.06 53.26 9.46 52.06 8.86 50.71 8.26 49.36 7.8 48.01 7.35 46.5 7.05 45.15 6.6 43.65 6.3 42.15 6.15 40.49 6 38.99 5.85 37.49 5.7 35.99 5.7 34.34 5.7 32.83 5.85 31.33 6 29.83 6.15 28.18 6.3 26.82 6.6 25.32 7.05 23.82 7.35 22.47 7.8 21.12 8.26 19.76 8.86 18.56 9.46 17.36 10.06 16.16 10.66 14.96 11.26 13.9 12.01 13 12.76 12.1 13.51 11.2 14.26 10.75 14.72 10.3 15.17 10 15.62 9.55 15.92 8.95 16.82 8.35 17.72 7.75 18.47 7.29 19.37 6.99 20.27 6.54 21.02 6.39 21.93 6.09 22.83 5.94 23.73 5.94 24.48 5.79 25.38 5.79 25.38"/>
      <polygon class="cls-11" points="6.05 25.31 6.2 26.21 6.2 26.95 6.35 27.84 6.65 28.74 6.8 29.63 7.24 30.38 7.54 31.27 7.99 32.16 8.58 33.06 9.18 33.8 9.78 34.7 10.22 35.14 10.52 35.44 11.41 36.33 12.31 37.08 13.2 37.82 14.09 38.57 15.14 39.31 16.33 39.91 17.52 40.5 18.71 41.25 19.9 41.69 21.24 42.29 22.58 42.74 23.92 43.18 25.41 43.63 26.9 43.93 28.24 44.23 29.88 44.38 31.37 44.67 32.86 44.67 34.35 44.82 35.99 44.82 37.48 44.82 38.97 44.67 40.45 44.67 42.09 44.38 43.58 44.23 45.07 43.93 46.41 43.63 47.9 43.18 49.24 42.74 50.58 42.29 51.92 41.69 53.11 41.25 54.3 40.5 55.5 39.91 56.69 39.31 57.73 38.57 58.62 37.82 59.67 37.08 60.41 36.33 61.3 35.44 62.05 34.7 62.35 34.25 62.64 33.8 63.24 33.06 63.84 32.16 64.28 31.27 64.58 30.38 65.03 29.63 65.33 28.74 65.47 27.84 65.62 26.95 65.77 26.21 65.77 25.31 65.77 24.42 65.62 23.67 65.47 22.78 65.33 21.89 65.03 20.99 64.58 20.25 64.28 19.36 63.84 18.46 63.24 17.72 62.64 16.82 62.05 15.93 61.6 15.63 61.3 15.19 60.86 14.74 60.41 14.29 59.67 13.55 58.62 12.8 57.73 12.06 56.69 11.31 55.5 10.72 54.3 10.12 53.11 9.53 51.92 8.93 50.58 8.34 49.24 7.89 47.9 7.44 46.41 7.14 45.07 6.7 43.58 6.4 42.09 6.25 40.45 6.1 38.97 5.95 37.48 5.8 35.99 5.8 34.35 5.8 32.86 5.95 31.37 6.1 29.88 6.25 28.24 6.4 26.9 6.7 25.41 7.14 23.92 7.44 22.58 7.89 21.24 8.34 19.9 8.93 18.71 9.53 17.52 10.12 16.33 10.72 15.14 11.31 14.09 12.06 13.2 12.8 12.31 13.55 11.41 14.29 10.97 14.74 10.52 15.19 10.22 15.63 9.78 15.93 9.18 16.82 8.58 17.72 7.99 18.46 7.54 19.36 7.24 20.25 6.8 20.99 6.65 21.89 6.35 22.78 6.2 23.67 6.2 24.42 6.05 25.31 6.05 25.31"/>
      <polygon class="cls-16" points="6.31 25.24 6.46 26.13 6.46 26.87 6.61 27.75 6.9 28.64 7.05 29.53 7.49 30.26 7.79 31.15 8.23 32.04 8.82 32.92 9.41 33.66 10 34.55 10.45 34.99 10.74 35.28 11.63 36.17 12.51 36.91 13.4 37.65 14.29 38.38 15.32 39.12 16.5 39.71 17.68 40.3 18.86 41.04 20.04 41.48 21.37 42.07 22.7 42.52 24.03 42.96 25.51 43.4 26.98 43.7 28.31 43.99 29.93 44.14 31.41 44.44 32.89 44.44 34.36 44.58 35.99 44.58 37.46 44.58 38.94 44.44 40.42 44.44 42.04 44.14 43.52 43.99 44.99 43.7 46.32 43.4 47.8 42.96 49.13 42.52 50.45 42.07 51.78 41.48 52.96 41.04 54.14 40.3 55.33 39.71 56.51 39.12 57.54 38.38 58.43 37.65 59.46 36.91 60.2 36.17 61.08 35.28 61.82 34.55 62.12 34.1 62.41 33.66 63 32.92 63.59 32.04 64.04 31.15 64.33 30.26 64.77 29.53 65.07 28.64 65.22 27.75 65.36 26.87 65.51 26.13 65.51 25.24 65.51 24.36 65.36 23.62 65.22 22.74 65.07 21.85 64.77 20.96 64.33 20.23 64.04 19.34 63.59 18.45 63 17.72 62.41 16.83 61.82 15.94 61.38 15.65 61.08 15.21 60.64 14.76 60.2 14.32 59.46 13.58 58.43 12.84 57.54 12.11 56.51 11.37 55.33 10.78 54.14 10.19 52.96 9.6 51.78 9.01 50.45 8.42 49.13 7.97 47.8 7.53 46.32 7.23 44.99 6.79 43.52 6.5 42.04 6.35 40.42 6.2 38.94 6.05 37.46 5.91 35.99 5.91 34.36 5.91 32.89 6.05 31.41 6.2 29.93 6.35 28.31 6.5 26.98 6.79 25.51 7.23 24.03 7.53 22.7 7.97 21.37 8.42 20.04 9.01 18.86 9.6 17.68 10.19 16.5 10.78 15.32 11.37 14.29 12.11 13.4 12.84 12.51 13.58 11.63 14.32 11.19 14.76 10.74 15.21 10.45 15.65 10 15.94 9.41 16.83 8.82 17.72 8.23 18.45 7.79 19.34 7.49 20.23 7.05 20.96 6.9 21.85 6.61 22.74 6.46 23.62 6.46 24.36 6.31 25.24 6.31 25.24"/>
      <polygon class="cls-29" points="6.57 25.18 6.72 26.05 6.72 26.79 6.87 27.66 7.16 28.54 7.31 29.42 7.75 30.15 8.04 31.03 8.48 31.91 9.06 32.79 9.65 33.52 10.23 34.4 10.67 34.83 10.96 35.13 11.84 36 12.72 36.74 13.6 37.47 14.48 38.2 15.5 38.93 16.67 39.52 17.84 40.1 19.01 40.83 20.18 41.27 21.5 41.86 22.82 42.3 24.13 42.74 25.6 43.17 27.06 43.47 28.38 43.76 29.99 43.91 31.45 44.2 32.91 44.2 34.38 44.35 35.99 44.35 37.45 44.35 38.91 44.2 40.38 44.2 41.99 43.91 43.45 43.76 44.91 43.47 46.23 43.17 47.69 42.74 49.01 42.3 50.33 41.86 51.64 41.27 52.81 40.83 53.98 40.1 55.15 39.52 56.32 38.93 57.35 38.2 58.23 37.47 59.25 36.74 59.98 36 60.86 35.13 61.59 34.4 61.89 33.96 62.18 33.52 62.76 32.79 63.35 31.91 63.79 31.03 64.08 30.15 64.52 29.42 64.81 28.54 64.96 27.66 65.1 26.79 65.25 26.05 65.25 25.18 65.25 24.3 65.1 23.57 64.96 22.69 64.81 21.81 64.52 20.93 64.08 20.2 63.79 19.32 63.35 18.45 62.76 17.71 62.18 16.84 61.59 15.96 61.15 15.67 60.86 15.23 60.42 14.79 59.98 14.35 59.25 13.62 58.23 12.89 57.35 12.15 56.32 11.42 55.15 10.84 53.98 10.25 52.81 9.67 51.64 9.08 50.33 8.5 49.01 8.06 47.69 7.62 46.23 7.33 44.91 6.89 43.45 6.59 41.99 6.45 40.38 6.3 38.91 6.15 37.45 6.01 35.99 6.01 34.38 6.01 32.91 6.15 31.45 6.3 29.99 6.45 28.38 6.59 27.06 6.89 25.6 7.33 24.13 7.62 22.82 8.06 21.5 8.5 20.18 9.08 19.01 9.67 17.84 10.25 16.67 10.84 15.5 11.42 14.48 12.15 13.6 12.89 12.72 13.62 11.84 14.35 11.4 14.79 10.96 15.23 10.67 15.67 10.23 15.96 9.65 16.84 9.06 17.71 8.48 18.45 8.04 19.32 7.75 20.2 7.31 20.93 7.16 21.81 6.87 22.69 6.72 23.57 6.72 24.3 6.57 25.18 6.57 25.18"/>
      <polygon class="cls-6" points="6.84 25.11 6.98 25.98 6.98 26.7 7.13 27.57 7.42 28.44 7.56 29.31 8 30.04 8.29 30.91 8.72 31.78 9.3 32.65 9.88 33.38 10.46 34.25 10.9 34.68 11.19 34.97 12.06 35.84 12.93 36.57 13.8 37.29 14.67 38.02 15.68 38.74 16.84 39.32 18 39.9 19.16 40.63 20.32 41.06 21.63 41.64 22.93 42.08 24.24 42.51 25.69 42.95 27.14 43.24 28.44 43.53 30.04 43.67 31.49 43.96 32.94 43.96 34.39 44.11 35.99 44.11 37.44 44.11 38.89 43.96 40.34 43.96 41.93 43.67 43.38 43.53 44.83 43.24 46.14 42.95 47.59 42.51 48.89 42.08 50.2 41.64 51.5 41.06 52.66 40.63 53.82 39.9 54.98 39.32 56.14 38.74 57.16 38.02 58.03 37.29 59.04 36.57 59.77 35.84 60.64 34.97 61.36 34.25 61.65 33.81 61.94 33.38 62.52 32.65 63.1 31.78 63.54 30.91 63.83 30.04 64.26 29.31 64.55 28.44 64.7 27.57 64.84 26.7 64.99 25.98 64.99 25.11 64.99 24.24 64.84 23.51 64.7 22.64 64.55 21.77 64.26 20.9 63.83 20.18 63.54 19.31 63.1 18.44 62.52 17.71 61.94 16.84 61.36 15.97 60.93 15.68 60.64 15.25 60.2 14.81 59.77 14.38 59.04 13.65 58.03 12.93 57.16 12.2 56.14 11.48 54.98 10.9 53.82 10.32 52.66 9.74 51.5 9.16 50.2 8.58 48.89 8.14 47.59 7.71 46.14 7.42 44.83 6.98 43.38 6.69 41.93 6.55 40.34 6.4 38.89 6.26 37.44 6.11 35.99 6.11 34.39 6.11 32.94 6.26 31.49 6.4 30.04 6.55 28.44 6.69 27.14 6.98 25.69 7.42 24.24 7.71 22.93 8.14 21.63 8.58 20.32 9.16 19.16 9.74 18 10.32 16.84 10.9 15.68 11.48 14.67 12.2 13.8 12.93 12.93 13.65 12.06 14.38 11.62 14.81 11.19 15.25 10.9 15.68 10.46 15.97 9.88 16.84 9.3 17.71 8.72 18.44 8.29 19.31 8 20.18 7.56 20.9 7.42 21.77 7.13 22.64 6.98 23.51 6.98 24.24 6.84 25.11 6.84 25.11"/>
      <polygon class="cls-17" points="7.1 25.04 7.24 25.9 7.24 26.62 7.38 27.48 7.67 28.35 7.81 29.21 8.25 29.93 8.53 30.79 8.96 31.65 9.54 32.51 10.11 33.23 10.69 34.1 11.12 34.53 11.41 34.81 12.27 35.68 13.13 36.39 14 37.11 14.86 37.83 15.86 38.55 17.01 39.13 18.16 39.7 19.31 40.42 20.46 40.85 21.76 41.43 23.05 41.86 24.34 42.29 25.78 42.72 27.22 43.01 28.51 43.29 30.09 43.44 31.53 43.72 32.97 43.72 34.4 43.87 35.98 43.87 37.42 43.87 38.86 43.72 40.3 43.72 41.88 43.44 43.31 43.29 44.75 43.01 46.05 42.72 47.48 42.29 48.78 41.86 50.07 41.43 51.36 40.85 52.51 40.42 53.66 39.7 54.81 39.13 55.96 38.55 56.97 37.83 57.83 37.11 58.84 36.39 59.55 35.68 60.42 34.81 61.14 34.1 61.42 33.66 61.71 33.23 62.29 32.51 62.86 31.65 63.29 30.79 63.58 29.93 64.01 29.21 64.3 28.35 64.44 27.48 64.59 26.62 64.73 25.9 64.73 25.04 64.73 24.18 64.59 23.46 64.44 22.6 64.3 21.74 64.01 20.87 63.58 20.15 63.29 19.29 62.86 18.43 62.29 17.71 61.71 16.85 61.14 15.99 60.7 15.7 60.42 15.27 59.99 14.84 59.55 14.41 58.84 13.69 57.83 12.97 56.97 12.25 55.96 11.53 54.81 10.96 53.66 10.38 52.51 9.81 51.36 9.23 50.07 8.66 48.78 8.23 47.48 7.79 46.05 7.51 44.75 7.08 43.31 6.79 41.88 6.64 40.3 6.5 38.86 6.36 37.42 6.21 35.98 6.21 34.4 6.21 32.97 6.36 31.53 6.5 30.09 6.64 28.51 6.79 27.22 7.08 25.78 7.51 24.34 7.79 23.05 8.23 21.76 8.66 20.46 9.23 19.31 9.81 18.16 10.38 17.01 10.96 15.86 11.53 14.86 12.25 14 12.97 13.13 13.69 12.27 14.41 11.84 14.84 11.41 15.27 11.12 15.7 10.69 15.99 10.11 16.85 9.54 17.71 8.96 18.43 8.53 19.29 8.25 20.15 7.81 20.87 7.67 21.74 7.38 22.6 7.24 23.46 7.24 24.18 7.1 25.04 7.1 25.04"/>
      <polygon class="cls-21" points="7.36 24.97 7.5 25.83 7.5 26.54 7.64 27.39 7.93 28.25 8.07 29.1 8.5 29.82 8.78 30.67 9.21 31.52 9.78 32.38 10.35 33.09 10.92 33.95 11.34 34.37 11.63 34.66 12.48 35.51 13.34 36.22 14.19 36.94 15.05 37.65 16.04 38.36 17.18 38.93 18.32 39.5 19.46 40.21 20.6 40.64 21.88 41.21 23.17 41.64 24.45 42.06 25.87 42.49 27.3 42.78 28.58 43.06 30.14 43.2 31.57 43.49 32.99 43.49 34.42 43.63 35.98 43.63 37.41 43.63 38.83 43.49 40.26 43.49 41.82 43.2 43.25 43.06 44.67 42.78 45.95 42.49 47.38 42.06 48.66 41.64 49.94 41.21 51.22 40.64 52.36 40.21 53.5 39.5 54.64 38.93 55.78 38.36 56.78 37.65 57.63 36.94 58.63 36.22 59.34 35.51 60.2 34.66 60.91 33.95 61.19 33.52 61.48 33.09 62.05 32.38 62.62 31.52 63.04 30.67 63.33 29.82 63.76 29.1 64.04 28.25 64.18 27.39 64.33 26.54 64.47 25.83 64.47 24.97 64.47 24.12 64.33 23.41 64.18 22.55 64.04 21.7 63.76 20.84 63.33 20.13 63.04 19.28 62.62 18.42 62.05 17.71 61.48 16.85 60.91 16 60.48 15.72 60.2 15.29 59.77 14.86 59.34 14.43 58.63 13.72 57.63 13.01 56.78 12.3 55.78 11.59 54.64 11.02 53.5 10.45 52.36 9.88 51.22 9.31 49.94 8.74 48.66 8.31 47.38 7.88 45.95 7.6 44.67 7.17 43.25 6.89 41.82 6.74 40.26 6.6 38.83 6.46 37.41 6.32 35.98 6.32 34.42 6.32 32.99 6.46 31.57 6.6 30.14 6.74 28.58 6.89 27.3 7.17 25.87 7.6 24.45 7.88 23.17 8.31 21.88 8.74 20.6 9.31 19.46 9.88 18.32 10.45 17.18 11.02 16.04 11.59 15.05 12.3 14.19 13.01 13.34 13.72 12.48 14.43 12.06 14.86 11.63 15.29 11.34 15.72 10.92 16 10.35 16.85 9.78 17.71 9.21 18.42 8.78 19.28 8.5 20.13 8.07 20.84 7.93 21.7 7.64 22.55 7.5 23.41 7.5 24.12 7.36 24.97 7.36 24.97"/>
      <polygon class="cls-10" points="7.62 24.9 7.76 25.75 7.76 26.46 7.9 27.3 8.18 28.15 8.32 29 8.75 29.7 9.03 30.55 9.45 31.4 10.02 32.24 10.58 32.95 11.15 33.8 11.57 34.22 11.85 34.5 12.7 35.35 13.55 36.05 14.39 36.76 15.24 37.46 16.23 38.17 17.36 38.73 18.48 39.3 19.61 40 20.74 40.43 22.01 40.99 23.28 41.42 24.55 41.84 25.96 42.26 27.37 42.54 28.64 42.83 30.2 42.97 31.61 43.25 33.02 43.25 34.43 43.39 35.98 43.39 37.39 43.39 38.81 43.25 40.22 43.25 41.77 42.97 43.18 42.83 44.59 42.54 45.86 42.26 47.27 41.84 48.54 41.42 49.81 40.99 51.08 40.43 52.21 40 53.34 39.3 54.47 38.73 55.6 38.17 56.59 37.46 57.43 36.76 58.42 36.05 59.13 35.35 59.97 34.5 60.68 33.8 60.96 33.37 61.24 32.95 61.81 32.24 62.37 31.4 62.8 30.55 63.08 29.7 63.5 29 63.78 28.15 63.92 27.3 64.07 26.46 64.21 25.75 64.21 24.9 64.21 24.06 64.07 23.35 63.92 22.51 63.78 21.66 63.5 20.81 63.08 20.11 62.8 19.26 62.37 18.41 61.81 17.71 61.24 16.86 60.68 16.01 60.26 15.73 59.97 15.31 59.55 14.89 59.13 14.46 58.42 13.76 57.43 13.05 56.59 12.35 55.6 11.64 54.47 11.07 53.34 10.51 52.21 9.95 51.08 9.38 49.81 8.82 48.54 8.39 47.27 7.97 45.86 7.69 44.59 7.26 43.18 6.98 41.77 6.84 40.22 6.7 38.81 6.56 37.39 6.42 35.98 6.42 34.43 6.42 33.02 6.56 31.61 6.7 30.2 6.84 28.64 6.98 27.37 7.26 25.96 7.69 24.55 7.97 23.28 8.39 22.01 8.82 20.74 9.38 19.61 9.95 18.48 10.51 17.36 11.07 16.23 11.64 15.24 12.35 14.39 13.05 13.55 13.76 12.7 14.46 12.27 14.89 11.85 15.31 11.57 15.73 11.15 16.01 10.58 16.86 10.02 17.71 9.45 18.41 9.03 19.26 8.75 20.11 8.32 20.81 8.18 21.66 7.9 22.51 7.76 23.35 7.76 24.06 7.62 24.9 7.62 24.9"/>
      <polygon class="cls-5" points="7.88 24.84 8.02 25.68 8.02 26.37 8.16 27.21 8.44 28.05 8.58 28.89 9 29.59 9.28 30.43 9.7 31.27 10.26 32.11 10.82 32.81 11.37 33.65 11.79 34.06 12.07 34.34 12.91 35.18 13.75 35.88 14.59 36.58 15.43 37.28 16.41 37.98 17.53 38.54 18.64 39.1 19.76 39.8 20.88 40.22 22.14 40.78 23.4 41.2 24.66 41.61 26.06 42.03 27.45 42.31 28.71 42.59 30.25 42.73 31.65 43.01 33.05 43.01 34.44 43.15 35.98 43.15 37.38 43.15 38.78 43.01 40.18 43.01 41.72 42.73 43.11 42.59 44.51 42.31 45.77 42.03 47.17 41.61 48.43 41.2 49.68 40.78 50.94 40.22 52.06 39.8 53.18 39.1 54.3 38.54 55.42 37.98 56.4 37.28 57.23 36.58 58.21 35.88 58.91 35.18 59.75 34.34 60.45 33.65 60.73 33.23 61.01 32.81 61.57 32.11 62.13 31.27 62.55 30.43 62.83 29.59 63.25 28.89 63.53 28.05 63.67 27.21 63.81 26.37 63.95 25.68 63.95 24.84 63.95 24 63.81 23.3 63.67 22.46 63.53 21.62 63.25 20.78 62.83 20.08 62.55 19.24 62.13 18.4 61.57 17.71 61.01 16.87 60.45 16.03 60.03 15.75 59.75 15.33 59.33 14.91 58.91 14.49 58.21 13.79 57.23 13.09 56.4 12.39 55.42 11.69 54.3 11.13 53.18 10.58 52.06 10.02 50.94 9.46 49.68 8.9 48.43 8.48 47.17 8.06 45.77 7.78 44.51 7.36 43.11 7.08 41.72 6.94 40.18 6.8 38.78 6.66 37.38 6.52 35.98 6.52 34.44 6.52 33.05 6.66 31.65 6.8 30.25 6.94 28.71 7.08 27.45 7.36 26.06 7.78 24.66 8.06 23.4 8.48 22.14 8.9 20.88 9.46 19.76 10.02 18.64 10.58 17.53 11.13 16.41 11.69 15.43 12.39 14.59 13.09 13.75 13.79 12.91 14.49 12.49 14.91 12.07 15.33 11.79 15.75 11.37 16.03 10.82 16.87 10.26 17.71 9.7 18.4 9.28 19.24 9 20.08 8.58 20.78 8.44 21.62 8.16 22.46 8.02 23.3 8.02 24 7.88 24.84 7.88 24.84"/>
      <polygon class="cls-23" points="8.14 24.77 8.28 25.6 8.28 26.29 8.42 27.12 8.69 27.95 8.83 28.79 9.25 29.48 9.52 30.31 9.94 31.14 10.49 31.97 11.05 32.66 11.6 33.5 12.02 33.91 12.3 34.19 13.13 35.02 13.96 35.71 14.79 36.4 15.62 37.1 16.59 37.79 17.7 38.34 18.81 38.9 19.91 39.59 21.02 40.01 22.27 40.56 23.52 40.98 24.76 41.39 26.15 41.81 27.53 42.08 28.78 42.36 30.3 42.5 31.69 42.78 33.07 42.78 34.46 42.91 35.98 42.91 37.37 42.91 38.75 42.78 40.14 42.78 41.66 42.5 43.05 42.36 44.43 42.08 45.68 41.81 47.06 41.39 48.31 40.98 49.56 40.56 50.8 40.01 51.91 39.59 53.02 38.9 54.13 38.34 55.24 37.79 56.21 37.1 57.04 36.4 58.01 35.71 58.7 35.02 59.53 34.19 60.22 33.5 60.5 33.08 60.78 32.66 61.33 31.97 61.88 31.14 62.3 30.31 62.58 29.48 62.99 28.79 63.27 27.95 63.41 27.12 63.55 26.29 63.69 25.6 63.69 24.77 63.69 23.94 63.55 23.24 63.41 22.41 63.27 21.58 62.99 20.75 62.58 20.06 62.3 19.23 61.88 18.4 61.33 17.7 60.78 16.87 60.22 16.04 59.81 15.76 59.53 15.35 59.11 14.93 58.7 14.52 58.01 13.83 57.04 13.13 56.21 12.44 55.24 11.75 54.13 11.19 53.02 10.64 51.91 10.09 50.8 9.53 49.56 8.98 48.31 8.56 47.06 8.15 45.68 7.87 44.43 7.45 43.05 7.18 41.66 7.04 40.14 6.9 38.75 6.76 37.37 6.62 35.98 6.62 34.46 6.62 33.07 6.76 31.69 6.9 30.3 7.04 28.78 7.18 27.53 7.45 26.15 7.87 24.76 8.15 23.52 8.56 22.27 8.98 21.02 9.53 19.91 10.09 18.81 10.64 17.7 11.19 16.59 11.75 15.62 12.44 14.79 13.13 13.96 13.83 13.13 14.52 12.71 14.93 12.3 15.35 12.02 15.76 11.6 16.04 11.05 16.87 10.49 17.7 9.94 18.4 9.52 19.23 9.25 20.06 8.83 20.75 8.69 21.58 8.42 22.41 8.28 23.24 8.28 23.94 8.14 24.77 8.14 24.77"/>
      <polygon class="cls-24" points="8.4 24.7 8.54 25.52 8.54 26.21 8.67 27.03 8.95 27.86 9.09 28.68 9.5 29.37 9.77 30.19 10.18 31.01 10.73 31.84 11.28 32.52 11.83 33.35 12.24 33.76 12.52 34.03 13.34 34.85 14.16 35.54 14.99 36.23 15.81 36.91 16.77 37.6 17.87 38.15 18.97 38.7 20.06 39.38 21.16 39.79 22.4 40.34 23.63 40.75 24.87 41.17 26.24 41.58 27.61 41.85 28.85 42.13 30.36 42.26 31.73 42.54 33.1 42.54 34.47 42.68 35.98 42.68 37.35 42.68 38.73 42.54 40.1 42.54 41.61 42.26 42.98 42.13 44.35 41.85 45.59 41.58 46.96 41.17 48.19 40.75 49.43 40.34 50.66 39.79 51.76 39.38 52.86 38.7 53.96 38.15 55.05 37.6 56.01 36.91 56.84 36.23 57.8 35.54 58.48 34.85 59.31 34.03 59.99 33.35 60.27 32.93 60.54 32.52 61.09 31.84 61.64 31.01 62.05 30.19 62.33 29.37 62.74 28.68 63.01 27.86 63.15 27.03 63.29 26.21 63.42 25.52 63.42 24.7 63.42 23.88 63.29 23.19 63.15 22.37 63.01 21.54 62.74 20.72 62.33 20.04 62.05 19.21 61.64 18.39 61.09 17.7 60.54 16.88 59.99 16.06 59.58 15.78 59.31 15.37 58.9 14.96 58.48 14.55 57.8 13.86 56.84 13.17 56.01 12.49 55.05 11.8 53.96 11.25 52.86 10.7 51.76 10.16 50.66 9.61 49.43 9.06 48.19 8.65 46.96 8.23 45.59 7.96 44.35 7.55 42.98 7.27 41.61 7.14 40.1 7 38.73 6.86 37.35 6.73 35.98 6.73 34.47 6.73 33.1 6.86 31.73 7 30.36 7.14 28.85 7.27 27.61 7.55 26.24 7.96 24.87 8.23 23.63 8.65 22.4 9.06 21.16 9.61 20.06 10.16 18.97 10.7 17.87 11.25 16.77 11.8 15.81 12.49 14.99 13.17 14.16 13.86 13.34 14.55 12.93 14.96 12.52 15.37 12.24 15.78 11.83 16.06 11.28 16.88 10.73 17.7 10.18 18.39 9.77 19.21 9.5 20.04 9.09 20.72 8.95 21.54 8.67 22.37 8.54 23.19 8.54 23.88 8.4 24.7 8.4 24.7"/>
      <polygon class="cls-12" points="8.66 24.63 8.8 25.45 8.8 26.13 8.93 26.94 9.21 27.76 9.34 28.57 9.75 29.25 10.02 30.07 10.43 30.88 10.97 31.7 11.52 32.38 12.06 33.2 12.47 33.6 12.74 33.87 13.55 34.69 14.37 35.37 15.19 36.05 16 36.73 16.95 37.41 18.04 37.95 19.13 38.5 20.21 39.18 21.3 39.58 22.52 40.13 23.75 40.53 24.97 40.94 26.33 41.35 27.69 41.62 28.91 41.89 30.41 42.03 31.77 42.3 33.13 42.3 34.49 42.44 35.98 42.44 37.34 42.44 38.7 42.3 40.06 42.3 41.55 42.03 42.91 41.89 44.27 41.62 45.49 41.35 46.85 40.94 48.08 40.53 49.3 40.13 50.52 39.58 51.61 39.18 52.7 38.5 53.79 37.95 54.87 37.41 55.82 36.73 56.64 36.05 57.59 35.37 58.27 34.69 59.09 33.87 59.77 33.2 60.04 32.79 60.31 32.38 60.85 31.7 61.4 30.88 61.8 30.07 62.08 29.25 62.48 28.57 62.76 27.76 62.89 26.94 63.03 26.13 63.16 25.45 63.16 24.63 63.16 23.82 63.03 23.14 62.89 22.32 62.76 21.51 62.48 20.69 62.08 20.01 61.8 19.2 61.4 18.38 60.85 17.7 60.31 16.89 59.77 16.07 59.36 15.8 59.09 15.39 58.68 14.98 58.27 14.57 57.59 13.9 56.64 13.22 55.82 12.54 54.87 11.86 53.79 11.31 52.7 10.77 51.61 10.23 50.52 9.68 49.3 9.14 48.08 8.73 46.85 8.32 45.49 8.05 44.27 7.64 42.91 7.37 41.55 7.24 40.06 7.1 38.7 6.96 37.34 6.83 35.98 6.83 34.49 6.83 33.13 6.96 31.77 7.1 30.41 7.24 28.91 7.37 27.69 7.64 26.33 8.05 24.97 8.32 23.75 8.73 22.52 9.14 21.3 9.68 20.21 10.23 19.13 10.77 18.04 11.31 16.95 11.86 16 12.54 15.19 13.22 14.37 13.9 13.55 14.57 13.15 14.98 12.74 15.39 12.47 15.8 12.06 16.07 11.52 16.89 10.97 17.7 10.43 18.38 10.02 19.2 9.75 20.01 9.34 20.69 9.21 21.51 8.93 22.32 8.8 23.14 8.8 23.82 8.66 24.63 8.66 24.63"/>
      <polygon class="cls-1" points="8.92 24.56 9.06 25.37 9.06 26.05 9.19 26.85 9.46 27.66 9.6 28.47 10 29.14 10.27 29.95 10.67 30.76 11.21 31.56 11.75 32.24 12.29 33.05 12.69 33.45 12.96 33.72 13.77 34.53 14.58 35.2 15.38 35.87 16.19 36.55 17.13 37.22 18.21 37.76 19.29 38.3 20.36 38.97 21.44 39.37 22.65 39.91 23.86 40.31 25.08 40.72 26.42 41.12 27.77 41.39 28.98 41.66 30.46 41.8 31.81 42.06 33.15 42.06 34.5 42.2 35.98 42.2 37.33 42.2 38.67 42.06 40.02 42.06 41.5 41.8 42.85 41.66 44.19 41.39 45.4 41.12 46.75 40.72 47.96 40.31 49.17 39.91 50.38 39.37 51.46 38.97 52.54 38.3 53.61 37.76 54.69 37.22 55.63 36.55 56.44 35.87 57.38 35.2 58.06 34.53 58.86 33.72 59.54 33.05 59.81 32.64 60.08 32.24 60.61 31.56 61.15 30.76 61.56 29.95 61.83 29.14 62.23 28.47 62.5 27.66 62.63 26.85 62.77 26.05 62.9 25.37 62.9 24.56 62.9 23.76 62.77 23.08 62.63 22.28 62.5 21.47 62.23 20.66 61.83 19.99 61.56 19.18 61.15 18.37 60.61 17.7 60.08 16.89 59.54 16.08 59.13 15.81 58.86 15.41 58.46 15.01 58.06 14.6 57.38 13.93 56.44 13.26 55.63 12.58 54.69 11.91 53.61 11.37 52.54 10.83 51.46 10.3 50.38 9.76 49.17 9.22 47.96 8.81 46.75 8.41 45.4 8.14 44.19 7.74 42.85 7.47 41.5 7.33 40.02 7.2 38.67 7.06 37.33 6.93 35.98 6.93 34.5 6.93 33.15 7.06 31.81 7.2 30.46 7.33 28.98 7.47 27.77 7.74 26.42 8.14 25.08 8.41 23.86 8.81 22.65 9.22 21.44 9.76 20.36 10.3 19.29 10.83 18.21 11.37 17.13 11.91 16.19 12.58 15.38 13.26 14.58 13.93 13.77 14.6 13.36 15.01 12.96 15.41 12.69 15.81 12.29 16.08 11.75 16.89 11.21 17.7 10.67 18.37 10.27 19.18 10 19.99 9.6 20.66 9.46 21.47 9.19 22.28 9.06 23.08 9.06 23.76 8.92 24.56 8.92 24.56"/>
      <polygon class="cls-25" points="9.18 24.5 9.32 25.3 9.32 25.96 9.45 26.76 9.72 27.56 9.85 28.36 10.25 29.03 10.52 29.83 10.92 30.63 11.45 31.43 11.98 32.1 12.52 32.9 12.92 33.3 13.18 33.56 13.98 34.36 14.78 35.03 15.58 35.69 16.38 36.36 17.32 37.03 18.38 37.56 19.45 38.09 20.51 38.76 21.58 39.16 22.78 39.69 23.98 40.09 25.18 40.49 26.51 40.89 27.85 41.16 29.05 41.43 30.51 41.56 31.85 41.83 33.18 41.83 34.51 41.96 35.98 41.96 37.31 41.96 38.65 41.83 39.98 41.83 41.45 41.56 42.78 41.43 44.11 41.16 45.31 40.89 46.64 40.49 47.84 40.09 49.04 39.69 50.24 39.16 51.31 38.76 52.38 38.09 53.44 37.56 54.51 37.03 55.44 36.36 56.24 35.69 57.18 35.03 57.84 34.36 58.64 33.56 59.31 32.9 59.58 32.5 59.84 32.1 60.38 31.43 60.91 30.63 61.31 29.83 61.58 29.03 61.98 28.36 62.24 27.56 62.38 26.76 62.51 25.96 62.64 25.3 62.64 24.5 62.64 23.7 62.51 23.03 62.38 22.23 62.24 21.43 61.98 20.63 61.58 19.96 61.31 19.16 60.91 18.36 60.38 17.7 59.84 16.9 59.31 16.1 58.91 15.83 58.64 15.43 58.24 15.03 57.84 14.63 57.18 13.96 56.24 13.3 55.44 12.63 54.51 11.96 53.44 11.43 52.38 10.9 51.31 10.36 50.24 9.83 49.04 9.3 47.84 8.9 46.64 8.5 45.31 8.23 44.11 7.83 42.78 7.57 41.45 7.43 39.98 7.3 38.65 7.17 37.31 7.03 35.98 7.03 34.51 7.03 33.18 7.17 31.85 7.3 30.51 7.43 29.05 7.57 27.85 7.83 26.51 8.23 25.18 8.5 23.98 8.9 22.78 9.3 21.58 9.83 20.51 10.36 19.45 10.9 18.38 11.43 17.32 11.96 16.38 12.63 15.58 13.3 14.78 13.96 13.98 14.63 13.58 15.03 13.18 15.43 12.92 15.83 12.52 16.1 11.98 16.9 11.45 17.7 10.92 18.36 10.52 19.16 10.25 19.96 9.85 20.63 9.72 21.43 9.45 22.23 9.32 23.03 9.32 23.7 9.18 24.5 9.18 24.5"/>
      <polygon class="cls-30" points="9.44 24.43 9.58 25.22 9.58 25.88 9.71 26.67 9.97 27.46 10.1 28.26 10.5 28.92 10.76 29.71 11.16 30.5 11.69 31.29 12.22 31.95 12.74 32.75 13.14 33.14 13.4 33.41 14.2 34.2 14.99 34.86 15.78 35.52 16.57 36.18 17.5 36.84 18.55 37.37 19.61 37.89 20.67 38.55 21.72 38.95 22.91 39.48 24.1 39.87 25.29 40.27 26.61 40.67 27.93 40.93 29.11 41.19 30.57 41.33 31.89 41.59 33.21 41.59 34.53 41.72 35.98 41.72 37.3 41.72 38.62 41.59 39.94 41.59 41.39 41.33 42.71 41.19 44.03 40.93 45.22 40.67 46.54 40.27 47.73 39.87 48.92 39.48 50.1 38.95 51.16 38.55 52.22 37.89 53.27 37.37 54.33 36.84 55.25 36.18 56.04 35.52 56.97 34.86 57.63 34.2 58.42 33.41 59.08 32.75 59.34 32.35 59.61 31.95 60.14 31.29 60.67 30.5 61.06 29.71 61.33 28.92 61.72 28.26 61.99 27.46 62.12 26.67 62.25 25.88 62.38 25.22 62.38 24.43 62.38 23.64 62.25 22.98 62.12 22.18 61.99 21.39 61.72 20.6 61.33 19.94 61.06 19.15 60.67 18.36 60.14 17.7 59.61 16.9 59.08 16.11 58.68 15.85 58.42 15.45 58.02 15.06 57.63 14.66 56.97 14 56.04 13.34 55.25 12.68 54.33 12.02 53.27 11.49 52.22 10.96 51.16 10.43 50.1 9.91 48.92 9.38 47.73 8.98 46.54 8.59 45.22 8.32 44.03 7.93 42.71 7.66 41.39 7.53 39.94 7.4 38.62 7.27 37.3 7.13 35.98 7.13 34.53 7.13 33.21 7.27 31.89 7.4 30.57 7.53 29.11 7.66 27.93 7.93 26.61 8.32 25.29 8.59 24.1 8.98 22.91 9.38 21.72 9.91 20.67 10.43 19.61 10.96 18.55 11.49 17.5 12.02 16.57 12.68 15.78 13.34 14.99 14 14.2 14.66 13.8 15.06 13.4 15.45 13.14 15.85 12.74 16.11 12.22 16.9 11.69 17.7 11.16 18.36 10.76 19.15 10.5 19.94 10.1 20.6 9.97 21.39 9.71 22.18 9.58 22.98 9.58 23.64 9.44 24.43 9.44 24.43"/>
      <polygon class="cls-27" points="9.7 24.36 9.84 25.14 9.84 25.8 9.97 26.58 10.23 27.37 10.36 28.15 10.75 28.8 11.01 29.59 11.4 30.37 11.93 31.16 12.45 31.81 12.97 32.6 13.36 32.99 13.63 33.25 14.41 34.03 15.19 34.69 15.98 35.34 16.76 35.99 17.68 36.65 18.72 37.17 19.77 37.69 20.82 38.35 21.86 38.74 23.04 39.26 24.21 39.65 25.39 40.05 26.7 40.44 28 40.7 29.18 40.96 30.62 41.09 31.93 41.35 33.23 41.35 34.54 41.48 35.98 41.48 37.29 41.48 38.59 41.35 39.9 41.35 41.34 41.09 42.64 40.96 43.95 40.7 45.13 40.44 46.43 40.05 47.61 39.65 48.79 39.26 49.96 38.74 51.01 38.35 52.06 37.69 53.1 37.17 54.15 36.65 55.06 35.99 55.85 35.34 56.76 34.69 57.41 34.03 58.2 33.25 58.85 32.6 59.11 32.2 59.38 31.81 59.9 31.16 60.42 30.37 60.81 29.59 61.07 28.8 61.47 28.15 61.73 27.37 61.86 26.58 61.99 25.8 62.12 25.14 62.12 24.36 62.12 23.58 61.99 22.92 61.86 22.14 61.73 21.35 61.47 20.57 61.07 19.92 60.81 19.13 60.42 18.35 59.9 17.69 59.38 16.91 58.85 16.13 58.46 15.86 58.2 15.47 57.81 15.08 57.41 14.69 56.76 14.03 55.85 13.38 55.06 12.73 54.15 12.07 53.1 11.55 52.06 11.03 51.01 10.5 49.96 9.98 48.79 9.46 47.61 9.07 46.43 8.67 45.13 8.41 43.95 8.02 42.64 7.76 41.34 7.63 39.9 7.5 38.59 7.37 37.29 7.24 35.98 7.24 34.54 7.24 33.23 7.37 31.93 7.5 30.62 7.63 29.18 7.76 28 8.02 26.7 8.41 25.39 8.67 24.21 9.07 23.04 9.46 21.86 9.98 20.82 10.5 19.77 11.03 18.72 11.55 17.68 12.07 16.76 12.73 15.98 13.38 15.19 14.03 14.41 14.69 14.02 15.08 13.63 15.47 13.36 15.86 12.97 16.13 12.45 16.91 11.93 17.69 11.4 18.35 11.01 19.13 10.75 19.92 10.36 20.57 10.23 21.35 9.97 22.14 9.84 22.92 9.84 23.58 9.7 24.36 9.7 24.36"/>
      <polygon class="cls-2" points="9.97 24.29 10.09 25.07 10.09 25.72 10.22 26.49 10.48 27.27 10.61 28.05 11 28.69 11.26 29.47 11.65 30.25 12.17 31.02 12.68 31.67 13.2 32.45 13.59 32.83 13.85 33.09 14.62 33.87 15.4 34.52 16.18 35.16 16.95 35.81 17.86 36.46 18.9 36.97 19.93 37.49 20.97 38.14 22 38.53 23.17 39.05 24.33 39.43 25.49 39.82 26.79 40.21 28.08 40.47 29.25 40.73 30.67 40.86 31.97 41.12 33.26 41.12 34.55 41.25 35.98 41.25 37.27 41.25 38.57 41.12 39.86 41.12 41.28 40.86 42.58 40.73 43.87 40.47 45.04 40.21 46.33 39.82 47.49 39.43 48.66 39.05 49.82 38.53 50.86 38.14 51.89 37.49 52.93 36.97 53.97 36.46 54.87 35.81 55.65 35.16 56.55 34.52 57.2 33.87 57.98 33.09 58.62 32.45 58.88 32.06 59.14 31.67 59.66 31.02 60.18 30.25 60.57 29.47 60.82 28.69 61.21 28.05 61.47 27.27 61.6 26.49 61.73 25.72 61.86 25.07 61.86 24.29 61.86 23.52 61.73 22.87 61.6 22.09 61.47 21.32 61.21 20.54 60.82 19.89 60.57 19.12 60.18 18.34 59.66 17.69 59.14 16.92 58.62 16.14 58.24 15.88 57.98 15.49 57.59 15.1 57.2 14.72 56.55 14.07 55.65 13.42 54.87 12.77 53.97 12.13 52.93 11.61 51.89 11.09 50.86 10.57 49.82 10.06 48.66 9.54 47.49 9.15 46.33 8.76 45.04 8.5 43.87 8.12 42.58 7.86 41.28 7.73 39.86 7.6 38.57 7.47 37.27 7.34 35.98 7.34 34.55 7.34 33.26 7.47 31.97 7.6 30.67 7.73 29.25 7.86 28.08 8.12 26.79 8.5 25.49 8.76 24.33 9.15 23.17 9.54 22 10.06 20.97 10.57 19.93 11.09 18.9 11.61 17.86 12.13 16.95 12.77 16.18 13.42 15.4 14.07 14.62 14.72 14.24 15.1 13.85 15.49 13.59 15.88 13.2 16.14 12.68 16.92 12.17 17.69 11.65 18.34 11.26 19.12 11 19.89 10.61 20.54 10.48 21.32 10.22 22.09 10.09 22.87 10.09 23.52 9.97 24.29 9.97 24.29"/>
      <polygon class="cls-9" points="10.23 24.22 10.35 24.99 10.35 25.63 10.48 26.4 10.74 27.17 10.87 27.94 11.25 28.58 11.51 29.35 11.89 30.12 12.4 30.89 12.92 31.53 13.43 32.3 13.81 32.68 14.07 32.94 14.84 33.7 15.61 34.34 16.38 34.99 17.14 35.63 18.04 36.27 19.07 36.78 20.09 37.29 21.12 37.93 22.14 38.32 23.29 38.83 24.45 39.21 25.6 39.6 26.88 39.98 28.16 40.24 29.31 40.49 30.72 40.62 32.01 40.88 33.29 40.88 34.57 41.01 35.98 41.01 37.26 41.01 38.54 40.88 39.82 40.88 41.23 40.62 42.51 40.49 43.79 40.24 44.94 39.98 46.23 39.6 47.38 39.21 48.53 38.83 49.68 38.32 50.71 37.93 51.73 37.29 52.76 36.78 53.78 36.27 54.68 35.63 55.45 34.99 56.35 34.34 56.99 33.7 57.76 32.94 58.4 32.3 58.65 31.91 58.91 31.53 59.42 30.89 59.93 30.12 60.32 29.35 60.57 28.58 60.96 27.94 61.21 27.17 61.34 26.4 61.47 25.63 61.6 24.99 61.6 24.22 61.6 23.46 61.47 22.81 61.34 22.05 61.21 21.28 60.96 20.51 60.57 19.87 60.32 19.1 59.93 18.33 59.42 17.69 58.91 16.92 58.4 16.15 58.01 15.9 57.76 15.51 57.37 15.13 56.99 14.74 56.35 14.1 55.45 13.46 54.68 12.82 53.78 12.18 52.76 11.67 51.73 11.16 50.71 10.64 49.68 10.13 48.53 9.62 47.38 9.24 46.23 8.85 44.94 8.59 43.79 8.21 42.51 7.95 41.23 7.83 39.82 7.7 38.54 7.57 37.26 7.44 35.98 7.44 34.57 7.44 33.29 7.57 32.01 7.7 30.72 7.83 29.31 7.95 28.16 8.21 26.88 8.59 25.6 8.85 24.45 9.24 23.29 9.62 22.14 10.13 21.12 10.64 20.09 11.16 19.07 11.67 18.04 12.18 17.14 12.82 16.38 13.46 15.61 14.1 14.84 14.74 14.45 15.13 14.07 15.51 13.81 15.9 13.43 16.15 12.92 16.92 12.4 17.69 11.89 18.33 11.51 19.1 11.25 19.87 10.87 20.51 10.74 21.28 10.48 22.05 10.35 22.81 10.35 23.46 10.23 24.22 10.23 24.22"/>
      <polygon class="cls-7" points="10.49 24.16 10.61 24.92 10.61 25.55 10.74 26.31 10.99 27.07 11.12 27.83 11.5 28.47 11.76 29.23 12.14 29.99 12.64 30.75 13.15 31.38 13.66 32.14 14.04 32.53 14.29 32.78 15.05 33.54 15.81 34.17 16.57 34.81 17.33 35.44 18.22 36.08 19.24 36.58 20.25 37.09 21.27 37.72 22.28 38.11 23.42 38.61 24.56 38.99 25.7 39.37 26.97 39.75 28.24 40.01 29.38 40.26 30.78 40.39 32.04 40.64 33.31 40.64 34.58 40.77 35.98 40.77 37.24 40.77 38.51 40.64 39.78 40.64 41.18 40.39 42.44 40.26 43.71 40.01 44.85 39.75 46.12 39.37 47.26 38.99 48.4 38.61 49.54 38.11 50.56 37.72 51.57 37.09 52.59 36.58 53.6 36.08 54.49 35.44 55.25 34.81 56.14 34.17 56.77 33.54 57.53 32.78 58.17 32.14 58.42 31.76 58.67 31.38 59.18 30.75 59.69 29.99 60.07 29.23 60.32 28.47 60.7 27.83 60.96 27.07 61.08 26.31 61.21 25.55 61.34 24.92 61.34 24.16 61.34 23.4 61.21 22.76 61.08 22 60.96 21.24 60.7 20.48 60.32 19.84 60.07 19.08 59.69 18.32 59.18 17.69 58.67 16.93 58.17 16.17 57.79 15.91 57.53 15.53 57.15 15.15 56.77 14.77 56.14 14.14 55.25 13.5 54.49 12.87 53.6 12.24 52.59 11.73 51.57 11.22 50.56 10.71 49.54 10.21 48.4 9.7 47.26 9.32 46.12 8.94 44.85 8.69 43.71 8.3 42.44 8.05 41.18 7.92 39.78 7.8 38.51 7.67 37.24 7.54 35.98 7.54 34.58 7.54 33.31 7.67 32.04 7.8 30.78 7.92 29.38 8.05 28.24 8.3 26.97 8.69 25.7 8.94 24.56 9.32 23.42 9.7 22.28 10.21 21.27 10.71 20.25 11.22 19.24 11.73 18.22 12.24 17.33 12.87 16.57 13.5 15.81 14.14 15.05 14.77 14.67 15.15 14.29 15.53 14.04 15.91 13.66 16.17 13.15 16.93 12.64 17.69 12.14 18.32 11.76 19.08 11.5 19.84 11.12 20.48 10.99 21.24 10.74 22 10.61 22.76 10.61 23.4 10.49 24.16 10.49 24.16"/>
      <polygon class="cls-19" points="10.75 24.09 10.87 24.84 10.87 25.47 11 26.22 11.25 26.97 11.38 27.73 11.75 28.36 12 29.11 12.38 29.86 12.88 30.61 13.38 31.24 13.89 31.99 14.26 32.37 14.51 32.62 15.27 33.38 16.02 34 16.77 34.63 17.53 35.26 18.4 35.89 19.41 36.39 20.41 36.89 21.42 37.52 22.42 37.89 23.55 38.4 24.68 38.77 25.81 39.15 27.06 39.53 28.32 39.78 29.45 40.03 30.83 40.15 32.08 40.4 33.34 40.4 34.59 40.53 35.98 40.53 37.23 40.53 38.49 40.4 39.74 40.4 41.12 40.15 42.38 40.03 43.63 39.78 44.76 39.53 46.02 39.15 47.15 38.77 48.28 38.4 49.4 37.89 50.41 37.52 51.41 36.89 52.42 36.39 53.42 35.89 54.3 35.26 55.05 34.63 55.93 34 56.56 33.38 57.31 32.62 57.94 31.99 58.19 31.62 58.44 31.24 58.94 30.61 59.45 29.86 59.82 29.11 60.07 28.36 60.45 27.73 60.7 26.97 60.83 26.22 60.95 25.47 61.08 24.84 61.08 24.09 61.08 23.33 60.95 22.71 60.83 21.95 60.7 21.2 60.45 20.45 60.07 19.82 59.82 19.07 59.45 18.31 58.94 17.69 58.44 16.93 57.94 16.18 57.56 15.93 57.31 15.55 56.94 15.18 56.56 14.8 55.93 14.17 55.05 13.55 54.3 12.92 53.42 12.29 52.42 11.79 51.41 11.29 50.41 10.78 49.4 10.28 48.28 9.78 47.15 9.4 46.02 9.03 44.76 8.78 43.63 8.4 42.38 8.15 41.12 8.02 39.74 7.9 38.49 7.77 37.23 7.65 35.98 7.65 34.59 7.65 33.34 7.77 32.08 7.9 30.83 8.02 29.45 8.15 28.32 8.4 27.06 8.78 25.81 9.03 24.68 9.4 23.55 9.78 22.42 10.28 21.42 10.78 20.41 11.29 19.41 11.79 18.4 12.29 17.53 12.92 16.77 13.55 16.02 14.17 15.27 14.8 14.89 15.18 14.51 15.55 14.26 15.93 13.89 16.18 13.38 16.93 12.88 17.69 12.38 18.31 12 19.07 11.75 19.82 11.38 20.45 11.25 21.2 11 21.95 10.87 22.71 10.87 23.33 10.75 24.09 10.75 24.09"/>
      <polygon class="cls-20" points="11.01 24.02 11.13 24.77 11.13 25.39 11.26 26.13 11.51 26.88 11.63 27.62 12 28.24 12.25 28.99 12.62 29.73 13.12 30.48 13.62 31.1 14.11 31.84 14.49 32.22 14.74 32.47 15.48 33.21 16.23 33.83 16.97 34.45 17.72 35.07 18.59 35.7 19.58 36.19 20.57 36.69 21.57 37.31 22.56 37.68 23.68 38.18 24.8 38.55 25.91 38.92 27.16 39.3 28.4 39.55 29.52 39.79 30.88 39.92 32.12 40.17 33.37 40.17 34.61 40.29 35.97 40.29 37.22 40.29 38.46 40.17 39.7 40.17 41.07 39.92 42.31 39.79 43.55 39.55 44.67 39.3 45.91 38.92 47.03 38.55 48.15 38.18 49.26 37.68 50.26 37.31 51.25 36.69 52.25 36.19 53.24 35.7 54.11 35.07 54.85 34.45 55.72 33.83 56.34 33.21 57.09 32.47 57.71 31.84 57.96 31.47 58.21 31.1 58.7 30.48 59.2 29.73 59.57 28.99 59.82 28.24 60.2 27.62 60.44 26.88 60.57 26.13 60.69 25.39 60.82 24.77 60.82 24.02 60.82 23.27 60.69 22.65 60.57 21.91 60.44 21.16 60.2 20.42 59.82 19.8 59.57 19.05 59.2 18.31 58.7 17.69 58.21 16.94 57.71 16.19 57.34 15.95 57.09 15.57 56.72 15.2 56.34 14.83 55.72 14.21 54.85 13.59 54.11 12.97 53.24 12.34 52.25 11.85 51.25 11.35 50.26 10.85 49.26 10.36 48.15 9.86 47.03 9.49 45.91 9.12 44.67 8.87 43.55 8.49 42.31 8.25 41.07 8.12 39.7 8 38.46 7.87 37.22 7.75 35.97 7.75 34.61 7.75 33.37 7.87 32.12 8 30.88 8.12 29.52 8.25 28.4 8.49 27.16 8.87 25.91 9.12 24.8 9.49 23.68 9.86 22.56 10.36 21.57 10.85 20.57 11.35 19.58 11.85 18.59 12.34 17.72 12.97 16.97 13.59 16.23 14.21 15.48 14.83 15.11 15.2 14.74 15.57 14.49 15.95 14.11 16.19 13.62 16.94 13.12 17.69 12.62 18.31 12.25 19.05 12 19.8 11.63 20.42 11.51 21.16 11.26 21.91 11.13 22.65 11.13 23.27 11.01 24.02 11.01 24.02"/>
      <polygon class="cls-4" points="11.27 23.95 11.39 24.69 11.39 25.3 11.52 26.04 11.76 26.78 11.88 27.52 12.25 28.13 12.5 28.87 12.87 29.61 13.36 30.34 13.85 30.96 14.34 31.69 14.71 32.06 14.96 32.31 15.69 33.05 16.43 33.66 17.17 34.28 17.91 34.89 18.77 35.5 19.75 36 20.73 36.49 21.72 37.1 22.7 37.47 23.81 37.96 24.91 38.33 26.02 38.7 27.25 39.07 28.48 39.32 29.58 39.56 30.93 39.68 32.16 39.93 33.39 39.93 34.62 40.05 35.97 40.05 37.2 40.05 38.43 39.93 39.66 39.93 41.01 39.68 42.24 39.56 43.47 39.32 44.58 39.07 45.81 38.7 46.91 38.33 48.02 37.96 49.13 37.47 50.11 37.1 51.09 36.49 52.07 36 53.06 35.5 53.92 34.89 54.66 34.28 55.52 33.66 56.13 33.05 56.87 32.31 57.48 31.69 57.73 31.33 57.97 30.96 58.47 30.34 58.96 29.61 59.33 28.87 59.57 28.13 59.94 27.52 60.19 26.78 60.31 26.04 60.43 25.3 60.56 24.69 60.56 23.95 60.56 23.21 60.43 22.6 60.31 21.86 60.19 21.12 59.94 20.39 59.57 19.77 59.33 19.04 58.96 18.3 58.47 17.68 57.97 16.95 57.48 16.21 57.11 15.96 56.87 15.59 56.5 15.23 56.13 14.86 55.52 14.24 54.66 13.63 53.92 13.01 53.06 12.4 52.07 11.91 51.09 11.42 50.11 10.92 49.13 10.43 48.02 9.94 46.91 9.57 45.81 9.2 44.58 8.96 43.47 8.59 42.24 8.34 41.01 8.22 39.66 8.1 38.43 7.97 37.2 7.85 35.97 7.85 34.62 7.85 33.39 7.97 32.16 8.1 30.93 8.22 29.58 8.34 28.48 8.59 27.25 8.96 26.02 9.2 24.91 9.57 23.81 9.94 22.7 10.43 21.72 10.92 20.73 11.42 19.75 11.91 18.77 12.4 17.91 13.01 17.17 13.63 16.43 14.24 15.69 14.86 15.33 15.23 14.96 15.59 14.71 15.96 14.34 16.21 13.85 16.95 13.36 17.68 12.87 18.3 12.5 19.04 12.25 19.77 11.88 20.39 11.76 21.12 11.52 21.86 11.39 22.6 11.39 23.21 11.27 23.95 11.27 23.95"/>
      <polygon class="cls-31" points="11.53 23.88 11.65 24.61 11.65 25.22 11.77 25.95 12.02 26.68 12.14 27.41 12.5 28.02 12.75 28.75 13.11 29.48 13.6 30.21 14.08 30.82 14.57 31.54 14.94 31.91 15.18 32.15 15.91 32.88 16.64 33.49 17.37 34.1 18.1 34.71 18.95 35.31 19.92 35.8 20.89 36.29 21.87 36.9 22.84 37.26 23.93 37.75 25.03 38.11 26.12 38.48 27.34 38.84 28.56 39.08 29.65 39.33 30.99 39.45 32.2 39.69 33.42 39.69 34.64 39.81 35.97 39.81 37.19 39.81 38.41 39.69 39.62 39.69 40.96 39.45 42.18 39.33 43.39 39.08 44.49 38.84 45.7 38.48 46.8 38.11 47.89 37.75 48.99 37.26 49.96 36.9 50.93 36.29 51.9 35.8 52.88 35.31 53.73 34.71 54.46 34.1 55.31 33.49 55.92 32.88 56.65 32.15 57.25 31.54 57.5 31.18 57.74 30.82 58.23 30.21 58.71 29.48 59.08 28.75 59.32 28.02 59.69 27.41 59.93 26.68 60.05 25.95 60.17 25.22 60.29 24.61 60.29 23.88 60.29 23.15 60.17 22.55 60.05 21.82 59.93 21.09 59.69 20.36 59.32 19.75 59.08 19.02 58.71 18.29 58.23 17.68 57.74 16.95 57.25 16.22 56.89 15.98 56.65 15.61 56.28 15.25 55.92 14.88 55.31 14.28 54.46 13.67 53.73 13.06 52.88 12.45 51.9 11.97 50.93 11.48 49.96 10.99 48.99 10.51 47.89 10.02 46.8 9.66 45.7 9.29 44.49 9.05 43.39 8.68 42.18 8.44 40.96 8.32 39.62 8.2 38.41 8.07 37.19 7.95 35.97 7.95 34.64 7.95 33.42 8.07 32.2 8.2 30.99 8.32 29.65 8.44 28.56 8.68 27.34 9.05 26.12 9.29 25.03 9.66 23.93 10.02 22.84 10.51 21.87 10.99 20.89 11.48 19.92 11.97 18.95 12.45 18.1 13.06 17.37 13.67 16.64 14.28 15.91 14.88 15.54 15.25 15.18 15.61 14.94 15.98 14.57 16.22 14.08 16.95 13.6 17.68 13.11 18.29 12.75 19.02 12.5 19.75 12.14 20.36 12.02 21.09 11.77 21.82 11.65 22.55 11.65 23.15 11.53 23.88 11.53 23.88"/>
      <polygon class="cls-18" points="11.79 23.82 11.91 24.54 11.91 25.14 12.03 25.86 12.27 26.58 12.39 27.3 12.75 27.91 12.99 28.63 13.36 29.35 13.84 30.07 14.32 30.67 14.8 31.39 15.16 31.76 15.4 32 16.12 32.72 16.84 33.32 17.57 33.92 18.29 34.52 19.13 35.12 20.09 35.61 21.05 36.09 22.02 36.69 22.98 37.05 24.06 37.53 25.15 37.89 26.23 38.25 27.43 38.61 28.63 38.85 29.72 39.09 31.04 39.21 32.24 39.46 33.45 39.46 34.65 39.58 35.97 39.58 37.18 39.58 38.38 39.46 39.58 39.46 40.91 39.21 42.11 39.09 43.31 38.85 44.39 38.61 45.6 38.25 46.68 37.89 47.76 37.53 48.85 37.05 49.81 36.69 50.77 36.09 51.73 35.61 52.7 35.12 53.54 34.52 54.26 33.92 55.1 33.32 55.7 32.72 56.42 32 57.03 31.39 57.27 31.03 57.51 30.67 57.99 30.07 58.47 29.35 58.83 28.63 59.07 27.91 59.43 27.3 59.67 26.58 59.79 25.86 59.91 25.14 60.03 24.54 60.03 23.82 60.03 23.09 59.91 22.49 59.79 21.77 59.67 21.05 59.43 20.33 59.07 19.73 58.83 19 58.47 18.28 57.99 17.68 57.51 16.96 57.03 16.24 56.67 16 56.42 15.63 56.06 15.27 55.7 14.91 55.1 14.31 54.26 13.71 53.54 13.11 52.7 12.51 51.73 12.03 50.77 11.54 49.81 11.06 48.85 10.58 47.76 10.1 46.68 9.74 45.6 9.38 44.39 9.14 43.31 8.78 42.11 8.54 40.91 8.42 39.58 8.3 38.38 8.18 37.18 8.06 35.97 8.06 34.65 8.06 33.45 8.18 32.24 8.3 31.04 8.42 29.72 8.54 28.63 8.78 27.43 9.14 26.23 9.38 25.15 9.74 24.06 10.1 22.98 10.58 22.02 11.06 21.05 11.54 20.09 12.03 19.13 12.51 18.29 13.11 17.57 13.71 16.84 14.31 16.12 14.91 15.76 15.27 15.4 15.63 15.16 16 14.8 16.24 14.32 16.96 13.84 17.68 13.36 18.28 12.99 19 12.75 19.73 12.39 20.33 12.27 21.05 12.03 21.77 11.91 22.49 11.91 23.09 11.79 23.82 11.79 23.82"/>
      <polygon class="cls-3" points="12.05 23.75 12.17 24.46 12.17 25.06 12.29 25.77 12.53 26.48 12.65 27.2 13 27.79 13.24 28.51 13.6 29.22 14.08 29.94 14.55 30.53 15.03 31.24 15.38 31.6 15.62 31.84 16.34 32.55 17.05 33.15 17.76 33.74 18.48 34.34 19.31 34.93 20.26 35.41 21.22 35.89 22.17 36.48 23.12 36.84 24.19 37.31 25.26 37.67 26.33 38.03 27.52 38.38 28.71 38.62 29.78 38.86 31.09 38.98 32.28 39.22 33.47 39.22 34.66 39.34 35.97 39.34 37.16 39.34 38.35 39.22 39.54 39.22 40.85 38.98 42.04 38.86 43.23 38.62 44.3 38.38 45.49 38.03 46.56 37.67 47.63 37.31 48.71 36.84 49.66 36.48 50.61 35.89 51.56 35.41 52.51 34.93 53.35 34.34 54.06 33.74 54.89 33.15 55.49 32.55 56.2 31.84 56.8 31.24 57.04 30.89 57.27 30.53 57.75 29.94 58.23 29.22 58.58 28.51 58.82 27.79 59.18 27.2 59.42 26.48 59.53 25.77 59.65 25.06 59.77 24.46 59.77 23.75 59.77 23.03 59.65 22.44 59.53 21.72 59.42 21.01 59.18 20.3 58.82 19.7 58.58 18.99 58.23 18.27 57.75 17.68 57.27 16.96 56.8 16.25 56.44 16.01 56.2 15.66 55.85 15.3 55.49 14.94 54.89 14.35 54.06 13.75 53.35 13.16 52.51 12.56 51.56 12.09 50.61 11.61 49.66 11.13 48.71 10.66 47.63 10.18 46.56 9.82 45.49 9.47 44.3 9.23 43.23 8.87 42.04 8.63 40.85 8.51 39.54 8.4 38.35 8.28 37.16 8.16 35.97 8.16 34.66 8.16 33.47 8.28 32.28 8.4 31.09 8.51 29.78 8.63 28.71 8.87 27.52 9.23 26.33 9.47 25.26 9.82 24.19 10.18 23.12 10.66 22.17 11.13 21.22 11.61 20.26 12.09 19.31 12.56 18.48 13.16 17.76 13.75 17.05 14.35 16.34 14.94 15.98 15.3 15.62 15.66 15.38 16.01 15.03 16.25 14.55 16.96 14.08 17.68 13.6 18.27 13.24 18.99 13 19.7 12.65 20.3 12.53 21.01 12.29 21.72 12.17 22.44 12.17 23.03 12.05 23.75 12.05 23.75"/>
    </g>
    <g>
      <g>
        <path class="cls-3" d="m70.63,19.98l.24.62.15.91.15.91.15.91.15.91v2.87l-.15.91-.15.91-.15.91-.3.91-.3.76-.3.91-.45.91-.45.91-.45.76-.45.91-.6.75-.6.91-.6.75-.6.76-.75.75-.75.75-.75.75-.91.6-.91.76-.91.6-.91.6-.91.6-1.06.6-1.06.6-1.06.6-1.06.45-1.06.45-1.21.45-1.06.45-1.21.3-1.21.45-1.21.3-1.21.3-1.21.15-1.21.3-1.36.15-1.21.15-1.36.15-1.21.15h-1.36l-1.21.15h-1.36l-1.21-.15h-1.36l-1.21-.15-1.36-.15-1.21-.15-1.36-.15-1.21-.3-1.21-.15-1.21-.3-1.21-.3-1.21-.45-1.21-.3-1.06-.45-1.21-.45-1.06-.45-1.06-.45-1.06-.6-1.06-.6-1.06-.6-.91-.6-.91-.6-.91-.6-.91-.76-.75-.6-.91-.75-.75-.75-.75-.75-.6-.76-.6-.75-.6-.91-.6-.75-.45-.91-.45-.76-.45-.91-.45-.91-.3-.91-.3-.76-.3-.91-.15-.91-.15-.91-.15-.91v-2.87l.15-.91.15-.91.15-.91.15-.91.25-.62L7.15.36h57.53l5.95,19.62Zm-4.44,6.35v-1.81l-.15-.75-.15-.91-.15-.91-.3-.91-.45-.75-.3-.91-.45-.91-.6-.75-.6-.91-.6-.91-.45-.3-.3-.45-.45-.45-.45-.45-.75-.75-1.06-.76-.91-.75-1.06-.75-1.21-.6-1.21-.6-1.21-.6-1.21-.6-1.36-.6-1.36-.45-1.36-.45-1.51-.3-1.36-.45-1.51-.3-1.51-.15-1.66-.15-1.51-.15-1.51-.15h-3.17l-1.51.15-1.51.15-1.51.15-1.66.15-1.36.3-1.51.45-1.51.3-1.36.45-1.36.45-1.36.6-1.21.6-1.21.6-1.21.6-1.21.6-1.06.75-.91.75-.91.76-.91.75-.45.45-.45.45-.3.45-.45.3-.6.91-.6.91-.6.75-.45.91-.3.91-.45.75-.15.91-.3.91-.15.91v.75l-.15.91.15.91v.75l.15.91.3.91.15.91.45.75.3.91.45.91.6.91.6.75.6.91.45.45.3.3.91.91.91.75.91.75.91.76,1.06.75,1.21.6,1.21.6,1.21.75,1.21.45,1.36.6,1.36.45,1.36.45,1.51.45,1.51.3,1.36.3,1.66.15,1.51.3h1.51l1.51.15h3.17l1.51-.15h1.51l1.66-.3,1.51-.15,1.51-.3,1.36-.3,1.51-.45,1.36-.45,1.36-.45,1.36-.6,1.21-.45,1.21-.75,1.21-.6,1.21-.6,1.06-.75.91-.76,1.06-.75.75-.75.91-.91.76-.75.3-.45.3-.45.6-.75.6-.91.45-.91.3-.91.45-.75.3-.91.15-.91.15-.91.15-.75ZM45.05,3c0-.72-.58-1.28-1.28-1.28s-1.28.57-1.28,1.28.57,1.28,1.28,1.28,1.28-.58,1.28-1.28Zm-7.7,0c0-.72-.58-1.28-1.28-1.28s-1.28.57-1.28,1.28.57,1.28,1.28,1.28,1.28-.58,1.28-1.28Zm-8.3,0c0-.72-.58-1.28-1.28-1.28s-1.28.57-1.28,1.28.57,1.28,1.28,1.28,1.28-.58,1.28-1.28Z"/>
        <circle class="cls-13" cx="43.77" cy="3" r="1.28"/>
        <path class="cls-22" d="m36.07,9.12c2.2,0,4,1.79,4,4s-1.8,4-4,4-4-1.8-4-4,1.79-4,4-4Zm2.19,4c0-1.21-.98-2.19-2.19-2.19s-2.19.98-2.19,2.19.97,2.19,2.19,2.19,2.19-.98,2.19-2.19Z"/>
        <circle class="cls-14" cx="27.76" cy="3" r="1.28"/>
      </g>
      <g>
        <path class="cls-26" d="m35.24,51l-1.25-.15h-1.31s-5.17-.6-5.17-.6l-1.26-.31-1.17-.14-2.46-.61-1.25-.47-1.17-.29-1.11-.47-1.19-.45-2.13-.91-3.21-1.83-2.74-1.82-2.6-2.14-1.53-1.53-1.23-1.54-.62-.93-.59-.73-.49-.97-.44-.73-.92-1.84-.93-2.61L0,27.14v-2.93s.6-3.68.6-3.68l.32-.82c.07-.19.27-.29.46-.21.19.07.28.27.21.46l-.31.77-.58,3.55v2.81s.45,2.66.45,2.66l.89,2.51.89,1.77.44.73.47.93.56.69.62.93,1.19,1.49,1.48,1.48,2.54,2.09,2.69,1.79,3.15,1.8,2.08.89,1.19.45,1.07.46,1.15.28,1.25.47,2.38.59,1.17.14,1.25.31,5.09.6h1.31s1.25.15,1.25.15h1.31s1.16-.15,1.16-.15h1.4s5.09-.6,5.09-.6l1.16-.29,1.25-.16,2.37-.6,1.17-.44,1.25-.31,1-.43,1.22-.46,2.1-.9,3.13-1.79,2.7-1.8.88-.73.94-.63,2.21-2.22,1.18-1.48.59-.88.62-.78.41-.84.47-.78.89-1.79.28-.86.31-.77.3-.89.44-2.66v-2.81s-.6-3.56-.6-3.56l-.27-.67c-.08-.18,0-.39.18-.48.18-.08.39,0,.48.18l.31.77.62,3.69v2.93s-.45,2.78-.45,2.78l-.32.96-.31.77-.29.89-.93,1.86-.47.78-.44.88-.64.82-.59.88-1.23,1.53-2.29,2.29-.96.65-.88.73-2.75,1.83-3.19,1.83-2.15.92-1.22.46-1.04.45-1.26.32-1.17.44-2.45.62-1.25.16-1.16.29-5.18.61h-1.4s-1.16.15-1.16.15h-1.4Z"/>
        <polygon class="cls-28" points="5.64 25.42 5.8 26.33 5.8 27.09 5.95 27.99 6.25 28.9 6.4 29.8 6.85 30.56 7.15 31.46 7.61 32.37 8.21 33.28 8.82 34.03 9.42 34.94 9.87 35.39 10.17 35.69 11.08 36.6 11.99 37.35 12.89 38.11 13.8 38.86 14.85 39.62 16.06 40.22 17.27 40.82 18.48 41.58 19.69 42.03 21.05 42.64 22.4 43.09 23.76 43.54 25.27 44 26.78 44.3 28.14 44.6 29.8 44.75 31.31 45.05 32.82 45.05 34.33 45.2 35.99 45.2 37.5 45.2 39.01 45.05 40.52 45.05 42.18 44.75 43.69 44.6 45.2 44.3 46.56 44 48.07 43.54 49.43 43.09 50.79 42.64 52.15 42.03 53.36 41.58 54.56 40.82 55.77 40.22 56.98 39.62 58.04 38.86 58.94 38.11 60 37.35 60.76 36.6 61.66 35.69 62.42 34.94 62.72 34.48 63.02 34.03 63.62 33.28 64.23 32.37 64.68 31.46 64.98 30.56 65.44 29.8 65.74 28.9 65.89 27.99 66.04 27.09 66.19 26.33 66.19 25.42 66.19 24.52 66.04 23.76 65.89 22.86 65.74 21.95 65.44 21.05 64.98 20.29 64.68 19.38 64.23 18.48 63.62 17.72 63.02 16.82 62.42 15.91 61.96 15.61 61.66 15.16 61.21 14.7 60.76 14.25 60 13.5 58.94 12.74 58.04 11.99 56.98 11.23 55.77 10.63 54.56 10.02 53.36 9.42 52.15 8.82 50.79 8.21 49.43 7.76 48.07 7.31 46.56 7 45.2 6.55 43.69 6.25 42.18 6.1 40.52 5.95 39.01 5.8 37.5 5.64 35.99 5.64 34.33 5.64 32.82 5.8 31.31 5.95 29.8 6.1 28.14 6.25 26.78 6.55 25.27 7 23.76 7.31 22.4 7.76 21.05 8.21 19.69 8.82 18.48 9.42 17.27 10.02 16.06 10.63 14.85 11.23 13.8 11.99 12.89 12.74 11.99 13.5 11.08 14.25 10.63 14.7 10.17 15.16 9.87 15.61 9.42 15.91 8.82 16.82 8.21 17.72 7.61 18.48 7.15 19.38 6.85 20.29 6.4 21.05 6.25 21.95 5.95 22.86 5.8 23.76 5.8 24.52 5.64 25.42"/>
        <path class="cls-28" d="m36.07,10.93c-1.22,0-2.19.98-2.19,2.19s.97,2.19,2.19,2.19,2.19-.98,2.19-2.19-.98-2.19-2.19-2.19Z"/>
        <circle class="cls-28" cx="36.07" cy="13.12" r="4"/>
        <path class="cls-26" d="m1.11,20.65s-.07,0-.11-.02c-.19-.06-.29-.26-.23-.45l.1-.32L6.81.26c.05-.15.19-.26.34-.26h57.53c.16,0,.3.1.34.26l6.04,19.94c.05.19-.06.39-.25.44-.19.05-.39-.06-.44-.25l-.09-.32L64.41.72H7.42L1.46,20.4c-.05.15-.19.25-.34.25Z"/>
        <circle class="cls-28" cx="36.07" cy="3" r="1.28"/>
        <circle class="cls-28" cx="43.77" cy="3" r="1.28"/>
        <circle class="cls-28" cx="27.76" cy="3" r="1.28"/>
      </g>
    </g>
  </g>
</svg>