<?xml version="1.0" encoding="UTF-8"?>
<svg xmlns="http://www.w3.org/2000/svg" xmlns:xlink="http://www.w3.org/1999/xlink" viewBox="0 0 62.26 95.78">
  <defs>
    <style>
      .cls-1 {
        fill: #e9e9e9;
      }

      .cls-2 {
        fill: #f0f0f0;
      }

      .cls-3 {
        fill: #f4f4f4;
      }

      .cls-4 {
        fill: #fff;
      }

      .cls-5 {
        fill: #fafafa;
      }

      .cls-6 {
        fill: #ecedec;
      }

      .cls-7 {
        fill: #f6f6f6;
      }

      .cls-8 {
        fill: url(#linear-gradient);
      }

      .cls-8, .cls-9 {
        mix-blend-mode: multiply;
      }

      .cls-10 {
        fill: #939598;
      }

      .cls-11 {
        fill: #f5f5f5;
      }

      .cls-12 {
        isolation: isolate;
      }

      .cls-13 {
        fill: #ebebea;
      }

      .cls-14 {
        fill: #e7e8e7;
      }

      .cls-15 {
        fill: #f9f9f8;
      }

      .cls-16 {
        fill: #eaeaea;
      }

      .cls-17 {
        fill: #fdfdfd;
      }

      .cls-18 {
        fill: #e6e7e6;
      }

      .cls-19 {
        fill: #e5e6e5;
      }

      .cls-20 {
        fill: #fcfcfb;
      }

      .cls-9 {
        fill: url(#linear-gradient-2);
      }

      .cls-21 {
        fill: #e8e8e8;
      }

      .cls-22 {
        fill: #818285;
      }

      .cls-23 {
        fill: #f8f7f7;
      }

      .cls-24 {
        fill: #e4e5e5;
      }

      .cls-25 {
        fill: #edeeed;
      }

      .cls-26 {
        fill: #efefef;
      }

      .cls-27 {
        filter: url(#luminosity-noclip);
      }

      .cls-28 {
        mask: url(#mask-1);
      }

      .cls-29 {
        mask: url(#mask);
      }

      .cls-30 {
        fill: #f1f1f1;
      }

      .cls-31 {
        fill: #27281f;
      }

      .cls-32 {
        fill: #ebeceb;
      }

      .cls-33 {
        fill: #f3f3f3;
      }

      .cls-34 {
        fill: none;
        stroke: #27281f;
        stroke-linecap: round;
        stroke-linejoin: round;
        stroke-width: .72px;
      }

      .cls-35 {
        fill: #eee;
      }

      .cls-36 {
        fill: #f2f2f2;
      }
    </style>
    <filter id="luminosity-noclip" x="13.91" y="27.81" width="31.18" height="15.14" color-interpolation-filters="sRGB" filterUnits="userSpaceOnUse">
      <feFlood flood-color="#fff" result="bg"/>
      <feBlend in="SourceGraphic" in2="bg"/>
    </filter>
    <filter id="luminosity-noclip-2" x="13.91" y="-8240.2" width="31.18" height="32766" color-interpolation-filters="sRGB" filterUnits="userSpaceOnUse">
      <feFlood flood-color="#fff" result="bg"/>
      <feBlend in="SourceGraphic" in2="bg"/>
    </filter>
    <mask id="mask-1" x="13.91" y="-8240.2" width="31.18" height="32766" maskUnits="userSpaceOnUse"/>
    <linearGradient id="linear-gradient" x1="-74.72" y1="227.18" x2="-74.72" y2="212.04" gradientTransform="translate(104.22 -184.22)" gradientUnits="userSpaceOnUse">
      <stop offset="0" stop-color="#000"/>
      <stop offset="1" stop-color="#fff"/>
    </linearGradient>
    <mask id="mask" x="13.91" y="27.81" width="31.18" height="15.14" maskUnits="userSpaceOnUse">
      <g class="cls-27">
        <g class="cls-28">
          <path class="cls-8" d="m45.01,40.77c2.15,3.3-33.49,2.62-30.96-.37,2.52-2.99,4.37-12.58,4.37-12.58h22.31s2.13,9.66,4.28,12.96Z"/>
        </g>
      </g>
    </mask>
    <linearGradient id="linear-gradient-2" x1="-74.72" y1="227.18" x2="-74.72" y2="212.04" gradientTransform="translate(104.22 -184.22)" gradientUnits="userSpaceOnUse">
      <stop offset="0" stop-color="#fff"/>
      <stop offset="1" stop-color="#000"/>
    </linearGradient>
  </defs>
  <g class="cls-12">
    <g id="Layer_1" data-name="Layer 1">
      <g>
        <g>
          <path class="cls-10" d="m44.5,31.61H4.13V4.13h58.13v27.48h-17.77Zm-8.52-16.84c0-1.46-1.18-2.64-2.63-2.64s-2.64,1.18-2.64,2.64,1.18,2.64,2.64,2.64,2.63-1.18,2.63-2.64Z"/>
          <path class="cls-10" d="m51.67,49.23l.16.2.45.75.62.76.45.91.45.75.3.91.45.75.29.91.3.91.3.91.3.91.3.91.3.91.15.91.16.91.15.91.15.91.15.91v5.59l-.15,1.06v.91l-.15.91-.15.91-.31.91-.15.91-.15.91-.3.91-.3.91-.3.91-.3.91-.44.75-.45.91-.3.91-.45.75-.47.76-.6.91-.45.75-.6.75-.59.75-.6.76-.6.6-.62.75-.45.3-.3.3-.3.3-.44.3-.3.3-.45.3-.3.3-.45.3-.47.3-.3.3-.45.15-.45.3-.45.3-.29.15-.45.3-.45.15-.45.15-.47.3-.45.15-.45.15-.45.15-.44.15-.6.15-.45.15-.45.15-.47.15h-.45l-.6.15h-.45l-.44.15h-1.06l-.45.15h-1.52l-.45-.15h-1.5l-.62-.15h-.45l-.45-.15-.45-.15h-.59l-.45-.15-.45-.15-.45-.15-.47-.15-.45-.15-.45-.3-.45-.15-.44-.15-.45-.3-.45-.15-.45-.3-.45-.15-.47-.3-.3-.3-.45-.15-.45-.3-.29-.3-.45-.3-.3-.3-.45-.3-.3-.3-.47-.3-.3-.3-.75-.6-.6-.76-.59-.75-.6-.6-.6-.75-.62-.76-.45-.91-.45-.75-.59-.76-.3-.91-.45-.75-.45-.91-.3-.91-.3-.91-.31-.76-.3-.91-.3-.91-.3-.91-.15-.91-.15-.91-.15-1.06-.15-.91-.14-.91v-1.81l-.15-1.06v-.91l.15-.91v-.91l.14-.91v-.91l.15-1.06.15-.91.15-.91.3-.91.15-.91.3-.91.3-.91.31-.91.3-.75.45-.91.3-.91.45-.75.44-.91.45-.75.45-.75.6-.91.03-.03c3.8-5.16,6.29-11.16,7.32-17.49h22.31c1.03,6.33,3.52,12.33,7.32,17.49l-.15.13Zm.16,20.28v-4.23l-.15-1.06-.15-1.06-.15-1.06-.3-1.06-.14-1.06-.3-.91-.3-1.06-.45-.91-.3-1.06-.45-.91-.62-.91-.45-.91-.6-.91-.59-.76-.6-.75-.6-.76-.77-.75-.75-.75-.74-.6-.75-.6-.91-.6-.77-.45-.91-.45-.89-.45-1.06-.3-.92-.3-.91-.3-1.04-.15h-3.93l-1.06.15-.92.3-1.04.3-.91.3-.91.45-.92.45-.75.45-.89.6-.75.6-.77.6-.75.75-.75.75-.59.76-.6.75-.6.76-.62.91-.45.91-.6.91-.44.91-.3,1.06-.45.91-.3,1.06-.3.91-.3,1.06-.15,1.06-.16,1.06-.15,1.06-.15,1.06v4.23l.15,1.06.15,1.06.16,1.06.15,1.06.3,1.06.3.91.3,1.06.45.91.3,1.06.44.91.6.91.45.91.62.75.6.91.6.76.59.75.75.75.75.75.77.6.75.6.89.6.75.45.92.45.91.45.91.3,1.04.3.92.15,1.06.15.89.15h2.13l.91-.15,1.04-.15.91-.15.92-.3,1.06-.3.89-.45.91-.45.77-.45.91-.6.75-.6.74-.6.75-.75.77-.75.6-.75.6-.76.59-.91.6-.75.45-.91.62-.91.45-.91.3-1.06.45-.91.3-1.06.3-.91.14-1.06.3-1.06.15-1.06.15-1.06.15-1.06Z"/>
          <circle class="cls-10" cx="33.35" cy="54.79" r="5.21"/>
          <path class="cls-10" d="m33.35,12.14c1.45,0,2.63,1.18,2.63,2.64s-1.18,2.64-2.63,2.64-2.64-1.18-2.64-2.64,1.18-2.64,2.64-2.64Zm.83,2.64c0-.45-.38-.83-.83-.83s-.84.38-.84.83.38.83.84.83.83-.36.83-.83Z"/>
          <path class="cls-10" d="m33.35,13.95c.45,0,.83.38.83.83s-.38.83-.83.83-.84-.36-.84-.83.38-.83.84-.83Z"/>
        </g>
        <g>
          <polygon class="cls-24" points="29.49 40.68 28.44 40.68 27.53 40.68 26.47 40.83 25.57 41.13 24.51 41.43 23.61 41.73 22.7 42.19 21.79 42.64 21.04 43.09 20.13 43.7 19.38 44.3 18.62 44.9 17.87 45.66 17.11 46.41 16.51 47.17 15.91 47.92 15.3 48.68 14.7 49.59 14.24 50.49 13.64 51.4 13.19 52.3 12.89 53.36 12.43 54.27 12.13 55.32 11.83 56.23 11.53 57.29 11.38 58.34 11.22 59.4 11.07 60.46 10.92 61.51 10.92 62.57 10.92 63.63 10.92 64.68 10.92 65.74 11.07 66.8 11.22 67.85 11.38 68.91 11.53 69.97 11.83 71.03 12.13 71.93 12.43 72.99 12.89 73.89 13.19 74.95 13.64 75.86 14.24 76.76 14.7 77.67 15.3 78.42 15.91 79.33 16.51 80.08 17.11 80.84 17.87 81.59 18.62 82.35 19.38 82.95 20.13 83.56 21.04 84.16 21.79 84.61 22.7 85.07 23.61 85.52 24.51 85.82 25.57 86.12 26.47 86.28 27.53 86.43 28.44 86.58 29.49 86.58 30.55 86.58 31.46 86.43 32.51 86.28 33.42 86.12 34.33 85.82 35.38 85.52 36.29 85.07 37.19 84.61 37.95 84.16 38.86 83.56 39.61 82.95 40.37 82.35 41.12 81.59 41.88 80.84 42.48 80.08 43.08 79.33 43.69 78.42 44.29 77.67 44.74 76.76 45.35 75.86 45.8 74.95 46.1 73.89 46.56 72.99 46.86 71.93 47.16 71.03 47.31 69.97 47.61 68.91 47.76 67.85 47.91 66.8 48.07 65.74 48.07 64.68 48.07 63.63 48.07 62.57 48.07 61.51 47.91 60.46 47.76 59.4 47.61 58.34 47.31 57.29 47.16 56.23 46.86 55.32 46.56 54.27 46.1 53.36 45.8 52.3 45.35 51.4 44.74 50.49 44.29 49.59 43.69 48.68 43.08 47.92 42.48 47.17 41.88 46.41 41.12 45.66 40.37 44.9 39.61 44.3 38.86 43.7 37.95 43.09 37.19 42.64 36.29 42.19 35.38 41.73 34.33 41.43 33.42 41.13 32.51 40.83 31.46 40.68 30.55 40.68 29.49 40.68 29.49 40.68"/>
          <polygon class="cls-19" points="29.49 40.68 28.45 40.68 27.55 40.68 26.5 40.83 25.6 41.13 24.55 41.43 23.65 41.73 22.75 42.18 21.85 42.63 21.1 43.07 20.2 43.67 19.45 44.27 18.7 44.87 17.95 45.62 17.2 46.37 16.61 47.12 16.01 47.87 15.41 48.62 14.81 49.52 14.36 50.42 13.76 51.32 13.31 52.22 13.01 53.27 12.56 54.17 12.26 55.21 11.96 56.11 11.66 57.16 11.51 58.21 11.36 59.26 11.21 60.31 11.06 61.36 11.06 62.41 11.06 63.46 11.06 64.51 11.06 65.56 11.21 66.6 11.36 67.65 11.51 68.7 11.66 69.75 11.96 70.8 12.26 71.7 12.56 72.75 13.01 73.65 13.31 74.7 13.76 75.6 14.36 76.5 14.81 77.4 15.41 78.14 16.01 79.04 16.61 79.79 17.2 80.54 17.95 81.29 18.7 82.04 19.45 82.64 20.2 83.24 21.1 83.84 21.85 84.29 22.75 84.74 23.65 85.19 24.55 85.49 25.6 85.79 26.5 85.94 27.55 86.09 28.45 86.24 29.49 86.24 30.54 86.24 31.44 86.09 32.49 85.94 33.39 85.79 34.29 85.49 35.34 85.19 36.24 84.74 37.14 84.29 37.89 83.84 38.79 83.24 39.54 82.64 40.28 82.04 41.03 81.29 41.78 80.54 42.38 79.79 42.98 79.04 43.58 78.14 44.18 77.4 44.63 76.5 45.23 75.6 45.68 74.7 45.98 73.65 46.43 72.75 46.73 71.7 47.03 70.8 47.18 69.75 47.48 68.7 47.63 67.65 47.78 66.6 47.93 65.56 47.93 64.51 47.93 63.46 47.93 62.41 47.93 61.36 47.78 60.31 47.63 59.26 47.48 58.21 47.18 57.16 47.03 56.11 46.73 55.21 46.43 54.17 45.98 53.27 45.68 52.22 45.23 51.32 44.63 50.42 44.18 49.52 43.58 48.62 42.98 47.87 42.38 47.12 41.78 46.37 41.03 45.62 40.28 44.87 39.54 44.27 38.79 43.67 37.89 43.07 37.14 42.63 36.24 42.18 35.34 41.73 34.29 41.43 33.39 41.13 32.49 40.83 31.44 40.68 30.54 40.68 29.49 40.68 29.49 40.68"/>
          <polygon class="cls-18" points="29.49 40.68 28.45 40.68 27.56 40.68 26.52 40.83 25.63 41.12 24.59 41.42 23.69 41.72 22.8 42.16 21.91 42.61 21.16 43.06 20.27 43.65 19.53 44.25 18.78 44.84 18.04 45.59 17.3 46.33 16.7 47.07 16.11 47.82 15.51 48.56 14.92 49.45 14.47 50.35 13.88 51.24 13.43 52.13 13.13 53.17 12.69 54.06 12.39 55.11 12.09 56 11.79 57.04 11.64 58.08 11.49 59.12 11.35 60.16 11.2 61.21 11.2 62.25 11.2 63.29 11.2 64.33 11.2 65.37 11.35 66.41 11.49 67.45 11.64 68.49 11.79 69.54 12.09 70.58 12.39 71.47 12.69 72.51 13.13 73.4 13.43 74.44 13.88 75.34 14.47 76.23 14.92 77.12 15.51 77.87 16.11 78.76 16.7 79.5 17.3 80.25 18.04 80.99 18.78 81.73 19.53 82.33 20.27 82.92 21.16 83.52 21.91 83.96 22.8 84.41 23.69 84.86 24.59 85.15 25.63 85.45 26.52 85.6 27.56 85.75 28.45 85.9 29.49 85.9 30.54 85.9 31.43 85.75 32.47 85.6 33.36 85.45 34.25 85.15 35.3 84.86 36.19 84.41 37.08 83.96 37.82 83.52 38.72 82.92 39.46 82.33 40.2 81.73 40.95 80.99 41.69 80.25 42.29 79.5 42.88 78.76 43.48 77.87 44.07 77.12 44.52 76.23 45.11 75.34 45.56 74.44 45.86 73.4 46.3 72.51 46.6 71.47 46.9 70.58 47.05 69.54 47.34 68.49 47.49 67.45 47.64 66.41 47.79 65.37 47.79 64.33 47.79 63.29 47.79 62.25 47.79 61.21 47.64 60.16 47.49 59.12 47.34 58.08 47.05 57.04 46.9 56 46.6 55.11 46.3 54.06 45.86 53.17 45.56 52.13 45.11 51.24 44.52 50.35 44.07 49.45 43.48 48.56 42.88 47.82 42.29 47.07 41.69 46.33 40.95 45.59 40.2 44.84 39.46 44.25 38.72 43.65 37.82 43.06 37.08 42.61 36.19 42.16 35.3 41.72 34.25 41.42 33.36 41.12 32.47 40.83 31.43 40.68 30.54 40.68 29.49 40.68 29.49 40.68"/>
          <polygon class="cls-14" points="29.49 40.68 28.46 40.68 27.57 40.68 26.54 40.82 25.66 41.12 24.62 41.42 23.74 41.71 22.85 42.15 21.96 42.6 21.23 43.04 20.34 43.63 19.6 44.22 18.86 44.81 18.13 45.55 17.39 46.29 16.8 47.03 16.21 47.76 15.62 48.5 15.03 49.39 14.58 50.27 13.99 51.16 13.55 52.05 13.25 53.08 12.81 53.96 12.52 55 12.22 55.88 11.93 56.92 11.78 57.95 11.63 58.98 11.48 60.02 11.33 61.05 11.33 62.08 11.33 63.12 11.33 64.15 11.33 65.18 11.48 66.22 11.63 67.25 11.78 68.29 11.93 69.32 12.22 70.35 12.52 71.24 12.81 72.27 13.25 73.16 13.55 74.19 13.99 75.08 14.58 75.96 15.03 76.85 15.62 77.59 16.21 78.47 16.8 79.21 17.39 79.95 18.13 80.69 18.86 81.43 19.6 82.02 20.34 82.61 21.23 83.2 21.96 83.64 22.85 84.08 23.74 84.53 24.62 84.82 25.66 85.12 26.54 85.26 27.57 85.41 28.46 85.56 29.49 85.56 30.53 85.56 31.41 85.41 32.45 85.26 33.33 85.12 34.22 84.82 35.25 84.53 36.14 84.08 37.02 83.64 37.76 83.2 38.65 82.61 39.39 82.02 40.12 81.43 40.86 80.69 41.6 79.95 42.19 79.21 42.78 78.47 43.37 77.59 43.96 76.85 44.41 75.96 45 75.08 45.44 74.19 45.73 73.16 46.18 72.27 46.47 71.24 46.77 70.35 46.92 69.32 47.21 68.29 47.36 67.25 47.51 66.22 47.65 65.18 47.65 64.15 47.65 63.12 47.65 62.08 47.65 61.05 47.51 60.02 47.36 58.98 47.21 57.95 46.92 56.92 46.77 55.88 46.47 55 46.18 53.96 45.73 53.08 45.44 52.05 45 51.16 44.41 50.27 43.96 49.39 43.37 48.5 42.78 47.76 42.19 47.03 41.6 46.29 40.86 45.55 40.12 44.81 39.39 44.22 38.65 43.63 37.76 43.04 37.02 42.6 36.14 42.15 35.25 41.71 34.22 41.42 33.33 41.12 32.45 40.82 31.41 40.68 30.53 40.68 29.49 40.68 29.49 40.68"/>
          <polygon class="cls-21" points="29.49 40.68 28.47 40.68 27.59 40.68 26.56 40.82 25.68 41.12 24.66 41.41 23.78 41.7 22.9 42.14 22.02 42.58 21.29 43.02 20.41 43.61 19.68 44.19 18.94 44.78 18.21 45.51 17.48 46.24 16.89 46.98 16.31 47.71 15.72 48.44 15.14 49.32 14.7 50.2 14.11 51.08 13.67 51.96 13.38 52.98 12.94 53.86 12.64 54.89 12.35 55.77 12.06 56.79 11.91 57.82 11.77 58.85 11.62 59.87 11.47 60.9 11.47 61.92 11.47 62.95 11.47 63.97 11.47 65 11.62 66.03 11.77 67.05 11.91 68.08 12.06 69.1 12.35 70.13 12.64 71.01 12.94 72.03 13.38 72.91 13.67 73.94 14.11 74.82 14.7 75.7 15.14 76.57 15.72 77.31 16.31 78.19 16.89 78.92 17.48 79.65 18.21 80.38 18.94 81.12 19.68 81.7 20.41 82.29 21.29 82.87 22.02 83.31 22.9 83.75 23.78 84.19 24.66 84.49 25.68 84.78 26.56 84.93 27.59 85.07 28.47 85.22 29.49 85.22 30.52 85.22 31.4 85.07 32.42 84.93 33.3 84.78 34.18 84.49 35.21 84.19 36.09 83.75 36.97 83.31 37.7 82.87 38.58 82.29 39.31 81.7 40.04 81.12 40.78 80.38 41.51 79.65 42.1 78.92 42.68 78.19 43.27 77.31 43.85 76.57 44.29 75.7 44.88 74.82 45.32 73.94 45.61 72.91 46.05 72.03 46.34 71.01 46.64 70.13 46.78 69.1 47.08 68.08 47.22 67.05 47.37 66.03 47.52 65 47.52 63.97 47.52 62.95 47.52 61.92 47.52 60.9 47.37 59.87 47.22 58.85 47.08 57.82 46.78 56.79 46.64 55.77 46.34 54.89 46.05 53.86 45.61 52.98 45.32 51.96 44.88 51.08 44.29 50.2 43.85 49.32 43.27 48.44 42.68 47.71 42.1 46.98 41.51 46.24 40.78 45.51 40.04 44.78 39.31 44.19 38.58 43.61 37.7 43.02 36.97 42.58 36.09 42.14 35.21 41.7 34.18 41.41 33.3 41.12 32.42 40.82 31.4 40.68 30.52 40.68 29.49 40.68 29.49 40.68"/>
          <polygon class="cls-1" points="29.49 40.68 28.48 40.68 27.6 40.68 26.59 40.82 25.71 41.11 24.7 41.4 23.82 41.69 22.95 42.13 22.08 42.57 21.35 43 20.48 43.59 19.75 44.17 19.03 44.75 18.3 45.48 17.57 46.2 16.99 46.93 16.41 47.66 15.83 48.38 15.24 49.26 14.81 50.13 14.23 51 13.79 51.87 13.5 52.89 13.06 53.76 12.77 54.78 12.48 55.65 12.19 56.67 12.05 57.69 11.9 58.71 11.75 59.72 11.61 60.74 11.61 61.76 11.61 62.78 11.61 63.8 11.61 64.81 11.75 65.83 11.9 66.85 12.05 67.87 12.19 68.89 12.48 69.9 12.77 70.78 13.06 71.79 13.5 72.67 13.79 73.68 14.23 74.56 14.81 75.43 15.24 76.3 15.83 77.03 16.41 77.9 16.99 78.63 17.57 79.35 18.3 80.08 19.03 80.81 19.75 81.39 20.48 81.97 21.35 82.55 22.08 82.99 22.95 83.43 23.82 83.86 24.7 84.15 25.71 84.44 26.59 84.59 27.6 84.73 28.48 84.88 29.49 84.88 30.51 84.88 31.38 84.73 32.4 84.59 33.27 84.44 34.15 84.15 35.17 83.86 36.04 83.43 36.91 82.99 37.64 82.55 38.51 81.97 39.24 81.39 39.96 80.81 40.69 80.08 41.42 79.35 42 78.63 42.58 77.9 43.16 77.03 43.74 76.3 44.18 75.43 44.76 74.56 45.2 73.68 45.49 72.67 45.92 71.79 46.22 70.78 46.51 69.9 46.65 68.89 46.94 67.87 47.09 66.85 47.23 65.83 47.38 64.81 47.38 63.8 47.38 62.78 47.38 61.76 47.38 60.74 47.23 59.72 47.09 58.71 46.94 57.69 46.65 56.67 46.51 55.65 46.22 54.78 45.92 53.76 45.49 52.89 45.2 51.87 44.76 51 44.18 50.13 43.74 49.26 43.16 48.38 42.58 47.66 42 46.93 41.42 46.2 40.69 45.48 39.96 44.75 39.24 44.17 38.51 43.59 37.64 43 36.91 42.57 36.04 42.13 35.17 41.69 34.15 41.4 33.27 41.11 32.4 40.82 31.38 40.68 30.51 40.68 29.49 40.68 29.49 40.68"/>
          <polygon class="cls-16" points="29.49 40.68 28.48 40.68 27.62 40.68 26.61 40.82 25.74 41.11 24.73 41.4 23.87 41.69 23 42.12 22.14 42.55 21.41 42.99 20.55 43.56 19.83 44.14 19.11 44.72 18.38 45.44 17.66 46.16 17.09 46.88 16.51 47.6 15.93 48.32 15.35 49.19 14.92 50.06 14.34 50.92 13.91 51.79 13.62 52.8 13.19 53.66 12.9 54.67 12.61 55.54 12.32 56.55 12.18 57.56 12.04 58.57 11.89 59.58 11.75 60.59 11.75 61.6 11.75 62.61 11.75 63.62 11.75 64.63 11.89 65.64 12.04 66.65 12.18 67.66 12.32 68.67 12.61 69.68 12.9 70.54 13.19 71.55 13.62 72.42 13.91 73.43 14.34 74.3 14.92 75.16 15.35 76.03 15.93 76.75 16.51 77.61 17.09 78.34 17.66 79.06 18.38 79.78 19.11 80.5 19.83 81.08 20.55 81.65 21.41 82.23 22.14 82.66 23 83.1 23.87 83.53 24.73 83.82 25.74 84.11 26.61 84.25 27.62 84.4 28.48 84.54 29.49 84.54 30.5 84.54 31.37 84.4 32.38 84.25 33.25 84.11 34.11 83.82 35.12 83.53 35.99 83.1 36.85 82.66 37.57 82.23 38.44 81.65 39.16 81.08 39.88 80.5 40.6 79.78 41.33 79.06 41.9 78.34 42.48 77.61 43.06 76.75 43.63 76.03 44.07 75.16 44.64 74.3 45.08 73.43 45.37 72.42 45.8 71.55 46.09 70.54 46.38 69.68 46.52 68.67 46.81 67.66 46.95 66.65 47.1 65.64 47.24 64.63 47.24 63.62 47.24 62.61 47.24 61.6 47.24 60.59 47.1 59.58 46.95 58.57 46.81 57.56 46.52 56.55 46.38 55.54 46.09 54.67 45.8 53.66 45.37 52.8 45.08 51.79 44.64 50.92 44.07 50.06 43.63 49.19 43.06 48.32 42.48 47.6 41.9 46.88 41.33 46.16 40.6 45.44 39.88 44.72 39.16 44.14 38.44 43.56 37.57 42.99 36.85 42.55 35.99 42.12 35.12 41.69 34.11 41.4 33.25 41.11 32.38 40.82 31.37 40.68 30.5 40.68 29.49 40.68 29.49 40.68"/>
          <polygon class="cls-13" points="29.49 40.68 28.49 40.68 27.63 40.68 26.63 40.82 25.77 41.11 24.77 41.39 23.91 41.68 23.05 42.11 22.19 42.54 21.48 42.97 20.62 43.54 19.9 44.11 19.19 44.69 18.47 45.4 17.75 46.12 17.18 46.83 16.61 47.55 16.04 48.27 15.46 49.12 15.03 49.98 14.46 50.84 14.03 51.7 13.75 52.7 13.32 53.56 13.03 54.56 12.74 55.42 12.46 56.43 12.31 57.43 12.17 58.43 12.03 59.43 11.88 60.43 11.88 61.44 11.88 62.44 11.88 63.44 11.88 64.44 12.03 65.45 12.17 66.45 12.31 67.45 12.46 68.45 12.74 69.45 13.03 70.31 13.32 71.32 13.75 72.17 14.03 73.18 14.46 74.04 15.03 74.89 15.46 75.75 16.04 76.47 16.61 77.33 17.18 78.04 17.75 78.76 18.47 79.48 19.19 80.19 19.9 80.76 20.62 81.34 21.48 81.91 22.19 82.34 23.05 82.77 23.91 83.2 24.77 83.48 25.77 83.77 26.63 83.91 27.63 84.06 28.49 84.2 29.49 84.2 30.5 84.2 31.36 84.06 32.36 83.91 33.22 83.77 34.08 83.48 35.08 83.2 35.94 82.77 36.8 82.34 37.51 81.91 38.37 81.34 39.09 80.76 39.8 80.19 40.52 79.48 41.23 78.76 41.81 78.04 42.38 77.33 42.95 76.47 43.52 75.75 43.95 74.89 44.53 74.04 44.96 73.18 45.24 72.17 45.67 71.32 45.96 70.31 46.25 69.45 46.39 68.45 46.67 67.45 46.82 66.45 46.96 65.45 47.1 64.44 47.1 63.44 47.1 62.44 47.1 61.44 47.1 60.43 46.96 59.43 46.82 58.43 46.67 57.43 46.39 56.43 46.25 55.42 45.96 54.56 45.67 53.56 45.24 52.7 44.96 51.7 44.53 50.84 43.95 49.98 43.52 49.12 42.95 48.27 42.38 47.55 41.81 46.83 41.23 46.12 40.52 45.4 39.8 44.69 39.09 44.11 38.37 43.54 37.51 42.97 36.8 42.54 35.94 42.11 35.08 41.68 34.08 41.39 33.22 41.11 32.36 40.82 31.36 40.68 30.5 40.68 29.49 40.68 29.49 40.68"/>
          <polygon class="cls-32" points="29.49 40.68 28.5 40.68 27.65 40.68 26.65 40.82 25.8 41.1 24.81 41.39 23.95 41.67 23.1 42.1 22.25 42.52 21.54 42.95 20.69 43.52 19.98 44.09 19.27 44.65 18.56 45.36 17.85 46.07 17.28 46.79 16.71 47.5 16.14 48.21 15.57 49.06 15.15 49.91 14.58 50.76 14.15 51.62 13.87 52.61 13.44 53.46 13.16 54.46 12.87 55.31 12.59 56.3 12.45 57.3 12.31 58.29 12.16 59.29 12.02 60.28 12.02 61.27 12.02 62.27 12.02 63.26 12.02 64.26 12.16 65.25 12.31 66.25 12.45 67.24 12.59 68.24 12.87 69.23 13.16 70.08 13.44 71.08 13.87 71.93 14.15 72.92 14.58 73.78 15.15 74.63 15.57 75.48 16.14 76.19 16.71 77.04 17.28 77.75 17.85 78.46 18.56 79.17 19.27 79.88 19.98 80.45 20.69 81.02 21.54 81.59 22.25 82.01 23.1 82.44 23.95 82.87 24.81 83.15 25.8 83.44 26.65 83.58 27.65 83.72 28.5 83.86 29.49 83.86 30.49 83.86 31.34 83.72 32.34 83.58 33.19 83.44 34.04 83.15 35.03 82.87 35.89 82.44 36.74 82.01 37.45 81.59 38.3 81.02 39.01 80.45 39.72 79.88 40.43 79.17 41.14 78.46 41.71 77.75 42.28 77.04 42.85 76.19 43.42 75.48 43.84 74.63 44.41 73.78 44.84 72.92 45.12 71.93 45.55 71.08 45.83 70.08 46.11 69.23 46.26 68.24 46.54 67.24 46.68 66.25 46.82 65.25 46.97 64.26 46.97 63.26 46.97 62.27 46.97 61.27 46.97 60.28 46.82 59.29 46.68 58.29 46.54 57.3 46.26 56.3 46.11 55.31 45.83 54.46 45.55 53.46 45.12 52.61 44.84 51.62 44.41 50.76 43.84 49.91 43.42 49.06 42.85 48.21 42.28 47.5 41.71 46.79 41.14 46.07 40.43 45.36 39.72 44.65 39.01 44.09 38.3 43.52 37.45 42.95 36.74 42.52 35.89 42.1 35.03 41.67 34.04 41.39 33.19 41.1 32.34 40.82 31.34 40.68 30.49 40.68 29.49 40.68 29.49 40.68"/>
          <polygon class="cls-6" points="29.49 40.68 28.51 40.68 27.66 40.68 26.68 40.82 25.83 41.1 24.84 41.38 24 41.66 23.15 42.09 22.31 42.51 21.6 42.93 20.76 43.5 20.05 44.06 19.35 44.62 18.64 45.33 17.94 46.03 17.37 46.74 16.81 47.44 16.25 48.15 15.68 48.99 15.26 49.84 14.7 50.68 14.27 51.53 13.99 52.52 13.57 53.36 13.29 54.35 13 55.19 12.72 56.18 12.58 57.17 12.44 58.15 12.3 59.14 12.16 60.13 12.16 61.11 12.16 62.1 12.16 63.09 12.16 64.07 12.3 65.06 12.44 66.05 12.58 67.03 12.72 68.02 13 69.01 13.29 69.85 13.57 70.84 13.99 71.68 14.27 72.67 14.7 73.52 15.26 74.36 15.68 75.21 16.25 75.91 16.81 76.76 17.37 77.46 17.94 78.17 18.64 78.87 19.35 79.58 20.05 80.14 20.76 80.7 21.6 81.27 22.31 81.69 23.15 82.11 24 82.54 24.84 82.82 25.83 83.1 26.68 83.24 27.66 83.38 28.51 83.52 29.49 83.52 30.48 83.52 31.33 83.38 32.31 83.24 33.16 83.1 34 82.82 34.99 82.54 35.84 82.11 36.68 81.69 37.39 81.27 38.23 80.7 38.94 80.14 39.64 79.58 40.35 78.87 41.05 78.17 41.61 77.46 42.18 76.76 42.74 75.91 43.31 75.21 43.73 74.36 44.29 73.52 44.72 72.67 45 71.68 45.42 70.84 45.7 69.85 45.98 69.01 46.12 68.02 46.41 67.03 46.55 66.05 46.69 65.06 46.83 64.07 46.83 63.09 46.83 62.1 46.83 61.11 46.83 60.13 46.69 59.14 46.55 58.15 46.41 57.17 46.12 56.18 45.98 55.19 45.7 54.35 45.42 53.36 45 52.52 44.72 51.53 44.29 50.68 43.73 49.84 43.31 48.99 42.74 48.15 42.18 47.44 41.61 46.74 41.05 46.03 40.35 45.33 39.64 44.62 38.94 44.06 38.23 43.5 37.39 42.93 36.68 42.51 35.84 42.09 34.99 41.66 34 41.38 33.16 41.1 32.31 40.82 31.33 40.68 30.48 40.68 29.49 40.68 29.49 40.68"/>
          <polygon class="cls-25" points="29.49 40.68 28.52 40.68 27.68 40.68 26.7 40.82 25.86 41.1 24.88 41.38 24.04 41.66 23.2 42.08 22.36 42.49 21.66 42.91 20.83 43.47 20.13 44.03 19.43 44.59 18.73 45.29 18.03 45.99 17.47 46.69 16.91 47.39 16.35 48.09 15.79 48.93 15.37 49.77 14.81 50.6 14.39 51.44 14.11 52.42 13.69 53.26 13.41 54.24 13.14 55.08 12.86 56.06 12.72 57.04 12.58 58.01 12.44 58.99 12.3 59.97 12.3 60.95 12.3 61.93 12.3 62.91 12.3 63.89 12.44 64.87 12.58 65.84 12.72 66.82 12.86 67.8 13.14 68.78 13.41 69.62 13.69 70.6 14.11 71.44 14.39 72.42 14.81 73.26 15.37 74.09 15.79 74.93 16.35 75.63 16.91 76.47 17.47 77.17 18.03 77.87 18.73 78.57 19.43 79.27 20.13 79.83 20.83 80.39 21.66 80.95 22.36 81.36 23.2 81.78 24.04 82.2 24.88 82.48 25.86 82.76 26.7 82.9 27.68 83.04 28.52 83.18 29.49 83.18 30.47 83.18 31.31 83.04 32.29 82.9 33.13 82.76 33.97 82.48 34.95 82.2 35.79 81.78 36.63 81.36 37.32 80.95 38.16 80.39 38.86 79.83 39.56 79.27 40.26 78.57 40.96 77.87 41.52 77.17 42.08 76.47 42.64 75.63 43.2 74.93 43.62 74.09 44.18 73.26 44.59 72.42 44.87 71.44 45.29 70.6 45.57 69.62 45.85 68.78 45.99 67.8 46.27 66.82 46.41 65.84 46.55 64.87 46.69 63.89 46.69 62.91 46.69 61.93 46.69 60.95 46.69 59.97 46.55 58.99 46.41 58.01 46.27 57.04 45.99 56.06 45.85 55.08 45.57 54.24 45.29 53.26 44.87 52.42 44.59 51.44 44.18 50.6 43.62 49.77 43.2 48.93 42.64 48.09 42.08 47.39 41.52 46.69 40.96 45.99 40.26 45.29 39.56 44.59 38.86 44.03 38.16 43.47 37.32 42.91 36.63 42.49 35.79 42.08 34.95 41.66 33.97 41.38 33.13 41.1 32.29 40.82 31.31 40.68 30.47 40.68 29.49 40.68 29.49 40.68"/>
          <polygon class="cls-35" points="29.49 40.68 28.52 40.68 27.69 40.68 26.72 40.82 25.89 41.09 24.92 41.37 24.08 41.65 23.25 42.06 22.42 42.48 21.73 42.9 20.89 43.45 20.2 44.01 19.51 44.56 18.81 45.25 18.12 45.95 17.57 46.64 17.01 47.33 16.46 48.03 15.9 48.86 15.49 49.69 14.93 50.52 14.51 51.36 14.24 52.33 13.82 53.16 13.54 54.13 13.27 54.96 12.99 55.93 12.85 56.91 12.71 57.88 12.57 58.85 12.43 59.82 12.43 60.79 12.43 61.76 12.43 62.73 12.43 63.7 12.57 64.67 12.71 65.64 12.85 66.61 12.99 67.59 13.27 68.56 13.54 69.39 13.82 70.36 14.24 71.19 14.51 72.16 14.93 72.99 15.49 73.83 15.9 74.66 16.46 75.35 17.01 76.18 17.57 76.88 18.12 77.57 18.81 78.27 19.51 78.96 20.2 79.51 20.89 80.07 21.73 80.62 22.42 81.04 23.25 81.46 24.08 81.87 24.92 82.15 25.89 82.43 26.72 82.57 27.69 82.7 28.52 82.84 29.49 82.84 30.47 82.84 31.3 82.7 32.27 82.57 33.1 82.43 33.93 82.15 34.9 81.87 35.74 81.46 36.57 81.04 37.26 80.62 38.09 80.07 38.79 79.51 39.48 78.96 40.17 78.27 40.87 77.57 41.42 76.88 41.98 76.18 42.53 75.35 43.09 74.66 43.5 73.83 44.06 72.99 44.47 72.16 44.75 71.19 45.17 70.36 45.45 69.39 45.72 68.56 45.86 67.59 46.14 66.61 46.28 65.64 46.42 64.67 46.55 63.7 46.55 62.73 46.55 61.76 46.55 60.79 46.55 59.82 46.42 58.85 46.28 57.88 46.14 56.91 45.86 55.93 45.72 54.96 45.45 54.13 45.17 53.16 44.75 52.33 44.47 51.36 44.06 50.52 43.5 49.69 43.09 48.86 42.53 48.03 41.98 47.33 41.42 46.64 40.87 45.95 40.17 45.25 39.48 44.56 38.79 44.01 38.09 43.45 37.26 42.9 36.57 42.48 35.74 42.06 34.9 41.65 33.93 41.37 33.1 41.09 32.27 40.82 31.3 40.68 30.47 40.68 29.49 40.68 29.49 40.68"/>
          <polygon class="cls-26" points="29.49 40.68 28.53 40.68 27.71 40.68 26.74 40.81 25.92 41.09 24.95 41.36 24.13 41.64 23.3 42.05 22.48 42.47 21.79 42.88 20.96 43.43 20.28 43.98 19.59 44.53 18.9 45.22 18.21 45.91 17.66 46.59 17.11 47.28 16.56 47.97 16.01 48.79 15.6 49.62 15.05 50.45 14.63 51.27 14.36 52.23 13.95 53.06 13.67 54.02 13.4 54.85 13.12 55.81 12.98 56.77 12.85 57.74 12.71 58.7 12.57 59.66 12.57 60.63 12.57 61.59 12.57 62.55 12.57 63.52 12.71 64.48 12.85 65.44 12.98 66.41 13.12 67.37 13.4 68.33 13.67 69.16 13.95 70.12 14.36 70.95 14.63 71.91 15.05 72.73 15.6 73.56 16.01 74.39 16.56 75.07 17.11 75.9 17.66 76.59 18.21 77.27 18.9 77.96 19.59 78.65 20.28 79.2 20.96 79.75 21.79 80.3 22.48 80.71 23.3 81.13 24.13 81.54 24.95 81.82 25.92 82.09 26.74 82.23 27.71 82.37 28.53 82.5 29.49 82.5 30.46 82.5 31.28 82.37 32.25 82.23 33.07 82.09 33.9 81.82 34.86 81.54 35.69 81.13 36.51 80.71 37.2 80.3 38.02 79.75 38.71 79.2 39.4 78.65 40.09 77.96 40.78 77.27 41.33 76.59 41.88 75.9 42.43 75.07 42.98 74.39 43.39 73.56 43.94 72.73 44.35 71.91 44.63 70.95 45.04 70.12 45.32 69.16 45.59 68.33 45.73 67.37 46 66.41 46.14 65.44 46.28 64.48 46.42 63.52 46.42 62.55 46.42 61.59 46.42 60.63 46.42 59.66 46.28 58.7 46.14 57.74 46 56.77 45.73 55.81 45.59 54.85 45.32 54.02 45.04 53.06 44.63 52.23 44.35 51.27 43.94 50.45 43.39 49.62 42.98 48.79 42.43 47.97 41.88 47.28 41.33 46.59 40.78 45.91 40.09 45.22 39.4 44.53 38.71 43.98 38.02 43.43 37.2 42.88 36.51 42.47 35.69 42.05 34.86 41.64 33.9 41.36 33.07 41.09 32.25 40.81 31.28 40.68 30.46 40.68 29.49 40.68 29.49 40.68"/>
          <polygon class="cls-2" points="29.49 40.68 28.54 40.68 27.72 40.68 26.76 40.81 25.95 41.09 24.99 41.36 24.17 41.63 23.35 42.04 22.53 42.45 21.85 42.86 21.03 43.41 20.35 43.95 19.67 44.5 18.99 45.18 18.3 45.86 17.76 46.55 17.21 47.23 16.67 47.91 16.12 48.73 15.71 49.55 15.16 50.37 14.76 51.19 14.48 52.14 14.07 52.96 13.8 53.91 13.53 54.73 13.25 55.69 13.12 56.64 12.98 57.6 12.84 58.55 12.71 59.51 12.71 60.47 12.71 61.42 12.71 62.38 12.71 63.33 12.84 64.29 12.98 65.24 13.12 66.2 13.25 67.15 13.53 68.11 13.8 68.93 14.07 69.88 14.48 70.7 14.76 71.66 15.16 72.47 15.71 73.29 16.12 74.11 16.67 74.79 17.21 75.61 17.76 76.3 18.3 76.98 18.99 77.66 19.67 78.34 20.35 78.89 21.03 79.43 21.85 79.98 22.53 80.39 23.35 80.8 24.17 81.21 24.99 81.48 25.95 81.75 26.76 81.89 27.72 82.03 28.54 82.16 29.49 82.16 30.45 82.16 31.27 82.03 32.22 81.89 33.04 81.75 33.86 81.48 34.82 81.21 35.64 80.8 36.45 80.39 37.14 79.98 37.96 79.43 38.64 78.89 39.32 78.34 40 77.66 40.68 76.98 41.23 76.3 41.78 75.61 42.32 74.79 42.87 74.11 43.28 73.29 43.82 72.47 44.23 71.66 44.51 70.7 44.92 69.88 45.19 68.93 45.46 68.11 45.6 67.15 45.87 66.2 46.01 65.24 46.14 64.29 46.28 63.33 46.28 62.38 46.28 61.42 46.28 60.47 46.28 59.51 46.14 58.55 46.01 57.6 45.87 56.64 45.6 55.69 45.46 54.73 45.19 53.91 44.92 52.96 44.51 52.14 44.23 51.19 43.82 50.37 43.28 49.55 42.87 48.73 42.32 47.91 41.78 47.23 41.23 46.55 40.68 45.86 40 45.18 39.32 44.5 38.64 43.95 37.96 43.41 37.14 42.86 36.45 42.45 35.64 42.04 34.82 41.63 33.86 41.36 33.04 41.09 32.22 40.81 31.27 40.68 30.45 40.68 29.49 40.68 29.49 40.68"/>
          <polygon class="cls-30" points="29.49 40.68 28.55 40.68 27.73 40.68 26.79 40.81 25.98 41.08 25.03 41.35 24.22 41.62 23.4 42.03 22.59 42.44 21.91 42.84 21.1 43.38 20.43 43.93 19.75 44.47 19.07 45.14 18.4 45.82 17.85 46.5 17.31 47.17 16.77 47.85 16.23 48.66 15.82 49.47 15.28 50.29 14.88 51.1 14.61 52.05 14.2 52.86 13.93 53.81 13.66 54.62 13.39 55.57 13.25 56.51 13.12 57.46 12.98 58.41 12.85 59.36 12.85 60.3 12.85 61.25 12.85 62.2 12.85 63.15 12.98 64.09 13.12 65.04 13.25 65.99 13.39 66.94 13.66 67.88 13.93 68.69 14.2 69.64 14.61 70.45 14.88 71.4 15.28 72.21 15.82 73.03 16.23 73.84 16.77 74.52 17.31 75.33 17.85 76 18.4 76.68 19.07 77.36 19.75 78.03 20.43 78.58 21.1 79.12 21.91 79.66 22.59 80.06 23.4 80.47 24.22 80.88 25.03 81.15 25.98 81.42 26.79 81.55 27.73 81.69 28.55 81.82 29.49 81.82 30.44 81.82 31.25 81.69 32.2 81.55 33.01 81.42 33.83 81.15 34.77 80.88 35.59 80.47 36.4 80.06 37.07 79.66 37.89 79.12 38.56 78.58 39.24 78.03 39.92 77.36 40.59 76.68 41.13 76 41.68 75.33 42.22 74.52 42.76 73.84 43.16 73.03 43.71 72.21 44.11 71.4 44.38 70.45 44.79 69.64 45.06 68.69 45.33 67.88 45.47 66.94 45.74 65.99 45.87 65.04 46.01 64.09 46.14 63.15 46.14 62.2 46.14 61.25 46.14 60.3 46.14 59.36 46.01 58.41 45.87 57.46 45.74 56.51 45.47 55.57 45.33 54.62 45.06 53.81 44.79 52.86 44.38 52.05 44.11 51.1 43.71 50.29 43.16 49.47 42.76 48.66 42.22 47.85 41.68 47.17 41.13 46.5 40.59 45.82 39.92 45.14 39.24 44.47 38.56 43.93 37.89 43.38 37.07 42.84 36.4 42.44 35.59 42.03 34.77 41.62 33.83 41.35 33.01 41.08 32.2 40.81 31.25 40.68 30.44 40.68 29.49 40.68 29.49 40.68"/>
          <polygon class="cls-36" points="29.49 40.68 28.55 40.68 27.75 40.68 26.81 40.81 26 41.08 25.06 41.35 24.26 41.62 23.45 42.02 22.65 42.42 21.98 42.82 21.17 43.36 20.5 43.9 19.83 44.44 19.16 45.11 18.49 45.78 17.95 46.45 17.41 47.12 16.88 47.79 16.34 48.6 15.94 49.4 15.4 50.21 15 51.01 14.73 51.95 14.33 52.76 14.06 53.7 13.79 54.5 13.52 55.44 13.39 56.38 13.25 57.32 13.12 58.26 12.98 59.2 12.98 60.14 12.98 61.08 12.98 62.02 12.98 62.96 13.12 63.9 13.25 64.84 13.39 65.78 13.52 66.72 13.79 67.66 14.06 68.46 14.33 69.4 14.73 70.21 15 71.15 15.4 71.95 15.94 72.76 16.34 73.56 16.88 74.24 17.41 75.04 17.95 75.71 18.49 76.38 19.16 77.05 19.83 77.73 20.5 78.26 21.17 78.8 21.98 79.34 22.65 79.74 23.45 80.14 24.26 80.54 25.06 80.81 26 81.08 26.81 81.22 27.75 81.35 28.55 81.48 29.49 81.48 30.43 81.48 31.24 81.35 32.18 81.22 32.98 81.08 33.79 80.81 34.73 80.54 35.53 80.14 36.34 79.74 37.01 79.34 37.82 78.8 38.49 78.26 39.16 77.73 39.83 77.05 40.5 76.38 41.04 75.71 41.58 75.04 42.11 74.24 42.65 73.56 43.05 72.76 43.59 71.95 43.99 71.15 44.26 70.21 44.66 69.4 44.93 68.46 45.2 67.66 45.33 66.72 45.6 65.78 45.74 64.84 45.87 63.9 46.01 62.96 46.01 62.02 46.01 61.08 46.01 60.14 46.01 59.2 45.87 58.26 45.74 57.32 45.6 56.38 45.33 55.44 45.2 54.5 44.93 53.7 44.66 52.76 44.26 51.95 43.99 51.01 43.59 50.21 43.05 49.4 42.65 48.6 42.11 47.79 41.58 47.12 41.04 46.45 40.5 45.78 39.83 45.11 39.16 44.44 38.49 43.9 37.82 43.36 37.01 42.82 36.34 42.42 35.53 42.02 34.73 41.62 33.79 41.35 32.98 41.08 32.18 40.81 31.24 40.68 30.43 40.68 29.49 40.68 29.49 40.68"/>
          <polygon class="cls-33" points="29.49 40.68 28.56 40.68 27.76 40.68 26.83 40.81 26.03 41.08 25.1 41.34 24.3 41.61 23.5 42.01 22.71 42.41 22.04 42.81 21.24 43.34 20.58 43.87 19.91 44.4 19.24 45.07 18.58 45.74 18.05 46.4 17.51 47.07 16.98 47.73 16.45 48.53 16.05 49.33 15.52 50.13 15.12 50.93 14.85 51.86 14.45 52.66 14.19 53.59 13.92 54.39 13.65 55.32 13.52 56.25 13.39 57.18 13.25 58.12 13.12 59.05 13.12 59.98 13.12 60.91 13.12 61.84 13.12 62.77 13.25 63.71 13.39 64.64 13.52 65.57 13.65 66.5 13.92 67.43 14.19 68.23 14.45 69.16 14.85 69.96 15.12 70.89 15.52 71.69 16.05 72.49 16.45 73.29 16.98 73.96 17.51 74.76 18.05 75.42 18.58 76.09 19.24 76.75 19.91 77.42 20.58 77.95 21.24 78.48 22.04 79.02 22.71 79.41 23.5 79.81 24.3 80.21 25.1 80.48 26.03 80.75 26.83 80.88 27.76 81.01 28.56 81.15 29.49 81.15 30.43 81.15 31.22 81.01 32.16 80.88 32.96 80.75 33.75 80.48 34.69 80.21 35.48 79.81 36.28 79.41 36.95 79.02 37.75 78.48 38.41 77.95 39.08 77.42 39.74 76.75 40.41 76.09 40.94 75.42 41.47 74.76 42.01 73.96 42.54 73.29 42.94 72.49 43.47 71.69 43.87 70.89 44.14 69.96 44.54 69.16 44.8 68.23 45.07 67.43 45.2 66.5 45.47 65.57 45.6 64.64 45.73 63.71 45.87 62.77 45.87 61.84 45.87 60.91 45.87 59.98 45.87 59.05 45.73 58.12 45.6 57.18 45.47 56.25 45.2 55.32 45.07 54.39 44.8 53.59 44.54 52.66 44.14 51.86 43.87 50.93 43.47 50.13 42.94 49.33 42.54 48.53 42.01 47.73 41.47 47.07 40.94 46.4 40.41 45.74 39.74 45.07 39.08 44.4 38.41 43.87 37.75 43.34 36.95 42.81 36.28 42.41 35.48 42.01 34.69 41.61 33.75 41.34 32.96 41.08 32.16 40.81 31.22 40.68 30.43 40.68 29.49 40.68 29.49 40.68"/>
          <polygon class="cls-3" points="29.49 40.68 28.57 40.68 27.78 40.68 26.85 40.81 26.06 41.07 25.14 41.34 24.35 41.6 23.55 42 22.76 42.39 22.1 42.79 21.31 43.32 20.65 43.85 19.99 44.37 19.33 45.03 18.67 45.69 18.14 46.35 17.61 47.01 17.09 47.67 16.56 48.47 16.16 49.26 15.63 50.05 15.24 50.84 14.97 51.77 14.58 52.56 14.31 53.48 14.05 54.27 13.79 55.2 13.65 56.12 13.52 57.05 13.39 57.97 13.26 58.89 13.26 59.82 13.26 60.74 13.26 61.67 13.26 62.59 13.39 63.51 13.52 64.44 13.65 65.36 13.79 66.29 14.05 67.21 14.31 68 14.58 68.93 14.97 69.72 15.24 70.64 15.63 71.43 16.16 72.23 16.56 73.02 17.09 73.68 17.61 74.47 18.14 75.13 18.67 75.79 19.33 76.45 19.99 77.11 20.65 77.64 21.31 78.17 22.1 78.69 22.76 79.09 23.55 79.49 24.35 79.88 25.14 80.15 26.06 80.41 26.85 80.54 27.78 80.67 28.57 80.81 29.49 80.81 30.42 80.81 31.21 80.67 32.13 80.54 32.93 80.41 33.72 80.15 34.64 79.88 35.43 79.49 36.23 79.09 36.89 78.69 37.68 78.17 38.34 77.64 39 77.11 39.66 76.45 40.32 75.79 40.85 75.13 41.37 74.47 41.9 73.68 42.43 73.02 42.83 72.23 43.35 71.43 43.75 70.64 44.01 69.72 44.41 68.93 44.67 68 44.94 67.21 45.07 66.29 45.33 65.36 45.47 64.44 45.6 63.51 45.73 62.59 45.73 61.67 45.73 60.74 45.73 59.82 45.73 58.89 45.6 57.97 45.47 57.05 45.33 56.12 45.07 55.2 44.94 54.27 44.67 53.48 44.41 52.56 44.01 51.77 43.75 50.84 43.35 50.05 42.83 49.26 42.43 48.47 41.9 47.67 41.37 47.01 40.85 46.35 40.32 45.69 39.66 45.03 39 44.37 38.34 43.85 37.68 43.32 36.89 42.79 36.23 42.39 35.43 42 34.64 41.6 33.72 41.34 32.93 41.07 32.13 40.81 31.21 40.68 30.42 40.68 29.49 40.68 29.49 40.68"/>
          <polygon class="cls-11" points="29.49 40.68 28.58 40.68 27.79 40.68 26.88 40.81 26.09 41.07 25.18 41.33 24.39 41.59 23.6 41.99 22.82 42.38 22.16 42.77 21.38 43.29 20.73 43.82 20.07 44.34 19.42 45 18.76 45.65 18.24 46.31 17.71 46.96 17.19 47.61 16.67 48.4 16.27 49.18 15.75 49.97 15.36 50.76 15.1 51.67 14.7 52.46 14.44 53.37 14.18 54.16 13.92 55.07 13.79 55.99 13.66 56.91 13.53 57.82 13.4 58.74 13.4 59.66 13.4 60.57 13.4 61.49 13.4 62.4 13.53 63.32 13.66 64.24 13.79 65.15 13.92 66.07 14.18 66.98 14.44 67.77 14.7 68.69 15.1 69.47 15.36 70.39 15.75 71.17 16.27 71.96 16.67 72.74 17.19 73.4 17.71 74.18 18.24 74.84 18.76 75.49 19.42 76.15 20.07 76.8 20.73 77.32 21.38 77.85 22.16 78.37 22.82 78.76 23.6 79.16 24.39 79.55 25.18 79.81 26.09 80.07 26.88 80.2 27.79 80.34 28.58 80.47 29.49 80.47 30.41 80.47 31.2 80.34 32.11 80.2 32.9 80.07 33.68 79.81 34.6 79.55 35.38 79.16 36.17 78.76 36.82 78.37 37.61 77.85 38.26 77.32 38.92 76.8 39.57 76.15 40.23 75.49 40.75 74.84 41.27 74.18 41.8 73.4 42.32 72.74 42.71 71.96 43.24 71.17 43.63 70.39 43.89 69.47 44.28 68.69 44.55 67.77 44.81 66.98 44.94 66.07 45.2 65.15 45.33 64.24 45.46 63.32 45.59 62.4 45.59 61.49 45.59 60.57 45.59 59.66 45.59 58.74 45.46 57.82 45.33 56.91 45.2 55.99 44.94 55.07 44.81 54.16 44.55 53.37 44.28 52.46 43.89 51.67 43.63 50.76 43.24 49.97 42.71 49.18 42.32 48.4 41.8 47.61 41.27 46.96 40.75 46.31 40.23 45.65 39.57 45 38.92 44.34 38.26 43.82 37.61 43.29 36.82 42.77 36.17 42.38 35.38 41.99 34.6 41.59 33.68 41.33 32.9 41.07 32.11 40.81 31.2 40.68 30.41 40.68 29.49 40.68 29.49 40.68"/>
          <polygon class="cls-7" points="29.49 40.68 28.59 40.68 27.81 40.68 26.9 40.81 26.12 41.07 25.21 41.33 24.43 41.59 23.65 41.97 22.88 42.36 22.23 42.75 21.45 43.27 20.8 43.79 20.15 44.31 19.5 44.96 18.85 45.61 18.33 46.26 17.82 46.91 17.3 47.55 16.78 48.33 16.39 49.11 15.87 49.89 15.48 50.67 15.22 51.58 14.83 52.36 14.57 53.26 14.31 54.04 14.05 54.95 13.92 55.86 13.79 56.77 13.66 57.68 13.53 58.59 13.53 59.49 13.53 60.4 13.53 61.31 13.53 62.22 13.66 63.13 13.79 64.04 13.92 64.94 14.05 65.85 14.31 66.76 14.57 67.54 14.83 68.45 15.22 69.23 15.48 70.13 15.87 70.91 16.39 71.69 16.78 72.47 17.3 73.12 17.82 73.9 18.33 74.55 18.85 75.2 19.5 75.84 20.15 76.49 20.8 77.01 21.45 77.53 22.23 78.05 22.88 78.44 23.65 78.83 24.43 79.22 25.21 79.48 26.12 79.74 26.9 79.87 27.81 80 28.59 80.13 29.49 80.13 30.4 80.13 31.18 80 32.09 79.87 32.87 79.74 33.65 79.48 34.56 79.22 35.33 78.83 36.11 78.44 36.76 78.05 37.54 77.53 38.19 77.01 38.84 76.49 39.49 75.84 40.14 75.2 40.65 74.55 41.17 73.9 41.69 73.12 42.21 72.47 42.6 71.69 43.12 70.91 43.51 70.13 43.77 69.23 44.16 68.45 44.42 67.54 44.68 66.76 44.81 65.85 45.07 64.94 45.2 64.04 45.33 63.13 45.46 62.22 45.46 61.31 45.46 60.4 45.46 59.49 45.46 58.59 45.33 57.68 45.2 56.77 45.07 55.86 44.81 54.95 44.68 54.04 44.42 53.26 44.16 52.36 43.77 51.58 43.51 50.67 43.12 49.89 42.6 49.11 42.21 48.33 41.69 47.55 41.17 46.91 40.65 46.26 40.14 45.61 39.49 44.96 38.84 44.31 38.19 43.79 37.54 43.27 36.76 42.75 36.11 42.36 35.33 41.97 34.56 41.59 33.65 41.33 32.87 41.07 32.09 40.81 31.18 40.68 30.4 40.68 29.49 40.68 29.49 40.68"/>
          <polygon class="cls-23" points="29.49 40.68 28.59 40.68 27.82 40.68 26.92 40.81 26.15 41.06 25.25 41.32 24.48 41.58 23.71 41.96 22.93 42.35 22.29 42.74 21.52 43.25 20.87 43.76 20.23 44.28 19.59 44.92 18.94 45.57 18.43 46.21 17.92 46.85 17.4 47.5 16.89 48.27 16.5 49.04 15.99 49.81 15.6 50.58 15.34 51.48 14.96 52.26 14.7 53.16 14.44 53.93 14.18 54.83 14.06 55.73 13.93 56.63 13.8 57.53 13.67 58.43 13.67 59.33 13.67 60.23 13.67 61.13 13.67 62.03 13.8 62.93 13.93 63.83 14.06 64.73 14.18 65.64 14.44 66.54 14.7 67.31 14.96 68.21 15.34 68.98 15.6 69.88 15.99 70.65 16.5 71.42 16.89 72.2 17.4 72.84 17.92 73.61 18.43 74.25 18.94 74.9 19.59 75.54 20.23 76.18 20.87 76.7 21.52 77.21 22.29 77.73 22.93 78.11 23.71 78.5 24.48 78.89 25.25 79.14 26.15 79.4 26.92 79.53 27.82 79.66 28.59 79.79 29.49 79.79 30.39 79.79 31.17 79.66 32.07 79.53 32.84 79.4 33.61 79.14 34.51 78.89 35.28 78.5 36.06 78.11 36.7 77.73 37.47 77.21 38.11 76.7 38.76 76.18 39.4 75.54 40.04 74.9 40.56 74.25 41.07 73.61 41.59 72.84 42.1 72.2 42.49 71.42 43 70.65 43.39 69.88 43.65 68.98 44.03 68.21 44.29 67.31 44.55 66.54 44.68 65.64 44.93 64.73 45.06 63.83 45.19 62.93 45.32 62.03 45.32 61.13 45.32 60.23 45.32 59.33 45.32 58.43 45.19 57.53 45.06 56.63 44.93 55.73 44.68 54.83 44.55 53.93 44.29 53.16 44.03 52.26 43.65 51.48 43.39 50.58 43 49.81 42.49 49.04 42.1 48.27 41.59 47.5 41.07 46.85 40.56 46.21 40.04 45.57 39.4 44.92 38.76 44.28 38.11 43.76 37.47 43.25 36.7 42.74 36.06 42.35 35.28 41.96 34.51 41.58 33.61 41.32 32.84 41.06 32.07 40.81 31.17 40.68 30.39 40.68 29.49 40.68 29.49 40.68"/>
          <polygon class="cls-15" points="29.49 40.68 28.6 40.68 27.84 40.68 26.94 40.8 26.18 41.06 25.29 41.31 24.52 41.57 23.76 41.95 22.99 42.33 22.35 42.72 21.59 43.23 20.95 43.74 20.31 44.25 19.67 44.89 19.04 45.52 18.53 46.16 18.02 46.8 17.51 47.44 17 48.2 16.61 48.97 16.1 49.73 15.72 50.5 15.47 51.39 15.08 52.16 14.83 53.05 14.57 53.81 14.32 54.71 14.19 55.6 14.06 56.49 13.93 57.38 13.81 58.28 13.81 59.17 13.81 60.06 13.81 60.96 13.81 61.85 13.93 62.74 14.06 63.63 14.19 64.53 14.32 65.42 14.57 66.31 14.83 67.08 15.08 67.97 15.47 68.73 15.72 69.63 16.1 70.39 16.61 71.16 17 71.92 17.51 72.56 18.02 73.33 18.53 73.96 19.04 74.6 19.67 75.24 20.31 75.88 20.95 76.39 21.59 76.9 22.35 77.41 22.99 77.79 23.76 78.17 24.52 78.55 25.29 78.81 26.18 79.06 26.94 79.19 27.84 79.32 28.6 79.45 29.49 79.45 30.39 79.45 31.15 79.32 32.04 79.19 32.81 79.06 33.58 78.81 34.47 78.55 35.23 78.17 36 77.79 36.64 77.41 37.4 76.9 38.04 76.39 38.68 75.88 39.31 75.24 39.95 74.6 40.46 73.96 40.97 73.33 41.48 72.56 41.99 71.92 42.38 71.16 42.89 70.39 43.27 69.63 43.52 68.73 43.91 67.97 44.16 67.08 44.42 66.31 44.54 65.42 44.8 64.53 44.93 63.63 45.05 62.74 45.18 61.85 45.18 60.96 45.18 60.06 45.18 59.17 45.18 58.28 45.05 57.38 44.93 56.49 44.8 55.6 44.54 54.71 44.42 53.81 44.16 53.05 43.91 52.16 43.52 51.39 43.27 50.5 42.89 49.73 42.38 48.97 41.99 48.2 41.48 47.44 40.97 46.8 40.46 46.16 39.95 45.52 39.31 44.89 38.68 44.25 38.04 43.74 37.4 43.23 36.64 42.72 36 42.33 35.23 41.95 34.47 41.57 33.58 41.31 32.81 41.06 32.04 40.8 31.15 40.68 30.39 40.68 29.49 40.68 29.49 40.68"/>
          <polygon class="cls-5" points="29.49 40.68 28.61 40.68 27.85 40.68 26.97 40.8 26.21 41.06 25.32 41.31 24.56 41.56 23.81 41.94 23.05 42.32 22.41 42.7 21.66 43.21 21.02 43.71 20.39 44.22 19.76 44.85 19.13 45.48 18.62 46.11 18.12 46.75 17.61 47.38 17.11 48.14 16.73 48.89 16.22 49.65 15.84 50.41 15.59 51.3 15.21 52.05 14.96 52.94 14.7 53.7 14.45 54.58 14.32 55.47 14.2 56.35 14.07 57.24 13.94 58.12 13.94 59.01 13.94 59.89 13.94 60.78 13.94 61.66 14.07 62.55 14.2 63.43 14.32 64.32 14.45 65.2 14.7 66.09 14.96 66.85 15.21 67.73 15.59 68.49 15.84 69.37 16.22 70.13 16.73 70.89 17.11 71.65 17.61 72.28 18.12 73.04 18.62 73.67 19.13 74.3 19.76 74.94 20.39 75.57 21.02 76.07 21.66 76.58 22.41 77.09 23.05 77.46 23.81 77.84 24.56 78.22 25.32 78.48 26.21 78.73 26.97 78.86 27.85 78.98 28.61 79.11 29.49 79.11 30.38 79.11 31.14 78.98 32.02 78.86 32.78 78.73 33.54 78.48 34.42 78.22 35.18 77.84 35.94 77.46 36.57 77.09 37.33 76.58 37.96 76.07 38.6 75.57 39.23 74.94 39.86 74.3 40.37 73.67 40.87 73.04 41.38 72.28 41.88 71.65 42.26 70.89 42.77 70.13 43.15 69.37 43.4 68.49 43.78 67.73 44.03 66.85 44.29 66.09 44.41 65.2 44.66 64.32 44.79 63.43 44.92 62.55 45.04 61.66 45.04 60.78 45.04 59.89 45.04 59.01 45.04 58.12 44.92 57.24 44.79 56.35 44.66 55.47 44.41 54.58 44.29 53.7 44.03 52.94 43.78 52.05 43.4 51.3 43.15 50.41 42.77 49.65 42.26 48.89 41.88 48.14 41.38 47.38 40.87 46.75 40.37 46.11 39.86 45.48 39.23 44.85 38.6 44.22 37.96 43.71 37.33 43.21 36.57 42.7 35.94 42.32 35.18 41.94 34.42 41.56 33.54 41.31 32.78 41.06 32.02 40.8 31.14 40.68 30.38 40.68 29.49 40.68 29.49 40.68"/>
          <polygon class="cls-20" points="29.49 40.68 28.62 40.68 27.87 40.68 26.99 40.8 26.24 41.05 25.36 41.3 24.61 41.55 23.86 41.93 23.1 42.31 22.48 42.68 21.73 43.18 21.1 43.68 20.47 44.19 19.85 44.81 19.22 45.44 18.72 46.06 18.22 46.69 17.72 47.32 17.21 48.07 16.84 48.82 16.34 49.57 15.96 50.33 15.71 51.2 15.34 51.95 15.08 52.83 14.83 53.58 14.58 54.46 14.46 55.34 14.33 56.21 14.21 57.09 14.08 57.97 14.08 58.85 14.08 59.72 14.08 60.6 14.08 61.48 14.21 62.35 14.33 63.23 14.46 64.11 14.58 64.99 14.83 65.86 15.08 66.61 15.34 67.49 15.71 68.24 15.96 69.12 16.34 69.87 16.84 70.62 17.21 71.38 17.72 72 18.22 72.75 18.72 73.38 19.22 74.01 19.85 74.63 20.47 75.26 21.1 75.76 21.73 76.26 22.48 76.76 23.1 77.14 23.86 77.52 24.61 77.89 25.36 78.14 26.24 78.39 26.99 78.52 27.87 78.64 28.62 78.77 29.49 78.77 30.37 78.77 31.12 78.64 32 78.52 32.75 78.39 33.5 78.14 34.38 77.89 35.13 77.52 35.88 77.14 36.51 76.76 37.26 76.26 37.89 75.76 38.52 75.26 39.14 74.63 39.77 74.01 40.27 73.38 40.77 72.75 41.27 72 41.77 71.38 42.15 70.62 42.65 69.87 43.03 69.12 43.28 68.24 43.65 67.49 43.9 66.61 44.15 65.86 44.28 64.99 44.53 64.11 44.66 63.23 44.78 62.35 44.91 61.48 44.91 60.6 44.91 59.72 44.91 58.85 44.91 57.97 44.78 57.09 44.66 56.21 44.53 55.34 44.28 54.46 44.15 53.58 43.9 52.83 43.65 51.95 43.28 51.2 43.03 50.33 42.65 49.57 42.15 48.82 41.77 48.07 41.27 47.32 40.77 46.69 40.27 46.06 39.77 45.44 39.14 44.81 38.52 44.19 37.89 43.68 37.26 43.18 36.51 42.68 35.88 42.31 35.13 41.93 34.38 41.55 33.5 41.3 32.75 41.05 32 40.8 31.12 40.68 30.37 40.68 29.49 40.68 29.49 40.68"/>
          <polygon class="cls-17" points="29.49 40.68 28.62 40.68 27.88 40.68 27.01 40.8 26.27 41.05 25.4 41.3 24.65 41.55 23.91 41.92 23.16 42.29 22.54 42.66 21.79 43.16 21.17 43.66 20.55 44.15 19.93 44.78 19.31 45.4 18.81 46.02 18.32 46.64 17.82 47.26 17.32 48 16.95 48.75 16.45 49.49 16.08 50.24 15.83 51.11 15.46 51.85 15.21 52.72 14.96 53.47 14.72 54.34 14.59 55.21 14.47 56.08 14.34 56.95 14.22 57.81 14.22 58.68 14.22 59.55 14.22 60.42 14.22 61.29 14.34 62.16 14.47 63.03 14.59 63.9 14.72 64.77 14.96 65.64 15.21 66.38 15.46 67.25 15.83 68 16.08 68.87 16.45 69.61 16.95 70.36 17.32 71.1 17.82 71.72 18.32 72.47 18.81 73.09 19.31 73.71 19.93 74.33 20.55 74.95 21.17 75.45 21.79 75.95 22.54 76.44 23.16 76.81 23.91 77.19 24.65 77.56 25.4 77.81 26.27 78.06 27.01 78.18 27.88 78.3 28.62 78.43 29.49 78.43 30.36 78.43 31.11 78.3 31.98 78.18 32.72 78.06 33.47 77.81 34.34 77.56 35.08 77.19 35.83 76.81 36.45 76.44 37.19 75.95 37.81 75.45 38.44 74.95 39.06 74.33 39.68 73.71 40.17 73.09 40.67 72.47 41.17 71.72 41.66 71.1 42.04 70.36 42.53 69.61 42.91 68.87 43.15 68 43.53 67.25 43.78 66.38 44.02 65.64 44.15 64.77 44.4 63.9 44.52 63.03 44.64 62.16 44.77 61.29 44.77 60.42 44.77 59.55 44.77 58.68 44.77 57.81 44.64 56.95 44.52 56.08 44.4 55.21 44.15 54.34 44.02 53.47 43.78 52.72 43.53 51.85 43.15 51.11 42.91 50.24 42.53 49.49 42.04 48.75 41.66 48 41.17 47.26 40.67 46.64 40.17 46.02 39.68 45.4 39.06 44.78 38.44 44.15 37.81 43.66 37.19 43.16 36.45 42.66 35.83 42.29 35.08 41.92 34.34 41.55 33.47 41.3 32.72 41.05 31.98 40.8 31.11 40.68 30.36 40.68 29.49 40.68 29.49 40.68"/>
          <polygon class="cls-4" points="29.49 40.68 28.63 40.68 27.89 40.68 27.03 40.8 26.29 41.05 25.43 41.29 24.69 41.54 23.96 41.91 23.22 42.28 22.6 42.65 21.86 43.14 21.25 43.63 20.63 44.12 20.02 44.74 19.4 45.35 18.91 45.97 18.42 46.58 17.93 47.2 17.43 47.94 17.06 48.68 16.57 49.41 16.2 50.15 15.96 51.01 15.59 51.75 15.34 52.61 15.1 53.35 14.85 54.21 14.73 55.08 14.6 55.94 14.48 56.8 14.36 57.66 14.36 58.52 14.36 59.38 14.36 60.24 14.36 61.11 14.48 61.97 14.6 62.83 14.73 63.69 14.85 64.55 15.1 65.41 15.34 66.15 15.59 67.01 15.96 67.75 16.2 68.61 16.57 69.35 17.06 70.09 17.43 70.83 17.93 71.44 18.42 72.18 18.91 72.8 19.4 73.41 20.02 74.03 20.63 74.64 21.25 75.14 21.86 75.63 22.6 76.12 23.22 76.49 23.96 76.86 24.69 77.23 25.43 77.47 26.29 77.72 27.03 77.84 27.89 77.97 28.63 78.09 29.49 78.09 30.36 78.09 31.09 77.97 31.96 77.84 32.69 77.72 33.43 77.47 34.29 77.23 35.03 76.86 35.77 76.49 36.39 76.12 37.12 75.63 37.74 75.14 38.36 74.64 38.97 74.03 39.59 73.41 40.08 72.8 40.57 72.18 41.06 71.44 41.55 70.83 41.92 70.09 42.42 69.35 42.79 68.61 43.03 67.75 43.4 67.01 43.65 66.15 43.89 65.41 44.02 64.55 44.26 63.69 44.39 62.83 44.51 61.97 44.63 61.11 44.63 60.24 44.63 59.38 44.63 58.52 44.63 57.66 44.51 56.8 44.39 55.94 44.26 55.08 44.02 54.21 43.89 53.35 43.65 52.61 43.4 51.75 43.03 51.01 42.79 50.15 42.42 49.41 41.92 48.68 41.55 47.94 41.06 47.2 40.57 46.58 40.08 45.97 39.59 45.35 38.97 44.74 38.36 44.12 37.74 43.63 37.12 43.14 36.39 42.65 35.77 42.28 35.03 41.91 34.29 41.54 33.43 41.29 32.69 41.05 31.96 40.8 31.09 40.68 30.36 40.68 29.49 40.68 29.49 40.68"/>
        </g>
        <g>
          <g>
            <path class="cls-4" d="m18.42,27.84H.36V.36h58.13v27.48H18.42Zm13.79-16.84c0-1.46-1.18-2.64-2.63-2.64s-2.64,1.18-2.64,2.64,1.18,2.64,2.64,2.64,2.63-1.18,2.63-2.64Z"/>
            <path class="cls-4" d="m47.9,45.46l.16.2.45.75.62.76.45.91.45.76.3.91.45.75.29.91.3.91.3.91.3.91.3.91.3.91.15.91.16.91.15.91.15.91.15.91v5.59l-.15,1.06v.91l-.15.91-.15.91-.31.91-.15.91-.15.91-.3.91-.3.91-.3.91-.3.91-.44.75-.45.91-.3.91-.45.75-.47.76-.6.91-.45.75-.6.76-.59.75-.6.76-.6.6-.62.75-.45.3-.3.3-.3.3-.44.3-.3.3-.45.3-.3.3-.45.3-.47.3-.3.3-.45.15-.45.3-.45.3-.29.15-.45.3-.45.15-.45.15-.47.3-.45.15-.45.15-.45.15-.44.15-.6.15-.45.15-.45.15-.47.15h-.45l-.6.15h-.45l-.44.15h-1.06l-.45.15h-1.52l-.45-.15h-1.5l-.62-.15h-.45l-.45-.15-.45-.15h-.59l-.45-.15-.45-.15-.45-.15-.47-.15-.45-.15-.45-.3-.45-.15-.44-.15-.45-.3-.45-.15-.45-.3-.45-.15-.47-.3-.3-.3-.45-.15-.45-.3-.29-.3-.45-.3-.3-.3-.45-.3-.3-.3-.47-.3-.3-.3-.75-.6-.6-.75-.59-.75-.6-.6-.6-.75-.62-.75-.45-.91-.45-.75-.59-.76-.3-.91-.45-.75-.45-.91-.3-.91-.3-.91-.31-.75-.3-.91-.3-.91-.3-.91-.15-.91-.15-.91-.15-1.06-.15-.91-.14-.91v-1.81l-.15-1.06v-.91l.15-.91v-.91l.14-.91v-.91l.15-1.06.15-.91.15-.91.3-.91.15-.91.3-.91.3-.91.31-.91.3-.75.45-.91.3-.91.45-.75.44-.91.45-.75.45-.75.6-.91.03-.03c3.8-5.16,6.29-11.16,7.32-17.49h22.31c1.03,6.33,3.52,12.33,7.32,17.49l-.15.13Zm.16,20.28v-4.23l-.15-1.06-.15-1.06-.15-1.06-.3-1.06-.14-1.06-.3-.91-.3-1.06-.45-.91-.3-1.06-.45-.91-.62-.91-.45-.91-.6-.91-.59-.75-.6-.75-.6-.76-.77-.75-.75-.75-.74-.6-.75-.6-.91-.6-.77-.45-.91-.45-.89-.45-1.06-.3-.92-.3-.91-.3-1.04-.15h-3.93l-1.06.15-.92.3-1.04.3-.91.3-.91.45-.92.45-.75.45-.89.6-.75.6-.77.6-.75.75-.75.75-.59.76-.6.75-.6.75-.62.91-.45.91-.6.91-.44.91-.3,1.06-.45.91-.3,1.06-.3.91-.3,1.06-.15,1.06-.16,1.06-.15,1.06-.15,1.06v4.23l.15,1.06.15,1.06.16,1.06.15,1.06.3,1.06.3.91.3,1.06.45.91.3,1.06.44.91.6.91.45.91.62.75.6.91.6.76.59.75.75.76.75.75.77.6.75.6.89.6.75.45.92.45.91.45.91.3,1.04.3.92.15,1.06.15.89.15h2.13l.91-.15,1.04-.15.91-.15.92-.3,1.06-.3.89-.45.91-.45.77-.45.91-.6.75-.6.74-.6.75-.75.77-.76.6-.75.6-.76.59-.91.6-.75.45-.91.62-.91.45-.91.3-1.06.45-.91.3-1.06.3-.91.14-1.06.3-1.06.15-1.06.15-1.06.15-1.06Z"/>
            <circle class="cls-24" cx="29.58" cy="51.02" r="5.21"/>
            <path class="cls-22" d="m29.58,8.36c1.45,0,2.63,1.18,2.63,2.64s-1.18,2.64-2.63,2.64-2.64-1.18-2.64-2.64,1.18-2.64,2.64-2.64Zm.83,2.64c0-.45-.38-.83-.83-.83s-.84.38-.84.83.38.83.84.83.83-.36.83-.83Z"/>
            <path class="cls-22" d="m29.58,10.17c.45,0,.83.38.83.83s-.38.83-.83.83-.84-.36-.84-.83.38-.83.84-.83Z"/>
          </g>
          <g>
            <polygon class="cls-34" points="29.49 40.67 28.43 40.67 27.54 40.67 26.48 40.82 25.56 41.13 24.52 41.43 23.61 41.73 22.71 42.18 21.79 42.64 21.03 43.09 20.14 43.69 19.38 44.3 18.62 44.9 17.86 45.66 17.11 46.41 16.52 47.17 15.91 47.92 15.31 48.68 14.69 49.58 14.24 50.49 13.63 51.39 13.19 52.3 12.89 53.36 12.44 54.26 12.14 55.32 11.83 56.23 11.53 57.28 11.38 58.34 11.22 59.4 11.07 60.45 10.92 61.51 10.92 62.57 10.92 63.62 10.92 64.68 10.92 65.74 11.07 66.79 11.22 67.85 11.38 68.91 11.53 69.97 11.83 71.02 12.14 71.93 12.44 72.99 12.89 73.89 13.19 74.95 13.63 75.85 14.24 76.76 14.69 77.67 15.31 78.42 15.91 79.33 16.52 80.08 17.11 80.84 17.86 81.59 18.62 82.35 19.38 82.95 20.14 83.55 21.03 84.16 21.79 84.61 22.71 85.06 23.61 85.52 24.52 85.82 25.56 86.12 26.48 86.27 27.54 86.42 28.43 86.57 29.49 86.57 30.56 86.57 31.46 86.42 32.51 86.27 33.41 86.12 34.33 85.82 35.39 85.52 36.28 85.06 37.19 84.61 37.96 84.16 38.86 83.55 39.62 82.95 40.36 82.35 41.11 81.59 41.88 80.84 42.49 80.08 43.09 79.33 43.68 78.42 44.28 77.67 44.74 76.76 45.35 75.85 45.81 74.95 46.11 73.89 46.56 72.99 46.86 71.93 47.17 71.02 47.3 69.97 47.61 68.91 47.76 67.85 47.91 66.79 48.06 65.74 48.06 64.68 48.06 63.62 48.06 62.57 48.06 61.51 47.91 60.45 47.76 59.4 47.61 58.34 47.3 57.28 47.17 56.23 46.86 55.32 46.56 54.26 46.11 53.36 45.81 52.3 45.35 51.39 44.74 50.49 44.28 49.58 43.68 48.68 43.09 47.92 42.49 47.17 41.88 46.41 41.11 45.66 40.36 44.9 39.62 44.3 38.86 43.69 37.96 43.09 37.19 42.64 36.28 42.18 35.39 41.73 34.33 41.43 33.41 41.13 32.51 40.82 31.46 40.67 30.56 40.67 29.49 40.67"/>
            <path class="cls-31" d="m30.41,92.37h-1.52s-.08,0-.11-.02l-.4-.13h-1.44l-.7-.16h-.37s-.08,0-.11,0l-.85-.28h-.53s-.08,0-.11-.02l-2.28-.76s-.06-.02-.09-.04l-.41-.28-.85-.29s-.06-.02-.08-.04l-.41-.28-.41-.14s-.06-.02-.09-.04l-.41-.28-.41-.14s-.06-.02-.08-.04l-.47-.3-.3-.29-.38-.12s-.06-.02-.09-.04l-.45-.3-.35-.35-.39-.25-.36-.35-.4-.26-.36-.35-.41-.25-.36-.35-.72-.58-1.25-1.57-.58-.57-1.24-1.54-.5-.97-.44-.73-.57-.72s-.05-.07-.06-.11l-.3-.91-.42-.68-.47-.93-.62-1.86-.31-.73-.92-2.74-.76-4.74v-1.87s-.15-1.01-.15-1.01v-.96s.15-.97.15-.97v-.85s.14-.96.14-.96v-.85s.45-2.93.45-2.93l.32-.96.14-.85.93-2.78.31-.77.47-.93.28-.86.49-.83.43-.88.92-1.54.61-.92c.11-.17.33-.21.5-.1.17.11.21.33.1.5l-1.5,2.4-.43.88-.47.78-.27.83-.47.95-.6,1.62-.6,1.81-.14.85-.32.96-.44,2.81v.85s-.14.96-.14.96v.85s-.15.97-.15.97v.85s.15,1.01.15,1.01v1.86s.74,4.62.74,4.62l.89,2.66.31.73.61,1.84.43.86.44.73.31.92.55.71.48.79.47.93,1.18,1.45.58.57,1.22,1.54.7.55.33.33.41.25.36.35.4.26.36.35.4.26.35.35.35.22.41.14c.05.02.1.05.14.09l.3.3.37.23.41.14s.06.02.09.04l.41.28.41.14s.06.02.09.04l.41.28.85.29s.06.02.09.04l.41.28,2.18.72h.53s.08,0,.11.02l.85.28h.39l.7.16h1.41s.08,0,.11,0l.4.13h1.41l.4-.13s.08-.02.11-.02h1l.38-.13s.08-.02.12-.02h.45l.52-.14h.48s3.68-1.19,3.68-1.19l.43-.28s.05-.03.08-.04l.86-.29,1.61-1.03s.06-.03.09-.04l.37-.12.24-.24.97-.65.25-.26.51-.35.25-.26.49-.34.55-.56.46-.31.58-.71.63-.63,1.77-2.23.43-.72,1.52-2.42.27-.83.47-.95.45-.78,1.18-3.56.29-1.76.33-.96.29-1.75v-.85s.15-1.11.15-1.11v-5.54s-.77-4.47-.77-4.47l-1.79-5.39-.42-.68-.33-.98-.42-.68-.47-.93-.57-.69-.62-.96-.44-.56c-.12-.16-.1-.38.06-.51.16-.12.38-.1.51.06l.6.75.48.8.59.71.5.97.44.73.33.98.42.68,1.83,5.51.78,4.58v5.65s-.15,1.11-.15,1.11v.86s-.3,1.87-.3,1.87l-.33.96-.29,1.75-1.22,3.68-.47.82-.44.88-.28.86-.95,1.58-1.06,1.66-1.83,2.3-.63.63-.59.73s-.05.05-.08.07l-.45.3-.55.56-.49.34-.25.26-.51.35-.25.26-.98.65-.24.25s-.09.07-.14.09l-.41.13-1.61,1.03s-.06.03-.09.04l-.86.29-.43.28s-.05.03-.08.04l-1.8.6-1.98.61s-.07.02-.11.02h-.45l-.52.14h-.48s-.39.14-.39.14c-.04.01-.08.02-.12.02h-1l-.4.13s-.08.02-.11.02Z"/>
            <path class="cls-31" d="m58.49,28.2H.36c-.2,0-.36-.16-.36-.36V.36c0-.2.16-.36.36-.36h58.13c.2,0,.36.16.36.36v27.48c0,.2-.16.36-.36.36ZM.72,27.48h57.41V.72H.72v26.76Z"/>
            <path class="cls-31" d="m11.09,45.69c-.07,0-.15-.02-.21-.07-.16-.12-.19-.34-.08-.5,3.72-5.05,6.23-11.05,7.26-17.33,0-.2.16-.34.36-.34s.36.18.36.38c-1.05,6.48-3.6,12.58-7.39,17.73-.07.1-.18.15-.29.15Z"/>
            <path class="cls-31" d="m48.05,45.69c-.11,0-.22-.05-.29-.15-3.79-5.15-6.35-11.25-7.39-17.65,0-.2.16-.4.36-.4s.36.12.36.32v.03c1.02,6.23,3.53,12.22,7.25,17.28.12.16.08.39-.08.5-.06.05-.14.07-.21.07Z"/>
            <circle class="cls-34" cx="29.58" cy="51.02" r="5.21"/>
            <path class="cls-34" d="m29.58,8.36c-1.46,0-2.64,1.18-2.64,2.64s1.18,2.64,2.64,2.64,2.63-1.18,2.63-2.64-1.18-2.64-2.63-2.64Z"/>
            <path class="cls-34" d="m29.58,10.17c-.47,0-.84.38-.84.83s.38.83.84.83.83-.36.83-.83-.38-.83-.83-.83Z"/>
          </g>
        </g>
        <g class="cls-29">
          <path class="cls-9" d="m45.01,40.77c2.15,3.3-33.49,2.62-30.96-.37,2.52-2.99,4.37-12.58,4.37-12.58h22.31s2.13,9.66,4.28,12.96Z"/>
        </g>
      </g>
    </g>
  </g>
</svg>