<?xml version="1.0" encoding="UTF-8"?>
<svg xmlns="http://www.w3.org/2000/svg" xmlns:xlink="http://www.w3.org/1999/xlink" viewBox="0 0 429.58 360.99">
  <defs>
    <style>
      .cls-1 {
        fill: url(#linear-gradient-3);
      }

      .cls-1, .cls-2, .cls-3, .cls-4, .cls-5, .cls-6, .cls-7, .cls-8 {
        mix-blend-mode: multiply;
      }

      .cls-9 {
        fill: #9a9dad;
      }

      .cls-10 {
        filter: url(#luminosity-noclip-7);
      }

      .cls-2 {
        fill: url(#linear-gradient);
      }

      .cls-3 {
        fill: url(#linear-gradient-4);
      }

      .cls-11 {
        filter: url(#luminosity-noclip-5);
      }

      .cls-12 {
        fill: #e9e9ed;
      }

      .cls-13 {
        mask: url(#mask-2);
      }

      .cls-14 {
        isolation: isolate;
      }

      .cls-15 {
        fill: #cbccd5;
      }

      .cls-16 {
        mask: url(#mask-3);
      }

      .cls-4 {
        fill: url(#linear-gradient-6);
      }

      .cls-17 {
        fill: #d7d8de;
      }

      .cls-18 {
        fill: #ebebef;
      }

      .cls-5 {
        fill: url(#linear-gradient-5);
      }

      .cls-19 {
        mask: url(#mask-5);
      }

      .cls-20 {
        fill: #d3d4db;
      }

      .cls-6 {
        fill: url(#linear-gradient-8);
      }

      .cls-21 {
        fill: #dbdce2;
      }

      .cls-22 {
        fill: #eeeef1;
      }

      .cls-23 {
        mask: url(#mask-4);
      }

      .cls-24 {
        fill: #f2f2f4;
      }

      .cls-25 {
        fill: #d2d3da;
      }

      .cls-7 {
        fill: url(#linear-gradient-2);
      }

      .cls-26 {
        mask: url(#mask-6);
      }

      .cls-27 {
        filter: url(#luminosity-noclip);
      }

      .cls-28 {
        mask: url(#mask-1);
      }

      .cls-29 {
        mask: url(#mask);
      }

      .cls-8 {
        fill: url(#linear-gradient-7);
      }

      .cls-30 {
        mask: url(#mask-7);
      }

      .cls-31 {
        fill: #e4e5e9;
      }

      .cls-32 {
        fill: #e0e1e6;
      }

      .cls-33 {
        fill: #def0fa;
      }

      .cls-34 {
        filter: url(#luminosity-noclip-3);
      }
    </style>
    <filter id="luminosity-noclip" x="29.54" y="29.56" width="38.85" height="294.23" color-interpolation-filters="sRGB" filterUnits="userSpaceOnUse">
      <feFlood flood-color="#fff" result="bg"/>
      <feBlend in="SourceGraphic" in2="bg"/>
    </filter>
    <filter id="luminosity-noclip-2" x="29.54" y="-8372" width="38.85" height="32766" color-interpolation-filters="sRGB" filterUnits="userSpaceOnUse">
      <feFlood flood-color="#fff" result="bg"/>
      <feBlend in="SourceGraphic" in2="bg"/>
    </filter>
    <mask id="mask-1" x="29.54" y="-8372" width="38.85" height="32766" maskUnits="userSpaceOnUse"/>
    <linearGradient id="linear-gradient" x1="29.54" y1="176.68" x2="68.4" y2="176.68" gradientUnits="userSpaceOnUse">
      <stop offset="0" stop-color="#fff"/>
      <stop offset=".17" stop-color="#d9d9d9"/>
      <stop offset=".55" stop-color="#797979"/>
      <stop offset="1" stop-color="#000"/>
    </linearGradient>
    <mask id="mask" x="29.54" y="29.56" width="38.85" height="294.23" maskUnits="userSpaceOnUse">
      <g class="cls-27">
        <g class="cls-28">
          <rect class="cls-2" x="29.54" y="29.56" width="38.85" height="294.23"/>
        </g>
      </g>
    </mask>
    <linearGradient id="linear-gradient-2" x1="29.54" y1="176.68" x2="68.4" y2="176.68" gradientUnits="userSpaceOnUse">
      <stop offset="0" stop-color="#747474"/>
      <stop offset=".3" stop-color="#999"/>
      <stop offset=".95" stop-color="#f7f7f7"/>
      <stop offset="1" stop-color="#fff"/>
    </linearGradient>
    <filter id="luminosity-noclip-3" x="1.01" y="353.34" width="428.57" height="7.66" color-interpolation-filters="sRGB" filterUnits="userSpaceOnUse">
      <feFlood flood-color="#fff" result="bg"/>
      <feBlend in="SourceGraphic" in2="bg"/>
    </filter>
    <filter id="luminosity-noclip-4" x="1.01" y="-8372" width="428.57" height="32766" color-interpolation-filters="sRGB" filterUnits="userSpaceOnUse">
      <feFlood flood-color="#fff" result="bg"/>
      <feBlend in="SourceGraphic" in2="bg"/>
    </filter>
    <mask id="mask-3" x="1.01" y="-8372" width="428.57" height="32766" maskUnits="userSpaceOnUse"/>
    <linearGradient id="linear-gradient-3" x1="617.84" y1="296.18" x2="625.5" y2="296.18" gradientTransform="translate(511.47 -264.5) rotate(90)" xlink:href="#linear-gradient"/>
    <mask id="mask-2" x="1.01" y="353.34" width="428.57" height="7.66" maskUnits="userSpaceOnUse">
      <g class="cls-34">
        <g class="cls-16">
          <polygon class="cls-1" points="1.01 360.99 1.01 353.34 421.79 353.34 429.58 360.99 1.01 360.99"/>
        </g>
      </g>
    </mask>
    <linearGradient id="linear-gradient-4" x1="617.84" y1="296.18" x2="625.5" y2="296.18" gradientTransform="translate(511.47 -264.5) rotate(90)" gradientUnits="userSpaceOnUse">
      <stop offset="0" stop-color="#000"/>
      <stop offset=".17" stop-color="#252525"/>
      <stop offset=".55" stop-color="#858585"/>
      <stop offset="1" stop-color="#fff"/>
    </linearGradient>
    <filter id="luminosity-noclip-5" x="421.92" y="0" width="7.66" height="360.99" color-interpolation-filters="sRGB" filterUnits="userSpaceOnUse">
      <feFlood flood-color="#fff" result="bg"/>
      <feBlend in="SourceGraphic" in2="bg"/>
    </filter>
    <filter id="luminosity-noclip-6" x="421.92" y="-8372" width="7.66" height="32766" color-interpolation-filters="sRGB" filterUnits="userSpaceOnUse">
      <feFlood flood-color="#fff" result="bg"/>
      <feBlend in="SourceGraphic" in2="bg"/>
    </filter>
    <mask id="mask-5" x="421.92" y="-8372" width="7.66" height="32766" maskUnits="userSpaceOnUse"/>
    <linearGradient id="linear-gradient-5" x1="307.38" y1="145.64" x2="315.04" y2="145.64" gradientTransform="translate(114.54 34.86)" xlink:href="#linear-gradient"/>
    <mask id="mask-4" x="421.92" y="0" width="7.66" height="360.99" maskUnits="userSpaceOnUse">
      <g class="cls-11">
        <g class="cls-19">
          <polygon class="cls-5" points="429.58 360.99 421.92 353.34 421.92 0 429.58 0 429.58 360.99"/>
        </g>
      </g>
    </mask>
    <linearGradient id="linear-gradient-6" x1="307.38" y1="145.64" x2="315.04" y2="145.64" gradientTransform="translate(114.54 34.86)" xlink:href="#linear-gradient-4"/>
    <filter id="luminosity-noclip-7" x="28.53" y="29.56" width="197.82" height="38.85" color-interpolation-filters="sRGB" filterUnits="userSpaceOnUse">
      <feFlood flood-color="#fff" result="bg"/>
      <feBlend in="SourceGraphic" in2="bg"/>
    </filter>
    <filter id="luminosity-noclip-8" x="28.53" y="-8372" width="197.82" height="32766" color-interpolation-filters="sRGB" filterUnits="userSpaceOnUse">
      <feFlood flood-color="#fff" result="bg"/>
      <feBlend in="SourceGraphic" in2="bg"/>
    </filter>
    <mask id="mask-7" x="28.53" y="-8372" width="197.82" height="32766" maskUnits="userSpaceOnUse"/>
    <linearGradient id="linear-gradient-7" x1="396.25" y1="197.01" x2="435.1" y2="197.01" gradientTransform="translate(-288.23 -148.02)" xlink:href="#linear-gradient"/>
    <mask id="mask-6" x="28.53" y="29.56" width="197.82" height="38.85" maskUnits="userSpaceOnUse">
      <g class="cls-10">
        <g class="cls-30">
          <rect class="cls-8" x="108.02" y="-49.92" width="38.85" height="197.82" transform="translate(176.43 -78.46) rotate(90)"/>
        </g>
      </g>
    </mask>
    <linearGradient id="linear-gradient-8" x1="396.25" y1="197.01" x2="435.1" y2="197.01" gradientTransform="translate(-288.23 -148.02)" xlink:href="#linear-gradient-2"/>
  </defs>
  <g class="cls-14">
    <g id="Layer_1" data-name="Layer 1">
      <g>
        <polygon class="cls-31" points="421.92 340.18 421.92 353.34 407.15 353.34 407.15 340.18 417.07 340.18 421.92 340.18"/>
        <rect class="cls-12" x="417.07" y="320.15" width="4.86" height="20.03"/>
        <polygon class="cls-31" points="421.92 300.32 421.92 320.15 417.07 320.15 407.15 320.15 407.15 300.32 417.07 300.32 421.92 300.32"/>
        <rect class="cls-12" x="417.07" y="280.29" width="4.86" height="20.03"/>
        <polygon class="cls-12" points="421.92 260.45 421.92 280.29 417.07 280.29 407.15 280.29 407.15 260.45 417.07 260.45 421.92 260.45"/>
        <rect class="cls-12" x="417.07" y="240.42" width="4.86" height="20.03"/>
        <polygon class="cls-32" points="421.92 220.59 421.92 240.42 417.07 240.42 407.15 240.42 407.15 220.59 417.07 220.59 421.92 220.59"/>
        <rect class="cls-12" x="417.07" y="200.56" width="4.86" height="20.03"/>
        <polygon class="cls-32" points="421.92 180.72 421.92 200.56 417.07 200.56 407.15 200.56 407.15 180.72 417.07 180.72 421.92 180.72"/>
        <rect class="cls-12" x="417.07" y="160.69" width="4.86" height="20.03"/>
        <polygon class="cls-32" points="421.92 140.86 421.92 160.69 417.07 160.69 407.15 160.69 407.15 140.86 417.07 140.86 421.92 140.86"/>
        <rect class="cls-22" x="417.07" y="120.83" width="4.86" height="20.03"/>
        <polygon class="cls-32" points="421.92 100.99 421.92 120.83 417.07 120.83 407.15 120.83 407.15 100.99 417.07 100.99 421.92 100.99"/>
        <rect class="cls-22" x="417.07" y="80.96" width="4.86" height="20.03"/>
        <polygon class="cls-15" points="421.92 61.13 421.92 80.96 417.07 80.96 407.15 80.96 407.15 61.13 417.07 61.13 421.92 61.13"/>
        <rect class="cls-32" x="417.07" y="41.1" width="4.86" height="20.03"/>
        <polygon class="cls-21" points="421.92 21.26 421.92 41.1 417.07 41.1 407.15 41.1 407.15 21.26 417.07 21.26 421.92 21.26"/>
        <rect class="cls-22" x="417.07" y="1.23" width="4.86" height="20.03"/>
        <polygon class="cls-21" points="421.92 .22 421.92 1.23 417.07 1.23 407.15 1.23 407.15 .22 421.92 .22"/>
        <polygon class="cls-31" points="417.07 320.15 417.07 340.18 407.15 340.18 397.23 340.18 397.23 320.15 407.15 320.15 417.07 320.15"/>
        <polygon class="cls-12" points="417.07 280.29 417.07 300.32 407.15 300.32 397.23 300.32 397.23 280.29 407.15 280.29 417.07 280.29"/>
        <polygon class="cls-32" points="417.07 240.42 417.07 260.45 407.15 260.45 397.23 260.45 397.23 240.42 407.15 240.42 417.07 240.42"/>
        <polygon class="cls-15" points="417.07 200.56 417.07 220.59 407.15 220.59 397.23 220.59 397.23 200.56 407.15 200.56 417.07 200.56"/>
        <polygon class="cls-32" points="417.07 160.69 417.07 180.72 407.15 180.72 397.23 180.72 397.23 160.69 407.15 160.69 417.07 160.69"/>
        <polygon class="cls-22" points="417.07 120.83 417.07 140.86 407.15 140.86 397.23 140.86 397.23 120.83 407.15 120.83 417.07 120.83"/>
        <polygon class="cls-22" points="417.07 80.96 417.07 100.99 407.15 100.99 397.23 100.99 397.23 80.96 407.15 80.96 417.07 80.96"/>
        <polygon class="cls-21" points="417.07 41.1 417.07 61.13 407.15 61.13 397.23 61.13 397.23 41.1 407.15 41.1 417.07 41.1"/>
        <polygon class="cls-21" points="417.07 1.23 417.07 21.26 407.15 21.26 397.23 21.26 397.23 1.23 407.15 1.23 417.07 1.23"/>
        <polygon class="cls-31" points="407.15 340.18 407.15 353.34 387.32 353.34 387.32 340.18 397.23 340.18 407.15 340.18"/>
        <polygon class="cls-31" points="407.15 300.32 407.15 320.15 397.23 320.15 387.32 320.15 387.32 300.32 397.23 300.32 407.15 300.32"/>
        <polygon class="cls-32" points="407.15 260.45 407.15 280.29 397.23 280.29 387.32 280.29 387.32 260.45 397.23 260.45 407.15 260.45"/>
        <polygon class="cls-22" points="407.15 220.59 407.15 240.42 397.23 240.42 387.32 240.42 387.32 220.59 397.23 220.59 407.15 220.59"/>
        <polygon class="cls-22" points="407.15 180.72 407.15 200.56 397.23 200.56 387.32 200.56 387.32 180.72 397.23 180.72 407.15 180.72"/>
        <polygon class="cls-32" points="407.15 140.86 407.15 160.69 397.23 160.69 387.32 160.69 387.32 140.86 397.23 140.86 407.15 140.86"/>
        <polygon class="cls-22" points="407.15 100.99 407.15 120.83 397.23 120.83 387.32 120.83 387.32 100.99 397.23 100.99 407.15 100.99"/>
        <polygon class="cls-22" points="407.15 61.13 407.15 80.96 397.23 80.96 387.32 80.96 387.32 61.13 397.23 61.13 407.15 61.13"/>
        <polygon class="cls-22" points="407.15 21.26 407.15 41.1 397.23 41.1 387.32 41.1 387.32 21.26 397.23 21.26 407.15 21.26"/>
        <polygon class="cls-17" points="407.15 .22 407.15 1.23 397.23 1.23 387.32 1.23 387.32 .22 407.15 .22"/>
        <polygon class="cls-20" points="397.23 320.15 397.23 340.18 387.32 340.18 377.2 340.18 377.2 320.15 387.32 320.15 397.23 320.15"/>
        <polygon class="cls-24" points="397.23 280.29 397.23 300.32 387.32 300.32 377.2 300.32 377.2 280.29 387.32 280.29 397.23 280.29"/>
        <polygon class="cls-22" points="397.23 240.42 397.23 260.45 387.32 260.45 377.2 260.45 377.2 240.42 387.32 240.42 397.23 240.42"/>
        <polygon class="cls-22" points="397.23 200.56 397.23 220.59 387.32 220.59 377.2 220.59 377.2 200.56 387.32 200.56 397.23 200.56"/>
        <polygon class="cls-22" points="397.23 160.69 397.23 180.72 387.32 180.72 377.2 180.72 377.2 160.69 387.32 160.69 397.23 160.69"/>
        <polygon class="cls-32" points="397.23 120.83 397.23 140.86 387.32 140.86 377.2 140.86 377.2 120.83 387.32 120.83 397.23 120.83"/>
        <polygon class="cls-22" points="397.23 80.96 397.23 100.99 387.32 100.99 377.2 100.99 377.2 80.96 387.32 80.96 397.23 80.96"/>
        <polygon class="cls-31" points="397.23 41.1 397.23 61.13 387.32 61.13 377.2 61.13 377.2 41.1 387.32 41.1 397.23 41.1"/>
        <polygon class="cls-15" points="397.23 1.23 397.23 21.26 387.32 21.26 377.2 21.26 377.2 1.23 387.32 1.23 397.23 1.23"/>
        <polygon class="cls-20" points="387.32 340.18 387.32 353.34 367.28 353.34 367.28 340.18 377.2 340.18 387.32 340.18"/>
        <polygon class="cls-15" points="387.32 300.32 387.32 320.15 377.2 320.15 367.28 320.15 367.28 300.32 377.2 300.32 387.32 300.32"/>
        <polygon class="cls-24" points="387.32 260.45 387.32 280.29 377.2 280.29 367.28 280.29 367.28 260.45 377.2 260.45 387.32 260.45"/>
        <polygon class="cls-22" points="387.32 220.59 387.32 240.42 377.2 240.42 367.28 240.42 367.28 220.59 377.2 220.59 387.32 220.59"/>
        <polygon class="cls-12" points="387.32 180.72 387.32 200.56 377.2 200.56 367.28 200.56 367.28 180.72 377.2 180.72 387.32 180.72"/>
        <polygon class="cls-32" points="387.32 140.86 387.32 160.69 377.2 160.69 367.28 160.69 367.28 140.86 377.2 140.86 387.32 140.86"/>
        <polygon class="cls-12" points="387.32 100.99 387.32 120.83 377.2 120.83 367.28 120.83 367.28 100.99 377.2 100.99 387.32 100.99"/>
        <polygon class="cls-21" points="387.32 61.13 387.32 80.96 377.2 80.96 367.28 80.96 367.28 61.13 377.2 61.13 387.32 61.13"/>
        <polygon class="cls-22" points="387.32 21.26 387.32 41.1 377.2 41.1 367.28 41.1 367.28 21.26 377.2 21.26 387.32 21.26"/>
        <polygon class="cls-21" points="387.32 .22 387.32 1.23 377.2 1.23 367.28 1.23 367.28 .22 387.32 .22"/>
        <polygon class="cls-12" points="377.2 320.15 377.2 340.18 367.28 340.18 357.37 340.18 357.37 320.15 367.28 320.15 377.2 320.15"/>
        <polygon class="cls-32" points="377.2 280.29 377.2 300.32 367.28 300.32 357.37 300.32 357.37 280.29 367.28 280.29 377.2 280.29"/>
        <polygon class="cls-15" points="377.2 240.42 377.2 260.45 367.28 260.45 357.37 260.45 357.37 240.42 367.28 240.42 377.2 240.42"/>
        <polygon class="cls-22" points="377.2 200.56 377.2 220.59 367.28 220.59 357.37 220.59 357.37 200.56 367.28 200.56 377.2 200.56"/>
        <polygon class="cls-22" points="377.2 160.69 377.2 180.72 367.28 180.72 357.37 180.72 357.37 160.69 367.28 160.69 377.2 160.69"/>
        <polygon class="cls-12" points="377.2 120.83 377.2 140.86 367.28 140.86 357.37 140.86 357.37 120.83 367.28 120.83 377.2 120.83"/>
        <polygon class="cls-31" points="377.2 80.96 377.2 100.99 367.28 100.99 357.37 100.99 357.37 80.96 367.28 80.96 377.2 80.96"/>
        <polygon class="cls-22" points="377.2 41.1 377.2 61.13 367.28 61.13 357.37 61.13 357.37 41.1 367.28 41.1 377.2 41.1"/>
        <polygon class="cls-31" points="377.2 1.23 377.2 21.26 367.28 21.26 357.37 21.26 357.37 1.23 367.28 1.23 377.2 1.23"/>
        <polygon class="cls-12" points="367.28 340.18 367.28 353.34 347.45 353.34 347.45 340.18 357.37 340.18 367.28 340.18"/>
        <polygon class="cls-31" points="367.28 300.32 367.28 320.15 357.37 320.15 347.45 320.15 347.45 300.32 357.37 300.32 367.28 300.32"/>
        <polygon class="cls-12" points="367.28 260.45 367.28 280.29 357.37 280.29 347.45 280.29 347.45 260.45 357.37 260.45 367.28 260.45"/>
        <polygon class="cls-15" points="367.28 220.59 367.28 240.42 357.37 240.42 347.45 240.42 347.45 220.59 357.37 220.59 367.28 220.59"/>
        <polygon class="cls-22" points="367.28 180.72 367.28 200.56 357.37 200.56 347.45 200.56 347.45 180.72 357.37 180.72 367.28 180.72"/>
        <polygon class="cls-22" points="367.28 140.86 367.28 160.69 357.37 160.69 347.45 160.69 347.45 140.86 357.37 140.86 367.28 140.86"/>
        <polygon class="cls-12" points="367.28 100.99 367.28 120.83 357.37 120.83 347.45 120.83 347.45 100.99 357.37 100.99 367.28 100.99"/>
        <polygon class="cls-31" points="367.28 61.13 367.28 80.96 357.37 80.96 347.45 80.96 347.45 61.13 357.37 61.13 367.28 61.13"/>
        <polygon class="cls-31" points="367.28 21.26 367.28 41.1 357.37 41.1 347.45 41.1 347.45 21.26 357.37 21.26 367.28 21.26"/>
        <polygon class="cls-17" points="367.28 .22 367.28 1.23 357.37 1.23 347.45 1.23 347.45 .22 367.28 .22"/>
        <polygon class="cls-15" points="357.37 320.15 357.37 340.18 347.45 340.18 337.34 340.18 337.34 320.15 347.45 320.15 357.37 320.15"/>
        <polygon class="cls-12" points="357.37 280.29 357.37 300.32 347.45 300.32 337.34 300.32 337.34 280.29 347.45 280.29 357.37 280.29"/>
        <polygon class="cls-32" points="357.37 240.42 357.37 260.45 347.45 260.45 337.34 260.45 337.34 240.42 347.45 240.42 357.37 240.42"/>
        <polygon class="cls-32" points="357.37 200.56 357.37 220.59 347.45 220.59 337.34 220.59 337.34 200.56 347.45 200.56 357.37 200.56"/>
        <polygon class="cls-15" points="357.37 160.69 357.37 180.72 347.45 180.72 337.34 180.72 337.34 160.69 347.45 160.69 357.37 160.69"/>
        <polygon class="cls-22" points="357.37 120.83 357.37 140.86 347.45 140.86 337.34 140.86 337.34 120.83 347.45 120.83 357.37 120.83"/>
        <polygon class="cls-31" points="357.37 80.96 357.37 100.99 347.45 100.99 337.34 100.99 337.34 80.96 347.45 80.96 357.37 80.96"/>
        <polygon class="cls-31" points="357.37 41.1 357.37 61.13 347.45 61.13 337.34 61.13 337.34 41.1 347.45 41.1 357.37 41.1"/>
        <polygon class="cls-22" points="357.37 1.23 357.37 21.26 347.45 21.26 337.34 21.26 337.34 1.23 347.45 1.23 357.37 1.23"/>
        <polygon class="cls-12" points="347.45 340.18 347.45 353.34 327.42 353.34 327.42 340.18 337.34 340.18 347.45 340.18"/>
        <polygon class="cls-20" points="347.45 300.32 347.45 320.15 337.34 320.15 327.42 320.15 327.42 300.32 337.34 300.32 347.45 300.32"/>
        <polygon class="cls-32" points="347.45 260.45 347.45 280.29 337.34 280.29 327.42 280.29 327.42 260.45 337.34 260.45 347.45 260.45"/>
        <polygon class="cls-22" points="347.45 220.59 347.45 240.42 337.34 240.42 327.42 240.42 327.42 220.59 337.34 220.59 347.45 220.59"/>
        <polygon class="cls-12" points="347.45 180.72 347.45 200.56 337.34 200.56 327.42 200.56 327.42 180.72 337.34 180.72 347.45 180.72"/>
        <polygon class="cls-32" points="347.45 140.86 347.45 160.69 337.34 160.69 327.42 160.69 327.42 140.86 337.34 140.86 347.45 140.86"/>
        <polygon class="cls-32" points="347.45 100.99 347.45 120.83 337.34 120.83 327.42 120.83 327.42 100.99 337.34 100.99 347.45 100.99"/>
        <polygon class="cls-22" points="347.45 61.13 347.45 80.96 337.34 80.96 327.42 80.96 327.42 61.13 337.34 61.13 347.45 61.13"/>
        <polygon class="cls-22" points="347.45 21.26 347.45 41.1 337.34 41.1 327.42 41.1 327.42 21.26 337.34 21.26 347.45 21.26"/>
        <polygon class="cls-21" points="347.45 .22 347.45 1.23 337.34 1.23 327.42 1.23 327.42 .22 347.45 .22"/>
        <polygon class="cls-31" points="337.34 320.15 337.34 340.18 327.42 340.18 317.5 340.18 317.5 320.15 327.42 320.15 337.34 320.15"/>
        <polygon class="cls-12" points="337.34 280.29 337.34 300.32 327.42 300.32 317.5 300.32 317.5 280.29 327.42 280.29 337.34 280.29"/>
        <polygon class="cls-20" points="337.34 240.42 337.34 260.45 327.42 260.45 317.5 260.45 317.5 240.42 327.42 240.42 337.34 240.42"/>
        <polygon class="cls-15" points="337.34 200.56 337.34 220.59 327.42 220.59 317.5 220.59 317.5 200.56 327.42 200.56 337.34 200.56"/>
        <polygon class="cls-20" points="337.34 160.69 337.34 180.72 327.42 180.72 317.5 180.72 317.5 160.69 327.42 160.69 337.34 160.69"/>
        <polygon class="cls-20" points="337.34 120.83 337.34 140.86 327.42 140.86 317.5 140.86 317.5 120.83 327.42 120.83 337.34 120.83"/>
        <polygon class="cls-20" points="337.34 80.96 337.34 100.99 327.42 100.99 317.5 100.99 317.5 80.96 327.42 80.96 337.34 80.96"/>
        <polygon class="cls-22" points="337.34 41.1 337.34 61.13 327.42 61.13 317.5 61.13 317.5 41.1 327.42 41.1 337.34 41.1"/>
        <polygon class="cls-31" points="337.34 1.23 337.34 21.26 327.42 21.26 317.5 21.26 317.5 1.23 327.42 1.23 337.34 1.23"/>
        <polygon class="cls-15" points="327.42 340.18 327.42 353.34 307.59 353.34 307.59 340.18 317.5 340.18 327.42 340.18"/>
        <polygon class="cls-20" points="327.42 300.32 327.42 320.15 317.5 320.15 307.59 320.15 307.59 300.32 317.5 300.32 327.42 300.32"/>
        <polygon class="cls-24" points="327.42 260.45 327.42 280.29 317.5 280.29 307.59 280.29 307.59 260.45 317.5 260.45 327.42 260.45"/>
        <polygon class="cls-24" points="327.42 220.59 327.42 240.42 317.5 240.42 307.59 240.42 307.59 220.59 317.5 220.59 327.42 220.59"/>
        <polygon class="cls-32" points="327.42 180.72 327.42 200.56 317.5 200.56 307.59 200.56 307.59 180.72 317.5 180.72 327.42 180.72"/>
        <polygon class="cls-22" points="327.42 140.86 327.42 160.69 317.5 160.69 307.59 160.69 307.59 140.86 317.5 140.86 327.42 140.86"/>
        <polygon class="cls-32" points="327.42 100.99 327.42 120.83 317.5 120.83 307.59 120.83 307.59 100.99 317.5 100.99 327.42 100.99"/>
        <polygon class="cls-21" points="327.42 61.13 327.42 80.96 317.5 80.96 307.59 80.96 307.59 61.13 317.5 61.13 327.42 61.13"/>
        <polygon class="cls-22" points="327.42 21.26 327.42 41.1 317.5 41.1 307.59 41.1 307.59 21.26 317.5 21.26 327.42 21.26"/>
        <polygon class="cls-21" points="327.42 .22 327.42 1.23 317.5 1.23 307.59 1.23 307.59 .22 327.42 .22"/>
        <polygon class="cls-31" points="317.5 320.15 317.5 340.18 307.59 340.18 297.47 340.18 297.47 320.15 307.59 320.15 317.5 320.15"/>
        <polygon class="cls-20" points="317.5 280.29 317.5 300.32 307.59 300.32 297.47 300.32 297.47 280.29 307.59 280.29 317.5 280.29"/>
        <polygon class="cls-31" points="317.5 240.42 317.5 260.45 307.59 260.45 297.47 260.45 297.47 240.42 307.59 240.42 317.5 240.42"/>
        <polygon class="cls-12" points="317.5 200.56 317.5 220.59 307.59 220.59 297.47 220.59 297.47 200.56 307.59 200.56 317.5 200.56"/>
        <polygon class="cls-24" points="317.5 160.69 317.5 180.72 307.59 180.72 297.47 180.72 297.47 160.69 307.59 160.69 317.5 160.69"/>
        <polygon class="cls-22" points="317.5 120.83 317.5 140.86 307.59 140.86 297.47 140.86 297.47 120.83 307.59 120.83 317.5 120.83"/>
        <polygon class="cls-32" points="317.5 80.96 317.5 100.99 307.59 100.99 297.47 100.99 297.47 80.96 307.59 80.96 317.5 80.96"/>
        <polygon class="cls-32" points="317.5 41.1 317.5 61.13 307.59 61.13 297.47 61.13 297.47 41.1 307.59 41.1 317.5 41.1"/>
        <polygon class="cls-22" points="317.5 1.23 317.5 21.26 307.59 21.26 297.47 21.26 297.47 1.23 307.59 1.23 317.5 1.23"/>
        <polygon class="cls-12" points="307.59 340.18 307.59 353.34 287.55 353.34 287.55 340.18 297.47 340.18 307.59 340.18"/>
        <polygon class="cls-31" points="307.59 300.32 307.59 320.15 297.47 320.15 287.55 320.15 287.55 300.32 297.47 300.32 307.59 300.32"/>
        <polygon class="cls-24" points="307.59 260.45 307.59 280.29 297.47 280.29 287.55 280.29 287.55 260.45 297.47 260.45 307.59 260.45"/>
        <polygon class="cls-24" points="307.59 220.59 307.59 240.42 297.47 240.42 287.55 240.42 287.55 220.59 297.47 220.59 307.59 220.59"/>
        <polygon class="cls-12" points="307.59 180.72 307.59 200.56 297.47 200.56 287.55 200.56 287.55 180.72 297.47 180.72 307.59 180.72"/>
        <polygon class="cls-20" points="307.59 140.86 307.59 160.69 297.47 160.69 287.55 160.69 287.55 140.86 297.47 140.86 307.59 140.86"/>
        <polygon class="cls-12" points="307.59 100.99 307.59 120.83 297.47 120.83 287.55 120.83 287.55 100.99 297.47 100.99 307.59 100.99"/>
        <polygon class="cls-15" points="307.59 61.13 307.59 80.96 297.47 80.96 287.55 80.96 287.55 61.13 297.47 61.13 307.59 61.13"/>
        <polygon class="cls-32" points="307.59 21.26 307.59 41.1 297.47 41.1 287.55 41.1 287.55 21.26 297.47 21.26 307.59 21.26"/>
        <polygon class="cls-17" points="307.59 .22 307.59 1.23 297.47 1.23 287.55 1.23 287.55 .22 307.59 .22"/>
        <polygon class="cls-15" points="297.47 320.15 297.47 340.18 287.55 340.18 277.64 340.18 277.64 320.15 287.55 320.15 297.47 320.15"/>
        <polygon class="cls-15" points="297.47 280.29 297.47 300.32 287.55 300.32 277.64 300.32 277.64 280.29 287.55 280.29 297.47 280.29"/>
        <polygon class="cls-31" points="297.47 240.42 297.47 260.45 287.55 260.45 277.64 260.45 277.64 240.42 287.55 240.42 297.47 240.42"/>
        <polygon class="cls-12" points="297.47 200.56 297.47 220.59 287.55 220.59 277.64 220.59 277.64 200.56 287.55 200.56 297.47 200.56"/>
        <polygon class="cls-24" points="297.47 160.69 297.47 180.72 287.55 180.72 277.64 180.72 277.64 160.69 287.55 160.69 297.47 160.69"/>
        <polygon class="cls-15" points="297.47 120.83 297.47 140.86 287.55 140.86 277.64 140.86 277.64 120.83 287.55 120.83 297.47 120.83"/>
        <polygon class="cls-32" points="297.47 80.96 297.47 100.99 287.55 100.99 277.64 100.99 277.64 80.96 287.55 80.96 297.47 80.96"/>
        <polygon class="cls-15" points="297.47 41.1 297.47 61.13 287.55 61.13 277.64 61.13 277.64 41.1 287.55 41.1 297.47 41.1"/>
        <polygon class="cls-32" points="297.47 1.23 297.47 21.26 287.55 21.26 277.64 21.26 277.64 1.23 287.55 1.23 297.47 1.23"/>
        <polygon class="cls-12" points="287.55 340.18 287.55 353.34 267.72 353.34 267.72 340.18 277.64 340.18 287.55 340.18"/>
        <polygon class="cls-20" points="287.55 300.32 287.55 320.15 277.64 320.15 267.72 320.15 267.72 300.32 277.64 300.32 287.55 300.32"/>
        <polygon class="cls-12" points="287.55 260.45 287.55 280.29 277.64 280.29 267.72 280.29 267.72 260.45 277.64 260.45 287.55 260.45"/>
        <polygon class="cls-12" points="287.55 220.59 287.55 240.42 277.64 240.42 267.72 240.42 267.72 220.59 277.64 220.59 287.55 220.59"/>
        <polygon class="cls-24" points="287.55 180.72 287.55 200.56 277.64 200.56 267.72 200.56 267.72 180.72 277.64 180.72 287.55 180.72"/>
        <polygon class="cls-32" points="287.55 140.86 287.55 160.69 277.64 160.69 267.72 160.69 267.72 140.86 277.64 140.86 287.55 140.86"/>
        <polygon class="cls-32" points="287.55 100.99 287.55 120.83 277.64 120.83 267.72 120.83 267.72 100.99 277.64 100.99 287.55 100.99"/>
        <polygon class="cls-32" points="287.55 61.13 287.55 80.96 277.64 80.96 267.72 80.96 267.72 61.13 277.64 61.13 287.55 61.13"/>
        <polygon class="cls-12" points="287.55 21.26 287.55 41.1 277.64 41.1 267.72 41.1 267.72 21.26 277.64 21.26 287.55 21.26"/>
        <polygon class="cls-21" points="287.55 .22 287.55 1.23 277.64 1.23 267.72 1.23 267.72 .22 287.55 .22"/>
        <polygon class="cls-12" points="277.64 320.15 277.64 340.18 267.72 340.18 257.81 340.18 257.81 320.15 267.72 320.15 277.64 320.15"/>
        <polygon class="cls-12" points="277.64 280.29 277.64 300.32 267.72 300.32 257.81 300.32 257.81 280.29 267.72 280.29 277.64 280.29"/>
        <polygon class="cls-20" points="277.64 240.42 277.64 260.45 267.72 260.45 257.81 260.45 257.81 240.42 267.72 240.42 277.64 240.42"/>
        <polygon class="cls-20" points="277.64 200.56 277.64 220.59 267.72 220.59 257.81 220.59 257.81 200.56 267.72 200.56 277.64 200.56"/>
        <polygon class="cls-12" points="277.64 160.69 277.64 180.72 267.72 180.72 257.81 180.72 257.81 160.69 267.72 160.69 277.64 160.69"/>
        <polygon class="cls-12" points="277.64 120.83 277.64 140.86 267.72 140.86 257.81 140.86 257.81 120.83 267.72 120.83 277.64 120.83"/>
        <polygon class="cls-15" points="277.64 80.96 277.64 100.99 267.72 100.99 257.81 100.99 257.81 80.96 267.72 80.96 277.64 80.96"/>
        <polygon class="cls-32" points="277.64 41.1 277.64 61.13 267.72 61.13 257.81 61.13 257.81 41.1 267.72 41.1 277.64 41.1"/>
        <polygon class="cls-15" points="277.64 1.23 277.64 21.26 267.72 21.26 257.81 21.26 257.81 1.23 267.72 1.23 277.64 1.23"/>
        <polygon class="cls-20" points="267.72 340.18 267.72 353.34 247.69 353.34 247.69 340.18 257.81 340.18 267.72 340.18"/>
        <polygon class="cls-12" points="267.72 300.32 267.72 320.15 257.81 320.15 247.69 320.15 247.69 300.32 257.81 300.32 267.72 300.32"/>
        <polygon class="cls-12" points="267.72 220.59 267.72 240.42 257.81 240.42 247.69 240.42 247.69 220.59 257.81 220.59 267.72 220.59"/>
        <polygon class="cls-12" points="267.72 180.72 267.72 200.56 257.81 200.56 247.69 200.56 247.69 180.72 257.81 180.72 267.72 180.72"/>
        <polygon class="cls-15" points="267.72 140.86 267.72 160.69 257.81 160.69 247.69 160.69 247.69 140.86 257.81 140.86 267.72 140.86"/>
        <polygon class="cls-32" points="267.72 100.99 267.72 120.83 257.81 120.83 247.69 120.83 247.69 100.99 257.81 100.99 267.72 100.99"/>
        <polygon class="cls-32" points="267.72 61.13 267.72 80.96 257.81 80.96 247.69 80.96 247.69 61.13 257.81 61.13 267.72 61.13"/>
        <polygon class="cls-32" points="267.72 21.26 267.72 41.1 257.81 41.1 247.69 41.1 247.69 21.26 257.81 21.26 267.72 21.26"/>
        <polygon class="cls-21" points="267.72 .22 267.72 1.23 257.81 1.23 247.69 1.23 247.69 .22 267.72 .22"/>
        <polygon class="cls-12" points="257.81 320.15 257.81 340.18 247.69 340.18 237.77 340.18 237.77 320.15 247.69 320.15 257.81 320.15"/>
        <polygon class="cls-31" points="257.81 280.29 257.81 300.32 247.69 300.32 237.77 300.32 237.77 280.29 247.69 280.29 257.81 280.29"/>
        <polygon class="cls-15" points="257.81 200.56 257.81 220.59 247.69 220.59 237.77 220.59 237.77 200.56 247.69 200.56 257.81 200.56"/>
        <polygon class="cls-12" points="257.81 160.69 257.81 180.72 247.69 180.72 237.77 180.72 237.77 160.69 247.69 160.69 257.81 160.69"/>
        <polygon class="cls-15" points="257.81 120.83 257.81 140.86 247.69 140.86 237.77 140.86 237.77 120.83 247.69 120.83 257.81 120.83"/>
        <polygon class="cls-24" points="257.81 80.96 257.81 100.99 247.69 100.99 237.77 100.99 237.77 80.96 247.69 80.96 257.81 80.96"/>
        <polygon class="cls-12" points="257.81 41.1 257.81 61.13 247.69 61.13 237.77 61.13 237.77 41.1 247.69 41.1 257.81 41.1"/>
        <polygon class="cls-12" points="257.81 1.23 257.81 21.26 247.69 21.26 237.77 21.26 237.77 1.23 247.69 1.23 257.81 1.23"/>
        <polygon class="cls-20" points="247.69 340.18 247.69 353.34 227.86 353.34 227.86 340.18 237.77 340.18 247.69 340.18"/>
        <polygon class="cls-20" points="247.69 300.32 247.69 320.15 237.77 320.15 227.86 320.15 227.86 300.32 237.77 300.32 247.69 300.32"/>
        <polygon class="cls-31" points="247.69 260.45 247.69 280.29 237.77 280.29 227.86 280.29 227.86 260.45 237.77 260.45 247.69 260.45"/>
        <polygon class="cls-12" points="247.69 220.59 247.69 240.42 237.77 240.42 227.86 240.42 227.86 220.59 237.77 220.59 247.69 220.59"/>
        <polygon class="cls-15" points="247.69 180.72 247.69 200.56 237.77 200.56 227.86 200.56 227.86 180.72 237.77 180.72 247.69 180.72"/>
        <polygon class="cls-24" points="247.69 140.86 247.69 160.69 237.77 160.69 227.86 160.69 227.86 140.86 237.77 140.86 247.69 140.86"/>
        <path class="cls-21" d="m247.69,100.99v19.83h-19.83v-4.81c.98-.71,1.62-1.87,1.62-3.19s-.64-2.48-1.62-3.19v-8.65h19.83Z"/>
        <path class="cls-21" d="m247.69,61.13v19.83h-19.14c.57-.67.93-1.57.93-2.53,0-1.32-.64-2.48-1.62-3.19v-14.11h19.83Z"/>
        <polygon class="cls-12" points="247.69 21.26 247.69 41.1 237.77 41.1 227.86 41.1 227.86 21.26 237.77 21.26 247.69 21.26"/>
        <polygon class="cls-21" points="247.69 .22 247.69 1.23 237.77 1.23 227.86 1.23 227.86 .22 247.69 .22"/>
        <polygon class="cls-12" points="237.77 320.15 237.77 340.18 227.86 340.18 217.94 340.18 217.94 323.79 225.63 323.79 225.63 320.15 227.86 320.15 237.77 320.15"/>
        <polygon class="cls-20" points="237.77 280.29 237.77 300.32 227.86 300.32 225.63 300.32 225.63 280.29 227.86 280.29 237.77 280.29"/>
        <polygon class="cls-15" points="237.77 240.42 237.77 260.45 227.86 260.45 225.63 260.45 225.63 240.42 227.86 240.42 237.77 240.42"/>
        <polygon class="cls-12" points="237.77 200.56 237.77 220.59 227.86 220.59 225.63 220.59 225.63 200.56 227.86 200.56 237.77 200.56"/>
        <polygon class="cls-12" points="237.77 160.69 237.77 180.72 227.86 180.72 225.63 180.72 225.63 160.69 227.86 160.69 237.77 160.69"/>
        <polygon class="cls-24" points="237.77 120.83 237.77 140.86 227.86 140.86 225.63 140.86 225.63 120.83 227.86 120.83 237.77 120.83"/>
        <path class="cls-21" d="m237.77,80.96v20.03h-12.14v-18.62c1.18-.03,2.23-.57,2.92-1.42h9.22Z"/>
        <polygon class="cls-21" points="237.77 41.1 237.77 61.13 227.86 61.13 225.63 61.13 225.63 42.31 225.63 41.1 227.86 41.1 237.77 41.1"/>
        <polygon class="cls-12" points="237.77 1.23 237.77 21.26 227.86 21.26 217.94 21.26 217.94 1.23 227.86 1.23 237.77 1.23"/>
        <path class="cls-9" d="m227.86,75.24c.98.71,1.62,1.87,1.62,3.19,0,.96-.35,1.85-.93,2.53h-.69v-5.72Z"/>
        <path class="cls-9" d="m227.86,109.65c.98.71,1.62,1.87,1.62,3.19s-.64,2.48-1.62,3.19v-6.37Z"/>
        <path class="cls-9" d="m228.55,80.96c-.69.84-1.74,1.38-2.92,1.42v-1.42h2.92Z"/>
        <polygon class="cls-15" points="227.86 340.18 227.86 353.34 207.82 353.34 207.82 340.18 217.94 340.18 227.86 340.18"/>
        <rect class="cls-12" x="225.63" y="300.32" width="2.23" height="19.83"/>
        <rect class="cls-12" x="225.63" y="260.45" width="2.23" height="19.83"/>
        <rect class="cls-12" x="225.63" y="220.59" width="2.23" height="19.83"/>
        <rect class="cls-12" x="225.63" y="180.72" width="2.23" height="19.83"/>
        <rect class="cls-12" x="225.63" y="140.86" width="2.23" height="19.83"/>
        <path class="cls-21" d="m227.86,116.02v4.81h-2.23v-4.05c.83-.02,1.6-.3,2.23-.76Z"/>
        <path class="cls-9" d="m227.86,109.65v6.37c-.62.46-1.4.74-2.23.76v-7.89c.83.02,1.6.3,2.23.76Z"/>
        <path class="cls-21" d="m227.86,100.99v8.65c-.62-.46-1.4-.74-2.23-.76v-7.89h2.23Z"/>
        <path class="cls-9" d="m227.86,75.24v5.72h-2.23v-6.48c.83.02,1.6.3,2.23.76Z"/>
        <path class="cls-12" d="m227.86,61.13v14.11c-.62-.46-1.4-.74-2.23-.76v-13.36h2.23Z"/>
        <polygon class="cls-21" points="227.86 21.26 227.86 41.1 225.63 41.1 225.63 29.56 207.82 29.56 207.82 21.26 217.94 21.26 227.86 21.26"/>
        <polygon class="cls-21" points="227.86 .22 227.86 1.23 217.94 1.23 207.82 1.23 207.82 .22 227.86 .22"/>
        <path class="cls-33" d="m225.63,320.15v3.64H41.28V42.31h184.35v32.18h-.1c-2.18,0-3.95,1.77-3.95,3.95v.1h-2.63v34.4h2.63c.05,2.12,1.8,3.84,3.95,3.84h.1v203.37Z"/>
        <path class="cls-9" d="m225.63,108.89v7.89h-.1c-2.14,0-3.9-1.72-3.95-3.84h.2v-1.35c.52-1.57,2.01-2.7,3.74-2.7h.1Z"/>
        <path class="cls-18" d="m225.63,100.99v7.89h-.1c-1.74,0-3.22,1.13-3.74,2.7v-31.89c.54,1.57,2.01,2.68,3.74,2.68h.1v18.62Z"/>
        <path class="cls-9" d="m225.63,80.96v1.42h-.1c-1.74,0-3.2-1.11-3.74-2.68v-1.16h-.2v-.1c0-2.18,1.77-3.95,3.95-3.95h.1v6.48Z"/>
        <polygon class="cls-25" points="225.63 41.1 225.63 42.31 41.28 42.31 41.28 323.79 38.45 323.79 29.54 323.79 29.54 320.15 29.54 300.32 29.54 280.29 29.54 260.45 29.54 240.42 29.54 220.59 29.54 200.56 29.54 180.72 29.54 160.69 29.54 140.86 29.54 120.83 29.54 100.99 29.54 80.96 29.54 61.13 29.54 41.1 29.54 29.56 48.36 29.56 68.4 29.56 88.23 29.56 108.26 29.56 128.09 29.56 148.13 29.56 167.96 29.56 187.99 29.56 207.82 29.56 225.63 29.56 225.63 41.1"/>
        <path class="cls-9" d="m221.79,79.7v31.89c-.13.39-.2.81-.2,1.25v.1h-2.63v-34.4h2.63c.02.4.08.79.2,1.16Z"/>
        <polygon class="cls-21" points="217.94 323.79 217.94 340.18 207.82 340.18 197.91 340.18 197.91 323.79 217.94 323.79"/>
        <polygon class="cls-21" points="217.94 1.23 217.94 21.26 207.82 21.26 197.91 21.26 197.91 1.23 207.82 1.23 217.94 1.23"/>
        <polygon class="cls-12" points="207.82 340.18 207.82 353.34 187.99 353.34 187.99 340.18 197.91 340.18 207.82 340.18"/>
        <polygon class="cls-21" points="207.82 21.26 207.82 29.56 187.99 29.56 187.99 21.26 197.91 21.26 207.82 21.26"/>
        <polygon class="cls-17" points="207.82 .22 207.82 1.23 197.91 1.23 187.99 1.23 187.99 .22 207.82 .22"/>
        <polygon class="cls-12" points="197.91 323.79 197.91 340.18 187.99 340.18 178.08 340.18 178.08 323.79 197.91 323.79"/>
        <polygon class="cls-12" points="197.91 1.23 197.91 21.26 187.99 21.26 178.08 21.26 178.08 1.23 187.99 1.23 197.91 1.23"/>
        <polygon class="cls-21" points="187.99 340.18 187.99 353.34 167.96 353.34 167.96 340.18 178.08 340.18 187.99 340.18"/>
        <polygon class="cls-12" points="187.99 21.26 187.99 29.56 167.96 29.56 167.96 21.26 178.08 21.26 187.99 21.26"/>
        <polygon class="cls-21" points="187.99 .22 187.99 1.23 178.08 1.23 167.96 1.23 167.96 .22 187.99 .22"/>
        <polygon class="cls-15" points="178.08 323.79 178.08 340.18 167.96 340.18 158.04 340.18 158.04 323.79 178.08 323.79"/>
        <polygon class="cls-21" points="178.08 1.23 178.08 21.26 167.96 21.26 158.04 21.26 158.04 1.23 167.96 1.23 178.08 1.23"/>
        <polygon class="cls-12" points="167.96 340.18 167.96 353.34 148.13 353.34 148.13 340.18 158.04 340.18 167.96 340.18"/>
        <polygon class="cls-21" points="167.96 21.26 167.96 29.56 148.13 29.56 148.13 21.26 158.04 21.26 167.96 21.26"/>
        <polygon class="cls-21" points="167.96 .22 167.96 1.23 158.04 1.23 148.13 1.23 148.13 .22 167.96 .22"/>
        <polygon class="cls-21" points="158.04 323.79 158.04 340.18 148.13 340.18 138.21 340.18 138.21 323.79 158.04 323.79"/>
        <polygon class="cls-12" points="158.04 1.23 158.04 21.26 148.13 21.26 138.21 21.26 138.21 1.23 148.13 1.23 158.04 1.23"/>
        <polygon class="cls-21" points="148.13 340.18 148.13 353.34 128.09 353.34 128.09 340.18 138.21 340.18 148.13 340.18"/>
        <polygon class="cls-12" points="148.13 21.26 148.13 29.56 128.09 29.56 128.09 21.26 138.21 21.26 148.13 21.26"/>
        <polygon class="cls-12" points="148.13 .22 148.13 1.23 138.21 1.23 128.09 1.23 128.09 .22 148.13 .22"/>
        <polygon class="cls-12" points="138.21 323.79 138.21 340.18 128.09 340.18 118.18 340.18 118.18 323.79 138.21 323.79"/>
        <polygon class="cls-12" points="138.21 1.23 138.21 21.26 128.09 21.26 118.18 21.26 118.18 1.23 128.09 1.23 138.21 1.23"/>
        <polygon class="cls-21" points="128.09 340.18 128.09 353.34 108.26 353.34 108.26 340.18 118.18 340.18 128.09 340.18"/>
        <polygon class="cls-12" points="128.09 21.26 128.09 29.56 108.26 29.56 108.26 21.26 118.18 21.26 128.09 21.26"/>
        <polygon class="cls-12" points="128.09 .22 128.09 1.23 118.18 1.23 108.26 1.23 108.26 .22 128.09 .22"/>
        <polygon class="cls-12" points="118.18 323.79 118.18 340.18 108.26 340.18 98.35 340.18 98.35 323.79 118.18 323.79"/>
        <polygon class="cls-15" points="118.18 1.23 118.18 21.26 108.26 21.26 98.35 21.26 98.35 1.23 108.26 1.23 118.18 1.23"/>
        <polygon class="cls-21" points="108.26 340.18 108.26 353.34 88.23 353.34 88.23 340.18 98.35 340.18 108.26 340.18"/>
        <polygon class="cls-15" points="108.26 21.26 108.26 29.56 88.23 29.56 88.23 21.26 98.35 21.26 108.26 21.26"/>
        <polygon class="cls-12" points="108.26 .22 108.26 1.23 98.35 1.23 88.23 1.23 88.23 .22 108.26 .22"/>
        <polygon class="cls-12" points="98.35 323.79 98.35 340.18 88.23 340.18 78.31 340.18 78.31 323.79 98.35 323.79"/>
        <polygon class="cls-12" points="98.35 1.23 98.35 21.26 88.23 21.26 78.31 21.26 78.31 1.23 88.23 1.23 98.35 1.23"/>
        <polygon class="cls-12" points="88.23 340.18 88.23 353.34 68.4 353.34 68.4 340.18 78.31 340.18 88.23 340.18"/>
        <polygon class="cls-12" points="88.23 21.26 88.23 29.56 68.4 29.56 68.4 21.26 78.31 21.26 88.23 21.26"/>
        <polygon class="cls-12" points="88.23 .22 88.23 1.23 78.31 1.23 68.4 1.23 68.4 .22 88.23 .22"/>
        <polygon class="cls-21" points="78.31 323.79 78.31 340.18 68.4 340.18 58.48 340.18 58.48 323.79 78.31 323.79"/>
        <polygon class="cls-12" points="78.31 1.23 78.31 21.26 68.4 21.26 58.48 21.26 58.48 1.23 68.4 1.23 78.31 1.23"/>
        <polygon class="cls-21" points="68.4 340.18 68.4 353.34 48.36 353.34 48.36 340.18 58.48 340.18 68.4 340.18"/>
        <polygon class="cls-12" points="68.4 21.26 68.4 29.56 48.36 29.56 48.36 21.26 58.48 21.26 68.4 21.26"/>
        <polygon class="cls-12" points="68.4 .22 68.4 1.23 58.48 1.23 48.36 1.23 48.36 .22 68.4 .22"/>
        <polygon class="cls-12" points="58.48 323.79 58.48 340.18 48.36 340.18 38.45 340.18 38.45 323.79 41.28 323.79 58.48 323.79"/>
        <polygon class="cls-12" points="58.48 1.23 58.48 21.26 48.36 21.26 38.45 21.26 38.45 1.23 48.36 1.23 58.48 1.23"/>
        <polygon class="cls-12" points="48.36 340.18 48.36 353.34 28.53 353.34 28.53 340.18 38.45 340.18 48.36 340.18"/>
        <polygon class="cls-12" points="48.36 21.26 48.36 29.56 29.54 29.56 29.54 41.1 28.53 41.1 28.53 21.26 38.45 21.26 48.36 21.26"/>
        <polygon class="cls-12" points="48.36 .22 48.36 1.23 38.45 1.23 28.53 1.23 28.53 .22 48.36 .22"/>
        <polygon class="cls-12" points="38.45 323.79 38.45 340.18 28.53 340.18 18.62 340.18 18.62 320.15 28.53 320.15 29.54 320.15 29.54 323.79 38.45 323.79"/>
        <polygon class="cls-21" points="38.45 1.23 38.45 21.26 28.53 21.26 18.62 21.26 18.62 1.23 28.53 1.23 38.45 1.23"/>
        <rect class="cls-21" x="28.53" y="300.32" width="1.01" height="19.83"/>
        <polygon class="cls-15" points="29.54 280.29 29.54 300.32 28.53 300.32 18.62 300.32 18.62 280.29 28.53 280.29 29.54 280.29"/>
        <rect class="cls-21" x="28.53" y="260.45" width="1.01" height="19.83"/>
        <polygon class="cls-12" points="29.54 240.42 29.54 260.45 28.53 260.45 18.62 260.45 18.62 240.42 28.53 240.42 29.54 240.42"/>
        <rect class="cls-21" x="28.53" y="220.59" width="1.01" height="19.83"/>
        <polygon class="cls-12" points="29.54 200.56 29.54 220.59 28.53 220.59 18.62 220.59 18.62 200.56 28.53 200.56 29.54 200.56"/>
        <rect class="cls-21" x="28.53" y="180.72" width="1.01" height="19.83"/>
        <polygon class="cls-15" points="29.54 160.69 29.54 180.72 28.53 180.72 18.62 180.72 18.62 160.69 28.53 160.69 29.54 160.69"/>
        <rect class="cls-21" x="28.53" y="140.86" width="1.01" height="19.83"/>
        <polygon class="cls-12" points="29.54 120.83 29.54 140.86 28.53 140.86 18.62 140.86 18.62 120.83 28.53 120.83 29.54 120.83"/>
        <rect class="cls-21" x="28.53" y="100.99" width="1.01" height="19.83"/>
        <polygon class="cls-15" points="29.54 80.96 29.54 100.99 28.53 100.99 18.62 100.99 18.62 80.96 28.53 80.96 29.54 80.96"/>
        <rect class="cls-21" x="28.53" y="61.13" width="1.01" height="19.83"/>
        <polygon class="cls-12" points="29.54 41.1 29.54 61.13 28.53 61.13 18.62 61.13 18.62 41.1 28.53 41.1 29.54 41.1"/>
        <polygon class="cls-12" points="28.53 340.18 28.53 353.34 8.5 353.34 8.5 340.18 18.62 340.18 28.53 340.18"/>
        <polygon class="cls-12" points="28.53 300.32 28.53 320.15 18.62 320.15 8.5 320.15 8.5 300.32 18.62 300.32 28.53 300.32"/>
        <polygon class="cls-15" points="28.53 260.45 28.53 280.29 18.62 280.29 8.5 280.29 8.5 260.45 18.62 260.45 28.53 260.45"/>
        <polygon class="cls-21" points="28.53 220.59 28.53 240.42 18.62 240.42 8.5 240.42 8.5 220.59 18.62 220.59 28.53 220.59"/>
        <polygon class="cls-21" points="28.53 180.72 28.53 200.56 18.62 200.56 8.5 200.56 8.5 180.72 18.62 180.72 28.53 180.72"/>
        <polygon class="cls-12" points="28.53 140.86 28.53 160.69 18.62 160.69 8.5 160.69 8.5 140.86 18.62 140.86 28.53 140.86"/>
        <polygon class="cls-12" points="28.53 100.99 28.53 120.83 18.62 120.83 8.5 120.83 8.5 100.99 18.62 100.99 28.53 100.99"/>
        <polygon class="cls-12" points="28.53 61.13 28.53 80.96 18.62 80.96 8.5 80.96 8.5 61.13 18.62 61.13 28.53 61.13"/>
        <polygon class="cls-12" points="28.53 21.26 28.53 41.1 18.62 41.1 8.5 41.1 8.5 21.26 18.62 21.26 28.53 21.26"/>
        <polygon class="cls-12" points="28.53 .22 28.53 1.23 18.62 1.23 8.5 1.23 8.5 .22 28.53 .22"/>
        <polygon class="cls-12" points="18.62 320.15 18.62 340.18 8.5 340.18 0 340.18 0 320.15 8.5 320.15 18.62 320.15"/>
        <polygon class="cls-21" points="18.62 280.29 18.62 300.32 8.5 300.32 0 300.32 0 280.29 8.5 280.29 18.62 280.29"/>
        <polygon class="cls-21" points="18.62 240.42 18.62 260.45 8.5 260.45 0 260.45 0 240.42 8.5 240.42 18.62 240.42"/>
        <polygon class="cls-12" points="18.62 200.56 18.62 220.59 8.5 220.59 0 220.59 0 200.56 8.5 200.56 18.62 200.56"/>
        <polygon class="cls-21" points="18.62 160.69 18.62 180.72 8.5 180.72 0 180.72 0 160.69 8.5 160.69 18.62 160.69"/>
        <polygon class="cls-15" points="18.62 120.83 18.62 140.86 8.5 140.86 0 140.86 0 120.83 8.5 120.83 18.62 120.83"/>
        <polygon class="cls-21" points="18.62 80.96 18.62 100.99 8.5 100.99 0 100.99 0 80.96 8.5 80.96 18.62 80.96"/>
        <polygon class="cls-21" points="18.62 41.1 18.62 61.13 8.5 61.13 0 61.13 0 41.1 8.5 41.1 18.62 41.1"/>
        <polygon class="cls-15" points="18.62 1.23 18.62 21.26 8.5 21.26 0 21.26 0 1.23 8.5 1.23 18.62 1.23"/>
        <rect class="cls-21" y="340.18" width="8.5" height="13.15"/>
        <rect class="cls-21" y="300.32" width="8.5" height="19.83"/>
        <rect class="cls-12" y="260.45" width="8.5" height="19.83"/>
        <rect class="cls-15" y="220.59" width="8.5" height="19.83"/>
        <rect class="cls-12" y="180.72" width="8.5" height="19.83"/>
        <rect class="cls-21" y="140.86" width="8.5" height="19.83"/>
        <rect class="cls-12" y="100.99" width="8.5" height="19.83"/>
        <rect class="cls-15" y="61.13" width="8.5" height="19.83"/>
        <rect class="cls-21" y="21.26" width="8.5" height="19.83"/>
        <rect class="cls-12" y=".22" width="8.5" height="1.01"/>
        <g class="cls-29">
          <rect class="cls-7" x="29.54" y="29.56" width="38.85" height="294.23"/>
        </g>
        <g>
          <g class="cls-13">
            <polygon class="cls-3" points="1.01 360.99 1.01 353.34 421.79 353.34 429.58 360.99 1.01 360.99"/>
          </g>
          <g class="cls-23">
            <polygon class="cls-4" points="429.58 360.99 421.92 353.34 421.92 0 429.58 0 429.58 360.99"/>
          </g>
        </g>
        <g class="cls-26">
          <rect class="cls-6" x="108.02" y="-49.92" width="38.85" height="197.82" transform="translate(176.43 -78.46) rotate(90)"/>
        </g>
      </g>
    </g>
  </g>
</svg>