<?xml version="1.0" encoding="UTF-8"?>
<svg xmlns="http://www.w3.org/2000/svg" xmlns:xlink="http://www.w3.org/1999/xlink" viewBox="0 0 120.76 245.62">
  <defs>
    <style>
      .cls-1 {
        fill: url(#linear-gradient-3);
      }

      .cls-1, .cls-2, .cls-3, .cls-4, .cls-5, .cls-6, .cls-7, .cls-8, .cls-9, .cls-10, .cls-11, .cls-12 {
        mix-blend-mode: multiply;
      }

      .cls-13 {
        filter: url(#luminosity-noclip-11);
      }

      .cls-14 {
        fill: #fff;
      }

      .cls-15 {
        mask: url(#mask-10);
      }

      .cls-16 {
        filter: url(#luminosity-noclip-7);
      }

      .cls-2 {
        fill: url(#linear-gradient-11);
      }

      .cls-3 {
        fill: url(#linear-gradient-10);
      }

      .cls-4 {
        fill: url(#linear-gradient);
      }

      .cls-17 {
        fill: #939598;
      }

      .cls-5 {
        fill: url(#linear-gradient-4);
      }

      .cls-18 {
        filter: url(#luminosity-noclip-5);
      }

      .cls-19 {
        mask: url(#mask-2);
      }

      .cls-20 {
        isolation: isolate;
      }

      .cls-21 {
        fill: #909090;
      }

      .cls-22 {
        mask: url(#mask-3);
      }

      .cls-6 {
        fill: url(#linear-gradient-6);
      }

      .cls-23 {
        mask: url(#mask-9);
      }

      .cls-7 {
        fill: url(#linear-gradient-5);
      }

      .cls-24 {
        mask: url(#mask-5);
      }

      .cls-8 {
        fill: url(#linear-gradient-9);
      }

      .cls-9 {
        fill: url(#linear-gradient-8);
      }

      .cls-25 {
        filter: url(#luminosity-noclip-9);
      }

      .cls-26 {
        mask: url(#mask-8);
      }

      .cls-27 {
        mask: url(#mask-4);
      }

      .cls-10 {
        fill: url(#linear-gradient-2);
      }

      .cls-28 {
        mask: url(#mask-6);
      }

      .cls-11 {
        fill: url(#linear-gradient-12);
      }

      .cls-29 {
        filter: url(#luminosity-noclip);
      }

      .cls-30 {
        mask: url(#mask-1);
      }

      .cls-31 {
        mask: url(#mask);
      }

      .cls-12 {
        fill: url(#linear-gradient-7);
      }

      .cls-32 {
        mask: url(#mask-7);
      }

      .cls-33 {
        mask: url(#mask-11);
      }

      .cls-34 {
        filter: url(#luminosity-noclip-3);
      }
    </style>
    <filter id="luminosity-noclip" x="86.41" y="193.43" width="32.43" height="44.95" color-interpolation-filters="sRGB" filterUnits="userSpaceOnUse">
      <feFlood flood-color="#fff" result="bg"/>
      <feBlend in="SourceGraphic" in2="bg"/>
    </filter>
    <filter id="luminosity-noclip-2" x="86.41" y="-8314.32" width="32.43" height="32766" color-interpolation-filters="sRGB" filterUnits="userSpaceOnUse">
      <feFlood flood-color="#fff" result="bg"/>
      <feBlend in="SourceGraphic" in2="bg"/>
    </filter>
    <mask id="mask-1" x="86.41" y="-8314.32" width="32.43" height="32766" maskUnits="userSpaceOnUse"/>
    <linearGradient id="linear-gradient" x1="1630.87" y1="-4786.62" x2="1663.31" y2="-4786.62" gradientTransform="translate(-1544.47 5002.53)" gradientUnits="userSpaceOnUse">
      <stop offset="0" stop-color="#fff"/>
      <stop offset=".08" stop-color="#dadada"/>
      <stop offset=".22" stop-color="#a1a1a1"/>
      <stop offset=".36" stop-color="#6f6f6f"/>
      <stop offset=".5" stop-color="#474747"/>
      <stop offset=".63" stop-color="#282828"/>
      <stop offset=".76" stop-color="#111"/>
      <stop offset=".89" stop-color="#040404"/>
      <stop offset="1" stop-color="#000"/>
    </linearGradient>
    <mask id="mask" x="86.41" y="193.43" width="32.43" height="44.95" maskUnits="userSpaceOnUse">
      <g class="cls-29">
        <g class="cls-30">
          <rect class="cls-4" x="86.41" y="193.43" width="32.43" height="44.95"/>
        </g>
      </g>
    </mask>
    <linearGradient id="linear-gradient-2" x1="1630.87" y1="-4786.62" x2="1663.31" y2="-4786.62" gradientTransform="translate(-1544.47 5002.53)" gradientUnits="userSpaceOnUse">
      <stop offset="0" stop-color="#858585"/>
      <stop offset=".05" stop-color="#8f8f8f"/>
      <stop offset=".25" stop-color="#b7b7b7"/>
      <stop offset=".45" stop-color="#d6d6d6"/>
      <stop offset=".65" stop-color="#ededed"/>
      <stop offset=".83" stop-color="#fafafa"/>
      <stop offset="1" stop-color="#fff"/>
    </linearGradient>
    <filter id="luminosity-noclip-3" x="13.53" y="193.43" width="13.25" height="44.95" color-interpolation-filters="sRGB" filterUnits="userSpaceOnUse">
      <feFlood flood-color="#fff" result="bg"/>
      <feBlend in="SourceGraphic" in2="bg"/>
    </filter>
    <filter id="luminosity-noclip-4" x="13.53" y="-8314.32" width="13.25" height="32766" color-interpolation-filters="sRGB" filterUnits="userSpaceOnUse">
      <feFlood flood-color="#fff" result="bg"/>
      <feBlend in="SourceGraphic" in2="bg"/>
    </filter>
    <mask id="mask-3" x="13.53" y="-8314.32" width="13.25" height="32766" maskUnits="userSpaceOnUse"/>
    <linearGradient id="linear-gradient-3" x1="1558" y1="-4786.62" x2="1571.25" y2="-4786.62" gradientTransform="translate(-1544.47 5002.53)" gradientUnits="userSpaceOnUse">
      <stop offset="0" stop-color="#fff"/>
      <stop offset="1" stop-color="#000"/>
    </linearGradient>
    <mask id="mask-2" x="13.53" y="193.43" width="13.25" height="44.95" maskUnits="userSpaceOnUse">
      <g class="cls-34">
        <g class="cls-22">
          <rect class="cls-1" x="13.53" y="193.43" width="13.25" height="44.95"/>
        </g>
      </g>
    </mask>
    <linearGradient id="linear-gradient-4" x1="1558" y1="-4786.62" x2="1571.25" y2="-4786.62" gradientTransform="translate(-1544.47 5002.53)" gradientUnits="userSpaceOnUse">
      <stop offset="0" stop-color="#000"/>
      <stop offset="1" stop-color="#fff"/>
    </linearGradient>
    <filter id="luminosity-noclip-5" x="13.53" y="12.02" width="13.25" height="44.95" color-interpolation-filters="sRGB" filterUnits="userSpaceOnUse">
      <feFlood flood-color="#fff" result="bg"/>
      <feBlend in="SourceGraphic" in2="bg"/>
    </filter>
    <filter id="luminosity-noclip-6" x="13.53" y="-8314.32" width="13.25" height="32766" color-interpolation-filters="sRGB" filterUnits="userSpaceOnUse">
      <feFlood flood-color="#fff" result="bg"/>
      <feBlend in="SourceGraphic" in2="bg"/>
    </filter>
    <mask id="mask-5" x="13.53" y="-8314.32" width="13.25" height="32766" maskUnits="userSpaceOnUse"/>
    <linearGradient id="linear-gradient-5" y1="-4968.03" y2="-4968.03" xlink:href="#linear-gradient-3"/>
    <mask id="mask-4" x="13.53" y="12.02" width="13.25" height="44.95" maskUnits="userSpaceOnUse">
      <g class="cls-18">
        <g class="cls-24">
          <rect class="cls-7" x="13.53" y="12.02" width="13.25" height="44.95"/>
        </g>
      </g>
    </mask>
    <linearGradient id="linear-gradient-6" y1="-4968.03" y2="-4968.03" xlink:href="#linear-gradient-4"/>
    <filter id="luminosity-noclip-7" x="14.19" y="193.45" width="72.22" height="44.95" color-interpolation-filters="sRGB" filterUnits="userSpaceOnUse">
      <feFlood flood-color="#fff" result="bg"/>
      <feBlend in="SourceGraphic" in2="bg"/>
    </filter>
    <filter id="luminosity-noclip-8" x="14.19" y="-8314.32" width="72.22" height="32766" color-interpolation-filters="sRGB" filterUnits="userSpaceOnUse">
      <feFlood flood-color="#fff" result="bg"/>
      <feBlend in="SourceGraphic" in2="bg"/>
    </filter>
    <mask id="mask-7" x="14.19" y="-8314.32" width="72.22" height="32766" maskUnits="userSpaceOnUse"/>
    <linearGradient id="linear-gradient-7" x1="1558.65" y1="-4786.61" x2="1630.87" y2="-4786.61" gradientTransform="translate(-1544.47 5002.53)" gradientUnits="userSpaceOnUse">
      <stop offset="0" stop-color="#000"/>
      <stop offset=".11" stop-color="#040404"/>
      <stop offset=".24" stop-color="#111"/>
      <stop offset=".37" stop-color="#282828"/>
      <stop offset=".5" stop-color="#474747"/>
      <stop offset=".64" stop-color="#6f6f6f"/>
      <stop offset=".78" stop-color="#a1a1a1"/>
      <stop offset=".92" stop-color="#dadada"/>
      <stop offset="1" stop-color="#fff"/>
    </linearGradient>
    <mask id="mask-6" x="14.19" y="193.45" width="72.22" height="44.95" maskUnits="userSpaceOnUse">
      <g class="cls-16">
        <g class="cls-32">
          <rect class="cls-12" x="14.19" y="193.45" width="72.22" height="44.95"/>
        </g>
      </g>
    </mask>
    <linearGradient id="linear-gradient-8" x1="1558.65" y1="-4786.61" x2="1630.87" y2="-4786.61" gradientTransform="translate(-1544.47 5002.53)" gradientUnits="userSpaceOnUse">
      <stop offset="0" stop-color="#fff"/>
      <stop offset=".17" stop-color="#fafafa"/>
      <stop offset=".35" stop-color="#ededed"/>
      <stop offset=".55" stop-color="#d6d6d6"/>
      <stop offset=".75" stop-color="#b7b7b7"/>
      <stop offset=".95" stop-color="#8f8f8f"/>
      <stop offset="1" stop-color="#858585"/>
    </linearGradient>
    <filter id="luminosity-noclip-9" x="86.41" y="12.02" width="32.43" height="44.95" color-interpolation-filters="sRGB" filterUnits="userSpaceOnUse">
      <feFlood flood-color="#fff" result="bg"/>
      <feBlend in="SourceGraphic" in2="bg"/>
    </filter>
    <filter id="luminosity-noclip-10" x="86.41" y="-8314.32" width="32.43" height="32766" color-interpolation-filters="sRGB" filterUnits="userSpaceOnUse">
      <feFlood flood-color="#fff" result="bg"/>
      <feBlend in="SourceGraphic" in2="bg"/>
    </filter>
    <mask id="mask-9" x="86.41" y="-8314.32" width="32.43" height="32766" maskUnits="userSpaceOnUse"/>
    <linearGradient id="linear-gradient-9" y1="-4968.03" y2="-4968.03" xlink:href="#linear-gradient"/>
    <mask id="mask-8" x="86.41" y="12.02" width="32.43" height="44.95" maskUnits="userSpaceOnUse">
      <g class="cls-25">
        <g class="cls-23">
          <rect class="cls-8" x="86.41" y="12.02" width="32.43" height="44.95"/>
        </g>
      </g>
    </mask>
    <linearGradient id="linear-gradient-10" y1="-4968.03" y2="-4968.03" xlink:href="#linear-gradient-2"/>
    <filter id="luminosity-noclip-11" x="14.19" y="12.03" width="72.22" height="44.95" color-interpolation-filters="sRGB" filterUnits="userSpaceOnUse">
      <feFlood flood-color="#fff" result="bg"/>
      <feBlend in="SourceGraphic" in2="bg"/>
    </filter>
    <filter id="luminosity-noclip-12" x="14.19" y="-8314.32" width="72.22" height="32766" color-interpolation-filters="sRGB" filterUnits="userSpaceOnUse">
      <feFlood flood-color="#fff" result="bg"/>
      <feBlend in="SourceGraphic" in2="bg"/>
    </filter>
    <mask id="mask-11" x="14.19" y="-8314.32" width="72.22" height="32766" maskUnits="userSpaceOnUse"/>
    <linearGradient id="linear-gradient-11" y1="-4968.02" y2="-4968.02" xlink:href="#linear-gradient-7"/>
    <mask id="mask-10" x="14.19" y="12.03" width="72.22" height="44.95" maskUnits="userSpaceOnUse">
      <g class="cls-13">
        <g class="cls-33">
          <rect class="cls-2" x="14.19" y="12.03" width="72.22" height="44.95"/>
        </g>
      </g>
    </mask>
    <linearGradient id="linear-gradient-12" y1="-4968.02" y2="-4968.02" xlink:href="#linear-gradient-8"/>
  </defs>
  <g class="cls-20">
    <g id="Layer_1" data-name="Layer 1">
      <g>
        <g>
          <polygon class="cls-17" points="9.11 233.32 10.12 233.32 13.96 233.32 81.35 233.32 113.73 233.32 113.73 225.43 115.35 225.43 115.35 220.57 113.73 220.57 113.73 201.15 115.35 201.15 115.35 196.29 113.73 196.29 113.73 188.4 81.35 188.4 13.96 188.4 10.12 188.4 9.11 188.4 0 188.4 0 233.32 9.11 233.32"/>
          <polygon class="cls-17" points="10.12 236.36 9.11 236.36 9.11 240.2 40.27 240.2 40.27 236.36 13.96 236.36 10.12 236.36"/>
          <polygon class="cls-17" points="10.12 185.36 13.96 185.36 40.27 185.36 40.27 181.52 9.11 181.52 9.11 185.36 10.12 185.36"/>
          <polygon class="cls-17" points="10.12 52.01 13.96 52.01 81.35 52.01 113.73 52.01 113.73 43.91 115.35 43.91 115.35 39.06 113.73 39.06 113.73 19.83 115.35 19.83 115.35 14.97 113.73 14.97 113.73 6.88 81.35 6.88 13.96 6.88 10.12 6.88 9.11 6.88 0 6.88 0 52.01 9.11 52.01 10.12 52.01"/>
          <polygon class="cls-17" points="13.96 54.84 10.12 54.84 9.11 54.84 9.11 58.89 40.27 58.89 40.27 54.84 13.96 54.84"/>
          <polygon class="cls-17" points="13.96 3.84 40.27 3.84 40.27 0 9.11 0 9.11 3.84 10.12 3.84 13.96 3.84"/>
          <polygon class="cls-17" points="54.03 130.52 54.03 120.61 54.03 110.89 54.03 100.98 54.03 91.26 4.86 91.26 4.86 100.98 4.86 110.89 4.86 120.61 4.86 130.52 4.86 140.24 54.03 140.24 54.03 130.52"/>
        </g>
        <g>
          <g>
            <rect class="cls-21" x="5.06" y="11.94" width="9.11" height="45.13"/>
            <rect class="cls-21" x="5.06" y="193.46" width="9.11" height="44.92"/>
            <rect class="cls-21" x="9.92" y="96.32" width="49.17" height="9.71"/>
            <rect class="cls-21" x="9.92" y="106.04" width="49.17" height="9.92"/>
            <rect class="cls-21" x="9.92" y="115.95" width="49.17" height="9.71"/>
            <rect class="cls-21" x="9.92" y="125.67" width="49.17" height="9.92"/>
            <rect class="cls-21" x="9.92" y="135.58" width="49.17" height="9.71"/>
            <polygon class="cls-21" points="14.17 8.9 14.17 5.06 45.33 5.06 45.33 8.9 19.02 8.9 15.18 8.9 14.17 8.9"/>
            <polygon class="cls-14" points="14.17 57.07 14.17 11.94 15.18 11.94 19.02 11.94 86.41 11.94 86.41 57.07 19.02 57.07 15.18 57.07 14.17 57.07"/>
            <polygon class="cls-21" points="14.17 63.95 14.17 59.9 15.18 59.9 19.02 59.9 45.33 59.9 45.33 63.95 14.17 63.95"/>
            <polygon class="cls-21" points="14.17 190.42 14.17 186.58 45.33 186.58 45.33 190.42 19.02 190.42 15.18 190.42 14.17 190.42"/>
            <polygon class="cls-14" points="14.17 238.38 14.17 193.46 15.18 193.46 19.02 193.46 86.41 193.46 86.41 238.38 19.02 238.38 15.18 238.38 14.17 238.38"/>
            <polygon class="cls-21" points="14.17 245.26 14.17 241.42 15.18 241.42 19.02 241.42 45.33 241.42 45.33 245.26 14.17 245.26"/>
            <polygon class="cls-14" points="86.41 57.07 86.41 11.94 118.79 11.94 118.79 20.03 118.79 24.89 118.79 44.11 118.79 48.97 118.79 57.07 86.41 57.07"/>
            <polygon class="cls-14" points="86.41 238.38 86.41 193.46 118.79 193.46 118.79 201.35 118.79 206.21 118.79 225.63 118.79 230.49 118.79 238.38 86.41 238.38"/>
            <rect class="cls-21" x="118.79" y="20.03" width="1.62" height="4.86"/>
            <rect class="cls-21" x="118.79" y="44.11" width="1.62" height="4.86"/>
            <rect class="cls-21" x="118.79" y="201.35" width="1.62" height="4.86"/>
            <rect class="cls-21" x="118.79" y="225.63" width="1.62" height="4.86"/>
          </g>
          <g>
            <path d="m119.15,193.46v44.92c0,.2-.16.36-.36.36H14.17c-.2,0-.36-.16-.36-.36s.16-.36.36-.36h104.26v-44.2H14.17c-.2,0-.36-.16-.36-.36s.16-.36.36-.36h104.62c.2,0,.36.16.36.36Z"/>
            <path d="m120.76,225.63v4.86c0,.2-.16.36-.36.36h-1.62c-.2,0-.36-.16-.36-.36s.16-.36.36-.36h1.26v-4.14h-1.26c-.2,0-.36-.16-.36-.36s.16-.36.36-.36h1.62c.2,0,.36.16.36.36Z"/>
            <path d="m120.76,201.35v4.86c0,.2-.16.36-.36.36h-1.62c-.2,0-.36-.16-.36-.36s.16-.36.36-.36h1.26v-4.14h-1.26c-.2,0-.36-.16-.36-.36s.16-.36.36-.36h1.62c.2,0,.36.16.36.36Z"/>
            <path d="m14.53,193.46v44.92c0,.2-.16.36-.36.36H5.06c-.2,0-.36-.16-.36-.36v-44.92c0-.2.16-.36.36-.36h9.11c.2,0,.36.16.36.36Zm-.72,44.56v-44.2H5.42v44.2h8.39Z"/>
            <path d="m45.69,241.42v3.84c0,.2-.16.36-.36.36H14.17c-.2,0-.36-.16-.36-.36v-3.84c0-.2.16-.36.36-.36h31.16c.2,0,.36.16.36.36Zm-.72,3.48v-3.12H14.53v3.12h30.44Z"/>
            <path d="m19.38,238.38v3.04c0,.2-.16.36-.36.36s-.36-.16-.36-.36v-3.04c0-.2.16-.36.36-.36s.36.16.36.36Z"/>
            <path d="m15.54,238.38v3.04c0,.2-.16.36-.36.36s-.36-.16-.36-.36v-3.04c0-.2.16-.36.36-.36s.36.16.36.36Z"/>
            <path d="m45.69,186.58v3.85c0,.2-.16.36-.36.36H14.17c-.2,0-.36-.16-.36-.36v-3.85c0-.2.16-.36.36-.36h31.16c.2,0,.36.16.36.36Zm-.72,3.49v-3.13H14.53v3.13h30.44Z"/>
            <path d="m19.38,190.42v3.04c0,.2-.16.36-.36.36s-.36-.16-.36-.36v-3.04c0-.2.16-.36.36-.36s.36.16.36.36Z"/>
            <path d="m15.54,190.42v3.04c0,.2-.16.36-.36.36s-.36-.16-.36-.36v-3.04c0-.2.16-.36.36-.36s.36.16.36.36Z"/>
            <path d="m86.77,193.46v44.92c0,.2-.16.36-.36.36s-.36-.16-.36-.36v-44.92c0-.2.16-.36.36-.36s.36.16.36.36Z"/>
            <path d="m119.15,11.94v45.13c0,.2-.16.36-.36.36H14.17c-.2,0-.36-.16-.36-.36s.16-.36.36-.36h104.26V12.3H14.17c-.2,0-.36-.16-.36-.36s.16-.36.36-.36h104.62c.2,0,.36.16.36.36Z"/>
            <path d="m120.76,44.11v4.86c0,.2-.16.36-.36.36h-1.62c-.2,0-.36-.16-.36-.36s.16-.36.36-.36h1.26v-4.14h-1.26c-.2,0-.36-.16-.36-.36s.16-.36.36-.36h1.62c.2,0,.36.16.36.36Z"/>
            <path d="m120.76,20.03v4.86c0,.2-.16.36-.36.36h-1.62c-.2,0-.36-.16-.36-.36s.16-.36.36-.36h1.26v-4.14h-1.26c-.2,0-.36-.16-.36-.36s.16-.36.36-.36h1.62c.2,0,.36.16.36.36Z"/>
            <path d="m14.53,11.94v45.13c0,.2-.16.36-.36.36H5.06c-.2,0-.36-.16-.36-.36V11.94c0-.2.16-.36.36-.36h9.11c.2,0,.36.16.36.36Zm-.72,44.77V12.3H5.42v44.41h8.39Z"/>
            <path d="m45.69,59.9v4.05c0,.2-.16.36-.36.36H14.17c-.2,0-.36-.16-.36-.36v-4.05c0-.2.16-.36.36-.36h31.16c.2,0,.36.16.36.36Zm-.72,3.69v-3.33H14.53v3.33h30.44Z"/>
            <path d="m19.38,57.07v2.83c0,.2-.16.36-.36.36s-.36-.16-.36-.36v-2.83c0-.2.16-.36.36-.36s.36.16.36.36Z"/>
            <path d="m15.54,57.07v2.83c0,.2-.16.36-.36.36s-.36-.16-.36-.36v-2.83c0-.2.16-.36.36-.36s.36.16.36.36Z"/>
            <path d="m45.69,5.06v3.84c0,.2-.16.36-.36.36H14.17c-.2,0-.36-.16-.36-.36v-3.84c0-.2.16-.36.36-.36h31.16c.2,0,.36.16.36.36Zm-.72,3.48v-3.12H14.53v3.12h30.44Z"/>
            <path d="m19.38,8.9v3.04c0,.2-.16.36-.36.36s-.36-.16-.36-.36v-3.04c0-.2.16-.36.36-.36s.36.16.36.36Z"/>
            <path d="m15.54,8.9v3.04c0,.2-.16.36-.36.36s-.36-.16-.36-.36v-3.04c0-.2.16-.36.36-.36s.36.16.36.36Z"/>
            <path d="m86.77,11.94v45.13c0,.2-.16.36-.36.36s-.36-.16-.36-.36V11.94c0-.2.16-.36.36-.36s.36.16.36.36Z"/>
            <path d="m59.45,96.32c0,.2-.16.36-.36.36H10.28v48.25h48.81c.2,0,.36.16.36.36s-.16.36-.36.36H9.92c-.2,0-.36-.16-.36-.36v-48.97c0-.2.16-.36.36-.36h49.17c.2,0,.36.16.36.36Z"/>
            <path d="m59.45,135.58c0,.2-.16.36-.36.36H9.92c-.2,0-.36-.16-.36-.36s.16-.36.36-.36h49.17c.2,0,.36.16.36.36Z"/>
            <path d="m59.45,125.67c0,.2-.16.36-.36.36H9.92c-.2,0-.36-.16-.36-.36s.16-.36.36-.36h49.17c.2,0,.36.16.36.36Z"/>
            <path d="m59.45,115.95c0,.2-.16.36-.36.36H9.92c-.2,0-.36-.16-.36-.36s.16-.36.36-.36h49.17c.2,0,.36.16.36.36Z"/>
            <path d="m59.45,106.04c0,.2-.16.36-.36.36H9.92c-.2,0-.36-.16-.36-.36s.16-.36.36-.36h49.17c.2,0,.36.16.36.36Z"/>
            <path d="m59.45,96.32v48.97c0,.2-.16.36-.36.36s-.36-.16-.36-.36v-48.97c0-.2.16-.36.36-.36s.36.16.36.36Z"/>
          </g>
        </g>
        <g class="cls-31">
          <rect class="cls-10" x="86.41" y="193.43" width="32.43" height="44.95"/>
        </g>
        <g class="cls-19">
          <rect class="cls-5" x="13.53" y="193.43" width="13.25" height="44.95"/>
        </g>
        <g class="cls-27">
          <rect class="cls-6" x="13.53" y="12.02" width="13.25" height="44.95"/>
        </g>
        <g class="cls-28">
          <rect class="cls-9" x="14.19" y="193.45" width="72.22" height="44.95"/>
        </g>
        <g class="cls-26">
          <rect class="cls-3" x="86.41" y="12.02" width="32.43" height="44.95"/>
        </g>
        <g class="cls-15">
          <rect class="cls-11" x="14.19" y="12.03" width="72.22" height="44.95"/>
        </g>
      </g>
    </g>
  </g>
</svg>