<?xml version="1.0" encoding="UTF-8"?>
<svg id="Layer_1" data-name="Layer 1" xmlns="http://www.w3.org/2000/svg" viewBox="0 0 215.47 215.27">
  <defs>
    <style>
      .cls-1 {
        fill: #939598;
      }

      .cls-2 {
        fill: #909090;
      }
    </style>
  </defs>
  <g>
    <path class="cls-1" d="m83.93,19.38h3.04v1.01h7.89v3.44h-7.89v5.87h7.89v3.64h-7.89v5.87h7.89v3.44h-7.89v5.87h7.89v1.62h5.06v-1.62h19.22v1.62h4.86v-1.62h8.09v-5.87h-8.09v-3.44h8.09v-5.87h-8.09v-3.64h8.09v-5.87h-8.09v-3.44h8.09v-1.01h2.83v26.31h4.05V14.53h-4.05v.81h-2.83v-.81h-8.09v-5.26h8.09v-3.84h-45.13v3.84h7.89v5.26h-7.89v.81h-3.04v-.81h-3.84v31.16h3.84v-26.31Zm35.21,23.27h-19.22v-3.44h19.22v3.44Zm0-9.31h-19.22v-3.64h19.22v3.64Zm0-9.51h-19.22v-3.44h19.22v3.44Zm-19.22-14.57h19.22v5.26h-19.22v-5.26Z"/>
    <polygon class="cls-1" points="61.47 71.19 61.47 80.9 61.47 90.82 61.47 100.53 61.47 110.44 61.47 120.16 61.47 129.87 61.47 139.79 61.47 149.5 61.47 159.42 159.42 159.42 159.42 149.5 159.42 139.79 159.42 129.87 159.42 120.16 159.42 110.44 159.42 100.53 159.42 90.82 159.42 80.9 159.42 71.19 159.42 61.27 61.47 61.27 61.47 71.19"/>
    <path class="cls-1" d="m134.93,201.3h-2.83v-1.01h-8.09v-3.44h8.09v-5.87h-8.09v-3.64h8.09v-5.87h-8.09v-3.44h8.09v-5.87h-8.09v-1.62h-4.86v1.62h-19.22v-1.62h-5.06v1.62h-7.89v5.87h7.89v3.44h-7.89v5.87h7.89v3.64h-7.89v5.87h7.89v3.44h-7.89v1.01h-3.04v-26.31h-3.84v31.16h3.84v-.81h3.04v.81h7.89v5.26h-7.89v3.84h45.13v-3.84h-8.09v-5.26h8.09v-.81h2.83v.81h4.05v-31.16h-4.05v26.31Zm-35.01-23.27h19.22v3.44h-19.22v-3.44Zm0,9.31h19.22v3.64h-19.22v-3.64Zm0,9.51h19.22v3.44h-19.22v-3.44Zm19.22,14.57h-19.22v-5.26h19.22v5.26Z"/>
    <path class="cls-1" d="m211.42,86.77v8.09h-5.06v-8.09h-1.01v-2.83h1.01v-4.05h-31.16v4.05h26.31v2.83h-1.01v8.09h-3.64v-8.09h-5.87v8.09h-3.44v-8.09h-5.87v8.09h-3.64v-8.09h-5.87v8.09h-1.62v4.86h1.62v19.22h-1.62v4.86h1.62v8.09h5.87v-8.09h3.64v8.09h5.87v-8.09h3.44v8.09h5.87v-8.09h3.64v8.09h1.01v3.04h-26.31v3.84h31.16v-3.84h-1.01v-3.04h1.01v-8.09h5.06v8.09h4.05v-45.13h-4.05Zm-29.75,32.18h-3.64v-19.22h3.64v19.22Zm9.31,0h-3.44v-19.22h3.44v19.22Zm9.51,0h-3.64v-19.22h3.64v19.22Zm10.93,0h-5.06v-19.22h5.06v19.22Z"/>
    <path class="cls-1" d="m48.72,86.77h-5.87v8.09h-3.64v-8.09h-5.87v8.09h-3.44v-8.09h-5.87v8.09h-3.64v-8.09h-1.01v-2.83h26.31v-4.05H14.53v4.05h1.01v2.83h-1.01v8.09h-5.06v-8.09h-4.05v45.13h4.05v-8.09h5.06v8.09h1.01v3.04h-1.01v3.84h31.16v-3.84h-26.31v-3.04h1.01v-8.09h3.64v8.09h5.87v-8.09h3.44v8.09h5.87v-8.09h3.64v8.09h5.87v-8.09h1.62v-4.86h-1.62v-19.22h1.62v-4.86h-1.62v-8.09ZM14.53,118.94h-5.06v-19.22h5.06v19.22Zm9.51,0h-3.64v-19.22h3.64v19.22Zm9.31,0h-3.44v-19.22h3.44v19.22Zm9.51,0h-3.64v-19.22h3.64v19.22Z"/>
  </g>
  <g>
    <g>
      <polygon class="cls-2" points="210.41 81.71 210.41 126.84 206.36 126.84 206.36 118.74 206.36 113.88 206.36 94.66 206.36 89.8 206.36 81.71 210.41 81.71"/>
      <rect class="cls-1" x="201.3" y="113.88" width="5.06" height="4.86"/>
      <rect class="cls-1" x="201.3" y="89.8" width="5.06" height="4.86"/>
      <polygon class="cls-2" points="201.3 129.87 201.3 133.72 170.14 133.72 170.14 129.87 196.45 129.87 200.29 129.87 201.3 129.87"/>
      <polygon class="cls-2" points="201.3 118.74 201.3 126.84 200.29 126.84 196.45 126.84 195.44 126.84 195.44 118.74 195.44 113.88 195.44 94.66 195.44 89.8 195.44 81.71 196.45 81.71 200.29 81.71 201.3 81.71 201.3 89.8 201.3 94.66 201.3 113.88 201.3 118.74"/>
      <polygon class="cls-2" points="201.3 74.83 201.3 78.88 200.29 78.88 196.45 78.88 170.14 78.88 170.14 74.83 201.3 74.83"/>
      <rect class="cls-1" x="196.45" y="126.84" width="3.84" height="3.04"/>
      <rect class="cls-1" x="196.45" y="78.88" width="3.84" height="2.83"/>
      <rect class="cls-1" x="191.79" y="113.88" width="3.64" height="4.86"/>
      <rect class="cls-1" x="191.79" y="89.8" width="3.64" height="4.86"/>
      <polygon class="cls-2" points="191.79 118.74 191.79 126.84 185.92 126.84 185.92 118.74 185.92 113.88 185.92 94.66 185.92 89.8 185.92 81.71 191.79 81.71 191.79 89.8 191.79 94.66 191.79 113.88 191.79 118.74"/>
      <rect class="cls-1" x="182.48" y="113.88" width="3.44" height="4.86"/>
      <rect class="cls-1" x="182.48" y="89.8" width="3.44" height="4.86"/>
      <polygon class="cls-2" points="182.48 118.74 182.48 126.84 176.62 126.84 176.62 118.74 176.62 113.88 176.62 94.66 176.62 89.8 176.62 81.71 182.48 81.71 182.48 89.8 182.48 94.66 182.48 113.88 182.48 118.74"/>
      <rect class="cls-1" x="172.97" y="113.88" width="3.64" height="4.86"/>
      <rect class="cls-1" x="172.97" y="89.8" width="3.64" height="4.86"/>
      <polygon class="cls-2" points="172.97 118.74 172.97 126.84 167.1 126.84 167.1 118.74 167.1 113.88 167.1 94.66 167.1 89.8 167.1 81.71 172.97 81.71 172.97 89.8 172.97 94.66 172.97 113.88 172.97 118.74"/>
      <rect class="cls-1" x="165.49" y="113.88" width="1.62" height="4.86"/>
      <rect class="cls-1" x="165.49" y="89.8" width="1.62" height="4.86"/>
      <rect class="cls-2" x="56.41" y="144.44" width="97.94" height="9.92"/>
      <rect class="cls-2" x="56.41" y="134.73" width="97.94" height="9.71"/>
      <rect class="cls-2" x="56.41" y="124.81" width="97.94" height="9.92"/>
      <rect class="cls-2" x="56.41" y="115.1" width="97.94" height="9.71"/>
      <rect class="cls-2" x="56.41" y="105.39" width="97.94" height="9.71"/>
      <rect class="cls-2" x="56.41" y="95.47" width="97.94" height="9.92"/>
      <rect class="cls-2" x="56.41" y="85.76" width="97.94" height="9.71"/>
      <rect class="cls-2" x="56.41" y="75.84" width="97.94" height="9.92"/>
      <rect class="cls-2" x="56.41" y="66.13" width="97.94" height="9.71"/>
      <rect class="cls-2" x="56.41" y="56.21" width="97.94" height="9.92"/>
      <polygon class="cls-2" points="133.92 169.94 133.92 201.1 129.87 201.1 129.87 200.29 129.87 196.25 129.87 169.94 133.92 169.94"/>
      <polygon class="cls-2" points="133.92 9.47 133.92 40.63 129.87 40.63 129.87 14.32 129.87 10.28 129.87 9.47 133.92 9.47"/>
      <rect class="cls-1" x="127.04" y="196.25" width="2.83" height="4.05"/>
      <rect class="cls-1" x="127.04" y="10.28" width="2.83" height="4.05"/>
      <polygon class="cls-2" points="127.04 206.36 127.04 210.21 81.91 210.21 81.91 206.36 89.8 206.36 94.86 206.36 114.09 206.36 118.94 206.36 127.04 206.36"/>
      <polygon class="cls-2" points="127.04 200.29 127.04 201.1 118.94 201.1 114.09 201.1 94.86 201.1 89.8 201.1 81.91 201.1 81.91 200.29 81.91 196.25 81.91 195.23 89.8 195.23 94.86 195.23 114.09 195.23 118.94 195.23 127.04 195.23 127.04 196.25 127.04 200.29"/>
      <polygon class="cls-2" points="127.04 185.93 127.04 191.79 118.94 191.79 114.09 191.79 94.86 191.79 89.8 191.79 81.91 191.79 81.91 185.93 89.8 185.93 94.86 185.93 114.09 185.93 118.94 185.93 127.04 185.93"/>
      <polygon class="cls-2" points="127.04 176.41 127.04 182.28 118.94 182.28 114.09 182.28 94.86 182.28 89.8 182.28 81.91 182.28 81.91 176.41 89.8 176.41 94.86 176.41 114.09 176.41 118.94 176.41 127.04 176.41"/>
      <polygon class="cls-2" points="127.04 167.11 127.04 172.97 118.94 172.97 114.09 172.97 94.86 172.97 89.8 172.97 81.91 172.97 81.91 167.11 89.8 167.11 94.86 167.11 114.09 167.11 118.94 167.11 127.04 167.11"/>
      <polygon class="cls-2" points="127.04 37.59 127.04 43.46 118.94 43.46 114.09 43.46 94.86 43.46 89.8 43.46 81.91 43.46 81.91 37.59 89.8 37.59 94.86 37.59 114.09 37.59 118.94 37.59 127.04 37.59"/>
      <polygon class="cls-2" points="127.04 28.29 127.04 34.15 118.94 34.15 114.09 34.15 94.86 34.15 89.8 34.15 81.91 34.15 81.91 28.29 89.8 28.29 94.86 28.29 114.09 28.29 118.94 28.29 127.04 28.29"/>
      <polygon class="cls-2" points="127.04 18.78 127.04 24.64 118.94 24.64 114.09 24.64 94.86 24.64 89.8 24.64 81.91 24.64 81.91 18.78 89.8 18.78 94.86 18.78 114.09 18.78 118.94 18.78 127.04 18.78"/>
      <polygon class="cls-2" points="127.04 14.32 127.04 15.33 118.94 15.33 114.09 15.33 94.86 15.33 89.8 15.33 81.91 15.33 81.91 14.32 81.91 10.28 81.91 9.47 89.8 9.47 94.86 9.47 114.09 9.47 118.94 9.47 127.04 9.47 127.04 10.28 127.04 14.32"/>
      <polygon class="cls-2" points="127.04 .36 127.04 4.21 118.94 4.21 114.09 4.21 94.86 4.21 89.8 4.21 81.91 4.21 81.91 .36 127.04 .36"/>
      <rect class="cls-1" x="114.09" y="201.1" width="4.86" height="5.26"/>
      <rect class="cls-1" x="114.09" y="191.79" width="4.86" height="3.44"/>
      <rect class="cls-1" x="114.09" y="182.28" width="4.86" height="3.64"/>
      <rect class="cls-1" x="114.09" y="172.97" width="4.86" height="3.44"/>
      <rect class="cls-1" x="114.09" y="165.49" width="4.86" height="1.62"/>
      <rect class="cls-1" x="114.09" y="43.46" width="4.86" height="1.62"/>
      <rect class="cls-1" x="114.09" y="34.15" width="4.86" height="3.44"/>
      <rect class="cls-1" x="114.09" y="24.64" width="4.86" height="3.64"/>
      <rect class="cls-1" x="114.09" y="15.33" width="4.86" height="3.44"/>
      <rect class="cls-1" x="114.09" y="4.21" width="4.86" height="5.26"/>
      <rect class="cls-1" x="89.8" y="201.1" width="5.06" height="5.26"/>
      <rect class="cls-1" x="89.8" y="191.79" width="5.06" height="3.44"/>
      <rect class="cls-1" x="89.8" y="182.28" width="5.06" height="3.64"/>
      <rect class="cls-1" x="89.8" y="172.97" width="5.06" height="3.44"/>
      <rect class="cls-1" x="89.8" y="165.49" width="5.06" height="1.62"/>
      <rect class="cls-1" x="89.8" y="43.46" width="5.06" height="1.62"/>
      <rect class="cls-1" x="89.8" y="34.15" width="5.06" height="3.44"/>
      <rect class="cls-1" x="89.8" y="24.64" width="5.06" height="3.64"/>
      <rect class="cls-1" x="89.8" y="15.33" width="5.06" height="3.44"/>
      <rect class="cls-1" x="89.8" y="4.21" width="5.06" height="5.26"/>
      <rect class="cls-1" x="78.88" y="196.25" width="3.04" height="4.05"/>
      <rect class="cls-1" x="78.88" y="10.28" width="3.04" height="4.05"/>
      <polygon class="cls-2" points="78.88 200.29 78.88 201.1 75.03 201.1 75.03 169.94 78.88 169.94 78.88 196.25 78.88 200.29"/>
      <polygon class="cls-2" points="78.88 14.32 78.88 40.63 75.03 40.63 75.03 9.47 78.88 9.47 78.88 10.28 78.88 14.32"/>
      <rect class="cls-1" x="43.66" y="113.88" width="1.62" height="4.86"/>
      <rect class="cls-1" x="43.66" y="89.8" width="1.62" height="4.86"/>
      <polygon class="cls-2" points="43.66 118.74 43.66 126.84 37.8 126.84 37.8 118.74 37.8 113.88 37.8 94.66 37.8 89.8 37.8 81.71 43.66 81.71 43.66 89.8 43.66 94.66 43.66 113.88 43.66 118.74"/>
      <polygon class="cls-2" points="40.63 129.87 40.63 133.72 9.47 133.72 9.47 129.87 10.48 129.87 14.32 129.87 40.63 129.87"/>
      <polygon class="cls-2" points="40.63 74.83 40.63 78.88 14.32 78.88 10.48 78.88 9.47 78.88 9.47 74.83 40.63 74.83"/>
      <rect class="cls-1" x="34.15" y="113.88" width="3.64" height="4.86"/>
      <rect class="cls-1" x="34.15" y="89.8" width="3.64" height="4.86"/>
      <polygon class="cls-2" points="34.15 118.74 34.15 126.84 28.29 126.84 28.29 118.74 28.29 113.88 28.29 94.66 28.29 89.8 28.29 81.71 34.15 81.71 34.15 89.8 34.15 94.66 34.15 113.88 34.15 118.74"/>
      <rect class="cls-1" x="24.85" y="113.88" width="3.44" height="4.86"/>
      <rect class="cls-1" x="24.85" y="89.8" width="3.44" height="4.86"/>
      <polygon class="cls-2" points="24.85 118.74 24.85 126.84 18.98 126.84 18.98 118.74 18.98 113.88 18.98 94.66 18.98 89.8 18.98 81.71 24.85 81.71 24.85 89.8 24.85 94.66 24.85 113.88 24.85 118.74"/>
      <rect class="cls-1" x="15.33" y="113.88" width="3.64" height="4.86"/>
      <rect class="cls-1" x="15.33" y="89.8" width="3.64" height="4.86"/>
      <polygon class="cls-2" points="15.33 118.74 15.33 126.84 14.32 126.84 10.48 126.84 9.47 126.84 9.47 118.74 9.47 113.88 9.47 94.66 9.47 89.8 9.47 81.71 10.48 81.71 14.32 81.71 15.33 81.71 15.33 89.8 15.33 94.66 15.33 113.88 15.33 118.74"/>
      <rect class="cls-1" x="10.48" y="126.84" width="3.84" height="3.04"/>
      <rect class="cls-1" x="10.48" y="78.88" width="3.84" height="2.83"/>
      <rect class="cls-1" x="4.41" y="113.88" width="5.06" height="4.86"/>
      <rect class="cls-1" x="4.41" y="89.8" width="5.06" height="4.86"/>
      <polygon class="cls-2" points="4.41 113.88 4.41 118.74 4.41 126.84 .36 126.84 .36 81.71 4.41 81.71 4.41 89.8 4.41 94.66 4.41 113.88"/>
    </g>
    <g>
      <path d="m127.04,43.82h-45.13c-.2,0-.36-.16-.36-.36v-5.87c0-.2.16-.36.36-.36h45.13c.2,0,.36.16.36.36v5.87c0,.2-.16.36-.36.36Zm-44.77-.72h44.41v-5.15h-44.41v5.15Z"/>
      <path d="m127.04,34.51h-45.13c-.2,0-.36-.16-.36-.36v-5.87c0-.2.16-.36.36-.36h45.13c.2,0,.36.16.36.36v5.87c0,.2-.16.36-.36.36Zm-44.77-.72h44.41v-5.15h-44.41v5.15Z"/>
      <path d="m127.04,25h-45.13c-.2,0-.36-.16-.36-.36v-5.87c0-.2.16-.36.36-.36h45.13c.2,0,.36.16.36.36v5.87c0,.2-.16.36-.36.36Zm-44.77-.72h44.41v-5.15h-44.41v5.15Z"/>
      <path d="m127.04,15.7h-45.13c-.2,0-.36-.16-.36-.36v-5.87c0-.2.16-.36.36-.36h45.13c.2,0,.36.16.36.36v5.87c0,.2-.16.36-.36.36Zm-44.77-.72h44.41v-5.15h-44.41v5.15Z"/>
      <path d="m94.86,9.83c-.2,0-.36-.16-.36-.36v-5.26c0-.2.16-.36.36-.36s.36.16.36.36v5.26c0,.2-.16.36-.36.36Z"/>
      <path d="m89.8,9.83c-.2,0-.36-.16-.36-.36v-5.26c0-.2.16-.36.36-.36s.36.16.36.36v5.26c0,.2-.16.36-.36.36Z"/>
      <path d="m94.86,19.14c-.2,0-.36-.16-.36-.36v-3.44c0-.2.16-.36.36-.36s.36.16.36.36v3.44c0,.2-.16.36-.36.36Z"/>
      <path d="m94.86,28.65c-.2,0-.36-.16-.36-.36v-3.64c0-.2.16-.36.36-.36s.36.16.36.36v3.64c0,.2-.16.36-.36.36Z"/>
      <path d="m94.86,37.95c-.2,0-.36-.16-.36-.36v-3.44c0-.2.16-.36.36-.36s.36.16.36.36v3.44c0,.2-.16.36-.36.36Z"/>
      <path d="m94.86,45.44h-5.06c-.2,0-.36-.16-.36-.36v-1.62c0-.2.16-.36.36-.36s.36.16.36.36v1.26h4.34v-1.26c0-.2.16-.36.36-.36s.36.16.36.36v1.62c0,.2-.16.36-.36.36Z"/>
      <path d="m89.8,37.95c-.2,0-.36-.16-.36-.36v-3.44c0-.2.16-.36.36-.36s.36.16.36.36v3.44c0,.2-.16.36-.36.36Z"/>
      <path d="m89.8,28.65c-.2,0-.36-.16-.36-.36v-3.64c0-.2.16-.36.36-.36s.36.16.36.36v3.64c0,.2-.16.36-.36.36Z"/>
      <path d="m89.8,19.14c-.2,0-.36-.16-.36-.36v-3.44c0-.2.16-.36.36-.36s.36.16.36.36v3.44c0,.2-.16.36-.36.36Z"/>
      <path d="m114.09,9.83c-.2,0-.36-.16-.36-.36v-5.26c0-.2.16-.36.36-.36s.36.16.36.36v5.26c0,.2-.16.36-.36.36Z"/>
      <path d="m118.94,9.83c-.2,0-.36-.16-.36-.36v-5.26c0-.2.16-.36.36-.36s.36.16.36.36v5.26c0,.2-.16.36-.36.36Z"/>
      <path d="m114.09,19.14c-.2,0-.36-.16-.36-.36v-3.44c0-.2.16-.36.36-.36s.36.16.36.36v3.44c0,.2-.16.36-.36.36Z"/>
      <path d="m114.09,28.65c-.2,0-.36-.16-.36-.36v-3.64c0-.2.16-.36.36-.36s.36.16.36.36v3.64c0,.2-.16.36-.36.36Z"/>
      <path d="m114.09,37.95c-.2,0-.36-.16-.36-.36v-3.44c0-.2.16-.36.36-.36s.36.16.36.36v3.44c0,.2-.16.36-.36.36Z"/>
      <path d="m118.94,45.44h-4.86c-.2,0-.36-.16-.36-.36v-1.62c0-.2.16-.36.36-.36s.36.16.36.36v1.26h4.14v-1.26c0-.2.16-.36.36-.36s.36.16.36.36v1.62c0,.2-.16.36-.36.36Z"/>
      <path d="m118.94,37.95c-.2,0-.36-.16-.36-.36v-3.44c0-.2.16-.36.36-.36s.36.16.36.36v3.44c0,.2-.16.36-.36.36Z"/>
      <path d="m118.94,28.65c-.2,0-.36-.16-.36-.36v-3.64c0-.2.16-.36.36-.36s.36.16.36.36v3.64c0,.2-.16.36-.36.36Z"/>
      <path d="m118.94,19.14c-.2,0-.36-.16-.36-.36v-3.44c0-.2.16-.36.36-.36s.36.16.36.36v3.44c0,.2-.16.36-.36.36Z"/>
      <path d="m127.04,4.57h-45.13c-.2,0-.36-.16-.36-.36V.36c0-.2.16-.36.36-.36h45.13c.2,0,.36.16.36.36v3.84c0,.2-.16.36-.36.36Zm-44.77-.72h44.41V.72h-44.41v3.12Z"/>
      <path d="m78.88,40.99h-3.85c-.2,0-.36-.16-.36-.36V9.47c0-.2.16-.36.36-.36h3.85c.2,0,.36.16.36.36v31.16c0,.2-.16.36-.36.36Zm-3.49-.72h3.12V9.83h-3.12v30.44Z"/>
      <path d="m81.91,14.68h-3.04c-.2,0-.36-.16-.36-.36s.16-.36.36-.36h3.04c.2,0,.36.16.36.36s-.16.36-.36.36Z"/>
      <path d="m81.91,10.64h-3.04c-.2,0-.36-.16-.36-.36s.16-.36.36-.36h3.04c.2,0,.36.16.36.36s-.16.36-.36.36Z"/>
      <path d="m133.92,40.99h-4.05c-.2,0-.36-.16-.36-.36V9.47c0-.2.16-.36.36-.36h4.05c.2,0,.36.16.36.36v31.16c0,.2-.16.36-.36.36Zm-3.69-.72h3.33V9.83h-3.33v30.44Z"/>
      <path d="m129.87,14.68h-2.83c-.2,0-.36-.16-.36-.36s.16-.36.36-.36h2.83c.2,0,.36.16.36.36s-.16.36-.36.36Z"/>
      <path d="m129.87,10.64h-2.83c-.2,0-.36-.16-.36-.36s.16-.36.36-.36h2.83c.2,0,.36.16.36.36s-.16.36-.36.36Z"/>
      <path d="m154.36,154.72H56.41c-.2,0-.36-.16-.36-.36s.16-.36.36-.36h97.58V56.57H56.41c-.2,0-.36-.16-.36-.36s.16-.36.36-.36h97.94c.2,0,.36.16.36.36v98.14c0,.2-.16.36-.36.36Z"/>
      <path d="m154.36,66.49H56.41c-.2,0-.36-.16-.36-.36s.16-.36.36-.36h97.94c.2,0,.36.16.36.36s-.16.36-.36.36Z"/>
      <path d="m154.36,76.2H56.41c-.2,0-.36-.16-.36-.36s.16-.36.36-.36h97.94c.2,0,.36.16.36.36s-.16.36-.36.36Z"/>
      <path d="m154.36,86.12H56.41c-.2,0-.36-.16-.36-.36s.16-.36.36-.36h97.94c.2,0,.36.16.36.36s-.16.36-.36.36Z"/>
      <path d="m154.36,95.83H56.41c-.2,0-.36-.16-.36-.36s.16-.36.36-.36h97.94c.2,0,.36.16.36.36s-.16.36-.36.36Z"/>
      <path d="m154.36,105.75H56.41c-.2,0-.36-.16-.36-.36s.16-.36.36-.36h97.94c.2,0,.36.16.36.36s-.16.36-.36.36Z"/>
      <path d="m154.36,115.46H56.41c-.2,0-.36-.16-.36-.36s.16-.36.36-.36h97.94c.2,0,.36.16.36.36s-.16.36-.36.36Z"/>
      <path d="m154.36,125.17H56.41c-.2,0-.36-.16-.36-.36s.16-.36.36-.36h97.94c.2,0,.36.16.36.36s-.16.36-.36.36Z"/>
      <path d="m154.36,135.09H56.41c-.2,0-.36-.16-.36-.36s.16-.36.36-.36h97.94c.2,0,.36.16.36.36s-.16.36-.36.36Z"/>
      <path d="m154.36,144.8H56.41c-.2,0-.36-.16-.36-.36s.16-.36.36-.36h97.94c.2,0,.36.16.36.36s-.16.36-.36.36Z"/>
      <path d="m56.41,154.72c-.2,0-.36-.16-.36-.36V56.21c0-.2.16-.36.36-.36s.36.16.36.36v98.14c0,.2-.16.36-.36.36Z"/>
      <path d="m127.04,173.33h-45.13c-.2,0-.36-.16-.36-.36v-5.87c0-.2.16-.36.36-.36h45.13c.2,0,.36.16.36.36v5.87c0,.2-.16.36-.36.36Zm-44.77-.72h44.41v-5.15h-44.41v5.15Z"/>
      <path d="m127.04,182.64h-45.13c-.2,0-.36-.16-.36-.36v-5.87c0-.2.16-.36.36-.36h45.13c.2,0,.36.16.36.36v5.87c0,.2-.16.36-.36.36Zm-44.77-.72h44.41v-5.15h-44.41v5.15Z"/>
      <path d="m127.04,192.15h-45.13c-.2,0-.36-.16-.36-.36v-5.87c0-.2.16-.36.36-.36h45.13c.2,0,.36.16.36.36v5.87c0,.2-.16.36-.36.36Zm-44.77-.72h44.41v-5.15h-44.41v5.15Z"/>
      <path d="m127.04,201.46h-45.13c-.2,0-.36-.16-.36-.36v-5.87c0-.2.16-.36.36-.36h45.13c.2,0,.36.16.36.36v5.87c0,.2-.16.36-.36.36Zm-44.77-.72h44.41v-5.15h-44.41v5.15Z"/>
      <path d="m94.86,206.72c-.2,0-.36-.16-.36-.36v-5.26c0-.2.16-.36.36-.36s.36.16.36.36v5.26c0,.2-.16.36-.36.36Z"/>
      <path d="m89.8,206.72c-.2,0-.36-.16-.36-.36v-5.26c0-.2.16-.36.36-.36s.36.16.36.36v5.26c0,.2-.16.36-.36.36Z"/>
      <path d="m94.86,195.59c-.2,0-.36-.16-.36-.36v-3.44c0-.2.16-.36.36-.36s.36.16.36.36v3.44c0,.2-.16.36-.36.36Z"/>
      <path d="m94.86,186.29c-.2,0-.36-.16-.36-.36v-3.64c0-.2.16-.36.36-.36s.36.16.36.36v3.64c0,.2-.16.36-.36.36Z"/>
      <path d="m94.86,176.77c-.2,0-.36-.16-.36-.36v-3.44c0-.2.16-.36.36-.36s.36.16.36.36v3.44c0,.2-.16.36-.36.36Z"/>
      <path d="m94.86,167.47c-.2,0-.36-.16-.36-.36v-1.26h-4.34v1.26c0,.2-.16.36-.36.36s-.36-.16-.36-.36v-1.62c0-.2.16-.36.36-.36h5.06c.2,0,.36.16.36.36v1.62c0,.2-.16.36-.36.36Z"/>
      <path d="m89.8,176.77c-.2,0-.36-.16-.36-.36v-3.44c0-.2.16-.36.36-.36s.36.16.36.36v3.44c0,.2-.16.36-.36.36Z"/>
      <path d="m89.8,186.29c-.2,0-.36-.16-.36-.36v-3.64c0-.2.16-.36.36-.36s.36.16.36.36v3.64c0,.2-.16.36-.36.36Z"/>
      <path d="m89.8,195.59c-.2,0-.36-.16-.36-.36v-3.44c0-.2.16-.36.36-.36s.36.16.36.36v3.44c0,.2-.16.36-.36.36Z"/>
      <path d="m114.09,206.72c-.2,0-.36-.16-.36-.36v-5.26c0-.2.16-.36.36-.36s.36.16.36.36v5.26c0,.2-.16.36-.36.36Z"/>
      <path d="m118.94,206.72c-.2,0-.36-.16-.36-.36v-5.26c0-.2.16-.36.36-.36s.36.16.36.36v5.26c0,.2-.16.36-.36.36Z"/>
      <path d="m114.09,195.59c-.2,0-.36-.16-.36-.36v-3.44c0-.2.16-.36.36-.36s.36.16.36.36v3.44c0,.2-.16.36-.36.36Z"/>
      <path d="m114.09,186.29c-.2,0-.36-.16-.36-.36v-3.64c0-.2.16-.36.36-.36s.36.16.36.36v3.64c0,.2-.16.36-.36.36Z"/>
      <path d="m114.09,176.77c-.2,0-.36-.16-.36-.36v-3.44c0-.2.16-.36.36-.36s.36.16.36.36v3.44c0,.2-.16.36-.36.36Z"/>
      <path d="m118.94,167.47c-.2,0-.36-.16-.36-.36v-1.26h-4.14v1.26c0,.2-.16.36-.36.36s-.36-.16-.36-.36v-1.62c0-.2.16-.36.36-.36h4.86c.2,0,.36.16.36.36v1.62c0,.2-.16.36-.36.36Z"/>
      <path d="m118.94,176.77c-.2,0-.36-.16-.36-.36v-3.44c0-.2.16-.36.36-.36s.36.16.36.36v3.44c0,.2-.16.36-.36.36Z"/>
      <path d="m118.94,186.29c-.2,0-.36-.16-.36-.36v-3.64c0-.2.16-.36.36-.36s.36.16.36.36v3.64c0,.2-.16.36-.36.36Z"/>
      <path d="m118.94,195.59c-.2,0-.36-.16-.36-.36v-3.44c0-.2.16-.36.36-.36s.36.16.36.36v3.44c0,.2-.16.36-.36.36Z"/>
      <path d="m127.04,210.57h-45.13c-.2,0-.36-.16-.36-.36v-3.84c0-.2.16-.36.36-.36h45.13c.2,0,.36.16.36.36v3.84c0,.2-.16.36-.36.36Zm-44.77-.72h44.41v-3.12h-44.41v3.12Z"/>
      <path d="m78.88,201.46h-3.85c-.2,0-.36-.16-.36-.36v-31.16c0-.2.16-.36.36-.36h3.85c.2,0,.36.16.36.36v31.16c0,.2-.16.36-.36.36Zm-3.49-.72h3.12v-30.44h-3.12v30.44Z"/>
      <path d="m81.91,196.61h-3.04c-.2,0-.36-.16-.36-.36s.16-.36.36-.36h3.04c.2,0,.36.16.36.36s-.16.36-.36.36Z"/>
      <path d="m81.91,200.65h-3.04c-.2,0-.36-.16-.36-.36s.16-.36.36-.36h3.04c.2,0,.36.16.36.36s-.16.36-.36.36Z"/>
      <path d="m133.92,201.46h-4.05c-.2,0-.36-.16-.36-.36v-31.16c0-.2.16-.36.36-.36h4.05c.2,0,.36.16.36.36v31.16c0,.2-.16.36-.36.36Zm-3.69-.72h3.33v-30.44h-3.33v30.44Z"/>
      <path d="m129.87,196.61h-2.83c-.2,0-.36-.16-.36-.36s.16-.36.36-.36h2.83c.2,0,.36.16.36.36s-.16.36-.36.36Z"/>
      <path d="m129.87,200.65h-2.83c-.2,0-.36-.16-.36-.36s.16-.36.36-.36h2.83c.2,0,.36.16.36.36s-.16.36-.36.36Z"/>
      <path d="m172.97,127.2h-5.87c-.2,0-.36-.16-.36-.36v-45.13c0-.2.16-.36.36-.36h5.87c.2,0,.36.16.36.36v45.13c0,.2-.16.36-.36.36Zm-5.51-.72h5.15v-44.41h-5.15v44.41Z"/>
      <path d="m182.48,127.2h-5.87c-.2,0-.36-.16-.36-.36v-45.13c0-.2.16-.36.36-.36h5.87c.2,0,.36.16.36.36v45.13c0,.2-.16.36-.36.36Zm-5.51-.72h5.15v-44.41h-5.15v44.41Z"/>
      <path d="m191.79,127.2h-5.87c-.2,0-.36-.16-.36-.36v-45.13c0-.2.16-.36.36-.36h5.87c.2,0,.36.16.36.36v45.13c0,.2-.16.36-.36.36Zm-5.51-.72h5.15v-44.41h-5.15v44.41Z"/>
      <path d="m201.3,127.2h-5.87c-.2,0-.36-.16-.36-.36v-45.13c0-.2.16-.36.36-.36h5.87c.2,0,.36.16.36.36v45.13c0,.2-.16.36-.36.36Zm-5.51-.72h5.15v-44.41h-5.15v44.41Z"/>
      <path d="m206.36,95.02h-5.06c-.2,0-.36-.16-.36-.36s.16-.36.36-.36h5.06c.2,0,.36.16.36.36s-.16.36-.36.36Z"/>
      <path d="m206.36,90.16h-5.06c-.2,0-.36-.16-.36-.36s.16-.36.36-.36h5.06c.2,0,.36.16.36.36s-.16.36-.36.36Z"/>
      <path d="m195.44,95.02h-3.64c-.2,0-.36-.16-.36-.36s.16-.36.36-.36h3.64c.2,0,.36.16.36.36s-.16.36-.36.36Z"/>
      <path d="m185.92,95.02h-3.44c-.2,0-.36-.16-.36-.36s.16-.36.36-.36h3.44c.2,0,.36.16.36.36s-.16.36-.36.36Z"/>
      <path d="m176.62,95.02h-3.64c-.2,0-.36-.16-.36-.36s.16-.36.36-.36h3.64c.2,0,.36.16.36.36s-.16.36-.36.36Z"/>
      <path d="m167.1,95.02h-1.62c-.2,0-.36-.16-.36-.36v-4.86c0-.2.16-.36.36-.36h1.62c.2,0,.36.16.36.36s-.16.36-.36.36h-1.26v4.14h1.26c.2,0,.36.16.36.36s-.16.36-.36.36Z"/>
      <path d="m176.62,90.16h-3.64c-.2,0-.36-.16-.36-.36s.16-.36.36-.36h3.64c.2,0,.36.16.36.36s-.16.36-.36.36Z"/>
      <path d="m185.92,90.16h-3.44c-.2,0-.36-.16-.36-.36s.16-.36.36-.36h3.44c.2,0,.36.16.36.36s-.16.36-.36.36Z"/>
      <path d="m195.44,90.16h-3.64c-.2,0-.36-.16-.36-.36s.16-.36.36-.36h3.64c.2,0,.36.16.36.36s-.16.36-.36.36Z"/>
      <path d="m206.36,114.25h-5.06c-.2,0-.36-.16-.36-.36s.16-.36.36-.36h5.06c.2,0,.36.16.36.36s-.16.36-.36.36Z"/>
      <path d="m206.36,119.1h-5.06c-.2,0-.36-.16-.36-.36s.16-.36.36-.36h5.06c.2,0,.36.16.36.36s-.16.36-.36.36Z"/>
      <path d="m195.44,114.25h-3.64c-.2,0-.36-.16-.36-.36s.16-.36.36-.36h3.64c.2,0,.36.16.36.36s-.16.36-.36.36Z"/>
      <path d="m185.92,114.25h-3.44c-.2,0-.36-.16-.36-.36s.16-.36.36-.36h3.44c.2,0,.36.16.36.36s-.16.36-.36.36Z"/>
      <path d="m176.62,114.25h-3.64c-.2,0-.36-.16-.36-.36s.16-.36.36-.36h3.64c.2,0,.36.16.36.36s-.16.36-.36.36Z"/>
      <path d="m167.1,119.1h-1.62c-.2,0-.36-.16-.36-.36v-4.86c0-.2.16-.36.36-.36h1.62c.2,0,.36.16.36.36s-.16.36-.36.36h-1.26v4.14h1.26c.2,0,.36.16.36.36s-.16.36-.36.36Z"/>
      <path d="m176.62,119.1h-3.64c-.2,0-.36-.16-.36-.36s.16-.36.36-.36h3.64c.2,0,.36.16.36.36s-.16.36-.36.36Z"/>
      <path d="m185.92,119.1h-3.44c-.2,0-.36-.16-.36-.36s.16-.36.36-.36h3.44c.2,0,.36.16.36.36s-.16.36-.36.36Z"/>
      <path d="m195.44,119.1h-3.64c-.2,0-.36-.16-.36-.36s.16-.36.36-.36h3.64c.2,0,.36.16.36.36s-.16.36-.36.36Z"/>
      <path d="m210.41,127.2h-4.05c-.2,0-.36-.16-.36-.36v-45.13c0-.2.16-.36.36-.36h4.05c.2,0,.36.16.36.36v45.13c0,.2-.16.36-.36.36Zm-3.69-.72h3.33v-44.41h-3.33v44.41Z"/>
      <path d="m201.3,79.24h-31.16c-.2,0-.36-.16-.36-.36v-4.05c0-.2.16-.36.36-.36h31.16c.2,0,.36.16.36.36v4.05c0,.2-.16.36-.36.36Zm-30.8-.72h30.44v-3.33h-30.44v3.33Z"/>
      <path d="m196.45,82.07c-.2,0-.36-.16-.36-.36v-2.83c0-.2.16-.36.36-.36s.36.16.36.36v2.83c0,.2-.16.36-.36.36Z"/>
      <path d="m200.29,82.07c-.2,0-.36-.16-.36-.36v-2.83c0-.2.16-.36.36-.36s.36.16.36.36v2.83c0,.2-.16.36-.36.36Z"/>
      <path d="m201.3,134.08h-31.16c-.2,0-.36-.16-.36-.36v-3.84c0-.2.16-.36.36-.36h31.16c.2,0,.36.16.36.36v3.84c0,.2-.16.36-.36.36Zm-30.8-.72h30.44v-3.12h-30.44v3.12Z"/>
      <path d="m196.45,130.23c-.2,0-.36-.16-.36-.36v-3.04c0-.2.16-.36.36-.36s.36.16.36.36v3.04c0,.2-.16.36-.36.36Z"/>
      <path d="m200.29,130.23c-.2,0-.36-.16-.36-.36v-3.04c0-.2.16-.36.36-.36s.36.16.36.36v3.04c0,.2-.16.36-.36.36Z"/>
      <path d="m43.67,127.2h-5.87c-.2,0-.36-.16-.36-.36v-45.13c0-.2.16-.36.36-.36h5.87c.2,0,.36.16.36.36v45.13c0,.2-.16.36-.36.36Zm-5.51-.72h5.15v-44.41h-5.15v44.41Z"/>
      <path d="m34.15,127.2h-5.87c-.2,0-.36-.16-.36-.36v-45.13c0-.2.16-.36.36-.36h5.87c.2,0,.36.16.36.36v45.13c0,.2-.16.36-.36.36Zm-5.51-.72h5.15v-44.41h-5.15v44.41Z"/>
      <path d="m24.85,127.2h-5.87c-.2,0-.36-.16-.36-.36v-45.13c0-.2.16-.36.36-.36h5.87c.2,0,.36.16.36.36v45.13c0,.2-.16.36-.36.36Zm-5.51-.72h5.15v-44.41h-5.15v44.41Z"/>
      <path d="m15.33,127.2h-5.87c-.2,0-.36-.16-.36-.36v-45.13c0-.2.16-.36.36-.36h5.87c.2,0,.36.16.36.36v45.13c0,.2-.16.36-.36.36Zm-5.51-.72h5.15v-44.41h-5.15v44.41Z"/>
      <path d="m9.47,95.02h-5.06c-.2,0-.36-.16-.36-.36s.16-.36.36-.36h5.06c.2,0,.36.16.36.36s-.16.36-.36.36Z"/>
      <path d="m9.47,90.16h-5.06c-.2,0-.36-.16-.36-.36s.16-.36.36-.36h5.06c.2,0,.36.16.36.36s-.16.36-.36.36Z"/>
      <path d="m18.98,95.02h-3.64c-.2,0-.36-.16-.36-.36s.16-.36.36-.36h3.64c.2,0,.36.16.36.36s-.16.36-.36.36Z"/>
      <path d="m28.29,95.02h-3.44c-.2,0-.36-.16-.36-.36s.16-.36.36-.36h3.44c.2,0,.36.16.36.36s-.16.36-.36.36Z"/>
      <path d="m37.8,95.02h-3.64c-.2,0-.36-.16-.36-.36s.16-.36.36-.36h3.64c.2,0,.36.16.36.36s-.16.36-.36.36Z"/>
      <path d="m45.28,95.02h-1.62c-.2,0-.36-.16-.36-.36s.16-.36.36-.36h1.26v-4.14h-1.26c-.2,0-.36-.16-.36-.36s.16-.36.36-.36h1.62c.2,0,.36.16.36.36v4.86c0,.2-.16.36-.36.36Z"/>
      <path d="m37.8,90.16h-3.64c-.2,0-.36-.16-.36-.36s.16-.36.36-.36h3.64c.2,0,.36.16.36.36s-.16.36-.36.36Z"/>
      <path d="m28.29,90.16h-3.44c-.2,0-.36-.16-.36-.36s.16-.36.36-.36h3.44c.2,0,.36.16.36.36s-.16.36-.36.36Z"/>
      <path d="m18.98,90.16h-3.64c-.2,0-.36-.16-.36-.36s.16-.36.36-.36h3.64c.2,0,.36.16.36.36s-.16.36-.36.36Z"/>
      <path d="m9.47,114.25h-5.06c-.2,0-.36-.16-.36-.36s.16-.36.36-.36h5.06c.2,0,.36.16.36.36s-.16.36-.36.36Z"/>
      <path d="m9.47,119.1h-5.06c-.2,0-.36-.16-.36-.36s.16-.36.36-.36h5.06c.2,0,.36.16.36.36s-.16.36-.36.36Z"/>
      <path d="m18.98,114.25h-3.64c-.2,0-.36-.16-.36-.36s.16-.36.36-.36h3.64c.2,0,.36.16.36.36s-.16.36-.36.36Z"/>
      <path d="m28.29,114.25h-3.44c-.2,0-.36-.16-.36-.36s.16-.36.36-.36h3.44c.2,0,.36.16.36.36s-.16.36-.36.36Z"/>
      <path d="m37.8,114.25h-3.64c-.2,0-.36-.16-.36-.36s.16-.36.36-.36h3.64c.2,0,.36.16.36.36s-.16.36-.36.36Z"/>
      <path d="m45.28,119.1h-1.62c-.2,0-.36-.16-.36-.36s.16-.36.36-.36h1.26v-4.14h-1.26c-.2,0-.36-.16-.36-.36s.16-.36.36-.36h1.62c.2,0,.36.16.36.36v4.86c0,.2-.16.36-.36.36Z"/>
      <path d="m37.8,119.1h-3.64c-.2,0-.36-.16-.36-.36s.16-.36.36-.36h3.64c.2,0,.36.16.36.36s-.16.36-.36.36Z"/>
      <path d="m28.29,119.1h-3.44c-.2,0-.36-.16-.36-.36s.16-.36.36-.36h3.44c.2,0,.36.16.36.36s-.16.36-.36.36Z"/>
      <path d="m18.98,119.1h-3.64c-.2,0-.36-.16-.36-.36s.16-.36.36-.36h3.64c.2,0,.36.16.36.36s-.16.36-.36.36Z"/>
      <path d="m4.41,127.2H.36c-.2,0-.36-.16-.36-.36v-45.13c0-.2.16-.36.36-.36h4.05c.2,0,.36.16.36.36v45.13c0,.2-.16.36-.36.36Zm-3.69-.72h3.33v-44.41H.72v44.41Z"/>
      <path d="m40.63,79.24H9.47c-.2,0-.36-.16-.36-.36v-4.05c0-.2.16-.36.36-.36h31.16c.2,0,.36.16.36.36v4.05c0,.2-.16.36-.36.36Zm-30.8-.72h30.44v-3.33H9.83v3.33Z"/>
      <path d="m14.32,82.07c-.2,0-.36-.16-.36-.36v-2.83c0-.2.16-.36.36-.36s.36.16.36.36v2.83c0,.2-.16.36-.36.36Z"/>
      <path d="m10.48,82.07c-.2,0-.36-.16-.36-.36v-2.83c0-.2.16-.36.36-.36s.36.16.36.36v2.83c0,.2-.16.36-.36.36Z"/>
      <path d="m40.63,134.08H9.47c-.2,0-.36-.16-.36-.36v-3.84c0-.2.16-.36.36-.36h31.16c.2,0,.36.16.36.36v3.84c0,.2-.16.36-.36.36Zm-30.8-.72h30.44v-3.12H9.83v3.12Z"/>
      <path d="m14.32,130.23c-.2,0-.36-.16-.36-.36v-3.04c0-.2.16-.36.36-.36s.36.16.36.36v3.04c0,.2-.16.36-.36.36Z"/>
      <path d="m10.48,130.23c-.2,0-.36-.16-.36-.36v-3.04c0-.2.16-.36.36-.36s.36.16.36.36v3.04c0,.2-.16.36-.36.36Z"/>
    </g>
  </g>
</svg>