<?xml version="1.0" encoding="UTF-8"?>
<svg xmlns="http://www.w3.org/2000/svg" xmlns:xlink="http://www.w3.org/1999/xlink" viewBox="0 0 120.76 64.1">
  <defs>
    <style>
      .cls-1 {
        fill: url(#linear-gradient-3);
      }

      .cls-1, .cls-2, .cls-3, .cls-4, .cls-5, .cls-6 {
        mix-blend-mode: multiply;
      }

      .cls-7 {
        fill: #fff;
      }

      .cls-2 {
        fill: url(#linear-gradient);
      }

      .cls-8 {
        fill: #939598;
      }

      .cls-3 {
        fill: url(#linear-gradient-4);
      }

      .cls-9 {
        filter: url(#luminosity-noclip-5);
      }

      .cls-10 {
        mask: url(#mask-2);
      }

      .cls-11 {
        isolation: isolate;
      }

      .cls-12 {
        fill: #909090;
      }

      .cls-13 {
        mask: url(#mask-3);
      }

      .cls-4 {
        fill: url(#linear-gradient-6);
      }

      .cls-5 {
        fill: url(#linear-gradient-5);
      }

      .cls-14 {
        mask: url(#mask-5);
      }

      .cls-15 {
        mask: url(#mask-4);
      }

      .cls-6 {
        fill: url(#linear-gradient-2);
      }

      .cls-16 {
        filter: url(#luminosity-noclip);
      }

      .cls-17 {
        mask: url(#mask-1);
      }

      .cls-18 {
        mask: url(#mask);
      }

      .cls-19 {
        filter: url(#luminosity-noclip-3);
      }
    </style>
    <filter id="luminosity-noclip" x="86.41" y="11.92" width="32.43" height="44.95" color-interpolation-filters="sRGB" filterUnits="userSpaceOnUse">
      <feFlood flood-color="#fff" result="bg"/>
      <feBlend in="SourceGraphic" in2="bg"/>
    </filter>
    <filter id="luminosity-noclip-2" x="86.41" y="-8132.8" width="32.43" height="32766" color-interpolation-filters="sRGB" filterUnits="userSpaceOnUse">
      <feFlood flood-color="#fff" result="bg"/>
      <feBlend in="SourceGraphic" in2="bg"/>
    </filter>
    <mask id="mask-1" x="86.41" y="-8132.8" width="32.43" height="32766" maskUnits="userSpaceOnUse"/>
    <linearGradient id="linear-gradient" x1="1630.87" y1="-4968.14" x2="1663.31" y2="-4968.14" gradientTransform="translate(-1544.47 5002.53)" gradientUnits="userSpaceOnUse">
      <stop offset="0" stop-color="#fff"/>
      <stop offset=".08" stop-color="#dadada"/>
      <stop offset=".22" stop-color="#a1a1a1"/>
      <stop offset=".36" stop-color="#6f6f6f"/>
      <stop offset=".5" stop-color="#474747"/>
      <stop offset=".63" stop-color="#282828"/>
      <stop offset=".76" stop-color="#111"/>
      <stop offset=".89" stop-color="#040404"/>
      <stop offset="1" stop-color="#000"/>
    </linearGradient>
    <mask id="mask" x="86.41" y="11.92" width="32.43" height="44.95" maskUnits="userSpaceOnUse">
      <g class="cls-16">
        <g class="cls-17">
          <rect class="cls-2" x="86.41" y="11.92" width="32.43" height="44.95"/>
        </g>
      </g>
    </mask>
    <linearGradient id="linear-gradient-2" x1="1630.87" y1="-4968.14" x2="1663.31" y2="-4968.14" gradientTransform="translate(-1544.47 5002.53)" gradientUnits="userSpaceOnUse">
      <stop offset="0" stop-color="#858585"/>
      <stop offset=".05" stop-color="#8f8f8f"/>
      <stop offset=".25" stop-color="#b7b7b7"/>
      <stop offset=".45" stop-color="#d6d6d6"/>
      <stop offset=".65" stop-color="#ededed"/>
      <stop offset=".83" stop-color="#fafafa"/>
      <stop offset="1" stop-color="#fff"/>
    </linearGradient>
    <filter id="luminosity-noclip-3" x="13.53" y="11.92" width="13.25" height="44.95" color-interpolation-filters="sRGB" filterUnits="userSpaceOnUse">
      <feFlood flood-color="#fff" result="bg"/>
      <feBlend in="SourceGraphic" in2="bg"/>
    </filter>
    <filter id="luminosity-noclip-4" x="13.53" y="-8132.8" width="13.25" height="32766" color-interpolation-filters="sRGB" filterUnits="userSpaceOnUse">
      <feFlood flood-color="#fff" result="bg"/>
      <feBlend in="SourceGraphic" in2="bg"/>
    </filter>
    <mask id="mask-3" x="13.53" y="-8132.8" width="13.25" height="32766" maskUnits="userSpaceOnUse"/>
    <linearGradient id="linear-gradient-3" x1="1558" y1="-4968.14" x2="1571.25" y2="-4968.14" gradientTransform="translate(-1544.47 5002.53)" gradientUnits="userSpaceOnUse">
      <stop offset="0" stop-color="#fff"/>
      <stop offset="1" stop-color="#000"/>
    </linearGradient>
    <mask id="mask-2" x="13.53" y="11.92" width="13.25" height="44.95" maskUnits="userSpaceOnUse">
      <g class="cls-19">
        <g class="cls-13">
          <rect class="cls-1" x="13.53" y="11.92" width="13.25" height="44.95"/>
        </g>
      </g>
    </mask>
    <linearGradient id="linear-gradient-4" x1="1558" y1="-4968.14" x2="1571.25" y2="-4968.14" gradientTransform="translate(-1544.47 5002.53)" gradientUnits="userSpaceOnUse">
      <stop offset="0" stop-color="#000"/>
      <stop offset="1" stop-color="#fff"/>
    </linearGradient>
    <filter id="luminosity-noclip-5" x="14.19" y="11.93" width="72.22" height="44.95" color-interpolation-filters="sRGB" filterUnits="userSpaceOnUse">
      <feFlood flood-color="#fff" result="bg"/>
      <feBlend in="SourceGraphic" in2="bg"/>
    </filter>
    <filter id="luminosity-noclip-6" x="14.19" y="-8132.8" width="72.22" height="32766" color-interpolation-filters="sRGB" filterUnits="userSpaceOnUse">
      <feFlood flood-color="#fff" result="bg"/>
      <feBlend in="SourceGraphic" in2="bg"/>
    </filter>
    <mask id="mask-5" x="14.19" y="-8132.8" width="72.22" height="32766" maskUnits="userSpaceOnUse"/>
    <linearGradient id="linear-gradient-5" x1="1558.65" y1="-4968.13" x2="1630.87" y2="-4968.13" gradientTransform="translate(-1544.47 5002.53)" gradientUnits="userSpaceOnUse">
      <stop offset="0" stop-color="#000"/>
      <stop offset=".11" stop-color="#040404"/>
      <stop offset=".24" stop-color="#111"/>
      <stop offset=".37" stop-color="#282828"/>
      <stop offset=".5" stop-color="#474747"/>
      <stop offset=".64" stop-color="#6f6f6f"/>
      <stop offset=".78" stop-color="#a1a1a1"/>
      <stop offset=".92" stop-color="#dadada"/>
      <stop offset="1" stop-color="#fff"/>
    </linearGradient>
    <mask id="mask-4" x="14.19" y="11.93" width="72.22" height="44.95" maskUnits="userSpaceOnUse">
      <g class="cls-9">
        <g class="cls-14">
          <rect class="cls-5" x="14.19" y="11.93" width="72.22" height="44.95"/>
        </g>
      </g>
    </mask>
    <linearGradient id="linear-gradient-6" x1="1558.65" y1="-4968.13" x2="1630.87" y2="-4968.13" gradientTransform="translate(-1544.47 5002.53)" gradientUnits="userSpaceOnUse">
      <stop offset="0" stop-color="#fff"/>
      <stop offset=".17" stop-color="#fafafa"/>
      <stop offset=".35" stop-color="#ededed"/>
      <stop offset=".55" stop-color="#d6d6d6"/>
      <stop offset=".75" stop-color="#b7b7b7"/>
      <stop offset=".95" stop-color="#8f8f8f"/>
      <stop offset="1" stop-color="#858585"/>
    </linearGradient>
  </defs>
  <g class="cls-11">
    <g id="Layer_1" data-name="Layer 1">
      <polygon class="cls-8" points="9.11 51.8 10.12 51.8 13.96 51.8 81.35 51.8 113.73 51.8 113.73 43.91 115.35 43.91 115.35 39.06 113.73 39.06 113.73 19.63 115.35 19.63 115.35 14.77 113.73 14.77 113.73 6.88 81.35 6.88 13.96 6.88 10.12 6.88 9.11 6.88 0 6.88 0 51.8 9.11 51.8"/>
      <polygon class="cls-8" points="10.12 54.84 9.11 54.84 9.11 58.68 40.27 58.68 40.27 54.84 13.96 54.84 10.12 54.84"/>
      <polygon class="cls-8" points="10.12 3.84 13.96 3.84 40.27 3.84 40.27 0 9.11 0 9.11 3.84 10.12 3.84"/>
      <rect class="cls-12" x="5.06" y="11.94" width="9.11" height="44.92"/>
      <polygon class="cls-12" points="14.17 8.9 14.17 5.06 45.33 5.06 45.33 8.9 19.02 8.9 15.18 8.9 14.17 8.9"/>
      <polygon class="cls-7" points="14.17 56.86 14.17 11.94 15.18 11.94 19.02 11.94 86.41 11.94 86.41 56.86 19.02 56.86 15.18 56.86 14.17 56.86"/>
      <polygon class="cls-12" points="14.17 63.74 14.17 59.9 15.18 59.9 19.02 59.9 45.33 59.9 45.33 63.74 14.17 63.74"/>
      <polygon class="cls-7" points="86.41 56.86 86.41 11.94 118.79 11.94 118.79 19.83 118.79 24.69 118.79 44.11 118.79 48.97 118.79 56.86 86.41 56.86"/>
      <rect class="cls-12" x="118.79" y="19.83" width="1.62" height="4.86"/>
      <rect class="cls-12" x="118.79" y="44.11" width="1.62" height="4.86"/>
      <path d="m119.15,11.94v44.92c0,.2-.16.36-.36.36H14.17c-.2,0-.36-.16-.36-.36s.16-.36.36-.36h104.26V12.3H14.17c-.2,0-.36-.16-.36-.36s.16-.36.36-.36h104.62c.2,0,.36.16.36.36Z"/>
      <path d="m120.76,44.11v4.86c0,.2-.16.36-.36.36h-1.62c-.2,0-.36-.16-.36-.36s.16-.36.36-.36h1.26v-4.14h-1.26c-.2,0-.36-.16-.36-.36s.16-.36.36-.36h1.62c.2,0,.36.16.36.36Z"/>
      <path d="m120.76,19.83v4.86c0,.2-.16.36-.36.36h-1.62c-.2,0-.36-.16-.36-.36s.16-.36.36-.36h1.26v-4.14h-1.26c-.2,0-.36-.16-.36-.36s.16-.36.36-.36h1.62c.2,0,.36.16.36.36Z"/>
      <path d="m14.53,11.94v44.92c0,.2-.16.36-.36.36H5.06c-.2,0-.36-.16-.36-.36V11.94c0-.2.16-.36.36-.36h9.11c.2,0,.36.16.36.36Zm-.72,44.56V12.3H5.42v44.2h8.39Z"/>
      <path d="m45.69,59.9v3.84c0,.2-.16.36-.36.36H14.17c-.2,0-.36-.16-.36-.36v-3.84c0-.2.16-.36.36-.36h31.16c.2,0,.36.16.36.36Zm-.72,3.48v-3.12H14.53v3.12h30.44Z"/>
      <path d="m19.38,56.86v3.04c0,.2-.16.36-.36.36s-.36-.16-.36-.36v-3.04c0-.2.16-.36.36-.36s.36.16.36.36Z"/>
      <path d="m15.54,56.86v3.04c0,.2-.16.36-.36.36s-.36-.16-.36-.36v-3.04c0-.2.16-.36.36-.36s.36.16.36.36Z"/>
      <path d="m45.69,5.06v3.85c0,.2-.16.36-.36.36H14.17c-.2,0-.36-.16-.36-.36v-3.85c0-.2.16-.36.36-.36h31.16c.2,0,.36.16.36.36Zm-.72,3.49v-3.13H14.53v3.13h30.44Z"/>
      <path d="m19.38,8.9v3.04c0,.2-.16.36-.36.36s-.36-.16-.36-.36v-3.04c0-.2.16-.36.36-.36s.36.16.36.36Z"/>
      <path d="m15.54,8.9v3.04c0,.2-.16.36-.36.36s-.36-.16-.36-.36v-3.04c0-.2.16-.36.36-.36s.36.16.36.36Z"/>
      <path d="m86.77,11.94v44.92c0,.2-.16.36-.36.36s-.36-.16-.36-.36V11.94c0-.2.16-.36.36-.36s.36.16.36.36Z"/>
      <g class="cls-18">
        <rect class="cls-6" x="86.41" y="11.92" width="32.43" height="44.95"/>
      </g>
      <g class="cls-10">
        <rect class="cls-3" x="13.53" y="11.92" width="13.25" height="44.95"/>
      </g>
      <g class="cls-15">
        <rect class="cls-4" x="14.19" y="11.93" width="72.22" height="44.95"/>
      </g>
    </g>
  </g>
</svg>