<?xml version="1.0" encoding="UTF-8"?>
<svg xmlns="http://www.w3.org/2000/svg" xmlns:xlink="http://www.w3.org/1999/xlink" viewBox="0 0 2061.19 1672.59">
  <defs>
    <style>
      .cls-1 {
        fill: url(#radial-gradient-20);
      }

      .cls-1, .cls-2, .cls-3, .cls-4, .cls-5, .cls-6, .cls-7, .cls-8, .cls-9, .cls-10, .cls-11, .cls-12, .cls-13, .cls-14, .cls-15, .cls-16, .cls-17, .cls-18, .cls-19, .cls-20, .cls-21, .cls-22, .cls-23, .cls-24, .cls-25, .cls-26, .cls-27, .cls-28, .cls-29, .cls-30, .cls-31, .cls-32, .cls-33, .cls-34, .cls-35, .cls-36, .cls-37, .cls-38, .cls-39, .cls-40, .cls-41, .cls-42, .cls-43, .cls-44, .cls-45, .cls-46, .cls-47, .cls-48, .cls-49, .cls-50, .cls-51, .cls-52, .cls-53, .cls-54 {
        mix-blend-mode: screen;
      }

      .cls-1, .cls-3, .cls-5, .cls-7, .cls-55, .cls-56, .cls-8, .cls-9, .cls-10, .cls-12, .cls-14, .cls-16, .cls-17, .cls-18, .cls-20, .cls-21, .cls-22, .cls-23, .cls-24, .cls-25, .cls-26, .cls-28, .cls-29, .cls-30, .cls-31, .cls-32, .cls-34, .cls-35, .cls-36, .cls-37, .cls-57, .cls-38, .cls-40, .cls-42, .cls-43, .cls-58, .cls-44, .cls-45, .cls-46, .cls-49, .cls-52, .cls-53 {
        fill-rule: evenodd;
      }

      .cls-2 {
        fill: url(#radial-gradient-40);
      }

      .cls-3 {
        fill: url(#radial-gradient-31);
      }

      .cls-4 {
        fill: url(#radial-gradient-30);
      }

      .cls-5 {
        fill: url(#radial-gradient-27);
      }

      .cls-6 {
        fill: url(#radial-gradient-41);
      }

      .cls-7 {
        fill: url(#radial-gradient-51);
      }

      .cls-55 {
        fill: #cff1ff;
      }

      .cls-56 {
        fill: #fff;
      }

      .cls-8 {
        fill: url(#radial-gradient-46);
      }

      .cls-9 {
        fill: url(#radial-gradient-24);
      }

      .cls-10 {
        fill: url(#radial-gradient-14);
      }

      .cls-11 {
        fill: url(#radial-gradient-39);
      }

      .cls-12 {
        fill: url(#radial-gradient-16);
      }

      .cls-13 {
        fill: url(#radial-gradient-34);
      }

      .cls-14 {
        fill: url(#radial-gradient-22);
      }

      .cls-15 {
        fill: url(#radial-gradient-35);
      }

      .cls-16 {
        fill: url(#radial-gradient-21);
      }

      .cls-17 {
        fill: url(#radial-gradient-4);
      }

      .cls-59 {
        isolation: isolate;
      }

      .cls-18 {
        fill: url(#radial-gradient-3);
      }

      .cls-19 {
        fill: url(#radial-gradient-53);
      }

      .cls-20 {
        fill: url(#radial-gradient-12);
      }

      .cls-21 {
        fill: url(#radial-gradient-47);
      }

      .cls-22 {
        fill: url(#radial-gradient-38);
      }

      .cls-23 {
        fill: url(#radial-gradient-45);
      }

      .cls-24 {
        fill: url(#radial-gradient-36);
      }

      .cls-25 {
        fill: url(#radial-gradient-25);
      }

      .cls-26 {
        fill: url(#radial-gradient-7);
      }

      .cls-27 {
        fill: url(#radial-gradient-54);
      }

      .cls-28 {
        fill: url(#radial-gradient-19);
      }

      .cls-29 {
        fill: url(#radial-gradient-15);
      }

      .cls-60 {
        clip-path: url(#clippath-1);
      }

      .cls-30 {
        fill: url(#radial-gradient-26);
      }

      .cls-31 {
        fill: url(#radial-gradient-28);
      }

      .cls-32 {
        fill: url(#radial-gradient-6);
      }

      .cls-33 {
        fill: url(#radial-gradient-44);
      }

      .cls-34 {
        fill: url(#radial-gradient-18);
      }

      .cls-35 {
        fill: url(#radial-gradient-13);
      }

      .cls-36 {
        fill: url(#radial-gradient-10);
      }

      .cls-37 {
        fill: url(#radial-gradient-5);
      }

      .cls-57 {
        fill: #06a7ff;
      }

      .cls-38 {
        fill: url(#radial-gradient-2);
      }

      .cls-39 {
        fill: url(#radial-gradient-49);
      }

      .cls-40 {
        fill: url(#radial-gradient-29);
      }

      .cls-41 {
        fill: url(#radial-gradient-50);
      }

      .cls-61 {
        clip-rule: evenodd;
        fill: none;
      }

      .cls-42 {
        fill: url(#radial-gradient-17);
      }

      .cls-43 {
        fill: url(#radial-gradient-9);
      }

      .cls-58 {
        fill: #0066d5;
        opacity: .2;
      }

      .cls-44 {
        fill: url(#radial-gradient-43);
      }

      .cls-45 {
        fill: url(#radial-gradient-8);
      }

      .cls-46 {
        fill: url(#radial-gradient-23);
      }

      .cls-47 {
        fill: url(#radial-gradient-42);
      }

      .cls-48 {
        fill: url(#radial-gradient-52);
      }

      .cls-49 {
        fill: url(#radial-gradient-11);
      }

      .cls-50 {
        fill: url(#radial-gradient-37);
      }

      .cls-51 {
        fill: url(#radial-gradient-32);
      }

      .cls-52 {
        fill: url(#radial-gradient-48);
      }

      .cls-53 {
        fill: url(#radial-gradient);
      }

      .cls-54 {
        fill: url(#radial-gradient-33);
      }
    </style>
    <clipPath id="clippath-1">
      <polygon class="cls-61" points="525.68 266.1 1741.43 266.1 1741.43 1277.72 525.68 1277.72 525.68 266.1 525.68 266.1"/>
    </clipPath>
    <radialGradient id="radial-gradient" cx="576.28" cy="902.82" fx="576.28" fy="902.82" r="933.03" gradientTransform="translate(89.08 8.93) scale(.91 .76)" gradientUnits="userSpaceOnUse">
      <stop offset="0" stop-color="#56b6ff"/>
      <stop offset=".11" stop-color="#51aef4"/>
      <stop offset=".29" stop-color="#469cd9"/>
      <stop offset=".52" stop-color="#347dad"/>
      <stop offset=".79" stop-color="#1c5370"/>
      <stop offset="1" stop-color="#08303e"/>
    </radialGradient>
    <radialGradient id="radial-gradient-2" cx="1909.62" fx="1909.62" r="933.03" xlink:href="#radial-gradient"/>
    <radialGradient id="radial-gradient-3" cy="2236.15" fy="2236.15" r="933.03" xlink:href="#radial-gradient"/>
    <radialGradient id="radial-gradient-4" cx="1909.62" cy="2236.15" fx="1909.62" fy="2236.15" r="933.03" xlink:href="#radial-gradient"/>
    <radialGradient id="radial-gradient-5" cx="1030.69" cy="496.42" fx="1030.69" fy="496.42" r="755.8" xlink:href="#radial-gradient"/>
    <radialGradient id="radial-gradient-6" cx="1030.69" cy="1829.75" fx="1030.69" fy="1829.75" r="755.8" xlink:href="#radial-gradient"/>
    <radialGradient id="radial-gradient-7" cx="770.71" cy="1563.21" fx="770.71" fy="1563.21" r="933.58" xlink:href="#radial-gradient"/>
    <radialGradient id="radial-gradient-8" cx="2104.05" cy="1563.21" fx="2104.05" fy="1563.21" r="933.58" xlink:href="#radial-gradient"/>
    <radialGradient id="radial-gradient-9" cx="767.06" cy="489.73" fx="767.06" fy="489.73" r="814.49" xlink:href="#radial-gradient"/>
    <radialGradient id="radial-gradient-10" cx="767.06" cy="1823.06" fx="767.06" fy="1823.06" r="814.49" xlink:href="#radial-gradient"/>
    <radialGradient id="radial-gradient-11" cx="2100.4" cy="1823.06" fx="2100.4" fy="1823.06" r="814.49" xlink:href="#radial-gradient"/>
    <radialGradient id="radial-gradient-12" cx="1303.38" cy="454.28" fx="1303.38" fy="454.28" r="229.11" xlink:href="#radial-gradient"/>
    <radialGradient id="radial-gradient-13" cx="1303.38" cy="1787.61" fx="1303.38" fy="1787.61" r="229.11" xlink:href="#radial-gradient"/>
    <radialGradient id="radial-gradient-14" cx="786.35" cy="773.2" fx="786.35" fy="773.2" r="468.41" xlink:href="#radial-gradient"/>
    <radialGradient id="radial-gradient-15" cx="794.5" cy="966.74" fx="794.5" fy="966.74" r="454.61" xlink:href="#radial-gradient"/>
    <radialGradient id="radial-gradient-16" cx="934.62" cy="892.08" fx="934.62" fy="892.08" r="390.41" xlink:href="#radial-gradient"/>
    <radialGradient id="radial-gradient-17" cx="965.8" cy="1144.87" fx="965.8" fy="1144.87" r="271.02" xlink:href="#radial-gradient"/>
    <radialGradient id="radial-gradient-18" cx="1019.29" cy="1353.36" fx="1019.29" fy="1353.36" r="311.23" xlink:href="#radial-gradient"/>
    <radialGradient id="radial-gradient-19" cx="944.75" cy="1451.39" fx="944.75" fy="1451.39" r="227.47" xlink:href="#radial-gradient"/>
    <radialGradient id="radial-gradient-20" cx="1178.63" cy="1421.22" fx="1178.63" fy="1421.22" r="210.57" xlink:href="#radial-gradient"/>
    <radialGradient id="radial-gradient-21" cx="1198.25" cy="1299.27" fx="1198.25" fy="1299.27" r="264.87" xlink:href="#radial-gradient"/>
    <radialGradient id="radial-gradient-22" cx="1275.84" cy="1424.08" fx="1275.84" fy="1424.08" r="710.07" xlink:href="#radial-gradient"/>
    <radialGradient id="radial-gradient-23" cx="1284.19" cy="1017.79" fx="1284.19" fy="1017.79" r="512.37" xlink:href="#radial-gradient"/>
    <radialGradient id="radial-gradient-24" cx="1187.82" cy="883.9" fx="1187.82" fy="883.9" r="669.08" xlink:href="#radial-gradient"/>
    <radialGradient id="radial-gradient-25" cx="1502.22" cy="882.66" fx="1502.22" fy="882.66" r="394.88" xlink:href="#radial-gradient"/>
    <radialGradient id="radial-gradient-26" cx="1570.35" cy="1333.83" fx="1570.35" fy="1333.83" r="577.55" xlink:href="#radial-gradient"/>
    <radialGradient id="radial-gradient-27" cx="1405.54" cy="1466.01" fx="1405.54" fy="1466.01" r="198.71" xlink:href="#radial-gradient"/>
    <radialGradient id="radial-gradient-28" cx="1419.88" cy="1666.04" fx="1419.88" fy="1666.04" r="344.64" xlink:href="#radial-gradient"/>
    <radialGradient id="radial-gradient-29" cx="1704.66" cy="1477.61" fx="1704.66" fy="1477.61" r="290.14" xlink:href="#radial-gradient"/>
    <radialGradient id="radial-gradient-30" cx="-6189.96" cy="892.93" fx="-6189.96" fy="892.93" r="158.09" gradientTransform="translate(1186.69 8.93) scale(.05 .76)" gradientUnits="userSpaceOnUse">
      <stop offset="0" stop-color="#f6f6ff"/>
      <stop offset=".28" stop-color="#a5a6ac"/>
      <stop offset=".53" stop-color="#616367"/>
      <stop offset=".75" stop-color="#2f3334"/>
      <stop offset=".91" stop-color="#111515"/>
      <stop offset="1" stop-color="#060a0a"/>
    </radialGradient>
    <radialGradient id="radial-gradient-31" cx="-7579.52" cy="520.34" fx="-7579.52" fy="520.34" r="129.45" gradientTransform="translate(809.75 182.98) rotate(-39.76) scale(.05 .82) skewX(73.12)" xlink:href="#radial-gradient-30"/>
    <radialGradient id="radial-gradient-32" cx="-3780.84" cy="202.57" fx="-3780.84" fy="202.57" r="158.09" gradientTransform="translate(690.99 528.35) rotate(-90) scale(.04 .91)" xlink:href="#radial-gradient-30"/>
    <radialGradient id="radial-gradient-33" cx="2973.05" cy="126.04" fx="2973.05" fy="126.04" r="129.45" gradientTransform="translate(795.06 821.7) rotate(-100.5) scale(.05 .82) skewX(-73.12)" xlink:href="#radial-gradient-30"/>
    <radialGradient id="radial-gradient-34" cx="862.7" cy="892.93" fx="862.7" fy="892.93" r="87.79" gradientTransform="translate(89.08 8.93) scale(.91 .76)" gradientUnits="userSpaceOnUse">
      <stop offset=".38" stop-color="#f6f6ff"/>
      <stop offset=".55" stop-color="#a5a6ac"/>
      <stop offset=".71" stop-color="#616367"/>
      <stop offset=".84" stop-color="#2f3334"/>
      <stop offset=".94" stop-color="#111515"/>
      <stop offset="1" stop-color="#060a0a"/>
    </radialGradient>
    <radialGradient id="radial-gradient-35" cx="-9820.83" cy="1484.49" fx="-9820.83" fy="1484.49" r="138.87" xlink:href="#radial-gradient-30"/>
    <radialGradient id="radial-gradient-36" cx="-17728.52" cy="797.17" fx="-17728.52" fy="797.17" r="113.72" gradientTransform="translate(809.75 182.98) rotate(-39.76) scale(.05 .82) skewX(73.12)" xlink:href="#radial-gradient-30"/>
    <radialGradient id="radial-gradient-37" cx="-14516.98" cy="2.51" fx="-14516.98" fy="2.51" r="138.87" gradientTransform="translate(690.99 528.35) rotate(-90) scale(.04 .91)" xlink:href="#radial-gradient-30"/>
    <radialGradient id="radial-gradient-38" cx="-2046.19" cy="-433.73" fx="-2046.19" fy="-433.73" r="113.72" gradientTransform="translate(900.16 842) rotate(-140.24) scale(.05 .82) skewX(-73.12)" xlink:href="#radial-gradient-30"/>
    <radialGradient id="radial-gradient-39" cx="662.64" cy="1484.49" fx="662.64" fy="1484.49" r="77.12" xlink:href="#radial-gradient-34"/>
    <radialGradient id="radial-gradient-40" cx="4742.57" cy="849.81" fx="4742.57" fy="849.81" r="116.65" xlink:href="#radial-gradient-30"/>
    <radialGradient id="radial-gradient-41" cx="696.21" cy="915.8" fx="696.21" fy="915.8" r="95.52" gradientTransform="translate(1393.71 -120.31) rotate(10.5) scale(.05 .82) skewX(73.12)" xlink:href="#radial-gradient-30"/>
    <radialGradient id="radial-gradient-42" cx="-2998.17" cy="804.96" fx="-2998.17" fy="804.96" r="116.65" gradientTransform="translate(690.99 528.35) rotate(-90) scale(.04 .91)" xlink:href="#radial-gradient-30"/>
    <radialGradient id="radial-gradient-43" cx="-4196.92" cy="582.49" fx="-4196.92" fy="582.49" r="95.52" gradientTransform="translate(900.16 842) rotate(-140.24) scale(.05 .82) skewX(-73.12)" xlink:href="#radial-gradient-30"/>
    <radialGradient id="radial-gradient-44" cx="1465.08" cy="849.81" fx="1465.08" fy="849.81" r="64.78" xlink:href="#radial-gradient-34"/>
    <radialGradient id="radial-gradient-45" cx="1450.4" cy="588.18" fx="1450.4" fy="588.18" r="82.9" xlink:href="#radial-gradient-30"/>
    <radialGradient id="radial-gradient-46" cx="1724.81" cy="602.52" fx="1724.81" fy="602.52" r="67.88" gradientTransform="translate(809.75 182.98) rotate(-39.76) scale(.05 .82) skewX(73.12)" xlink:href="#radial-gradient-30"/>
    <radialGradient id="radial-gradient-47" cx="1750.08" cy="623.56" fx="1750.08" fy="623.56" r="82.9" gradientTransform="translate(690.99 528.35) rotate(-90) scale(.04 .91)" xlink:href="#radial-gradient-30"/>
    <radialGradient id="radial-gradient-48" cx="1482.92" cy="639.22" fx="1482.92" fy="639.22" r="67.88" gradientTransform="translate(900.16 842) rotate(-140.24) scale(.05 .82) skewX(-73.12)" xlink:href="#radial-gradient-30"/>
    <radialGradient id="radial-gradient-49" cx="1283.68" cy="588.18" fx="1283.68" fy="588.18" r="46.04" xlink:href="#radial-gradient-34"/>
    <radialGradient id="radial-gradient-50" cx="8034.74" cy="1306.06" fx="8034.74" fy="1306.06" r="91.57" xlink:href="#radial-gradient-30"/>
    <radialGradient id="radial-gradient-51" cx="-2827.56" cy="1366.69" fx="-2827.56" fy="1366.69" r="74.98" gradientTransform="translate(809.75 182.98) rotate(-39.76) scale(.05 .82) skewX(73.12)" xlink:href="#radial-gradient-30"/>
    <radialGradient id="radial-gradient-52" cx="-11278.63" cy="986.36" fx="-11278.63" fy="986.36" r="91.57" gradientTransform="translate(690.99 528.35) rotate(-90) scale(.04 .91)" xlink:href="#radial-gradient-30"/>
    <radialGradient id="radial-gradient-53" cx="-12371.94" cy="388.13" fx="-12371.94" fy="388.13" r="74.98" gradientTransform="translate(1160.47 437.28) rotate(-100.5) scale(.05 .82) skewX(-73.12)" xlink:href="#radial-gradient-30"/>
    <radialGradient id="radial-gradient-54" cx="1646.48" cy="1306.06" fx="1646.48" fy="1306.06" r="50.85" xlink:href="#radial-gradient-34"/>
  </defs>
  <g class="cls-59">
    <g id="_Ñëîé_1" data-name="Ñëîé 1">
      <g class="cls-60">
        <polygon class="cls-57" points="525.68 266.1 1741.43 266.1 1741.43 1277.72 525.68 1277.72 525.68 266.1 525.68 266.1"/>
        <path class="cls-58" d="m1128.87,439.82c-8.01,19.43-60.72,25.36-82.97,19.35-8.65-2.34-18.72-6.79-27.52-8.71-17.56-3.83-31.63-4.38-49.23-8.06-21.83-4.57-40.51-18.09-62.81-20.64-16.67-1.91-32.81,8.44-49.62,7.74-18.02-.75-43.94-20.46-52.72-32.9-3.85-5.46-4.99-12.45-3.88-18.71,5.28-29.87,20.31-65.62,45.74-87.74,4.94-4.3,13.79-4.13,20.94-3.87,11.34.4,22.3,3.58,33.34,5.81,24.12,4.87,47.83,11.15,72.1,15.48,21.52,3.84,44.78,2.05,65.14,9.03,18.97,6.51,36.61,17.12,49.62,30.33,18.18,18.46,31.79,40.23,41.87,62.58,4.27,9.46,3.94,20.76,0,30.32h0Zm407.45,613.87c3.16,4.11,4.65,10.04,2.33,14.52-2.12,4.08-8.46,5.82-13.57,7.1-20.96,5.23-42.19,10.51-63.97,12.26-7.16.58-14.42-2.35-20.54-5.48-8.9-4.54-14.89-12.38-23.65-17.1-10.39-5.58-24.16-6.66-33.34-13.55-30.56-22.92-58.48-48.33-84.51-74.84-8.85-9.01-17.52-19.43-19.38-30.97-1.04-6.39,5.11-13.28,11.63-16.77,22.05-11.84,46.52-20.61,71.33-27.74,27.12-7.8,41.97-4.48,58.92,14.84,33.15,37.78,84.45,98.34,114.75,137.74h0Zm12.41,30c5.02-.62,10.82.53,14.73,3.23,6.49,4.47,11.61,10.58,14.73,17.1,2.01,4.19,3.39,10.02,0,13.55-5.41,5.64-14.45,8.6-22.87,10.32-17.69,3.62-36.05,5.41-54.27,5.49-6.29.03-13.38-1.46-17.83-5.16-7.86-6.54-13.85-15.01-17.06-23.87-.92-2.56,3.13-5.36,6.2-6.13,25.01-6.25,50.54-11.32,76.37-14.52h0Zm-216.71-534.2c-6.22-2.45-13.9-4.6-17.06-9.68-1.72-2.75,2.85-6.39,6.2-7.74,22.25-8.97,45.09-17.38,69.01-22.58,5.69-1.24,13.47-.03,17.06,3.87,6.37,6.93,3.13,37.12-1.55,44.52-3.47,5.49-11.23,11.16-18.61,10.32-19.64-2.23-37.13-11.66-55.05-18.71h0Zm131.03,150.32c-6.39,7.85-17.3,15.85-28.69,15.48-22.82-.74-148.34-29.2-164.37-40.64-24.34-17.36-38.52-43.24-51.18-67.74-7.64-14.78-13.27-32.14-8.53-47.74,2.77-9.14,16.59-16.21,27.91-16.13,22.47.16,42.88,11.26,64.36,16.78,27.11,6.96,55.45,11.13,81.41,20.64,15.62,5.72,29.88,14.41,41.87,24.52,7.88,6.64,11.38,16.12,16.28,24.52,8.8,15.06,19.97,29.55,24.81,45.8,2.38,8,1.68,17.69-3.88,24.52h0Zm17.83,98.71c-7.56,6.69-20.18,7.94-31.01,9.68-10.91,1.75-22.24,1.1-33.34.64-15.05-.62-31.16,1.13-44.97-3.87-11.4-4.12-18.23-14.12-26.36-21.93-3.82-3.67-7.57-7.39-11.27-11.13-11-11.15-21.58-22.6-32.15-34.03-11.72-12.68-25.52-24.4-34.11-38.71-1.55-2.59,3.5-6.45,6.98-6.45,39.01,0,157.09,39.92,188.41,57.42,9.3,5.2,17.12,13.06,21.5,21.77.67,1.33,1.26,2.68,1.76,4.04,2.7,7.34.89,16.99-5.43,22.58h0Zm164.4,253.06c-19.95,10.12-63.95,15.67-84.51,6.46-23.98-10.74-79.46-78.56-93.82-99.36-19.92-28.86-38.22-58.67-52.72-89.68-2.64-5.64-2.24-13.34,2.33-18.06,16.81-17.38,76.03-64.39,99.25-29.68,12.56,18.78,17.84,40.5,30.24,59.35,16.14,24.54,35.77,47.4,55.05,70.33,18.73,22.27,42.79,41.53,58.93,65.16,6.91,10.11-3.14,29.6-14.73,35.48h0Zm96.15-764.58l-.49-.45c-8.14-7.36-18.84-13.24-26.94-20.46h-23.86c16.87,14.03,34.36,28.37,50.78,42.1l.51.42v-21.61h0Zm-84.52,776.51c34.52-10.29,44.84-35.97,25.59-52.58-25.58-22.07-44.13-37.18-63.58-63.23-12.59-16.86-21.48-35.72-27.91-54.84-1.18-3.52,1.84-9.23,6.2-9.68,20.45-2.1,44.33,5.68,67.97,15.96,36.16,15.73,57.25,26.05,75.35,33.46l.89.37v-29.53l-.88-.38c-25.88-11.27-52.88-23.69-85.71-35.12-17.22-6-33.55-10.6-46.79-11.74-28.16-2.42-78.83-48.01-103.59-84.31-6.74-9.89-11.57-18.12-13.49-23.06-6.39-16.45-6.78-33.09-8.53-50.32-1.93-19.02-7.74-38.04-17.06-55.49-11.59-21.7-19.17-40.04-30.24-61.94-10.88-21.55-21.52-81.04-4.65-100.64,18.24-21.19,46.69-35.64,74.44-47.74,35.74-15.6,55.28-6.65,86.84,2.58,16.5,4.83,35.49,5.62,49.62,14.19,18.51,11.23,27.77,30.65,44.97,43.23,8.86,6.48,20.37,10.46,31.79,12.9,9.89,2.12,16.6,2.58,22.65,2.25l.63-.04v-26.85l-.62.14c-74.02,17.26-51-51.64-98.66-91.63-16.02-13.44-42.29-12.52-60.48-23.87-11.79-7.35-16.65-26.21-29.46-32.26-21.36-10.1-31.59-8.86-40.32-12.57-4.44-1.88-43.15-37.97-51.66-54.32l-.2-.37h-19.11l.14.39c12.27,32.51,49.49,63.13,60.75,106.23,4.93,18.88-6.97,32.55-21.71,45.8-12.31,11.08-79.9,66.85-90.72,72.9-23.5,13.16-50.72,21.06-76.76,30.32-21.4,7.62-52.36,17.05-73.66,3.87-43.61-26.98-100.18-119.69-97.7-161.94,3.03-51.59,67.42-67.78,76.51-97.04.06-.18.12-.37.18-.55h-56.05c.29.19.58.39.86.59,7.34,5.22,8.42,12.5-7.06,23.78-5.79,4.22-13.49,8.16-22.16,11.51-17.44,6.75-38.82,11.13-56.63,10.74-9.97-.22-20.38-1.06-29.46-4.52-15.65-5.96-27.39-18.02-43.42-23.23-11.85-3.85-25.47-1.33-37.99-3.23-10.71-1.62-24.64-2.78-37.6-5.28-10.73-2.06-21.85-4.31-27.13-9.59-.25-.25-.48-.51-.71-.78h-57.84c-.24.27-.46.54-.69.82-6.4,7.77-9.01,17.39-14.83,25.47-35.49,49.4-26.44,35.07-45.75,89.36-2.38,6.68-4.04,13.79-8.53,19.68-3.39,4.44-9.15,7.33-14.35,10.32-20.58,11.82-75.11,21.4-96.14,4.84-9.58-7.53-15.23-17.96-24.04-26.13-37.51-34.75-74.51-64.58-110.88-101.61-.61-.62-1.25-1.23-1.9-1.84v21.61c5.44,4.55,75.81,74.64,86.41,88.61,5.18,6.85,10.24,14.26,11.63,22.26.81,4.71-1.36,10.2-5.43,13.55-9.22,7.59-22.13,11.34-32.57,17.74-7.98,4.89-33.18,23.8-60.05,30.2v26.85c7.92-.52,14.84-2.36,26.52-3.58,6.42-.67,14.33-.11,27.72,3.96,12.05,3.65,24.44,7.35,34.89,13.55,24.12,14.28,33.84,21.56,23.65,53.23-8.94,27.76-15.07,56.18-25.59,83.55-6.49,16.88-18.35,31.79-5.99,47.74,6.22,8.03,11.76,16.41,17.83,24.52,8.91,11.9,16.34,24.72,27.14,35.48,1.9,1.9,3.85,3.78,5.81,5.65,17.93,16.98,38.04,32.34,56.99,48.55,26.52,22.66,55.18,43.69,79.86,67.74,3.04,2.96,4.24,8.43,1.55,11.61-6.75,8-16.6,14.39-27.14,18.71-22.44,9.19-45.57,20.35-70.55,21.29-76.32,2.86-122.45-14.51-172.69-36.35v29.53c30.35,12.33,52.8,16.5,125.21,24.4,20.3,2.22,41.61,1.31,61.64,4.84,22.95,4.05,45.96,9.57,66.68,18.71,27.05,11.93,50.29,29.07,75.21,43.87,63.33,37.64,137.01,48.11,165.25,95.1,16.44,27.36,31.34,63.04,31.69,77.16.07,2.75-2.89,6.49-6.2,6.45-17.29-.19-33.93-6.05-51.18-7.1-95.04-5.75-95.01,41.16-114.77,52.26-13.94,7.83-26.52,17.66-36.44,29.03h57.84c-3-3.54-3.51-8.35.06-15.16,11.36-21.67,55.39-53.44,94.87-44.83,31.95,6.96,83.59,3.82,102.35,32.91,4.1,6.36,20.43,12.07,35.67,16.67l3.3.98c8.57,2.54,18.74,5.33,25.07,9.44h56.05c8.85-31.02,37.91-87.49,64.07-86.45,24.91.99,135.75,8.19,144.6,21.61,3.86,5.84,7.66,46.98,14.3,64.84h19.11c-10.96-21.88-22.8-56.87-18.67-72.9,3.75-14.57,18.4-53.65,38.77-57.42,22.38-4.14,73.06-12.69,90.72,2.58,18.13,15.68,36.95,46.83,52.72,65.81,17.39,20.92,49.35,47.01,66.56,61.94h23.86c-40.12-35.31-112.68-82.86-117.55-142.58-1.16-14.1,1-30.26,11.63-41.29,15.15-15.73-1.2-15.41,48.85-30.32h0Zm-523.36-596.01c29.92,3.52,35.04,21.04,53.47,43.91,4.45,5.51,13.43,10.95,11.63,17.42-2.35,8.44-12.27,15.05-21.71,18.71-10.62,4.11-23.25,4.14-34.89,3.23-2.9-.23-5.73-.8-8.51-1.61-4.96-1.46-9.67-3.7-13.99-6.13-12.61-7.09-25.69-14.42-34.89-24.52-9.09-9.97-16.14-21.85-18.61-34.19-.79-3.9,5.67-6.91,10.08-8.38,13.37-4.49,27.46-8.68,41.87-9.03,5.85-.14,10.97.07,15.53.61h0Zm0,95.82c10.16,3.69,20.94,7.32,28.66,13.9,14.49,12.34,24.89,27.61,36.44,41.94,13.79,17.09,29.13,33.59,39.55,52.26,1.86,3.33-.73,8.64-4.65,10.32-5.74,2.47-13.13,1.37-19.38,0-26.56-5.79-52.35-13.84-78.31-21.29-.74-.21-1.52-.4-2.3-.58-4.31-1-9.02-1.74-11.66-4.57-7.22-7.75-11.57-17.21-15.51-26.45-4.63-10.86-7.93-22.16-10.08-33.55-2.26-11.93-5.95-24.29-3.1-36.13.83-3.48,8.17-2.99,12.4-2.58,9.34.91,18.52,3.31,27.14,6.45l.8.29h0Zm0,111.34c23.99,2.77,59.82,10.24,81.77,16.11,12.76,3.41,26.64,7.24,35.66,15.49,20.7,18.92,31.86,43.96,51.18,63.87.58.59,1.17,1.18,1.76,1.77,14.29,14,33.17,24.49,47.86,38.23,7.82,7.31,17.16,14.91,19.38,24.52,2.25,9.69-2.96,19.75-6.98,29.03-4.34,10.05-7.55,22.01-17.83,28.39-16.66,10.33-38.5,13.09-58.15,18.71-12.69,3.63-25.48,10.55-38.77,9.03-16.83-1.92-28.46-9.11-43.42-15.81-11.94-5.35-36.66-6.14-45.74-14.52-13.16-12.15-17.86-27.31-26.72-41-2.99-4.62-6.46-9.08-10.88-13.19-11.63-10.8-26.89-22.01-39.94-31.62-11.92-8.78-20.72-20.15-31.79-29.68l-2.44-2.1c-29.55-25.42-60.65-49.6-89.82-75.32-22.25-19.61-42.17-40.99-64.36-60.65-13.51-11.98-29.86-21.67-42.64-34.19-12.16-11.91-23.64-24.63-31.79-38.71-5.77-9.96-5.54-21.66-9.3-32.26-2.97-8.35-17.28-23.23-17.06-31.94.26-10.35,8.87-37.42,35.67-37.74,9.78-.11,19.56,2.23,28.69,5.16,20.49,6.58,39.31,16.44,59.7,23.23,6.88,2.29,14.32,4.12,21.71,3.87,18.01-.62,35.48-6.33,53.5-6.45,46.51-.32,61.67,11.25,77.54,46.45,3.21,7.12,3.31,14.99,3.88,22.58.73,9.87-2.29,19.97,0,29.68,3.21,13.61,11.33,26.11,16.28,39.36,4.61,12.35,12.82,24.49,12.41,37.42-.54,16.43-23.8,44.24-24.04,72.9-.04,5.46,5.77,7.81,8.53,1.29,5.23-12.39,11.98-55.58,26.09-61.07,3.84-1.49,9.18-1.99,16.94-1.19,1.01.11,2.06.22,3.13.34h0Zm0,209.17c6.43,4.28,12.96,8.33,18.97,12.1,19.96,12.52,37.4,21.68,58.93,32.26,34.95,17.18,34.3,18.05,61.25,41.29,27.41,23.64,56.75,45.76,82.96,70.32,2.83,2.65,6.44,8.12,3.1,10.32-5.71,3.76-14.55,3-21.71,1.94-36.34-5.44-71.6-15.11-107.77-21.29-21.77-3.72-43.71-7.58-65.9-8.39-9.88-.36-19.9-.44-29.83.12-9.59.54-19.1,1.68-28.32,3.75-19.32,4.32-36.13,14.3-54.27,21.29-15.58,6-35.59,20.67-50.4,1.29-9.13-11.94-10.5-26.95-17.06-40-6.12-12.15-10.91-25.29-20.94-35.48-15.98-16.26-38.06-27.66-55.82-42.58-11.74-9.86-24.12-19.64-32.56-31.62-3.41-4.83-3.29-11.36-1.54-16.78,1.56-4.9,6.26-8.92,10.85-12.26,41.6-30.28,59.41-30.53,85.65-35.27,38.15-6.89,66.81-26.04,75.01-26.71,24.22-1.98,26.74,6.68,36.34,19.03,9.18,11.81,16.67,24.79,27.09,35.85,6.97,7.41,16.36,14.38,26,20.81h0Zm0,146.75c41.97-2.6,85.51,16.59,127.15,21.64,59.08,7.15,136.62,11.96,182.99,49.03,7.25,5.8,18.81,28.55,15.51,37.42-4.82,12.95-14.63,42.06-30.24,48.39-30.28,12.27-110.51-1.79-146.54-.97-9.48.21-19.08,2.98-25.59,8.71-16.55,14.57-23.77,35.8-41.87,49.03-16.96,12.4-59.48,6.39-81.41.47-1.38-.37-2.68-.74-3.88-1.11-10.63-3.24-22.13-8.02-27.91-16.13-27.66-38.79-50.15-80.14-70.55-121.93-3.41-6.97-4.46-16.03,0-22.58,11.31-16.66,49.37-48.51,101.95-51.94l.39-.02Zm-118.66-551.75c-13.59,0-27.12-1.99-40.71-1.94-12.69.05-25.29,2.32-37.99,2.26-7.44-.04-16.68,1.51-23.65-.64-4.18-1.29-66.69-24.51-62.03-30.32,3.1-3.89,9.66-5.05,15.12-6.13,11.54-2.28,23.42-3.93,35.28-3.87,10.34.05,20.78,1.54,30.62,4.19,9.52,2.57,17.56,8.03,26.75,11.29,5.07,1.81,10.4,3.38,15.89,3.88,12.34,1.12,24.98-.72,37.22.96,27.99,3.86,32.91,20.33,3.49,20.33h0Zm-228.35,6.13c-2.34,10.91.67,22.25-1.17,33.22-2.57,15.47-17.84,15.03-34.12,15.49-16.37.46-72.19-6.22-78.31-5.16-18.67,3.22-13.12,14.4-29.93-.93-24.54-22.39-41.17-22.93-66.6-36.82-6.01-3.28-9.18-7.04-4.65-12.9,4.3-5.57,9.8-10.57,15.9-14.84,10.29-7.2,21.44-13.58,32.95-19.35,31.45-15.77,43.31-5.33,74.82-6.45,29.98-1.07,46.55-10.65,72.49-15.49,3.82-.71,8.62-.79,11.63,1.29,5.94,4.1,9.71,10.09,13.19,15.81,3.05,5.04,6.95,10.52,6.2,16.13-1.41,10.51-10.17,19.59-12.4,30h0Zm240.75,289.04c4.29,4.17,7.11,9.7,7.75,15.16.46,3.96-1.67,8.18-4.65,11.29-4.04,4.2-9.51,7.68-15.51,9.68-25.65,8.52-53.21,12.75-78.7,21.61-17.99,6.25-34.21,15.56-51.18,23.55-13.4,6.31-25.44,15.01-39.92,19.35-8.39,2.52-17.9,1.58-26.75.64-8.68-.92-17.8-2.23-25.2-6.13-12.06-6.35-21.96-15.26-31.79-23.87-22.13-19.38-42.92-39.81-63.97-60-4.74-4.54-9.66-8.97-14.6-13.39-12.87-11.52-25.83-23-35.79-36.29-9.31-12.4-14.42-26.94-17.84-41.29-2.86-12.03-2.58-24.61-.77-36.77,2.62-17.6,8.21-34.85,13.96-51.94,4.48-13.29,9.39-26.63,16.67-39.04,1.42-2.42,5.29-3.76,8.53-3.86,18.81-.6,11.84,6.96,36.06-1.29,16.47-5.61,42.49-18.92,61.25-16.13,7.16,1.07,14.36,2.95,20.55,6.13,5.59,2.88,10.2,7.12,13.95,11.61,6.67,7.98,11.78,16.81,17.06,25.49,8.68,14.24,14.8,29.6,24.81,43.23,10,13.62,21.13,26.95,34.89,38.07,12.4,10.01,28.53,16.22,42.64,24.51,16.64,9.77,34.35,18.47,49.62,29.68,20.2,14.83,39.23,30.86,56.76,47.9l2.17,2.1h0Zm-224.25,138.7c14.21-6.39,25.84-7.05,38.77,1.94,23.49,16.35,45.14,34.47,66.68,52.58,13.64,11.48,27.09,23.24,38.77,36.13,13.72,15.15,26.77,30.88,37.22,47.74,40.88,65.97-200-74.35-201.59-75.16-62.17-31.85-29.86-40.73,20.16-63.23h0Z"/>
        <path class="cls-55" d="m1138.23,1104.01c8.01-19.43,60.72-25.36,82.97-19.35,8.65,2.34,18.72,6.79,27.52,8.71,17.56,3.83,31.63,4.38,49.23,8.06,21.83,4.57,40.51,18.09,62.81,20.64,16.67,1.91,32.81-8.44,49.62-7.74,18.02.75,43.94,20.46,52.72,32.9,3.85,5.46,4.99,12.45,3.88,18.71-5.28,29.87-20.31,65.62-45.74,87.74-4.94,4.3-13.79,4.13-20.94,3.87-11.34-.4-22.3-3.58-33.34-5.81-24.12-4.87-47.83-11.15-72.1-15.48-21.52-3.84-44.78-2.05-65.14-9.03-18.97-6.51-36.61-17.12-49.62-30.33-18.18-18.46-31.79-40.23-41.87-62.58-4.27-9.46-3.94-20.76,0-30.32h0Zm-407.45-613.87c-3.16-4.11-4.65-10.04-2.33-14.52,2.12-4.08,8.46-5.82,13.57-7.1,20.96-5.23,42.19-10.51,63.97-12.26,7.16-.58,14.42,2.35,20.54,5.48,8.9,4.54,14.89,12.38,23.65,17.1,10.39,5.58,24.16,6.66,33.34,13.55,30.56,22.92,58.48,48.33,84.51,74.84,8.85,9.01,17.52,19.43,19.38,30.97,1.04,6.39-5.11,13.28-11.63,16.77-22.05,11.84-46.52,20.61-71.33,27.74-27.12,7.8-41.97,4.48-58.92-14.84-33.15-37.78-84.45-98.34-114.75-137.74h0Zm-12.41-30c-5.02.62-10.82-.53-14.73-3.23-6.49-4.47-11.61-10.58-14.73-17.1-2.01-4.19-3.39-10.02,0-13.55,5.41-5.64,14.45-8.6,22.87-10.32,17.69-3.62,36.05-5.41,54.27-5.49,6.29-.03,13.38,1.46,17.83,5.16,7.86,6.54,13.85,15.01,17.06,23.87.92,2.56-3.13,5.36-6.2,6.13-25.01,6.25-50.54,11.32-76.37,14.52h0Zm216.71,534.2c6.22,2.45,13.9,4.6,17.06,9.68,1.72,2.75-2.85,6.39-6.2,7.74-22.25,8.97-45.09,17.39-69.01,22.58-5.69,1.24-13.47.03-17.06-3.87-6.37-6.93-3.13-37.12,1.55-44.52,3.47-5.49,11.23-11.16,18.61-10.32,19.64,2.23,37.13,11.66,55.05,18.71h0Zm-131.03-150.32c6.39-7.85,17.3-15.85,28.69-15.48,22.82.74,148.34,29.2,164.37,40.64,24.34,17.36,38.52,43.24,51.18,67.74,7.64,14.78,13.27,32.14,8.53,47.74-2.77,9.14-16.59,16.21-27.91,16.13-22.47-.16-42.88-11.26-64.36-16.78-27.11-6.96-55.45-11.13-81.41-20.64-15.62-5.72-29.88-14.41-41.87-24.52-7.88-6.64-11.38-16.12-16.28-24.52-8.8-15.06-19.97-29.55-24.81-45.8-2.38-8-1.68-17.69,3.88-24.52h0Zm-17.83-98.71c7.56-6.69,20.18-7.94,31.01-9.68,10.91-1.75,22.24-1.1,33.34-.64,15.05.62,31.16-1.13,44.97,3.87,11.4,4.12,18.23,14.12,26.36,21.93,3.82,3.67,7.57,7.39,11.27,11.13,11,11.15,21.58,22.6,32.15,34.03,11.72,12.68,25.52,24.4,34.11,38.71,1.55,2.59-3.5,6.45-6.98,6.45-39.01,0-157.09-39.92-188.41-57.42-9.3-5.2-17.12-13.06-21.5-21.77-.67-1.33-1.26-2.68-1.76-4.04-2.7-7.34-.89-16.99,5.43-22.58h0Zm-164.4-253.06c19.95-10.12,63.95-15.67,84.51-6.46,23.98,10.74,79.46,78.56,93.82,99.36,19.92,28.86,38.22,58.67,52.73,89.68,2.63,5.64,2.24,13.34-2.33,18.06-16.81,17.38-76.03,64.39-99.25,29.68-12.56-18.78-17.84-40.5-30.24-59.35-16.14-24.54-35.77-47.4-55.05-70.33-18.73-22.27-42.79-41.53-58.93-65.16-6.91-10.11,3.14-29.6,14.73-35.48h0Zm-96.15,764.58l.49.45c8.14,7.36,18.84,13.24,26.94,20.46h23.86c-16.87-14.03-34.36-28.37-50.78-42.1l-.51-.42v21.61h0Zm84.52-776.51c-34.52,10.29-44.84,35.97-25.59,52.58,25.58,22.07,44.13,37.18,63.58,63.23,12.59,16.86,21.48,35.72,27.91,54.84,1.18,3.52-1.84,9.23-6.2,9.68-20.45,2.1-44.33-5.68-67.97-15.96-36.16-15.73-57.25-26.05-75.35-33.46l-.89-.37v29.53l.88.38c25.88,11.27,52.88,23.69,85.71,35.12,17.22,6,33.55,10.6,46.79,11.74,28.16,2.42,78.83,48.01,103.59,84.31,6.74,9.89,11.57,18.12,13.49,23.06,6.39,16.45,6.78,33.09,8.53,50.32,1.93,19.02,7.74,38.04,17.06,55.49,11.59,21.7,19.17,40.04,30.24,61.94,10.88,21.55,21.52,81.04,4.65,100.64-18.24,21.19-46.69,35.64-74.44,47.74-35.74,15.6-55.28,6.65-86.84-2.58-16.5-4.83-35.49-5.62-49.62-14.19-18.51-11.23-27.77-30.65-44.97-43.23-8.86-6.48-20.37-10.46-31.79-12.9-9.89-2.12-16.6-2.58-22.65-2.25l-.63.04v26.85l.62-.14c74.02-17.26,51,51.64,98.66,91.63,16.02,13.44,42.29,12.52,60.48,23.87,11.79,7.35,16.65,26.21,29.46,32.26,21.36,10.1,31.59,8.86,40.32,12.57,4.44,1.88,43.15,37.97,51.66,54.32l.2.37h19.11l-.14-.39c-12.27-32.51-49.49-63.13-60.75-106.23-4.93-18.88,6.97-32.55,21.71-45.8,12.31-11.08,79.9-66.85,90.72-72.9,23.5-13.16,50.72-21.06,76.76-30.32,21.4-7.62,52.36-17.05,73.66-3.87,43.61,26.98,100.18,119.69,97.7,161.94-3.03,51.59-67.42,67.78-76.51,97.04-.06.18-.12.37-.18.55h56.05c-.29-.19-.58-.39-.86-.59-7.34-5.22-8.42-12.5,7.06-23.78,5.79-4.22,13.49-8.16,22.16-11.51,17.44-6.75,38.82-11.13,56.63-10.74,9.97.22,20.38,1.06,29.46,4.52,15.65,5.96,27.39,18.02,43.42,23.23,11.85,3.85,25.47,1.33,37.99,3.23,10.71,1.62,24.64,2.78,37.6,5.28,10.73,2.06,21.85,4.31,27.13,9.59.25.25.48.51.71.78h57.84c.24-.27.46-.54.69-.82,6.4-7.77,9.01-17.39,14.83-25.47,35.49-49.4,26.44-35.07,45.75-89.36,2.38-6.68,4.04-13.79,8.53-19.68,3.39-4.44,9.15-7.33,14.35-10.32,20.58-11.82,75.11-21.4,96.14-4.84,9.58,7.53,15.23,17.96,24.04,26.13,37.51,34.75,74.51,64.58,110.88,101.61.61.62,1.25,1.23,1.9,1.84v-21.61c-5.44-4.55-75.81-74.64-86.41-88.61-5.18-6.85-10.24-14.26-11.63-22.26-.81-4.71,1.36-10.2,5.43-13.55,9.22-7.59,22.13-11.34,32.57-17.74,7.98-4.89,33.18-23.8,60.05-30.2v-26.85c-7.92.52-14.84,2.36-26.52,3.58-6.42.67-14.33.11-27.72-3.96-12.05-3.65-24.44-7.35-34.89-13.55-24.12-14.28-33.84-21.56-23.65-53.23,8.94-27.76,15.07-56.18,25.59-83.55,6.49-16.88,18.35-31.79,5.99-47.74-6.22-8.03-11.76-16.41-17.83-24.52-8.91-11.9-16.34-24.72-27.14-35.48-1.9-1.9-3.85-3.78-5.81-5.65-17.93-16.98-38.04-32.34-56.99-48.55-26.52-22.66-55.18-43.69-79.86-67.74-3.04-2.96-4.24-8.43-1.55-11.61,6.75-8,16.6-14.39,27.14-18.71,22.44-9.19,45.57-20.35,70.55-21.29,76.32-2.86,122.45,14.51,172.69,36.35v-29.53c-30.35-12.33-52.8-16.5-125.21-24.4-20.3-2.22-41.61-1.31-61.64-4.84-22.95-4.05-45.96-9.57-66.68-18.71-27.05-11.93-50.29-29.07-75.21-43.87-63.33-37.64-137.01-48.11-165.25-95.1-16.44-27.36-31.34-63.04-31.69-77.16-.07-2.75,2.89-6.49,6.2-6.45,17.29.19,33.93,6.05,51.18,7.1,95.04,5.75,95.01-41.16,114.77-52.26,13.94-7.83,26.52-17.66,36.44-29.03h-57.84c3,3.54,3.51,8.35-.06,15.16-11.36,21.67-55.39,53.44-94.87,44.83-31.95-6.96-83.59-3.82-102.35-32.91-4.1-6.36-20.43-12.07-35.67-16.67l-3.3-.98c-8.57-2.54-18.74-5.33-25.07-9.44h-56.05c-8.85,31.02-37.91,87.49-64.07,86.45-24.91-.99-135.75-8.19-144.6-21.61-3.86-5.84-7.66-46.98-14.3-64.84h-19.11c10.96,21.88,22.8,56.87,18.67,72.9-3.75,14.57-18.4,53.65-38.77,57.42-22.38,4.14-73.06,12.69-90.72-2.58-18.13-15.68-36.95-46.83-52.72-65.81-17.39-20.92-49.35-47.01-66.56-61.94h-23.86c40.12,35.31,112.68,82.86,117.55,142.58,1.16,14.1-1,30.26-11.63,41.29-15.15,15.73,1.2,15.41-48.85,30.32h0Zm523.36,596.01c-29.92-3.52-35.04-21.04-53.47-43.91-4.45-5.52-13.43-10.95-11.63-17.42,2.35-8.44,12.27-15.05,21.71-18.71,10.62-4.11,23.25-4.14,34.89-3.23,2.9.23,5.73.8,8.51,1.61,4.96,1.46,9.67,3.7,13.99,6.13,12.61,7.09,25.69,14.42,34.89,24.52,9.09,9.97,16.14,21.85,18.61,34.19.79,3.9-5.67,6.91-10.08,8.38-13.37,4.49-27.46,8.68-41.87,9.03-5.85.14-10.97-.07-15.53-.61h0Zm0-95.82c-10.16-3.69-20.94-7.32-28.66-13.9-14.49-12.34-24.89-27.61-36.44-41.94-13.79-17.09-29.13-33.59-39.54-52.26-1.86-3.33.73-8.64,4.65-10.32,5.74-2.47,13.13-1.37,19.38,0,26.56,5.79,52.35,13.84,78.31,21.29.74.21,1.52.4,2.3.58,4.31,1,9.02,1.74,11.66,4.57,7.22,7.75,11.57,17.21,15.51,26.45,4.63,10.86,7.93,22.16,10.08,33.55,2.26,11.93,5.95,24.29,3.1,36.13-.83,3.48-8.17,2.99-12.4,2.58-9.34-.91-18.52-3.31-27.14-6.45l-.8-.29h0Zm0-111.34c-23.99-2.77-59.82-10.24-81.77-16.11-12.76-3.41-26.64-7.24-35.66-15.49-20.7-18.92-31.86-43.96-51.18-63.87-.58-.59-1.17-1.18-1.76-1.77-14.29-14-33.17-24.49-47.86-38.23-7.82-7.31-17.16-14.91-19.38-24.52-2.25-9.69,2.96-19.75,6.98-29.03,4.34-10.05,7.55-22.01,17.83-28.39,16.66-10.33,38.5-13.09,58.15-18.71,12.69-3.63,25.48-10.55,38.77-9.03,16.83,1.92,28.46,9.11,43.42,15.81,11.94,5.35,36.66,6.14,45.74,14.52,13.16,12.15,17.86,27.31,26.72,41,2.99,4.62,6.46,9.08,10.88,13.19,11.63,10.8,26.9,22.01,39.94,31.62,11.92,8.78,20.72,20.15,31.79,29.68l2.44,2.1c29.55,25.42,60.65,49.6,89.82,75.32,22.25,19.61,42.17,40.99,64.36,60.65,13.51,11.98,29.86,21.67,42.64,34.19,12.16,11.91,23.64,24.63,31.79,38.71,5.77,9.96,5.54,21.66,9.3,32.26,2.97,8.35,17.28,23.23,17.06,31.94-.26,10.35-8.87,37.42-35.67,37.74-9.78.11-19.56-2.23-28.69-5.16-20.49-6.58-39.31-16.44-59.7-23.23-6.88-2.28-14.32-4.12-21.71-3.87-18.01.62-35.48,6.33-53.5,6.45-46.51.32-61.67-11.25-77.54-46.45-3.21-7.12-3.31-14.99-3.88-22.58-.73-9.87,2.29-19.97,0-29.68-3.21-13.61-11.33-26.11-16.28-39.36-4.61-12.35-12.82-24.49-12.41-37.42.54-16.43,23.8-44.24,24.04-72.9.04-5.46-5.77-7.81-8.53-1.29-5.23,12.39-11.98,55.58-26.09,61.07-3.84,1.49-9.18,1.99-16.94,1.19-1.01-.11-2.06-.22-3.13-.34h0Zm0-209.17c-6.43-4.28-12.96-8.32-18.97-12.1-19.96-12.52-37.4-21.68-58.93-32.26-34.95-17.18-34.3-18.05-61.25-41.29-27.41-23.64-56.75-45.76-82.96-70.32-2.83-2.65-6.44-8.12-3.1-10.32,5.71-3.76,14.55-3,21.71-1.94,36.34,5.44,71.6,15.11,107.77,21.29,21.77,3.72,43.71,7.58,65.9,8.39,9.88.36,19.9.44,29.83-.12,9.59-.54,19.1-1.68,28.32-3.75,19.32-4.32,36.13-14.3,54.27-21.29,15.58-6,35.59-20.67,50.4-1.29,9.13,11.94,10.5,26.95,17.06,40,6.12,12.15,10.91,25.29,20.94,35.48,15.98,16.26,38.06,27.66,55.82,42.58,11.74,9.86,24.12,19.64,32.56,31.62,3.41,4.83,3.29,11.36,1.54,16.78-1.56,4.9-6.26,8.92-10.85,12.26-41.6,30.28-59.41,30.53-85.65,35.27-38.15,6.89-66.81,26.04-75.01,26.71-24.22,1.98-26.74-6.68-36.34-19.03-9.18-11.81-16.67-24.79-27.09-35.85-6.97-7.41-16.36-14.38-26-20.81h0Zm0-146.75c-41.97,2.6-85.51-16.59-127.15-21.64-59.08-7.15-136.62-11.96-182.99-49.03-7.25-5.8-18.81-28.55-15.51-37.42,4.82-12.95,14.63-42.06,30.24-48.39,30.28-12.27,110.51,1.79,146.54.97,9.48-.21,19.08-2.98,25.59-8.71,16.55-14.57,23.77-35.8,41.87-49.03,16.96-12.4,59.48-6.39,81.41-.47,1.38.37,2.68.74,3.88,1.11,10.63,3.24,22.13,8.02,27.91,16.13,27.66,38.79,50.15,80.14,70.55,121.93,3.41,6.97,4.46,16.03,0,22.58-11.31,16.66-49.37,48.51-101.95,51.94l-.39.02Zm118.66,551.75c13.59,0,27.12,1.99,40.71,1.94,12.69-.05,25.29-2.32,37.99-2.26,7.44.04,16.68-1.51,23.65.64,4.18,1.29,66.69,24.51,62.03,30.32-3.1,3.89-9.66,5.05-15.12,6.13-11.54,2.29-23.42,3.93-35.28,3.87-10.34-.05-20.78-1.54-30.62-4.19-9.52-2.57-17.56-8.03-26.75-11.29-5.07-1.81-10.4-3.38-15.89-3.88-12.34-1.12-24.98.72-37.22-.96-27.99-3.86-32.91-20.33-3.49-20.33h0Zm228.35-6.13c2.34-10.91-.67-22.25,1.17-33.22,2.57-15.47,17.84-15.03,34.12-15.49,16.37-.46,72.19,6.22,78.31,5.16,18.67-3.22,13.12-14.4,29.93.93,24.54,22.39,41.17,22.93,66.6,36.82,6.01,3.28,9.18,7.04,4.65,12.9-4.3,5.57-9.8,10.57-15.9,14.84-10.29,7.2-21.44,13.58-32.95,19.35-31.45,15.77-43.31,5.33-74.82,6.45-29.98,1.07-46.55,10.65-72.49,15.49-3.82.71-8.62.79-11.63-1.29-5.94-4.1-9.71-10.09-13.19-15.81-3.05-5.04-6.95-10.52-6.2-16.13,1.41-10.51,10.17-19.59,12.4-30h0Zm-240.75-289.04c-4.29-4.17-7.11-9.7-7.75-15.16-.46-3.96,1.67-8.18,4.65-11.29,4.04-4.2,9.51-7.68,15.51-9.68,25.65-8.52,53.21-12.75,78.7-21.61,17.99-6.25,34.21-15.56,51.18-23.55,13.4-6.31,25.44-15.01,39.92-19.35,8.39-2.52,17.9-1.58,26.75-.64,8.68.92,17.8,2.23,25.2,6.13,12.06,6.35,21.96,15.26,31.79,23.87,22.13,19.38,42.92,39.81,63.97,60,4.74,4.54,9.66,8.97,14.6,13.39,12.87,11.52,25.83,23,35.79,36.29,9.31,12.4,14.42,26.94,17.84,41.29,2.86,12.03,2.58,24.61.77,36.77-2.62,17.6-8.21,34.85-13.96,51.94-4.48,13.29-9.39,26.63-16.67,39.04-1.42,2.42-5.29,3.76-8.53,3.86-18.81.6-11.84-6.96-36.06,1.29-16.47,5.61-42.49,18.92-61.25,16.13-7.16-1.07-14.36-2.95-20.55-6.13-5.59-2.88-10.2-7.12-13.95-11.61-6.67-7.98-11.78-16.81-17.06-25.49-8.68-14.24-14.8-29.6-24.81-43.23-10-13.62-21.13-26.95-34.89-38.07-12.4-10.01-28.53-16.22-42.64-24.51-16.64-9.77-34.35-18.47-49.62-29.68-20.2-14.83-39.23-30.86-56.76-47.9l-2.17-2.1h0Zm224.25-138.7c-14.21,6.39-25.84,7.05-38.77-1.94-23.49-16.35-45.14-34.47-66.68-52.58-13.64-11.48-27.09-23.24-38.77-36.13-13.72-15.15-26.77-30.88-37.22-47.74-40.88-65.97,200,74.35,201.59,75.16,62.17,31.85,29.86,40.73-20.16,63.23h0Z"/>
        <path class="cls-53" d="m525.68,610.83l.89.37c18.11,7.41,39.19,17.74,75.35,33.46,23.64,10.28,47.52,18.07,67.97,15.96,4.36-.45,7.39-6.16,6.2-9.68-6.43-19.12-15.33-37.98-27.91-54.84-19.44-26.05-38-41.15-63.58-63.23-19.25-16.61-8.93-42.29,25.59-52.58,50.04-14.92,33.69-14.59,48.85-30.32,10.63-11.03,12.78-27.19,11.63-41.29-4.88-59.72-77.44-107.28-117.55-142.58-8.1-7.22-18.8-13.1-26.94-20.46l-.49-.45c-.65-.6-1.29-1.21-1.9-1.84-36.37-37.03-73.37-66.86-110.88-101.61-8.8-8.16-14.46-18.59-24.03-26.13-21.04-16.56-75.58-6.97-96.15,4.84-5.2,2.99-10.96,5.88-14.35,10.32-4.49,5.89-6.15,13-8.53,19.68-19.31,54.29-10.25,39.97-45.75,89.36-5.82,8.09-8.43,17.7-14.83,25.48-.23.28-.45.55-.69.82-9.92,11.37-22.5,21.2-36.45,29.03-19.76,11.1-19.72,58.01-114.76,52.26-17.25-1.05-33.88-6.91-51.18-7.1-3.31-.04-6.27,3.7-6.2,6.45.35,14.11,15.25,49.79,31.7,77.16,28.23,46.99,101.91,57.46,165.24,95.1,24.92,14.81,48.16,31.94,75.21,43.87,20.73,9.14,43.73,14.66,66.68,18.71,20.02,3.53,41.34,2.62,61.64,4.84,72.41,7.9,94.86,12.08,125.21,24.4h0Z"/>
        <path class="cls-38" d="m1741.43,610.83l.89.37c18.11,7.41,39.19,17.74,75.35,33.46,23.64,10.28,47.52,18.07,67.97,15.96,4.36-.45,7.39-6.16,6.2-9.68-6.43-19.12-15.33-37.98-27.91-54.84-19.44-26.05-38-41.15-63.58-63.23-19.25-16.61-8.93-42.29,25.59-52.58,50.04-14.92,33.69-14.59,48.85-30.32,10.63-11.03,12.78-27.19,11.63-41.29-4.88-59.72-77.44-107.28-117.55-142.58-8.1-7.22-18.8-13.1-26.94-20.46l-.49-.45c-.65-.6-1.29-1.21-1.9-1.84-36.37-37.03-73.37-66.86-110.88-101.61-8.8-8.16-14.46-18.59-24.03-26.13-21.04-16.56-75.58-6.97-96.15,4.84-5.2,2.99-10.96,5.88-14.35,10.32-4.49,5.89-6.15,13-8.53,19.68-19.31,54.29-10.25,39.97-45.75,89.36-5.82,8.09-8.43,17.7-14.83,25.48-.23.28-.45.55-.69.82-9.92,11.37-22.5,21.2-36.45,29.03-19.76,11.1-19.72,58.01-114.76,52.26-17.25-1.05-33.88-6.91-51.18-7.1-3.31-.04-6.27,3.7-6.2,6.45.35,14.11,15.25,49.79,31.7,77.16,28.23,46.99,101.91,57.46,165.24,95.1,24.92,14.81,48.16,31.94,75.21,43.87,20.73,9.14,43.73,14.66,66.68,18.71,20.02,3.53,41.34,2.62,61.64,4.84,72.41,7.9,94.86,12.08,125.21,24.4h0Z"/>
        <path class="cls-18" d="m525.68,1622.45l.89.37c18.11,7.41,39.19,17.74,75.35,33.46,23.64,10.28,47.52,18.07,67.97,15.96,4.36-.45,7.39-6.16,6.2-9.68-6.43-19.12-15.33-37.98-27.91-54.84-19.44-26.05-38-41.15-63.58-63.23-19.25-16.61-8.93-42.29,25.59-52.58,50.04-14.92,33.69-14.59,48.85-30.32,10.63-11.03,12.78-27.19,11.63-41.29-4.88-59.72-77.44-107.28-117.55-142.58-8.1-7.22-18.8-13.1-26.94-20.46l-.49-.45c-.65-.6-1.29-1.21-1.9-1.84-36.37-37.03-73.37-66.86-110.88-101.61-8.8-8.16-14.46-18.59-24.03-26.13-21.04-16.56-75.58-6.97-96.15,4.84-5.2,2.99-10.96,5.88-14.35,10.32-4.49,5.89-6.15,13-8.53,19.68-19.31,54.29-10.25,39.97-45.75,89.36-5.82,8.09-8.43,17.7-14.83,25.48-.23.28-.45.55-.69.82-9.92,11.37-22.5,21.2-36.45,29.03-19.76,11.1-19.72,58.01-114.76,52.26-17.25-1.05-33.88-6.91-51.18-7.1-3.31-.04-6.27,3.7-6.2,6.45.35,14.11,15.25,49.79,31.7,77.16,28.23,46.99,101.91,57.46,165.24,95.1,24.92,14.81,48.16,31.94,75.21,43.87,20.73,9.14,43.73,14.66,66.68,18.71,20.02,3.53,41.34,2.62,61.64,4.84,72.41,7.9,94.86,12.08,125.21,24.4h0Z"/>
        <path class="cls-17" d="m1741.43,1622.45l.89.37c18.11,7.41,39.19,17.74,75.35,33.46,23.64,10.28,47.52,18.07,67.97,15.96,4.36-.45,7.39-6.16,6.2-9.68-6.43-19.12-15.33-37.98-27.91-54.84-19.44-26.05-38-41.15-63.58-63.23-19.25-16.61-8.93-42.29,25.59-52.58,50.04-14.92,33.69-14.59,48.85-30.32,10.63-11.03,12.78-27.19,11.63-41.29-4.88-59.72-77.44-107.28-117.55-142.58-8.1-7.22-18.8-13.1-26.94-20.46l-.49-.45c-.65-.6-1.29-1.21-1.9-1.84-36.37-37.03-73.37-66.86-110.88-101.61-8.8-8.16-14.46-18.59-24.03-26.13-21.04-16.56-75.58-6.97-96.15,4.84-5.2,2.99-10.96,5.88-14.35,10.32-4.49,5.89-6.15,13-8.53,19.68-19.31,54.29-10.25,39.97-45.75,89.36-5.82,8.09-8.43,17.7-14.83,25.48-.23.28-.45.55-.69.82-9.92,11.37-22.5,21.2-36.45,29.03-19.76,11.1-19.72,58.01-114.76,52.26-17.25-1.05-33.88-6.91-51.18-7.1-3.31-.04-6.27,3.7-6.2,6.45.35,14.11,15.25,49.79,31.7,77.16,28.23,46.99,101.91,57.46,165.24,95.1,24.92,14.81,48.16,31.94,75.21,43.87,20.73,9.14,43.73,14.66,66.68,18.71,20.02,3.53,41.34,2.62,61.64,4.84,72.41,7.9,94.86,12.08,125.21,24.4h0Z"/>
        <path class="cls-37" d="m1125.83,168.52c2.49-42.25-54.09-134.96-97.7-161.94-21.3-13.18-52.26-3.74-73.66,3.87-26.04,9.26-53.26,17.16-76.76,30.32-10.82,6.06-78.4,61.82-90.72,72.9-14.74,13.26-26.64,26.92-21.71,45.8,11.26,43.1,48.48,73.72,60.75,106.23l.14.39c6.63,17.86,10.43,58.99,14.3,64.84,8.85,13.43,119.69,20.62,144.6,21.61,26.16,1.04,55.21-55.43,64.07-86.45.06-.18.12-.37.18-.55,9.09-29.25,73.48-45.45,76.51-97.04h0Z"/>
        <path class="cls-32" d="m1125.83,1180.14c2.49-42.25-54.09-134.96-97.7-161.94-21.3-13.18-52.26-3.74-73.66,3.87-26.04,9.26-53.26,17.16-76.76,30.32-10.82,6.06-78.4,61.82-90.72,72.9-14.74,13.26-26.64,26.92-21.71,45.8,11.26,43.1,48.48,73.72,60.75,106.23l.14.39c6.63,17.86,10.43,58.99,14.3,64.84,8.85,13.43,119.69,20.62,144.6,21.61,26.16,1.04,55.21-55.43,64.07-86.45.06-.18.12-.37.18-.55,9.09-29.25,73.48-45.45,76.51-97.04h0Z"/>
        <path class="cls-26" d="m393.69,771.91c1.96,1.86,3.9,3.74,5.81,5.65,10.79,10.77,18.22,23.59,27.14,35.48,6.08,8.11,11.61,16.49,17.83,24.52,12.37,15.94.5,30.86-5.99,47.74-10.52,27.37-16.65,55.79-25.59,83.55-10.19,31.66-.46,38.95,23.65,53.23,10.46,6.19,22.84,9.89,34.89,13.55,13.39,4.06,21.3,4.62,27.72,3.96,11.68-1.21,18.6-3.06,26.52-3.58l.63-.04c6.05-.34,12.77.13,22.65,2.25,11.42,2.44,22.93,6.43,31.79,12.9,17.2,12.58,26.47,32,44.97,43.23,14.13,8.58,33.12,9.36,49.62,14.19,31.56,9.24,51.1,18.18,86.84,2.58,27.74-12.11,56.2-26.55,74.44-47.74,16.88-19.61,6.23-79.09-4.65-100.64-11.07-21.9-18.65-40.23-30.24-61.94-9.32-17.44-15.13-36.46-17.06-55.49-1.75-17.23-2.15-33.87-8.53-50.32-1.92-4.95-6.75-13.17-13.49-23.06-24.76-36.3-75.43-81.88-103.59-84.31-13.25-1.14-29.58-5.74-46.79-11.74-32.83-11.43-59.84-23.85-85.71-35.12l-.88-.38c-50.24-21.84-96.37-39.21-172.69-36.35-24.99.94-48.11,12.1-70.55,21.29-10.54,4.32-20.39,10.71-27.14,18.71-2.69,3.19-1.49,8.65,1.55,11.61,24.68,24.06,53.35,45.08,79.86,67.74,18.96,16.2,39.06,31.57,56.99,48.55h0Z"/>
        <path class="cls-45" d="m1609.45,771.91c1.96,1.86,3.9,3.74,5.81,5.65,10.79,10.77,18.22,23.59,27.14,35.48,6.08,8.11,11.61,16.49,17.83,24.52,12.37,15.94.5,30.86-5.99,47.74-10.52,27.37-16.65,55.79-25.59,83.55-10.19,31.66-.46,38.95,23.65,53.23,10.46,6.19,22.84,9.89,34.89,13.55,13.39,4.06,21.3,4.62,27.72,3.96,11.68-1.21,18.6-3.06,26.52-3.58l.63-.04c6.05-.34,12.77.13,22.65,2.25,11.42,2.44,22.93,6.43,31.79,12.9,17.2,12.58,26.47,32,44.97,43.23,14.13,8.58,33.12,9.36,49.62,14.19,31.56,9.24,51.1,18.18,86.84,2.58,27.74-12.11,56.2-26.55,74.44-47.74,16.88-19.61,6.23-79.09-4.65-100.64-11.07-21.9-18.65-40.23-30.24-61.94-9.32-17.44-15.13-36.46-17.06-55.49-1.75-17.23-2.15-33.87-8.53-50.32-1.92-4.95-6.75-13.17-13.49-23.06-24.76-36.3-75.43-81.88-103.59-84.31-13.25-1.14-29.58-5.74-46.79-11.74-32.83-11.43-59.84-23.85-85.71-35.12l-.88-.38c-50.24-21.84-96.37-39.21-172.69-36.35-24.99.94-48.11,12.1-70.55,21.29-10.54,4.32-20.39,10.71-27.14,18.71-2.69,3.19-1.49,8.65,1.55,11.61,24.68,24.06,53.35,45.08,79.86,67.74,18.96,16.2,39.06,31.57,56.99,48.55h0Z"/>
        <path class="cls-43" d="m576.97,266.1c17.21,14.93,49.17,41.02,66.56,61.94,15.78,18.97,34.59,50.12,52.72,65.81,17.65,15.27,68.34,6.72,90.72,2.58,20.36-3.76,35.02-42.85,38.77-57.42,4.13-16.03-7.71-51.03-18.67-72.9l-.2-.37c-8.51-16.36-47.22-52.44-51.66-54.32-8.73-3.71-18.96-2.47-40.32-12.57-12.81-6.05-17.68-24.9-29.46-32.26-18.19-11.35-44.46-10.43-60.48-23.87-47.66-39.99-24.63-108.89-98.66-91.63l-.62.14c-26.86,6.39-52.07,25.3-60.05,30.2-10.44,6.41-23.34,10.15-32.56,17.74-4.07,3.35-6.24,8.84-5.43,13.55,1.38,8.01,6.44,15.42,11.63,22.26,10.61,13.97,80.97,84.06,86.41,88.61l.51.42c16.43,13.73,33.91,28.07,50.78,42.1h0Z"/>
        <path class="cls-36" d="m576.97,1277.72c17.21,14.93,49.17,41.02,66.56,61.94,15.78,18.97,34.59,50.12,52.72,65.81,17.65,15.27,68.34,6.72,90.72,2.58,20.36-3.76,35.02-42.85,38.77-57.42,4.13-16.03-7.71-51.03-18.67-72.9l-.2-.37c-8.51-16.36-47.22-52.44-51.66-54.32-8.73-3.71-18.96-2.47-40.32-12.57-12.81-6.05-17.68-24.9-29.46-32.26-18.19-11.35-44.46-10.43-60.48-23.87-47.66-39.99-24.63-108.89-98.66-91.63l-.62.14c-26.86,6.39-52.07,25.3-60.05,30.2-10.44,6.41-23.34,10.15-32.56,17.74-4.07,3.35-6.24,8.84-5.43,13.55,1.38,8.01,6.44,15.42,11.63,22.26,10.61,13.97,80.97,84.06,86.41,88.61l.51.42c16.43,13.73,33.91,28.07,50.78,42.1h0Z"/>
        <path class="cls-49" d="m1792.72,1277.72c17.21,14.93,49.17,41.02,66.56,61.94,15.78,18.97,34.59,50.12,52.72,65.81,17.65,15.27,68.34,6.72,90.72,2.58,20.36-3.76,35.02-42.85,38.77-57.42,4.13-16.03-7.71-51.03-18.67-72.9l-.2-.37c-8.51-16.36-47.22-52.44-51.66-54.32-8.73-3.71-18.96-2.47-40.32-12.57-12.81-6.05-17.68-24.9-29.46-32.26-18.19-11.35-44.46-10.43-60.48-23.87-47.66-39.99-24.63-108.89-98.66-91.63l-.62.14c-26.86,6.39-52.07,25.3-60.05,30.2-10.44,6.41-23.34,10.15-32.56,17.74-4.07,3.35-6.24,8.84-5.43,13.55,1.38,8.01,6.44,15.42,11.63,22.26,10.61,13.97,80.97,84.06,86.41,88.61l.51.42c16.43,13.73,33.91,28.07,50.78,42.1h0Z"/>
        <path class="cls-20" d="m1190.19,219.48c-17.81-.39-39.2,3.99-56.63,10.74-8.67,3.35-16.37,7.29-22.16,11.51-15.48,11.29-14.41,18.56-7.06,23.78.28.2.57.39.86.59,6.32,4.1,16.5,6.9,25.07,9.44l3.3.98c15.24,4.6,31.56,10.31,35.67,16.67,18.76,29.08,70.4,25.94,102.35,32.91,39.48,8.61,83.52-23.16,94.87-44.83,3.57-6.81,3.05-11.62.06-15.16-.23-.26-.46-.53-.71-.78-5.29-5.28-16.41-7.53-27.13-9.59-12.96-2.49-26.89-3.66-37.6-5.28-12.52-1.89-26.14.63-37.99-3.23-16.03-5.21-27.77-17.27-43.42-23.23-9.08-3.45-19.48-4.29-29.46-4.52h0Z"/>
        <path class="cls-35" d="m1190.19,1231.11c-17.81-.39-39.2,3.99-56.63,10.74-8.67,3.35-16.37,7.29-22.16,11.51-15.48,11.29-14.41,18.56-7.06,23.78.28.2.57.39.86.59,6.32,4.1,16.5,6.9,25.07,9.44l3.3.98c15.24,4.6,31.56,10.31,35.67,16.67,18.76,29.08,70.4,25.94,102.35,32.91,39.48,8.61,83.52-23.16,94.87-44.83,3.57-6.81,3.05-11.62.06-15.16-.23-.26-.46-.53-.71-.78-5.29-5.28-16.41-7.53-27.13-9.59-12.96-2.49-26.89-3.66-37.6-5.28-12.52-1.89-26.14.63-37.99-3.23-16.03-5.21-27.77-17.27-43.42-23.23-9.08-3.45-19.48-4.29-29.46-4.52h0Z"/>
        <path class="cls-10" d="m718.38,460.13c25.83-3.2,51.37-8.26,76.37-14.52,3.07-.76,7.13-3.57,6.2-6.13-3.21-8.86-9.19-17.33-17.06-23.87-4.45-3.7-11.54-5.19-17.83-5.16-18.22.08-36.58,1.86-54.27,5.49-8.42,1.72-17.47,4.68-22.87,10.32-3.39,3.53-2.01,9.36,0,13.55,3.12,6.51,8.24,12.62,14.73,17.1,3.91,2.7,9.71,3.85,14.73,3.23h0Z"/>
        <path class="cls-29" d="m800.15,585.14c-14.36-20.8-69.84-88.61-93.82-99.36-20.56-9.21-64.56-3.66-84.51,6.46-11.59,5.88-21.64,25.37-14.73,35.48,16.14,23.64,40.2,42.89,58.93,65.16,19.28,22.92,38.91,45.78,55.05,70.33,12.4,18.85,17.68,40.58,30.24,59.35,23.22,34.71,82.44-12.3,99.25-29.68,4.56-4.72,4.96-12.42,2.33-18.06-14.5-31.01-32.8-60.82-52.73-89.68h0Z"/>
        <path class="cls-12" d="m730.79,490.13c30.3,39.4,81.6,99.96,114.75,137.74,16.95,19.32,31.8,22.64,58.92,14.84,24.81-7.13,49.28-15.91,71.33-27.74,6.52-3.49,12.68-10.38,11.63-16.77-1.87-11.53-10.53-21.96-19.38-30.97-26.03-26.51-53.95-51.92-84.51-74.84-9.18-6.89-22.95-7.96-33.34-13.55-8.76-4.72-14.75-12.55-23.65-17.1-6.12-3.13-13.39-6.06-20.54-5.48-21.78,1.74-43.01,7.03-63.97,12.26-5.11,1.28-11.45,3.02-13.57,7.1-2.33,4.48-.83,10.4,2.33,14.52h0Z"/>
        <path class="cls-42" d="m850.58,734.97c-11.1-.46-22.43-1.1-33.34.64-10.84,1.74-23.45,2.99-31.01,9.68-6.31,5.59-8.13,15.24-5.43,22.58.5,1.36,1.1,2.71,1.76,4.04,4.38,8.71,12.2,16.57,21.5,21.77,31.32,17.51,149.4,57.42,188.41,57.42,3.47,0,8.53-3.86,6.98-6.45-8.6-14.31-22.39-26.03-34.11-38.71-10.57-11.43-21.15-22.88-32.15-34.03-3.7-3.75-7.45-7.46-11.27-11.13-8.13-7.82-14.96-17.81-26.36-21.93-13.82-5-29.92-3.25-44.97-3.87h0Z"/>
        <path class="cls-34" d="m997.12,869.17c-16.03-11.44-141.56-39.9-164.37-40.64-11.39-.37-22.3,7.63-28.69,15.48-5.55,6.83-6.25,16.52-3.88,24.52,4.84,16.26,16.01,30.74,24.81,45.8,4.91,8.4,8.4,17.87,16.28,24.52,11.99,10.11,26.25,18.8,41.87,24.52,25.97,9.51,54.3,13.69,81.41,20.64,21.48,5.52,41.88,16.62,64.36,16.78,11.33.08,25.14-6.99,27.91-16.13,4.73-15.6-.89-32.96-8.53-47.74-12.66-24.5-26.83-50.38-51.18-67.74h0Z"/>
        <path class="cls-28" d="m935.09,994.33c-17.91-7.05-35.41-16.48-55.05-18.71-7.38-.84-15.14,4.83-18.61,10.32-4.68,7.4-7.92,37.59-1.55,44.52,3.58,3.89,11.36,5.11,17.06,3.87,23.92-5.2,46.76-13.61,69.01-22.58,3.35-1.35,7.92-4.99,6.2-7.74-3.17-5.08-10.84-7.23-17.06-9.68h0Z"/>
        <path class="cls-1" d="m1068.45,1014.97c-1.8,6.47,7.18,11.9,11.63,17.42,18.43,22.87,23.55,40.39,53.47,43.91,4.56.54,9.69.75,15.53.61,14.41-.36,28.5-4.55,41.87-9.03,4.41-1.48,10.87-4.49,10.08-8.38-2.47-12.34-9.52-24.23-18.61-34.19-9.19-10.09-22.28-17.43-34.89-24.52-4.32-2.42-9.03-4.67-13.99-6.13-2.77-.81-5.61-1.39-8.51-1.61-11.65-.92-24.28-.89-34.89,3.23-9.44,3.66-19.35,10.27-21.71,18.71h0Z"/>
        <path class="cls-16" d="m1104.89,966.59c7.72,6.58,18.5,10.21,28.66,13.9l.8.29c8.62,3.14,17.79,5.54,27.14,6.45,4.24.42,11.57.9,12.4-2.58,2.85-11.84-.84-24.2-3.1-36.13-2.15-11.39-5.45-22.69-10.08-33.55-3.94-9.24-8.28-18.7-15.51-26.45-2.64-2.83-7.35-3.58-11.66-4.57-.78-.18-1.56-.37-2.3-.58-25.96-7.45-51.75-15.5-78.31-21.29-6.25-1.37-13.64-2.47-19.38,0-3.93,1.68-6.51,6.99-4.65,10.32,10.41,18.67,25.75,35.17,39.54,52.26,11.55,14.32,21.95,29.6,36.44,41.94h0Z"/>
        <path class="cls-14" d="m1051.78,853.04c21.95,5.86,57.78,13.34,81.77,16.11,1.07.13,2.12.24,3.13.34,7.76.79,13.1.3,16.94-1.19,14.11-5.49,20.86-48.68,26.09-61.07,2.76-6.52,8.57-4.18,8.53,1.29-.24,28.66-23.5,56.47-24.04,72.9-.41,12.93,7.79,25.07,12.41,37.42,4.95,13.25,13.07,25.74,16.28,39.36,2.29,9.71-.73,19.8,0,29.68.57,7.59.67,15.46,3.88,22.58,15.87,35.2,31.02,46.77,77.54,46.45,18.02-.12,35.5-5.83,53.5-6.45,7.4-.26,14.84,1.58,21.71,3.87,20.39,6.79,39.21,16.65,59.7,23.23,9.13,2.93,18.91,5.28,28.69,5.16,26.8-.32,35.41-27.39,35.67-37.74.22-8.71-14.09-23.59-17.06-31.94-3.76-10.6-3.53-22.3-9.3-32.26-8.15-14.08-19.63-26.8-31.79-38.71-12.78-12.52-29.14-22.22-42.64-34.19-22.18-19.66-42.11-41.04-64.36-60.65-29.17-25.72-60.28-49.89-89.82-75.32l-2.44-2.1c-11.07-9.52-19.87-20.89-31.79-29.68-13.04-9.61-28.31-20.81-39.94-31.62-4.42-4.12-7.89-8.57-10.88-13.19-8.86-13.69-13.55-28.85-26.72-41-9.08-8.38-33.81-9.17-45.74-14.52-14.96-6.7-26.59-13.88-43.42-15.81-13.29-1.52-26.08,5.4-38.77,9.03-19.65,5.62-41.49,8.38-58.15,18.71-10.29,6.38-13.49,18.34-17.83,28.39-4.01,9.29-9.22,19.34-6.98,29.03,2.22,9.61,11.56,17.21,19.38,24.52,14.69,13.74,33.57,24.23,47.86,38.23.59.58,1.18,1.18,1.76,1.77,19.32,19.91,30.47,44.95,51.18,63.87,9.03,8.25,22.9,12.08,35.66,15.49h0Z"/>
        <path class="cls-46" d="m1133.55,659.97c9.65,6.43,19.03,13.4,26,20.81,10.42,11.06,17.91,24.04,27.09,35.85,9.6,12.35,12.12,21.01,36.34,19.03,8.2-.67,36.86-19.82,75.01-26.71,26.23-4.74,44.05-4.99,85.65-35.27,4.59-3.34,9.28-7.35,10.85-12.26,1.74-5.42,1.86-11.94-1.54-16.78-8.44-11.97-20.83-21.76-32.56-31.62-17.77-14.92-39.84-26.32-55.82-42.58-10.03-10.2-14.82-23.33-20.94-35.48-6.56-13.05-7.93-28.07-17.06-40-14.81-19.38-34.82-4.71-50.4,1.29-18.15,6.99-34.96,16.97-54.27,21.29-9.22,2.06-18.73,3.2-28.32,3.75-9.93.56-19.94.48-29.83.12-22.2-.81-44.13-4.67-65.9-8.39-36.17-6.18-71.43-15.86-107.77-21.29-7.16-1.07-16-1.82-21.71,1.94-3.34,2.2.27,7.67,3.1,10.32,26.21,24.56,55.55,46.69,82.96,70.32,26.95,23.24,26.3,24.11,61.25,41.29,21.53,10.58,38.96,19.74,58.93,32.26,6.01,3.77,12.54,7.81,18.97,12.1h0Z"/>
        <path class="cls-9" d="m1006.4,491.58c41.64,5.05,85.18,24.23,127.15,21.64,52.97-3.44,91.03-35.3,102.35-51.96,4.46-6.55,3.41-15.61,0-22.58-20.4-41.79-42.89-83.14-70.55-121.93-5.78-8.11-17.28-12.89-27.91-16.13-1.21-.37-2.5-.74-3.88-1.11-21.92-5.92-64.45-11.94-81.41.47-18.1,13.24-25.31,34.47-41.87,49.03-6.51,5.73-16.11,8.49-25.59,8.71-36.03.82-116.26-13.24-146.54-.97-15.61,6.33-25.42,35.44-30.24,48.39-3.3,8.87,8.25,31.62,15.51,37.42,46.37,37.07,123.9,41.88,182.99,49.03h0Z"/>
        <path class="cls-25" d="m1319.85,540.46c11.68,12.89,25.12,24.65,38.77,36.13,21.53,18.12,43.19,36.24,66.68,52.58,12.93,8.99,24.56,8.33,38.77,1.94,50.02-22.5,82.34-31.38,20.16-63.23-1.59-.81-242.47-141.14-201.59-75.16,10.45,16.86,23.5,32.6,37.22,47.74h0Z"/>
        <path class="cls-30" d="m1422.01,669.16c-14.49,4.35-26.52,13.04-39.92,19.35-16.97,7.99-33.19,17.3-51.18,23.55-25.49,8.86-53.04,13.09-78.7,21.61-6,2-11.47,5.48-15.51,9.68-2.99,3.11-5.12,7.33-4.65,11.29.64,5.46,3.46,10.99,7.75,15.16l2.17,2.1c17.53,17.03,36.56,33.07,56.76,47.9,15.27,11.21,32.98,19.91,49.62,29.68,14.12,8.29,30.25,14.51,42.64,24.51,13.77,11.11,24.89,24.45,34.89,38.07,10.01,13.63,16.13,28.98,24.81,43.23,5.29,8.67,10.39,17.51,17.06,25.49,3.76,4.49,8.36,8.74,13.95,11.61,6.19,3.18,13.39,5.06,20.55,6.13,18.76,2.79,44.78-10.52,61.25-16.13,24.21-8.25,17.25-.69,36.06-1.29,3.24-.1,7.11-1.44,8.53-3.86,7.28-12.41,12.2-25.74,16.67-39.04,5.75-17.08,11.34-34.33,13.96-51.94,1.81-12.16,2.09-24.75-.77-36.77-3.42-14.35-8.53-28.89-17.84-41.29-9.96-13.29-22.93-24.76-35.79-36.29-4.94-4.42-9.86-8.85-14.6-13.39-21.05-20.19-41.84-40.62-63.97-60-9.83-8.61-19.72-17.52-31.79-23.87-7.4-3.89-16.52-5.21-25.2-6.13-8.85-.94-18.36-1.87-26.75.64h0Z"/>
        <path class="cls-5" d="m1354.56,1065.29c-6.97-2.15-16.21-.6-23.65-.64-12.69-.07-25.29,2.21-37.99,2.26-13.59.05-27.12-1.94-40.71-1.94-29.42,0-24.5,16.47,3.49,20.33,12.25,1.68,24.89-.16,37.22.96,5.49.5,10.82,2.07,15.89,3.88,9.2,3.26,17.24,8.72,26.75,11.29,9.84,2.65,20.28,4.14,30.62,4.19,11.86.06,23.74-1.58,35.28-3.87,5.46-1.08,12.01-2.25,15.12-6.13,4.66-5.81-57.84-29.03-62.03-30.32h0Z"/>
        <path class="cls-31" d="m1360.76,1122.07c-22.3-2.56-40.98-16.08-62.81-20.64-17.6-3.69-31.67-4.23-49.23-8.06-8.8-1.92-18.87-6.38-27.52-8.71-22.25-6-74.96-.07-82.97,19.35-3.94,9.56-4.27,20.86,0,30.32,10.08,22.35,23.68,44.12,41.87,62.58,13.01,13.21,30.65,23.82,49.62,30.33,20.35,6.98,43.61,5.19,65.14,9.03,24.27,4.33,47.99,10.61,72.1,15.48,11.03,2.23,21.99,5.41,33.34,5.81,7.15.26,16,.43,20.94-3.87,25.44-22.12,40.47-57.87,45.74-87.74,1.11-6.26-.03-13.26-3.88-18.71-8.78-12.45-34.7-32.15-52.72-32.9-16.81-.7-32.95,9.65-49.62,7.74h0Z"/>
        <path class="cls-40" d="m1468.16,1088.84c-.75,5.61,3.14,11.09,6.2,16.13,3.48,5.72,7.25,11.71,13.19,15.81,3.01,2.07,7.81,2,11.63,1.29,25.95-4.83,42.51-14.42,72.49-15.49,31.52-1.12,43.38,9.32,74.82-6.45,11.51-5.78,22.66-12.16,32.95-19.35,6.09-4.27,11.59-9.27,15.9-14.84,4.53-5.87,1.36-9.63-4.65-12.9-25.43-13.88-42.06-14.42-66.6-36.82-16.81-15.34-11.27-4.15-29.93-.93-6.12,1.05-61.94-5.62-78.31-5.16-16.27.46-31.54.03-34.12,15.49-1.83,10.97,1.18,22.31-1.17,33.22-2.23,10.41-10.99,19.49-12.4,30h0Z"/>
        <path class="cls-56" d="m863.19,648.83c-2.53-1.28-5.4-2.95-8.33-2.58-1.93.24-3.73,2.45-3.29,4.04,1.98,7.19,7.32,13.47,10.08,20.48,1.53,3.9,2.85,8,2.71,12.1-.13,4.09-1.05,8.38-3.49,11.94-3.86,5.64-9.24,10.56-14.93,15-6.09,4.76-14.28,7.48-20.16,12.42-1.15.96-.88,3.44.59,4.03,3.93,1.59,8.67,2.02,12.98,1.45,7.91-1.03,15.05-4.68,22.88-6.13,3.34-.62,6.9-.47,10.27,0,5.43.77,10.48,2.91,15.9,3.71,1.61.24,4.13.58,4.85-.65,1-1.71-.45-3.83-1.17-5.65-2.15-5.47-5.96-10.5-7.37-16.13-.84-3.38-.21-6.97.78-10.32,1.88-6.41,4.64-12.64,7.75-18.71,2-3.92,4.72-7.58,7.56-11.13,2.29-2.87,4.69-5.75,7.75-8.06,4.49-3.38,10.21-5.51,14.73-8.87.62-.47.67-1.68,0-2.1-1.16-.7-2.93-.91-4.27-.48-9.83,3.12-19.11,7.34-28.69,10.97-2.63,1-5.11,2.44-7.95,2.9-2.3.37-4.91.41-6.98-.48-4.54-1.95-7.83-5.54-12.21-7.74h0Z"/>
        <path class="cls-56" d="m635.05,1107.7c-5.96-3.1-11.18-7.48-17.83-9.35-2.79-.79-7.9-.46-8.53,1.94-1.87,7.17-.41,14.96,2.32,21.93,3.21,8.19,7.92,16.39,15.12,22.58,5.15,4.42,13.01,6.17,20.16,7.74,13.04,2.87,26.96,2.4,39.93,5.49,3.71.88,6.87,3.41,8.91,6.13,5.46,7.25,7.91,15.87,13.18,23.22,3.2,4.46,6.79,9.11,12.02,11.94,9.21,4.99,20.56,6.63,30.24,10.97,5.53,2.48,9.39,7.22,15.12,9.36,2.27.84,6.15.83,7.36-.97,1.84-2.72,1.21-6.53-.39-9.35-5.29-9.3-14.34-16.88-19.77-26.13-2.93-4.99-4.54-10.59-5.04-16.13-.55-6.13-1.29-12.85,1.94-18.39,5.25-9.02,16.16-15.02,22.48-23.55,1.42-1.92,2.71-6.85,0-6.78-8.66.23-15.96,5.87-24.42,7.42-11.56,2.13-23.44,3.18-35.28,3.55-5.35.17-10.94-.24-15.9-1.93-8.2-2.8-14.46-8.98-22.87-11.29-8.76-2.42-18.59-.65-27.53-2.58-4.27-.92-7.51-3.86-11.24-5.8h0Z"/>
        <path class="cls-56" d="m1118.1,1234.16c-2.6-.82-3.75-3.83-3.88-6.13-.16-2.72,1.55-5.35,3.1-7.74,4.81-7.43,11.82-13.88,15.89-21.61,2.49-4.71,3.24-10.02,3.49-15.16.26-5.29-.34-10.68-1.94-15.81-3.2-10.23-9.91-19.63-12.4-30-.5-2.07,1.49-4.72,3.88-5.48,2.1-.67,5.19.58,6.2,2.26,8.16,13.48,13.21,28.13,20.55,41.94,4.04,7.61,8.15,15.27,13.57,22.26,3.32,4.28,7.29,8.48,12.4,11.29,7.68,4.21,17.74,4.87,25.2,9.35,1.89,1.13,1.83,4.61,0,5.8-2.88,1.88-7.21,1.48-10.86,1.29-8.99-.46-17.76-2.7-26.74-3.23-5.81-.34-11.87-.73-17.45.64-7.37,1.81-13.41,6.33-20.55,8.71-3.29,1.1-7.15,2.65-10.46,1.61h0Z"/>
        <path class="cls-56" d="m626.52,659.31c-8.52-1.74-16.81-5.36-25.59-5.16-2.6.06-5.36,4.3-3.49,5.81,8.04,6.48,18.44,10.77,28.69,14.52,9.33,3.41,19.53,4.91,29.46,6.77,8.44,1.58,17.3,1.49,25.59,3.55,5.7,1.42,11.49,3.44,15.9,6.78,9.9,7.48,16.23,17.9,26.36,25.16,1.88,1.35,5.51.41,7.36-.97,2.29-1.7,4.41-4.66,3.49-7.1-5.01-13.27-13.65-25.4-20.55-38.06-6.15-11.31-11.67-22.88-18.61-33.87-3.55-5.62-7.64-11.12-12.8-15.81-.96-.88-3.92-.83-4.26.32-1.1,3.77-.34,7.85.77,11.61,2.66,8.91,8.4,17.11,10.47,26.13.72,3.13.34,7.07-2.33,9.35-2.36,2.03-6.73,1.79-10.08,1.29-17.03-2.55-33.59-6.9-50.4-10.32h0Z"/>
        <path class="cls-56" d="m1437.55,1089.64c-3.36.16-6.91-.29-10.08.65-1.56.46-3.4,1.87-3.1,3.23.5,2.26,4.37,3.25,5.04,5.48.49,1.65.03,4.39-1.94,4.84-7.99,1.83-16.63.19-24.81,1.29-6.38.85-12.97,1.89-18.61,4.52-1.6.74-2.6,4.42-.78,4.52,6.6.34,12.8-2.99,19.38-3.55,7.58-.63,15.59-1.86,22.87,0,10.44,2.68,19.98,7.73,28.69,13.23,5.98,3.78,10.75,8.9,14.73,14.19,2.84,3.78,5.29,8.13,5.43,12.58.26,8.04-4.03,15.83-4.27,23.87-.04,1.37,2.63,4.07,3.49,2.9,4.29-5.87,6.14-12.78,8.53-19.35,1.88-5.17,2.22-10.69,4.27-15.81.95-2.38,2.31-4.88,4.65-6.45,3.83-2.56,9.35-2.93,13.19-5.49,1.11-.74,1.78-3.28.38-3.55-5.54-1.07-11.51,1.4-17.06.32-4.79-.93-9.42-3.15-12.79-6.13-5.01-4.43-8.91-9.83-11.63-15.48-1.29-2.7-.32-5.82,0-8.71.59-5.41,2.83-10.7,2.71-16.13-.02-1.22-2.06-3.44-3.1-2.58-3.52,2.93-2.63,8.97-6.98,10.97-5.32,2.45-12.16.37-18.22.64h0Z"/>
        <path class="cls-56" d="m1592.24,989.48c-3.66-1.12-6.6-3.89-10.46-4.35-4.14-.5-8.46.45-12.41,1.61-8.42,2.47-16.06,6.57-24.42,9.19-5.9,1.85-12.53,1.94-18.22,4.19-1.18.47-1.7,2.66-.58,3.23,3.53,1.79,7.91,2.15,12.02,2.58,15.32,1.62,30.71,2.81,46.13,3.55,2.48.12,5.21.06,7.36-.97,3.69-1.76,5.78-5.37,9.5-7.1,1.69-.78,4-.55,5.82,0,4.66,1.43,8.57,4.26,13.18,5.8,1.14.38,3.06.72,3.68-.16.92-1.3.41-3.16-.38-4.52-1.42-2.4-4.6-3.89-6.01-6.29-1.12-1.92-1.33-4.16-1.36-6.29-.04-3.35,1.27-6.65,1.17-10-.03-1.01-.63-2.09-1.55-2.74-.59-.42-1.77-.45-2.33,0-1.59,1.28-2.41,3.07-3.49,4.68-1.38,2.05-2.06,4.49-3.88,6.29-1.32,1.31-3.19,2.55-5.23,2.74-2.88.27-5.81-.62-8.53-1.45h0Z"/>
        <path class="cls-56" d="m1297.99,527.05c-1.11-.59-3.74-.45-3.88.65-.62,5.16.34,10.47,1.94,15.49,2.18,6.81,4.81,13.7,9.31,19.67,3.18,4.22,8.59,6.96,13.18,10.16,7.44,5.19,15.65,9.6,22.88,15,8.12,6.07,15.74,12.61,23.06,19.35,4.14,3.81,6.67,8.8,11.24,12.26,2.01,1.52,5.05,2.31,7.75,2.1,1.97-.16,3.95-1.53,4.65-3.07,1.07-2.31,1.3-5.13.19-7.42-1.74-3.6-4.86-6.78-8.33-9.36-8.57-6.36-18.61-11.24-27.53-17.26-5.5-3.71-11.09-7.46-15.7-11.93-5.79-5.63-10.46-12.01-15.32-18.23-5.1-6.53-9.11-13.65-14.54-20-2.44-2.85-5.37-5.54-8.92-7.42h0Z"/>
        <path class="cls-56" d="m1413.14,629.48c-3.61-1.93-7.77-3.32-12.02-3.87-1.84-.24-4.13.37-5.23,1.61-1.36,1.54-1.81,3.81-1.16,5.65,1.57,4.45,5.66,8.06,7.56,12.42,1.17,2.71,1.76,5.67,1.55,8.55-.19,2.78-.99,5.67-2.71,8.06-3.47,4.83-9.08,8.43-12.6,13.23-.62.85-.4,2.73.77,2.9,2.62.4,5.4-.58,7.75-1.61,7.17-3.14,13.16-8.04,20.55-10.8,5.25-1.97,11.16-2.52,16.86-3.23,4.35-.54,8.83-1.04,13.18-.49,6.39.81,12.69,2.37,18.61,4.52,4.71,1.71,8.85,4.39,12.99,6.94,4.62,2.85,7.5-.38,4.06-2.91-5.14-3.78-10.69-7.21-15.5-11.29-2.21-1.87-4.26-4.02-5.43-6.46-.72-1.5-.65-3.32,0-4.84,1.29-3.02,4.45-5.33,5.62-8.38.36-.95-.27-2.34-1.35-2.74-2.07-.78-4.58-.76-6.78-.32-5.68,1.14-10.78,3.94-16.48,5-3.34.62-6.96.68-10.28,0-3.71-.76-7.18-2.34-10.27-4.2-3.63-2.18-5.93-5.73-9.69-7.74h0Z"/>
        <path class="cls-56" d="m1063.99,972.58c.26,4.28-.4,8.7-2.13,12.74-2.08,4.87-5.19,9.53-9.11,13.55-2.62,2.69-6.14,5.01-10.09,6.13-3.6,1.02-7.62.14-11.43,0-6.02-.23-12.06-1.82-18.03-1.13-1.67.19-3.83,2.49-2.72,3.55,2.69,2.55,7.29,3.05,11.05,4.36,6.26,2.18,13.34,3,18.99,6.13,5.41,2.99,9.33,7.55,13.38,11.77,4.12,4.3,7.67,8.98,11.04,13.71,7.11,9.95,12.94,20.53,20.35,30.32.95,1.25,2.77,2.84,4.47,2.42,1.83-.45,2.98-2.62,2.71-4.19-1.35-7.88-4.47-15.48-7.36-23.06-1.45-3.79-2.79-7.77-5.63-10.97-3.68-4.16-9.11-7.04-13.57-10.65-2.65-2.14-6.38-3.75-7.75-6.61-1.6-3.35-2.09-7.43-.58-10.81,2.05-4.56,6.19-8.47,10.66-11.61,4.91-3.45,10.95-5.67,16.86-7.74,4.88-1.71,10.05-3.03,15.32-3.55,4.62-.46,9.35.03,13.95.65,8.69,1.16,17.1,3.51,25.79,4.67,2.17.3,4.61.48,6.59-.32.94-.38,1.4-2.02.58-2.58-3.24-2.21-7.43-3.23-11.24-4.68-13.38-5.1-27.51-8.96-40.32-15-4.85-2.28-8.54-6.05-12.02-9.68-4.2-4.39-7.61-9.28-10.85-14.19-6.71-10.16-11.73-21.08-19-30.97-1.06-1.44-3.46-2.62-5.43-2.26-1.47.27-1.92,2.33-1.55,3.55,3.45,11.48,9.32,22.4,12.8,33.87,2.23,7.39,3.8,14.97,4.26,22.58h0Z"/>
        <path class="cls-56" d="m681.75,425.16c-.75-1.51-4.43.53-5.43,1.94-3.26,4.64-4.23,10.16-6.59,15.16-2.41,5.11-4.25,10.51-7.75,15.16-3.31,4.39-9.19,7.18-12.41,11.61-1.14,1.57-1.08,3.9,0,5.49.91,1.34,3.19,2.02,5.04,1.94,10.29-.47,20.32-3.75,30.63-3.55,6.83.13,13.81,1.73,19.77,4.52,6.14,2.86,9.92,8.38,15.51,11.94.73.46,2.89.42,2.72-.32-1.31-5.57-2.42-11.63-6.59-16.13-3.32-3.58-9.91-3.83-14.34-6.45-4.55-2.69-8.89-5.75-12.41-9.35-3.28-3.36-6.01-7.21-7.75-11.29-1.04-2.44-.34-5.16-.39-7.74-.08-4.3,1.97-8.93,0-12.91h0Z"/>
        <path class="cls-56" d="m1038.21,307.57c-1.55-.65-1.84-2.8-1.36-4.19,1.61-4.57,4.73-8.67,7.37-12.9,2.02-3.25,3.91-6.61,6.59-9.52,2.67-2.89,5.42-6.05,9.3-7.74,4.02-1.74,8.88-2.61,13.38-2.1,5.37.61,9.72,4.1,14.93,5.32,4.06.95,8.38,1.28,12.6,1.13,4.65-.17,9.13-2.52,13.76-2.1,9.1.84,18.02,3.05,26.55,5.8,6.08,1.96,11.84,4.78,16.87,8.23,4.28,2.94,7.24,7.01,10.66,10.64,3.76,4,6.4,8.79,10.85,12.26,2.97,2.32,6.98,3.65,10.86,4.67,11.18,2.97,22.7,4.98,34.11,7.26,10.62,2.13,21.71,2.88,31.98,5.97,1.93.58,2.95,2.81,2.91,4.52-.04,1.26-1.6,2.83-3.1,2.74-13.45-.81-26.48-4.72-39.93-5.32-3.63-.16-7.42,1.18-10.27,3.06-2.75,1.82-2.86,5.61-5.62,7.42-1.9,1.25-4.99,1.84-7.17.97-4.46-1.77-8.25-4.84-11.05-8.22-7-8.47-9.23-19.72-18.03-26.94-9.65-7.91-22.6-12.83-35.28-16.78-9.79-3.05-20.61-3.06-31.01-3.87-9.01-.7-18.17-1.65-27.14-.65-4.81.54-9.33,2.7-13.18,5.16-5.87,3.76-10.09,9.03-15.51,13.23-1.15.89-2.68,2.52-4.08,1.93h0Z"/>
        <path class="cls-56" d="m790.5,790.8c-1.39-1.14-3.98-1.19-5.82-.65-1.52.45-3.13,1.9-2.91,3.23,1.15,6.71,5.36,12.85,6.78,19.52.67,3.13-.4,6.34-.58,9.52-.21,3.71-.61,7.41-.58,11.13.03,3.61.09,7.25.78,10.81.81,4.21,1.72,8.48,3.68,12.42.32.64,2.3.67,2.52,0,1.5-4.66.63-9.7,2.13-14.36,1.43-4.42,3.2-8.98,6.59-12.58,2.92-3.1,7.26-5.27,11.63-6.78,3.06-1.05,6.6-.95,9.89-.64,5.59.51,10.89,2.51,16.48,3.06,1.07.11,2.81-.24,2.91-1.13.23-1.96-.13-4.6-2.14-5.65-6.99-3.62-15.54-4.63-23.07-7.42-6.12-2.27-12.77-4.08-17.83-7.74-4.66-3.38-6.07-9.13-10.46-12.74h0Z"/>
        <path class="cls-56" d="m837.21,943.55c-.6-.49-1.87-.61-2.52-.16-1.37.97-3.11,2.42-2.71,3.87,1.47,5.43,5.84,10.04,7.95,15.32,1.92,4.82,3.22,9.82,4.07,14.84,1.29,7.53.75,15.25,2.33,22.74.22,1.05,1.64,1.94,2.91,2.1,1.38.16,3.61-.16,3.88-1.29,1.75-7.35-.41-15.15,1.75-22.42.76-2.55,3.82-4.4,6.59-5.65,3.34-1.5,7.25-2.13,11.05-2.26,4.17-.14,8.23,1.5,12.4,1.45,1.11,0,2.42-.72,2.72-1.61.34-1.03,0-2.6-1.17-3.07-7.77-3.13-16.47-4.44-24.42-7.26-5.26-1.86-10.66-3.78-15.12-6.77-3.97-2.66-6.06-6.87-9.7-9.84h0Z"/>
        <path class="cls-56" d="m1379.19,873.39c-9.35-5.79-19.6-10.56-29.85-15.16-4.64-2.08-9.49-4.31-14.73-4.84-1.34-.13-1.81,2.24-1.17,3.23,5.77,8.69,12.52,16.95,19.77,24.84,9.19,9.99,18.63,19.93,29.46,28.71,8.91,7.22,20.36,11.99,29.46,19.03,7.65,5.92,13.22,13.49,20.54,19.68,1.3,1.1,3.63,2.93,5.04,1.94,1.68-1.18.93-3.83,0-5.49-7.18-12.71-15.41-25.02-24.03-37.1-5.22-7.31-10.95-14.41-17.45-20.97-5.05-5.1-10.68-9.93-17.06-13.87h0Z"/>
        <path class="cls-56" d="m1251.26,436.45c-1.09-.94-3.23-1.19-4.65-.65-1.24.47-1.65,1.94-1.74,3.07-.43,5.36.94,10.79.19,16.13-.49,3.48-2.17,6.8-3.87,10-2.13,3.98-3.97,8.29-7.56,11.45-4.37,3.85-10.8,5.66-15.7,9.03-1.14.78-2.24,2-2.13,3.23.07.79,1.62,1.39,2.52,1.13,9.75-2.84,18.5-7.98,28.5-10.16,4.14-.91,8.91-.39,12.79,1.13,4.1,1.6,7.42,4.59,9.89,7.74,3.72,4.73,4.62,10.75,8.34,15.49.67.85,3.93.84,3.68-.16-1.8-7.21-6.86-13.65-8.91-20.8-.89-3.09-1.02-6.51.19-9.52.8-1.98,3.18-3.42,5.43-4.36,1.86-.77,4.29.18,6.2-.48.99-.34,2.51-1.63,1.75-2.26-5.07-4.16-11.93-6.55-17.25-10.48-4.04-2.99-7.42-6.57-10.66-10.16-2.65-2.93-3.92-6.72-6.98-9.35h0Z"/>
        <path class="cls-56" d="m1128.17,660.96c-1.46-.85-5.04.8-4.65,2.26,2.62,9.87,7.09,19.46,12.8,28.39,5.12,8.01,11.86,15.37,19.38,21.94,8.36,7.29,18.89,12.63,27.91,19.35,5.72,4.25,11.25,8.72,16.28,13.55,4.3,4.12,7.46,9.01,11.64,13.23,5.52,5.58,10.89,11.38,17.45,16.13,1.7,1.23,4.47,1.94,6.59,1.29,1.35-.41,1.36-2.45.78-3.55-3.02-5.68-8.64-10.3-11.25-16.13-1.26-2.82-1.4-6.25,0-9.03,1.89-3.73,6.8-5.88,9.31-9.35.44-.62-.31-2.01-1.17-1.94-5.95.52-11.46,3.73-17.45,3.55-5.47-.16-10.81-2.16-15.51-4.52-4.31-2.16-7.88-5.34-10.86-8.71-8.84-10.03-15.84-21.11-24.42-31.29-5.65-6.71-11.75-13.18-18.23-19.35-5.82-5.56-11.34-11.58-18.61-15.81h0Z"/>
        <g>
          <ellipse class="cls-4" cx="875.7" cy="686.41" rx="7.95" ry="119.91"/>
          <path class="cls-3" d="m880.3,682.58c46.1,38.36,81.42,71.18,78.88,73.29s-41.98-27.27-88.08-65.63c-46.1-38.36-81.42-71.18-78.88-73.29s41.98,27.27,88.08,65.63Z"/>
          <ellipse class="cls-51" cx="875.7" cy="686.41" rx="144.1" ry="6.61"/>
          <ellipse class="cls-54" cx="875.7" cy="686.41" rx="108.6" ry="5.89" transform="translate(-236.5 718.28) rotate(-39.73)"/>
          <ellipse class="cls-13" cx="875.7" cy="686.41" rx="80.05" ry="66.61"/>
        </g>
        <g>
          <ellipse class="cls-15" cx="693.28" cy="1135.24" rx="6.98" ry="105.33"/>
          <path class="cls-24" d="m697.32,1131.88c40.5,33.7,71.52,62.53,69.29,64.38-2.23,1.86-36.87-23.95-77.37-57.65-40.5-33.7-71.52-62.53-69.29-64.38s36.87,23.95,77.37,57.65Z"/>
          <ellipse class="cls-50" cx="693.28" cy="1135.24" rx="126.59" ry="5.81"/>
          <path class="cls-22" d="m689.24,1131.88c40.5-33.7,75.14-59.51,77.37-57.65,2.23,1.86-28.79,30.68-69.29,64.38-40.5,33.7-75.14,59.51-77.37,57.65-2.23-1.86,28.79-30.68,69.29-64.38Z"/>
          <ellipse class="cls-11" cx="693.28" cy="1135.24" rx="70.32" ry="58.51"/>
        </g>
        <g>
          <ellipse class="cls-2" cx="1424.96" cy="653.69" rx="5.86" ry="88.48"/>
          <ellipse class="cls-6" cx="1424.96" cy="653.69" rx="4.34" ry="80.14" transform="translate(11.41 1331.7) rotate(-50.27)"/>
          <ellipse class="cls-47" cx="1424.96" cy="653.69" rx="106.33" ry="4.88"/>
          <path class="cls-44" d="m1421.56,650.87c34.02-28.31,63.12-49.99,64.99-48.43,1.88,1.56-24.18,25.77-58.2,54.08-34.02,28.31-63.12,49.99-64.99,48.43-1.88-1.56,24.18-25.77,58.2-54.08Z"/>
          <ellipse class="cls-33" cx="1424.96" cy="653.69" rx="59.07" ry="49.15"/>
        </g>
        <g>
          <path class="cls-23" d="m1263.72,455.19c0,34.73-1.87,62.88-4.17,62.88s-4.17-28.15-4.17-62.88,1.87-62.88,4.17-62.88,4.17,28.15,4.17,62.88Z"/>
          <path class="cls-8" d="m1261.97,453.18c24.18,20.12,42.7,37.32,41.36,38.43s-22.01-14.3-46.19-34.42c-24.18-20.12-42.69-37.32-41.36-38.43,1.33-1.11,22.01,14.3,46.19,34.42Z"/>
          <path class="cls-21" d="m1259.56,451.72c41.73,0,75.57,1.55,75.57,3.47s-33.83,3.47-75.57,3.47-75.57-1.55-75.57-3.47,33.83-3.47,75.57-3.47Z"/>
          <path class="cls-52" d="m1257.14,453.18c24.18-20.12,44.86-35.53,46.19-34.42,1.33,1.11-17.19,18.32-41.36,38.43-24.18,20.12-44.86,35.53-46.19,34.42-1.33-1.11,17.19-18.32,41.36-38.43Z"/>
          <ellipse class="cls-39" cx="1259.56" cy="455.19" rx="41.98" ry="34.93"/>
        </g>
        <g>
          <ellipse class="cls-41" cx="1590.36" cy="999.86" rx="4.6" ry="69.45"/>
          <path class="cls-7" d="m1593.03,997.64c26.7,22.22,47.16,41.23,45.69,42.45s-24.31-15.8-51.02-38.02c-26.7-22.22-47.16-41.23-45.69-42.45s24.31,15.8,51.02,38.02Z"/>
          <ellipse class="cls-48" cx="1590.36" cy="999.86" rx="83.47" ry="3.83"/>
          <ellipse class="cls-19" cx="1590.36" cy="999.86" rx="62.91" ry="3.41" transform="translate(-271.8 1247.49) rotate(-39.73)"/>
          <ellipse class="cls-27" cx="1590.36" cy="999.86" rx="46.37" ry="38.58"/>
        </g>
      </g>
    </g>
  </g>
</svg>