<?xml version="1.0" encoding="UTF-8"?>
<svg xmlns="http://www.w3.org/2000/svg" xmlns:xlink="http://www.w3.org/1999/xlink" viewBox="0 0 805.42 453.22">
  <defs>
    <style>
      .cls-1 {
        fill: url(#linear-gradient-37);
      }

      .cls-1, .cls-2, .cls-3, .cls-4, .cls-5, .cls-6, .cls-7, .cls-8, .cls-9, .cls-10, .cls-11, .cls-12 {
        stroke: #949494;
        stroke-linecap: round;
        stroke-linejoin: round;
        stroke-width: .03px;
      }

      .cls-13 {
        fill: #e9e9e9;
      }

      .cls-14 {
        fill: #f4f4f4;
      }

      .cls-15 {
        fill: url(#linear-gradient-25);
      }

      .cls-15, .cls-16, .cls-17, .cls-18, .cls-19, .cls-20, .cls-21, .cls-22, .cls-23, .cls-24, .cls-25, .cls-26, .cls-27, .cls-28, .cls-29, .cls-30, .cls-31, .cls-32, .cls-33, .cls-34, .cls-35, .cls-36, .cls-37, .cls-38, .cls-39, .cls-40, .cls-41, .cls-42, .cls-43 {
        stroke: #9d9d9c;
        stroke-miterlimit: 10;
      }

      .cls-15, .cls-16, .cls-17, .cls-18, .cls-19, .cls-20, .cls-21, .cls-22, .cls-23, .cls-24, .cls-25, .cls-26, .cls-27, .cls-29, .cls-30, .cls-31, .cls-32, .cls-33, .cls-34, .cls-35, .cls-36, .cls-37, .cls-38, .cls-39, .cls-40, .cls-41, .cls-42, .cls-43 {
        stroke-width: .04px;
      }

      .cls-44 {
        fill: #fff;
      }

      .cls-45 {
        fill: #cbcbcb;
      }

      .cls-46 {
        fill: #d1d1d1;
      }

      .cls-16 {
        fill: url(#linear-gradient-3);
      }

      .cls-47 {
        fill: #fafafa;
      }

      .cls-48 {
        fill: #ff564a;
      }

      .cls-48, .cls-49, .cls-50 {
        mix-blend-mode: multiply;
      }

      .cls-17 {
        fill: url(#linear-gradient-13);
      }

      .cls-18 {
        fill: url(#linear-gradient-35);
      }

      .cls-19 {
        fill: url(#linear-gradient-41);
      }

      .cls-51 {
        isolation: isolate;
      }

      .cls-52 {
        fill: #d6d6d6;
      }

      .cls-20 {
        fill: url(#linear-gradient-12);
      }

      .cls-21 {
        fill: url(#linear-gradient-5);
      }

      .cls-53 {
        fill: #c9c9c9;
      }

      .cls-54 {
        fill: #dedede;
      }

      .cls-2 {
        fill: url(#linear-gradient-27);
      }

      .cls-22 {
        fill: url(#linear-gradient-31);
      }

      .cls-23 {
        fill: url(#linear-gradient-30);
      }

      .cls-3 {
        fill: url(#linear-gradient-39);
      }

      .cls-55 {
        fill: #9d9d9c;
      }

      .cls-4 {
        fill: url(#linear-gradient-7);
      }

      .cls-56 {
        fill: #e1e1e1;
      }

      .cls-57 {
        fill: #e7e7e7;
      }

      .cls-5 {
        fill: url(#linear-gradient-29);
      }

      .cls-24 {
        fill: url(#linear-gradient-22);
      }

      .cls-25 {
        fill: url(#linear-gradient-15);
      }

      .cls-6 {
        fill: url(#linear-gradient-8);
      }

      .cls-26 {
        fill: url(#linear-gradient-34);
      }

      .cls-58 {
        fill: #d4d4d4;
      }

      .cls-7 {
        fill: url(#linear-gradient-19);
      }

      .cls-27 {
        fill: url(#linear-gradient-32);
      }

      .cls-8 {
        fill: url(#linear-gradient-17);
      }

      .cls-9 {
        fill: url(#linear-gradient-18);
      }

      .cls-59 {
        fill: #e4e4e4;
      }

      .cls-28 {
        fill: none;
        stroke-width: .03px;
      }

      .cls-10 {
        fill: url(#linear-gradient-38);
      }

      .cls-29 {
        fill: url(#linear-gradient-11);
      }

      .cls-60 {
        fill: #878787;
      }

      .cls-61 {
        fill: #dcdcdc;
      }

      .cls-30 {
        fill: url(#linear-gradient-23);
      }

      .cls-49 {
        fill: #706f6f;
      }

      .cls-31 {
        fill: url(#linear-gradient-40);
      }

      .cls-32 {
        fill: url(#linear-gradient-36);
      }

      .cls-33 {
        fill: url(#linear-gradient-16);
      }

      .cls-34 {
        fill: url(#linear-gradient-26);
      }

      .cls-35 {
        fill: url(#linear-gradient-14);
      }

      .cls-62 {
        fill: #f7f7f7;
      }

      .cls-63 {
        fill: #efefef;
      }

      .cls-36 {
        fill: url(#linear-gradient-10);
      }

      .cls-37 {
        fill: url(#linear-gradient-24);
      }

      .cls-11 {
        fill: url(#linear-gradient-28);
      }

      .cls-38 {
        fill: url(#linear-gradient-33);
      }

      .cls-64 {
        fill: #f1f1f1;
      }

      .cls-39 {
        fill: url(#linear-gradient-4);
      }

      .cls-12 {
        fill: url(#linear-gradient-9);
      }

      .cls-65 {
        fill: #cecece;
      }

      .cls-40 {
        fill: url(#linear-gradient-6);
      }

      .cls-66 {
        fill: url(#linear-gradient);
      }

      .cls-67 {
        fill: #d9d9d9;
      }

      .cls-41 {
        fill: url(#linear-gradient-20);
      }

      .cls-68 {
        fill: #c6c6c6;
      }

      .cls-42 {
        fill: url(#linear-gradient-2);
      }

      .cls-43 {
        fill: url(#linear-gradient-21);
      }

      .cls-69 {
        fill: #ececec;
      }

      .cls-70 {
        fill: #fcfcfc;
      }

      .cls-71 {
        fill: #ededed;
      }
    </style>
    <linearGradient id="linear-gradient" x1="1950.15" y1="948.63" x2="2302.61" y2="745.21" gradientTransform="translate(2559.55 1052.05) rotate(-180)" gradientUnits="userSpaceOnUse">
      <stop offset="0" stop-color="#fff"/>
      <stop offset="1" stop-color="#ccc"/>
    </linearGradient>
    <linearGradient id="linear-gradient-2" x1="159.11" y1="35.33" x2="50.77" y2="123.61" gradientUnits="userSpaceOnUse">
      <stop offset="0" stop-color="#fff"/>
      <stop offset="1" stop-color="#c2c2c2"/>
    </linearGradient>
    <linearGradient id="linear-gradient-3" x1="181.92" y1="71.32" x2="73.58" y2="159.6" xlink:href="#linear-gradient-2"/>
    <linearGradient id="linear-gradient-4" x1="170.51" y1="53.33" x2="62.18" y2="141.6" xlink:href="#linear-gradient-2"/>
    <linearGradient id="linear-gradient-5" x1="193.33" y1="89.31" x2="84.99" y2="177.59" xlink:href="#linear-gradient-2"/>
    <linearGradient id="linear-gradient-6" x1="204.74" y1="107.31" x2="96.4" y2="195.59" xlink:href="#linear-gradient-2"/>
    <linearGradient id="linear-gradient-7" x1="175.68" y1="42.88" x2="185.15" y2="42.88" gradientUnits="userSpaceOnUse">
      <stop offset="0" stop-color="#c2c2c1"/>
      <stop offset="1" stop-color="#878787"/>
    </linearGradient>
    <linearGradient id="linear-gradient-8" y1="191.31" y2="191.31" xlink:href="#linear-gradient-7"/>
    <linearGradient id="linear-gradient-9" x1="44.99" y1="117.01" x2="66.55" y2="117.01" gradientUnits="userSpaceOnUse">
      <stop offset="0" stop-color="#c2c2c1"/>
      <stop offset="1" stop-color="#787878"/>
    </linearGradient>
    <linearGradient id="linear-gradient-10" x1="184.34" y1="57.17" x2="47.96" y2="158.39" gradientUnits="userSpaceOnUse">
      <stop offset="0" stop-color="#fff"/>
      <stop offset="1" stop-color="#d6d6d6"/>
    </linearGradient>
    <linearGradient id="linear-gradient-11" x1="168.52" y1="83.04" x2="98.1" y2="140.42" gradientTransform="matrix(1,0,0,1,0,0)" xlink:href="#linear-gradient"/>
    <linearGradient id="linear-gradient-12" x1="159.11" y1="245.09" x2="50.77" y2="333.37" xlink:href="#linear-gradient-2"/>
    <linearGradient id="linear-gradient-13" x1="181.92" y1="281.08" x2="73.58" y2="369.36" xlink:href="#linear-gradient-2"/>
    <linearGradient id="linear-gradient-14" x1="170.51" y1="263.09" x2="62.18" y2="351.36" xlink:href="#linear-gradient-2"/>
    <linearGradient id="linear-gradient-15" x1="193.33" y1="299.07" x2="84.99" y2="387.35" xlink:href="#linear-gradient-2"/>
    <linearGradient id="linear-gradient-16" x1="204.74" y1="317.07" x2="96.4" y2="405.35" xlink:href="#linear-gradient-2"/>
    <linearGradient id="linear-gradient-17" y1="252.64" y2="252.64" xlink:href="#linear-gradient-7"/>
    <linearGradient id="linear-gradient-18" y1="401.07" y2="401.07" xlink:href="#linear-gradient-7"/>
    <linearGradient id="linear-gradient-19" y1="326.77" y2="326.77" xlink:href="#linear-gradient-9"/>
    <linearGradient id="linear-gradient-20" x1="184.34" y1="266.93" x2="47.96" y2="368.15" xlink:href="#linear-gradient-10"/>
    <linearGradient id="linear-gradient-21" x1="168.52" y1="292.8" x2="98.1" y2="350.18" gradientTransform="matrix(1,0,0,1,0,0)" xlink:href="#linear-gradient"/>
    <linearGradient id="linear-gradient-22" x1="1989.27" y1="889.26" x2="1880.93" y2="977.54" gradientTransform="translate(2666.1 1088.68) rotate(-180)" xlink:href="#linear-gradient-2"/>
    <linearGradient id="linear-gradient-23" x1="2012.08" y1="925.25" x2="1903.74" y2="1013.53" gradientTransform="translate(2666.1 1088.68) rotate(-180)" xlink:href="#linear-gradient-2"/>
    <linearGradient id="linear-gradient-24" x1="2000.68" y1="907.25" x2="1892.33" y2="995.53" gradientTransform="translate(2666.1 1088.68) rotate(-180)" xlink:href="#linear-gradient-2"/>
    <linearGradient id="linear-gradient-25" x1="2023.49" y1="943.24" x2="1915.15" y2="1031.52" gradientTransform="translate(2666.1 1088.68) rotate(-180)" xlink:href="#linear-gradient-2"/>
    <linearGradient id="linear-gradient-26" x1="2034.9" y1="961.23" x2="1926.55" y2="1049.51" gradientTransform="translate(2666.1 1088.68) rotate(-180)" xlink:href="#linear-gradient-2"/>
    <linearGradient id="linear-gradient-27" x1="2005.84" y1="896.81" x2="2015.31" y2="896.81" gradientTransform="translate(2666.1 1088.68) rotate(-180)" xlink:href="#linear-gradient-7"/>
    <linearGradient id="linear-gradient-28" x1="2005.84" y1="1045.24" x2="2015.31" y2="1045.24" gradientTransform="translate(2666.1 1088.68) rotate(-180)" xlink:href="#linear-gradient-7"/>
    <linearGradient id="linear-gradient-29" x1="1875.14" y1="970.94" x2="1896.71" y2="970.94" gradientTransform="translate(2666.1 1088.68) rotate(-180)" xlink:href="#linear-gradient-9"/>
    <linearGradient id="linear-gradient-30" x1="2014.5" y1="911.1" x2="1878.12" y2="1012.32" gradientTransform="translate(2666.1 1088.68) rotate(-180)" xlink:href="#linear-gradient-10"/>
    <linearGradient id="linear-gradient-31" x1="1998.67" y1="936.97" x2="1928.26" y2="994.34" gradientTransform="translate(2666.1 1088.68) rotate(-180)" xlink:href="#linear-gradient"/>
    <linearGradient id="linear-gradient-32" x1="1989.27" y1="681.9" x2="1880.93" y2="770.18" gradientTransform="translate(2666.1 1088.68) rotate(-180)" xlink:href="#linear-gradient-2"/>
    <linearGradient id="linear-gradient-33" x1="2012.08" y1="717.88" x2="1903.74" y2="806.16" gradientTransform="translate(2666.1 1088.68) rotate(-180)" xlink:href="#linear-gradient-2"/>
    <linearGradient id="linear-gradient-34" x1="2000.67" y1="699.89" x2="1892.34" y2="788.17" gradientTransform="translate(2666.1 1088.68) rotate(-180)" xlink:href="#linear-gradient-2"/>
    <linearGradient id="linear-gradient-35" x1="2023.49" y1="735.88" x2="1915.15" y2="824.16" gradientTransform="translate(2666.1 1088.68) rotate(-180)" xlink:href="#linear-gradient-2"/>
    <linearGradient id="linear-gradient-36" x1="2034.9" y1="753.88" x2="1926.55" y2="842.15" gradientTransform="translate(2666.1 1088.68) rotate(-180)" xlink:href="#linear-gradient-2"/>
    <linearGradient id="linear-gradient-37" x1="2005.84" y1="689.45" x2="2015.31" y2="689.45" gradientTransform="translate(2666.1 1088.68) rotate(-180)" xlink:href="#linear-gradient-7"/>
    <linearGradient id="linear-gradient-38" x1="2005.84" y1="837.88" x2="2015.31" y2="837.88" gradientTransform="translate(2666.1 1088.68) rotate(-180)" xlink:href="#linear-gradient-7"/>
    <linearGradient id="linear-gradient-39" x1="1875.14" y1="763.57" x2="1896.71" y2="763.57" gradientTransform="translate(2666.1 1088.68) rotate(-180)" xlink:href="#linear-gradient-9"/>
    <linearGradient id="linear-gradient-40" x1="2014.5" y1="703.73" x2="1878.11" y2="804.96" gradientTransform="translate(2666.1 1088.68) rotate(-180)" xlink:href="#linear-gradient-10"/>
    <linearGradient id="linear-gradient-41" x1="1998.67" y1="729.61" x2="1928.25" y2="786.98" gradientTransform="translate(2666.1 1088.68) rotate(-180)" xlink:href="#linear-gradient"/>
  </defs>
  <g class="cls-51">
    <g id="Layer_1" data-name="Layer 1">
      <g class="cls-50">
        <path class="cls-44" d="m616.26,203.7v1.19h.12v14.07c0,.38.17.74.46.91l8.88,5.75v.65h146.16V53.24h-146.16v.65l-8.88,5.77c-.29.18-.46.53-.46.91v14.21h-.12v1.2h-.32v127.73h.32Z"/>
        <path class="cls-70" d="m617.71,202.66v1.19h.12v14.07c0,.38.17.74.46.91l8.88,5.74v.65h146.16V52.19h-146.16v.65l-8.88,5.77c-.29.18-.46.53-.46.91v14.21h-.12v1.2h-.32v127.73h.32Z"/>
        <path class="cls-47" d="m619.17,201.61v1.19h.12v14.07c0,.38.17.74.46.91l8.88,5.74v.65h146.16V51.14h-146.16v.65l-8.88,5.77c-.29.18-.46.53-.46.91v14.21h-.12v1.2h-.32v127.73h.32Z"/>
        <path class="cls-62" d="m620.62,200.56v1.19h.12v14.07c0,.38.17.74.46.91l8.88,5.74v.65h146.16V50.1h-146.16v.65l-8.88,5.77c-.29.18-.46.53-.46.91v14.21h-.12v1.2h-.32v127.73h.32Z"/>
        <path class="cls-14" d="m622.08,199.51v1.19h.13v14.07c0,.38.17.74.46.91l8.88,5.74v.65h146.16V49.05h-146.16v.65l-8.88,5.77c-.29.18-.46.53-.46.91v14.21h-.13v1.2h-.32v127.73h.32Z"/>
        <path class="cls-64" d="m623.53,198.47v1.19h.13v14.07c0,.38.17.74.46.91l8.88,5.74v.65h146.16V48h-146.16v.65l-8.88,5.77c-.29.18-.46.53-.46.91v14.21h-.13v1.2h-.32v127.73h.32Z"/>
        <path class="cls-63" d="m624.98,197.42v1.19h.13v14.07c0,.38.17.74.46.91l8.88,5.74v.65h146.16V46.95h-146.16v.65l-8.88,5.77c-.29.18-.46.53-.46.91v14.21h-.13v1.2h-.32v127.73h.32Z"/>
        <path class="cls-69" d="m626.44,196.37v1.19h.13v14.07c0,.38.17.74.46.91l8.88,5.74v.65h146.16V45.91h-146.16v.65l-8.88,5.77c-.29.18-.46.53-.46.91v14.21h-.13v1.2h-.32v127.73h.32Z"/>
        <path class="cls-13" d="m627.89,195.32v1.19h.13v14.07c0,.38.18.74.46.91l8.88,5.74v.65h146.16V44.86h-146.16v.65l-8.88,5.77c-.29.18-.46.53-.46.91v14.21h-.13v1.19h-.32v127.74h.32Z"/>
        <path class="cls-57" d="m629.34,194.27v1.19h.13v14.07c0,.38.18.74.46.91l8.88,5.74v.65h146.16V43.81h-146.16v.65l-8.88,5.77c-.29.18-.46.53-.46.91v14.21h-.13v1.19h-.32v127.74h.32Z"/>
        <path class="cls-59" d="m630.8,193.23v1.19h.13v14.07c0,.38.18.74.46.91l8.88,5.74v.65h146.16V42.76h-146.16v.65l-8.88,5.77c-.29.18-.46.53-.46.91v14.21h-.13v1.19h-.32v127.74h.32Z"/>
        <path class="cls-56" d="m632.25,192.18v1.19h.13v14.07c0,.38.18.74.46.91l8.88,5.74v.65h146.16V41.71h-146.16v.65l-8.88,5.77c-.29.18-.46.53-.46.91v14.21h-.13v1.19h-.32v127.74h.32Z"/>
        <path class="cls-54" d="m633.7,191.13v1.19h.13v14.07c0,.38.18.74.46.91l8.88,5.74v.65h146.16V40.67h-146.16v.65l-8.88,5.77c-.29.18-.46.53-.46.91v14.21h-.13v1.19h-.32v127.74h.32Z"/>
        <path class="cls-61" d="m635.16,190.08v1.19h.13v14.07c0,.38.18.74.46.91l8.88,5.74v.65h146.16V39.62h-146.16v.65l-8.88,5.77c-.29.18-.46.53-.46.91v14.21h-.13v1.19h-.32v127.74h.32Z"/>
        <path class="cls-67" d="m636.61,189.03v1.19h.13v14.07c0,.38.18.74.46.91l8.88,5.74v.65h146.16V38.57h-146.16v.65l-8.88,5.77c-.29.18-.46.53-.46.91v14.21h-.13v1.19h-.32v127.74h.32Z"/>
        <path class="cls-52" d="m638.07,187.99v1.19h.13v14.07c0,.38.18.74.46.91l8.88,5.74v.65h146.16V37.52h-146.16v.65l-8.88,5.77c-.29.18-.46.53-.46.91v14.21h-.13v1.19h-.32v127.74h.32Z"/>
        <path class="cls-58" d="m639.52,186.94v1.19h.13v14.07c0,.38.18.73.46.91l8.88,5.74v.65h146.16V36.47h-146.16v.65l-8.88,5.77c-.29.18-.46.53-.46.91v14.21h-.13v1.19h-.32v127.74h.32Z"/>
        <path class="cls-46" d="m640.97,185.89v1.19h.13v14.07c0,.38.18.73.46.91l8.88,5.74v.65h146.16V35.43h-146.16v.65l-8.88,5.77c-.29.18-.46.53-.46.91v14.21h-.13v1.19h-.32v127.74h.32Z"/>
        <path class="cls-65" d="m642.43,184.84v1.18h.13v14.07c0,.38.18.73.46.91l8.88,5.74v.65h146.16V34.38h-146.16v.65l-8.88,5.77c-.29.18-.46.53-.46.91v14.21h-.13v1.19h-.32v127.74h.32Z"/>
        <path class="cls-45" d="m643.88,183.8v1.18h.13v14.07c0,.38.18.73.46.91l8.88,5.74v.65h146.16V33.33h-146.16v.65l-8.88,5.77c-.29.18-.46.53-.46.91v14.21h-.13v1.19h-.32v127.74h.32Z"/>
        <path class="cls-53" d="m645.33,182.75v1.18h.13v14.07c0,.38.18.73.46.91l8.88,5.74v.65h146.16V32.28h-146.16v.65l-8.88,5.77c-.29.18-.46.53-.46.91v14.21h-.13v1.19h-.31v127.74h.31Z"/>
        <path class="cls-68" d="m646.79,181.7v1.18h.13v14.07c0,.38.18.73.46.91l8.88,5.74v.65h146.16V31.24h-146.16v.65l-8.88,5.77c-.29.18-.46.52-.46.91v14.21h-.13v1.19h-.31v127.74h.31Z"/>
      </g>
      <g>
        <g class="cls-50">
          <polygon class="cls-44" points="534.37 27.08 530.9 27.08 519.38 27.08 515.9 27.08 480.16 27.08 476.68 27.08 465.17 27.08 461.7 27.08 425.95 27.08 422.48 27.08 410.96 27.08 407.49 27.08 371.74 27.08 368.26 27.08 356.76 27.08 353.28 27.08 317.54 27.08 314.06 27.08 302.55 27.08 299.07 27.08 263.33 27.08 259.85 27.08 248.34 27.08 244.86 27.08 209.12 27.08 205.64 27.08 194.13 27.08 190.65 27.08 183.97 27.08 183.97 453.22 541.05 453.22 541.05 453.22 541.05 449.9 541.05 441.09 541.05 423.2 541.05 403.1 541.05 385.22 541.05 376.4 541.05 358.51 541.05 338.41 541.05 320.52 541.05 311.71 541.05 293.82 541.05 273.72 541.05 255.83 541.05 247.02 541.05 229.12 541.05 209.03 541.05 191.14 541.05 182.32 541.05 164.43 541.05 144.34 541.05 126.45 541.05 117.63 541.05 99.75 541.05 79.65 541.05 61.76 541.05 52.94 541.05 35.05 541.05 27.08 534.37 27.08"/>
          <polygon class="cls-70" points="537.01 25.83 533.54 25.83 522.02 25.83 518.54 25.83 482.8 25.83 479.32 25.83 467.81 25.83 464.34 25.83 428.59 25.83 425.12 25.83 413.6 25.83 410.13 25.83 374.38 25.83 370.91 25.83 359.4 25.83 355.92 25.83 320.18 25.83 316.7 25.83 305.19 25.83 301.72 25.83 265.97 25.83 262.49 25.83 250.98 25.83 247.5 25.83 211.76 25.83 208.29 25.83 196.77 25.83 193.3 25.83 186.62 25.83 186.62 451.97 543.69 451.97 543.69 451.97 543.69 448.65 543.69 439.84 543.69 421.95 543.69 401.85 543.69 383.97 543.69 375.15 543.69 357.26 543.69 337.16 543.69 319.27 543.69 310.46 543.69 292.57 543.69 272.47 543.69 254.58 543.69 245.77 543.69 227.87 543.69 207.78 543.69 189.89 543.69 181.07 543.69 163.18 543.69 143.09 543.69 125.2 543.69 116.38 543.69 98.5 543.69 78.4 543.69 60.51 543.69 51.69 543.69 33.8 543.69 25.83 537.01 25.83"/>
          <polygon class="cls-47" points="539.65 24.58 536.18 24.58 524.66 24.58 521.18 24.58 485.44 24.58 481.96 24.58 470.46 24.58 466.98 24.58 431.23 24.58 427.76 24.58 416.24 24.58 412.77 24.58 377.03 24.58 373.55 24.58 362.04 24.58 358.56 24.58 322.82 24.58 319.35 24.58 307.83 24.58 304.36 24.58 268.61 24.58 265.13 24.58 253.62 24.58 250.14 24.58 214.4 24.58 210.93 24.58 199.41 24.58 195.94 24.58 189.26 24.58 189.26 450.72 546.33 450.72 546.33 450.72 546.33 447.4 546.33 438.59 546.33 420.7 546.33 400.61 546.33 382.72 546.33 373.9 546.33 356.01 546.33 335.92 546.33 318.02 546.33 309.21 546.33 291.32 546.33 271.22 546.33 253.33 546.33 244.52 546.33 226.62 546.33 206.53 546.33 188.64 546.33 179.82 546.33 161.93 546.33 141.84 546.33 123.95 546.33 115.13 546.33 97.25 546.33 77.15 546.33 59.26 546.33 50.44 546.33 32.55 546.33 24.58 539.65 24.58"/>
          <polygon class="cls-62" points="542.29 23.33 538.82 23.33 527.3 23.33 523.83 23.33 488.09 23.33 484.6 23.33 473.1 23.33 469.62 23.33 433.87 23.33 430.4 23.33 418.88 23.33 415.41 23.33 379.67 23.33 376.19 23.33 364.68 23.33 361.2 23.33 325.46 23.33 321.99 23.33 310.47 23.33 307 23.33 271.25 23.33 267.77 23.33 256.26 23.33 252.78 23.33 217.04 23.33 213.57 23.33 202.05 23.33 198.58 23.33 191.9 23.33 191.9 449.47 548.97 449.47 548.97 449.47 548.97 446.15 548.97 437.34 548.97 419.45 548.97 399.36 548.97 381.47 548.97 372.65 548.97 354.76 548.97 334.67 548.97 316.77 548.97 307.96 548.97 290.07 548.97 269.97 548.97 252.08 548.97 243.27 548.97 225.37 548.97 205.28 548.97 187.39 548.97 178.57 548.97 160.68 548.97 140.59 548.97 122.7 548.97 113.88 548.97 96 548.97 75.9 548.97 58.01 548.97 49.19 548.97 31.3 548.97 23.33 542.29 23.33"/>
          <polygon class="cls-14" points="544.93 22.08 541.46 22.08 529.94 22.08 526.47 22.08 490.73 22.08 487.24 22.08 475.74 22.08 472.26 22.08 436.51 22.08 433.04 22.08 421.53 22.08 418.05 22.08 382.31 22.08 378.83 22.08 367.32 22.08 363.85 22.08 328.1 22.08 324.63 22.08 313.11 22.08 309.64 22.08 273.89 22.08 270.41 22.08 258.9 22.08 255.43 22.08 219.68 22.08 216.21 22.08 204.69 22.08 201.22 22.08 194.54 22.08 194.54 448.22 551.61 448.22 551.61 448.22 551.61 444.9 551.61 436.1 551.61 418.2 551.61 398.11 551.61 380.22 551.61 371.4 551.61 353.51 551.61 333.42 551.61 315.52 551.61 306.71 551.61 288.82 551.61 268.72 551.61 250.83 551.61 242.02 551.61 224.12 551.61 204.03 551.61 186.14 551.61 177.32 551.61 159.43 551.61 139.34 551.61 121.45 551.61 112.63 551.61 94.75 551.61 74.65 551.61 56.76 551.61 47.94 551.61 30.05 551.61 22.08 544.93 22.08"/>
          <polygon class="cls-64" points="547.57 20.83 544.1 20.83 532.59 20.83 529.11 20.83 493.37 20.83 489.89 20.83 478.38 20.83 474.9 20.83 439.16 20.83 435.68 20.83 424.17 20.83 420.69 20.83 384.95 20.83 381.47 20.83 369.97 20.83 366.49 20.83 330.74 20.83 327.27 20.83 315.75 20.83 312.28 20.83 276.53 20.83 273.06 20.83 261.55 20.83 258.07 20.83 222.32 20.83 218.85 20.83 207.33 20.83 203.86 20.83 197.18 20.83 197.18 446.97 554.26 446.97 554.26 446.97 554.26 443.65 554.26 434.85 554.26 416.95 554.26 396.86 554.26 378.97 554.26 370.15 554.26 352.26 554.26 332.17 554.26 314.27 554.26 305.46 554.26 287.57 554.26 267.47 554.26 249.58 554.26 240.77 554.26 222.87 554.26 202.78 554.26 184.89 554.26 176.07 554.26 158.18 554.26 138.09 554.26 120.2 554.26 111.38 554.26 93.5 554.26 73.4 554.26 55.51 554.26 46.69 554.26 28.8 554.26 20.83 547.57 20.83"/>
          <polygon class="cls-63" points="550.22 19.58 546.74 19.58 535.23 19.58 531.75 19.58 496.01 19.58 492.53 19.58 481.02 19.58 477.54 19.58 441.8 19.58 438.32 19.58 426.81 19.58 423.34 19.58 387.59 19.58 384.11 19.58 372.61 19.58 369.13 19.58 333.38 19.58 329.91 19.58 318.39 19.58 314.92 19.58 279.17 19.58 275.7 19.58 264.19 19.58 260.71 19.58 224.96 19.58 221.49 19.58 209.97 19.58 206.5 19.58 199.82 19.58 199.82 445.72 556.9 445.72 556.9 445.72 556.9 442.4 556.9 433.6 556.9 415.7 556.9 395.61 556.9 377.72 556.9 368.91 556.9 351.01 556.9 330.92 556.9 313.02 556.9 304.21 556.9 286.32 556.9 266.22 556.9 248.33 556.9 239.52 556.9 221.62 556.9 201.53 556.9 183.64 556.9 174.82 556.9 156.93 556.9 136.84 556.9 118.95 556.9 110.13 556.9 92.25 556.9 72.15 556.9 54.26 556.9 45.44 556.9 27.55 556.9 19.58 550.22 19.58"/>
          <polygon class="cls-69" points="552.86 18.33 549.38 18.33 537.87 18.33 534.39 18.33 498.65 18.33 495.17 18.33 483.66 18.33 480.18 18.33 444.44 18.33 440.97 18.33 429.45 18.33 425.98 18.33 390.23 18.33 386.75 18.33 375.25 18.33 371.77 18.33 336.02 18.33 332.55 18.33 321.03 18.33 317.56 18.33 281.81 18.33 278.34 18.33 266.83 18.33 263.35 18.33 227.6 18.33 224.13 18.33 212.61 18.33 209.14 18.33 202.46 18.33 202.46 444.47 559.54 444.47 559.54 444.47 559.54 441.15 559.54 432.35 559.54 414.45 559.54 394.36 559.54 376.47 559.54 367.66 559.54 349.76 559.54 329.67 559.54 311.77 559.54 302.96 559.54 285.07 559.54 264.97 559.54 247.08 559.54 238.27 559.54 220.38 559.54 200.28 559.54 182.39 559.54 173.57 559.54 155.68 559.54 135.59 559.54 117.7 559.54 108.88 559.54 91 559.54 70.9 559.54 53.01 559.54 44.19 559.54 26.3 559.54 18.33 552.86 18.33"/>
          <polygon class="cls-13" points="555.5 17.08 552.02 17.08 540.51 17.08 537.03 17.08 501.29 17.08 497.81 17.08 486.3 17.08 482.82 17.08 447.08 17.08 443.61 17.08 432.09 17.08 428.62 17.08 392.87 17.08 389.39 17.08 377.89 17.08 374.41 17.08 338.67 17.08 335.19 17.08 323.67 17.08 320.2 17.08 284.46 17.08 280.98 17.08 269.47 17.08 265.99 17.08 230.25 17.08 226.77 17.08 215.26 17.08 211.78 17.08 205.1 17.08 205.1 443.22 562.18 443.22 562.18 443.22 562.18 439.9 562.18 431.1 562.18 413.2 562.18 393.11 562.18 375.22 562.18 366.41 562.18 348.51 562.18 328.42 562.18 310.52 562.18 301.71 562.18 283.82 562.18 263.72 562.18 245.83 562.18 237.02 562.18 219.13 562.18 199.03 562.18 181.14 562.18 172.32 562.18 154.44 562.18 134.34 562.18 116.45 562.18 107.63 562.18 89.75 562.18 69.65 562.18 51.76 562.18 42.94 562.18 25.05 562.18 17.08 555.5 17.08"/>
          <polygon class="cls-57" points="558.14 15.83 554.67 15.83 543.15 15.83 539.67 15.83 503.93 15.83 500.45 15.83 488.94 15.83 485.47 15.83 449.72 15.83 446.25 15.83 434.73 15.83 431.26 15.83 395.51 15.83 392.04 15.83 380.53 15.83 377.05 15.83 341.31 15.83 337.83 15.83 326.32 15.83 322.84 15.83 287.1 15.83 283.62 15.83 272.11 15.83 268.63 15.83 232.89 15.83 229.41 15.83 217.9 15.83 214.42 15.83 207.74 15.83 207.74 441.97 564.82 441.97 564.82 441.97 564.82 438.66 564.82 429.85 564.82 411.95 564.82 391.86 564.82 373.97 564.82 365.16 564.82 347.26 564.82 327.17 564.82 309.27 564.82 300.46 564.82 282.57 564.82 262.47 564.82 244.58 564.82 235.77 564.82 217.88 564.82 197.78 564.82 179.89 564.82 171.07 564.82 153.19 564.82 133.09 564.82 115.2 564.82 106.38 564.82 88.5 564.82 68.4 564.82 50.51 564.82 41.69 564.82 23.81 564.82 15.83 558.14 15.83"/>
          <polygon class="cls-59" points="560.78 14.58 557.31 14.58 545.79 14.58 542.31 14.58 506.57 14.58 503.09 14.58 491.59 14.58 488.11 14.58 452.36 14.58 448.89 14.58 437.37 14.58 433.9 14.58 398.15 14.58 394.68 14.58 383.17 14.58 379.69 14.58 343.95 14.58 340.47 14.58 328.96 14.58 325.48 14.58 289.74 14.58 286.26 14.58 274.75 14.58 271.27 14.58 235.53 14.58 232.06 14.58 220.54 14.58 217.07 14.58 210.38 14.58 210.38 440.72 567.46 440.72 567.46 440.72 567.46 437.41 567.46 428.6 567.46 410.7 567.46 390.61 567.46 372.72 567.46 363.91 567.46 346.01 567.46 325.92 567.46 308.03 567.46 299.21 567.46 281.32 567.46 261.22 567.46 243.33 567.46 234.52 567.46 216.63 567.46 196.53 567.46 178.64 567.46 169.82 567.46 151.94 567.46 131.84 567.46 113.95 567.46 105.13 567.46 87.25 567.46 67.15 567.46 49.26 567.46 40.44 567.46 22.56 567.46 14.58 560.78 14.58"/>
          <polygon class="cls-56" points="563.42 13.33 559.95 13.33 548.43 13.33 544.96 13.33 509.21 13.33 505.73 13.33 494.23 13.33 490.75 13.33 455 13.33 451.53 13.33 440.01 13.33 436.54 13.33 400.8 13.33 397.32 13.33 385.81 13.33 382.33 13.33 346.59 13.33 343.11 13.33 331.6 13.33 328.12 13.33 292.38 13.33 288.9 13.33 277.39 13.33 273.91 13.33 238.17 13.33 234.7 13.33 223.18 13.33 219.71 13.33 213.02 13.33 213.02 439.47 570.1 439.47 570.1 439.47 570.1 436.16 570.1 427.35 570.1 409.45 570.1 389.36 570.1 371.47 570.1 362.66 570.1 344.76 570.1 324.67 570.1 306.78 570.1 297.96 570.1 280.07 570.1 259.97 570.1 242.09 570.1 233.27 570.1 215.38 570.1 195.28 570.1 177.4 570.1 168.58 570.1 150.69 570.1 130.59 570.1 112.7 570.1 103.89 570.1 86 570.1 65.9 570.1 48.01 570.1 39.19 570.1 21.31 570.1 13.33 563.42 13.33"/>
          <polygon class="cls-54" points="566.06 12.08 562.59 12.08 551.07 12.08 547.6 12.08 511.85 12.08 508.37 12.08 496.87 12.08 493.39 12.08 457.64 12.08 454.17 12.08 442.65 12.08 439.18 12.08 403.44 12.08 399.96 12.08 388.45 12.08 384.97 12.08 349.23 12.08 345.75 12.08 334.24 12.08 330.76 12.08 295.02 12.08 291.54 12.08 280.03 12.08 276.56 12.08 240.81 12.08 237.34 12.08 225.82 12.08 222.35 12.08 215.66 12.08 215.66 438.22 572.74 438.22 572.74 438.22 572.74 434.91 572.74 426.1 572.74 408.2 572.74 388.11 572.74 370.22 572.74 361.41 572.74 343.51 572.74 323.42 572.74 305.53 572.74 296.71 572.74 278.82 572.74 258.72 572.74 240.84 572.74 232.02 572.74 214.13 572.74 194.03 572.74 176.15 572.74 167.33 572.74 149.44 572.74 129.34 572.74 111.45 572.74 102.64 572.74 84.75 572.74 64.65 572.74 46.76 572.74 37.95 572.74 20.06 572.74 12.08 566.06 12.08"/>
          <polygon class="cls-61" points="568.7 10.83 565.23 10.83 553.71 10.83 550.24 10.83 514.49 10.83 511.01 10.83 499.51 10.83 496.03 10.83 460.29 10.83 456.81 10.83 445.3 10.83 441.82 10.83 406.08 10.83 402.6 10.83 391.09 10.83 387.61 10.83 351.87 10.83 348.39 10.83 336.88 10.83 333.41 10.83 297.66 10.83 294.18 10.83 282.67 10.83 279.2 10.83 243.45 10.83 239.98 10.83 228.46 10.83 224.99 10.83 218.31 10.83 218.31 436.97 575.38 436.97 575.38 436.97 575.38 433.66 575.38 424.85 575.38 406.95 575.38 386.86 575.38 368.97 575.38 360.16 575.38 342.26 575.38 322.17 575.38 304.28 575.38 295.46 575.38 277.57 575.38 257.47 575.38 239.59 575.38 230.77 575.38 212.88 575.38 192.78 575.38 174.9 575.38 166.08 575.38 148.19 575.38 128.09 575.38 110.2 575.38 101.39 575.38 83.5 575.38 63.4 575.38 45.52 575.38 36.7 575.38 18.81 575.38 10.83 568.7 10.83"/>
          <polygon class="cls-67" points="571.34 9.58 567.87 9.58 556.35 9.58 552.88 9.58 517.14 9.58 513.66 9.58 502.15 9.58 498.67 9.58 462.93 9.58 459.45 9.58 447.94 9.58 444.46 9.58 408.72 9.58 405.24 9.58 393.74 9.58 390.25 9.58 354.51 9.58 351.04 9.58 339.52 9.58 336.05 9.58 300.3 9.58 296.82 9.58 285.32 9.58 281.84 9.58 246.09 9.58 242.62 9.58 231.1 9.58 227.63 9.58 220.95 9.58 220.95 435.72 578.03 435.72 578.03 435.72 578.03 432.41 578.03 423.6 578.03 405.7 578.03 385.61 578.03 367.72 578.03 358.91 578.03 341.01 578.03 320.92 578.03 303.03 578.03 294.22 578.03 276.32 578.03 256.23 578.03 238.34 578.03 229.52 578.03 211.63 578.03 191.54 578.03 173.65 578.03 164.83 578.03 146.94 578.03 126.84 578.03 108.95 578.03 100.14 578.03 82.25 578.03 62.15 578.03 44.27 578.03 35.45 578.03 17.56 578.03 9.58 571.34 9.58"/>
          <polygon class="cls-52" points="573.98 8.33 570.51 8.33 558.99 8.33 555.52 8.33 519.78 8.33 516.3 8.33 504.79 8.33 501.31 8.33 465.57 8.33 462.09 8.33 450.58 8.33 447.11 8.33 411.36 8.33 407.88 8.33 396.38 8.33 392.89 8.33 357.15 8.33 353.68 8.33 342.16 8.33 338.69 8.33 302.94 8.33 299.46 8.33 287.96 8.33 284.48 8.33 248.73 8.33 245.26 8.33 233.74 8.33 230.27 8.33 223.59 8.33 223.59 434.47 580.67 434.47 580.67 434.47 580.67 431.16 580.67 422.35 580.67 404.45 580.67 384.36 580.67 366.47 580.67 357.66 580.67 339.76 580.67 319.67 580.67 301.78 580.67 292.97 580.67 275.07 580.67 254.98 580.67 237.09 580.67 228.27 580.67 210.38 580.67 190.29 580.67 172.4 580.67 163.58 580.67 145.69 580.67 125.6 580.67 107.7 580.67 98.89 580.67 81 580.67 60.9 580.67 43.02 580.67 34.2 580.67 16.31 580.67 8.33 573.98 8.33"/>
          <polygon class="cls-58" points="576.62 7.08 573.15 7.08 561.63 7.08 558.16 7.08 522.42 7.08 518.94 7.08 507.43 7.08 503.95 7.08 468.21 7.08 464.74 7.08 453.22 7.08 449.75 7.08 414 7.08 410.52 7.08 399.02 7.08 395.54 7.08 359.79 7.08 356.32 7.08 344.8 7.08 341.33 7.08 305.58 7.08 302.1 7.08 290.6 7.08 287.12 7.08 251.37 7.08 247.9 7.08 236.39 7.08 232.91 7.08 226.23 7.08 226.23 433.22 583.31 433.22 583.31 433.22 583.31 429.91 583.31 421.1 583.31 403.2 583.31 383.11 583.31 365.22 583.31 356.41 583.31 338.51 583.31 318.42 583.31 300.53 583.31 291.72 583.31 273.82 583.31 253.73 583.31 235.84 583.31 227.02 583.31 209.13 583.31 189.04 583.31 171.15 583.31 162.33 583.31 144.44 583.31 124.35 583.31 106.45 583.31 97.64 583.31 79.75 583.31 59.65 583.31 41.77 583.31 32.95 583.31 15.06 583.31 7.08 576.62 7.08"/>
          <polygon class="cls-46" points="579.26 5.83 575.79 5.83 564.28 5.83 560.8 5.83 525.06 5.83 521.58 5.83 510.07 5.83 506.6 5.83 470.85 5.83 467.38 5.83 455.86 5.83 452.39 5.83 416.64 5.83 413.16 5.83 401.66 5.83 398.18 5.83 362.44 5.83 358.96 5.83 347.44 5.83 343.97 5.83 308.22 5.83 304.75 5.83 293.24 5.83 289.76 5.83 254.02 5.83 250.54 5.83 239.03 5.83 235.55 5.83 228.87 5.83 228.87 431.97 585.95 431.97 585.95 431.97 585.95 428.66 585.95 419.85 585.95 401.95 585.95 381.87 585.95 363.97 585.95 355.16 585.95 337.26 585.95 317.17 585.95 299.28 585.95 290.47 585.95 272.57 585.95 252.48 585.95 234.59 585.95 225.77 585.95 207.88 585.95 187.79 585.95 169.9 585.95 161.08 585.95 143.19 585.95 123.1 585.95 105.2 585.95 96.39 585.95 78.5 585.95 58.4 585.95 40.52 585.95 31.7 585.95 13.81 585.95 5.83 579.26 5.83"/>
          <polygon class="cls-65" points="581.91 4.58 578.43 4.58 566.92 4.58 563.44 4.58 527.7 4.58 524.22 4.58 512.71 4.58 509.24 4.58 473.49 4.58 470.02 4.58 458.5 4.58 455.03 4.58 419.28 4.58 415.81 4.58 404.3 4.58 400.82 4.58 365.08 4.58 361.6 4.58 350.08 4.58 346.61 4.58 310.86 4.58 307.39 4.58 295.88 4.58 292.4 4.58 256.66 4.58 253.18 4.58 241.67 4.58 238.2 4.58 231.51 4.58 231.51 430.72 588.59 430.72 588.59 430.72 588.59 427.41 588.59 418.6 588.59 400.7 588.59 380.62 588.59 362.72 588.59 353.91 588.59 336.01 588.59 315.93 588.59 298.03 588.59 289.22 588.59 271.32 588.59 251.23 588.59 233.34 588.59 224.52 588.59 206.63 588.59 186.54 588.59 168.65 588.59 159.83 588.59 141.94 588.59 121.85 588.59 103.95 588.59 95.14 588.59 77.25 588.59 57.15 588.59 39.27 588.59 30.45 588.59 12.56 588.59 4.58 581.91 4.58"/>
          <polygon class="cls-45" points="584.55 3.33 581.07 3.33 569.56 3.33 566.08 3.33 530.34 3.33 526.86 3.33 515.36 3.33 511.88 3.33 476.13 3.33 472.66 3.33 461.14 3.33 457.67 3.33 421.92 3.33 418.45 3.33 406.94 3.33 403.46 3.33 367.72 3.33 364.24 3.33 352.72 3.33 349.25 3.33 313.51 3.33 310.03 3.33 298.52 3.33 295.04 3.33 259.3 3.33 255.83 3.33 244.31 3.33 240.84 3.33 234.15 3.33 234.15 429.47 591.23 429.47 591.23 429.47 591.23 426.16 591.23 417.35 591.23 399.45 591.23 379.37 591.23 361.47 591.23 352.66 591.23 334.76 591.23 314.68 591.23 296.78 591.23 287.97 591.23 270.07 591.23 249.98 591.23 232.09 591.23 223.27 591.23 205.38 591.23 185.29 591.23 167.4 591.23 158.58 591.23 140.69 591.23 120.6 591.23 102.7 591.23 93.89 591.23 76 591.23 55.9 591.23 38.02 591.23 29.2 591.23 11.31 591.23 3.33 584.55 3.33"/>
          <polygon class="cls-53" points="587.19 2.08 583.72 2.08 572.2 2.08 568.73 2.08 532.98 2.08 529.5 2.08 518 2.08 514.52 2.08 478.77 2.08 475.3 2.08 463.78 2.08 460.31 2.08 424.57 2.08 421.09 2.08 409.58 2.08 406.1 2.08 370.36 2.08 366.88 2.08 355.36 2.08 351.89 2.08 316.15 2.08 312.67 2.08 301.16 2.08 297.68 2.08 261.94 2.08 258.47 2.08 246.95 2.08 243.48 2.08 236.79 2.08 236.79 428.22 593.87 428.22 593.87 428.22 593.87 424.91 593.87 416.1 593.87 398.21 593.87 378.12 593.87 360.22 593.87 351.41 593.87 333.51 593.87 313.43 593.87 295.53 593.87 286.72 593.87 268.82 593.87 248.73 593.87 230.84 593.87 222.02 593.87 204.13 593.87 184.04 593.87 166.15 593.87 157.33 593.87 139.44 593.87 119.35 593.87 101.45 593.87 92.64 593.87 74.75 593.87 54.65 593.87 36.77 593.87 27.95 593.87 10.06 593.87 2.08 587.19 2.08"/>
          <polygon class="cls-68" points="589.83 .83 586.36 .83 574.84 .83 571.37 .83 535.62 .83 532.14 .83 520.64 .83 517.16 .83 481.42 .83 477.94 .83 466.43 .83 462.95 .83 427.21 .83 423.73 .83 412.22 .83 408.74 .83 373 .83 369.52 .83 358.01 .83 354.53 .83 318.79 .83 315.31 .83 303.8 .83 300.33 .83 264.58 .83 261.11 .83 249.59 .83 246.12 .83 239.43 .83 239.43 426.97 596.51 426.97 596.51 426.97 596.51 423.66 596.51 414.85 596.51 396.96 596.51 376.87 596.51 358.97 596.51 350.16 596.51 332.27 596.51 312.18 596.51 294.28 596.51 285.47 596.51 267.57 596.51 247.48 596.51 229.59 596.51 220.77 596.51 202.88 596.51 182.79 596.51 164.9 596.51 156.08 596.51 138.19 596.51 118.1 596.51 100.2 596.51 91.39 596.51 73.5 596.51 53.4 596.51 35.52 596.51 26.7 596.51 8.81 596.51 .83 589.83 .83"/>
        </g>
        <g>
          <rect class="cls-66" x="239.43" y=".83" width="357.08" height="426.14"/>
          <g class="cls-50">
            <polygon class="cls-71" points="239.43 426.97 242.21 426.97 239.43 423.66 239.43 426.97"/>
            <polygon class="cls-71" points="239.43 376.87 281.42 426.97 296.42 426.97 239.43 358.97 239.43 376.87"/>
            <polygon class="cls-71" points="239.43 312.18 335.63 426.97 350.63 426.97 239.43 294.28 239.43 312.18"/>
            <polygon class="cls-71" points="239.43 247.48 389.84 426.97 404.83 426.97 239.43 229.59 239.43 247.48"/>
            <polygon class="cls-71" points="239.43 182.79 444.05 426.97 459.04 426.97 239.43 164.9 239.43 182.79"/>
            <polygon class="cls-71" points="239.43 118.1 498.25 426.97 513.25 426.97 239.43 100.2 239.43 118.1"/>
            <polygon class="cls-71" points="239.43 53.4 552.47 426.97 567.46 426.97 239.43 35.52 239.43 53.4"/>
            <polygon class="cls-71" points="249.59 .83 596.51 414.85 596.51 396.96 264.58 .83 249.59 .83"/>
            <polygon class="cls-71" points="303.8 .83 596.51 350.16 596.51 332.27 318.79 .83 303.8 .83"/>
            <polygon class="cls-71" points="358.01 .83 596.51 285.47 596.51 267.57 373 .83 358.01 .83"/>
            <polygon class="cls-71" points="412.22 .83 596.51 220.77 596.51 202.88 427.21 .83 412.22 .83"/>
            <polygon class="cls-71" points="466.43 .83 596.51 156.08 596.51 138.19 481.42 .83 466.43 .83"/>
            <polygon class="cls-71" points="520.64 .83 596.51 91.39 596.51 73.5 535.62 .83 520.64 .83"/>
            <polygon class="cls-71" points="596.51 8.81 589.83 .83 574.84 .83 596.51 26.7 596.51 8.81"/>
          </g>
          <g class="cls-50">
            <polygon class="cls-71" points="596.51 426.97 593.74 426.97 596.51 423.66 596.51 426.97"/>
            <polygon class="cls-71" points="596.51 376.87 554.53 426.97 539.53 426.97 596.51 358.97 596.51 376.87"/>
            <polygon class="cls-71" points="596.51 312.18 500.32 426.97 485.32 426.97 596.51 294.28 596.51 312.18"/>
            <polygon class="cls-71" points="596.51 247.48 446.11 426.97 431.11 426.97 596.51 229.59 596.51 247.48"/>
            <polygon class="cls-71" points="596.51 182.79 391.9 426.97 376.91 426.97 596.51 164.9 596.51 182.79"/>
            <polygon class="cls-71" points="596.51 118.1 337.69 426.97 322.7 426.97 596.51 100.2 596.51 118.1"/>
            <polygon class="cls-71" points="596.51 53.4 283.49 426.97 268.49 426.97 596.51 35.52 596.51 53.4"/>
            <polygon class="cls-71" points="586.36 .83 239.43 414.85 239.43 396.96 571.37 .83 586.36 .83"/>
            <polygon class="cls-71" points="532.14 .83 239.43 350.16 239.43 332.27 517.16 .83 532.14 .83"/>
            <polygon class="cls-71" points="477.94 .83 239.43 285.47 239.43 267.57 462.95 .83 477.94 .83"/>
            <polygon class="cls-71" points="423.73 .83 239.43 220.77 239.43 202.88 408.74 .83 423.73 .83"/>
            <polygon class="cls-71" points="369.52 .83 239.43 156.08 239.43 138.19 354.53 .83 369.52 .83"/>
            <polygon class="cls-71" points="315.31 .83 239.43 91.39 239.43 73.5 300.33 .83 315.31 .83"/>
            <polygon class="cls-71" points="239.43 8.81 246.12 .83 261.11 .83 239.43 26.7 239.43 8.81"/>
          </g>
        </g>
        <rect class="cls-28" x="239.43" y=".83" width="357.08" height="426.14"/>
        <rect class="cls-48" x="238.73" width="358.49" height="427.81"/>
      </g>
      <g>
        <g class="cls-50">
          <path class="cls-44" d="m155.62,68.99v-1.18h-.12v-14.07c0-.38-.18-.74-.46-.91l-8.88-5.75v-.65H0v173.03h146.16v-.65l8.88-5.77c.28-.18.46-.53.46-.91v-14.21h.12v-1.19h.32v-127.74h-.32Z"/>
          <path class="cls-70" d="m157.13,68.29v-1.18h-.12v-14.07c0-.38-.18-.74-.46-.91l-8.88-5.75v-.65H1.5v173.03h146.16v-.65l8.88-5.77c.28-.18.46-.53.46-.91v-14.21h.12v-1.19h.32v-127.74h-.32Z"/>
          <path class="cls-47" d="m158.63,67.59v-1.18h-.12v-14.07c0-.38-.18-.74-.46-.91l-8.88-5.75v-.65H3v173.03h146.16v-.65l8.88-5.77c.28-.18.46-.53.46-.91v-14.21h.12v-1.19h.32v-127.74h-.32Z"/>
          <path class="cls-62" d="m160.13,66.9v-1.18h-.12v-14.07c0-.38-.18-.74-.46-.91l-8.88-5.75v-.65H4.5v173.03h146.16v-.65l8.88-5.77c.28-.18.46-.53.46-.91v-14.21h.12v-1.19h.32v-127.74h-.32Z"/>
          <path class="cls-14" d="m161.63,66.2v-1.19h-.12v-14.07c0-.38-.18-.74-.46-.91l-8.88-5.75v-.65H6v173.03h146.16v-.65l8.88-5.77c.28-.18.46-.53.46-.91v-14.21h.12v-1.19h.32v-127.74h-.32Z"/>
          <path class="cls-64" d="m163.13,65.5v-1.19h-.12v-14.07c0-.38-.18-.74-.46-.91l-8.88-5.75v-.65H7.5v173.03h146.16v-.65l8.88-5.77c.28-.18.46-.53.46-.91v-14.21h.12v-1.19h.32v-127.74h-.32Z"/>
          <path class="cls-63" d="m164.63,64.8v-1.19h-.12v-14.07c0-.38-.18-.74-.46-.91l-8.88-5.75v-.65H9v173.03h146.16v-.65l8.88-5.77c.28-.18.46-.53.46-.91v-14.21h.12v-1.19h.32v-127.74h-.32Z"/>
          <path class="cls-69" d="m166.13,64.11v-1.19h-.12v-14.07c0-.38-.18-.74-.46-.91l-8.88-5.75v-.65H10.5v173.03h146.16v-.65l8.88-5.77c.28-.18.46-.53.46-.91v-14.21h.12v-1.19h.32v-127.74h-.32Z"/>
          <path class="cls-13" d="m167.63,63.41v-1.19h-.12v-14.07c0-.38-.18-.74-.46-.91l-8.88-5.75v-.65H12v173.03h146.16v-.65l8.88-5.77c.28-.18.46-.53.46-.91v-14.21h.12v-1.19h.32V63.41h-.32Z"/>
          <path class="cls-57" d="m169.13,62.71v-1.19h-.12v-14.07c0-.38-.18-.74-.46-.91l-8.88-5.75v-.65H13.51v173.03h146.16v-.65l8.88-5.77c.28-.18.46-.53.46-.91v-14.21h.12v-1.19h.32V62.71h-.32Z"/>
          <path class="cls-59" d="m170.63,62.01v-1.19h-.12v-14.07c0-.38-.18-.74-.46-.91l-8.88-5.75v-.65H15.01v173.03h146.16v-.65l8.88-5.77c.28-.18.46-.53.46-.91v-14.21h.12v-1.19h.32V62.01h-.32Z"/>
          <path class="cls-56" d="m172.13,61.31v-1.19h-.12v-14.07c0-.38-.18-.74-.46-.91l-8.88-5.75v-.65H16.51v173.03h146.16v-.65l8.88-5.77c.28-.18.46-.53.46-.91v-14.21h.12v-1.19h.32V61.31h-.32Z"/>
          <path class="cls-54" d="m173.63,60.62v-1.19h-.12v-14.07c0-.38-.18-.74-.46-.91l-8.88-5.75v-.65H18.01v173.03h146.16v-.65l8.88-5.77c.29-.18.46-.53.46-.91v-14.21h.12v-1.19h.32V60.62h-.32Z"/>
          <path class="cls-61" d="m175.13,59.92v-1.19h-.12v-14.07c0-.38-.18-.74-.46-.91l-8.88-5.75v-.65H19.51v173.03h146.16v-.65l8.88-5.77c.29-.18.46-.53.46-.91v-14.21h.12v-1.19h.32V59.92h-.32Z"/>
          <path class="cls-67" d="m176.63,59.22v-1.19h-.12v-14.07c0-.38-.18-.74-.46-.91l-8.88-5.75v-.65H21.01v173.03h146.16v-.65l8.88-5.77c.29-.18.46-.53.46-.91v-14.21h.12v-1.2h.32V59.22h-.32Z"/>
          <path class="cls-52" d="m178.13,58.52v-1.19h-.12v-14.07c0-.38-.18-.74-.46-.91l-8.88-5.75v-.65H22.51v173.03h146.16v-.65l8.88-5.77c.29-.18.46-.53.46-.91v-14.21h.12v-1.2h.32V58.52h-.32Z"/>
          <path class="cls-58" d="m179.63,57.83v-1.19h-.12v-14.07c0-.38-.18-.74-.46-.91l-8.88-5.75v-.65H24.01v173.03h146.16v-.65l8.88-5.77c.29-.18.46-.53.46-.91v-14.21h.12v-1.2h.32V57.83h-.32Z"/>
          <path class="cls-46" d="m181.13,57.13v-1.19h-.12v-14.07c0-.38-.18-.74-.46-.91l-8.88-5.75v-.65H25.51v173.03h146.16v-.65l8.88-5.77c.29-.18.46-.53.46-.91v-14.21h.12v-1.2h.32V57.13h-.32Z"/>
          <path class="cls-65" d="m182.64,56.43v-1.19h-.12v-14.07c0-.38-.18-.74-.46-.91l-8.88-5.75v-.65H27.01v173.03h146.16v-.65l8.88-5.77c.29-.18.46-.53.46-.91v-14.21h.12v-1.2h.32V56.43h-.32Z"/>
          <path class="cls-45" d="m184.14,55.73v-1.19h-.12v-14.07c0-.38-.18-.74-.46-.91l-8.88-5.75v-.65H28.51v173.03h146.16v-.65l8.88-5.77c.29-.18.46-.53.46-.91v-14.21h.12v-1.2h.32V55.73h-.32Z"/>
          <path class="cls-53" d="m185.64,55.03v-1.19h-.12v-14.07c0-.38-.18-.74-.46-.91l-8.88-5.75v-.65H30.01v173.03h146.16v-.65l8.88-5.77c.29-.18.46-.53.46-.91v-14.21h.12v-1.2h.32V55.03h-.32Z"/>
          <path class="cls-68" d="m187.14,54.34v-1.19h-.12v-14.07c0-.38-.17-.74-.46-.91l-8.88-5.75v-.65H31.51v173.03h146.16v-.65l8.88-5.77c.29-.18.46-.53.46-.91v-14.21h.12v-1.2h.32V54.34h-.32Z"/>
        </g>
        <g>
          <rect class="cls-60" x="66.55" y="53.15" width="11.28" height="127.74"/>
          <rect class="cls-60" x="88.28" y="53.15" width="11.28" height="127.74"/>
          <rect class="cls-60" x="110" y="53.15" width="11.28" height="127.74"/>
          <rect class="cls-60" x="131.73" y="53.15" width="11.28" height="127.74"/>
          <rect class="cls-60" x="153.45" y="53.15" width="11.28" height="127.74"/>
          <rect class="cls-60" x="175.18" y="53.15" width="11.28" height="127.74"/>
          <g>
            <rect class="cls-42" x="66.55" y="53.15" width="118.59" height="18.57"/>
            <rect class="cls-16" x="66.55" y="107.72" width="118.59" height="18.58"/>
            <rect class="cls-39" x="66.55" y="80.44" width="118.59" height="18.57"/>
            <rect class="cls-21" x="66.55" y="135" width="118.59" height="18.59"/>
            <rect class="cls-40" x="66.55" y="162.29" width="118.59" height="18.59"/>
          </g>
          <polygon class="cls-4" points="175.68 31.77 185.15 37.89 185.15 53.99 175.68 47.87 175.68 31.77"/>
          <polygon class="cls-55" points="175.68 47.87 31.51 47.87 41.5 53.32 184.36 53.32 175.68 47.87"/>
          <polygon class="cls-6" points="175.68 202.43 185.15 196.29 185.15 180.2 175.68 186.33 175.68 202.43"/>
          <polygon class="cls-55" points="175.68 186.33 31.51 186.33 41.49 180.89 184.36 180.89 175.68 186.33"/>
          <polygon class="cls-12" points="66.55 71.72 66.55 53.15 50.87 53.15 50.87 46.67 45 46.67 45 53.15 44.99 53.15 44.99 71.72 45 71.72 45 80.44 44.99 80.44 44.99 99.01 45 99.01 45 107.72 44.99 107.72 44.99 126.3 45 126.3 45 135 44.99 135 44.99 153.59 45 153.59 45 162.29 44.99 162.29 44.99 180.89 45 180.89 45 187.35 50.87 187.35 50.87 180.89 66.55 180.89 66.55 162.29 50.87 162.29 50.87 153.59 66.55 153.59 66.55 135 50.87 135 50.87 126.3 66.55 126.3 66.55 107.72 50.87 107.72 50.87 99.01 66.55 99.01 66.55 80.44 50.87 80.44 50.87 71.72 66.55 71.72"/>
          <polygon class="cls-36" points="175.68 47.87 175.68 31.77 31.51 31.77 31.51 46.67 31.51 47.87 31.51 186.33 31.51 187.35 31.51 202.43 175.68 202.43 175.68 186.33 45 186.33 45 47.87 175.68 47.87"/>
          <path class="cls-49" d="m186.46,53.15h-.32v-1.19h-.12v-14.06c0-.38-.17-.74-.46-.91l-8.88-5.75v-.65H30.52v173.03h146.16v-.65l8.89-5.77c.28-.17.45-.53.45-.91v-14.21h.12v-1.19h.32V53.15Zm-120.9,107.95v.15h-13.82v-6.62h13.82v.15h.99v6.32h-.99Zm0-27.29v.15h-13.82v-6.63h13.82v.15h.99v6.32h-.99Zm0-27.27v.15h-13.82v-6.63h13.82v.15h.99v6.34h-.99Zm0-27.29v.15h-13.82v-6.64h13.82v.15h.99v6.34h-.99Zm12.27,81.85v-6.32h10.45v6.32h-10.45Zm0-27.29v-6.32h10.45v6.32h-10.45Zm0-27.27v-6.34h10.45v6.34h-10.45Zm0-27.29v-6.34h10.45v6.34h-10.45Zm21.73,81.85v-6.32h10.45v6.32h-10.45Zm0-27.29v-6.32h10.45v6.32h-10.45Zm0-27.27v-6.34h10.45v6.34h-10.45Zm0-27.29v-6.34h10.45v6.34h-10.45Zm21.73,81.85v-6.32h10.45v6.32h-10.45Zm0-27.29v-6.32h10.45v6.32h-10.45Zm0-27.27v-6.34h10.45v6.34h-10.45Zm0-27.29v-6.34h10.45v6.34h-10.45Zm21.73,81.85v-6.32h10.45v6.32h-10.45Zm0-27.29v-6.32h10.45v6.32h-10.45Zm0-27.27v-6.34h10.45v6.34h-10.45Zm0-27.29v-6.34h10.45v6.34h-10.45Zm21.73,81.85v-6.32h10.45v6.32h-10.45Zm0-27.29v-6.32h10.45v6.32h-10.45Zm0-27.27v-6.34h10.45v6.34h-10.45Zm0-27.29v-6.34h10.45v6.34h-10.45Z"/>
          <path class="cls-29" d="m175.68,133.75c0,20.9-14.19,37.83-31.71,37.83h-34.3c-17.51,0-31.71-16.94-31.71-37.83v-33.48c0-20.9,14.2-37.83,31.71-37.83h34.3c17.51,0,31.71,16.94,31.71,37.83v33.48Z"/>
          <path class="cls-48" d="m143.98,61.25h-34.3c-18.03,0-32.7,17.5-32.7,39.03v33.48c0,21.52,14.67,39.02,32.7,39.02h34.3c18.03,0,32.7-17.5,32.7-39.02v-33.48c0-21.52-14.67-39.03-32.7-39.03Z"/>
        </g>
      </g>
      <g>
        <g class="cls-50">
          <path class="cls-44" d="m155.62,278.75v-1.18h-.12v-14.07c0-.38-.18-.74-.46-.91l-8.88-5.75v-.65H0v173.03h146.16v-.65l8.88-5.77c.28-.18.46-.53.46-.91v-14.21h.12v-1.19h.32v-127.74h-.32Z"/>
          <path class="cls-70" d="m157.13,278.05v-1.18h-.12v-14.07c0-.38-.18-.74-.46-.91l-8.88-5.75v-.65H1.5v173.03h146.16v-.65l8.88-5.77c.28-.18.46-.53.46-.91v-14.21h.12v-1.19h.32v-127.74h-.32Z"/>
          <path class="cls-47" d="m158.63,277.35v-1.18h-.12v-14.07c0-.38-.18-.74-.46-.91l-8.88-5.75v-.65H3v173.03h146.16v-.65l8.88-5.77c.28-.18.46-.53.46-.91v-14.21h.12v-1.19h.32v-127.74h-.32Z"/>
          <path class="cls-62" d="m160.13,276.66v-1.18h-.12v-14.07c0-.38-.18-.74-.46-.91l-8.88-5.75v-.65H4.5v173.03h146.16v-.65l8.88-5.77c.28-.18.46-.53.46-.91v-14.21h.12v-1.19h.32v-127.74h-.32Z"/>
          <path class="cls-14" d="m161.63,275.96v-1.19h-.12v-14.07c0-.38-.18-.74-.46-.91l-8.88-5.75v-.65H6v173.03h146.16v-.65l8.88-5.77c.28-.18.46-.53.46-.91v-14.21h.12v-1.19h.32v-127.74h-.32Z"/>
          <path class="cls-64" d="m163.13,275.26v-1.19h-.12v-14.07c0-.38-.18-.74-.46-.91l-8.88-5.75v-.65H7.5v173.03h146.16v-.65l8.88-5.77c.28-.18.46-.53.46-.91v-14.21h.12v-1.19h.32v-127.74h-.32Z"/>
          <path class="cls-63" d="m164.63,274.56v-1.19h-.12v-14.07c0-.38-.18-.74-.46-.91l-8.88-5.75v-.65H9v173.03h146.16v-.65l8.88-5.77c.28-.18.46-.53.46-.91v-14.21h.12v-1.19h.32v-127.74h-.32Z"/>
          <path class="cls-69" d="m166.13,273.86v-1.19h-.12v-14.07c0-.38-.18-.74-.46-.91l-8.88-5.75v-.65H10.5v173.03h146.16v-.65l8.88-5.77c.28-.18.46-.53.46-.91v-14.21h.12v-1.19h.32v-127.74h-.32Z"/>
          <path class="cls-13" d="m167.63,273.17v-1.19h-.12v-14.07c0-.38-.18-.74-.46-.91l-8.88-5.75v-.65H12v173.03h146.16v-.65l8.88-5.77c.28-.18.46-.53.46-.91v-14.21h.12v-1.19h.32v-127.74h-.32Z"/>
          <path class="cls-57" d="m169.13,272.47v-1.19h-.12v-14.07c0-.38-.18-.74-.46-.91l-8.88-5.75v-.65H13.51v173.03h146.16v-.65l8.88-5.77c.28-.18.46-.53.46-.91v-14.21h.12v-1.19h.32v-127.74h-.32Z"/>
          <path class="cls-59" d="m170.63,271.77v-1.19h-.12v-14.07c0-.38-.18-.74-.46-.91l-8.88-5.75v-.65H15.01v173.03h146.16v-.65l8.88-5.77c.28-.18.46-.53.46-.91v-14.21h.12v-1.19h.32v-127.74h-.32Z"/>
          <path class="cls-56" d="m172.13,271.07v-1.19h-.12v-14.07c0-.38-.18-.74-.46-.91l-8.88-5.75v-.65H16.51v173.03h146.16v-.65l8.88-5.77c.28-.18.46-.53.46-.91v-14.21h.12v-1.19h.32v-127.74h-.32Z"/>
          <path class="cls-54" d="m173.63,270.38v-1.19h-.12v-14.07c0-.38-.18-.74-.46-.91l-8.88-5.75v-.65H18.01v173.03h146.16v-.65l8.88-5.77c.29-.18.46-.53.46-.91v-14.21h.12v-1.19h.32v-127.74h-.32Z"/>
          <path class="cls-61" d="m175.13,269.68v-1.19h-.12v-14.07c0-.38-.18-.74-.46-.91l-8.88-5.75v-.65H19.51v173.03h146.16v-.65l8.88-5.77c.29-.18.46-.53.46-.91v-14.21h.12v-1.19h.32v-127.74h-.32Z"/>
          <path class="cls-67" d="m176.63,268.98v-1.19h-.12v-14.07c0-.38-.18-.74-.46-.91l-8.88-5.75v-.65H21.01v173.03h146.16v-.65l8.88-5.77c.29-.18.46-.53.46-.91v-14.21h.12v-1.2h.32v-127.73h-.32Z"/>
          <path class="cls-52" d="m178.13,268.28v-1.19h-.12v-14.07c0-.38-.18-.74-.46-.91l-8.88-5.75v-.65H22.51v173.03h146.16v-.65l8.88-5.77c.29-.18.46-.53.46-.91v-14.21h.12v-1.2h.32v-127.73h-.32Z"/>
          <path class="cls-58" d="m179.63,267.59v-1.19h-.12v-14.07c0-.38-.18-.74-.46-.91l-8.88-5.75v-.65H24.01v173.03h146.16v-.65l8.88-5.77c.29-.18.46-.53.46-.91v-14.21h.12v-1.2h.32v-127.73h-.32Z"/>
          <path class="cls-46" d="m181.13,266.89v-1.19h-.12v-14.07c0-.38-.18-.74-.46-.91l-8.88-5.75v-.65H25.51v173.03h146.16v-.65l8.88-5.77c.29-.18.46-.53.46-.91v-14.21h.12v-1.2h.32v-127.73h-.32Z"/>
          <path class="cls-65" d="m182.64,266.19v-1.19h-.12v-14.07c0-.38-.18-.74-.46-.91l-8.88-5.75v-.65H27.01v173.03h146.16v-.65l8.88-5.77c.29-.18.46-.53.46-.91v-14.21h.12v-1.2h.32v-127.73h-.32Z"/>
          <path class="cls-45" d="m184.14,265.49v-1.19h-.12v-14.07c0-.38-.18-.74-.46-.91l-8.88-5.75v-.65H28.51v173.03h146.16v-.65l8.88-5.77c.29-.18.46-.53.46-.91v-14.21h.12v-1.2h.32v-127.73h-.32Z"/>
          <path class="cls-53" d="m185.64,264.79v-1.19h-.12v-14.07c0-.38-.18-.74-.46-.91l-8.88-5.75v-.65H30.01v173.03h146.16v-.65l8.88-5.77c.29-.18.46-.53.46-.91v-14.21h.12v-1.2h.32v-127.73h-.32Z"/>
          <path class="cls-68" d="m187.14,264.1v-1.19h-.12v-14.07c0-.38-.17-.74-.46-.91l-8.88-5.75v-.65H31.51v173.03h146.16v-.65l8.88-5.77c.29-.18.46-.53.46-.91v-14.21h.12v-1.2h.32v-127.73h-.32Z"/>
        </g>
        <g>
          <rect class="cls-60" x="66.55" y="262.91" width="11.28" height="127.74"/>
          <rect class="cls-60" x="88.28" y="262.91" width="11.28" height="127.74"/>
          <rect class="cls-60" x="110" y="262.91" width="11.28" height="127.74"/>
          <rect class="cls-60" x="131.73" y="262.91" width="11.28" height="127.74"/>
          <rect class="cls-60" x="153.45" y="262.91" width="11.28" height="127.74"/>
          <rect class="cls-60" x="175.18" y="262.91" width="11.28" height="127.74"/>
          <g>
            <rect class="cls-20" x="66.55" y="262.91" width="118.59" height="18.57"/>
            <rect class="cls-17" x="66.55" y="317.48" width="118.59" height="18.58"/>
            <rect class="cls-35" x="66.55" y="290.2" width="118.59" height="18.57"/>
            <rect class="cls-25" x="66.55" y="344.76" width="118.59" height="18.59"/>
            <rect class="cls-33" x="66.55" y="372.05" width="118.59" height="18.59"/>
          </g>
          <polygon class="cls-8" points="175.68 241.53 185.15 247.65 185.15 263.75 175.68 257.62 175.68 241.53"/>
          <polygon class="cls-55" points="175.68 257.62 31.51 257.62 41.5 263.08 184.36 263.08 175.68 257.62"/>
          <polygon class="cls-9" points="175.68 412.19 185.15 406.05 185.15 389.96 175.68 396.09 175.68 412.19"/>
          <polygon class="cls-55" points="175.68 396.09 31.51 396.09 41.49 390.65 184.36 390.65 175.68 396.09"/>
          <polygon class="cls-7" points="66.55 281.48 66.55 262.91 50.87 262.91 50.87 256.43 45 256.43 45 262.91 44.99 262.91 44.99 281.48 45 281.48 45 290.2 44.99 290.2 44.99 308.77 45 308.77 45 317.48 44.99 317.48 44.99 336.06 45 336.06 45 344.76 44.99 344.76 44.99 363.35 45 363.35 45 372.05 44.99 372.05 44.99 390.65 45 390.65 45 397.11 50.87 397.11 50.87 390.65 66.55 390.65 66.55 372.05 50.87 372.05 50.87 363.35 66.55 363.35 66.55 344.76 50.87 344.76 50.87 336.06 66.55 336.06 66.55 317.48 50.87 317.48 50.87 308.77 66.55 308.77 66.55 290.2 50.87 290.2 50.87 281.48 66.55 281.48"/>
          <polygon class="cls-41" points="175.68 257.62 175.68 241.53 31.51 241.53 31.51 256.43 31.51 257.62 31.51 396.09 31.51 397.11 31.51 412.19 175.68 412.19 175.68 396.09 45 396.09 45 257.62 175.68 257.62"/>
          <path class="cls-49" d="m186.46,262.91h-.32v-1.19h-.12v-14.06c0-.38-.17-.74-.46-.91l-8.88-5.75v-.65H30.52v173.03h146.16v-.65l8.89-5.77c.28-.17.45-.53.45-.91v-14.21h.12v-1.19h.32v-127.74Zm-120.9,107.95v.15h-13.82v-6.62h13.82v.15h.99v6.32h-.99Zm0-27.29v.15h-13.82v-6.63h13.82v.15h.99v6.32h-.99Zm0-27.27v.15h-13.82v-6.63h13.82v.15h.99v6.34h-.99Zm0-27.29v.15h-13.82v-6.64h13.82v.15h.99v6.34h-.99Zm12.27,81.85v-6.32h10.45v6.32h-10.45Zm0-27.29v-6.32h10.45v6.32h-10.45Zm0-27.27v-6.34h10.45v6.34h-10.45Zm0-27.29v-6.34h10.45v6.34h-10.45Zm21.73,81.85v-6.32h10.45v6.32h-10.45Zm0-27.29v-6.32h10.45v6.32h-10.45Zm0-27.27v-6.34h10.45v6.34h-10.45Zm0-27.29v-6.34h10.45v6.34h-10.45Zm21.73,81.85v-6.32h10.45v6.32h-10.45Zm0-27.29v-6.32h10.45v6.32h-10.45Zm0-27.27v-6.34h10.45v6.34h-10.45Zm0-27.29v-6.34h10.45v6.34h-10.45Zm21.73,81.85v-6.32h10.45v6.32h-10.45Zm0-27.29v-6.32h10.45v6.32h-10.45Zm0-27.27v-6.34h10.45v6.34h-10.45Zm0-27.29v-6.34h10.45v6.34h-10.45Zm21.73,81.85v-6.32h10.45v6.32h-10.45Zm0-27.29v-6.32h10.45v6.32h-10.45Zm0-27.27v-6.34h10.45v6.34h-10.45Zm0-27.29v-6.34h10.45v6.34h-10.45Z"/>
          <path class="cls-43" d="m175.68,343.51c0,20.9-14.19,37.84-31.71,37.84h-34.3c-17.51,0-31.71-16.94-31.71-37.84v-33.48c0-20.9,14.2-37.83,31.71-37.83h34.3c17.51,0,31.71,16.94,31.71,37.83v33.48Z"/>
          <path class="cls-48" d="m143.98,271.01h-34.3c-18.03,0-32.7,17.5-32.7,39.03v33.48c0,21.52,14.67,39.02,32.7,39.02h34.3c18.03,0,32.7-17.5,32.7-39.02v-33.48c0-21.52-14.67-39.03-32.7-39.03Z"/>
        </g>
      </g>
      <g>
        <rect class="cls-60" x="758.11" y="53.87" width="11.28" height="127.73"/>
        <rect class="cls-60" x="736.38" y="53.87" width="11.28" height="127.73"/>
        <rect class="cls-60" x="714.66" y="53.87" width="11.28" height="127.73"/>
        <rect class="cls-60" x="692.93" y="53.87" width="11.28" height="127.73"/>
        <rect class="cls-60" x="671.21" y="53.87" width="11.28" height="127.73"/>
        <rect class="cls-60" x="649.48" y="53.87" width="11.28" height="127.73"/>
        <g>
          <rect class="cls-24" x="650.79" y="163.03" width="118.59" height="18.57"/>
          <rect class="cls-30" x="650.79" y="108.45" width="118.59" height="18.58"/>
          <rect class="cls-37" x="650.79" y="135.74" width="118.59" height="18.57"/>
          <rect class="cls-15" x="650.79" y="81.16" width="118.59" height="18.59"/>
          <rect class="cls-34" x="650.79" y="53.87" width="118.59" height="18.59"/>
        </g>
        <polygon class="cls-2" points="660.26 202.98 650.79 196.86 650.79 180.76 660.26 186.89 660.26 202.98"/>
        <polygon class="cls-55" points="660.26 186.89 804.43 186.89 794.44 181.42 651.58 181.42 660.26 186.89"/>
        <polygon class="cls-11" points="660.26 32.33 650.79 38.45 650.79 54.55 660.26 48.42 660.26 32.33"/>
        <polygon class="cls-55" points="660.26 48.42 804.43 48.42 794.45 53.87 651.58 53.87 660.26 48.42"/>
        <polygon class="cls-5" points="769.39 163.03 769.39 181.6 785.07 181.6 785.07 188.08 790.94 188.08 790.94 181.6 790.96 181.6 790.96 163.03 790.94 163.03 790.94 154.31 790.96 154.31 790.96 135.74 790.94 135.74 790.94 127.03 790.96 127.03 790.96 108.45 790.94 108.45 790.94 99.75 790.96 99.75 790.96 81.16 790.94 81.16 790.94 72.46 790.96 72.46 790.96 53.87 790.94 53.87 790.94 47.39 785.07 47.39 785.07 53.87 769.39 53.87 769.39 72.46 785.07 72.46 785.07 81.16 769.39 81.16 769.39 99.75 785.07 99.75 785.07 108.45 769.39 108.45 769.39 127.03 785.07 127.03 785.07 135.74 769.39 135.74 769.39 154.31 785.07 154.31 785.07 163.03 769.39 163.03"/>
        <polygon class="cls-23" points="660.26 186.89 660.26 202.98 804.43 202.98 804.43 188.08 804.43 186.89 804.43 48.42 804.43 47.39 804.43 32.33 660.26 32.33 660.26 48.42 790.94 48.42 790.95 186.89 660.26 186.89"/>
        <path class="cls-49" d="m649.48,181.6h.32v1.19h.12v14.07c0,.38.17.74.46.91l8.89,5.75v.65h146.15V31.13h-146.15v.65l-8.9,5.77c-.28.17-.45.53-.45.91v14.22h-.12v1.19h-.32v127.73Zm120.9-107.95v-.15h13.82v6.63h-13.82v-.15h-.99v-6.32h.99Zm0,27.29v-.15h13.82v6.62h-13.82v-.15h-.99v-6.32h.99Zm0,27.28v-.15h13.82v6.63h-13.82v-.15h-.99v-6.33h.99Zm0,27.29v-.15h13.82v6.65h-13.82v-.15h-.99v-6.34h.99Zm-12.27-81.85v6.32h-10.45v-6.32h10.45Zm0,27.29v6.32h-10.45v-6.32h10.45Zm0,27.28v6.33h-10.45v-6.33h10.45Zm0,27.29v6.34h-10.45v-6.34h10.45Zm-21.72-81.85v6.32h-10.45v-6.32h10.45Zm0,27.29v6.32h-10.45v-6.32h10.45Zm0,27.28v6.33h-10.45v-6.33h10.45Zm0,27.29v6.34h-10.45v-6.34h10.45Zm-21.73-81.85v6.32h-10.45v-6.32h10.45Zm0,27.29v6.32h-10.45v-6.32h10.45Zm0,27.28v6.33h-10.45v-6.33h10.45Zm0,27.29v6.34h-10.45v-6.34h10.45Zm-21.73-81.85v6.32h-10.45v-6.32h10.45Zm0,27.29v6.32h-10.45v-6.32h10.45Zm0,27.28v6.33h-10.45v-6.33h10.45Zm0,27.29v6.34h-10.45v-6.34h10.45Zm-21.73-81.85v6.32h-10.45v-6.32h10.45Zm0,27.29v6.32h-10.45v-6.32h10.45Zm0,27.28v6.33h-10.45v-6.33h10.45Zm0,27.29v6.34h-10.45v-6.34h10.45Z"/>
        <path class="cls-22" d="m660.26,101c0-20.9,14.19-37.83,31.71-37.83h34.3c17.51,0,31.71,16.94,31.71,37.83v33.48c0,20.9-14.2,37.83-31.71,37.83h-34.3c-17.51,0-31.71-16.94-31.71-37.83v-33.48Z"/>
        <path class="cls-48" d="m691.96,173.5h34.3c18.04,0,32.7-17.5,32.7-39.02v-33.48c0-21.52-14.66-39.03-32.7-39.03h-34.3c-18.03,0-32.7,17.5-32.7,39.03v33.48c0,21.52,14.66,39.02,32.7,39.02Z"/>
      </g>
      <g class="cls-50">
        <path class="cls-44" d="m616.26,411.06v1.19h.12v14.07c0,.38.17.73.46.91l8.88,5.75v.65h146.16v-173.03h-146.16v.65l-8.88,5.77c-.29.18-.46.53-.46.91v14.21h-.12v1.19h-.32v127.73h.32Z"/>
        <path class="cls-70" d="m617.71,410.01v1.19h.12v14.07c0,.38.17.73.46.91l8.88,5.75v.65h146.16v-173.03h-146.16v.65l-8.88,5.77c-.29.18-.46.53-.46.91v14.21h-.12v1.19h-.32v127.73h.32Z"/>
        <path class="cls-47" d="m619.17,408.97v1.19h.12v14.07c0,.38.17.73.46.91l8.88,5.75v.65h146.16v-173.03h-146.16v.65l-8.88,5.77c-.29.18-.46.53-.46.91v14.21h-.12v1.19h-.32v127.73h.32Z"/>
        <path class="cls-62" d="m620.62,407.92v1.19h.12v14.07c0,.38.17.73.46.91l8.88,5.75v.65h146.16v-173.03h-146.16v.65l-8.88,5.77c-.29.18-.46.53-.46.91v14.21h-.12v1.19h-.32v127.73h.32Z"/>
        <path class="cls-14" d="m622.08,406.87v1.19h.13v14.07c0,.38.17.73.46.91l8.88,5.75v.65h146.16v-173.03h-146.16v.65l-8.88,5.77c-.29.18-.46.53-.46.91v14.21h-.13v1.19h-.32v127.73h.32Z"/>
        <path class="cls-64" d="m623.53,405.82v1.19h.13v14.07c0,.38.17.73.46.91l8.88,5.75v.65h146.16v-173.03h-146.16v.65l-8.88,5.77c-.29.18-.46.53-.46.91v14.21h-.13v1.19h-.32v127.73h.32Z"/>
        <path class="cls-63" d="m624.98,404.78v1.19h.13v14.07c0,.38.17.74.46.91l8.88,5.75v.65h146.16v-173.03h-146.16v.65l-8.88,5.77c-.29.18-.46.53-.46.91v14.21h-.13v1.19h-.32v127.73h.32Z"/>
        <path class="cls-69" d="m626.44,403.73v1.19h.13v14.07c0,.38.17.74.46.91l8.88,5.75v.65h146.16v-173.03h-146.16v.65l-8.88,5.77c-.29.18-.46.53-.46.91v14.21h-.13v1.19h-.32v127.73h.32Z"/>
        <path class="cls-13" d="m627.89,402.68v1.19h.13v14.07c0,.38.18.74.46.91l8.88,5.75v.65h146.16v-173.03h-146.16v.65l-8.88,5.77c-.29.18-.46.53-.46.91v14.21h-.13v1.19h-.32v127.73h.32Z"/>
        <path class="cls-57" d="m629.34,401.63v1.19h.13v14.07c0,.38.18.74.46.91l8.88,5.75v.65h146.16v-173.03h-146.16v.65l-8.88,5.77c-.29.18-.46.53-.46.91v14.21h-.13v1.19h-.32v127.73h.32Z"/>
        <path class="cls-59" d="m630.8,400.58v1.19h.13v14.07c0,.38.18.74.46.91l8.88,5.75v.65h146.16v-173.03h-146.16v.65l-8.88,5.77c-.29.18-.46.53-.46.91v14.21h-.13v1.19h-.32v127.73h.32Z"/>
        <path class="cls-56" d="m632.25,399.54v1.19h.13v14.07c0,.38.18.74.46.91l8.88,5.75v.65h146.16v-173.03h-146.16v.65l-8.88,5.77c-.29.18-.46.53-.46.91v14.21h-.13v1.19h-.32v127.73h.32Z"/>
        <path class="cls-54" d="m633.7,398.49v1.19h.13v14.07c0,.38.18.74.46.91l8.88,5.75v.65h146.16v-173.03h-146.16v.65l-8.88,5.77c-.29.18-.46.53-.46.91v14.21h-.13v1.19h-.32v127.73h.32Z"/>
        <path class="cls-61" d="m635.16,397.44v1.19h.13v14.07c0,.38.18.74.46.91l8.88,5.75v.65h146.16v-173.03h-146.16v.65l-8.88,5.77c-.29.18-.46.53-.46.91v14.21h-.13v1.19h-.32v127.73h.32Z"/>
        <path class="cls-67" d="m636.61,396.39v1.19h.13v14.07c0,.38.18.74.46.91l8.88,5.75v.65h146.16v-173.03h-146.16v.65l-8.88,5.77c-.29.18-.46.53-.46.91v14.21h-.13v1.2h-.32v127.73h.32Z"/>
        <path class="cls-52" d="m638.07,395.34v1.19h.13v14.07c0,.38.18.74.46.91l8.88,5.75v.65h146.16v-173.03h-146.16v.65l-8.88,5.77c-.29.18-.46.53-.46.91v14.21h-.13v1.2h-.32v127.73h.32Z"/>
        <path class="cls-58" d="m639.52,394.3v1.19h.13v14.07c0,.38.18.74.46.91l8.88,5.75v.65h146.16v-173.03h-146.16v.65l-8.88,5.77c-.29.18-.46.53-.46.91v14.21h-.13v1.2h-.32v127.73h.32Z"/>
        <path class="cls-46" d="m640.97,393.25v1.19h.13v14.07c0,.38.18.74.46.91l8.88,5.75v.65h146.16v-173.03h-146.16v.65l-8.88,5.77c-.29.18-.46.53-.46.91v14.21h-.13v1.2h-.32v127.73h.32Z"/>
        <path class="cls-65" d="m642.43,392.2v1.19h.13v14.07c0,.38.18.74.46.91l8.88,5.75v.65h146.16v-173.03h-146.16v.65l-8.88,5.77c-.29.18-.46.53-.46.91v14.21h-.13v1.2h-.32v127.73h.32Z"/>
        <path class="cls-45" d="m643.88,391.15v1.19h.13v14.07c0,.38.18.74.46.91l8.88,5.75v.65h146.16v-173.03h-146.16v.65l-8.88,5.77c-.29.18-.46.53-.46.91v14.21h-.13v1.2h-.32v127.73h.32Z"/>
        <path class="cls-53" d="m645.33,390.11v1.19h.13v14.07c0,.38.18.74.46.91l8.88,5.75v.65h146.16v-173.03h-146.16v.65l-8.88,5.77c-.29.18-.46.53-.46.91v14.21h-.13v1.2h-.31v127.73h.31Z"/>
        <path class="cls-68" d="m646.79,389.06v1.19h.13v14.07c0,.38.18.74.46.91l8.88,5.75v.65h146.16v-173.03h-146.16v.65l-8.88,5.77c-.29.18-.46.53-.46.91v14.21h-.13v1.2h-.31v127.73h.31Z"/>
      </g>
      <g>
        <rect class="cls-60" x="758.11" y="261.22" width="11.28" height="127.74"/>
        <rect class="cls-60" x="736.38" y="261.22" width="11.28" height="127.74"/>
        <rect class="cls-60" x="714.66" y="261.22" width="11.28" height="127.74"/>
        <rect class="cls-60" x="692.93" y="261.22" width="11.28" height="127.74"/>
        <rect class="cls-60" x="671.21" y="261.22" width="11.28" height="127.74"/>
        <rect class="cls-60" x="649.48" y="261.22" width="11.28" height="127.74"/>
        <g>
          <rect class="cls-27" x="650.79" y="370.39" width="118.59" height="18.57"/>
          <rect class="cls-38" x="650.79" y="315.81" width="118.59" height="18.58"/>
          <rect class="cls-26" x="650.79" y="343.1" width="118.59" height="18.57"/>
          <rect class="cls-18" x="650.79" y="288.52" width="118.59" height="18.59"/>
          <rect class="cls-32" x="650.79" y="261.22" width="118.59" height="18.59"/>
        </g>
        <polygon class="cls-1" points="660.26 410.34 650.79 404.22 650.79 388.12 660.26 394.24 660.26 410.34"/>
        <polygon class="cls-55" points="660.26 394.24 804.43 394.24 794.44 388.79 651.58 388.79 660.26 394.24"/>
        <polygon class="cls-10" points="660.26 239.68 650.79 245.82 650.79 261.91 660.26 255.77 660.26 239.68"/>
        <polygon class="cls-55" points="660.26 255.77 804.43 255.77 794.45 261.22 651.58 261.22 660.26 255.77"/>
        <polygon class="cls-3" points="769.39 370.39 769.39 388.96 785.07 388.96 785.07 395.44 790.94 395.44 790.94 388.96 790.96 388.96 790.96 370.39 790.94 370.39 790.94 361.67 790.96 361.67 790.96 343.1 790.94 343.1 790.94 334.39 790.96 334.39 790.96 315.81 790.94 315.81 790.94 307.11 790.96 307.11 790.96 288.52 790.94 288.52 790.94 279.82 790.96 279.82 790.96 261.22 790.94 261.22 790.94 254.76 785.07 254.76 785.07 261.22 769.39 261.22 769.39 279.82 785.07 279.82 785.07 288.52 769.39 288.52 769.39 307.11 785.07 307.11 785.07 315.81 769.39 315.81 769.39 334.39 785.07 334.39 785.07 343.1 769.39 343.1 769.39 361.67 785.07 361.67 785.07 370.39 769.39 370.39"/>
        <polygon class="cls-31" points="660.26 394.24 660.26 410.34 804.43 410.34 804.43 395.44 804.43 394.24 804.43 255.77 804.43 254.76 804.43 239.68 660.26 239.68 660.26 255.77 790.94 255.77 790.95 394.24 660.26 394.24"/>
        <path class="cls-49" d="m649.48,388.96h.32v1.19h.12v14.06c0,.38.17.74.46.91l8.89,5.75v.65h146.15v-173.03h-146.15v.65l-8.9,5.77c-.28.17-.45.53-.45.91v14.21h-.12v1.19h-.32v127.74Zm120.9-107.95v-.15h13.82v6.62h-13.82v-.15h-.99v-6.32h.99Zm0,27.29v-.15h13.82v6.63h-13.82v-.15h-.99v-6.32h.99Zm0,27.27v-.15h13.82v6.63h-13.82v-.15h-.99v-6.34h.99Zm0,27.29v-.15h13.82v6.64h-13.82v-.15h-.99v-6.34h.99Zm-12.27-81.85v6.32h-10.45v-6.32h10.45Zm0,27.29v6.32h-10.45v-6.32h10.45Zm0,27.27v6.34h-10.45v-6.34h10.45Zm0,27.29v6.34h-10.45v-6.34h10.45Zm-21.72-81.85v6.32h-10.45v-6.32h10.45Zm0,27.29v6.32h-10.45v-6.32h10.45Zm0,27.27v6.34h-10.45v-6.34h10.45Zm0,27.29v6.34h-10.45v-6.34h10.45Zm-21.73-81.85v6.32h-10.45v-6.32h10.45Zm0,27.29v6.32h-10.45v-6.32h10.45Zm0,27.27v6.34h-10.45v-6.34h10.45Zm0,27.29v6.34h-10.45v-6.34h10.45Zm-21.73-81.85v6.32h-10.45v-6.32h10.45Zm0,27.29v6.32h-10.45v-6.32h10.45Zm0,27.27v6.34h-10.45v-6.34h10.45Zm0,27.29v6.34h-10.45v-6.34h10.45Zm-21.73-81.85v6.32h-10.45v-6.32h10.45Zm0,27.29v6.32h-10.45v-6.32h10.45Zm0,27.27v6.34h-10.45v-6.34h10.45Zm0,27.29v6.34h-10.45v-6.34h10.45Z"/>
        <path class="cls-19" d="m660.26,308.36c0-20.9,14.19-37.84,31.71-37.84h34.3c17.51,0,31.71,16.94,31.71,37.84v33.48c0,20.9-14.2,37.84-31.71,37.84h-34.3c-17.51,0-31.71-16.95-31.71-37.84v-33.48Z"/>
        <path class="cls-48" d="m691.96,380.86h34.3c18.04,0,32.7-17.5,32.7-39.03v-33.48c0-21.52-14.66-39.02-32.7-39.02h-34.3c-18.03,0-32.7,17.5-32.7,39.02v33.48c0,21.52,14.66,39.03,32.7,39.03Z"/>
      </g>
    </g>
  </g>
</svg>