<?xml version="1.0" encoding="UTF-8"?>
<svg xmlns="http://www.w3.org/2000/svg" xmlns:xlink="http://www.w3.org/1999/xlink" viewBox="0 0 951.55 452.8">
  <defs>
    <style>
      .cls-1 {
        fill: url(#linear-gradient-19);
      }

      .cls-1, .cls-2, .cls-3, .cls-4, .cls-5, .cls-6, .cls-7, .cls-8, .cls-9, .cls-10, .cls-11, .cls-12, .cls-13, .cls-14, .cls-15, .cls-16, .cls-17, .cls-18, .cls-19, .cls-20, .cls-21, .cls-22, .cls-23, .cls-24 {
        stroke: #9d9d9c;
        stroke-miterlimit: 10;
      }

      .cls-1, .cls-2, .cls-6, .cls-9, .cls-10, .cls-11, .cls-12, .cls-13, .cls-14, .cls-15, .cls-16, .cls-17, .cls-18, .cls-19, .cls-22, .cls-24 {
        stroke-width: .04px;
      }

      .cls-25 {
        fill: #ddd;
      }

      .cls-26 {
        fill: #e9e9e9;
      }

      .cls-27 {
        fill: #f0f0f0;
      }

      .cls-28 {
        fill: #f4f4f4;
      }

      .cls-2 {
        fill: url(#linear-gradient-25);
      }

      .cls-29 {
        fill: #fff;
      }

      .cls-3 {
        fill: url(#linear-gradient-8);
      }

      .cls-3, .cls-4, .cls-5, .cls-7, .cls-8, .cls-20, .cls-21, .cls-23 {
        stroke-width: .03px;
      }

      .cls-4 {
        fill: url(#linear-gradient-5);
      }

      .cls-30 {
        fill: #cbcbcb;
      }

      .cls-5 {
        fill: url(#linear-gradient-4);
      }

      .cls-31 {
        fill: #d1d1d1;
      }

      .cls-32 {
        fill: #fafafa;
      }

      .cls-33 {
        fill: #dbdbdb;
      }

      .cls-34 {
        fill: #cacaca;
      }

      .cls-35 {
        fill: #d8d8d8;
      }

      .cls-36 {
        fill: #f6f6f6;
      }

      .cls-37 {
        fill: url(#linear-gradient-15);
      }

      .cls-6 {
        fill: url(#linear-gradient-13);
      }

      .cls-7 {
        fill: url(#linear-gradient-3);
      }

      .cls-38 {
        fill: #e2e2e2;
      }

      .cls-39 {
        fill: #f5f5f5;
      }

      .cls-40 {
        isolation: isolate;
      }

      .cls-41 {
        fill: #d6d6d6;
      }

      .cls-42 {
        fill: #c9c9c9;
      }

      .cls-8 {
        fill: url(#linear-gradient-2);
      }

      .cls-43 {
        fill: #e0e0e0;
      }

      .cls-44 {
        fill: #c7c7c7;
      }

      .cls-45 {
        fill: #dedede;
      }

      .cls-46 {
        fill: url(#linear-gradient-12);
      }

      .cls-46, .cls-47, .cls-48, .cls-49 {
        stroke: #949494;
        stroke-linecap: round;
        stroke-linejoin: round;
        stroke-width: .03px;
      }

      .cls-9 {
        fill: url(#linear-gradient-31);
      }

      .cls-50 {
        fill: #cfcfcf;
      }

      .cls-51 {
        fill: #d7d7d7;
      }

      .cls-52 {
        fill: #e1e1e1;
      }

      .cls-53 {
        fill: #e6e6e6;
      }

      .cls-54 {
        fill: #e7e7e7;
      }

      .cls-10 {
        fill: url(#linear-gradient-22);
      }

      .cls-47 {
        fill: url(#linear-gradient-24);
      }

      .cls-55 {
        fill: #d4d4d4;
      }

      .cls-56 {
        fill: #dadada;
      }

      .cls-48 {
        fill: url(#linear-gradient-30);
      }

      .cls-57 {
        fill: #eaeaea;
      }

      .cls-11 {
        fill: url(#linear-gradient-32);
      }

      .cls-58 {
        fill: #c8c8c8;
      }

      .cls-59 {
        fill: #fdfdfd;
      }

      .cls-49 {
        fill: url(#linear-gradient-18);
      }

      .cls-60 {
        fill: #e4e4e4;
      }

      .cls-61 {
        fill: #fbfbfb;
      }

      .cls-62 {
        fill: url(#linear-gradient-21);
      }

      .cls-12 {
        fill: url(#linear-gradient-17);
      }

      .cls-63 {
        fill: #f9f9f9;
      }

      .cls-64 {
        fill: #e5e5e5;
      }

      .cls-13 {
        fill: url(#linear-gradient-11);
      }

      .cls-65 {
        fill: #878787;
      }

      .cls-66 {
        fill: #d3d3d3;
      }

      .cls-67 {
        fill: #ebebeb;
      }

      .cls-68 {
        fill: #d5d5d5;
      }

      .cls-69 {
        fill: #dcdcdc;
      }

      .cls-14 {
        fill: url(#linear-gradient-23);
      }

      .cls-70 {
        fill: #706f6f;
      }

      .cls-70, .cls-71 {
        mix-blend-mode: multiply;
      }

      .cls-72 {
        fill: #e8e8e8;
      }

      .cls-15 {
        fill: url(#linear-gradient-16);
      }

      .cls-16 {
        fill: url(#linear-gradient-26);
      }

      .cls-17 {
        fill: url(#linear-gradient-14);
      }

      .cls-73 {
        fill: #ccc;
      }

      .cls-74 {
        fill: #f7f7f7;
      }

      .cls-75 {
        fill: #efefef;
      }

      .cls-18 {
        fill: url(#linear-gradient-10);
      }

      .cls-76 {
        fill: url(#linear-gradient-9);
      }

      .cls-19 {
        fill: url(#linear-gradient-28);
      }

      .cls-77 {
        fill: #f1f1f1;
      }

      .cls-78 {
        fill: #cecece;
      }

      .cls-79 {
        fill: #f3f3f3;
      }

      .cls-20 {
        fill: url(#linear-gradient);
      }

      .cls-80 {
        fill: url(#linear-gradient-27);
      }

      .cls-81 {
        fill: #d9d9d9;
      }

      .cls-21 {
        fill: url(#linear-gradient-7);
      }

      .cls-22 {
        fill: url(#linear-gradient-20);
      }

      .cls-23 {
        fill: url(#linear-gradient-6);
      }

      .cls-82 {
        fill: #cdcdcd;
      }

      .cls-83 {
        fill: #f8f8f8;
      }

      .cls-84 {
        fill: #d2d2d2;
      }

      .cls-85 {
        fill: #c6c6c6;
      }

      .cls-86 {
        fill: #eee;
      }

      .cls-24 {
        fill: url(#linear-gradient-29);
      }

      .cls-87 {
        fill: #d0d0d0;
      }

      .cls-88 {
        fill: #ececec;
      }

      .cls-89 {
        fill: #f2f2f2;
      }

      .cls-90 {
        fill: #fefefe;
      }

      .cls-91 {
        fill: #e3e3e3;
      }

      .cls-92 {
        fill: #fcfcfc;
      }

      .cls-93 {
        fill: #ededed;
      }

      .cls-94 {
        fill: #dfdfdf;
      }
    </style>
    <linearGradient id="linear-gradient" x1="2235.59" y1="983.03" x2="2827.59" y2="809.69" gradientTransform="translate(2907.3 1022.18) rotate(-180)" gradientUnits="userSpaceOnUse">
      <stop offset="0" stop-color="#e6e6e6"/>
      <stop offset="1" stop-color="#c9c9c9"/>
    </linearGradient>
    <linearGradient id="linear-gradient-2" x1="705.82" y1="93.31" x2="164.6" y2="316.85" gradientUnits="userSpaceOnUse">
      <stop offset="0" stop-color="#fff"/>
      <stop offset="1" stop-color="#d6d6d6"/>
    </linearGradient>
    <linearGradient id="linear-gradient-3" x1="689.82" y1="65.49" x2="148.6" y2="289.04" xlink:href="#linear-gradient-2"/>
    <linearGradient id="linear-gradient-4" x1="673.81" y1="37.67" x2="132.59" y2="261.22" xlink:href="#linear-gradient-2"/>
    <linearGradient id="linear-gradient-5" x1="657.81" y1="9.85" x2="116.59" y2="233.4" xlink:href="#linear-gradient-2"/>
    <linearGradient id="linear-gradient-6" x1="641.81" y1="-17.96" x2="100.59" y2="205.58" xlink:href="#linear-gradient-2"/>
    <linearGradient id="linear-gradient-7" x1="625.81" y1="-45.78" x2="84.59" y2="177.76" xlink:href="#linear-gradient-2"/>
    <linearGradient id="linear-gradient-8" x1="609.81" y1="-73.6" x2="68.59" y2="149.95" xlink:href="#linear-gradient-2"/>
    <linearGradient id="linear-gradient-9" x1="206.61" y1="413.16" x2="82.46" y2="420.71" xlink:href="#linear-gradient-2"/>
    <linearGradient id="linear-gradient-10" x1="61" y1="339.45" x2="44.62" y2="339.45" xlink:href="#linear-gradient-2"/>
    <linearGradient id="linear-gradient-11" x1="232.79" y1="339.68" x2="217.13" y2="339.22" xlink:href="#linear-gradient-2"/>
    <linearGradient id="linear-gradient-12" x1="2634.63" y1="410.75" x2="2775.36" y2="410.75" gradientTransform="translate(2843.52) rotate(-180) scale(1 -1)" gradientUnits="userSpaceOnUse">
      <stop offset="0" stop-color="#c2c2c1"/>
      <stop offset="1" stop-color="#787878"/>
    </linearGradient>
    <linearGradient id="linear-gradient-13" x1="196.68" y1="301.49" x2="85.48" y2="384.32" gradientUnits="userSpaceOnUse">
      <stop offset="0" stop-color="#fff"/>
      <stop offset="1" stop-color="#c2c2c2"/>
    </linearGradient>
    <linearGradient id="linear-gradient-14" x1="205.57" y1="431.21" x2="83.32" y2="438.65" xlink:href="#linear-gradient-2"/>
    <linearGradient id="linear-gradient-15" x1="464.02" y1="413.16" x2="339.87" y2="420.71" xlink:href="#linear-gradient-2"/>
    <linearGradient id="linear-gradient-16" x1="318.41" y1="339.45" x2="302.03" y2="339.45" xlink:href="#linear-gradient-2"/>
    <linearGradient id="linear-gradient-17" x1="490.2" y1="339.68" x2="474.54" y2="339.22" xlink:href="#linear-gradient-2"/>
    <linearGradient id="linear-gradient-18" x1="2377.23" x2="2517.96" xlink:href="#linear-gradient-12"/>
    <linearGradient id="linear-gradient-19" x1="454.09" y1="301.49" x2="342.89" y2="384.32" xlink:href="#linear-gradient-13"/>
    <linearGradient id="linear-gradient-20" x1="462.98" y1="431.21" x2="340.73" y2="438.65" xlink:href="#linear-gradient-2"/>
    <linearGradient id="linear-gradient-21" x1="724.47" y1="413.16" x2="600.32" y2="420.71" xlink:href="#linear-gradient-2"/>
    <linearGradient id="linear-gradient-22" x1="578.86" y1="339.45" x2="562.48" y2="339.45" xlink:href="#linear-gradient-2"/>
    <linearGradient id="linear-gradient-23" x1="750.65" y1="339.68" x2="734.99" y2="339.22" xlink:href="#linear-gradient-2"/>
    <linearGradient id="linear-gradient-24" x1="2116.78" x2="2257.51" xlink:href="#linear-gradient-12"/>
    <linearGradient id="linear-gradient-25" x1="714.53" y1="301.49" x2="603.34" y2="384.32" xlink:href="#linear-gradient-13"/>
    <linearGradient id="linear-gradient-26" x1="723.43" y1="431.21" x2="601.18" y2="438.65" xlink:href="#linear-gradient-2"/>
    <linearGradient id="linear-gradient-27" x1="2006.09" y1="-65.31" x2="1910.98" y2="-59.52" gradientTransform="translate(981.18 2069.91) rotate(-90)" xlink:href="#linear-gradient-2"/>
    <linearGradient id="linear-gradient-28" x1="1895.42" y1="-165.27" x2="1883.05" y2="-165.27" gradientTransform="translate(981.18 2069.91) rotate(-90)" xlink:href="#linear-gradient-2"/>
    <linearGradient id="linear-gradient-29" x1="2025.59" y1="-165.08" x2="2012.51" y2="-165.47" gradientTransform="translate(981.18 2069.91) rotate(-90)" xlink:href="#linear-gradient-2"/>
    <linearGradient id="linear-gradient-30" x1="1900.82" y1="-70.81" x2="2007.03" y2="-70.81" gradientTransform="translate(981.18 2069.91) rotate(-90)" xlink:href="#linear-gradient-12"/>
    <linearGradient id="linear-gradient-31" x1="2009.22" y1="-199.36" x2="1903.49" y2="-120.61" gradientTransform="translate(981.18 2069.91) rotate(-90)" xlink:href="#linear-gradient-13"/>
    <linearGradient id="linear-gradient-32" x1="2004.72" y1="-41.39" x2="1912.11" y2="-35.75" gradientTransform="translate(981.18 2069.91) rotate(-90)" xlink:href="#linear-gradient-2"/>
  </defs>
  <g class="cls-40">
    <g id="Layer_1" data-name="Layer 1">
      <g>
        <g class="cls-71">
          <rect class="cls-29" y="28.89" width="640.78" height="247.5"/>
          <rect class="cls-90" x="1.03" y="28.41" width="640.78" height="247.5"/>
          <rect class="cls-59" x="2.07" y="27.92" width="640.78" height="247.5"/>
          <rect class="cls-92" x="3.1" y="27.43" width="640.78" height="247.5"/>
          <rect class="cls-61" x="4.13" y="26.95" width="640.78" height="247.5"/>
          <rect class="cls-32" x="5.17" y="26.46" width="640.78" height="247.5"/>
          <rect class="cls-63" x="6.2" y="25.98" width="640.78" height="247.5"/>
          <rect class="cls-83" x="7.23" y="25.49" width="640.78" height="247.5"/>
          <rect class="cls-74" x="8.27" y="25" width="640.78" height="247.5"/>
          <rect class="cls-36" x="9.3" y="24.52" width="640.78" height="247.5"/>
          <rect class="cls-39" x="10.33" y="24.03" width="640.78" height="247.5"/>
          <rect class="cls-28" x="11.37" y="23.55" width="640.78" height="247.5"/>
          <rect class="cls-79" x="12.4" y="23.06" width="640.78" height="247.5"/>
          <rect class="cls-89" x="13.43" y="22.58" width="640.78" height="247.5"/>
          <rect class="cls-77" x="14.47" y="22.09" width="640.78" height="247.5"/>
          <rect class="cls-27" x="15.5" y="21.6" width="640.78" height="247.5"/>
          <rect class="cls-75" x="16.53" y="21.12" width="640.78" height="247.5"/>
          <rect class="cls-86" x="17.57" y="20.63" width="640.78" height="247.5"/>
          <rect class="cls-93" x="18.6" y="20.15" width="640.78" height="247.5"/>
          <rect class="cls-88" x="19.63" y="19.66" width="640.78" height="247.5"/>
          <rect class="cls-67" x="20.67" y="19.18" width="640.78" height="247.5"/>
          <rect class="cls-57" x="21.7" y="18.69" width="640.78" height="247.5"/>
          <rect class="cls-26" x="22.74" y="18.2" width="640.78" height="247.5"/>
          <rect class="cls-72" x="23.77" y="17.72" width="640.78" height="247.5"/>
          <rect class="cls-54" x="24.8" y="17.23" width="640.78" height="247.5"/>
          <rect class="cls-53" x="25.84" y="16.75" width="640.78" height="247.5"/>
          <rect class="cls-64" x="26.87" y="16.26" width="640.78" height="247.5"/>
          <rect class="cls-60" x="27.9" y="15.77" width="640.78" height="247.5"/>
          <rect class="cls-91" x="28.94" y="15.29" width="640.78" height="247.5"/>
          <rect class="cls-38" x="29.97" y="14.8" width="640.78" height="247.5"/>
          <rect class="cls-38" x="31" y="14.32" width="640.79" height="247.5"/>
          <rect class="cls-52" x="32.04" y="13.83" width="640.79" height="247.5"/>
          <rect class="cls-43" x="33.07" y="13.35" width="640.79" height="247.5"/>
          <rect class="cls-94" x="34.1" y="12.86" width="640.79" height="247.5"/>
          <rect class="cls-45" x="35.14" y="12.37" width="640.79" height="247.5"/>
          <rect class="cls-25" x="36.17" y="11.89" width="640.79" height="247.5"/>
          <rect class="cls-69" x="37.2" y="11.4" width="640.79" height="247.5"/>
          <rect class="cls-33" x="38.24" y="10.92" width="640.79" height="247.5"/>
          <rect class="cls-56" x="39.27" y="10.43" width="640.79" height="247.5"/>
          <rect class="cls-81" x="40.3" y="9.95" width="640.79" height="247.5"/>
          <rect class="cls-35" x="41.34" y="9.46" width="640.79" height="247.5"/>
          <rect class="cls-51" x="42.37" y="8.97" width="640.79" height="247.5"/>
          <rect class="cls-41" x="43.4" y="8.49" width="640.79" height="247.5"/>
          <rect class="cls-68" x="44.44" y="8" width="640.79" height="247.5"/>
          <rect class="cls-55" x="45.47" y="7.52" width="640.79" height="247.5"/>
          <rect class="cls-66" x="46.5" y="7.03" width="640.79" height="247.5"/>
          <rect class="cls-84" x="47.54" y="6.54" width="640.79" height="247.5"/>
          <rect class="cls-31" x="48.57" y="6.06" width="640.79" height="247.5"/>
          <rect class="cls-87" x="49.6" y="5.57" width="640.79" height="247.5"/>
          <rect class="cls-50" x="50.64" y="5.09" width="640.79" height="247.5"/>
          <rect class="cls-78" x="51.67" y="4.6" width="640.79" height="247.5"/>
          <rect class="cls-82" x="52.7" y="4.12" width="640.79" height="247.5"/>
          <rect class="cls-73" x="53.74" y="3.63" width="640.79" height="247.5"/>
          <rect class="cls-30" x="54.77" y="3.14" width="640.79" height="247.5"/>
          <rect class="cls-34" x="55.8" y="2.66" width="640.79" height="247.5"/>
          <rect class="cls-42" x="56.84" y="2.17" width="640.79" height="247.5"/>
          <rect class="cls-58" x="57.87" y="1.69" width="640.79" height="247.5"/>
          <rect class="cls-44" x="58.9" y="1.2" width="640.79" height="247.5"/>
          <rect class="cls-85" x="59.94" y=".72" width="640.79" height="247.5"/>
        </g>
        <g>
          <rect class="cls-20" x="59.94" y=".72" width="640.79" height="247.5"/>
          <g>
            <rect class="cls-8" x="69.23" y="214.02" width="622.22" height="27.45"/>
            <rect class="cls-7" x="69.23" y="179.59" width="622.22" height="27.45"/>
            <rect class="cls-5" x="69.23" y="145.17" width="622.22" height="27.44"/>
            <rect class="cls-4" x="69.23" y="110.74" width="622.22" height="27.45"/>
            <rect class="cls-23" x="69.23" y="76.31" width="622.22" height="27.45"/>
            <rect class="cls-21" x="69.23" y="41.89" width="622.22" height="27.44"/>
            <rect class="cls-3" x="69.23" y="7.46" width="622.22" height="27.45"/>
          </g>
        </g>
        <rect class="cls-70" x="58.99" width="642.68" height="248.93"/>
      </g>
      <g>
        <g class="cls-71">
          <path class="cls-29" d="m183.9,295.05v24.08h-7.54v-11.3c0-.35-.31-.64-.71-.64h-12.91c-.12-.09-.26-.16-.42-.16H49.68c-.17,0-.3.07-.42.16h-12.9c-.41,0-.73.29-.73.64v11.3h-7.53v-24.08H10.58v98.42l17.52,14.34v-10.4h7.53v55.4h140.73v-55.4h7.54v10.4l17.5-14.34v-98.42h-17.5Z"/>
          <path class="cls-90" d="m184.46,294.84v24.08h-7.54v-11.3c0-.35-.31-.64-.71-.64h-12.91c-.12-.09-.26-.16-.42-.16H50.24c-.17,0-.3.07-.42.16h-12.9c-.41,0-.73.29-.73.64v11.3h-7.53v-24.08H11.14v98.42l17.52,14.34v-10.4h7.53v55.4h140.73v-55.4h7.54v10.4l17.5-14.34v-98.42h-17.5Z"/>
          <path class="cls-59" d="m185.02,294.64v24.08h-7.54v-11.3c0-.35-.31-.64-.71-.64h-12.91c-.12-.09-.26-.16-.42-.16H50.8c-.17,0-.3.07-.42.16h-12.9c-.41,0-.73.29-.73.64v11.3h-7.53v-24.08H11.71v98.42l17.52,14.34v-10.4h7.53v55.4h140.73v-55.4h7.54v10.4l17.5-14.34v-98.42h-17.5Z"/>
          <path class="cls-92" d="m185.59,294.43v24.08h-7.54v-11.3c0-.35-.31-.64-.71-.64h-12.91c-.12-.09-.26-.16-.42-.16H51.36c-.17,0-.3.07-.42.16h-12.9c-.41,0-.73.29-.73.64v11.3h-7.53v-24.08H12.27v98.42l17.52,14.34v-10.4h7.53v55.4h140.73v-55.4h7.54v10.4l17.5-14.34v-98.42h-17.5Z"/>
          <path class="cls-61" d="m186.15,294.22v24.08h-7.54v-11.3c0-.35-.31-.64-.71-.64h-12.91c-.12-.09-.26-.16-.42-.16H51.92c-.17,0-.3.07-.42.16h-12.9c-.41,0-.73.29-.73.64v11.3h-7.53v-24.08H12.83v98.42l17.52,14.34v-10.4h7.53v55.4h140.73v-55.4h7.54v10.4l17.5-14.34v-98.42h-17.5Z"/>
          <path class="cls-32" d="m186.71,294.02v24.08h-7.54v-11.3c0-.35-.31-.64-.71-.64h-12.91c-.12-.09-.26-.16-.42-.16H52.48c-.17,0-.3.07-.42.16h-12.9c-.41,0-.73.29-.73.64v11.3h-7.53v-24.08H13.39v98.42l17.52,14.34v-10.4h7.53v55.4h140.73v-55.4h7.54v10.4l17.5-14.34v-98.42h-17.5Z"/>
          <path class="cls-63" d="m187.27,293.81v24.08h-7.54v-11.3c0-.35-.31-.64-.71-.64h-12.91c-.12-.09-.26-.16-.42-.16H53.04c-.17,0-.3.07-.42.16h-12.9c-.41,0-.73.29-.73.64v11.3h-7.53v-24.08H13.95v98.42l17.52,14.34v-10.4h7.53v55.4h140.73v-55.4h7.54v10.4l17.5-14.34v-98.42h-17.5Z"/>
          <path class="cls-83" d="m187.83,293.6v24.08h-7.54v-11.3c0-.35-.31-.64-.71-.64h-12.91c-.12-.09-.26-.16-.42-.16H53.6c-.17,0-.3.07-.42.16h-12.9c-.41,0-.73.29-.73.64v11.3h-7.53v-24.08H14.51v98.42l17.52,14.34v-10.4h7.53v55.4h140.73v-55.4h7.54v10.4l17.5-14.34v-98.42h-17.5Z"/>
          <path class="cls-74" d="m188.39,293.4v24.08h-7.54v-11.3c0-.35-.31-.64-.71-.64h-12.91c-.12-.09-.26-.16-.42-.16H54.17c-.17,0-.3.07-.42.16h-12.9c-.41,0-.73.29-.73.64v11.3h-7.53v-24.08H15.07v98.42l17.52,14.34v-10.4h7.53v55.4h140.73v-55.4h7.54v10.4l17.5-14.34v-98.42h-17.5Z"/>
          <path class="cls-36" d="m188.95,293.19v24.08h-7.54v-11.3c0-.35-.31-.64-.71-.64h-12.91c-.12-.09-.26-.16-.42-.16H54.73c-.17,0-.3.07-.42.16h-12.9c-.41,0-.73.29-.73.64v11.3h-7.53v-24.08H15.63v98.42l17.52,14.34v-10.4h7.53v55.4h140.73v-55.4h7.54v10.4l17.5-14.34v-98.42h-17.5Z"/>
          <path class="cls-39" d="m189.51,292.98v24.08h-7.54v-11.3c0-.35-.31-.64-.71-.64h-12.91c-.12-.09-.26-.16-.42-.16H55.29c-.17,0-.3.07-.42.16h-12.9c-.41,0-.73.29-.73.64v11.3h-7.53v-24.08h-17.52v98.42l17.52,14.34v-10.4h7.53v55.4h140.73v-55.4h7.54v10.4l17.5-14.34v-98.42h-17.5Z"/>
          <path class="cls-28" d="m190.07,292.78v24.08h-7.54v-11.3c0-.35-.31-.64-.71-.64h-12.91c-.12-.09-.26-.16-.42-.16H55.85c-.17,0-.3.07-.42.16h-12.9c-.41,0-.73.29-.73.64v11.3h-7.53v-24.08h-17.52v98.42l17.52,14.34v-10.4h7.53v55.4h140.73v-55.4h7.54v10.4l17.5-14.34v-98.42h-17.5Z"/>
          <path class="cls-79" d="m190.63,292.57v24.08h-7.54v-11.3c0-.35-.31-.64-.71-.64h-12.91c-.12-.09-.26-.16-.42-.16H56.41c-.17,0-.3.07-.42.16h-12.9c-.41,0-.73.29-.73.64v11.3h-7.53v-24.08h-17.52v98.42l17.52,14.34v-10.4h7.53v55.4h140.73v-55.4h7.54v10.4l17.5-14.34v-98.42h-17.5Z"/>
          <path class="cls-89" d="m191.19,292.37v24.08h-7.54v-11.3c0-.35-.31-.64-.71-.64h-12.91c-.12-.09-.26-.16-.42-.16H56.97c-.17,0-.3.07-.42.16h-12.9c-.41,0-.73.29-.73.64v11.3h-7.53v-24.08h-17.52v98.42l17.52,14.34v-10.4h7.53v55.4h140.73v-55.4h7.54v10.4l17.5-14.34v-98.42h-17.5Z"/>
          <path class="cls-77" d="m191.75,292.16v24.08h-7.54v-11.3c0-.35-.31-.64-.71-.64h-12.91c-.12-.09-.26-.16-.42-.16H57.53c-.17,0-.3.07-.42.16h-12.9c-.41,0-.73.29-.73.64v11.3h-7.53v-24.08h-17.52v98.42l17.52,14.34v-10.4h7.53v55.4h140.73v-55.4h7.54v10.4l17.5-14.34v-98.42h-17.5Z"/>
          <path class="cls-27" d="m192.32,291.95v24.08h-7.54v-11.3c0-.35-.31-.64-.71-.64h-12.91c-.12-.09-.26-.16-.42-.16H58.09c-.17,0-.3.07-.42.16h-12.9c-.41,0-.73.29-.73.64v11.3h-7.53v-24.08h-17.52v98.42l17.52,14.34v-10.4h7.53v55.4h140.73v-55.4h7.54v10.4l17.5-14.34v-98.42h-17.5Z"/>
          <path class="cls-75" d="m192.88,291.75v24.08h-7.54v-11.3c0-.35-.31-.64-.71-.64h-12.91c-.12-.09-.26-.16-.42-.16H58.65c-.17,0-.3.07-.42.16h-12.9c-.41,0-.73.29-.73.64v11.3h-7.53v-24.08h-17.52v98.42l17.52,14.34v-10.4h7.53v55.4h140.73v-55.4h7.54v10.4l17.5-14.34v-98.42h-17.5Z"/>
          <path class="cls-86" d="m193.44,291.54v24.08h-7.54v-11.31c0-.35-.31-.64-.71-.64h-12.91c-.12-.09-.26-.16-.42-.16H59.21c-.17,0-.3.07-.42.16h-12.9c-.41,0-.73.29-.73.64v11.31h-7.53v-24.08h-17.52v98.42l17.52,14.34v-10.4h7.53v55.4h140.73v-55.4h7.54v10.4l17.5-14.34v-98.42h-17.5Z"/>
          <path class="cls-93" d="m194,291.33v24.08h-7.54v-11.31c0-.35-.31-.64-.71-.64h-12.91c-.12-.09-.26-.16-.42-.16H59.77c-.17,0-.3.07-.42.16h-12.9c-.41,0-.73.29-.73.64v11.31h-7.53v-24.08h-17.52v98.42l17.52,14.34v-10.4h7.53v55.4h140.73v-55.4h7.54v10.4l17.5-14.34v-98.42h-17.5Z"/>
          <path class="cls-88" d="m194.56,291.13v24.08h-7.54v-11.31c0-.35-.31-.64-.71-.64h-12.91c-.12-.09-.26-.16-.42-.16H60.33c-.17,0-.3.07-.42.16h-12.9c-.41,0-.73.29-.73.64v11.31h-7.53v-24.08h-17.52v98.42l17.52,14.34v-10.4h7.53v55.4h140.73v-55.4h7.54v10.4l17.5-14.34v-98.42h-17.5Z"/>
          <path class="cls-67" d="m195.12,290.92v24.08h-7.54v-11.31c0-.35-.31-.64-.71-.64h-12.91c-.12-.09-.26-.16-.42-.16H60.9c-.17,0-.3.07-.42.16h-12.9c-.41,0-.73.29-.73.64v11.31h-7.53v-24.08h-17.52v98.42l17.52,14.34v-10.4h7.53v55.4h140.73v-55.4h7.54v10.4l17.5-14.34v-98.42h-17.5Z"/>
          <path class="cls-57" d="m195.68,290.71v24.08h-7.54v-11.31c0-.35-.31-.64-.71-.64h-12.91c-.12-.09-.26-.16-.42-.16H61.46c-.17,0-.3.07-.42.16h-12.9c-.41,0-.73.29-.73.64v11.31h-7.53v-24.08h-17.52v98.42l17.52,14.34v-10.4h7.53v55.4h140.73v-55.4h7.54v10.4l17.5-14.34v-98.42h-17.5Z"/>
          <path class="cls-26" d="m196.24,290.51v24.08h-7.54v-11.31c0-.35-.31-.64-.71-.64h-12.91c-.12-.09-.26-.16-.42-.16H62.02c-.17,0-.3.07-.42.16h-12.9c-.41,0-.73.29-.73.64v11.31h-7.53v-24.08h-17.52v98.42l17.52,14.34v-10.4h7.53v55.4h140.73v-55.4h7.54v10.4l17.5-14.34v-98.42h-17.5Z"/>
          <path class="cls-72" d="m196.8,290.3v24.08h-7.54v-11.31c0-.35-.31-.64-.71-.64h-12.91c-.12-.09-.26-.16-.42-.16H62.58c-.17,0-.3.07-.42.16h-12.9c-.41,0-.73.29-.73.64v11.31h-7.53v-24.08h-17.52v98.42l17.52,14.34v-10.4h7.53v55.4h140.73v-55.4h7.54v10.4l17.5-14.34v-98.42h-17.5Z"/>
          <path class="cls-54" d="m197.36,290.09v24.08h-7.54v-11.31c0-.35-.31-.64-.71-.64h-12.91c-.12-.09-.26-.16-.42-.16H63.14c-.17,0-.3.07-.42.16h-12.9c-.41,0-.73.29-.73.64v11.31h-7.53v-24.08h-17.52v98.42l17.52,14.34v-10.4h7.53v55.4h140.73v-55.4h7.54v10.4l17.5-14.34v-98.42h-17.5Z"/>
          <path class="cls-53" d="m197.92,289.89v24.08h-7.54v-11.31c0-.35-.31-.64-.71-.64h-12.91c-.12-.09-.26-.16-.42-.16H63.7c-.17,0-.3.07-.42.16h-12.9c-.41,0-.73.29-.73.64v11.31h-7.53v-24.08h-17.52v98.42l17.52,14.34v-10.4h7.53v55.4h140.73v-55.4h7.54v10.4l17.5-14.34v-98.42h-17.5Z"/>
          <path class="cls-64" d="m198.48,289.68v24.08h-7.54v-11.31c0-.35-.31-.64-.71-.64h-12.91c-.12-.09-.26-.16-.42-.16h-112.64c-.17,0-.3.07-.42.16h-12.9c-.41,0-.73.29-.73.64v11.31h-7.53v-24.08h-17.52v98.42l17.52,14.34v-10.4h7.53v55.4h140.73v-55.4h7.54v10.4l17.5-14.34v-98.42h-17.5Z"/>
          <path class="cls-60" d="m199.05,289.48v24.08h-7.54v-11.31c0-.35-.31-.64-.71-.64h-12.91c-.12-.09-.26-.16-.42-.16h-112.64c-.17,0-.3.07-.42.16h-12.9c-.41,0-.73.29-.73.64v11.31h-7.53v-24.08h-17.52v98.42l17.52,14.34v-10.4h7.53v55.4h140.73v-55.4h7.54v10.4l17.5-14.34v-98.42h-17.5Z"/>
          <path class="cls-91" d="m199.61,289.27v24.08h-7.54v-11.31c0-.35-.31-.64-.71-.64h-12.91c-.12-.09-.26-.16-.42-.16h-112.64c-.17,0-.3.07-.42.16h-12.9c-.41,0-.73.29-.73.64v11.31h-7.53v-24.08h-17.52v98.42l17.52,14.34v-10.4h7.53v55.4h140.73v-55.4h7.54v10.4l17.5-14.34v-98.42h-17.5Z"/>
          <path class="cls-38" d="m200.17,289.06v24.08h-7.54v-11.31c0-.35-.31-.64-.71-.64h-12.91c-.12-.09-.26-.16-.42-.16h-112.64c-.17,0-.3.07-.42.16h-12.9c-.41,0-.73.29-.73.64v11.31h-7.53v-24.08h-17.52v98.42l17.52,14.34v-10.4h7.53v55.4h140.73v-55.4h7.54v10.4l17.5-14.34v-98.42h-17.5Z"/>
          <path class="cls-38" d="m200.73,288.86v24.08h-7.54v-11.31c0-.35-.31-.64-.71-.64h-12.91c-.12-.09-.26-.16-.42-.16h-112.64c-.17,0-.3.07-.42.16h-12.9c-.41,0-.73.29-.73.64v11.31h-7.53v-24.08h-17.52v98.42l17.52,14.34v-10.4h7.53v55.4h140.73v-55.4h7.54v10.4l17.5-14.34v-98.42h-17.5Z"/>
          <path class="cls-52" d="m201.29,288.65v24.08h-7.54v-11.31c0-.35-.31-.64-.71-.64h-12.91c-.12-.09-.26-.16-.42-.16h-112.64c-.17,0-.3.07-.42.16h-12.9c-.41,0-.73.29-.73.64v11.31h-7.53v-24.08h-17.52v98.42l17.52,14.34v-10.4h7.53v55.4h140.73v-55.4h7.54v10.4l17.5-14.34v-98.42h-17.5Z"/>
          <path class="cls-43" d="m201.85,288.44v24.08h-7.54v-11.31c0-.35-.31-.64-.71-.64h-12.91c-.12-.09-.26-.16-.42-.16h-112.64c-.17,0-.3.07-.42.16h-12.9c-.41,0-.73.29-.73.64v11.31h-7.53v-24.08h-17.52v98.42l17.52,14.34v-10.4h7.53v55.4h140.73v-55.4h7.54v10.4l17.5-14.34v-98.42h-17.5Z"/>
          <path class="cls-94" d="m202.41,288.24v24.08h-7.54v-11.31c0-.35-.31-.64-.71-.64h-12.91c-.12-.09-.26-.16-.42-.16h-112.64c-.17,0-.3.07-.42.16h-12.9c-.41,0-.73.29-.73.64v11.31h-7.53v-24.08h-17.52v98.42l17.52,14.34v-10.4h7.53v55.4h140.73v-55.4h7.54v10.4l17.5-14.34v-98.42h-17.5Z"/>
          <path class="cls-45" d="m202.97,288.03v24.08h-7.54v-11.31c0-.35-.31-.64-.71-.64h-12.91c-.12-.09-.26-.16-.42-.16h-112.64c-.17,0-.3.07-.42.16h-12.9c-.41,0-.73.29-.73.64v11.31h-7.53v-24.08h-17.52v98.42l17.52,14.34v-10.4h7.53v55.4h140.73v-55.4h7.54v10.4l17.5-14.34v-98.42h-17.5Z"/>
          <path class="cls-25" d="m203.53,287.82v24.08h-7.54v-11.31c0-.35-.31-.64-.71-.64h-12.91c-.12-.09-.26-.16-.42-.16h-112.64c-.17,0-.3.07-.42.16h-12.9c-.41,0-.73.29-.73.64v11.31h-7.53v-24.08h-17.52v98.42l17.52,14.34v-10.4h7.53v55.4h140.73v-55.4h7.54v10.4l17.5-14.34v-98.42h-17.5Z"/>
          <path class="cls-69" d="m204.09,287.62v24.08h-7.54v-11.31c0-.35-.31-.64-.71-.64h-12.91c-.12-.09-.26-.16-.42-.16h-112.64c-.17,0-.3.07-.42.16h-12.9c-.41,0-.73.29-.73.64v11.31h-7.53v-24.08h-17.52v98.42l17.52,14.34v-10.4h7.53v55.4h140.73v-55.4h7.54v10.4l17.5-14.34v-98.42h-17.5Z"/>
          <path class="cls-33" d="m204.65,287.41v24.08h-7.54v-11.31c0-.35-.31-.64-.71-.64h-12.91c-.12-.09-.26-.16-.42-.16h-112.64c-.17,0-.3.07-.42.16h-12.9c-.41,0-.73.29-.73.64v11.31h-7.53v-24.08h-17.52v98.42l17.52,14.34v-10.4h7.53v55.4h140.73v-55.4h7.54v10.4l17.5-14.34v-98.42h-17.5Z"/>
          <path class="cls-56" d="m205.21,287.2v24.08h-7.54v-11.31c0-.35-.31-.64-.71-.64h-12.91c-.12-.09-.26-.16-.42-.16h-112.64c-.17,0-.3.07-.42.16h-12.9c-.41,0-.73.29-.73.64v11.31h-7.53v-24.08h-17.52v98.42l17.52,14.34v-10.4h7.53v55.4h140.73v-55.4h7.54v10.4l17.5-14.34v-98.42h-17.5Z"/>
          <path class="cls-81" d="m205.78,287v24.08h-7.54v-11.31c0-.35-.31-.64-.71-.64h-12.91c-.12-.09-.26-.16-.42-.16h-112.64c-.17,0-.3.07-.42.16h-12.9c-.41,0-.73.29-.73.64v11.31h-7.53v-24.08h-17.52v98.42l17.52,14.34v-10.4h7.53v55.4h140.73v-55.4h7.54v10.4l17.5-14.34v-98.42h-17.5Z"/>
          <path class="cls-35" d="m206.34,286.79v24.08h-7.54v-11.31c0-.35-.31-.64-.71-.64h-12.91c-.12-.09-.26-.16-.42-.16h-112.64c-.17,0-.3.07-.42.16h-12.9c-.41,0-.73.29-.73.64v11.31h-7.53v-24.08h-17.52v98.42l17.52,14.34v-10.4h7.53v55.4h140.73v-55.4h7.54v10.4l17.49-14.34v-98.42h-17.49Z"/>
          <path class="cls-51" d="m206.9,286.59v24.08h-7.54v-11.31c0-.35-.31-.64-.71-.64h-12.91c-.12-.09-.26-.16-.42-.16h-112.64c-.17,0-.3.07-.42.16h-12.9c-.41,0-.73.29-.73.64v11.31h-7.53v-24.08h-17.52v98.42l17.52,14.34v-10.4h7.53v55.4h140.73v-55.4h7.54v10.4l17.49-14.34v-98.42h-17.49Z"/>
          <path class="cls-41" d="m207.46,286.38v24.08h-7.54v-11.31c0-.35-.31-.64-.71-.64h-12.91c-.12-.09-.26-.16-.42-.16h-112.64c-.17,0-.3.07-.42.16h-12.9c-.41,0-.73.29-.73.64v11.31h-7.53v-24.08h-17.52v98.42l17.52,14.34v-10.4h7.53v55.4h140.73v-55.4h7.54v10.4l17.49-14.34v-98.42h-17.49Z"/>
          <path class="cls-68" d="m208.02,286.17v24.08h-7.54v-11.31c0-.35-.31-.64-.71-.64h-12.91c-.12-.09-.26-.16-.42-.16h-112.64c-.17,0-.3.07-.42.16h-12.9c-.41,0-.73.29-.73.64v11.31h-7.53v-24.08h-17.52v98.42l17.52,14.34v-10.4h7.53v55.4h140.73v-55.4h7.54v10.4l17.49-14.34v-98.42h-17.49Z"/>
          <path class="cls-55" d="m208.58,285.97v24.08h-7.54v-11.31c0-.35-.31-.64-.71-.64h-12.91c-.12-.09-.26-.16-.42-.16h-112.64c-.17,0-.3.07-.42.16h-12.9c-.41,0-.73.29-.73.64v11.31h-7.53v-24.08h-17.52v98.42l17.52,14.34v-10.4h7.53v55.4h140.73v-55.4h7.54v10.4l17.49-14.34v-98.42h-17.49Z"/>
          <path class="cls-66" d="m209.14,285.76v24.08h-7.54v-11.31c0-.35-.31-.64-.71-.64h-12.91c-.12-.09-.26-.16-.42-.16h-112.64c-.17,0-.3.07-.42.16h-12.9c-.41,0-.73.29-.73.64v11.31h-7.53v-24.08h-17.52v98.42l17.52,14.34v-10.4h7.53v55.4h140.73v-55.4h7.54v10.4l17.49-14.34v-98.42h-17.49Z"/>
          <path class="cls-84" d="m209.7,285.55v24.08h-7.54v-11.31c0-.35-.31-.64-.71-.64h-12.91c-.12-.09-.26-.16-.42-.16h-112.64c-.17,0-.3.07-.42.16h-12.9c-.41,0-.73.29-.73.64v11.31h-7.53v-24.08h-17.52v98.42l17.52,14.34v-10.4h7.53v55.4h140.73v-55.4h7.54v10.4l17.49-14.34v-98.42h-17.49Z"/>
          <path class="cls-31" d="m210.26,285.35v24.08h-7.54v-11.31c0-.35-.31-.64-.71-.64h-12.91c-.12-.09-.26-.16-.42-.16h-112.64c-.17,0-.3.07-.42.16h-12.9c-.41,0-.73.29-.73.64v11.31h-7.53v-24.08h-17.52v98.42l17.52,14.34v-10.4h7.53v55.4h140.73v-55.4h7.54v10.4l17.49-14.34v-98.42h-17.49Z"/>
          <path class="cls-87" d="m210.82,285.14v24.08h-7.54v-11.31c0-.35-.31-.64-.71-.64h-12.91c-.12-.09-.26-.16-.42-.16h-112.64c-.17,0-.3.07-.42.16h-12.9c-.41,0-.73.29-.73.64v11.31h-7.53v-24.08h-17.52v98.42l17.52,14.34v-10.4h7.53v55.4h140.73v-55.4h7.54v10.4l17.49-14.34v-98.42h-17.49Z"/>
          <path class="cls-50" d="m211.38,284.93v24.08h-7.54v-11.31c0-.35-.31-.64-.71-.64h-12.91c-.12-.09-.26-.16-.42-.16h-112.64c-.17,0-.3.07-.42.16h-12.9c-.41,0-.73.29-.73.64v11.31h-7.53v-24.08h-17.52v98.42l17.52,14.34v-10.4h7.53v55.4h140.73v-55.4h7.54v10.4l17.49-14.34v-98.42h-17.49Z"/>
          <path class="cls-78" d="m211.94,284.73v24.08h-7.54v-11.31c0-.35-.31-.64-.71-.64h-12.91c-.12-.09-.26-.16-.42-.16h-112.64c-.17,0-.3.07-.42.16h-12.9c-.41,0-.73.29-.73.64v11.31h-7.53v-24.08h-17.52v98.42l17.52,14.34v-10.4h7.53v55.4h140.73v-55.4h7.54v10.4l17.49-14.34v-98.42h-17.49Z"/>
          <path class="cls-82" d="m212.51,284.52v24.08h-7.54v-11.31c0-.35-.31-.64-.71-.64h-12.91c-.12-.09-.26-.16-.42-.16h-112.64c-.17,0-.3.07-.42.16h-12.9c-.41,0-.73.29-.73.64v11.31h-7.53v-24.08h-17.52v98.42l17.52,14.34v-10.4h7.53v55.4h140.73v-55.4h7.54v10.4l17.49-14.34v-98.42h-17.49Z"/>
          <path class="cls-73" d="m213.07,284.31v24.08h-7.54v-11.31c0-.35-.31-.64-.71-.64h-12.91c-.12-.09-.26-.16-.42-.16h-112.64c-.17,0-.3.07-.42.16h-12.9c-.41,0-.73.29-.73.64v11.31h-7.53v-24.08h-17.52v98.42l17.52,14.34v-10.4h7.53v55.4h140.73v-55.4h7.54v10.4l17.49-14.34v-98.42h-17.49Z"/>
          <path class="cls-30" d="m213.63,284.11v24.08h-7.54v-11.31c0-.35-.31-.64-.71-.64h-12.91c-.12-.09-.26-.16-.42-.16h-112.64c-.17,0-.3.07-.42.16h-12.9c-.41,0-.73.29-.73.64v11.31h-7.53v-24.08h-17.52v98.42l17.52,14.34v-10.4h7.53v55.4h140.73v-55.4h7.54v10.4l17.49-14.34v-98.42h-17.49Z"/>
          <path class="cls-34" d="m214.19,283.9v24.08h-7.54v-11.31c0-.35-.31-.64-.71-.64h-12.91c-.12-.09-.26-.16-.42-.16h-112.64c-.17,0-.3.07-.42.16h-12.9c-.41,0-.73.29-.73.64v11.31h-7.53v-24.08h-17.52v98.42l17.52,14.34v-10.4h7.53v55.4h140.73v-55.4h7.54v10.4l17.49-14.34v-98.42h-17.49Z"/>
          <path class="cls-42" d="m214.75,283.7v24.08h-7.54v-11.31c0-.35-.31-.64-.71-.64h-12.91c-.12-.09-.26-.16-.42-.16h-112.64c-.17,0-.3.07-.42.16h-12.9c-.41,0-.73.29-.73.64v11.31h-7.53v-24.08h-17.52v98.42l17.52,14.34v-10.4h7.53v55.4h140.73v-55.4h7.54v10.4l17.49-14.34v-98.42h-17.49Z"/>
          <path class="cls-58" d="m215.31,283.49v24.08h-7.54v-11.31c0-.35-.31-.64-.71-.64h-12.91c-.12-.09-.26-.16-.42-.16h-112.64c-.17,0-.3.07-.42.16h-12.9c-.41,0-.73.29-.73.64v11.31h-7.53v-24.08h-17.52v98.42l17.52,14.34v-10.4h7.53v55.4h140.73v-55.4h7.54v10.4l17.49-14.34v-98.42h-17.49Z"/>
          <path class="cls-44" d="m215.87,283.28v24.08h-7.54v-11.31c0-.35-.31-.64-.71-.64h-12.91c-.12-.09-.26-.16-.42-.16h-112.64c-.17,0-.3.07-.42.16h-12.9c-.41,0-.73.29-.73.64v11.31h-7.53v-24.08h-17.52v98.42l17.52,14.34v-10.4h7.53v55.4h140.73v-55.4h7.54v10.4l17.49-14.34v-98.42h-17.49Z"/>
          <path class="cls-85" d="m216.43,283.08v24.08h-7.54v-11.31c0-.35-.31-.64-.71-.64h-12.91c-.12-.09-.26-.16-.42-.16h-112.64c-.17,0-.3.07-.42.16h-12.9c-.41,0-.73.29-.73.64v11.31h-7.53v-24.08h-17.52v98.42l17.52,14.34v-10.4h7.53v55.4h140.73v-55.4h7.54v10.4l17.49-14.34v-98.42h-17.49Z"/>
        </g>
        <g>
          <rect class="cls-76" x="68.16" y="393.77" width="140.73" height="47.05"/>
          <rect class="cls-65" x="51.87" y="371.39" width="173.31" height="14.04"/>
          <rect class="cls-65" x="51.87" y="307.16" width="173.31" height="14.04"/>
          <polygon class="cls-18" points="43.11 283.08 60.63 283.08 60.63 395.83 43.11 381.49 43.11 283.08"/>
          <polygon class="cls-13" points="216.43 283.08 233.92 283.08 233.92 381.49 216.43 395.83 216.43 283.08"/>
          <path class="cls-46" d="m82.2,391.29c-.09,0-.08.07-.17.09h-13.16c-.4,0-.71.11-.71.25v38.13c0,.14.31.25.71.25h12.94c.12.08.17.21.39.21h112.64c.22,0,.27-.13.39-.21h12.94c.4,0,.72-.11.72-.25v-38.13c0-.14-.32-.25-.72-.25h-13.16c-.08-.02-.08-.09-.17-.09h-112.64Zm.71,33.72v-5.12h111.22v5.12h-111.22Zm0-10.32v-5.12h111.22v5.12h-111.22Zm0-15.45h111.22v5.13h-111.22v-5.13Z"/>
          <path class="cls-6" d="m208.17,295.21h-12.91c-.12-.09-.26-.16-.42-.16h-112.64c-.17,0-.3.07-.42.16h-12.9c-.41,0-.73.29-.73.64v97.92c0,.34.32.62.73.62h13.22l.11.04h112.64l.11-.04h13.22c.4,0,.71-.28.71-.62v-97.92c0-.35-.31-.64-.71-.64Zm-125.26,68.75v-3.96h111.22v3.96h-111.22Zm111.22-38.41v3.96h-111.22v-3.96h111.22Zm-111.22,21.19v-3.97h111.22v3.97h-111.22Zm111.22-34.44h-111.22v-3.98h111.22v3.98Zm-111.22,64.93h111.22v3.97h-111.22v-3.97Z"/>
          <rect class="cls-17" x="68.16" y="429.76" width="140.73" height="11.07"/>
        </g>
        <path class="cls-70" d="m215.08,282.06v25.1h-4.85v-11.31c0-.91-.92-1.65-2.05-1.65h-12.49c-.32-.12-.61-.15-.84-.15h-112.64c-.29,0-.57.05-.83.15h-12.5c-1.13,0-2.05.74-2.05,1.65v11.31h-4.85v-25.1h-20.2v99.83l20.2,16.53v-13h4.85v8.35c0,.13.14.21.17.33v34.64h-.17v13.09h143.41v-13.09h-.17v-34.64c.04-.12.17-.2.17-.33v-8.35h4.85v13l20.19-16.53v-99.83h-20.19Zm-130.83,46.43v-1.94h108.53v1.94h-108.53Zm0,17.22v-1.95h108.53v1.95h-108.53Zm0,17.23v-1.95h108.53v1.95h-108.53Zm-22.28,8.44v-50.19h4.85v50.19h-4.85Zm148.26,0v-50.19h4.85v50.19h-4.85Z"/>
      </g>
      <g>
        <g class="cls-71">
          <path class="cls-29" d="m441.31,295.05v24.08h-7.54v-11.3c0-.35-.31-.64-.71-.64h-12.91c-.12-.09-.25-.16-.42-.16h-112.64c-.17,0-.31.07-.43.16h-12.9c-.41,0-.72.29-.72.64v11.3h-7.54v-24.08h-17.52v98.42l17.52,14.34v-10.4h7.54v55.4h140.72v-55.4h7.54v10.4l17.5-14.34v-98.42h-17.5Z"/>
          <path class="cls-90" d="m441.87,294.84v24.08h-7.54v-11.3c0-.35-.31-.64-.71-.64h-12.91c-.12-.09-.25-.16-.42-.16h-112.64c-.17,0-.31.07-.43.16h-12.9c-.41,0-.72.29-.72.64v11.3h-7.54v-24.08h-17.52v98.42l17.52,14.34v-10.4h7.54v55.4h140.72v-55.4h7.54v10.4l17.5-14.34v-98.42h-17.5Z"/>
          <path class="cls-59" d="m442.43,294.64v24.08h-7.54v-11.3c0-.35-.31-.64-.71-.64h-12.91c-.12-.09-.25-.16-.42-.16h-112.64c-.17,0-.31.07-.43.16h-12.9c-.41,0-.72.29-.72.64v11.3h-7.54v-24.08h-17.52v98.42l17.52,14.34v-10.4h7.54v55.4h140.72v-55.4h7.54v10.4l17.5-14.34v-98.42h-17.5Z"/>
          <path class="cls-92" d="m442.99,294.43v24.08h-7.54v-11.3c0-.35-.31-.64-.71-.64h-12.91c-.12-.09-.25-.16-.42-.16h-112.64c-.17,0-.31.07-.43.16h-12.9c-.41,0-.72.29-.72.64v11.3h-7.54v-24.08h-17.52v98.42l17.52,14.34v-10.4h7.54v55.4h140.72v-55.4h7.54v10.4l17.5-14.34v-98.42h-17.5Z"/>
          <path class="cls-61" d="m443.55,294.22v24.08h-7.54v-11.3c0-.35-.31-.64-.71-.64h-12.91c-.12-.09-.25-.16-.42-.16h-112.64c-.17,0-.31.07-.43.16h-12.9c-.41,0-.72.29-.72.64v11.3h-7.54v-24.08h-17.52v98.42l17.52,14.34v-10.4h7.54v55.4h140.72v-55.4h7.54v10.4l17.5-14.34v-98.42h-17.5Z"/>
          <path class="cls-32" d="m444.11,294.02v24.08h-7.54v-11.3c0-.35-.31-.64-.71-.64h-12.91c-.12-.09-.25-.16-.42-.16h-112.64c-.17,0-.31.07-.43.16h-12.9c-.41,0-.72.29-.72.64v11.3h-7.54v-24.08h-17.52v98.42l17.52,14.34v-10.4h7.54v55.4h140.72v-55.4h7.54v10.4l17.5-14.34v-98.42h-17.5Z"/>
          <path class="cls-63" d="m444.68,293.81v24.08h-7.54v-11.3c0-.35-.31-.64-.71-.64h-12.91c-.12-.09-.25-.16-.42-.16h-112.64c-.17,0-.31.07-.43.16h-12.9c-.41,0-.72.29-.72.64v11.3h-7.54v-24.08h-17.52v98.42l17.52,14.34v-10.4h7.54v55.4h140.72v-55.4h7.54v10.4l17.5-14.34v-98.42h-17.5Z"/>
          <path class="cls-83" d="m445.24,293.6v24.08h-7.54v-11.3c0-.35-.31-.64-.71-.64h-12.91c-.12-.09-.25-.16-.42-.16h-112.64c-.17,0-.31.07-.43.16h-12.9c-.41,0-.72.29-.72.64v11.3h-7.54v-24.08h-17.52v98.42l17.52,14.34v-10.4h7.54v55.4h140.72v-55.4h7.54v10.4l17.5-14.34v-98.42h-17.5Z"/>
          <path class="cls-74" d="m445.8,293.4v24.08h-7.54v-11.3c0-.35-.31-.64-.71-.64h-12.91c-.12-.09-.25-.16-.42-.16h-112.64c-.17,0-.31.07-.43.16h-12.9c-.41,0-.72.29-.72.64v11.3h-7.54v-24.08h-17.52v98.42l17.52,14.34v-10.4h7.54v55.4h140.72v-55.4h7.54v10.4l17.5-14.34v-98.42h-17.5Z"/>
          <path class="cls-36" d="m446.36,293.19v24.08h-7.54v-11.3c0-.35-.31-.64-.71-.64h-12.91c-.12-.09-.25-.16-.42-.16h-112.64c-.17,0-.31.07-.43.16h-12.9c-.41,0-.72.29-.72.64v11.3h-7.54v-24.08h-17.52v98.42l17.52,14.34v-10.4h7.54v55.4h140.72v-55.4h7.54v10.4l17.5-14.34v-98.42h-17.5Z"/>
          <path class="cls-39" d="m446.92,292.98v24.08h-7.54v-11.3c0-.35-.31-.64-.71-.64h-12.91c-.12-.09-.25-.16-.42-.16h-112.64c-.17,0-.31.07-.43.16h-12.9c-.41,0-.72.29-.72.64v11.3h-7.54v-24.08h-17.52v98.42l17.52,14.34v-10.4h7.54v55.4h140.72v-55.4h7.54v10.4l17.5-14.34v-98.42h-17.5Z"/>
          <path class="cls-28" d="m447.48,292.78v24.08h-7.54v-11.3c0-.35-.31-.64-.71-.64h-12.91c-.12-.09-.25-.16-.42-.16h-112.64c-.17,0-.31.07-.43.16h-12.9c-.41,0-.72.29-.72.64v11.3h-7.54v-24.08h-17.52v98.42l17.52,14.34v-10.4h7.54v55.4h140.72v-55.4h7.54v10.4l17.5-14.34v-98.42h-17.5Z"/>
          <path class="cls-79" d="m448.04,292.57v24.08h-7.54v-11.3c0-.35-.31-.64-.71-.64h-12.91c-.12-.09-.25-.16-.42-.16h-112.64c-.17,0-.31.07-.43.16h-12.9c-.41,0-.72.29-.72.64v11.3h-7.54v-24.08h-17.52v98.42l17.52,14.34v-10.4h7.54v55.4h140.72v-55.4h7.54v10.4l17.5-14.34v-98.42h-17.5Z"/>
          <path class="cls-89" d="m448.6,292.37v24.08h-7.54v-11.3c0-.35-.31-.64-.71-.64h-12.91c-.12-.09-.25-.16-.42-.16h-112.64c-.17,0-.31.07-.43.16h-12.9c-.41,0-.72.29-.72.64v11.3h-7.54v-24.08h-17.52v98.42l17.52,14.34v-10.4h7.54v55.4h140.72v-55.4h7.54v10.4l17.5-14.34v-98.42h-17.5Z"/>
          <path class="cls-77" d="m449.16,292.16v24.08h-7.54v-11.3c0-.35-.31-.64-.71-.64h-12.91c-.12-.09-.25-.16-.42-.16h-112.64c-.17,0-.31.07-.43.16h-12.9c-.41,0-.72.29-.72.64v11.3h-7.54v-24.08h-17.52v98.42l17.52,14.34v-10.4h7.54v55.4h140.72v-55.4h7.54v10.4l17.5-14.34v-98.42h-17.5Z"/>
          <path class="cls-27" d="m449.72,291.95v24.08h-7.54v-11.3c0-.35-.31-.64-.71-.64h-12.91c-.12-.09-.25-.16-.42-.16h-112.64c-.17,0-.31.07-.43.16h-12.9c-.41,0-.72.29-.72.64v11.3h-7.53v-24.08h-17.52v98.42l17.52,14.34v-10.4h7.53v55.4h140.72v-55.4h7.54v10.4l17.5-14.34v-98.42h-17.5Z"/>
          <path class="cls-75" d="m450.28,291.75v24.08h-7.54v-11.3c0-.35-.31-.64-.71-.64h-12.91c-.12-.09-.25-.16-.42-.16h-112.64c-.17,0-.31.07-.43.16h-12.9c-.41,0-.72.29-.72.64v11.3h-7.53v-24.08h-17.52v98.42l17.52,14.34v-10.4h7.53v55.4h140.72v-55.4h7.54v10.4l17.5-14.34v-98.42h-17.5Z"/>
          <path class="cls-86" d="m450.84,291.54v24.08h-7.54v-11.31c0-.35-.31-.64-.71-.64h-12.91c-.12-.09-.25-.16-.42-.16h-112.64c-.17,0-.31.07-.43.16h-12.9c-.41,0-.72.29-.72.64v11.31h-7.53v-24.08h-17.52v98.42l17.52,14.34v-10.4h7.53v55.4h140.72v-55.4h7.54v10.4l17.5-14.34v-98.42h-17.5Z"/>
          <path class="cls-93" d="m451.41,291.33v24.08h-7.54v-11.31c0-.35-.31-.64-.71-.64h-12.91c-.12-.09-.25-.16-.42-.16h-112.64c-.17,0-.31.07-.43.16h-12.9c-.41,0-.72.29-.72.64v11.31h-7.53v-24.08h-17.52v98.42l17.52,14.34v-10.4h7.53v55.4h140.72v-55.4h7.54v10.4l17.5-14.34v-98.42h-17.5Z"/>
          <path class="cls-88" d="m451.97,291.13v24.08h-7.54v-11.31c0-.35-.31-.64-.71-.64h-12.91c-.12-.09-.25-.16-.42-.16h-112.64c-.17,0-.31.07-.43.16h-12.9c-.41,0-.72.29-.72.64v11.31h-7.53v-24.08h-17.52v98.42l17.52,14.34v-10.4h7.53v55.4h140.72v-55.4h7.54v10.4l17.5-14.34v-98.42h-17.5Z"/>
          <path class="cls-67" d="m452.53,290.92v24.08h-7.54v-11.31c0-.35-.31-.64-.71-.64h-12.91c-.12-.09-.25-.16-.42-.16h-112.64c-.17,0-.31.07-.43.16h-12.9c-.41,0-.72.29-.72.64v11.31h-7.53v-24.08h-17.52v98.42l17.52,14.34v-10.4h7.53v55.4h140.72v-55.4h7.54v10.4l17.5-14.34v-98.42h-17.5Z"/>
          <path class="cls-57" d="m453.09,290.71v24.08h-7.54v-11.31c0-.35-.31-.64-.71-.64h-12.91c-.12-.09-.25-.16-.42-.16h-112.64c-.17,0-.31.07-.43.16h-12.9c-.41,0-.72.29-.72.64v11.31h-7.53v-24.08h-17.52v98.42l17.52,14.34v-10.4h7.53v55.4h140.72v-55.4h7.54v10.4l17.5-14.34v-98.42h-17.5Z"/>
          <path class="cls-26" d="m453.65,290.51v24.08h-7.54v-11.31c0-.35-.31-.64-.71-.64h-12.91c-.12-.09-.25-.16-.42-.16h-112.64c-.17,0-.31.07-.43.16h-12.9c-.41,0-.72.29-.72.64v11.31h-7.53v-24.08h-17.52v98.42l17.52,14.34v-10.4h7.53v55.4h140.72v-55.4h7.54v10.4l17.5-14.34v-98.42h-17.5Z"/>
          <path class="cls-72" d="m454.21,290.3v24.08h-7.54v-11.31c0-.35-.31-.64-.71-.64h-12.91c-.12-.09-.25-.16-.42-.16h-112.64c-.17,0-.31.07-.43.16h-12.9c-.41,0-.72.29-.72.64v11.31h-7.53v-24.08h-17.52v98.42l17.52,14.34v-10.4h7.53v55.4h140.72v-55.4h7.54v10.4l17.5-14.34v-98.42h-17.5Z"/>
          <path class="cls-54" d="m454.77,290.09v24.08h-7.54v-11.31c0-.35-.31-.64-.71-.64h-12.91c-.12-.09-.25-.16-.42-.16h-112.64c-.17,0-.31.07-.43.16h-12.9c-.41,0-.72.29-.72.64v11.31h-7.53v-24.08h-17.52v98.42l17.52,14.34v-10.4h7.53v55.4h140.73v-55.4h7.54v10.4l17.5-14.34v-98.42h-17.5Z"/>
          <path class="cls-53" d="m455.33,289.89v24.08h-7.54v-11.31c0-.35-.31-.64-.71-.64h-12.91c-.12-.09-.25-.16-.42-.16h-112.64c-.17,0-.31.07-.43.16h-12.9c-.41,0-.72.29-.72.64v11.31h-7.53v-24.08h-17.52v98.42l17.52,14.34v-10.4h7.53v55.4h140.73v-55.4h7.54v10.4l17.5-14.34v-98.42h-17.5Z"/>
          <path class="cls-64" d="m455.89,289.68v24.08h-7.54v-11.31c0-.35-.31-.64-.71-.64h-12.91c-.12-.09-.25-.16-.42-.16h-112.64c-.17,0-.31.07-.43.16h-12.9c-.41,0-.72.29-.72.64v11.31h-7.53v-24.08h-17.52v98.42l17.52,14.34v-10.4h7.53v55.4h140.73v-55.4h7.54v10.4l17.5-14.34v-98.42h-17.5Z"/>
          <path class="cls-60" d="m456.45,289.48v24.08h-7.54v-11.31c0-.35-.31-.64-.71-.64h-12.91c-.12-.09-.25-.16-.42-.16h-112.64c-.17,0-.31.07-.43.16h-12.9c-.41,0-.72.29-.72.64v11.31h-7.53v-24.08h-17.52v98.42l17.52,14.34v-10.4h7.53v55.4h140.73v-55.4h7.54v10.4l17.5-14.34v-98.42h-17.5Z"/>
          <path class="cls-91" d="m457.01,289.27v24.08h-7.54v-11.31c0-.35-.31-.64-.71-.64h-12.91c-.12-.09-.25-.16-.42-.16h-112.64c-.17,0-.31.07-.43.16h-12.9c-.41,0-.72.29-.72.64v11.31h-7.53v-24.08h-17.52v98.42l17.52,14.34v-10.4h7.53v55.4h140.73v-55.4h7.54v10.4l17.5-14.34v-98.42h-17.5Z"/>
          <path class="cls-38" d="m457.57,289.06v24.08h-7.54v-11.31c0-.35-.31-.64-.71-.64h-12.91c-.12-.09-.25-.16-.42-.16h-112.64c-.17,0-.31.07-.43.16h-12.9c-.41,0-.72.29-.72.64v11.31h-7.53v-24.08h-17.52v98.42l17.52,14.34v-10.4h7.53v55.4h140.73v-55.4h7.54v10.4l17.5-14.34v-98.42h-17.5Z"/>
          <path class="cls-38" d="m458.14,288.86v24.08h-7.54v-11.31c0-.35-.31-.64-.71-.64h-12.91c-.12-.09-.25-.16-.42-.16h-112.64c-.17,0-.31.07-.43.16h-12.9c-.41,0-.72.29-.72.64v11.31h-7.53v-24.08h-17.52v98.42l17.52,14.34v-10.4h7.53v55.4h140.73v-55.4h7.54v10.4l17.5-14.34v-98.42h-17.5Z"/>
          <path class="cls-52" d="m458.7,288.65v24.08h-7.54v-11.31c0-.35-.31-.64-.71-.64h-12.91c-.12-.09-.25-.16-.42-.16h-112.64c-.17,0-.31.07-.43.16h-12.9c-.41,0-.72.29-.72.64v11.31h-7.53v-24.08h-17.52v98.42l17.52,14.34v-10.4h7.53v55.4h140.73v-55.4h7.54v10.4l17.5-14.34v-98.42h-17.5Z"/>
          <path class="cls-43" d="m459.26,288.44v24.08h-7.54v-11.31c0-.35-.31-.64-.71-.64h-12.91c-.12-.09-.25-.16-.42-.16h-112.64c-.17,0-.31.07-.43.16h-12.9c-.41,0-.72.29-.72.64v11.31h-7.53v-24.08h-17.52v98.42l17.52,14.34v-10.4h7.53v55.4h140.73v-55.4h7.54v10.4l17.5-14.34v-98.42h-17.5Z"/>
          <path class="cls-94" d="m459.82,288.24v24.08h-7.54v-11.31c0-.35-.31-.64-.71-.64h-12.91c-.12-.09-.25-.16-.42-.16h-112.64c-.17,0-.31.07-.43.16h-12.9c-.41,0-.72.29-.72.64v11.31h-7.53v-24.08h-17.52v98.42l17.52,14.34v-10.4h7.53v55.4h140.73v-55.4h7.54v10.4l17.5-14.34v-98.42h-17.5Z"/>
          <path class="cls-45" d="m460.38,288.03v24.08h-7.54v-11.31c0-.35-.31-.64-.71-.64h-12.91c-.12-.09-.25-.16-.42-.16h-112.64c-.17,0-.31.07-.43.16h-12.9c-.41,0-.72.29-.72.64v11.31h-7.53v-24.08h-17.52v98.42l17.52,14.34v-10.4h7.53v55.4h140.73v-55.4h7.54v10.4l17.5-14.34v-98.42h-17.5Z"/>
          <path class="cls-25" d="m460.94,287.82v24.08h-7.54v-11.31c0-.35-.31-.64-.71-.64h-12.91c-.12-.09-.25-.16-.42-.16h-112.64c-.17,0-.31.07-.43.16h-12.9c-.41,0-.72.29-.72.64v11.31h-7.53v-24.08h-17.52v98.42l17.52,14.34v-10.4h7.53v55.4h140.73v-55.4h7.54v10.4l17.5-14.34v-98.42h-17.5Z"/>
          <path class="cls-69" d="m461.5,287.62v24.08h-7.54v-11.31c0-.35-.31-.64-.71-.64h-12.91c-.12-.09-.25-.16-.42-.16h-112.64c-.17,0-.31.07-.43.16h-12.9c-.41,0-.73.29-.73.64v11.31h-7.53v-24.08h-17.52v98.42l17.52,14.34v-10.4h7.53v55.4h140.73v-55.4h7.54v10.4l17.5-14.34v-98.42h-17.5Z"/>
          <path class="cls-33" d="m462.06,287.41v24.08h-7.54v-11.31c0-.35-.31-.64-.71-.64h-12.91c-.12-.09-.26-.16-.42-.16h-112.64c-.17,0-.31.07-.43.16h-12.9c-.41,0-.73.29-.73.64v11.31h-7.53v-24.08h-17.52v98.42l17.52,14.34v-10.4h7.53v55.4h140.73v-55.4h7.54v10.4l17.5-14.34v-98.42h-17.5Z"/>
          <path class="cls-56" d="m462.62,287.2v24.08h-7.54v-11.31c0-.35-.31-.64-.71-.64h-12.91c-.12-.09-.26-.16-.42-.16h-112.64c-.17,0-.31.07-.43.16h-12.9c-.41,0-.73.29-.73.64v11.31h-7.53v-24.08h-17.52v98.42l17.52,14.34v-10.4h7.53v55.4h140.73v-55.4h7.54v10.4l17.5-14.34v-98.42h-17.5Z"/>
          <path class="cls-81" d="m463.18,287v24.08h-7.54v-11.31c0-.35-.31-.64-.71-.64h-12.91c-.12-.09-.26-.16-.42-.16h-112.64c-.17,0-.31.07-.43.16h-12.9c-.41,0-.73.29-.73.64v11.31h-7.53v-24.08h-17.52v98.42l17.52,14.34v-10.4h7.53v55.4h140.73v-55.4h7.54v10.4l17.5-14.34v-98.42h-17.5Z"/>
          <path class="cls-35" d="m463.74,286.79v24.08h-7.54v-11.31c0-.35-.31-.64-.71-.64h-12.91c-.12-.09-.26-.16-.42-.16h-112.64c-.17,0-.31.07-.43.16h-12.9c-.41,0-.73.29-.73.64v11.31h-7.53v-24.08h-17.52v98.42l17.52,14.34v-10.4h7.53v55.4h140.73v-55.4h7.54v10.4l17.5-14.34v-98.42h-17.5Z"/>
          <path class="cls-51" d="m464.3,286.59v24.08h-7.54v-11.31c0-.35-.31-.64-.71-.64h-12.91c-.12-.09-.26-.16-.42-.16h-112.64c-.17,0-.31.07-.43.16h-12.9c-.41,0-.73.29-.73.64v11.31h-7.53v-24.08h-17.52v98.42l17.52,14.34v-10.4h7.53v55.4h140.73v-55.4h7.54v10.4l17.5-14.34v-98.42h-17.5Z"/>
          <path class="cls-41" d="m464.87,286.38v24.08h-7.54v-11.31c0-.35-.31-.64-.71-.64h-12.91c-.12-.09-.26-.16-.42-.16h-112.64c-.17,0-.31.07-.43.16h-12.9c-.41,0-.73.29-.73.64v11.31h-7.53v-24.08h-17.52v98.42l17.52,14.34v-10.4h7.53v55.4h140.73v-55.4h7.54v10.4l17.5-14.34v-98.42h-17.5Z"/>
          <path class="cls-68" d="m465.43,286.17v24.08h-7.54v-11.31c0-.35-.31-.64-.71-.64h-12.91c-.12-.09-.26-.16-.42-.16h-112.64c-.17,0-.31.07-.43.16h-12.9c-.41,0-.73.29-.73.64v11.31h-7.53v-24.08h-17.52v98.42l17.52,14.34v-10.4h7.53v55.4h140.73v-55.4h7.54v10.4l17.5-14.34v-98.42h-17.5Z"/>
          <path class="cls-55" d="m465.99,285.97v24.08h-7.54v-11.31c0-.35-.31-.64-.71-.64h-12.91c-.12-.09-.26-.16-.42-.16h-112.64c-.17,0-.3.07-.43.16h-12.9c-.41,0-.73.29-.73.64v11.31h-7.53v-24.08h-17.52v98.42l17.52,14.34v-10.4h7.53v55.4h140.73v-55.4h7.54v10.4l17.5-14.34v-98.42h-17.5Z"/>
          <path class="cls-66" d="m466.55,285.76v24.08h-7.54v-11.31c0-.35-.31-.64-.71-.64h-12.91c-.12-.09-.26-.16-.42-.16h-112.64c-.17,0-.3.07-.43.16h-12.9c-.41,0-.73.29-.73.64v11.31h-7.53v-24.08h-17.52v98.42l17.52,14.34v-10.4h7.53v55.4h140.73v-55.4h7.54v10.4l17.5-14.34v-98.42h-17.5Z"/>
          <path class="cls-84" d="m467.11,285.55v24.08h-7.54v-11.31c0-.35-.31-.64-.71-.64h-12.91c-.12-.09-.26-.16-.42-.16h-112.64c-.17,0-.3.07-.43.16h-12.9c-.41,0-.73.29-.73.64v11.31h-7.53v-24.08h-17.52v98.42l17.52,14.34v-10.4h7.53v55.4h140.73v-55.4h7.54v10.4l17.5-14.34v-98.42h-17.5Z"/>
          <path class="cls-31" d="m467.67,285.35v24.08h-7.54v-11.31c0-.35-.31-.64-.71-.64h-12.91c-.12-.09-.26-.16-.42-.16h-112.64c-.17,0-.3.07-.43.16h-12.9c-.41,0-.73.29-.73.64v11.31h-7.53v-24.08h-17.52v98.42l17.52,14.34v-10.4h7.53v55.4h140.73v-55.4h7.54v10.4l17.5-14.34v-98.42h-17.5Z"/>
          <path class="cls-87" d="m468.23,285.14v24.08h-7.54v-11.31c0-.35-.31-.64-.71-.64h-12.91c-.12-.09-.26-.16-.42-.16h-112.64c-.17,0-.3.07-.43.16h-12.9c-.41,0-.73.29-.73.64v11.31h-7.53v-24.08h-17.52v98.42l17.52,14.34v-10.4h7.53v55.4h140.73v-55.4h7.54v10.4l17.5-14.34v-98.42h-17.5Z"/>
          <path class="cls-50" d="m468.79,284.93v24.08h-7.54v-11.31c0-.35-.31-.64-.71-.64h-12.91c-.12-.09-.26-.16-.42-.16h-112.64c-.17,0-.3.07-.43.16h-12.9c-.41,0-.73.29-.73.64v11.31h-7.53v-24.08h-17.52v98.42l17.52,14.34v-10.4h7.53v55.4h140.73v-55.4h7.54v10.4l17.5-14.34v-98.42h-17.5Z"/>
          <path class="cls-78" d="m469.35,284.73v24.08h-7.54v-11.31c0-.35-.31-.64-.71-.64h-12.91c-.12-.09-.26-.16-.42-.16h-112.64c-.17,0-.3.07-.43.16h-12.9c-.41,0-.73.29-.73.64v11.31h-7.53v-24.08h-17.52v98.42l17.52,14.34v-10.4h7.53v55.4h140.73v-55.4h7.54v10.4l17.5-14.34v-98.42h-17.5Z"/>
          <path class="cls-82" d="m469.91,284.52v24.08h-7.54v-11.31c0-.35-.31-.64-.71-.64h-12.91c-.12-.09-.26-.16-.42-.16h-112.64c-.17,0-.3.07-.43.16h-12.9c-.41,0-.73.29-.73.64v11.31h-7.53v-24.08h-17.52v98.42l17.52,14.34v-10.4h7.53v55.4h140.73v-55.4h7.54v10.4l17.5-14.34v-98.42h-17.5Z"/>
          <path class="cls-73" d="m470.47,284.31v24.08h-7.54v-11.31c0-.35-.31-.64-.71-.64h-12.91c-.12-.09-.26-.16-.42-.16h-112.64c-.17,0-.3.07-.43.16h-12.9c-.41,0-.73.29-.73.64v11.31h-7.53v-24.08h-17.52v98.42l17.52,14.34v-10.4h7.53v55.4h140.73v-55.4h7.54v10.4l17.5-14.34v-98.42h-17.5Z"/>
          <path class="cls-30" d="m471.03,284.11v24.08h-7.54v-11.31c0-.35-.31-.64-.71-.64h-12.91c-.12-.09-.26-.16-.42-.16h-112.64c-.17,0-.3.07-.43.16h-12.9c-.41,0-.73.29-.73.64v11.31h-7.53v-24.08h-17.52v98.42l17.52,14.34v-10.4h7.53v55.4h140.73v-55.4h7.54v10.4l17.5-14.34v-98.42h-17.5Z"/>
          <path class="cls-34" d="m471.6,283.9v24.08h-7.54v-11.31c0-.35-.31-.64-.71-.64h-12.91c-.12-.09-.26-.16-.42-.16h-112.64c-.17,0-.3.07-.43.16h-12.9c-.41,0-.73.29-.73.64v11.31h-7.53v-24.08h-17.52v98.42l17.52,14.34v-10.4h7.53v55.4h140.73v-55.4h7.54v10.4l17.5-14.34v-98.42h-17.5Z"/>
          <path class="cls-42" d="m472.16,283.7v24.08h-7.54v-11.31c0-.35-.31-.64-.71-.64h-12.91c-.12-.09-.26-.16-.42-.16h-112.64c-.17,0-.3.07-.43.16h-12.9c-.41,0-.73.29-.73.64v11.31h-7.53v-24.08h-17.52v98.42l17.52,14.34v-10.4h7.53v55.4h140.73v-55.4h7.54v10.4l17.5-14.34v-98.42h-17.5Z"/>
          <path class="cls-58" d="m472.72,283.49v24.08h-7.54v-11.31c0-.35-.31-.64-.71-.64h-12.91c-.12-.09-.26-.16-.42-.16h-112.64c-.17,0-.3.07-.43.16h-12.9c-.41,0-.73.29-.73.64v11.31h-7.53v-24.08h-17.52v98.42l17.52,14.34v-10.4h7.53v55.4h140.73v-55.4h7.54v10.4l17.5-14.34v-98.42h-17.5Z"/>
          <path class="cls-44" d="m473.28,283.28v24.08h-7.54v-11.31c0-.35-.31-.64-.71-.64h-12.91c-.12-.09-.26-.16-.42-.16h-112.64c-.17,0-.3.07-.43.16h-12.9c-.41,0-.73.29-.73.64v11.31h-7.53v-24.08h-17.52v98.42l17.52,14.34v-10.4h7.53v55.4h140.73v-55.4h7.54v10.4l17.5-14.34v-98.42h-17.5Z"/>
          <path class="cls-85" d="m473.84,283.08v24.08h-7.54v-11.31c0-.35-.31-.64-.71-.64h-12.91c-.12-.09-.26-.16-.42-.16h-112.64c-.17,0-.3.07-.43.16h-12.9c-.41,0-.73.29-.73.64v11.31h-7.53v-24.08h-17.52v98.42l17.52,14.34v-10.4h7.53v55.4h140.73v-55.4h7.54v10.4l17.5-14.34v-98.42h-17.5Z"/>
        </g>
        <g>
          <rect class="cls-37" x="325.56" y="393.77" width="140.73" height="47.05"/>
          <rect class="cls-65" x="309.29" y="371.39" width="173.3" height="14.04"/>
          <rect class="cls-65" x="309.29" y="307.16" width="173.3" height="14.04"/>
          <polygon class="cls-15" points="300.52 283.08 318.04 283.08 318.04 395.83 300.52 381.49 300.52 283.08"/>
          <polygon class="cls-12" points="473.84 283.08 491.34 283.08 491.34 381.49 473.84 395.83 473.84 283.08"/>
          <path class="cls-49" d="m339.61,391.29c-.09,0-.08.07-.17.09h-13.16c-.39,0-.71.11-.71.25v38.13c0,.14.32.25.71.25h12.94c.12.08.17.21.39.21h112.64c.23,0,.27-.13.39-.21h12.94c.4,0,.72-.11.72-.25v-38.13c0-.14-.32-.25-.72-.25h-13.16c-.08-.02-.08-.09-.17-.09h-112.64Zm.71,33.72v-5.12h111.22v5.12h-111.22Zm0-10.32v-5.12h111.22v5.12h-111.22Zm0-15.45h111.22v5.13h-111.22v-5.13Z"/>
          <path class="cls-1" d="m465.58,295.21h-12.91c-.12-.09-.26-.16-.42-.16h-112.64c-.17,0-.3.07-.43.16h-12.9c-.41,0-.73.29-.73.64v97.92c0,.34.32.62.73.62h13.22s.07.04.11.04h112.64s.06-.03.11-.04h13.22c.4,0,.71-.28.71-.62v-97.92c0-.35-.31-.64-.71-.64Zm-125.26,68.75v-3.96h111.22v3.96h-111.22Zm111.22-38.41v3.96h-111.22v-3.96h111.22Zm-111.22,21.19v-3.97h111.22v3.97h-111.22Zm111.22-34.44h-111.22v-3.98h111.22v3.98Zm-111.22,64.93h111.22v3.97h-111.22v-3.97Z"/>
          <rect class="cls-22" x="325.56" y="429.76" width="140.73" height="11.07"/>
        </g>
        <path class="cls-70" d="m472.5,282.06v25.1h-4.86v-11.31c0-.91-.92-1.65-2.05-1.65h-12.49c-.32-.12-.61-.15-.83-.15h-112.64c-.29,0-.57.05-.83.15h-12.5c-1.13,0-2.05.74-2.05,1.65v11.31h-4.85v-25.1h-20.2v99.83l20.2,16.53v-13h4.85v8.35c0,.13.14.21.17.33v34.64h-.17v13.09h143.41v-13.09h-.17v-34.64c.03-.12.17-.2.17-.33v-8.35h4.86v13l20.18-16.53v-99.83h-20.18Zm-130.83,46.43v-1.94h108.53v1.94h-108.53Zm0,17.22v-1.95h108.53v1.95h-108.53Zm0,17.23v-1.95h108.53v1.95h-108.53Zm-22.29,8.44v-50.19h4.85v50.19h-4.85Zm148.26,0v-50.19h4.86v50.19h-4.86Z"/>
      </g>
      <g>
        <g class="cls-71">
          <path class="cls-29" d="m701.76,295.05v24.08h-7.54v-11.3c0-.35-.31-.64-.71-.64h-12.91c-.12-.09-.25-.16-.42-.16h-112.64c-.18,0-.31.07-.43.16h-12.91c-.41,0-.72.29-.72.64v11.3h-7.53v-24.08h-17.52v98.42l17.52,14.34v-10.4h7.53v55.4h140.72v-55.4h7.54v10.4l17.5-14.34v-98.42h-17.5Z"/>
          <path class="cls-90" d="m702.32,294.84v24.08h-7.54v-11.3c0-.35-.31-.64-.71-.64h-12.91c-.12-.09-.25-.16-.42-.16h-112.64c-.18,0-.31.07-.43.16h-12.91c-.41,0-.72.29-.72.64v11.3h-7.53v-24.08h-17.52v98.42l17.52,14.34v-10.4h7.53v55.4h140.72v-55.4h7.54v10.4l17.5-14.34v-98.42h-17.5Z"/>
          <path class="cls-59" d="m702.88,294.64v24.08h-7.54v-11.3c0-.35-.31-.64-.71-.64h-12.91c-.12-.09-.25-.16-.42-.16h-112.64c-.18,0-.31.07-.43.16h-12.9c-.41,0-.72.29-.72.64v11.3h-7.53v-24.08h-17.52v98.42l17.52,14.34v-10.4h7.53v55.4h140.72v-55.4h7.54v10.4l17.5-14.34v-98.42h-17.5Z"/>
          <path class="cls-92" d="m703.44,294.43v24.08h-7.54v-11.3c0-.35-.31-.64-.71-.64h-12.91c-.12-.09-.25-.16-.42-.16h-112.64c-.17,0-.31.07-.43.16h-12.9c-.41,0-.72.29-.72.64v11.3h-7.53v-24.08h-17.52v98.42l17.52,14.34v-10.4h7.53v55.4h140.72v-55.4h7.54v10.4l17.5-14.34v-98.42h-17.5Z"/>
          <path class="cls-61" d="m704,294.22v24.08h-7.54v-11.3c0-.35-.31-.64-.71-.64h-12.91c-.12-.09-.25-.16-.42-.16h-112.64c-.17,0-.31.07-.43.16h-12.9c-.41,0-.72.29-.72.64v11.3h-7.53v-24.08h-17.52v98.42l17.52,14.34v-10.4h7.53v55.4h140.72v-55.4h7.54v10.4l17.5-14.34v-98.42h-17.5Z"/>
          <path class="cls-32" d="m704.56,294.02v24.08h-7.54v-11.3c0-.35-.31-.64-.71-.64h-12.91c-.12-.09-.25-.16-.42-.16h-112.64c-.17,0-.31.07-.43.16h-12.9c-.41,0-.72.29-.72.64v11.3h-7.53v-24.08h-17.52v98.42l17.52,14.34v-10.4h7.53v55.4h140.72v-55.4h7.54v10.4l17.5-14.34v-98.42h-17.5Z"/>
          <path class="cls-63" d="m705.12,293.81v24.08h-7.54v-11.3c0-.35-.31-.64-.71-.64h-12.91c-.12-.09-.25-.16-.42-.16h-112.64c-.17,0-.31.07-.43.16h-12.9c-.41,0-.72.29-.72.64v11.3h-7.53v-24.08h-17.52v98.42l17.52,14.34v-10.4h7.53v55.4h140.72v-55.4h7.54v10.4l17.5-14.34v-98.42h-17.5Z"/>
          <path class="cls-83" d="m705.68,293.6v24.08h-7.54v-11.3c0-.35-.31-.64-.71-.64h-12.91c-.12-.09-.25-.16-.42-.16h-112.64c-.17,0-.31.07-.43.16h-12.9c-.41,0-.72.29-.72.64v11.3h-7.53v-24.08h-17.52v98.42l17.52,14.34v-10.4h7.53v55.4h140.72v-55.4h7.54v10.4l17.5-14.34v-98.42h-17.5Z"/>
          <path class="cls-74" d="m706.25,293.4v24.08h-7.54v-11.3c0-.35-.31-.64-.71-.64h-12.91c-.12-.09-.25-.16-.42-.16h-112.64c-.17,0-.31.07-.43.16h-12.9c-.41,0-.72.29-.72.64v11.3h-7.53v-24.08h-17.52v98.42l17.52,14.34v-10.4h7.53v55.4h140.72v-55.4h7.54v10.4l17.5-14.34v-98.42h-17.5Z"/>
          <path class="cls-36" d="m706.81,293.19v24.08h-7.54v-11.3c0-.35-.31-.64-.71-.64h-12.91c-.12-.09-.25-.16-.42-.16h-112.64c-.17,0-.31.07-.43.16h-12.9c-.41,0-.72.29-.72.64v11.3h-7.53v-24.08h-17.52v98.42l17.52,14.34v-10.4h7.53v55.4h140.72v-55.4h7.54v10.4l17.5-14.34v-98.42h-17.5Z"/>
          <path class="cls-39" d="m707.37,292.98v24.08h-7.54v-11.3c0-.35-.31-.64-.71-.64h-12.91c-.12-.09-.25-.16-.42-.16h-112.64c-.17,0-.31.07-.43.16h-12.9c-.41,0-.72.29-.72.64v11.3h-7.53v-24.08h-17.52v98.42l17.52,14.34v-10.4h7.53v55.4h140.72v-55.4h7.54v10.4l17.5-14.34v-98.42h-17.5Z"/>
          <path class="cls-28" d="m707.93,292.78v24.08h-7.54v-11.3c0-.35-.31-.64-.71-.64h-12.91c-.12-.09-.25-.16-.42-.16h-112.64c-.17,0-.31.07-.43.16h-12.9c-.41,0-.72.29-.72.64v11.3h-7.53v-24.08h-17.52v98.42l17.52,14.34v-10.4h7.53v55.4h140.72v-55.4h7.54v10.4l17.5-14.34v-98.42h-17.5Z"/>
          <path class="cls-79" d="m708.49,292.57v24.08h-7.54v-11.3c0-.35-.31-.64-.71-.64h-12.91c-.12-.09-.25-.16-.42-.16h-112.64c-.17,0-.31.07-.43.16h-12.9c-.41,0-.72.29-.72.64v11.3h-7.53v-24.08h-17.52v98.42l17.52,14.34v-10.4h7.53v55.4h140.72v-55.4h7.54v10.4l17.5-14.34v-98.42h-17.5Z"/>
          <path class="cls-89" d="m709.05,292.37v24.08h-7.54v-11.3c0-.35-.31-.64-.71-.64h-12.91c-.12-.09-.25-.16-.42-.16h-112.64c-.17,0-.31.07-.43.16h-12.9c-.41,0-.72.29-.72.64v11.3h-7.53v-24.08h-17.52v98.42l17.52,14.34v-10.4h7.53v55.4h140.72v-55.4h7.54v10.4l17.5-14.34v-98.42h-17.5Z"/>
          <path class="cls-77" d="m709.61,292.16v24.08h-7.54v-11.3c0-.35-.31-.64-.71-.64h-12.91c-.12-.09-.25-.16-.42-.16h-112.64c-.17,0-.31.07-.43.16h-12.9c-.41,0-.72.29-.72.64v11.3h-7.53v-24.08h-17.52v98.42l17.52,14.34v-10.4h7.53v55.4h140.72v-55.4h7.54v10.4l17.5-14.34v-98.42h-17.5Z"/>
          <path class="cls-27" d="m710.17,291.95v24.08h-7.54v-11.3c0-.35-.31-.64-.71-.64h-12.91c-.12-.09-.25-.16-.42-.16h-112.64c-.17,0-.31.07-.43.16h-12.9c-.41,0-.72.29-.72.64v11.3h-7.53v-24.08h-17.52v98.42l17.52,14.34v-10.4h7.53v55.4h140.72v-55.4h7.54v10.4l17.5-14.34v-98.42h-17.5Z"/>
          <path class="cls-75" d="m710.73,291.75v24.08h-7.54v-11.3c0-.35-.31-.64-.71-.64h-12.91c-.12-.09-.25-.16-.42-.16h-112.64c-.17,0-.31.07-.43.16h-12.9c-.41,0-.72.29-.72.64v11.3h-7.53v-24.08h-17.52v98.42l17.52,14.34v-10.4h7.53v55.4h140.72v-55.4h7.54v10.4l17.5-14.34v-98.42h-17.5Z"/>
          <path class="cls-86" d="m711.29,291.54v24.08h-7.54v-11.31c0-.35-.31-.64-.71-.64h-12.91c-.12-.09-.25-.16-.42-.16h-112.64c-.17,0-.31.07-.43.16h-12.9c-.41,0-.72.29-.72.64v11.31h-7.53v-24.08h-17.52v98.42l17.52,14.34v-10.4h7.53v55.4h140.72v-55.4h7.54v10.4l17.5-14.34v-98.42h-17.5Z"/>
          <path class="cls-93" d="m711.85,291.33v24.08h-7.54v-11.31c0-.35-.31-.64-.71-.64h-12.91c-.12-.09-.25-.16-.42-.16h-112.64c-.17,0-.31.07-.43.16h-12.9c-.41,0-.72.29-.72.64v11.31h-7.53v-24.08h-17.52v98.42l17.52,14.34v-10.4h7.53v55.4h140.72v-55.4h7.54v10.4l17.5-14.34v-98.42h-17.5Z"/>
          <path class="cls-88" d="m712.41,291.13v24.08h-7.54v-11.31c0-.35-.31-.64-.71-.64h-12.91c-.12-.09-.25-.16-.42-.16h-112.64c-.17,0-.31.07-.43.16h-12.9c-.41,0-.72.29-.72.64v11.31h-7.53v-24.08h-17.52v98.42l17.52,14.34v-10.4h7.53v55.4h140.72v-55.4h7.54v10.4l17.5-14.34v-98.42h-17.5Z"/>
          <path class="cls-67" d="m712.98,290.92v24.08h-7.54v-11.31c0-.35-.31-.64-.71-.64h-12.91c-.12-.09-.25-.16-.42-.16h-112.64c-.17,0-.31.07-.43.16h-12.9c-.41,0-.72.29-.72.64v11.31h-7.53v-24.08h-17.52v98.42l17.52,14.34v-10.4h7.53v55.4h140.72v-55.4h7.54v10.4l17.5-14.34v-98.42h-17.5Z"/>
          <path class="cls-57" d="m713.54,290.71v24.08h-7.54v-11.31c0-.35-.31-.64-.71-.64h-12.91c-.12-.09-.25-.16-.42-.16h-112.64c-.17,0-.31.07-.43.16h-12.9c-.41,0-.72.29-.72.64v11.31h-7.53v-24.08h-17.52v98.42l17.52,14.34v-10.4h7.53v55.4h140.72v-55.4h7.54v10.4l17.5-14.34v-98.42h-17.5Z"/>
          <path class="cls-26" d="m714.1,290.51v24.08h-7.54v-11.31c0-.35-.31-.64-.71-.64h-12.91c-.12-.09-.25-.16-.42-.16h-112.64c-.17,0-.31.07-.43.16h-12.9c-.41,0-.72.29-.72.64v11.31h-7.53v-24.08h-17.52v98.42l17.52,14.34v-10.4h7.53v55.4h140.72v-55.4h7.54v10.4l17.5-14.34v-98.42h-17.5Z"/>
          <path class="cls-72" d="m714.66,290.3v24.08h-7.54v-11.31c0-.35-.31-.64-.71-.64h-12.91c-.12-.09-.25-.16-.42-.16h-112.64c-.17,0-.31.07-.43.16h-12.9c-.41,0-.72.29-.72.64v11.31h-7.53v-24.08h-17.52v98.42l17.52,14.34v-10.4h7.53v55.4h140.72v-55.4h7.54v10.4l17.5-14.34v-98.42h-17.5Z"/>
          <path class="cls-54" d="m715.22,290.09v24.08h-7.54v-11.31c0-.35-.31-.64-.71-.64h-12.91c-.12-.09-.25-.16-.42-.16h-112.64c-.17,0-.31.07-.43.16h-12.9c-.41,0-.72.29-.72.64v11.31h-7.53v-24.08h-17.52v98.42l17.52,14.34v-10.4h7.53v55.4h140.73v-55.4h7.54v10.4l17.5-14.34v-98.42h-17.5Z"/>
          <path class="cls-53" d="m715.78,289.89v24.08h-7.54v-11.31c0-.35-.31-.64-.71-.64h-12.91c-.12-.09-.25-.16-.42-.16h-112.64c-.17,0-.31.07-.43.16h-12.9c-.41,0-.72.29-.72.64v11.31h-7.53v-24.08h-17.52v98.42l17.52,14.34v-10.4h7.53v55.4h140.73v-55.4h7.54v10.4l17.5-14.34v-98.42h-17.5Z"/>
          <path class="cls-64" d="m716.34,289.68v24.08h-7.54v-11.31c0-.35-.31-.64-.71-.64h-12.91c-.12-.09-.25-.16-.42-.16h-112.64c-.17,0-.31.07-.43.16h-12.9c-.41,0-.72.29-.72.64v11.31h-7.53v-24.08h-17.52v98.42l17.52,14.34v-10.4h7.53v55.4h140.73v-55.4h7.54v10.4l17.5-14.34v-98.42h-17.5Z"/>
          <path class="cls-60" d="m716.9,289.48v24.08h-7.54v-11.31c0-.35-.31-.64-.71-.64h-12.91c-.12-.09-.25-.16-.42-.16h-112.64c-.17,0-.31.07-.43.16h-12.9c-.41,0-.72.29-.72.64v11.31h-7.53v-24.08h-17.52v98.42l17.52,14.34v-10.4h7.53v55.4h140.73v-55.4h7.54v10.4l17.5-14.34v-98.42h-17.5Z"/>
          <path class="cls-91" d="m717.46,289.27v24.08h-7.54v-11.31c0-.35-.31-.64-.71-.64h-12.91c-.12-.09-.25-.16-.42-.16h-112.64c-.17,0-.31.07-.43.16h-12.9c-.41,0-.72.29-.72.64v11.31h-7.53v-24.08h-17.52v98.42l17.52,14.34v-10.4h7.53v55.4h140.73v-55.4h7.54v10.4l17.5-14.34v-98.42h-17.5Z"/>
          <path class="cls-38" d="m718.02,289.06v24.08h-7.54v-11.31c0-.35-.31-.64-.71-.64h-12.91c-.12-.09-.25-.16-.42-.16h-112.64c-.17,0-.31.07-.43.16h-12.9c-.41,0-.72.29-.72.64v11.31h-7.53v-24.08h-17.52v98.42l17.52,14.34v-10.4h7.53v55.4h140.73v-55.4h7.54v10.4l17.5-14.34v-98.42h-17.5Z"/>
          <path class="cls-38" d="m718.58,288.86v24.08h-7.54v-11.31c0-.35-.31-.64-.71-.64h-12.91c-.12-.09-.25-.16-.42-.16h-112.64c-.17,0-.31.07-.43.16h-12.9c-.41,0-.72.29-.72.64v11.31h-7.53v-24.08h-17.52v98.42l17.52,14.34v-10.4h7.53v55.4h140.73v-55.4h7.54v10.4l17.5-14.34v-98.42h-17.5Z"/>
          <path class="cls-52" d="m719.14,288.65v24.08h-7.54v-11.31c0-.35-.31-.64-.71-.64h-12.91c-.12-.09-.25-.16-.42-.16h-112.64c-.17,0-.31.07-.43.16h-12.9c-.41,0-.72.29-.72.64v11.31h-7.53v-24.08h-17.52v98.42l17.52,14.34v-10.4h7.53v55.4h140.73v-55.4h7.54v10.4l17.5-14.34v-98.42h-17.5Z"/>
          <path class="cls-43" d="m719.71,288.44v24.08h-7.54v-11.31c0-.35-.31-.64-.71-.64h-12.91c-.12-.09-.25-.16-.42-.16h-112.64c-.17,0-.31.07-.43.16h-12.9c-.41,0-.72.29-.72.64v11.31h-7.53v-24.08h-17.52v98.42l17.52,14.34v-10.4h7.53v55.4h140.73v-55.4h7.54v10.4l17.5-14.34v-98.42h-17.5Z"/>
          <path class="cls-94" d="m720.27,288.24v24.08h-7.54v-11.31c0-.35-.31-.64-.71-.64h-12.91c-.12-.09-.25-.16-.42-.16h-112.64c-.17,0-.31.07-.43.16h-12.9c-.41,0-.72.29-.72.64v11.31h-7.53v-24.08h-17.52v98.42l17.52,14.34v-10.4h7.53v55.4h140.73v-55.4h7.54v10.4l17.5-14.34v-98.42h-17.5Z"/>
          <path class="cls-45" d="m720.83,288.03v24.08h-7.54v-11.31c0-.35-.31-.64-.71-.64h-12.91c-.12-.09-.25-.16-.42-.16h-112.64c-.17,0-.31.07-.43.16h-12.9c-.41,0-.72.29-.72.64v11.31h-7.53v-24.08h-17.52v98.42l17.52,14.34v-10.4h7.53v55.4h140.73v-55.4h7.54v10.4l17.5-14.34v-98.42h-17.5Z"/>
          <path class="cls-25" d="m721.39,287.82v24.08h-7.54v-11.31c0-.35-.31-.64-.71-.64h-12.91c-.12-.09-.25-.16-.42-.16h-112.64c-.17,0-.31.07-.43.16h-12.9c-.41,0-.72.29-.72.64v11.31h-7.53v-24.08h-17.52v98.42l17.52,14.34v-10.4h7.53v55.4h140.73v-55.4h7.54v10.4l17.5-14.34v-98.42h-17.5Z"/>
          <path class="cls-69" d="m721.95,287.62v24.08h-7.54v-11.31c0-.35-.31-.64-.71-.64h-12.91c-.12-.09-.25-.16-.42-.16h-112.64c-.17,0-.31.07-.42.16h-12.9c-.41,0-.73.29-.73.64v11.31h-7.53v-24.08h-17.52v98.42l17.52,14.34v-10.4h7.53v55.4h140.73v-55.4h7.54v10.4l17.5-14.34v-98.42h-17.5Z"/>
          <path class="cls-33" d="m722.51,287.41v24.08h-7.54v-11.31c0-.35-.31-.64-.71-.64h-12.91c-.12-.09-.25-.16-.42-.16h-112.64c-.17,0-.31.07-.42.16h-12.9c-.41,0-.73.29-.73.64v11.31h-7.53v-24.08h-17.52v98.42l17.52,14.34v-10.4h7.53v55.4h140.73v-55.4h7.54v10.4l17.5-14.34v-98.42h-17.5Z"/>
          <path class="cls-56" d="m723.07,287.2v24.08h-7.54v-11.31c0-.35-.31-.64-.71-.64h-12.91c-.12-.09-.25-.16-.42-.16h-112.64c-.17,0-.31.07-.42.16h-12.9c-.41,0-.73.29-.73.64v11.31h-7.53v-24.08h-17.52v98.42l17.52,14.34v-10.4h7.53v55.4h140.73v-55.4h7.54v10.4l17.5-14.34v-98.42h-17.5Z"/>
          <path class="cls-81" d="m723.63,287v24.08h-7.54v-11.31c0-.35-.31-.64-.71-.64h-12.91c-.12-.09-.25-.16-.42-.16h-112.64c-.17,0-.31.07-.42.16h-12.9c-.41,0-.73.29-.73.64v11.31h-7.53v-24.08h-17.52v98.42l17.52,14.34v-10.4h7.53v55.4h140.73v-55.4h7.54v10.4l17.5-14.34v-98.42h-17.5Z"/>
          <path class="cls-35" d="m724.19,286.79v24.08h-7.54v-11.31c0-.35-.31-.64-.71-.64h-12.91c-.12-.09-.25-.16-.42-.16h-112.64c-.17,0-.31.07-.42.16h-12.9c-.41,0-.73.29-.73.64v11.31h-7.53v-24.08h-17.52v98.42l17.52,14.34v-10.4h7.53v55.4h140.73v-55.4h7.54v10.4l17.5-14.34v-98.42h-17.5Z"/>
          <path class="cls-51" d="m724.75,286.59v24.08h-7.54v-11.31c0-.35-.31-.64-.71-.64h-12.91c-.12-.09-.25-.16-.42-.16h-112.64c-.17,0-.31.07-.42.16h-12.9c-.41,0-.73.29-.73.64v11.31h-7.53v-24.08h-17.52v98.42l17.52,14.34v-10.4h7.53v55.4h140.73v-55.4h7.54v10.4l17.5-14.34v-98.42h-17.5Z"/>
          <path class="cls-41" d="m725.31,286.38v24.08h-7.54v-11.31c0-.35-.31-.64-.71-.64h-12.91c-.12-.09-.25-.16-.42-.16h-112.64c-.17,0-.31.07-.42.16h-12.9c-.41,0-.73.29-.73.64v11.31h-7.53v-24.08h-17.52v98.42l17.52,14.34v-10.4h7.53v55.4h140.73v-55.4h7.54v10.4l17.5-14.34v-98.42h-17.5Z"/>
          <path class="cls-68" d="m725.87,286.17v24.08h-7.54v-11.31c0-.35-.31-.64-.71-.64h-12.91c-.12-.09-.25-.16-.42-.16h-112.64c-.17,0-.31.07-.42.16h-12.9c-.41,0-.73.29-.73.64v11.31h-7.53v-24.08h-17.52v98.42l17.52,14.34v-10.4h7.53v55.4h140.73v-55.4h7.54v10.4l17.5-14.34v-98.42h-17.5Z"/>
          <path class="cls-55" d="m726.44,285.97v24.08h-7.54v-11.31c0-.35-.31-.64-.71-.64h-12.91c-.12-.09-.25-.16-.42-.16h-112.64c-.17,0-.31.07-.42.16h-12.9c-.41,0-.73.29-.73.64v11.31h-7.53v-24.08h-17.52v98.42l17.52,14.34v-10.4h7.53v55.4h140.73v-55.4h7.54v10.4l17.5-14.34v-98.42h-17.5Z"/>
          <path class="cls-66" d="m727,285.76v24.08h-7.54v-11.31c0-.35-.31-.64-.71-.64h-12.91c-.12-.09-.25-.16-.42-.16h-112.64c-.17,0-.31.07-.42.16h-12.9c-.41,0-.73.29-.73.64v11.31h-7.53v-24.08h-17.52v98.42l17.52,14.34v-10.4h7.53v55.4h140.73v-55.4h7.54v10.4l17.5-14.34v-98.42h-17.5Z"/>
          <path class="cls-84" d="m727.56,285.55v24.08h-7.54v-11.31c0-.35-.31-.64-.71-.64h-12.91c-.12-.09-.25-.16-.42-.16h-112.64c-.17,0-.31.07-.42.16h-12.9c-.41,0-.73.29-.73.64v11.31h-7.53v-24.08h-17.52v98.42l17.52,14.34v-10.4h7.53v55.4h140.73v-55.4h7.54v10.4l17.5-14.34v-98.42h-17.5Z"/>
          <path class="cls-31" d="m728.12,285.35v24.08h-7.54v-11.31c0-.35-.31-.64-.71-.64h-12.91c-.12-.09-.25-.16-.42-.16h-112.64c-.17,0-.3.07-.42.16h-12.9c-.41,0-.73.29-.73.64v11.31h-7.53v-24.08h-17.52v98.42l17.52,14.34v-10.4h7.53v55.4h140.73v-55.4h7.54v10.4l17.5-14.34v-98.42h-17.5Z"/>
          <path class="cls-87" d="m728.68,285.14v24.08h-7.54v-11.31c0-.35-.31-.64-.71-.64h-12.91c-.12-.09-.25-.16-.42-.16h-112.64c-.17,0-.3.07-.42.16h-12.9c-.41,0-.73.29-.73.64v11.31h-7.53v-24.08h-17.52v98.42l17.52,14.34v-10.4h7.53v55.4h140.73v-55.4h7.54v10.4l17.5-14.34v-98.42h-17.5Z"/>
          <path class="cls-50" d="m729.24,284.93v24.08h-7.54v-11.31c0-.35-.31-.64-.71-.64h-12.91c-.12-.09-.25-.16-.42-.16h-112.64c-.17,0-.3.07-.42.16h-12.9c-.41,0-.73.29-.73.64v11.31h-7.53v-24.08h-17.52v98.42l17.52,14.34v-10.4h7.53v55.4h140.73v-55.4h7.54v10.4l17.5-14.34v-98.42h-17.5Z"/>
          <path class="cls-78" d="m729.8,284.73v24.08h-7.54v-11.31c0-.35-.31-.64-.71-.64h-12.91c-.12-.09-.25-.16-.42-.16h-112.64c-.17,0-.3.07-.42.16h-12.9c-.41,0-.73.29-.73.64v11.31h-7.53v-24.08h-17.52v98.42l17.52,14.34v-10.4h7.53v55.4h140.73v-55.4h7.54v10.4l17.5-14.34v-98.42h-17.5Z"/>
          <path class="cls-82" d="m730.36,284.52v24.08h-7.54v-11.31c0-.35-.31-.64-.71-.64h-12.91c-.12-.09-.25-.16-.42-.16h-112.64c-.17,0-.3.07-.42.16h-12.9c-.41,0-.73.29-.73.64v11.31h-7.53v-24.08h-17.52v98.42l17.52,14.34v-10.4h7.53v55.4h140.73v-55.4h7.54v10.4l17.5-14.34v-98.42h-17.5Z"/>
          <path class="cls-73" d="m730.92,284.31v24.08h-7.54v-11.31c0-.35-.31-.64-.71-.64h-12.91c-.12-.09-.25-.16-.42-.16h-112.64c-.17,0-.3.07-.42.16h-12.9c-.41,0-.73.29-.73.64v11.31h-7.53v-24.08h-17.52v98.42l17.52,14.34v-10.4h7.53v55.4h140.73v-55.4h7.54v10.4l17.5-14.34v-98.42h-17.5Z"/>
          <path class="cls-30" d="m731.48,284.11v24.08h-7.54v-11.31c0-.35-.31-.64-.71-.64h-12.9c-.12-.09-.25-.16-.42-.16h-112.64c-.17,0-.3.07-.42.16h-12.9c-.41,0-.73.29-.73.64v11.31h-7.53v-24.08h-17.52v98.42l17.52,14.34v-10.4h7.53v55.4h140.73v-55.4h7.54v10.4l17.5-14.34v-98.42h-17.5Z"/>
          <path class="cls-34" d="m732.04,283.9v24.08h-7.54v-11.31c0-.35-.31-.64-.71-.64h-12.9c-.12-.09-.25-.16-.42-.16h-112.64c-.17,0-.3.07-.42.16h-12.9c-.41,0-.73.29-.73.64v11.31h-7.53v-24.08h-17.52v98.42l17.52,14.34v-10.4h7.53v55.4h140.73v-55.4h7.54v10.4l17.5-14.34v-98.42h-17.5Z"/>
          <path class="cls-42" d="m732.6,283.7v24.08h-7.54v-11.31c0-.35-.31-.64-.71-.64h-12.9c-.12-.09-.25-.16-.42-.16h-112.64c-.17,0-.3.07-.42.16h-12.9c-.41,0-.73.29-.73.64v11.31h-7.53v-24.08h-17.52v98.42l17.52,14.34v-10.4h7.53v55.4h140.73v-55.4h7.54v10.4l17.5-14.34v-98.42h-17.5Z"/>
          <path class="cls-58" d="m733.17,283.49v24.08h-7.54v-11.31c0-.35-.31-.64-.71-.64h-12.9c-.12-.09-.25-.16-.42-.16h-112.64c-.17,0-.3.07-.42.16h-12.9c-.41,0-.73.29-.73.64v11.31h-7.53v-24.08h-17.52v98.42l17.52,14.34v-10.4h7.53v55.4h140.73v-55.4h7.54v10.4l17.5-14.34v-98.42h-17.5Z"/>
          <path class="cls-44" d="m733.73,283.28v24.08h-7.54v-11.31c0-.35-.31-.64-.71-.64h-12.9c-.12-.09-.25-.16-.42-.16h-112.64c-.17,0-.3.07-.42.16h-12.9c-.41,0-.73.29-.73.64v11.31h-7.53v-24.08h-17.52v98.42l17.52,14.34v-10.4h7.53v55.4h140.73v-55.4h7.54v10.4l17.5-14.34v-98.42h-17.5Z"/>
          <path class="cls-85" d="m734.29,283.08v24.08h-7.54v-11.31c0-.35-.31-.64-.71-.64h-12.9c-.12-.09-.25-.16-.42-.16h-112.64c-.17,0-.3.07-.42.16h-12.9c-.41,0-.73.29-.73.64v11.31h-7.53v-24.08h-17.52v98.42l17.52,14.34v-10.4h7.53v55.4h140.73v-55.4h7.54v10.4l17.5-14.34v-98.42h-17.5Z"/>
        </g>
        <g>
          <rect class="cls-62" x="586.01" y="393.77" width="140.73" height="47.05"/>
          <rect class="cls-65" x="569.73" y="371.39" width="173.3" height="14.04"/>
          <rect class="cls-65" x="569.73" y="307.16" width="173.3" height="14.04"/>
          <polygon class="cls-10" points="560.97 283.08 578.48 283.08 578.48 395.83 560.97 381.49 560.97 283.08"/>
          <polygon class="cls-14" points="734.29 283.08 751.79 283.08 751.79 381.49 734.29 395.83 734.29 283.08"/>
          <path class="cls-47" d="m600.06,391.29c-.09,0-.08.07-.17.09h-13.16c-.4,0-.71.11-.71.25v38.13c0,.14.32.25.71.25h12.94c.13.08.17.21.39.21h112.64c.23,0,.27-.13.39-.21h12.94c.4,0,.72-.11.72-.25v-38.13c0-.14-.32-.25-.72-.25h-13.16c-.08-.02-.07-.09-.17-.09h-112.64Zm.71,33.72v-5.12h111.22v5.12h-111.22Zm0-10.32v-5.12h111.22v5.12h-111.22Zm0-15.45h111.22v5.13h-111.22v-5.13Z"/>
          <path class="cls-2" d="m726.03,295.21h-12.9c-.12-.09-.25-.16-.42-.16h-112.64c-.17,0-.3.07-.42.16h-12.9c-.41,0-.73.29-.73.64v97.92c0,.34.32.62.73.62h13.22s.07.04.11.04h112.64s.06-.03.11-.04h13.22c.4,0,.71-.28.71-.62v-97.92c0-.35-.31-.64-.71-.64Zm-125.26,68.75v-3.96h111.22v3.96h-111.22Zm111.22-38.41v3.96h-111.22v-3.96h111.22Zm-111.22,21.19v-3.97h111.22v3.97h-111.22Zm111.22-34.44h-111.22v-3.98h111.22v3.98Zm-111.22,64.93h111.22v3.97h-111.22v-3.97Z"/>
          <rect class="cls-16" x="586.01" y="429.76" width="140.73" height="11.07"/>
        </g>
        <path class="cls-70" d="m732.94,282.06v25.1h-4.86v-11.31c0-.91-.92-1.65-2.05-1.65h-12.5c-.32-.12-.61-.15-.83-.15h-112.64c-.29,0-.57.05-.83.15h-12.5c-1.13,0-2.05.74-2.05,1.65v11.31h-4.85v-25.1h-20.2v99.83l20.2,16.53v-13h4.85v8.35c0,.13.14.21.17.33v34.64h-.17v13.09h143.41v-13.09h-.17v-34.64c.03-.12.17-.2.17-.33v-8.35h4.86v13l20.18-16.53v-99.83h-20.18Zm-130.83,46.43v-1.94h108.53v1.94h-108.53Zm0,17.22v-1.95h108.53v1.95h-108.53Zm0,17.23v-1.95h108.53v1.95h-108.53Zm-22.28,8.44v-50.19h4.85v50.19h-4.85Zm148.26,0v-50.19h4.86v50.19h-4.86Z"/>
      </g>
      <g>
        <g class="cls-71">
          <path class="cls-29" d="m711.41,68.95h31.91v5.69h-14.98c-.46,0-.84.23-.84.54v9.74c-.12.09-.22.19-.22.31v85.02c0,.13.1.23.22.32v9.74c0,.31.38.55.84.55h14.98v5.68h-31.91v13.22h130.39l18.99-13.22h-13.78v-5.68h73.4v-106.22h-73.4v-5.69h13.78l-18.99-13.21h-130.39v13.21Z"/>
          <path class="cls-90" d="m711.92,68.74h31.91v5.69h-14.98c-.46,0-.84.23-.84.54v9.74c-.12.09-.22.19-.22.31v85.02c0,.13.1.23.22.32v9.74c0,.31.38.55.84.55h14.98v5.68h-31.91v13.22h130.39l18.99-13.22h-13.78v-5.68h73.4v-106.22h-73.4v-5.69h13.78l-18.99-13.21h-130.39v13.21Z"/>
          <path class="cls-59" d="m712.44,68.54h31.91v5.69h-14.98c-.46,0-.84.23-.84.54v9.74c-.12.09-.22.19-.22.31v85.02c0,.13.1.23.22.32v9.74c0,.31.38.55.84.55h14.98v5.68h-31.91v13.22h130.39l18.99-13.22h-13.78v-5.68h73.4v-106.22h-73.4v-5.69h13.78l-18.99-13.21h-130.39v13.21Z"/>
          <path class="cls-92" d="m712.95,68.34h31.91v5.69h-14.98c-.46,0-.84.23-.84.54v9.74c-.12.09-.22.19-.22.31v85.02c0,.13.1.23.22.32v9.74c0,.31.38.55.84.55h14.98v5.68h-31.91v13.22h130.39l18.99-13.22h-13.78v-5.68h73.4v-106.22h-73.4v-5.69h13.78l-18.99-13.21h-130.39v13.21Z"/>
          <path class="cls-61" d="m713.47,68.14h31.91v5.69h-14.98c-.46,0-.84.23-.84.54v9.74c-.12.09-.22.19-.22.31v85.02c0,.13.1.23.22.32v9.74c0,.31.38.55.84.55h14.98v5.68h-31.91v13.22h130.39l18.99-13.22h-13.78v-5.68h73.4v-106.22h-73.4v-5.69h13.78l-18.99-13.21h-130.39v13.21Z"/>
          <path class="cls-32" d="m713.98,67.93h31.91v5.69h-14.98c-.46,0-.84.23-.84.54v9.74c-.12.09-.22.19-.22.31v85.02c0,.13.1.23.22.32v9.74c0,.31.38.55.84.55h14.98v5.68h-31.91v13.22h130.39l18.99-13.22h-13.78v-5.68h73.4v-106.22h-73.4v-5.69h13.78l-18.99-13.21h-130.39v13.21Z"/>
          <path class="cls-63" d="m714.49,67.73h31.91v5.69h-14.98c-.46,0-.84.23-.84.54v9.74c-.12.09-.22.19-.22.31v85.02c0,.13.1.23.22.32v9.74c0,.31.38.55.84.55h14.98v5.68h-31.91v13.22h130.39l18.99-13.22h-13.78v-5.68h73.4v-106.22h-73.4v-5.69h13.78l-18.99-13.21h-130.39v13.21Z"/>
          <path class="cls-83" d="m715.01,67.53h31.91v5.69h-14.98c-.46,0-.84.23-.84.54v9.74c-.12.09-.22.19-.22.31v85.02c0,.13.1.23.22.32v9.74c0,.31.38.55.84.55h14.98v5.68h-31.91v13.22h130.39l18.99-13.22h-13.78v-5.68h73.4v-106.22h-73.4v-5.69h13.78l-18.99-13.21h-130.39v13.21Z"/>
          <path class="cls-74" d="m715.52,67.32h31.91v5.69h-14.98c-.46,0-.84.23-.84.54v9.74c-.12.09-.22.19-.22.31v85.02c0,.13.1.23.22.32v9.74c0,.31.38.55.84.55h14.98v5.68h-31.91v13.22h130.39l18.99-13.22h-13.78v-5.68h73.4v-106.22h-73.4v-5.69h13.78l-18.99-13.21h-130.39v13.21Z"/>
          <path class="cls-36" d="m716.04,67.12h31.91v5.69h-14.98c-.46,0-.84.23-.84.54v9.74c-.12.09-.22.19-.22.31v85.02c0,.13.1.23.22.32v9.74c0,.31.38.55.84.55h14.98v5.68h-31.91v13.22h130.39l18.99-13.22h-13.78v-5.68h73.4v-106.22h-73.4v-5.69h13.78l-18.99-13.21h-130.39v13.21Z"/>
          <path class="cls-39" d="m716.55,66.92h31.91v5.69h-14.98c-.46,0-.84.23-.84.54v9.74c-.12.09-.22.19-.22.31v85.02c0,.13.1.23.22.32v9.74c0,.31.38.55.84.55h14.98v5.68h-31.91v13.22h130.39l18.99-13.22h-13.78v-5.68h73.4v-106.22h-73.4v-5.69h13.78l-18.99-13.21h-130.39v13.21Z"/>
          <path class="cls-28" d="m717.06,66.72h31.91v5.69h-14.98c-.46,0-.84.23-.84.54v9.74c-.12.09-.22.19-.22.31v85.02c0,.13.1.23.22.32v9.74c0,.31.38.55.84.55h14.98v5.68h-31.91v13.22h130.39l18.99-13.22h-13.78v-5.68h73.4v-106.22h-73.4v-5.69h13.78l-18.99-13.21h-130.39v13.21Z"/>
          <path class="cls-79" d="m717.58,66.51h31.91v5.69h-14.98c-.46,0-.84.23-.84.54v9.74c-.12.09-.22.19-.22.31v85.02c0,.13.1.23.22.32v9.74c0,.31.38.55.84.55h14.98v5.68h-31.91v13.22h130.39l18.99-13.22h-13.78v-5.68h73.4v-106.22h-73.4v-5.69h13.78l-18.99-13.21h-130.39v13.21Z"/>
          <path class="cls-89" d="m718.09,66.31h31.91v5.69h-14.98c-.46,0-.84.23-.84.54v9.74c-.12.09-.22.19-.22.31v85.02c0,.13.1.23.22.32v9.74c0,.31.38.55.84.55h14.98v5.68h-31.91v13.22h130.39l18.99-13.22h-13.78v-5.68h73.4v-106.22h-73.4v-5.69h13.78l-18.99-13.21h-130.39v13.21Z"/>
          <path class="cls-77" d="m718.61,66.11h31.91v5.69h-14.98c-.46,0-.84.23-.84.54v9.74c-.12.09-.22.19-.22.31v85.02c0,.13.1.23.22.32v9.74c0,.31.38.55.84.55h14.98v5.68h-31.91v13.22h130.39l18.99-13.22h-13.78v-5.68h73.4v-106.22h-73.4v-5.69h13.78l-18.99-13.21h-130.39v13.21Z"/>
          <path class="cls-27" d="m719.12,65.9h31.91v5.69h-14.98c-.46,0-.84.23-.84.54v9.74c-.12.09-.22.19-.22.31v85.02c0,.13.1.23.22.32v9.74c0,.31.38.55.84.55h14.98v5.68h-31.91v13.22h130.39l18.99-13.22h-13.78v-5.68h73.4v-106.22h-73.4v-5.69h13.78l-18.99-13.21h-130.39v13.21Z"/>
          <path class="cls-75" d="m719.63,65.7h31.91v5.69h-14.98c-.46,0-.84.23-.84.54v9.74c-.12.09-.22.19-.22.31v85.02c0,.13.1.23.22.32v9.74c0,.31.38.55.84.55h14.98v5.68h-31.91v13.22h130.39l18.99-13.22h-13.78v-5.68h73.4v-106.22h-73.4v-5.69h13.78l-18.99-13.21h-130.39v13.21Z"/>
          <path class="cls-86" d="m720.15,65.5h31.91v5.69h-14.98c-.46,0-.84.23-.84.54v9.74c-.12.09-.22.19-.22.31v85.02c0,.13.1.23.22.32v9.74c0,.31.38.55.84.55h14.98v5.68h-31.91v13.22h130.39l18.99-13.22h-13.78v-5.68h73.4v-106.22h-73.4v-5.69h13.78l-18.99-13.21h-130.39v13.21Z"/>
          <path class="cls-93" d="m720.66,65.3h31.91v5.69h-14.98c-.46,0-.84.23-.84.54v9.74c-.12.09-.22.19-.22.31v85.02c0,.13.1.23.22.32v9.74c0,.31.38.55.84.55h14.98v5.68h-31.91v13.22h130.39l18.99-13.22h-13.78v-5.68h73.4v-106.22h-73.4v-5.69h13.78l-18.99-13.21h-130.39v13.21Z"/>
          <path class="cls-88" d="m721.17,65.09h31.91v5.69h-14.98c-.46,0-.84.23-.84.54v9.74c-.12.09-.22.19-.22.31v85.02c0,.13.1.23.22.32v9.74c0,.31.38.55.84.55h14.98v5.68h-31.91v13.22h130.39l18.99-13.22h-13.78v-5.68h73.4v-106.22h-73.4v-5.69h13.78l-18.99-13.21h-130.39v13.21Z"/>
          <path class="cls-67" d="m721.69,64.89h31.91v5.69h-14.98c-.46,0-.84.23-.84.54v9.74c-.12.09-.22.19-.22.31v85.02c0,.13.1.23.22.32v9.74c0,.31.38.55.84.55h14.98v5.68h-31.91v13.22h130.39l18.99-13.22h-13.78v-5.68h73.4v-106.22h-73.4v-5.69h13.78l-18.99-13.21h-130.39v13.21Z"/>
          <path class="cls-57" d="m722.2,64.69h31.91v5.69h-14.98c-.46,0-.84.23-.84.54v9.74c-.12.09-.22.19-.22.31v85.02c0,.13.1.23.22.32v9.74c0,.31.38.55.84.55h14.98v5.68h-31.91v13.22h130.39l18.99-13.22h-13.78v-5.68h73.39v-106.22h-73.39v-5.69h13.78l-18.99-13.21h-130.39v13.21Z"/>
          <path class="cls-26" d="m722.72,64.48h31.91v5.69h-14.98c-.46,0-.84.23-.84.54v9.74c-.12.09-.22.19-.22.31v85.02c0,.13.1.23.22.32v9.74c0,.31.38.55.84.55h14.98v5.68h-31.91v13.22h130.39l18.99-13.22h-13.78v-5.68h73.39v-106.22h-73.39v-5.69h13.78l-18.99-13.21h-130.39v13.21Z"/>
          <path class="cls-72" d="m723.23,64.28h31.91v5.69h-14.98c-.46,0-.84.23-.84.54v9.74c-.12.09-.22.19-.22.31v85.02c0,.13.1.23.22.32v9.74c0,.31.38.55.84.55h14.98v5.68h-31.91v13.22h130.39l18.99-13.22h-13.78v-5.68h73.39v-106.22h-73.39v-5.69h13.78l-18.99-13.21h-130.39v13.21Z"/>
          <path class="cls-54" d="m723.74,64.08h31.91v5.69h-14.98c-.46,0-.84.23-.84.54v9.74c-.12.09-.22.19-.22.31v85.02c0,.13.1.23.22.32v9.74c0,.31.38.55.84.55h14.98v5.68h-31.91v13.22h130.39l18.99-13.22h-13.78v-5.68h73.39v-106.22h-73.39v-5.69h13.78l-18.99-13.21h-130.39v13.21Z"/>
          <path class="cls-53" d="m724.26,63.88h31.91v5.69h-14.98c-.46,0-.84.23-.84.54v9.74c-.12.09-.22.19-.22.31v85.02c0,.13.1.23.22.32v9.74c0,.31.38.55.84.55h14.98v5.68h-31.91v13.22h130.39l18.99-13.22h-13.78v-5.68h73.39v-106.22h-73.39v-5.69h13.78l-18.99-13.21h-130.39v13.21Z"/>
          <path class="cls-64" d="m724.77,63.67h31.91v5.69h-14.98c-.46,0-.84.23-.84.54v9.74c-.12.09-.22.19-.22.31v85.02c0,.13.1.23.22.32v9.74c0,.31.38.55.84.55h14.98v5.68h-31.91v13.22h130.39l18.99-13.22h-13.78v-5.68h73.39v-106.22h-73.39v-5.69h13.78l-18.99-13.21h-130.39v13.21Z"/>
          <path class="cls-60" d="m725.29,63.47h31.91v5.69h-14.98c-.46,0-.84.23-.84.54v9.74c-.12.09-.22.19-.22.31v85.02c0,.13.1.23.22.32v9.74c0,.31.38.55.84.55h14.98v5.68h-31.91v13.22h130.39l18.99-13.22h-13.78v-5.68h73.39v-106.22h-73.39v-5.69h13.78l-18.99-13.21h-130.39v13.21Z"/>
          <path class="cls-91" d="m725.8,63.27h31.91v5.69h-14.98c-.46,0-.84.23-.84.54v9.74c-.12.09-.22.19-.22.31v85.02c0,.13.1.23.22.32v9.74c0,.31.38.55.84.55h14.98v5.68h-31.91v13.22h130.39l18.99-13.22h-13.78v-5.68h73.39v-106.22h-73.39v-5.69h13.78l-18.99-13.21h-130.39v13.21Z"/>
          <path class="cls-38" d="m726.31,63.06h31.91v5.69h-14.98c-.46,0-.84.23-.84.54v9.74c-.12.09-.22.19-.22.31v85.02c0,.13.1.23.22.32v9.74c0,.31.38.55.84.55h14.98v5.68h-31.91v13.22h130.39l18.99-13.22h-13.78v-5.68h73.39v-106.22h-73.39v-5.69h13.78l-18.99-13.21h-130.39v13.21Z"/>
          <path class="cls-38" d="m726.83,62.86h31.91v5.69h-14.98c-.46,0-.84.23-.84.54v9.74c-.12.09-.22.19-.22.31v85.02c0,.13.1.23.22.32v9.74c0,.31.38.55.84.55h14.98v5.68h-31.91v13.22h130.39l18.99-13.22h-13.78v-5.68h73.39v-106.22h-73.39v-5.69h13.78l-18.99-13.21h-130.39v13.21Z"/>
          <path class="cls-52" d="m727.34,62.66h31.91v5.69h-14.98c-.46,0-.84.23-.84.53v9.74c-.12.09-.22.19-.22.31v85.02c0,.13.1.23.22.32v9.74c0,.31.38.55.84.55h14.98v5.68h-31.91v13.22h130.39l18.99-13.22h-13.78v-5.68h73.39v-106.22h-73.39v-5.69h13.78l-18.99-13.21h-130.39v13.21Z"/>
          <path class="cls-43" d="m727.86,62.46h31.91v5.69h-14.98c-.46,0-.84.23-.84.53v9.74c-.12.09-.22.19-.22.31v85.02c0,.13.09.23.22.32v9.74c0,.31.38.55.84.55h14.98v5.68h-31.91v13.22h130.39l18.99-13.22h-13.78v-5.68h73.39v-106.22h-73.39v-5.69h13.78l-18.99-13.21h-130.39v13.21Z"/>
          <path class="cls-94" d="m728.37,62.25h31.91v5.69h-14.98c-.46,0-.84.23-.84.53v9.74c-.12.09-.22.19-.22.31v85.02c0,.13.09.23.22.32v9.74c0,.31.38.55.84.55h14.98v5.68h-31.91v13.22h130.39l18.99-13.22h-13.78v-5.68h73.39v-106.22h-73.39v-5.69h13.78l-18.99-13.21h-130.39v13.21Z"/>
          <path class="cls-45" d="m728.88,62.05h31.91v5.69h-14.98c-.46,0-.84.23-.84.53v9.74c-.12.09-.22.19-.22.31v85.02c0,.13.09.23.22.32v9.74c0,.31.38.55.84.55h14.98v5.68h-31.91v13.22h130.39l18.99-13.22h-13.78v-5.68h73.39v-106.22h-73.39v-5.69h13.78l-18.99-13.21h-130.39v13.21Z"/>
          <path class="cls-25" d="m729.4,61.85h31.91v5.69h-14.98c-.46,0-.84.23-.84.53v9.74c-.12.09-.22.19-.22.31v85.02c0,.13.09.23.22.32v9.74c0,.31.38.55.84.55h14.98v5.68h-31.91v13.22h130.39l18.99-13.22h-13.78v-5.68h73.39v-106.22h-73.39v-5.69h13.78l-18.99-13.21h-130.39v13.21Z"/>
          <path class="cls-69" d="m729.91,61.64h31.91v5.69h-14.98c-.46,0-.84.23-.84.53v9.74c-.12.09-.22.19-.22.31v85.02c0,.13.09.23.22.32v9.74c0,.31.38.55.84.55h14.98v5.68h-31.91v13.22h130.39l18.99-13.22h-13.78v-5.68h73.39v-106.22h-73.39v-5.69h13.78l-18.99-13.21h-130.39v13.21Z"/>
          <path class="cls-33" d="m730.43,61.44h31.91v5.69h-14.98c-.46,0-.84.23-.84.53v9.74c-.12.09-.22.19-.22.31v85.02c0,.13.09.23.22.32v9.74c0,.31.38.55.84.55h14.98v5.68h-31.91v13.22h130.39l18.99-13.22h-13.78v-5.68h73.39v-106.22h-73.39v-5.69h13.78l-18.99-13.21h-130.39v13.21Z"/>
          <path class="cls-56" d="m730.94,61.24h31.91v5.69h-14.98c-.46,0-.84.23-.84.53v9.74c-.12.09-.21.19-.21.31v85.02c0,.13.09.23.21.32v9.74c0,.31.38.55.84.55h14.98v5.68h-31.91v13.22h130.39l18.99-13.22h-13.78v-5.68h73.39v-106.22h-73.39v-5.69h13.78l-18.99-13.21h-130.39v13.21Z"/>
          <path class="cls-81" d="m731.45,61.04h31.91v5.69h-14.98c-.46,0-.84.23-.84.53v9.74c-.12.09-.21.19-.21.31v85.02c0,.13.09.23.21.32v9.74c0,.31.38.55.84.55h14.98v5.68h-31.91v13.22h130.39l18.99-13.22h-13.78v-5.68h73.39v-106.22h-73.39v-5.69h13.78l-18.99-13.21h-130.39v13.21Z"/>
          <path class="cls-35" d="m731.97,60.83h31.91v5.69h-14.98c-.46,0-.84.23-.84.53v9.74c-.12.09-.21.19-.21.31v85.02c0,.13.09.23.21.32v9.74c0,.31.38.55.84.55h14.98v5.68h-31.91v13.22h130.39l18.99-13.22h-13.78v-5.68h73.39v-106.22h-73.39v-5.69h13.78l-18.99-13.21h-130.39v13.21Z"/>
          <path class="cls-51" d="m732.48,60.63h31.91v5.69h-14.98c-.46,0-.84.23-.84.53v9.74c-.12.09-.21.19-.21.31v85.02c0,.13.09.23.21.32v9.74c0,.31.38.55.84.55h14.98v5.68h-31.91v13.22h130.39l18.99-13.22h-13.78v-5.68h73.39v-106.22h-73.39v-5.69h13.78l-18.99-13.21h-130.39v13.21Z"/>
          <path class="cls-41" d="m732.99,60.43h31.91v5.69h-14.98c-.46,0-.84.23-.84.53v9.75c-.12.09-.21.19-.21.31v85.02c0,.13.09.23.21.32v9.74c0,.31.38.55.84.55h14.98v5.68h-31.91v13.22h130.39l18.99-13.22h-13.78v-5.68h73.39v-106.22h-73.39v-5.69h13.78l-18.99-13.21h-130.39v13.21Z"/>
          <path class="cls-68" d="m733.51,60.22h31.91v5.69h-14.98c-.46,0-.84.23-.84.53v9.75c-.12.09-.21.19-.21.31v85.02c0,.13.09.23.21.32v9.74c0,.31.38.55.84.55h14.98v5.68h-31.91v13.22h130.39l18.99-13.22h-13.78v-5.68h73.39v-106.22h-73.39v-5.69h13.78l-18.99-13.21h-130.39v13.21Z"/>
          <path class="cls-55" d="m734.02,60.02h31.91v5.69h-14.98c-.46,0-.84.23-.84.53v9.75c-.12.09-.21.19-.21.31v85.02c0,.13.09.23.21.32v9.74c0,.31.38.55.84.55h14.98v5.68h-31.91v13.22h130.39l18.99-13.22h-13.78v-5.68h73.39v-106.22h-73.39v-5.69h13.78l-18.99-13.21h-130.39v13.21Z"/>
          <path class="cls-66" d="m734.54,59.82h31.91v5.69h-14.98c-.46,0-.84.23-.84.53v9.75c-.12.09-.21.19-.21.31v85.02c0,.13.09.23.21.32v9.74c0,.31.38.54.84.54h14.98v5.68h-31.91v13.23h130.39l18.99-13.23h-13.78v-5.68h73.39v-106.22h-73.39v-5.69h13.78l-18.99-13.21h-130.39v13.21Z"/>
          <path class="cls-84" d="m735.05,59.62h31.91v5.69h-14.98c-.46,0-.84.23-.84.53v9.75c-.12.09-.21.19-.21.31v85.02c0,.13.09.23.21.32v9.74c0,.31.38.54.84.54h14.98v5.68h-31.91v13.23h130.39l18.99-13.23h-13.78v-5.68h73.39v-106.22h-73.39v-5.69h13.78l-18.99-13.21h-130.39v13.21Z"/>
          <path class="cls-31" d="m735.56,59.41h31.91v5.69h-14.98c-.46,0-.84.23-.84.53v9.75c-.12.09-.21.19-.21.31v85.02c0,.13.09.23.21.32v9.74c0,.31.38.54.84.54h14.98v5.68h-31.91v13.23h130.39l18.99-13.23h-13.78v-5.68h73.39v-106.22h-73.39v-5.69h13.78l-18.99-13.21h-130.39v13.21Z"/>
          <path class="cls-87" d="m736.08,59.21h31.91v5.69h-14.98c-.46,0-.84.23-.84.53v9.75c-.12.09-.21.19-.21.31v85.02c0,.13.09.23.21.32v9.74c0,.31.38.54.84.54h14.98v5.68h-31.91v13.23h130.39l18.99-13.23h-13.78v-5.68h73.39v-106.22h-73.39v-5.69h13.78l-18.99-13.21h-130.39v13.21Z"/>
          <path class="cls-50" d="m736.59,59.01h31.91v5.69h-14.98c-.46,0-.84.23-.84.53v9.75c-.12.09-.21.19-.21.31v85.02c0,.13.09.23.21.32v9.74c0,.31.38.54.84.54h14.98v5.68h-31.91v13.23h130.39l18.99-13.23h-13.78v-5.68h73.39v-106.22h-73.39v-5.69h13.78l-18.99-13.21h-130.39v13.21Z"/>
          <path class="cls-78" d="m737.11,58.8h31.91v5.69h-14.98c-.46,0-.84.23-.84.53v9.75c-.12.09-.21.19-.21.31v85.02c0,.13.09.23.21.32v9.74c0,.31.38.54.84.54h14.98v5.68h-31.91v13.23h130.39l18.99-13.23h-13.78v-5.68h73.39v-106.22h-73.39v-5.69h13.78l-18.99-13.21h-130.39v13.21Z"/>
          <path class="cls-82" d="m737.62,58.6h31.91v5.69h-14.98c-.46,0-.84.23-.84.53v9.75c-.12.09-.21.19-.21.31v85.02c0,.13.09.23.21.32v9.74c0,.31.38.54.84.54h14.98v5.68h-31.91v13.23h130.39l18.99-13.23h-13.78v-5.68h73.39v-106.22h-73.39v-5.69h13.78l-18.99-13.21h-130.39v13.21Z"/>
          <path class="cls-73" d="m738.13,58.4h31.91v5.69h-14.98c-.46,0-.84.23-.84.53v9.75c-.12.09-.21.19-.21.31v85.02c0,.13.09.23.21.32v9.74c0,.31.38.54.84.54h14.98v5.68h-31.91v13.23h130.39l18.99-13.23h-13.78v-5.68h73.39v-106.22h-73.39v-5.69h13.78l-18.99-13.21h-130.39v13.21Z"/>
          <path class="cls-30" d="m738.65,58.2h31.91v5.69h-14.98c-.46,0-.84.23-.84.53v9.75c-.12.09-.21.19-.21.31v85.02c0,.13.09.23.21.32v9.74c0,.31.38.54.84.54h14.98v5.68h-31.91v13.23h130.39l18.99-13.23h-13.78v-5.68h73.39V63.89h-73.39v-5.69h13.78l-18.99-13.21h-130.39v13.21Z"/>
          <path class="cls-34" d="m739.16,57.99h31.91v5.69h-14.98c-.46,0-.84.23-.84.53v9.75c-.12.09-.21.19-.21.31v85.02c0,.13.09.23.21.32v9.74c0,.31.38.54.84.54h14.98v5.68h-31.91v13.23h130.39l18.99-13.23h-13.78v-5.68h73.39V63.69h-73.39v-5.69h13.78l-18.99-13.21h-130.39v13.21Z"/>
          <path class="cls-42" d="m739.68,57.79h31.91v5.69h-14.98c-.46,0-.84.23-.84.53v9.75c-.12.09-.21.19-.21.31v85.02c0,.13.09.23.21.32v9.74c0,.31.38.54.84.54h14.98v5.68h-31.91v13.23h130.39l18.99-13.23h-13.78v-5.68h73.39V63.48h-73.39v-5.69h13.78l-18.99-13.21h-130.39v13.21Z"/>
          <path class="cls-58" d="m740.19,57.59h31.91v5.69h-14.98c-.46,0-.84.23-.84.53v9.75c-.12.09-.21.19-.21.31v85.02c0,.13.09.23.21.32v9.74c0,.31.38.54.84.54h14.98v5.68h-31.91v13.23h130.39l18.99-13.23h-13.78v-5.68h73.39V63.28h-73.39v-5.69h13.78l-18.99-13.21h-130.39v13.21Z"/>
          <path class="cls-44" d="m740.7,57.38h31.91v5.69h-14.98c-.46,0-.84.23-.84.53v9.75c-.12.09-.21.19-.21.31v85.02c0,.13.09.23.21.32v9.74c0,.31.38.54.84.54h14.98v5.68h-31.91v13.23h130.39l18.99-13.23h-13.78v-5.68h73.39V63.08h-73.39v-5.69h13.78l-18.99-13.21h-130.39v13.21Z"/>
          <path class="cls-85" d="m741.22,57.18h31.91v5.69h-14.98c-.46,0-.84.23-.84.53v9.75c-.12.09-.21.19-.21.31v85.02c0,.13.09.23.21.32v9.74c0,.31.38.54.84.54h14.98v5.68h-31.91v13.23h130.39l18.99-13.23h-13.78v-5.68h73.39V62.88h-73.39v-5.69h13.78l-18.99-13.21h-130.39v13.21Z"/>
        </g>
        <g>
          <rect class="cls-80" x="887.88" y="62.88" width="62.33" height="106.22"/>
          <rect class="cls-65" x="858.22" y="50.58" width="18.6" height="130.81"/>
          <rect class="cls-65" x="773.12" y="50.58" width="18.6" height="130.81"/>
          <polygon class="cls-19" points="741.22 188 741.22 174.78 890.6 174.78 871.6 188 741.22 188"/>
          <polygon class="cls-24" points="741.22 57.18 741.22 43.97 871.6 43.97 890.6 57.18 741.22 57.18"/>
          <path class="cls-48" d="m884.59,158.5c0,.07.08.06.11.13v9.94c0,.3.14.53.33.53h50.52c.18,0,.33-.23.33-.53v-9.78c.11-.09.27-.13.27-.29v-85.02c0-.17-.17-.2-.27-.3v-9.76c0-.31-.14-.54-.33-.54h-50.52c-.18,0-.33.23-.33.54v9.93c-.03.07-.11.06-.11.13v85.02Zm44.66-.54h-6.78v-83.95h6.78v83.95Zm-13.67,0h-6.78v-83.95h6.78v83.95Zm-20.47,0v-83.95h6.79v83.95h-6.79Z"/>
          <path class="cls-9" d="m757.3,63.41v9.75c-.12.09-.21.19-.21.31v85.02c0,.13.09.23.21.32v9.74c0,.31.38.54.84.54h129.73c.45,0,.83-.23.83-.54v-9.98s.05-.05.05-.09v-85.02s-.05-.05-.05-.08v-9.98c0-.3-.37-.53-.83-.53h-129.73c-.46,0-.84.23-.84.53Zm91.08,94.55h-5.25v-83.95h5.25v83.95Zm-50.89-83.95h5.24v83.95h-5.24v-83.95Zm28.06,83.95h-5.25v-83.95h5.25v83.95Zm-45.63-83.95v83.95h-5.27v-83.95h5.27Zm86.02,83.95v-83.95h5.25v83.95h-5.25Z"/>
          <rect class="cls-11" x="935.55" y="62.88" width="14.66" height="106.22"/>
        </g>
        <path class="cls-70" d="m739.88,58.19h33.25v3.67h-14.98c-1.21,0-2.18.69-2.18,1.55v9.43c-.17.24-.21.46-.21.63v85.02c0,.22.07.43.21.63v9.43c0,.86.97,1.56,2.18,1.56h14.98v3.66h-33.25v15.25h132.26l21.91-15.25h-17.22v-3.66h11.06c.18,0,.28-.1.44-.13h45.89v.13h17.35V61.86h-17.35v.13h-45.9c-.16-.02-.27-.13-.43-.13h-11.06v-3.67h17.22l-21.91-15.24h-132.26v15.24Zm61.52,98.75h-2.57v-81.92h2.57v81.92Zm22.82,0h-2.58v-81.92h2.58v81.92Zm22.82,0h-2.58v-81.92h2.58v81.92Zm11.18,16.81h-66.5v-3.66h66.5v3.66Zm0-111.9h-66.5v-3.67h66.5v3.67Z"/>
      </g>
    </g>
  </g>
</svg>