<?xml version="1.0" encoding="utf-8"?>
<!-- Uploaded to: SVG Repo, www.svgrepo.com, Generator: SVG Repo Mixer Tools -->
<svg width="800px" height="800px" viewBox="0 0 1024 1024" class="icon"  version="1.1" xmlns="http://www.w3.org/2000/svg"><path d="M938.666667 832H298.666667L85.333333 512 298.666667 192h640z" fill="#CFD8DC" /><path d="M536.704 661.333333l-49.770667-298.666666h61.226667l15.338667 118.037333c3.818667 33.088 7.658667 66.325333 11.456 103.146667 3.882667-36.821333 11.541333-70.058667 19.2-103.146667L617.130667 362.666667h49.792l19.136 118.037333c3.776 33.088 11.434667 66.325333 15.317333 106.88 3.797333-40.533333 7.658667-70.058667 11.456-106.88L728.170667 362.666667h57.429333l-53.610667 298.666666h-61.290666l-19.114667-99.498666c-7.616-25.834667-11.541333-59.072-15.296-95.872-3.925333 36.821333-11.541333 70.037333-15.36 99.456L601.834667 661.333333h-65.130667z" fill="#455A64" /><path d="M448 192h-149.333333L85.333333 512l213.333334 320h149.333333L234.666667 512z" fill="#FF3D00" /></svg>