<?xml version="1.0" encoding="UTF-8"?>
<svg xmlns="http://www.w3.org/2000/svg" xmlns:xlink="http://www.w3.org/1999/xlink" viewBox="0 0 200.27 145.97">
  <defs>
    <style>
      .cls-1 {
        fill: url(#linear-gradient-3);
      }

      .cls-1, .cls-2, .cls-3, .cls-4, .cls-5, .cls-6 {
        mix-blend-mode: multiply;
      }

      .cls-7 {
        fill: #fafaf8;
      }

      .cls-8 {
        fill: #fff;
      }

      .cls-2 {
        fill: url(#linear-gradient);
      }

      .cls-9 {
        fill: #939598;
      }

      .cls-3 {
        fill: url(#linear-gradient-4);
      }

      .cls-10 {
        filter: url(#luminosity-noclip-5);
      }

      .cls-11 {
        mask: url(#mask-2);
      }

      .cls-12 {
        isolation: isolate;
      }

      .cls-13 {
        mask: url(#mask-3);
      }

      .cls-4 {
        fill: url(#linear-gradient-6);
      }

      .cls-5 {
        fill: url(#linear-gradient-5);
      }

      .cls-14 {
        mask: url(#mask-5);
      }

      .cls-15 {
        mask: url(#mask-4);
      }

      .cls-6 {
        fill: url(#linear-gradient-2);
      }

      .cls-16 {
        filter: url(#luminosity-noclip);
      }

      .cls-17 {
        mask: url(#mask-1);
      }

      .cls-18 {
        mask: url(#mask);
      }

      .cls-19 {
        filter: url(#luminosity-noclip-3);
      }

      .cls-20 {
        fill: #26281e;
      }
    </style>
    <filter id="luminosity-noclip" x="50.8" y="117.04" width="32.2" height="3.86" color-interpolation-filters="sRGB" filterUnits="userSpaceOnUse">
      <feFlood flood-color="#fff" result="bg"/>
      <feBlend in="SourceGraphic" in2="bg"/>
    </filter>
    <filter id="luminosity-noclip-2" x="50.8" y="-8264.49" width="32.2" height="32766" color-interpolation-filters="sRGB" filterUnits="userSpaceOnUse">
      <feFlood flood-color="#fff" result="bg"/>
      <feBlend in="SourceGraphic" in2="bg"/>
    </filter>
    <mask id="mask-1" x="50.8" y="-8264.49" width="32.2" height="32766" maskUnits="userSpaceOnUse"/>
    <linearGradient id="linear-gradient" x1="66.9" y1="120.9" x2="66.9" y2="117.04" gradientUnits="userSpaceOnUse">
      <stop offset="0" stop-color="#000"/>
      <stop offset=".04" stop-color="#0f0f0f"/>
      <stop offset=".25" stop-color="#575757"/>
      <stop offset=".45" stop-color="#939393"/>
      <stop offset=".63" stop-color="#c1c1c1"/>
      <stop offset=".78" stop-color="#e3e3e3"/>
      <stop offset=".91" stop-color="#f7f7f7"/>
      <stop offset="1" stop-color="#fff"/>
    </linearGradient>
    <mask id="mask" x="50.8" y="117.04" width="32.2" height="3.86" maskUnits="userSpaceOnUse">
      <g class="cls-16">
        <g class="cls-17">
          <rect class="cls-2" x="50.8" y="117.04" width="32.2" height="3.86"/>
        </g>
      </g>
    </mask>
    <linearGradient id="linear-gradient-2" x1="66.9" y1="120.9" x2="66.9" y2="117.04" gradientUnits="userSpaceOnUse">
      <stop offset="0" stop-color="#fff"/>
      <stop offset=".04" stop-color="#efefef"/>
      <stop offset=".25" stop-color="#a7a7a7"/>
      <stop offset=".45" stop-color="#6b6b6b"/>
      <stop offset=".63" stop-color="#3d3d3d"/>
      <stop offset=".78" stop-color="#1b1b1b"/>
      <stop offset=".91" stop-color="#070707"/>
      <stop offset="1" stop-color="#000"/>
    </linearGradient>
    <filter id="luminosity-noclip-3" x="113.84" y="117.04" width="32.2" height="3.86" color-interpolation-filters="sRGB" filterUnits="userSpaceOnUse">
      <feFlood flood-color="#fff" result="bg"/>
      <feBlend in="SourceGraphic" in2="bg"/>
    </filter>
    <filter id="luminosity-noclip-4" x="113.84" y="-8264.49" width="32.2" height="32766" color-interpolation-filters="sRGB" filterUnits="userSpaceOnUse">
      <feFlood flood-color="#fff" result="bg"/>
      <feBlend in="SourceGraphic" in2="bg"/>
    </filter>
    <mask id="mask-3" x="113.84" y="-8264.49" width="32.2" height="32766" maskUnits="userSpaceOnUse"/>
    <linearGradient id="linear-gradient-3" x1="129.94" x2="129.94" xlink:href="#linear-gradient"/>
    <mask id="mask-2" x="113.84" y="117.04" width="32.2" height="3.86" maskUnits="userSpaceOnUse">
      <g class="cls-19">
        <g class="cls-13">
          <rect class="cls-1" x="113.84" y="117.04" width="32.2" height="3.86"/>
        </g>
      </g>
    </mask>
    <linearGradient id="linear-gradient-4" x1="129.94" x2="129.94" xlink:href="#linear-gradient-2"/>
    <filter id="luminosity-noclip-5" x="174.45" y="56.56" width="3.77" height="32.85" color-interpolation-filters="sRGB" filterUnits="userSpaceOnUse">
      <feFlood flood-color="#fff" result="bg"/>
      <feBlend in="SourceGraphic" in2="bg"/>
    </filter>
    <filter id="luminosity-noclip-6" x="174.45" y="-8264.49" width="3.77" height="32766" color-interpolation-filters="sRGB" filterUnits="userSpaceOnUse">
      <feFlood flood-color="#fff" result="bg"/>
      <feBlend in="SourceGraphic" in2="bg"/>
    </filter>
    <mask id="mask-5" x="174.45" y="-8264.49" width="3.77" height="32766" maskUnits="userSpaceOnUse"/>
    <linearGradient id="linear-gradient-5" x1="178.22" y1="72.99" x2="174.45" y2="72.99" xlink:href="#linear-gradient"/>
    <mask id="mask-4" x="174.45" y="56.56" width="3.77" height="32.85" maskUnits="userSpaceOnUse">
      <g class="cls-10">
        <g class="cls-14">
          <rect class="cls-5" x="174.45" y="56.56" width="3.77" height="32.85"/>
        </g>
      </g>
    </mask>
    <linearGradient id="linear-gradient-6" x1="178.22" y1="72.99" x2="174.45" y2="72.99" xlink:href="#linear-gradient-2"/>
  </defs>
  <g class="cls-12">
    <g id="Layer_1" data-name="Layer 1">
      <g>
        <g>
          <rect class="cls-9" x="24.97" y="31.8" width="152.53" height="88.36"/>
          <path class="cls-9" d="m177.5,120.16V31.8H24.97v88.36h152.53Zm.72-88.72v89.08c0,.2-.16.36-.36.36H24.61c-.2,0-.36-.16-.36-.36V31.44c0-.2.16-.36.36-.36h153.25c.2,0,.36.16.36.36Z"/>
        </g>
        <g>
          <path class="cls-9" d="m191.6,54.01c5.51,4.79,8.67,11.75,8.67,19.05s-3.18,14.29-8.72,19.1l-.1.09-3.41-4.01.05-.06c4.38-3.8,6.9-9.31,6.9-15.11s-2.49-11.24-6.82-15.02l3.35-3.93.09-.1Z"/>
          <path class="cls-9" d="m161.82,90.5c-1.11,0-2.19-.42-3.01-1.18-.89-.83-1.4-1.98-1.42-3.2v-26.05c0-1.23.52-2.42,1.42-3.26.63-.58,1.38-.96,2.21-1.12l1.2.08,25.82,2.42.13-.15c4.33,3.79,6.82,9.27,6.82,15.02s-2.52,11.31-6.9,15.11l-.05.06-25.82,2.42-.4-.15Z"/>
          <path class="cls-9" d="m152.69,9.07v.05s-4,3.41-4,3.41c-3.8-4.37-9.3-6.88-15.09-6.88s-11.31,2.52-15.11,6.9l-.06.05-3.93-3.47v-.04C119.31,3.54,126.27.36,133.61.36s14.29,3.18,19.09,8.71Z"/>
          <path class="cls-9" d="m148.63,133.53l4.01,3.42c-4.78,5.51-11.74,8.66-19.04,8.66s-14.26-3.15-19.05-8.66l3.88-3.42v-.09s.06,0,.06,0c3.8,4.37,9.31,6.88,15.11,6.88s11.22-2.48,15.02-6.79Z"/>
          <path class="cls-9" d="m151.03,38.45c.09,1.25-.34,2.47-1.18,3.37-.84.91-2.03,1.42-3.26,1.42h-26.05c-1.22-.03-2.37-.53-3.2-1.42-.84-.91-1.27-2.13-1.17-3.37l2.25-25.86.06-.05c3.8-4.38,9.31-6.9,15.11-6.9s11.29,2.52,15.09,6.88l-.06.06,2.4,25.86Z"/>
          <path class="cls-9" d="m149.85,104.32c.84.91,1.27,2.13,1.18,3.36v.04s-2.4,25.81-2.4,25.81h0c-3.8,4.33-9.27,6.81-15.02,6.81s-11.31-2.52-15.11-6.88h-.08l-2.25-25.73v-.04c-.09-1.23.34-2.45,1.18-3.36.83-.91,1.98-1.41,3.2-1.43h26.05c1.23,0,2.42.52,3.26,1.43Z"/>
          <path class="cls-9" d="m89.58,9.07v.05s-4,3.41-4,3.41c-3.8-4.37-9.3-6.88-15.09-6.88s-11.31,2.52-15.11,6.9l-.06.05-3.93-3.47v-.04C56.2,3.54,63.16.36,70.48.36s14.31,3.18,19.1,8.71Z"/>
          <path class="cls-9" d="m85.52,133.53l4.01,3.42c-4.78,5.51-11.74,8.66-19.04,8.66s-14.26-3.15-19.05-8.66l3.88-3.42v-.09s.06,0,.06,0c3.8,4.37,9.31,6.88,15.11,6.88s11.22-2.48,15.02-6.79Z"/>
          <path class="cls-9" d="m87.92,38.45c.09,1.25-.34,2.47-1.18,3.37-.84.91-2.03,1.42-3.26,1.42h-26.05c-1.22-.03-2.37-.53-3.2-1.42-.84-.91-1.27-2.13-1.17-3.37l2.25-25.86.06-.05c3.8-4.38,9.31-6.9,15.11-6.9s11.29,2.52,15.09,6.88l-.06.06,2.4,25.86Z"/>
          <path class="cls-9" d="m86.74,104.32c.84.91,1.27,2.13,1.18,3.36v.04s-2.4,25.81-2.4,25.81h0c-3.8,4.33-9.27,6.81-15.02,6.81s-11.31-2.52-15.11-6.88h-.08l-2.25-25.73v-.04c-.09-1.23.34-2.45,1.18-3.36.83-.91,1.98-1.41,3.2-1.43h26.05c1.23,0,2.42.52,3.26,1.43Z"/>
          <path class="cls-9" d="m46.86,87.56h.15c0,1.25-.52,2.43-1.43,3.27-.91.84-2.13,1.27-3.36,1.17l-.04.16-25.82-2.42-.06-.06c-4.38-3.8-6.88-9.31-6.88-15.11s2.5-11.3,6.88-15.1l.06.08,25.82-2.26.04-.14c1.23-.09,2.45.34,3.36,1.18.92.84,1.43,2.03,1.43,3.26l-.15.08v25.89Z"/>
          <path class="cls-9" d="m16.36,89.74l-3.42,4.01-.1-.09c-5.54-4.81-8.71-11.76-8.71-19.1s3.15-14.26,8.66-19.05l.1.1,3.41,3.85c-4.38,3.8-6.88,9.31-6.88,15.1s2.5,11.31,6.88,15.11l.06.06Z"/>
        </g>
        <g>
          <g>
            <path class="cls-8" d="m187.82,54.01c5.51,4.79,8.67,11.75,8.67,19.05s-3.18,14.29-8.72,19.1l-.1.09-3.41-4.01.05-.06c4.38-3.8,6.9-9.31,6.9-15.11s-2.49-11.24-6.82-15.02l3.35-3.93.09-.1Z"/>
            <path class="cls-7" d="m158.04,90.5c-1.11,0-2.19-.42-3.01-1.18-.89-.83-1.4-1.98-1.42-3.2v-26.05c0-1.23.52-2.42,1.42-3.26.63-.58,1.38-.96,2.21-1.12l1.2.08,25.82,2.42.13-.15c4.33,3.79,6.82,9.27,6.82,15.02s-2.52,11.31-6.9,15.11l-.05.06-25.82,2.42-.4-.15Z"/>
            <path class="cls-8" d="m148.92,9.07v.05s-4,3.41-4,3.41c-3.8-4.37-9.3-6.88-15.09-6.88s-11.31,2.52-15.11,6.9l-.06.05-3.93-3.47v-.04C115.54,3.54,122.5.36,129.83.36s14.29,3.18,19.09,8.71Z"/>
            <path class="cls-8" d="m144.86,133.53l4.01,3.42c-4.78,5.51-11.74,8.66-19.04,8.66s-14.26-3.15-19.05-8.66l3.88-3.42v-.09s.06,0,.06,0c3.8,4.37,9.31,6.88,15.11,6.88s11.22-2.48,15.02-6.79Z"/>
            <path class="cls-7" d="m147.26,38.45c.09,1.25-.34,2.47-1.18,3.37-.84.91-2.03,1.42-3.26,1.42h-26.05c-1.22-.03-2.37-.53-3.2-1.42-.84-.91-1.27-2.13-1.17-3.37l2.25-25.86.06-.05c3.8-4.38,9.31-6.9,15.11-6.9s11.29,2.52,15.09,6.88l-.06.06,2.4,25.86Z"/>
            <path class="cls-7" d="m146.08,104.32c.84.91,1.27,2.13,1.18,3.36v.04s-2.4,25.81-2.4,25.81h0c-3.8,4.33-9.27,6.81-15.02,6.81s-11.31-2.52-15.11-6.88h-.08l-2.25-25.73v-.04c-.09-1.23.34-2.45,1.18-3.36.83-.91,1.98-1.41,3.2-1.43h26.05c1.23,0,2.42.52,3.26,1.43Z"/>
            <path class="cls-8" d="m85.81,9.07v.05s-4,3.41-4,3.41c-3.8-4.37-9.3-6.88-15.09-6.88s-11.31,2.52-15.11,6.9l-.06.05-3.93-3.47v-.04C52.43,3.54,59.38.36,66.71.36s14.31,3.18,19.1,8.71Z"/>
            <path class="cls-8" d="m81.74,133.53l4.01,3.42c-4.78,5.51-11.74,8.66-19.04,8.66s-14.26-3.15-19.05-8.66l3.88-3.42v-.09s.06,0,.06,0c3.8,4.37,9.31,6.88,15.11,6.88s11.22-2.48,15.02-6.79Z"/>
            <path class="cls-7" d="m84.15,38.45c.09,1.25-.34,2.47-1.18,3.37-.84.91-2.03,1.42-3.26,1.42h-26.05c-1.22-.03-2.37-.53-3.2-1.42-.84-.91-1.27-2.13-1.17-3.37l2.25-25.86.06-.05c3.8-4.38,9.31-6.9,15.11-6.9s11.29,2.52,15.09,6.88l-.06.06,2.4,25.86Z"/>
            <path class="cls-7" d="m82.96,104.32c.84.91,1.27,2.13,1.18,3.36v.04s-2.4,25.81-2.4,25.81h0c-3.8,4.33-9.27,6.81-15.02,6.81s-11.31-2.52-15.11-6.88h-.08l-2.25-25.73v-.04c-.09-1.23.34-2.45,1.18-3.36.83-.91,1.98-1.41,3.2-1.43h26.05c1.23,0,2.42.52,3.26,1.43Z"/>
            <path class="cls-7" d="m43.09,87.56h.15c0,1.25-.52,2.43-1.43,3.27-.91.84-2.13,1.27-3.36,1.17l-.04.16-25.82-2.42-.06-.06c-4.38-3.8-6.88-9.31-6.88-15.11s2.5-11.3,6.88-15.1l.06.08,25.82-2.26.04-.14c1.23-.09,2.45.34,3.36,1.18.92.84,1.43,2.03,1.43,3.26l-.15.08v25.89Z"/>
            <path class="cls-8" d="m12.59,89.74l-3.42,4.01-.1-.09C3.53,88.86.36,81.91.36,74.57s3.15-14.26,8.66-19.05l.1.1,3.41,3.85c-4.38,3.8-6.88,9.31-6.88,15.1s2.5,11.31,6.88,15.11l.06.06Z"/>
          </g>
          <g>
            <path class="cls-20" d="m79.63,43.6h-25.89c-.2,0-.36-.16-.36-.36s.16-.36.36-.36h25.89c.2,0,.36.16.36.36s-.16.36-.36.36Z"/>
            <path class="cls-20" d="m79.7,43.6c-.2,0-.36-.16-.36-.36s.16-.36.36-.36c1.13,0,2.22-.48,3-1.31.77-.83,1.17-1.96,1.09-3.1-.01-.2.14-.37.33-.38.2,0,.37.14.38.33.09,1.34-.37,2.67-1.28,3.64-.91.98-2.19,1.54-3.52,1.54Z"/>
            <path class="cls-20" d="m84.16,38.92c-.18,0-.34-.14-.36-.32v-.11s-2.42-25.86-2.42-25.86c-.02-.2.13-.37.33-.39.2-.01.37.13.39.33l2.42,25.96c.02.2-.12.38-.32.4-.01,0-.03,0-.04,0Z"/>
            <path class="cls-20" d="m49.28,38.92s-.03,0-.04,0c-.2-.02-.34-.2-.32-.4v-.11s2.26-25.85,2.26-25.85c.02-.2.2-.34.39-.33.2.02.34.19.33.39l-2.27,25.98c-.02.18-.18.32-.36.32Z"/>
            <path class="cls-20" d="m53.73,43.6c-1.41-.03-2.64-.57-3.54-1.54-.91-.98-1.37-2.31-1.27-3.65.02-.2.19-.35.39-.33.2.02.35.19.33.39-.09,1.14.3,2.27,1.07,3.1.76.82,1.81,1.28,2.94,1.31.2,0,.39.17.39.36,0,.2-.12.36-.32.36Z"/>
            <path class="cls-20" d="m51.61,12.9c-.08,0-.17-.03-.24-.09-.15-.13-.17-.36-.04-.51,3.87-4.46,9.48-7.02,15.38-7.02s11.48,2.55,15.36,7.01c.13.15.12.37-.02.51-.14.13-.36.13-.49,0h-.01c-3.76-4.33-9.16-6.79-14.83-6.79s-11.11,2.47-14.84,6.77c-.07.08-.17.12-.27.12Z"/>
            <path class="cls-20" d="m47.62,9.44c-.08,0-.17-.03-.24-.09-.15-.13-.17-.36-.04-.51C52.23,3.22,59.28,0,66.71,0s14.5,3.22,19.37,8.83c.13.15.11.38-.04.51-.15.13-.38.11-.51-.04-4.73-5.45-11.6-8.58-18.83-8.58s-14.07,3.13-18.82,8.6c-.07.08-.17.12-.27.12Z"/>
            <path class="cls-20" d="m51.54,12.95c-.08,0-.17-.03-.24-.09l-3.93-3.47c-.15-.13-.16-.36-.03-.51.13-.15.36-.16.51-.03l3.93,3.47c.15.13.16.36.03.51-.07.08-.17.12-.27.12Z"/>
            <path class="cls-20" d="m81.76,12.9c-.09,0-.19-.03-.25-.1-.13-.14-.16-.33-.02-.47,0,0,.08-.08.08-.08l4.01-3.41c.15-.13.38-.11.51.04.13.15.11.38-.04.51l-4.01,3.41c-.08.06-.18.1-.28.1Z"/>
            <path class="cls-20" d="m79.63,103.24h-25.89c-.2,0-.36-.16-.36-.36s.16-.36.36-.36h25.89c.2,0,.36.16.36.36s-.16.36-.36.36Z"/>
            <path class="cls-20" d="m84.15,108.04s-.02,0-.03,0c-.2-.01-.35-.19-.33-.38.08-1.13-.32-2.26-1.09-3.09-.77-.84-1.86-1.32-3-1.32-.2,0-.36-.16-.36-.36s.16-.36.36-.36c1.33,0,2.62.57,3.52,1.55.91.97,1.37,2.3,1.28,3.63-.01.19-.17.33-.36.33Z"/>
            <path class="cls-20" d="m81.74,133.88s-.02,0-.03,0c-.2-.02-.34-.19-.32-.39l2.42-25.81c.02-.2.19-.33.39-.33.2.02.34.19.32.39l-2.42,25.81c-.02.19-.17.33-.36.33Z"/>
            <path class="cls-20" d="m51.52,133.85c-.17,0-.31-.09-.33-.27v-.09s-2.27-25.75-2.27-25.75c-.02-.2.13-.37.33-.39.19-.02.37.13.39.33l2.25,25.73c.02.19-.12.41-.31.43-.02,0-.04,0-.06,0Z"/>
            <path class="cls-20" d="m49.29,108.04c-.19,0-.34-.14-.36-.33-.11-1.33.35-2.65,1.27-3.63.89-.97,2.12-1.52,3.45-1.55l.08.36v.36h-.08c-1.13.02-2.17.49-2.93,1.32-.78.83-1.17,1.96-1.08,3.09.02.2-.13.37-.33.39,0,0-.02,0-.03,0Z"/>
            <path class="cls-20" d="m66.72,140.69c-5.9,0-11.51-2.55-15.38-7.01-.13-.15-.11-.38.04-.51.15-.13.38-.12.51.04,3.74,4.3,9.15,6.76,14.84,6.76s10.98-2.42,14.71-6.63c.02-.03.03-.05.06-.07.14-.14.41-.18.55-.04.14.14.18.33.04.47h0s-.03.05-.05.07c-3.87,4.4-9.44,6.92-15.29,6.92Z"/>
            <path class="cls-20" d="m66.72,145.97c-7.42,0-14.46-3.2-19.31-8.77-.03-.02-.05-.05-.06-.07-.14-.14-.13-.36.01-.5.14-.14.38-.13.52.01,0,0,.02.02.02.03.02.01.03.03.04.04,4.72,5.42,11.56,8.53,18.78,8.53s14.06-3.11,18.76-8.53c.03-.04.07-.06.11-.09h0c.14-.08.33-.07.44.04.14.14.16.34.02.48-.01.02-.03.04-.05.06-4.84,5.57-11.87,8.76-19.29,8.76Z"/>
            <path class="cls-20" d="m47.63,137.33c-.09,0-.19-.03-.25-.1-.13-.14-.15-.34-.02-.48l.05-.05,3.89-3.44c.15-.13.38-.12.51.03.13.15.12.38-.03.51l-3.88,3.42c-.08.07-.18.1-.28.1Z"/>
            <path class="cls-20" d="m85.78,137.35c-.06,0-.13-.02-.19-.07l-.06-.05-4.02-3.43c-.15-.13-.17-.36-.04-.51.13-.15.36-.17.51-.04l4.01,3.42c.15.13.2.38.08.53-.08.09-.18.15-.28.15Z"/>
            <path class="cls-20" d="m142.74,43.6h-25.89c-.2,0-.36-.16-.36-.36s.16-.36.36-.36h25.89c.2,0,.36.16.36.36s-.16.36-.36.36Z"/>
            <path class="cls-20" d="m142.82,43.6c-.2,0-.36-.16-.36-.36s.16-.36.36-.36c1.13,0,2.22-.48,3-1.31.77-.83,1.17-1.96,1.09-3.1-.01-.2.14-.37.33-.38.2,0,.37.14.38.33.09,1.34-.37,2.67-1.28,3.64-.91.98-2.19,1.54-3.52,1.54Z"/>
            <path class="cls-20" d="m147.27,38.92c-.18,0-.34-.14-.36-.32v-.11s-2.42-25.86-2.42-25.86c-.02-.2.13-.37.33-.39.2-.01.37.13.39.33l2.41,25.96c.02.2-.12.38-.32.4-.01,0-.03,0-.04,0Z"/>
            <path class="cls-20" d="m112.39,38.92s-.03,0-.04,0c-.2-.02-.34-.2-.32-.4v-.11s2.26-25.85,2.26-25.85c.02-.2.2-.34.39-.33.2.02.34.19.33.39l-2.27,25.98c-.02.18-.18.32-.36.32Z"/>
            <path class="cls-20" d="m116.85,43.6c-1.41-.03-2.64-.57-3.54-1.54-.91-.98-1.37-2.31-1.27-3.65.02-.2.2-.35.39-.33.2.02.35.19.33.39-.09,1.14.3,2.27,1.07,3.1.76.82,1.81,1.28,2.94,1.31.2,0,.39.17.39.36s-.12.36-.32.36Z"/>
            <path class="cls-20" d="m114.72,12.9c-.08,0-.17-.03-.24-.09-.15-.13-.17-.36-.04-.51,3.87-4.46,9.48-7.02,15.38-7.02s11.48,2.55,15.36,7.01c.13.15.12.38-.02.51-.14.13-.36.13-.5,0h-.01c-3.75-4.32-9.15-6.79-14.83-6.79s-11.1,2.47-14.84,6.77c-.07.08-.17.12-.27.12Z"/>
            <path class="cls-20" d="m110.73,9.44c-.08,0-.17-.03-.24-.09-.15-.13-.17-.36-.04-.51,4.88-5.62,11.94-8.84,19.37-8.84s14.49,3.22,19.36,8.83c.13.15.11.38-.04.51-.15.13-.38.11-.51-.04-4.73-5.45-11.59-8.58-18.82-8.58s-14.09,3.13-18.83,8.6c-.07.08-.17.12-.27.12Z"/>
            <path class="cls-20" d="m114.66,12.95c-.08,0-.17-.03-.24-.09l-3.93-3.47c-.15-.13-.16-.36-.03-.51.13-.15.36-.16.51-.03l3.93,3.47c.15.13.16.36.03.51-.07.08-.17.12-.27.12Z"/>
            <path class="cls-20" d="m144.87,12.9c-.09,0-.19-.03-.25-.1-.13-.14-.16-.33-.02-.47,0,0,.08-.08.08-.08l4.01-3.41c.15-.13.38-.11.51.04.13.15.11.38-.04.51l-4.01,3.41c-.08.06-.18.1-.28.1Z"/>
            <path class="cls-20" d="m142.74,103.24h-25.89c-.2,0-.36-.16-.36-.36s.16-.36.36-.36h25.89c.2,0,.36.16.36.36s-.16.36-.36.36Z"/>
            <path class="cls-20" d="m147.26,108.04s-.02,0-.02,0c-.21-.01-.36-.19-.34-.38.08-1.13-.32-2.26-1.09-3.09-.77-.84-1.86-1.32-3-1.32-.2,0-.36-.16-.36-.36s.16-.36.36-.36c1.34,0,2.62.57,3.52,1.55.91.97,1.37,2.29,1.28,3.63-.01.19-.17.33-.36.33Z"/>
            <path class="cls-20" d="m144.86,133.88s-.02,0-.03,0c-.2-.02-.34-.19-.32-.39l2.42-25.81c.02-.2.2-.33.39-.33.2.02.34.19.32.39l-2.42,25.81c-.02.19-.17.33-.36.33Z"/>
            <path class="cls-20" d="m114.64,133.85c-.17,0-.31-.09-.33-.27v-.09s-2.27-25.75-2.27-25.75c-.02-.2.13-.37.33-.39.2-.02.37.13.39.33l2.25,25.73c.02.19-.12.41-.31.43-.02,0-.04,0-.06,0Z"/>
            <path class="cls-20" d="m112.4,108.04c-.19,0-.34-.14-.36-.33-.11-1.33.35-2.65,1.27-3.63.89-.97,2.12-1.52,3.45-1.55l.08.36v.36h-.08c-1.13.02-2.17.49-2.93,1.32-.78.83-1.17,1.96-1.08,3.09.02.2-.13.37-.33.39,0,0-.02,0-.03,0Z"/>
            <path class="cls-20" d="m129.83,140.69c-5.9,0-11.51-2.55-15.38-7.01-.13-.15-.11-.38.04-.51.15-.13.38-.12.51.04,3.74,4.3,9.15,6.76,14.84,6.76s10.98-2.42,14.71-6.63c.01-.03.03-.05.05-.07.14-.14.4-.18.55-.04.14.14.18.33.04.47h-.01s-.03.05-.05.07c-3.87,4.4-9.44,6.92-15.29,6.92Z"/>
            <path class="cls-20" d="m129.83,145.97c-7.42,0-14.46-3.2-19.31-8.77-.03-.02-.05-.05-.06-.07-.14-.14-.13-.36,0-.5s.38-.13.52.01c0,0,.02.02.02.03.02.01.03.03.04.04,4.72,5.42,11.56,8.53,18.78,8.53s14.06-3.11,18.77-8.53c.03-.03.07-.06.11-.08h0c.14-.08.33-.07.44.04.14.14.16.34.02.48-.01.02-.03.04-.05.05-4.84,5.57-11.87,8.76-19.29,8.76Z"/>
            <path class="cls-20" d="m110.74,137.33c-.09,0-.19-.03-.25-.1-.13-.14-.15-.34-.02-.48l.05-.05,3.89-3.44c.15-.13.38-.12.51.03.13.15.12.38-.03.51l-3.88,3.42c-.08.07-.18.1-.28.1Z"/>
            <path class="cls-20" d="m148.9,137.35c-.06,0-.13-.02-.19-.07l-.06-.05-4.02-3.43c-.15-.13-.17-.36-.04-.51.13-.15.36-.17.51-.04l4.01,3.42c.15.13.2.38.08.53-.08.09-.18.15-.28.15Z"/>
            <path class="cls-20" d="m43.09,87.95c-.2,0-.36-.12-.36-.32v-25.97c0-.2.16-.36.36-.36s.36.16.36.36v25.89c0,.2-.16.4-.36.4Z"/>
            <path class="cls-20" d="m43.24,61.95c-.2,0-.36-.16-.36-.36,0-1.13-.48-2.23-1.32-2.99-.83-.77-1.95-1.17-3.09-1.09-.19,0-.37-.14-.38-.33-.01-.2.13-.37.33-.38,1.32-.09,2.66.37,3.63,1.28.98.9,1.55,2.19,1.55,3.52,0,.2-.16.36-.36.36Z"/>
            <path class="cls-20" d="m12.59,59.91c-.18,0-.34-.14-.36-.33-.02-.2.13-.37.33-.39l25.82-2.26c.19-.02.37.13.39.33.02.2-.13.37-.33.39l-25.82,2.26s-.02,0-.03,0Z"/>
            <path class="cls-20" d="m38.41,92.52s-.02,0-.03,0l-25.82-2.42c-.2-.02-.34-.19-.32-.39.02-.2.19-.34.39-.33l25.82,2.42c.2.02.34.19.32.39-.02.19-.17.33-.36.33Z"/>
            <path class="cls-20" d="m38.8,92.37c-.13,0-.25,0-.38-.02-.2-.02-.35-.19-.33-.39.02-.2.19-.34.39-.33,1.13.09,2.25-.3,3.09-1.08.84-.77,1.32-1.87,1.32-3.01,0-.2.16-.36.36-.36s.36.16.36.36c0,1.34-.56,2.63-1.55,3.54-.88.82-2.05,1.28-3.25,1.28Z"/>
            <path class="cls-20" d="m12.53,90.04c-.08,0-.17-.03-.24-.09-4.45-3.86-7.01-9.47-7.01-15.38s2.55-11.51,7.01-15.37c.15-.13.38-.12.51.04.13.15.11.38-.04.51-4.29,3.73-6.76,9.13-6.76,14.83s2.46,11.11,6.76,14.84c.15.13.17.36.04.51-.07.08-.17.12-.27.12Z"/>
            <path class="cls-20" d="m9.07,94.03c-.08,0-.17-.03-.24-.09-5.61-4.87-8.83-11.93-8.83-19.37s3.2-14.46,8.77-19.31c.02-.03.05-.05.06-.06.14-.14.36-.13.5,0,.14.14.13.38-.01.52,0,0-.02.02-.03.02-.01.01-.03.03-.04.04C3.83,60.51.72,67.35.72,74.57s3.13,14.09,8.58,18.83c.15.13.17.36.04.51-.07.08-.17.12-.27.12Z"/>
            <path class="cls-20" d="m9.12,94.14c-.08,0-.15-.02-.21-.07-.15-.13-.2-.32-.08-.47l.05-.06,3.43-4.02c.13-.15.36-.17.51-.04.15.13.17.36.04.51l-3.42,4.01c-.08.09-.2.15-.32.15Z"/>
            <path class="cls-20" d="m12.59,59.91c-.1,0-.2-.04-.28-.13l-.06-.08-3.4-3.84c-.13-.15-.12-.38.03-.51.15-.13.38-.12.51.03l3.48,3.93c.13.15.11.38-.04.51-.07.06-.15.08-.23.08Z"/>
            <path class="cls-20" d="m153.61,86.41c-.2,0-.36-.16-.36-.36v-25.89c0-.2.16-.36.36-.36s.36.16.36.36v25.89c0,.2-.16.36-.36.36Z"/>
            <path class="cls-20" d="m153.61,60.44c-.2,0-.36-.16-.36-.36,0-1.33.56-2.61,1.54-3.52.68-.62,1.48-1.03,2.39-1.21.41-.07.83-.09,1.24-.07.2.01.35.18.34.38-.01.2-.19.34-.38.34-.35-.02-.71,0-1.06.06-.77.15-1.45.5-2.03,1.03-.83.77-1.31,1.86-1.31,3,0,.2-.16.36-.36.36Z"/>
            <path class="cls-20" d="m184.26,58.55s-.02,0-.03,0l-25.82-2.42c-.2-.02-.34-.19-.32-.39.02-.2.19-.34.39-.33l25.82,2.42c.2.02.34.19.32.39-.02.19-.17.33-.36.33Z"/>
            <path class="cls-20" d="m158.44,91.01c-.18,0-.34-.14-.36-.33-.02-.2.13-.37.32-.39l25.82-2.42c.21-.02.37.13.39.33.02.2-.13.37-.32.39l-25.82,2.42s-.02,0-.03,0Z"/>
            <path class="cls-20" d="m158.04,90.86c-1.22,0-2.37-.46-3.25-1.28-.96-.9-1.51-2.12-1.54-3.45l.36-.08h.36v.08c.02,1.13.49,2.17,1.31,2.93.76.71,1.73,1.12,2.8,1.09.09,0,.19,0,.27,0,.2-.03.38.12.4.32.02.2-.12.38-.32.4-.13.01-.27.02-.39.02Z"/>
            <path class="cls-20" d="m184.31,88.53c-.1,0-.2-.04-.27-.12-.13-.15-.11-.38.04-.51,4.3-3.73,6.77-9.14,6.77-14.84s-2.44-11.03-6.7-14.75l.16-.35.25-.25c4.47,3.92,7,9.49,7,15.35s-2.56,11.51-7.02,15.38c-.07.06-.15.09-.24.09Z"/>
            <path class="cls-20" d="m187.77,92.52c-.1,0-.2-.04-.27-.12-.13-.15-.11-.38.04-.51,5.46-4.74,8.6-11.6,8.6-18.83s-3.11-14.05-8.55-18.78c-.04-.03-.06-.07-.09-.11h0c-.08-.14-.07-.33.04-.44.14-.14.34-.16.48-.02.02.01.04.03.06.05,5.57,4.86,8.77,11.89,8.77,19.3s-3.22,14.49-8.84,19.37c-.07.06-.15.09-.24.09Z"/>
            <path class="cls-20" d="m187.69,92.66c-.07,0-.15-.03-.21-.09l-.06-.06-3.43-4.04c-.13-.15-.11-.38.04-.51.15-.13.38-.11.51.04l3.41,4.01c.12.15.14.4,0,.53-.08.07-.17.11-.26.11Z"/>
            <path class="cls-20" d="m184.26,58.55c-.08,0-.16-.03-.23-.08-.15-.13-.17-.35-.05-.51l.13-.15,3.35-3.93c.13-.15.36-.17.51-.04.15.13.17.36.04.51l-3.47,4.07c-.07.09-.17.13-.28.13Z"/>
          </g>
        </g>
        <g class="cls-18">
          <rect class="cls-6" x="50.8" y="117.04" width="32.2" height="3.86"/>
        </g>
        <g class="cls-11">
          <rect class="cls-3" x="113.84" y="117.04" width="32.2" height="3.86"/>
        </g>
        <g class="cls-15">
          <rect class="cls-4" x="174.45" y="56.56" width="3.77" height="32.85"/>
        </g>
      </g>
      <g>
        <rect class="cls-8" x="21.97" y="28.8" width="152.53" height="88.36"/>
        <path class="cls-20" d="m174.5,117.16V28.8H21.97v88.36h152.53Zm.72-88.72v89.08c0,.2-.16.36-.36.36H21.61c-.2,0-.36-.16-.36-.36V28.44c0-.2.16-.36.36-.36h153.25c.2,0,.36.16.36.36Z"/>
      </g>
    </g>
  </g>
</svg>