<?xml version="1.0" encoding="UTF-8"?>
<svg xmlns="http://www.w3.org/2000/svg" viewBox="0 0 529 271.92">
  <defs>
    <style>
      .cls-1 {
        mix-blend-mode: screen;
        opacity: .6;
      }

      .cls-1, .cls-2, .cls-3, .cls-4, .cls-5 {
        fill: #dee2b5;
        stroke: #9e1f63;
        stroke-miterlimit: 10;
      }

      .cls-6 {
        isolation: isolate;
      }

      .cls-2 {
        opacity: .31;
      }

      .cls-3 {
        opacity: .19;
      }

      .cls-3, .cls-5, .cls-7 {
        mix-blend-mode: multiply;
      }

      .cls-5 {
        opacity: .4;
        stroke-width: 0px;
      }
    </style>
  </defs>
  <g class="cls-6">
    <g id="Layer_1" data-name="Layer 1">
      <g>
        <g class="cls-7">
          <path class="cls-3" d="m346.49,85.6c-26.15-2.43-52.48-3.52-78.78-3.23-49.78-.35-117.14,9.93-166.79,16.08v91.58l42.38,5.38c101.25,17.58,206.86,10.36,307.8-5.38v-91.58l-41.12-5.23c-19.91-2.44-43.57-5.8-63.49-7.63Z"/>
          <path class="cls-3" d="m269.35,8.21c.06,0,.12,0,.18,0,.07,0,.14,0,.21,0-.13,0-.26,0-.39,0Z"/>
          <path class="cls-2" d="m237.66,63.46s0,0,0,0c1.09,6.28,57.13,2.94,59.53,3.14,4.18.02,7.55-2.88,7.54-6.29-.6-14.89,4.23-35.97-12.86-45.95h0c-6.05-4.05-14.04-6.41-22.33-6.15-9.54.23-18.72,3.93-24.85,10.02,0,0,0,0,0,0-6.29,5.85-8.69,14.4-8.04,22.53.37,2.27-.98,21.13,1.02,22.7Z"/>
          <path class="cls-3" d="m528.48,140.96c0,.07,0,.14,0,.21,0,.15.02.3.02.45,0-.22,0-.44-.02-.66Z"/>
          <path class="cls-2" d="m528.48,141.17c-.26-7.99-4.69-15.67-12.01-20.8,0,0,0,0,0,0-7.01-5.25-17.26-7.25-27-6.71-2.72.31-25.33-.82-27.21.85,0,0,0,0,0,0-7.53.91-2.32,45.75-3.77,49.67-.02,3.49,3.46,6.3,7.54,6.29,17.85-.5,43.11,3.53,55.07-10.73h0c4.83-5.04,7.67-11.67,7.37-18.57Z"/>
          <path class="cls-2" d="m82.76,118.93c-.35-1.84-1.73-3.48-3.66-4.42,0,0,0,0,0,0-1.77-1.66-24.57-.55-27.21-.85-9.74-.54-19.99,1.46-27,6.71,0,0,0,0,0,0-7.29,5.11-11.74,12.77-12.01,20.73-.32,6.92,2.52,13.58,7.37,18.63h0c11.94,14.24,37.24,10.26,55.07,10.73,4.09,0,7.56-2.81,7.54-6.29-.1-.98.2-44.38-.11-45.25Z"/>
          <path class="cls-3" d="m12.88,141.28c0-.06,0-.11.01-.17,0-.05,0-.1,0-.15,0,.11,0,.22,0,.32Z"/>
          <path class="cls-3" d="m395.42,17.07c.07,0,.14.02.21.03.09,0,.18.01.27.02-.16-.02-.32-.04-.48-.05Z"/>
          <path class="cls-2" d="m354.03,67.66c.96,2.06,3.25,3.6,5.88,3.94,4.73-.47,56.76,10.11,59.07,4.78,2.77-1.13,5.33-24.43,6.24-26.76,1.61-8.44-1.67-17.36-8.66-23.6h0c-5.41-4.92-12.95-8.13-20.92-8.9-9.48-1-19.25,1.5-26.42,6.75,0,0,0,0,0,0-7.29,4.98-11.21,13.13-12.05,21.25-.06,2.36-4.82,20.72-3.13,22.57,0,0,0,0,0,0Z"/>
          <path class="cls-2" d="m116.92,53.72c.79,2.26,2.86,20.97,5.14,22.31,0,0,0,0,0,0,1.66,1.73,4.4,2.62,7.03,2.28,3.58-1.28,57.54-5.16,57.64-9.61,3.17-2.32-3.35-24.65-3.26-27.73-1.51-8.45-7.84-16.14-16.76-20.34,0,0,0,0,0,0-6.75-3.28-15.29-4.54-23.16-3.25-9.4,1.43-17.82,6.26-22.77,13.05,0,0,0,0,0,0-5.16,6.58-5.97,15.33-3.85,23.29Z"/>
          <path class="cls-3" d="m143.32,17.41c.07-.01.14-.02.21-.03.08-.01.15-.03.23-.04-.15.02-.29.04-.44.07Z"/>
          <path class="cls-2" d="m302.96,215.26c-.62-4.48-55.25-1.4-58.77-2.25-2.66,0-5.21,1.23-6.53,3.14,0,0,0,0,0,0-1.99,1.48-.66,20.5-1.02,22.7-.65,8.13,1.75,16.68,8.04,22.53,0,0,0,0,0,0,6.14,6.11,15.35,9.8,24.92,10.02,8.27.25,16.22-2.11,22.26-6.15h0c9.68-6.16,13.78-16.5,12.86-26.4-.6-3.06,1.61-21.47-1.77-23.6Z"/>
          <path class="cls-3" d="m270.15,271.42c-.18,0-.36-.01-.54-.02-.09,0-.17,0-.26,0,.26,0,.53.01.8.02Z"/>
          <path class="cls-2" d="m420.89,206.56c-.62-3.4-4.46-5.8-8.6-5.26-4.72,1.83-58.05,4.26-58.26,10.66,0,0,0,0,0,0-1.69,1.77,3.08,20.31,3.13,22.57.84,8.12,4.77,16.27,12.05,21.25,0,0,0,0,0,0,7.18,5.25,16.96,7.74,26.46,6.74,8.08-.77,15.66-4.13,20.88-8.9h0c5.94-5.33,9.29-12.61,9.04-19.9.14-1.81-4.29-24.75-4.7-27.15Z"/>
          <path class="cls-3" d="m396.04,262.47c-.12.01-.25.02-.37.03-.08,0-.17.03-.25.03.21-.02.41-.04.62-.07Z"/>
          <path class="cls-3" d="m143.76,262.27c-.08-.01-.15-.03-.23-.04-.07-.01-.14-.01-.21-.03.15.02.29.04.44.07Z"/>
          <path class="cls-2" d="m181.46,208.02c-5.22.56-56.93-10.5-59.41-4.44,0,0,0,0,0,0-2.25,1.26-4.37,20.14-5.14,22.31-2.12,7.96-1.31,16.71,3.85,23.29,0,0,0,0,0,0,4.95,6.8,13.36,11.63,22.77,13.05,7.92,1.3,16.44.01,23.16-3.25,0,0,0,0,0,0,8.91-4.2,15.25-11.89,16.76-20.34,0,0,4.32-23.45,4.32-23.45.63-3.42-2.18-6.64-6.31-7.18Z"/>
        </g>
        <g>
          <path class="cls-4" d="m376.82,79.14l-.32-.03-22.76-2.9c-47.89-6.08-96.43-7.56-144.64-4.42-.08,0-.18,0-.26.01-15.36,1-30.67,2.47-45.92,4.41l-79.68,10.12v91.58l79.68,10.12c63.24,8.03,127.59,8.03,190.82,0l14.15-1.79h.08l.82-.12,64.63-8.21v-91.58l-56.6-7.2Z"/>
          <path class="cls-4" d="m375.9,83.12l-22.89-2.91c-31.24-3.96-63.09-5.98-94.66-5.98-16.25,0-32.69.54-48.88,1.59h-.26c-15.18,1-30.51,2.47-45.57,4.39l-75.56,9.6v84.63l75.56,9.6c31.23,3.97,63.09,5.98,94.68,5.98s63.45-2.01,94.68-5.98l14.15-1.79.24-.02.66-.1,60.51-7.69v-84.63l-52.35-6.66-.32-.03Z"/>
        </g>
        <g>
          <path class="cls-4" d="m284.83,58.92h-53c-4.17,0-7.54-2.82-7.54-6.29v-23.72c0-15.69,15.24-28.4,34.04-28.4h0c18.8,0,34.04,12.72,34.04,28.4v23.72c0,3.48-3.38,6.29-7.54,6.29Z"/>
          <path class="cls-4" d="m288.71,50.16v-21.17c0-14-13.6-25.35-30.38-25.35s-30.38,11.35-30.38,25.35v21.17c0,3.1,3.01,5.62,6.73,5.62h47.3c3.72,0,6.73-2.51,6.73-5.62Z"/>
          <path class="cls-1" d="m227.95,33.07v-4.17c0-14.09,13.49-25.26,30.38-25.26s30.38,11.17,30.38,25.26v4.17h3.66v-4.17c0-15.69-15.24-28.4-34.04-28.4s-34.04,12.64-34.04,28.4v4.17h3.66Z"/>
          <path class="cls-4" d="m227.95,33.07v-4.17c0-14.09,13.49-25.26,30.38-25.26s30.38,11.17,30.38,25.26v4.17h3.66v-4.17c0-15.69-15.24-28.4-34.04-28.4s-34.04,12.64-34.04,28.4v4.17h3.66Z"/>
          <g>
            <path class="cls-5" d="m272.27,2.99c.16.06.32.12.48.18-.16-.06-.32-.12-.48-.18Z"/>
            <path class="cls-5" d="m273.82,3.62c.14.06.27.12.41.17-.14-.06-.27-.12-.41-.17Z"/>
            <path class="cls-5" d="m270.68,2.44c.19.06.37.12.56.18-.18-.06-.37-.12-.56-.18Z"/>
            <path class="cls-5" d="m275.34,4.3c.11.05.22.11.33.16-.11-.05-.22-.11-.33-.16Z"/>
            <path class="cls-5" d="m269.07,1.95c.21.06.42.11.62.18-.21-.06-.41-.12-.62-.18Z"/>
            <path class="cls-5" d="m276.81,5.05c.08.05.17.09.26.14-.08-.05-.17-.09-.26-.14Z"/>
            <path class="cls-5" d="m267.41,1.53c.23.05.46.11.68.16-.23-.06-.46-.11-.68-.16Z"/>
            <path class="cls-5" d="m279.72,6.81s-.08-.05-.12-.08c.04.03.08.05.12.08Z"/>
            <polygon class="cls-5" points="282.18 8.64 282.18 8.64 282.18 8.64 282.18 8.64"/>
            <path class="cls-5" d="m280.97,7.7s-.04-.03-.06-.04c.02.01.04.03.06.04Z"/>
            <path class="cls-5" d="m278.23,5.87c.06.04.12.07.18.11-.06-.04-.12-.07-.18-.11Z"/>
            <path class="cls-5" d="m231.64,11.25c.08-.09.16-.18.25-.26-.08.09-.17.18-.25.26Z"/>
            <path class="cls-5" d="m255.2.62c.33-.02.66-.04.98-.06-.33.02-.66.04-.98.06Z"/>
            <path class="cls-5" d="m257.89.51c-.14,0-.29,0-.43,0-.15,0-.3.01-.46.02.3,0,.59-.02.89-.02Z"/>
            <path class="cls-5" d="m252.99.85c-8.29,1.07-15.53,4.57-20.66,9.7,5.16-5.08,12.42-8.62,20.66-9.7Z"/>
            <path class="cls-5" d="m253.35.8c.4-.05.8-.09,1.21-.13-.4.04-.81.08-1.21.13Z"/>
            <path class="cls-4" d="m258.33,3.64c-16.89,0-30.38,11.17-30.38,25.26v4.17h-3.66l6.38,4.57c1.61,1.16,4.12.24,4.17-1.54.28-10.36,5.07-33.79,43.87-26.18-5.37-4.09-12.5-6.28-20.38-6.28Z"/>
            <path class="cls-5" d="m262.31.7c.27.03.55.05.82.09-.27-.03-.55-.06-.82-.09Z"/>
            <path class="cls-5" d="m264.03.9c.26.04.52.08.79.12-.26-.04-.52-.08-.79-.12Z"/>
            <path class="cls-5" d="m265.73,1.18c.25.05.5.09.74.14-.25-.05-.49-.1-.74-.14Z"/>
            <path class="cls-5" d="m260.56.57c.28.02.57.03.85.05-.28-.02-.57-.04-.85-.05Z"/>
            <path class="cls-5" d="m258.8.51c.29,0,.58,0,.87.02-.29,0-.58-.01-.87-.02Z"/>
          </g>
        </g>
        <g>
          <path class="cls-4" d="m446.15,156.5v-44.22c0-3.48,3.38-6.29,7.54-6.29h28.43c18.8,0,34.04,12.72,34.04,28.4h0c0,15.69-15.24,28.4-34.04,28.4h-28.43c-4.17,0-7.54-2.82-7.54-6.29Z"/>
          <path class="cls-4" d="m456.65,159.74h25.37c16.78,0,30.38-11.35,30.38-25.35s-13.6-25.35-30.38-25.35h-25.37c-3.72,0-6.73,2.51-6.73,5.62v39.46c0,3.1,3.01,5.62,6.73,5.62Z"/>
          <path class="cls-1" d="m477.13,109.04h5c16.89,0,30.27,11.26,30.27,25.35s-13.39,25.35-30.27,25.35h-5v3.06h5c18.8,0,34.04-12.72,34.04-28.4s-15.14-28.4-34.04-28.4h-5v3.06Z"/>
          <g>
            <path class="cls-5" d="m513.18,146.02c-.07.13-.14.27-.22.4.08-.13.15-.27.22-.4Z"/>
            <path class="cls-5" d="m512.43,147.32c-.07.11-.14.23-.21.34.07-.11.14-.23.21-.34Z"/>
            <path class="cls-5" d="m513.84,144.7c-.07.16-.14.31-.22.46.08-.15.15-.31.22-.46Z"/>
            <path class="cls-5" d="m511.61,148.58c-.06.09-.13.19-.19.28.07-.09.13-.19.19-.28Z"/>
            <path class="cls-5" d="m514.43,143.35c-.07.17-.14.35-.21.52.07-.17.14-.34.21-.52Z"/>
            <path class="cls-5" d="m510.71,149.81c-.05.07-.11.14-.16.21.06-.07.11-.14.16-.21Z"/>
            <path class="cls-5" d="m514.93,141.97c-.06.19-.13.38-.19.57.07-.19.13-.38.19-.57Z"/>
            <path class="cls-5" d="m508.6,152.24s.06-.07.09-.1c-.03.03-.06.07-.09.1Z"/>
            <polygon class="cls-5" points="506.41 154.29 506.41 154.29 506.41 154.29 506.41 154.29"/>
            <path class="cls-5" d="m507.53,153.28s.03-.03.05-.05c-.02.02-.03.03-.05.05Z"/>
            <path class="cls-5" d="m509.73,151c-.04.05-.09.1-.13.15.04-.05.09-.1.13-.15Z"/>
            <path class="cls-5" d="m503.28,112.12c.1.07.21.14.32.21-.1-.07-.21-.14-.32-.21Z"/>
            <path class="cls-5" d="m516.01,131.78c.03.27.05.55.07.82-.02-.28-.05-.55-.07-.82Z"/>
            <path class="cls-5" d="m516.15,134.02c0-.12,0-.24,0-.36,0-.13-.02-.25-.02-.38.01.25.02.49.02.74Z"/>
            <path class="cls-5" d="m515.75,129.94c-1.28-6.91-5.48-12.96-11.62-17.24,6.09,4.3,10.33,10.36,11.62,17.24Z"/>
            <path class="cls-5" d="m515.8,130.24c.06.33.11.67.15,1.01-.04-.34-.1-.67-.15-1.01Z"/>
            <path class="cls-4" d="m512.4,134.39c0-14.09-13.39-25.35-30.27-25.35h-5v-3.06h0l-5.48,5.32c-1.39,1.35-.29,3.44,1.84,3.48,12.41.23,40.5,4.23,31.38,36.6,4.9-4.48,7.53-10.43,7.53-17Z"/>
            <path class="cls-5" d="m515.92,137.71c-.03.23-.07.46-.1.68.04-.23.07-.46.1-.68Z"/>
            <path class="cls-5" d="m515.68,139.15c-.04.22-.09.44-.14.66.05-.22.1-.44.14-.66Z"/>
            <path class="cls-5" d="m515.35,140.57c-.06.21-.11.41-.17.62.06-.21.12-.41.17-.62Z"/>
            <path class="cls-5" d="m516.08,136.25c-.02.24-.04.47-.06.71.03-.24.05-.47.06-.71Z"/>
            <path class="cls-5" d="m516.15,134.78c0,.24-.01.48-.02.72.01-.24.02-.48.02-.72Z"/>
          </g>
          <path class="cls-4" d="m477.13,109.04h5c16.89,0,30.27,11.26,30.27,25.35s-13.39,25.35-30.27,25.35h-5v3.06h5c18.8,0,34.04-12.72,34.04-28.4s-15.14-28.4-34.04-28.4h-5v3.06Z"/>
        </g>
        <g>
          <path class="cls-4" d="m70.51,156.5v-44.22c0-3.48-3.38-6.29-7.54-6.29h-28.43c-18.8,0-34.04,12.72-34.04,28.4h0c0,15.69,15.24,28.4,34.04,28.4h28.43c4.17,0,7.54-2.82,7.54-6.29Z"/>
          <path class="cls-4" d="m60.02,159.74h-25.37c-16.78,0-30.38-11.35-30.38-25.35s13.6-25.35,30.38-25.35h25.37c3.72,0,6.73,2.51,6.73,5.62v39.46c0,3.1-3.01,5.62-6.73,5.62Z"/>
          <path class="cls-1" d="m39.54,109.04h-5c-16.89,0-30.27,11.26-30.27,25.35s13.39,25.35,30.27,25.35h5v3.06h-5c-18.8,0-34.04-12.72-34.04-28.4s15.14-28.4,34.04-28.4h5v3.06Z"/>
          <g>
            <path class="cls-5" d="m3.49,146.02c.07.13.14.27.22.4-.08-.13-.15-.27-.22-.4Z"/>
            <path class="cls-5" d="m4.23,147.32c.07.11.14.23.21.34-.07-.11-.14-.23-.21-.34Z"/>
            <path class="cls-5" d="m2.82,144.7c.07.16.14.31.22.46-.08-.15-.15-.31-.22-.46Z"/>
            <path class="cls-5" d="m5.06,148.58c.06.09.13.19.19.28-.07-.09-.13-.19-.19-.28Z"/>
            <path class="cls-5" d="m2.24,143.35c.07.17.14.35.21.52-.07-.17-.14-.34-.21-.52Z"/>
            <path class="cls-5" d="m5.96,149.81c.05.07.11.14.16.21-.06-.07-.11-.14-.16-.21Z"/>
            <path class="cls-5" d="m1.74,141.97c.06.19.13.38.19.57-.07-.19-.13-.38-.19-.57Z"/>
            <path class="cls-5" d="m8.06,152.24s-.06-.07-.09-.1c.03.03.06.07.09.1Z"/>
            <polygon class="cls-5" points="10.26 154.29 10.26 154.29 10.25 154.29 10.26 154.29"/>
            <path class="cls-5" d="m9.13,153.28s-.03-.03-.05-.05c.02.02.03.03.05.05Z"/>
            <path class="cls-5" d="m6.93,151c.04.05.09.1.13.15-.04-.05-.09-.1-.13-.15Z"/>
            <path class="cls-5" d="m13.38,112.12c-.1.07-.21.14-.32.21.1-.07.21-.14.32-.21Z"/>
            <path class="cls-5" d="m.65,131.78c-.03.27-.05.55-.07.82.02-.28.05-.55.07-.82Z"/>
            <path class="cls-5" d="m.51,134.02c0-.12,0-.24,0-.36,0-.13.02-.25.02-.38-.01.25-.02.49-.02.74Z"/>
            <path class="cls-5" d="m.92,129.94c1.28-6.91,5.48-12.96,11.62-17.24-6.09,4.3-10.33,10.36-11.62,17.24Z"/>
            <path class="cls-5" d="m.86,130.24c-.06.33-.11.67-.15,1.01.04-.34.1-.67.15-1.01Z"/>
            <path class="cls-4" d="m4.27,134.39c0-14.09,13.39-25.35,30.27-25.35h5v-3.06h0l5.48,5.32c1.39,1.35.29,3.44-1.84,3.48-12.41.23-40.5,4.23-31.38,36.6-4.9-4.48-7.53-10.43-7.53-17Z"/>
            <path class="cls-5" d="m.74,137.71c.03.23.07.46.1.68-.04-.23-.07-.46-.1-.68Z"/>
            <path class="cls-5" d="m.98,139.15c.04.22.09.44.14.66-.05-.22-.1-.44-.14-.66Z"/>
            <path class="cls-5" d="m1.32,140.57c.06.21.11.41.17.62-.06-.21-.12-.41-.17-.62Z"/>
            <path class="cls-5" d="m.58,136.25c.02.24.04.47.06.71-.03-.24-.05-.47-.06-.71Z"/>
            <path class="cls-5" d="m.51,134.78c0,.24.01.48.02.72-.01-.24-.02-.48-.02-.72Z"/>
          </g>
          <path class="cls-4" d="m39.54,109.04h-5c-16.89,0-30.27,11.26-30.27,25.35s13.39,25.35,30.27,25.35h5v3.06h-5c-18.8,0-34.04-12.72-34.04-28.4s15.14-28.4,34.04-28.4h5v3.06Z"/>
        </g>
        <g>
          <path class="cls-4" d="m399.94,70.63l-52.38-6.72c-4.12-.53-6.94-3.74-6.31-7.18l4.32-23.45c2.86-15.5,20.24-26.14,38.82-23.76h0c18.58,2.38,31.33,16.89,28.47,32.39l-4.32,23.45c-.63,3.44-4.48,5.79-8.6,5.26Z"/>
          <path class="cls-4" d="m405.37,62.47l3.86-20.92c2.55-13.84-8.82-26.78-25.41-28.91-16.58-2.13-32.09,7.36-34.64,21.2l-3.86,20.92c-.57,3.07,1.96,5.93,5.63,6.4l46.75,6c3.67.47,7.11-1.63,7.68-4.7Z"/>
          <path class="cls-1" d="m348.43,37.87l.76-4.12c2.57-13.93,17.94-23.26,34.63-21.11,16.69,2.14,27.99,14.89,25.42,28.82l-.76,4.12,3.62.46.76-4.12c2.86-15.5-9.89-30.01-28.47-32.39s-35.95,8.17-38.82,23.76l-.76,4.12,3.62.46Z"/>
          <path class="cls-4" d="m348.43,37.87l.76-4.12c2.57-13.93,17.94-23.26,34.63-21.11,16.69,2.14,27.99,14.89,25.42,28.82l-.76,4.12,3.62.46.76-4.12c2.86-15.5-9.89-30.01-28.47-32.39s-35.95,8.17-38.82,23.76l-.76,4.12,3.62.46Z"/>
          <g>
            <path class="cls-5" d="m397.72,13.76c.15.08.3.16.45.24-.15-.08-.3-.16-.45-.24Z"/>
            <path class="cls-5" d="m399.14,14.58c.12.07.25.15.37.22-.12-.08-.25-.15-.37-.22Z"/>
            <path class="cls-5" d="m396.25,13.01c.17.08.35.17.52.25-.17-.09-.34-.17-.52-.25Z"/>
            <path class="cls-5" d="m400.51,15.45c.1.07.2.13.3.2-.1-.07-.2-.13-.3-.2Z"/>
            <path class="cls-5" d="m394.74,12.33c.19.08.39.17.58.25-.19-.09-.39-.17-.58-.25Z"/>
            <path class="cls-5" d="m401.82,16.38c.08.06.15.11.23.17-.07-.06-.15-.11-.23-.17Z"/>
            <path class="cls-5" d="m393.18,11.7c.22.08.43.16.65.25-.21-.08-.43-.17-.65-.25Z"/>
            <path class="cls-5" d="m404.38,18.48s-.07-.06-.1-.09c.03.03.07.06.1.09Z"/>
            <polygon class="cls-5" points="406.48 20.6 406.48 20.6 406.48 20.6 406.48 20.6"/>
            <path class="cls-5" d="m405.46,19.52s-.03-.03-.05-.05c.02.02.03.03.05.05Z"/>
            <path class="cls-5" d="m403.08,17.36c.05.04.11.09.16.13-.05-.04-.11-.09-.16-.13Z"/>
            <path class="cls-5" d="m356.05,16.77c.1-.08.19-.15.29-.23-.1.08-.2.15-.29.23Z"/>
            <path class="cls-5" d="m381.28,9.26c.33.02.66.04.98.06-.33-.03-.66-.05-.98-.06Z"/>
            <path class="cls-5" d="m383.95,9.49c-.14-.02-.28-.04-.43-.06-.15-.02-.3-.02-.46-.04.29.03.59.06.88.09Z"/>
            <path class="cls-5" d="m379.05,9.2c-8.38,0-16.18,2.55-22.19,6.96,6.02-4.37,13.84-6.95,22.19-6.96Z"/>
            <path class="cls-5" d="m379.41,9.2c.4,0,.81.01,1.22.03-.41-.02-.81-.02-1.22-.03Z"/>
            <path class="cls-4" d="m383.82,12.64c-16.69-2.14-32.06,7.19-34.63,21.11l-.76,4.12-3.62-.46h0l5.47,5.33c1.38,1.35,4.03.76,4.4-.99,2.16-10.2,11.17-32.76,48.13-20.31-4.57-4.72-11.21-7.8-18.99-8.8Z"/>
            <path class="cls-5" d="m388.29,10.23c.27.06.53.12.79.19-.26-.07-.53-.13-.79-.19Z"/>
            <path class="cls-5" d="m389.95,10.66c.25.07.51.14.76.22-.25-.07-.5-.15-.76-.22Z"/>
            <path class="cls-5" d="m391.58,11.14c.24.08.47.15.71.24-.23-.08-.47-.16-.71-.24Z"/>
            <path class="cls-5" d="m386.58,9.88c.28.05.56.1.83.16-.28-.06-.55-.11-.83-.16Z"/>
            <path class="cls-5" d="m384.85,9.6c.29.04.57.08.86.13-.28-.05-.57-.09-.86-.13Z"/>
          </g>
        </g>
        <g>
          <path class="cls-4" d="m169.1,63.92l-52.38,6.71c-4.12.53-7.97-1.83-8.6-5.26l-4.32-23.45c-2.85-15.51,9.9-30.01,28.48-32.39h0c18.58-2.38,35.96,8.26,38.82,23.76l4.32,23.45c.63,3.44-2.19,6.65-6.31,7.18Z"/>
          <path class="cls-4" d="m171.34,54.77l-3.85-20.92c-2.55-13.84-18.06-23.33-34.64-21.21-16.58,2.13-27.96,15.07-25.41,28.9l3.85,20.92c.56,3.07,4,5.17,7.67,4.7l46.75-5.99c3.67-.47,6.2-3.34,5.63-6.4Z"/>
          <path class="cls-1" d="m108.18,45.58l-.76-4.12c-2.56-13.93,8.74-26.68,25.43-28.82,16.69-2.14,32.06,7.19,34.62,21.12l.76,4.12,3.62-.46-.76-4.12c-2.85-15.51-20.23-26.14-38.82-23.76-18.58,2.38-31.35,16.8-28.48,32.39l.76,4.12,3.62-.46Z"/>
          <path class="cls-4" d="m108.18,45.58l-.76-4.12c-2.56-13.93,8.74-26.68,25.43-28.82,16.69-2.14,32.06,7.19,34.62,21.12l.76,4.12,3.62-.46-.76-4.12c-2.85-15.51-20.23-26.14-38.82-23.76-18.58,2.38-31.35,16.8-28.48,32.39l.76,4.12,3.62-.46Z"/>
          <g>
            <path class="cls-5" d="m146.51,10.23c.17.04.34.08.51.12-.17-.04-.34-.08-.51-.12Z"/>
            <path class="cls-5" d="m148.16,10.65c.15.04.29.08.44.12-.14-.04-.29-.08-.44-.12Z"/>
            <path class="cls-5" d="m144.84,9.88c.19.04.39.07.58.11-.19-.04-.39-.07-.58-.11Z"/>
            <path class="cls-5" d="m149.78,11.14c.12.04.24.08.36.12-.12-.04-.24-.08-.36-.12Z"/>
            <path class="cls-5" d="m143.16,9.61c.22.03.43.06.65.09-.21-.03-.43-.06-.65-.09Z"/>
            <path class="cls-5" d="m151.37,11.7c.09.03.19.07.28.1-.09-.04-.19-.07-.28-.1Z"/>
            <path class="cls-5" d="m141.45,9.4c.24.02.47.05.71.07-.23-.03-.47-.05-.71-.07Z"/>
            <path class="cls-5" d="m154.57,13.06s-.09-.04-.13-.06c.04.02.09.04.13.06Z"/>
            <polygon class="cls-5" points="157.33 14.56 157.33 14.56 157.33 14.56 157.33 14.56"/>
            <path class="cls-5" d="m155.97,13.78s-.04-.02-.06-.03c.02.01.04.02.06.03Z"/>
            <path class="cls-5" d="m152.93,12.32c.07.03.13.06.2.08-.07-.03-.13-.06-.2-.08Z"/>
            <path class="cls-5" d="m107.86,23.54c.07-.1.13-.2.2-.29-.07.1-.13.19-.2.29Z"/>
            <path class="cls-5" d="m129.21,10.05c.32-.07.64-.13.96-.19-.32.06-.64.12-.96.19Z"/>
            <path class="cls-5" d="m131.84,9.6c-.14.02-.28.03-.43.05-.15.02-.3.05-.45.08.29-.05.58-.09.88-.13Z"/>
            <path class="cls-5" d="m127.07,10.56c-8,2.1-14.52,6.48-18.66,12.2,4.17-5.68,10.7-10.09,18.66-12.2Z"/>
            <path class="cls-5" d="m127.41,10.47c.39-.1.78-.19,1.17-.28-.39.09-.78.18-1.17.28Z"/>
            <path class="cls-4" d="m132.85,12.64c-16.69,2.14-27.99,14.89-25.43,28.82l.76,4.12-3.62.46h0l7.14,3.71c1.81.94,4.12-.29,3.84-2.05-1.61-10.27-1.14-34.04,38.6-31.44-6.05-3.36-13.5-4.63-21.28-3.63Z"/>
            <path class="cls-5" d="m136.25,9.23c.28,0,.55-.02.83-.02-.28,0-.55,0-.83.02Z"/>
            <path class="cls-5" d="m137.99,9.21c.27,0,.53,0,.8.02-.27,0-.53-.01-.8-.02Z"/>
            <path class="cls-5" d="m139.72,9.27c.25.01.51.03.76.05-.25-.02-.51-.03-.76-.05Z"/>
            <path class="cls-5" d="m134.5,9.32c.28-.02.57-.04.85-.05-.28.01-.57.03-.85.05Z"/>
            <path class="cls-5" d="m132.74,9.49c.29-.03.57-.06.86-.09-.29.03-.57.06-.86.09Z"/>
          </g>
        </g>
        <g>
          <path class="cls-4" d="m284.83,205.33h-53c-4.17,0-7.54,2.82-7.54,6.29v23.72c0,15.69,15.24,28.4,34.04,28.4h0c18.8,0,34.04-12.72,34.04-28.4v-23.72c0-3.48-3.38-6.29-7.54-6.29Z"/>
          <path class="cls-4" d="m288.71,214.09v21.17c0,14-13.6,25.35-30.38,25.35s-30.38-11.35-30.38-25.35v-21.17c0-3.1,3.01-5.62,6.73-5.62h47.3c3.72,0,6.73,2.51,6.73,5.62Z"/>
          <path class="cls-1" d="m227.95,231.18v4.17c0,14.09,13.49,25.26,30.38,25.26s30.38-11.17,30.38-25.26v-4.17h3.66v4.17c0,15.69-15.24,28.4-34.04,28.4s-34.04-12.64-34.04-28.4v-4.17h3.66Z"/>
          <g>
            <path class="cls-5" d="m272.27,261.26c.16-.06.32-.12.48-.18-.16.06-.32.12-.48.18Z"/>
            <path class="cls-5" d="m273.82,260.63c.14-.06.27-.12.41-.17-.14.06-.27.12-.41.17Z"/>
            <path class="cls-5" d="m270.68,261.81c.19-.06.37-.12.56-.18-.18.06-.37.12-.56.18Z"/>
            <path class="cls-5" d="m275.34,259.95c.11-.05.22-.11.33-.16-.11.05-.22.11-.33.16Z"/>
            <path class="cls-5" d="m269.07,262.3c.21-.06.42-.11.62-.18-.21.06-.41.12-.62.18Z"/>
            <path class="cls-5" d="m276.81,259.2c.08-.05.17-.09.26-.14-.08.05-.17.09-.26.14Z"/>
            <path class="cls-5" d="m267.41,262.72c.23-.05.46-.11.68-.16-.23.06-.46.11-.68.16Z"/>
            <path class="cls-5" d="m279.72,257.44s-.08.05-.12.08c.04-.03.08-.05.12-.08Z"/>
            <polygon class="cls-5" points="282.18 255.61 282.18 255.61 282.18 255.61 282.18 255.61"/>
            <path class="cls-5" d="m280.97,256.55s-.04.03-.06.04c.02-.01.04-.03.06-.04Z"/>
            <path class="cls-5" d="m278.23,258.38c.06-.04.12-.07.18-.11-.06.04-.12.07-.18.11Z"/>
            <path class="cls-5" d="m231.64,253c.08.09.16.18.25.26-.08-.09-.17-.18-.25-.26Z"/>
            <path class="cls-5" d="m255.2,263.63c.33.02.66.04.98.06-.33-.02-.66-.04-.98-.06Z"/>
            <path class="cls-5" d="m257.89,263.74c-.14,0-.29,0-.43,0-.15,0-.3-.01-.46-.02.3,0,.59.02.89.02Z"/>
            <path class="cls-5" d="m252.99,263.4c-8.29-1.07-15.53-4.57-20.66-9.7,5.16,5.08,12.42,8.62,20.66,9.7Z"/>
            <path class="cls-5" d="m253.35,263.45c.4.05.8.09,1.21.13-.4-.04-.81-.08-1.21-.13Z"/>
            <path class="cls-4" d="m258.33,260.61c-16.89,0-30.38-11.17-30.38-25.26v-4.17h-3.66l6.38-4.57c1.61-1.16,4.12-.24,4.17,1.54.28,10.36,5.07,33.79,43.87,26.18-5.37,4.09-12.5,6.28-20.38,6.28Z"/>
            <path class="cls-5" d="m262.31,263.55c.27-.03.55-.05.82-.09-.27.03-.55.06-.82.09Z"/>
            <path class="cls-5" d="m264.03,263.35c.26-.04.52-.08.79-.12-.26.04-.52.08-.79.12Z"/>
            <path class="cls-5" d="m265.73,263.07c.25-.05.5-.09.74-.14-.25.05-.49.1-.74.14Z"/>
            <path class="cls-5" d="m260.56,263.68c.28-.02.57-.03.85-.05-.28.02-.57.04-.85.05Z"/>
            <path class="cls-5" d="m258.8,263.74c.29,0,.58,0,.87-.02-.29,0-.58.01-.87.02Z"/>
          </g>
          <path class="cls-4" d="m227.95,231.18v4.17c0,14.09,13.49,25.26,30.38,25.26s30.38-11.17,30.38-25.26v-4.17h3.66v4.17c0,15.69-15.24,28.4-34.04,28.4s-34.04-12.64-34.04-28.4v-4.17h3.66Z"/>
        </g>
        <g>
          <path class="cls-4" d="m399.94,193.62l-52.38,6.72c-4.12.53-6.94,3.74-6.31,7.18l4.32,23.45c2.86,15.5,20.24,26.14,38.82,23.76h0c18.58-2.38,31.33-16.89,28.47-32.39l-4.32-23.45c-.63-3.44-4.48-5.79-8.6-5.26Z"/>
          <path class="cls-4" d="m405.37,201.78l3.86,20.92c2.55,13.84-8.82,26.78-25.41,28.91-16.58,2.13-32.09-7.36-34.64-21.2l-3.86-20.92c-.57-3.07,1.96-5.93,5.63-6.4l46.75-6c3.67-.47,7.11,1.63,7.68,4.7Z"/>
          <path class="cls-1" d="m348.43,226.38l.76,4.12c2.57,13.93,17.94,23.26,34.63,21.11,16.69-2.14,27.99-14.89,25.42-28.82l-.76-4.12,3.62-.46.76,4.12c2.86,15.5-9.89,30.01-28.47,32.39s-35.95-8.17-38.82-23.76l-.76-4.12,3.62-.46Z"/>
          <g>
            <path class="cls-5" d="m397.72,250.49c.15-.08.3-.16.45-.24-.15.08-.3.16-.45.24Z"/>
            <path class="cls-5" d="m399.14,249.67c.12-.07.25-.15.37-.22-.12.08-.25.15-.37.22Z"/>
            <path class="cls-5" d="m396.25,251.24c.17-.08.35-.17.52-.25-.17.09-.34.17-.52.25Z"/>
            <path class="cls-5" d="m400.51,248.8c.1-.07.2-.13.3-.2-.1.07-.2.13-.3.2Z"/>
            <path class="cls-5" d="m394.74,251.92c.19-.08.39-.17.58-.25-.19.09-.39.17-.58.25Z"/>
            <path class="cls-5" d="m401.82,247.87c.08-.06.15-.11.23-.17-.07.06-.15.11-.23.17Z"/>
            <path class="cls-5" d="m393.18,252.55c.22-.08.43-.16.65-.25-.21.08-.43.17-.65.25Z"/>
            <path class="cls-5" d="m404.38,245.77s-.07.06-.1.09c.03-.03.07-.06.1-.09Z"/>
            <polygon class="cls-5" points="406.48 243.65 406.48 243.65 406.48 243.65 406.48 243.65"/>
            <path class="cls-5" d="m405.46,244.73s-.03.03-.05.05c.02-.02.03-.03.05-.05Z"/>
            <path class="cls-5" d="m403.08,246.89c.05-.04.11-.09.16-.13-.05.04-.11.09-.16.13Z"/>
            <path class="cls-5" d="m356.05,247.48c.1.08.19.15.29.23-.1-.08-.2-.15-.29-.23Z"/>
            <path class="cls-5" d="m381.28,254.99c.33-.02.66-.04.98-.06-.33.03-.66.05-.98.06Z"/>
            <path class="cls-5" d="m383.95,254.76c-.14.02-.28.04-.43.06-.15.02-.3.02-.46.04.29-.03.59-.06.88-.09Z"/>
            <path class="cls-5" d="m379.05,255.05c-8.38,0-16.18-2.55-22.19-6.96,6.02,4.37,13.84,6.95,22.19,6.96Z"/>
            <path class="cls-5" d="m379.41,255.05c.4,0,.81-.01,1.22-.03-.41.02-.81.02-1.22.03Z"/>
            <path class="cls-4" d="m383.82,251.61c-16.69,2.14-32.06-7.19-34.63-21.11l-.76-4.12-3.62.46h0l5.47-5.33c1.38-1.35,4.03-.76,4.4.99,2.16,10.2,11.17,32.76,48.13,20.31-4.57,4.72-11.21,7.8-18.99,8.8Z"/>
            <path class="cls-5" d="m388.29,254.02c.27-.06.53-.12.79-.19-.26.07-.53.13-.79.19Z"/>
            <path class="cls-5" d="m389.95,253.59c.25-.07.51-.14.76-.22-.25.07-.5.15-.76.22Z"/>
            <path class="cls-5" d="m391.58,253.11c.24-.08.47-.15.71-.24-.23.08-.47.16-.71.24Z"/>
            <path class="cls-5" d="m386.58,254.37c.28-.05.56-.1.83-.16-.28.06-.55.11-.83.16Z"/>
            <path class="cls-5" d="m384.85,254.65c.29-.04.57-.08.86-.13-.28.05-.57.09-.86.13Z"/>
          </g>
          <path class="cls-4" d="m348.43,226.38l.76,4.12c2.57,13.93,17.94,23.26,34.63,21.11,16.69-2.14,27.99-14.89,25.42-28.82l-.76-4.12,3.62-.46.76,4.12c2.86,15.5-9.89,30.01-28.47,32.39s-35.95-8.17-38.82-23.76l-.76-4.12,3.62-.46Z"/>
        </g>
        <g>
          <path class="cls-4" d="m169.1,200.34l-52.38-6.71c-4.12-.53-7.97,1.83-8.6,5.26l-4.32,23.45c-2.85,15.51,9.9,30.01,28.48,32.39h0c18.58,2.38,35.96-8.26,38.82-23.76l4.32-23.45c.63-3.44-2.19-6.65-6.31-7.18Z"/>
          <path class="cls-4" d="m171.34,209.49l-3.85,20.92c-2.55,13.84-18.06,23.33-34.64,21.21-16.58-2.13-27.96-15.07-25.41-28.9l3.85-20.92c.56-3.07,4-5.17,7.67-4.7l46.75,5.99c3.67.47,6.2,3.34,5.63,6.4Z"/>
          <path class="cls-1" d="m108.18,218.68l-.76,4.12c-2.56,13.93,8.74,26.68,25.43,28.82,16.69,2.14,32.06-7.19,34.62-21.12l.76-4.12,3.62.46-.76,4.12c-2.85,15.51-20.23,26.14-38.82,23.76-18.58-2.38-31.35-16.8-28.48-32.39l.76-4.12,3.62.46Z"/>
          <g>
            <path class="cls-5" d="m146.51,254.02c.17-.04.34-.08.51-.12-.17.04-.34.08-.51.12Z"/>
            <path class="cls-5" d="m148.16,253.6c.15-.04.29-.08.44-.12-.14.04-.29.08-.44.12Z"/>
            <path class="cls-5" d="m144.84,254.37c.19-.04.39-.07.58-.11-.19.04-.39.07-.58.11Z"/>
            <path class="cls-5" d="m149.78,253.12c.12-.04.24-.08.36-.12-.12.04-.24.08-.36.12Z"/>
            <path class="cls-5" d="m143.16,254.65c.22-.03.43-.06.65-.09-.21.03-.43.06-.65.09Z"/>
            <path class="cls-5" d="m151.37,252.56c.09-.03.19-.07.28-.1-.09.04-.19.07-.28.1Z"/>
            <path class="cls-5" d="m141.45,254.85c.24-.02.47-.05.71-.07-.23.03-.47.05-.71.07Z"/>
            <path class="cls-5" d="m154.57,251.19s-.09.04-.13.06c.04-.02.09-.04.13-.06Z"/>
            <polygon class="cls-5" points="157.33 249.7 157.33 249.7 157.33 249.7 157.33 249.7"/>
            <path class="cls-5" d="m155.97,250.47s-.04.02-.06.03c.02-.01.04-.02.06-.03Z"/>
            <path class="cls-5" d="m152.93,251.94c.07-.03.13-.06.2-.08-.07.03-.13.06-.2.08Z"/>
            <path class="cls-5" d="m107.86,240.71c.07.1.13.2.2.29-.07-.1-.13-.19-.2-.29Z"/>
            <path class="cls-5" d="m129.21,254.2c.32.07.64.13.96.19-.32-.06-.64-.12-.96-.19Z"/>
            <path class="cls-5" d="m131.84,254.66c-.14-.02-.28-.03-.43-.05-.15-.02-.3-.05-.45-.08.29.05.58.09.88.13Z"/>
            <path class="cls-5" d="m127.07,253.7c-8-2.1-14.52-6.48-18.66-12.2,4.17,5.68,10.7,10.09,18.66,12.2Z"/>
            <path class="cls-5" d="m127.41,253.79c.39.1.78.19,1.17.28-.39-.09-.78-.18-1.17-.28Z"/>
            <path class="cls-4" d="m132.85,251.61c-16.69-2.14-27.99-14.89-25.43-28.82l.76-4.12-3.62-.46h0l7.14-3.71c1.81-.94,4.12.29,3.84,2.05-1.61,10.27-1.14,34.04,38.6,31.44-6.05,3.36-13.5,4.63-21.28,3.63Z"/>
            <path class="cls-5" d="m136.25,255.03c.28,0,.55.02.83.02-.28,0-.55,0-.83-.02Z"/>
            <path class="cls-5" d="m137.99,255.04c.27,0,.53,0,.8-.02-.27,0-.53.01-.8.02Z"/>
            <path class="cls-5" d="m139.72,254.98c.25-.01.51-.03.76-.05-.25.02-.51.03-.76.05Z"/>
            <path class="cls-5" d="m134.5,254.94c.28.02.57.04.85.05-.28-.01-.57-.03-.85-.05Z"/>
            <path class="cls-5" d="m132.74,254.77c.29.03.57.06.86.09-.29-.03-.57-.06-.86-.09Z"/>
          </g>
          <path class="cls-4" d="m108.18,218.68l-.76,4.12c-2.56,13.93,8.74,26.68,25.43,28.82,16.69,2.14,32.06-7.19,34.62-21.12l.76-4.12,3.62.46-.76,4.12c-2.85,15.51-20.23,26.14-38.82,23.76-18.58-2.38-31.35-16.8-28.48-32.39l.76-4.12,3.62.46Z"/>
        </g>
      </g>
    </g>
  </g>
</svg>