<?xml version="1.0" encoding="UTF-8"?>
<svg xmlns="http://www.w3.org/2000/svg" xmlns:xlink="http://www.w3.org/1999/xlink" viewBox="0 0 200.27 145.97">
  <defs>
    <style>
      .cls-1 {
        fill: url(#linear-gradient-3);
      }

      .cls-1, .cls-2, .cls-3, .cls-4, .cls-5, .cls-6 {
        mix-blend-mode: multiply;
      }

      .cls-7 {
        fill: #fafaf8;
      }

      .cls-8 {
        fill: #fff;
      }

      .cls-2 {
        fill: url(#linear-gradient);
      }

      .cls-9 {
        fill: #939598;
      }

      .cls-3 {
        fill: url(#linear-gradient-4);
      }

      .cls-10 {
        filter: url(#luminosity-noclip-5);
      }

      .cls-11 {
        mask: url(#mask-2);
      }

      .cls-12 {
        isolation: isolate;
      }

      .cls-13 {
        mask: url(#mask-3);
      }

      .cls-4 {
        fill: url(#linear-gradient-6);
      }

      .cls-5 {
        fill: url(#linear-gradient-5);
      }

      .cls-14 {
        mask: url(#mask-5);
      }

      .cls-15 {
        mask: url(#mask-4);
      }

      .cls-6 {
        fill: url(#linear-gradient-2);
      }

      .cls-16 {
        filter: url(#luminosity-noclip);
      }

      .cls-17 {
        mask: url(#mask-1);
      }

      .cls-18 {
        mask: url(#mask);
      }

      .cls-19 {
        filter: url(#luminosity-noclip-3);
      }

      .cls-20 {
        fill: #26281e;
      }
    </style>
    <filter id="luminosity-noclip" x="117.55" y="62.48" width="33.42" height="21.01" color-interpolation-filters="sRGB" filterUnits="userSpaceOnUse">
      <feFlood flood-color="#fff" result="bg"/>
      <feBlend in="SourceGraphic" in2="bg"/>
    </filter>
    <filter id="luminosity-noclip-2" x="117.55" y="-8264.49" width="33.42" height="32766" color-interpolation-filters="sRGB" filterUnits="userSpaceOnUse">
      <feFlood flood-color="#fff" result="bg"/>
      <feBlend in="SourceGraphic" in2="bg"/>
    </filter>
    <mask id="mask-1" x="117.55" y="-8264.49" width="33.42" height="32766" maskUnits="userSpaceOnUse"/>
    <linearGradient id="linear-gradient" x1="134.26" y1="62.48" x2="134.26" y2="83.49" gradientUnits="userSpaceOnUse">
      <stop offset="0" stop-color="#fff"/>
      <stop offset=".17" stop-color="#fbfbfb"/>
      <stop offset=".3" stop-color="#f2f2f2"/>
      <stop offset=".42" stop-color="#e1e1e1"/>
      <stop offset=".53" stop-color="#c9c9c9"/>
      <stop offset=".64" stop-color="#ababab"/>
      <stop offset=".74" stop-color="#868686"/>
      <stop offset=".84" stop-color="#5a5a5a"/>
      <stop offset=".93" stop-color="#282828"/>
      <stop offset="1" stop-color="#000"/>
    </linearGradient>
    <mask id="mask" x="117.55" y="62.48" width="33.42" height="21.01" maskUnits="userSpaceOnUse">
      <g class="cls-16">
        <g class="cls-17">
          <path class="cls-2" d="m149.75,83.49h-32.2v-21.01s29.44.33,32.2,0c2.76-.33,0,21.01,0,21.01Z"/>
        </g>
      </g>
    </mask>
    <linearGradient id="linear-gradient-2" x1="134.26" y1="62.48" x2="134.26" y2="83.49" gradientUnits="userSpaceOnUse">
      <stop offset="0" stop-color="#000"/>
      <stop offset=".17" stop-color="#030303"/>
      <stop offset=".3" stop-color="#0c0c0c"/>
      <stop offset=".42" stop-color="#1d1d1d"/>
      <stop offset=".53" stop-color="#353535"/>
      <stop offset=".64" stop-color="#535353"/>
      <stop offset=".74" stop-color="#787878"/>
      <stop offset=".84" stop-color="#a4a4a4"/>
      <stop offset=".93" stop-color="#d6d6d6"/>
      <stop offset="1" stop-color="#fff"/>
    </linearGradient>
    <filter id="luminosity-noclip-3" x="157.83" y="55.84" width="10.51" height="34.3" color-interpolation-filters="sRGB" filterUnits="userSpaceOnUse">
      <feFlood flood-color="#fff" result="bg"/>
      <feBlend in="SourceGraphic" in2="bg"/>
    </filter>
    <filter id="luminosity-noclip-4" x="157.83" y="-8264.49" width="10.51" height="32766" color-interpolation-filters="sRGB" filterUnits="userSpaceOnUse">
      <feFlood flood-color="#fff" result="bg"/>
      <feBlend in="SourceGraphic" in2="bg"/>
    </filter>
    <mask id="mask-3" x="157.83" y="-8264.49" width="10.51" height="32766" maskUnits="userSpaceOnUse"/>
    <linearGradient id="linear-gradient-3" x1="-269.08" y1="824.91" x2="-269.08" y2="835.42" gradientTransform="translate(-667.08 -196.1) rotate(-90)" gradientUnits="userSpaceOnUse">
      <stop offset="0" stop-color="#fff"/>
      <stop offset=".19" stop-color="#fcfcfc"/>
      <stop offset=".32" stop-color="#f3f3f3"/>
      <stop offset=".44" stop-color="#e3e3e3"/>
      <stop offset=".55" stop-color="#cdcdcd"/>
      <stop offset=".65" stop-color="#b1b1b1"/>
      <stop offset=".74" stop-color="#8e8e8e"/>
      <stop offset=".83" stop-color="#646464"/>
      <stop offset=".92" stop-color="#363636"/>
      <stop offset="1" stop-color="#010101"/>
      <stop offset="1" stop-color="#000"/>
    </linearGradient>
    <mask id="mask-2" x="157.83" y="55.84" width="10.51" height="34.3" maskUnits="userSpaceOnUse">
      <g class="cls-19">
        <g class="cls-13">
          <path class="cls-1" d="m168.34,56.58v33.18s-10.51,1-10.51-.3c0-1.3.16-29.44,0-32.2s10.51-.69,10.51-.69Z"/>
        </g>
      </g>
    </mask>
    <linearGradient id="linear-gradient-4" x1="-269.08" y1="824.91" x2="-269.08" y2="835.42" gradientTransform="translate(-667.08 -196.1) rotate(-90)" gradientUnits="userSpaceOnUse">
      <stop offset="0" stop-color="#000"/>
      <stop offset=".19" stop-color="#020202"/>
      <stop offset=".32" stop-color="#0b0b0b"/>
      <stop offset=".44" stop-color="#1b1b1b"/>
      <stop offset=".55" stop-color="#313131"/>
      <stop offset=".65" stop-color="#4d4d4d"/>
      <stop offset=".74" stop-color="#707070"/>
      <stop offset=".83" stop-color="#9a9a9a"/>
      <stop offset=".92" stop-color="#c8c8c8"/>
      <stop offset="1" stop-color="#fdfdfd"/>
      <stop offset="1" stop-color="#fff"/>
    </linearGradient>
    <filter id="luminosity-noclip-5" x="53.32" y="62.48" width="33.42" height="21.01" color-interpolation-filters="sRGB" filterUnits="userSpaceOnUse">
      <feFlood flood-color="#fff" result="bg"/>
      <feBlend in="SourceGraphic" in2="bg"/>
    </filter>
    <filter id="luminosity-noclip-6" x="53.32" y="-8264.49" width="33.42" height="32766" color-interpolation-filters="sRGB" filterUnits="userSpaceOnUse">
      <feFlood flood-color="#fff" result="bg"/>
      <feBlend in="SourceGraphic" in2="bg"/>
    </filter>
    <mask id="mask-5" x="53.32" y="-8264.49" width="33.42" height="32766" maskUnits="userSpaceOnUse"/>
    <linearGradient id="linear-gradient-5" x1="-973.88" y1="62.48" x2="-973.88" y2="83.49" gradientTransform="translate(-903.84) rotate(-180) scale(1 -1)" xlink:href="#linear-gradient"/>
    <mask id="mask-4" x="53.32" y="62.48" width="33.42" height="21.01" maskUnits="userSpaceOnUse">
      <g class="cls-10">
        <g class="cls-14">
          <path class="cls-5" d="m54.55,83.49h32.2v-21.01s-29.44.33-32.2,0,0,21.01,0,21.01Z"/>
        </g>
      </g>
    </mask>
    <linearGradient id="linear-gradient-6" x1="-973.88" y1="62.48" x2="-973.88" y2="83.49" gradientTransform="translate(-903.84) rotate(-180) scale(1 -1)" xlink:href="#linear-gradient-2"/>
  </defs>
  <g class="cls-12">
    <g id="Layer_1" data-name="Layer 1">
      <g>
        <path class="cls-9" d="m79.93,117.38c-24.52-.04-44.39-19.93-44.39-44.47s19.87-44.43,44.39-44.47h44.47c24.55,0,44.47,19.91,44.47,44.47s-19.92,44.47-44.47,44.47l-.08.15h-44.39v-.15Z"/>
        <g>
          <path class="cls-9" d="m191.6,54.01c5.51,4.79,8.67,11.75,8.67,19.05s-3.18,14.29-8.72,19.1l-.1.09-3.5-3.95.14-.13c4.38-3.8,6.9-9.31,6.9-15.11s-2.52-11.3-6.9-15.1l3.42-3.85.09-.1Z"/>
          <path class="cls-9" d="m188.09,57.96c4.38,3.8,6.9,9.31,6.9,15.1s-2.52,11.31-6.9,15.11l-.14.13-.06-.06-25.71,2.4v-.15c-1.25.1-2.47-.33-3.37-1.17-.89-.83-1.4-1.98-1.42-3.2v-26.05c0-1.23.52-2.42,1.42-3.26.88-.82,2.06-1.25,3.26-1.18v.14l25.82,2.42.2-.23Z"/>
          <path class="cls-9" d="m156.58,9.03l-.1.09-3.86,3.41c-3.8-4.37-9.3-6.88-15.09-6.88s-11.31,2.52-15.11,6.9l-.06.05-4.01-3.41.09-.1c4.81-5.54,11.76-8.72,19.09-8.72s14.27,3.17,19.06,8.67Z"/>
          <path class="cls-9" d="m156.48,137l.03.03c-4.79,5.46-11.71,8.58-18.97,8.58s-14.29-3.17-19.1-8.71h-.01s3.94-3.37,3.94-3.37v-.08s.06-.01.06-.01c3.8,4.37,9.31,6.88,15.11,6.88s11.22-2.48,15.02-6.79l3.93,3.47Z"/>
          <path class="cls-9" d="m154.96,38.56c.06,1.21-.36,2.38-1.18,3.26-.84.91-2.03,1.42-3.26,1.42h-26.05c-1.22-.03-2.37-.53-3.2-1.42-.84-.91-1.27-2.13-1.17-3.37h-.15s2.4-25.86,2.4-25.86l.06-.05c3.8-4.38,9.31-6.9,15.11-6.9s11.29,2.52,15.09,6.88l-.06.06,2.26,25.97h.14Z"/>
          <path class="cls-9" d="m153.78,104.32c.84.91,1.27,2.13,1.18,3.36l-.14.04-2.26,25.81h0c-3.8,4.33-9.27,6.81-15.02,6.81s-11.31-2.52-15.11-6.88h-.08s-2.4-25.73-2.4-25.73l.16-.04c-.1-1.23.33-2.45,1.17-3.36.83-.91,1.98-1.41,3.2-1.43h26.05c1.23,0,2.42.52,3.26,1.43Z"/>
          <path class="cls-9" d="m93.51,9.07v.05s-4,3.41-4,3.41c-3.8-4.37-9.3-6.88-15.09-6.88s-11.31,2.52-15.11,6.9l-.06.05-4.01-3.41.09-.1C60.13,3.54,67.08.36,74.41.36s14.31,3.18,19.1,8.71Z"/>
          <path class="cls-9" d="m89.44,133.53l4.01,3.42c-4.78,5.51-11.74,8.66-19.04,8.66s-14.29-3.17-19.1-8.71h-.01s3.94-3.37,3.94-3.37v-.09s.06,0,.06,0c3.8,4.37,9.31,6.88,15.11,6.88s11.22-2.48,15.02-6.79Z"/>
          <path class="cls-9" d="m91.85,38.56c.06,1.21-.36,2.38-1.18,3.26-.84.91-2.03,1.42-3.26,1.42h-26.05c-1.22-.03-2.37-.53-3.2-1.42-.84-.91-1.27-2.13-1.17-3.37l2.25-25.86.06-.05c3.8-4.38,9.31-6.9,15.11-6.9s11.29,2.52,15.09,6.88l-.06.06,2.26,25.97h.14Z"/>
          <path class="cls-9" d="m90.66,104.32c.84.91,1.27,2.13,1.18,3.36l-.14.04-2.26,25.81h0c-3.8,4.33-9.27,6.81-15.02,6.81s-11.31-2.52-15.11-6.88h-.08l-2.25-25.73v-.04c-.09-1.23.34-2.45,1.18-3.36.83-.91,1.98-1.41,3.2-1.43h26.05c1.23,0,2.42.52,3.26,1.43Z"/>
          <path class="cls-9" d="m46.86,87.56h.15c0,1.25-.52,2.43-1.43,3.27-.91.84-2.13,1.27-3.36,1.17l-.19.16-25.74-2.4v-.08c-4.37-3.8-6.87-9.31-6.87-15.11s2.47-11.22,6.79-15.02l25.82-2.26.19-.14c1.23-.09,2.45.34,3.36,1.18.91.84,1.43,2.03,1.43,3.26l-.15.08v25.89Z"/>
          <path class="cls-9" d="m16.3,89.68v.08s-.09-.01-.09-.01l-3.36,3.94h-.01c-5.54-4.82-8.71-11.78-8.71-19.11s3.12-14.18,8.58-18.97l.03.03,3.47,3.93c-4.33,3.8-6.79,9.27-6.79,15.02s2.5,11.31,6.88,15.11Z"/>
        </g>
        <g>
          <g>
            <path class="cls-8" d="m187.82,54.01c5.51,4.79,8.67,11.75,8.67,19.05s-3.18,14.29-8.72,19.1l-.1.09-3.5-3.95.14-.13c4.38-3.8,6.9-9.31,6.9-15.11s-2.52-11.3-6.9-15.1l3.42-3.85.09-.1Z"/>
            <path class="cls-7" d="m184.31,57.96c4.38,3.8,6.9,9.31,6.9,15.1s-2.52,11.31-6.9,15.11l-.14.13-.06-.06-25.71,2.4v-.15c-1.25.1-2.47-.33-3.37-1.17-.89-.83-1.4-1.98-1.42-3.2v-26.05c0-1.23.52-2.42,1.42-3.26.88-.82,2.06-1.25,3.26-1.18v.14l25.82,2.42.2-.23Z"/>
            <path class="cls-8" d="m152.81,9.03l-.1.09-3.86,3.41c-3.8-4.37-9.3-6.88-15.09-6.88s-11.31,2.52-15.11,6.9l-.06.05-4.01-3.41.09-.1C119.46,3.54,126.42.36,133.75.36s14.27,3.17,19.06,8.67Z"/>
            <path class="cls-8" d="m152.71,137l.03.03c-4.79,5.46-11.71,8.58-18.97,8.58s-14.29-3.17-19.1-8.71h-.01s3.94-3.37,3.94-3.37v-.08s.06-.01.06-.01c3.8,4.37,9.31,6.88,15.11,6.88s11.22-2.48,15.02-6.79l3.93,3.47Z"/>
            <path class="cls-7" d="m151.18,38.56c.06,1.21-.36,2.38-1.18,3.26-.84.91-2.03,1.42-3.26,1.42h-26.05c-1.22-.03-2.37-.53-3.2-1.42-.84-.91-1.27-2.13-1.17-3.37h-.15s2.4-25.86,2.4-25.86l.06-.05c3.8-4.38,9.31-6.9,15.11-6.9s11.29,2.52,15.09,6.88l-.06.06,2.26,25.97h.14Z"/>
            <path class="cls-7" d="m150,104.32c.84.91,1.27,2.13,1.18,3.36l-.14.04-2.26,25.81h0c-3.8,4.33-9.27,6.81-15.02,6.81s-11.31-2.52-15.11-6.88h-.08s-2.4-25.73-2.4-25.73l.16-.04c-.1-1.23.33-2.45,1.17-3.36.83-.91,1.98-1.41,3.2-1.43h26.05c1.23,0,2.42.52,3.26,1.43Z"/>
            <path class="cls-8" d="m89.73,9.07v.05s-4,3.41-4,3.41c-3.8-4.37-9.3-6.88-15.09-6.88s-11.31,2.52-15.11,6.9l-.06.05-4.01-3.41.09-.1C56.35,3.54,63.31.36,70.63.36s14.31,3.18,19.1,8.71Z"/>
            <path class="cls-8" d="m85.67,133.53l4.01,3.42c-4.78,5.51-11.74,8.66-19.04,8.66s-14.29-3.17-19.1-8.71h-.01s3.94-3.37,3.94-3.37v-.09s.06,0,.06,0c3.8,4.37,9.31,6.88,15.11,6.88s11.22-2.48,15.02-6.79Z"/>
            <path class="cls-7" d="m88.07,38.56c.06,1.21-.36,2.38-1.18,3.26-.84.91-2.03,1.42-3.26,1.42h-26.05c-1.22-.03-2.37-.53-3.2-1.42-.84-.91-1.27-2.13-1.17-3.37l2.25-25.86.06-.05c3.8-4.38,9.31-6.9,15.11-6.9s11.29,2.52,15.09,6.88l-.06.06,2.26,25.97h.14Z"/>
            <path class="cls-7" d="m86.89,104.32c.84.91,1.27,2.13,1.18,3.36l-.14.04-2.26,25.81h0c-3.8,4.33-9.27,6.81-15.02,6.81s-11.31-2.52-15.11-6.88h-.08l-2.25-25.73v-.04c-.09-1.23.34-2.45,1.18-3.36.83-.91,1.98-1.41,3.2-1.43h26.05c1.23,0,2.42.52,3.26,1.43Z"/>
            <path class="cls-7" d="m43.09,87.56h.15c0,1.25-.52,2.43-1.43,3.27-.91.84-2.13,1.27-3.36,1.17l-.19.16-25.74-2.4v-.08c-4.37-3.8-6.87-9.31-6.87-15.11s2.47-11.22,6.79-15.02l25.82-2.26.19-.14c1.23-.09,2.45.34,3.36,1.18.91.84,1.43,2.03,1.43,3.26l-.15.08v25.89Z"/>
            <path class="cls-8" d="m12.53,89.68v.08s-.09-.01-.09-.01l-3.36,3.94h-.01C3.53,88.86.36,81.91.36,74.57s3.12-14.18,8.58-18.97l.03.03,3.47,3.93c-4.33,3.8-6.79,9.27-6.79,15.02s2.5,11.31,6.88,15.11Z"/>
          </g>
          <g>
            <path class="cls-20" d="m83.55,43.6h-25.89c-.2,0-.36-.16-.36-.36s.16-.36.36-.36h25.89c.2,0,.36.16.36.36s-.16.36-.36.36Z"/>
            <path class="cls-20" d="m83.63,43.6c-.2,0-.36-.16-.36-.36s.16-.36.36-.36c1.13,0,2.22-.48,3-1.31.76-.82,1.15-1.88,1.09-3,0-.04,0-.07.01-.11.03-.18.17-.34.35-.34.2,0,.36.12.36.32,0,.03,0,.08,0,.14.06,1.29-.4,2.53-1.28,3.48-.91.98-2.19,1.54-3.52,1.54Z"/>
            <path class="cls-20" d="m87.93,38.92c-.18,0-.34-.14-.36-.33l-2.27-25.97c-.02-.2.13-.37.33-.39.19-.01.37.13.39.33l2.27,25.97c.02.2-.13.37-.33.39-.01,0-.02,0-.03,0Z"/>
            <path class="cls-20" d="m53.21,38.92s-.03,0-.04,0c-.2-.02-.34-.2-.32-.4v-.11s2.26-25.85,2.26-25.85c.02-.2.19-.34.39-.33.2.02.34.19.33.39l-2.27,25.98c-.02.18-.18.32-.36.32Z"/>
            <path class="cls-20" d="m57.66,43.6c-1.41-.03-2.64-.57-3.54-1.54-.91-.98-1.37-2.31-1.27-3.65.02-.2.19-.35.39-.33.2.02.35.19.33.39-.09,1.14.3,2.27,1.07,3.1.76.82,1.81,1.28,2.94,1.31.2,0,.39.17.39.36,0,.2-.12.36-.32.36Z"/>
            <path class="cls-20" d="m55.53,12.9c-.08,0-.17-.03-.24-.09-.15-.13-.17-.36-.04-.51,3.87-4.46,9.48-7.02,15.38-7.02s11.48,2.55,15.36,7.01c.13.15.12.37-.02.51-.14.13-.36.13-.49,0h-.01c-3.76-4.33-9.16-6.79-14.83-6.79s-11.11,2.47-14.84,6.77c-.07.08-.17.12-.27.12Z"/>
            <path class="cls-20" d="m51.54,9.44c-.08,0-.17-.03-.24-.09-.15-.13-.17-.36-.04-.51C56.15,3.22,63.21,0,70.63,0s14.5,3.22,19.37,8.83c.13.15.11.38-.04.51-.15.13-.38.11-.51-.04-4.73-5.45-11.6-8.58-18.83-8.58s-14.07,3.13-18.82,8.6c-.07.08-.17.12-.27.12Z"/>
            <path class="cls-20" d="m55.47,12.95c-.08,0-.17-.03-.23-.09l-4.01-3.41s-.08-.08-.08-.08c-.14-.14-.14-.37,0-.51s.37-.14.51,0l.06.06,3.99,3.39c.15.13.17.36.04.51-.07.08-.17.13-.27.13Z"/>
            <path class="cls-20" d="m85.68,12.9c-.09,0-.19-.03-.25-.1-.13-.14-.16-.33-.02-.47,0,0,.08-.08.08-.08l4.01-3.41c.15-.13.38-.11.51.04.13.15.11.38-.04.51l-4.01,3.41c-.08.06-.18.1-.28.1Z"/>
            <path class="cls-20" d="m83.55,103.24h-25.89c-.2,0-.36-.16-.36-.36s.16-.36.36-.36h25.89c.2,0,.36.16.36.36s-.16.36-.36.36Z"/>
            <path class="cls-20" d="m88.07,108.04s-.02,0-.03,0c-.2-.01-.35-.19-.33-.38.08-1.13-.32-2.26-1.09-3.09-.77-.84-1.86-1.32-3-1.32-.2,0-.36-.16-.36-.36s.16-.36.36-.36c1.33,0,2.62.57,3.52,1.55.91.97,1.37,2.3,1.28,3.63-.01.19-.17.33-.36.33Z"/>
            <path class="cls-20" d="m85.67,133.88s-.02,0-.03,0c-.2-.02-.34-.19-.33-.39l2.27-25.81c.02-.2.21-.35.39-.33.2.02.34.19.33.39l-2.27,25.81c-.02.19-.17.33-.36.33Z"/>
            <path class="cls-20" d="m55.45,133.85c-.17,0-.31-.09-.34-.27v-.09s-2.27-25.75-2.27-25.75c-.02-.2.13-.37.33-.39.2-.02.37.13.39.33l2.25,25.73c.02.19-.12.41-.31.43-.02,0-.04,0-.06,0Z"/>
            <path class="cls-20" d="m53.22,108.04c-.19,0-.34-.14-.36-.33-.11-1.33.35-2.65,1.27-3.63.89-.97,2.12-1.52,3.45-1.55l.08.36v.36h-.08c-1.13.02-2.17.49-2.93,1.32-.78.83-1.17,1.96-1.08,3.09.02.2-.13.37-.33.39,0,0-.02,0-.03,0Z"/>
            <path class="cls-20" d="m70.64,140.69c-5.9,0-11.51-2.55-15.38-7.01-.13-.15-.11-.38.04-.51.15-.13.38-.12.51.04,3.74,4.3,9.15,6.76,14.84,6.76s10.98-2.42,14.71-6.63c.02-.03.03-.05.06-.07.14-.14.41-.18.55-.04.14.14.18.33.04.47h0s-.03.05-.05.07c-3.87,4.4-9.44,6.92-15.29,6.92Z"/>
            <path class="cls-20" d="m70.64,145.97c-7.44,0-14.5-3.22-19.37-8.83-.13-.15-.11-.38.04-.51.15-.13.38-.12.51.04,4.74,5.45,11.6,8.58,18.83,8.58s14.06-3.11,18.77-8.53c.03-.04.07-.06.11-.09h0c.14-.08.32-.07.44.04.14.14.17.34.03.49-.01.02-.03.04-.06.06-4.84,5.57-11.87,8.76-19.29,8.76Z"/>
            <path class="cls-20" d="m51.39,137.36c-.1,0-.21-.05-.28-.13-.13-.15-.1-.38.05-.51l.14-.11,3.93-3.35c.15-.13.38-.11.51.04.13.15.11.38-.04.51l-4.08,3.48c-.07.05-.15.08-.23.08Z"/>
            <path class="cls-20" d="m89.71,137.35c-.06,0-.13-.02-.19-.07l-.06-.05-4.02-3.43c-.15-.13-.17-.36-.04-.51.13-.15.36-.17.51-.04l4.01,3.42c.15.13.2.38.08.53-.08.09-.18.15-.28.15Z"/>
            <path class="cls-20" d="m146.67,43.6h-25.89c-.2,0-.36-.16-.36-.36s.16-.36.36-.36h25.89c.2,0,.36.16.36.36s-.16.36-.36.36Z"/>
            <path class="cls-20" d="m146.74,43.6c-.2,0-.36-.16-.36-.36s.16-.36.36-.36c1.13,0,2.22-.48,3-1.31.76-.82,1.15-1.88,1.09-3,0-.04,0-.07.01-.11.03-.18.17-.34.35-.34.2,0,.36.12.36.32,0,.03,0,.08,0,.14.06,1.29-.4,2.53-1.28,3.48-.91.98-2.19,1.54-3.52,1.54Z"/>
            <path class="cls-20" d="m151.05,38.92c-.18,0-.34-.14-.36-.33l-2.26-25.97c-.02-.2.13-.37.33-.39.19-.01.37.13.39.33l2.26,25.97c.02.2-.13.37-.33.39-.01,0-.02,0-.03,0Z"/>
            <path class="cls-20" d="m116.17,38.92s-.02,0-.04,0c-.2-.02-.34-.2-.32-.39v-.13s2.42-25.84,2.42-25.84c.02-.2.2-.34.39-.33.2.02.34.19.33.39l-2.42,25.97c-.02.19-.18.32-.36.32Z"/>
            <path class="cls-20" d="m120.77,43.6c-1.41-.03-2.64-.57-3.54-1.54-.91-.98-1.37-2.31-1.27-3.65.02-.2.19-.35.39-.33.2.02.35.19.33.39-.09,1.14.3,2.27,1.07,3.1.76.82,1.81,1.28,2.94,1.31.2,0,.39.17.39.36s-.12.36-.32.36Z"/>
            <path class="cls-20" d="m118.65,12.9c-.08,0-.17-.03-.24-.09-.15-.13-.17-.36-.04-.51,3.87-4.46,9.48-7.02,15.38-7.02s11.48,2.55,15.36,7.01c.13.15.12.37-.02.51-.14.13-.36.13-.49,0h-.01c-3.76-4.33-9.16-6.79-14.83-6.79s-11.1,2.47-14.84,6.77c-.07.08-.17.12-.27.12Z"/>
            <path class="cls-20" d="m114.66,9.44c-.08,0-.17-.03-.24-.09-.15-.13-.17-.36-.04-.51,4.88-5.62,11.94-8.84,19.36-8.84s14.46,3.2,19.33,8.79c.13.15.13.39,0,.52-.14.13-.34.15-.48.01l-.04-.04c-4.75-5.45-11.6-8.56-18.81-8.56s-14.07,3.13-18.82,8.6c-.07.08-.17.12-.27.12Z"/>
            <path class="cls-20" d="m118.58,12.95c-.08,0-.17-.03-.23-.09l-4.01-3.41s-.08-.08-.08-.08c-.14-.14-.14-.37,0-.51s.37-.14.51,0l.06.06,3.99,3.39c.15.13.17.36.04.51-.07.08-.17.13-.27.13Z"/>
            <path class="cls-20" d="m148.8,12.9c-.09,0-.18-.03-.25-.1-.13-.14-.16-.33-.02-.47,0,0,.07-.07.08-.08l3.86-3.41c.15-.13.38-.12.51.03.13.15.12.38-.03.51l-3.86,3.41c-.08.07-.18.11-.29.11Z"/>
            <path class="cls-20" d="m146.67,103.24h-25.89c-.2,0-.36-.16-.36-.36s.16-.36.36-.36h25.89c.2,0,.36.16.36.36s-.16.36-.36.36Z"/>
            <path class="cls-20" d="m151.18,108.04s-.02,0-.03,0c-.2-.01-.35-.19-.33-.38.08-1.13-.32-2.26-1.09-3.09-.77-.84-1.86-1.32-3-1.32-.2,0-.36-.16-.36-.36s.16-.36.36-.36c1.34,0,2.62.57,3.52,1.55.91.97,1.37,2.3,1.28,3.63-.01.19-.17.33-.36.33Z"/>
            <path class="cls-20" d="m148.78,133.88s-.02,0-.03,0c-.2-.02-.34-.19-.33-.39l2.26-25.81c.02-.2.21-.35.39-.33.2.02.34.19.33.39l-2.26,25.81c-.02.19-.17.33-.36.33Z"/>
            <path class="cls-20" d="m118.56,133.85c-.17,0-.31-.09-.33-.26v-.08s-2.42-25.77-2.42-25.77c-.02-.2.13-.37.32-.39.2-.01.37.13.39.33l2.4,25.74c.02.19-.11.4-.31.43-.02,0-.04,0-.06,0Z"/>
            <path class="cls-20" d="m116.33,108.04c-.19,0-.34-.14-.36-.33-.11-1.33.35-2.65,1.27-3.63.89-.97,2.12-1.52,3.45-1.55l.08.36v.36h-.08c-1.13.02-2.17.49-2.93,1.32-.78.83-1.17,1.96-1.08,3.09.02.2-.13.37-.33.39,0,0-.02,0-.03,0Z"/>
            <path class="cls-20" d="m133.76,140.69c-5.9,0-11.51-2.55-15.38-7.01-.13-.15-.11-.38.04-.51.15-.13.38-.12.51.04,3.74,4.3,9.15,6.76,14.84,6.76s10.98-2.42,14.71-6.63c.01-.03.03-.05.05-.07.14-.14.41-.18.55-.04.14.14.18.33.04.47h-.01s-.03.05-.05.07c-3.87,4.4-9.44,6.92-15.29,6.92Z"/>
            <path class="cls-20" d="m133.76,145.97c-7.44,0-14.5-3.22-19.37-8.83-.13-.15-.11-.38.04-.51.15-.13.38-.12.51.04,4.74,5.45,11.6,8.58,18.83,8.58s13.98-3.08,18.7-8.46l.13-.14c.14-.14.37-.14.51,0,.14.14.14.37,0,.51l-.11.13c-4.84,5.52-11.86,8.69-19.23,8.69Z"/>
            <path class="cls-20" d="m114.51,137.36c-.1,0-.21-.04-.28-.13-.13-.15-.1-.38.05-.51l.14-.11,3.93-3.35c.15-.13.38-.11.51.04.13.15.11.38-.04.51l-4.08,3.48c-.07.05-.15.08-.23.08Z"/>
            <path class="cls-20" d="m152.71,137.36c-.08,0-.17-.03-.24-.09l-3.93-3.47c-.15-.13-.16-.36-.03-.51.13-.15.36-.16.51-.03l3.93,3.47c.15.13.16.36.03.51-.07.08-.17.12-.27.12Z"/>
            <path class="cls-20" d="m43.09,87.95c-.2,0-.36-.12-.36-.32v-25.97c0-.2.16-.36.36-.36s.36.16.36.36v25.89c0,.2-.16.4-.36.4Z"/>
            <path class="cls-20" d="m43.24,61.95c-.2,0-.36-.16-.36-.36,0-1.12-.48-2.21-1.32-3-.83-.77-1.95-1.17-3.09-1.09-.19,0-.37-.14-.38-.33-.01-.2.13-.37.33-.38,1.33-.09,2.65.37,3.63,1.28.98.92,1.55,2.2,1.55,3.52,0,.2-.16.36-.36.36Z"/>
            <path class="cls-20" d="m12.44,59.91c-.18,0-.34-.14-.36-.33-.02-.2.13-.37.33-.39l25.82-2.26c.19-.02.37.13.39.33.02.2-.13.37-.33.39l-25.82,2.26s-.02,0-.03,0Z"/>
            <path class="cls-20" d="m38.26,92.52s-.02,0-.03,0l-25.74-2.4s-.09-.01-.1-.02c-.2-.03-.33-.22-.29-.42.03-.2.22-.33.42-.29h.08s25.72,2.41,25.72,2.41c.2.02.34.19.32.39-.02.19-.17.33-.36.33Z"/>
            <path class="cls-20" d="m38.8,92.37c-.13,0-.25,0-.38-.02-.2-.02-.35-.19-.33-.39.02-.2.19-.34.39-.33,1.13.09,2.25-.3,3.08-1.08.84-.77,1.32-1.87,1.32-3.01,0-.2.16-.36.36-.36s.36.16.36.36c0,1.34-.57,2.63-1.55,3.54-.88.82-2.05,1.28-3.25,1.28Z"/>
            <path class="cls-20" d="m12.53,90.04c-.08,0-.17-.03-.24-.09-4.45-3.86-7.01-9.47-7.01-15.38s2.52-11.44,6.92-15.29l.31.21-.24-.27c.14-.13.37-.13.51.01.13.14.14.36,0,.49-.01.01-.07.06-.08.07-4.27,3.75-6.7,9.12-6.7,14.78s2.46,11.11,6.76,14.84c.15.13.17.36.04.51-.07.08-.17.12-.27.12Z"/>
            <path class="cls-20" d="m9.07,94.03c-.08,0-.17-.03-.24-.09-5.61-4.87-8.83-11.93-8.83-19.37s3.17-14.39,8.7-19.24c0,0,.05-.05.09-.09.14-.13.39-.14.52,0,.13.14.15.35,0,.49,0,0-.05.04-.05.05-.02.02-.07.08-.09.09C3.8,60.59.72,67.4.72,74.57s3.13,14.09,8.58,18.83c.15.13.17.36.04.51-.07.08-.17.12-.27.12Z"/>
            <path class="cls-20" d="m8.97,94.18c-.08,0-.16-.03-.23-.08-.15-.12-.18-.35-.05-.51l.11-.14,3.36-3.94c.13-.15.36-.17.51-.04.15.13.17.36.04.51l-3.47,4.07c-.07.09-.17.13-.28.13Z"/>
            <path class="cls-20" d="m12.44,59.91c-.1,0-.2-.04-.27-.12l-3.47-3.93c-.13-.15-.12-.38.03-.51.15-.13.38-.12.51.03l3.47,3.93c.13.15.12.38-.03.51-.07.06-.15.09-.24.09Z"/>
            <path class="cls-20" d="m153.61,86.41c-.2,0-.36-.16-.36-.36v-25.89c0-.2.16-.36.36-.36s.36.16.36.36v25.89c0,.2-.16.36-.36.36Z"/>
            <path class="cls-20" d="m153.61,60.44c-.2,0-.36-.16-.36-.36,0-1.33.56-2.61,1.54-3.52.94-.88,2.23-1.34,3.51-1.28.04,0,.08,0,.11,0,.2,0,.35.16.35.36s-.17.36-.37.36c0,0-.03,0-.05,0-.02,0-.04,0-.07,0-1.1-.06-2.19.34-2.99,1.09-.83.77-1.31,1.87-1.31,3,0,.2-.16.36-.36.36Z"/>
            <path class="cls-20" d="m184.11,58.55s-.02,0-.03,0l-25.82-2.42c-.2-.02-.34-.19-.32-.39.02-.2.19-.34.39-.33l25.82,2.42c.2.02.34.19.32.39-.02.19-.17.33-.36.33Z"/>
            <path class="cls-20" d="m158.29,91.01c-.18,0-.34-.14-.36-.32-.02-.2.12-.38.32-.4h.11s25.71-2.42,25.71-2.42c.2-.02.37.13.39.33.02.2-.13.37-.32.39l-25.81,2.41s-.03,0-.04,0Z"/>
            <path class="cls-20" d="m158.04,90.86c-1.2,0-2.36-.46-3.25-1.28-.96-.9-1.51-2.12-1.54-3.45l.36-.08h.36v.08c.02,1.13.49,2.17,1.31,2.93.83.77,1.96,1.17,3.08,1.08.2-.02.37.13.39.33.02.2-.13.37-.33.39-.13.01-.26.02-.38.02Z"/>
            <path class="cls-20" d="m184.31,88.53c-.1,0-.2-.04-.27-.12-.13-.15-.11-.38.04-.51,4.3-3.73,6.77-9.14,6.77-14.84s-2.47-11.09-6.77-14.83c-.15-.13-.17-.36-.04-.51.13-.15.36-.17.51-.04,4.46,3.87,7.02,9.47,7.02,15.37s-2.56,11.51-7.02,15.38c-.07.06-.15.09-.24.09Z"/>
            <path class="cls-20" d="m187.77,92.52c-.1,0-.2-.04-.27-.12-.13-.15-.11-.38.04-.51,5.46-4.74,8.6-11.6,8.6-18.83s-3.11-14.05-8.55-18.78c-.04-.03-.06-.07-.09-.11h0c-.07-.15-.07-.33.05-.44.14-.14.34-.16.48-.02.02.01.04.03.05.05,5.57,4.86,8.77,11.89,8.77,19.3s-3.22,14.49-8.84,19.37c-.07.06-.15.09-.24.09Z"/>
            <path class="cls-20" d="m187.69,92.66c-.07,0-.15-.03-.21-.09l-.06-.06-3.51-3.97c-.13-.15-.15-.4,0-.53.14-.13.33-.16.47-.03,0,0,.07.07.08.08l3.5,3.95c.13.15.15.4,0,.53-.08.07-.17.12-.26.12Z"/>
            <path class="cls-20" d="m184.11,58.55c-.08,0-.17-.03-.24-.09-.15-.13-.16-.36-.03-.51l3.62-4.08c.13-.15.36-.16.51-.03.15.13.16.36.03.51l-3.62,4.08c-.07.08-.17.12-.27.12Z"/>
          </g>
        </g>
        <g class="cls-18">
          <path class="cls-6" d="m149.75,83.49h-32.2v-21.01s29.44.33,32.2,0c2.76-.33,0,21.01,0,21.01Z"/>
        </g>
        <g class="cls-11">
          <path class="cls-3" d="m168.34,56.58v33.18s-10.51,1-10.51-.3c0-1.3.16-29.44,0-32.2s10.51-.69,10.51-.69Z"/>
        </g>
        <g class="cls-15">
          <path class="cls-4" d="m54.55,83.49h32.2v-21.01s-29.44.33-32.2,0,0,21.01,0,21.01Z"/>
        </g>
        <g>
          <path class="cls-8" d="m76.16,117.38c-24.52-.04-44.39-19.93-44.39-44.47s19.87-44.43,44.39-44.47h44.47c24.55,0,44.47,19.91,44.47,44.47s-19.92,44.47-44.47,44.47l-.08.15h-44.39v-.15Z"/>
          <g>
            <path class="cls-20" d="m76.23,117.74c-24.75-.04-44.83-20.15-44.83-44.83s20.07-44.79,44.75-44.83h0c.2,0,.36.16.36.36,0,.2-.16.36-.36.36-24.28.04-44.03,19.82-44.03,44.11s19.75,44.07,44.03,44.11c.2,0,.4.16.4.36,0,.2-.12.36-.32.36Z"/>
            <path class="cls-20" d="m120.62,117.74c-.2,0-.36-.16-.36-.36s.16-.36.36-.36c24.32,0,44.11-19.79,44.11-44.11s-19.79-44.11-44.11-44.11c-.2,0-.36-.16-.36-.36s.16-.36.36-.36c24.72,0,44.83,20.11,44.83,44.83s-20.11,44.83-44.83,44.83Z"/>
            <path class="cls-20" d="m120.55,28.8h-44.31c-.2,0-.4-.16-.4-.36s.12-.36.32-.36h44.39c.2,0,.36.16.36.36s-.16.36-.36.36Z"/>
            <path class="cls-20" d="m120.55,117.89h-44.39c-.2,0-.36-.16-.36-.36s.16-.36.36-.36h44.39c.2,0,.36.16.36.36s-.16.36-.36.36Z"/>
          </g>
        </g>
      </g>
    </g>
  </g>
</svg>