<?xml version="1.0" encoding="UTF-8"?>
<svg xmlns="http://www.w3.org/2000/svg" xmlns:xlink="http://www.w3.org/1999/xlink" viewBox="0 0 156.97 145.97">
  <defs>
    <style>
      .cls-1 {
        fill: url(#linear-gradient-3);
      }

      .cls-1, .cls-2, .cls-3, .cls-4 {
        mix-blend-mode: multiply;
      }

      .cls-5 {
        fill: #fafaf8;
      }

      .cls-6 {
        fill: #fff;
      }

      .cls-2 {
        fill: url(#linear-gradient);
      }

      .cls-7 {
        fill: #939598;
      }

      .cls-3 {
        fill: url(#linear-gradient-4);
      }

      .cls-8 {
        mask: url(#mask-2);
      }

      .cls-9 {
        isolation: isolate;
      }

      .cls-10 {
        mask: url(#mask-3);
      }

      .cls-4 {
        fill: url(#linear-gradient-2);
      }

      .cls-11 {
        filter: url(#luminosity-noclip);
      }

      .cls-12 {
        mask: url(#mask-1);
      }

      .cls-13 {
        mask: url(#mask);
      }

      .cls-14 {
        filter: url(#luminosity-noclip-3);
      }

      .cls-15 {
        fill: #26281e;
      }
    </style>
    <filter id="luminosity-noclip" x="29.37" y="117.67" width="32.2" height="3.86" color-interpolation-filters="sRGB" filterUnits="userSpaceOnUse">
      <feFlood flood-color="#fff" result="bg"/>
      <feBlend in="SourceGraphic" in2="bg"/>
    </filter>
    <filter id="luminosity-noclip-2" x="29.37" y="-8264.49" width="32.2" height="32766" color-interpolation-filters="sRGB" filterUnits="userSpaceOnUse">
      <feFlood flood-color="#fff" result="bg"/>
      <feBlend in="SourceGraphic" in2="bg"/>
    </filter>
    <mask id="mask-1" x="29.37" y="-8264.49" width="32.2" height="32766" maskUnits="userSpaceOnUse"/>
    <linearGradient id="linear-gradient" x1="45.47" y1="121.54" x2="45.47" y2="117.67" gradientUnits="userSpaceOnUse">
      <stop offset="0" stop-color="#000"/>
      <stop offset=".04" stop-color="#0f0f0f"/>
      <stop offset=".25" stop-color="#575757"/>
      <stop offset=".45" stop-color="#939393"/>
      <stop offset=".63" stop-color="#c1c1c1"/>
      <stop offset=".78" stop-color="#e3e3e3"/>
      <stop offset=".91" stop-color="#f7f7f7"/>
      <stop offset="1" stop-color="#fff"/>
    </linearGradient>
    <mask id="mask" x="29.37" y="117.67" width="32.2" height="3.86" maskUnits="userSpaceOnUse">
      <g class="cls-11">
        <g class="cls-12">
          <rect class="cls-2" x="29.37" y="117.67" width="32.2" height="3.86"/>
        </g>
      </g>
    </mask>
    <linearGradient id="linear-gradient-2" x1="45.47" y1="121.54" x2="45.47" y2="117.67" gradientUnits="userSpaceOnUse">
      <stop offset="0" stop-color="#fff"/>
      <stop offset=".04" stop-color="#efefef"/>
      <stop offset=".25" stop-color="#a7a7a7"/>
      <stop offset=".45" stop-color="#6b6b6b"/>
      <stop offset=".63" stop-color="#3d3d3d"/>
      <stop offset=".78" stop-color="#1b1b1b"/>
      <stop offset=".91" stop-color="#070707"/>
      <stop offset="1" stop-color="#000"/>
    </linearGradient>
    <filter id="luminosity-noclip-3" x="92.41" y="117.67" width="32.2" height="3.86" color-interpolation-filters="sRGB" filterUnits="userSpaceOnUse">
      <feFlood flood-color="#fff" result="bg"/>
      <feBlend in="SourceGraphic" in2="bg"/>
    </filter>
    <filter id="luminosity-noclip-4" x="92.41" y="-8264.49" width="32.2" height="32766" color-interpolation-filters="sRGB" filterUnits="userSpaceOnUse">
      <feFlood flood-color="#fff" result="bg"/>
      <feBlend in="SourceGraphic" in2="bg"/>
    </filter>
    <mask id="mask-3" x="92.41" y="-8264.49" width="32.2" height="32766" maskUnits="userSpaceOnUse"/>
    <linearGradient id="linear-gradient-3" x1="108.51" x2="108.51" xlink:href="#linear-gradient"/>
    <mask id="mask-2" x="92.41" y="117.67" width="32.2" height="3.86" maskUnits="userSpaceOnUse">
      <g class="cls-14">
        <g class="cls-10">
          <rect class="cls-1" x="92.41" y="117.67" width="32.2" height="3.86"/>
        </g>
      </g>
    </mask>
    <linearGradient id="linear-gradient-4" x1="108.51" x2="108.51" xlink:href="#linear-gradient-2"/>
  </defs>
  <g class="cls-9">
    <g id="Layer_1" data-name="Layer 1">
      <g>
        <g>
          <rect class="cls-7" x="3.72" y="31.8" width="152.53" height="88.36"/>
          <path class="cls-7" d="m156.25,120.16V31.8H3.72v88.36h152.53Zm.72-88.72v89.08c0,.2-.16.36-.36.36H3.36c-.2,0-.36-.16-.36-.36V31.44c0-.2.16-.36.36-.36h153.25c.2,0,.36.16.36.36Z"/>
        </g>
        <g>
          <path class="cls-7" d="m131.37,9.03l-.1.09-3.86,3.41c-3.8-4.37-9.3-6.88-15.09-6.88s-11.31,2.52-15.11,6.9l-.06.05-4.01-3.41.09-.1C98.03,3.54,104.99.36,112.31.36s14.27,3.17,19.06,8.67Z"/>
          <path class="cls-7" d="m131.27,137l.03.03c-4.79,5.46-11.71,8.58-18.97,8.58s-14.29-3.17-19.1-8.71h-.01s3.94-3.37,3.94-3.37v-.08s.06-.01.06-.01c3.8,4.37,9.31,6.88,15.11,6.88s11.22-2.48,15.02-6.79l3.93,3.47Z"/>
          <path class="cls-7" d="m129.75,38.56c.06,1.21-.36,2.38-1.18,3.26-.84.91-2.03,1.42-3.26,1.42h-26.05c-1.22-.03-2.37-.53-3.2-1.42-.84-.91-1.27-2.13-1.17-3.37h-.15s2.4-25.86,2.4-25.86l.06-.05c3.8-4.38,9.31-6.9,15.11-6.9s11.29,2.52,15.09,6.88l-.06.06,2.26,25.97h.14Z"/>
          <path class="cls-7" d="m128.57,104.32c.84.91,1.27,2.13,1.18,3.36l-.14.04-2.26,25.81h0c-3.8,4.33-9.27,6.81-15.02,6.81s-11.31-2.52-15.11-6.88h-.08s-2.4-25.73-2.4-25.73l.16-.04c-.1-1.23.33-2.45,1.17-3.36.83-.91,1.98-1.41,3.2-1.43h26.05c1.23,0,2.42.52,3.26,1.43Z"/>
          <path class="cls-7" d="m68.3,9.07v.05s-4,3.41-4,3.41c-3.8-4.37-9.3-6.88-15.09-6.88s-11.31,2.52-15.11,6.9l-.06.05-4.01-3.41.09-.1C34.92,3.54,41.87.36,49.21.36s14.29,3.18,19.09,8.71Z"/>
          <path class="cls-7" d="m64.23,133.53l4.01,3.42c-4.78,5.51-11.74,8.66-19.04,8.66s-14.29-3.17-19.1-8.71h-.01s3.94-3.37,3.94-3.37v-.09s.06,0,.06,0c3.8,4.37,9.31,6.88,15.11,6.88s11.22-2.48,15.02-6.79Z"/>
          <path class="cls-7" d="m66.64,38.56c.06,1.21-.36,2.38-1.18,3.26-.84.91-2.03,1.42-3.26,1.42h-26.05c-1.22-.03-2.37-.53-3.2-1.42-.84-.91-1.27-2.13-1.17-3.37l2.25-25.86.06-.05c3.8-4.38,9.31-6.9,15.11-6.9s11.29,2.52,15.09,6.88l-.06.06,2.26,25.97h.14Z"/>
          <path class="cls-7" d="m65.45,104.32c.84.91,1.27,2.13,1.18,3.36l-.14.04-2.26,25.81h0c-3.8,4.33-9.27,6.81-15.02,6.81s-11.31-2.52-15.11-6.88h-.08l-2.25-25.73v-.04c-.09-1.23.34-2.45,1.18-3.36.83-.91,1.98-1.41,3.2-1.43h26.05c1.23,0,2.42.52,3.26,1.43Z"/>
        </g>
        <g>
          <g>
            <path class="cls-6" d="m127.6,9.03l-.1.09-3.86,3.41c-3.8-4.37-9.3-6.88-15.09-6.88s-11.31,2.52-15.11,6.9l-.06.05-4.01-3.41.09-.1C94.25,3.54,101.21.36,108.53.36s14.27,3.17,19.06,8.67Z"/>
            <path class="cls-6" d="m127.5,137l.03.03c-4.79,5.46-11.71,8.58-18.97,8.58s-14.29-3.17-19.1-8.71h-.01s3.94-3.37,3.94-3.37v-.08s.06-.01.06-.01c3.8,4.37,9.31,6.88,15.11,6.88s11.22-2.48,15.02-6.79l3.93,3.47Z"/>
            <path class="cls-5" d="m125.97,38.56c.06,1.21-.36,2.38-1.18,3.26-.84.91-2.03,1.42-3.26,1.42h-26.05c-1.22-.03-2.37-.53-3.2-1.42-.84-.91-1.27-2.13-1.17-3.37h-.15s2.4-25.86,2.4-25.86l.06-.05c3.8-4.38,9.31-6.9,15.11-6.9s11.29,2.52,15.09,6.88l-.06.06,2.26,25.97h.14Z"/>
            <path class="cls-5" d="m124.79,104.32c.84.91,1.27,2.13,1.18,3.36l-.14.04-2.26,25.81h0c-3.8,4.33-9.27,6.81-15.02,6.81s-11.31-2.52-15.11-6.88h-.08s-2.4-25.73-2.4-25.73l.16-.04c-.1-1.23.33-2.45,1.17-3.36.83-.91,1.98-1.41,3.2-1.43h26.05c1.23,0,2.42.52,3.26,1.43Z"/>
            <path class="cls-6" d="m64.52,9.07v.05s-4,3.41-4,3.41c-3.8-4.37-9.3-6.88-15.09-6.88s-11.31,2.52-15.11,6.9l-.06.05-4.01-3.41.09-.1C31.14,3.54,38.1.36,45.43.36s14.29,3.18,19.09,8.71Z"/>
            <path class="cls-6" d="m60.46,133.53l4.01,3.42c-4.78,5.51-11.74,8.66-19.04,8.66s-14.29-3.17-19.1-8.71h-.01s3.94-3.37,3.94-3.37v-.09s.06,0,.06,0c3.8,4.37,9.31,6.88,15.11,6.88s11.22-2.48,15.02-6.79Z"/>
            <path class="cls-5" d="m62.86,38.56c.06,1.21-.36,2.38-1.18,3.26-.84.91-2.03,1.42-3.26,1.42h-26.05c-1.22-.03-2.37-.53-3.2-1.42-.84-.91-1.27-2.13-1.17-3.37l2.25-25.86.06-.05c3.8-4.38,9.31-6.9,15.11-6.9s11.29,2.52,15.09,6.88l-.06.06,2.26,25.97h.14Z"/>
            <path class="cls-5" d="m61.68,104.32c.84.91,1.27,2.13,1.18,3.36l-.14.04-2.26,25.81h0c-3.8,4.33-9.27,6.81-15.02,6.81s-11.31-2.52-15.11-6.88h-.08l-2.25-25.73v-.04c-.09-1.23.34-2.45,1.18-3.36.83-.91,1.98-1.41,3.2-1.43h26.05c1.23,0,2.42.52,3.26,1.43Z"/>
          </g>
          <g>
            <path class="cls-15" d="m58.34,43.6h-25.89c-.2,0-.36-.16-.36-.36s.16-.36.36-.36h25.89c.2,0,.36.16.36.36s-.16.36-.36.36Z"/>
            <path class="cls-15" d="m58.42,43.6c-.2,0-.36-.16-.36-.36s.16-.36.36-.36c1.13,0,2.22-.48,3-1.31.76-.82,1.14-1.88,1.09-3,0-.04,0-.07.01-.11.03-.18.17-.34.35-.34.2,0,.36.12.36.32,0,.03,0,.08,0,.14.06,1.29-.4,2.53-1.28,3.48-.91.98-2.19,1.54-3.52,1.54Z"/>
            <path class="cls-15" d="m62.72,38.92c-.18,0-.34-.14-.36-.33l-2.26-25.97c-.02-.2.13-.37.33-.39.2-.01.37.13.39.33l2.26,25.97c.02.2-.13.37-.33.39-.01,0-.02,0-.03,0Z"/>
            <path class="cls-15" d="m28,38.92s-.03,0-.04,0c-.2-.02-.34-.2-.32-.4v-.11s2.26-25.85,2.26-25.85c.02-.2.19-.34.39-.33.2.02.34.19.33.39l-2.27,25.98c-.02.18-.18.32-.36.32Z"/>
            <path class="cls-15" d="m32.45,43.6c-1.41-.03-2.64-.57-3.54-1.54-.91-.98-1.37-2.31-1.27-3.65.02-.2.19-.35.39-.33.2.02.35.19.33.39-.09,1.14.3,2.27,1.07,3.1.76.82,1.81,1.28,2.94,1.31.2,0,.39.17.39.36,0,.2-.12.36-.32.36Z"/>
            <path class="cls-15" d="m30.32,12.9c-.08,0-.17-.03-.24-.09-.15-.13-.17-.36-.04-.51,3.87-4.46,9.48-7.02,15.38-7.02s11.48,2.55,15.36,7.01c.13.15.12.37-.02.51-.14.13-.36.13-.49,0h-.01c-3.76-4.33-9.16-6.79-14.83-6.79s-11.1,2.47-14.84,6.77c-.07.08-.17.12-.27.12Z"/>
            <path class="cls-15" d="m26.33,9.44c-.08,0-.17-.03-.24-.09-.15-.13-.17-.36-.04-.51C30.94,3.22,38,0,45.43,0s14.49,3.22,19.36,8.83c.13.15.11.38-.04.51-.15.13-.38.11-.51-.04C59.52,3.85,52.66.72,45.43.72s-14.09,3.13-18.83,8.6c-.07.08-.17.12-.27.12Z"/>
            <path class="cls-15" d="m30.26,12.95c-.08,0-.17-.03-.23-.09l-4.01-3.41s-.08-.08-.08-.08c-.14-.14-.14-.37,0-.51s.37-.14.51,0l.06.06,3.99,3.39c.15.13.17.36.04.51-.07.08-.17.13-.27.13Z"/>
            <path class="cls-15" d="m60.47,12.9c-.09,0-.19-.03-.25-.1-.13-.14-.16-.33-.02-.47,0,0,.08-.08.08-.08l4.01-3.41c.15-.13.38-.11.51.04.13.15.11.38-.04.51l-4.01,3.41c-.08.06-.18.1-.28.1Z"/>
            <path class="cls-15" d="m58.34,103.24h-25.89c-.2,0-.36-.16-.36-.36s.16-.36.36-.36h25.89c.2,0,.36.16.36.36s-.16.36-.36.36Z"/>
            <path class="cls-15" d="m62.86,108.04s-.02,0-.03,0c-.2-.01-.35-.19-.33-.38.08-1.13-.31-2.26-1.09-3.09-.77-.84-1.86-1.32-3-1.32-.2,0-.36-.16-.36-.36s.16-.36.36-.36c1.34,0,2.62.57,3.52,1.55.91.97,1.37,2.3,1.28,3.63-.01.19-.17.33-.36.33Z"/>
            <path class="cls-15" d="m60.46,133.88s-.02,0-.03,0c-.2-.02-.34-.19-.33-.39l2.26-25.81c.02-.2.21-.35.39-.33.2.02.34.19.33.39l-2.26,25.81c-.02.19-.17.33-.36.33Z"/>
            <path class="cls-15" d="m30.24,133.85c-.17,0-.31-.09-.33-.27v-.09s-2.27-25.75-2.27-25.75c-.02-.2.13-.37.33-.39.2-.02.37.13.39.33l2.25,25.73c.02.19-.12.41-.31.43-.02,0-.04,0-.06,0Z"/>
            <path class="cls-15" d="m28.01,108.04c-.19,0-.34-.14-.36-.33-.11-1.33.35-2.65,1.27-3.63.89-.97,2.12-1.52,3.45-1.55l.08.36v.36h-.08c-1.13.02-2.17.49-2.93,1.32-.78.83-1.17,1.96-1.08,3.09.02.2-.13.37-.33.39,0,0-.02,0-.03,0Z"/>
            <path class="cls-15" d="m45.43,140.69c-5.9,0-11.51-2.55-15.38-7.01-.13-.15-.11-.38.04-.51.15-.13.38-.12.51.04,3.74,4.3,9.15,6.76,14.84,6.76s10.98-2.42,14.71-6.63c.01-.03.03-.05.05-.07.14-.14.41-.18.55-.04.14.14.18.33.04.47h-.01s-.03.05-.05.07c-3.87,4.4-9.45,6.92-15.29,6.92Z"/>
            <path class="cls-15" d="m45.43,145.97c-7.44,0-14.5-3.22-19.37-8.83-.13-.15-.11-.38.04-.51.15-.13.38-.12.51.04,4.74,5.45,11.6,8.58,18.83,8.58s14.06-3.11,18.77-8.53c.03-.03.07-.06.11-.08h0c.14-.08.33-.07.44.04.14.14.16.34.02.48-.01.02-.03.04-.05.05-4.84,5.57-11.87,8.76-19.29,8.76Z"/>
            <path class="cls-15" d="m26.18,137.36c-.1,0-.21-.04-.28-.13-.13-.15-.1-.38.05-.51l.14-.11,3.93-3.35c.15-.13.38-.11.51.04.13.15.11.38-.04.51l-4.08,3.48c-.07.05-.15.08-.23.08Z"/>
            <path class="cls-15" d="m64.5,137.35c-.06,0-.13-.02-.19-.07l-.06-.05-4.02-3.43c-.15-.13-.17-.36-.04-.51.13-.15.36-.17.51-.04l4.01,3.42c.15.13.2.38.08.53-.08.09-.18.15-.28.15Z"/>
            <path class="cls-15" d="m121.46,43.6h-25.89c-.2,0-.36-.16-.36-.36s.16-.36.36-.36h25.89c.2,0,.36.16.36.36s-.16.36-.36.36Z"/>
            <path class="cls-15" d="m121.53,43.6c-.2,0-.36-.16-.36-.36s.16-.36.36-.36c1.13,0,2.22-.48,3-1.31.76-.82,1.14-1.88,1.09-3,0-.04,0-.07.01-.11.03-.18.17-.34.35-.34.2,0,.36.12.36.32,0,.03,0,.08,0,.14.06,1.29-.4,2.53-1.28,3.48-.91.98-2.19,1.54-3.52,1.54Z"/>
            <path class="cls-15" d="m125.83,38.92c-.18,0-.34-.14-.36-.33l-2.26-25.97c-.02-.2.13-.37.33-.39.2-.01.37.13.39.33l2.26,25.97c.02.2-.13.37-.33.39-.01,0-.02,0-.03,0Z"/>
            <path class="cls-15" d="m90.96,38.92s-.02,0-.04,0c-.2-.02-.34-.2-.32-.39v-.13s2.42-25.84,2.42-25.84c.02-.2.2-.34.39-.33.2.02.34.19.33.39l-2.42,25.97c-.02.19-.17.33-.36.33Z"/>
            <path class="cls-15" d="m95.56,43.6c-1.41-.03-2.64-.57-3.54-1.54-.91-.98-1.37-2.31-1.27-3.65.02-.2.19-.35.39-.33.2.02.35.19.33.39-.09,1.14.3,2.27,1.07,3.1.76.82,1.81,1.28,2.94,1.31.2,0,.39.17.39.36s-.12.36-.32.36Z"/>
            <path class="cls-15" d="m93.44,12.9c-.08,0-.17-.03-.24-.09-.15-.13-.17-.36-.04-.51,3.87-4.46,9.48-7.02,15.38-7.02s11.48,2.55,15.36,7.01c.13.15.12.37-.02.51-.14.13-.36.13-.49,0h-.01c-3.76-4.33-9.16-6.79-14.83-6.79s-11.1,2.47-14.84,6.77c-.07.08-.17.12-.27.12Z"/>
            <path class="cls-15" d="m89.45,9.44c-.08,0-.17-.03-.24-.09-.15-.13-.17-.36-.04-.51,4.88-5.62,11.94-8.84,19.36-8.84s14.46,3.2,19.33,8.79c.13.15.13.39,0,.52-.14.13-.34.15-.48.01,0,0-.01-.01-.01-.01-4.77-5.47-11.62-8.59-18.83-8.59s-14.07,3.13-18.82,8.6c-.07.08-.17.12-.27.12Z"/>
            <path class="cls-15" d="m93.37,12.95c-.08,0-.17-.03-.23-.09l-4.01-3.41s-.08-.08-.08-.08c-.14-.14-.14-.37,0-.51.14-.14.37-.14.51,0l.06.06,3.99,3.39c.15.13.17.36.04.51-.07.08-.17.13-.27.13Z"/>
            <path class="cls-15" d="m123.59,12.9c-.09,0-.18-.03-.25-.1-.13-.14-.16-.33-.02-.47,0,0,.07-.07.08-.08l3.86-3.41c.15-.13.38-.12.51.03.13.15.12.38-.03.51l-3.86,3.41c-.08.07-.18.11-.29.11Z"/>
            <path class="cls-15" d="m121.46,103.24h-25.89c-.2,0-.36-.16-.36-.36s.16-.36.36-.36h25.89c.2,0,.36.16.36.36s-.16.36-.36.36Z"/>
            <path class="cls-15" d="m125.97,108.04s-.02,0-.03,0c-.2-.01-.35-.19-.33-.38.08-1.13-.32-2.26-1.09-3.09-.77-.84-1.86-1.32-3-1.32-.2,0-.36-.16-.36-.36s.16-.36.36-.36c1.34,0,2.62.57,3.52,1.55.91.97,1.37,2.3,1.28,3.63-.01.19-.17.33-.36.33Z"/>
            <path class="cls-15" d="m123.57,133.88s-.02,0-.03,0c-.2-.02-.34-.19-.33-.39l2.26-25.81c.02-.2.21-.35.39-.33.2.02.34.19.33.39l-2.26,25.81c-.02.19-.17.33-.36.33Z"/>
            <path class="cls-15" d="m93.35,133.85c-.17,0-.31-.09-.33-.26v-.08s-2.42-25.77-2.42-25.77c-.02-.2.13-.37.32-.39.21-.01.37.13.39.33l2.4,25.74c.02.19-.11.4-.31.43-.02,0-.04,0-.06,0Z"/>
            <path class="cls-15" d="m91.12,108.04c-.19,0-.34-.14-.36-.33-.11-1.33.35-2.65,1.27-3.63.89-.97,2.12-1.52,3.45-1.55l.08.36v.36h-.08c-1.13.02-2.17.49-2.93,1.32-.78.83-1.17,1.96-1.08,3.09.02.2-.13.37-.33.39,0,0-.02,0-.03,0Z"/>
            <path class="cls-15" d="m108.55,140.69c-5.9,0-11.51-2.55-15.38-7.01-.13-.15-.11-.38.04-.51.15-.13.38-.12.51.04,3.74,4.3,9.15,6.76,14.84,6.76s10.98-2.42,14.71-6.63c.01-.03.03-.05.05-.07l.41.25h.21c0,.06-.01.12-.04.17h0s0,0,0,0c-.01.03-.03.05-.05.08-3.87,4.4-9.44,6.92-15.29,6.92Z"/>
            <path class="cls-15" d="m108.55,145.97c-7.44,0-14.5-3.22-19.37-8.83-.13-.15-.11-.38.04-.51.15-.13.38-.12.51.04,4.74,5.45,11.6,8.58,18.83,8.58s13.98-3.08,18.7-8.46l.13-.14c.14-.14.37-.14.51,0,.14.14.14.37,0,.51l-.12.13c-4.84,5.51-11.85,8.69-19.23,8.69Z"/>
            <path class="cls-15" d="m89.3,137.36c-.1,0-.21-.05-.28-.13-.13-.15-.1-.38.05-.51l.14-.11,3.93-3.35c.15-.13.38-.11.51.04.13.15.11.38-.04.51l-4.08,3.48c-.07.05-.15.08-.23.08Z"/>
            <path class="cls-15" d="m127.5,137.36c-.08,0-.17-.03-.24-.09l-3.93-3.47c-.15-.13-.16-.36-.03-.51.13-.15.36-.16.51-.03l3.93,3.47c.15.13.16.36.03.51-.07.08-.17.12-.27.12Z"/>
          </g>
        </g>
        <g class="cls-13">
          <rect class="cls-4" x="29.37" y="117.67" width="32.2" height="3.86"/>
        </g>
        <g class="cls-8">
          <rect class="cls-3" x="92.41" y="117.67" width="32.2" height="3.86"/>
        </g>
        <g>
          <rect class="cls-6" x=".72" y="28.8" width="152.53" height="88.36"/>
          <path class="cls-15" d="m153.25,117.16V28.8H.72v88.36h152.53Zm.72-88.72v89.08c0,.2-.16.36-.36.36H.36c-.2,0-.36-.16-.36-.36V28.44c0-.2.16-.36.36-.36h153.25c.2,0,.36.16.36.36Z"/>
        </g>
      </g>
    </g>
  </g>
</svg>