<?xml version="1.0" encoding="UTF-8"?>
<svg id="Layer_1" data-name="Layer 1" xmlns="http://www.w3.org/2000/svg" viewBox="0 0 265.66 753.54">
  <defs>
    <style>
      .cls-1 {
        fill: #e6e8f5;
      }

      .cls-2 {
        fill: #b38556;
      }

      .cls-3 {
        fill: #658dc1;
      }

      .cls-4 {
        fill: #d5ae82;
      }

      .cls-5 {
        fill: #76a1ce;
      }

      .cls-6 {
        fill: #edf1f9;
      }

      .cls-7 {
        fill: #c99762;
      }

      .cls-8 {
        fill: #d9def0;
      }

      .cls-9 {
        fill: #c3996c;
      }

      .cls-10 {
        fill: #cbd2eb;
      }
    </style>
  </defs>
  <g>
    <rect class="cls-6" x="11.57" y="67.77" width="241.53" height="167.15"/>
    <rect class="cls-1" x="11.57" y="66.24" width="31.04" height="170.21"/>
    <rect class="cls-8" x="11.57" y="230.8" width="241.53" height="5.57"/>
    <rect class="cls-8" x="11.57" y="66.33" width="241.53" height="5.57"/>
    <g>
      <path class="cls-3" d="m56.5,213.96h188.05c1.56,0,2.83,1.27,2.83,2.83v19.58c0,1.56-1.27,2.83-2.83,2.83H56.5c-1.56,0-2.83-1.27-2.83-2.83v-19.58c0-1.56,1.27-2.83,2.83-2.83Z"/>
      <rect class="cls-3" x="53.67" y="63.33" width="193.72" height="24.75" rx="2.83" ry="2.83"/>
      <rect class="cls-5" x="53.67" y="69.12" width="193.72" height="164.47" rx="2.83" ry="2.83"/>
    </g>
    <rect class="cls-9" x="253.1" y="64.02" width="8.37" height="174.61" rx="2.83" ry="2.83"/>
    <path class="cls-9" d="m6.73,64.02h2.71c1.56,0,2.83,1.27,2.83,2.83v168.94c0,1.56-1.27,2.83-2.83,2.83h-2.71c-1.56,0-2.83-1.27-2.83-2.83V66.85c0-1.56,1.27-2.83,2.83-2.83Z"/>
    <g>
      <path class="cls-3" d="m39.55,153.67c4.6,0,8.33,3.36,8.33,7.5v58.15c0,4.14-3.73,7.5-8.33,7.5h-14.46c-4.6,0-8.33-3.36-8.33-7.5v-58.15c0-4.15,3.73-7.5,8.33-7.5h14.46Z"/>
      <path class="cls-5" d="m33.58,157.63c2.99,0,5.41,3,5.41,6.69v51.85c0,3.69-2.42,6.69-5.41,6.69h-9.38c-2.99,0-5.41-3-5.41-6.69v-51.85c0-3.7,2.42-6.69,5.41-6.69h9.38Z"/>
      <path class="cls-10" d="m59.92,163.65c3.34,0,6.06,2.44,6.06,5.45v42.28c0,3.01-2.71,5.45-6.06,5.45h-10.51c-3.35,0-6.06-2.44-6.06-5.45v-42.28c0-3.01,2.71-5.45,6.06-5.45h10.51Z"/>
      <path class="cls-6" d="m55.58,166.53c2.17,0,3.93,2.18,3.93,4.86v37.7c0,2.69-1.76,4.87-3.93,4.87h-6.82c-2.17,0-3.93-2.18-3.93-4.87v-37.7c0-2.68,1.76-4.86,3.93-4.86h6.82Z"/>
    </g>
    <g>
      <path class="cls-3" d="m39.55,75.67c4.6,0,8.33,3.36,8.33,7.5v58.15c0,4.14-3.73,7.5-8.33,7.5h-14.46c-4.6,0-8.33-3.36-8.33-7.5v-58.15c0-4.14,3.73-7.5,8.33-7.5h14.46Z"/>
      <path class="cls-5" d="m33.58,79.63c2.99,0,5.41,3,5.41,6.69v51.85c0,3.7-2.42,6.69-5.41,6.69h-9.38c-2.98,0-5.41-2.99-5.41-6.69v-51.85c0-3.69,2.42-6.69,5.41-6.69h9.38Z"/>
      <path class="cls-10" d="m59.92,85.65c3.34,0,6.06,2.44,6.06,5.45v42.28c0,3.01-2.71,5.45-6.06,5.45h-10.51c-3.35,0-6.06-2.44-6.06-5.45v-42.28c0-3.01,2.71-5.45,6.06-5.45h10.51Z"/>
      <path class="cls-6" d="m55.59,88.54c2.17,0,3.93,2.18,3.93,4.86v37.7c0,2.68-1.76,4.86-3.93,4.86h-6.82c-2.17,0-3.93-2.18-3.93-4.86v-37.7c0-2.69,1.76-4.86,3.93-4.86h6.82Z"/>
    </g>
  </g>
  <g>
    <rect class="cls-6" x="16.45" y="519.29" width="241.53" height="167.15"/>
    <rect class="cls-1" x="226.95" y="517.76" width="31.04" height="170.21"/>
    <rect class="cls-8" x="16.45" y="517.84" width="241.53" height="5.57"/>
    <rect class="cls-8" x="16.45" y="682.32" width="241.53" height="5.57"/>
    <g>
      <rect class="cls-3" x="22.17" y="515.01" width="193.72" height="25.25" rx="2.83" ry="2.83"/>
      <rect class="cls-3" x="22.17" y="666.13" width="193.72" height="24.75" rx="2.83" ry="2.83"/>
      <path class="cls-5" d="m25,520.63h188.05c1.56,0,2.83,1.27,2.83,2.83v158.8c0,1.56-1.27,2.83-2.83,2.83H25c-1.56,0-2.83-1.27-2.83-2.83v-158.8c0-1.56,1.27-2.83,2.83-2.83Z"/>
    </g>
    <path class="cls-9" d="m10.92,515.59h2.7c1.56,0,2.83,1.27,2.83,2.83v168.94c0,1.56-1.27,2.83-2.83,2.83h-2.7c-1.56,0-2.83-1.27-2.83-2.83v-168.94c0-1.56,1.27-2.83,2.83-2.83Z"/>
    <rect class="cls-9" x="257.29" y="515.59" width="8.38" height="174.61" rx="2.83" ry="2.83"/>
    <g>
      <path class="cls-3" d="m230.01,600.55c-4.6,0-8.33-3.36-8.33-7.5v-58.15c0-4.14,3.73-7.5,8.33-7.5h14.46c4.6,0,8.33,3.36,8.33,7.5v58.15c0,4.15-3.73,7.5-8.33,7.5h-14.46Z"/>
      <path class="cls-5" d="m235.98,596.59c-2.99,0-5.41-3-5.41-6.69v-51.85c0-3.69,2.42-6.69,5.41-6.69h9.38c2.99,0,5.41,3,5.41,6.69v51.85c0,3.7-2.42,6.69-5.41,6.69h-9.38Z"/>
      <path class="cls-10" d="m209.63,590.57c-3.34,0-6.06-2.44-6.06-5.45v-42.28c0-3.01,2.71-5.45,6.06-5.45h10.51c3.35,0,6.06,2.44,6.06,5.45v42.28c0,3.01-2.71,5.45-6.06,5.45h-10.51Z"/>
      <path class="cls-6" d="m213.97,587.68c-2.17,0-3.93-2.18-3.93-4.86v-37.7c0-2.69,1.76-4.87,3.93-4.87h6.82c2.17,0,3.93,2.18,3.93,4.87v37.7c0,2.68-1.76,4.86-3.93,4.86h-6.82Z"/>
    </g>
    <g>
      <path class="cls-3" d="m230.01,678.55c-4.6,0-8.33-3.36-8.33-7.5v-58.15c0-4.14,3.73-7.5,8.33-7.5h14.46c4.6,0,8.33,3.36,8.33,7.5v58.15c0,4.14-3.73,7.5-8.33,7.5h-14.46Z"/>
      <path class="cls-5" d="m235.98,674.58c-2.99,0-5.41-3-5.41-6.69v-51.85c0-3.7,2.42-6.69,5.41-6.69h9.38c2.98,0,5.41,2.99,5.41,6.69v51.85c0,3.69-2.42,6.69-5.41,6.69h-9.38Z"/>
      <path class="cls-10" d="m209.63,668.56c-3.34,0-6.06-2.44-6.06-5.45v-42.28c0-3.01,2.71-5.45,6.06-5.45h10.51c3.35,0,6.06,2.44,6.06,5.45v42.28c0,3.01-2.71,5.45-6.06,5.45h-10.51Z"/>
      <path class="cls-6" d="m213.97,665.68c-2.17,0-3.93-2.18-3.93-4.86v-37.7c0-2.68,1.76-4.86,3.93-4.86h6.82c2.17,0,3.93,2.18,3.93,4.86v37.7c0,2.69-1.76,4.86-3.93,4.86h-6.82Z"/>
    </g>
  </g>
  <g>
    <polygon class="cls-7" points="64.63 58.19 64.63 11.05 52.93 2.07 52.93 53.6 64.63 58.19"/>
    <polygon class="cls-2" points="64.63 58.19 10.07 58.19 1.91 53.83 52.93 53.6 64.63 58.19"/>
    <rect class="cls-4" x="0" y="0" width="55.67" height="55.67" rx="2.83" ry="2.83"/>
  </g>
  <g>
    <polygon class="cls-7" points="193.97 445.88 193.97 493.02 205.68 502 205.68 450.46 193.97 445.88"/>
    <polygon class="cls-2" points="193.97 445.88 248.53 445.88 256.7 450.24 205.68 450.46 193.97 445.88"/>
    <rect class="cls-4" x="202.94" y="448.4" width="55.67" height="55.67" rx="2.83" ry="2.83"/>
  </g>
  <g>
    <polygon class="cls-7" points="198.45 695.35 198.45 742.49 210.16 751.47 210.16 699.94 198.45 695.35"/>
    <polygon class="cls-2" points="198.45 695.35 253.02 695.35 261.18 699.71 210.16 699.94 198.45 695.35"/>
    <rect class="cls-4" x="207.42" y="697.87" width="55.67" height="55.67" rx="2.83" ry="2.83"/>
  </g>
  <g>
    <polygon class="cls-7" points="65.58 307.22 65.58 260.08 53.88 251.1 53.88 302.64 65.58 307.22"/>
    <polygon class="cls-2" points="65.58 307.22 11.02 307.22 2.86 302.86 53.88 302.64 65.58 307.22"/>
    <rect class="cls-4" x=".95" y="249.03" width="55.67" height="55.67" rx="2.84" ry="2.84"/>
  </g>
</svg>