<?xml version="1.0" encoding="UTF-8"?>
<svg xmlns="http://www.w3.org/2000/svg" xmlns:xlink="http://www.w3.org/1999/xlink" viewBox="0 0 199.084 207.749">
  <defs>
    <style>
      .cls-1, .cls-2 {
        fill: #fff;
      }

      .cls-3 {
        fill: #7896c1;
      }

      .cls-4, .cls-2, .cls-5, .cls-6, .cls-7, .cls-8, .cls-9, .cls-10, .cls-11, .cls-12, .cls-13 {
        fill-rule: evenodd;
      }

      .cls-4, .cls-14 {
        fill: #d0d2d3;
      }

      .cls-15, .cls-6 {
        fill: #ddd3cc;
      }

      .cls-15, .cls-6, .cls-13 {
        mix-blend-mode: multiply;
      }

      .cls-16 {
        fill: #a82d24;
      }

      .cls-17 {
        isolation: isolate;
      }

      .cls-18 {
        fill: #c95b5b;
      }

      .cls-19, .cls-12 {
        fill: #87a2dd;
      }

      .cls-5 {
        fill: #6d6e70;
      }

      .cls-20 {
        fill: #c4d6f7;
      }

      .cls-7 {
        fill: #527fbf;
      }

      .cls-21 {
        fill: #e27171;
      }

      .cls-22 {
        fill: #050200;
      }

      .cls-8 {
        fill: #79a85e;
      }

      .cls-23 {
        fill: #4c4e4d;
      }

      .cls-24 {
        fill: #7488a5;
      }

      .cls-25 {
        fill: #01090c;
      }

      .cls-26 {
        fill: #5a7eb7;
      }

      .cls-9 {
        fill: #6c9556;
      }

      .cls-10 {
        fill: #e8f1f9;
        opacity: .5;
      }

      .cls-11 {
        fill: #cbdbf7;
      }

      .cls-27 {
        fill: #3a4f19;
      }

      .cls-28 {
        fill: url(#linear-gradient);
      }

      .cls-13 {
        fill: #c9ccd3;
      }
    </style>
    <linearGradient id="linear-gradient" x1="49.626" y1="102.076" x2="132.059" y2="102.076" gradientUnits="userSpaceOnUse">
      <stop offset="0" stop-color="#de9ea3"/>
      <stop offset=".976" stop-color="#cf4561"/>
    </linearGradient>
  </defs>
  <g class="cls-17">
    <g id="Layer_1" data-name="Layer 1">
      <path class="cls-6" d="m148.42,55.712H14.473c-1.368,0-2.488,1.053-2.488,2.336v103.521c0,1.284,1.12,2.335,2.488,2.335h133.947c2.642,0,4.795-2.022,4.795-4.502V60.215c0-2.48-2.154-4.503-4.795-4.503Z"/>
      <path class="cls-6" d="m143.051,51.678H9.104c-1.368,0-2.488,1.053-2.488,2.336v103.521c0,1.284,1.12,2.335,2.488,2.335h133.947c2.642,0,4.795-2.022,4.795-4.502V56.181c0-2.48-2.154-4.503-4.795-4.503Z"/>
      <path class="cls-15" d="m34.863,14.704H15.308c-4.484,0-5.973,1.4-5.973,5.61v18.366c0,4.21,1.489,5.61,5.973,5.61h19.556c4.484,0,5.974-1.399,5.974-5.61v-18.366c0-4.21-1.489-5.61-5.974-5.61Z"/>
      <path class="cls-15" d="m32.984,12.309H13.428c-4.484,0-5.973,1.4-5.973,5.61v18.366c0,4.21,1.489,5.61,5.973,5.61h19.556c4.484,0,5.974-1.399,5.974-5.61v-18.366c0-4.21-1.489-5.61-5.974-5.61Z"/>
      <g>
        <g>
          <rect class="cls-1" x="195.05" y="200.535" width="3.711" height="3.487"/>
          <path class="cls-22" d="m194.722,200.232h4.362v4.095h-4.362v-4.095Zm3.714.611h-3.063v2.876h3.063v-2.876Z"/>
        </g>
        <g>
          <rect class="cls-1" x="148.541" y="200.535" width="3.712" height="3.487"/>
          <path class="cls-22" d="m148.218,200.232h4.36l.002,4.095h-4.362v-4.095Zm3.711.611h-3.062v2.876h3.064l-.002-2.876Z"/>
        </g>
        <g>
          <path class="cls-25" d="m159.317,164.154c9.042,1.384,17.532,5.591,23.909,11.852,6.938,6.812,10.795,15.411,11.157,24.871l-.214.008c-.791-20.599-18.147-33.967-34.888-36.529l.036-.201Z"/>
          <polygon class="cls-25" points="156.17 163.894 160.352 166.117 159.537 164.297 160.814 162.731 156.17 163.894"/>
        </g>
        <g>
          <path class="cls-1" d="m153.652,163.494v38.607h1.771v-38.607h-1.771Z"/>
          <path class="cls-22" d="m153.111,162.986h2.852v39.622h-2.852v-39.622Zm1.773,1.015h-.693v37.593h.693v-37.593Z"/>
        </g>
      </g>
      <path class="cls-5" d="m8.798,47.98h128.883c2.641,0,4.795,2.023,4.795,4.503v99.187c0,2.48-2.153,4.502-4.795,4.502H8.798V47.98Z"/>
      <rect class="cls-23" x="8.798" y="47.98" width="5.006" height="108.192"/>
      <rect class="cls-23" x="49.626" y="47.98" width="83.921" height="108.192"/>
      <path class="cls-2" d="m11.286,50.316h126.395c1.268,0,2.308.976,2.308,2.167v99.187c0,1.191-1.039,2.167-2.308,2.167H11.286V50.316Z"/>
      <rect class="cls-14" x="11.286" y="50.316" width="2.519" height="103.521"/>
      <rect class="cls-14" x="47.262" y="50.316" width="2.519" height="103.521"/>
      <rect class="cls-14" x="49.626" y="50.316" width="83.921" height="103.521"/>
      <path class="cls-12" d="m1.246,153.837c0,1.284,1.12,2.335,2.488,2.335h7.552V47.98H3.734c-1.368,0-2.488,1.053-2.488,2.336v103.521Z"/>
      <rect class="cls-26" x="8.798" y="47.98" width="2.488" height="108.192"/>
      <g>
        <rect class="cls-24" x="49.626" y="47.98" width="82.433" height="108.192"/>
        <rect class="cls-28" x="49.626" y="50.316" width="82.433" height="103.521"/>
        <rect class="cls-26" x="48.704" y="47.98" width="13.214" height="108.192"/>
        <rect class="cls-3" x="48.704" y="47.98" width="11.366" height="108.192"/>
        <rect class="cls-20" x="48.704" y="50.316" width="11.366" height="103.521"/>
      </g>
      <g>
        <path class="cls-4" d="m43.985,116.697c-6.077-.413-13.838-4.864-24.382-4.537-.246,7.143-6.655,22.176-6.938,32.891,9.103,3.262,18.595,2.739,24.383,4.537.952-6.866,8.422-24.11,6.937-32.891Z"/>
        <g>
          <path class="cls-11" d="m15.592,142.968c9.102,3.262,18.594,2.738,24.382,4.537.952-6.866,8.423-24.11,6.937-32.892-6.077-.412-13.837-4.863-24.382-4.536-.245,7.142-6.655,22.175-6.937,32.891Z"/>
          <path class="cls-7" d="m16.98,141.733c8.313,2.979,16.984,2.502,22.273,4.143.868-6.271,7.69-22.022,6.336-30.043-5.554-.377-12.64-4.443-22.271-4.143-.228,6.524-6.081,20.255-6.339,30.043Z"/>
          <path class="cls-12" d="m18.744,140.163c7.313,2.621,14.94,2.201,19.59,3.645.765-5.514,6.766-19.369,5.577-26.425-4.886-.331-11.123-3.907-19.592-3.646-.2,5.741-5.347,17.819-5.575,26.427Z"/>
        </g>
      </g>
      <g>
        <path class="cls-4" d="m38.862,62.097c-5.906,1.407-14.765-.521-24.662,2.91,2.163,6.852,1.126,23.016,4.454,33.268,9.733.402,18.567-2.904,24.663-2.91-1.4-6.798-.099-25.375-4.455-33.268Z"/>
        <g>
          <path class="cls-11" d="m20.733,95.432c9.732.402,18.565-2.904,24.662-2.91-1.401-6.798-.098-25.375-4.455-33.269-5.906,1.408-14.764-.52-24.662,2.912,2.165,6.851,1.126,23.014,4.455,33.267Z"/>
          <path class="cls-7" d="m21.636,93.849c8.89.367,16.958-2.653,22.529-2.66-1.281-6.207-.092-23.175-4.069-30.388-5.398,1.286-13.487-.475-22.526,2.66,1.974,6.259,1.028,21.023,4.067,30.388Z"/>
          <path class="cls-12" d="m22.783,91.837c7.819.323,14.918-2.333,19.816-2.339-1.125-5.459-.08-20.385-3.576-26.729-4.749,1.132-11.867-.417-19.818,2.338,1.737,5.507.905,18.493,3.578,26.73Z"/>
        </g>
      </g>
      <polygon class="cls-10" points="140.418 154.251 140.418 49.706 70.147 153.971 140.418 154.251"/>
      <polygon class="cls-13" points="4.928 49.706 4.928 154.251 75.198 49.986 4.928 49.706"/>
      <g>
        <path class="cls-26" d="m35.647,34.191c0,4.21-1.489,5.61-5.973,5.61H10.118c-4.484,0-5.973-1.399-5.973-5.61V15.826c0-4.21,1.489-5.61,5.973-5.61h19.556c4.484,0,5.973,1.4,5.973,5.61v18.366Z"/>
        <path class="cls-19" d="m33.527,33.228c0,3.644-.998,4.584-4.881,4.584H11.144c-3.882,0-4.881-.94-4.881-4.584v-16.438c0-3.645.998-4.584,4.881-4.584h17.502c3.882,0,4.881.94,4.881,4.584v16.438Z"/>
        <path class="cls-20" d="m30.271,31.744c0,2.777-.247,3.007-3.204,3.007h-14.347c-2.953,0-3.2-.23-3.2-3.007v-13.471c0-2.777.246-3.007,3.2-3.007h14.347c2.956,0,3.204.23,3.204,3.007v13.471Z"/>
      </g>
      <path class="cls-15" d="m33.432,166.985H13.876c-4.484,0-5.973,1.4-5.973,5.61v18.366c0,4.21,1.489,5.61,5.973,5.61h19.556c4.484,0,5.973-1.399,5.973-5.61v-18.366c0-4.21-1.489-5.61-5.973-5.61Z"/>
      <path class="cls-15" d="m31.553,164.59H11.997c-4.484,0-5.973,1.4-5.973,5.61v18.366c0,4.21,1.489,5.61,5.973,5.61h19.556c4.484,0,5.973-1.399,5.973-5.61v-18.366c0-4.21-1.489-5.61-5.973-5.61Z"/>
      <g>
        <path class="cls-16" d="m35.647,185.792c0,4.21-1.489,5.61-5.973,5.61H10.118c-4.484,0-5.973-1.399-5.973-5.61v-18.366c0-4.21,1.489-5.61,5.973-5.61h19.556c4.484,0,5.973,1.4,5.973,5.61v18.366Z"/>
        <path class="cls-18" d="m33.527,184.829c0,3.644-.998,4.584-4.881,4.584H11.144c-3.882,0-4.881-.94-4.881-4.584v-16.438c0-3.645.998-4.584,4.881-4.584h17.502c3.882,0,4.881.94,4.881,4.584v16.438Z"/>
        <path class="cls-21" d="m30.271,183.345c0,2.777-.247,3.007-3.204,3.007h-14.347c-2.953,0-3.2-.23-3.2-3.007v-13.471c0-2.777.246-3.007,3.2-3.007h14.347c2.956,0,3.204.23,3.204,3.007v13.471Z"/>
      </g>
      <g>
        <polygon class="cls-15" points="0 198.588 140.873 198.588 151.593 200.373 0 200.373 0 198.588"/>
        <polygon class="cls-15" points="0 199.574 140.873 199.574 151.593 200.373 0 200.373 0 199.574"/>
      </g>
      <g>
        <rect class="cls-15" x=".221" y="0" width="10.204" height="207.749"/>
        <rect class="cls-15" x=".221" y="0" width="4.566" height="207.749"/>
      </g>
      <g>
        <path class="cls-6" d="m87.111,191.758c.447-.158.823-.326,1.094-.496-.144-.178-.357-.375-.598-.579.1-.565-.08-1.055-.516-1.406,1.108-.738,1.094-2.127-.419-3.63-1.396-.792-.929-1.945-.677-2.842.041-.087.091-.18.119-.259-.015-.005-.037-.006-.052-.011.139-.633.034-1.084-1.236-1.072.016-1.696-.696-2.689-1.753-2.831.046-.096.099-.194.13-.28-.096-.025-.215-.041-.327-.06,1.058-1.692-1.88-1.701-2.462-3.406.03-2.926-3.398-1.96-4.457-1.733-1.181-1.047-2.304-1.343-3.128-1.011-.502-1.561-2.058-1.841-3.763-.326-.048-.042-.092-.066-.142-.103-1.688.051-1.968-2.01-3.379-1.211-.174-.208-.344-.378-.493-.484-.106.147-.21.361-.306.614-1.941-1.386-3.408.881-3.655,1.759-1.539-.013-2.454.543-2.645,1.366-1.239,1.601-3.119-.087-3.097,2.145-1.653-.014-2.601.622-2.686,1.551-1.086-.022-1.845.892-1.828,2.536-.475-.004-.782.07-.989.193-.359.093-.667.203-.865.319.11.149.294.32.516.499.045.816.555,1.948-.297,2.693-1.396,1.389-1.354,2.668-.243,3.296.065.438.332.924.86,1.413-.479.495-.862,1.011-.995,1.361.041.012.093.019.14.028-.112.607.188,1.123.875,1.415-.355.774-.042,1.83,1.075,2.941-2.225,2.211-1.272,4.214,1.847,4.186-.03,2.889,2.047,3.786,4.364,1.802-.68,1.234.096,2.283,2.114,2.336.069,2.337,1.747,2.937,3.424,1.332,1.645,1.577,3.282,1.016,3.408-1.216.136.03.307.031.462.049.164.278.329.509.49.702.279,1.579,1.659,1.942,3.174.6,1.705,1.515,3.253.866,3.228-1.257.326.004.609-.032.867-.087.061,1.884,2.663,1.397,3.059,1.041,1.622,1.438,3.357-.617,3.071-1.196-1.202-3.068,2.805-1.36,1.272-2.886.184-.183.335-.364.456-.541.827.381,1.599.647,2.143.713.028-.37-.031-.877-.149-1.441.503-.4.814-1.139.802-2.188-1.454-2.074,3.599-1.744,1.633-3.699.217-.216.387-.427.536-.636Z"/>
        <path class="cls-6" d="m83.347,188.96c.447-.158.823-.325,1.094-.496-.144-.177-.357-.375-.599-.579.101-.565-.079-1.055-.515-1.405,1.108-.739,1.094-2.127-.42-3.631-1.396-.792-.93-1.945-.678-2.841.042-.088.092-.181.121-.26-.016-.005-.038-.006-.053-.011.14-.633.035-1.084-1.235-1.072.016-1.696-.696-2.689-1.753-2.831.046-.095.099-.194.129-.28-.094-.025-.214-.041-.327-.06,1.059-1.692-1.879-1.701-2.461-3.407.03-2.926-3.399-1.96-4.457-1.732-1.181-1.048-2.305-1.344-3.129-1.012-.501-1.561-2.058-1.841-3.762-.326-.048-.042-.093-.065-.142-.103-1.688.052-1.968-2.01-3.379-1.211-.175-.208-.344-.378-.493-.484-.107.147-.211.361-.307.614-1.94-1.386-3.407.881-3.655,1.759-1.537-.013-2.453.543-2.644,1.366-1.241,1.602-3.12-.086-3.097,2.145-1.653-.014-2.601.622-2.686,1.551-1.087-.022-1.846.892-1.828,2.537-.475-.005-.782.069-.989.192-.359.094-.667.203-.865.319.11.149.293.32.516.499.044.817.555,1.948-.297,2.693-1.396,1.389-1.354,2.668-.243,3.296.064.438.332.924.859,1.413-.478.494-.862,1.011-.994,1.361.041.012.093.019.139.028-.111.607.189,1.123.876,1.415-.356.775-.042,1.83,1.075,2.941-2.226,2.211-1.272,4.214,1.846,4.186-.03,2.889,2.048,3.786,4.365,1.802-.681,1.234.096,2.283,2.114,2.337.069,2.336,1.747,2.936,3.423,1.332,1.646,1.577,3.284,1.015,3.409-1.217.136.03.307.031.46.049.165.278.331.509.491.702.279,1.579,1.659,1.942,3.174.6,1.705,1.514,3.253.866,3.228-1.257.325.004.608-.032.867-.087.06,1.884,2.663,1.398,3.059,1.041,1.621,1.439,3.357-.617,3.07-1.196-1.201-3.068,2.807-1.36,1.273-2.886.185-.183.336-.364.456-.541.828.381,1.599.647,2.144.713.028-.37-.032-.877-.149-1.441.503-.4.813-1.139.802-2.188-1.455-2.074,3.598-1.744,1.633-3.698.217-.217.387-.428.536-.637Z"/>
        <g>
          <path class="cls-27" d="m81.106,180.826c-2.602-1.475,1.269-4.214-1.848-4.185.018-1.917-.893-2.941-2.183-2.848,1.66-2.022-1.612-1.92-2.229-3.73.029-2.926-3.399-1.96-4.457-1.733-1.181-1.047-2.305-1.343-3.129-1.01-.502-1.561-2.058-1.841-3.763-.326-.047-.042-.092-.066-.142-.103-1.876.058-1.999-2.531-3.886-.857-2.085-1.851-3.687.612-3.946,1.533-1.539-.013-2.454.543-2.645,1.366-1.239,1.601-3.119-.087-3.097,2.145-1.652-.014-2.601.622-2.685,1.551-1.086-.022-1.846.892-1.828,2.536-2.759-.024-.168,2.421-1.635,3.704-1.396,1.389-1.355,2.668-.243,3.296.065.443.335.935.874,1.431-1.248,1.146-1.165,2.289.004,2.786-.355.774-.041,1.83,1.076,2.941-2.226,2.211-1.272,4.214,1.846,4.186-.03,2.889,2.047,3.786,4.364,1.802-.68,1.234.096,2.283,2.115,2.336.069,2.337,1.747,2.937,3.423,1.331,1.645,1.577,3.284,1.017,3.409-1.216.265.058.557.098.895.095-.023,2.122,1.523,2.77,3.23,1.257,1.706,1.514,3.253.866,3.229-1.257.325.004.608-.032.866-.087.061,1.884,2.664,1.398,3.059,1.041,1.622,1.438,3.357-.616,3.071-1.195-1.201-3.068,2.805-1.36,1.273-2.886.37-.368.605-.725.73-1.06,1.446.496,2.544-.421,2.523-2.397-1.456-2.074,3.598-1.744,1.633-3.699,1.271-1.264,1.354-2.443.515-3.118,1.107-.738,1.093-2.127-.418-3.63Z"/>
          <path class="cls-8" d="m43.225,180.807c2.177,1.271,11.004,2.207,8.487-1.627.72-4.451-7.013-.346-8.487,1.627Z"/>
          <path class="cls-9" d="m44.972,187.191c2.177,1.27,11.005,2.206,8.488-1.628.72-4.451-7.013-.346-8.488,1.628Z"/>
          <path class="cls-8" d="m51.741,195.49c2.553-.224,10.186-4.493,5.711-6.117-2.294-3.953-5.808,3.709-5.711,6.117Z"/>
          <path class="cls-8" d="m55.237,186.006c2.552-.223,10.185-4.492,5.711-6.117-2.294-3.952-5.808,3.71-5.711,6.117Z"/>
          <path class="cls-8" d="m60.681,176.917c.426,1.202,3.661,4.362,4.015,2.018,1.881-1.573-2.713-2.351-4.015-2.018Z"/>
          <path class="cls-8" d="m63.645,167.451c-.641,1.114-.878,5.492,1.183,4.129,2.509.21-.034-3.467-1.183-4.129Z"/>
          <path class="cls-8" d="m52.672,169.183c-.641,1.115-.878,5.493,1.183,4.13,2.509.21-.034-3.467-1.183-4.13Z"/>
          <path class="cls-8" d="m53.536,183.636c1.296-.351,4.792-3.255,2.312-3.683-1.598-1.829-2.615,2.449-2.312,3.683Z"/>
          <path class="cls-8" d="m59.706,189.226c.909-.936,2.266-5.131-.084-4.274-2.381-.774-.862,3.371.084,4.274Z"/>
          <path class="cls-8" d="m65.531,198.527c.909-.935,2.266-5.13-.083-4.274-2.383-.773-.862,3.371.083,4.274Z"/>
          <path class="cls-8" d="m55.728,198.893c1.307-.309,4.905-3.106,2.44-3.609-1.532-1.878-2.699,2.366-2.44,3.609Z"/>
          <path class="cls-8" d="m46.62,191.992c1.292.359,5.904-.328,4.057-1.937-.301-2.352-3.607.745-4.057,1.937Z"/>
          <path class="cls-8" d="m43.254,184.94c1.292.359,5.904-.328,4.057-1.937-.3-2.352-3.607.745-4.057,1.937Z"/>
          <path class="cls-8" d="m43.413,175.678c.772,1.037,4.837,3.198,4.459.856,1.324-2.015-3.316-1.525-4.459-.856Z"/>
          <path class="cls-8" d="m59.484,165.195c-.759,1.046-1.469,5.38.728,4.219,2.475.447.343-3.454-.728-4.219Z"/>
          <path class="cls-9" d="m61.598,198.694c1.804-1.711,4.739-9.585.198-8.133-4.46-1.65-1.919,6.344-.198,8.133Z"/>
          <path class="cls-8" d="m72.896,197.273c.189-2.401-3.027-10.179-5.474-6.305-4.533,1.468,2.928,5.995,5.474,6.305Z"/>
          <path class="cls-8" d="m68.235,190.222c.189-2.401-3.027-10.179-5.473-6.304-4.533,1.466,2.927,5.994,5.473,6.304Z"/>
          <path class="cls-9" d="m78.723,194.903c.187-2.401-3.028-10.179-5.474-6.305-4.533,1.467,2.927,5.995,5.474,6.305Z"/>
          <path class="cls-8" d="m82.638,186.442c-1.549-1.918-9.441-5.753-8.546-1.329-2.365,3.916,6.419,2.677,8.546,1.329Z"/>
          <path class="cls-9" d="m80.548,177.725c-2.468-.655-11.226.755-7.671,3.78.628,4.461,6.84-1.5,7.671-3.78Z"/>
          <path class="cls-9" d="m73.202,185.011c-.556-2.351-6.028-8.926-7.18-4.552-3.886,2.634,4.647,4.945,7.18,4.552Z"/>
          <path class="cls-8" d="m77.635,173.531c-2.468-.654-11.227.755-7.671,3.78.628,4.461,6.84-1.501,7.671-3.78Z"/>
          <path class="cls-9" d="m48.247,173.634c.913,2.249,7.336,8.012,7.805,3.53,3.441-3.135-5.359-4.262-7.805-3.53Z"/>
          <path class="cls-8" d="m55.779,169.066c-.059,2.408,3.575,10.02,5.809,6.034,4.445-1.683-3.248-5.845-5.809-6.034Z"/>
          <path class="cls-9" d="m70.91,170.778c-2.564.038-10.526,3.74-6.198,5.684,1.962,4.108,6.094-3.274,6.198-5.684Z"/>
        </g>
      </g>
    </g>
  </g>
</svg>