<?xml version="1.0" encoding="UTF-8"?>
<svg id="Layer_1" data-name="Layer 1" xmlns="http://www.w3.org/2000/svg" viewBox="0 0 328.93 334.19">
  <defs>
    <style>
      .cls-1 {
        fill: #d4ad81;
      }

      .cls-2 {
        fill: #91833f;
      }

      .cls-3 {
        fill: #fff;
      }

      .cls-4 {
        fill: #ba8b5a;
      }

      .cls-5 {
        fill: #d3dcff;
      }

      .cls-6 {
        fill: #a7a9ac;
      }

      .cls-7 {
        fill: #f6f6f6;
      }

      .cls-8 {
        fill: #b38556;
      }

      .cls-9 {
        fill: #9dbee0;
      }

      .cls-10 {
        fill: #c99661;
      }

      .cls-11 {
        fill: #658dc1;
      }

      .cls-12 {
        fill: #9496da;
      }

      .cls-13 {
        fill: #76a1cd;
      }

      .cls-14 {
        fill: #6993c9;
      }

      .cls-15 {
        fill: #c49a6c;
      }

      .cls-16 {
        fill: #c4cced;
      }

      .cls-17 {
        fill: #999;
      }

      .cls-18 {
        fill: #cad1ea;
      }

      .cls-19 {
        fill: #d1d3d4;
      }

      .cls-20 {
        fill: #e6e7e8;
      }

      .cls-21 {
        fill: #ecf0f9;
      }

      .cls-22 {
        fill: #d9def0;
      }

      .cls-23 {
        fill: #5e84b5;
      }

      .cls-24 {
        fill: #e6e8f4;
      }
    </style>
  </defs>
  <path class="cls-9" d="m328.93,249.24c0,14.47-10.85,26.19-24.22,26.19H24.22c-13.38,0-24.22-11.73-24.22-26.19V78.95c0-14.47,10.84-26.19,24.22-26.19h280.48c13.38,0,24.22,11.73,24.22,26.19v170.28Z"/>
  <g>
    <rect class="cls-21" x="75.04" y="87.44" width="241.53" height="167.15"/>
    <rect class="cls-24" x="285.54" y="85.91" width="31.04" height="170.21"/>
    <rect class="cls-22" x="75.04" y="85.99" width="241.53" height="5.57"/>
    <rect class="cls-22" x="75.04" y="250.47" width="241.53" height="5.57"/>
    <g>
      <path class="cls-11" d="m83.6,83.16h188.05c1.56,0,2.83,1.27,2.83,2.83v19.58c0,1.56-1.27,2.83-2.83,2.83H83.6c-1.56,0-2.83-1.27-2.83-2.83v-19.58c0-1.56,1.27-2.83,2.83-2.83Z"/>
      <rect class="cls-11" x="80.76" y="234.28" width="193.72" height="24.75" rx="2.83" ry="2.83"/>
      <path class="cls-13" d="m83.6,88.78h188.05c1.56,0,2.83,1.27,2.83,2.83v158.8c0,1.56-1.27,2.83-2.83,2.83H83.6c-1.56,0-2.83-1.27-2.83-2.83V91.62c0-1.56,1.27-2.83,2.83-2.83Z"/>
    </g>
    <path class="cls-15" d="m69.51,83.73h2.7c1.56,0,2.83,1.27,2.83,2.83v168.94c0,1.56-1.27,2.83-2.83,2.83h-2.7c-1.56,0-2.83-1.27-2.83-2.83V86.57c0-1.56,1.27-2.83,2.83-2.83Z"/>
    <path class="cls-15" d="m318.71,83.73h2.71c1.56,0,2.83,1.27,2.83,2.83v168.94c0,1.56-1.27,2.83-2.83,2.83h-2.71c-1.56,0-2.83-1.27-2.83-2.83V86.57c0-1.56,1.27-2.83,2.83-2.83Z"/>
    <g>
      <path class="cls-11" d="m288.6,168.7c-4.6,0-8.33-3.36-8.33-7.5v-58.15c0-4.14,3.73-7.5,8.33-7.5h14.46c4.6,0,8.33,3.36,8.33,7.5v58.15c0,4.15-3.73,7.5-8.33,7.5h-14.46Z"/>
      <path class="cls-13" d="m294.57,164.74c-2.99,0-5.41-3-5.41-6.69v-51.85c0-3.69,2.42-6.69,5.41-6.69h9.38c2.99,0,5.41,3,5.41,6.69v51.85c0,3.7-2.42,6.69-5.41,6.69h-9.38Z"/>
      <path class="cls-18" d="m268.22,158.71c-3.34,0-6.06-2.44-6.06-5.45v-42.28c0-3.01,2.71-5.45,6.06-5.45h10.51c3.35,0,6.06,2.44,6.06,5.45v42.28c0,3.01-2.71,5.45-6.06,5.45h-10.51Z"/>
      <path class="cls-21" d="m272.56,155.83c-2.17,0-3.93-2.18-3.93-4.86v-37.7c0-2.69,1.76-4.87,3.93-4.87h6.82c2.17,0,3.93,2.18,3.93,4.87v37.7c0,2.68-1.76,4.86-3.93,4.86h-6.82Z"/>
    </g>
    <g>
      <path class="cls-11" d="m288.6,246.7c-4.6,0-8.33-3.36-8.33-7.5v-58.15c0-4.14,3.73-7.5,8.33-7.5h14.46c4.6,0,8.33,3.36,8.33,7.5v58.15c0,4.14-3.73,7.5-8.33,7.5h-14.46Z"/>
      <path class="cls-13" d="m294.57,242.73c-2.99,0-5.41-3-5.41-6.69v-51.85c0-3.7,2.42-6.69,5.41-6.69h9.38c2.98,0,5.41,2.99,5.41,6.69v51.85c0,3.69-2.42,6.69-5.41,6.69h-9.38Z"/>
      <path class="cls-18" d="m268.22,236.71c-3.34,0-6.06-2.44-6.06-5.45v-42.28c0-3.01,2.71-5.45,6.06-5.45h10.51c3.35,0,6.06,2.44,6.06,5.45v42.28c0,3.01-2.71,5.45-6.06,5.45h-10.51Z"/>
      <path class="cls-21" d="m272.56,233.83c-2.17,0-3.93-2.18-3.93-4.86v-37.7c0-2.68,1.76-4.86,3.93-4.86h6.82c2.17,0,3.93,2.18,3.93,4.86v37.7c0,2.69-1.76,4.86-3.93,4.86h-6.82Z"/>
    </g>
  </g>
  <g>
    <polygon class="cls-4" points="263.15 58.19 263.15 11.05 274.85 2.07 274.85 53.6 263.15 58.19"/>
    <polygon class="cls-10" points="263.15 58.19 317.71 58.19 325.87 53.83 274.85 53.6 263.15 58.19"/>
    <path class="cls-1" d="m274.95,0h50c1.56,0,2.83,1.27,2.83,2.83v50c0,1.56-1.27,2.83-2.83,2.83h-50c-1.56,0-2.83-1.27-2.83-2.83V2.83c0-1.56,1.27-2.83,2.83-2.83Z"/>
  </g>
  <g>
    <g>
      <path class="cls-16" d="m310.61,22.91c4.66,0,8.43-3.77,8.43-8.43s-3.77-8.43-8.43-8.43-8.43,3.77-8.43,8.43,3.78,8.43,8.43,8.43Z"/>
      <path class="cls-13" d="m309.46,28.15c7.76,0,14.06-6.29,14.06-14.05S317.22.04,309.46.04s-14.05,6.29-14.05,14.05,6.29,14.05,14.05,14.05Zm0-8.43c-3.1,0-5.62-2.52-5.62-5.62s2.51-5.62,5.62-5.62,5.62,2.52,5.62,5.62-2.52,5.62-5.62,5.62Z"/>
    </g>
    <g>
      <path class="cls-20" d="m309.46,18.51c2.44,0,4.41-1.98,4.41-4.41s-1.97-4.41-4.41-4.41-4.41,1.98-4.41,4.41,1.98,4.41,4.41,4.41Z"/>
      <path class="cls-1" d="m309.46,18.68c-2.53,0-4.58-2.06-4.58-4.58s2.06-4.58,4.58-4.58,4.58,2.06,4.58,4.58-2.06,4.58-4.58,4.58Zm0-8.82c-2.34,0-4.24,1.9-4.24,4.24s1.9,4.24,4.24,4.24,4.24-1.9,4.24-4.24-1.9-4.24-4.24-4.24Z"/>
    </g>
    <g>
      <path class="cls-19" d="m309.46,15.42c.73,0,1.32-.59,1.32-1.32s-.59-1.32-1.32-1.32-1.32.59-1.32,1.32.59,1.32,1.32,1.32Z"/>
      <path class="cls-17" d="m309.46,15.59c-.82,0-1.49-.67-1.49-1.49s.67-1.5,1.49-1.5,1.49.67,1.49,1.5-.67,1.49-1.49,1.49Zm0-2.64c-.63,0-1.14.51-1.14,1.15s.51,1.15,1.14,1.15,1.15-.51,1.15-1.15-.51-1.15-1.15-1.15Z"/>
    </g>
    <path class="cls-3" d="m309.33,13.42c.79-.48,1.14-1.33.79-1.91-.35-.58-1.27-.65-2.06-.18-.79.48-1.14,1.33-.79,1.91.35.58,1.27.65,2.06.17Z"/>
  </g>
  <g>
    <path class="cls-6" d="m286.99,51.51c-.42.14-.88-.09-1.02-.52l-5.85-17.8c-.14-.42.09-.88.52-1.02l11.05-3.63c.42-.14.88.09,1.02.52l5.85,17.8c.14.43-.09.88-.52,1.02l-11.05,3.63Z"/>
    <path class="cls-3" d="m287.23,51.65c-.42.14-.88-.09-1.02-.51l-5.85-17.8c-.14-.42.09-.88.51-1.02l11.05-3.63c.42-.14.88.09,1.02.52l5.85,17.8c.14.42-.09.88-.52,1.02l-11.05,3.63Z"/>
    <rect class="cls-6" x="283.08" y="30.59" width="12.3" height="17.01" transform="translate(2.26 92.28) rotate(-18.2)"/>
    <path class="cls-6" d="m292.54,49.17c-.33.11-.68-.07-.79-.4-.11-.33.07-.68.4-.79.33-.11.68.07.79.4.11.33-.07.68-.4.79Z"/>
  </g>
  <g>
    <polygon class="cls-10" points="263.15 276 263.15 323.14 274.85 332.12 274.85 280.59 263.15 276"/>
    <polygon class="cls-8" points="263.15 276 317.71 276 325.87 280.36 274.85 280.59 263.15 276"/>
    <rect class="cls-1" x="272.11" y="278.52" width="55.67" height="55.67" rx="2.83" ry="2.83"/>
  </g>
  <g>
    <g>
      <path class="cls-16" d="m306.61,306.91c4.66,0,8.43-3.77,8.43-8.43s-3.77-8.43-8.43-8.43-8.43,3.77-8.43,8.43,3.78,8.43,8.43,8.43Z"/>
      <path class="cls-13" d="m305.46,312.15c7.76,0,14.06-6.29,14.06-14.05s-6.29-14.05-14.06-14.05-14.05,6.29-14.05,14.05,6.29,14.05,14.05,14.05Zm0-8.43c-3.1,0-5.62-2.52-5.62-5.62s2.51-5.62,5.62-5.62,5.62,2.52,5.62,5.62-2.52,5.62-5.62,5.62Z"/>
    </g>
    <g>
      <path class="cls-20" d="m305.46,302.51c2.44,0,4.41-1.98,4.41-4.41s-1.97-4.41-4.41-4.41-4.41,1.98-4.41,4.41,1.98,4.41,4.41,4.41Z"/>
      <path class="cls-1" d="m305.46,302.68c-2.53,0-4.58-2.06-4.58-4.58s2.06-4.58,4.58-4.58,4.58,2.06,4.58,4.58-2.06,4.58-4.58,4.58Zm0-8.82c-2.34,0-4.24,1.9-4.24,4.24s1.9,4.24,4.24,4.24,4.24-1.9,4.24-4.24-1.9-4.24-4.24-4.24Z"/>
    </g>
    <g>
      <path class="cls-19" d="m305.46,299.42c.73,0,1.32-.59,1.32-1.32s-.59-1.32-1.32-1.32-1.32.59-1.32,1.32.59,1.32,1.32,1.32Z"/>
      <path class="cls-17" d="m305.46,299.59c-.82,0-1.49-.67-1.49-1.49s.67-1.5,1.49-1.5,1.49.67,1.49,1.5-.67,1.49-1.49,1.49Zm0-2.64c-.63,0-1.14.51-1.14,1.15s.51,1.15,1.14,1.15,1.15-.51,1.15-1.15-.51-1.15-1.15-1.15Z"/>
    </g>
    <path class="cls-3" d="m305.33,297.42c.79-.48,1.14-1.33.79-1.91-.35-.58-1.27-.65-2.06-.18-.79.48-1.14,1.33-.79,1.91.35.58,1.27.65,2.06.17Z"/>
  </g>
  <g>
    <path class="cls-2" d="m297.43,310.03s.08,0,.13.01l-2.12,14.06c-.16,1.07-1.05,1.12-2.12.96l-18.25-2.75c-1.06-.16-1.9-.47-1.74-1.54l2.12-14.06,21.99,3.31Z"/>
    <path class="cls-12" d="m297.64,310.28s.08,0,.12.01l-2.12,14.06c-.16,1.07-1.05,1.12-2.12.96l-18.25-2.75c-1.07-.16-1.9-.47-1.74-1.54l2.12-14.05,21.99,3.31Z"/>
    <path class="cls-3" d="m293.93,325.04c-.22,0-.46-.02-.77-.07l-17.52-2.64c-.99-.15-1.98-.46-1.81-1.64l2.02-13.4.16.02,21.11,3.18s.06,0,.09.01h.17s0,.18,0,.18l-2,13.25c-.11.74-.58,1.1-1.43,1.1Zm-17.82-17.38l-1.97,13.09c-.11.74.32,1.1,1.54,1.28l17.52,2.64c.29.04.53.07.73.07.7,0,1.04-.25,1.12-.83l1.97-13.09-20.92-3.15Z"/>
    <polygon class="cls-3" points="289.39 320.84 289.31 321.37 289.9 321.46 289.98 320.93 289.39 320.84"/>
    <polygon class="cls-3" points="289.48 320.21 289.44 320.51 290.45 320.66 290.49 320.36 289.48 320.21"/>
    <rect class="cls-3" x="289.73" y="319.05" width=".54" height=".78" transform="translate(-69.37 558.17) rotate(-81.36)"/>
    <polygon class="cls-3" points="289.78 318.24 289.7 318.78 290.71 318.93 290.79 318.4 289.78 318.24"/>
    <rect class="cls-3" x="289.9" y="317.39" width=".54" height=".6" transform="translate(-66.22 558.75) rotate(-81.67)"/>
    <rect class="cls-3" x="290.02" y="316.58" width=".54" height=".6" transform="translate(-65.76 557.53) rotate(-81.56)"/>
    <polygon class="cls-3" points="290.16 315.75 290.09 316.19 291.1 316.34 291.17 315.9 290.16 315.75"/>
    <polygon class="cls-3" points="290.3 314.84 290.22 315.37 290.99 315.49 291.06 314.95 290.3 314.84"/>
    <rect class="cls-3" x="290.44" y="313.96" width=".54" height=".66" transform="translate(-62.84 555.73) rotate(-81.56)"/>
    <polygon class="cls-3" points="290.56 313.11 290.48 313.64 291.07 313.73 291.15 313.2 290.56 313.11"/>
    <g>
      <polygon class="cls-3" points="287.66 320.99 287.62 321.25 287.91 321.3 287.96 321.03 287.66 320.99"/>
      <polygon class="cls-3" points="287.71 320.68 287.69 320.82 288.19 320.9 288.21 320.75 287.71 320.68"/>
      <rect class="cls-3" x="287.83" y="320.1" width=".27" height=".39" transform="translate(-72.16 556.55) rotate(-81.31)"/>
      <rect class="cls-3" x="287.95" y="319.62" width=".27" height=".51" transform="translate(-70.21 558.47) rotate(-81.65)"/>
      <polygon class="cls-3" points="287.92 319.27 287.88 319.53 288.17 319.58 288.21 319.31 287.92 319.27"/>
      <polygon class="cls-3" points="287.98 318.87 287.94 319.13 288.23 319.18 288.27 318.91 287.98 318.87"/>
      <rect class="cls-3" x="288.16" y="318.36" width=".22" height=".5" transform="translate(-68.61 557.87) rotate(-81.7)"/>
      <polygon class="cls-3" points="288.11 318.01 288.07 318.27 288.45 318.33 288.49 318.07 288.11 318.01"/>
      <polygon class="cls-3" points="288.17 317.58 288.13 317.84 288.46 317.89 288.5 317.63 288.17 317.58"/>
      <polygon class="cls-3" points="288.24 317.15 288.2 317.41 288.49 317.46 288.53 317.19 288.24 317.15"/>
      <polygon class="cls-3" points="288.32 316.61 288.28 316.87 288.57 316.92 288.61 316.66 288.32 316.61"/>
      <polygon class="cls-3" points="288.37 316.3 288.34 316.45 288.84 316.52 288.86 316.37 288.37 316.3"/>
      <polygon class="cls-3" points="288.45 315.75 288.41 316.02 288.79 316.07 288.83 315.81 288.45 315.75"/>
      <rect class="cls-3" x="288.61" y="315.24" width=".27" height=".51" transform="translate(-66.57 553.52) rotate(-81.35)"/>
      <polygon class="cls-3" points="288.58 314.89 288.54 315.15 288.83 315.2 288.87 314.93 288.58 314.89"/>
      <polygon class="cls-3" points="288.64 314.49 288.6 314.76 288.89 314.8 288.93 314.54 288.64 314.49"/>
      <polygon class="cls-3" points="288.7 314.08 288.67 314.3 289.17 314.38 289.2 314.16 288.7 314.08"/>
      <rect class="cls-3" x="288.81" y="313.6" width=".27" height=".39" transform="translate(-63.76 553.69) rotate(-81.58)"/>
      <polygon class="cls-3" points="288.83 313.2 288.79 313.47 289.12 313.51 289.16 313.25 288.83 313.2"/>
      <rect class="cls-3" x="288.89" y="312.78" width=".27" height=".3" transform="translate(-63.32 552.32) rotate(-81.47)"/>
    </g>
  </g>
  <path class="cls-13" d="m208.81,67.32c0,2.76-2.07,4.99-4.62,4.99h-53.46c-2.55,0-4.62-2.24-4.62-4.99v-32.46c0-2.76,2.07-4.99,4.62-4.99h53.46c2.55,0,4.62,2.24,4.62,4.99v32.46Z"/>
  <g>
    <path class="cls-5" d="m195.67,54.45c.13,5.74-2.57,10.45-6.04,10.53-3.46.08-6.37-4.51-6.5-10.25,0-.12,0-.24,0-.36l12.52-.28c0,.12.02.24.02.36Z"/>
    <path class="cls-16" d="m189.3,43.19c2.5-.06,4.66,5.61,4.9,12.73l-9.23.21c-.08-7.13,1.83-12.88,4.33-12.94Z"/>
    <path class="cls-7" d="m189.56,55.13c-1.24.03-2.22,1.05-2.19,2.29.03,1.24,1.05,2.22,2.29,2.19,1.24-.03,2.22-1.05,2.19-2.29-.03-1.24-1.05-2.22-2.29-2.19Z"/>
  </g>
  <g>
    <path class="cls-5" d="m176.89,52.71c-2.16,5.32-6.51,8.57-9.72,7.27-3.21-1.3-4.06-6.67-1.9-11.99.05-.11.1-.22.14-.33l11.6,4.71c-.04.11-.08.23-.13.34Z"/>
    <path class="cls-16" d="m175.5,39.84c2.32.94,2.05,6.99-.55,13.63l-8.56-3.47c2.76-6.58,6.79-11.1,9.1-10.16Z"/>
    <path class="cls-7" d="m171.01,50.91c-1.15-.47-2.46.09-2.92,1.23-.46,1.15.09,2.45,1.23,2.92,1.15.47,2.45-.09,2.92-1.23.47-1.15-.09-2.45-1.23-2.92Z"/>
  </g>
  <path class="cls-13" d="m216.81,313.33c0,2.76-2.07,4.99-4.62,4.99h-53.46c-2.55,0-4.62-2.24-4.62-4.99v-32.46c0-2.76,2.07-4.99,4.62-4.99h53.46c2.55,0,4.62,2.24,4.62,4.99v32.46Z"/>
  <g>
    <path class="cls-23" d="m12.34,201.13h22.25c6.53,0,11.84,5.31,11.84,11.84v22.25c0,6.54-5.31,11.84-11.84,11.84H12.34c-6.53,0-11.84-5.31-11.84-11.84v-22.25c0-6.53,5.31-11.84,11.84-11.84Z"/>
    <path class="cls-14" d="m13.83,204.22h19.26c5.66,0,10.25,4.59,10.25,10.25v19.25c0,5.66-4.59,10.25-10.25,10.25H13.84c-5.66,0-10.25-4.59-10.25-10.25v-19.26c0-5.65,4.59-10.24,10.24-10.24Z"/>
    <path class="cls-13" d="m16.14,208.97h14.66c4.3,0,7.8,3.49,7.8,7.8v14.65c0,4.31-3.5,7.8-7.8,7.8h-14.65c-4.31,0-7.8-3.5-7.8-7.8v-14.65c0-4.3,3.49-7.8,7.8-7.8Z"/>
  </g>
  <g>
    <polygon class="cls-18" points="30.62 213.35 43.54 220.07 33.87 231.03 27.49 244.18 16.08 235.18 3.38 228.12 13.19 217.25 19.44 204.01 30.62 213.35"/>
    <polygon class="cls-24" points="27.79 217.61 35.59 221.67 29.75 228.28 25.89 236.22 19 230.79 11.34 226.53 17.26 219.96 21.03 211.97 27.79 217.61"/>
  </g>
  <g>
    <path class="cls-23" d="m12.34,99.13h22.25c6.53,0,11.84,5.31,11.84,11.84v22.25c0,6.54-5.31,11.84-11.84,11.84H12.34c-6.53,0-11.84-5.31-11.84-11.84v-22.25c0-6.54,5.31-11.84,11.84-11.84Z"/>
    <path class="cls-14" d="m13.83,102.22h19.26c5.66,0,10.25,4.59,10.25,10.25v19.25c0,5.66-4.59,10.25-10.25,10.25H13.84c-5.66,0-10.25-4.59-10.25-10.25v-19.26c0-5.65,4.59-10.24,10.24-10.24Z"/>
    <path class="cls-13" d="m16.14,106.97h14.66c4.3,0,7.8,3.49,7.8,7.8v14.65c0,4.31-3.5,7.8-7.8,7.8h-14.65c-4.3,0-7.8-3.49-7.8-7.8v-14.66c0-4.3,3.49-7.8,7.8-7.8Z"/>
  </g>
</svg>