<?xml version="1.0" encoding="UTF-8"?>
<svg xmlns="http://www.w3.org/2000/svg" xmlns:xlink="http://www.w3.org/1999/xlink" viewBox="0 0 207.749 152.994">
  <defs>
    <style>
      .cls-1 {
        fill: #7896c1;
      }

      .cls-2, .cls-3, .cls-4, .cls-5, .cls-6, .cls-7, .cls-8, .cls-9, .cls-10 {
        fill-rule: evenodd;
      }

      .cls-2, .cls-11 {
        fill: #d0d2d3;
      }

      .cls-12, .cls-5 {
        fill: #ddd3cc;
      }

      .cls-12, .cls-5, .cls-10 {
        mix-blend-mode: multiply;
      }

      .cls-3 {
        fill: #fff;
      }

      .cls-13 {
        fill: #a82d24;
      }

      .cls-14 {
        isolation: isolate;
      }

      .cls-15 {
        fill: #c95b5b;
      }

      .cls-16, .cls-9 {
        fill: #87a2dd;
      }

      .cls-4 {
        fill: #6d6e70;
      }

      .cls-17 {
        fill: #c4d6f7;
      }

      .cls-6 {
        fill: #527fbf;
      }

      .cls-18 {
        fill: #e27171;
      }

      .cls-19 {
        fill: #4c4e4d;
      }

      .cls-20 {
        fill: #7488a5;
      }

      .cls-21 {
        fill: #5a7eb7;
      }

      .cls-7 {
        fill: #e8f1f9;
        opacity: .5;
      }

      .cls-8 {
        fill: #cbdbf7;
      }

      .cls-22 {
        fill: url(#linear-gradient);
      }

      .cls-10 {
        fill: #c9ccd3;
      }
    </style>
    <linearGradient id="linear-gradient" x1="76.783" y1="74.699" x2="159.216" y2="74.699" gradientTransform="translate(180.372 -27.378) rotate(90)" gradientUnits="userSpaceOnUse">
      <stop offset="0" stop-color="#de9ea3"/>
      <stop offset=".976" stop-color="#cf4561"/>
    </linearGradient>
  </defs>
  <g class="cls-14">
    <g id="Layer_1" data-name="Layer 1">
      <path class="cls-5" d="m152.037,148.2v-4.134s0-1.488,0-1.488v-70.142s0-1.848,0-1.848v-10.443s0-.923,0-.923V24.323s0-2.519,0-2.519v-2.488s0-5.064,0-5.064c0-1.368-1.053-2.488-2.336-2.488H46.181c-1.284,0-2.335,1.12-2.335,2.488v5.064s0,2.488,0,2.488v2.519s0,34.899,0,34.899v.923s0,10.443,0,10.443v1.848s0,70.142,0,70.142v1.488s0,4.134,0,4.134c0,2.642,2.022,4.795,4.502,4.795h99.187c2.48,0,4.503-2.154,4.503-4.795Z"/>
      <path class="cls-5" d="m156.071,142.83v-4.134s0-1.488,0-1.488v-70.142s0-1.848,0-1.848v-10.443s0-.923,0-.923V18.954s0-2.519,0-2.519v-2.488s0-5.064,0-5.064c0-1.368-1.053-2.488-2.336-2.488H50.215c-1.284,0-2.335,1.12-2.335,2.488v5.064s0,2.488,0,2.488v2.519s0,34.899,0,34.899v.923s0,10.443,0,10.443v1.848s0,70.142,0,70.142v1.488s0,4.134,0,4.134c0,2.642,2.022,4.795,4.502,4.795h99.187c2.48,0,4.503-2.154,4.503-4.795Z"/>
      <path class="cls-12" d="m193.046,34.643V15.087c0-4.484-1.4-5.973-5.61-5.973h-18.366c-4.21,0-5.61,1.489-5.61,5.973v19.556c0,4.484,1.399,5.974,5.61,5.974h18.366c4.21,0,5.61-1.489,5.61-5.974Z"/>
      <path class="cls-12" d="m195.441,32.763V13.208c0-4.484-1.4-5.973-5.61-5.973h-18.366c-4.21,0-5.61,1.489-5.61,5.973v19.556c0,4.484,1.399,5.974,5.61,5.974h18.366c4.21,0,5.61-1.489,5.61-5.974Z"/>
      <path class="cls-4" d="m159.769,8.578v128.883c0,2.641-2.023,4.795-4.503,4.795H56.079c-2.48,0-4.502-2.153-4.502-4.795V8.578h108.192Z"/>
      <rect class="cls-19" x="51.578" y="8.578" width="108.192" height="5.006"/>
      <rect class="cls-19" x="51.578" y="49.405" width="108.192" height="83.921"/>
      <path class="cls-3" d="m157.433,11.065v126.395c0,1.268-.976,2.308-2.167,2.308H56.079c-1.191,0-2.167-1.039-2.167-2.308V11.065h103.521Z"/>
      <rect class="cls-11" x="53.913" y="11.065" width="103.521" height="2.519"/>
      <rect class="cls-11" x="53.913" y="47.041" width="103.521" height="2.519"/>
      <rect class="cls-11" x="53.913" y="49.405" width="103.521" height="83.921"/>
      <path class="cls-9" d="m53.913,1.026c-1.284,0-2.335,1.12-2.335,2.488v7.552s108.192,0,108.192,0V3.513c0-1.368-1.053-2.488-2.336-2.488H53.913Z"/>
      <rect class="cls-21" x="51.578" y="8.578" width="108.192" height="2.488"/>
      <g>
        <rect class="cls-20" x="51.578" y="49.405" width="108.192" height="82.433"/>
        <rect class="cls-22" x="53.913" y="49.405" width="103.521" height="82.433"/>
        <rect class="cls-21" x="51.578" y="48.483" width="108.192" height="13.214"/>
        <rect class="cls-1" x="51.578" y="48.483" width="108.192" height="11.366"/>
        <rect class="cls-17" x="53.913" y="48.483" width="103.521" height="11.366"/>
      </g>
      <g>
        <path class="cls-2" d="m91.052,43.764c.413-6.077,4.864-13.838,4.537-24.382-7.143-.246-22.176-6.655-32.891-6.938-3.262,9.103-2.739,18.595-4.537,24.383,6.866.952,24.11,8.422,32.891,6.937Z"/>
        <g>
          <path class="cls-8" d="m64.782,15.371c-3.262,9.102-2.738,18.594-4.537,24.382,6.866.952,24.11,8.423,32.892,6.937.412-6.077,4.863-13.837,4.536-24.382-7.142-.245-22.175-6.655-32.891-6.937Z"/>
          <path class="cls-6" d="m66.017,16.76c-2.979,8.313-2.502,16.984-4.143,22.273,6.271.868,22.022,7.69,30.043,6.336.377-5.554,4.443-12.64,4.143-22.271-6.524-.228-20.255-6.081-30.043-6.339Z"/>
          <path class="cls-9" d="m67.586,18.524c-2.621,7.313-2.201,14.94-3.645,19.59,5.514.765,19.369,6.766,26.425,5.577.331-4.886,3.907-11.123,3.646-19.592-5.741-.2-17.819-5.347-26.427-5.575Z"/>
        </g>
      </g>
      <g>
        <path class="cls-2" d="m145.653,38.641c-1.407-5.906.521-14.765-2.91-24.662-6.852,2.163-23.016,1.126-33.268,4.454-.402,9.733,2.904,18.567,2.91,24.663,6.798-1.4,25.375-.099,33.268-4.455Z"/>
        <g>
          <path class="cls-8" d="m112.317,20.512c-.402,9.732,2.904,18.565,2.91,24.662,6.798-1.401,25.375-.098,33.269-4.455-1.408-5.906.52-14.764-2.912-24.662-6.851,2.165-23.014,1.126-33.267,4.455Z"/>
          <path class="cls-6" d="m113.9,21.415c-.367,8.89,2.653,16.958,2.66,22.529,6.207-1.281,23.175-.092,30.388-4.069-1.286-5.398.475-13.487-2.66-22.526-6.259,1.974-21.023,1.028-30.388,4.067Z"/>
          <path class="cls-9" d="m115.912,22.562c-.323,7.819,2.333,14.918,2.339,19.816,5.459-1.125,20.385-.08,26.729-3.576-1.132-4.749.417-11.867-2.338-19.818-5.507,1.737-18.493.905-26.73,3.578Z"/>
        </g>
      </g>
      <polygon class="cls-7" points="53.498 140.197 158.044 140.197 53.779 69.926 53.498 140.197"/>
      <polygon class="cls-10" points="158.044 4.707 53.498 4.707 157.763 74.978 158.044 4.707"/>
      <g>
        <path class="cls-21" d="m173.558,35.426c-4.21,0-5.61-1.489-5.61-5.973V9.897c0-4.484,1.399-5.973,5.61-5.973h18.366c4.21,0,5.61,1.489,5.61,5.973v19.556c0,4.484-1.4,5.973-5.61,5.973h-18.366Z"/>
        <path class="cls-16" d="m174.522,33.306c-3.644,0-4.584-.998-4.584-4.881V10.923c0-3.882.94-4.881,4.584-4.881h16.438c3.645,0,4.584.998,4.584,4.881v17.502c0,3.882-.94,4.881-4.584,4.881h-16.438Z"/>
        <path class="cls-17" d="m176.006,30.05c-2.777,0-3.007-.247-3.007-3.204v-14.347c0-2.953.23-3.2,3.007-3.2h13.471c2.777,0,3.007.246,3.007,3.2v14.347c0,2.956-.23,3.204-3.007,3.204h-13.471Z"/>
      </g>
      <path class="cls-12" d="m40.764,33.211V13.655c0-4.484-1.4-5.973-5.61-5.973h-18.366c-4.21,0-5.61,1.489-5.61,5.973v19.556c0,4.484,1.399,5.973,5.61,5.973h18.366c4.21,0,5.61-1.489,5.61-5.973Z"/>
      <path class="cls-12" d="m43.159,31.332V11.776c0-4.484-1.4-5.973-5.61-5.973h-18.366c-4.21,0-5.61,1.489-5.61,5.973v19.556c0,4.484,1.399,5.973,5.61,5.973h18.366c4.21,0,5.61-1.489,5.61-5.973Z"/>
      <g>
        <path class="cls-13" d="m21.957,35.426c-4.21,0-5.61-1.489-5.61-5.973V9.897c0-4.484,1.399-5.973,5.61-5.973h18.366c4.21,0,5.61,1.489,5.61,5.973v19.556c0,4.484-1.4,5.973-5.61,5.973h-18.366Z"/>
        <path class="cls-15" d="m22.92,33.306c-3.644,0-4.584-.998-4.584-4.881V10.923c0-3.882.94-4.881,4.584-4.881h16.438c3.645,0,4.584.998,4.584,4.881v17.502c0,3.882-.94,4.881-4.584,4.881h-16.438Z"/>
        <path class="cls-18" d="m24.405,30.05c-2.777,0-3.007-.247-3.007-3.204v-14.347c0-2.953.23-3.2,3.007-3.2h13.471c2.777,0,3.007.246,3.007,3.2v14.347c0,2.956-.23,3.204-3.007,3.204h-13.471Z"/>
      </g>
      <g>
        <rect class="cls-12" x="0" y="0" width="207.749" height="10.204"/>
        <rect class="cls-12" x="0" y="0" width="207.749" height="4.566"/>
      </g>
    </g>
  </g>
</svg>