<?xml version="1.0" encoding="UTF-8"?>
<svg xmlns="http://www.w3.org/2000/svg" xmlns:xlink="http://www.w3.org/1999/xlink" viewBox="0 0 256.74 203.29">
  <defs>
    <style>
      .cls-1 {
        fill: url(#linear-gradient-3);
      }

      .cls-1, .cls-2, .cls-3, .cls-4, .cls-5, .cls-6 {
        mix-blend-mode: multiply;
      }

      .cls-7 {
        fill: #fafaf8;
      }

      .cls-8 {
        fill: #fff;
      }

      .cls-2 {
        fill: url(#linear-gradient);
      }

      .cls-9 {
        fill: #939598;
      }

      .cls-3 {
        fill: url(#linear-gradient-4);
      }

      .cls-10 {
        filter: url(#luminosity-noclip-5);
      }

      .cls-11 {
        mask: url(#mask-2);
      }

      .cls-12 {
        isolation: isolate;
      }

      .cls-13 {
        mask: url(#mask-3);
      }

      .cls-4 {
        fill: url(#linear-gradient-6);
      }

      .cls-14 {
        fill: none;
        stroke: #26281e;
        stroke-linecap: round;
        stroke-linejoin: round;
        stroke-width: .72px;
      }

      .cls-5 {
        fill: url(#linear-gradient-5);
      }

      .cls-15 {
        mask: url(#mask-5);
      }

      .cls-16 {
        mask: url(#mask-4);
      }

      .cls-17 {
        fill: #808285;
      }

      .cls-6 {
        fill: url(#linear-gradient-2);
      }

      .cls-18 {
        filter: url(#luminosity-noclip);
      }

      .cls-19 {
        mask: url(#mask-1);
      }

      .cls-20 {
        mask: url(#mask);
      }

      .cls-21 {
        fill: #def0fa;
      }

      .cls-22 {
        filter: url(#luminosity-noclip-3);
      }

      .cls-23 {
        fill: #26281e;
      }
    </style>
    <filter id="luminosity-noclip" x="35.99" y="11.04" width="12.58" height="24.8" color-interpolation-filters="sRGB" filterUnits="userSpaceOnUse">
      <feFlood flood-color="#fff" result="bg"/>
      <feBlend in="SourceGraphic" in2="bg"/>
    </filter>
    <filter id="luminosity-noclip-2" x="35.99" y="-8293.15" width="12.58" height="32766" color-interpolation-filters="sRGB" filterUnits="userSpaceOnUse">
      <feFlood flood-color="#fff" result="bg"/>
      <feBlend in="SourceGraphic" in2="bg"/>
    </filter>
    <mask id="mask-1" x="35.99" y="-8293.15" width="12.58" height="32766" maskUnits="userSpaceOnUse"/>
    <linearGradient id="linear-gradient" x1="-1572.34" y1="653.62" x2="-1572.34" y2="641.04" gradientTransform="translate(-605.05 -1548.89) rotate(-90)" gradientUnits="userSpaceOnUse">
      <stop offset="0" stop-color="#000"/>
      <stop offset="1" stop-color="#fff"/>
    </linearGradient>
    <mask id="mask" x="35.99" y="11.04" width="12.58" height="24.8" maskUnits="userSpaceOnUse">
      <g class="cls-18">
        <g class="cls-19">
          <rect class="cls-2" x="35.99" y="11.04" width="12.58" height="24.8"/>
        </g>
      </g>
    </mask>
    <linearGradient id="linear-gradient-2" x1="-1572.34" y1="653.62" x2="-1572.34" y2="641.04" gradientTransform="translate(-605.05 -1548.89) rotate(-90)" gradientUnits="userSpaceOnUse">
      <stop offset="0" stop-color="#fff"/>
      <stop offset="1" stop-color="#000"/>
    </linearGradient>
    <filter id="luminosity-noclip-3" x="204.82" y="11.04" width="12.58" height="24.8" color-interpolation-filters="sRGB" filterUnits="userSpaceOnUse">
      <feFlood flood-color="#fff" result="bg"/>
      <feBlend in="SourceGraphic" in2="bg"/>
    </filter>
    <filter id="luminosity-noclip-4" x="204.82" y="-8293.15" width="12.58" height="32766" color-interpolation-filters="sRGB" filterUnits="userSpaceOnUse">
      <feFlood flood-color="#fff" result="bg"/>
      <feBlend in="SourceGraphic" in2="bg"/>
    </filter>
    <mask id="mask-3" x="204.82" y="-8293.15" width="12.58" height="32766" maskUnits="userSpaceOnUse"/>
    <linearGradient id="linear-gradient-3" x1="-1572.34" y1="-762.48" x2="-1572.34" y2="-775.07" gradientTransform="translate(-557.66 -1548.89) rotate(-90) scale(1 -1)" xlink:href="#linear-gradient"/>
    <mask id="mask-2" x="204.82" y="11.04" width="12.58" height="24.8" maskUnits="userSpaceOnUse">
      <g class="cls-22">
        <g class="cls-13">
          <rect class="cls-1" x="204.82" y="11.04" width="12.58" height="24.8"/>
        </g>
      </g>
    </mask>
    <linearGradient id="linear-gradient-4" x1="-1572.34" y1="-762.48" x2="-1572.34" y2="-775.07" gradientTransform="translate(-557.66 -1548.89) rotate(-90) scale(1 -1)" xlink:href="#linear-gradient-2"/>
    <filter id="luminosity-noclip-5" x="35.99" y="10.93" width="181.41" height="12.58" color-interpolation-filters="sRGB" filterUnits="userSpaceOnUse">
      <feFlood flood-color="#fff" result="bg"/>
      <feBlend in="SourceGraphic" in2="bg"/>
    </filter>
    <filter id="luminosity-noclip-6" x="35.99" y="-8293.15" width="181.41" height="32766" color-interpolation-filters="sRGB" filterUnits="userSpaceOnUse">
      <feFlood flood-color="#fff" result="bg"/>
      <feBlend in="SourceGraphic" in2="bg"/>
    </filter>
    <mask id="mask-5" x="35.99" y="-8293.15" width="181.41" height="32766" maskUnits="userSpaceOnUse"/>
    <linearGradient id="linear-gradient-5" x1="22.47" y1="207.73" x2="22.47" y2="195.15" gradientTransform="translate(104.22 -184.22)" xlink:href="#linear-gradient"/>
    <mask id="mask-4" x="35.99" y="10.93" width="181.41" height="12.58" maskUnits="userSpaceOnUse">
      <g class="cls-10">
        <g class="cls-15">
          <rect class="cls-5" x="35.99" y="10.93" width="181.41" height="12.58"/>
        </g>
      </g>
    </mask>
    <linearGradient id="linear-gradient-6" x1="22.47" y1="207.73" x2="22.47" y2="195.15" gradientTransform="translate(104.22 -184.22)" xlink:href="#linear-gradient-2"/>
  </defs>
  <g class="cls-12">
    <g id="Layer_1" data-name="Layer 1">
      <g>
        <g>
          <path class="cls-9" d="m256.74,4.13v35.48h-35.48V4.13h35.48Zm-6.19,17.89c0-5.79-4.71-10.49-10.49-10.49s-10.49,4.71-10.49,10.49,4.69,10.49,10.49,10.49,10.49-4.69,10.49-10.49Z"/>
          <path class="cls-9" d="m239.98,25.27h.08c1.79,0,3.25-1.45,3.25-3.25s-1.46-3.25-3.25-3.25-3.25,1.46-3.25,3.25v.08c.04,1.74,1.43,3.13,3.17,3.17Zm.08-13.74c5.79,0,10.49,4.71,10.49,10.49s-4.71,10.49-10.49,10.49-10.49-4.69-10.49-10.49,4.69-10.49,10.49-10.49Z"/>
          <path class="cls-9" d="m239.98,25.27c-1.74-.04-3.13-1.43-3.17-3.17v-.08c0-1.79,1.45-3.25,3.25-3.25s3.25,1.46,3.25,3.25-1.46,3.25-3.25,3.25h-.08Zm.74-3.17s.01-.05.01-.08c0-.38-.31-.68-.68-.68-.03,0-.05,0-.08.01-.34.03-.6.31-.6.67,0,.38.3.68.68.68.34,0,.64-.26.67-.6Z"/>
          <polygon class="cls-9" points="221.26 39.62 221.26 203.29 39.77 203.29 39.77 39.62 39.77 14.7 50.49 14.7 50.49 72.83 50.49 192.72 210.54 192.72 210.54 117.68 210.54 14.7 221.26 14.7 221.26 39.62"/>
          <polygon class="cls-9" points="221.26 4.13 221.26 14.7 210.54 14.7 50.49 14.7 39.77 14.7 39.77 4.13 221.26 4.13"/>
          <polygon class="cls-9" points="210.54 117.68 210.54 192.72 50.49 192.72 50.49 72.83 162.82 72.83 162.82 117.68 210.54 117.68"/>
          <path class="cls-9" d="m210.54,14.7v102.97l-46.66-44.84H50.49V14.7h160.05Zm-9.97,51.34V21.5h-62.21v44.54h62.21Zm-79.42,0V21.5h-62.21v44.54h62.21Z"/>
          <polygon class="cls-9" points="210.54 117.68 162.82 117.68 162.82 72.83 163.88 72.83 210.54 117.68"/>
          <rect class="cls-9" x="138.36" y="21.5" width="62.21" height="44.54"/>
          <rect class="cls-9" x="58.94" y="21.5" width="62.21" height="44.54"/>
          <path class="cls-9" d="m39.77,14.7v24.91H4.13V4.13h35.63v10.57Zm-6.34,7.32c0-5.79-4.71-10.49-10.49-10.49s-10.49,4.71-10.49,10.49,4.69,10.49,10.49,10.49,10.49-4.69,10.49-10.49Z"/>
          <path class="cls-9" d="m22.86,25.27h.08c1.79,0,3.25-1.45,3.25-3.25s-1.46-3.25-3.25-3.25-3.25,1.46-3.25,3.25v.08c.04,1.74,1.43,3.13,3.17,3.17Zm.08-13.74c5.79,0,10.49,4.71,10.49,10.49s-4.71,10.49-10.49,10.49-10.49-4.69-10.49-10.49,4.69-10.49,10.49-10.49Z"/>
          <path class="cls-9" d="m22.86,25.27c-1.74-.04-3.13-1.43-3.17-3.17v-.08c0-1.79,1.45-3.25,3.25-3.25s3.25,1.46,3.25,3.25-1.46,3.25-3.25,3.25h-.08Zm.75-3.17v-.08c0-.38-.31-.68-.68-.68-.03,0-.05,0-.08.01-.34.03-.6.31-.6.67,0,.38.3.68.68.68.34,0,.64-.26.68-.6Z"/>
        </g>
        <g>
          <g>
            <path class="cls-17" d="m252.96.36v35.48h-35.48V.36h35.48Zm-6.19,17.89c0-5.79-4.71-10.49-10.49-10.49s-10.49,4.71-10.49,10.49,4.69,10.49,10.49,10.49,10.49-4.69,10.49-10.49Z"/>
            <path class="cls-8" d="m236.2,21.5h.08c1.79,0,3.25-1.45,3.25-3.25s-1.46-3.25-3.25-3.25-3.25,1.46-3.25,3.25v.08c.04,1.74,1.43,3.13,3.17,3.17Zm.08-13.74c5.79,0,10.49,4.71,10.49,10.49s-4.71,10.49-10.49,10.49-10.49-4.69-10.49-10.49,4.69-10.49,10.49-10.49Z"/>
            <path class="cls-8" d="m236.2,21.5c-1.74-.04-3.13-1.43-3.17-3.17v-.08c0-1.79,1.45-3.25,3.25-3.25s3.25,1.46,3.25,3.25-1.46,3.25-3.25,3.25h-.08Zm.74-3.17s.01-.05.01-.08c0-.38-.31-.68-.68-.68-.03,0-.05,0-.08.01-.34.03-.6.31-.6.67,0,.38.3.68.68.68.34,0,.64-.26.67-.6Z"/>
            <polygon class="cls-17" points="217.48 35.84 217.48 199.51 35.99 199.51 35.99 35.84 35.99 10.93 46.71 10.93 46.71 69.06 46.71 188.94 206.76 188.94 206.76 113.9 206.76 10.93 217.48 10.93 217.48 35.84"/>
            <polygon class="cls-21" points="217.48 .36 217.48 10.93 206.76 10.93 46.71 10.93 35.99 10.93 35.99 .36 217.48 .36"/>
            <polygon class="cls-8" points="206.76 113.9 206.76 188.94 46.71 188.94 46.71 69.06 159.05 69.06 159.05 113.9 206.76 113.9"/>
            <path class="cls-7" d="m206.76,10.93v102.97l-46.66-44.84H46.71V10.93h160.05Zm-9.97,51.34V17.72h-62.21v44.54h62.21Zm-79.42,0V17.72h-62.21v44.54h62.21Z"/>
            <polygon class="cls-8" points="206.76 113.9 159.05 113.9 159.05 69.06 160.11 69.06 206.76 113.9"/>
            <rect class="cls-8" x="134.59" y="17.72" width="62.21" height="44.54"/>
            <rect class="cls-8" x="55.17" y="17.72" width="62.21" height="44.54"/>
            <path class="cls-17" d="m35.99,10.93v24.91H.36V.36h35.63v10.57Zm-6.34,7.32c0-5.79-4.71-10.49-10.49-10.49s-10.49,4.71-10.49,10.49,4.69,10.49,10.49,10.49,10.49-4.69,10.49-10.49Z"/>
            <path class="cls-8" d="m19.08,21.5h.08c1.79,0,3.25-1.45,3.25-3.25s-1.46-3.25-3.25-3.25-3.25,1.46-3.25,3.25v.08c.04,1.74,1.43,3.13,3.17,3.17Zm.08-13.74c5.79,0,10.49,4.71,10.49,10.49s-4.71,10.49-10.49,10.49-10.49-4.69-10.49-10.49,4.69-10.49,10.49-10.49Z"/>
            <path class="cls-8" d="m19.08,21.5c-1.74-.04-3.13-1.43-3.17-3.17v-.08c0-1.79,1.45-3.25,3.25-3.25s3.25,1.46,3.25,3.25-1.46,3.25-3.25,3.25h-.08Zm.75-3.17v-.08c0-.38-.31-.68-.68-.68-.03,0-.05,0-.08.01-.34.03-.6.31-.6.67,0,.38.3.68.68.68.34,0,.64-.26.68-.6Z"/>
          </g>
          <g>
            <path class="cls-23" d="m206.76,189.3H46.71c-.2,0-.36-.16-.36-.36s.16-.36.36-.36h159.69V10.93c0-.2.16-.36.36-.36s.36.16.36.36v178.01c0,.2-.16.36-.36.36Z"/>
            <path class="cls-23" d="m217.48,11.29H35.99c-.2,0-.36-.16-.36-.36s.16-.36.36-.36h181.49c.2,0,.36.16.36.36s-.16.36-.36.36Z"/>
            <path class="cls-23" d="m46.71,189.3c-.2,0-.36-.16-.36-.36V10.93c0-.2.16-.36.36-.36s.36.16.36.36v178.01c0,.2-.16.36-.36.36Z"/>
            <path class="cls-23" d="m35.99,199.87c-.2,0-.36-.16-.36-.36V35.84c0-.2.16-.36.36-.36s.36.16.36.36v163.67c0,.2-.16.36-.36.36Z"/>
            <path class="cls-23" d="m217.48.72H35.99c-.2,0-.36-.16-.36-.36s.16-.36.36-.36h181.49c.2,0,.36.16.36.36s-.16.36-.36.36Z"/>
            <path class="cls-23" d="m217.48,199.87H35.99c-.2,0-.36-.16-.36-.36s.16-.36.36-.36h181.13V35.84c0-.2.16-.36.36-.36s.36.16.36.36v163.67c0,.2-.16.36-.36.36Z"/>
            <rect class="cls-14" x="55.17" y="17.72" width="62.21" height="44.54"/>
            <rect class="cls-14" x="134.59" y="17.72" width="62.21" height="44.54"/>
            <path class="cls-23" d="m206.76,114.26h-47.71c-.2,0-.36-.16-.36-.36v-44.48H46.71c-.2,0-.36-.16-.36-.36s.16-.36.36-.36h113.39c.09,0,.18.04.25.1l46.66,44.84c.11.1.14.26.08.39-.05.14-.19.23-.33.23Zm-47.35-.72h46.46l-45.91-44.12h-.55v44.12Z"/>
            <path class="cls-23" d="m35.99,36.2H.36c-.2,0-.36-.16-.36-.36V.36c0-.2.16-.36.36-.36h35.63c.2,0,.36.16.36.36v35.48c0,.2-.16.36-.36.36Zm-35.27-.72h34.91V.72H.72v34.76Z"/>
            <path class="cls-23" d="m252.96,36.2h-35.48c-.2,0-.36-.16-.36-.36V.36c0-.2.16-.36.36-.36h35.48c.2,0,.36.16.36.36v35.48c0,.2-.16.36-.36.36Zm-35.12-.72h34.76V.72h-34.76v34.76Z"/>
            <circle class="cls-14" cx="19.16" cy="18.25" r="10.49" transform="translate(-2.67 3.29) rotate(-9.19)"/>
            <path class="cls-23" d="m19.16,21.86h-.08c-1.94-.04-3.49-1.59-3.53-3.52,0-2.07,1.62-3.69,3.61-3.69s3.61,1.62,3.61,3.61-1.62,3.61-3.61,3.61Zm0-6.49c-1.59,0-2.89,1.29-2.89,2.89.03,1.61,1.27,2.85,2.82,2.89l.07.36v-.36c1.59,0,2.89-1.29,2.89-2.89s-1.29-2.89-2.89-2.89Z"/>
            <path class="cls-23" d="m19.08,18.08c-.2,0-.36-.16-.36-.36v-2.57c0-.2.16-.36.36-.36s.36.16.36.36v2.57c0,.2-.16.36-.36.36Z"/>
            <path class="cls-23" d="m19.08,22.01c-.2,0-.36-.16-.36-.36v-2.57c0-.2.16-.36.36-.36s.36.16.36.36v2.57c0,.2-.16.36-.36.36Z"/>
            <path class="cls-23" d="m22.25,18.69h-2.42c-.2,0-.36-.16-.36-.36s.16-.36.36-.36h2.42c.2,0,.36.16.36.36s-.16.36-.36.36Z"/>
            <path class="cls-23" d="m19.16,19.29c-.57,0-1.04-.47-1.04-1.04,0-.53.41-.98.93-1.03.04,0,.09-.01.11-.01.57,0,1.04.47,1.04,1.04,0,.01,0,.1,0,.12-.06.52-.51.92-1.04.92Zm0-1.36c-.2.02-.32.16-.32.32,0,.18.14.32.32.32.16,0,.3-.13.32-.28,0-.21-.15-.35-.32-.35Z"/>
            <path class="cls-23" d="m18.33,18.69h-2.42c-.2,0-.36-.16-.36-.36s.16-.36.36-.36h2.42c.2,0,.36.16.36.36s-.16.36-.36.36Z"/>
            <circle class="cls-14" cx="236.28" cy="18.25" r="10.49" transform="translate(.55 42.62) rotate(-10.32)"/>
            <path class="cls-23" d="m236.28,21.86h-.08c-1.94-.04-3.49-1.59-3.53-3.52,0-2.07,1.62-3.69,3.61-3.69s3.61,1.62,3.61,3.61-1.62,3.61-3.61,3.61Zm0-6.49c-1.59,0-2.89,1.29-2.89,2.89.03,1.61,1.27,2.85,2.82,2.89l.07.36v-.36c1.59,0,2.89-1.29,2.89-2.89s-1.29-2.89-2.89-2.89Z"/>
            <path class="cls-23" d="m236.2,18.08c-.2,0-.36-.16-.36-.36v-2.57c0-.2.16-.36.36-.36s.36.16.36.36v2.57c0,.2-.16.36-.36.36Z"/>
            <path class="cls-23" d="m236.2,22.01c-.2,0-.36-.16-.36-.36v-2.57c0-.2.16-.36.36-.36s.36.16.36.36v2.57c0,.2-.16.36-.36.36Z"/>
            <path class="cls-23" d="m239.37,18.69h-2.57c-.2,0-.36-.16-.36-.36s.16-.36.36-.36h2.57c.2,0,.36.16.36.36s-.16.36-.36.36Z"/>
            <path class="cls-23" d="m236.28,19.29c-.57,0-1.04-.47-1.04-1.04,0-.53.41-.98.93-1.03.04,0,.09-.01.11-.01.57,0,1.04.47,1.04,1.04,0,.03,0,.07-.01.11-.04.52-.49.93-1.02.93Zm0-1.36c-.2.02-.32.16-.32.32,0,.18.14.32.32.32.16,0,.3-.12.31-.27,0-.02,0-.04.01-.06-.01-.17-.15-.3-.32-.3Z"/>
            <path class="cls-23" d="m235.45,18.69h-2.57c-.2,0-.36-.16-.36-.36s.16-.36.36-.36h2.57c.2,0,.36.16.36.36s-.16.36-.36.36Z"/>
          </g>
        </g>
        <g class="cls-20">
          <rect class="cls-6" x="35.99" y="11.04" width="12.58" height="24.8"/>
        </g>
        <g class="cls-11">
          <rect class="cls-3" x="204.82" y="11.04" width="12.58" height="24.8"/>
        </g>
        <g class="cls-16">
          <rect class="cls-4" x="35.99" y="10.93" width="181.41" height="12.58"/>
        </g>
      </g>
    </g>
  </g>
</svg>