<?xml version="1.0" encoding="UTF-8"?>
<svg xmlns="http://www.w3.org/2000/svg" xmlns:xlink="http://www.w3.org/1999/xlink" viewBox="0 0 152.994 207.749">
  <defs>
    <style>
      .cls-1 {
        fill: #7896c1;
      }

      .cls-2, .cls-3, .cls-4, .cls-5, .cls-6, .cls-7, .cls-8, .cls-9, .cls-10 {
        fill-rule: evenodd;
      }

      .cls-2, .cls-11 {
        fill: #d0d2d3;
      }

      .cls-12, .cls-5 {
        fill: #ddd3cc;
      }

      .cls-12, .cls-5, .cls-10 {
        mix-blend-mode: multiply;
      }

      .cls-3 {
        fill: #fff;
      }

      .cls-13 {
        fill: #a82d24;
      }

      .cls-14 {
        isolation: isolate;
      }

      .cls-15 {
        fill: #c95b5b;
      }

      .cls-16, .cls-9 {
        fill: #87a2dd;
      }

      .cls-4 {
        fill: #6d6e70;
      }

      .cls-17 {
        fill: #c4d6f7;
      }

      .cls-6 {
        fill: #527fbf;
      }

      .cls-18 {
        fill: #e27171;
      }

      .cls-19 {
        fill: #4c4e4d;
      }

      .cls-20 {
        fill: #7488a5;
      }

      .cls-21 {
        fill: #5a7eb7;
      }

      .cls-7 {
        fill: #e8f1f9;
        opacity: .5;
      }

      .cls-8 {
        fill: #cbdbf7;
      }

      .cls-22 {
        fill: url(#linear-gradient);
      }

      .cls-10 {
        fill: #c9ccd3;
      }
    </style>
    <linearGradient id="linear-gradient" x1="49.405" y1="102.076" x2="131.838" y2="102.076" gradientUnits="userSpaceOnUse">
      <stop offset="0" stop-color="#de9ea3"/>
      <stop offset=".976" stop-color="#cf4561"/>
    </linearGradient>
  </defs>
  <g class="cls-14">
    <g id="Layer_1" data-name="Layer 1">
      <path class="cls-5" d="m148.2,55.712H14.252c-1.368,0-2.488,1.053-2.488,2.336v103.521c0,1.284,1.12,2.335,2.488,2.335h133.947c2.642,0,4.795-2.022,4.795-4.502V60.215c0-2.48-2.154-4.503-4.795-4.503Z"/>
      <path class="cls-5" d="m142.83,51.678H8.883c-1.368,0-2.488,1.053-2.488,2.336v103.521c0,1.284,1.12,2.335,2.488,2.335h133.947c2.642,0,4.795-2.022,4.795-4.502V56.181c0-2.48-2.154-4.503-4.795-4.503Z"/>
      <path class="cls-12" d="m34.643,14.704H15.087c-4.484,0-5.973,1.4-5.973,5.61v18.366c0,4.21,1.489,5.61,5.973,5.61h19.556c4.484,0,5.974-1.399,5.974-5.61v-18.366c0-4.21-1.489-5.61-5.974-5.61Z"/>
      <path class="cls-12" d="m32.763,12.309H13.208c-4.484,0-5.973,1.4-5.973,5.61v18.366c0,4.21,1.489,5.61,5.973,5.61h19.556c4.484,0,5.974-1.399,5.974-5.61v-18.366c0-4.21-1.489-5.61-5.974-5.61Z"/>
      <path class="cls-4" d="m8.578,47.98h128.883c2.641,0,4.795,2.023,4.795,4.503v99.187c0,2.48-2.153,4.502-4.795,4.502H8.578V47.98Z"/>
      <rect class="cls-19" x="8.578" y="47.98" width="5.006" height="108.192"/>
      <rect class="cls-19" x="49.405" y="47.98" width="83.921" height="108.192"/>
      <path class="cls-3" d="m11.065,50.316h126.395c1.268,0,2.308.976,2.308,2.167v99.187c0,1.191-1.039,2.167-2.308,2.167H11.065V50.316Z"/>
      <rect class="cls-11" x="11.065" y="50.316" width="2.519" height="103.521"/>
      <rect class="cls-11" x="47.041" y="50.316" width="2.519" height="103.521"/>
      <rect class="cls-11" x="49.405" y="50.316" width="83.921" height="103.521"/>
      <path class="cls-9" d="m1.026,153.837c0,1.284,1.12,2.335,2.488,2.335h7.552V47.98H3.513c-1.368,0-2.488,1.053-2.488,2.336v103.521Z"/>
      <rect class="cls-21" x="8.578" y="47.98" width="2.488" height="108.192"/>
      <g>
        <rect class="cls-20" x="49.405" y="47.98" width="82.433" height="108.192"/>
        <rect class="cls-22" x="49.405" y="50.316" width="82.433" height="103.521"/>
        <rect class="cls-21" x="48.483" y="47.98" width="13.214" height="108.192"/>
        <rect class="cls-1" x="48.483" y="47.98" width="11.366" height="108.192"/>
        <rect class="cls-17" x="48.483" y="50.316" width="11.366" height="103.521"/>
      </g>
      <g>
        <path class="cls-2" d="m43.764,116.697c-6.077-.413-13.838-4.864-24.382-4.537-.246,7.143-6.655,22.176-6.938,32.891,9.103,3.262,18.595,2.739,24.383,4.537.952-6.866,8.422-24.11,6.937-32.891Z"/>
        <g>
          <path class="cls-8" d="m15.371,142.968c9.102,3.262,18.594,2.738,24.382,4.537.952-6.866,8.423-24.11,6.937-32.892-6.077-.412-13.837-4.863-24.382-4.536-.245,7.142-6.655,22.175-6.937,32.891Z"/>
          <path class="cls-6" d="m16.76,141.733c8.313,2.979,16.984,2.502,22.273,4.143.868-6.271,7.69-22.022,6.336-30.043-5.554-.377-12.64-4.443-22.271-4.143-.228,6.524-6.081,20.255-6.339,30.043Z"/>
          <path class="cls-9" d="m18.524,140.163c7.313,2.621,14.94,2.201,19.59,3.645.765-5.514,6.766-19.369,5.577-26.425-4.886-.331-11.123-3.907-19.592-3.646-.2,5.741-5.347,17.819-5.575,26.427Z"/>
        </g>
      </g>
      <g>
        <path class="cls-2" d="m38.641,62.097c-5.906,1.407-14.765-.521-24.662,2.91,2.163,6.852,1.126,23.016,4.454,33.268,9.733.402,18.567-2.904,24.663-2.91-1.4-6.798-.099-25.375-4.455-33.268Z"/>
        <g>
          <path class="cls-8" d="m20.512,95.432c9.732.402,18.565-2.904,24.662-2.91-1.401-6.798-.098-25.375-4.455-33.269-5.906,1.408-14.764-.52-24.662,2.912,2.165,6.851,1.126,23.014,4.455,33.267Z"/>
          <path class="cls-6" d="m21.415,93.849c8.89.367,16.958-2.653,22.529-2.66-1.281-6.207-.092-23.175-4.069-30.388-5.398,1.286-13.487-.475-22.526,2.66,1.974,6.259,1.028,21.023,4.067,30.388Z"/>
          <path class="cls-9" d="m22.562,91.837c7.819.323,14.918-2.333,19.816-2.339-1.125-5.459-.08-20.385-3.576-26.729-4.749,1.132-11.867-.417-19.818,2.338,1.737,5.507.905,18.493,3.578,26.73Z"/>
        </g>
      </g>
      <polygon class="cls-7" points="140.197 154.251 140.197 49.706 69.926 153.971 140.197 154.251"/>
      <polygon class="cls-10" points="4.707 49.706 4.707 154.251 74.978 49.986 4.707 49.706"/>
      <g>
        <path class="cls-21" d="m35.426,34.191c0,4.21-1.489,5.61-5.973,5.61H9.897c-4.484,0-5.973-1.399-5.973-5.61V15.826c0-4.21,1.489-5.61,5.973-5.61h19.556c4.484,0,5.973,1.4,5.973,5.61v18.366Z"/>
        <path class="cls-16" d="m33.306,33.228c0,3.644-.998,4.584-4.881,4.584H10.923c-3.882,0-4.881-.94-4.881-4.584v-16.438c0-3.645.998-4.584,4.881-4.584h17.502c3.882,0,4.881.94,4.881,4.584v16.438Z"/>
        <path class="cls-17" d="m30.05,31.744c0,2.777-.247,3.007-3.204,3.007h-14.347c-2.953,0-3.2-.23-3.2-3.007v-13.471c0-2.777.246-3.007,3.2-3.007h14.347c2.956,0,3.204.23,3.204,3.007v13.471Z"/>
      </g>
      <path class="cls-12" d="m33.211,166.985H13.655c-4.484,0-5.973,1.4-5.973,5.61v18.366c0,4.21,1.489,5.61,5.973,5.61h19.556c4.484,0,5.973-1.399,5.973-5.61v-18.366c0-4.21-1.489-5.61-5.973-5.61Z"/>
      <path class="cls-12" d="m31.332,164.59H11.776c-4.484,0-5.973,1.4-5.973,5.61v18.366c0,4.21,1.489,5.61,5.973,5.61h19.556c4.484,0,5.973-1.399,5.973-5.61v-18.366c0-4.21-1.489-5.61-5.973-5.61Z"/>
      <g>
        <path class="cls-13" d="m35.426,185.792c0,4.21-1.489,5.61-5.973,5.61H9.897c-4.484,0-5.973-1.399-5.973-5.61v-18.366c0-4.21,1.489-5.61,5.973-5.61h19.556c4.484,0,5.973,1.4,5.973,5.61v18.366Z"/>
        <path class="cls-15" d="m33.306,184.829c0,3.644-.998,4.584-4.881,4.584H10.923c-3.882,0-4.881-.94-4.881-4.584v-16.438c0-3.645.998-4.584,4.881-4.584h17.502c3.882,0,4.881.94,4.881,4.584v16.438Z"/>
        <path class="cls-18" d="m30.05,183.345c0,2.777-.247,3.007-3.204,3.007h-14.347c-2.953,0-3.2-.23-3.2-3.007v-13.471c0-2.777.246-3.007,3.2-3.007h14.347c2.956,0,3.204.23,3.204,3.007v13.471Z"/>
      </g>
      <g>
        <rect class="cls-12" x="0" y="0" width="10.204" height="207.749"/>
        <rect class="cls-12" x="0" y="0" width="4.566" height="207.749"/>
      </g>
    </g>
  </g>
</svg>