<?xml version="1.0" encoding="UTF-8"?>
<svg id="Layer_1" data-name="Layer 1" xmlns="http://www.w3.org/2000/svg" viewBox="0 0 257.58 175.88">
  <defs>
    <style>
      .cls-1 {
        fill: #658dc1;
      }

      .cls-2 {
        fill: #76a1cd;
      }

      .cls-3 {
        fill: #c49a6c;
      }

      .cls-4 {
        fill: #cad1ea;
      }

      .cls-5 {
        fill: #ecf0f9;
      }

      .cls-6 {
        fill: #d9def0;
      }

      .cls-7 {
        fill: #e6e8f4;
      }
    </style>
  </defs>
  <rect class="cls-5" x="8.37" y="4.28" width="241.53" height="167.15"/>
  <rect class="cls-7" x="218.87" y="2.76" width="31.04" height="170.21"/>
  <rect class="cls-6" x="8.37" y="2.84" width="241.53" height="5.57"/>
  <rect class="cls-6" x="8.37" y="167.31" width="241.53" height="5.57"/>
  <g>
    <path class="cls-1" d="m16.92,0h188.05c1.56,0,2.83,1.27,2.83,2.83v19.58c0,1.56-1.27,2.83-2.83,2.83H16.92c-1.56,0-2.83-1.27-2.83-2.83V2.83c0-1.56,1.27-2.83,2.83-2.83Z"/>
    <rect class="cls-1" x="14.09" y="151.13" width="193.72" height="24.75" rx="2.83" ry="2.83"/>
    <path class="cls-2" d="m16.92,5.62h188.05c1.56,0,2.83,1.27,2.83,2.83v158.8c0,1.56-1.27,2.83-2.83,2.83H16.92c-1.56,0-2.83-1.27-2.83-2.83V8.46c0-1.56,1.27-2.83,2.83-2.83Z"/>
  </g>
  <rect class="cls-3" y=".58" width="8.37" height="174.61" rx="2.83" ry="2.83"/>
  <path class="cls-3" d="m252.04.58h2.71c1.56,0,2.83,1.27,2.83,2.83v168.94c0,1.56-1.27,2.83-2.83,2.83h-2.71c-1.56,0-2.83-1.27-2.83-2.83V3.41c0-1.56,1.27-2.83,2.83-2.83Z"/>
  <g>
    <path class="cls-1" d="m221.93,85.54c-4.6,0-8.33-3.36-8.33-7.5V19.89c0-4.14,3.73-7.5,8.33-7.5h14.46c4.6,0,8.33,3.36,8.33,7.5v58.15c0,4.15-3.73,7.5-8.33,7.5h-14.46Z"/>
    <path class="cls-2" d="m227.9,81.58c-2.99,0-5.41-3-5.41-6.69V23.04c0-3.69,2.42-6.69,5.41-6.69h9.38c2.99,0,5.41,3,5.41,6.69v51.85c0,3.7-2.42,6.69-5.41,6.69h-9.38Z"/>
    <path class="cls-4" d="m201.55,75.56c-3.34,0-6.06-2.44-6.06-5.45V27.82c0-3.01,2.71-5.45,6.06-5.45h10.51c3.35,0,6.06,2.44,6.06,5.45v42.28c0,3.01-2.71,5.45-6.06,5.45h-10.51Z"/>
    <path class="cls-5" d="m205.89,72.68c-2.17,0-3.93-2.18-3.93-4.86V30.12c0-2.69,1.76-4.87,3.93-4.87h6.82c2.17,0,3.93,2.18,3.93,4.87v37.7c0,2.68-1.76,4.86-3.93,4.86h-6.82Z"/>
  </g>
  <g>
    <path class="cls-1" d="m221.93,163.54c-4.6,0-8.33-3.36-8.33-7.5v-58.15c0-4.14,3.73-7.5,8.33-7.5h14.46c4.6,0,8.33,3.36,8.33,7.5v58.15c0,4.14-3.73,7.5-8.33,7.5h-14.46Z"/>
    <path class="cls-2" d="m227.9,159.58c-2.99,0-5.41-3-5.41-6.69v-51.85c0-3.7,2.42-6.69,5.41-6.69h9.38c2.98,0,5.41,2.99,5.41,6.69v51.85c0,3.69-2.42,6.69-5.41,6.69h-9.38Z"/>
    <path class="cls-4" d="m201.55,153.56c-3.34,0-6.06-2.44-6.06-5.45v-42.28c0-3.01,2.71-5.45,6.06-5.45h10.51c3.35,0,6.06,2.44,6.06,5.45v42.28c0,3.01-2.71,5.45-6.06,5.45h-10.51Z"/>
    <path class="cls-5" d="m205.89,150.67c-2.17,0-3.93-2.18-3.93-4.86v-37.7c0-2.68,1.76-4.86,3.93-4.86h6.82c2.17,0,3.93,2.18,3.93,4.86v37.7c0,2.69-1.76,4.86-3.93,4.86h-6.82Z"/>
  </g>
</svg>