<?xml version="1.0" encoding="UTF-8"?>
<svg xmlns="http://www.w3.org/2000/svg" xmlns:xlink="http://www.w3.org/1999/xlink" viewBox="0 0 196.8 178.09">
  <defs>
    <style>
      .cls-1 {
        fill: #fff;
      }

      .cls-2 {
        fill: url(#linear-gradient);
      }

      .cls-2, .cls-3 {
        mix-blend-mode: multiply;
      }

      .cls-4 {
        fill: #939598;
      }

      .cls-5 {
        isolation: isolate;
      }

      .cls-6 {
        fill: #808285;
      }

      .cls-3 {
        fill: url(#linear-gradient-2);
      }

      .cls-7 {
        filter: url(#luminosity-noclip);
      }

      .cls-8 {
        mask: url(#mask-1);
      }

      .cls-9 {
        mask: url(#mask);
      }

      .cls-10 {
        fill: #def0fa;
      }

      .cls-11 {
        fill: #26281e;
      }
    </style>
    <filter id="luminosity-noclip" x=".5" y="7.48" width="193.3" height="12.58" color-interpolation-filters="sRGB" filterUnits="userSpaceOnUse">
      <feFlood flood-color="#fff" result="bg"/>
      <feBlend in="SourceGraphic" in2="bg"/>
    </filter>
    <filter id="luminosity-noclip-2" x=".5" y="-8280.55" width="193.3" height="32766" color-interpolation-filters="sRGB" filterUnits="userSpaceOnUse">
      <feFlood flood-color="#fff" result="bg"/>
      <feBlend in="SourceGraphic" in2="bg"/>
    </filter>
    <mask id="mask-1" x=".5" y="-8280.55" width="193.3" height="32766" maskUnits="userSpaceOnUse"/>
    <linearGradient id="linear-gradient" x1="-1566.2" y1="204.29" x2="-1566.2" y2="191.7" gradientTransform="translate(-1469.05 -184.22) rotate(-180) scale(1 -1)" gradientUnits="userSpaceOnUse">
      <stop offset="0" stop-color="#000"/>
      <stop offset="1" stop-color="#fff"/>
    </linearGradient>
    <mask id="mask" x=".5" y="7.48" width="193.3" height="12.58" maskUnits="userSpaceOnUse">
      <g class="cls-7">
        <g class="cls-8">
          <rect class="cls-2" x=".5" y="7.48" width="193.3" height="12.58"/>
        </g>
      </g>
    </mask>
    <linearGradient id="linear-gradient-2" x1="-1566.2" y1="204.29" x2="-1566.2" y2="191.7" gradientTransform="translate(-1469.05 -184.22) rotate(-180) scale(1 -1)" gradientUnits="userSpaceOnUse">
      <stop offset="0" stop-color="#fff"/>
      <stop offset="1" stop-color="#000"/>
    </linearGradient>
  </defs>
  <g class="cls-5">
    <g id="Layer_1" data-name="Layer 1">
      <g>
        <g>
          <polygon class="cls-4" points="196.8 10.48 196.8 178.09 3.5 178.09 3.5 10.48 10.51 10.48 10.51 30.33 10.52 30.38 9.04 30.7 10.74 38.37 10.51 38.42 10.51 100.9 10.51 171.11 189.42 171.11 189.42 68.56 189.42 39.01 191.26 30.7 189.42 30.3 189.42 10.48 196.8 10.48"/>
          <polygon class="cls-4" points="196.8 3.5 196.8 10.48 189.42 10.48 10.51 10.48 3.5 10.48 3.5 3.5 196.8 3.5"/>
          <polygon class="cls-4" points="189.42 30.3 191.26 30.7 189.42 39.01 185.73 55.69 167.67 51.59 148.47 47.24 154.01 22.61 167.65 25.57 189.42 30.3"/>
          <polygon class="cls-4" points="189.42 68.56 189.42 171.11 10.51 171.11 10.51 100.9 55.89 100.9 55.15 68.56 189.42 68.56"/>
          <polygon class="cls-4" points="189.42 39.01 189.42 68.56 55.15 68.56 10.51 100.9 10.51 38.42 10.74 38.37 14.57 55.69 33.01 51.51 33.01 59.37 95.72 59.37 95.72 14.89 33.01 14.89 33.01 25.49 10.52 30.38 10.51 30.33 10.51 10.48 189.42 10.48 189.42 30.3 167.65 25.57 167.66 25.55 167.66 14.89 105.32 14.89 105.32 59.37 167.66 59.37 167.66 51.65 167.67 51.59 185.73 55.69 189.42 39.01"/>
          <polygon class="cls-4" points="167.67 51.59 167.66 51.65 167.66 59.37 105.32 59.37 105.32 14.89 167.66 14.89 167.66 25.55 167.65 25.57 154.01 22.61 148.47 47.24 167.67 51.59"/>
          <polygon class="cls-4" points="95.72 14.89 95.72 59.37 33.01 59.37 33.01 51.51 51.83 47.24 46.29 22.61 33.01 25.49 33.01 14.89 95.72 14.89"/>
          <polygon class="cls-4" points="55.15 68.56 55.89 100.9 10.51 100.9 55.15 68.56"/>
          <polygon class="cls-4" points="33.01 25.49 46.29 22.61 51.83 47.24 33.01 51.51 14.57 55.69 10.74 38.37 9.04 30.7 10.52 30.38 33.01 25.49"/>
        </g>
        <g>
          <g>
            <g>
              <polygon class="cls-6" points="193.8 7.48 193.8 175.09 .5 175.09 .5 7.48 7.51 7.48 7.51 27.33 7.52 27.38 6.04 27.7 7.74 35.37 7.51 35.42 7.51 97.9 7.51 168.11 186.42 168.11 186.42 65.56 186.42 36.01 188.26 27.7 186.42 27.3 186.42 7.48 193.8 7.48"/>
              <polygon class="cls-6" points="193.8 .5 193.8 7.48 186.42 7.48 7.51 7.48 .5 7.48 .5 .5 193.8 .5"/>
              <polygon class="cls-10" points="186.42 27.3 188.26 27.7 186.42 36.01 182.73 52.69 164.67 48.59 145.47 44.24 151.01 19.61 164.65 22.57 186.42 27.3"/>
              <polygon class="cls-10" points="186.42 65.56 186.42 168.11 7.51 168.11 7.51 97.9 52.89 97.9 52.15 65.56 186.42 65.56"/>
              <polygon class="cls-1" points="186.42 36.01 186.42 65.56 52.15 65.56 7.51 97.9 7.51 35.42 7.74 35.37 11.57 52.69 30.01 48.51 30.01 56.37 92.72 56.37 92.72 11.89 30.01 11.89 30.01 22.49 7.52 27.38 7.51 27.33 7.51 7.48 186.42 7.48 186.42 27.3 164.65 22.57 164.66 22.55 164.66 11.89 102.32 11.89 102.32 56.37 164.66 56.37 164.66 48.65 164.67 48.59 182.73 52.69 186.42 36.01"/>
              <polygon class="cls-1" points="164.67 48.59 164.66 48.65 164.66 56.37 102.32 56.37 102.32 11.89 164.66 11.89 164.66 22.55 164.65 22.57 151.01 19.61 145.47 44.24 164.67 48.59"/>
              <polygon class="cls-1" points="92.72 11.89 92.72 56.37 30.01 56.37 30.01 48.51 48.83 44.24 43.29 19.61 30.01 22.49 30.01 11.89 92.72 11.89"/>
              <polygon class="cls-1" points="52.15 65.56 52.89 97.9 7.51 97.9 52.15 65.56"/>
              <polygon class="cls-10" points="30.01 48.51 11.57 52.69 7.74 35.37 6.04 27.7 7.52 27.38 30.01 22.49 43.29 19.61 48.83 44.24 30.01 48.51"/>
            </g>
            <g>
              <path class="cls-11" d="m186.42,168.61H7.51c-.28,0-.5-.22-.5-.5s.22-.5.5-.5h178.41V35.42c0-.28.22-.5.5-.5s.5.22.5.5v132.69c0,.28-.22.5-.5.5Z"/>
              <path class="cls-11" d="m186.42,27.81c-.28,0-.5-.21-.5-.48V7.48c0-.28.22-.5.5-.5s.5.22.5.5v19.82c0,.28-.22.51-.5.51Z"/>
              <path class="cls-11" d="m193.8,7.98H.5c-.28,0-.5-.22-.5-.5s.22-.5.5-.5h193.3c.28,0,.5.22.5.5s-.22.5-.5.5Z"/>
              <path class="cls-11" d="m7.51,27.83c-.28,0-.5-.22-.5-.5V7.48c0-.28.22-.5.5-.5s.5.22.5.5v19.85c0,.28-.22.5-.5.5Z"/>
              <path class="cls-11" d="m7.51,168.61c-.28,0-.5-.22-.5-.5V35.42c0-.28.22-.5.5-.5s.5.22.5.5v132.69c0,.28-.22.5-.5.5Z"/>
              <path class="cls-11" d="m193.8,175.59H.5c-.28,0-.5-.22-.5-.5V.5C0,.22.22,0,.5,0h193.3c.28,0,.5.22.5.5v174.59c0,.28-.22.5-.5.5ZM1,174.59h192.3V1H1v173.59Z"/>
              <path class="cls-11" d="m92.72,56.87H30.01c-.28,0-.5-.22-.5-.5v-8.09c0-.28.22-.5.5-.5s.5.22.5.5v7.59h61.71V12.39H30.51v10.1c0,.28-.22.53-.5.53s-.5-.19-.5-.47v-10.66c0-.28.22-.5.5-.5h62.71c.28,0,.5.22.5.5v44.48c0,.28-.22.5-.5.5Z"/>
              <path class="cls-11" d="m164.66,56.87h-62.34c-.28,0-.5-.22-.5-.5V11.89c0-.28.22-.5.5-.5h62.34c.28,0,.5.22.5.5v10.66c0,.28-.22.5-.5.5s-.5-.22-.5-.5v-10.16h-61.34v43.48h61.34v-7.22c0-.28.22-.5.5-.5s.5.22.5.5v7.72c0,.28-.22.5-.5.5Z"/>
              <path class="cls-11" d="m186.42,66.06H52.15c-.28,0-.5-.22-.5-.5s.22-.5.5-.5h134.27c.28,0,.5.22.5.5s-.22.5-.5.5Z"/>
              <path class="cls-11" d="m11.57,53.19c-.09,0-.19-.03-.27-.08-.11-.07-.19-.18-.22-.31l-5.53-24.99c-.03-.13,0-.27.07-.38s.19-.19.31-.22l37.25-8.09c.28-.06.53.11.59.38l5.54,24.63c.06.27-.11.54-.38.6l-37.26,8.45s-.07.01-.11.01Zm-4.93-25.11l5.31,24.01,36.28-8.23-5.32-23.66L6.64,28.08Z"/>
              <path class="cls-11" d="m182.73,53.19s-.07,0-.11-.01l-37.26-8.45c-.27-.06-.44-.33-.38-.6l5.54-24.63c.06-.27.32-.44.59-.38l37.25,8.09c.13.03.24.11.31.22.07.11.1.25.07.38l-5.53,24.99c-.03.13-.11.24-.22.31-.08.05-.17.08-.27.08Zm-36.66-9.33l36.28,8.23,5.31-24.01-36.27-7.88-5.32,23.66Z"/>
              <path class="cls-11" d="m52.89,98.4H7.51c-.22,0-.41-.14-.48-.35-.07-.21,0-.43.18-.56l44.64-32.34c.15-.11.35-.12.52-.04.17.08.27.25.28.44l.74,32.34c0,.13-.05.26-.14.36-.09.1-.22.15-.36.15Zm-43.84-1h43.33l-.71-30.88-42.62,30.88Z"/>
            </g>
          </g>
          <g class="cls-9">
            <rect class="cls-3" x=".5" y="7.48" width="193.3" height="12.58"/>
          </g>
        </g>
      </g>
    </g>
  </g>
</svg>