<?xml version="1.0" encoding="UTF-8"?>
<svg xmlns="http://www.w3.org/2000/svg" xmlns:xlink="http://www.w3.org/1999/xlink" viewBox="0 0 162.78 259.29">
  <defs>
    <style>
      .cls-1 {
        fill: #7896c1;
      }

      .cls-2, .cls-3, .cls-4, .cls-5, .cls-6, .cls-7, .cls-8, .cls-9 {
        fill-rule: evenodd;
      }

      .cls-2, .cls-10 {
        fill: #d0d2d3;
      }

      .cls-3 {
        fill: #f47690;
      }

      .cls-4 {
        fill: #575b6e;
      }

      .cls-5 {
        fill: #fff;
      }

      .cls-11 {
        isolation: isolate;
      }

      .cls-6, .cls-12 {
        fill: #c43b58;
      }

      .cls-7 {
        fill: url(#linear-gradient-2);
      }

      .cls-8 {
        fill: url(#linear-gradient);
      }

      .cls-13 {
        fill: #c4d6f7;
      }

      .cls-9 {
        fill: #ddd3cc;
        mix-blend-mode: multiply;
      }

      .cls-14 {
        fill: #4c4e4d;
      }

      .cls-15 {
        fill: url(#linear-gradient-3);
      }
    </style>
    <linearGradient id="linear-gradient" x1="249.44" y1="-48.4" x2="308.69" y2="-1.46" gradientTransform="translate(112.23 331.22) rotate(-90)" gradientUnits="userSpaceOnUse">
      <stop offset="0" stop-color="#de9ea3"/>
      <stop offset=".98" stop-color="#cf4561"/>
    </linearGradient>
    <linearGradient id="linear-gradient-2" x1="254.81" y1="-79.29" x2="365.01" y2="9.36" xlink:href="#linear-gradient"/>
    <linearGradient id="linear-gradient-3" x1="140.6" y1="-82.47" x2="199.1" y2="23.06" xlink:href="#linear-gradient"/>
  </defs>
  <g class="cls-11">
    <g id="Layer_1" data-name="Layer 1">
      <path class="cls-9" d="m0,12.31v9.02s0,4.43,0,4.43v4.48s0,62.13,0,62.13v1.64s0,18.59,0,18.59v3.29S0,240.75,0,240.75v2.65s0,7.35,0,7.35c0,4.71,5.19,8.54,11.57,8.54h130.56c6.37,0,11.57-3.83,11.57-8.54v-7.35s0-2.65,0-2.65v-124.86s0-3.29,0-3.29v-18.59s0-1.64,0-1.64V30.24s0-4.48,0-4.48v-4.43s0-9.02,0-9.02c0-2.43-2.7-4.43-6-4.43H6C2.7,7.89,0,9.88,0,12.31Z"/>
      <path class="cls-9" d="m4.21,8.25v9.02s0,4.43,0,4.43v4.48s0,62.13,0,62.13v1.64s0,18.59,0,18.59v3.29s0,124.86,0,124.86v2.65s0,7.35,0,7.35c0,4.7,5.19,8.54,11.57,8.54h130.56c6.37,0,11.57-3.83,11.57-8.54v-7.35s0-2.65,0-2.65v-124.86s0-3.29,0-3.29v-18.59s0-1.64,0-1.64V26.18s0-4.48,0-4.48v-4.43s0-9.02,0-9.02c0-2.43-2.7-4.43-6-4.43H10.22c-3.3,0-6,1.99-6,4.43Z"/>
      <g>
        <path class="cls-4" d="m162.78,13.45v229.42c0,4.7-5.2,8.54-11.57,8.54H20.64c-6.37,0-11.57-3.83-11.57-8.54V13.45h153.7Z"/>
        <rect class="cls-14" x="9.07" y="13.45" width="153.7" height="8.91"/>
        <rect class="cls-14" x="9.07" y="86.12" width="153.7" height="149.39"/>
        <path class="cls-5" d="m156.77,17.87v224.99c0,2.26-2.51,4.11-5.57,4.11H20.64c-3.06,0-5.56-1.85-5.56-4.11V17.87h141.7Z"/>
        <rect class="cls-10" x="15.08" y="17.87" width="141.7" height="4.48"/>
        <rect class="cls-10" x="15.08" y="86.12" width="141.7" height="149.39"/>
        <g>
          <path class="cls-2" d="m52.28,33.37c.45,10.84-9.02,25.45-5.59,44.05,18.33-.95,58.33,7.49,85.81,5.93,6.09-16.75,2.42-33.46,5.59-44.06-17.79-.35-63.72-10.25-85.81-5.92Z"/>
          <g>
            <path class="cls-3" d="m126.45,78.57c6.09-16.75,2.42-33.46,5.59-44.06-17.79-.35-63.72-10.25-85.8-5.92.45,10.84-9.03,25.45-5.59,44.05,18.33-.95,58.33,7.49,85.8,5.93Z"/>
            <path class="cls-6" d="m122.95,76.34c5.57-15.29,2.21-30.56,5.1-40.24-16.24-.32-58.19-9.36-78.37-5.41.4,9.91-8.25,23.24-5.11,40.23,16.74-.86,53.29,6.86,78.38,5.41Z"/>
            <path class="cls-8" d="m118.5,73.53c4.9-13.46,1.95-26.88,4.49-35.4-14.29-.29-51.19-8.24-68.94-4.76.36,8.71-7.24,20.45-4.5,35.4,14.73-.75,46.87,6.03,68.94,4.76Z"/>
          </g>
        </g>
        <path class="cls-7" d="m15.08,0c-3.3,0-6,1.99-6,4.43v13.45s153.7,0,153.7,0V4.43C162.78,1.99,160.07,0,156.77,0H15.08Z"/>
        <rect class="cls-12" x="9.07" y="13.45" width="153.7" height="4.43"/>
        <g>
          <rect class="cls-12" x="9.07" y="86.12" width="153.7" height="146.74"/>
          <rect class="cls-15" x="15.08" y="86.12" width="141.7" height="146.74"/>
          <rect class="cls-12" x="9.07" y="84.48" width="153.7" height="23.52"/>
          <rect class="cls-1" x="9.07" y="84.48" width="153.7" height="20.23"/>
          <rect class="cls-13" x="15.08" y="84.48" width="141.7" height="20.23"/>
        </g>
      </g>
    </g>
  </g>
</svg>