<?xml version="1.0" encoding="UTF-8"?>
<svg xmlns="http://www.w3.org/2000/svg" xmlns:xlink="http://www.w3.org/1999/xlink" viewBox="0 0 59.45 159">
  <defs>
    <style>
      .cls-1 {
        fill: #7896c1;
      }

      .cls-2, .cls-3, .cls-4, .cls-5, .cls-6, .cls-7, .cls-8, .cls-9 {
        fill-rule: evenodd;
      }

      .cls-2, .cls-10 {
        fill: #d0d2d3;
      }

      .cls-3 {
        fill: #f47690;
      }

      .cls-4 {
        fill: #575b6e;
      }

      .cls-5 {
        fill: #fff;
      }

      .cls-11 {
        isolation: isolate;
      }

      .cls-6, .cls-12 {
        fill: #c43b58;
      }

      .cls-7 {
        fill: url(#linear-gradient-2);
      }

      .cls-8 {
        fill: url(#linear-gradient);
      }

      .cls-13 {
        fill: #c4d6f7;
      }

      .cls-9 {
        fill: #ddd3cc;
        mix-blend-mode: multiply;
      }

      .cls-14 {
        fill: #4c4e4d;
      }

      .cls-15 {
        fill: url(#linear-gradient-3);
      }
    </style>
    <linearGradient id="linear-gradient" x1="63.68" y1="71.17" x2="90.38" y2="92.32" gradientTransform="translate(-49.77 109.22) rotate(-90)" gradientUnits="userSpaceOnUse">
      <stop offset="0" stop-color="#de9ea3"/>
      <stop offset=".98" stop-color="#cf4561"/>
    </linearGradient>
    <linearGradient id="linear-gradient-2" x1="76.95" y1="60.24" x2="120.52" y2="95.29" xlink:href="#linear-gradient"/>
    <linearGradient id="linear-gradient-3" x1="-2.76" y1="55.56" x2="23.89" y2="103.65" xlink:href="#linear-gradient"/>
  </defs>
  <g class="cls-11">
    <g id="Layer_1" data-name="Layer 1">
      <path class="cls-9" d="m0,7.55v5.53s0,2.72,0,2.72v2.75s0,38.1,0,38.1v1.01s0,11.4,0,11.4v2.01S0,147.63,0,147.63v1.63s0,4.51,0,4.51c0,2.89,1.9,5.23,4.22,5.23h47.69c2.33,0,4.23-2.35,4.23-5.23v-4.51s0-1.63,0-1.63v-76.57s0-2.01,0-2.01v-11.4s0-1.01,0-1.01V18.54s0-2.75,0-2.75v-2.72s0-5.53,0-5.53c0-1.49-.99-2.72-2.19-2.72H2.19C.99,4.84,0,6.06,0,7.55Z"/>
      <path class="cls-9" d="m1.54,5.06v5.53s0,2.72,0,2.72v2.75s0,38.1,0,38.1v1.01s0,11.4,0,11.4v2.01s0,76.57,0,76.57v1.63s0,4.51,0,4.51c0,2.88,1.9,5.23,4.22,5.23h47.69c2.33,0,4.23-2.35,4.23-5.23v-4.51s0-1.63,0-1.63v-76.57s0-2.01,0-2.01v-11.4s0-1.01,0-1.01V16.05s0-2.75,0-2.75v-2.72s0-5.53,0-5.53c0-1.49-.99-2.72-2.19-2.72H3.73c-1.21,0-2.19,1.22-2.19,2.72Z"/>
      <g>
        <path class="cls-4" d="m59.45,8.24v140.68c0,2.88-1.9,5.23-4.23,5.23H7.54c-2.33,0-4.22-2.35-4.22-5.23V8.24h56.14Z"/>
        <rect class="cls-14" x="3.31" y="8.24" width="56.14" height="5.46"/>
        <rect class="cls-14" x="3.31" y="52.81" width="56.14" height="91.61"/>
        <path class="cls-5" d="m57.26,10.96v137.97c0,1.39-.92,2.52-2.03,2.52H7.54c-1.12,0-2.03-1.14-2.03-2.52V10.96h51.75Z"/>
        <rect class="cls-10" x="5.51" y="10.96" width="51.75" height="2.75"/>
        <rect class="cls-10" x="5.51" y="52.81" width="51.75" height="91.61"/>
        <g>
          <path class="cls-2" d="m19.1,20.46c.16,6.65-3.29,15.6-2.04,27.01,6.69-.58,21.31,4.59,31.34,3.63,2.23-10.27.88-20.52,2.04-27.02-6.5-.22-23.27-6.28-31.34-3.63Z"/>
          <g>
            <path class="cls-3" d="m46.18,48.18c2.23-10.27.88-20.52,2.04-27.02-6.5-.22-23.27-6.28-31.34-3.63.16,6.65-3.3,15.6-2.04,27.01,6.69-.58,21.31,4.59,31.34,3.63Z"/>
            <path class="cls-6" d="m44.91,46.81c2.03-9.38.81-18.74,1.86-24.68-5.93-.2-21.25-5.74-28.62-3.32.15,6.08-3.01,14.25-1.87,24.67,6.11-.53,19.46,4.2,28.63,3.32Z"/>
            <path class="cls-8" d="m43.28,45.09c1.79-8.25.71-16.48,1.64-21.7-5.22-.18-18.7-5.05-25.18-2.92.13,5.34-2.65,12.54-1.64,21.7,5.38-.46,17.12,3.7,25.18,2.92Z"/>
          </g>
        </g>
        <path class="cls-7" d="m5.51,0c-1.21,0-2.19,1.22-2.19,2.72v8.24s56.14,0,56.14,0V2.72C59.45,1.22,58.46,0,57.26,0H5.51Z"/>
        <rect class="cls-12" x="3.31" y="8.24" width="56.14" height="2.72"/>
        <g>
          <rect class="cls-12" x="3.31" y="52.81" width="56.14" height="89.98"/>
          <rect class="cls-15" x="5.51" y="52.81" width="51.75" height="89.98"/>
          <rect class="cls-12" x="3.31" y="51.8" width="56.14" height="14.42"/>
          <rect class="cls-1" x="3.31" y="51.8" width="56.14" height="12.41"/>
          <rect class="cls-13" x="5.51" y="51.8" width="51.75" height="12.41"/>
        </g>
      </g>
    </g>
  </g>
</svg>