<?xml version="1.0" encoding="UTF-8"?>
<svg xmlns="http://www.w3.org/2000/svg" xmlns:xlink="http://www.w3.org/1999/xlink" viewBox="0 0 159 59.45">
  <defs>
    <style>
      .cls-1 {
        fill: #7896c1;
      }

      .cls-2, .cls-3, .cls-4, .cls-5, .cls-6, .cls-7, .cls-8, .cls-9 {
        fill-rule: evenodd;
      }

      .cls-2, .cls-10 {
        fill: #d0d2d3;
      }

      .cls-3 {
        fill: #f47690;
      }

      .cls-4 {
        fill: #575b6e;
      }

      .cls-5 {
        fill: #fff;
      }

      .cls-11 {
        isolation: isolate;
      }

      .cls-6, .cls-12 {
        fill: #c43b58;
      }

      .cls-7 {
        fill: url(#linear-gradient-2);
      }

      .cls-8 {
        fill: url(#linear-gradient);
      }

      .cls-13 {
        fill: #c4d6f7;
      }

      .cls-9 {
        fill: #ddd3cc;
        mix-blend-mode: multiply;
      }

      .cls-14 {
        fill: #4c4e4d;
      }

      .cls-15 {
        fill: url(#linear-gradient-3);
      }
    </style>
    <linearGradient id="linear-gradient" x1="113.45" y1="21.39" x2="140.16" y2="42.55" gradientUnits="userSpaceOnUse">
      <stop offset="0" stop-color="#de9ea3"/>
      <stop offset=".98" stop-color="#cf4561"/>
    </linearGradient>
    <linearGradient id="linear-gradient-2" x1="126.73" y1="10.47" x2="170.29" y2="45.52" xlink:href="#linear-gradient"/>
    <linearGradient id="linear-gradient-3" x1="47.01" y1="5.79" x2="73.67" y2="53.88" xlink:href="#linear-gradient"/>
  </defs>
  <g class="cls-11">
    <g id="Layer_1" data-name="Layer 1">
      <path class="cls-9" d="m151.45,0H5.23C2.35,0,0,1.9,0,4.22v47.69c0,2.33,2.35,4.23,5.23,4.23h146.21c1.49,0,2.72-.99,2.72-2.19V2.19c0-1.21-1.22-2.19-2.72-2.19Z"/>
      <path class="cls-9" d="m153.94,1.54H7.72c-2.88,0-5.23,1.9-5.23,4.22v47.69c0,2.33,2.35,4.23,5.23,4.23h146.21c1.49,0,2.72-.99,2.72-2.19V3.73c0-1.21-1.22-2.19-2.72-2.19Z"/>
      <g>
        <path class="cls-4" d="m150.75,59.45H10.07c-2.88,0-5.23-1.9-5.23-4.23V7.54c0-2.33,2.35-4.22,5.23-4.22h140.68v56.14Z"/>
        <rect class="cls-14" x="145.29" y="3.31" width="5.46" height="56.14"/>
        <rect class="cls-14" x="14.58" y="3.31" width="91.61" height="56.14"/>
        <path class="cls-5" d="m148.04,57.26H10.07c-1.39,0-2.52-.92-2.52-2.03V7.54c0-1.12,1.14-2.03,2.52-2.03h137.97v51.75Z"/>
        <rect class="cls-10" x="145.29" y="5.51" width="2.75" height="51.75"/>
        <rect class="cls-10" x="14.58" y="5.51" width="91.61" height="51.75"/>
        <g>
          <path class="cls-2" d="m138.54,19.1c-6.65.16-15.6-3.29-27.01-2.04.58,6.69-4.59,21.31-3.63,31.34,10.27,2.23,20.52.88,27.02,2.04.22-6.5,6.28-23.27,3.63-31.34Z"/>
          <g>
            <path class="cls-3" d="m110.82,46.18c10.27,2.23,20.52.88,27.02,2.04.22-6.5,6.28-23.27,3.63-31.34-6.65.16-15.6-3.3-27.01-2.04.58,6.69-4.59,21.31-3.63,31.34Z"/>
            <path class="cls-6" d="m112.18,44.91c9.38,2.03,18.74.81,24.68,1.86.2-5.93,5.74-21.25,3.32-28.62-6.08.15-14.25-3.01-24.67-1.87.53,6.11-4.2,19.46-3.32,28.63Z"/>
            <path class="cls-8" d="m113.91,43.28c8.25,1.79,16.48.71,21.7,1.64.18-5.22,5.05-18.7,2.92-25.18-5.34.13-12.54-2.65-21.7-1.64.46,5.38-3.7,17.12-2.92,25.18Z"/>
          </g>
        </g>
        <path class="cls-7" d="m159,5.51c0-1.21-1.22-2.19-2.72-2.19h-8.24v56.14h8.24c1.49,0,2.72-.99,2.72-2.19V5.51Z"/>
        <rect class="cls-12" x="148.04" y="3.31" width="2.72" height="56.14"/>
        <g>
          <rect class="cls-12" x="16.21" y="3.31" width="89.98" height="56.14"/>
          <rect class="cls-15" x="16.21" y="5.51" width="89.98" height="51.75"/>
          <rect class="cls-12" x="92.77" y="3.31" width="14.42" height="56.14"/>
          <rect class="cls-1" x="94.79" y="3.31" width="12.41" height="56.14"/>
          <rect class="cls-13" x="94.79" y="5.51" width="12.41" height="51.75"/>
        </g>
      </g>
    </g>
  </g>
</svg>