<?xml version="1.0" encoding="UTF-8"?>
<svg xmlns="http://www.w3.org/2000/svg" xmlns:xlink="http://www.w3.org/1999/xlink" viewBox="0 0 344.68 273">
  <defs>
    <style>
      .cls-1 {
        fill: #e0dfdf;
      }

      .cls-2 {
        fill: #ecebeb;
      }

      .cls-3 {
        fill: #cfcfce;
      }

      .cls-4 {
        fill: #cbcaca;
      }

      .cls-5 {
        fill: url(#linear-gradient-2);
      }

      .cls-5, .cls-6, .cls-7, .cls-8, .cls-9, .cls-10, .cls-11, .cls-12, .cls-13, .cls-14 {
        stroke-linecap: round;
        stroke-linejoin: round;
      }

      .cls-5, .cls-6, .cls-8, .cls-9, .cls-10, .cls-12, .cls-13, .cls-14 {
        stroke: #959494;
        stroke-width: .03px;
      }

      .cls-6 {
        fill: url(#linear-gradient-5);
      }

      .cls-15 {
        fill: #e5e4e4;
      }

      .cls-16 {
        fill: #f9f8f8;
      }

      .cls-17 {
        fill: #fff;
      }

      .cls-18 {
        fill: #e2e1e0;
      }

      .cls-7 {
        stroke-width: .03px;
      }

      .cls-7, .cls-11 {
        stroke: #8f8f8f;
      }

      .cls-7, .cls-11, .cls-13 {
        fill: none;
      }

      .cls-19 {
        fill: url(#linear-gradient-13);
      }

      .cls-19, .cls-20, .cls-21, .cls-22, .cls-23, .cls-24, .cls-25, .cls-26 {
        mix-blend-mode: multiply;
      }

      .cls-27 {
        fill: #eae9e9;
      }

      .cls-28 {
        fill: #dad9d8;
      }

      .cls-29 {
        fill: #939598;
      }

      .cls-20 {
        fill: #f1594e;
      }

      .cls-30 {
        fill: url(#linear-gradient-15);
      }

      .cls-8 {
        fill: url(#linear-gradient-7);
      }

      .cls-31 {
        fill: #d7d6d6;
      }

      .cls-32 {
        fill: #c9c8c7;
      }

      .cls-33 {
        fill: #dddcdb;
      }

      .cls-34 {
        fill: #e1e0df;
      }

      .cls-9 {
        fill: url(#linear-gradient-6);
      }

      .cls-35 {
        fill: #e7e6e5;
      }

      .cls-36 {
        fill: #d8d7d6;
      }

      .cls-37 {
        fill: #d0cfcf;
      }

      .cls-38 {
        fill: url(#linear-gradient-14);
      }

      .cls-39 {
        fill: #e6e7e7;
      }

      .cls-40 {
        fill: #dedddc;
      }

      .cls-41 {
        isolation: isolate;
      }

      .cls-21 {
        fill: #c58042;
      }

      .cls-42 {
        fill: #c9c9c8;
      }

      .cls-43 {
        fill: #f5f4f4;
      }

      .cls-44 {
        fill: #e5e4e3;
      }

      .cls-45 {
        fill: #dbdad9;
      }

      .cls-46 {
        fill: #6e6f72;
      }

      .cls-47 {
        fill: #dbdada;
      }

      .cls-48 {
        fill: #f1f0ef;
      }

      .cls-49 {
        fill: #e8e7e6;
      }

      .cls-50 {
        fill: #dcdbdb;
      }

      .cls-22 {
        fill: #cd853a;
      }

      .cls-51 {
        fill: #eae9e8;
      }

      .cls-52 {
        fill: #ecebea;
      }

      .cls-53 {
        fill: #e7e5e5;
      }

      .cls-54 {
        fill: #e8e6e6;
      }

      .cls-55 {
        fill: #cfcecd;
      }

      .cls-56 {
        fill: url(#linear-gradient-11);
      }

      .cls-57 {
        fill: #e4e3e2;
      }

      .cls-58 {
        fill: #fbfafa;
      }

      .cls-59 {
        fill: #dcdbda;
      }

      .cls-60 {
        fill: #e3e2e1;
      }

      .cls-61 {
        fill: url(#linear-gradient-10);
      }

      .cls-62 {
        fill: #ebeae9;
      }

      .cls-63 {
        fill: #f3f2f1;
      }

      .cls-64 {
        fill: #d3d2d1;
      }

      .cls-65 {
        fill: #f7f7f6;
      }

      .cls-66 {
        fill: #cecdcc;
      }

      .cls-67 {
        fill: #e6e5e4;
      }

      .cls-68 {
        fill: #c7c6c5;
      }

      .cls-69 {
        fill: #f6f6f5;
      }

      .cls-70 {
        fill: #bdbec0;
      }

      .cls-71 {
        fill: #f0efee;
      }

      .cls-72 {
        fill: #d6d6d5;
      }

      .cls-23 {
        fill: url(#linear-gradient-9);
      }

      .cls-73 {
        fill: #f6f5f5;
      }

      .cls-10 {
        fill: url(#linear-gradient-3);
      }

      .cls-74 {
        fill: #fdfdfd;
      }

      .cls-75 {
        fill: #e8e7e7;
      }

      .cls-76 {
        mix-blend-mode: screen;
      }

      .cls-77 {
        fill: #f3f2f2;
      }

      .cls-78 {
        fill: #e4e3e3;
      }

      .cls-79 {
        fill: #fbfbfb;
      }

      .cls-80 {
        fill: #efeeed;
      }

      .cls-81 {
        fill: #d5d5d4;
      }

      .cls-82 {
        fill: #c8c7c6;
      }

      .cls-83 {
        fill: #f4f3f3;
      }

      .cls-84 {
        fill: #e9e8e8;
      }

      .cls-85 {
        fill: #cccbca;
      }

      .cls-86 {
        fill: #f2f1f1;
      }

      .cls-87 {
        fill: #d2d3d4;
      }

      .cls-88 {
        fill: #dfdedd;
      }

      .cls-89 {
        fill: #d1d0cf;
      }

      .cls-11 {
        stroke-width: .03px;
      }

      .cls-90 {
        fill: #e3e2e2;
      }

      .cls-91 {
        fill: #d4d3d2;
      }

      .cls-92 {
        fill: #999;
      }

      .cls-24 {
        fill: url(#linear-gradient-12);
      }

      .cls-93 {
        fill: #edeceb;
      }

      .cls-94 {
        fill: #e6e4e4;
      }

      .cls-95 {
        fill: #d5d4d3;
      }

      .cls-96 {
        fill: #b3b3b3;
      }

      .cls-25 {
        fill: #b8773a;
      }

      .cls-97 {
        fill: #e1e0e0;
      }

      .cls-98 {
        fill: #f2f1f0;
      }

      .cls-99 {
        fill: #fcfbfb;
      }

      .cls-100 {
        fill: #e2e1e1;
      }

      .cls-101 {
        fill: #e0dfde;
      }

      .cls-102 {
        fill: #d2d1d0;
      }

      .cls-103 {
        fill: #e9e8e7;
      }

      .cls-104 {
        fill: #f7f6f6;
      }

      .cls-105 {
        fill: #eeedec;
      }

      .cls-12 {
        fill: url(#linear-gradient-4);
      }

      .cls-106 {
        fill: #cac9c9;
      }

      .cls-107 {
        fill: #cdcccb;
      }

      .cls-108 {
        fill: #d9d8d7;
      }

      .cls-109 {
        fill: #fafaf9;
      }

      .cls-110 {
        fill: url(#linear-gradient-8);
      }

      .cls-14 {
        fill: url(#linear-gradient);
      }

      .cls-111 {
        fill: #e0e0df;
      }
    </style>
    <linearGradient id="linear-gradient" x1="259.71" y1="97.75" x2="336.1" y2="97.75" gradientUnits="userSpaceOnUse">
      <stop offset="0" stop-color="#c3c2c1"/>
      <stop offset="1" stop-color="#878787"/>
    </linearGradient>
    <linearGradient id="linear-gradient-2" x1="112.58" y1="61.84" x2="176.42" y2="61.84" gradientTransform="translate(443.56) rotate(-180) scale(1 -1)" gradientUnits="userSpaceOnUse">
      <stop offset="0" stop-color="#ebebeb"/>
      <stop offset="1" stop-color="#d7d6d5"/>
    </linearGradient>
    <linearGradient id="linear-gradient-3" x1="339.09" y1="54.76" x2="289.06" y2="57.18" gradientUnits="userSpaceOnUse">
      <stop offset="0" stop-color="#fff"/>
      <stop offset="1" stop-color="#acacaa"/>
    </linearGradient>
    <linearGradient id="linear-gradient-4" x1="36.19" y1="103.86" x2="103.9" y2="103.86" xlink:href="#linear-gradient"/>
    <linearGradient id="linear-gradient-5" x1="344.2" y1="65.8" x2="400.79" y2="65.8" xlink:href="#linear-gradient-2"/>
    <linearGradient id="linear-gradient-6" x1="251.71" y1="11.55" x2="112.77" y2="11.55" gradientUnits="userSpaceOnUse">
      <stop offset="0" stop-color="#bababa"/>
      <stop offset=".13" stop-color="#f2f2f2"/>
      <stop offset=".38" stop-color="#e5e5e5"/>
      <stop offset=".86" stop-color="#c3c3c3"/>
      <stop offset="1" stop-color="#b8b8b8"/>
    </linearGradient>
    <linearGradient id="linear-gradient-7" x1="112.77" y1="22.76" x2="251.71" y2="22.76" gradientUnits="userSpaceOnUse">
      <stop offset="0" stop-color="#a3a2a1"/>
      <stop offset="1" stop-color="#737373"/>
    </linearGradient>
    <linearGradient id="linear-gradient-8" x1="252.11" y1="144.62" x2="112.47" y2="144.62" gradientUnits="userSpaceOnUse">
      <stop offset="0" stop-color="#ebebeb"/>
      <stop offset=".29" stop-color="#e7e7e6"/>
      <stop offset=".57" stop-color="#dbdbda"/>
      <stop offset=".86" stop-color="#c7c7c6"/>
      <stop offset="1" stop-color="#bbbbba"/>
    </linearGradient>
    <linearGradient id="linear-gradient-9" x1="-67.46" y1="423.3" x2="-67.46" y2="459.28" gradientTransform="translate(249.96 482.51) scale(1 -1)" gradientUnits="userSpaceOnUse">
      <stop offset="0" stop-color="#fff"/>
      <stop offset=".66" stop-color="#ebebea"/>
      <stop offset="1" stop-color="#e0e0df"/>
    </linearGradient>
    <linearGradient id="linear-gradient-10" x1="255.08" y1="161.24" x2="108.44" y2="161.24" gradientUnits="userSpaceOnUse">
      <stop offset="0" stop-color="#ebebeb"/>
      <stop offset=".29" stop-color="#e7e7e6"/>
      <stop offset=".58" stop-color="#dbdbda"/>
      <stop offset=".88" stop-color="#c7c7c6"/>
      <stop offset="1" stop-color="#bdbdbc"/>
    </linearGradient>
    <linearGradient id="linear-gradient-11" x1="258.34" y1="101.92" x2="104.78" y2="101.92" gradientUnits="userSpaceOnUse">
      <stop offset="0" stop-color="#ebebeb"/>
      <stop offset=".31" stop-color="#e7e7e6"/>
      <stop offset=".62" stop-color="#dbdbda"/>
      <stop offset=".93" stop-color="#c8c7c6"/>
      <stop offset="1" stop-color="#c3c2c1"/>
    </linearGradient>
    <linearGradient id="linear-gradient-12" x1="-67.89" y1="341.57" x2="-67.89" y2="365.58" gradientTransform="translate(249.96 482.51) scale(1 -1)" gradientUnits="userSpaceOnUse">
      <stop offset="0" stop-color="#fff"/>
      <stop offset=".69" stop-color="#fff"/>
      <stop offset=".8" stop-color="#f6f6f6"/>
      <stop offset=".97" stop-color="#dedfdd"/>
      <stop offset="1" stop-color="#d9dad8"/>
    </linearGradient>
    <linearGradient id="linear-gradient-13" x1="-67.67" y1="227.02" x2="-67.67" y2="260.15" xlink:href="#linear-gradient-12"/>
    <linearGradient id="linear-gradient-14" x1="233.48" y1="39.09" x2="131.43" y2="39.09" gradientUnits="userSpaceOnUse">
      <stop offset="0" stop-color="#fff"/>
      <stop offset="1" stop-color="#c9c9c9"/>
    </linearGradient>
    <linearGradient id="linear-gradient-15" x1="215.62" y1="66.08" x2="147.22" y2="66.08" xlink:href="#linear-gradient-14"/>
  </defs>
  <g class="cls-41">
    <g id="Layer_1" data-name="Layer 1">
      <g>
        <g class="cls-26">
          <polygon class="cls-17" points="218.89 42.3 218.89 102.66 218.89 104.69 218.89 116.14 295.28 116.14 295.28 104.69 295.28 102.66 295.28 42.3 218.89 42.3"/>
          <polygon class="cls-74" points="219.61 42.09 219.61 102.46 219.61 104.49 219.61 115.93 296 115.93 296 104.49 296 102.46 296 42.09 219.61 42.09"/>
          <polygon class="cls-79" points="220.32 41.89 220.32 102.26 220.32 104.28 220.32 115.73 296.71 115.73 296.71 104.28 296.71 102.26 296.71 41.89 220.32 41.89"/>
          <polygon class="cls-109" points="221.04 41.69 221.04 102.06 221.04 104.08 221.04 115.53 297.43 115.53 297.43 104.08 297.43 102.06 297.43 41.69 221.04 41.69"/>
          <polygon class="cls-16" points="221.75 41.49 221.75 101.85 221.75 103.88 221.75 115.33 298.14 115.33 298.14 103.88 298.14 101.85 298.14 41.49 221.75 41.49"/>
          <polygon class="cls-65" points="222.47 41.28 222.47 101.65 222.47 103.68 222.47 115.12 298.86 115.12 298.86 103.68 298.86 101.65 298.86 41.28 222.47 41.28"/>
          <polygon class="cls-73" points="223.19 41.08 223.19 101.45 223.19 103.47 223.19 114.92 299.58 114.92 299.58 103.47 299.58 101.45 299.58 41.08 223.19 41.08"/>
          <polygon class="cls-43" points="223.9 40.88 223.9 101.25 223.9 103.27 223.9 114.72 300.29 114.72 300.29 103.27 300.29 101.25 300.29 40.88 223.9 40.88"/>
          <polygon class="cls-83" points="224.62 40.68 224.62 101.04 224.62 103.07 224.62 114.52 301.01 114.52 301.01 103.07 301.01 101.04 301.01 40.68 224.62 40.68"/>
          <polygon class="cls-63" points="225.33 40.47 225.33 100.84 225.33 102.87 225.33 114.31 301.72 114.31 301.72 102.87 301.72 100.84 301.72 40.47 225.33 40.47"/>
          <polygon class="cls-98" points="226.05 40.27 226.05 100.64 226.05 102.66 226.05 114.11 302.44 114.11 302.44 102.66 302.44 100.64 302.44 40.27 226.05 40.27"/>
          <polygon class="cls-48" points="226.77 40.07 226.77 100.44 226.77 102.46 226.77 113.91 303.16 113.91 303.16 102.46 303.16 100.44 303.16 40.07 226.77 40.07"/>
          <polygon class="cls-71" points="227.48 39.87 227.48 100.23 227.48 102.26 227.48 113.71 303.87 113.71 303.87 102.26 303.87 100.23 303.87 39.87 227.48 39.87"/>
          <polygon class="cls-80" points="228.2 39.66 228.2 100.03 228.2 102.06 228.2 113.5 304.59 113.5 304.59 102.06 304.59 100.03 304.59 39.66 228.2 39.66"/>
          <polygon class="cls-105" points="228.92 39.46 228.92 99.83 228.92 101.85 228.92 113.3 305.31 113.3 305.31 101.85 305.31 99.83 305.31 39.46 228.92 39.46"/>
          <polygon class="cls-93" points="229.63 39.26 229.63 99.63 229.63 101.65 229.63 113.1 306.02 113.1 306.02 101.65 306.02 99.63 306.02 39.26 229.63 39.26"/>
          <polygon class="cls-52" points="230.35 39.06 230.35 99.42 230.35 101.45 230.35 112.9 306.74 112.9 306.74 101.45 306.74 99.42 306.74 39.06 230.35 39.06"/>
          <polygon class="cls-62" points="231.06 38.85 231.06 99.22 231.06 101.25 231.06 112.7 307.45 112.7 307.45 101.25 307.45 99.22 307.45 38.85 231.06 38.85"/>
          <polygon class="cls-51" points="231.78 38.65 231.78 99.02 231.78 101.05 231.78 112.49 308.17 112.49 308.17 101.05 308.17 99.02 308.17 38.65 231.78 38.65"/>
          <polygon class="cls-103" points="232.5 38.45 232.5 98.82 232.5 100.84 232.5 112.29 308.89 112.29 308.89 100.84 308.89 98.82 308.89 38.45 232.5 38.45"/>
          <polygon class="cls-49" points="233.21 38.25 233.21 98.61 233.21 100.64 233.21 112.09 309.6 112.09 309.6 100.64 309.6 98.61 309.6 38.25 233.21 38.25"/>
          <polygon class="cls-35" points="233.93 38.04 233.93 98.41 233.93 100.44 233.93 111.89 310.32 111.89 310.32 100.44 310.32 98.41 310.32 38.04 233.93 38.04"/>
          <polygon class="cls-67" points="234.65 37.84 234.65 98.21 234.65 100.24 234.65 111.68 311.04 111.68 311.04 100.24 311.04 98.21 311.04 37.84 234.65 37.84"/>
          <polygon class="cls-15" points="235.36 37.64 235.36 98.01 235.36 100.03 235.36 111.48 311.75 111.48 311.75 100.03 311.75 98.01 311.75 37.64 235.36 37.64"/>
          <polygon class="cls-78" points="236.08 37.44 236.08 97.81 236.08 99.83 236.08 111.28 312.47 111.28 312.47 99.83 312.47 97.81 312.47 37.44 236.08 37.44"/>
          <polygon class="cls-90" points="236.79 37.24 236.79 97.6 236.79 99.63 236.79 111.08 313.18 111.08 313.18 99.63 313.18 97.6 313.18 37.24 236.79 37.24"/>
          <polygon class="cls-100" points="237.51 37.03 237.51 97.4 237.51 99.43 237.51 110.87 313.9 110.87 313.9 99.43 313.9 97.4 313.9 37.03 237.51 37.03"/>
          <polygon class="cls-97" points="238.23 36.83 238.23 97.2 238.23 99.22 238.23 110.67 314.62 110.67 314.62 99.22 314.62 97.2 314.62 36.83 238.23 36.83"/>
          <polygon class="cls-111" points="238.94 36.63 238.94 97 238.94 99.02 238.94 110.47 315.33 110.47 315.33 99.02 315.33 97 315.33 36.63 238.94 36.63"/>
          <polygon class="cls-101" points="239.66 36.43 239.66 96.79 239.66 98.82 239.66 110.27 316.05 110.27 316.05 98.82 316.05 96.79 316.05 36.43 239.66 36.43"/>
          <polygon class="cls-88" points="240.37 36.22 240.37 96.59 240.37 98.62 240.37 110.06 316.76 110.06 316.76 98.62 316.76 96.59 316.76 36.22 240.37 36.22"/>
          <polygon class="cls-40" points="241.09 36.02 241.09 96.39 241.09 98.41 241.09 109.86 317.48 109.86 317.48 98.41 317.48 96.39 317.48 36.02 241.09 36.02"/>
          <polygon class="cls-33" points="241.81 35.82 241.81 96.19 241.81 98.21 241.81 109.66 318.2 109.66 318.2 98.21 318.2 96.19 318.2 35.82 241.81 35.82"/>
          <polygon class="cls-59" points="242.52 35.62 242.52 95.98 242.52 98.01 242.52 109.46 318.91 109.46 318.91 98.01 318.91 95.98 318.91 35.62 242.52 35.62"/>
          <polygon class="cls-45" points="243.24 35.41 243.24 95.78 243.24 97.81 243.24 109.25 319.63 109.25 319.63 97.81 319.63 95.78 319.63 35.41 243.24 35.41"/>
          <polygon class="cls-28" points="243.96 35.21 243.96 95.58 243.96 97.6 243.96 109.05 320.35 109.05 320.35 97.6 320.35 95.58 320.35 35.21 243.96 35.21"/>
          <polygon class="cls-108" points="244.67 35.01 244.67 95.38 244.67 97.4 244.67 108.85 321.06 108.85 321.06 97.4 321.06 95.38 321.06 35.01 244.67 35.01"/>
          <polygon class="cls-36" points="245.39 34.81 245.39 95.17 245.39 97.2 245.39 108.65 321.78 108.65 321.78 97.2 321.78 95.17 321.78 34.81 245.39 34.81"/>
          <polygon class="cls-31" points="246.1 34.6 246.1 94.97 246.1 97 246.1 108.44 322.49 108.44 322.49 97 322.49 94.97 322.49 34.6 246.1 34.6"/>
          <polygon class="cls-72" points="246.82 34.4 246.82 94.77 246.82 96.79 246.82 108.24 323.21 108.24 323.21 96.79 323.21 94.77 323.21 34.4 246.82 34.4"/>
          <polygon class="cls-81" points="247.54 34.2 247.54 94.57 247.54 96.59 247.54 108.04 323.93 108.04 323.93 96.59 323.93 94.57 323.93 34.2 247.54 34.2"/>
          <polygon class="cls-95" points="248.25 34 248.25 94.36 248.25 96.39 248.25 107.84 324.64 107.84 324.64 96.39 324.64 94.36 324.64 34 248.25 34"/>
          <polygon class="cls-91" points="248.97 33.79 248.97 94.16 248.97 96.19 248.97 107.63 325.36 107.63 325.36 96.19 325.36 94.16 325.36 33.79 248.97 33.79"/>
          <polygon class="cls-64" points="249.69 33.59 249.69 93.96 249.69 95.98 249.69 107.43 326.07 107.43 326.07 95.98 326.07 93.96 326.07 33.59 249.69 33.59"/>
          <polygon class="cls-102" points="250.4 33.39 250.4 93.76 250.4 95.78 250.4 107.23 326.79 107.23 326.79 95.78 326.79 93.76 326.79 33.39 250.4 33.39"/>
          <polygon class="cls-89" points="251.12 33.19 251.12 93.55 251.12 95.58 251.12 107.03 327.51 107.03 327.51 95.58 327.51 93.55 327.51 33.19 251.12 33.19"/>
          <polygon class="cls-37" points="251.83 32.98 251.83 93.35 251.83 95.38 251.83 106.82 328.22 106.82 328.22 95.38 328.22 93.35 328.22 32.98 251.83 32.98"/>
          <polygon class="cls-3" points="252.55 32.78 252.55 93.15 252.55 95.17 252.55 106.62 328.94 106.62 328.94 95.17 328.94 93.15 328.94 32.78 252.55 32.78"/>
          <polygon class="cls-55" points="253.27 32.58 253.27 92.95 253.27 94.97 253.27 106.42 329.66 106.42 329.66 94.97 329.66 92.95 329.66 32.58 253.27 32.58"/>
          <polygon class="cls-66" points="253.98 32.38 253.98 92.74 253.98 94.77 253.98 106.22 330.37 106.22 330.37 94.77 330.37 92.74 330.37 32.38 253.98 32.38"/>
          <polygon class="cls-107" points="254.7 32.17 254.7 92.54 254.7 94.57 254.7 106.01 331.09 106.01 331.09 94.57 331.09 92.54 331.09 32.17 254.7 32.17"/>
          <polygon class="cls-85" points="255.41 31.97 255.41 92.34 255.41 94.37 255.41 105.81 331.8 105.81 331.8 94.37 331.8 92.34 331.8 31.97 255.41 31.97"/>
          <polygon class="cls-4" points="256.13 31.77 256.13 92.14 256.13 94.16 256.13 105.61 332.52 105.61 332.52 94.16 332.52 92.14 332.52 31.77 256.13 31.77"/>
          <polygon class="cls-106" points="256.85 31.57 256.85 91.93 256.85 93.96 256.85 105.41 333.24 105.41 333.24 93.96 333.24 91.93 333.24 31.57 256.85 31.57"/>
          <polygon class="cls-42" points="257.56 31.36 257.56 91.73 257.56 93.76 257.56 105.21 333.95 105.21 333.95 93.76 333.95 91.73 333.95 31.36 257.56 31.36"/>
          <polygon class="cls-32" points="258.28 31.16 258.28 91.53 258.28 93.56 258.28 105 334.67 105 334.67 93.56 334.67 91.53 334.67 31.16 258.28 31.16"/>
          <polygon class="cls-82" points="259 30.96 259 91.33 259 93.35 259 104.8 335.39 104.8 335.39 93.35 335.39 91.33 335.39 30.96 259 30.96"/>
          <polygon class="cls-68" points="259.71 30.76 259.71 91.13 259.71 93.15 259.71 104.6 336.1 104.6 336.1 93.15 336.1 91.13 336.1 30.76 259.71 30.76"/>
        </g>
        <rect class="cls-14" x="259.71" y="91.01" width="76.39" height="13.48"/>
        <rect class="cls-5" x="259.71" y="30.65" width="76.39" height="62.39"/>
        <path class="cls-21" d="m336.1,30.25h-76.39c-.26,0-.48.18-.48.39v73.84c0,.22.22.39.48.39h76.39c.26,0,.48-.17.48-.39V30.65c0-.22-.21-.39-.48-.39Z"/>
        <g>
          <path class="cls-70" d="m307.4,54.81c-.83,2.32.8,4.76,3.65,5.44,2.85.68,5.83-.65,6.66-2.98.83-2.33-.8-4.76-3.65-5.44-2.85-.68-5.83.65-6.66,2.98Z"/>
          <g>
            <polygon class="cls-92" points="319.54 67.74 320.86 67.15 305.57 44.34 304.25 44.93 319.54 67.74"/>
            <polygon class="cls-92" points="326.88 50.34 326.16 49.26 298.23 61.74 298.96 62.82 326.88 50.34"/>
          </g>
          <path class="cls-10" d="m340.63,43.32c-3.96-5.83-10.61-10.43-19.06-12.45h0c-8.45-2.02-17.1-1.07-24.27,2.1-7.21,3.18-12.93,8.61-15.48,15.52-.02.07-.06.13-.08.19-2.47,6.9-1.3,13.96,2.57,19.82,3.94,5.95,10.66,10.66,19.24,12.71h0c8.57,2.05,17.35,1.04,24.58-2.24,7.13-3.23,12.77-8.67,15.24-15.57.02-.07.04-.13.06-.2,2.41-6.94,1.17-14.03-2.81-19.88Zm-15.74,15.67c-.98,2.73-3.2,4.88-6.01,6.18-2.91,1.34-6.46,1.77-9.92.94h0c-3.46-.83-6.17-2.74-7.74-5.16-1.51-2.33-1.96-5.12-.98-7.85.02-.07.06-.13.08-.2,1.05-2.74,3.35-4.88,6.24-6.12,2.85-1.24,6.27-1.6,9.61-.8h0c3.34.8,5.97,2.61,7.57,4.9,1.61,2.32,2.14,5.14,1.21,7.91-.02.07-.03.13-.06.2Z"/>
          <path class="cls-92" d="m311.63,58.65c1.76.42,3.62-.41,4.14-1.85.51-1.44-.5-2.95-2.27-3.37-1.77-.42-3.62.41-4.14,1.85-.51,1.44.5,2.95,2.27,3.38Z"/>
          <path class="cls-70" d="m313.31,53.93c1.42.34,2.24,1.56,1.83,2.72-.42,1.16-1.92,1.84-3.34,1.49-1.43-.34-2.25-1.56-1.83-2.73.41-1.16,1.91-1.83,3.34-1.49Z"/>
          <g>
            <path class="cls-39" d="m302.58,53.66c1.61-4.49,7.4-7.08,12.9-5.77,5.5,1.31,8.67,6.04,7.06,10.53-1.61,4.49-7.39,7.08-12.89,5.77-5.5-1.32-8.67-6.04-7.07-10.53Zm.62.15c-1.51,4.21,1.46,8.65,6.63,9.88,5.16,1.23,10.59-1.2,12.1-5.41,1.51-4.22-1.46-8.65-6.62-9.88-5.16-1.23-10.59,1.2-12.1,5.41Z"/>
            <path class="cls-17" d="m317.18,53.82c.79,1.26,2.05,2.03,2.81,1.71.76-.32.73-1.6-.06-2.86-.79-1.26-2.05-2.03-2.81-1.72-.76.32-.73,1.6.06,2.86Z"/>
            <g class="cls-76">
              <path class="cls-46" d="m303.78,58.06c.88,2.71,3.58,4.48,6,3.95,2.42-.53,3.67-3.16,2.77-5.87-.89-2.71-3.58-4.47-6-3.94-2.42.54-3.66,3.16-2.77,5.86Z"/>
            </g>
          </g>
        </g>
      </g>
      <g>
        <g class="cls-26">
          <polygon class="cls-17" points="0 45.09 0 109.06 0 111.2 0 123.34 67.71 123.34 67.71 111.2 67.71 109.06 67.71 45.09 0 45.09"/>
          <polygon class="cls-74" points=".63 44.87 .63 108.84 .63 110.99 .63 123.12 68.35 123.12 68.35 110.99 68.35 108.84 68.35 44.87 .63 44.87"/>
          <polygon class="cls-79" points="1.27 44.66 1.27 108.63 1.27 110.78 1.27 122.91 68.98 122.91 68.98 110.78 68.98 108.63 68.98 44.66 1.27 44.66"/>
          <polygon class="cls-109" points="1.9 44.44 1.9 108.41 1.9 110.56 1.9 122.69 69.62 122.69 69.62 110.56 69.62 108.41 69.62 44.44 1.9 44.44"/>
          <polygon class="cls-16" points="2.54 44.23 2.54 108.2 2.54 110.35 2.54 122.48 70.25 122.48 70.25 110.35 70.25 108.2 70.25 44.23 2.54 44.23"/>
          <polygon class="cls-65" points="3.17 44.01 3.17 107.99 3.17 110.13 3.17 122.27 70.89 122.27 70.89 110.13 70.89 107.99 70.89 44.01 3.17 44.01"/>
          <polygon class="cls-73" points="3.81 43.8 3.81 107.77 3.81 109.92 3.81 122.05 71.52 122.05 71.52 109.92 71.52 107.77 71.52 43.8 3.81 43.8"/>
          <polygon class="cls-43" points="4.44 43.58 4.44 107.56 4.44 109.7 4.44 121.84 72.16 121.84 72.16 109.7 72.16 107.56 72.16 43.58 4.44 43.58"/>
          <polygon class="cls-83" points="5.08 43.37 5.08 107.34 5.08 109.49 5.08 121.62 72.79 121.62 72.79 109.49 72.79 107.34 72.79 43.37 5.08 43.37"/>
          <polygon class="cls-63" points="5.71 43.16 5.71 107.13 5.71 109.27 5.71 121.41 73.43 121.41 73.43 109.27 73.43 107.13 73.43 43.16 5.71 43.16"/>
          <polygon class="cls-98" points="6.35 42.94 6.35 106.91 6.35 109.06 6.35 121.19 74.06 121.19 74.06 109.06 74.06 106.91 74.06 42.94 6.35 42.94"/>
          <polygon class="cls-48" points="6.98 42.73 6.98 106.7 6.98 108.84 6.98 120.98 74.7 120.98 74.7 108.84 74.7 106.7 74.7 42.73 6.98 42.73"/>
          <polygon class="cls-71" points="7.62 42.51 7.62 106.48 7.62 108.63 7.62 120.76 75.33 120.76 75.33 108.63 75.33 106.48 75.33 42.51 7.62 42.51"/>
          <polygon class="cls-80" points="8.25 42.3 8.25 106.27 8.25 108.42 8.25 120.55 75.97 120.55 75.97 108.42 75.97 106.27 75.97 42.3 8.25 42.3"/>
          <polygon class="cls-105" points="8.89 42.08 8.89 106.05 8.89 108.2 8.89 120.33 76.6 120.33 76.6 108.2 76.6 106.05 76.6 42.08 8.89 42.08"/>
          <polygon class="cls-93" points="9.52 41.87 9.52 105.84 9.52 107.99 9.52 120.12 77.24 120.12 77.24 107.99 77.24 105.84 77.24 41.87 9.52 41.87"/>
          <polygon class="cls-52" points="10.16 41.65 10.16 105.63 10.16 107.77 10.16 119.91 77.87 119.91 77.87 107.77 77.87 105.63 77.87 41.65 10.16 41.65"/>
          <polygon class="cls-62" points="10.79 41.44 10.79 105.41 10.79 107.56 10.79 119.69 78.51 119.69 78.51 107.56 78.51 105.41 78.51 41.44 10.79 41.44"/>
          <polygon class="cls-51" points="11.43 41.23 11.43 105.2 11.43 107.34 11.43 119.48 79.14 119.48 79.14 107.34 79.14 105.2 79.14 41.23 11.43 41.23"/>
          <polygon class="cls-103" points="12.06 41.01 12.06 104.98 12.06 107.13 12.06 119.26 79.78 119.26 79.78 107.13 79.78 104.98 79.78 41.01 12.06 41.01"/>
          <polygon class="cls-49" points="12.7 40.8 12.7 104.77 12.7 106.91 12.7 119.05 80.41 119.05 80.41 106.91 80.41 104.77 80.41 40.8 12.7 40.8"/>
          <polygon class="cls-35" points="13.33 40.58 13.33 104.55 13.33 106.7 13.33 118.83 81.05 118.83 81.05 106.7 81.05 104.55 81.05 40.58 13.33 40.58"/>
          <polygon class="cls-67" points="13.97 40.37 13.97 104.34 13.97 106.49 13.97 118.62 81.68 118.62 81.68 106.49 81.68 104.34 81.68 40.37 13.97 40.37"/>
          <polygon class="cls-15" points="14.6 40.15 14.6 104.12 14.6 106.27 14.6 118.4 82.31 118.4 82.31 106.27 82.31 104.12 82.31 40.15 14.6 40.15"/>
          <polygon class="cls-78" points="15.24 39.94 15.24 103.91 15.24 106.06 15.24 118.19 82.95 118.19 82.95 106.06 82.95 103.91 82.95 39.94 15.24 39.94"/>
          <polygon class="cls-90" points="15.87 39.72 15.87 103.7 15.87 105.84 15.87 117.97 83.58 117.97 83.58 105.84 83.58 103.7 83.58 39.72 15.87 39.72"/>
          <polygon class="cls-100" points="16.51 39.51 16.51 103.48 16.51 105.63 16.51 117.76 84.22 117.76 84.22 105.63 84.22 103.48 84.22 39.51 16.51 39.51"/>
          <polygon class="cls-97" points="17.14 39.29 17.14 103.27 17.14 105.41 17.14 117.54 84.85 117.54 84.85 105.41 84.85 103.27 84.85 39.29 17.14 39.29"/>
          <polygon class="cls-111" points="17.78 39.08 17.78 103.05 17.78 105.2 17.78 117.33 85.49 117.33 85.49 105.2 85.49 103.05 85.49 39.08 17.78 39.08"/>
          <polygon class="cls-101" points="18.41 38.87 18.41 102.84 18.41 104.98 18.41 117.12 86.12 117.12 86.12 104.98 86.12 102.84 86.12 38.87 18.41 38.87"/>
          <polygon class="cls-88" points="19.05 38.65 19.05 102.62 19.05 104.77 19.05 116.9 86.76 116.9 86.76 104.77 86.76 102.62 86.76 38.65 19.05 38.65"/>
          <polygon class="cls-40" points="19.68 38.44 19.68 102.41 19.68 104.55 19.68 116.69 87.39 116.69 87.39 104.55 87.39 102.41 87.39 38.44 19.68 38.44"/>
          <polygon class="cls-33" points="20.31 38.22 20.31 102.19 20.31 104.34 20.31 116.47 88.03 116.47 88.03 104.34 88.03 102.19 88.03 38.22 20.31 38.22"/>
          <polygon class="cls-59" points="20.95 38.01 20.95 101.98 20.95 104.13 20.95 116.26 88.66 116.26 88.66 104.13 88.66 101.98 88.66 38.01 20.95 38.01"/>
          <polygon class="cls-45" points="21.58 37.79 21.58 101.76 21.58 103.91 21.58 116.04 89.3 116.04 89.3 103.91 89.3 101.76 89.3 37.79 21.58 37.79"/>
          <polygon class="cls-28" points="22.22 37.58 22.22 101.55 22.22 103.7 22.22 115.83 89.93 115.83 89.93 103.7 89.93 101.55 89.93 37.58 22.22 37.58"/>
          <polygon class="cls-108" points="22.85 37.36 22.85 101.34 22.85 103.48 22.85 115.61 90.57 115.61 90.57 103.48 90.57 101.34 90.57 37.36 22.85 37.36"/>
          <polygon class="cls-36" points="23.49 37.15 23.49 101.12 23.49 103.27 23.49 115.4 91.2 115.4 91.2 103.27 91.2 101.12 91.2 37.15 23.49 37.15"/>
          <polygon class="cls-31" points="24.12 36.94 24.12 100.91 24.12 103.05 24.12 115.18 91.84 115.18 91.84 103.05 91.84 100.91 91.84 36.94 24.12 36.94"/>
          <polygon class="cls-72" points="24.76 36.72 24.76 100.69 24.76 102.84 24.76 114.97 92.47 114.97 92.47 102.84 92.47 100.69 92.47 36.72 24.76 36.72"/>
          <polygon class="cls-81" points="25.39 36.51 25.39 100.48 25.39 102.62 25.39 114.76 93.11 114.76 93.11 102.62 93.11 100.48 93.11 36.51 25.39 36.51"/>
          <polygon class="cls-95" points="26.03 36.29 26.03 100.26 26.03 102.41 26.03 114.54 93.74 114.54 93.74 102.41 93.74 100.26 93.74 36.29 26.03 36.29"/>
          <polygon class="cls-91" points="26.66 36.08 26.66 100.05 26.66 102.19 26.66 114.33 94.38 114.33 94.38 102.19 94.38 100.05 94.38 36.08 26.66 36.08"/>
          <polygon class="cls-64" points="27.3 35.86 27.3 99.83 27.3 101.98 27.3 114.11 95.01 114.11 95.01 101.98 95.01 99.83 95.01 35.86 27.3 35.86"/>
          <polygon class="cls-102" points="27.93 35.65 27.93 99.62 27.93 101.77 27.93 113.9 95.65 113.9 95.65 101.77 95.65 99.62 95.65 35.65 27.93 35.65"/>
          <polygon class="cls-89" points="28.57 35.43 28.57 99.41 28.57 101.55 28.57 113.68 96.28 113.68 96.28 101.55 96.28 99.41 96.28 35.43 28.57 35.43"/>
          <polygon class="cls-37" points="29.2 35.22 29.2 99.19 29.2 101.34 29.2 113.47 96.92 113.47 96.92 101.34 96.92 99.19 96.92 35.22 29.2 35.22"/>
          <polygon class="cls-3" points="29.84 35 29.84 98.98 29.84 101.12 29.84 113.25 97.55 113.25 97.55 101.12 97.55 98.98 97.55 35 29.84 35"/>
          <polygon class="cls-55" points="30.47 34.79 30.47 98.76 30.47 100.91 30.47 113.04 98.19 113.04 98.19 100.91 98.19 98.76 98.19 34.79 30.47 34.79"/>
          <polygon class="cls-66" points="31.11 34.58 31.11 98.55 31.11 100.69 31.11 112.82 98.82 112.82 98.82 100.69 98.82 98.55 98.82 34.58 31.11 34.58"/>
          <polygon class="cls-107" points="31.74 34.36 31.74 98.33 31.74 100.48 31.74 112.61 99.46 112.61 99.46 100.48 99.46 98.33 99.46 34.36 31.74 34.36"/>
          <polygon class="cls-85" points="32.38 34.15 32.38 98.12 32.38 100.26 32.38 112.4 100.09 112.4 100.09 100.26 100.09 98.12 100.09 34.15 32.38 34.15"/>
          <polygon class="cls-4" points="33.01 33.93 33.01 97.9 33.01 100.05 33.01 112.18 100.72 112.18 100.72 100.05 100.72 97.9 100.72 33.93 33.01 33.93"/>
          <polygon class="cls-106" points="33.65 33.72 33.65 97.69 33.65 99.84 33.65 111.97 101.36 111.97 101.36 99.84 101.36 97.69 101.36 33.72 33.65 33.72"/>
          <polygon class="cls-42" points="34.28 33.5 34.28 97.47 34.28 99.62 34.28 111.75 101.99 111.75 101.99 99.62 101.99 97.47 101.99 33.5 34.28 33.5"/>
          <polygon class="cls-32" points="34.92 33.29 34.92 97.26 34.92 99.41 34.92 111.54 102.63 111.54 102.63 99.41 102.63 97.26 102.63 33.29 34.92 33.29"/>
          <polygon class="cls-82" points="35.55 33.07 35.55 97.05 35.55 99.19 35.55 111.32 103.26 111.32 103.26 99.19 103.26 97.05 103.26 33.07 35.55 33.07"/>
          <polygon class="cls-68" points="36.19 32.86 36.19 96.83 36.19 98.98 36.19 111.11 103.9 111.11 103.9 98.98 103.9 96.83 103.9 32.86 36.19 32.86"/>
        </g>
        <g>
          <rect class="cls-12" x="36.19" y="96.72" width="67.71" height="14.28"/>
          <rect class="cls-6" x="36.19" y="32.74" width="67.71" height="66.12"/>
        </g>
        <path class="cls-25" d="m103.9,32.33H36.19c-.23,0-.42.19-.42.42v78.25c0,.23.19.41.42.41h67.71c.23,0,.43-.18.43-.41V32.74c0-.23-.19-.42-.43-.42Z"/>
        <g>
          <path class="cls-47" d="m46.68,57.64l-1.3.55c-3.84-7.35-3.63-14.71.56-19.23l1.14,1.06c-3.78,4.09-3.94,10.84-.4,17.62Z"/>
          <path class="cls-96" d="m52.78,66.27c-.39.42-1.09.41-1.56-.03-2.74-2.54-4.96-5.41-6.58-8.52-.3-.56-.09-1.21.44-1.43.54-.23,1.21.04,1.51.6,1.49,2.85,3.52,5.49,6.05,7.82.47.44.54,1.14.15,1.55Z"/>
          <path class="cls-47" d="m56.69,66.01c1.75,1.62,2.37,3.8,1.38,4.88-.99,1.06-3.21.62-4.97-1.01-1.75-1.62-2.37-3.81-1.38-4.87,1-1.07,3.22-.62,4.97,1Z"/>
          <path class="cls-29" d="m61.25,68.84c.89.83,1.02,2.15.28,2.96h0c-.74.8-2.07.78-2.97-.05l-7.33-6.79c-.9-.83-1.02-2.15-.28-2.96h0c.74-.8,2.07-.78,2.97.05l7.33,6.79Z"/>
          <path class="cls-29" d="m60.54,62.39c.84.78.56,2.47-.64,3.77h0c-1.2,1.29-2.86,1.71-3.7.93l-5.51-5.1c-.84-.78-.56-2.47.64-3.76h0c1.2-1.3,2.86-1.71,3.71-.93l5.51,5.1Z"/>
          <path class="cls-96" d="m61.8,65.15c1.03.95,1.17,2.46.33,3.38h0c-.85.92-2.37.89-3.4-.06l-6.68-6.19c-1.03-.95-1.17-2.46-.32-3.38h0c.85-.92,2.37-.88,3.39.07l6.68,6.19Z"/>
          <g>
            <path class="cls-47" d="m64.61,38.28l.45-1.34c-7.62-3.27-14.95-2.49-19.13,2.02l1.14,1.06c3.78-4.08,10.51-4.75,17.54-1.74Z"/>
            <path class="cls-96" d="m73.69,43.7c.39-.42.33-1.12-.14-1.56-2.75-2.54-5.77-4.53-9-5.91-.59-.25-1.22,0-1.4.55-.19.55.13,1.21.71,1.46,2.96,1.27,5.74,3.1,8.26,5.43.47.44,1.18.45,1.56.03Z"/>
            <path class="cls-47" d="m73.73,47.61c1.75,1.62,3.97,2.08,4.97,1.01.99-1.07.37-3.25-1.38-4.87-1.75-1.62-3.97-2.07-4.97-1.01-.99,1.07-.36,3.26,1.38,4.87Z"/>
            <path class="cls-29" d="m76.89,51.94c.9.83,2.23.86,2.97.05h0c.74-.8.62-2.13-.28-2.96l-7.33-6.79c-.9-.83-2.23-.85-2.97-.05h0c-.74.8-.62,2.13.28,2.96l7.33,6.79Z"/>
            <path class="cls-29" d="m75.25,56.22c1.43,1.32,3.55,1.36,4.73.08h0c1.19-1.28.98-3.38-.44-4.71l-9.3-8.61c-1.43-1.32-3.54-1.36-4.73-.09h0c-1.19,1.28-.98,3.38.44,4.71l9.3,8.61Z"/>
          </g>
          <path class="cls-96" d="m46.42,39.41c2.65-2.86,5.87-4.31,7.72-3.6-.07-.11-.15-.21-.26-.31-1.62-1.5-5.37-.07-8.39,3.19-3.02,3.26-4.16,7.11-2.54,8.62.21.19.41.3.62.34-1.11-1.7.07-5.22,2.86-8.22Z"/>
          <path class="cls-29" d="m49.02,41.96c2.81-3.03,6.01-4.72,5.12-6.15-1.84-.71-5.07.74-7.72,3.6-2.78,3.01-3.97,6.52-2.86,8.22,1.39.25,2.82-2.83,5.45-5.68Z"/>
          <path class="cls-96" d="m75.96,49.86c1.03.95,1.17,2.47.32,3.38h0c-.85.91-2.36.89-3.39-.06l-6.68-6.19c-1.03-.95-1.17-2.47-.32-3.38h0c.85-.91,2.37-.89,3.4.07l6.68,6.18Z"/>
        </g>
        <g>
          <path class="cls-68" d="m95.56,95.71c.68.07,1.24-.45,1.25-1.16l.19-16.44c.01-.71-.54-1.35-1.22-1.42l-29.25-3.05c-.68-.07-1.24.45-1.25,1.16l-.2,16.44c0,.72.54,1.35,1.22,1.42l29.25,3.05Z"/>
          <path class="cls-17" d="m94.97,94.79c.68.07,1.24-.45,1.25-1.17l.2-16.44c.01-.71-.53-1.35-1.22-1.42l-29.25-3.05c-.68-.07-1.24.45-1.25,1.16l-.19,16.43c-.01.71.53,1.35,1.22,1.42l29.25,3.06Z"/>
          <polygon class="cls-96" points="91.41 76.3 67.25 73.79 67.05 90.94 91.21 93.47 91.41 76.3"/>
          <path class="cls-87" d="m66.15,80.21c0-.22-.17-.42-.38-.44h0c-.21-.02-.39.14-.39.36l-.05,4.1c0,.22.17.42.38.44h0c.22.02.39-.14.39-.36l.05-4.1Z"/>
          <path class="cls-87" d="m94.93,85.26c0-.71-.54-1.35-1.22-1.42-.68-.07-1.24.45-1.24,1.16-.01.71.54,1.35,1.21,1.42.68.07,1.24-.45,1.25-1.16Z"/>
        </g>
      </g>
      <path class="cls-20" d="m74.95,126.8h-27.02c-6.45,0-11.71,4.74-11.71,10.57v59.5c0,5.83,5.25,10.57,11.71,10.57h27.02c6.46,0,11.71-4.74,11.71-10.57v-59.5c0-5.83-5.25-10.57-11.71-10.57Z"/>
      <g>
        <g class="cls-26">
          <path class="cls-17" d="m231.14,92.83h-6.12v-55.59c0-.18-.16-.31-.35-.35v-11.57c0-.14-.1-.26-.24-.32l-21.65-7.75s-.04,0-.06,0c-.03,0-.05-.03-.08-.03l-96.51-5.86s-13.98,2.49-14.01,2.5c0,0,.02,0,0,0l-7.61,11.14c-.15.05-.24.18-.24.32v11.75s.03.04.04.06c-.02.05-.04.11-.03.17.03.12.13.19.25.23v55.29h-7.24c-.24,0-.44.17-.44.38v30.02c0,.21.2.38.44.38h3.21v104.68c0,.21.2.38.44.38h3.59v7.66c0,20.21,18.68,36.65,41.65,36.65h57.21c22.97,0,41.65-16.44,41.65-36.65v-7.66h2.85c.24,0,.44-.17.44-.38v-104.68h2.83c.24,0,.44-.17.44-.38v-30.02c0-.21-.2-.38-.44-.38Z"/>
          <path class="cls-74" d="m231.63,92.72h-6.12v-55.59c0-.18-.16-.31-.35-.35v-11.57c0-.14-.1-.26-.24-.32l-21.65-7.75s-.04,0-.06,0c-.03,0-.05-.03-.09-.03l-96.51-5.86s-13.73,2.45-13.76,2.46c0,0-.34.03-.36.03l-7.51,11.04c-.15.05-.24.18-.24.32v11.86s.03.04.04.06c-.02.05-.04.11-.03.17.03.12.13.19.25.23v55.29h-7.24c-.24,0-.44.17-.44.38v30.02c0,.21.2.38.44.38h3.21v104.68c0,.21.2.38.44.38h3.59v7.66c0,20.21,18.68,36.65,41.65,36.65h57.21c22.97,0,41.65-16.44,41.65-36.65v-7.66h2.85c.24,0,.44-.17.44-.38v-104.68h2.83c.24,0,.44-.17.44-.38v-30.02c0-.21-.2-.38-.44-.38Z"/>
          <path class="cls-79" d="m232.11,92.61h-6.12v-55.59c0-.18-.16-.31-.35-.35v-11.57c0-.14-.1-.26-.24-.32l-21.65-7.75s-.04,0-.06,0c-.03,0-.05-.03-.09-.03l-96.51-5.86s-13.49,2.41-13.52,2.41c0,0-.69.06-.71.07l-7.4,10.95c-.15.05-.24.18-.24.32v11.96s.04.04.04.06c-.02.05-.04.11-.03.17.03.12.13.19.25.23v55.29h-7.24c-.24,0-.44.17-.44.38v30.02c0,.21.2.38.44.38h3.21v104.68c0,.21.2.38.44.38h3.59v7.66c0,20.21,18.68,36.65,41.65,36.65h57.21c22.97,0,41.65-16.44,41.65-36.65v-7.66h2.85c.24,0,.44-.17.44-.38v-104.68h2.83c.24,0,.44-.17.44-.38v-30.02c0-.21-.2-.38-.44-.38Z"/>
          <path class="cls-109" d="m232.6,92.5h-6.12v-55.59c0-.18-.16-.31-.35-.35v-11.57c0-.14-.1-.26-.24-.32l-21.65-7.75s-.04,0-.06,0c-.03,0-.05-.03-.09-.03l-96.51-5.86s-13.24,2.36-13.28,2.37c0,0-1.05.09-1.07.1l-7.29,10.86c-.15.05-.24.18-.24.32v12.06s.04.04.05.06c-.02.05-.04.11-.03.17.03.12.13.19.25.23v55.29h-7.24c-.24,0-.44.17-.44.38v30.02c0,.21.2.38.44.38h3.21v104.68c0,.21.2.38.44.38h3.59v7.66c0,20.21,18.68,36.65,41.65,36.65h57.21c22.97,0,41.65-16.44,41.65-36.65v-7.66h2.85c.24,0,.44-.17.44-.38v-104.68h2.83c.24,0,.44-.17.44-.38v-30.02c0-.21-.2-.38-.44-.38Z"/>
          <path class="cls-16" d="m233.08,92.4h-6.12v-55.59c0-.18-.16-.31-.35-.35v-11.57c0-.14-.1-.26-.24-.32l-21.65-7.75s-.04,0-.06,0c-.03,0-.05-.03-.09-.03l-96.51-5.86s-13,2.32-13.03,2.33c0,0-1.4.13-1.42.14l-7.18,10.76c-.15.05-.24.18-.24.32v12.17s.04.04.05.06c-.02.05-.04.11-.03.17.03.12.13.19.25.23v55.29h-7.24c-.24,0-.44.17-.44.38v30.02c0,.21.2.38.44.38h3.21v104.68c0,.21.2.38.44.38h3.59v7.66c0,20.21,18.68,36.65,41.65,36.65h57.21c22.97,0,41.65-16.44,41.65-36.65v-7.66h2.85c.24,0,.44-.17.44-.38v-104.68h2.83c.24,0,.44-.17.44-.38v-30.02c0-.21-.2-.38-.44-.38Z"/>
          <path class="cls-65" d="m233.57,92.29h-6.12v-55.59c0-.18-.16-.31-.35-.35v-11.57c0-.14-.1-.27-.24-.32l-21.65-7.75s-.04,0-.06,0c-.03,0-.05-.03-.09-.03l-96.51-5.86s-12.76,2.28-12.79,2.28c0,0-1.76.16-1.78.17l-7.07,10.67c-.15.05-.24.18-.24.32l.02,12.27s.03.04.04.06c-.02.05-.04.11-.03.17.03.12.13.19.25.23v55.29h-7.24c-.24,0-.44.17-.44.38v30.02c0,.21.2.38.44.38h3.21v104.68c0,.21.2.38.44.38h3.59v7.66c0,20.21,18.68,36.65,41.65,36.65h57.21c22.97,0,41.65-16.44,41.65-36.65v-7.66h2.85c.24,0,.44-.17.44-.38v-104.68h2.83c.24,0,.44-.17.44-.38v-30.02c0-.21-.2-.38-.44-.38Z"/>
          <path class="cls-73" d="m234.05,92.18h-6.12v-55.59c0-.18-.16-.31-.35-.35v-11.57c0-.14-.1-.27-.24-.32l-21.65-7.75s-.04,0-.06,0c-.03,0-.05-.03-.09-.03l-96.51-5.86s-12.51,2.23-12.54,2.24c0,0-2.11.2-2.13.2l-6.97,10.58c-.15.05-.24.18-.24.32l.02,12.37s.03.04.04.06c-.02.05-.04.11-.03.17.03.12.13.19.25.23v55.29h-7.24c-.24,0-.44.17-.44.39v30.02c0,.21.2.39.44.39h3.21v104.68c0,.21.2.39.44.39h3.59v7.66c0,20.21,18.68,36.65,41.65,36.65h57.21c22.97,0,41.65-16.44,41.65-36.65v-7.66h2.85c.24,0,.44-.17.44-.39v-104.68h2.83c.24,0,.44-.17.44-.39v-30.02c0-.21-.2-.39-.44-.39Z"/>
          <path class="cls-43" d="m234.54,92.07h-6.12v-55.59c0-.18-.16-.31-.35-.35v-11.57c0-.14-.1-.27-.24-.32l-21.65-7.75s-.04,0-.06,0c-.03,0-.05-.03-.09-.03l-96.51-5.86s-12.27,2.19-12.3,2.2c0,0-2.47.23-2.49.24l-6.86,10.48c-.15.05-.24.18-.24.32l.02,12.47s.03.04.04.06c-.02.05-.04.11-.03.17.03.12.13.19.25.23v55.29h-7.24c-.24,0-.44.17-.44.39v30.02c0,.21.2.39.44.39h3.21v104.68c0,.21.2.39.44.39h3.59v7.66c0,20.21,18.68,36.65,41.65,36.65h57.21c22.97,0,41.65-16.44,41.65-36.65v-7.66h2.85c.24,0,.44-.17.44-.39v-104.68h2.83c.24,0,.44-.17.44-.39v-30.02c0-.21-.2-.39-.44-.39Z"/>
          <path class="cls-83" d="m235.03,91.96h-6.12v-55.59c0-.18-.16-.31-.35-.35v-11.57c0-.14-.1-.27-.24-.32l-21.65-7.75s-.04,0-.06,0c-.03,0-.05-.03-.09-.03l-96.51-5.86s-12.02,2.15-12.05,2.15c0,0-2.83.26-2.84.27l-6.75,10.39c-.15.05-.24.18-.24.32l.02,12.58s.03.04.04.06c-.02.05-.04.11-.03.17.03.12.13.19.25.23v55.29h-7.24c-.24,0-.44.17-.44.39v30.02c0,.21.2.39.44.39h3.21v104.68c0,.21.2.39.44.39h3.59v7.66c0,20.21,18.68,36.65,41.65,36.65h57.21c22.97,0,41.65-16.44,41.65-36.65v-7.66h2.85c.24,0,.44-.17.44-.39v-104.68h2.83c.24,0,.44-.17.44-.39v-30.02c0-.21-.2-.39-.44-.39Z"/>
          <path class="cls-63" d="m235.51,91.86h-6.12v-55.59c0-.18-.16-.31-.35-.35v-11.57c0-.14-.1-.27-.24-.32l-21.65-7.75s-.04,0-.06,0c-.03,0-.05-.03-.09-.03l-96.51-5.86s-11.78,2.1-11.81,2.11c0,0-3.18.3-3.2.31l-6.64,10.3c-.15.05-.24.18-.24.32l.03,12.68s.03.04.04.06c-.02.05-.04.11-.03.17.03.12.13.19.25.23v55.29h-7.24c-.24,0-.44.17-.44.39v30.02c0,.21.2.39.44.39h3.21v104.68c0,.21.2.39.44.39h3.59v7.66c0,20.21,18.68,36.65,41.65,36.65h57.21c22.97,0,41.65-16.44,41.65-36.65v-7.66h2.85c.24,0,.44-.17.44-.39v-104.68h2.83c.24,0,.44-.17.44-.39v-30.02c0-.21-.2-.39-.44-.39Z"/>
          <path class="cls-98" d="m236,91.75h-6.12v-55.59c0-.18-.16-.31-.35-.35v-11.57c0-.14-.1-.27-.24-.32l-21.65-7.75s-.04,0-.06,0c-.03,0-.05-.03-.09-.03l-96.51-5.86s-11.53,2.06-11.57,2.07c0,0-3.54.33-3.55.34l-6.54,10.2c-.15.05-.24.18-.24.32l.03,12.78s.03.04.04.06c-.02.05-.04.11-.03.17.03.12.13.19.25.23v55.29h-7.24c-.24,0-.44.17-.44.39v30.02c0,.21.2.39.44.39h3.21v104.68c0,.21.2.39.44.39h3.59v7.66c0,20.21,18.68,36.65,41.65,36.65h57.21c22.97,0,41.65-16.44,41.65-36.65v-7.66h2.85c.24,0,.44-.17.44-.39v-104.68h2.83c.24,0,.44-.17.44-.39v-30.02c0-.21-.2-.39-.44-.39Z"/>
          <path class="cls-48" d="m236.48,91.64h-6.12v-55.59c0-.18-.16-.31-.35-.35v-11.57c0-.14-.1-.27-.24-.32l-21.65-7.75s-.04,0-.06,0c-.03,0-.06-.03-.09-.03l-96.51-5.86s-11.29,2.02-11.32,2.02c0,0-3.89.37-3.91.37l-6.43,10.11c-.15.05-.24.18-.24.32l.03,12.88s.03.04.04.06c-.02.05-.04.11-.03.17.03.12.13.19.25.23v55.29h-7.24c-.24,0-.44.17-.44.39v30.02c0,.21.2.39.44.39h3.21v104.68c0,.21.2.39.44.39h3.59v7.66c0,20.21,18.68,36.65,41.65,36.65h57.21c22.97,0,41.65-16.44,41.65-36.65v-7.66h2.85c.24,0,.44-.17.44-.39v-104.68h2.83c.24,0,.44-.17.44-.39v-30.02c0-.21-.2-.39-.44-.39Z"/>
          <path class="cls-71" d="m236.97,91.53h-6.12v-55.59c0-.18-.16-.31-.35-.35v-11.57c0-.14-.1-.27-.24-.32l-21.65-7.75s-.04,0-.06,0c-.03,0-.06-.03-.09-.03l-96.51-5.86s-11.05,1.97-11.08,1.98c0,0-4.25.4-4.26.41l-6.32,10.02c-.15.05-.24.18-.24.32l.04,12.99s.03.04.04.06c-.02.05-.04.11-.03.17.03.12.13.19.25.23v55.29h-7.24c-.24,0-.44.17-.44.39v30.02c0,.21.2.39.44.39h3.21v104.68c0,.21.2.39.44.39h3.59v7.66c0,20.21,18.68,36.65,41.65,36.65h57.21c22.97,0,41.65-16.44,41.65-36.65v-7.66h2.85c.24,0,.44-.17.44-.39v-104.68h2.83c.24,0,.44-.17.44-.39v-30.02c0-.21-.2-.39-.44-.39Z"/>
          <path class="cls-80" d="m237.45,91.43h-6.12v-55.59c0-.18-.16-.31-.35-.35v-11.57c0-.14-.1-.27-.24-.32l-21.65-7.75s-.04,0-.06,0c-.04,0-.06-.03-.09-.03l-96.51-5.86s-10.8,1.93-10.83,1.94c0,0-4.6.43-4.62.44l-6.21,9.92c-.15.05-.24.18-.24.32l.04,13.09s.03.04.04.06c-.02.05-.04.11-.03.17.03.12.13.19.25.23v55.29h-7.24c-.24,0-.44.17-.44.39v30.02c0,.21.2.39.44.39h3.21v104.68c0,.21.2.39.44.39h3.59v7.66c0,20.21,18.68,36.65,41.65,36.65h57.21c22.97,0,41.65-16.44,41.65-36.65v-7.66h2.85c.24,0,.44-.17.44-.39v-104.68h2.83c.24,0,.44-.17.44-.39v-30.02c0-.21-.2-.39-.44-.39Z"/>
          <path class="cls-105" d="m237.94,91.32h-6.12v-55.59c0-.18-.16-.31-.35-.35v-11.57c0-.14-.1-.27-.24-.32l-21.65-7.75s-.04,0-.06,0c-.04,0-.06-.03-.09-.03l-96.51-5.86s-10.56,1.89-10.59,1.89c0,0-4.96.47-4.97.48l-6.1,9.83c-.15.05-.24.18-.24.32l.04,13.19s.03.04.04.06c-.02.05-.04.11-.03.17.03.12.13.19.25.23v55.29h-7.24c-.24,0-.44.17-.44.39v30.02c0,.21.2.39.44.39h3.21v104.68c0,.21.2.39.44.39h3.59v7.66c0,20.21,18.68,36.65,41.65,36.65h57.21c22.97,0,41.65-16.44,41.65-36.65v-7.66h2.85c.24,0,.44-.17.44-.39v-104.68h2.83c.24,0,.44-.17.44-.39v-30.02c0-.21-.2-.39-.44-.39Z"/>
          <path class="cls-93" d="m238.42,91.21h-6.12v-55.59c0-.18-.16-.31-.35-.35v-11.57c0-.14-.1-.27-.24-.32l-21.65-7.75s-.04,0-.06,0c-.04,0-.06-.03-.09-.03l-96.51-5.86s-10.31,1.84-10.34,1.85c0,0-5.31.5-5.33.51l-6,9.74c-.15.05-.24.18-.24.32l.05,13.3s.03.04.04.06c-.02.05-.04.11-.03.17.03.12.13.19.25.23v55.29h-7.24c-.24,0-.44.17-.44.39v30.02c0,.21.2.39.44.39h3.21v104.68c0,.21.2.39.44.39h3.59v7.66c0,20.21,18.68,36.65,41.65,36.65h57.21c22.97,0,41.65-16.44,41.65-36.65v-7.66h2.85c.24,0,.44-.17.44-.39v-104.68h2.83c.24,0,.44-.17.44-.39v-30.02c0-.21-.2-.39-.44-.39Z"/>
          <path class="cls-52" d="m238.91,91.1h-6.12v-55.59c0-.18-.16-.31-.35-.35v-11.57c0-.14-.1-.27-.24-.32l-21.65-7.75s-.04,0-.06,0c-.04,0-.06-.03-.09-.03l-96.51-5.86s-10.07,1.8-10.1,1.81c0,0-5.67.54-5.68.54l-5.89,9.64c-.15.05-.24.18-.24.32l.05,13.4s.03.04.04.06c-.02.05-.04.11-.03.17.03.12.13.19.25.23v55.29h-7.24c-.24,0-.44.17-.44.39v30.02c0,.21.2.39.44.39h3.21v104.68c0,.21.2.39.44.39h3.59v7.66c0,20.21,18.68,36.65,41.65,36.65h57.21c22.97,0,41.65-16.44,41.65-36.65v-7.66h2.85c.24,0,.44-.17.44-.39v-104.68h2.83c.24,0,.44-.17.44-.39v-30.02c0-.21-.2-.39-.44-.39Z"/>
          <path class="cls-62" d="m239.39,90.99h-6.12v-55.59c0-.18-.16-.31-.35-.35v-11.57c0-.14-.1-.27-.24-.32l-21.65-7.75s-.04,0-.06,0c-.04,0-.06-.03-.09-.03l-96.51-5.86s-9.82,1.76-9.86,1.76c0,0-6.02.57-6.04.58l-5.78,9.55c-.15.05-.24.18-.24.32l.05,13.5s.03.04.04.06c-.02.05-.04.11-.03.17.03.12.13.19.25.23v55.29h-7.24c-.24,0-.44.17-.44.39v30.02c0,.21.2.39.44.39h3.21v104.68c0,.21.2.39.44.39h3.59v7.66c0,20.21,18.68,36.65,41.65,36.65h57.21c22.97,0,41.65-16.44,41.65-36.65v-7.66h2.85c.24,0,.44-.17.44-.39v-104.68h2.83c.24,0,.44-.17.44-.39v-30.02c0-.21-.2-.39-.44-.39Z"/>
          <path class="cls-51" d="m239.88,90.89h-6.12v-55.59c0-.18-.16-.31-.35-.35v-11.57c0-.14-.1-.27-.24-.32l-21.66-7.75s-.04,0-.06,0c-.04,0-.06-.03-.09-.03l-96.51-5.86s-9.58,1.71-9.61,1.72c0,0-6.38.6-6.4.61l-5.67,9.45c-.15.05-.24.18-.24.32l.06,13.6s.03.04.04.06c-.02.05-.04.11-.03.17.03.12.13.19.25.23v55.29h-7.24c-.24,0-.44.17-.44.39v30.02c0,.21.2.39.44.39h3.21v104.68c0,.21.2.39.44.39h3.59v7.66c0,20.21,18.68,36.65,41.65,36.65h57.21c22.97,0,41.65-16.44,41.65-36.65v-7.66h2.85c.24,0,.44-.17.44-.39v-104.68h2.83c.24,0,.44-.17.44-.39v-30.02c0-.21-.2-.39-.44-.39Z"/>
          <path class="cls-103" d="m240.36,90.78h-6.12v-55.59c0-.18-.16-.31-.35-.35v-11.57c0-.14-.1-.27-.24-.32l-21.66-7.75s-.04,0-.05,0c-.04,0-.06-.03-.09-.03l-96.51-5.86s-9.34,1.67-9.37,1.68c0,0-6.73.64-6.75.65l-5.56,9.36c-.15.05-.24.18-.24.32l.06,13.71s.03.04.04.06c-.02.05-.04.11-.03.17.03.12.13.19.25.23v55.29h-7.24c-.24,0-.44.17-.44.39v30.02c0,.21.2.39.44.39h3.21v104.68c0,.21.2.39.44.39h3.59v7.66c0,20.21,18.68,36.65,41.65,36.65h57.21c22.97,0,41.65-16.44,41.65-36.65v-7.66h2.85c.24,0,.44-.17.44-.39v-104.68h2.83c.24,0,.44-.17.44-.39v-30.02c0-.21-.2-.39-.44-.39Z"/>
          <path class="cls-49" d="m240.85,90.67h-6.12v-55.59c0-.18-.16-.31-.35-.35v-11.57c0-.14-.1-.27-.24-.32l-21.66-7.75s-.04,0-.05,0c-.04,0-.06-.03-.09-.03l-96.51-5.86s-9.09,1.63-9.12,1.63c0,0-7.09.67-7.11.68l-5.46,9.27c-.15.05-.24.18-.24.32l.06,13.81s.03.04.04.06c-.02.05-.04.11-.03.17.03.12.13.19.25.23v55.29h-7.24c-.24,0-.44.17-.44.39v30.02c0,.21.2.39.44.39h3.21v104.68c0,.21.2.39.44.39h3.59v7.66c0,20.21,18.68,36.65,41.65,36.65h57.21c22.97,0,41.65-16.44,41.65-36.65v-7.66h2.85c.24,0,.44-.17.44-.39v-104.68h2.83c.24,0,.44-.17.44-.39v-30.02c0-.21-.2-.39-.44-.39Z"/>
          <path class="cls-35" d="m241.33,90.56h-6.12v-55.59c0-.18-.16-.31-.35-.35v-11.57c0-.14-.1-.27-.24-.32l-21.66-7.75s-.04,0-.05,0c-.04,0-.06-.03-.09-.03l-96.51-5.86s-8.85,1.58-8.88,1.59c0,0-7.44.71-7.46.71l-5.35,9.17c-.15.05-.24.18-.24.32l.07,13.91s.03.04.04.06c-.02.05-.04.11-.03.17.03.12.13.19.25.23v55.29h-7.24c-.24,0-.44.17-.44.39v30.02c0,.21.2.39.44.39h3.21v104.68c0,.21.2.39.44.39h3.59v7.66c0,20.21,18.68,36.65,41.65,36.65h57.21c22.97,0,41.65-16.44,41.65-36.65v-7.66h2.85c.24,0,.44-.17.44-.39v-104.68h2.83c.24,0,.44-.17.44-.39v-30.02c0-.21-.2-.39-.44-.39Z"/>
          <path class="cls-67" d="m241.82,90.45h-6.12v-55.59c0-.18-.16-.31-.35-.35v-11.57c0-.14-.1-.27-.24-.32l-21.66-7.75s-.04,0-.05,0c-.04,0-.06-.03-.09-.03l-96.51-5.86s-8.6,1.54-8.63,1.55c0,0-7.8.74-7.82.75l-5.24,9.08c-.15.05-.24.18-.24.32l.07,14.01s.03.04.04.06c-.02.05-.04.11-.03.17.03.12.13.19.25.23v55.29h-7.24c-.24,0-.44.17-.44.39v30.02c0,.21.2.39.44.39h3.21v104.68c0,.21.2.39.44.39h3.59v7.66c0,20.21,18.68,36.65,41.65,36.65h57.21c22.97,0,41.65-16.44,41.65-36.65v-7.66h2.85c.24,0,.44-.17.44-.39v-104.68h2.83c.24,0,.44-.17.44-.39v-30.02c0-.21-.2-.39-.44-.39Z"/>
          <path class="cls-15" d="m242.3,90.35h-6.12v-55.59c0-.18-.16-.31-.35-.35v-11.57c0-.14-.1-.27-.24-.32l-21.66-7.75s-.04,0-.05,0c-.04,0-.06-.03-.09-.03l-96.51-5.86s-8.36,1.5-8.39,1.5c0,0-8.15.77-8.17.78l-5.13,8.99c-.15.05-.24.18-.24.32l.07,14.12s.03.04.04.06c-.02.05-.04.11-.03.17.03.12.13.19.25.23v55.29h-7.24c-.24,0-.44.17-.44.39v30.02c0,.21.2.39.44.39h3.21v104.68c0,.21.2.39.44.39h3.59v7.66c0,20.21,18.68,36.65,41.65,36.65h57.21c22.97,0,41.65-16.44,41.65-36.65v-7.66h2.85c.24,0,.44-.17.44-.39v-104.68h2.83c.24,0,.44-.17.44-.39v-30.02c0-.21-.2-.39-.44-.39Z"/>
          <path class="cls-78" d="m242.79,90.24h-6.12v-55.59c0-.18-.16-.31-.35-.35v-11.57c0-.14-.1-.27-.24-.32l-21.66-7.75s-.04,0-.05,0c-.04,0-.06-.03-.09-.03l-96.51-5.86s-8.11,1.45-8.15,1.46c0,0-8.51.81-8.53.82l-5.02,8.89c-.15.05-.24.18-.24.32l.07,14.22s.03.04.04.06c-.02.05-.04.11-.03.17.03.12.13.19.25.23v55.29h-7.24c-.24,0-.44.17-.44.39v30.02c0,.21.2.39.44.39h3.21v104.68c0,.21.2.39.44.39h3.59v7.66c0,20.21,18.68,36.65,41.65,36.65h57.21c22.97,0,41.65-16.44,41.65-36.65v-7.66h2.85c.24,0,.44-.17.44-.39v-104.68h2.83c.24,0,.44-.17.44-.39v-30.02c0-.21-.2-.39-.44-.39Z"/>
          <path class="cls-90" d="m243.27,90.13h-6.12v-55.59c0-.18-.16-.31-.35-.35v-11.57c0-.14-.1-.27-.24-.32l-21.66-7.75s-.04,0-.05,0c-.04,0-.06-.03-.09-.03l-96.51-5.86s-7.87,1.41-7.9,1.42c0,0-8.87.84-8.88.85l-4.92,8.8c-.15.05-.24.18-.24.32l.08,14.32s.03.04.04.06c-.02.05-.04.11-.03.17.03.12.13.19.25.23v55.29h-7.24c-.24,0-.44.17-.44.39v30.02c0,.21.2.39.44.39h3.21v104.68c0,.21.2.39.44.39h3.59v7.66c0,20.21,18.68,36.65,41.65,36.65h57.21c22.97,0,41.65-16.44,41.65-36.65v-7.66h2.85c.24,0,.44-.17.44-.39v-104.68h2.83c.24,0,.44-.17.44-.39v-30.02c0-.21-.2-.39-.44-.39Z"/>
          <path class="cls-100" d="m243.76,90.02h-6.12v-55.59c0-.18-.16-.31-.35-.35v-11.57c0-.14-.1-.27-.24-.32l-21.66-7.75s-.04,0-.05,0c-.04,0-.06-.03-.09-.03l-96.51-5.86s-7.63,1.37-7.66,1.37c0,0-9.22.88-9.24.88l-4.81,8.71c-.15.05-.24.18-.24.32l.08,14.43s.03.04.04.06c-.02.05-.04.11-.03.17.03.12.13.19.25.23v55.29h-7.24c-.24,0-.44.17-.44.39v30.02c0,.21.2.39.44.39h3.21v104.68c0,.21.2.39.44.39h3.59v7.66c0,20.21,18.68,36.65,41.65,36.65h57.21c22.97,0,41.65-16.44,41.65-36.65v-7.66h2.85c.24,0,.44-.17.44-.39v-104.68h2.83c.24,0,.44-.17.44-.39v-30.02c0-.21-.2-.39-.44-.39Z"/>
          <path class="cls-97" d="m244.24,89.91h-6.12v-55.59c0-.18-.16-.31-.35-.35v-11.57c0-.14-.1-.27-.24-.32l-21.66-7.75s-.04,0-.05,0c-.04,0-.06-.03-.09-.03l-96.51-5.86s-7.38,1.32-7.41,1.33c0,0-9.58.91-9.59.92l-4.7,8.61c-.15.05-.24.18-.24.32l.08,14.53s.03.04.04.06c-.02.05-.04.11-.03.17.03.12.13.19.25.23v55.29h-7.24c-.24,0-.44.17-.44.39v30.02c0,.21.2.39.44.39h3.21v104.68c0,.21.2.39.44.39h3.59v7.66c0,20.21,18.68,36.65,41.65,36.65h57.21c22.97,0,41.65-16.44,41.65-36.65v-7.66h2.85c.24,0,.44-.17.44-.39v-104.68h2.83c.24,0,.44-.17.44-.39v-30.02c0-.21-.2-.39-.44-.39Z"/>
          <path class="cls-111" d="m244.73,89.81h-6.12v-55.59c0-.18-.16-.31-.35-.35v-11.57c0-.14-.1-.27-.24-.32l-21.66-7.75s-.04,0-.05,0c-.04,0-.06-.03-.09-.03l-96.51-5.86s-7.14,1.28-7.17,1.29c0,0-9.93.94-9.95.95l-4.59,8.52c-.15.05-.24.18-.24.32l.09,14.63s.03.04.04.06c-.02.05-.04.11-.03.17.03.12.13.19.25.23v55.29h-7.24c-.24,0-.44.17-.44.39v30.02c0,.21.2.39.44.39h3.21v104.68c0,.21.2.39.44.39h3.59v7.66c0,20.21,18.68,36.65,41.65,36.65h57.21c22.97,0,41.65-16.44,41.65-36.65v-7.66h2.85c.24,0,.44-.17.44-.39v-104.68h2.83c.24,0,.44-.17.44-.39v-30.02c0-.21-.2-.39-.44-.39Z"/>
          <path class="cls-101" d="m245.21,89.7h-6.12v-55.59c0-.18-.16-.31-.35-.35v-11.57c0-.14-.1-.27-.24-.32l-21.66-7.75s-.04,0-.05,0c-.04,0-.06-.03-.1-.03l-96.51-5.86s-6.89,1.24-6.92,1.24c0,0-10.29.98-10.3.99l-4.49,8.43c-.15.05-.24.18-.24.32l.09,14.73s.03.04.04.06c-.02.05-.04.11-.03.17.03.12.13.19.25.23v55.29h-7.24c-.24,0-.44.17-.44.39v30.02c0,.21.2.39.44.39h3.21v104.68c0,.21.2.39.44.39h3.59v7.66c0,20.21,18.68,36.65,41.65,36.65h57.21c22.97,0,41.65-16.44,41.65-36.65v-7.66h2.85c.24,0,.44-.17.44-.39v-104.68h2.83c.24,0,.44-.17.44-.39v-30.02c0-.21-.2-.39-.44-.39Z"/>
          <path class="cls-88" d="m245.7,89.59h-6.12v-55.59c0-.18-.16-.31-.35-.35v-11.57c0-.14-.1-.27-.24-.32l-21.66-7.75s-.04,0-.05,0c-.04,0-.06-.03-.1-.03l-96.51-5.86s-6.65,1.19-6.68,1.2c-.01,0-10.64,1.01-10.66,1.02l-4.38,8.33c-.15.05-.24.18-.24.32l.09,14.84s.03.04.04.06c-.02.05-.04.11-.03.17.03.12.13.19.25.23v55.29h-7.24c-.24,0-.44.17-.44.39v30.02c0,.21.2.39.44.39h3.21v104.68c0,.21.2.39.44.39h3.59v7.66c0,20.21,18.68,36.65,41.65,36.65h57.21c22.97,0,41.65-16.44,41.65-36.65v-7.66h2.85c.24,0,.44-.17.44-.39v-104.68h2.83c.24,0,.44-.17.44-.39v-30.02c0-.21-.2-.39-.44-.39Z"/>
          <path class="cls-40" d="m246.18,89.48h-6.12v-55.59c0-.18-.16-.31-.35-.35v-11.57c0-.14-.1-.27-.24-.32l-21.66-7.75s-.04,0-.05,0c-.04,0-.06-.03-.1-.03l-96.51-5.86s-6.4,1.15-6.44,1.16c-.01,0-11,1.05-11.01,1.05l-4.27,8.24c-.15.05-.24.18-.24.32l.1,14.94s.03.04.04.06c-.02.05-.04.11-.03.17.03.12.13.19.25.23v55.29h-7.24c-.24,0-.44.17-.44.39v30.02c0,.21.2.39.44.39h3.21v104.68c0,.21.2.39.44.39h3.59v7.66c0,20.21,18.68,36.65,41.65,36.65h57.21c22.97,0,41.65-16.44,41.65-36.65v-7.66h2.85c.24,0,.44-.17.44-.39v-104.68h2.83c.24,0,.44-.17.44-.39v-30.02c0-.21-.2-.39-.44-.39Z"/>
          <path class="cls-33" d="m246.67,89.37h-6.12v-55.59c0-.18-.16-.31-.35-.35v-11.57c0-.14-.1-.27-.24-.32l-21.66-7.75s-.04,0-.05,0c-.04,0-.06-.03-.1-.03l-96.51-5.86s-6.16,1.11-6.19,1.11c-.01,0-11.35,1.08-11.37,1.09l-4.16,8.15c-.15.05-.24.18-.24.32l.1,15.04s.03.04.04.06c-.02.05-.04.11-.03.17.03.12.13.19.25.23v55.29h-7.24c-.24,0-.44.17-.44.39v30.02c0,.21.2.39.44.39h3.21v104.68c0,.21.2.39.44.39h3.59v7.66c0,20.21,18.68,36.65,41.65,36.65h57.21c22.97,0,41.65-16.44,41.65-36.65v-7.66h2.85c.24,0,.44-.17.44-.39v-104.68h2.83c.24,0,.44-.17.44-.39v-30.02c0-.21-.2-.39-.44-.39Z"/>
          <path class="cls-59" d="m247.15,89.27h-6.12v-55.59c0-.18-.16-.31-.35-.35v-11.57c0-.14-.1-.27-.24-.32l-21.66-7.75s-.04,0-.05,0c-.04,0-.06-.03-.1-.03l-96.51-5.86s-5.92,1.06-5.95,1.07c-.01,0-11.71,1.11-11.72,1.12l-4.05,8.05c-.15.05-.24.18-.24.32l.1,15.15s.03.04.04.06c-.02.05-.04.11-.03.17.03.12.13.19.25.23v55.29h-7.24c-.24,0-.44.17-.44.39v30.02c0,.21.2.39.44.39h3.21v104.68c0,.21.2.39.44.39h3.59v7.66c0,20.21,18.68,36.65,41.65,36.65h57.21c22.97,0,41.65-16.44,41.65-36.65v-7.66h2.85c.24,0,.44-.17.44-.39v-104.68h2.83c.24,0,.44-.17.44-.39v-30.02c0-.21-.2-.39-.44-.39Z"/>
          <path class="cls-45" d="m247.64,89.16h-6.12v-55.59c0-.18-.16-.31-.35-.35v-11.57c0-.14-.1-.27-.24-.32l-21.66-7.75s-.04,0-.05,0c-.04,0-.06-.03-.1-.03l-96.51-5.86s-5.67,1.02-5.7,1.03c-.01,0-12.06,1.15-12.08,1.16l-3.95,7.96c-.15.05-.24.18-.24.32l.11,15.25s.03.04.04.06c-.02.05-.04.11-.03.17.03.12.13.19.25.23v55.29h-7.24c-.24,0-.44.17-.44.39v30.02c0,.21.2.39.44.39h3.21v104.68c0,.21.2.39.44.39h3.59v7.66c0,20.21,18.68,36.65,41.65,36.65h57.21c22.97,0,41.65-16.44,41.65-36.65v-7.66h2.85c.24,0,.44-.17.44-.39v-104.68h2.83c.24,0,.44-.17.44-.39v-30.02c0-.21-.2-.39-.44-.39Z"/>
          <path class="cls-28" d="m248.12,89.05h-6.12v-55.59c0-.18-.16-.31-.35-.35v-11.57c0-.14-.1-.27-.24-.32l-21.66-7.75s-.04,0-.05,0c-.04,0-.06-.03-.1-.03l-96.51-5.86s-5.43.98-5.46.98c-.01,0-12.42,1.18-12.44,1.19l-3.84,7.87c-.15.05-.24.18-.24.32l.11,15.35s.03.04.04.06c-.02.05-.04.11-.03.17.03.12.13.19.25.23v55.29h-7.24c-.24,0-.44.17-.44.39v30.02c0,.21.2.39.44.39h3.21v104.68c0,.21.2.39.44.39h3.59v7.66c0,20.21,18.68,36.65,41.65,36.65h57.21c22.97,0,41.65-16.44,41.65-36.65v-7.66h2.85c.24,0,.44-.17.44-.39v-104.68h2.83c.24,0,.44-.17.44-.39v-30.02c0-.21-.2-.39-.44-.39Z"/>
          <path class="cls-108" d="m248.61,88.94h-6.12v-55.59c0-.18-.16-.31-.35-.35v-11.57c0-.14-.1-.27-.24-.32l-21.66-7.75s-.04,0-.05,0c-.04,0-.07-.03-.1-.03l-96.51-5.86s-5.18.94-5.21.94c-.01,0-12.77,1.22-12.79,1.22l-3.73,7.77c-.15.05-.24.18-.24.32l.11,15.45s.03.04.04.06c-.02.05-.04.11-.03.17.03.12.13.19.25.23v55.29h-7.24c-.24,0-.44.17-.44.39v30.02c0,.21.2.39.44.39h3.21v104.68c0,.21.2.39.44.39h3.59v7.66c0,20.21,18.68,36.65,41.65,36.65h57.21c22.97,0,41.65-16.44,41.65-36.65v-7.66h2.85c.24,0,.44-.17.44-.39v-104.68h2.83c.24,0,.44-.17.44-.39v-30.02c0-.21-.2-.39-.44-.39Z"/>
          <path class="cls-36" d="m249.09,88.84h-6.12v-55.59c0-.18-.16-.31-.35-.35v-11.57c0-.14-.1-.27-.24-.32l-21.66-7.75s-.04,0-.05,0c-.04-.01-.07-.03-.1-.03l-96.51-5.86s-4.94.89-4.97.9c-.01,0-13.13,1.25-13.15,1.26l-3.62,7.68c-.15.05-.24.18-.24.32l.12,15.56s.03.04.04.06c-.02.05-.04.11-.03.17.03.12.13.19.25.23v55.29h-7.24c-.24,0-.44.17-.44.39v30.02c0,.21.2.39.44.39h3.21v104.68c0,.21.2.39.44.39h3.59v7.66c0,20.21,18.68,36.65,41.65,36.65h57.21c22.97,0,41.65-16.44,41.65-36.65v-7.66h2.85c.24,0,.44-.17.44-.39v-104.68h2.83c.24,0,.44-.17.44-.39v-30.02c0-.21-.2-.39-.44-.39Z"/>
          <path class="cls-31" d="m249.58,88.73h-6.12v-55.59c0-.18-.16-.31-.35-.35v-11.57c0-.14-.1-.27-.24-.32l-21.66-7.75s-.04,0-.05,0c-.04-.01-.07-.03-.1-.03l-96.51-5.86s-4.69.85-4.73.85c-.01,0-13.48,1.28-13.5,1.29l-3.51,7.58c-.15.05-.24.18-.24.32l.12,15.66s.03.04.04.06c-.02.05-.04.11-.03.17.03.12.13.19.25.23v55.29h-7.24c-.24,0-.44.17-.44.39v30.02c0,.21.2.39.44.39h3.21v104.68c0,.21.2.39.44.39h3.59v7.66c0,20.21,18.68,36.65,41.65,36.65h57.21c22.97,0,41.65-16.44,41.65-36.65v-7.66h2.85c.24,0,.44-.17.44-.39v-104.68h2.83c.24,0,.44-.17.44-.39v-30.02c0-.21-.2-.39-.44-.39Z"/>
          <path class="cls-72" d="m250.06,88.62h-6.12v-55.59c0-.18-.16-.31-.35-.35v-11.57c0-.14-.1-.27-.24-.32l-21.66-7.75s-.04,0-.05,0c-.04-.01-.07-.03-.1-.03l-96.51-5.86s-4.45.81-4.48.81c-.01,0-13.84,1.32-13.86,1.33l-3.41,7.49c-.15.05-.24.18-.24.32l.12,15.76s.03.04.04.06c-.02.05-.04.11-.03.17.03.12.13.19.25.23v55.29h-7.24c-.24,0-.44.17-.44.39v30.02c0,.21.2.39.44.39h3.21v104.68c0,.21.2.39.44.39h3.59v7.66c0,20.21,18.68,36.65,41.65,36.65h57.21c22.97,0,41.65-16.44,41.65-36.65v-7.66h2.85c.24,0,.44-.17.44-.39v-104.68h2.83c.24,0,.44-.17.44-.39v-30.02c0-.21-.2-.39-.44-.39Z"/>
          <path class="cls-81" d="m250.55,88.51h-6.12v-55.59c0-.18-.16-.31-.35-.35v-11.57c0-.14-.1-.27-.24-.32l-21.66-7.75s-.04,0-.05,0c-.04-.01-.07-.03-.1-.03l-96.51-5.86s-4.21.76-4.24.77c-.01,0-14.2,1.35-14.21,1.36l-3.3,7.4c-.15.05-.24.18-.24.32l.12,15.86s.03.04.04.06c-.02.05-.04.11-.03.17.03.12.13.19.25.23v55.29h-7.24c-.24,0-.44.17-.44.39v30.02c0,.21.2.39.44.39h3.21v104.68c0,.21.2.39.44.39h3.59v7.66c0,20.21,18.68,36.65,41.65,36.65h57.21c22.97,0,41.65-16.44,41.65-36.65v-7.66h2.85c.24,0,.44-.17.44-.39v-104.68h2.83c.24,0,.44-.17.44-.39v-30.02c0-.21-.2-.39-.44-.39Z"/>
          <path class="cls-95" d="m251.03,88.4h-6.12v-55.59c0-.18-.16-.31-.35-.35v-11.57c0-.14-.1-.27-.24-.32l-21.66-7.75s-.04,0-.05,0c-.05-.01-.07-.03-.1-.03l-96.51-5.86s-3.96.72-3.99.72c-.01,0-14.55,1.39-14.57,1.39l-3.19,7.3c-.15.05-.24.18-.24.32l.13,15.97s.03.04.04.06c-.02.05-.04.11-.03.17.03.12.13.19.25.23v55.29h-7.24c-.24,0-.44.17-.44.39v30.02c0,.21.2.39.44.39h3.21v104.68c0,.21.2.39.44.39h3.59v7.66c0,20.21,18.68,36.65,41.65,36.65h57.21c22.97,0,41.65-16.44,41.65-36.65v-7.66h2.85c.24,0,.44-.17.44-.39v-104.68h2.83c.24,0,.44-.17.44-.39v-30.02c0-.21-.2-.39-.44-.39Z"/>
          <path class="cls-91" d="m251.52,88.3h-6.12v-55.59c0-.18-.16-.31-.35-.35v-11.57c0-.14-.1-.27-.24-.32l-21.66-7.75s-.04,0-.05,0c-.05-.01-.07-.03-.1-.03l-96.51-5.86s-3.72.68-3.75.68c-.01,0-14.91,1.42-14.92,1.43l-3.08,7.21c-.15.05-.24.18-.24.32l.13,16.07s.03.04.04.06c-.02.05-.04.11-.03.17.03.12.13.19.25.23v55.29h-7.24c-.24,0-.44.17-.44.39v30.02c0,.21.2.39.44.39h3.21v104.68c0,.21.2.39.44.39h3.59v7.66c0,20.21,18.68,36.65,41.65,36.65h57.21c22.97,0,41.65-16.44,41.65-36.65v-7.66h2.85c.24,0,.44-.17.44-.39v-104.68h2.83c.24,0,.44-.17.44-.39v-30.02c0-.21-.2-.39-.44-.39Z"/>
          <path class="cls-64" d="m252,88.19h-6.12v-55.59c0-.18-.16-.31-.35-.35v-11.57c0-.14-.1-.27-.24-.32l-21.66-7.75s-.04,0-.05,0c-.05-.01-.07-.03-.1-.03l-96.51-5.86s-3.47.63-3.5.64c-.01,0-15.26,1.46-15.28,1.46l-2.97,7.12c-.15.05-.24.18-.24.32l.13,16.17s.03.04.04.06c-.02.05-.04.11-.03.17.03.12.13.19.25.23v55.29h-7.24c-.24,0-.44.17-.44.39v30.02c0,.21.2.39.44.39h3.21v104.68c0,.21.2.39.44.39h3.59v7.66c0,20.21,18.68,36.65,41.65,36.65h57.21c22.97,0,41.65-16.44,41.65-36.65v-7.66h2.85c.24,0,.44-.17.44-.39v-104.68h2.83c.24,0,.44-.17.44-.39v-30.02c0-.21-.2-.39-.44-.39Z"/>
          <path class="cls-102" d="m252.49,88.08h-6.12v-55.59c0-.18-.16-.31-.35-.35v-11.57c0-.14-.1-.27-.24-.32l-21.66-7.75s-.04,0-.04,0c-.05-.01-.07-.03-.1-.03l-96.51-5.86s-3.23.59-3.26.59c-.02,0-15.62,1.49-15.63,1.5l-2.87,7.02c-.15.05-.24.18-.24.32l.14,16.28s.03.04.04.06c-.02.05-.04.11-.03.17.03.12.13.19.25.23v55.29h-7.24c-.24,0-.44.17-.44.39v30.02c0,.21.2.39.44.39h3.21v104.68c0,.21.2.39.44.39h3.59v7.66c0,20.21,18.68,36.65,41.65,36.65h57.21c22.97,0,41.65-16.44,41.65-36.65v-7.66h2.85c.24,0,.44-.17.44-.39v-104.68h2.83c.24,0,.44-.17.44-.39v-30.02c0-.21-.2-.39-.44-.39Z"/>
          <path class="cls-89" d="m252.97,87.97h-6.12v-55.59c0-.18-.16-.31-.35-.35v-11.57c0-.14-.1-.27-.24-.32l-21.66-7.75s-.04,0-.04,0c-.05-.01-.07-.03-.1-.03l-96.51-5.86s-2.98.55-3.02.55c-.02,0-15.97,1.52-15.99,1.53l-2.76,6.93c-.15.05-.24.18-.24.32l.14,16.38s.03.04.04.06c-.02.05-.04.11-.03.17.03.12.13.19.25.23v55.29h-7.24c-.24,0-.44.17-.44.39v30.02c0,.21.2.39.44.39h3.21v104.68c0,.21.2.39.44.39h3.59v7.66c0,20.21,18.68,36.65,41.65,36.65h57.21c22.97,0,41.65-16.44,41.65-36.65v-7.66h2.85c.24,0,.44-.17.44-.39v-104.68h2.83c.24,0,.44-.17.44-.39v-30.02c0-.21-.2-.39-.44-.39Z"/>
          <path class="cls-37" d="m253.46,87.86h-6.12v-55.59c0-.18-.16-.31-.35-.35v-11.57c0-.14-.1-.27-.24-.32l-21.66-7.75s-.04,0-.04,0c-.05-.01-.07-.03-.1-.03l-96.51-5.86s-2.74.5-2.77.51c-.02,0-16.33,1.56-16.34,1.56l-2.65,6.84c-.15.05-.24.18-.24.32l.14,16.48s.03.04.04.06c-.02.05-.04.11-.03.17.03.12.13.19.25.23v55.29h-7.24c-.24,0-.44.17-.44.39v30.02c0,.21.2.39.44.39h3.21v104.68c0,.21.2.39.44.39h3.59v7.66c0,20.21,18.68,36.65,41.65,36.65h57.21c22.97,0,41.65-16.44,41.65-36.65v-7.66h2.85c.24,0,.44-.17.44-.39v-104.68h2.83c.24,0,.44-.17.44-.39v-30.02c0-.21-.2-.39-.44-.39Z"/>
          <path class="cls-3" d="m253.94,87.76h-6.12v-55.59c0-.18-.16-.31-.35-.35v-11.57c0-.14-.1-.27-.24-.32l-21.66-7.75s-.04,0-.04,0c-.05-.01-.07-.03-.1-.03l-96.51-5.86s-2.5.46-2.53.47c-.02,0-16.68,1.59-16.7,1.6l-2.54,6.74c-.15.05-.24.18-.24.32l.15,16.58s.03.04.04.06c-.02.05-.04.11-.03.17.03.12.13.19.25.23v55.29h-7.24c-.24,0-.44.17-.44.39v30.02c0,.21.2.39.44.39h3.21v104.68c0,.21.2.39.44.39h3.59v7.66c0,20.21,18.68,36.65,41.65,36.65h57.21c22.97,0,41.65-16.44,41.65-36.65v-7.66h2.85c.24,0,.44-.17.44-.39v-104.68h2.83c.24,0,.44-.17.44-.39v-30.02c0-.21-.2-.39-.44-.39Z"/>
          <path class="cls-55" d="m254.43,87.65h-6.12v-55.59c0-.18-.16-.31-.35-.35v-11.57c0-.14-.1-.27-.24-.32l-21.66-7.75s-.04,0-.04,0c-.05-.01-.07-.03-.1-.03l-96.51-5.86s-2.25.42-2.28.42c-.02,0-17.04,1.63-17.05,1.63l-2.44,6.65c-.15.05-.24.18-.24.32l.15,16.69s.03.04.04.06c-.02.05-.04.11-.03.17.03.12.13.19.25.23v55.29h-7.24c-.24,0-.44.17-.44.39v30.02c0,.21.2.39.44.39h3.21v104.68c0,.21.2.39.44.39h3.59v7.66c0,20.21,18.68,36.65,41.65,36.65h57.21c22.97,0,41.65-16.44,41.65-36.65v-7.66h2.85c.24,0,.44-.17.44-.39v-104.68h2.83c.24,0,.44-.17.44-.39v-30.02c0-.21-.2-.39-.44-.39Z"/>
          <path class="cls-66" d="m254.91,87.54h-6.12V31.95c0-.18-.16-.31-.35-.35v-11.57c0-.14-.1-.27-.24-.32l-21.66-7.75s-.04,0-.04,0c-.05-.01-.07-.03-.1-.03l-96.51-5.86s-2.01.37-2.04.38c-.02,0-17.39,1.66-17.41,1.67l-2.33,6.56c-.15.05-.24.18-.24.32l.15,16.79s.03.04.04.06c-.02.05-.04.11-.03.17.03.12.13.19.25.23v55.29h-7.24c-.24,0-.44.17-.44.39v30.02c0,.21.2.39.44.39h3.21v104.68c0,.21.2.39.44.39h3.59v7.66c0,20.21,18.68,36.65,41.65,36.65h57.21c22.97,0,41.65-16.44,41.65-36.65v-7.66h2.85c.24,0,.44-.17.44-.39v-104.68h2.83c.24,0,.44-.17.44-.39v-30.02c0-.21-.2-.39-.44-.39Z"/>
          <path class="cls-107" d="m255.4,87.43h-6.12V31.84c0-.18-.16-.31-.35-.35v-11.57c0-.14-.1-.27-.24-.32l-21.66-7.75s-.04,0-.04,0c-.05-.01-.07-.03-.1-.03l-96.51-5.86s-1.76.33-1.79.34c-.02,0-17.75,1.69-17.77,1.7l-2.22,6.46c-.15.05-.24.18-.24.32l.16,16.89s.03.04.04.06c-.02.05-.04.11-.03.17.03.12.13.19.25.23v55.29h-7.24c-.24,0-.44.17-.44.39v30.02c0,.21.2.39.44.39h3.21v104.68c0,.21.2.39.44.39h3.59v7.66c0,20.21,18.68,36.65,41.65,36.65h57.21c22.97,0,41.65-16.44,41.65-36.65v-7.66h2.85c.24,0,.44-.17.44-.39v-104.68h2.83c.24,0,.44-.17.44-.39v-30.02c0-.21-.2-.39-.44-.39Z"/>
          <path class="cls-85" d="m255.88,87.32h-6.12V31.73c0-.18-.16-.31-.35-.35v-11.57c0-.14-.1-.27-.24-.32l-21.66-7.75s-.04,0-.04,0c-.05-.01-.07-.03-.1-.03l-96.51-5.86s-1.52.29-1.55.29c-.02,0-18.1,1.73-18.12,1.73l-2.11,6.37c-.15.05-.24.18-.24.32l.16,16.99s.03.04.04.06c-.02.05-.04.11-.03.17.03.12.13.19.25.23v55.29h-7.24c-.24,0-.44.17-.44.39v30.02c0,.21.2.39.44.39h3.21v104.68c0,.21.2.39.44.39h3.59v7.66c0,20.21,18.68,36.65,41.65,36.65h57.21c22.97,0,41.65-16.44,41.65-36.65v-7.66h2.85c.24,0,.44-.17.44-.39v-104.68h2.83c.24,0,.44-.17.44-.39v-30.02c0-.21-.2-.39-.44-.39Z"/>
          <path class="cls-4" d="m256.37,87.22h-6.12V31.63c0-.18-.16-.31-.35-.35v-11.57c0-.14-.1-.27-.24-.32l-21.66-7.75s-.04,0-.04,0c-.05-.01-.07-.03-.1-.03l-96.51-5.86s-1.27.24-1.31.25c-.02,0-18.46,1.76-18.48,1.77l-2,6.28c-.15.05-.24.18-.24.32l.16,17.1s.03.04.04.06c-.02.05-.04.11-.03.17.03.12.13.19.25.23v55.29h-7.24c-.24,0-.44.17-.44.39v30.02c0,.21.2.39.44.39h3.21v104.68c0,.21.2.39.44.39h3.59v7.66c0,20.21,18.68,36.65,41.65,36.65h57.21c22.97,0,41.65-16.44,41.65-36.65v-7.66h2.85c.24,0,.44-.17.44-.39v-104.68h2.83c.24,0,.44-.17.44-.39v-30.02c0-.21-.2-.39-.44-.39Z"/>
          <path class="cls-106" d="m256.86,87.11h-6.12V31.52c0-.18-.16-.31-.35-.35v-11.57c0-.14-.1-.27-.24-.32l-21.66-7.75s-.04,0-.04,0c-.05-.01-.07-.03-.1-.03l-96.51-5.86s-1.03.2-1.06.21c-.02,0-18.81,1.8-18.83,1.8l-1.9,6.18c-.15.05-.24.18-.24.32l.17,17.2s.03.04.04.06c-.02.05-.04.11-.03.17.03.12.13.19.25.23v55.29h-7.24c-.24,0-.44.17-.44.39v30.02c0,.21.2.39.44.39h3.21v104.68c0,.21.2.39.44.39h3.59v7.66c0,20.21,18.68,36.65,41.65,36.65h57.21c22.97,0,41.65-16.44,41.65-36.65v-7.66h2.85c.24,0,.44-.17.44-.39v-104.68h2.83c.24,0,.44-.17.44-.39v-30.02c0-.21-.2-.39-.44-.39Z"/>
          <path class="cls-42" d="m257.34,87h-6.12V31.41c0-.18-.16-.31-.35-.35v-11.57c0-.14-.1-.27-.24-.32l-21.66-7.75s-.04,0-.04,0c-.05-.01-.07-.03-.1-.03l-96.51-5.86s-.79.16-.82.16c-.02,0-19.17,1.83-19.19,1.84l-1.79,6.09c-.15.05-.24.18-.24.32l.17,17.3s.03.04.04.06c-.02.05-.04.11-.03.17.03.11.13.19.25.23v55.29h-7.24c-.24,0-.44.17-.44.39v30.02c0,.21.2.39.44.39h3.21v104.68c0,.21.2.39.44.39h3.59v7.66c0,20.21,18.68,36.65,41.65,36.65h57.21c22.97,0,41.65-16.44,41.65-36.65v-7.66h2.85c.24,0,.44-.17.44-.39v-104.68h2.83c.24,0,.44-.17.44-.39v-30.02c0-.21-.2-.39-.44-.39Z"/>
          <path class="cls-32" d="m257.83,86.89h-6.12V31.3c0-.18-.16-.31-.35-.35v-11.57c0-.14-.1-.27-.24-.32l-21.66-7.75s-.04,0-.04,0c-.05-.01-.07-.03-.1-.03l-96.51-5.86s-.54.11-.57.12c-.02,0-19.52,1.86-19.54,1.87l-1.68,6c-.15.05-.24.18-.24.32l.17,17.41s.03.04.04.06c-.02.05-.04.11-.03.17.03.11.13.19.25.23v55.29h-7.24c-.24,0-.44.17-.44.39v30.02c0,.21.2.39.44.39h3.21v104.68c0,.21.2.39.44.39h3.59v7.66c0,20.21,18.68,36.65,41.65,36.65h57.21c22.97,0,41.65-16.44,41.65-36.65v-7.66h2.85c.24,0,.44-.17.44-.39v-104.68h2.83c.24,0,.44-.17.44-.39v-30.02c0-.21-.2-.39-.44-.39Z"/>
          <path class="cls-82" d="m258.31,86.78h-6.12V31.19c0-.18-.16-.31-.35-.35v-11.57c0-.14-.1-.27-.24-.32l-21.66-7.75s-.04,0-.04,0c-.05-.01-.07-.03-.1-.03l-96.51-5.86s-.3.07-.33.08c-.02,0-19.88,1.9-19.9,1.9l-1.57,5.9c-.15.05-.24.18-.24.32l.17,17.51s.03.04.04.06c-.02.05-.04.11-.03.17.03.11.13.19.25.23v55.29h-7.24c-.24,0-.44.17-.44.39v30.02c0,.21.2.39.44.39h3.21v104.68c0,.21.2.39.44.39h3.59v7.66c0,20.21,18.68,36.65,41.65,36.65h57.21c22.97,0,41.65-16.44,41.65-36.65v-7.66h2.85c.24,0,.44-.17.44-.39v-104.68h2.83c.24,0,.44-.17.44-.39v-30.02c0-.21-.2-.39-.44-.39Z"/>
          <path class="cls-68" d="m258.8,86.68h-6.12V31.09c0-.18-.16-.31-.35-.35v-11.57c0-.14-.1-.27-.24-.32l-21.66-7.75s-.04,0-.04,0c-.05,0-.07-.03-.1-.03l-96.51-5.86s-.05.02-.08.03c-.02,0-20.24,1.93-20.25,1.94l-1.46,5.81c-.15.05-.24.18-.24.32l.18,17.61s.03.04.04.06c-.02.05-.04.11-.03.17.03.11.13.19.25.23v55.29h-7.24c-.24,0-.44.17-.44.39v30.02c0,.21.2.39.44.39h3.21v104.68c0,.21.2.39.44.39h3.59v7.66c0,20.21,18.68,36.65,41.65,36.65h57.21c22.97,0,41.65-16.44,41.65-36.65v-7.66h2.85c.24,0,.44-.17.44-.39v-104.68h2.83c.24,0,.44-.17.44-.39v-30.02c0-.21-.2-.39-.44-.39Z"/>
        </g>
        <path class="cls-9" d="m251.7,8.98c-.31-4.78-31.28-8.64-69.46-8.64s-69.14,3.86-69.46,8.64v5s-.01,8.78-.01,8.78h138.94v-13.78Z"/>
        <ellipse class="cls-8" cx="182.24" cy="22.76" rx="69.47" ry="8.71"/>
        <path class="cls-22" d="m252.09,8.96c-.37-5.61-35.8-8.96-69.85-8.96s-69.48,3.35-69.85,8.98v13.78c-.01,5.67,35.51,9.05,69.85,9.05s69.86-3.39,69.86-9.05v-13.8Z"/>
        <path class="cls-110" d="m252.11,22.92v207.12c0,20.02-18.45,36.27-41.21,36.27h-57.21c-22.76,0-41.21-16.24-41.21-36.27V22.92h139.64Z"/>
        <path class="cls-11" d="m252.41,22.92v207.12c0,20.02-18.45,36.27-41.22,36.27h-57.21c-22.76,0-41.21-16.24-41.21-36.27V22.92h139.64Z"/>
        <rect class="cls-23" x="113.07" y="23.23" width="138.85" height="35.99"/>
        <g class="cls-26">
          <path class="cls-47" d="m251.93,23.23v206.86c0,20-18.4,36.22-41.1,36.22h-56.66c-22.7,0-41.09-16.22-41.09-36.22V23.23h138.85Z"/>
          <path class="cls-40" d="m251.15,24.74v204.9c0,19.81-18.29,35.88-40.86,35.88h-55.58c-22.56,0-40.85-16.07-40.85-35.88V24.74h137.3Z"/>
          <path class="cls-1" d="m250.37,26.26v202.94c0,19.62-18.19,35.54-40.62,35.54h-54.5c-22.43,0-40.62-15.91-40.62-35.54V26.26h135.74Z"/>
          <path class="cls-60" d="m249.59,27.77v200.98c0,19.43-18.08,35.19-40.38,35.19h-53.42c-22.3,0-40.38-15.76-40.38-35.19V27.77h134.18Z"/>
          <path class="cls-44" d="m248.81,29.29v199.02c0,19.25-17.97,34.85-40.14,34.85h-52.34c-22.17,0-40.14-15.61-40.14-34.85V29.29h132.62Z"/>
          <path class="cls-54" d="m248.03,30.81v197.06c0,19.06-17.87,34.51-39.91,34.51h-51.26c-22.04,0-39.9-15.45-39.9-34.51V30.81h131.07Z"/>
          <path class="cls-51" d="m247.25,32.32v195.1c0,18.87-17.76,34.17-39.67,34.17h-50.18c-21.91,0-39.66-15.3-39.66-34.17V32.32h129.51Z"/>
          <path class="cls-2" d="m246.47,33.84v193.14c0,18.68-17.65,33.82-39.43,33.82h-49.09c-21.77,0-39.42-15.15-39.42-33.82V33.84h127.95Z"/>
          <path class="cls-80" d="m245.69,35.35v191.18c0,18.49-17.55,33.48-39.19,33.48h-48.01c-21.64,0-39.19-14.99-39.19-33.48V35.35h126.39Z"/>
          <path class="cls-98" d="m244.92,36.87v189.22c0,18.3-17.44,33.14-38.96,33.14h-46.93c-21.51,0-38.95-14.84-38.95-33.14V36.87h124.83Z"/>
          <path class="cls-83" d="m244.14,38.38v187.26c0,18.11-17.34,32.8-38.72,32.8h-45.85c-21.38,0-38.71-14.69-38.71-32.8V38.38h123.28Z"/>
          <path class="cls-104" d="m243.36,39.9v185.3c0,17.92-17.23,32.46-38.48,32.46h-44.77c-21.25,0-38.47-14.53-38.47-32.46V39.9h121.72Z"/>
          <path class="cls-58" d="m242.58,41.42v183.34c0,17.73-17.12,32.11-38.24,32.11h-43.69c-21.11,0-38.23-14.38-38.23-32.11V41.42h120.16Z"/>
          <path class="cls-17" d="m241.8,42.93v181.38c0,17.54-17.02,31.77-38,31.77h-42.61c-20.98,0-37.99-14.23-37.99-31.77V42.93h118.6Z"/>
        </g>
        <path class="cls-20" d="m252.41,22.54H112.77c-.24,0-.44.17-.44.38v207.12c0,20.21,18.68,36.65,41.65,36.65h57.21c22.97,0,41.65-16.44,41.65-36.65V22.92c0-.21-.2-.38-.44-.38Z"/>
        <g>
          <rect class="cls-61" x="108.44" y="100.49" width="146.64" height="121.51"/>
          <g class="cls-26">
            <rect class="cls-47" x="109.17" y="109.17" width="145.96" height="112.5"/>
            <rect class="cls-40" x="110.63" y="108.78" width="143.76" height="112.29"/>
            <rect class="cls-1" x="112.08" y="108.39" width="141.55" height="112.08"/>
            <rect class="cls-60" x="113.53" y="108" width="139.34" height="111.86"/>
            <rect class="cls-44" x="114.98" y="107.6" width="137.13" height="111.65"/>
            <rect class="cls-54" x="116.43" y="107.21" width="134.92" height="111.44"/>
            <rect class="cls-51" x="117.88" y="106.82" width="132.71" height="111.23"/>
            <rect class="cls-2" x="119.33" y="106.43" width="130.5" height="111.01"/>
            <rect class="cls-80" x="120.78" y="106.03" width="128.29" height="110.8"/>
            <rect class="cls-98" x="122.23" y="105.64" width="126.08" height="110.59"/>
            <rect class="cls-83" x="123.68" y="105.25" width="123.87" height="110.37"/>
            <rect class="cls-104" x="125.14" y="104.86" width="121.66" height="110.16"/>
            <rect class="cls-58" x="126.59" y="104.46" width="119.45" height="109.95"/>
            <rect class="cls-17" x="128.04" y="104.07" width="117.24" height="109.74"/>
          </g>
          <rect class="cls-7" x="108.74" y="100.49" width="146.75" height="121.51"/>
        </g>
        <g>
          <rect class="cls-56" x="104.78" y="86.91" width="153.56" height="30.02"/>
          <g class="cls-26">
            <rect class="cls-47" x="105.41" y="86.91" width="153.56" height="30.02"/>
            <rect class="cls-40" x="106.91" y="87.19" width="151.24" height="29.12"/>
            <rect class="cls-1" x="108.41" y="87.46" width="148.92" height="28.21"/>
            <rect class="cls-60" x="109.9" y="87.74" width="146.6" height="27.31"/>
            <rect class="cls-44" x="111.4" y="88.01" width="144.28" height="26.4"/>
            <rect class="cls-54" x="112.9" y="88.29" width="141.97" height="25.49"/>
            <rect class="cls-51" x="114.39" y="88.56" width="139.65" height="24.59"/>
            <rect class="cls-2" x="115.89" y="88.84" width="137.33" height="23.68"/>
            <rect class="cls-80" x="117.39" y="89.12" width="135.01" height="22.78"/>
            <rect class="cls-98" x="118.88" y="89.39" width="132.69" height="21.87"/>
            <rect class="cls-83" x="120.38" y="89.67" width="130.37" height="20.97"/>
            <rect class="cls-104" x="121.88" y="89.94" width="128.06" height="20.06"/>
            <rect class="cls-58" x="123.37" y="90.22" width="125.74" height="19.16"/>
            <rect class="cls-17" x="124.87" y="90.49" width="123.42" height="18.25"/>
          </g>
          <polyline class="cls-11" points="108.79 116.93 105.1 116.93 105.1 86.91 258.97 86.91 258.97 116.93 255.33 116.93"/>
        </g>
        <g class="cls-26">
          <path class="cls-17" d="m121.51,52.6c0,6.01,6.16,10.88,13.75,10.88h74.54c7.6,0,13.76-4.87,13.76-10.88v-18.5c0-6.01-6.16-10.88-13.76-10.88h-74.54c-7.6,0-13.75,4.87-13.75,10.88v18.5Z"/>
          <path class="cls-74" d="m121.8,52.49c0,6.01,6.16,10.88,13.75,10.88h74.54c7.6,0,13.76-4.87,13.76-10.88v-18.5c0-6.01-6.16-10.88-13.76-10.88h-74.54c-7.6,0-13.75,4.87-13.75,10.88v18.5Z"/>
          <path class="cls-99" d="m122.09,52.37c0,6.01,6.16,10.88,13.75,10.88h74.54c7.6,0,13.76-4.87,13.76-10.88v-18.5c0-6.01-6.16-10.88-13.76-10.88h-74.54c-7.6,0-13.75,4.87-13.75,10.88v18.5Z"/>
          <path class="cls-109" d="m122.38,52.26c0,6.01,6.16,10.88,13.75,10.88h74.54c7.6,0,13.76-4.87,13.76-10.88v-18.5c0-6.01-6.16-10.88-13.76-10.88h-74.54c-7.6,0-13.75,4.87-13.75,10.88v18.5Z"/>
          <path class="cls-16" d="m122.67,52.14c0,6.01,6.16,10.88,13.75,10.88h74.54c7.6,0,13.76-4.87,13.76-10.88v-18.5c0-6.01-6.16-10.88-13.76-10.88h-74.54c-7.6,0-13.75,4.87-13.75,10.88v18.5Z"/>
          <path class="cls-65" d="m122.97,52.03c0,6.01,6.16,10.88,13.75,10.88h74.54c7.6,0,13.76-4.87,13.76-10.88v-18.5c0-6.01-6.16-10.88-13.76-10.88h-74.54c-7.6,0-13.75,4.87-13.75,10.88v18.5Z"/>
          <path class="cls-69" d="m123.26,51.91c0,6.01,6.16,10.88,13.75,10.88h74.54c7.6,0,13.76-4.87,13.76-10.88v-18.5c0-6.01-6.16-10.88-13.76-10.88h-74.54c-7.6,0-13.75,4.87-13.75,10.88v18.5Z"/>
          <path class="cls-43" d="m123.55,51.8c0,6.01,6.16,10.88,13.75,10.88h74.54c7.6,0,13.76-4.87,13.76-10.88v-18.5c0-6.01-6.16-10.88-13.76-10.88h-74.54c-7.6,0-13.75,4.87-13.75,10.88v18.5Z"/>
          <path class="cls-83" d="m123.84,51.68c0,6.01,6.16,10.88,13.75,10.88h74.54c7.6,0,13.76-4.87,13.76-10.88v-18.5c0-6.01-6.16-10.88-13.76-10.88h-74.54c-7.6,0-13.75,4.87-13.75,10.88v18.5Z"/>
          <path class="cls-77" d="m124.13,51.57c0,6.01,6.16,10.88,13.75,10.88h74.54c7.6,0,13.76-4.87,13.76-10.88v-18.5c0-6.01-6.16-10.88-13.76-10.88h-74.54c-7.6,0-13.75,4.87-13.75,10.88v18.5Z"/>
          <path class="cls-86" d="m124.43,51.45c0,6.01,6.16,10.88,13.75,10.88h74.54c7.6,0,13.76-4.87,13.76-10.88v-18.5c0-6.01-6.16-10.88-13.76-10.88h-74.54c-7.6,0-13.75,4.87-13.75,10.88v18.5Z"/>
          <path class="cls-48" d="m124.72,51.34c0,6.01,6.16,10.88,13.75,10.88h74.54c7.6,0,13.76-4.87,13.76-10.88v-18.5c0-6.01-6.16-10.88-13.76-10.88h-74.54c-7.6,0-13.75,4.87-13.75,10.88v18.5Z"/>
          <path class="cls-71" d="m125.01,51.23c0,6.01,6.16,10.88,13.75,10.88h74.54c7.6,0,13.76-4.87,13.76-10.88v-18.5c0-6.01-6.16-10.88-13.76-10.88h-74.54c-7.6,0-13.75,4.87-13.75,10.88v18.5Z"/>
          <path class="cls-80" d="m125.3,51.11c0,6.01,6.16,10.88,13.75,10.88h74.54c7.6,0,13.76-4.87,13.76-10.88v-18.5c0-6.01-6.16-10.88-13.76-10.88h-74.54c-7.6,0-13.75,4.87-13.75,10.88v18.5Z"/>
          <path class="cls-105" d="m125.59,51c0,6.01,6.16,10.88,13.75,10.88h74.54c7.6,0,13.76-4.87,13.76-10.88v-18.5c0-6.01-6.16-10.88-13.76-10.88h-74.54c-7.6,0-13.75,4.87-13.75,10.88v18.5Z"/>
          <path class="cls-93" d="m125.89,50.88c0,6.01,6.16,10.88,13.75,10.88h74.54c7.6,0,13.75-4.87,13.75-10.88v-18.5c0-6.01-6.16-10.88-13.75-10.88h-74.54c-7.6,0-13.75,4.87-13.75,10.88v18.5Z"/>
          <path class="cls-52" d="m126.18,50.77c0,6.01,6.16,10.88,13.75,10.88h74.54c7.6,0,13.75-4.87,13.75-10.88v-18.5c0-6.01-6.16-10.88-13.75-10.88h-74.54c-7.6,0-13.75,4.87-13.75,10.88v18.5Z"/>
          <path class="cls-62" d="m126.47,50.65c0,6.01,6.16,10.88,13.75,10.88h74.54c7.6,0,13.75-4.87,13.75-10.88v-18.5c0-6.01-6.16-10.88-13.75-10.88h-74.54c-7.6,0-13.75,4.87-13.75,10.88v18.5Z"/>
          <path class="cls-27" d="m126.76,50.54c0,6.01,6.16,10.88,13.75,10.88h74.54c7.6,0,13.75-4.87,13.75-10.88v-18.5c0-6.01-6.16-10.88-13.75-10.88h-74.54c-7.6,0-13.75,4.87-13.75,10.88v18.5Z"/>
          <path class="cls-84" d="m127.05,50.42c0,6.01,6.16,10.88,13.75,10.88h74.54c7.6,0,13.75-4.87,13.75-10.88v-18.5c0-6.01-6.16-10.88-13.75-10.88h-74.54c-7.6,0-13.75,4.87-13.75,10.88v18.5Z"/>
          <path class="cls-75" d="m127.35,50.31c0,6.01,6.16,10.88,13.75,10.88h74.54c7.6,0,13.75-4.87,13.75-10.88v-18.5c0-6.01-6.16-10.88-13.75-10.88h-74.54c-7.6,0-13.75,4.87-13.75,10.88v18.5Z"/>
          <path class="cls-54" d="m127.64,50.19c0,6.01,6.16,10.88,13.75,10.88h74.54c7.6,0,13.75-4.87,13.75-10.88v-18.5c0-6.01-6.16-10.88-13.75-10.88h-74.54c-7.6,0-13.75,4.87-13.75,10.88v18.5Z"/>
          <path class="cls-53" d="m127.93,50.08c0,6.01,6.16,10.88,13.75,10.88h74.54c7.6,0,13.75-4.87,13.75-10.88v-18.5c0-6.01-6.16-10.88-13.75-10.88h-74.54c-7.6,0-13.75,4.87-13.75,10.88v18.5Z"/>
          <path class="cls-94" d="m128.22,49.97c0,6.01,6.16,10.88,13.75,10.88h74.54c7.6,0,13.75-4.87,13.75-10.88v-18.5c0-6.01-6.16-10.88-13.75-10.88h-74.54c-7.6,0-13.75,4.87-13.75,10.88v18.5Z"/>
          <path class="cls-44" d="m128.51,49.85c0,6.01,6.16,10.88,13.75,10.88h74.54c7.6,0,13.75-4.87,13.75-10.88v-18.5c0-6.01-6.16-10.88-13.75-10.88h-74.54c-7.6,0-13.75,4.87-13.75,10.88v18.5Z"/>
          <path class="cls-57" d="m128.8,49.74c0,6.01,6.16,10.88,13.75,10.88h74.54c7.6,0,13.75-4.87,13.75-10.88v-18.5c0-6.01-6.16-10.88-13.75-10.88h-74.54c-7.6,0-13.75,4.87-13.75,10.88v18.5Z"/>
          <path class="cls-60" d="m129.1,49.62c0,6.01,6.16,10.88,13.75,10.88h74.54c7.6,0,13.75-4.87,13.75-10.88v-18.5c0-6.01-6.16-10.88-13.75-10.88h-74.54c-7.6,0-13.75,4.87-13.75,10.88v18.5Z"/>
          <path class="cls-18" d="m129.39,49.51c0,6.01,6.16,10.88,13.75,10.88h74.54c7.6,0,13.75-4.87,13.75-10.88v-18.5c0-6.01-6.16-10.88-13.75-10.88h-74.54c-7.6,0-13.75,4.87-13.75,10.88v18.5Z"/>
          <path class="cls-34" d="m129.68,49.39c0,6.01,6.16,10.88,13.75,10.88h74.54c7.6,0,13.75-4.87,13.75-10.88v-18.5c0-6.01-6.16-10.88-13.75-10.88h-74.54c-7.6,0-13.75,4.87-13.75,10.88v18.5Z"/>
          <path class="cls-101" d="m129.97,49.28c0,6.01,6.16,10.88,13.75,10.88h74.54c7.6,0,13.75-4.87,13.75-10.88v-18.5c0-6.01-6.16-10.88-13.75-10.88h-74.54c-7.6,0-13.75,4.87-13.75,10.88v18.5Z"/>
          <path class="cls-88" d="m130.26,49.16c0,6.01,6.16,10.88,13.75,10.88h74.54c7.6,0,13.75-4.87,13.75-10.88v-18.5c0-6.01-6.16-10.88-13.75-10.88h-74.54c-7.6,0-13.75,4.87-13.75,10.88v18.5Z"/>
          <path class="cls-40" d="m130.56,49.05c0,6.01,6.16,10.88,13.75,10.88h74.54c7.6,0,13.75-4.87,13.75-10.88v-18.5c0-6.01-6.16-10.88-13.75-10.88h-74.54c-7.6,0-13.75,4.87-13.75,10.88v18.5Z"/>
          <path class="cls-33" d="m130.85,48.93c0,6.01,6.16,10.88,13.75,10.88h74.54c7.6,0,13.75-4.87,13.75-10.88v-18.5c0-6.01-6.16-10.88-13.75-10.88h-74.54c-7.6,0-13.75,4.87-13.75,10.88v18.5Z"/>
          <path class="cls-50" d="m131.14,48.82c0,6.01,6.16,10.88,13.75,10.88h74.54c7.6,0,13.75-4.87,13.75-10.88v-18.5c0-6.01-6.16-10.88-13.75-10.88h-74.54c-7.6,0-13.75,4.87-13.75,10.88v18.5Z"/>
          <path class="cls-47" d="m131.43,48.7c0,6.01,6.16,10.88,13.75,10.88h74.54c7.6,0,13.75-4.87,13.75-10.88v-18.5c0-6.01-6.16-10.88-13.75-10.88h-74.54c-7.6,0-13.75,4.87-13.75,10.88v18.5Z"/>
        </g>
        <rect class="cls-24" x="108.44" y="116.93" width="147.26" height="24.01"/>
        <rect class="cls-19" x="112.47" y="222.36" width="139.64" height="33.14"/>
        <g>
          <path class="cls-38" d="m131.43,48.34c0,6.01,6.16,10.88,13.75,10.88h74.54c7.6,0,13.75-4.87,13.75-10.88v-18.49c0-6.01-6.16-10.88-13.75-10.88h-74.54c-7.6,0-13.75,4.87-13.75,10.88v18.49Z"/>
          <g class="cls-26">
            <path class="cls-47" d="m131.43,48.34c0,6.01,6.16,10.88,13.75,10.88h74.54c7.6,0,13.75-4.87,13.75-10.88v-18.5c0-6.01-6.16-10.88-13.75-10.88h-74.54c-7.6,0-13.75,4.87-13.75,10.88v18.5Z"/>
            <path class="cls-40" d="m131.83,46.95c0,5.96,6.17,10.8,13.79,10.8h73.66c7.62,0,13.79-4.84,13.79-10.8v-17.07c0-5.97-6.17-10.8-13.79-10.8h-73.66c-7.62,0-13.79,4.83-13.79,10.8v17.07Z"/>
            <path class="cls-1" d="m132.23,45.57c0,5.92,6.19,10.72,13.83,10.72h72.78c7.64,0,13.83-4.8,13.83-10.72v-15.65c0-5.92-6.19-10.72-13.83-10.72h-72.78c-7.64,0-13.83,4.8-13.83,10.72v15.65Z"/>
            <path class="cls-60" d="m132.63,44.19c0,5.88,6.21,10.64,13.87,10.64h71.9c7.66,0,13.87-4.77,13.87-10.64v-14.23c0-5.88-6.21-10.64-13.87-10.64h-71.9c-7.66,0-13.87,4.76-13.87,10.64v14.23Z"/>
            <path class="cls-44" d="m133.03,42.81c0,5.83,6.23,10.56,13.91,10.56h71.02c7.68,0,13.91-4.73,13.91-10.56v-12.8c0-5.84-6.23-10.56-13.91-10.56h-71.02c-7.68,0-13.91,4.73-13.91,10.56v12.8Z"/>
            <path class="cls-54" d="m133.43,41.43c0,5.79,6.24,10.48,13.95,10.48h70.14c7.71,0,13.95-4.7,13.95-10.48v-11.38c0-5.79-6.25-10.48-13.95-10.48h-70.14c-7.71,0-13.95,4.69-13.95,10.48v11.38Z"/>
            <path class="cls-51" d="m133.83,40.05c0,5.75,6.26,10.41,13.99,10.41h69.26c7.73,0,13.99-4.66,13.99-10.41v-9.96c0-5.75-6.27-10.41-13.99-10.41h-69.26c-7.73,0-13.99,4.66-13.99,10.41v9.96Z"/>
            <path class="cls-2" d="m134.23,38.66c0,5.7,6.28,10.33,14.03,10.33h68.38c7.75,0,14.03-4.63,14.03-10.33v-8.54c0-5.71-6.28-10.33-14.03-10.33h-68.38c-7.75,0-14.03,4.62-14.03,10.33v8.54Z"/>
            <path class="cls-80" d="m134.63,37.28c0,5.66,6.3,10.25,14.07,10.25h67.5c7.77,0,14.07-4.59,14.07-10.25v-7.11c0-5.66-6.3-10.25-14.07-10.25h-67.5c-7.77,0-14.07,4.59-14.07,10.25v7.11Z"/>
            <path class="cls-98" d="m135.04,35.9c0,5.62,6.31,10.17,14.11,10.17h66.62c7.79,0,14.11-4.56,14.11-10.17v-5.69c0-5.62-6.32-10.17-14.11-10.17h-66.62c-7.79,0-14.11,4.55-14.11,10.17v5.69Z"/>
            <path class="cls-83" d="m135.44,34.52c0,5.57,6.33,10.09,14.15,10.09h65.74c7.82,0,14.15-4.52,14.15-10.09v-4.27c0-5.58-6.34-10.09-14.15-10.09h-65.74c-7.82,0-14.15,4.52-14.15,10.09v4.27Z"/>
            <path class="cls-104" d="m135.84,33.14c0,5.53,6.35,10.01,14.19,10.01h64.86c7.84,0,14.19-4.48,14.19-10.01v-2.85c0-5.53-6.36-10.01-14.19-10.01h-64.86c-7.84,0-14.19,4.48-14.19,10.01v2.85Z"/>
            <path class="cls-58" d="m136.24,31.76c0,5.48,6.37,9.93,14.23,9.93h63.98c7.86,0,14.23-4.45,14.23-9.93v-1.42c0-5.49-6.38-9.93-14.23-9.93h-63.98c-7.86,0-14.23,4.44-14.23,9.93v1.42Z"/>
            <path class="cls-17" d="m136.64,30.37c0,5.44,6.39,9.86,14.27,9.86h63.1c7.88,0,14.27-4.41,14.27-9.86h0c0-5.45-6.39-9.86-14.27-9.86h-63.1c-7.88,0-14.27,4.41-14.27,9.86h0Z"/>
          </g>
          <path class="cls-13" d="m131.43,48.34c0,6.01,6.16,10.88,13.75,10.88h74.54c7.6,0,13.75-4.87,13.75-10.88v-18.5c0-6.01-6.16-10.88-13.75-10.88h-74.54c-7.6,0-13.75,4.87-13.75,10.88v18.5Z"/>
        </g>
        <g class="cls-26">
          <path class="cls-17" d="m140.57,75.14c0,4.02,4.13,7.29,9.22,7.29h49.96c5.09,0,9.22-3.27,9.22-7.29v-12.4c0-4.03-4.13-7.29-9.22-7.29h-49.96c-5.09,0-9.22,3.26-9.22,7.29v12.4Z"/>
          <path class="cls-74" d="m140.76,75.06c0,4.02,4.13,7.29,9.22,7.29h49.96c5.09,0,9.22-3.27,9.22-7.29v-12.4c0-4.03-4.13-7.29-9.22-7.29h-49.96c-5.09,0-9.22,3.26-9.22,7.29v12.4Z"/>
          <path class="cls-99" d="m140.96,74.99c0,4.02,4.13,7.29,9.22,7.29h49.96c5.09,0,9.22-3.27,9.22-7.29v-12.4c0-4.03-4.13-7.29-9.22-7.29h-49.96c-5.09,0-9.22,3.26-9.22,7.29v12.4Z"/>
          <path class="cls-109" d="m141.15,74.91c0,4.02,4.13,7.29,9.22,7.29h49.96c5.09,0,9.22-3.27,9.22-7.29v-12.4c0-4.03-4.13-7.29-9.22-7.29h-49.96c-5.09,0-9.22,3.26-9.22,7.29v12.4Z"/>
          <path class="cls-16" d="m141.35,74.83c0,4.02,4.13,7.29,9.22,7.29h49.96c5.09,0,9.22-3.27,9.22-7.29v-12.4c0-4.03-4.13-7.29-9.22-7.29h-49.96c-5.09,0-9.22,3.26-9.22,7.29v12.4Z"/>
          <path class="cls-65" d="m141.55,74.76c0,4.02,4.13,7.29,9.22,7.29h49.96c5.09,0,9.22-3.27,9.22-7.29v-12.4c0-4.03-4.13-7.29-9.22-7.29h-49.96c-5.09,0-9.22,3.26-9.22,7.29v12.4Z"/>
          <path class="cls-69" d="m141.74,74.68c0,4.02,4.13,7.29,9.22,7.29h49.96c5.09,0,9.22-3.27,9.22-7.29v-12.4c0-4.03-4.13-7.29-9.22-7.29h-49.96c-5.09,0-9.22,3.26-9.22,7.29v12.4Z"/>
          <path class="cls-43" d="m141.94,74.6c0,4.02,4.13,7.29,9.22,7.29h49.96c5.09,0,9.22-3.27,9.22-7.29v-12.4c0-4.03-4.13-7.29-9.22-7.29h-49.96c-5.09,0-9.22,3.26-9.22,7.29v12.4Z"/>
          <path class="cls-83" d="m142.13,74.53c0,4.02,4.13,7.29,9.22,7.29h49.96c5.09,0,9.22-3.27,9.22-7.29v-12.4c0-4.03-4.13-7.29-9.22-7.29h-49.96c-5.09,0-9.22,3.26-9.22,7.29v12.4Z"/>
          <path class="cls-77" d="m142.33,74.45c0,4.02,4.13,7.29,9.22,7.29h49.96c5.09,0,9.22-3.27,9.22-7.29v-12.4c0-4.03-4.13-7.29-9.22-7.29h-49.96c-5.09,0-9.22,3.26-9.22,7.29v12.4Z"/>
          <path class="cls-86" d="m142.52,74.37c0,4.02,4.13,7.29,9.22,7.29h49.96c5.09,0,9.22-3.27,9.22-7.29v-12.4c0-4.03-4.13-7.29-9.22-7.29h-49.96c-5.09,0-9.22,3.26-9.22,7.29v12.4Z"/>
          <path class="cls-48" d="m142.72,74.3c0,4.02,4.13,7.29,9.22,7.29h49.96c5.09,0,9.22-3.27,9.22-7.29v-12.4c0-4.03-4.13-7.29-9.22-7.29h-49.96c-5.09,0-9.22,3.26-9.22,7.29v12.4Z"/>
          <path class="cls-71" d="m142.92,74.22c0,4.02,4.13,7.29,9.22,7.29h49.96c5.09,0,9.22-3.27,9.22-7.29v-12.4c0-4.03-4.13-7.29-9.22-7.29h-49.96c-5.09,0-9.22,3.26-9.22,7.29v12.4Z"/>
          <path class="cls-80" d="m143.11,74.14c0,4.02,4.13,7.29,9.22,7.29h49.96c5.09,0,9.22-3.27,9.22-7.29v-12.4c0-4.03-4.13-7.29-9.22-7.29h-49.96c-5.09,0-9.22,3.26-9.22,7.29v12.4Z"/>
          <path class="cls-105" d="m143.31,74.06c0,4.02,4.13,7.29,9.22,7.29h49.96c5.09,0,9.22-3.27,9.22-7.29v-12.4c0-4.03-4.13-7.29-9.22-7.29h-49.96c-5.09,0-9.22,3.26-9.22,7.29v12.4Z"/>
          <path class="cls-93" d="m143.5,73.99c0,4.02,4.13,7.29,9.22,7.29h49.96c5.09,0,9.22-3.27,9.22-7.29v-12.4c0-4.03-4.13-7.29-9.22-7.29h-49.96c-5.09,0-9.22,3.26-9.22,7.29v12.4Z"/>
          <path class="cls-52" d="m143.7,73.91c0,4.02,4.13,7.29,9.22,7.29h49.96c5.09,0,9.22-3.27,9.22-7.29v-12.4c0-4.03-4.13-7.29-9.22-7.29h-49.96c-5.09,0-9.22,3.26-9.22,7.29v12.4Z"/>
          <path class="cls-62" d="m143.89,73.83c0,4.02,4.13,7.29,9.22,7.29h49.96c5.09,0,9.22-3.27,9.22-7.29v-12.4c0-4.03-4.13-7.29-9.22-7.29h-49.96c-5.09,0-9.22,3.26-9.22,7.29v12.4Z"/>
          <path class="cls-27" d="m144.09,73.76c0,4.02,4.13,7.29,9.22,7.29h49.96c5.09,0,9.22-3.27,9.22-7.29v-12.4c0-4.03-4.13-7.29-9.22-7.29h-49.96c-5.09,0-9.22,3.26-9.22,7.29v12.4Z"/>
          <path class="cls-84" d="m144.29,73.68c0,4.02,4.13,7.29,9.22,7.29h49.96c5.09,0,9.22-3.27,9.22-7.29v-12.4c0-4.03-4.13-7.29-9.22-7.29h-49.96c-5.09,0-9.22,3.26-9.22,7.29v12.4Z"/>
          <path class="cls-75" d="m144.48,73.6c0,4.02,4.13,7.29,9.22,7.29h49.96c5.09,0,9.22-3.27,9.22-7.29v-12.4c0-4.03-4.13-7.29-9.22-7.29h-49.96c-5.09,0-9.22,3.26-9.22,7.29v12.4Z"/>
          <path class="cls-54" d="m144.68,73.53c0,4.02,4.13,7.29,9.22,7.29h49.96c5.09,0,9.22-3.27,9.22-7.29v-12.4c0-4.03-4.13-7.29-9.22-7.29h-49.96c-5.09,0-9.22,3.26-9.22,7.29v12.4Z"/>
          <path class="cls-53" d="m144.87,73.45c0,4.02,4.13,7.29,9.22,7.29h49.96c5.09,0,9.22-3.27,9.22-7.29v-12.4c0-4.03-4.13-7.29-9.22-7.29h-49.96c-5.09,0-9.22,3.26-9.22,7.29v12.4Z"/>
          <path class="cls-94" d="m145.07,73.37c0,4.02,4.13,7.29,9.22,7.29h49.96c5.09,0,9.22-3.27,9.22-7.29v-12.4c0-4.03-4.13-7.29-9.22-7.29h-49.96c-5.09,0-9.22,3.26-9.22,7.29v12.4Z"/>
          <path class="cls-44" d="m145.26,73.3c0,4.02,4.13,7.29,9.22,7.29h49.96c5.09,0,9.22-3.27,9.22-7.29v-12.4c0-4.03-4.13-7.29-9.22-7.29h-49.96c-5.09,0-9.22,3.26-9.22,7.29v12.4Z"/>
          <path class="cls-57" d="m145.46,73.22c0,4.02,4.13,7.29,9.22,7.29h49.96c5.09,0,9.22-3.27,9.22-7.29v-12.4c0-4.03-4.13-7.29-9.22-7.29h-49.96c-5.09,0-9.22,3.26-9.22,7.29v12.4Z"/>
          <path class="cls-60" d="m145.66,73.14c0,4.02,4.13,7.29,9.22,7.29h49.96c5.09,0,9.22-3.27,9.22-7.29v-12.4c0-4.03-4.13-7.29-9.22-7.29h-49.96c-5.09,0-9.22,3.26-9.22,7.29v12.4Z"/>
          <path class="cls-18" d="m145.85,73.07c0,4.02,4.13,7.29,9.22,7.29h49.96c5.09,0,9.22-3.27,9.22-7.29v-12.4c0-4.03-4.13-7.29-9.22-7.29h-49.96c-5.09,0-9.22,3.26-9.22,7.29v12.4Z"/>
          <path class="cls-34" d="m146.05,72.99c0,4.02,4.13,7.29,9.22,7.29h49.96c5.09,0,9.22-3.27,9.22-7.29v-12.4c0-4.03-4.13-7.29-9.22-7.29h-49.96c-5.09,0-9.22,3.26-9.22,7.29v12.4Z"/>
          <path class="cls-101" d="m146.24,72.91c0,4.02,4.13,7.29,9.22,7.29h49.96c5.09,0,9.22-3.27,9.22-7.29v-12.4c0-4.03-4.13-7.29-9.22-7.29h-49.96c-5.09,0-9.22,3.26-9.22,7.29v12.4Z"/>
          <path class="cls-88" d="m146.44,72.84c0,4.02,4.13,7.29,9.22,7.29h49.96c5.09,0,9.22-3.27,9.22-7.29v-12.4c0-4.03-4.13-7.29-9.22-7.29h-49.96c-5.09,0-9.22,3.26-9.22,7.29v12.4Z"/>
          <path class="cls-40" d="m146.63,72.76c0,4.02,4.13,7.29,9.22,7.29h49.96c5.09,0,9.22-3.27,9.22-7.29v-12.4c0-4.03-4.13-7.29-9.22-7.29h-49.96c-5.09,0-9.22,3.26-9.22,7.29v12.4Z"/>
          <path class="cls-33" d="m146.83,72.68c0,4.02,4.13,7.29,9.22,7.29h49.96c5.09,0,9.22-3.27,9.22-7.29v-12.4c0-4.03-4.13-7.29-9.22-7.29h-49.96c-5.09,0-9.22,3.26-9.22,7.29v12.4Z"/>
          <path class="cls-50" d="m147.03,72.61c0,4.02,4.13,7.29,9.22,7.29h49.96c5.09,0,9.22-3.27,9.22-7.29v-12.4c0-4.03-4.13-7.29-9.22-7.29h-49.96c-5.09,0-9.22,3.26-9.22,7.29v12.4Z"/>
          <path class="cls-47" d="m147.22,72.53c0,4.02,4.13,7.29,9.22,7.29h49.96c5.09,0,9.22-3.27,9.22-7.29v-12.4c0-4.03-4.13-7.29-9.22-7.29h-49.96c-5.09,0-9.22,3.26-9.22,7.29v12.4Z"/>
        </g>
        <g>
          <path class="cls-30" d="m147.22,72.28c0,4.03,4.13,7.29,9.22,7.29h49.96c5.09,0,9.22-3.26,9.22-7.29v-12.39c0-4.03-4.13-7.29-9.22-7.29h-49.96c-5.09,0-9.22,3.26-9.22,7.29v12.39Z"/>
          <g class="cls-26">
            <path class="cls-47" d="m147.22,72.28c0,4.03,4.13,7.29,9.22,7.29h49.96c5.09,0,9.22-3.26,9.22-7.29v-12.4c0-4.03-4.13-7.29-9.22-7.29h-49.96c-5.09,0-9.22,3.26-9.22,7.29v12.4Z"/>
            <path class="cls-40" d="m147.49,71.35c0,4,4.14,7.24,9.24,7.24h49.37c5.11,0,9.24-3.24,9.24-7.24v-11.44c0-4-4.14-7.24-9.24-7.24h-49.37c-5.11,0-9.24,3.24-9.24,7.24v11.44Z"/>
            <path class="cls-1" d="m147.76,70.43c0,3.97,4.15,7.18,9.27,7.18h48.78c5.12,0,9.27-3.22,9.27-7.18v-10.49c0-3.97-4.15-7.19-9.27-7.19h-48.78c-5.12,0-9.27,3.22-9.27,7.19v10.49Z"/>
            <path class="cls-60" d="m148.03,69.5c0,3.94,4.16,7.13,9.3,7.13h48.19c5.14,0,9.3-3.19,9.3-7.13v-9.54c0-3.94-4.16-7.13-9.3-7.13h-48.19c-5.14,0-9.3,3.19-9.3,7.13v9.54Z"/>
            <path class="cls-44" d="m148.29,68.58c0,3.91,4.17,7.08,9.32,7.08h47.6c5.15,0,9.33-3.17,9.33-7.08v-8.58c0-3.91-4.18-7.08-9.33-7.08h-47.6c-5.15,0-9.32,3.17-9.32,7.08v8.58Z"/>
            <path class="cls-54" d="m148.56,67.65c0,3.88,4.19,7.03,9.35,7.03h47.01c5.16,0,9.35-3.15,9.35-7.03v-7.63c0-3.88-4.19-7.03-9.35-7.03h-47.01c-5.16,0-9.35,3.14-9.35,7.03v7.63Z"/>
            <path class="cls-51" d="m148.83,66.72c0,3.85,4.2,6.97,9.38,6.97h46.42c5.18,0,9.38-3.12,9.38-6.97v-6.68c0-3.85-4.2-6.98-9.38-6.98h-46.42c-5.18,0-9.38,3.12-9.38,6.98v6.68Z"/>
            <path class="cls-2" d="m149.1,65.8c0,3.82,4.21,6.92,9.4,6.92h45.83c5.19,0,9.41-3.1,9.41-6.92v-5.72c0-3.83-4.21-6.92-9.41-6.92h-45.83c-5.19,0-9.4,3.1-9.4,6.92v5.72Z"/>
            <path class="cls-80" d="m149.37,64.87c0,3.79,4.22,6.87,9.43,6.87h45.24c5.21,0,9.43-3.08,9.43-6.87v-4.77c0-3.8-4.23-6.87-9.43-6.87h-45.24c-5.21,0-9.43,3.07-9.43,6.87v4.77Z"/>
            <path class="cls-98" d="m149.64,63.95c0,3.76,4.23,6.82,9.46,6.82h44.65c5.22,0,9.46-3.05,9.46-6.82v-3.81c0-3.77-4.24-6.82-9.46-6.82h-44.65c-5.22,0-9.46,3.05-9.46,6.82v3.81Z"/>
            <path class="cls-83" d="m149.91,63.02c0,3.74,4.25,6.76,9.48,6.76h44.06c5.24,0,9.49-3.03,9.49-6.76v-2.86c0-3.74-4.25-6.77-9.49-6.77h-44.06c-5.24,0-9.48,3.03-9.48,6.77v2.86Z"/>
            <path class="cls-104" d="m150.17,62.09c0,3.71,4.26,6.71,9.51,6.71h43.47c5.25,0,9.51-3,9.51-6.71v-1.91c0-3.71-4.26-6.71-9.51-6.71h-43.47c-5.25,0-9.51,3-9.51,6.71v1.91Z"/>
            <path class="cls-58" d="m150.44,61.17c0,3.68,4.27,6.66,9.54,6.66h42.88c5.27,0,9.54-2.98,9.54-6.66v-.95c0-3.68-4.27-6.66-9.54-6.66h-42.88c-5.27,0-9.54,2.98-9.54,6.66v.95Z"/>
            <path class="cls-17" d="m150.71,60.24c0,3.65,4.28,6.61,9.56,6.61h42.29c5.28,0,9.57-2.96,9.57-6.61h0c0-3.65-4.29-6.61-9.57-6.61h-42.29c-5.28,0-9.56,2.96-9.56,6.61h0Z"/>
          </g>
          <path class="cls-13" d="m147.22,72.28c0,4.03,4.13,7.29,9.22,7.29h49.96c5.09,0,9.22-3.26,9.22-7.29v-12.4c0-4.03-4.13-7.29-9.22-7.29h-49.96c-5.09,0-9.22,3.26-9.22,7.29v12.4Z"/>
        </g>
        <path class="cls-20" d="m206.4,52.25h-49.96c-5.3,0-9.61,3.43-9.61,7.63v12.4c0,4.21,4.31,7.63,9.61,7.63h49.96c5.3,0,9.61-3.43,9.61-7.63v-12.4c0-4.21-4.31-7.63-9.61-7.63Z"/>
      </g>
    </g>
  </g>
</svg>