<?xml version="1.0" encoding="UTF-8"?>
<svg xmlns="http://www.w3.org/2000/svg" xmlns:xlink="http://www.w3.org/1999/xlink" viewBox="0 0 193.75 259.19">
  <defs>
    <style>
      .cls-1 {
        fill: #e0dfdf;
      }

      .cls-2 {
        fill: #ecebeb;
      }

      .cls-3 {
        fill: #cfcfce;
      }

      .cls-4 {
        fill: #cbcaca;
      }

      .cls-5 {
        fill: url(#linear-gradient-2);
      }

      .cls-5, .cls-6, .cls-7, .cls-8 {
        stroke-linecap: round;
        stroke-linejoin: round;
      }

      .cls-5, .cls-7, .cls-8 {
        stroke: #959494;
        stroke-width: .03px;
      }

      .cls-9 {
        fill: #e5e4e4;
      }

      .cls-10 {
        fill: #f9f8f8;
      }

      .cls-11 {
        fill: #fff;
      }

      .cls-12 {
        fill: #e2e1e0;
      }

      .cls-13 {
        fill: #eae9e9;
      }

      .cls-14 {
        fill: #dad9d8;
      }

      .cls-15 {
        fill: url(#linear-gradient-4);
      }

      .cls-15, .cls-16, .cls-17, .cls-18, .cls-19, .cls-20 {
        mix-blend-mode: multiply;
      }

      .cls-16 {
        fill: #f1594e;
      }

      .cls-21 {
        fill: #d7d6d6;
      }

      .cls-22 {
        fill: #c9c8c7;
      }

      .cls-23 {
        fill: #dddcdb;
      }

      .cls-24 {
        fill: #e1e0df;
      }

      .cls-25 {
        fill: #e7e6e5;
      }

      .cls-26 {
        fill: #d8d7d6;
      }

      .cls-27 {
        fill: #d0cfcf;
      }

      .cls-28 {
        fill: url(#linear-gradient-6);
      }

      .cls-29 {
        fill: #dedddc;
      }

      .cls-30 {
        isolation: isolate;
      }

      .cls-31 {
        fill: #c9c9c8;
      }

      .cls-32 {
        fill: #f5f4f4;
      }

      .cls-33 {
        fill: #e5e4e3;
      }

      .cls-34 {
        fill: #dbdad9;
      }

      .cls-35 {
        fill: #dbdada;
      }

      .cls-36 {
        fill: #f1f0ef;
      }

      .cls-37 {
        fill: #e8e7e6;
      }

      .cls-38 {
        fill: #dcdbdb;
      }

      .cls-39 {
        fill: #eae9e8;
      }

      .cls-40 {
        fill: #ecebea;
      }

      .cls-41 {
        fill: #e7e5e5;
      }

      .cls-42 {
        fill: #e8e6e6;
      }

      .cls-17 {
        fill: #c67f38;
      }

      .cls-43 {
        fill: #cfcecd;
      }

      .cls-44 {
        fill: url(#linear-gradient-11);
      }

      .cls-45 {
        fill: #e4e3e2;
      }

      .cls-46 {
        fill: #fbfafa;
      }

      .cls-47 {
        fill: #dcdbda;
      }

      .cls-48 {
        fill: #e3e2e1;
      }

      .cls-49 {
        fill: url(#linear-gradient-10);
      }

      .cls-50 {
        fill: #ebeae9;
      }

      .cls-51 {
        fill: #f3f2f1;
      }

      .cls-52 {
        fill: #d3d2d1;
      }

      .cls-53 {
        fill: #f7f7f6;
      }

      .cls-54 {
        fill: #cecdcc;
      }

      .cls-55 {
        fill: #e6e5e4;
      }

      .cls-56 {
        fill: #c7c6c5;
      }

      .cls-57 {
        fill: #f6f6f5;
      }

      .cls-58 {
        fill: #f0efee;
      }

      .cls-59 {
        fill: #d6d6d5;
      }

      .cls-18 {
        fill: url(#linear-gradient-8);
      }

      .cls-60 {
        fill: #f6f5f5;
      }

      .cls-61 {
        fill: #fdfdfd;
      }

      .cls-62 {
        fill: #e8e7e7;
      }

      .cls-63 {
        fill: #f3f2f2;
      }

      .cls-64 {
        fill: #e4e3e3;
      }

      .cls-65 {
        fill: #fbfbfb;
      }

      .cls-66 {
        fill: #efeeed;
      }

      .cls-67 {
        fill: #d5d5d4;
      }

      .cls-68 {
        fill: url(#linear-gradient-5);
      }

      .cls-69 {
        fill: #c8c7c6;
      }

      .cls-70 {
        fill: #f4f3f3;
      }

      .cls-71 {
        fill: #e9e8e8;
      }

      .cls-72 {
        fill: #cccbca;
      }

      .cls-73 {
        fill: #f2f1f1;
      }

      .cls-74 {
        fill: #dfdedd;
      }

      .cls-75 {
        fill: #d1d0cf;
      }

      .cls-6 {
        stroke: #8f8f8f;
        stroke-width: .03px;
      }

      .cls-6, .cls-7 {
        fill: none;
      }

      .cls-76 {
        fill: #e3e2e2;
      }

      .cls-77 {
        fill: #d4d3d2;
      }

      .cls-78 {
        fill: #edeceb;
      }

      .cls-79 {
        fill: #e6e4e4;
      }

      .cls-80 {
        fill: #d5d4d3;
      }

      .cls-81 {
        fill: #e1e0e0;
      }

      .cls-82 {
        fill: url(#linear-gradient-9);
      }

      .cls-83 {
        fill: #f2f1f0;
      }

      .cls-84 {
        fill: #fcfbfb;
      }

      .cls-85 {
        fill: #e2e1e1;
      }

      .cls-86 {
        fill: url(#linear-gradient-3);
      }

      .cls-87 {
        fill: #e0dfde;
      }

      .cls-88 {
        fill: #d2d1d0;
      }

      .cls-19 {
        fill: url(#linear-gradient-7);
      }

      .cls-89 {
        fill: #e9e8e7;
      }

      .cls-90 {
        fill: #f7f6f6;
      }

      .cls-91 {
        fill: #eeedec;
      }

      .cls-92 {
        fill: #cac9c9;
      }

      .cls-93 {
        fill: #cdcccb;
      }

      .cls-94 {
        fill: #d9d8d7;
      }

      .cls-95 {
        fill: #fafaf9;
      }

      .cls-96 {
        fill: url(#linear-gradient-12);
      }

      .cls-8 {
        fill: url(#linear-gradient);
      }

      .cls-97 {
        fill: #e0e0df;
      }
    </style>
    <linearGradient id="linear-gradient" x1="189.46" y1="10.95" x2="22.2" y2="10.95" gradientUnits="userSpaceOnUse">
      <stop offset="0" stop-color="#bababa"/>
      <stop offset=".13" stop-color="#f2f2f2"/>
      <stop offset=".38" stop-color="#e5e5e5"/>
      <stop offset=".86" stop-color="#c3c3c3"/>
      <stop offset="1" stop-color="#b8b8b8"/>
    </linearGradient>
    <linearGradient id="linear-gradient-2" x1="22.2" y1="21.58" x2="189.46" y2="21.58" gradientUnits="userSpaceOnUse">
      <stop offset="0" stop-color="#a3a2a1"/>
      <stop offset="1" stop-color="#737373"/>
    </linearGradient>
    <linearGradient id="linear-gradient-3" x1="189.24" y1="137.2" x2="22.01" y2="137.2" gradientUnits="userSpaceOnUse">
      <stop offset="0" stop-color="#ebebeb"/>
      <stop offset=".29" stop-color="#e7e7e6"/>
      <stop offset=".57" stop-color="#dbdbda"/>
      <stop offset=".86" stop-color="#c7c7c6"/>
      <stop offset="1" stop-color="#bbbbba"/>
    </linearGradient>
    <linearGradient id="linear-gradient-4" x1="-144.2" y1="393.11" x2="-144.2" y2="427.25" gradientTransform="translate(249.96 449.28) scale(1 -1)" gradientUnits="userSpaceOnUse">
      <stop offset="0" stop-color="#fff"/>
      <stop offset=".66" stop-color="#ebebea"/>
      <stop offset="1" stop-color="#e0e0df"/>
    </linearGradient>
    <linearGradient id="linear-gradient-5" x1="191.09" y1="164.92" x2="19.51" y2="164.92" gradientUnits="userSpaceOnUse">
      <stop offset="0" stop-color="#ebebeb"/>
      <stop offset=".29" stop-color="#e7e7e6"/>
      <stop offset=".58" stop-color="#dbdbda"/>
      <stop offset=".88" stop-color="#c7c7c6"/>
      <stop offset="1" stop-color="#bdbdbc"/>
    </linearGradient>
    <linearGradient id="linear-gradient-6" x1="193.11" y1="108.42" x2="17.24" y2="108.42" gradientUnits="userSpaceOnUse">
      <stop offset="0" stop-color="#ebebeb"/>
      <stop offset=".31" stop-color="#e7e7e6"/>
      <stop offset=".62" stop-color="#dbdbda"/>
      <stop offset=".93" stop-color="#c8c7c6"/>
      <stop offset="1" stop-color="#c3c2c1"/>
    </linearGradient>
    <linearGradient id="linear-gradient-7" x1="-144.47" y1="315.56" x2="-144.47" y2="338.34" gradientTransform="translate(249.96 449.28) scale(1 -1)" gradientUnits="userSpaceOnUse">
      <stop offset="0" stop-color="#fff"/>
      <stop offset=".69" stop-color="#fff"/>
      <stop offset=".8" stop-color="#f6f6f6"/>
      <stop offset=".97" stop-color="#dedfdd"/>
      <stop offset="1" stop-color="#d9dad8"/>
    </linearGradient>
    <linearGradient id="linear-gradient-8" x1="-144.33" y1="206.88" x2="-144.33" y2="238.32" xlink:href="#linear-gradient-7"/>
    <linearGradient id="linear-gradient-9" x1="104.06" y1="37.08" x2="40.79" y2="37.08" gradientUnits="userSpaceOnUse">
      <stop offset="0" stop-color="#fff"/>
      <stop offset="1" stop-color="#c9c9c9"/>
    </linearGradient>
    <linearGradient id="linear-gradient-10" x1="92.98" y1="62.69" x2="50.58" y2="62.69" xlink:href="#linear-gradient-9"/>
    <linearGradient id="linear-gradient-11" x1="173.48" x2="110.21" xlink:href="#linear-gradient-9"/>
    <linearGradient id="linear-gradient-12" x1="162.4" y1="62.69" x2="120" y2="62.69" xlink:href="#linear-gradient-9"/>
  </defs>
  <g class="cls-30">
    <g id="Layer_1" data-name="Layer 1">
      <g>
        <g class="cls-20">
          <path class="cls-11" d="m176.33,88.24h-3.8v-52.75c0-.17-.1-.3-.22-.33v-10.98c0-.13-.06-.25-.15-.3l-13.43-7.36s-.03,0-.04,0c-.02,0-.03-.03-.05-.03L18.16,10.94s-8.67,2.37-8.69,2.37c-.01,0,.01,0,0,0l-4.72,10.57c-.09.05-.15.17-.15.3v11.15s.02.04.02.06c-.01.05-.03.11-.02.16.02.11.08.18.15.22v52.46H.27c-.15,0-.27.16-.27.36v28.49c0,.2.12.37.27.37h1.99v99.32c0,.2.12.37.27.37h2.22v7.27c0,19.18,11.58,34.77,25.82,34.77h116.13c14.24,0,25.82-15.6,25.82-34.77v-7.27h1.77c.15,0,.27-.17.27-.37v-99.32h1.76c.15,0,.27-.16.27-.37v-28.49c0-.2-.12-.36-.27-.36Z"/>
          <path class="cls-61" d="m176.63,88.14h-3.8v-52.75c0-.17-.1-.3-.22-.33v-10.98c0-.13-.06-.25-.15-.3l-13.43-7.36s-.03.01-.04,0c-.02,0-.03-.03-.05-.03L18.46,10.84s-8.52,2.32-8.53,2.33c-.01,0-.21.03-.22.03l-4.65,10.48c-.09.05-.15.17-.15.3v11.25s.02.04.03.06c-.01.05-.03.11-.02.16.02.11.08.18.15.22v52.46H.57c-.15,0-.27.16-.27.36v28.49c0,.2.12.37.27.37h1.99v99.32c0,.2.12.37.27.37h2.22v7.27c0,19.18,11.58,34.77,25.82,34.77h116.13c14.24,0,25.82-15.6,25.82-34.77v-7.27h1.77c.15,0,.27-.17.27-.37v-99.32h1.76c.15,0,.27-.16.27-.37v-28.49c0-.2-.12-.36-.27-.36Z"/>
          <path class="cls-65" d="m176.93,88.04h-3.8v-52.75c0-.17-.1-.3-.22-.33v-10.98c0-.13-.06-.25-.15-.3l-13.43-7.36s-.03.01-.04,0c-.02,0-.03-.03-.05-.03L18.76,10.74s-8.36,2.28-8.38,2.29c-.01,0-.43.06-.44.06l-4.59,10.39c-.09.05-.15.17-.15.3v11.35s.02.04.03.06c-.01.05-.03.11-.02.16.02.11.08.18.15.22v52.46H.87c-.15,0-.27.16-.27.36v28.49c0,.2.12.37.27.37h1.99v99.32c0,.2.12.37.27.37h2.22v7.27c0,19.18,11.58,34.77,25.82,34.77h116.13c14.24,0,25.82-15.6,25.82-34.77v-7.27h1.77c.15,0,.27-.17.27-.37v-99.32h1.76c.15,0,.27-.16.27-.37v-28.49c0-.2-.12-.36-.27-.36Z"/>
          <path class="cls-95" d="m177.23,87.94h-3.8v-52.75c0-.17-.1-.3-.22-.33v-10.98c0-.13-.06-.25-.15-.3l-13.43-7.36s-.03.01-.04,0c-.02,0-.03-.03-.05-.03L19.06,10.64s-8.21,2.24-8.23,2.25c-.01,0-.65.09-.66.1l-4.52,10.3c-.09.05-.15.17-.15.3v11.44s.03.04.03.06c-.01.05-.03.11-.02.16.02.11.08.18.15.22v52.46H1.17c-.15,0-.27.16-.27.36v28.49c0,.2.12.37.27.37h1.99v99.32c0,.2.12.37.27.37h2.22v7.27c0,19.18,11.58,34.77,25.82,34.77h116.13c14.24,0,25.82-15.6,25.82-34.77v-7.27h1.77c.15,0,.27-.17.27-.37v-99.32h1.76c.15,0,.27-.16.27-.37v-28.49c0-.2-.12-.36-.27-.36Z"/>
          <path class="cls-10" d="m177.53,87.84h-3.8v-52.75c0-.17-.1-.3-.22-.33v-10.98c0-.13-.06-.25-.15-.3l-13.43-7.36s-.03.01-.04,0c-.02,0-.03-.03-.05-.03L19.36,10.54s-8.06,2.2-8.08,2.21c-.01,0-.87.12-.88.13l-4.45,10.21c-.09.05-.15.17-.15.3v11.54s.03.04.03.06c-.01.05-.03.11-.02.16.02.11.08.18.15.22v52.46H1.47c-.15,0-.27.16-.27.36v28.49c0,.2.12.37.27.37h1.99v99.32c0,.2.12.37.27.37h2.22v7.27c0,19.18,11.58,34.77,25.82,34.77h116.13c14.24,0,25.82-15.6,25.82-34.77v-7.27h1.77c.15,0,.27-.17.27-.37v-99.32h1.76c.15,0,.27-.16.27-.37v-28.49c0-.2-.12-.36-.27-.36Z"/>
          <path class="cls-53" d="m177.84,87.73h-3.8v-52.75c0-.17-.1-.3-.22-.33v-10.98c0-.13-.06-.25-.15-.3l-13.43-7.36s-.03.01-.04,0c-.02,0-.03-.03-.05-.03L19.66,10.43s-7.91,2.16-7.93,2.16c-.01,0-1.09.15-1.1.16l-4.39,10.13c-.09.05-.15.17-.15.3v11.64s.03.04.03.06c-.01.05-.03.11-.02.16.02.11.08.18.15.22v52.46H1.78c-.15,0-.27.16-.27.36v28.49c0,.2.12.37.27.37h1.99v99.32c0,.2.12.37.27.37h2.22v7.27c0,19.18,11.58,34.77,25.82,34.77h116.13c14.24,0,25.82-15.6,25.82-34.77v-7.27h1.77c.15,0,.27-.17.27-.37v-99.32h1.76c.15,0,.27-.16.27-.37v-28.49c0-.2-.12-.36-.27-.36Z"/>
          <path class="cls-60" d="m178.14,87.63h-3.8v-52.75c0-.17-.1-.3-.22-.33v-10.98c0-.13-.06-.25-.15-.3l-13.43-7.36s-.03.01-.04,0c-.02,0-.03-.03-.05-.03L19.96,10.33s-7.76,2.12-7.78,2.12c-.01,0-1.31.19-1.32.19l-4.32,10.04c-.09.05-.15.17-.15.3v11.74s.03.04.04.06c-.01.05-.03.11-.02.16.02.11.08.18.15.22v52.46H2.08c-.15,0-.27.16-.27.36v28.49c0,.2.12.37.27.37h1.99v99.32c0,.2.12.37.27.37h2.22v7.27c0,19.18,11.58,34.77,25.82,34.77h116.13c14.24,0,25.82-15.6,25.82-34.77v-7.27h1.77c.15,0,.27-.17.27-.37v-99.32h1.76c.15,0,.27-.16.27-.37v-28.49c0-.2-.12-.36-.27-.36Z"/>
          <path class="cls-32" d="m178.44,87.53h-3.8v-52.75c0-.17-.1-.3-.22-.33v-10.98c0-.13-.06-.25-.15-.3l-13.43-7.36s-.03.01-.04,0c-.02,0-.03-.03-.05-.03L20.26,10.23s-7.61,2.08-7.63,2.08c-.01,0-1.53.22-1.54.23l-4.25,9.95c-.09.05-.15.17-.15.3v11.83s.03.04.04.06c-.01.05-.03.11-.02.16.02.11.08.18.15.22v52.46H2.38c-.15,0-.27.16-.27.36v28.49c0,.2.12.37.27.37h1.99v99.32c0,.2.12.37.27.37h2.22v7.27c0,19.18,11.58,34.77,25.82,34.77h116.13c14.24,0,25.82-15.6,25.82-34.77v-7.27h1.77c.15,0,.27-.17.27-.37v-99.32h1.76c.15,0,.27-.16.27-.37v-28.49c0-.2-.12-.36-.27-.36Z"/>
          <path class="cls-70" d="m178.74,87.43h-3.8v-52.75c0-.17-.1-.3-.22-.34v-10.98c0-.13-.06-.25-.15-.3l-13.43-7.36s-.03.01-.04,0c-.02,0-.03-.03-.05-.03L20.56,10.13s-7.46,2.04-7.47,2.04c-.01,0-1.75.25-1.76.26l-4.19,9.86c-.09.05-.15.17-.15.3l.02,11.93s.02.04.02.06c-.01.05-.03.11-.02.16.02.11.08.18.15.22v52.46H2.68c-.15,0-.27.16-.27.36v28.49c0,.2.12.37.27.37h1.99v99.32c0,.2.12.37.27.37h2.22v7.27c0,19.18,11.58,34.77,25.82,34.77h116.13c14.24,0,25.82-15.6,25.82-34.77v-7.27h1.77c.15,0,.27-.17.27-.37v-99.32h1.76c.15,0,.27-.16.27-.37v-28.49c0-.2-.12-.36-.27-.36Z"/>
          <path class="cls-51" d="m179.04,87.32h-3.8v-52.75c0-.17-.1-.3-.22-.34v-10.98c0-.13-.06-.25-.15-.3l-13.43-7.36s-.03.01-.04,0c-.02,0-.03-.03-.05-.03L20.86,10.02s-7.3,1.99-7.32,2c-.01,0-1.97.28-1.98.29l-4.12,9.77c-.09.05-.15.17-.15.3l.02,12.03s.02.04.02.06c-.01.05-.03.11-.02.16.02.11.08.18.15.22v52.46H2.98c-.15,0-.27.16-.27.36v28.49c0,.2.12.37.27.37h1.99v99.32c0,.2.12.37.27.37h2.22v7.27c0,19.18,11.58,34.77,25.82,34.77h116.13c14.24,0,25.82-15.6,25.82-34.77v-7.27h1.77c.15,0,.27-.17.27-.37v-99.32h1.76c.15,0,.27-.16.27-.37v-28.49c0-.2-.12-.36-.27-.36Z"/>
          <path class="cls-83" d="m179.34,87.22h-3.8v-52.75c0-.17-.1-.3-.22-.34v-10.98c0-.13-.06-.25-.15-.3l-13.43-7.36s-.03.01-.04,0c-.02,0-.03-.03-.05-.03L21.16,9.92s-7.15,1.95-7.17,1.96c-.01,0-2.19.32-2.2.32l-4.05,9.68c-.09.05-.15.17-.15.3l.02,12.13s.02.04.02.06c-.01.05-.03.11-.02.16.02.11.08.18.15.22v52.46H3.28c-.15,0-.27.16-.27.36v28.49c0,.2.12.37.27.37h1.99v99.32c0,.2.12.37.27.37h2.22v7.27c0,19.18,11.58,34.77,25.82,34.77h116.13c14.24,0,25.82-15.6,25.82-34.77v-7.27h1.77c.15,0,.27-.17.27-.37v-99.32h1.76c.15,0,.27-.16.27-.37v-28.49c0-.2-.12-.36-.27-.36Z"/>
          <path class="cls-36" d="m179.64,87.12h-3.8v-52.75c0-.17-.1-.3-.22-.34v-10.98c0-.13-.06-.25-.15-.3l-13.43-7.36s-.03.01-.04,0c-.02,0-.03-.03-.05-.03L21.47,9.82s-7,1.91-7.02,1.92c-.01,0-2.41.35-2.42.36l-3.98,9.59c-.09.05-.15.17-.15.3l.02,12.22s.02.04.02.06c-.01.05-.03.11-.02.16.02.11.08.18.15.22v52.46H3.58c-.15,0-.27.16-.27.36v28.49c0,.2.12.37.27.37h1.99v99.32c0,.2.12.37.27.37h2.22v7.27c0,19.18,11.58,34.77,25.82,34.77h116.13c14.24,0,25.82-15.6,25.82-34.77v-7.27h1.77c.15,0,.27-.17.27-.37v-99.32h1.76c.15,0,.27-.16.27-.37v-28.49c0-.2-.12-.36-.27-.36Z"/>
          <path class="cls-58" d="m179.94,87.02h-3.8v-52.75c0-.17-.1-.3-.22-.34v-10.98c0-.13-.06-.25-.15-.3l-13.43-7.36s-.03.01-.04,0c-.02,0-.03-.03-.05-.03L21.77,9.72s-6.85,1.87-6.87,1.88c-.01,0-2.63.38-2.64.39l-3.92,9.5c-.09.05-.15.17-.15.3l.02,12.32s.02.04.02.06c-.01.05-.03.11-.02.16.02.11.08.18.15.22v52.46H3.88c-.15,0-.27.16-.27.36v28.49c0,.2.12.37.27.37h1.99v99.32c0,.2.12.37.27.37h2.22v7.27c0,19.18,11.58,34.77,25.82,34.77h116.13c14.24,0,25.82-15.6,25.82-34.77v-7.27h1.77c.15,0,.27-.17.27-.37v-99.32h1.76c.15,0,.27-.16.27-.37v-28.49c0-.2-.12-.36-.27-.36Z"/>
          <path class="cls-66" d="m180.24,86.91h-3.8v-52.75c0-.17-.1-.3-.22-.34v-10.98c0-.13-.06-.25-.15-.3l-13.43-7.36s-.03.01-.04,0c-.02,0-.03-.03-.05-.03L22.07,9.61s-6.7,1.83-6.72,1.84c-.01,0-2.85.41-2.86.42l-3.85,9.42c-.09.05-.15.17-.15.3l.02,12.42s.02.04.02.06c-.01.05-.03.11-.02.16.02.11.08.18.15.22v52.46h-4.49c-.15,0-.27.16-.27.36v28.49c0,.2.12.37.27.37h1.99v99.32c0,.2.12.37.27.37h2.22v7.27c0,19.18,11.58,34.77,25.82,34.77h116.13c14.24,0,25.82-15.6,25.82-34.77v-7.27h1.77c.15,0,.27-.17.27-.37v-99.32h1.76c.15,0,.27-.16.27-.37v-28.49c0-.2-.12-.36-.27-.36Z"/>
          <path class="cls-91" d="m180.54,86.81h-3.8v-52.75c0-.17-.1-.3-.22-.34v-10.98c0-.13-.06-.25-.15-.3l-13.43-7.36s-.03.01-.04,0c-.02,0-.03-.03-.05-.03L22.37,9.51s-6.55,1.79-6.57,1.79c-.01,0-3.07.45-3.08.45l-3.78,9.33c-.09.05-.15.17-.15.3l.03,12.52s.02.04.02.06c-.01.05-.03.11-.02.16.02.11.08.18.15.22v52.46h-4.49c-.15,0-.27.16-.27.36v28.49c0,.2.12.37.27.37h1.99v99.32c0,.2.12.37.27.37h2.22v7.27c0,19.18,11.58,34.77,25.82,34.77h116.13c14.24,0,25.82-15.6,25.82-34.77v-7.27h1.77c.15,0,.27-.17.27-.37v-99.32h1.76c.15,0,.27-.16.27-.37v-28.49c0-.2-.12-.36-.27-.36Z"/>
          <path class="cls-78" d="m180.84,86.71h-3.8v-52.75c0-.17-.1-.3-.22-.34v-10.98c0-.13-.06-.25-.15-.3l-13.43-7.36s-.03.01-.04,0c-.02,0-.03-.03-.05-.03L22.67,9.41s-6.4,1.75-6.41,1.75c-.01,0-3.29.48-3.3.48l-3.72,9.24c-.09.05-.15.17-.15.3l.03,12.61s.02.04.02.06c-.01.05-.03.11-.02.16.02.11.08.18.15.22v52.46h-4.49c-.15,0-.27.16-.27.36v28.49c0,.2.12.37.27.37h1.99v99.32c0,.2.12.37.27.37h2.22v7.27c0,19.18,11.58,34.77,25.82,34.77h116.13c14.24,0,25.82-15.6,25.82-34.77v-7.27h1.77c.15,0,.27-.17.27-.37v-99.32h1.76c.15,0,.27-.16.27-.37v-28.49c0-.2-.12-.36-.27-.36Z"/>
          <path class="cls-40" d="m181.14,86.61h-3.8v-52.75c0-.17-.1-.3-.22-.34v-10.98c0-.13-.06-.25-.15-.3l-13.43-7.36s-.03.01-.04,0c-.02,0-.03-.03-.05-.03L22.97,9.31s-6.24,1.71-6.26,1.71c-.01,0-3.51.51-3.52.52l-3.65,9.15c-.09.05-.15.17-.15.3l.03,12.71s.02.04.02.06c-.01.05-.03.11-.02.16.02.11.08.18.15.22v52.46h-4.49c-.15,0-.27.16-.27.36v28.49c0,.2.12.37.27.37h1.99v99.32c0,.2.12.37.27.37h2.22v7.27c0,19.18,11.58,34.77,25.82,34.77h116.13c14.24,0,25.82-15.6,25.82-34.77v-7.27h1.77c.15,0,.27-.17.27-.37v-99.32h1.76c.15,0,.27-.16.27-.37v-28.49c0-.2-.12-.36-.27-.36Z"/>
          <path class="cls-50" d="m181.44,86.5h-3.8v-52.75c0-.17-.1-.3-.22-.34v-10.98c0-.13-.06-.25-.15-.3l-13.43-7.36s-.03.01-.04,0c-.02,0-.03-.03-.05-.03L23.27,9.2s-6.09,1.67-6.11,1.67c-.01,0-3.73.54-3.75.55l-3.58,9.06c-.09.05-.15.17-.15.3l.03,12.81s.02.04.02.06c-.01.05-.03.11-.02.16.02.11.08.18.15.22v52.46h-4.49c-.15,0-.27.16-.27.36v28.49c0,.2.12.37.27.37h1.99v99.32c0,.2.12.37.27.37h2.22v7.27c0,19.18,11.58,34.77,25.82,34.77h116.13c14.24,0,25.82-15.6,25.82-34.77v-7.27h1.77c.15,0,.27-.17.27-.37v-99.32h1.76c.15,0,.27-.16.27-.37v-28.49c0-.2-.12-.36-.27-.36Z"/>
          <path class="cls-39" d="m181.75,86.4h-3.8v-52.75c0-.17-.1-.3-.22-.34v-10.98c0-.13-.06-.25-.15-.3l-13.43-7.36s-.03.01-.04,0c-.02,0-.03-.03-.05-.03L23.57,9.1s-5.94,1.62-5.96,1.63c-.01,0-3.95.57-3.97.58l-3.52,8.97c-.09.05-.15.17-.15.3l.03,12.91s.02.04.02.06c-.01.05-.03.11-.02.16.02.11.08.18.15.22v52.46h-4.49c-.15,0-.27.16-.27.37v28.49c0,.2.12.37.27.37h1.99v99.32c0,.2.12.37.27.37h2.22v7.27c0,19.18,11.58,34.77,25.82,34.77h116.13c14.24,0,25.82-15.6,25.82-34.77v-7.27h1.77c.15,0,.27-.17.27-.37v-99.32h1.76c.15,0,.27-.16.27-.37v-28.49c0-.2-.12-.37-.27-.37Z"/>
          <path class="cls-89" d="m182.05,86.3h-3.8v-52.75c0-.17-.1-.3-.22-.34v-10.98c0-.13-.06-.25-.15-.3l-13.43-7.36s-.03.01-.04,0c-.02,0-.03-.03-.05-.03L23.87,9s-5.79,1.58-5.81,1.59c-.01,0-4.17.61-4.19.61l-3.45,8.88c-.09.05-.15.17-.15.3l.04,13s.02.04.02.06c-.01.05-.03.11-.02.16.02.11.08.18.15.22v52.46h-4.49c-.15,0-.27.16-.27.37v28.49c0,.2.12.37.27.37h1.99v99.32c0,.2.12.37.27.37h2.22v7.27c0,19.18,11.58,34.77,25.82,34.77h116.13c14.24,0,25.82-15.6,25.82-34.77v-7.27h1.77c.15,0,.27-.17.27-.37v-99.32h1.76c.15,0,.27-.16.27-.37v-28.49c0-.2-.12-.37-.27-.37Z"/>
          <path class="cls-37" d="m182.35,86.2h-3.8v-52.75c0-.17-.1-.3-.22-.34v-10.98c0-.13-.06-.25-.15-.3l-13.43-7.36s-.03.01-.04,0c-.02,0-.03-.03-.05-.03L24.17,8.9s-5.64,1.54-5.66,1.55c-.01,0-4.39.64-4.41.65l-3.38,8.79c-.09.05-.15.17-.15.3l.04,13.1s.02.04.02.06c-.01.05-.03.11-.02.16.02.11.08.18.15.22v52.46h-4.49c-.15,0-.27.16-.27.37v28.49c0,.2.12.37.27.37h1.99v99.32c0,.2.12.37.27.37h2.22v7.27c0,19.18,11.58,34.77,25.82,34.77h116.13c14.24,0,25.82-15.6,25.82-34.77v-7.27h1.77c.15,0,.27-.17.27-.37v-99.32h1.76c.15,0,.27-.16.27-.37v-28.49c0-.2-.12-.37-.27-.37Z"/>
          <path class="cls-25" d="m182.65,86.09h-3.8v-52.75c0-.17-.1-.3-.22-.34v-10.98c0-.13-.06-.25-.15-.3l-13.43-7.36s-.03.01-.04,0c-.02,0-.03-.03-.05-.03L24.47,8.8s-5.49,1.5-5.51,1.51c-.01,0-4.61.67-4.63.68l-3.32,8.71c-.09.05-.15.17-.15.3l.04,13.2s.02.04.02.06c-.01.05-.03.11-.02.16.02.11.08.18.15.22v52.46h-4.49c-.15,0-.27.16-.27.37v28.49c0,.2.12.37.27.37h1.99v99.32c0,.2.12.37.27.37h2.22v7.27c0,19.18,11.58,34.77,25.82,34.77h116.13c14.24,0,25.82-15.6,25.82-34.77v-7.27h1.77c.15,0,.27-.17.27-.37v-99.32h1.76c.15,0,.27-.16.27-.37v-28.49c0-.2-.12-.37-.27-.37Z"/>
          <path class="cls-55" d="m182.95,85.99h-3.8v-52.75c0-.17-.1-.3-.22-.34v-10.98c0-.13-.06-.25-.15-.3l-13.43-7.36s-.03.01-.04,0c-.02,0-.03-.03-.05-.03L24.77,8.69s-5.34,1.46-5.35,1.47c-.01,0-4.83.7-4.85.71l-3.25,8.62c-.09.05-.15.17-.15.3l.04,13.3s.02.04.02.06c-.01.05-.03.11-.02.16.02.11.08.18.15.22v52.46h-4.49c-.15,0-.27.16-.27.37v28.49c0,.2.12.37.27.37h1.99v99.32c0,.2.12.37.27.37h2.22v7.27c0,19.18,11.58,34.77,25.82,34.77h116.13c14.24,0,25.82-15.6,25.82-34.77v-7.27h1.77c.15,0,.27-.17.27-.37v-99.32h1.76c.15,0,.27-.16.27-.37v-28.49c0-.2-.12-.37-.27-.37Z"/>
          <path class="cls-9" d="m183.25,85.89h-3.8v-52.75c0-.17-.1-.3-.22-.34v-10.98c0-.13-.06-.25-.15-.3l-13.43-7.36s-.03.01-.04,0c-.02,0-.03-.03-.05-.03L25.07,8.59s-5.18,1.42-5.2,1.42c-.01,0-5.05.74-5.07.74l-3.18,8.53c-.09.05-.15.17-.15.3l.04,13.39s.02.04.02.06c-.01.05-.03.11-.02.16.02.11.08.18.15.22v52.46h-4.49c-.15,0-.27.16-.27.37v28.49c0,.2.12.37.27.37h1.99v99.32c0,.2.12.37.27.37h2.22v7.27c0,19.18,11.58,34.77,25.82,34.77h116.13c14.24,0,25.82-15.6,25.82-34.77v-7.27h1.77c.15,0,.27-.17.27-.37v-99.32h1.76c.15,0,.27-.16.27-.37v-28.49c0-.2-.12-.37-.27-.37Z"/>
          <path class="cls-64" d="m183.55,85.79h-3.8v-52.75c0-.17-.1-.3-.22-.34v-10.98c0-.13-.06-.25-.15-.3l-13.43-7.36s-.03.01-.04,0c-.02,0-.03-.03-.05-.03L25.38,8.49s-5.03,1.38-5.05,1.38c-.01,0-5.27.77-5.29.78l-3.11,8.44c-.09.05-.15.17-.15.3l.05,13.49s.02.04.02.06c-.01.05-.03.11-.02.16.02.11.08.18.15.22v52.46h-4.49c-.15,0-.27.16-.27.37v28.49c0,.2.12.37.27.37h1.99v99.32c0,.2.12.37.27.37h2.22v7.27c0,19.18,11.58,34.77,25.82,34.77h116.13c14.24,0,25.82-15.6,25.82-34.77v-7.27h1.77c.15,0,.27-.17.27-.37v-99.32h1.76c.15,0,.27-.16.27-.37v-28.49c0-.2-.12-.37-.27-.37Z"/>
          <path class="cls-76" d="m183.85,85.69h-3.8v-52.75c0-.17-.1-.3-.22-.34v-10.98c0-.13-.06-.25-.15-.3l-13.43-7.36s-.03.01-.04,0c-.02,0-.03-.03-.05-.03L25.68,8.39s-4.88,1.34-4.9,1.34c-.01,0-5.5.8-5.51.81l-3.05,8.35c-.09.05-.15.17-.15.3l.05,13.59s.02.04.02.06c-.01.05-.03.11-.02.16.02.11.08.18.15.22v52.46h-4.49c-.15,0-.27.16-.27.37v28.49c0,.2.12.37.27.37h1.99v99.32c0,.2.12.37.27.37h2.22v7.27c0,19.18,11.58,34.77,25.82,34.77h116.13c14.24,0,25.82-15.6,25.82-34.77v-7.27h1.77c.15,0,.27-.17.27-.37v-99.32h1.76c.15,0,.27-.16.27-.37v-28.49c0-.2-.12-.37-.27-.37Z"/>
          <path class="cls-85" d="m184.15,85.58h-3.8v-52.75c0-.17-.1-.3-.22-.34v-10.98c0-.13-.06-.25-.15-.3l-13.43-7.36s-.03.01-.04,0c-.02,0-.03-.03-.05-.03L25.98,8.28s-4.73,1.3-4.75,1.3c-.01,0-5.72.83-5.73.84l-2.98,8.26c-.09.05-.15.17-.15.3l.05,13.69s.02.04.02.06c-.01.05-.03.11-.02.16.02.11.08.18.15.22v52.46h-4.49c-.15,0-.27.16-.27.37v28.49c0,.2.12.37.27.37h1.99v99.32c0,.2.12.37.27.37h2.22v7.27c0,19.18,11.58,34.77,25.82,34.77h116.13c14.24,0,25.82-15.6,25.82-34.77v-7.27h1.77c.15,0,.27-.17.27-.37v-99.32h1.76c.15,0,.27-.16.27-.37v-28.49c0-.2-.12-.37-.27-.37Z"/>
          <path class="cls-81" d="m184.45,85.48h-3.8v-52.75c0-.17-.1-.3-.22-.34v-10.98c0-.13-.06-.25-.15-.3l-13.43-7.36s-.03.01-.04,0c-.02,0-.03-.03-.05-.03L26.28,8.18s-4.58,1.25-4.6,1.26c-.01,0-5.94.87-5.95.87l-2.91,8.17c-.09.05-.15.17-.15.3l.05,13.78s.02.04.02.06c-.01.05-.03.11-.02.16.02.11.08.18.15.22v52.46h-4.49c-.15,0-.27.16-.27.37v28.49c0,.2.12.37.27.37h1.99v99.32c0,.2.12.37.27.37h2.22v7.27c0,19.18,11.58,34.77,25.82,34.77h116.13c14.24,0,25.82-15.6,25.82-34.77v-7.27h1.77c.15,0,.27-.17.27-.37v-99.32h1.76c.15,0,.27-.16.27-.37v-28.49c0-.2-.12-.37-.27-.37Z"/>
          <path class="cls-97" d="m184.75,85.38h-3.8v-52.75c0-.17-.1-.3-.22-.34v-10.98c0-.13-.06-.25-.15-.3l-13.43-7.36s-.03.01-.04,0c-.02,0-.03-.03-.05-.03L26.58,8.08s-4.43,1.21-4.45,1.22c-.01,0-6.16.9-6.17.9l-2.85,8.08c-.09.05-.15.17-.15.3l.05,13.88s.02.04.02.06c-.01.05-.03.11-.02.16.02.11.08.18.15.22v52.46h-4.49c-.15,0-.27.16-.27.37v28.49c0,.2.12.37.27.37h1.99v99.32c0,.2.12.37.27.37h2.22v7.27c0,19.18,11.58,34.77,25.82,34.77h116.13c14.24,0,25.82-15.6,25.82-34.77v-7.27h1.77c.15,0,.27-.17.27-.37v-99.32h1.76c.15,0,.27-.16.27-.37v-28.49c0-.2-.12-.37-.27-.37Z"/>
          <path class="cls-87" d="m185.05,85.28h-3.8v-52.75c0-.17-.1-.3-.22-.34v-10.98c0-.13-.06-.25-.15-.3l-13.43-7.36s-.03.01-.04,0c-.02,0-.03-.03-.05-.03L26.88,7.98s-4.27,1.17-4.29,1.18c-.01,0-6.38.93-6.39.94l-2.78,8c-.09.05-.15.17-.15.3l.06,13.98s.02.04.02.06c-.01.05-.03.11-.02.16.02.11.08.18.15.22v52.46h-4.49c-.15,0-.27.16-.27.37v28.49c0,.2.12.37.27.37h1.99v99.32c0,.2.12.37.27.37h2.22v7.27c0,19.18,11.58,34.77,25.82,34.77h116.13c14.24,0,25.82-15.6,25.82-34.77v-7.27h1.77c.15,0,.27-.17.27-.37v-99.32h1.76c.15,0,.27-.16.27-.37v-28.49c0-.2-.12-.37-.27-.37Z"/>
          <path class="cls-74" d="m185.35,85.17h-3.8v-52.75c0-.17-.1-.3-.22-.34v-10.98c0-.13-.06-.25-.15-.3l-13.43-7.36s-.03.01-.04,0c-.02,0-.03-.03-.05-.03L27.18,7.87s-4.12,1.13-4.14,1.14c-.01,0-6.6.96-6.61.97l-2.71,7.91c-.09.05-.15.17-.15.3l.06,14.08s.02.04.02.06c-.01.05-.03.11-.02.16.02.11.08.18.15.22v52.46h-4.49c-.15,0-.27.16-.27.37v28.49c0,.2.12.37.27.37h1.99v99.32c0,.2.12.37.27.37h2.22v7.27c0,19.18,11.58,34.77,25.82,34.77h116.13c14.24,0,25.82-15.6,25.82-34.77v-7.27h1.77c.15,0,.27-.17.27-.37v-99.32h1.76c.15,0,.27-.16.27-.37v-28.49c0-.2-.12-.37-.27-.37Z"/>
          <path class="cls-29" d="m185.65,85.07h-3.8v-52.75c0-.17-.1-.3-.22-.34v-10.98c0-.13-.06-.25-.15-.3l-13.43-7.36s-.03.01-.04,0c-.02,0-.03-.03-.05-.03L27.48,7.77s-3.97,1.09-3.99,1.1c-.01,0-6.82.99-6.83,1l-2.65,7.82c-.09.05-.15.17-.15.3l.06,14.17s.02.04.02.06c-.01.05-.03.11-.02.16.02.11.08.18.15.22v52.46h-4.49c-.15,0-.27.16-.27.37v28.49c0,.2.12.37.27.37h1.99v99.32c0,.2.12.37.27.37h2.22v7.27c0,19.18,11.58,34.77,25.82,34.77h116.13c14.24,0,25.82-15.6,25.82-34.77v-7.27h1.77c.15,0,.27-.16.27-.37v-99.32h1.76c.15,0,.27-.16.27-.37v-28.49c0-.2-.12-.37-.27-.37Z"/>
          <path class="cls-23" d="m185.96,84.97h-3.8v-52.75c0-.17-.1-.3-.22-.34v-10.98c0-.13-.06-.25-.15-.3l-13.43-7.36s-.03.01-.04,0c-.02,0-.03-.03-.05-.03L27.78,7.67s-3.82,1.05-3.84,1.05c-.01,0-7.04,1.03-7.05,1.03l-2.58,7.73c-.09.05-.15.17-.15.3l.06,14.27s.02.04.02.06c-.01.05-.03.11-.02.16.02.11.08.18.15.22v52.46h-4.49c-.15,0-.27.16-.27.37v28.49c0,.2.12.37.27.37h1.99v99.32c0,.2.12.37.27.37h2.22v7.27c0,19.18,11.58,34.77,25.82,34.77h116.13c14.24,0,25.82-15.6,25.82-34.77v-7.27h1.77c.15,0,.27-.16.27-.37v-99.32h1.76c.15,0,.27-.16.27-.37v-28.49c0-.2-.12-.37-.27-.37Z"/>
          <path class="cls-47" d="m186.26,84.87h-3.8v-52.75c0-.17-.1-.3-.22-.34v-10.98c0-.13-.06-.25-.15-.3l-13.43-7.36s-.03.01-.04,0c-.02,0-.03-.03-.05-.03L28.08,7.57s-3.67,1.01-3.69,1.01c-.01,0-7.26,1.06-7.27,1.07l-2.51,7.64c-.09.05-.15.17-.15.3l.06,14.37s.02.04.02.06c-.01.05-.03.11-.02.16.02.11.08.18.15.22v52.46h-4.49c-.15,0-.27.16-.27.37v28.49c0,.2.12.37.27.37h1.99v99.32c0,.2.12.37.27.37h2.22v7.27c0,19.18,11.58,34.78,25.82,34.78h116.13c14.24,0,25.82-15.6,25.82-34.78v-7.27h1.77c.15,0,.27-.16.27-.37v-99.32h1.76c.15,0,.27-.16.27-.37v-28.49c0-.2-.12-.37-.27-.37Z"/>
          <path class="cls-34" d="m186.56,84.76h-3.8v-52.75c0-.17-.1-.3-.22-.34v-10.98c0-.13-.06-.25-.15-.3l-13.43-7.36s-.03.01-.04,0c-.02,0-.03-.03-.05-.03L28.38,7.47s-3.52.97-3.54.97c-.01,0-7.48,1.09-7.49,1.1l-2.45,7.55c-.09.05-.15.17-.15.3l.07,14.47s.02.04.02.06c-.01.05-.03.11-.02.16.02.11.08.18.15.22v52.46h-4.49c-.15,0-.27.16-.27.37v28.49c0,.2.12.37.27.37h1.99v99.32c0,.2.12.37.27.37h2.22v7.27c0,19.18,11.58,34.78,25.82,34.78h116.13c14.24,0,25.82-15.6,25.82-34.78v-7.27h1.77c.15,0,.27-.16.27-.37v-99.32h1.76c.15,0,.27-.16.27-.37v-28.49c0-.2-.12-.37-.27-.37Z"/>
          <path class="cls-14" d="m186.86,84.66h-3.8V31.92c0-.17-.1-.3-.22-.34v-10.98c0-.13-.06-.25-.15-.3l-13.43-7.36s-.03.01-.04,0c-.02,0-.03-.03-.05-.03L28.68,7.36s-3.37.93-3.39.93c-.01,0-7.7,1.12-7.71,1.13l-2.38,7.46c-.09.05-.15.17-.15.3l.07,14.56s.02.04.02.06c-.01.05-.03.11-.02.16.02.11.08.18.15.22v52.46h-4.49c-.15,0-.27.16-.27.37v28.49c0,.2.12.37.27.37h1.99v99.32c0,.2.12.37.27.37h2.22v7.27c0,19.18,11.58,34.78,25.82,34.78h116.13c14.24,0,25.82-15.6,25.82-34.78v-7.27h1.77c.15,0,.27-.16.27-.37v-99.32h1.76c.15,0,.27-.16.27-.37v-28.49c0-.2-.12-.37-.27-.37Z"/>
          <path class="cls-94" d="m187.16,84.56h-3.8V31.81c0-.17-.1-.3-.22-.34v-10.98c0-.13-.06-.25-.15-.3l-13.43-7.36s-.03.01-.04,0c-.02,0-.03-.03-.05-.03L28.98,7.26s-3.21.88-3.23.89c-.01,0-7.92,1.16-7.93,1.16l-2.31,7.38c-.09.05-.15.17-.15.3l.07,14.66s.02.04.02.06c-.01.05-.03.11-.02.16.02.11.08.18.15.22v52.46h-4.49c-.15,0-.27.16-.27.37v28.49c0,.2.12.37.27.37h1.99v99.32c0,.2.12.37.27.37h2.22v7.27c0,19.18,11.58,34.78,25.82,34.78h116.13c14.24,0,25.82-15.6,25.82-34.78v-7.27h1.77c.15,0,.27-.16.27-.37v-99.32h1.76c.15,0,.27-.16.27-.37v-28.49c0-.2-.12-.37-.27-.37Z"/>
          <path class="cls-26" d="m187.46,84.46h-3.8V31.71c0-.17-.1-.3-.22-.34v-10.98c0-.13-.06-.25-.15-.3l-13.43-7.36s-.03.01-.04,0c-.02,0-.03-.03-.05-.03L29.29,7.16s-3.06.84-3.08.85c-.01,0-8.14,1.19-8.15,1.2l-2.24,7.29c-.09.05-.15.17-.15.3l.07,14.76s.02.04.02.06c-.01.05-.03.11-.02.16.02.11.08.18.15.22v52.46h-4.49c-.15,0-.27.16-.27.37v28.49c0,.2.12.37.27.37h1.99v99.32c0,.2.12.37.27.37h2.22v7.27c0,19.18,11.58,34.78,25.82,34.78h116.13c14.24,0,25.82-15.6,25.82-34.78v-7.27h1.77c.15,0,.27-.16.27-.37v-99.32h1.76c.15,0,.27-.16.27-.37v-28.49c0-.2-.12-.37-.27-.37Z"/>
          <path class="cls-21" d="m187.76,84.35h-3.8V31.61c0-.17-.1-.3-.22-.34v-10.98c0-.13-.06-.25-.15-.3l-13.43-7.36s-.03.01-.04,0c-.02,0-.03-.03-.05-.03L29.59,7.06s-2.91.8-2.93.81c-.01,0-8.36,1.22-8.37,1.23l-2.18,7.2c-.09.05-.15.17-.15.3l.07,14.86s.02.04.02.06c-.01.05-.03.11-.02.16.02.11.08.18.15.22v52.46h-4.49c-.15,0-.27.16-.27.37v28.49c0,.2.12.37.27.37h1.99v99.32c0,.2.12.37.27.37h2.22v7.27c0,19.18,11.58,34.78,25.82,34.78h116.13c14.24,0,25.82-15.6,25.82-34.78v-7.27h1.77c.15,0,.27-.16.27-.37v-99.32h1.76c.15,0,.27-.16.27-.37v-28.49c0-.2-.12-.37-.27-.37Z"/>
          <path class="cls-59" d="m188.06,84.25h-3.8V31.51c0-.17-.1-.3-.22-.34v-10.98c0-.13-.06-.25-.15-.3l-13.43-7.36s-.03,0-.04,0c-.02,0-.03-.03-.05-.03L29.89,6.95s-2.76.76-2.78.77c-.01,0-8.58,1.25-8.59,1.26l-2.11,7.11c-.09.05-.15.17-.15.3l.07,14.95s.02.04.02.06c-.01.05-.03.11-.02.16.02.11.08.18.15.22v52.46h-4.49c-.15,0-.27.16-.27.37v28.49c0,.2.12.37.27.37h1.99v99.32c0,.2.12.37.27.37h2.22v7.27c0,19.18,11.58,34.78,25.82,34.78h116.13c14.24,0,25.82-15.6,25.82-34.78v-7.27h1.77c.15,0,.27-.16.27-.37v-99.32h1.76c.15,0,.27-.16.27-.37v-28.49c0-.2-.12-.37-.27-.37Z"/>
          <path class="cls-67" d="m188.36,84.15h-3.8V31.4c0-.17-.1-.3-.22-.34v-10.98c0-.13-.06-.25-.15-.3l-13.43-7.36s-.03,0-.04,0c-.02,0-.03-.03-.05-.03L30.19,6.85s-2.61.72-2.63.73c-.01,0-8.8,1.29-8.81,1.29l-2.04,7.02c-.09.05-.15.17-.15.3l.08,15.05s.02.04.02.06c-.01.05-.03.11-.02.16.02.11.08.18.15.22v52.46h-4.49c-.15,0-.27.16-.27.37v28.49c0,.2.12.37.27.37h1.99v99.32c0,.2.12.37.27.37h2.22v7.27c0,19.18,11.58,34.78,25.82,34.78h116.13c14.24,0,25.82-15.6,25.82-34.78v-7.27h1.77c.15,0,.27-.16.27-.37v-99.32h1.76c.15,0,.27-.16.27-.37v-28.49c0-.2-.12-.37-.27-.37Z"/>
          <path class="cls-80" d="m188.66,84.05h-3.8V31.3c0-.17-.1-.3-.22-.34v-10.98c0-.13-.06-.25-.15-.3l-13.43-7.36s-.03,0-.04,0c-.02,0-.03-.03-.05-.03L30.49,6.75s-2.46.68-2.48.68c-.01,0-9.02,1.32-9.03,1.32l-1.98,6.93c-.09.05-.15.17-.15.3l.08,15.15s.02.04.02.06c-.01.05-.03.11-.02.16.02.11.08.18.15.22v52.46h-4.49c-.15,0-.27.16-.27.37v28.49c0,.2.12.37.27.37h1.99v99.32c0,.2.12.37.27.37h2.22v7.27c0,19.18,11.58,34.78,25.82,34.78h116.13c14.24,0,25.82-15.6,25.82-34.78v-7.27h1.77c.15,0,.27-.16.27-.37v-99.32h1.76c.15,0,.27-.16.27-.37v-28.49c0-.2-.12-.37-.27-.37Z"/>
          <path class="cls-77" d="m188.96,83.94h-3.8V31.2c0-.17-.1-.3-.22-.34v-10.98c0-.13-.06-.25-.15-.3l-13.43-7.36s-.03,0-.04,0c-.02,0-.03-.03-.05-.03L30.79,6.65s-2.31.64-2.33.64c-.01,0-9.24,1.35-9.25,1.36l-1.91,6.84c-.09.05-.15.17-.15.3l.08,15.25s.02.04.02.06c-.01.05-.03.11-.02.16.02.11.08.18.15.22v52.46h-4.49c-.15,0-.27.16-.27.37v28.49c0,.2.12.37.27.37h1.99v99.32c0,.2.12.37.27.37h2.22v7.27c0,19.18,11.58,34.78,25.82,34.78h116.13c14.24,0,25.82-15.6,25.82-34.78v-7.27h1.77c.15,0,.27-.16.27-.37v-99.32h1.76c.15,0,.27-.16.27-.37v-28.49c0-.2-.12-.37-.27-.37Z"/>
          <path class="cls-52" d="m189.26,83.84h-3.8V31.1c0-.17-.1-.3-.22-.34v-10.98c0-.13-.06-.25-.15-.3l-13.43-7.36s-.03,0-.04,0c-.02,0-.03-.03-.05-.03L31.09,6.54s-2.15.6-2.17.6c-.01,0-9.46,1.38-9.47,1.39l-1.84,6.75c-.09.05-.15.17-.15.3l.08,15.34s.02.04.02.06c-.01.05-.03.11-.02.16.02.11.08.18.15.22v52.46h-4.49c-.15,0-.27.16-.27.37v28.49c0,.2.12.37.27.37h1.99v99.32c0,.2.12.37.27.37h2.22v7.27c0,19.18,11.58,34.78,25.82,34.78h116.13c14.24,0,25.82-15.6,25.82-34.78v-7.27h1.77c.15,0,.27-.16.27-.37v-99.32h1.76c.15,0,.27-.16.27-.37v-28.49c0-.2-.12-.37-.27-.37Z"/>
          <path class="cls-88" d="m189.56,83.74h-3.8V30.99c0-.17-.1-.3-.22-.34v-10.98c0-.13-.06-.25-.15-.3l-13.43-7.36s-.03,0-.04,0c-.02,0-.03-.03-.05-.03L31.39,6.44s-2,.56-2.02.56c-.01,0-9.68,1.42-9.69,1.42l-1.78,6.67c-.09.05-.15.17-.15.3l.08,15.44s.02.04.02.06c-.01.05-.03.11-.02.16.02.11.08.18.15.22v52.46h-4.49c-.15,0-.27.16-.27.37v28.49c0,.2.12.37.27.37h1.99v99.32c0,.2.12.37.27.37h2.22v7.27c0,19.18,11.58,34.78,25.82,34.78h116.13c14.24,0,25.82-15.6,25.82-34.78v-7.27h1.77c.15,0,.27-.16.27-.37v-99.32h1.76c.15,0,.27-.16.27-.37v-28.49c0-.2-.12-.37-.27-.37Z"/>
          <path class="cls-75" d="m189.87,83.64h-3.8V30.89c0-.17-.1-.3-.22-.34v-10.98c0-.13-.06-.25-.15-.3l-13.43-7.36s-.03,0-.04,0c-.02,0-.03-.03-.05-.03L31.69,6.34s-1.85.51-1.87.52c-.01,0-9.9,1.45-9.91,1.45l-1.71,6.58c-.09.05-.15.17-.15.3l.09,15.54s.02.04.02.06c-.01.05-.03.11-.02.16.02.11.08.18.15.22v52.46h-4.49c-.15,0-.27.16-.27.37v28.49c0,.2.12.37.27.37h1.99v99.32c0,.2.12.37.27.37h2.22v7.27c0,19.18,11.58,34.78,25.82,34.78h116.13c14.24,0,25.82-15.6,25.82-34.78v-7.27h1.77c.15,0,.27-.16.27-.37v-99.32h1.76c.15,0,.27-.16.27-.37v-28.49c0-.2-.12-.37-.27-.37Z"/>
          <path class="cls-27" d="m190.17,83.54h-3.8V30.79c0-.17-.1-.3-.22-.34v-10.98c0-.13-.06-.25-.15-.3l-13.43-7.36s-.03,0-.04,0c-.02,0-.03-.03-.05-.03L31.99,6.24s-1.7.47-1.72.48c-.01,0-10.12,1.48-10.13,1.49l-1.64,6.49c-.09.05-.15.17-.15.3l.09,15.64s.02.04.02.06c-.01.05-.03.11-.02.16.02.11.08.18.15.22v52.46h-4.49c-.15,0-.27.16-.27.37v28.49c0,.2.12.37.27.37h1.99v99.32c0,.2.12.37.27.37h2.22v7.27c0,19.18,11.58,34.78,25.82,34.78h116.13c14.24,0,25.82-15.6,25.82-34.78v-7.27h1.77c.15,0,.27-.16.27-.37v-99.32h1.76c.15,0,.27-.16.27-.37v-28.49c0-.2-.12-.37-.27-.37Z"/>
          <path class="cls-3" d="m190.47,83.43h-3.8V30.69c0-.17-.1-.3-.22-.34v-10.98c0-.13-.06-.25-.15-.3l-13.43-7.36s-.03,0-.04,0c-.02,0-.03-.03-.05-.03L32.29,6.13s-1.55.43-1.57.44c-.01,0-10.34,1.51-10.35,1.52l-1.57,6.4c-.09.05-.15.17-.15.3l.09,15.73s.02.04.02.06c-.01.05-.03.11-.02.16.02.11.08.18.15.22v52.46h-4.49c-.15,0-.27.16-.27.37v28.49c0,.2.12.37.27.37h1.99v99.32c0,.2.12.37.27.37h2.22v7.27c0,19.18,11.58,34.78,25.82,34.78h116.13c14.24,0,25.82-15.6,25.82-34.78v-7.27h1.77c.15,0,.27-.16.27-.37v-99.32h1.76c.15,0,.27-.16.27-.37v-28.49c0-.2-.12-.37-.27-.37Z"/>
          <path class="cls-43" d="m190.77,83.33h-3.8V30.59c0-.17-.1-.3-.22-.34v-10.98c0-.13-.06-.25-.15-.3l-13.43-7.36s-.03,0-.04,0c-.02,0-.03-.03-.05-.03L32.59,6.03s-1.4.39-1.42.4c-.01,0-10.56,1.54-10.57,1.55l-1.51,6.31c-.09.05-.15.17-.15.3l.09,15.83s.02.04.02.06c-.01.05-.03.11-.02.16.02.11.08.18.15.22v52.46h-4.49c-.15,0-.27.16-.27.37v28.49c0,.2.12.37.27.37h1.99v99.32c0,.2.12.37.27.37h2.22v7.27c0,19.18,11.58,34.78,25.82,34.78h116.13c14.24,0,25.82-15.6,25.82-34.78v-7.27h1.77c.15,0,.27-.16.27-.37v-99.32h1.76c.15,0,.27-.16.27-.37v-28.49c0-.2-.12-.37-.27-.37Z"/>
          <path class="cls-54" d="m191.07,83.23h-3.8V30.48c0-.17-.1-.3-.22-.34v-10.98c0-.13-.06-.25-.15-.3l-13.43-7.36s-.03,0-.04,0c-.02,0-.03-.03-.05-.03L32.89,5.93s-1.25.35-1.27.36c-.01,0-10.78,1.58-10.79,1.58l-1.44,6.22c-.09.05-.15.17-.15.3l.09,15.93s.02.04.02.06c-.01.05-.03.11-.02.16.02.11.08.18.15.22v52.46h-4.49c-.15,0-.27.16-.27.37v28.49c0,.2.12.37.27.37h1.99v99.32c0,.2.12.37.27.37h2.22v7.27c0,19.18,11.58,34.78,25.82,34.78h116.13c14.24,0,25.82-15.6,25.82-34.78v-7.27h1.77c.15,0,.27-.16.27-.37v-99.32h1.76c.15,0,.27-.16.27-.37v-28.49c0-.2-.12-.37-.27-.37Z"/>
          <path class="cls-93" d="m191.37,83.13h-3.8V30.38c0-.18-.1-.3-.22-.34v-10.98c0-.13-.06-.25-.15-.3l-13.43-7.36s-.03,0-.04,0c-.02,0-.03-.03-.05-.03L33.2,5.83s-1.09.31-1.11.32c-.01,0-11,1.61-11.02,1.62l-1.37,6.13c-.09.05-.15.17-.15.3l.1,16.02s.02.04.02.06c-.01.05-.03.11-.02.16.02.11.08.18.15.22v52.46h-4.49c-.15,0-.27.16-.27.37v28.49c0,.2.12.37.27.37h1.99v99.32c0,.2.12.37.27.37h2.22v7.27c0,19.18,11.58,34.78,25.82,34.78h116.13c14.24,0,25.82-15.6,25.82-34.78v-7.27h1.77c.15,0,.27-.16.27-.37v-99.32h1.76c.15,0,.27-.16.27-.37v-28.49c0-.2-.12-.37-.27-.37Z"/>
          <path class="cls-72" d="m191.67,83.02h-3.8V30.28c0-.18-.1-.3-.22-.34v-10.98c0-.13-.06-.25-.15-.3l-13.43-7.36s-.03,0-.04,0c-.02,0-.03-.03-.05-.03L33.5,5.73s-.94.27-.96.27c-.01,0-11.22,1.64-11.24,1.65l-1.31,6.04c-.09.05-.15.17-.15.3l.1,16.12s.02.04.02.06c-.01.05-.03.11-.02.16.02.11.08.18.15.22v52.46h-4.49c-.15,0-.27.16-.27.37v28.49c0,.2.12.37.27.37h1.99v99.32c0,.2.12.37.27.37h2.22v7.27c0,19.18,11.58,34.78,25.82,34.78h116.13c14.24,0,25.82-15.6,25.82-34.78v-7.27h1.77c.15,0,.27-.16.27-.37v-99.32h1.76c.15,0,.27-.16.27-.37v-28.49c0-.2-.12-.37-.27-.37Z"/>
          <path class="cls-4" d="m191.97,82.92h-3.8V30.18c0-.18-.1-.3-.22-.34v-10.98c0-.13-.06-.25-.15-.3l-13.43-7.36s-.03,0-.04,0c-.02,0-.03-.03-.05-.03L33.8,5.62s-.79.23-.81.23c-.01,0-11.44,1.67-11.46,1.68l-1.24,5.96c-.09.05-.15.17-.15.3l.1,16.22s.02.04.02.06c-.01.05-.03.11-.02.16.02.11.08.18.15.22v52.46h-4.49c-.15,0-.27.16-.27.37v28.49c0,.2.12.37.27.37h1.99v99.32c0,.2.12.37.27.37h2.22v7.27c0,19.18,11.58,34.78,25.82,34.78h116.13c14.24,0,25.82-15.6,25.82-34.78v-7.27h1.77c.15,0,.27-.16.27-.37v-99.32h1.76c.15,0,.27-.16.27-.37v-28.49c0-.2-.12-.37-.27-.37Z"/>
          <path class="cls-92" d="m192.27,82.82h-3.8V30.07c0-.18-.1-.3-.22-.34v-10.98c0-.13-.06-.25-.15-.3l-13.43-7.36s-.03,0-.04,0c-.02,0-.03-.03-.05-.03L34.1,5.52s-.64.19-.66.19c-.01,0-11.66,1.71-11.68,1.71l-1.17,5.87c-.09.05-.15.17-.15.3l.1,16.32s.02.04.02.06c-.01.05-.03.11-.02.16.02.11.08.18.15.22v52.46h-4.49c-.15,0-.27.16-.27.37v28.49c0,.2.12.37.27.37h1.99v99.32c0,.2.12.37.27.37h2.22v7.27c0,19.18,11.58,34.78,25.82,34.78h116.13c14.24,0,25.82-15.6,25.82-34.78v-7.27h1.77c.15,0,.27-.16.27-.37v-99.32h1.76c.15,0,.27-.16.27-.37v-28.49c0-.2-.12-.37-.27-.37Z"/>
          <path class="cls-31" d="m192.57,82.72h-3.8V29.97c0-.18-.1-.3-.22-.34v-10.98c0-.13-.06-.25-.15-.3l-13.43-7.36s-.03,0-.04,0c-.02,0-.03-.03-.05-.03L34.4,5.42s-.49.14-.51.15c-.01,0-11.88,1.74-11.9,1.74l-1.11,5.78c-.09.05-.15.17-.15.3l.1,16.41s.02.04.02.06c-.01.05-.03.11-.02.16.02.11.08.18.15.22v52.46h-4.49c-.15,0-.27.16-.27.37v28.49c0,.2.12.37.27.37h1.99v99.32c0,.2.12.37.27.37h2.22v7.27c0,19.18,11.58,34.78,25.82,34.78h116.13c14.24,0,25.82-15.6,25.82-34.78v-7.27h1.77c.15,0,.27-.16.27-.37v-99.32h1.76c.15,0,.27-.16.27-.37v-28.49c0-.2-.12-.37-.27-.37Z"/>
          <path class="cls-22" d="m192.87,82.61h-3.8V29.87c0-.18-.1-.3-.22-.34v-10.98c0-.13-.06-.25-.15-.3l-13.43-7.36s-.03,0-.04,0c-.02,0-.03-.03-.05-.03L34.7,5.32s-.34.1-.36.11c-.01,0-12.1,1.77-12.12,1.78l-1.04,5.69c-.09.05-.15.17-.15.3l.11,16.51s.02.04.02.06c-.01.05-.03.11-.02.16.02.11.08.18.15.22v52.46h-4.49c-.15,0-.27.16-.27.37v28.49c0,.2.12.37.27.37h1.99v99.32c0,.2.12.37.27.37h2.22v7.27c0,19.18,11.58,34.78,25.82,34.78h116.13c14.24,0,25.82-15.6,25.82-34.78v-7.27h1.77c.15,0,.27-.16.27-.37v-99.32h1.76c.15,0,.27-.16.27-.37v-28.49c0-.2-.12-.37-.27-.37Z"/>
          <path class="cls-69" d="m193.17,82.51h-3.8V29.77c0-.18-.1-.3-.22-.34v-10.98c0-.13-.06-.25-.15-.3l-13.43-7.36s-.03,0-.04,0c-.02,0-.03-.03-.05-.03L35,5.21s-.19.06-.21.07c-.01,0-12.32,1.8-12.34,1.81l-.97,5.6c-.09.05-.15.17-.15.3l.11,16.61s.02.04.02.06c-.01.05-.03.11-.02.16.02.11.08.18.15.22v52.46h-4.49c-.15,0-.27.16-.27.37v28.49c0,.2.12.37.27.37h1.99v99.32c0,.2.12.37.27.37h2.22v7.27c0,19.18,11.58,34.78,25.82,34.78h116.13c14.24,0,25.82-15.6,25.82-34.78v-7.27h1.77c.15,0,.27-.16.27-.37v-99.32h1.76c.15,0,.27-.16.27-.37v-28.49c0-.2-.12-.37-.27-.37Z"/>
          <path class="cls-56" d="m193.47,82.41h-3.8V29.66c0-.18-.1-.3-.22-.34v-10.98c0-.13-.06-.25-.15-.3l-13.43-7.36s-.03,0-.04,0c-.02,0-.03-.03-.05-.03L35.3,5.11s-.03.02-.05.03c-.01,0-12.54,1.84-12.56,1.84l-.91,5.51c-.09.05-.15.17-.15.3l.11,16.71s.02.04.02.06c-.01.05-.03.11-.02.16.02.11.08.18.15.22v52.46h-4.49c-.15,0-.27.16-.27.37v28.49c0,.2.12.37.27.37h1.99v99.32c0,.2.12.37.27.37h2.22v7.27c0,19.18,11.58,34.78,25.82,34.78h116.13c14.24,0,25.82-15.6,25.82-34.78v-7.27h1.77c.15,0,.27-.16.27-.37v-99.32h1.76c.15,0,.27-.16.27-.37v-28.49c0-.2-.12-.37-.27-.37Z"/>
        </g>
        <path class="cls-8" d="m189.45,8.51c-.38-4.53-37.66-8.2-83.62-8.2S22.59,3.98,22.22,8.51l-.02,4.74v8.33h167.27v-8.33l-.02-4.74Z"/>
        <path class="cls-5" d="m189.46,21.58c0,4.57-37.44,8.26-83.63,8.26s-83.63-3.7-83.63-8.26,37.44-8.26,83.63-8.26,83.63,3.7,83.63,8.26Z"/>
        <path class="cls-17" d="m189.67,8.47c-.44-5.3-42.98-8.47-83.85-8.47S22.42,3.17,21.98,8.51l-.02,13.07c0,5.37,42.64,8.58,83.87,8.58s83.87-3.21,83.87-8.58v-8.33l-.02-4.77Z"/>
        <path class="cls-86" d="m189.24,21.74v196.52c0,19-11.44,34.41-25.55,34.41H47.56c-14.11,0-25.55-15.41-25.55-34.41V21.74h167.23Z"/>
        <path class="cls-6" d="m189.43,21.74v196.52c0,19-11.44,34.41-25.55,34.41H47.75c-14.11,0-25.55-15.41-25.55-34.41V21.74h167.23Z"/>
        <rect class="cls-15" x="22.38" y="22.03" width="166.75" height="34.15"/>
        <g class="cls-20">
          <path class="cls-35" d="m189.13,22.03v196.27c0,18.97-11.41,34.37-25.48,34.37H47.86c-14.07,0-25.48-15.39-25.48-34.37V22.03h166.75Z"/>
          <path class="cls-29" d="m188.65,23.46v194.41c0,18.8-11.34,34.04-25.33,34.04H48.19c-13.99,0-25.33-15.25-25.33-34.04V23.46h165.78Z"/>
          <path class="cls-1" d="m188.17,24.9v192.56c0,18.62-11.28,33.72-25.18,33.72H48.53c-13.91,0-25.18-15.1-25.18-33.72V24.9h164.82Z"/>
          <path class="cls-48" d="m187.68,26.34v190.7c0,18.44-11.21,33.39-25.04,33.39H48.87c-13.82,0-25.03-14.96-25.03-33.39V26.34h163.85Z"/>
          <path class="cls-33" d="m187.2,27.78v188.84c0,18.26-11.14,33.07-24.89,33.07H49.2c-13.74,0-24.88-14.81-24.88-33.07V27.78h162.88Z"/>
          <path class="cls-42" d="m186.72,29.22v186.98c0,18.08-11.08,32.74-24.74,32.74H49.54c-13.66,0-24.74-14.66-24.74-32.74V29.22h161.92Z"/>
          <path class="cls-39" d="m186.23,30.66v185.12c0,17.9-11.01,32.42-24.59,32.42H49.87c-13.58,0-24.59-14.52-24.59-32.42V30.66h160.95Z"/>
          <path class="cls-2" d="m185.75,32.09v183.26c0,17.72-10.94,32.09-24.45,32.09H50.21c-13.5,0-24.44-14.37-24.44-32.09V32.09h159.99Z"/>
          <path class="cls-66" d="m185.27,33.53v181.4c0,17.54-10.88,31.77-24.3,31.77H50.54c-13.42,0-24.29-14.23-24.29-31.77V33.53h159.02Z"/>
          <path class="cls-83" d="m184.79,34.97v179.54c0,17.36-10.81,31.45-24.15,31.45H50.88c-13.34,0-24.15-14.08-24.15-31.45V34.97h158.06Z"/>
          <path class="cls-70" d="m184.3,36.41v177.68c0,17.18-10.75,31.12-24,31.12H51.21c-13.25,0-24-13.94-24-31.12V36.41h157.09Z"/>
          <path class="cls-90" d="m183.82,37.85v175.82c0,17-10.68,30.8-23.86,30.8H51.55c-13.17,0-23.85-13.79-23.85-30.8V37.85h156.12Z"/>
          <path class="cls-46" d="m183.34,39.28v173.96c0,16.82-10.61,30.47-23.71,30.47H51.88c-13.09,0-23.7-13.65-23.7-30.47V39.28h155.16Z"/>
          <path class="cls-11" d="m182.85,40.72v172.1c0,16.65-10.55,30.15-23.56,30.15H52.22c-13.01,0-23.55-13.5-23.55-30.15V40.72h154.19Z"/>
        </g>
        <path class="cls-16" d="m189.43,32.35H22.2c-.14,0-.26.14-.26.32v178.7c0,17.43,11.58,31.61,25.81,31.61h116.13c14.23,0,25.81-14.18,25.81-31.61V32.67c0-.18-.12-.32-.26-.32Z"/>
        <g>
          <rect class="cls-68" x="19.51" y="103.17" width="171.58" height="123.51"/>
          <g class="cls-20">
            <rect class="cls-35" x="19.89" y="103.17" width="171.58" height="123.51"/>
            <rect class="cls-29" x="20.8" y="103.45" width="170.17" height="122.59"/>
            <rect class="cls-1" x="21.7" y="103.73" width="168.77" height="121.67"/>
            <rect class="cls-48" x="22.61" y="104.01" width="167.37" height="120.75"/>
            <rect class="cls-33" x="23.51" y="104.29" width="165.97" height="119.83"/>
            <rect class="cls-42" x="24.42" y="104.57" width="164.57" height="118.91"/>
            <rect class="cls-39" x="25.33" y="104.85" width="163.16" height="117.99"/>
            <rect class="cls-2" x="26.23" y="105.13" width="161.76" height="117.07"/>
            <rect class="cls-66" x="27.14" y="105.41" width="160.36" height="116.15"/>
            <rect class="cls-83" x="28.04" y="105.69" width="158.96" height="115.23"/>
            <rect class="cls-70" x="28.95" y="105.97" width="157.56" height="114.31"/>
            <rect class="cls-90" x="29.85" y="106.25" width="156.15" height="113.39"/>
            <rect class="cls-46" x="30.76" y="106.53" width="154.75" height="112.47"/>
            <rect class="cls-11" x="31.66" y="106.81" width="153.35" height="111.55"/>
          </g>
          <rect class="cls-6" x="19.7" y="103.17" width="171.77" height="123.51"/>
        </g>
        <g>
          <rect class="cls-28" x="17.24" y="94.51" width="175.86" height="27.82"/>
          <g class="cls-20">
            <rect class="cls-35" x="17.64" y="94.51" width="175.86" height="27.82"/>
            <rect class="cls-29" x="18.56" y="94.76" width="174.43" height="26.98"/>
            <rect class="cls-1" x="19.49" y="95.02" width="172.99" height="26.14"/>
            <rect class="cls-48" x="20.42" y="95.27" width="171.55" height="25.3"/>
            <rect class="cls-33" x="21.35" y="95.53" width="170.11" height="24.46"/>
            <rect class="cls-42" x="22.28" y="95.79" width="168.68" height="23.62"/>
            <rect class="cls-39" x="23.2" y="96.04" width="167.24" height="22.78"/>
            <rect class="cls-2" x="24.13" y="96.3" width="165.8" height="21.95"/>
            <rect class="cls-66" x="25.06" y="96.55" width="164.36" height="21.11"/>
            <rect class="cls-83" x="25.99" y="96.81" width="162.93" height="20.27"/>
            <rect class="cls-70" x="26.92" y="97.06" width="161.49" height="19.43"/>
            <rect class="cls-90" x="27.84" y="97.32" width="160.05" height="18.59"/>
            <rect class="cls-46" x="28.77" y="97.57" width="158.62" height="17.75"/>
            <rect class="cls-11" x="29.7" y="97.83" width="157.18" height="16.91"/>
          </g>
          <polyline class="cls-6" points="19.73 122.33 17.44 122.33 17.44 94.51 193.5 94.51 193.5 122.33 191.24 122.33"/>
        </g>
        <g class="cls-20">
          <path class="cls-11" d="m34.63,49.9c0,5.7,3.82,10.32,8.53,10.32h46.21c4.71,0,8.53-4.62,8.53-10.32v-17.55c0-5.7-3.82-10.32-8.53-10.32h-46.21c-4.71,0-8.53,4.62-8.53,10.32v17.55Z"/>
          <path class="cls-61" d="m34.82,49.79c0,5.7,3.82,10.32,8.53,10.32h46.21c4.71,0,8.53-4.62,8.53-10.32v-17.55c0-5.7-3.82-10.32-8.53-10.32h-46.21c-4.71,0-8.53,4.62-8.53,10.32v17.55Z"/>
          <path class="cls-84" d="m35,49.68c0,5.7,3.82,10.32,8.53,10.32h46.21c4.71,0,8.53-4.62,8.53-10.32v-17.55c0-5.7-3.82-10.32-8.53-10.32h-46.21c-4.71,0-8.53,4.62-8.53,10.32v17.55Z"/>
          <path class="cls-95" d="m35.18,49.57c0,5.7,3.82,10.32,8.53,10.32h46.21c4.71,0,8.53-4.62,8.53-10.32v-17.55c0-5.7-3.82-10.32-8.53-10.32h-46.21c-4.71,0-8.53,4.62-8.53,10.32v17.55Z"/>
          <path class="cls-10" d="m35.36,49.46c0,5.7,3.82,10.32,8.53,10.32h46.21c4.71,0,8.53-4.62,8.53-10.32v-17.55c0-5.7-3.82-10.32-8.53-10.32h-46.21c-4.71,0-8.53,4.62-8.53,10.32v17.55Z"/>
          <path class="cls-53" d="m35.54,49.35c0,5.7,3.82,10.32,8.53,10.32h46.21c4.71,0,8.53-4.62,8.53-10.32v-17.55c0-5.7-3.82-10.32-8.53-10.32h-46.21c-4.71,0-8.53,4.62-8.53,10.32v17.55Z"/>
          <path class="cls-57" d="m35.72,49.24c0,5.7,3.82,10.32,8.53,10.32h46.21c4.71,0,8.53-4.62,8.53-10.32v-17.55c0-5.7-3.82-10.32-8.53-10.32h-46.21c-4.71,0-8.53,4.62-8.53,10.32v17.55Z"/>
          <path class="cls-32" d="m35.9,49.14c0,5.7,3.82,10.32,8.53,10.32h46.21c4.71,0,8.53-4.62,8.53-10.32v-17.55c0-5.7-3.82-10.32-8.53-10.32h-46.21c-4.71,0-8.53,4.62-8.53,10.32v17.55Z"/>
          <path class="cls-70" d="m36.08,49.03c0,5.7,3.82,10.32,8.53,10.32h46.21c4.71,0,8.53-4.62,8.53-10.32v-17.55c0-5.7-3.82-10.32-8.53-10.32h-46.21c-4.71,0-8.53,4.62-8.53,10.32v17.55Z"/>
          <path class="cls-63" d="m36.26,48.92c0,5.7,3.82,10.32,8.53,10.32h46.21c4.71,0,8.53-4.62,8.53-10.32v-17.55c0-5.7-3.82-10.32-8.53-10.32h-46.21c-4.71,0-8.53,4.62-8.53,10.32v17.55Z"/>
          <path class="cls-73" d="m36.44,48.81c0,5.7,3.82,10.32,8.53,10.32h46.21c4.71,0,8.53-4.62,8.53-10.32v-17.55c0-5.7-3.82-10.32-8.53-10.32h-46.21c-4.71,0-8.53,4.62-8.53,10.32v17.55Z"/>
          <path class="cls-36" d="m36.63,48.7c0,5.7,3.82,10.32,8.53,10.32h46.21c4.71,0,8.53-4.62,8.53-10.32v-17.55c0-5.7-3.82-10.32-8.53-10.32h-46.21c-4.71,0-8.53,4.62-8.53,10.32v17.55Z"/>
          <path class="cls-58" d="m36.81,48.59c0,5.7,3.82,10.32,8.53,10.32h46.21c4.71,0,8.53-4.62,8.53-10.32v-17.55c0-5.7-3.82-10.32-8.53-10.32h-46.21c-4.71,0-8.53,4.62-8.53,10.32v17.55Z"/>
          <path class="cls-66" d="m36.99,48.48c0,5.7,3.82,10.32,8.53,10.32h46.21c4.71,0,8.53-4.62,8.53-10.32v-17.55c0-5.7-3.82-10.32-8.53-10.32h-46.21c-4.71,0-8.53,4.62-8.53,10.32v17.55Z"/>
          <path class="cls-91" d="m37.17,48.37c0,5.7,3.82,10.32,8.53,10.32h46.21c4.71,0,8.53-4.62,8.53-10.32v-17.55c0-5.7-3.82-10.32-8.53-10.32h-46.21c-4.71,0-8.53,4.62-8.53,10.32v17.55Z"/>
          <path class="cls-78" d="m37.35,48.27c0,5.7,3.82,10.32,8.53,10.32h46.21c4.71,0,8.53-4.62,8.53-10.32v-17.55c0-5.7-3.82-10.32-8.53-10.32h-46.21c-4.71,0-8.53,4.62-8.53,10.32v17.55Z"/>
          <path class="cls-40" d="m37.53,48.16c0,5.7,3.82,10.32,8.53,10.32h46.21c4.71,0,8.53-4.62,8.53-10.32v-17.55c0-5.7-3.82-10.32-8.53-10.32h-46.21c-4.71,0-8.53,4.62-8.53,10.32v17.55Z"/>
          <path class="cls-50" d="m37.71,48.05c0,5.7,3.82,10.32,8.53,10.32h46.21c4.71,0,8.53-4.62,8.53-10.32v-17.55c0-5.7-3.82-10.32-8.53-10.32h-46.21c-4.71,0-8.53,4.62-8.53,10.32v17.55Z"/>
          <path class="cls-13" d="m37.89,47.94c0,5.7,3.82,10.32,8.53,10.32h46.21c4.71,0,8.53-4.62,8.53-10.32v-17.55c0-5.7-3.82-10.32-8.53-10.32h-46.21c-4.71,0-8.53,4.62-8.53,10.32v17.55Z"/>
          <path class="cls-71" d="m38.07,47.83c0,5.7,3.82,10.32,8.53,10.32h46.21c4.71,0,8.53-4.62,8.53-10.32v-17.55c0-5.7-3.82-10.32-8.53-10.32h-46.21c-4.71,0-8.53,4.62-8.53,10.32v17.55Z"/>
          <path class="cls-62" d="m38.26,47.72c0,5.7,3.82,10.32,8.53,10.32h46.21c4.71,0,8.53-4.62,8.53-10.32v-17.55c0-5.7-3.82-10.32-8.53-10.32h-46.21c-4.71,0-8.53,4.62-8.53,10.32v17.55Z"/>
          <path class="cls-42" d="m38.44,47.61c0,5.7,3.82,10.32,8.53,10.32h46.21c4.71,0,8.53-4.62,8.53-10.32v-17.55c0-5.7-3.82-10.32-8.53-10.32h-46.21c-4.71,0-8.53,4.62-8.53,10.32v17.55Z"/>
          <path class="cls-41" d="m38.62,47.51c0,5.7,3.82,10.32,8.53,10.32h46.21c4.71,0,8.53-4.62,8.53-10.32v-17.55c0-5.7-3.82-10.32-8.53-10.32h-46.21c-4.71,0-8.53,4.62-8.53,10.32v17.55Z"/>
          <path class="cls-79" d="m38.8,47.4c0,5.7,3.82,10.32,8.53,10.32h46.21c4.71,0,8.53-4.62,8.53-10.32v-17.55c0-5.7-3.82-10.32-8.53-10.32h-46.21c-4.71,0-8.53,4.62-8.53,10.32v17.55Z"/>
          <path class="cls-33" d="m38.98,47.29c0,5.7,3.82,10.32,8.53,10.32h46.21c4.71,0,8.53-4.62,8.53-10.32v-17.55c0-5.7-3.82-10.32-8.53-10.32h-46.21c-4.71,0-8.53,4.62-8.53,10.32v17.55Z"/>
          <path class="cls-45" d="m39.16,47.18c0,5.7,3.82,10.32,8.53,10.32h46.21c4.71,0,8.53-4.62,8.53-10.32v-17.55c0-5.7-3.82-10.32-8.53-10.32h-46.21c-4.71,0-8.53,4.62-8.53,10.32v17.55Z"/>
          <path class="cls-48" d="m39.34,47.07c0,5.7,3.82,10.32,8.53,10.32h46.21c4.71,0,8.53-4.62,8.53-10.32v-17.55c0-5.7-3.82-10.32-8.53-10.32h-46.21c-4.71,0-8.53,4.62-8.53,10.32v17.55Z"/>
          <path class="cls-12" d="m39.52,46.96c0,5.7,3.82,10.32,8.53,10.32h46.21c4.71,0,8.53-4.62,8.53-10.32v-17.55c0-5.7-3.82-10.32-8.53-10.32h-46.21c-4.71,0-8.53,4.62-8.53,10.32v17.55Z"/>
          <path class="cls-24" d="m39.7,46.85c0,5.7,3.82,10.32,8.53,10.32h46.21c4.71,0,8.53-4.62,8.53-10.32v-17.55c0-5.7-3.82-10.32-8.53-10.32h-46.21c-4.71,0-8.53,4.62-8.53,10.32v17.55Z"/>
          <path class="cls-87" d="m39.88,46.74c0,5.7,3.82,10.32,8.53,10.32h46.21c4.71,0,8.53-4.62,8.53-10.32v-17.55c0-5.7-3.82-10.32-8.53-10.32h-46.21c-4.71,0-8.53,4.62-8.53,10.32v17.55Z"/>
          <path class="cls-74" d="m40.07,46.64c0,5.7,3.82,10.32,8.53,10.32h46.21c4.71,0,8.53-4.62,8.53-10.32v-17.55c0-5.7-3.82-10.32-8.53-10.32h-46.21c-4.71,0-8.53,4.62-8.53,10.32v17.55Z"/>
          <path class="cls-29" d="m40.25,46.53c0,5.7,3.82,10.32,8.53,10.32h46.21c4.71,0,8.53-4.62,8.53-10.32v-17.55c0-5.7-3.82-10.32-8.53-10.32h-46.21c-4.71,0-8.53,4.62-8.53,10.32v17.55Z"/>
          <path class="cls-23" d="m40.43,46.42c0,5.7,3.82,10.32,8.53,10.32h46.21c4.71,0,8.53-4.62,8.53-10.32v-17.55c0-5.7-3.82-10.32-8.53-10.32h-46.21c-4.71,0-8.53,4.62-8.53,10.32v17.55Z"/>
          <path class="cls-38" d="m40.61,46.31c0,5.7,3.82,10.32,8.53,10.32h46.21c4.71,0,8.53-4.62,8.53-10.32v-17.55c0-5.7-3.82-10.32-8.53-10.32h-46.21c-4.71,0-8.53,4.62-8.53,10.32v17.55Z"/>
          <path class="cls-35" d="m40.79,46.2c0,5.7,3.82,10.32,8.53,10.32h46.21c4.71,0,8.53-4.62,8.53-10.32v-17.55c0-5.7-3.82-10.32-8.53-10.32h-46.21c-4.71,0-8.53,4.62-8.53,10.32v17.55Z"/>
        </g>
        <rect class="cls-19" x="19.51" y="110.94" width="171.96" height="22.78"/>
        <rect class="cls-18" x="22.01" y="210.96" width="167.23" height="31.44"/>
        <g>
          <path class="cls-82" d="m40.79,45.85c0,5.7,3.82,10.32,8.53,10.32h46.21c4.71,0,8.53-4.62,8.53-10.32v-17.55c0-5.7-3.82-10.32-8.53-10.32h-46.21c-4.71,0-8.53,4.62-8.53,10.32v17.55Z"/>
          <g class="cls-20">
            <path class="cls-35" d="m40.79,45.85c0,5.7,3.82,10.32,8.53,10.32h46.21c4.71,0,8.53-4.62,8.53-10.32v-17.55c0-5.7-3.82-10.32-8.53-10.32h-46.21c-4.71,0-8.53,4.62-8.53,10.32v17.55Z"/>
            <path class="cls-29" d="m41.04,44.54c0,5.66,3.83,10.24,8.55,10.24h45.67c4.72,0,8.55-4.59,8.55-10.24v-16.2c0-5.66-3.83-10.25-8.55-10.25h-45.67c-4.72,0-8.55,4.58-8.55,10.25v16.2Z"/>
            <path class="cls-1" d="m41.29,43.23c0,5.61,3.84,10.17,8.58,10.17h45.12c4.74,0,8.58-4.56,8.58-10.17v-14.85c0-5.62-3.84-10.17-8.58-10.17h-45.12c-4.74,0-8.58,4.55-8.58,10.17v14.85Z"/>
            <path class="cls-48" d="m41.53,41.92c0,5.57,3.85,10.1,8.6,10.1h44.58c4.75,0,8.6-4.52,8.6-10.1v-13.5c0-5.58-3.85-10.1-8.6-10.1h-44.58c-4.75,0-8.6,4.52-8.6,10.1v13.5Z"/>
            <path class="cls-33" d="m41.78,40.61c0,5.53,3.86,10.02,8.63,10.02h44.03c4.76,0,8.63-4.49,8.63-10.02v-12.15c0-5.54-3.86-10.02-8.63-10.02h-44.03c-4.76,0-8.63,4.48-8.63,10.02v12.15Z"/>
            <path class="cls-42" d="m42.03,39.3c0,5.49,3.87,9.95,8.65,9.95h43.48c4.78,0,8.65-4.45,8.65-9.95v-10.8c0-5.5-3.87-9.95-8.65-9.95h-43.48c-4.78,0-8.65,4.45-8.65,9.95v10.8Z"/>
            <path class="cls-39" d="m42.28,37.98c0,5.45,3.88,9.87,8.67,9.87h42.94c4.79,0,8.68-4.42,8.68-9.87v-9.45c0-5.46-3.89-9.87-8.68-9.87h-42.94c-4.79,0-8.67,4.42-8.67,9.87v9.45Z"/>
            <path class="cls-2" d="m42.53,36.67c0,5.41,3.89,9.8,8.7,9.8h42.39c4.8,0,8.7-4.39,8.7-9.8v-8.1c0-5.42-3.9-9.8-8.7-9.8h-42.39c-4.8,0-8.7,4.38-8.7,9.8v8.1Z"/>
            <path class="cls-66" d="m42.77,35.36c0,5.37,3.91,9.72,8.72,9.72h41.85c4.82,0,8.73-4.35,8.73-9.72v-6.75c0-5.37-3.91-9.73-8.73-9.73h-41.85c-4.82,0-8.72,4.35-8.72,9.73v6.75Z"/>
            <path class="cls-83" d="m43.02,34.05c0,5.33,3.92,9.65,8.75,9.65h41.3c4.83,0,8.75-4.32,8.75-9.65v-5.4c0-5.33-3.92-9.65-8.75-9.65h-41.3c-4.83,0-8.75,4.32-8.75,9.65v5.4Z"/>
            <path class="cls-70" d="m43.27,32.74c0,5.29,3.93,9.57,8.77,9.57h40.76c4.84,0,8.77-4.29,8.77-9.57v-4.05c0-5.29-3.93-9.58-8.77-9.58h-40.76c-4.84,0-8.77,4.28-8.77,9.58v4.05Z"/>
            <path class="cls-90" d="m43.52,31.43c0,5.25,3.94,9.5,8.8,9.5h40.21c4.86,0,8.8-4.25,8.8-9.5v-2.7c0-5.25-3.94-9.5-8.8-9.5h-40.21c-4.86,0-8.8,4.25-8.8,9.5v2.7Z"/>
            <path class="cls-46" d="m43.77,30.12c0,5.2,3.95,9.43,8.82,9.43h39.67c4.87,0,8.82-4.22,8.82-9.43v-1.35c0-5.21-3.95-9.43-8.82-9.43h-39.67c-4.87,0-8.82,4.22-8.82,9.43v1.35Z"/>
            <path class="cls-11" d="m44.02,28.81c0,5.16,3.96,9.35,8.85,9.35h39.12c4.88,0,8.85-4.19,8.85-9.35h0c0-5.17-3.96-9.35-8.85-9.35h-39.12c-4.88,0-8.85,4.18-8.85,9.35h0Z"/>
          </g>
          <path class="cls-7" d="m40.79,45.85c0,5.7,3.82,10.32,8.53,10.32h46.21c4.71,0,8.53-4.62,8.53-10.32v-17.55c0-5.7-3.82-10.32-8.53-10.32h-46.21c-4.71,0-8.53,4.62-8.53,10.32v17.55Z"/>
        </g>
        <g class="cls-20">
          <path class="cls-11" d="m46.45,71.28c0,3.82,2.56,6.92,5.72,6.92h30.97c3.16,0,5.71-3.1,5.71-6.92v-11.76c0-3.82-2.56-6.92-5.71-6.92h-30.97c-3.16,0-5.72,3.09-5.72,6.92v11.76Z"/>
          <path class="cls-61" d="m46.57,71.21c0,3.82,2.56,6.92,5.72,6.92h30.97c3.16,0,5.71-3.1,5.71-6.92v-11.76c0-3.82-2.56-6.92-5.71-6.92h-30.97c-3.16,0-5.72,3.09-5.72,6.92v11.76Z"/>
          <path class="cls-84" d="m46.7,71.13c0,3.82,2.56,6.92,5.72,6.92h30.97c3.16,0,5.71-3.1,5.71-6.92v-11.76c0-3.82-2.56-6.92-5.71-6.92h-30.97c-3.16,0-5.72,3.09-5.72,6.92v11.76Z"/>
          <path class="cls-95" d="m46.82,71.06c0,3.82,2.56,6.92,5.72,6.92h30.97c3.16,0,5.71-3.1,5.71-6.92v-11.76c0-3.82-2.56-6.92-5.71-6.92h-30.97c-3.16,0-5.72,3.09-5.72,6.92v11.76Z"/>
          <path class="cls-10" d="m46.94,70.99c0,3.82,2.56,6.92,5.72,6.92h30.97c3.16,0,5.71-3.1,5.71-6.92v-11.76c0-3.82-2.56-6.92-5.71-6.92h-30.97c-3.16,0-5.72,3.09-5.72,6.92v11.76Z"/>
          <path class="cls-53" d="m47.06,70.92c0,3.82,2.56,6.92,5.72,6.92h30.97c3.16,0,5.71-3.1,5.71-6.92v-11.76c0-3.82-2.56-6.92-5.71-6.92h-30.97c-3.16,0-5.72,3.09-5.72,6.92v11.76Z"/>
          <path class="cls-57" d="m47.18,70.84c0,3.82,2.56,6.92,5.72,6.92h30.97c3.16,0,5.71-3.1,5.71-6.92v-11.76c0-3.82-2.56-6.92-5.71-6.92h-30.97c-3.16,0-5.72,3.09-5.72,6.92v11.76Z"/>
          <path class="cls-32" d="m47.3,70.77c0,3.82,2.56,6.92,5.72,6.92h30.97c3.16,0,5.71-3.1,5.71-6.92v-11.76c0-3.82-2.56-6.92-5.71-6.92h-30.97c-3.16,0-5.72,3.09-5.72,6.92v11.76Z"/>
          <path class="cls-70" d="m47.42,70.7c0,3.82,2.56,6.92,5.72,6.92h30.97c3.16,0,5.71-3.1,5.71-6.92v-11.76c0-3.82-2.56-6.92-5.71-6.92h-30.97c-3.16,0-5.72,3.09-5.72,6.92v11.76Z"/>
          <path class="cls-63" d="m47.55,70.62c0,3.82,2.56,6.92,5.72,6.92h30.97c3.16,0,5.71-3.1,5.71-6.92v-11.76c0-3.82-2.56-6.92-5.71-6.92h-30.97c-3.16,0-5.72,3.09-5.72,6.92v11.76Z"/>
          <path class="cls-73" d="m47.67,70.55c0,3.82,2.56,6.92,5.72,6.92h30.97c3.16,0,5.71-3.1,5.71-6.92v-11.76c0-3.82-2.56-6.92-5.71-6.92h-30.97c-3.16,0-5.72,3.09-5.72,6.92v11.76Z"/>
          <path class="cls-36" d="m47.79,70.48c0,3.82,2.56,6.92,5.72,6.92h30.97c3.16,0,5.71-3.1,5.71-6.92v-11.76c0-3.82-2.56-6.92-5.71-6.92h-30.97c-3.16,0-5.72,3.09-5.72,6.92v11.76Z"/>
          <path class="cls-58" d="m47.91,70.41c0,3.82,2.56,6.92,5.72,6.92h30.97c3.16,0,5.71-3.1,5.71-6.92v-11.76c0-3.82-2.56-6.92-5.71-6.92h-30.97c-3.16,0-5.72,3.09-5.72,6.92v11.76Z"/>
          <path class="cls-66" d="m48.03,70.33c0,3.82,2.56,6.92,5.72,6.92h30.97c3.16,0,5.71-3.1,5.71-6.92v-11.76c0-3.82-2.56-6.92-5.71-6.92h-30.97c-3.16,0-5.72,3.1-5.72,6.92v11.76Z"/>
          <path class="cls-91" d="m48.15,70.26c0,3.82,2.56,6.92,5.72,6.92h30.97c3.16,0,5.71-3.1,5.71-6.92v-11.76c0-3.82-2.56-6.92-5.71-6.92h-30.97c-3.16,0-5.72,3.1-5.72,6.92v11.76Z"/>
          <path class="cls-78" d="m48.27,70.19c0,3.82,2.56,6.92,5.72,6.92h30.97c3.16,0,5.71-3.1,5.71-6.92v-11.76c0-3.82-2.56-6.92-5.71-6.92h-30.97c-3.16,0-5.72,3.1-5.72,6.92v11.76Z"/>
          <path class="cls-40" d="m48.39,70.11c0,3.82,2.56,6.92,5.72,6.92h30.97c3.16,0,5.71-3.1,5.71-6.92v-11.76c0-3.82-2.56-6.92-5.71-6.92h-30.97c-3.16,0-5.72,3.1-5.72,6.92v11.76Z"/>
          <path class="cls-50" d="m48.52,70.04c0,3.82,2.56,6.92,5.72,6.92h30.97c3.16,0,5.71-3.1,5.71-6.92v-11.76c0-3.82-2.56-6.92-5.71-6.92h-30.97c-3.16,0-5.72,3.1-5.72,6.92v11.76Z"/>
          <path class="cls-13" d="m48.64,69.97c0,3.82,2.56,6.92,5.72,6.92h30.97c3.16,0,5.71-3.1,5.71-6.92v-11.76c0-3.82-2.56-6.92-5.71-6.92h-30.97c-3.16,0-5.72,3.1-5.72,6.92v11.76Z"/>
          <path class="cls-71" d="m48.76,69.9c0,3.82,2.56,6.92,5.72,6.92h30.97c3.16,0,5.71-3.1,5.71-6.92v-11.76c0-3.82-2.56-6.92-5.71-6.92h-30.97c-3.16,0-5.72,3.1-5.72,6.92v11.76Z"/>
          <path class="cls-62" d="m48.88,69.82c0,3.82,2.56,6.92,5.72,6.92h30.97c3.16,0,5.71-3.1,5.71-6.92v-11.76c0-3.82-2.56-6.92-5.71-6.92h-30.97c-3.16,0-5.72,3.1-5.72,6.92v11.76Z"/>
          <path class="cls-42" d="m49,69.75c0,3.82,2.56,6.92,5.72,6.92h30.97c3.16,0,5.71-3.1,5.71-6.92v-11.76c0-3.82-2.56-6.92-5.71-6.92h-30.97c-3.16,0-5.72,3.1-5.72,6.92v11.76Z"/>
          <path class="cls-41" d="m49.12,69.68c0,3.82,2.56,6.92,5.72,6.92h30.97c3.16,0,5.71-3.1,5.71-6.92v-11.76c0-3.82-2.56-6.92-5.71-6.92h-30.97c-3.16,0-5.72,3.1-5.72,6.92v11.76Z"/>
          <path class="cls-79" d="m49.24,69.6c0,3.82,2.56,6.92,5.72,6.92h30.97c3.16,0,5.71-3.1,5.71-6.92v-11.76c0-3.82-2.56-6.92-5.71-6.92h-30.97c-3.16,0-5.72,3.1-5.72,6.92v11.76Z"/>
          <path class="cls-33" d="m49.36,69.53c0,3.82,2.56,6.92,5.72,6.92h30.97c3.16,0,5.71-3.1,5.71-6.92v-11.76c0-3.82-2.56-6.92-5.71-6.92h-30.97c-3.16,0-5.72,3.1-5.72,6.92v11.76Z"/>
          <path class="cls-45" d="m49.49,69.46c0,3.82,2.56,6.92,5.72,6.92h30.97c3.16,0,5.71-3.1,5.71-6.92v-11.76c0-3.82-2.56-6.92-5.71-6.92h-30.97c-3.16,0-5.72,3.1-5.72,6.92v11.76Z"/>
          <path class="cls-48" d="m49.61,69.39c0,3.82,2.56,6.92,5.72,6.92h30.97c3.16,0,5.71-3.1,5.71-6.92v-11.76c0-3.82-2.56-6.92-5.71-6.92h-30.97c-3.16,0-5.72,3.1-5.72,6.92v11.76Z"/>
          <path class="cls-12" d="m49.73,69.31c0,3.82,2.56,6.92,5.72,6.92h30.97c3.16,0,5.71-3.1,5.71-6.92v-11.76c0-3.82-2.56-6.92-5.71-6.92h-30.97c-3.16,0-5.72,3.1-5.72,6.92v11.76Z"/>
          <path class="cls-24" d="m49.85,69.24c0,3.82,2.56,6.92,5.72,6.92h30.97c3.16,0,5.71-3.1,5.71-6.92v-11.76c0-3.82-2.56-6.92-5.71-6.92h-30.97c-3.16,0-5.72,3.1-5.72,6.92v11.76Z"/>
          <path class="cls-87" d="m49.97,69.17c0,3.82,2.56,6.92,5.72,6.92h30.97c3.16,0,5.71-3.1,5.71-6.92v-11.76c0-3.82-2.56-6.92-5.71-6.92h-30.97c-3.16,0-5.72,3.1-5.72,6.92v11.76Z"/>
          <path class="cls-74" d="m50.09,69.09c0,3.82,2.56,6.92,5.72,6.92h30.97c3.16,0,5.71-3.1,5.71-6.92v-11.76c0-3.82-2.56-6.92-5.71-6.92h-30.97c-3.16,0-5.72,3.1-5.72,6.92v11.76Z"/>
          <path class="cls-29" d="m50.21,69.02c0,3.82,2.56,6.92,5.72,6.92h30.97c3.16,0,5.71-3.1,5.71-6.92v-11.76c0-3.82-2.56-6.92-5.71-6.92h-30.97c-3.16,0-5.72,3.1-5.72,6.92v11.76Z"/>
          <path class="cls-23" d="m50.34,68.95c0,3.82,2.56,6.92,5.72,6.92h30.97c3.16,0,5.71-3.1,5.71-6.92v-11.76c0-3.82-2.56-6.92-5.71-6.92h-30.97c-3.16,0-5.72,3.1-5.72,6.92v11.76Z"/>
          <path class="cls-38" d="m50.46,68.88c0,3.82,2.56,6.92,5.72,6.92h30.97c3.16,0,5.71-3.1,5.71-6.92v-11.76c0-3.82-2.56-6.92-5.71-6.92h-30.97c-3.16,0-5.72,3.1-5.72,6.92v11.76Z"/>
          <path class="cls-35" d="m50.58,68.8c0,3.82,2.56,6.92,5.72,6.92h30.97c3.16,0,5.71-3.1,5.71-6.92v-11.76c0-3.82-2.56-6.92-5.71-6.92h-30.97c-3.16,0-5.72,3.1-5.72,6.92v11.76Z"/>
        </g>
        <g>
          <path class="cls-49" d="m50.58,68.57c0,3.82,2.56,6.92,5.72,6.92h30.97c3.16,0,5.71-3.1,5.71-6.92v-11.76c0-3.82-2.56-6.92-5.71-6.92h-30.97c-3.16,0-5.72,3.1-5.72,6.92v11.76Z"/>
          <g class="cls-20">
            <path class="cls-35" d="m50.58,68.57c0,3.82,2.56,6.92,5.72,6.92h30.97c3.16,0,5.71-3.1,5.71-6.92v-11.76c0-3.82-2.56-6.92-5.71-6.92h-30.97c-3.16,0-5.72,3.09-5.72,6.92v11.76Z"/>
            <path class="cls-29" d="m50.74,67.69c0,3.79,2.57,6.87,5.73,6.87h30.61c3.17,0,5.73-3.08,5.73-6.87v-10.86c0-3.8-2.57-6.87-5.73-6.87h-30.61c-3.17,0-5.73,3.07-5.73,6.87v10.86Z"/>
            <path class="cls-1" d="m50.91,66.81c0,3.76,2.57,6.82,5.75,6.82h30.24c3.17,0,5.75-3.05,5.75-6.82v-9.95c0-3.77-2.57-6.82-5.75-6.82h-30.24c-3.18,0-5.75,3.05-5.75,6.82v9.95Z"/>
            <path class="cls-48" d="m51.08,65.93c0,3.74,2.58,6.77,5.77,6.77h29.88c3.18,0,5.76-3.03,5.76-6.77v-9.05c0-3.74-2.58-6.77-5.76-6.77h-29.88c-3.19,0-5.77,3.03-5.77,6.77v9.05Z"/>
            <path class="cls-33" d="m51.24,65.05c0,3.71,2.59,6.72,5.78,6.72h29.51c3.19,0,5.78-3.01,5.78-6.72v-8.14c0-3.71-2.59-6.72-5.78-6.72h-29.51c-3.19,0-5.78,3.01-5.78,6.72v8.14Z"/>
            <path class="cls-42" d="m51.41,64.18c0,3.68,2.59,6.67,5.8,6.67h29.14c3.2,0,5.8-2.99,5.8-6.67v-7.24c0-3.69-2.6-6.67-5.8-6.67h-29.14c-3.2,0-5.8,2.98-5.8,6.67v7.24Z"/>
            <path class="cls-39" d="m51.58,63.3c0,3.65,2.6,6.62,5.81,6.62h28.78c3.21,0,5.81-2.96,5.81-6.62v-6.33c0-3.66-2.6-6.62-5.81-6.62h-28.78c-3.21,0-5.81,2.96-5.81,6.62v6.33Z"/>
            <path class="cls-2" d="m51.74,62.42c0,3.62,2.61,6.57,5.83,6.57h28.41c3.22,0,5.83-2.94,5.83-6.57v-5.43c0-3.63-2.61-6.57-5.83-6.57h-28.41c-3.22,0-5.83,2.94-5.83,6.57v5.43Z"/>
            <path class="cls-66" d="m51.91,61.54c0,3.6,2.62,6.52,5.85,6.52h28.05c3.23,0,5.85-2.92,5.85-6.52v-4.52c0-3.6-2.62-6.52-5.85-6.52h-28.05c-3.23,0-5.85,2.92-5.85,6.52v4.52Z"/>
            <path class="cls-83" d="m52.08,60.66c0,3.57,2.62,6.47,5.86,6.47h27.68c3.24,0,5.87-2.9,5.87-6.47v-3.62c0-3.58-2.63-6.47-5.87-6.47h-27.68c-3.24,0-5.86,2.89-5.86,6.47v3.62Z"/>
            <path class="cls-70" d="m52.24,59.78c0,3.54,2.63,6.42,5.88,6.42h27.32c3.25,0,5.88-2.87,5.88-6.42v-2.71c0-3.55-2.63-6.42-5.88-6.42h-27.32c-3.25,0-5.88,2.87-5.88,6.42v2.71Z"/>
            <path class="cls-90" d="m52.41,58.9c0,3.51,2.64,6.37,5.9,6.37h26.95c3.26,0,5.9-2.85,5.9-6.37v-1.81c0-3.52-2.64-6.37-5.9-6.37h-26.95c-3.26,0-5.9,2.85-5.9,6.37v1.81Z"/>
            <path class="cls-46" d="m52.57,58.03c0,3.49,2.65,6.32,5.91,6.32h26.58c3.27,0,5.92-2.83,5.92-6.32v-.9c0-3.49-2.65-6.32-5.92-6.32h-26.58c-3.27,0-5.91,2.83-5.91,6.32v.9Z"/>
            <path class="cls-11" d="m52.74,57.15c0,3.46,2.65,6.27,5.93,6.27h26.22c3.27,0,5.93-2.81,5.93-6.27h0c0-3.47-2.66-6.27-5.93-6.27h-26.22c-3.27,0-5.93,2.81-5.93,6.27h0Z"/>
          </g>
          <path class="cls-7" d="m50.58,68.57c0,3.82,2.56,6.92,5.72,6.92h30.97c3.16,0,5.71-3.1,5.71-6.92v-11.76c0-3.82-2.56-6.92-5.71-6.92h-30.97c-3.16,0-5.72,3.09-5.72,6.92v11.76Z"/>
        </g>
        <g class="cls-20">
          <path class="cls-11" d="m104.06,49.9c0,5.7,3.82,10.32,8.53,10.32h46.21c4.71,0,8.53-4.62,8.53-10.32v-17.55c0-5.7-3.82-10.32-8.53-10.32h-46.21c-4.71,0-8.53,4.62-8.53,10.32v17.55Z"/>
          <path class="cls-61" d="m104.24,49.79c0,5.7,3.82,10.32,8.53,10.32h46.21c4.71,0,8.53-4.62,8.53-10.32v-17.55c0-5.7-3.82-10.32-8.53-10.32h-46.21c-4.71,0-8.53,4.62-8.53,10.32v17.55Z"/>
          <path class="cls-84" d="m104.42,49.68c0,5.7,3.82,10.32,8.53,10.32h46.21c4.71,0,8.53-4.62,8.53-10.32v-17.55c0-5.7-3.82-10.32-8.53-10.32h-46.21c-4.71,0-8.53,4.62-8.53,10.32v17.55Z"/>
          <path class="cls-95" d="m104.6,49.57c0,5.7,3.82,10.32,8.53,10.32h46.21c4.71,0,8.53-4.62,8.53-10.32v-17.55c0-5.7-3.82-10.32-8.53-10.32h-46.21c-4.71,0-8.53,4.62-8.53,10.32v17.55Z"/>
          <path class="cls-10" d="m104.78,49.46c0,5.7,3.82,10.32,8.53,10.32h46.21c4.71,0,8.53-4.62,8.53-10.32v-17.55c0-5.7-3.82-10.32-8.53-10.32h-46.21c-4.71,0-8.53,4.62-8.53,10.32v17.55Z"/>
          <path class="cls-53" d="m104.96,49.35c0,5.7,3.82,10.32,8.53,10.32h46.21c4.71,0,8.53-4.62,8.53-10.32v-17.55c0-5.7-3.82-10.32-8.53-10.32h-46.21c-4.71,0-8.53,4.62-8.53,10.32v17.55Z"/>
          <path class="cls-57" d="m105.14,49.24c0,5.7,3.82,10.32,8.53,10.32h46.21c4.71,0,8.53-4.62,8.53-10.32v-17.55c0-5.7-3.82-10.32-8.53-10.32h-46.21c-4.71,0-8.53,4.62-8.53,10.32v17.55Z"/>
          <path class="cls-32" d="m105.32,49.14c0,5.7,3.82,10.32,8.53,10.32h46.21c4.71,0,8.53-4.62,8.53-10.32v-17.55c0-5.7-3.82-10.32-8.53-10.32h-46.21c-4.71,0-8.53,4.62-8.53,10.32v17.55Z"/>
          <path class="cls-70" d="m105.5,49.03c0,5.7,3.82,10.32,8.53,10.32h46.21c4.71,0,8.53-4.62,8.53-10.32v-17.55c0-5.7-3.82-10.32-8.53-10.32h-46.21c-4.71,0-8.53,4.62-8.53,10.32v17.55Z"/>
          <path class="cls-63" d="m105.69,48.92c0,5.7,3.82,10.32,8.53,10.32h46.21c4.71,0,8.53-4.62,8.53-10.32v-17.55c0-5.7-3.82-10.32-8.53-10.32h-46.21c-4.71,0-8.53,4.62-8.53,10.32v17.55Z"/>
          <path class="cls-73" d="m105.87,48.81c0,5.7,3.82,10.32,8.53,10.32h46.21c4.71,0,8.53-4.62,8.53-10.32v-17.55c0-5.7-3.82-10.32-8.53-10.32h-46.21c-4.71,0-8.53,4.62-8.53,10.32v17.55Z"/>
          <path class="cls-36" d="m106.05,48.7c0,5.7,3.82,10.32,8.53,10.32h46.21c4.71,0,8.53-4.62,8.53-10.32v-17.55c0-5.7-3.82-10.32-8.53-10.32h-46.21c-4.71,0-8.53,4.62-8.53,10.32v17.55Z"/>
          <path class="cls-58" d="m106.23,48.59c0,5.7,3.82,10.32,8.53,10.32h46.21c4.71,0,8.53-4.62,8.53-10.32v-17.55c0-5.7-3.82-10.32-8.53-10.32h-46.21c-4.71,0-8.53,4.62-8.53,10.32v17.55Z"/>
          <path class="cls-66" d="m106.41,48.48c0,5.7,3.82,10.32,8.53,10.32h46.21c4.71,0,8.53-4.62,8.53-10.32v-17.55c0-5.7-3.82-10.32-8.53-10.32h-46.21c-4.71,0-8.53,4.62-8.53,10.32v17.55Z"/>
          <path class="cls-91" d="m106.59,48.37c0,5.7,3.82,10.32,8.53,10.32h46.21c4.71,0,8.53-4.62,8.53-10.32v-17.55c0-5.7-3.82-10.32-8.53-10.32h-46.21c-4.71,0-8.53,4.62-8.53,10.32v17.55Z"/>
          <path class="cls-78" d="m106.77,48.27c0,5.7,3.82,10.32,8.53,10.32h46.21c4.71,0,8.53-4.62,8.53-10.32v-17.55c0-5.7-3.82-10.32-8.53-10.32h-46.21c-4.71,0-8.53,4.62-8.53,10.32v17.55Z"/>
          <path class="cls-40" d="m106.95,48.16c0,5.7,3.82,10.32,8.53,10.32h46.21c4.71,0,8.53-4.62,8.53-10.32v-17.55c0-5.7-3.82-10.32-8.53-10.32h-46.21c-4.71,0-8.53,4.62-8.53,10.32v17.55Z"/>
          <path class="cls-50" d="m107.13,48.05c0,5.7,3.82,10.32,8.53,10.32h46.21c4.71,0,8.53-4.62,8.53-10.32v-17.55c0-5.7-3.82-10.32-8.53-10.32h-46.21c-4.71,0-8.53,4.62-8.53,10.32v17.55Z"/>
          <path class="cls-13" d="m107.31,47.94c0,5.7,3.82,10.32,8.53,10.32h46.21c4.71,0,8.53-4.62,8.53-10.32v-17.55c0-5.7-3.82-10.32-8.53-10.32h-46.21c-4.71,0-8.53,4.62-8.53,10.32v17.55Z"/>
          <path class="cls-71" d="m107.5,47.83c0,5.7,3.82,10.32,8.53,10.32h46.21c4.71,0,8.53-4.62,8.53-10.32v-17.55c0-5.7-3.82-10.32-8.53-10.32h-46.21c-4.71,0-8.53,4.62-8.53,10.32v17.55Z"/>
          <path class="cls-62" d="m107.68,47.72c0,5.7,3.82,10.32,8.53,10.32h46.21c4.71,0,8.53-4.62,8.53-10.32v-17.55c0-5.7-3.82-10.32-8.53-10.32h-46.21c-4.71,0-8.53,4.62-8.53,10.32v17.55Z"/>
          <path class="cls-42" d="m107.86,47.61c0,5.7,3.82,10.32,8.53,10.32h46.21c4.71,0,8.53-4.62,8.53-10.32v-17.55c0-5.7-3.82-10.32-8.53-10.32h-46.21c-4.71,0-8.53,4.62-8.53,10.32v17.55Z"/>
          <path class="cls-41" d="m108.04,47.51c0,5.7,3.82,10.32,8.53,10.32h46.21c4.71,0,8.53-4.62,8.53-10.32v-17.55c0-5.7-3.82-10.32-8.53-10.32h-46.21c-4.71,0-8.53,4.62-8.53,10.32v17.55Z"/>
          <path class="cls-79" d="m108.22,47.4c0,5.7,3.82,10.32,8.53,10.32h46.21c4.71,0,8.53-4.62,8.53-10.32v-17.55c0-5.7-3.82-10.32-8.53-10.32h-46.21c-4.71,0-8.53,4.62-8.53,10.32v17.55Z"/>
          <path class="cls-33" d="m108.4,47.29c0,5.7,3.82,10.32,8.53,10.32h46.21c4.71,0,8.53-4.62,8.53-10.32v-17.55c0-5.7-3.82-10.32-8.53-10.32h-46.21c-4.71,0-8.53,4.62-8.53,10.32v17.55Z"/>
          <path class="cls-45" d="m108.58,47.18c0,5.7,3.82,10.32,8.53,10.32h46.21c4.71,0,8.53-4.62,8.53-10.32v-17.55c0-5.7-3.82-10.32-8.53-10.32h-46.21c-4.71,0-8.53,4.62-8.53,10.32v17.55Z"/>
          <path class="cls-48" d="m108.76,47.07c0,5.7,3.82,10.32,8.53,10.32h46.21c4.71,0,8.53-4.62,8.53-10.32v-17.55c0-5.7-3.82-10.32-8.53-10.32h-46.21c-4.71,0-8.53,4.62-8.53,10.32v17.55Z"/>
          <path class="cls-12" d="m108.94,46.96c0,5.7,3.82,10.32,8.53,10.32h46.21c4.71,0,8.53-4.62,8.53-10.32v-17.55c0-5.7-3.82-10.32-8.53-10.32h-46.21c-4.71,0-8.53,4.62-8.53,10.32v17.55Z"/>
          <path class="cls-24" d="m109.12,46.85c0,5.7,3.82,10.32,8.53,10.32h46.21c4.71,0,8.53-4.62,8.53-10.32v-17.55c0-5.7-3.82-10.32-8.53-10.32h-46.21c-4.71,0-8.53,4.62-8.53,10.32v17.55Z"/>
          <path class="cls-87" d="m109.31,46.74c0,5.7,3.82,10.32,8.53,10.32h46.21c4.71,0,8.53-4.62,8.53-10.32v-17.55c0-5.7-3.82-10.32-8.53-10.32h-46.21c-4.71,0-8.53,4.62-8.53,10.32v17.55Z"/>
          <path class="cls-74" d="m109.49,46.64c0,5.7,3.82,10.32,8.53,10.32h46.21c4.71,0,8.53-4.62,8.53-10.32v-17.55c0-5.7-3.82-10.32-8.53-10.32h-46.21c-4.71,0-8.53,4.62-8.53,10.32v17.55Z"/>
          <path class="cls-29" d="m109.67,46.53c0,5.7,3.82,10.32,8.53,10.32h46.21c4.71,0,8.53-4.62,8.53-10.32v-17.55c0-5.7-3.82-10.32-8.53-10.32h-46.21c-4.71,0-8.53,4.62-8.53,10.32v17.55Z"/>
          <path class="cls-23" d="m109.85,46.42c0,5.7,3.82,10.32,8.53,10.32h46.21c4.71,0,8.53-4.62,8.53-10.32v-17.55c0-5.7-3.82-10.32-8.53-10.32h-46.21c-4.71,0-8.53,4.62-8.53,10.32v17.55Z"/>
          <path class="cls-38" d="m110.03,46.31c0,5.7,3.82,10.32,8.53,10.32h46.21c4.71,0,8.53-4.62,8.53-10.32v-17.55c0-5.7-3.82-10.32-8.53-10.32h-46.21c-4.71,0-8.53,4.62-8.53,10.32v17.55Z"/>
          <path class="cls-35" d="m110.21,46.2c0,5.7,3.82,10.32,8.53,10.32h46.21c4.71,0,8.53-4.62,8.53-10.32v-17.55c0-5.7-3.82-10.32-8.53-10.32h-46.21c-4.71,0-8.53,4.62-8.53,10.32v17.55Z"/>
        </g>
        <g>
          <path class="cls-44" d="m110.21,45.85c0,5.7,3.82,10.32,8.53,10.32h46.21c4.71,0,8.53-4.62,8.53-10.32v-17.55c0-5.7-3.82-10.32-8.53-10.32h-46.21c-4.71,0-8.53,4.62-8.53,10.32v17.55Z"/>
          <g class="cls-20">
            <path class="cls-35" d="m110.21,45.85c0,5.7,3.82,10.32,8.53,10.32h46.21c4.71,0,8.53-4.62,8.53-10.32v-17.55c0-5.7-3.82-10.32-8.53-10.32h-46.21c-4.71,0-8.53,4.62-8.53,10.32v17.55Z"/>
            <path class="cls-29" d="m110.46,44.54c0,5.66,3.83,10.24,8.55,10.24h45.67c4.72,0,8.55-4.59,8.55-10.24v-16.2c0-5.66-3.83-10.25-8.55-10.25h-45.67c-4.72,0-8.55,4.58-8.55,10.25v16.2Z"/>
            <path class="cls-1" d="m110.71,43.23c0,5.61,3.84,10.17,8.58,10.17h45.12c4.74,0,8.58-4.56,8.58-10.17v-14.85c0-5.62-3.84-10.17-8.58-10.17h-45.12c-4.74,0-8.58,4.55-8.58,10.17v14.85Z"/>
            <path class="cls-48" d="m110.96,41.92c0,5.57,3.85,10.1,8.6,10.1h44.58c4.75,0,8.6-4.52,8.6-10.1v-13.5c0-5.58-3.85-10.1-8.6-10.1h-44.58c-4.75,0-8.6,4.52-8.6,10.1v13.5Z"/>
            <path class="cls-33" d="m111.2,40.61c0,5.53,3.86,10.02,8.63,10.02h44.03c4.76,0,8.63-4.49,8.63-10.02v-12.15c0-5.54-3.86-10.02-8.63-10.02h-44.03c-4.76,0-8.63,4.48-8.63,10.02v12.15Z"/>
            <path class="cls-42" d="m111.45,39.3c0,5.49,3.87,9.95,8.65,9.95h43.48c4.78,0,8.65-4.45,8.65-9.95v-10.8c0-5.5-3.87-9.95-8.65-9.95h-43.48c-4.78,0-8.65,4.45-8.65,9.95v10.8Z"/>
            <path class="cls-39" d="m111.7,37.98c0,5.45,3.88,9.87,8.67,9.87h42.94c4.79,0,8.68-4.42,8.68-9.87v-9.45c0-5.46-3.88-9.87-8.68-9.87h-42.94c-4.79,0-8.67,4.42-8.67,9.87v9.45Z"/>
            <path class="cls-2" d="m111.95,36.67c0,5.41,3.89,9.8,8.7,9.8h42.39c4.8,0,8.7-4.39,8.7-9.8v-8.1c0-5.42-3.9-9.8-8.7-9.8h-42.39c-4.8,0-8.7,4.38-8.7,9.8v8.1Z"/>
            <path class="cls-66" d="m112.2,35.36c0,5.37,3.91,9.72,8.72,9.72h41.85c4.82,0,8.73-4.35,8.73-9.72v-6.75c0-5.37-3.91-9.73-8.73-9.73h-41.85c-4.82,0-8.72,4.35-8.72,9.73v6.75Z"/>
            <path class="cls-83" d="m112.44,34.05c0,5.33,3.92,9.65,8.75,9.65h41.3c4.83,0,8.75-4.32,8.75-9.65v-5.4c0-5.33-3.92-9.65-8.75-9.65h-41.3c-4.83,0-8.75,4.32-8.75,9.65v5.4Z"/>
            <path class="cls-70" d="m112.69,32.74c0,5.29,3.93,9.57,8.77,9.57h40.76c4.85,0,8.77-4.29,8.77-9.57v-4.05c0-5.29-3.93-9.58-8.77-9.58h-40.76c-4.84,0-8.77,4.28-8.77,9.58v4.05Z"/>
            <path class="cls-90" d="m112.94,31.43c0,5.25,3.94,9.5,8.8,9.5h40.21c4.86,0,8.8-4.25,8.8-9.5v-2.7c0-5.25-3.94-9.5-8.8-9.5h-40.21c-4.86,0-8.8,4.25-8.8,9.5v2.7Z"/>
            <path class="cls-46" d="m113.19,30.12c0,5.2,3.95,9.43,8.82,9.43h39.66c4.87,0,8.82-4.22,8.82-9.43v-1.35c0-5.21-3.95-9.43-8.82-9.43h-39.66c-4.87,0-8.82,4.22-8.82,9.43v1.35Z"/>
            <path class="cls-11" d="m113.44,28.81c0,5.16,3.96,9.35,8.85,9.35h39.12c4.89,0,8.85-4.19,8.85-9.35h0c0-5.17-3.96-9.35-8.85-9.35h-39.12c-4.88,0-8.85,4.18-8.85,9.35h0Z"/>
          </g>
          <path class="cls-7" d="m110.21,45.85c0,5.7,3.82,10.32,8.53,10.32h46.21c4.71,0,8.53-4.62,8.53-10.32v-17.55c0-5.7-3.82-10.32-8.53-10.32h-46.21c-4.71,0-8.53,4.62-8.53,10.32v17.55Z"/>
        </g>
        <g class="cls-20">
          <path class="cls-11" d="m115.87,71.28c0,3.82,2.56,6.92,5.71,6.92h30.97c3.16,0,5.72-3.1,5.72-6.92v-11.76c0-3.82-2.56-6.92-5.72-6.92h-30.97c-3.16,0-5.71,3.09-5.71,6.92v11.76Z"/>
          <path class="cls-61" d="m116,71.21c0,3.82,2.56,6.92,5.71,6.92h30.97c3.16,0,5.72-3.1,5.72-6.92v-11.76c0-3.82-2.56-6.92-5.72-6.92h-30.97c-3.16,0-5.71,3.09-5.71,6.92v11.76Z"/>
          <path class="cls-84" d="m116.12,71.13c0,3.82,2.56,6.92,5.71,6.92h30.97c3.16,0,5.72-3.1,5.72-6.92v-11.76c0-3.82-2.56-6.92-5.72-6.92h-30.97c-3.16,0-5.71,3.09-5.71,6.92v11.76Z"/>
          <path class="cls-95" d="m116.24,71.06c0,3.82,2.56,6.92,5.71,6.92h30.97c3.16,0,5.72-3.1,5.72-6.92v-11.76c0-3.82-2.56-6.92-5.72-6.92h-30.97c-3.16,0-5.71,3.09-5.71,6.92v11.76Z"/>
          <path class="cls-10" d="m116.36,70.99c0,3.82,2.56,6.92,5.71,6.92h30.97c3.16,0,5.72-3.1,5.72-6.92v-11.76c0-3.82-2.56-6.92-5.72-6.92h-30.97c-3.16,0-5.71,3.09-5.71,6.92v11.76Z"/>
          <path class="cls-53" d="m116.48,70.92c0,3.82,2.56,6.92,5.71,6.92h30.97c3.16,0,5.72-3.1,5.72-6.92v-11.76c0-3.82-2.56-6.92-5.72-6.92h-30.97c-3.16,0-5.71,3.09-5.71,6.92v11.76Z"/>
          <path class="cls-57" d="m116.6,70.84c0,3.82,2.56,6.92,5.71,6.92h30.97c3.16,0,5.72-3.1,5.72-6.92v-11.76c0-3.82-2.56-6.92-5.72-6.92h-30.97c-3.16,0-5.71,3.09-5.71,6.92v11.76Z"/>
          <path class="cls-32" d="m116.72,70.77c0,3.82,2.56,6.92,5.71,6.92h30.97c3.16,0,5.72-3.1,5.72-6.92v-11.76c0-3.82-2.56-6.92-5.72-6.92h-30.97c-3.16,0-5.71,3.09-5.71,6.92v11.76Z"/>
          <path class="cls-70" d="m116.85,70.7c0,3.82,2.56,6.92,5.71,6.92h30.97c3.16,0,5.72-3.1,5.72-6.92v-11.76c0-3.82-2.56-6.92-5.72-6.92h-30.97c-3.16,0-5.71,3.09-5.71,6.92v11.76Z"/>
          <path class="cls-63" d="m116.97,70.62c0,3.82,2.56,6.92,5.71,6.92h30.97c3.16,0,5.72-3.1,5.72-6.92v-11.76c0-3.82-2.56-6.92-5.72-6.92h-30.97c-3.16,0-5.71,3.09-5.71,6.92v11.76Z"/>
          <path class="cls-73" d="m117.09,70.55c0,3.82,2.56,6.92,5.71,6.92h30.97c3.16,0,5.72-3.1,5.72-6.92v-11.76c0-3.82-2.56-6.92-5.72-6.92h-30.97c-3.16,0-5.71,3.09-5.71,6.92v11.76Z"/>
          <path class="cls-36" d="m117.21,70.48c0,3.82,2.56,6.92,5.71,6.92h30.97c3.16,0,5.72-3.1,5.72-6.92v-11.76c0-3.82-2.56-6.92-5.72-6.92h-30.97c-3.16,0-5.71,3.09-5.71,6.92v11.76Z"/>
          <path class="cls-58" d="m117.33,70.41c0,3.82,2.56,6.92,5.71,6.92h30.97c3.16,0,5.72-3.1,5.72-6.92v-11.76c0-3.82-2.56-6.92-5.72-6.92h-30.97c-3.16,0-5.71,3.09-5.71,6.92v11.76Z"/>
          <path class="cls-66" d="m117.45,70.33c0,3.82,2.56,6.92,5.71,6.92h30.97c3.16,0,5.72-3.1,5.72-6.92v-11.76c0-3.82-2.56-6.92-5.72-6.92h-30.97c-3.16,0-5.71,3.1-5.71,6.92v11.76Z"/>
          <path class="cls-91" d="m117.57,70.26c0,3.82,2.56,6.92,5.71,6.92h30.97c3.16,0,5.72-3.1,5.72-6.92v-11.76c0-3.82-2.56-6.92-5.72-6.92h-30.97c-3.16,0-5.71,3.1-5.71,6.92v11.76Z"/>
          <path class="cls-78" d="m117.69,70.19c0,3.82,2.56,6.92,5.71,6.92h30.97c3.16,0,5.72-3.1,5.72-6.92v-11.76c0-3.82-2.56-6.92-5.72-6.92h-30.97c-3.16,0-5.71,3.1-5.71,6.92v11.76Z"/>
          <path class="cls-40" d="m117.82,70.11c0,3.82,2.56,6.92,5.71,6.92h30.97c3.16,0,5.72-3.1,5.72-6.92v-11.76c0-3.82-2.56-6.92-5.72-6.92h-30.97c-3.16,0-5.71,3.1-5.71,6.92v11.76Z"/>
          <path class="cls-50" d="m117.94,70.04c0,3.82,2.56,6.92,5.71,6.92h30.97c3.16,0,5.72-3.1,5.72-6.92v-11.76c0-3.82-2.56-6.92-5.72-6.92h-30.97c-3.16,0-5.71,3.1-5.71,6.92v11.76Z"/>
          <path class="cls-13" d="m118.06,69.97c0,3.82,2.56,6.92,5.71,6.92h30.97c3.16,0,5.72-3.1,5.72-6.92v-11.76c0-3.82-2.56-6.92-5.72-6.92h-30.97c-3.16,0-5.71,3.1-5.71,6.92v11.76Z"/>
          <path class="cls-71" d="m118.18,69.9c0,3.82,2.56,6.92,5.71,6.92h30.97c3.16,0,5.72-3.1,5.72-6.92v-11.76c0-3.82-2.56-6.92-5.72-6.92h-30.97c-3.16,0-5.71,3.1-5.71,6.92v11.76Z"/>
          <path class="cls-62" d="m118.3,69.82c0,3.82,2.56,6.92,5.71,6.92h30.97c3.16,0,5.72-3.1,5.72-6.92v-11.76c0-3.82-2.56-6.92-5.72-6.92h-30.97c-3.16,0-5.71,3.1-5.71,6.92v11.76Z"/>
          <path class="cls-42" d="m118.42,69.75c0,3.82,2.56,6.92,5.71,6.92h30.97c3.16,0,5.72-3.1,5.72-6.92v-11.76c0-3.82-2.56-6.92-5.72-6.92h-30.97c-3.16,0-5.71,3.1-5.71,6.92v11.76Z"/>
          <path class="cls-41" d="m118.54,69.68c0,3.82,2.56,6.92,5.71,6.92h30.97c3.16,0,5.72-3.1,5.72-6.92v-11.76c0-3.82-2.56-6.92-5.72-6.92h-30.97c-3.16,0-5.71,3.1-5.71,6.92v11.76Z"/>
          <path class="cls-79" d="m118.66,69.6c0,3.82,2.56,6.92,5.71,6.92h30.97c3.16,0,5.72-3.1,5.72-6.92v-11.76c0-3.82-2.56-6.92-5.72-6.92h-30.97c-3.16,0-5.71,3.1-5.71,6.92v11.76Z"/>
          <path class="cls-33" d="m118.79,69.53c0,3.82,2.56,6.92,5.71,6.92h30.97c3.16,0,5.72-3.1,5.72-6.92v-11.76c0-3.82-2.56-6.92-5.72-6.92h-30.97c-3.16,0-5.71,3.1-5.71,6.92v11.76Z"/>
          <path class="cls-45" d="m118.91,69.46c0,3.82,2.56,6.92,5.71,6.92h30.97c3.16,0,5.72-3.1,5.72-6.92v-11.76c0-3.82-2.56-6.92-5.72-6.92h-30.97c-3.16,0-5.71,3.1-5.71,6.92v11.76Z"/>
          <path class="cls-48" d="m119.03,69.39c0,3.82,2.56,6.92,5.71,6.92h30.97c3.16,0,5.72-3.1,5.72-6.92v-11.76c0-3.82-2.56-6.92-5.72-6.92h-30.97c-3.16,0-5.71,3.1-5.71,6.92v11.76Z"/>
          <path class="cls-12" d="m119.15,69.31c0,3.82,2.56,6.92,5.71,6.92h30.97c3.16,0,5.72-3.1,5.72-6.92v-11.76c0-3.82-2.56-6.92-5.72-6.92h-30.97c-3.16,0-5.71,3.1-5.71,6.92v11.76Z"/>
          <path class="cls-24" d="m119.27,69.24c0,3.82,2.56,6.92,5.71,6.92h30.97c3.16,0,5.72-3.1,5.72-6.92v-11.76c0-3.82-2.56-6.92-5.72-6.92h-30.97c-3.16,0-5.71,3.1-5.71,6.92v11.76Z"/>
          <path class="cls-87" d="m119.39,69.17c0,3.82,2.56,6.92,5.71,6.92h30.97c3.16,0,5.72-3.1,5.72-6.92v-11.76c0-3.82-2.56-6.92-5.72-6.92h-30.97c-3.16,0-5.71,3.1-5.71,6.92v11.76Z"/>
          <path class="cls-74" d="m119.51,69.09c0,3.82,2.56,6.92,5.71,6.92h30.97c3.16,0,5.72-3.1,5.72-6.92v-11.76c0-3.82-2.56-6.92-5.72-6.92h-30.97c-3.16,0-5.71,3.1-5.71,6.92v11.76Z"/>
          <path class="cls-29" d="m119.64,69.02c0,3.82,2.56,6.92,5.71,6.92h30.97c3.16,0,5.72-3.1,5.72-6.92v-11.76c0-3.82-2.56-6.92-5.72-6.92h-30.97c-3.16,0-5.71,3.1-5.71,6.92v11.76Z"/>
          <path class="cls-23" d="m119.76,68.95c0,3.82,2.56,6.92,5.71,6.92h30.97c3.16,0,5.72-3.1,5.72-6.92v-11.76c0-3.82-2.56-6.92-5.72-6.92h-30.97c-3.16,0-5.71,3.1-5.71,6.92v11.76Z"/>
          <path class="cls-38" d="m119.88,68.88c0,3.82,2.56,6.92,5.71,6.92h30.97c3.16,0,5.72-3.1,5.72-6.92v-11.76c0-3.82-2.56-6.92-5.72-6.92h-30.97c-3.16,0-5.71,3.1-5.71,6.92v11.76Z"/>
          <path class="cls-35" d="m120,68.8c0,3.82,2.56,6.92,5.71,6.92h30.97c3.16,0,5.72-3.1,5.72-6.92v-11.76c0-3.82-2.56-6.92-5.72-6.92h-30.97c-3.16,0-5.71,3.1-5.71,6.92v11.76Z"/>
        </g>
        <g>
          <path class="cls-96" d="m120,68.57c0,3.82,2.56,6.92,5.71,6.92h30.97c3.16,0,5.72-3.1,5.72-6.92v-11.76c0-3.82-2.56-6.92-5.72-6.92h-30.97c-3.16,0-5.71,3.1-5.71,6.92v11.76Z"/>
          <g class="cls-20">
            <path class="cls-35" d="m120,68.57c0,3.82,2.56,6.92,5.71,6.92h30.97c3.16,0,5.72-3.1,5.72-6.92v-11.76c0-3.82-2.56-6.92-5.72-6.92h-30.97c-3.16,0-5.71,3.09-5.71,6.92v11.76Z"/>
            <path class="cls-29" d="m120.17,67.69c0,3.79,2.57,6.87,5.73,6.87h30.61c3.17,0,5.73-3.08,5.73-6.87v-10.86c0-3.8-2.57-6.87-5.73-6.87h-30.61c-3.17,0-5.73,3.07-5.73,6.87v10.86Z"/>
            <path class="cls-1" d="m120.33,66.81c0,3.76,2.57,6.82,5.75,6.82h30.24c3.18,0,5.75-3.05,5.75-6.82v-9.95c0-3.77-2.57-6.82-5.75-6.82h-30.24c-3.17,0-5.75,3.05-5.75,6.82v9.95Z"/>
            <path class="cls-48" d="m120.5,65.93c0,3.74,2.58,6.77,5.76,6.77h29.88c3.19,0,5.77-3.03,5.77-6.77v-9.05c0-3.74-2.58-6.77-5.77-6.77h-29.88c-3.18,0-5.76,3.03-5.76,6.77v9.05Z"/>
            <path class="cls-33" d="m120.66,65.05c0,3.71,2.59,6.72,5.78,6.72h29.51c3.19,0,5.78-3.01,5.78-6.72v-8.14c0-3.71-2.59-6.72-5.78-6.72h-29.51c-3.19,0-5.78,3.01-5.78,6.72v8.14Z"/>
            <path class="cls-42" d="m120.83,64.18c0,3.68,2.6,6.67,5.8,6.67h29.15c3.2,0,5.8-2.99,5.8-6.67v-7.24c0-3.69-2.6-6.67-5.8-6.67h-29.15c-3.2,0-5.8,2.98-5.8,6.67v7.24Z"/>
            <path class="cls-39" d="m121,63.3c0,3.65,2.6,6.62,5.81,6.62h28.78c3.21,0,5.82-2.96,5.82-6.62v-6.33c0-3.66-2.6-6.62-5.82-6.62h-28.78c-3.21,0-5.81,2.96-5.81,6.62v6.33Z"/>
            <path class="cls-2" d="m121.16,62.42c0,3.62,2.61,6.57,5.83,6.57h28.41c3.22,0,5.83-2.94,5.83-6.57v-5.43c0-3.63-2.61-6.57-5.83-6.57h-28.41c-3.22,0-5.83,2.94-5.83,6.57v5.43Z"/>
            <path class="cls-66" d="m121.33,61.54c0,3.6,2.62,6.52,5.85,6.52h28.05c3.23,0,5.85-2.92,5.85-6.52v-4.52c0-3.6-2.62-6.52-5.85-6.52h-28.05c-3.23,0-5.85,2.92-5.85,6.52v4.52Z"/>
            <path class="cls-83" d="m121.5,60.66c0,3.57,2.63,6.47,5.86,6.47h27.68c3.24,0,5.86-2.9,5.86-6.47v-3.62c0-3.58-2.63-6.47-5.86-6.47h-27.68c-3.24,0-5.86,2.89-5.86,6.47v3.62Z"/>
            <path class="cls-70" d="m121.66,59.78c0,3.54,2.63,6.42,5.88,6.42h27.32c3.25,0,5.88-2.87,5.88-6.42v-2.71c0-3.55-2.63-6.42-5.88-6.42h-27.32c-3.25,0-5.88,2.87-5.88,6.42v2.71Z"/>
            <path class="cls-90" d="m121.83,58.9c0,3.51,2.64,6.37,5.9,6.37h26.95c3.26,0,5.9-2.85,5.9-6.37v-1.81c0-3.52-2.64-6.37-5.9-6.37h-26.95c-3.26,0-5.9,2.85-5.9,6.37v1.81Z"/>
            <path class="cls-46" d="m121.99,58.03c0,3.49,2.65,6.32,5.91,6.32h26.58c3.27,0,5.91-2.83,5.91-6.32v-.9c0-3.49-2.65-6.32-5.91-6.32h-26.58c-3.27,0-5.91,2.83-5.91,6.32v.9Z"/>
            <path class="cls-11" d="m122.16,57.15c0,3.46,2.66,6.27,5.93,6.27h26.22c3.27,0,5.93-2.81,5.93-6.27h0c0-3.47-2.66-6.27-5.93-6.27h-26.22c-3.27,0-5.93,2.81-5.93,6.27h0Z"/>
          </g>
          <path class="cls-7" d="m120,68.57c0,3.82,2.56,6.92,5.71,6.92h30.97c3.16,0,5.72-3.1,5.72-6.92v-11.76c0-3.82-2.56-6.92-5.72-6.92h-30.97c-3.16,0-5.71,3.09-5.71,6.92v11.76Z"/>
        </g>
        <path class="cls-16" d="m87.27,49.58h-30.97c-3.28,0-5.95,3.24-5.95,7.23v11.76c0,3.99,2.67,7.23,5.95,7.23h30.97c3.28,0,5.95-3.24,5.95-7.23v-11.76c0-3.99-2.67-7.23-5.95-7.23Z"/>
        <path class="cls-16" d="m156.69,49.58h-30.97c-3.28,0-5.95,3.24-5.95,7.23v11.76c0,3.99,2.67,7.23,5.95,7.23h30.97c3.28,0,5.95-3.24,5.95-7.23v-11.76c0-3.99-2.67-7.23-5.95-7.23Z"/>
      </g>
    </g>
  </g>
</svg>