<?xml version="1.0" encoding="UTF-8"?>
<svg xmlns="http://www.w3.org/2000/svg" xmlns:xlink="http://www.w3.org/1999/xlink" viewBox="0 0 507.5 634.31">
  <defs>
    <style>
      .cls-1 {
        fill: #ddd;
      }

      .cls-2 {
        fill: #e9e9e9;
      }

      .cls-3 {
        fill: #f0f0f0;
      }

      .cls-4 {
        fill: #f4f4f4;
      }

      .cls-5 {
        fill: #fff;
      }

      .cls-6 {
        stroke-width: .03px;
      }

      .cls-6, .cls-7, .cls-8, .cls-9, .cls-10 {
        stroke-linecap: round;
        stroke-linejoin: round;
      }

      .cls-6, .cls-7, .cls-10 {
        fill: none;
      }

      .cls-6, .cls-10 {
        stroke: #8f8f8f;
      }

      .cls-11 {
        fill: #cbcbcb;
      }

      .cls-12 {
        fill: #d1d1d1;
      }

      .cls-13 {
        fill: #fafafa;
      }

      .cls-14 {
        fill: #dbdbdb;
      }

      .cls-15 {
        fill: #ff564a;
      }

      .cls-15, .cls-16, .cls-17, .cls-18, .cls-19, .cls-20 {
        mix-blend-mode: multiply;
      }

      .cls-21 {
        fill: #cacaca;
      }

      .cls-22 {
        fill: #d8d8d8;
      }

      .cls-23 {
        fill: #f6f6f6;
      }

      .cls-16 {
        fill: url(#linear-gradient-4);
      }

      .cls-24 {
        fill: #e2e2e2;
      }

      .cls-25 {
        fill: #f5f5f5;
      }

      .cls-26 {
        fill: url(#linear-gradient-6);
      }

      .cls-27 {
        isolation: isolate;
      }

      .cls-28 {
        fill: #d6d6d6;
      }

      .cls-29 {
        fill: #c9c9c9;
      }

      .cls-30 {
        fill: #e0e0e0;
      }

      .cls-31 {
        fill: #c7c7c7;
      }

      .cls-32 {
        fill: #dedede;
      }

      .cls-33 {
        fill: #cfcfcf;
      }

      .cls-34 {
        fill: #d7d7d7;
      }

      .cls-35 {
        fill: url(#linear-gradient-10);
      }

      .cls-36 {
        fill: #e1e1e1;
      }

      .cls-37 {
        fill: #e6e6e6;
      }

      .cls-38 {
        fill: #e7e7e7;
      }

      .cls-39 {
        fill: #d4d4d4;
      }

      .cls-40 {
        fill: #dadada;
      }

      .cls-41 {
        fill: #eaeaea;
      }

      .cls-17 {
        fill: url(#linear-gradient-8);
      }

      .cls-42 {
        fill: #c8c8c8;
      }

      .cls-43 {
        fill: #fdfdfd;
      }

      .cls-44 {
        fill: #e4e4e4;
      }

      .cls-7, .cls-8, .cls-9 {
        stroke: #949494;
        stroke-width: .03px;
      }

      .cls-45 {
        fill: #fbfbfb;
      }

      .cls-8 {
        fill: url(#linear-gradient-2);
      }

      .cls-46 {
        fill: #f9f9f9;
      }

      .cls-9 {
        fill: url(#linear-gradient);
      }

      .cls-47 {
        fill: #e5e5e5;
      }

      .cls-48 {
        fill: url(#linear-gradient-5);
      }

      .cls-49 {
        fill: #d3d3d3;
      }

      .cls-50 {
        fill: #ebebeb;
      }

      .cls-51 {
        fill: #d5d5d5;
      }

      .cls-10 {
        stroke-width: .03px;
      }

      .cls-52 {
        fill: #dcdcdc;
      }

      .cls-18 {
        fill: #706f6f;
      }

      .cls-53 {
        fill: #e8e8e8;
      }

      .cls-54 {
        fill: #ccc;
      }

      .cls-55 {
        fill: #f7f7f7;
      }

      .cls-56 {
        fill: #efefef;
      }

      .cls-57 {
        fill: url(#linear-gradient-9);
      }

      .cls-58 {
        fill: #f1f1f1;
      }

      .cls-59 {
        fill: url(#linear-gradient-3);
      }

      .cls-19 {
        fill: url(#linear-gradient-7);
      }

      .cls-60 {
        fill: #cecece;
      }

      .cls-61 {
        fill: #f3f3f3;
      }

      .cls-62 {
        fill: #d9d9d9;
      }

      .cls-63 {
        fill: #cdcdcd;
      }

      .cls-64 {
        fill: #f8f8f8;
      }

      .cls-65 {
        fill: #d2d2d2;
      }

      .cls-66 {
        fill: #c6c6c6;
      }

      .cls-67 {
        fill: #eee;
      }

      .cls-68 {
        fill: #d0d0d0;
      }

      .cls-69 {
        fill: #ececec;
      }

      .cls-70 {
        fill: #f2f2f2;
      }

      .cls-71 {
        fill: #fefefe;
      }

      .cls-72 {
        fill: #e3e3e3;
      }

      .cls-73 {
        fill: #fcfcfc;
      }

      .cls-74 {
        fill: #ededed;
      }

      .cls-75 {
        fill: #dfdfdf;
      }
    </style>
    <linearGradient id="linear-gradient" x1="486.58" y1="26.84" x2="99.99" y2="26.84" gradientUnits="userSpaceOnUse">
      <stop offset="0" stop-color="#bababa"/>
      <stop offset=".13" stop-color="#f2f2f2"/>
      <stop offset=".38" stop-color="#e5e5e5"/>
      <stop offset=".85" stop-color="#c4c4c3"/>
      <stop offset="1" stop-color="#b8b8b7"/>
    </linearGradient>
    <linearGradient id="linear-gradient-2" x1="99.99" y1="52.88" x2="486.58" y2="52.88" gradientUnits="userSpaceOnUse">
      <stop offset="0" stop-color="#a3a3a2"/>
      <stop offset="1" stop-color="#737373"/>
    </linearGradient>
    <linearGradient id="linear-gradient-3" x1="487.68" y1="336.02" x2="99.15" y2="336.02" gradientUnits="userSpaceOnUse">
      <stop offset="0" stop-color="#ebebeb"/>
      <stop offset=".28" stop-color="#e7e7e6"/>
      <stop offset=".57" stop-color="#dbdbda"/>
      <stop offset=".85" stop-color="#c7c7c6"/>
      <stop offset="1" stop-color="#babab9"/>
    </linearGradient>
    <linearGradient id="linear-gradient-4" x1="44.04" y1="771.55" x2="44.04" y2="855.17" gradientTransform="translate(249.96 909.13) scale(1 -1)" gradientUnits="userSpaceOnUse">
      <stop offset="0" stop-color="#fff"/>
      <stop offset=".66" stop-color="#ebebea"/>
      <stop offset="1" stop-color="#e0e0df"/>
    </linearGradient>
    <linearGradient id="linear-gradient-5" x1="495.95" y1="374.64" x2="87.93" y2="374.64" gradientUnits="userSpaceOnUse">
      <stop offset="0" stop-color="#ebebeb"/>
      <stop offset=".29" stop-color="#e7e7e6"/>
      <stop offset=".58" stop-color="#dbdbda"/>
      <stop offset=".88" stop-color="#c7c7c6"/>
      <stop offset="1" stop-color="#bdbdbc"/>
    </linearGradient>
    <linearGradient id="linear-gradient-6" x1="505.01" y1="236.81" x2="77.76" y2="236.81" gradientUnits="userSpaceOnUse">
      <stop offset="0" stop-color="#ebebeb"/>
      <stop offset=".31" stop-color="#e7e7e6"/>
      <stop offset=".62" stop-color="#dbdbda"/>
      <stop offset=".93" stop-color="#c7c7c6"/>
      <stop offset="1" stop-color="#c2c2c1"/>
    </linearGradient>
    <linearGradient id="linear-gradient-7" x1="42.85" y1="581.65" x2="42.85" y2="637.44" gradientTransform="translate(249.96 909.13) scale(1 -1)" gradientUnits="userSpaceOnUse">
      <stop offset="0" stop-color="#fff"/>
      <stop offset=".69" stop-color="#fffffe"/>
      <stop offset=".8" stop-color="#f6f6f5"/>
      <stop offset=".97" stop-color="#dddddc"/>
      <stop offset="1" stop-color="#d9d9d8"/>
    </linearGradient>
    <linearGradient id="linear-gradient-8" x1="43.46" y1="315.5" x2="43.46" y2="392.49" xlink:href="#linear-gradient-7"/>
    <linearGradient id="linear-gradient-9" x1="435.85" y1="90.82" x2="151.91" y2="90.82" gradientUnits="userSpaceOnUse">
      <stop offset="0" stop-color="#fff"/>
      <stop offset="1" stop-color="#c9c9c9"/>
    </linearGradient>
    <linearGradient id="linear-gradient-10" x1="386.15" y1="153.54" x2="195.85" y2="153.54" xlink:href="#linear-gradient-9"/>
  </defs>
  <g class="cls-27">
    <g id="Layer_1" data-name="Layer 1">
      <g>
        <g class="cls-20">
          <path class="cls-5" d="m429.35,215.68h-17.04V86.52c0-.42-.43-.73-.97-.82v-26.88c0-.33-.27-.62-.68-.74l-60.25-18.02c-.06-.02-.12.02-.17.01-.09-.02-.14-.07-.24-.07L81.48,26.39c-.09,0-38.89,5.79-38.98,5.8,0,0,.05-.02,0,0l-21.19,25.88c-.41.12-.68.41-.68.74v27.31c0,.06.09.09.1.15-.06.13-.12.26-.08.4.07.27.35.45.69.55v128.47H1.21c-.67,0-1.21.4-1.21.89v69.76c0,.49.54.89,1.21.89h8.94v243.22c0,.49.54.89,1.21.89h9.98v17.81c0,46.96,51.98,85.16,115.88,85.16h159.18c63.91,0,115.9-38.2,115.9-85.16v-17.81h7.94c.67,0,1.21-.4,1.21-.89v-243.22h7.89c.67,0,1.21-.4,1.21-.89v-69.76c0-.49-.54-.89-1.21-.89Z"/>
          <path class="cls-71" d="m430.68,215.44h-17.04V86.27c0-.42-.43-.73-.97-.82v-26.88c0-.33-.27-.62-.68-.74l-60.25-18.02c-.06-.02-.12.02-.17.01-.09-.02-.14-.07-.24-.07L82.81,26.15c-.09,0-38.22,5.69-38.31,5.71,0,0-.92.06-.97.08l-20.89,25.66c-.41.12-.68.41-.68.74v27.55c0,.06.1.09.11.15-.06.13-.12.26-.08.4.07.27.35.45.69.55v128.47H2.54c-.67,0-1.21.4-1.21.89v69.76c0,.49.54.89,1.21.89h8.94v243.22c0,.49.54.89,1.21.89h9.98v17.81c0,46.96,51.98,85.16,115.88,85.16h159.18c63.91,0,115.9-38.2,115.9-85.16v-17.81h7.94c.67,0,1.21-.4,1.21-.89v-243.22h7.89c.67,0,1.21-.4,1.21-.89v-69.76c0-.49-.54-.89-1.21-.89Z"/>
          <path class="cls-43" d="m432,215.19h-17.04V86.03c0-.42-.43-.73-.97-.82v-26.88c0-.33-.27-.62-.68-.74l-60.25-18.02c-.05-.02-.12.02-.17.01-.09-.02-.14-.07-.24-.07L84.14,25.9c-.09,0-37.55,5.59-37.64,5.61,0,0-1.9.14-1.94.16l-20.6,25.45c-.41.12-.68.41-.68.74l.02,27.78c0,.06.09.09.1.15-.06.13-.12.26-.08.4.07.27.35.45.69.55v128.47H3.87c-.67,0-1.21.4-1.21.89v69.76c0,.49.54.89,1.21.89h8.94v243.22c0,.49.54.89,1.21.89h9.98v17.81c0,46.96,51.98,85.16,115.88,85.16h159.18c63.91,0,115.9-38.2,115.9-85.16v-17.81h7.94c.67,0,1.21-.4,1.21-.89v-243.22h7.89c.67,0,1.21-.4,1.21-.89v-69.76c0-.49-.54-.89-1.21-.89Z"/>
          <path class="cls-73" d="m433.33,214.95h-17.04V85.78c0-.42-.43-.73-.97-.82v-26.88c0-.33-.27-.62-.68-.74l-60.25-18.02c-.05-.02-.12.02-.17.01-.09-.02-.15-.07-.24-.07L85.46,25.66c-.09,0-36.89,5.5-36.97,5.51,0,0-2.87.22-2.91.23l-20.3,25.24c-.41.12-.68.41-.68.74l.03,28.02c0,.06.09.09.1.15-.06.13-.12.26-.08.4.07.27.35.45.69.55v128.47H5.19c-.67,0-1.21.4-1.21.89v69.76c0,.49.54.89,1.21.89h8.94v243.22c0,.49.54.89,1.21.89h9.98v17.81c0,46.96,51.98,85.16,115.88,85.16h159.18c63.91,0,115.9-38.2,115.9-85.16v-17.81h7.94c.67,0,1.21-.4,1.21-.89v-243.22h7.89c.67,0,1.21-.4,1.21-.89v-69.76c0-.49-.54-.89-1.21-.89Z"/>
          <path class="cls-45" d="m434.66,214.7h-17.04V85.54c0-.42-.43-.73-.97-.82v-26.88c0-.33-.27-.62-.68-.74l-60.25-18.02c-.05-.02-.12.02-.17.01-.09-.02-.15-.07-.24-.07L86.79,25.41c-.09,0-36.22,5.4-36.31,5.41,0,0-3.84.29-3.89.31l-20.01,25.02c-.41.12-.68.41-.68.74l.03,28.25c0,.06.09.09.1.15-.06.13-.12.26-.08.4.07.27.35.45.69.55v128.47H6.52c-.67,0-1.21.4-1.21.89v69.76c0,.49.54.89,1.21.89h8.94v243.22c0,.49.54.89,1.21.89h9.98v17.81c0,46.96,51.98,85.16,115.88,85.16h159.18c63.91,0,115.9-38.2,115.9-85.16v-17.81h7.94c.67,0,1.21-.4,1.21-.89v-243.22h7.89c.67,0,1.21-.4,1.21-.89v-69.76c0-.49-.54-.89-1.21-.89Z"/>
          <path class="cls-13" d="m435.98,214.45h-17.04V85.29c0-.42-.43-.73-.97-.82v-26.88c0-.33-.27-.62-.68-.74l-60.25-18.02c-.05-.02-.12.02-.17.01-.09-.02-.15-.07-.24-.07L88.12,25.16c-.09,0-35.55,5.3-35.64,5.31,0,0-4.81.37-4.86.39l-19.71,24.81c-.41.12-.68.41-.68.74l.04,28.48c0,.06.09.09.1.15-.06.13-.12.26-.08.4.07.27.35.45.69.55v128.47H7.85c-.67,0-1.21.4-1.21.89v69.76c0,.49.54.89,1.21.89h8.94v243.22c0,.49.54.89,1.21.89h9.98v17.81c0,46.96,51.98,85.16,115.88,85.16h159.18c63.91,0,115.9-38.2,115.9-85.16v-17.81h7.94c.67,0,1.21-.4,1.21-.89v-243.22h7.89c.67,0,1.21-.4,1.21-.89v-69.76c0-.49-.54-.89-1.21-.89Z"/>
          <path class="cls-46" d="m437.31,214.21h-17.04V85.04c0-.42-.43-.73-.97-.82v-26.88c0-.33-.27-.62-.68-.74l-60.25-18.02c-.05-.02-.12.02-.17.01-.09-.02-.15-.07-.24-.07L89.44,24.92c-.09,0-34.88,5.2-34.97,5.21,0,0-5.78.45-5.83.47l-19.42,24.6c-.41.12-.68.41-.68.74l.05,28.72c0,.06.09.09.1.15-.06.13-.12.26-.08.4.07.27.35.45.69.55v128.47H9.17c-.67,0-1.21.4-1.21.89v69.76c0,.49.54.89,1.21.89h8.94v243.22c0,.49.54.89,1.21.89h9.98v17.81c0,46.96,51.98,85.16,115.88,85.16h159.18c63.91,0,115.9-38.2,115.9-85.16v-17.81h7.94c.67,0,1.21-.4,1.21-.89v-243.22h7.89c.67,0,1.21-.4,1.21-.89v-69.76c0-.49-.54-.89-1.21-.89Z"/>
          <path class="cls-64" d="m438.64,213.96h-17.04V84.8c0-.42-.43-.73-.97-.82v-26.88c0-.33-.27-.62-.68-.74l-60.25-18.02c-.05-.02-.12.02-.17.01-.09-.02-.15-.07-.24-.07L90.77,24.67c-.09,0-34.21,5.1-34.3,5.11,0,0-6.75.53-6.8.54l-19.12,24.38c-.41.12-.68.41-.68.74l.06,28.95c0,.06.09.09.1.15-.06.13-.12.26-.08.4.07.27.35.45.69.54v128.47H10.5c-.67,0-1.21.4-1.21.89v69.76c0,.49.54.89,1.21.89h8.94v243.22c0,.49.54.89,1.21.89h9.98v17.81c0,46.96,51.98,85.16,115.88,85.16h159.18c63.91,0,115.9-38.2,115.9-85.16v-17.81h7.94c.67,0,1.21-.4,1.21-.89v-243.22h7.89c.67,0,1.21-.4,1.21-.89v-69.76c0-.49-.54-.89-1.21-.89Z"/>
          <path class="cls-55" d="m439.96,213.71h-17.04V84.55c0-.42-.43-.73-.97-.82v-26.88c0-.33-.27-.62-.68-.74l-60.25-18.02c-.05-.02-.12.02-.16.01-.09-.02-.15-.07-.24-.07L92.1,24.42c-.09,0-33.55,5-33.63,5.01,0,0-7.73.6-7.77.62l-18.83,24.17c-.41.12-.68.41-.68.74l.07,29.19c0,.06.09.09.1.15-.06.13-.12.26-.08.4.07.27.35.45.69.54v128.47H11.83c-.67,0-1.21.4-1.21.89v69.76c0,.49.54.89,1.21.89h8.94v243.22c0,.49.54.89,1.21.89h9.98v17.81c0,46.96,51.98,85.16,115.88,85.16h159.18c63.91,0,115.9-38.2,115.9-85.16v-17.81h7.94c.67,0,1.21-.4,1.21-.89v-243.22h7.89c.67,0,1.21-.4,1.21-.89v-69.76c0-.49-.54-.89-1.21-.89Z"/>
          <path class="cls-23" d="m441.29,213.47h-17.04V84.3c0-.42-.43-.73-.97-.82v-26.88c0-.33-.27-.62-.68-.74l-60.25-18.02c-.05-.02-.12.02-.16.01-.09-.02-.15-.07-.24-.07L93.42,24.18c-.09,0-32.88,4.9-32.97,4.92,0,0-8.7.68-8.74.7l-18.53,23.96c-.41.12-.68.41-.68.74l.08,29.42c0,.06.09.09.1.15-.06.13-.12.26-.08.4.07.27.35.45.69.54v128.47H13.15c-.67,0-1.21.4-1.21.89v69.76c0,.49.54.89,1.21.89h8.94v243.22c0,.49.54.89,1.21.89h9.98v17.81c0,46.96,51.98,85.16,115.88,85.16h159.18c63.91,0,115.9-38.2,115.9-85.16v-17.81h7.94c.67,0,1.21-.4,1.21-.89v-243.22h7.89c.67,0,1.21-.4,1.21-.89v-69.76c0-.49-.54-.89-1.21-.89Z"/>
          <path class="cls-25" d="m442.62,213.22h-17.04V84.06c0-.42-.43-.73-.97-.82v-26.88c0-.33-.27-.62-.68-.74l-60.25-18.02c-.05-.02-.12.02-.16.01-.1-.02-.15-.07-.25-.07L94.75,23.93c-.09,0-32.21,4.8-32.3,4.82,0,0-9.67.76-9.72.78l-18.24,23.74c-.41.12-.68.41-.68.74l.09,29.66c0,.06.09.09.1.15-.06.13-.12.26-.08.4.07.27.35.45.69.54v128.47H14.48c-.67,0-1.21.4-1.21.89v69.76c0,.49.54.89,1.21.89h8.94v243.22c0,.49.54.89,1.21.89h9.98v17.81c0,46.96,51.98,85.16,115.88,85.16h159.18c63.91,0,115.9-38.2,115.9-85.16v-17.81h7.94c.67,0,1.21-.4,1.21-.89v-243.22h7.89c.67,0,1.21-.4,1.21-.89v-69.76c0-.49-.54-.89-1.21-.89Z"/>
          <path class="cls-4" d="m443.94,212.97h-17.04V83.81c0-.42-.43-.73-.97-.82v-26.88c0-.33-.27-.62-.68-.74l-60.25-18.02c-.05-.02-.12.02-.16.01-.1-.02-.15-.07-.25-.07L96.08,23.68c-.09,0-31.54,4.7-31.63,4.72-.01,0-10.64.84-10.69.85l-17.94,23.53c-.41.12-.68.41-.68.74l.09,29.89c0,.06.09.09.1.15-.06.13-.12.26-.08.4.07.27.35.45.69.54v128.47H15.8c-.67,0-1.21.4-1.21.9v69.76c0,.49.54.9,1.21.9h8.94v243.22c0,.49.54.9,1.21.9h9.98v17.81c0,46.96,51.98,85.16,115.88,85.16h159.18c63.91,0,115.9-38.2,115.9-85.16v-17.81h7.94c.67,0,1.21-.4,1.21-.9v-243.22h7.89c.67,0,1.21-.4,1.21-.9v-69.76c0-.49-.54-.9-1.21-.9Z"/>
          <path class="cls-61" d="m445.27,212.73h-17.04V83.56c0-.42-.43-.73-.97-.82v-26.88c0-.33-.27-.62-.68-.74l-60.25-18.02c-.05-.02-.12.02-.16.01-.1-.02-.15-.07-.25-.07L97.4,23.44c-.09,0-30.87,4.61-30.96,4.62-.01,0-11.61.91-11.66.93l-17.65,23.32c-.41.12-.68.41-.68.74l.1,30.13c0,.06.09.09.1.15-.06.13-.12.26-.08.4.07.27.35.45.69.54v128.47h-20.14c-.67,0-1.21.4-1.21.9v69.76c0,.49.54.9,1.21.9h8.94v243.22c0,.49.54.9,1.21.9h9.98v17.81c0,46.96,51.98,85.16,115.88,85.16h159.18c63.91,0,115.9-38.2,115.9-85.16v-17.81h7.94c.67,0,1.21-.4,1.21-.9v-243.22h7.89c.67,0,1.21-.4,1.21-.9v-69.76c0-.49-.54-.9-1.21-.9Z"/>
          <path class="cls-70" d="m446.6,212.48h-17.04V83.32c0-.42-.43-.73-.97-.82v-26.88c0-.33-.27-.62-.68-.74l-60.25-18.02c-.05-.02-.12.02-.16.01-.1-.02-.16-.07-.25-.07L98.73,23.19c-.09,0-30.21,4.51-30.29,4.52-.01,0-12.58.99-12.63,1.01l-17.35,23.1c-.41.12-.68.41-.68.74l.11,30.36c0,.06.09.09.1.15-.06.13-.12.26-.08.4.07.27.35.45.69.54v128.47h-20.14c-.67,0-1.21.4-1.21.9v69.76c0,.49.54.9,1.21.9h8.94v243.22c0,.49.54.9,1.21.9h9.98v17.81c0,46.96,51.98,85.16,115.88,85.16h159.18c63.91,0,115.9-38.2,115.9-85.16v-17.81h7.94c.67,0,1.21-.4,1.21-.9v-243.22h7.89c.67,0,1.21-.4,1.21-.9v-69.76c0-.49-.54-.9-1.21-.9Z"/>
          <path class="cls-58" d="m447.92,212.23h-17.04V83.07c0-.42-.43-.73-.97-.82v-26.88c0-.33-.27-.62-.68-.74l-60.25-18.02c-.05-.02-.12.02-.16.01-.1-.02-.16-.07-.25-.07L100.06,22.94c-.09,0-29.54,4.41-29.63,4.42-.01,0-13.55,1.07-13.6,1.09l-17.06,22.89c-.41.12-.68.41-.68.74l.12,30.6c0,.06.09.09.1.15-.06.13-.12.26-.08.4.07.27.35.45.69.54v128.47h-20.14c-.67,0-1.21.4-1.21.9v69.76c0,.49.54.9,1.21.9h8.94v243.22c0,.49.54.9,1.21.9h9.98v17.81c0,46.96,51.98,85.16,115.88,85.16h159.18c63.91,0,115.9-38.2,115.9-85.16v-17.81h7.94c.67,0,1.21-.4,1.21-.9v-243.22h7.89c.67,0,1.21-.4,1.21-.9v-69.76c0-.49-.54-.9-1.21-.9Z"/>
          <path class="cls-3" d="m449.25,211.99h-17.04V82.82c0-.42-.43-.73-.97-.82v-26.88c0-.33-.27-.62-.68-.74l-60.25-18.02c-.05-.02-.12.02-.16.01-.1-.02-.16-.07-.25-.07L101.38,22.7c-.09,0-28.87,4.31-28.96,4.32-.01,0-14.53,1.15-14.57,1.16l-16.76,22.68c-.41.12-.68.41-.68.74l.13,30.83c0,.06.09.09.1.15-.06.13-.12.26-.08.4.07.27.35.45.69.54v128.47h-20.14c-.67,0-1.21.4-1.21.9v69.76c0,.49.54.9,1.21.9h8.94v243.22c0,.49.54.9,1.21.9h9.98v17.81c0,46.96,51.98,85.16,115.88,85.16h159.18c63.91,0,115.9-38.2,115.9-85.16v-17.81h7.94c.67,0,1.21-.4,1.21-.9v-243.22h7.89c.67,0,1.21-.4,1.21-.9v-69.76c0-.49-.54-.9-1.21-.9Z"/>
          <path class="cls-56" d="m450.58,211.74h-17.04V82.58c0-.42-.43-.73-.97-.82v-26.88c0-.33-.27-.62-.68-.74l-60.25-18.02c-.05-.02-.12.02-.16.01-.1-.02-.16-.07-.25-.07L102.71,22.45c-.09,0-28.2,4.21-28.29,4.22-.02,0-15.5,1.23-15.54,1.24l-16.47,22.46c-.41.12-.68.41-.68.74l.14,31.07c0,.06.09.09.1.15-.06.13-.12.26-.08.4.07.27.35.45.69.54v128.47h-20.14c-.67,0-1.21.4-1.21.9v69.76c0,.5.54.9,1.21.9h8.94v243.22c0,.49.54.9,1.21.9h9.98v17.81c0,46.96,51.98,85.16,115.88,85.16h159.18c63.91,0,115.9-38.2,115.9-85.16v-17.81h7.94c.67,0,1.21-.4,1.21-.9v-243.22h7.89c.67,0,1.21-.4,1.21-.9v-69.76c0-.5-.54-.9-1.21-.9Z"/>
          <path class="cls-67" d="m451.9,211.5h-17.04V82.33c0-.42-.43-.73-.97-.82v-26.88c0-.33-.27-.62-.68-.74l-60.25-18.02c-.05-.02-.12.02-.15.02-.1-.02-.16-.07-.25-.07L104.03,22.21c-.09,0-27.54,4.11-27.62,4.13-.02,0-16.47,1.3-16.52,1.32l-16.17,22.25c-.41.12-.68.41-.68.74l.15,31.3c0,.06.09.09.1.15-.06.13-.12.26-.08.4.07.27.35.45.69.54v128.47h-20.14c-.67,0-1.21.4-1.21.9v69.76c0,.5.54.9,1.21.9h8.94v243.22c0,.49.54.9,1.21.9h9.98v17.81c0,46.96,51.98,85.16,115.88,85.16h159.18c63.91,0,115.9-38.2,115.9-85.16v-17.81h7.94c.67,0,1.21-.4,1.21-.9v-243.22h7.89c.67,0,1.21-.4,1.21-.9v-69.76c0-.5-.54-.9-1.21-.9Z"/>
          <path class="cls-74" d="m453.23,211.25h-17.04V82.09c0-.42-.43-.73-.97-.82v-26.88c0-.33-.27-.62-.68-.74l-60.25-18.02c-.05-.02-.12.02-.15.02-.1-.02-.16-.07-.25-.07L105.36,21.96c-.09,0-26.87,4.01-26.95,4.03-.02,0-17.44,1.38-17.49,1.4l-15.88,22.04c-.41.12-.68.41-.68.74l.15,31.53c0,.06.09.09.1.15-.06.13-.12.26-.08.4.07.27.35.45.69.54v128.47h-20.14c-.67,0-1.21.4-1.21.9v69.76c0,.5.54.9,1.21.9h8.94v243.21c0,.49.54.9,1.21.9h9.98v17.81c0,46.96,51.98,85.16,115.88,85.16h159.18c63.91,0,115.9-38.2,115.9-85.16v-17.81h7.94c.67,0,1.21-.4,1.21-.9v-243.21h7.89c.67,0,1.21-.4,1.21-.9v-69.76c0-.5-.54-.9-1.21-.9Z"/>
          <path class="cls-69" d="m454.56,211h-17.04V81.84c0-.42-.43-.73-.97-.82v-26.88c0-.33-.27-.62-.68-.74l-60.25-18.02c-.05-.02-.12.02-.15.02-.1-.02-.16-.07-.25-.07L106.69,21.71c-.09,0-26.2,3.91-26.29,3.93-.02,0-18.41,1.46-18.46,1.48l-15.58,21.82c-.41.12-.68.41-.68.74l.16,31.77c0,.06.09.09.1.15-.06.13-.12.26-.08.4.07.27.35.45.69.54v128.47h-20.14c-.67,0-1.21.4-1.21.9v69.76c0,.5.54.9,1.21.9h8.94v243.21c0,.49.54.9,1.21.9h9.98v17.81c0,46.96,51.98,85.16,115.88,85.16h159.18c63.91,0,115.9-38.2,115.9-85.16v-17.81h7.94c.67,0,1.21-.4,1.21-.9v-243.21h7.89c.67,0,1.21-.4,1.21-.9v-69.76c0-.5-.54-.9-1.21-.9Z"/>
          <path class="cls-50" d="m455.88,210.76h-17.04V81.59c0-.42-.43-.73-.97-.82v-26.88c0-.33-.27-.62-.68-.74l-60.25-18.02c-.05-.02-.12.02-.15.02-.1-.02-.16-.07-.26-.07L108.01,21.47c-.09,0-25.53,3.82-25.62,3.83-.02,0-19.38,1.54-19.43,1.55l-15.29,21.61c-.41.12-.68.41-.68.74l.17,32c0,.06.09.09.1.15-.06.13-.12.26-.08.4.07.27.35.44.69.54v128.47h-20.14c-.67,0-1.21.4-1.21.9v69.76c0,.5.54.9,1.21.9h8.94v243.21c0,.49.54.9,1.21.9h9.98v17.81c0,46.96,51.98,85.16,115.88,85.16h159.18c63.91,0,115.9-38.2,115.9-85.16v-17.81h7.94c.67,0,1.21-.4,1.21-.9v-243.21h7.89c.67,0,1.21-.4,1.21-.9v-69.76c0-.5-.54-.9-1.21-.9Z"/>
          <path class="cls-41" d="m457.21,210.51h-17.04V81.35c0-.42-.43-.73-.97-.82v-26.88c0-.33-.27-.62-.68-.74l-60.25-18.02c-.05-.02-.12.02-.15.02-.11-.02-.16-.07-.26-.07L109.34,21.22c-.09,0-24.86,3.72-24.95,3.73-.02,0-20.36,1.61-20.4,1.63l-14.99,21.39c-.41.12-.68.41-.68.74l.18,32.24c0,.06.09.09.1.15-.06.13-.12.26-.08.4.07.27.35.44.69.54v128.47h-20.14c-.67,0-1.21.4-1.21.9v69.76c0,.5.54.9,1.21.9h8.94v243.21c0,.49.54.9,1.21.9h9.98v17.81c0,46.96,51.98,85.16,115.88,85.16h159.18c63.91,0,115.9-38.2,115.9-85.16v-17.81h7.94c.67,0,1.21-.4,1.21-.9v-243.21h7.89c.67,0,1.21-.4,1.21-.9v-69.76c0-.5-.54-.9-1.21-.9Z"/>
          <path class="cls-2" d="m458.53,210.26h-17.04V81.1c0-.42-.43-.73-.97-.82v-26.88c0-.33-.27-.62-.68-.74l-60.25-18.02c-.05-.02-.12.02-.15.02-.11-.02-.17-.07-.26-.07L110.67,20.97c-.09,0-24.2,3.62-24.28,3.63-.02,0-21.33,1.69-21.37,1.71l-14.7,21.18c-.41.12-.68.41-.68.74l.19,32.47c0,.06.09.09.1.15-.06.13-.12.26-.08.4.07.27.35.44.69.54v128.47h-20.14c-.67,0-1.21.4-1.21.9v69.76c0,.5.54.9,1.21.9h8.94v243.21c0,.49.54.9,1.21.9h9.98v17.81c0,46.96,51.98,85.16,115.88,85.16h159.18c63.91,0,115.9-38.2,115.9-85.16v-17.81h7.94c.67,0,1.21-.4,1.21-.9v-243.21h7.89c.67,0,1.21-.4,1.21-.9v-69.76c0-.5-.54-.9-1.21-.9Z"/>
          <path class="cls-53" d="m459.86,210.02h-17.04V80.85c0-.42-.43-.73-.97-.82v-26.88c0-.33-.27-.62-.68-.74l-60.25-18.02c-.05-.02-.11.02-.15.02-.11-.02-.17-.07-.26-.07L111.99,20.73c-.09,0-23.53,3.52-23.61,3.53-.02,0-22.3,1.77-22.35,1.79l-14.4,20.97c-.41.12-.68.41-.68.74l.2,32.71c0,.06.09.09.1.15-.06.13-.12.26-.08.4.07.27.35.44.69.54v128.47h-20.14c-.67,0-1.21.4-1.21.9v69.76c0,.5.54.9,1.21.9h8.94v243.21c0,.49.54.9,1.21.9h9.98v17.81c0,46.96,51.98,85.16,115.88,85.16h159.18c63.91,0,115.9-38.2,115.9-85.16v-17.81h7.94c.67,0,1.21-.4,1.21-.9v-243.21h7.89c.67,0,1.21-.4,1.21-.9v-69.76c0-.5-.54-.9-1.21-.9Z"/>
          <path class="cls-38" d="m461.19,209.77h-17.04V80.61c0-.42-.43-.73-.97-.82v-26.88c0-.33-.27-.62-.68-.74l-60.25-18.02c-.05-.02-.11.02-.15.02-.11-.02-.17-.07-.26-.07L113.32,20.48c-.09,0-22.86,3.42-22.95,3.43-.02,0-23.27,1.85-23.32,1.86l-14.11,20.75c-.41.12-.68.41-.68.74l.21,32.94c0,.06.09.09.1.15-.06.13-.12.26-.08.4.07.27.35.44.69.54v128.47h-20.14c-.67,0-1.21.4-1.21.9v69.76c0,.5.54.9,1.21.9h8.94v243.21c0,.49.54.9,1.21.9h9.98v17.81c0,46.96,51.98,85.16,115.88,85.16h159.18c63.91,0,115.9-38.2,115.9-85.16v-17.81h7.94c.67,0,1.21-.4,1.21-.9v-243.21h7.89c.67,0,1.21-.4,1.21-.9v-69.76c0-.5-.54-.9-1.21-.9Z"/>
          <path class="cls-37" d="m462.51,209.52h-17.04V80.36c0-.42-.43-.73-.97-.82v-26.88c0-.33-.27-.62-.68-.74l-60.25-18.02c-.05-.02-.11.02-.15.02-.11-.02-.17-.07-.26-.07L114.65,20.23c-.09,0-22.19,3.32-22.28,3.34-.02,0-24.24,1.92-24.29,1.94l-13.81,20.54c-.41.12-.68.41-.68.74l.21,33.18c0,.06.09.09.1.15-.06.13-.12.26-.08.4.07.27.35.44.69.54v128.47h-20.14c-.67,0-1.21.4-1.21.9v69.76c0,.5.54.9,1.21.9h8.94v243.21c0,.49.54.9,1.21.9h9.98v17.81c0,46.96,51.98,85.16,115.88,85.16h159.18c63.91,0,115.9-38.2,115.9-85.16v-17.81h7.94c.67,0,1.21-.4,1.21-.9v-243.21h7.89c.67,0,1.21-.4,1.21-.9v-69.76c0-.5-.54-.9-1.21-.9Z"/>
          <path class="cls-47" d="m463.84,209.28h-17.04V80.11c0-.42-.43-.73-.97-.82v-26.88c0-.33-.27-.62-.68-.74l-60.25-18.02c-.05-.02-.11.02-.15.02-.11-.02-.17-.07-.26-.07L115.97,19.99c-.09,0-21.52,3.22-21.61,3.24-.02,0-25.21,2-25.26,2.02l-13.51,20.33c-.41.12-.68.41-.68.74l.22,33.41c0,.06.09.09.1.15-.06.13-.12.26-.08.4.07.27.35.44.69.54v128.47h-20.14c-.67,0-1.21.4-1.21.9v69.76c0,.5.54.9,1.21.9h8.94v243.21c0,.49.54.9,1.21.9h9.98v17.81c0,46.96,51.98,85.16,115.88,85.16h159.18c63.91,0,115.9-38.2,115.9-85.16v-17.81h7.94c.67,0,1.21-.4,1.21-.9v-243.21h7.89c.67,0,1.21-.4,1.21-.9v-69.76c0-.5-.54-.9-1.21-.9Z"/>
          <path class="cls-44" d="m465.17,209.03h-17.04V79.87c0-.42-.43-.73-.97-.82v-26.88c0-.33-.27-.62-.68-.74l-60.25-18.02c-.05-.02-.11.02-.14.02-.11-.02-.17-.08-.26-.08L117.3,19.74c-.09,0-20.86,3.12-20.94,3.14-.03,0-26.18,2.08-26.23,2.1l-13.22,20.11c-.41.12-.68.41-.68.74l.23,33.65c0,.06.09.09.1.15-.06.13-.12.26-.08.4.07.27.35.44.69.54v128.47h-20.14c-.67,0-1.21.4-1.21.9v69.76c0,.5.54.9,1.21.9h8.94v243.21c0,.49.54.9,1.21.9h9.98v17.81c0,46.96,51.98,85.16,115.88,85.16h159.18c63.91,0,115.9-38.2,115.9-85.16v-17.81h7.94c.67,0,1.21-.4,1.21-.9v-243.21h7.89c.67,0,1.21-.4,1.21-.9v-69.76c0-.5-.54-.9-1.21-.9Z"/>
          <path class="cls-72" d="m466.49,208.79h-17.04V79.62c0-.42-.43-.73-.97-.82v-26.88c0-.33-.27-.62-.68-.74l-60.25-18.02c-.05-.02-.11.02-.14.02-.11-.02-.17-.08-.26-.08L118.63,19.5c-.09,0-20.19,3.03-20.28,3.04-.03,0-27.16,2.16-27.2,2.17l-12.92,19.9c-.41.12-.68.41-.68.74l.24,33.88c0,.06.09.09.1.15-.06.13-.12.26-.08.4.07.27.35.44.69.54v128.47h-20.14c-.67,0-1.21.4-1.21.9v69.76c0,.5.54.9,1.21.9h8.94v243.21c0,.49.54.9,1.21.9h9.98v17.81c0,46.96,51.98,85.16,115.88,85.16h159.18c63.91,0,115.9-38.2,115.9-85.16v-17.81h7.94c.67,0,1.21-.4,1.21-.9v-243.21h7.89c.67,0,1.21-.4,1.21-.9v-69.76c0-.5-.54-.9-1.21-.9Z"/>
          <path class="cls-24" d="m467.82,208.54h-17.04V79.38c0-.42-.43-.73-.97-.82v-26.88c0-.33-.27-.62-.68-.74l-60.25-18.02c-.05-.02-.11.02-.14.02-.11-.02-.17-.08-.26-.08L119.95,19.25c-.09,0-19.52,2.93-19.61,2.94-.03,0-28.13,2.23-28.17,2.25l-12.63,19.69c-.41.12-.68.42-.68.74l.25,34.12c0,.06.09.09.1.15-.06.13-.12.26-.08.4.07.27.35.44.69.54v128.47h-20.14c-.67,0-1.21.4-1.21.9v69.76c0,.5.54.9,1.21.9h8.94v243.21c0,.49.54.9,1.21.9h9.98v17.81c0,46.96,51.98,85.16,115.88,85.16h159.18c63.91,0,115.9-38.2,115.9-85.16v-17.81h7.94c.67,0,1.21-.4,1.21-.9v-243.21h7.89c.67,0,1.21-.4,1.21-.9v-69.76c0-.5-.54-.9-1.21-.9Z"/>
          <path class="cls-24" d="m469.15,208.29h-17.04V79.13c0-.42-.43-.73-.97-.82v-26.88c0-.33-.27-.62-.68-.74l-60.25-18.02c-.05-.02-.11.02-.14.02-.11-.02-.17-.08-.26-.08L121.28,19c-.09,0-18.85,2.83-18.94,2.84-.03,0-29.1,2.31-29.15,2.33l-12.33,19.47c-.41.12-.68.42-.68.74l.26,34.35c0,.06.09.09.1.15-.06.13-.12.26-.08.4.07.27.35.44.69.54v128.47h-20.14c-.67,0-1.21.4-1.21.9v69.76c0,.5.54.9,1.21.9h8.94v243.21c0,.49.54.9,1.21.9h9.98v17.81c0,46.96,51.98,85.16,115.88,85.16h159.18c63.91,0,115.9-38.2,115.9-85.16v-17.81h7.94c.67,0,1.21-.4,1.21-.9v-243.21h7.89c.67,0,1.21-.4,1.21-.9v-69.76c0-.5-.54-.9-1.21-.9Z"/>
          <path class="cls-36" d="m470.47,208.05h-17.04V78.88c0-.42-.43-.73-.97-.82v-26.88c0-.33-.27-.62-.68-.74l-60.25-18.02c-.05-.02-.11.02-.14.02-.12-.02-.18-.08-.27-.08L122.61,18.76c-.09,0-18.18,2.73-18.27,2.74-.03,0-30.07,2.39-30.12,2.41l-12.04,19.26c-.41.12-.68.42-.68.74l.26,34.58c0,.06.09.09.1.15-.06.13-.12.26-.08.4.07.27.35.44.69.54v128.47h-20.14c-.67,0-1.21.4-1.21.9v69.76c0,.5.54.9,1.21.9h8.94v243.21c0,.49.54.9,1.21.9h9.98v17.81c0,46.96,51.98,85.16,115.88,85.16h159.18c63.91,0,115.9-38.2,115.9-85.16v-17.81h7.94c.67,0,1.21-.4,1.21-.9v-243.21h7.89c.67,0,1.21-.4,1.21-.9v-69.76c0-.5-.54-.9-1.21-.9Z"/>
          <path class="cls-30" d="m471.8,207.8h-17.04V78.64c0-.42-.43-.73-.97-.82v-26.88c0-.33-.27-.62-.68-.74l-60.25-18.02c-.05-.02-.11.02-.14.02-.12-.02-.18-.08-.27-.08L123.93,18.51c-.09,0-17.52,2.63-17.6,2.64-.03,0-31.04,2.47-31.09,2.49l-11.74,19.05c-.41.12-.68.42-.68.74l.27,34.82c0,.06.09.09.1.15-.06.13-.12.26-.08.4.07.27.35.44.69.54v128.47h-20.14c-.67,0-1.21.4-1.21.9v69.76c0,.5.54.9,1.21.9h8.94v243.21c0,.49.54.9,1.21.9h9.98v17.81c0,46.96,51.98,85.16,115.88,85.16h159.18c63.91,0,115.9-38.2,115.9-85.16v-17.81h7.94c.67,0,1.21-.4,1.21-.9v-243.21h7.89c.67,0,1.21-.4,1.21-.9v-69.76c0-.5-.54-.9-1.21-.9Z"/>
          <path class="cls-75" d="m473.13,207.55h-17.04V78.39c0-.42-.43-.73-.97-.82v-26.88c0-.33-.27-.62-.68-.74l-60.25-18.02c-.05-.02-.11.02-.14.02-.12-.02-.18-.08-.27-.08L125.26,18.26c-.09,0-16.85,2.53-16.94,2.55-.03,0-32.01,2.55-32.06,2.56l-11.45,18.83c-.41.12-.68.42-.68.74l.28,35.05c0,.06.09.09.1.15-.06.13-.12.26-.08.4.07.27.35.44.69.54v128.47h-20.14c-.67,0-1.21.4-1.21.9v69.76c0,.5.54.9,1.21.9h8.94v243.21c0,.49.54.9,1.21.9h9.98v17.81c0,46.96,51.98,85.16,115.88,85.16h159.18c63.91,0,115.9-38.2,115.9-85.16v-17.81h7.94c.67,0,1.21-.4,1.21-.9v-243.21h7.89c.67,0,1.21-.4,1.21-.9v-69.76c0-.5-.54-.9-1.21-.9Z"/>
          <path class="cls-32" d="m474.45,207.31h-17.04V78.14c0-.42-.43-.73-.97-.82v-26.88c0-.33-.27-.62-.68-.74l-60.25-18.02c-.05-.02-.11.02-.14.02-.12-.02-.18-.08-.27-.08L126.58,18.02c-.09,0-16.18,2.43-16.27,2.45-.03,0-32.99,2.62-33.03,2.64l-11.15,18.62c-.41.12-.68.42-.68.74l.29,35.29c0,.06.09.09.1.15-.06.13-.12.26-.08.4.07.27.35.44.69.54v128.47h-20.14c-.67,0-1.21.4-1.21.9v69.76c0,.5.54.9,1.21.9h8.94v243.21c0,.49.54.9,1.21.9h9.98v17.81c0,46.96,51.98,85.16,115.88,85.16h159.18c63.91,0,115.9-38.2,115.9-85.16v-17.81h7.94c.67,0,1.21-.4,1.21-.9v-243.21h7.89c.67,0,1.21-.4,1.21-.9v-69.76c0-.5-.54-.9-1.21-.9Z"/>
          <path class="cls-1" d="m475.78,207.06h-17.04V77.9c0-.42-.43-.73-.97-.82v-26.88c0-.33-.27-.62-.68-.74l-60.25-18.02c-.05-.02-.11.02-.14.02-.12-.02-.18-.08-.27-.08L127.91,17.77c-.09,0-15.51,2.33-15.6,2.35-.03,0-33.96,2.7-34,2.72l-10.86,18.41c-.41.12-.68.42-.68.74l.3,35.52c0,.06.09.09.1.15-.06.13-.12.26-.08.4.07.27.35.44.69.54v128.47h-20.14c-.67,0-1.21.4-1.21.9v69.76c0,.5.54.9,1.21.9h8.94v243.21c0,.49.54.9,1.21.9h9.98v17.81c0,46.96,51.98,85.16,115.88,85.16h159.18c63.91,0,115.9-38.2,115.9-85.16v-17.81h7.94c.67,0,1.21-.4,1.21-.9v-243.21h7.89c.67,0,1.21-.4,1.21-.9v-69.76c0-.5-.54-.9-1.21-.9Z"/>
          <path class="cls-52" d="m477.11,206.81h-17.04V77.65c0-.42-.43-.73-.97-.82v-26.88c0-.33-.27-.62-.68-.74l-60.26-18.02c-.05-.02-.11.02-.13.02-.12-.02-.18-.08-.27-.08l-268.52-13.61c-.09,0-14.84,2.24-14.93,2.25-.03,0-34.93,2.78-34.98,2.8l-10.56,18.19c-.41.12-.68.42-.68.74l.31,35.76c0,.06.09.09.1.15-.06.13-.12.26-.08.4.07.27.35.44.69.54v128.47h-20.14c-.67,0-1.21.4-1.21.9v69.76c0,.5.54.9,1.21.9h8.94v243.21c0,.49.54.9,1.21.9h9.98v17.81c0,46.96,51.98,85.16,115.88,85.16h159.18c63.91,0,115.9-38.2,115.9-85.16v-17.81h7.94c.67,0,1.21-.4,1.21-.9v-243.21h7.89c.67,0,1.21-.4,1.21-.9v-69.76c0-.5-.54-.9-1.21-.9Z"/>
          <path class="cls-14" d="m478.43,206.57h-17.04V77.4c0-.42-.43-.73-.97-.82v-26.88c0-.33-.27-.62-.68-.74l-60.26-18.02c-.05-.02-.11.02-.13.02-.12-.02-.18-.08-.27-.08l-268.52-13.61c-.09,0-14.18,2.14-14.26,2.15-.03,0-35.9,2.86-35.95,2.87l-10.27,17.98c-.41.12-.68.42-.68.74l.32,35.99c0,.06.09.09.1.15-.06.13-.12.26-.08.4.07.27.35.44.69.54v128.47h-20.14c-.67,0-1.21.4-1.21.9v69.76c0,.5.54.9,1.21.9h8.94v243.21c0,.49.54.9,1.21.9h9.98v17.81c0,46.96,51.98,85.16,115.88,85.16h159.18c63.91,0,115.9-38.2,115.9-85.16v-17.81h7.94c.67,0,1.21-.4,1.21-.9v-243.21h7.89c.67,0,1.21-.4,1.21-.9v-69.76c0-.5-.54-.9-1.21-.9Z"/>
          <path class="cls-40" d="m479.76,206.32h-17.04V77.16c0-.42-.43-.73-.97-.82v-26.88c0-.33-.27-.62-.68-.74l-60.26-18.02s-.11.02-.13.02c-.12-.02-.18-.08-.27-.08l-268.52-13.61c-.09,0-13.51,2.04-13.6,2.05-.04,0-36.87,2.93-36.92,2.95l-9.97,17.77c-.41.12-.68.42-.68.74l.32,36.23c0,.06.09.09.1.15-.06.13-.12.26-.08.4.07.27.35.44.69.54v128.47h-20.14c-.67,0-1.21.4-1.21.9v69.76c0,.5.54.9,1.21.9h8.94v243.21c0,.49.54.9,1.21.9h9.98v17.81c0,46.96,51.98,85.16,115.88,85.16h159.18c63.91,0,115.9-38.2,115.9-85.16v-17.81h7.94c.67,0,1.21-.4,1.21-.9v-243.21h7.89c.67,0,1.21-.4,1.21-.9v-69.76c0-.5-.54-.9-1.21-.9Z"/>
          <path class="cls-62" d="m481.09,206.07h-17.04V76.91c0-.42-.43-.73-.97-.82v-26.88c0-.33-.27-.62-.68-.74l-60.26-18.02s-.11.02-.13.02c-.12-.02-.18-.08-.27-.08l-268.52-13.61c-.09,0-12.84,1.94-12.93,1.95-.04,0-37.84,3.01-37.89,3.03l-9.68,17.55c-.41.12-.68.42-.68.74l.33,36.46c0,.06.09.09.1.15-.06.13-.12.26-.08.4.07.27.35.44.69.54v128.47h-20.14c-.67,0-1.21.4-1.21.9v69.76c0,.5.54.9,1.21.9h8.94v243.21c0,.49.54.9,1.21.9h9.98v17.81c0,46.96,51.98,85.16,115.88,85.16h159.18c63.91,0,115.9-38.2,115.9-85.16v-17.81h7.94c.67,0,1.21-.4,1.21-.9v-243.21h7.89c.67,0,1.21-.4,1.21-.9v-69.76c0-.5-.54-.9-1.21-.9Z"/>
          <path class="cls-22" d="m482.41,205.83h-17.04V76.66c0-.42-.43-.73-.97-.82v-26.88c0-.33-.27-.62-.68-.74l-60.26-18.02s-.11.02-.13.02c-.12-.02-.19-.08-.27-.08l-268.52-13.61c-.09,0-12.17,1.84-12.26,1.85-.04,0-38.81,3.09-38.86,3.11l-9.38,17.34c-.41.12-.68.42-.68.74l.34,36.7c0,.06.09.09.1.15-.06.13-.12.26-.08.4.07.27.35.44.69.54v128.47h-20.14c-.67,0-1.21.4-1.21.9v69.76c0,.5.54.9,1.21.9h8.94v243.21c0,.49.54.9,1.21.9h9.98v17.81c0,46.96,51.98,85.16,115.88,85.16h159.18c63.91,0,115.9-38.2,115.9-85.16v-17.81h7.94c.67,0,1.21-.4,1.21-.9v-243.21h7.89c.67,0,1.21-.4,1.21-.9v-69.76c0-.5-.54-.9-1.21-.9Z"/>
          <path class="cls-34" d="m483.74,205.58h-17.04V76.42c0-.42-.43-.73-.97-.82v-26.88c0-.33-.27-.62-.68-.74l-60.26-18.02s-.11.02-.13.02c-.12-.02-.19-.08-.28-.08l-268.52-13.61c-.09,0-11.5,1.74-11.59,1.75-.04,0-39.79,3.17-39.83,3.18l-9.09,17.13c-.41.12-.68.42-.68.74l.35,36.93c0,.06.09.09.1.15-.06.13-.12.26-.08.4.07.27.35.44.69.54v128.47h-20.14c-.67,0-1.21.4-1.21.9v69.76c0,.5.54.9,1.21.9h8.94v243.21c0,.49.54.9,1.21.9h9.98v17.81c0,46.96,51.98,85.16,115.88,85.16h159.18c63.91,0,115.9-38.2,115.9-85.16v-17.81h7.94c.67,0,1.21-.4,1.21-.9v-243.21h7.89c.67,0,1.21-.4,1.21-.9v-69.76c0-.5-.54-.9-1.21-.9Z"/>
          <path class="cls-28" d="m485.06,205.34h-17.04V76.17c0-.42-.43-.73-.97-.82v-26.88c0-.33-.27-.62-.68-.74l-60.26-18.02s-.11.02-.13.02c-.13-.02-.19-.08-.28-.08l-268.52-13.61c-.09,0-10.84,1.64-10.92,1.66-.04,0-40.76,3.24-40.8,3.26l-8.79,16.91c-.41.12-.68.42-.68.74l.36,37.16c0,.06.09.09.1.15-.06.13-.12.26-.08.4.07.27.35.44.69.54v128.47h-20.14c-.67,0-1.21.4-1.21.9v69.76c0,.5.54.9,1.21.9h8.94v243.21c0,.49.54.9,1.21.9h9.98v17.81c0,46.96,51.98,85.16,115.88,85.16h159.18c63.91,0,115.9-38.2,115.9-85.16v-17.81h7.94c.67,0,1.21-.4,1.21-.9v-243.21h7.89c.67,0,1.21-.4,1.21-.9v-69.76c0-.5-.54-.9-1.21-.9Z"/>
          <path class="cls-51" d="m486.39,205.09h-17.04V75.93c0-.42-.43-.73-.97-.82v-26.88c0-.33-.27-.62-.68-.74l-60.26-18.02s-.11.02-.13.02c-.13-.02-.19-.08-.28-.08L138.52,15.8c-.09,0-10.17,1.54-10.26,1.56-.04,0-41.73,3.32-41.78,3.34l-8.5,16.7c-.41.12-.68.42-.68.74l.37,37.4c0,.06.09.09.1.15-.06.13-.12.26-.08.4.07.27.35.44.69.54v128.47h-20.14c-.67,0-1.21.4-1.21.9v69.76c0,.5.54.9,1.21.9h8.94v243.21c0,.49.54.9,1.21.9h9.98v17.8c0,46.96,51.98,85.16,115.88,85.16h159.18c63.91,0,115.9-38.2,115.9-85.16v-17.8h7.94c.67,0,1.21-.4,1.21-.9v-243.21h7.89c.67,0,1.21-.4,1.21-.9v-69.76c0-.5-.54-.9-1.21-.9Z"/>
          <path class="cls-39" d="m487.72,204.84h-17.04V75.68c0-.42-.43-.73-.97-.82v-26.88c0-.33-.27-.62-.68-.74l-60.26-18.02s-.11.02-.13.02c-.13-.02-.19-.08-.28-.08L139.85,15.55c-.09,0-9.5,1.45-9.59,1.46-.04,0-42.7,3.4-42.75,3.42l-8.2,16.48c-.41.12-.68.42-.68.74l.38,37.63c0,.06.09.09.1.15-.06.13-.12.26-.08.4.07.27.35.44.69.54v128.47h-20.14c-.67,0-1.21.4-1.21.9v69.76c0,.5.54.9,1.21.9h8.94v243.21c0,.49.54.9,1.21.9h9.98v17.8c0,46.96,51.98,85.16,115.88,85.16h159.18c63.91,0,115.9-38.2,115.9-85.16v-17.8h7.94c.67,0,1.21-.4,1.21-.9v-243.21h7.89c.67,0,1.21-.4,1.21-.9v-69.76c0-.5-.54-.9-1.21-.9Z"/>
          <path class="cls-49" d="m489.04,204.6h-17.04V75.43c0-.42-.43-.73-.97-.82v-26.88c0-.33-.27-.62-.68-.74l-60.26-18.02s-.11.02-.12.02c-.13-.02-.19-.08-.28-.08L141.18,15.31c-.09,0-8.83,1.35-8.92,1.36-.04,0-43.67,3.48-43.72,3.49l-7.91,16.27c-.41.12-.68.42-.68.74l.38,37.87c0,.06.09.09.1.15-.06.13-.12.26-.08.4.07.27.35.44.69.54v128.47h-20.14c-.67,0-1.21.4-1.21.9v69.76c0,.5.54.9,1.21.9h8.94v243.21c0,.49.54.9,1.21.9h9.98v17.8c0,46.96,51.98,85.16,115.88,85.16h159.18c63.91,0,115.9-38.2,115.9-85.16v-17.8h7.94c.67,0,1.21-.41,1.21-.9v-243.21h7.89c.67,0,1.21-.4,1.21-.9v-69.76c0-.5-.54-.9-1.21-.9Z"/>
          <path class="cls-65" d="m490.37,204.35h-17.04V75.19c0-.42-.43-.73-.97-.82v-26.88c0-.33-.27-.62-.68-.74l-60.26-18.02s-.11.02-.12.02c-.13-.02-.19-.08-.28-.08L142.5,15.06c-.09,0-8.16,1.25-8.25,1.26-.04,0-44.64,3.56-44.69,3.57l-7.61,16.06c-.41.12-.68.42-.68.74l.39,38.1c0,.06.09.09.1.15-.06.13-.12.26-.08.4.07.27.35.44.69.54v128.47h-20.14c-.67,0-1.21.4-1.21.9v69.76c0,.5.54.9,1.21.9h8.94v243.21c0,.49.54.9,1.21.9h9.98v17.8c0,46.96,51.98,85.16,115.88,85.16h159.18c63.91,0,115.9-38.2,115.9-85.16v-17.8h7.94c.67,0,1.21-.41,1.21-.9v-243.21h7.89c.67,0,1.21-.4,1.21-.9v-69.76c0-.5-.54-.9-1.21-.9Z"/>
          <path class="cls-12" d="m491.7,204.1h-17.04V74.94c0-.42-.43-.73-.97-.82v-26.88c0-.33-.27-.62-.68-.74l-60.26-18.02s-.11.02-.12.02c-.13-.02-.19-.08-.28-.08L143.83,14.81c-.09,0-7.5,1.15-7.58,1.16-.04,0-45.62,3.63-45.66,3.65l-7.32,15.84c-.41.12-.68.42-.68.74l.4,38.34c0,.06.09.09.1.15-.06.13-.12.26-.08.4.07.27.35.44.69.54v128.47h-20.14c-.67,0-1.21.4-1.21.9v69.76c0,.5.54.9,1.21.9h8.94v243.21c0,.49.54.9,1.21.9h9.98v17.8c0,46.96,51.98,85.16,115.88,85.16h159.18c63.91,0,115.9-38.2,115.9-85.16v-17.8h7.94c.67,0,1.21-.41,1.21-.9v-243.21h7.89c.67,0,1.21-.4,1.21-.9v-69.76c0-.5-.54-.9-1.21-.9Z"/>
          <path class="cls-68" d="m493.02,203.86h-17.04V74.69c0-.42-.43-.73-.97-.82v-26.88c0-.33-.27-.62-.68-.74l-60.26-18.02s-.11.02-.12.02c-.13-.02-.19-.08-.28-.08L145.16,14.57c-.09,0-6.83,1.05-6.92,1.06-.05,0-46.59,3.71-46.63,3.73l-7.02,15.63c-.41.12-.68.42-.68.74l.41,38.57c0,.06.09.09.1.15-.06.13-.12.26-.08.4.07.27.35.44.69.54v128.47h-20.14c-.67,0-1.21.4-1.21.9v69.76c0,.5.54.9,1.21.9h8.94v243.21c0,.49.54.9,1.21.9h9.98v17.8c0,46.96,51.98,85.16,115.88,85.16h159.18c63.91,0,115.9-38.2,115.9-85.16v-17.8h7.94c.67,0,1.21-.41,1.21-.9v-243.21h7.89c.67,0,1.21-.4,1.21-.9v-69.76c0-.5-.54-.9-1.21-.9Z"/>
          <path class="cls-33" d="m494.35,203.61h-17.04V74.45c0-.42-.43-.73-.97-.82v-26.88c0-.33-.27-.62-.68-.74l-60.26-18.02s-.11.02-.12.02c-.13-.03-.2-.08-.28-.08L146.48,14.32c-.09,0-6.16.95-6.25.96-.05,0-47.56,3.79-47.61,3.81l-6.73,15.42c-.41.12-.68.42-.68.74l.42,38.81c0,.06.09.09.1.15-.06.13-.12.26-.08.4.07.27.35.44.69.54v128.47h-20.14c-.67,0-1.21.4-1.21.9v69.76c0,.5.54.9,1.21.9h8.94v243.21c0,.49.54.9,1.21.9h9.98v17.8c0,46.96,51.98,85.16,115.88,85.16h159.18c63.91,0,115.9-38.2,115.9-85.16v-17.8h7.94c.67,0,1.21-.41,1.21-.9v-243.21h7.89c.67,0,1.21-.4,1.21-.9v-69.76c0-.5-.54-.9-1.21-.9Z"/>
          <path class="cls-60" d="m495.68,203.36h-17.04V74.2c0-.42-.43-.73-.97-.82v-26.88c0-.33-.27-.62-.68-.74l-60.26-18.02s-.11.02-.12.02c-.13-.03-.2-.08-.28-.08L147.81,14.07c-.09,0-5.49.85-5.58.87-.05,0-48.53,3.87-48.58,3.88l-6.43,15.2c-.41.12-.68.42-.68.74l.43,39.04c0,.06.09.09.1.15-.06.13-.12.26-.08.4.07.27.35.44.69.54v128.47h-20.14c-.67,0-1.21.4-1.21.9v69.76c0,.5.54.9,1.21.9h8.94v243.21c0,.49.54.9,1.21.9h9.98v17.8c0,46.96,51.98,85.16,115.88,85.16h159.18c63.91,0,115.9-38.2,115.9-85.16v-17.8h7.94c.67,0,1.21-.41,1.21-.9v-243.21h7.89c.67,0,1.21-.4,1.21-.9v-69.76c0-.5-.54-.9-1.21-.9Z"/>
          <path class="cls-63" d="m497,203.12h-17.04V73.95c0-.42-.43-.73-.97-.82v-26.88c0-.33-.27-.62-.68-.74l-60.26-18.02s-.11.02-.12.02c-.13-.03-.2-.08-.28-.08L149.14,13.83c-.09,0-4.82.75-4.91.77-.05,0-49.5,3.94-49.55,3.96l-6.14,14.99c-.41.12-.68.42-.68.74l.44,39.28c0,.06.09.09.1.15-.06.13-.12.26-.08.4.07.27.35.44.69.54v128.47h-20.14c-.67,0-1.21.4-1.21.9v69.76c0,.5.54.9,1.21.9h8.94v243.21c0,.49.54.9,1.21.9h9.98v17.8c0,46.96,51.98,85.16,115.88,85.16h159.18c63.91,0,115.9-38.2,115.9-85.16v-17.8h7.94c.67,0,1.21-.41,1.21-.9v-243.21h7.89c.67,0,1.21-.4,1.21-.9v-69.76c0-.5-.54-.9-1.21-.9Z"/>
          <path class="cls-54" d="m498.33,202.87h-17.04V73.71c0-.42-.43-.73-.97-.82v-26.88c0-.33-.27-.62-.68-.74l-60.26-18.02s-.11.02-.12.02c-.14-.03-.2-.08-.29-.08L150.46,13.58c-.09,0-4.16.65-4.24.67-.05,0-50.47,4.02-50.52,4.04l-5.84,14.78c-.41.12-.68.42-.68.74l.44,39.51c0,.06.09.09.1.15-.06.13-.12.26-.08.4.07.27.35.44.69.54v128.47h-20.14c-.67,0-1.21.4-1.21.9v69.76c0,.5.54.9,1.21.9h8.94v243.21c0,.49.54.9,1.21.9h9.98v17.8c0,46.96,51.98,85.16,115.88,85.16h159.18c63.91,0,115.9-38.2,115.9-85.16v-17.8h7.94c.67,0,1.21-.41,1.21-.9v-243.21h7.89c.67,0,1.21-.4,1.21-.9v-69.76c0-.5-.54-.9-1.21-.9Z"/>
          <path class="cls-11" d="m499.66,202.62h-17.04V73.46c0-.42-.43-.73-.97-.82v-26.88c0-.33-.27-.62-.68-.74l-60.26-18.02s-.11.02-.12.02c-.14-.03-.2-.08-.29-.08L151.79,13.34c-.09,0-3.49.56-3.58.57-.05,0-51.44,4.1-51.49,4.12l-5.55,14.56c-.41.12-.68.42-.68.74l.45,39.75c0,.06.09.09.1.15-.06.13-.12.26-.08.4.07.27.35.44.69.54v128.47h-20.14c-.67,0-1.21.4-1.21.9v69.76c0,.5.54.9,1.21.9h8.94v243.21c0,.49.54.9,1.21.9h9.98v17.8c0,46.96,51.98,85.16,115.88,85.16h159.18c63.91,0,115.9-38.2,115.9-85.16v-17.8h7.94c.67,0,1.21-.41,1.21-.9v-243.21h7.89c.67,0,1.21-.4,1.21-.9v-69.76c0-.5-.54-.9-1.21-.9Z"/>
          <path class="cls-21" d="m500.98,202.38h-17.04V73.22c0-.42-.43-.73-.97-.82v-26.88c0-.33-.27-.62-.68-.74l-60.26-18.02s-.11.02-.11.02c-.14-.03-.2-.08-.29-.08L153.11,13.09c-.09,0-2.82.46-2.91.47-.05,0-52.42,4.18-52.46,4.19l-5.25,14.35c-.41.12-.68.42-.68.74l.46,39.98c0,.06.09.09.1.15-.06.13-.12.26-.08.4.07.27.35.44.69.54v128.47h-20.14c-.67,0-1.21.4-1.21.9v69.76c0,.5.54.9,1.21.9h8.94v243.21c0,.49.54.9,1.21.9h9.98v17.8c0,46.96,51.98,85.16,115.88,85.16h159.18c63.91,0,115.9-38.2,115.9-85.16v-17.8h7.94c.67,0,1.21-.41,1.21-.9v-243.21h7.89c.67,0,1.21-.4,1.21-.9v-69.76c0-.5-.54-.9-1.21-.9Z"/>
          <path class="cls-29" d="m502.31,202.13h-17.04V72.97c0-.42-.43-.73-.97-.82v-26.88c0-.33-.27-.62-.68-.74l-60.26-18.02s-.11.02-.11.02c-.14-.03-.2-.08-.29-.08L154.44,12.84c-.09,0-2.15.36-2.24.37-.05,0-53.39,4.25-53.44,4.27l-4.96,14.14c-.41.12-.68.42-.68.74l.47,40.21c0,.06.09.09.1.15-.06.13-.12.26-.08.4.07.27.35.44.69.54v128.47h-20.14c-.67,0-1.21.4-1.21.9v69.76c0,.5.54.9,1.21.9h8.94v243.21c0,.49.54.9,1.21.9h9.98v17.8c0,46.96,51.98,85.16,115.88,85.16h159.18c63.91,0,115.9-38.2,115.9-85.16v-17.8h7.94c.67,0,1.21-.41,1.21-.9v-243.21h7.89c.67,0,1.21-.4,1.21-.9v-69.76c0-.5-.54-.9-1.21-.9Z"/>
          <path class="cls-42" d="m503.64,201.89h-17.04V72.72c0-.42-.43-.73-.97-.82v-26.88c0-.33-.27-.62-.68-.74l-60.26-18.02s-.11.02-.11.02c-.14-.03-.2-.08-.29-.08L155.77,12.6c-.09,0-1.48.26-1.57.27-.05,0-54.36,4.33-54.41,4.35l-4.66,13.92c-.41.12-.68.42-.68.74l.48,40.45c0,.06.09.09.1.15-.06.13-.12.26-.08.4.07.27.35.44.69.54v128.47h-20.14c-.67,0-1.21.4-1.21.9v69.76c0,.5.54.9,1.21.9h8.94v243.21c0,.49.54.9,1.21.9h9.98v17.8c0,46.96,51.98,85.16,115.88,85.16h159.18c63.91,0,115.9-38.2,115.9-85.16v-17.8h7.94c.67,0,1.21-.41,1.21-.9v-243.21h7.89c.67,0,1.21-.4,1.21-.9v-69.76c0-.5-.54-.9-1.21-.9Z"/>
          <path class="cls-31" d="m504.96,201.64h-17.04V72.48c0-.42-.43-.73-.97-.82v-26.88c0-.33-.27-.62-.68-.74l-60.26-18.02s-.11.02-.11.02c-.14-.03-.2-.08-.29-.08L157.09,12.35c-.09,0-.82.16-.9.17-.05,0-55.33,4.41-55.38,4.43l-4.37,13.71c-.41.12-.68.42-.68.74l.49,40.68c0,.06.09.09.1.15-.06.13-.12.26-.08.4.07.27.35.44.69.54v128.47h-20.14c-.67,0-1.21.4-1.21.9v69.76c0,.5.54.9,1.21.9h8.94v243.21c0,.49.54.9,1.21.9h9.98v17.8c0,46.96,51.98,85.16,115.88,85.16h159.18c63.91,0,115.9-38.2,115.9-85.16v-17.8h7.94c.67,0,1.21-.41,1.21-.9v-243.21h7.89c.67,0,1.21-.4,1.21-.9v-69.76c0-.5-.54-.9-1.21-.9Z"/>
          <path class="cls-66" d="m506.29,201.39h-17.04V72.23c0-.42-.43-.73-.97-.82v-26.88c0-.33-.27-.62-.68-.74l-60.26-18.02s-.11.02-.11.02c-.14-.02-.2-.08-.29-.08L158.42,12.1c-.09,0-.15.06-.24.08-.06,0-56.3,4.49-56.35,4.5l-4.07,13.5c-.41.12-.68.42-.68.74l.5,40.92c0,.06.09.09.1.15-.06.13-.12.26-.08.4.07.27.35.44.69.54v128.47h-20.14c-.67,0-1.21.4-1.21.9v69.76c0,.5.54.9,1.21.9h8.94v243.21c0,.49.54.9,1.21.9h9.98v17.8c0,46.96,51.98,85.16,115.88,85.16h159.18c63.91,0,115.9-38.2,115.9-85.16v-17.8h7.94c.67,0,1.21-.41,1.21-.9v-243.21h7.89c.67,0,1.21-.4,1.21-.9v-69.76c0-.5-.54-.9-1.21-.9Z"/>
        </g>
        <path class="cls-9" d="m486.54,20.86c-.87-11.1-87.04-20.07-193.25-20.07S100.9,9.76,100.03,20.86l-.04,11.61v20.4h386.59v-20.4l-.04-11.61Z"/>
        <ellipse class="cls-8" cx="293.28" cy="52.88" rx="193.29" ry="20.24"/>
        <path class="cls-18" d="m487.62,20.82c-1.02-13.03-99.62-20.82-194.34-20.82S99.97,7.78,98.94,20.86l-.04,32.01c0,13.17,98.83,21.04,194.38,21.04s194.38-7.87,194.38-21.04l-.04-32.06Z"/>
        <path class="cls-59" d="m487.68,53.27v481.24c0,46.53-51.35,84.26-114.68,84.26h-159.19c-63.32,0-114.67-37.74-114.67-84.26V53.27h388.53Z"/>
        <path class="cls-10" d="m488.51,53.27v481.24c0,46.53-51.35,84.26-114.68,84.26h-159.18c-63.33,0-114.67-37.74-114.67-84.26V53.27h388.52Z"/>
        <rect class="cls-16" x="100.83" y="53.97" width="386.35" height="83.61"/>
        <g class="cls-20">
          <path class="cls-40" d="m487.17,53.97v480.64c0,46.47-51.2,84.16-114.35,84.16h-157.66c-63.15,0-114.34-37.68-114.34-84.16V53.97h386.35Z"/>
          <path class="cls-1" d="m485.01,57.49v476.09c0,46.03-50.9,83.36-113.68,83.36h-154.66c-62.78,0-113.67-37.33-113.67-83.36V57.49h382.01Z"/>
          <path class="cls-30" d="m482.84,61.01v471.53c0,45.59-50.6,82.57-113.02,82.57h-151.65c-62.42,0-113.01-36.97-113.01-82.57V61.01h377.68Z"/>
          <path class="cls-72" d="m480.67,64.53v466.98c0,45.16-50.31,81.77-112.36,81.77h-148.64c-62.05,0-112.35-36.62-112.35-81.77V64.53h373.34Z"/>
          <path class="cls-47" d="m478.51,68.05v462.43c0,44.72-50.01,80.98-111.7,80.98h-145.63c-61.68,0-111.68-36.26-111.68-80.98V68.05h369.01Z"/>
          <path class="cls-53" d="m476.34,71.58v457.87c0,44.28-49.72,80.18-111.04,80.18h-142.62c-61.32,0-111.02-35.91-111.02-80.18V71.58h364.68Z"/>
          <path class="cls-50" d="m474.17,75.1v453.32c0,43.84-49.42,79.39-110.38,79.39h-139.61c-60.95,0-110.36-35.55-110.36-79.39V75.1h360.34Z"/>
          <path class="cls-67" d="m472,78.62v448.76c0,43.4-49.12,78.59-109.71,78.59h-136.6c-60.58,0-109.69-35.19-109.69-78.59V78.62h356.01Z"/>
          <path class="cls-58" d="m469.84,82.14v444.21c0,42.96-48.83,77.8-109.05,77.8h-133.59c-60.22,0-109.03-34.84-109.03-77.8V82.14h351.67Z"/>
          <path class="cls-4" d="m467.67,85.66v439.66c0,42.52-48.53,77-108.39,77h-130.58c-59.85,0-108.37-34.48-108.37-77V85.66h347.34Z"/>
          <path class="cls-23" d="m465.5,89.19v435.1c0,42.08-48.23,76.21-107.73,76.21h-127.57c-59.48,0-107.7-34.13-107.7-76.21V89.19h343Z"/>
          <path class="cls-46" d="m463.33,92.71v430.55c0,41.64-47.94,75.41-107.07,75.41h-124.56c-59.12,0-107.04-33.77-107.04-75.41V92.71h338.67Z"/>
          <path class="cls-73" d="m461.17,96.23v426c0,41.2-47.64,74.62-106.4,74.62h-121.55c-58.75,0-106.37-33.41-106.37-74.62V96.23h334.33Z"/>
          <path class="cls-5" d="m459,99.75v421.44c0,40.76-47.34,73.82-105.74,73.82h-118.55c-58.38,0-105.71-33.06-105.71-73.82V99.75h330Z"/>
        </g>
        <path class="cls-15" d="m488.51,52.37H99.99c-.67,0-1.22.4-1.22.89v481.24c0,46.96,51.98,85.16,115.88,85.16h159.18c63.91,0,115.9-38.21,115.9-85.16V53.27c0-.49-.55-.89-1.22-.89Z"/>
        <g>
          <rect class="cls-48" x="87.93" y="233.48" width="408.02" height="282.32"/>
          <g class="cls-20">
            <rect class="cls-40" x="89.98" y="253.67" width="406.13" height="261.4"/>
            <rect class="cls-1" x="94.02" y="252.75" width="399.98" height="260.9"/>
            <rect class="cls-30" x="98.06" y="251.84" width="393.84" height="260.41"/>
            <rect class="cls-72" x="102.1" y="250.93" width="387.69" height="259.91"/>
            <rect class="cls-47" x="106.13" y="250.02" width="381.54" height="259.42"/>
            <rect class="cls-53" x="110.17" y="249.1" width="375.39" height="258.93"/>
            <rect class="cls-50" x="114.21" y="248.19" width="369.24" height="258.43"/>
            <rect class="cls-67" x="118.24" y="247.28" width="363.1" height="257.94"/>
            <rect class="cls-58" x="122.28" y="246.37" width="356.95" height="257.44"/>
            <rect class="cls-4" x="126.32" y="245.46" width="350.8" height="256.95"/>
            <rect class="cls-23" x="130.36" y="244.54" width="344.65" height="256.45"/>
            <rect class="cls-46" x="134.39" y="243.63" width="338.5" height="255.96"/>
            <rect class="cls-73" x="138.43" y="242.72" width="332.36" height="255.47"/>
            <rect class="cls-5" x="142.47" y="241.81" width="326.21" height="254.97"/>
          </g>
          <rect class="cls-6" x="88.79" y="233.48" width="408.31" height="282.32"/>
        </g>
        <g>
          <rect class="cls-26" x="77.76" y="201.93" width="427.26" height="69.76"/>
          <g class="cls-20">
            <rect class="cls-40" x="79.51" y="201.93" width="427.25" height="69.76"/>
            <rect class="cls-1" x="83.68" y="202.57" width="420.8" height="67.65"/>
            <rect class="cls-30" x="87.84" y="203.21" width="414.35" height="65.55"/>
            <rect class="cls-72" x="92.01" y="203.86" width="407.9" height="63.44"/>
            <rect class="cls-47" x="96.17" y="204.5" width="401.45" height="61.34"/>
            <rect class="cls-53" x="100.34" y="205.14" width="395" height="59.24"/>
            <rect class="cls-50" x="104.5" y="205.78" width="388.55" height="57.13"/>
            <rect class="cls-67" x="108.67" y="206.42" width="382.1" height="55.03"/>
            <rect class="cls-58" x="112.83" y="207.06" width="375.65" height="52.92"/>
            <rect class="cls-4" x="117" y="207.7" width="369.2" height="50.82"/>
            <rect class="cls-23" x="121.16" y="208.34" width="362.75" height="48.72"/>
            <rect class="cls-46" x="125.33" y="208.98" width="356.3" height="46.61"/>
            <rect class="cls-73" x="129.49" y="209.62" width="349.85" height="44.51"/>
            <rect class="cls-5" x="133.66" y="210.26" width="343.4" height="42.4"/>
          </g>
          <polyline class="cls-10" points="88.91 271.69 78.64 271.69 78.64 201.93 506.77 201.93 506.77 271.69 496.65 271.69"/>
        </g>
        <g class="cls-20">
          <path class="cls-5" d="m124.3,122.21c0,13.95,17.13,25.27,38.27,25.27h207.4c21.14,0,38.28-11.32,38.28-25.27v-42.97c0-13.97-17.14-25.27-38.28-25.27h-207.4c-21.14,0-38.27,11.31-38.27,25.27v42.97Z"/>
          <path class="cls-71" d="m125.02,121.98c0,13.95,17.13,25.27,38.27,25.27h207.4c21.14,0,38.28-11.32,38.28-25.27v-42.97c0-13.97-17.14-25.27-38.28-25.27h-207.4c-21.14,0-38.27,11.31-38.27,25.27v42.97Z"/>
          <path class="cls-43" d="m125.75,121.74c0,13.95,17.13,25.27,38.27,25.27h207.4c21.14,0,38.28-11.32,38.28-25.27v-42.97c0-13.97-17.14-25.27-38.28-25.27h-207.4c-21.14,0-38.27,11.31-38.27,25.27v42.97Z"/>
          <path class="cls-73" d="m126.48,121.5c0,13.95,17.13,25.27,38.27,25.27h207.4c21.14,0,38.27-11.32,38.27-25.27v-42.97c0-13.97-17.14-25.27-38.27-25.27h-207.4c-21.14,0-38.27,11.31-38.27,25.27v42.97Z"/>
          <path class="cls-45" d="m127.2,121.26c0,13.95,17.13,25.27,38.27,25.27h207.4c21.14,0,38.27-11.32,38.27-25.27v-42.97c0-13.97-17.14-25.27-38.27-25.27h-207.4c-21.14,0-38.27,11.31-38.27,25.27v42.97Z"/>
          <path class="cls-13" d="m127.93,121.02c0,13.95,17.13,25.27,38.27,25.27h207.4c21.14,0,38.27-11.32,38.27-25.27v-42.97c0-13.97-17.14-25.27-38.27-25.27h-207.4c-21.14,0-38.27,11.31-38.27,25.27v42.97Z"/>
          <path class="cls-46" d="m128.66,120.79c0,13.95,17.13,25.27,38.27,25.27h207.4c21.14,0,38.27-11.32,38.27-25.27v-42.97c0-13.97-17.14-25.27-38.27-25.27h-207.4c-21.14,0-38.27,11.31-38.27,25.27v42.97Z"/>
          <path class="cls-64" d="m129.38,120.55c0,13.95,17.13,25.27,38.27,25.27h207.4c21.14,0,38.27-11.32,38.27-25.27v-42.97c0-13.97-17.14-25.27-38.27-25.27h-207.4c-21.14,0-38.27,11.31-38.27,25.27v42.97Z"/>
          <path class="cls-55" d="m130.11,120.31c0,13.95,17.13,25.27,38.27,25.27h207.4c21.14,0,38.27-11.32,38.27-25.27v-42.97c0-13.97-17.13-25.27-38.27-25.27h-207.4c-21.14,0-38.27,11.31-38.27,25.27v42.97Z"/>
          <path class="cls-23" d="m130.84,120.07c0,13.95,17.13,25.27,38.27,25.27h207.4c21.14,0,38.27-11.32,38.27-25.27v-42.97c0-13.97-17.13-25.27-38.27-25.27h-207.4c-21.14,0-38.27,11.31-38.27,25.27v42.97Z"/>
          <path class="cls-25" d="m131.56,119.83c0,13.95,17.13,25.27,38.27,25.27h207.4c21.14,0,38.27-11.32,38.27-25.27v-42.97c0-13.97-17.13-25.27-38.27-25.27h-207.4c-21.14,0-38.27,11.31-38.27,25.27v42.97Z"/>
          <path class="cls-4" d="m132.29,119.6c0,13.95,17.13,25.27,38.27,25.27h207.4c21.14,0,38.27-11.32,38.27-25.27v-42.97c0-13.97-17.13-25.27-38.27-25.27h-207.4c-21.14,0-38.27,11.31-38.27,25.27v42.97Z"/>
          <path class="cls-61" d="m133.02,119.36c0,13.95,17.13,25.27,38.27,25.27h207.4c21.14,0,38.27-11.32,38.27-25.27v-42.97c0-13.97-17.13-25.27-38.27-25.27h-207.4c-21.14,0-38.27,11.31-38.27,25.27v42.97Z"/>
          <path class="cls-70" d="m133.74,119.12c0,13.95,17.13,25.27,38.27,25.27h207.4c21.14,0,38.27-11.32,38.27-25.27v-42.97c0-13.97-17.13-25.27-38.27-25.27h-207.4c-21.14,0-38.27,11.31-38.27,25.27v42.97Z"/>
          <path class="cls-58" d="m134.47,118.88c0,13.95,17.13,25.27,38.27,25.27h207.4c21.14,0,38.27-11.32,38.27-25.27v-42.97c0-13.97-17.13-25.27-38.27-25.27h-207.4c-21.14,0-38.27,11.31-38.27,25.27v42.97Z"/>
          <path class="cls-3" d="m135.2,118.64c0,13.95,17.13,25.27,38.27,25.27h207.4c21.14,0,38.27-11.32,38.27-25.27v-42.97c0-13.97-17.13-25.27-38.27-25.27h-207.4c-21.14,0-38.27,11.31-38.27,25.27v42.97Z"/>
          <path class="cls-56" d="m135.92,118.4c0,13.95,17.13,25.27,38.27,25.27h207.4c21.14,0,38.27-11.32,38.27-25.27v-42.97c0-13.97-17.13-25.27-38.27-25.27h-207.4c-21.14,0-38.27,11.31-38.27,25.27v42.97Z"/>
          <path class="cls-67" d="m136.65,118.17c0,13.95,17.13,25.27,38.27,25.27h207.4c21.14,0,38.27-11.32,38.27-25.27v-42.97c0-13.97-17.13-25.27-38.27-25.27h-207.4c-21.14,0-38.27,11.31-38.27,25.27v42.97Z"/>
          <path class="cls-74" d="m137.38,117.93c0,13.95,17.13,25.27,38.27,25.27h207.4c21.14,0,38.27-11.32,38.27-25.27v-42.97c0-13.97-17.13-25.27-38.27-25.27h-207.4c-21.14,0-38.27,11.31-38.27,25.27v42.97Z"/>
          <path class="cls-74" d="m138.1,117.69c0,13.95,17.13,25.27,38.27,25.27h207.4c21.14,0,38.27-11.32,38.27-25.27v-42.97c0-13.97-17.13-25.27-38.27-25.27h-207.4c-21.14,0-38.27,11.31-38.27,25.27v42.97Z"/>
          <path class="cls-69" d="m138.83,117.45c0,13.95,17.13,25.27,38.27,25.27h207.4c21.14,0,38.27-11.32,38.27-25.27v-42.97c0-13.97-17.13-25.27-38.27-25.27h-207.4c-21.14,0-38.27,11.31-38.27,25.27v42.97Z"/>
          <path class="cls-50" d="m139.56,117.21c0,13.95,17.13,25.27,38.27,25.27h207.4c21.14,0,38.27-11.32,38.27-25.27v-42.97c0-13.97-17.13-25.27-38.27-25.27h-207.4c-21.14,0-38.27,11.31-38.27,25.27v42.97Z"/>
          <path class="cls-41" d="m140.29,116.98c0,13.95,17.13,25.27,38.27,25.27h207.4c21.14,0,38.27-11.32,38.27-25.27v-42.97c0-13.97-17.13-25.27-38.27-25.27h-207.4c-21.14,0-38.27,11.31-38.27,25.27v42.97Z"/>
          <path class="cls-2" d="m141.01,116.74c0,13.95,17.13,25.27,38.27,25.27h207.4c21.14,0,38.27-11.32,38.27-25.27v-42.97c0-13.97-17.13-25.27-38.27-25.27h-207.4c-21.14,0-38.27,11.31-38.27,25.27v42.97Z"/>
          <path class="cls-53" d="m141.74,116.5c0,13.95,17.13,25.27,38.27,25.27h207.4c21.14,0,38.27-11.32,38.27-25.27v-42.97c0-13.97-17.13-25.27-38.27-25.27h-207.4c-21.14,0-38.27,11.31-38.27,25.27v42.97Z"/>
          <path class="cls-38" d="m142.47,116.26c0,13.95,17.13,25.27,38.27,25.27h207.4c21.14,0,38.27-11.32,38.27-25.27v-42.97c0-13.97-17.13-25.27-38.27-25.27h-207.4c-21.14,0-38.27,11.31-38.27,25.27v42.97Z"/>
          <path class="cls-37" d="m143.19,116.02c0,13.95,17.13,25.27,38.27,25.27h207.4c21.14,0,38.27-11.32,38.27-25.27v-42.97c0-13.97-17.13-25.27-38.27-25.27h-207.4c-21.14,0-38.27,11.31-38.27,25.27v42.97Z"/>
          <path class="cls-47" d="m143.92,115.78c0,13.95,17.13,25.27,38.27,25.27h207.4c21.14,0,38.27-11.32,38.27-25.27v-42.97c0-13.97-17.13-25.27-38.27-25.27h-207.4c-21.14,0-38.27,11.31-38.27,25.27v42.97Z"/>
          <path class="cls-44" d="m144.65,115.55c0,13.95,17.13,25.27,38.27,25.27h207.4c21.14,0,38.27-11.32,38.27-25.27v-42.97c0-13.97-17.13-25.27-38.27-25.27h-207.4c-21.14,0-38.27,11.31-38.27,25.27v42.97Z"/>
          <path class="cls-72" d="m145.37,115.31c0,13.95,17.13,25.27,38.27,25.27h207.4c21.14,0,38.27-11.32,38.27-25.27v-42.97c0-13.97-17.13-25.27-38.27-25.27h-207.4c-21.14,0-38.27,11.31-38.27,25.27v42.97Z"/>
          <path class="cls-24" d="m146.1,115.07c0,13.95,17.13,25.27,38.27,25.27h207.4c21.14,0,38.27-11.32,38.27-25.27v-42.97c0-13.97-17.13-25.27-38.27-25.27h-207.4c-21.14,0-38.27,11.31-38.27,25.27v42.97Z"/>
          <path class="cls-36" d="m146.83,114.83c0,13.95,17.13,25.27,38.27,25.27h207.4c21.14,0,38.27-11.32,38.27-25.27v-42.97c0-13.97-17.13-25.27-38.27-25.27h-207.4c-21.14,0-38.27,11.31-38.27,25.27v42.97Z"/>
          <path class="cls-30" d="m147.55,114.59c0,13.95,17.13,25.27,38.27,25.27h207.4c21.14,0,38.27-11.32,38.27-25.27v-42.97c0-13.97-17.13-25.27-38.27-25.27h-207.4c-21.14,0-38.27,11.31-38.27,25.27v42.97Z"/>
          <path class="cls-75" d="m148.28,114.36c0,13.95,17.13,25.27,38.27,25.27h207.4c21.14,0,38.27-11.32,38.27-25.27v-42.97c0-13.97-17.13-25.27-38.27-25.27h-207.4c-21.14,0-38.27,11.31-38.27,25.27v42.97Z"/>
          <path class="cls-32" d="m149.01,114.12c0,13.95,17.13,25.27,38.27,25.27h207.4c21.14,0,38.27-11.32,38.27-25.27v-42.97c0-13.97-17.13-25.27-38.27-25.27h-207.4c-21.14,0-38.27,11.31-38.27,25.27v42.97Z"/>
          <path class="cls-1" d="m149.73,113.88c0,13.95,17.13,25.27,38.27,25.27h207.4c21.14,0,38.27-11.32,38.27-25.27v-42.97c0-13.97-17.13-25.27-38.27-25.27h-207.4c-21.14,0-38.27,11.31-38.27,25.27v42.97Z"/>
          <path class="cls-52" d="m150.46,113.64c0,13.95,17.13,25.27,38.27,25.27h207.4c21.14,0,38.27-11.32,38.27-25.27v-42.97c0-13.97-17.13-25.27-38.27-25.27h-207.4c-21.14,0-38.27,11.31-38.27,25.27v42.97Z"/>
          <path class="cls-14" d="m151.19,113.4c0,13.95,17.13,25.27,38.27,25.27h207.4c21.14,0,38.27-11.32,38.27-25.27v-42.97c0-13.97-17.13-25.27-38.27-25.27h-207.4c-21.14,0-38.27,11.31-38.27,25.27v42.97Z"/>
          <path class="cls-40" d="m151.91,113.17c0,13.95,17.13,25.27,38.27,25.27h207.4c21.14,0,38.27-11.32,38.27-25.27v-42.97c0-13.97-17.13-25.27-38.27-25.27h-207.4c-21.14,0-38.27,11.31-38.27,25.27v42.97Z"/>
        </g>
        <rect class="cls-19" x="87.94" y="271.7" width="409.74" height="55.79"/>
        <rect class="cls-17" x="99.16" y="516.64" width="388.52" height="76.99"/>
        <g>
          <path class="cls-57" d="m151.91,112.31c0,13.95,17.13,25.27,38.27,25.27h207.4c21.14,0,38.27-11.32,38.27-25.27v-42.97c0-13.97-17.13-25.27-38.27-25.27h-207.4c-21.14,0-38.27,11.31-38.27,25.27v42.97Z"/>
          <g class="cls-20">
            <path class="cls-40" d="m151.91,112.31c0,13.95,17.13,25.27,38.27,25.27h207.4c21.14,0,38.27-11.32,38.27-25.27v-42.97c0-13.97-17.13-25.27-38.27-25.27h-207.4c-21.14,0-38.27,11.31-38.27,25.27v42.97Z"/>
            <path class="cls-1" d="m153.03,109.1c0,13.85,17.18,25.09,38.38,25.09h204.96c21.2,0,38.38-11.24,38.38-25.09v-39.67c0-13.87-17.18-25.09-38.38-25.09h-204.96c-21.2,0-38.38,11.23-38.38,25.09v39.67Z"/>
            <path class="cls-30" d="m154.14,105.89c0,13.75,17.23,24.91,38.49,24.91h202.51c21.26,0,38.49-11.16,38.49-24.91v-36.36c0-13.76-17.23-24.91-38.49-24.91h-202.51c-21.26,0-38.49,11.14-38.49,24.91v36.36Z"/>
            <path class="cls-72" d="m155.25,102.68c0,13.65,17.28,24.73,38.6,24.73h200.06c21.32,0,38.6-11.07,38.6-24.73v-33.06c0-13.66-17.28-24.73-38.6-24.73h-200.06c-21.32,0-38.6,11.06-38.6,24.73v33.06Z"/>
            <path class="cls-47" d="m156.37,99.47c0,13.55,17.33,24.54,38.71,24.54h197.61c21.38,0,38.71-10.99,38.71-24.54v-29.75c0-13.56-17.33-24.54-38.71-24.54h-197.61c-21.38,0-38.71,10.98-38.71,24.54v29.75Z"/>
            <path class="cls-53" d="m157.48,96.26c0,13.45,17.37,24.36,38.82,24.36h195.16c21.44,0,38.82-10.91,38.82-24.36v-26.45c0-13.46-17.38-24.36-38.82-24.36h-195.16c-21.44,0-38.82,10.9-38.82,24.36v26.45Z"/>
            <path class="cls-50" d="m158.6,93.05c0,13.35,17.42,24.18,38.93,24.18h192.71c21.5,0,38.94-10.83,38.94-24.18v-23.14c0-13.36-17.43-24.18-38.94-24.18h-192.71c-21.5,0-38.93,10.82-38.93,24.18v23.14Z"/>
            <path class="cls-67" d="m159.71,89.84c0,13.25,17.47,24,39.04,24h190.26c21.56,0,39.05-10.75,39.05-24v-19.83c0-13.26-17.49-24-39.05-24h-190.26c-21.56,0-39.04,10.74-39.04,24v19.83Z"/>
            <path class="cls-58" d="m160.82,86.63c0,13.15,17.52,23.81,39.15,23.81h187.81c21.62,0,39.16-10.67,39.16-23.81v-16.53c0-13.16-17.54-23.81-39.16-23.81h-187.81c-21.62,0-39.15,10.65-39.15,23.81v16.53Z"/>
            <path class="cls-4" d="m161.94,83.42c0,13.05,17.57,23.63,39.25,23.63h185.36c21.68,0,39.27-10.58,39.27-23.63v-13.22c0-13.06-17.59-23.63-39.27-23.63h-185.36c-21.68,0-39.25,10.57-39.25,23.63v13.22Z"/>
            <path class="cls-23" d="m163.05,80.21c0,12.95,17.62,23.45,39.36,23.45h182.91c21.74,0,39.38-10.5,39.38-23.45v-9.92c0-12.96-17.64-23.45-39.38-23.45h-182.91c-21.75,0-39.36,10.49-39.36,23.45v9.92Z"/>
            <path class="cls-46" d="m164.17,77c0,12.84,17.67,23.27,39.47,23.27h180.46c21.81,0,39.49-10.42,39.49-23.27v-6.61c0-12.86-17.69-23.27-39.49-23.27h-180.46c-21.81,0-39.47,10.41-39.47,23.27v6.61Z"/>
            <path class="cls-73" d="m165.28,73.79c0,12.74,17.72,23.08,39.58,23.08h178.01c21.87,0,39.61-10.34,39.61-23.08v-3.31c0-12.76-17.74-23.08-39.61-23.08h-178.01c-21.87,0-39.58,10.33-39.58,23.08v3.31Z"/>
            <path class="cls-5" d="m166.39,70.58c0,12.64,17.77,22.9,39.69,22.9h175.57c21.93,0,39.72-10.26,39.72-22.9h0c0-12.65-17.79-22.9-39.72-22.9h-175.57c-21.93,0-39.69,10.25-39.69,22.9h0Z"/>
          </g>
          <path class="cls-7" d="m151.91,112.31c0,13.95,17.13,25.27,38.27,25.27h207.4c21.14,0,38.27-11.32,38.27-25.27v-42.97c0-13.97-17.13-25.27-38.27-25.27h-207.4c-21.14,0-38.27,11.31-38.27,25.27v42.97Z"/>
        </g>
        <g class="cls-20">
          <path class="cls-5" d="m177.33,174.59c0,9.35,11.49,16.94,25.65,16.94h139.01c14.17,0,25.65-7.59,25.65-16.94v-28.81c0-9.36-11.48-16.94-25.65-16.94h-139.01c-14.17,0-25.65,7.58-25.65,16.94v28.81Z"/>
          <path class="cls-71" d="m177.82,174.43c0,9.35,11.49,16.94,25.65,16.94h139.01c14.17,0,25.65-7.59,25.65-16.94v-28.81c0-9.36-11.48-16.94-25.65-16.94h-139.01c-14.17,0-25.65,7.58-25.65,16.94v28.81Z"/>
          <path class="cls-43" d="m178.3,174.27c0,9.35,11.49,16.94,25.65,16.94h139.01c14.17,0,25.65-7.59,25.65-16.94v-28.81c0-9.36-11.48-16.94-25.65-16.94h-139.01c-14.17,0-25.65,7.58-25.65,16.94v28.81Z"/>
          <path class="cls-73" d="m178.79,174.11c0,9.35,11.49,16.94,25.65,16.94h139.01c14.17,0,25.65-7.59,25.65-16.94v-28.81c0-9.36-11.48-16.94-25.65-16.94h-139.01c-14.17,0-25.65,7.58-25.65,16.94v28.81Z"/>
          <path class="cls-45" d="m179.28,173.95c0,9.35,11.49,16.94,25.65,16.94h139.01c14.17,0,25.65-7.59,25.65-16.94v-28.81c0-9.36-11.48-16.94-25.65-16.94h-139.01c-14.17,0-25.65,7.58-25.65,16.94v28.81Z"/>
          <path class="cls-13" d="m179.77,173.79c0,9.35,11.49,16.94,25.65,16.94h139.01c14.17,0,25.65-7.59,25.65-16.94v-28.81c0-9.36-11.48-16.94-25.65-16.94h-139.01c-14.17,0-25.65,7.58-25.65,16.94v28.81Z"/>
          <path class="cls-46" d="m180.25,173.63c0,9.35,11.49,16.94,25.65,16.94h139.01c14.17,0,25.65-7.59,25.65-16.94v-28.81c0-9.36-11.48-16.94-25.65-16.94h-139.01c-14.17,0-25.65,7.58-25.65,16.94v28.81Z"/>
          <path class="cls-64" d="m180.74,173.47c0,9.35,11.49,16.94,25.65,16.94h139.01c14.17,0,25.65-7.59,25.65-16.94v-28.81c0-9.36-11.48-16.94-25.65-16.94h-139.01c-14.17,0-25.65,7.58-25.65,16.94v28.81Z"/>
          <path class="cls-55" d="m181.23,173.31c0,9.35,11.49,16.94,25.65,16.94h139.01c14.17,0,25.65-7.59,25.65-16.94v-28.81c0-9.36-11.48-16.94-25.65-16.94h-139.01c-14.17,0-25.65,7.58-25.65,16.94v28.81Z"/>
          <path class="cls-23" d="m181.72,173.15c0,9.35,11.49,16.94,25.65,16.94h139.01c14.17,0,25.65-7.59,25.65-16.94v-28.81c0-9.36-11.48-16.94-25.65-16.94h-139.01c-14.17,0-25.65,7.58-25.65,16.94v28.81Z"/>
          <path class="cls-25" d="m182.2,172.99c0,9.35,11.49,16.94,25.65,16.94h139.01c14.17,0,25.65-7.59,25.65-16.94v-28.81c0-9.36-11.48-16.94-25.65-16.94h-139.01c-14.17,0-25.65,7.58-25.65,16.94v28.81Z"/>
          <path class="cls-4" d="m182.69,172.83c0,9.35,11.49,16.94,25.65,16.94h139.01c14.17,0,25.65-7.59,25.65-16.94v-28.81c0-9.36-11.48-16.94-25.65-16.94h-139.01c-14.17,0-25.65,7.58-25.65,16.94v28.81Z"/>
          <path class="cls-61" d="m183.18,172.67c0,9.35,11.48,16.94,25.65,16.94h139.01c14.17,0,25.65-7.59,25.65-16.94v-28.81c0-9.36-11.48-16.94-25.65-16.94h-139.01c-14.17,0-25.65,7.58-25.65,16.94v28.81Z"/>
          <path class="cls-70" d="m183.66,172.51c0,9.35,11.48,16.94,25.65,16.94h139.01c14.17,0,25.65-7.59,25.65-16.94v-28.81c0-9.36-11.48-16.94-25.65-16.94h-139.01c-14.17,0-25.65,7.58-25.65,16.94v28.81Z"/>
          <path class="cls-58" d="m184.15,172.35c0,9.35,11.48,16.94,25.65,16.94h139.01c14.17,0,25.65-7.59,25.65-16.94v-28.81c0-9.36-11.48-16.94-25.65-16.94h-139.01c-14.17,0-25.65,7.58-25.65,16.94v28.81Z"/>
          <path class="cls-3" d="m184.64,172.19c0,9.35,11.48,16.94,25.65,16.94h139.01c14.17,0,25.65-7.59,25.65-16.94v-28.81c0-9.36-11.48-16.94-25.65-16.94h-139.01c-14.17,0-25.65,7.58-25.65,16.94v28.81Z"/>
          <path class="cls-56" d="m185.13,172.03c0,9.35,11.48,16.94,25.65,16.94h139.01c14.17,0,25.65-7.59,25.65-16.94v-28.81c0-9.36-11.48-16.94-25.65-16.94h-139.01c-14.17,0-25.65,7.58-25.65,16.94v28.81Z"/>
          <path class="cls-67" d="m185.61,171.87c0,9.35,11.48,16.94,25.65,16.94h139.01c14.17,0,25.65-7.59,25.65-16.94v-28.81c0-9.36-11.48-16.94-25.65-16.94h-139.01c-14.17,0-25.65,7.58-25.65,16.94v28.81Z"/>
          <path class="cls-74" d="m186.1,171.71c0,9.35,11.48,16.94,25.65,16.94h139.01c14.17,0,25.65-7.59,25.65-16.94v-28.81c0-9.36-11.48-16.94-25.65-16.94h-139.01c-14.17,0-25.65,7.58-25.65,16.94v28.81Z"/>
          <path class="cls-74" d="m186.59,171.55c0,9.35,11.48,16.94,25.65,16.94h139.01c14.17,0,25.65-7.59,25.65-16.94v-28.81c0-9.36-11.48-16.94-25.65-16.94h-139.01c-14.17,0-25.65,7.58-25.65,16.94v28.81Z"/>
          <path class="cls-69" d="m187.07,171.39c0,9.35,11.48,16.94,25.65,16.94h139.01c14.17,0,25.65-7.59,25.65-16.94v-28.81c0-9.36-11.48-16.94-25.65-16.94h-139.01c-14.17,0-25.65,7.58-25.65,16.94v28.81Z"/>
          <path class="cls-50" d="m187.56,171.23c0,9.35,11.48,16.94,25.65,16.94h139.01c14.17,0,25.65-7.59,25.65-16.94v-28.81c0-9.36-11.48-16.94-25.65-16.94h-139.01c-14.17,0-25.65,7.58-25.65,16.94v28.81Z"/>
          <path class="cls-41" d="m188.05,171.07c0,9.35,11.48,16.94,25.65,16.94h139.01c14.17,0,25.65-7.59,25.65-16.94v-28.81c0-9.36-11.48-16.94-25.65-16.94h-139.01c-14.17,0-25.65,7.58-25.65,16.94v28.81Z"/>
          <path class="cls-2" d="m188.54,170.91c0,9.35,11.48,16.94,25.65,16.94h139.01c14.17,0,25.65-7.59,25.65-16.94v-28.81c0-9.36-11.48-16.94-25.65-16.94h-139.01c-14.17,0-25.65,7.58-25.65,16.94v28.81Z"/>
          <path class="cls-53" d="m189.02,170.76c0,9.35,11.48,16.94,25.65,16.94h139.01c14.17,0,25.65-7.59,25.65-16.94v-28.81c0-9.36-11.48-16.94-25.65-16.94h-139.01c-14.17,0-25.65,7.58-25.65,16.94v28.81Z"/>
          <path class="cls-38" d="m189.51,170.6c0,9.35,11.48,16.94,25.65,16.94h139.01c14.17,0,25.65-7.59,25.65-16.94v-28.81c0-9.36-11.48-16.94-25.65-16.94h-139.01c-14.17,0-25.65,7.58-25.65,16.94v28.81Z"/>
          <path class="cls-37" d="m190,170.44c0,9.35,11.48,16.94,25.65,16.94h139.01c14.17,0,25.65-7.59,25.65-16.94v-28.81c0-9.36-11.48-16.94-25.65-16.94h-139.01c-14.17,0-25.65,7.58-25.65,16.94v28.81Z"/>
          <path class="cls-47" d="m190.49,170.28c0,9.35,11.48,16.94,25.65,16.94h139.01c14.17,0,25.65-7.59,25.65-16.94v-28.81c0-9.36-11.48-16.94-25.65-16.94h-139.01c-14.17,0-25.65,7.58-25.65,16.94v28.81Z"/>
          <path class="cls-44" d="m190.97,170.12c0,9.35,11.48,16.94,25.65,16.94h139.01c14.17,0,25.65-7.59,25.65-16.94v-28.81c0-9.36-11.48-16.94-25.65-16.94h-139.01c-14.17,0-25.65,7.58-25.65,16.94v28.81Z"/>
          <path class="cls-72" d="m191.46,169.96c0,9.35,11.48,16.94,25.65,16.94h139.01c14.17,0,25.65-7.59,25.65-16.94v-28.8c0-9.36-11.48-16.94-25.65-16.94h-139.01c-14.17,0-25.65,7.58-25.65,16.94v28.8Z"/>
          <path class="cls-24" d="m191.95,169.8c0,9.35,11.48,16.94,25.65,16.94h139.01c14.17,0,25.65-7.59,25.65-16.94v-28.8c0-9.36-11.48-16.94-25.65-16.94h-139.01c-14.17,0-25.65,7.58-25.65,16.94v28.8Z"/>
          <path class="cls-36" d="m192.43,169.64c0,9.35,11.48,16.94,25.65,16.94h139.01c14.17,0,25.65-7.59,25.65-16.94v-28.8c0-9.36-11.48-16.94-25.65-16.94h-139.01c-14.17,0-25.65,7.58-25.65,16.94v28.8Z"/>
          <path class="cls-30" d="m192.92,169.48c0,9.35,11.48,16.94,25.65,16.94h139.01c14.17,0,25.65-7.59,25.65-16.94v-28.8c0-9.36-11.48-16.94-25.65-16.94h-139.01c-14.17,0-25.65,7.58-25.65,16.94v28.8Z"/>
          <path class="cls-75" d="m193.41,169.32c0,9.35,11.48,16.94,25.65,16.94h139.01c14.17,0,25.65-7.59,25.65-16.94v-28.8c0-9.36-11.48-16.94-25.65-16.94h-139.01c-14.17,0-25.65,7.58-25.65,16.94v28.8Z"/>
          <path class="cls-32" d="m193.9,169.16c0,9.35,11.48,16.94,25.65,16.94h139.01c14.17,0,25.65-7.59,25.65-16.94v-28.8c0-9.36-11.48-16.94-25.65-16.94h-139.01c-14.17,0-25.65,7.58-25.65,16.94v28.8Z"/>
          <path class="cls-1" d="m194.38,169c0,9.35,11.48,16.94,25.65,16.94h139.01c14.17,0,25.65-7.59,25.65-16.94v-28.8c0-9.36-11.48-16.94-25.65-16.94h-139.01c-14.17,0-25.65,7.58-25.65,16.94v28.8Z"/>
          <path class="cls-52" d="m194.87,168.84c0,9.35,11.48,16.94,25.65,16.94h139.01c14.17,0,25.65-7.59,25.65-16.94v-28.8c0-9.36-11.48-16.94-25.65-16.94h-139.01c-14.17,0-25.65,7.58-25.65,16.94v28.8Z"/>
          <path class="cls-14" d="m195.36,168.68c0,9.35,11.48,16.94,25.65,16.94h139.01c14.17,0,25.65-7.59,25.65-16.94v-28.8c0-9.36-11.48-16.94-25.65-16.94h-139.01c-14.17,0-25.65,7.58-25.65,16.94v28.8Z"/>
          <path class="cls-40" d="m195.85,168.52c0,9.35,11.48,16.94,25.65,16.94h139.01c14.17,0,25.65-7.59,25.65-16.94v-28.8c0-9.36-11.48-16.94-25.65-16.94h-139.01c-14.17,0-25.65,7.58-25.65,16.94v28.8Z"/>
        </g>
        <g>
          <path class="cls-35" d="m195.85,167.94c0,9.36,11.48,16.94,25.65,16.94h139.01c14.17,0,25.65-7.58,25.65-16.94v-28.8c0-9.36-11.48-16.94-25.65-16.94h-139.01c-14.17,0-25.65,7.58-25.65,16.94v28.8Z"/>
          <g class="cls-20">
            <path class="cls-40" d="m195.85,167.94c0,9.36,11.48,16.94,25.65,16.94h139.01c14.17,0,25.65-7.58,25.65-16.94v-28.8c0-9.36-11.48-16.94-25.65-16.94h-139.01c-14.17,0-25.65,7.58-25.65,16.94v28.8Z"/>
            <path class="cls-1" d="m196.59,165.79c0,9.29,11.51,16.82,25.72,16.82h137.37c14.21,0,25.72-7.53,25.72-16.82v-26.59c0-9.29-11.51-16.82-25.72-16.82h-137.37c-14.21,0-25.72,7.53-25.72,16.82v26.59Z"/>
            <path class="cls-30" d="m197.34,163.64c0,9.22,11.55,16.69,25.79,16.69h135.73c14.25,0,25.8-7.47,25.8-16.69v-24.37c0-9.22-11.55-16.69-25.8-16.69h-135.73c-14.25,0-25.79,7.47-25.79,16.69v24.37Z"/>
            <path class="cls-72" d="m198.09,161.49c0,9.15,11.58,16.57,25.87,16.57h134.09c14.29,0,25.87-7.42,25.87-16.57v-22.16c0-9.16-11.58-16.57-25.87-16.57h-134.09c-14.29,0-25.87,7.42-25.87,16.57v22.16Z"/>
            <path class="cls-47" d="m198.83,159.33c0,9.09,11.61,16.45,25.94,16.45h132.45c14.33,0,25.95-7.36,25.95-16.45v-19.94c0-9.09-11.62-16.45-25.95-16.45h-132.45c-14.33,0-25.94,7.36-25.94,16.45v19.94Z"/>
            <path class="cls-53" d="m199.58,157.18c0,9.02,11.65,16.33,26.02,16.33h130.81c14.37,0,26.02-7.31,26.02-16.33v-17.73c0-9.02-11.65-16.33-26.02-16.33h-130.81c-14.37,0-26.02,7.31-26.02,16.33v17.73Z"/>
            <path class="cls-50" d="m200.33,155.03c0,8.95,11.68,16.2,26.09,16.2h129.16c14.41,0,26.1-7.25,26.1-16.2v-15.51c0-8.96-11.69-16.21-26.1-16.21h-129.16c-14.41,0-26.09,7.25-26.09,16.21v15.51Z"/>
            <path class="cls-67" d="m201.07,152.88c0,8.88,11.71,16.08,26.16,16.08h127.52c14.45,0,26.17-7.2,26.17-16.08v-13.29c0-8.89-11.72-16.09-26.17-16.09h-127.52c-14.45,0-26.16,7.2-26.16,16.09v13.29Z"/>
            <path class="cls-58" d="m201.82,150.73c0,8.81,11.75,15.96,26.24,15.96h125.88c14.49,0,26.25-7.15,26.25-15.96v-11.08c0-8.82-11.76-15.96-26.25-15.96h-125.88c-14.49,0-26.24,7.14-26.24,15.96v11.08Z"/>
            <path class="cls-4" d="m202.57,148.58c0,8.75,11.78,15.84,26.31,15.84h124.24c14.53,0,26.32-7.09,26.32-15.84v-8.86c0-8.75-11.79-15.84-26.32-15.84h-124.24c-14.53,0-26.31,7.09-26.31,15.84v8.86Z"/>
            <path class="cls-23" d="m203.31,146.43c0,8.68,11.81,15.72,26.39,15.72h122.6c14.57,0,26.4-7.04,26.4-15.72v-6.65c0-8.69-11.82-15.72-26.4-15.72h-122.6c-14.57,0-26.39,7.03-26.39,15.72v6.65Z"/>
            <path class="cls-46" d="m204.06,144.27c0,8.61,11.85,15.59,26.46,15.59h120.95c14.61,0,26.47-6.98,26.47-15.59v-4.43c0-8.62-11.86-15.6-26.47-15.6h-120.95c-14.61,0-26.46,6.98-26.46,15.6v4.43Z"/>
            <path class="cls-73" d="m204.81,142.12c0,8.54,11.88,15.47,26.53,15.47h119.31c14.65,0,26.55-6.93,26.55-15.47v-2.22c0-8.55-11.89-15.48-26.55-15.48h-119.31c-14.65,0-26.53,6.92-26.53,15.48v2.22Z"/>
            <path class="cls-5" d="m205.55,139.97c0,8.48,11.91,15.35,26.61,15.35h117.67c14.69,0,26.62-6.87,26.62-15.35h0c0-8.49-11.93-15.35-26.62-15.35h-117.67c-14.69,0-26.61,6.87-26.61,15.35h0Z"/>
          </g>
          <path class="cls-7" d="m195.85,167.94c0,9.36,11.48,16.94,25.65,16.94h139.01c14.17,0,25.65-7.58,25.65-16.94v-28.8c0-9.36-11.48-16.94-25.65-16.94h-139.01c-14.17,0-25.65,7.58-25.65,16.94v28.8Z"/>
        </g>
        <path class="cls-15" d="m360.51,121.4h-139.01c-14.74,0-26.74,7.96-26.74,17.73v28.8c0,9.78,12,17.74,26.74,17.74h139.01c14.73,0,26.73-7.96,26.73-17.74v-28.8c0-9.78-12-17.73-26.73-17.73Z"/>
      </g>
    </g>
  </g>
</svg>