<?xml version="1.0" encoding="UTF-8"?>
<svg xmlns="http://www.w3.org/2000/svg" xmlns:xlink="http://www.w3.org/1999/xlink" viewBox="0 0 266.04 253.14">
  <defs>
    <style>
      .cls-1 {
        fill: url(#linear-gradient-3);
      }

      .cls-1, .cls-2, .cls-3, .cls-4, .cls-5, .cls-6, .cls-7 {
        mix-blend-mode: multiply;
      }

      .cls-8 {
        filter: url(#luminosity-noclip-7);
      }

      .cls-2 {
        fill: url(#linear-gradient);
      }

      .cls-9 {
        fill: #939598;
      }

      .cls-3 {
        fill: url(#linear-gradient-4);
      }

      .cls-10 {
        filter: url(#luminosity-noclip-5);
      }

      .cls-11 {
        mask: url(#mask-2);
      }

      .cls-12 {
        fill: url(#linear-gradient-6);
      }

      .cls-13 {
        isolation: isolate;
      }

      .cls-14 {
        fill: #909090;
      }

      .cls-15 {
        mask: url(#mask-3);
      }

      .cls-16 {
        mask: url(#mask-9);
      }

      .cls-17 {
        fill: url(#linear-gradient-10);
      }

      .cls-4 {
        fill: url(#linear-gradient-5);
      }

      .cls-18 {
        mask: url(#mask-5);
      }

      .cls-5 {
        fill: url(#linear-gradient-9);
      }

      .cls-19 {
        filter: url(#luminosity-noclip-9);
      }

      .cls-20 {
        mask: url(#mask-8);
      }

      .cls-21 {
        fill: none;
        stroke: #000;
        stroke-linecap: round;
        stroke-linejoin: round;
        stroke-width: .72px;
      }

      .cls-22 {
        mask: url(#mask-4);
      }

      .cls-6 {
        fill: url(#linear-gradient-2);
      }

      .cls-23 {
        mask: url(#mask-6);
      }

      .cls-24 {
        filter: url(#luminosity-noclip);
      }

      .cls-25 {
        mask: url(#mask-1);
      }

      .cls-26 {
        mask: url(#mask);
      }

      .cls-7 {
        fill: url(#linear-gradient-7);
      }

      .cls-27 {
        mask: url(#mask-7);
      }

      .cls-28 {
        fill: url(#linear-gradient-8);
      }

      .cls-29 {
        filter: url(#luminosity-noclip-3);
      }

      .cls-30 {
        fill: #e3e3e3;
      }
    </style>
    <filter id="luminosity-noclip" x="131.7" y=".36" width="131.34" height="128.78" color-interpolation-filters="sRGB" filterUnits="userSpaceOnUse">
      <feFlood flood-color="#fff" result="bg"/>
      <feBlend in="SourceGraphic" in2="bg"/>
    </filter>
    <filter id="luminosity-noclip-2" x="131.7" y="-8318.05" width="131.34" height="32766" color-interpolation-filters="sRGB" filterUnits="userSpaceOnUse">
      <feFlood flood-color="#fff" result="bg"/>
      <feBlend in="SourceGraphic" in2="bg"/>
    </filter>
    <mask id="mask-1" x="131.7" y="-8318.05" width="131.34" height="32766" maskUnits="userSpaceOnUse"/>
    <linearGradient id="linear-gradient" x1="131.7" y1="64.75" x2="263.04" y2="64.75" gradientUnits="userSpaceOnUse">
      <stop offset="0" stop-color="#fff"/>
      <stop offset=".27" stop-color="#bababa"/>
      <stop offset="1" stop-color="#000"/>
    </linearGradient>
    <mask id="mask" x="131.7" y=".36" width="131.34" height="128.78" maskUnits="userSpaceOnUse">
      <g class="cls-24">
        <g class="cls-25">
          <path class="cls-2" d="m263.04,95.76l-122,33.39c-1.08-4.16-4.85-7.23-9.35-7.27V.36l131.34,95.4Z"/>
        </g>
      </g>
    </mask>
    <linearGradient id="linear-gradient-2" x1="131.7" y1="64.75" x2="263.04" y2="64.75" gradientUnits="userSpaceOnUse">
      <stop offset="0" stop-color="#989898"/>
      <stop offset="1" stop-color="#fff"/>
    </linearGradient>
    <filter id="luminosity-noclip-3" x=".36" y=".36" width="131.34" height="128.74" color-interpolation-filters="sRGB" filterUnits="userSpaceOnUse">
      <feFlood flood-color="#fff" result="bg"/>
      <feBlend in="SourceGraphic" in2="bg"/>
    </filter>
    <filter id="luminosity-noclip-4" x=".36" y="-8318.05" width="131.34" height="32766" color-interpolation-filters="sRGB" filterUnits="userSpaceOnUse">
      <feFlood flood-color="#fff" result="bg"/>
      <feBlend in="SourceGraphic" in2="bg"/>
    </filter>
    <mask id="mask-3" x=".36" y="-8318.05" width="131.34" height="32766" maskUnits="userSpaceOnUse"/>
    <linearGradient id="linear-gradient-3" x1="65.76" y1="109.18" x2="120.17" y2="34.29" xlink:href="#linear-gradient"/>
    <mask id="mask-2" x=".36" y=".36" width="131.34" height="128.74" maskUnits="userSpaceOnUse">
      <g class="cls-29">
        <g class="cls-15">
          <path class="cls-1" d="m131.7.36v121.51h-.08c-4.52,0-8.31,3.06-9.42,7.23L.36,95.76,131.7.36Z"/>
        </g>
      </g>
    </mask>
    <linearGradient id="linear-gradient-4" x1="65.76" y1="109.18" x2="120.17" y2="34.29" xlink:href="#linear-gradient-2"/>
    <filter id="luminosity-noclip-5" x="137.16" y="95.76" width="125.89" height="154.38" color-interpolation-filters="sRGB" filterUnits="userSpaceOnUse">
      <feFlood flood-color="#fff" result="bg"/>
      <feBlend in="SourceGraphic" in2="bg"/>
    </filter>
    <filter id="luminosity-noclip-6" x="137.16" y="-8318.05" width="125.89" height="32766" color-interpolation-filters="sRGB" filterUnits="userSpaceOnUse">
      <feFlood flood-color="#fff" result="bg"/>
      <feBlend in="SourceGraphic" in2="bg"/>
    </filter>
    <mask id="mask-5" x="137.16" y="-8318.05" width="125.89" height="32766" maskUnits="userSpaceOnUse"/>
    <linearGradient id="linear-gradient-5" x1="202.49" y1="107.68" x2="176.89" y2="215.21" xlink:href="#linear-gradient"/>
    <mask id="mask-4" x="137.16" y="95.76" width="125.89" height="154.38" maskUnits="userSpaceOnUse">
      <g class="cls-10">
        <g class="cls-18">
          <path class="cls-4" d="m263.04,95.76l-50.23,154.38-75.66-110.48c2.55-1.77,4.22-4.71,4.22-8.04,0-.86-.12-1.69-.33-2.48l122-33.39Z"/>
        </g>
      </g>
    </mask>
    <linearGradient id="linear-gradient-6" x1="202.49" y1="107.68" x2="176.89" y2="215.21" xlink:href="#linear-gradient-2"/>
    <filter id="luminosity-noclip-7" x="50.59" y="139.67" width="162.22" height="110.48" color-interpolation-filters="sRGB" filterUnits="userSpaceOnUse">
      <feFlood flood-color="#fff" result="bg"/>
      <feBlend in="SourceGraphic" in2="bg"/>
    </filter>
    <filter id="luminosity-noclip-8" x="50.59" y="-8318.05" width="162.22" height="32766" color-interpolation-filters="sRGB" filterUnits="userSpaceOnUse">
      <feFlood flood-color="#fff" result="bg"/>
      <feBlend in="SourceGraphic" in2="bg"/>
    </filter>
    <mask id="mask-7" x="50.59" y="-8318.05" width="162.22" height="32766" maskUnits="userSpaceOnUse"/>
    <linearGradient id="linear-gradient-7" x1="91.09" y1="194.84" x2="174.3" y2="196.76" xlink:href="#linear-gradient"/>
    <mask id="mask-6" x="50.59" y="139.67" width="162.22" height="110.48" maskUnits="userSpaceOnUse">
      <g class="cls-8">
        <g class="cls-27">
          <path class="cls-7" d="m137.16,139.67l75.66,110.48H50.59l75.6-110.41c1.55,1.05,3.42,1.65,5.43,1.65s3.96-.63,5.53-1.72Z"/>
        </g>
      </g>
    </mask>
    <linearGradient id="linear-gradient-8" x1="91.09" y1="194.84" x2="174.3" y2="196.76" xlink:href="#linear-gradient-2"/>
    <filter id="luminosity-noclip-9" x=".36" y="95.76" width="125.84" height="154.38" color-interpolation-filters="sRGB" filterUnits="userSpaceOnUse">
      <feFlood flood-color="#fff" result="bg"/>
      <feBlend in="SourceGraphic" in2="bg"/>
    </filter>
    <filter id="luminosity-noclip-10" x=".36" y="-8318.05" width="125.84" height="32766" color-interpolation-filters="sRGB" filterUnits="userSpaceOnUse">
      <feFlood flood-color="#fff" result="bg"/>
      <feBlend in="SourceGraphic" in2="bg"/>
    </filter>
    <mask id="mask-9" x=".36" y="-8318.05" width="125.84" height="32766" maskUnits="userSpaceOnUse"/>
    <linearGradient id="linear-gradient-9" x1="56.93" y1="97.44" x2="92.14" y2="210.09" xlink:href="#linear-gradient"/>
    <mask id="mask-8" x=".36" y="95.76" width="125.84" height="154.38" maskUnits="userSpaceOnUse">
      <g class="cls-19">
        <g class="cls-16">
          <path class="cls-5" d="m126.2,139.73l-75.6,110.41L.36,95.76l121.84,33.35c-.22.81-.33,1.65-.33,2.52,0,3.38,1.72,6.35,4.33,8.1Z"/>
        </g>
      </g>
    </mask>
    <linearGradient id="linear-gradient-10" x1="56.93" y1="97.44" x2="92.14" y2="210.09" xlink:href="#linear-gradient-2"/>
  </defs>
  <g class="cls-13">
    <g id="Layer_1" data-name="Layer 1">
      <g>
        <g>
          <g>
            <path class="cls-9" d="m266.04,98.76l-50.23,154.38-75.66-110.48c2.55-1.77,4.22-4.71,4.22-8.04,0-.86-.12-1.69-.33-2.48l122-33.39Z"/>
            <path class="cls-9" d="m266.04,98.76l-122,33.39c-1.08-4.16-4.85-7.23-9.35-7.27V3.36l131.34,95.4Z"/>
            <path class="cls-9" d="m266.04,98.76l-122,33.39c-1.08-4.16-4.85-7.23-9.35-7.27V3.36l131.34,95.4Z"/>
            <path class="cls-9" d="m140.16,142.67l75.66,110.48H53.59l75.6-110.41c1.55,1.05,3.42,1.65,5.43,1.65s3.96-.63,5.53-1.72Z"/>
            <path class="cls-9" d="m144.05,132.14c.22.79.33,1.63.33,2.48,0,3.33-1.68,6.27-4.22,8.04-1.57,1.09-3.48,1.72-5.53,1.72s-3.88-.6-5.43-1.65c-2.61-1.75-4.33-4.72-4.33-8.1,0-.87.12-1.72.33-2.52,1.11-4.17,4.9-7.23,9.42-7.23h.08c4.49.04,8.27,3.11,9.35,7.27Z"/>
            <path class="cls-9" d="m134.7,3.36v121.51h-.08c-4.52,0-8.31,3.06-9.42,7.23L3.36,98.76,134.7,3.36Z"/>
            <path class="cls-9" d="m134.7,3.36v121.51h-.08c-4.52,0-8.31,3.06-9.42,7.23L3.36,98.76,134.7,3.36Z"/>
            <path class="cls-9" d="m129.2,142.73l-75.6,110.41L3.36,98.76l121.84,33.35c-.22.81-.33,1.65-.33,2.52,0,3.38,1.72,6.35,4.33,8.1Z"/>
            <path class="cls-9" d="m266.04,98.76l-50.23,154.38-75.66-110.48c2.55-1.77,4.22-4.71,4.22-8.04,0-.86-.12-1.69-.33-2.48l122-33.39Z"/>
            <path class="cls-9" d="m140.16,142.67l75.66,110.48H53.59l75.6-110.41c1.55,1.05,3.42,1.65,5.43,1.65s3.96-.63,5.53-1.72Z"/>
            <path class="cls-9" d="m129.2,142.73l-75.6,110.41L3.36,98.76l121.84,33.35c-.22.81-.33,1.65-.33,2.52,0,3.38,1.72,6.35,4.33,8.1Z"/>
          </g>
          <g>
            <path class="cls-9" d="m3.36,98.76L134.7,3.36,3.36,98.76Z"/>
            <path class="cls-9" d="m134.7,124.87h-.08c-4.52,0-8.31,3.06-9.42,7.23l9.5-7.23Z"/>
            <path class="cls-9" d="m144.05,132.14c-1.08-4.16-4.85-7.23-9.35-7.27V3.36l131.34,95.4-122,33.39Z"/>
            <path class="cls-9" d="m140.16,142.67c2.55-1.77,4.22-4.71,4.22-8.04,0-.86-.12-1.69-.33-2.48l122-33.39-50.23,154.38-75.66-110.48Z"/>
            <path class="cls-9" d="m129.2,142.73c1.55,1.05,3.42,1.65,5.43,1.65s3.96-.63,5.53-1.72l75.66,110.48H53.59l75.6-110.41Z"/>
            <path class="cls-9" d="m129.2,142.73l-75.6,110.41L3.36,98.76l121.84,33.35c-.22.81-.33,1.65-.33,2.52,0,3.38,1.72,6.35,4.33,8.1Z"/>
          </g>
        </g>
        <g>
          <g>
            <path class="cls-30" d="m263.04,95.76l-50.23,154.38-75.66-110.48c2.55-1.77,4.22-4.71,4.22-8.04,0-.86-.12-1.69-.33-2.48l122-33.39Z"/>
            <path class="cls-30" d="m263.04,95.76l-122,33.39c-1.08-4.16-4.85-7.23-9.35-7.27V.36l131.34,95.4Z"/>
            <g class="cls-26">
              <path class="cls-6" d="m263.04,95.76l-122,33.39c-1.08-4.16-4.85-7.23-9.35-7.27V.36l131.34,95.4Z"/>
            </g>
            <path class="cls-30" d="m137.16,139.67l75.66,110.48H50.59l75.6-110.41c1.55,1.05,3.42,1.65,5.43,1.65s3.96-.63,5.53-1.72Z"/>
            <path class="cls-14" d="m141.05,129.14c.22.79.33,1.63.33,2.48,0,3.33-1.68,6.27-4.22,8.04-1.57,1.09-3.48,1.72-5.53,1.72s-3.88-.6-5.43-1.65c-2.61-1.75-4.33-4.72-4.33-8.1,0-.87.12-1.72.33-2.52,1.11-4.17,4.9-7.23,9.42-7.23h.08c4.49.04,8.27,3.11,9.35,7.27Z"/>
            <path class="cls-30" d="m131.7.36v121.51h-.08c-4.52,0-8.31,3.06-9.42,7.23L.36,95.76,131.7.36Z"/>
            <g class="cls-11">
              <path class="cls-3" d="m131.7.36v121.51h-.08c-4.52,0-8.31,3.06-9.42,7.23L.36,95.76,131.7.36Z"/>
            </g>
            <path class="cls-30" d="m126.2,139.73l-75.6,110.41L.36,95.76l121.84,33.35c-.22.81-.33,1.65-.33,2.52,0,3.38,1.72,6.35,4.33,8.1Z"/>
            <g class="cls-22">
              <path class="cls-12" d="m263.04,95.76l-50.23,154.38-75.66-110.48c2.55-1.77,4.22-4.71,4.22-8.04,0-.86-.12-1.69-.33-2.48l122-33.39Z"/>
            </g>
            <g class="cls-23">
              <path class="cls-28" d="m137.16,139.67l75.66,110.48H50.59l75.6-110.41c1.55,1.05,3.42,1.65,5.43,1.65s3.96-.63,5.53-1.72Z"/>
            </g>
            <g class="cls-20">
              <path class="cls-17" d="m126.2,139.73l-75.6,110.41L.36,95.76l121.84,33.35c-.22.81-.33,1.65-.33,2.52,0,3.38,1.72,6.35,4.33,8.1Z"/>
            </g>
          </g>
          <g>
            <path d="m.36,96.12c-.11,0-.22-.05-.29-.15-.12-.16-.08-.39.08-.5L131.49.07c.16-.12.39-.08.5.08s.08.39-.08.5L.57,96.05c-.06.05-.14.07-.21.07Z"/>
            <path d="m122.2,129.46s-.06,0-.09-.01c-.19-.05-.31-.25-.25-.44,1.18-4.42,5.2-7.5,9.77-7.5.2,0,.4.16.4.36s-.12.36-.32.36h-.08c-4.25,0-7.98,2.86-9.07,6.96-.04.16-.19.27-.35.27Z"/>
            <path d="m141.05,129.5c-.16,0-.31-.11-.35-.27-1.06-4.09-4.76-6.97-9-7-.2,0-.36-.16-.36-.36V.36c0-.14.08-.26.2-.32.12-.06.26-.05.38.03l131.34,95.4c.16.12.2.34.08.5-.12.16-.34.2-.5.08L132.06,1.07v120.45c4.42.19,8.23,3.25,9.33,7.53.05.19-.07.39-.26.44-.03,0-.06.01-.09.01Z"/>
            <path d="m212.81,250.5s-.07,0-.11-.02c-.19-.06-.29-.26-.23-.45l50.03-153.75-121.01,33.12c.17.73.26,1.48.26,2.23,0,3.32-1.64,6.43-4.38,8.34-.16.11-.39.07-.5-.09-.11-.16-.07-.39.09-.5,2.55-1.77,4.07-4.66,4.07-7.74,0-.81-.11-1.61-.32-2.39-.03-.09-.01-.19.03-.27.05-.08.12-.14.22-.17l122-33.39c.13-.03.26,0,.36.1.09.1.12.23.08.36l-50.23,154.38c-.05.15-.19.25-.34.25Z"/>
            <path d="m212.81,250.5H50.59c-.2,0-.36-.16-.36-.36s.16-.36.36-.36h161.54l-75.07-109.62c-1.62,1.03-3.49,1.58-5.43,1.58s-3.98-.59-5.63-1.71c-.16-.11-.21-.33-.1-.5.11-.17.34-.21.5-.1,1.53,1.04,3.34,1.59,5.23,1.59s3.76-.57,5.33-1.65c.08-.05.18-.08.27-.06.09.02.18.07.23.15l75.66,110.48c.08.11.08.25.02.37-.06.12-.18.19-.32.19Z"/>
            <path class="cls-21" d="m126.2,139.73l-75.6,110.41L.36,95.76l121.84,33.35c-.22.81-.33,1.65-.33,2.52,0,3.38,1.72,6.35,4.33,8.1Z"/>
          </g>
        </g>
      </g>
    </g>
  </g>
</svg>