<?xml version="1.0" encoding="UTF-8"?>
<svg id="Layer_1" data-name="Layer 1" xmlns="http://www.w3.org/2000/svg" viewBox="0 0 270.95 110.67">
  <defs>
    <style>
      .cls-1 {
        fill: none;
      }

      .cls-1, .cls-2 {
        stroke: #000;
        stroke-miterlimit: 10;
        stroke-width: .6px;
      }

      .cls-2 {
        fill: #baa188;
      }
    </style>
  </defs>
  <rect class="cls-1" x="4.9" y="15.47" width="265.75" height="79.73"/>
  <rect class="cls-2" x="4.61" y="95.2" width="266.04" height="15.17"/>
  <rect class="cls-2" x="4.61" y=".3" width="266.04" height="15.17"/>
  <line class="cls-1" x1="244.08" y1="95.2" x2="244.08" y2="15.47"/>
  <line class="cls-1" x1="217.5" y1="95.2" x2="217.5" y2="15.47"/>
  <line class="cls-1" x1="190.93" y1="95.2" x2="190.93" y2="15.47"/>
  <line class="cls-1" x1="164.35" y1="95.2" x2="164.35" y2="15.47"/>
  <line class="cls-1" x1="137.78" y1="95.2" x2="137.78" y2="15.47"/>
  <line class="cls-1" x1="111.2" y1="95.2" x2="111.2" y2="15.47"/>
  <line class="cls-1" x1="84.63" y1="95.2" x2="84.63" y2="15.47"/>
  <line class="cls-1" x1="58.05" y1="95.2" x2="58.05" y2="15.47"/>
  <line class="cls-1" x1="31.48" y1="95.2" x2="31.48" y2="15.47"/>
  <line class="cls-1" x1="260.84" y1="55.34" x2="6.51" y2="55.34"/>
  <polygon points="270.65 55.34 251.3 60.58 251.3 55.34 251.3 50.09 270.65 55.34"/>
  <path d="m4.61,59.94c-2.54,0-4.61-2.06-4.61-4.61s2.06-4.61,4.61-4.61,4.61,2.06,4.61,4.61-2.06,4.61-4.61,4.61Z"/>
</svg>