<?xml version="1.0" encoding="UTF-8"?>
<svg id="Layer_1" data-name="Layer 1" xmlns="http://www.w3.org/2000/svg" viewBox="0 0 523.6 349.303">
  <defs>
    <style>
      .cls-1 {
        fill: #fff;
      }

      .cls-2 {
        fill: #1d1d1b;
      }
    </style>
  </defs>
  <g>
    <polygon class="cls-1" points="347.802 347.802 391.376 347.802 434.951 347.802 478.525 347.802 522.1 347.802 522.1 173.505 478.525 173.505 434.951 173.505 391.376 173.505 347.802 173.505 347.802 347.802"/>
    <path class="cls-2" d="m523.6,349.303h-177.298v-177.298h177.298v177.298Zm-174.298-3h171.298v-171.298h-171.298v171.298Z"/>
  </g>
  <g>
    <polygon class="cls-1" points="1.5 347.802 45.074 347.802 88.649 347.802 132.223 347.802 175.798 347.802 175.798 173.505 132.223 173.505 88.649 173.505 45.074 173.505 1.5 173.505 1.5 347.802"/>
    <path class="cls-2" d="m177.297,349.303H0v-177.298h177.297v177.298Zm-174.297-3h171.297v-171.298H3v171.298Z"/>
  </g>
  <g>
    <rect class="cls-1" x="110.149" y="239.153" width="174.298" height="43.001" transform="translate(-63.355 457.952) rotate(-90)"/>
    <path class="cls-2" d="m220.299,349.303h-46.001v-177.298h46.001v177.298Zm-43.001-3h40.001v-171.298h-40.001v171.298Z"/>
  </g>
  <g>
    <rect class="cls-1" x="153.15" y="239.153" width="174.298" height="43.001" transform="translate(-20.354 500.953) rotate(-90)"/>
    <path class="cls-2" d="m263.3,349.303h-46.001v-177.298h46.001v177.298Zm-43.001-3h40.001v-171.298h-40.001v171.298Z"/>
  </g>
  <g>
    <rect class="cls-1" x="196.151" y="239.153" width="174.298" height="43.001" transform="translate(22.647 543.954) rotate(-90)"/>
    <path class="cls-2" d="m306.301,349.303h-46.001v-177.298h46.001v177.298Zm-43.001-3h40.001v-171.298h-40.001v171.298Z"/>
  </g>
  <g>
    <rect class="cls-1" x="239.152" y="239.153" width="174.298" height="43.001" transform="translate(65.648 586.955) rotate(-90)"/>
    <path class="cls-2" d="m349.302,349.303h-46.001v-177.298h46.001v177.298Zm-43.001-3h40.001v-171.298h-40.001v171.298Z"/>
  </g>
  <g>
    <rect class="cls-1" x="347.802" y="130.503" width="174.298" height="43.001" transform="translate(869.901 304.008) rotate(180)"/>
    <path class="cls-2" d="m523.6,175.005h-177.298v-46.001h177.298v46.001Zm-174.298-3h171.298v-40.001h-171.298v40.001Z"/>
  </g>
  <g>
    <rect class="cls-1" x="347.802" y="87.502" width="174.298" height="43.001" transform="translate(869.901 218.006) rotate(180)"/>
    <path class="cls-2" d="m523.6,132.004h-177.298v-46.001h177.298v46.001Zm-174.298-3h171.298v-40.001h-171.298v40.001Z"/>
  </g>
  <g>
    <rect class="cls-1" x="347.802" y="44.501" width="174.298" height="43.001" transform="translate(869.901 132.004) rotate(180)"/>
    <path class="cls-2" d="m523.6,89.003h-177.298v-46.002h177.298v46.002Zm-174.298-3h171.298v-40.002h-171.298v40.002Z"/>
  </g>
  <g>
    <rect class="cls-1" x="347.802" y="1.5" width="174.298" height="43.001" transform="translate(869.901 46.002) rotate(180)"/>
    <path class="cls-2" d="m523.6,46.001h-177.298V0h177.298v46.001Zm-174.298-3h171.298V3h-171.298v40.001Z"/>
  </g>
  <g>
    <rect class="cls-1" x="1.5" y="130.503" width="174.298" height="43.001" transform="translate(177.297 304.008) rotate(180)"/>
    <path class="cls-2" d="m177.297,175.005H0v-46.001h177.297v46.001Zm-174.297-3h171.297v-40.001H3v40.001Z"/>
  </g>
  <g>
    <rect class="cls-1" x="1.5" y="87.502" width="174.298" height="43.001" transform="translate(177.297 218.006) rotate(180)"/>
    <path class="cls-2" d="m177.297,132.004H0v-46.001h177.297v46.001Zm-174.297-3h171.297v-40.001H3v40.001Z"/>
  </g>
  <g>
    <rect class="cls-1" x="1.5" y="44.501" width="174.298" height="43.001" transform="translate(177.297 132.004) rotate(180)"/>
    <path class="cls-2" d="m177.297,89.003H0v-46.002h177.297v46.002ZM3,86.003h171.297v-40.002H3v40.002Z"/>
  </g>
  <g>
    <rect class="cls-1" x="1.5" y="1.5" width="174.298" height="43.001" transform="translate(177.297 46.002) rotate(180)"/>
    <path class="cls-2" d="m177.297,46.001H0V0h177.297v46.001ZM3,43.001h171.297V3H3v40.001Z"/>
  </g>
  <g>
    <polygon class="cls-2" points="436.451 262.153 87.149 262.153 87.149 18.175 90.149 18.175 90.149 259.153 433.451 259.153 433.451 21.838 436.451 21.838 436.451 262.153"/>
    <g>
      <path class="cls-1" d="m423.671,22.477c0-6.229,5.051-11.28,11.279-11.28s11.279,5.051,11.279,11.28-5.051,11.279-11.279,11.279-11.279-5.051-11.279-11.279Z"/>
      <path class="cls-2" d="m422.171,22.477c0,7.046,5.733,12.779,12.779,12.779s12.779-5.733,12.779-12.779-5.733-12.78-12.779-12.78-12.779,5.733-12.779,12.78,0-7.046,0,0Zm22.559,0c0,5.393-4.386,9.779-9.779,9.779s-9.779-4.386-9.779-9.779,4.386-9.78,9.779-9.78,9.779,4.386,9.779,9.78,0-5.394,0,0Z"/>
    </g>
    <polygon class="cls-2" points="98.191 35.908 95.369 36.934 88.649 18.468 81.928 36.934 79.11 35.908 88.649 9.698 98.191 35.908"/>
  </g>
</svg>