<?xml version="1.0" encoding="UTF-8"?>
<svg id="Layer_1" data-name="Layer 1" xmlns="http://www.w3.org/2000/svg" viewBox="0 0 304.007 177.298">
  <defs>
    <style>
      .cls-1 {
        fill: #fff;
      }

      .cls-2 {
        fill: #1d1d1b;
      }
    </style>
  </defs>
  <g>
    <rect class="cls-1" x="-64.148" y="67.148" width="174.298" height="43.001" transform="translate(-65.648 111.649) rotate(-90)"/>
    <path class="cls-2" d="m46.001,177.298H0V0h46.001v177.298Zm-43.001-3h40.001V3H3v171.298Z"/>
  </g>
  <g>
    <rect class="cls-1" x="-21.147" y="67.148" width="174.298" height="43.001" transform="translate(-22.647 154.65) rotate(-90)"/>
    <path class="cls-2" d="m89.002,177.298h-46.001V0h46.001v177.298Zm-43.001-3h40.001V3h-40.001v171.298Z"/>
  </g>
  <g>
    <rect class="cls-1" x="21.854" y="67.148" width="174.298" height="43.001" transform="translate(20.354 197.651) rotate(-90)"/>
    <path class="cls-2" d="m132.003,177.298h-46.001V0h46.001v177.298Zm-43.001-3h40.001V3h-40.001v171.298Z"/>
  </g>
  <g>
    <rect class="cls-1" x="64.855" y="67.148" width="174.298" height="43.001" transform="translate(63.355 240.652) rotate(-90)"/>
    <path class="cls-2" d="m175.004,177.298h-46.001V0h46.001v177.298Zm-43.001-3h40.001V3h-40.001v171.298Z"/>
  </g>
  <g>
    <rect class="cls-1" x="107.856" y="67.148" width="174.298" height="43.001" transform="translate(106.356 283.653) rotate(-90)"/>
    <path class="cls-2" d="m218.005,177.298h-46.001V0h46.001v177.298Zm-43.001-3h40.001V3h-40.001v171.298Z"/>
  </g>
  <g>
    <rect class="cls-1" x="150.857" y="67.148" width="174.298" height="43.001" transform="translate(149.357 326.654) rotate(-90)"/>
    <path class="cls-2" d="m261.006,177.298h-46.001V0h46.001v177.298Zm-43.001-3h40.001V3h-40.001v171.298Z"/>
  </g>
  <g>
    <rect class="cls-1" x="193.858" y="67.148" width="174.298" height="43.001" transform="translate(192.358 369.656) rotate(-90)"/>
    <path class="cls-2" d="m304.007,177.298h-46.001V0h46.001v177.298Zm-43.001-3h40.001V3h-40.001v171.298Z"/>
  </g>
  <g>
    <rect class="cls-2" x="18.399" y="87.148" width="262.338" height="3"/>
    <g>
      <path class="cls-1" d="m280.098,77.369c6.229,0,11.279,5.051,11.279,11.279s-5.051,11.279-11.279,11.279-11.279-5.051-11.279-11.279,5.051-11.279,11.279-11.279Z"/>
      <path class="cls-2" d="m280.098,75.869c-7.046,0-12.779,5.733-12.779,12.779s5.733,12.779,12.779,12.779,12.779-5.733,12.779-12.779-5.733-12.779-12.779-12.779,7.046,0,0,0Zm0,22.559c-5.393,0-9.779-4.386-9.779-9.779s4.386-9.779,9.779-9.779,9.779,4.386,9.779,9.779-4.386,9.779-9.779,9.779,5.394,0,0,0Z"/>
    </g>
    <polygon class="cls-2" points="36.133 79.107 37.158 81.928 18.692 88.649 37.158 95.369 36.133 98.188 9.922 88.649 36.133 79.107"/>
  </g>
</svg>