<?xml version="1.0" encoding="UTF-8"?>
<svg id="Layer_1" data-name="Layer 1" xmlns="http://www.w3.org/2000/svg" viewBox="0 0 631.085 631.085">
  <defs>
    <style>
      .cls-1 {
        fill: #fff;
      }

      .cls-2 {
        fill: #1d1d1b;
      }
    </style>
  </defs>
  <g>
    <g>
      <path class="cls-1" d="m398.669,216.477l118.728-141.494c-13.957-11.724-28.941-22.264-44.811-31.446l-92.371,159.991c6.536,3.782,12.706,8.122,18.454,12.95Z"/>
      <path class="cls-2" d="m398.853,218.591l-1.149-.965c-5.702-4.79-11.839-9.097-18.24-12.8l-1.297-.751,93.871-162.589,1.299.752c15.801,9.142,30.949,19.773,45.025,31.596l1.148.964-120.656,143.792Zm-16.594-15.604c5.658,3.362,11.102,7.183,16.22,11.383l116.803-139.2c-13.229-11.004-27.396-20.946-42.149-29.58l-90.873,157.397Z"/>
    </g>
    <g>
      <path class="cls-1" d="m359.786,193.985l63.192-173.62c-16.995-6.187-34.676-10.943-52.896-14.134l-32.08,181.933c7.503,1.314,14.784,3.273,21.783,5.821Z"/>
      <path class="cls-2" d="m360.683,195.908l-1.41-.513c-6.961-2.535-14.205-4.47-21.529-5.753l-1.479-.259L368.866,4.495l1.476.258c18.079,3.166,35.961,7.944,53.15,14.202l1.409.513-64.218,176.439Zm-20.943-8.953c6.5,1.216,12.927,2.934,19.147,5.116l62.168-170.805c-16.122-5.78-32.846-10.248-49.756-13.294l-31.56,178.984Z"/>
    </g>
    <g>
      <path class="cls-1" d="m444.869,315.543h184.716c0-18.603-1.629-36.825-4.731-54.54l-181.933,32.08c1.278,7.295,1.948,14.799,1.948,22.46Z"/>
      <path class="cls-2" d="m631.085,317.042h-187.716v-1.5c0-7.437-.648-14.906-1.926-22.201l-.258-1.476,1.476-.26,183.412-32.34.259,1.479c3.154,18.01,4.753,36.446,4.753,54.798v1.5Zm-184.725-3h181.721c-.083-17.18-1.578-34.424-4.45-51.301l-178.983,31.56c1.062,6.503,1.637,13.129,1.712,19.741Z"/>
    </g>
    <g>
      <path class="cls-1" d="m338.003,188.164L370.083,6.231c-17.715-3.102-35.937-4.731-54.54-4.731v184.716c7.661,0,15.165.671,22.46,1.948Z"/>
      <path class="cls-2" d="m339.22,189.9l-1.476-.258c-7.295-1.278-14.765-1.926-22.202-1.926h-1.5V0h1.5c18.35,0,36.787,1.599,54.799,4.753l1.479.259-32.6,184.888Zm-22.178-5.175c6.612.075,13.238.65,19.742,1.712L368.344,7.453c-16.879-2.872-34.124-4.367-51.301-4.45v181.722Z"/>
    </g>
    <g>
      <path class="cls-1" d="m442.921,293.082l181.933-32.08c-3.191-18.22-7.947-35.901-14.134-52.896l-173.62,63.192c2.548,6.999,4.507,14.28,5.821,21.783Z"/>
      <path class="cls-2" d="m441.703,294.82l-.259-1.479c-1.283-7.324-3.218-14.567-5.752-21.529l-.513-1.41,176.439-64.218.513,1.409c6.258,17.19,11.036,35.072,14.202,53.15l.258,1.476-1.476.26-183.412,32.34Zm-2.688-22.622c2.182,6.221,3.899,12.648,5.116,19.147l178.983-31.559c-3.045-16.909-7.514-33.633-13.294-49.756l-170.805,62.168Z"/>
    </g>
    <g>
      <path class="cls-1" d="m437.1,271.299l173.62-63.192c-6.297-17.297-14.073-33.882-23.171-49.607l-159.991,92.371c3.747,6.476,6.949,13.306,9.542,20.429Z"/>
      <path class="cls-2" d="m436.204,273.222l-.513-1.409c-2.535-6.964-5.708-13.757-9.431-20.19l-.752-1.3,162.589-93.871.75,1.297c9.191,15.886,17.025,32.656,23.283,49.845l.513,1.41-176.439,64.218Zm-6.603-21.798c3.244,5.76,6.06,11.787,8.388,17.956l170.805-62.168c-5.938-16.066-13.263-31.749-21.796-46.662l-157.397,90.873Z"/>
    </g>
    <g>
      <path class="cls-1" d="m427.558,250.87l159.991-92.371c-9.183-15.87-19.722-30.854-31.446-44.811l-141.495,118.728c4.828,5.748,9.168,11.918,12.95,18.454Z"/>
      <path class="cls-2" d="m427.01,252.919l-.75-1.297c-3.703-6.4-8.009-12.537-12.8-18.24l-.965-1.149,143.792-120.656.964,1.148c11.823,14.076,22.454,29.224,31.596,45.025l.752,1.299-162.589,93.871Zm-10.294-20.312c4.2,5.118,8.021,10.563,11.383,16.22l157.397-90.873c-8.633-14.754-18.575-28.921-29.58-42.149l-139.2,116.802Z"/>
    </g>
    <g>
      <path class="cls-1" d="m414.608,232.417l141.495-118.728c-11.757-13.996-24.71-26.95-38.706-38.706l-118.728,141.494c5.764,4.841,11.098,10.176,15.94,15.94Z"/>
      <path class="cls-2" d="m414.424,234.529l-.964-1.148c-4.775-5.684-10.076-10.985-15.756-15.756l-1.148-.964,120.656-143.793,1.149.965c14.026,11.782,27.111,24.867,38.89,38.89l.965,1.149-143.793,120.656Zm-13.648-18.23c5.004,4.301,9.706,9.004,14.01,14.01l139.2-116.803c-11.091-13.076-23.33-25.314-36.408-36.408l-116.803,139.2Z"/>
    </g>
    <g>
      <path class="cls-1" d="m203.527,250.87L43.536,158.5c-9.098,15.725-16.874,32.31-23.171,49.607l173.62,63.192c2.593-7.123,5.795-13.953,9.542-20.429Z"/>
      <path class="cls-2" d="m194.881,273.222L18.442,209.003l.513-1.41c6.257-17.188,14.091-33.959,23.282-49.845l.75-1.297,162.589,93.871-.752,1.299c-3.723,6.435-6.896,13.228-9.431,20.191l-.513,1.409ZM22.291,207.212l170.805,62.168c2.328-6.169,5.143-12.196,8.388-17.956L44.087,160.55c-8.532,14.914-15.858,30.597-21.795,46.662Z"/>
    </g>
    <g>
      <path class="cls-1" d="m216.477,232.417L74.982,113.689c-11.724,13.957-22.263,28.941-31.446,44.811l159.991,92.371c3.781-6.536,8.122-12.706,12.95-18.454Z"/>
      <path class="cls-2" d="m204.075,252.919L41.486,159.048l.752-1.299c9.142-15.8,19.772-30.948,31.596-45.025l.964-1.148,143.792,120.656-.965,1.149c-4.79,5.702-9.096,11.838-12.8,18.24l-.75,1.297ZM45.589,157.954l157.397,90.873c3.362-5.658,7.183-11.102,11.383-16.22L75.169,115.804c-11.005,13.23-20.948,27.397-29.58,42.149Z"/>
    </g>
    <g>
      <path class="cls-1" d="m188.164,293.082c1.314-7.503,3.273-14.784,5.821-21.783L20.365,208.107c-6.187,16.995-10.943,34.676-14.134,52.896l181.933,32.08Z"/>
      <path class="cls-2" d="m189.382,294.82L4.495,262.22l.258-1.476c3.167-18.081,7.945-35.963,14.202-53.15l.513-1.409,176.439,64.218-.513,1.41c-2.535,6.963-4.471,14.207-5.753,21.529l-.259,1.479ZM7.971,259.787l178.983,31.559c1.216-6.498,2.933-12.926,5.116-19.147L21.265,210.031c-5.78,16.121-10.248,32.844-13.294,49.756Z"/>
    </g>
    <g>
      <path class="cls-1" d="m444.869,315.543c0,7.661-.671,15.165-1.948,22.46l181.933,32.08c3.102-17.715,4.731-35.936,4.731-54.54h0s-184.716,0-184.716,0h0Z"/>
      <path class="cls-2" d="m626.072,371.82l-184.887-32.6.258-1.476c1.278-7.295,1.926-14.765,1.926-22.201v-1.5h187.716s0,1.499,0,1.499c0,18.352-1.599,36.789-4.753,54.799l-.259,1.479Zm-181.424-35.036l178.983,31.56c2.872-16.877,4.367-34.121,4.45-51.301h-181.721c-.075,6.611-.65,13.238-1.712,19.741Z"/>
    </g>
    <g>
      <path class="cls-1" d="m271.299,193.985L208.107,20.365c-17.297,6.297-33.882,14.073-49.607,23.171l92.371,159.991c6.476-3.747,13.306-6.949,20.429-9.542Z"/>
      <path class="cls-2" d="m250.322,205.578L156.451,42.989l1.297-.751c15.885-9.191,32.656-17.024,49.846-23.283l1.41-.513,64.218,176.439-1.409.513c-6.963,2.535-13.756,5.708-20.191,9.431l-1.299.752ZM160.55,44.087l90.873,157.397c5.761-3.245,11.788-6.06,17.957-8.388L207.212,22.292c-16.066,5.938-31.75,13.264-46.662,21.796Z"/>
    </g>
    <g>
      <path class="cls-1" d="m315.543,186.216V1.5c-18.603,0-36.825,1.629-54.54,4.731l32.08,181.933c7.295-1.278,14.799-1.948,22.46-1.948Z"/>
      <path class="cls-2" d="m291.866,189.9L259.265,5.013l1.479-.259c18.012-3.154,36.449-4.753,54.799-4.753h1.5v187.716h-1.5c-7.437,0-14.906.648-22.201,1.926l-1.476.258ZM262.741,7.453l31.56,178.984c6.503-1.062,13.129-1.637,19.741-1.712V3.003c-17.178.083-34.422,1.578-51.301,4.45Z"/>
    </g>
    <g>
      <path class="cls-1" d="m232.417,216.477L113.689,74.983c-13.996,11.757-26.95,24.71-38.706,38.706l141.495,118.728c4.841-5.764,10.176-11.098,15.94-15.94Z"/>
      <path class="cls-2" d="m216.662,234.53L72.869,113.873l.965-1.149c11.778-14.023,24.863-27.107,38.89-38.89l1.149-.965,120.656,143.793-1.148.964c-5.683,4.774-10.983,10.074-15.756,15.756l-.964,1.148ZM77.099,113.507l139.2,116.803c4.302-5.004,9.005-9.708,14.01-14.01L113.506,77.099c-13.079,11.094-25.316,23.332-36.407,36.408Z"/>
    </g>
    <g>
      <path class="cls-1" d="m293.082,188.164L261.003,6.231c-18.22,3.191-35.901,7.947-52.896,14.134l63.193,173.62c6.999-2.548,14.28-4.507,21.783-5.821Z"/>
      <path class="cls-2" d="m270.403,195.908L206.184,19.469l1.409-.513c17.189-6.258,35.071-11.036,53.15-14.202l1.476-.258.26,1.476,32.341,183.412-1.479.259c-7.324,1.283-14.567,3.218-21.529,5.753l-1.41.513ZM210.031,21.265l62.168,170.805c6.221-2.182,12.648-3.899,19.148-5.116L259.786,7.971c-16.91,3.046-33.633,7.514-49.755,13.294Z"/>
    </g>
    <g>
      <path class="cls-1" d="m250.87,203.527L158.5,43.536c-15.87,9.183-30.854,19.722-44.811,31.446l118.728,141.494c5.748-4.828,11.918-9.168,18.454-12.95Z"/>
      <path class="cls-2" d="m232.232,218.591L111.576,74.798l1.148-.964c14.076-11.823,29.225-22.454,45.025-31.596l1.299-.752,93.871,162.589-1.297.751c-6.4,3.703-12.538,8.01-18.24,12.8l-1.149.965ZM115.804,75.169l116.803,139.2c5.118-4.2,10.563-8.021,16.22-11.382L157.953,45.59c-14.753,8.633-28.92,18.575-42.149,29.58Z"/>
    </g>
    <g>
      <path class="cls-1" d="m380.215,203.527l92.371-159.991c-15.725-9.099-32.31-16.874-49.607-23.171l-63.192,173.62c7.123,2.593,13.953,5.795,20.429,9.542Z"/>
      <path class="cls-2" d="m380.763,205.578l-1.3-.752c-6.433-3.723-13.227-6.896-20.19-9.431l-1.409-.513L422.082,18.442l1.41.513c17.189,6.258,33.959,14.091,49.845,23.283l1.297.751-93.871,162.589Zm-19.058-12.481c6.169,2.328,12.197,5.144,17.957,8.388l90.873-157.397c-14.913-8.533-30.596-15.858-46.662-21.796l-62.168,170.805Z"/>
    </g>
    <g>
      <path class="cls-1" d="m188.164,293.082L6.231,261.003c-3.102,17.715-4.731,35.936-4.731,54.54h184.716c0-7.661.671-15.165,1.948-22.46Z"/>
      <path class="cls-2" d="m187.716,317.042H0v-1.5c0-18.35,1.599-36.787,4.753-54.798l.259-1.479,184.887,32.6-.258,1.476c-1.278,7.298-1.926,14.767-1.926,22.201v1.5Zm-184.712-3h181.721c.075-6.609.65-13.237,1.712-19.741L7.453,262.742c-2.872,16.878-4.367,34.123-4.45,51.301Z"/>
    </g>
    <g>
      <path class="cls-1" d="m414.608,398.669l141.495,118.728c11.724-13.957,22.264-28.941,31.446-44.811l-159.991-92.371c-3.781,6.536-8.122,12.706-12.95,18.454Z"/>
      <path class="cls-2" d="m556.287,519.509l-143.792-120.656.965-1.149c4.791-5.703,9.097-11.84,12.8-18.24l.75-1.297,162.589,93.871-.752,1.299c-9.142,15.801-19.772,30.949-31.596,45.025l-.964,1.148Zm-139.571-121.03l139.2,116.802c11.004-13.228,20.946-27.396,29.58-42.149l-157.397-90.873c-3.362,5.657-7.183,11.102-11.383,16.22Z"/>
    </g>
    <g>
      <path class="cls-1" d="m398.669,414.608l118.728,141.494c13.996-11.756,26.95-24.71,38.706-38.706l-141.495-118.728c-4.841,5.764-10.176,11.098-15.94,15.94Z"/>
      <path class="cls-2" d="m517.212,558.217l-120.656-143.793,1.148-.964c5.68-4.771,10.981-10.072,15.756-15.756l.964-1.148,143.793,120.656-.965,1.149c-11.779,14.023-24.864,27.108-38.89,38.89l-1.149.965Zm-116.436-143.431l116.803,139.2c13.078-11.094,25.316-23.332,36.408-36.408l-139.2-116.803c-4.305,5.006-9.007,9.709-14.01,14.01Z"/>
    </g>
    <g>
      <path class="cls-1" d="m380.215,427.558l92.371,159.991c15.87-9.182,30.854-19.722,44.811-31.446l-118.728-141.494c-5.748,4.828-11.918,9.168-18.454,12.95Z"/>
      <path class="cls-2" d="m472.037,589.599l-93.871-162.588,1.297-.751c6.402-3.704,12.539-8.011,18.24-12.8l1.149-.965,120.656,143.793-1.148.964c-14.076,11.823-29.224,22.454-45.025,31.596l-1.299.752Zm-89.778-161.501l90.873,157.397c14.754-8.633,28.921-18.575,42.149-29.58l-116.803-139.2c-5.117,4.2-10.561,8.021-16.22,11.383Z"/>
    </g>
    <g>
      <path class="cls-1" d="m427.558,380.215l159.991,92.371c9.099-15.725,16.874-32.31,23.171-49.607l-173.62-63.192c-2.593,7.123-5.795,13.953-9.542,20.429Z"/>
      <path class="cls-2" d="m588.097,474.634l-162.589-93.871.752-1.3c3.723-6.434,6.896-13.227,9.431-20.19l.513-1.409,176.439,64.218-.513,1.41c-6.258,17.189-14.091,33.959-23.283,49.845l-.75,1.297Zm-158.496-94.972l157.397,90.873c8.533-14.913,15.858-30.596,21.796-46.662l-170.805-62.168c-2.328,6.169-5.144,12.197-8.388,17.957Z"/>
    </g>
    <g>
      <path class="cls-1" d="m437.1,359.786l173.62,63.192c6.187-16.995,10.943-34.676,14.134-52.896l-181.933-32.08c-1.314,7.503-3.273,14.784-5.821,21.783Z"/>
      <path class="cls-2" d="m611.617,424.901l-176.439-64.218.513-1.41c2.535-6.961,4.47-14.205,5.752-21.529l.259-1.479,184.887,32.6-.258,1.476c-3.165,18.078-7.944,35.96-14.202,53.15l-.513,1.409Zm-172.602-66.014l170.805,62.168c5.78-16.123,10.249-32.847,13.294-49.756l-178.983-31.56c-1.216,6.499-2.934,12.927-5.116,19.148Z"/>
    </g>
    <g>
      <path class="cls-1" d="m315.543,444.869v184.716c18.603,0,36.825-1.629,54.54-4.731l-32.08-181.933c-7.295,1.278-14.799,1.948-22.46,1.948Z"/>
      <path class="cls-2" d="m315.543,631.085h-1.5v-187.716h1.5c7.434,0,14.903-.648,22.202-1.926l1.476-.258.26,1.476,32.34,183.412-1.479.259c-18.012,3.154-36.449,4.753-54.799,4.753Zm1.5-184.725v181.721c17.178-.083,34.422-1.578,51.301-4.45l-31.559-178.983c-6.505,1.061-13.132,1.637-19.742,1.712Z"/>
    </g>
    <g>
      <path class="cls-1" d="m338.003,442.921l32.08,181.933c18.22-3.191,35.901-7.947,52.896-14.134l-63.192-173.62c-6.999,2.548-14.28,4.507-21.783,5.821Z"/>
      <path class="cls-2" d="m368.866,626.59l-32.601-184.887,1.479-.259c7.325-1.283,14.568-3.219,21.529-5.753l1.41-.513,64.218,176.439-1.409.513c-17.189,6.258-35.071,11.036-53.15,14.202l-1.476.258Zm-29.127-182.459l31.56,178.983c16.91-3.046,33.634-7.514,49.756-13.294l-62.168-170.805c-6.22,2.182-12.647,3.899-19.147,5.116Z"/>
    </g>
    <g>
      <path class="cls-1" d="m359.786,437.1l63.192,173.62c17.297-6.297,33.882-14.073,49.607-23.171l-92.371-159.991c-6.476,3.747-13.306,6.949-20.429,9.542Z"/>
      <path class="cls-2" d="m422.082,612.643l-64.218-176.439,1.409-.513c6.963-2.535,13.756-5.708,20.191-9.431l1.299-.752,93.871,162.588-1.297.751c-15.886,9.191-32.656,17.025-49.845,23.283l-1.41.513Zm-60.377-174.654l62.168,170.805c16.065-5.938,31.748-13.263,46.662-21.796l-90.873-157.397c-5.761,3.245-11.788,6.06-17.957,8.388Z"/>
    </g>
  </g>
  <g>
    <path class="cls-2" d="m335.942,546.309l-.275-2.987c115.536-10.668,202.662-106.329,202.662-222.517,0-123.223-100.249-223.473-223.472-223.473-115.987,0-211.632,86.96-222.481,202.278l-2.986-.281c5.255-55.865,31.04-107.583,72.603-145.626,41.829-38.286,96.118-59.371,152.865-59.371,60.493,0,117.365,23.557,160.14,66.332,42.775,42.775,66.332,99.647,66.332,160.14,0,56.816-21.129,111.152-59.496,153.001-38.127,41.588-89.939,67.336-145.89,72.503Z"/>
    <polygon class="cls-2" points="102.469 282.851 99.77 281.537 91.161 299.201 86.402 280.135 83.492 280.861 90.246 307.923 102.469 282.851"/>
    <g>
      <path class="cls-1" d="m335.653,533.47c-6.214.431-10.903,5.819-10.471,12.033.431,6.214,5.819,10.903,12.033,10.471,6.213-.431,10.902-5.819,10.471-12.033-.431-6.214-5.82-10.903-12.033-10.471Z"/>
      <path class="cls-2" d="m335.55,531.974c7.029-.488,13.145,4.835,13.633,11.864.488,7.029-4.835,13.146-11.864,13.633-7.029.488-13.146-4.835-13.633-11.864-.488-7.029,4.835-13.146,11.864-13.633,7.029-.488-7.029.488,0,0Zm1.561,22.504c5.381-.373,9.452-5.052,9.079-10.433-.373-5.381-5.052-9.452-10.433-9.079-5.381.373-9.452,5.052-9.079,10.433s5.052,9.452,10.433,9.079c5.381-.373-5.381.373,0,0Z"/>
    </g>
  </g>
</svg>