<?xml version="1.0" encoding="UTF-8"?>
<svg id="Layer_1" data-name="Layer 1" xmlns="http://www.w3.org/2000/svg" viewBox="0 0 478.305 478.305">
  <defs>
    <style>
      .cls-1 {
        fill: #fff;
      }

      .cls-2 {
        fill: #1d1d1b;
      }
    </style>
  </defs>
  <g>
    <rect class="cls-1" x="-64.148" y="368.156" width="174.298" height="43.001" transform="translate(-366.656 412.657) rotate(-90)"/>
    <path class="cls-2" d="m46.001,478.305H0v-177.298h46.001v177.298Zm-43.001-3h40.001v-171.298H3v171.298Z"/>
  </g>
  <g>
    <rect class="cls-1" x="-21.147" y="368.156" width="174.298" height="43.001" transform="translate(-323.655 455.658) rotate(-90)"/>
    <path class="cls-2" d="m89.002,478.305h-46.001v-177.298h46.001v177.298Zm-43.001-3h40.001v-171.298h-40.001v171.298Z"/>
  </g>
  <g>
    <rect class="cls-1" x="21.854" y="368.156" width="174.298" height="43.001" transform="translate(-280.654 498.659) rotate(-90)"/>
    <path class="cls-2" d="m132.003,478.305h-46.001v-177.298h46.001v177.298Zm-43.001-3h40.001v-171.298h-40.001v171.298Z"/>
  </g>
  <g>
    <rect class="cls-1" x="64.855" y="368.156" width="174.298" height="43.001" transform="translate(-237.653 541.66) rotate(-90)"/>
    <path class="cls-2" d="m175.004,478.305h-46.001v-177.298h46.001v177.298Zm-43.001-3h40.001v-171.298h-40.001v171.298Z"/>
  </g>
  <g>
    <rect class="cls-1" x="107.856" y="368.156" width="174.298" height="43.001" transform="translate(-194.652 584.661) rotate(-90)"/>
    <path class="cls-2" d="m218.005,478.305h-46.001v-177.298h46.001v177.298Zm-43.001-3h40.001v-171.298h-40.001v171.298Z"/>
  </g>
  <g>
    <rect class="cls-1" x="150.857" y="368.156" width="174.298" height="43.001" transform="translate(-151.651 627.662) rotate(-90)"/>
    <path class="cls-2" d="m261.006,478.305h-46.001v-177.298h46.001v177.298Zm-43.001-3h40.001v-171.298h-40.001v171.298Z"/>
  </g>
  <g>
    <rect class="cls-1" x="193.858" y="368.156" width="174.298" height="43.001" transform="translate(-108.65 670.663) rotate(-90)"/>
    <path class="cls-2" d="m304.007,478.305h-46.001v-177.298h46.001v177.298Zm-43.001-3h40.001v-171.298h-40.001v171.298Z"/>
  </g>
  <g>
    <rect class="cls-1" x="302.507" y="1.5" width="174.298" height="43.001"/>
    <path class="cls-2" d="m478.305,46.002h-177.298V0h177.298v46.002Zm-174.298-3h171.298V3h-171.298v40.002Z"/>
  </g>
  <g>
    <rect class="cls-1" x="302.507" y="44.501" width="174.298" height="43.001"/>
    <path class="cls-2" d="m478.305,89.002h-177.298v-46.001h177.298v46.001Zm-174.298-3h171.298v-40.001h-171.298v40.001Z"/>
  </g>
  <g>
    <rect class="cls-1" x="302.507" y="87.502" width="174.298" height="43.001"/>
    <path class="cls-2" d="m478.305,132.003h-177.298v-46.001h177.298v46.001Zm-174.298-3h171.298v-40.001h-171.298v40.001Z"/>
  </g>
  <g>
    <rect class="cls-1" x="302.507" y="130.503" width="174.298" height="43.001"/>
    <path class="cls-2" d="m478.305,175.004h-177.298v-46.001h177.298v46.001Zm-174.298-3h171.298v-40.001h-171.298v40.001Z"/>
  </g>
  <g>
    <rect class="cls-1" x="302.507" y="173.505" width="174.298" height="43.001"/>
    <path class="cls-2" d="m478.305,218.005h-177.298v-46.001h177.298v46.001Zm-174.298-3h171.298v-40.001h-171.298v40.001Z"/>
  </g>
  <g>
    <rect class="cls-1" x="302.507" y="216.506" width="174.298" height="43.001"/>
    <path class="cls-2" d="m478.305,261.006h-177.298v-46.001h177.298v46.001Zm-174.298-3h171.298v-40.001h-171.298v40.001Z"/>
  </g>
  <g>
    <rect class="cls-1" x="302.507" y="259.507" width="174.298" height="43.001"/>
    <path class="cls-2" d="m478.305,304.007h-177.298v-46.001h177.298v46.001Zm-174.298-3h171.298v-40.001h-171.298v40.001Z"/>
  </g>
  <g>
    <polygon class="cls-1" points="302.507 476.805 346.082 476.805 389.656 476.805 433.231 476.805 476.805 476.805 476.805 302.508 433.231 302.508 389.656 302.508 346.082 302.508 302.507 302.508 302.507 476.805"/>
    <path class="cls-2" d="m478.305,478.305h-177.298v-177.298h177.298v177.298Zm-174.298-3h171.298v-171.298h-171.298v171.298Z"/>
  </g>
  <g>
    <polygon class="cls-2" points="389.559 392.303 18.399 392.303 18.399 389.303 386.572 389.303 388.105 23.859 391.105 23.872 389.559 392.303"/>
    <g>
      <path class="cls-1" d="m378.323,24.457c.026-6.228,5.098-11.258,11.327-11.232,6.229.026,11.258,5.098,11.232,11.327-.026,6.228-5.098,11.258-11.327,11.232-6.229-.026-11.258-5.098-11.232-11.327Z"/>
      <path class="cls-2" d="m376.823,24.451c-.029,7.046,5.68,12.803,12.726,12.833,7.046.03,12.803-5.68,12.833-12.725.03-7.046-5.68-12.803-12.726-12.833-7.046-.029-12.803,5.68-12.833,12.726-.029,7.046.03-7.046,0,0Zm22.559.095c-.023,5.393-4.427,9.761-9.82,9.738-5.394-.023-9.761-4.427-9.738-9.82.023-5.394,4.427-9.761,9.82-9.738,5.394.023,9.761,4.427,9.738,9.82-.023,5.393.023-5.394,0,0Z"/>
    </g>
    <polygon class="cls-2" points="36.133 381.261 37.158 384.082 18.692 390.803 37.158 397.524 36.133 400.342 9.922 390.803 36.133 381.261"/>
  </g>
  <g>
    <g>
      <rect class="cls-1" x="301.486" y="302.508" width="175.319" height="174.298" transform="translate(778.291 779.313) rotate(180)"/>
      <path class="cls-2" d="m478.305,478.305h-178.319v-177.298h178.319v177.298Zm-175.319-3h172.319v-171.298h-172.319v171.298Z"/>
    </g>
    <g>
      <line class="cls-1" x1="476.805" y1="476.805" x2="303.455" y2="305.064"/>
      <rect class="cls-2" x="388.63" y="268.925" width="3" height="244.019" transform="translate(-162.163 392.941) rotate(-45.267)"/>
    </g>
    <g>
      <line class="cls-1" x1="476.805" y1="375.433" x2="304.003" y2="304.521"/>
      <rect class="cls-2" x="388.904" y="246.583" width="3" height="186.786" transform="translate(-72.335 572.08) rotate(-67.688)"/>
    </g>
    <g>
      <line class="cls-1" x1="302.397" y1="304.389" x2="374.483" y2="476.805"/>
      <rect class="cls-2" x="336.94" y="297.157" width="3" height="186.88" transform="translate(-124.476 160.778) rotate(-22.69)"/>
    </g>
    <path class="cls-2" d="m301.519,392.434l-.064-3c47.526-1.018,86.191-40.013,86.191-86.927h3c0,23.684-9.249,46.04-26.043,62.953-16.764,16.882-39.167,26.461-63.084,26.974Z"/>
  </g>
</svg>