<?xml version="1.0" encoding="UTF-8"?>
<svg id="Layer_1" data-name="Layer 1" xmlns="http://www.w3.org/2000/svg" viewBox="0 0 478.305 478.305">
  <defs>
    <style>
      .cls-1 {
        fill: #fff;
      }

      .cls-2 {
        fill: #1d1d1b;
      }
    </style>
  </defs>
  <g>
    <rect class="cls-1" x="302.508" y="433.804" width="174.298" height="43.001" transform="translate(779.313 910.609) rotate(180)"/>
    <path class="cls-2" d="m478.305,478.305h-177.297v-46.001h177.297v46.001Zm-174.297-3h171.297v-40.001h-171.297v40.001Z"/>
  </g>
  <g>
    <rect class="cls-1" x="302.508" y="390.803" width="174.298" height="43.001" transform="translate(779.313 824.607) rotate(180)"/>
    <path class="cls-2" d="m478.305,435.304h-177.297v-46.002h177.297v46.002Zm-174.297-3h171.297v-40.002h-171.297v40.002Z"/>
  </g>
  <g>
    <rect class="cls-1" x="302.508" y="347.802" width="174.298" height="43.001" transform="translate(779.313 738.605) rotate(180)"/>
    <path class="cls-2" d="m478.305,392.303h-177.297v-46.001h177.297v46.001Zm-174.297-3h171.297v-40.001h-171.297v40.001Z"/>
  </g>
  <g>
    <rect class="cls-1" x="302.508" y="304.801" width="174.298" height="43.001" transform="translate(779.313 652.603) rotate(180)"/>
    <path class="cls-2" d="m478.305,349.302h-177.297v-46.001h177.297v46.001Zm-174.297-3h171.297v-40.001h-171.297v40.001Z"/>
  </g>
  <g>
    <rect class="cls-1" x="302.508" y="261.8" width="174.298" height="43.001" transform="translate(779.313 566.6) rotate(180)"/>
    <path class="cls-2" d="m478.305,306.301h-177.297v-46.001h177.297v46.001Zm-174.297-3h171.297v-40.001h-171.297v40.001Z"/>
  </g>
  <g>
    <rect class="cls-1" x="302.508" y="218.799" width="174.298" height="43.001" transform="translate(779.313 480.598) rotate(180)"/>
    <path class="cls-2" d="m478.305,263.3h-177.297v-46.001h177.297v46.001Zm-174.297-3h171.297v-40.001h-171.297v40.001Z"/>
  </g>
  <g>
    <rect class="cls-1" x="302.508" y="175.798" width="174.298" height="43.001" transform="translate(779.313 394.596) rotate(180)"/>
    <path class="cls-2" d="m478.305,220.299h-177.297v-46.002h177.297v46.002Zm-174.297-3h171.297v-40.002h-171.297v40.002Z"/>
  </g>
  <g>
    <rect class="cls-1" x="-64.148" y="67.148" width="174.298" height="43.001" transform="translate(-65.648 111.649) rotate(-90)"/>
    <path class="cls-2" d="m46.001,177.297H0V0h46.001v177.297Zm-43.001-3h40.001V3H3v171.297Z"/>
  </g>
  <g>
    <rect class="cls-1" x="-21.147" y="67.148" width="174.298" height="43.001" transform="translate(-22.647 154.65) rotate(-90)"/>
    <path class="cls-2" d="m89.002,177.297h-46.001V0h46.001v177.297Zm-43.001-3h40.001V3h-40.001v171.297Z"/>
  </g>
  <g>
    <rect class="cls-1" x="193.858" y="67.148" width="174.298" height="43.001" transform="translate(192.358 369.656) rotate(-90)"/>
    <path class="cls-2" d="m304.008,177.297h-46.001V0h46.001v177.297Zm-43.001-3h40.001V3h-40.001v171.297Z"/>
  </g>
  <g>
    <polygon class="cls-1" points="476.805 175.798 476.805 132.223 476.805 88.649 476.805 45.074 476.805 1.5 302.508 1.5 302.508 45.074 302.508 88.649 302.508 132.223 302.508 175.798 476.805 175.798"/>
    <path class="cls-2" d="m478.305,177.297h-177.297V0h177.297v177.297Zm-174.297-3h171.297V3h-171.297v171.297Z"/>
  </g>
  <g>
    <polygon class="cls-1" points="122.312 1.5 87.502 1.5 87.502 175.798 130.503 175.798 130.503 19.522 122.312 1.5"/>
    <path class="cls-2" d="m132.003,177.297h-46.001V0h37.275l8.726,19.197v158.1Zm-43.001-3h40.001V19.847l-7.658-16.847h-32.343v171.297Z"/>
  </g>
  <g>
    <polygon class="cls-1" points="173.504 1.5 145.472 1.5 173.504 63.172 173.504 1.5"/>
    <path class="cls-2" d="m175.004,70.097L143.142,0h31.862v70.097ZM147.802,3l24.203,53.247V3h-24.203Z"/>
  </g>
  <g>
    <polygon class="cls-1" points="130.503 19.522 130.503 175.798 173.504 175.798 173.504 114.126 130.503 19.522"/>
    <path class="cls-2" d="m175.004,177.297h-46.001V12.597l46.001,101.204v63.497Zm-43.001-3h40.001v-59.847l-40.001-88.003v147.851Z"/>
  </g>
  <g>
    <polygon class="cls-1" points="216.505 157.775 216.505 1.5 173.504 1.5 173.504 63.172 216.505 157.775"/>
    <path class="cls-2" d="m218.005,164.7l-46.001-101.204V0h46.001v164.7Zm-43.001-101.853l40.001,88.004V3h-40.001v59.847Z"/>
  </g>
  <g>
    <polygon class="cls-1" points="173.504 175.798 201.537 175.798 173.504 114.126 173.504 175.798"/>
    <path class="cls-2" d="m203.866,177.297h-31.862v-70.097l31.862,70.097Zm-28.862-3h24.203l-24.203-53.247v53.247Z"/>
  </g>
  <g>
    <polygon class="cls-1" points="259.507 1.5 216.505 1.5 216.505 157.775 224.697 175.798 259.507 175.798 259.507 1.5"/>
    <path class="cls-2" d="m261.007,177.297h-37.275l-8.726-19.197V0h46.001v177.297Zm-35.344-3h32.344V3h-40.001v154.451l7.658,16.847Z"/>
  </g>
  <g>
    <polygon class="cls-2" points="391.157 459.906 388.157 459.906 388.157 91.733 183.354 90.871 183.367 87.871 391.157 88.746 391.157 459.906"/>
    <polygon class="cls-2" points="380.114 442.172 382.936 441.147 389.656 459.613 396.377 441.147 399.196 442.172 389.656 468.383 380.114 442.172"/>
  </g>
  <g>
    <rect class="cls-2" x="82.195" y="29.122" width="3" height="119.66" transform="translate(-5.608 172.271) rotate(-89.759)"/>
    <g>
      <path class="cls-1" d="m24.457,99.982c-6.228-.026-11.258-5.098-11.232-11.327.026-6.228,5.098-11.258,11.327-11.232,6.228.026,11.258,5.098,11.232,11.327-.026,6.229-5.098,11.258-11.327,11.232Z"/>
      <path class="cls-2" d="m24.451,101.482c7.046.03,12.803-5.68,12.833-12.725.03-7.046-5.679-12.803-12.725-12.833-7.046-.03-12.803,5.679-12.833,12.725-.03,7.046,5.679,12.803,12.725,12.833,7.046.03-7.046-.03,0,0Zm.095-22.558c5.393.023,9.761,4.427,9.738,9.82s-4.427,9.761-9.82,9.738c-5.394-.023-9.761-4.427-9.738-9.82s4.427-9.761,9.82-9.738c5.393.023-5.394-.023,0,0Z"/>
    </g>
    <polygon class="cls-2" points="125.751 98.671 124.737 95.845 143.231 89.202 124.794 82.404 125.831 79.59 152.001 89.239 125.751 98.671"/>
  </g>
</svg>