<?xml version="1.0" encoding="UTF-8"?>
<svg id="Layer_1" data-name="Layer 1" xmlns="http://www.w3.org/2000/svg" viewBox="0 0 349.382 519.013">
  <defs>
    <style>
      .cls-1 {
        fill: #fff;
      }

      .cls-2 {
        fill: #1d1d1b;
      }
    </style>
  </defs>
  <g>
    <g>
      <path class="cls-1" d="m26.052,44.501h297.278c5.359-11.135,11.132-22.119,17.371-32.91,1.956-3.383,3.965-6.745,6.008-10.091H2.673c2.043,3.346,4.051,6.707,6.008,10.091,6.239,10.791,12.012,21.776,17.371,32.91Z"/>
      <path class="cls-2" d="m324.273,46.001H25.109l-.409-.85c-5.446-11.315-11.273-22.354-17.318-32.81-1.829-3.164-3.788-6.455-5.989-10.06L0,0h349.382l-1.393,2.281c-2.201,3.605-4.16,6.896-5.989,10.06-6.046,10.456-11.873,21.495-17.319,32.81l-.409.85Zm-297.278-3h295.394c5.361-11.085,11.083-21.901,17.015-32.161,1.448-2.505,2.976-5.087,4.639-7.84H5.34c1.663,2.753,3.191,5.335,4.64,7.84,5.932,10.26,11.654,21.076,17.015,32.161Z"/>
    </g>
    <g>
      <path class="cls-1" d="m44.315,87.502h260.751c4.682-12.681,9.895-25.21,15.648-37.55.851-1.825,1.741-3.635,2.615-5.452H26.052c.874,1.816,1.764,3.627,2.615,5.452,5.753,12.34,10.966,24.868,15.648,37.549Z"/>
      <path class="cls-2" d="m306.112,89.002H43.27l-.362-.98c-4.677-12.669-9.926-25.264-15.601-37.435-.602-1.291-1.224-2.575-1.845-3.859l-1.796-3.727h302.05l-1.802,3.738c-.62,1.28-1.24,2.56-1.84,3.847-5.677,12.178-10.926,24.773-15.601,37.435l-.362.98Zm-260.752-3h258.663c4.611-12.409,9.767-24.745,15.333-36.684.517-1.109,1.049-2.214,1.583-3.317H28.443c.534,1.103,1.066,2.208,1.583,3.318,5.563,11.932,10.719,24.267,15.333,36.683Z"/>
    </g>
    <g>
      <path class="cls-1" d="m45.209,89.921c4.858,13.373,9.112,26.915,12.781,40.582h233.401c3.669-13.667,7.924-27.209,12.781-40.582.293-.808.596-1.613.894-2.419H44.315c.298.806.6,1.611.894,2.419Z"/>
      <path class="cls-2" d="m292.542,132.003H56.84l-.298-1.111c-3.674-13.684-7.961-27.296-12.742-40.459h0c-.184-.505-.371-1.009-.558-1.513l-1.078-2.918h265.055l-1.078,2.918c-.187.504-.374,1.008-.558,1.514-4.783,13.167-9.07,26.78-12.742,40.458l-.298,1.111Zm-233.403-3h231.104c3.627-13.387,7.837-26.702,12.521-39.594.049-.136.099-.271.148-.407H46.47c.05.136.099.272.148.406h0c4.682,12.888,8.892,26.203,12.52,39.595Z"/>
    </g>
    <g>
      <path class="cls-1" d="m58.177,131.186c3.727,13.962,6.832,28.054,9.319,42.234.005.028.009.056.014.084h214.362c.005-.028.009-.056.014-.084,2.488-14.18,5.592-28.273,9.319-42.235.061-.228.125-.455.186-.683H57.99c.061.228.125.455.186.683Z"/>
      <path class="cls-2" d="m281.872,175.004H66.254l-.221-1.236c-2.493-14.216-5.619-28.383-9.306-42.195l-.697-2.569h237.32l-.697,2.571c-3.685,13.806-6.811,27.973-9.29,42.104l-.218,1.241-1.274.084Zm-213.104-3h211.845c2.397-13.471,5.359-26.892,8.822-40.001H59.946c3.471,13.138,6.436,26.582,8.823,40.001Z"/>
    </g>
    <g>
      <path class="cls-1" d="m73.112,216.301c.006.068.011.136.017.204h203.125c.006-.068.011-.136.017-.204,1.246-14.324,3.114-28.604,5.602-42.797H67.51c2.487,14.193,4.356,28.473,5.602,42.797Z"/>
      <path class="cls-2" d="m277.628,218.005H71.753l-.136-1.573c-1.237-14.222-3.116-28.577-5.585-42.669l-.308-1.759h217.934l-.308,1.759c-2.469,14.085-4.348,28.441-5.585,42.669l-.136,1.573Zm-203.125-3h200.375c1.192-13.34,2.943-26.781,5.211-40.001H69.292c2.269,13.226,4.019,26.667,5.211,40.001Z"/>
    </g>
    <g>
      <path class="cls-1" d="m74.994,259.507h199.394c0-14.349.627-28.696,1.865-43.001H73.129c1.238,14.305,1.865,28.653,1.865,43.001Z"/>
      <path class="cls-2" d="m74.994,261.007h-1.5v-1.5c0-14.187-.625-28.611-1.86-42.873l-.141-1.629h206.396l-.141,1.629c-1.235,14.262-1.86,28.686-1.86,42.872v1.5H74.994Zm1.497-3h196.399c.041-13.248.622-26.69,1.73-40.002H74.761c1.108,13.312,1.689,26.754,1.73,40.002Z"/>
    </g>
    <g>
      <path class="cls-1" d="m74.994,259.507c0,14.348-.627,28.696-1.865,43.001h203.125c-1.238-14.305-1.865-28.653-1.865-43.001H74.994Z"/>
      <path class="cls-2" d="m277.889,304.008H71.493l.141-1.629c1.235-14.262,1.86-28.686,1.86-42.872v-1.5h202.395v1.5c0,14.186.625,28.61,1.86,42.872l.141,1.629Zm-203.128-3h199.859c-1.108-13.312-1.689-26.754-1.73-40.001H76.491c-.04,13.247-.622,26.688-1.73,40.001Z"/>
    </g>
    <g>
      <path class="cls-1" d="m73.112,302.711c-1.246,14.324-3.114,28.604-5.602,42.797h214.362c-2.487-14.193-4.356-28.473-5.602-42.797-.006-.068-.011-.136-.017-.204H73.128c-.006.068-.011.136-.017.204Z"/>
      <path class="cls-2" d="m283.658,347.009H65.725l.308-1.759c2.469-14.087,4.348-28.443,5.585-42.669l.136-1.573h205.875l.128,1.483c1.244,14.312,3.123,28.667,5.593,42.759l.308,1.759Zm-214.365-3h210.797c-2.269-13.226-4.02-26.667-5.211-40.001H74.503c-1.192,13.338-2.943,26.779-5.211,40.001Z"/>
    </g>
    <g>
      <path class="cls-1" d="m67.496,345.592c-2.488,14.18-5.592,28.273-9.319,42.235-.061.228-.125.455-.186.682h233.401c-.061-.228-.126-.455-.186-.683-3.727-13.962-6.832-28.054-9.319-42.234-.005-.028-.009-.056-.014-.084H67.51c-.005.028-.009.056-.014.084Z"/>
      <path class="cls-2" d="m293.347,390.01H56.031l.697-2.571c3.685-13.806,6.811-27.973,9.29-42.105l.016-.089.221-1.236h216.874l.221,1.236c2.493,14.216,5.619,28.383,9.306,42.195l.693,2.569Zm-233.401-3h229.49c-3.471-13.139-6.436-26.583-8.823-40.001H68.769c-2.388,13.424-5.353,26.868-8.823,40.001Zm7.55-41.417l.015.003-.015-.003Z"/>
    </g>
    <g>
      <path class="cls-1" d="m45.209,429.092c-.293.808-.596,1.613-.894,2.419h260.751c-.298-.806-.6-1.611-.894-2.419-4.858-13.373-9.112-26.915-12.781-40.582H57.99c-3.669,13.667-7.924,27.209-12.781,40.582Z"/>
      <path class="cls-2" d="m307.218,433.011H42.163l1.053-2.848c.196-.527.392-1.055.584-1.583h0c4.783-13.168,9.07-26.781,12.742-40.459l.298-1.111h235.702l.298,1.111c3.674,13.684,7.961,27.296,12.742,40.459.184.505.371,1.009.558,1.513l1.078,2.918Zm-260.748-3h256.441c-.05-.136-.099-.271-.148-.406-4.682-12.888-8.892-26.203-12.521-39.595H59.139c-3.627,13.387-7.837,26.702-12.52,39.594h0c-.049.136-.099.271-.148.407Z"/>
    </g>
    <g>
      <path class="cls-1" d="m305.067,431.511H44.315c-4.682,12.681-9.895,25.209-15.648,37.55-.851,1.825-1.741,3.635-2.615,5.452h297.278c-.874-1.816-1.764-3.627-2.615-5.452-5.753-12.34-10.967-24.869-15.648-37.549Z"/>
      <path class="cls-2" d="m325.716,476.012H23.666l1.802-3.738c.62-1.28,1.24-2.56,1.84-3.847,5.677-12.178,10.926-24.774,15.601-37.436l.362-.98h262.842l.362.98c4.677,12.668,9.926,25.264,15.601,37.435.602,1.291,1.224,2.575,1.845,3.859l1.796,3.727Zm-297.272-3h292.495c-.534-1.104-1.066-2.208-1.583-3.318-5.564-11.932-10.719-24.268-15.333-36.683H45.359c-4.611,12.409-9.768,24.745-15.333,36.684-.517,1.109-1.049,2.214-1.583,3.317Z"/>
    </g>
    <g>
      <path class="cls-1" d="m323.33,474.512H26.052c-5.359,11.135-11.132,22.12-17.371,32.911-1.956,3.383-3.965,6.744-6.007,10.091h344.035c-2.043-3.346-4.051-6.707-6.008-10.091-6.239-10.791-12.012-21.776-17.371-32.911Z"/>
      <path class="cls-2" d="m349.382,519.013H0l1.393-2.281c2.192-3.59,4.15-6.88,5.989-10.061,6.049-10.462,11.876-21.5,17.319-32.81l.409-.85h299.163l.409.85c5.449,11.32,11.275,22.358,17.318,32.81,1.829,3.164,3.788,6.455,5.989,10.061l1.393,2.281Zm-344.042-3h338.703c-1.664-2.753-3.192-5.335-4.64-7.84-5.929-10.254-11.651-21.07-17.015-32.161H26.994c-5.358,11.081-11.08,21.896-17.015,32.161-1.454,2.515-2.982,5.098-4.639,7.84Z"/>
    </g>
  </g>
  <g>
    <rect class="cls-2" x="173.191" y="18.463" width="3" height="478.424"/>
    <g>
      <path class="cls-1" d="m185.97,496.248c0,6.229-5.051,11.279-11.279,11.279s-11.279-5.051-11.279-11.279,5.051-11.279,11.279-11.279,11.279,5.051,11.279,11.279Z"/>
      <path class="cls-2" d="m187.47,496.248c0-7.046-5.733-12.779-12.779-12.779s-12.779,5.733-12.779,12.779,5.733,12.779,12.779,12.779,12.779-5.733,12.779-12.779,0,7.046,0,0Zm-22.559,0c0-5.394,4.386-9.779,9.779-9.779s9.779,4.386,9.779,9.779-4.386,9.779-9.779,9.779-9.779-4.386-9.779-9.779,0,5.394,0,0Z"/>
    </g>
    <polygon class="cls-2" points="184.233 36.196 181.412 37.221 174.691 18.756 167.97 37.221 165.152 36.196 174.691 9.986 184.233 36.196"/>
  </g>
</svg>