<?xml version="1.0" encoding="UTF-8"?>
<svg id="Layer_1" data-name="Layer 1" xmlns="http://www.w3.org/2000/svg" viewBox="0 0 245.93 250.47">
  <defs>
    <style>
      .cls-1 {
        fill: none;
      }

      .cls-1, .cls-2 {
        stroke: #000;
        stroke-miterlimit: 10;
        stroke-width: .6px;
      }

      .cls-2 {
        fill: #baa188;
      }
    </style>
  </defs>
  <polygon class="cls-2" points="245.63 .3 .3 .3 .3 250.17 15.47 250.17 15.47 15.47 245.63 15.47 245.63 .3"/>
  <g>
    <polygon class="cls-1" points="95.2 15.47 15.47 15.47 15.47 228.05 95.2 228.05 95.2 95.2 228.07 95.2 228.07 15.47 95.2 15.47"/>
    <line class="cls-1" x1="15.47" y1="95.2" x2="95.2" y2="95.2"/>
    <line class="cls-1" x1="15.47" y1="121.77" x2="95.2" y2="121.77"/>
    <line class="cls-1" x1="15.47" y1="148.35" x2="95.2" y2="148.35"/>
    <line class="cls-1" x1="15.47" y1="174.92" x2="95.2" y2="174.92"/>
    <line class="cls-1" x1="15.47" y1="201.5" x2="95.2" y2="201.5"/>
    <line class="cls-1" x1="201.5" y1="15.47" x2="201.5" y2="95.2"/>
    <line class="cls-1" x1="174.92" y1="15.47" x2="174.92" y2="95.2"/>
    <line class="cls-1" x1="148.35" y1="15.47" x2="148.35" y2="95.2"/>
    <line class="cls-1" x1="121.77" y1="15.47" x2="121.77" y2="95.2"/>
    <line class="cls-1" x1="95.2" y1="15.47" x2="95.2" y2="95.2"/>
    <polyline class="cls-1" points="212.59 55.33 55.34 55.33 55.34 228.05"/>
    <polygon points="228.07 55.33 208.72 50.09 208.72 55.33 208.72 60.58 228.07 55.33"/>
    <path d="m50.73,228.05c0,2.54,2.06,4.61,4.61,4.61s4.61-2.06,4.61-4.61-2.06-4.61-4.61-4.61-4.61,2.06-4.61,4.61Z"/>
  </g>
</svg>