<?xml version="1.0" encoding="UTF-8"?>
<svg id="Layer_1" data-name="Layer 1" xmlns="http://www.w3.org/2000/svg" viewBox="0 0 764.761 303.181">
  <defs>
    <style>
      .cls-1 {
        fill: #fff;
      }

      .cls-2 {
        fill: #1d1d1b;
      }
    </style>
  </defs>
  <g>
    <path class="cls-1" d="m481.677,104.149l66.867,165.503c21.252-8.177,41.781-17.809,61.46-28.784l-89.24-154.568c-12.522,6.832-25.578,12.806-39.088,17.849Z"/>
    <path class="cls-2" d="m547.707,271.581l-.552-1.368-67.445-166.931,1.443-.539c13.326-4.975,26.412-10.949,38.894-17.76l1.285-.702,90.733,157.155-1.33.741c-19.771,11.026-40.514,20.74-61.652,28.874l-1.377.529Zm-64.063-166.569l65.739,162.708c20.057-7.789,39.745-17.009,58.561-27.422l-87.747-151.983c-11.766,6.346-24.048,11.956-36.553,16.697Z"/>
  </g>
  <g>
    <path class="cls-1" d="m557.054,63.021l109.862,140.617c18.122-13.765,35.241-28.782,51.229-44.923l-128.354-123.95c-10.221,10.168-21.16,19.615-32.737,28.256Z"/>
    <path class="cls-2" d="m666.645,205.728l-111.716-142.991,1.228-.917c11.454-8.549,22.414-18.009,32.577-28.117l1.042-1.037,130.504,126.026-1.069,1.079c-16.003,16.156-33.292,31.316-51.388,45.062l-1.178.895Zm-107.467-142.424l108.007,138.242c17.154-13.114,33.568-27.506,48.823-42.809l-126.204-121.874c-9.603,9.459-19.895,18.345-30.626,26.44Z"/>
  </g>
  <g>
    <path class="cls-1" d="m440.608,116.243l43.183,173.198c22.21-5.101,43.832-11.739,64.754-19.789l-66.867-165.503c-13.276,4.956-26.989,9.015-41.07,12.094Z"/>
    <path class="cls-2" d="m482.692,291.231l-.357-1.428-43.557-174.696,1.509-.33c13.828-3.024,27.577-7.072,40.865-12.034l1.369-.511,67.986,168.271-1.423.548c-21.107,8.12-42.962,14.799-64.957,19.851l-1.435.329Zm-40.256-173.856l42.454,170.271c20.879-4.863,41.619-11.2,61.693-18.85l-65.749-162.735c-12.511,4.601-25.414,8.403-38.397,11.313Z"/>
  </g>
  <g>
    <path class="cls-1" d="m520.765,86.3l89.24,154.568c19.879-11.086,38.889-23.541,56.911-37.23l-109.862-140.617c-11.496,8.581-23.62,16.367-36.289,23.279Z"/>
    <path class="cls-2" d="m609.445,242.899l-90.747-157.18,1.349-.735c12.523-6.832,24.672-14.626,36.11-23.164l1.176-.878,111.701,142.971-1.211.92c-18.107,13.754-37.314,26.319-57.088,37.347l-1.291.72Zm-86.614-156.021l87.733,151.959c18.756-10.536,36.988-22.462,54.232-35.475l-108.022-138.263c-10.795,7.976-22.201,15.294-33.943,21.778Z"/>
  </g>
  <g>
    <path class="cls-1" d="m398.41,122.402l18.655,177.492c22.728-1.947,45.007-5.465,66.725-10.454l-43.183-173.198c-13.741,3.005-27.83,5.081-42.197,6.159Z"/>
    <path class="cls-2" d="m415.728,301.515l-18.97-180.492,1.541-.116c14.104-1.059,28.232-3.12,41.989-6.129l1.423-.311,43.905,176.094-1.489.342c-21.897,5.029-44.416,8.558-66.933,10.486l-1.466.126Zm-15.664-177.736l18.34,174.494c21.377-1.898,42.747-5.245,63.561-9.954l-42.461-170.302c-12.941,2.764-26.194,4.7-39.44,5.762Z"/>
  </g>
  <g>
    <path class="cls-1" d="m375.338,123.266c-6.515,0-12.983-.206-19.396-.609l-6.228,178.351c8.486.444,17.028.673,25.624.673,14.058,0,27.974-.608,41.728-1.786l-18.655-177.492c-7.616.572-15.31.864-23.072.864Z"/>
    <path class="cls-2" d="m375.338,303.181c-8.484,0-17.131-.228-25.703-.675l-1.472-.077,6.333-181.366,1.54.097c13.969.88,28.268.797,42.262-.253l1.452-.108,18.967,180.461-1.524.13c-13.882,1.19-27.964,1.792-41.855,1.792Zm-24.074-3.596c8.037.396,16.127.596,24.074.596,13.297,0,26.772-.556,40.075-1.652l-18.343-174.525c-13.16.923-26.539,1.004-39.684.242l-6.123,175.339Z"/>
  </g>
  <g>
    <path class="cls-1" d="m314.011,117.079l-30.994,175.774c21.747,4.214,44.014,6.968,66.696,8.155l6.228-178.351c-14.266-.898-28.266-2.779-41.931-5.577Z"/>
    <path class="cls-2" d="m351.16,302.586l-1.524-.08c-22.444-1.175-44.953-3.928-66.903-8.181l-1.448-.28,31.518-178.745,1.51.31c13.676,2.802,27.714,4.669,41.724,5.55l1.456.092-6.332,181.335Zm-66.408-10.928c20.858,3.975,42.209,6.586,63.517,7.77l6.124-175.369c-13.149-.891-26.311-2.64-39.171-5.204l-30.47,172.804Z"/>
  </g>
  <g>
    <path class="cls-1" d="m589.791,34.765l128.354,123.95c16.014-16.167,30.894-33.458,44.507-51.749L618.289,2.08c-8.721,11.565-18.247,22.488-28.498,32.685Z"/>
    <path class="cls-2" d="m718.169,160.822l-130.52-126.041,1.085-1.079c10.176-10.123,19.717-21.065,28.358-32.525l.887-1.177,146.783,106.645-.906,1.217c-13.582,18.248-28.602,35.713-44.644,51.909l-1.042,1.052Zm-126.237-126.075l126.189,121.858c15.197-15.439,29.458-32.018,42.42-49.319L618.597,4.157c-8.181,10.74-17.141,21.019-26.665,30.59Z"/>
  </g>
  <g>
    <path class="cls-1" d="m273.422,105.762l-55.16,169.765c20.97,7.216,42.591,13.031,64.756,17.326l30.994-175.774c-13.9-2.846-27.452-6.645-40.59-11.317Z"/>
    <path class="cls-2" d="m284.23,294.615l-1.498-.29c-21.954-4.254-43.809-10.102-64.959-17.381l-1.394-.48,56.092-172.632,1.453.517c13.15,4.676,26.739,8.465,40.388,11.26l1.43.293-31.512,178.713Zm-64.085-20.029c20.101,6.848,40.831,12.395,61.661,16.501l30.476-172.835c-12.803-2.686-25.54-6.236-37.908-10.564l-54.229,166.898Z"/>
  </g>
  <g>
    <path class="cls-1" d="m234.945,88.983l-78.246,160.428c19.773,10.068,40.333,18.81,61.563,26.116l55.16-169.765c-13.275-4.721-26.124-10.339-38.476-16.78Z"/>
    <path class="cls-2" d="m219.217,277.441l-1.443-.497c-21.1-7.261-41.877-16.074-61.755-26.196l-1.314-.669,79.568-163.139,1.366.712c12.332,6.43,25.213,12.047,38.286,16.697l1.375.489-56.083,172.602Zm-60.522-28.7c18.9,9.55,38.604,17.91,58.613,24.868l54.238-166.926c-12.249-4.425-24.322-9.688-35.926-15.662l-76.925,157.72Z"/>
  </g>
  <g>
    <path class="cls-1" d="m199.28,67.146l-99.793,147.948c18.194,12.7,37.303,24.179,57.211,34.316l78.246-160.428c-12.415-6.473-24.329-13.774-35.665-21.836Z"/>
    <path class="cls-2" d="m157.379,251.441l-1.36-.692c-19.81-10.088-39.119-21.67-57.389-34.423l-1.21-.846,101.477-150.446,1.253.891c11.27,8.016,23.209,15.326,35.489,21.729l1.295.675-79.555,163.113Zm-55.82-36.733c17.38,12.052,35.688,23.035,54.463,32.672l76.938-157.746c-11.492-6.062-22.679-12.909-33.292-20.377l-98.108,145.451Z"/>
  </g>
  <g>
    <path class="cls-1" d="m138.79,10.279L2.101,124.975c14.065,17.147,29.288,33.307,45.551,48.361L167.052,40.728c-10.094-9.493-19.54-19.666-28.262-30.449Z"/>
    <path class="cls-2" d="m47.749,175.469l-1.116-1.033c-16.262-15.054-31.635-31.374-45.691-48.51l-.941-1.147,1.136-.954L138.995,8.149l.96,1.188c8.639,10.68,18.101,20.874,28.124,30.299l1.069,1.006L47.749,175.469ZM4.203,125.169c13.39,16.22,27.964,31.694,43.353,46.03L164.957,40.812c-9.356-8.885-18.217-18.43-26.37-28.405L4.203,125.169Z"/>
  </g>
  <g>
    <path class="cls-1" d="m167.052,40.728L47.651,173.335c16.278,15.068,33.597,29.028,51.836,41.759l99.793-147.948c-11.346-8.07-22.112-16.904-32.229-26.419Z"/>
    <path class="cls-2" d="m99.879,217.197l-1.25-.872c-18.198-12.702-35.692-26.796-51.997-41.89l-1.086-1.005L166.963,38.585l1.117,1.05c10.071,9.472,20.861,18.316,32.07,26.289l1.192.849-101.463,150.425Zm-50.121-43.96c15.52,14.277,32.106,27.642,49.34,39.753l98.123-145.473c-10.48-7.531-20.586-15.814-30.077-24.65L49.758,173.237Z"/>
  </g>
  <g>
    <path class="cls-2" d="m367.094,213.541c-55.203,0-108.617-11.148-158.759-33.137-48.435-21.239-91.545-51.533-128.134-90.039l2.175-2.066c74.902,78.829,176.017,122.242,284.718,122.242,117.227,0,227.435-51.798,302.364-142.111l2.308,1.916c-75.501,91.003-186.55,143.195-304.673,143.195Z"/>
    <polygon class="cls-2" points="651.791 76.745 653.292 79.344 670.314 69.524 663.586 87.988 666.404 89.015 675.953 62.808 651.791 76.745"/>
    <g>
      <path class="cls-1" d="m90.031,81.981c-4.268-4.537-11.407-4.755-15.944-.487-4.537,4.268-4.755,11.407-.487,15.944,4.267,4.537,11.407,4.755,15.944.487,4.537-4.268,4.755-11.407.488-15.944Z"/>
      <path class="cls-2" d="m91.124,80.954c4.828,5.132,4.58,13.236-.552,18.064-5.132,4.828-13.237,4.58-18.064-.552-4.828-5.132-4.58-13.237.552-18.064,5.132-4.828,13.236-4.58,18.064.552,4.828,5.132-4.828-5.132,0,0Zm-16.431,15.457c3.696,3.928,9.895,4.118,13.824.423,3.929-3.696,4.118-9.895.423-13.824-3.696-3.929-9.895-4.118-13.824-.423-3.929,3.695-4.118,9.895-.423,13.824,3.696,3.928-3.696-3.929,0,0Z"/>
    </g>
  </g>
</svg>