<?xml version="1.0" encoding="UTF-8"?>
<svg id="Layer_1" data-name="Layer 1" xmlns="http://www.w3.org/2000/svg" viewBox="0 0 192.18 353.04">
  <defs>
    <style>
      .cls-1 {
        fill: none;
      }

      .cls-1, .cls-2 {
        stroke: #000;
        stroke-miterlimit: 10;
        stroke-width: .6px;
      }

      .cls-2 {
        fill: #baa188;
      }
    </style>
  </defs>
  <polygon class="cls-1" points="175.82 15.58 16.37 15.58 16.37 334.46 16.37 334.6 175.82 334.6 175.82 334.46 175.82 15.58"/>
  <polygon class="cls-2" points=".3 .3 .3 352.74 16.37 352.74 16.37 15.58 175.82 15.58 175.82 352.74 191.88 352.74 191.88 .3 .3 .3"/>
  <line class="cls-1" x1="96.09" y1="334.46" x2="96.09" y2="95.45"/>
  <line class="cls-1" x1="175.82" y1="308.05" x2="16.37" y2="308.05"/>
  <line class="cls-1" x1="175.82" y1="281.47" x2="16.37" y2="281.47"/>
  <line class="cls-1" x1="175.82" y1="254.9" x2="16.37" y2="254.9"/>
  <line class="cls-1" x1="175.82" y1="228.32" x2="16.37" y2="228.32"/>
  <line class="cls-1" x1="175.82" y1="201.75" x2="16.37" y2="201.75"/>
  <line class="cls-1" x1="175.82" y1="175.17" x2="16.37" y2="175.17"/>
  <line class="cls-1" x1="175.82" y1="148.6" x2="16.37" y2="148.6"/>
  <line class="cls-1" x1="175.82" y1="122.02" x2="16.37" y2="122.02"/>
  <line class="cls-1" x1="175.82" y1="95.45" x2="16.37" y2="95.45"/>
  <line class="cls-1" x1="136.02" y1="95.45" x2="136.02" y2="315.85"/>
  <line class="cls-1" x1="56" y1="333.85" x2="56" y2="112.86"/>
  <polygon points="135.83 333.91 141.07 314.56 135.83 314.56 130.58 314.56 135.83 333.91"/>
  <polygon points="56 95.45 50.75 114.8 56 114.8 61.24 114.8 56 95.45"/>
  <path d="m51.35,334.6c0,2.54,2.06,4.61,4.61,4.61s4.61-2.06,4.61-4.61-2.06-4.61-4.61-4.61-4.61,2.06-4.61,4.61Z"/>
  <path d="m131.41,95.45c0,2.54,2.06,4.61,4.61,4.61s4.61-2.06,4.61-4.61-2.06-4.61-4.61-4.61-4.61,2.06-4.61,4.61Z"/>
</svg>