<?xml version="1.0" encoding="UTF-8"?>
<svg id="Layer_1" data-name="Layer 1" xmlns="http://www.w3.org/2000/svg" viewBox="0 0 351.595 519.013">
  <defs>
    <style>
      .cls-1 {
        fill: #fff;
      }

      .cls-2 {
        fill: #1d1d1b;
      }
    </style>
  </defs>
  <g>
    <rect class="cls-1" x="1.5" y="173.504" width="174.298" height="43.001"/>
    <path class="cls-2" d="m177.297,218.005H0v-46.001h177.297v46.001Zm-174.297-3h171.297v-40.001H3v40.001Z"/>
  </g>
  <g>
    <rect class="cls-1" x="1.5" y="216.505" width="174.298" height="43.001"/>
    <path class="cls-2" d="m177.297,261.006H0v-46.001h177.297v46.001Zm-174.297-3h171.297v-40.001H3v40.001Z"/>
  </g>
  <g>
    <rect class="cls-1" x="1.5" y="259.506" width="174.298" height="43.001"/>
    <path class="cls-2" d="m177.297,304.007H0v-46.001h177.297v46.001Zm-174.297-3h171.297v-40.001H3v40.001Z"/>
  </g>
  <g>
    <rect class="cls-1" x="1.5" y="302.507" width="174.298" height="43.001"/>
    <path class="cls-2" d="m177.297,347.008H0v-46.001h177.297v46.001Zm-174.297-3h171.297v-40.001H3v40.001Z"/>
  </g>
  <g>
    <rect class="cls-1" x="1.5" y="345.508" width="174.298" height="43.001"/>
    <path class="cls-2" d="m177.297,390.009H0v-46.001h177.297v46.001Zm-174.297-3h171.297v-40.001H3v40.001Z"/>
  </g>
  <g>
    <rect class="cls-1" x="1.5" y="388.509" width="174.298" height="43.001"/>
    <path class="cls-2" d="m177.297,433.011H0v-46.002h177.297v46.002Zm-174.297-3h171.297v-40.002H3v40.002Z"/>
  </g>
  <g>
    <rect class="cls-1" x="1.5" y="431.51" width="174.298" height="43.001"/>
    <path class="cls-2" d="m177.297,476.012H0v-46.001h177.297v46.001Zm-174.297-3h171.297v-40.001H3v40.001Z"/>
  </g>
  <g>
    <rect class="cls-1" x="1.5" y="474.511" width="174.298" height="43.001"/>
    <path class="cls-2" d="m177.297,519.013H0v-46.001h177.297v46.001Zm-174.297-3h171.297v-40.001H3v40.001Z"/>
  </g>
  <g>
    <polygon class="cls-1" points="1.5 44.501 1.5 87.502 1.5 130.503 1.5 173.504 350.095 173.504 350.095 130.503 350.095 87.502 350.095 44.501 350.095 1.5 1.5 1.5 1.5 44.501"/>
    <path class="cls-2" d="m351.595,175.004H0V0h351.595v175.004ZM3,172.004h345.595V3H3v169.004Z"/>
  </g>
  <g>
    <rect class="cls-1" x="175.797" y="173.504" width="174.298" height="43.001"/>
    <path class="cls-2" d="m351.595,218.005h-177.298v-46.001h177.298v46.001Zm-174.298-3h171.298v-40.001h-171.298v40.001Z"/>
  </g>
  <g>
    <rect class="cls-1" x="175.797" y="216.505" width="174.298" height="43.001"/>
    <path class="cls-2" d="m351.595,261.006h-177.298v-46.001h177.298v46.001Zm-174.298-3h171.298v-40.001h-171.298v40.001Z"/>
  </g>
  <g>
    <rect class="cls-1" x="175.797" y="259.506" width="174.298" height="43.001"/>
    <path class="cls-2" d="m351.595,304.007h-177.298v-46.001h177.298v46.001Zm-174.298-3h171.298v-40.001h-171.298v40.001Z"/>
  </g>
  <g>
    <rect class="cls-1" x="175.797" y="302.507" width="174.298" height="43.001"/>
    <path class="cls-2" d="m351.595,347.008h-177.298v-46.001h177.298v46.001Zm-174.298-3h171.298v-40.001h-171.298v40.001Z"/>
  </g>
  <g>
    <rect class="cls-1" x="175.797" y="345.508" width="174.298" height="43.001"/>
    <path class="cls-2" d="m351.595,390.009h-177.298v-46.001h177.298v46.001Zm-174.298-3h171.298v-40.001h-171.298v40.001Z"/>
  </g>
  <g>
    <rect class="cls-1" x="175.797" y="388.509" width="174.298" height="43.001"/>
    <path class="cls-2" d="m351.595,433.011h-177.298v-46.002h177.298v46.002Zm-174.298-3h171.298v-40.002h-171.298v40.002Z"/>
  </g>
  <g>
    <rect class="cls-1" x="175.797" y="431.51" width="174.298" height="43.001"/>
    <path class="cls-2" d="m351.595,476.012h-177.298v-46.001h177.298v46.001Zm-174.298-3h171.298v-40.001h-171.298v40.001Z"/>
  </g>
  <g>
    <rect class="cls-1" x="175.797" y="474.511" width="174.298" height="43.001"/>
    <path class="cls-2" d="m351.595,519.013h-177.298v-46.001h177.298v46.001Zm-174.298-3h171.298v-40.001h-171.298v40.001Z"/>
  </g>
  <g>
    <polygon class="cls-2" points="265.345 500.535 262.345 500.535 262.345 88.138 90.148 88.138 90.148 496.871 87.148 496.871 87.148 85.138 265.345 85.138 265.345 500.535"/>
    <g>
      <path class="cls-1" d="m99.928,496.233c0,6.229-5.051,11.279-11.279,11.279s-11.279-5.051-11.279-11.279,5.051-11.279,11.279-11.279,11.279,5.051,11.279,11.279Z"/>
      <path class="cls-2" d="m101.428,496.233c0-7.046-5.733-12.779-12.779-12.779s-12.779,5.733-12.779,12.779,5.733,12.779,12.779,12.779,12.779-5.733,12.779-12.779,0,7.046,0,0Zm-22.559,0c0-5.393,4.386-9.779,9.779-9.779s9.779,4.386,9.779,9.779-4.386,9.779-9.779,9.779-9.779-4.386-9.779-9.779,0,5.394,0,0Z"/>
    </g>
    <polygon class="cls-2" points="254.303 482.801 257.125 481.776 263.845 500.242 270.566 481.776 273.385 482.801 263.845 509.012 254.303 482.801"/>
  </g>
</svg>