<?xml version="1.0" encoding="UTF-8"?>
<svg id="Layer_1" data-name="Layer 1" xmlns="http://www.w3.org/2000/svg" viewBox="0 0 271.89 218.23">
  <defs>
    <style>
      .cls-1 {
        fill: none;
      }

      .cls-1, .cls-2, .cls-3 {
        stroke: #000;
        stroke-miterlimit: 10;
        stroke-width: .6px;
      }

      .cls-2 {
        fill: #fff;
      }

      .cls-3 {
        fill: #baa188;
      }
    </style>
  </defs>
  <polygon class="cls-2" points="175.8 16.37 175.8 16.49 175.78 16.37 96.08 16.37 16.35 16.37 16.35 202.54 96.08 202.54 96.08 96.24 175.8 96.24 175.8 202.54 255.36 202.54 255.36 16.37 175.8 16.37"/>
  <polygon class="cls-3" points=".3 .3 .3 217.5 16.35 217.5 16.35 16.37 255.36 16.37 255.36 217.92 271.59 217.92 271.59 .3 .3 .3"/>
  <line class="cls-1" x1="96.08" y1="175.96" x2="16.35" y2="175.96"/>
  <line class="cls-1" x1="96.08" y1="149.39" x2="16.35" y2="149.39"/>
  <line class="cls-1" x1="96.08" y1="122.81" x2="16.35" y2="122.81"/>
  <line class="cls-1" x1="175.8" y1="175.96" x2="255.36" y2="175.96"/>
  <line class="cls-1" x1="175.8" y1="149.39" x2="255.36" y2="149.39"/>
  <line class="cls-1" x1="175.8" y1="122.81" x2="255.36" y2="122.81"/>
  <line class="cls-1" x1="175.8" y1="96.24" x2="175.8" y2="16.37"/>
  <line class="cls-1" x1="149.23" y1="96.24" x2="149.23" y2="16.37"/>
  <line class="cls-1" x1="122.65" y1="96.24" x2="122.65" y2="16.37"/>
  <line class="cls-1" x1="96.08" y1="96.24" x2="96.08" y2="16.37"/>
  <line class="cls-1" x1="255.36" y1="96.24" x2="175.8" y2="96.24"/>
  <line class="cls-1" x1="255.36" y1="96.24" x2="16.35" y2="96.24"/>
  <polyline class="cls-1" points="55.99 202.54 55.99 53.78 215.73 53.78 215.73 184.19"/>
  <polygon points="215.56 201.74 220.81 182.38 215.56 182.38 210.32 182.38 215.56 201.74"/>
  <path d="m51.38,202.66c0,2.54,2.06,4.61,4.61,4.61s4.61-2.06,4.61-4.61-2.06-4.61-4.61-4.61-4.61,2.06-4.61,4.61Z"/>
</svg>