<?xml version="1.0" encoding="UTF-8"?>
<svg id="Layer_1" data-name="Layer 1" xmlns="http://www.w3.org/2000/svg" viewBox="0 0 177.297 519.013">
  <defs>
    <style>
      .cls-1 {
        fill: #fff;
      }

      .cls-2 {
        fill: #1d1d1b;
      }
    </style>
  </defs>
  <g>
    <rect class="cls-1" x="1.5" y="1.5" width="174.298" height="43.001"/>
    <path class="cls-2" d="m177.297,46.001H0V0h177.297v46.001ZM3,43.001h171.297V3H3v40.001Z"/>
  </g>
  <g>
    <rect class="cls-1" x="1.5" y="44.501" width="174.298" height="43.001"/>
    <path class="cls-2" d="m177.297,89.002H0v-46.001h177.297v46.001ZM3,86.002h171.297v-40.001H3v40.001Z"/>
  </g>
  <g>
    <rect class="cls-1" x="1.5" y="87.502" width="174.298" height="43.001"/>
    <path class="cls-2" d="m177.297,132.003H0v-46.001h177.297v46.001Zm-174.297-3h171.297v-40.001H3v40.001Z"/>
  </g>
  <g>
    <rect class="cls-1" x="1.5" y="130.503" width="174.298" height="43.001"/>
    <path class="cls-2" d="m177.297,175.004H0v-46.001h177.297v46.001Zm-174.297-3h171.297v-40.001H3v40.001Z"/>
  </g>
  <g>
    <rect class="cls-1" x="1.5" y="173.504" width="174.298" height="43.001"/>
    <path class="cls-2" d="m177.297,218.005H0v-46.001h177.297v46.001Zm-174.297-3h171.297v-40.001H3v40.001Z"/>
  </g>
  <g>
    <rect class="cls-1" x="1.5" y="216.505" width="174.298" height="43.001"/>
    <path class="cls-2" d="m177.297,261.006H0v-46.001h177.297v46.001Zm-174.297-3h171.297v-40.001H3v40.001Z"/>
  </g>
  <g>
    <rect class="cls-1" x="1.5" y="259.506" width="174.298" height="43.001"/>
    <path class="cls-2" d="m177.297,304.008H0v-46.002h177.297v46.002Zm-174.297-3h171.297v-40.002H3v40.002Z"/>
  </g>
  <g>
    <rect class="cls-1" x="1.5" y="302.508" width="174.298" height="43.001"/>
    <path class="cls-2" d="m177.297,347.009H0v-46.001h177.297v46.001Zm-174.297-3h171.297v-40.001H3v40.001Z"/>
  </g>
  <g>
    <rect class="cls-1" x="1.5" y="345.509" width="174.298" height="43.001"/>
    <path class="cls-2" d="m177.297,390.01H0v-46.001h177.297v46.001Zm-174.297-3h171.297v-40.001H3v40.001Z"/>
  </g>
  <g>
    <rect class="cls-1" x="1.5" y="388.51" width="174.298" height="43.001"/>
    <path class="cls-2" d="m177.297,433.011H0v-46.001h177.297v46.001Zm-174.297-3h171.297v-40.001H3v40.001Z"/>
  </g>
  <g>
    <rect class="cls-1" x="1.5" y="431.511" width="174.298" height="43.001"/>
    <path class="cls-2" d="m177.297,476.012H0v-46.001h177.297v46.001Zm-174.297-3h171.297v-40.001H3v40.001Z"/>
  </g>
  <g>
    <rect class="cls-1" x="1.5" y="474.512" width="174.298" height="43.001"/>
    <path class="cls-2" d="m177.297,519.013H0v-46.001h177.297v46.001Zm-174.297-3h171.297v-40.001H3v40.001Z"/>
  </g>
  <g>
    <rect class="cls-2" x="87.148" y="17.033" width="3" height="478.425"/>
    <g>
      <path class="cls-1" d="m99.928,494.818c0,6.229-5.051,11.279-11.279,11.279s-11.279-5.051-11.279-11.279,5.051-11.279,11.279-11.279,11.279,5.051,11.279,11.279Z"/>
      <path class="cls-2" d="m101.428,494.818c0-7.046-5.733-12.779-12.779-12.779s-12.779,5.733-12.779,12.779,5.733,12.779,12.779,12.779,12.779-5.733,12.779-12.779,0,7.046,0,0Zm-22.559,0c0-5.394,4.386-9.779,9.779-9.779s9.779,4.386,9.779,9.779-4.386,9.779-9.779,9.779-9.779-4.386-9.779-9.779,0,5.394,0,0Z"/>
    </g>
    <polygon class="cls-2" points="98.191 34.766 95.369 35.792 88.649 17.326 81.928 35.792 79.11 34.766 88.649 8.556 98.191 34.766"/>
  </g>
</svg>