<?xml version="1.0" encoding="UTF-8"?>
<svg id="Layer_1" data-name="Layer 1" xmlns="http://www.w3.org/2000/svg" viewBox="0 0 177.298 519.013">
  <defs>
    <style>
      .cls-1 {
        fill: #fff;
      }

      .cls-2 {
        fill: #1d1d1b;
      }
    </style>
  </defs>
  <g>
    <rect class="cls-1" x="1.5" y="1.5" width="174.298" height="43.001"/>
    <g>
      <polygon class="cls-2" points="177.298 46.001 169.798 46.001 169.798 43.001 174.298 43.001 174.298 38.501 177.298 38.501 177.298 46.001"/>
      <path class="cls-2" d="m157.314,46.001h-12.484v-3h12.484v3Zm-24.969,0h-12.484v-3h12.484v3Zm-24.969,0h-12.484v-3h12.484v3Zm-24.969,0h-12.484v-3h12.484v3Zm-24.969,0h-12.484v-3h12.484v3Zm-24.969,0h-12.484v-3h12.484v3Z"/>
      <polygon class="cls-2" points="7.5 46.001 0 46.001 0 38.501 3 38.501 3 43.001 7.5 43.001 7.5 46.001"/>
      <rect class="cls-2" y="17.834" width="3" height="10.333"/>
      <polygon class="cls-2" points="3 7.5 0 7.5 0 0 7.5 0 7.5 3 3 3 3 7.5"/>
      <path class="cls-2" d="m157.313,3h-12.484V0h12.484v3Zm-24.969,0h-12.484V0h12.484v3Zm-24.969,0h-12.484V0h12.484v3Zm-24.969,0h-12.484V0h12.484v3Zm-24.969,0h-12.484V0h12.484v3Zm-24.969,0h-12.484V0h12.484v3Z"/>
      <polygon class="cls-2" points="177.298 7.5 174.298 7.5 174.298 3 169.798 3 169.798 0 177.298 0 177.298 7.5"/>
      <rect class="cls-2" x="174.298" y="17.834" width="3" height="10.333"/>
    </g>
  </g>
  <g>
    <rect class="cls-1" x="1.5" y="44.501" width="174.298" height="43.001"/>
    <g>
      <polygon class="cls-2" points="177.298 89.002 169.798 89.002 169.798 86.002 174.298 86.002 174.298 81.502 177.298 81.502 177.298 89.002"/>
      <path class="cls-2" d="m157.314,89.002h-12.484v-3h12.484v3Zm-24.969,0h-12.484v-3h12.484v3Zm-24.969,0h-12.484v-3h12.484v3Zm-24.969,0h-12.484v-3h12.484v3Zm-24.969,0h-12.484v-3h12.484v3Zm-24.969,0h-12.484v-3h12.484v3Z"/>
      <polygon class="cls-2" points="7.5 89.002 0 89.002 0 81.502 3 81.502 3 86.002 7.5 86.002 7.5 89.002"/>
      <rect class="cls-2" y="60.835" width="3" height="10.333"/>
      <polygon class="cls-2" points="3 50.501 0 50.501 0 43.001 7.5 43.001 7.5 46.001 3 46.001 3 50.501"/>
      <path class="cls-2" d="m157.313,46.001h-12.484v-3h12.484v3Zm-24.969,0h-12.484v-3h12.484v3Zm-24.969,0h-12.484v-3h12.484v3Zm-24.969,0h-12.484v-3h12.484v3Zm-24.969,0h-12.484v-3h12.484v3Zm-24.969,0h-12.484v-3h12.484v3Z"/>
      <polygon class="cls-2" points="177.298 50.501 174.298 50.501 174.298 46.001 169.798 46.001 169.798 43.001 177.298 43.001 177.298 50.501"/>
      <rect class="cls-2" x="174.298" y="60.835" width="3" height="10.333"/>
    </g>
  </g>
  <g>
    <rect class="cls-1" x="1.5" y="87.502" width="174.298" height="43.001"/>
    <g>
      <polygon class="cls-2" points="177.298 132.003 169.798 132.003 169.798 129.003 174.298 129.003 174.298 124.503 177.298 124.503 177.298 132.003"/>
      <path class="cls-2" d="m157.314,132.003h-12.484v-3h12.484v3Zm-24.969,0h-12.484v-3h12.484v3Zm-24.969,0h-12.484v-3h12.484v3Zm-24.969,0h-12.484v-3h12.484v3Zm-24.969,0h-12.484v-3h12.484v3Zm-24.969,0h-12.484v-3h12.484v3Z"/>
      <polygon class="cls-2" points="7.5 132.003 0 132.003 0 124.503 3 124.503 3 129.003 7.5 129.003 7.5 132.003"/>
      <rect class="cls-2" y="103.836" width="3" height="10.333"/>
      <polygon class="cls-2" points="3 93.502 0 93.502 0 86.002 7.5 86.002 7.5 89.002 3 89.002 3 93.502"/>
      <path class="cls-2" d="m157.313,89.002h-12.484v-3h12.484v3Zm-24.969,0h-12.484v-3h12.484v3Zm-24.969,0h-12.484v-3h12.484v3Zm-24.969,0h-12.484v-3h12.484v3Zm-24.969,0h-12.484v-3h12.484v3Zm-24.969,0h-12.484v-3h12.484v3Z"/>
      <polygon class="cls-2" points="177.298 93.502 174.298 93.502 174.298 89.002 169.798 89.002 169.798 86.002 177.298 86.002 177.298 93.502"/>
      <rect class="cls-2" x="174.298" y="103.836" width="3" height="10.333"/>
    </g>
  </g>
  <g>
    <rect class="cls-1" x="1.5" y="130.503" width="174.298" height="43.001"/>
    <g>
      <polygon class="cls-2" points="177.298 175.004 169.798 175.004 169.798 172.004 174.298 172.004 174.298 167.504 177.298 167.504 177.298 175.004"/>
      <path class="cls-2" d="m157.314,175.004h-12.484v-3h12.484v3Zm-24.969,0h-12.484v-3h12.484v3Zm-24.969,0h-12.484v-3h12.484v3Zm-24.969,0h-12.484v-3h12.484v3Zm-24.969,0h-12.484v-3h12.484v3Zm-24.969,0h-12.484v-3h12.484v3Z"/>
      <polygon class="cls-2" points="7.5 175.004 0 175.004 0 167.504 3 167.504 3 172.004 7.5 172.004 7.5 175.004"/>
      <rect class="cls-2" y="146.837" width="3" height="10.334"/>
      <polygon class="cls-2" points="3 136.503 0 136.503 0 129.003 7.5 129.003 7.5 132.003 3 132.003 3 136.503"/>
      <path class="cls-2" d="m157.313,132.003h-12.484v-3h12.484v3Zm-24.969,0h-12.484v-3h12.484v3Zm-24.969,0h-12.484v-3h12.484v3Zm-24.969,0h-12.484v-3h12.484v3Zm-24.969,0h-12.484v-3h12.484v3Zm-24.969,0h-12.484v-3h12.484v3Z"/>
      <polygon class="cls-2" points="177.298 136.503 174.298 136.503 174.298 132.003 169.798 132.003 169.798 129.003 177.298 129.003 177.298 136.503"/>
      <rect class="cls-2" x="174.298" y="146.837" width="3" height="10.333"/>
    </g>
  </g>
  <g>
    <rect class="cls-1" x="1.5" y="345.509" width="174.298" height="43.001"/>
    <path class="cls-2" d="m177.298,390.01H0v-46.001h177.298v46.001Zm-174.298-3h171.298v-40.001H3v40.001Z"/>
  </g>
  <g>
    <rect class="cls-1" x="1.5" y="388.51" width="174.298" height="43.001"/>
    <path class="cls-2" d="m177.298,433.011H0v-46.001h177.298v46.001Zm-174.298-3h171.298v-40.001H3v40.001Z"/>
  </g>
  <g>
    <rect class="cls-1" x="1.5" y="431.511" width="174.298" height="43.001"/>
    <path class="cls-2" d="m177.298,476.012H0v-46.001h177.298v46.001Zm-174.298-3h171.298v-40.001H3v40.001Z"/>
  </g>
  <g>
    <rect class="cls-1" x="1.5" y="474.512" width="174.298" height="43.001"/>
    <path class="cls-2" d="m177.298,519.013H0v-46.001h177.298v46.001Zm-174.298-3h171.298v-40.001H3v40.001Z"/>
  </g>
  <g>
    <polygon class="cls-1" points="175.798 207.915 175.798 173.504 1.5 173.504 1.5 216.505 156.976 216.505 175.798 207.915"/>
    <g>
      <polygon class="cls-2" points="170.962 211.771 169.717 209.042 174.298 206.951 174.298 201.915 177.298 201.915 177.298 208.879 170.962 211.771"/>
      <rect class="cls-2" x="174.298" y="186.975" width="3" height="7.47"/>
      <polygon class="cls-2" points="177.298 179.504 174.298 179.504 174.298 175.004 169.798 175.004 169.798 172.004 177.298 172.004 177.298 179.504"/>
      <path class="cls-2" d="m157.314,175.004h-12.484v-3h12.484v3Zm-24.969,0h-12.484v-3h12.484v3Zm-24.969,0h-12.485v-3h12.485v3Zm-24.969,0h-12.484v-3h12.484v3Zm-24.969,0h-12.484v-3h12.484v3Zm-24.969,0h-12.484v-3h12.484v3Z"/>
      <polygon class="cls-2" points="3 179.504 0 179.504 0 172.004 7.5 172.004 7.5 175.004 3 175.004 3 179.504"/>
      <rect class="cls-2" y="189.838" width="3" height="10.333"/>
      <polygon class="cls-2" points="7.5 218.005 0 218.005 0 210.505 3 210.505 3 215.005 7.5 215.005 7.5 218.005"/>
      <path class="cls-2" d="m157.302,218.005h-10.893v-3h10.24l1.579-.721,1.245,2.729-2.172.991Zm-23.521,0h-12.628v-3h12.628v3Zm-25.256,0h-12.628v-3h12.628v3Zm-25.256,0h-12.628v-3h12.628v3Zm-25.256,0h-12.628v-3h12.628v3Zm-25.256,0h-12.628v-3h12.628v3Z"/>
    </g>
  </g>
  <g>
    <polygon class="cls-1" points="156.976 216.505 1.5 216.505 1.5 259.506 62.757 259.506 156.976 216.505"/>
    <g>
      <polygon class="cls-2" points="152.14 220.361 151.065 218.005 150.976 218.005 150.976 217.81 150.895 217.632 150.976 217.595 150.976 215.005 163.875 215.005 152.14 220.361"/>
      <path class="cls-2" d="m137.932,218.005h-13.043v-3h13.043v3Zm-26.087,0h-13.043v-3h13.043v3Zm-26.086,0h-13.043v-3h13.043v3Zm-26.086,0h-13.043v-3h13.043v3Zm-26.086,0h-13.043v-3h13.043v3Z"/>
      <polygon class="cls-2" points="3 222.505 0 222.505 0 215.005 7.5 215.005 7.5 218.005 3 218.005 3 222.505"/>
      <rect class="cls-2" y="232.839" width="3" height="10.333"/>
      <polygon class="cls-2" points="7.5 261.006 0 261.006 0 253.506 3 253.506 3 258.006 7.5 258.006 7.5 261.006"/>
      <path class="cls-2" d="m54.523,261.006h-11.756v-3h11.756v3Zm-23.511,0h-11.756v-3h11.756v3Zm35.572-1.598l-1.246-2.729,10.695-4.881,1.245,2.73-10.694,4.881Zm21.389-9.762l-1.246-2.73,10.694-4.881,1.246,2.73-10.694,4.881Zm21.39-9.762l-1.246-2.729,10.694-4.881,1.246,2.729-10.694,4.881Zm21.389-9.762l-1.246-2.729,10.694-4.881,1.246,2.729-10.694,4.881Z"/>
    </g>
  </g>
  <g>
    <polygon class="cls-1" points="114.541 259.506 175.798 259.506 175.798 231.549 114.541 259.506"/>
    <path class="cls-2" d="m177.298,261.006h-69.657l69.657-31.791v31.791Zm-55.858-3h52.858v-24.124l-52.858,24.124Z"/>
  </g>
  <g>
    <polygon class="cls-1" points="20.322 302.508 175.798 302.508 175.798 259.506 114.541 259.506 20.322 302.508"/>
    <path class="cls-2" d="m177.298,304.008H13.423l100.792-46.002h63.083v46.002Zm-150.076-3h147.076v-40.002h-59.431l-87.645,40.002Z"/>
  </g>
  <g>
    <polygon class="cls-1" points="1.5 259.506 1.5 287.464 62.757 259.506 1.5 259.506"/>
    <g>
      <polygon class="cls-2" points="3 265.506 0 265.506 0 258.006 7.5 258.006 7.5 261.006 3 261.006 3 265.506"/>
      <polygon class="cls-2" points="0 289.797 0 281.464 3 281.464 3 285.13 6.336 283.608 7.581 286.337 0 289.797"/>
      <path class="cls-2" d="m17.649,281.743l-1.246-2.729,10.068-4.595,1.246,2.73-10.068,4.595Zm20.136-9.19l-1.246-2.73,10.068-4.595,1.246,2.729-10.068,4.595Z"/>
      <polygon class="cls-2" points="57.921 263.362 56.846 261.006 56.757 261.006 56.757 260.811 56.676 260.633 56.757 260.596 56.757 258.006 69.656 258.006 57.921 263.362"/>
      <path class="cls-2" d="m46.906,261.006h-9.852v-3h9.852v3Zm-19.703,0h-9.852v-3h9.852v3Z"/>
    </g>
  </g>
  <g>
    <polygon class="cls-1" points="1.5 311.098 1.5 345.509 175.798 345.509 175.798 302.508 20.322 302.508 1.5 311.098"/>
    <path class="cls-2" d="m177.298,347.009H0v-36.875l19.996-9.126h157.302v46.001Zm-174.298-3h171.298v-40.001H20.648l-17.648,8.055v31.946Z"/>
  </g>
  <g>
    <rect class="cls-2" x="87.149" y="281.962" width="3" height="213.495"/>
    <g>
      <path class="cls-1" d="m99.928,494.818c0,6.229-5.051,11.279-11.279,11.279s-11.279-5.051-11.279-11.279,5.051-11.279,11.279-11.279,11.279,5.051,11.279,11.279Z"/>
      <path class="cls-2" d="m101.428,494.818c0-7.046-5.733-12.779-12.779-12.779s-12.779,5.733-12.779,12.779,5.733,12.779,12.779,12.779,12.779-5.733,12.779-12.779,0,7.046,0,0Zm-22.559,0c0-5.394,4.386-9.779,9.779-9.779s9.779,4.386,9.779,9.779-4.386,9.779-9.779,9.779-9.779-4.386-9.779-9.779,0,5.394,0,0Z"/>
    </g>
    <polygon class="cls-2" points="98.191 299.696 95.37 300.721 88.649 282.255 81.928 300.721 79.11 299.696 88.649 273.485 98.191 299.696"/>
  </g>
  <g>
    <rect class="cls-2" x="87.149" y="241.689" width="3" height="6"/>
    <path class="cls-2" d="m90.149,230.253h-3v-11.436h3v11.436Zm0-22.873h-3v-11.436h3v11.436Zm0-22.873h-3v-11.437h3v11.437Zm0-22.873h-3v-11.436h3v11.436Zm0-22.872h-3v-11.436h3v11.436Zm0-22.873h-3v-11.436h3v11.436Zm0-22.873h-3v-11.436h3v11.436Zm0-22.873h-3v-11.436h3v11.436Zm0-22.873h-3v-11.436h3v11.436Z"/>
    <rect class="cls-2" x="87.149" y="18.399" width="3" height="6"/>
    <polygon class="cls-2" points="98.191 36.133 95.37 37.158 88.649 18.692 81.928 37.158 79.11 36.133 88.649 9.922 98.191 36.133"/>
  </g>
</svg>