<?xml version="1.0" encoding="UTF-8"?>
<svg id="Layer_1" data-name="Layer 1" xmlns="http://www.w3.org/2000/svg" viewBox="0 0 350.449 523.599">
  <defs>
    <style>
      .cls-1 {
        fill: #fff;
      }

      .cls-2 {
        fill: #1d1d1b;
      }
    </style>
  </defs>
  <g>
    <g>
      <polygon class="cls-1" points="1.5 347.802 1.5 391.376 1.5 434.951 1.5 478.525 1.5 522.1 175.798 522.1 175.798 478.525 175.798 434.951 175.798 391.376 175.798 347.802 1.5 347.802"/>
      <path class="cls-2" d="m177.298,523.599H0v-177.297h177.297v177.297Zm-174.297-3h171.297v-171.297H3v171.297Z"/>
    </g>
    <g>
      <polygon class="cls-1" points="1.5 1.5 1.5 45.074 1.5 88.649 1.5 132.223 1.5 175.798 175.798 175.798 175.798 132.223 175.798 88.649 175.798 45.074 175.798 1.5 1.5 1.5"/>
      <path class="cls-2" d="m177.298,177.297H0V0h177.297v177.297Zm-174.297-3h171.297V3H3v171.297Z"/>
    </g>
    <g>
      <rect class="cls-1" x="1.5" y="175.798" width="174.298" height="43.001"/>
      <path class="cls-2" d="m177.298,220.299H0v-46.002h177.298v46.002Zm-174.298-3h171.298v-40.002H3v40.002Z"/>
    </g>
    <g>
      <rect class="cls-1" x="1.5" y="218.799" width="174.298" height="43.001"/>
      <path class="cls-2" d="m177.298,263.3H0v-46.001h177.298v46.001Zm-174.298-3h171.298v-40.001H3v40.001Z"/>
    </g>
    <g>
      <rect class="cls-1" x="1.5" y="261.8" width="174.298" height="43.001"/>
      <path class="cls-2" d="m177.298,306.301H0v-46.001h177.298v46.001Zm-174.298-3h171.298v-40.001H3v40.001Z"/>
    </g>
    <g>
      <rect class="cls-1" x="1.5" y="304.801" width="174.298" height="43.001"/>
      <path class="cls-2" d="m177.298,349.302H0v-46.001h177.298v46.001Zm-174.298-3h171.298v-40.001H3v40.001Z"/>
    </g>
    <g>
      <rect class="cls-1" x="110.293" y="413.307" width="174.298" height="43.288" transform="translate(-237.509 632.392) rotate(-90)"/>
      <path class="cls-2" d="m220.585,523.599h-46.288v-177.297h46.288v177.297Zm-43.288-3h40.288v-171.297h-40.288v171.297Z"/>
    </g>
    <g>
      <rect class="cls-1" x="153.581" y="413.307" width="174.298" height="43.288" transform="translate(-194.221 675.68) rotate(-90)"/>
      <path class="cls-2" d="m263.873,523.599h-46.288v-177.297h46.288v177.297Zm-43.288-3h40.288v-171.297h-40.288v171.297Z"/>
    </g>
    <g>
      <rect class="cls-1" x="196.868" y="413.307" width="174.298" height="43.288" transform="translate(-150.933 718.968) rotate(-90)"/>
      <path class="cls-2" d="m307.161,523.599h-46.288v-177.297h46.288v177.297Zm-43.288-3h40.288v-171.297h-40.288v171.297Z"/>
    </g>
    <g>
      <rect class="cls-1" x="240.156" y="413.307" width="174.298" height="43.288" transform="translate(-107.646 762.256) rotate(-90)"/>
      <path class="cls-2" d="m350.449,523.599h-46.288v-177.297h46.288v177.297Zm-43.288-3h40.288v-171.297h-40.288v171.297Z"/>
    </g>
    <g>
      <polygon class="cls-2" points="327.464 436.451 87.149 436.451 87.149 87.149 331.128 87.149 331.128 90.149 90.149 90.149 90.149 433.451 327.464 433.451 327.464 436.451"/>
      <g>
        <circle class="cls-1" cx="326.825" cy="434.951" r="11.279" transform="translate(-138.388 152.864) rotate(-21.848)"/>
        <path class="cls-2" d="m326.825,422.172c-7.046,0-12.779,5.733-12.779,12.779s5.733,12.779,12.779,12.779,12.779-5.733,12.779-12.779-5.733-12.779-12.779-12.779,7.046,0,0,0Zm0,22.559c-5.393,0-9.779-4.386-9.779-9.779s4.386-9.779,9.779-9.779,9.779,4.386,9.779,9.779-4.386,9.779-9.779,9.779,5.394,0,0,0Z"/>
      </g>
      <polygon class="cls-2" points="313.394 98.191 312.369 95.369 330.834 88.649 312.369 81.928 313.394 79.11 339.605 88.649 313.394 98.191"/>
    </g>
    <g>
      <g>
        <rect class="cls-1" x="1.5" y="1.5" width="174.298" height="174.298"/>
        <path class="cls-2" d="m177.298,177.297H0V0h177.297v177.297Zm-174.297-3h171.297V3H3v171.297Z"/>
      </g>
      <g>
        <line class="cls-1" x1="1.5" y1="1.5" x2="173.84" y2="173.242"/>
        <rect class="cls-2" x="86.171" y="-34.281" width="3" height="243.303" transform="translate(-36.102 87.798) rotate(-45.1)"/>
      </g>
      <g>
        <line class="cls-1" x1="1.5" y1="102.872" x2="173.295" y2="173.785"/>
        <rect class="cls-2" x="85.898" y="45.401" width="3" height="185.856" transform="translate(-73.812 166.336) rotate(-67.57)"/>
      </g>
      <g>
        <line class="cls-1" x1="174.892" y1="173.917" x2="103.226" y2="1.5"/>
        <rect class="cls-2" x="137.559" y="-5.651" width="3" height="186.718" transform="translate(-23.013 60.092) rotate(-22.571)"/>
      </g>
      <path class="cls-2" d="m90.149,175.797h-3c0-48.93,39.505-88.737,88.062-88.737v3c-46.904,0-85.062,38.461-85.062,85.737Z"/>
    </g>
    <g>
      <g>
        <rect class="cls-1" x="1.5" y="347.802" width="174.298" height="174.298" transform="translate(-346.302 523.6) rotate(-90)"/>
        <path class="cls-2" d="m177.298,523.599H0v-177.297h177.298v177.297Zm-174.298-3h171.298v-171.297H3v171.297Z"/>
      </g>
      <g>
        <line class="cls-1" x1="1.5" y1="522.1" x2="173.242" y2="349.759"/>
        <rect class="cls-2" x="-34.281" y="434.429" width="243.303" height="3" transform="translate(-283.111 190.142) rotate(-45.105)"/>
      </g>
      <g>
        <line class="cls-1" x1="102.872" y1="522.1" x2="173.785" y2="350.304"/>
        <rect class="cls-2" x="45.401" y="434.702" width="185.855" height="3" transform="translate(-317.657 397.68) rotate(-67.576)"/>
      </g>
      <g>
        <line class="cls-1" x1="173.917" y1="348.708" x2="1.5" y2="420.374"/>
        <rect class="cls-2" x="-5.651" y="383.041" width="186.718" height="3" transform="translate(-140.859 63.105) rotate(-22.567)"/>
      </g>
      <path class="cls-2" d="m175.798,436.451c-48.93,0-88.737-39.504-88.737-88.062h3c0,46.903,38.461,85.062,85.737,85.062v3Z"/>
    </g>
    <g>
      <rect class="cls-1" x="176.371" y="175.224" width="172.004" height="173.151" transform="translate(524.173 -.574) rotate(90)"/>
      <path class="cls-2" d="m350.449,349.302h-176.151v-175.004h176.151v175.004Zm-173.151-3h170.151v-169.004h-170.151v169.004Z"/>
    </g>
  </g>
  <g>
    <g>
      <rect class="cls-1" x="174.651" y="1.5" width="174.298" height="174.298" transform="translate(350.449 -173.151) rotate(90)"/>
      <path class="cls-2" d="m350.449,177.298h-177.297V0h177.297v177.298Zm-174.297-3h171.297V3h-171.297v171.298Z"/>
    </g>
    <g>
      <line class="cls-1" x1="348.949" y1="1.5" x2="177.207" y2="173.84"/>
      <rect class="cls-2" x="141.426" y="86.17" width="243.303" height="3" transform="translate(15.29 212.158) rotate(-45.105)"/>
    </g>
    <g>
      <line class="cls-1" x1="247.577" y1="1.5" x2="176.664" y2="173.295"/>
      <rect class="cls-2" x="119.193" y="85.897" width="185.855" height="3" transform="translate(50.417 250.141) rotate(-67.576)"/>
    </g>
    <g>
      <line class="cls-1" x1="176.532" y1="174.892" x2="348.949" y2="103.226"/>
      <rect class="cls-2" x="169.382" y="137.559" width="186.718" height="3" transform="translate(-33.248 111.48) rotate(-22.567)"/>
    </g>
    <g>
      <path class="cls-2" d="m259.778,165.014c-5.138-42.68-41.735-74.865-85.127-74.865v-3c44.909,0,82.786,33.321,88.105,77.507l-2.978.358Z"/>
      <polygon class="cls-2" points="248.592 148.762 251.233 147.334 260.583 164.618 264.529 145.367 267.468 145.969 261.867 173.294 248.592 148.762"/>
    </g>
  </g>
</svg>