<?xml version="1.0" encoding="UTF-8"?>
<svg id="Layer_1" data-name="Layer 1" xmlns="http://www.w3.org/2000/svg" viewBox="0 0 523.6 349.302">
  <defs>
    <style>
      .cls-1 {
        fill: #fff;
      }

      .cls-2 {
        fill: #1d1d1b;
      }
    </style>
  </defs>
  <g>
    <g>
      <polygon class="cls-1" points="347.802 347.802 391.376 347.802 434.951 347.802 478.525 347.802 522.1 347.802 522.1 173.504 478.525 173.504 434.951 173.504 391.376 173.504 347.802 173.504 347.802 347.802"/>
      <path class="cls-2" d="m523.6,349.302h-177.297v-177.298h177.297v177.298Zm-174.297-3h171.297v-171.298h-171.297v171.298Z"/>
    </g>
    <g>
      <polygon class="cls-1" points="1.5 347.802 45.074 347.802 88.649 347.802 132.223 347.802 175.798 347.802 175.798 173.504 132.223 173.504 88.649 173.504 45.074 173.504 1.5 173.504 1.5 347.802"/>
      <path class="cls-2" d="m177.298,349.302H0v-177.298h177.298v177.298Zm-174.298-3h171.298v-171.298H3v171.298Z"/>
    </g>
    <g>
      <rect class="cls-1" x="110.149" y="239.153" width="174.298" height="43.001" transform="translate(-63.355 457.951) rotate(-90)"/>
      <path class="cls-2" d="m220.299,349.302h-46.001v-177.298h46.001v177.298Zm-43.001-3h40.001v-171.298h-40.001v171.298Z"/>
    </g>
    <g>
      <rect class="cls-1" x="153.15" y="239.153" width="174.298" height="43.001" transform="translate(-20.354 500.953) rotate(-90)"/>
      <path class="cls-2" d="m263.3,349.302h-46.001v-177.298h46.001v177.298Zm-43.001-3h40.001v-171.298h-40.001v171.298Z"/>
    </g>
    <g>
      <rect class="cls-1" x="196.151" y="239.153" width="174.298" height="43.001" transform="translate(22.647 543.954) rotate(-90)"/>
      <path class="cls-2" d="m306.301,349.302h-46.001v-177.298h46.001v177.298Zm-43.001-3h40.001v-171.298h-40.001v171.298Z"/>
    </g>
    <g>
      <rect class="cls-1" x="239.153" y="239.153" width="174.298" height="43.001" transform="translate(65.648 586.955) rotate(-90)"/>
      <path class="cls-2" d="m349.302,349.302h-46.001v-177.298h46.001v177.298Zm-43.001-3h40.001v-171.298h-40.001v171.298Z"/>
    </g>
    <g>
      <rect class="cls-1" x="347.802" y="130.503" width="174.298" height="43.001" transform="translate(869.902 304.008) rotate(180)"/>
      <path class="cls-2" d="m523.6,175.004h-177.297v-46.001h177.297v46.001Zm-174.297-3h171.297v-40.001h-171.297v40.001Z"/>
    </g>
    <g>
      <rect class="cls-1" x="347.802" y="87.502" width="174.298" height="43.001" transform="translate(869.902 218.005) rotate(180)"/>
      <path class="cls-2" d="m523.6,132.003h-177.297v-46.001h177.297v46.001Zm-174.297-3h171.297v-40.001h-171.297v40.001Z"/>
    </g>
    <g>
      <rect class="cls-1" x="347.802" y="44.501" width="174.298" height="43.001" transform="translate(869.902 132.003) rotate(180)"/>
      <path class="cls-2" d="m523.6,89.002h-177.297v-46.002h177.297v46.002Zm-174.297-3h171.297v-40.002h-171.297v40.002Z"/>
    </g>
    <g>
      <rect class="cls-1" x="347.802" y="1.5" width="174.298" height="43.001" transform="translate(869.902 46.001) rotate(180)"/>
      <path class="cls-2" d="m523.6,46.001h-177.297V0h177.297v46.001Zm-174.297-3h171.297V3h-171.297v40.001Z"/>
    </g>
    <g>
      <rect class="cls-1" x="1.5" y="130.503" width="174.298" height="43.001" transform="translate(177.298 304.008) rotate(180)"/>
      <path class="cls-2" d="m177.298,175.004H0v-46.001h177.298v46.001Zm-174.298-3h171.298v-40.001H3v40.001Z"/>
    </g>
    <g>
      <rect class="cls-1" x="1.5" y="87.502" width="174.298" height="43.001" transform="translate(177.298 218.005) rotate(180)"/>
      <path class="cls-2" d="m177.298,132.003H0v-46.001h177.298v46.001Zm-174.298-3h171.298v-40.001H3v40.001Z"/>
    </g>
    <g>
      <rect class="cls-1" x="1.5" y="44.501" width="174.298" height="43.001" transform="translate(177.298 132.003) rotate(180)"/>
      <path class="cls-2" d="m177.298,89.002H0v-46.002h177.298v46.002ZM3,86.002h171.298v-40.002H3v40.002Z"/>
    </g>
    <g>
      <rect class="cls-1" x="1.5" y="1.5" width="174.298" height="43.001" transform="translate(177.298 46.001) rotate(180)"/>
      <path class="cls-2" d="m177.298,46.001H0V0h177.298v46.001ZM3,43.001h171.298V3H3v40.001Z"/>
    </g>
    <g>
      <polygon class="cls-2" points="436.451 262.153 87.149 262.153 87.149 18.175 90.149 18.175 90.149 259.153 433.451 259.153 433.451 21.838 436.451 21.838 436.451 262.153"/>
      <g>
        <path class="cls-1" d="m423.671,22.477c0-6.229,5.051-11.279,11.279-11.279s11.279,5.051,11.279,11.279-5.051,11.279-11.279,11.279-11.279-5.051-11.279-11.279Z"/>
        <path class="cls-2" d="m422.171,22.477c0,7.046,5.733,12.779,12.779,12.779s12.779-5.733,12.779-12.779-5.733-12.779-12.779-12.779-12.779,5.733-12.779,12.779,0-7.046,0,0Zm22.559,0c0,5.394-4.386,9.779-9.779,9.779s-9.779-4.386-9.779-9.779,4.386-9.779,9.779-9.779,9.779,4.386,9.779,9.779,0-5.394,0,0Z"/>
      </g>
      <polygon class="cls-2" points="98.191 35.908 95.369 36.933 88.649 18.468 81.928 36.933 79.11 35.908 88.649 9.697 98.191 35.908"/>
    </g>
  </g>
  <g>
    <g>
      <rect class="cls-1" x="1.5" y="173.504" width="174.298" height="174.298" transform="translate(-172.004 349.302) rotate(-90)"/>
      <path class="cls-2" d="m177.298,349.302H0v-177.297h177.298v177.297Zm-174.298-3h171.298v-171.297H3v171.297Z"/>
    </g>
    <g>
      <line class="cls-1" x1="1.5" y1="347.802" x2="173.242" y2="175.462"/>
      <rect class="cls-2" x="-34.281" y="260.132" width="243.303" height="3" transform="translate(-159.637 138.865) rotate(-45.105)"/>
    </g>
    <g>
      <line class="cls-1" x1="102.872" y1="347.802" x2="173.785" y2="176.007"/>
      <rect class="cls-2" x="45.401" y="260.404" width="185.856" height="3" transform="translate(-156.539 289.866) rotate(-67.576)"/>
    </g>
    <g>
      <line class="cls-1" x1="173.917" y1="174.41" x2="1.5" y2="246.077"/>
      <rect class="cls-2" x="-5.651" y="208.743" width="186.718" height="3" transform="translate(-73.964 49.753) rotate(-22.566)"/>
    </g>
    <path class="cls-2" d="m175.798,262.153c-48.93,0-88.737-39.505-88.737-88.062h3c0,46.904,38.461,85.062,85.737,85.062v3Z"/>
  </g>
  <g>
    <g>
      <rect class="cls-1" x="347.802" y="173.504" width="174.298" height="174.298" transform="translate(869.902 521.306) rotate(180)"/>
      <path class="cls-2" d="m523.6,349.302h-177.297v-177.298h177.297v177.298Zm-174.297-3h171.297v-171.298h-171.297v171.298Z"/>
    </g>
    <g>
      <line class="cls-1" x1="522.1" y1="347.802" x2="349.759" y2="176.06"/>
      <rect class="cls-2" x="434.43" y="140.28" width="3" height="243.303" transform="translate(-57.318 385.825) rotate(-45.1)"/>
    </g>
    <g>
      <line class="cls-1" x1="522.1" y1="246.43" x2="350.304" y2="175.517"/>
      <rect class="cls-2" x="434.702" y="118.046" width="3" height="185.855" transform="translate(74.757 533.68) rotate(-67.57)"/>
    </g>
    <g>
      <line class="cls-1" x1="348.708" y1="175.385" x2="420.374" y2="347.802"/>
      <rect class="cls-2" x="383.041" y="168.235" width="3" height="186.718" transform="translate(-70.952 167.631) rotate(-22.571)"/>
    </g>
    <path class="cls-2" d="m348.389,262.241v-3c46.903,0,85.062-38.461,85.062-85.737h3c0,48.93-39.504,88.737-88.062,88.737Z"/>
  </g>
</svg>