<?xml version="1.0" encoding="UTF-8"?>
<svg id="Layer_1" data-name="Layer 1" xmlns="http://www.w3.org/2000/svg" viewBox="0 0 95.5 290.65">
  <defs>
    <style>
      .cls-1 {
        fill: none;
      }

      .cls-1, .cls-2 {
        stroke: #000;
        stroke-miterlimit: 10;
        stroke-width: .6px;
      }

      .cls-2 {
        fill: #baa188;
      }
    </style>
  </defs>
  <rect class="cls-1" x=".3" y="12.46" width="79.73" height="265.75"/>
  <rect class="cls-2" x="80.03" y=".3" width="15.17" height="290.04"/>
  <line class="cls-1" x1="80.03" y1="39.04" x2=".3" y2="39.04"/>
  <line class="cls-1" x1="80.03" y1="65.61" x2=".3" y2="65.61"/>
  <line class="cls-1" x1="80.03" y1="92.19" x2=".3" y2="92.19"/>
  <line class="cls-1" x1="80.03" y1="118.77" x2=".3" y2="118.77"/>
  <line class="cls-1" x1="80.03" y1="145.34" x2=".3" y2="145.34"/>
  <line class="cls-1" x1="80.03" y1="171.92" x2=".3" y2="171.92"/>
  <line class="cls-1" x1="80.03" y1="198.49" x2=".3" y2="198.49"/>
  <line class="cls-1" x1="80.03" y1="225.07" x2=".3" y2="225.07"/>
  <line class="cls-1" x1="80.03" y1="251.64" x2=".3" y2="251.64"/>
  <line class="cls-1" x1="40.16" y1="22.28" x2="40.16" y2="276.6"/>
  <polygon points="40.16 12.99 45.41 32.35 40.16 32.35 34.92 32.35 40.16 12.99"/>
  <path d="m44.77,278.51c0,2.54-2.06,4.61-4.61,4.61s-4.61-2.06-4.61-4.61,2.06-4.61,4.61-4.61,4.61,2.06,4.61,4.61Z"/>
</svg>