<?xml version="1.0" encoding="UTF-8"?>
<svg id="Layer_1" data-name="Layer 1" xmlns="http://www.w3.org/2000/svg" viewBox="0 0 190.38 192.43">
  <defs>
    <style>
      .cls-1 {
        fill: none;
      }

      .cls-1, .cls-2 {
        stroke: #000;
        stroke-miterlimit: 10;
        stroke-width: .6px;
      }

      .cls-2 {
        fill: #baa188;
      }
    </style>
  </defs>
  <polyline class="cls-1" points="95.2 174.9 15.47 174.9 15.47 15.58 174.92 15.58 174.92 174.9 174.92 174.9 95.2 174.9"/>
  <polygon class="cls-2" points=".3 .3 .3 192.05 15.47 192.05 15.47 15.58 174.9 15.58 174.9 192.13 190.08 192.13 190.08 .38 190.08 .3 .3 .3"/>
  <line class="cls-1" x1="95.2" y1="148.48" x2="15.47" y2="148.48"/>
  <line class="cls-1" x1="95.2" y1="148.48" x2="174.92" y2="148.48"/>
  <line class="cls-1" x1="15.31" y1="121.91" x2="174.92" y2="121.91"/>
  <line class="cls-1" x1="95.2" y1="95.33" x2="95.2" y2="15.58"/>
  <line class="cls-1" x1="95.2" y1="95.33" x2="95.2" y2="174.9"/>
  <line class="cls-1" x1="174.92" y1="95.33" x2="95.2" y2="95.33"/>
  <line class="cls-1" x1="174.76" y1="95.33" x2="15.31" y2="95.33"/>
  <polyline class="cls-1" points="55.27 174.12 55.27 55.39 135.12 55.39 135.12 155.89"/>
  <line class="cls-1" x1="95.2" y1="95.33" x2="15.47" y2="15.58"/>
  <line class="cls-1" x1="95.2" y1="95.33" x2="174.92" y2="15.58"/>
  <polygon points="135.06 174.12 140.3 154.77 135.06 154.77 129.82 154.77 135.06 174.12"/>
  <path d="m50.66,174.12c0,2.54,2.06,4.61,4.61,4.61s4.61-2.06,4.61-4.61-2.06-4.61-4.61-4.61-4.61,2.06-4.61,4.61Z"/>
</svg>