<?xml version="1.0" encoding="UTF-8"?>
<svg id="Layer_1" data-name="Layer 1" xmlns="http://www.w3.org/2000/svg" viewBox="0 0 143.81 165.36">
  <defs>
    <style>
      .cls-1 {
        fill: #939598;
      }

      .cls-2, .cls-3 {
        fill: none;
      }

      .cls-2, .cls-3, .cls-4, .cls-5 {
        stroke: #26281e;
      }

      .cls-2, .cls-3, .cls-5 {
        stroke-linecap: round;
        stroke-linejoin: round;
      }

      .cls-2, .cls-5 {
        stroke-width: .72px;
      }

      .cls-6 {
        fill: #e4e5e5;
      }

      .cls-4 {
        fill: #dbe0dc;
        stroke-miterlimit: 10;
      }

      .cls-7 {
        fill: #def0fa;
      }

      .cls-5 {
        fill: #fafaf8;
      }

      .cls-8 {
        fill: #26281e;
      }
    </style>
  </defs>
  <polygon class="cls-1" points="71.81 3.36 71.81 57.36 62.81 57.36 62.81 111.36 71.81 111.36 71.81 165.36 143.81 165.36 143.81 3.36 71.81 3.36"/>
  <rect class="cls-5" x="59.81" y="54.36" width="27" height="54"/>
  <g>
    <path class="cls-8" d="m76.15,96.03s0,0-.01,0l-9.88-.38c-.1,0-.19-.04-.25-.12-.06-.07-.1-.16-.09-.26l1.3-31.23c0-.2.13-.34.37-.35l9.4.2c.1,0,.19.04.25.11.07.07.1.16.1.26l-.81,31.41c0,.1-.04.19-.11.25-.07.06-.16.1-.25.1Zm-9.51-1.09l9.16.35.79-30.68-8.68-.18-1.27,30.51Z"/>
    <path class="cls-8" d="m76.93,96.89h0l-11.38-.11c-.1,0-.19-.04-.25-.11-.07-.07-.1-.16-.1-.26l.88-33.05c0-.2.16-.35.36-.35h0l11.38.11c.1,0,.19.04.25.11.07.07.1.16.1.26l-.88,33.05c0,.2-.17.35-.36.35Zm-11.01-.83l10.66.1.86-32.33-10.66-.1-.86,32.33Z"/>
    <path class="cls-8" d="m67.37,64.91c-.17,0-.32-.12-.35-.3-.04-.2.09-.38.29-.42l1.5-.27c.2-.03.38.09.42.29.04.2-.09.38-.29.42l-1.5.27s-.04,0-.06,0Z"/>
    <path class="cls-8" d="m71.83,64.92s-.03,0-.04,0l-2.13-.25c-.2-.02-.34-.2-.32-.4.02-.2.2-.34.4-.32l2.13.25c.2.02.34.2.32.4-.02.18-.18.32-.36.32Z"/>
    <path class="cls-8" d="m75.12,65.04s0,0-.01,0l-2.47-.1c-.2,0-.35-.17-.35-.37,0-.2.18-.38.37-.35l2.47.1c.2,0,.35.17.35.37,0,.19-.17.35-.36.35Z"/>
    <path class="cls-8" d="m75.95,65.08c-.18,0-.34-.14-.36-.32-.02-.2.12-.38.32-.4l1.16-.12c.2-.03.37.12.4.32.02.2-.12.38-.32.4l-1.16.12s-.03,0-.04,0Z"/>
    <path class="cls-8" d="m68.73,67.92s0,0-.01,0l-1.65-.06c-.2,0-.35-.17-.35-.37,0-.2.18-.37.37-.35l1.65.06c.2,0,.35.17.35.37,0,.19-.17.35-.36.35Z"/>
    <path class="cls-8" d="m72.03,68.05s0,0-.01,0l-2.47-.1c-.2,0-.35-.17-.35-.37,0-.2.19-.39.37-.35l2.47.1c.2,0,.35.17.35.37,0,.19-.17.35-.36.35Z"/>
    <path class="cls-8" d="m72.85,68.08c-.19,0-.35-.15-.36-.34,0-.2.14-.37.34-.38l1.98-.09c.2-.02.37.15.38.34,0,.2-.14.37-.34.38l-1.98.09s-.01,0-.02,0Z"/>
    <path class="cls-8" d="m76.97,68.24s-.04,0-.06,0l-1.31-.22c-.2-.03-.33-.22-.3-.41.03-.2.21-.32.41-.3l1.31.22c.2.03.33.22.3.41-.03.18-.18.3-.36.3Z"/>
    <path class="cls-8" d="m68.6,71.21s-.04,0-.06,0l-1.31-.21c-.2-.03-.33-.22-.3-.41.03-.19.2-.33.41-.3l1.31.21c.2.03.33.22.3.41-.03.18-.18.3-.36.3Z"/>
    <path class="cls-8" d="m69.42,71.24c-.18,0-.34-.14-.36-.32-.02-.2.12-.38.32-.4l2.32-.24c.21-.02.37.12.4.32.02.2-.12.38-.32.4l-2.32.24s-.03,0-.04,0Z"/>
    <path class="cls-8" d="m75.04,71.13s0,0-.01,0l-2.47-.1c-.2,0-.35-.17-.35-.37,0-.2.19-.39.37-.35l2.47.1c.2,0,.35.17.35.37,0,.19-.17.35-.36.35Z"/>
    <path class="cls-8" d="m76.68,71.2s0,0-.01,0l-.82-.03c-.2,0-.35-.17-.35-.37,0-.2.21-.36.37-.35l.82.03c.2,0,.35.17.35.37,0,.19-.17.35-.36.35Z"/>
    <path class="cls-8" d="m68.65,74.01s0,0-.01,0l-1.65-.06c-.2,0-.35-.17-.35-.37,0-.2.19-.38.37-.35l1.65.06c.2,0,.35.17.35.37,0,.19-.17.35-.36.35Z"/>
    <path class="cls-8" d="m71.6,74.29s-.03,0-.04,0l-2.13-.25c-.2-.02-.34-.2-.32-.4.02-.2.21-.34.4-.32l2.13.25c.2.02.34.2.32.4-.02.18-.18.32-.36.32Z"/>
    <path class="cls-8" d="m74.9,74.42s0,0-.01,0l-2.47-.1c-.2,0-.35-.17-.35-.37,0-.2.2-.36.37-.35l2.47.1c.2,0,.35.17.35.37,0,.19-.17.35-.36.35Z"/>
    <path class="cls-8" d="m76.55,74.48s0,0-.01,0l-.82-.03c-.2,0-.35-.17-.35-.37,0-.19.17-.35.36-.35,0,0,0,0,.01,0l.82.03c.2,0,.35.17.35.37,0,.19-.17.35-.36.35Z"/>
    <path class="cls-8" d="m68.51,77.3s0,0-.01,0l-1.65-.06c-.2,0-.35-.17-.35-.37,0-.2.17-.36.37-.35l1.65.06c.2,0,.35.17.35.37,0,.19-.17.35-.36.35Z"/>
    <path class="cls-8" d="m71.8,77.43s0,0-.01,0l-2.47-.1c-.2,0-.35-.17-.35-.37,0-.2.18-.37.37-.35l2.47.1c.2,0,.35.17.35.37,0,.19-.17.35-.36.35Z"/>
    <path class="cls-8" d="m72.63,77.46c-.19,0-.35-.15-.36-.34,0-.2.14-.37.34-.38l1.98-.09c.19-.02.37.15.38.34,0,.2-.14.37-.34.38l-1.98.09s-.01,0-.02,0Z"/>
    <path class="cls-8" d="m75.43,77.4c-.18,0-.34-.14-.36-.32-.02-.2.12-.38.32-.4l1.16-.12c.21-.03.38.12.4.32.02.2-.12.38-.32.4l-1.16.12s-.03,0-.04,0Z"/>
    <path class="cls-8" d="m67.06,80.37c-.18,0-.34-.14-.36-.32-.02-.2.12-.38.32-.4l1.16-.12c.21-.02.38.12.4.32.02.2-.12.38-.32.4l-1.16.12s-.03,0-.04,0Z"/>
    <path class="cls-8" d="m71.52,80.38s0,0-.01,0l-2.47-.1c-.2,0-.35-.17-.35-.37,0-.2.19-.37.37-.35l2.47.1c.2,0,.35.17.35.37,0,.19-.17.35-.36.35Z"/>
    <path class="cls-8" d="m74.47,80.66s-.03,0-.04,0l-2.13-.25c-.2-.02-.34-.2-.32-.4.02-.2.21-.34.4-.32l2.13.25c.2.02.34.2.32.4-.02.18-.18.32-.36.32Z"/>
    <path class="cls-8" d="m76.46,80.57s0,0-.01,0l-.82-.03c-.2,0-.35-.17-.35-.37,0-.19.17-.35.36-.35,0,0,0,0,.01,0l.82.03c.2,0,.35.17.35.37,0,.19-.17.35-.36.35Z"/>
    <path class="cls-8" d="m68.42,83.39s0,0-.01,0l-1.65-.06c-.2,0-.35-.17-.35-.37,0-.2.22-.37.37-.35l1.65.06c.2,0,.35.17.35.37,0,.19-.17.35-.36.35Z"/>
    <path class="cls-8" d="m71.38,83.67s-.03,0-.04,0l-2.13-.25c-.2-.02-.34-.2-.32-.4.02-.2.21-.35.4-.32l2.13.25c.2.02.34.2.32.4-.02.18-.18.32-.36.32Z"/>
    <path class="cls-8" d="m74.67,83.79s0,0-.01,0l-2.47-.1c-.2,0-.35-.17-.35-.37,0-.2.19-.39.37-.35l2.47.1c.2,0,.35.17.35.37,0,.19-.17.35-.36.35Z"/>
    <path class="cls-8" d="m76.32,83.86s0,0-.01,0l-.82-.03c-.2,0-.35-.17-.35-.37,0-.2.21-.36.37-.35l.82.03c.2,0,.35.17.35.37,0,.19-.17.35-.36.35Z"/>
    <path class="cls-8" d="m68.28,86.67s0,0-.01,0l-1.65-.06c-.2,0-.35-.17-.35-.37,0-.19.17-.35.36-.35,0,0,0,0,.01,0l1.65.06c.2,0,.35.17.35.37,0,.19-.17.35-.36.35Z"/>
    <path class="cls-8" d="m69.11,86.71c-.19,0-.35-.15-.36-.34,0-.2.14-.37.34-.38l1.98-.09c.21-.04.37.15.38.34,0,.2-.14.37-.34.38l-1.98.09s-.01,0-.02,0Z"/>
    <path class="cls-8" d="m74.39,86.75s-.03,0-.04,0l-2.13-.25c-.2-.02-.34-.2-.32-.4.02-.2.2-.35.4-.32l2.13.25c.2.02.34.2.32.4-.02.18-.18.32-.36.32Z"/>
    <path class="cls-8" d="m75.21,86.78c-.18,0-.34-.14-.36-.32-.02-.2.12-.38.32-.4l1.16-.12c.21-.03.38.12.4.32.02.2-.12.38-.32.4l-1.16.12s-.03,0-.04,0Z"/>
    <path class="cls-8" d="m66.5,89.9c-.17,0-.32-.12-.35-.3-.04-.2.09-.38.29-.42l1.5-.27c.2-.04.38.1.42.29.04.2-.09.38-.29.42l-1.5.27s-.04,0-.06,0Z"/>
    <path class="cls-8" d="m71.29,89.75s0,0-.01,0l-2.47-.1c-.2,0-.35-.17-.35-.37,0-.2.18-.39.37-.35l2.47.1c.2,0,.35.17.35.37,0,.19-.17.35-.36.35Z"/>
    <path class="cls-8" d="m74.25,90.03s-.03,0-.04,0l-2.13-.25c-.2-.02-.34-.2-.32-.4.02-.2.2-.34.4-.32l2.13.25c.2.02.34.2.32.4-.02.18-.18.32-.36.32Z"/>
    <path class="cls-8" d="m75.07,90.06c-.18,0-.34-.14-.36-.32-.02-.2.12-.38.32-.4l1.16-.12c.2-.03.38.12.4.32.02.2-.12.38-.32.4l-1.16.12s-.03,0-.04,0Z"/>
    <path class="cls-8" d="m67.86,92.91s-.04,0-.06,0l-1.31-.21c-.2-.03-.33-.22-.3-.41.03-.19.2-.33.41-.3l1.31.21c.2.03.33.22.3.41-.03.18-.18.3-.36.3Z"/>
    <path class="cls-8" d="m71.16,93.04s0,0-.01,0l-2.47-.1c-.2,0-.35-.17-.35-.37,0-.2.2-.36.37-.35l2.47.1c.2,0,.35.17.35.37,0,.19-.17.35-.36.35Z"/>
    <path class="cls-8" d="m71.98,93.07c-.18,0-.34-.14-.36-.32-.02-.2.12-.38.32-.4l2.32-.24c.21-.02.37.12.4.32.02.2-.12.38-.32.4l-2.32.24s-.03,0-.04,0Z"/>
    <path class="cls-8" d="m76.1,93.23s-.08,0-.13-.02l-.97-.37c-.19-.07-.28-.28-.21-.46.07-.19.28-.28.46-.21l.97.37c.19.07.28.28.21.46-.05.14-.19.23-.34.23Z"/>
    <path class="cls-8" d="m68.73,95.75c-.19,0-.35-.15-.36-.35l-.08-1.98c0-.2.15-.37.34-.37.2-.01.37.15.37.34l.08,1.98c0,.2-.15.37-.34.37,0,0,0,0-.01,0Z"/>
    <path class="cls-8" d="m68.68,92.94s0,0-.01,0c-.2,0-.35-.18-.34-.37l.1-2.46c0-.2.18-.38.37-.34.2,0,.35.18.34.37l-.1,2.46c0,.19-.17.35-.36.35Z"/>
    <path class="cls-8" d="m68.82,89.66s-.03,0-.04,0c-.2-.02-.34-.2-.31-.4l.25-2.13c.02-.2.19-.35.4-.31.2.02.34.2.31.4l-.25,2.13c-.02.18-.18.32-.36.32Z"/>
    <path class="cls-8" d="m69.11,86.71s0,0-.01,0c-.2,0-.35-.18-.34-.37l.1-2.46c0-.2.19-.38.37-.34.2,0,.35.18.34.37l-.1,2.46c0,.19-.17.35-.36.35Z"/>
    <path class="cls-8" d="m69.25,83.42c-.19,0-.35-.15-.36-.35l-.08-1.98c0-.2.15-.37.34-.37.2-.04.37.15.37.34l.08,1.98c0,.2-.15.37-.34.37,0,0,0,0-.01,0Z"/>
    <path class="cls-8" d="m69.05,80.28s-.03,0-.04,0c-.2-.02-.34-.2-.31-.4l.25-2.13c.02-.2.2-.34.4-.31.2.02.34.2.31.4l-.25,2.13c-.02.18-.18.32-.36.32Z"/>
    <path class="cls-8" d="m69.33,77.33s0,0-.01,0c-.2,0-.35-.18-.34-.37l.1-2.47c0-.2.2-.35.37-.34.2,0,.35.18.34.37l-.1,2.47c0,.19-.17.35-.36.35Z"/>
    <path class="cls-8" d="m69.47,74.04c-.19,0-.35-.15-.36-.35l-.08-1.98c0-.2.15-.37.34-.37.22-.01.37.15.37.34l.08,1.98c0,.2-.15.37-.34.37,0,0,0,0-.01,0Z"/>
    <path class="cls-8" d="m69.42,71.24s0,0-.01,0c-.2,0-.35-.18-.34-.37l.1-2.46c0-.2.19-.38.37-.34.2,0,.35.18.34.37l-.1,2.46c0,.19-.17.35-.36.35Z"/>
    <path class="cls-8" d="m69.56,67.96s0,0-.01,0c-.2,0-.35-.18-.34-.37l.1-2.46c0-.2.17-.37.37-.34.2,0,.35.18.34.37l-.1,2.46c0,.19-.17.35-.36.35Z"/>
    <path class="cls-8" d="m69.7,64.67c-.1,0-.19-.04-.26-.11-.07-.06-.1-.15-.1-.25,0-.09.03-.18.1-.25.13-.14.38-.14.51,0,.07.07.11.16.11.25s-.04.18-.1.25c-.08.07-.17.11-.26.11Z"/>
    <path class="cls-8" d="m72.03,95.87c-.19,0-.35-.15-.36-.35l-.08-1.98c0-.2.15-.37.34-.37.22-.02.37.15.37.34l.08,1.98c0,.2-.15.37-.34.37,0,0,0,0-.01,0Z"/>
    <path class="cls-8" d="m71.98,93.07s0,0-.01,0c-.2,0-.35-.18-.34-.37l.1-2.47c0-.2.2-.35.37-.34.2,0,.35.18.34.37l-.1,2.47c0,.19-.17.35-.36.35Z"/>
    <path class="cls-8" d="m72.12,89.79c-.19,0-.35-.15-.36-.35l-.08-1.98c0-.2.15-.37.34-.37.21-.01.37.15.37.34l.08,1.98c0,.2-.15.37-.34.37,0,0,0,0-.01,0Z"/>
    <path class="cls-8" d="m72.25,86.5c-.19,0-.35-.15-.36-.35l-.08-1.98c0-.2.15-.37.34-.37.2-.04.37.15.37.34l.08,1.98c0,.2-.15.37-.34.37,0,0,0,0-.01,0Z"/>
    <path class="cls-8" d="m72.2,83.7s0,0-.01,0c-.2,0-.35-.18-.34-.37l.1-2.47c0-.2.17-.37.37-.34.2,0,.35.18.34.37l-.1,2.47c0,.19-.17.35-.36.35Z"/>
    <path class="cls-8" d="m72.34,80.41s-.03,0-.04,0c-.2-.02-.34-.2-.32-.4l.25-2.13c.02-.2.21-.35.4-.32.2.02.34.2.32.4l-.25,2.13c-.02.18-.18.32-.36.32Z"/>
    <path class="cls-8" d="m72.63,77.46c-.18,0-.34-.14-.36-.32l-.23-2.31c-.02-.2.12-.37.32-.39.2-.03.37.12.39.32l.23,2.31c.02.2-.12.37-.32.39-.01,0-.02,0-.04,0Z"/>
    <path class="cls-8" d="m72.43,74.32s0,0-.01,0c-.2,0-.35-.18-.34-.37l.1-2.46c0-.2.18-.38.37-.34.2,0,.35.18.34.37l-.1,2.46c0,.19-.17.35-.36.35Z"/>
    <path class="cls-8" d="m72.56,71.04s-.03,0-.04,0c-.2-.02-.34-.2-.32-.4l.25-2.13c.02-.2.21-.34.4-.32.2.02.34.2.32.4l-.25,2.13c-.02.18-.18.32-.36.32Z"/>
    <path class="cls-8" d="m72.85,68.08c-.18,0-.34-.14-.36-.32l-.23-2.31c-.02-.2.12-.37.32-.39.2-.01.37.12.39.32l.23,2.31c.02.2-.12.37-.32.39-.01,0-.02,0-.04,0Z"/>
    <path class="cls-8" d="m72.65,64.95s-.09,0-.13-.02c-.19-.07-.28-.28-.21-.46l.19-.49c.07-.19.28-.28.46-.21.19.07.28.28.21.46l-.19.49c-.05.14-.19.23-.34.23Z"/>
    <path class="cls-8" d="m74.99,96.15s0,0-.01,0c-.2,0-.35-.18-.34-.37l.1-2.47c0-.2.19-.35.37-.34.2,0,.35.18.34.37l-.1,2.47c0,.19-.17.35-.36.35Z"/>
    <path class="cls-8" d="m75.12,92.86c-.19,0-.35-.15-.36-.35l-.08-1.98c0-.2.15-.37.34-.37.21-.01.37.15.37.34l.08,1.98c0,.2-.15.37-.34.37,0,0,0,0-.01,0Z"/>
    <path class="cls-8" d="m75.07,90.06s0,0-.01,0c-.2,0-.35-.18-.34-.37l.1-2.46c0-.2.18-.38.37-.34.2,0,.35.18.34.37l-.1,2.46c0,.19-.17.35-.36.35Z"/>
    <path class="cls-8" d="m75.21,86.78s-.03,0-.04,0c-.2-.02-.34-.2-.31-.4l.25-2.13c.02-.2.2-.34.4-.31.2.02.34.2.31.4l-.25,2.13c-.02.18-.18.32-.36.32Z"/>
    <path class="cls-8" d="m75.5,83.82s0,0-.01,0c-.2,0-.35-.18-.34-.37l.1-2.46c0-.2.19-.38.37-.34.2,0,.35.18.34.37l-.1,2.46c0,.19-.17.35-.36.35Z"/>
    <path class="cls-8" d="m75.63,80.54c-.18,0-.34-.14-.36-.32l-.23-2.31c-.02-.2.12-.37.32-.39.21-.01.37.12.39.32l.23,2.31c.02.2-.12.37-.32.39-.01,0-.02,0-.04,0Z"/>
    <path class="cls-8" d="m75.43,77.4s-.03,0-.04,0c-.2-.02-.34-.2-.31-.4l.25-2.13c.02-.2.19-.33.4-.31.2.02.34.2.31.4l-.25,2.13c-.02.18-.18.32-.36.32Z"/>
    <path class="cls-8" d="m75.72,74.45s0,0-.01,0c-.2,0-.35-.18-.34-.37l.1-2.47c0-.2.2-.35.37-.34.2,0,.35.18.34.37l-.1,2.47c0,.19-.17.35-.36.35Z"/>
    <path class="cls-8" d="m75.86,71.16c-.19,0-.35-.15-.36-.35l-.08-1.98c0-.2.15-.37.34-.37.22-.01.37.15.37.34l.08,1.98c0,.2-.15.37-.34.37,0,0,0,0-.01,0Z"/>
    <path class="cls-8" d="m75.66,68.03s-.03,0-.04,0c-.2-.02-.34-.2-.31-.4l.25-2.13c.02-.2.19-.34.4-.31.2.02.34.2.31.4l-.25,2.13c-.02.18-.18.32-.36.32Z"/>
    <path class="cls-8" d="m75.95,65.08s-.09,0-.13-.02c-.19-.07-.28-.28-.21-.46l.18-.49c.07-.19.28-.28.46-.21.19.07.28.28.21.46l-.18.49c-.05.14-.19.23-.34.23Z"/>
    <path class="cls-8" d="m64.04,105.01s-.09,0-.13-.02l-.49-.18c-.09-.03-.16-.1-.2-.19l-.09-.2-.35-.13c-.09-.03-.16-.1-.2-.19l-.15-.33c-.04-.09-.04-.19,0-.28l.13-.35-.09-.2c-.04-.09-.04-.19,0-.28l.37-.97s.03-.07.06-.1l.52-.64s.08-.08.13-.1l.26-.12.47-.57s.08-.08.13-.1l2.02-.91s.11-.04.16-.03l.74.03.26-.12c.09-.04.19-.04.27,0l.49.18c.09.03.16.1.2.19l.6,1.34c.04.09.04.19,0,.28l-.56,1.46s-.03.07-.06.1l-.52.64s-.08.08-.13.1l-.26.12-.47.57s-.08.08-.13.1l-1.68.76c-.09.04-.18.04-.27,0l-.35-.13-.54.24s-.1.03-.15.03Zm-.22-.83l.21.08.54-.24c.09-.04.19-.04.28,0l.35.13,1.47-.66.47-.57s.08-.08.13-.1l.26-.12.43-.53.48-1.27-.48-1.07-.21-.08-.2.09s-.1.05-.16.03l-.74-.03-1.86.84-.47.57s-.08.08-.13.1l-.26.12-.43.53-.3.78.09.2c.04.09.04.19,0,.28l-.13.35.03.06.35.13c.09.03.16.1.2.19l.09.2Z"/>
    <path class="cls-8" d="m67.17,101.18c-.11,0-.21-.05-.28-.14-.12-.16-.1-.38.06-.51l1.19-.94c.15-.12.38-.09.51.06.12.16.1.38-.06.51l-1.19.94c-.07.05-.14.08-.22.08Z"/>
    <path class="cls-8" d="m67.74,103.34c-.11,0-.22-.05-.29-.15l-1.09-1.52c-.12-.16-.08-.39.08-.5.16-.12.39-.08.5.08l1.09,1.52c.12.16.08.39-.08.5-.06.04-.14.07-.21.07Z"/>
    <path class="cls-8" d="m66.49,101.48c-.11,0-.21-.05-.28-.14l-.94-1.19c-.12-.16-.1-.38.06-.51.16-.12.38-.1.51.06l.94,1.19c.12.16.1.38-.06.51-.07.05-.15.08-.22.08Z"/>
    <path class="cls-8" d="m66.12,102.46s-.06,0-.08-.01c-.11-.03-.2-.1-.24-.2l-.15-.34c-.07-.15-.02-.33.11-.43l1.19-.94c.09-.07.2-.09.31-.07.11.03.2.1.24.2l.15.33c.07.15.02.33-.11.43l-1.19.94c-.06.05-.14.08-.22.08Z"/>
  </g>
  <path class="cls-5" d="m68.81.36v54c4.97,0,9,12.09,9,27s-4.03,27-9,27v54h72V.36h-72Z"/>
  <g>
    <g>
      <path class="cls-1" d="m48.32,43.7l.11.14-2.15,3.84-.31-.17c-10.17-6.22-23.35-4.39-31.42,4.38-8.07,8.77-8.77,22.01-1.66,31.57l.05.22-3.53,2.63-.13-.18c-8.39-11.29-7.56-26.92,1.96-37.26,9.53-10.35,25.08-12.52,37.08-5.17Z"/>
      <path class="cls-1" d="m32.93,47.87c11.53,0,20.89,9.32,20.89,20.81s-9.36,20.82-20.89,20.82-20.89-9.32-20.89-20.82,9.35-20.81,20.89-20.81Z"/>
    </g>
    <path class="cls-1" d="m32.93,47.87c-11.54,0-20.89,9.32-20.89,20.81s9.35,20.82,20.89,20.82,20.89-9.32,20.89-20.82-9.36-20.81-20.89-20.81Z"/>
  </g>
  <g>
    <g>
      <path class="cls-4" d="m45.32,40.7l.11.14-2.15,3.84-.31-.17c-10.17-6.22-23.35-4.39-31.42,4.38-8.07,8.77-8.77,22.01-1.66,31.57l.05.22-3.53,2.63-.13-.18c-8.39-11.29-7.56-26.92,1.96-37.26,9.53-10.35,25.08-12.52,37.08-5.17Z"/>
      <path class="cls-4" d="m29.93,44.87c11.53,0,20.89,9.32,20.89,20.81s-9.36,20.82-20.89,20.82-20.89-9.32-20.89-20.82,9.35-20.81,20.89-20.81Z"/>
    </g>
    <g>
      <path class="cls-3" d="m29.93,44.87c-11.54,0-20.89,9.32-20.89,20.81s9.35,20.82,20.89,20.82,20.89-9.32,20.89-20.82-9.36-20.81-20.89-20.81Z"/>
      <path class="cls-8" d="m9.89,80.96c-.15,0-.3-.07-.4-.2-7.24-9.73-6.53-23.28,1.69-32.21,8.21-8.92,21.69-10.8,32.05-4.47.24.14.31.45.17.69-.15.24-.46.31-.69.17-9.95-6.09-22.9-4.28-30.79,4.29-7.89,8.58-8.58,21.59-1.63,30.93.17.22.12.54-.1.7-.09.07-.19.1-.3.1Z"/>
      <path class="cls-8" d="m6.28,83.63c-.15,0-.3-.07-.4-.2-8.51-11.46-7.67-27.39,1.99-37.9,9.67-10.5,25.53-12.72,37.71-5.26.24.14.31.45.17.69-.15.24-.46.31-.69.17-11.77-7.21-27.1-5.07-36.45,5.08-9.34,10.15-10.15,25.55-1.93,36.62.16.22.12.53-.1.7-.09.07-.19.1-.3.1Z"/>
      <path class="cls-8" d="m6.71,83.71l-.37-.35-.29-.41.07-.05,3.52-2.62c.22-.16.53-.12.7.1.17.22.12.54-.1.7l-3.53,2.63Z"/>
      <path class="cls-8" d="m43.18,45.37c-.08,0-.16-.02-.23-.06-.25-.13-.34-.43-.21-.67l.1-.19,2.16-3.85c.13-.24.44-.33.68-.19.24.13.33.44.19.68l-2.24,4.02c-.09.17-.26.27-.44.27Z"/>
    </g>
  </g>
  <polygon class="cls-1" points="109.46 45.89 109.63 55.27 118.2 55.18 118.04 45.79 109.46 45.89"/>
  <polygon class="cls-1" points="114.77 60.12 114.97 75.24 114.96 75.24 114.82 75.65 114.69 76.05 114.49 76.32 114.35 76.73 114.22 77.14 114.15 77.68 114.02 78.08 113.89 78.49 113.69 79.1 113.55 79.5 113.49 80.04 113.42 80.58 113.35 81.12 113.15 81.73 113.09 82.27 113.02 82.81 113.02 83.49 112.96 84.03 112.76 84.64 112.76 85.31 112.76 85.99 112.7 86.53 112.7 87.2 112.7 87.88 112.64 88.42 112.64 89.09 112.64 89.77 112.64 90.44 112.64 91.12 112.65 91.79 112.65 92.47 112.65 93.14 112.65 93.82 112.79 94.43 112.79 95.1 112.93 95.71 112.93 96.38 113.07 96.99 113.07 97.67 113.14 98.14 113.28 98.75 113.41 99.35 113.41 100.03 113.48 100.5 113.62 101.11 113.76 101.72 113.96 102.12 114.03 102.59 114.17 103.2 114.37 103.6 114.44 104.08 114.64 104.48 114.71 104.95 114.92 105.36 115.12 105.76 115.26 106.03 115.38 106.27 115.58 121.77 117.67 121.74 120.78 121.68 120.58 106.56 120.59 106.56 120.73 106.15 120.93 105.88 121.06 105.47 121.2 105.07 121.33 104.66 121.46 104.26 121.6 103.85 121.8 103.24 121.93 102.84 122 102.3 122.06 101.76 122.13 101.22 122.4 100.74 122.46 100.2 122.46 99.53 122.53 98.99 122.73 98.38 122.73 97.7 122.79 97.16 122.79 96.49 122.85 95.95 122.85 95.27 122.92 94.73 123.05 93.99 123.05 93.31 123.05 92.64 123.04 91.96 123.04 91.29 123.04 90.61 122.9 90.01 122.9 89.33 122.9 88.66 122.9 87.98 122.83 87.51 122.83 86.83 122.82 86.16 122.69 85.55 122.69 84.87 122.55 84.27 122.41 83.66 122.41 82.98 122.27 82.38 122.2 81.9 122.07 81.3 121.93 80.69 121.86 80.22 121.72 79.61 121.52 79.21 121.45 78.73 121.31 78.13 121.11 77.72 121.04 77.25 120.84 76.84 120.63 76.44 120.5 76.17 120.29 75.77 120.17 75.53 119.97 60.03 116.51 60.09 114.77 60.12"/>
  <polygon class="cls-1" points="110.83 137.85 119.2 137.69 119.18 128.24 110.6 128.33 110.83 137.85"/>
  <polygon class="cls-7" points="112.97 44.12 113.13 53.51 104.56 53.6 104.39 44.21 112.97 44.12"/>
  <polygon class="cls-7" points="115.1 73.86 115.51 104.89 115.71 120.01 112.61 120.06 111.44 58.42 114.9 58.36 115.1 73.86"/>
  <polygon class="cls-6" points="110.31 104.6 109.9 73.56 109.7 58.45 111.44 58.42 112.61 120.06 110.51 120.09 110.31 104.6"/>
  <polygon class="cls-7" points="115.77 75.17 115.97 75.58 116.04 76.05 116.24 76.45 116.38 77.06 116.45 77.53 116.65 77.94 116.79 78.55 116.86 79.02 117 79.63 117.13 80.23 117.2 80.71 117.34 81.31 117.34 81.99 117.48 82.59 117.62 83.2 117.62 83.88 117.75 84.48 117.76 85.16 117.76 85.84 117.83 86.31 117.83 86.98 117.83 87.66 117.83 88.33 117.97 88.94 117.97 89.62 117.98 90.29 117.98 90.97 117.98 91.64 117.98 92.32 117.85 93.06 117.78 93.6 117.79 94.28 117.72 94.82 117.72 95.49 117.66 96.03 117.66 96.71 117.46 97.32 117.39 97.86 117.39 98.53 117.33 99.07 117.06 99.54 116.99 100.09 116.93 100.63 116.86 101.17 116.73 101.57 116.53 102.18 116.39 102.59 116.26 102.99 116.13 103.4 115.99 103.8 115.86 104.21 115.66 104.48 115.52 104.88 115.51 104.89 115.1 73.86 115.22 74.09 115.43 74.5 115.56 74.77 115.77 75.17"/>
  <polygon class="cls-7" points="109.9 73.56 110.31 104.6 110.19 104.36 110.05 104.09 109.85 103.69 109.64 103.28 109.57 102.81 109.37 102.41 109.3 101.93 109.1 101.53 108.96 100.92 108.89 100.45 108.69 100.04 108.55 99.44 108.41 98.83 108.34 98.36 108.34 97.68 108.21 97.07 108.07 96.47 108 95.99 108 95.32 107.86 94.71 107.86 94.04 107.72 93.43 107.72 92.75 107.58 92.15 107.58 91.47 107.58 90.8 107.58 90.12 107.57 89.45 107.57 88.77 107.57 88.1 107.57 87.42 107.57 86.75 107.63 86.2 107.63 85.53 107.63 84.85 107.69 84.31 107.69 83.64 107.69 82.96 107.89 82.35 107.96 81.81 107.95 81.14 108.02 80.6 108.08 80.06 108.29 79.45 108.35 78.91 108.42 78.37 108.48 77.83 108.62 77.42 108.82 76.81 108.95 76.41 109.08 76 109.15 75.46 109.28 75.06 109.42 74.65 109.62 74.38 109.75 73.98 109.89 73.57 109.9 73.56"/>
  <polygon class="cls-7" points="114.11 126.56 114.14 136.02 105.76 136.18 105.53 126.66 114.11 126.56"/>
  <path class="cls-8" d="m115.87,120.33s-.1.04-.16.04l-5.2.08c-.1,0-.19-.04-.26-.1-.07-.07-.11-.16-.11-.25l-.8-61.65c0-.2.16-.36.35-.36l5.2-.08c.1,0,.19.04.26.1.07.07.11.16.11.25l.8,61.65c0,.14-.08.27-.2.33Zm-5.01-.6l4.48-.07-.79-60.93-4.48.07.79,60.93Z"/>
  <path class="cls-8" d="m110.55,105.09c-.18.09-.39.02-.48-.16l-.75-1.48s-.03-.07-.03-.11l-.06-.41-.18-.35s-.03-.07-.03-.11l-.06-.42-.18-.35-.23-1.13-.18-.35-.38-1.8v-.73s-.34-1.64-.34-1.64v-.73s-.13-.53-.13-.53v-.75s-.14-.53-.14-.53v-.75s-.14-.53-.14-.53l-.03-5.48.07-.58v-1.31s.06-.59.06-.59v-1.31s0-.08.01-.11l.2-.61.05-.47v-.63s.13-1.13.13-1.13l.22-.68.18-1.55.62-1.89.05-.47.28-.88s.03-.07.05-.1l.17-.22.25-.76c.06-.19.27-.29.45-.23.19.06.29.27.23.45l-.27.81s-.03.07-.05.1l-.17.22-.25.76-.05.47-.62,1.89-.18,1.55-.22.68-.12,1.01v.63s-.06.58-.06.58l-.2.62v1.29s-.06.58-.06.58v1.31s-.06.58-.06.58l.02,5.36.13.53v.75s.14.53.14.53v.75s.14.53.14.53v.75s.34,1.61.34,1.61v.75s.35,1.61.35,1.61l.17.32s.03.07.03.11l.07.47.13.58.17.32s.03.07.04.11l.06.42.18.35s.03.07.03.11l.06.41.72,1.43c.09.18.02.39-.16.48Z"/>
  <path class="cls-8" d="m115.68,105.21c-.08.04-.18.05-.28.02-.19-.06-.29-.27-.23-.45l.13-.41s.03-.07.05-.1l.17-.22.98-2.99.18-1.55s.02-.09.04-.13l.23-.41.06-.47v-.63s.06-.58.06-.58l.2-.62v-.62s.07-.58.07-.58v-.63s.06-.58.06-.58v-.63s.06-.58.06-.58l.14-.76-.02-3.31-.13-.53v-2.1s-.08-.42-.08-.42v-1.4s-.14-.53-.14-.53v-.75s-.28-1.14-.28-1.14v-.75s-.14-.53-.14-.53l-.07-.5-.47-2.27-.17-.32s-.03-.07-.03-.11l-.07-.47-.13-.58-.17-.32s-.03-.07-.04-.11l-.06-.42-.84-1.67c-.09-.18-.03-.41.15-.5.18-.09.39-.03.47.14l.88,1.75s.03.07.03.11l.06.42.18.35.23,1.13.18.35.17.69.07.5.48,2.27v.75s.28,1.14.28,1.14v.75s.14.53.14.53v1.43s.08.42.08.42v2.08s.14.53.14.53l.02,3.45-.2,1.33v.63s-.06.58-.06.58v.63s-.06.58-.06.58v.63s0,.08-.01.11l-.2.61-.05.47v.63s-.06.59-.06.59c0,.05-.02.09-.04.13l-.23.41-.19,1.55-1.02,3.11s-.03.07-.05.1l-.17.22-.12.35c-.03.09-.1.17-.18.21Z"/>
  <polygon class="cls-2" points="112.97 44.12 113.13 53.51 104.56 53.6 104.39 44.21 112.97 44.12"/>
  <polygon class="cls-2" points="114.11 126.56 114.14 136.02 105.76 136.18 105.53 126.66 114.11 126.56"/>
  <path class="cls-8" d="m112.77,120.39s-.1.04-.15.04c-.2,0-.36-.15-.37-.35l-1.17-61.65c0-.2.15-.36.35-.37.2,0,.36.15.37.35l1.17,61.65c0,.14-.08.27-.2.33Z"/>
</svg>