<?xml version="1.0" encoding="UTF-8"?>
<svg xmlns="http://www.w3.org/2000/svg" xmlns:xlink="http://www.w3.org/1999/xlink" viewBox="0 0 425.01 276.18">
  <defs>
    <style>
      .cls-1 {
        fill: #ddd;
      }

      .cls-2 {
        fill: #e9e9e9;
      }

      .cls-3 {
        fill: #f0f0f0;
      }

      .cls-4 {
        fill: #f4f4f4;
      }

      .cls-5 {
        fill: #fff;
      }

      .cls-6 {
        fill: #cbcbcb;
      }

      .cls-7 {
        fill: #d1d1d1;
      }

      .cls-8 {
        fill: #fafafa;
      }

      .cls-9 {
        fill: #dbdbdb;
      }

      .cls-10 {
        fill: #cacaca;
      }

      .cls-11 {
        fill: #d8d8d8;
      }

      .cls-12, .cls-13 {
        fill: #f6f6f6;
      }

      .cls-14, .cls-15 {
        fill: #939598;
      }

      .cls-16 {
        fill: #e2e2e2;
      }

      .cls-17 {
        fill: #f5f5f5;
      }

      .cls-18 {
        fill: #b2b2b2;
      }

      .cls-19 {
        isolation: isolate;
      }

      .cls-20 {
        fill: #d6d6d6;
      }

      .cls-21 {
        fill: url(#linear-gradient-3);
      }

      .cls-21, .cls-22, .cls-23 {
        stroke: #949494;
        stroke-linecap: round;
        stroke-linejoin: round;
        stroke-width: .03px;
      }

      .cls-24 {
        fill: #c9c9c9;
      }

      .cls-25 {
        fill: #e0e0e0;
      }

      .cls-26 {
        fill: #c7c7c7;
      }

      .cls-27 {
        fill: #dedede;
      }

      .cls-28 {
        fill: #cfcfcf;
      }

      .cls-29 {
        fill: #d7d7d7;
      }

      .cls-30 {
        fill: #9d9d9c;
      }

      .cls-31 {
        fill: #6d6e71;
      }

      .cls-32 {
        fill: #e1e1e1;
      }

      .cls-33 {
        fill: #e6e6e6;
      }

      .cls-34 {
        fill: #e7e7e7;
      }

      .cls-35 {
        fill: #d4d4d4;
      }

      .cls-36 {
        fill: #dadada;
      }

      .cls-15, .cls-13, .cls-37, .cls-38 {
        stroke-miterlimit: 10;
        stroke-width: .03px;
      }

      .cls-15, .cls-38 {
        stroke: #c6c6c6;
      }

      .cls-39 {
        fill: #eaeaea;
      }

      .cls-40 {
        fill: #c8c8c8;
      }

      .cls-41 {
        fill: #fdfdfd;
      }

      .cls-42 {
        fill: #e4e4e4;
      }

      .cls-43 {
        fill: #fbfbfb;
      }

      .cls-22 {
        fill: url(#linear-gradient-2);
      }

      .cls-44 {
        fill: #f9f9f9;
      }

      .cls-45 {
        fill: #e5e5e5;
      }

      .cls-46, .cls-47, .cls-38 {
        fill: #706f6f;
      }

      .cls-48 {
        fill: #878787;
      }

      .cls-49 {
        fill: #d3d3d3;
      }

      .cls-50 {
        fill: #ebebeb;
      }

      .cls-51 {
        fill: #d5d5d5;
      }

      .cls-52 {
        fill: #dcdcdc;
      }

      .cls-53 {
        fill: #999;
      }

      .cls-23 {
        fill: url(#linear-gradient-4);
      }

      .cls-47, .cls-54 {
        mix-blend-mode: multiply;
      }

      .cls-55 {
        fill: #e8e8e8;
      }

      .cls-56 {
        fill: #ccc;
      }

      .cls-13, .cls-37 {
        stroke: #9d9d9c;
      }

      .cls-57 {
        fill: #cad1ea;
      }

      .cls-58 {
        fill: #f7f7f7;
      }

      .cls-59 {
        fill: #efefef;
      }

      .cls-60 {
        fill: #f1f1f1;
      }

      .cls-61 {
        fill: #cecece;
      }

      .cls-62 {
        fill: #f3f3f3;
      }

      .cls-37 {
        fill: url(#linear-gradient);
      }

      .cls-63 {
        fill: #d9d9d9;
      }

      .cls-64 {
        fill: #cdcdcd;
      }

      .cls-65 {
        fill: #f8f8f8;
      }

      .cls-66 {
        fill: #d2d2d2;
      }

      .cls-67 {
        fill: #c6c6c6;
      }

      .cls-68 {
        fill: #eee;
      }

      .cls-69 {
        fill: #d0d0d0;
      }

      .cls-70 {
        fill: #ececec;
      }

      .cls-71 {
        fill: #f2f2f2;
      }

      .cls-72 {
        fill: #fefefe;
      }

      .cls-73 {
        fill: #e3e3e3;
      }

      .cls-74 {
        fill: #fcfcfc;
      }

      .cls-75 {
        fill: #ededed;
      }

      .cls-76 {
        fill: #dfdfdf;
      }
    </style>
    <linearGradient id="linear-gradient" x1="418.41" y1="133.79" x2="42.6" y2="133.79" gradientUnits="userSpaceOnUse">
      <stop offset="0" stop-color="#fff"/>
      <stop offset="1" stop-color="#ccc"/>
    </linearGradient>
    <linearGradient id="linear-gradient-2" x1="29.48" y1="216.79" x2="42.6" y2="216.79" gradientUnits="userSpaceOnUse">
      <stop offset="0" stop-color="#c2c2c1"/>
      <stop offset="1" stop-color="#878787"/>
    </linearGradient>
    <linearGradient id="linear-gradient-3" x1="259.95" y1="7.77" x2="273.07" y2="7.77" xlink:href="#linear-gradient-2"/>
    <linearGradient id="linear-gradient-4" x1="324.53" y1="7.77" x2="331.09" y2="7.77" xlink:href="#linear-gradient-2"/>
  </defs>
  <g class="cls-19">
    <g id="Layer_1" data-name="Layer 1">
      <g>
        <g class="cls-54">
          <path class="cls-5" d="m396.15,8.65h-93.78s-.08-.04-.14-.04h-6.56c-.05,0-.09.03-.13.04h-51.19s-.09-.04-.14-.04h-13.12c-.34,0-.62.2-.62.44v14.66c0,.24.27.44.62.44h12.49v82.34c0,37.59-43.11,68.18-96.09,68.18H13.87s-.09-.04-.14-.04H.62c-.34,0-.62.19-.62.44v100.68c0,.24.27.44.62.44h13.12c.05,0,.09-.03.14-.04h376.23V104.86h6.04V8.65Z"/>
          <path class="cls-74" d="m397.52,8.24h-93.78s-.08-.04-.14-.04h-6.56c-.05,0-.09.03-.13.04h-51.19s-.09-.04-.14-.04h-13.12c-.34,0-.62.2-.62.44v14.66c0,.24.27.44.62.44h12.49v82.34c0,37.59-43.11,68.18-96.09,68.18H15.25s-.09-.04-.14-.04H1.99c-.34,0-.62.19-.62.44v100.68c0,.24.27.44.62.44h13.12c.05,0,.09-.03.14-.04h376.23V104.45h6.04V8.24Z"/>
          <path class="cls-8" d="m398.9,7.83h-93.78s-.08-.04-.14-.04h-6.56c-.05,0-.09.03-.14.04h-51.19s-.08-.04-.14-.04h-13.12c-.34,0-.62.2-.62.44v14.66c0,.24.27.44.62.44h12.49v82.34c0,37.59-43.11,68.18-96.09,68.18H16.62s-.08-.04-.14-.04H3.36c-.34,0-.62.19-.62.44v100.68c0,.24.27.44.62.44h13.12c.05,0,.09-.03.14-.04h376.23V104.04h6.04V7.83Z"/>
          <path class="cls-58" d="m400.27,7.42h-93.78s-.08-.04-.14-.04h-6.56c-.05,0-.09.03-.14.04h-51.19s-.08-.04-.14-.04h-13.12c-.34,0-.62.2-.62.44v14.66c0,.24.27.44.62.44h12.49v82.34c0,37.59-43.11,68.18-96.09,68.18H18s-.08-.04-.14-.04H4.74c-.34,0-.62.19-.62.44v100.68c0,.24.27.44.62.44h13.12c.05,0,.09-.03.14-.04h376.23V103.63h6.04V7.42Z"/>
          <path class="cls-4" d="m401.64,7.01h-93.78s-.08-.04-.14-.04h-6.56c-.05,0-.09.03-.14.04h-51.19s-.08-.04-.14-.04h-13.12c-.34,0-.62.2-.62.44v14.66c0,.24.27.44.62.44h12.49v82.34c0,37.59-43.11,68.18-96.09,68.18H19.37s-.08-.04-.14-.04H6.11c-.34,0-.62.19-.62.44v100.68c0,.24.27.44.62.44h13.12c.05,0,.09-.03.14-.04h376.23V103.22h6.04V7.01Z"/>
          <path class="cls-60" d="m403.02,6.6h-93.78s-.08-.04-.14-.04h-6.56c-.05,0-.09.03-.14.04h-51.19s-.08-.04-.14-.04h-13.12c-.34,0-.62.2-.62.44v14.66c0,.24.27.44.62.44h12.49v82.34c0,37.59-43.11,68.18-96.09,68.18H20.75s-.08-.04-.14-.04H7.49c-.34,0-.62.19-.62.44v100.68c0,.24.27.44.62.44h13.12c.05,0,.09-.03.14-.04h376.23V102.81h6.04V6.6Z"/>
          <path class="cls-59" d="m404.39,6.19h-93.78s-.08-.04-.14-.04h-6.56c-.05,0-.09.03-.14.04h-51.19s-.08-.04-.14-.04h-13.12c-.34,0-.62.2-.62.44v14.66c0,.24.28.44.62.44h12.49v82.34c0,37.59-43.11,68.18-96.09,68.18H22.12s-.08-.04-.14-.04h-13.12c-.34,0-.62.19-.62.44v100.68c0,.24.28.44.62.44h13.12c.05,0,.09-.03.14-.04h376.24V102.4h6.04V6.19Z"/>
          <path class="cls-70" d="m405.77,5.78h-93.78s-.08-.04-.14-.04h-6.56c-.05,0-.09.03-.14.04h-51.19s-.08-.04-.14-.04h-13.12c-.34,0-.62.2-.62.44v14.66c0,.24.28.44.62.44h12.48v82.34c0,37.59-43.11,68.18-96.09,68.18H23.49s-.08-.04-.14-.04h-13.12c-.34,0-.62.19-.62.44v100.68c0,.24.28.44.62.44h13.12c.05,0,.09-.03.14-.04h376.24V101.99h6.04V5.78Z"/>
          <path class="cls-2" d="m407.14,5.37h-93.78s-.08-.04-.14-.04h-6.56c-.05,0-.09.03-.14.04h-51.19s-.08-.04-.14-.04h-13.12c-.34,0-.62.2-.62.44v14.66c0,.24.28.44.62.44h12.48v82.34c0,37.59-43.11,68.18-96.09,68.18H24.87s-.08-.04-.14-.04h-13.12c-.34,0-.62.19-.62.44v100.68c0,.24.28.44.62.44h13.12c.05,0,.09-.03.14-.04h376.24V101.58h6.04V5.37Z"/>
          <path class="cls-34" d="m408.52,4.96h-93.78s-.08-.04-.14-.04h-6.56c-.05,0-.09.03-.14.04h-51.19s-.08-.04-.14-.04h-13.12c-.34,0-.62.2-.62.44v14.66c0,.24.28.44.62.44h12.48v82.34c0,37.59-43.11,68.18-96.09,68.18H26.24s-.08-.04-.14-.04h-13.12c-.34,0-.62.19-.62.44v100.68c0,.24.28.44.62.44h13.12c.05,0,.09-.03.14-.04h376.24V101.17h6.04V4.96Z"/>
          <path class="cls-42" d="m409.89,4.55h-93.78s-.08-.04-.14-.04h-6.56c-.05,0-.09.03-.14.04h-51.19s-.08-.04-.14-.04h-13.12c-.34,0-.62.2-.62.44v14.66c0,.24.28.44.62.44h12.48v82.34c0,37.59-43.11,68.18-96.09,68.18H27.62s-.08-.04-.14-.04h-13.12c-.34,0-.62.19-.62.44v100.68c0,.24.28.44.62.44h13.12c.05,0,.09-.03.14-.04h376.24V100.76h6.04V4.55Z"/>
          <path class="cls-32" d="m411.27,4.14h-93.78s-.08-.04-.14-.04h-6.56c-.05,0-.09.03-.14.04h-51.19s-.08-.04-.14-.04h-13.12c-.34,0-.62.2-.62.44v14.66c0,.24.28.44.62.44h12.48v82.34c0,37.59-43.1,68.18-96.09,68.18H28.99s-.08-.04-.14-.04h-13.12c-.34,0-.62.19-.62.44v100.68c0,.24.28.44.62.44h13.12c.05,0,.09-.03.14-.04h376.24V100.35h6.04V4.14Z"/>
          <path class="cls-27" d="m412.64,3.73h-93.78s-.08-.04-.14-.04h-6.56c-.05,0-.09.03-.14.04h-51.19s-.08-.04-.14-.04h-13.12c-.34,0-.62.2-.62.44v14.66c0,.24.28.44.62.44h12.48v82.34c0,37.59-43.1,68.18-96.09,68.18H30.37s-.08-.04-.14-.04h-13.12c-.34,0-.62.19-.62.44v100.68c0,.24.28.44.62.44h13.12c.05,0,.09-.03.14-.04h376.24V99.94h6.04V3.73Z"/>
          <path class="cls-52" d="m414.02,3.32h-93.78s-.08-.04-.14-.04h-6.56c-.05,0-.09.03-.14.04h-51.19s-.08-.04-.14-.04h-13.12c-.34,0-.62.2-.62.44v14.66c0,.24.28.44.62.44h12.48v82.34c0,37.59-43.1,68.18-96.09,68.18H31.74s-.08-.04-.14-.04h-13.12c-.34,0-.62.19-.62.44v100.68c0,.24.28.44.62.44h13.12c.05,0,.09-.03.14-.04h376.24V99.53h6.04V3.32Z"/>
          <path class="cls-63" d="m415.39,2.91h-93.78s-.08-.04-.14-.04h-6.56c-.05,0-.09.03-.14.04h-51.19s-.08-.04-.14-.04h-13.12c-.34,0-.62.2-.62.44v14.66c0,.24.28.44.62.44h12.48v82.34c0,37.59-43.1,68.18-96.08,68.18H33.11s-.08-.04-.14-.04h-13.12c-.34,0-.62.19-.62.44v100.68c0,.24.28.44.62.44h13.12c.05,0,.09-.03.14-.04h376.24V99.12h6.04V2.91Z"/>
          <path class="cls-20" d="m416.76,2.5h-93.78s-.08-.04-.14-.04h-6.56c-.05,0-.09.03-.14.04h-51.19s-.08-.04-.14-.04h-13.12c-.34,0-.62.2-.62.44v14.66c0,.24.28.44.62.44h12.48v82.34c0,37.59-43.1,68.18-96.08,68.18H34.49s-.08-.04-.14-.04h-13.12c-.34,0-.62.19-.62.44v100.68c0,.24.28.44.62.44h13.12c.05,0,.09-.03.14-.04h376.24V98.71h6.04V2.5Z"/>
          <path class="cls-35" d="m418.14,2.09h-93.78s-.08-.04-.14-.04h-6.56c-.05,0-.09.03-.14.04h-51.19s-.08-.04-.14-.04h-13.12c-.34,0-.62.2-.62.44v14.66c0,.24.28.44.62.44h12.48v82.34c0,37.59-43.1,68.18-96.08,68.18H35.86s-.08-.04-.14-.04h-13.12c-.34,0-.62.19-.62.44v100.68c0,.24.28.44.62.44h13.12c.05,0,.09-.03.14-.04h376.24V98.3h6.04V2.09Z"/>
          <path class="cls-7" d="m419.51,1.68h-93.78s-.08-.04-.14-.04h-6.56c-.05,0-.09.03-.14.04h-51.19s-.08-.04-.14-.04h-13.12c-.34,0-.62.2-.62.44v14.66c0,.24.28.44.62.44h12.48v82.34c0,37.59-43.1,68.18-96.08,68.18H37.24s-.08-.04-.14-.04h-13.12c-.34,0-.62.19-.62.44v100.68c0,.24.28.44.62.44h13.12c.05,0,.09-.03.14-.04h376.24V97.89h6.04V1.68Z"/>
          <path class="cls-61" d="m420.89,1.27h-93.78s-.08-.04-.14-.04h-6.56c-.05,0-.09.03-.14.04h-51.19s-.08-.04-.14-.04h-13.12c-.34,0-.62.2-.62.44v14.66c0,.24.28.44.62.44h12.48v82.34c0,37.59-43.1,68.18-96.08,68.18H38.61s-.08-.04-.14-.04h-13.12c-.34,0-.62.19-.62.44v100.68c0,.24.28.44.62.44h13.12c.05,0,.09-.03.14-.04h376.24V97.48h6.04V1.27Z"/>
          <path class="cls-6" d="m422.26.86h-93.78s-.08-.04-.14-.04h-6.56c-.05,0-.09.03-.14.04h-51.19s-.08-.04-.14-.04h-13.12c-.34,0-.62.2-.62.44v14.66c0,.25.28.44.62.44h12.48v82.34c0,37.59-43.1,68.18-96.08,68.18H39.99s-.08-.04-.14-.04h-13.12c-.34,0-.62.19-.62.44v100.68c0,.24.28.44.62.44h13.12c.05,0,.09-.03.14-.04h376.24V97.07h6.04V.86Z"/>
          <path class="cls-24" d="m423.64.45h-93.78s-.08-.04-.13-.04h-6.56c-.05,0-.09.03-.14.04h-51.19s-.08-.04-.13-.04h-13.12c-.34,0-.62.2-.62.44v14.66c0,.25.28.44.62.44h12.48v82.34c0,37.59-43.1,68.18-96.08,68.18H41.36s-.08-.04-.13-.04h-13.12c-.34,0-.62.19-.62.44v100.68c0,.24.28.44.62.44h13.12c.05,0,.09-.03.13-.04h376.24V96.66h6.04V.45Z"/>
          <path class="cls-67" d="m425.01.04h-93.78s-.08-.04-.13-.04h-6.56c-.05,0-.09.03-.14.04h-51.19s-.08-.04-.13-.04h-13.12c-.34,0-.62.2-.62.44v14.66c0,.25.28.44.62.44h12.48v82.34c0,37.59-43.1,68.18-96.08,68.18H42.73s-.08-.04-.13-.04h-13.12c-.34,0-.62.19-.62.44v100.68c0,.24.28.44.62.44h13.12c.05,0,.09-.03.13-.04h376.24V96.25h6.04V.04Z"/>
        </g>
        <g>
          <g>
            <path class="cls-37" d="m418.41.44h-145.42v97.44c0,37.86-43.26,68.57-96.64,68.57H42.6v100.68h375.81V.44Z"/>
            <rect class="cls-22" x="29.48" y="166.45" width="13.12" height="100.68"/>
            <rect class="cls-21" x="259.95" y=".44" width="13.12" height="14.66"/>
            <g class="cls-54">
              <path class="cls-5" d="m418.41.44h-100.73c0,.18-.03.36-.03.55v49.74c0,32.87,35.12,59.5,78.43,59.5h22.33V.44Z"/>
              <path class="cls-72" d="m418.41.44h-100.51c0,.18-.03.36-.03.55v49.63c0,32.79,35.04,59.37,78.26,59.37h22.28V.44Z"/>
              <path class="cls-41" d="m418.41.44h-100.28c0,.18-.03.36-.03.55v49.52c0,32.72,34.96,59.23,78.08,59.23h22.23V.44Z"/>
              <path class="cls-74" d="m418.41.44h-100.05c0,.18-.03.36-.03.54v49.41c0,32.65,34.88,59.1,77.9,59.1h22.18V.44Z"/>
              <path class="cls-43" d="m418.41.44h-99.83c0,.18-.03.36-.03.54v49.29c0,32.57,34.8,58.97,77.73,58.97h22.13V.44Z"/>
              <path class="cls-8" d="m418.41.44h-99.6c0,.18-.03.36-.03.54v49.18c0,32.5,34.72,58.83,77.55,58.83h22.08V.44Z"/>
              <path class="cls-44" d="m418.41.44h-99.37c0,.18-.03.36-.03.54v49.07c0,32.42,34.64,58.7,77.37,58.7h22.03V.44Z"/>
              <path class="cls-65" d="m418.41.44h-99.14c0,.18-.03.36-.03.54v48.96c0,32.35,34.56,58.56,77.19,58.56h21.98V.44Z"/>
              <path class="cls-58" d="m418.41.44h-98.92c0,.18-.03.36-.03.54v48.85c0,32.27,34.48,58.43,77.02,58.43h21.93V.44Z"/>
              <path class="cls-12" d="m418.41.44h-98.69c0,.18-.03.36-.03.54v48.73c0,32.2,34.4,58.29,76.84,58.29h21.88V.44Z"/>
              <path class="cls-17" d="m418.41.44h-98.46c0,.18-.03.35-.03.54v48.62c0,32.13,34.32,58.16,76.66,58.16h21.83V.44Z"/>
              <path class="cls-4" d="m418.41.44h-98.23c0,.18-.03.35-.03.53v48.51c0,32.05,34.24,58.02,76.49,58.02h21.78V.44Z"/>
              <path class="cls-62" d="m418.41.44h-98.01c0,.18-.03.35-.03.53v48.4c0,31.98,34.16,57.89,76.31,57.89h21.73V.44Z"/>
              <path class="cls-71" d="m418.41.44h-97.78c0,.18-.03.35-.03.53v48.28c0,31.9,34.08,57.76,76.13,57.76h21.68V.44Z"/>
              <path class="cls-60" d="m418.41.44h-97.55c0,.18-.03.35-.03.53v48.17c0,31.83,34.01,57.62,75.96,57.62h21.63V.44Z"/>
              <path class="cls-3" d="m418.41.44h-97.32c0,.18-.03.35-.03.53v48.06c0,31.76,33.93,57.49,75.78,57.49h21.58V.44Z"/>
              <path class="cls-59" d="m418.41.44h-97.1c0,.18-.03.35-.03.53v47.95c0,31.68,33.85,57.35,75.6,57.35h21.52V.44Z"/>
              <path class="cls-68" d="m418.41.44h-96.87c0,.18-.03.35-.03.53v47.84c0,31.61,33.77,57.22,75.42,57.22h21.47V.44Z"/>
              <path class="cls-75" d="m418.41.44h-96.64c0,.17-.03.35-.03.53v47.72c0,31.53,33.69,57.08,75.25,57.08h21.42V.44Z"/>
              <path class="cls-70" d="m418.41.44h-96.41c0,.17-.03.35-.03.52v47.61c0,31.46,33.61,56.95,75.07,56.95h21.37V.44Z"/>
              <path class="cls-50" d="m418.41.44h-96.19c0,.17-.03.35-.03.52v47.5c0,31.38,33.53,56.81,74.89,56.81h21.32V.44Z"/>
              <path class="cls-39" d="m418.41.44h-95.96c0,.17-.03.35-.03.52v47.39c0,31.31,33.45,56.68,74.72,56.68h21.27V.44Z"/>
              <path class="cls-2" d="m418.41.44h-95.73c0,.17-.03.35-.03.52v47.27c0,31.24,33.37,56.55,74.54,56.55h21.22V.44Z"/>
              <path class="cls-55" d="m418.41.44h-95.5c0,.17-.03.34-.03.52v47.16c0,31.16,33.29,56.41,74.36,56.41h21.17V.44Z"/>
              <path class="cls-34" d="m418.41.44h-95.28c0,.17-.03.34-.03.52v47.05c0,31.09,33.21,56.28,74.18,56.28h21.12V.44Z"/>
              <path class="cls-33" d="m418.41.44h-95.05c0,.17-.03.34-.03.52v46.94c0,31.01,33.13,56.14,74.01,56.14h21.07V.44Z"/>
              <path class="cls-45" d="m418.41.44h-94.82c0,.17-.03.34-.03.52v46.83c0,30.94,33.05,56.01,73.83,56.01h21.02V.44Z"/>
              <path class="cls-42" d="m418.41.44h-94.59c0,.17-.03.34-.03.51v46.71c0,30.86,32.97,55.87,73.65,55.87h20.97V.44Z"/>
              <path class="cls-73" d="m418.41.44h-94.37c0,.17-.03.34-.03.51v46.6c0,30.79,32.9,55.74,73.48,55.74h20.92V.44Z"/>
              <path class="cls-16" d="m418.41.44h-94.14c0,.17-.03.34-.03.51v46.49c0,30.72,32.82,55.6,73.3,55.6h20.87V.44Z"/>
              <path class="cls-16" d="m418.41.44h-93.91c0,.17-.03.34-.03.51v46.38c0,30.64,32.74,55.47,73.12,55.47h20.82V.44Z"/>
              <path class="cls-32" d="m418.41.44h-93.68c0,.17-.03.34-.03.51v46.26c0,30.57,32.66,55.34,72.95,55.34h20.77V.44Z"/>
              <path class="cls-25" d="m418.41.44h-93.46c0,.17-.03.34-.03.51v46.15c0,30.49,32.58,55.2,72.77,55.2h20.72V.44Z"/>
              <path class="cls-76" d="m418.41.44h-93.23c0,.17-.03.34-.03.51v46.04c0,30.42,32.5,55.07,72.59,55.07h20.67V.44Z"/>
              <path class="cls-27" d="m418.41.44h-93c0,.17-.03.34-.03.51v45.93c0,30.34,32.42,54.93,72.41,54.93h20.62V.44Z"/>
              <path class="cls-1" d="m418.41.44h-92.77c0,.17-.03.33-.03.5v45.82c0,30.27,32.34,54.8,72.24,54.8h20.57V.44Z"/>
              <path class="cls-52" d="m418.41.44h-92.55c0,.17-.03.33-.03.5v45.7c0,30.2,32.26,54.66,72.06,54.66h20.52V.44Z"/>
              <path class="cls-9" d="m418.41.44h-92.32c0,.17-.03.33-.03.5v45.59c0,30.12,32.18,54.53,71.88,54.53h20.46V.44Z"/>
              <path class="cls-36" d="m418.41.44h-92.09c0,.17-.03.33-.03.5v45.48c0,30.05,32.1,54.39,71.71,54.39h20.41V.44Z"/>
              <path class="cls-63" d="m418.41.44h-91.86c0,.17-.03.33-.03.5v45.37c0,29.97,32.02,54.26,71.53,54.26h20.36V.44Z"/>
              <path class="cls-11" d="m418.41.44h-91.64c0,.17-.03.33-.03.5v45.25c0,29.9,31.94,54.13,71.35,54.13h20.31V.44Z"/>
              <path class="cls-29" d="m418.41.44h-91.41c0,.17-.03.33-.03.5v45.14c0,29.82,31.86,53.99,71.17,53.99h20.26V.44Z"/>
              <path class="cls-20" d="m418.41.44h-91.18c0,.17-.03.33-.03.49v45.03c0,29.75,31.79,53.86,71,53.86h20.21V.44Z"/>
              <path class="cls-51" d="m418.41.44h-90.96c0,.17-.03.33-.03.49v44.92c0,29.68,31.71,53.72,70.82,53.72h20.16V.44Z"/>
              <path class="cls-35" d="m418.41.44h-90.73c0,.16-.03.33-.03.49v44.81c0,29.6,31.63,53.59,70.64,53.59h20.11V.44Z"/>
              <path class="cls-49" d="m418.41.44h-90.5c0,.16-.03.33-.03.49v44.69c0,29.53,31.55,53.45,70.47,53.45h20.06V.44Z"/>
              <path class="cls-66" d="m418.41.44h-90.27c0,.16-.03.33-.03.49v44.58c0,29.45,31.47,53.32,70.29,53.32h20.01V.44Z"/>
              <path class="cls-7" d="m418.41.44h-90.05c0,.16-.03.32-.03.49v44.47c0,29.38,31.39,53.18,70.11,53.18h19.96V.44Z"/>
              <path class="cls-69" d="m418.41.44h-89.82c0,.16-.03.32-.03.49v44.36c0,29.3,31.31,53.05,69.94,53.05h19.91V.44Z"/>
              <path class="cls-28" d="m418.41.44h-89.59c0,.16-.03.32-.03.49v44.24c0,29.23,31.23,52.92,69.76,52.92h19.86V.44Z"/>
              <path class="cls-61" d="m418.41.44h-89.36c0,.16-.03.32-.03.48v44.13c0,29.16,31.15,52.78,69.58,52.78h19.81V.44Z"/>
              <path class="cls-64" d="m418.41.44h-89.14c0,.16-.03.32-.03.48v44.02c0,29.08,31.07,52.65,69.4,52.65h19.76V.44Z"/>
              <path class="cls-56" d="m418.41.44h-88.91c0,.16-.03.32-.03.48v43.91c0,29.01,30.99,52.51,69.23,52.51h19.71V.44Z"/>
              <path class="cls-6" d="m418.41.44h-88.68c0,.16-.03.32-.03.48v43.8c0,28.93,30.91,52.38,69.05,52.38h19.66V.44Z"/>
              <path class="cls-10" d="m418.41.44h-88.45c0,.16-.03.32-.03.48v43.68c0,28.86,30.83,52.24,68.87,52.24h19.61V.44Z"/>
              <path class="cls-24" d="m418.41.44h-88.23c0,.16-.03.32-.03.48v43.57c0,28.78,30.75,52.11,68.7,52.11h19.56V.44Z"/>
              <path class="cls-40" d="m418.41.44h-88c0,.16-.03.32-.03.48v43.46c0,28.71,30.68,51.97,68.52,51.97h19.51V.44Z"/>
              <path class="cls-26" d="m418.41.44h-87.77c0,.16-.03.32-.03.48v43.35c0,28.64,30.6,51.84,68.34,51.84h19.46V.44Z"/>
              <path class="cls-67" d="m418.41.44h-87.54c0,.16-.03.32-.03.47v43.23c0,28.56,30.52,51.71,68.16,51.71h19.41V.44Z"/>
            </g>
          </g>
          <path class="cls-13" d="m424.45.44h-93.58c0,.16-.03.32-.03.47v43.23c0,28.56,32.62,51.71,72.87,51.71h20.74V.44Z"/>
          <rect class="cls-23" x="324.53" y=".44" width="6.56" height="14.66"/>
          <path class="cls-47" d="m425.01.04h-93.78s-.08-.04-.13-.04h-6.56c-.05,0-.09.03-.14.04h-51.19s-.08-.04-.13-.04h-13.12c-.34,0-.62.2-.62.44v14.66c0,.25.28.44.62.44h12.48v82.34c0,37.59-43.1,68.18-96.08,68.18H42.73s-.08-.04-.13-.04h-13.12c-.34,0-.62.19-.62.44v100.68c0,.24.28.44.62.44h13.12c.05,0,.09-.03.13-.04h376.24V96.25h6.04V.04Z"/>
          <g class="cls-54">
            <g>
              <path class="cls-5" d="m162.66,239.32v-.04l-4.23-.32v-.06l-2.26-.19-10.09-.66-.35-.04v-.03l-15.96.02-11.9.02h0c-.82.02-1.44.05-1.44.1v.37c-.87.02-1.49.05-1.48.09v1.79s.62.07,1.5.08v.37s.62.09,1.42.09h0s11.91,0,11.91,0l15.96-.06v-.03h.12s10.32-.72,10.32-.72l2.26-.2v-.07l4.22-.33v-.04s.02.03.02.03c.17,0,.27-.04.26-.1,0-.05-.1-.1-.23-.1,0,0-.03.02-.05.02Z"/>
              <path class="cls-5" d="m117.18,232.5h0s0,0,0,0Zm71.43-38.43h-71.42c-2.3,0-4.18,1.33-4.18,2.97v32.89c0,1.64,1.87,2.97,4.17,2.97h71.43c2.31,0,4.18-1.33,4.18-2.97v-32.89c0-1.63-1.88-2.97-4.19-2.97Z"/>
            </g>
            <g>
              <path class="cls-74" d="m163.01,239.16v-.04l-4.23-.32v-.06l-2.26-.19-10.09-.66-.35-.04v-.03l-15.96.02-11.9.02h0c-.82.02-1.44.05-1.44.1v.37c-.87.02-1.49.05-1.48.09v1.79s.62.07,1.5.08v.37s.62.09,1.42.09h0s11.91,0,11.91,0l15.96-.06v-.03h.12s10.32-.72,10.32-.72l2.26-.2v-.07l4.22-.33v-.04s.02.03.02.03c.16,0,.27-.04.26-.1,0-.05-.1-.1-.23-.1,0,0-.03.02-.05.02Z"/>
              <path class="cls-74" d="m117.53,232.33h0s0,0,0,0Zm71.43-38.43h-71.42c-2.3,0-4.18,1.33-4.18,2.97v32.89c0,1.64,1.87,2.97,4.17,2.97h71.43c2.31,0,4.18-1.33,4.18-2.97v-32.89c0-1.63-1.88-2.97-4.19-2.97Z"/>
            </g>
            <g>
              <path class="cls-8" d="m163.35,238.99v-.04l-4.23-.32v-.06l-2.26-.19-10.09-.66-.35-.04v-.03l-15.96.02-11.9.02h0c-.82.02-1.44.05-1.44.1v.37c-.87.02-1.49.05-1.48.09v1.79s.62.07,1.5.08v.37s.62.09,1.42.09h0s11.91,0,11.91,0l15.96-.06v-.03h.12s10.32-.72,10.32-.72l2.26-.2v-.07l4.22-.33v-.04s.02.03.03.03c.16,0,.27-.04.26-.1,0-.05-.1-.1-.23-.1,0,0-.03.02-.05.02Z"/>
              <path class="cls-8" d="m117.88,232.17h0s0,0,0,0Zm71.43-38.43h-71.42c-2.3,0-4.18,1.33-4.18,2.97v32.89c0,1.64,1.87,2.97,4.17,2.97h71.43c2.31,0,4.18-1.33,4.18-2.97v-32.89c0-1.63-1.88-2.97-4.19-2.97Z"/>
            </g>
            <g>
              <path class="cls-58" d="m163.7,238.82v-.04l-4.23-.32v-.06l-2.26-.19-10.09-.66-.35-.04v-.03l-15.96.02-11.9.02h0c-.82.02-1.44.05-1.44.1v.37c-.87.02-1.49.05-1.48.09v1.79s.62.07,1.5.08v.37s.62.09,1.42.09h0s11.91,0,11.91,0l15.96-.06v-.03h.12s10.32-.72,10.32-.72l2.26-.2v-.07l4.22-.33v-.04s.02.03.03.03c.16,0,.26-.04.26-.1,0-.05-.1-.1-.23-.1,0,0-.03.02-.05.02Z"/>
              <path class="cls-58" d="m118.22,232h0s0,0,0,0Zm71.43-38.43h-71.42c-2.3,0-4.18,1.33-4.18,2.97v32.89c0,1.64,1.87,2.97,4.17,2.97h71.43c2.31,0,4.19-1.33,4.19-2.97v-32.9c0-1.63-1.88-2.97-4.19-2.97Z"/>
            </g>
            <g>
              <path class="cls-4" d="m164.05,238.65v-.04l-4.23-.32v-.06l-2.26-.19-10.09-.66-.35-.04v-.03l-15.96.02-11.9.02h0c-.82.02-1.44.05-1.44.1v.37c-.87.02-1.49.05-1.48.09v1.79s.62.07,1.5.08v.37s.62.09,1.42.09h0s11.91,0,11.91,0l15.96-.06v-.03h.12s10.32-.72,10.32-.72l2.26-.2v-.07l4.22-.33v-.04s.02.02.03.02c.16,0,.26-.04.26-.1,0-.05-.1-.1-.23-.1,0,0-.03.02-.05.02Z"/>
              <path class="cls-4" d="m118.57,231.83h0s0,0,0,0Zm71.43-38.43h-71.42c-2.3,0-4.18,1.33-4.18,2.97v32.89c0,1.64,1.87,2.97,4.17,2.97h71.43c2.31,0,4.19-1.33,4.19-2.97v-32.9c0-1.63-1.88-2.97-4.19-2.97Z"/>
            </g>
            <g>
              <path class="cls-60" d="m164.39,238.49v-.04l-4.24-.32v-.06l-2.26-.19-10.09-.66-.35-.04v-.03l-15.96.02-11.9.02h0c-.82.02-1.44.05-1.44.1v.37c-.87.02-1.49.05-1.48.09v1.79s.62.07,1.5.08v.37s.61.09,1.42.09h0s11.91,0,11.91,0l15.96-.06v-.03h.12s10.32-.72,10.32-.72l2.26-.2v-.07l4.22-.33v-.04s.02.02.03.02c.16,0,.26-.04.26-.1,0-.05-.1-.1-.23-.1,0,0-.03.02-.05.02Z"/>
              <path class="cls-60" d="m118.92,231.66h0s0,0,0,0Zm71.43-38.43h-71.41c-2.3,0-4.18,1.33-4.18,2.97v32.89c0,1.64,1.87,2.97,4.17,2.97h71.43c2.31,0,4.19-1.33,4.19-2.97v-32.9c0-1.63-1.88-2.97-4.19-2.97Z"/>
            </g>
            <g>
              <path class="cls-59" d="m164.74,238.32v-.04l-4.24-.32v-.06l-2.26-.19-10.09-.66-.35-.04v-.03l-15.96.02-11.9.02h0c-.82.02-1.44.06-1.44.1v.37c-.87.02-1.49.05-1.48.09v1.79s.62.07,1.5.08v.37s.61.09,1.42.09h0s11.91,0,11.91,0l15.96-.06v-.03h.12s10.32-.72,10.32-.72l2.26-.2v-.07l4.22-.33v-.04s.02.02.03.02c.16,0,.26-.04.26-.1,0-.05-.1-.1-.23-.1,0,0-.03.02-.05.02Z"/>
              <path class="cls-59" d="m119.26,231.5h0s0,0,0,0Zm71.43-38.43h-71.41c-2.3,0-4.18,1.33-4.18,2.97v32.89c0,1.64,1.87,2.97,4.17,2.97h71.43c2.31,0,4.19-1.33,4.19-2.97v-32.9c0-1.63-1.88-2.97-4.19-2.97Z"/>
            </g>
            <g>
              <path class="cls-70" d="m165.09,238.15v-.04l-4.24-.32v-.06l-2.26-.19-10.09-.66-.35-.04v-.03l-15.96.02-11.9.02h0c-.82.02-1.44.06-1.44.1v.37c-.87.02-1.49.05-1.48.09v1.79s.62.07,1.5.08v.37s.61.08,1.42.09h0s11.91,0,11.91,0l15.96-.06v-.03h.12s10.32-.72,10.32-.72l2.26-.2v-.07l4.22-.33v-.04s.02.02.03.02c.16,0,.26-.04.25-.1,0-.05-.1-.1-.23-.1-.01,0-.03.02-.05.02Z"/>
              <path class="cls-70" d="m119.61,231.33h0s0,0,0,0Zm71.43-38.43h-71.41c-2.3,0-4.18,1.33-4.18,2.97v32.89c0,1.64,1.87,2.97,4.17,2.97h71.43c2.31,0,4.19-1.33,4.19-2.97v-32.9c0-1.63-1.88-2.97-4.19-2.97Z"/>
            </g>
            <g>
              <path class="cls-2" d="m165.44,237.98v-.04l-4.24-.32v-.06l-2.26-.19-10.09-.66-.35-.04v-.03l-15.96.02-11.9.02h0c-.82.02-1.44.06-1.44.1v.37c-.87.02-1.49.05-1.48.09v1.8s.62.07,1.5.08v.37s.61.08,1.42.09h0s11.91,0,11.91,0l15.96-.06v-.03h.12s10.32-.72,10.32-.72l2.26-.2v-.07l4.22-.33v-.04s.02.02.04.02c.15,0,.26-.04.25-.1,0-.05-.1-.1-.23-.1-.01,0-.03.02-.05.02Z"/>
              <path class="cls-2" d="m119.96,231.16h0s0,0,0,0Zm71.43-38.43h-71.41c-2.31,0-4.18,1.33-4.18,2.97v32.89c0,1.64,1.87,2.97,4.17,2.97h71.43c2.31,0,4.19-1.33,4.19-2.97v-32.9c0-1.63-1.88-2.97-4.19-2.97Z"/>
            </g>
            <g>
              <path class="cls-34" d="m165.78,237.81v-.04l-4.24-.32v-.06l-2.26-.19-10.09-.66-.35-.04v-.03l-15.96.02-11.9.02h0c-.82.02-1.43.06-1.43.1v.37c-.87.02-1.49.05-1.48.09v1.8s.62.07,1.5.08v.37s.61.08,1.42.09h0s11.91,0,11.91,0l15.96-.06v-.03h.12s10.32-.72,10.32-.72l2.26-.2v-.07l4.22-.33v-.04s.02.02.04.02c.15,0,.25-.04.25-.1,0-.05-.1-.1-.23-.1-.01,0-.03.02-.05.02Z"/>
              <path class="cls-34" d="m120.3,230.99h0s0,0,0,0Zm71.43-38.43h-71.41c-2.31,0-4.18,1.33-4.18,2.97v32.89c0,1.64,1.87,2.97,4.17,2.97h71.43c2.31,0,4.19-1.33,4.19-2.97v-32.9c0-1.63-1.88-2.97-4.19-2.97Z"/>
            </g>
            <g>
              <path class="cls-42" d="m166.13,237.65v-.04l-4.24-.32v-.06l-2.26-.19-10.09-.66-.35-.04v-.03l-15.96.02-11.9.02h0c-.82.02-1.43.06-1.43.1v.37c-.87.02-1.49.05-1.48.09v1.8s.62.07,1.5.08v.37s.61.08,1.43.09h0s11.91,0,11.91,0l15.95-.06v-.03h.12s10.32-.72,10.32-.72l2.26-.2v-.07l4.22-.33v-.04s.02.02.04.02c.15,0,.25-.04.25-.1,0-.05-.1-.1-.23-.1-.01,0-.03.02-.05.02Z"/>
              <path class="cls-42" d="m120.65,230.83h0s0,0,0,0Zm71.43-38.43h-71.41c-2.31,0-4.18,1.33-4.18,2.97v32.89c0,1.64,1.87,2.97,4.17,2.97h71.43c2.31,0,4.19-1.33,4.19-2.97v-32.9c0-1.63-1.88-2.96-4.19-2.96Z"/>
            </g>
            <g>
              <path class="cls-32" d="m166.48,237.48v-.04l-4.24-.32v-.06l-2.26-.19-10.09-.66-.35-.04v-.03l-15.96.02-11.9.02h0c-.81.02-1.43.06-1.43.1v.37c-.87.02-1.49.05-1.48.09v1.8s.62.07,1.5.08v.37s.61.08,1.43.09h0s11.91,0,11.91,0l15.95-.06v-.03h.12s10.32-.72,10.32-.72l2.26-.2v-.07l4.22-.33v-.04s.03.02.04.02c.15,0,.25-.04.25-.1,0-.05-.1-.1-.23-.1-.02,0-.03.02-.05.02Z"/>
              <path class="cls-32" d="m121,230.66h0s0,0,0,0Zm71.43-38.43h-71.41c-2.31,0-4.18,1.33-4.18,2.97v32.89c0,1.64,1.87,2.97,4.17,2.97h71.43c2.31,0,4.19-1.33,4.19-2.97v-32.9c0-1.63-1.88-2.96-4.19-2.96Z"/>
            </g>
            <g>
              <path class="cls-27" d="m166.82,237.31v-.04l-4.24-.32v-.06l-2.26-.19-10.09-.66-.35-.04v-.03l-15.96.02-11.9.02h0c-.81.02-1.43.06-1.43.1v.37c-.87.02-1.49.05-1.48.09v1.8s.62.07,1.5.08v.37s.61.08,1.43.09h0s11.91,0,11.91,0l15.95-.06v-.03h.12s10.32-.72,10.32-.72l2.26-.2v-.07l4.22-.33v-.04s.03.02.04.02c.15,0,.25-.04.25-.1,0-.05-.1-.1-.23-.1-.02,0-.03.02-.05.02Z"/>
              <path class="cls-27" d="m121.35,230.49h0s0,0,0,0Zm71.43-38.43h-71.41c-2.31,0-4.18,1.33-4.18,2.97v32.89c0,1.64,1.87,2.97,4.17,2.97h71.43c2.31,0,4.19-1.33,4.19-2.97v-32.9c0-1.63-1.88-2.96-4.19-2.96Z"/>
            </g>
            <g>
              <path class="cls-52" d="m167.17,237.14v-.04l-4.24-.32v-.06l-2.26-.19-10.09-.66-.35-.04v-.03l-15.96.02-11.9.02h0c-.81.02-1.43.06-1.43.1v.37c-.87.02-1.49.05-1.48.09v1.8s.62.07,1.5.08v.37s.61.08,1.43.09h0s11.91,0,11.91,0l15.95-.06v-.03h.12s10.32-.71,10.32-.71l2.26-.2v-.07l4.22-.33v-.04s.03.02.04.02c.15,0,.25-.04.25-.1,0-.05-.1-.1-.23-.1-.02,0-.03.02-.05.02Z"/>
              <path class="cls-52" d="m121.69,230.32h0s0,0,0,0Zm71.43-38.43h-71.41c-2.31,0-4.18,1.33-4.18,2.97v32.89c0,1.64,1.87,2.97,4.17,2.97h71.43c2.31,0,4.19-1.33,4.19-2.97v-32.9c0-1.63-1.88-2.96-4.19-2.96Z"/>
            </g>
            <g>
              <path class="cls-63" d="m167.52,236.98v-.04l-4.24-.32v-.06l-2.26-.19-10.09-.66-.35-.04v-.03l-15.96.02-11.9.02h0c-.81.02-1.43.06-1.43.1v.37c-.87.02-1.49.05-1.48.09v1.8s.62.07,1.5.08v.37s.61.08,1.43.09h0s11.91,0,11.91,0l15.95-.06v-.03h.12s10.32-.71,10.32-.71l2.26-.2v-.07l4.22-.33v-.04s.03.02.05.02c.15,0,.25-.04.24-.1,0-.05-.1-.1-.23-.1-.02,0-.03.02-.05.02Z"/>
              <path class="cls-63" d="m122.04,230.15h0s0,0,0,0Zm71.43-38.43h-71.41c-2.31,0-4.18,1.33-4.18,2.97v32.89c0,1.64,1.87,2.97,4.17,2.97h71.43c2.31,0,4.19-1.33,4.19-2.97v-32.9c0-1.63-1.88-2.96-4.19-2.96Z"/>
            </g>
            <g>
              <path class="cls-20" d="m167.86,236.81v-.04l-4.24-.32v-.06l-2.26-.19-10.09-.66-.35-.04v-.03l-15.96.02-11.9.02h0c-.81.02-1.43.06-1.43.1v.37c-.87.02-1.49.05-1.48.09v1.8s.62.07,1.5.08v.37s.61.08,1.43.09h0s11.91,0,11.91,0l15.95-.06v-.03h.12s10.32-.71,10.32-.71l2.26-.2v-.07l4.22-.33v-.04s.03.02.05.02c.14,0,.24-.04.24-.1,0-.05-.1-.1-.23-.1-.02,0-.03.02-.05.02Z"/>
              <path class="cls-20" d="m122.39,229.99h0s0,0,0,0Zm71.43-38.43h-71.41c-2.31,0-4.18,1.33-4.18,2.97v32.89c0,1.64,1.87,2.97,4.17,2.97h71.43c2.31,0,4.19-1.33,4.19-2.97v-32.9c0-1.63-1.88-2.96-4.19-2.96Z"/>
            </g>
            <g>
              <path class="cls-35" d="m168.21,236.64v-.04l-4.24-.32v-.06l-2.26-.19-10.09-.66-.35-.04v-.03l-15.96.02-11.9.02h0c-.81.02-1.43.06-1.43.1v.37c-.87.02-1.49.05-1.49.09v1.8s.62.07,1.5.08v.37s.61.08,1.43.09h0s11.91,0,11.91,0l15.95-.05v-.03h.12s10.32-.71,10.32-.71l2.26-.2v-.07l4.22-.33v-.04s.03.02.05.02c.14,0,.24-.04.24-.1,0-.05-.1-.1-.23-.1-.02,0-.03.02-.05.02Z"/>
              <path class="cls-35" d="m122.73,229.82h0s0,0,0,0Zm71.43-38.43h-71.41c-2.31,0-4.18,1.33-4.18,2.97v32.89c0,1.64,1.87,2.97,4.17,2.97h71.43c2.31,0,4.19-1.33,4.19-2.97v-32.9c0-1.63-1.88-2.96-4.19-2.96Z"/>
            </g>
            <g>
              <path class="cls-7" d="m168.56,236.47v-.04l-4.24-.32v-.06l-2.26-.19-10.09-.66-.35-.04v-.03l-15.96.02-11.9.02h0c-.81.02-1.43.06-1.43.1v.37c-.87.02-1.49.05-1.49.09v1.8s.62.07,1.5.08v.37s.61.08,1.43.09h0s11.91,0,11.91,0l15.95-.05v-.03h.12s10.32-.71,10.32-.71l2.26-.2v-.07l4.22-.33v-.04s.03.02.05.02c.14,0,.24-.04.24-.1,0-.05-.1-.1-.23-.1-.02,0-.03.02-.05.02Z"/>
              <path class="cls-7" d="m123.08,229.65h0s0,0,0,0Zm71.43-38.43h-71.41c-2.31,0-4.18,1.33-4.18,2.97v32.89c0,1.64,1.87,2.97,4.17,2.97h71.43c2.31,0,4.19-1.33,4.19-2.97v-32.9c0-1.63-1.88-2.96-4.19-2.96Z"/>
            </g>
            <g>
              <path class="cls-61" d="m168.91,236.31v-.04l-4.24-.32v-.06l-2.26-.19-10.09-.66-.35-.04v-.03l-15.96.02-11.9.02h0c-.81.02-1.43.06-1.43.1v.37c-.87.02-1.49.05-1.49.09v1.8s.62.07,1.5.08v.37s.61.08,1.43.09h0s11.91,0,11.91,0l15.95-.05v-.03h.12s10.32-.71,10.32-.71l2.26-.2v-.07l4.22-.33v-.04s.03.02.05.02c.14,0,.24-.04.24-.1,0-.05-.1-.1-.23-.1-.03,0-.03.02-.05.02Z"/>
              <path class="cls-61" d="m123.43,229.48h0s0,0,0,0Zm71.43-38.43h-71.41c-2.31,0-4.18,1.33-4.18,2.97v32.89c0,1.64,1.87,2.97,4.17,2.97h71.43c2.31,0,4.19-1.33,4.19-2.97v-32.9c0-1.63-1.88-2.96-4.19-2.96Z"/>
            </g>
            <g>
              <path class="cls-6" d="m169.25,236.14v-.04l-4.24-.32v-.06l-2.26-.19-10.09-.66-.35-.04v-.03l-15.96.02-11.9.02h0c-.81.02-1.43.06-1.43.1v.37c-.88.02-1.49.05-1.49.09v1.8s.62.07,1.5.08v.37s.61.08,1.43.09h0s11.91,0,11.91,0l15.95-.05v-.03h.12s10.32-.71,10.32-.71l2.26-.2v-.07l4.22-.33v-.04s.03.02.05.02c.14,0,.24-.04.24-.1,0-.05-.1-.1-.23-.1-.03,0-.03.02-.05.02Z"/>
              <path class="cls-6" d="m123.77,229.32h0s0,0,0,0Zm71.43-38.43h-71.41c-2.31,0-4.18,1.33-4.18,2.97v32.89c0,1.64,1.87,2.97,4.17,2.97h71.43c2.31,0,4.19-1.33,4.19-2.97v-32.9c0-1.63-1.88-2.96-4.19-2.96Z"/>
            </g>
            <g>
              <path class="cls-24" d="m169.6,235.97v-.04l-4.24-.32v-.06l-2.26-.19-10.09-.66-.35-.04v-.03l-15.96.02-11.9.02h0c-.81.02-1.43.06-1.43.1v.37c-.88.02-1.49.05-1.49.09v1.8s.62.07,1.5.08v.37s.61.08,1.43.09h0s11.91,0,11.91,0l15.95-.05v-.03h.12s10.32-.71,10.32-.71l2.26-.2v-.07l4.22-.33v-.04s.03.02.06.02c.14,0,.24-.04.23-.1,0-.05-.1-.1-.23-.1-.03,0-.03.02-.05.02Z"/>
              <path class="cls-24" d="m124.12,229.15h0s0,0,0,0Zm71.43-38.43h-71.41c-2.31,0-4.18,1.33-4.18,2.97v32.89c0,1.64,1.87,2.97,4.17,2.97h71.43c2.31,0,4.19-1.33,4.19-2.97v-32.9c0-1.63-1.88-2.96-4.19-2.96Z"/>
            </g>
            <g>
              <path class="cls-67" d="m169.95,235.8v-.04l-4.24-.32v-.06l-2.26-.19-10.09-.66-.35-.04v-.03l-15.96.02-11.9.02h0c-.81.02-1.43.06-1.43.11v.37c-.88.02-1.49.05-1.49.09v1.8s.62.07,1.5.08v.37s.61.08,1.43.09h0s11.91,0,11.91,0l15.95-.05v-.04h.12s10.32-.71,10.32-.71l2.26-.2v-.07l4.22-.33v-.04s.03.02.06.02c.13,0,.23-.04.23-.1,0-.05-.1-.1-.23-.1-.03,0-.03.02-.05.02Z"/>
              <path class="cls-67" d="m124.47,228.98h0Zm71.42-38.43h-71.41c-2.31,0-4.18,1.33-4.18,2.97v32.89c0,1.64,1.87,2.97,4.17,2.97h71.43c2.31,0,4.19-1.33,4.19-2.97v-32.9c0-1.63-1.88-2.96-4.19-2.96Z"/>
            </g>
          </g>
          <g>
            <path class="cls-31" d="m170,235.98c.13,0,.23-.04.23-.1,0-.05-.1-.1-.23-.1s-.25.05-.24.1c0,.05.1.1.24.1Z"/>
            <path class="cls-53" d="m126.77,236.95c1.45,0,2.62-.05,2.62-.11v-1.79c0-.05-1.18-.1-2.62-.1h-1.93c-1.45.01-2.62.05-2.62.11v1.8c0,.05,1.18.09,2.62.09h1.92Z"/>
            <path class="cls-46" d="m125.6,237.41c1.03,0,1.87-.05,1.87-.11v-2.71c0-.06-.85-.1-1.89-.1h0c-1.03,0-1.88.05-1.88.11v2.71c.01.05.85.1,1.89.1h0Z"/>
            <polygon class="cls-53" points="163.45 236.59 152.93 237.31 152.92 235.9 152.91 234.51 163.45 235.19 165.71 235.39 165.72 236.39 163.45 236.59"/>
            <polygon class="cls-46" points="153.01 235.06 153.01 234.46 137.05 234.48 125.15 234.5 125.15 235.11 153.01 235.06"/>
            <polygon class="cls-46" points="153.01 236.78 153.01 237.34 137.06 237.4 125.15 237.42 125.16 236.84 153.01 236.78"/>
            <polygon class="cls-53" points="125.16 236.36 125.15 236.35 125.15 235.98 125.15 235.97 125.15 235.6 125.15 235.59 125.15 235.11 153.01 235.06 153.01 235.54 153.01 235.55 153.01 235.91 153.01 235.92 153.01 236.3 153.01 236.31 153.01 236.78 125.16 236.84 125.16 236.36"/>
            <polygon class="cls-30" points="153.01 236.72 153.01 236.71 153.01 235.91 153.01 235.9 153.01 235.09 153.01 235.08 153.01 234.5 153.63 234.56 153.64 235.08 153.64 235.09 153.64 235.9 153.64 235.91 153.64 236.71 153.65 236.72 153.65 237.24 153.01 237.31 153.01 236.72"/>
            <polygon class="cls-46" points="169.94 235.99 165.67 236.33 165.67 235.45 169.95 235.76 169.94 235.99"/>
          </g>
          <g>
            <path class="cls-38" d="m120.86,193.52c0-1.42,1.63-2.57,3.62-2.57h71.41c2,0,3.63,1.15,3.63,2.57v32.89c0,1.42-1.63,2.57-3.63,2.57h-71.42c-2,0-3.62-1.15-3.62-2.57v-32.89Z"/>
            <rect class="cls-53" x="133.56" y="193.96" width="59.99" height="32"/>
            <g>
              <path class="cls-53" d="m123.15,209.96c0-1.62,1.85-2.92,4.13-2.93,2.29,0,4.13,1.31,4.14,2.93,0,1.62-1.85,2.93-4.14,2.93-2.28,0-4.13-1.31-4.13-2.93Z"/>
              <path class="cls-5" d="m124.85,209.96c0-.95,1.09-1.72,2.43-1.72s2.42.77,2.42,1.72-1.08,1.72-2.42,1.72-2.43-.77-2.43-1.72Z"/>
            </g>
            <g>
              <g>
                <rect class="cls-53" x="124.49" y="215.86" width="5.57" height="1.64"/>
                <rect class="cls-53" x="124.49" y="218.66" width="5.57" height="1.64"/>
                <rect class="cls-53" x="124.49" y="221.46" width="5.57" height="1.64"/>
              </g>
              <g>
                <rect class="cls-53" x="124.5" y="196.82" width="5.56" height="1.64"/>
                <rect class="cls-53" x="124.5" y="199.63" width="5.56" height="1.64"/>
                <rect class="cls-53" x="124.5" y="202.43" width="5.56" height="1.64"/>
              </g>
            </g>
            <path class="cls-53" d="m195.91,208.02c0-.39.44-.71,1-.71h0c.55,0,.99.32.99.71v3.9c0,.39-.44.71-.99.71h0c-.56,0-1-.32-1-.71v-3.9Z"/>
          </g>
          <g class="cls-54">
            <path class="cls-5" d="m399.59,61.98c2.99-3.36,4.99-6.94,5.96-10.65.12-.46-.15-.88-.62-1.16.67-4.09-.03-7.91-1.96-11.17.71-2.09-2.79-5.52-8.49-8.07-5.9-2.64-11.94-3.37-14.13-1.83-4.83.22-9.81,1.42-14.56,3.54-.55-.18-1.21-.16-1.73.11-4.31,2.22-8.01,5.05-10.99,8.4-.03.03-.03.07-.06.1-1.75.14-3.67,1.01-4.98,2.48-1.77,1.99-1.71,4.23-.05,5.29l-.82.92c-.97,1.1-.52,2.54,1.03,3.24,0,0,.02,0,.02,0-1.03,1.67-.31,3.65,1.92,4.65,2.47,1.11,5.72.58,7.27-1.16l10.12-11.37c1.55-1.75.81-4.06-1.65-5.16-1.92-.86-4.3-.71-6,.22-.07-.04-.11-.09-.18-.12-.35-.16-.74-.25-1.13-.31,2.21-1.99,4.73-3.73,7.54-5.18.28-.15.45-.35.57-.56,4.35-1.99,8.9-3.15,13.3-3.43,1.3,1.26,5.94,2.37,10.66,4.48,4.88,2.19,8.36,4.77,10.5,4.9,1.6,2.97,2.11,6.44,1.44,10.13-.22.17-.4.36-.46.61-.64,2.42-1.77,4.79-3.35,7.06-.23-.23-.52-.44-.88-.6-.07-.03-.15-.04-.23-.06.45-1.49-.38-3.08-2.3-3.94-2.46-1.11-5.72-.58-7.27,1.16l-10.12,11.37c-1.55,1.75-.82,4.06,1.64,5.16,2.24,1.01,5.07.61,6.74-.77l.02.02c.79.35,1.7.44,2.54.29-2.84,2.64-7.15,5.76-12.5,6.84-3.21.65-6.47.48-9.73-.47-.02-.44-.3-.87-.86-1.12l-.87-.39c0-.85-.54-1.69-1.64-2.18l-6.73-3.01c-1.7-.76-3.96-.41-5.03.8-1.07,1.2-.56,2.81,1.14,3.57l6.73,3.01c1.09.49,2.38.47,3.48.11l.87.39c.7.31,1.56.26,2.18-.07,3.65,1.08,7.31,1.28,10.94.55,7.79-1.58,13.35-6.91,15.87-9.78,1.91.1,4.2-.83,5.69-2.51,1.31-1.47,1.59-3.07,1.02-4.25.03-.03.08-.05.11-.08Z"/>
            <path class="cls-74" d="m399.96,61.71c2.95-3.39,5-6.94,5.96-10.65.12-.46-.15-.88-.62-1.16.67-4.09-.03-7.91-1.96-11.17.71-2.09-2.79-5.52-8.49-8.07-5.9-2.64-11.94-3.37-14.13-1.83-4.83.22-9.81,1.42-14.56,3.54-.55-.18-1.21-.16-1.73.11-4.31,2.22-7.93,5.12-10.99,8.4-.03.03-.03.07-.06.1-1.75.14-3.67,1.01-4.98,2.48-1.77,1.99-1.71,4.23-.05,5.29l-.82.92c-.97,1.1-.44,2.4,1.03,3.24,0,0,.02,0,.02,0-1.03,1.67-.31,3.65,1.92,4.65,2.47,1.11,5.72.58,7.27-1.16l10.12-11.37c1.55-1.75.81-4.06-1.65-5.16-1.92-.86-4.3-.71-6,.22-.07-.04-.11-.09-.18-.12-.36-.16-.74-.25-1.13-.31,2.21-1.99,4.73-3.73,7.54-5.18.28-.15.45-.35.57-.56,4.35-1.98,8.9-3.15,13.3-3.43,1.3,1.26,5.94,2.37,10.66,4.48,4.88,2.19,8.36,4.77,10.5,4.9,1.6,2.97,2.11,6.44,1.44,10.13-.22.17-.4.36-.46.61-.61,2.43-1.77,4.79-3.35,7.06-.23-.23-.52-.44-.88-.6-.07-.03-.15-.03-.23-.06.45-1.49-.38-3.08-2.3-3.94-2.46-1.11-5.72-.58-7.27,1.16l-10.12,11.37c-1.55,1.75-.82,4.06,1.64,5.16,2.24,1.01,5.07.61,6.74-.77l.02.02c.79.35,1.7.44,2.54.29-2.84,2.64-7.15,5.76-12.5,6.84-3.21.65-6.47.48-9.73-.47-.02-.44-.3-.87-.86-1.12l-.87-.39c0-.85-.54-1.69-1.64-2.18l-6.73-3.01c-1.7-.76-3.96-.41-5.03.8-1.07,1.2-.56,2.81,1.14,3.57l6.73,3.01c1.09.49,2.38.47,3.47.11l.87.39c.7.31,1.56.26,2.18-.07,3.65,1.08,7.31,1.28,10.94.55,7.79-1.58,13.35-6.91,15.87-9.78,1.91.1,4.2-.83,5.69-2.51,1.31-1.47,1.59-3.07,1.02-4.25.03-.03.08-.05.11-.08Z"/>
            <path class="cls-8" d="m400.33,61.45c2.96-3.38,5-6.94,5.96-10.65.12-.45-.15-.88-.62-1.16.67-4.09-.03-7.91-1.96-11.17.71-2.09-2.79-5.52-8.49-8.07-5.9-2.64-11.94-3.37-14.13-1.83-4.83.22-9.81,1.42-14.56,3.54-.55-.18-1.21-.16-1.73.11-4.31,2.22-7.94,5.11-10.99,8.4-.03.03-.03.07-.06.1-1.75.14-3.67,1.01-4.98,2.48-1.77,1.99-1.71,4.23-.05,5.29l-.82.92c-.97,1.1-.44,2.4,1.03,3.24,0,0,.02,0,.02,0-1.03,1.67-.31,3.65,1.92,4.65,2.47,1.11,5.72.58,7.27-1.16l10.12-11.37c1.55-1.75.81-4.06-1.65-5.16-1.92-.86-4.3-.71-6,.22-.07-.04-.11-.09-.18-.12-.36-.16-.74-.25-1.13-.31,2.21-1.99,4.73-3.73,7.54-5.18.28-.15.45-.35.57-.56,4.35-1.98,8.9-3.15,13.3-3.43,1.3,1.26,5.94,2.37,10.66,4.48,4.88,2.19,8.36,4.77,10.5,4.9,1.6,2.97,2.11,6.44,1.44,10.13-.22.17-.4.36-.46.61-.61,2.43-1.77,4.79-3.35,7.06-.23-.23-.52-.44-.88-.6-.07-.03-.15-.03-.23-.06.45-1.49-.38-3.08-2.3-3.94-2.46-1.11-5.72-.58-7.27,1.16l-10.12,11.37c-1.55,1.75-.82,4.06,1.64,5.16,2.24,1.01,5.07.61,6.74-.77l.02.02c.79.35,1.7.44,2.54.29-2.84,2.64-7.15,5.76-12.5,6.84-3.21.65-6.47.48-9.73-.47-.02-.44-.3-.87-.86-1.12l-.87-.39c0-.85-.54-1.69-1.64-2.18l-6.73-3.01c-1.7-.76-3.96-.41-5.03.8-1.07,1.2-.56,2.81,1.14,3.57l6.73,3.01c1.09.49,2.38.47,3.47.11l.87.39c.7.31,1.56.26,2.18-.07,3.65,1.08,7.31,1.28,10.94.55,7.79-1.58,13.35-6.91,15.87-9.78,1.91.1,4.2-.83,5.69-2.51,1.31-1.47,1.59-3.08,1.02-4.25.03-.03.08-.05.11-.08Z"/>
            <path class="cls-58" d="m400.7,61.19c2.96-3.38,5-6.94,5.96-10.65.12-.45-.15-.88-.62-1.16.67-4.09-.03-7.91-1.96-11.17.71-2.09-2.79-5.52-8.49-8.07-5.9-2.64-11.94-3.37-14.13-1.83-4.83.22-9.81,1.42-14.56,3.54-.55-.18-1.21-.16-1.73.11-4.31,2.22-7.94,5.11-10.99,8.4-.03.03-.03.07-.06.1-1.75.14-3.67,1.01-4.98,2.48-1.77,2-1.71,4.23-.05,5.29l-.82.92c-.97,1.1-.44,2.4,1.03,3.24,0,0,.02,0,.02,0-1.03,1.67-.31,3.65,1.92,4.65,2.47,1.11,5.72.58,7.27-1.16l10.12-11.37c1.55-1.75.81-4.06-1.65-5.16-1.92-.86-4.3-.71-6,.22-.07-.04-.11-.09-.18-.12-.36-.16-.74-.25-1.13-.31,2.21-1.99,4.73-3.73,7.54-5.18.28-.15.45-.35.57-.56,4.35-1.98,8.9-3.15,13.3-3.43,1.3,1.26,5.94,2.37,10.66,4.48,4.88,2.19,8.36,4.77,10.5,4.9,1.6,2.97,2.11,6.44,1.44,10.13-.22.17-.4.36-.46.6-.62,2.43-1.77,4.79-3.35,7.06-.23-.23-.52-.44-.88-.6-.07-.03-.15-.03-.23-.06.45-1.49-.38-3.08-2.3-3.94-2.46-1.11-5.72-.58-7.27,1.16l-10.12,11.37c-1.55,1.75-.82,4.06,1.64,5.16,2.24,1.01,5.07.61,6.74-.77l.02.02c.79.35,1.7.44,2.54.29-2.84,2.64-7.15,5.76-12.5,6.84-3.21.65-6.48.48-9.73-.47-.02-.44-.3-.87-.86-1.12l-.87-.39c0-.85-.54-1.69-1.64-2.18l-6.73-3.01c-1.7-.76-3.96-.41-5.03.8-1.07,1.2-.56,2.81,1.14,3.57l6.73,3.01c1.09.49,2.38.47,3.47.11l.87.39c.7.31,1.56.26,2.18-.07,3.65,1.08,7.31,1.28,10.94.55,7.79-1.58,13.35-6.91,15.87-9.78,1.91.1,4.2-.83,5.69-2.51,1.31-1.47,1.59-3.08,1.02-4.25.03-.03.08-.05.11-.08Z"/>
            <path class="cls-4" d="m401.07,60.93c2.97-3.37,5-6.94,5.96-10.65.12-.45-.15-.88-.62-1.16.67-4.09-.03-7.91-1.96-11.17.71-2.09-2.79-5.52-8.49-8.07-5.9-2.64-11.94-3.37-14.13-1.83-4.83.22-9.81,1.42-14.56,3.54-.55-.18-1.21-.16-1.73.11-4.31,2.22-7.95,5.1-10.99,8.4-.03.03-.03.07-.06.1-1.75.14-3.67,1.01-4.98,2.48-1.77,2-1.71,4.23-.05,5.29l-.82.92c-.97,1.1-.44,2.4,1.03,3.24,0,0,.02,0,.02,0-1.03,1.67-.32,3.65,1.92,4.65,2.47,1.11,5.72.58,7.27-1.16l10.12-11.37c1.55-1.75.81-4.06-1.65-5.16-1.92-.86-4.3-.71-6,.22-.07-.04-.11-.09-.18-.12-.36-.16-.74-.25-1.13-.31,2.21-1.99,4.73-3.73,7.54-5.18.28-.15.45-.35.57-.56,4.35-1.98,8.9-3.15,13.3-3.43,1.3,1.26,5.94,2.37,10.66,4.48,4.88,2.19,8.36,4.77,10.5,4.9,1.6,2.97,2.11,6.44,1.44,10.13-.22.17-.4.36-.46.6-.62,2.43-1.77,4.79-3.35,7.06-.23-.23-.52-.44-.88-.6-.07-.03-.15-.03-.23-.06.45-1.49-.38-3.08-2.3-3.94-2.46-1.11-5.72-.58-7.27,1.16l-10.12,11.37c-1.55,1.75-.82,4.06,1.64,5.16,2.24,1.01,5.07.61,6.74-.77l.02.02c.79.35,1.7.44,2.54.29-2.84,2.64-7.15,5.76-12.5,6.84-3.21.65-6.48.48-9.73-.47-.02-.44-.3-.87-.86-1.12l-.87-.39c0-.85-.54-1.69-1.64-2.18l-6.73-3.01c-1.7-.76-3.96-.41-5.03.8-1.07,1.21-.56,2.81,1.14,3.57l6.73,3.01c1.09.49,2.38.47,3.47.11l.87.39c.7.31,1.56.26,2.18-.07,3.65,1.08,7.31,1.28,10.94.55,7.79-1.58,13.35-6.91,15.87-9.78,1.91.1,4.2-.83,5.69-2.51,1.31-1.47,1.59-3.08,1.02-4.25.03-.03.08-.05.11-.08Z"/>
            <path class="cls-60" d="m401.44,60.66c2.98-3.37,5-6.94,5.96-10.65.12-.45-.15-.88-.62-1.16.67-4.09-.03-7.91-1.96-11.17.71-2.09-2.79-5.52-8.49-8.07-5.9-2.64-11.94-3.37-14.14-1.83-4.83.22-9.81,1.42-14.56,3.54-.55-.18-1.21-.16-1.73.11-4.31,2.22-7.95,5.1-10.99,8.4-.03.03-.03.07-.06.1-1.75.14-3.67,1.01-4.98,2.48-1.77,2-1.71,4.23-.05,5.29l-.82.92c-.97,1.1-.44,2.4,1.03,3.24,0,0,.02,0,.02,0-1.03,1.67-.32,3.65,1.92,4.65,2.47,1.1,5.72.58,7.27-1.16l10.12-11.37c1.55-1.75.81-4.06-1.65-5.16-1.92-.86-4.3-.71-6,.22-.07-.04-.11-.09-.18-.12-.35-.16-.74-.25-1.13-.31,2.21-1.99,4.73-3.73,7.54-5.18.28-.15.45-.35.57-.56,4.35-1.98,8.9-3.15,13.3-3.43,1.3,1.26,5.94,2.37,10.66,4.48,4.88,2.19,8.36,4.77,10.5,4.9,1.6,2.97,2.11,6.44,1.44,10.13-.22.17-.4.36-.46.6-.62,2.43-1.77,4.79-3.35,7.06-.23-.23-.52-.44-.88-.6-.07-.03-.15-.03-.23-.06.45-1.49-.38-3.08-2.3-3.94-2.46-1.11-5.72-.58-7.27,1.16l-10.12,11.37c-1.55,1.75-.82,4.06,1.64,5.16,2.24,1.01,5.07.61,6.74-.77l.02.02c.79.35,1.7.44,2.54.29-2.84,2.64-7.15,5.76-12.5,6.84-3.21.65-6.48.48-9.73-.47-.02-.44-.3-.87-.86-1.12l-.87-.39c0-.85-.54-1.69-1.64-2.18l-6.73-3.01c-1.7-.76-3.96-.41-5.03.8-1.07,1.21-.56,2.81,1.14,3.57l6.73,3.01c1.09.49,2.38.47,3.47.11l.87.39c.7.31,1.56.26,2.18-.07,3.65,1.08,7.31,1.28,10.94.55,7.79-1.58,13.35-6.91,15.87-9.78,1.91.1,4.2-.83,5.69-2.51,1.31-1.47,1.59-3.08,1.02-4.25.03-.03.08-.05.11-.08Z"/>
            <path class="cls-59" d="m401.81,60.4c2.98-3.36,5-6.94,5.96-10.65.12-.45-.15-.88-.62-1.16.67-4.09-.03-7.91-1.96-11.17.72-2.09-2.79-5.52-8.49-8.07-5.9-2.64-11.94-3.37-14.14-1.83-4.83.22-9.81,1.42-14.55,3.54-.55-.18-1.21-.16-1.73.11-4.31,2.22-7.96,5.09-10.99,8.4-.03.03-.03.07-.06.1-1.75.14-3.67,1.01-4.98,2.48-1.77,2-1.71,4.23-.05,5.29l-.82.92c-.97,1.1-.44,2.4,1.03,3.24,0,0,.02,0,.02,0-1.03,1.67-.32,3.65,1.92,4.65,2.47,1.1,5.72.58,7.27-1.16l10.12-11.37c1.55-1.75.81-4.06-1.65-5.16-1.92-.86-4.3-.71-6,.22-.07-.04-.11-.09-.18-.12-.35-.16-.74-.25-1.13-.31,2.21-1.99,4.73-3.73,7.54-5.18.28-.15.45-.35.57-.56,4.35-1.98,8.9-3.15,13.3-3.43,1.3,1.26,5.94,2.37,10.66,4.48,4.88,2.19,8.36,4.77,10.5,4.9,1.6,2.97,2.11,6.44,1.44,10.13-.22.17-.4.36-.46.6-.62,2.43-1.77,4.79-3.35,7.06-.23-.23-.52-.44-.88-.6-.07-.03-.15-.03-.23-.06.45-1.49-.38-3.08-2.3-3.94-2.46-1.11-5.72-.58-7.27,1.16l-10.12,11.37c-1.55,1.75-.82,4.06,1.64,5.16,2.24,1.01,5.07.61,6.74-.77l.02.02c.79.35,1.7.44,2.54.29-2.84,2.64-7.15,5.76-12.5,6.84-3.21.65-6.48.48-9.73-.47-.02-.44-.3-.87-.86-1.12l-.87-.39c0-.85-.54-1.69-1.64-2.18l-6.73-3.01c-1.7-.76-3.96-.41-5.03.8-1.07,1.21-.56,2.81,1.14,3.57l6.73,3.01c1.09.49,2.38.47,3.47.11l.87.39c.7.31,1.56.26,2.18-.07,3.65,1.08,7.31,1.28,10.94.55,7.79-1.58,13.35-6.91,15.87-9.78,1.91.1,4.2-.83,5.69-2.51,1.31-1.47,1.59-3.08,1.02-4.25.03-.03.08-.05.11-.08Z"/>
            <path class="cls-70" d="m402.18,60.14c2.98-3.36,5-6.94,5.96-10.65.12-.45-.15-.88-.62-1.16.67-4.09-.03-7.91-1.96-11.17.72-2.09-2.79-5.52-8.49-8.07-5.9-2.64-11.94-3.37-14.14-1.83-4.83.22-9.81,1.42-14.55,3.54-.55-.18-1.21-.16-1.73.11-4.31,2.22-7.96,5.09-10.99,8.4-.03.03-.03.07-.06.1-1.75.14-3.67,1.01-4.98,2.48-1.77,2-1.71,4.23-.05,5.29l-.82.92c-.97,1.1-.44,2.4,1.03,3.24,0,0,.02,0,.02,0-1.03,1.67-.32,3.65,1.92,4.65,2.47,1.1,5.72.58,7.27-1.16l10.12-11.37c1.55-1.75.81-4.06-1.65-5.16-1.92-.86-4.3-.71-6,.22-.07-.04-.11-.09-.18-.12-.35-.16-.74-.25-1.13-.31,2.21-1.99,4.73-3.73,7.54-5.18.28-.15.45-.35.57-.56,4.35-1.98,8.9-3.15,13.3-3.43,1.3,1.26,5.94,2.37,10.66,4.48,4.88,2.19,8.36,4.77,10.5,4.9,1.6,2.97,2.11,6.44,1.44,10.13-.22.17-.4.36-.46.6-.62,2.43-1.77,4.79-3.35,7.06-.23-.23-.52-.44-.88-.6-.07-.03-.15-.03-.23-.06.45-1.49-.38-3.08-2.3-3.94-2.46-1.11-5.72-.58-7.27,1.16l-10.12,11.37c-1.55,1.75-.82,4.06,1.64,5.16,2.24,1.01,5.07.61,6.74-.77h.02c.79.37,1.7.45,2.54.31-2.84,2.64-7.15,5.76-12.5,6.85-3.21.65-6.48.48-9.73-.47-.02-.44-.3-.87-.86-1.12l-.87-.39c0-.85-.54-1.69-1.64-2.18l-6.73-3.01c-1.7-.76-3.96-.41-5.03.8-1.07,1.21-.56,2.81,1.14,3.57l6.73,3.01c1.09.49,2.38.47,3.47.11l.87.39c.7.31,1.56.26,2.18-.07,3.65,1.08,7.31,1.29,10.94.55,7.79-1.58,13.35-6.91,15.87-9.78,1.91.1,4.2-.83,5.69-2.51,1.31-1.47,1.59-3.08,1.02-4.25.03-.03.08-.05.11-.08Z"/>
            <path class="cls-2" d="m402.55,59.88c2.99-3.35,5-6.94,5.96-10.65.12-.45-.15-.88-.62-1.16.67-4.09-.03-7.91-1.96-11.17.72-2.09-2.79-5.52-8.49-8.07-5.9-2.64-11.94-3.37-14.14-1.83-4.82.22-9.81,1.42-14.55,3.54-.55-.18-1.21-.16-1.73.11-4.31,2.22-7.97,5.08-10.99,8.4-.03.03-.03.07-.06.1-1.75.14-3.67,1.01-4.98,2.48-1.77,2-1.71,4.23-.05,5.29l-.82.92c-.97,1.1-.44,2.4,1.03,3.24,0,0,.02,0,.02,0-1.03,1.67-.32,3.65,1.92,4.65,2.47,1.1,5.72.58,7.27-1.16l10.12-11.37c1.55-1.75.81-4.06-1.65-5.16-1.92-.86-4.3-.71-6,.22-.07-.04-.11-.09-.18-.12-.35-.16-.74-.25-1.13-.31,2.21-1.99,4.73-3.73,7.54-5.18.28-.15.45-.35.57-.56,4.35-1.98,8.9-3.15,13.3-3.43,1.3,1.26,5.94,2.37,10.66,4.48,4.88,2.19,8.36,4.77,10.5,4.9,1.6,2.97,2.11,6.44,1.44,10.13-.22.17-.4.36-.46.6-.62,2.43-1.77,4.79-3.35,7.06-.24-.23-.52-.44-.88-.6-.07-.03-.15-.03-.23-.06.45-1.49-.38-3.08-2.3-3.94-2.46-1.11-5.72-.58-7.27,1.16l-10.12,11.37c-1.56,1.75-.82,4.06,1.64,5.16,2.24,1.01,5.07.61,6.74-.77h.02c.79.37,1.7.45,2.54.31-2.84,2.64-7.15,5.76-12.5,6.85-3.21.65-6.48.48-9.73-.47-.02-.44-.3-.87-.86-1.12l-.87-.39c0-.85-.54-1.69-1.64-2.18l-6.73-3.01c-1.7-.76-3.96-.41-5.03.8-1.07,1.21-.56,2.81,1.14,3.57l6.73,3.01c1.09.49,2.38.47,3.47.11l.87.39c.7.31,1.56.26,2.18-.07,3.65,1.08,7.31,1.29,10.94.55,7.79-1.58,13.35-6.91,15.87-9.78,1.91.1,4.2-.83,5.69-2.51,1.31-1.47,1.59-3.08,1.02-4.25.03-.03.08-.05.11-.08Z"/>
            <path class="cls-34" d="m402.92,59.61c3-3.34,5-6.94,5.96-10.65.12-.45-.15-.88-.62-1.16.67-4.09-.03-7.91-1.96-11.17.72-2.09-2.79-5.52-8.49-8.07-5.9-2.64-11.94-3.37-14.14-1.83-4.82.22-9.81,1.42-14.55,3.54-.55-.18-1.21-.16-1.73.11-4.31,2.22-7.98,5.08-10.99,8.4-.03.03-.03.07-.06.1-1.75.14-3.67,1.01-4.98,2.48-1.77,2-1.71,4.23-.05,5.29l-.82.92c-.97,1.1-.44,2.4,1.03,3.24,0,0,.02,0,.02,0-1.03,1.67-.32,3.65,1.92,4.65,2.47,1.1,5.72.58,7.27-1.16l10.12-11.37c1.55-1.75.81-4.06-1.65-5.16-1.92-.86-4.3-.71-6,.22-.07-.04-.11-.09-.18-.12-.35-.16-.74-.25-1.13-.31,2.21-1.99,4.73-3.73,7.54-5.18.28-.15.45-.35.57-.56,4.35-1.98,8.9-3.15,13.3-3.43,1.3,1.26,5.94,2.37,10.66,4.48,4.88,2.19,8.36,4.77,10.5,4.9,1.6,2.97,2.11,6.44,1.44,10.13-.22.17-.4.36-.46.6-.62,2.43-1.77,4.79-3.35,7.06-.24-.23-.52-.44-.88-.6-.07-.03-.15-.03-.23-.06.45-1.49-.38-3.08-2.3-3.94-2.46-1.11-5.72-.58-7.27,1.16l-10.12,11.37c-1.56,1.75-.82,4.06,1.64,5.16,2.24,1.01,5.07.61,6.74-.77h.02c.79.37,1.7.45,2.54.31-2.84,2.64-7.15,5.76-12.5,6.85-3.21.65-6.48.48-9.73-.47-.02-.44-.3-.87-.86-1.12l-.87-.39c0-.85-.54-1.69-1.64-2.18l-6.73-3.01c-1.7-.76-3.96-.41-5.03.8-1.07,1.21-.56,2.81,1.14,3.57l6.73,3.01c1.09.49,2.38.47,3.47.11l.87.39c.7.31,1.56.26,2.18-.07,3.65,1.08,7.31,1.29,10.94.55,7.79-1.58,13.35-6.91,15.87-9.78,1.91.1,4.2-.83,5.69-2.51,1.31-1.47,1.59-3.08,1.02-4.25.03-.03.08-.05.11-.08Z"/>
            <path class="cls-42" d="m403.3,59.35c3.01-3.34,5-6.94,5.96-10.65.12-.45-.15-.88-.62-1.16.67-4.09-.03-7.91-1.96-11.17.72-2.09-2.79-5.52-8.49-8.07-5.9-2.64-11.94-3.37-14.14-1.83-4.82.22-9.81,1.42-14.55,3.54-.55-.18-1.21-.16-1.73.11-4.31,2.22-7.98,5.07-10.99,8.4-.03.03-.03.07-.06.1-1.75.14-3.67,1.01-4.98,2.48-1.77,2-1.71,4.23-.05,5.29l-.82.92c-.97,1.1-.44,2.4,1.03,3.24,0,0,.02,0,.02,0-1.03,1.67-.32,3.65,1.92,4.65,2.47,1.1,5.72.58,7.27-1.16l10.12-11.37c1.55-1.75.81-4.06-1.65-5.16-1.92-.86-4.3-.71-6,.22-.07-.04-.11-.09-.18-.12-.35-.16-.74-.25-1.13-.31,2.21-1.99,4.73-3.73,7.54-5.18.28-.15.45-.35.57-.56,4.35-1.98,8.9-3.15,13.3-3.43,1.3,1.26,5.94,2.37,10.66,4.48,4.88,2.19,8.36,4.77,10.5,4.9,1.6,2.97,2.11,6.44,1.44,10.13-.22.17-.4.36-.46.6-.62,2.43-1.77,4.79-3.35,7.06-.24-.23-.52-.44-.88-.6-.07-.03-.15-.03-.23-.06.45-1.49-.38-3.08-2.3-3.94-2.46-1.11-5.72-.58-7.27,1.16l-10.12,11.37c-1.56,1.75-.82,4.06,1.64,5.16,2.24,1.01,5.07.61,6.74-.77h.02c.79.37,1.7.45,2.54.31-2.84,2.64-7.15,5.76-12.5,6.85-3.21.65-6.48.48-9.73-.47-.02-.44-.3-.87-.86-1.12l-.87-.39c0-.85-.54-1.69-1.64-2.18l-6.73-3.01c-1.7-.76-3.96-.41-5.04.8-1.07,1.21-.55,2.81,1.14,3.57l6.73,3.01c1.09.49,2.38.47,3.47.11l.87.39c.7.31,1.56.26,2.18-.07,3.65,1.08,7.31,1.29,10.94.55,7.79-1.58,13.35-6.91,15.87-9.78,1.92.1,4.2-.83,5.69-2.51,1.31-1.47,1.59-3.08,1.02-4.25.03-.03.08-.05.11-.08Z"/>
            <path class="cls-32" d="m403.67,59.09c3.01-3.33,5-6.94,5.96-10.65.12-.45-.15-.88-.62-1.16.67-4.09-.03-7.91-1.96-11.17.72-2.09-2.79-5.52-8.49-8.07-5.9-2.64-11.94-3.37-14.14-1.83-4.82.22-9.81,1.42-14.55,3.54-.55-.18-1.21-.16-1.73.11-4.31,2.22-7.99,5.07-10.99,8.4-.03.03-.03.07-.06.1-1.75.14-3.67,1.01-4.98,2.48-1.77,2-1.71,4.23-.05,5.29l-.82.92c-.97,1.1-.44,2.4,1.03,3.24,0,0,.02,0,.02,0-1.03,1.67-.32,3.65,1.92,4.65,2.47,1.1,5.72.58,7.27-1.16l10.12-11.37c1.55-1.75.81-4.06-1.65-5.16-1.92-.86-4.3-.71-6,.22-.07-.04-.11-.09-.18-.12-.35-.16-.74-.25-1.13-.31,2.21-1.99,4.73-3.73,7.54-5.18.28-.15.45-.35.57-.56,4.35-1.98,8.9-3.15,13.3-3.43,1.3,1.26,5.94,2.37,10.66,4.48,4.88,2.19,8.36,4.76,10.5,4.9,1.6,2.97,2.11,6.44,1.44,10.13-.22.17-.4.36-.46.6-.62,2.43-1.77,4.79-3.35,7.06-.24-.23-.52-.44-.88-.6-.07-.03-.15-.03-.23-.06.45-1.49-.38-3.08-2.3-3.94-2.46-1.11-5.72-.58-7.27,1.16l-10.12,11.37c-1.56,1.75-.82,4.06,1.64,5.16,2.24,1.01,5.07.61,6.74-.77h.02c.79.37,1.7.45,2.54.31-2.84,2.64-7.15,5.76-12.5,6.85-3.21.65-6.48.48-9.73-.47-.02-.44-.3-.87-.86-1.12l-.87-.39c0-.85-.54-1.69-1.64-2.18l-6.73-3.01c-1.7-.76-3.96-.41-5.04.8-1.07,1.21-.55,2.81,1.14,3.57l6.73,3.01c1.09.49,2.38.47,3.47.11l.87.39c.7.31,1.56.26,2.18-.07,3.65,1.08,7.31,1.29,10.94.55,7.79-1.58,13.35-6.91,15.87-9.78,1.92.1,4.2-.83,5.69-2.51,1.31-1.47,1.59-3.08,1.02-4.25.03-.03.08-.05.11-.08Z"/>
            <path class="cls-27" d="m404.04,58.83c3.02-3.33,5-6.94,5.96-10.65.12-.45-.15-.88-.62-1.16.67-4.09-.03-7.91-1.96-11.17.72-2.09-2.79-5.52-8.49-8.07-5.9-2.64-11.94-3.37-14.14-1.83-4.82.22-9.81,1.42-14.55,3.54-.55-.18-1.21-.16-1.73.11-4.31,2.22-8,5.06-10.99,8.4-.03.03-.03.07-.06.1-1.75.14-3.67,1.01-4.98,2.48-1.77,2-1.71,4.23-.05,5.29l-.82.92c-.97,1.1-.44,2.4,1.03,3.24,0,0,.03,0,.03,0-1.03,1.67-.32,3.65,1.92,4.65,2.47,1.1,5.72.58,7.27-1.16l10.12-11.37c1.55-1.75.81-4.06-1.65-5.16-1.92-.86-4.3-.71-6,.22-.07-.04-.11-.09-.18-.12-.36-.16-.74-.25-1.13-.31,2.21-1.99,4.73-3.73,7.54-5.18.28-.15.45-.35.57-.56,4.35-1.98,8.9-3.15,13.3-3.43,1.3,1.26,5.94,2.37,10.66,4.48,4.88,2.19,8.36,4.76,10.5,4.9,1.6,2.97,2.11,6.44,1.44,10.13-.22.17-.4.36-.47.6-.62,2.43-1.77,4.79-3.35,7.06-.24-.23-.52-.44-.88-.6-.07-.03-.15-.03-.23-.06.45-1.49-.38-3.08-2.3-3.94-2.46-1.11-5.72-.58-7.27,1.16l-10.12,11.37c-1.56,1.75-.82,4.06,1.64,5.16,2.24,1.01,5.07.61,6.74-.77h.02c.79.37,1.7.45,2.54.31-2.84,2.64-7.15,5.76-12.5,6.85-3.21.65-6.48.48-9.73-.47-.02-.44-.3-.87-.86-1.12l-.87-.39c0-.85-.54-1.69-1.64-2.18l-6.73-3.01c-1.7-.76-3.96-.41-5.04.8-1.07,1.21-.55,2.81,1.14,3.57l6.73,3.01c1.09.49,2.38.47,3.47.11l.87.39c.7.31,1.56.26,2.18-.07,3.65,1.08,7.31,1.29,10.94.55,7.79-1.58,13.36-6.91,15.87-9.78,1.92.1,4.2-.83,5.69-2.51,1.31-1.47,1.59-3.08,1.02-4.25.03-.03.08-.05.11-.08Z"/>
            <path class="cls-52" d="m404.41,58.56c3.02-3.32,5-6.94,5.96-10.65.12-.45-.15-.88-.62-1.16.67-4.09-.03-7.91-1.96-11.17.72-2.09-2.79-5.52-8.49-8.07-5.9-2.64-11.94-3.37-14.14-1.83-4.82.23-9.81,1.42-14.55,3.54-.55-.18-1.21-.16-1.73.11-4.31,2.22-8,5.05-10.99,8.4-.03.03-.03.07-.06.1-1.75.14-3.67,1-4.98,2.48-1.77,2-1.71,4.23-.05,5.29l-.82.92c-.97,1.1-.44,2.4,1.03,3.24,0,0,.03,0,.03,0-1.03,1.67-.32,3.65,1.92,4.65,2.47,1.1,5.72.58,7.27-1.16l10.12-11.37c1.55-1.75.82-4.06-1.65-5.16-1.92-.86-4.3-.71-6,.22-.07-.04-.11-.09-.18-.12-.36-.16-.74-.25-1.13-.31,2.21-1.99,4.73-3.73,7.54-5.18.28-.15.45-.35.57-.56,4.35-1.98,8.9-3.15,13.3-3.43,1.29,1.26,5.94,2.37,10.66,4.48,4.88,2.19,8.36,4.76,10.5,4.9,1.6,2.97,2.11,6.44,1.44,10.13-.22.17-.4.36-.47.6-.62,2.43-1.77,4.79-3.35,7.06-.24-.23-.52-.44-.88-.6-.07-.03-.16-.03-.23-.06.45-1.49-.38-3.08-2.3-3.94-2.46-1.11-5.72-.58-7.27,1.16l-10.12,11.37c-1.56,1.75-.82,4.06,1.64,5.16,2.24,1,5.07.61,6.74-.77h.02c.79.37,1.7.45,2.54.31-2.84,2.64-7.15,5.76-12.5,6.85-3.21.65-6.48.48-9.73-.47-.02-.44-.3-.87-.86-1.12l-.87-.39c0-.85-.54-1.69-1.64-2.18l-6.73-3.01c-1.7-.76-3.96-.41-5.04.8-1.07,1.21-.55,2.81,1.14,3.57l6.73,3.01c1.09.49,2.38.47,3.47.11l.87.39c.7.31,1.56.26,2.17-.07,3.65,1.08,7.31,1.29,10.94.55,7.79-1.58,13.36-6.91,15.87-9.78,1.92.1,4.2-.83,5.69-2.51,1.31-1.47,1.59-3.08,1.02-4.25.03-.03.08-.05.11-.08Z"/>
            <path class="cls-63" d="m404.78,58.3c3.03-3.31,5-6.94,5.96-10.65.12-.45-.15-.88-.62-1.16.67-4.09-.03-7.91-1.96-11.17.72-2.09-2.79-5.52-8.49-8.07-5.9-2.64-11.94-3.37-14.14-1.83-4.82.23-9.81,1.42-14.55,3.54-.55-.18-1.21-.16-1.73.11-4.31,2.22-8.01,5.05-10.99,8.4-.03.03-.03.07-.06.1-1.75.13-3.67,1-4.98,2.48-1.77,2-1.71,4.23-.05,5.29l-.82.92c-.97,1.1-.44,2.4,1.03,3.24,0,0,.03,0,.03,0-1.03,1.67-.32,3.65,1.92,4.65,2.47,1.1,5.72.58,7.27-1.17l10.12-11.37c1.55-1.75.82-4.06-1.64-5.16-1.92-.86-4.3-.71-6,.22-.07-.04-.11-.09-.18-.12-.36-.16-.74-.25-1.13-.31,2.21-1.99,4.73-3.73,7.54-5.18.28-.15.45-.35.57-.56,4.35-1.98,8.9-3.15,13.3-3.43,1.29,1.26,5.94,2.37,10.66,4.49,4.88,2.19,8.36,4.76,10.5,4.9,1.6,2.97,2.11,6.44,1.44,10.13-.22.17-.4.36-.47.6-.63,2.43-1.77,4.79-3.35,7.06-.24-.23-.52-.44-.88-.6-.07-.03-.16-.03-.23-.06.45-1.49-.38-3.08-2.3-3.94-2.46-1.11-5.72-.58-7.27,1.16l-10.12,11.37c-1.56,1.75-.82,4.06,1.64,5.16,2.24,1,5.07.61,6.74-.77h.02c.79.37,1.7.45,2.54.31-2.84,2.64-7.15,5.76-12.5,6.85-3.21.65-6.48.48-9.73-.47-.01-.44-.3-.87-.86-1.12l-.87-.39c0-.85-.54-1.69-1.64-2.18l-6.73-3.01c-1.7-.76-3.96-.41-5.04.8-1.07,1.21-.55,2.81,1.14,3.57l6.73,3.01c1.09.49,2.38.47,3.47.11l.87.39c.7.31,1.55.26,2.17-.07,3.65,1.08,7.31,1.29,10.94.55,7.79-1.58,13.36-6.91,15.87-9.78,1.92.1,4.2-.83,5.69-2.51,1.31-1.47,1.59-3.08,1.02-4.25.03-.03.08-.05.11-.08Z"/>
            <path class="cls-20" d="m405.15,58.04c3.03-3.31,5-6.94,5.96-10.65.12-.45-.15-.88-.62-1.16.67-4.09-.03-7.91-1.96-11.17.72-2.09-2.79-5.52-8.49-8.07-5.9-2.64-11.94-3.37-14.14-1.83-4.82.23-9.81,1.42-14.55,3.54-.55-.18-1.21-.16-1.73.11-4.31,2.22-8.01,5.05-10.99,8.4-.03.03-.03.07-.06.1-1.75.13-3.67,1-4.98,2.48-1.77,2-1.71,4.23-.05,5.29l-.82.92c-.97,1.1-.44,2.4,1.03,3.24,0,0,.03,0,.03,0-1.03,1.67-.32,3.65,1.92,4.65,2.47,1.1,5.72.58,7.27-1.17l10.12-11.37c1.55-1.75.82-4.06-1.64-5.16-1.92-.86-4.3-.71-6,.22-.07-.04-.11-.09-.18-.12-.36-.16-.74-.25-1.13-.31,2.21-1.99,4.73-3.73,7.54-5.18.28-.15.45-.35.57-.56,4.35-1.98,8.9-3.15,13.3-3.43,1.29,1.26,5.94,2.37,10.66,4.49,4.88,2.19,8.36,4.76,10.5,4.9,1.6,2.97,2.11,6.44,1.44,10.13-.22.17-.4.36-.47.6-.63,2.43-1.77,4.79-3.35,7.06-.24-.23-.52-.44-.88-.6-.07-.03-.16-.03-.23-.06.45-1.49-.38-3.08-2.3-3.94-2.46-1.11-5.72-.58-7.27,1.16l-10.12,11.37c-1.56,1.75-.82,4.06,1.64,5.16,2.24,1,5.07.61,6.74-.77h.02c.79.37,1.7.45,2.54.31-2.84,2.64-7.15,5.76-12.5,6.85-3.21.65-6.48.48-9.73-.47-.01-.44-.3-.87-.86-1.12l-.87-.39c0-.85-.54-1.69-1.64-2.18l-6.73-3.01c-1.7-.76-3.96-.41-5.04.8-1.07,1.21-.55,2.81,1.14,3.57l6.73,3.01c1.09.49,2.38.47,3.47.11l.87.39c.7.31,1.55.26,2.17-.07,3.65,1.08,7.31,1.29,10.94.55,7.79-1.58,13.36-6.91,15.87-9.78,1.92.1,4.2-.83,5.69-2.51,1.31-1.47,1.59-3.08,1.02-4.25.03-.03.08-.05.11-.08Z"/>
            <path class="cls-35" d="m405.52,57.78c3.04-3.3,5-6.94,5.96-10.65.12-.45-.15-.88-.62-1.16.67-4.09-.03-7.91-1.96-11.17.72-2.09-2.78-5.52-8.49-8.07-5.9-2.64-11.94-3.37-14.14-1.83-4.82.23-9.81,1.42-14.55,3.54-.55-.18-1.21-.16-1.73.11-4.31,2.22-8.02,5.04-10.99,8.4-.03.03-.03.07-.05.1-1.75.13-3.67,1-4.98,2.48-1.77,2-1.71,4.23-.05,5.29l-.82.92c-.97,1.1-.44,2.4,1.03,3.24,0,0,.03,0,.03,0-1.03,1.67-.32,3.65,1.92,4.65,2.47,1.1,5.72.58,7.27-1.17l10.12-11.37c1.55-1.75.82-4.06-1.64-5.16-1.92-.86-4.3-.71-6,.22-.07-.04-.11-.09-.18-.12-.36-.16-.74-.25-1.13-.31,2.21-1.99,4.73-3.73,7.54-5.18.28-.15.45-.35.57-.56,4.35-1.98,8.9-3.15,13.3-3.43,1.29,1.26,5.94,2.37,10.66,4.49,4.88,2.19,8.36,4.76,10.5,4.9,1.6,2.97,2.11,6.44,1.44,10.13-.22.17-.4.36-.47.6-.63,2.43-1.77,4.79-3.35,7.06-.24-.23-.52-.44-.88-.6-.07-.03-.16-.03-.23-.06.45-1.49-.38-3.08-2.3-3.94-2.46-1.11-5.72-.58-7.27,1.16l-10.12,11.37c-1.56,1.75-.82,4.06,1.64,5.16,2.24,1,5.07.61,6.74-.77h.02c.79.37,1.71.45,2.54.31-2.84,2.64-7.15,5.76-12.5,6.85-3.21.65-6.48.48-9.73-.47-.01-.44-.3-.87-.86-1.12l-.87-.39c0-.85-.54-1.69-1.64-2.18l-6.73-3.01c-1.7-.76-3.96-.41-5.04.8-1.07,1.21-.55,2.81,1.14,3.57l6.73,3.01c1.09.49,2.38.47,3.47.11l.87.39c.7.31,1.55.26,2.17-.07,3.65,1.08,7.31,1.29,10.94.55,7.79-1.58,13.36-6.91,15.87-9.78,1.92.1,4.2-.83,5.69-2.51,1.31-1.47,1.59-3.08,1.02-4.25.03-.03.08-.05.11-.08Z"/>
            <path class="cls-7" d="m405.89,57.52c3.05-3.3,4.99-6.94,5.96-10.65.12-.45-.15-.88-.62-1.16.67-4.09-.03-7.91-1.96-11.17.72-2.09-2.78-5.52-8.49-8.07-5.9-2.64-11.94-3.37-14.14-1.83-4.82.23-9.81,1.42-14.55,3.54-.55-.18-1.21-.17-1.73.11-4.31,2.22-8.03,5.03-10.99,8.4-.03.03-.03.07-.05.1-1.75.13-3.67,1-4.98,2.48-1.77,2-1.71,4.23-.05,5.29l-.82.92c-.97,1.1-.44,2.4,1.03,3.24,0,0,.03,0,.03,0-1.03,1.67-.32,3.65,1.92,4.65,2.47,1.1,5.72.58,7.27-1.17l10.12-11.37c1.55-1.75.82-4.06-1.64-5.16-1.92-.86-4.3-.71-6,.22-.07-.04-.11-.09-.18-.12-.36-.16-.74-.25-1.13-.31,2.21-1.99,4.73-3.73,7.54-5.18.28-.15.45-.35.57-.56,4.35-1.98,8.9-3.15,13.3-3.43,1.29,1.26,5.94,2.37,10.66,4.49,4.88,2.19,8.36,4.76,10.5,4.9,1.6,2.97,2.11,6.44,1.44,10.13-.22.17-.4.36-.47.6-.63,2.43-1.77,4.79-3.35,7.06-.24-.23-.52-.44-.88-.6-.07-.03-.16-.03-.23-.06.45-1.49-.38-3.08-2.3-3.94-2.46-1.11-5.72-.58-7.27,1.16l-10.12,11.37c-1.56,1.75-.82,4.06,1.64,5.16,2.24,1,5.07.61,6.74-.77h.02c.79.37,1.71.45,2.54.31-2.84,2.64-7.15,5.76-12.5,6.85-3.21.65-6.48.48-9.73-.47-.01-.44-.3-.87-.86-1.12l-.87-.39c0-.85-.54-1.69-1.64-2.18l-6.73-3.01c-1.7-.76-3.96-.41-5.04.8-1.07,1.21-.55,2.81,1.14,3.57l6.73,3.01c1.09.49,2.38.47,3.47.11l.87.39c.7.31,1.55.26,2.17-.07,3.65,1.08,7.31,1.29,10.94.55,7.79-1.58,13.36-6.91,15.87-9.78,1.92.1,4.2-.83,5.69-2.51,1.31-1.47,1.59-3.08,1.02-4.25.03-.03.08-.05.11-.08Z"/>
            <path class="cls-61" d="m406.26,57.25c3.05-3.29,4.99-6.94,5.96-10.65.12-.45-.15-.88-.62-1.16.67-4.09-.03-7.91-1.96-11.17.72-2.09-2.78-5.52-8.49-8.07-5.9-2.64-11.94-3.37-14.14-1.83-4.82.23-9.81,1.42-14.55,3.54-.55-.18-1.21-.17-1.73.11-4.31,2.22-8.03,5.03-11,8.4-.03.03-.03.07-.05.1-1.75.13-3.67,1-4.98,2.48-1.77,2-1.71,4.23-.05,5.29l-.82.92c-.97,1.1-.44,2.4,1.03,3.24,0,0,.03,0,.03,0-1.03,1.67-.32,3.65,1.92,4.65,2.47,1.1,5.72.58,7.27-1.17l10.12-11.37c1.55-1.75.82-4.06-1.64-5.16-1.92-.86-4.3-.71-6,.22-.07-.04-.11-.09-.18-.12-.36-.16-.74-.25-1.13-.31,2.21-1.99,4.73-3.73,7.54-5.18.28-.15.45-.35.57-.56,4.35-1.98,8.9-3.15,13.3-3.43,1.29,1.26,5.94,2.37,10.66,4.49,4.88,2.19,8.36,4.76,10.5,4.9,1.6,2.97,2.11,6.44,1.44,10.13-.22.17-.4.36-.47.6-.63,2.43-1.77,4.79-3.35,7.06-.24-.23-.52-.44-.88-.6-.07-.03-.16-.03-.23-.06.45-1.49-.38-3.08-2.3-3.94-2.46-1.11-5.72-.58-7.27,1.16l-10.12,11.37c-1.56,1.75-.82,4.06,1.64,5.16,2.24,1,5.07.61,6.74-.77h.02c.79.37,1.71.45,2.55.31-2.84,2.64-7.15,5.76-12.5,6.85-3.21.65-6.48.48-9.73-.47-.01-.44-.3-.87-.86-1.12l-.87-.39c0-.85-.54-1.69-1.64-2.18l-6.73-3.01c-1.7-.76-3.96-.41-5.04.8-1.07,1.21-.55,2.81,1.14,3.57l6.73,3.01c1.09.49,2.38.47,3.47.11l.87.39c.7.31,1.55.26,2.17-.07,3.65,1.08,7.31,1.29,10.94.55,7.79-1.58,13.36-6.91,15.87-9.78,1.92.1,4.2-.83,5.69-2.51,1.31-1.47,1.59-3.08,1.02-4.25.03-.03.08-.05.11-.08Z"/>
            <path class="cls-6" d="m406.63,56.99c3.06-3.29,4.99-6.94,5.96-10.65.12-.45-.15-.88-.62-1.16.67-4.09-.03-7.91-1.96-11.17.72-2.09-2.78-5.52-8.49-8.07-5.9-2.64-11.94-3.37-14.14-1.83-4.82.23-9.81,1.42-14.55,3.54-.55-.18-1.21-.17-1.73.11-4.31,2.22-8.04,5.02-11,8.4-.03.03-.03.07-.05.1-1.75.13-3.67,1-4.98,2.48-1.77,2-1.71,4.23-.05,5.29l-.82.92c-.97,1.1-.44,2.4,1.03,3.24,0,0,.03,0,.03,0-1.03,1.67-.32,3.65,1.92,4.65,2.46,1.1,5.72.58,7.27-1.17l10.12-11.37c1.55-1.75.82-4.06-1.64-5.16-1.92-.86-4.3-.71-6,.22-.07-.04-.11-.09-.18-.12-.36-.16-.74-.25-1.13-.31,2.21-1.99,4.73-3.73,7.54-5.18.28-.15.45-.35.57-.56,4.35-1.98,8.9-3.15,13.3-3.43,1.29,1.26,5.94,2.37,10.66,4.49,4.88,2.19,8.36,4.76,10.5,4.9,1.6,2.97,2.11,6.44,1.44,10.13-.22.17-.4.36-.47.6-.63,2.42-1.77,4.79-3.35,7.06-.24-.23-.52-.44-.88-.6-.07-.03-.16-.03-.23-.06.44-1.49-.38-3.08-2.3-3.94-2.46-1.11-5.72-.58-7.27,1.16l-10.12,11.37c-1.56,1.75-.82,4.06,1.64,5.16,2.24,1,5.07.61,6.74-.77h.02c.79.37,1.71.45,2.55.31-2.84,2.64-7.15,5.76-12.5,6.85-3.21.65-6.48.48-9.73-.47-.01-.44-.3-.87-.86-1.12l-.87-.39c0-.85-.54-1.69-1.64-2.18l-6.73-3.01c-1.7-.76-3.96-.4-5.04.8-1.07,1.21-.55,2.81,1.14,3.57l6.73,3.01c1.09.49,2.38.47,3.47.11l.87.39c.7.31,1.55.26,2.17-.07,3.65,1.08,7.31,1.29,10.94.55,7.79-1.58,13.36-6.91,15.87-9.78,1.92.1,4.2-.83,5.69-2.51,1.31-1.47,1.59-3.08,1.02-4.25.03-.03.08-.05.11-.08Z"/>
            <path class="cls-24" d="m407,56.73c3.06-3.28,4.99-6.94,5.96-10.65.12-.45-.15-.88-.62-1.16.67-4.09-.03-7.91-1.96-11.17.72-2.09-2.78-5.52-8.49-8.07-5.9-2.64-11.94-3.37-14.14-1.83-4.82.23-9.81,1.42-14.55,3.54-.55-.18-1.21-.17-1.73.11-4.31,2.22-8.05,5.01-11,8.4-.03.03-.03.07-.05.1-1.75.13-3.67,1-4.98,2.48-1.77,2-1.71,4.23-.05,5.29l-.82.92c-.97,1.1-.44,2.4,1.03,3.24,0,0,.03,0,.03,0-1.03,1.67-.32,3.65,1.92,4.65,2.46,1.1,5.72.58,7.27-1.17l10.12-11.37c1.55-1.75.82-4.06-1.64-5.16-1.92-.86-4.3-.71-6,.22-.07-.04-.11-.09-.18-.12-.36-.16-.74-.25-1.13-.31,2.21-1.99,4.73-3.73,7.54-5.18.28-.15.45-.35.57-.56,4.35-1.98,8.9-3.15,13.3-3.43,1.29,1.26,5.94,2.37,10.66,4.49,4.88,2.19,8.36,4.76,10.5,4.9,1.6,2.97,2.11,6.44,1.44,10.13-.22.17-.4.36-.47.6-.63,2.42-1.77,4.79-3.35,7.06-.24-.23-.52-.44-.88-.6-.07-.03-.16-.03-.23-.06.44-1.49-.38-3.08-2.3-3.94-2.46-1.11-5.72-.58-7.27,1.16l-10.12,11.37c-1.56,1.75-.82,4.06,1.64,5.16,2.24,1,5.07.61,6.74-.77h.02c.79.37,1.71.45,2.55.31-2.84,2.64-7.15,5.76-12.5,6.85-3.21.65-6.48.47-9.73-.47-.01-.44-.3-.87-.86-1.12l-.87-.39c0-.85-.54-1.69-1.64-2.18l-6.73-3.01c-1.7-.76-3.96-.4-5.04.8-1.07,1.21-.55,2.81,1.14,3.57l6.73,3.01c1.09.49,2.38.47,3.47.11l.87.39c.7.31,1.55.26,2.17-.07,3.65,1.08,7.31,1.29,10.94.55,7.79-1.58,13.36-6.91,15.87-9.78,1.92.1,4.2-.83,5.69-2.51,1.31-1.47,1.59-3.08,1.02-4.25.04-.03.08-.05.11-.08Z"/>
            <path class="cls-67" d="m407.37,56.47c2.98-3.36,4.98-6.94,5.96-10.65.12-.45-.15-.88-.62-1.16.67-4.09-.03-7.91-1.96-11.17.72-2.09-2.78-5.52-8.49-8.07-5.9-2.64-11.94-3.37-14.14-1.83-4.82.23-9.81,1.42-14.55,3.54-.55-.18-1.21-.17-1.73.11-4.31,2.22-8.01,5.05-11,8.4-.03.03-.03.07-.05.11-1.75.13-3.67,1-4.98,2.48-1.77,2-1.71,4.23-.05,5.29l-.82.92c-.97,1.1-.51,2.55,1.03,3.24h.03c-1.03,1.67-.32,3.65,1.92,4.66,2.46,1.1,5.72.58,7.27-1.17l10.12-11.37c1.55-1.75.82-4.06-1.64-5.16-1.92-.86-4.3-.71-6,.22-.07-.04-.11-.09-.18-.12-.36-.16-.74-.25-1.13-.31,2.21-1.99,4.73-3.73,7.54-5.18.28-.15.45-.35.57-.56,4.35-1.98,8.9-3.15,13.3-3.43,1.29,1.26,5.94,2.37,10.66,4.49,4.88,2.19,8.36,4.76,10.5,4.9,1.6,2.97,2.11,6.44,1.45,10.13-.22.17-.4.36-.47.6-.63,2.42-1.77,4.79-3.35,7.06-.24-.23-.52-.43-.88-.6-.07-.03-.16-.03-.23-.06.44-1.49-.38-3.08-2.3-3.94-2.46-1.11-5.72-.58-7.27,1.16l-10.12,11.37c-1.56,1.75-.82,4.06,1.64,5.16,2.24,1,5.07.61,6.74-.77h.02c.79.37,1.71.45,2.55.31-2.84,2.64-7.15,5.76-12.5,6.85-3.21.65-6.48.47-9.73-.47-.01-.44-.3-.87-.86-1.12l-.87-.39c0-.85-.54-1.69-1.64-2.18l-6.73-3.01c-1.7-.76-3.96-.4-5.04.8-1.07,1.21-.55,2.81,1.14,3.57l6.73,3.01c1.09.49,2.38.47,3.47.11l.87.39c.7.31,1.55.26,2.17-.07,3.65,1.08,7.31,1.29,10.94.55,7.79-1.58,13.36-6.91,15.87-9.78,1.92.11,4.2-.83,5.69-2.51,1.31-1.47,1.59-3.08,1.02-4.25.04-.03.08-.05.11-.08Z"/>
          </g>
          <g>
            <path class="cls-18" d="m370.7,71.45l.92-1.05c4.2,1.83,8.43,2.34,12.59,1.49,9.86-2.01,16.22-10.91,16.28-11l1.56.55c-.27.39-6.76,9.49-17.36,11.64-4.63.94-9.34.4-13.98-1.63Z"/>
            <path class="cls-36" d="m372.75,29.44l-1.36-1.34c10.17-5.24,21.9-6.07,30.6-2.17l-1.24,1.39c-7.88-3.53-18.62-2.72-28,2.11Z"/>
            <path class="cls-18" d="m361.39,37.33c-.81-.36-1.06-1.13-.55-1.71,2.99-3.35,6.69-6.18,11-8.4.78-.4,1.87-.27,2.43.27.56.55.4,1.33-.39,1.73-3.96,2.04-7.35,4.63-10.1,7.71-.51.58-1.59.75-2.4.39Z"/>
            <path class="cls-36" d="m363.28,41.55c-1.9,2.14-5.12,3.13-7.19,2.2-2.06-.92-2.19-3.41-.28-5.55,1.91-2.14,5.13-3.13,7.18-2.21,2.06.93,2.19,3.42.28,5.56Z"/>
            <path class="cls-14" d="m360.54,46.92c-.97,1.09-3.02,1.42-4.57.73h0c-1.54-.69-2-2.14-1.03-3.24l7.97-8.96c.97-1.1,3.02-1.42,4.57-.73h0c1.54.69,2.02,2.14,1.04,3.24l-7.98,8.96Z"/>
            <path class="cls-14" d="m365.18,51.14c-1.55,1.74-4.8,2.27-7.27,1.17h0c-2.47-1.11-3.2-3.42-1.64-5.16l10.12-11.37c1.55-1.75,4.81-2.27,7.27-1.16h0c2.46,1.1,3.2,3.41,1.64,5.16l-10.12,11.37Z"/>
            <path class="cls-18" d="m366.57,46.99c-1.12,1.26-3.45,1.63-5.22.84h0c-1.77-.79-2.29-2.45-1.18-3.71l7.27-8.17c1.11-1.26,3.45-1.63,5.22-.84h0c1.77.79,2.29,2.45,1.18,3.71l-7.26,8.17Z"/>
            <g>
              <path class="cls-36" d="m410.11,46.18l2.29.3c2.29-8.77-1.69-16.64-10.4-20.54l-1.24,1.39c7.88,3.53,11.47,10.76,9.36,18.85Z"/>
              <path class="cls-18" d="m404.96,56.85c.82.37,1.9.2,2.41-.38,2.98-3.36,4.98-6.94,5.96-10.65.17-.67-.46-1.32-1.4-1.44-.94-.12-1.86.32-2.03.99-.89,3.41-2.73,6.7-5.47,9.78-.52.58-.27,1.34.53,1.7Z"/>
              <path class="cls-36" d="m398.79,57.46c-1.91,2.14-1.79,4.63.28,5.55,2.06.92,5.28-.07,7.18-2.21,1.9-2.14,1.78-4.63-.27-5.55-2.07-.92-5.28.07-7.18,2.21Z"/>
              <path class="cls-14" d="m393.13,61.52c-.97,1.1-.51,2.55,1.04,3.24h0c1.54.69,3.6.37,4.57-.73l7.97-8.97c.97-1.1.51-2.55-1.04-3.24h0c-1.54-.69-3.6-.36-4.57.73l-7.97,8.96Z"/>
              <path class="cls-14" d="m385.76,60.36c-1.56,1.75-.82,4.06,1.64,5.16h0c2.46,1.11,5.72.58,7.27-1.16l10.12-11.37c1.55-1.74.82-4.05-1.64-5.16h0c-2.46-1.11-5.72-.58-7.27,1.16l-10.12,11.37Z"/>
            </g>
            <path class="cls-18" d="m401.47,26.53c5.52,2.47,9.02,5.77,8.6,7.88.14-.09.27-.19.39-.33,1.76-1.98-1.91-5.86-8.19-8.68-6.29-2.82-12.81-3.5-14.57-1.52-.22.25-.32.49-.3.72,2.28-1.45,8.27-.67,14.08,1.93Z"/>
            <path class="cls-14" d="m398.42,29.73c5.85,2.62,9.72,5.87,11.64,4.69.43-2.11-3.08-5.41-8.6-7.88-5.8-2.6-11.8-3.38-14.08-1.93.12,1.55,5.54,2.66,11.03,5.12Z"/>
            <path class="cls-18" d="m396.07,60.21c-1.12,1.26-3.46,1.63-5.22.84h0c-1.77-.79-2.3-2.45-1.18-3.7l7.26-8.17c1.12-1.26,3.46-1.63,5.23-.84h0c1.76.79,2.29,2.46,1.18,3.71l-7.26,8.17Z"/>
            <path class="cls-18" d="m374.22,72.18c-.57.64-1.75.83-2.65.43l-2.4-1.08c-.89-.4-1.17-1.24-.6-1.88h0c.57-.63,1.75-.82,2.65-.42l2.4,1.07c.9.4,1.16,1.24.6,1.88h0Z"/>
            <path class="cls-14" d="m372.26,71.3c-1.08,1.21-3.33,1.56-5.03.8l-6.73-3.01c-1.7-.76-2.21-2.36-1.14-3.57h0c1.07-1.21,3.34-1.56,5.04-.8l6.73,3.01c1.71.76,2.22,2.36,1.14,3.57h0Z"/>
            <path class="cls-18" d="m368.61,68.98c-.66.73-2.02.95-3.05.49l-4.09-1.83c-1.04-.47-1.34-1.44-.69-2.17h0c.65-.73,2.01-.95,3.05-.49l4.08,1.83c1.03.46,1.34,1.43.7,2.16h0Z"/>
          </g>
          <g>
            <g class="cls-54">
              <g>
                <path class="cls-5" d="m268.49,213.72l81.08-56.42c.8-.56.96-1.35.38-1.77l-30.16-22.22c-.57-.44-1.7-.33-2.48.22l-81.08,56.42c-.79.54-.96,1.34-.38,1.78l30.17,22.21c.58.43,1.69.33,2.48-.22Z"/>
                <path class="cls-5" d="m393.84,175.38l-5.36-3.8-.09.07-16.85-5.81-46.57,33.05c-.22-.21-.39-.43-.65-.62-4.25-3.02-12.65-1.95-18.77,2.39-6.11,4.34-7.62,10.3-3.37,13.32.26.18.58.31.87.46l-44.8,31.79,6.45,13.2-.13.09,5.37,3.81,123.92-87.94Z"/>
                <path class="cls-5" d="m239.03,216.24c4.17-2.96,2.68-8.82-3.32-13.08-6-4.26-14.26-5.32-18.43-2.35-4.17,2.96-2.68,8.82,3.32,13.08,6.01,4.26,14.26,5.32,18.44,2.35Z"/>
                <path class="cls-5" d="m241.27,241.38l7.93-1.73-1.06-2.44h0s-.19-.45-.19-.45c-.8-1.84-3.54-2.87-6.13-2.31-2.59.57-4.05,2.51-3.25,4.35l1.25,2.89,1.44-.32h0Z"/>
                <path class="cls-5" d="m258.68,231.28h-1.95v-.83h1.95v.83Zm1.21.9l-.04-2.82h1.29s-.07-6.38-.07-6.38c-.02-1.92-2.24-3.47-4.94-3.45-2.71.01-4.88,1.58-4.86,3.5l.07,6.38h1.12s.08,0,.08,0l.03,2.82,7.32-.04Zm-4.22-1.74v.83h-1.94s0-.83,0-.83h1.95Z"/>
              </g>
              <g>
                <path class="cls-74" d="m269.18,213.13l81.08-56.42c.8-.56.96-1.35.38-1.77l-30.16-22.22c-.57-.44-1.7-.33-2.48.22l-81.08,56.42c-.79.54-.96,1.34-.38,1.78l30.17,22.21c.58.43,1.69.33,2.48-.22Z"/>
                <path class="cls-74" d="m394.54,174.79l-5.36-3.8-.09.07-16.86-5.81-46.57,33.05c-.22-.21-.39-.43-.65-.62-4.25-3.02-12.65-1.95-18.77,2.39-6.11,4.34-7.62,10.3-3.37,13.32.26.18.58.31.87.46l-44.8,31.79,6.45,13.2-.13.09,5.37,3.81,123.92-87.94Z"/>
                <path class="cls-74" d="m239.72,215.65c4.17-2.96,2.68-8.82-3.32-13.08-6-4.26-14.26-5.32-18.43-2.35-4.17,2.96-2.68,8.82,3.32,13.08,6.01,4.26,14.26,5.32,18.44,2.35Z"/>
                <path class="cls-74" d="m241.97,240.79l7.93-1.73-1.06-2.44h0s-.19-.45-.19-.45c-.8-1.84-3.54-2.87-6.13-2.31-2.59.57-4.05,2.51-3.25,4.35l1.25,2.89,1.44-.32h0Z"/>
                <path class="cls-74" d="m259.38,230.7h-1.95s0-.83,0-.83h1.95v.83Zm1.21.91l-.04-2.82h1.29s-.07-6.38-.07-6.38c-.02-1.92-2.24-3.47-4.94-3.45-2.71.01-4.88,1.58-4.86,3.5l.07,6.38h1.12s.08,0,.08,0l.03,2.82,7.32-.04Zm-4.22-1.74v.83h-1.94s0-.83,0-.83h1.95Z"/>
              </g>
              <g>
                <path class="cls-65" d="m269.88,212.55l81.08-56.42c.8-.56.96-1.35.38-1.77l-30.16-22.22c-.57-.44-1.7-.33-2.48.22l-81.08,56.42c-.79.54-.96,1.34-.38,1.78l30.17,22.21c.58.43,1.69.33,2.48-.22Z"/>
                <path class="cls-65" d="m395.24,174.21l-5.36-3.8-.09.07-16.86-5.81-46.57,33.05c-.22-.21-.39-.43-.65-.62-4.25-3.02-12.65-1.95-18.77,2.39-6.11,4.34-7.62,10.3-3.37,13.32.26.18.58.31.87.46l-44.8,31.79,6.45,13.2-.13.09,5.37,3.81,123.92-87.94Z"/>
                <path class="cls-65" d="m240.42,215.07c4.17-2.96,2.68-8.82-3.32-13.08-6-4.26-14.26-5.32-18.43-2.35-4.17,2.96-2.68,8.82,3.32,13.08,6.01,4.26,14.26,5.32,18.44,2.36Z"/>
                <path class="cls-65" d="m242.66,240.21l7.93-1.73-1.06-2.44h0s-.19-.45-.19-.45c-.8-1.84-3.54-2.87-6.13-2.31-2.59.57-4.05,2.51-3.25,4.35l1.25,2.89,1.44-.32h0Z"/>
                <path class="cls-65" d="m260.07,230.11h-1.95s0-.83,0-.83h1.95v.83Zm1.21.91l-.04-2.82h1.29s-.07-6.38-.07-6.38c-.02-1.92-2.24-3.47-4.94-3.45-2.71.01-4.88,1.58-4.86,3.5l.07,6.38h1.12s.08,0,.08,0l.03,2.82,7.32-.04Zm-4.22-1.74v.83h-1.94s0-.83,0-.83h1.95Z"/>
              </g>
              <g>
                <path class="cls-17" d="m270.58,211.97l81.08-56.42c.8-.56.96-1.35.38-1.77l-30.16-22.22c-.57-.44-1.7-.33-2.48.22l-81.08,56.42c-.79.54-.96,1.34-.38,1.78l30.17,22.22c.58.43,1.69.33,2.48-.22Z"/>
                <path class="cls-17" d="m395.93,173.63l-5.36-3.8-.09.07-16.86-5.81-46.57,33.05c-.22-.21-.39-.43-.65-.62-4.25-3.02-12.65-1.95-18.77,2.39-6.11,4.34-7.62,10.3-3.37,13.32.26.18.58.31.87.46l-44.8,31.79,6.45,13.2-.13.09,5.37,3.81,123.92-87.94Z"/>
                <path class="cls-17" d="m241.12,214.48c4.17-2.96,2.68-8.82-3.32-13.08-6-4.26-14.26-5.32-18.43-2.35-4.17,2.96-2.68,8.82,3.32,13.08,6.01,4.26,14.26,5.32,18.44,2.36Z"/>
                <path class="cls-17" d="m243.36,239.62l7.93-1.73-1.06-2.44h0s-.19-.45-.19-.45c-.8-1.84-3.54-2.87-6.13-2.31-2.59.57-4.05,2.51-3.25,4.35l1.25,2.89,1.44-.32h0Z"/>
                <path class="cls-17" d="m260.77,229.53h-1.95s0-.83,0-.83h1.95v.83Zm1.21.91l-.04-2.82h1.29s-.07-6.38-.07-6.38c-.02-1.92-2.24-3.47-4.94-3.45-2.71.01-4.88,1.58-4.86,3.5l.07,6.38h1.12s.08,0,.08,0l.03,2.82,7.32-.04Zm-4.22-1.74v.83h-1.94s0-.83,0-.83h1.95Z"/>
              </g>
              <g>
                <path class="cls-71" d="m271.27,211.38l81.08-56.42c.8-.56.96-1.35.38-1.77l-30.16-22.23c-.57-.44-1.7-.33-2.48.22l-81.08,56.42c-.79.54-.96,1.34-.38,1.78l30.17,22.22c.58.43,1.69.33,2.48-.22Z"/>
                <path class="cls-71" d="m396.63,173.04l-5.36-3.8-.09.07-16.86-5.81-46.57,33.05c-.22-.21-.39-.43-.65-.62-4.25-3.02-12.65-1.95-18.77,2.39-6.11,4.34-7.62,10.3-3.37,13.32.26.18.58.31.87.46l-44.8,31.79,6.45,13.2-.13.09,5.37,3.81,123.92-87.94Z"/>
                <path class="cls-71" d="m241.82,213.9c4.17-2.96,2.68-8.82-3.32-13.08-6-4.26-14.26-5.32-18.43-2.35-4.17,2.96-2.68,8.82,3.32,13.08,6.01,4.26,14.26,5.32,18.44,2.36Z"/>
                <path class="cls-71" d="m244.06,239.04l7.93-1.73-1.06-2.44h0s-.19-.44-.19-.44c-.8-1.84-3.54-2.87-6.13-2.31-2.59.57-4.05,2.51-3.25,4.35l1.25,2.89,1.44-.32h0Z"/>
                <path class="cls-71" d="m261.47,228.94h-1.95s0-.83,0-.83h1.95v.83Zm1.21.91l-.04-2.82h1.29s-.07-6.38-.07-6.38c-.02-1.92-2.24-3.47-4.94-3.45-2.71.01-4.88,1.58-4.86,3.5l.07,6.38h1.12s.08,0,.08,0l.03,2.82,7.32-.04Zm-4.22-1.74v.83h-1.94s0-.83,0-.83h1.95Z"/>
              </g>
              <g>
                <path class="cls-68" d="m271.97,210.8l81.08-56.42c.8-.56.96-1.35.38-1.77l-30.16-22.23c-.57-.44-1.7-.33-2.48.22l-81.08,56.42c-.79.54-.96,1.34-.38,1.78l30.17,22.22c.58.43,1.69.33,2.48-.22Z"/>
                <path class="cls-68" d="m397.33,172.46l-5.36-3.8-.09.07-16.86-5.81-46.57,33.05c-.22-.21-.39-.43-.65-.62-4.25-3.02-12.65-1.95-18.77,2.39-6.11,4.34-7.62,10.3-3.37,13.32.26.18.58.31.87.46l-44.8,31.79,6.45,13.2-.13.09,5.37,3.81,123.92-87.94Z"/>
                <path class="cls-68" d="m242.51,213.31c4.17-2.96,2.68-8.82-3.32-13.08-6-4.26-14.26-5.32-18.43-2.35-4.17,2.96-2.68,8.82,3.32,13.08,6.01,4.26,14.26,5.32,18.44,2.36Z"/>
                <path class="cls-68" d="m244.76,238.45l7.93-1.73-1.06-2.45h0s-.19-.44-.19-.44c-.8-1.84-3.54-2.87-6.13-2.31-2.59.57-4.05,2.51-3.25,4.35l1.25,2.89,1.44-.32h0Z"/>
                <path class="cls-68" d="m262.17,228.36h-1.95s0-.83,0-.83h1.95v.83Zm1.21.91l-.04-2.82h1.29s-.07-6.38-.07-6.38c-.02-1.92-2.24-3.47-4.94-3.45-2.71.01-4.88,1.58-4.86,3.5l.07,6.38h1.12s.08,0,.08,0l.03,2.82,7.32-.04Zm-4.22-1.74v.83h-1.94s0-.83,0-.83h1.95Z"/>
              </g>
              <g>
                <path class="cls-50" d="m272.67,210.21l81.08-56.42c.8-.56.96-1.35.38-1.77l-30.16-22.23c-.57-.44-1.7-.33-2.48.22l-81.08,56.42c-.79.54-.96,1.34-.38,1.78l30.17,22.22c.58.43,1.69.33,2.48-.22Z"/>
                <path class="cls-50" d="m398.03,171.87l-5.36-3.8-.09.07-16.86-5.81-46.57,33.05c-.22-.21-.39-.43-.65-.62-4.25-3.02-12.65-1.95-18.77,2.39-6.11,4.34-7.62,10.3-3.37,13.32.26.18.58.31.87.46l-44.8,31.79,6.45,13.2-.13.09,5.37,3.81,123.92-87.94Z"/>
                <path class="cls-50" d="m243.21,212.73c4.17-2.96,2.68-8.82-3.32-13.08-6-4.26-14.26-5.32-18.43-2.35-4.17,2.96-2.68,8.82,3.32,13.08,6.01,4.26,14.26,5.32,18.44,2.36Z"/>
                <path class="cls-50" d="m245.45,237.87l7.93-1.73-1.06-2.45h0s-.19-.44-.19-.44c-.8-1.84-3.54-2.87-6.13-2.31-2.59.57-4.05,2.51-3.25,4.35l1.25,2.89,1.44-.32h0Z"/>
                <path class="cls-50" d="m262.86,227.77h-1.95s0-.83,0-.83h1.95v.83Zm1.21.91l-.04-2.82h1.29s-.07-6.38-.07-6.38c-.02-1.92-2.24-3.47-4.94-3.45-2.71.01-4.88,1.58-4.86,3.5l.07,6.38h1.12s.08,0,.08,0l.03,2.82,7.32-.04Zm-4.22-1.74v.83h-1.94s0-.83,0-.83h1.95Z"/>
              </g>
              <g>
                <path class="cls-34" d="m273.37,209.63l81.08-56.42c.8-.56.96-1.35.38-1.77l-30.16-22.23c-.57-.44-1.7-.33-2.48.22l-81.08,56.42c-.79.54-.96,1.34-.38,1.78l30.17,22.22c.58.42,1.69.33,2.48-.22Z"/>
                <path class="cls-34" d="m398.72,171.29l-5.36-3.8-.09.06-16.86-5.81-46.57,33.05c-.22-.21-.39-.43-.65-.62-4.25-3.02-12.65-1.95-18.77,2.39-6.11,4.34-7.62,10.3-3.37,13.32.26.18.58.31.87.46l-44.8,31.79,6.45,13.2-.13.09,5.37,3.81,123.92-87.94Z"/>
                <path class="cls-34" d="m243.91,212.14c4.17-2.96,2.68-8.82-3.32-13.08-6-4.26-14.26-5.32-18.43-2.35-4.17,2.96-2.68,8.82,3.32,13.08,6.01,4.26,14.26,5.32,18.44,2.36Z"/>
                <path class="cls-34" d="m246.15,237.28l7.93-1.73-1.06-2.45h0s-.19-.44-.19-.44c-.8-1.84-3.54-2.87-6.13-2.31-2.59.57-4.05,2.51-3.25,4.35l1.25,2.89,1.44-.32h0Z"/>
                <path class="cls-34" d="m263.56,227.19h-1.95s0-.83,0-.83h1.95v.83Zm1.21.91l-.04-2.82h1.29s-.07-6.38-.07-6.38c-.02-1.92-2.24-3.47-4.94-3.45-2.71.01-4.88,1.58-4.86,3.5l.07,6.38h1.12s.08,0,.08,0l.03,2.82,7.32-.04Zm-4.22-1.74v.83h-1.94s0-.83,0-.83h1.95Z"/>
              </g>
              <g>
                <path class="cls-42" d="m274.06,209.04l81.08-56.42c.8-.56.96-1.35.38-1.77l-30.16-22.23c-.57-.44-1.7-.33-2.48.22l-81.08,56.42c-.79.54-.96,1.34-.38,1.78l30.17,22.22c.58.42,1.69.33,2.48-.22Z"/>
                <path class="cls-42" d="m399.42,170.7l-5.36-3.8-.09.06-16.86-5.81-46.57,33.05c-.22-.2-.39-.43-.65-.62-4.25-3.02-12.65-1.95-18.77,2.39-6.11,4.34-7.62,10.3-3.37,13.32.26.18.58.31.87.46l-44.8,31.79,6.45,13.2-.13.09,5.37,3.81,123.92-87.94Z"/>
                <path class="cls-42" d="m244.6,211.56c4.17-2.96,2.68-8.82-3.32-13.08-6-4.26-14.26-5.32-18.43-2.35-4.17,2.96-2.68,8.82,3.32,13.08,6.01,4.26,14.26,5.32,18.44,2.36Z"/>
                <path class="cls-42" d="m246.85,236.7l7.93-1.73-1.06-2.45h0s-.19-.44-.19-.44c-.8-1.84-3.54-2.87-6.13-2.31-2.59.56-4.04,2.51-3.25,4.35l1.25,2.89,1.44-.32h0Z"/>
                <path class="cls-42" d="m264.26,226.6h-1.95s0-.83,0-.83h1.95v.83Zm1.21.91l-.04-2.82h1.29s-.07-6.38-.07-6.38c-.02-1.92-2.24-3.47-4.94-3.45-2.71.01-4.88,1.58-4.86,3.5l.07,6.38h1.12s.08,0,.08,0l.03,2.82,7.32-.04Zm-4.22-1.74v.83h-1.94s0-.83,0-.83h1.95Z"/>
              </g>
              <g>
                <path class="cls-32" d="m274.76,208.46l81.08-56.42c.8-.56.96-1.35.38-1.77l-30.16-22.23c-.57-.44-1.7-.33-2.48.22l-81.08,56.42c-.79.54-.96,1.34-.38,1.78l30.17,22.22c.58.42,1.69.33,2.48-.22Z"/>
                <path class="cls-32" d="m400.12,170.12l-5.36-3.8-.09.06-16.86-5.81-46.57,33.05c-.22-.2-.39-.43-.65-.62-4.25-3.01-12.65-1.95-18.77,2.39-6.11,4.34-7.62,10.3-3.37,13.32.26.18.58.31.87.46l-44.8,31.79,6.45,13.2-.13.09,5.37,3.81,123.92-87.94Z"/>
                <path class="cls-32" d="m245.3,210.98c4.17-2.96,2.68-8.82-3.32-13.08-6-4.26-14.26-5.32-18.43-2.35-4.17,2.96-2.68,8.82,3.32,13.08,6.01,4.26,14.26,5.32,18.44,2.36Z"/>
                <path class="cls-32" d="m247.55,236.11l7.93-1.73-1.06-2.45h0s-.19-.44-.19-.44c-.8-1.84-3.54-2.87-6.13-2.31-2.59.56-4.04,2.51-3.25,4.35l1.25,2.89,1.45-.32h0Z"/>
                <path class="cls-32" d="m264.95,226.02h-1.95s0-.83,0-.83h1.95v.83Zm1.21.91l-.04-2.82h1.29s-.07-6.38-.07-6.38c-.02-1.92-2.24-3.47-4.94-3.45-2.71.01-4.88,1.58-4.86,3.5l.07,6.38h1.12s.08,0,.08,0l.03,2.82,7.32-.04Zm-4.22-1.74v.83h-1.94s0-.83,0-.83h1.95Z"/>
              </g>
              <g>
                <path class="cls-1" d="m275.46,207.87l81.08-56.42c.8-.56.96-1.35.38-1.77l-30.16-22.23c-.57-.44-1.7-.33-2.48.22l-81.08,56.42c-.79.54-.96,1.34-.38,1.78l30.17,22.22c.58.42,1.69.33,2.48-.22Z"/>
                <path class="cls-1" d="m400.81,169.53l-5.36-3.8-.09.06-16.86-5.81-46.57,33.05c-.22-.2-.39-.43-.65-.62-4.25-3.01-12.65-1.95-18.77,2.39-6.11,4.34-7.62,10.3-3.37,13.32.26.18.58.31.87.46l-44.8,31.79,6.45,13.2-.13.09,5.37,3.81,123.92-87.94Z"/>
                <path class="cls-1" d="m246,210.39c4.17-2.96,2.68-8.82-3.32-13.08-6-4.26-14.26-5.31-18.43-2.35-4.17,2.96-2.68,8.82,3.32,13.08,6.01,4.26,14.26,5.32,18.44,2.36Z"/>
                <path class="cls-1" d="m248.24,235.53l7.93-1.73-1.06-2.45h0s-.19-.44-.19-.44c-.8-1.84-3.54-2.87-6.13-2.31-2.59.56-4.04,2.51-3.25,4.35l1.25,2.89,1.45-.32h0Z"/>
                <path class="cls-1" d="m265.65,225.43h-1.95s0-.83,0-.83h1.95v.83Zm1.21.91l-.04-2.82h1.29s-.07-6.38-.07-6.38c-.02-1.92-2.24-3.47-4.94-3.45-2.71.01-4.88,1.58-4.86,3.5l.07,6.38h1.12s.08,0,.08,0l.03,2.82,7.32-.04Zm-4.22-1.74v.83h-1.94s0-.83,0-.83h1.95Z"/>
              </g>
              <g>
                <path class="cls-36" d="m276.15,207.29l81.08-56.42c.8-.56.96-1.35.38-1.77l-30.16-22.23c-.57-.44-1.7-.33-2.48.22l-81.08,56.42c-.79.54-.96,1.34-.38,1.78l30.17,22.22c.58.42,1.69.33,2.48-.22Z"/>
                <path class="cls-36" d="m401.51,168.95l-5.36-3.8-.09.06-16.86-5.81-46.57,33.05c-.22-.2-.39-.43-.65-.62-4.25-3.01-12.65-1.95-18.77,2.39-6.11,4.34-7.62,10.3-3.37,13.32.26.18.58.31.87.46l-44.8,31.79,6.45,13.2-.13.09,5.37,3.81,123.92-87.94Z"/>
                <path class="cls-36" d="m246.7,209.81c4.17-2.96,2.68-8.82-3.32-13.08-6-4.26-14.26-5.31-18.43-2.35-4.17,2.96-2.68,8.82,3.32,13.08,6.01,4.26,14.26,5.32,18.44,2.36Z"/>
                <path class="cls-36" d="m248.94,234.94l7.93-1.73-1.06-2.45h0s-.19-.44-.19-.44c-.8-1.84-3.54-2.87-6.13-2.31-2.59.56-4.04,2.51-3.25,4.35l1.25,2.89,1.45-.32h0Z"/>
                <path class="cls-36" d="m266.35,224.85h-1.95s0-.83,0-.83h1.95v.83Zm1.21.91l-.04-2.82h1.29s-.07-6.38-.07-6.38c-.02-1.92-2.24-3.47-4.94-3.45-2.71.01-4.88,1.58-4.86,3.5l.07,6.38h1.12s.08,0,.08,0l.03,2.82,7.32-.04Zm-4.22-1.74v.83h-1.94s0-.83,0-.83h1.95Z"/>
              </g>
            </g>
            <g>
              <path class="cls-15" d="m327.45,126.87c-.57-.44-1.7-.33-2.48.22l-81.08,56.42c-.79.54-.96,1.34-.38,1.78l30.17,22.22c.58.42,1.69.33,2.48-.22l81.08-56.42c.8-.56.96-1.35.38-1.77l-30.16-22.23Z"/>
              <g>
                <polygon class="cls-18" points="277.55 197.7 273.14 200.76 274.76 201.96 279.18 198.89 277.55 197.7"/>
                <polygon class="cls-18" points="282.98 193.91 278.58 196.97 280.21 198.17 284.62 195.11 282.98 193.91"/>
                <polygon class="cls-18" points="288.44 190.12 284.03 193.17 285.66 194.38 290.07 191.31 288.44 190.12"/>
                <polygon class="cls-18" points="293.89 186.32 289.47 189.39 291.11 190.59 295.53 187.52 293.89 186.32"/>
                <polygon class="cls-18" points="299.33 182.53 294.94 185.6 296.57 186.8 300.97 183.72 299.33 182.53"/>
                <polygon class="cls-18" points="304.78 178.75 300.38 181.81 302.01 183 306.42 179.94 304.78 178.75"/>
                <polygon class="cls-18" points="310.25 174.95 305.83 178.01 307.47 179.21 311.86 176.14 310.25 174.95"/>
                <polygon class="cls-18" points="315.68 171.16 311.28 174.22 312.91 175.41 317.32 172.35 315.68 171.16"/>
                <polygon class="cls-18" points="321.13 167.37 316.72 170.43 318.37 171.62 322.77 168.55 321.13 167.37"/>
                <polygon class="cls-18" points="326.58 163.57 322.18 166.63 323.81 167.83 328.21 164.76 326.58 163.57"/>
                <polygon class="cls-18" points="332.02 159.78 327.62 162.84 329.26 164.04 333.66 160.98 332.02 159.78"/>
                <polygon class="cls-18" points="337.48 155.98 333.07 159.05 334.71 160.25 339.11 157.19 337.48 155.98"/>
                <polygon class="cls-18" points="342.93 152.19 338.53 155.26 340.15 156.46 344.57 153.39 342.93 152.19"/>
                <polygon class="cls-18" points="348.38 148.39 343.97 151.47 345.6 152.66 350.01 149.6 348.38 148.39"/>
              </g>
              <g>
                <polygon class="cls-18" points="270.16 188.38 263.03 193.34 266.29 195.74 273.43 190.77 270.16 188.38"/>
                <polygon class="cls-18" points="275.6 184.59 271.2 187.65 274.46 190.05 278.87 186.98 275.6 184.59"/>
                <polygon class="cls-18" points="281.06 180.79 276.65 183.86 279.91 186.26 284.31 183.2 281.06 180.79"/>
                <polygon class="cls-18" points="286.5 177 282.09 180.07 285.35 182.46 289.77 179.4 286.5 177"/>
                <polygon class="cls-18" points="291.94 173.21 287.53 176.28 290.81 178.68 295.22 175.61 291.94 173.21"/>
                <polygon class="cls-18" points="297.39 169.43 293 172.49 296.26 174.88 300.66 171.81 297.39 169.43"/>
                <polygon class="cls-18" points="302.84 165.62 298.45 168.69 301.7 171.09 306.12 168.02 302.84 165.62"/>
                <polygon class="cls-18" points="308.3 161.84 303.89 164.9 307.16 167.31 311.56 164.22 308.3 161.84"/>
                <polygon class="cls-18" points="313.75 158.05 309.34 161.11 312.6 163.5 317 160.44 313.75 158.05"/>
                <polygon class="cls-18" points="319.2 154.25 314.79 157.32 318.05 159.72 322.46 156.65 319.2 154.25"/>
                <polygon class="cls-18" points="324.65 150.46 320.24 153.53 323.51 155.92 327.91 152.85 324.65 150.46"/>
                <polygon class="cls-18" points="338.26 140.98 325.69 149.73 328.96 152.13 341.53 143.38 338.26 140.98"/>
              </g>
              <g>
                <polygon class="cls-18" points="261.23 181.83 254.1 186.79 257.37 189.19 264.5 184.22 261.23 181.83"/>
                <polygon class="cls-18" points="266.68 178.04 262.26 181.11 265.54 183.5 269.93 180.43 266.68 178.04"/>
                <polygon class="cls-18" points="272.14 174.25 267.72 177.31 270.99 179.71 275.38 176.64 272.14 174.25"/>
                <polygon class="cls-18" points="277.58 170.45 273.17 173.53 276.43 175.92 280.85 172.85 277.58 170.45"/>
                <polygon class="cls-18" points="283.02 166.67 278.61 169.72 281.88 172.13 286.3 169.06 283.02 166.67"/>
                <polygon class="cls-18" points="288.47 162.87 284.07 165.94 287.33 168.33 291.74 165.26 288.47 162.87"/>
                <polygon class="cls-18" points="293.92 159.08 289.51 162.15 292.78 164.54 297.19 161.47 293.92 159.08"/>
                <polygon class="cls-18" points="299.38 155.29 294.97 158.35 298.24 160.75 302.65 157.68 299.38 155.29"/>
                <polygon class="cls-18" points="304.82 151.49 300.42 154.56 303.67 156.95 308.08 153.89 304.82 151.49"/>
                <polygon class="cls-18" points="310.27 147.7 305.87 150.77 309.13 153.17 313.53 150.1 310.27 147.7"/>
                <polygon class="cls-18" points="315.72 143.91 311.32 146.98 314.58 149.37 318.98 146.3 315.72 143.91"/>
                <polygon class="cls-18" points="329.34 134.43 316.76 143.18 320.03 145.58 332.6 136.83 329.34 134.43"/>
              </g>
              <g>
                <polygon class="cls-18" points="271.89 193.56 267.48 196.62 270.75 199.02 275.17 195.95 271.89 193.56"/>
                <polygon class="cls-18" points="277.34 189.76 272.94 192.82 276.2 195.22 280.6 192.16 277.34 189.76"/>
                <polygon class="cls-18" points="282.79 185.97 278.39 189.04 281.65 191.43 286.06 188.36 282.79 185.97"/>
                <polygon class="cls-18" points="288.25 182.18 283.83 185.25 287.1 187.64 291.5 184.57 288.25 182.18"/>
                <polygon class="cls-18" points="293.68 178.38 289.29 181.45 292.54 183.85 296.95 180.78 293.68 178.38"/>
                <polygon class="cls-18" points="299.13 174.6 294.73 177.66 297.99 180.05 302.39 176.99 299.13 174.6"/>
                <polygon class="cls-18" points="304.58 170.79 300.18 173.87 303.43 176.27 307.85 173.2 304.58 170.79"/>
                <polygon class="cls-18" points="310.03 167.01 305.63 170.07 308.9 172.46 313.29 169.4 310.03 167.01"/>
                <polygon class="cls-18" points="315.49 163.21 311.08 166.28 314.35 168.68 318.75 165.61 315.49 163.21"/>
                <polygon class="cls-18" points="320.94 159.42 316.53 162.49 319.79 164.89 324.2 161.81 320.94 159.42"/>
                <polygon class="cls-18" points="326.38 155.63 321.98 158.69 325.24 161.1 329.65 158.03 326.38 155.63"/>
                <polygon class="cls-18" points="331.83 151.84 327.42 154.9 330.69 157.3 335.1 154.24 331.83 151.84"/>
                <polygon class="cls-18" points="337.27 148.04 332.88 151.11 336.14 153.51 340.54 150.44 337.27 148.04"/>
                <polygon class="cls-18" points="342.73 144.26 332.88 151.11 336.14 153.51 346 146.65 342.73 144.26"/>
              </g>
              <g>
                <polygon class="cls-18" points="254.05 180.46 249.65 183.52 252.91 185.91 257.3 182.84 254.05 180.46"/>
                <polygon class="cls-18" points="259.5 176.66 255.09 179.73 258.35 182.12 262.74 179.06 259.5 176.66"/>
                <polygon class="cls-18" points="264.94 172.86 260.54 175.93 263.81 178.32 268.2 175.26 264.94 172.86"/>
                <polygon class="cls-18" points="270.39 169.07 265.98 172.14 269.25 174.54 273.64 171.47 270.39 169.07"/>
                <polygon class="cls-18" points="275.84 165.28 271.44 168.35 274.7 170.74 279.1 167.68 275.84 165.28"/>
                <polygon class="cls-18" points="281.3 161.48 276.88 164.57 280.14 166.95 284.55 163.89 281.3 161.48"/>
                <polygon class="cls-18" points="292.17 153.91 287.78 156.97 291.04 159.36 295.45 156.3 292.17 153.91"/>
                <polygon class="cls-18" points="297.64 150.11 293.23 153.18 296.49 155.57 300.88 152.52 297.64 150.11"/>
                <polygon class="cls-18" points="303.09 146.32 298.68 149.39 301.94 151.78 306.34 148.72 303.09 146.32"/>
                <polygon class="cls-18" points="308.54 142.53 304.14 145.59 307.39 147.99 311.79 144.93 308.54 142.53"/>
                <polygon class="cls-18" points="313.98 138.73 309.56 141.8 312.85 144.21 317.24 141.13 313.98 138.73"/>
                <polygon class="cls-18" points="319.44 134.94 315.02 138.01 318.29 140.41 322.7 137.34 319.44 134.94"/>
                <polygon class="cls-18" points="324.88 131.16 320.48 134.22 323.72 136.61 328.14 133.54 324.88 131.16"/>
                <polygon class="cls-18" points="308.54 142.53 265.98 172.14 269.25 174.54 311.79 144.93 308.54 142.53"/>
              </g>
              <g>
                <polygon class="cls-18" points="268.41 183.21 258.57 190.06 261.83 192.47 271.67 185.6 268.41 183.21"/>
                <polygon class="cls-18" points="273.87 179.42 269.47 182.48 272.73 184.88 277.12 181.82 273.87 179.42"/>
                <polygon class="cls-18" points="279.3 175.62 274.91 178.69 278.17 181.09 282.58 178.01 279.3 175.62"/>
                <polygon class="cls-18" points="284.76 171.83 280.36 174.9 283.62 177.29 288.02 174.22 284.76 171.83"/>
                <polygon class="cls-18" points="290.2 168.04 285.82 171.11 289.06 173.5 293.47 170.43 290.2 168.04"/>
                <polygon class="cls-18" points="295.66 164.25 291.25 167.32 294.52 169.71 298.92 166.64 295.66 164.25"/>
                <polygon class="cls-18" points="301.1 160.46 296.71 163.52 299.97 165.92 304.37 162.85 301.1 160.46"/>
                <polygon class="cls-18" points="306.56 156.66 302.15 159.73 305.42 162.12 309.82 159.06 306.56 156.66"/>
                <polygon class="cls-18" points="312 152.87 307.6 155.93 310.87 158.34 315.27 155.27 312 152.87"/>
                <polygon class="cls-18" points="317.46 149.08 313.05 152.14 316.32 154.54 320.73 151.47 317.46 149.08"/>
                <polygon class="cls-18" points="322.89 145.29 318.5 148.36 321.77 150.75 326.16 147.68 322.89 145.29"/>
                <polygon class="cls-18" points="328.36 141.49 323.95 144.56 327.21 146.96 331.61 143.89 328.36 141.49"/>
                <polygon class="cls-18" points="333.8 137.7 323.95 144.56 327.21 146.96 337.07 140.1 333.8 137.7"/>
              </g>
            </g>
            <g>
              <polygon class="cls-48" points="277.6 256.89 272.23 253.08 396.15 165.15 401.51 168.95 277.6 256.89"/>
              <path class="cls-46" d="m331.98,191.83c4.24,3.01,2.73,8.98-3.39,13.32-6.11,4.34-14.52,5.4-18.75,2.4-4.25-3.02-2.74-8.98,3.37-13.32,6.12-4.34,14.52-5.41,18.77-2.39Z"/>
              <path class="cls-48" d="m331.74,194.48c3.49,2.48,2.25,7.37-2.77,10.94-5.02,3.56-11.92,4.44-15.4,1.97-3.49-2.48-2.24-7.37,2.78-10.93,5.02-3.57,11.92-4.44,15.4-1.97Z"/>
              <polygon class="cls-46" points="272.5 253.27 265.91 239.79 379.2 159.39 396.42 165.33 272.5 253.27"/>
              <polygon class="cls-18" points="275.31 248.57 271.13 239.7 378.79 163.3 389.79 167.33 275.31 248.57"/>
            </g>
            <g>
              <g>
                <path class="cls-46" d="m228.26,207.45c-6-4.26-7.49-10.12-3.32-13.08,4.18-2.96,12.43-1.91,18.43,2.35,6.01,4.26,7.49,10.12,3.32,13.08-4.18,2.96-12.43,1.91-18.44-2.36Z"/>
                <path class="cls-48" d="m229.6,207.05c-5.44-3.86-6.79-9.17-3.01-11.85,3.78-2.68,11.26-1.73,16.7,2.13,5.44,3.86,6.79,9.17,3,11.85-3.78,2.68-11.26,1.73-16.7-2.13Z"/>
                <path class="cls-18" d="m233.1,206.16c-4.23-3.01-5.28-7.14-2.34-9.22,2.94-2.09,8.76-1.34,12.99,1.66,4.24,3,5.28,7.13,2.34,9.22-2.94,2.09-8.76,1.34-13-1.66Z"/>
              </g>
              <polygon class="cls-46" points="241.76 206.65 242.24 206.3 246.53 209.34 246.05 209.69 241.76 206.65"/>
              <path class="cls-53" d="m235.1,202.82c-.48-.34-.48-.9,0-1.24h0c.48-.34,1.27-.34,1.75,0l5.54,3.94c.48.34.48.9,0,1.24h0c-.48.34-1.27.34-1.75,0l-5.54-3.94Z"/>
            </g>
            <g>
              <path class="cls-57" d="m249.49,228.02c-2.59.56-4.04,2.51-3.25,4.35l1.25,2.89,9.37-2.05-1.25-2.89c-.8-1.84-3.54-2.87-6.13-2.31Z"/>
              <path class="cls-14" d="m249.49,228.02c-2.59.56-4.04,2.51-3.25,4.35l1.25,2.89,9.37-2.05-1.25-2.89c-.8-1.84-3.54-2.87-6.13-2.31Z"/>
              <path class="cls-18" d="m250.63,228.82c-2.19.47-3.42,2.12-2.75,3.68l1.06,2.44,7.93-1.73-1.06-2.44c-.67-1.55-2.99-2.42-5.18-1.95Z"/>
            </g>
            <g>
              <g>
                <path class="cls-18" d="m260.24,225.8l7.32-.04-.05-4.58-7.31.04.05,4.58Zm4.16-1.78h1.95v.83h-1.95s0-.83,0-.83Zm-3.01,0h1.95v.83h-1.94s0-.83,0-.83Z"/>
                <g>
                  <path class="cls-14" d="m268.74,216.55c-.02-1.92-2.24-3.47-4.94-3.45-2.71.01-4.88,1.58-4.86,3.5l.07,6.38,9.81-.06-.07-6.38Z"/>
                  <path class="cls-18" d="m268.75,217.28c-.02-1.7-1.98-3.07-4.38-3.06-2.39.01-4.32,1.4-4.3,3.11l.06,5.64,8.68-.05-.06-5.64Z"/>
                </g>
              </g>
              <path class="cls-46" d="m260.84,216.45c0-1.19,1.36-2.15,3.03-2.15,1.68,0,3.04.96,3.03,2.15,0,1.19-1.36,2.15-3.03,2.15-1.67,0-3.03-.96-3.03-2.15Z"/>
            </g>
          </g>
        </g>
      </g>
    </g>
  </g>
</svg>