<?xml version="1.0" encoding="UTF-8"?>
<svg id="Layer_1" data-name="Layer 1" xmlns="http://www.w3.org/2000/svg" viewBox="0 0 145.77 166.9">
  <defs>
    <style>
      .cls-1, .cls-2 {
        fill: #fafaf8;
      }

      .cls-3 {
        fill: #fff;
      }

      .cls-4 {
        fill: #939598;
      }

      .cls-5 {
        fill: none;
      }

      .cls-5, .cls-2 {
        stroke: #26281e;
        stroke-linecap: round;
        stroke-linejoin: round;
        stroke-width: .72px;
      }

      .cls-6 {
        fill: #e4e5e5;
      }

      .cls-7 {
        fill: #def0fa;
      }

      .cls-8 {
        fill: #26281e;
      }
    </style>
  </defs>
  <path class="cls-4" d="m65.28,49.83l.06-.06.1.11-22.35-25.52v-.05s1.66-6.74,1.66-6.74l-.05-.18c-9.35-2.2-19.19-.23-26.98,5.4-7.78,5.61-12.75,14.33-13.6,23.89l.16.18,6.9.6h.05l17.18,29.08h-.01s.03.03.05.06c.84,1.35,2.2,2.29,3.76,2.6,1.6.31,3.23-.04,4.55-.98h.01s-.03.04-.03.04l27.63-19.93-.08.05-.06-.09c1.31-.96,2.16-2.4,2.37-4.01.2-1.6-.29-3.22-1.33-4.45Z"/>
  <g>
    <path class="cls-4" d="m76.02,73.82V4.13h69.76v162.77H52.77v-69.76c12.77-.04,23.1-10.47,23.1-23.33h.15Zm-5.28,52.47h-.15l-.15.15h-.3l-.15.15h-.15l-.15.15h-.15l-.15.15h-.15l-.15.15-.15.15h-.15l-.15.15-.15.15-.15.15-.15.15-.15.15v.15l-.15.15-.15.15v.3h-.15v1.06l.15.15.15.15v.15l.15.15.15.15.15.15h.15v.15h.15l.15.15h.3l.15.15h.3l.15.15h2.72l.15-.15h.3l.15-.15h.45l.15-.15h.15l.15-.15h.15l.15-.15h.15l.15-.15.15-.15h.15l.15-.15.15-.15h.15l.15-.15v-.15h.15l.15-.15v-.15l.15-.15.15-.15v-.15l.15-.15v-.45h.15v-.3l-.15-.15v-.3l-.15-.15v-.15h-.15v-.15l-.15-.15-.15-.15-.15-.15h-.15l-.15-.15h-.15v-.15h-.3l-.15-.15h-.45l-.3-.15h-1.96l-.15.15h-.6l-.15.15h-.15Zm61.75-42.58l4.08-8.46-7.7-3.77-4.08,8.46,7.7,3.77Zm-7.4,19.06l6.79-13.93-4.68-2.26-6.63,13.59h-.01l-.3.3-.3.3-.3.15-.3.3-.3.3-.3.45-.3.3-.3.3-.45.45-.3.3-.3.45-.3.45-.3.45-.45.45-.3.45-.3.45-.3.6-.3.45-.45.45-.3.6-.3.6-.3.45-.3.6-.3.6-.3.45-.3.6-.3.6-.3.6-.3.6-.3.6-.3.6-.3.6-.3.6-.15.6-.3.6-.15.6-.3.6-.15.6-.3.6-.15.45-.15.6-.15.6-.3.6-.15.45-.15.6-.15.6v.45l-.15.45-.15.6v.45l-.15.45v.45l-.15.45v1.47l-6.79,13.93,4.68,2.26,6.63-13.59h.01l.3-.3.3-.15.3-.3.3-.3.3-.3.3-.3.3-.3.45-.45.3-.3.3-.45.3-.45.3-.45.45-.3.3-.45.3-.6.3-.45.45-.45.3-.6.3-.45.3-.6.3-.45.3-.6.3-.45.45-.6.3-.6.3-.6.3-.6.3-.6.3-.6.15-.6.3-.6.3-.6.3-.6.15-.45.3-.6.3-.6.15-.6.3-.6.15-.6.15-.6.3-.6.15-.6.15-.45.15-.6.15-.6.15-.45.15-.6v-.45l.15-.45.15-.6v-.45l.15-.45v-1.93Zm-32.46,25.33l19.02-38.95-13.44-6.34-18.87,38.8,13.29,6.49Zm3.62,29.74l4.23-8.46-7.7-3.77-4.08,8.61,7.55,3.62Z"/>
    <path class="cls-2" d="m72.24,70.04V.36h69.76v162.77H48.99v-69.76c12.77-.04,23.1-10.47,23.1-23.33h.15Zm-5.28,52.47h-.15l-.15.15h-.3l-.15.15h-.15l-.15.15h-.15l-.15.15h-.15l-.15.15-.15.15h-.15l-.15.15-.15.15-.15.15-.15.15-.15.15v.15l-.15.15-.15.15v.3h-.15v1.06l.15.15.15.15v.15l.15.15.15.15.15.15h.15v.15h.15l.15.15h.3l.15.15h.3l.15.15h2.72l.15-.15h.3l.15-.15h.45l.15-.15h.15l.15-.15h.15l.15-.15h.15l.15-.15.15-.15h.15l.15-.15.15-.15h.15l.15-.15v-.15h.15l.15-.15v-.15l.15-.15.15-.15v-.15l.15-.15v-.45h.15v-.3l-.15-.15v-.3l-.15-.15v-.15h-.15v-.15l-.15-.15-.15-.15-.15-.15h-.15l-.15-.15h-.15v-.15h-.3l-.15-.15h-.45l-.3-.15h-1.96l-.15.15h-.6l-.15.15h-.15Zm61.75-42.58l4.08-8.46-7.7-3.77-4.08,8.46,7.7,3.77Zm-7.4,19.06l6.79-13.93-4.68-2.26-6.63,13.59h-.01l-.3.3-.3.3-.3.15-.3.3-.3.3-.3.45-.3.3-.3.3-.45.45-.3.3-.3.45-.3.45-.3.45-.45.45-.3.45-.3.45-.3.6-.3.45-.45.45-.3.6-.3.6-.3.45-.3.6-.3.6-.3.45-.3.6-.3.6-.3.6-.3.6-.3.6-.3.6-.3.6-.3.6-.15.6-.3.6-.15.6-.3.6-.15.6-.3.6-.15.45-.15.6-.15.6-.3.6-.15.45-.15.6-.15.6v.45l-.15.45-.15.6v.45l-.15.45v.45l-.15.45v1.47l-6.79,13.93,4.68,2.26,6.63-13.59h.01l.3-.3.3-.15.3-.3.3-.3.3-.3.3-.3.3-.3.45-.45.3-.3.3-.45.3-.45.3-.45.45-.3.3-.45.3-.6.3-.45.45-.45.3-.6.3-.45.3-.6.3-.45.3-.6.3-.45.45-.6.3-.6.3-.6.3-.6.3-.6.3-.6.15-.6.3-.6.3-.6.3-.6.15-.45.3-.6.3-.6.15-.6.3-.6.15-.6.15-.6.3-.6.15-.6.15-.45.15-.6.15-.6.15-.45.15-.6v-.45l.15-.45.15-.6v-.45l.15-.45v-1.93Zm-32.46,25.33l19.02-38.95-13.44-6.34-18.87,38.8,13.29,6.49Zm3.62,29.74l4.23-8.46-7.7-3.77-4.08,8.61,7.55,3.62Z"/>
  </g>
  <g>
    <path class="cls-1" d="m7.43,43.56c.67-7.51,4.57-14.37,10.69-18.79,6.11-4.42,13.84-5.96,21.19-4.24h.03s-.01.06-.01.06l22.25,25.4-.06.06c1.04,1.23,1.54,2.86,1.33,4.45-.2,1.61-1.06,3.06-2.37,4.01l.06.09-27.53,19.86h-.01c-1.32.93-2.96,1.28-4.55.97-1.56-.31-2.92-1.26-3.76-2.6L7.47,43.69h-.05v-.14Z"/>
    <path class="cls-3" d="m40.94,13.62l.05.18-1.65,6.74h-.03c-7.35-1.74-15.07-.19-21.19,4.23-6.13,4.42-10.03,11.27-10.69,18.79v.14s-6.91-.6-6.91-.6l-.16-.18c.86-9.56,5.83-18.28,13.6-23.89,7.79-5.62,17.63-7.6,26.98-5.4Z"/>
    <path class="cls-8" d="m24.68,73.19c-.12,0-.24-.06-.31-.18L7.16,43.88c-.1-.17-.04-.39.13-.49.17-.1.39-.04.49.13l17.21,29.14c.1.17.04.39-.13.49-.06.03-.12.05-.18.05Z"/>
    <path class="cls-8" d="m60.48,54.89c-.11,0-.22-.05-.29-.15-.12-.16-.08-.39.08-.5,1.22-.89,2.03-2.27,2.22-3.77.19-1.49-.27-3.02-1.25-4.18-.13-.15-.11-.38.04-.51.15-.13.38-.11.51.04,1.11,1.31,1.63,3.04,1.42,4.73-.21,1.7-1.13,3.25-2.51,4.26-.06.05-.14.07-.21.07Z"/>
    <path class="cls-8" d="m.36,43.27s-.02,0-.03,0c-.2-.02-.34-.19-.33-.39.87-9.67,5.88-18.47,13.75-24.15,7.88-5.69,17.82-7.68,27.27-5.46.19.05.31.24.27.43-.05.19-.24.31-.43.27-9.25-2.18-18.97-.23-26.68,5.34C6.47,24.87,1.57,33.49.72,42.95c-.02.19-.17.33-.36.33Z"/>
    <path class="cls-8" d="m7.43,43.92s-.02,0-.03,0c-.2-.02-.34-.19-.33-.39.68-7.63,4.63-14.57,10.84-19.05,6.2-4.48,14.03-6.05,21.48-4.3.19.05.31.24.27.43-.05.19-.24.31-.43.27-7.25-1.7-14.86-.18-20.9,4.18-6.04,4.36-9.89,11.11-10.55,18.53-.02.19-.17.33-.36.33Z"/>
    <path class="cls-8" d="m61.67,46.47c-.1,0-.2-.04-.27-.12l-.1-.11-22.25-25.41c-.13-.15-.12-.38.03-.51.15-.13.38-.12.51.03l22.34,25.52c.13.15.12.38-.03.51-.07.06-.15.09-.24.09Z"/>
    <path class="cls-8" d="m32.98,74.86c-.09,0-.18-.04-.26-.11-.14-.14-.13-.37,0-.52l.03-.03,27.66-19.95c.17-.11.39-.06.5.1.11.17.07.39-.1.5l-.08.05-27.52,19.85c-.07.07-.16.1-.24.1Z"/>
    <path class="cls-8" d="m29.6,75.91c-.41,0-.82-.04-1.23-.12-1.65-.33-3.11-1.34-4-2.77,0,0-.06-.08-.07-.09-.09-.18-.02-.39.16-.48.17-.09.37-.03.47.13.02.02.04.05.05.06.79,1.26,2.07,2.15,3.53,2.44,1.51.3,3.03-.03,4.27-.92.16-.12.39-.08.5.08.12.16.08.39-.08.5-1.07.77-2.32,1.16-3.6,1.16Z"/>
    <path class="cls-8" d="m7.47,44.05l-6.98-.61c-.2-.02-.34-.19-.33-.39.02-.2.19-.34.39-.33l6.9.6c.19.02.36.18.35.37,0,.19-.14.34-.33.34Z"/>
    <path class="cls-8" d="m39.69,20.63l-.36-.04-.35-.09,1.66-6.79c.05-.19.24-.31.44-.26.19.05.31.24.26.44l-1.65,6.74Z"/>
  </g>
  <g>
    <polygon class="cls-4" points="128.86 71.48 124.79 79.93 132.49 83.71 136.56 75.25 128.86 71.48"/>
    <polygon class="cls-4" points="127.2 86.57 120.57 100.16 120.56 100.16 120.26 100.47 119.96 100.77 119.65 100.92 119.35 101.22 119.05 101.52 118.75 101.97 118.45 102.28 118.14 102.58 117.69 103.03 117.39 103.33 117.09 103.79 116.78 104.24 116.48 104.69 116.03 105.15 115.73 105.6 115.43 106.05 115.12 106.66 114.82 107.11 114.37 107.56 114.07 108.17 113.76 108.77 113.46 109.22 113.16 109.83 112.86 110.43 112.56 110.88 112.25 111.49 111.95 112.09 111.65 112.7 111.35 113.3 111.05 113.9 110.74 114.51 110.44 115.11 110.14 115.71 109.99 116.32 109.69 116.92 109.54 117.53 109.24 118.13 109.08 118.73 108.78 119.34 108.63 119.79 108.48 120.4 108.33 121 108.03 121.6 107.88 122.06 107.73 122.66 107.57 123.26 107.57 123.72 107.42 124.17 107.27 124.77 107.27 125.23 107.12 125.68 107.12 126.13 106.97 126.59 106.97 127.04 106.97 127.49 106.97 127.79 106.97 128.06 100.18 141.99 102.06 142.91 104.86 144.25 111.49 130.66 111.5 130.66 111.8 130.36 112.1 130.21 112.41 129.91 112.71 129.61 113.01 129.3 113.31 129 113.61 128.7 114.07 128.25 114.37 127.94 114.67 127.49 114.97 127.04 115.27 126.59 115.73 126.28 116.03 125.83 116.33 125.23 116.63 124.77 117.09 124.32 117.39 123.72 117.69 123.26 117.99 122.66 118.29 122.21 118.6 121.6 118.9 121.15 119.35 120.55 119.65 119.94 119.96 119.34 120.26 118.73 120.56 118.13 120.86 117.53 121.01 116.92 121.31 116.32 121.62 115.71 121.92 115.11 122.07 114.66 122.37 114.05 122.67 113.45 122.82 112.85 123.13 112.24 123.28 111.64 123.43 111.03 123.73 110.43 123.88 109.83 124.03 109.37 124.18 108.77 124.33 108.17 124.48 107.71 124.64 107.11 124.64 106.66 124.79 106.2 124.94 105.6 124.94 105.15 125.09 104.69 125.09 104.24 125.09 103.79 125.09 103.48 125.09 103.03 125.09 102.77 131.88 88.84 128.76 87.33 127.2 86.57"/>
    <path class="cls-4" d="m111.65,89.14l-13.44-6.34-18.87,38.8,13.29,6.49,19.02-38.95Zm-1.66.6l-.2.43-1.16-.58.25-.39,1.11.54Z"/>
    <polygon class="cls-4" points="88.7 154.22 96.25 157.84 100.48 149.39 92.78 145.61 88.7 154.22"/>
    <path class="cls-4" d="m76.17,127.64v-.15l-.15-.15v-.15h-.15v-.15l-.15-.15-.15-.15-.15-.15h-.15l-.15-.15h-.15v-.15h-.3l-.15-.15h-.45l-.3-.15h-1.96l-.15.15h-.6l-.15.15h-.3l-.15.15h-.3l-.15.15h-.15l-.15.15h-.15l-.15.15h-.15l-.15.15-.15.15h-.15l-.15.15-.15.15-.15.15-.15.15-.15.15v.15l-.15.15-.15.15v.3h-.15v1.06l.15.15.15.15v.15l.15.15.15.15.15.15h.15v.15h.15l.15.15h.3l.15.15h.3l.15.15h2.72l.15-.15h.3l.15-.15h.45l.15-.15h.15l.15-.15h.15l.15-.15h.15l.15-.15.15-.15h.15l.15-.15.15-.15h.15l.15-.15v-.15h.15l.15-.15v-.15l.15-.15.15-.15v-.15l.15-.15v-.45h.15v-.3l-.15-.15v-.15Zm-2.11.91l-.91.15-.91.15-.15-.6,1.06-.18.76-.13.08.29.08.31Z"/>
  </g>
  <g>
    <polygon class="cls-7" points="132.79 71.48 128.71 79.93 121.01 76.16 125.09 67.7 132.79 71.48"/>
    <polygon class="cls-7" points="121.31 98.99 107.71 126.89 101.08 140.48 98.29 139.13 124.99 83.55 128.11 85.06 121.31 98.99"/>
    <polygon class="cls-6" points="103.2 124.28 116.8 96.39 123.43 82.8 124.99 83.55 98.29 139.13 96.4 138.21 103.2 124.28"/>
    <polygon class="cls-7" points="121.31 100.47 121.31 100.92 121.16 101.37 121.16 101.82 121.01 102.43 120.86 102.88 120.86 103.33 120.71 103.94 120.56 104.39 120.41 104.99 120.26 105.6 120.11 106.05 119.96 106.66 119.65 107.26 119.5 107.86 119.35 108.47 119.05 109.07 118.9 109.68 118.6 110.28 118.29 110.88 118.14 111.34 117.84 111.94 117.54 112.54 117.24 113.15 117.09 113.75 116.78 114.36 116.48 114.96 116.18 115.56 115.88 116.17 115.58 116.77 115.12 117.38 114.82 117.83 114.52 118.43 114.22 118.89 113.92 119.49 113.61 119.94 113.31 120.55 112.86 121 112.56 121.45 112.25 122.06 111.95 122.51 111.5 122.81 111.2 123.26 110.9 123.72 110.59 124.17 110.29 124.47 109.84 124.93 109.54 125.23 109.24 125.53 108.93 125.83 108.63 126.13 108.33 126.44 108.03 126.59 107.73 126.89 107.71 126.89 121.31 98.99 121.31 99.26 121.31 99.71 121.31 100.01 121.31 100.47"/>
    <polygon class="cls-7" points="116.8 96.39 103.2 124.28 103.2 124.02 103.2 123.72 103.2 123.26 103.2 122.81 103.35 122.36 103.35 121.91 103.5 121.45 103.5 121 103.65 120.4 103.8 119.94 103.8 119.49 103.95 118.89 104.1 118.28 104.25 117.83 104.55 117.22 104.71 116.62 104.86 116.02 105.01 115.56 105.31 114.96 105.46 114.36 105.76 113.75 105.91 113.15 106.22 112.54 106.37 111.94 106.67 111.34 106.97 110.73 107.27 110.13 107.57 109.52 107.88 108.92 108.18 108.32 108.48 107.71 108.78 107.11 109.08 106.66 109.39 106.05 109.69 105.45 109.99 104.99 110.29 104.39 110.59 103.79 111.05 103.33 111.35 102.88 111.65 102.28 111.95 101.82 112.25 101.37 112.71 100.92 113.01 100.47 113.31 100.01 113.61 99.56 113.92 99.26 114.37 98.8 114.67 98.5 114.97 98.2 115.27 97.75 115.58 97.45 115.88 97.14 116.18 96.99 116.48 96.69 116.78 96.39 116.8 96.39"/>
    <path class="cls-7" d="m89.49,91.87l-1.79,3.64-7.16,14.62-3.47,7.1,10.12,4.98,1.21.6,8.76-18.12,3.59-7.41,3.5-7.23h.01l1.76-3.65.2-.43-1.11-.54-3.74-1.82-6.33-3.07-3.77,7.7-1.77,3.64Zm18.38-6.51l-19.02,38.95-13.29-6.49,18.87-38.8,13.44,6.34Z"/>
    <polygon class="cls-7" points="97.16 104.69 88.4 122.81 87.19 122.21 77.07 117.22 80.55 110.13 87.71 95.51 89.49 91.87 91.27 88.24 95.04 80.53 101.37 83.6 105.11 85.43 104.86 85.82 106.01 86.4 104.25 90.05 104.24 90.05 100.74 97.28 97.16 104.69"/>
    <polygon class="cls-7" points="96.7 145.61 92.48 154.07 84.93 150.44 89 141.84 96.7 145.61"/>
    <polygon class="cls-7" points="72.54 124.32 72.54 124.47 72.39 124.47 72.39 124.62 72.39 124.77 72.39 124.93 72.24 125.08 72.24 125.23 72.09 125.38 71.94 125.53 71.94 125.68 71.79 125.83 71.64 125.83 71.64 125.98 71.49 126.13 71.34 126.13 71.19 126.28 71.04 126.44 70.88 126.44 70.73 126.59 70.58 126.74 70.43 126.74 70.28 126.89 70.13 126.89 69.98 127.04 69.83 127.04 69.37 124.93 70.28 124.77 70.2 124.46 72.39 124.02 72.54 124.17 72.54 124.32"/>
    <polygon class="cls-7" points="72.39 123.87 72.39 124.02 70.2 124.46 70.13 124.17 69.37 124.3 68.92 122.21 69.22 122.21 69.37 122.21 69.53 122.21 69.68 122.21 69.83 122.21 69.98 122.21 70.28 122.36 70.43 122.36 70.58 122.36 70.73 122.36 70.88 122.51 71.04 122.51 71.19 122.51 71.19 122.66 71.34 122.66 71.49 122.81 71.64 122.81 71.79 122.96 71.94 123.11 72.09 123.26 72.09 123.42 72.24 123.42 72.24 123.57 72.39 123.72 72.39 123.87"/>
    <polygon class="cls-7" points="69.37 124.93 69.83 127.04 69.68 127.19 69.53 127.19 69.22 127.19 69.07 127.34 68.92 127.34 68.77 127.34 68.62 127.49 68.32 127.49 68.17 127.49 68.02 127.49 67.86 127.49 67.56 127.49 67.41 127.49 67.26 127.49 67.11 127.49 66.96 127.49 66.66 127.49 66.51 127.49 66.35 127.49 66.2 127.49 66.05 127.49 65.9 127.49 65.75 127.34 65.6 127.34 65.45 127.34 65.3 127.19 65.15 127.19 65 127.19 64.84 127.04 64.69 127.04 64.69 126.89 64.54 126.89 64.39 126.74 64.24 126.59 64.09 126.44 64.09 126.28 63.94 126.13 63.79 125.98 63.79 125.83 63.79 125.68 63.79 125.53 63.79 125.38 63.79 125.23 63.79 125.08 63.79 124.93 63.94 124.93 63.94 124.77 63.94 124.62 64.09 124.47 64.24 124.32 64.24 124.17 64.39 124.02 64.54 123.87 64.69 123.72 64.84 123.57 65 123.42 65.15 123.42 65.3 123.26 65.45 123.11 65.6 123.11 65.75 122.96 65.9 122.96 66.05 122.81 66.2 122.81 66.35 122.66 66.66 122.66 66.81 122.51 66.96 122.51 67.11 122.51 67.26 122.36 67.56 122.36 67.71 122.36 67.86 122.36 68.02 122.21 68.32 122.21 68.47 122.21 68.62 122.21 68.77 122.21 68.92 122.21 69.37 124.3 68.32 124.47 68.47 125.08 69.37 124.93"/>
  </g>
  <g>
    <path class="cls-8" d="m101.08,140.84c-.05,0-.11-.01-.16-.04l-4.68-2.27c-.09-.04-.15-.12-.18-.21-.03-.09-.02-.19.02-.27l27.03-55.41c.09-.18.3-.25.48-.17l4.68,2.27c.09.04.15.12.18.21.03.09.03.19-.02.28l-27.03,55.41c-.06.13-.19.2-.32.2Zm-4.2-2.79l4.03,1.95,26.71-54.77-4.03-1.95-26.71,54.77Z"/>
    <path class="cls-8" d="m103.2,124.83c-.2,0-.36-.16-.36-.36v-1.66s0-.08.02-.11l.13-.4v-.39s0-.08.02-.11l.13-.4v-.39l.3-1.12v-.39l.47-1.77.32-.65.43-1.61.32-.65.12-.53.33-.68.12-.53.33-.68.12-.53,2.44-4.91.32-.49.58-1.17.32-.49.58-1.17s.04-.07.07-.09l.45-.45.26-.4.28-.57.63-.94.5-.51.86-1.3,1.4-1.41.26-.4.65-.66s.06-.05.09-.07l.25-.12.56-.56c.14-.14.37-.14.51,0,.14.14.14.37,0,.51l-.6.6s-.06.05-.09.07l-.25.12-.56.56-.26.4-1.4,1.41-.86,1.3-.5.51-.56.85-.28.57-.32.49-.46.46-.58,1.16-.32.49-.58,1.17-.32.49-2.39,4.79-.12.53-.33.68-.12.53-.33.68-.12.53-.33.68-.43,1.59-.33.68-.43,1.59v.37s0,.08,0,.11l-.15.45-.14.58v.37s0,.08,0,.11l-.13.4v.39s0,.08-.02.11l-.13.4v1.6c0,.2-.16.36-.36.36Z"/>
    <path class="cls-8" d="m107.73,127.25c-.09,0-.18-.04-.25-.11-.14-.14-.14-.37,0-.51l.3-.3s.06-.05.09-.07l.25-.12,2.22-2.22.86-1.3s.06-.07.1-.1l.39-.26.26-.39.28-.57.33-.49.45-.46.28-.55.32-.49.28-.57.32-.49.28-.57.32-.49.46-.62,1.48-2.96.12-.53.93-1.89.13-.41.62-1.26.12-.53.33-.68.28-1.13.33-.68.12-.53.16-.48.6-2.24v-.37s0-.08,0-.11l.15-.45.14-.58v-.37s0-.08,0-.11l.13-.4v-1.87c0-.2.16-.38.36-.38s.36.14.36.34v1.96s0,.08-.02.11l-.13.4v.39l-.3,1.12v.4l-.16.69-.16.48-.6,2.24-.33.68-.27,1.13-.33.68-.12.53-.63,1.28-.13.41-.93,1.86-.12.53-1.54,3.09-.78,1.1-.28.57-.32.49-.28.57-.32.49-.28.57s-.04.07-.07.09l-.45.45-.26.4-.28.57-.33.49s-.06.07-.1.1l-.39.26-.87,1.3-2.31,2.32s-.06.05-.09.07l-.25.12-.26.26c-.07.07-.16.1-.25.1Z"/>
    <path class="cls-8" d="m88.4,123.17c-.06,0-.11-.01-.16-.04l-1.21-.6-10.11-4.98c-.18-.09-.25-.3-.16-.48l17.97-36.69c.09-.18.3-.25.48-.16.18.09.25.3.16.48l-17.81,36.37,10.68,5.27,15.68-32.44c.09-.18.3-.25.48-.17.18.09.25.3.17.48l-15.84,32.76c-.04.09-.12.15-.21.18-.04.01-.08.02-.12.02Z"/>
    <path class="cls-8" d="m104.25,90.41c-.05,0-.11-.01-.16-.04-.18-.09-.25-.3-.17-.48l1.81-3.75-10.85-5.28c-.18-.09-.25-.3-.17-.48.09-.18.3-.26.48-.17l11.17,5.44c.18.09.25.3.17.48l-1.96,4.08c-.06.13-.19.2-.32.2Z"/>
    <polygon class="cls-5" points="75.56 117.83 94.44 79.02 107.88 85.37 88.85 124.32 75.56 117.83"/>
    <path class="cls-8" d="m96.55,82.1s-.1-.01-.15-.03l-1.66-.75c-.18-.08-.26-.3-.18-.48.08-.18.29-.26.48-.18l1.66.75c.18.08.26.3.18.48-.06.13-.19.21-.33.21Z"/>
    <path class="cls-8" d="m100.18,83.91c-.06,0-.11-.01-.17-.04l-2.57-1.36c-.18-.09-.24-.31-.15-.49.09-.18.31-.24.49-.15l2.57,1.36c.18.09.24.31.15.49-.06.12-.19.19-.32.19Z"/>
    <path class="cls-8" d="m103.95,85.73c-.05,0-.11-.01-.16-.04l-2.72-1.36c-.18-.09-.25-.3-.16-.48.09-.18.3-.25.48-.16l2.72,1.36c.18.09.25.3.16.48-.06.13-.19.2-.32.2Z"/>
    <path class="cls-8" d="m105.9,86.74l-1.21-.6c-.18-.09-.25-.3-.16-.48.09-.18.3-.25.48-.16l1.16.58-.11.35-.16.32Z"/>
    <path class="cls-8" d="m94.74,85.73s-.1-.01-.15-.03l-1.66-.75c-.18-.08-.26-.3-.18-.48.08-.18.29-.26.48-.18l1.66.75c.18.08.26.3.18.48-.06.13-.19.21-.33.21Z"/>
    <path class="cls-8" d="m98.51,87.54s-.1,0-.15-.03l-2.72-1.21c-.18-.08-.26-.29-.18-.48.08-.18.29-.27.48-.18l2.72,1.21c.18.08.26.29.18.48-.06.13-.19.21-.33.21Z"/>
    <path class="cls-8" d="m102.14,89.35c-.05,0-.11-.01-.16-.04l-2.72-1.36c-.18-.09-.25-.31-.16-.48.09-.18.3-.25.48-.16l2.72,1.36c.18.09.25.31.16.48-.06.13-.19.2-.32.2Z"/>
    <path class="cls-8" d="m104.25,90.41c-.06,0-.12-.01-.18-.04l-1.2-.6c-.18-.09-.25-.31-.16-.48.09-.18.3-.25.48-.16l1.18.6c.13.06.22.18.22.33,0,.2-.15.36-.35.36Z"/>
    <path class="cls-8" d="m93.08,89.5c-.05,0-.11-.01-.16-.04l-1.81-.91c-.18-.09-.25-.31-.16-.48.09-.18.3-.25.48-.16l1.81.91c.18.09.25.31.16.48-.06.13-.19.2-.32.2Z"/>
    <path class="cls-8" d="m96.7,91.16s-.1,0-.15-.03l-2.72-1.21c-.18-.08-.26-.29-.18-.48.08-.18.29-.26.48-.18l2.72,1.21c.18.08.26.29.18.48-.06.13-.19.21-.33.21Z"/>
    <path class="cls-8" d="m100.33,92.97s-.1,0-.15-.03l-2.72-1.21c-.18-.08-.26-.29-.18-.48.08-.18.29-.26.48-.18l2.72,1.21c.18.08.26.29.18.48-.06.13-.19.21-.33.21Z"/>
    <path class="cls-8" d="m102.44,94.03c-.06,0-.12-.02-.18-.05l-1.06-.6c-.17-.1-.23-.32-.13-.49.1-.17.32-.23.49-.13l1.06.6c.17.1.23.32.13.49-.07.12-.19.18-.31.18Z"/>
    <path class="cls-8" d="m91.27,93.12c-.05,0-.11-.01-.16-.04l-1.77-.89c-.19-.06-.29-.26-.22-.45.06-.19.27-.29.46-.23h.04s1.83.93,1.83.93c.18.09.25.31.16.48-.06.13-.19.2-.32.2Z"/>
    <path class="cls-8" d="m94.89,94.94c-.06,0-.11-.01-.17-.04l-2.57-1.36c-.18-.09-.24-.31-.15-.49.09-.18.31-.24.49-.15l2.57,1.36c.18.09.24.31.15.49-.07.12-.19.19-.32.19Z"/>
    <path class="cls-8" d="m98.51,96.6c-.05,0-.1-.01-.15-.03l-2.57-1.21c-.18-.08-.26-.3-.17-.48.09-.18.3-.26.48-.17l2.57,1.21c.18.08.26.3.17.48-.06.13-.19.21-.33.21Z"/>
    <path class="cls-8" d="m100.77,97.65s-.07,0-.11-.02l-1.22-.46c-.19-.07-.28-.28-.21-.46.07-.19.28-.28.46-.21l1.17.44c.18.07.3.28.23.46-.05.15-.18.24-.33.24Z"/>
    <path class="cls-8" d="m89.46,96.75c-.05,0-.11-.01-.16-.04l-1.75-.88c-.17-.09-.28-.31-.2-.48.08-.18.25-.27.43-.2l.06.03,1.78.89c.18.09.25.31.16.48-.06.13-.19.2-.32.2Z"/>
    <path class="cls-8" d="m93.08,98.56c-.06,0-.11-.01-.17-.04l-2.57-1.36c-.18-.09-.24-.31-.15-.49.09-.18.31-.24.49-.15l2.57,1.36c.18.09.24.31.15.49-.06.12-.19.19-.32.19Z"/>
    <path class="cls-8" d="m96.7,100.37c-.06,0-.11-.01-.17-.04l-2.57-1.36c-.18-.09-.24-.31-.15-.49.09-.18.31-.24.49-.15l2.57,1.36c.18.09.24.31.15.49-.06.12-.19.19-.32.19Z"/>
    <path class="cls-8" d="m98.97,101.28s-.08,0-.13-.02l-1.21-.45c-.19-.07-.28-.28-.21-.46.07-.19.28-.28.46-.21l1.21.45c.19.07.28.28.21.46-.05.14-.19.23-.34.23Z"/>
    <path class="cls-8" d="m87.64,100.37c-.06,0-.12-.01-.17-.04l-1.66-.91c-.17-.1-.24-.31-.14-.49.1-.17.31-.24.49-.14l1.66.91c.17.1.24.31.14.49-.07.12-.19.19-.32.19Z"/>
    <path class="cls-8" d="m91.42,102.18c-.05,0-.11-.01-.16-.04l-2.72-1.36c-.18-.09-.25-.31-.16-.48.09-.18.3-.25.48-.16l2.72,1.36c.18.09.25.31.16.48-.06.13-.19.2-.32.2Z"/>
    <path class="cls-8" d="m95.04,104c-.05,0-.11-.01-.16-.04l-2.72-1.36c-.18-.09-.25-.31-.16-.48.09-.18.3-.25.48-.16l2.72,1.36c.18.09.25.31.16.48-.06.13-.19.2-.32.2Z"/>
    <path class="cls-8" d="m97.16,105.05c-.05,0-.11-.01-.16-.04l-1.21-.6c-.18-.09-.25-.31-.16-.48.09-.18.3-.25.48-.16l1.21.6c.18.09.25.31.16.48-.06.13-.19.2-.32.2Z"/>
    <path class="cls-8" d="m85.98,104s-.09,0-.14-.03l-1.81-.75c-.18-.08-.27-.29-.19-.47.08-.18.29-.27.47-.19l1.81.75c.18.08.27.29.19.47-.06.14-.19.22-.33.22Z"/>
    <path class="cls-8" d="m89.61,105.81s-.1,0-.15-.03l-2.72-1.21c-.18-.08-.26-.29-.18-.48.08-.18.29-.26.48-.18l2.72,1.21c.18.08.26.29.18.48-.06.13-.19.21-.33.21Z"/>
    <path class="cls-8" d="m93.23,107.62c-.05,0-.11-.01-.16-.04l-2.72-1.36c-.18-.09-.25-.31-.16-.48.09-.18.3-.25.48-.16l2.72,1.36c.18.09.25.31.16.48-.06.13-.19.2-.32.2Z"/>
    <path class="cls-8" d="m95.34,108.68c-.06,0-.12-.02-.18-.05l-1.06-.6c-.17-.1-.23-.32-.13-.49.1-.17.32-.23.49-.13l1.06.6c.17.1.23.32.13.49-.07.12-.19.18-.31.18Z"/>
    <path class="cls-8" d="m84.17,107.62s-.09,0-.14-.03l-1.81-.75c-.18-.08-.27-.29-.19-.47.08-.18.29-.27.47-.19l1.81.75c.18.08.27.29.19.47-.06.14-.19.22-.33.22Z"/>
    <path class="cls-8" d="m87.79,109.43s-.1,0-.15-.03l-2.72-1.21c-.18-.08-.26-.29-.18-.47.08-.18.29-.26.48-.18l2.72,1.21c.18.08.26.29.18.48-.06.13-.19.21-.33.21Z"/>
    <path class="cls-8" d="m91.42,111.24c-.06,0-.11-.01-.17-.04l-2.57-1.36c-.18-.09-.24-.31-.15-.49.09-.18.31-.24.49-.15l2.57,1.36c.18.09.24.31.15.49-.06.12-.19.19-.32.19Z"/>
    <path class="cls-8" d="m93.53,112.3c-.06,0-.12-.02-.18-.05l-1.06-.6c-.17-.1-.23-.32-.13-.49.1-.17.32-.23.49-.13l1.06.6c.17.1.23.32.13.49-.07.12-.19.18-.31.18Z"/>
    <path class="cls-8" d="m82.36,111.39c-.05,0-.11-.01-.16-.04l-1.81-.91c-.18-.09-.25-.3-.16-.48.09-.18.3-.25.48-.16l1.81.91c.18.09.25.3.16.48-.06.13-.19.2-.32.2Z"/>
    <path class="cls-8" d="m85.98,113.05c-.05,0-.1-.01-.15-.03l-2.57-1.21c-.18-.08-.26-.3-.17-.48.08-.18.3-.26.48-.17l2.57,1.21c.18.08.26.3.17.48-.06.13-.19.21-.33.21Z"/>
    <path class="cls-8" d="m89.61,114.87c-.05,0-.1-.01-.15-.03l-2.57-1.21c-.18-.08-.26-.3-.17-.48.09-.18.3-.26.48-.17l2.57,1.21c.18.08.26.3.17.48-.06.13-.19.21-.33.21Z"/>
    <path class="cls-8" d="m91.87,115.92c-.05,0-.11-.01-.16-.04l-1.21-.6c-.18-.09-.25-.31-.16-.48.09-.18.3-.25.48-.16l1.21.6c.18.09.25.31.16.48-.06.13-.19.2-.32.2Z"/>
    <path class="cls-8" d="m80.55,115.02c-.06,0-.12-.01-.17-.04l-1.66-.91c-.17-.1-.24-.31-.14-.49.1-.17.31-.24.49-.14l1.66.91c.17.1.24.31.14.49-.07.12-.19.19-.32.19Z"/>
    <path class="cls-8" d="m84.17,116.83c-.06,0-.11-.01-.17-.04l-2.57-1.36c-.18-.09-.24-.31-.15-.49.09-.18.31-.24.49-.15l2.57,1.36c.18.09.24.31.15.49-.06.12-.19.19-.32.19Z"/>
    <path class="cls-8" d="m87.95,118.49s-.1,0-.15-.03l-2.72-1.21c-.18-.08-.26-.29-.18-.48.08-.18.29-.26.48-.18l2.72,1.21c.18.08.26.29.18.48-.06.13-.19.21-.33.21Z"/>
    <path class="cls-8" d="m90.06,119.55s-.09,0-.13-.02l-1.21-.45c-.19-.07-.28-.28-.21-.46.07-.19.28-.28.46-.21l1.21.45c.19.07.28.28.21.46-.05.14-.19.23-.34.23Z"/>
    <path class="cls-8" d="m79.94,118.94c-.05,0-.11-.01-.16-.04-.18-.09-.25-.31-.16-.48l1.21-2.42c.09-.18.3-.25.48-.16.18.09.25.31.16.48l-1.21,2.42c-.06.13-.19.2-.32.2Z"/>
    <path class="cls-8" d="m81.6,115.47s-.1,0-.15-.03c-.18-.08-.26-.29-.18-.48l1.21-2.72c.08-.18.29-.27.48-.18.18.08.26.29.18.48l-1.21,2.72c-.06.13-.19.21-.33.21Z"/>
    <path class="cls-8" d="m83.42,111.85s-.1,0-.15-.03c-.18-.08-.26-.29-.18-.48l1.21-2.72c.08-.18.29-.26.48-.18.18.08.26.29.18.48l-1.21,2.72c-.06.13-.19.21-.33.21Z"/>
    <path class="cls-8" d="m85.08,108.22c-.05,0-.11-.01-.16-.04-.18-.09-.25-.31-.16-.48l1.36-2.72c.09-.18.3-.25.48-.16s.25.31.16.48l-1.36,2.72c-.06.13-.19.2-.32.2Z"/>
    <path class="cls-8" d="m86.89,104.6c-.05,0-.11-.01-.16-.04-.18-.09-.25-.31-.16-.48l1.36-2.72c.09-.18.3-.25.48-.16.18.09.25.31.16.48l-1.36,2.72c-.06.13-.19.2-.32.2Z"/>
    <path class="cls-8" d="m88.7,100.82c-.06,0-.11-.01-.17-.04-.18-.09-.24-.31-.15-.49l1.36-2.57c.09-.17.31-.24.49-.15.18.09.24.31.15.49l-1.36,2.57c-.06.12-.19.19-.32.19Z"/>
    <path class="cls-8" d="m90.51,97.2c-.05,0-.1-.01-.15-.03-.18-.08-.26-.3-.17-.48l1.21-2.57c.08-.18.3-.26.48-.17.18.08.26.3.17.48l-1.21,2.57c-.06.13-.19.21-.33.21Z"/>
    <path class="cls-8" d="m92.32,93.58s-.1,0-.15-.03c-.18-.08-.26-.29-.18-.48l1.21-2.72c.08-.18.29-.26.48-.18.18.08.26.29.18.48l-1.21,2.72c-.06.13-.19.21-.33.21Z"/>
    <path class="cls-8" d="m93.98,89.95c-.05,0-.11-.01-.16-.04-.18-.09-.25-.31-.16-.48l1.36-2.72c.09-.18.3-.25.48-.16.18.09.25.31.16.48l-1.36,2.72c-.06.13-.19.2-.32.2Z"/>
    <path class="cls-8" d="m95.8,86.33c-.05,0-.11-.01-.16-.04-.18-.09-.25-.31-.16-.48l1.36-2.72c.09-.18.3-.25.48-.16.18.09.25.31.16.48l-1.36,2.72c-.06.13-.19.2-.32.2Z"/>
    <path class="cls-8" d="m97.61,82.56c-.05,0-.11-.01-.16-.04-.18-.09-.25-.31-.16-.48l.15-.3c.09-.18.3-.25.48-.16.18.09.25.31.16.48l-.15.3c-.06.13-.19.2-.32.2Z"/>
    <path class="cls-8" d="m83.57,120.76c-.05,0-.1-.01-.15-.03-.18-.08-.26-.3-.17-.48l1.21-2.57c.08-.18.3-.26.48-.17.18.08.26.3.17.48l-1.21,2.57c-.06.13-.19.21-.33.21Z"/>
    <path class="cls-8" d="m85.23,117.28c-.05,0-.11-.01-.16-.04-.18-.09-.25-.31-.16-.48l1.36-2.72c.09-.18.3-.25.48-.16.18.09.25.31.16.48l-1.36,2.72c-.06.13-.19.2-.32.2Z"/>
    <path class="cls-8" d="m87.04,113.66s-.1,0-.15-.03c-.18-.08-.26-.29-.18-.48l1.21-2.72c.08-.18.29-.26.48-.18.18.08.26.29.18.48l-1.21,2.72c-.06.13-.19.21-.33.21Z"/>
    <path class="cls-8" d="m88.85,109.88c-.05,0-.1-.01-.15-.03-.18-.08-.26-.3-.17-.48l1.21-2.57c.08-.18.3-.26.48-.17.18.08.26.3.17.48l-1.21,2.57c-.06.13-.19.21-.33.21Z"/>
    <path class="cls-8" d="m90.51,106.26c-.06,0-.11-.01-.17-.04-.18-.09-.24-.31-.15-.49l1.36-2.57c.09-.18.31-.24.49-.15.18.09.24.31.15.49l-1.36,2.57c-.06.12-.19.19-.32.19Z"/>
    <path class="cls-8" d="m92.32,102.64c-.06,0-.11-.01-.17-.04-.18-.09-.24-.31-.15-.49l1.36-2.57c.09-.18.31-.24.49-.15.18.09.24.31.15.49l-1.36,2.57c-.07.12-.19.19-.32.19Z"/>
    <path class="cls-8" d="m94.14,99.01s-.1,0-.15-.03c-.18-.08-.26-.29-.18-.48l1.21-2.72c.08-.18.29-.26.48-.18.18.08.26.29.18.48l-1.21,2.72c-.06.13-.19.21-.33.21Z"/>
    <path class="cls-8" d="m95.95,95.39s-.1,0-.15-.03c-.18-.08-.26-.29-.18-.48l1.21-2.72c.08-.18.29-.26.48-.18.18.08.26.29.18.48l-1.21,2.72c-.06.13-.19.21-.33.21Z"/>
    <path class="cls-8" d="m97.61,91.77c-.05,0-.11-.01-.16-.04-.18-.09-.25-.31-.16-.48l1.36-2.72c.09-.18.3-.25.48-.16.18.09.25.31.16.48l-1.36,2.72c-.06.13-.19.2-.32.2Z"/>
    <path class="cls-8" d="m99.42,87.99c-.06,0-.11-.01-.17-.04-.18-.09-.24-.31-.15-.49l1.36-2.57c.09-.18.31-.24.49-.15.18.09.24.31.15.49l-1.36,2.57c-.06.12-.19.19-.32.19Z"/>
    <path class="cls-8" d="m101.23,84.37s-.08,0-.12-.02c-.19-.06-.29-.27-.22-.46l.14-.4c.06-.18.26-.31.45-.25.18.06.3.22.25.41l-.16.48c-.05.15-.19.24-.34.24Z"/>
    <path class="cls-8" d="m87.19,122.57c-.05,0-.1-.01-.15-.03-.18-.08-.26-.3-.17-.48l1.21-2.57c.08-.18.3-.26.48-.17.18.08.26.3.17.48l-1.21,2.57c-.06.13-.19.21-.33.21Z"/>
    <path class="cls-8" d="m88.85,119.09c-.05,0-.11-.01-.16-.04-.18-.09-.25-.31-.16-.48l1.36-2.72c.09-.18.3-.25.48-.16.18.09.25.31.16.48l-1.36,2.72c-.06.13-.19.2-.32.2Z"/>
    <path class="cls-8" d="m90.66,115.32c-.06,0-.11-.01-.17-.04-.18-.09-.24-.31-.15-.49l1.36-2.57c.09-.17.31-.24.49-.15.18.09.24.31.15.49l-1.36,2.57c-.06.12-.19.19-.32.19Z"/>
    <path class="cls-8" d="m92.48,111.7c-.05,0-.1-.01-.15-.03-.18-.08-.26-.3-.17-.48l1.21-2.57c.09-.18.3-.26.48-.17.18.08.26.3.17.48l-1.21,2.57c-.06.13-.19.21-.33.21Z"/>
    <path class="cls-8" d="m94.29,108.07s-.1,0-.15-.03c-.18-.08-.26-.29-.18-.48l1.21-2.72c.08-.18.29-.26.48-.18.18.08.26.29.18.48l-1.21,2.72c-.06.13-.19.21-.33.21Z"/>
    <path class="cls-8" d="m95.95,104.45c-.05,0-.11-.01-.16-.04-.18-.09-.25-.31-.16-.48l1.36-2.72c.09-.18.3-.25.48-.16.18.09.25.31.16.48l-1.36,2.72c-.06.13-.19.2-.32.2Z"/>
    <path class="cls-8" d="m97.76,100.82c-.05,0-.11-.01-.16-.04-.18-.09-.25-.31-.16-.48l1.36-2.72c.09-.18.3-.25.48-.16.18.09.25.31.16.48l-1.36,2.72c-.06.13-.19.2-.32.2Z"/>
    <path class="cls-8" d="m99.57,97.2s-.1,0-.15-.03c-.18-.08-.26-.29-.18-.48l1.21-2.72c.08-.18.29-.26.48-.18.18.08.26.29.18.48l-1.21,2.72c-.06.13-.19.21-.33.21Z"/>
    <path class="cls-8" d="m101.38,93.43c-.05,0-.1-.01-.15-.03-.18-.08-.26-.3-.17-.48l1.21-2.57c.08-.18.3-.26.48-.17.18.08.26.3.17.48l-1.21,2.57c-.06.13-.19.21-.33.21Z"/>
    <path class="cls-8" d="m103.04,89.8c-.06,0-.11-.01-.17-.04-.18-.09-.24-.31-.15-.49l1.36-2.57c.09-.18.31-.24.49-.15.18.09.24.31.15.49l-1.36,2.57c-.06.12-.19.19-.32.19Z"/>
    <path class="cls-8" d="m104.86,86.18c-.07,0-.13-.02-.19-.06-.17-.11-.22-.33-.11-.5l.25-.39s.06-.08.07-.09c.12-.15.35-.18.51-.06.16.12.18.35.06.51l-.28.42c-.07.11-.18.17-.3.17Z"/>
    <polygon class="cls-5" points="132.79 71.48 128.71 79.93 121.01 76.16 125.09 67.7 132.79 71.48"/>
    <polygon class="cls-5" points="96.7 145.61 92.48 154.07 84.93 150.44 89 141.84 96.7 145.61"/>
    <path class="cls-8" d="m68.62,127.85h-2.72c-.1,0-.19-.04-.25-.11l-.05-.05h-.15c-.1,0-.19-.04-.25-.1l-.05-.05h-.15c-.1,0-.19-.04-.25-.11l-.05-.05c-.14,0-.26-.08-.32-.19-.03-.02-.06-.04-.09-.06l-.45-.45c-.07-.07-.11-.16-.11-.25h0s-.2-.2-.2-.2c-.07-.07-.11-.16-.11-.25v-1.06c0-.12.06-.23.15-.29h0c0-.1.04-.2.11-.26l.2-.2c0-.1.04-.19.11-.25l.75-.75c.07-.07.16-.11.25-.11h0l.2-.2c.07-.07.16-.1.25-.1h0l.05-.05c.07-.07.16-.11.25-.11h0l.05-.05c.07-.07.16-.11.25-.11h0l.05-.05c.07-.07.16-.11.25-.11h.15l.05-.05c.07-.07.16-.1.25-.1h.15l.05-.05c.07-.07.16-.11.25-.11h.46l.05-.05c.07-.07.16-.11.25-.11h1.96c.06,0,.11.01.16.04l.29.11h.3c.1,0,.19.04.25.1l.05.05h.15c.14,0,.26.08.32.19.03.02.06.04.09.06l.05.05c.1,0,.19.04.25.11l.45.45s.05.05.06.09c.11.06.19.18.19.32h0s.05.05.05.05c.07.07.11.16.11.25v.15l.05.05c.07.07.11.16.11.25v.3c0,.12-.06.23-.15.29v.16c0,.1-.04.19-.11.25l-.05.05c0,.1-.04.19-.11.25l-.2.2c0,.1-.04.19-.11.25l-.15.15s-.06.05-.09.06c-.02.03-.04.06-.06.09l-.15.15c-.07.07-.16.1-.25.1h0l-.2.2c-.07.07-.16.11-.25.11h0l-.2.2c-.07.07-.16.11-.25.11h0l-.05.05c-.07.07-.16.11-.25.11h0l-.05.05c-.07.07-.16.11-.25.11h0l-.05.05c-.07.07-.16.11-.25.11h-.3l-.05.05c-.07.07-.16.11-.25.11h-.15l-.05.05c-.07.07-.16.11-.25.11Zm-2.57-.72h2.42l.05-.05c.07-.07.16-.11.25-.11h.15l.05-.05c.07-.07.16-.11.25-.11h.3l.05-.05c.07-.07.16-.11.25-.11h0l.05-.05c.07-.07.16-.11.25-.11h0l.05-.05c.07-.07.16-.11.25-.11h0l.2-.2c.07-.07.16-.1.25-.1h0l.2-.2c.05-.05.13-.09.2-.1.02-.16.15-.28.3-.3.01-.08.05-.15.1-.2l.2-.2c0-.1.04-.19.11-.25l.05-.05v-.3c0-.09.03-.16.08-.23-.05-.06-.08-.14-.08-.23v-.15l-.05-.05s-.05-.06-.06-.09c-.11-.06-.19-.18-.19-.32h0s-.24-.24-.24-.24c-.1,0-.19-.04-.25-.11l-.05-.05c-.12,0-.23-.06-.29-.15h0c-.1,0-.19-.04-.25-.11l-.05-.05h-.3c-.06,0-.11-.01-.16-.04l-.29-.11h-1.66l-.05.05c-.07.07-.16.11-.25.11h-.45l-.05.05c-.07.07-.16.11-.25.11h-.15l-.05.05c-.07.07-.16.1-.25.1h-.15l-.05.05c-.07.07-.16.11-.25.11h0l-.05.05c-.07.07-.16.11-.25.11h0l-.05.05c-.07.07-.16.11-.25.11h0l-.2.2c-.07.07-.16.11-.25.11h0l-.54.55c0,.1-.04.19-.11.25l-.2.2v.15c0,.12-.06.23-.15.29v.61l.2.2c.07.07.11.16.11.25h0s.24.24.24.24c.14,0,.26.08.32.19.03.02.06.04.09.06l.05.05h.15c.1,0,.19.04.25.1l.05.05h.15c.1,0,.19.04.25.11l.05.05Z"/>
    <path class="cls-8" d="m70.28,124.81l-.15-.34-.06-.35,2.25-.45c.2-.04.38.09.42.28.04.19-.09.38-.28.42l-2.19.44Z"/>
    <path class="cls-8" d="m69.83,127.4c-.17,0-.32-.12-.35-.28l-.45-2.11c-.04-.19.08-.39.28-.43.2-.04.39.08.43.28l.45,2.11c.04.19-.08.39-.28.43-.03,0-.05,0-.08,0Z"/>
    <path class="cls-8" d="m69.37,124.68c-.2,0-.36-.16-.36-.36v-.03l-.44-2.01c-.04-.19.08-.39.28-.43.19-.04.39.08.43.28l.45,2.09s0,.08,0,.1c0,.2-.16.36-.36.36Z"/>
    <path class="cls-8" d="m68.47,125.44c-.16,0-.31-.11-.35-.27l-.15-.6c-.02-.1,0-.2.05-.28.06-.08.14-.14.24-.16l1.81-.3c.18-.03.36.08.41.26l.15.61c.02.1,0,.2-.05.28-.06.08-.14.14-.24.16l-1.81.3s-.04,0-.06,0Z"/>
    <path class="cls-8" d="m98.29,139.49c-.05,0-.1-.01-.16-.04-.18-.09-.25-.3-.17-.48l26.7-55.58c.09-.18.3-.25.48-.17.18.09.25.3.17.48l-26.7,55.58c-.06.13-.19.2-.33.2Z"/>
  </g>
</svg>