<?xml version="1.0" encoding="UTF-8"?>
<svg id="Layer_1" data-name="Layer 1" xmlns="http://www.w3.org/2000/svg" viewBox="0 0 80.99 80.84">
  <defs>
    <style>
      .cls-1 {
        fill: #fff;
      }

      .cls-2 {
        fill: #939598;
      }

      .cls-3 {
        fill: #26281e;
      }
    </style>
  </defs>
  <g>
    <rect class="cls-2" x="4.13" y="75.7" width="76.85" height="5.13"/>
    <rect class="cls-2" x="4.13" y="4.13" width="76.85" height="71.57"/>
  </g>
  <g>
    <g>
      <rect class="cls-1" x=".36" y="71.93" width="76.85" height="5.13"/>
      <rect class="cls-1" x=".36" y=".36" width="76.85" height="71.57"/>
    </g>
    <g>
      <path class="cls-3" d="m77.21,77.42H.36c-.2,0-.36-.16-.36-.36s.16-.36.36-.36h76.85c.2,0,.36.16.36.36s-.16.36-.36.36Z"/>
      <path class="cls-3" d="m77.21,72.29H.36c-.2,0-.36-.16-.36-.36s.16-.36.36-.36h76.85c.2,0,.36.16.36.36s-.16.36-.36.36Z"/>
      <path class="cls-3" d="m77.21,77.42c-.2,0-.36-.16-.36-.36V.72H.72v76.34c0,.2-.16.36-.36.36s-.36-.16-.36-.36V.36c0-.2.16-.36.36-.36h76.85c.2,0,.36.16.36.36v76.7c0,.2-.16.36-.36.36Z"/>
    </g>
  </g>
</svg>