<?xml version="1.0" encoding="UTF-8"?>
<svg xmlns="http://www.w3.org/2000/svg" xmlns:xlink="http://www.w3.org/1999/xlink" viewBox="0 0 603.24 307.54">
  <defs>
    <style>
      .cls-1 {
        fill: #ff564a;
        mix-blend-mode: multiply;
      }

      .cls-2 {
        isolation: isolate;
      }

      .cls-3 {
        fill: url(#linear-gradient-2);
      }

      .cls-3, .cls-4 {
        stroke: #9d9d9c;
        stroke-miterlimit: 10;
        stroke-width: .03px;
      }

      .cls-5 {
        fill: #8f8f8e;
      }

      .cls-6 {
        fill: url(#linear-gradient-3);
      }

      .cls-4 {
        fill: url(#linear-gradient);
      }
    </style>
    <linearGradient id="linear-gradient" x1="2053.67" y1="645.26" x2="2651.17" y2="645.26" gradientTransform="translate(2654.06 795.36) rotate(-180) scale(1 .95)" gradientUnits="userSpaceOnUse">
      <stop offset="0" stop-color="#e6e6e6"/>
      <stop offset="1" stop-color="#c9c9c9"/>
    </linearGradient>
    <linearGradient id="linear-gradient-2" x1="2089.04" y1="645.26" x2="2615.83" y2="645.26" gradientTransform="translate(2654.06 795.36) rotate(-180) scale(1 .95)" gradientUnits="userSpaceOnUse">
      <stop offset="0" stop-color="#fff"/>
      <stop offset="1" stop-color="#d6d6d6"/>
    </linearGradient>
    <linearGradient id="linear-gradient-3" x1="600.39" y1="805.4" x2="2.88" y2="805.4" gradientTransform="translate(0 795.36) scale(1 -.95)" gradientUnits="userSpaceOnUse">
      <stop offset="0" stop-color="#c7c7c7"/>
      <stop offset="1" stop-color="#b3b3b3"/>
    </linearGradient>
  </defs>
  <g class="cls-2">
    <g id="Layer_1" data-name="Layer 1">
      <g>
        <rect class="cls-4" x="2.88" y="53.41" width="597.5" height="252.25"/>
        <rect class="cls-3" x="38.23" y="75.75" width="526.79" height="207.59"/>
        <rect class="cls-6" x="2.88" width="597.5" height="53.41"/>
        <path class="cls-5" d="m255.68,28.54c0,6.71,20.57,12.17,45.96,12.17s46-5.46,46-12.17-20.66-12.14-46-12.14-45.96,5.44-45.96,12.14Z"/>
        <polygon class="cls-1" points="603.24 307.54 0 307.54 0 51.53 2.88 51.53 2.88 0 600.39 0 600.39 51.53 603.24 51.53 603.24 307.54"/>
      </g>
    </g>
  </g>
</svg>