<?xml version="1.0" encoding="UTF-8"?>
<svg xmlns="http://www.w3.org/2000/svg" xmlns:xlink="http://www.w3.org/1999/xlink" viewBox="0 0 288.77 149.51">
  <defs>
    <style>
      .cls-1 {
        fill: #f7db88;
      }

      .cls-2 {
        fill: #ddd;
      }

      .cls-3 {
        fill: #e9e9e9;
      }

      .cls-4 {
        fill: url(#linear-gradient-2);
      }

      .cls-5 {
        fill: #f0f0f0;
      }

      .cls-6 {
        fill: #f4f4f4;
      }

      .cls-7 {
        fill: #fff;
      }

      .cls-8 {
        fill: #cbcbcb;
      }

      .cls-9 {
        fill: #d1d1d1;
      }

      .cls-10 {
        fill: #fafafa;
      }

      .cls-11 {
        fill: #dbdbdb;
      }

      .cls-12 {
        fill: #a7a9ac;
      }

      .cls-13 {
        fill: #ff564a;
      }

      .cls-13, .cls-14 {
        mix-blend-mode: multiply;
      }

      .cls-15 {
        fill: #cacaca;
      }

      .cls-16 {
        fill: #d8d8d8;
      }

      .cls-17 {
        fill: #f6f6f6;
      }

      .cls-18 {
        fill: url(#linear-gradient-3);
      }

      .cls-18, .cls-19 {
        stroke: #9d9d9c;
        stroke-miterlimit: 10;
        stroke-width: .03px;
      }

      .cls-20 {
        fill: #e2e2e2;
      }

      .cls-21 {
        fill: #f5f5f5;
      }

      .cls-22 {
        isolation: isolate;
      }

      .cls-23 {
        fill: #d6d6d6;
      }

      .cls-24 {
        fill: #c9c9c9;
      }

      .cls-25 {
        fill: #e0e0e0;
      }

      .cls-26 {
        fill: #c7c7c7;
      }

      .cls-27 {
        fill: #dedede;
      }

      .cls-28 {
        fill: #cfcfcf;
      }

      .cls-29 {
        fill: #d7d7d7;
      }

      .cls-30 {
        fill: #e1e1e1;
      }

      .cls-31 {
        fill: #e6e6e6;
      }

      .cls-32 {
        fill: #e7e7e7;
      }

      .cls-33 {
        fill: #d4d4d4;
      }

      .cls-34 {
        fill: #dadada;
      }

      .cls-35 {
        fill: #eaeaea;
      }

      .cls-36 {
        fill: #c8c8c8;
      }

      .cls-37 {
        fill: #fdfdfd;
      }

      .cls-38 {
        fill: #e4e4e4;
      }

      .cls-39 {
        fill: #fbfbfb;
      }

      .cls-40 {
        fill: #f9f9f9;
      }

      .cls-41 {
        fill: #8f8f8e;
      }

      .cls-42 {
        fill: #e5e5e5;
      }

      .cls-43 {
        fill: #d3d3d3;
      }

      .cls-44 {
        fill: #ebebeb;
      }

      .cls-45 {
        fill: #d5d5d5;
      }

      .cls-46 {
        fill: #dcdcdc;
      }

      .cls-47 {
        fill: #e8e8e8;
      }

      .cls-48 {
        fill: #ccc;
      }

      .cls-49 {
        fill: #f7f7f7;
      }

      .cls-50 {
        fill: #efefef;
      }

      .cls-51 {
        fill: #d1d3d4;
      }

      .cls-52 {
        fill: #f1f1f1;
      }

      .cls-53 {
        fill: #cecece;
      }

      .cls-54 {
        fill: #f3f3f3;
      }

      .cls-19 {
        fill: url(#linear-gradient);
      }

      .cls-55 {
        fill: #d9d9d9;
      }

      .cls-56 {
        fill: #cdcdcd;
      }

      .cls-57 {
        fill: #f8f8f8;
      }

      .cls-58 {
        fill: #d2d2d2;
      }

      .cls-59 {
        fill: #c6c6c6;
      }

      .cls-60 {
        fill: #eee;
      }

      .cls-61 {
        fill: #d0d0d0;
      }

      .cls-62 {
        fill: #ececec;
      }

      .cls-63 {
        fill: #f2f2f2;
      }

      .cls-64 {
        fill: #fefefe;
      }

      .cls-65 {
        fill: #e3e3e3;
      }

      .cls-66 {
        fill: #fcfcfc;
      }

      .cls-67 {
        fill: #ededed;
      }

      .cls-68 {
        fill: #dfdfdf;
      }
    </style>
    <linearGradient id="linear-gradient" x1="700.81" y1="63.43" x2="954.5" y2="63.43" gradientTransform="translate(989.1) rotate(-180) scale(1 -1)" gradientUnits="userSpaceOnUse">
      <stop offset="0" stop-color="#e6e6e6"/>
      <stop offset="1" stop-color="#c9c9c9"/>
    </linearGradient>
    <linearGradient id="linear-gradient-2" x1="288.3" y1="133.22" x2="34.6" y2="133.22" gradientUnits="userSpaceOnUse">
      <stop offset="0" stop-color="#c7c7c7"/>
      <stop offset="1" stop-color="#b3b3b3"/>
    </linearGradient>
    <linearGradient id="linear-gradient-3" x1="706.59" y1="63.43" x2="948.72" y2="63.43" gradientTransform="translate(989.1) rotate(-180) scale(1 -1)" gradientUnits="userSpaceOnUse">
      <stop offset="0" stop-color="#fff"/>
      <stop offset="1" stop-color="#d6d6d6"/>
    </linearGradient>
  </defs>
  <g class="cls-22">
    <g id="Layer_1" data-name="Layer 1">
      <g class="cls-14">
        <polygon class="cls-7" points="0 135.82 0 149.51 253.7 149.51 253.7 135.82 253.7 9.92 0 9.92 0 135.82"/>
        <polygon class="cls-64" points=".6 135.66 .6 149.34 254.29 149.34 254.29 135.66 254.29 9.76 .6 9.76 .6 135.66"/>
        <polygon class="cls-37" points="1.19 135.5 1.19 149.18 254.89 149.18 254.89 135.5 254.89 9.6 1.19 9.6 1.19 135.5"/>
        <polygon class="cls-66" points="1.79 135.33 1.79 149.02 255.49 149.02 255.49 135.33 255.49 9.43 1.79 9.43 1.79 135.33"/>
        <polygon class="cls-39" points="2.39 135.17 2.39 148.85 256.08 148.85 256.08 135.17 256.08 9.27 2.39 9.27 2.39 135.17"/>
        <polygon class="cls-10" points="2.98 135.01 2.98 148.69 256.68 148.69 256.68 135.01 256.68 9.11 2.98 9.11 2.98 135.01"/>
        <polygon class="cls-40" points="3.58 134.84 3.58 148.53 257.28 148.53 257.28 134.84 257.28 8.95 3.58 8.95 3.58 134.84"/>
        <polygon class="cls-57" points="4.18 134.68 4.18 148.37 257.87 148.37 257.87 134.68 257.87 8.78 4.18 8.78 4.18 134.68"/>
        <polygon class="cls-49" points="4.77 134.52 4.77 148.2 258.47 148.2 258.47 134.52 258.47 8.62 4.77 8.62 4.77 134.52"/>
        <polygon class="cls-17" points="5.37 134.36 5.37 148.04 259.07 148.04 259.07 134.36 259.07 8.46 5.37 8.46 5.37 134.36"/>
        <polygon class="cls-21" points="5.97 134.19 5.97 147.88 259.66 147.88 259.66 134.19 259.66 8.29 5.97 8.29 5.97 134.19"/>
        <polygon class="cls-6" points="6.56 134.03 6.56 147.71 260.26 147.71 260.26 134.03 260.26 8.13 6.56 8.13 6.56 134.03"/>
        <polygon class="cls-54" points="7.16 133.87 7.16 147.55 260.86 147.55 260.86 133.87 260.86 7.97 7.16 7.97 7.16 133.87"/>
        <polygon class="cls-63" points="7.76 133.7 7.76 147.39 261.45 147.39 261.45 133.7 261.45 7.81 7.76 7.81 7.76 133.7"/>
        <polygon class="cls-52" points="8.35 133.54 8.35 147.23 262.05 147.23 262.05 133.54 262.05 7.64 8.35 7.64 8.35 133.54"/>
        <polygon class="cls-5" points="8.95 133.38 8.95 147.06 262.64 147.06 262.64 133.38 262.64 7.48 8.95 7.48 8.95 133.38"/>
        <polygon class="cls-50" points="9.54 133.22 9.54 146.9 263.24 146.9 263.24 133.22 263.24 7.32 9.54 7.32 9.54 133.22"/>
        <polygon class="cls-60" points="10.14 133.05 10.14 146.74 263.84 146.74 263.84 133.05 263.84 7.15 10.14 7.15 10.14 133.05"/>
        <polygon class="cls-67" points="10.74 132.89 10.74 146.58 264.43 146.58 264.43 132.89 264.43 6.99 10.74 6.99 10.74 132.89"/>
        <polygon class="cls-62" points="11.33 132.73 11.33 146.41 265.03 146.41 265.03 132.73 265.03 6.83 11.33 6.83 11.33 132.73"/>
        <polygon class="cls-44" points="11.93 132.56 11.93 146.25 265.63 146.25 265.63 132.56 265.63 6.67 11.93 6.67 11.93 132.56"/>
        <polygon class="cls-35" points="12.53 132.4 12.53 146.09 266.22 146.09 266.22 132.4 266.22 6.5 12.53 6.5 12.53 132.4"/>
        <polygon class="cls-3" points="13.12 132.24 13.12 145.92 266.82 145.92 266.82 132.24 266.82 6.34 13.12 6.34 13.12 132.24"/>
        <polygon class="cls-47" points="13.72 132.08 13.72 145.76 267.42 145.76 267.42 132.08 267.42 6.18 13.72 6.18 13.72 132.08"/>
        <polygon class="cls-32" points="14.32 131.91 14.32 145.6 268.01 145.6 268.01 131.91 268.01 6.01 14.32 6.01 14.32 131.91"/>
        <polygon class="cls-31" points="14.91 131.75 14.91 145.44 268.61 145.44 268.61 131.75 268.61 5.85 14.91 5.85 14.91 131.75"/>
        <polygon class="cls-42" points="15.51 131.59 15.51 145.27 269.21 145.27 269.21 131.59 269.21 5.69 15.51 5.69 15.51 131.59"/>
        <polygon class="cls-38" points="16.11 131.43 16.11 145.11 269.8 145.11 269.8 131.43 269.8 5.53 16.11 5.53 16.11 131.43"/>
        <polygon class="cls-65" points="16.7 131.26 16.7 144.95 270.4 144.95 270.4 131.26 270.4 5.36 16.7 5.36 16.7 131.26"/>
        <polygon class="cls-20" points="17.3 131.1 17.3 144.78 271 144.78 271 131.1 271 5.2 17.3 5.2 17.3 131.1"/>
        <polygon class="cls-20" points="17.9 130.94 17.9 144.62 271.59 144.62 271.59 130.94 271.59 5.04 17.9 5.04 17.9 130.94"/>
        <polygon class="cls-30" points="18.49 130.77 18.49 144.46 272.19 144.46 272.19 130.77 272.19 4.87 18.49 4.87 18.49 130.77"/>
        <polygon class="cls-25" points="19.09 130.61 19.09 144.3 272.79 144.3 272.79 130.61 272.79 4.71 19.09 4.71 19.09 130.61"/>
        <polygon class="cls-68" points="19.69 130.45 19.69 144.13 273.38 144.13 273.38 130.45 273.38 4.55 19.69 4.55 19.69 130.45"/>
        <polygon class="cls-27" points="20.28 130.29 20.28 143.97 273.98 143.97 273.98 130.29 273.98 4.39 20.28 4.39 20.28 130.29"/>
        <polygon class="cls-2" points="20.88 130.12 20.88 143.81 274.58 143.81 274.58 130.12 274.58 4.22 20.88 4.22 20.88 130.12"/>
        <polygon class="cls-46" points="21.48 129.96 21.48 143.64 275.17 143.64 275.17 129.96 275.17 4.06 21.48 4.06 21.48 129.96"/>
        <polygon class="cls-11" points="22.07 129.8 22.07 143.48 275.77 143.48 275.77 129.8 275.77 3.9 22.07 3.9 22.07 129.8"/>
        <polygon class="cls-34" points="22.67 129.63 22.67 143.32 276.37 143.32 276.37 129.63 276.37 3.73 22.67 3.73 22.67 129.63"/>
        <polygon class="cls-55" points="23.27 129.47 23.27 143.16 276.96 143.16 276.96 129.47 276.96 3.57 23.27 3.57 23.27 129.47"/>
        <polygon class="cls-16" points="23.86 129.31 23.86 142.99 277.56 142.99 277.56 129.31 277.56 3.41 23.86 3.41 23.86 129.31"/>
        <polygon class="cls-29" points="24.46 129.15 24.46 142.83 278.16 142.83 278.16 129.15 278.16 3.25 24.46 3.25 24.46 129.15"/>
        <polygon class="cls-23" points="25.06 128.98 25.06 142.67 278.75 142.67 278.75 128.98 278.75 3.08 25.06 3.08 25.06 128.98"/>
        <polygon class="cls-45" points="25.65 128.82 25.65 142.51 279.35 142.51 279.35 128.82 279.35 2.92 25.65 2.92 25.65 128.82"/>
        <polygon class="cls-33" points="26.25 128.66 26.25 142.34 279.94 142.34 279.94 128.66 279.94 2.76 26.25 2.76 26.25 128.66"/>
        <polygon class="cls-43" points="26.84 128.5 26.84 142.18 280.54 142.18 280.54 128.5 280.54 2.59 26.84 2.59 26.84 128.5"/>
        <polygon class="cls-58" points="27.44 128.33 27.44 142.02 281.14 142.02 281.14 128.33 281.14 2.43 27.44 2.43 27.44 128.33"/>
        <polygon class="cls-9" points="28.04 128.17 28.04 141.85 281.73 141.85 281.73 128.17 281.73 2.27 28.04 2.27 28.04 128.17"/>
        <polygon class="cls-61" points="28.63 128.01 28.63 141.69 282.33 141.69 282.33 128.01 282.33 2.11 28.63 2.11 28.63 128.01"/>
        <polygon class="cls-28" points="29.23 127.84 29.23 141.53 282.93 141.53 282.93 127.84 282.93 1.94 29.23 1.94 29.23 127.84"/>
        <polygon class="cls-53" points="29.83 127.68 29.83 141.37 283.52 141.37 283.52 127.68 283.52 1.78 29.83 1.78 29.83 127.68"/>
        <polygon class="cls-56" points="30.42 127.52 30.42 141.2 284.12 141.2 284.12 127.52 284.12 1.62 30.42 1.62 30.42 127.52"/>
        <polygon class="cls-48" points="31.02 127.36 31.02 141.04 284.72 141.04 284.72 127.36 284.72 1.45 31.02 1.45 31.02 127.36"/>
        <polygon class="cls-8" points="31.62 127.19 31.62 140.88 285.31 140.88 285.31 127.19 285.31 1.29 31.62 1.29 31.62 127.19"/>
        <polygon class="cls-15" points="32.21 127.03 32.21 140.71 285.91 140.71 285.91 127.03 285.91 1.13 32.21 1.13 32.21 127.03"/>
        <polygon class="cls-24" points="32.81 126.87 32.81 140.55 286.51 140.55 286.51 126.87 286.51 .97 32.81 .97 32.81 126.87"/>
        <polygon class="cls-36" points="33.41 126.7 33.41 140.39 287.1 140.39 287.1 126.7 287.1 .8 33.41 .8 33.41 126.7"/>
        <polygon class="cls-26" points="34 126.54 34 140.23 287.7 140.23 287.7 126.54 287.7 .64 34 .64 34 126.54"/>
        <polygon class="cls-59" points="34.6 126.38 34.6 140.06 288.3 140.06 288.3 126.38 288.3 .48 34.6 .48 34.6 126.38"/>
      </g>
      <g>
        <rect class="cls-19" x="34.6" y=".48" width="253.7" height="125.9"/>
        <rect class="cls-4" x="34.6" y="126.38" width="253.7" height="13.68"/>
        <path class="cls-41" d="m153.93,132.75c0-1.72,3.37-3.11,7.51-3.11s7.52,1.4,7.52,3.11-3.38,3.11-7.52,3.11-7.51-1.39-7.51-3.11Z"/>
        <polygon class="cls-13" points="288.77 0 34.13 0 34.13 126.86 34.6 126.86 34.6 140.06 288.3 140.06 288.3 126.86 288.77 126.86 288.77 0"/>
        <rect class="cls-18" x="40.38" y="6.2" width="242.14" height="114.46"/>
      </g>
      <path class="cls-51" d="m229.05,40.75l-56.56,9.81c-3.38.59-5.65,3.83-5.07,7.25l6.89,40.62c.58,3.42,3.78,5.71,7.16,5.12l56.56-9.81c3.38-.59,5.65-3.83,5.07-7.25l-6.89-40.62c-.58-3.42-3.78-5.71-7.16-5.12Zm3.58,23.41c1.72-.29,3.35.87,3.65,2.6.29,1.75-.86,3.4-2.58,3.7-1.72.29-3.35-.87-3.65-2.61-.29-1.74.87-3.39,2.58-3.69Z"/>
      <g>
        <path class="cls-12" d="m204.7,82.09c.32-.93-.21-1.97-1.14-2.28h0c-.94-.33-1.95.17-2.26,1.12l-9.78,29.43c-.31.95.21,1.96,1.16,2.28h0c.94.33,1.95-.17,2.28-1.14l9.75-29.41Z"/>
        <path class="cls-1" d="m187.55,81.95c-4.72-1.19-9.32.81-10.41,4.62-1.08,3.81,1.76,7.98,6.38,9.52l4.03-14.15Z"/>
        <path class="cls-1" d="m177.24,71.65c1.21,4.76,5.13,7.92,8.97,7.07,3.83-.84,6.11-5.36,5.26-10.2l-14.22,3.12Z"/>
        <path class="cls-1" d="m191.83,58.13c0,4.09-4.3,7.4-9.61,7.4s-9.61-3.32-9.61-7.4,4.3-7.4,9.61-7.4,9.61,3.31,9.61,7.4Z"/>
        <path class="cls-1" d="m204.95,51c2.98,1.98,3.33,6.77.78,10.72-2.55,3.94-7.04,5.53-10.02,3.56-2.98-1.97-3.33-6.77-.78-10.72,2.56-3.95,7.04-5.54,10.02-3.56Z"/>
        <polygon class="cls-1" points="218.61 70.37 215.09 69.28 220.34 52.04 223.86 53.14 218.61 70.37"/>
        <polygon class="cls-1" points="218.83 78.41 215.58 76.69 223.81 60.71 227.08 62.42 218.83 78.41"/>
        <polygon class="cls-1" points="216.03 68.05 212.39 67.51 215.02 49.68 218.66 50.23 216.03 68.05"/>
        <polygon class="cls-1" points="221.83 90.8 218.19 90.25 220.83 72.42 224.46 72.96 221.83 90.8"/>
        <polygon class="cls-1" points="227.52 77.19 223.89 76.64 226.52 58.81 230.15 59.35 227.52 77.19"/>
        <polygon class="cls-1" points="211.37 83.02 207.74 82.47 210.36 64.63 214.01 65.18 211.37 83.02"/>
        <polygon class="cls-1" points="233.32 91.47 229.65 91.55 229.29 73.51 232.97 73.44 233.32 91.47"/>
      </g>
    </g>
  </g>
</svg>