<?xml version="1.0" encoding="UTF-8"?>
<svg xmlns="http://www.w3.org/2000/svg" xmlns:xlink="http://www.w3.org/1999/xlink" viewBox="0 0 753.03 248.13">
  <defs>
    <style>
      .cls-1 {
        fill: #ddd;
      }

      .cls-2 {
        fill: #e9e9e9;
      }

      .cls-3 {
        fill: url(#linear-gradient-2);
      }

      .cls-4 {
        fill: #f0f0f0;
      }

      .cls-5 {
        fill: #f4f4f4;
      }

      .cls-6 {
        fill: #fff;
      }

      .cls-7 {
        fill: #cbcbcb;
      }

      .cls-8 {
        fill: url(#linear-gradient-4);
        stroke: #9d9d9c;
        stroke-miterlimit: 10;
        stroke-width: .03px;
      }

      .cls-9 {
        fill: #d1d1d1;
      }

      .cls-10 {
        fill: #fafafa;
      }

      .cls-11 {
        fill: #dbdbdb;
      }

      .cls-12 {
        fill: #cacaca;
      }

      .cls-13 {
        fill: #d8d8d8;
      }

      .cls-14 {
        fill: #f6f6f6;
      }

      .cls-15 {
        fill: #e2e2e2;
      }

      .cls-16 {
        fill: #f5f5f5;
      }

      .cls-17 {
        isolation: isolate;
      }

      .cls-18 {
        fill: #d6d6d6;
      }

      .cls-19 {
        fill: #c9c9c9;
      }

      .cls-20 {
        fill: #e0e0e0;
      }

      .cls-21 {
        fill: #c7c7c7;
      }

      .cls-22 {
        fill: #dedede;
      }

      .cls-23 {
        fill: #cfcfcf;
      }

      .cls-24 {
        fill: #d7d7d7;
      }

      .cls-25 {
        fill: #e1e1e1;
      }

      .cls-26 {
        fill: #e6e6e6;
      }

      .cls-27 {
        fill: #e7e7e7;
      }

      .cls-28 {
        fill: #d4d4d4;
      }

      .cls-29 {
        fill: #dadada;
      }

      .cls-30 {
        fill: #eaeaea;
      }

      .cls-31 {
        fill: #c8c8c8;
      }

      .cls-32 {
        fill: #fdfdfd;
      }

      .cls-33 {
        fill: #e4e4e4;
      }

      .cls-34 {
        fill: #fbfbfb;
      }

      .cls-35 {
        fill: #f9f9f9;
      }

      .cls-36 {
        fill: #8f8f8e;
      }

      .cls-37 {
        fill: #e5e5e5;
      }

      .cls-38 {
        fill: #d3d3d3;
      }

      .cls-39 {
        fill: #ebebeb;
      }

      .cls-40 {
        fill: #d5d5d5;
      }

      .cls-41 {
        fill: #dcdcdc;
      }

      .cls-42 {
        fill: #706f6f;
      }

      .cls-42, .cls-43 {
        mix-blend-mode: multiply;
      }

      .cls-44 {
        fill: #e8e8e8;
      }

      .cls-45 {
        fill: #ccc;
      }

      .cls-46 {
        fill: #f7f7f7;
      }

      .cls-47 {
        fill: #efefef;
      }

      .cls-48 {
        fill: #f1f1f1;
      }

      .cls-49 {
        fill: url(#linear-gradient-3);
      }

      .cls-50 {
        fill: #cecece;
      }

      .cls-51 {
        fill: url(#linear-gradient);
      }

      .cls-52 {
        fill: #f3f3f3;
      }

      .cls-53 {
        fill: #d9d9d9;
      }

      .cls-54 {
        fill: #cdcdcd;
      }

      .cls-55 {
        fill: #f8f8f8;
      }

      .cls-56 {
        fill: #d2d2d2;
      }

      .cls-57 {
        fill: #c6c6c6;
      }

      .cls-58 {
        fill: #eee;
      }

      .cls-59 {
        fill: #d0d0d0;
      }

      .cls-60 {
        fill: #ececec;
      }

      .cls-61 {
        fill: #f2f2f2;
      }

      .cls-62 {
        fill: #fefefe;
      }

      .cls-63 {
        fill: #e3e3e3;
      }

      .cls-64 {
        fill: #fcfcfc;
      }

      .cls-65 {
        fill: #ededed;
      }

      .cls-66 {
        fill: #dfdfdf;
      }
    </style>
    <linearGradient id="linear-gradient" x1="96.67" y1="157.27" x2="299.37" y2="157.27" gradientUnits="userSpaceOnUse">
      <stop offset="0" stop-color="#c7c7c7"/>
      <stop offset="1" stop-color="#b3b3b3"/>
    </linearGradient>
    <linearGradient id="linear-gradient-2" x1="298.93" y1="186.17" x2="516.17" y2="186.17" xlink:href="#linear-gradient"/>
    <linearGradient id="linear-gradient-3" x1="527.05" y1="167.7" x2="749.69" y2="167.7" xlink:href="#linear-gradient"/>
    <linearGradient id="linear-gradient-4" x1="1458.31" y1="560.76" x2="2126.69" y2="560.76" gradientTransform="translate(2210.09 642.87) rotate(-180)" gradientUnits="userSpaceOnUse">
      <stop offset="0" stop-color="#fff"/>
      <stop offset="1" stop-color="#ccc"/>
    </linearGradient>
  </defs>
  <g class="cls-17">
    <g id="Layer_1" data-name="Layer 1">
      <g>
        <g class="cls-43">
          <path class="cls-6" d="m0,183.65h13.28v52.29h89.84c-.88,1.1-1.48,2.28-1.48,3.59,0,4.5,5.82,8.14,12.99,8.14s12.99-3.64,12.99-8.14c0-1.3-.6-2.49-1.48-3.59h89.84v-52.29h3.01l166.84,49.49c-.89.74-1.57,1.63-1.9,2.69-1.35,4.3,3.11,9.43,9.97,11.47,6.85,2.03,13.52.19,14.89-4.1.33-1.05.29-2.16-.02-3.26l19.35,5.74,4.66-14.7-159.61-47.34h255.44l-84.95,9.84,1.88,15.26,20.11-2.33c-.52,1.03-.75,2.11-.62,3.21.54,4.46,6.78,7.41,13.9,6.59,7.12-.84,12.45-5.11,11.89-9.57-.13-1.1-.62-2.1-1.38-2.97l172.88-20.01h6.05V21.86H0v161.79Z"/>
          <path class="cls-62" d="m1.44,183.29h13.28v52.29h89.84c-.88,1.1-1.48,2.28-1.48,3.59,0,4.5,5.82,8.14,12.99,8.14s12.99-3.64,12.99-8.14c0-1.3-.6-2.49-1.48-3.59h89.84v-52.29h3.01l166.84,49.49c-.89.74-1.57,1.63-1.9,2.69-1.35,4.3,3.11,9.43,9.97,11.47,6.85,2.03,13.52.19,14.89-4.1.33-1.05.29-2.16-.02-3.26l19.35,5.74,4.66-14.7-159.61-47.34h255.44l-84.95,9.84,1.88,15.26,20.11-2.33c-.52,1.03-.75,2.11-.62,3.21.54,4.46,6.78,7.41,13.9,6.59,7.12-.84,12.43-5.11,11.89-9.57-.13-1.1-.62-2.1-1.38-2.97l172.88-20.01h6.05V21.5H1.44v161.79Z"/>
          <path class="cls-32" d="m2.88,182.94h13.28v52.29h89.84c-.88,1.1-1.48,2.28-1.48,3.59,0,4.5,5.82,8.14,12.99,8.14s12.99-3.64,12.99-8.14c0-1.3-.6-2.49-1.48-3.59h89.84v-52.29h3.01l166.84,49.49c-.89.74-1.57,1.63-1.9,2.69-1.35,4.3,3.11,9.43,9.97,11.47,6.85,2.03,13.52.19,14.89-4.1.33-1.05.29-2.16-.02-3.26l19.35,5.74,4.66-14.7-159.61-47.34h255.44l-84.95,9.84,1.88,15.26,20.11-2.33c-.52,1.03-.75,2.11-.62,3.21.54,4.46,6.78,7.41,13.9,6.59,7.12-.84,12.43-5.11,11.89-9.57-.13-1.1-.62-2.1-1.38-2.97l172.88-20.01h6.05V21.15H2.88v161.79Z"/>
          <path class="cls-64" d="m4.31,182.58h13.28v52.29h89.84c-.88,1.1-1.48,2.28-1.48,3.59,0,4.5,5.82,8.14,12.99,8.14s12.99-3.64,12.99-8.14c0-1.3-.6-2.49-1.48-3.59h89.84v-52.29h3.01l166.84,49.49c-.89.74-1.57,1.63-1.9,2.69-1.35,4.3,3.11,9.43,9.97,11.47,6.85,2.03,13.52.19,14.89-4.1.33-1.05.29-2.16-.02-3.26l19.35,5.74,4.66-14.7-159.61-47.34h255.44l-84.95,9.84,1.88,15.26,20.11-2.33c-.52,1.03-.75,2.11-.62,3.21.54,4.46,6.78,7.41,13.9,6.59,7.12-.84,12.43-5.11,11.89-9.57-.13-1.1-.62-2.1-1.38-2.97l172.88-20.01h6.05V20.79H4.31v161.79Z"/>
          <path class="cls-34" d="m5.75,182.23h13.28v52.29h89.84c-.88,1.1-1.48,2.28-1.48,3.59,0,4.5,5.82,8.14,12.99,8.14s12.99-3.64,12.99-8.14c0-1.3-.6-2.49-1.48-3.59h89.84v-52.29h3.01l166.84,49.49c-.89.74-1.57,1.63-1.9,2.69-1.35,4.3,3.11,9.43,9.97,11.47,6.85,2.03,13.52.2,14.89-4.1.33-1.05.29-2.16-.02-3.26l19.35,5.74,4.66-14.7-159.61-47.34h255.44l-84.95,9.84,1.88,15.26,20.11-2.33c-.52,1.03-.75,2.11-.62,3.21.54,4.46,6.78,7.41,13.9,6.59,7.12-.84,12.43-5.11,11.89-9.57-.13-1.1-.62-2.1-1.38-2.97l172.88-20.01h6.05V20.44H5.75v161.79Z"/>
          <path class="cls-10" d="m7.19,181.87h13.28v52.29h89.84c-.88,1.1-1.48,2.28-1.48,3.59,0,4.5,5.82,8.14,12.99,8.14s12.99-3.64,12.99-8.14c0-1.3-.6-2.49-1.48-3.59h89.84v-52.29h3.01l166.84,49.49c-.89.74-1.57,1.63-1.9,2.69-1.35,4.3,3.11,9.43,9.97,11.47,6.85,2.03,13.52.2,14.88-4.1.33-1.05.29-2.16-.02-3.26l19.35,5.74,4.66-14.7-159.61-47.34h255.44l-84.95,9.84,1.88,15.26,20.11-2.33c-.52,1.03-.75,2.11-.62,3.21.54,4.46,6.78,7.41,13.9,6.59,7.12-.84,12.43-5.11,11.89-9.57-.13-1.1-.62-2.1-1.38-2.97l172.88-20.01h6.05V20.08H7.19v161.79Z"/>
          <path class="cls-35" d="m8.63,181.51h13.28v52.29h89.84c-.88,1.1-1.48,2.28-1.48,3.59,0,4.5,5.82,8.14,12.99,8.14s12.99-3.64,12.99-8.14c0-1.3-.6-2.49-1.48-3.59h89.84v-52.29h3.01l166.84,49.49c-.89.74-1.57,1.63-1.9,2.69-1.35,4.3,3.11,9.43,9.97,11.47,6.85,2.03,13.52.2,14.88-4.1.33-1.05.29-2.16-.02-3.26l19.35,5.74,4.66-14.7-159.61-47.34h255.44l-84.95,9.84,1.88,15.26,20.11-2.33c-.52,1.03-.75,2.11-.62,3.21.54,4.46,6.78,7.41,13.9,6.59,7.12-.84,12.43-5.11,11.89-9.57-.13-1.1-.62-2.1-1.38-2.97l172.88-20.01h6.05V19.72H8.63v161.79Z"/>
          <path class="cls-55" d="m10.07,181.16h13.28v52.29h89.84c-.88,1.1-1.48,2.28-1.48,3.59,0,4.5,5.82,8.14,12.99,8.14s12.99-3.64,12.99-8.14c0-1.3-.6-2.49-1.48-3.59h89.84v-52.29h3.01l166.84,49.49c-.89.74-1.57,1.63-1.9,2.69-1.35,4.3,3.11,9.43,9.97,11.47,6.85,2.03,13.52.2,14.88-4.1.33-1.05.29-2.16-.02-3.26l19.35,5.74,4.66-14.7-159.61-47.34h255.44l-84.95,9.83,1.88,15.26,20.11-2.33c-.52,1.03-.75,2.11-.62,3.21.54,4.46,6.78,7.41,13.9,6.59,7.12-.84,12.43-5.11,11.89-9.57-.13-1.1-.62-2.1-1.38-2.97l172.88-20.01h6.05V19.37H10.07v161.79Z"/>
          <path class="cls-46" d="m11.5,180.8h13.28v52.29h89.84c-.88,1.1-1.48,2.28-1.48,3.59,0,4.5,5.82,8.14,12.99,8.14s12.99-3.64,12.99-8.14c0-1.3-.6-2.49-1.48-3.59h89.84v-52.29h3.01l166.84,49.49c-.89.74-1.57,1.63-1.9,2.69-1.35,4.3,3.11,9.43,9.97,11.47,6.85,2.03,13.52.2,14.88-4.1.33-1.05.29-2.16-.02-3.26l19.35,5.74,4.66-14.7-159.61-47.34h255.44l-84.95,9.83,1.88,15.26,20.11-2.33c-.52,1.03-.75,2.11-.62,3.21.54,4.46,6.78,7.41,13.9,6.59,7.12-.84,12.43-5.11,11.89-9.57-.13-1.1-.62-2.1-1.38-2.97l172.88-20.01h6.05V19.01H11.5v161.79Z"/>
          <path class="cls-14" d="m12.94,180.45h13.28v52.29h89.84c-.88,1.1-1.48,2.28-1.48,3.59,0,4.5,5.82,8.14,12.99,8.14s12.99-3.64,12.99-8.14c0-1.3-.6-2.49-1.48-3.59h89.84v-52.29h3.01l166.84,49.49c-.89.74-1.57,1.63-1.9,2.69-1.35,4.3,3.11,9.43,9.97,11.47,6.85,2.03,13.52.2,14.88-4.1.33-1.05.29-2.16-.02-3.26l19.35,5.74,4.66-14.7-159.61-47.34h255.44l-84.95,9.83,1.88,15.26,20.11-2.33c-.52,1.03-.75,2.11-.62,3.21.54,4.46,6.78,7.41,13.9,6.59,7.12-.84,12.43-5.11,11.89-9.57-.13-1.1-.62-2.1-1.38-2.97l172.88-20.01h6.05V18.66H12.94v161.79Z"/>
          <path class="cls-16" d="m14.38,180.09h13.28v52.29h89.84c-.88,1.1-1.48,2.28-1.48,3.59,0,4.5,5.82,8.14,12.99,8.14s12.99-3.64,12.99-8.14c0-1.3-.6-2.49-1.48-3.59h89.84v-52.29h3.01l166.84,49.49c-.89.74-1.57,1.63-1.9,2.69-1.35,4.3,3.11,9.43,9.97,11.47,6.85,2.03,13.52.2,14.88-4.1.33-1.05.29-2.16-.02-3.26l19.35,5.74,4.66-14.7-159.61-47.34h255.44l-84.95,9.83,1.88,15.26,20.11-2.33c-.52,1.03-.75,2.11-.62,3.21.54,4.46,6.78,7.41,13.9,6.59,7.12-.84,12.43-5.11,11.89-9.57-.13-1.1-.62-2.1-1.38-2.97l172.88-20.01h6.05V18.3H14.38v161.79Z"/>
          <path class="cls-5" d="m15.82,179.73h13.28v52.29h89.84c-.88,1.1-1.48,2.28-1.48,3.59,0,4.5,5.82,8.14,12.99,8.14s12.99-3.64,12.99-8.14c0-1.3-.6-2.49-1.48-3.59h89.84v-52.29h3.01l166.84,49.49c-.89.74-1.57,1.63-1.9,2.69-1.35,4.3,3.11,9.43,9.97,11.47,6.85,2.03,13.52.2,14.88-4.1.33-1.05.29-2.16-.02-3.26l19.35,5.74,4.66-14.7-159.61-47.34h255.44l-84.95,9.83,1.88,15.26,20.11-2.33c-.52,1.03-.75,2.11-.62,3.21.54,4.46,6.78,7.41,13.9,6.59,7.12-.84,12.43-5.11,11.89-9.57-.13-1.1-.62-2.1-1.38-2.97l172.88-20.01h6.05V17.94H15.82v161.79Z"/>
          <path class="cls-52" d="m17.25,179.38h13.28v52.29h89.84c-.88,1.1-1.48,2.28-1.48,3.59,0,4.5,5.82,8.14,12.99,8.14s12.99-3.64,12.99-8.14c0-1.3-.6-2.49-1.48-3.59h89.84v-52.29h3.01l166.84,49.49c-.89.74-1.57,1.63-1.9,2.69-1.35,4.3,3.11,9.43,9.97,11.47,6.85,2.03,13.52.2,14.88-4.1.33-1.05.29-2.16-.02-3.26l19.35,5.74,4.66-14.7-159.61-47.34h255.44l-84.95,9.83,1.88,15.26,20.11-2.33c-.52,1.03-.75,2.11-.62,3.21.54,4.46,6.78,7.41,13.9,6.59,7.12-.84,12.43-5.11,11.89-9.57-.13-1.1-.62-2.1-1.38-2.97l172.88-20.01h6.05V17.59H17.25v161.79Z"/>
          <path class="cls-61" d="m18.69,179.02h13.28v52.29h89.84c-.88,1.1-1.48,2.28-1.48,3.59,0,4.5,5.82,8.14,12.99,8.14s12.99-3.64,12.99-8.14c0-1.3-.6-2.49-1.48-3.59h89.84v-52.29h3.01l166.84,49.49c-.89.74-1.57,1.63-1.9,2.69-1.35,4.3,3.11,9.43,9.97,11.47,6.85,2.03,13.52.2,14.88-4.1.33-1.05.29-2.16-.02-3.26l19.35,5.74,4.66-14.7-159.61-47.34h255.44l-84.95,9.83,1.88,15.26,20.11-2.33c-.52,1.03-.75,2.11-.62,3.21.54,4.46,6.78,7.41,13.9,6.59,7.12-.84,12.43-5.11,11.89-9.57-.13-1.1-.62-2.1-1.38-2.97l172.88-20.01h6.05V17.23H18.69v161.79Z"/>
          <path class="cls-48" d="m20.13,178.67h13.28v52.29h89.84c-.88,1.1-1.48,2.28-1.48,3.59,0,4.5,5.82,8.14,12.99,8.14s12.99-3.64,12.99-8.14c0-1.3-.6-2.49-1.48-3.59h89.84v-52.29h3.01l166.84,49.49c-.89.74-1.57,1.63-1.9,2.69-1.35,4.3,3.11,9.43,9.97,11.47,6.85,2.03,13.52.2,14.88-4.1.33-1.05.29-2.16-.02-3.26l19.35,5.74,4.66-14.7-159.61-47.34h255.44l-84.95,9.83,1.88,15.26,20.11-2.33c-.52,1.03-.75,2.11-.62,3.21.54,4.46,6.78,7.41,13.9,6.59,7.12-.84,12.43-5.11,11.89-9.57-.13-1.1-.62-2.1-1.38-2.97l172.88-20.01h6.05V16.88H20.13v161.79Z"/>
          <path class="cls-4" d="m21.57,178.31h13.28v52.29h89.84c-.88,1.1-1.48,2.28-1.48,3.59,0,4.5,5.82,8.14,12.99,8.14s12.99-3.64,12.99-8.14c0-1.3-.6-2.49-1.48-3.59h89.84v-52.29h3.01l166.84,49.49c-.89.74-1.57,1.63-1.9,2.69-1.35,4.3,3.11,9.43,9.97,11.47,6.85,2.03,13.52.2,14.88-4.1.33-1.05.29-2.16-.02-3.26l19.35,5.74,4.66-14.7-159.61-47.34h255.44l-84.95,9.83,1.88,15.26,20.11-2.33c-.52,1.03-.75,2.11-.62,3.21.54,4.46,6.78,7.41,13.9,6.59,7.12-.84,12.43-5.11,11.89-9.57-.13-1.1-.62-2.1-1.38-2.97l172.88-20.01h6.05V16.52H21.57v161.79Z"/>
          <path class="cls-47" d="m23.01,177.96h13.28v52.29h89.84c-.88,1.1-1.48,2.28-1.48,3.59,0,4.5,5.82,8.14,12.99,8.14s12.99-3.64,12.99-8.14c0-1.3-.6-2.49-1.48-3.59h89.84v-52.29h3.01l166.84,49.49c-.89.74-1.57,1.63-1.9,2.69-1.35,4.3,3.11,9.43,9.97,11.47,6.85,2.03,13.52.2,14.88-4.1.33-1.05.29-2.16-.02-3.26l19.35,5.74,4.66-14.7-159.61-47.34h255.44l-84.95,9.83,1.88,15.26,20.11-2.33c-.52,1.03-.75,2.11-.62,3.21.54,4.46,6.78,7.41,13.9,6.59,7.12-.84,12.43-5.11,11.89-9.57-.13-1.1-.62-2.1-1.38-2.97l172.88-20.01h6.05V16.16H23.01v161.79Z"/>
          <path class="cls-58" d="m24.44,177.6h13.28v52.29h89.84c-.88,1.1-1.48,2.28-1.48,3.59,0,4.5,5.82,8.14,12.99,8.14s12.99-3.64,12.99-8.14c0-1.3-.6-2.49-1.48-3.59h89.84v-52.29h3.01l166.84,49.49c-.89.74-1.57,1.63-1.9,2.69-1.35,4.3,3.11,9.43,9.97,11.47,6.85,2.03,13.52.2,14.88-4.1.33-1.05.29-2.16-.02-3.26l19.35,5.74,4.66-14.7-159.61-47.34h255.44l-84.95,9.83,1.88,15.26,20.11-2.33c-.52,1.03-.75,2.11-.62,3.21.54,4.46,6.78,7.41,13.9,6.59,7.12-.84,12.43-5.11,11.89-9.57-.13-1.1-.62-2.1-1.38-2.97l172.88-20.01h6.05V15.81H24.44v161.79Z"/>
          <path class="cls-65" d="m25.88,177.24h13.28v52.29h89.84c-.88,1.1-1.48,2.28-1.48,3.59,0,4.5,5.82,8.14,12.99,8.14s12.99-3.64,12.99-8.14c0-1.3-.6-2.49-1.48-3.59h89.84v-52.29h3.01l166.84,49.49c-.89.74-1.57,1.63-1.9,2.69-1.35,4.3,3.11,9.43,9.97,11.47,6.85,2.03,13.52.2,14.88-4.1.33-1.05.29-2.16-.02-3.26l19.35,5.74,4.66-14.7-159.61-47.34h255.44l-84.95,9.83,1.88,15.26,20.11-2.33c-.52,1.03-.75,2.11-.62,3.21.54,4.46,6.78,7.41,13.9,6.59,7.12-.84,12.43-5.11,11.89-9.57-.13-1.1-.62-2.1-1.38-2.97l172.88-20.01h6.05V15.45H25.88v161.79Z"/>
          <path class="cls-60" d="m27.32,176.89h13.28v52.29h89.84c-.88,1.1-1.48,2.28-1.48,3.59,0,4.5,5.82,8.14,12.99,8.14s12.99-3.64,12.99-8.14c0-1.3-.6-2.49-1.48-3.59h89.84v-52.29h3.01l166.84,49.49c-.89.74-1.57,1.63-1.9,2.69-1.35,4.3,3.11,9.43,9.97,11.47,6.85,2.03,13.52.2,14.88-4.1.33-1.05.29-2.16-.02-3.26l19.35,5.74,4.66-14.7-159.61-47.34h255.44l-84.95,9.83,1.88,15.26,20.11-2.33c-.52,1.03-.75,2.11-.62,3.21.54,4.46,6.78,7.41,13.9,6.59,7.12-.84,12.43-5.11,11.89-9.57-.13-1.1-.62-2.1-1.38-2.97l172.88-20.01h6.05V15.1H27.32v161.79Z"/>
          <path class="cls-39" d="m28.76,176.53h13.28v52.29h89.84c-.88,1.09-1.48,2.28-1.48,3.59,0,4.5,5.82,8.14,12.99,8.14s12.99-3.64,12.99-8.14c0-1.3-.6-2.49-1.48-3.59h89.84v-52.29h3.01l166.84,49.49c-.89.74-1.57,1.63-1.9,2.69-1.35,4.3,3.11,9.43,9.97,11.47,6.85,2.03,13.52.2,14.88-4.1.33-1.05.29-2.16-.02-3.26l19.35,5.74,4.66-14.7-159.61-47.34h255.44l-84.95,9.83,1.88,15.26,20.11-2.33c-.52,1.03-.75,2.11-.62,3.21.54,4.46,6.78,7.41,13.9,6.59,7.12-.84,12.43-5.11,11.89-9.57-.13-1.1-.62-2.1-1.38-2.97l172.88-20.01h6.05V14.74H28.76v161.79Z"/>
          <path class="cls-30" d="m30.2,176.18h13.28v52.29h89.84c-.88,1.09-1.48,2.28-1.48,3.59,0,4.5,5.82,8.14,12.99,8.14s12.99-3.64,12.99-8.14c0-1.3-.6-2.49-1.48-3.59h89.84v-52.29h3.01l166.84,49.49c-.89.74-1.57,1.63-1.9,2.69-1.35,4.3,3.11,9.43,9.97,11.47,6.85,2.03,13.52.2,14.88-4.1.33-1.05.29-2.16-.02-3.26l19.35,5.74,4.66-14.7-159.61-47.34h255.44l-84.95,9.83,1.88,15.26,20.11-2.33c-.52,1.03-.75,2.11-.62,3.21.54,4.46,6.78,7.41,13.9,6.59,7.12-.84,12.43-5.11,11.89-9.57-.13-1.1-.62-2.1-1.38-2.97l172.88-20.01h6.05V14.38H30.2v161.79Z"/>
          <path class="cls-2" d="m31.63,175.82h13.28v52.29h89.84c-.88,1.09-1.48,2.28-1.48,3.59,0,4.5,5.82,8.14,12.99,8.14s12.99-3.64,12.99-8.14c0-1.3-.6-2.49-1.48-3.59h89.84v-52.29h3.01l166.84,49.49c-.89.74-1.57,1.63-1.9,2.69-1.35,4.3,3.11,9.43,9.97,11.47,6.85,2.03,13.52.2,14.88-4.1.33-1.05.29-2.16-.02-3.26l19.35,5.74,4.66-14.7-159.61-47.34h255.44l-84.95,9.83,1.88,15.26,20.11-2.33c-.52,1.03-.75,2.11-.62,3.21.54,4.46,6.78,7.41,13.9,6.59,7.12-.84,12.43-5.11,11.89-9.57-.13-1.1-.62-2.1-1.38-2.97l172.88-20.01h6.05V14.03H31.63v161.79Z"/>
          <path class="cls-44" d="m33.07,175.46h13.28v52.29h89.84c-.88,1.09-1.48,2.28-1.48,3.59,0,4.5,5.82,8.14,12.99,8.14s12.99-3.64,12.99-8.14c0-1.3-.6-2.49-1.48-3.59h89.84v-52.29h3.02l166.84,49.49c-.89.74-1.57,1.63-1.9,2.69-1.35,4.3,3.11,9.43,9.97,11.47,6.85,2.03,13.52.2,14.88-4.1.33-1.05.29-2.16-.02-3.26l19.35,5.74,4.66-14.7-159.61-47.34h255.44l-84.95,9.83,1.88,15.26,20.11-2.33c-.52,1.03-.75,2.11-.62,3.21.54,4.46,6.78,7.41,13.9,6.59,7.12-.84,12.43-5.11,11.89-9.57-.13-1.1-.62-2.1-1.38-2.97l172.88-20.01h6.05V13.67H33.07v161.79Z"/>
          <path class="cls-27" d="m34.51,175.11h13.28v52.29h89.84c-.88,1.09-1.48,2.28-1.48,3.59,0,4.5,5.82,8.14,12.99,8.14s12.99-3.64,12.99-8.14c0-1.3-.6-2.49-1.48-3.59h89.84v-52.29h3.02l166.84,49.49c-.89.74-1.57,1.63-1.9,2.69-1.35,4.3,3.11,9.43,9.97,11.47,6.85,2.03,13.52.2,14.88-4.1.33-1.05.29-2.16-.02-3.26l19.36,5.74,4.66-14.7-159.61-47.34h255.44l-84.95,9.83,1.88,15.26,20.11-2.33c-.52,1.03-.75,2.11-.62,3.21.54,4.46,6.78,7.41,13.9,6.59,7.12-.84,12.43-5.11,11.89-9.57-.13-1.1-.62-2.1-1.38-2.97l172.88-20.01h6.05V13.32H34.51v161.79Z"/>
          <path class="cls-26" d="m35.95,174.75h13.28v52.29h89.83c-.88,1.09-1.48,2.28-1.48,3.59,0,4.5,5.82,8.14,12.99,8.14s12.99-3.64,12.99-8.14c0-1.3-.6-2.49-1.48-3.59h89.84v-52.29h3.02l166.84,49.49c-.89.74-1.57,1.63-1.9,2.69-1.35,4.3,3.11,9.43,9.97,11.47,6.85,2.03,13.52.2,14.88-4.1.33-1.05.29-2.16-.02-3.26l19.36,5.74,4.66-14.7-159.61-47.34h255.44l-84.95,9.83,1.88,15.26,20.11-2.33c-.52,1.03-.75,2.11-.62,3.21.54,4.46,6.78,7.41,13.9,6.59,7.12-.84,12.43-5.11,11.89-9.57-.13-1.1-.62-2.1-1.38-2.97l172.88-20.01h6.05V12.96H35.95v161.79Z"/>
          <path class="cls-37" d="m37.38,174.4h13.28v52.29h89.83c-.88,1.09-1.48,2.28-1.48,3.59,0,4.5,5.82,8.14,12.99,8.14s12.99-3.64,12.99-8.14c0-1.3-.6-2.49-1.48-3.59h89.84v-52.29h3.02l166.84,49.49c-.89.74-1.57,1.63-1.9,2.69-1.35,4.3,3.11,9.43,9.97,11.47,6.85,2.03,13.52.2,14.88-4.1.34-1.05.29-2.16-.02-3.26l19.36,5.74,4.66-14.7-159.61-47.34h255.44l-84.95,9.83,1.88,15.26,20.11-2.33c-.52,1.03-.75,2.11-.62,3.21.54,4.46,6.78,7.41,13.9,6.59,7.12-.84,12.43-5.11,11.89-9.57-.13-1.1-.62-2.1-1.38-2.97l172.88-20.01h6.05V12.6H37.38v161.79Z"/>
          <path class="cls-33" d="m38.82,174.04h13.28v52.29h89.83c-.88,1.09-1.48,2.28-1.48,3.59,0,4.5,5.82,8.14,12.99,8.14s12.99-3.64,12.99-8.14c0-1.3-.6-2.49-1.48-3.59h89.84v-52.29h3.02l166.84,49.49c-.89.74-1.57,1.63-1.9,2.69-1.35,4.3,3.11,9.43,9.97,11.47,6.85,2.03,13.52.2,14.88-4.1.34-1.05.3-2.16-.02-3.26l19.36,5.74,4.66-14.7-159.61-47.34h255.44l-84.95,9.83,1.88,15.26,20.11-2.33c-.52,1.03-.75,2.11-.62,3.21.54,4.46,6.78,7.41,13.9,6.59,7.12-.84,12.43-5.11,11.89-9.57-.13-1.1-.62-2.1-1.38-2.97l172.88-20.01h6.05V12.25H38.82v161.79Z"/>
          <path class="cls-63" d="m40.26,173.68h13.28v52.29h89.83c-.88,1.09-1.48,2.28-1.48,3.59,0,4.5,5.82,8.14,12.99,8.14s12.99-3.64,12.99-8.14c0-1.3-.6-2.49-1.48-3.59h89.84v-52.29h3.02l166.84,49.49c-.89.74-1.57,1.63-1.9,2.69-1.35,4.3,3.11,9.43,9.97,11.47,6.85,2.03,13.52.2,14.88-4.1.34-1.05.3-2.16-.02-3.26l19.36,5.74,4.66-14.7-159.61-47.34h255.44l-84.95,9.83,1.88,15.26,20.11-2.33c-.52,1.03-.75,2.11-.62,3.21.54,4.46,6.78,7.41,13.9,6.59,7.12-.84,12.43-5.11,11.89-9.57-.13-1.1-.62-2.1-1.38-2.97l172.88-20.01h6.05V11.89H40.26v161.79Z"/>
          <path class="cls-15" d="m41.7,173.33h13.28v52.29h89.83c-.88,1.09-1.48,2.28-1.48,3.59,0,4.5,5.82,8.14,12.99,8.14s12.99-3.64,12.99-8.14c0-1.3-.6-2.49-1.48-3.59h89.83v-52.29h3.02l166.84,49.49c-.89.74-1.57,1.63-1.9,2.69-1.35,4.3,3.11,9.43,9.97,11.47,6.85,2.03,13.52.2,14.88-4.1.34-1.05.3-2.16-.02-3.26l19.36,5.74,4.66-14.7-159.61-47.34h255.44l-84.95,9.83,1.88,15.26,20.11-2.33c-.52,1.03-.75,2.11-.62,3.21.54,4.46,6.78,7.41,13.9,6.59,7.12-.84,12.43-5.11,11.89-9.57-.13-1.1-.62-2.1-1.38-2.97l172.88-20.01h6.05V11.54H41.7v161.79Z"/>
          <path class="cls-15" d="m43.14,172.97h13.28v52.29h89.83c-.88,1.09-1.48,2.28-1.48,3.59,0,4.5,5.82,8.14,12.99,8.14s12.99-3.64,12.99-8.14c0-1.3-.6-2.49-1.48-3.59h89.83v-52.29h3.02l166.84,49.49c-.89.74-1.57,1.63-1.9,2.69-1.35,4.3,3.11,9.43,9.97,11.47,6.85,2.03,13.52.2,14.88-4.1.34-1.05.3-2.16-.02-3.26l19.36,5.74,4.66-14.7-159.61-47.34h255.44l-84.95,9.83,1.88,15.26,20.11-2.33c-.52,1.03-.75,2.11-.62,3.21.54,4.46,6.78,7.41,13.9,6.59,7.12-.84,12.43-5.11,11.89-9.57-.13-1.1-.62-2.1-1.38-2.97l172.88-20.01h6.05V11.18H43.14v161.79Z"/>
          <path class="cls-25" d="m44.57,172.62h13.28v52.29h89.83c-.88,1.09-1.48,2.28-1.48,3.59,0,4.5,5.82,8.14,12.99,8.14s12.99-3.64,12.99-8.14c0-1.3-.6-2.49-1.48-3.59h89.83v-52.29h3.02l166.84,49.49c-.89.74-1.57,1.63-1.9,2.69-1.35,4.3,3.11,9.43,9.97,11.47,6.85,2.03,13.52.2,14.88-4.1.34-1.05.3-2.16-.02-3.26l19.36,5.74,4.66-14.7-159.61-47.34h255.44l-84.95,9.83,1.88,15.26,20.11-2.33c-.52,1.03-.75,2.11-.62,3.21.54,4.46,6.78,7.41,13.9,6.59,7.12-.84,12.43-5.11,11.89-9.57-.13-1.1-.62-2.1-1.38-2.97l172.88-20.01h6.05V10.83H44.57v161.79Z"/>
          <path class="cls-20" d="m46.01,172.26h13.28v52.29h89.83c-.88,1.09-1.48,2.28-1.48,3.59,0,4.5,5.82,8.14,12.99,8.14s12.99-3.64,12.99-8.14c0-1.3-.6-2.49-1.48-3.59h89.83v-52.29h3.02l166.84,49.49c-.89.74-1.57,1.63-1.9,2.69-1.35,4.3,3.11,9.43,9.97,11.47,6.85,2.03,13.52.2,14.88-4.1.34-1.06.3-2.16-.02-3.26l19.36,5.74,4.66-14.7-159.61-47.34h255.44l-84.95,9.83,1.88,15.26,20.11-2.33c-.52,1.03-.75,2.11-.62,3.21.54,4.46,6.78,7.41,13.9,6.59,7.12-.84,12.43-5.11,11.89-9.57-.13-1.1-.62-2.1-1.38-2.97l172.88-20.01h6.05V10.47H46.01v161.79Z"/>
          <path class="cls-66" d="m47.45,171.9h13.28v52.29h89.83c-.88,1.09-1.48,2.28-1.48,3.59,0,4.5,5.82,8.14,12.99,8.14s12.99-3.64,12.99-8.14c0-1.3-.6-2.49-1.48-3.59h89.83v-52.29h3.02l166.84,49.49c-.89.74-1.57,1.63-1.9,2.69-1.35,4.3,3.11,9.43,9.97,11.47,6.85,2.03,13.52.2,14.88-4.1.34-1.06.3-2.16-.02-3.26l19.36,5.74,4.66-14.7-159.61-47.34h255.44l-84.95,9.83,1.88,15.27,20.11-2.33c-.52,1.03-.75,2.11-.62,3.21.54,4.46,6.78,7.41,13.9,6.59,7.12-.84,12.43-5.11,11.89-9.57-.13-1.1-.62-2.1-1.38-2.97l172.88-20.01h6.05V10.11H47.45v161.79Z"/>
          <path class="cls-22" d="m48.89,171.55h13.28v52.29h89.83c-.88,1.09-1.48,2.28-1.48,3.59,0,4.5,5.82,8.14,12.99,8.14s12.99-3.64,12.99-8.14c0-1.3-.6-2.49-1.48-3.59h89.83v-52.29h3.02l166.84,49.49c-.89.74-1.57,1.63-1.9,2.69-1.35,4.3,3.11,9.43,9.97,11.47,6.85,2.03,13.52.2,14.88-4.1.34-1.06.3-2.16-.02-3.26l19.36,5.74,4.66-14.7-159.61-47.34h255.44l-84.95,9.83,1.88,15.27,20.11-2.33c-.52,1.03-.75,2.11-.62,3.21.54,4.46,6.78,7.41,13.9,6.59,7.12-.84,12.43-5.11,11.89-9.57-.13-1.1-.62-2.1-1.38-2.97l172.88-20.01h6.05V9.76H48.89v161.79Z"/>
          <path class="cls-1" d="m50.33,171.19h13.28v52.29h89.83c-.88,1.09-1.48,2.28-1.48,3.59,0,4.5,5.82,8.14,12.99,8.14s12.99-3.64,12.99-8.14c0-1.3-.6-2.49-1.48-3.59h89.83v-52.29h3.02l166.84,49.49c-.89.74-1.57,1.63-1.9,2.69-1.35,4.3,3.11,9.43,9.97,11.47,6.85,2.03,13.52.2,14.88-4.1.34-1.06.3-2.16-.02-3.26l19.36,5.74,4.66-14.7-159.61-47.34h255.44l-84.95,9.83,1.88,15.27,20.11-2.33c-.52,1.03-.75,2.11-.62,3.21.54,4.46,6.78,7.41,13.9,6.59,7.12-.84,12.43-5.11,11.89-9.57-.13-1.1-.62-2.1-1.38-2.97l172.88-20.01h6.05V9.4H50.33v161.79Z"/>
          <path class="cls-41" d="m51.76,170.84h13.28v52.29h89.83c-.88,1.09-1.48,2.28-1.48,3.59,0,4.5,5.82,8.14,12.99,8.14s12.99-3.64,12.99-8.14c0-1.3-.6-2.49-1.48-3.59h89.83v-52.29h3.02l166.84,49.49c-.89.74-1.57,1.63-1.9,2.69-1.35,4.3,3.11,9.43,9.97,11.47,6.85,2.03,13.52.2,14.88-4.1.34-1.06.3-2.16-.02-3.26l19.36,5.74,4.66-14.7-159.61-47.34h255.44l-84.95,9.83,1.88,15.27,20.11-2.33c-.52,1.03-.75,2.11-.62,3.21.54,4.46,6.78,7.41,13.9,6.59,7.12-.84,12.43-5.11,11.89-9.57-.13-1.1-.62-2.1-1.38-2.97l172.88-20.01h6.05V9.05H51.76v161.79Z"/>
          <path class="cls-11" d="m53.2,170.48h13.28v52.29h89.83c-.88,1.09-1.48,2.28-1.48,3.59,0,4.5,5.82,8.14,12.99,8.14s12.99-3.64,12.99-8.14c0-1.3-.6-2.49-1.48-3.59h89.83v-52.29h3.02l166.84,49.49c-.89.74-1.57,1.63-1.9,2.69-1.35,4.3,3.11,9.43,9.97,11.47,6.85,2.03,13.52.2,14.88-4.1.34-1.06.3-2.16-.02-3.26l19.36,5.74,4.66-14.7-159.61-47.34h255.44l-84.95,9.83,1.88,15.27,20.11-2.33c-.52,1.03-.75,2.11-.62,3.21.54,4.46,6.78,7.41,13.9,6.59,7.12-.84,12.43-5.11,11.89-9.57-.13-1.1-.62-2.1-1.38-2.97l172.88-20.01h6.05V8.69H53.2v161.79Z"/>
          <path class="cls-29" d="m54.64,170.12h13.28v52.29h89.83c-.88,1.09-1.48,2.28-1.48,3.59,0,4.5,5.82,8.14,12.99,8.14s12.99-3.64,12.99-8.14c0-1.3-.6-2.49-1.48-3.59h89.83v-52.29h3.02l166.84,49.49c-.89.74-1.57,1.63-1.9,2.69-1.35,4.3,3.11,9.43,9.97,11.47,6.85,2.03,13.52.2,14.88-4.1.34-1.06.3-2.16-.02-3.26l19.36,5.74,4.66-14.7-159.61-47.34h255.44l-84.95,9.83,1.88,15.27,20.11-2.33c-.52,1.03-.75,2.11-.62,3.21.54,4.46,6.78,7.41,13.9,6.59,7.12-.84,12.43-5.11,11.89-9.57-.13-1.1-.62-2.1-1.38-2.97l172.88-20.01h6.05V8.33H54.64v161.79Z"/>
          <path class="cls-53" d="m56.08,169.77h13.28v52.29h89.83c-.88,1.09-1.48,2.28-1.48,3.59,0,4.5,5.82,8.14,12.99,8.14s12.99-3.64,12.99-8.14c0-1.3-.6-2.49-1.48-3.59h89.83v-52.29h3.02l166.84,49.49c-.89.74-1.57,1.63-1.9,2.69-1.35,4.3,3.11,9.43,9.97,11.47,6.85,2.03,13.52.2,14.88-4.1.34-1.06.3-2.16-.02-3.26l19.36,5.74,4.66-14.7-159.61-47.34h255.44l-84.95,9.83,1.88,15.27,20.11-2.33c-.52,1.03-.75,2.11-.62,3.21.54,4.46,6.78,7.41,13.9,6.59,7.12-.84,12.43-5.11,11.89-9.57-.13-1.1-.62-2.1-1.38-2.97l172.88-20.01h6.05V7.98H56.08v161.79Z"/>
          <path class="cls-13" d="m57.52,169.41h13.28v52.29h89.83c-.88,1.09-1.48,2.28-1.48,3.59,0,4.5,5.82,8.14,12.99,8.14s12.99-3.64,12.99-8.14c0-1.3-.6-2.49-1.48-3.59h89.83v-52.29h3.02l166.84,49.49c-.89.74-1.57,1.63-1.9,2.69-1.35,4.3,3.11,9.43,9.97,11.47,6.85,2.03,13.52.2,14.88-4.09.34-1.06.3-2.16-.02-3.26l19.36,5.74,4.66-14.7-159.61-47.34h255.44l-84.95,9.83,1.88,15.27,20.11-2.33c-.51,1.03-.75,2.11-.62,3.21.54,4.46,6.78,7.41,13.9,6.59,7.12-.84,12.43-5.11,11.89-9.57-.13-1.1-.62-2.1-1.38-2.97l172.88-20.01h6.05V7.62H57.52v161.79Z"/>
          <path class="cls-24" d="m58.95,169.06h13.28v52.29h89.83c-.88,1.09-1.48,2.28-1.48,3.59,0,4.5,5.82,8.14,12.99,8.14s12.99-3.64,12.99-8.14c0-1.3-.6-2.5-1.48-3.59h89.83v-52.29h3.02l166.84,49.49c-.89.74-1.57,1.63-1.9,2.69-1.35,4.3,3.11,9.43,9.97,11.47,6.85,2.03,13.52.2,14.88-4.09.34-1.06.3-2.16-.02-3.26l19.36,5.74,4.66-14.7-159.61-47.34h255.44l-84.95,9.83,1.88,15.27,20.11-2.33c-.51,1.03-.75,2.11-.62,3.21.54,4.46,6.78,7.41,13.9,6.59,7.12-.84,12.43-5.11,11.89-9.57-.13-1.1-.62-2.1-1.38-2.97l172.88-20.01h6.05V7.27H58.95v161.79Z"/>
          <path class="cls-18" d="m60.39,168.7h13.28v52.29h89.83c-.88,1.09-1.48,2.28-1.48,3.59,0,4.5,5.82,8.14,12.99,8.14s12.99-3.64,12.99-8.14c0-1.3-.6-2.5-1.48-3.59h89.83v-52.29h3.02l166.84,49.49c-.89.74-1.57,1.63-1.9,2.69-1.35,4.3,3.11,9.43,9.97,11.47,6.85,2.03,13.52.2,14.88-4.09.34-1.06.3-2.16-.02-3.26l19.36,5.74,4.66-14.7-159.61-47.34h255.44l-84.95,9.83,1.88,15.27,20.11-2.33c-.51,1.03-.75,2.11-.62,3.21.54,4.46,6.78,7.41,13.9,6.59,7.12-.84,12.43-5.11,11.89-9.57-.13-1.1-.62-2.1-1.38-2.97l172.88-20.01h6.05V6.91H60.39v161.79Z"/>
          <path class="cls-40" d="m61.83,168.34h13.28v52.29h89.83c-.88,1.09-1.48,2.28-1.48,3.59,0,4.5,5.82,8.14,13,8.14s12.99-3.64,12.99-8.14c0-1.3-.6-2.5-1.48-3.59h89.83v-52.29h3.02l166.84,49.49c-.89.74-1.57,1.63-1.9,2.69-1.35,4.3,3.11,9.44,9.97,11.47,6.85,2.03,13.52.2,14.88-4.09.34-1.06.3-2.16-.02-3.26l19.36,5.74,4.66-14.7-159.61-47.34h255.44l-84.95,9.83,1.88,15.27,20.11-2.33c-.51,1.03-.74,2.11-.61,3.21.54,4.46,6.78,7.41,13.9,6.59,7.12-.84,12.43-5.11,11.89-9.57-.13-1.1-.62-2.1-1.38-2.97l172.88-20.01h6.05V6.55H61.83v161.79Z"/>
          <path class="cls-28" d="m63.27,167.99h13.28v52.29h89.83c-.88,1.09-1.48,2.28-1.48,3.59,0,4.5,5.82,8.14,13,8.14s12.99-3.64,12.99-8.14c0-1.3-.6-2.5-1.48-3.59h89.83v-52.29h3.02l166.84,49.49c-.89.74-1.57,1.63-1.9,2.68-1.35,4.3,3.11,9.44,9.97,11.47,6.85,2.03,13.52.2,14.88-4.09.34-1.06.3-2.16-.02-3.26l19.36,5.74,4.66-14.7-159.61-47.34h255.44l-84.95,9.83,1.88,15.27,20.11-2.33c-.51,1.03-.74,2.11-.61,3.21.54,4.46,6.78,7.41,13.9,6.59,7.12-.84,12.43-5.11,11.89-9.57-.13-1.1-.62-2.1-1.38-2.97l172.88-20.01h6.05V6.2H63.27v161.79Z"/>
          <path class="cls-38" d="m64.7,167.63h13.28v52.29h89.83c-.88,1.09-1.48,2.28-1.48,3.59,0,4.5,5.82,8.14,13,8.14s12.99-3.64,12.99-8.14c0-1.3-.6-2.5-1.48-3.59h89.83v-52.29h3.02l166.84,49.49c-.89.74-1.57,1.63-1.9,2.68-1.35,4.3,3.11,9.44,9.97,11.47,6.85,2.03,13.52.2,14.88-4.09.34-1.06.3-2.16-.02-3.26l19.36,5.74,4.66-14.7-159.61-47.34h255.44l-84.95,9.83,1.88,15.27,20.1-2.33c-.51,1.03-.74,2.11-.61,3.21.54,4.46,6.78,7.41,13.9,6.59,7.12-.84,12.43-5.11,11.89-9.57-.13-1.1-.62-2.1-1.38-2.97l172.88-20.01h6.05V5.84H64.7v161.79Z"/>
          <path class="cls-56" d="m66.14,167.28h13.28v52.29h89.83c-.88,1.09-1.48,2.28-1.48,3.59,0,4.5,5.82,8.14,13,8.14s12.99-3.64,12.99-8.14c0-1.3-.6-2.5-1.48-3.59h89.83v-52.29h3.02l166.84,49.49c-.89.74-1.57,1.63-1.9,2.68-1.35,4.3,3.11,9.44,9.97,11.47,6.85,2.03,13.51.2,14.88-4.09.34-1.06.3-2.16-.02-3.26l19.36,5.74,4.66-14.7-159.61-47.34h255.44l-84.95,9.83,1.88,15.27,20.1-2.33c-.51,1.03-.74,2.11-.61,3.21.54,4.46,6.78,7.41,13.9,6.59,7.12-.84,12.43-5.11,11.89-9.57-.13-1.1-.62-2.1-1.38-2.97l172.88-20.01h6.05V5.49H66.14v161.79Z"/>
          <path class="cls-9" d="m67.58,166.92h13.28v52.29h89.83c-.88,1.09-1.48,2.28-1.48,3.59,0,4.5,5.82,8.14,13,8.14s12.99-3.64,12.99-8.14c0-1.3-.6-2.5-1.48-3.59h89.83v-52.29h3.02l166.84,49.49c-.89.74-1.57,1.63-1.9,2.68-1.35,4.3,3.11,9.44,9.97,11.47,6.85,2.03,13.51.2,14.88-4.09.34-1.06.3-2.16-.02-3.26l19.36,5.74,4.66-14.7-159.61-47.34h255.44l-84.95,9.83,1.88,15.27,20.1-2.33c-.51,1.03-.74,2.11-.61,3.21.54,4.46,6.78,7.41,13.9,6.59,7.12-.84,12.43-5.11,11.89-9.57-.13-1.1-.62-2.1-1.38-2.97l172.88-20.01h6.05V5.13H67.58v161.79Z"/>
          <path class="cls-59" d="m69.02,166.57h13.28v52.29h89.83c-.87,1.09-1.48,2.28-1.48,3.59,0,4.5,5.82,8.14,13,8.14s12.99-3.64,12.99-8.14c0-1.3-.6-2.5-1.48-3.59h89.83v-52.29h3.02l166.84,49.49c-.89.74-1.57,1.63-1.9,2.68-1.35,4.3,3.11,9.44,9.97,11.47,6.85,2.03,13.51.2,14.88-4.09.34-1.06.3-2.16-.02-3.26l19.36,5.74,4.66-14.7-159.61-47.34h255.44l-84.95,9.83,1.88,15.27,20.1-2.33c-.51,1.03-.74,2.11-.61,3.21.54,4.46,6.78,7.41,13.9,6.59,7.12-.84,12.43-5.11,11.89-9.57-.13-1.1-.62-2.1-1.38-2.97l172.88-20.01h6.05V4.77H69.02v161.79Z"/>
          <path class="cls-23" d="m70.46,166.21h13.28v52.29h89.83c-.87,1.09-1.48,2.28-1.48,3.59,0,4.5,5.82,8.14,13,8.14s12.99-3.64,12.99-8.14c0-1.3-.6-2.5-1.48-3.59h89.83v-52.29h3.02l166.84,49.49c-.89.74-1.57,1.63-1.9,2.68-1.35,4.3,3.11,9.44,9.97,11.47,6.85,2.03,13.51.2,14.88-4.09.34-1.06.3-2.16-.02-3.26l19.36,5.74,4.66-14.7-159.61-47.34h255.44l-84.95,9.83,1.88,15.27,20.1-2.33c-.51,1.03-.74,2.11-.61,3.21.54,4.46,6.78,7.41,13.9,6.59,7.12-.84,12.43-5.11,11.89-9.57-.13-1.1-.62-2.1-1.38-2.97l172.88-20.01h6.05V4.42H70.46v161.79Z"/>
          <path class="cls-50" d="m71.89,165.85h13.28v52.29h89.83c-.87,1.09-1.48,2.28-1.48,3.59,0,4.5,5.82,8.14,13,8.14s12.99-3.64,12.99-8.14c0-1.3-.6-2.5-1.48-3.59h89.83v-52.29h3.02l166.84,49.49c-.89.74-1.57,1.63-1.9,2.68-1.35,4.3,3.11,9.44,9.97,11.47,6.85,2.03,13.51.2,14.88-4.09.34-1.06.3-2.16-.02-3.26l19.36,5.74,4.66-14.7-159.61-47.34h255.44l-84.95,9.83,1.88,15.27,20.1-2.33c-.51,1.03-.74,2.11-.61,3.21.54,4.46,6.78,7.41,13.9,6.59,7.12-.84,12.43-5.11,11.89-9.57-.13-1.1-.62-2.1-1.38-2.97l172.88-20.01h6.05V4.06H71.89v161.79Z"/>
          <path class="cls-54" d="m73.33,165.5h13.28v52.29h89.83c-.87,1.09-1.48,2.28-1.48,3.59,0,4.5,5.82,8.14,13,8.14s12.99-3.64,12.99-8.14c0-1.3-.6-2.5-1.48-3.59h89.83v-52.29h3.02l166.84,49.49c-.89.74-1.57,1.63-1.9,2.68-1.35,4.3,3.11,9.44,9.97,11.47,6.85,2.03,13.51.2,14.88-4.09.34-1.06.3-2.16-.02-3.26l19.36,5.74,4.66-14.7-159.61-47.34h255.44l-84.95,9.83,1.88,15.27,20.1-2.33c-.51,1.03-.74,2.11-.61,3.21.54,4.46,6.78,7.41,13.9,6.59,7.12-.84,12.43-5.11,11.89-9.57-.13-1.1-.62-2.1-1.38-2.97l172.88-20.01h6.05V3.71H73.33v161.79Z"/>
          <path class="cls-45" d="m74.77,165.14h13.28v52.29h89.83c-.87,1.09-1.48,2.28-1.48,3.59,0,4.5,5.82,8.14,13,8.14s12.99-3.64,12.99-8.14c0-1.3-.6-2.5-1.48-3.59h89.83v-52.29h3.02l166.84,49.49c-.89.74-1.57,1.63-1.9,2.68-1.35,4.3,3.11,9.44,9.97,11.47,6.85,2.03,13.51.2,14.88-4.09.34-1.06.3-2.16-.02-3.26l19.36,5.74,4.66-14.7-159.61-47.34h255.44l-84.95,9.83,1.88,15.27,20.1-2.33c-.51,1.03-.74,2.11-.61,3.21.54,4.46,6.78,7.41,13.9,6.59,7.12-.84,12.43-5.11,11.89-9.57-.13-1.1-.62-2.1-1.38-2.97l172.88-20.01h6.05V3.35H74.77v161.79Z"/>
          <path class="cls-7" d="m76.21,164.79h13.28v52.29h89.83c-.87,1.09-1.48,2.28-1.48,3.59,0,4.5,5.82,8.14,13,8.14s12.99-3.64,12.99-8.14c0-1.3-.6-2.5-1.48-3.59h89.83v-52.29h3.02l166.84,49.49c-.89.74-1.57,1.63-1.9,2.68-1.35,4.3,3.11,9.44,9.97,11.47,6.85,2.03,13.51.2,14.88-4.09.34-1.06.3-2.16-.02-3.26l19.36,5.74,4.66-14.7-159.61-47.34h255.44l-84.95,9.83,1.88,15.27,20.1-2.33c-.51,1.03-.74,2.11-.61,3.21.54,4.46,6.78,7.41,13.9,6.59,7.12-.84,12.43-5.11,11.89-9.57-.13-1.1-.62-2.1-1.38-2.97l172.88-20.01h6.05V2.99H76.21v161.79Z"/>
          <path class="cls-12" d="m77.65,164.43h13.28v52.29h89.83c-.87,1.09-1.48,2.28-1.48,3.59,0,4.5,5.82,8.14,13,8.14s12.99-3.64,12.99-8.14c0-1.3-.6-2.5-1.48-3.59h89.83v-52.29h3.02l166.84,49.49c-.89.74-1.57,1.63-1.9,2.68-1.35,4.31,3.11,9.44,9.97,11.47,6.85,2.03,13.51.2,14.88-4.09.34-1.06.3-2.16-.02-3.26l19.36,5.74,4.66-14.7-159.61-47.34h255.44l-84.95,9.83,1.88,15.27,20.1-2.33c-.51,1.03-.74,2.11-.61,3.21.54,4.46,6.78,7.41,13.9,6.59,7.12-.84,12.43-5.11,11.89-9.57-.13-1.1-.62-2.1-1.38-2.97l172.88-20.01h6.05V2.64H77.65v161.79Z"/>
          <path class="cls-19" d="m79.08,164.07h13.28v52.29h89.83c-.87,1.09-1.48,2.28-1.48,3.59,0,4.5,5.82,8.14,13,8.14s12.99-3.64,12.99-8.14c0-1.3-.6-2.5-1.48-3.59h89.83v-52.29h3.02l166.84,49.49c-.89.74-1.57,1.63-1.9,2.68-1.35,4.31,3.11,9.44,9.97,11.47,6.85,2.03,13.51.2,14.88-4.09.34-1.06.3-2.16-.02-3.26l19.36,5.74,4.66-14.7-159.61-47.34h255.44l-84.95,9.83,1.88,15.27,20.1-2.33c-.51,1.03-.74,2.11-.61,3.21.54,4.46,6.78,7.41,13.9,6.59,7.12-.84,12.43-5.11,11.89-9.57-.13-1.1-.62-2.1-1.38-2.97l172.88-20.01h6.05V2.28H79.08v161.79Z"/>
          <path class="cls-31" d="m80.52,163.72h13.28v52.29h89.83c-.87,1.09-1.48,2.28-1.48,3.59,0,4.5,5.82,8.14,13,8.14s12.99-3.64,12.99-8.14c0-1.3-.6-2.5-1.48-3.59h89.83v-52.29h3.02l166.84,49.49c-.89.74-1.57,1.63-1.9,2.68-1.35,4.31,3.11,9.44,9.97,11.47,6.85,2.03,13.51.2,14.87-4.09.34-1.06.3-2.16-.02-3.26l19.36,5.74,4.66-14.7-159.6-47.34h255.44l-84.95,9.83,1.88,15.27,20.1-2.33c-.51,1.03-.74,2.11-.61,3.21.54,4.46,6.78,7.41,13.9,6.59,7.12-.84,12.43-5.11,11.89-9.57-.13-1.1-.62-2.1-1.38-2.97l172.88-20.01h6.05V1.93H80.52v161.79Z"/>
          <path class="cls-21" d="m81.96,163.36h13.28v52.29h89.83c-.87,1.09-1.48,2.28-1.48,3.59,0,4.5,5.82,8.14,13,8.14s12.99-3.64,12.99-8.14c0-1.3-.6-2.5-1.48-3.59h89.83v-52.29h3.02l166.84,49.49c-.89.74-1.57,1.63-1.9,2.68-1.35,4.31,3.11,9.44,9.97,11.47,6.85,2.03,13.51.2,14.87-4.09.34-1.06.3-2.16-.02-3.26l19.36,5.74,4.66-14.7-159.6-47.34h255.44l-84.95,9.83,1.88,15.27,20.1-2.33c-.51,1.03-.74,2.11-.61,3.21.54,4.46,6.78,7.41,13.9,6.59,7.12-.84,12.43-5.11,11.89-9.57-.13-1.1-.62-2.1-1.38-2.97l172.88-20.01h6.05V1.57H81.96v161.79Z"/>
          <path class="cls-57" d="m83.4,163.01h13.28v52.29h89.83c-.87,1.09-1.48,2.28-1.48,3.59,0,4.5,5.82,8.14,13,8.14s12.99-3.64,12.99-8.14c0-1.3-.6-2.5-1.48-3.59h89.83v-52.29h3.02l166.84,49.49c-.89.74-1.57,1.63-1.9,2.68-1.35,4.31,3.11,9.44,9.97,11.47,6.85,2.03,13.52.2,14.87-4.09.34-1.06.3-2.16-.02-3.26l19.36,5.74,4.66-14.7-159.6-47.34h255.44l-84.95,9.83,1.88,15.27,20.1-2.33c-.51,1.03-.74,2.11-.61,3.21.54,4.46,6.78,7.41,13.9,6.59,7.12-.84,12.45-5.11,11.89-9.57-.13-1.1-.62-2.1-1.38-2.97l172.88-20.01h6.05V1.21H83.4v161.79Z"/>
        </g>
        <g>
          <path class="cls-36" d="m211.01,218.88c0,4.5-5.82,8.14-12.99,8.14s-13-3.64-13-8.14,5.82-8.14,13-8.14,12.99,3.64,12.99,8.14Z"/>
          <rect class="cls-51" x="96.67" y="99.25" width="202.69" height="116.05"/>
          <rect class="cls-36" x="108.34" y="95.2" width="179.37" height="108.25"/>
          <g>
            <path class="cls-36" d="m492.17,222.56c-1.35,4.3-8.03,6.12-14.87,4.1-6.86-2.04-11.32-7.17-9.97-11.47,1.35-4.3,8.03-6.12,14.88-4.09,6.86,2.03,11.32,7.16,9.96,11.46Z"/>
            <polygon class="cls-3" points="511.51 225.05 298.93 161.98 303.57 147.29 516.17 210.35 511.51 225.05"/>
          </g>
          <g>
            <path class="cls-36" d="m548.42,188.98c.54,4.46,6.78,7.41,13.9,6.59,7.12-.84,12.45-5.11,11.89-9.57-.54-4.46-6.77-7.41-13.89-6.59-7.13.83-12.45,5.11-11.9,9.57Z"/>
            <polygon class="cls-49" points="528.93 188.1 749.69 162.55 747.81 147.29 527.05 172.83 528.93 188.1"/>
          </g>
          <rect class="cls-8" x="83.4" y="1.21" width="668.38" height="161.79"/>
        </g>
        <path class="cls-42" d="m753.03,164.22V0H82.14v164.22h14.53v51.08h89.83c-.87,1.09-1.48,2.28-1.48,3.59,0,4.5,5.82,8.14,13,8.14s12.99-3.64,12.99-8.14c0-1.3-.6-2.5-1.48-3.59h89.83v-51.08h7.11l162.76,48.28c-.89.74-1.57,1.63-1.9,2.69-1.35,4.3,3.11,9.43,9.97,11.46,6.85,2.03,13.52.2,14.87-4.09.34-1.06.3-2.16-.02-3.26l19.36,5.74,4.66-14.7-155.52-46.13h240.86l-74.46,8.61,1.88,15.27,20.1-2.33c-.51,1.03-.74,2.11-.61,3.21.54,4.46,6.78,7.41,13.9,6.59,7.12-.84,12.45-5.11,11.89-9.57-.13-1.1-.62-2.1-1.38-2.97l162.4-18.8h17.8Z"/>
      </g>
    </g>
  </g>
</svg>