<?xml version="1.0" encoding="UTF-8"?>
<svg xmlns="http://www.w3.org/2000/svg" xmlns:xlink="http://www.w3.org/1999/xlink" viewBox="0 0 628.06 240.05">
  <defs>
    <style>
      .cls-1 {
        fill: #ddd;
      }

      .cls-2 {
        fill: #e9e9e9;
      }

      .cls-3 {
        fill: url(#linear-gradient-2);
      }

      .cls-4 {
        fill: #f0f0f0;
      }

      .cls-5 {
        fill: #f4f4f4;
      }

      .cls-6 {
        fill: #fff;
      }

      .cls-7 {
        fill: #cbcbcb;
      }

      .cls-8 {
        fill: #d1d1d1;
      }

      .cls-9 {
        fill: #fafafa;
      }

      .cls-10 {
        fill: #dbdbdb;
      }

      .cls-11 {
        fill: #cacaca;
      }

      .cls-12 {
        fill: #d8d8d8;
      }

      .cls-13 {
        fill: #f6f6f6;
      }

      .cls-14 {
        fill: url(#linear-gradient-3);
        stroke: #9d9d9c;
        stroke-miterlimit: 10;
        stroke-width: .03px;
      }

      .cls-15 {
        fill: #e2e2e2;
      }

      .cls-16 {
        fill: #f5f5f5;
      }

      .cls-17 {
        isolation: isolate;
      }

      .cls-18 {
        fill: #d6d6d6;
      }

      .cls-19 {
        fill: #c9c9c9;
      }

      .cls-20 {
        fill: #e0e0e0;
      }

      .cls-21 {
        fill: #c7c7c7;
      }

      .cls-22 {
        fill: #dedede;
      }

      .cls-23 {
        fill: #cfcfcf;
      }

      .cls-24 {
        fill: #d7d7d7;
      }

      .cls-25 {
        fill: #e1e1e1;
      }

      .cls-26 {
        fill: #e6e6e6;
      }

      .cls-27 {
        fill: #e7e7e7;
      }

      .cls-28 {
        fill: #d4d4d4;
      }

      .cls-29 {
        fill: #dadada;
      }

      .cls-30 {
        fill: #eaeaea;
      }

      .cls-31 {
        fill: #c8c8c8;
      }

      .cls-32 {
        fill: #fdfdfd;
      }

      .cls-33 {
        fill: #e4e4e4;
      }

      .cls-34 {
        fill: #fbfbfb;
      }

      .cls-35 {
        fill: #f9f9f9;
      }

      .cls-36 {
        fill: #8f8f8e;
      }

      .cls-37 {
        fill: #e5e5e5;
      }

      .cls-38 {
        fill: #d3d3d3;
      }

      .cls-39 {
        fill: #ebebeb;
      }

      .cls-40 {
        fill: #d5d5d5;
      }

      .cls-41 {
        fill: #dcdcdc;
      }

      .cls-42 {
        fill: #706f6f;
      }

      .cls-42, .cls-43 {
        mix-blend-mode: multiply;
      }

      .cls-44 {
        fill: #e8e8e8;
      }

      .cls-45 {
        fill: #ccc;
      }

      .cls-46 {
        fill: #f7f7f7;
      }

      .cls-47 {
        fill: #efefef;
      }

      .cls-48 {
        fill: #f1f1f1;
      }

      .cls-49 {
        fill: #cecece;
      }

      .cls-50 {
        fill: url(#linear-gradient);
      }

      .cls-51 {
        fill: #f3f3f3;
      }

      .cls-52 {
        fill: #d9d9d9;
      }

      .cls-53 {
        fill: #cdcdcd;
      }

      .cls-54 {
        fill: #f8f8f8;
      }

      .cls-55 {
        fill: #d2d2d2;
      }

      .cls-56 {
        fill: #c6c6c6;
      }

      .cls-57 {
        fill: #eee;
      }

      .cls-58 {
        fill: #d0d0d0;
      }

      .cls-59 {
        fill: #ececec;
      }

      .cls-60 {
        fill: #f2f2f2;
      }

      .cls-61 {
        fill: #fefefe;
      }

      .cls-62 {
        fill: #e3e3e3;
      }

      .cls-63 {
        fill: #fcfcfc;
      }

      .cls-64 {
        fill: #ededed;
      }

      .cls-65 {
        fill: #dfdfdf;
      }
    </style>
    <linearGradient id="linear-gradient" x1="376.39" y1="132.14" x2="148.07" y2="132.14" gradientUnits="userSpaceOnUse">
      <stop offset="0" stop-color="#c7c7c7"/>
      <stop offset="1" stop-color="#b3b3b3"/>
    </linearGradient>
    <linearGradient id="linear-gradient-2" x1="615.81" y1="114.78" x2="387.49" y2="114.78" xlink:href="#linear-gradient"/>
    <linearGradient id="linear-gradient-3" x1="1520.09" y1="80.92" x2="2017.5" y2="80.92" gradientTransform="translate(2146.73) rotate(-180) scale(1 -1)" gradientUnits="userSpaceOnUse">
      <stop offset="0" stop-color="#fff"/>
      <stop offset="1" stop-color="#ccc"/>
    </linearGradient>
  </defs>
  <g class="cls-17">
    <g id="Layer_1" data-name="Layer 1">
      <g>
        <g class="cls-43">
          <path class="cls-6" d="m486.58,196.71h10.83V37.36H0v159.35h18.85v31.27h101.19c-.98,1.13-1.67,2.35-1.67,3.7,0,4.62,6.57,8.37,14.64,8.37s14.63-3.75,14.63-8.37c0-1.35-.68-2.57-1.67-3.7h101.19v-31.27h11.11v13.91h101.19c-.98,1.13-1.67,2.35-1.67,3.7,0,4.62,6.56,8.37,14.64,8.37s14.63-3.75,14.63-8.37c0-1.35-.68-2.57-1.67-3.7h101.2v-13.91Z"/>
          <path class="cls-61" d="m488.81,196.08h10.83V36.74H2.23v159.35h18.85v31.27h101.19c-.98,1.13-1.67,2.35-1.67,3.7,0,4.62,6.57,8.37,14.64,8.37s14.63-3.75,14.63-8.37c0-1.35-.68-2.57-1.67-3.7h101.19v-31.27h11.11v13.91h101.19c-.98,1.13-1.67,2.35-1.67,3.7,0,4.62,6.56,8.37,14.64,8.37s14.63-3.75,14.63-8.37c0-1.35-.68-2.57-1.67-3.7h101.2v-13.91Z"/>
          <path class="cls-32" d="m491.04,195.46h10.83V36.11H4.46v159.35h18.85v31.27h101.19c-.98,1.13-1.67,2.35-1.67,3.7,0,4.62,6.57,8.37,14.64,8.37s14.63-3.75,14.63-8.37c0-1.35-.68-2.57-1.67-3.7h101.19v-31.27h11.11v13.91h101.19c-.98,1.13-1.67,2.35-1.67,3.7,0,4.62,6.56,8.37,14.64,8.37s14.63-3.75,14.63-8.37c0-1.35-.68-2.57-1.67-3.7h101.2v-13.91Z"/>
          <path class="cls-63" d="m493.27,194.84h10.83V35.49H6.68v159.35h18.85v31.27h101.19c-.98,1.13-1.67,2.35-1.67,3.7,0,4.62,6.57,8.37,14.64,8.37s14.63-3.75,14.63-8.37c0-1.35-.68-2.57-1.67-3.7h101.19v-31.27h11.11v13.91h101.19c-.98,1.13-1.67,2.35-1.67,3.7,0,4.62,6.56,8.37,14.64,8.37s14.63-3.75,14.63-8.37c0-1.35-.68-2.57-1.67-3.7h101.2v-13.91Z"/>
          <path class="cls-34" d="m495.5,194.22h10.83V34.87H8.91v159.35h18.85v31.27h101.19c-.98,1.13-1.67,2.35-1.67,3.7,0,4.62,6.57,8.37,14.64,8.37s14.63-3.75,14.63-8.37c0-1.35-.68-2.57-1.67-3.7h101.19v-31.27h11.11v13.91h101.19c-.98,1.13-1.67,2.35-1.67,3.7,0,4.62,6.56,8.37,14.64,8.37s14.63-3.75,14.63-8.37c0-1.35-.68-2.57-1.67-3.7h101.2v-13.91Z"/>
          <path class="cls-9" d="m497.72,193.59h10.83V34.25H11.14v159.35h18.85v31.27h101.19c-.98,1.13-1.67,2.35-1.67,3.7,0,4.62,6.57,8.37,14.64,8.37s14.63-3.75,14.63-8.37c0-1.35-.68-2.57-1.67-3.7h101.19v-31.27h11.11v13.91h101.19c-.98,1.13-1.67,2.35-1.67,3.7,0,4.62,6.56,8.37,14.64,8.37s14.63-3.75,14.63-8.37c0-1.35-.68-2.57-1.67-3.7h101.2v-13.91Z"/>
          <path class="cls-35" d="m499.95,192.97h10.83V33.62H13.37v159.35h18.85v31.27h101.19c-.98,1.13-1.67,2.35-1.67,3.7,0,4.62,6.57,8.37,14.64,8.37s14.63-3.75,14.63-8.37c0-1.35-.68-2.57-1.67-3.7h101.19v-31.27h11.11v13.91h101.19c-.98,1.13-1.67,2.35-1.67,3.7,0,4.62,6.56,8.37,14.64,8.37s14.63-3.75,14.63-8.37c0-1.35-.68-2.57-1.67-3.7h101.2v-13.91Z"/>
          <path class="cls-54" d="m502.18,192.35h10.83V33H15.6v159.35h18.85v31.27h101.19c-.98,1.13-1.67,2.35-1.67,3.7,0,4.62,6.57,8.37,14.64,8.37s14.63-3.75,14.63-8.37c0-1.35-.68-2.57-1.67-3.7h101.19v-31.27h11.11v13.91h101.19c-.98,1.13-1.67,2.35-1.67,3.7,0,4.62,6.56,8.37,14.64,8.37s14.63-3.75,14.63-8.37c0-1.35-.68-2.57-1.67-3.7h101.2v-13.91Z"/>
          <path class="cls-46" d="m504.41,191.73h10.83V32.38H17.82v159.35h18.85v31.27h101.19c-.98,1.13-1.67,2.35-1.67,3.7,0,4.62,6.57,8.37,14.64,8.37s14.63-3.75,14.63-8.37c0-1.35-.68-2.57-1.67-3.7h101.19v-31.27h11.11v13.91h101.19c-.98,1.13-1.67,2.35-1.67,3.7,0,4.62,6.56,8.37,14.64,8.37s14.63-3.75,14.63-8.37c0-1.35-.68-2.57-1.67-3.7h101.2v-13.91Z"/>
          <path class="cls-13" d="m506.64,191.1h10.83V31.76H20.05v159.35h18.85v31.27h101.19c-.98,1.13-1.67,2.35-1.67,3.7,0,4.62,6.57,8.37,14.64,8.37s14.63-3.75,14.63-8.37c0-1.35-.68-2.57-1.67-3.7h101.19v-31.27h11.11v13.91h101.19c-.98,1.13-1.67,2.35-1.67,3.7,0,4.62,6.56,8.37,14.64,8.37s14.63-3.75,14.63-8.37c0-1.35-.68-2.57-1.67-3.7h101.2v-13.91Z"/>
          <path class="cls-16" d="m508.86,190.48h10.83V31.13H22.28v159.35h18.85v31.27h101.19c-.98,1.13-1.67,2.35-1.67,3.7,0,4.62,6.57,8.37,14.64,8.37s14.63-3.75,14.63-8.37c0-1.35-.68-2.57-1.67-3.7h101.19v-31.27h11.11v13.91h101.19c-.98,1.13-1.67,2.35-1.67,3.7,0,4.62,6.56,8.37,14.64,8.37s14.63-3.75,14.63-8.37c0-1.35-.68-2.57-1.67-3.7h101.2v-13.91Z"/>
          <path class="cls-5" d="m511.09,189.86h10.83V30.51H24.51v159.35h18.85v31.27h101.19c-.98,1.13-1.67,2.35-1.67,3.7,0,4.62,6.57,8.37,14.64,8.37s14.63-3.75,14.63-8.37c0-1.35-.68-2.57-1.67-3.7h101.19v-31.27h11.11v13.91h101.19c-.98,1.13-1.67,2.35-1.67,3.7,0,4.62,6.56,8.37,14.64,8.37s14.63-3.75,14.63-8.37c0-1.35-.68-2.57-1.67-3.7h101.2v-13.91Z"/>
          <path class="cls-51" d="m513.32,189.24h10.83V29.89H26.74v159.35h18.85v31.27h101.19c-.98,1.13-1.67,2.35-1.67,3.7,0,4.62,6.57,8.37,14.64,8.37s14.63-3.75,14.63-8.37c0-1.35-.68-2.57-1.67-3.7h101.19v-31.27h11.11v13.91h101.19c-.98,1.13-1.67,2.35-1.67,3.7,0,4.62,6.56,8.37,14.64,8.37s14.63-3.75,14.63-8.37c0-1.35-.68-2.57-1.67-3.7h101.2v-13.91Z"/>
          <path class="cls-60" d="m515.55,188.61h10.83V29.27H28.97v159.35h18.85v31.27h101.19c-.98,1.13-1.67,2.35-1.67,3.7,0,4.62,6.57,8.37,14.64,8.37s14.63-3.75,14.63-8.37c0-1.35-.68-2.57-1.67-3.7h101.19v-31.27h11.11v13.91h101.19c-.98,1.13-1.67,2.35-1.67,3.7,0,4.62,6.56,8.37,14.64,8.37s14.63-3.75,14.63-8.37c0-1.35-.68-2.57-1.67-3.7h101.2v-13.91Z"/>
          <path class="cls-48" d="m517.78,187.99h10.83V28.64H31.19v159.35h18.85v31.27h101.19c-.98,1.13-1.67,2.35-1.67,3.7,0,4.62,6.57,8.37,14.64,8.37s14.63-3.75,14.63-8.37c0-1.35-.68-2.57-1.67-3.7h101.19v-31.27h11.11v13.91h101.19c-.98,1.13-1.67,2.35-1.67,3.7,0,4.62,6.56,8.37,14.64,8.37s14.63-3.75,14.63-8.37c0-1.35-.68-2.57-1.67-3.7h101.2v-13.91Z"/>
          <path class="cls-4" d="m520.01,187.37h10.83V28.02H33.42v159.35h18.85v31.27h101.19c-.98,1.13-1.67,2.35-1.67,3.7,0,4.62,6.57,8.37,14.64,8.37s14.63-3.75,14.63-8.37c0-1.35-.68-2.57-1.67-3.7h101.19v-31.27h11.11v13.91h101.19c-.98,1.13-1.67,2.35-1.67,3.7,0,4.62,6.56,8.37,14.64,8.37s14.63-3.75,14.63-8.37c0-1.35-.68-2.57-1.67-3.7h101.2v-13.91Z"/>
          <path class="cls-47" d="m522.23,186.75h10.83V27.4H35.65v159.35h18.85v31.27h101.19c-.98,1.13-1.67,2.35-1.67,3.7,0,4.62,6.57,8.37,14.64,8.37s14.63-3.75,14.63-8.37c0-1.35-.68-2.57-1.67-3.7h101.19v-31.27h11.11v13.91h101.19c-.98,1.13-1.67,2.35-1.67,3.7,0,4.62,6.56,8.37,14.64,8.37s14.63-3.75,14.63-8.37c0-1.35-.68-2.57-1.67-3.7h101.2v-13.91Z"/>
          <path class="cls-57" d="m524.46,186.12h10.83V26.78H37.88v159.35h18.85v31.27h101.19c-.98,1.13-1.67,2.35-1.67,3.7,0,4.62,6.56,8.37,14.64,8.37s14.63-3.75,14.63-8.37c0-1.35-.68-2.57-1.67-3.7h101.19v-31.27h11.11v13.91h101.19c-.98,1.13-1.67,2.35-1.67,3.7,0,4.62,6.56,8.37,14.64,8.37s14.63-3.75,14.63-8.37c0-1.35-.68-2.57-1.67-3.7h101.2v-13.91Z"/>
          <path class="cls-64" d="m526.69,185.5h10.83V26.15H40.11v159.35h18.85v31.27h101.19c-.98,1.13-1.67,2.35-1.67,3.7,0,4.62,6.56,8.37,14.64,8.37s14.63-3.75,14.63-8.37c0-1.35-.68-2.57-1.67-3.7h101.19v-31.27h11.11v13.91h101.19c-.98,1.13-1.67,2.35-1.67,3.7,0,4.62,6.56,8.37,14.64,8.37s14.63-3.75,14.63-8.37c0-1.35-.68-2.57-1.67-3.7h101.2v-13.91Z"/>
          <path class="cls-59" d="m528.92,184.88h10.83V25.53H42.33v159.35h18.85v31.27h101.19c-.98,1.13-1.67,2.35-1.67,3.7,0,4.62,6.56,8.37,14.64,8.37s14.63-3.75,14.63-8.37c0-1.35-.68-2.57-1.67-3.7h101.19v-31.27h11.11v13.91h101.19c-.98,1.13-1.67,2.35-1.67,3.7,0,4.62,6.56,8.37,14.64,8.37s14.63-3.75,14.63-8.37c0-1.35-.68-2.57-1.67-3.7h101.2v-13.91Z"/>
          <path class="cls-39" d="m531.15,184.26h10.83V24.91H44.56v159.35h18.85v31.27h101.19c-.98,1.13-1.67,2.35-1.67,3.7,0,4.62,6.56,8.37,14.64,8.37s14.63-3.75,14.63-8.37c0-1.35-.68-2.57-1.67-3.7h101.19v-31.27h11.11v13.91h101.19c-.98,1.13-1.67,2.35-1.67,3.7,0,4.62,6.56,8.37,14.64,8.37s14.63-3.75,14.63-8.37c0-1.35-.68-2.57-1.67-3.7h101.2v-13.91Z"/>
          <path class="cls-30" d="m533.37,183.63h10.83V24.28H46.79v159.35h18.85v31.27h101.19c-.98,1.13-1.67,2.35-1.67,3.7,0,4.62,6.56,8.37,14.64,8.37s14.63-3.75,14.63-8.37c0-1.35-.68-2.57-1.67-3.7h101.19v-31.27h11.11v13.91h101.19c-.98,1.13-1.67,2.35-1.67,3.7,0,4.62,6.56,8.37,14.64,8.37s14.63-3.75,14.63-8.37c0-1.35-.68-2.57-1.67-3.7h101.2v-13.91Z"/>
          <path class="cls-2" d="m535.6,183.01h10.83V23.66H49.02v159.35h18.85v31.27h101.19c-.98,1.13-1.67,2.35-1.67,3.7,0,4.62,6.56,8.37,14.64,8.37s14.63-3.75,14.63-8.37c0-1.35-.68-2.58-1.67-3.7h101.19v-31.27h11.11v13.91h101.19c-.98,1.13-1.67,2.35-1.67,3.7,0,4.62,6.56,8.37,14.64,8.37s14.63-3.75,14.63-8.37c0-1.35-.68-2.57-1.67-3.7h101.2v-13.91Z"/>
          <path class="cls-44" d="m537.83,182.39h10.83V23.04H51.25v159.35h18.85v31.27h101.19c-.98,1.13-1.67,2.35-1.67,3.7,0,4.62,6.56,8.37,14.64,8.37s14.63-3.75,14.63-8.37c0-1.35-.68-2.58-1.67-3.7h101.19v-31.27h11.11v13.91h101.19c-.98,1.13-1.67,2.36-1.67,3.7,0,4.62,6.56,8.37,14.64,8.37s14.63-3.75,14.63-8.37c0-1.35-.68-2.57-1.67-3.7h101.2v-13.91Z"/>
          <path class="cls-27" d="m540.06,181.77h10.83V22.42H53.47v159.35h18.85v31.27h101.19c-.98,1.13-1.67,2.35-1.67,3.7,0,4.62,6.56,8.37,14.64,8.37s14.63-3.75,14.63-8.37c0-1.35-.68-2.58-1.67-3.7h101.19v-31.27h11.11v13.91h101.19c-.98,1.13-1.67,2.36-1.67,3.7,0,4.62,6.56,8.37,14.64,8.37s14.63-3.75,14.63-8.37c0-1.35-.68-2.57-1.67-3.7h101.2v-13.91Z"/>
          <path class="cls-26" d="m542.29,181.14h10.83V21.79H55.7v159.35h18.85v31.27h101.19c-.98,1.13-1.67,2.35-1.67,3.7,0,4.62,6.56,8.37,14.64,8.37s14.63-3.75,14.63-8.37c0-1.35-.68-2.58-1.67-3.7h101.19v-31.27h11.11v13.91h101.19c-.98,1.13-1.67,2.36-1.67,3.7,0,4.62,6.56,8.37,14.64,8.37s14.63-3.75,14.63-8.37c0-1.35-.68-2.57-1.67-3.7h101.2v-13.91Z"/>
          <path class="cls-37" d="m544.51,180.52h10.83V21.17H57.93v159.35h18.85v31.27h101.19c-.98,1.13-1.67,2.35-1.67,3.7,0,4.62,6.56,8.37,14.64,8.37s14.63-3.75,14.63-8.37c0-1.35-.68-2.58-1.67-3.7h101.19v-31.27h11.11v13.91h101.19c-.98,1.13-1.67,2.36-1.67,3.7,0,4.62,6.56,8.37,14.64,8.37s14.63-3.75,14.63-8.37c0-1.35-.68-2.57-1.67-3.7h101.2v-13.91Z"/>
          <path class="cls-33" d="m546.74,179.9h10.83V20.55H60.16v159.35h18.85v31.27h101.19c-.98,1.13-1.67,2.35-1.67,3.7,0,4.62,6.56,8.37,14.63,8.37s14.63-3.75,14.63-8.37c0-1.35-.68-2.58-1.67-3.7h101.19v-31.27h11.11v13.91h101.19c-.98,1.13-1.67,2.36-1.67,3.7,0,4.62,6.56,8.37,14.63,8.37s14.63-3.75,14.63-8.37c0-1.35-.68-2.57-1.67-3.7h101.2v-13.91Z"/>
          <path class="cls-62" d="m548.97,179.28h10.83V19.93H62.39v159.35h18.85v31.27h101.19c-.98,1.13-1.67,2.35-1.67,3.7,0,4.62,6.56,8.37,14.63,8.37s14.63-3.75,14.63-8.37c0-1.35-.68-2.58-1.67-3.7h101.19v-31.27h11.11v13.91h101.19c-.98,1.13-1.67,2.36-1.67,3.7,0,4.62,6.56,8.37,14.63,8.37s14.63-3.75,14.63-8.37c0-1.35-.68-2.57-1.67-3.7h101.2v-13.91Z"/>
          <path class="cls-15" d="m551.2,178.65h10.83V19.3H64.61v159.35h18.85v31.27h101.19c-.98,1.13-1.67,2.35-1.67,3.7,0,4.62,6.56,8.37,14.63,8.37s14.63-3.75,14.63-8.37c0-1.35-.68-2.58-1.67-3.7h101.19v-31.27h11.11v13.91h101.19c-.98,1.13-1.67,2.36-1.67,3.7,0,4.62,6.56,8.37,14.63,8.37s14.63-3.75,14.63-8.37c0-1.35-.68-2.57-1.67-3.7h101.2v-13.91Z"/>
          <path class="cls-15" d="m553.43,178.03h10.83V18.68H66.84v159.35h18.85v31.27h101.19c-.98,1.13-1.67,2.35-1.67,3.7,0,4.62,6.56,8.37,14.63,8.37s14.63-3.75,14.63-8.37c0-1.35-.68-2.58-1.67-3.7h101.19v-31.27h11.11v13.91h101.19c-.98,1.13-1.67,2.36-1.67,3.7,0,4.62,6.56,8.37,14.63,8.37s14.63-3.75,14.63-8.37c0-1.35-.68-2.57-1.67-3.7h101.2v-13.91Z"/>
          <path class="cls-25" d="m555.65,177.41h10.83V18.06H69.07v159.35h18.85v31.27h101.19c-.98,1.13-1.67,2.35-1.67,3.7,0,4.62,6.56,8.37,14.63,8.37s14.63-3.75,14.63-8.37c0-1.35-.68-2.58-1.67-3.7h101.19v-31.27h11.11v13.91h101.19c-.98,1.13-1.67,2.36-1.67,3.7,0,4.62,6.56,8.37,14.63,8.37s14.63-3.75,14.63-8.37c0-1.35-.68-2.57-1.67-3.7h101.2v-13.91Z"/>
          <path class="cls-20" d="m557.88,176.78h10.83V17.44H71.3v159.35h18.85v31.27h101.19c-.98,1.13-1.67,2.35-1.67,3.7,0,4.62,6.56,8.37,14.63,8.37s14.63-3.75,14.63-8.37c0-1.35-.68-2.58-1.67-3.7h101.19v-31.27h11.11v13.91h101.19c-.98,1.13-1.67,2.36-1.67,3.7,0,4.62,6.56,8.37,14.63,8.37s14.63-3.75,14.63-8.37c0-1.35-.68-2.57-1.67-3.7h101.2v-13.91Z"/>
          <path class="cls-65" d="m560.11,176.16h10.83V16.81H73.53v159.35h18.85v31.27h101.19c-.98,1.12-1.67,2.35-1.67,3.7,0,4.62,6.56,8.37,14.63,8.37s14.63-3.75,14.63-8.37c0-1.35-.68-2.58-1.67-3.7h101.19v-31.27h11.11v13.91h101.19c-.98,1.13-1.67,2.36-1.67,3.7,0,4.62,6.56,8.37,14.63,8.37s14.63-3.75,14.63-8.37c0-1.34-.68-2.57-1.67-3.7h101.2v-13.91Z"/>
          <path class="cls-22" d="m562.34,175.54h10.83V16.19H75.75v159.35h18.85v31.27h101.19c-.98,1.12-1.67,2.35-1.67,3.7,0,4.62,6.56,8.37,14.63,8.37s14.63-3.75,14.63-8.37c0-1.35-.68-2.58-1.67-3.7h101.19v-31.27h11.11v13.91h101.19c-.98,1.13-1.67,2.36-1.67,3.7,0,4.62,6.56,8.37,14.63,8.37s14.63-3.75,14.63-8.37c0-1.34-.68-2.57-1.67-3.7h101.2v-13.91Z"/>
          <path class="cls-1" d="m564.57,174.92h10.83V15.57H77.98v159.35h18.85v31.27h101.19c-.98,1.12-1.67,2.35-1.67,3.7,0,4.62,6.56,8.37,14.63,8.37s14.63-3.75,14.63-8.37c0-1.35-.68-2.58-1.67-3.7h101.19v-31.27h11.11v13.91h101.19c-.98,1.13-1.67,2.36-1.67,3.7,0,4.62,6.56,8.37,14.63,8.37s14.63-3.75,14.63-8.37c0-1.34-.68-2.57-1.67-3.7h101.2v-13.91Z"/>
          <path class="cls-41" d="m566.79,174.29h10.83V14.95H80.21v159.35h18.85v31.27h101.19c-.98,1.12-1.67,2.35-1.67,3.7,0,4.62,6.56,8.37,14.63,8.37s14.63-3.75,14.63-8.37c0-1.35-.68-2.58-1.67-3.7h101.19v-31.27h11.11v13.91h101.19c-.98,1.13-1.67,2.36-1.67,3.7,0,4.62,6.56,8.37,14.63,8.37s14.63-3.75,14.63-8.37c0-1.34-.68-2.57-1.67-3.7h101.2v-13.91Z"/>
          <path class="cls-10" d="m569.02,173.67h10.83V14.32H82.44v159.35h18.85v31.27h101.19c-.98,1.12-1.67,2.35-1.67,3.7,0,4.62,6.56,8.37,14.63,8.37s14.63-3.75,14.63-8.37c0-1.35-.68-2.58-1.67-3.7h101.19v-31.27h11.11v13.91h101.19c-.98,1.13-1.67,2.36-1.67,3.7,0,4.62,6.56,8.37,14.63,8.37s14.63-3.75,14.63-8.37c0-1.34-.68-2.57-1.67-3.7h101.2v-13.91Z"/>
          <path class="cls-29" d="m571.25,173.05h10.83V13.7H84.67v159.35h18.85v31.27h101.19c-.98,1.12-1.67,2.35-1.67,3.7,0,4.62,6.56,8.37,14.63,8.37s14.63-3.75,14.63-8.37c0-1.35-.68-2.58-1.67-3.7h101.19v-31.27h11.11v13.91h101.19c-.98,1.13-1.67,2.36-1.67,3.7,0,4.62,6.56,8.37,14.63,8.37s14.63-3.75,14.63-8.37c0-1.34-.68-2.57-1.67-3.7h101.2v-13.91Z"/>
          <path class="cls-52" d="m573.48,172.43h10.83V13.08H86.9v159.35h18.85v31.27h101.19c-.98,1.12-1.67,2.35-1.67,3.7,0,4.62,6.56,8.37,14.63,8.37s14.63-3.75,14.63-8.37c0-1.35-.68-2.58-1.67-3.7h101.19v-31.27h11.11v13.91h101.19c-.98,1.13-1.67,2.36-1.67,3.7,0,4.62,6.56,8.37,14.63,8.37s14.63-3.75,14.63-8.37c0-1.34-.68-2.57-1.67-3.7h101.2v-13.91Z"/>
          <path class="cls-12" d="m575.71,171.8h10.83V12.46H89.12v159.35h18.85v31.27h101.19c-.98,1.12-1.67,2.35-1.67,3.7,0,4.62,6.56,8.37,14.63,8.37s14.63-3.75,14.63-8.37c0-1.35-.68-2.58-1.67-3.7h101.19v-31.27h11.11v13.91h101.19c-.98,1.13-1.67,2.36-1.67,3.7,0,4.62,6.56,8.37,14.63,8.37s14.63-3.75,14.63-8.37c0-1.34-.68-2.57-1.66-3.7h101.2v-13.91Z"/>
          <path class="cls-24" d="m577.94,171.18h10.83V11.83H91.35v159.35h18.85v31.27h101.19c-.98,1.12-1.67,2.35-1.67,3.7,0,4.62,6.56,8.37,14.63,8.37s14.63-3.75,14.63-8.37c0-1.35-.68-2.58-1.67-3.7h101.19v-31.27h11.1v13.91h101.19c-.98,1.13-1.67,2.36-1.67,3.7,0,4.62,6.56,8.37,14.63,8.37s14.63-3.75,14.63-8.37c0-1.34-.68-2.57-1.66-3.7h101.2v-13.91Z"/>
          <path class="cls-18" d="m580.16,170.56h10.83V11.21H93.58v159.35h18.85v31.27h101.19c-.98,1.12-1.67,2.35-1.67,3.7,0,4.62,6.56,8.37,14.63,8.37s14.63-3.75,14.63-8.37c0-1.35-.68-2.58-1.67-3.7h101.19v-31.27h11.1v13.91h101.19c-.98,1.13-1.66,2.36-1.66,3.7,0,4.62,6.56,8.37,14.63,8.37s14.63-3.75,14.63-8.37c0-1.34-.68-2.57-1.66-3.7h101.19v-13.91Z"/>
          <path class="cls-40" d="m582.39,169.94h10.83V10.59H95.81v159.35h18.85v31.27h101.19c-.98,1.12-1.67,2.35-1.67,3.7,0,4.61,6.56,8.37,14.63,8.37s14.63-3.75,14.63-8.37c0-1.35-.68-2.58-1.67-3.7h101.19v-31.27h11.1v13.91h101.19c-.98,1.13-1.66,2.36-1.66,3.7,0,4.62,6.56,8.37,14.63,8.37s14.63-3.75,14.63-8.37c0-1.34-.68-2.57-1.66-3.7h101.19v-13.91Z"/>
          <path class="cls-28" d="m584.62,169.31h10.83V9.97H98.04v159.35h18.85v31.27h101.19c-.98,1.12-1.67,2.35-1.67,3.7,0,4.61,6.56,8.37,14.63,8.37s14.63-3.75,14.63-8.37c0-1.35-.68-2.58-1.66-3.7h101.19v-31.27h11.1v13.91h101.19c-.98,1.13-1.66,2.36-1.66,3.7,0,4.62,6.56,8.37,14.63,8.37s14.63-3.75,14.63-8.37c0-1.34-.68-2.57-1.66-3.7h101.19v-13.91Z"/>
          <path class="cls-38" d="m586.85,168.69h10.83V9.34H100.26v159.35h18.85v31.27h101.19c-.98,1.12-1.67,2.35-1.67,3.7,0,4.61,6.56,8.37,14.63,8.37s14.63-3.75,14.63-8.37c0-1.35-.68-2.58-1.66-3.7h101.19v-31.27h11.1v13.91h101.19c-.98,1.13-1.66,2.36-1.66,3.7,0,4.62,6.56,8.37,14.63,8.37s14.63-3.75,14.63-8.37c0-1.34-.68-2.57-1.66-3.7h101.19v-13.91Z"/>
          <path class="cls-55" d="m589.08,168.07h10.83V8.72H102.49v159.35h18.85v31.27h101.19c-.98,1.12-1.67,2.35-1.67,3.7,0,4.61,6.56,8.37,14.63,8.37s14.63-3.75,14.63-8.37c0-1.35-.68-2.58-1.66-3.7h101.19v-31.27h11.1v13.91h101.19c-.98,1.13-1.66,2.36-1.66,3.7,0,4.62,6.56,8.37,14.63,8.37s14.63-3.75,14.63-8.37c0-1.34-.68-2.57-1.66-3.7h101.19v-13.91Z"/>
          <path class="cls-8" d="m591.3,167.45h10.83V8.1H104.72v159.35h18.85v31.27h101.19c-.98,1.12-1.67,2.35-1.67,3.7,0,4.61,6.56,8.37,14.63,8.37s14.63-3.75,14.63-8.37c0-1.35-.68-2.58-1.66-3.7h101.19v-31.27h11.1v13.91h101.19c-.98,1.13-1.66,2.36-1.66,3.7,0,4.62,6.56,8.37,14.63,8.37s14.63-3.75,14.63-8.37c0-1.34-.68-2.57-1.66-3.7h101.19v-13.91Z"/>
          <path class="cls-58" d="m593.53,166.82h10.83V7.48H106.95v159.35h18.85v31.27h101.19c-.98,1.12-1.66,2.35-1.66,3.7,0,4.61,6.56,8.37,14.63,8.37s14.63-3.75,14.63-8.37c0-1.35-.68-2.58-1.66-3.7h101.19v-31.27h11.1v13.91h101.19c-.98,1.13-1.66,2.36-1.66,3.7,0,4.62,6.56,8.37,14.63,8.37s14.63-3.75,14.63-8.37c0-1.34-.68-2.57-1.66-3.7h101.19v-13.91Z"/>
          <path class="cls-23" d="m595.76,166.2h10.83V6.85H109.18v159.35h18.85v31.27h101.19c-.98,1.12-1.66,2.35-1.66,3.7,0,4.61,6.56,8.37,14.63,8.37s14.63-3.75,14.63-8.37c0-1.35-.68-2.58-1.66-3.7h101.19v-31.27h11.1v13.91h101.19c-.98,1.13-1.66,2.36-1.66,3.7,0,4.62,6.56,8.37,14.63,8.37s14.63-3.75,14.63-8.37c0-1.34-.68-2.57-1.66-3.7h101.19v-13.91Z"/>
          <path class="cls-49" d="m597.99,165.58h10.83V6.23H111.4v159.35h18.85v31.27h101.19c-.98,1.12-1.66,2.35-1.66,3.7,0,4.61,6.56,8.37,14.63,8.37s14.63-3.75,14.63-8.37c0-1.35-.68-2.58-1.66-3.7h101.19v-31.27h11.1v13.91h101.19c-.98,1.13-1.66,2.36-1.66,3.7,0,4.62,6.56,8.37,14.63,8.37s14.63-3.75,14.63-8.37c0-1.34-.68-2.57-1.66-3.7h101.19v-13.91Z"/>
          <path class="cls-53" d="m600.22,164.96h10.83V5.61H113.63v159.35h18.85v31.27h101.19c-.98,1.12-1.66,2.35-1.66,3.7,0,4.61,6.56,8.37,14.63,8.37s14.63-3.75,14.63-8.37c0-1.35-.68-2.58-1.66-3.7h101.19v-31.27h11.1v13.91h101.19c-.98,1.13-1.66,2.36-1.66,3.7,0,4.62,6.56,8.37,14.63,8.37s14.63-3.75,14.63-8.37c0-1.34-.68-2.57-1.66-3.7h101.19v-13.91Z"/>
          <path class="cls-45" d="m602.44,164.33h10.83V4.99H115.86v159.35h18.85v31.27h101.19c-.98,1.12-1.66,2.35-1.66,3.7,0,4.61,6.56,8.37,14.63,8.37s14.63-3.75,14.63-8.37c0-1.35-.68-2.58-1.66-3.7h101.19v-31.27h11.1v13.91h101.19c-.98,1.13-1.66,2.36-1.66,3.7,0,4.62,6.56,8.37,14.63,8.37s14.63-3.75,14.63-8.37c0-1.34-.68-2.57-1.66-3.7h101.19v-13.91Z"/>
          <path class="cls-7" d="m604.67,163.71h10.83V4.36H118.09v159.35h18.85v31.27h101.19c-.98,1.12-1.66,2.35-1.66,3.7,0,4.61,6.56,8.36,14.63,8.36s14.63-3.75,14.63-8.36c0-1.35-.68-2.58-1.66-3.7h101.19v-31.27h11.1v13.91h101.19c-.98,1.13-1.66,2.36-1.66,3.7,0,4.62,6.56,8.37,14.63,8.37s14.63-3.75,14.63-8.37c0-1.34-.68-2.57-1.66-3.7h101.19v-13.91Z"/>
          <path class="cls-11" d="m606.9,163.09h10.83V3.74H120.32v159.35h18.85v31.27h101.19c-.98,1.12-1.66,2.35-1.66,3.7,0,4.61,6.56,8.36,14.63,8.36s14.63-3.75,14.63-8.36c0-1.35-.68-2.58-1.66-3.7h101.19v-31.27h11.1v13.91h101.19c-.98,1.13-1.66,2.36-1.66,3.7,0,4.62,6.56,8.37,14.63,8.37s14.63-3.75,14.63-8.37c0-1.34-.68-2.57-1.66-3.7h101.19v-13.91Z"/>
          <path class="cls-19" d="m609.13,162.47h10.83V3.12H122.54v159.35h18.85v31.27h101.19c-.98,1.12-1.66,2.35-1.66,3.7,0,4.61,6.56,8.36,14.63,8.36s14.63-3.75,14.63-8.36c0-1.35-.68-2.58-1.66-3.7h101.19v-31.27h11.1v13.91h101.19c-.98,1.13-1.66,2.36-1.66,3.7,0,4.62,6.56,8.37,14.63,8.37s14.63-3.75,14.63-8.37c0-1.34-.68-2.57-1.66-3.7h101.19v-13.91Z"/>
          <path class="cls-31" d="m611.36,161.84h10.83V2.5H124.77v159.35h18.85v31.27h101.19c-.98,1.12-1.66,2.35-1.66,3.7,0,4.61,6.56,8.36,14.63,8.36s14.63-3.75,14.63-8.36c0-1.35-.68-2.58-1.66-3.7h101.19v-31.27h11.1v13.91h101.19c-.98,1.13-1.66,2.36-1.66,3.7,0,4.62,6.56,8.37,14.63,8.37s14.63-3.75,14.63-8.37c0-1.34-.68-2.57-1.66-3.7h101.19v-13.91Z"/>
          <path class="cls-21" d="m613.58,161.22h10.83V1.87H127v159.35h18.85v31.28h101.19c-.98,1.12-1.66,2.35-1.66,3.7,0,4.61,6.56,8.36,14.63,8.36s14.63-3.75,14.63-8.36c0-1.35-.68-2.58-1.66-3.7h101.19v-31.28h11.1v13.91h101.19c-.98,1.13-1.66,2.36-1.66,3.7,0,4.62,6.56,8.37,14.63,8.37s14.63-3.75,14.63-8.37c0-1.34-.68-2.57-1.66-3.7h101.19v-13.91Z"/>
          <path class="cls-56" d="m615.81,160.6h10.83V1.25H129.23v159.35h18.85v31.28h101.19c-.98,1.12-1.66,2.35-1.66,3.7,0,4.61,6.56,8.36,14.63,8.36s14.63-3.75,14.63-8.36c0-1.35-.68-2.58-1.66-3.7h101.19v-31.28h11.1v13.91h101.19c-.98,1.13-1.66,2.36-1.66,3.7,0,4.62,6.56,8.37,14.63,8.37s14.63-3.75,14.63-8.37c0-1.34-.68-2.57-1.66-3.7h101.19v-13.91Z"/>
        </g>
        <g>
          <path class="cls-36" d="m247.6,195.58c0,4.61,6.56,8.36,14.63,8.36s14.63-3.75,14.63-8.36-6.56-8.38-14.63-8.38-14.63,3.75-14.63,8.38Z"/>
          <rect class="cls-50" x="148.07" y="72.42" width="228.32" height="119.45"/>
          <rect class="cls-36" x="161.22" y="68.25" width="202.03" height="111.42"/>
          <path class="cls-36" d="m487.02,178.22c0,4.61,6.56,8.36,14.63,8.36s14.63-3.75,14.63-8.36-6.56-8.39-14.63-8.39-14.63,3.76-14.63,8.39Z"/>
          <rect class="cls-3" x="387.49" y="55.06" width="228.32" height="119.45"/>
          <rect class="cls-36" x="400.64" y="50.89" width="202.03" height="111.42"/>
          <rect class="cls-14" x="129.23" y="1.25" width="497.41" height="159.35"/>
        </g>
        <path class="cls-42" d="m127.82,0v161.86h18.85v31.27h100.12c-.39.81-.59,1.62-.59,2.45,0,5.3,7.2,9.62,16.04,9.62s16.05-4.32,16.05-9.62c0-.83-.2-1.64-.6-2.45h100.12v-31.27h8.27v13.9h100.12c-.4.82-.59,1.63-.59,2.45,0,5.4,7.04,9.62,16.04,9.62s16.05-4.22,16.05-9.62c0-.82-.2-1.63-.6-2.45h100.11v-13.9h10.84V0H127.82Z"/>
      </g>
    </g>
  </g>
</svg>