<?xml version="1.0" encoding="UTF-8"?>
<svg id="Layer_1" data-name="Layer 1" xmlns="http://www.w3.org/2000/svg" xmlns:xlink="http://www.w3.org/1999/xlink" viewBox="0 0 305.12 433.12">
  <defs>
    <style>
      .cls-1 {
        filter: url(#luminosity-noclip-11);
      }

      .cls-2 {
        fill: url(#_276);
      }

      .cls-2, .cls-3, .cls-4, .cls-5, .cls-6, .cls-7, .cls-8, .cls-9, .cls-10, .cls-11 {
        opacity: .5;
      }

      .cls-12 {
        fill: url(#_278);
      }

      .cls-13 {
        filter: url(#luminosity-noclip-17);
      }

      .cls-14 {
        mask: url(#mask-23);
      }

      .cls-15 {
        mask: url(#mask-27);
      }

      .cls-16 {
        mask: url(#mask-10);
      }

      .cls-17 {
        mask: url(#mask-26);
      }

      .cls-18 {
        filter: url(#luminosity-noclip-7);
      }

      .cls-3 {
        fill: url(#_275-2);
      }

      .cls-19 {
        fill: url(#_625);
      }

      .cls-19, .cls-20, .cls-21, .cls-22, .cls-23, .cls-24, .cls-25, .cls-26, .cls-27, .cls-28, .cls-29, .cls-30, .cls-31, .cls-32, .cls-33, .cls-34, .cls-35, .cls-36 {
        mix-blend-mode: multiply;
      }

      .cls-37 {
        filter: url(#luminosity-noclip-13);
      }

      .cls-38 {
        mask: url(#mask-17);
      }

      .cls-39 {
        filter: url(#luminosity-noclip-5);
      }

      .cls-4 {
        fill: url(#_275);
      }

      .cls-5 {
        fill: url(#_277);
      }

      .cls-6 {
        fill: url(#_239);
      }

      .cls-40 {
        mask: url(#mask-2);
      }

      .cls-41 {
        mask: url(#mask-34);
      }

      .cls-42 {
        mask: url(#mask-33);
      }

      .cls-20 {
        fill: url(#_610);
      }

      .cls-43 {
        filter: url(#luminosity-noclip-25);
      }

      .cls-21 {
        fill: url(#_626);
      }

      .cls-22 {
        fill: url(#_607);
      }

      .cls-23 {
        fill: url(#_609);
      }

      .cls-44 {
        filter: url(#luminosity-noclip-31);
      }

      .cls-45 {
        mask: url(#mask-13);
      }

      .cls-46 {
        fill: #c7b299;
      }

      .cls-24 {
        fill: url(#_611);
      }

      .cls-47 {
        mask: url(#mask-3);
      }

      .cls-48 {
        fill: url(#_238);
      }

      .cls-49 {
        filter: url(#luminosity-noclip-29);
      }

      .cls-50 {
        mask: url(#mask-31);
      }

      .cls-51 {
        filter: url(#luminosity-noclip-15);
      }

      .cls-52 {
        mask: url(#mask-30);
      }

      .cls-53 {
        fill: #603813;
      }

      .cls-54 {
        mask: url(#mask-32);
      }

      .cls-55 {
        mask: url(#mask-9);
      }

      .cls-7 {
        fill: url(#_616);
      }

      .cls-56 {
        mask: url(#mask-12);
      }

      .cls-25 {
        fill: url(#_612);
      }

      .cls-57 {
        mask: url(#mask-5);
      }

      .cls-58 {
        fill: #42210b;
      }

      .cls-26 {
        fill: url(#_629);
      }

      .cls-59 {
        filter: url(#luminosity-noclip-21);
      }

      .cls-60 {
        mask: url(#mask-35);
      }

      .cls-27 {
        fill: url(#_620);
      }

      .cls-61 {
        mask: url(#mask-20);
      }

      .cls-62 {
        filter: url(#luminosity-noclip-9);
      }

      .cls-63 {
        fill: url(#_603);
      }

      .cls-64 {
        filter: url(#luminosity-noclip-35);
      }

      .cls-28 {
        fill: url(#_619);
      }

      .cls-65 {
        mask: url(#mask-25);
      }

      .cls-66 {
        mask: url(#mask-8);
      }

      .cls-67 {
        filter: url(#luminosity-noclip-33);
      }

      .cls-68 {
        mask: url(#mask-4);
      }

      .cls-69 {
        mask: url(#mask-24);
      }

      .cls-70 {
        fill: url(#_242);
      }

      .cls-71 {
        mask: url(#mask-19);
      }

      .cls-72 {
        mask: url(#mask-15);
      }

      .cls-29 {
        fill: url(#_628);
      }

      .cls-73 {
        fill: url(#_604);
      }

      .cls-74 {
        fill: url(#_618);
      }

      .cls-8 {
        fill: url(#_141);
      }

      .cls-9 {
        fill: url(#_622);
      }

      .cls-75 {
        mask: url(#mask-6);
      }

      .cls-76 {
        mask: url(#mask-16);
      }

      .cls-77 {
        mask: url(#mask-18);
      }

      .cls-78 {
        fill: url(#_245);
      }

      .cls-30 {
        fill: url(#_624);
      }

      .cls-79 {
        opacity: .1;
        stroke: #000;
        stroke-miterlimit: 10;
        stroke-width: .25px;
      }

      .cls-80 {
        filter: url(#luminosity-noclip);
      }

      .cls-81 {
        mask: url(#mask-1);
      }

      .cls-82 {
        mask: url(#mask);
      }

      .cls-83 {
        filter: url(#luminosity-noclip-23);
      }

      .cls-84 {
        mask: url(#mask-22);
      }

      .cls-31 {
        fill: url(#_608);
      }

      .cls-85 {
        mask: url(#mask-29);
      }

      .cls-10 {
        fill: url(#_276-2);
      }

      .cls-86 {
        mask: url(#mask-7);
      }

      .cls-32 {
        fill: url(#_631);
      }

      .cls-11 {
        fill: #c69c6d;
      }

      .cls-33 {
        fill: url(#_617);
      }

      .cls-34 {
        fill: url(#_615);
      }

      .cls-87 {
        mask: url(#mask-14);
      }

      .cls-88 {
        filter: url(#luminosity-noclip-19);
      }

      .cls-89 {
        mask: url(#mask-21);
      }

      .cls-90 {
        filter: url(#luminosity-noclip-27);
      }

      .cls-91 {
        mask: url(#mask-11);
      }

      .cls-92 {
        mask: url(#mask-28);
      }

      .cls-35 {
        fill: url(#_614);
      }

      .cls-93 {
        filter: url(#luminosity-noclip-3);
      }

      .cls-36 {
        fill: url(#_613);
      }
    </style>
    <filter id="luminosity-noclip" x="8.04" y="273.32" width="280.38" height="108.88" color-interpolation-filters="sRGB" filterUnits="userSpaceOnUse">
      <feFlood flood-color="#fff" result="bg"/>
      <feBlend in="SourceGraphic" in2="bg"/>
    </filter>
    <filter id="luminosity-noclip-2" x="8.04" y="-8679" width="280.38" height="32766" color-interpolation-filters="sRGB" filterUnits="userSpaceOnUse">
      <feFlood flood-color="#fff" result="bg"/>
      <feBlend in="SourceGraphic" in2="bg"/>
    </filter>
    <mask id="mask-1" x="8.04" y="-8679" width="280.38" height="32766" maskUnits="userSpaceOnUse"/>
    <linearGradient id="_631" data-name="  631" x1="148.23" y1="382.2" x2="148.23" y2="273.32" gradientUnits="userSpaceOnUse">
      <stop offset="0" stop-color="#000"/>
      <stop offset=".07" stop-color="#2e2e2e"/>
      <stop offset=".14" stop-color="#585858"/>
      <stop offset=".22" stop-color="#7f7f7f"/>
      <stop offset=".31" stop-color="#9f9f9f"/>
      <stop offset=".4" stop-color="#b9b9b9"/>
      <stop offset=".5" stop-color="#cdcdcd"/>
      <stop offset=".62" stop-color="#dbdbdb"/>
      <stop offset=".76" stop-color="#e3e3e3"/>
      <stop offset="1" stop-color="#e6e6e6"/>
    </linearGradient>
    <mask id="mask" x="8.04" y="273.32" width="280.38" height="108.88" maskUnits="userSpaceOnUse">
      <g class="cls-80">
        <g class="cls-81">
          <path class="cls-32" d="m148.23,273.32H8.04c8.78,44.65,15.97,80.92,19.09,91.89,2.07,7.28,4.14,10.55,4.55,11.21,0,0,2.77,4.39,6.26,5.06,4.89.93,49.42,1,110.29-.04,60.86,1.04,105.4.92,110.29-.02,3.49-.67,6.26-5.14,6.26-5.14.41-.67,2.48-3.8,4.55-11.08,3.12-10.97,10.32-47.24,19.09-91.89h-140.19Z"/>
        </g>
      </g>
    </mask>
    <linearGradient id="_239" data-name="  239" x1="148.23" y1="382.2" x2="148.23" y2="273.32" gradientUnits="userSpaceOnUse">
      <stop offset="0" stop-color="#fff"/>
      <stop offset=".03" stop-color="#e9e9e9"/>
      <stop offset=".1" stop-color="#b9b9b9"/>
      <stop offset=".17" stop-color="#8d8d8d"/>
      <stop offset=".25" stop-color="#676767"/>
      <stop offset=".33" stop-color="#474747"/>
      <stop offset=".42" stop-color="#2c2c2c"/>
      <stop offset=".52" stop-color="#181818"/>
      <stop offset=".63" stop-color="#0a0a0a"/>
      <stop offset=".77" stop-color="#020202"/>
      <stop offset="1" stop-color="#000"/>
    </linearGradient>
    <filter id="luminosity-noclip-3" x="8.04" y="273.32" width="280.38" height="108.54" color-interpolation-filters="sRGB" filterUnits="userSpaceOnUse">
      <feFlood flood-color="#fff" result="bg"/>
      <feBlend in="SourceGraphic" in2="bg"/>
    </filter>
    <filter id="luminosity-noclip-4" x="8.04" y="-8679" width="280.38" height="32766" color-interpolation-filters="sRGB" filterUnits="userSpaceOnUse">
      <feFlood flood-color="#fff" result="bg"/>
      <feBlend in="SourceGraphic" in2="bg"/>
    </filter>
    <mask id="mask-3" x="8.04" y="-8679" width="280.38" height="32766" maskUnits="userSpaceOnUse"/>
    <linearGradient id="_629" data-name="  629" x1="148.23" y1="273.32" x2="148.23" y2="381.87" gradientUnits="userSpaceOnUse">
      <stop offset="0" stop-color="#000"/>
      <stop offset=".23" stop-color="#020202"/>
      <stop offset=".41" stop-color="#0c0c0c"/>
      <stop offset=".56" stop-color="#1c1c1c"/>
      <stop offset=".7" stop-color="#333"/>
      <stop offset=".84" stop-color="#505050"/>
      <stop offset=".96" stop-color="#737373"/>
      <stop offset="1" stop-color="gray"/>
    </linearGradient>
    <mask id="mask-2" x="8.04" y="273.32" width="280.38" height="108.54" maskUnits="userSpaceOnUse">
      <g class="cls-93">
        <g class="cls-47">
          <path class="cls-26" d="m148.23,273.32H8.04c8.78,44.65,15.97,80.74,19.09,91.7,2.07,7.28,4.14,10.46,4.55,11.12,0,0,2.77,4.35,6.26,5.01,4.89.93,49.42.98,110.29-.06,60.86,1.04,105.4.91,110.29-.03,3.49-.67,6.26-5.14,6.26-5.14.41-.67,2.48-3.62,4.55-10.9,3.12-10.97,10.32-47.06,19.09-91.71h-140.19Z"/>
        </g>
      </g>
    </mask>
    <linearGradient id="_141" data-name="  141" x1="148.23" y1="273.32" x2="148.23" y2="381.87" gradientUnits="userSpaceOnUse">
      <stop offset="0" stop-color="#fff"/>
      <stop offset=".18" stop-color="#fcfcfc"/>
      <stop offset=".31" stop-color="#f2f2f2"/>
      <stop offset=".43" stop-color="#e2e2e2"/>
      <stop offset=".54" stop-color="#cbcbcb"/>
      <stop offset=".64" stop-color="#aeaeae"/>
      <stop offset=".74" stop-color="#8a8a8a"/>
      <stop offset=".83" stop-color="#5f5f5f"/>
      <stop offset=".92" stop-color="#2f2f2f"/>
      <stop offset="1" stop-color="#000"/>
    </linearGradient>
    <filter id="luminosity-noclip-5" x="20.56" y="289.56" width="255.34" height="80.64" color-interpolation-filters="sRGB" filterUnits="userSpaceOnUse">
      <feFlood flood-color="#fff" result="bg"/>
      <feBlend in="SourceGraphic" in2="bg"/>
    </filter>
    <filter id="luminosity-noclip-6" x="20.56" y="-8679" width="255.34" height="32766" color-interpolation-filters="sRGB" filterUnits="userSpaceOnUse">
      <feFlood flood-color="#fff" result="bg"/>
      <feBlend in="SourceGraphic" in2="bg"/>
    </filter>
    <mask id="mask-5" x="20.56" y="-8679" width="255.34" height="32766" maskUnits="userSpaceOnUse"/>
    <linearGradient id="_628" data-name="  628" x1="275.9" y1="329.88" x2="20.56" y2="329.88" gradientUnits="userSpaceOnUse">
      <stop offset="0" stop-color="gray"/>
      <stop offset=".14" stop-color="gray"/>
      <stop offset="1" stop-color="gray"/>
    </linearGradient>
    <mask id="mask-4" x="20.56" y="289.56" width="255.34" height="80.64" maskUnits="userSpaceOnUse">
      <g class="cls-39">
        <g class="cls-57">
          <path class="cls-29" d="m275.78,293.86c-.62-4.1-3.33-4.3-4.57-4.3H25.41c-1.28,0-4.08.2-4.72,4.3-.61,3.9,1.09,8.92,2.77,14.41,7.35,23.9,8.06,33.41,14.72,49.47,1.05,2.53,2.5,5.8,4.68,8.42,2.54,3.05,4.88,3.71,6.43,3.8,47.31.24,84.8.3,101.01.19,15.7.11,51.99.05,97.8-.2,1.5-.09,3.76-.76,6.23-3.82,2.11-2.61,3.51-5.92,4.53-8.44,6.45-16.06,7.14-25.52,14.25-49.42,1.63-5.49,3.27-10.51,2.69-14.41Z"/>
        </g>
      </g>
    </mask>
    <linearGradient id="_277" data-name="  277" x1="275.9" y1="329.88" x2="20.56" y2="329.88" gradientUnits="userSpaceOnUse">
      <stop offset="0" stop-color="#fff"/>
      <stop offset="0" stop-color="#f5f5f5"/>
      <stop offset=".05" stop-color="#c7c7c7"/>
      <stop offset=".09" stop-color="#9c9c9c"/>
      <stop offset=".14" stop-color="#777"/>
      <stop offset=".2" stop-color="#565656"/>
      <stop offset=".25" stop-color="#3b3b3b"/>
      <stop offset=".32" stop-color="#252525"/>
      <stop offset=".4" stop-color="#141414"/>
      <stop offset=".49" stop-color="#080808"/>
      <stop offset=".63" stop-color="#010101"/>
      <stop offset="1" stop-color="#000"/>
    </linearGradient>
    <filter id="luminosity-noclip-7" x="19.59" y="292.39" width="71.52" height="77.59" color-interpolation-filters="sRGB" filterUnits="userSpaceOnUse">
      <feFlood flood-color="#fff" result="bg"/>
      <feBlend in="SourceGraphic" in2="bg"/>
    </filter>
    <filter id="luminosity-noclip-8" x="19.59" y="-8679" width="71.52" height="32766" color-interpolation-filters="sRGB" filterUnits="userSpaceOnUse">
      <feFlood flood-color="#fff" result="bg"/>
      <feBlend in="SourceGraphic" in2="bg"/>
    </filter>
    <mask id="mask-7" x="19.59" y="-8679" width="71.52" height="32766" maskUnits="userSpaceOnUse"/>
    <linearGradient id="_626" data-name="  626" x1="21.05" y1="291.55" x2="72.51" y2="380.67" gradientUnits="userSpaceOnUse">
      <stop offset="0" stop-color="#000"/>
      <stop offset=".28" stop-color="#393939"/>
      <stop offset=".62" stop-color="#7a7a7a"/>
      <stop offset=".87" stop-color="#a3a3a3"/>
      <stop offset="1" stop-color="#b3b3b3"/>
    </linearGradient>
    <mask id="mask-6" x="19.59" y="292.39" width="71.52" height="77.59" maskUnits="userSpaceOnUse">
      <g class="cls-18">
        <g class="cls-86">
          <path class="cls-21" d="m91.1,369.94c-15.29.01-30.59.03-45.88.04-1.39-.06-3.47-.73-5.76-3.86-4.02-5.47-6.23-15.1-7.09-19.38-4.26-18.12-8.52-36.23-12.78-54.35,1.56,3.64,3.9,9.38,6.59,17.04,7.88,22.47,8.49,32.4,12.17,42.43,7.06,19.21,13.97,7.71,39.73,13.85,5.65,1.35,10.22,3.07,13.03,4.23Z"/>
        </g>
      </g>
    </mask>
    <linearGradient id="_278" data-name="  278" x1="21.05" y1="291.55" x2="72.51" y2="380.67" gradientUnits="userSpaceOnUse">
      <stop offset="0" stop-color="#fff"/>
      <stop offset="1" stop-color="#fff"/>
    </linearGradient>
    <filter id="luminosity-noclip-9" x="205.36" y="292.39" width="71.52" height="77.59" color-interpolation-filters="sRGB" filterUnits="userSpaceOnUse">
      <feFlood flood-color="#fff" result="bg"/>
      <feBlend in="SourceGraphic" in2="bg"/>
    </filter>
    <filter id="luminosity-noclip-10" x="205.36" y="-8679" width="71.52" height="32766" color-interpolation-filters="sRGB" filterUnits="userSpaceOnUse">
      <feFlood flood-color="#fff" result="bg"/>
      <feBlend in="SourceGraphic" in2="bg"/>
    </filter>
    <mask id="mask-9" x="205.36" y="-8679" width="71.52" height="32766" maskUnits="userSpaceOnUse"/>
    <linearGradient id="_625" data-name="  625" x1="1881.55" y1="291.55" x2="1933.01" y2="380.67" gradientTransform="translate(2156.96) rotate(-180) scale(1 -1)" gradientUnits="userSpaceOnUse">
      <stop offset="0" stop-color="#000"/>
      <stop offset=".04" stop-color="#0f0f0f"/>
      <stop offset=".15" stop-color="#3a3a3a"/>
      <stop offset=".27" stop-color="#5f5f5f"/>
      <stop offset=".39" stop-color="#7e7e7e"/>
      <stop offset=".52" stop-color="#959595"/>
      <stop offset=".66" stop-color="#a6a6a6"/>
      <stop offset=".81" stop-color="#afafaf"/>
      <stop offset="1" stop-color="#b3b3b3"/>
    </linearGradient>
    <mask id="mask-8" x="205.36" y="292.39" width="71.52" height="77.59" maskUnits="userSpaceOnUse">
      <g class="cls-62">
        <g class="cls-55">
          <path class="cls-19" d="m205.36,369.94c15.29.01,30.59.03,45.88.04,1.39-.06,3.47-.73,5.76-3.86,4.02-5.47,6.23-15.1,7.09-19.38,4.26-18.12,8.52-36.23,12.78-54.35-1.56,3.64-3.9,9.38-6.59,17.04-7.88,22.47-8.49,32.4-12.17,42.43-7.06,19.21-13.97,7.71-39.73,13.85-5.65,1.35-10.22,3.07-13.03,4.23Z"/>
        </g>
      </g>
    </mask>
    <linearGradient id="_245" data-name="  245" x1="1881.55" y1="291.55" x2="1933.01" y2="380.67" gradientTransform="translate(2156.96) rotate(-180) scale(1 -1)" gradientUnits="userSpaceOnUse">
      <stop offset="0" stop-color="#fff"/>
      <stop offset=".1" stop-color="#fff"/>
      <stop offset="1" stop-color="#fff"/>
    </linearGradient>
    <filter id="luminosity-noclip-11" x="18.31" y="284.14" width="53.72" height="39.41" color-interpolation-filters="sRGB" filterUnits="userSpaceOnUse">
      <feFlood flood-color="#fff" result="bg"/>
      <feBlend in="SourceGraphic" in2="bg"/>
    </filter>
    <filter id="luminosity-noclip-12" x="18.31" y="-8679" width="53.72" height="32766" color-interpolation-filters="sRGB" filterUnits="userSpaceOnUse">
      <feFlood flood-color="#fff" result="bg"/>
      <feBlend in="SourceGraphic" in2="bg"/>
    </filter>
    <mask id="mask-11" x="18.31" y="-8679" width="53.72" height="32766" maskUnits="userSpaceOnUse"/>
    <linearGradient id="_624" data-name="  624" x1="599.36" y1="919.56" x2="545.63" y2="919.56" gradientTransform="translate(-527.32 1223.41) scale(1 -1)" gradientUnits="userSpaceOnUse">
      <stop offset="0" stop-color="#000"/>
      <stop offset="0" stop-color="#010101"/>
      <stop offset=".13" stop-color="#303030"/>
      <stop offset=".26" stop-color="#585858"/>
      <stop offset=".4" stop-color="#797979"/>
      <stop offset=".54" stop-color="#929292"/>
      <stop offset=".68" stop-color="#a4a4a4"/>
      <stop offset=".83" stop-color="#afafaf"/>
      <stop offset="1" stop-color="#b3b3b3"/>
    </linearGradient>
    <mask id="mask-10" x="18.31" y="284.14" width="53.72" height="39.41" maskUnits="userSpaceOnUse">
      <g class="cls-1">
        <g class="cls-91">
          <path class="cls-30" d="m72.03,289.56c-9.91-2.02-36.76-7.18-46.56-4.81-2.16.52-6.8,1.76-7.14,7.7-.14,2.48.51,4.89,1.04,6.76,1.6,5.66,4.22,14.19,8.19,24.35-1.64-4.74-3.81-11.95-5.9-22.15-.77-3.75-1.15-5.65-1.09-6.6.56-9.68,15.71-3.27,37.98-3.97,5.67-.18,10.34-.77,13.49-1.27Z"/>
        </g>
      </g>
    </mask>
    <linearGradient id="_242" data-name="  242" x1="599.36" y1="919.56" x2="545.63" y2="919.56" gradientTransform="translate(-527.32 1223.41) scale(1 -1)" gradientUnits="userSpaceOnUse">
      <stop offset="0" stop-color="#fff"/>
      <stop offset=".06" stop-color="#fff"/>
      <stop offset="1" stop-color="#fff"/>
    </linearGradient>
    <filter id="luminosity-noclip-13" x="40.57" y="289.56" width="216.63" height="58.03" color-interpolation-filters="sRGB" filterUnits="userSpaceOnUse">
      <feFlood flood-color="#fff" result="bg"/>
      <feBlend in="SourceGraphic" in2="bg"/>
    </filter>
    <filter id="luminosity-noclip-14" x="40.57" y="-8679" width="216.63" height="32766" color-interpolation-filters="sRGB" filterUnits="userSpaceOnUse">
      <feFlood flood-color="#fff" result="bg"/>
      <feBlend in="SourceGraphic" in2="bg"/>
    </filter>
    <mask id="mask-13" x="40.57" y="-8679" width="216.63" height="32766" maskUnits="userSpaceOnUse"/>
    <linearGradient id="_620" data-name="  620" x1="40.57" y1="318.57" x2="257.2" y2="318.57" gradientUnits="userSpaceOnUse">
      <stop offset="0" stop-color="#000"/>
      <stop offset=".07" stop-color="#171717"/>
      <stop offset=".25" stop-color="#4e4e4e"/>
      <stop offset=".42" stop-color="#7b7b7b"/>
      <stop offset=".59" stop-color="#9e9e9e"/>
      <stop offset=".74" stop-color="#b7b7b7"/>
      <stop offset=".89" stop-color="#c6c6c6"/>
      <stop offset="1" stop-color="#ccc"/>
    </linearGradient>
    <mask id="mask-12" x="40.57" y="289.56" width="216.63" height="58.03" maskUnits="userSpaceOnUse">
      <g class="cls-37">
        <g class="cls-45">
          <rect class="cls-27" x="40.57" y="289.56" width="216.63" height="58.03"/>
        </g>
      </g>
    </mask>
    <linearGradient id="_276" data-name="  276" x1="40.57" y1="318.57" x2="257.2" y2="318.57" gradientUnits="userSpaceOnUse">
      <stop offset="0" stop-color="#fff"/>
      <stop offset=".02" stop-color="#f5f5f5"/>
      <stop offset=".18" stop-color="#b5b5b5"/>
      <stop offset=".34" stop-color="#7d7d7d"/>
      <stop offset=".49" stop-color="#505050"/>
      <stop offset=".64" stop-color="#2d2d2d"/>
      <stop offset=".78" stop-color="#141414"/>
      <stop offset=".9" stop-color="#050505"/>
      <stop offset="1" stop-color="#000"/>
    </linearGradient>
    <filter id="luminosity-noclip-15" x="40.57" y="347.58" width="216.63" height="9.77" color-interpolation-filters="sRGB" filterUnits="userSpaceOnUse">
      <feFlood flood-color="#fff" result="bg"/>
      <feBlend in="SourceGraphic" in2="bg"/>
    </filter>
    <filter id="luminosity-noclip-16" x="40.57" y="-8679" width="216.63" height="32766" color-interpolation-filters="sRGB" filterUnits="userSpaceOnUse">
      <feFlood flood-color="#fff" result="bg"/>
      <feBlend in="SourceGraphic" in2="bg"/>
    </filter>
    <mask id="mask-15" x="40.57" y="-8679" width="216.63" height="32766" maskUnits="userSpaceOnUse"/>
    <linearGradient id="_619" data-name="  619" x1="148.88" y1="347.58" x2="148.88" y2="357.35" gradientUnits="userSpaceOnUse">
      <stop offset=".63" stop-color="#000"/>
      <stop offset=".64" stop-color="#090909"/>
      <stop offset=".67" stop-color="#363636"/>
      <stop offset=".7" stop-color="#5e5e5e"/>
      <stop offset=".74" stop-color="gray"/>
      <stop offset=".78" stop-color="#9c9c9c"/>
      <stop offset=".82" stop-color="#b1b1b1"/>
      <stop offset=".86" stop-color="silver"/>
      <stop offset=".92" stop-color="#c9c9c9"/>
      <stop offset="1" stop-color="#ccc"/>
    </linearGradient>
    <mask id="mask-14" x="40.57" y="347.58" width="216.63" height="9.77" maskUnits="userSpaceOnUse">
      <g class="cls-51">
        <g class="cls-72">
          <polygon class="cls-28" points="254.8 357.35 42.97 357.35 40.57 347.58 257.2 347.58 254.8 357.35"/>
        </g>
      </g>
    </mask>
    <linearGradient id="_275" data-name="  275" x1="148.88" y1="347.58" x2="148.88" y2="357.35" gradientUnits="userSpaceOnUse">
      <stop offset=".63" stop-color="#fff"/>
      <stop offset=".64" stop-color="#f7f7f7"/>
      <stop offset=".66" stop-color="#c3c3c3"/>
      <stop offset=".69" stop-color="#959595"/>
      <stop offset=".73" stop-color="#6d6d6d"/>
      <stop offset=".76" stop-color="#4b4b4b"/>
      <stop offset=".79" stop-color="#2f2f2f"/>
      <stop offset=".83" stop-color="#1a1a1a"/>
      <stop offset=".88" stop-color="#0b0b0b"/>
      <stop offset=".92" stop-color="#020202"/>
      <stop offset="1" stop-color="#000"/>
    </linearGradient>
    <filter id="luminosity-noclip-17" x="40.57" y="289.56" width="216.63" height="58.03" color-interpolation-filters="sRGB" filterUnits="userSpaceOnUse">
      <feFlood flood-color="#fff" result="bg"/>
      <feBlend in="SourceGraphic" in2="bg"/>
    </filter>
    <filter id="luminosity-noclip-18" x="40.57" y="-8679" width="216.63" height="32766" color-interpolation-filters="sRGB" filterUnits="userSpaceOnUse">
      <feFlood flood-color="#fff" result="bg"/>
      <feBlend in="SourceGraphic" in2="bg"/>
    </filter>
    <mask id="mask-17" x="40.57" y="-8679" width="216.63" height="32766" maskUnits="userSpaceOnUse"/>
    <linearGradient id="_617" data-name="  617" x1="40.57" y1="318.57" x2="257.2" y2="318.57" gradientUnits="userSpaceOnUse">
      <stop offset="0" stop-color="#000"/>
      <stop offset=".07" stop-color="#171717"/>
      <stop offset=".25" stop-color="#4e4e4e"/>
      <stop offset=".42" stop-color="#7b7b7b"/>
      <stop offset=".59" stop-color="#9e9e9e"/>
      <stop offset=".74" stop-color="#b7b7b7"/>
      <stop offset=".89" stop-color="#c6c6c6"/>
      <stop offset="1" stop-color="#ccc"/>
    </linearGradient>
    <mask id="mask-16" x="40.57" y="289.56" width="216.63" height="58.03" maskUnits="userSpaceOnUse">
      <g class="cls-13">
        <g class="cls-38">
          <rect class="cls-33" x="40.57" y="289.56" width="216.63" height="58.03"/>
        </g>
      </g>
    </mask>
    <filter id="luminosity-noclip-19" x="40.57" y="347.58" width="216.63" height="9.77" color-interpolation-filters="sRGB" filterUnits="userSpaceOnUse">
      <feFlood flood-color="#fff" result="bg"/>
      <feBlend in="SourceGraphic" in2="bg"/>
    </filter>
    <filter id="luminosity-noclip-20" x="40.57" y="-8679" width="216.63" height="32766" color-interpolation-filters="sRGB" filterUnits="userSpaceOnUse">
      <feFlood flood-color="#fff" result="bg"/>
      <feBlend in="SourceGraphic" in2="bg"/>
    </filter>
    <mask id="mask-19" x="40.57" y="-8679" width="216.63" height="32766" maskUnits="userSpaceOnUse"/>
    <linearGradient id="_615" data-name="  615" x1="148.88" y1="347.58" x2="148.88" y2="357.35" gradientUnits="userSpaceOnUse">
      <stop offset=".63" stop-color="#000"/>
      <stop offset=".64" stop-color="#090909"/>
      <stop offset=".67" stop-color="#363636"/>
      <stop offset=".7" stop-color="#5e5e5e"/>
      <stop offset=".74" stop-color="gray"/>
      <stop offset=".78" stop-color="#9c9c9c"/>
      <stop offset=".82" stop-color="#b1b1b1"/>
      <stop offset=".86" stop-color="silver"/>
      <stop offset=".92" stop-color="#c9c9c9"/>
      <stop offset="1" stop-color="#ccc"/>
    </linearGradient>
    <mask id="mask-18" x="40.57" y="347.58" width="216.63" height="9.77" maskUnits="userSpaceOnUse">
      <g class="cls-88">
        <g class="cls-71">
          <polygon class="cls-34" points="254.8 357.35 42.97 357.35 40.57 347.58 257.2 347.58 254.8 357.35"/>
        </g>
      </g>
    </mask>
    <filter id="luminosity-noclip-21" x="31.15" y="289.56" width="235.47" height="29.01" color-interpolation-filters="sRGB" filterUnits="userSpaceOnUse">
      <feFlood flood-color="#fff" result="bg"/>
      <feBlend in="SourceGraphic" in2="bg"/>
    </filter>
    <filter id="luminosity-noclip-22" x="31.15" y="-8679" width="235.47" height="32766" color-interpolation-filters="sRGB" filterUnits="userSpaceOnUse">
      <feFlood flood-color="#fff" result="bg"/>
      <feBlend in="SourceGraphic" in2="bg"/>
    </filter>
    <mask id="mask-21" x="31.15" y="-8679" width="235.47" height="32766" maskUnits="userSpaceOnUse"/>
    <linearGradient id="_614" data-name="  614" x1="266.62" y1="304.06" x2="31.15" y2="304.06" gradientUnits="userSpaceOnUse">
      <stop offset="0" stop-color="#000"/>
      <stop offset=".07" stop-color="#171717"/>
      <stop offset=".25" stop-color="#4e4e4e"/>
      <stop offset=".42" stop-color="#7b7b7b"/>
      <stop offset=".59" stop-color="#9e9e9e"/>
      <stop offset=".74" stop-color="#b7b7b7"/>
      <stop offset=".89" stop-color="#c6c6c6"/>
      <stop offset="1" stop-color="#ccc"/>
    </linearGradient>
    <mask id="mask-20" x="31.15" y="289.56" width="235.47" height="29.01" maskUnits="userSpaceOnUse">
      <g class="cls-59">
        <g class="cls-89">
          <rect class="cls-35" x="31.15" y="289.56" width="235.47" height="29.01"/>
        </g>
      </g>
    </mask>
    <linearGradient id="_276-2" data-name="  276" x1="266.62" y1="304.06" x2="31.15" y2="304.06" xlink:href="#_276"/>
    <filter id="luminosity-noclip-23" x="31.15" y="318.57" width="235.47" height="9.77" color-interpolation-filters="sRGB" filterUnits="userSpaceOnUse">
      <feFlood flood-color="#fff" result="bg"/>
      <feBlend in="SourceGraphic" in2="bg"/>
    </filter>
    <filter id="luminosity-noclip-24" x="31.15" y="-8679" width="235.47" height="32766" color-interpolation-filters="sRGB" filterUnits="userSpaceOnUse">
      <feFlood flood-color="#fff" result="bg"/>
      <feBlend in="SourceGraphic" in2="bg"/>
    </filter>
    <mask id="mask-23" x="31.15" y="-8679" width="235.47" height="32766" maskUnits="userSpaceOnUse"/>
    <linearGradient id="_613" data-name="  613" x1="148.88" y1="318.57" x2="148.88" y2="328.34" gradientUnits="userSpaceOnUse">
      <stop offset=".63" stop-color="#000"/>
      <stop offset=".64" stop-color="#090909"/>
      <stop offset=".67" stop-color="#363636"/>
      <stop offset=".7" stop-color="#5e5e5e"/>
      <stop offset=".74" stop-color="gray"/>
      <stop offset=".78" stop-color="#9c9c9c"/>
      <stop offset=".82" stop-color="#b1b1b1"/>
      <stop offset=".86" stop-color="silver"/>
      <stop offset=".92" stop-color="#c9c9c9"/>
      <stop offset="1" stop-color="#ccc"/>
    </linearGradient>
    <mask id="mask-22" x="31.15" y="318.57" width="235.47" height="9.77" maskUnits="userSpaceOnUse">
      <g class="cls-83">
        <g class="cls-14">
          <polygon class="cls-36" points="264.01 328.34 33.75 328.34 31.15 318.57 266.62 318.57 264.01 328.34"/>
        </g>
      </g>
    </mask>
    <linearGradient id="_275-2" data-name="  275" x1="148.88" y1="318.57" x2="148.88" y2="328.34" xlink:href="#_275"/>
    <filter id="luminosity-noclip-25" x=".11" y="0" width="296.49" height="282.12" color-interpolation-filters="sRGB" filterUnits="userSpaceOnUse">
      <feFlood flood-color="#fff" result="bg"/>
      <feBlend in="SourceGraphic" in2="bg"/>
    </filter>
    <filter id="luminosity-noclip-26" x=".11" y="-8679" width="296.49" height="32766" color-interpolation-filters="sRGB" filterUnits="userSpaceOnUse">
      <feFlood flood-color="#fff" result="bg"/>
      <feBlend in="SourceGraphic" in2="bg"/>
    </filter>
    <mask id="mask-25" x=".11" y="-8679" width="296.49" height="32766" maskUnits="userSpaceOnUse"/>
    <linearGradient id="_612" data-name="  612" x1=".11" y1="141.06" x2="296.6" y2="141.06" gradientUnits="userSpaceOnUse">
      <stop offset="0" stop-color="#000"/>
      <stop offset=".1" stop-color="#2e2e2e"/>
      <stop offset=".2" stop-color="#585858"/>
      <stop offset=".3" stop-color="#7c7c7c"/>
      <stop offset=".41" stop-color="#999"/>
      <stop offset=".53" stop-color="#afafaf"/>
      <stop offset=".66" stop-color="#bfbfbf"/>
      <stop offset=".8" stop-color="#c9c9c9"/>
      <stop offset="1" stop-color="#ccc"/>
    </linearGradient>
    <mask id="mask-24" x=".11" y="0" width="296.49" height="282.12" maskUnits="userSpaceOnUse">
      <g class="cls-43">
        <g class="cls-65">
          <rect class="cls-25" x=".11" width="296.49" height="282.12" rx="15.04" ry="15.04"/>
        </g>
      </g>
    </mask>
    <linearGradient id="_622" data-name="  622" x1=".11" y1="141.06" x2="296.6" y2="141.06" gradientUnits="userSpaceOnUse">
      <stop offset="0" stop-color="#fff"/>
      <stop offset=".08" stop-color="#cecece"/>
      <stop offset=".17" stop-color="#9e9e9e"/>
      <stop offset=".26" stop-color="#737373"/>
      <stop offset=".36" stop-color="#4f4f4f"/>
      <stop offset=".46" stop-color="#323232"/>
      <stop offset=".57" stop-color="#1c1c1c"/>
      <stop offset=".69" stop-color="#0c0c0c"/>
      <stop offset=".82" stop-color="#020202"/>
      <stop offset="1" stop-color="#000"/>
    </linearGradient>
    <filter id="luminosity-noclip-27" x="5.16" y="9.34" width="286.14" height="263.44" color-interpolation-filters="sRGB" filterUnits="userSpaceOnUse">
      <feFlood flood-color="#fff" result="bg"/>
      <feBlend in="SourceGraphic" in2="bg"/>
    </filter>
    <filter id="luminosity-noclip-28" x="5.16" y="-8679" width="286.14" height="32766" color-interpolation-filters="sRGB" filterUnits="userSpaceOnUse">
      <feFlood flood-color="#fff" result="bg"/>
      <feBlend in="SourceGraphic" in2="bg"/>
    </filter>
    <mask id="mask-27" x="5.16" y="-8679" width="286.14" height="32766" maskUnits="userSpaceOnUse"/>
    <linearGradient id="_611" data-name="  611" x1="308.04" y1="48.79" x2="-11.58" y2="233.33" gradientUnits="userSpaceOnUse">
      <stop offset="0" stop-color="#000"/>
      <stop offset=".33" stop-color="#4d4d4d"/>
      <stop offset=".65" stop-color="#919191"/>
      <stop offset=".88" stop-color="#bbb"/>
      <stop offset="1" stop-color="#ccc"/>
    </linearGradient>
    <mask id="mask-26" x="5.16" y="9.34" width="286.14" height="263.44" maskUnits="userSpaceOnUse">
      <g class="cls-90">
        <g class="cls-15">
          <rect class="cls-24" x="5.16" y="9.34" width="286.14" height="263.44" rx="14.28" ry="14.28"/>
        </g>
      </g>
    </mask>
    <linearGradient id="_616" data-name="  616" x1="308.04" y1="48.79" x2="-11.58" y2="233.33" gradientUnits="userSpaceOnUse">
      <stop offset="0" stop-color="#fff"/>
      <stop offset=".12" stop-color="#dcdcdc"/>
      <stop offset=".44" stop-color="#7f7f7f"/>
      <stop offset=".71" stop-color="#3a3a3a"/>
      <stop offset=".9" stop-color="#101010"/>
      <stop offset="1" stop-color="#000"/>
    </linearGradient>
    <filter id="luminosity-noclip-29" x="4.73" y="109.42" width="176.44" height="163.71" color-interpolation-filters="sRGB" filterUnits="userSpaceOnUse">
      <feFlood flood-color="#fff" result="bg"/>
      <feBlend in="SourceGraphic" in2="bg"/>
    </filter>
    <filter id="luminosity-noclip-30" x="4.73" y="-8679" width="176.44" height="32766" color-interpolation-filters="sRGB" filterUnits="userSpaceOnUse">
      <feFlood flood-color="#fff" result="bg"/>
      <feBlend in="SourceGraphic" in2="bg"/>
    </filter>
    <mask id="mask-29" x="4.73" y="-8679" width="176.44" height="32766" maskUnits="userSpaceOnUse"/>
    <linearGradient id="_610" data-name="  610" x1="5.51" y1="109.22" x2="120.25" y2="307.95" gradientUnits="userSpaceOnUse">
      <stop offset="0" stop-color="#000"/>
      <stop offset=".14" stop-color="#040404"/>
      <stop offset=".29" stop-color="#101010"/>
      <stop offset=".45" stop-color="#262626"/>
      <stop offset=".6" stop-color="#434343"/>
      <stop offset=".76" stop-color="#696969"/>
      <stop offset=".92" stop-color="#979797"/>
      <stop offset="1" stop-color="#b3b3b3"/>
    </linearGradient>
    <mask id="mask-28" x="4.73" y="109.42" width="176.44" height="163.71" maskUnits="userSpaceOnUse">
      <g class="cls-49">
        <g class="cls-85">
          <path class="cls-20" d="m181.17,272.78H31.16c-1.94.47-8.86,1.71-15.67-6.47-8.36-10.04-10.1-26.52-10.37-29.34-.63-102.15-.38-127.53.05-127.55.52-.02,1.07,36.53,4.91,93.04,1.75,25.88,2.63,38.81,3.67,42.02,12.09,37.34,51.58,16.89,125.41,22.54,17.99,1.38,32.65,3.9,42.02,5.75Z"/>
        </g>
      </g>
    </mask>
    <linearGradient id="_603" data-name="  603" x1="5.51" y1="109.22" x2="120.25" y2="307.95" gradientUnits="userSpaceOnUse">
      <stop offset="0" stop-color="#fff"/>
      <stop offset="1" stop-color="#fff"/>
    </linearGradient>
    <filter id="luminosity-noclip-31" x="114.88" y="7.73" width="176.44" height="163.71" color-interpolation-filters="sRGB" filterUnits="userSpaceOnUse">
      <feFlood flood-color="#fff" result="bg"/>
      <feBlend in="SourceGraphic" in2="bg"/>
    </filter>
    <filter id="luminosity-noclip-32" x="114.88" y="-8679" width="176.44" height="32766" color-interpolation-filters="sRGB" filterUnits="userSpaceOnUse">
      <feFlood flood-color="#fff" result="bg"/>
      <feBlend in="SourceGraphic" in2="bg"/>
    </filter>
    <mask id="mask-31" x="114.88" y="-8679" width="176.44" height="32766" maskUnits="userSpaceOnUse"/>
    <linearGradient id="_609" data-name="  609" x1="965.21" y1="745.23" x2="1079.95" y2="943.96" gradientTransform="translate(1255.75 916.87) rotate(-180)" gradientUnits="userSpaceOnUse">
      <stop offset="0" stop-color="#000"/>
      <stop offset="1" stop-color="#b3b3b3"/>
    </linearGradient>
    <mask id="mask-30" x="114.88" y="7.73" width="176.44" height="163.71" maskUnits="userSpaceOnUse">
      <g class="cls-44">
        <g class="cls-50">
          <path class="cls-23" d="m114.88,8.09h150.02c1.94-.47,8.86-1.71,15.67,6.47,8.36,10.04,10.1,26.52,10.37,29.33.63,102.15.38,127.53-.05,127.55-.52.02-1.07-36.53-4.91-93.04-1.75-25.88-2.63-38.81-3.67-42.02-12.09-37.34-51.58-16.89-125.41-22.54-17.99-1.38-32.65-3.9-42.02-5.75Z"/>
        </g>
      </g>
    </mask>
    <linearGradient id="_604" data-name="  604" x1="965.21" y1="745.23" x2="1079.95" y2="943.96" gradientTransform="translate(1255.75 916.87) rotate(-180)" gradientUnits="userSpaceOnUse">
      <stop offset="0" stop-color="#fff"/>
      <stop offset="1" stop-color="#fff"/>
    </linearGradient>
    <filter id="luminosity-noclip-33" x="18.72" y="116.38" width="277.02" height="170.3" color-interpolation-filters="sRGB" filterUnits="userSpaceOnUse">
      <feFlood flood-color="#fff" result="bg"/>
      <feBlend in="SourceGraphic" in2="bg"/>
    </filter>
    <filter id="luminosity-noclip-34" x="18.72" y="-8679" width="277.02" height="32766" color-interpolation-filters="sRGB" filterUnits="userSpaceOnUse">
      <feFlood flood-color="#fff" result="bg"/>
      <feBlend in="SourceGraphic" in2="bg"/>
    </filter>
    <mask id="mask-33" x="18.72" y="-8679" width="277.02" height="32766" maskUnits="userSpaceOnUse"/>
    <linearGradient id="_608" data-name="  608" x1="1237.03" y1="-43.94" x2="960.01" y2="-43.94" gradientTransform="translate(1255.75 245.46) rotate(-180) scale(1 -1)" gradientUnits="userSpaceOnUse">
      <stop offset="0" stop-color="#000"/>
      <stop offset=".19" stop-color="#2c2c2c"/>
      <stop offset=".63" stop-color="#9c9c9c"/>
      <stop offset="1" stop-color="#fff"/>
    </linearGradient>
    <mask id="mask-32" x="18.72" y="116.38" width="277.02" height="170.3" maskUnits="userSpaceOnUse">
      <g class="cls-67">
        <g class="cls-42">
          <path class="cls-31" d="m18.72,282.12c-.15,13.94,225.31-9.36,250.26-.51,1.84.65,8.84,3.7,16.18-8.35,5.18-8.51,8.54-21.29,10.37-29.33.22-61.47.37-127.54-.05-127.55-.09,0-.19,3.39-.26,5.97-1.01,37.74-.5,62.68-1.13,86.29-.71,26.45-1.24,39.6-4.15,50.33-1.59,5.87-4.84,14.52-20.24,17.23-7.48,1.31-11.21,1.97-17.37-.34-5.47-2.05-34.19-2.1-91.62-2.2-22.83-.04-39.38.77-58.02,1.69-55.95,2.75-83.93,4.13-83.96,6.76Z"/>
        </g>
      </g>
    </mask>
    <linearGradient id="_238" data-name="  238" x1="1237.03" y1="-43.94" x2="960.01" y2="-43.94" gradientTransform="translate(1255.75 245.46) rotate(-180) scale(1 -1)" gradientUnits="userSpaceOnUse">
      <stop offset="0" stop-color="#fff"/>
      <stop offset="1" stop-color="#fff"/>
    </linearGradient>
    <filter id="luminosity-noclip-35" x="5.16" y="9.27" width="286.14" height="263.44" color-interpolation-filters="sRGB" filterUnits="userSpaceOnUse">
      <feFlood flood-color="#fff" result="bg"/>
      <feBlend in="SourceGraphic" in2="bg"/>
    </filter>
    <filter id="luminosity-noclip-36" x="5.16" y="-8679" width="286.14" height="32766" color-interpolation-filters="sRGB" filterUnits="userSpaceOnUse">
      <feFlood flood-color="#fff" result="bg"/>
      <feBlend in="SourceGraphic" in2="bg"/>
    </filter>
    <mask id="mask-35" x="5.16" y="-8679" width="286.14" height="32766" maskUnits="userSpaceOnUse"/>
    <linearGradient id="_607" data-name="  607" x1="103" y1="-36.21" x2="279.07" y2="268.76" gradientUnits="userSpaceOnUse">
      <stop offset="0" stop-color="#000"/>
      <stop offset=".14" stop-color="#060606"/>
      <stop offset=".34" stop-color="#191919"/>
      <stop offset=".58" stop-color="#383838"/>
      <stop offset=".85" stop-color="#636363"/>
      <stop offset="1" stop-color="gray"/>
    </linearGradient>
    <mask id="mask-34" x="5.16" y="9.27" width="286.14" height="263.44" maskUnits="userSpaceOnUse">
      <g class="cls-64">
        <g class="cls-60">
          <path class="cls-22" d="m268.83,272.7c-40.71-24.95-70.9-53.83-90.34-74.7-39.43-42.31-53.33-71.64-89.1-102.38C55.21,66.26,24.51,55.74,5.16,51.34c0-2.8.15-17.71,6.58-29.75,4.07-7.61,9.69-12.32,15.89-12.32h241.19c12.41,0,22.47,18.84,22.47,42.07v179.29c0,23.24-10.06,42.07-22.47,42.07Z"/>
        </g>
      </g>
    </mask>
    <linearGradient id="_618" data-name="  618" x1="103" y1="-36.21" x2="279.07" y2="268.76" gradientUnits="userSpaceOnUse">
      <stop offset="0" stop-color="#fff"/>
      <stop offset="1" stop-color="#fff"/>
    </linearGradient>
  </defs>
  <path class="cls-79" d="m31.02,406.75l.12-240.67c0-14.26,5.73-25.81,12.79-25.8l248.31.41c7.05.01,12.77,11.58,12.76,25.84l-.12,240.68c0,14.26-5.73,25.81-12.79,25.8l-248.31-.41c-7.05-.01-12.77-11.58-12.76-25.84Z"/>
  <g>
    <g>
      <g>
        <path class="cls-53" d="m148.23,273.32H8.04c8.78,44.65,15.97,80.92,19.09,91.89,2.07,7.28,4.14,10.55,4.55,11.21,0,0,2.77,4.39,6.26,5.06,4.89.93,49.42,1,110.29-.04,60.86,1.04,105.4.92,110.29-.02,3.49-.67,6.26-5.14,6.26-5.14.41-.67,2.48-3.8,4.55-11.08,3.12-10.97,10.32-47.24,19.09-91.89h-140.19Z"/>
        <g class="cls-82">
          <path class="cls-6" d="m148.23,273.32H8.04c8.78,44.65,15.97,80.92,19.09,91.89,2.07,7.28,4.14,10.55,4.55,11.21,0,0,2.77,4.39,6.26,5.06,4.89.93,49.42,1,110.29-.04,60.86,1.04,105.4.92,110.29-.02,3.49-.67,6.26-5.14,6.26-5.14.41-.67,2.48-3.8,4.55-11.08,3.12-10.97,10.32-47.24,19.09-91.89h-140.19Z"/>
        </g>
        <g class="cls-40">
          <path class="cls-8" d="m148.23,273.32H8.04c8.78,44.65,15.97,80.74,19.09,91.7,2.07,7.28,4.14,10.46,4.55,11.12,0,0,2.77,4.35,6.26,5.01,4.89.93,49.42.98,110.29-.06,60.86,1.04,105.4.91,110.29-.03,3.49-.67,6.26-5.14,6.26-5.14.41-.67,2.48-3.62,4.55-10.9,3.12-10.97,10.32-47.06,19.09-91.71h-140.19Z"/>
        </g>
        <path class="cls-11" d="m275.78,293.86c-.62-4.1-3.33-4.3-4.57-4.3H25.41c-1.28,0-4.08.2-4.72,4.3-.61,3.9,1.09,8.92,2.77,14.41,7.35,23.9,8.06,33.41,14.72,49.47,1.05,2.53,2.5,5.8,4.68,8.42,2.54,3.05,4.88,3.71,6.43,3.8,47.31.24,84.8.3,101.01.19,15.7.11,51.99.05,97.8-.2,1.5-.09,3.76-.76,6.23-3.82,2.11-2.61,3.51-5.92,4.53-8.44,6.45-16.06,7.14-25.52,14.25-49.42,1.63-5.49,3.27-10.51,2.69-14.41Z"/>
        <g class="cls-68">
          <path class="cls-5" d="m275.78,293.86c-.62-4.1-3.33-4.3-4.57-4.3H25.41c-1.28,0-4.08.2-4.72,4.3-.61,3.9,1.09,8.92,2.77,14.41,7.35,23.9,8.06,33.41,14.72,49.47,1.05,2.53,2.5,5.8,4.68,8.42,2.54,3.05,4.88,3.71,6.43,3.8,47.31.24,84.8.3,101.01.19,15.7.11,51.99.05,97.8-.2,1.5-.09,3.76-.76,6.23-3.82,2.11-2.61,3.51-5.92,4.53-8.44,6.45-16.06,7.14-25.52,14.25-49.42,1.63-5.49,3.27-10.51,2.69-14.41Z"/>
        </g>
        <g class="cls-75">
          <path class="cls-12" d="m91.1,369.94c-15.29.01-30.59.03-45.88.04-1.39-.06-3.47-.73-5.76-3.86-4.02-5.47-6.23-15.1-7.09-19.38-4.26-18.12-8.52-36.23-12.78-54.35,1.56,3.64,3.9,9.38,6.59,17.04,7.88,22.47,8.49,32.4,12.17,42.43,7.06,19.21,13.97,7.71,39.73,13.85,5.65,1.35,10.22,3.07,13.03,4.23Z"/>
        </g>
        <g class="cls-66">
          <path class="cls-78" d="m205.36,369.94c15.29.01,30.59.03,45.88.04,1.39-.06,3.47-.73,5.76-3.86,4.02-5.47,6.23-15.1,7.09-19.38,4.26-18.12,8.52-36.23,12.78-54.35-1.56,3.64-3.9,9.38-6.59,17.04-7.88,22.47-8.49,32.4-12.17,42.43-7.06,19.21-13.97,7.71-39.73,13.85-5.65,1.35-10.22,3.07-13.03,4.23Z"/>
        </g>
        <g class="cls-16">
          <path class="cls-70" d="m72.03,289.56c-9.91-2.02-36.76-7.18-46.56-4.81-2.16.52-6.8,1.76-7.14,7.7-.14,2.48.51,4.89,1.04,6.76,1.6,5.66,4.22,14.19,8.19,24.35-1.64-4.74-3.81-11.95-5.9-22.15-.77-3.75-1.15-5.65-1.09-6.6.56-9.68,15.71-3.27,37.98-3.97,5.67-.18,10.34-.77,13.49-1.27Z"/>
        </g>
      </g>
      <g>
        <rect class="cls-53" x="40.57" y="289.56" width="216.63" height="58.03"/>
        <g class="cls-56">
          <rect class="cls-2" x="40.57" y="289.56" width="216.63" height="58.03"/>
        </g>
        <polygon class="cls-46" points="254.8 357.35 42.97 357.35 40.57 347.58 257.2 347.58 254.8 357.35"/>
        <g class="cls-87">
          <polygon class="cls-4" points="254.8 357.35 42.97 357.35 40.57 347.58 257.2 347.58 254.8 357.35"/>
        </g>
        <g>
          <rect class="cls-53" x="40.57" y="289.56" width="216.63" height="58.03"/>
          <g class="cls-76">
            <rect class="cls-2" x="40.57" y="289.56" width="216.63" height="58.03"/>
          </g>
          <polygon class="cls-46" points="254.8 357.35 42.97 357.35 40.57 347.58 257.2 347.58 254.8 357.35"/>
          <g class="cls-77">
            <polygon class="cls-4" points="254.8 357.35 42.97 357.35 40.57 347.58 257.2 347.58 254.8 357.35"/>
          </g>
        </g>
      </g>
      <g>
        <g>
          <rect class="cls-53" x="31.15" y="289.56" width="235.47" height="29.01"/>
          <g class="cls-61">
            <rect class="cls-10" x="31.15" y="289.56" width="235.47" height="29.01"/>
          </g>
        </g>
        <g>
          <polygon class="cls-46" points="264.01 328.34 33.75 328.34 31.15 318.57 266.62 318.57 264.01 328.34"/>
          <g class="cls-84">
            <polygon class="cls-3" points="264.01 328.34 33.75 328.34 31.15 318.57 266.62 318.57 264.01 328.34"/>
          </g>
        </g>
      </g>
    </g>
    <g>
      <path class="cls-58" d="m15.04,0h266.41c8.3,0,15.04,6.74,15.04,15.04v252.03c0,8.3-6.74,15.04-15.04,15.04H15.04c-8.3,0-15.04-6.74-15.04-15.04V15.04C0,6.74,6.74,0,15.04,0Z"/>
      <g class="cls-69">
        <rect class="cls-9" x=".11" width="296.49" height="282.12" rx="15.04" ry="15.04"/>
      </g>
      <rect class="cls-53" x="5.18" y="9.34" width="286.14" height="263.44" rx="14.28" ry="14.28"/>
      <g class="cls-17">
        <rect class="cls-7" x="5.16" y="9.34" width="286.14" height="263.44" rx="14.28" ry="14.28"/>
      </g>
      <g class="cls-92">
        <path class="cls-63" d="m181.17,272.78H31.16c-1.94.47-8.86,1.71-15.67-6.47-8.36-10.04-10.1-26.52-10.37-29.34-.63-102.15-.38-127.53.05-127.55.52-.02,1.07,36.53,4.91,93.04,1.75,25.88,2.63,38.81,3.67,42.02,12.09,37.34,51.58,16.89,125.41,22.54,17.99,1.38,32.65,3.9,42.02,5.75Z"/>
      </g>
      <g class="cls-52">
        <path class="cls-73" d="m114.88,8.09h150.02c1.94-.47,8.86-1.71,15.67,6.47,8.36,10.04,10.1,26.52,10.37,29.33.63,102.15.38,127.53-.05,127.55-.52.02-1.07-36.53-4.91-93.04-1.75-25.88-2.63-38.81-3.67-42.02-12.09-37.34-51.58-16.89-125.41-22.54-17.99-1.38-32.65-3.9-42.02-5.75Z"/>
      </g>
      <g class="cls-54">
        <path class="cls-48" d="m18.72,282.12c-.15,13.94,225.31-9.36,250.26-.51,1.84.65,8.84,3.7,16.18-8.35,5.18-8.51,8.54-21.29,10.37-29.33.22-61.47.37-127.54-.05-127.55-.09,0-.19,3.39-.26,5.97-1.01,37.74-.5,62.68-1.13,86.29-.71,26.45-1.24,39.6-4.15,50.33-1.59,5.87-4.84,14.52-20.24,17.23-7.48,1.31-11.21,1.97-17.37-.34-5.47-2.05-34.19-2.1-91.62-2.2-22.83-.04-39.38.77-58.02,1.69-55.95,2.75-83.93,4.13-83.96,6.76Z"/>
      </g>
      <g class="cls-41">
        <path class="cls-74" d="m268.83,272.7c-40.71-24.95-70.9-53.83-90.34-74.7-39.43-42.31-53.33-71.64-89.1-102.38C55.21,66.26,24.51,55.74,5.16,51.34c0-2.8.15-17.71,6.58-29.75,4.07-7.61,9.69-12.32,15.89-12.32h241.19c12.41,0,22.47,18.84,22.47,42.07v179.29c0,23.24-10.06,42.07-22.47,42.07Z"/>
      </g>
    </g>
  </g>
</svg>