<?xml version="1.0" encoding="UTF-8"?>
<svg xmlns="http://www.w3.org/2000/svg" xmlns:xlink="http://www.w3.org/1999/xlink" viewBox="0 0 887.12 384">
  <defs>
    <style>
      .cls-1 {
        fill: #ddd;
      }

      .cls-2 {
        fill: #e9e9e9;
      }

      .cls-3 {
        fill: url(#linear-gradient-2);
      }

      .cls-4 {
        fill: #f0f0f0;
      }

      .cls-5 {
        fill: #f4f4f4;
      }

      .cls-6 {
        fill: #fff;
      }

      .cls-7 {
        fill: #cbcbcb;
      }

      .cls-8 {
        fill: #d1d1d1;
      }

      .cls-9 {
        fill: #fafafa;
      }

      .cls-10 {
        fill: #dbdbdb;
      }

      .cls-11 {
        fill: #cacaca;
      }

      .cls-12 {
        fill: #d8d8d8;
      }

      .cls-13 {
        fill: #f6f6f6;
      }

      .cls-14 {
        fill: #e2e2e2;
      }

      .cls-15 {
        fill: #f5f5f5;
      }

      .cls-16 {
        isolation: isolate;
      }

      .cls-17 {
        fill: #d6d6d6;
      }

      .cls-18 {
        fill: #c9c9c9;
      }

      .cls-19 {
        fill: #e0e0e0;
      }

      .cls-20 {
        fill: #c7c7c7;
      }

      .cls-21 {
        fill: #dedede;
      }

      .cls-22 {
        fill: #cfcfcf;
      }

      .cls-23 {
        fill: #d7d7d7;
      }

      .cls-24 {
        fill: #e1e1e1;
      }

      .cls-25 {
        fill: #e6e6e6;
      }

      .cls-26 {
        fill: #e7e7e7;
      }

      .cls-27 {
        fill: #d4d4d4;
      }

      .cls-28 {
        fill: #dadada;
      }

      .cls-29 {
        fill: #eaeaea;
      }

      .cls-30 {
        fill: #c8c8c8;
      }

      .cls-31 {
        fill: #fdfdfd;
      }

      .cls-32 {
        fill: #e4e4e4;
      }

      .cls-33 {
        fill: #fbfbfb;
      }

      .cls-34 {
        fill: #f9f9f9;
      }

      .cls-35 {
        fill: #8f8f8e;
      }

      .cls-36 {
        fill: #e5e5e5;
      }

      .cls-37 {
        fill: #d3d3d3;
      }

      .cls-38 {
        fill: #ebebeb;
      }

      .cls-39 {
        fill: #d5d5d5;
      }

      .cls-40 {
        fill: #dcdcdc;
      }

      .cls-41 {
        fill: #706f6f;
      }

      .cls-41, .cls-42 {
        mix-blend-mode: multiply;
      }

      .cls-43 {
        fill: #e8e8e8;
      }

      .cls-44 {
        fill: #ccc;
      }

      .cls-45 {
        fill: #f7f7f7;
      }

      .cls-46 {
        fill: #efefef;
      }

      .cls-47 {
        fill: #f1f1f1;
      }

      .cls-48 {
        fill: #cecece;
      }

      .cls-49 {
        fill: #f3f3f3;
      }

      .cls-50 {
        fill: url(#linear-gradient);
        stroke: #9d9d9c;
        stroke-miterlimit: 10;
        stroke-width: .03px;
      }

      .cls-51 {
        fill: #d9d9d9;
      }

      .cls-52 {
        fill: #cdcdcd;
      }

      .cls-53 {
        fill: #f8f8f8;
      }

      .cls-54 {
        fill: #d2d2d2;
      }

      .cls-55 {
        fill: #c6c6c6;
      }

      .cls-56 {
        fill: #eee;
      }

      .cls-57 {
        fill: #d0d0d0;
      }

      .cls-58 {
        fill: #ececec;
      }

      .cls-59 {
        fill: #f2f2f2;
      }

      .cls-60 {
        fill: #fefefe;
      }

      .cls-61 {
        fill: #e3e3e3;
      }

      .cls-62 {
        fill: #fcfcfc;
      }

      .cls-63 {
        fill: #ededed;
      }

      .cls-64 {
        fill: #dfdfdf;
      }
    </style>
    <linearGradient id="linear-gradient" x1="1312.68" y1="106.89" x2="2092.7" y2="106.89" gradientTransform="translate(2198.85) rotate(-180) scale(1 -1)" gradientUnits="userSpaceOnUse">
      <stop offset="0" stop-color="#fff"/>
      <stop offset="1" stop-color="#ccc"/>
    </linearGradient>
    <linearGradient id="linear-gradient-2" x1="886.17" y1="261.18" x2="106.15" y2="261.18" gradientUnits="userSpaceOnUse">
      <stop offset="0" stop-color="#c7c7c7"/>
      <stop offset="1" stop-color="#b3b3b3"/>
    </linearGradient>
  </defs>
  <g class="cls-16">
    <g id="Layer_1" data-name="Layer 1">
      <g>
        <g class="cls-42">
          <polygon class="cls-6" points="8.96 383.99 257.01 383.99 257.01 384 265.98 384 265.98 383.99 514.03 383.99 514.03 384 523 384 523 383.99 771.05 383.99 771.05 384 780.01 384 780.01 383.99 780.01 377.04 780.01 370.08 780.01 293.21 780.01 279.31 780.01 279.31 780.01 68.45 0 68.45 0 279.31 0 279.31 0 293.21 0 322.33 0 336.25 0 370.08 0 377.04 0 383.99 0 384 8.96 384 8.96 383.99"/>
          <polygon class="cls-60" points="10.79 382.83 258.84 382.83 258.84 382.85 267.81 382.85 267.81 382.83 515.86 382.83 515.86 382.85 524.83 382.85 524.83 382.83 772.88 382.83 772.88 382.85 781.84 382.85 781.84 382.83 781.84 375.88 781.84 368.93 781.84 292.06 781.84 278.15 781.84 278.15 781.84 67.3 1.83 67.3 1.83 278.15 1.83 278.15 1.83 292.06 1.83 321.18 1.83 335.1 1.83 368.93 1.83 375.88 1.83 382.83 1.83 382.85 10.79 382.85 10.79 382.83"/>
          <polygon class="cls-31" points="12.62 381.68 260.67 381.68 260.67 381.69 269.64 381.69 269.64 381.68 517.69 381.68 517.69 381.69 526.66 381.69 526.66 381.68 774.71 381.68 774.71 381.69 783.67 381.69 783.67 381.68 783.67 374.73 783.67 367.77 783.67 290.9 783.67 277 783.67 277 783.67 66.14 3.66 66.14 3.66 277 3.66 277 3.66 290.9 3.66 320.02 3.66 333.94 3.66 367.77 3.66 374.73 3.66 381.68 3.66 381.69 12.62 381.69 12.62 381.68"/>
          <polygon class="cls-62" points="14.45 380.52 262.5 380.52 262.5 380.54 271.47 380.54 271.47 380.52 519.52 380.52 519.52 380.54 528.49 380.54 528.49 380.52 776.54 380.52 776.54 380.54 785.5 380.54 785.5 380.52 785.5 373.57 785.5 366.62 785.5 289.75 785.5 275.84 785.5 275.84 785.5 64.99 5.49 64.99 5.49 275.84 5.49 275.84 5.49 289.75 5.49 318.87 5.49 332.79 5.49 366.62 5.49 373.57 5.49 380.52 5.49 380.54 14.45 380.54 14.45 380.52"/>
          <polygon class="cls-33" points="16.28 379.37 264.33 379.37 264.33 379.38 273.3 379.38 273.3 379.37 521.35 379.37 521.35 379.38 530.32 379.38 530.32 379.37 778.37 379.37 778.37 379.38 787.33 379.38 787.33 379.37 787.33 372.42 787.33 365.46 787.33 288.6 787.33 274.69 787.33 274.69 787.33 63.84 7.32 63.84 7.32 274.69 7.32 274.69 7.32 288.6 7.32 317.71 7.32 331.63 7.32 365.46 7.32 372.42 7.32 379.37 7.32 379.38 16.28 379.38 16.28 379.37"/>
          <polygon class="cls-9" points="18.11 378.21 266.16 378.21 266.16 378.23 275.13 378.23 275.13 378.21 523.18 378.21 523.18 378.23 532.15 378.23 532.15 378.21 780.2 378.21 780.2 378.23 789.17 378.23 789.17 378.21 789.17 371.26 789.17 364.31 789.17 287.44 789.17 273.53 789.17 273.53 789.17 62.68 9.15 62.68 9.15 273.53 9.15 273.53 9.15 287.44 9.15 316.56 9.15 330.48 9.15 364.31 9.15 371.26 9.15 378.21 9.15 378.23 18.11 378.23 18.11 378.21"/>
          <polygon class="cls-34" points="19.94 377.06 267.99 377.06 267.99 377.07 276.96 377.07 276.96 377.06 525.01 377.06 525.01 377.07 533.98 377.07 533.98 377.06 782.03 377.06 782.03 377.07 791 377.07 791 377.06 791 370.11 791 363.15 791 286.29 791 272.38 791 272.38 791 61.53 10.98 61.53 10.98 272.38 10.98 272.38 10.98 286.29 10.98 315.4 10.98 329.32 10.98 363.15 10.98 370.11 10.98 377.06 10.98 377.07 19.94 377.07 19.94 377.06"/>
          <polygon class="cls-53" points="21.78 375.9 269.82 375.9 269.82 375.92 278.79 375.92 278.79 375.9 526.84 375.9 526.84 375.92 535.81 375.92 535.81 375.9 783.86 375.9 783.86 375.92 792.83 375.92 792.83 375.9 792.83 368.95 792.83 362 792.83 285.13 792.83 271.23 792.83 271.22 792.83 60.37 12.81 60.37 12.81 271.22 12.81 271.23 12.81 285.13 12.81 314.25 12.81 328.17 12.81 362 12.81 368.95 12.81 375.9 12.81 375.92 21.78 375.92 21.78 375.9"/>
          <polygon class="cls-45" points="23.61 374.75 271.65 374.75 271.65 374.76 280.62 374.76 280.62 374.75 528.67 374.75 528.67 374.76 537.64 374.76 537.64 374.75 785.69 374.75 785.69 374.76 794.66 374.76 794.66 374.75 794.66 367.8 794.66 360.84 794.66 283.98 794.66 270.07 794.66 270.07 794.66 59.22 14.64 59.22 14.64 270.07 14.64 270.07 14.64 283.98 14.64 313.09 14.64 327.01 14.64 360.84 14.64 367.8 14.64 374.75 14.64 374.76 23.61 374.76 23.61 374.75"/>
          <polygon class="cls-13" points="25.44 373.59 273.48 373.59 273.48 373.61 282.45 373.61 282.45 373.59 530.5 373.59 530.5 373.61 539.47 373.61 539.47 373.59 787.52 373.59 787.52 373.61 796.49 373.61 796.49 373.59 796.49 366.64 796.49 359.69 796.49 282.82 796.49 268.92 796.49 268.91 796.49 58.06 16.47 58.06 16.47 268.91 16.47 268.92 16.47 282.82 16.47 311.94 16.47 325.85 16.47 359.69 16.47 366.64 16.47 373.59 16.47 373.61 25.44 373.61 25.44 373.59"/>
          <polygon class="cls-15" points="27.27 372.44 275.31 372.44 275.31 372.45 284.29 372.45 284.29 372.44 532.33 372.44 532.33 372.45 541.3 372.45 541.3 372.44 789.35 372.44 789.35 372.45 798.32 372.45 798.32 372.44 798.32 365.48 798.32 358.53 798.32 281.67 798.32 267.76 798.32 267.76 798.32 56.91 18.3 56.91 18.3 267.76 18.3 267.76 18.3 281.67 18.3 310.78 18.3 324.7 18.3 358.53 18.3 365.48 18.3 372.44 18.3 372.45 27.27 372.45 27.27 372.44"/>
          <polygon class="cls-5" points="29.1 371.28 277.14 371.28 277.14 371.3 286.12 371.3 286.12 371.28 534.16 371.28 534.16 371.3 543.13 371.3 543.13 371.28 791.18 371.28 791.18 371.3 800.15 371.3 800.15 371.28 800.15 364.33 800.15 357.38 800.15 280.51 800.15 266.61 800.15 266.6 800.15 55.75 20.13 55.75 20.13 266.6 20.13 266.61 20.13 280.51 20.13 309.63 20.13 323.54 20.13 357.38 20.13 364.33 20.13 371.28 20.13 371.3 29.1 371.3 29.1 371.28"/>
          <polygon class="cls-49" points="30.93 370.13 278.97 370.13 278.97 370.14 287.95 370.14 287.95 370.13 535.99 370.13 535.99 370.14 544.97 370.14 544.97 370.13 793.01 370.13 793.01 370.14 801.98 370.14 801.98 370.13 801.98 363.17 801.98 356.22 801.98 279.36 801.98 265.45 801.98 265.45 801.98 54.6 21.96 54.6 21.96 265.45 21.96 265.45 21.96 279.36 21.96 308.48 21.96 322.39 21.96 356.22 21.96 363.17 21.96 370.13 21.96 370.14 30.93 370.14 30.93 370.13"/>
          <polygon class="cls-59" points="32.76 368.98 280.81 368.98 280.81 368.99 289.78 368.99 289.78 368.98 537.82 368.98 537.82 368.99 546.8 368.99 546.8 368.98 794.84 368.98 794.84 368.99 803.81 368.99 803.81 368.98 803.81 362.02 803.81 355.07 803.81 278.2 803.81 264.3 803.81 264.29 803.81 53.44 23.79 53.44 23.79 264.29 23.79 264.3 23.79 278.2 23.79 307.32 23.79 321.23 23.79 355.07 23.79 362.02 23.79 368.98 23.79 368.99 32.76 368.99 32.76 368.98"/>
          <polygon class="cls-47" points="34.59 367.82 282.64 367.82 282.64 367.83 291.61 367.83 291.61 367.82 539.65 367.82 539.65 367.83 548.63 367.83 548.63 367.82 796.67 367.82 796.67 367.83 805.64 367.83 805.64 367.82 805.64 360.86 805.64 353.91 805.64 277.05 805.64 263.14 805.64 263.14 805.64 52.29 25.62 52.29 25.62 263.14 25.62 263.14 25.62 277.05 25.62 306.17 25.62 320.08 25.62 353.91 25.62 360.86 25.62 367.82 25.62 367.83 34.59 367.83 34.59 367.82"/>
          <polygon class="cls-4" points="36.42 366.67 284.47 366.67 284.47 366.68 293.44 366.68 293.44 366.67 541.48 366.67 541.48 366.68 550.46 366.68 550.46 366.67 798.5 366.67 798.5 366.68 807.47 366.68 807.47 366.67 807.47 359.71 807.47 352.76 807.47 275.89 807.47 261.99 807.47 261.98 807.47 51.13 27.45 51.13 27.45 261.98 27.45 261.99 27.45 275.89 27.45 305.01 27.45 318.92 27.45 352.76 27.45 359.71 27.45 366.67 27.45 366.68 36.42 366.68 36.42 366.67"/>
          <polygon class="cls-46" points="38.25 365.51 286.3 365.51 286.3 365.52 295.27 365.52 295.27 365.51 543.32 365.51 543.32 365.52 552.29 365.52 552.29 365.51 800.33 365.51 800.33 365.52 809.3 365.52 809.3 365.51 809.3 358.55 809.3 351.6 809.3 274.74 809.3 260.83 809.3 260.83 809.3 49.98 29.28 49.98 29.28 260.83 29.28 260.83 29.28 274.74 29.28 303.86 29.28 317.77 29.28 351.6 29.28 358.55 29.28 365.51 29.28 365.52 38.25 365.52 38.25 365.51"/>
          <polygon class="cls-56" points="40.08 364.36 288.13 364.36 288.13 364.37 297.1 364.37 297.1 364.36 545.15 364.36 545.15 364.37 554.12 364.37 554.12 364.36 802.16 364.36 802.16 364.37 811.13 364.37 811.13 364.36 811.13 357.4 811.13 350.45 811.13 273.58 811.13 259.68 811.13 259.67 811.13 48.82 31.11 48.82 31.11 259.67 31.11 259.68 31.11 273.58 31.11 302.7 31.11 316.61 31.11 350.45 31.11 357.4 31.11 364.36 31.11 364.37 40.08 364.37 40.08 364.36"/>
          <polygon class="cls-63" points="41.91 363.2 289.96 363.2 289.96 363.21 298.93 363.21 298.93 363.2 546.98 363.2 546.98 363.21 555.95 363.21 555.95 363.2 803.99 363.2 803.99 363.21 812.96 363.21 812.96 363.2 812.96 356.24 812.96 349.29 812.96 272.43 812.96 258.52 812.96 258.52 812.96 47.67 32.94 47.67 32.94 258.52 32.94 258.52 32.94 272.43 32.94 301.55 32.94 315.46 32.94 349.29 32.94 356.24 32.94 363.2 32.94 363.21 41.91 363.21 41.91 363.2"/>
          <polygon class="cls-58" points="43.74 362.05 291.79 362.05 291.79 362.06 300.76 362.06 300.76 362.05 548.81 362.05 548.81 362.06 557.78 362.06 557.78 362.05 805.83 362.05 805.83 362.06 814.79 362.06 814.79 362.05 814.79 355.09 814.79 348.14 814.79 271.27 814.79 257.37 814.79 257.36 814.79 46.51 34.77 46.51 34.77 257.36 34.77 257.37 34.77 271.27 34.77 300.39 34.77 314.3 34.77 348.14 34.77 355.09 34.77 362.05 34.77 362.06 43.74 362.06 43.74 362.05"/>
          <polygon class="cls-38" points="45.57 360.89 293.62 360.89 293.62 360.9 302.59 360.9 302.59 360.89 550.64 360.89 550.64 360.9 559.61 360.9 559.61 360.89 807.66 360.89 807.66 360.9 816.62 360.9 816.62 360.89 816.62 353.93 816.62 346.98 816.62 270.12 816.62 256.21 816.62 256.21 816.62 45.36 36.61 45.36 36.61 256.21 36.61 256.21 36.61 270.12 36.61 299.24 36.61 313.15 36.61 346.98 36.61 353.93 36.61 360.89 36.61 360.9 45.57 360.9 45.57 360.89"/>
          <polygon class="cls-29" points="47.4 359.74 295.45 359.74 295.45 359.75 304.42 359.75 304.42 359.74 552.47 359.74 552.47 359.75 561.44 359.75 561.44 359.74 809.49 359.74 809.49 359.75 818.45 359.75 818.45 359.74 818.45 352.78 818.45 345.83 818.45 268.96 818.45 255.06 818.45 255.05 818.45 44.2 38.44 44.2 38.44 255.05 38.44 255.06 38.44 268.96 38.44 298.08 38.44 311.99 38.44 345.83 38.44 352.78 38.44 359.74 38.44 359.75 47.4 359.75 47.4 359.74"/>
          <polygon class="cls-2" points="49.23 358.58 297.28 358.58 297.28 358.59 306.25 358.59 306.25 358.58 554.3 358.58 554.3 358.59 563.27 358.59 563.27 358.58 811.32 358.58 811.32 358.59 820.28 358.59 820.28 358.58 820.28 351.62 820.28 344.67 820.28 267.81 820.28 253.9 820.28 253.9 820.28 43.05 40.27 43.05 40.27 253.9 40.27 253.9 40.27 267.81 40.27 296.93 40.27 310.84 40.27 344.67 40.27 351.62 40.27 358.58 40.27 358.59 49.23 358.59 49.23 358.58"/>
          <polygon class="cls-43" points="51.06 357.43 299.11 357.43 299.11 357.44 308.08 357.44 308.08 357.43 556.13 357.43 556.13 357.44 565.1 357.44 565.1 357.43 813.15 357.43 813.15 357.44 822.11 357.44 822.11 357.43 822.11 350.47 822.11 343.52 822.11 266.65 822.11 252.75 822.11 252.74 822.11 41.89 42.1 41.89 42.1 252.74 42.1 252.75 42.1 266.65 42.1 295.77 42.1 309.68 42.1 343.52 42.1 350.47 42.1 357.43 42.1 357.44 51.06 357.44 51.06 357.43"/>
          <polygon class="cls-26" points="52.89 356.27 300.94 356.27 300.94 356.28 309.91 356.28 309.91 356.27 557.96 356.27 557.96 356.28 566.93 356.28 566.93 356.27 814.98 356.27 814.98 356.28 823.94 356.28 823.94 356.27 823.94 349.31 823.94 342.36 823.94 265.5 823.94 251.59 823.94 251.59 823.94 40.74 43.93 40.74 43.93 251.59 43.93 251.59 43.93 265.5 43.93 294.62 43.93 308.53 43.93 342.36 43.93 349.31 43.93 356.27 43.93 356.28 52.89 356.28 52.89 356.27"/>
          <polygon class="cls-25" points="54.72 355.12 302.77 355.12 302.77 355.13 311.74 355.13 311.74 355.12 559.79 355.12 559.79 355.13 568.76 355.13 568.76 355.12 816.81 355.12 816.81 355.13 825.77 355.13 825.77 355.12 825.77 348.16 825.77 341.21 825.77 264.34 825.77 250.44 825.77 250.43 825.77 39.58 45.76 39.58 45.76 250.43 45.76 250.44 45.76 264.34 45.76 293.46 45.76 307.37 45.76 341.21 45.76 348.16 45.76 355.12 45.76 355.13 54.72 355.13 54.72 355.12"/>
          <polygon class="cls-36" points="56.55 353.96 304.6 353.96 304.6 353.97 313.57 353.97 313.57 353.96 561.62 353.96 561.62 353.97 570.59 353.97 570.59 353.96 818.64 353.96 818.64 353.97 827.6 353.97 827.6 353.96 827.6 347 827.6 340.05 827.6 263.19 827.6 249.28 827.6 249.28 827.6 38.43 47.59 38.43 47.59 249.28 47.59 249.28 47.59 263.19 47.59 292.31 47.59 306.22 47.59 340.05 47.59 347 47.59 353.96 47.59 353.97 56.55 353.97 56.55 353.96"/>
          <polygon class="cls-32" points="58.38 352.81 306.43 352.81 306.43 352.82 315.4 352.82 315.4 352.81 563.45 352.81 563.45 352.82 572.42 352.82 572.42 352.81 820.47 352.81 820.47 352.82 829.43 352.82 829.43 352.81 829.43 345.85 829.43 338.9 829.43 262.03 829.43 248.13 829.43 248.12 829.43 37.27 49.42 37.27 49.42 248.12 49.42 248.13 49.42 262.03 49.42 291.15 49.42 305.06 49.42 338.9 49.42 345.85 49.42 352.81 49.42 352.82 58.38 352.82 58.38 352.81"/>
          <polygon class="cls-61" points="60.21 351.65 308.26 351.65 308.26 351.66 317.23 351.66 317.23 351.65 565.28 351.65 565.28 351.66 574.25 351.66 574.25 351.65 822.3 351.65 822.3 351.66 831.26 351.66 831.26 351.65 831.26 344.69 831.26 337.74 831.26 260.88 831.26 246.97 831.26 246.97 831.26 36.12 51.25 36.12 51.25 246.97 51.25 246.97 51.25 260.88 51.25 290 51.25 303.91 51.25 337.74 51.25 344.69 51.25 351.65 51.25 351.66 60.21 351.66 60.21 351.65"/>
          <polygon class="cls-14" points="62.04 350.5 310.09 350.5 310.09 350.51 319.06 350.51 319.06 350.5 567.11 350.5 567.11 350.51 576.08 350.51 576.08 350.5 824.13 350.5 824.13 350.51 833.09 350.51 833.09 350.5 833.09 343.54 833.09 336.59 833.09 259.72 833.09 245.82 833.09 245.81 833.09 34.96 53.08 34.96 53.08 245.81 53.08 245.82 53.08 259.72 53.08 288.84 53.08 302.75 53.08 336.59 53.08 343.54 53.08 350.5 53.08 350.51 62.04 350.51 62.04 350.5"/>
          <polygon class="cls-14" points="63.87 349.34 311.92 349.34 311.92 349.35 320.89 349.35 320.89 349.34 568.94 349.34 568.94 349.35 577.91 349.35 577.91 349.34 825.96 349.34 825.96 349.35 834.92 349.35 834.92 349.34 834.92 342.38 834.92 335.43 834.92 258.57 834.92 244.66 834.92 244.66 834.92 33.81 54.91 33.81 54.91 244.66 54.91 244.66 54.91 258.57 54.91 287.69 54.91 301.6 54.91 335.43 54.91 342.38 54.91 349.34 54.91 349.35 63.87 349.35 63.87 349.34"/>
          <polygon class="cls-24" points="65.7 348.19 313.75 348.19 313.75 348.2 322.72 348.2 322.72 348.19 570.77 348.19 570.77 348.2 579.74 348.2 579.74 348.19 827.79 348.19 827.79 348.2 836.75 348.2 836.75 348.19 836.75 341.23 836.75 334.28 836.75 257.41 836.75 243.51 836.75 243.5 836.75 32.65 56.74 32.65 56.74 243.5 56.74 243.51 56.74 257.41 56.74 286.53 56.74 300.44 56.74 334.28 56.74 341.23 56.74 348.19 56.74 348.2 65.7 348.2 65.7 348.19"/>
          <polygon class="cls-19" points="67.53 347.03 315.58 347.03 315.58 347.04 324.55 347.04 324.55 347.03 572.6 347.03 572.6 347.04 581.57 347.04 581.57 347.03 829.62 347.03 829.62 347.04 838.58 347.04 838.58 347.03 838.58 340.07 838.58 333.12 838.58 256.26 838.58 242.35 838.58 242.35 838.58 31.5 58.57 31.5 58.57 242.35 58.57 242.35 58.57 256.26 58.57 285.38 58.57 299.29 58.57 333.12 58.57 340.07 58.57 347.03 58.57 347.04 67.53 347.04 67.53 347.03"/>
          <polygon class="cls-64" points="69.36 345.88 317.41 345.88 317.41 345.89 326.38 345.89 326.38 345.88 574.43 345.88 574.43 345.89 583.4 345.89 583.4 345.88 831.45 345.88 831.45 345.89 840.41 345.89 840.41 345.88 840.41 338.92 840.41 331.97 840.41 255.1 840.41 241.2 840.41 241.19 840.41 30.34 60.4 30.34 60.4 241.19 60.4 241.2 60.4 255.1 60.4 284.22 60.4 298.13 60.4 331.97 60.4 338.92 60.4 345.88 60.4 345.89 69.36 345.89 69.36 345.88"/>
          <polygon class="cls-21" points="71.19 344.72 319.24 344.72 319.24 344.74 328.21 344.74 328.21 344.72 576.26 344.72 576.26 344.74 585.23 344.74 585.23 344.72 833.28 344.72 833.28 344.74 842.24 344.74 842.24 344.72 842.24 337.76 842.24 330.81 842.24 253.95 842.24 240.04 842.24 240.04 842.24 29.19 62.23 29.19 62.23 240.04 62.23 240.04 62.23 253.95 62.23 283.07 62.23 296.98 62.23 330.81 62.23 337.76 62.23 344.72 62.23 344.74 71.19 344.74 71.19 344.72"/>
          <polygon class="cls-1" points="73.02 343.57 321.07 343.57 321.07 343.58 330.04 343.58 330.04 343.57 578.09 343.57 578.09 343.58 587.06 343.58 587.06 343.57 835.11 343.57 835.11 343.58 844.07 343.58 844.07 343.57 844.07 336.61 844.07 329.66 844.07 252.79 844.07 238.89 844.07 238.88 844.07 28.03 64.06 28.03 64.06 238.88 64.06 238.89 64.06 252.79 64.06 281.91 64.06 295.82 64.06 329.66 64.06 336.61 64.06 343.57 64.06 343.58 73.02 343.58 73.02 343.57"/>
          <polygon class="cls-40" points="74.85 342.41 322.9 342.41 322.9 342.43 331.87 342.43 331.87 342.41 579.92 342.41 579.92 342.43 588.89 342.43 588.89 342.41 836.94 342.41 836.94 342.43 845.9 342.43 845.9 342.41 845.9 335.45 845.9 328.5 845.9 251.64 845.9 237.73 845.9 237.73 845.9 26.88 65.89 26.88 65.89 237.73 65.89 237.73 65.89 251.64 65.89 280.76 65.89 294.67 65.89 328.5 65.89 335.45 65.89 342.41 65.89 342.43 74.85 342.43 74.85 342.41"/>
          <polygon class="cls-10" points="76.68 341.26 324.73 341.26 324.73 341.27 333.7 341.27 333.7 341.26 581.75 341.26 581.75 341.27 590.72 341.27 590.72 341.26 838.77 341.26 838.77 341.27 847.73 341.27 847.73 341.26 847.73 334.3 847.73 327.35 847.73 250.48 847.73 236.58 847.73 236.57 847.73 25.72 67.72 25.72 67.72 236.57 67.72 236.58 67.72 250.48 67.72 279.6 67.72 293.51 67.72 327.35 67.72 334.3 67.72 341.26 67.72 341.27 76.68 341.27 76.68 341.26"/>
          <polygon class="cls-28" points="78.51 340.1 326.56 340.1 326.56 340.12 335.53 340.12 335.53 340.1 583.58 340.1 583.58 340.12 592.55 340.12 592.55 340.1 840.6 340.1 840.6 340.12 849.56 340.12 849.56 340.1 849.56 333.14 849.56 326.19 849.56 249.33 849.56 235.42 849.56 235.42 849.56 24.57 69.55 24.57 69.55 235.42 69.55 235.42 69.55 249.33 69.55 278.45 69.55 292.36 69.55 326.19 69.55 333.14 69.55 340.1 69.55 340.12 78.51 340.12 78.51 340.1"/>
          <polygon class="cls-51" points="80.34 338.95 328.39 338.95 328.39 338.96 337.36 338.96 337.36 338.95 585.41 338.95 585.41 338.96 594.38 338.96 594.38 338.95 842.43 338.95 842.43 338.96 851.39 338.96 851.39 338.95 851.39 331.99 851.39 325.04 851.39 248.18 851.39 234.27 851.39 234.26 851.39 23.42 71.38 23.42 71.38 234.26 71.38 234.27 71.38 248.18 71.38 277.29 71.38 291.2 71.38 325.04 71.38 331.99 71.38 338.95 71.38 338.96 80.34 338.96 80.34 338.95"/>
          <polygon class="cls-12" points="82.17 337.79 330.22 337.79 330.22 337.81 339.19 337.81 339.19 337.79 587.24 337.79 587.24 337.81 596.21 337.81 596.21 337.79 844.26 337.79 844.26 337.81 853.22 337.81 853.22 337.79 853.22 330.83 853.22 323.88 853.22 247.02 853.22 233.12 853.22 233.11 853.22 22.26 73.21 22.26 73.21 233.11 73.21 233.12 73.21 247.02 73.21 276.14 73.21 290.05 73.21 323.88 73.21 330.83 73.21 337.79 73.21 337.81 82.17 337.81 82.17 337.79"/>
          <polygon class="cls-23" points="84 336.64 332.05 336.64 332.05 336.65 341.02 336.65 341.02 336.64 589.07 336.64 589.07 336.65 598.04 336.65 598.04 336.64 846.09 336.64 846.09 336.65 855.05 336.65 855.05 336.64 855.05 329.68 855.05 322.73 855.05 245.87 855.05 231.96 855.05 231.95 855.05 21.11 75.04 21.11 75.04 231.95 75.04 231.96 75.04 245.87 75.04 274.98 75.04 288.89 75.04 322.73 75.04 329.68 75.04 336.64 75.04 336.65 84 336.65 84 336.64"/>
          <polygon class="cls-17" points="85.83 335.48 333.88 335.48 333.88 335.5 342.85 335.5 342.85 335.48 590.9 335.48 590.9 335.5 599.87 335.5 599.87 335.48 847.92 335.48 847.92 335.5 856.88 335.5 856.88 335.48 856.88 328.52 856.88 321.57 856.88 244.71 856.88 230.81 856.88 230.8 856.88 19.95 76.87 19.95 76.87 230.8 76.87 230.81 76.87 244.71 76.87 273.83 76.87 287.74 76.87 321.57 76.87 328.52 76.87 335.48 76.87 335.5 85.83 335.5 85.83 335.48"/>
          <polygon class="cls-39" points="87.66 334.33 335.71 334.33 335.71 334.34 344.68 334.34 344.68 334.33 592.73 334.33 592.73 334.34 601.7 334.34 601.7 334.33 849.75 334.33 849.75 334.34 858.71 334.34 858.71 334.33 858.71 327.37 858.71 320.42 858.71 243.56 858.71 229.65 858.71 229.64 858.71 18.8 78.7 18.8 78.7 229.64 78.7 229.65 78.7 243.56 78.7 272.67 78.7 286.58 78.7 320.42 78.7 327.37 78.7 334.33 78.7 334.34 87.66 334.34 87.66 334.33"/>
          <polygon class="cls-27" points="89.49 333.17 337.54 333.17 337.54 333.19 346.51 333.19 346.51 333.17 594.56 333.17 594.56 333.19 603.53 333.19 603.53 333.17 851.58 333.17 851.58 333.19 860.54 333.19 860.54 333.17 860.54 326.21 860.54 319.26 860.54 242.4 860.54 228.5 860.54 228.49 860.54 17.64 80.53 17.64 80.53 228.49 80.53 228.5 80.53 242.4 80.53 271.52 80.53 285.43 80.53 319.26 80.53 326.21 80.53 333.17 80.53 333.19 89.49 333.19 89.49 333.17"/>
          <polygon class="cls-37" points="91.32 332.02 339.37 332.02 339.37 332.03 348.34 332.03 348.34 332.02 596.39 332.02 596.39 332.03 605.36 332.03 605.36 332.02 853.41 332.02 853.41 332.03 862.38 332.03 862.38 332.02 862.38 325.06 862.38 318.11 862.38 241.25 862.38 227.34 862.38 227.33 862.38 16.49 82.36 16.49 82.36 227.33 82.36 227.34 82.36 241.25 82.36 270.36 82.36 284.27 82.36 318.11 82.36 325.06 82.36 332.02 82.36 332.03 91.32 332.03 91.32 332.02"/>
          <polygon class="cls-54" points="93.15 330.87 341.2 330.87 341.2 330.88 350.17 330.88 350.17 330.87 598.22 330.87 598.22 330.88 607.19 330.88 607.19 330.87 855.24 330.87 855.24 330.88 864.21 330.88 864.21 330.87 864.21 323.9 864.21 316.95 864.21 240.09 864.21 226.19 864.21 226.18 864.21 15.33 84.19 15.33 84.19 226.18 84.19 226.19 84.19 240.09 84.19 269.21 84.19 283.12 84.19 316.95 84.19 323.9 84.19 330.87 84.19 330.88 93.15 330.88 93.15 330.87"/>
          <polygon class="cls-8" points="94.99 329.71 343.03 329.71 343.03 329.72 352 329.72 352 329.71 600.05 329.71 600.05 329.72 609.02 329.72 609.02 329.71 857.07 329.71 857.07 329.72 866.04 329.72 866.04 329.71 866.04 322.75 866.04 315.8 866.04 238.94 866.04 225.03 866.04 225.02 866.04 14.18 86.02 14.18 86.02 225.02 86.02 225.03 86.02 238.94 86.02 268.06 86.02 281.96 86.02 315.8 86.02 322.75 86.02 329.71 86.02 329.72 94.99 329.72 94.99 329.71"/>
          <polygon class="cls-57" points="96.82 328.56 344.86 328.56 344.86 328.57 353.83 328.57 353.83 328.56 601.88 328.56 601.88 328.57 610.85 328.57 610.85 328.56 858.9 328.56 858.9 328.57 867.87 328.57 867.87 328.56 867.87 321.59 867.87 314.64 867.87 237.78 867.87 223.88 867.87 223.87 867.87 13.02 87.85 13.02 87.85 223.87 87.85 223.88 87.85 237.78 87.85 266.9 87.85 280.81 87.85 314.64 87.85 321.59 87.85 328.56 87.85 328.57 96.82 328.57 96.82 328.56"/>
          <polygon class="cls-22" points="98.65 327.4 346.69 327.4 346.69 327.41 355.66 327.41 355.66 327.4 603.71 327.4 603.71 327.41 612.68 327.41 612.68 327.4 860.73 327.4 860.73 327.41 869.7 327.41 869.7 327.4 869.7 320.44 869.7 313.49 869.7 236.63 869.7 222.72 869.7 222.71 869.7 11.87 89.68 11.87 89.68 222.71 89.68 222.72 89.68 236.63 89.68 265.75 89.68 279.65 89.68 313.49 89.68 320.44 89.68 327.4 89.68 327.41 98.65 327.41 98.65 327.4"/>
          <polygon class="cls-48" points="100.48 326.25 348.52 326.25 348.52 326.26 357.5 326.26 357.5 326.25 605.54 326.25 605.54 326.26 614.51 326.26 614.51 326.25 862.56 326.25 862.56 326.26 871.53 326.26 871.53 326.25 871.53 319.28 871.53 312.33 871.53 235.47 871.53 221.57 871.53 221.56 871.53 10.71 91.51 10.71 91.51 221.56 91.51 221.57 91.51 235.47 91.51 264.59 91.51 278.5 91.51 312.33 91.51 319.28 91.51 326.25 91.51 326.26 100.48 326.26 100.48 326.25"/>
          <polygon class="cls-52" points="102.31 325.09 350.35 325.09 350.35 325.1 359.33 325.1 359.33 325.09 607.37 325.09 607.37 325.1 616.34 325.1 616.34 325.09 864.39 325.09 864.39 325.1 873.36 325.1 873.36 325.09 873.36 318.13 873.36 311.18 873.36 234.32 873.36 220.41 873.36 220.4 873.36 9.56 93.34 9.56 93.34 220.4 93.34 220.41 93.34 234.32 93.34 263.44 93.34 277.34 93.34 311.18 93.34 318.13 93.34 325.09 93.34 325.1 102.31 325.1 102.31 325.09"/>
          <polygon class="cls-44" points="104.14 323.94 352.18 323.94 352.18 323.95 361.16 323.95 361.16 323.94 609.2 323.94 609.2 323.95 618.18 323.95 618.18 323.94 866.22 323.94 866.22 323.95 875.19 323.95 875.19 323.94 875.19 316.97 875.19 310.02 875.19 233.16 875.19 219.26 875.19 219.25 875.19 8.4 95.17 8.4 95.17 219.25 95.17 219.26 95.17 233.16 95.17 262.28 95.17 276.19 95.17 310.02 95.17 316.97 95.17 323.94 95.17 323.95 104.14 323.95 104.14 323.94"/>
          <polygon class="cls-7" points="105.97 322.78 354.02 322.78 354.02 322.79 362.99 322.79 362.99 322.78 611.03 322.78 611.03 322.79 620.01 322.79 620.01 322.78 868.05 322.78 868.05 322.79 877.02 322.79 877.02 322.78 877.02 315.82 877.02 308.86 877.02 232.01 877.02 218.1 877.02 218.09 877.02 7.25 97 7.25 97 218.09 97 218.1 97 232.01 97 261.13 97 275.03 97 308.86 97 315.82 97 322.78 97 322.79 105.97 322.79 105.97 322.78"/>
          <polygon class="cls-11" points="107.8 321.63 355.85 321.63 355.85 321.64 364.82 321.64 364.82 321.63 612.86 321.63 612.86 321.64 621.84 321.64 621.84 321.63 869.88 321.63 869.88 321.64 878.85 321.64 878.85 321.63 878.85 314.66 878.85 307.71 878.85 230.85 878.85 216.95 878.85 216.94 878.85 6.09 98.83 6.09 98.83 216.94 98.83 216.95 98.83 230.85 98.83 259.97 98.83 273.88 98.83 307.71 98.83 314.66 98.83 321.63 98.83 321.64 107.8 321.64 107.8 321.63"/>
          <polygon class="cls-18" points="109.63 320.47 357.68 320.47 357.68 320.48 366.65 320.48 366.65 320.47 614.69 320.47 614.69 320.48 623.67 320.48 623.67 320.47 871.71 320.47 871.71 320.48 880.68 320.48 880.68 320.47 880.68 313.51 880.68 306.55 880.68 229.7 880.68 215.79 880.68 215.78 880.68 4.94 100.66 4.94 100.66 215.78 100.66 215.79 100.66 229.7 100.66 258.82 100.66 272.72 100.66 306.55 100.66 313.51 100.66 320.47 100.66 320.48 109.63 320.48 109.63 320.47"/>
          <polygon class="cls-30" points="111.46 319.32 359.51 319.32 359.51 319.33 368.48 319.33 368.48 319.32 616.53 319.32 616.53 319.33 625.5 319.33 625.5 319.32 873.54 319.32 873.54 319.33 882.51 319.33 882.51 319.32 882.51 312.35 882.51 305.4 882.51 228.54 882.51 214.64 882.51 214.63 882.51 3.78 102.49 3.78 102.49 214.63 102.49 214.64 102.49 228.54 102.49 257.66 102.49 271.57 102.49 305.4 102.49 312.35 102.49 319.32 102.49 319.33 111.46 319.33 111.46 319.32"/>
          <polygon class="cls-20" points="113.29 318.16 361.34 318.16 361.34 318.17 370.31 318.17 370.31 318.16 618.36 318.16 618.36 318.17 627.33 318.17 627.33 318.16 875.37 318.16 875.37 318.17 884.34 318.17 884.34 318.16 884.34 311.2 884.34 304.24 884.34 227.39 884.34 213.48 884.34 213.47 884.34 2.63 104.32 2.63 104.32 213.47 104.32 213.48 104.32 227.39 104.32 256.51 104.32 270.41 104.32 304.24 104.32 311.2 104.32 318.16 104.32 318.17 113.29 318.17 113.29 318.16"/>
          <polygon class="cls-55" points="115.12 317.01 363.17 317.01 363.17 317.02 372.14 317.02 372.14 317.01 620.19 317.01 620.19 317.02 629.16 317.02 629.16 317.01 877.21 317.01 877.21 317.02 886.17 317.02 886.17 317.01 886.17 310.04 886.17 303.09 886.17 226.23 886.17 212.33 886.17 212.32 886.17 1.47 106.15 1.47 106.15 212.32 106.15 212.33 106.15 226.23 106.15 255.35 106.15 269.26 106.15 303.09 106.15 310.04 106.15 317.01 106.15 317.02 115.12 317.02 115.12 317.01"/>
        </g>
        <g>
          <rect class="cls-50" x="106.15" y="1.47" width="780.01" height="210.84"/>
          <rect class="cls-3" x="106.15" y="212.32" width="780.01" height="97.73"/>
          <rect class="cls-35" x="106.15" y="212.32" width="780.01" height="13.92"/>
          <rect class="cls-35" x="106.15" y="255.35" width="261.5" height="13.91"/>
          <rect class="cls-35" x="106.15" y="303.09" width="780.01" height="13.92"/>
          <rect class="cls-35" x="877.21" y="212.33" width="8.96" height="104.69"/>
          <rect class="cls-35" x="106.15" y="212.33" width="8.96" height="104.69"/>
          <rect class="cls-35" x="363.17" y="212.33" width="8.97" height="104.69"/>
          <rect class="cls-35" x="620.19" y="212.33" width="8.97" height="104.69"/>
          <g>
            <path class="cls-35" d="m640.88,273.97c0,6.46,7.29,11.69,16.29,11.69s16.28-5.23,16.28-11.69-7.29-11.67-16.28-11.67-16.29,5.23-16.29,11.67Z"/>
            <path class="cls-35" d="m575.89,273.97c0,6.46,7.29,11.69,16.28,11.69s16.29-5.23,16.29-11.69-7.28-11.67-16.29-11.67-16.28,5.23-16.28,11.67Z"/>
          </g>
          <path class="cls-35" d="m220.62,285.65c0,6.45,7.28,11.68,16.28,11.68s16.29-5.23,16.29-11.68-7.28-11.68-16.29-11.68-16.28,5.23-16.28,11.68Z"/>
        </g>
        <polygon class="cls-41" points="887.12 0 105.21 0 105.21 213.79 106.15 213.79 106.15 226.23 106.15 255.35 106.15 269.26 106.15 303.09 106.15 310.04 106.15 317.01 106.15 317.02 115.12 317.02 115.12 317.01 363.17 317.01 363.17 317.02 372.14 317.02 372.14 317.01 620.19 317.01 620.19 317.02 629.16 317.02 629.16 317.01 877.21 317.01 877.21 317.02 886.17 317.02 886.17 317.01 886.17 310.04 886.17 303.09 886.17 226.23 886.17 213.79 887.12 213.79 887.12 0"/>
      </g>
    </g>
  </g>
</svg>