<?xml version="1.0" encoding="UTF-8"?>
<svg xmlns="http://www.w3.org/2000/svg" xmlns:xlink="http://www.w3.org/1999/xlink" viewBox="0 0 837.19 314.3">
  <defs>
    <style>
      .cls-1 {
        fill: #ddd;
      }

      .cls-2 {
        fill: #e9e9e9;
      }

      .cls-3 {
        fill: url(#linear-gradient-2);
      }

      .cls-4 {
        fill: #f0f0f0;
      }

      .cls-5 {
        fill: #f4f4f4;
      }

      .cls-6 {
        fill: #fff;
      }

      .cls-7 {
        fill: url(#linear-gradient-5);
      }

      .cls-7, .cls-8, .cls-9, .cls-10, .cls-11 {
        stroke: #9d9d9c;
        stroke-miterlimit: 10;
        stroke-width: .03px;
      }

      .cls-12 {
        fill: #cbcbcb;
      }

      .cls-8 {
        fill: url(#linear-gradient-4);
      }

      .cls-13 {
        fill: #d1d1d1;
      }

      .cls-14 {
        fill: #fafafa;
      }

      .cls-15 {
        fill: #dbdbdb;
      }

      .cls-16 {
        fill: #cacaca;
      }

      .cls-17 {
        fill: #d8d8d8;
      }

      .cls-18 {
        fill: #f6f6f6;
      }

      .cls-9 {
        fill: url(#linear-gradient-3);
      }

      .cls-19 {
        fill: #e2e2e2;
      }

      .cls-20 {
        fill: #f5f5f5;
      }

      .cls-21 {
        isolation: isolate;
      }

      .cls-22 {
        fill: #d6d6d6;
      }

      .cls-23 {
        fill: #c9c9c9;
      }

      .cls-24 {
        fill: #e0e0e0;
      }

      .cls-25 {
        fill: #c7c7c7;
      }

      .cls-26 {
        fill: #dedede;
      }

      .cls-27 {
        fill: #cfcfcf;
      }

      .cls-28 {
        fill: #d7d7d7;
      }

      .cls-29 {
        fill: #e1e1e1;
      }

      .cls-30 {
        fill: #e6e6e6;
      }

      .cls-31 {
        fill: #e7e7e7;
      }

      .cls-32 {
        fill: #d4d4d4;
      }

      .cls-33 {
        fill: #dadada;
      }

      .cls-34 {
        fill: #eaeaea;
      }

      .cls-35 {
        fill: #c8c8c8;
      }

      .cls-36 {
        fill: #fdfdfd;
      }

      .cls-37 {
        fill: #e4e4e4;
      }

      .cls-38 {
        fill: #fbfbfb;
      }

      .cls-39 {
        fill: #f9f9f9;
      }

      .cls-40 {
        fill: #8f8f8e;
      }

      .cls-41 {
        fill: #e5e5e5;
      }

      .cls-42 {
        fill: #d3d3d3;
      }

      .cls-43 {
        fill: #ebebeb;
      }

      .cls-44 {
        fill: #d5d5d5;
      }

      .cls-45 {
        fill: #dcdcdc;
      }

      .cls-46 {
        fill: #706f6f;
      }

      .cls-46, .cls-47 {
        mix-blend-mode: multiply;
      }

      .cls-48 {
        fill: #e8e8e8;
      }

      .cls-49 {
        fill: #ccc;
      }

      .cls-50 {
        fill: #f7f7f7;
      }

      .cls-51 {
        fill: #efefef;
      }

      .cls-52 {
        fill: #f1f1f1;
      }

      .cls-53 {
        fill: #cecece;
      }

      .cls-54 {
        fill: #f3f3f3;
      }

      .cls-10 {
        fill: url(#linear-gradient);
      }

      .cls-55 {
        fill: #d9d9d9;
      }

      .cls-11 {
        fill: url(#linear-gradient-6);
      }

      .cls-56 {
        fill: #cdcdcd;
      }

      .cls-57 {
        fill: #f8f8f8;
      }

      .cls-58 {
        fill: #d2d2d2;
      }

      .cls-59 {
        fill: #c6c6c6;
      }

      .cls-60 {
        fill: #eee;
      }

      .cls-61 {
        fill: #d0d0d0;
      }

      .cls-62 {
        fill: #ececec;
      }

      .cls-63 {
        fill: #f2f2f2;
      }

      .cls-64 {
        fill: #fefefe;
      }

      .cls-65 {
        fill: #e3e3e3;
      }

      .cls-66 {
        fill: #fcfcfc;
      }

      .cls-67 {
        fill: #ededed;
      }

      .cls-68 {
        fill: #dfdfdf;
      }
    </style>
    <linearGradient id="linear-gradient" x1="1673.2" y1="95.09" x2="2078.12" y2="95.09" gradientTransform="translate(2327) rotate(-180) scale(1 -1)" gradientUnits="userSpaceOnUse">
      <stop offset="0" stop-color="#fff"/>
      <stop offset="1" stop-color="#ccc"/>
    </linearGradient>
    <linearGradient id="linear-gradient-2" x1="650.33" y1="232.28" x2="248.88" y2="232.28" gradientUnits="userSpaceOnUse">
      <stop offset="0" stop-color="#c7c7c7"/>
      <stop offset="1" stop-color="#b3b3b3"/>
    </linearGradient>
    <linearGradient id="linear-gradient-3" x1="1490.56" y1="176.5" x2="1673.2" y2="176.5" xlink:href="#linear-gradient"/>
    <linearGradient id="linear-gradient-4" x1="1547.6" y1="136.15" x2="1673.2" y2="136.15" xlink:href="#linear-gradient"/>
    <linearGradient id="linear-gradient-5" x1="2260.75" y1="176.5" x2="2078.12" y2="176.5" gradientTransform="translate(2327) rotate(-180) scale(1 -1)" gradientUnits="userSpaceOnUse">
      <stop offset="0" stop-color="#ebebeb"/>
      <stop offset=".31" stop-color="#d8d8d8"/>
      <stop offset=".7" stop-color="#c7c7c7"/>
      <stop offset="1" stop-color="#c2c2c2"/>
    </linearGradient>
    <linearGradient id="linear-gradient-6" x1="2203.72" y1="136.15" x2="2078.12" y2="136.15" gradientTransform="translate(2327) rotate(-180) scale(1 -1)" gradientUnits="userSpaceOnUse">
      <stop offset="0" stop-color="#e8e8e8"/>
      <stop offset="1" stop-color="#bfbfbf"/>
    </linearGradient>
  </defs>
  <g class="cls-21">
    <g id="Layer_1" data-name="Layer 1">
      <g>
        <g class="cls-47">
          <path class="cls-6" d="m713.16,114.7v-40.35h-125.6v146.87h-.01V33.74H182.63v40.62H57.03v40.35H0v60.72c0,76.7,34.9,138.87,77.94,138.87h104.69s6.95.01,6.95.01h0s192.05-.01,192.05-.01h0s6.95.01,6.95.01h0s192.04-.01,192.04-.01h0s6.95.01,6.95.01h0s104.68-.01,104.68-.01c43.05,0,77.95-62.17,77.95-138.87v-60.72h-57.03Z"/>
          <path class="cls-64" d="m714.3,114.15v-40.35h-125.6v146.87h-.01V33.18H183.77v40.62H58.18v40.35H1.14v60.72c0,76.7,34.9,138.87,77.94,138.87h104.69s6.95.01,6.95.01h0s192.05-.01,192.05-.01h0s6.95.01,6.95.01h0s192.04-.01,192.04-.01h0s6.95.01,6.95.01h0s104.68-.01,104.68-.01c43.05,0,77.95-62.17,77.95-138.87v-60.72h-57.03Z"/>
          <path class="cls-36" d="m715.44,113.59v-40.35h-125.6v146.87h-.01V32.62H184.92v40.62H59.32v40.35H2.28v60.72c0,76.7,34.9,138.87,77.94,138.87h104.69s6.95.01,6.95.01h0s192.05-.01,192.05-.01h0s6.95.01,6.95.01h0s192.04-.01,192.04-.01h0s6.95.01,6.95.01h0s104.68-.01,104.68-.01c43.05,0,77.95-62.18,77.95-138.87v-60.72h-57.03Z"/>
          <path class="cls-66" d="m716.58,113.03v-40.35h-125.6v146.87h-.01V32.06H186.06v40.62H60.46v40.35H3.43v60.72c0,76.7,34.9,138.87,77.94,138.87h104.69s6.95.01,6.95.01h0s192.05-.01,192.05-.01h0s6.95.01,6.95.01h0s192.04-.01,192.04-.01h0s6.95.01,6.95.01h0s104.68-.01,104.68-.01c43.05,0,77.95-62.18,77.95-138.87v-60.72h-57.03Z"/>
          <path class="cls-38" d="m717.72,112.47v-40.35h-125.6v146.87h-.01V31.5H187.2v40.62H61.6v40.35H4.57v60.72c0,76.7,34.9,138.87,77.94,138.87h104.69s6.95.01,6.95.01h0s192.05-.01,192.05-.01h0s6.94.01,6.94.01h0s192.04-.01,192.04-.01h0s6.95.01,6.95.01h0s104.68-.01,104.68-.01c43.05,0,77.95-62.18,77.95-138.87v-60.72h-57.03Z"/>
          <path class="cls-14" d="m718.87,111.91v-40.35h-125.6v146.87h-.01V30.94H188.34v40.62H62.75v40.35H5.71v60.72c0,76.7,34.9,138.87,77.94,138.87h104.69s6.95.01,6.95.01h0s192.05-.01,192.05-.01h0s6.94.01,6.94.01h0s192.04-.01,192.04-.01h0s6.95.01,6.95.01h0s104.68-.01,104.68-.01c43.05,0,77.95-62.18,77.95-138.87v-60.72h-57.03Z"/>
          <path class="cls-39" d="m720.01,111.35v-40.35h-125.6v146.87h-.01V30.39H189.48v40.62H63.89v40.35H6.85v60.72c0,76.7,34.9,138.87,77.94,138.87h104.69s6.95.01,6.95.01h0s192.05-.01,192.05-.01h0s6.94.01,6.94.01h0s192.04-.01,192.04-.01h0s6.95.01,6.95.01h0s104.68-.01,104.68-.01c43.05,0,77.95-62.18,77.95-138.87v-60.72h-57.03Z"/>
          <path class="cls-57" d="m721.15,110.8v-40.35h-125.6v146.87h-.01V29.83H190.63v40.62h-125.6v40.35H8v60.72c0,76.7,34.9,138.87,77.94,138.87h104.69s6.95.01,6.95.01h0s192.05-.01,192.05-.01h0s6.94.01,6.94.01h0s192.04-.01,192.04-.01h0s6.95.01,6.95.01h0s104.68-.01,104.68-.01c43.05,0,77.95-62.18,77.95-138.87v-60.72h-57.03Z"/>
          <path class="cls-50" d="m722.29,110.24v-40.35h-125.6v146.87h-.01V29.27H191.77v40.62h-125.6v40.35H9.14v60.72c0,76.7,34.9,138.87,77.94,138.87h104.69s6.95.01,6.95.01h0s192.05-.01,192.05-.01h0s6.94.01,6.94.01h0s192.04-.01,192.04-.01h0s6.95.01,6.95.01h0s104.68-.01,104.68-.01c43.05,0,77.95-62.18,77.95-138.87v-60.72h-57.03Z"/>
          <path class="cls-18" d="m723.44,109.68v-40.35h-125.6v146.87h-.01V28.71H192.91v40.62h-125.6v40.35H10.28v60.72c0,76.7,34.9,138.87,77.94,138.87h104.69s6.95.01,6.95.01h0s192.05-.01,192.05-.01h0s6.94.01,6.94.01h0s192.04-.01,192.04-.01h0s6.95.01,6.95.01h0s104.68-.01,104.68-.01c43.05,0,77.95-62.18,77.95-138.87v-60.72h-57.03Z"/>
          <path class="cls-20" d="m724.58,109.12v-40.35h-125.6v146.87h-.01V28.15H194.05v40.62h-125.6v40.35H11.42v60.72c0,76.7,34.9,138.87,77.94,138.87h104.69s6.95.01,6.95.01h0s192.05-.01,192.05-.01h0s6.94.01,6.94.01h0s192.04-.01,192.04-.01h0s6.95.01,6.95.01h0s104.68-.01,104.68-.01c43.05,0,77.95-62.18,77.95-138.87v-60.72h-57.03Z"/>
          <path class="cls-5" d="m725.72,108.56v-40.35h-125.6v146.87h-.01V27.59H195.2v40.62h-125.6v40.35H12.56v60.72c0,76.7,34.9,138.87,77.94,138.87h104.69s6.95.01,6.95.01h0s192.05-.01,192.05-.01h0s6.94.01,6.94.01h0s192.04-.01,192.04-.01h0s6.95.01,6.95.01h0s104.68-.01,104.68-.01c43.05,0,77.95-62.18,77.95-138.87v-60.72h-57.03Z"/>
          <path class="cls-54" d="m726.86,108v-40.35h-125.6v146.87h-.01V27.04H196.34v40.62h-125.6v40.35H13.71v60.72c0,76.7,34.9,138.87,77.94,138.87h104.69s6.95.01,6.95.01h0s192.05-.01,192.05-.01h0s6.94.01,6.94.01h0s192.04-.01,192.04-.01h0s6.95.01,6.95.01h0s104.68-.01,104.68-.01c43.05,0,77.95-62.18,77.95-138.87v-60.72h-57.03Z"/>
          <path class="cls-63" d="m728.01,107.45v-40.35h-125.6v146.87h-.01V26.48H197.48v40.62h-125.6v40.35H14.85v60.72c0,76.7,34.9,138.87,77.94,138.87h104.69s6.95.01,6.95.01h0s192.05-.01,192.05-.01h0s6.94.01,6.94.01h0s192.04-.01,192.04-.01h0s6.95.01,6.95.01h0s104.68-.01,104.68-.01c43.05,0,77.95-62.18,77.95-138.87v-60.72h-57.03Z"/>
          <path class="cls-52" d="m729.15,106.89v-40.35h-125.6v146.87h-.01V25.92H198.62v40.62h-125.6v40.35H15.99v60.72c0,76.7,34.9,138.87,77.94,138.87h104.69s6.95.01,6.95.01h0s192.05-.01,192.05-.01h0s6.94.01,6.94.01h0s192.04-.01,192.04-.01h0s6.95.01,6.95.01h0s104.68-.01,104.68-.01c43.05,0,77.95-62.18,77.95-138.87v-60.72h-57.03Z"/>
          <path class="cls-4" d="m730.29,106.33v-40.35h-125.6v146.87h-.01V25.36H199.76v40.62h-125.6v40.35H17.13v60.72c0,76.7,34.9,138.87,77.94,138.87h104.69s6.95.01,6.95.01h0s192.05-.01,192.05-.01h0s6.94.01,6.94.01h0s192.04-.01,192.04-.01h0s6.95.01,6.95.01h0s104.68-.01,104.68-.01c43.05,0,77.95-62.18,77.95-138.87v-60.72h-57.03Z"/>
          <path class="cls-51" d="m731.43,105.77v-40.35h-125.6v146.87h-.01V24.8H200.91v40.62h-125.6v40.35H18.27v60.72c0,76.7,34.9,138.87,77.94,138.87h104.69s6.95.01,6.95.01h0s192.05-.01,192.05-.01h0s6.94.01,6.94.01h0s192.04-.01,192.04-.01h0s6.95.01,6.95.01h0s104.68-.01,104.68-.01c43.05,0,77.95-62.18,77.95-138.87v-60.72h-57.03Z"/>
          <path class="cls-60" d="m732.57,105.21v-40.35h-125.6v146.87h-.01V24.24H202.05v40.62h-125.6v40.35H19.42v60.72c0,76.7,34.9,138.87,77.94,138.87h104.69s6.95.01,6.95.01h0s192.05-.01,192.05-.01h0s6.94.01,6.94.01h0s192.04-.01,192.04-.01h0s6.95.01,6.95.01h0s104.68-.01,104.68-.01c43.05,0,77.95-62.18,77.95-138.87v-60.72h-57.03Z"/>
          <path class="cls-67" d="m733.72,104.65v-40.35h-125.6v146.87h-.01V23.68H203.19v40.62h-125.6v40.35H20.56v60.72c0,76.7,34.9,138.87,77.94,138.87h104.69s6.95.01,6.95.01h0s192.05-.01,192.05-.01h0s6.94.01,6.94.01h0s192.04-.01,192.04-.01h0s6.95.01,6.95.01h0s104.68-.01,104.68-.01c43.05,0,77.95-62.18,77.95-138.87v-60.72h-57.03Z"/>
          <path class="cls-62" d="m734.86,104.09v-40.35h-125.6v146.87h-.01V23.13H204.33v40.62h-125.6v40.35H21.7v60.72c0,76.7,34.9,138.87,77.94,138.87h104.69s6.95.01,6.95.01h0s192.05-.01,192.05-.01h0s6.94.01,6.94.01h0s192.04-.01,192.04-.01h0s6.95.01,6.95.01h0s104.68-.01,104.68-.01c43.05,0,77.95-62.18,77.95-138.87v-60.72h-57.03Z"/>
          <path class="cls-43" d="m736,103.54v-40.35h-125.6v146.87h-.01V22.57H205.47v40.62h-125.6v40.35H22.84v60.72c0,76.7,34.9,138.87,77.94,138.87h104.69s6.95.01,6.95.01h0s192.05-.01,192.05-.01h0s6.94.01,6.94.01h0s192.04-.01,192.04-.01h0s6.95.01,6.95.01h0s104.68-.01,104.68-.01c43.05,0,77.95-62.18,77.95-138.87v-60.72h-57.03Z"/>
          <path class="cls-34" d="m737.14,102.98v-40.35h-125.6v146.87h0V22.01H206.62v40.62h-125.6v40.35H23.99v60.72c0,76.7,34.9,138.87,77.94,138.87h104.69s6.95.01,6.95.01h0s192.05-.01,192.05-.01h0s6.94.01,6.94.01h0s192.04-.01,192.04-.01h0s6.95.01,6.95.01h0s104.68-.01,104.68-.01c43.05,0,77.95-62.18,77.95-138.87v-60.72h-57.03Z"/>
          <path class="cls-2" d="m738.29,102.42v-40.35h-125.6v146.87h0V21.45H207.76v40.62h-125.6v40.35H25.13v60.72c0,76.7,34.9,138.88,77.94,138.88h104.69s6.95.01,6.95.01h0s192.05-.01,192.05-.01h0s6.94.01,6.94.01h0s192.04-.01,192.04-.01h0s6.95.01,6.95.01h0s104.68-.01,104.68-.01c43.05,0,77.95-62.18,77.95-138.88v-60.72h-57.03Z"/>
          <path class="cls-48" d="m739.43,101.86v-40.35h-125.6v146.87h0V20.89H208.9v40.62h-125.6v40.35H26.27v60.72c0,76.7,34.9,138.88,77.94,138.88h104.69s6.95.01,6.95.01h0s192.05-.01,192.05-.01h0s6.94.01,6.94.01h0s192.04-.01,192.04-.01h0s6.95.01,6.95.01h0s104.68-.01,104.68-.01c43.05,0,77.95-62.18,77.95-138.88v-60.72h-57.03Z"/>
          <path class="cls-31" d="m740.57,101.3v-40.35h-125.6v146.87h0V20.33H210.04v40.62h-125.6v40.35H27.41v60.72c0,76.7,34.9,138.88,77.94,138.88h104.69s6.95.01,6.95.01h0s192.05-.01,192.05-.01h0s6.94.01,6.94.01h0s192.04-.01,192.04-.01h0s6.95.01,6.95.01h0s104.68-.01,104.68-.01c43.05,0,77.95-62.18,77.95-138.88v-60.72h-57.03Z"/>
          <path class="cls-30" d="m741.71,100.74v-40.35h-125.6v146.87h0V19.78H211.19v40.62h-125.6v40.35H28.55v60.72c0,76.7,34.9,138.88,77.94,138.88h104.69s6.95.01,6.95.01h0s192.05-.01,192.05-.01h0s6.94.01,6.94.01h0s192.04-.01,192.04-.01h0s6.95.01,6.95.01h0s104.68-.01,104.68-.01c43.05,0,77.95-62.18,77.95-138.88v-60.72h-57.03Z"/>
          <path class="cls-41" d="m742.85,100.19v-40.35h-125.6v146.87h0V19.22H212.33v40.62h-125.6v40.35H29.7v60.72c0,76.7,34.9,138.88,77.94,138.88h104.69s6.95.01,6.95.01h0s192.05-.01,192.05-.01h0s6.94.01,6.94.01h0s192.04-.01,192.04-.01h0s6.95.01,6.95.01h0s104.68-.01,104.68-.01c43.05,0,77.95-62.18,77.95-138.88v-60.72h-57.03Z"/>
          <path class="cls-37" d="m744,99.63v-40.35h-125.6v146.87h0V18.66H213.47v40.62h-125.6v40.35H30.84v60.72c0,76.7,34.9,138.88,77.94,138.88h104.69s6.95.01,6.95.01h0s192.05-.01,192.05-.01h0s6.94.01,6.94.01h0s192.04-.01,192.04-.01h0s6.95.01,6.95.01h0s104.68-.01,104.68-.01c43.05,0,77.95-62.18,77.95-138.88v-60.72h-57.03Z"/>
          <path class="cls-65" d="m745.14,99.07v-40.35h-125.6v146.87h0V18.1H214.61v40.62h-125.6v40.35H31.98v60.72c0,76.7,34.9,138.88,77.94,138.88h104.69s6.95.01,6.95.01h0s192.05-.01,192.05-.01h0s6.94.01,6.94.01h0s192.04-.01,192.04-.01h0s6.95.01,6.95.01h0s104.68-.01,104.68-.01c43.05,0,77.95-62.18,77.95-138.88v-60.72h-57.03Z"/>
          <path class="cls-19" d="m746.28,98.51v-40.35h-125.6v146.87h0V17.54H215.75v40.62h-125.6v40.35h-57.03v60.72c0,76.7,34.9,138.88,77.94,138.88h104.69s6.95.01,6.95.01h0s192.05-.01,192.05-.01h0s6.94.01,6.94.01h0s192.04-.01,192.04-.01h0s6.95.01,6.95.01h0s104.68-.01,104.68-.01c43.05,0,77.95-62.18,77.95-138.88v-60.72h-57.03Z"/>
          <path class="cls-19" d="m747.42,97.95v-40.35h-125.6v146.87h0V16.98H216.9v40.62h-125.6v40.35h-57.03v60.72c0,76.7,34.9,138.88,77.94,138.88h104.69s6.95.01,6.95.01h0s192.05-.01,192.05-.01h0s6.94.01,6.94.01h0s192.04-.01,192.04-.01h0s6.95.01,6.95.01h0s104.68-.01,104.68-.01c43.05,0,77.95-62.18,77.95-138.88v-60.72h-57.03Z"/>
          <path class="cls-29" d="m748.57,97.39v-40.35h-125.6v146.87h0V16.43H218.04v40.62h-125.6v40.35h-57.03v60.72c0,76.7,34.9,138.88,77.94,138.88h104.69s6.95.01,6.95.01h0s192.05-.01,192.05-.01h0s6.94.01,6.94.01h0s192.04-.01,192.04-.01h0s6.95.01,6.95.01h0s104.68-.01,104.68-.01c43.05,0,77.95-62.18,77.95-138.88v-60.72h-57.03Z"/>
          <path class="cls-24" d="m749.71,96.84v-40.35h-125.6v146.87h0V15.87H219.18v40.62h-125.6v40.35h-57.03v60.72c0,76.7,34.9,138.88,77.94,138.88h104.69s6.95.01,6.95.01h0s192.05-.01,192.05-.01h0s6.94.01,6.94.01h0s192.04-.01,192.04-.01h0s6.95.01,6.95.01h0s104.68-.01,104.68-.01c43.05,0,77.95-62.18,77.95-138.88v-60.72h-57.03Z"/>
          <path class="cls-68" d="m750.85,96.28v-40.35h-125.6v146.87h0V15.31H220.32v40.62h-125.6v40.35h-57.03v60.72c0,76.7,34.9,138.88,77.94,138.88h104.69s6.95.01,6.95.01h0s192.05-.01,192.05-.01h0s6.94.01,6.94.01h0s192.04-.01,192.04-.01h0s6.95.01,6.95.01h0s104.68-.01,104.68-.01c43.05,0,77.95-62.18,77.95-138.88v-60.72h-57.03Z"/>
          <path class="cls-26" d="m751.99,95.72v-40.35h-125.6v146.87h0V14.75H221.46v40.62h-125.6v40.35h-57.03v60.72c0,76.7,34.9,138.88,77.94,138.88h104.69s6.95.01,6.95.01h0s192.05-.01,192.05-.01h0s6.94.01,6.94.01h0s192.04-.01,192.04-.01h0s6.95.01,6.95.01h0s104.68-.01,104.68-.01c43.05,0,77.95-62.18,77.95-138.88v-60.72h-57.03Z"/>
          <path class="cls-1" d="m753.13,95.16v-40.35h-125.6v146.87h0V14.19H222.61v40.62h-125.6v40.35h-57.03v60.72c0,76.7,34.9,138.88,77.94,138.88h104.69s6.95.01,6.95.01h0s192.05-.01,192.05-.01h0s6.94.01,6.94.01h0s192.04-.01,192.04-.01h0s6.95.01,6.95.01h0s104.68-.01,104.68-.01c43.05,0,77.95-62.18,77.95-138.88v-60.72h-57.03Z"/>
          <path class="cls-45" d="m754.28,94.6v-40.35h-125.6v146.87h0V13.63H223.75v40.62h-125.6v40.35h-57.03v60.72c0,76.7,34.9,138.88,77.94,138.88h104.69s6.95.01,6.95.01h0s192.05-.01,192.05-.01h0s6.94.01,6.94.01h0s192.04-.01,192.04-.01h0s6.95.01,6.95.01h0s104.68-.01,104.68-.01c43.05,0,77.95-62.18,77.95-138.88v-60.72h-57.03Z"/>
          <path class="cls-15" d="m755.42,94.04v-40.35h-125.6v146.87h0V13.08H224.89v40.62h-125.6v40.35h-57.03v60.72c0,76.7,34.9,138.88,77.94,138.88h104.69s6.95.01,6.95.01h0s192.05-.01,192.05-.01h0s6.94.01,6.94.01h0s192.04-.01,192.04-.01h0s6.95.01,6.95.01h0s104.68-.01,104.68-.01c43.05,0,77.95-62.18,77.95-138.88v-60.72h-57.03Z"/>
          <path class="cls-33" d="m756.56,93.49v-40.35h-125.6v146.87h0V12.52H226.03v40.62h-125.6v40.35h-57.03v60.72c0,76.7,34.9,138.88,77.94,138.88h104.69s6.95.01,6.95.01h0s192.05-.01,192.05-.01h0s6.94.01,6.94.01h0s192.04-.01,192.04-.01h0s6.95.01,6.95.01h0s104.68-.01,104.68-.01c43.05,0,77.95-62.18,77.95-138.88v-60.72h-57.03Z"/>
          <path class="cls-55" d="m757.7,92.93v-40.35h-125.6v146.87h0V11.96H227.18v40.62h-125.6v40.35h-57.03v60.72c0,76.7,34.9,138.88,77.94,138.88h104.69s6.95.01,6.95.01h0s192.05-.01,192.05-.01h0s6.94.01,6.94.01h0s192.04-.01,192.04-.01h0s6.95.01,6.95.01h0s104.68-.01,104.68-.01c43.05,0,77.95-62.18,77.95-138.88v-60.72h-57.03Z"/>
          <path class="cls-17" d="m758.85,92.37v-40.35h-125.6v146.87h0V11.4H228.32v40.62h-125.6v40.35h-57.03v60.72c0,76.7,34.9,138.88,77.94,138.88h104.69s6.95.01,6.95.01h0s192.05-.01,192.05-.01h0s6.94.01,6.94.01h0s192.04-.01,192.04-.01h0s6.95.01,6.95.01h0s104.68-.01,104.68-.01c43.05,0,77.95-62.18,77.95-138.88v-60.72h-57.03Z"/>
          <path class="cls-28" d="m759.99,91.81v-40.35h-125.6v146.87h0V10.84H229.46v40.62h-125.6v40.35h-57.03v60.72c0,76.7,34.9,138.88,77.94,138.88h104.69s6.95.01,6.95.01h0s192.05-.01,192.05-.01h0s6.94.01,6.94.01h0s192.04-.01,192.04-.01h0s6.95.01,6.95.01h0s104.68-.01,104.68-.01c43.05,0,77.95-62.18,77.95-138.88v-60.72h-57.03Z"/>
          <path class="cls-22" d="m761.13,91.25v-40.35h-125.6v146.87h0V10.28H230.6v40.62h-125.6v40.35h-57.03v60.72c0,76.7,34.9,138.88,77.94,138.88h104.69s6.95.01,6.95.01h0s192.05-.01,192.05-.01h0s6.94.01,6.94.01h0s192.04-.01,192.04-.01h0s6.95.01,6.95.01h0s104.68-.01,104.68-.01c43.05,0,77.95-62.18,77.95-138.88v-60.72h-57.03Z"/>
          <path class="cls-44" d="m762.27,90.69v-40.35h-125.6v146.87h0V9.72H231.74v40.62h-125.6v40.35h-57.03v60.72c0,76.7,34.9,138.88,77.94,138.88h104.69s6.95.01,6.95.01h0s192.05-.01,192.05-.01h0s6.94.01,6.94.01h0s192.04-.01,192.04-.01h0s6.95.01,6.95.01h0s104.68-.01,104.68-.01c43.05,0,77.95-62.18,77.95-138.88v-60.72h-57.03Z"/>
          <path class="cls-32" d="m763.41,90.13v-40.35h-125.6v146.87h0V9.17H232.89v40.62h-125.6v40.35h-57.03v60.72c0,76.7,34.9,138.88,77.94,138.88h104.69s6.95.01,6.95.01h0s192.05-.01,192.05-.01h0s6.94.01,6.94.01h0s192.04-.01,192.04-.01h0s6.95.01,6.95.01h0s104.68-.01,104.68-.01c43.05,0,77.95-62.18,77.95-138.88v-60.72h-57.03Z"/>
          <path class="cls-42" d="m764.56,89.58v-40.35h-125.6v146.87h0V8.61H234.03v40.62h-125.6v40.35h-57.03v60.72c0,76.7,34.9,138.88,77.94,138.88h104.69s6.95.01,6.95.01h0s192.05-.01,192.05-.01h0s6.94.01,6.94.01h0s192.04-.01,192.04-.01h0s6.95.01,6.95.01h0s104.68-.01,104.68-.01c43.05,0,77.95-62.18,77.95-138.88v-60.72h-57.03Z"/>
          <path class="cls-58" d="m765.7,89.02v-40.35h-125.6v146.87h0V8.05H235.17v40.62h-125.6v40.35h-57.03v60.72c0,76.7,34.9,138.88,77.94,138.88h104.69s6.95.01,6.95.01h0s192.05-.01,192.05-.01h0s6.94.01,6.94.01h0s192.04-.01,192.04-.01h0s6.95.01,6.95.01h0s104.68-.01,104.68-.01c43.05,0,77.95-62.18,77.95-138.88v-60.72h-57.03Z"/>
          <path class="cls-13" d="m766.84,88.46v-40.35h-125.6v146.87h0V7.49H236.31v40.62h-125.6v40.35h-57.03v60.72c0,76.7,34.9,138.88,77.94,138.88h104.69s6.95.01,6.95.01h0s192.05-.01,192.05-.01h0s6.94.01,6.94.01h0s192.04-.01,192.04-.01h0s6.95.01,6.95.01h0s104.68-.01,104.68-.01c43.05,0,77.95-62.18,77.95-138.88v-60.72h-57.03Z"/>
          <path class="cls-61" d="m767.98,87.9v-40.35h-125.6v146.87h0V6.93H237.45v40.62h-125.6v40.35h-57.03v60.72c0,76.7,34.9,138.88,77.94,138.88h104.69s6.95.01,6.95.01h0s192.05-.01,192.05-.01h0s6.94.01,6.94.01h0s192.04-.01,192.04-.01h0s6.95.01,6.95.01h0s104.68-.01,104.68-.01c43.05,0,77.95-62.18,77.95-138.88v-60.72h-57.03Z"/>
          <path class="cls-27" d="m769.13,87.34v-40.35h-125.6v146.87h0V6.37H238.6v40.62h-125.6v40.35h-57.03v60.72c0,76.7,34.9,138.88,77.94,138.88h104.69s6.95.01,6.95.01h0s192.05-.01,192.05-.01h0s6.94.01,6.94.01h0s192.04-.01,192.04-.01h0s6.95.01,6.95.01h0s104.68-.01,104.68-.01c43.05,0,77.95-62.18,77.95-138.88v-60.72h-57.03Z"/>
          <path class="cls-53" d="m770.27,86.78v-40.35h-125.6v146.87h0V5.82H239.74v40.62h-125.6v40.35h-57.03v60.72c0,76.7,34.9,138.88,77.94,138.88h104.69s6.95.01,6.95.01h0s192.05-.01,192.05-.01h0s6.94.01,6.94.01h0s192.04-.01,192.04-.01h0s6.95.01,6.95.01h0s104.68-.01,104.68-.01c43.05,0,77.95-62.18,77.95-138.88v-60.72h-57.03Z"/>
          <path class="cls-56" d="m771.41,86.23v-40.35h-125.6v146.87h0V5.26H240.88v40.62h-125.6v40.35h-57.03v60.72c0,76.7,34.9,138.88,77.94,138.88h104.69s6.95.01,6.95.01h0s192.05-.01,192.05-.01h0s6.94.01,6.94.01h0s192.04-.01,192.04-.01h0s6.95.01,6.95.01h0s104.68-.01,104.68-.01c43.05,0,77.95-62.18,77.95-138.88v-60.72h-57.03Z"/>
          <path class="cls-49" d="m772.55,85.67v-40.35h-125.6v146.87h0V4.7H242.02v40.62h-125.6v40.35h-57.03v60.72c0,76.7,34.9,138.88,77.94,138.88h104.69s6.95.01,6.95.01h0s192.05-.01,192.05-.01h0s6.94.01,6.94.01h0s192.04-.01,192.04-.01h0s6.95.01,6.95.01h0s104.68-.01,104.68-.01c43.05,0,77.95-62.18,77.95-138.88v-60.72h-57.03Z"/>
          <path class="cls-12" d="m773.7,85.11v-40.35h-125.6v146.87h0V4.14H243.17v40.62h-125.6v40.35h-57.03v60.72c0,76.7,34.9,138.88,77.94,138.88h104.69s6.95.01,6.95.01h0s192.05-.01,192.05-.01h0s6.94.01,6.94.01h0s192.04-.01,192.04-.01h0s6.95.01,6.95.01h0s104.68-.01,104.68-.01c43.05,0,77.95-62.18,77.95-138.88v-60.72h-57.03Z"/>
          <path class="cls-16" d="m774.84,84.55v-40.35h-125.6v146.87h0V3.58H244.31v40.62h-125.6v40.35h-57.03v60.72c0,76.7,34.9,138.88,77.94,138.88h104.69s6.95.01,6.95.01h0s192.05-.01,192.05-.01h0s6.94.01,6.94.01h0s192.04-.01,192.04-.01h0s6.95.01,6.95.01h0s104.68-.01,104.68-.01c43.05,0,77.95-62.18,77.95-138.88v-60.72h-57.03Z"/>
          <path class="cls-23" d="m775.98,83.99v-40.35h-125.6v146.87h0V3.02H245.45v40.62h-125.6v40.35h-57.03v60.72c0,76.7,34.9,138.88,77.94,138.88h104.69s6.95.01,6.95.01h0s192.05-.01,192.05-.01h0s6.94.01,6.94.01h0s192.04-.01,192.04-.01h0s6.95.01,6.95.01h0s104.68-.01,104.68-.01c43.05,0,77.95-62.19,77.95-138.88v-60.72h-57.03Z"/>
          <path class="cls-35" d="m777.12,83.43v-40.35h-125.6v146.87h0V2.47H246.59v40.62h-125.6v40.35h-57.03v60.72c0,76.7,34.9,138.88,77.94,138.88h104.69s6.95.01,6.95.01h0s192.05-.01,192.05-.01h0s6.94.01,6.94.01h0s192.04-.01,192.04-.01h0s6.95.01,6.95.01h0s104.68-.01,104.68-.01c43.05,0,77.95-62.19,77.95-138.88v-60.72h-57.03Z"/>
          <path class="cls-25" d="m778.26,82.88v-40.35h-125.6v146.87h0V1.91H247.73v40.62h-125.6v40.35h-57.03v60.72c0,76.7,34.9,138.88,77.94,138.88h104.69s6.95.01,6.95.01h0s192.05-.01,192.05-.01h0s6.94.01,6.94.01h0s192.04-.01,192.04-.01h0s6.95.01,6.95.01h0s104.68-.01,104.68-.01c43.05,0,77.95-62.19,77.95-138.88v-60.72h-57.03Z"/>
          <path class="cls-59" d="m779.41,82.32v-40.35h-125.6v146.87h0V1.35H248.88v40.62h-125.6v40.35h-57.03v60.72c0,76.7,34.9,138.88,77.94,138.88h104.69s6.95.01,6.95.01h0s192.05-.01,192.05-.01h0s6.94.01,6.94.01h0s192.04-.01,192.04-.01h0s6.95.01,6.95.01h0s104.68-.01,104.68-.01c43.05,0,77.95-62.19,77.95-138.88v-60.72h-57.03Z"/>
        </g>
        <g>
          <rect class="cls-10" x="248.88" y="1.35" width="404.92" height="187.48"/>
          <rect class="cls-3" x="248.88" y="188.83" width="401.46" height="86.89"/>
          <rect class="cls-40" x="248.88" y="188.83" width="404.92" height="12.36"/>
          <rect class="cls-40" x="248.88" y="229.19" width="202.47" height="12.36"/>
          <rect class="cls-40" x="248.88" y="269.54" width="404.92" height="12.37"/>
          <rect class="cls-40" x="248.88" y="188.83" width="6.95" height="93.09"/>
          <rect class="cls-40" x="447.88" y="188.83" width="6.94" height="93.09"/>
          <rect class="cls-40" x="646.86" y="188.83" width="6.95" height="93.09"/>
          <path class="cls-40" d="m337.17,256.14c0,5.74,5.64,10.39,12.6,10.39s12.61-4.65,12.61-10.39-5.64-10.37-12.61-10.37-12.6,4.64-12.6,10.37Z"/>
          <path class="cls-40" d="m337.17,215.76c0,5.74,5.64,10.39,12.6,10.39s12.61-4.65,12.61-10.39-5.64-10.38-12.61-10.38-12.6,4.65-12.6,10.38Z"/>
          <rect class="cls-40" x="447.86" y="229.19" width="202.47" height="12.36"/>
          <path class="cls-40" d="m536.16,256.14c0,5.74,5.64,10.39,12.61,10.39s12.61-4.65,12.61-10.39-5.64-10.37-12.61-10.37-12.61,4.64-12.61,10.37Z"/>
          <path class="cls-40" d="m536.16,215.76c0,5.74,5.64,10.39,12.61,10.39s12.61-4.65,12.61-10.39-5.64-10.38-12.61-10.38-12.61,4.65-12.61,10.38Z"/>
          <path class="cls-40" d="m653.8,93.56h182.63v49.48c0,76.7-34.9,138.88-77.95,138.88h-104.68V93.56Z"/>
          <path class="cls-9" d="m653.8,82.32h182.63v49.48c0,76.7-34.9,138.88-77.95,138.88h-104.68V82.32Z"/>
          <g>
            <path class="cls-40" d="m653.8,53.21h125.6v49.47c0,76.7-34.9,138.88-77.94,138.88h-47.65V53.21Z"/>
            <path class="cls-8" d="m653.8,41.97h125.6v49.48c0,76.7-34.9,138.88-77.94,138.88h-47.65V41.97Z"/>
          </g>
          <path class="cls-40" d="m248.88,93.56H66.24v49.48c0,76.7,34.9,138.88,77.94,138.88h104.69V93.56Z"/>
          <path class="cls-7" d="m248.88,82.32H66.24v49.48c0,76.7,34.9,138.88,77.94,138.88h104.69V82.32Z"/>
          <g>
            <path class="cls-40" d="m248.88,53.21h-125.6v49.47c0,76.7,34.9,138.88,77.94,138.88h47.65V53.21Z"/>
            <path class="cls-11" d="m248.88,41.97h-125.6v49.48c0,76.7,34.9,138.88,77.94,138.88h47.65V41.97Z"/>
          </g>
        </g>
        <path class="cls-46" d="m837.19,80.97h-57.03v-40.35h-125.61V0H248.12v40.62h-125.6v40.35h-57.03v50.83c0,7.48.42,14.76,1.06,21.91,3.07,71.7,36.62,128.21,77.64,128.21h104.69s6.95.01,6.95.01h0s192.05-.01,192.05-.01h0s6.94.01,6.94.01h0s192.04-.01,192.04-.01h0s6.95.01,6.95.01h0s104.68-.01,104.68-.01c41.03,0,74.59-56.53,77.65-128.24.64-7.15,1.06-14.41,1.06-21.88v-50.83Z"/>
      </g>
    </g>
  </g>
</svg>