<?xml version="1.0" encoding="UTF-8"?>
<svg xmlns="http://www.w3.org/2000/svg" xmlns:xlink="http://www.w3.org/1999/xlink" viewBox="0 0 542.9 268.45">
  <defs>
    <style>
      .cls-1 {
        fill: #ddd;
      }

      .cls-2 {
        fill: #e9e9e9;
      }

      .cls-3 {
        fill: url(#linear-gradient-2);
      }

      .cls-4 {
        fill: #f0f0f0;
      }

      .cls-5 {
        fill: #f4f4f4;
      }

      .cls-6 {
        fill: #fff;
      }

      .cls-7 {
        fill: #cbcbcb;
      }

      .cls-8 {
        fill: url(#linear-gradient-4);
        stroke: #9d9d9c;
        stroke-miterlimit: 10;
        stroke-width: .03px;
      }

      .cls-9 {
        fill: #d1d1d1;
      }

      .cls-10 {
        fill: #fafafa;
      }

      .cls-11 {
        fill: #dbdbdb;
      }

      .cls-12 {
        fill: #cacaca;
      }

      .cls-13 {
        fill: #d8d8d8;
      }

      .cls-14 {
        fill: #f6f6f6;
      }

      .cls-15 {
        fill: #e2e2e2;
      }

      .cls-16 {
        fill: #f5f5f5;
      }

      .cls-17 {
        isolation: isolate;
      }

      .cls-18 {
        fill: #d6d6d6;
      }

      .cls-19 {
        fill: #c9c9c9;
      }

      .cls-20 {
        fill: #e0e0e0;
      }

      .cls-21 {
        fill: #c7c7c7;
      }

      .cls-22 {
        fill: #dedede;
      }

      .cls-23 {
        fill: #cfcfcf;
      }

      .cls-24 {
        fill: #d7d7d7;
      }

      .cls-25 {
        fill: #e1e1e1;
      }

      .cls-26 {
        fill: #e6e6e6;
      }

      .cls-27 {
        fill: #e7e7e7;
      }

      .cls-28 {
        fill: #d4d4d4;
      }

      .cls-29 {
        fill: #dadada;
      }

      .cls-30 {
        fill: #eaeaea;
      }

      .cls-31 {
        fill: #c8c8c8;
      }

      .cls-32 {
        fill: #fdfdfd;
      }

      .cls-33 {
        fill: #e4e4e4;
      }

      .cls-34 {
        fill: #fbfbfb;
      }

      .cls-35 {
        fill: #f9f9f9;
      }

      .cls-36 {
        fill: #8f8f8e;
      }

      .cls-37 {
        fill: #e5e5e5;
      }

      .cls-38 {
        fill: #d3d3d3;
      }

      .cls-39 {
        fill: #ebebeb;
      }

      .cls-40 {
        fill: #d5d5d5;
      }

      .cls-41 {
        fill: #dcdcdc;
      }

      .cls-42 {
        fill: #706f6f;
      }

      .cls-42, .cls-43 {
        mix-blend-mode: multiply;
      }

      .cls-44 {
        fill: #e8e8e8;
      }

      .cls-45 {
        fill: #ccc;
      }

      .cls-46 {
        fill: #f7f7f7;
      }

      .cls-47 {
        fill: #efefef;
      }

      .cls-48 {
        fill: #f1f1f1;
      }

      .cls-49 {
        fill: url(#linear-gradient-3);
      }

      .cls-50 {
        fill: #cecece;
      }

      .cls-51 {
        fill: url(#linear-gradient);
      }

      .cls-52 {
        fill: #f3f3f3;
      }

      .cls-53 {
        fill: #d9d9d9;
      }

      .cls-54 {
        fill: #cdcdcd;
      }

      .cls-55 {
        fill: #f8f8f8;
      }

      .cls-56 {
        fill: #d2d2d2;
      }

      .cls-57 {
        fill: #c6c6c6;
      }

      .cls-58 {
        fill: #eee;
      }

      .cls-59 {
        fill: #d0d0d0;
      }

      .cls-60 {
        fill: #ececec;
      }

      .cls-61 {
        fill: #f2f2f2;
      }

      .cls-62 {
        fill: #fefefe;
      }

      .cls-63 {
        fill: #e3e3e3;
      }

      .cls-64 {
        fill: #fcfcfc;
      }

      .cls-65 {
        fill: #ededed;
      }

      .cls-66 {
        fill: #dfdfdf;
      }
    </style>
    <linearGradient id="linear-gradient" x1="542.3" y1="187.23" x2="63.27" y2="187.23" gradientUnits="userSpaceOnUse">
      <stop offset="0" stop-color="#c7c7c7"/>
      <stop offset="1" stop-color="#b3b3b3"/>
    </linearGradient>
    <linearGradient id="linear-gradient-2" y1="161.72" y2="161.72" xlink:href="#linear-gradient"/>
    <linearGradient id="linear-gradient-3" y1="136.21" y2="136.21" xlink:href="#linear-gradient"/>
    <linearGradient id="linear-gradient-4" x1="1558.12" y1="72.49" x2="2037.14" y2="72.49" gradientTransform="translate(2100.41) rotate(-180) scale(1 -1)" gradientUnits="userSpaceOnUse">
      <stop offset="0" stop-color="#fff"/>
      <stop offset="1" stop-color="#ccc"/>
    </linearGradient>
  </defs>
  <g class="cls-17">
    <g id="Layer_1" data-name="Layer 1">
      <g>
        <g class="cls-43">
          <polygon class="cls-6" points="479.02 266.34 479.02 262.65 479.02 242.95 479.02 237.14 479.02 217.43 479.02 211.63 479.02 193.93 479.02 191.92 479.02 188.12 479.02 186.12 479.02 182.09 479.02 168.41 479.02 162.61 479.02 142.92 479.02 137.1 479.02 65.76 479.02 47.01 0 47.01 0 65.76 0 137.1 0 142.92 0 162.61 0 168.41 0 182.09 0 186.12 0 188.12 0 191.92 0 193.93 0 211.63 0 217.43 0 237.14 0 242.95 0 262.65 0 266.34 0 268.45 479.02 268.45 479.02 266.34"/>
          <polygon class="cls-62" points="480.11 265.68 480.11 261.99 480.11 242.29 480.11 236.48 480.11 216.77 480.11 210.97 480.11 193.27 480.11 191.26 480.11 187.47 480.11 185.46 480.11 181.43 480.11 167.76 480.11 161.95 480.11 142.26 480.11 136.44 480.11 65.1 480.11 46.22 1.09 46.22 1.09 65.1 1.09 136.44 1.09 142.26 1.09 161.95 1.09 167.76 1.09 181.43 1.09 185.46 1.09 187.47 1.09 191.26 1.09 193.27 1.09 210.97 1.09 216.77 1.09 236.48 1.09 242.29 1.09 261.99 1.09 265.68 1.09 267.8 480.11 267.8 480.11 265.68"/>
          <polygon class="cls-32" points="481.2 265.03 481.2 261.33 481.2 241.63 481.2 235.83 481.2 216.12 481.2 210.31 481.2 192.61 481.2 190.6 481.2 186.81 481.2 184.8 481.2 180.78 481.2 167.1 481.2 161.29 481.2 141.6 481.2 135.79 481.2 64.44 481.2 45.43 2.18 45.43 2.18 64.44 2.18 135.79 2.18 141.6 2.18 161.29 2.18 167.1 2.18 180.78 2.18 184.8 2.18 186.81 2.18 190.6 2.18 192.61 2.18 210.31 2.18 216.12 2.18 235.83 2.18 241.63 2.18 261.33 2.18 265.03 2.18 267.14 481.2 267.14 481.2 265.03"/>
          <polygon class="cls-64" points="482.29 264.37 482.29 260.67 482.29 240.97 482.29 235.17 482.29 215.46 482.29 209.65 482.29 191.96 482.29 189.94 482.29 186.15 482.29 184.15 482.29 180.12 482.29 166.44 482.29 160.63 482.29 140.94 482.29 135.13 482.29 63.79 482.29 44.63 3.27 44.63 3.27 63.79 3.27 135.13 3.27 140.94 3.27 160.63 3.27 166.44 3.27 180.12 3.27 184.15 3.27 186.15 3.27 189.94 3.27 191.96 3.27 209.65 3.27 215.46 3.27 235.17 3.27 240.97 3.27 260.67 3.27 264.37 3.27 266.48 482.29 266.48 482.29 264.37"/>
          <polygon class="cls-34" points="483.38 263.71 483.38 260.02 483.38 240.32 483.38 234.51 483.38 214.8 483.38 208.99 483.38 191.3 483.38 189.29 483.38 185.49 483.38 183.49 483.38 179.46 483.38 165.78 483.38 159.98 483.38 140.28 483.38 134.47 483.38 63.13 483.38 43.84 4.36 43.84 4.36 63.13 4.36 134.47 4.36 140.28 4.36 159.98 4.36 165.78 4.36 179.46 4.36 183.49 4.36 185.49 4.36 189.29 4.36 191.3 4.36 208.99 4.36 214.8 4.36 234.51 4.36 240.32 4.36 260.02 4.36 263.71 4.36 265.82 483.38 265.82 483.38 263.71"/>
          <polygon class="cls-10" points="484.48 263.05 484.48 259.36 484.48 239.66 484.48 233.85 484.48 214.14 484.48 208.34 484.48 190.64 484.48 188.63 484.48 184.83 484.48 182.83 484.48 178.8 484.48 165.13 484.48 159.32 484.48 139.63 484.48 133.81 484.48 62.47 484.48 43.05 5.45 43.05 5.45 62.47 5.45 133.81 5.45 139.63 5.45 159.32 5.45 165.13 5.45 178.8 5.45 182.83 5.45 184.83 5.45 188.63 5.45 190.64 5.45 208.34 5.45 214.14 5.45 233.85 5.45 239.66 5.45 259.36 5.45 263.05 5.45 265.17 484.48 265.17 484.48 263.05"/>
          <polygon class="cls-35" points="485.57 262.39 485.57 258.7 485.57 239 485.57 233.19 485.57 213.49 485.57 207.68 485.57 189.98 485.57 187.97 485.57 184.18 485.57 182.17 485.57 178.14 485.57 164.47 485.57 158.66 485.57 138.97 485.57 133.15 485.57 61.81 485.57 42.26 6.55 42.26 6.55 61.81 6.55 133.15 6.55 138.97 6.55 158.66 6.55 164.47 6.55 178.14 6.55 182.17 6.55 184.18 6.55 187.97 6.55 189.98 6.55 207.68 6.55 213.49 6.55 233.19 6.55 239 6.55 258.7 6.55 262.39 6.55 264.51 485.57 264.51 485.57 262.39"/>
          <polygon class="cls-55" points="486.66 261.74 486.66 258.04 486.66 238.34 486.66 232.54 486.66 212.83 486.66 207.02 486.66 189.33 486.66 187.31 486.66 183.52 486.66 181.51 486.66 177.49 486.66 163.81 486.66 158 486.66 138.31 486.66 132.5 486.66 61.16 486.66 41.46 7.64 41.46 7.64 61.16 7.64 132.5 7.64 138.31 7.64 158 7.64 163.81 7.64 177.49 7.64 181.51 7.64 183.52 7.64 187.31 7.64 189.33 7.64 207.02 7.64 212.83 7.64 232.54 7.64 238.34 7.64 258.04 7.64 261.74 7.64 263.85 486.66 263.85 486.66 261.74"/>
          <polygon class="cls-46" points="487.75 261.08 487.75 257.39 487.75 237.68 487.75 231.88 487.75 212.17 487.75 206.36 487.75 188.67 487.75 186.65 487.75 182.86 487.75 180.86 487.75 176.83 487.75 163.15 487.75 157.35 487.75 137.65 487.75 131.84 487.75 60.5 487.75 40.67 8.73 40.67 8.73 60.5 8.73 131.84 8.73 137.65 8.73 157.35 8.73 163.15 8.73 176.83 8.73 180.86 8.73 182.86 8.73 186.65 8.73 188.67 8.73 206.36 8.73 212.17 8.73 231.88 8.73 237.68 8.73 257.39 8.73 261.08 8.73 263.19 487.75 263.19 487.75 261.08"/>
          <polygon class="cls-14" points="488.84 260.42 488.84 256.73 488.84 237.03 488.84 231.22 488.84 211.51 488.84 205.7 488.84 188.01 488.84 186 488.84 182.2 488.84 180.2 488.84 176.17 488.84 162.49 488.84 156.69 488.84 137 488.84 131.18 488.84 59.84 488.84 39.88 9.82 39.88 9.82 59.84 9.82 131.18 9.82 137 9.82 156.69 9.82 162.49 9.82 176.17 9.82 180.2 9.82 182.2 9.82 186 9.82 188.01 9.82 205.7 9.82 211.51 9.82 231.22 9.82 237.03 9.82 256.73 9.82 260.42 9.82 262.53 488.84 262.53 488.84 260.42"/>
          <polygon class="cls-16" points="489.93 259.76 489.93 256.07 489.93 236.37 489.93 230.56 489.93 210.85 489.93 205.05 489.93 187.35 489.93 185.34 489.93 181.55 489.93 179.54 489.93 175.51 489.93 161.84 489.93 156.03 489.93 136.34 489.93 130.52 489.93 59.18 489.93 39.09 10.91 39.09 10.91 59.18 10.91 130.52 10.91 136.34 10.91 156.03 10.91 161.84 10.91 175.51 10.91 179.54 10.91 181.55 10.91 185.34 10.91 187.35 10.91 205.05 10.91 210.85 10.91 230.56 10.91 236.37 10.91 256.07 10.91 259.76 10.91 261.88 489.93 261.88 489.93 259.76"/>
          <polygon class="cls-5" points="491.02 259.1 491.02 255.41 491.02 235.71 491.02 229.9 491.02 210.2 491.02 204.39 491.02 186.69 491.02 184.68 491.02 180.89 491.02 178.88 491.02 174.86 491.02 161.18 491.02 155.37 491.02 135.68 491.02 129.86 491.02 58.52 491.02 38.29 12 38.29 12 58.52 12 129.86 12 135.68 12 155.37 12 161.18 12 174.86 12 178.88 12 180.89 12 184.68 12 186.69 12 204.39 12 210.2 12 229.9 12 235.71 12 255.41 12 259.1 12 261.22 491.02 261.22 491.02 259.1"/>
          <polygon class="cls-52" points="492.11 258.45 492.11 254.75 492.11 235.05 492.11 229.25 492.11 209.54 492.11 203.73 492.11 186.04 492.11 184.02 492.11 180.23 492.11 178.22 492.11 174.2 492.11 160.52 492.11 154.71 492.11 135.02 492.11 129.21 492.11 57.87 492.11 37.5 13.09 37.5 13.09 57.87 13.09 129.21 13.09 135.02 13.09 154.71 13.09 160.52 13.09 174.2 13.09 178.22 13.09 180.23 13.09 184.02 13.09 186.04 13.09 203.73 13.09 209.54 13.09 229.25 13.09 235.05 13.09 254.75 13.09 258.45 13.09 260.56 492.11 260.56 492.11 258.45"/>
          <polygon class="cls-61" points="493.2 257.79 493.2 254.1 493.2 234.4 493.2 228.59 493.2 208.88 493.2 203.07 493.2 185.38 493.2 183.36 493.2 179.57 493.2 177.57 493.2 173.54 493.2 159.86 493.2 154.06 493.2 134.36 493.2 128.55 493.2 57.21 493.2 36.71 14.18 36.71 14.18 57.21 14.18 128.55 14.18 134.36 14.18 154.06 14.18 159.86 14.18 173.54 14.18 177.57 14.18 179.57 14.18 183.36 14.18 185.38 14.18 203.07 14.18 208.88 14.18 228.59 14.18 234.4 14.18 254.1 14.18 257.79 14.18 259.9 493.2 259.9 493.2 257.79"/>
          <polygon class="cls-48" points="494.29 257.13 494.29 253.44 494.29 233.74 494.29 227.93 494.29 208.22 494.29 202.42 494.29 184.72 494.29 182.71 494.29 178.91 494.29 176.91 494.29 172.88 494.29 159.2 494.29 153.4 494.29 133.71 494.29 127.89 494.29 56.55 494.29 35.92 15.27 35.92 15.27 56.55 15.27 127.89 15.27 133.71 15.27 153.4 15.27 159.2 15.27 172.88 15.27 176.91 15.27 178.91 15.27 182.71 15.27 184.72 15.27 202.42 15.27 208.22 15.27 227.93 15.27 233.74 15.27 253.44 15.27 257.13 15.27 259.24 494.29 259.24 494.29 257.13"/>
          <polygon class="cls-4" points="495.39 256.47 495.39 252.78 495.39 233.08 495.39 227.27 495.39 207.56 495.39 201.76 495.39 184.06 495.39 182.05 495.39 178.26 495.39 176.25 495.39 172.22 495.39 158.55 495.39 152.74 495.39 133.05 495.39 127.23 495.39 55.89 495.39 35.12 16.36 35.12 16.36 55.89 16.36 127.23 16.36 133.05 16.36 152.74 16.36 158.55 16.36 172.22 16.36 176.25 16.36 178.26 16.36 182.05 16.36 184.06 16.36 201.76 16.36 207.56 16.36 227.27 16.36 233.08 16.36 252.78 16.36 256.47 16.36 258.59 495.39 258.59 495.39 256.47"/>
          <polygon class="cls-47" points="496.48 255.82 496.48 252.12 496.48 232.42 496.48 226.62 496.48 206.91 496.48 201.1 496.48 183.4 496.48 181.39 496.48 177.6 496.48 175.59 496.48 171.57 496.48 157.89 496.48 152.08 496.48 132.39 496.48 126.58 496.48 55.23 496.48 34.33 17.46 34.33 17.46 55.23 17.46 126.58 17.46 132.39 17.46 152.08 17.46 157.89 17.46 171.57 17.46 175.59 17.46 177.6 17.46 181.39 17.46 183.4 17.46 201.1 17.46 206.91 17.46 226.62 17.46 232.42 17.46 252.12 17.46 255.82 17.46 257.93 496.48 257.93 496.48 255.82"/>
          <polygon class="cls-58" points="497.57 255.16 497.57 251.46 497.57 231.76 497.57 225.96 497.57 206.25 497.57 200.44 497.57 182.75 497.57 180.73 497.57 176.94 497.57 174.93 497.57 170.91 497.57 157.23 497.57 151.42 497.57 131.73 497.57 125.92 497.57 54.58 497.57 33.54 18.55 33.54 18.55 54.58 18.55 125.92 18.55 131.73 18.55 151.42 18.55 157.23 18.55 170.91 18.55 174.93 18.55 176.94 18.55 180.73 18.55 182.75 18.55 200.44 18.55 206.25 18.55 225.96 18.55 231.76 18.55 251.46 18.55 255.16 18.55 257.27 497.57 257.27 497.57 255.16"/>
          <polygon class="cls-65" points="498.66 254.5 498.66 250.81 498.66 231.11 498.66 225.3 498.66 205.59 498.66 199.78 498.66 182.09 498.66 180.08 498.66 176.28 498.66 174.28 498.66 170.25 498.66 156.57 498.66 150.77 498.66 131.07 498.66 125.26 498.66 53.92 498.66 32.75 19.64 32.75 19.64 53.92 19.64 125.26 19.64 131.07 19.64 150.77 19.64 156.57 19.64 170.25 19.64 174.28 19.64 176.28 19.64 180.08 19.64 182.09 19.64 199.78 19.64 205.59 19.64 225.3 19.64 231.11 19.64 250.81 19.64 254.5 19.64 256.61 498.66 256.61 498.66 254.5"/>
          <polygon class="cls-60" points="499.75 253.84 499.75 250.15 499.75 230.45 499.75 224.64 499.75 204.93 499.75 199.13 499.75 181.43 499.75 179.42 499.75 175.62 499.75 173.62 499.75 169.59 499.75 155.92 499.75 150.11 499.75 130.42 499.75 124.6 499.75 53.26 499.75 31.95 20.73 31.95 20.73 53.26 20.73 124.6 20.73 130.42 20.73 150.11 20.73 155.92 20.73 169.59 20.73 173.62 20.73 175.62 20.73 179.42 20.73 181.43 20.73 199.13 20.73 204.93 20.73 224.64 20.73 230.45 20.73 250.15 20.73 253.84 20.73 255.96 499.75 255.96 499.75 253.84"/>
          <polygon class="cls-39" points="500.84 253.18 500.84 249.49 500.84 229.79 500.84 223.98 500.84 204.27 500.84 198.47 500.84 180.77 500.84 178.76 500.84 174.97 500.84 172.96 500.84 168.93 500.84 155.26 500.84 149.45 500.84 129.76 500.84 123.94 500.84 52.6 500.84 31.16 21.82 31.16 21.82 52.6 21.82 123.94 21.82 129.76 21.82 149.45 21.82 155.26 21.82 168.93 21.82 172.96 21.82 174.97 21.82 178.76 21.82 180.77 21.82 198.47 21.82 204.27 21.82 223.98 21.82 229.79 21.82 249.49 21.82 253.18 21.82 255.3 500.84 255.3 500.84 253.18"/>
          <polygon class="cls-30" points="501.93 252.53 501.93 248.83 501.93 229.13 501.93 223.33 501.93 203.62 501.93 197.81 501.93 180.12 501.93 178.1 501.93 174.31 501.93 172.3 501.93 168.28 501.93 154.6 501.93 148.79 501.93 129.1 501.93 123.29 501.93 51.95 501.93 30.37 22.91 30.37 22.91 51.95 22.91 123.29 22.91 129.1 22.91 148.79 22.91 154.6 22.91 168.28 22.91 172.3 22.91 174.31 22.91 178.1 22.91 180.12 22.91 197.81 22.91 203.62 22.91 223.33 22.91 229.13 22.91 248.83 22.91 252.53 22.91 254.64 501.93 254.64 501.93 252.53"/>
          <polygon class="cls-2" points="503.02 251.87 503.02 248.18 503.02 228.47 503.02 222.67 503.02 202.96 503.02 197.15 503.02 179.46 503.02 177.44 503.02 173.65 503.02 171.65 503.02 167.62 503.02 153.94 503.02 148.14 503.02 128.44 503.02 122.63 503.02 51.29 503.02 29.58 24 29.58 24 51.29 24 122.63 24 128.44 24 148.14 24 153.94 24 167.62 24 171.65 24 173.65 24 177.44 24 179.46 24 197.15 24 202.96 24 222.67 24 228.47 24 248.18 24 251.87 24 253.98 503.02 253.98 503.02 251.87"/>
          <polygon class="cls-44" points="504.11 251.21 504.11 247.52 504.11 227.82 504.11 222.01 504.11 202.3 504.11 196.49 504.11 178.8 504.11 176.79 504.11 172.99 504.11 170.99 504.11 166.96 504.11 153.28 504.11 147.48 504.11 127.79 504.11 121.97 504.11 50.63 504.11 28.78 25.09 28.78 25.09 50.63 25.09 121.97 25.09 127.79 25.09 147.48 25.09 153.28 25.09 166.96 25.09 170.99 25.09 172.99 25.09 176.79 25.09 178.8 25.09 196.49 25.09 202.3 25.09 222.01 25.09 227.82 25.09 247.52 25.09 251.21 25.09 253.32 504.11 253.32 504.11 251.21"/>
          <polygon class="cls-27" points="505.2 250.55 505.2 246.86 505.2 227.16 505.2 221.35 505.2 201.64 505.2 195.84 505.2 178.14 505.2 176.13 505.2 172.34 505.2 170.33 505.2 166.3 505.2 152.63 505.2 146.82 505.2 127.13 505.2 121.31 505.2 49.97 505.2 27.99 26.18 27.99 26.18 49.97 26.18 121.31 26.18 127.13 26.18 146.82 26.18 152.63 26.18 166.3 26.18 170.33 26.18 172.34 26.18 176.13 26.18 178.14 26.18 195.84 26.18 201.64 26.18 221.35 26.18 227.16 26.18 246.86 26.18 250.55 26.18 252.67 505.2 252.67 505.2 250.55"/>
          <polygon class="cls-26" points="506.29 249.89 506.29 246.2 506.29 226.5 506.29 220.69 506.29 200.99 506.29 195.18 506.29 177.48 506.29 175.47 506.29 171.68 506.29 169.67 506.29 165.65 506.29 151.97 506.29 146.16 506.29 126.47 506.29 120.65 506.29 49.31 506.29 27.2 27.27 27.2 27.27 49.31 27.27 120.65 27.27 126.47 27.27 146.16 27.27 151.97 27.27 165.65 27.27 169.67 27.27 171.68 27.27 175.47 27.27 177.48 27.27 195.18 27.27 200.99 27.27 220.69 27.27 226.5 27.27 246.2 27.27 249.89 27.27 252.01 506.29 252.01 506.29 249.89"/>
          <polygon class="cls-37" points="507.39 249.24 507.39 245.54 507.39 225.84 507.39 220.04 507.39 200.33 507.39 194.52 507.39 176.83 507.39 174.81 507.39 171.02 507.39 169.01 507.39 164.99 507.39 151.31 507.39 145.5 507.39 125.81 507.39 120 507.39 48.66 507.39 26.41 28.36 26.41 28.36 48.66 28.36 120 28.36 125.81 28.36 145.5 28.36 151.31 28.36 164.99 28.36 169.01 28.36 171.02 28.36 174.81 28.36 176.83 28.36 194.52 28.36 200.33 28.36 220.04 28.36 225.84 28.36 245.54 28.36 249.24 28.36 251.35 507.39 251.35 507.39 249.24"/>
          <polygon class="cls-33" points="508.48 248.58 508.48 244.89 508.48 225.19 508.48 219.38 508.48 199.67 508.48 193.86 508.48 176.17 508.48 174.15 508.48 170.36 508.48 168.36 508.48 164.33 508.48 150.65 508.48 144.85 508.48 125.15 508.48 119.34 508.48 48 508.48 25.61 29.46 25.61 29.46 48 29.46 119.34 29.46 125.15 29.46 144.85 29.46 150.65 29.46 164.33 29.46 168.36 29.46 170.36 29.46 174.15 29.46 176.17 29.46 193.86 29.46 199.67 29.46 219.38 29.46 225.19 29.46 244.89 29.46 248.58 29.46 250.69 508.48 250.69 508.48 248.58"/>
          <polygon class="cls-63" points="509.57 247.92 509.57 244.23 509.57 224.53 509.57 218.72 509.57 199.01 509.57 193.21 509.57 175.51 509.57 173.5 509.57 169.7 509.57 167.7 509.57 163.67 509.57 149.99 509.57 144.19 509.57 124.5 509.57 118.68 509.57 47.34 509.57 24.82 30.55 24.82 30.55 47.34 30.55 118.68 30.55 124.5 30.55 144.19 30.55 149.99 30.55 163.67 30.55 167.7 30.55 169.7 30.55 173.5 30.55 175.51 30.55 193.21 30.55 199.01 30.55 218.72 30.55 224.53 30.55 244.23 30.55 247.92 30.55 250.03 509.57 250.03 509.57 247.92"/>
          <polygon class="cls-15" points="510.66 247.26 510.66 243.57 510.66 223.87 510.66 218.06 510.66 198.35 510.66 192.55 510.66 174.85 510.66 172.84 510.66 169.05 510.66 167.04 510.66 163.01 510.66 149.34 510.66 143.53 510.66 123.84 510.66 118.02 510.66 46.68 510.66 24.03 31.64 24.03 31.64 46.68 31.64 118.02 31.64 123.84 31.64 143.53 31.64 149.34 31.64 163.01 31.64 167.04 31.64 169.05 31.64 172.84 31.64 174.85 31.64 192.55 31.64 198.35 31.64 218.06 31.64 223.87 31.64 243.57 31.64 247.26 31.64 249.38 510.66 249.38 510.66 247.26"/>
          <polygon class="cls-15" points="511.75 246.61 511.75 242.91 511.75 223.21 511.75 217.41 511.75 197.7 511.75 191.89 511.75 174.19 511.75 172.18 511.75 168.39 511.75 166.38 511.75 162.36 511.75 148.68 511.75 142.87 511.75 123.18 511.75 117.37 511.75 46.02 511.75 23.24 32.73 23.24 32.73 46.02 32.73 117.37 32.73 123.18 32.73 142.87 32.73 148.68 32.73 162.36 32.73 166.38 32.73 168.39 32.73 172.18 32.73 174.19 32.73 191.89 32.73 197.7 32.73 217.41 32.73 223.21 32.73 242.91 32.73 246.61 32.73 248.72 511.75 248.72 511.75 246.61"/>
          <polygon class="cls-25" points="512.84 245.95 512.84 242.25 512.84 222.55 512.84 216.75 512.84 197.04 512.84 191.23 512.84 173.54 512.84 171.52 512.84 167.73 512.84 165.72 512.84 161.7 512.84 148.02 512.84 142.21 512.84 122.52 512.84 116.71 512.84 45.37 512.84 22.44 33.82 22.44 33.82 45.37 33.82 116.71 33.82 122.52 33.82 142.21 33.82 148.02 33.82 161.7 33.82 165.72 33.82 167.73 33.82 171.52 33.82 173.54 33.82 191.23 33.82 197.04 33.82 216.75 33.82 222.55 33.82 242.25 33.82 245.95 33.82 248.06 512.84 248.06 512.84 245.95"/>
          <polygon class="cls-20" points="513.93 245.29 513.93 241.6 513.93 221.9 513.93 216.09 513.93 196.38 513.93 190.57 513.93 172.88 513.93 170.87 513.93 167.07 513.93 165.07 513.93 161.04 513.93 147.36 513.93 141.56 513.93 121.86 513.93 116.05 513.93 44.71 513.93 21.65 34.91 21.65 34.91 44.71 34.91 116.05 34.91 121.86 34.91 141.56 34.91 147.36 34.91 161.04 34.91 165.07 34.91 167.07 34.91 170.87 34.91 172.88 34.91 190.57 34.91 196.38 34.91 216.09 34.91 221.9 34.91 241.6 34.91 245.29 34.91 247.4 513.93 247.4 513.93 245.29"/>
          <polygon class="cls-66" points="515.02 244.63 515.02 240.94 515.02 221.24 515.02 215.43 515.02 195.72 515.02 189.92 515.02 172.22 515.02 170.21 515.02 166.41 515.02 164.41 515.02 160.38 515.02 146.71 515.02 140.9 515.02 121.21 515.02 115.39 515.02 44.05 515.02 20.86 36 20.86 36 44.05 36 115.39 36 121.21 36 140.9 36 146.71 36 160.38 36 164.41 36 166.41 36 170.21 36 172.22 36 189.92 36 195.72 36 215.43 36 221.24 36 240.94 36 244.63 36 246.75 515.02 246.75 515.02 244.63"/>
          <polygon class="cls-22" points="516.11 243.97 516.11 240.28 516.11 220.58 516.11 214.77 516.11 195.06 516.11 189.26 516.11 171.56 516.11 169.55 516.11 165.76 516.11 163.75 516.11 159.72 516.11 146.05 516.11 140.24 516.11 120.55 516.11 114.73 516.11 43.39 516.11 20.07 37.09 20.07 37.09 43.39 37.09 114.73 37.09 120.55 37.09 140.24 37.09 146.05 37.09 159.72 37.09 163.75 37.09 165.76 37.09 169.55 37.09 171.56 37.09 189.26 37.09 195.06 37.09 214.77 37.09 220.58 37.09 240.28 37.09 243.97 37.09 246.09 516.11 246.09 516.11 243.97"/>
          <polygon class="cls-1" points="517.2 243.32 517.2 239.62 517.2 219.92 517.2 214.12 517.2 194.41 517.2 188.6 517.2 170.91 517.2 168.89 517.2 165.1 517.2 163.09 517.2 159.07 517.2 145.39 517.2 139.58 517.2 119.89 517.2 114.08 517.2 42.73 517.2 19.27 38.18 19.27 38.18 42.73 38.18 114.08 38.18 119.89 38.18 139.58 38.18 145.39 38.18 159.07 38.18 163.09 38.18 165.1 38.18 168.89 38.18 170.91 38.18 188.6 38.18 194.41 38.18 214.12 38.18 219.92 38.18 239.62 38.18 243.32 38.18 245.43 517.2 245.43 517.2 243.32"/>
          <polygon class="cls-41" points="518.29 242.66 518.29 238.97 518.29 219.26 518.29 213.46 518.29 193.75 518.29 187.94 518.29 170.25 518.29 168.23 518.29 164.44 518.29 162.44 518.29 158.41 518.29 144.73 518.29 138.93 518.29 119.23 518.29 113.42 518.29 42.08 518.29 18.48 39.27 18.48 39.27 42.08 39.27 113.42 39.27 119.23 39.27 138.93 39.27 144.73 39.27 158.41 39.27 162.44 39.27 164.44 39.27 168.23 39.27 170.25 39.27 187.94 39.27 193.75 39.27 213.46 39.27 219.26 39.27 238.97 39.27 242.66 39.27 244.77 518.29 244.77 518.29 242.66"/>
          <polygon class="cls-11" points="519.39 242 519.39 238.31 519.39 218.61 519.39 212.8 519.39 193.09 519.39 187.28 519.39 169.59 519.39 167.58 519.39 163.78 519.39 161.78 519.39 157.75 519.39 144.07 519.39 138.27 519.39 118.58 519.39 112.76 519.39 41.42 519.39 17.69 40.36 17.69 40.36 41.42 40.36 112.76 40.36 118.58 40.36 138.27 40.36 144.07 40.36 157.75 40.36 161.78 40.36 163.78 40.36 167.58 40.36 169.59 40.36 187.28 40.36 193.09 40.36 212.8 40.36 218.61 40.36 238.31 40.36 242 40.36 244.11 519.39 244.11 519.39 242"/>
          <polygon class="cls-29" points="520.48 241.34 520.48 237.65 520.48 217.95 520.48 212.14 520.48 192.43 520.48 186.63 520.48 168.93 520.48 166.92 520.48 163.12 520.48 161.12 520.48 157.09 520.48 143.42 520.48 137.61 520.48 117.92 520.48 112.1 520.48 40.76 520.48 16.9 41.46 16.9 41.46 40.76 41.46 112.1 41.46 117.92 41.46 137.61 41.46 143.42 41.46 157.09 41.46 161.12 41.46 163.12 41.46 166.92 41.46 168.93 41.46 186.63 41.46 192.43 41.46 212.14 41.46 217.95 41.46 237.65 41.46 241.34 41.46 243.46 520.48 243.46 520.48 241.34"/>
          <polygon class="cls-53" points="521.57 240.68 521.57 236.99 521.57 217.29 521.57 211.48 521.57 191.78 521.57 185.97 521.57 168.27 521.57 166.26 521.57 162.47 521.57 160.46 521.57 156.43 521.57 142.76 521.57 136.95 521.57 117.26 521.57 111.44 521.57 40.1 521.57 16.1 42.55 16.1 42.55 40.1 42.55 111.44 42.55 117.26 42.55 136.95 42.55 142.76 42.55 156.43 42.55 160.46 42.55 162.47 42.55 166.26 42.55 168.27 42.55 185.97 42.55 191.78 42.55 211.48 42.55 217.29 42.55 236.99 42.55 240.68 42.55 242.8 521.57 242.8 521.57 240.68"/>
          <polygon class="cls-13" points="522.66 240.03 522.66 236.33 522.66 216.63 522.66 210.83 522.66 191.12 522.66 185.31 522.66 167.62 522.66 165.6 522.66 161.81 522.66 159.8 522.66 155.78 522.66 142.1 522.66 136.29 522.66 116.6 522.66 110.79 522.66 39.45 522.66 15.31 43.64 15.31 43.64 39.45 43.64 110.79 43.64 116.6 43.64 136.29 43.64 142.1 43.64 155.78 43.64 159.8 43.64 161.81 43.64 165.6 43.64 167.62 43.64 185.31 43.64 191.12 43.64 210.83 43.64 216.63 43.64 236.33 43.64 240.03 43.64 242.14 522.66 242.14 522.66 240.03"/>
          <polygon class="cls-24" points="523.75 239.37 523.75 235.68 523.75 215.98 523.75 210.17 523.75 190.46 523.75 184.65 523.75 166.96 523.75 164.94 523.75 161.15 523.75 159.15 523.75 155.12 523.75 141.44 523.75 135.64 523.75 115.94 523.75 110.13 523.75 38.79 523.75 14.52 44.73 14.52 44.73 38.79 44.73 110.13 44.73 115.94 44.73 135.64 44.73 141.44 44.73 155.12 44.73 159.15 44.73 161.15 44.73 164.94 44.73 166.96 44.73 184.65 44.73 190.46 44.73 210.17 44.73 215.98 44.73 235.68 44.73 239.37 44.73 241.48 523.75 241.48 523.75 239.37"/>
          <polygon class="cls-18" points="524.84 238.71 524.84 235.02 524.84 215.32 524.84 209.51 524.84 189.8 524.84 184 524.84 166.3 524.84 164.29 524.84 160.49 524.84 158.49 524.84 154.46 524.84 140.78 524.84 134.98 524.84 115.29 524.84 109.47 524.84 38.13 524.84 13.73 45.82 13.73 45.82 38.13 45.82 109.47 45.82 115.29 45.82 134.98 45.82 140.78 45.82 154.46 45.82 158.49 45.82 160.49 45.82 164.29 45.82 166.3 45.82 184 45.82 189.8 45.82 209.51 45.82 215.32 45.82 235.02 45.82 238.71 45.82 240.82 524.84 240.82 524.84 238.71"/>
          <polygon class="cls-40" points="525.93 238.05 525.93 234.36 525.93 214.66 525.93 208.85 525.93 189.14 525.93 183.34 525.93 165.64 525.93 163.63 525.93 159.84 525.93 157.83 525.93 153.8 525.93 140.13 525.93 134.32 525.93 114.63 525.93 108.81 525.93 37.47 525.93 12.93 46.91 12.93 46.91 37.47 46.91 108.81 46.91 114.63 46.91 134.32 46.91 140.13 46.91 153.8 46.91 157.83 46.91 159.84 46.91 163.63 46.91 165.64 46.91 183.34 46.91 189.14 46.91 208.85 46.91 214.66 46.91 234.36 46.91 238.05 46.91 240.17 525.93 240.17 525.93 238.05"/>
          <polygon class="cls-28" points="527.02 237.39 527.02 233.7 527.02 214 527.02 208.2 527.02 188.49 527.02 182.68 527.02 164.98 527.02 162.97 527.02 159.18 527.02 157.17 527.02 153.15 527.02 139.47 527.02 133.66 527.02 113.97 527.02 108.16 527.02 36.81 527.02 12.14 48 12.14 48 36.81 48 108.16 48 113.97 48 133.66 48 139.47 48 153.15 48 157.17 48 159.18 48 162.97 48 164.98 48 182.68 48 188.49 48 208.2 48 214 48 233.7 48 237.39 48 239.51 527.02 239.51 527.02 237.39"/>
          <polygon class="cls-38" points="528.11 236.74 528.11 233.04 528.11 213.34 528.11 207.54 528.11 187.83 528.11 182.02 528.11 164.33 528.11 162.31 528.11 158.52 528.11 156.51 528.11 152.49 528.11 138.81 528.11 133 528.11 113.31 528.11 107.5 528.11 36.16 528.11 11.35 49.09 11.35 49.09 36.16 49.09 107.5 49.09 113.31 49.09 133 49.09 138.81 49.09 152.49 49.09 156.51 49.09 158.52 49.09 162.31 49.09 164.33 49.09 182.02 49.09 187.83 49.09 207.54 49.09 213.34 49.09 233.04 49.09 236.74 49.09 238.85 528.11 238.85 528.11 236.74"/>
          <polygon class="cls-56" points="529.2 236.08 529.2 232.39 529.2 212.69 529.2 206.88 529.2 187.17 529.2 181.36 529.2 163.67 529.2 161.66 529.2 157.86 529.2 155.86 529.2 151.83 529.2 138.15 529.2 132.35 529.2 112.65 529.2 106.84 529.2 35.5 529.2 10.55 50.18 10.55 50.18 35.5 50.18 106.84 50.18 112.65 50.18 132.35 50.18 138.15 50.18 151.83 50.18 155.86 50.18 157.86 50.18 161.66 50.18 163.67 50.18 181.36 50.18 187.17 50.18 206.88 50.18 212.69 50.18 232.39 50.18 236.08 50.18 238.19 529.2 238.19 529.2 236.08"/>
          <polygon class="cls-9" points="530.3 235.42 530.3 231.73 530.3 212.03 530.3 206.22 530.3 186.51 530.3 180.71 530.3 163.01 530.3 161 530.3 157.2 530.3 155.2 530.3 151.17 530.3 137.5 530.3 131.69 530.3 112 530.3 106.18 530.3 34.84 530.3 9.76 51.27 9.76 51.27 34.84 51.27 106.18 51.27 112 51.27 131.69 51.27 137.5 51.27 151.17 51.27 155.2 51.27 157.2 51.27 161 51.27 163.01 51.27 180.71 51.27 186.51 51.27 206.22 51.27 212.03 51.27 231.73 51.27 235.42 51.27 237.54 530.3 237.54 530.3 235.42"/>
          <polygon class="cls-59" points="531.39 234.76 531.39 231.07 531.39 211.37 531.39 205.56 531.39 185.85 531.39 180.05 531.39 162.35 531.39 160.34 531.39 156.55 531.39 154.54 531.39 150.51 531.39 136.84 531.39 131.03 531.39 111.34 531.39 105.52 531.39 34.18 531.39 8.97 52.37 8.97 52.37 34.18 52.37 105.52 52.37 111.34 52.37 131.03 52.37 136.84 52.37 150.51 52.37 154.54 52.37 156.55 52.37 160.34 52.37 162.35 52.37 180.05 52.37 185.85 52.37 205.56 52.37 211.37 52.37 231.07 52.37 234.76 52.37 236.88 531.39 236.88 531.39 234.76"/>
          <polygon class="cls-23" points="532.48 234.11 532.48 230.41 532.48 210.71 532.48 204.91 532.48 185.2 532.48 179.39 532.48 161.7 532.48 159.68 532.48 155.89 532.48 153.88 532.48 149.86 532.48 136.18 532.48 130.37 532.48 110.68 532.48 104.87 532.48 33.52 532.48 8.18 53.46 8.18 53.46 33.52 53.46 104.87 53.46 110.68 53.46 130.37 53.46 136.18 53.46 149.86 53.46 153.88 53.46 155.89 53.46 159.68 53.46 161.7 53.46 179.39 53.46 185.2 53.46 204.91 53.46 210.71 53.46 230.41 53.46 234.11 53.46 236.22 532.48 236.22 532.48 234.11"/>
          <polygon class="cls-50" points="533.57 233.45 533.57 229.75 533.57 210.05 533.57 204.25 533.57 184.54 533.57 178.73 533.57 161.04 533.57 159.02 533.57 155.23 533.57 153.23 533.57 149.2 533.57 135.52 533.57 129.72 533.57 110.02 533.57 104.21 533.57 32.87 533.57 7.38 54.55 7.38 54.55 32.87 54.55 104.21 54.55 110.02 54.55 129.72 54.55 135.52 54.55 149.2 54.55 153.23 54.55 155.23 54.55 159.02 54.55 161.04 54.55 178.73 54.55 184.54 54.55 204.25 54.55 210.05 54.55 229.75 54.55 233.45 54.55 235.56 533.57 235.56 533.57 233.45"/>
          <polygon class="cls-54" points="534.66 232.79 534.66 229.1 534.66 209.4 534.66 203.59 534.66 183.88 534.66 178.07 534.66 160.38 534.66 158.37 534.66 154.57 534.66 152.57 534.66 148.54 534.66 134.86 534.66 129.06 534.66 109.37 534.66 103.55 534.66 32.21 534.66 6.59 55.64 6.59 55.64 32.21 55.64 103.55 55.64 109.37 55.64 129.06 55.64 134.86 55.64 148.54 55.64 152.57 55.64 154.57 55.64 158.37 55.64 160.38 55.64 178.07 55.64 183.88 55.64 203.59 55.64 209.4 55.64 229.1 55.64 232.79 55.64 234.9 534.66 234.9 534.66 232.79"/>
          <polygon class="cls-45" points="535.75 232.13 535.75 228.44 535.75 208.74 535.75 202.93 535.75 183.22 535.75 177.42 535.75 159.72 535.75 157.71 535.75 153.91 535.75 151.91 535.75 147.88 535.75 134.21 535.75 128.4 535.75 108.71 535.75 102.89 535.75 31.55 535.75 5.8 56.73 5.8 56.73 31.55 56.73 102.89 56.73 108.71 56.73 128.4 56.73 134.21 56.73 147.88 56.73 151.91 56.73 153.91 56.73 157.71 56.73 159.72 56.73 177.42 56.73 183.22 56.73 202.93 56.73 208.74 56.73 228.44 56.73 232.13 56.73 234.25 535.75 234.25 535.75 232.13"/>
          <polygon class="cls-7" points="536.84 231.47 536.84 227.78 536.84 208.08 536.84 202.27 536.84 182.57 536.84 176.76 536.84 159.06 536.84 157.05 536.84 153.26 536.84 151.25 536.84 147.22 536.84 133.55 536.84 127.74 536.84 108.05 536.84 102.23 536.84 30.89 536.84 5.01 57.82 5.01 57.82 30.89 57.82 102.23 57.82 108.05 57.82 127.74 57.82 133.55 57.82 147.22 57.82 151.25 57.82 153.26 57.82 157.05 57.82 159.06 57.82 176.76 57.82 182.57 57.82 202.27 57.82 208.08 57.82 227.78 57.82 231.47 57.82 233.59 536.84 233.59 536.84 231.47"/>
          <polygon class="cls-12" points="537.93 230.82 537.93 227.12 537.93 207.42 537.93 201.62 537.93 181.91 537.93 176.1 537.93 158.41 537.93 156.39 537.93 152.6 537.93 150.59 537.93 146.57 537.93 132.89 537.93 127.08 537.93 107.39 537.93 101.58 537.93 30.24 537.93 4.21 58.91 4.21 58.91 30.24 58.91 101.58 58.91 107.39 58.91 127.08 58.91 132.89 58.91 146.57 58.91 150.59 58.91 152.6 58.91 156.39 58.91 158.41 58.91 176.1 58.91 181.91 58.91 201.62 58.91 207.42 58.91 227.12 58.91 230.82 58.91 232.93 537.93 232.93 537.93 230.82"/>
          <polygon class="cls-19" points="539.02 230.16 539.02 226.47 539.02 206.77 539.02 200.96 539.02 181.25 539.02 175.44 539.02 157.75 539.02 155.73 539.02 151.94 539.02 149.94 539.02 145.91 539.02 132.23 539.02 126.43 539.02 106.73 539.02 100.92 539.02 29.58 539.02 3.42 60 3.42 60 29.58 60 100.92 60 106.73 60 126.43 60 132.23 60 145.91 60 149.94 60 151.94 60 155.73 60 157.75 60 175.44 60 181.25 60 200.96 60 206.77 60 226.47 60 230.16 60 232.27 539.02 232.27 539.02 230.16"/>
          <polygon class="cls-31" points="540.11 229.5 540.11 225.81 540.11 206.11 540.11 200.3 540.11 180.59 540.11 174.79 540.11 157.09 540.11 155.08 540.11 151.28 540.11 149.28 540.11 145.25 540.11 131.57 540.11 125.77 540.11 106.08 540.11 100.26 540.11 28.92 540.11 2.63 61.09 2.63 61.09 28.92 61.09 100.26 61.09 106.08 61.09 125.77 61.09 131.57 61.09 145.25 61.09 149.28 61.09 151.28 61.09 155.08 61.09 157.09 61.09 174.79 61.09 180.59 61.09 200.3 61.09 206.11 61.09 225.81 61.09 229.5 61.09 231.61 540.11 231.61 540.11 229.5"/>
          <polygon class="cls-21" points="541.2 228.84 541.2 225.15 541.2 205.45 541.2 199.64 541.2 179.93 541.2 174.13 541.2 156.43 541.2 154.42 541.2 150.63 541.2 148.62 541.2 144.59 541.2 130.92 541.2 125.11 541.2 105.42 541.2 99.6 541.2 28.26 541.2 1.84 62.18 1.84 62.18 28.26 62.18 99.6 62.18 105.42 62.18 125.11 62.18 130.92 62.18 144.59 62.18 148.62 62.18 150.63 62.18 154.42 62.18 156.43 62.18 174.13 62.18 179.93 62.18 199.64 62.18 205.45 62.18 225.15 62.18 228.84 62.18 230.96 541.2 230.96 541.2 228.84"/>
          <polygon class="cls-57" points="542.3 228.18 542.3 224.49 542.3 204.79 542.3 198.98 542.3 179.28 542.3 173.47 542.3 155.77 542.3 153.76 542.3 149.97 542.3 147.96 542.3 143.94 542.3 130.26 542.3 124.45 542.3 104.76 542.3 98.95 542.3 27.6 542.3 1.04 63.27 1.04 63.27 27.6 63.27 98.95 63.27 104.76 63.27 124.45 63.27 130.26 63.27 143.94 63.27 147.96 63.27 149.97 63.27 153.76 63.27 155.77 63.27 173.47 63.27 179.28 63.27 198.98 63.27 204.79 63.27 224.49 63.27 228.18 63.27 230.3 542.3 230.3 542.3 228.18"/>
        </g>
        <g>
          <g>
            <rect class="cls-36" x="63.27" y="155.77" width="479.02" height="74.52"/>
            <rect class="cls-51" x="63.27" y="149.97" width="479.02" height="74.52"/>
          </g>
          <g>
            <rect class="cls-36" x="63.27" y="130.26" width="479.02" height="74.53"/>
            <rect class="cls-3" x="63.27" y="124.45" width="479.02" height="74.53"/>
          </g>
          <g>
            <rect class="cls-36" x="63.27" y="104.76" width="479.02" height="74.52"/>
            <rect class="cls-49" x="63.27" y="98.95" width="479.02" height="74.52"/>
          </g>
          <g>
            <rect class="cls-36" x="63.27" y="27.6" width="479.02" height="126.16"/>
            <rect class="cls-8" x="63.27" y="1.04" width="479.02" height="142.89"/>
          </g>
          <rect class="cls-36" x="532.71" y="147.96" width="9.59" height="80.22"/>
          <rect class="cls-36" x="63.27" y="147.96" width="9.58" height="80.22"/>
          <rect class="cls-36" x="219.76" y="176.07" width="9.58" height="52.12"/>
          <rect class="cls-36" x="376.23" y="147.96" width="9.58" height="54.16"/>
        </g>
        <polygon class="cls-42" points="542.9 0 62.67 0 62.67 144.98 63.27 144.98 63.27 147.96 63.27 149.97 63.27 153.76 63.27 155.77 63.27 173.47 63.27 179.28 63.27 198.98 63.27 204.79 63.27 224.49 63.27 228.18 63.27 230.3 542.3 230.3 542.3 228.18 542.3 224.49 542.3 204.79 542.3 198.98 542.3 179.28 542.3 173.47 542.3 155.77 542.3 153.76 542.3 149.97 542.3 147.96 542.3 144.98 542.9 144.98 542.9 0"/>
      </g>
    </g>
  </g>
</svg>