<?xml version="1.0" encoding="UTF-8"?>
<svg xmlns="http://www.w3.org/2000/svg" xmlns:xlink="http://www.w3.org/1999/xlink" viewBox="0 0 1073.07 247.96">
  <defs>
    <style>
      .cls-1 {
        fill: #ddd;
      }

      .cls-2 {
        fill: #e9e9e9;
      }

      .cls-3 {
        fill: #f0f0f0;
      }

      .cls-4 {
        fill: url(#linear-gradient-9);
      }

      .cls-4, .cls-5, .cls-6, .cls-7, .cls-8, .cls-9, .cls-10, .cls-11, .cls-12, .cls-13, .cls-14, .cls-15, .cls-16, .cls-17, .cls-18, .cls-19, .cls-20, .cls-21 {
        stroke-linecap: round;
        stroke-linejoin: round;
      }

      .cls-4, .cls-5, .cls-7, .cls-8, .cls-9, .cls-10, .cls-13, .cls-14, .cls-15, .cls-16, .cls-18, .cls-19, .cls-21 {
        stroke: #949494;
        stroke-width: .03px;
      }

      .cls-22 {
        fill: #f4f4f4;
      }

      .cls-23 {
        fill: #fff;
      }

      .cls-5 {
        fill: url(#linear-gradient-10);
      }

      .cls-24 {
        fill: #cbcbcb;
      }

      .cls-25 {
        fill: #d1d1d1;
      }

      .cls-26 {
        fill: #fafafa;
      }

      .cls-27 {
        fill: #dbdbdb;
      }

      .cls-28 {
        fill: url(#linear-gradient-11);
      }

      .cls-28, .cls-29, .cls-30, .cls-31 {
        mix-blend-mode: multiply;
      }

      .cls-29 {
        fill: #ff564a;
      }

      .cls-32 {
        fill: #cacaca;
      }

      .cls-33 {
        fill: #d8d8d8;
      }

      .cls-34 {
        fill: #f6f6f6;
      }

      .cls-35 {
        fill: #e2e2e2;
      }

      .cls-36 {
        fill: #f5f5f5;
      }

      .cls-6 {
        fill: url(#linear-gradient-19);
      }

      .cls-6, .cls-11, .cls-12, .cls-17, .cls-20 {
        stroke: #8f8f8f;
        stroke-width: .03px;
      }

      .cls-37 {
        isolation: isolate;
      }

      .cls-38 {
        fill: #d6d6d6;
      }

      .cls-7 {
        fill: url(#linear-gradient-3);
      }

      .cls-8 {
        fill: url(#linear-gradient-7);
      }

      .cls-39 {
        fill: #c9c9c9;
      }

      .cls-40 {
        fill: #e0e0e0;
      }

      .cls-41 {
        fill: #c7c7c7;
      }

      .cls-42 {
        fill: #dedede;
      }

      .cls-43 {
        fill: #cfcfcf;
      }

      .cls-44 {
        fill: #d7d7d7;
      }

      .cls-45 {
        fill: #e1e1e1;
      }

      .cls-46 {
        fill: #e6e6e6;
      }

      .cls-9 {
        fill: url(#linear-gradient-17);
      }

      .cls-47 {
        fill: #e7e7e7;
      }

      .cls-10 {
        fill: url(#linear-gradient-8);
      }

      .cls-11 {
        fill: url(#linear-gradient-2);
      }

      .cls-12 {
        fill: url(#linear-gradient-14);
      }

      .cls-48 {
        fill: #d4d4d4;
      }

      .cls-49 {
        fill: #dadada;
      }

      .cls-50 {
        fill: #eaeaea;
      }

      .cls-13 {
        fill: url(#linear-gradient-5);
      }

      .cls-51 {
        fill: #c8c8c8;
      }

      .cls-52 {
        fill: #fdfdfd;
      }

      .cls-53 {
        fill: #e4e4e4;
      }

      .cls-14, .cls-17 {
        fill: none;
      }

      .cls-54 {
        fill: #fbfbfb;
      }

      .cls-55 {
        fill: #f9f9f9;
      }

      .cls-15 {
        fill: url(#linear-gradient);
      }

      .cls-56 {
        fill: #e5e5e5;
      }

      .cls-30 {
        fill: url(#linear-gradient-15);
      }

      .cls-16 {
        fill: url(#linear-gradient-18);
      }

      .cls-57 {
        fill: #d3d3d3;
      }

      .cls-58 {
        fill: #ebebeb;
      }

      .cls-59 {
        fill: #d5d5d5;
      }

      .cls-60 {
        fill: #dcdcdc;
      }

      .cls-18 {
        fill: url(#linear-gradient-16);
      }

      .cls-19 {
        fill: url(#linear-gradient-4);
      }

      .cls-61 {
        fill: #e8e8e8;
      }

      .cls-62 {
        fill: #ccc;
      }

      .cls-20 {
        fill: url(#linear-gradient-12);
      }

      .cls-63 {
        fill: #f7f7f7;
      }

      .cls-64 {
        fill: #efefef;
      }

      .cls-21 {
        fill: url(#linear-gradient-6);
      }

      .cls-65 {
        fill: #f1f1f1;
      }

      .cls-66 {
        fill: #cecece;
      }

      .cls-67 {
        fill: #f3f3f3;
      }

      .cls-68 {
        fill: #d9d9d9;
      }

      .cls-69 {
        fill: #cdcdcd;
      }

      .cls-70 {
        fill: #f8f8f8;
      }

      .cls-71 {
        fill: #d2d2d2;
      }

      .cls-72 {
        fill: #c6c6c6;
      }

      .cls-73 {
        fill: #eee;
      }

      .cls-74 {
        fill: #d0d0d0;
      }

      .cls-75 {
        fill: #ececec;
      }

      .cls-76 {
        fill: #f2f2f2;
      }

      .cls-77 {
        fill: #fefefe;
      }

      .cls-78 {
        fill: url(#linear-gradient-13);
      }

      .cls-79 {
        fill: #e3e3e3;
      }

      .cls-80 {
        fill: #fcfcfc;
      }

      .cls-81 {
        fill: #ededed;
      }

      .cls-82 {
        fill: #dfdfdf;
      }
    </style>
    <linearGradient id="linear-gradient" x1="1031.81" y1="812.56" x2="1184.14" y2="812.56" gradientTransform="translate(1312.86 960.63) rotate(-180)" gradientUnits="userSpaceOnUse">
      <stop offset="0" stop-color="#fff"/>
      <stop offset=".13" stop-color="#e3e3e2"/>
      <stop offset=".89" stop-color="#d1d1d0"/>
      <stop offset="1" stop-color="#878787"/>
    </linearGradient>
    <linearGradient id="linear-gradient-2" x1="1184.74" y1="838.02" x2="1240.87" y2="838.02" gradientTransform="translate(1312.86 960.63) rotate(-180)" gradientUnits="userSpaceOnUse">
      <stop offset="0" stop-color="#fff"/>
      <stop offset=".25" stop-color="#e3e3e2"/>
      <stop offset=".79" stop-color="#d2d2d1"/>
      <stop offset="1" stop-color="#828282"/>
    </linearGradient>
    <linearGradient id="linear-gradient-3" x1="1031.81" y1="912.13" x2="1184.14" y2="912.13" gradientTransform="translate(1312.86 960.63) rotate(-180)" gradientUnits="userSpaceOnUse">
      <stop offset="0" stop-color="#858585"/>
      <stop offset=".11" stop-color="#d1d1d0"/>
      <stop offset=".91" stop-color="#b0b0ae"/>
      <stop offset="1" stop-color="#7a7a7a"/>
    </linearGradient>
    <linearGradient id="linear-gradient-4" y1="945" y2="945" xlink:href="#linear-gradient"/>
    <linearGradient id="linear-gradient-5" x1="879.8" x2="1032.14" xlink:href="#linear-gradient"/>
    <linearGradient id="linear-gradient-6" x1="879.8" x2="1032.14" xlink:href="#linear-gradient-3"/>
    <linearGradient id="linear-gradient-7" x1="879.8" y1="945" x2="1032.14" y2="945" xlink:href="#linear-gradient"/>
    <linearGradient id="linear-gradient-8" x1="727.8" y1="812.56" x2="880.13" y2="812.56" gradientTransform="translate(1312.86 960.63) rotate(-180)" gradientUnits="userSpaceOnUse">
      <stop offset="0" stop-color="#9e9e9e"/>
      <stop offset=".13" stop-color="#c2c2c1"/>
      <stop offset=".22" stop-color="#cccccb"/>
      <stop offset=".89" stop-color="#e6e6e2"/>
      <stop offset="1" stop-color="#878787"/>
    </linearGradient>
    <linearGradient id="linear-gradient-9" x1="727.8" y1="912.13" x2="880.13" y2="912.13" gradientTransform="translate(1312.86 960.63) rotate(-180)" gradientUnits="userSpaceOnUse">
      <stop offset="0" stop-color="#858585"/>
      <stop offset=".11" stop-color="#b3b3b2"/>
      <stop offset=".91" stop-color="#babab9"/>
      <stop offset="1" stop-color="#7a7a7a"/>
    </linearGradient>
    <linearGradient id="linear-gradient-10" x1="727.8" y1="945" x2="880.13" y2="945" xlink:href="#linear-gradient"/>
    <linearGradient id="linear-gradient-11" x1="1212.81" y1="731.04" x2="1212.81" y2="945" gradientTransform="translate(1312.86 960.63) rotate(-180)" gradientUnits="userSpaceOnUse">
      <stop offset="0" stop-color="#fff"/>
      <stop offset=".69" stop-color="#fffffe"/>
      <stop offset=".8" stop-color="#f6f6f5"/>
      <stop offset=".97" stop-color="#dddddc"/>
      <stop offset="1" stop-color="#d9d9d8"/>
    </linearGradient>
    <linearGradient id="linear-gradient-12" x1="671.66" x2="727.8" xlink:href="#linear-gradient-2"/>
    <linearGradient id="linear-gradient-13" x1="299.01" y1="92.02" x2="166.62" y2="92.02" gradientUnits="userSpaceOnUse">
      <stop offset="0" stop-color="#fff"/>
      <stop offset="1" stop-color="#c9c9c9"/>
    </linearGradient>
    <linearGradient id="linear-gradient-14" x1="449.1" x2="505.24" xlink:href="#linear-gradient-2"/>
    <linearGradient id="linear-gradient-15" x1="477.17" x2="477.17" y2="945" xlink:href="#linear-gradient-11"/>
    <linearGradient id="linear-gradient-16" x1="296.77" x2="449.1" xlink:href="#linear-gradient-8"/>
    <linearGradient id="linear-gradient-17" x1="296.77" x2="449.1" xlink:href="#linear-gradient-9"/>
    <linearGradient id="linear-gradient-18" x1="296.77" y1="945" x2="449.1" y2="945" xlink:href="#linear-gradient"/>
    <linearGradient id="linear-gradient-19" x1="240.64" x2="296.77" xlink:href="#linear-gradient-2"/>
  </defs>
  <g class="cls-37">
    <g id="Layer_1" data-name="Layer 1">
      <g>
        <g class="cls-31">
          <polygon class="cls-23" points="56.73 247.96 208.73 247.96 209.06 247.96 360.74 247.96 361.07 247.96 513.07 247.96 513.07 247.96 569.2 247.96 569.2 34 513.07 34 513.07 19.17 361.07 19.17 360.74 19.17 209.06 19.17 208.73 19.17 56.73 19.17 56.13 34 0 34 0 247.96 56.13 247.96 56.73 247.96"/>
          <polygon class="cls-77" points="57.98 247.64 209.97 247.64 210.31 247.64 361.98 247.64 362.31 247.64 514.32 247.64 514.32 247.64 570.45 247.64 570.45 33.68 514.32 33.68 514.32 18.85 362.31 18.85 361.98 18.85 210.31 18.85 209.97 18.85 57.98 18.85 57.38 33.68 1.24 33.68 1.24 247.64 57.38 247.64 57.98 247.64"/>
          <polygon class="cls-52" points="59.22 247.33 211.22 247.33 211.55 247.33 363.22 247.33 363.55 247.33 515.56 247.33 515.56 247.33 571.69 247.33 571.69 33.36 515.56 33.36 515.56 18.54 363.55 18.54 363.22 18.54 211.55 18.54 211.22 18.54 59.22 18.54 58.62 33.36 2.49 33.36 2.49 247.33 58.62 247.33 59.22 247.33"/>
          <polygon class="cls-80" points="60.46 247.01 212.46 247.01 212.8 247.01 364.47 247.01 364.8 247.01 516.8 247.01 516.8 247.01 572.94 247.01 572.94 33.05 516.8 33.05 516.8 18.22 364.8 18.22 364.47 18.22 212.8 18.22 212.46 18.22 60.46 18.22 59.87 33.05 3.73 33.05 3.73 247.01 59.87 247.01 60.46 247.01"/>
          <polygon class="cls-54" points="61.71 246.69 213.71 246.69 214.04 246.69 365.71 246.69 366.04 246.69 518.05 246.69 518.05 246.69 574.18 246.69 574.18 32.73 518.05 32.73 518.05 17.9 366.04 17.9 365.71 17.9 214.04 17.9 213.71 17.9 61.71 17.9 61.11 32.73 4.98 32.73 4.98 246.69 61.11 246.69 61.71 246.69"/>
          <polygon class="cls-26" points="62.95 246.38 214.95 246.38 215.29 246.38 366.96 246.38 367.29 246.38 519.29 246.38 519.29 246.38 575.43 246.38 575.43 32.41 519.29 32.41 519.29 17.59 367.29 17.59 366.96 17.59 215.29 17.59 214.95 17.59 62.95 17.59 62.35 32.41 6.22 32.41 6.22 246.38 62.35 246.38 62.95 246.38"/>
          <polygon class="cls-55" points="64.2 246.06 216.2 246.06 216.53 246.06 368.2 246.06 368.53 246.06 520.54 246.06 520.54 246.06 576.67 246.06 576.67 32.09 520.54 32.09 520.54 17.27 368.53 17.27 368.2 17.27 216.53 17.27 216.2 17.27 64.2 17.27 63.6 32.09 7.47 32.09 7.47 246.06 63.6 246.06 64.2 246.06"/>
          <polygon class="cls-70" points="65.44 245.74 217.44 245.74 217.77 245.74 369.45 245.74 369.77 245.74 521.78 245.74 521.78 245.74 577.91 245.74 577.91 31.78 521.78 31.78 521.78 16.95 369.78 16.95 369.45 16.95 217.77 16.95 217.44 16.95 65.44 16.95 64.84 31.78 8.71 31.78 8.71 245.74 64.84 245.74 65.44 245.74"/>
          <polygon class="cls-63" points="66.68 245.43 218.68 245.43 219.02 245.43 370.69 245.43 371.02 245.43 523.02 245.43 523.02 245.43 579.16 245.43 579.16 31.46 523.02 31.46 523.02 16.64 371.02 16.64 370.69 16.64 219.02 16.64 218.68 16.64 66.68 16.64 66.09 31.46 9.95 31.46 9.95 245.43 66.09 245.43 66.68 245.43"/>
          <polygon class="cls-34" points="67.93 245.11 219.93 245.11 220.26 245.11 371.93 245.11 372.26 245.11 524.27 245.11 524.27 245.11 580.4 245.11 580.4 31.14 524.27 31.14 524.27 16.32 372.26 16.32 371.93 16.32 220.26 16.32 219.93 16.32 67.93 16.32 67.33 31.14 11.2 31.14 11.2 245.11 67.33 245.11 67.93 245.11"/>
          <polygon class="cls-36" points="69.17 244.79 221.17 244.79 221.51 244.79 373.18 244.79 373.51 244.79 525.51 244.79 525.51 244.79 581.65 244.79 581.65 30.83 525.51 30.83 525.51 16.01 373.51 16.01 373.18 16.01 221.51 16.01 221.17 16.01 69.17 16.01 68.58 30.83 12.44 30.83 12.44 244.79 68.58 244.79 69.17 244.79"/>
          <polygon class="cls-22" points="70.42 244.48 222.42 244.48 222.75 244.48 374.42 244.48 374.75 244.48 526.76 244.48 526.76 244.48 582.89 244.48 582.89 30.51 526.76 30.51 526.76 15.69 374.75 15.69 374.42 15.69 222.75 15.69 222.42 15.69 70.42 15.69 69.82 30.51 13.69 30.51 13.69 244.48 69.82 244.48 70.42 244.48"/>
          <polygon class="cls-67" points="71.66 244.16 223.66 244.16 224 244.16 375.67 244.16 376 244.16 528 244.16 528 244.16 584.14 244.16 584.14 30.19 528 30.19 528 15.37 376 15.37 375.67 15.37 224 15.37 223.66 15.37 71.66 15.37 71.06 30.19 14.93 30.19 14.93 244.16 71.06 244.16 71.66 244.16"/>
          <polygon class="cls-76" points="72.91 243.84 224.91 243.84 225.24 243.84 376.91 243.84 377.24 243.84 529.25 243.84 529.25 243.84 585.38 243.84 585.38 29.88 529.25 29.88 529.25 15.06 377.24 15.06 376.91 15.06 225.24 15.06 224.91 15.06 72.91 15.06 72.31 29.88 16.18 29.88 16.18 243.84 72.31 243.84 72.91 243.84"/>
          <polygon class="cls-65" points="74.15 243.53 226.15 243.53 226.48 243.53 378.16 243.53 378.48 243.53 530.49 243.53 530.49 243.53 586.62 243.53 586.62 29.56 530.49 29.56 530.49 14.74 378.49 14.74 378.16 14.74 226.48 14.74 226.15 14.74 74.15 14.74 73.55 29.56 17.42 29.56 17.42 243.53 73.55 243.53 74.15 243.53"/>
          <polygon class="cls-3" points="75.39 243.21 227.39 243.21 227.73 243.21 379.4 243.21 379.73 243.21 531.73 243.21 531.73 243.21 587.87 243.21 587.87 29.24 531.73 29.24 531.73 14.42 379.73 14.42 379.4 14.42 227.73 14.42 227.39 14.42 75.39 14.42 74.8 29.24 18.66 29.24 18.66 243.21 74.8 243.21 75.39 243.21"/>
          <polygon class="cls-64" points="76.64 242.89 228.64 242.89 228.97 242.89 380.64 242.89 380.97 242.89 532.98 242.89 532.98 242.89 589.11 242.89 589.11 28.93 532.98 28.93 532.98 14.11 380.97 14.11 380.64 14.11 228.97 14.11 228.64 14.11 76.64 14.11 76.04 28.93 19.91 28.93 19.91 242.89 76.04 242.89 76.64 242.89"/>
          <polygon class="cls-73" points="77.88 242.58 229.88 242.58 230.22 242.58 381.89 242.58 382.22 242.58 534.22 242.58 534.22 242.58 590.36 242.58 590.36 28.61 534.22 28.61 534.22 13.79 382.22 13.79 381.89 13.79 230.22 13.79 229.88 13.79 77.88 13.79 77.28 28.61 21.15 28.61 21.15 242.58 77.28 242.58 77.88 242.58"/>
          <polygon class="cls-81" points="79.13 242.26 231.13 242.26 231.46 242.26 383.13 242.26 383.46 242.26 535.47 242.26 535.47 242.26 591.6 242.26 591.6 28.29 535.47 28.29 535.47 13.47 383.46 13.47 383.13 13.47 231.46 13.47 231.13 13.47 79.13 13.47 78.53 28.29 22.4 28.29 22.4 242.26 78.53 242.26 79.13 242.26"/>
          <polygon class="cls-75" points="80.37 241.94 232.37 241.94 232.71 241.94 384.38 241.94 384.71 241.94 536.71 241.94 536.71 241.94 592.84 241.94 592.84 27.98 536.71 27.98 536.71 13.16 384.71 13.16 384.38 13.16 232.71 13.16 232.37 13.16 80.37 13.16 79.77 27.98 23.64 27.98 23.64 241.94 79.77 241.94 80.37 241.94"/>
          <polygon class="cls-58" points="81.62 241.63 233.62 241.63 233.95 241.63 385.62 241.63 385.95 241.63 537.96 241.63 537.96 241.63 594.09 241.63 594.09 27.66 537.96 27.66 537.96 12.84 385.95 12.84 385.62 12.84 233.95 12.84 233.62 12.84 81.62 12.84 81.02 27.66 24.88 27.66 24.88 241.63 81.02 241.63 81.62 241.63"/>
          <polygon class="cls-50" points="82.86 241.31 234.86 241.31 235.19 241.31 386.87 241.31 387.19 241.31 539.2 241.31 539.2 241.31 595.33 241.31 595.33 27.34 539.2 27.34 539.2 12.52 387.2 12.52 386.87 12.52 235.19 12.52 234.86 12.52 82.86 12.52 82.26 27.34 26.13 27.34 26.13 241.31 82.26 241.31 82.86 241.31"/>
          <polygon class="cls-2" points="84.1 240.99 236.1 240.99 236.44 240.99 388.11 240.99 388.44 240.99 540.44 240.99 540.44 240.99 596.58 240.99 596.58 27.03 540.44 27.03 540.44 12.21 388.44 12.21 388.11 12.21 236.44 12.21 236.1 12.21 84.1 12.21 83.51 27.03 27.37 27.03 27.37 240.99 83.51 240.99 84.1 240.99"/>
          <polygon class="cls-61" points="85.35 240.68 237.35 240.68 237.68 240.68 389.35 240.68 389.68 240.68 541.69 240.68 541.69 240.68 597.82 240.68 597.82 26.71 541.69 26.71 541.69 11.89 389.69 11.89 389.35 11.89 237.68 11.89 237.35 11.89 85.35 11.89 84.75 26.71 28.62 26.71 28.62 240.68 84.75 240.68 85.35 240.68"/>
          <polygon class="cls-47" points="86.59 240.36 238.59 240.36 238.93 240.36 390.6 240.36 390.93 240.36 542.93 240.36 542.93 240.36 599.07 240.36 599.07 26.39 542.93 26.39 542.93 11.57 390.93 11.57 390.6 11.57 238.93 11.57 238.59 11.57 86.59 11.57 85.99 26.39 29.86 26.39 29.86 240.36 85.99 240.36 86.59 240.36"/>
          <polygon class="cls-46" points="87.84 240.04 239.84 240.04 240.17 240.04 391.84 240.04 392.17 240.04 544.18 240.04 544.18 240.04 600.31 240.04 600.31 26.08 544.18 26.08 544.18 11.26 392.17 11.26 391.84 11.26 240.17 11.26 239.84 11.26 87.84 11.26 87.24 26.08 31.11 26.08 31.11 240.04 87.24 240.04 87.84 240.04"/>
          <polygon class="cls-56" points="89.08 239.73 241.08 239.73 241.42 239.73 393.09 239.73 393.42 239.73 545.42 239.73 545.42 239.73 601.55 239.73 601.55 25.76 545.42 25.76 545.42 10.94 393.42 10.94 393.09 10.94 241.42 10.94 241.08 10.94 89.08 10.94 88.48 25.76 32.35 25.76 32.35 239.73 88.48 239.73 89.08 239.73"/>
          <polygon class="cls-53" points="90.33 239.41 242.32 239.41 242.66 239.41 394.33 239.41 394.66 239.41 546.67 239.41 546.67 239.41 602.8 239.41 602.8 25.44 546.67 25.44 546.67 10.62 394.66 10.62 394.33 10.62 242.66 10.62 242.32 10.62 90.33 10.62 89.73 25.44 33.59 25.44 33.59 239.41 89.73 239.41 90.33 239.41"/>
          <polygon class="cls-79" points="91.57 239.09 243.57 239.09 243.9 239.09 395.57 239.09 395.9 239.09 547.91 239.09 547.91 239.09 604.04 239.09 604.04 25.13 547.91 25.13 547.91 10.31 395.91 10.31 395.57 10.31 243.9 10.31 243.57 10.31 91.57 10.31 90.97 25.13 34.84 25.13 34.84 239.09 90.97 239.09 91.57 239.09"/>
          <polygon class="cls-35" points="92.81 238.78 244.81 238.78 245.15 238.78 396.82 238.78 397.15 238.78 549.15 238.78 549.15 238.78 605.29 238.78 605.29 24.81 549.15 24.81 549.15 9.99 397.15 9.99 396.82 9.99 245.15 9.99 244.81 9.99 92.81 9.99 92.22 24.81 36.08 24.81 36.08 238.78 92.22 238.78 92.81 238.78"/>
          <polygon class="cls-35" points="94.06 238.46 246.06 238.46 246.39 238.46 398.06 238.46 398.39 238.46 550.4 238.46 550.4 238.46 606.53 238.46 606.53 24.49 550.4 24.49 550.4 9.67 398.4 9.67 398.06 9.67 246.39 9.67 246.06 9.67 94.06 9.67 93.46 24.49 37.33 24.49 37.33 238.46 93.46 238.46 94.06 238.46"/>
          <polygon class="cls-45" points="95.3 238.14 247.3 238.14 247.64 238.14 399.31 238.14 399.64 238.14 551.64 238.14 551.64 238.14 607.78 238.14 607.78 24.18 551.64 24.18 551.64 9.36 399.64 9.36 399.31 9.36 247.64 9.36 247.3 9.36 95.3 9.36 94.7 24.18 38.57 24.18 38.57 238.14 94.7 238.14 95.3 238.14"/>
          <polygon class="cls-40" points="96.55 237.83 248.55 237.83 248.88 237.83 400.55 237.83 400.88 237.83 552.89 237.83 552.89 237.83 609.02 237.83 609.02 23.86 552.89 23.86 552.89 9.04 400.88 9.04 400.55 9.04 248.88 9.04 248.55 9.04 96.55 9.04 95.95 23.86 39.82 23.86 39.82 237.83 95.95 237.83 96.55 237.83"/>
          <polygon class="cls-82" points="97.79 237.51 249.79 237.51 250.12 237.51 401.8 237.51 402.13 237.51 554.13 237.51 554.13 237.51 610.26 237.51 610.26 23.54 554.13 23.54 554.13 8.72 402.13 8.72 401.8 8.72 250.12 8.72 249.79 8.72 97.79 8.72 97.19 23.54 41.06 23.54 41.06 237.51 97.19 237.51 97.79 237.51"/>
          <polygon class="cls-42" points="99.03 237.19 251.03 237.19 251.37 237.19 403.04 237.19 403.37 237.19 555.37 237.19 555.37 237.19 611.51 237.19 611.51 23.23 555.37 23.23 555.37 8.41 403.37 8.41 403.04 8.41 251.37 8.41 251.03 8.41 99.03 8.41 98.44 23.23 42.3 23.23 42.3 237.19 98.44 237.19 99.03 237.19"/>
          <polygon class="cls-1" points="100.28 236.88 252.28 236.88 252.61 236.88 404.28 236.88 404.61 236.88 556.62 236.88 556.62 236.88 612.75 236.88 612.75 22.91 556.62 22.91 556.62 8.09 404.62 8.09 404.28 8.09 252.61 8.09 252.28 8.09 100.28 8.09 99.68 22.91 43.55 22.91 43.55 236.88 99.68 236.88 100.28 236.88"/>
          <polygon class="cls-60" points="101.52 236.56 253.52 236.56 253.86 236.56 405.53 236.56 405.86 236.56 557.86 236.56 557.86 236.56 614 236.56 614 22.59 557.86 22.59 557.86 7.77 405.86 7.77 405.53 7.77 253.86 7.77 253.52 7.77 101.52 7.77 100.93 22.59 44.79 22.59 44.79 236.56 100.93 236.56 101.52 236.56"/>
          <polygon class="cls-27" points="102.77 236.24 254.77 236.24 255.1 236.24 406.77 236.24 407.1 236.24 559.11 236.24 559.11 236.24 615.24 236.24 615.24 22.28 559.11 22.28 559.11 7.46 407.11 7.46 406.77 7.46 255.1 7.46 254.77 7.46 102.77 7.46 102.17 22.28 46.04 22.28 46.04 236.24 102.17 236.24 102.77 236.24"/>
          <polygon class="cls-49" points="104.01 235.93 256.01 235.93 256.35 235.93 408.02 235.93 408.35 235.93 560.35 235.93 560.35 235.93 616.49 235.93 616.49 21.96 560.35 21.96 560.35 7.14 408.35 7.14 408.02 7.14 256.35 7.14 256.01 7.14 104.01 7.14 103.41 21.96 47.28 21.96 47.28 235.93 103.41 235.93 104.01 235.93"/>
          <polygon class="cls-68" points="105.26 235.61 257.26 235.61 257.59 235.61 409.26 235.61 409.59 235.61 561.6 235.61 561.6 235.61 617.73 235.61 617.73 21.64 561.6 21.64 561.6 6.82 409.59 6.82 409.26 6.82 257.59 6.82 257.26 6.82 105.26 6.82 104.66 21.64 48.53 21.64 48.53 235.61 104.66 235.61 105.26 235.61"/>
          <polygon class="cls-33" points="106.5 235.29 258.5 235.29 258.83 235.29 410.51 235.29 410.83 235.29 562.84 235.29 562.84 235.29 618.97 235.29 618.97 21.33 562.84 21.33 562.84 6.51 410.84 6.51 410.51 6.51 258.83 6.51 258.5 6.51 106.5 6.51 105.9 21.33 49.77 21.33 49.77 235.29 105.9 235.29 106.5 235.29"/>
          <polygon class="cls-44" points="107.74 234.98 259.74 234.98 260.08 234.98 411.75 234.98 412.08 234.98 564.08 234.98 564.08 234.98 620.22 234.98 620.22 21.01 564.08 21.01 564.08 6.19 412.08 6.19 411.75 6.19 260.08 6.19 259.74 6.19 107.74 6.19 107.15 21.01 51.01 21.01 51.01 234.98 107.15 234.98 107.74 234.98"/>
          <polygon class="cls-38" points="108.99 234.66 260.99 234.66 261.32 234.66 412.99 234.66 413.32 234.66 565.33 234.66 565.33 234.66 621.46 234.66 621.46 20.69 565.33 20.69 565.33 5.87 413.33 5.87 412.99 5.87 261.32 5.87 260.99 5.87 108.99 5.87 108.39 20.69 52.26 20.69 52.26 234.66 108.39 234.66 108.99 234.66"/>
          <polygon class="cls-59" points="110.23 234.34 262.23 234.34 262.57 234.34 414.24 234.34 414.57 234.34 566.57 234.34 566.57 234.34 622.71 234.34 622.71 20.38 566.57 20.38 566.57 5.56 414.57 5.56 414.24 5.56 262.57 5.56 262.23 5.56 110.23 5.56 109.64 20.38 53.5 20.38 53.5 234.34 109.64 234.34 110.23 234.34"/>
          <polygon class="cls-48" points="111.48 234.03 263.48 234.03 263.81 234.03 415.48 234.03 415.81 234.03 567.82 234.03 567.82 234.03 623.95 234.03 623.95 20.06 567.82 20.06 567.82 5.24 415.82 5.24 415.48 5.24 263.81 5.24 263.48 5.24 111.48 5.24 110.88 20.06 54.75 20.06 54.75 234.03 110.88 234.03 111.48 234.03"/>
          <polygon class="cls-57" points="112.72 233.71 264.72 233.71 265.06 233.71 416.73 233.71 417.06 233.71 569.06 233.71 569.06 233.71 625.2 233.71 625.2 19.74 569.06 19.74 569.06 4.93 417.06 4.93 416.73 4.93 265.06 4.93 264.72 4.93 112.72 4.93 112.12 19.74 55.99 19.74 55.99 233.71 112.12 233.71 112.72 233.71"/>
          <polygon class="cls-71" points="113.97 233.39 265.97 233.39 266.3 233.39 417.97 233.39 418.3 233.39 570.31 233.39 570.31 233.39 626.44 233.39 626.44 19.43 570.31 19.43 570.31 4.61 418.3 4.61 417.97 4.61 266.3 4.61 265.97 4.61 113.97 4.61 113.37 19.43 57.23 19.43 57.23 233.39 113.37 233.39 113.97 233.39"/>
          <polygon class="cls-25" points="115.21 233.08 267.21 233.08 267.54 233.08 419.22 233.08 419.54 233.08 571.55 233.08 571.55 233.08 627.68 233.08 627.68 19.11 571.55 19.11 571.55 4.29 419.55 4.29 419.22 4.29 267.54 4.29 267.21 4.29 115.21 4.29 114.61 19.11 58.48 19.11 58.48 233.08 114.61 233.08 115.21 233.08"/>
          <polygon class="cls-74" points="116.45 232.76 268.45 232.76 268.79 232.76 420.46 232.76 420.79 232.76 572.79 232.76 572.79 232.76 628.93 232.76 628.93 18.79 572.79 18.79 572.79 3.98 420.79 3.98 420.46 3.98 268.79 3.98 268.45 3.98 116.45 3.98 115.86 18.79 59.72 18.79 59.72 232.76 115.86 232.76 116.45 232.76"/>
          <polygon class="cls-43" points="117.7 232.44 269.7 232.44 270.03 232.44 421.7 232.44 422.03 232.44 574.04 232.44 574.04 232.44 630.17 232.44 630.17 18.48 574.04 18.48 574.04 3.66 422.04 3.66 421.7 3.66 270.03 3.66 269.7 3.66 117.7 3.66 117.1 18.48 60.97 18.48 60.97 232.44 117.1 232.44 117.7 232.44"/>
          <polygon class="cls-66" points="118.94 232.13 270.94 232.13 271.28 232.13 422.95 232.13 423.28 232.13 575.28 232.13 575.28 232.13 631.42 232.13 631.42 18.16 575.28 18.16 575.28 3.34 423.28 3.34 422.95 3.34 271.28 3.34 270.94 3.34 118.94 3.34 118.34 18.16 62.21 18.16 62.21 232.13 118.34 232.13 118.94 232.13"/>
          <polygon class="cls-69" points="120.19 231.81 272.19 231.81 272.52 231.81 424.19 231.81 424.52 231.81 576.53 231.81 576.53 231.81 632.66 231.81 632.66 17.84 576.53 17.84 576.53 3.03 424.53 3.03 424.19 3.03 272.52 3.03 272.19 3.03 120.19 3.03 119.59 17.84 63.46 17.84 63.46 231.81 119.59 231.81 120.19 231.81"/>
          <polygon class="cls-62" points="121.43 231.49 273.43 231.49 273.77 231.49 425.44 231.49 425.77 231.49 577.77 231.49 577.77 231.49 633.9 231.49 633.9 17.53 577.77 17.53 577.77 2.71 425.77 2.71 425.44 2.71 273.77 2.71 273.43 2.71 121.43 2.71 120.83 17.53 64.7 17.53 64.7 231.49 120.83 231.49 121.43 231.49"/>
          <polygon class="cls-24" points="122.68 231.18 274.68 231.18 275.01 231.18 426.68 231.18 427.01 231.18 579.02 231.18 579.02 231.18 635.15 231.18 635.15 17.21 579.02 17.21 579.02 2.39 427.02 2.39 426.68 2.39 275.01 2.39 274.68 2.39 122.68 2.39 122.08 17.21 65.94 17.21 65.94 231.18 122.08 231.18 122.68 231.18"/>
          <polygon class="cls-32" points="123.92 230.86 275.92 230.86 276.25 230.86 427.93 230.86 428.25 230.86 580.26 230.86 580.26 230.86 636.39 230.86 636.39 16.89 580.26 16.89 580.26 2.08 428.26 2.08 427.93 2.08 276.25 2.08 275.92 2.08 123.92 2.08 123.32 16.89 67.19 16.89 67.19 230.86 123.32 230.86 123.92 230.86"/>
          <polygon class="cls-39" points="125.16 230.54 277.16 230.54 277.5 230.54 429.17 230.54 429.5 230.54 581.5 230.54 581.5 230.54 637.64 230.54 637.64 16.58 581.5 16.58 581.5 1.76 429.5 1.76 429.17 1.76 277.5 1.76 277.16 1.76 125.16 1.76 124.57 16.58 68.43 16.58 68.43 230.54 124.57 230.54 125.16 230.54"/>
          <polygon class="cls-51" points="126.41 230.23 278.41 230.23 278.74 230.23 430.41 230.23 430.74 230.23 582.75 230.23 582.75 230.23 638.88 230.23 638.88 16.26 582.75 16.26 582.75 1.44 430.75 1.44 430.41 1.44 278.74 1.44 278.41 1.44 126.41 1.44 125.81 16.26 69.68 16.26 69.68 230.23 125.81 230.23 126.41 230.23"/>
          <polygon class="cls-41" points="127.65 229.91 279.65 229.91 279.99 229.91 431.66 229.91 431.99 229.91 583.99 229.91 583.99 229.91 640.13 229.91 640.13 15.94 583.99 15.94 583.99 1.13 431.99 1.13 431.66 1.13 279.99 1.13 279.65 1.13 127.65 1.13 127.05 15.94 70.92 15.94 70.92 229.91 127.05 229.91 127.65 229.91"/>
          <polygon class="cls-72" points="128.9 229.59 280.9 229.59 281.23 229.59 432.9 229.59 433.23 229.59 585.24 229.59 585.24 229.59 641.37 229.59 641.37 15.63 585.24 15.63 585.24 .81 433.24 .81 432.9 .81 281.23 .81 280.9 .81 128.9 .81 128.3 15.63 72.17 15.63 72.17 229.59 128.3 229.59 128.9 229.59"/>
        </g>
        <g>
          <rect class="cls-15" x="128.72" y="66.56" width="152.33" height="163.04"/>
          <rect class="cls-11" x="71.99" y="15.63" width="56.13" height="213.97"/>
          <rect class="cls-7" x="128.72" y="30.45" width="152.33" height="36.11"/>
          <rect class="cls-19" x="128.72" y=".81" width="152.33" height="29.64"/>
          <rect class="cls-13" x="280.72" y="66.56" width="152.33" height="163.04"/>
          <rect class="cls-21" x="280.72" y="30.45" width="152.33" height="36.11"/>
          <rect class="cls-8" x="280.72" y=".81" width="152.33" height="29.64"/>
          <rect class="cls-10" x="432.73" y="66.56" width="152.33" height="163.04"/>
          <rect class="cls-4" x="432.73" y="30.45" width="152.33" height="36.11"/>
          <rect class="cls-5" x="432.73" y=".81" width="152.33" height="29.64"/>
          <rect class="cls-28" x="71.99" y="15.63" width="56.13" height="213.97"/>
          <rect class="cls-20" x="585.06" y="15.63" width="56.13" height="213.97"/>
          <rect class="cls-17" x="71.99" y="15.63" width="56.13" height="213.97"/>
        </g>
        <path class="cls-29" d="m641.2,14.72h-55.38V.81c0-.45-.33-.81-.75-.81H128.72c-.42,0-.75.36-.75.81v13.91h-55.97c-.47,0-.85.4-.85.9v213.97c0,.5.38.91.85.91h56.13c.16,0,.28-.1.41-.18.07.02.11.08.19.08h456.12c.08.02.14.1.22.1h56.13c.47,0,.84-.4.84-.91V15.63c0-.5-.38-.9-.84-.9Z"/>
        <g class="cls-31">
          <path class="cls-23" d="m153.74,113.29c0,9.45,7.99,17.12,17.85,17.12h96.71c9.86,0,17.85-7.67,17.85-17.12v-29.11c0-9.46-7.99-17.12-17.85-17.12h-96.71c-9.86,0-17.85,7.66-17.85,17.12v29.11Z"/>
          <path class="cls-77" d="m154.08,113.13c0,9.45,7.99,17.12,17.85,17.12h96.71c9.86,0,17.85-7.67,17.85-17.12v-29.11c0-9.46-7.99-17.12-17.85-17.12h-96.71c-9.86,0-17.85,7.66-17.85,17.12v29.11Z"/>
          <path class="cls-52" d="m154.42,112.97c0,9.45,7.99,17.12,17.85,17.12h96.71c9.86,0,17.85-7.67,17.85-17.12v-29.11c0-9.46-7.99-17.12-17.85-17.12h-96.71c-9.86,0-17.85,7.66-17.85,17.12v29.11Z"/>
          <path class="cls-80" d="m154.75,112.81c0,9.45,7.99,17.12,17.85,17.12h96.71c9.86,0,17.85-7.67,17.85-17.12v-29.11c0-9.46-7.99-17.12-17.85-17.12h-96.71c-9.86,0-17.85,7.66-17.85,17.12v29.11Z"/>
          <path class="cls-54" d="m155.09,112.64c0,9.45,7.99,17.12,17.85,17.12h96.71c9.86,0,17.85-7.67,17.85-17.12v-29.11c0-9.46-7.99-17.12-17.85-17.12h-96.71c-9.86,0-17.85,7.66-17.85,17.12v29.11Z"/>
          <path class="cls-26" d="m155.43,112.48c0,9.45,7.99,17.12,17.85,17.12h96.71c9.86,0,17.85-7.67,17.85-17.12v-29.11c0-9.46-7.99-17.12-17.85-17.12h-96.71c-9.86,0-17.85,7.66-17.85,17.12v29.11Z"/>
          <path class="cls-55" d="m155.77,112.32c0,9.45,7.99,17.12,17.85,17.12h96.71c9.86,0,17.85-7.67,17.85-17.12v-29.11c0-9.46-7.99-17.12-17.85-17.12h-96.71c-9.86,0-17.85,7.66-17.85,17.12v29.11Z"/>
          <path class="cls-70" d="m156.11,112.16c0,9.45,7.99,17.12,17.85,17.12h96.71c9.86,0,17.85-7.67,17.85-17.12v-29.11c0-9.46-7.99-17.12-17.85-17.12h-96.71c-9.86,0-17.85,7.66-17.85,17.12v29.11Z"/>
          <path class="cls-63" d="m156.45,112c0,9.45,7.99,17.12,17.85,17.12h96.71c9.86,0,17.85-7.67,17.85-17.12v-29.11c0-9.46-7.99-17.12-17.85-17.12h-96.71c-9.86,0-17.85,7.66-17.85,17.12v29.11Z"/>
          <path class="cls-34" d="m156.79,111.84c0,9.45,7.99,17.12,17.85,17.12h96.71c9.86,0,17.85-7.67,17.85-17.12v-29.11c0-9.46-7.99-17.12-17.85-17.12h-96.71c-9.86,0-17.85,7.66-17.85,17.12v29.11Z"/>
          <path class="cls-36" d="m157.13,111.68c0,9.45,7.99,17.12,17.85,17.12h96.71c9.86,0,17.85-7.67,17.85-17.12v-29.11c0-9.46-7.99-17.12-17.85-17.12h-96.71c-9.86,0-17.85,7.66-17.85,17.12v29.11Z"/>
          <path class="cls-22" d="m157.47,111.51c0,9.45,7.99,17.12,17.85,17.12h96.71c9.86,0,17.85-7.67,17.85-17.12v-29.11c0-9.46-7.99-17.12-17.85-17.12h-96.71c-9.86,0-17.85,7.66-17.85,17.12v29.11Z"/>
          <path class="cls-67" d="m157.8,111.35c0,9.45,7.99,17.12,17.85,17.12h96.71c9.86,0,17.85-7.67,17.85-17.12v-29.11c0-9.46-7.99-17.12-17.85-17.12h-96.71c-9.86,0-17.85,7.66-17.85,17.12v29.11Z"/>
          <path class="cls-76" d="m158.14,111.19c0,9.45,7.99,17.12,17.85,17.12h96.71c9.86,0,17.85-7.67,17.85-17.12v-29.11c0-9.46-7.99-17.12-17.85-17.12h-96.71c-9.86,0-17.85,7.66-17.85,17.12v29.11Z"/>
          <path class="cls-65" d="m158.48,111.03c0,9.45,7.99,17.12,17.84,17.12h96.71c9.86,0,17.84-7.67,17.84-17.12v-29.11c0-9.46-7.99-17.12-17.84-17.12h-96.71c-9.86,0-17.84,7.66-17.84,17.12v29.11Z"/>
          <path class="cls-3" d="m158.82,110.87c0,9.45,7.99,17.12,17.84,17.12h96.71c9.86,0,17.84-7.67,17.84-17.12v-29.11c0-9.46-7.99-17.12-17.84-17.12h-96.71c-9.86,0-17.84,7.66-17.84,17.12v29.11Z"/>
          <path class="cls-64" d="m159.16,110.71c0,9.45,7.99,17.12,17.84,17.12h96.71c9.86,0,17.84-7.67,17.84-17.12v-29.11c0-9.46-7.99-17.12-17.84-17.12h-96.71c-9.86,0-17.84,7.66-17.84,17.12v29.11Z"/>
          <path class="cls-73" d="m159.5,110.55c0,9.45,7.99,17.12,17.84,17.12h96.71c9.86,0,17.84-7.67,17.84-17.12v-29.11c0-9.46-7.99-17.12-17.84-17.12h-96.71c-9.86,0-17.84,7.66-17.84,17.12v29.11Z"/>
          <path class="cls-81" d="m159.84,110.39c0,9.45,7.99,17.12,17.84,17.12h96.71c9.86,0,17.84-7.67,17.84-17.12v-29.11c0-9.46-7.99-17.12-17.84-17.12h-96.71c-9.86,0-17.84,7.66-17.84,17.12v29.11Z"/>
          <path class="cls-81" d="m160.18,110.22c0,9.45,7.99,17.12,17.84,17.12h96.71c9.86,0,17.84-7.67,17.84-17.12v-29.11c0-9.46-7.99-17.12-17.84-17.12h-96.71c-9.86,0-17.84,7.66-17.84,17.12v29.11Z"/>
          <path class="cls-75" d="m160.52,110.06c0,9.45,7.99,17.12,17.84,17.12h96.71c9.86,0,17.84-7.67,17.84-17.12v-29.11c0-9.46-7.99-17.12-17.84-17.12h-96.71c-9.86,0-17.84,7.66-17.84,17.12v29.11Z"/>
          <path class="cls-58" d="m160.86,109.9c0,9.45,7.99,17.12,17.84,17.12h96.71c9.86,0,17.84-7.67,17.84-17.12v-29.11c0-9.46-7.99-17.12-17.84-17.12h-96.71c-9.86,0-17.84,7.66-17.84,17.12v29.11Z"/>
          <path class="cls-50" d="m161.19,109.74c0,9.45,7.99,17.12,17.84,17.12h96.71c9.86,0,17.84-7.67,17.84-17.12v-29.11c0-9.46-7.99-17.12-17.84-17.12h-96.71c-9.86,0-17.84,7.66-17.84,17.12v29.11Z"/>
          <path class="cls-2" d="m161.53,109.58c0,9.45,7.99,17.12,17.84,17.12h96.71c9.86,0,17.84-7.67,17.84-17.12v-29.11c0-9.46-7.99-17.12-17.84-17.12h-96.71c-9.86,0-17.84,7.66-17.84,17.12v29.11Z"/>
          <path class="cls-61" d="m161.87,109.42c0,9.45,7.99,17.12,17.84,17.12h96.71c9.86,0,17.84-7.67,17.84-17.12v-29.11c0-9.46-7.99-17.12-17.84-17.12h-96.71c-9.86,0-17.84,7.66-17.84,17.12v29.11Z"/>
          <path class="cls-47" d="m162.21,109.26c0,9.45,7.99,17.12,17.84,17.12h96.71c9.86,0,17.84-7.67,17.84-17.12v-29.11c0-9.46-7.99-17.12-17.84-17.12h-96.71c-9.86,0-17.84,7.66-17.84,17.12v29.11Z"/>
          <path class="cls-46" d="m162.55,109.1c0,9.45,7.99,17.12,17.84,17.12h96.71c9.86,0,17.84-7.67,17.84-17.12v-29.11c0-9.46-7.99-17.12-17.84-17.12h-96.71c-9.86,0-17.84,7.66-17.84,17.12v29.11Z"/>
          <path class="cls-56" d="m162.89,108.93c0,9.45,7.99,17.12,17.84,17.12h96.71c9.86,0,17.84-7.67,17.84-17.12v-29.11c0-9.46-7.99-17.12-17.84-17.12h-96.71c-9.86,0-17.84,7.66-17.84,17.12v29.11Z"/>
          <path class="cls-53" d="m163.23,108.77c0,9.45,7.99,17.12,17.84,17.12h96.71c9.86,0,17.84-7.67,17.84-17.12v-29.11c0-9.46-7.99-17.12-17.84-17.12h-96.71c-9.86,0-17.84,7.66-17.84,17.12v29.11Z"/>
          <path class="cls-79" d="m163.57,108.61c0,9.45,7.99,17.12,17.84,17.12h96.71c9.86,0,17.84-7.67,17.84-17.12v-29.11c0-9.46-7.99-17.12-17.84-17.12h-96.71c-9.86,0-17.84,7.66-17.84,17.12v29.11Z"/>
          <path class="cls-35" d="m163.91,108.45c0,9.45,7.99,17.12,17.84,17.12h96.71c9.86,0,17.84-7.67,17.84-17.12v-29.11c0-9.46-7.99-17.12-17.84-17.12h-96.71c-9.86,0-17.84,7.66-17.84,17.12v29.11Z"/>
          <path class="cls-45" d="m164.25,108.29c0,9.45,7.99,17.12,17.84,17.12h96.71c9.86,0,17.84-7.67,17.84-17.12v-29.11c0-9.46-7.99-17.12-17.84-17.12h-96.71c-9.86,0-17.84,7.66-17.84,17.12v29.11Z"/>
          <path class="cls-40" d="m164.58,108.13c0,9.45,7.99,17.12,17.84,17.12h96.71c9.86,0,17.84-7.67,17.84-17.12v-29.11c0-9.46-7.99-17.12-17.84-17.12h-96.71c-9.86,0-17.84,7.66-17.84,17.12v29.11Z"/>
          <path class="cls-82" d="m164.92,107.97c0,9.45,7.99,17.12,17.84,17.12h96.71c9.86,0,17.84-7.67,17.84-17.12v-29.11c0-9.46-7.99-17.12-17.84-17.12h-96.71c-9.86,0-17.84,7.66-17.84,17.12v29.11Z"/>
          <path class="cls-42" d="m165.26,107.8c0,9.45,7.99,17.12,17.84,17.12h96.71c9.86,0,17.84-7.67,17.84-17.12v-29.11c0-9.46-7.99-17.12-17.84-17.12h-96.71c-9.86,0-17.84,7.66-17.84,17.12v29.11Z"/>
          <path class="cls-1" d="m165.6,107.64c0,9.45,7.99,17.12,17.84,17.12h96.71c9.86,0,17.84-7.67,17.84-17.12v-29.11c0-9.46-7.99-17.12-17.84-17.12h-96.71c-9.86,0-17.84,7.66-17.84,17.12v29.11Z"/>
          <path class="cls-60" d="m165.94,107.48c0,9.45,7.99,17.12,17.84,17.12h96.71c9.86,0,17.84-7.67,17.84-17.12v-29.11c0-9.46-7.99-17.12-17.84-17.12h-96.71c-9.86,0-17.84,7.66-17.84,17.12v29.11Z"/>
          <path class="cls-27" d="m166.28,107.32c0,9.45,7.99,17.12,17.84,17.12h96.71c9.86,0,17.84-7.67,17.84-17.12v-29.11c0-9.46-7.99-17.12-17.84-17.12h-96.71c-9.86,0-17.84,7.66-17.84,17.12v29.11Z"/>
          <path class="cls-49" d="m166.62,107.16c0,9.45,7.99,17.12,17.84,17.12h96.71c9.86,0,17.84-7.67,17.84-17.12v-29.11c0-9.46-7.99-17.12-17.84-17.12h-96.71c-9.86,0-17.84,7.66-17.84,17.12v29.11Z"/>
        </g>
        <g>
          <path class="cls-78" d="m166.62,106.58c0,9.45,7.99,17.12,17.84,17.12h96.71c9.86,0,17.84-7.67,17.84-17.12v-29.11c0-9.46-7.99-17.12-17.84-17.12h-96.71c-9.86,0-17.84,7.66-17.84,17.12v29.11Z"/>
          <g class="cls-31">
            <path class="cls-49" d="m166.62,106.58c0,9.45,7.99,17.12,17.84,17.12h96.71c9.86,0,17.84-7.67,17.84-17.12v-29.11c0-9.46-7.99-17.12-17.84-17.12h-96.71c-9.86,0-17.84,7.66-17.84,17.12v29.11Z"/>
            <path class="cls-1" d="m167.14,104.4c0,9.38,8.01,16.99,17.89,16.99h95.57c9.88,0,17.89-7.61,17.89-16.99v-26.87c0-9.39-8.01-16.99-17.89-16.99h-95.57c-9.88,0-17.89,7.6-17.89,16.99v26.87Z"/>
            <path class="cls-40" d="m167.66,102.23c0,9.31,8.03,16.87,17.94,16.87h94.43c9.91,0,17.95-7.56,17.95-16.87v-24.63c0-9.33-8.03-16.87-17.95-16.87h-94.43c-9.91,0-17.94,7.55-17.94,16.87v24.63Z"/>
            <path class="cls-79" d="m168.18,100.06c0,9.24,8.06,16.75,18,16.75h93.28c9.94,0,18-7.5,18-16.75v-22.39c0-9.26-8.06-16.75-18-16.75h-93.28c-9.94,0-18,7.49-18,16.75v22.39Z"/>
            <path class="cls-56" d="m168.7,97.88c0,9.18,8.08,16.62,18.05,16.62h92.14c9.97,0,18.05-7.45,18.05-16.62v-20.15c0-9.19-8.08-16.63-18.05-16.63h-92.14c-9.97,0-18.05,7.44-18.05,16.63v20.15Z"/>
            <path class="cls-61" d="m169.22,95.71c0,9.11,8.1,16.5,18.1,16.5h91c10,0,18.1-7.39,18.1-16.5v-17.91c0-9.12-8.11-16.5-18.1-16.5h-91c-10,0-18.1,7.38-18.1,16.5v17.91Z"/>
            <path class="cls-58" d="m169.74,93.53c0,9.04,8.13,16.37,18.15,16.37h89.86c10.02,0,18.16-7.33,18.16-16.37v-15.67c0-9.05-8.13-16.38-18.16-16.38h-89.86c-10.02,0-18.15,7.33-18.15,16.38v15.67Z"/>
            <path class="cls-73" d="m170.25,91.36c0,8.97,8.15,16.25,18.2,16.25h88.72c10.05,0,18.21-7.28,18.21-16.25v-13.43c0-8.99-8.15-16.26-18.21-16.26h-88.72c-10.05,0-18.2,7.27-18.2,16.26v13.43Z"/>
            <path class="cls-65" d="m170.77,89.19c0,8.9,8.17,16.13,18.25,16.13h87.57c10.08,0,18.26-7.22,18.26-16.13v-11.2c0-8.92-8.18-16.13-18.26-16.13h-87.57c-10.08,0-18.25,7.22-18.25,16.13v11.2Z"/>
            <path class="cls-22" d="m171.29,87.01c0,8.83,8.19,16,18.3,16h86.43c10.11,0,18.31-7.17,18.31-16v-8.96c0-8.85-8.2-16.01-18.31-16.01h-86.43c-10.11,0-18.3,7.16-18.3,16.01v8.96Z"/>
            <path class="cls-34" d="m171.81,84.84c0,8.76,8.22,15.88,18.36,15.88h85.29c10.14,0,18.36-7.11,18.36-15.88v-6.72c0-8.78-8.23-15.89-18.36-15.89h-85.29c-10.14,0-18.36,7.1-18.36,15.89v6.72Z"/>
            <path class="cls-55" d="m172.33,82.66c0,8.7,8.24,15.75,18.41,15.75h84.15c10.17,0,18.42-7.06,18.42-15.75v-4.48c0-8.71-8.25-15.76-18.42-15.76h-84.15c-10.17,0-18.41,7.05-18.41,15.76v4.48Z"/>
            <path class="cls-80" d="m172.85,80.49c0,8.63,8.26,15.63,18.46,15.63h83c10.19,0,18.47-7,18.47-15.63v-2.24c0-8.64-8.27-15.64-18.47-15.64h-83c-10.19,0-18.46,6.99-18.46,15.64v2.24Z"/>
            <path class="cls-23" d="m173.37,78.31c0,8.56,8.29,15.5,18.51,15.5h81.86c10.22,0,18.52-6.95,18.52-15.5h0c0-8.58-8.3-15.52-18.52-15.52h-81.86c-10.22,0-18.51,6.94-18.51,15.52h0Z"/>
          </g>
          <path class="cls-14" d="m166.62,106.58c0,9.45,7.99,17.12,17.84,17.12h96.71c9.86,0,17.84-7.67,17.84-17.12v-29.11c0-9.46-7.99-17.12-17.84-17.12h-96.71c-9.86,0-17.84,7.66-17.84,17.12v29.11Z"/>
        </g>
      </g>
      <g>
        <g class="cls-31">
          <polygon class="cls-23" points="791.77 247.96 944.1 247.96 944.1 247.96 1000.23 247.96 1000.23 34 944.1 34 944.1 19.17 791.77 19.17 791.77 34 735.63 34 735.63 247.96 791.77 247.96 791.77 247.96"/>
          <polygon class="cls-77" points="793.01 247.64 945.34 247.64 945.34 247.64 1001.48 247.64 1001.48 33.68 945.34 33.68 945.34 18.85 793.01 18.85 793.01 33.68 736.88 33.68 736.88 247.64 793.01 247.64 793.01 247.64"/>
          <polygon class="cls-52" points="794.25 247.33 946.59 247.33 946.59 247.33 1002.72 247.33 1002.72 33.36 946.59 33.36 946.59 18.54 794.25 18.54 794.25 33.36 738.12 33.36 738.12 247.33 794.25 247.33 794.25 247.33"/>
          <polygon class="cls-80" points="795.5 247.01 947.83 247.01 947.83 247.01 1003.97 247.01 1003.97 33.05 947.83 33.05 947.83 18.22 795.5 18.22 795.5 33.05 739.36 33.05 739.36 247.01 795.5 247.01 795.5 247.01"/>
          <polygon class="cls-54" points="796.74 246.69 949.08 246.69 949.08 246.69 1005.21 246.69 1005.21 32.73 949.08 32.73 949.08 17.9 796.74 17.9 796.74 32.73 740.61 32.73 740.61 246.69 796.74 246.69 796.74 246.69"/>
          <polygon class="cls-26" points="797.99 246.38 950.32 246.38 950.32 246.38 1006.45 246.38 1006.45 32.41 950.32 32.41 950.32 17.59 797.99 17.59 797.99 32.41 741.85 32.41 741.85 246.38 797.99 246.38 797.99 246.38"/>
          <polygon class="cls-55" points="799.23 246.06 951.56 246.06 951.56 246.06 1007.7 246.06 1007.7 32.09 951.56 32.09 951.56 17.27 799.23 17.27 799.23 32.09 743.1 32.09 743.1 246.06 799.23 246.06 799.23 246.06"/>
          <polygon class="cls-70" points="800.47 245.74 952.81 245.74 952.81 245.74 1008.94 245.74 1008.94 31.78 952.81 31.78 952.81 16.95 800.47 16.95 800.47 31.78 744.34 31.78 744.34 245.74 800.47 245.74 800.47 245.74"/>
          <polygon class="cls-63" points="801.72 245.43 954.05 245.43 954.05 245.43 1010.19 245.43 1010.19 31.46 954.05 31.46 954.05 16.64 801.72 16.64 801.72 31.46 745.58 31.46 745.58 245.43 801.72 245.43 801.72 245.43"/>
          <polygon class="cls-34" points="802.96 245.11 955.3 245.11 955.3 245.11 1011.43 245.11 1011.43 31.14 955.3 31.14 955.3 16.32 802.96 16.32 802.96 31.14 746.83 31.14 746.83 245.11 802.96 245.11 802.96 245.11"/>
          <polygon class="cls-36" points="804.21 244.79 956.54 244.79 956.54 244.79 1012.67 244.79 1012.67 30.83 956.54 30.83 956.54 16.01 804.21 16.01 804.21 30.83 748.07 30.83 748.07 244.79 804.21 244.79 804.21 244.79"/>
          <polygon class="cls-22" points="805.45 244.48 957.79 244.48 957.79 244.48 1013.92 244.48 1013.92 30.51 957.79 30.51 957.79 15.69 805.45 15.69 805.45 30.51 749.32 30.51 749.32 244.48 805.45 244.48 805.45 244.48"/>
          <polygon class="cls-67" points="806.7 244.16 959.03 244.16 959.03 244.16 1015.16 244.16 1015.16 30.19 959.03 30.19 959.03 15.37 806.7 15.37 806.7 30.19 750.56 30.19 750.56 244.16 806.7 244.16 806.7 244.16"/>
          <polygon class="cls-76" points="807.94 243.84 960.27 243.84 960.27 243.84 1016.41 243.84 1016.41 29.88 960.27 29.88 960.27 15.06 807.94 15.06 807.94 29.88 751.81 29.88 751.81 243.84 807.94 243.84 807.94 243.84"/>
          <polygon class="cls-65" points="809.18 243.53 961.52 243.53 961.52 243.53 1017.65 243.53 1017.65 29.56 961.52 29.56 961.52 14.74 809.18 14.74 809.18 29.56 753.05 29.56 753.05 243.53 809.18 243.53 809.18 243.53"/>
          <polygon class="cls-3" points="810.43 243.21 962.76 243.21 962.76 243.21 1018.9 243.21 1018.9 29.24 962.76 29.24 962.76 14.42 810.43 14.42 810.43 29.24 754.29 29.24 754.29 243.21 810.43 243.21 810.43 243.21"/>
          <polygon class="cls-64" points="811.67 242.89 964.01 242.89 964.01 242.89 1020.14 242.89 1020.14 28.93 964.01 28.93 964.01 14.11 811.67 14.11 811.67 28.93 755.54 28.93 755.54 242.89 811.67 242.89 811.67 242.89"/>
          <polygon class="cls-73" points="812.92 242.58 965.25 242.58 965.25 242.58 1021.38 242.58 1021.38 28.61 965.25 28.61 965.25 13.79 812.92 13.79 812.92 28.61 756.78 28.61 756.78 242.58 812.92 242.58 812.92 242.58"/>
          <polygon class="cls-81" points="814.16 242.26 966.5 242.26 966.5 242.26 1022.63 242.26 1022.63 28.29 966.5 28.29 966.5 13.47 814.16 13.47 814.16 28.29 758.03 28.29 758.03 242.26 814.16 242.26 814.16 242.26"/>
          <polygon class="cls-75" points="815.41 241.94 967.74 241.94 967.74 241.94 1023.87 241.94 1023.87 27.98 967.74 27.98 967.74 13.16 815.41 13.16 815.41 27.98 759.27 27.98 759.27 241.94 815.41 241.94 815.41 241.94"/>
          <polygon class="cls-58" points="816.65 241.63 968.98 241.63 968.98 241.63 1025.12 241.63 1025.12 27.66 968.98 27.66 968.98 12.84 816.65 12.84 816.65 27.66 760.52 27.66 760.52 241.63 816.65 241.63 816.65 241.63"/>
          <polygon class="cls-50" points="817.89 241.31 970.23 241.31 970.23 241.31 1026.36 241.31 1026.36 27.34 970.23 27.34 970.23 12.52 817.89 12.52 817.89 27.34 761.76 27.34 761.76 241.31 817.89 241.31 817.89 241.31"/>
          <polygon class="cls-2" points="819.14 240.99 971.47 240.99 971.47 240.99 1027.61 240.99 1027.61 27.03 971.47 27.03 971.47 12.21 819.14 12.21 819.14 27.03 763 27.03 763 240.99 819.14 240.99 819.14 240.99"/>
          <polygon class="cls-61" points="820.38 240.68 972.72 240.68 972.72 240.68 1028.85 240.68 1028.85 26.71 972.72 26.71 972.72 11.89 820.38 11.89 820.38 26.71 764.25 26.71 764.25 240.68 820.38 240.68 820.38 240.68"/>
          <polygon class="cls-47" points="821.63 240.36 973.96 240.36 973.96 240.36 1030.09 240.36 1030.09 26.39 973.96 26.39 973.96 11.57 821.63 11.57 821.63 26.39 765.49 26.39 765.49 240.36 821.63 240.36 821.63 240.36"/>
          <polygon class="cls-46" points="822.87 240.04 975.21 240.04 975.21 240.04 1031.34 240.04 1031.34 26.08 975.21 26.08 975.21 11.26 822.87 11.26 822.87 26.08 766.74 26.08 766.74 240.04 822.87 240.04 822.87 240.04"/>
          <polygon class="cls-56" points="824.11 239.73 976.45 239.73 976.45 239.73 1032.58 239.73 1032.58 25.76 976.45 25.76 976.45 10.94 824.11 10.94 824.11 25.76 767.98 25.76 767.98 239.73 824.11 239.73 824.11 239.73"/>
          <polygon class="cls-53" points="825.36 239.41 977.69 239.41 977.69 239.41 1033.83 239.41 1033.83 25.44 977.69 25.44 977.69 10.62 825.36 10.62 825.36 25.44 769.23 25.44 769.23 239.41 825.36 239.41 825.36 239.41"/>
          <polygon class="cls-79" points="826.6 239.09 978.94 239.09 978.94 239.09 1035.07 239.09 1035.07 25.13 978.94 25.13 978.94 10.31 826.6 10.31 826.6 25.13 770.47 25.13 770.47 239.09 826.6 239.09 826.6 239.09"/>
          <polygon class="cls-35" points="827.85 238.78 980.18 238.78 980.18 238.78 1036.32 238.78 1036.32 24.81 980.18 24.81 980.18 9.99 827.85 9.99 827.85 24.81 771.71 24.81 771.71 238.78 827.85 238.78 827.85 238.78"/>
          <polygon class="cls-35" points="829.09 238.46 981.43 238.46 981.43 238.46 1037.56 238.46 1037.56 24.49 981.43 24.49 981.43 9.67 829.09 9.67 829.09 24.49 772.96 24.49 772.96 238.46 829.09 238.46 829.09 238.46"/>
          <polygon class="cls-45" points="830.34 238.14 982.67 238.14 982.67 238.14 1038.8 238.14 1038.8 24.18 982.67 24.18 982.67 9.36 830.34 9.36 830.34 24.18 774.2 24.18 774.2 238.14 830.34 238.14 830.34 238.14"/>
          <polygon class="cls-40" points="831.58 237.83 983.91 237.83 983.91 237.83 1040.05 237.83 1040.05 23.86 983.91 23.86 983.91 9.04 831.58 9.04 831.58 23.86 775.45 23.86 775.45 237.83 831.58 237.83 831.58 237.83"/>
          <polygon class="cls-82" points="832.82 237.51 985.16 237.51 985.16 237.51 1041.29 237.51 1041.29 23.54 985.16 23.54 985.16 8.72 832.82 8.72 832.82 23.54 776.69 23.54 776.69 237.51 832.82 237.51 832.82 237.51"/>
          <polygon class="cls-42" points="834.07 237.19 986.4 237.19 986.4 237.19 1042.54 237.19 1042.54 23.23 986.4 23.23 986.4 8.41 834.07 8.41 834.07 23.23 777.94 23.23 777.94 237.19 834.07 237.19 834.07 237.19"/>
          <polygon class="cls-1" points="835.31 236.88 987.65 236.88 987.65 236.88 1043.78 236.88 1043.78 22.91 987.65 22.91 987.65 8.09 835.31 8.09 835.31 22.91 779.18 22.91 779.18 236.88 835.31 236.88 835.31 236.88"/>
          <polygon class="cls-60" points="836.56 236.56 988.89 236.56 988.89 236.56 1045.03 236.56 1045.03 22.59 988.89 22.59 988.89 7.77 836.56 7.77 836.56 22.59 780.42 22.59 780.42 236.56 836.56 236.56 836.56 236.56"/>
          <polygon class="cls-27" points="837.8 236.24 990.14 236.24 990.14 236.24 1046.27 236.24 1046.27 22.28 990.14 22.28 990.14 7.46 837.8 7.46 837.8 22.28 781.67 22.28 781.67 236.24 837.8 236.24 837.8 236.24"/>
          <polygon class="cls-49" points="839.05 235.93 991.38 235.93 991.38 235.93 1047.51 235.93 1047.51 21.96 991.38 21.96 991.38 7.14 839.05 7.14 839.05 21.96 782.91 21.96 782.91 235.93 839.05 235.93 839.05 235.93"/>
          <polygon class="cls-68" points="840.29 235.61 992.62 235.61 992.62 235.61 1048.76 235.61 1048.76 21.64 992.62 21.64 992.62 6.82 840.29 6.82 840.29 21.64 784.16 21.64 784.16 235.61 840.29 235.61 840.29 235.61"/>
          <polygon class="cls-33" points="841.53 235.29 993.87 235.29 993.87 235.29 1050 235.29 1050 21.33 993.87 21.33 993.87 6.51 841.53 6.51 841.53 21.33 785.4 21.33 785.4 235.29 841.53 235.29 841.53 235.29"/>
          <polygon class="cls-44" points="842.78 234.98 995.11 234.98 995.11 234.98 1051.25 234.98 1051.25 21.01 995.11 21.01 995.11 6.19 842.78 6.19 842.78 21.01 786.64 21.01 786.64 234.98 842.78 234.98 842.78 234.98"/>
          <polygon class="cls-38" points="844.02 234.66 996.36 234.66 996.36 234.66 1052.49 234.66 1052.49 20.69 996.36 20.69 996.36 5.87 844.02 5.87 844.02 20.69 787.89 20.69 787.89 234.66 844.02 234.66 844.02 234.66"/>
          <polygon class="cls-59" points="845.27 234.34 997.6 234.34 997.6 234.34 1053.73 234.34 1053.73 20.38 997.6 20.38 997.6 5.56 845.27 5.56 845.27 20.38 789.13 20.38 789.13 234.34 845.27 234.34 845.27 234.34"/>
          <polygon class="cls-48" points="846.51 234.03 998.85 234.03 998.85 234.03 1054.98 234.03 1054.98 20.06 998.85 20.06 998.85 5.24 846.51 5.24 846.51 20.06 790.38 20.06 790.38 234.03 846.51 234.03 846.51 234.03"/>
          <polygon class="cls-57" points="847.76 233.71 1000.09 233.71 1000.09 233.71 1056.22 233.71 1056.22 19.74 1000.09 19.74 1000.09 4.93 847.76 4.93 847.76 19.74 791.62 19.74 791.62 233.71 847.76 233.71 847.76 233.71"/>
          <polygon class="cls-71" points="849 233.39 1001.33 233.39 1001.33 233.39 1057.47 233.39 1057.47 19.43 1001.33 19.43 1001.33 4.61 849 4.61 849 19.43 792.87 19.43 792.87 233.39 849 233.39 849 233.39"/>
          <polygon class="cls-25" points="850.24 233.08 1002.58 233.08 1002.58 233.08 1058.71 233.08 1058.71 19.11 1002.58 19.11 1002.58 4.29 850.24 4.29 850.24 19.11 794.11 19.11 794.11 233.08 850.24 233.08 850.24 233.08"/>
          <polygon class="cls-74" points="851.49 232.76 1003.82 232.76 1003.82 232.76 1059.96 232.76 1059.96 18.79 1003.82 18.79 1003.82 3.98 851.49 3.98 851.49 18.79 795.35 18.79 795.35 232.76 851.49 232.76 851.49 232.76"/>
          <polygon class="cls-43" points="852.73 232.44 1005.07 232.44 1005.07 232.44 1061.2 232.44 1061.2 18.48 1005.07 18.48 1005.07 3.66 852.73 3.66 852.73 18.48 796.6 18.48 796.6 232.44 852.73 232.44 852.73 232.44"/>
          <polygon class="cls-66" points="853.98 232.13 1006.31 232.13 1006.31 232.13 1062.44 232.13 1062.44 18.16 1006.31 18.16 1006.31 3.34 853.98 3.34 853.98 18.16 797.84 18.16 797.84 232.13 853.98 232.13 853.98 232.13"/>
          <polygon class="cls-69" points="855.22 231.81 1007.56 231.81 1007.56 231.81 1063.69 231.81 1063.69 17.84 1007.56 17.84 1007.56 3.03 855.22 3.03 855.22 17.84 799.09 17.84 799.09 231.81 855.22 231.81 855.22 231.81"/>
          <polygon class="cls-62" points="856.46 231.49 1008.8 231.49 1008.8 231.49 1064.93 231.49 1064.93 17.53 1008.8 17.53 1008.8 2.71 856.46 2.71 856.46 17.53 800.33 17.53 800.33 231.49 856.46 231.49 856.46 231.49"/>
          <polygon class="cls-24" points="857.71 231.18 1010.04 231.18 1010.04 231.18 1066.18 231.18 1066.18 17.21 1010.04 17.21 1010.04 2.39 857.71 2.39 857.71 17.21 801.58 17.21 801.58 231.18 857.71 231.18 857.71 231.18"/>
          <polygon class="cls-32" points="858.95 230.86 1011.29 230.86 1011.29 230.86 1067.42 230.86 1067.42 16.89 1011.29 16.89 1011.29 2.08 858.95 2.08 858.95 16.89 802.82 16.89 802.82 230.86 858.95 230.86 858.95 230.86"/>
          <polygon class="cls-39" points="860.2 230.54 1012.53 230.54 1012.53 230.54 1068.67 230.54 1068.67 16.58 1012.53 16.58 1012.53 1.76 860.2 1.76 860.2 16.58 804.06 16.58 804.06 230.54 860.2 230.54 860.2 230.54"/>
          <polygon class="cls-51" points="861.44 230.23 1013.78 230.23 1013.78 230.23 1069.91 230.23 1069.91 16.26 1013.78 16.26 1013.78 1.44 861.44 1.44 861.44 16.26 805.31 16.26 805.31 230.23 861.44 230.23 861.44 230.23"/>
          <polygon class="cls-41" points="862.69 229.91 1015.02 229.91 1015.02 229.91 1071.15 229.91 1071.15 15.94 1015.02 15.94 1015.02 1.13 862.69 1.13 862.69 15.94 806.55 15.94 806.55 229.91 862.69 229.91 862.69 229.91"/>
          <polygon class="cls-72" points="863.93 229.59 1016.26 229.59 1016.26 229.59 1072.4 229.59 1072.4 15.63 1016.26 15.63 1016.26 .81 863.93 .81 863.93 15.63 807.8 15.63 807.8 229.59 863.93 229.59 863.93 229.59"/>
        </g>
        <g>
          <rect class="cls-12" x="807.62" y="15.63" width="56.13" height="213.97"/>
          <rect class="cls-30" x="807.62" y="15.63" width="56.13" height="213.97"/>
          <rect class="cls-18" x="863.75" y="66.56" width="152.33" height="163.04"/>
          <rect class="cls-9" x="863.75" y="30.45" width="152.33" height="36.11"/>
          <rect class="cls-16" x="863.75" y=".81" width="152.33" height="29.64"/>
          <rect class="cls-6" x="1016.09" y="15.63" width="56.13" height="213.97"/>
          <rect class="cls-17" x="807.62" y="15.63" width="56.13" height="213.97"/>
        </g>
        <path class="cls-29" d="m1072.22,14.72h-55.38V.81c0-.45-.33-.81-.75-.81h-152.33c-.42,0-.76.36-.76.81v13.91h-55.38c-.47,0-.85.4-.85.9v213.97c0,.5.38.91.85.91h56.13c.09,0,.14-.08.22-.1h151.9c.08.02.13.1.22.1h56.13c.47,0,.84-.4.84-.91V15.63c0-.5-.38-.9-.84-.9Z"/>
      </g>
    </g>
  </g>
</svg>