<?xml version="1.0" encoding="UTF-8"?>
<svg xmlns="http://www.w3.org/2000/svg" xmlns:xlink="http://www.w3.org/1999/xlink" viewBox="0 0 277.08 224.14">
  <defs>
    <style>
      .cls-1 {
        fill: #ddd;
      }

      .cls-2 {
        fill: #e9e9e9;
      }

      .cls-3 {
        fill: #f0f0f0;
      }

      .cls-4 {
        fill: #f4f4f4;
      }

      .cls-5 {
        fill: #fff;
      }

      .cls-6 {
        fill: #cbcbcb;
      }

      .cls-7 {
        fill: #d1d1d1;
      }

      .cls-8 {
        fill: #fafafa;
      }

      .cls-9 {
        fill: #dbdbdb;
      }

      .cls-10 {
        fill: #cacaca;
      }

      .cls-11 {
        fill: #d8d8d8;
      }

      .cls-12 {
        fill: #f6f6f6;
      }

      .cls-13 {
        fill: #e2e2e2;
      }

      .cls-14 {
        fill: #f5f5f5;
      }

      .cls-15 {
        isolation: isolate;
      }

      .cls-16 {
        fill: #d6d6d6;
      }

      .cls-17 {
        fill: #c9c9c9;
      }

      .cls-18 {
        fill: #e0e0e0;
      }

      .cls-19 {
        fill: #c7c7c7;
      }

      .cls-20 {
        fill: #dedede;
      }

      .cls-21 {
        fill: #cfcfcf;
      }

      .cls-22 {
        fill: #d7d7d7;
      }

      .cls-23 {
        fill: #e1e1e1;
      }

      .cls-24 {
        fill: #e6e6e6;
      }

      .cls-25 {
        fill: #e7e7e7;
      }

      .cls-26 {
        fill: #d4d4d4;
      }

      .cls-27 {
        fill: #dadada;
      }

      .cls-28 {
        fill: #eaeaea;
      }

      .cls-29 {
        fill: #c8c8c8;
      }

      .cls-30 {
        fill: #fdfdfd;
      }

      .cls-31 {
        fill: #e4e4e4;
      }

      .cls-32 {
        fill: none;
      }

      .cls-32, .cls-33 {
        stroke: #949494;
        stroke-linecap: round;
        stroke-linejoin: round;
        stroke-width: .03px;
      }

      .cls-34 {
        fill: #fbfbfb;
      }

      .cls-35 {
        fill: #f9f9f9;
      }

      .cls-33 {
        fill: url(#linear-gradient);
      }

      .cls-36 {
        fill: #e5e5e5;
      }

      .cls-37 {
        fill: #d3d3d3;
      }

      .cls-38 {
        fill: #ebebeb;
      }

      .cls-39 {
        fill: #d5d5d5;
      }

      .cls-40 {
        fill: #dcdcdc;
      }

      .cls-41 {
        fill: url(#linear-gradient-2);
      }

      .cls-41, .cls-42, .cls-43 {
        mix-blend-mode: multiply;
      }

      .cls-42 {
        fill: #706f6f;
      }

      .cls-44 {
        fill: #e8e8e8;
      }

      .cls-45 {
        fill: #ccc;
      }

      .cls-46 {
        fill: #f7f7f7;
      }

      .cls-47 {
        fill: #efefef;
      }

      .cls-48 {
        fill: #f1f1f1;
      }

      .cls-49 {
        fill: #cecece;
      }

      .cls-50 {
        fill: #f3f3f3;
      }

      .cls-51 {
        fill: #d9d9d9;
      }

      .cls-52 {
        fill: #cdcdcd;
      }

      .cls-53 {
        fill: #f8f8f8;
      }

      .cls-54 {
        fill: #d2d2d2;
      }

      .cls-55 {
        fill: #c6c6c6;
      }

      .cls-56 {
        fill: #eee;
      }

      .cls-57 {
        fill: #d0d0d0;
      }

      .cls-58 {
        fill: #ececec;
      }

      .cls-59 {
        fill: #f2f2f2;
      }

      .cls-60 {
        fill: #fefefe;
      }

      .cls-61 {
        fill: #e3e3e3;
      }

      .cls-62 {
        fill: #fcfcfc;
      }

      .cls-63 {
        fill: #ededed;
      }

      .cls-64 {
        fill: #dfdfdf;
      }
    </style>
    <linearGradient id="linear-gradient" x1="-555.26" y1="61.73" x2="-367.73" y2="61.73" gradientTransform="translate(-279.11 162.99) rotate(-180)" gradientUnits="userSpaceOnUse">
      <stop offset="0" stop-color="#fff"/>
      <stop offset=".13" stop-color="#e3e3e2"/>
      <stop offset=".89" stop-color="#d1d1d0"/>
      <stop offset="1" stop-color="#878787"/>
    </linearGradient>
    <linearGradient id="linear-gradient-2" x1="-21.41" y1="71.95" x2="-21.41" y2="193.56" gradientTransform="translate(203.8 7.99)" gradientUnits="userSpaceOnUse">
      <stop offset="0" stop-color="#fff"/>
      <stop offset=".69" stop-color="#fffffe"/>
      <stop offset=".8" stop-color="#f6f6f5"/>
      <stop offset=".97" stop-color="#dddddc"/>
      <stop offset="1" stop-color="#d9d9d8"/>
    </linearGradient>
  </defs>
  <g class="cls-15">
    <g id="Layer_1" data-name="Layer 1">
      <g>
        <g class="cls-43">
          <polygon class="cls-5" points="0 23.58 0 224.14 0 224.14 0 224.14 187.53 224.14 187.53 102.53 187.53 102.53 187.53 23.58 0 23.58"/>
          <polygon class="cls-60" points="1.53 23.19 1.53 223.75 1.53 223.75 1.53 223.75 189.06 223.75 189.06 102.14 189.06 102.14 189.06 23.19 1.53 23.19"/>
          <polygon class="cls-30" points="3.06 22.8 3.06 223.36 3.06 223.36 3.06 223.36 190.6 223.36 190.6 101.75 190.6 101.75 190.6 22.8 3.06 22.8"/>
          <polygon class="cls-62" points="4.6 22.41 4.6 222.97 4.6 222.97 4.6 222.97 192.13 222.97 192.13 101.36 192.13 101.36 192.13 22.41 4.6 22.41"/>
          <polygon class="cls-34" points="6.13 22.03 6.13 222.58 6.13 222.58 6.13 222.58 193.66 222.58 193.66 100.97 193.66 100.97 193.66 22.03 6.13 22.03"/>
          <polygon class="cls-8" points="7.66 21.64 7.66 222.19 7.66 222.19 7.66 222.2 195.19 222.2 195.19 100.58 195.19 100.58 195.19 21.64 7.66 21.64"/>
          <polygon class="cls-35" points="9.19 21.25 9.19 221.81 9.19 221.81 9.19 221.81 196.72 221.81 196.72 100.19 196.72 100.19 196.72 21.25 9.19 21.25"/>
          <polygon class="cls-53" points="10.72 20.86 10.72 221.42 10.72 221.42 10.72 221.42 198.25 221.42 198.25 99.8 198.25 99.8 198.25 20.86 10.72 20.86"/>
          <polygon class="cls-46" points="12.25 20.47 12.25 221.03 12.25 221.03 12.25 221.03 199.79 221.03 199.79 99.41 199.79 99.41 199.79 20.47 12.25 20.47"/>
          <polygon class="cls-12" points="13.79 20.08 13.79 220.64 13.79 220.64 13.79 220.64 201.32 220.64 201.32 99.03 201.32 99.03 201.32 20.08 13.79 20.08"/>
          <polygon class="cls-14" points="15.32 19.69 15.32 220.25 15.32 220.25 15.32 220.25 202.85 220.25 202.85 98.64 202.85 98.64 202.85 19.69 15.32 19.69"/>
          <polygon class="cls-4" points="16.85 19.3 16.85 219.86 16.85 219.86 16.85 219.86 204.38 219.86 204.38 98.25 204.38 98.25 204.38 19.3 16.85 19.3"/>
          <polygon class="cls-50" points="18.38 18.91 18.38 219.47 18.38 219.47 18.38 219.47 205.91 219.47 205.91 97.86 205.91 97.86 205.91 18.91 18.38 18.91"/>
          <polygon class="cls-59" points="19.91 18.52 19.91 219.08 19.91 219.08 19.91 219.08 207.45 219.08 207.45 97.47 207.45 97.47 207.45 18.52 19.91 18.52"/>
          <polygon class="cls-48" points="21.44 18.13 21.44 218.69 21.44 218.69 21.44 218.69 208.98 218.69 208.98 97.08 208.98 97.08 208.98 18.13 21.44 18.13"/>
          <polygon class="cls-3" points="22.98 17.74 22.98 218.3 22.98 218.3 22.98 218.3 210.51 218.3 210.51 96.69 210.51 96.69 210.51 17.74 22.98 17.74"/>
          <polygon class="cls-47" points="24.51 17.35 24.51 217.91 24.51 217.91 24.51 217.91 212.04 217.91 212.04 96.3 212.04 96.3 212.04 17.35 24.51 17.35"/>
          <polygon class="cls-56" points="26.04 16.96 26.04 217.52 26.04 217.52 26.04 217.52 213.57 217.52 213.57 95.91 213.57 95.91 213.57 16.96 26.04 16.96"/>
          <polygon class="cls-63" points="27.57 16.57 27.57 217.13 27.57 217.13 27.57 217.13 215.1 217.13 215.1 95.52 215.1 95.52 215.1 16.57 27.57 16.57"/>
          <polygon class="cls-58" points="29.1 16.18 29.1 216.74 29.1 216.74 29.1 216.74 216.64 216.74 216.64 95.13 216.64 95.13 216.64 16.18 29.1 16.18"/>
          <polygon class="cls-38" points="30.63 15.79 30.63 216.35 30.63 216.35 30.63 216.35 218.17 216.35 218.17 94.74 218.17 94.74 218.17 15.79 30.63 15.79"/>
          <polygon class="cls-28" points="32.17 15.4 32.17 215.96 32.17 215.96 32.17 215.96 219.7 215.96 219.7 94.35 219.7 94.35 219.7 15.4 32.17 15.4"/>
          <polygon class="cls-2" points="33.7 15.01 33.7 215.57 33.7 215.57 33.7 215.57 221.23 215.57 221.23 93.96 221.23 93.96 221.23 15.01 33.7 15.01"/>
          <polygon class="cls-44" points="35.23 14.62 35.23 215.18 35.23 215.18 35.23 215.19 222.76 215.19 222.76 93.57 222.76 93.57 222.76 14.62 35.23 14.62"/>
          <polygon class="cls-25" points="36.76 14.23 36.76 214.79 36.76 214.79 36.76 214.8 224.29 214.8 224.29 93.18 224.29 93.18 224.29 14.23 36.76 14.23"/>
          <polygon class="cls-24" points="38.29 13.84 38.29 214.4 38.29 214.4 38.29 214.41 225.83 214.41 225.83 92.79 225.83 92.79 225.83 13.84 38.29 13.84"/>
          <polygon class="cls-36" points="39.82 13.45 39.82 214.01 39.82 214.01 39.82 214.02 227.36 214.02 227.36 92.4 227.36 92.4 227.36 13.45 39.82 13.45"/>
          <polygon class="cls-31" points="41.36 13.07 41.36 213.62 41.36 213.62 41.36 213.63 228.89 213.63 228.89 92.01 228.89 92.01 228.89 13.07 41.36 13.07"/>
          <polygon class="cls-61" points="42.89 12.68 42.89 213.23 42.89 213.23 42.89 213.24 230.42 213.24 230.42 91.62 230.42 91.62 230.42 12.68 42.89 12.68"/>
          <polygon class="cls-13" points="44.42 12.29 44.42 212.85 44.42 212.85 44.42 212.85 231.95 212.85 231.95 91.23 231.95 91.23 231.95 12.29 44.42 12.29"/>
          <polygon class="cls-13" points="45.95 11.9 45.95 212.46 45.95 212.46 45.95 212.46 233.48 212.46 233.48 90.84 233.48 90.84 233.48 11.9 45.95 11.9"/>
          <polygon class="cls-23" points="47.48 11.51 47.48 212.07 47.48 212.07 47.48 212.07 235.02 212.07 235.02 90.45 235.02 90.45 235.02 11.51 47.48 11.51"/>
          <polygon class="cls-18" points="49.02 11.12 49.02 211.68 49.02 211.68 49.02 211.68 236.55 211.68 236.55 90.07 236.55 90.07 236.55 11.12 49.02 11.12"/>
          <polygon class="cls-64" points="50.55 10.73 50.55 211.29 50.55 211.29 50.55 211.29 238.08 211.29 238.08 89.68 238.08 89.68 238.08 10.73 50.55 10.73"/>
          <polygon class="cls-20" points="52.08 10.34 52.08 210.9 52.08 210.9 52.08 210.9 239.61 210.9 239.61 89.29 239.61 89.29 239.61 10.34 52.08 10.34"/>
          <polygon class="cls-1" points="53.61 9.95 53.61 210.51 53.61 210.51 53.61 210.51 241.14 210.51 241.14 88.9 241.14 88.9 241.14 9.95 53.61 9.95"/>
          <polygon class="cls-40" points="55.14 9.56 55.14 210.12 55.14 210.12 55.14 210.12 242.68 210.12 242.68 88.51 242.68 88.51 242.68 9.56 55.14 9.56"/>
          <polygon class="cls-9" points="56.67 9.17 56.67 209.73 56.67 209.73 56.67 209.73 244.21 209.73 244.21 88.12 244.21 88.12 244.21 9.17 56.67 9.17"/>
          <polygon class="cls-27" points="58.21 8.78 58.21 209.34 58.21 209.34 58.21 209.34 245.74 209.34 245.74 87.73 245.74 87.73 245.74 8.78 58.21 8.78"/>
          <polygon class="cls-51" points="59.74 8.39 59.74 208.95 59.74 208.95 59.74 208.95 247.27 208.95 247.27 87.34 247.27 87.34 247.27 8.39 59.74 8.39"/>
          <polygon class="cls-11" points="61.27 8 61.27 208.56 61.27 208.56 61.27 208.56 248.8 208.56 248.8 86.95 248.8 86.95 248.8 8 61.27 8"/>
          <polygon class="cls-22" points="62.8 7.61 62.8 208.17 62.8 208.17 62.8 208.18 250.33 208.18 250.33 86.56 250.33 86.56 250.33 7.61 62.8 7.61"/>
          <polygon class="cls-16" points="64.33 7.22 64.33 207.78 64.33 207.78 64.33 207.79 251.87 207.79 251.87 86.17 251.87 86.17 251.87 7.22 64.33 7.22"/>
          <polygon class="cls-39" points="65.86 6.83 65.86 207.39 65.86 207.39 65.86 207.4 253.4 207.4 253.4 85.78 253.4 85.78 253.4 6.83 65.86 6.83"/>
          <polygon class="cls-26" points="67.4 6.44 67.4 207 67.4 207 67.4 207.01 254.93 207.01 254.93 85.39 254.93 85.39 254.93 6.44 67.4 6.44"/>
          <polygon class="cls-37" points="68.93 6.05 68.93 206.61 68.93 206.61 68.93 206.62 256.46 206.62 256.46 85 256.46 85 256.46 6.05 68.93 6.05"/>
          <polygon class="cls-54" points="70.46 5.66 70.46 206.22 70.46 206.22 70.46 206.23 257.99 206.23 257.99 84.61 257.99 84.61 257.99 5.66 70.46 5.66"/>
          <polygon class="cls-7" points="71.99 5.27 71.99 205.83 71.99 205.83 71.99 205.84 259.52 205.84 259.52 84.22 259.52 84.22 259.52 5.27 71.99 5.27"/>
          <polygon class="cls-57" points="73.52 4.88 73.52 205.44 73.52 205.44 73.52 205.45 261.06 205.45 261.06 83.83 261.06 83.83 261.06 4.88 73.52 4.88"/>
          <polygon class="cls-21" points="75.05 4.49 75.05 205.05 75.05 205.05 75.05 205.06 262.59 205.06 262.59 83.44 262.59 83.44 262.59 4.49 75.05 4.49"/>
          <polygon class="cls-49" points="76.59 4.11 76.59 204.66 76.59 204.66 76.59 204.67 264.12 204.67 264.12 83.05 264.12 83.05 264.12 4.11 76.59 4.11"/>
          <polygon class="cls-52" points="78.12 3.72 78.12 204.27 78.12 204.27 78.12 204.28 265.65 204.28 265.65 82.66 265.65 82.66 265.65 3.72 78.12 3.72"/>
          <polygon class="cls-45" points="79.65 3.33 79.65 203.89 79.65 203.89 79.65 203.89 267.18 203.89 267.18 82.27 267.18 82.27 267.18 3.33 79.65 3.33"/>
          <polygon class="cls-6" points="81.18 2.94 81.18 203.5 81.18 203.5 81.18 203.5 268.71 203.5 268.71 81.88 268.71 81.88 268.71 2.94 81.18 2.94"/>
          <polygon class="cls-10" points="82.71 2.55 82.71 203.11 82.71 203.11 82.71 203.11 270.25 203.11 270.25 81.49 270.25 81.49 270.25 2.55 82.71 2.55"/>
          <polygon class="cls-17" points="84.24 2.16 84.24 202.72 84.24 202.72 84.24 202.72 271.78 202.72 271.78 81.11 271.78 81.11 271.78 2.16 84.24 2.16"/>
          <polygon class="cls-29" points="85.78 1.77 85.78 202.33 85.78 202.33 85.78 202.33 273.31 202.33 273.31 80.72 273.31 80.72 273.31 1.77 85.78 1.77"/>
          <polygon class="cls-19" points="87.31 1.38 87.31 201.94 87.31 201.94 87.31 201.94 274.84 201.94 274.84 80.33 274.84 80.33 274.84 1.38 87.31 1.38"/>
          <polygon class="cls-55" points="88.84 .99 88.84 201.55 88.84 201.55 88.84 201.56 276.37 201.56 276.37 79.94 276.37 79.94 276.37 .99 88.84 .99"/>
        </g>
        <g>
          <rect class="cls-33" x="88.62" y=".99" width="187.53" height="200.56"/>
          <rect class="cls-41" x="88.62" y="79.94" width="187.53" height="121.61"/>
          <rect class="cls-32" x="88.62" y=".99" width="187.53" height="200.56"/>
        </g>
        <path class="cls-42" d="m276.15,0H88.62c-.51,0-.93.44-.93.99v200.56c0,.55.42,1,.93,1h187.53c.51,0,.93-.45.93-1V.99c0-.55-.42-.99-.93-.99Z"/>
      </g>
    </g>
  </g>
</svg>