<?xml version="1.0" encoding="UTF-8"?>
<svg id="Layer_1" data-name="Layer 1" xmlns="http://www.w3.org/2000/svg" viewBox="0 0 228.384 235.889">
  <defs>
    <style>
      .cls-1 {
        fill: #fff;
      }

      .cls-1, .cls-2 {
        stroke: #a67c52;
        stroke-miterlimit: 10;
      }

      .cls-2 {
        fill: #1d1d1b;
      }
    </style>
  </defs>
  <g>
    <g>
      <rect class="cls-1" x="2.083" y="127.364" width="8.854" height="106.525"/>
      <path class="cls-2" d="m12.438,235.389H.583v-109.525h11.855v109.525Zm-8.855-3h5.855v-103.525H3.583v103.525Z"/>
    </g>
    <path class="cls-2" d="m16.001,234.679v-3c3.938,0,7.901-.243,11.781-.722l.367,2.977c-4.001.494-8.089.744-12.148.744Zm24.117-2.982l-.734-2.909c3.804-.959,7.588-2.17,11.248-3.598l1.09,2.795c-3.775,1.473-7.68,2.722-11.604,3.712Zm22.652-8.835l-1.428-2.639c3.447-1.866,6.817-3.968,10.017-6.25l1.741,2.443c-3.3,2.352-6.776,4.521-10.331,6.445Zm19.794-14.105l-2.025-2.212c2.892-2.649,5.652-5.505,8.206-8.489l2.279,1.95c-2.632,3.076-5.478,6.021-8.46,8.751Zm15.794-18.46l-2.498-1.66c2.169-3.267,4.161-6.702,5.919-10.209l2.682,1.344c-1.812,3.616-3.865,7.158-6.102,10.525Zm10.883-21.72l-2.826-1.008c1.317-3.695,2.421-7.511,3.279-11.342l2.928.656c-.886,3.949-2.022,7.883-3.381,11.693Zm5.317-23.708l-2.984-.298c.323-3.244.487-6.55.487-9.825h3c0,3.374-.169,6.78-.503,10.123Z"/>
  </g>
  <g>
    <g>
      <rect class="cls-1" x="217.53" y="127.364" width="8.854" height="106.525"/>
      <path class="cls-2" d="m227.884,235.389h-11.855v-109.525h11.855v109.525Zm-8.855-3h5.855v-103.525h-5.855v103.525Z"/>
    </g>
    <path class="cls-2" d="m212.467,234.679c-4.06,0-8.147-.25-12.148-.744l.367-2.977c3.88.479,7.844.722,11.781.722v3Zm-24.117-2.982c-3.924-.99-7.828-2.239-11.604-3.712l1.09-2.795c3.66,1.428,7.444,2.638,11.248,3.598l-.734,2.909Zm-22.652-8.835c-3.555-1.924-7.031-4.093-10.331-6.445l1.741-2.443c3.2,2.281,6.57,4.384,10.018,6.25l-1.428,2.639Zm-19.794-14.105c-2.981-2.73-5.828-5.674-8.46-8.751l2.279-1.95c2.554,2.984,5.315,5.84,8.206,8.489l-2.025,2.212Zm-15.794-18.46c-2.237-3.368-4.29-6.909-6.103-10.525l2.682-1.344c1.758,3.507,3.75,6.942,5.919,10.209l-2.498,1.66Zm-10.883-21.72c-1.358-3.81-2.495-7.744-3.381-11.693l2.928-.656c.858,3.831,1.962,7.647,3.279,11.342l-2.826,1.008Zm-5.317-23.708c-.334-3.343-.503-6.748-.503-10.123h3c0,3.275.164,6.581.487,9.825l-2.984.298Z"/>
  </g>
  <g>
    <rect class="cls-1" x="2" y="2" width="224.22" height="125.617"/>
    <path class="cls-2" d="m226.22,129.117H2c-.828,0-1.5-.671-1.5-1.5V2c0-.829.672-1.5,1.5-1.5h224.22c.828,0,1.5.671,1.5,1.5v125.617c0,.829-.672,1.5-1.5,1.5ZM3.5,126.117h221.22V3.5H3.5v122.617Z"/>
  </g>
  <g>
    <rect class="cls-1" x="2" y="2" width="224.22" height="125.617"/>
    <path class="cls-2" d="m226.22,129.117H2c-.828,0-1.5-.671-1.5-1.5V2c0-.829.672-1.5,1.5-1.5h224.22c.828,0,1.5.671,1.5,1.5v125.617c0,.829-.672,1.5-1.5,1.5ZM3.5,126.117h221.22V3.5H3.5v122.617Z"/>
  </g>
  <g>
    <line class="cls-1" x1="227.632" y1="64.809" x2="2.532" y2="64.809"/>
    <rect class="cls-2" x="2.532" y="63.309" width="225.101" height="3"/>
  </g>
  <g>
    <line class="cls-1" x1="13.308" y1="18.113" x2="13.308" y2="111.505"/>
    <rect class="cls-2" x="11.809" y="18.112" width="3" height="93.393"/>
  </g>
  <g>
    <line class="cls-1" x1="95.622" y1="35.934" x2="95.622" y2="93.684"/>
    <rect class="cls-2" x="94.122" y="35.934" width="3" height="57.751"/>
  </g>
  <g>
    <line class="cls-1" x1="23.761" y1="34.496" x2="23.761" y2="95.121"/>
    <rect class="cls-2" x="22.261" y="34.496" width="3" height="60.625"/>
  </g>
  <g>
    <line class="cls-1" x1="151.648" y1="34.801" x2="143.077" y2="94.817"/>
    <rect class="cls-2" x="117.05" y="63.308" width="60.625" height="3.001" transform="translate(62.387 201.539) rotate(-81.879)"/>
  </g>
  <g>
    <line class="cls-1" x1="158.433" y1="34.58" x2="162.946" y2="95.037"/>
    <rect class="cls-2" x="159.19" y="34.497" width="3.001" height="60.625" transform="translate(-4.378 12.141) rotate(-4.269)"/>
  </g>
  <g>
    <line class="cls-1" x1="167.985" y1="28.693" x2="173.377" y2="100.925"/>
    <rect class="cls-2" x="169.181" y="28.592" width="3.001" height="72.433" transform="translate(-4.351 12.884) rotate(-4.269)"/>
  </g>
  <g>
    <line class="cls-1" x1="85.692" y1="18.113" x2="85.692" y2="111.505"/>
    <rect class="cls-2" x="84.192" y="18.112" width="3" height="93.393"/>
  </g>
  <g>
    <line class="cls-1" x1="33.921" y1="18.614" x2="47.572" y2="111.003"/>
    <rect class="cls-2" x="39.247" y="18.112" width="3" height="93.393" transform="translate(-9.035 6.652) rotate(-8.405)"/>
  </g>
  <g>
    <line class="cls-1" x1="47.248" y1="18.614" x2="60.899" y2="111.003"/>
    <rect class="cls-2" x="52.573" y="18.112" width="3.001" height="93.393" transform="translate(-8.892 8.599) rotate(-8.404)"/>
  </g>
  <g>
    <line class="cls-1" x1="77.796" y1="18.344" x2="68.503" y2="111.273"/>
    <rect class="cls-2" x="26.453" y="63.309" width="93.393" height="2.999" transform="translate(1.376 131.138) rotate(-84.283)"/>
  </g>
  <g>
    <line class="cls-1" x1="196.955" y1="18.344" x2="187.662" y2="111.273"/>
    <rect class="cls-2" x="145.612" y="63.309" width="93.393" height="2.999" transform="translate(108.664 249.704) rotate(-84.283)"/>
  </g>
  <g>
    <line class="cls-1" x1="207.93" y1="18.344" x2="198.637" y2="111.273"/>
    <rect class="cls-2" x="156.588" y="63.309" width="93.393" height="2.999" transform="translate(118.546 260.625) rotate(-84.283)"/>
  </g>
  <g>
    <line class="cls-1" x1="103.169" y1="18.614" x2="116.82" y2="111.003"/>
    <rect class="cls-2" x="108.495" y="18.112" width="3.001" height="93.393" transform="translate(-8.291 16.773) rotate(-8.405)"/>
  </g>
  <g>
    <line class="cls-1" x1="133.717" y1="18.344" x2="124.424" y2="111.273"/>
    <rect class="cls-2" x="82.374" y="63.309" width="93.393" height="2.999" transform="translate(51.725 186.781) rotate(-84.283)"/>
  </g>
  <g>
    <line class="cls-1" x1="144.431" y1="18.344" x2="135.138" y2="111.273"/>
    <rect class="cls-2" x="93.088" y="63.309" width="93.393" height="2.999" transform="translate(61.372 197.441) rotate(-84.283)"/>
  </g>
</svg>