<?xml version="1.0" encoding="UTF-8"?>
<svg id="Layer_1" data-name="Layer 1" xmlns="http://www.w3.org/2000/svg" viewBox="0 0 429.35 369.559">
  <defs>
    <style>
      .cls-1 {
        fill: #fff;
      }

      .cls-2 {
        fill: #1d1d1b;
      }
    </style>
  </defs>
  <g>
    <g>
      <rect class="cls-1" x="18.289" y="1.5" width="10.723" height="184.61"/>
      <path class="cls-2" d="m16.789,187.611V0h13.723v187.611h-13.723ZM19.789,3v181.611s7.723,0,7.723,0V3s-7.723,0-7.723,0Z"/>
    </g>
    <path class="cls-2" d="m29.012,3.22V.22c4.018,0,8.083.129,12.082.384l-.191,2.994c-3.936-.251-7.936-.378-11.891-.378Zm23.732,1.515l.383-2.976c3.98.512,7.997,1.162,11.935,1.93l-.574,2.944c-3.876-.755-7.827-1.395-11.744-1.899Zm23.339,4.555l.766-2.901c3.878,1.023,7.775,2.187,11.585,3.461l-.951,2.845c-3.748-1.253-7.583-2.399-11.399-3.405Zm22.57,7.552l1.135-2.777c3.72,1.521,7.438,3.184,11.052,4.944l-1.313,2.697c-3.556-1.731-7.215-3.368-10.874-4.864Zm21.406,10.421l1.484-2.606c3.484,1.985,6.955,4.114,10.314,6.328l-1.65,2.505c-3.306-2.178-6.721-4.272-10.148-6.226Zm19.873,13.095l1.809-2.394c3.202,2.419,6.368,4.976,9.411,7.599l-1.959,2.272c-2.994-2.581-6.11-5.097-9.261-7.478Zm18.02,15.532l2.102-2.142c2.866,2.812,5.678,5.752,8.355,8.738l-2.234,2.003c-2.635-2.939-5.401-5.833-8.223-8.6Zm15.877,17.709l2.357-1.855c2.477,3.148,4.888,6.422,7.165,9.733l-2.473,1.7c-2.24-3.258-4.612-6.481-7.05-9.578Zm13.466,19.588l2.576-1.537c2.054,3.444,4.022,7,5.85,10.57l-2.67,1.367c-1.799-3.513-3.735-7.012-5.756-10.4Zm10.823,21.147l2.754-1.19c1.593,3.685,3.084,7.463,4.43,11.23l-2.824,1.01c-1.325-3.707-2.791-7.424-4.359-11.049Zm7.998,22.376l2.885-.824c1.101,3.856,2.091,7.802,2.94,11.729l-2.932.635c-.836-3.863-1.81-7.746-2.894-11.539Zm5.029,23.241l2.967-.443c.592,3.963,1.062,8.003,1.399,12.008l-2.99.251c-.331-3.941-.794-7.917-1.376-11.816Zm1.991,23.698l3-.059c.024,1.261.037,2.525.038,3.793l-3,.002c0-1.248-.014-2.493-.038-3.736Z"/>
    <path class="cls-2" d="m29.012,369.559v-3c3.962,0,7.963-.127,11.891-.378l.191,2.994c-3.991.255-8.057.384-12.082.384Zm23.732-4.515c3.922-.505,7.873-1.143,11.744-1.9l.574,2.944c-3.934.768-7.949,1.419-11.936,1.931l-.383-2.975Zm23.339-4.556c3.83-1.01,7.664-2.156,11.399-3.406l.953,2.844c-3.796,1.271-7.694,2.436-11.586,3.463l-.766-2.9Zm22.57-7.552c3.66-1.495,7.318-3.132,10.874-4.862l1.312,2.697c-3.613,1.759-7.332,3.422-11.052,4.942l-1.135-2.777Zm21.406-10.423c3.436-1.957,6.85-4.052,10.148-6.227l1.65,2.506c-3.353,2.209-6.822,4.338-10.314,6.328l-1.484-2.607Zm19.873-13.093c3.147-2.376,6.262-4.892,9.261-7.477l1.959,2.272c-3.048,2.627-6.214,5.184-9.411,7.6l-1.809-2.395Zm18.02-15.533c2.817-2.763,5.584-5.656,8.223-8.599l2.234,2.002c-2.682,2.991-5.493,5.931-8.356,8.739l-2.101-2.143Zm15.876-17.707c2.436-3.095,4.808-6.317,7.05-9.578l2.473,1.699c-2.279,3.313-4.69,6.589-7.165,9.734l-2.357-1.856Zm13.468-19.59c2.022-3.389,3.958-6.888,5.756-10.399l2.67,1.367c-1.827,3.569-3.795,7.125-5.85,10.569l-2.576-1.537Zm10.822-21.145c1.568-3.625,3.034-7.343,4.359-11.049l2.824,1.01c-1.346,3.767-2.837,7.545-4.43,11.23l-2.754-1.191Zm7.998-22.376c1.084-3.796,2.058-7.678,2.894-11.539l2.932.635c-.849,3.924-1.839,7.87-2.94,11.728l-2.885-.824Zm5.029-23.241c.582-3.899,1.045-7.875,1.376-11.816l2.99.251c-.337,4.005-.808,8.045-1.399,12.008l-2.967-.443Zm1.992-23.698c.024-1.242.037-2.487.037-3.735h3c0,1.268-.013,2.532-.037,3.793l-3-.059Z"/>
    <g>
      <polyline class="cls-1" points="17.258 19.671 4.181 19.67 4.181 55.173"/>
      <polygon class="cls-2" points="2.682 55.173 2.682 18.17 17.259 18.17 17.259 21.17 5.682 21.17 5.682 55.173 2.682 55.173"/>
    </g>
    <g>
      <rect class="cls-1" x="1.5" y="177.111" width="16.788" height="20.285"/>
      <path class="cls-2" d="m0,198.895v-23.285h19.789v23.285H0Zm3-20.285v17.285s13.789,0,13.789,0v-17.285s-13.789,0-13.789,0Z"/>
    </g>
  </g>
  <g>
    <g>
      <rect class="cls-1" x="400.339" y="1.5" width="10.723" height="184.61" transform="translate(811.4 187.611) rotate(-180)"/>
      <path class="cls-2" d="m398.839,187.611V0h13.723v187.611h-13.723Zm3-184.611v181.611s7.723,0,7.723,0V3s-7.723,0-7.723,0Z"/>
    </g>
    <path class="cls-2" d="m213.175,187.25c0-1.224.013-2.444.037-3.662l3,.061c-.025,1.242-.027,2.492-.037,3.734l-3,.002v-.135Zm.663-15.734c.337-4.005.808-8.045,1.399-12.008l2.967.443c-.582,3.899-1.045,7.875-1.376,11.816l-2.99-.251Zm3.571-23.902c.85-3.926,1.839-7.873,2.94-11.729l2.885.824c-1.084,3.793-2.058,7.676-2.894,11.539l-2.932-.635Zm6.639-23.241c1.346-3.767,2.837-7.545,4.43-11.23l2.754,1.191c-1.568,3.625-3.034,7.343-4.359,11.049l-2.824-1.01Zm9.581-22.154c1.828-3.571,3.796-7.127,5.85-10.57l2.576,1.537c-2.021,3.387-3.957,6.886-5.756,10.4l-2.67-1.367Zm12.371-20.743c2.277-3.311,4.689-6.585,7.165-9.733l2.357,1.855c-2.438,3.097-4.81,6.32-7.05,9.578l-2.473-1.7Zm14.941-18.989c2.678-2.987,5.489-5.927,8.356-8.738l2.101,2.142c-2.821,2.767-5.588,5.66-8.223,8.6l-2.234-2.003Zm17.258-16.924c3.043-2.623,6.209-5.18,9.411-7.599l1.809,2.394c-3.15,2.38-6.267,4.896-9.261,7.477l-1.959-2.272Zm19.292-14.578c3.359-2.213,6.83-4.342,10.315-6.328l1.484,2.607c-3.428,1.954-6.843,4.048-10.148,6.226l-1.65-2.505Zm21.02-11.975c3.613-1.76,7.332-3.423,11.052-4.944l1.135,2.777c-3.659,1.496-7.318,3.132-10.874,4.864l-1.312-2.697Zm22.406-9.159c3.81-1.274,7.707-2.438,11.585-3.461l.766,2.901c-3.816,1.006-7.651,2.151-11.399,3.405l-.951-2.845Zm23.372-6.161c3.938-.768,7.953-1.417,11.935-1.93l.383,2.976c-3.918.504-7.869,1.143-11.743,1.898l-.574-2.944Zm23.968-3.085c3.999-.255,8.065-.384,12.082-.384v3c-3.955,0-7.955.127-11.891.378l-.191-2.994Z"/>
    <path class="cls-2" d="m213.175,182.397l3-.002c0,1.248.014,2.494.038,3.736l-3,.059c-.024-1.261-.037-2.525-.038-3.793Zm.663,15.867l2.99-.251c.331,3.941.794,7.917,1.376,11.816l-2.967.443c-.592-3.963-1.062-8.004-1.399-12.008Zm3.571,23.902l2.932-.635c.836,3.861,1.81,7.743,2.894,11.539l-2.885.824c-1.101-3.858-2.092-7.805-2.94-11.729Zm6.638,23.24l2.824-1.01c1.325,3.706,2.791,7.424,4.359,11.049l-2.754,1.191c-1.593-3.686-3.084-7.464-4.43-11.23Zm9.582,22.154l2.67-1.367c1.798,3.512,3.734,7.011,5.756,10.399l-2.576,1.537c-2.055-3.444-4.022-7-5.85-10.569Zm12.37,20.741l2.473-1.699c2.242,3.261,4.614,6.483,7.05,9.578l-2.357,1.855c-2.476-3.146-4.886-6.421-7.165-9.734Zm14.942,18.99l2.234-2.002c2.639,2.942,5.405,5.836,8.223,8.599l-2.102,2.143c-2.862-2.809-5.674-5.748-8.355-8.739Zm17.258,16.925l1.959-2.271c2.999,2.585,6.114,5.101,9.261,7.477l-1.809,2.394c-3.197-2.416-6.363-4.973-9.411-7.6Zm19.292,14.578l1.65-2.506c3.299,2.175,6.713,4.27,10.148,6.227l-1.484,2.607c-3.492-1.99-6.962-4.119-10.314-6.328Zm21.02,11.978l1.313-2.697c3.556,1.731,7.214,3.367,10.874,4.862l-1.135,2.777c-3.72-1.521-7.438-3.184-11.052-4.942Zm22.405,9.156l.953-2.846c3.738,1.252,7.573,2.398,11.398,3.406l-.766,2.9c-3.887-1.025-7.785-2.19-11.586-3.461Zm23.372,6.16l.574-2.944c3.871.757,7.822,1.396,11.744,1.9l-.383,2.975c-3.986-.512-8.002-1.162-11.935-1.931Zm23.969,3.087l.192-2.994c3.928.251,7.929.378,11.891.378v3c-4.025,0-8.091-.129-12.082-.384Z"/>
    <g>
      <polyline class="cls-1" points="412.092 19.671 425.169 19.671 425.169 55.173"/>
      <polygon class="cls-2" points="412.092 21.17 412.092 18.17 426.669 18.17 426.669 55.173 423.669 55.173 423.669 21.17 412.092 21.17"/>
    </g>
    <g>
      <rect class="cls-1" x="411.062" y="177.111" width="16.789" height="20.285" transform="translate(838.911 374.506) rotate(-180)"/>
      <path class="cls-2" d="m409.562,198.896v-23.285h19.788v23.285h-19.788Zm3-20.285v17.285s13.788,0,13.788,0v-17.285s-13.788,0-13.788,0Z"/>
    </g>
  </g>
</svg>