<?xml version="1.0" encoding="UTF-8"?>
<svg id="Layer_1" data-name="Layer 1" xmlns="http://www.w3.org/2000/svg" viewBox="0 0 327.86 152.66">
  <defs>
    <style>
      .cls-1, .cls-2, .cls-3, .cls-4, .cls-5 {
        stroke: #000;
        stroke-miterlimit: 10;
      }

      .cls-1, .cls-3, .cls-4 {
        fill: #baa188;
      }

      .cls-1, .cls-5 {
        stroke-width: .5px;
      }

      .cls-2 {
        fill: #c5e2ed;
        stroke-width: .75px;
      }

      .cls-3 {
        stroke-width: .6px;
      }

      .cls-4 {
        stroke-width: 1.2px;
      }

      .cls-5 {
        fill: none;
      }
    </style>
  </defs>
  <rect class="cls-4" x="94.32" y=".6" width="7.97" height="131.3"/>
  <path class="cls-5" d="m233.58,131.9C233.58,59.38,174.8.6,102.28.6"/>
  <rect class="cls-4" x="86.56" y="131.88" width="7.71" height="20.18"/>
  <rect class="cls-4" x="233.58" y="131.88" width="7.71" height="20.18"/>
  <rect class="cls-5" x="249.01" y="131.88" width="70.54" height="20.18"/>
  <rect class="cls-2" x="249.01" y="136.67" width="70.54" height="10.6"/>
  <rect class="cls-4" x="279.68" y="136.67" width="4.59" height="10.6"/>
  <rect class="cls-4" x="284.27" y="136.67" width="4.59" height="10.6"/>
  <rect class="cls-5" x="8.31" y="131.88" width="70.54" height="20.18"/>
  <rect class="cls-2" x="8.31" y="136.67" width="70.54" height="10.6"/>
  <rect class="cls-4" x="38.99" y="136.67" width="4.59" height="10.6"/>
  <rect class="cls-4" x="43.58" y="136.67" width="4.59" height="10.6"/>
  <line class="cls-1" x1="8.31" y1="141.97" x2="38.99" y2="141.97"/>
  <line class="cls-1" x1="48.17" y1="141.97" x2="78.85" y2="141.97"/>
  <line class="cls-3" x1="249.01" y1="141.97" x2="279.68" y2="141.97"/>
  <line class="cls-1" x1="288.87" y1="141.97" x2="319.54" y2="141.97"/>
  <rect class="cls-4" x="241.29" y="131.88" width="7.71" height="20.18"/>
  <rect class="cls-4" x="319.54" y="131.88" width="7.71" height="20.18"/>
  <rect class="cls-4" x=".6" y="131.88" width="7.71" height="20.18"/>
  <rect class="cls-4" x="78.85" y="131.88" width="7.71" height="20.18"/>
</svg>