<?xml version="1.0" encoding="UTF-8"?>
<svg id="Layer_1" data-name="Layer 1" xmlns="http://www.w3.org/2000/svg" viewBox="0 0 265.688 46.948">
  <defs>
    <style>
      .cls-1 {
        fill: #fff;
      }

      .cls-2 {
        fill: #1d1d1b;
      }
    </style>
  </defs>
  <g>
    <g>
      <rect class="cls-1" x="34.224" y="25.163" width="16.788" height="20.285"/>
      <path class="cls-2" d="m52.513,46.948h-19.788v-23.285h19.788v23.285Zm-16.788-3h13.788v-17.285h-13.788v17.285Z"/>
    </g>
    <g>
      <rect class="cls-1" x="247.399" y="25.163" width="16.788" height="20.285"/>
      <path class="cls-2" d="m265.688,46.948h-19.788v-23.285h19.788v23.285Zm-16.788-3h13.788v-17.285h-13.788v17.285Z"/>
    </g>
  </g>
  <g>
    <rect class="cls-1" x="45.651" y="-30.82" width="10.723" height="99.025" transform="translate(69.706 -32.32) rotate(90)"/>
    <path class="cls-2" d="m102.025,25.555H0v-13.723h102.025v13.723ZM3,22.555h96.025v-7.723H3v7.723Z"/>
  </g>
  <g>
    <rect class="cls-1" x="82.802" y="-42.651" width="10.723" height="99.025" transform="translate(95.025 -81.302) rotate(90)"/>
    <path class="cls-2" d="m139.176,13.723H37.15V0h102.025v13.723Zm-99.025-3h96.025V3H40.15v7.723Z"/>
  </g>
  <path class="cls-2" d="m247.399,26.664h-12v-3h12v3Zm-24,0h-12v-3h12v3Zm-24,0h-12v-3h12v3Zm-24,0h-12v-3h12v3Zm-24,0h-12v-3h12v3Zm-24,0h-12v-3h12v3Zm-24,0h-2.874v-3h2.874v3Z"/>
</svg>