<?xml version="1.0" encoding="UTF-8"?>
<svg id="Layer_1" data-name="Layer 1" xmlns="http://www.w3.org/2000/svg" viewBox="0 0 447.496 380.994">
  <defs>
    <style>
      .cls-1 {
        fill: #fff;
      }

      .cls-2 {
        fill: #1d1d1b;
      }
    </style>
  </defs>
  <g>
    <g>
      <rect class="cls-1" x="27.362" y="1.5" width="10.723" height="184.61"/>
      <path class="cls-2" d="m39.584,187.61h-13.722V0h13.722v187.61Zm-10.723-3h7.723s0-181.61,0-181.61h-7.723s0,181.61,0,181.61Z"/>
    </g>
    <g>
      <polyline class="cls-1" points="26.331 19.67 13.254 19.67 13.254 55.172"/>
      <polygon class="cls-2" points="14.754 55.172 11.754 55.172 11.754 18.171 26.331 18.17 26.331 21.17 14.754 21.17 14.754 55.172"/>
    </g>
    <g>
      <rect class="cls-1" x="1.5" y="186.11" width="25.862" height="40.996"/>
      <path class="cls-2" d="m28.862,228.605H0v-43.995h28.862v43.995Zm-25.862-3h22.862s0-37.996,0-37.996H3s0,37.996,0,37.996Z"/>
    </g>
  </g>
  <g>
    <g>
      <rect class="cls-1" x="409.412" y="194.883" width="10.723" height="184.611" transform="translate(829.548 574.374) rotate(180)"/>
      <path class="cls-2" d="m421.635,380.994h-13.723v-187.61h13.722s0,187.61,0,187.61Zm-10.723-3h7.724s0-181.61,0-181.61h-7.723s0,181.61,0,181.61Z"/>
    </g>
    <path class="cls-2" d="m409.411,380.774c-4.022,0-8.088-.129-12.086-.384l.191-2.994c3.935.251,7.937.378,11.895.378v3Zm-24.132-1.541c-3.984-.513-8.004-1.164-11.946-1.934l.575-2.944c3.88.758,7.835,1.398,11.754,1.902l-.383,2.976Zm-23.74-4.638c-3.892-1.026-7.793-2.192-11.593-3.466l.953-2.845c3.739,1.253,7.577,2.4,11.406,3.411l-.765,2.9Zm-22.935-7.679c-3.715-1.519-7.431-3.181-11.043-4.94l1.313-2.697c3.554,1.731,7.21,3.366,10.865,4.861l-1.135,2.776Zm-21.741-10.589c-3.493-1.99-6.962-4.12-10.311-6.327l1.652-2.505c3.295,2.173,6.708,4.267,10.144,6.226l-1.485,2.606Zm-20.189-13.303c-3.207-2.422-6.372-4.979-9.411-7.599l1.96-2.272c2.989,2.577,6.104,5.093,9.259,7.477l-1.808,2.393Zm-18.312-15.786c-.434-.425-.865-.853-1.295-1.283-2.411-2.411-4.786-4.92-7.063-7.459l2.235-2.003c2.239,2.499,4.578,4.968,6.95,7.34.423.423.848.844,1.275,1.262l-2.101,2.142Zm-13.779-19.856l-2.357,1.855c-2.483-3.155-4.894-6.432-7.167-9.74l2.472-1.699c2.237,3.254,4.61,6.479,7.052,9.584Zm-13.471-19.601l-2.577,1.536c-2.058-3.451-4.026-7.011-5.852-10.58l2.671-1.367c1.797,3.512,3.734,7.015,5.758,10.411Zm-10.83-21.172l-2.754,1.19c-1.594-3.688-3.086-7.472-4.433-11.247l2.826-1.008c1.325,3.714,2.793,7.437,4.361,11.065Zm-7.994-22.389l-2.885.822c-1.099-3.852-2.086-7.797-2.935-11.725l2.932-.634c.835,3.865,1.806,7.746,2.888,11.538Zm-5.021-23.236l-2.967.442c-.59-3.963-1.06-8.004-1.396-12.012l2.99-.25c.331,3.944.792,7.921,1.373,11.821Zm-1.985-23.701l-3,.058c-.024-1.241-.037-2.485-.037-3.732v-6.226c.001-.685-.002-1.369-.01-2.054l3-.033c.007.695.011,1.391.011,2.087v6.226c-.001,1.227.011,2.452.035,3.674Zm-.564-24.077l-2.991.224c-.296-3.951-.723-7.934-1.271-11.84l2.971-.416c.557,3.969.992,8.017,1.291,12.032Zm-3.359-23.957l-2.938.609c-.801-3.87-1.741-7.764-2.792-11.574l2.892-.798c1.068,3.873,2.023,7.831,2.837,11.763Zm-6.433-23.314l-2.834.983c-1.298-3.735-2.733-7.473-4.27-11.11l2.764-1.167c1.561,3.696,3.022,7.496,4.34,11.294Zm-9.405-22.281l-2.683,1.344c-1.764-3.522-3.672-7.042-5.673-10.464l2.589-1.515c2.033,3.478,3.973,7.056,5.767,10.635Zm-12.207-20.871l-2.487,1.679c-2.213-3.278-4.559-6.523-6.974-9.644l2.373-1.837c2.455,3.173,4.839,6.47,7.088,9.802Zm-14.791-19.126l-2.25,1.985c-2.558-2.9-5.238-5.754-7.965-8.482l-.19-.19,2.121-2.121.19.19c2.772,2.772,5.495,5.672,8.094,8.619Zm-19.097-14.814c-2.971-2.603-6.064-5.144-9.196-7.552l1.829-2.378c3.182,2.446,6.327,5.028,9.345,7.674l-1.978,2.257Zm-18.857-14.497c-3.286-2.205-6.68-4.327-10.089-6.306l1.507-2.595c3.464,2.012,6.913,4.169,10.253,6.409l-1.671,2.491Zm-20.563-11.948c-3.531-1.757-7.17-3.422-10.816-4.95l1.159-2.766c3.706,1.553,7.405,3.245,10.993,5.03l-1.336,2.686Zm-21.931-9.187c-3.729-1.284-7.553-2.464-11.365-3.504l.79-2.895c3.875,1.059,7.762,2.257,11.553,3.562l-.978,2.837Zm-22.933-6.262c-3.868-.79-7.812-1.463-11.722-2l.409-2.972c3.973.547,7.982,1.231,11.912,2.034l-.599,2.939Zm-23.556-3.242c-3.926-.284-7.926-.446-11.889-.48l.026-3.001c4.026.036,8.09.2,12.08.488l-.217,2.993Z"/>
    <g>
      <polyline class="cls-1" points="421.165 361.323 434.242 361.323 434.242 325.821"/>
      <polygon class="cls-2" points="435.742 362.823 421.165 362.823 421.165 359.823 432.742 359.823 432.742 325.82 435.742 325.82 435.742 362.823"/>
    </g>
    <g>
      <rect class="cls-1" x="420.134" y="153.887" width="25.862" height="40.996" transform="translate(866.13 348.771) rotate(-180)"/>
      <path class="cls-2" d="m447.496,196.382h-28.862s0-43.995,0-43.995h28.862v43.995Zm-25.863-2.999h22.863v-37.997s-22.862,0-22.862,0v37.997Z"/>
    </g>
  </g>
</svg>