<?xml version="1.0" encoding="UTF-8"?>
<svg id="Layer_1" data-name="Layer 1" xmlns="http://www.w3.org/2000/svg" viewBox="0 0 232.963 369.56">
  <defs>
    <style>
      .cls-1 {
        fill: #fff;
      }

      .cls-2 {
        fill: #1d1d1b;
      }
    </style>
  </defs>
  <g>
    <rect class="cls-1" x="18.289" y="1.5" width="10.723" height="184.611"/>
    <path class="cls-2" d="m30.511,187.61h-13.723V0h13.723v187.61Zm-10.723-3h7.723V3h-7.723v181.61Z"/>
  </g>
  <path class="cls-2" d="m216.175,187.384h-3c0-1.248-.013-2.493-.037-3.735l3-.059c.024,1.262.037,2.526.037,3.794Zm-3.653-15.616c-.331-3.941-.794-7.916-1.376-11.816l2.967-.443c.592,3.964,1.062,8.004,1.399,12.008l-2.99.252Zm-3.513-23.52c-.836-3.861-1.81-7.743-2.894-11.539l2.885-.824c1.102,3.858,2.092,7.805,2.94,11.729l-2.932.635Zm-6.531-22.865c-1.325-3.706-2.791-7.424-4.359-11.049l2.754-1.191c1.593,3.685,3.084,7.464,4.43,11.23l-2.824,1.01Zm-9.427-21.796c-1.798-3.512-3.734-7.011-5.756-10.399l2.576-1.537c2.055,3.444,4.022,7,5.85,10.569l-2.67,1.367Zm-12.172-20.41c-2.24-3.258-4.612-6.481-7.05-9.578l2.357-1.855c2.477,3.148,4.888,6.422,7.165,9.733l-2.473,1.7Zm-14.703-18.686c-2.635-2.939-5.401-5.832-8.223-8.6l2.102-2.142c2.866,2.811,5.678,5.751,8.355,8.738l-2.234,2.003Zm-16.982-16.655c-2.994-2.581-6.11-5.097-9.261-7.477l1.809-2.394c3.202,2.419,6.368,4.976,9.411,7.599l-1.959,2.272Zm-18.985-14.346c-3.306-2.178-6.721-4.272-10.148-6.226l1.484-2.606c3.484,1.985,6.955,4.114,10.314,6.328l-1.65,2.505Zm-20.682-11.784c-3.556-1.731-7.215-3.368-10.874-4.864l1.135-2.777c3.72,1.521,7.439,3.184,11.052,4.944l-1.312,2.697Zm-22.044-9.011c-3.748-1.253-7.584-2.399-11.399-3.405l.765-2.901c3.879,1.023,7.776,2.187,11.586,3.461l-.951,2.845Zm-22.995-6.061c-3.876-.756-7.828-1.395-11.744-1.899l.383-2.975c3.98.512,7.996,1.162,11.935,1.93l-.574,2.944Zm-23.585-3.036c-3.936-.251-7.936-.378-11.891-.378V.22c4.018,0,8.083.129,12.082.384l-.191,2.994Z"/>
  <path class="cls-2" d="m29.011,369.56v-3c3.962,0,7.963-.127,11.891-.378l.191,2.994c-3.991.255-8.056.384-12.082.384Zm24.116-1.54l-.383-2.975c3.921-.505,7.872-1.143,11.743-1.9l.575,2.944c-3.935.769-7.951,1.419-11.935,1.931Zm23.721-4.63l-.765-2.9c3.829-1.01,7.664-2.156,11.398-3.406l.953,2.844c-3.796,1.271-7.694,2.436-11.586,3.463Zm22.939-7.675l-1.135-2.777c3.66-1.495,7.318-3.132,10.874-4.862l1.312,2.697c-3.613,1.759-7.332,3.422-11.052,4.942Zm21.757-10.593l-1.484-2.607c3.435-1.957,6.85-4.052,10.148-6.227l1.65,2.506c-3.352,2.209-6.822,4.338-10.314,6.328Zm20.197-13.306l-1.809-2.395c3.146-2.376,6.262-4.892,9.261-7.477l1.959,2.271c-3.048,2.627-6.214,5.184-9.411,7.6Zm18.312-15.785l-2.102-2.142c2.817-2.763,5.584-5.656,8.223-8.599l2.234,2.002c-2.682,2.991-5.493,5.931-8.355,8.739Zm16.133-17.994l-2.357-1.856c2.436-3.095,4.808-6.317,7.05-9.578l2.473,1.699c-2.279,3.314-4.69,6.589-7.165,9.734Zm13.685-19.907l-2.576-1.537c2.021-3.389,3.958-6.888,5.756-10.399l2.67,1.367c-1.827,3.569-3.795,7.125-5.85,10.569Zm11.002-21.493l-2.754-1.191c1.568-3.625,3.034-7.343,4.359-11.049l2.824,1.01c-1.346,3.767-2.837,7.545-4.43,11.231Zm8.127-22.742l-2.885-.824c1.084-3.796,2.058-7.678,2.894-11.539l2.932.635c-.849,3.924-1.839,7.87-2.94,11.729Zm5.112-23.622l-2.967-.443c.582-3.9,1.045-7.876,1.376-11.816l2.99.252c-.337,4.004-.808,8.044-1.399,12.008Zm2.024-24.082l-3-.061c.025-1.242.038-2.486.038-3.734h3c0,1.268-.013,2.533-.038,3.795Z"/>
  <g>
    <polyline class="cls-1" points="17.258 19.671 4.181 19.671 4.181 55.173"/>
    <polygon class="cls-2" points="5.681 55.173 2.681 55.173 2.681 18.17 17.258 18.17 17.258 21.17 5.681 21.17 5.681 55.173"/>
  </g>
  <g>
    <rect class="cls-1" x="1.5" y="177.111" width="16.789" height="20.285"/>
    <path class="cls-2" d="m19.789,198.895H0v-23.285h19.789v23.285Zm-16.789-3h13.789v-17.285H3v17.285Z"/>
  </g>
  <g>
    <rect class="cls-1" x="214.675" y="177.111" width="16.788" height="20.285"/>
    <path class="cls-2" d="m232.963,198.895h-19.788v-23.285h19.788v23.285Zm-16.788-3h13.788v-17.285h-13.788v17.285Z"/>
  </g>
</svg>