<?xml version="1.0" encoding="UTF-8"?>
<svg id="Layer_1" data-name="Layer 1" xmlns="http://www.w3.org/2000/svg" viewBox="0 0 406.671 138.668">
  <defs>
    <style>
      .cls-1 {
        fill: #fff;
      }

      .cls-2 {
        fill: #1d1d1b;
      }
    </style>
  </defs>
  <g>
    <polygon class="cls-1" points="9.069 117.774 9.069 96.598 1.5 96.598 1.5 137.168 16.638 137.168 16.638 117.774 9.069 117.774"/>
    <path class="cls-2" d="m18.138,138.668H0v-43.57h10.569v21.176h7.568v22.394Zm-15.138-3h12.138v-16.394h-7.568v-21.176H3v37.57Z"/>
  </g>
  <g>
    <rect class="cls-1" x="27.597" y="4.941" width="10.723" height="99.025" transform="translate(23.331 -8.465) rotate(22.485)"/>
    <path class="cls-2" d="m19.789,104.212l-12.68-5.248L46.129,4.695l12.68,5.248L19.789,104.212Zm-8.76-6.872l7.135,2.954L54.889,11.567l-7.135-2.954L11.029,97.339Z"/>
  </g>
  <g>
    <rect class="cls-1" x="74.021" y="4.941" width="10.723" height="99.025" transform="translate(173.555 74.408) rotate(157.515)"/>
    <path class="cls-2" d="m92.552,104.212L53.533,9.943l12.68-5.248,39.02,94.269-12.681,5.248ZM57.453,11.568l36.724,88.725,7.136-2.954L64.588,8.614l-7.135,2.954Z"/>
  </g>
  <g>
    <polygon class="cls-1" points="397.602 117.774 397.602 96.598 405.171 96.598 405.171 137.168 390.032 137.168 390.032 117.774 397.602 117.774"/>
    <path class="cls-2" d="m406.671,138.668h-18.139v-22.394h7.569v-21.176h10.569v43.57Zm-15.139-3h12.139v-37.57h-4.569v21.176h-7.569v16.394Z"/>
  </g>
  <g>
    <rect class="cls-1" x="368.35" y="4.941" width="10.723" height="99.025" transform="translate(739.839 -38.155) rotate(157.515)"/>
    <path class="cls-2" d="m386.882,104.212l-39.02-94.269,12.68-5.248,39.02,94.269-12.68,5.248Zm-35.1-92.644l36.725,88.726,7.135-2.954-36.725-88.726-7.135,2.954Z"/>
  </g>
  <g>
    <rect class="cls-1" x="321.927" y="4.941" width="10.723" height="99.025" transform="translate(45.705 -121.028) rotate(22.485)"/>
    <path class="cls-2" d="m314.118,104.212l-12.68-5.248L340.458,4.695l12.68,5.248-39.02,94.269Zm-8.76-6.872l7.135,2.954,36.725-88.726-7.135-2.954-36.725,88.726Z"/>
  </g>
  <path class="cls-2" d="m106.83,96.598h-3c0-4.06.255-8.148.758-12.151l2.977.374c-.487,3.879-.734,7.842-.734,11.777Zm193.173-4.892c-.202-3.929-.654-7.873-1.344-11.722l2.953-.529c.712,3.973,1.178,8.043,1.387,12.097l-2.996.154Zm-190.232-18.476l-2.906-.747c1.01-3.927,2.281-7.826,3.779-11.586l2.787,1.109c-1.451,3.644-2.683,7.42-3.66,11.224Zm186.076-4.704c-1.176-3.742-2.603-7.446-4.242-11.01l2.725-1.254c1.693,3.679,3.166,7.502,4.379,11.365l-2.861.899Zm-177.366-17.19l-2.625-1.453c1.962-3.543,4.169-6.997,6.56-10.264l2.422,1.771c-2.317,3.166-4.456,6.513-6.356,9.946Zm167.527-4.2c-2.075-3.326-4.383-6.555-6.86-9.598l2.326-1.895c2.557,3.14,4.939,6.472,7.079,9.904l-2.545,1.588Zm-153.618-14.815l-2.18-2.061c2.779-2.941,5.774-5.737,8.9-8.309l1.906,2.317c-3.03,2.492-5.933,5.201-8.627,8.052Zm138.748-3.447c-2.842-2.711-5.881-5.268-9.033-7.597l1.783-2.412c3.252,2.404,6.389,5.041,9.32,7.838l-2.07,2.171Zm-120.557-11.511l-1.6-2.538c3.425-2.16,7.021-4.121,10.685-5.829l1.268,2.719c-3.551,1.655-7.033,3.555-10.353,5.648Zm101.609-2.491c-3.426-1.918-7.007-3.635-10.644-5.103l1.123-2.782c3.754,1.516,7.451,3.288,10.986,5.268l-1.465,2.617Zm-80.269-7.453l-.912-2.857c3.854-1.231,7.829-2.227,11.812-2.961l.543,2.95c-3.858.711-7.709,1.676-11.443,2.868Zm58.418-1.364c-3.791-.994-7.686-1.755-11.579-2.263l.389-2.975c4.018.524,8.038,1.31,11.952,2.335l-.762,2.902Zm-35.259-2.905l-.168-2.995c1.825-.102,3.681-.155,5.515-.155h6.568s-.007,3.001-.007,3.001h-6.561c-1.778,0-3.577.049-5.347.149Z"/>
</svg>