<?xml version="1.0" encoding="UTF-8"?>
<svg id="Layer_1" data-name="Layer 1" xmlns="http://www.w3.org/2000/svg" xmlns:xlink="http://www.w3.org/1999/xlink" viewBox="0 0 56.245 62.107">
  <defs>
    <style>
      .cls-1 {
        stroke: url(#Earthtone_21-2);
      }

      .cls-1, .cls-2, .cls-3, .cls-4, .cls-5, .cls-6, .cls-7, .cls-8 {
        stroke-miterlimit: 10;
      }

      .cls-1, .cls-7, .cls-8 {
        fill: #050200;
      }

      .cls-2 {
        stroke: url(#Earthtone_21-3);
      }

      .cls-2, .cls-3, .cls-6 {
        fill: #fff;
      }

      .cls-3 {
        stroke: url(#Earthtone_21);
      }

      .cls-4 {
        stroke: url(#Earthtone_21-5);
      }

      .cls-4, .cls-5 {
        fill: #01090c;
      }

      .cls-5 {
        stroke: url(#Earthtone_21-6);
      }

      .cls-9 {
        fill: #b5a89c;
      }

      .cls-6 {
        stroke: url(#Earthtone_21-7);
      }

      .cls-7 {
        stroke: url(#Earthtone_21-8);
      }

      .cls-8 {
        stroke: url(#Earthtone_21-4);
      }
    </style>
    <linearGradient id="Earthtone_21" data-name="Earthtone 21" x1="50.243" y1="57.387" x2="55.843" y2="57.387" gradientUnits="userSpaceOnUse">
      <stop offset="0" stop-color="#b85e42"/>
      <stop offset=".5" stop-color="#9f2214"/>
      <stop offset="1" stop-color="#700101"/>
    </linearGradient>
    <linearGradient id="Earthtone_21-2" data-name="Earthtone 21" x1="49.842" y1="57.386" x2="56.245" y2="57.386" xlink:href="#Earthtone_21"/>
    <linearGradient id="Earthtone_21-3" data-name="Earthtone 21" y1="3.283" y2="3.283" xlink:href="#Earthtone_21"/>
    <linearGradient id="Earthtone_21-4" data-name="Earthtone 21" x1="49.842" y1="3.285" x2="56.245" y2="3.285" xlink:href="#Earthtone_21"/>
    <linearGradient id="Earthtone_21-5" data-name="Earthtone 21" x1="2.169" y1="34.01" x2="51.722" y2="34.01" xlink:href="#Earthtone_21"/>
    <linearGradient id="Earthtone_21-6" data-name="Earthtone 21" x1="0" y1="12.699" x2="6.532" y2="12.699" xlink:href="#Earthtone_21"/>
    <linearGradient id="Earthtone_21-7" data-name="Earthtone 21" x1="1.379" y1="8.101" x2="53.307" y2="8.101" xlink:href="#Earthtone_21"/>
    <linearGradient id="Earthtone_21-8" data-name="Earthtone 21" x1=".708" y1="8.1" x2="53.976" y2="8.1" xlink:href="#Earthtone_21"/>
  </defs>
  <rect class="cls-9" x="50.172" y="0" width="4.027" height="62.107"/>
  <g>
    <g>
      <rect class="cls-3" x="50.743" y="55.228" width="4.6" height="4.318"/>
      <path class="cls-1" d="m55.745,54.848v5.076h-5.403v-5.076h5.403Zm-.803,4.32v-3.563h-3.794v3.563h3.794Z"/>
    </g>
    <g>
      <rect class="cls-2" x="50.743" y="1.123" width="4.6" height="4.319"/>
      <path class="cls-8" d="m55.745.748v5.072l-5.403-.002V.748h5.403Zm-.803,4.318V1.501h-3.794v3.563l3.794.002Z"/>
    </g>
    <g>
      <path class="cls-4" d="m2.749,13.66c1.827,10.52,7.377,20.396,15.637,27.814,8.985,8.072,20.328,12.559,32.805,12.98l.011-.248C24.03,53.284,6.394,33.093,3.014,13.618l-.265.041Z"/>
      <polygon class="cls-5" points="2.407 9.998 5.341 14.863 2.938 13.916 .873 15.401 2.407 9.998"/>
    </g>
    <g>
      <path class="cls-6" d="m1.879,9.131h50.928v-2.06H1.879v2.06Z"/>
      <path class="cls-7" d="m53.476,6.441v3.319H1.208v-3.319h52.268Zm-1.337,2.064v-.808H2.547v.808h49.592Z"/>
    </g>
  </g>
</svg>