<?xml version="1.0" encoding="UTF-8"?>
<svg id="Layer_1" data-name="Layer 1" xmlns="http://www.w3.org/2000/svg" viewBox="0 0 221.987 228.18">
  <defs>
    <style>
      .cls-1 {
        fill: #fff;
      }

      .cls-2 {
        fill: #1d1d1b;
      }
    </style>
  </defs>
  <g>
    <polygon class="cls-1" points="15.608 207.286 15.608 186.111 8.039 186.111 8.039 226.68 23.177 226.68 23.177 207.286 15.608 207.286"/>
    <path class="cls-2" d="m24.677,228.18H6.539v-43.57h10.569v21.176h7.569v22.394Zm-15.138-3h12.138v-16.394h-7.569v-21.176h-4.569v37.57Z"/>
  </g>
  <g>
    <polygon class="cls-1" points="212.917 207.286 212.917 186.111 220.486 186.111 220.486 226.68 205.348 226.68 205.348 207.286 212.917 207.286"/>
    <path class="cls-2" d="m221.987,228.18h-18.139v-22.394h7.569v-21.176h10.569v43.57Zm-15.139-3h12.139v-37.57h-4.569v21.176h-7.569v16.394Z"/>
  </g>
  <g>
    <rect class="cls-1" x="15.608" y="1.5" width="10.723" height="184.611"/>
    <path class="cls-2" d="m27.831,187.61h-13.723V0h13.723v187.61Zm-10.723-3h7.723V3h-7.723v181.61Z"/>
  </g>
  <path class="cls-2" d="m210.494,187.385c-.001-1.248-.014-2.493-.038-3.736l3-.059c.024,1.261.037,2.525.038,3.792l-3,.002Zm-.653-15.618c-.331-3.941-.794-7.917-1.376-11.816l2.967-.443c.592,3.963,1.062,8.003,1.399,12.008l-2.99.251Zm-3.512-23.518c-.836-3.863-1.81-7.746-2.894-11.539l2.885-.824c1.102,3.856,2.091,7.802,2.94,11.728l-2.932.635Zm-6.532-22.866c-1.325-3.707-2.791-7.424-4.359-11.049l2.754-1.191c1.593,3.685,3.084,7.463,4.43,11.23l-2.824,1.01Zm-9.426-21.795c-1.799-3.513-3.735-7.012-5.756-10.4l2.576-1.537c2.054,3.444,4.022,7,5.85,10.57l-2.67,1.367Zm-12.174-20.411c-2.24-3.258-4.612-6.481-7.05-9.578l2.357-1.855c2.477,3.148,4.888,6.422,7.165,9.733l-2.473,1.7Zm-14.703-18.686c-2.635-2.939-5.401-5.832-8.223-8.6l2.102-2.142c2.866,2.811,5.678,5.751,8.355,8.738l-2.234,2.003Zm-16.981-16.655c-2.994-2.581-6.11-5.097-9.261-7.477l1.809-2.394c3.202,2.419,6.368,4.976,9.411,7.599l-1.959,2.272Zm-18.985-14.346c-3.306-2.178-6.721-4.272-10.148-6.226l1.484-2.606c3.484,1.985,6.955,4.114,10.315,6.328l-1.65,2.505Zm-20.681-11.783c-3.556-1.731-7.215-3.368-10.874-4.864l1.135-2.777c3.72,1.521,7.439,3.184,11.052,4.944l-1.312,2.697Zm-22.045-9.011c-3.748-1.253-7.583-2.399-11.399-3.405l.766-2.901c3.878,1.023,7.775,2.187,11.585,3.461l-.951,2.845Zm-22.994-6.061c-3.874-.755-7.825-1.395-11.744-1.899l.383-2.975c3.982.513,7.998,1.162,11.935,1.93l-.574,2.944Zm-23.586-3.036c-3.936-.251-7.936-.378-11.891-.378V.22c4.018,0,8.083.129,12.082.384l-.191,2.994Z"/>
  <g>
    <polyline class="cls-1" points="14.577 19.67 1.5 19.67 1.5 55.173"/>
    <polygon class="cls-2" points="3 55.173 0 55.173 0 18.17 14.577 18.17 14.577 21.17 3 21.17 3 55.173"/>
  </g>
</svg>