<?xml version="1.0" encoding="UTF-8"?>
<svg id="Layer_1" data-name="Layer 1" xmlns="http://www.w3.org/2000/svg" viewBox="0 0 218.973 133.974">
  <defs>
    <style>
      .cls-1 {
        fill: #fff;
      }

      .cls-2 {
        fill: #1d1d1b;
      }
    </style>
  </defs>
  <g>
    <polygon class="cls-1" points="9.069 113.08 9.069 91.904 1.5 91.904 1.5 132.474 16.638 132.474 16.638 113.08 9.069 113.08"/>
    <path class="cls-2" d="m18.138,133.974H0v-43.569h10.568v21.176h7.569v22.394Zm-15.138-3h12.138v-16.394h-7.569v-21.176H3v37.569Z"/>
  </g>
  <g>
    <rect class="cls-1" x="27.597" y=".247" width="10.723" height="99.025" transform="translate(21.536 -8.822) rotate(22.485)"/>
    <path class="cls-2" d="m19.789,99.519l-12.681-5.248L46.128,0l12.681,5.249L19.789,99.519Zm-8.761-6.873l7.136,2.953L54.889,6.874l-7.136-2.954L11.028,92.646Z"/>
  </g>
  <g>
    <rect class="cls-1" x="74.021" y=".247" width="10.723" height="99.025" transform="translate(171.76 65.377) rotate(157.515)"/>
    <path class="cls-2" d="m92.552,99.519L53.532,5.249l12.681-5.249,39.019,94.271-12.68,5.248ZM57.452,6.874l36.725,88.725,7.135-2.953L64.588,3.92l-7.136,2.954Z"/>
  </g>
  <g>
    <polygon class="cls-1" points="209.904 113.08 209.904 91.904 217.473 91.904 217.473 132.474 202.335 132.474 202.335 113.08 209.904 113.08"/>
    <path class="cls-2" d="m218.973,133.974h-18.138v-22.394h7.569v-21.176h10.568v43.569Zm-15.138-3h12.138v-37.569h-4.568v21.176h-7.569v16.394Z"/>
  </g>
  <path class="cls-2" d="m106.83,91.904h-3c0-4.134.485-8.25,1.443-12.235l2.916.701c-.901,3.756-1.359,7.636-1.359,11.534Zm101.178-6.27c-.49-3.853-1.439-7.642-2.822-11.263l2.803-1.07c1.468,3.844,2.476,7.865,2.996,11.954l-2.977.379Zm-95.778-16.153l-2.668-1.371c1.877-3.656,4.193-7.095,6.884-10.221l2.274,1.957c-2.536,2.947-4.72,6.189-6.489,9.635Zm87.559-5.386c-2.197-3.196-4.773-6.135-7.659-8.734l2.008-2.228c3.061,2.756,5.794,5.873,8.124,9.264l-2.473,1.699Zm-72.507-12.102l-1.754-2.434c3.345-2.411,6.97-4.42,10.775-5.972l1.133,2.777c-3.585,1.462-7.001,3.355-10.153,5.628Zm55.358-3.335c-3.412-1.851-7.044-3.294-10.795-4.285l.768-2.9c3.98,1.053,7.836,2.583,11.459,4.549l-1.432,2.637Zm-34.009-5.368l-.445-2.967c2.565-.385,5.192-.58,7.806-.58h3.251c.392,0,.782.004,1.171.013l-.07,3c-.365-.009-.732-.013-1.101-.013h-3.251c-2.465,0-4.941.184-7.36.547Z"/>
</svg>