<?xml version="1.0" encoding="UTF-8"?>
<svg id="Layer_1" data-name="Layer 1" xmlns="http://www.w3.org/2000/svg" xmlns:xlink="http://www.w3.org/1999/xlink" viewBox="0 0 44.295 47.767">
  <defs>
    <style>
      .cls-1 {
        fill: url(#Earthtone_21-7);
      }

      .cls-2 {
        fill: url(#Earthtone_21-3);
      }

      .cls-3 {
        fill: url(#Earthtone_21-8);
      }

      .cls-4 {
        fill: url(#Earthtone_21-2);
      }

      .cls-5 {
        fill: url(#Earthtone_21-5);
      }

      .cls-6 {
        fill: url(#Earthtone_21);
      }

      .cls-7 {
        fill: url(#Earthtone_21-4);
      }

      .cls-8 {
        fill: url(#Earthtone_21-6);
      }
    </style>
    <linearGradient id="Earthtone_21" data-name="Earthtone 21" x1="40.256" y1="45.723" x2="43.97" y2="45.723" gradientUnits="userSpaceOnUse">
      <stop offset="0" stop-color="#b85e42"/>
      <stop offset=".5" stop-color="#9f2214"/>
      <stop offset="1" stop-color="#700101"/>
    </linearGradient>
    <linearGradient id="Earthtone_21-2" data-name="Earthtone 21" x1="39.933" y1="45.72" x2="44.295" y2="45.72" xlink:href="#Earthtone_21"/>
    <linearGradient id="Earthtone_21-3" data-name="Earthtone 21" y1="2.047" y2="2.047" xlink:href="#Earthtone_21"/>
    <linearGradient id="Earthtone_21-4" data-name="Earthtone 21" x1="39.933" y1="2.048" x2="44.295" y2="2.048" xlink:href="#Earthtone_21"/>
    <linearGradient id="Earthtone_21-5" data-name="Earthtone 21" x1="1.515" y1="26.873" x2="40.627" y2="26.873" xlink:href="#Earthtone_21"/>
    <linearGradient id="Earthtone_21-6" data-name="Earthtone 21" x1="0" y1="9.648" x2="3.605" y2="9.648" xlink:href="#Earthtone_21"/>
    <linearGradient id="Earthtone_21-7" data-name="Earthtone 21" x1=".813" y1="5.935" x2="41.924" y2="5.935" xlink:href="#Earthtone_21"/>
    <linearGradient id="Earthtone_21-8" data-name="Earthtone 21" x1=".272" y1="5.935" x2="42.463" y2="5.935" xlink:href="#Earthtone_21"/>
  </defs>
  <g>
    <rect class="cls-6" x="40.256" y="43.98" width="3.714" height="3.486"/>
    <path class="cls-4" d="m44.295,43.672v4.095h-4.362v-4.095h4.362Zm-.649,3.488v-2.878h-3.062v2.878h3.062Z"/>
  </g>
  <g>
    <rect class="cls-2" x="40.256" y=".303" width="3.714" height="3.486"/>
    <path class="cls-7" d="m44.295,0v4.095l-4.362-.002V0h4.362Zm-.649,3.487V.609h-3.062v2.878h3.062Z"/>
  </g>
  <g>
    <path class="cls-5" d="m1.515,10.424c1.473,8.491,5.954,16.463,12.62,22.453,7.254,6.516,16.41,10.138,26.483,10.479l.008-.201C18.693,42.41,4.457,26.111,1.729,10.39l-.214.033Z"/>
    <polygon class="cls-8" points="1.239 7.467 3.605 11.395 1.668 10.631 0 11.828 1.239 7.467"/>
  </g>
  <g>
    <path class="cls-1" d="m.813,6.766h41.111v-1.662H.813v1.662Z"/>
    <path class="cls-3" d="m42.463,4.595v2.679H.272v-2.679h42.191Zm-1.079,1.664v-.65H1.352v.65h40.032Z"/>
  </g>
</svg>