<?xml version="1.0" encoding="UTF-8"?>
<svg id="Layer_1" data-name="Layer 1" xmlns="http://www.w3.org/2000/svg" viewBox="0 0 221.986 228.18">
  <defs>
    <style>
      .cls-1 {
        fill: #fff;
      }

      .cls-2 {
        fill: #1d1d1b;
      }
    </style>
  </defs>
  <g>
    <polygon class="cls-1" points="206.378 207.286 206.378 186.111 213.947 186.111 213.947 226.68 198.809 226.68 198.809 207.286 206.378 207.286"/>
    <path class="cls-2" d="m215.447,228.18h-18.138v-22.394h7.568v-21.175h10.569v43.569Zm-15.138-3h12.138v-37.569h-4.569v21.175h-7.568v16.394Z"/>
  </g>
  <g>
    <polygon class="cls-1" points="9.069 207.286 9.069 186.111 1.5 186.111 1.5 226.68 16.638 226.68 16.638 207.286 9.069 207.286"/>
    <path class="cls-2" d="m18.138,228.18H0v-43.569h10.568v21.175h7.569v22.394Zm-15.138-3h12.138v-16.394h-7.569v-21.175H3v37.569Z"/>
  </g>
  <g>
    <rect class="cls-1" x="195.656" y="1.5" width="10.723" height="184.61" transform="translate(402.034 187.611) rotate(180)"/>
    <path class="cls-2" d="m207.878,187.611h-13.723V0h13.723v187.611Zm-10.723-3h7.723V3h-7.723v181.611Z"/>
  </g>
  <path class="cls-2" d="m11.492,187.385l-3-.002c0-1.267.014-2.531.038-3.792l3,.059c-.024,1.243-.037,2.488-.038,3.736Zm.653-15.618l-2.99-.251c.337-4.005.808-8.045,1.399-12.008l2.967.443c-.582,3.899-1.045,7.875-1.376,11.816Zm3.512-23.518l-2.932-.635c.85-3.926,1.839-7.873,2.94-11.729l2.885.824c-1.084,3.793-2.058,7.676-2.894,11.539Zm6.532-22.866l-2.824-1.01c1.346-3.767,2.837-7.545,4.43-11.23l2.754,1.19c-1.568,3.626-3.034,7.343-4.359,11.049Zm9.427-21.795l-2.67-1.367c1.827-3.57,3.796-7.126,5.85-10.57l2.576,1.537c-2.021,3.388-3.957,6.887-5.756,10.4Zm12.172-20.411l-2.473-1.7c2.277-3.311,4.689-6.586,7.165-9.733l2.357,1.855c-2.438,3.097-4.81,6.32-7.05,9.578Zm14.704-18.687l-2.234-2.003c2.678-2.987,5.489-5.927,8.356-8.738l2.101,2.142c-2.821,2.767-5.588,5.66-8.223,8.6Zm16.981-16.654l-1.959-2.273c3.043-2.623,6.209-5.18,9.411-7.599l1.809,2.394c-3.15,2.38-6.267,4.897-9.261,7.478Zm18.985-14.346l-1.65-2.505c3.359-2.213,6.83-4.342,10.314-6.328l1.484,2.606c-3.428,1.954-6.843,4.048-10.148,6.226Zm20.681-11.783l-1.312-2.697c3.613-1.76,7.332-3.423,11.052-4.944l1.135,2.777c-3.659,1.496-7.318,3.132-10.874,4.864Zm22.045-9.011l-.951-2.845c3.81-1.274,7.707-2.439,11.585-3.461l.766,2.901c-3.816,1.006-7.651,2.151-11.399,3.405Zm22.994-6.061l-.574-2.944c3.939-.768,7.955-1.418,11.936-1.93l.383,2.976c-3.917.504-7.868,1.143-11.744,1.898Zm23.586-3.036l-.191-2.994c3.999-.255,8.065-.384,12.082-.384v3c-3.955,0-7.955.127-11.891.378Z"/>
  <g>
    <polyline class="cls-1" points="207.409 19.671 220.486 19.671 220.486 55.173"/>
    <polygon class="cls-2" points="221.986 55.173 218.986 55.173 218.986 21.17 207.409 21.17 207.409 18.17 221.986 18.17 221.986 55.173"/>
  </g>
</svg>