<?xml version="1.0" encoding="UTF-8"?>
<svg id="Layer_1" data-name="Layer 1" xmlns="http://www.w3.org/2000/svg" viewBox="0 0 427.863 228.18">
  <defs>
    <style>
      .cls-1 {
        fill: #fff;
      }

      .cls-2 {
        fill: #1d1d1b;
      }
    </style>
  </defs>
  <g>
    <g>
      <polygon class="cls-1" points="15.607 207.286 15.607 186.11 8.038 186.11 8.038 226.68 23.176 226.68 23.176 207.286 15.607 207.286"/>
      <path class="cls-2" d="m24.676,228.18H6.539v-43.569h10.569v21.176h7.568v22.394Zm-15.138-3h12.138v-16.394h-7.568v-21.176h-4.569v37.569Z"/>
    </g>
    <g>
      <rect class="cls-1" x="15.607" y="1.5" width="10.723" height="184.611"/>
      <path class="cls-2" d="m27.831,187.61h-13.723V0h13.723v187.61Zm-10.723-3h7.723V3h-7.723v181.61Z"/>
    </g>
    <path class="cls-2" d="m210.494,187.385c-.001-1.248-.014-2.493-.038-3.736l3-.059c.024,1.261.037,2.525.038,3.793l-3,.002Zm-.653-15.618c-.331-3.941-.794-7.916-1.376-11.816l2.967-.443c.592,3.963,1.062,8.003,1.399,12.008l-2.99.251Zm-3.512-23.518c-.836-3.863-1.809-7.746-2.894-11.539l2.885-.824c1.102,3.856,2.091,7.802,2.941,11.729l-2.932.635Zm-6.532-22.866c-1.325-3.707-2.791-7.424-4.359-11.049l2.754-1.19c1.593,3.685,3.084,7.463,4.43,11.23l-2.824,1.01Zm-9.427-21.795c-1.799-3.513-3.735-7.012-5.756-10.4l2.576-1.537c2.054,3.444,4.022,7,5.85,10.57l-2.67,1.367Zm-12.172-20.411c-2.24-3.258-4.612-6.481-7.05-9.578l2.357-1.855c2.477,3.148,4.888,6.422,7.165,9.733l-2.473,1.7Zm-14.704-18.686c-2.635-2.939-5.401-5.833-8.223-8.6l2.102-2.142c2.866,2.811,5.678,5.752,8.355,8.738l-2.234,2.003Zm-16.981-16.655c-2.994-2.581-6.11-5.097-9.261-7.478l1.809-2.394c3.202,2.419,6.368,4.976,9.411,7.599l-1.959,2.273Zm-18.985-14.346c-3.306-2.178-6.721-4.273-10.148-6.226l1.484-2.607c3.484,1.985,6.955,4.114,10.315,6.328l-1.65,2.505Zm-20.681-11.784c-3.556-1.731-7.215-3.368-10.874-4.864l1.135-2.777c3.72,1.521,7.439,3.184,11.052,4.944l-1.312,2.697Zm-22.045-9.011c-3.748-1.253-7.583-2.399-11.399-3.405l.766-2.901c3.878,1.023,7.775,2.187,11.585,3.461l-.951,2.845Zm-22.994-6.061c-3.876-.755-7.827-1.395-11.744-1.898l.383-2.976c3.98.512,7.997,1.162,11.936,1.93l-.574,2.944Zm-23.586-3.036c-3.936-.251-7.936-.378-11.891-.378V.22c4.018,0,8.083.129,12.082.384l-.191,2.994Z"/>
    <g>
      <polyline class="cls-1" points="14.577 19.67 1.5 19.67 1.5 55.173"/>
      <polygon class="cls-2" points="3 55.173 0 55.173 0 18.17 14.577 18.17 14.577 21.17 3 21.17 3 55.173"/>
    </g>
  </g>
  <g>
    <g>
      <polygon class="cls-1" points="412.256 207.286 412.256 186.11 419.825 186.11 419.825 226.68 404.687 226.68 404.687 207.286 412.256 207.286"/>
      <path class="cls-2" d="m421.325,228.18h-18.138v-22.394h7.568v-21.176h10.569v43.569Zm-15.138-3h12.138v-37.569h-4.569v21.176h-7.568v16.394Z"/>
    </g>
    <g>
      <rect class="cls-1" x="401.533" y="1.5" width="10.723" height="184.611" transform="translate(813.788 187.61) rotate(180)"/>
      <path class="cls-2" d="m413.755,187.61h-13.723V0h13.723v187.61Zm-10.723-3h7.723V3h-7.723v181.61Z"/>
    </g>
    <path class="cls-2" d="m217.37,187.385l-3-.002c.001-1.267.014-2.531.038-3.793l3,.059c-.024,1.243-.037,2.488-.038,3.736Zm.653-15.618l-2.99-.251c.337-4.005.808-8.045,1.399-12.008l2.967.443c-.582,3.899-1.045,7.875-1.376,11.816Zm3.512-23.518l-2.932-.635c.85-3.926,1.839-7.873,2.941-11.729l2.885.824c-1.084,3.793-2.058,7.676-2.893,11.539Zm6.532-22.866l-2.824-1.01c1.346-3.767,2.837-7.545,4.43-11.23l2.754,1.19c-1.568,3.626-3.034,7.343-4.359,11.049Zm9.427-21.795l-2.67-1.367c1.827-3.57,3.796-7.126,5.85-10.57l2.576,1.537c-2.021,3.388-3.957,6.887-5.756,10.4Zm12.172-20.411l-2.473-1.7c2.277-3.311,4.689-6.586,7.165-9.733l2.357,1.855c-2.438,3.097-4.81,6.32-7.05,9.578Zm14.704-18.686l-2.234-2.003c2.678-2.987,5.489-5.927,8.355-8.738l2.102,2.142c-2.821,2.767-5.588,5.66-8.223,8.6Zm16.982-16.655l-1.959-2.273c3.043-2.623,6.209-5.18,9.411-7.599l1.809,2.394c-3.15,2.38-6.267,4.896-9.261,7.478Zm18.985-14.346l-1.65-2.505c3.359-2.213,6.83-4.342,10.314-6.328l1.484,2.607c-3.428,1.954-6.843,4.048-10.148,6.226Zm20.681-11.784l-1.312-2.697c3.613-1.76,7.332-3.423,11.052-4.944l1.135,2.777c-3.659,1.496-7.318,3.132-10.874,4.864Zm22.045-9.011l-.951-2.845c3.809-1.274,7.707-2.438,11.585-3.461l.766,2.901c-3.816,1.006-7.651,2.152-11.399,3.405Zm22.994-6.061l-.574-2.944c3.939-.768,7.955-1.418,11.936-1.93l.383,2.976c-3.917.504-7.868,1.143-11.744,1.898Zm23.586-3.036l-.191-2.994c3.999-.254,8.064-.384,12.082-.384v3c-3.955,0-7.955.127-11.891.378Z"/>
    <g>
      <polyline class="cls-1" points="413.286 19.67 426.363 19.67 426.363 55.173"/>
      <polygon class="cls-2" points="427.863 55.173 424.863 55.173 424.863 21.17 413.286 21.17 413.286 18.17 427.863 18.17 427.863 55.173"/>
    </g>
  </g>
</svg>