<?xml version="1.0" encoding="UTF-8"?>
<svg xmlns="http://www.w3.org/2000/svg" viewBox="0 0 311.96 34.2">
  <defs>
    <style>
      .cls-1 {
        fill: #fff;
      }

      .cls-2 {
        fill: #ddd3cc;
      }

      .cls-2, .cls-3 {
        mix-blend-mode: multiply;
      }

      .cls-4 {
        isolation: isolate;
      }

      .cls-5, .cls-3 {
        fill: #050200;
      }

      .cls-6 {
        fill: #a4c5ed;
      }
    </style>
  </defs>
  <g class="cls-4">
    <g id="Layer_1" data-name="Layer 1">
      <rect class="cls-6" x="92.06" y="8.81" width="191.49" height="7.56"/>
      <rect class="cls-2" x="272.55" y="8.74" width="14.29" height="25.46"/>
      <rect class="cls-2" x="88.51" y="8.74" width="14.29" height="25.46"/>
      <g>
        <path class="cls-3" d="m284.07,20.27v-3.91s-187.81,0-187.81,0v3.91s187.81,0,187.81,0Zm-186.54-2.88h185.27v1.86H97.53v-1.86Z"/>
        <g>
          <rect class="cls-1" x="279.23" y="16.36" width="4.84" height="3.91"/>
          <path class="cls-5" d="m278.85,16.05h5.6v4.52h-5.6v-4.52Zm4.84.61h-4.08s0,3.3,0,3.3h4.08s0-3.3,0-3.3Z"/>
        </g>
        <g>
          <rect class="cls-1" x="91.5" y="16.36" width="4.84" height="3.91"/>
          <path class="cls-5" d="m91.11,16.05h5.61v4.52h-5.61v-4.52Zm4.84.61h-4.08s0,3.3,0,3.3h4.08s0-3.3,0-3.3Z"/>
        </g>
      </g>
      <g>
        <rect class="cls-2" x="0" y="0" width="311.96" height="8.99"/>
        <rect class="cls-2" x="0" y="4.97" width="311.96" height="4.02"/>
      </g>
    </g>
  </g>
</svg>