<?xml version="1.0" encoding="UTF-8"?>
<svg id="Layer_1" data-name="Layer 1" xmlns="http://www.w3.org/2000/svg" viewBox="0 0 209.55 86.92">
  <defs>
    <style>
      .cls-1 {
        fill: #fff;
      }

      .cls-2 {
        fill: #1d1d1b;
      }
    </style>
  </defs>
  <g>
    <rect class="cls-1" x="86.52" y="-83.52" width="36.51" height="206.55" transform="translate(85.02 124.53) rotate(-90)"/>
    <path class="cls-2" d="m209.55,0v39.51H0V0h209.55Zm-3,36.51V3s-203.55,0-203.55,0v33.51s203.55,0,203.55,0Z"/>
  </g>
  <g>
    <rect class="cls-1" x="99.6" y="-12.25" width="10.72" height="184.61" transform="translate(185.01 -24.9) rotate(90)"/>
    <path class="cls-2" d="m198.76,73.19v13.72H11.15v-13.72h187.61Zm-3,10.72v-7.72s-181.61,0-181.61,0v7.72s181.61,0,181.61,0Z"/>
  </g>
  <g>
    <rect class="cls-1" x="99.6" y="-49.95" width="10.72" height="184.61" transform="translate(147.31 -62.61) rotate(90)"/>
    <path class="cls-2" d="m198.76,35.49v13.72H11.15v-13.72h187.61Zm-3,10.72v-7.72s-181.61,0-181.61,0v7.72s181.61,0,181.61,0Z"/>
  </g>
  <g>
    <rect class="cls-1" x="4.65" y="55.73" width="26.72" height="10.72" transform="translate(79.11 43.08) rotate(90)"/>
    <path class="cls-2" d="m24.87,46.23v29.72h-13.72v-29.72h13.72Zm-3,26.72v-23.72s-7.72,0-7.72,0v23.72s7.72,0,7.72,0Z"/>
  </g>
  <g>
    <rect class="cls-1" x="-17.11" y="55.85" width="48.17" height="10.72" transform="translate(68.19 54.24) rotate(90)"/>
    <path class="cls-2" d="m13.83,35.63v51.17H.11v-51.17h13.72Zm-3,48.17v-45.17s-7.72,0-7.72,0v45.17s7.72,0,7.72,0Z"/>
  </g>
  <g>
    <rect class="cls-1" x="178.34" y="55.85" width="48.17" height="10.72" transform="translate(263.64 -141.21) rotate(90)"/>
    <path class="cls-2" d="m209.28,35.63v51.17h-13.72v-51.17h13.72Zm-3,48.17v-45.17s-7.72,0-7.72,0v45.17s7.72,0,7.72,0Z"/>
  </g>
  <g>
    <rect class="cls-1" x="178.27" y="55.73" width="26.72" height="10.72" transform="translate(252.73 -130.53) rotate(90)"/>
    <path class="cls-2" d="m198.49,46.23v29.72h-13.72v-29.72h13.72Zm-3,26.72v-23.72s-7.72,0-7.72,0v23.72s7.72,0,7.72,0Z"/>
  </g>
  <g>
    <line class="cls-1" x1="23.37" y1="61.21" x2="186.78" y2="61.21"/>
    <rect class="cls-2" x="23.37" y="59.71" width="163.4" height="3"/>
  </g>
</svg>