<?xml version="1.0" encoding="UTF-8"?>
<svg xmlns="http://www.w3.org/2000/svg" viewBox="0 0 311.96 34.2">
  <defs>
    <style>
      .cls-1 {
        fill: #fff;
      }

      .cls-2 {
        fill: #ddd3cc;
      }

      .cls-2, .cls-3 {
        mix-blend-mode: multiply;
      }

      .cls-4 {
        isolation: isolate;
      }

      .cls-5, .cls-3 {
        fill: #050200;
      }

      .cls-6 {
        fill: #a4c5ed;
      }
    </style>
  </defs>
  <g class="cls-4">
    <g id="Layer_1" data-name="Layer 1">
      <rect class="cls-6" x="28.42" y="17.83" width="191.49" height="7.56"/>
      <rect class="cls-2" x="25.12" width="14.29" height="25.46"/>
      <rect class="cls-2" x="209.16" width="14.29" height="25.46"/>
      <g>
        <path class="cls-3" d="m27.89,13.93v3.91h187.81v-3.91H27.89Zm186.54,2.88H29.16v-1.86h185.27v1.86Z"/>
        <g>
          <rect class="cls-1" x="27.89" y="13.93" width="4.84" height="3.91"/>
          <path class="cls-5" d="m33.11,18.15h-5.6v-4.52h5.6v4.52Zm-4.84-.61h4.08v-3.3h-4.08v3.3Z"/>
        </g>
        <g>
          <rect class="cls-1" x="215.62" y="13.93" width="4.84" height="3.91"/>
          <path class="cls-5" d="m220.85,18.15h-5.61v-4.52h5.61v4.52Zm-4.84-.61h4.08v-3.3h-4.08v3.3Z"/>
        </g>
      </g>
      <g>
        <rect class="cls-2" y="25.21" width="311.96" height="8.99"/>
        <rect class="cls-2" y="25.21" width="311.96" height="4.02"/>
      </g>
    </g>
  </g>
</svg>