<?xml version="1.0" encoding="UTF-8"?>
<svg id="Layer_1" data-name="Layer 1" xmlns="http://www.w3.org/2000/svg" viewBox="0 0 533.352 34.335">
  <defs>
    <style>
      .cls-1 {
        fill: #fff;
      }

      .cls-2 {
        fill: #1d1d1b;
      }
    </style>
  </defs>
  <g>
    <g>
      <rect class="cls-1" x="53.968" y="12.551" width="16.788" height="20.285"/>
      <path class="cls-2" d="m52.468,34.335V11.051h19.789v23.284h-19.789Zm3-20.284v17.284s13.789,0,13.789,0V14.051s-13.789,0-13.789,0Z"/>
    </g>
    <g>
      <rect class="cls-1" x="88.444" y="-85.444" width="10.723" height="184.611" transform="translate(100.667 -86.944) rotate(90)"/>
      <path class="cls-2" d="m0,13.723V0h187.61v13.723H0ZM3,3v7.723s181.61,0,181.61,0V3s-181.61,0-181.61,0Z"/>
    </g>
  </g>
  <g>
    <g>
      <rect class="cls-1" x="462.594" y="12.551" width="16.789" height="20.285" transform="translate(941.977 45.386) rotate(-180)"/>
      <path class="cls-2" d="m461.095,34.335V11.051h19.788v23.284h-19.788Zm3-20.284v17.284s13.788,0,13.788,0V14.051s-13.788,0-13.788,0Z"/>
    </g>
    <path class="cls-2" d="m193.109,14.051v-3h12v3h-12Zm24,0v-3h12v3h-12Zm24,0v-3h12v3h-12Zm24,0v-3h10.131v3h-10.131Zm22.131,0v-3h12v3h-12Zm24,0v-3h12v3h-12Zm24,0v-3h12v3h-12Z"/>
    <g>
      <rect class="cls-1" x="434.185" y="-85.444" width="10.723" height="184.611" transform="translate(446.407 -432.685) rotate(90)"/>
      <path class="cls-2" d="m345.74,13.723V0h187.611v13.723h-187.611Zm3-10.723v7.723s181.611,0,181.611,0V3s-181.611,0-181.611,0Z"/>
    </g>
  </g>
</svg>