<?xml version="1.0" encoding="UTF-8"?>
<svg xmlns="http://www.w3.org/2000/svg" viewBox="0 0 34.2 311.96">
  <defs>
    <style>
      .cls-1 {
        fill: #fff;
      }

      .cls-2 {
        fill: #ddd3cc;
      }

      .cls-2, .cls-3 {
        mix-blend-mode: multiply;
      }

      .cls-4 {
        isolation: isolate;
      }

      .cls-5, .cls-3 {
        fill: #050200;
      }

      .cls-6 {
        fill: #a4c5ed;
      }
    </style>
  </defs>
  <g class="cls-4">
    <g id="Layer_1" data-name="Layer 1">
      <rect class="cls-6" x="17.83" y="92.06" width="7.56" height="191.49"/>
      <rect class="cls-2" x="0" y="272.55" width="25.46" height="14.29"/>
      <rect class="cls-2" x="0" y="88.51" width="25.46" height="14.29"/>
      <g>
        <path class="cls-3" d="m13.93,284.07h3.91s0-187.81,0-187.81h-3.91s0,187.81,0,187.81Zm2.88-186.54v185.27h-1.86V97.53h1.86Z"/>
        <g>
          <rect class="cls-1" x="13.93" y="279.23" width="3.91" height="4.84"/>
          <path class="cls-5" d="m18.15,278.85v5.6h-4.52v-5.6h4.52Zm-.61,4.84v-4.08s-3.3,0-3.3,0v4.08s3.3,0,3.3,0Z"/>
        </g>
        <g>
          <rect class="cls-1" x="13.93" y="91.5" width="3.91" height="4.84"/>
          <path class="cls-5" d="m18.15,91.11v5.61h-4.52v-5.61h4.52Zm-.61,4.84v-4.08s-3.3,0-3.3,0v4.08s3.3,0,3.3,0Z"/>
        </g>
      </g>
      <g>
        <rect class="cls-2" x="25.21" y="0" width="8.99" height="311.96"/>
        <rect class="cls-2" x="25.21" y="0" width="4.02" height="311.96"/>
      </g>
    </g>
  </g>
</svg>