<?xml version="1.0" encoding="UTF-8"?>
<svg id="Layer_1" data-name="Layer 1" xmlns="http://www.w3.org/2000/svg" viewBox="0 0 453.446 44.221">
  <defs>
    <style>
      .cls-1 {
        fill: #fff;
      }

      .cls-2 {
        fill: #1d1d1b;
      }
    </style>
  </defs>
  <g>
    <rect class="cls-1" x="1.5" y="1.5" width="41.221" height="41.221" transform="translate(0 44.221) rotate(-90)"/>
    <path class="cls-2" d="m44.221,0v44.221H0V0h44.221Zm-3,41.221V3s-38.221,0-38.221,0v38.221s38.221,0,38.221,0Z"/>
  </g>
  <g>
    <rect class="cls-1" x="410.725" y="1.5" width="41.221" height="41.221" transform="translate(409.225 453.446) rotate(-90)"/>
    <path class="cls-2" d="m453.446,0v44.221h-44.221V0h44.221Zm-3,41.221V3s-38.221,0-38.221,0v38.221s38.221,0,38.221,0Z"/>
  </g>
  <g>
    <rect class="cls-1" x="129.122" y="-70.195" width="10.723" height="184.611" transform="translate(112.373 156.594) rotate(-90)"/>
    <path class="cls-2" d="m228.289,15.249v13.723H40.678v-13.723h187.61Zm-3,10.723v-7.723s-181.61,0-181.61,0v7.723s181.61,0,181.61,0Z"/>
  </g>
  <g>
    <rect class="cls-1" x="221.427" y="-80.918" width="10.723" height="184.611" transform="translate(215.401 238.176) rotate(-90)"/>
    <path class="cls-2" d="m320.594,4.526v13.723h-187.61V4.526h187.61Zm-3,10.723v-7.723s-181.61,0-181.61,0v7.723s181.61,0,181.61,0Z"/>
  </g>
  <path class="cls-2" d="m402.757,9.888v3h-12v-3h12Zm-24,0v3h-12v-3h12Zm-24,0v3h-12v-3h12Zm-24,0v3h-12v-3h12Z"/>
</svg>