<?xml version="1.0" encoding="UTF-8"?>
<svg id="Layer_1" data-name="Layer 1" xmlns="http://www.w3.org/2000/svg" viewBox="0 0 362.43 70.92">
  <defs>
    <style>
      .cls-1 {
        fill: #fff;
      }

      .cls-2 {
        fill: #1d1d1b;
      }
    </style>
  </defs>
  <g>
    <rect class="cls-1" x="162.69" y="-159.69" width="36.51" height="358.89" transform="translate(161.19 200.7) rotate(-90)"/>
    <path class="cls-2" d="m361.89,0v39.51H0V0h361.89Zm-3,36.51V3s-355.89,0-355.89,0v33.51s355.89,0,355.89,0Z"/>
  </g>
  <g>
    <rect class="cls-1" x="175.69" y="-115.49" width="10.72" height="359.09" transform="translate(245.1 -116.99) rotate(90)"/>
    <path class="cls-2" d="m362.09,57.19v13.72H0v-13.72h362.09Zm-3,10.72v-7.72s-356.09,0-356.09,0v7.72s356.09,0,356.09,0Z"/>
  </g>
  <g>
    <rect class="cls-1" x="175.69" y="-137.2" width="10.72" height="359.09" transform="translate(223.4 -138.7) rotate(90)"/>
    <path class="cls-2" d="m362.09,35.49v13.72H0v-13.72h362.09Zm-3,10.72v-7.72s-356.09,0-356.09,0v7.72s356.09,0,356.09,0Z"/>
  </g>
  <g>
    <rect class="cls-1" x="1.5" y="47.73" width="10.72" height="10.72" transform="translate(59.96 46.23) rotate(90)"/>
    <path class="cls-2" d="m13.72,46.23v13.72H0v-13.72h13.72Zm-3,10.72v-7.72s-7.72,0-7.72,0v7.72s7.72,0,7.72,0Z"/>
  </g>
  <g>
    <rect class="cls-1" x="175.63" y="47.73" width="10.72" height="10.72" transform="translate(234.09 -127.89) rotate(90)"/>
    <path class="cls-2" d="m187.85,46.23v13.72h-13.72v-13.72h13.72Zm-3,10.72v-7.72s-7.72,0-7.72,0v7.72s7.72,0,7.72,0Z"/>
  </g>
  <g>
    <rect class="cls-1" x="350.21" y="47.73" width="10.72" height="10.72" transform="translate(408.67 -302.48) rotate(90)"/>
    <path class="cls-2" d="m362.43,46.23v13.72h-13.72v-13.72h13.72Zm-3,10.72v-7.72s-7.72,0-7.72,0v7.72s7.72,0,7.72,0Z"/>
  </g>
</svg>