<?xml version="1.0" encoding="UTF-8"?>
<svg id="Layer_1" data-name="Layer 1" xmlns="http://www.w3.org/2000/svg" viewBox="0 0 187.85 70.92">
  <defs>
    <style>
      .cls-1 {
        fill: #fff;
      }

      .cls-2 {
        fill: #1d1d1b;
      }
    </style>
  </defs>
  <g>
    <rect class="cls-1" x="75.45" y="-72.45" width="36.51" height="184.41" transform="translate(73.95 113.46) rotate(-90)"/>
    <path class="cls-2" d="m187.41,0v39.51H0V0h187.41Zm-3,36.51V3s-181.41,0-181.41,0v33.51s181.41,0,181.41,0Z"/>
  </g>
  <g>
    <rect class="cls-1" x="88.44" y="-28.25" width="10.72" height="184.61" transform="translate(157.86 -29.75) rotate(90)"/>
    <path class="cls-2" d="m187.61,57.19v13.72H0v-13.72h187.61Zm-3,10.72v-7.72s-181.61,0-181.61,0v7.72s181.61,0,181.61,0Z"/>
  </g>
  <g>
    <rect class="cls-1" x="88.44" y="-49.95" width="10.72" height="184.61" transform="translate(136.16 -51.45) rotate(90)"/>
    <path class="cls-2" d="m187.61,35.49v13.72H0v-13.72h187.61Zm-3,10.72v-7.72s-181.61,0-181.61,0v7.72s181.61,0,181.61,0Z"/>
  </g>
  <g>
    <rect class="cls-1" x="1.5" y="47.73" width="10.72" height="10.72" transform="translate(59.96 46.23) rotate(90)"/>
    <path class="cls-2" d="m13.72,46.23v13.72H0v-13.72h13.72Zm-3,10.72v-7.72s-7.72,0-7.72,0v7.72s7.72,0,7.72,0Z"/>
  </g>
  <g>
    <rect class="cls-1" x="175.63" y="47.73" width="10.72" height="10.72" transform="translate(234.08 -127.89) rotate(90)"/>
    <path class="cls-2" d="m187.85,46.23v13.72h-13.72v-13.72h13.72Zm-3,10.72v-7.72s-7.72,0-7.72,0v7.72s7.72,0,7.72,0Z"/>
  </g>
</svg>