<?xml version="1.0" encoding="UTF-8"?>
<svg id="Layer_1" data-name="Layer 1" xmlns="http://www.w3.org/2000/svg" viewBox="0 0 422.508 44.222">
  <defs>
    <style>
      .cls-1 {
        fill: #fff;
      }

      .cls-2 {
        fill: #1d1d1b;
      }
    </style>
  </defs>
  <g>
    <rect class="cls-1" x="303.279" y="-75.008" width="41.221" height="194.237" transform="translate(301.778 346) rotate(-90)"/>
    <path class="cls-2" d="m422.508,0v44.222h-197.237V0h197.237Zm-3,41.222V3s-191.237,0-191.237,0v38.222s191.237,0,191.237,0Z"/>
  </g>
  <g>
    <rect class="cls-1" x="1.5" y="1.5" width="41.221" height="41.221" transform="translate(0 44.221) rotate(-90)"/>
    <path class="cls-2" d="m44.221,0v44.222H0V0h44.221Zm-3,41.222V3s-38.221,0-38.221,0v38.222s38.221,0,38.221,0Z"/>
  </g>
  <g>
    <rect class="cls-1" x="317.781" y="-75.008" width="12.216" height="194.237" transform="translate(301.778 346) rotate(-90)"/>
    <path class="cls-2" d="m422.508,14.503v15.216h-197.237v-15.216h197.237Zm-3,12.216v-9.216s-191.237,0-191.237,0v9.216s191.237,0,191.237,0Z"/>
  </g>
  <g>
    <rect class="cls-1" x="250.952" y="-75.008" width="12.216" height="194.237" transform="translate(234.949 279.171) rotate(-90)"/>
    <path class="cls-2" d="m355.679,14.503v15.216h-197.237v-15.216h197.237Zm-3,12.216v-9.216s-191.237,0-191.237,0v9.216s191.237,0,191.237,0Z"/>
  </g>
  <path class="cls-2" d="m150.721,20.61v3h-12v-3h12Zm-24,0v3h-12v-3h12Zm-24,0v3h-12v-3h12Zm-24,0v3h-12v-3h12Zm-24,0v3h-12v-3h12Z"/>
</svg>