<?xml version="1.0" encoding="UTF-8"?>
<svg id="Layer_1" data-name="Layer 1" xmlns="http://www.w3.org/2000/svg" viewBox="0 0 494.876 46.948">
  <defs>
    <style>
      .cls-1 {
        fill: #fff;
      }

      .cls-2 {
        fill: #1d1d1b;
      }
    </style>
  </defs>
  <g>
    <g>
      <rect class="cls-1" x="34.224" y="25.164" width="16.788" height="20.285"/>
      <path class="cls-2" d="m32.725,46.948v-23.285h19.788v23.285h-19.788Zm3-20.285v17.285s13.788,0,13.788,0v-17.285s-13.788,0-13.788,0Z"/>
    </g>
    <g>
      <rect class="cls-1" x="45.652" y="-30.819" width="10.723" height="99.025" transform="translate(69.706 -32.32) rotate(90)"/>
      <path class="cls-2" d="m0,25.555v-13.723h102.025v13.723H0Zm3-10.723v7.723s96.025,0,96.025,0v-7.723s-96.025,0-96.025,0Z"/>
    </g>
    <g>
      <rect class="cls-1" x="82.802" y="-42.651" width="10.723" height="99.025" transform="translate(95.025 -81.302) rotate(90)"/>
      <path class="cls-2" d="m37.15,13.723V0h102.025v13.723H37.15Zm3-10.723v7.723s96.025,0,96.025,0V3s-96.025,0-96.025,0Z"/>
    </g>
  </g>
  <g>
    <g>
      <rect class="cls-1" x="443.863" y="25.164" width="16.789" height="20.285" transform="translate(904.514 70.612) rotate(-180)"/>
      <path class="cls-2" d="m442.363,46.948v-23.285h19.789v23.285h-19.789Zm3-20.285v17.285s13.789,0,13.789,0v-17.285s-13.789,0-13.789,0Z"/>
    </g>
    <g>
      <rect class="cls-1" x="438.502" y="-30.819" width="10.723" height="99.025" transform="translate(462.556 -425.17) rotate(90)"/>
      <path class="cls-2" d="m392.85,25.555v-13.723h102.025v13.723h-102.025Zm3-10.723v7.723s96.025,0,96.025,0v-7.723s-96.025,0-96.025,0Z"/>
    </g>
    <g>
      <rect class="cls-1" x="401.351" y="-42.651" width="10.723" height="99.025" transform="translate(413.574 -399.851) rotate(90)"/>
      <path class="cls-2" d="m355.7,13.723V0h102.025v13.723h-102.025Zm3-10.723v7.723s96.025,0,96.025,0V3s-96.025,0-96.025,0Z"/>
    </g>
    <path class="cls-2" d="m100.525,26.663v-3h5.825v3h-5.825Zm17.825,0v-3h12v3h-12Zm24,0v-3h11.999v3h-11.999Zm23.999,0v-3h12v3h-12Zm24,0v-3h12v3h-12Zm24,0v-3h12v3h-12Zm24,0v-3h12v3h-12Zm24,0v-3h12v3h-12Zm24,0v-3h12v3h-12Zm24,0v-3h12v3h-12Zm24,0v-3h12v3h-12Zm24,0v-3h12v3h-12Zm24,0v-3h12v3h-12Z"/>
  </g>
</svg>