<?xml version="1.0" encoding="UTF-8"?><svg id="Layer_1" xmlns="http://www.w3.org/2000/svg" xmlns:xlink="http://www.w3.org/1999/xlink" viewBox="0 0 663.68 679.4"><defs><style>.cls-1{fill-rule:evenodd;}.cls-1,.cls-2{fill:#39b54a;isolation:isolate;opacity:.17;}.cls-3{clip-path:url(#clippath);}.cls-4{fill:none;}</style><clipPath id="clippath"><polygon class="cls-4" points="663.68 679.4 660.65 .64 224.28 .64 1 .76 0 131.88 0 678.4 169.92 678.4 416.8 679.4 663.68 679.4"/></clipPath></defs><g id="Layer_1-2"><polygon class="cls-2" points="663.68 679.4 660.65 .64 224.28 .64 1 .76 0 131.88 0 678.4 169.92 678.4 416.8 679.4 663.68 679.4"/><g class="cls-3"><rect class="cls-2" x=".95" width="662.41" height="679.14"/><path class="cls-1" d="m18.89,0h1.01v679.14h-1.01V0Z"/><path class="cls-1" d="m37.85,0h1.01v679.14h-1.01V0Z"/><path class="cls-1" d="m56.8,0h1.01v679.14h-1.01V0Z"/><path class="cls-1" d="m75.76,0h1.01v679.14h-1.01V0Z"/><path class="cls-1" d="m94.71,0h1.01v679.14h-1.01V0Z"/><path class="cls-1" d="m113.67,0h1.01v679.14h-1.01V0Z"/><path class="cls-1" d="m132.62,0h1.01v679.14h-1.01V0Z"/><path class="cls-1" d="m151.58,0h1.01v679.14h-1.01V0Z"/><path class="cls-1" d="m170.53,0h1.01v679.14h-1.01V0Z"/><path class="cls-1" d="m189.48,0h1.01v679.14h-1.01V0Z"/><path class="cls-1" d="m208.44,0h1.01v679.14h-1.01V0Z"/><path class="cls-1" d="m227.39,0h1.01v679.14h-1.01V0Z"/><path class="cls-1" d="m246.35,0h1.01v679.14h-1.01V0Z"/><path class="cls-1" d="m265.31,0h1.01v679.14h-1.01V0Z"/><path class="cls-1" d="m284.26,0h1.02v679.14h-1.02V0Z"/><path class="cls-1" d="m303.22,0h1.01v679.14h-1.01V0Z"/><path class="cls-1" d="m322.17,0h1.01v679.14h-1.01V0Z"/><path class="cls-1" d="m341.13,0h1.01v679.14h-1.01V0Z"/><path class="cls-1" d="m360.08,0h1.01v679.14h-1.01V0Z"/><path class="cls-1" d="m379.03,0h1.01v679.14h-1.01V0Z"/><path class="cls-1" d="m397.99,0h1.01v679.14h-1.01V0Z"/><path class="cls-1" d="m416.94,0h1.01v679.14h-1.01V0Z"/><path class="cls-1" d="m435.9,0h1.01v679.14h-1.01V0Z"/><path class="cls-1" d="m454.85,0h1.01v679.14h-1.01V0Z"/><path class="cls-1" d="m473.81,0h1.01v679.14h-1.01V0Z"/><path class="cls-1" d="m492.76,0h1.01v679.14h-1.01V0Z"/><path class="cls-1" d="m511.72,0h1.01v679.14h-1.01V0Z"/><path class="cls-1" d="m530.67,0h1.01v679.14h-1.01V0Z"/><path class="cls-1" d="m549.63,0h1.01v679.14h-1.01V0Z"/><path class="cls-1" d="m568.58,0h1.01v679.14h-1.01V0Z"/><path class="cls-1" d="m587.54,0h1.01v679.14h-1.01V0Z"/><path class="cls-1" d="m606.5,0h1.01v679.14h-1.01V0Z"/><path class="cls-1" d="m625.45,0h1.01v679.14h-1.01V0Z"/><path class="cls-1" d="m644.4,0h1.01v679.14h-1.01V0Z"/><path class="cls-1" d="m644.4,72.88v-1.04h18.96v1.04h-18.96Zm0,583.01v-1.04h18.96v1.04h-18.96Zm0-97.17v-1.04h18.96v1.04h-18.96Zm0-97.17v-1.04h18.96v1.04h-18.96Zm0-97.17v-1.04h18.96v1.04h-18.96Zm0-97.17v-1.04h18.96v1.04h-18.96Zm0-97.17v-1.04h18.96v1.04h-18.96Z"/><path class="cls-1" d="m625.45,24.29v-1.04h19.97v1.04h-19.97Zm0,583.01v-1.04h19.97v1.04h-19.97Zm0-97.17v-1.03h19.97v1.03h-19.97Zm0-97.17v-1.04h19.97v1.04h-19.97Zm0-97.17v-1.04h19.97v1.04h-19.97Zm0-97.17v-1.04h19.97v1.04h-19.97Zm0-97.17v-1.04h19.97v1.04h-19.97Z"/><path class="cls-1" d="m.95,72.88v-1.04h18.95v1.04H.95Zm0,583.01v-1.04h18.95v1.04H.95Zm0-97.17v-1.04h18.95v1.04H.95Zm0-97.17v-1.04h18.95v1.04H.95Zm0-97.17v-1.04h18.95v1.04H.95Zm0-97.17v-1.04h18.95v1.04H.95Zm0-97.17v-1.04h18.95v1.04H.95Z"/><path class="cls-1" d="m587.54,24.29v-1.04h19.96v1.04h-19.96Zm0,583.01v-1.04h19.96v1.04h-19.96Zm0-97.17v-1.03h19.96v1.03h-19.96Zm0-97.17v-1.04h19.96v1.04h-19.96Zm0-97.17v-1.04h19.96v1.04h-19.96Zm0-97.17v-1.04h19.96v1.04h-19.96Zm0-97.17v-1.04h19.96v1.04h-19.96Z"/><path class="cls-1" d="m606.5,72.88v-1.04h19.97v1.04h-19.97Zm0,583.01v-1.04h19.97v1.04h-19.97Zm0-97.17v-1.04h19.97v1.04h-19.97Zm0-97.17v-1.04h19.97v1.04h-19.97Zm0-97.17v-1.04h19.97v1.04h-19.97Zm0-97.17v-1.04h19.97v1.04h-19.97Zm0-97.17v-1.04h19.97v1.04h-19.97Z"/><path class="cls-1" d="m549.63,24.29v-1.04h19.97v1.04h-19.97Zm0,583.01v-1.04h19.97v1.04h-19.97Zm0-97.17v-1.03h19.97v1.03h-19.97Zm0-97.17v-1.04h19.97v1.04h-19.97Zm0-97.17v-1.04h19.97v1.04h-19.97Zm0-97.17v-1.04h19.97v1.04h-19.97Zm0-97.17v-1.04h19.97v1.04h-19.97Z"/><path class="cls-1" d="m568.58,72.88v-1.04h19.97v1.04h-19.97Zm0,583.01v-1.04h19.97v1.04h-19.97Zm0-97.17v-1.04h19.97v1.04h-19.97Zm0-97.17v-1.04h19.97v1.04h-19.97Zm0-97.17v-1.04h19.97v1.04h-19.97Zm0-97.17v-1.04h19.97v1.04h-19.97Zm0-97.17v-1.04h19.97v1.04h-19.97Z"/><path class="cls-1" d="m511.72,24.29v-1.04h19.96v1.04h-19.96Zm0,583.01v-1.04h19.96v1.04h-19.96Zm0-97.17v-1.03h19.96v1.03h-19.96Zm0-97.17v-1.04h19.96v1.04h-19.96Zm0-97.17v-1.04h19.96v1.04h-19.96Zm0-97.17v-1.04h19.96v1.04h-19.96Zm0-97.17v-1.04h19.96v1.04h-19.96Z"/><path class="cls-1" d="m530.67,72.88v-1.04h19.96v1.04h-19.96Zm0,583.01v-1.04h19.96v1.04h-19.96Zm0-97.17v-1.04h19.96v1.04h-19.96Zm0-97.17v-1.04h19.96v1.04h-19.96Zm0-97.17v-1.04h19.96v1.04h-19.96Zm0-97.17v-1.04h19.96v1.04h-19.96Zm0-97.17v-1.04h19.96v1.04h-19.96Z"/><path class="cls-1" d="m473.81,24.29v-1.04h19.96v1.04h-19.96Zm0,583.01v-1.04h19.96v1.04h-19.96Zm0-97.17v-1.03h19.96v1.03h-19.96Zm0-97.17v-1.04h19.96v1.04h-19.96Zm0-97.17v-1.04h19.96v1.04h-19.96Zm0-97.17v-1.04h19.96v1.04h-19.96Zm0-97.17v-1.04h19.96v1.04h-19.96Z"/><path class="cls-1" d="m492.76,72.88v-1.04h19.96v1.04h-19.96Zm0,583.01v-1.04h19.96v1.04h-19.96Zm0-97.17v-1.04h19.96v1.04h-19.96Zm0-97.17v-1.04h19.96v1.04h-19.96Zm0-97.17v-1.04h19.96v1.04h-19.96Zm0-97.17v-1.04h19.96v1.04h-19.96Zm0-97.17v-1.04h19.96v1.04h-19.96Z"/><path class="cls-1" d="m435.9,24.29v-1.04h19.97v1.04h-19.97Zm0,583.01v-1.04h19.97v1.04h-19.97Zm0-97.17v-1.03h19.97v1.03h-19.97Zm0-97.17v-1.04h19.97v1.04h-19.97Zm0-97.17v-1.04h19.97v1.04h-19.97Zm0-97.17v-1.04h19.97v1.04h-19.97Zm0-97.17v-1.04h19.97v1.04h-19.97Z"/><path class="cls-1" d="m454.85,72.88v-1.04h19.97v1.04h-19.97Zm0,583.01v-1.04h19.97v1.04h-19.97Zm0-97.17v-1.04h19.97v1.04h-19.97Zm0-97.17v-1.04h19.97v1.04h-19.97Zm0-97.17v-1.04h19.97v1.04h-19.97Zm0-97.17v-1.04h19.97v1.04h-19.97Zm0-97.17v-1.04h19.97v1.04h-19.97Z"/><path class="cls-1" d="m397.99,24.29v-1.04h19.97v1.04h-19.97Zm0,583.01v-1.04h19.97v1.04h-19.97Zm0-97.17v-1.03h19.97v1.03h-19.97Zm0-97.17v-1.04h19.97v1.04h-19.97Zm0-97.17v-1.04h19.97v1.04h-19.97Zm0-97.17v-1.04h19.97v1.04h-19.97Zm0-97.17v-1.04h19.97v1.04h-19.97Z"/><path class="cls-1" d="m416.94,72.88v-1.04h19.96v1.04h-19.96Zm0,583.01v-1.04h19.96v1.04h-19.96Zm0-97.17v-1.04h19.96v1.04h-19.96Zm0-97.17v-1.04h19.96v1.04h-19.96Zm0-97.17v-1.04h19.96v1.04h-19.96Zm0-97.17v-1.04h19.96v1.04h-19.96Zm0-97.17v-1.04h19.96v1.04h-19.96Z"/><path class="cls-1" d="m360.08,24.29v-1.04h19.97v1.04h-19.97Zm0,583.01v-1.04h19.97v1.04h-19.97Zm0-97.17v-1.03h19.97v1.03h-19.97Zm0-97.17v-1.04h19.97v1.04h-19.97Zm0-97.17v-1.04h19.97v1.04h-19.97Zm0-97.17v-1.04h19.97v1.04h-19.97Zm0-97.17v-1.04h19.97v1.04h-19.97Z"/><path class="cls-1" d="m379.03,72.88v-1.04h19.97v1.04h-19.97Zm0,583.01v-1.04h19.97v1.04h-19.97Zm0-97.17v-1.04h19.97v1.04h-19.97Zm0-97.17v-1.04h19.97v1.04h-19.97Zm0-97.17v-1.04h19.97v1.04h-19.97Zm0-97.17v-1.04h19.97v1.04h-19.97Zm0-97.17v-1.04h19.97v1.04h-19.97Z"/><path class="cls-1" d="m322.17,24.29v-1.04h19.97v1.04h-19.97Zm0,583.01v-1.04h19.97v1.04h-19.97Zm0-97.17v-1.03h19.97v1.03h-19.97Zm0-97.17v-1.04c6.66,0,277.89,1.22,284.54,1.22,0,.34-264.57-.53-264.57-.18h-19.97Zm0-97.17v-1.04h19.97v1.04h-19.97Zm0-97.17v-1.04h19.97v1.04h-19.97Zm0-97.17v-1.04h19.97v1.04h-19.97Z"/><path class="cls-1" d="m341.13,72.88v-1.04h19.97v1.04h-19.97Zm0,583.01v-1.04h19.97v1.04h-19.97Zm0-97.17v-1.04h19.97v1.04h-19.97Zm0-97.17v-1.04h19.97v1.04h-19.97Zm0-97.17v-1.04h19.97v1.04h-19.97Zm0-97.17v-1.04h19.97v1.04h-19.97Zm0-97.17v-1.04h19.97v1.04h-19.97Z"/><path class="cls-1" d="m284.26,24.29v-1.04h19.97v1.04h-19.97Zm0,583.01v-1.04h19.97v1.04h-19.97Zm0-97.17v-1.03h19.97v1.03h-19.97Zm0-97.17v-1.04h19.97v1.04h-19.97Zm0-97.17v-1.04h19.97v1.04h-19.97Zm0-97.17v-1.04h19.97v1.04h-19.97Zm0-97.17v-1.04h19.97v1.04h-19.97Z"/><path class="cls-1" d="m303.22,72.88v-1.04h19.96v1.04h-19.96Zm0,583.01v-1.04h19.96v1.04h-19.96Zm0-97.17v-1.04h19.96v1.04h-19.96Zm0-97.17v-1.04h19.96v1.04h-19.96Zm0-97.17v-1.04h19.96v1.04h-19.96Zm0-97.17v-1.04h19.96v1.04h-19.96Zm0-97.17v-1.04h19.96v1.04h-19.96Z"/><path class="cls-1" d="m246.35,24.29v-1.04h19.97v1.04h-19.97Zm0,583.01v-1.04h19.97v1.04h-19.97Zm0-97.17v-1.03h19.97v1.03h-19.97Zm0-97.17v-1.04h19.97v1.04h-19.97Zm0-97.17v-1.04h19.97v1.04h-19.97Zm0-97.17v-1.04h19.97v1.04h-19.97Zm0-97.17v-1.04h19.97v1.04h-19.97Z"/><path class="cls-1" d="m265.31,72.88v-1.04h19.97v1.04h-19.97Zm0,583.01v-1.04h19.97v1.04h-19.97Zm0-97.17v-1.04h19.97v1.04h-19.97Zm0-97.17v-1.04h19.97v1.04h-19.97Zm0-97.17v-1.04h19.97v1.04h-19.97Zm0-97.17v-1.04h19.97v1.04h-19.97Zm0-97.17v-1.04h19.97v1.04h-19.97Z"/><path class="cls-1" d="m208.44,24.29v-1.04h19.97v1.04h-19.97Zm0,583.01v-1.04h19.97v1.04h-19.97Zm0-97.17v-1.03h19.97v1.03h-19.97Zm0-97.17v-1.04h19.97v1.04h-19.97Zm0-97.17v-1.04h19.97v1.04h-19.97Zm0-97.17v-1.04h19.97v1.04h-19.97Zm0-97.17v-1.04h19.97v1.04h-19.97Z"/><path class="cls-1" d="m227.39,72.88v-1.04h19.97v1.04h-19.97Zm0,583.01v-1.04h19.97v1.04h-19.97Zm0-97.17v-1.04h19.97v1.04h-19.97Zm0-97.17v-1.04h19.97v1.04h-19.97Zm0-97.17v-1.04h19.97v1.04h-19.97Zm0-97.17v-1.04h19.97v1.04h-19.97Zm0-97.17v-1.04h19.97v1.04h-19.97Z"/><path class="cls-1" d="m170.53,24.29v-1.04h19.96v1.04h-19.96Zm0,583.01v-1.04h19.96v1.04h-19.96Zm0-97.17v-1.03h19.96v1.03h-19.96Zm0-97.17v-1.04h19.96v1.04h-19.96Zm0-97.17v-1.04h19.96v1.04h-19.96Zm0-97.17v-1.04h19.96v1.04h-19.96Zm0-97.17v-1.04h19.96v1.04h-19.96Z"/><path class="cls-1" d="m189.48,72.88v-1.04h19.97v1.04h-19.97Zm0,583.01v-1.04h19.97v1.04h-19.97Zm0-97.17v-1.04h19.97v1.04h-19.97Zm0-97.17v-1.04h19.97v1.04h-19.97Zm0-97.17v-1.04h19.97v1.04h-19.97Zm0-97.17v-1.04h19.97v1.04h-19.97Zm0-97.17v-1.04h19.97v1.04h-19.97Z"/><path class="cls-1" d="m132.62,24.29v-1.04h19.97v1.04h-19.97Zm0,583.01v-1.04h19.97v1.04h-19.97Zm0-97.17v-1.03h19.97v1.03h-19.97Zm0-97.17v-1.04h19.97v1.04h-19.97Zm0-97.17v-1.04h19.97v1.04h-19.97Zm0-97.17v-1.04h19.97v1.04h-19.97Zm0-97.17v-1.04h19.97v1.04h-19.97Z"/><path class="cls-1" d="m151.58,72.88v-1.04h19.97v1.04h-19.97Zm0,583.01v-1.04h19.97v1.04h-19.97Zm0-97.17v-1.04h19.97v1.04h-19.97Zm0-97.17v-1.04h19.97v1.04h-19.97Zm0-97.17v-1.04h19.97v1.04h-19.97Zm0-97.17v-1.04h19.97v1.04h-19.97Zm0-97.17v-1.04h19.97v1.04h-19.97Z"/><path class="cls-1" d="m94.71,24.29v-1.04h19.97v1.04h-19.97Zm0,583.01v-1.04h19.97v1.04h-19.97Zm0-97.17v-1.03h19.97v1.03h-19.97Zm0-97.17v-1.04h19.97v1.04h-19.97Zm0-97.17v-1.04h19.97v1.04h-19.97Zm0-97.17v-1.04h19.97v1.04h-19.97Zm0-97.17v-1.04h19.97v1.04h-19.97Z"/><path class="cls-1" d="m113.67,72.88v-1.04h19.97v1.04h-19.97Zm0,583.01v-1.04h19.97v1.04h-19.97Zm0-97.17v-1.04h19.97v1.04h-19.97Zm0-97.17v-1.04h19.97v1.04h-19.97Zm0-97.17v-1.04h19.97v1.04h-19.97Zm0-97.17v-1.04h19.97v1.04h-19.97Zm0-97.17v-1.04h19.97v1.04h-19.97Z"/><path class="cls-1" d="m56.8,24.29v-1.04h19.97v1.04h-19.97Zm0,583.01v-1.04h19.97v1.04h-19.97Zm0-97.17v-1.03h19.97v1.03h-19.97Zm0-97.17v-1.04h19.97v1.04h-19.97Zm0-97.17v-1.04h19.97v1.04h-19.97Zm0-97.17v-1.04h19.97v1.04h-19.97Zm0-97.17v-1.04h19.97v1.04h-19.97Z"/><path class="cls-1" d="m75.76,72.88v-1.04h19.97v1.04h-19.97Zm0,583.01v-1.04h19.97v1.04h-19.97Zm0-97.17v-1.04h19.97v1.04h-19.97Zm0-97.17v-1.04h19.97v1.04h-19.97Zm0-97.17v-1.04h19.97v1.04h-19.97Zm0-97.17v-1.04h19.97v1.04h-19.97Zm0-97.17v-1.04h19.97v1.04h-19.97Z"/><path class="cls-1" d="m18.89,24.29v-1.04h19.96v1.04s-19.96,0-19.96,0Zm0,583.01v-1.04h19.96v1.04s-19.96,0-19.96,0Zm0-97.17v-1.03h19.96v1.03s-19.96,0-19.96,0Zm0-97.17v-1.04h19.96v1.04s-19.96,0-19.96,0Zm0-97.17v-1.04h19.96v1.04s-19.96,0-19.96,0Zm0-97.17v-1.04h19.96v1.04s-19.96,0-19.96,0Zm0-97.17v-1.04h19.96v1.04s-19.96,0-19.96,0Z"/><path class="cls-1" d="m37.85,72.88v-1.04h19.97v1.04h-19.97Zm0,583.01v-1.04h19.97v1.04h-19.97Zm0-97.17v-1.04h19.97v1.04h-19.97Zm0-97.17v-1.04h19.97v1.04h-19.97Zm0-97.17v-1.04h19.97v1.04h-19.97Zm0-97.17v-1.04h19.97v1.04h-19.97Zm0-97.17v-1.04h19.97v1.04h-19.97Z"/></g></g></svg>