<?xml version="1.0" encoding="UTF-8"?><svg id="Layer_1" xmlns="http://www.w3.org/2000/svg" viewBox="0 0 524.35 302.22"><defs><style>.cls-1{fill:#d6c092;}</style></defs><rect class="cls-1" x="154.11" width="10.24" height="41.62"/><rect class="cls-1" x="154.11" y="42.15" width="10.24" height="41.62"/><rect class="cls-1" x="154.11" y="84.3" width="10.24" height="41.62"/><rect class="cls-1" x="154.11" y="126.45" width="10.24" height="41.62"/><rect class="cls-1" x="154.11" y="168.61" width="10.24" height="41.62"/><rect class="cls-1" x="154.11" y="210.76" width="10.24" height="41.62"/><rect class="cls-1" x="154.11" y="252.91" width="10.24" height="41.62"/><rect class="cls-1" x="154.11" y="295.06" width="10.24" height="6.93"/><rect class="cls-1" x="165.14" y=".67" width="10.24" height="19.02"/><rect class="cls-1" x="165.14" y="20.22" width="10.24" height="41.62"/><rect class="cls-1" x="165.14" y="62.38" width="10.24" height="41.62"/><rect class="cls-1" x="165.14" y="104.53" width="10.24" height="41.62"/><rect class="cls-1" x="165.14" y="146.68" width="10.24" height="41.62"/><rect class="cls-1" x="165.14" y="188.83" width="10.24" height="41.62"/><rect class="cls-1" x="165.14" y="230.98" width="10.24" height="41.62"/><rect class="cls-1" x="165.14" y="273.13" width="10.24" height="29.09"/><rect class="cls-1" x="176.17" width="10.24" height="41.62"/><rect class="cls-1" x="176.17" y="42.15" width="10.24" height="41.62"/><rect class="cls-1" x="176.17" y="84.3" width="10.24" height="41.62"/><rect class="cls-1" x="176.17" y="126.45" width="10.24" height="41.62"/><rect class="cls-1" x="176.17" y="168.61" width="10.24" height="41.62"/><rect class="cls-1" x="176.17" y="210.76" width="10.24" height="41.62"/><rect class="cls-1" x="176.17" y="252.91" width="10.24" height="41.62"/><rect class="cls-1" x="176.17" y="295.06" width="10.24" height="6.93"/><rect class="cls-1" x="187.2" y=".67" width="10.24" height="19.02"/><rect class="cls-1" x="187.2" y="20.22" width="10.24" height="41.62"/><rect class="cls-1" x="187.2" y="62.38" width="10.24" height="41.62"/><rect class="cls-1" x="187.2" y="104.53" width="10.24" height="41.62"/><rect class="cls-1" x="187.2" y="146.68" width="10.24" height="41.62"/><rect class="cls-1" x="187.2" y="188.83" width="10.24" height="41.62"/><rect class="cls-1" x="187.2" y="230.98" width="10.24" height="41.62"/><rect class="cls-1" x="187.2" y="273.13" width="10.24" height="29.09"/><rect class="cls-1" x="198.23" width="10.24" height="41.62"/><rect class="cls-1" x="198.23" y="42.15" width="10.24" height="41.62"/><rect class="cls-1" x="198.23" y="84.3" width="10.24" height="41.62"/><rect class="cls-1" x="198.23" y="126.45" width="10.24" height="41.62"/><rect class="cls-1" x="198.23" y="168.61" width="10.24" height="41.62"/><rect class="cls-1" x="198.23" y="210.76" width="10.24" height="41.62"/><rect class="cls-1" x="198.23" y="252.91" width="10.24" height="41.62"/><rect class="cls-1" x="198.23" y="295.06" width="10.24" height="6.93"/><rect class="cls-1" x="209.25" y=".67" width="10.24" height="19.02"/><rect class="cls-1" x="209.25" y="20.22" width="10.24" height="41.62"/><rect class="cls-1" x="209.25" y="62.38" width="10.24" height="41.62"/><rect class="cls-1" x="209.25" y="104.53" width="10.24" height="41.62"/><rect class="cls-1" x="209.25" y="146.68" width="10.24" height="41.62"/><rect class="cls-1" x="209.25" y="188.83" width="10.24" height="41.62"/><rect class="cls-1" x="209.25" y="230.98" width="10.24" height="41.62"/><rect class="cls-1" x="209.25" y="273.13" width="10.24" height="29.09"/><rect class="cls-1" x="220.28" width="10.24" height="41.62"/><rect class="cls-1" x="220.28" y="42.15" width="10.24" height="41.62"/><rect class="cls-1" x="220.28" y="84.3" width="10.24" height="41.62"/><rect class="cls-1" x="220.28" y="126.45" width="10.24" height="41.62"/><rect class="cls-1" x="220.28" y="168.61" width="10.24" height="41.62"/><rect class="cls-1" x="220.28" y="210.76" width="10.24" height="41.62"/><rect class="cls-1" x="220.28" y="252.91" width="10.24" height="41.62"/><rect class="cls-1" x="220.28" y="295.06" width="10.24" height="6.93"/><rect class="cls-1" x="231.31" y=".67" width="10.24" height="19.02"/><rect class="cls-1" x="231.31" y="20.22" width="10.24" height="41.62"/><rect class="cls-1" x="231.31" y="62.38" width="10.24" height="41.62"/><rect class="cls-1" x="231.31" y="104.53" width="10.24" height="41.62"/><rect class="cls-1" x="231.31" y="146.68" width="10.24" height="41.62"/><rect class="cls-1" x="231.31" y="188.83" width="10.24" height="41.62"/><rect class="cls-1" x="231.31" y="230.98" width="10.24" height="41.62"/><rect class="cls-1" x="231.31" y="273.13" width="10.24" height="29.09"/><rect class="cls-1" x="242.34" width="10.24" height="41.62"/><rect class="cls-1" x="242.34" y="42.15" width="10.24" height="41.62"/><rect class="cls-1" x="242.34" y="84.3" width="10.24" height="41.62"/><rect class="cls-1" x="242.34" y="126.45" width="10.24" height="41.62"/><rect class="cls-1" x="242.34" y="168.61" width="10.24" height="41.62"/><rect class="cls-1" x="242.34" y="210.76" width="10.24" height="41.62"/><rect class="cls-1" x="242.34" y="252.91" width="10.24" height="41.62"/><rect class="cls-1" x="242.34" y="295.06" width="10.24" height="6.93"/><rect class="cls-1" x="253.37" y=".67" width="10.24" height="19.02"/><rect class="cls-1" x="253.37" y="20.22" width="10.24" height="41.62"/><rect class="cls-1" x="253.37" y="62.38" width="10.24" height="41.62"/><rect class="cls-1" x="253.37" y="104.53" width="10.24" height="41.62"/><rect class="cls-1" x="253.37" y="146.68" width="10.24" height="41.62"/><rect class="cls-1" x="253.37" y="188.83" width="10.24" height="41.62"/><rect class="cls-1" x="253.37" y="230.98" width="10.24" height="41.62"/><rect class="cls-1" x="253.37" y="273.13" width="10.24" height="29.09"/><rect class="cls-1" x="264.4" width="10.24" height="41.62"/><rect class="cls-1" x="264.4" y="42.15" width="10.24" height="41.62"/><rect class="cls-1" x="264.4" y="84.3" width="10.24" height="41.62"/><rect class="cls-1" x="264.4" y="126.45" width="10.24" height="41.62"/><rect class="cls-1" x="264.4" y="168.61" width="10.24" height="41.62"/><rect class="cls-1" x="264.4" y="210.76" width="10.24" height="41.62"/><rect class="cls-1" x="264.4" y="252.91" width="10.24" height="41.62"/><rect class="cls-1" x="264.4" y="295.06" width="10.24" height="6.93"/><rect class="cls-1" x="275.43" y=".67" width="10.24" height="19.02"/><rect class="cls-1" x="275.43" y="20.22" width="10.24" height="41.62"/><rect class="cls-1" x="275.43" y="62.38" width="10.24" height="41.62"/><rect class="cls-1" x="275.43" y="104.53" width="10.24" height="41.62"/><rect class="cls-1" x="275.43" y="146.68" width="10.24" height="41.62"/><rect class="cls-1" x="275.42" y="188.83" width="10.24" height="41.62"/><rect class="cls-1" x="275.42" y="230.98" width="10.24" height="41.62"/><rect class="cls-1" x="275.42" y="273.13" width="10.24" height="29.09"/><rect class="cls-1" x="286.45" width="10.24" height="41.62"/><rect class="cls-1" x="286.45" y="42.15" width="10.24" height="41.62"/><rect class="cls-1" x="286.45" y="84.3" width="10.24" height="41.62"/><rect class="cls-1" x="286.45" y="126.45" width="10.24" height="41.62"/><rect class="cls-1" x="286.45" y="168.61" width="10.24" height="41.62"/><rect class="cls-1" x="286.45" y="210.76" width="10.24" height="41.62"/><rect class="cls-1" x="286.45" y="252.91" width="10.24" height="41.62"/><rect class="cls-1" x="286.45" y="295.06" width="10.24" height="6.93"/><rect class="cls-1" x="297.48" y=".67" width="10.24" height="19.02"/><rect class="cls-1" x="297.48" y="20.22" width="10.24" height="41.62"/><rect class="cls-1" x="297.48" y="62.38" width="10.24" height="41.62"/><rect class="cls-1" x="297.48" y="104.53" width="10.24" height="41.62"/><rect class="cls-1" x="297.48" y="146.68" width="10.24" height="41.62"/><rect class="cls-1" x="297.48" y="188.83" width="10.24" height="41.62"/><rect class="cls-1" x="297.48" y="230.98" width="10.24" height="41.62"/><rect class="cls-1" x="297.48" y="273.13" width="10.24" height="29.09"/><rect class="cls-1" width="10.24" height="41.62"/><rect class="cls-1" y="42.15" width="10.24" height="41.62"/><rect class="cls-1" y="84.3" width="10.24" height="41.62"/><rect class="cls-1" y="126.45" width="10.24" height="41.62"/><rect class="cls-1" y="168.61" width="10.24" height="41.62"/><rect class="cls-1" y="210.76" width="10.24" height="41.62"/><rect class="cls-1" y="252.91" width="10.24" height="41.62"/><rect class="cls-1" y="295.06" width="10.24" height="6.93"/><rect class="cls-1" x="11.03" y=".67" width="10.24" height="19.02"/><rect class="cls-1" x="11.03" y="20.22" width="10.24" height="41.62"/><rect class="cls-1" x="11.03" y="62.38" width="10.24" height="41.62"/><rect class="cls-1" x="11.03" y="104.53" width="10.24" height="41.62"/><rect class="cls-1" x="11.03" y="146.68" width="10.24" height="41.62"/><rect class="cls-1" x="11.03" y="188.83" width="10.24" height="41.62"/><rect class="cls-1" x="11.03" y="230.98" width="10.24" height="41.62"/><rect class="cls-1" x="11.03" y="273.13" width="10.24" height="29.09"/><rect class="cls-1" x="22.06" width="10.24" height="41.62"/><rect class="cls-1" x="22.06" y="42.15" width="10.24" height="41.62"/><rect class="cls-1" x="22.06" y="84.3" width="10.24" height="41.62"/><rect class="cls-1" x="22.06" y="126.45" width="10.24" height="41.62"/><rect class="cls-1" x="22.06" y="168.61" width="10.24" height="41.62"/><rect class="cls-1" x="22.06" y="210.76" width="10.24" height="41.62"/><rect class="cls-1" x="22.06" y="252.91" width="10.24" height="41.62"/><rect class="cls-1" x="22.06" y="295.06" width="10.24" height="6.93"/><rect class="cls-1" x="33.09" y=".67" width="10.24" height="19.02"/><rect class="cls-1" x="33.09" y="20.22" width="10.24" height="41.62"/><rect class="cls-1" x="33.09" y="62.38" width="10.24" height="41.62"/><rect class="cls-1" x="33.09" y="104.53" width="10.24" height="41.62"/><rect class="cls-1" x="33.09" y="146.68" width="10.24" height="41.62"/><rect class="cls-1" x="33.09" y="188.83" width="10.24" height="41.62"/><rect class="cls-1" x="33.09" y="230.98" width="10.24" height="41.62"/><rect class="cls-1" x="33.09" y="273.13" width="10.24" height="29.09"/><rect class="cls-1" x="44.12" width="10.24" height="41.62"/><rect class="cls-1" x="44.12" y="42.15" width="10.24" height="41.62"/><rect class="cls-1" x="44.12" y="84.3" width="10.24" height="41.62"/><rect class="cls-1" x="44.12" y="126.45" width="10.24" height="41.62"/><rect class="cls-1" x="44.12" y="168.61" width="10.24" height="41.62"/><rect class="cls-1" x="44.12" y="210.76" width="10.24" height="41.62"/><rect class="cls-1" x="44.12" y="252.91" width="10.24" height="41.62"/><rect class="cls-1" x="44.12" y="295.06" width="10.24" height="6.93"/><rect class="cls-1" x="55.14" y=".67" width="10.24" height="19.02"/><rect class="cls-1" x="55.14" y="20.22" width="10.24" height="41.62"/><rect class="cls-1" x="55.14" y="62.38" width="10.24" height="41.62"/><rect class="cls-1" x="55.14" y="104.53" width="10.24" height="41.62"/><rect class="cls-1" x="55.14" y="146.68" width="10.24" height="41.62"/><rect class="cls-1" x="55.14" y="188.83" width="10.24" height="41.62"/><rect class="cls-1" x="55.14" y="230.98" width="10.24" height="41.62"/><rect class="cls-1" x="55.14" y="273.13" width="10.24" height="29.09"/><rect class="cls-1" x="66.17" width="10.24" height="41.62"/><rect class="cls-1" x="66.17" y="42.15" width="10.24" height="41.62"/><rect class="cls-1" x="66.17" y="84.3" width="10.24" height="41.62"/><rect class="cls-1" x="66.17" y="126.45" width="10.24" height="41.62"/><rect class="cls-1" x="66.17" y="168.61" width="10.24" height="41.62"/><rect class="cls-1" x="66.17" y="210.76" width="10.24" height="41.62"/><rect class="cls-1" x="66.17" y="252.91" width="10.24" height="41.62"/><rect class="cls-1" x="66.17" y="295.06" width="10.24" height="6.93"/><rect class="cls-1" x="77.2" y=".67" width="10.24" height="19.02"/><rect class="cls-1" x="77.2" y="20.22" width="10.24" height="41.62"/><rect class="cls-1" x="77.2" y="62.38" width="10.24" height="41.62"/><rect class="cls-1" x="77.2" y="104.53" width="10.24" height="41.62"/><rect class="cls-1" x="77.2" y="146.68" width="10.24" height="41.62"/><rect class="cls-1" x="77.2" y="188.83" width="10.24" height="41.62"/><rect class="cls-1" x="77.2" y="230.98" width="10.24" height="41.62"/><rect class="cls-1" x="77.2" y="273.13" width="10.24" height="29.09"/><rect class="cls-1" x="88.23" width="10.24" height="41.62"/><rect class="cls-1" x="88.23" y="42.15" width="10.24" height="41.62"/><rect class="cls-1" x="88.23" y="84.3" width="10.24" height="41.62"/><rect class="cls-1" x="88.23" y="126.45" width="10.24" height="41.62"/><rect class="cls-1" x="88.23" y="168.61" width="10.24" height="41.62"/><rect class="cls-1" x="88.23" y="210.76" width="10.24" height="41.62"/><rect class="cls-1" x="88.23" y="252.91" width="10.24" height="41.62"/><rect class="cls-1" x="88.23" y="295.06" width="10.24" height="6.93"/><rect class="cls-1" x="99.26" y=".67" width="10.24" height="19.02"/><rect class="cls-1" x="99.26" y="20.22" width="10.24" height="41.62"/><rect class="cls-1" x="99.26" y="62.38" width="10.24" height="41.62"/><rect class="cls-1" x="99.26" y="104.53" width="10.24" height="41.62"/><rect class="cls-1" x="99.26" y="146.68" width="10.24" height="41.62"/><rect class="cls-1" x="99.26" y="188.83" width="10.24" height="41.62"/><rect class="cls-1" x="99.26" y="230.98" width="10.24" height="41.62"/><rect class="cls-1" x="99.26" y="273.13" width="10.24" height="29.09"/><rect class="cls-1" x="110.29" width="10.24" height="41.62"/><rect class="cls-1" x="110.29" y="42.15" width="10.24" height="41.62"/><rect class="cls-1" x="110.29" y="84.3" width="10.24" height="41.62"/><rect class="cls-1" x="110.29" y="126.45" width="10.24" height="41.62"/><rect class="cls-1" x="110.29" y="168.61" width="10.24" height="41.62"/><rect class="cls-1" x="110.29" y="210.76" width="10.24" height="41.62"/><rect class="cls-1" x="110.29" y="252.91" width="10.24" height="41.62"/><rect class="cls-1" x="110.29" y="295.06" width="10.24" height="6.93"/><rect class="cls-1" x="121.32" y=".67" width="10.24" height="19.02"/><rect class="cls-1" x="121.32" y="20.22" width="10.24" height="41.62"/><rect class="cls-1" x="121.32" y="62.38" width="10.24" height="41.62"/><rect class="cls-1" x="121.32" y="104.53" width="10.24" height="41.62"/><rect class="cls-1" x="121.31" y="146.68" width="10.24" height="41.62"/><rect class="cls-1" x="121.31" y="188.83" width="10.24" height="41.62"/><rect class="cls-1" x="121.31" y="230.98" width="10.24" height="41.62"/><rect class="cls-1" x="121.31" y="273.13" width="10.24" height="29.09"/><rect class="cls-1" x="132.34" width="10.24" height="41.62"/><rect class="cls-1" x="132.34" y="42.15" width="10.24" height="41.62"/><rect class="cls-1" x="132.34" y="84.3" width="10.24" height="41.62"/><rect class="cls-1" x="132.34" y="126.45" width="10.24" height="41.62"/><rect class="cls-1" x="132.34" y="168.61" width="10.24" height="41.62"/><rect class="cls-1" x="132.34" y="210.76" width="10.24" height="41.62"/><rect class="cls-1" x="132.34" y="252.91" width="10.24" height="41.62"/><rect class="cls-1" x="132.34" y="295.06" width="10.24" height="6.93"/><rect class="cls-1" x="143.37" y=".67" width="10.24" height="19.02"/><rect class="cls-1" x="143.37" y="20.22" width="10.24" height="41.62"/><rect class="cls-1" x="143.37" y="62.38" width="10.24" height="41.62"/><rect class="cls-1" x="143.37" y="104.53" width="10.24" height="41.62"/><rect class="cls-1" x="143.37" y="146.68" width="10.24" height="41.62"/><rect class="cls-1" x="143.37" y="188.83" width="10.24" height="41.62"/><rect class="cls-1" x="143.37" y="230.98" width="10.24" height="41.62"/><rect class="cls-1" x="143.37" y="273.13" width="10.24" height="29.09"/><rect class="cls-1" x="308.51" width="10.24" height="41.62"/><rect class="cls-1" x="308.51" y="42.15" width="10.24" height="41.62"/><rect class="cls-1" x="308.51" y="84.3" width="10.24" height="41.62"/><rect class="cls-1" x="308.51" y="126.45" width="10.24" height="41.62"/><rect class="cls-1" x="308.51" y="168.61" width="10.24" height="41.62"/><rect class="cls-1" x="308.51" y="210.76" width="10.24" height="41.62"/><rect class="cls-1" x="308.51" y="252.91" width="10.24" height="41.62"/><rect class="cls-1" x="308.51" y="295.06" width="10.24" height="6.93"/><rect class="cls-1" x="319.54" y=".67" width="10.24" height="19.02"/><rect class="cls-1" x="319.54" y="20.22" width="10.24" height="41.62"/><rect class="cls-1" x="319.54" y="62.38" width="10.24" height="41.62"/><rect class="cls-1" x="319.54" y="104.53" width="10.24" height="41.62"/><rect class="cls-1" x="319.54" y="146.68" width="10.24" height="41.62"/><rect class="cls-1" x="319.54" y="188.83" width="10.24" height="41.62"/><rect class="cls-1" x="319.54" y="230.98" width="10.24" height="41.62"/><rect class="cls-1" x="319.54" y="273.13" width="10.24" height="29.09"/><rect class="cls-1" x="330.57" width="10.24" height="41.62"/><rect class="cls-1" x="330.57" y="42.15" width="10.24" height="41.62"/><rect class="cls-1" x="330.57" y="84.3" width="10.24" height="41.62"/><rect class="cls-1" x="330.57" y="126.45" width="10.24" height="41.62"/><rect class="cls-1" x="330.57" y="168.61" width="10.24" height="41.62"/><rect class="cls-1" x="330.57" y="210.76" width="10.24" height="41.62"/><rect class="cls-1" x="330.57" y="252.91" width="10.24" height="41.62"/><rect class="cls-1" x="330.57" y="295.06" width="10.24" height="6.93"/><rect class="cls-1" x="341.6" y=".67" width="10.24" height="19.02"/><rect class="cls-1" x="341.6" y="20.22" width="10.24" height="41.62"/><rect class="cls-1" x="341.6" y="62.38" width="10.24" height="41.62"/><rect class="cls-1" x="341.6" y="104.53" width="10.24" height="41.62"/><rect class="cls-1" x="341.6" y="146.68" width="10.24" height="41.62"/><rect class="cls-1" x="341.6" y="188.83" width="10.24" height="41.62"/><rect class="cls-1" x="341.6" y="230.98" width="10.24" height="41.62"/><rect class="cls-1" x="341.6" y="273.13" width="10.24" height="29.09"/><rect class="cls-1" x="352.62" width="10.24" height="41.62"/><rect class="cls-1" x="352.62" y="42.15" width="10.24" height="41.62"/><rect class="cls-1" x="352.62" y="84.3" width="10.24" height="41.62"/><rect class="cls-1" x="352.62" y="126.45" width="10.24" height="41.62"/><rect class="cls-1" x="352.62" y="168.61" width="10.24" height="41.62"/><rect class="cls-1" x="352.62" y="210.76" width="10.24" height="41.62"/><rect class="cls-1" x="352.62" y="252.91" width="10.24" height="41.62"/><rect class="cls-1" x="352.62" y="295.06" width="10.24" height="6.93"/><rect class="cls-1" x="363.65" y=".67" width="10.24" height="19.02"/><rect class="cls-1" x="363.65" y="20.22" width="10.24" height="41.62"/><rect class="cls-1" x="363.65" y="62.38" width="10.24" height="41.62"/><rect class="cls-1" x="363.65" y="104.53" width="10.24" height="41.62"/><rect class="cls-1" x="363.65" y="146.68" width="10.24" height="41.62"/><rect class="cls-1" x="363.65" y="188.83" width="10.24" height="41.62"/><rect class="cls-1" x="363.65" y="230.98" width="10.24" height="41.62"/><rect class="cls-1" x="363.65" y="273.13" width="10.24" height="29.09"/><rect class="cls-1" x="374.68" width="10.24" height="41.62"/><rect class="cls-1" x="374.68" y="42.15" width="10.24" height="41.62"/><rect class="cls-1" x="374.68" y="84.3" width="10.24" height="41.62"/><rect class="cls-1" x="374.68" y="126.45" width="10.24" height="41.62"/><rect class="cls-1" x="374.68" y="168.61" width="10.24" height="41.62"/><rect class="cls-1" x="374.68" y="210.76" width="10.24" height="41.62"/><rect class="cls-1" x="374.68" y="252.91" width="10.24" height="41.62"/><rect class="cls-1" x="374.68" y="295.06" width="10.24" height="6.93"/><rect class="cls-1" x="385.71" y=".67" width="10.24" height="19.02"/><rect class="cls-1" x="385.71" y="20.22" width="10.24" height="41.62"/><rect class="cls-1" x="385.71" y="62.38" width="10.24" height="41.62"/><rect class="cls-1" x="385.71" y="104.53" width="10.24" height="41.62"/><rect class="cls-1" x="385.71" y="146.68" width="10.24" height="41.62"/><rect class="cls-1" x="385.71" y="188.83" width="10.24" height="41.62"/><rect class="cls-1" x="385.71" y="230.98" width="10.24" height="41.62"/><rect class="cls-1" x="385.71" y="273.13" width="10.24" height="29.09"/><rect class="cls-1" x="396.74" width="10.24" height="41.62"/><rect class="cls-1" x="396.74" y="42.15" width="10.24" height="41.62"/><rect class="cls-1" x="396.74" y="84.3" width="10.24" height="41.62"/><rect class="cls-1" x="396.74" y="126.45" width="10.24" height="41.62"/><rect class="cls-1" x="396.74" y="168.61" width="10.24" height="41.62"/><rect class="cls-1" x="396.74" y="210.76" width="10.24" height="41.62"/><rect class="cls-1" x="396.74" y="252.91" width="10.24" height="41.62"/><rect class="cls-1" x="396.74" y="295.06" width="10.24" height="6.93"/><rect class="cls-1" x="407.77" y=".67" width="10.24" height="19.02"/><rect class="cls-1" x="407.77" y="20.22" width="10.24" height="41.62"/><rect class="cls-1" x="407.77" y="62.38" width="10.24" height="41.62"/><rect class="cls-1" x="407.77" y="104.53" width="10.24" height="41.62"/><rect class="cls-1" x="407.77" y="146.68" width="10.24" height="41.62"/><rect class="cls-1" x="407.77" y="188.83" width="10.24" height="41.62"/><rect class="cls-1" x="407.77" y="230.98" width="10.24" height="41.62"/><rect class="cls-1" x="407.77" y="273.13" width="10.24" height="29.09"/><rect class="cls-1" x="418.8" width="10.24" height="41.62"/><rect class="cls-1" x="418.8" y="42.15" width="10.24" height="41.62"/><rect class="cls-1" x="418.8" y="84.3" width="10.24" height="41.62"/><rect class="cls-1" x="418.8" y="126.45" width="10.24" height="41.62"/><rect class="cls-1" x="418.8" y="168.61" width="10.24" height="41.62"/><rect class="cls-1" x="418.8" y="210.76" width="10.24" height="41.62"/><rect class="cls-1" x="418.8" y="252.91" width="10.24" height="41.62"/><rect class="cls-1" x="418.8" y="295.06" width="10.24" height="6.93"/><rect class="cls-1" x="429.82" y=".67" width="10.24" height="19.02"/><rect class="cls-1" x="429.82" y="20.22" width="10.24" height="41.62"/><rect class="cls-1" x="429.82" y="62.38" width="10.24" height="41.62"/><rect class="cls-1" x="429.82" y="104.53" width="10.24" height="41.62"/><rect class="cls-1" x="429.82" y="146.68" width="10.24" height="41.62"/><rect class="cls-1" x="429.82" y="188.83" width="10.24" height="41.62"/><rect class="cls-1" x="429.82" y="230.98" width="10.24" height="41.62"/><rect class="cls-1" x="429.82" y="273.13" width="10.24" height="29.09"/><rect class="cls-1" x="440.85" width="10.24" height="41.62"/><rect class="cls-1" x="440.85" y="42.15" width="10.24" height="41.62"/><rect class="cls-1" x="440.85" y="84.3" width="10.24" height="41.62"/><rect class="cls-1" x="440.85" y="126.45" width="10.24" height="41.62"/><rect class="cls-1" x="440.85" y="168.61" width="10.24" height="41.62"/><rect class="cls-1" x="440.85" y="210.76" width="10.24" height="41.62"/><rect class="cls-1" x="440.85" y="252.91" width="10.24" height="41.62"/><rect class="cls-1" x="440.85" y="295.06" width="10.24" height="6.93"/><rect class="cls-1" x="451.88" y=".67" width="10.24" height="19.02"/><rect class="cls-1" x="451.88" y="20.22" width="10.24" height="41.62"/><rect class="cls-1" x="451.88" y="62.38" width="10.24" height="41.62"/><rect class="cls-1" x="451.88" y="104.53" width="10.24" height="41.62"/><rect class="cls-1" x="451.88" y="146.68" width="10.24" height="41.62"/><rect class="cls-1" x="451.88" y="188.83" width="10.24" height="41.62"/><rect class="cls-1" x="451.88" y="230.98" width="10.24" height="41.62"/><rect class="cls-1" x="451.88" y="273.13" width="10.24" height="29.09"/><rect class="cls-1" x="462.91" width="10.24" height="41.62"/><rect class="cls-1" x="462.91" y="42.15" width="10.24" height="41.62"/><rect class="cls-1" x="462.91" y="84.3" width="10.24" height="41.62"/><rect class="cls-1" x="462.91" y="126.45" width="10.24" height="41.62"/><rect class="cls-1" x="462.91" y="168.61" width="10.24" height="41.62"/><rect class="cls-1" x="462.91" y="210.76" width="10.24" height="41.62"/><rect class="cls-1" x="462.91" y="252.91" width="10.24" height="41.62"/><rect class="cls-1" x="462.91" y="295.06" width="10.24" height="6.93"/><rect class="cls-1" x="473.94" y=".67" width="10.24" height="19.02"/><rect class="cls-1" x="473.94" y="20.22" width="10.24" height="41.62"/><rect class="cls-1" x="473.94" y="62.38" width="10.24" height="41.62"/><rect class="cls-1" x="473.94" y="104.53" width="10.24" height="41.62"/><rect class="cls-1" x="473.94" y="146.68" width="10.24" height="41.62"/><rect class="cls-1" x="473.94" y="188.83" width="10.24" height="41.62"/><rect class="cls-1" x="473.94" y="230.98" width="10.24" height="41.62"/><rect class="cls-1" x="473.94" y="273.13" width="10.24" height="29.09"/><rect class="cls-1" x="484.97" width="10.24" height="41.62"/><rect class="cls-1" x="484.97" y="42.15" width="10.24" height="41.62"/><rect class="cls-1" x="484.97" y="84.3" width="10.24" height="41.62"/><rect class="cls-1" x="484.97" y="126.45" width="10.24" height="41.62"/><rect class="cls-1" x="484.97" y="168.61" width="10.24" height="41.62"/><rect class="cls-1" x="484.97" y="210.76" width="10.24" height="41.62"/><rect class="cls-1" x="484.97" y="252.91" width="10.24" height="41.62"/><rect class="cls-1" x="484.97" y="295.06" width="10.24" height="6.93"/><rect class="cls-1" x="495.99" y=".67" width="10.24" height="19.02"/><rect class="cls-1" x="495.99" y="20.22" width="10.24" height="41.62"/><rect class="cls-1" x="495.99" y="62.38" width="10.24" height="41.62"/><rect class="cls-1" x="495.99" y="104.53" width="10.24" height="41.62"/><rect class="cls-1" x="495.99" y="146.68" width="10.24" height="41.62"/><rect class="cls-1" x="495.99" y="188.83" width="10.24" height="41.62"/><rect class="cls-1" x="495.99" y="230.98" width="10.24" height="41.62"/><rect class="cls-1" x="495.99" y="273.13" width="10.24" height="29.09"/><rect class="cls-1" x="507.02" width="10.24" height="41.62"/><rect class="cls-1" x="507.02" y="42.15" width="10.24" height="41.62"/><rect class="cls-1" x="507.02" y="84.3" width="10.24" height="41.62"/><rect class="cls-1" x="507.02" y="126.45" width="10.24" height="41.62"/><rect class="cls-1" x="507.02" y="168.61" width="10.24" height="41.62"/><rect class="cls-1" x="507.02" y="210.76" width="10.24" height="41.62"/><rect class="cls-1" x="507.02" y="252.91" width="10.24" height="41.62"/><rect class="cls-1" x="507.02" y="295.06" width="10.24" height="6.93"/><rect class="cls-1" x="518.05" y=".67" width="6.3" height="19.02"/><rect class="cls-1" x="518.05" y="20.22" width="6.3" height="41.62"/><rect class="cls-1" x="518.05" y="62.38" width="6.3" height="41.62"/><rect class="cls-1" x="518.05" y="104.53" width="6.3" height="41.62"/><rect class="cls-1" x="518.05" y="146.68" width="6.3" height="41.62"/><rect class="cls-1" x="518.05" y="188.83" width="6.3" height="41.62"/><rect class="cls-1" x="518.05" y="230.98" width="6.3" height="41.62"/><rect class="cls-1" x="518.05" y="273.13" width="6.3" height="29.09"/></svg>