<?xml version="1.0" encoding="utf-8"?>
<!-- Generator: Adobe Illustrator 27.3.1, SVG Export Plug-In . SVG Version: 6.00 Build 0)  -->
<svg version="1.1" id="Layer_1" xmlns="http://www.w3.org/2000/svg" xmlns:xlink="http://www.w3.org/1999/xlink" x="0px" y="0px"
	 viewBox="0 0 1379.8 935.3" style="enable-background:new 0 0 1379.8 935.3;" xml:space="preserve">
<style type="text/css">
	.st0{clip-path:url(#SVGID_00000047770922629510273610000005025058548998364815_);}
	.st1{fill:#FFE7B3;}
	.st2{fill:#FFD59A;}
	.st3{fill:#FFFFFF;}
	.st4{fill:none;}
</style>
<g>
	<defs>
		<rect id="SVGID_1_" width="1379.8" height="935.3"/>
	</defs>
	<clipPath id="SVGID_00000020361619232196786850000001239943761920636599_">
		<use xlink:href="#SVGID_1_"  style="overflow:visible;"/>
	</clipPath>
	<g style="clip-path:url(#SVGID_00000020361619232196786850000001239943761920636599_);">
		<rect x="334.2" y="366.1" class="st1" width="58.3" height="60.8"/>
		<path class="st2" d="M215.8,0v56.7h58.3V0h60.1v56.7h58.3V0h119.3v56.7h58.3V0h178.6v56.7h58.3V0h0.9v56.7h58.3V0h513.5v935.3H0
			v-693h37.2v-61H0v-0.9h37.2v-61H0V0H215.8L215.8,0L215.8,0z M38.1,303.5h58.3v-60.8H38.1V303.5z M38.1,365.2h58.3v-60.8H38.1
			V365.2z M38.1,426.9h58.3v-60.8H38.1V426.9z M38.1,550.4h58.3v-60.8H38.1V550.4z M1340.1,798.2h-58.3V859h58.3V798.2z
			 M1340.1,427.9h-58.3v60.8h58.3V427.9z M1340.1,242.7h-58.3v60.8h58.3V242.7z M1340.1,181h-58.3v60.8h58.3V181L1340.1,181
			L1340.1,181z M747.9,57.5h-58.3v60.8h58.3C747.9,118.3,747.9,57.5,747.9,57.5z M214.9,57.5h-58.3v60.8h58.3
			C214.9,118.3,214.9,57.5,214.9,57.5z M97.3,612.1h58.3v-60.8H97.3C97.3,551.3,97.3,612.1,97.3,612.1z M97.3,673.8h58.3V613H97.3
			C97.3,613,97.3,673.8,97.3,673.8z M97.3,735.6h58.3v-60.8H97.3C97.3,674.8,97.3,735.6,97.3,735.6z M1280.9,551.3h-58.3v60.8h58.3
			V551.3z M1280.9,366.1h-58.3v60.8h58.3V366.1z M156.5,612.1h58.3v-60.8h-58.3V612.1z M1221.7,304.4h-58.3v60.8h58.3V304.4z
			 M156.5,797.3h58.3v-60.8h-58.3V797.3z M1221.7,674.8h-58.3v60.8h58.3V674.8z M1162.4,674.8h-58.3v60.8h58.3V674.8z M275,735.6
			h58.3v-60.8H275V735.6z M334.2,426.9h58.3v-60.8h-58.3L334.2,426.9L334.2,426.9z M392.5,674.8h-58.3v60.8h58.3V674.8z
			 M452.7,303.5H511v-60.8h-58.3L452.7,303.5L452.7,303.5z M807.1,674.8h-58.3v60.8h58.3V674.8z M451.8,736.5h-58.3v60.8h58.3
			L451.8,736.5L451.8,736.5z M274.1,673.9v-60.8h-58.3v60.8H274.1z M1163.3,613.1v60.8h58.3v-60.8H1163.3z M1221.7,736.5h-58.3v60.8
			h58.3V736.5z M1162.4,797.3v-60.8h-58.3v60.8H1162.4z M925.6,736.5h-58.3v60.8h58.3V736.5z M511,736.5h-58.3v60.8H511V736.5z
			 M156.5,735.6h58.3v-60.8h-58.3V735.6z M393.4,181v60.8h58.3V181L393.4,181L393.4,181z M1221.6,181h-58.3v60.8h58.3V181
			L1221.6,181z M1103.2,798.2h-58.3V859h58.3V798.2z M925.5,798.2h-58.3V859h58.3V798.2z M511,798.2h-58.3V859H511V798.2z
			 M630.3,180h58.3v-60.8h-58.3V180z M1104.1,119.2V180h58.3v-60.8H1104.1z M1280.9,180.9h-58.3v60.8h58.3V180.9L1280.9,180.9
			L1280.9,180.9z M1280.9,798.2h-58.3V859h58.3V798.2z M747.9,859v-60.8h-58.3V859H747.9z M629.4,798.2h-58.3V859h58.3V798.2z
			 M393.4,118.3h58.3V57.5h-58.3V118.3z M571.1,118.3h58.3V57.5h-58.3V118.3z M630.3,118.3h58.3V57.5h-58.3V118.3z M926.5,118.3
			h58.3V57.5h-58.3V118.3z M1044.9,118.3h58.3V57.5h-58.3V118.3L1044.9,118.3z M1163.3,118.3h58.3V57.5h-58.3V118.3z M688.7,860
			h-58.3v60.8h58.3V860z M629.4,860h-58.3v60.8h58.3V860z M215.8,57.5v60.8h58.3V57.5H215.8z M511.9,57.5v60.8h58.3V57.5H511.9z
			 M748.8,57.5v60.8h58.3V57.5H748.8z"/>
		<rect x="808" class="st1" width="58.3" height="56.6"/>
		<rect x="748.8" class="st1" width="58.3" height="56.6"/>
		<rect x="748.8" y="57.5" class="st1" width="58.3" height="60.8"/>
		<rect x="689.6" y="57.5" class="st1" width="58.3" height="60.8"/>
		<rect x="630.3" y="119.2" class="st1" width="58.3" height="60.8"/>
		<rect x="630.3" y="57.5" class="st1" width="58.3" height="60.8"/>
		<rect x="571.1" y="57.5" class="st1" width="58.3" height="60.8"/>
		<rect x="511.9" class="st1" width="58.3" height="56.6"/>
		<rect x="511.9" y="57.5" class="st1" width="58.3" height="60.8"/>
		<rect x="393.4" y="57.5" class="st1" width="58.3" height="60.8"/>
		<rect x="334.2" class="st1" width="58.3" height="56.6"/>
		<rect x="215.8" class="st1" width="58.3" height="56.6"/>
		<rect x="215.8" y="57.5" class="st1" width="58.3" height="60.8"/>
		<rect y="119.2" class="st1" width="37.2" height="60.8"/>
		<rect y="181" class="st1" width="37.2" height="60.8"/>
		<rect x="38.1" y="242.7" class="st1" width="58.3" height="60.8"/>
		<rect x="38.1" y="304.4" class="st1" width="58.3" height="60.8"/>
		<rect x="38.1" y="366.1" class="st1" width="58.3" height="60.8"/>
		<rect x="38.1" y="489.6" class="st1" width="58.3" height="60.8"/>
		<rect x="97.3" y="551.3" class="st1" width="58.3" height="60.8"/>
		<rect x="97.3" y="613.1" class="st1" width="58.3" height="60.8"/>
		<rect x="97.3" y="674.8" class="st1" width="58.3" height="60.8"/>
		<rect x="156.5" y="674.8" class="st1" width="58.3" height="60.8"/>
		<rect x="156.5" y="736.5" class="st1" width="58.3" height="60.8"/>
		<rect x="156.5" y="551.3" class="st1" width="58.3" height="60.8"/>
		<rect x="215.8" y="613.1" class="st1" width="58.3" height="60.8"/>
		<rect x="275" y="674.8" class="st1" width="58.3" height="60.8"/>
		<rect x="334.2" y="674.8" class="st1" width="58.3" height="60.8"/>
		<rect x="393.4" y="736.5" class="st1" width="58.3" height="60.8"/>
		<rect x="452.7" y="736.5" class="st1" width="58.3" height="60.8"/>
		<rect x="452.7" y="798.2" class="st1" width="58.3" height="60.8"/>
		<rect x="630.3" y="860" class="st1" width="58.3" height="60.8"/>
		<rect x="571.1" y="860" class="st1" width="58.3" height="60.8"/>
		<rect x="571.1" y="798.2" class="st1" width="58.3" height="60.8"/>
		<rect x="689.6" y="798.2" class="st1" width="58.3" height="60.8"/>
		<rect x="748.8" y="674.8" class="st1" width="58.3" height="60.8"/>
		<rect x="867.2" y="736.5" class="st1" width="58.3" height="60.8"/>
		<rect x="1281.8" y="798.2" class="st1" width="58.3" height="60.8"/>
		<rect x="1222.6" y="798.2" class="st1" width="58.3" height="60.8"/>
		<rect x="1044.9" y="798.2" class="st1" width="58.3" height="60.8"/>
		<rect x="1104.1" y="736.5" class="st1" width="58.3" height="60.8"/>
		<rect x="1163.3" y="736.5" class="st1" width="58.3" height="60.8"/>
		<rect x="1163.3" y="674.8" class="st1" width="58.3" height="60.8"/>
		<rect x="1104.1" y="674.8" class="st1" width="58.3" height="60.8"/>
		<rect x="1163.3" y="613.1" class="st1" width="58.3" height="60.8"/>
		<rect x="1222.6" y="551.3" class="st1" width="58.3" height="60.8"/>
		<rect x="1281.8" y="427.9" class="st1" width="58.3" height="60.8"/>
		<rect x="1222.6" y="366.1" class="st1" width="58.3" height="60.8"/>
		<rect x="1163.3" y="304.4" class="st1" width="58.3" height="60.8"/>
		<rect x="1281.8" y="242.7" class="st1" width="58.3" height="60.8"/>
		<rect x="1281.8" y="181" class="st1" width="58.3" height="60.8"/>
		<rect x="1222.6" y="181" class="st1" width="58.3" height="60.8"/>
		<rect x="1163.3" y="181" class="st1" width="58.3" height="60.8"/>
		<rect x="1104.1" y="119.2" class="st1" width="58.3" height="60.8"/>
		<rect x="1163.3" y="57.5" class="st1" width="58.3" height="60.8"/>
		<rect x="1044.9" y="57.5" class="st1" width="58.3" height="60.8"/>
		<rect x="926.4" y="57.5" class="st1" width="58.3" height="60.8"/>
		<rect x="393.4" y="181" class="st1" width="58.3" height="60.8"/>
		<rect x="452.7" y="242.7" class="st1" width="58.3" height="60.8"/>
		<rect x="1340.1" class="st3" width="0.9" height="933"/>
		<rect x="1280.9" class="st3" width="0.9" height="933"/>
		<rect x="1221.7" class="st3" width="0.9" height="933"/>
		<rect x="1162.4" class="st3" width="0.9" height="933"/>
		<rect x="1103.2" class="st3" width="0.9" height="933"/>
		<rect x="1044" class="st3" width="0.9" height="933"/>
		<rect x="984.8" class="st3" width="0.9" height="933"/>
		<rect x="867.2" y="798.2" class="st1" width="58.3" height="60.8"/>
		<rect x="925.6" class="st3" width="0.9" height="933"/>
		<rect x="866.3" class="st3" width="0.9" height="933"/>
		<rect x="807.1" class="st3" width="0.9" height="933"/>
		<rect x="747.9" class="st3" width="0.9" height="933"/>
		<rect x="688.7" class="st3" width="0.9" height="933"/>
		<rect x="629.4" class="st3" width="0.9" height="933"/>
		<rect x="570.2" class="st3" width="0.9" height="933"/>
		<rect x="511" class="st3" width="0.9" height="933"/>
		<rect x="451.8" class="st3" width="0.9" height="933"/>
		<rect x="392.5" class="st3" width="0.9" height="933"/>
		<rect x="333.3" class="st3" width="0.9" height="933"/>
		<rect x="274.1" class="st3" width="0.9" height="933"/>
		<rect x="214.9" class="st3" width="0.9" height="933"/>
		<rect x="156.5" y="57.5" class="st1" width="58.3" height="60.8"/>
		<rect x="155.6" class="st3" width="0.9" height="933"/>
		<rect x="96.4" class="st3" width="0.9" height="933"/>
		<rect x="37.2" class="st3" width="0.9" height="933"/>
		<rect x="-0.1" y="56.6" class="st3" width="1379.8" height="0.9"/>
		<rect x="-0.1" y="118.3" class="st3" width="1379.8" height="0.9"/>
		<rect x="-0.1" y="180" class="st3" width="1379.8" height="0.9"/>
		<rect x="-0.1" y="241.7" class="st3" width="1379.8" height="0.9"/>
		<rect x="-0.1" y="303.5" class="st3" width="1379.8" height="0.9"/>
		<rect x="-0.1" y="365.2" class="st3" width="1379.8" height="0.9"/>
		<rect x="-0.1" y="426.9" class="st3" width="1379.8" height="0.9"/>
		<rect x="-0.1" y="488.7" class="st3" width="1379.8" height="0.9"/>
		<rect x="-0.1" y="550.4" class="st3" width="1379.8" height="0.9"/>
		<rect x="-0.1" y="612.1" class="st3" width="1379.8" height="0.9"/>
		<rect x="-0.1" y="673.8" class="st3" width="1379.8" height="0.9"/>
		<rect x="-0.1" y="735.6" class="st3" width="1379.8" height="0.9"/>
		<rect x="-0.1" y="797.3" class="st3" width="1379.8" height="0.9"/>
		<rect x="-0.1" y="859" class="st3" width="1379.8" height="0.9"/>
		<rect x="-0.1" y="920.8" class="st3" width="1379.8" height="0.9"/>
		<rect x="-22.7" y="-36.7" class="st4" width="1388.2" height="972.1"/>
	</g>
</g>
</svg>
