<?xml version="1.0" encoding="UTF-8"?><svg id="Layer_1" xmlns="http://www.w3.org/2000/svg" viewBox="0 0 157 58"><defs><style>.cls-1{fill:#a0d797;}.cls-2{fill:#89bc83;}</style></defs><rect class="cls-1" y="43.5" width="14.29" height="14.5"/><rect class="cls-2" y="29" width="14.29" height="14.5"/><rect class="cls-1" y="14.5" width="14.29" height="14.5"/><rect class="cls-2" width="14.29" height="14.5"/><rect class="cls-2" x="14.29" y="43.5" width="14.29" height="14.5"/><rect class="cls-1" x="14.29" y="29" width="14.29" height="14.5"/><rect class="cls-2" x="14.29" y="14.5" width="14.29" height="14.5"/><rect class="cls-1" x="14.29" width="14.29" height="14.5"/><rect class="cls-1" x="28.58" y="43.5" width="14.29" height="14.5"/><rect class="cls-2" x="28.58" y="29" width="14.29" height="14.5"/><rect class="cls-1" x="28.58" y="14.5" width="14.29" height="14.5"/><rect class="cls-2" x="28.58" width="14.29" height="14.5"/><rect class="cls-2" x="42.87" y="43.5" width="14.29" height="14.5"/><rect class="cls-1" x="42.87" y="29" width="14.29" height="14.5"/><rect class="cls-2" x="42.87" y="14.5" width="14.29" height="14.5"/><rect class="cls-1" x="42.87" width="14.29" height="14.5"/><rect class="cls-1" x="57.16" y="43.5" width="14.29" height="14.5"/><rect class="cls-2" x="57.16" y="29" width="14.29" height="14.5"/><rect class="cls-1" x="57.16" y="14.5" width="14.29" height="14.5"/><rect class="cls-2" x="57.16" width="14.29" height="14.5"/><rect class="cls-2" x="71.44" y="43.5" width="14.29" height="14.5"/><rect class="cls-1" x="71.44" y="29" width="14.29" height="14.5"/><rect class="cls-2" x="71.44" y="14.5" width="14.29" height="14.5"/><rect class="cls-1" x="71.44" width="14.29" height="14.5"/><rect class="cls-1" x="85.73" y="43.5" width="14.29" height="14.5"/><rect class="cls-2" x="85.73" y="29" width="14.29" height="14.5"/><rect class="cls-1" x="85.73" y="14.5" width="14.29" height="14.5"/><rect class="cls-2" x="85.73" width="14.29" height="14.5"/><rect class="cls-2" x="100.02" y="43.5" width="14.29" height="14.5"/><rect class="cls-1" x="100.02" y="29" width="14.29" height="14.5"/><rect class="cls-2" x="100.02" y="14.5" width="14.29" height="14.5"/><rect class="cls-1" x="100.02" width="14.29" height="14.5"/><rect class="cls-1" x="114.31" y="43.5" width="14.29" height="14.5"/><rect class="cls-2" x="114.31" y="29" width="14.29" height="14.5"/><rect class="cls-1" x="114.31" y="14.5" width="14.29" height="14.5"/><rect class="cls-2" x="114.31" width="14.29" height="14.5"/><rect class="cls-1" x="142.71" y="43.5" width="14.29" height="14.5"/><rect class="cls-2" x="142.71" y="29" width="14.29" height="14.5"/><rect class="cls-1" x="142.71" y="14.5" width="14.29" height="14.5"/><rect class="cls-2" x="142.71" width="14.29" height="14.5"/><rect class="cls-2" x="128.6" y="43.5" width="14.29" height="14.5"/><rect class="cls-1" x="128.6" y="29" width="14.29" height="14.5"/><rect class="cls-2" x="128.6" y="14.5" width="14.29" height="14.5"/><rect class="cls-1" x="128.6" width="14.29" height="14.5"/></svg>