<?xml version="1.0" encoding="UTF-8"?><svg id="Layer_1" xmlns="http://www.w3.org/2000/svg" viewBox="0 0 119.62 119.63"><defs><style>.cls-1{fill:#d8d8d8;}.cls-2{fill:#bfbfbf;}.cls-3{fill:#d6d6d6;}.cls-4{fill:#eaeaea;}.cls-5{fill:#c1c1c1;}.cls-6{fill:#ababab;}.cls-7{fill:#f7f7f7;}.cls-8{fill:#a8a8a8;}.cls-9{fill:#d0d0d0;}.cls-10{fill:#ececec;}</style></defs><polygon class="cls-4" points="114.34 .03 119.61 .03 119.61 2.26 117.99 3.27 114.34 .03"/><path class="cls-9" d="m90.21,27.48l5.11-2.16,1.82-6.27-1.82-6.48-5.26-1.82-4.86,2.23-2.23,6.07,1.82,5.87,5.26,2.23.15.34h.01ZM112.93.03h1.42l3.64,3.24,1.62-1.01v19.43l-.4-.81-5.26-1.62-3.44,4.86v9.71l7.49,6.88,1.62-1.01v5.87h-.4l-6.48-8.3-9.31-3.04-6.68,4.25-.81,8.9,7.89,8.5,2.65.13-.02.27h-2.23l-2.23,2.63h-5.67l.81-2.63-1.82-6.27-5.26-1.82-4.86,2.23-2.23,5.87.81,2.63h-1.62l-.4-.81-5.26-1.42-1.42,2.23h-2.63v-.81l-3.44-1.82.02-.27,5.24.27,7.08-3.04.4-7.69-6.27-8.3-9.31-3.04-5.46,3.24v-3.24l2.83-1.01-2.83-4.45V12.37l5.67,6.27,7.89.4,7.08-3.04.4-7.89L75.48.02h1.62l3.64,3.24,4.45-2.63V.02h1.01l.81,6.88,3.04,1.21,4.45-4.05L94.1.01h4.25l-1.62,1.01-.81,8.9,7.89,8.7,7.89.4,7.08-3.04.4-7.89-6.27-8.09.02.03Zm-6.48,19.02h-2.23l-2.63,2.83-1.21,7.49,3.84,3.84,4.45-3.04,1.21-9.31-3.44-1.82h.01Zm-37.44,0h-2.23l-2.63,2.83-1.01,7.49,3.64,3.84,4.45-3.04,1.21-9.31-3.44-1.82h.01Zm12.75,1.82l-5.26-1.62-3.24,4.86v9.71l7.49,6.88,4.45-2.63.61-9.31s-4.05-7.89-4.05-7.89Zm19.02,12.34l-3.24-5.67-1.62,4.45,1.21,2.63,3.64-1.42h.01Zm-10.73-3.84l-1.82.4-2.02,7.49.81,7.08,3.04,1.21,4.45-4.25-.81-8.5-3.64-3.44h-.01Z"/><polygon class="cls-4" points="98.36 .03 112.93 .03 119.2 8.12 118.8 16.02 111.71 19.05 103.82 18.65 95.93 9.95 96.74 1.04 98.36 .03"/><polygon class="cls-4" points="86.22 .03 94.11 .03 94.51 4.08 90.06 8.12 87.03 6.91 86.22 .03"/><polygon class="cls-4" points="77.11 .03 85.2 .03 85.2 .64 80.75 3.27 77.11 .03"/><polygon class="cls-4" points="61.12 .03 75.49 .03 81.76 8.12 81.36 16.02 74.28 19.05 66.38 18.65 60.72 12.37 60.72 .23 61.12 .03"/><polygon class="cls-1" points="53.64 .03 58.9 .03 58.9 2.26 57.28 3.27 53.64 .03"/><path class="cls-9" d="m29.3,27.48l5.11-2.16,1.82-6.48-1.82-6.27-5.26-1.82-4.86,2.23-2.23,5.87,1.82,6.07,5.26,2.23.15.34h.01ZM52.02.03h1.62l3.64,3.24,1.62-1.01v19.43l-.61-1.01-5.26-1.42-3.24,4.86v9.71l7.49,6.68,1.62-.81v19.02h-.2l-.4-.61-5.26-1.42-1.42,2.02h-2.63v-.61l-3.24-1.82h-2.43l-2.02,2.43h-5.67l.61-2.43-1.82-6.48-5.26-1.82-4.86,2.23-2.23,6.07.81,2.43h-1.62l-.2-.61-5.26-1.42-1.62,2.02h-2.63v-.61l-3.24-1.82.02-.27,5.24.27,7.08-3.04.4-7.89-6.48-8.09-9.31-3.04-5.26,3.24v-3.24l2.63-1.21-2.63-4.45V12.37l5.67,6.07,7.89.4,7.08-3.04.4-7.69L14.78.03h1.42l3.64,3.24,4.45-2.63.2-.61h1.01l.81,6.88,2.83,1.21,4.45-4.25-.2-3.84h4.25l-1.62,1.01-.81,8.9,7.89,8.5,7.69.4,7.08-3.04.4-7.69L52.02.03Zm-6.27,18.82h-2.43l-2.43,3.04-1.21,7.49,3.64,3.64,4.65-2.83,1.01-9.51-3.24-1.82h.01Zm-37.44,0h-2.23l-2.63,3.04-1.21,7.49,3.84,3.64,4.45-2.83,1.01-9.51-3.24-1.82h.01Zm12.75,1.82l-5.26-1.42-3.44,4.86v9.71l7.49,6.68,4.45-2.63.81-9.31s-4.05-7.89-4.05-7.89Zm19.02,12.34l-3.44-5.46-1.42,4.45,1.01,2.63,3.84-1.62h0Zm-10.93-3.64l-1.82.4-1.82,7.49.81,7.08,2.83,1.01,4.45-4.05-.61-8.5-3.84-3.44h0Zm13.56,4.86l-6.68,4.05-.81,9.11,7.89,8.5,7.69.4,7.08-3.04.4-7.89-6.27-8.09-9.31-3.04h.01Z"/><polygon class="cls-4" points="37.65 .03 52.02 .03 58.29 8.12 57.89 15.81 50.8 18.85 43.11 18.44 35.22 9.95 36.03 1.04 37.65 .03"/><polygon class="cls-1" points="25.51 .03 33.4 .03 33.6 3.87 29.15 8.12 26.32 6.91 25.51 .03"/><polygon class="cls-1" points="16.2 .03 24.5 .03 24.29 .64 19.84 3.27 16.2 .03"/><polygon class="cls-4" points=".21 .03 14.78 .03 21.06 8.12 20.65 15.81 13.57 18.85 5.68 18.44 .01 12.37 .01 .03 .21 .03"/><polygon class="cls-1" points="24.29 12.98 29.15 10.76 34.41 12.58 36.23 18.85 34.41 25.33 29.3 27.48 29.15 27.15 23.89 24.92 22.07 18.85 24.29 12.98"/><polygon class="cls-5" points="85.2 12.98 90.06 10.76 95.32 12.58 97.14 19.05 95.32 25.33 90.21 27.48 90.06 27.15 84.8 24.92 82.98 19.05 85.2 12.98"/><polygon class="cls-4" points="43.32 18.85 45.74 18.85 48.98 20.67 47.97 30.18 43.32 33.01 39.67 29.37 40.89 21.88 43.32 18.85"/><polygon class="cls-6" points="6.08 18.85 8.31 18.85 11.54 20.67 10.53 30.18 6.08 33.01 2.24 29.37 3.45 21.88 6.08 18.85"/><polygon class="cls-5" points="104.23 19.05 106.45 19.05 109.89 20.87 108.68 30.18 104.23 33.22 100.38 29.37 101.6 21.88 104.23 19.05"/><polygon class="cls-4" points="66.79 19.05 69.01 19.05 72.46 20.87 71.24 30.18 66.79 33.22 63.15 29.37 64.16 21.88 66.79 19.05"/><polygon class="cls-4" points="15.79 19.25 21.06 20.67 25.1 28.56 24.29 37.87 19.84 40.5 12.35 33.82 12.35 24.11 15.79 19.25"/><polygon class="cls-4" points="53.03 19.25 58.29 20.67 58.9 21.68 58.9 39.69 57.28 40.5 49.79 33.82 49.79 24.11 53.03 19.25"/><polygon class="cls-6" points="76.5 19.25 81.76 20.87 85.81 28.77 85.2 38.07 80.75 40.7 73.26 33.82 73.26 24.11 76.5 19.25"/><polygon class="cls-6" points="113.94 19.25 119.2 20.87 119.61 21.68 119.61 39.69 117.99 40.7 110.5 33.82 110.5 24.11 113.94 19.25"/><polygon class="cls-4" points="36.64 27.55 40.08 33.01 36.23 34.63 35.22 32 36.64 27.55"/><polygon class="cls-4" points="97.55 27.55 100.79 33.22 97.14 34.63 95.93 32 97.55 27.55"/><polygon class="cls-1" points=".01 28.56 2.64 33.01 .01 34.23 .01 28.56"/><polygon class="cls-4" points="60.72 28.77 63.55 33.22 60.72 34.23 60.72 28.77"/><polygon class="cls-1" points="27.33 29.78 29.15 29.37 32.99 32.81 33.6 41.31 29.15 45.36 26.32 44.35 25.51 37.26 27.33 29.78"/><polygon class="cls-4" points="88.24 29.78 90.06 29.37 93.7 32.81 94.51 41.31 90.06 45.56 87.03 44.35 86.22 37.26 88.24 29.78"/><polygon class="cls-4" points=".01 37.47 5.27 34.23 14.58 37.26 21.06 45.36 20.65 53.25 13.57 56.29 8.32 56.02 5.68 55.88 .01 49.61 .01 37.47"/><polygon class="cls-6" points="36.03 38.28 42.71 34.23 52.02 37.26 58.29 45.36 57.89 53.25 50.8 56.29 43.11 55.88 35.22 47.38 36.03 38.28"/><polygon class="cls-3" points="60.72 37.47 66.18 34.23 75.49 37.26 81.76 45.56 81.36 53.25 74.28 56.29 69.03 56.02 66.38 55.88 60.72 49.81 60.72 37.47"/><polygon class="cls-5" points="96.74 38.48 103.42 34.23 112.72 37.26 119.2 45.56 118.8 53.25 111.71 56.29 106.47 56.02 103.82 55.88 95.93 47.38 96.74 38.48"/><polygon class="cls-9" points="119.2 45.56 119.61 45.56 119.61 58.92 119.2 58.11 113.94 56.69 112.52 58.92 109.69 58.92 109.89 58.11 106.45 56.29 106.47 56.02 111.71 56.29 118.8 53.25 119.2 45.56"/><polygon class="cls-4" points="24.29 50.22 29.15 47.99 34.41 49.81 36.23 56.29 35.63 58.71 22.88 58.71 22.07 56.29 24.29 50.22"/><polygon class="cls-4" points="85.2 50.42 90.06 48.19 95.32 50.01 97.14 56.29 96.33 58.92 83.79 58.92 82.98 56.29 85.2 50.42"/><polygon class="cls-4" points="60.72 49.81 66.38 55.88 69.03 56.02 69.01 56.29 66.79 56.29 64.56 58.92 60.72 58.92 60.72 49.81"/><polygon class="cls-4" points="104.23 56.29 106.45 56.29 109.89 58.11 109.69 58.92 102 58.92 104.23 56.29"/><polygon class="cls-4" points="66.79 56.29 69.01 56.29 72.46 58.11 72.46 58.92 64.56 58.92 66.79 56.29"/><polygon class="cls-4" points="43.32 56.29 45.74 56.29 48.98 58.11 48.98 58.71 41.29 58.71 43.32 56.29"/><polygon class="cls-1" points="6.08 56.29 8.31 56.29 11.54 58.11 11.54 58.71 3.85 58.71 6.08 56.29"/><polygon class="cls-1" points="15.79 56.69 21.06 58.11 21.26 58.71 14.18 58.71 15.79 56.69"/><polygon class="cls-4" points="53.03 56.69 58.29 58.11 58.69 58.71 51.61 58.71 53.03 56.69"/><polygon class="cls-4" points="76.5 56.69 81.76 58.11 82.17 58.92 75.09 58.92 76.5 56.69"/><polygon class="cls-4" points="113.94 56.69 119.2 58.11 119.61 58.92 112.52 58.92 113.94 56.69"/><polygon class="cls-9" points="114.34 60.74 119.61 60.74 119.61 63.17 117.99 64.18 114.34 60.74"/><path class="cls-9" d="m90.21,88.39l5.11-2.36,1.82-6.27-1.82-6.27-5.26-2.02-4.86,2.43-2.23,5.87,1.82,6.07,5.26,2.23.15.34v-.02Zm22.72-27.66h1.42l3.64,3.44,1.62-1.01v19.43l-.4-1.01-5.26-1.42-3.44,4.86v9.71l7.49,6.68,1.62-.81v5.67h-.4l-6.48-8.09-9.31-3.04-6.68,4.05-.81,8.9,7.89,8.7,2.65.13-.02.27h-2.23l-2.23,2.43h-5.67l.81-2.43-1.82-6.48-5.26-1.82-4.86,2.23-2.23,6.07.81,2.43h-1.62l-.4-.61-5.26-1.42-1.42,2.02h-2.63v-.61l-3.44-1.82.02-.27,5.24.27,7.08-3.04.4-7.89-6.27-8.09-9.31-3.04-5.46,3.24v-3.24l2.83-1.21-2.83-4.45v-16.39l5.67,6.27,7.89.4,7.08-3.04.4-7.69-6.27-8.3h1.62l3.64,3.44,4.45-2.63v-.81h1.01l.81,7.08,3.04,1.21,4.45-4.25-.4-4.05h4.25l-1.62,1.01-.81,9.11,7.89,8.5,7.89.4,7.08-3.04.4-7.69-6.27-8.3.02.04Zm-6.48,19.02h-2.23l-2.63,3.04-1.21,7.49,3.84,3.64,4.45-3.04,1.21-9.31-3.44-1.82h.01Zm-37.44,0h-2.23l-2.63,3.04-1.01,7.49,3.64,3.64,4.45-3.04,1.21-9.31-3.44-1.82h.01Zm12.75,1.82l-5.26-1.42-3.24,4.86v9.71l7.49,6.68,4.45-2.63.61-9.31s-4.05-7.89-4.05-7.89Zm19.02,12.34l-3.24-5.46-1.62,4.45,1.21,2.63,3.64-1.62h.01Zm-10.73-3.64l-1.82.4-2.02,7.49.81,7.08,3.04,1.01,4.45-4.05-.81-8.7-3.64-3.24h-.01Z"/><polygon class="cls-8" points="98.36 60.74 112.93 60.74 119.2 69.04 118.8 76.72 111.71 79.76 103.82 79.36 95.93 70.86 96.74 61.75 98.36 60.74"/><polygon class="cls-8" points="86.22 60.74 94.11 60.74 94.51 64.79 90.06 69.04 87.03 67.82 86.22 60.74"/><polygon class="cls-10" points="77.11 60.74 85.2 60.74 85.2 61.55 80.75 64.18 77.11 60.74"/><polygon class="cls-10" points="61.12 60.74 75.49 60.74 81.76 69.04 81.36 76.72 74.28 79.76 66.38 79.36 60.72 73.08 60.72 60.94 61.12 60.74"/><polygon class="cls-10" points="53.64 60.74 58.9 60.74 58.9 63.17 57.28 63.98 53.64 60.74"/><path class="cls-9" d="m29.3,88.19l5.11-2.16,1.82-6.27-1.82-6.48-5.26-1.82-4.86,2.23-2.23,6.07,1.82,5.87,5.26,2.23.15.34h.01Zm22.72-27.45h1.62l3.64,3.24,1.62-.81v19.22l-.61-.81-5.26-1.42-3.24,4.86v9.71l7.49,6.68,1.62-1.01v19.22h-.2l-.4-.61-5.26-1.62-1.42,2.23h-2.63v-.61l-3.24-2.02h-2.43l-2.02,2.63h-5.67l.61-2.63-1.82-6.27-5.26-1.82-4.86,2.23-2.23,5.87.81,2.63h-1.62l-.2-.61-5.26-1.62-1.62,2.23h-2.63v-.61l-3.24-2.02v-.13l5.26.13,7.08-2.83.4-7.89-6.48-8.3-9.31-3.04-5.26,3.24v-3.24l2.63-1.01-2.63-4.45v-16.39l5.67,6.27,7.89.4,7.08-3.04.4-7.89-6.27-8.09h1.42l3.64,3.24,4.45-2.63.2-.61h1.01l.81,7.08,2.83,1.01,4.45-4.05-.2-4.05h4.25l-1.62,1.01-.81,8.9,7.89,8.7,7.69.4,7.08-3.04.4-7.89-6.27-8.09.03.02Zm-6.27,19.02h-2.43l-2.43,2.83-1.21,7.49,3.64,3.84,4.65-3.04,1.01-9.31-3.24-1.82h.01Zm-37.44,0h-2.23l-2.63,2.83-1.21,7.49,3.84,3.84,4.45-3.04,1.01-9.31-3.24-1.82h.01Zm12.75,1.82l-5.26-1.42-3.44,4.86v9.71l7.49,6.68,4.45-2.63.81-9.31s-4.05-7.89-4.05-7.89Zm19.02,12.34l-3.44-5.67-1.42,4.45,1.01,2.63,3.84-1.42h0Zm-10.93-3.84l-1.82.4-1.82,7.49.81,7.08,2.83,1.21,4.45-4.05-.61-8.7-3.84-3.44h0Zm13.56,4.86l-6.68,4.25-.81,8.9,7.89,8.7,7.69.2,7.08-2.83.4-7.89-6.27-8.3-9.31-3.04h.01Z"/><polygon class="cls-2" points="37.65 60.74 52.02 60.74 58.29 68.83 57.89 76.72 50.8 79.76 43.11 79.36 35.22 70.65 36.03 61.75 37.65 60.74"/><polygon class="cls-10" points="25.51 60.74 33.4 60.74 33.6 64.79 29.15 68.83 26.32 67.82 25.51 60.74"/><polygon class="cls-10" points="16.2 60.74 24.5 60.74 24.29 61.35 19.84 63.98 16.2 60.74"/><polygon class="cls-1" points=".21 60.74 14.78 60.74 21.06 68.83 20.65 76.72 13.57 79.76 5.68 79.36 .01 73.08 .01 60.94 .21 60.74"/><polygon class="cls-1" points="24.29 73.69 29.15 71.46 34.41 73.28 36.23 79.76 34.41 86.03 29.3 88.19 29.15 87.85 23.89 85.63 22.07 79.76 24.29 73.69"/><polygon class="cls-10" points="85.2 73.89 90.06 71.46 95.32 73.49 97.14 79.76 95.32 86.03 90.21 88.39 90.06 88.06 84.8 85.83 82.98 79.76 85.2 73.89"/><polygon class="cls-8" points="104.23 79.76 106.45 79.76 109.89 81.58 108.68 90.89 104.23 93.93 100.38 90.28 101.6 82.8 104.23 79.76"/><polygon class="cls-8" points="66.79 79.76 69.01 79.76 72.46 81.58 71.24 90.89 66.79 93.93 63.15 90.28 64.16 82.8 66.79 79.76"/><polygon class="cls-2" points="43.32 79.76 45.74 79.76 48.98 81.58 47.97 90.89 43.32 93.93 39.67 90.08 40.89 82.59 43.32 79.76"/><polygon class="cls-2" points="6.08 79.76 8.31 79.76 11.54 81.58 10.53 90.89 6.08 93.93 2.24 90.08 3.45 82.59 6.08 79.76"/><polygon class="cls-7" points="15.79 80.16 21.06 81.58 25.1 89.47 24.29 98.78 19.84 101.41 12.35 94.73 12.35 85.02 15.79 80.16"/><polygon class="cls-10" points="53.03 80.16 58.29 81.58 58.9 82.39 58.9 100.4 57.28 101.41 49.79 94.73 49.79 85.02 53.03 80.16"/><polygon class="cls-10" points="76.5 80.16 81.76 81.58 85.81 89.47 85.2 98.78 80.75 101.41 73.26 94.73 73.26 85.02 76.5 80.16"/><polygon class="cls-8" points="113.94 80.16 119.2 81.58 119.61 82.59 119.61 100.6 117.99 101.41 110.5 94.73 110.5 85.02 113.94 80.16"/><polygon class="cls-8" points="97.55 88.46 100.79 93.93 97.14 95.54 95.93 92.91 97.55 88.46"/><polygon class="cls-1" points=".01 89.47 2.64 93.93 .01 94.94 .01 89.47"/><polygon class="cls-10" points="27.33 90.49 29.15 90.08 32.99 93.52 33.6 102.22 29.15 106.27 26.32 105.06 25.51 97.97 27.33 90.49"/><polygon class="cls-8" points="88.24 90.69 90.06 90.28 93.7 93.52 94.51 102.22 90.06 106.27 87.03 105.26 86.22 98.17 88.24 90.69"/><polygon class="cls-10" points=".01 98.17 5.27 94.94 14.58 97.97 21.06 106.27 20.65 114.16 13.57 116.99 8.31 116.86 5.68 116.79 .01 110.52 .01 98.17"/><polygon class="cls-1" points="36.03 99.19 42.71 94.94 52.02 97.97 58.29 106.27 57.89 114.16 50.8 116.99 43.11 116.79 35.22 108.09 36.03 99.19"/><polygon class="cls-10" points="60.72 98.38 66.18 95.14 75.49 98.17 81.76 106.27 81.36 114.16 74.28 117.2 69.03 116.93 66.38 116.79 60.72 110.52 60.72 98.38"/><polygon class="cls-10" points="96.74 99.19 103.42 95.14 112.72 98.17 119.2 106.27 118.8 114.16 111.71 117.2 106.47 116.93 103.82 116.79 95.93 108.09 96.74 99.19"/><polygon class="cls-9" points="119.2 106.27 119.61 106.27 119.61 119.63 119.2 119.02 113.94 117.6 112.52 119.63 109.69 119.63 109.89 119.02 106.45 117.2 106.47 116.93 111.71 117.2 118.8 114.16 119.2 106.27"/><polygon class="cls-1" points="24.29 111.13 29.15 108.9 34.41 110.72 36.23 116.99 35.63 119.63 22.88 119.63 22.07 116.99 24.29 111.13"/><polygon class="cls-8" points="85.2 111.13 90.06 108.9 95.32 110.72 97.14 117.2 96.33 119.63 83.79 119.63 82.98 117.2 85.2 111.13"/><polygon class="cls-10" points="43.32 116.99 45.74 116.99 48.98 119.02 48.98 119.63 41.29 119.63 43.32 116.99"/><polygon class="cls-2" points="6.08 116.99 8.31 116.99 11.54 119.02 11.54 119.63 3.85 119.63 6.08 116.99"/><polygon class="cls-8" points="104.23 117.2 106.45 117.2 109.89 119.02 109.69 119.63 102 119.63 104.23 117.2"/><polygon class="cls-8" points="66.79 117.2 69.01 117.2 72.46 119.02 72.46 119.63 64.56 119.63 66.79 117.2"/><polygon class="cls-10" points="15.79 117.4 21.06 119.02 21.26 119.63 14.18 119.63 15.79 117.4"/><polygon class="cls-10" points="53.03 117.4 58.29 119.02 58.69 119.63 51.61 119.63 53.03 117.4"/><polygon class="cls-8" points="76.5 117.6 81.76 119.02 82.17 119.63 75.09 119.63 76.5 117.6"/><polygon class="cls-8" points="113.94 117.6 119.2 119.02 119.61 119.63 112.52 119.63 113.94 117.6"/></svg>