<?xml version="1.0" encoding="UTF-8"?><svg id="wall" xmlns="http://www.w3.org/2000/svg" viewBox="0 0 372.58 242.82"><defs><style>.cls-1{fill:#faf6b7;stroke:#a6bf71;stroke-miterlimit:10;}</style></defs><polygon class="cls-1" points="20.57 242.32 14.76 237.22 8.95 242.32 20.57 242.32"/><polygon class="cls-1" points="7.78 242.32 14.18 236.7 .5 224.7 .5 242.32 7.78 242.32"/><polygon class="cls-1" points="73.12 242.32 67.31 237.22 61.5 242.32 73.12 242.32"/><polygon class="cls-1" points="60.33 242.32 66.73 236.7 41.04 214.16 15.35 236.7 21.75 242.32 60.33 242.32"/><polygon class="cls-1" points="40.45 213.64 14.76 191.1 .5 203.62 .5 223.67 14.77 236.19 40.45 213.64"/><polygon class="cls-1" points=".5 178.58 .5 202.59 14.18 190.58 .5 178.58"/><polygon class="cls-1" points="125.67 242.32 119.86 237.22 114.05 242.32 125.67 242.32"/><polygon class="cls-1" points="112.88 242.32 119.28 236.7 93.59 214.16 67.9 236.7 74.3 242.32 112.88 242.32"/><polygon class="cls-1" points="93 213.64 67.31 191.1 41.63 213.64 67.31 236.19 93 213.64"/><polygon class="cls-1" points="41.04 168.04 15.35 190.58 41.04 213.13 66.73 190.58 41.04 168.04"/><polygon class="cls-1" points="40.45 167.53 14.76 144.98 .5 157.5 .5 177.55 14.77 190.07 40.45 167.53"/><polygon class="cls-1" points=".5 132.46 .5 156.47 14.18 144.47 .5 132.46"/><polygon class="cls-1" points="178.22 242.32 172.41 237.22 166.6 242.32 178.22 242.32"/><polygon class="cls-1" points="165.43 242.32 171.83 236.7 146.14 214.16 120.45 236.7 126.85 242.32 165.43 242.32"/><polygon class="cls-1" points="119.86 236.19 145.55 213.64 119.86 191.1 94.18 213.64 119.86 236.19"/><polygon class="cls-1" points="93.59 213.13 119.28 190.58 93.59 168.04 67.9 190.58 93.59 213.13"/><polygon class="cls-1" points="93 167.53 67.31 144.98 41.63 167.52 67.31 190.07 93 167.53"/><polygon class="cls-1" points="41.04 121.92 15.35 144.47 41.04 167.01 66.73 144.47 41.04 121.92"/><polygon class="cls-1" points="40.45 121.41 14.76 98.86 .5 111.38 .5 131.43 14.77 143.95 40.45 121.41"/><polygon class="cls-1" points=".5 86.35 .5 110.35 14.18 98.35 .5 86.35"/><polygon class="cls-1" points="230.77 242.32 224.96 237.22 219.15 242.32 230.77 242.32"/><polygon class="cls-1" points="217.98 242.32 224.38 236.7 198.69 214.16 173 236.7 179.4 242.32 217.98 242.32"/><polygon class="cls-1" points="172.41 236.19 198.1 213.64 172.41 191.1 146.73 213.64 172.41 236.19"/><polygon class="cls-1" points="146.14 213.13 171.83 190.58 146.14 168.04 120.45 190.58 146.14 213.13"/><polygon class="cls-1" points="119.86 190.07 145.55 167.53 119.86 144.98 94.18 167.52 119.86 190.07"/><polygon class="cls-1" points="93.59 167.01 119.28 144.47 93.59 121.92 67.9 144.47 93.59 167.01"/><polygon class="cls-1" points="93 121.41 67.31 98.86 41.63 121.41 67.31 143.95 93 121.41"/><polygon class="cls-1" points="41.04 75.81 15.35 98.35 41.04 120.89 66.73 98.35 41.04 75.81"/><polygon class="cls-1" points="40.45 75.29 14.76 52.75 .5 65.26 .5 85.31 14.77 97.83 40.45 75.29"/><polygon class="cls-1" points=".5 40.23 .5 64.24 14.18 52.23 .5 40.23"/><polygon class="cls-1" points="283.32 242.32 277.51 237.22 271.7 242.32 283.32 242.32"/><polygon class="cls-1" points="270.53 242.32 276.92 236.7 251.24 214.16 225.55 236.7 231.95 242.32 270.53 242.32"/><polygon class="cls-1" points="224.96 236.19 250.65 213.64 224.96 191.1 199.27 213.64 224.96 236.19"/><polygon class="cls-1" points="198.69 168.04 173 190.58 198.69 213.13 224.38 190.58 198.69 168.04"/><polygon class="cls-1" points="172.41 190.07 198.1 167.53 172.41 144.98 146.73 167.52 172.41 190.07"/><polygon class="cls-1" points="146.14 167.01 171.83 144.47 146.14 121.92 120.45 144.47 146.14 167.01"/><polygon class="cls-1" points="119.86 143.95 145.55 121.41 119.86 98.86 94.18 121.41 119.86 143.95"/><polygon class="cls-1" points="93.59 120.89 119.28 98.35 93.59 75.81 67.9 98.35 93.59 120.89"/><polygon class="cls-1" points="93 75.29 67.31 52.75 41.63 75.29 67.31 97.83 93 75.29"/><polygon class="cls-1" points="41.04 29.69 15.35 52.23 41.04 74.78 66.73 52.23 41.04 29.69"/><polygon class="cls-1" points="40.45 29.17 14.76 6.63 .5 19.15 .5 39.2 14.77 51.72 40.45 29.17"/><polygon class="cls-1" points=".5 .5 .5 18.12 14.18 6.11 7.78 .5 .5 .5"/><polygon class="cls-1" points="335.87 242.32 330.06 237.22 324.25 242.32 335.87 242.32"/><polygon class="cls-1" points="323.08 242.32 329.47 236.7 303.79 214.16 278.1 236.7 284.5 242.32 323.08 242.32"/><polygon class="cls-1" points="277.51 191.1 251.82 213.64 277.51 236.19 303.2 213.64 277.51 191.1"/><polygon class="cls-1" points="251.24 168.04 225.55 190.58 251.24 213.13 276.92 190.58 251.24 168.04"/><polygon class="cls-1" points="224.96 144.98 199.27 167.52 224.96 190.07 250.65 167.53 224.96 144.98"/><polygon class="cls-1" points="198.69 121.92 173 144.47 198.69 167.01 224.38 144.47 198.69 121.92"/><polygon class="cls-1" points="172.41 143.95 198.1 121.41 172.41 98.86 146.73 121.41 172.41 143.95"/><polygon class="cls-1" points="146.14 120.89 171.83 98.35 146.14 75.81 120.45 98.35 146.14 120.89"/><polygon class="cls-1" points="119.86 97.83 145.55 75.29 119.86 52.75 94.18 75.29 119.86 97.83"/><polygon class="cls-1" points="93.59 74.78 119.28 52.23 93.59 29.69 67.9 52.23 93.59 74.78"/><polygon class="cls-1" points="93 29.17 67.31 6.63 41.63 29.17 67.31 51.72 93 29.17"/><polygon class="cls-1" points="66.73 6.11 60.33 .5 21.75 .5 15.35 6.11 41.04 28.66 66.73 6.11"/><polygon class="cls-1" points="20.58 .5 8.96 .5 14.77 5.6 20.58 .5"/><polygon class="cls-1" points="372.08 242.32 372.08 227.98 356.34 214.16 330.65 236.7 337.05 242.32 372.08 242.32"/><polygon class="cls-1" points="330.06 236.19 355.75 213.64 330.06 191.1 304.37 213.64 330.06 236.19"/><polygon class="cls-1" points="278.1 190.58 303.79 213.13 329.47 190.58 303.79 168.04 278.1 190.58"/><polygon class="cls-1" points="277.51 144.98 251.82 167.52 277.51 190.07 303.2 167.53 277.51 144.98"/><polygon class="cls-1" points="251.24 121.92 225.55 144.47 251.24 167.01 276.92 144.47 251.24 121.92"/><polygon class="cls-1" points="224.96 98.86 199.27 121.41 224.96 143.95 250.65 121.41 224.96 98.86"/><polygon class="cls-1" points="198.69 75.81 173 98.35 198.69 120.89 224.38 98.35 198.69 75.81"/><polygon class="cls-1" points="172.41 97.83 198.1 75.29 172.41 52.75 146.73 75.29 172.41 97.83"/><polygon class="cls-1" points="146.14 74.78 171.83 52.23 146.14 29.69 120.45 52.23 146.14 74.78"/><polygon class="cls-1" points="119.86 51.72 145.55 29.17 119.86 6.63 94.18 29.17 119.86 51.72"/><polygon class="cls-1" points="119.28 6.11 112.88 .5 74.3 .5 67.9 6.11 93.59 28.66 119.28 6.11"/><polygon class="cls-1" points="73.12 .5 61.5 .5 67.31 5.6 73.12 .5"/><polygon class="cls-1" points="372.08 226.94 372.08 200.34 356.92 213.64 372.08 226.94"/><polygon class="cls-1" points="330.65 190.58 356.34 213.13 372.08 199.31 372.08 181.86 356.34 168.04 330.65 190.58"/><polygon class="cls-1" points="330.06 190.07 355.75 167.53 330.06 144.98 304.37 167.52 330.06 190.07"/><polygon class="cls-1" points="278.1 144.47 303.79 167.01 329.47 144.47 303.79 121.92 278.1 144.47"/><polygon class="cls-1" points="277.51 98.86 251.82 121.41 277.51 143.95 303.2 121.41 277.51 98.86"/><polygon class="cls-1" points="251.24 75.81 225.55 98.35 251.24 120.89 276.92 98.35 251.24 75.81"/><polygon class="cls-1" points="224.96 52.75 199.27 75.29 224.96 97.83 250.65 75.29 224.96 52.75"/><polygon class="cls-1" points="198.69 29.69 173 52.23 198.69 74.78 224.38 52.23 198.69 29.69"/><polygon class="cls-1" points="146.73 29.17 172.41 51.72 198.1 29.17 172.41 6.63 146.73 29.17"/><polygon class="cls-1" points="171.83 6.11 165.43 .5 126.85 .5 120.45 6.11 146.14 28.66 171.83 6.11"/><polygon class="cls-1" points="125.67 .5 114.05 .5 119.86 5.6 125.67 .5"/><polygon class="cls-1" points="372.08 180.83 372.08 154.22 356.92 167.52 372.08 180.83"/><polygon class="cls-1" points="330.65 144.47 356.34 167.01 372.08 153.19 372.08 135.74 356.34 121.92 330.65 144.47"/><polygon class="cls-1" points="330.06 143.95 355.75 121.41 330.06 98.86 304.37 121.41 330.06 143.95"/><polygon class="cls-1" points="278.1 98.35 303.79 120.89 329.47 98.35 303.79 75.81 278.1 98.35"/><polygon class="cls-1" points="277.51 52.75 251.82 75.29 277.51 97.83 303.2 75.29 277.51 52.75"/><polygon class="cls-1" points="251.24 29.69 225.55 52.23 251.24 74.78 276.92 52.23 251.24 29.69"/><polygon class="cls-1" points="224.96 6.63 199.27 29.17 224.96 51.72 250.65 29.17 224.96 6.63"/><polygon class="cls-1" points="224.38 6.11 217.98 .5 179.4 .5 173 6.11 198.69 28.66 224.38 6.11"/><polygon class="cls-1" points="178.22 .5 166.6 .5 172.41 5.6 178.22 .5"/><polygon class="cls-1" points="372.08 134.71 372.08 108.1 356.92 121.41 372.08 134.71"/><polygon class="cls-1" points="330.65 98.35 356.34 120.89 372.08 107.08 372.08 89.62 356.34 75.81 330.65 98.35"/><polygon class="cls-1" points="330.06 97.83 355.75 75.29 330.06 52.75 304.37 75.29 330.06 97.83"/><polygon class="cls-1" points="278.1 52.23 303.79 74.78 329.47 52.23 303.79 29.69 278.1 52.23"/><polygon class="cls-1" points="277.51 6.63 251.82 29.17 277.51 51.72 303.2 29.17 277.51 6.63"/><polygon class="cls-1" points="276.92 6.11 270.53 .5 231.95 .5 225.55 6.11 251.24 28.66 276.92 6.11"/><polygon class="cls-1" points="230.77 .5 219.15 .5 224.96 5.6 230.77 .5"/><polygon class="cls-1" points="372.08 88.59 372.08 61.99 356.92 75.29 372.08 88.59"/><polygon class="cls-1" points="330.65 52.23 356.34 74.78 372.08 60.96 372.08 43.51 356.34 29.69 330.65 52.23"/><polygon class="cls-1" points="330.06 51.72 355.75 29.17 330.06 6.63 304.37 29.17 330.06 51.72"/><polygon class="cls-1" points="329.47 6.11 323.08 .5 284.5 .5 278.1 6.11 303.79 28.66 329.47 6.11"/><polygon class="cls-1" points="283.32 .5 271.7 .5 277.51 5.6 283.32 .5"/><polygon class="cls-1" points="372.08 42.47 372.08 15.87 356.92 29.17 372.08 42.47"/><polygon class="cls-1" points="372.08 14.84 372.08 .5 337.05 .5 330.65 6.11 356.34 28.66 372.08 14.84"/><polygon class="cls-1" points="335.87 .5 324.25 .5 330.06 5.6 335.87 .5"/></svg>