<?xml version="1.0" encoding="UTF-8"?>
<svg id="Layer_1" data-name="Layer 1" xmlns="http://www.w3.org/2000/svg" viewBox="0 0 458.93 113.7">
  <defs>
    <style>
      .cls-1 {
        stroke-linejoin: bevel;
      }

      .cls-1, .cls-2, .cls-3, .cls-4 {
        stroke: #000;
      }

      .cls-1, .cls-3 {
        fill: #baa188;
        stroke-width: 1.2px;
      }

      .cls-2 {
        fill: #c5e2ed;
      }

      .cls-2, .cls-3, .cls-4 {
        stroke-miterlimit: 10;
      }

      .cls-2, .cls-4 {
        stroke-width: .5px;
      }

      .cls-4 {
        fill: none;
      }
    </style>
  </defs>
  <g>
    <rect class="cls-2" x="115.66" y="99.83" width="227.62" height="9.19"/>
    <rect class="cls-3" x="108.01" y="99.83" width="7.64" height="9.19"/>
    <rect class="cls-3" x="225.39" y="99.83" width="7.64" height="9.19"/>
    <rect class="cls-3" x="343.27" y="99.83" width="7.64" height="9.19"/>
    <rect class="cls-4" x="108.01" y="95.75" width="242.9" height="17.35"/>
    <line class="cls-4" x1="115.66" y1="104.42" x2="225.39" y2="104.42"/>
    <line class="cls-4" x1="233.29" y1="104.42" x2="343.27" y2="104.42"/>
  </g>
  <polygon class="cls-1" points="108.01 95.75 95.75 108.01 100.83 113.1 108.01 113.1 108.01 95.75"/>
  <g>
    <rect class="cls-2" x="345.19" y="50.2" width="117.89" height="9.19" transform="translate(79.62 301.81) rotate(-45)"/>
    <rect class="cls-3" x="439.29" y="11.22" width="7.64" height="9.19" transform="translate(767.62 -286.33) rotate(135)"/>
    <rect class="cls-3" x="355.93" y="94.58" width="7.64" height="9.19" transform="translate(684.26 -85.08) rotate(135)"/>
    <rect class="cls-3" x="444.54" y="1.38" width="8.67" height="17.35" transform="translate(773.39 -300.25) rotate(135)"/>
    <rect class="cls-4" x="337.4" y="45.76" width="134.2" height="17.35" transform="translate(729.01 -193.11) rotate(135)"/>
    <line class="cls-4" x1="440.41" y1="18.52" x2="362.45" y2="96.47"/>
  </g>
  <g>
    <rect class="cls-2" x="50.2" y="-4.15" width="9.19" height="117.89" transform="translate(-22.7 54.79) rotate(-45)"/>
    <rect class="cls-3" x="12" y="11.22" width="7.64" height="9.19" transform="translate(15.82 -6.55) rotate(45)"/>
    <rect class="cls-3" x="95.36" y="94.58" width="7.64" height="9.19" transform="translate(99.18 -41.08) rotate(45)"/>
    <rect class="cls-3" x="5.71" y="1.38" width="8.67" height="17.35" transform="translate(10.05 -4.16) rotate(45)"/>
    <rect class="cls-4" x="-12.67" y="45.76" width="134.2" height="17.35" transform="translate(54.43 -22.55) rotate(45)"/>
    <line class="cls-4" x1="18.52" y1="18.52" x2="96.47" y2="96.47"/>
  </g>
  <polygon class="cls-1" points="350.92 95.75 363.18 108.01 358.1 113.1 350.92 113.1 350.92 95.75"/>
</svg>