<?xml version="1.0" encoding="UTF-8"?>
<svg id="Layer_1" data-name="Layer 1" xmlns="http://www.w3.org/2000/svg" viewBox="0 0 313.36 436.02">
  <defs>
    <style>
      .cls-1 {
        stroke-width: .6px;
      }

      .cls-1, .cls-2, .cls-3 {
        stroke: #000;
        stroke-miterlimit: 10;
      }

      .cls-1, .cls-3 {
        fill: none;
      }

      .cls-2 {
        fill: #baa188;
        stroke-width: 1.2px;
      }

      .cls-3 {
        stroke-width: .5px;
      }
    </style>
  </defs>
  <polygon class="cls-2" points="273.09 232.97 283.97 244.54 104.78 435.14 93.91 423.58 273.09 232.97"/>
  <polygon class="cls-2" points="273.11 203.05 283.99 191.48 104.8 .88 93.93 12.45 273.11 203.05"/>
  <path class="cls-1" d="m93.91,423.58c-40.09-48.03-64.52-109.34-64.52-178.62"/>
  <path class="cls-3" d="m93.93,12.45C53.84,60.47,29.39,122.66,29.39,191.94"/>
  <path class="cls-2" d="m283.97,228.61v15.92h15.47v-53.05h-15.47v15.61h-6.37v21.52h6.37Z"/>
  <rect class="cls-2" x="286.11" y="244.53" width="26.65" height="6.33" transform="translate(598.88 495.39) rotate(180)"/>
  <rect class="cls-2" x="286.11" y="185.15" width="26.65" height="6.33" transform="translate(598.88 376.63) rotate(180)"/>
  <rect class="cls-2" x=".6" y="244.95" width="26.65" height="6.33" transform="translate(27.85 496.23) rotate(180)"/>
  <rect class="cls-2" x=".6" y="184.68" width="26.65" height="6.33" transform="translate(27.85 375.69) rotate(180)"/>
  <path class="cls-2" d="m29.39,228.76v16.19h-15.47v-53.94h15.47v15.87h6.38v21.88h-6.38Z"/>
</svg>