<?xml version="1.0" encoding="UTF-8"?>
<svg id="Layer_1" data-name="Layer 1" xmlns="http://www.w3.org/2000/svg" viewBox="0 0 376.32 18.55">
  <defs>
    <style>
      .cls-1 {
        fill: #c5e2ed;
      }

      .cls-1, .cls-2, .cls-3 {
        stroke-width: .75px;
      }

      .cls-1, .cls-2, .cls-3, .cls-4 {
        stroke: #000;
        stroke-miterlimit: 10;
      }

      .cls-2 {
        fill: none;
      }

      .cls-3, .cls-4 {
        fill: #baa188;
      }

      .cls-4 {
        stroke-width: 1.2px;
      }
    </style>
  </defs>
  <rect class="cls-4" x=".6" y=".6" width="8.67" height="17.35"/>
  <rect class="cls-4" x="367.05" y=".6" width="8.67" height="17.35"/>
  <rect class="cls-2" x="9.27" y=".6" width="357.77" height="17.35"/>
  <rect class="cls-1" x="9.27" y="4.72" width="357.77" height="9.11"/>
  <rect class="cls-4" x="124.15" y=".6" width="6.58" height="17.35"/>
  <rect class="cls-4" x="245.6" y=".6" width="6.58" height="17.35"/>
  <rect class="cls-4" x="9.27" y="4.72" width="4.34" height="9.11"/>
  <rect class="cls-4" x="119.81" y="4.72" width="4.34" height="9.11"/>
  <line class="cls-3" x1="13.61" y1="9.27" x2="119.81" y2="9.27"/>
  <rect class="cls-4" x="130.72" y="4.72" width="4.34" height="9.11"/>
  <rect class="cls-4" x="241.26" y="4.72" width="4.34" height="9.11"/>
  <line class="cls-3" x1="135.06" y1="9.27" x2="241.26" y2="9.27"/>
  <rect class="cls-4" x="252.17" y="4.72" width="4.34" height="9.11"/>
  <rect class="cls-4" x="362.71" y="4.72" width="4.34" height="9.11"/>
  <line class="cls-3" x1="256.51" y1="9.27" x2="362.71" y2="9.27"/>
</svg>