<?xml version="1.0" encoding="UTF-8"?>
<svg id="master-artboard" xmlns="http://www.w3.org/2000/svg" xmlns:xlink="http://www.w3.org/1999/xlink" viewBox="0 0 1204.1 781.9">
  <defs>
    <style>
      .cls-1 {
        fill: url(#linear-gradient-75);
      }

      .cls-2 {
        fill: url(#linear-gradient-2);
      }

      .cls-3 {
        fill: url(#linear-gradient-51);
      }

      .cls-4 {
        fill: #fff;
      }

      .cls-5 {
        fill: url(#linear-gradient-17);
      }

      .cls-6 {
        fill: url(#linear-gradient-80);
      }

      .cls-7 {
        fill: url(#linear-gradient-43);
      }

      .cls-8 {
        fill: url(#linear-gradient-15);
      }

      .cls-9 {
        fill: url(#linear-gradient-58);
      }

      .cls-10 {
        fill: url(#linear-gradient-69);
      }

      .cls-11 {
        fill: url(#linear-gradient-81);
      }

      .cls-12 {
        fill: url(#linear-gradient-18);
      }

      .cls-13 {
        fill: url(#linear-gradient-56);
      }

      .cls-14 {
        fill: url(#linear-gradient-40);
      }

      .cls-15 {
        fill: url(#linear-gradient-52);
      }

      .cls-16 {
        fill: url(#linear-gradient-28);
      }

      .cls-17 {
        fill: url(#linear-gradient-14);
      }

      .cls-18 {
        fill: url(#linear-gradient-36);
      }

      .cls-19 {
        fill: url(#linear-gradient-78);
      }

      .cls-20 {
        fill: url(#linear-gradient-20);
      }

      .cls-21 {
        fill: url(#linear-gradient-6);
      }

      .cls-22 {
        fill: url(#linear-gradient-53);
      }

      .cls-23 {
        fill: url(#linear-gradient-60);
      }

      .cls-24 {
        fill: url(#linear-gradient-35);
      }

      .cls-25 {
        fill: url(#linear-gradient-48);
      }

      .cls-26 {
        fill: url(#linear-gradient-32);
      }

      .cls-27 {
        fill: url(#linear-gradient-11);
      }

      .cls-28 {
        fill: url(#linear-gradient-50);
      }

      .cls-29 {
        fill: url(#linear-gradient-63);
      }

      .cls-30 {
        fill: url(#linear-gradient-67);
      }

      .cls-31 {
        fill: url(#linear-gradient-39);
      }

      .cls-32 {
        fill: url(#linear-gradient-10);
      }

      .cls-33 {
        fill: url(#linear-gradient-59);
      }

      .cls-34 {
        fill: url(#linear-gradient-49);
      }

      .cls-35 {
        fill: url(#linear-gradient-37);
      }

      .cls-36 {
        fill: url(#linear-gradient-82);
      }

      .cls-37 {
        fill: url(#linear-gradient-16);
      }

      .cls-38 {
        fill: url(#linear-gradient-31);
      }

      .cls-39 {
        fill: url(#linear-gradient-61);
      }

      .cls-40 {
        fill: url(#linear-gradient-68);
      }

      .cls-41 {
        fill: url(#linear-gradient-62);
      }

      .cls-42 {
        fill: url(#linear-gradient-41);
      }

      .cls-43 {
        fill: url(#linear-gradient-76);
      }

      .cls-44 {
        fill: url(#linear-gradient-21);
      }

      .cls-45 {
        fill: url(#linear-gradient-72);
      }

      .cls-46 {
        fill: url(#linear-gradient-25);
      }

      .cls-47 {
        fill: url(#linear-gradient-5);
      }

      .cls-48 {
        fill: url(#linear-gradient-64);
      }

      .cls-49 {
        fill: url(#linear-gradient-83);
      }

      .cls-50 {
        fill: url(#linear-gradient-54);
      }

      .cls-51 {
        fill: url(#linear-gradient-45);
      }

      .cls-52 {
        fill: url(#linear-gradient-55);
      }

      .cls-53 {
        fill: url(#linear-gradient-34);
      }

      .cls-54 {
        fill: url(#linear-gradient-65);
      }

      .cls-55 {
        fill: url(#linear-gradient-70);
      }

      .cls-56 {
        fill: url(#linear-gradient-79);
      }

      .cls-57 {
        fill: url(#linear-gradient-7);
      }

      .cls-58 {
        fill: url(#linear-gradient-66);
      }

      .cls-59 {
        fill: url(#linear-gradient-24);
      }

      .cls-60 {
        fill: url(#linear-gradient-73);
      }

      .cls-61 {
        fill: url(#linear-gradient-9);
      }

      .cls-62 {
        fill: url(#linear-gradient-22);
      }

      .cls-63 {
        fill: url(#linear-gradient-74);
      }

      .cls-64 {
        fill: url(#linear-gradient-42);
      }

      .cls-65 {
        fill: url(#linear-gradient-3);
      }

      .cls-66 {
        fill: url(#linear-gradient);
      }

      .cls-67 {
        fill: url(#linear-gradient-27);
      }

      .cls-68 {
        fill: url(#linear-gradient-33);
      }

      .cls-69 {
        fill: url(#linear-gradient-38);
      }

      .cls-70 {
        fill: url(#linear-gradient-29);
      }

      .cls-71 {
        fill: url(#linear-gradient-30);
      }

      .cls-72 {
        fill: url(#linear-gradient-23);
      }

      .cls-73 {
        fill: url(#linear-gradient-19);
      }

      .cls-74 {
        fill: url(#linear-gradient-71);
      }

      .cls-75 {
        fill: url(#linear-gradient-4);
      }

      .cls-76 {
        fill: url(#linear-gradient-77);
      }

      .cls-77 {
        fill: url(#linear-gradient-8);
      }

      .cls-78 {
        fill: url(#linear-gradient-44);
      }

      .cls-79 {
        fill: url(#linear-gradient-57);
      }

      .cls-80 {
        fill: url(#linear-gradient-47);
      }

      .cls-81 {
        fill: url(#linear-gradient-46);
      }

      .cls-82 {
        fill: url(#linear-gradient-12);
      }

      .cls-83 {
        fill: url(#linear-gradient-13);
      }

      .cls-84 {
        fill: url(#linear-gradient-26);
      }
    </style>
    <linearGradient id="linear-gradient" x1="-1019.25" y1="-272.96" x2="-954.75" y2="-272.96" gradientTransform="translate(-764.05 908.96) rotate(-174.64) scale(.9 -1.09)" gradientUnits="userSpaceOnUse">
      <stop offset="0" stop-color="#99c44a"/>
      <stop offset="1" stop-color="#749944"/>
    </linearGradient>
    <linearGradient id="linear-gradient-2" x1="-303.16" y1="-589.11" x2="-248.33" y2="-589.11" gradientTransform="translate(-536.43 412.66) rotate(-93.68) scale(1 -1)" gradientUnits="userSpaceOnUse">
      <stop offset="0" stop-color="#99c44a"/>
      <stop offset="1" stop-color="#749944"/>
    </linearGradient>
    <linearGradient id="linear-gradient-3" x1="-1091.13" y1="112.31" x2="-1026.64" y2="112.31" gradientTransform="translate(-657.27 1120.94) rotate(144.69) scale(.9 -1.09)" gradientUnits="userSpaceOnUse">
      <stop offset="0" stop-color="#99c44a"/>
      <stop offset="1" stop-color="#749944"/>
    </linearGradient>
    <linearGradient id="linear-gradient-4" x1="-798.42" y1="-406.36" x2="-733.95" y2="-406.36" gradientTransform="translate(-718.07 586.56) rotate(-140.25) scale(.9 -1.09)" gradientUnits="userSpaceOnUse">
      <stop offset="0" stop-color="#99c44a"/>
      <stop offset="1" stop-color="#749944"/>
    </linearGradient>
    <linearGradient id="linear-gradient-5" x1="-971.21" y1="356.38" x2="-906.74" y2="356.38" gradientTransform="translate(-512.84 1204.37) rotate(117.13) scale(.9 -1.09)" gradientUnits="userSpaceOnUse">
      <stop offset="0" stop-color="#99c44a"/>
      <stop offset="1" stop-color="#749944"/>
    </linearGradient>
    <linearGradient id="linear-gradient-6" x1="4.45" y1="-392.26" x2="59.28" y2="-392.26" gradientTransform="translate(-285.1 424.64) rotate(-62.02) scale(1 -1)" gradientUnits="userSpaceOnUse">
      <stop offset="0" stop-color="#99c44a"/>
      <stop offset="1" stop-color="#749944"/>
    </linearGradient>
    <linearGradient id="linear-gradient-7" x1="-332.06" y1="584.73" x2="-267.59" y2="584.73" gradientTransform="translate(-206.03 1126.44) rotate(59.4) scale(.9 -1.09)" gradientUnits="userSpaceOnUse">
      <stop offset="0" stop-color="#99c44a"/>
      <stop offset="1" stop-color="#749944"/>
    </linearGradient>
    <linearGradient id="linear-gradient-8" x1="121.9" y1="2.35" x2="176.72" y2="2.35" gradientTransform="translate(-35.69 612.94) rotate(-22.92) scale(1 -1)" gradientUnits="userSpaceOnUse">
      <stop offset="0" stop-color="#99c44a"/>
      <stop offset="1" stop-color="#749944"/>
    </linearGradient>
    <linearGradient id="linear-gradient-9" x1="-856.29" y1="-356.3" x2="-791.79" y2="-356.3" gradientTransform="translate(-797.94 602.97) rotate(-148.97) scale(1 -1.09)" gradientUnits="userSpaceOnUse">
      <stop offset="0" stop-color="#99c44a"/>
      <stop offset="1" stop-color="#749944"/>
    </linearGradient>
    <linearGradient id="linear-gradient-10" x1=".45" y1="433.44" x2="64.92" y2="433.44" gradientTransform="translate(-64.53 950.63) rotate(25.36) scale(.9 -1.09)" gradientUnits="userSpaceOnUse">
      <stop offset="0" stop-color="#99c44a"/>
      <stop offset="1" stop-color="#749944"/>
    </linearGradient>
    <linearGradient id="linear-gradient-11" x1="101.21" y1="230.39" x2="156.03" y2="230.39" gradientTransform="translate(0 779.89) scale(1 -1)" gradientUnits="userSpaceOnUse">
      <stop offset="0" stop-color="#99c44a"/>
      <stop offset="1" stop-color="#749944"/>
    </linearGradient>
    <linearGradient id="linear-gradient-12" x1="-206.94" y1="-501.12" x2="-152.11" y2="-501.12" gradientTransform="translate(-407.65 388.53) rotate(-84.08) scale(1 -1)" gradientUnits="userSpaceOnUse">
      <stop offset="0" stop-color="#99c44a"/>
      <stop offset="1" stop-color="#749944"/>
    </linearGradient>
    <linearGradient id="linear-gradient-13" x1="-650.75" y1="587.43" x2="-605.92" y2="587.43" gradientTransform="translate(-396.85 1231.18) rotate(90.28) scale(1 -1)" gradientUnits="userSpaceOnUse">
      <stop offset="0" stop-color="#99c44a"/>
      <stop offset="1" stop-color="#749944"/>
    </linearGradient>
    <linearGradient id="linear-gradient-14" x1="-1091.79" y1="30.39" x2="-1058.32" y2="30.39" gradientTransform="translate(-842.27 1038) rotate(157.21) scale(1 -1)" gradientUnits="userSpaceOnUse">
      <stop offset="0" stop-color="#99c44a"/>
      <stop offset="1" stop-color="#749944"/>
    </linearGradient>
    <linearGradient id="linear-gradient-15" x1="-620.61" y1="-17.53" x2="-529.44" y2="-17.53" gradientTransform="translate(706.53 1092.11) rotate(135) scale(1 -1)" gradientUnits="userSpaceOnUse">
      <stop offset="0" stop-color="#99c44a"/>
      <stop offset="1" stop-color="#749944"/>
    </linearGradient>
    <linearGradient id="linear-gradient-16" x1="-620.61" y1="-293.17" x2="-529.44" y2="-293.17" gradientTransform="translate(370.59 756.17) rotate(135)" gradientUnits="userSpaceOnUse">
      <stop offset="0" stop-color="#99c44a"/>
      <stop offset="1" stop-color="#749944"/>
    </linearGradient>
    <linearGradient id="linear-gradient-17" x1="438.83" y1="638.15" x2="530.01" y2="638.15" gradientTransform="translate(299.84 663.77) rotate(45) scale(1 -1)" gradientUnits="userSpaceOnUse">
      <stop offset="0" stop-color="#99c44a"/>
      <stop offset="1" stop-color="#749944"/>
    </linearGradient>
    <linearGradient id="linear-gradient-18" x1="442.65" y1="-952.67" x2="533.83" y2="-952.67" gradientTransform="translate(-36.1 999.71) rotate(45)" gradientUnits="userSpaceOnUse">
      <stop offset="0" stop-color="#99c44a"/>
      <stop offset="1" stop-color="#749944"/>
    </linearGradient>
    <linearGradient id="linear-gradient-19" x1="-226.39" y1="533.05" x2="-135.28" y2="533.05" gradientTransform="translate(590.45 795.18) rotate(90) scale(1 -1)" gradientUnits="userSpaceOnUse">
      <stop offset="0" stop-color="#99c44a"/>
      <stop offset="1" stop-color="#749944"/>
    </linearGradient>
    <linearGradient id="linear-gradient-20" x1="-226.29" y1="-843.63" x2="-135.18" y2="-843.63" gradientTransform="translate(115.37 795.18) rotate(90)" gradientUnits="userSpaceOnUse">
      <stop offset="0" stop-color="#99c44a"/>
      <stop offset="1" stop-color="#749944"/>
    </linearGradient>
    <linearGradient id="linear-gradient-21" x1="989.39" y1="243.88" x2="1080.51" y2="243.88" gradientTransform="translate(0 779.89) scale(1 -1)" gradientUnits="userSpaceOnUse">
      <stop offset="0" stop-color="#99c44a"/>
      <stop offset="1" stop-color="#749944"/>
    </linearGradient>
    <linearGradient id="linear-gradient-22" x1="993.19" y1="-558.27" x2="1084.31" y2="-558.27" gradientTransform="translate(0 1254.97)" gradientUnits="userSpaceOnUse">
      <stop offset="0" stop-color="#99c44a"/>
      <stop offset="1" stop-color="#749944"/>
    </linearGradient>
    <linearGradient id="linear-gradient-23" x1="944.7" y1="693.24" x2="1030.9" y2="693.24" gradientTransform="translate(0 779.89) scale(1 -1)" gradientUnits="userSpaceOnUse">
      <stop offset="0" stop-color="#99c44a"/>
      <stop offset="1" stop-color="#749944"/>
    </linearGradient>
    <linearGradient id="linear-gradient-24" x1="914.6" y1="664.59" x2="1028.77" y2="664.59" gradientTransform="translate(0 779.89) scale(1 -1)" gradientUnits="userSpaceOnUse">
      <stop offset="0" stop-color="#99c44a"/>
      <stop offset="1" stop-color="#749944"/>
    </linearGradient>
    <linearGradient id="linear-gradient-25" x1="882.2" y1="637.71" x2="1038.6" y2="637.71" gradientTransform="translate(0 779.89) scale(1 -1)" gradientUnits="userSpaceOnUse">
      <stop offset="0" stop-color="#99c44a"/>
      <stop offset="1" stop-color="#749944"/>
    </linearGradient>
    <linearGradient id="linear-gradient-26" x1="883.5" y1="603.04" x2="1031.7" y2="603.04" gradientTransform="translate(0 779.89) scale(1 -1)" gradientUnits="userSpaceOnUse">
      <stop offset="0" stop-color="#99c44a"/>
      <stop offset="1" stop-color="#749944"/>
    </linearGradient>
    <linearGradient id="linear-gradient-27" x1="914.5" y1="594.14" x2="1027.2" y2="594.14" gradientTransform="translate(0 779.89) scale(1 -1)" gradientUnits="userSpaceOnUse">
      <stop offset="0" stop-color="#99c44a"/>
      <stop offset="1" stop-color="#749944"/>
    </linearGradient>
    <linearGradient id="linear-gradient-28" x1="1023.44" y1="706.39" x2="1053.24" y2="706.39" gradientTransform="translate(0 779.89) scale(1 -1)" gradientUnits="userSpaceOnUse">
      <stop offset="0" stop-color="#99c44a"/>
      <stop offset="1" stop-color="#749944"/>
    </linearGradient>
    <linearGradient id="linear-gradient-29" x1="1030.3" y1="699.69" x2="1093.95" y2="699.69" gradientTransform="translate(0 779.89) scale(1 -1)" gradientUnits="userSpaceOnUse">
      <stop offset="0" stop-color="#99c44a"/>
      <stop offset="1" stop-color="#749944"/>
    </linearGradient>
    <linearGradient id="linear-gradient-30" x1="1029.61" y1="680.26" x2="1153.3" y2="680.26" gradientTransform="translate(0 779.89) scale(1 -1)" gradientUnits="userSpaceOnUse">
      <stop offset="0" stop-color="#99c44a"/>
      <stop offset="1" stop-color="#749944"/>
    </linearGradient>
    <linearGradient id="linear-gradient-31" x1="936" y1="562.84" x2="1031.67" y2="562.84" gradientTransform="translate(0 779.89) scale(1 -1)" gradientUnits="userSpaceOnUse">
      <stop offset="0" stop-color="#99c44a"/>
      <stop offset="1" stop-color="#749944"/>
    </linearGradient>
    <linearGradient id="linear-gradient-32" x1="1029.6" y1="647.36" x2="1189.5" y2="647.36" gradientTransform="translate(0 779.89) scale(1 -1)" gradientUnits="userSpaceOnUse">
      <stop offset="0" stop-color="#99c44a"/>
      <stop offset="1" stop-color="#749944"/>
    </linearGradient>
    <linearGradient id="linear-gradient-33" x1="1017.54" y1="547.39" x2="1056.55" y2="547.39" gradientTransform="translate(0 779.89) scale(1 -1)" gradientUnits="userSpaceOnUse">
      <stop offset="0" stop-color="#99c44a"/>
      <stop offset="1" stop-color="#749944"/>
    </linearGradient>
    <linearGradient id="linear-gradient-34" x1="1031.08" y1="562.21" x2="1123.6" y2="562.21" gradientTransform="translate(0 779.89) scale(1 -1)" gradientUnits="userSpaceOnUse">
      <stop offset="0" stop-color="#99c44a"/>
      <stop offset="1" stop-color="#749944"/>
    </linearGradient>
    <linearGradient id="linear-gradient-35" x1="1035" y1="582.94" x2="1173.5" y2="582.94" gradientTransform="translate(0 779.89) scale(1 -1)" gradientUnits="userSpaceOnUse">
      <stop offset="0" stop-color="#99c44a"/>
      <stop offset="1" stop-color="#749944"/>
    </linearGradient>
    <linearGradient id="linear-gradient-36" x1="1038.3" y1="612.73" x2="1200.4" y2="612.73" gradientTransform="translate(0 779.89) scale(1 -1)" gradientUnits="userSpaceOnUse">
      <stop offset="0" stop-color="#99c44a"/>
      <stop offset="1" stop-color="#749944"/>
    </linearGradient>
    <linearGradient id="linear-gradient-37" x1="-2198.91" y1="1686.99" x2="-2109.61" y2="1686.99" gradientTransform="translate(-1007.79 2265.21) rotate(90) scale(1 -1)" gradientUnits="userSpaceOnUse">
      <stop offset="0" stop-color="#99c44a"/>
      <stop offset="1" stop-color="#749944"/>
    </linearGradient>
    <linearGradient id="linear-gradient-38" x1="-2230.21" y1="1657.29" x2="-2111.8" y2="1657.29" gradientTransform="translate(-1007.79 2265.21) rotate(90) scale(1 -1)" gradientUnits="userSpaceOnUse">
      <stop offset="0" stop-color="#99c44a"/>
      <stop offset="1" stop-color="#749944"/>
    </linearGradient>
    <linearGradient id="linear-gradient-39" x1="-2263.81" y1="1629.38" x2="-2101.71" y2="1629.38" gradientTransform="translate(-1007.79 2265.21) rotate(90) scale(1 -1)" gradientUnits="userSpaceOnUse">
      <stop offset="0" stop-color="#99c44a"/>
      <stop offset="1" stop-color="#749944"/>
    </linearGradient>
    <linearGradient id="linear-gradient-40" x1="-2262.51" y1="1593.49" x2="-2108.81" y2="1593.49" gradientTransform="translate(-1007.79 2265.21) rotate(90) scale(1 -1)" gradientUnits="userSpaceOnUse">
      <stop offset="0" stop-color="#99c44a"/>
      <stop offset="1" stop-color="#749944"/>
    </linearGradient>
    <linearGradient id="linear-gradient-41" x1="-2230.31" y1="1584.14" x2="-2113.51" y2="1584.14" gradientTransform="translate(-1007.79 2265.21) rotate(90) scale(1 -1)" gradientUnits="userSpaceOnUse">
      <stop offset="0" stop-color="#99c44a"/>
      <stop offset="1" stop-color="#749944"/>
    </linearGradient>
    <linearGradient id="linear-gradient-42" x1="-2117.37" y1="1700.49" x2="-2086.48" y2="1700.49" gradientTransform="translate(-1007.79 2265.21) rotate(90) scale(1 -1)" gradientUnits="userSpaceOnUse">
      <stop offset="0" stop-color="#99c44a"/>
      <stop offset="1" stop-color="#749944"/>
    </linearGradient>
    <linearGradient id="linear-gradient-43" x1="-2110.21" y1="1693.59" x2="-2044.18" y2="1693.59" gradientTransform="translate(-1007.79 2265.21) rotate(90) scale(1 -1)" gradientUnits="userSpaceOnUse">
      <stop offset="0" stop-color="#99c44a"/>
      <stop offset="1" stop-color="#749944"/>
    </linearGradient>
    <linearGradient id="linear-gradient-44" x1="-2110.94" y1="1673.6" x2="-1982.71" y2="1673.6" gradientTransform="translate(-1007.79 2265.21) rotate(90) scale(1 -1)" gradientUnits="userSpaceOnUse">
      <stop offset="0" stop-color="#99c44a"/>
      <stop offset="1" stop-color="#749944"/>
    </linearGradient>
    <linearGradient id="linear-gradient-45" x1="-2208.11" y1="1551.64" x2="-2108.89" y2="1551.64" gradientTransform="translate(-1007.79 2265.21) rotate(90) scale(1 -1)" gradientUnits="userSpaceOnUse">
      <stop offset="0" stop-color="#99c44a"/>
      <stop offset="1" stop-color="#749944"/>
    </linearGradient>
    <linearGradient id="linear-gradient-46" x1="-2110.91" y1="1639.39" x2="-1945.21" y2="1639.39" gradientTransform="translate(-1007.79 2265.21) rotate(90) scale(1 -1)" gradientUnits="userSpaceOnUse">
      <stop offset="0" stop-color="#99c44a"/>
      <stop offset="1" stop-color="#749944"/>
    </linearGradient>
    <linearGradient id="linear-gradient-47" x1="-2123.5" y1="1535.74" x2="-2083.04" y2="1535.74" gradientTransform="translate(-1007.79 2265.21) rotate(90) scale(1 -1)" gradientUnits="userSpaceOnUse">
      <stop offset="0" stop-color="#99c44a"/>
      <stop offset="1" stop-color="#749944"/>
    </linearGradient>
    <linearGradient id="linear-gradient-48" x1="-2109.45" y1="1551.13" x2="-2013.51" y2="1551.13" gradientTransform="translate(-1007.79 2265.21) rotate(90) scale(1 -1)" gradientUnits="userSpaceOnUse">
      <stop offset="0" stop-color="#99c44a"/>
      <stop offset="1" stop-color="#749944"/>
    </linearGradient>
    <linearGradient id="linear-gradient-49" x1="-2105.41" y1="1572.59" x2="-1961.81" y2="1572.59" gradientTransform="translate(-1007.79 2265.21) rotate(90) scale(1 -1)" gradientUnits="userSpaceOnUse">
      <stop offset="0" stop-color="#99c44a"/>
      <stop offset="1" stop-color="#749944"/>
    </linearGradient>
    <linearGradient id="linear-gradient-50" x1="-2101.91" y1="1603.51" x2="-1933.91" y2="1603.51" gradientTransform="translate(-1007.79 2265.21) rotate(90) scale(1 -1)" gradientUnits="userSpaceOnUse">
      <stop offset="0" stop-color="#99c44a"/>
      <stop offset="1" stop-color="#749944"/>
    </linearGradient>
    <linearGradient id="linear-gradient-51" x1="496.5" y1="696.19" x2="585.8" y2="696.19" gradientTransform="translate(0 779.89) scale(1 -1)" gradientUnits="userSpaceOnUse">
      <stop offset="0" stop-color="#99c44a"/>
      <stop offset="1" stop-color="#749944"/>
    </linearGradient>
    <linearGradient id="linear-gradient-52" x1="465.2" y1="666.49" x2="583.61" y2="666.49" gradientTransform="translate(0 779.89) scale(1 -1)" gradientUnits="userSpaceOnUse">
      <stop offset="0" stop-color="#99c44a"/>
      <stop offset="1" stop-color="#749944"/>
    </linearGradient>
    <linearGradient id="linear-gradient-53" x1="431.7" y1="638.57" x2="593.8" y2="638.57" gradientTransform="translate(0 779.89) scale(1 -1)" gradientUnits="userSpaceOnUse">
      <stop offset="0" stop-color="#99c44a"/>
      <stop offset="1" stop-color="#749944"/>
    </linearGradient>
    <linearGradient id="linear-gradient-54" x1="432.9" y1="602.69" x2="586.6" y2="602.69" gradientTransform="translate(0 779.89) scale(1 -1)" gradientUnits="userSpaceOnUse">
      <stop offset="0" stop-color="#99c44a"/>
      <stop offset="1" stop-color="#749944"/>
    </linearGradient>
    <linearGradient id="linear-gradient-55" x1="465.1" y1="593.44" x2="581.9" y2="593.44" gradientTransform="translate(0 779.89) scale(1 -1)" gradientUnits="userSpaceOnUse">
      <stop offset="0" stop-color="#99c44a"/>
      <stop offset="1" stop-color="#749944"/>
    </linearGradient>
    <linearGradient id="linear-gradient-56" x1="578.08" y1="709.79" x2="608.97" y2="709.79" gradientTransform="translate(0 779.89) scale(1 -1)" gradientUnits="userSpaceOnUse">
      <stop offset="0" stop-color="#99c44a"/>
      <stop offset="1" stop-color="#749944"/>
    </linearGradient>
    <linearGradient id="linear-gradient-57" x1="585.2" y1="702.79" x2="651.23" y2="702.79" gradientTransform="translate(0 779.89) scale(1 -1)" gradientUnits="userSpaceOnUse">
      <stop offset="0" stop-color="#99c44a"/>
      <stop offset="1" stop-color="#749944"/>
    </linearGradient>
    <linearGradient id="linear-gradient-58" x1="584.47" y1="682.8" x2="712.7" y2="682.8" gradientTransform="translate(0 779.89) scale(1 -1)" gradientUnits="userSpaceOnUse">
      <stop offset="0" stop-color="#99c44a"/>
      <stop offset="1" stop-color="#749944"/>
    </linearGradient>
    <linearGradient id="linear-gradient-59" x1="487.3" y1="560.94" x2="586.54" y2="560.94" gradientTransform="translate(0 779.89) scale(1 -1)" gradientUnits="userSpaceOnUse">
      <stop offset="0" stop-color="#99c44a"/>
      <stop offset="1" stop-color="#749944"/>
    </linearGradient>
    <linearGradient id="linear-gradient-60" x1="584.5" y1="648.59" x2="750.2" y2="648.59" gradientTransform="translate(0 779.89) scale(1 -1)" gradientUnits="userSpaceOnUse">
      <stop offset="0" stop-color="#99c44a"/>
      <stop offset="1" stop-color="#749944"/>
    </linearGradient>
    <linearGradient id="linear-gradient-61" x1="571.95" y1="544.94" x2="612.43" y2="544.94" gradientTransform="translate(0 779.89) scale(1 -1)" gradientUnits="userSpaceOnUse">
      <stop offset="0" stop-color="#99c44a"/>
      <stop offset="1" stop-color="#749944"/>
    </linearGradient>
    <linearGradient id="linear-gradient-62" x1="585.96" y1="560.43" x2="681.9" y2="560.43" gradientTransform="translate(0 779.89) scale(1 -1)" gradientUnits="userSpaceOnUse">
      <stop offset="0" stop-color="#99c44a"/>
      <stop offset="1" stop-color="#749944"/>
    </linearGradient>
    <linearGradient id="linear-gradient-63" x1="590" y1="581.79" x2="733.6" y2="581.79" gradientTransform="translate(0 779.89) scale(1 -1)" gradientUnits="userSpaceOnUse">
      <stop offset="0" stop-color="#99c44a"/>
      <stop offset="1" stop-color="#749944"/>
    </linearGradient>
    <linearGradient id="linear-gradient-64" x1="593.5" y1="612.71" x2="761.5" y2="612.71" gradientTransform="translate(0 779.89) scale(1 -1)" gradientUnits="userSpaceOnUse">
      <stop offset="0" stop-color="#99c44a"/>
      <stop offset="1" stop-color="#749944"/>
    </linearGradient>
    <linearGradient id="linear-gradient-65" x1="61.81" y1="700.58" x2="156.29" y2="700.58" gradientTransform="translate(0 779.89) scale(1 -1)" gradientUnits="userSpaceOnUse">
      <stop offset="0" stop-color="#99c44a"/>
      <stop offset="1" stop-color="#749944"/>
    </linearGradient>
    <linearGradient id="linear-gradient-66" x1="138.6" y1="676.68" x2="271.4" y2="676.68" gradientTransform="translate(0 779.89) scale(1 -1)" gradientUnits="userSpaceOnUse">
      <stop offset="0" stop-color="#99c44a"/>
      <stop offset="1" stop-color="#749944"/>
    </linearGradient>
    <linearGradient id="linear-gradient-67" x1="15.9" y1="587.95" x2="147.73" y2="587.95" gradientTransform="translate(0 779.89) scale(1 -1)" gradientUnits="userSpaceOnUse">
      <stop offset="0" stop-color="#99c44a"/>
      <stop offset="1" stop-color="#749944"/>
    </linearGradient>
    <linearGradient id="linear-gradient-68" x1="0" y1="672.34" x2="145.56" y2="672.34" gradientTransform="translate(0 779.89) scale(1 -1)" gradientUnits="userSpaceOnUse">
      <stop offset="0" stop-color="#99c44a"/>
      <stop offset="1" stop-color="#749944"/>
    </linearGradient>
    <linearGradient id="linear-gradient-69" x1="75.44" y1="535.22" x2="171.94" y2="535.22" gradientTransform="translate(0 779.89) scale(1 -1)" gradientUnits="userSpaceOnUse">
      <stop offset="0" stop-color="#99c44a"/>
      <stop offset="1" stop-color="#749944"/>
    </linearGradient>
    <linearGradient id="linear-gradient-70" x1="135.03" y1="578.85" x2="303.5" y2="578.85" gradientTransform="translate(0 779.89) scale(1 -1)" gradientUnits="userSpaceOnUse">
      <stop offset="0" stop-color="#99c44a"/>
      <stop offset="1" stop-color="#749944"/>
    </linearGradient>
    <linearGradient id="linear-gradient-71" x1="121.22" y1="683.16" x2="188.42" y2="683.16" gradientTransform="translate(0 779.89) scale(1 -1)" gradientUnits="userSpaceOnUse">
      <stop offset="0" stop-color="#99c44a"/>
      <stop offset="1" stop-color="#749944"/>
    </linearGradient>
    <linearGradient id="linear-gradient-72" x1="570.54" y1="261.13" x2="655.34" y2="261.13" gradientTransform="translate(0 779.89) scale(1 -1)" gradientUnits="userSpaceOnUse">
      <stop offset="0" stop-color="#99c44a"/>
      <stop offset="1" stop-color="#749944"/>
    </linearGradient>
    <linearGradient id="linear-gradient-73" x1="594.45" y1="178.99" x2="599.29" y2="178.99" gradientTransform="translate(0 779.89) scale(1 -1)" gradientUnits="userSpaceOnUse">
      <stop offset="0" stop-color="#99c44a"/>
      <stop offset="1" stop-color="#749944"/>
    </linearGradient>
    <linearGradient id="linear-gradient-74" x1="21.03" y1="-1198.77" x2="114.87" y2="-1198.77" gradientTransform="translate(-598.6 76.11) rotate(-63.31) scale(1 -1)" gradientUnits="userSpaceOnUse">
      <stop offset="0" stop-color="#99c44a"/>
      <stop offset="1" stop-color="#749944"/>
    </linearGradient>
    <linearGradient id="linear-gradient-75" x1="47.46" y1="-1289.59" x2="52.81" y2="-1289.59" gradientTransform="translate(-598.6 76.11) rotate(-63.31) scale(1 -1)" gradientUnits="userSpaceOnUse">
      <stop offset="0" stop-color="#99c44a"/>
      <stop offset="1" stop-color="#749944"/>
    </linearGradient>
    <linearGradient id="linear-gradient-76" x1="-1593.2" y1="-1281.35" x2="-1516.41" y2="-1281.35" gradientTransform="translate(-1460.67 259.31) rotate(-128.74) scale(1 -1)" gradientUnits="userSpaceOnUse">
      <stop offset="0" stop-color="#99c44a"/>
      <stop offset="1" stop-color="#749944"/>
    </linearGradient>
    <linearGradient id="linear-gradient-77" x1="-1571.53" y1="-1355.75" x2="-1567.14" y2="-1355.75" gradientTransform="translate(-1460.67 259.31) rotate(-128.74) scale(1 -1)" gradientUnits="userSpaceOnUse">
      <stop offset="0" stop-color="#99c44a"/>
      <stop offset="1" stop-color="#749944"/>
    </linearGradient>
    <linearGradient id="linear-gradient-78" x1="-2740.35" y1="49.65" x2="-2663.83" y2="49.65" gradientTransform="translate(-1552.94 1117.32) rotate(168.26) scale(.81 -1)" gradientUnits="userSpaceOnUse">
      <stop offset="0" stop-color="#99c44a"/>
      <stop offset="1" stop-color="#749944"/>
    </linearGradient>
    <linearGradient id="linear-gradient-79" x1="-2718.73" y1="-24.47" x2="-2714.36" y2="-24.47" gradientTransform="translate(-1552.94 1117.32) rotate(168.26) scale(.81 -1)" gradientUnits="userSpaceOnUse">
      <stop offset="0" stop-color="#99c44a"/>
      <stop offset="1" stop-color="#749944"/>
    </linearGradient>
    <linearGradient id="linear-gradient-80" x1="-1731.28" y1="1333.72" x2="-1643.73" y2="1333.72" gradientTransform="translate(-1121.57 1831.38) rotate(109.15) scale(1 -1)" gradientUnits="userSpaceOnUse">
      <stop offset="0" stop-color="#99c44a"/>
      <stop offset="1" stop-color="#749944"/>
    </linearGradient>
    <linearGradient id="linear-gradient-81" x1="-1706.66" y1="1248.97" x2="-1701.66" y2="1248.97" gradientTransform="translate(-1121.57 1831.38) rotate(109.15) scale(1 -1)" gradientUnits="userSpaceOnUse">
      <stop offset="0" stop-color="#99c44a"/>
      <stop offset="1" stop-color="#749944"/>
    </linearGradient>
    <linearGradient id="linear-gradient-82" x1="-441.48" y1="1440.09" x2="-364.92" y2="1440.09" gradientTransform="translate(-462.1 1634.64) rotate(60.56) scale(.87 -1.06)" gradientUnits="userSpaceOnUse">
      <stop offset="0" stop-color="#99c44a"/>
      <stop offset="1" stop-color="#749944"/>
    </linearGradient>
    <linearGradient id="linear-gradient-83" x1="-419.91" y1="1365.91" x2="-415.54" y2="1365.91" gradientTransform="translate(-462.1 1634.64) rotate(60.56) scale(.87 -1.06)" gradientUnits="userSpaceOnUse">
      <stop offset="0" stop-color="#99c44a"/>
      <stop offset="1" stop-color="#749944"/>
    </linearGradient>
  </defs>
  <g>
    <g>
      <path class="cls-66" d="m141.9,607c17.3,22.7,28.2,52.7,30.5,84s-9.2,63.4-22.8,90.9c-12.5-27.1-26.7-49.7-31.5-80.5-4.9-30.9,6.1-70.4,23.8-94.4Z"/>
      <path class="cls-4" d="m140.1,616.6c2.4,20.5,5.1,40.8,6,61.5,1,20.8.2,41.5-.6,62.3,0,.4.6.4.6,0,2.3-20.6,2.3-41.6,1.4-62.3-.8-20.5-2.6-41.4-7-61.5,0-.4-.5-.3-.4,0h0Z"/>
    </g>
    <g>
      <path class="cls-2" d="m135.7,635.4c-15.1,19.4-36.6,33.7-60.3,40.2s-49.8.1-72.7-8.8c19.2-15.4,34.6-31.9,57.6-40.7s54.7-4,75.4,9.3Z"/>
      <path class="cls-4" d="m128.1,635c-14.8,4.8-29.4,10-44.6,13.7-16.3,4-32.9,6.3-49.5,8.5-.4,0-.4.6,0,.6,16.2-.7,32.3-3.6,48.1-7.3,15.7-3.6,31.6-8.2,46.2-15.1.2,0,.1-.5-.2-.4h0Z"/>
    </g>
    <g>
      <path class="cls-65" d="m129.3,608.2c27.9,6,55.7,21.6,77.8,43.8,22.2,22.2,34.3,54.1,42,83.8-27.1-12.5-52.6-20.4-76.4-40.5-23.8-20.3-41.2-57.4-43.4-87.1Z"/>
      <path class="cls-4" d="m134.2,616.6c15.2,14,30.5,27.7,44.7,42.7,14.3,15.1,27.2,31.3,40.1,47.6.2.3.7-.1.5-.4-11.7-17.2-25.4-33.1-39.6-48.3-14-15-28.9-29.7-45.4-42.1-.3,0-.5.3-.3.5h0Z"/>
    </g>
    <g>
      <path class="cls-75" d="m141.2,610.3c1.4,28.5-6.5,59.4-22.3,86.5-15.8,27.2-43.4,47.1-70.1,62.2,5-29.4,6.1-56.1,19.5-84.3,13.3-28.2,44.8-54.6,72.9-64.4Z"/>
      <path class="cls-4" d="m134.3,617.2c-9.5,18-18.6,36-29.3,53.4-11.1,18-23.5,34.9-36.2,51.8-.2.3.3.6.5.4,13.4-15.5,25.1-32.6,36-49.9,11.1-17.6,21.6-36.1,29.5-55.5,0-.3-.4-.4-.5-.2h0Z"/>
    </g>
    <g>
      <path class="cls-47" d="m135.7,603.3c27.5-7.6,59.3-6.6,89.3,2.8,29.9,9.4,55.4,32.1,76,54.9-29.8,1.5-56.1,6.3-86.5-.6-30.4-7-63.1-31.8-78.8-57.1Z"/>
      <path class="cls-4" d="m144,608.5c19.6,5.3,39.2,10.3,58.5,16.9,19.9,6.9,39.2,15.3,58.4,23.9.4.2.7-.3.3-.5-18.1-9.6-37.3-17.3-56.6-24.2-19.6-7-39.9-13.2-60.5-16.6-.3,0-.5.4-.1.5h0Z"/>
    </g>
    <g>
      <path class="cls-21" d="m140.6,603.1c-23,8.5-48.9,9.4-72.4,2.5-23.6-6.9-42.5-26.1-57.3-45.7,24.4-3.1,46.2-9,70.3-4.4s48.7,25.4,59.4,47.6Z"/>
      <path class="cls-4" d="m134.3,598.8c-15.5-3.8-30.9-7.1-46-12-15.7-5.1-30.7-11.8-45.7-18.5-.4-.2-.7.3-.3.5,13.9,7.8,28.9,13.7,43.9,18.8,15.5,5.3,31.8,9.9,48.1,11.7.2,0,.3-.4,0-.5h0Z"/>
    </g>
    <g>
      <path class="cls-57" d="m138.6,623c8.3-27.4,26.1-53.7,50.1-74s56.7-29.8,86.9-35c-14.6,26-24.6,50.8-46.7,72.8-22,22-60.5,36.4-90.3,36.2Z"/>
      <path class="cls-4" d="m147.5,618.8c15-13.8,29.7-27.7,45.6-40.5,16.4-13.2,33.9-24.9,51.4-36.6.3-.2,0-.7-.3-.5-17.8,10.1-34.6,22.3-50.7,35-16.3,12.9-32.5,26.7-46.3,42.2-.3.2,0,.6.3.4h0Z"/>
    </g>
    <g>
      <path class="cls-77" d="m136.7,610.7c-23.3-7.9-43.9-23.5-57.8-43.7-14-20.2-16.5-47-15.7-71.6,20.9,13,41.5,22.2,57.4,40.9,15.9,18.9,21.8,50.5,16.1,74.4Z"/>
      <path class="cls-4" d="m134.5,603.4c-9.6-12.7-19.5-25-28.1-38.4-9-13.9-16.4-28.5-23.8-43.3-.2-.3-.7-.1-.6.2,5.9,14.8,13.8,28.8,22.2,42.2,8.7,13.9,18.4,27.8,29.9,39.4.2.4.6.2.4-.1h0Z"/>
    </g>
    <g>
      <path class="cls-61" d="m143.3,613.2c7.7,29.1,5.8,61.6-5.1,91.2-10.9,29.5-36.1,52.9-61.3,71.2-1-30.8-5.6-58.2,2.6-88.6,8.2-30.3,36-60.7,63.8-73.8Z"/>
      <path class="cls-4" d="m137.4,621.1c-6.1,19.2-11.8,38.4-19.3,57.1-8,19.9-17.7,38.8-27.7,57.7-.2.3.3.6.5.3,10.7-17.2,19.4-35.6,27.2-54.3,8.2-19.6,15.5-40,19.8-60.8.1-.2-.4-.3-.5,0h0Z"/>
    </g>
    <g>
      <path class="cls-32" d="m137.7,617.7c-8.5-27.3-8.5-59.1.1-89.3,8.5-30.2,30.3-56.4,52.5-77.6,2.4,29.8,8,55.9,2.1,86.5s-29.9,64-54.7,80.4Z"/>
      <path class="cls-4" d="m142.7,609.3c4.8-20.1,9.2-40.1,15.4-59.9,6.2-19.9,14-39.1,21.9-58.3.1-.3-.4-.5-.6-.2-9.2,18.6-16.4,38.4-22.7,58.2-6.2,19.6-11.8,39.8-14.5,60.2,0,.3.4.3.5,0h0Z"/>
    </g>
    <g>
      <path class="cls-27" d="m139,616.9c-18.4-16.3-31.3-38.7-36.2-62.8-5-24.1,3.1-49.7,13.4-72,14.2,20.1,29.6,36.6,36.9,60,7.3,23.6.4,55-14.1,74.8Z"/>
      <path class="cls-4" d="m139.8,609.4c-3.9-15.4-8.2-30.6-11-46.3-2.9-16.3-4-32.6-5.1-49,0-.4-.6-.4-.6,0-.3,15.9,1.5,31.9,4,47.5,2.6,16.1,6.2,32.7,12.2,47.9.1.3.6.2.5-.1h0Z"/>
    </g>
    <g>
      <path class="cls-82" d="m140.4,615.4c-18.2,16.6-41.7,27.1-66.2,29.6s-49.1-8.2-70.2-20.8c21.5-12,39.4-25.7,63.5-30.5,24.2-4.9,54.7,5.2,72.9,21.7Z"/>
      <path class="cls-4" d="m132.9,613.8c-16.3,2.4-32.4,5.2-48.9,6.3-15.9,1-31.7.5-47.6-.1-.4,0-.4.6,0,.6,16.3,2,33,1.8,49.5.8,15.7-1,32-2.8,47.2-7.1.3-.1.1-.6-.2-.5h0Z"/>
    </g>
    <g>
      <path class="cls-83" d="m138.6,613.9c13.4-14.9,31.8-25.4,51.4-29.4s40.6,2.7,58.8,11.3c-16.5,11.5-30,24-49.2,29.9s-44.8.2-61-11.8Z"/>
      <path class="cls-4" d="m144.8,614.7c12.3-2.8,24.4-6.3,36.8-8.5,13.7-2.4,27.4-3.2,41.2-4.2.4,0,.4-.6,0-.6-12.6-.4-25.3,1-37.8,2.8-13.5,2-27.6,4.8-40.3,10-.3.1-.2.6.1.5h0Z"/>
    </g>
    <g>
      <path class="cls-17" d="m138.9,614.2c14.2,4.9,26.7,14.4,35.2,26.8,8.5,12.4,10,28.7,9.4,43.7-12.7-8-25.3-13.6-35-25.1-9.6-11.5-13.1-30.8-9.6-45.4Z"/>
      <path class="cls-4" d="m140.1,618.7c5.6,8.1,11.9,15.7,17.2,24,5.4,8.3,9.6,17.2,14.3,25.9.2.3.7.1.6-.2-3.4-9.3-8.4-18-13.7-26.4-5.2-8.3-11-16.9-18.1-23.6-.1-.2-.4,0-.3.3h0Z"/>
    </g>
  </g>
  <g>
    <path class="cls-8" d="m1110,718.5c-37.5-2.1-71.3-33.3-76.4-70.6-1.3-9.7-.5-20.6,6.2-27.8,6.7-7.1,17.4-8.6,27.1-8.2,28,1.1,55.2,14.8,72.9,36.5s25.4,51.3,20.7,78.9c-13-11.7-33-7.8-50.5-8.8Z"/>
    <path class="cls-4" d="m1039.3,622.4c8.3,8.3,18.7,15.2,28,22.5,9.4,7.4,18.9,14.8,28.3,22.2,18.8,14.8,37.2,30.6,56.9,44.2.4.3.9-.4.5-.7-17.8-15.8-37.6-29.9-56.3-44.6-9.4-7.4-18.9-14.8-28.3-22.2-9.3-7.3-18.5-15.8-28.6-22-.4-.2-.9.3-.5.6h0Z"/>
    <path class="cls-4" d="m1129.3,692.1c3.6,1.2,7.5,1.5,11.3,1.9,5,.6,10,1.6,15.1,1.5.5,0,.6-.7.1-.8-3.7-1-7.6-1.2-11.4-1.7-5-.6-10.1-1.6-15.1-1.2-.1,0-.1.3,0,.3h0Z"/>
    <path class="cls-4" d="m1127.3,694.3c2.2,7.7,4.5,16.2,8,23.3.2.4.7.1.6-.3-1.5-7.8-4.8-15.9-7.7-23.3-.2-.5-1.1-.3-.9.3h0Z"/>
    <path class="cls-4" d="m1113.9,679.2c4.8,1.4,10.5.6,15.5.7,5.8,0,11.7.4,17.4-.3.5-.1.5-.7,0-.8-5.7-.7-11.6-.4-17.4-.3-5,0-10.7-.8-15.5.6q-.1,0,0,.1h0Z"/>
    <path class="cls-4" d="m1109.3,679.6c1.1,7,4.2,13.9,6.4,20.6,2.1,6.2,3.7,12.7,6.5,18.6.2.3.6.1.5-.2-1.4-7-4.3-13.8-6.6-20.6-2.1-6.1-3.6-12.8-6.7-18.5,0-.1-.1,0-.1.1h0Z"/>
    <path class="cls-4" d="m1091.8,663.5c7.1.1,14.2-.1,21.2-.3s14.3.2,21.3-.9c.4-.1.2-.6-.1-.6-7-.8-14.2-.1-21.2.1-7.1.2-14.2.3-21.2.7-.6,0-.6,1,0,1h0Z"/>
    <path class="cls-4" d="m1092,661.8c.8,8.2,4,16.5,6.2,24.4,2.3,8.7,4.3,17.6,7.3,26.1.2.6,1,.3.9-.2-1.7-8.8-4.6-17.5-7-26.2-2.2-7.9-3.6-16.7-7.1-24.2-.1-.1-.3,0-.3.1h0Z"/>
    <path class="cls-4" d="m1063.6,644.1c9.3,2.1,19.9,1.2,29.5,1.6,11.1.4,22.3,1.1,33.4.8.4,0,.4-.5,0-.6-10.4-1-20.9-1.2-31.4-1.5-10.2-.4-21.4-2.1-31.5-.6-.1,0-.1.3,0,.3h0Z"/>
    <path class="cls-4" d="m1066.4,645.2c3.9,15.2,8.5,30.9,14.2,45.5.2.5,1,.3.8-.2-3.5-15.3-8.6-30.8-14-45.6-.2-.6-1.2-.4-1,.3h0Z"/>
    <path class="cls-4" d="m1048.1,627.5c3,1.5,6.4,1,9.8,1.1,4.5.1,9.1.2,13.6.3,9.7.2,19.5.4,29.2,0,.6,0,.6-.9,0-.9-9.1-.7-18.2-.8-27.3-1-4.5-.1-9.1-.2-13.6-.2-3.8-.1-8.1-.9-11.7.7h0Z"/>
    <path class="cls-4" d="m1047.6,629.6c0-1.5,0-1.9-.1-1.2,0,1.8,0,3.7.1,5.5.1,3,.3,6.1.5,9.1.5,5.5,1.3,11.1,2.2,16.5,2.1,12,5.7,23.9,10.9,34.9.1.3.6.1.5-.2-3.8-11-7.1-22-9.4-33.4-1.2-5.9-2-11.9-2.5-17.8-.5-5.4,0-11.2-1.1-16.5-.1-.5-.9-.4-.9.1-.1,1-.3,2-.4,3,.1.1.2.1.2,0h0Z"/>
  </g>
  <path class="cls-37" d="m939.1,547.6c2.1,37.5,33.3,71.3,70.6,76.4,9.7,1.3,20.6.5,27.8-6.2,7.1-6.7,8.6-17.4,8.2-27.1-1.1-28-14.8-55.2-36.5-72.9-21.8-17.6-51.3-25.4-78.9-20.7,11.7,13,7.8,33,8.8,50.5Z"/>
  <path class="cls-4" d="m1035.8,617.9c-5.8-9.6-13.8-18.3-20.7-27.1-7.4-9.4-14.8-18.9-22.2-28.3-15.1-19.3-29.6-39.6-45.8-57.9-.3-.4-1,.1-.7.5,13.2,19.1,28.6,37,43,55.3,7.4,9.4,14.8,18.9,22.2,28.3,7.7,9.8,14.9,20.8,23.7,29.6.2.4.7,0,.5-.4h0Z"/>
  <path class="cls-4" d="m965.8,528.3c.3-4.4-.5-8.8-1-13.2s-.8-9-1.9-13.3c-.1-.5-.8-.4-.8.1-.1,4.4.7,8.8,1.3,13.2.5,4.4.8,9,2.2,13.2-.1.1.2.1.2,0h0Z"/>
  <path class="cls-4" d="m963.6,529.5c-7.4-2.9-15.5-6.2-23.3-7.7-.4-.1-.6.5-.3.6,7.2,3.5,15.7,5.8,23.3,8,.6.1.8-.7.3-.9h0Z"/>
  <path class="cls-4" d="m978.6,543.7c1.4-4.8.6-10.5.6-15.5,0-5.8.4-11.7-.3-17.4-.1-.5-.7-.5-.8,0-.7,5.7-.3,11.6-.3,17.4,0,5-.8,10.7.7,15.5q0,.1.1,0h0Z"/>
  <path class="cls-4" d="m978.1,548.2c-5.7-3.1-12.4-4.6-18.5-6.7-6.7-2.3-13.6-5.2-20.6-6.6-.3-.1-.5.4-.2.5,5.9,2.8,12.4,4.5,18.6,6.5,6.7,2.2,13.6,5.3,20.6,6.4.1.1.2-.1.1-.1h0Z"/>
  <path class="cls-4" d="m995.1,565.8c.5-7.1.6-14.1.7-21.2.2-7,.9-14.3.1-21.2,0-.3-.6-.5-.6-.1-1.1,6.3-.7,13-.9,19.4-.2,7.7-.5,15.4-.3,23.2.1.6,1,.6,1-.1h0Z"/>
  <path class="cls-4" d="m995.9,565.4c-7.5-3.5-16.2-4.9-24.2-7.1-8.7-2.4-17.4-5.3-26.2-7-.6-.1-.8.7-.2.9,8.5,3,17.4,4.9,26.1,7.3,7.9,2.1,16.2,5.3,24.4,6.2.1-.1.2-.3.1-.3h0Z"/>
  <path class="cls-4" d="m1013.8,594c1.4-9.5-.2-19.9-.5-29.5-.4-11.1-.5-22.3-1.6-33.4,0-.4-.6-.4-.6,0-.3,10.5.3,20.9.7,31.4.2,5.2.4,10.5.6,15.7s-.1,10.7,1.1,15.7c0,.3.3.3.3.1h0Z"/>
  <path class="cls-4" d="m1012.7,590.2c-14.8-5.4-30.3-10.4-45.6-14-.6-.1-.7.6-.2.8,14.6,5.7,30.3,10.3,45.5,14.2.7.3.9-.8.3-1h0Z"/>
  <path class="cls-4" d="m1030.1,609.5c1.4-3.1.8-6.4.7-9.8-.1-4.5-.2-9.1-.2-13.6-.2-9.7-.3-19.5-1.1-29.2,0-.6-.9-.6-.9,0-.4,9.1-.1,18.2,0,27.3,0,4.5.2,9.1.3,13.6.1,3.8-.6,8.2,1.2,11.7h0Z"/>
  <path class="cls-4" d="m1028,610.2c1-.1,2-.3,3-.4.5,0,.6-.8.1-.9-4.8-1-9.9-.6-14.7-1-6.6-.5-13.2-1.5-19.7-2.7-11.4-2.2-22.4-5.6-33.4-9.4-.3-.1-.5.4-.2.5,10.5,4.9,21.7,8.3,33.1,10.6,5.5,1.1,11,1.8,16.5,2.4,3,.3,6.1.5,9.1.7,1.8.1,3.7.1,5.5.1,4.1,0,1.2-.2.6-.1,0,0,0,.2.1.2h0Z"/>
  <path class="cls-5" d="m1139,545.8c-2.1,37.5-33.3,71.3-70.6,76.4-9.7,1.3-20.6.5-27.8-6.2-7.1-6.7-8.6-17.4-8.2-27.1,1.1-28,14.8-55.2,36.5-72.9s51.3-25.4,78.9-20.7c-11.7,13-7.8,33-8.8,50.5Z"/>
  <path class="cls-4" d="m1042.9,616.6c8.3-8.3,15.2-18.7,22.5-28,7.4-9.4,14.8-18.9,22.2-28.3,14.8-18.8,30.6-37.2,44.2-56.9.3-.4-.4-.9-.7-.5-15.8,17.8-29.9,37.6-44.6,56.3-7.4,9.4-14.8,18.9-22.2,28.3-7.3,9.3-15.8,18.5-22,28.6-.2.4.3.8.6.5h0Z"/>
  <path class="cls-4" d="m1112.6,526.5c1.2-3.6,1.5-7.5,1.9-11.3.6-5,1.6-10,1.5-15.1,0-.5-.7-.6-.8-.1-1,3.7-1.2,7.6-1.7,11.4-.6,5-1.6,10.1-1.2,15.1,0,.1.2.1.3,0h0Z"/>
  <path class="cls-4" d="m1114.8,528.5c7.7-2.2,16.2-4.5,23.3-8,.4-.2.1-.7-.3-.6-7.8,1.5-15.9,4.8-23.3,7.7-.5.3-.3,1.1.3.9h0Z"/>
  <path class="cls-4" d="m1099.6,541.9c1.4-4.8.6-10.5.7-15.5,0-5.8.4-11.7-.3-17.4-.1-.5-.7-.5-.8,0-.7,5.7-.4,11.6-.3,17.4,0,5-.8,10.7.6,15.5,0,.1.1.1.1,0h0Z"/>
  <path class="cls-4" d="m1100.1,546.6c7-1.1,13.9-4.2,20.6-6.4,6.2-2.1,12.7-3.7,18.6-6.5.3-.2.1-.6-.2-.5-7,1.4-13.8,4.3-20.6,6.6-6.1,2.1-12.8,3.6-18.5,6.7-.1-.1,0,.1.1.1h0Z"/>
  <path class="cls-4" d="m1083.9,564c.1-7.1-.1-14.2-.3-21.2-.2-7,.2-14.3-.9-21.3-.1-.4-.6-.2-.6.1-.8,7-.1,14.2.1,21.2.2,7.1.3,14.2.7,21.2.1.6,1,.6,1,0h0Z"/>
  <path class="cls-4" d="m1082.3,563.8c8.2-.8,16.5-4,24.4-6.2,8.7-2.3,17.6-4.3,26.1-7.3.6-.2.3-1-.2-.9-8.8,1.7-17.5,4.6-26.2,7-7.9,2.2-16.7,3.6-24.2,7.1-.1.1,0,.3.1.3h0Z"/>
  <path class="cls-4" d="m1064.6,592.2c2.1-9.3,1.2-19.9,1.6-29.5.4-11.1,1.1-22.3.8-33.4,0-.4-.5-.4-.6,0-1,10.4-1.2,20.9-1.5,31.4-.4,10.2-2.1,21.4-.6,31.5,0,.2.3.2.3,0h0Z"/>
  <path class="cls-4" d="m1065.7,589.5c15.2-3.9,30.9-8.5,45.5-14.2.5-.2.3-1-.2-.8-15.3,3.5-30.8,8.6-45.6,14-.7.1-.4,1.2.3,1h0Z"/>
  <path class="cls-4" d="m1048,607.7c1.5-3,1-6.4,1.1-9.8.1-4.5.2-9.1.3-13.6.2-9.7.4-19.5,0-29.2,0-.6-.9-.6-.9,0-.7,9.1-.8,18.2-1,27.3-.1,4.5-.2,9.1-.2,13.6-.1,3.8-1,8.1.7,11.7-.1,0,0,0,0,0h0Z"/>
  <path class="cls-4" d="m1050.1,608.2c-1.5,0-1.9,0-1.2.1,1.8,0,3.7,0,5.5-.1,3-.1,6.1-.3,9.1-.5,5.5-.5,11.1-1.3,16.5-2.2,12-2.1,23.9-5.7,34.9-10.9.3-.1.1-.6-.2-.5-11,3.8-22,7.1-33.4,9.4-5.9,1.2-11.9,2-17.8,2.5-5.4.5-11.2,0-16.5,1.1-.5.1-.4.9.1.9,1,.1,2,.3,3,.4.1,0,.1-.2,0-.2h0Z"/>
  <path class="cls-12" d="m973.5,716.7c37.5-2.1,71.3-33.3,76.4-70.6,1.3-9.7.5-20.6-6.2-27.8-6.7-7.1-17.4-8.6-27.1-8.2-28,1.1-55.2,14.8-72.9,36.5s-25.4,51.3-20.7,78.9c13-11.6,33-7.8,50.5-8.8Z"/>
  <path class="cls-4" d="m1043.8,620c-9.6,5.8-18.3,13.8-27.1,20.7-9.4,7.4-18.9,14.8-28.3,22.2-19.3,15.1-39.6,29.6-57.9,45.8-.4.3.1,1,.5.7,19.1-13.2,37-28.6,55.3-43,9.4-7.4,18.9-14.8,28.3-22.2,9.8-7.7,20.8-14.9,29.6-23.7.4-.2,0-.7-.4-.5h0Z"/>
  <path class="cls-4" d="m954.1,690.1c-4.4-.3-8.8.5-13.2,1-4.4.5-9,.8-13.3,1.9-.5.1-.4.8.1.8,4.4.1,8.8-.7,13.2-1.3,4.4-.5,9-.8,13.2-2.2.2,0,.2-.2,0-.2h0Z"/>
  <path class="cls-4" d="m955.3,692.3c-2.9,7.4-6.2,15.5-7.7,23.3-.1.4.5.6.6.3,3.5-7.2,5.8-15.7,8-23.3.2-.7-.7-.9-.9-.3h0Z"/>
  <path class="cls-4" d="m969.6,677.3c-4.8-1.4-10.5-.6-15.5-.6-5.8,0-11.7-.4-17.4.3-.5.1-.5.7,0,.8,5.7.7,11.6.3,17.4.3,5,0,10.7.8,15.5-.7.1,0,.1-.1,0-.1h0Z"/>
  <path class="cls-4" d="m974,677.7c-3.1,5.7-4.6,12.4-6.7,18.5-2.3,6.7-5.2,13.6-6.6,20.6-.1.3.4.5.5.2,2.8-5.9,4.5-12.4,6.5-18.6,2.2-6.7,5.3-13.6,6.4-20.6.1-.1,0-.2-.1-.1h0Z"/>
  <path class="cls-4" d="m991.7,660.7c-7.1-.5-14.1-.6-21.2-.7-7-.2-14.3-.9-21.2-.1-.3,0-.5.6-.1.6,6.3,1.1,13,.7,19.4.9,7.7.2,15.4.5,23.2.3.5,0,.5-1-.1-1h0Z"/>
  <path class="cls-4" d="m991.2,660c-3.5,7.5-4.9,16.2-7.1,24.2-2.4,8.7-5.3,17.4-7,26.2-.1.6.7.8.9.2,3-8.5,4.9-17.4,7.3-26.1,2.1-7.9,5.3-16.2,6.2-24.4,0-.2-.2-.2-.3-.1h0Z"/>
  <path class="cls-4" d="m1019.9,642c-9.5-1.4-19.9.2-29.5.5-11.1.4-22.3.5-33.4,1.6-.4,0-.4.6,0,.6,10.5.3,20.9-.3,31.4-.7,5.2-.2,10.5-.4,15.7-.6,5.2-.2,10.7.1,15.7-1.1.2,0,.2-.2.1-.3h0Z"/>
  <path class="cls-4" d="m1016,643.2c-5.4,14.8-10.4,30.3-14,45.6-.1.6.6.7.8.2,5.7-14.6,10.3-30.3,14.2-45.5.3-.8-.7-1-1-.3h0Z"/>
  <path class="cls-4" d="m1035.4,625.7c-3.1-1.4-6.4-.8-9.8-.7-4.5.1-9.1.2-13.6.2-9.7.2-19.5.3-29.2,1.1-.6,0-.6.9,0,.9,9.1.4,18.2.1,27.3,0,4.5,0,9.1-.2,13.6-.3,3.8-.1,8.1.6,11.7-1.2,0,.1,0,0,0,0h0Z"/>
  <path class="cls-4" d="m1036,627.8c-.1-1-.3-2-.4-3,0-.5-.8-.6-.9-.1-1,4.8-.6,9.9-1,14.7-.5,6.6-1.5,13.2-2.7,19.7-2.2,11.4-5.6,22.4-9.4,33.4-.1.3.4.5.5.2,4.9-10.5,8.3-21.7,10.6-33.1,1.1-5.5,1.8-11,2.4-16.5.3-3,.5-6.1.7-9.1.1-1.8.1-3.7.1-5.5,0-4.1-.2-1.2-.1-.6.1.1.2,0,.2-.1h0Z"/>
  <path class="cls-73" d="m1162.1,639.9c-28,25-74,26.8-103.9,4.1-7.8-5.9-15-14.2-15.3-24-.3-9.7,6.2-18.4,13.4-25,20.6-19,49.5-28.6,77.4-25.7,27.9,2.9,54.2,18.3,70.4,41.2-17.5.9-28.9,17.8-42,29.4Z"/>
  <path class="cls-4" d="m1044.2,622.1c11.8,0,24-2.5,35.7-3.9,11.9-1.4,23.8-2.9,35.7-4.3,23.8-2.9,48-4.7,71.5-9,.5-.1.4-.9-.1-.9-23.8,1.4-47.7,5.4-71.4,8.3-11.9,1.4-23.8,2.9-35.7,4.3-11.8,1.4-24.3,1.9-35.8,4.7-.5.1-.4.8.1.8h0Z"/>
  <path class="cls-4" d="m1157.1,607.6c3.5-1.7,6.5-4.4,9.6-6.8,3.9-3,8.2-5.9,11.5-9.4.3-.3-.1-.9-.5-.6-3.4,1.9-6.4,4.6-9.4,7-3.8,3-8.2,5.9-11.3,9.6-.1.2,0,.3.1.2h0Z"/>
  <path class="cls-4" d="m1157.2,610.7c7,3.9,14.6,8.3,22.2,10.9.4.1.6-.4.3-.6-6.6-4.4-14.7-7.8-22-11-.5-.4-1,.4-.5.7h0Z"/>
  <path class="cls-4" d="m1137.1,609.4c4.2-2.2,7.5-6.6,10.8-9.9,4.3-4.3,9-8.4,12.7-13.1.3-.4-.2-.9-.5-.5-4.3,3.4-8,7.5-11.9,11.4-3.7,3.6-8.8,7.4-11.1,12.1-.2,0-.1,0,0,0h0Z"/>
  <path class="cls-4" d="m1134.1,613c5.7,4.2,12.8,6.9,19.1,10,5.8,2.9,11.6,6.4,17.8,8.5.3.1.5-.4.2-.5-5.9-4-12.8-6.7-19.2-9.9-5.8-2.9-11.6-6.5-17.8-8.4-.1,0-.2.2-.1.3h0Z"/>
  <path class="cls-4" d="m1110.4,613.9c5.1-4.9,9.9-10.1,14.8-15.2,4.9-5.1,10.3-10,14.4-15.7.2-.3-.2-.6-.5-.4-5.5,4.3-10.1,10-14.9,15.1-4.9,5.1-9.8,10.2-14.5,15.5-.5.5.2,1.2.7.7h0Z"/>
  <path class="cls-4" d="m1109.3,612.6c6.4,5.2,14.5,8.8,21.6,12.9,7.8,4.5,15.5,9.4,23.6,13.3.5.3,1-.5.5-.8-7.5-5-15.6-9.1-23.4-13.6-7.1-4.1-14.4-9.2-22.1-12.1-.2,0-.3.2-.2.3h0Z"/>
  <path class="cls-4" d="m1076.8,620.2c8.1-5.1,15-13.2,22-19.7,8.1-7.6,16.5-15,24.1-23,.3-.3-.1-.6-.4-.4-8.1,6.7-15.6,14-23.3,21.1-3.8,3.6-7.7,7.1-11.5,10.7-3.8,3.6-8.1,6.9-11.2,11.1-.1.1.1.3.3.2h0Z"/>
  <path class="cls-4" d="m1079.5,619.1c13.5,8,27.8,15.8,42.2,22.1.5.2.9-.4.4-.7-13.3-8.3-27.9-15.7-42.1-22.3-.6-.4-1.2.5-.5.9h0Z"/>
  <path class="cls-4" d="m1054.1,619.4c3.2-1.1,5.3-3.8,7.7-6.1,3.3-3.1,6.6-6.3,9.9-9.4,7-6.7,14.1-13.5,20.7-20.6.4-.4-.2-1-.6-.6-6.9,5.9-13.4,12.3-20,18.6-3.3,3.1-6.5,6.3-9.8,9.5-3,2.5-6.6,4.9-7.9,8.6q-.1,0,0,0h0Z"/>
  <path class="cls-4" d="m1055.2,621.2c-1.1-1.1-1.4-1.4-1-.9,1.2,1.2,2.4,2.4,3.6,3.6,2.4,2.3,5,4.6,7.6,6.7,4.4,3.7,9,7.1,13.7,10.3,9.8,6.7,20.4,12.4,31.6,16.4.3.1.5-.4.2-.5-10.2-4.9-20-10.3-29.5-16.5-5.1-3.4-10-7.1-14.8-11-4.3-3.6-8.2-8.2-12.9-11.2-.4-.3-.9.3-.5.7.6.8,1.2,1.6,1.8,2.4.1.2.2.1.2,0h0Z"/>
  <path class="cls-20" d="m920.4,640c28,25,74,26.8,103.9,4.1,7.8-5.9,15-14.2,15.3-24,.3-9.7-6.2-18.4-13.4-25-20.6-19-49.5-28.6-77.4-25.7-27.9,2.9-54.2,18.3-70.4,41.2,17.6.9,29,17.7,42,29.4Z"/>
  <path class="cls-4" d="m1038.5,621.3c-10.9-2.7-22.7-3.1-33.8-4.5-11.9-1.4-23.8-2.9-35.7-4.3-24.3-2.9-48.9-7.1-73.4-8.5-.5,0-.6.8-.1.9,22.9,4.2,46.4,5.9,69.5,8.7,11.9,1.4,23.8,2.9,35.7,4.3,12.4,1.5,25.2,4.2,37.7,4.2.5,0,.6-.7.1-.8h0Z"/>
  <path class="cls-4" d="m925.6,607.5c-2.8-3.3-6.6-5.9-10-8.6-3.5-2.7-6.9-5.9-10.7-8-.4-.2-.8.3-.5.6,3,3.2,6.8,5.7,10.2,8.4,3.5,2.7,6.9,5.9,10.9,7.8.1.1.2-.1.1-.2h0Z"/>
  <path class="cls-4" d="m924.9,609.9c-7.3,3.2-15.4,6.6-22,11-.3.2-.1.8.3.6,7.6-2.6,15.2-7,22.2-10.9.5-.2,0-1-.5-.7h0Z"/>
  <path class="cls-4" d="m945.6,609.3c-2.2-4.2-6.6-7.5-9.9-10.8-4.3-4.3-8.4-9-13.2-12.7-.4-.3-.9.2-.5.5,3.4,4.3,7.5,8,11.4,11.8,3.7,3.8,7.5,8.9,12.2,11.2,0,.2,0,.1,0,0h0Z"/>
  <path class="cls-4" d="m948.4,612.8c-6.2,1.9-12,5.5-17.8,8.4-6.4,3.2-13.3,5.9-19.2,9.9-.3.2-.1.7.2.5,6.2-2.1,12-5.6,17.8-8.5,6.3-3.2,13.4-5.9,19.1-10,.1-.2,0-.3-.1-.3h0Z"/>
  <path class="cls-4" d="m972.9,613.2c-4.7-5.3-9.6-10.4-14.5-15.5-4.8-5.1-9.4-10.7-14.9-15.1-.3-.2-.8.1-.5.4,3.7,5.2,8.6,9.7,13.1,14.3,5.3,5.6,10.6,11.2,16.1,16.6.5.5,1.2-.2.7-.7h0Z"/>
  <path class="cls-4" d="m973.1,612.4c-7.7,2.8-15,8-22.1,12.1-7.8,4.4-16,8.5-23.4,13.6-.5.3-.1,1,.5.8,8.1-3.9,15.8-8.8,23.6-13.3,7.1-4.1,15.3-7.7,21.6-12.9,0-.2-.1-.3-.2-.3h0Z"/>
  <path class="cls-4" d="m1006.1,620c-5.7-7.7-14.2-14-21.2-20.5-8.1-7.6-16.1-15.4-24.7-22.5-.3-.2-.7.1-.4.4,7.2,7.6,15,14.6,22.7,21.7,3.8,3.6,7.7,7.1,11.5,10.7,3.8,3.5,7.5,7.6,11.9,10.4.1.1.3-.1.2-.2h0Z"/>
  <path class="cls-4" d="m1002.5,618.1c-14.2,6.6-28.8,14-42.1,22.3-.5.3-.1,1,.4.7,14.4-6.3,28.7-14.1,42.2-22.1.8-.3.2-1.2-.5-.9h0Z"/>
  <path class="cls-4" d="m1028.6,619.4c-1.2-3.2-4-5.1-6.4-7.4-3.3-3.2-6.5-6.3-9.8-9.5-7-6.8-14-13.6-21.4-19.9-.4-.4-1.1.2-.6.6,6.2,6.7,12.8,12.9,19.3,19.3,3.2,3.2,6.6,6.3,9.9,9.4,2.6,2.7,5.2,6.3,9,7.5,0,.1,0,0,0,0h0Z"/>
  <path class="cls-4" d="m1027.5,621.4c.6-.8,1.2-1.6,1.8-2.4.3-.4-.1-1-.5-.7-4.2,2.7-7.7,6.9-11.6,10.1-4.7,4-9.6,7.7-14.6,11.1-9.8,6.7-20.2,12.2-30.9,17.4-.3.1-.1.6.2.5,11.2-4,21.7-9.8,31.6-16.4,4.7-3.2,9.3-6.7,13.7-10.3,2.2-1.8,4.3-3.7,6.4-5.6,1.3-1.1,2.5-2.3,3.7-3.5,2.8-2.7.5-.8.2-.3-.2.1,0,.2,0,.1h0Z"/>
  <path class="cls-44" d="m1060.5,497.4c25,28,26.8,74,4.1,103.9-5.9,7.8-14.2,15-24,15.3-9.7.3-18.4-6.2-25-13.4-19-20.6-28.6-49.5-25.7-77.4s18.3-54.2,41.2-70.4c.9,17.5,17.7,28.9,29.4,42Z"/>
  <path class="cls-4" d="m1042.6,615.3c0-11.8-2.5-24-3.9-35.7-1.4-11.9-2.9-23.8-4.3-35.7-2.9-23.8-4.7-48-9-71.5-.1-.5-.9-.4-.9.1,1.4,23.8,5.4,47.7,8.3,71.4,1.4,11.9,2.9,23.8,4.3,35.7,1.4,11.8,1.9,24.3,4.7,35.8.1.5.8.4.8-.1h0Z"/>
  <path class="cls-4" d="m1028.2,502.4c-1.7-3.5-4.4-6.5-6.8-9.6-3-3.9-5.9-8.2-9.4-11.5-.3-.3-.9.1-.6.5,1.9,3.4,4.6,6.4,7,9.4,3,3.8,5.9,8.2,9.6,11.3.1.2.2,0,.2-.1h0Z"/>
  <path class="cls-4" d="m1031.2,502.3c3.9-7,8.3-14.6,10.9-22.2.1-.4-.4-.6-.6-.3-4.4,6.6-7.8,14.7-11,22-.4.6.4,1,.7.5h0Z"/>
  <path class="cls-4" d="m1029.9,522.4c-2.2-4.2-6.6-7.5-9.9-10.8-4.3-4.3-8.4-9-13.1-12.7-.4-.3-.9.2-.5.5,3.4,4.3,7.5,8,11.4,11.9s7.4,8.8,12.1,11.1c0,.2.1.1,0,0h0Z"/>
  <path class="cls-4" d="m1033.5,525.4c4.2-5.7,6.9-12.8,10-19.1,2.9-5.8,6.4-11.6,8.5-17.8.1-.3-.4-.5-.5-.2-4,5.9-6.7,12.8-9.9,19.2-2.9,5.8-6.5,11.6-8.4,17.8.1.2.2.2.3.1h0Z"/>
  <path class="cls-4" d="m1034.4,549.2c-4.9-5.1-10.1-9.9-15.2-14.8-5.1-4.9-10-10.3-15.7-14.4-.3-.2-.6.2-.4.5,4.3,5.5,10,10.1,15.1,14.9,5.1,4.9,10.2,9.8,15.5,14.5.5.4,1.2-.3.7-.7h0Z"/>
  <path class="cls-4" d="m1033.1,550.2c5.2-6.4,8.8-14.5,12.9-21.6,4.5-7.8,9.4-15.5,13.3-23.6.3-.5-.5-1-.8-.5-5,7.5-9.1,15.6-13.6,23.4-4.1,7.1-9.2,14.4-12.1,22.1.1.2.2.3.3.2h0Z"/>
  <path class="cls-4" d="m1040.7,582.8c-5.1-8.1-13.2-15-19.7-22-7.6-8.1-15-16.5-23-24.1-.3-.3-.6.1-.4.4,6.7,8.1,14,15.6,21.1,23.3,3.6,3.8,7.1,7.7,10.7,11.5s6.9,8.1,11.1,11.2c.1,0,.3-.2.2-.3h0Z"/>
  <path class="cls-4" d="m1039.6,580.1c8-13.5,15.8-27.8,22.1-42.2.2-.5-.4-.9-.7-.4-8.3,13.3-15.7,27.9-22.3,42.1-.4.5.5,1.1.9.5h0Z"/>
  <path class="cls-4" d="m1039.9,605.5c-1.1-3.2-3.8-5.3-6.1-7.7-3.1-3.3-6.3-6.6-9.4-9.9-6.7-7-13.5-14.1-20.6-20.7-.4-.4-1,.2-.6.6,5.9,6.9,12.3,13.4,18.6,20,3.1,3.3,6.3,6.5,9.5,9.8,2.5,2.9,4.9,6.5,8.6,7.9h0Z"/>
  <path class="cls-4" d="m1041.8,604.3c-1.1,1.1-1.4,1.4-.9,1,1.2-1.2,2.4-2.4,3.6-3.6,2.3-2.4,4.6-5,6.7-7.6,3.7-4.4,7.1-9,10.3-13.7,6.7-9.8,12.4-20.4,16.4-31.6.1-.3-.4-.5-.5-.2-4.9,10.2-10.3,20-16.5,29.5-3.4,5.1-7.1,10-11,14.8-3.6,4.3-8.2,8.2-11.2,12.9-.3.4.3.9.7.5.8-.6,1.6-1.2,2.4-1.8.1-.1.1-.2,0-.2h0Z"/>
  <path class="cls-62" d="m1064.3,735.3c25-28,26.8-74,4.1-103.9-5.9-7.8-14.2-15-24-15.3-9.7-.3-18.4,6.2-25,13.4-19,20.6-28.6,49.5-25.7,77.4s18.3,54.2,41.2,70.4c.9-17.5,17.8-29,29.4-42Z"/>
  <path class="cls-4" d="m1045.7,617.2c-2.7,10.9-3.1,22.7-4.5,33.8-1.4,11.9-2.9,23.8-4.3,35.7-2.9,24.3-7.1,48.9-8.5,73.4,0,.5.8.6.9.1,4.2-22.9,5.9-46.4,8.7-69.5,1.4-11.9,2.9-23.8,4.3-35.7,1.5-12.4,4.2-25.2,4.2-37.7-.1-.4-.7-.5-.8-.1h0Z"/>
  <path class="cls-4" d="m1031.8,730.1c-3.3,2.8-5.9,6.6-8.6,10-2.7,3.5-5.9,6.9-8,10.7-.2.4.3.8.6.5,3.2-3,5.7-6.8,8.4-10.2,2.7-3.5,5.9-6.9,7.8-10.9.1-.1-.1-.2-.2-.1h0Z"/>
  <path class="cls-4" d="m1034.2,730.8c3.2,7.3,6.6,15.4,11,22,.2.3.8.1.6-.3-2.6-7.6-7-15.2-10.9-22.2-.2-.5-.9,0-.7.5h0Z"/>
  <path class="cls-4" d="m1033.7,710.1c-4.2,2.2-7.5,6.6-10.8,9.9-4.3,4.3-9,8.4-12.7,13.2-.3.4.2.9.5.5,4.3-3.4,8-7.5,11.8-11.4,3.8-3.7,8.9-7.4,11.2-12.2.1,0,0,0,0,0h0Z"/>
  <path class="cls-4" d="m1037.1,707.3c1.9,6.2,5.5,12,8.4,17.8,3.2,6.4,5.9,13.3,9.9,19.2.2.3.7.1.5-.2-2.1-6.2-5.6-12-8.5-17.8-3.2-6.3-5.9-13.4-10-19.1-.1-.1-.3,0-.3.1h0Z"/>
  <path class="cls-4" d="m1037.6,682.8c-5.3,4.7-10.4,9.6-15.5,14.5-5.1,4.8-10.7,9.4-15.1,14.9-.2.3.1.8.4.5,5.2-3.7,9.7-8.6,14.3-13.1,5.6-5.3,11.2-10.6,16.6-16.1.4-.5-.2-1.1-.7-.7h0Z"/>
  <path class="cls-4" d="m1036.7,682.6c2.8,7.7,8,15,12.1,22.1,4.4,7.8,8.5,16,13.6,23.4.3.5,1,.1.8-.5-3.9-8.1-8.8-15.8-13.3-23.6-4.1-7.1-7.7-15.3-12.9-21.6-.1,0-.3.1-.3.2h0Z"/>
  <path class="cls-4" d="m1044.3,649.7c-7.7,5.7-14,14.2-20.5,21.2-7.6,8.1-15.4,16.1-22.5,24.7-.2.3.1.7.4.4,7.6-7.2,14.6-15,21.7-22.7,3.6-3.8,7.1-7.7,10.7-11.5,3.5-3.8,7.6-7.5,10.4-11.9.1-.1,0-.4-.2-.2h0Z"/>
  <path class="cls-4" d="m1042.4,653.2c6.6,14.2,14,28.8,22.3,42.1.3.5,1,.1.7-.4-6.3-14.4-14.1-28.7-22.1-42.2-.3-.8-1.2-.2-.9.5h0Z"/>
  <path class="cls-4" d="m1043.7,627.1c-3.2,1.2-5.1,4-7.4,6.4-3.2,3.3-6.3,6.5-9.5,9.8-6.8,7-13.6,14-19.9,21.4-.4.4.2,1.1.6.6,6.7-6.2,12.9-12.8,19.3-19.3,3.2-3.2,6.3-6.6,9.4-9.9,2.8-2.6,6.3-5.2,7.5-9,.1.1,0,0,0,0h0Z"/>
  <path class="cls-4" d="m1045.7,628.2c-.8-.6-1.6-1.2-2.4-1.8-.4-.3-1,.1-.7.5,2.7,4.2,6.9,7.7,10.1,11.6,4,4.7,7.7,9.6,11.1,14.6,6.7,9.8,12.2,20.2,17.4,30.9.1.3.6.1.5-.2-4-11.2-9.8-21.7-16.4-31.6-3.2-4.7-6.7-9.3-10.3-13.7-1.8-2.2-3.7-4.3-5.6-6.4-1.1-1.3-2.3-2.5-3.5-3.7-2.7-2.8-.8-.5-.3-.2.1.2.2,0,.1,0h0Z"/>
  <path class="cls-72" d="m1030.9,139.4c-23.6-5.8-45.3-19.5-60.7-38.4-15.4-18.9-24.5-42.8-25.5-67.1,23.6,5.9,45.2,19.6,60.6,38.5,15.4,18.8,24.5,42.7,25.6,67Z"/>
  <path class="cls-59" d="m991.7,107.6c-25.7-9.1-51.4-18.2-77.1-27.2,33,29.6,71.3,53.4,112.5,69.8,4.3-9.5-.2-21.2-7.8-28.3-7.6-7.2-17.8-10.8-27.6-14.3Z"/>
  <path class="cls-46" d="m1038.6,145.9c-50.5-15.1-103.9-20.3-156.4-15.1,47,26.4,105.2,32,156.4,15.1Z"/>
  <path class="cls-84" d="m1031.7,140.6c-36.1,43.7-91.6,70.8-148.2,72.5,42.5-35.7,93.9-60.9,148.2-72.5Z"/>
  <path class="cls-67" d="m914.5,238.2c34.1-38.4,71.9-73.6,112.7-104.9-3.1,26.9-19.7,50.8-40.8,67.8-21.1,17.1-46.4,27.9-71.9,37.1Z"/>
  <path class="cls-16" d="m1038.3,5.9c23.1,41.9,19,97.2-9.9,135.2-9.1-44.8-5.6-92.1,9.9-135.2Z"/>
  <path class="cls-70" d="m1030.3,140.6c9.1-44.9,30.7-87.1,61.7-120.8,4.6,23.9,1,49.3-10.1,71s-29.5,39.5-51.6,49.8Z"/>
  <path class="cls-71" d="m1094.3,109.2c-14.7,13.6-29.9,27.6-48.9,34.3-5,1.8-11.8,2.4-14.7-2-3.4-5.2,1.8-11.7,6.6-15.7,35.1-29.1,74.2-53.2,116-71.4-19.7,18.2-39.3,36.5-59,54.8Z"/>
  <path class="cls-38" d="m1030.3,139c-49.2,38.1-83.5,94.9-94.3,156.1,31.6-11.5,61.2-32.6,79.3-60.9,18.1-28.2,17.7-61.6,15-95.2Z"/>
  <path class="cls-26" d="m1189.5,117.1c-47.1,29.2-105.7,39.4-159.9,27.8,49.4-23.8,105.4-33.6,159.9-27.8Z"/>
  <path class="cls-68" d="m1038,326.7c27.5-59.3,24.2-131.8-8.4-188.4-22.2,60-10.4,127.2,8.4,188.4Z"/>
  <path class="cls-53" d="m1032.7,157.7c20.2,50.5,51.4,96.5,90.9,133.8-1.6-57.2-32.3-112.9-79.8-144.8-2.9-1.9-6.5-3.8-9.6-2.3-4.4,2.2-3.4,8.7-1.5,13.3Z"/>
  <path class="cls-24" d="m1035,140.5c33.5,50.3,82.5,90.2,138.5,112.9-23.5-57.5-77.4-101.5-138.5-112.9Z"/>
  <path class="cls-18" d="m1038.3,141.8c45.1,36.4,104.3,54.7,162.1,50-48.8-29.6-105-47-162.1-50Z"/>
  <g>
    <path class="cls-35" d="m624.5,155.6c6-24.5,20.2-46.9,39.8-62.9s44.4-25.4,69.6-26.4c-6.1,24.5-20.3,46.8-39.9,62.8-19.5,15.9-44.3,25.4-69.5,26.5Z"/>
    <path class="cls-69" d="m657.5,114.9c9.4-26.6,18.8-53.3,28.2-79.9-30.7,34.2-55.3,73.9-72.4,116.7,9.9,4.4,21.9-.2,29.3-8.1,7.5-8,11.3-18.5,14.9-28.7Z"/>
    <path class="cls-31" d="m617.7,163.5c15.7-52.3,21-107.8,15.7-162.1-27.3,48.7-33.2,109.1-15.7,162.1Z"/>
    <path class="cls-14" d="m623.3,156.4c-45.3-37.5-73.4-94.9-75.2-153.7,37,44.1,63.1,97.4,75.2,153.7Z"/>
    <path class="cls-42" d="m522,34.9c39.8,35.4,76.3,74.5,108.7,116.8-27.9-3.2-52.7-20.5-70.3-42.3-17.6-21.9-28.8-48.1-38.4-74.5Z"/>
    <path class="cls-64" d="m762.8,163.3c-43.4,23.9-100.7,19.7-140.2-10.3,46.5-9.4,95.6-5.8,140.2,10.3Z"/>
    <path class="cls-7" d="m623.2,155c46.5,9.4,90.3,31.8,125.2,64-24.8,4.8-51.1,1-73.6-10.5-22.4-11.5-40.9-30.6-51.6-53.5Z"/>
    <path class="cls-78" d="m655.8,221.3c-14.1-15.2-28.7-31-35.5-50.7-1.8-5.2-2.5-12.2,2.1-15.2,5.4-3.5,12.1,1.8,16.3,6.8,30.1,36.4,55.1,77,74,120.3-19-20.4-37.9-40.8-56.9-61.2Z"/>
    <path class="cls-51" d="m624.8,154.9c-39.5-51-98.4-86.5-161.9-97.8,11.9,32.8,33.8,63.4,63.1,82.2s64.1,18.4,98.8,15.6Z"/>
    <path class="cls-81" d="m647.6,320c-30.3-48.8-40.9-109.6-28.8-165.7,24.7,51.1,34.8,109.2,28.8,165.7Z"/>
    <path class="cls-80" d="m430.3,163c61.4,28.5,136.6,25.1,195.3-8.7-62.2-23.2-131.9-10.8-195.3,8.7Z"/>
    <path class="cls-25" d="m605.5,157.4c-52.3,20.9-100,53.3-138.7,94.3,59.3-1.7,117-33.5,150.1-82.7,2-3,4-6.8,2.4-10-2.3-4.6-9-3.5-13.8-1.6Z"/>
    <path class="cls-34" d="m623.3,159.8c-52.1,34.8-93.5,85.5-117,143.6,59.6-24.3,105.2-80.3,117-143.6Z"/>
    <path class="cls-28" d="m622,163.3c-37.7,46.7-56.7,108.2-51.8,168,30.6-50.7,48.6-108.9,51.8-168Z"/>
  </g>
  <path class="cls-3" d="m585.8,138.4c-24.5-6-46.9-20.2-62.9-39.8s-25.4-44.4-26.4-69.6c24.5,6.1,46.8,20.3,62.8,39.9,15.9,19.5,25.4,44.3,26.5,69.5Z"/>
  <path class="cls-15" d="m545.1,105.4c-26.6-9.4-53.3-18.8-79.9-28.2,34.2,30.7,73.9,55.3,116.7,72.4,4.4-9.9-.2-21.9-8.1-29.3-8-7.5-18.5-11.3-28.7-14.9Z"/>
  <path class="cls-22" d="m593.8,145.2c-52.3-15.7-107.8-21-162.1-15.7,48.6,27.3,109,33.2,162.1,15.7Z"/>
  <path class="cls-50" d="m586.6,139.6c-37.5,45.3-94.9,73.4-153.7,75.2,44.1-37,97.4-63.1,153.7-75.2Z"/>
  <path class="cls-52" d="m465.1,240.8c35.4-39.8,74.5-76.3,116.8-108.7-3.2,27.9-20.5,52.7-42.3,70.3s-48.1,28.9-74.5,38.4Z"/>
  <path class="cls-13" d="m593.5,0c23.9,43.4,19.7,100.8-10.3,140.2-9.4-46.5-5.8-95.5,10.3-140.2Z"/>
  <path class="cls-79" d="m585.2,139.7c9.4-46.5,31.8-90.3,64-125.2,4.8,24.8,1,51.1-10.5,73.6-11.5,22.4-30.6,40.9-53.5,51.6Z"/>
  <path class="cls-9" d="m651.5,107.1c-15.2,14.1-31,28.7-50.7,35.5-5.2,1.8-12.2,2.5-15.2-2.1-3.5-5.4,1.8-12.1,6.8-16.3,36.4-30.1,77-55.1,120.3-74-20.4,19-40.8,37.9-61.2,56.9Z"/>
  <path class="cls-33" d="m585.1,138c-51,39.5-86.5,98.4-97.8,161.9,32.8-11.9,63.4-33.8,82.2-63.1,18.9-29.4,18.4-64,15.6-98.8Z"/>
  <path class="cls-23" d="m750.2,115.3c-48.8,30.3-109.6,40.9-165.7,28.8,51.1-24.7,109.2-34.8,165.7-28.8Z"/>
  <path class="cls-39" d="m593.2,332.6c28.5-61.4,25.1-136.6-8.7-195.3-23.1,62.2-10.8,131.9,8.7,195.3Z"/>
  <path class="cls-41" d="m587.6,157.3c20.9,52.3,53.3,100,94.3,138.7-1.7-59.3-33.5-117-82.7-150.1-3-2-6.8-4-10-2.4-4.6,2.3-3.5,9.1-1.6,13.8Z"/>
  <path class="cls-29" d="m590,139.6c34.8,52.1,85.5,93.5,143.6,117-24.3-59.6-80.3-105.2-143.6-117Z"/>
  <path class="cls-48" d="m593.5,140.9c46.7,37.7,108.2,56.7,168,51.8-50.6-30.7-108.9-48.6-168-51.8Z"/>
  <path class="cls-54" d="m150.5,138.9c-2.3,6.5-5.5,13.3-11.6,16.6-9.8,5.5-22.1-.1-31.1-6.9-21.8-16.6-37.4-41.1-43.3-67.9-5.9-26.8-2-55.6,10.8-79.8,28.7,7,54.1,26.5,68.2,52.4s16.7,57.7,7,85.6Z"/>
  <path class="cls-58" d="m138.6,152.2c1.5-31.5,17.7-62,43-80.8s59.2-25.6,89.8-17.9c-.5,31.8-16.6,63-42.1,82-25.6,19.1-60.1,25.4-90.7,16.7Z"/>
  <path class="cls-30" d="m145.9,164.1c5.5,19.4-1.9,41.1-15.9,55.6s-33.9,22.4-53.9,25-40.3.4-60.2-3c.1-46.1,34.2-90,78.9-101.4,12.8-3.3,27.5-3.8,38.1,4,6.6,4.7,10.9,12,13,19.8Z"/>
  <path class="cls-40" d="m28.5,126.7c-11.3-16.4-16.9-36-22.4-55.2-2-7.2-4.1-14.4-6.1-21.6,50.5-6.2,103.5,16.4,133.9,57.2,7.5,10.1,13.9,22.6,10.9,34.7-2.1,8.5-8.7,15.4-16.5,19.3s-16.7,5.2-25.5,5.1c-29.1-.3-57.7-15.5-74.3-39.5Z"/>
  <path class="cls-10" d="m162.2,178.8c-4.2-7.7-10-15-17.9-18.7-11.7-5.4-26-2.1-36.2,5.8s-16.8,19.5-21.6,31.5c-17.4,43.1-14.1,94,8.7,134.5,26.4-15.9,50.6-37,64.7-64.3s17-61.8,2.3-88.8Z"/>
  <path class="cls-55" d="m138.5,194c10.7,31,37.7,55,68.7,65.4s65.6,8,96.3-3.4c-10.9-32.8-24-66-48.5-90.5s-62.9-37.8-94.5-23.7c-11.3,5.1-21.6,14.1-24.6,26.1-2,8.6-.3,17.7,2.6,26.1Z"/>
  <path class="cls-74" d="m125.4,146.6c-7.2-22.7-5-48.1,5.8-69.3,10.9-21.1,30.3-37.7,53-45,3.1,22.7,6.2,45.7,2.6,68.3s-14.9,45.1-34.6,56.7c-5.1,3-11.4,5.2-16.9,2.9-5.4-2.2-8.2-8.1-9.9-13.6Z"/>
  <g>
    <path class="cls-45" d="m647.3,547c-4.9,12.2-12.2,23.8-23.1,31-10.9,7.3-25.8,9.4-37.2,3-10.4-5.9-13.8-17.8-15.3-29.6s-1.8-23.8.6-35.5c3.4-16.9,7.4-34.6,18.4-47.8,11.1-13.3,31.5-20.4,46.1-11.3,10.8,6.7,15.6,20.1,17.4,32.7,2.8,19.4.4,39.4-6.9,57.5Z"/>
    <path class="cls-60" d="m594.4,616.4c.6-10.4,2.3-20.8,4.8-31-.3,10.1-.5,20.3-.8,30.4-1.3.2-2.6.4-4,.6Z"/>
    <path class="cls-4" d="m599.3,583.5c-1.3-13-5.6-25.8-8.8-38.5,0-.1-.2-.1-.2,0,2.2,12.8,3.5,26.2,7.5,38.6.4.8,1.6.7,1.5-.1h0Z"/>
    <path class="cls-4" d="m599.2,581.8c3.9-6.9,6.2-14.8,8.6-22.3,2.7-8.7,4.8-17.6,6.3-26.6,3-16.9,3.7-33.9,3-51.1,0-.2-.2-.2-.2,0,.3,16.9-1.3,34-4.5,50.6-1.6,8.4-3.7,16.6-6,24.8-2.4,8.2-5.8,16-8.1,24.2-.1.6.7.9.9.4h0Z"/>
    <path class="cls-4" d="m599.9,583.1c4-1.9,6.8-7.5,9.1-11.1,3.1-5,5.9-10.4,7.9-15.9.1-.2-.2-.3-.3-.1-2.7,4.6-5.3,9.2-8.3,13.6-2.7,4.1-7.6,8.5-8.7,13.3-.1.2.1.3.3.2h0Z"/>
  </g>
  <path class="cls-63" d="m547.9,533.9c9.6,10.9,17.4,23.9,19.2,38.3,1.8,14.4-3.5,30.2-15.5,38.3-11,7.4-24.4,4.8-36.9.4-12.5-4.4-24.4-10.1-34.8-18.2-15.1-11.8-30.5-24.5-38.1-42s-4.6-41.2,11.8-51.2c12.1-7.4,27.6-5.4,41-.9,20.4,6.8,39,19.1,53.3,35.3Z"/>
  <path class="cls-1" d="m590.2,620.7c-10-5.8-19.5-12.6-28.2-20.2,9.9,5.3,19.8,10.6,29.6,15.9-.4,1.4-.9,2.8-1.4,4.3Z"/>
  <path class="cls-4" d="m560,599.5c-13.5-5.1-28.2-7.3-42.2-10.5-.1,0-.1.1,0,.2,13.8,4.1,27.6,9.4,41.9,11.7.8.1,1.2-1.1.3-1.4h0Z"/>
  <path class="cls-4" d="m558.4,598.8c-5-7.5-11.9-13.8-18.3-20-6.6-6.3-13.5-12.1-20.8-17.6-15.7-12-32.8-21.6-50.8-29.8-.1-.1-.3.1-.1.2,16.7,7.9,32.6,17.9,47.3,29.1,7.5,5.7,14.8,11.9,21.7,18.4,7,6.5,13.1,14,20.2,20.3.4.4,1.1-.1.8-.6h0Z"/>
  <path class="cls-4" d="m560,598.8c.1-5-4.1-10.5-6.6-14.6-3.4-5.5-7.2-10.9-11.6-15.6-.1-.1-.4,0-.3.2,3.2,4.9,6.5,9.7,9.4,14.8,2.7,4.7,4.7,11.8,8.8,15.3.1.2.3.1.3-.1h0Z"/>
  <path class="cls-43" d="m512.2,629.9c11.3-3.4,23.7-4.8,35-1.3s21.3,12.9,23.2,24.6c1.8,10.7-4.7,19.8-12.2,27.6s-15.8,14.8-25.4,19.7c-13.9,7.2-28.6,14.4-44.2,14.1-15.6-.3-32.3-10.6-34.1-26.2-1.4-11.5,5.4-22.4,13.3-30.8,12-12.9,27.5-22.6,44.4-27.7Z"/>
  <path class="cls-76" d="m591.2,627.9c-7.7,5.5-16,10.2-24.6,14.1,7.3-5.6,14.6-11.1,21.9-16.7.9,1,1.8,1.8,2.7,2.6Z"/>
  <path class="cls-4" d="m565.1,643.1c-8.5,8.2-15,18.6-22.1,28-.1.1.1.2.1.1,7.8-8.8,16.7-17.2,23.1-27.2.5-.7-.5-1.4-1.1-.9h0Z"/>
  <path class="cls-4" d="m564,644.1c-14.8,2.2-30.1,10-43,17.2-13.6,7.5-26,16.6-37.7,26.8-.1.1.1.3.2.2,11.8-9.8,24.9-18.3,38.4-25.5,7-3.7,14.2-7,21.5-10,6.9-2.8,14.2-4.7,21-7.8.6-.2.1-1-.4-.9h0Z"/>
  <path class="cls-4" d="m564.7,643c-4.1-1.8-9.2-.7-13.5-.1-5.1.7-10.3,1.8-15.2,3.4-.2.1-.1.4.1.3,5.7-.8,11.3-1.6,17-2,3.8-.2,8.1.3,11.6-1.3.1,0,.1-.3,0-.3h0Z"/>
  <path class="cls-19" d="m573.6,700c1.3-11.5,4.4-22.8,10.9-30.9,6.5-8,16.8-12.2,26.1-8.2,8.5,3.6,13.1,13.6,16.4,23.9s5.6,20.8,6.1,31.5c.7,15.5,1.1,31.7-4.4,45-5.5,13.4-18.8,22.7-31,16.9-9-4.3-14.9-15.4-18.5-26.3-5.5-16.8-7.5-34.8-5.6-51.9Z"/>
  <path class="cls-56" d="m598.8,630.8c1.5,9.3,2.2,18.8,2.2,28.1-1.7-9-3.3-18-5-27,.9-.4,1.9-.7,2.8-1.1Z"/>
  <path class="cls-4" d="m601.2,660.7c3,11.3,8.8,21.9,13.5,32.6,0,.1.2,0,.1-.1-3.9-11-6.8-22.8-12.4-33.1-.3-.7-1.4-.2-1.2.6h0Z"/>
  <path class="cls-4" d="m601.6,662.1c-3.6,14-2.8,30.2-1.9,44.6,1,15.8,3.7,31.1,7.5,46.5,0,.1.3.1.2-.1-3.4-15.2-5.2-30.8-5.9-46.4-.3-7.4-.4-14.9-.1-22.4.2-7.3,1.3-14.7,1.2-22.1,0-.5-.9-.7-1-.1h0Z"/>
  <path class="cls-4" d="m601,661c-3.1,2.8-3.8,7.9-4.8,11.8-1.2,4.8-2.1,9.7-2.4,14.6,0,.2.3.2.3,0,1.3-4.7,2.4-9.5,3.9-14.1,1.2-3.8,3.7-8.2,3.3-12.2.1-.1-.2-.2-.3-.1h0Z"/>
  <path class="cls-6" d="m652.7,698.6c-10.2-8.9-19-19.9-22.4-33s-.5-28.3,9.7-37.3c9.2-8.2,22-7.4,34-4.9,12.1,2.5,23.8,6.3,34.4,12.6,15.4,9,31.2,18.9,40.4,34.2s9.3,37.6-4.6,48.8c-10.2,8.3-24.9,8.4-37.8,5.9-19.8-4-38.5-13.1-53.7-26.3Z"/>
  <path class="cls-11" d="m603,623.5c10,4.2,19.5,9.3,28.6,15.2-9.8-3.7-19.6-7.4-29.4-11.1.3-1.3.5-2.7.8-4.1Z"/>
  <path class="cls-4" d="m633.4,639.4c13.1,3.1,27,3.3,40.4,4.5.1,0,.1-.1,0-.2-13.3-2.1-26.8-5.5-40.2-5.7-.8,0-.9,1.2-.2,1.4h0Z"/>
  <path class="cls-4" d="m635.1,639.9c5.6,6.4,12.9,11.5,19.7,16.5,7.3,5.3,15,10.2,22.9,14.6,15.5,8.6,31.8,15.1,48.7,20.2.1,0,.2-.2.1-.2-16.6-5.4-32.7-12.8-47.9-21.5-7.4-4.2-14.5-8.9-21.4-13.8-7.4-5.2-14-11.5-21.5-16.5-.4-.4-.9.3-.6.7h0Z"/>
  <path class="cls-4" d="m633.6,640c.5,4.5,4.6,8.7,7.4,12.1,3.9,4.9,8.4,9.6,13.2,13.6.2.1.4-.1.2-.2-4.1-4.8-8.2-9.5-11.9-14.6-2.6-3.5-4.8-8.7-8.6-11.1-.1-.1-.3,0-.3.2h0Z"/>
  <path class="cls-36" d="m679.8,620.4c-12,2.4-24.4,2.8-34.6-1.2-10.2-4-17.7-13.1-16.8-23.9.9-9.8,9.4-17.7,18.7-24.3,9.2-6.6,19.1-12.4,29.7-16.3,15.4-5.6,31.5-11.2,46.8-9.9s29,11.8,27.1,26.1c-1.4,10.5-10.7,20-20.5,27.2-15,11.1-32.5,18.8-50.4,22.3Z"/>
  <path class="cls-49" d="m602,617c8.9-4.5,18.2-8.2,27.6-11.2-8.5,4.6-17,9.1-25.5,13.7-.8-.9-1.4-1.7-2.1-2.5Z"/>
  <path class="cls-4" d="m631.2,605c10.4-6.7,19.2-15.9,28.5-24.1.1-.1,0-.2-.1-.1-9.8,7.4-20.6,14.2-29.2,23.1-.6.6.1,1.6.8,1.1h0Z"/>
  <path class="cls-4" d="m632.6,604.1c15.3-.8,31.3-6.9,45.5-12.3,15.5-6,30.1-13.7,44.3-22.3.1-.1,0-.3-.1-.2-14.2,8.3-29.3,15.1-44.7,20.8-7.4,2.7-14.9,5.1-22.5,7.3-7.5,2.1-15.3,3.4-22.7,5.8-.5.1-.4.9.2.9h0Z"/>
  <path class="cls-4" d="m631.7,605.1c3.9,2.1,9.2,1.3,13.4,1.1,5.2-.3,10.5-1,15.5-2.2.2,0,.2-.4,0-.3-5.2.2-10.3.6-15.5.6-4.3,0-9.4-1.1-13.4.4-.1,0-.2.3,0,.4h0Z"/>
</svg>