<?xml version="1.0" encoding="UTF-8"?>
<svg xmlns="http://www.w3.org/2000/svg" viewBox="0 0 508 438">
  <defs>
    <style>
      .cls-1 {
        opacity: .4;
      }

      .cls-1, .cls-2, .cls-3, .cls-4 {
        mix-blend-mode: multiply;
      }

      .cls-5 {
        fill: #ccd751;
      }

      .cls-6 {
        fill: #adc937;
      }

      .cls-7, .cls-3 {
        fill: #72a842;
      }

      .cls-8 {
        isolation: isolate;
      }

      .cls-9 {
        fill: #bdd57a;
      }

      .cls-10, .cls-11 {
        fill: #8e6427;
      }

      .cls-12, .cls-4 {
        fill: #36803e;
      }

      .cls-13 {
        fill: #eee30e;
      }

      .cls-2, .cls-3, .cls-4, .cls-11 {
        opacity: .5;
      }

      .cls-14 {
        fill: #94c249;
      }

      .cls-15 {
        fill: none;
      }

      .cls-16 {
        fill: #f1d810;
      }

      .cls-17 {
        fill: #eeb61e;
      }

      .cls-18 {
        fill: #52a646;
      }

      .cls-11 {
        mix-blend-mode: screen;
      }
    </style>
  </defs>
  <g class="cls-8">
    <g id="Layer_1" data-name="Layer 1">
      <g>
        <g>
          <g>
            <path class="cls-10" d="m358.19,192.48c-7.31-3.23-12.57-10.16-19.06-14.44.63-19.89,1.11-39.95,3.1-59.73.74-6.93-11.41-6.88-12.12,0-1.47,14.61-2.12,29.34-2.62,44.04-5.8-9.84-12.51-19.12-21.02-27.46-5.27-5.14-13.81,2.51-8.59,7.65,9.97,9.73,17.13,21.01,23.42,32.79-23.08,4.71-46.78,5.25-69.76,10.28-7.59,1.68-4.36,12.07,3.24,10.42,16.82-3.68,34.11-4.31,51.23-6.42,11.24-1.4,22.4-7.11,31.63,2.23,4.22,4.25,8.75,7.48,14.44,9.99,6.99,3.08,13.14-6.22,6.1-9.33Z"/>
            <g class="cls-2">
              <path class="cls-10" d="m330.85,161.01c.22-9.16,2.27-36.93,3.01-47.34-1.91.77-3.53,2.31-3.75,4.65-1.47,14.61-2.12,29.34-2.62,44.04-5.8-9.84-12.51-19.12-21.02-27.46-.85-.82-1.83-1.31-2.79-1.54,5.38,7.23,16.02,21.61,19.58,27.37,4.86,7.82,7.28,11.62,7.59.29Z"/>
              <path class="cls-10" d="m331.43,180.73c-6.05-.29-10,1.34-33.03,5.39-16.44,2.88-39.33,4.14-51.12,4.63.16,3.11,3.07,6.25,7.51,5.28,16.82-3.68,34.11-4.31,51.23-6.42,11.24-1.4,22.4-7.11,31.63,2.23,2.24,2.28,4.58,4.22,7.13,5.97-5.25-8.94-10.66-16.96-13.36-17.07Z"/>
            </g>
          </g>
          <path class="cls-11" d="m335.05,139.52s-1.29,5.17-.77,12.15c.48,6.97-.77,13.5-.77,17.33s5.32,0,5.32-13.96,0-18.67-3.78-15.52Z"/>
          <path class="cls-11" d="m266.06,185.24c1.25-.37,8.29-.57,17.24-2.66,8.93-2.08,16.6-3.39,24.89-3.99,8.29-.54,12.15-1.31,13.84-.94,1.69.4-6.6,5.11-17.68,5.48-11.05.4-14.88,3.62-23.2,3.8-8.31.2-28.08,2.28-15.1-1.68Z"/>
        </g>
        <g>
          <g>
            <path class="cls-10" d="m279.74,268c-5,3.91-9.58,8.1-14.14,12.38-.86-.14-1.88-.08-2.98.29-15.63,5.4-30.24,3.91-46.59,5.34-13.11,1.14-24.64,7.42-35.46,13.53-6.62,3.68-.52,13.04,6.11,9.3.38-.22.77-.4,1.11-.63,1.68.94,3.79,1.17,5.97-.06,11.27-6.36,22.97-10.56,36.5-10.56,5.16,0,10.71.06,16.15-.29-.99.8-2.02,1.6-3.07,2.37-12.79,9.16-22.09,22.17-35.93,30.11-6.54,3.77-.44,13.13,6.13,9.33,13.29-7.62,23.94-19.01,35.27-28.77,13.28-11.39,25.65-23.8,39.49-34.73,5.86-4.66-2.76-12.24-8.56-7.62Z"/>
            <g class="cls-2">
              <path class="cls-10" d="m236.84,293.08c-13.36,1.08-16.7,2.16-35.23,6.76-8.84,2.19-17.26,2.71-23.64,2.65-1.35,4.14,3.49,9.27,8.71,6.33.38-.22.77-.4,1.11-.63,1.68.94,3.79,1.17,5.97-.06,11.27-6.36,22.97-10.56,36.5-10.56,5.16,0,10.71.06,16.15-.29,0,0,3.75-5.28-9.58-4.22Z"/>
              <path class="cls-10" d="m279.74,268c-5,3.91-9.58,8.1-14.14,12.38-.86-.14-1.88-.08-2.98.29-4.73,1.63-9.39,2.63-14,3.29,5.25.25,8.97.8,7.92,1.85-3.04,2.97-3.93,4.03-2.73,9.7,1.19,5.68-.31,6.22-6.66,10.56-6.41,4.31-12.78,8.9-21.24,18.09-4.36,4.71-12.67,9.79-19.89,13.7,1.63,1.97,4.52,3,7.53,1.26,13.29-7.62,23.94-19.01,35.27-28.77,13.28-11.39,25.65-23.8,39.49-34.73,5.86-4.66-2.76-12.24-8.56-7.62Z"/>
            </g>
          </g>
          <path class="cls-11" d="m195.66,296.48s3.21-1.54,11.51-3.71c8.34-2.2,15.19-2.62,25.22-3.28,10.03-.66,15.63-2.4,6.6-3.29-9.08-.85-13.94-.4-20.32,0-6.35.46-12.21,1.74-17.12,3.94-4.89,2.19-20.08,10.67-5.89,6.33Z"/>
          <path class="cls-11" d="m226.07,317.08s4.94-7.45,11.76-11.82c6.84-4.39,7.57-4.39,10.61-7.76,3.04-3.37.77,4.71-3.4,8.08-4.17,3.4-5.71,5.08-10.63,8.79-4.91,3.71-14.39,10.45-8.34,2.71Z"/>
        </g>
        <path class="cls-12" d="m130.25,275.22c1.51-3.37-2.21-6.45-5.5-8.57,8.23-4.82,4.52-18.38-4.26-18.35.8-1.56.89-3.34-.28-5.16-2.92-4.45-10.49-4.89-16.13-4.37,1.07-4.54.14-9.79-6.18-10.96-7.7-1.45-14.8,2.68-20.19,7.48-.92-4.73-2.37-12.18-7.09-13.35-3.56-.86-8.61,3.51-11.63,7.05-1.47-4.4-5.38-9.7-9.86-9.1-6.32.85-12.76,2.51-12.98,7.99-7.76-.25-12.59,5.05-8.2,11.36-3.5,1.46-4.53,4.11-3.89,6.86-2.46-.97-5-1.15-7.1.59-2.18,1.8-2.09,4.2-1,6.31-1.02.08-1.99.48-2.65,1.52-1.32,2-1.07,3.73.03,5.19-5.52-.34-10.46.91-7.73,7.56,2.05,4.99,7.73,9.24,13.2,8.22-.7,2.06-.86,4.29.96,5.88,2.18,1.94,5.1,2.48,7.95,2.16-1.02,1.57-1.5,3.31.06,4.88,2.63,2.6,5.03,3.2,8.12,3.46-2.98,2.57-4.59,5.85-3.5,10.04,1.02,4.05,4.36,5.51,8.26,6.39-4.58,1.94-9.3,4.8-7.28,9.5,2.37,5.59,9.17,5.17,13.81,2.6-.25,4.19.33,8.82,5.74,9.59,5.52.79,8.75-2.46,10.38-6.39,1.44,2.46,3.86,4.28,7.57,4.99,3.96.77,6.91-1.45,8.97-4.31.89,3.17,3.53,5.25,9.03,4.74,5-.49,6.93-4.57,7.67-8.62,2.27,2.34,5.61,2.99,9.8,1.23,3.95-1.68,3.31-6.79,2.02-10.73,4.33,2.02,9.42,3.31,12.95-.31,2.73-2.77,1.35-7.22-1.19-10.16,4.53-.54,9.05-2.19,9.53-6.82.63-6.36-.42-10.36-4.78-13.72,2.37-.4,3.94-1.57,5.38-4.65Z"/>
        <path class="cls-18" d="m49.93,287.03c-3.43,6.59,7.79,6.39,11.51,5.14,8.26-2.68,7.34-6.99,15.99-7.79-10.67,13.7,5.67,20.04,15.05,5.91,2.88,4.71,10.67,12.04,16.73,6.08,6.65-6.53-1.98-2.83,7.21-7.28,12.12-5.79-15.38-9.3-16.18-9.67,17.62-.35,12.85-17.12-1.25-11.9,2.82-4.37,6.13-16.5-3.51-16.55-7.82-.03-7.92,11.89-8.56,16.15-2.6-2.74-6.69-5.05-10.55-6.05,9.75,1.57,10.67-10.02,3.24-14.64-9.75-6.05-12.7,11.36-3.95,14.46-6.47-1.4-14.83,14.7-10.96,19.3-2.62,3.05-11.18-.11-14.77,6.85-1.19,2.23,2.27-4.48,0,0Zm38.64-9.62c-3.53.4,2.54-2.77,2.57-2.82.19,1.08.83,2,1.85,2.74-1.44,1.15-2.88,1.17-4.42.08-.28.03.99-.11,0,0Z"/>
        <g class="cls-1">
          <path class="cls-12" d="m130.25,275.22c1.51-3.37-2.21-6.45-5.5-8.57,8.23-4.82,4.52-18.38-4.26-18.35.8-1.56.89-3.34-.28-5.16-2.92-4.45-10.49-4.89-16.13-4.37,1.07-4.54.14-9.79-6.18-10.96-7.7-1.45-14.8,2.68-20.19,7.48-.92-4.73-2.37-12.18-7.09-13.35-3.56-.86-8.61,3.51-11.63,7.05-1.47-4.4-5.38-9.7-9.86-9.1-6.32.85-12.76,2.51-12.98,7.99-7.76-.25-12.59,5.05-8.2,11.36-3.5,1.46-4.53,4.11-3.89,6.86-2.46-.97-5-1.15-7.1.59-2.18,1.8-2.09,4.2-1,6.31-1.02.08-1.99.48-2.65,1.52-1.32,2-1.07,3.73.03,5.19-5.52-.34-10.46.91-7.73,7.56,2.05,4.99,7.73,9.24,13.2,8.22-.7,2.06-.86,4.29.96,5.88,2.18,1.94,5.1,2.48,7.95,2.16-1.02,1.57-1.5,3.31.06,4.88,2.63,2.6,5.03,3.2,8.12,3.46-2.98,2.57-4.59,5.85-3.5,10.04,1.02,4.05,4.36,5.51,8.26,6.39-4.58,1.94-9.3,4.8-7.28,9.5,2.37,5.59,9.17,5.17,13.81,2.6-.25,4.19.33,8.82,5.74,9.59,5.52.79,8.75-2.46,10.38-6.39,1.44,2.46,3.86,4.28,7.57,4.99,3.96.77,6.91-1.45,8.97-4.31.89,3.17,3.53,5.25,9.03,4.74,5-.49,6.93-4.57,7.67-8.62,2.27,2.34,5.61,2.99,9.8,1.23,3.95-1.68,3.31-6.79,2.02-10.73,4.33,2.02,9.42,3.31,12.95-.31,2.73-2.77,1.35-7.22-1.19-10.16,4.53-.54,9.05-2.19,9.53-6.82.63-6.36-.42-10.36-4.78-13.72,2.37-.4,3.94-1.57,5.38-4.65Zm-8.81-.06c-1.08,2.4-2.31,3.32-4.12,3.57,3.35,2.63,4.15,5.71,3.68,10.59-.36,3.6-3.86,4.88-7.34,5.31,1.94,2.25,3.01,5.68.92,7.85-2.73,2.77-6.66,1.79-10,.22.99,3.03,1.47,6.99-1.57,8.25-3.28,1.4-5.8.89-7.56-.94-.58,3.14-2.05,6.3-5.91,6.65-4.25.43-6.27-1.19-6.98-3.62-1.57,2.2-3.84,3.88-6.93,3.32-2.88-.54-4.73-1.94-5.83-3.88-1.27,3.05-3.75,5.56-8.01,4.96-4.15-.6-4.61-4.17-4.42-7.42-3.62,2.02-8.81,2.31-10.66-2-1.55-3.62,2.07-5.82,5.6-7.34-2.98-.68-5.57-1.79-6.38-4.94-.83-3.22.42-5.74,2.73-7.73-2.4-.2-4.26-.66-6.27-2.65-1.22-1.23-.85-2.57-.08-3.77-2.18.2-4.42-.17-6.11-1.68-1.41-1.23-1.29-2.94-.74-4.54-4.23.77-8.62-2.49-10.19-6.34-2.08-5.13,1.69-6.1,5.96-5.85-.83-1.11-1.02-2.45-.03-3.99.52-.79,1.25-1.11,2.05-1.17-.83-1.65-.92-3.48.77-4.88,1.63-1.34,3.59-1.19,5.52-.45-.52-2.11.28-4.17,2.98-5.28-3.4-4.88.34-8.96,6.33-8.76.17-4.22,5.14-5.51,10-6.16,3.43-.46,6.48,3.62,7.6,7.04,2.37-2.76,6.24-6.14,8.97-5.44,3.65.88,4.78,6.62,5.49,10.27,4.15-3.68,9.67-6.88,15.6-5.77,4.84.94,5.55,4.97,4.78,8.48,4.28-.4,10.14-.09,12.43,3.34.89,1.42.83,2.79.19,3.99,6.79-.03,9.64,10.44,3.29,14.19,2.57,1.63,5.46,3.99,4.23,6.59Z"/>
        </g>
        <path class="cls-12" d="m309.89,364.2c-2.37-2-5.22-2.11-7.92-1.4,2.09-3.74,3.49-8.36.33-11.19-2.92-2.62-8.68.77-12.31,3.51.13-4.14-.16-10.36-3.93-10.81-4.5-.57-7.42,2-9.27,5.22-.77-3.02-2.57-5.03-7.63-3.34-4.45,1.51-5.69,5.93-5.96,10.1-4.64-3.48-12.01,1.03-14.8,6.68,1.69-3.43-7.43-4.54-9.39-4.63-5.55-.19-8.43.8-9.55,6.05,0,.03.03.06.03.08-6.13,4.8-5.03,11.56,1.72,15.16-4.17.89-8.78,2.65-9,5.62-.19,3.48,3.32,5.05,6.91,5.97-3.84,3.16-1.35,9.9.74,14.24,3.79,7.85,8.31,3.68,12.27-.63.92,5.62,5.33,10.56,11.02,13.27,5.13,2.39,7.67-2.51,9.17-6.88,1.54,3.37,4.2,6.37,8.23,7.28,3.04.68,4.08-3.31,4.48-6.62,3.21,3.62,8.34,6.56,13.31,5.81,6.44-.96,5.53-6.22,4.39-11.07,1.63,1.46,3.56,2.4,5.53,1.38,3.89-2.03,2.66-6.68.64-10.62,2.57.8,5.27.54,7.24-2.02,2.95-3.88,1.74-7.39-.96-10.33,4.67-.75,8.53-5.26,9.39-10.33.67-4.03-1.54-7.82-4.72-10.51Z"/>
        <g class="cls-1">
          <path class="cls-12" d="m309.89,364.2c-2.37-2-5.22-2.11-7.92-1.4,2.09-3.74,3.49-8.36.33-11.19-2.92-2.62-8.68.77-12.31,3.51.13-4.14-.16-10.36-3.93-10.81-4.5-.57-7.42,2-9.27,5.22-.77-3.02-2.57-5.03-7.63-3.34-4.45,1.51-5.69,5.93-5.96,10.1-4.64-3.48-12.01,1.03-14.8,6.68,1.69-3.43-7.43-4.54-9.39-4.63-5.55-.19-8.43.8-9.55,6.05,0,.03.03.06.03.08-6.13,4.8-5.03,11.56,1.72,15.16-4.17.89-8.78,2.65-9,5.62-.19,3.48,3.32,5.05,6.91,5.97-3.84,3.16-1.35,9.9.74,14.24,3.79,7.85,8.31,3.68,12.27-.63.92,5.62,5.33,10.56,11.02,13.27,5.13,2.39,7.67-2.51,9.17-6.88,1.54,3.37,4.2,6.37,8.23,7.28,3.04.68,4.08-3.31,4.48-6.62,3.21,3.62,8.34,6.56,13.31,5.81,6.44-.96,5.53-6.22,4.39-11.07,1.63,1.46,3.56,2.4,5.53,1.38,3.89-2.03,2.66-6.68.64-10.62,2.57.8,5.27.54,7.24-2.02,2.95-3.88,1.74-7.39-.96-10.33,4.67-.75,8.53-5.26,9.39-10.33.67-4.03-1.54-7.82-4.72-10.51Zm-9.31,12.56c-.61,3.54-3.28,6.68-6.51,7.19,1.85,2.06,2.68,4.51.63,7.19-1.36,1.8-3.23,1.98-5.02,1.4,1.4,2.77,2.24,5.99-.45,7.39-1.38.74-2.73.06-3.87-.94.83,3.37,1.44,7.04-3.06,7.7-3.45.54-7.01-1.54-9.22-4.05-.33,2.28-1.04,5.08-3.15,4.59-2.81-.66-4.64-2.71-5.72-5.08-1.03,3.06-2.79,6.48-6.38,4.82-3.98-1.88-7.02-5.33-7.67-9.27-2.76,3.02-5.89,5.91-8.56.45-1.44-3.02-3.17-7.68-.5-9.9-2.51-.63-4.97-1.72-4.78-4.14.13-2.09,3.34-3.28,6.26-3.91-4.75-2.51-5.46-7.22-1.22-10.56,0-.03-.03-.03,0-.06.74-3.65,2.76-4.34,6.63-4.22,1.35.06,7.7.86,6.54,3.25,1.93-3.97,7.06-7.11,10.28-4.68.2-2.88,1.07-5.96,4.17-7.02,3.5-1.2,4.75.2,5.28,2.31,1.29-2.26,3.34-4.02,6.44-3.62,2.63.31,2.82,4.65,2.76,7.53,2.49-1.91,6.5-4.28,8.56-2.46,2.18,1.98,1.24,5.19-.24,7.79,1.87-.51,3.86-.43,5.52.98,2.21,1.85,3.71,4.54,3.28,7.3Z"/>
        </g>
        <path class="cls-12" d="m475.4,125.16c-.25-3.97-3.37-6.02-6.99-6.39,2.45-3.32,3.59-7.08,1.51-10.96-1.18-2.2-3.75-1.51-5.77-.34-.47-6.16-2.68-13.65-10.82-13.73-3.56-.03-4.59,3.4-4.72,7.02-.28-.15-.61-.17-.89-.23,1.69-2.74,1.69-6.08-1.1-7.96,3.37-2.09,7.76-5.34,6.51-8.71-1.14-3.14-3.65-4.63-6.88-4.71,1.32-3.71,1.57-7.42-2.21-10.1-2.12-1.52-5.06-.89-7.63.06.64-2.51.55-5.22-2.15-6.74-3.48-2.02-6.44-.43-9.06,1.72-1.29-3.54-3.84-8.1-7.76-8.57-2.49-.31-3.84,1.12-4.7,2.91-2.38-3.68-6.66-4.54-10.71-2.77.39-2.17.03-4.34-2.15-5.45-2.3-1.23-4.3-.71-5.8.54-1.29-4.23-5.13-6.83-10.96-6.05-3.26.4-4.48,3.34-4.84,6.45-.96-.97-2.21-1.68-4-2-2.54-.41-4.45.85-5.89,2.53-1.04-3.23-3.75-5.17-8.87-5.93-6.35-.94-7.95,2.83-8.86,7.11-4.18-2.25-11.08-1.86-12.62,3.09-1.41,4.59,2.92,8.79,7.67,10.81-3.86,1.79-7.27,4.88-5.49,8.68,1.47,3.08,6.85,2.86,11.32,1.71-2.15,3.34-2.7,6.68-.61,8.82-3.5.4-6.96,1.23-8.25,3.2-1.57,2.37-.38,4.37,1.47,5.97-4.92-.09-11.11.68-10.69,4.82.41,4.43,5.19,7.65,10.03,9.59-3.98,1.34-6.9,4.02-7.05,8.57-.09,2.9,2.85,4.39,6.05,5.19-5.38,1.97-10.53,4.96-7.4,10.56,3.1,5.48,10.83,5.93,16.6,3.88-1.19,2.77-1.47,5.03,1.88,7.71,2.88,2.28,7.38,2.57,11.35,2.2-2.18,2.82-3.37,5.76-1.1,9.22,1.41,2.14,3.83,3.46,6.35,3.74-2.73,3.16-4.77,7.39-1.44,10.5,3.01,2.8,6.77,3.57,10.19,2.46-1.32,3.51-2.12,7.42.94,10.13,2.62,2.37,5.53,1.42,7.81-.37-.03,3.31.64,6.93,4.36,7.64,5.8,1.06,9.49-1.59,12.28-5.42,1.6,3.14,4.26,4.99,7.52,3.25.27,2.91,1.29,5.48,5.06,6.51,4.17,1.14,6.35-.4,7.98-2.99,2.54,3.62,7.45,6.36,12.02,3.31,6.11-4.06,6.29-9.62,3.49-15.24,4.09.31,7.75,0,11.27-2.74,2.51-1.94,2.3-5.1,1.38-7.96,3.21,1.31,6.69,1.45,9.23-1.72,3.53-4.36,1.76-7.93-1.1-11.55,1.61,0,3.15-.46,4.56-1.57,2.92-2.26.09-6.08-2.08-8.68,9.12-1.17,13.2-9.5,5.47-14.19,3.53-1.19,6.54-2.91,6.29-6.82Z"/>
        <g>
          <path class="cls-12" d="m353.5,79.53c-.89-.37-1.75-.85-2.52-1.42-.86,1.54-1.35,3.05-1.35,4.43.83-1.23,2.27-2.26,3.87-3Z"/>
          <path class="cls-4" d="m475.4,125.16c-.25-3.97-3.37-6.02-6.99-6.39,2.45-3.32,3.59-7.08,1.51-10.96-1.18-2.2-3.75-1.51-5.77-.34-.47-6.16-2.68-13.65-10.82-13.73-3.56-.03-4.59,3.4-4.72,7.02-.28-.15-.61-.17-.89-.23,1.69-2.74,1.69-6.08-1.1-7.96,3.37-2.09,7.76-5.34,6.51-8.71-1.14-3.14-3.65-4.63-6.88-4.71,1.32-3.71,1.57-7.42-2.21-10.1-2.12-1.52-5.06-.89-7.63.06.64-2.51.55-5.22-2.15-6.74-3.48-2.02-6.44-.43-9.06,1.72-1.29-3.54-3.84-8.1-7.76-8.57-2.49-.31-3.84,1.12-4.7,2.91-2.38-3.68-6.66-4.54-10.71-2.77.39-2.17.03-4.34-2.15-5.45-2.3-1.23-4.3-.71-5.8.54-1.29-4.23-5.13-6.83-10.96-6.05-3.26.4-4.48,3.34-4.84,6.45-.96-.97-2.21-1.68-4-2-2.54-.41-4.45.85-5.89,2.53-1.04-3.23-3.75-5.17-8.87-5.93-6.35-.94-7.95,2.83-8.86,7.11-4.18-2.25-11.08-1.86-12.62,3.09-1.41,4.59,2.92,8.79,7.67,10.81-3.86,1.79-7.27,4.88-5.49,8.68,1.32,2.79,5.8,2.86,9.97,2.02-1.99-1.68-3.24-3.85-2.51-6.22,1.16-3.77,6.44-4.08,9.62-2.34.66-3.25,1.91-6.17,6.76-5.42,3.87.6,5.99,2.05,6.76,4.54,1.13-1.31,2.57-2.25,4.48-1.94,1.38.19,2.38.77,3.12,1.54.25-2.4,1.14-4.66,3.68-4.97,4.45-.54,7.37,1.43,8.32,4.66,1.19-.97,2.73-1.38,4.48-.43,1.63.83,1.9,2.51,1.6,4.17,3.12-1.37,6.38-.68,8.18,2.12.71-1.38,1.69-2.46,3.62-2.23,2.98.34,4.92,3.83,5.89,6.56,2.02-1.65,4.26-2.86,6.91-1.34,2.05,1.17,2.12,3.23,1.68,5.17,1.94-.74,4.15-1.2,5.83-.06,2.88,2.05,2.68,4.88,1.66,7.73,2.46.06,4.39,1.19,5.28,3.57.93,2.6-2.4,5.05-5,6.67,2.15,1.43,2.18,3.97.83,6.05.27.06.48.08.7.2.06-2.77.88-5.39,3.59-5.36,6.22.06,7.89,5.77,8.28,10.47,1.57-.88,3.53-1.42,4.42.29,1.57,2.94.7,5.82-1.16,8.34,2.76.29,5.16,1.88,5.32,4.91.23,3-2.1,4.28-4.8,5.22,5.93,3.54,2.82,9.93-4.17,10.82,1.66,1.97,3.84,4.88,1.6,6.62-1.08.86-2.27,1.2-3.48,1.2,2.18,2.76,3.54,5.48.83,8.84-1.93,2.39-4.59,2.28-7.02,1.29.67,2.17.83,4.59-1.08,6.11-2.7,2.05-5.49,2.31-8.59,2.08,2.12,4.29,2.02,8.54-2.66,11.62-3.53,2.34-7.24.23-9.2-2.51-1.24,2-2.92,3.14-6.08,2.28-2.92-.8-3.68-2.74-3.87-4.96-2.48,1.31-4.51-.08-5.74-2.48-2.15,2.91-4.97,4.94-9.36,4.11-2.85-.51-3.4-3.31-3.37-5.82-1.75,1.37-3.93,2.09-5.96.31-2.3-2.08-1.72-5.11-.7-7.79-2.62.89-5.5.29-7.79-1.86-2.52-2.37-.96-5.59,1.1-8.01-1.93-.23-3.75-1.2-4.84-2.86-1.72-2.62-.83-4.88.83-7.05-3.01.31-6.46.08-8.64-1.65-2.57-2.05-2.35-3.77-1.47-5.91-4.39,1.6-10.3,1.26-12.67-2.97-2.4-4.25,1.54-6.56,5.64-8.04-2.43-.63-4.69-1.75-4.61-3.97.13-3.48,2.34-5.51,5.38-6.56-3.68-1.45-7.34-3.91-7.67-7.3-.31-3.17,4.39-3.74,8.21-3.69-1.44-1.23-2.38-2.76-1.16-4.56,1-1.48,3.62-2.14,6.32-2.42-1.6-1.63-1.19-4.2.44-6.74-3.39.86-7.46,1.05-8.61-1.29-2.95.45-5.58,1.34-6.68,3-1.57,2.37-.38,4.37,1.47,5.97-4.92-.09-11.11.68-10.69,4.82.41,4.43,5.19,7.65,10.03,9.59-3.98,1.34-6.9,4.02-7.05,8.57-.09,2.9,2.85,4.39,6.05,5.19-5.38,1.97-10.53,4.96-7.4,10.56,3.1,5.48,10.83,5.93,16.6,3.88-1.19,2.77-1.47,5.03,1.88,7.71,2.88,2.28,7.38,2.57,11.35,2.2-2.18,2.82-3.37,5.76-1.1,9.22,1.41,2.14,3.83,3.46,6.35,3.74-2.73,3.16-4.77,7.39-1.44,10.5,3.01,2.8,6.77,3.57,10.19,2.46-1.32,3.51-2.12,7.42.94,10.13,2.62,2.37,5.53,1.42,7.81-.37-.03,3.31.64,6.93,4.36,7.64,5.8,1.06,9.49-1.59,12.28-5.42,1.6,3.14,4.26,4.99,7.52,3.25.27,2.91,1.29,5.48,5.06,6.51,4.17,1.14,6.35-.4,7.98-2.99,2.54,3.62,7.45,6.36,12.02,3.31,6.11-4.06,6.29-9.62,3.49-15.24,4.09.31,7.75,0,11.27-2.74,2.51-1.94,2.3-5.1,1.38-7.96,3.21,1.31,6.69,1.45,9.23-1.72,3.53-4.36,1.76-7.93-1.1-11.55,1.61,0,3.15-.46,4.56-1.57,2.92-2.26.09-6.08-2.08-8.68,9.12-1.17,13.2-9.5,5.47-14.19,3.53-1.19,6.54-2.91,6.29-6.82Z"/>
          <path class="cls-12" d="m350.18,77.47c.22.2.5.45.8.63.16-.31.31-.63.55-.94-.45.11-.91.2-1.35.31Z"/>
          <path class="cls-12" d="m349.63,82.53c-.7,1.08-.96,2.28-.31,3.62,0,.03.03.03.03.03.5-.08,1.05-.15,1.57-.2-.94-.94-1.32-2.14-1.29-3.45Z"/>
        </g>
        <path class="cls-7" d="m181.23,128.41c3.86-2.02,8.86-5.51,6.44-9.53-2.56-4.22-6.95-6.65-11.82-8.31,3.14-.34,5.89-1.17,6.6-2.97,1.69-4.45-4.7-6.74-9.12-8.36,2.52-1.57,4.55-3.31,3.93-6.39-.55-2.83-4.2-4.03-7.73-4.45,4.91-2.54,10.03-5.79,6.99-10.79-1.99-3.19-8.04-2.6-12.46-1.94,2.08-3.76,3.32-8.56-.3-11.78-2.04-1.86-4.52-1.37-6.69-.23,1.13-4.45-.5-10.67-4.48-13.24-3.37-2.16-5.67.17-7.15,3.34-.8-2.26-2.18-4.11-4.61-4.51-4.14-.66-7.6,1.14-9.36,3.94-1.79-2.42-4.78-3.88-8.87-2.71-5.55,1.57-7.6,5.62-8.59,10.1-1.44-3.11-3.4-5.68-7.12-6.59-.28-.54-.86-.94-1.69-.77-3.01.68-6.57,1.97-8.78,3.96-1.66,1.46-2.02,3.32-2.27,5.23-2.27-3.23-5.3-6.8-9.3-6.54-3.84.23-5.83,2.69-7.21,5.51-1.87-3.17-4.42-6.02-8.87-5.33-4.62.71-5.1,5.56-4.78,9.84-4.3-4.28-10.13-6.96-16.57-1.97-5.72,4.45-8.07,8.71-6.57,13.47-2.43-.89-4.95-.77-6.85,1.77-3.5,4.57-1.79,9.45,1.6,13.35-3.2-.51-6.6-.48-7.92,1.91-1.85,3.32-.53,5.97,1.87,8.02-2.6.26-4.97,1.06-6.6,3.14-2.15,2.65-1.13,5.7.83,7.96-6.08,1.23-10.83,3-12.46,8.96-1.19,4.22.64,6.3,3.81,7.14-4.29,2.54-7.73,5.59-9,10.47-1.1,3.92.44,6.16,3.2,7.54-3.56.74-6.88,2.11-6.85,5.05.09,4.42,3.59,6.74,7.71,8.28-5.19.54-10.19,2.16-10.19,6.93,0,3.34,2.6,5.11,5.8,6.11-2.15,1.2-3.56,2.83-2.76,5,2.15,5.65,9.33,5.68,15.29,6.1-2.81,2.77-5.8,6.94-3.72,10.05,1.61,2.4,4.11,3.37,6.9,3.57-4.94,5.74-1.57,11.79,5.35,14.3-3.23,1.42-5.41,3.96-4.58,7.87.67,3.25,3.78,3.85,6.79,3.34-1.32,3.11-.31,6.34,3.53,8.94,4.05,2.65,7.27,3.2,10.06,1.91-.52,3.34.8,6.3,5.67,7.82,5.28,1.63,10.19,1.11,13.42-1.63.36,2.45,1.54,4.65,4.42,6.11,3.78,1.91,7.02.37,9.42-2.09.09,3.06,1.26,5.91,4.84,7.08,4.3,1.4,6.41-1.11,7.46-4.33,1.63,2.53,4.2,4.45,7.6,4.45s4.55-3.23,4.8-6.7c1.9,3,4.58,5.42,7.98,4.82,6.72-1.2,6.29-7.25,5.96-12.3,5.13.51,9.88-.46,11.93-4.8.25-.03.47-.12.71-.31,1.38-1.15,1.6-2.14,1.18-3.25,3.59.34,6.9-.23,9.17-3.23,2.34-3.09-.33-5.74-3.34-7.82,3.15.06,6.35-.17,8.81-1.68.88-.52,1.68-1.91,1.22-2.88-1.32-3-3.01-5.63-4.3-8.51,2.82,1.37,6.22,2.25,8.4.54,4.39-3.46,1.24-9.87-.94-14.61,3.98.94,9.08,1.2,11.71-1.12,3.26-2.88.53-7.56-1.55-11.13,6.84.6,10.16-1.63,8.46-8.02,4.05-.2,9.48-1.79,11.41-4.71,2.76-4.17-.46-10.9-2.98-15.33,7.04-1.25,8.72-6.99,4.58-11.32,2.79-.35,5.28-1.57,6.99-3.94,2.27-3.14-1.41-5.91-4.47-7.79Z"/>
        <path class="cls-7" d="m358.99,80.61c4.45-4.54.22-8.36-6.47-10.19,2.31-1.74,5.44-3.68,4.61-6.36-.8-2.6-4.06-3.03-7.18-3.09,3.4-1.83,6.47-3.96,6.74-7.79.25-3.77-4.01-5.05-8.25-5.11,3.06-2.42,4.66-5.7,3.12-10.1-2.32-6.79-9.97-5.45-14.97-2.31.28-6.11.55-12.9-5.83-16.38-4.64-2.57-10.19,1.83-13.97,5.29,0-6.34-.8-15.16-8.75-15.78-5-.4-9.2,5.51-12.21,10.1-.49-5.08-2.05-10.39-6.44-13.72-3.81-2.97-7.49,2.23-10,6.9-.16-5.05-1.11-10.93-5.16-11.93-5.57-1.37-10.02,8.22-12.59,14.19-1.13-3.65-3.2-7.62-7.12-7.85-6.18-.37-7.34,6.65-7.71,12.36-1.26-2.12-2.73-4.03-4.91-5.74-1.96-1.54-7.02-4.36-9.91-3.54-7.12,2.09-7.65,10.53-7.95,17.18-2.27-3.31-5.16-6.67-9.33-6.39-4.34.25-4.73,6.14-5.1,10.16-2.37-2.39-5.66-4.8-8.61-2.97-6.07,3.76-8.46,10.33-9.81,16.69-2.88-4.36-7.27-9.5-12.95-7.76-6.33,1.94-8.36,5.88-8.29,10.85-3.59-2.25-7.82-3.25-11.38-.03-4.03,3.6-.19,8.45,3.59,11.73-4.06.08-8.78.71-9.83,4.11-1.41,4.59,3.5,7.5,8.26,9.16-2.49.91-4.73,2.39-5.38,4.51-.58,1.94.41,3.11,1.94,3.83-3.26,1.63-5.77,3.79-5.6,7.67.13,3.37,4,3.94,7.21,4.03-3.4,6.96-6.65,18,2.46,22,3.9,1.74,6.91-1.15,9-4.56.27.29.52.54.91.71,1.88.97,3.71.79,5.47.06-.35,1.71-.06,3.51,1.41,5.42,2.37,3.02,7.56,4.02,12.21,4.25-.83,1.71-.74,3.83.61,5.28-3.89,1.88-6.63,4.54-5.39,9.05,1,3.71,4.42,4.54,7.85,4.25-2.7,3.28-5,7.79-1.41,10.3,2.82,1.97,6.26,2,9.42,1-.89,1.97-1.11,4.06.49,5.63,3.59,3.57,7.71,3.16,11.11.85.19,2.65,1.47,4.82,4.55,6.68,3.71,2.23,7.76-.86,10.52-3.57.86,3.62,2.68,7.96,7.15,7.82,3.93-.14,6.08-2.4,7.46-5.22,3.01,5.19,7.98,7.22,15.54,7.45,6.1.17,8.59-5,9.61-9.59,3.98,3.69,9.23,7.11,14.94,4.03,2.27-1.26,2.7-3.85,2.37-6.57,1.5,1.14,3.28,1.8,5.33,1.28,3.42-.85,3.68-4.28,3.14-7.33,3.56,2.16,7.85,3.91,11.88,2.25,4.39-1.8,5.13-5.42,5.25-9.25,3.09,1.4,7.15,2.68,9.69.42,1.91-1.71,2.01-4.36,1.66-6.88,2.09,1.23,4.52,2.06,6.44,1.05,3.4-1.82,4.14-5.47,4.39-8.9,3.59,2.31,9.27,4.85,12.43,1.03,4.3-5.25,1.76-9.19-2.88-12.33,4.2-.66,8.81-2.28,8.75-6.27-.03-4-4.39-5-8.36-5.54,4.61-4.37,6.08-9.14,2.24-13.42,7.37.8,19.61,1.57,22.07-3.42,2.63-5.4-2.66-8.57-8.1-9.67Z"/>
        <path class="cls-7" d="m191.39,43.45c-.22.06-.41.08-.63.11.16.23.31.46.44.66.06-.25.09-.48.19-.77Z"/>
        <path class="cls-7" d="m227.87,372.51c4.33-1.06,10.44-3.37,9.77-7.37-.86-5.05-6.76-7.22-11.85-8.79,4.48-3.94,6.11-8.93,2.88-14.56-3.53-6.02-8.78-8.1-15.38-7.5,4.18-4.91,7.81-10.42,3.51-16.18-2.59-3.46-6.3-4.06-10.05-3.34,2.59-2.91,4.12-6.37,1.47-9.22-2.96-3.17-8.65-2.11-12.76.2.86-4.45.77-9.31-3.84-11.85-3.07-1.65-4.97,1.54-6.1,4.54-1.91-3.88-4.8-8.71-9.09-7.64-3.59.85-5.1,5.39-6.26,9.36-.74-2.83-2.05-5.51-4.94-6.23-4-1-6.08,1.97-7.13,5.31-1.1-2.65-2.67-5.08-5.49-5.77-4.8-1.17-8.04,4.22-9.8,8.76-1.68-3.23-4.53-6.37-7.85-5.17-1.87.71-2.85,2.02-3.37,3.57-1.6-2.08-4.03-3.28-7.74-2.65-5.83,1.03-8.34,7.11-9.01,12.27-2.4-2.77-5.64-5.68-8.81-4.06-5.03,2.65-3.71,7.48-1.05,11.27-2.18.03-4.2,1.08-6.32,3.25-2.73,2.8-3.2,5.68-2.08,8.42-4.52-1.45-9.88-2-11.6,2.86-1.72,4.85,1.13,7.71,5.06,9.87-3.01.38-6.05,1.2-6.91,3.34-1.52,3.62,2.24,5.99,5.96,7.5-1.19.66-2.05,1.57-2.12,2.94-.03.89.13,1.6.35,2.26-4.55-.57-7.98,1.11-7.68,8.08.19,3.94,1.35,9.5,4.51,12.61-3.68,2.11-6.14,5.22-5.64,9.76.48,4.34,5.1,5.71,9.36,6.14-1.99,3.37-3.72,8.59-.86,11.16,1.63,1.46,3.87,1.88,5.89,1.43-1.16,5.08-.83,11.96,4.84,13.67,5.1,1.54,7.84-2.43,9.19-6.79.77,1.42,1.93,2.57,3.65,3.11,4.48,1.37,8.15.03,11.35-2.28-.96,3.82-1.41,8.22,1.75,10.19,4.78,3.02,8.84.4,11.69-3.11.14,6.39,1.32,12.9,8.69,15.52,6.57,2.28,10.19-2.34,12.05-7.36,1.54,4.02,4.33,7.7,9.49,6.44,3.4-.82,3.87-4.94,3.65-8.56.83.52,1.79.83,2.95.8,4.67-.08,6.66-.31,8.43-2.51,1.02,1.57,2.62,2.37,5.41,1.79,3.14-.68,4.3-2.82,4.84-5.22,3.14,4.4,7.81,10.1,13.32,7.19,3.14-1.6,2.05-5.82.55-9.24,3.9,1.48,9,2.37,11.54-.34,2.49-2.69,1.38-5.31-.64-7.79.64-.12,1.24-.31,1.88-.71,2.54-1.86,2.63-4.08,1.61-6.23,3.32.97,7.01,1.4,9.83,0,4.81-2.37,4.2-6.11,3.37-10.44-.67-3.34-2.6-6.45,1.66-8.27,1.1-.46,2.24-1.57,2.34-2.69.33-4.68-4.61-8.5-8.48-11.75Z"/>
        <path class="cls-7" d="m507.16,270.65c-3.06-4.68-11.32-5.68-17.4-6.48,3.35-3.48,4.19-8.04,1.82-12.52-1.88-3.46-6.85-2.46-10.5-1.29,1.32-5.65.61-9.51-6.13-10.3,1.6-2.91,1.8-6.42-1.18-8.82-1.99-1.6-4.72-.57-7.05.82.89-2.37,1.13-4.82-.64-7.25-2.66-3.77-5.1-4.65-9.33-4.74,3.24-5.79,3.56-12.62-1.51-18-4.09-4.45-8.32-5.14-12.59-3,.44-3.6-.86-7.59-4.58-9.08-4.56-1.79-7.45,1.46-9.42,4.88-.74-1.54-1.77-3.02-3.34-3.42-2.98-.71-4.23,1.83-5.44,4.25-.67-5.17-2.38-11.93-8.15-12.04-5.8-.15-8.94,4.05-10.79,8.59-.82-3.62-2.15-7.33-5.85-8.33-2.21-.63-3.87,1.45-4.99,3.91-.58-1.34-1.54-2.34-3.12-2.37-2.4-.06-4.09,1.26-5.44,2.94-1.03-5.25-4.75-11.04-10-11.29-4.17-.23-5.55,3.5-6.02,7.13-1.38-1.75-3.18-3.03-5.68-2.4-3.84.97-3.68,8.02-3.62,12.73-4.81-4.48-12.95-10.22-17.95-9.08-1.05-2.48-3.68-3.94-8.42-3.29-9.36,1.35-13.37,7.99-13.62,15.62-3.34-1.66-7.92-3-10.16.34-2.85,4.25-1.75,7.96.71,11.41-5.38-1.75-10.06-1.29-14.45,4.17-5.53,6.93-.67,13.75,3.15,20.15-5.94-.52-13.81-1.68-17.34,2.97-4.05,5.34,4.83,11.04,11.51,13.79-1.8,1.48-2.7,4.05-2.7,6.59-6.07-4.31-14.48-7.79-21.02-2.88-3.31,2.46-1.35,5.91,1.5,8.71-6.02-1.17-12.76-.91-15.41,4.17-2.66,5.19,5.57,13.35,11.37,17.72-3.9.45-8.36,1.56-9.31,4.71-1.1,3.48,2.74,5.82,6.08,6.94-.28,1.85.25,3.37,1.35,4.47-1.93,1.23-3.14,3.34-3.56,6.76-.49,3.94,1.85,7.25,5.16,9.68-4.67,1.54-9.39,4.11-10.89,8.28-2.21,6.02.45,11.02,4.36,15.98,1.83,2.25,5.13,6.53,8.9,5.59,2.15-.54,3.12-2.42,3.43-4.68,1.96,1.97,4.61,3.34,7.73,3.37.77,0,1.63-.14,2.49-.4.67,3.39,2.37,6.85,4.05,8.45,2.77,2.65,7.27,2.05,10.86.06-1.07,5.74,1.36,11.02,8.81,13.67,6.63,2.35,12.62-.74,16.33-5.36.42,3.71,2.12,7.14,6.48,8.71,3.04,1.08,7.18,2.17,10.77,1.97-2.79,3.91-4.72,8.34-1.66,12.1,3.9,4.8,11.05,3.28,15.35-.17.47,3.99,2.27,7.36,6.05,10.3,2.95,2.34,8.4,3.28,11.6.74,6.85-5.45,4.23-15.07.25-22.35,3.98,1.42,7.54.14,11.29-2.57-1.74,4.48-2.82,9.42.92,12.78,4.26,3.85,9.42.43,13.26-3.39-.7,3.34-.83,6.71,1.51,9.45,2.85,3.36,9.2,3.71,13.47,3.48,11.51-.66,11.51-7.22,7.79-13.53,2.84,1.31,5.89,2.08,8.17.71,4.7-2.94,3.84-8.93,2.4-13.67,4.42,1.2,6.69-.94,7.31-4.71,1.96,2.08,4.58,3.42,7.54,1.31,4.61-3.32,5.69-7.65,4.06-11.85,2.05.86,4.23,1.28,5.67-.03,1.14-1.05,1.69-2.14,1.85-3.23,3.25.45,6.07-2.8,5.97-7.68,6.18,1.49,12.16,2.6,18.07-.29,5.1-2.51,8.81-10.84,8.75-15.67-.05-2.62-.45-4.08-2.05-6.25-2.76-3.8-4.36-1.89-1-5.74,3.86-4.37-.09-7.68-2.95-11.02,1.38-1.11,1.1-2.54,0-4.06,3.25-.88,7.18-2.94,6.99-5.96-.06-.86-.33-1.65-.64-2.39,6.44,1.45,12.68-.2,17.59-7.05,2.21-3.06,5.61-8.1,3.18-11.79Z"/>
        <path class="cls-14" d="m99.07,75.36c-4.76,2.19-2.34,5.7-4.83,8.82-5.77-5.6-16.32-1.38-16.51,6.11-.22,7.3,4.84,2.16.86,9.42-3.71,6.82,1.16,1.97-5.13,5.56,8.92-18.18-30.21-17.52-15.02-1.89-5.89-1.23-13.28,2.31-13.25,8.19.08,6.48,6.22,7.31,11.13,9.68-5.13,2.02-5.86-.37-11.79.74-5.74,1.06-7.54,3.92-12.05,4.94-14.61,3.31,8.43,17.49,6.18,5.91,5.42,3.57,11.1-1.15,13.69,3.54-13.39-1.26-5.77,17.92,3.62,19.43-1.21,3-5.93,1.83-9,4.11-.33-1.77-2.12-3.29-2.43-6.16-.64-6.02-11.41-8.05-16.07-4.71-8.84,6.28,8.79,17.81,16.16,14.79-.42,6.48,3.93,4.42-2.32,8.45-1.98-15.33-36.26.31-16.27,9.13-13.29,7.82,5.32,21.69,15.71,11.73-4.72,11.73,18.2,4.94,10.93-6.22,4.73-.49,8.75,3.02,9.61,6.28-10.41-2-16.73,18.24-5.16,19.92,2.85.31,5.1-.6,6.73-2.74.28-4.22,2.79-6.19,7.49-5.9,2.82-2.34,3.37-10.73,4.42-14.24,4.5,3.25,14.2,10.36,20.03,5.63,7.34-5.97-4.08-15.36-4.7-20.5,4.77,3.34,11.3,5.71,17.35,3.8,4.94-1.57,9.91-8.34,3.18-11.48-5.55-2.56-13.62-1.17-14.75-5.91-1.27-5.65,8.43-5.28,5.45-11.75-3.53-7.71-15.13-2.02-3.75-8.94,4.3-2.6,7.79-10.36.28-12.02-9.22-2.05,3.89-5.76,6.26-6.85,9-4.17,4.94-12.44-4.08-14.27,4.55-2.88,17.46-.89,18.44-7.59,1.47-10.1-13.53-6.6-18.5-8.71,4.58-3.48,8.97-21.35-1.93-16.29-2.07.94,3.62-1.69,0,0Zm-55.23,114.35c1.11-3.63-1.13-3.32,2.81-2.71-.92.91-1.88,1.8-2.81,2.71.03-.15.83-1,0,0Zm41.29-69.52c-1.6.77-3.2,1.54-4.8,2.34.5-2.45,1.73-3.94,3.78-4.42.31.68.67,1.37,1.02,2.08-1.69.63-.53-.6,0,0Zm-19.06-6.39c.45-2.31-.06-4.68-1.44-6.62,1.29,1.14,2.95,1.51,5,1.14-1.16,1.83-2.37,3.65-3.56,5.48.03-.06.89-2,0,0Z"/>
        <g>
          <path class="cls-9" d="m105.58,138.97c-5.6-5.56-12.53-.43-15.96-2.57,2.15-5.28-10.79-18.07-16.34-15.13,7.09-5.14-1.25-20.52-8.32-12.44-5.42,6.16-.82,16.72,7.71,12.75-3.26,1.91-6.3,5.11-7.85,8.31-1.94-3.8-5.89-14.84-13.11-12.82-8.97,2.51-2.01,12.93,1.99,16.26-14.77-1.25-13.78,15.56,2.7,11.37-.64.59-25.07,10.84-11.93,13.15,9.97,1.77.77.54,9.01,4.91,7.56,4,12.46-4.79,13.62-9.9,13.23,10.7,26.34.68,12.07-9.33,8.31-1.49,8.78,2.77,17.34,3.17,3.87.17,14.36-2.48,9.06-7.73-3.57-3.57,1.8,1.77,0,0Zm-38.99.94c-1.1,1.4-2.45,1.74-4.14,1.03.74-.94,1-1.94.83-3.02.06.06,6.74,1.45,3.31,2-.97.14.28-.06,0,0Z"/>
          <path class="cls-9" d="m97.32,106.27c-2.37-.49-4.61-.23-6.79.77,5.41-4.28-3.78-23.85-12.15-15.92-3.34,3.2-1.99,8.85-.49,12.48,1.32,3.13,9.94,8.38,7.54,2.37.96,1.37,2.31,1.91,4.06,1.6-2.65,1.48-13.32,15.38-4.55,14.04,7.82,5.45,21.37-13.21,12.37-15.32-2.43-.54,1.5.37,0,0Z"/>
        </g>
        <path class="cls-14" d="m410.67,290.86c-5.46-10.56-18.42-5.77-22.43-10.36,5.89-6.99-6.79-31.34-16.57-29.22,13.23-4.71,8.78-31.05-5.96-21.92-11.27,6.99-9.83,24.54,4.88,22.17-5.8,1.51-11.99,5-15.93,9.17-.96-6.48-1.1-24.52-12.95-24.46-14.61.08-9.64,18.44-5.38,25.03-21.35-7.87-28.53,17.5-1.87,18.04-1.22.6-42.84,5.88-24.52,14.7,13.95,6.71.88,1.15,10.93,10.99,9.17,9.02,20.99-2.05,25.35-9.19,14.2,21.35,38.94,11.78,22.83-8.94,13.07,1.17,11.66,7.68,24.13,11.79,5.67,1.86,22.65,2.17,17.5-7.79-3.5-6.79,1.72,3.37,0,0Zm-58.55-14.55c-2.31,1.65-4.55,1.6-6.69-.15,1.6-1.11,2.54-2.48,2.82-4.13.03.06,9.26,4.88,3.87,4.28-1.51-.17.45.03,0,0Z"/>
        <path class="cls-14" d="m390.48,262.95c-5.47-10.56-18.42-5.74-22.43-10.36,5.89-6.97-6.79-31.31-16.56-29.23,13.2-4.71,8.75-31.04-6-21.91-11.24,6.99-9.83,24.57,4.91,22.17-5.83,1.54-12.01,5-15.96,9.17-.96-6.45-1.11-24.49-12.92-24.46-14.64.08-9.67,18.46-5.41,25.05-21.3-7.9-28.51,17.5-1.87,18.01-1.18.6-42.84,5.88-24.47,14.69,13.9,6.74.86,1.15,10.89,10.99,9.19,9.05,20.99-2.05,25.35-9.16,14.19,21.35,38.92,11.75,22.84-8.96,13.07,1.17,11.63,7.71,24.09,11.79,5.71,1.85,22.68,2.2,17.53-7.79-3.53-6.77,1.74,3.39,0,0Zm-58.57-14.56c-2.32,1.65-4.53,1.6-6.68-.12,1.58-1.14,2.51-2.51,2.82-4.17.03.09,9.23,4.89,3.86,4.29-1.5-.17.47.06,0,0Z"/>
        <path class="cls-14" d="m468.28,300.56c-2.37-.26-4.7-.52-7.12-.75,12.54-22.62-29.86-15.64-31.4,4.34-3.43-12.3-39.44-21.61-30.32-2.37-13.76-3.29-20.72,4.68-8.01,12.47,3.46,2.11,8.43-.54,8.43-4.14,7.56-.56,6.66.03,14.83,1.23-17.65,12.04-6.54,28.54,11.1,14.7,9.83,27.42,39.54,7.33,19.09-13.08,8.4-2.86,9.06-3.85,17.59-4.14-2.43,3.54-13.65,5.82-8.01,11.27,8.23,7.88,29.58-13.24,13.81-19.55-2.37-.97,3.25,1.29,0,0Z"/>
        <path class="cls-14" d="m349.35,288.8c-2.35-.22-4.72-.45-7.09-.71,12.5-22.63-29.89-15.61-31.4,4.34-3.46-12.3-39.49-21.61-30.35-2.37-13.78-3.28-20.71,4.71-8.01,12.47,3.47,2.14,8.43-.52,8.47-4.11,7.52-.57,6.66.03,14.8,1.2-17.65,12.04-6.51,28.54,11.11,14.7,9.85,27.46,39.55,7.34,19.06-13.04,8.4-2.88,9.08-3.88,17.6-4.17-2.44,3.57-13.65,5.85-7.98,11.27,8.2,7.9,29.57-13.24,13.78-19.58-2.38-.94,3.26,1.35,0,0Z"/>
        <path class="cls-14" d="m424.64,342.34c-2.09-.23-4.2-.46-6.29-.66,11.1-20.06-26.49-13.84-27.84,3.85-3.07-10.93-34.99-19.18-26.88-2.11-12.24-2.91-18.39,4.17-7.12,11.07,3.09,1.88,7.48-.48,7.48-3.68,6.72-.49,5.93.03,13.14,1.08-15.64,10.67-5.77,25.32,9.86,13.02,8.71,24.34,35.07,6.53,16.9-11.56,7.46-2.54,8.07-3.43,15.6-3.69-2.15,3.17-12.09,5.17-7.09,9.99,7.31,7.02,26.24-11.73,12.24-17.32-2.12-.86,2.88,1.14,0,0Z"/>
        <path class="cls-14" d="m386.86,312.23c-2.37-.23-4.74-.49-7.12-.71,12.51-22.66-29.86-15.64-31.4,4.34-3.46-12.3-39.44-21.61-30.35-2.37-13.76-3.28-20.69,4.71-8.01,12.47,3.46,2.14,8.43-.54,8.46-4.14,7.57-.57,6.66.03,14.8,1.23-17.65,12.01-6.54,28.51,11.1,14.7,9.86,27.42,39.57,7.33,19.09-13.07,8.4-2.86,9.06-3.88,17.59-4.14-2.43,3.57-13.65,5.82-7.98,11.27,8.2,7.88,29.58-13.24,13.81-19.57-2.4-.94,3.24,1.31,0,0Z"/>
        <path class="cls-14" d="m420.25,267.83c-14.86,2.28-6.91,32.96,6.6,29.36,11.29-3.02,9.01-31.76-6.6-29.36-13.36,2.08,15.71-2.43,0,0Z"/>
        <path class="cls-14" d="m477.58,266.49c11.3-8.28-21.37-6.94-24.58-5.94,4.36-4.65,2.88-10.39-4.33-10.36,3.98-6.36,1.19-20.54-10.44-15.24-9.75,4.48-.27,11.5-1.32,17.01-2.92-5.11-9.64-8.22-15.8-5.26-7.24,3.54,2.05,10.45.42,15.1-1.16-1.34-8.43-5.91-8.01-5.7,3.26-.12,4.8-13.5,3.56-16.13-7.34-15.24-24.06,2.48-10.16,13.95-3.21-.66-6.63-.71-8.56,2.25-6.35-3.2-26.02-5.82-26.6,5.08-.41,8.62,15.68,7.31,20.74,6.39,1.44-4.33,3.72-5.08,6.91-2.25,3.06,3.54,7.05,5.48,12.02,5.91-6.93.06-23.84,4.89-21.88,13.27,3.72,16.01,36.62-12.24,22.31-13.24,4.8.28,8.23-1.28,10.28-4.71,1.69.71,2.52,1.74,2.59,3.14-9.55-2.37-8.68,17.55-7.15,21.15,4.88,11.5,15.03-3.96,14.14-10.07,2.09,3.71,11.85,11.41,14.7,3.8,17.86,19.78,33.23-1.75,10.1-14.13,7.31,1.17,15.16.29,21.05-4.02,2.15-1.54-5.96,4.36,0,0Z"/>
        <path class="cls-14" d="m444.38,232.75c11.35-8.27-21.34-6.96-24.58-5.93,4.4-4.68,2.88-10.42-4.31-10.39,3.96-6.37,1.18-20.54-10.46-15.24-9.73,4.51-.28,11.53-1.32,17-2.92-5.1-9.64-8.24-15.79-5.25-7.21,3.54,2.04,10.45.38,15.1-1.08-1.34-8.42-5.91-7.98-5.68,3.28-.14,4.84-13.52,3.56-16.15-7.31-15.22-24.06,2.48-10.16,13.96-3.17-.63-6.63-.69-8.53,2.25-6.36-3.2-26.07-5.79-26.62,5.1-.42,8.59,15.69,7.28,20.73,6.37,1.41-4.34,3.75-5.08,6.96-2.26,3.04,3.51,7.01,5.51,11.98,5.91-6.95.06-23.83,4.88-21.88,13.27,3.71,16.01,36.67-12.21,22.31-13.27,4.81.34,8.23-1.23,10.28-4.68,1.69.71,2.54,1.74,2.6,3.17-9.56-2.4-8.69,17.52-7.15,21.15,4.86,11.44,15.02-4,14.16-10.1,2.05,3.71,11.87,11.41,14.7,3.79,17.82,19.78,33.2-1.74,10.1-14.1,7.27,1.17,15.13.26,21.02-4.03,2.15-1.56-5.96,4.34,0,0Z"/>
        <path class="cls-14" d="m177.2,366.2c-3.56-6.93-12.12-3.79-14.74-6.79,3.87-4.59-4.5-20.6-10.89-19.2,8.68-3.11,5.77-20.43-3.95-14.41-7.4,4.59-6.44,16.12,3.21,14.58-3.82.97-7.85,3.28-10.46,5.99-.64-4.25-.74-16.1-8.48-16.06-9.66.06-6.38,12.13-3.56,16.46-14.05-5.19-18.75,11.5-1.22,11.85-.8.4-28.17,3.85-16.12,9.65,9.15,4.42.58.77,7.18,7.25,6.02,5.91,13.81-1.37,16.66-6.04,9.31,14.04,25.57,7.73,14.99-5.88,8.59.77,7.67,5.08,15.86,7.73,3.75,1.26,14.91,1.46,11.51-5.11-2.3-4.45,1.14,2.23,0,0Zm-38.48-9.56c-1.51,1.08-3.01,1.05-4.39-.08,1.02-.75,1.63-1.66,1.87-2.74.03.03,6.05,3.22,2.53,2.83-.99-.11.31.03,0,0Z"/>
        <g>
          <path class="cls-14" d="m163.07,353.41c-3.32-6.42-11.21-3.51-13.64-6.31,3.59-4.22-4.14-19.03-10.1-17.77,8.04-2.86,5.32-18.9-3.62-13.33-6.87,4.26-5.99,14.96,2.95,13.5-3.53.94-7.27,3.06-9.67,5.56-.58-3.94-.67-14.9-7.89-14.87-8.9.03-5.86,11.22-3.28,15.24-12.98-4.79-17.37,10.65-1.11,10.96-.77.37-26.09,3.57-14.94,8.94,8.5,4.08.55.68,6.63,6.67,5.61,5.52,12.79-1.22,15.46-5.56,8.61,12.99,23.67,7.14,13.87-5.45,7.95.72,7.1,4.68,14.67,7.17,3.46,1.14,13.78,1.34,10.66-4.74-2.13-4.11,1.07,2.05,0,0Zm-35.63-8.84c-1.39,1-2.77.97-4.09-.09.96-.68,1.54-1.51,1.73-2.51.03.03,5.64,2.97,2.37,2.6-.92-.12.27.03,0,0Z"/>
          <path class="cls-14" d="m210.41,376.28c-1.44-.15-2.88-.29-4.33-.43,7.62-13.75-18.2-9.5-19.11,2.65-2.09-7.48-24-13.15-18.45-1.45-8.37-2-12.59,2.88-4.88,7.59,2.12,1.29,5.13-.31,5.13-2.51,4.62-.34,4.08.03,9.05.74-10.74,7.31-4.01,17.35,6.76,8.93,5.99,16.7,24.03,4.48,11.6-7.93,5.09-1.77,5.52-2.34,10.71-2.51-1.47,2.14-8.31,3.54-4.88,6.85,5,4.8,18.01-8.04,8.4-11.92-1.44-.54,1.97.8,0,0Z"/>
          <path class="cls-14" d="m138.05,369.17c-1.44-.15-2.88-.31-4.33-.46,7.6-13.75-18.17-9.5-19.09,2.62-2.12-7.45-24-13.12-18.47-1.42-8.39-2-12.62,2.86-4.89,7.62,2.12,1.29,5.16-.34,5.16-2.53,4.58-.34,4.06.03,9,.74-10.74,7.34-3.93,17.35,6.77,8.93,5.99,16.73,24.06,4.48,11.59-7.93,5.1-1.74,5.52-2.37,10.74-2.51-1.5,2.14-8.32,3.54-4.86,6.85,4.98,4.8,17.96-8.05,8.39-11.89-1.47-.57,1.96.77,0,0Z"/>
          <path class="cls-14" d="m183.87,401.7c-1.29-.11-2.56-.23-3.84-.37,6.76-12.22-16.12-8.45-16.91,2.34-1.9-6.65-21.32-11.67-16.41-1.29-7.4-1.77-11.15,2.54-4.3,6.74,1.87,1.15,4.55-.31,4.55-2.23,4.08-.31,3.59,0,7.98.66-9.52,6.51-3.53,15.39,6,7.94,5.32,14.81,21.34,3.97,10.28-7.08,4.55-1.52,4.89-2.06,9.51-2.23-1.32,1.91-7.37,3.17-4.33,6.08,4.45,4.25,15.96-7.13,7.46-10.56-1.32-.51,1.72.71,0,0Z"/>
          <path class="cls-14" d="m160.85,383.41c-1.44-.15-2.88-.31-4.33-.43,7.63-13.78-18.2-9.53-19.09,2.62-2.12-7.48-24-13.15-18.45-1.45-8.4-2-12.63,2.86-4.91,7.62,2.12,1.29,5.16-.34,5.16-2.53,4.59-.34,4.04.03,9.01.77-10.74,7.31-3.98,17.35,6.76,8.93,5.99,16.67,24.06,4.45,11.6-7.96,5.13-1.74,5.5-2.34,10.71-2.51-1.47,2.17-8.31,3.54-4.88,6.85,5.03,4.82,18.04-8.05,8.42-11.89-1.47-.6,1.99.79,0,0Z"/>
          <path class="cls-14" d="m216.07,355.58c6.87-5.05-13.01-4.25-14.95-3.62,2.68-2.86,1.75-6.34-2.63-6.31,2.4-3.88.71-12.53-6.38-9.25-5.93,2.71-.16,6.99-.8,10.33-1.75-3.11-5.86-5.02-9.58-3.19-4.42,2.14,1.22,6.33.22,9.19-.66-.83-5.09-3.62-4.86-3.46,1.97-.08,2.95-8.25,2.18-9.84-4.45-9.25-14.64,1.52-6.19,8.5-1.94-.4-4.03-.43-5.19,1.37-3.87-1.94-15.86-3.54-16.18,3.11-.3,5.22,9.55,4.43,12.59,3.85.86-2.62,2.27-3.09,4.23-1.34,1.87,2.14,4.26,3.31,7.31,3.57-4.23.03-14.52,3-13.29,8.08,2.24,9.76,22.26-7.42,13.54-8.05,2.92.17,5-.77,6.25-2.88,1.02.45,1.54,1.08,1.57,1.94-5.8-1.46-5.28,10.65-4.33,12.87,2.95,6.96,9.14-2.43,8.59-6.16,1.26,2.25,7.21,6.96,8.94,2.31,10.86,12.04,20.22-1.06,6.16-8.57,4.42.71,9.19.17,12.81-2.45,1.29-.97-3.62,2.62,0,0Z"/>
          <path class="cls-14" d="m195.86,335.03c6.88-5.02-13.01-4.22-14.97-3.62,2.7-2.83,1.79-6.34-2.6-6.28,2.41-3.88.7-12.53-6.36-9.28-5.94,2.71-.17,6.97-.8,10.33-1.8-3.09-5.88-5.03-9.59-3.2-4.42,2.14,1.22,6.34.23,9.19-.67-.82-5.13-3.6-4.88-3.48,1.99-.06,2.92-8.19,2.18-9.79-4.45-9.3-14.64,1.49-6.19,8.48-1.94-.4-4.03-.43-5.22,1.37-3.84-1.94-15.86-3.54-16.18,3.11-.25,5.23,9.55,4.43,12.62,3.88.88-2.65,2.24-3.11,4.23-1.4,1.83,2.14,4.26,3.37,7.31,3.62-4.23.03-14.52,2.98-13.33,8.08,2.27,9.73,22.28-7.45,13.56-8.08,2.92.2,4.99-.74,6.24-2.85,1.07.4,1.57,1.06,1.6,1.91-5.8-1.42-5.28,10.67-4.36,12.87,2.98,6.97,9.14-2.42,8.62-6.16,1.25,2.28,7.21,6.97,8.95,2.34,10.85,12.04,20.21-1.08,6.15-8.59,4.42.71,9.23.14,12.79-2.46,1.3-.94-3.62,2.62,0,0Z"/>
        </g>
        <path class="cls-9" d="m400.33,269.08c-4.14-7.96-13.87-4.34-16.9-7.83,4.44-5.22-5.13-23.57-12.46-21.97,9.94-3.57,6.57-23.41-4.51-16.52-8.5,5.28-7.4,18.49,3.68,16.72-4.39,1.15-9.06,3.77-12.01,6.88-.74-4.88-.83-18.46-9.75-18.4-10.99.06-7.24,13.9-4.06,18.86-16.05-5.97-21.45,13.19-1.38,13.56-.94.43-32.28,4.42-18.47,11.04,10.52,5.07.67.89,8.22,8.27,6.91,6.82,15.82-1.51,19.09-6.9,10.71,16.1,29.32,8.87,17.18-6.74,9.83.89,8.78,5.82,18.2,8.88,4.25,1.4,17.04,1.65,13.17-5.85-2.66-5.11,1.3,2.53,0,0Zm-44.1-10.96c-1.76,1.23-3.43,1.19-5.03-.12,1.19-.82,1.9-1.88,2.12-3.11.03.06,6.96,3.68,2.92,3.23-1.16-.15.36.03,0,0Z"/>
        <path class="cls-9" d="m370.96,263.03c-3.87,7.48,8.92,7.25,13.2,5.85,9.39-3.08,8.34-8.02,18.17-8.87-12.13,15.61,6.47,22.8,17.18,6.73,3.31,5.37,12.18,13.7,19.06,6.91,7.57-7.42-2.24-3.2,8.28-8.28,13.78-6.65-17.56-10.62-18.5-11.04,20.1-.4,14.67-19.52-1.41-13.58,3.25-4.96,6.99-18.81-4.03-18.83-8.92-.06-9.02,13.5-9.75,18.38-2.95-3.11-7.62-5.74-11.98-6.88,11.05,1.77,12.15-11.44,3.65-16.69-11.08-6.88-14.45,12.96-4.48,16.5-7.37-1.57-16.93,16.75-12.49,22-3.03,3.45-12.76-.15-16.9,7.82-1.27,2.51,2.66-5.11,0,0Zm44.1-10.99c-4.05.45,2.88-3.17,2.95-3.23.19,1.26.92,2.28,2.12,3.14-1.63,1.31-3.31,1.31-5.06.08-.36.06,1.16-.11,0,0Z"/>
        <path class="cls-9" d="m345.94,325.53c-2.76,5.36,6.32,5.17,9.39,4.17,6.69-2.2,5.89-5.68,12.92-6.31-8.62,11.11,4.64,16.24,12.23,4.8,2.35,3.83,8.68,9.76,13.59,4.91,5.38-5.25-1.6-2.28,5.86-5.88,9.85-4.74-12.49-7.56-13.14-7.87,14.3-.29,10.41-13.9-.99-9.65,2.27-3.54,4.94-13.38-2.88-13.44-6.35-.04-6.41,9.64-6.96,13.1-2.08-2.23-5.41-4.08-8.56-4.91,7.89,1.29,8.65-8.13,2.63-11.87-7.92-4.91-10.28,9.22-3.2,11.75-5.27-1.14-12.02,11.9-8.89,15.65-2.18,2.48-9.09-.09-12.01,5.56-.92,1.79,1.9-3.65,0,0Zm31.37-7.79c-2.85.31,2.09-2.28,2.09-2.31.16.88.67,1.63,1.51,2.23-1.13.91-2.34.97-3.59.08-.22,0,.8-.11,0,0Z"/>
        <path class="cls-9" d="m384.59,310.66c-2.76,5.31,6.35,5.17,9.42,4.17,6.66-2.2,5.89-5.71,12.92-6.31-8.62,11.11,4.64,16.24,12.24,4.77,2.34,3.83,8.68,9.76,13.58,4.94,5.39-5.28-1.6-2.31,5.86-5.91,9.84-4.71-12.49-7.53-13.14-7.87,14.3-.29,10.42-13.9-.99-9.65,2.27-3.54,4.94-13.38-2.92-13.44-6.35-.04-6.41,9.64-6.93,13.12-2.12-2.23-5.44-4.11-8.51-4.91,7.87,1.26,8.65-8.13,2.59-11.9-7.89-4.88-10.25,9.22-3.2,11.75-5.22-1.11-12.06,11.93-8.87,15.67-2.15,2.45-9.11-.12-12.05,5.56-.89,1.77,1.9-3.65,0,0Zm31.43-7.82c-2.92.31,2.02-2.25,2.05-2.28.19.85.67,1.6,1.5,2.2-1.14.94-2.34.94-3.56.08-.28.03.8-.11,0,0Z"/>
        <g>
          <path class="cls-9" d="m163.42,361.69c-2.27-4.42-7.73-2.43-9.39-4.37,2.46-2.91-2.85-13.12-6.96-12.25,5.55-1.97,3.7-13.01-2.49-9.19-4.73,2.91-4.14,10.3,2.05,9.31-2.43.63-5.06,2.11-6.69,3.85-.39-2.74-.48-10.3-5.42-10.27-6.11.03-4.06,7.73-2.27,10.5-8.94-3.31-11.94,7.34-.77,7.57-.52.25-17.98,2.45-10.28,6.16,5.83,2.82.38.48,4.58,4.62,3.84,3.77,8.81-.89,10.64-3.85,5.93,8.94,16.3,4.91,9.55-3.77,5.52.49,4.88,3.22,10.13,4.97,2.4.77,9.52.91,7.34-3.28-1.47-2.86.77,1.4,0,0Zm-24.55-6.11c-.99.68-1.88.66-2.79-.06.64-.48,1.03-1.05,1.16-1.74.03.03,3.87,2.06,1.63,1.8-.64-.09.19.03,0,0Z"/>
          <path class="cls-9" d="m147.12,358.29c-2.18,4.2,4.92,4.06,7.34,3.28,5.22-1.71,4.64-4.45,10.13-4.94-6.77,8.68,3.57,12.7,9.58,3.74,1.79,3,6.76,7.64,10.6,3.85,4.2-4.13-1.24-1.77,4.59-4.59,7.68-3.71-9.78-5.91-10.3-6.19,11.19-.23,8.18-10.88-.77-7.56,1.8-2.74,3.89-10.45-2.27-10.48-4.94-.03-5,7.54-5.41,10.22-1.63-1.71-4.26-3.17-6.69-3.83,6.18,1,6.79-6.37,2.07-9.27-6.21-3.85-8.07,7.19-2.52,9.19-4.11-.89-9.42,9.33-6.96,12.24-1.66,1.94-7.1-.09-9.37,4.33-.78,1.42,1.47-2.83,0,0Zm24.53-6.08c-2.24.23,1.6-1.77,1.6-1.79.17.65.55,1.26,1.22,1.74-.92.71-1.82.74-2.82.06-.19,0,.64-.08,0,0Z"/>
          <path class="cls-9" d="m133.14,393.14c-1.54,2.97,3.56,2.88,5.24,2.34,3.75-1.23,3.29-3.2,7.19-3.54-4.8,6.19,2.57,9.05,6.8,2.65,1.32,2.14,4.86,5.45,7.59,2.77,3.01-2.97-.89-1.28,3.28-3.28,5.47-2.66-6.96-4.23-7.31-4.4,7.95-.14,5.8-7.76-.58-5.4,1.25-1.97,2.76-7.45-1.6-7.48-3.53,0-3.59,5.37-3.89,7.31-1.18-1.26-3.01-2.28-4.73-2.74,4.39.72,4.8-4.54,1.44-6.62-4.39-2.74-5.71,5.17-1.77,6.56-2.95-.66-6.73,6.65-4.95,8.71-1.19,1.4-5.06-.06-6.71,3.11-.5,1,1.07-2.03,0,0Zm17.49-4.37c-1.6.2,1.16-1.26,1.16-1.26.09.49.35.89.83,1.23-.64.52-1.32.54-1.99.03-.16.03.46-.06,0,0Z"/>
          <path class="cls-9" d="m154.68,384.83c-1.54,2.97,3.53,2.88,5.25,2.34,3.72-1.23,3.28-3.2,7.18-3.54-4.81,6.19,2.6,9.08,6.82,2.69,1.32,2.11,4.84,5.42,7.57,2.74,3.01-2.94-.89-1.29,3.26-3.28,5.49-2.62-6.94-4.2-7.31-4.4,7.95-.14,5.8-7.73-.58-5.36,1.29-1.97,2.79-7.45-1.6-7.48-3.53-.03-3.56,5.33-3.84,7.27-1.19-1.23-3.01-2.25-4.78-2.71,4.39.68,4.81-4.54,1.47-6.63-4.42-2.74-5.72,5.14-1.79,6.53-2.92-.62-6.69,6.65-4.97,8.74-1.18,1.37-5.06-.06-6.69,3.08-.52,1,1.05-2.02,0,0Zm17.53-4.33c-1.63.17,1.13-1.26,1.13-1.29.09.48.38.91.86,1.26-.64.48-1.32.51-1.99.03-.16,0,.42-.06,0,0Z"/>
        </g>
        <g>
          <path class="cls-14" d="m272.82,73.33c-4.12-8.02-13.97-4.36-17.01-7.85,4.45-5.31-5.16-23.8-12.59-22.21,10.02-3.59,6.63-23.59-4.53-16.66-8.58,5.31-7.49,18.67,3.7,16.84-4.44,1.17-9.14,3.83-12.12,6.96-.74-4.91-.83-18.6-9.81-18.55-11.11.06-7.34,13.98-4.09,19.01-16.23-6.02-21.66,13.27-1.41,13.67-.92.49-32.56,4.48-18.65,11.19,10.61,5.1.7.85,8.31,8.33,6.98,6.86,15.96-1.56,19.25-6.96,10.8,16.21,29.58,8.93,17.34-6.79,9.97.89,8.84,5.82,18.33,8.93,4.33,1.43,17.21,1.69,13.29-5.91-2.65-5.17,1.32,2.57,0,0Zm-44.47-11.07c-1.76,1.28-3.47,1.23-5.06-.06,1.19-.89,1.9-1.94,2.12-3.17.03.06,7.05,3.71,2.95,3.23-1.11-.08.36.06,0,0Z"/>
          <path class="cls-14" d="m331.91,101.87c-1.8-.17-3.59-.34-5.39-.54,9.51-17.18-22.68-11.87-23.84,3.28-2.62-9.33-29.99-16.41-23.03-1.8-10.49-2.48-15.74,3.57-6.1,9.51,2.63,1.59,6.41-.43,6.41-3.17,5.74-.4,5.06.03,11.26.94-13.4,9.13-4.97,21.66,8.42,11.16,7.51,20.84,30.07,5.56,14.52-9.9,6.35-2.2,6.87-2.97,13.34-3.17-1.83,2.71-10.36,4.42-6.07,8.56,6.25,6,22.46-10.04,10.49-14.87-1.83-.71,2.46,1,0,0Z"/>
          <path class="cls-14" d="m241.6,93c-1.79-.2-3.62-.4-5.41-.57,9.52-17.18-22.68-11.87-23.84,3.28-2.62-9.3-29.96-16.38-23.03-1.77-10.49-2.51-15.77,3.57-6.1,9.47,2.63,1.6,6.41-.4,6.41-3.14,5.74-.43,5.06.03,11.24.94-13.39,9.1-4.92,21.63,8.47,11.13,7.46,20.83,30.02,5.59,14.48-9.91,6.38-2.17,6.85-2.94,13.36-3.17-1.85,2.72-10.35,4.43-6.05,8.57,6.22,5.99,22.43-10.05,10.47-14.84-1.82-.74,2.48.97,0,0Z"/>
          <path class="cls-14" d="m291.69,128.22c-1.57-.15-3.17-.31-4.76-.49,8.42-15.24-20.13-10.53-21.15,2.94-2.31-8.3-26.57-14.55-20.41-1.6-9.3-2.23-13.98,3.14-5.42,8.39,2.34,1.43,5.71-.37,5.71-2.76,5.1-.4,4.48,0,10,.79-11.93,8.1-4.42,19.23,7.46,9.91,6.6,18.46,26.6,4.94,12.85-8.79,5.63-1.91,6.08-2.6,11.82-2.8-1.63,2.39-9.17,3.94-5.38,7.59,5.53,5.34,19.92-8.9,9.28-13.18-1.6-.66,2.18.88,0,0Z"/>
          <path class="cls-14" d="m270.07,110.78c-1.8-.2-3.59-.37-5.39-.57,9.52-17.18-22.68-11.87-23.84,3.31-2.62-9.33-29.99-16.4-23.03-1.79-10.49-2.51-15.74,3.57-6.1,9.44,2.63,1.63,6.41-.4,6.41-3.11,5.74-.43,5.06.03,11.26.91-13.4,9.16-4.94,21.69,8.42,11.16,7.51,20.86,30.04,5.59,14.52-9.93,6.35-2.17,6.87-2.91,13.34-3.11-1.83,2.69-10.36,4.42-6.07,8.54,6.22,6.02,22.43-10.04,10.49-14.84-1.83-.71,2.49.97,0,0Z"/>
          <path class="cls-14" d="m338.98,76.02c8.59-6.28-16.24-5.28-18.67-4.48,3.32-3.57,2.21-7.94-3.28-7.91,3.01-4.85.86-15.61-7.95-11.55-7.4,3.39-.22,8.73-1.02,12.89-2.18-3.88-7.31-6.25-11.96-3.96-5.5,2.68,1.55,7.91.3,11.44-.86-1.03-6.41-4.47-6.1-4.31,2.51-.08,3.68-10.24,2.7-12.27-5.53-11.55-18.26,1.88-7.68,10.59-2.41-.45-5.03-.52-6.51,1.71-4.81-2.39-19.78-4.39-20.19,3.88-.33,6.54,11.88,5.54,15.72,4.85,1.1-3.28,2.85-3.85,5.3-1.71,2.27,2.68,5.35,4.17,9.09,4.48-5.25.03-18.11,3.71-16.63,10.1,2.85,12.16,27.86-9.31,16.96-10.07,3.65.23,6.24-.97,7.77-3.57,1.29.51,1.96,1.34,1.99,2.39-7.24-1.79-6.57,13.3-5.41,16.04,3.68,8.73,11.4-2.99,10.72-7.65,1.58,2.83,9.01,8.68,11.16,2.88,13.55,15.04,25.26-1.34,7.68-10.7,5.52.86,11.51.2,15.99-3.08,1.61-1.17-4.51,3.31,0,0Z"/>
          <path class="cls-14" d="m313.75,50.39c8.61-6.28-16.19-5.28-18.65-4.51,3.34-3.53,2.21-7.9-3.28-7.87,3.02-4.82.88-15.61-7.93-11.56-7.41,3.4-.2,8.73-1,12.9-2.24-3.88-7.34-6.25-11.98-3.97-5.52,2.65,1.54,7.9.28,11.44-.86-1.03-6.41-4.47-6.08-4.33,2.49-.08,3.68-10.25,2.73-12.25-5.55-11.56-18.28,1.89-7.73,10.59-2.4-.49-5.06-.52-6.47,1.74-4.84-2.45-19.8-4.42-20.22,3.85-.31,6.53,11.93,5.54,15.74,4.85,1.08-3.28,2.85-3.88,5.28-1.71,2.3,2.68,5.35,4.17,9.14,4.45-5.3.06-18.14,3.73-16.63,10.1,2.82,12.18,27.81-9.28,16.91-10.07,3.65.25,6.25-.94,7.82-3.57,1.29.54,1.94,1.34,1.94,2.39-7.23-1.8-6.57,13.33-5.41,16.07,3.68,8.73,11.41-3.03,10.77-7.65,1.54,2.8,9,8.68,11.15,2.86,13.56,15.04,25.22-1.31,7.66-10.7,5.53.91,11.51.2,15.96-3.06,1.66-1.17-4.53,3.32,0,0Z"/>
        </g>
        <path class="cls-14" d="m169.26,134.89c-3.59-6.91-12.09-3.74-14.7-6.79,3.84-4.57-4.48-20.49-10.86-19.12,8.65-3.11,5.74-20.35-3.92-14.38-7.37,4.59-6.46,16.1,3.21,14.53-3.84,1-7.89,3.28-10.49,6.02-.6-4.22-.71-16.06-8.45-16.01-9.58.03-6.32,12.07-3.53,16.38-13.97-5.16-18.69,11.48-1.22,11.85-.8.37-28.06,3.83-16.08,9.59,9.14,4.42.61.74,7.18,7.22,6.02,5.91,13.75-1.34,16.6-6.02,9.3,14.02,25.51,7.71,14.95-5.85,8.59.77,7.63,5.03,15.83,7.71,3.71,1.23,14.85,1.42,11.47-5.11-2.34-4.42,1.13,2.23,0,0Zm-38.39-9.53c-1.51,1.08-2.98,1.05-4.39-.06,1.03-.77,1.66-1.65,1.87-2.74.03.03,6.05,3.2,2.52,2.8-.99-.11.33.03,0,0Z"/>
        <path class="cls-14" d="m112.45,214.35c-2.27-4.45-7.79-2.43-9.48-4.4,2.49-2.94-2.88-13.27-7.02-12.36,5.58-2.02,3.68-13.19-2.56-9.31-4.78,2.97-4.17,10.39,2.09,9.39-2.48.66-5.1,2.14-6.77,3.88-.41-2.74-.47-10.39-5.47-10.36-6.22.03-4.11,7.82-2.3,10.62-9.05-3.36-12.09,7.42-.78,7.65-.5.25-18.2,2.48-10.38,6.22,5.89,2.86.36.48,4.62,4.65,3.9,3.85,8.9-.86,10.76-3.88,6.03,9.08,16.51,5,9.69-3.76,5.53.48,4.92,3.25,10.22,4.96,2.4.8,9.61.94,7.4-3.31-1.47-2.86.77,1.42,0,0Zm-24.8-6.16c-1,.71-1.96.68-2.85-.06.67-.48,1.05-1.05,1.17-1.74.05,0,3.95,2.05,1.68,1.8-.67-.06.19.03,0,0Z"/>
        <g>
          <path class="cls-9" d="m73.93,170.6c-3.37,4.73,2.24,8.16,1.19,10.81-4.72-.29-12.41,10.73-8.86,13.7-5.66-3.51-16.46,5.08-8.39,7.96,6.15,2.2,13.75-2.97,8.78-7.65,2.21,1.71,5.44,3.03,8.36,3.34-2.65,2.06-10.82,6.88-7.68,11.13,3.9,5.25,10.96-1.4,12.81-4.68,2.05,9.79,15.49,5.65,8.69-4.1.58.29,14.01,13.9,13.18,4.96-.64-6.82.28-.63,2.1-6.85,1.68-5.71-6.51-7.02-10.93-6.71,5.97-10.79-4.89-17.15-10.08-5.88-2.93-5.02.41-6.22-1.03-11.81-.64-2.54-5-8.73-8.14-4.22-2.18,3.05,1.02-1.54,0,0Zm8.84,24.94c1.38.4,1.93,1.23,1.72,2.43-.92-.26-1.82-.23-2.62.11,0-.03-.22-4.62.89-2.54.33.6-.09-.17,0,0Z"/>
          <path class="cls-9" d="m49.07,182.72c.06,1.65.74,3.05,2.01,4.22-4.58-2.6-18.61,7.39-10.41,11.13,3.31,1.49,7.6-.54,10.22-2.25,2.27-1.51,4.78-8.16.36-5.36.93-.89,1.08-1.86.47-2.94,1.74,1.4,15.25,5.39,12.34,0,2.82-6.16-15.19-11.04-14.99-4.8.03,1.68-.06-1.06,0,0Z"/>
        </g>
        <path class="cls-18" d="m34.8,269.57c-1.96,3.71,4.39,3.59,6.51,2.91,4.67-1.54,4.14-3.97,9-4.4-5.99,7.73,3.21,11.3,8.5,3.34,1.63,2.65,6.05,6.79,9.45,3.42,3.75-3.68-1.11-1.6,4.11-4.1,6.82-3.28-8.69-5.26-9.17-5.48,9.97-.2,7.27-9.67-.67-6.74,1.57-2.46,3.43-9.28-2.02-9.31-4.42-.03-4.45,6.71-4.8,9.1-1.47-1.54-3.81-2.82-5.96-3.42,5.47.91,6.02-5.65,1.82-8.25-5.5-3.39-7.15,6.42-2.21,8.17-3.65-.8-8.39,8.3-6.18,10.9-1.5,1.71-6.35-.08-8.37,3.85-.67,1.26,1.29-2.51,0,0Zm21.82-5.42c-1.99.23,1.44-1.56,1.44-1.6.09.63.46,1.12,1.07,1.54-.81.66-1.65.66-2.51.06-.19,0,.55-.06,0,0Z"/>
        <path class="cls-18" d="m256.09,384.75c-1.88,3.71,4.42,3.6,6.54,2.91,4.69-1.54,4.14-3.96,9.01-4.4-5.99,7.71,3.2,11.27,8.48,3.31,1.65,2.66,6.04,6.79,9.45,3.43,3.76-3.68-1.11-1.57,4.08-4.11,6.85-3.28-8.65-5.25-9.14-5.45,9.94-.2,7.27-9.67-.66-6.73,1.57-2.46,3.42-9.31-2.02-9.33-4.42-.03-4.45,6.7-4.84,9.1-1.44-1.54-3.78-2.83-5.93-3.4,5.47.89,6.02-5.68,1.82-8.27-5.47-3.4-7.16,6.42-2.24,8.19-3.62-.8-8.36,8.28-6.18,10.88-1.47,1.74-6.32-.06-8.37,3.88-.64,1.22,1.32-2.54,0,0Zm21.85-5.45c-2.01.23,1.41-1.57,1.44-1.6.11.63.46,1.14,1.04,1.57-.77.66-1.6.66-2.48.03-.19.03.55-.06,0,0Z"/>
        <path class="cls-18" d="m250.59,396.08c-1.1,2.08,2.43,2,3.62,1.63,2.59-.86,2.27-2.2,5-2.46-3.34,4.31,1.79,6.28,4.73,1.86.86,1.49,3.34,3.76,5.22,1.91,2.09-2.06-.64-.89,2.24-2.28,3.83-1.8-4.8-2.91-5.06-3.06,5.52-.08,4.05-5.33-.34-3.71.86-1.34,1.9-5.17-1.16-5.19-2.43,0-2.46,3.73-2.65,5.08-.83-.88-2.09-1.59-3.31-1.88,3.04.45,3.34-3.17,1-4.63-3.06-1.88-3.95,3.6-1.22,4.56-2.05-.45-4.64,4.6-3.43,6.02-.83.97-3.5-.03-4.64,2.14-.36.71.74-1.37,0,0Zm12.1-3c-1.11.12.82-.88.82-.88.09.34.25.63.6.88-.44.35-.92.35-1.41,0-.09,0,.33-.03,0,0Z"/>
        <g>
          <path class="cls-15" d="m176.62,110.52c-.16.06-.31.11-.49.17.17.06.3.11.45.14,0-.08,0-.2.03-.31Z"/>
          <path class="cls-15" d="m190.25,120.2c-.7-.03-1.38-.08-2.09-.17.92,3.57-3.43,6.57-6.93,8.39,1.44.89,2.99,1.94,3.98,3.17.41-2.8,2.67-4.68,5.64-6.11-1.35-1.45-1.44-3.57-.61-5.28Z"/>
          <path class="cls-7" d="m175.34,121.11c-.03.14-.03.22-.03.22,0,0,0-.08.03-.22Z"/>
          <path class="cls-3" d="m55.57,72.73c6.05,15.55,5.28-14.15,16.69-.68,5.28-7.42,16.62-6.74,19.7-4.71,7.56-6.08,23.48.68,18.91,12.15,5.31-3.36,11.37-1.37,12.13,3.37,4.56-12.16,15.16-4.74,15.16,4.05,8.34-9.45,22.71-.68,20.44,10.79,19.14,4.43,17.09,21.24,16.73,23.41.27-1.49,2.02-10.02,7.57-11.25-13.65-10.81-13.65-18.21-3.04-21.58-8.34-11.5,2.27-8.79,6.05-9.47-10.61-8.1-5.32-16.87,5.28-16.87-4.52-9.44,3.78-17.55,14.42-17.55-2.57-3.2-5.8-8.59-7.31-14.76-4.11,3.85-5.99,9.28-7.12,14.58-2.88-4.36-7.27-9.5-12.95-7.76-6.33,1.94-8.36,5.88-8.29,10.85-3.59-2.25-7.82-3.25-11.38-.03-4.03,3.6-.19,8.45,3.59,11.73-1.6.06-3.26.17-4.8.48-.33-3.56-1.96-7.25-4.78-9.07-3.37-2.16-5.67.17-7.15,3.34-.8-2.26-2.18-4.11-4.61-4.51-4.14-.66-7.6,1.14-9.36,3.94-1.79-2.42-4.78-3.88-8.87-2.71-5.55,1.57-7.6,5.62-8.59,10.1-1.44-3.11-3.4-5.68-7.12-6.59-.28-.54-.86-.94-1.69-.77-3.01.68-6.57,1.97-8.78,3.96-1.66,1.46-2.02,3.32-2.27,5.23-2.27-3.23-5.3-6.8-9.3-6.54-3.84.23-5.83,2.69-7.21,5.51-1.87-3.17-4.42-6.02-8.87-5.33-4.62.71-5.1,5.56-4.78,9.84-4.3-4.28-10.13-6.96-16.57-1.97-.47.37-.93.74-1.33,1.12,3.97.63,7.56,2.74,9.49,7.7Zm121.05,37.79c-.03.11-.03.23-.03.31-.16-.03-.28-.08-.45-.14.17-.06.33-.12.49-.17Z"/>
        </g>
        <path class="cls-3" d="m173.46,154.53c2.56-3.11,5.53-6.08,7.59-9.45.27-.4.61-1.31.83-1.83-.13-.03-.35-.17-.5-.31-.71-.66-1.29-1.31-1.77-2-2.73-.14-5.38.14-8.14,1.57-7.37,3.85-8.75,1.82-15.86,2.45-3.78.34-5.86,1.89-7.31,4.94v.03c-.25-.29-.58-.6-.99-.97-3.65-3.51-11.63-2.03-12.67,2.97-.16.79-.31,1.63-.47,2.42-.61,3.74-.94,3.74-1.03,0-2.04-2.45-4.18-4.08-7.04-5.76-5.16-3.06-10.99,1.05-11.41,5.82-.64,7.04.58,3.39-6.85,6.3-2.29.89-3.92,3.71-3.76,5.85.17,2.65.27,4.8,2.35,6.9,1.98,2,6.3,9.36,5.28,8.57-7.43-5.56-18.2,3.91-10.74,9.53,7.56,5.68,18.11,6,24.13-1.77,2.6-3.4,2.31-10.19.97-13.82-.33-.85-1.32-2.42-2.51-4.08.74-.4,1.41-.8,1.9-1.26.89-.77,1.54-1.65,2.05-2.51,2.49,1.86,5.35,2.97,9.64,2.23,4.45-.77,7.15-2.91,8.9-5.74,5.28,1.63,10-.37,13.94-6.02,2.7.26,5.77.66,8.1.63,1.35-.03,2.54-.31,3.68-.74.17-1.42.67-2.79,1.68-3.96Z"/>
        <path class="cls-6" d="m275.79,215.23c-1.79-6.07-6.14-9.33-12.29-11.27,3.1-2.79,7.93-7.62,5.41-10.53-3.23-3.74-6.47-4.25-10.74-4.11,1.8-1.74,2.85-3.76,1.93-6.45-.96-2.74-5.89-4.1-10.25-4.85,2.37-1.25,4.2-3.08,4.52-5.82.48-3.59-3.37-5.7-6.85-6.07,1.18-3.71,1.11-8.68-3.76-9.93-7.56-1.91-12.53,3.09-16.21,8.34-.89-4.31-3.37-8.31-8.01-10.28-3.07-1.31-5.61,1.26-7.43,3.68-2.02-5.25-5.77-9.33-12.52-10.19-6.1-.77-9.97,3.05-11.51,7.65-7.21-7.34-24.61-7.2-25.54.17-2.12-.89-4.72-.89-7.95-.11-4.48,1.08-6.29,4.31-6.57,7.79-1.96-1.91-4.27-3.03-7.4-1.4-2.57,1.35-3.06,3.83-2.73,6.45-2.79-1.88-6.29-2.88-9.75-1.79-5.13,1.6-6.76,4.99-5.16,8.53-6.76-.85-12.13,1.46-13.61,8.59-1.54,7.27.99,14.07,7.46,17.26-11.69,4.06-9.67,19.69,2.43,23.97-4,2.23-6.94,5.08-5.8,9.88,1.13,4.56,6.54,4.73,10.99,4.1-3.72,6.42-6.24,13.07-2.56,20.09,2.85,5.54,8.5,3.94,12.43.97.77,8.73,2.66,18.9,13.62,21.01,3.29.63,6.15-1.63,7.81-3.8,1.29-1.63,1.35-3.79.97-6.02.96.2,2.05.29,3.42.26,4.56-.15,7.79-2.23,9.75-5.28,1.22,3.85,3.32,7.94,7.65,8.68,5.86,1.03,10.71-.63,14.14-4.2.06,7.34,1.96,16.29,11.6,15.18,6.6-.77,5.44-7.82,3.56-12.62,4.36,2.34,11.21,5.19,14.28,2.46,3.31-2.97,1.9-7.94.27-11.9,4.74,2.23,10.44,4.45,14.74,1.65,2.92-1.88,1.76-5.91.28-9.25,3.83,2.14,8.56,4.03,11.54,1.4,4.11-3.66,2.88-10.07,1.57-14.87,5.61.54,8.4-1.54,9.17-6.25,4.51,2.31,9.39,2.74,12.82-2.06,3.23-4.54,2.21-8.08-1.32-11.27,3.75-1.03,6.79-3.57,5.6-7.79Z"/>
        <g class="cls-1">
          <path class="cls-6" d="m275.79,215.23c-1.79-6.07-6.14-9.33-12.29-11.27,3.1-2.79,7.93-7.62,5.41-10.53-3.23-3.74-6.47-4.25-10.74-4.11,1.8-1.74,2.85-3.76,1.93-6.45-.96-2.74-5.89-4.1-10.25-4.85,2.37-1.25,4.2-3.08,4.52-5.82.48-3.59-3.37-5.7-6.85-6.07,1.18-3.71,1.11-8.68-3.76-9.93-7.56-1.91-12.53,3.09-16.21,8.34-.89-4.31-3.37-8.31-8.01-10.28-3.07-1.31-5.61,1.26-7.43,3.68-2.02-5.25-5.77-9.33-12.52-10.19-6.1-.77-9.97,3.05-11.51,7.65-7.21-7.34-24.61-7.2-25.54.17-2.12-.89-4.72-.89-7.95-.11-4.48,1.08-6.29,4.31-6.57,7.79-1.96-1.91-4.27-3.03-7.4-1.4-2.57,1.35-3.06,3.83-2.73,6.45-2.79-1.88-6.29-2.88-9.75-1.79-5.13,1.6-6.76,4.99-5.16,8.53-6.76-.85-12.13,1.46-13.61,8.59-1.54,7.27.99,14.07,7.46,17.26-11.69,4.06-9.67,19.69,2.43,23.97-4,2.23-6.94,5.08-5.8,9.88,1.13,4.56,6.54,4.73,10.99,4.1-3.72,6.42-6.24,13.07-2.56,20.09,2.85,5.54,8.5,3.94,12.43.97.77,8.73,2.66,18.9,13.62,21.01,3.29.63,6.15-1.63,7.81-3.8,1.29-1.63,1.35-3.79.97-6.02.96.2,2.05.29,3.42.26,4.56-.15,7.79-2.23,9.75-5.28,1.22,3.85,3.32,7.94,7.65,8.68,5.86,1.03,10.71-.63,14.14-4.2.06,7.34,1.96,16.29,11.6,15.18,6.6-.77,5.44-7.82,3.56-12.62,4.36,2.34,11.21,5.19,14.28,2.46,3.31-2.97,1.9-7.94.27-11.9,4.74,2.23,10.44,4.45,14.74,1.65,2.92-1.88,1.76-5.91.28-9.25,3.83,2.14,8.56,4.03,11.54,1.4,4.11-3.66,2.88-10.07,1.57-14.87,5.61.54,8.4-1.54,9.17-6.25,4.51,2.31,9.39,2.74,12.82-2.06,3.23-4.54,2.21-8.08-1.32-11.27,3.75-1.03,6.79-3.57,5.6-7.79Zm-15.17,8.54c-2.95,9.56-12.34,9.73-21.23,10.65-.38,8.48-4.25,15.46-15.47,17-.06.06-.09.11-.16.15-2.6,1.68-5.93.8-8.97-.49-.45-.08-.94-.14-1.38-.2,1.05,2.74,1.85,6.02-.39,8.02-2.21,1.94-7.15-.06-10.25-1.74,1.35,3.39,2.18,8.48-2.52,9.02-4.88.56-6.99-2.43-7.82-6.08-2.63,1.37-5.64,1.42-8.28.48-4.39,1.38-9.03,1.23-12.9-2.31-.86-.77-1.54-1.57-2.18-2.39-.83,0-1.57-.06-2.21-.2.28,1.6.22,3.17-.71,4.34-1.19,1.54-3.24,3.16-5.58,2.71-1.87-.37-3.29-1.06-4.52-1.94-3.01,1.63-6.41,2.91-10.38,3.62-6.29,1.15-14.08-3.8-11.41-10.16,1.32-3.14,2.95-5.94,4.8-8.54-3.78-1.74-6.14-5.76-4.8-9.58.61-1.8,1.38-3.51,2.24-5.17-.28-.37-.52-.8-.67-1.34-.25-1.17-.19-2.2.16-3.11-2.62-1.37-4.03-3.83-4.2-6.39-4.67-2.85-7.52-8.59-1.94-12.44,1.47-1.03,2.95-1.91,4.45-2.77-.16-.62-.28-1.28-.28-1.94-1.16-1.77-1.58-3.73-1.32-5.7-.17-1.34-.13-2.8.22-4.25.13-.75.31-1.38.61-1.94-2.34-4.43-.3-10.59,5.67-11.7,3.78-.66,7.04-.8,10.41-.49,3.17-3.43,6.96-6.16,11.51-8.73.25-.14.55-.26.8-.4,8.1-5.34,21.27-4.25,27.62,2.51,1.22-3.06,3.87-5.51,8.01-4.97,4.88.6,7.56,3.54,9,7.31,1.32-1.75,3.12-3.6,5.33-2.65,3.32,1.42,5.09,4.28,5.72,7.36,2.63-3.76,6.19-7.33,11.63-5.96,3.4.86,3.5,4.28,2.73,6.88,7.67-3.65,17.25,6.42,10.46,13.64-2.12,2.23-.36,1.77,2.62,4.11.16.14.3.31.45.43.58.43,1.18.97,1.79,1.63v.03c.97.97,1.83,2.03,2.6,3.2.61.94.96,1.89,1.22,2.86,7.23,3.06,12.1,9.25,9.52,17.67Z"/>
        </g>
        <g>
          <path class="cls-9" d="m273.3,83.64c-2.85-5.51-9.64-3-11.72-5.42,3.07-3.65-3.56-16.38-8.68-15.29,6.91-2.45,4.58-16.24-3.14-11.47-5.89,3.68-5.13,12.87,2.56,11.64-3.04.77-6.32,2.6-8.36,4.76-.49-3.37-.58-12.84-6.77-12.78-7.65.03-5.03,9.65-2.81,13.1-11.19-4.14-14.94,9.17-.97,9.44-.64.31-22.43,3.06-12.84,7.68,7.31,3.54.47.6,5.72,5.74,4.81,4.77,10.96-1.05,13.28-4.8,7.43,11.19,20.38,6.16,11.94-4.68,6.82.63,6.05,4.02,12.62,6.16,2.99.97,11.87,1.17,9.17-4.08-1.87-3.51.89,1.77,0,0Zm-30.66-7.59c-1.22.85-2.37.82-3.5-.09.8-.57,1.32-1.31,1.47-2.16.03.03,4.84,2.57,2.02,2.25-.8-.12.25.03,0,0Z"/>
          <path class="cls-9" d="m252.89,79.44c-2.7,5.22,6.22,5.06,9.17,4.08,6.57-2.17,5.8-5.56,12.65-6.16-8.43,10.81,4.52,15.87,11.95,4.68,2.29,3.71,8.46,9.54,13.28,4.8,5.22-5.17-1.61-2.23,5.69-5.77,9.63-4.62-12.16-7.36-12.84-7.68,13.97-.29,10.22-13.58-.97-9.44,2.26-3.45,4.84-13.07-2.81-13.1-6.16-.03-6.26,9.42-6.77,12.78-2.09-2.16-5.32-3.99-8.32-4.8,7.68,1.26,8.47-7.93,2.53-11.61-7.68-4.77-10.05,9.01-3.14,11.5-5.09-1.11-11.72,11.64-8.65,15.27-2.12,2.43-8.9-.08-11.76,5.45-.89,1.77,1.87-3.57,0,0Zm30.66-7.62c-2.79.31,2.02-2.23,2.02-2.25.16.85.64,1.59,1.47,2.16-1.13.91-2.27.91-3.5.09-.25.03.8-.09,0,0Z"/>
          <path class="cls-18" d="m355.12,119.83c-3.76,7.25,8.58,7.02,12.71,5.68,9.06-3,8.04-7.73,17.56-8.59-11.73,15.06,6.25,22.06,16.6,6.51,3.17,5.19,11.73,13.24,18.42,6.67,7.27-7.16-2.21-3.11,7.95-7.99,13.34-6.42-16.95-10.25-17.84-10.67,19.38-.4,14.16-18.86-1.35-13.1,3.07-4.79,6.73-18.18-3.92-18.21-8.58-.06-8.72,13.07-9.41,17.75-2.85-3-7.35-5.54-11.6-6.65,10.69,1.74,11.76-11.04,3.54-16.09-10.69-6.65-13.94,12.47-4.31,15.9-7.12-1.52-16.35,16.18-12.06,21.26-2.92,3.36-12.34-.15-16.3,7.53-1.29,2.45,2.52-4.91,0,0Zm42.58-10.59c-3.94.46,2.76-3.05,2.79-3.11.22,1.2.92,2.2,2.05,3.03-1.54,1.26-3.18,1.28-4.84.08-.35.06,1.1-.11,0,0Z"/>
          <path class="cls-5" d="m194.31,202.73c-2.68,5.22,6.16,5.05,9.14,4.08,6.57-2.14,5.8-5.56,12.65-6.16-8.45,10.85,4.53,15.84,11.93,4.68,2.31,3.71,8.48,9.53,13.29,4.8,5.25-5.17-1.6-2.26,5.7-5.77,9.58-4.59-12.18-7.36-12.82-7.68,13.94-.29,10.19-13.58-.96-9.44,2.21-3.46,4.81-13.07-2.85-13.1-6.18-.03-6.26,9.42-6.76,12.79-2.05-2.17-5.3-3.96-8.37-4.8,7.73,1.26,8.47-7.93,2.57-11.59-7.7-4.79-10.03,8.99-3.12,11.48-5.13-1.12-11.79,11.64-8.67,15.27-2.12,2.42-8.89-.08-11.74,5.45-.92,1.77,1.83-3.57,0,0Zm30.65-7.62c-2.82.31,1.98-2.23,2.01-2.25.17.86.67,1.6,1.47,2.2-1.08.89-2.27.91-3.48.06-.23,0,.8-.08,0,0Z"/>
          <path class="cls-5" d="m188.44,238.54c-2.68,5.22,6.19,5.05,9.17,4.08,6.57-2.14,5.8-5.56,12.65-6.16-8.42,10.84,4.53,15.84,11.96,4.68,2.27,3.71,8.45,9.54,13.26,4.8,5.25-5.17-1.6-2.23,5.71-5.74,9.61-4.62-12.18-7.39-12.82-7.7,13.94-.29,10.19-13.58-.99-9.42,2.24-3.48,4.84-13.1-2.82-13.13-6.18-.03-6.29,9.42-6.76,12.82-2.05-2.2-5.3-4-8.37-4.82,7.73,1.26,8.47-7.94,2.6-11.59-7.76-4.8-10.06,8.99-3.15,11.47-5.13-1.11-11.79,11.64-8.67,15.3-2.12,2.39-8.92-.12-11.77,5.42-.89,1.77,1.87-3.54,0,0Zm30.71-7.62c-2.85.31,1.97-2.2,1.97-2.23.17.83.67,1.57,1.51,2.17-1.11.88-2.31.91-3.48.06-.27.03.77-.08,0,0Z"/>
          <path class="cls-5" d="m162.47,253.62c-2.15,4.14,4.89,3.99,7.28,3.22,5.16-1.68,4.58-4.4,10.02-4.88-6.73,8.59,3.56,12.56,9.42,3.71,1.83,2.97,6.74,7.53,10.55,3.8,4.17-4.08-1.25-1.77,4.52-4.56,7.63-3.65-9.64-5.85-10.16-6.08,11.08-.23,8.07-10.79-.77-7.5,1.8-2.71,3.84-10.33-2.21-10.39-4.94,0-5,7.48-5.41,10.16-1.61-1.74-4.2-3.17-6.6-3.8,6.11.97,6.72-6.3,2.01-9.22-6.11-3.77-7.95,7.16-2.46,9.1-4.08-.89-9.33,9.25-6.9,12.13-1.66,1.91-7.01-.06-9.28,4.31-.74,1.37,1.44-2.83,0,0Zm24.28-6.05c-2.21.26,1.57-1.77,1.6-1.77.16.68.52,1.26,1.19,1.71-.89.71-1.83.74-2.79.06-.19.03.64-.06,0,0Z"/>
          <path class="cls-9" d="m235.46,122.9c-1.9,3.71,4.42,3.59,6.54,2.91,4.67-1.54,4.14-3.97,9-4.39-5.99,7.71,3.21,11.27,8.53,3.31,1.6,2.68,6.02,6.79,9.45,3.42,3.72-3.68-1.14-1.56,4.05-4.08,6.85-3.28-8.65-5.25-9.14-5.48,9.94-.17,7.28-9.68-.67-6.71,1.57-2.48,3.43-9.33-2.02-9.33-4.39-.03-4.45,6.68-4.83,9.11-1.44-1.57-3.75-2.86-5.93-3.43,5.5.89,6.02-5.65,1.82-8.28-5.47-3.39-7.15,6.42-2.24,8.19-3.62-.8-8.36,8.27-6.15,10.87-1.52,1.75-6.35-.06-8.4,3.88-.61,1.26,1.32-2.54,0,0Zm21.85-5.42c-2.02.22,1.41-1.57,1.44-1.6.13.59.45,1.11,1.05,1.54-.8.66-1.63.66-2.49.06-.19.03.55-.09,0,0Z"/>
          <path class="cls-18" d="m373.24,143.88c-1.94,3.71,4.39,3.59,6.51,2.88,4.69-1.54,4.14-3.94,9.01-4.4-5.99,7.73,3.2,11.3,8.48,3.34,1.65,2.65,6.04,6.79,9.45,3.42,3.76-3.68-1.11-1.6,4.08-4.08,6.85-3.29-8.68-5.28-9.14-5.48,9.94-.2,7.27-9.68-.66-6.74,1.57-2.46,3.42-9.31-2.02-9.33-4.42,0-4.45,6.71-4.84,9.13-1.44-1.56-3.75-2.85-5.93-3.39,5.49.85,6.02-5.68,1.82-8.31-5.47-3.39-7.13,6.42-2.24,8.19-3.65-.8-8.36,8.27-6.15,10.87-1.5,1.74-6.35-.06-8.37,3.88-.66,1.26,1.29-2.54,0,0Zm21.82-5.42c-2.01.23,1.41-1.57,1.44-1.6.14.6.46,1.12,1.04,1.54-.77.66-1.6.66-2.48.06-.19,0,.58-.08,0,0Z"/>
          <path class="cls-18" d="m402.54,133.07c-1.93,3.73,4.42,3.6,6.54,2.91,4.64-1.54,4.09-3.97,8.97-4.4-5.99,7.73,3.23,11.3,8.53,3.34,1.6,2.66,6.02,6.77,9.45,3.43,3.71-3.68-1.16-1.6,4.06-4.11,6.84-3.28-8.68-5.25-9.15-5.45,9.95-.2,7.27-9.7-.67-6.73,1.6-2.46,3.43-9.31-2.02-9.33-4.39-.03-4.45,6.71-4.81,9.1-1.47-1.54-3.78-2.86-5.93-3.4,5.45.86,6-5.65,1.8-8.27-5.49-3.4-7.15,6.42-2.24,8.16-3.62-.77-8.37,8.31-6.16,10.9-1.5,1.71-6.3-.08-8.36,3.85-.64,1.26,1.32-2.51,0,0Zm21.82-5.42c-1.99.23,1.44-1.57,1.44-1.6.13.63.47,1.15,1.05,1.57-.8.63-1.63.63-2.49.03-.16.03.58-.06,0,0Z"/>
          <path class="cls-18" d="m361.1,102.47c-1.93,3.71,4.42,3.59,6.54,2.91,4.64-1.54,4.09-3.94,9-4.39-6.02,7.73,3.21,11.3,8.5,3.34,1.63,2.65,6.02,6.79,9.45,3.43,3.75-3.69-1.13-1.6,4.06-4.11,6.84-3.28-8.68-5.25-9.12-5.48,9.92-.2,7.27-9.65-.71-6.71,1.6-2.45,3.43-9.31-1.99-9.36-4.42,0-4.48,6.74-4.84,9.13-1.47-1.54-3.78-2.85-5.93-3.39,5.49.86,6.04-5.68,1.83-8.28-5.52-3.42-7.18,6.42-2.24,8.17-3.65-.77-8.37,8.3-6.19,10.87-1.47,1.75-6.3-.06-8.36,3.88-.64,1.26,1.32-2.51,0,0Zm21.82-5.42c-2.02.23,1.44-1.56,1.44-1.59.13.62.47,1.14,1.05,1.54-.8.66-1.63.68-2.49.06-.16.03.58-.06,0,0Z"/>
          <path class="cls-9" d="m262.37,112.55c-1.93,3.74,4.42,3.59,6.54,2.91,4.64-1.51,4.11-3.97,9-4.39-6.02,7.73,3.21,11.3,8.5,3.34,1.63,2.65,6.02,6.76,9.45,3.43,3.75-3.69-1.11-1.6,4.08-4.08,6.82-3.31-8.68-5.28-9.14-5.51,9.94-.17,7.24-9.68-.71-6.71,1.57-2.45,3.47-9.33-2.02-9.33-4.39-.03-4.45,6.71-4.8,9.11-1.47-1.54-3.78-2.83-5.93-3.43,5.47.91,5.99-5.65,1.82-8.25-5.5-3.4-7.18,6.42-2.24,8.16-3.65-.77-8.4,8.27-6.18,10.87-1.52,1.75-6.32-.03-8.37,3.88-.64,1.26,1.32-2.51,0,0Zm21.82-5.42c-1.99.22,1.44-1.57,1.44-1.6.09.59.49,1.14,1.05,1.54-.8.66-1.63.69-2.49.06-.16.03.58-.06,0,0Z"/>
        </g>
        <path class="cls-5" d="m217.81,223.53c-4.42-8.59-14.94-4.65-18.17-8.42,4.73-5.65-5.52-25.4-13.47-23.66,10.74-3.85,7.09-25.2-4.83-17.81-9.14,5.68-8.01,19.92,3.97,17.98-4.73,1.26-9.73,4.08-12.95,7.42-.8-5.22-.89-19.83-10.47-19.81-11.88.06-7.82,14.95-4.39,20.32-17.31-6.42-23.14,14.19-1.51,14.61-1,.49-34.77,4.77-19.88,11.9,11.29,5.45.71.94,8.86,8.93,7.43,7.31,17.04-1.68,20.57-7.45,11.51,17.3,31.56,9.54,18.48-7.27,10.61.97,9.45,6.25,19.58,9.59,4.62,1.48,18.36,1.77,14.2-6.34-2.85-5.48,1.41,2.74,0,0Zm-47.5-11.82c-1.88,1.35-3.68,1.32-5.41-.08,1.25-.94,2.02-2.02,2.27-3.36.03.03,7.49,3.94,3.14,3.45-1.21-.11.39.06,0,0Z"/>
        <g>
          <path class="cls-17" d="m110.49,124.68c-.22-.12-.47-.23-.74-.31-.03-1.05-.31-2.17-.86-3.28-1.38-2.74-3.87-2.25-5.99-.89-.89-1.2-2.15-2.17-3.92-2.77-1.33-.48-2.65.34-3.42,1.26-.8.97-1.22,2.31-1.25,3.69-.09.03-.16-.04-.25,0-3.56.79-6,4.13-2.95,6.9,1.82,1.65,3.97,2.6,6.11,2.62.64,2.77,2.18,5.42,5.8,5.25,3.1-.17,4.88-1.6,5.41-3.42,2.05.03,3.89-.71,4.91-2.91.99-2.31-.8-4.94-2.85-6.14Z"/>
          <path class="cls-17" d="m61.84,148.91c-1.08-1.32-2.46-1.63-4.12-.97-.58.22-1.1.54-1.58.94-.41-1.22-1.14-2.34-2.62-2.9-1.87-.77-4.81.06-4.55,2.31.09.94.67,1.79.96,2.68-1.07.4-1.99,1.08-2.18,2.11-.13.46-.19.91-.13,1.4,0,0,.28,1.88.25,1.23.22,3.11,5.03,3.42,5.89,1,2.08.88,3.95,1.48,6.29,1.14.99-.17,1.88-1.08,2.12-1.91.25-1,.25-2.25-.45-3.2.92-1.11,1.32-2.42.13-3.82Z"/>
          <path class="cls-17" d="m242.73,72.54c-.06-2.37-2.27-3.54-4.75-3.25-.86.08-1.69.29-2.52.45v-.29c.09-1.57-.31-2.97-1.08-4.33-1.13-1.94-4.01-1.52-5.27,0-.99,1.34-1.05,2.86-1.17,4.39-3.15-1.03-6.44.17-5.89,3.94.47,3.25,2.52,4.91,5.5,5.17,1.83,3.02,5.42,5.36,9.08,2.65,2.27-1.72,2.43-3.46,1.63-5.11,2.46-.29,4.58-1.17,4.48-3.62Z"/>
          <path class="cls-17" d="m321.94,67v-.12c.03-.97-.28-1.85-.77-2.74-1.07-1.88-4.08-1.63-5.22,0-.67.94-.91,1.97-.97,3.05-.09-.03-.22-.03-.31-.03-.61-2.23-3.37-3.57-5.8-3.28-1.26.18-2.34,1.54-2.24,2.6.03.34.22.89.41,1.42-3.04,1.09-2.21,5.11.58,5.28,1.07,1.51,3.86,2.14,5.22.11.2-.29.39-.6.52-.91.13.06.22.15.33.23,1.02,1.2,1.63,2.57,2.71,3.71,2.18,2.25,5.58-.22,5.1-2.62-.03-.34-.13-.66-.31-.94-.09-.2-.16-.37-.25-.57.44-.03.93-.15,1.4-.4,2.35-1.19,1.61-3.97-.38-4.79Z"/>
          <path class="cls-17" d="m290.31,125.25c-.25-1.26-1.18-2.17-2.1-3.09.28-.23.53-.45.8-.74,1.82-2.09.16-5.08-2.95-4.51-.24.06-.46.03-.64.03-.06-3.46-5.61-3.2-6.07.11v.15c-.71-.26-1.47-.49-2.27-.77-1.54-.57-3.32.6-3.72,1.88-.52,1.57.58,2.77,2.12,3.31.31.17.67.26,1.05.34t.05.03c-.08.2-.14.49-.2.66-.25.59-.28,1.22-.34,1.82-.3,2.39,3.49,3.54,5.16,1.91.38-.34.74-.74,1.11-1.08.08.08.14.2.2.29,1.02,1.48,2.27,2.42,4.09,2.99,2.38.71,4.14-1.46,3.71-3.34Z"/>
          <path class="cls-17" d="m225.55,206.35c-.53-.37-1.21-.68-1.88-.91v-2.14c0-3.5-5.89-3.48-6.1,0-.03.75-.09,1.46-.09,2.17-.8-.43-1.66-.68-2.56-1.03-1.54-.6-3.24-.43-4.14.97-.77,1.15-.45,3.11,1.07,3.68.53.2,1.08.4,1.63.57.09.03.16.03.22.06-.03.06-.03.12-.03.2-.03.66-.58,1.11-.55,1.79.06.83.2,1.51.55,2.29.52,1.03,1.93,2.08,3.28,1.94.86-.12,1.66-.2,2.4-.6.77-.43.71-.23,1.41.2,2.82,1.57,5.28-1.42,4.17-3.68-.2-.37-.42-.71-.67-1.03,1.82-.68,3.29-3.11,1.3-4.48Z"/>
          <path class="cls-17" d="m181.37,214.09c-.85-.23-1.68-.26-2.51-.2.06-.29.09-.54.13-.85,0-.77-.38-1.54-.83-2.17-.99-1.34-3.46-1.97-4.77-.54-.49.52-.91,1.09-1.29,1.66-1.28-.37-2.7-.48-3.81-.48-3.89,0-3.89,5.39,0,5.42h.83c-.36.54-.74,1.09-.97,1.51-1.11,2.43,2.38,3.97,4.47,3.06.22-.09.44-.12.63-.23.3.57.49,1.17.78,1.74,1.24,2.6,5.63,1.14,5.63-1.34v-2.02c.83-.15,1.61-.23,2.45-.63,2.43-1.11,1.63-4.25-.74-4.91Z"/>
          <path class="cls-17" d="m378.33,239.37c.36-1.12.27-2.23-.86-3.25-1.54-1.43-3.59-1.8-5.6-1.54-.17-.17-.33-.34-.52-.48-2.57-2.29-6.35.82-4.72,3.25-2.52.51-4.89,2.16-5.06,4.47-.09,1.77,1.03,4.03,3.21,4.4.99.2,1.82.23,2.82.11.19-.03.38-.08.53-.11-.06.86-.09,1.71.36,2.57.8,1.34,2.52,3.08,4.45,2.88,2.09-.23,3.68-.83,4.48-2.62.19-.4.27-.83.27-1.26.99.48,2.04.82,3.2.82,2.18-.03,4.29-1.05,4.45-3.13.25-3.74-3.46-5.14-7.02-6.11Z"/>
          <path class="cls-17" d="m434.8,264.34c-2.34-2.05-5.1-1.42-7.85-.71-.09-.54-.28-1.12-.28-1.09-.71-2.68-5-2.48-5.83,0-.49,1.4-.3,2.71-.16,4.14-.49-.4-1.1-.66-1.96-.66-1.57,0-3.59.06-4.81,1.15-1.44,1.34-1.69,3.54-.09,4.94,1.87,1.63,3.89,1.65,6.22.97.16-.06.35-.08.5-.11,0,.14.05.31.08.48.86,4.28,6.54,5.51,9.28,2,.61-.77.67-1.88.77-2.74-.06-.52-.09-1-.19-1.49-.38-1.23-.03-1.71-1.51-1.34,1.83-.45,3.62-.23,5.22-1.31,1.51-1.03,2.12-2.91.61-4.22Z"/>
          <path class="cls-17" d="m330.5,293.99c0-.91-.49-1.59-1.19-2.08,0-.11.09-.26.09-.4-.06-1.74-.86-3.09-2.79-3.59-.99-.26-2.3-.03-2.95.68-.61.66-.99,1.34-1.21,1.94-1.38-.4-2.92-.11-3.71,1.08-.82,1.2-.42,3.09,1.08,3.71.35.14.67.29,1.02.43.08.03.11.03.14.06.13.2.28.43.44.57-.74-.83.09.4.27.74.41.66,1.21,1.17,1.97,1.4,1.35.37,2.85-.03,3.86-.91.41-.34.7-.75,1.08-1.12v-.03q-.09.08,0,0c1.13-.31,1.9-1.48,1.9-2.48Z"/>
          <path class="cls-17" d="m400.8,328.84c-.56-.4-1.18-.54-1.79-.66.13-.57.03-1.2-.49-1.86-.22-.28-.13-.74-.13-1.08-.03-2.51-4.39-3.94-5.67-1.4-.41.91-.74,1.85-.92,2.76-2.43-.66-4.97,2.03-3.31,4.11-.06.03-.13.06-.22.08-2.73,1.12-1.41,5.28,1.54,5.05.61-.06,1.22-.12,1.83-.23.03.06.06.06.19.17.8.68,1.63,1.26,2.73,1.42,1.91.34,3.84-.71,3.84-2.57v-.86c.25.04.58.06.86.06,3.31.2,3.72-3.6,1.54-5.03Z"/>
          <path class="cls-17" d="m130.93,351.56c-.25-.19-.53-.37-.83-.57.89-1.22.86-3-.86-3.79-.25-.12-.52-.17-.77-.26.03-.29.03-.6.03-.89.03-3.48-5.99-3.48-6.05,0v.06q-.06.03-.17.06s0,.06-.03.08c-.64-.37-1.41-.66-2.12-.83-3.2-.82-4.8,2.8-2.92,4.51-.92,1.46-.53,3.51,1.16,4.4,1.1.57,2.34.34,3.49.11.58-.14,1.14-.4,1.73-.6t.06-.06c.52.29,1,.68,1.44,1,.91.6,1.83,1,2.88,1.31,2.85.77,5.25-2.74,2.95-4.54Z"/>
          <path class="cls-17" d="m171.08,360.69c-.8,0-1.72.06-2.59.23.03-.31.03-.66.06-1,.16-3.48-5.89-3.48-6.02,0-.06.06-.13.08-.2.11-.09.15-.16.29-.25.43-.86-.2-1.75-.26-2.66-.26-3.93-.03-3.9,5.37,0,5.4.2,0,.36.03.55.06-.06.17-.13.31-.16.48-.31,2.14,1.99,4.48,4.48,3.06.36-.2.71-.4,1.04-.66.13-.12.19-.15.25-.2.8.46,1.47.94,2.49,1.12,2.35.4,4.2-1.23,3.71-3.32,0-.06-.06-.14-.06-.22,3.15-.8,3.12-5.26-.64-5.23Z"/>
          <path class="cls-17" d="m395.55,104.64c-.74-2.28-3.32-2.34-5.44-2,0-.89.06-1.75-.17-2.65-.74-3.03-5.96-2.29-5.96.71v2.88c-.64-.49-1.38-.91-2.12-1.26-3.42-1.65-6.5,3-3.07,4.65.28.15.52.26.77.4-.49.43-.89.86-1.29,1.38-1.17,1.6.36,4.28,2.63,4.05,1.13-.11,2.76-.71,3.62.03.86.74,1.66,1.46,2.63,2.09,2.71,1.85,5.25-1.54,4.15-3.69-.31-.6-.77-1.17-1.27-1.68.13-.03.22,0,.31-.03,2.57-.23,5.99-2.17,5.19-4.88Z"/>
          <path class="cls-17" d="m429.86,140.63c-.13,0-.25,0-.35-.03-.33-3.2-6.02-3.14-6.02.26v.31c-.67-.31-1.52-.52-2.51-.54-3.81-.14-3.87,4.82-.34,5.34.13.4.25.82.47,1.19.2.17.36.37.49.54-.22-.23-.22-.2,0,.14.8,1.31,1.76,2.74,3.59,3.03,1.66.29,3.17-.37,3.71-1.88.22-.57.28-1.2.25-1.83,0-.11-.03-.2-.03-.31.3-.08.61-.11.91-.26,1.3-.45,2.46-1.25,2.78-2.56.36-1.69-.86-3.4-2.95-3.4Z"/>
          <path class="cls-16" d="m107.29,127.02c.41-1.57-1-3.43-2.98-3.43-.3,0-.61.03-.91.06-.35-.46-.71-.94-1.02-1.43-1.69-2.54-6.76-.85-5.55,2.09.06.11.14.2.17.31-.06,0-.14-.03-.23-.03-3.78-.83-5.38,4.36-1.6,5.19.64.17,1.28.22,1.93.31.06,0,.13.03.19.03.09.28.19.59.39.88.77,1.38,2.71,1.63,4.12.97.13-.06.2-.08.24-.11,0,.06.06.2.38.37.74.37,1.54.6,2.31.86,1.29.48,3.46-.03,4.01-1.23.96-2-.06-3.48-1.44-4.85Z"/>
          <path class="cls-16" d="m56.31,148.62c-.24.08-.49.17-.71.25-.13-.17-.27-.31-.39-.43-2.15-1.74-6.05-.08-5.06,2.62.06.23.19.46.33.66-.39.29-.71.57-.91.97-1.54,2.54,1.87,4.85,4.08,3.74.03,0,.03.03.06.03,1.07.71,2.82.37,3.65-.43.74-.63.99-1.46.83-2.28.13-.09.3-.12.45-.2,2.79-1.54.92-6.11-2.34-4.94Z"/>
          <path class="cls-16" d="m238.28,70.91c-1.35-.41-2.92-.29-4.39.11.09-.31.16-.66.16-1.03,0-1.34-.8-3.48-2.7-3.46-1.47.06-2.09,1.17-2.34,2.31,0,.06,0,.17-.03.26-.41.68-.61,1.46-.67,2.43v.08c-2.12-.91-5.61.52-3.93,2.57.61.77,1.66,1.03,2.79,1.14-.06.63-.03,1.29.16,1.77.52,1.11,2.02,2,3.39,2,.78.2,1.68-.11,1.93-.71.09-.12.22-.2.33-.37.5-.71.44-1.38.13-2.03,2.27.06,4.67-.17,6.05-1.31,1.44-1.14.96-3.19-.86-3.76Z"/>
          <path class="cls-16" d="m321.62,69.08c-.77-.74-1.57-.74-2.4-.74.22-.26.42-.52.52-.68.35-.75.25-1.46,0-2.25-.16-.57-.77-1-1.44-1-2.34.11-2.54,2.45-2.54,4.1-.28-.03-.6.03-.89.15-.44-.23-.89-.37-1.41-.37-.41-.06-.83-.06-1.21,0-.11,0-.17.03-.27.03-.19-.2-.41-.4-.64-.63-.8-.94-2.04-.83-3.13-.43-2.46,1.01-.13,3.83,1.75,3.85.27.03.52-.03.82-.03h0c.77.54,1.6.89,2.46,1.26.13.06.25.06.38.08.45.86,1.41,1.57,2.41,1.66.89.11,1.91-.23,2.18-1.09.13-.43.03-.89-.09-1.31,1.3.15,2.62.03,3.51-.68.64-.52.55-1.4,0-1.91Z"/>
          <path class="cls-16" d="m286.06,118.37c-.55-.11-1.07,0-1.52.15-.06.06-.16.08-.22.11,0-.66-.35-1.14-.52-1.79-.28-1.2-2.07-1.23-2.74-.35-.48.66-.58,1.49-.48,2.29h0c-1.02-.03-2.05-.26-2.98.22-.89.49-1.32,1.54-.96,2.4.35.88,1.33,1.4,2.31,1.6.58.14,1.18.17,1.76.14.42-.03.89-.2,1.32-.29.52,1.63,1.22,3.8,3.5,2.68,1.96-.97,1.11-2.48.16-3.82.39-.15.77-.31,1.05-.63.94-.86.64-2.37-.66-2.71Z"/>
          <path class="cls-16" d="m391.52,103.73c-.88-.17-1.71-.2-2.54-.08.28-1.6.13-3.23-1.54-3.65-2.73-.66-2.21,3.25-2.18,4.47,0,.23.06.43.16.6-.03.12-.09.23-.09.34-.31-.08-.64-.14-.93-.19.06-.72-.42-1.46-1.44-1.4-.77.03-1.32.09-1.87.63-.28.34-.58.86-.35,1.31.28.68.67,1.03,1.11,1.28-.67.66-.96,1.54-.47,2.6.93,1.91,2.53,1.28,3.97.31-.09.77-.13,1.52.39,2.25.34.57.99.71,1.69.6,1.32-.2,2.02-1.23,1.79-2.39-.13-.57-.38-1.12-.66-1.63-.11-.26-.08-.63,0-1.03,2.1.14,4.95.25,5.53-1.54.46-1.46-1.35-2.23-2.59-2.48Z"/>
          <path class="cls-16" d="m430.38,143c-.55-.66-1.25-.91-2.18-.74-.13.03-.22.03-.35.08v-1c0-1.77-3.03-1.77-3.06,0,.03.15-.03.29-.03.43-1.27,0-2.34-.11-3.39.63-.8.57-.42,1.63.25,2.09-1.1,1.03.28,2.91,1.87,2.08.06-.06.16-.06.22-.08.09.68.31,1.37.64,1.88.64,1,2.43.77,2.79-.34.19-.68.28-1.4.06-2.09-.03-.17-.14-.37-.17-.54.42,0,.85,0,1.32-.06.8-.12,1.57-.35,2.02-.97.25-.38.31-1.01,0-1.37Z"/>
          <path class="cls-16" d="m178.84,213.72c-.31-.09-.67-.09-1.02-.12.13-.79.09-1.6-.61-2.25-.67-.59-1.83-.56-2.63-.17-.74.4-.99,1.05-1.02,1.74-.09,0-.13-.06-.22-.06-1.13-.17-2.15-.34-3.24,0-.83.26-1.22.89-1.08,1.65.16.71.86,1.15,1.69,1.49-.58.74-.77,1.65-.28,2.62.8,1.57,2.27,1.42,3.57.8.08.15.11.29.2.4.58,1.03,1.85,1.74,3.07,1.11,1.32-.68,1.08-2.28.55-3.8.53.06,1.08.06,1.63-.08,2.27-.68,1.16-2.91-.61-3.34Z"/>
          <path class="cls-16" d="m223.43,207.81c-.5-.54-1.33-.74-2.13-.74.09-.74.22-1.28,0-2.05-.33-1.09-2.23-1.37-2.79-.31-.3.51-.42,1.08-.52,1.65-.67-.4-1.6-.6-2.3-.77-1.9-.46-2.7,2.14-.83,2.6.16.06.31.08.44.11-.71.82-.8,1.77-.8,2.8,0,.94,1,1.48,1.93,1.31.67-.12,1.18-.46,1.66-.83.77,1.06,1.77,1.86,3.07,1.49,1.44-.37,1.5-1.51,1.22-2.66.19-.03.36-.06.48-.17.93-.6,1.44-1.54.57-2.43Z"/>
          <path class="cls-16" d="m378.79,243.37c-.06-.31-.25-.6-.45-.85.52-1.09-.6-1.97-2.04-2.66.64-.57.86-1.31.19-2.37-.67-1-1.8-.97-2.95-.54-.13-.45-.42-.91-1.04-1.28h-.06c-.5-.4-1.18-.66-2.01-.54-1.58.17-2.6,1.57-2.54,2.86-.89.06-1.79.37-2.46,1.11-.97,1.03-.67,2.86.67,3.54.77.4,1.54.48,2.27.43-.3,1.57-.03,3.25,1.94,3.74,1.07.26,2.21-.37,2.48-1.28.13-.43.16-.89.13-1.31.06.06.09.08.16.14,1.38.75,2.7.77,4.26.71.99,0,1.72-.82,1.44-1.68Z"/>
          <path class="cls-16" d="m430.99,265.26c-.77-2.34-3.46-1.23-5.52.14,0-.4-.03-.77-.16-1-.42-.97-2.12-1.48-2.76-.31-.53.97-.35,2.11-.03,3.14-2.52.31-5.5,1.23-3.93,3.8.77,1.22,2.56,1.26,4.2.77.25,1.97,1.3,3.99,3.54,3.71,2.7-.31,1.74-3.82.61-6.16,2.41-.4,4.84-1.66,4.05-4.08Z"/>
          <path class="cls-16" d="m328.64,293.43c-.35-.26-.74-.4-1.19-.49-.16-.03-.28-.03-.44-.06t.03-.03c.35-1.05.41-2.12-.39-3.02-.57-.68-1.6-.91-2.37-.26-.83.68-.61,1.48-.86,2.34-.36-.03-.7-.06-1.07-.11-.83-.66-2.56-.34-2.56.97v.22c0,.6.49,1.15,1.13,1.32.5.11,1.02.14,1.54.2-.17.94-.39,1.86.31,2.77.48.59,1.32.88,2.09.48.7-.37,1.16-.94,1.25-1.65.03-.06.03-.14.03-.2,1.3.6,2.68.6,3.2-.97.19-.62-.16-1.17-.71-1.51Z"/>
          <path class="cls-16" d="m399.17,329.87c-.61-.8-1.54-.97-2.59-.88h-.05c0-.2-.03-.43-.16-.66-.28-.46-.28-.86-.28-1.38,0-1.71-3.04-1.71-3.04,0,0,.43-.03.91-.06,1.4-.24-.12-.49-.2-.7-.29-1.71-.77-3.18,1.45-1.61,2.25-.38.17-.74.43-.96.91-.19.43-.31.94,0,1.34.55.68,1.29,1.11,2.27.91.16-.03.3-.11.49-.17.38,1,1.05,1.91,2.18,2.11,1.22.2,2.4-.54,2.82-1.56.22-.57.22-1.2.13-1.77.31-.03.64-.14,1.02-.37.64-.4,1.03-1.2.55-1.86Z"/>
          <path class="cls-16" d="m127.12,347.62c-.22,0-.49.03-.7.03,0-.66,0-1.31-.22-1.91-.45-1.14-2.05-1.34-2.79-.34-.52.68-.52,1.51-.36,2.28h-.09c-.67-.43-1.44-.74-2.3-.91-1.85-.34-2.66,2.11-.89,2.57-.06.09-.19.17-.28.34-.58,1.26.6,2.46,2.07,1.83.36-.11.67-.31,1-.45.06,0,.09-.03.09-.03.06-.03.13-.06.16-.06.09.2.13.41.19.6.42,1.17,1.35,2,2.76,2,.86,0,1.5-.63,1.54-1.37,0-.6-.25-1.17-.64-1.71.33-.06.61-.11.88-.2,1.57-.48,1.36-2.68-.39-2.65Z"/>
          <path class="cls-16" d="m169.19,361.6c-.58-.43-1.19-.6-1.93-.57,0-.43,0-.86-.09-1.28-.28-1.29-2.59-1.23-2.92,0-.06.25-.13.56-.19.91-.89-.2-1.87-.2-2.82-.2-1.83,0-1.93,2.39-.22,2.65-.33.52-.33,1.26.19,1.63.99.71,1.96.45,2.88.06.61,1.57,1.72,3.09,3.78,2.17,1.44-.68.92-1.86-.03-2.94.36-.03.67-.12,1.05-.29.82-.43,1.04-1.54.3-2.14Z"/>
          <path class="cls-13" d="m58.25,151.73c.61-1.11-.35-2.23-1.69-2-.52.08-.86.29-1.25.52-.09-.12-.19-.2-.31-.26-.67-.52-1.47-.54-2.15,0-.52.4-.64.91-.7,1.52-.03.22,0,.45,0,.66.03.08.03.11.03.17,0,0-.03,0-.06.06-.58.77.06,1.68.93,1.97.39.15.8.17,1.25.2.19-.03.41-.03.64-.03.09,0,.09-.03.16-.03.96,1.17,3.4.48,2.7-1.03-.13-.26-.27-.52-.46-.75.39-.28.74-.63.93-1Z"/>
          <path class="cls-13" d="m105.36,128.59c-.19-.26-.44-.46-.7-.63.96-.86-.16-2.46-1.63-2.12-.09-.03-.19-.06-.33-.08-.03-.29-.13-.57-.41-.82-.09-.06-.19-.15-.25-.26-.03-.08-.08-.2-.11-.31-.41-1.74-3.23-.97-2.95.71.14.4.23.89.36,1.34-.19-.03-.39-.06-.58-.03-1.93.17-1.96,2.88-.03,2.71.22.26.39.54.67.8.52.43,1.22.66,1.9.8,1.08.2,2.56.29,3.54-.25.64-.38,1.04-1.26.52-1.86Z"/>
          <path class="cls-13" d="m234.94,72.05c-.38-.74-1.14-1.03-2.01-1.08h-.05v-1.37c0-1.57-2.46-1.77-2.98-.34-.31.82-.5,1.68-.41,2.48-.97-.14-1.99-.14-2.92-.11-1.96.03-1.96,2.71,0,2.68.7,0,1.44-.06,2.15.03h.06c.16.54.28,1.06.31,1.54.06,1.77,2.92,1.74,3.04,0,.05-.54.08-1.11.05-1.63.57,0,1.21-.03,1.85-.2,1.02-.25,1.32-1.19.89-2Z"/>
          <path class="cls-13" d="m322.07,69.57c-.89-.52-1.85-.49-2.85-.43-.44,0-1.41.06-2.21-.03.06-.17.16-.31.19-.51.24-.91-.67-2.03-1.85-1.65-.58.17-1.07.37-1.54.68-.06.06-.16.14-.24.22-.22-.08-.44-.2-.7-.22-.86-.17-1.54.19-1.85.94-.52,1.15.31,1.98,1.44,2.37.38.14.7.14.99.11.09.06.2.11.3.15.35.17.7.19,1.02.11.28.11.58.23.86.29.19.66.86,1.17,1.8.85,1.54-.45,3.17.26,4.64-.57.99-.54.99-1.8,0-2.31Z"/>
          <path class="cls-13" d="m284.59,121.28c1.63-.43,1.3-2.57-.39-2.62-.16-.03-.35,0-.49,0-.16-.06-.25-.11-.28-.23-.25-1.68-3.2-1.77-3.04,0,.03.38.19.8.03,1.2-.03.23-.03.43,0,.63-.39.06-.8.14-1.19.23-1.88.43-1.08,3.02.8,2.6.55-.12,1.07-.23,1.65-.26.06,0,.09,0,.16.03.16.2.28.46.38.66.52,1.09,2.6,1.43,2.92,0,.2-.82-.06-1.57-.61-2.2.03,0,.08,0,.08-.03Z"/>
          <path class="cls-13" d="m390.42,105.19c-.22-.06-.42-.06-.61-.09.03-.45,0-.94-.09-1.45-.22-.91-1.82-1.37-2.52-.6-.46.52-.8,1.14-1,1.79-1.24-.34-3.01-.03-4,.06-1.93.22-1.93,2.94,0,2.71.89-.11,1.76-.26,2.62-.2-.19.89-.09,1.83-.09,2.69.03,1.74,2.98,1.74,3.01,0,.03-.8.17-1.54.17-2.28.09,0,.25.03.35.03.58.03,1.19,0,1.8,0,1.72,0,1.97-2.2.38-2.65Z"/>
          <path class="cls-13" d="m427.81,143.2q-.06,0-.09-.03c.03-.17.09-.37.14-.54.25-1.52-1.74-2.37-2.76-1.06-.33.4-.58.97-.64,1.54-.09-.09-.16-.18-.25-.26-1.38-.89-2.54-1.29-4.26-1-1.93.31-1.1,2.91.8,2.6,2.05-.31,2.43,2.31,3.56,3.25.8.66,2.27.45,2.56-.6.09-.37.16-.74.19-1.14.08-.09.03-.09.08-.12h.31c1.82.08,1.82-2.11.38-2.65Z"/>
          <path class="cls-13" d="m178.71,215.83c-.25-.54-.49-.82-1.02-1.17-.3-.2-.61-.26-.97-.31.27-1.38-1.75-2.4-2.68-1.06-.36-.22-.78-.37-1.25-.43-1.1-.14-1.96,1.26-1.32,2.02.06.06.13.15.16.17-.28.08-.58.17-.86.29-1.82.56-1.05,3.16.8,2.6.48-.17,1.03-.4,1.6-.46,0,.09,0,.17.03.29.14.43.58.83,1.07.94.74.14,1.66-.03,2.05-.71.09-.17.13-.34.16-.49.55.15,1.05.06,1.54-.14.55-.26.92-1.03.71-1.54Z"/>
          <path class="cls-13" d="m221.77,207.67c-.25-.45-.67-.63-1.05-.74.06-.31.06-.63,0-1.03-.24-1.4-2.54-1.14-2.92,0-.09.29-.23.54-.33.83-.44-.03-.89-.03-1.38-.03-1.91,0-1.91,2.71,0,2.71.27,0,.77-.06,1.16-.06.16.37.28.77.42,1.14.6,1.71,3.2.97,2.95-.72,0-.03-.03-.08-.03-.11,1.11-.03,1.63-1.2,1.18-2Z"/>
          <path class="cls-13" d="m376.12,239.8c-.63-.06-1.47-.06-2.24.06h-.67s-.06-.06-.13-.11c.09-1.08.19-2.05-.58-2.99-.5-.63-1.72-1.03-2.37-.26-.8.89-1.02,1.94-.86,2.94-.89.74-1.57,1.88-2.02,2.71-.89,1.54,1.74,2.91,2.63,1.38.28-.49.58-1,.89-1.51.28.2.58.31.92.4.74.97,1.25,2.11,1.99,3.14.71,1.03,2.34.77,2.79-.31.25-.71.19-1.49-.22-2.14-.14-.19-.33-.4-.49-.56.13,0,.25-.03.35-.03,1.96-.03,1.96-2.6,0-2.69Z"/>
          <path class="cls-13" d="m397.69,329.02c-.38-.09-.8-.15-1.19-.2,0-.26-.03-.48,0-.74,0-1.77-2.88-1.72-3.01,0-.03.37-.03.77,0,1.19-.31.03-.61.06-.92.09-1.93.31-1.13,2.91.8,2.6.03,0,.61.82.67.88.36.31.67.52,1.16.66.64.17,1.33-.11,1.69-.62.22-.31.28-.66.34-1.01.27.06.52.12.82.15,1.05.08,1.6-.91,1.44-1.71-.14-.77-1.04-1.15-1.8-1.28Z"/>
        </g>
        <path class="cls-3" d="m19.52,208.29c.25.11.48.23.77.37,3.72,1.91,4.78,7.08,1.41,9.73-2.15-1.42-1.93-1.2.61.71.7.52,1.35,1.06,2.02,1.6,1.27,1.03,2.65,2.86,3.1,4.34.16.57.35,2.25.64,4.08.13.08.25.15.35.26,1.19,1.11,2.27,2.25,3.31,3.37,1.69,1.26,3.78,1.98,6.32,2.11,3.23.71,4.73,3.23,5.1,5.96.41,3,9.86,2.28,11.79,1.77,2.21-.57,5.25-.03,6.76,1.6,1.44,1.65,3.31,2.42,5.67,2.28,1.14.2,2.09.68,2.82,1.37,1.21.2,2.4.71,3.39,1.66,1.19,1.05,2.02,1.88,2.73,2.65,6.54-1.63,4.66-1.77,11.35-.11,5.96,1.46,8.26-1.68,10.8-4.82,4,2.11,7.4,5.25,12.96,2.31.27-.11.49-.26.7-.4,3.21-4.77,1.38-11.22,1.47-16.41.08-3.16,3.5-6.88,3.46-10.04-2.62-2.25-7.21-2.65-10.77-.14-.63.43-1.21.94-1.75,1.45-.39-.25-.74-.48-1.16-.71-2.52-1.34-5.1-1.03-7.65,0-1.35.54-11.38,7.05-11.6,5.63-.92-5.54-8.84-5.85-12.7-3-5.5,4.11-5.41-1.6-6.27-3.76-1.41-3.63-5.93-5.79-9.81-4.63-1.54-2.71-4.73-4.22-8.61-3.45-.36.06-.64.11-.94.17.16-.11.3-.26.42-.4,3.81-4.82-2.51-11.7-8.59-9.9-3.2.94-4.64-2.42-3.56.66-2.92-8.27-17.56-4.73-14.61,3.6.03.03.06.06.06.11Z"/>
        <path class="cls-3" d="m233.92,386.69c.86-.86,1.51-1.72,2.05-2.6-1.77-3.28-4.08-6.22-6.66-9.39-1.44-1.77-.05-4.82,2.37-5.22,7.12-1.14,5.96-7.54,1.57-10.67-.36-.26-.61-.52-.8-.83-1.19-.4-2.21-.94-2.85-1.91-3.01-4.57,3.4-8.85.31-12.7-.56-.71-.8-1.42-.74-2.08-2.4-3.43-5.74-6.02-10.86-6.05-3.2-.03-4.33-2.23-2.1-4.8,3.07-3.62,5.5-15.01-6.8-15.9-4.42-.29-3.56.4-.83-3.02,2.76-3.46-1.29-9.67-8.9-7.65-2.82.74-5.1.34-4.88-2.2,1.07-3.65-.7-6.48-5.1-8.48h0c-.77.11-1.41.43-1.93.94-.06.06-.13.06-.19.08-.25.57-.44,1.15-.58,1.8-.47,1.68-3.04.97-2.92-.63-1.66-1.57-3.2-3.14-4.95-4.51-7.63-1.54-8.5,10.25-8.95,8.79-1.94-6.05-6.3-7.19-9.48-4.56-.77.29-1.85,3.85-2.52,4.28-.55-.77-3.04-4.73-3.72-5.33-.42-.09-.8-.15-1.19-.2-1.72-.37-1.93-1.26-3.37-.08-1.85.51-3.56,2.16-4.7,4.02-.09.46-.39.66-.83.75-.06.31-.13.59-.23.88-.6,1.94-3.54,1.4-3.75-.45-.06-.6-.64-.97-1.18-1.26-.23-.14-.39-.31-.55-.49-.83-.25-1.66-.45-2.57-.62-.25.17-.5.37-.83.66-1.02.91-2.12,1.68-3.59,1.97-1.82.37-3.26-.29-4.67-1.26-1.1-.77-.83-.63-2.37-.77-.06,0-.17-.06-.27-.06-1.94.6-3.56,1.43-4.33,2.48-.25,4.05,3.56,8.68,9.48,7.73,1.47-.23,1.9-.57,1.99-.74.03.22.36.8,1.66,1.97,1.87,1.65,5.49,3.11,8.22,3.11,1.88,0,4.83-.66,6.82-1.77,1.54,3.71,6.99,5.25,10.8,3.28.67-.34,1.29-.86,1.96-1.43,2.65,4.71,9.95,3.71,12.9-.4,2.85,4.03,9.39,3.51,12.37.2,1.04,3.76,4.78,5.42,8.34,4.88.8,0,1.6-.11,2.43-.34-.44.63-.92,1.37-1.5,2.23-5.47,3.99-.58,11.24,5.38,11.53-.89-.06-.56.89-.56,1.86,0,2.86,2.08,5.34,5.03,6.34.03,3.36.8,6.76,3.17,10.27,2.76,4.11,9.23,5.48,14.61,4.51,1.96,3.83,2.27,7.28-2.92,8.02-2.7.37-4.42,2.65-5.28,4.71-.13.31-.23.59-.39.91-.86,2.09-.06,4.14,1.38,5.77-2.37,1.49-3.78,4.03-2.66,7.02,1.77,4.65,2.63,8.64-.56,13.21-2.57,3.65-.24,8.04,3.87,9.64-.55.77-1.05,1.57-1.47,2.4,5.22,1.79,10,3.28,15.35.4.86-.45,1.73-.57,2.46-.48.55-.83,1.03-1.69,1.32-2.6,1.35-4.43-1.24-7.31-4.86-9.33.44-1.34.74-2.72.86-4.06,1.41-.22,2.73-.77,3.71-1.77Z"/>
        <g class="cls-2">
          <path class="cls-7" d="m320.78,201.64c1.54-10.79,14.42-11.47,15.93-6.05,3.04-9.44,19.71-.68,24.27,8.1,3.01-12.16,10.6-14.87,12.1-8.79,1.54-8.1,14.42-4.74,17.46,4.02,3.78-9.42,10.61-6.74,10.61-2.68,7.56-6.08,18.9,2.02,19.67,11.47,6.82-6.08,18.2-1.34,12.15,4.74,14.38-2.71,15.14,9.45,15.14,9.45,0,0,2.48-5.88,10.55-6.85,1.02-4.48.22-9.1-3.43-12.98-4.09-4.45-8.32-5.14-12.59-3,.44-3.6-.86-7.59-4.58-9.08-4.56-1.79-7.45,1.46-9.42,4.88-.74-1.54-1.77-3.02-3.34-3.42-2.98-.71-4.23,1.83-5.44,4.25-.67-5.17-2.38-11.93-8.15-12.04-5.8-.15-8.94,4.05-10.79,8.59-.82-3.62-2.15-7.33-5.85-8.33-2.21-.63-3.87,1.45-4.99,3.91-.58-1.34-1.54-2.34-3.12-2.37-2.4-.06-4.09,1.26-5.44,2.94-1.03-5.25-4.75-11.04-10-11.29-4.17-.23-5.55,3.5-6.02,7.13-1.38-1.75-3.18-3.03-5.68-2.4-3.84.97-3.68,8.02-3.62,12.73-4.81-4.48-12.95-10.22-17.95-9.08-1.05-2.48-3.68-3.94-8.42-3.29-9.36,1.35-13.37,7.99-13.62,15.62-3.04-1.51-7.12-2.71-9.48-.4,4.75-.22,9.97.6,14.03,4.22Z"/>
          <path class="cls-7" d="m356.42,367.68c-7.56,9.44-22.72,2.71-10.6-10.79-6.07.68-23.5-1.38-20.44-12.16-2.29,0-15.93,3.4-10.64-6.08-4.52.69-18.17,1.38-18.94-12.81-12.89,2.71-24.25-5.42-18.17-19.58-16.66,3.37-18.2-16.89-3.81-23.63-4.56-2.71-8.34-6.04.77-9.44-9.85-5.39-5.33-8.1,6.05-12.81-3.2-3.28-4.84-6.02-5.64-8.31-3.17-.34-6.3.2-9.06,2.28-3.31,2.46-1.35,5.91,1.5,8.71-6.02-1.17-12.76-.91-15.41,4.17-2.66,5.19,5.57,13.35,11.37,17.72-3.9.45-8.36,1.56-9.31,4.71-1.1,3.48,2.74,5.82,6.08,6.94-.28,1.85.25,3.37,1.35,4.47-1.93,1.23-3.14,3.34-3.56,6.76-.49,3.94,1.85,7.25,5.16,9.68-4.67,1.54-9.39,4.11-10.89,8.28-2.21,6.02.45,11.02,4.36,15.98,1.83,2.25,5.13,6.53,8.9,5.59,2.15-.54,3.12-2.42,3.43-4.68,1.96,1.97,4.61,3.34,7.73,3.37.77,0,1.63-.14,2.49-.4.67,3.39,2.37,6.85,4.05,8.45,2.77,2.65,7.27,2.05,10.86.06-1.07,5.74,1.36,11.02,8.81,13.67,6.63,2.35,12.62-.74,16.33-5.36.42,3.71,2.12,7.14,6.48,8.71,3.04,1.08,7.18,2.17,10.77,1.97-2.79,3.91-4.72,8.34-1.66,12.1,3.9,4.8,11.05,3.28,15.35-.17.47,3.99,2.27,7.36,6.05,10.3,2.95,2.34,8.4,3.28,11.6.74.96-.74,1.69-1.6,2.31-2.49-8.94-6.56-13.14-17.44-13.65-25.94Z"/>
        </g>
      </g>
    </g>
  </g>
</svg>