<?xml version="1.0" encoding="UTF-8"?>
<svg xmlns="http://www.w3.org/2000/svg" viewBox="0 0 98.92 100.48">
  <defs>
    <style>
      .cls-1 {
        fill: #719e39;
      }

      .cls-2 {
        isolation: isolate;
      }

      .cls-3 {
        fill: #76a1cd;
      }

      .cls-4 {
        fill: #acdb6c;
      }

      .cls-5 {
        fill: #98d14f;
      }

      .cls-6 {
        mix-blend-mode: screen;
      }

      .cls-7 {
        fill: #87c23e;
      }

      .cls-8 {
        fill: #689134;
      }

      .cls-9 {
        fill: #916a3c;
      }

      .cls-10 {
        fill: #78ad37;
      }

      .cls-11 {
        fill: #916c46;
      }

      .cls-12 {
        fill: #231f20;
      }
    </style>
  </defs>
  <g class="cls-2">
    <g id="Layer_1" data-name="Layer 1">
      <g>
        <g>
          <path class="cls-3" d="m49.9,40.51c6,1.3,9.81,7.16,8.53,13.11-1.29,5.95-7.19,9.72-13.19,8.42-6-1.29-9.81-7.17-8.53-13.11,1.29-5.95,7.19-9.71,13.19-8.42Z"/>
          <path class="cls-11" d="m49.42,43.44c4.69,1.02,7.67,5.64,6.65,10.33-1.01,4.69-5.64,7.67-10.33,6.66-4.69-1.01-7.67-5.64-6.65-10.33,1.01-4.69,5.64-7.67,10.33-6.66Z"/>
        </g>
        <g>
          <path class="cls-9" d="m49.53,54.32c-2.13-.02-3.85-1.84-3.83-4.06.02-2.22,1.77-4.01,3.9-3.99,2.13.02,3.85,1.83,3.83,4.05-.02,2.22-1.76,4.01-3.9,3.99Z"/>
          <g>
            <g>
              <path class="cls-7" d="m65.94,91.52c-.32-.74-.61-1.5-.87-2.27-1.05-2.17-1.03-4.85-1.58-7.25-.1-.83-.16-1.67-.21-2.51-.04-.84-.07-1.68-.06-2.52-.07-1.01-.15-2.01-.24-3-1-.16-2.07-.39-3.15-.59-1.07-.2-2.14-.35-3.15-.36.87-.44,1.87-.8,2.87-1.17,1.01-.36,2.01-.73,2.87-1.17-1.11-3.58-1.36-8.65-5.36-9.58-2.28-.62-4.57-.93-6.57-1.85.84,1.8,1.4,3.89,1.95,5.68.28.9.49,1.87.69,2.84.21.97.41,1.94.69,2.84.11.9.23,1.79.35,2.67,1.56,7.77,2.92,15.83,7.63,22.57.26.73.48,1.48.63,2.25.16.77.26,1.56.29,2.38,2.88-1.76,4.63-5.62,3.18-8.96h0Z"/>
              <path class="cls-10" d="m55.29,89.05c-1.04,1.52-3.33,1.5-3.06,3.59.54,3.58,3.68,5.7,6.67,6.69.66.28,1.34.51,2.03.71.69.19,1.4.34,2.11.44-.13-.99-.36-1.94-.64-2.85-4.43-7.03-7.22-14.8-8.18-23.27-.09-.93-.14-1.87-.17-2.81-.15-.72-.3-1.43-.47-2.15-.83-3.59-1.95-6.87-2.78-10.16-1.17,2.37-3.75,2.95-5.48,5.02-1.16,1.48-.89,3.27-.62,5.06.18.95.35,1.89.53,2.83.18.94.35,1.86.53,2.79,1.42,5.73,1.03,18.24,9.54,14.11h0Z"/>
              <path class="cls-8" d="m47.46,48.79c.57-.29,1.15-.59,1.43-.29,2.25,4.49,2.78,9.26,3.6,14.04.63,2.74,1.18,5.46,1.68,8.17.17.91.39,1.8.48,2.71.76,7.67,2.76,15.69,7.34,22.02.34.74.63,1.51.85,2.29.23.79.11,1.9.19,2.74-.28-.94-.35-2.05-.72-2.95-4.65-7.41-7.99-15.6-9-24.55-.1-.99-.17-1.99-.21-3-.17-.98-.35-1.97-.55-2.96-.2-.99-.42-1.99-.66-2.98-1.38-5.38-2.49-10.45-4.45-15.24h0Z"/>
            </g>
            <g>
              <path class="cls-10" d="m50.68,7.25c-.87,2.22-.6,4.31-2.34,5.78,2.57,1.51,5.14,2.43,7.41,4.24-3.71-1.22-8.85-3.06-9.7,2.65-.24.73-.47,1.45-.69,2.15-.66,2.12-1.2,4.16-1.39,6.33-.11.73-.22,1.48-.31,2.23-.04.87-.03,1.75.05,2.64.07.88.21,1.78.42,2.67.28,1.49.84,2.69,2.55,3.6,1.42.61,3.14,1.52,4.27,3.02.24-4.45.82-8.86,1.54-13.25.15-.88.3-1.76.46-2.63,3.36-8.5,6.87-17.12,4.09-26.68-3.16,1.46-5.19,4.42-6.37,7.25h0Z"/>
              <path class="cls-7" d="m56.13,25.96c1.55-.03,3.26.88,4.7,0,3.75-3.24,4.37-8.6,4.12-13.08-1.72.28-2.85-1.22-4.58-.93,1.15-.59,3.15.32,3.44-.86.9-4.76-3.65-8.08-6.78-11.08,2.78,9.86-1.31,18.76-4.36,28.08-.12.8-.24,1.61-.36,2.41-.61,4.01-1.16,7.98-1.37,12.08,2.01-.88,4.02-1.46,6.32-2.03,2.31-1.97,2.84-5.01,3.29-8.05.11-.76.22-1.52.35-2.26,1.92-3.35-2.96-2.49-4.78-4.26h0Z"/>
              <path class="cls-8" d="m50.28,53.58c-.57,0-1.15,0-1.15,0-.52-5.97.67-11.62,1.59-17.57.45-2.28.92-4.55,1.39-6.81.16-.75.31-1.5.47-2.24,3.73-8.48,6.67-17.4,4.46-26.95,1.1,5.37,2.48,10.75.72,16.1-1.47,4.16-3.79,8.31-4.52,12.84-.19,1.02-.38,2.04-.56,3.06-1.28,7.14-2.34,14.29-2.41,21.59h0Z"/>
            </g>
            <g>
              <path class="cls-5" d="m80.66,82.95c-1.69-2.59-6.84-3.23-3.8-7.08.44-1.04.88-2.08,1.03-3.27-1.16,1.78-3.18,3.25-4.06,5.33-5.69-3.92-12.26-6.66-16.21-12.96-1.13-1.5-.26-3.28.33-5.06.29-1.19.3-2.38.03-3.58,1.71.61,3.13,2.12,4.84,3.02,5.12,3.62,9.74,7.61,14.36,11.45.77.64,1.54,1.28,2.31,1.91,3.52,3.51,4.61,8.88,7.73,12.48-2.59,1.17-4.57-.93-6.57-2.25h0Z"/>
              <path class="cls-5" d="m73.39,63.92c1.16-1.48,2.6-2.66,4.04-3.84,1.71,1.5,3.34,2.93,4.86,4.47.51.51,1.01,1.04,1.49,1.58.52.58.99,1.17,1.43,1.76,1.36.9,1.32,2.02.77,3.15-.64,1.02-1.22,2.21-2.09,3.1,1.15-.59,1.74-2.67,2.88-1.76,4.27,2.72,2.21,8.96.46,12.82-3.41-3.31-3.36-8.97-7.31-11.99-.49-.44-1-.87-1.53-1.29-.78-.63-1.54-1.26-2.3-1.89-6.08-5.02-11.71-9.89-18.09-13.99,2.29.02,4.03-2.35,6.04-2.93,4.6-1.75,8.57,2.76,11.98,5.47-.87,1.78-1.75,3.56-2.62,5.34h0Z"/>
              <path class="cls-10" d="m49.75,49.11c0,.6-.3,1.19-.87,1.48,6.55,3.63,12.53,8.16,18.5,13.27,3.2,2.82,6.28,5.29,9.54,7.78.65.5,1.31,1,1.98,1.5,4.42,2.78,4.65,8.74,8.34,12.05-2.54-3.9-3.65-8.97-7.35-11.97-.87-.71-1.74-1.42-2.59-2.13-9.41-7.76-17.63-15.62-27.55-21.99h0Z"/>
            </g>
            <g>
              <path class="cls-1" d="m28.83,49.82c-.02,1.79-.03,3.28-.04,5.07-2.57-.77-5.14-1.53-7.68-2.41-.84-.29-1.68-.6-2.52-.92-3.5-1.85-11.82-1.03-9.76-6.97-.3,2.08-1.46,3.56-3.75,2.95C1.94,46.31-.03,43.01,0,39.44c5.68,6.01,14.03.42,20.8,2.84.92.29,1.84.56,2.75.83,5.49,1.61,10.9,2.89,16.48,3.83-2.31,1.77-2.91,5.04-5.51,7.11-1.44,1.18-3.15.87-4.87.85-.56-1.49-.26-3.28-.81-5.07h0Z"/>
              <path class="cls-10" d="m8.95,33.83c2.86-2.04,4.26,1.55,3.66,4.23.02-1.79.61-3.87,2.11-4.92.67-.47,1.46-.75,2.31-.82.85-.07,1.75.08,2.64.47.97.14,1.93.29,2.9.44.97.15,1.96.31,2.96.46-.29,1.05-.52,2.01-.74,2.98-.22.97-.45,1.93-.74,2.97.58-.89.95-1.85,1.31-2.82.37-.97.73-1.93,1.31-2.83,2,.62,4.29.64,6.4,1.37.7.22,1.38.48,2.02.81,1.29.66,2.43,1.6,3.27,3,.26,2.68.24,5.36,1.65,7.46-3.72-.33-7.72-.96-11.44-1.89-1.72-.51-3.4-1.02-5.07-1.53-.84-.26-1.67-.51-2.5-.76-1.28-.76-2.72-.47-3.86-.48C11.44,41.33,4.83,43.95,0,39.44c2.88-2.06,5.76-3.83,8.95-5.61h0Z"/>
              <path class="cls-8" d="m50.02,50.01c.29-.59.3-1.19.59-1.78-6.59-.36-12.87-2.2-19.44-4.04-3.17-.83-6.32-1.67-9.46-2.46-1.04-.26-2.09-.5-3.11-.62-6.02-.36-13.24,3-18.61-1.66,4.85,5.97,12.59,1.3,18.89,2.64,1.02.23,2.05.53,3.08.84,9.26,2.8,18.54,5.67,28.06,7.09h0Z"/>
            </g>
            <g>
              <path class="cls-10" d="m80.47,26.61c-1.9,1-4.2,1.87-6.35,2.71-.72.27-1.44.54-2.16.81-.81.28-1.63.57-2.44.88-.82.31-1.63.63-2.45.97.56,2.09.25,4.17.8,6.27-.27-.9-.84-1.5-1.41-2.1-.57-.6-.56-1.49-1.13-2.1-.28-.3-.56-.9-.85-.9-1.72.29-2.88,1.47-4.32,2.35-1.15.88-1.74,2.07-2.32,3.55-.6,2.68,1.1,5.08.22,7.75,4.46-3.09,9.21-5.5,14.06-7.81.97-.46,1.94-.92,2.92-1.38.81-.43,1.61-.88,2.38-1.37,4.23-2.05,6.85-6.5,10.31-9.75-2.28-1.21-5.14-1.54-7.27.12h0Z"/>
              <path class="cls-5" d="m81.05,36.5c2.01,1.28,3.71,3.97,5.73,1.31,2.61-3.56,1.21-7.44.96-11.32-4.03,2.65-6.08,7.69-10.57,10.13-.81.5-1.64.95-2.52,1.33-.81.37-1.62.74-2.43,1.11-4.86,2.23-9.65,4.55-14.15,7.73.57.3.86.31,1.43.61,1.99,1.51,2.83,3.9,5.12,4.22,2.57.32,4.59-1.15,6.89-2.32,2.88-1.76,5.88-3.13,8.59-4.89.68-.44,1.34-.91,1.96-1.42,1.63-.81,1.52-1.89.94-3.04-.51-1.28-1.65-2.19-1.94-3.45h0Z"/>
              <path class="cls-8" d="m50.3,51.8c-.29-.3-.85-.9-.85-1.2,6.05-4.42,12.38-7.04,18.99-10.27.86-.59,1.93-.72,2.79-1.01.83-.37,1.68-.77,2.48-1.15.79-.32,1.45-1,2.19-1.41,5.05-1.86,7.24-7.62,11.85-10.26-3.76,3.54-6.37,8.29-11.06,10.98-.85.51-1.74.96-2.67,1.34-.91.46-1.82.92-2.73,1.37-7.26,3.63-14.3,7.14-20.98,11.61h0Z"/>
            </g>
            <g>
              <path class="cls-4" d="m89.76,65.01c-2.07.22-4.66,1.39-6.08-.11-1.42-1.5-.25-4.18-.8-6.57-.3,1.04-.59,2.16-.92,3.27-.33,1.12-.7,2.23-1.14,3.27-6.01-.95-11.72-1.89-17.44-3.73-1.14-.61-1.99-1.21-2.84-2.11-1.41-2.4-.53-5.37-2.23-7.47,4.87.34,9.43,1.87,14.3,2.81,2,.32,3.43,1.22,5.43,1.54.71.23,1.41.46,2.1.68.69.23,1.36.45,2.04.66,5.28,1.72,11.02.88,16.74,1.53-1.75,3.56-5.49,5.31-9.16,6.23h0Z"/>
              <path class="cls-7" d="m75.2,52.31c.87-1.78,1.46-3.56,2.34-5.34,2,.62,3.71,1.52,5.71,2.44,1.14.46,2.21.91,3.3,1.33,3.55.51,3.53,2.9,2.65,5.87.3-1.78,1.18-3.86,2.33-3.85,2.86.02,6.85,2.15,7.39,6.03-5.15-.64-10.31.21-15.52-1.02-.76-.17-1.51-.37-2.26-.58-.75-.21-1.5-.44-2.25-.67-3.71-1.22-7.14-2.15-10.85-3.37-3.14-.92-6.58-.95-9.72-1.87,2.02-1.17,2.61-3.26,4.05-5.03,3.47-3.84,9.17-.81,13.46.12-.3,2.08-.32,3.87-.62,5.95h0Z"/>
              <path class="cls-10" d="m48.03,48.2c0,.59-.01,1.19-.3,1.79,7.44.36,14.58,2.51,22.01,4.66,2.92.83,5.8,1.63,8.68,2.38.96.25,1.92.5,2.88.73,5.59,1.8,11.61.36,17.62,1.31-5.42-2.13-11.46-.1-16.88-1.63-.28,0-.85-.61-1.14-.61-.86-.31-2-.32-2.86-.62-5.14-1.54-9.71-3.66-14.85-4.6-.86-.31-1.71-.61-2.57-.92-4.28-1.23-8.29-1.56-12.58-2.5h0Z"/>
            </g>
            <g>
              <path class="cls-1" d="m21.41,23.3c2.18,4.12,3.86,8.61,6.4,12.5.57.6,1.14,1.2,1.41,2.1.86-.59,1.87-.95,2.87-1.32,1.01-.37,2.01-.73,2.88-1.32-.58.89-1.23,1.7-1.92,2.48-.69.78-1.41,1.52-2.14,2.25,1.14,1.2,2.27,2.4,3.4,3.9.28.3.85.6,1.42.91,2.28,1.21,4.59-.26,6.6-.84.57-.29,1.43-.58,2.01-.88.28,0,.57,0,.86,0-2.27-2.4-4.54-4.81-6.52-7.21-.59-.75-1.18-1.49-1.77-2.24-4.16-7.05-8.39-14.84-15.8-19.07-.88,2.67-.63,5.95.29,8.71h0Z"/>
              <path class="cls-7" d="m30.58,19.65c.24-1.1,1.68-1.98,1.69-3.17-.27-1.79-1.98-3-3.41-3.31-2.86-.32-5.44.25-7.75,1.42,8.27,3.95,11.91,13.22,16.67,20.33.48.62.97,1.25,1.46,1.89,1.99,2.1,3.68,4.5,5.96,6.31.31-2.38,2.33-4.45,2.92-6.83.3-1.19-.55-2.39-1.11-3.59-.49-.71-1-1.41-1.51-2.08-.51-.68-1.03-1.34-1.56-1.99-3.44-4.04-6.27-8.53-9.67-12.44-1.16,1.48-2.6,2.36-3.7,3.45h0Z"/>
              <path class="cls-8" d="m52.03,49.72c-.29.3-.87,1.18-1.15,1.18-4.81-4.56-8.73-9.62-12.63-14.83-.56-.75-1.11-1.49-1.67-2.25-4.97-6.33-8.05-15.12-15.39-19.13,8.56,3.35,11.85,12.81,17.08,20.07.61.78,1.23,1.56,1.85,2.34,1.14.9,1.99,2.1,2.83,3.3.29.3.86.6,1.14.9,2.26,3.3,5.1,5.71,7.94,8.42h0Z"/>
            </g>
            <g>
              <path class="cls-1" d="m30.74,61.16c0-.89-.27-1.49-.84-2.09-.28-.6-.27-1.49-.56-2.09-4.03,2.35-6.92,5.6-10.67,8.55-.58.59-1.17,1.17-1.76,1.74-.59.57-1.18,1.14-1.74,1.74-.86.61-1.45,1.25-1.81,1.92-1.34,2.6.35,4.99,1.77,6.8-.85-1.5-2.27-2.7-3.4-3.9-1.75,4.16-2.36,8.62-1.83,13.1,3.75-3.25,6.08-7.1,9.48-10.68.54-.54,1.08-1.06,1.63-1.58.54-.51,1.08-1.02,1.63-1.53.8-.65,1.61-1.26,2.43-1.87,2.46-1.82,4.93-3.66,7.36-5.61,2.89-2.66,6.06-5.01,8.66-7.97-.29,0-.57,0-.86,0-3.42-1.52-7.12-4.83-10.3-1.28.27,1.49.26,3.28.82,4.78h0Z"/>
              <path class="cls-10" d="m19.03,85.85c2.63-1.22,2.37-4.2,1.25-6.3.27,1.49,1.41,2.1,2.55,2.31.93-.04,1.95-.67,3.02-1.44,1.08-.78,2.22-1.69,3.39-2.29.55-.33,1.11-.68,1.67-1.02.56-.34,1.13-.68,1.7-1.03-.56-1.79-2.27-3-3.11-4.5,1.42,1.21,2.84,2.41,4.26,3.61,2.01-1.17,4.03-2.65,5.76-4.42,1.45-1.48,2.32-2.96,2.91-4.74.29-.89-.27-2.09-.55-2.98-.27-1.79-.83-3.58-.81-5.37-4.51,4.61-9.52,8.36-14.62,12.15-.85.63-1.7,1.27-2.55,1.91-.66.53-1.31,1.07-1.94,1.63-.63.56-1.24,1.13-1.85,1.71-3.84,3.55-6.18,8.6-10.21,11.84,3.14,1.22,6.3.35,9.13-1.06h0Z"/>
              <path class="cls-8" d="m48.88,50.29c.28.3.85.9.85,1.2-6.36,6.8-12.99,11.81-20.77,17.1-.57.3-.86.29-1.44.58-.83.66-1.64,1.31-2.45,1.95-.8.64-1.59,1.28-2.36,1.95-.55.51-1.09,1.04-1.62,1.59-.53.55-1.05,1.11-1.56,1.7-2.99,3.74-5.51,8.21-9.63,10.54,3.91-3.24,6.38-8.59,9.99-12.03.58-.6,1.17-1.19,1.78-1.75.61-.57,1.24-1.12,1.9-1.64.71-.54,1.41-1.08,2.12-1.61,4.24-3.2,8.46-6.31,12.79-9.84,1.45-1.48,2.89-2.66,4.33-3.84,2.02-2.07,4.04-3.84,6.07-5.91h0Z"/>
            </g>
          </g>
          <path class="cls-8" d="m49.56,52.98c-1.52-.01-2.74-1.31-2.73-2.89.01-1.58,1.26-2.86,2.78-2.84,1.52.01,2.75,1.31,2.73,2.89-.01,1.58-1.26,2.86-2.78,2.84Z"/>
        </g>
        <g class="cls-6">
          <path class="cls-12" d="m49.53,54.32c-2.13-.02-3.85-1.84-3.83-4.06.02-2.22,1.77-4.01,3.9-3.99,2.13.02,3.85,1.83,3.83,4.05-.02,2.22-1.76,4.01-3.9,3.99Z"/>
          <g>
            <g>
              <path class="cls-12" d="m65.94,91.52c-.32-.74-.61-1.5-.87-2.27-1.05-2.17-1.03-4.85-1.58-7.25-.1-.83-.16-1.67-.21-2.51-.04-.84-.07-1.68-.06-2.52-.07-1.01-.15-2.01-.24-3-1-.16-2.07-.39-3.15-.59-1.07-.2-2.14-.35-3.15-.36.87-.44,1.87-.8,2.87-1.17,1.01-.36,2.01-.73,2.87-1.17-1.11-3.58-1.36-8.65-5.36-9.58-2.28-.62-4.57-.93-6.57-1.85.84,1.8,1.4,3.89,1.95,5.68.28.9.49,1.87.69,2.84.21.97.41,1.94.69,2.84.11.9.23,1.79.35,2.67,1.56,7.77,2.92,15.83,7.63,22.57.26.73.48,1.48.63,2.25.16.77.26,1.56.29,2.38,2.88-1.76,4.63-5.62,3.18-8.96h0Z"/>
              <path class="cls-12" d="m55.29,89.05c-1.04,1.52-3.33,1.5-3.06,3.59.54,3.58,3.68,5.7,6.67,6.69.66.28,1.34.51,2.03.71.69.19,1.4.34,2.11.44-.13-.99-.36-1.94-.64-2.85-4.43-7.03-7.22-14.8-8.18-23.27-.09-.93-.14-1.87-.17-2.81-.15-.72-.3-1.43-.47-2.15-.83-3.59-1.95-6.87-2.78-10.16-1.17,2.37-3.75,2.95-5.48,5.02-1.16,1.48-.89,3.27-.62,5.06.18.95.35,1.89.53,2.83.18.94.35,1.86.53,2.79,1.42,5.73,1.03,18.24,9.54,14.11h0Z"/>
              <path class="cls-12" d="m47.46,48.79c.57-.29,1.15-.59,1.43-.29,2.25,4.49,2.78,9.26,3.6,14.04.63,2.74,1.18,5.46,1.68,8.17.17.91.39,1.8.48,2.71.76,7.67,2.76,15.69,7.34,22.02.34.74.63,1.51.85,2.29.23.79.11,1.9.19,2.74-.28-.94-.35-2.05-.72-2.95-4.65-7.41-7.99-15.6-9-24.55-.1-.99-.17-1.99-.21-3-.17-.98-.35-1.97-.55-2.96-.2-.99-.42-1.99-.66-2.98-1.38-5.38-2.49-10.45-4.45-15.24h0Z"/>
            </g>
            <g>
              <path class="cls-12" d="m50.68,7.25c-.87,2.22-.6,4.31-2.34,5.78,2.57,1.51,5.14,2.43,7.41,4.24-3.71-1.22-8.85-3.06-9.7,2.65-.24.73-.47,1.45-.69,2.15-.66,2.12-1.2,4.16-1.39,6.33-.11.73-.22,1.48-.31,2.23-.04.87-.03,1.75.05,2.64.07.88.21,1.78.42,2.67.28,1.49.84,2.69,2.55,3.6,1.42.61,3.14,1.52,4.27,3.02.24-4.45.82-8.86,1.54-13.25.15-.88.3-1.76.46-2.63,3.36-8.5,6.87-17.12,4.09-26.68-3.16,1.46-5.19,4.42-6.37,7.25h0Z"/>
              <path class="cls-12" d="m56.13,25.96c1.55-.03,3.26.88,4.7,0,3.75-3.24,4.37-8.6,4.12-13.08-1.72.28-2.85-1.22-4.58-.93,1.15-.59,3.15.32,3.44-.86.9-4.76-3.65-8.08-6.78-11.08,2.78,9.86-1.31,18.76-4.36,28.08-.12.8-.24,1.61-.36,2.41-.61,4.01-1.16,7.98-1.37,12.08,2.01-.88,4.02-1.46,6.32-2.03,2.31-1.97,2.84-5.01,3.29-8.05.11-.76.22-1.52.35-2.26,1.92-3.35-2.96-2.49-4.78-4.26h0Z"/>
              <path class="cls-12" d="m50.28,53.58c-.57,0-1.15,0-1.15,0-.52-5.97.67-11.62,1.59-17.57.45-2.28.92-4.55,1.39-6.81.16-.75.31-1.5.47-2.24,3.73-8.48,6.67-17.4,4.46-26.95,1.1,5.37,2.48,10.75.72,16.1-1.47,4.16-3.79,8.31-4.52,12.84-.19,1.02-.38,2.04-.56,3.06-1.28,7.14-2.34,14.29-2.41,21.59h0Z"/>
            </g>
            <g>
              <path class="cls-12" d="m80.66,82.95c-1.69-2.59-6.84-3.23-3.8-7.08.44-1.04.88-2.08,1.03-3.27-1.16,1.78-3.18,3.25-4.06,5.33-5.69-3.92-12.26-6.66-16.21-12.96-1.13-1.5-.26-3.28.33-5.06.29-1.19.3-2.38.03-3.58,1.71.61,3.13,2.12,4.84,3.02,5.12,3.62,9.74,7.61,14.36,11.45.77.64,1.54,1.28,2.31,1.91,3.52,3.51,4.61,8.88,7.73,12.48-2.59,1.17-4.57-.93-6.57-2.25h0Z"/>
              <path class="cls-12" d="m73.39,63.92c1.16-1.48,2.6-2.66,4.04-3.84,1.71,1.5,3.34,2.93,4.86,4.47.51.51,1.01,1.04,1.49,1.58.52.58.99,1.17,1.43,1.76,1.36.9,1.32,2.02.77,3.15-.64,1.02-1.22,2.21-2.09,3.1,1.15-.59,1.74-2.67,2.88-1.76,4.27,2.72,2.21,8.96.46,12.82-3.41-3.31-3.36-8.97-7.31-11.99-.49-.44-1-.87-1.53-1.29-.78-.63-1.54-1.26-2.3-1.89-6.08-5.02-11.71-9.89-18.09-13.99,2.29.02,4.03-2.35,6.04-2.93,4.6-1.75,8.57,2.76,11.98,5.47-.87,1.78-1.75,3.56-2.62,5.34h0Z"/>
              <path class="cls-12" d="m49.75,49.11c0,.6-.3,1.19-.87,1.48,6.55,3.63,12.53,8.16,18.5,13.27,3.2,2.82,6.28,5.29,9.54,7.78.65.5,1.31,1,1.98,1.5,4.42,2.78,4.65,8.74,8.34,12.05-2.54-3.9-3.65-8.97-7.35-11.97-.87-.71-1.74-1.42-2.59-2.13-9.41-7.76-17.63-15.62-27.55-21.99h0Z"/>
            </g>
            <g>
              <path class="cls-12" d="m28.83,49.82c-.02,1.79-.03,3.28-.04,5.07-2.57-.77-5.14-1.53-7.68-2.41-.84-.29-1.68-.6-2.52-.92-3.5-1.85-11.82-1.03-9.76-6.97-.3,2.08-1.46,3.56-3.75,2.95C1.94,46.31-.03,43.01,0,39.44c5.68,6.01,14.03.42,20.8,2.84.92.29,1.84.56,2.75.83,5.49,1.61,10.9,2.89,16.48,3.83-2.31,1.77-2.91,5.04-5.51,7.11-1.44,1.18-3.15.87-4.87.85-.56-1.49-.26-3.28-.81-5.07h0Z"/>
              <path class="cls-12" d="m8.95,33.83c2.86-2.04,4.26,1.55,3.66,4.23.02-1.79.61-3.87,2.11-4.92.67-.47,1.46-.75,2.31-.82.85-.07,1.75.08,2.64.47.97.14,1.93.29,2.9.44.97.15,1.96.31,2.96.46-.29,1.05-.52,2.01-.74,2.98-.22.97-.45,1.93-.74,2.97.58-.89.95-1.85,1.31-2.82.37-.97.73-1.93,1.31-2.83,2,.62,4.29.64,6.4,1.37.7.22,1.38.48,2.02.81,1.29.66,2.43,1.6,3.27,3,.26,2.68.24,5.36,1.65,7.46-3.72-.33-7.72-.96-11.44-1.89-1.72-.51-3.4-1.02-5.07-1.53-.84-.26-1.67-.51-2.5-.76-1.28-.76-2.72-.47-3.86-.48C11.44,41.33,4.83,43.95,0,39.44c2.88-2.06,5.76-3.83,8.95-5.61h0Z"/>
              <path class="cls-12" d="m50.02,50.01c.29-.59.3-1.19.59-1.78-6.59-.36-12.87-2.2-19.44-4.04-3.17-.83-6.32-1.67-9.46-2.46-1.04-.26-2.09-.5-3.11-.62-6.02-.36-13.24,3-18.61-1.66,4.85,5.97,12.59,1.3,18.89,2.64,1.02.23,2.05.53,3.08.84,9.26,2.8,18.54,5.67,28.06,7.09h0Z"/>
            </g>
            <g>
              <path class="cls-12" d="m80.47,26.61c-1.9,1-4.2,1.87-6.35,2.71-.72.27-1.44.54-2.16.81-.81.28-1.63.57-2.44.88-.82.31-1.63.63-2.45.97.56,2.09.25,4.17.8,6.27-.27-.9-.84-1.5-1.41-2.1-.57-.6-.56-1.49-1.13-2.1-.28-.3-.56-.9-.85-.9-1.72.29-2.88,1.47-4.32,2.35-1.15.88-1.74,2.07-2.32,3.55-.6,2.68,1.1,5.08.22,7.75,4.46-3.09,9.21-5.5,14.06-7.81.97-.46,1.94-.92,2.92-1.38.81-.43,1.61-.88,2.38-1.37,4.23-2.05,6.85-6.5,10.31-9.75-2.28-1.21-5.14-1.54-7.27.12h0Z"/>
              <path class="cls-12" d="m81.05,36.5c2.01,1.28,3.71,3.97,5.73,1.31,2.61-3.56,1.21-7.44.96-11.32-4.03,2.65-6.08,7.69-10.57,10.13-.81.5-1.64.95-2.52,1.33-.81.37-1.62.74-2.43,1.11-4.86,2.23-9.65,4.55-14.15,7.73.57.3.86.31,1.43.61,1.99,1.51,2.83,3.9,5.12,4.22,2.57.32,4.59-1.15,6.89-2.32,2.88-1.76,5.88-3.13,8.59-4.89.68-.44,1.34-.91,1.96-1.42,1.63-.81,1.52-1.89.94-3.04-.51-1.28-1.65-2.19-1.94-3.45h0Z"/>
              <path class="cls-12" d="m50.3,51.8c-.29-.3-.85-.9-.85-1.2,6.05-4.42,12.38-7.04,18.99-10.27.86-.59,1.93-.72,2.79-1.01.83-.37,1.68-.77,2.48-1.15.79-.32,1.45-1,2.19-1.41,5.05-1.86,7.24-7.62,11.85-10.26-3.76,3.54-6.37,8.29-11.06,10.98-.85.51-1.74.96-2.67,1.34-.91.46-1.82.92-2.73,1.37-7.26,3.63-14.3,7.14-20.98,11.61h0Z"/>
            </g>
            <g>
              <path class="cls-12" d="m89.76,65.01c-2.07.22-4.66,1.39-6.08-.11-1.42-1.5-.25-4.18-.8-6.57-.3,1.04-.59,2.16-.92,3.27-.33,1.12-.7,2.23-1.14,3.27-6.01-.95-11.72-1.89-17.44-3.73-1.14-.61-1.99-1.21-2.84-2.11-1.41-2.4-.53-5.37-2.23-7.47,4.87.34,9.43,1.87,14.3,2.81,2,.32,3.43,1.22,5.43,1.54.71.23,1.41.46,2.1.68.69.23,1.36.45,2.04.66,5.28,1.72,11.02.88,16.74,1.53-1.75,3.56-5.49,5.31-9.16,6.23h0Z"/>
              <path class="cls-12" d="m75.2,52.31c.87-1.78,1.46-3.56,2.34-5.34,2,.62,3.71,1.52,5.71,2.44,1.14.46,2.21.91,3.3,1.33,3.55.51,3.53,2.9,2.65,5.87.3-1.78,1.18-3.86,2.33-3.85,2.86.02,6.85,2.15,7.39,6.03-5.15-.64-10.31.21-15.52-1.02-.76-.17-1.51-.37-2.26-.58-.75-.21-1.5-.44-2.25-.67-3.71-1.22-7.14-2.15-10.85-3.37-3.14-.92-6.58-.95-9.72-1.87,2.02-1.17,2.61-3.26,4.05-5.03,3.47-3.84,9.17-.81,13.46.12-.3,2.08-.32,3.87-.62,5.95h0Z"/>
              <path class="cls-12" d="m48.03,48.2c0,.59-.01,1.19-.3,1.79,7.44.36,14.58,2.51,22.01,4.66,2.92.83,5.8,1.63,8.68,2.38.96.25,1.92.5,2.88.73,5.59,1.8,11.61.36,17.62,1.31-5.42-2.13-11.46-.1-16.88-1.63-.28,0-.85-.61-1.14-.61-.86-.31-2-.32-2.86-.62-5.14-1.54-9.71-3.66-14.85-4.6-.86-.31-1.71-.61-2.57-.92-4.28-1.23-8.29-1.56-12.58-2.5h0Z"/>
            </g>
            <g>
              <path class="cls-12" d="m21.41,23.3c2.18,4.12,3.86,8.61,6.4,12.5.57.6,1.14,1.2,1.41,2.1.86-.59,1.87-.95,2.87-1.32,1.01-.37,2.01-.73,2.88-1.32-.58.89-1.23,1.7-1.92,2.48-.69.78-1.41,1.52-2.14,2.25,1.14,1.2,2.27,2.4,3.4,3.9.28.3.85.6,1.42.91,2.28,1.21,4.59-.26,6.6-.84.57-.29,1.43-.58,2.01-.88.28,0,.57,0,.86,0-2.27-2.4-4.54-4.81-6.52-7.21-.59-.75-1.18-1.49-1.77-2.24-4.16-7.05-8.39-14.84-15.8-19.07-.88,2.67-.63,5.95.29,8.71h0Z"/>
              <path class="cls-12" d="m30.58,19.65c.24-1.1,1.68-1.98,1.69-3.17-.27-1.79-1.98-3-3.41-3.31-2.86-.32-5.44.25-7.75,1.42,8.27,3.95,11.91,13.22,16.67,20.33.48.62.97,1.25,1.46,1.89,1.99,2.1,3.68,4.5,5.96,6.31.31-2.38,2.33-4.45,2.92-6.83.3-1.19-.55-2.39-1.11-3.59-.49-.71-1-1.41-1.51-2.08-.51-.68-1.03-1.34-1.56-1.99-3.44-4.04-6.27-8.53-9.67-12.44-1.16,1.48-2.6,2.36-3.7,3.45h0Z"/>
              <path class="cls-12" d="m52.03,49.72c-.29.3-.87,1.18-1.15,1.18-4.81-4.56-8.73-9.62-12.63-14.83-.56-.75-1.11-1.49-1.67-2.25-4.97-6.33-8.05-15.12-15.39-19.13,8.56,3.35,11.85,12.81,17.08,20.07.61.78,1.23,1.56,1.85,2.34,1.14.9,1.99,2.1,2.83,3.3.29.3.86.6,1.14.9,2.26,3.3,5.1,5.71,7.94,8.42h0Z"/>
            </g>
            <g>
              <path class="cls-12" d="m30.74,61.16c0-.89-.27-1.49-.84-2.09-.28-.6-.27-1.49-.56-2.09-4.03,2.35-6.92,5.6-10.67,8.55-.58.59-1.17,1.17-1.76,1.74-.59.57-1.18,1.14-1.74,1.74-.86.61-1.45,1.25-1.81,1.92-1.34,2.6.35,4.99,1.77,6.8-.85-1.5-2.27-2.7-3.4-3.9-1.75,4.16-2.36,8.62-1.83,13.1,3.75-3.25,6.08-7.1,9.48-10.68.54-.54,1.08-1.06,1.63-1.58.54-.51,1.08-1.02,1.63-1.53.8-.65,1.61-1.26,2.43-1.87,2.46-1.82,4.93-3.66,7.36-5.61,2.89-2.66,6.06-5.01,8.66-7.97-.29,0-.57,0-.86,0-3.42-1.52-7.12-4.83-10.3-1.28.27,1.49.26,3.28.82,4.78h0Z"/>
              <path class="cls-12" d="m19.03,85.85c2.63-1.22,2.37-4.2,1.25-6.3.27,1.49,1.41,2.1,2.55,2.31.93-.04,1.95-.67,3.02-1.44,1.08-.78,2.22-1.69,3.39-2.29.55-.33,1.11-.68,1.67-1.02.56-.34,1.13-.68,1.7-1.03-.56-1.79-2.27-3-3.11-4.5,1.42,1.21,2.84,2.41,4.26,3.61,2.01-1.17,4.03-2.65,5.76-4.42,1.45-1.48,2.32-2.96,2.91-4.74.29-.89-.27-2.09-.55-2.98-.27-1.79-.83-3.58-.81-5.37-4.51,4.61-9.52,8.36-14.62,12.15-.85.63-1.7,1.27-2.55,1.91-.66.53-1.31,1.07-1.94,1.63-.63.56-1.24,1.13-1.85,1.71-3.84,3.55-6.18,8.6-10.21,11.84,3.14,1.22,6.3.35,9.13-1.06h0Z"/>
              <path class="cls-12" d="m48.88,50.29c.28.3.85.9.85,1.2-6.36,6.8-12.99,11.81-20.77,17.1-.57.3-.86.29-1.44.58-.83.66-1.64,1.31-2.45,1.95-.8.64-1.59,1.28-2.36,1.95-.55.51-1.09,1.04-1.62,1.59-.53.55-1.05,1.11-1.56,1.7-2.99,3.74-5.51,8.21-9.63,10.54,3.91-3.24,6.38-8.59,9.99-12.03.58-.6,1.17-1.19,1.78-1.75.61-.57,1.24-1.12,1.9-1.64.71-.54,1.41-1.08,2.12-1.61,4.24-3.2,8.46-6.31,12.79-9.84,1.45-1.48,2.89-2.66,4.33-3.84,2.02-2.07,4.04-3.84,6.07-5.91h0Z"/>
            </g>
          </g>
          <path class="cls-12" d="m49.56,52.98c-1.52-.01-2.74-1.31-2.73-2.89.01-1.58,1.26-2.86,2.78-2.84,1.52.01,2.75,1.31,2.73,2.89-.01,1.58-1.26,2.86-2.78,2.84Z"/>
        </g>
      </g>
    </g>
  </g>
</svg>