<?xml version="1.0" encoding="UTF-8"?>
<svg xmlns="http://www.w3.org/2000/svg" viewBox="0 0 389 311.19">
  <defs>
    <style>
      .cls-1 {
        fill: #b58c5a;
      }

      .cls-2 {
        fill: #9dc26f;
      }

      .cls-3 {
        isolation: isolate;
      }

      .cls-4 {
        fill: #a97c50;
      }

      .cls-5 {
        fill: #638a31;
      }

      .cls-6 {
        fill: #231f20;
        mix-blend-mode: screen;
      }

      .cls-7 {
        fill: #75a33a;
      }

      .cls-8 {
        fill: #4f3316;
      }

      .cls-9 {
        fill: #89ba49;
      }
    </style>
  </defs>
  <g class="cls-3">
    <g id="Layer_1" data-name="Layer 1">
      <g>
        <ellipse class="cls-4" cx="190.48" cy="209.93" rx="75.74" ry="64.96"/>
        <g>
          <g>
            <path class="cls-1" d="m127.54,96.8c43.3-27.26,105.54-21.22,139.03,13.42,33.45,34.67,25.48,84.86-17.8,112.09-43.35,27.25-105.58,21.22-139.08-13.43-33.44-34.66-25.49-84.83,17.86-112.07Z"/>
            <path class="cls-8" d="m144.92,112.98c33.89-21.29,82.74-16.41,109.13,10.96,26.4,27.34,20.35,66.79-13.52,88.06-33.88,21.32-82.76,16.42-109.16-10.92-26.42-27.33-20.34-66.78,13.55-88.1Z"/>
            <path class="cls-7" d="m176.84,156.72s79.55-31.55,7.05-124.25C156.64-2.29,154.27-3.12,151.83,2.77c-2.46,5.91,31.54,64.56,31.54,64.56,0,0-21.24-10.23-25.12-7.08-3.93,3.14,19.87,31.82,19.87,31.82,0,0-10.96-9.91-18.33-7.37-7.37,2.53,15.39,35.72,15.39,35.72,0,0-7.53-10.07-12.18-8.41-4.73,1.71,10.51,24.82,10.51,24.82,0,0-3.89-6.55-8.56-4.84-4.68,1.68,6,18.27,6,18.27l5.9,6.45Z"/>
            <path class="cls-5" d="m195.51,163.38s72.24-10.96,58.06-115.01c-5.27-39-6.7-40.34-10.99-35.36-4.29,4.97-4.17,68.01-4.17,68.01,0,0-11.32-14.56-15.55-12.55-4.25,2.01,1.16,34.52,1.16,34.52,0,0-3.88-11.85-10.4-11.23-6.52.65-3.87,37.15-3.87,37.15,0,0-1.26-11.25-5.44-10.74-4.18.49-2.82,25.73-2.82,25.73,0,0-.03-7-4.19-6.54-4.21.51-3.4,18.58-3.4,18.58l1.6,7.44Z"/>
            <path class="cls-7" d="m206.95,172.27s6.38-57.53,135.3-59.06c48.39-.56,50.17.37,44.48,4.31-5.66,3.97-83,11.47-83,11.47,0,0,19.02,7.05,16.92,10.54-2.06,3.56-42.48,3.28-42.48,3.28,0,0,14.98,1.6,14.81,6.77-.16,5.17-45.18,7.45-45.18,7.45,0,0,13.93-.35,13.72,2.96-.16,3.31-31.28,5.26-31.28,5.26,0,0,8.58-.82,8.44,2.53-.17,3.3-22.46,4.85-22.46,4.85l-9.27-.37Z"/>
            <path class="cls-7" d="m202.37,158.88s21.41,55.11-96.99,96.34c-44.43,15.47-46.53,15.15-43.15,9.75,3.33-5.4,71.28-36.2,71.28-36.2,0,0-20.92-.65-20.68-4.56.24-3.92,37.73-16.14,37.73-16.14,0,0-14.56,3.16-16.91-1.65-2.29-4.83,38.2-20.86,38.2-20.86,0,0-12.65,4.63-14.06,1.54-1.38-3.13,26.38-14.53,26.38-14.53,0,0-7.56,3.37-8.96.24-1.4-3.09,18.45-11.41,18.45-11.41l8.71-2.52Z"/>
            <path class="cls-7" d="m193.34,161.58s-40.62,47.54-153.78-2.39C-2.88,140.48-3.87,138.97,3.5,137.75c7.34-1.19,79.22,23.06,79.22,23.06,0,0-12.23-13.73-8.3-15.94,3.98-2.29,38.98,14.03,38.98,14.03,0,0-12.09-7.33-8.79-11.75,3.32-4.45,43.88,11.43,43.88,11.43,0,0-12.3-5.19-10.13-8.02,2.18-2.8,30.47,7.86,30.47,7.86,0,0-7.99-2.73-5.83-5.55,2.16-2.81,22.52,4.69,22.52,4.69l7.82,4.03Z"/>
            <path class="cls-9" d="m183.46,163.68s9.22-57.14-116.19-81.46c-47.01-9.08-48.97-8.49-44.48-3.63,4.48,4.84,77.88,25.81,77.88,25.81,0,0-20.45,3.54-19.37,7.36,1.06,3.78,40.55,10.67,40.55,10.67,0,0-14.98-1.11-16.25,3.93-1.23,5.06,42.05,15.26,42.05,15.26,0,0-13.47-2.81-14.17.43-.72,3.26,29.12,10.67,29.12,10.67,0,0-8.21-2.3-8.91,1.01-.71,3.21,20.58,8.68,20.58,8.68l9.19,1.27Z"/>
            <path class="cls-2" d="m192.45,178.09s32.28-51.58,152.79-14.43c45.17,13.92,46.43,15.33,39.33,17.31-7.07,1.96-82.4-14.17-82.4-14.17,0,0,14.45,12.22,10.9,14.89-3.58,2.7-40.96-9.66-40.96-9.66,0,0,13.2,5.91,10.68,10.68-2.51,4.76-45.38-6.55-45.38-6.55,0,0,13.07,3.82,11.38,6.84-1.66,3-31.49-4.49-31.49-4.49,0,0,8.36,1.87,6.69,4.9-1.68,3.02-23.08-2.22-23.08-2.22l-8.45-3.09Z"/>
            <path class="cls-9" d="m191.92,186.81s67.22-19.74,123.63,73.88c21.09,35.12,20.84,36.83,14.02,34.34-6.87-2.48-48.08-55.85-48.08-55.85,0,0,.15,16.89-4.71,16.88-4.83-.03-21.65-29.64-21.65-29.64,0,0,4.58,11.59-1.31,13.64-5.82,2.09-27.48-29.83-27.48-29.83,0,0,6.3,10.02,2.48,11.26-3.83,1.31-19.19-20.63-19.19-20.63,0,0,4.55,5.99.75,7.26-3.77,1.26-14.97-14.39-14.97-14.39l-3.48-6.91Z"/>
            <path class="cls-2" d="m191.32,154.11s-62.14,30.03-6.1,124.06c21.05,35.25,22.89,36.17,24.82,30.26,1.93-5.83-24.26-65.16-24.26-65.16,0,0,16.5,10.65,19.56,7.59,3.07-3.03-15.34-32.21-15.34-32.21,0,0,8.46,10.16,14.23,7.77,5.74-2.41-11.79-36.03-11.79-36.03,0,0,5.79,10.24,9.47,8.66,3.64-1.59-8.1-25-8.1-25,0,0,2.98,6.61,6.65,4.99,3.63-1.56-4.58-18.38-4.58-18.38l-4.56-6.55Z"/>
          </g>
          <path class="cls-6" d="m315.55,260.68c-15.59-25.87-32-43.05-47.58-54.42,6.55-7.22,11.48-15.15,14.7-23.48.02-.03.09-.04.11-.09.08-.14.02-.3.07-.45.77-2.06,1.5-4.13,2.06-6.23,11.19,3.34,25.96,7.3,28.15,5.66,3.56-2.67-10.9-14.89-10.9-14.89,0,0,75.33,16.14,82.4,14.17,7.1-1.98,5.84-3.39-39.33-17.31-20.9-6.44-39.1-10.17-54.97-12.01,1.64-.63,2.7-1.31,2.71-2.06.08-2.62-3.71-4.31-7.48-5.36-.12-.48-.26-.95-.38-1.43,11.64-.11,34.01-.63,35.54-3.26,2.09-3.5-16.92-10.54-16.92-10.54,0,0,77.34-7.5,83-11.47,5.69-3.94,3.91-4.87-44.48-4.31-27.66.33-49.65,3.25-67.18,7.6-2.49-3.64-5.24-7.2-8.5-10.59-4.06-4.2-8.55-7.96-13.37-11.31,2.59-13.76,3.11-30.39.37-50.55-5.27-39-6.7-40.34-10.99-35.36-4.29,4.97-4.17,68.01-4.17,68.01,0,0-11.32-14.56-15.55-12.55-1.95.92-1.85,8.18-1.21,15.81-3.45-.97-6.94-1.81-10.47-2.48-4.1-14.09-12.5-30.41-27.29-49.34C156.64-2.29,154.27-3.12,151.83,2.77c-2.46,5.91,31.54,64.56,31.54,64.56,0,0-21.24-10.23-25.12-7.08-2.32,1.85,5.01,12.56,11.4,21.07-14.87,2.37-29.33,7.44-42.12,15.49-1.02.64-1.92,1.35-2.89,2.01-15.02-6.3-33.81-12.03-57.38-16.59-47.01-9.08-48.97-8.49-44.48-3.63,4.48,4.84,77.88,25.81,77.88,25.81,0,0-20.45,3.54-19.37,7.36.55,1.99,11.66,4.81,22.1,7.06-6.96,9.3-11.46,19.53-13.33,30.08-7.38-2.85-14.05-4.98-15.65-4.05-3.94,2.21,8.3,15.94,8.3,15.94,0,0-71.87-24.25-79.22-23.06-7.38,1.22-6.38,2.73,36.05,21.45,19.33,8.52,36.5,14.16,51.75,17.73,3.01,11.29,9,22.24,18.38,31.95,3.56,3.69,7.51,6.98,11.65,10.02-4.87,2.15-8.43,4.12-8.5,5.32-.24,3.91,20.68,4.56,20.68,4.56,0,0-67.95,30.8-71.28,36.2-3.38,5.4-1.27,5.72,43.15-9.75,19.29-6.72,34.81-13.81,47.38-20.96,4.52,1.36,9.15,2.51,13.85,3.33,3.66,11.97,9.58,25.43,18.61,40.58,21.05,35.25,22.89,36.17,24.82,30.26,1.93-5.83-24.26-65.16-24.26-65.16,0,0,16.5,10.65,19.56,7.59,1.21-1.2-.92-6.44-3.93-12.35,13.1-1.51,25.96-5.11,37.82-10.95,5.77,7.11,11.89,13.47,14.58,12.49,5.9-2.04,1.31-13.64,1.31-13.64,0,0,16.82,29.61,21.65,29.64,4.87.02,4.71-16.88,4.71-16.88,0,0,41.22,53.37,48.08,55.85,6.81,2.48,7.07.77-14.02-34.34Z"/>
        </g>
      </g>
    </g>
  </g>
</svg>