<?xml version="1.0" encoding="UTF-8"?>
<svg xmlns="http://www.w3.org/2000/svg" xmlns:xlink="http://www.w3.org/1999/xlink" viewBox="0 0 562.76 556.1">
  <defs>
    <style>
      .cls-1 {
        fill: url(#_Áåçûìÿííûé_ãðàäèåíò_67-4);
      }

      .cls-2 {
        isolation: isolate;
      }

      .cls-3 {
        fill: url(#_Áåçûìÿííûé_ãðàäèåíò_271);
      }

      .cls-3, .cls-4, .cls-5 {
        mix-blend-mode: multiply;
        opacity: .4;
      }

      .cls-6 {
        fill: url(#_Áåçûìÿííûé_ãðàäèåíò_67-5);
      }

      .cls-4 {
        fill: url(#_Áåçûìÿííûé_ãðàäèåíò_271-2);
      }

      .cls-7 {
        fill: url(#_Áåçûìÿííûé_ãðàäèåíò_67-3);
      }

      .cls-8 {
        fill: #5d5b89;
      }

      .cls-9 {
        fill: #35273f;
      }

      .cls-10 {
        fill: url(#_Áåçûìÿííûé_ãðàäèåíò_5-3);
      }

      .cls-11 {
        fill: url(#_Áåçûìÿííûé_ãðàäèåíò_5);
      }

      .cls-12 {
        fill: url(#_Áåçûìÿííûé_ãðàäèåíò_67);
      }

      .cls-13 {
        fill: url(#_Áåçûìÿííûé_ãðàäèåíò_5-2);
      }

      .cls-14 {
        fill: url(#_Áåçûìÿííûé_ãðàäèåíò_67-2);
      }

      .cls-5 {
        fill: url(#_Áåçûìÿííûé_ãðàäèåíò_271-3);
      }

      .cls-15 {
        fill: url(#_Áåçûìÿííûé_ãðàäèåíò_67-6);
      }

      .cls-16 {
        fill: #3f2f4c;
      }
    </style>
    <linearGradient id="_Áåçûìÿííûé_ãðàäèåíò_271" data-name="Áåçûìÿííûé ãðàäèåíò 271" x1="330.76" y1="332.02" x2="311.55" y2="213.44" gradientUnits="userSpaceOnUse">
      <stop offset="0" stop-color="#fff"/>
      <stop offset=".98" stop-color="#aa0038"/>
    </linearGradient>
    <linearGradient id="_Áåçûìÿííûé_ãðàäèåíò_271-2" data-name="Áåçûìÿííûé ãðàäèåíò 271" x1="258.13" y1="838.89" x2="316.86" y2="401.36" xlink:href="#_Áåçûìÿííûé_ãðàäèåíò_271"/>
    <linearGradient id="_Áåçûìÿííûé_ãðàäèåíò_5" data-name="Áåçûìÿííûé ãðàäèåíò 5" x1="-396.63" y1="259.42" x2="-355.52" y2="315.6" gradientTransform="translate(305.7 -375.24) rotate(-22.64)" gradientUnits="userSpaceOnUse">
      <stop offset="0" stop-color="#62652a"/>
      <stop offset="1" stop-color="#404e12"/>
    </linearGradient>
    <linearGradient id="_Áåçûìÿííûé_ãðàäèåíò_67" data-name="Áåçûìÿííûé ãðàäèåíò 67" x1="-130.9" y1="880.88" x2="-450.16" y2="596.66" gradientTransform="translate(305.7 -375.24) rotate(-22.64)" gradientUnits="userSpaceOnUse">
      <stop offset="0" stop-color="#798633"/>
      <stop offset="1" stop-color="#506f15"/>
    </linearGradient>
    <linearGradient id="_Áåçûìÿííûé_ãðàäèåíò_67-2" data-name="Áåçûìÿííûé ãðàäèåíò 67" x1="61.1" y1="745.23" x2="-306.31" y2="418.14" xlink:href="#_Áåçûìÿííûé_ãðàäèåíò_67"/>
    <linearGradient id="_Áåçûìÿííûé_ãðàäèåíò_271-3" data-name="Áåçûìÿííûé ãðàäèåíò 271" x1="-294.95" y1="387.82" x2="-249.36" y2="576.67" gradientTransform="translate(305.7 -375.24) rotate(-22.64)" xlink:href="#_Áåçûìÿííûé_ãðàäèåíò_271"/>
    <linearGradient id="_Áåçûìÿííûé_ãðàäèåíò_5-2" data-name="Áåçûìÿííûé ãðàäèåíò 5" x1="-565.48" y1="234.82" x2="-512.92" y2="306.64" xlink:href="#_Áåçûìÿííûé_ãðàäèåíò_5"/>
    <linearGradient id="_Áåçûìÿííûé_ãðàäèåíò_67-3" data-name="Áåçûìÿííûé ãðàäèåíò 67" x1="-74.61" y1="828.01" x2="-367.21" y2="567.52" xlink:href="#_Áåçûìÿííûé_ãðàäèåíò_67"/>
    <linearGradient id="_Áåçûìÿííûé_ãðàäèåíò_5-3" data-name="Áåçûìÿííûé ãðàäèåíò 5" x1="-78.69" y1="792.26" x2="-344.78" y2="555.37" xlink:href="#_Áåçûìÿííûé_ãðàäèåíò_5"/>
    <linearGradient id="_Áåçûìÿííûé_ãðàäèåíò_67-4" data-name="Áåçûìÿííûé ãðàäèåíò 67" x1="395.65" y1="609.23" x2="296.96" y2="314.96" gradientTransform="matrix(1,0,0,1,0,0)" xlink:href="#_Áåçûìÿííûé_ãðàäèåíò_67"/>
    <linearGradient id="_Áåçûìÿííûé_ãðàäèåíò_67-5" data-name="Áåçûìÿííûé ãðàäèåíò 67" x1="773.62" y1="439.62" x2="-193.47" y2="105.97" gradientTransform="matrix(1,0,0,1,0,0)" xlink:href="#_Áåçûìÿííûé_ãðàäèåíò_67"/>
    <linearGradient id="_Áåçûìÿííûé_ãðàäèåíò_67-6" data-name="Áåçûìÿííûé ãðàäèåíò 67" x1="-1678.43" y1="239.53" x2="-2546.54" y2="-59.96" gradientTransform="translate(51.94 -1778.84) rotate(-92.98)" xlink:href="#_Áåçûìÿííûé_ãðàäèåíò_67"/>
  </defs>
  <g class="cls-2">
    <g id="Layer_1" data-name="Layer 1">
      <g>
        <g>
          <path class="cls-8" d="m562.76,277.43c0,14.14-2.27,27.93-6.43,41.18-25.15,78.6-120.57,137.15-234.41,137.15-97.76,0-181.92-43.15-219.64-105.1-13.6-22.38-21.2-47.15-21.2-73.23,0-98.42,107.85-178.27,240.85-178.27s240.85,79.86,240.85,178.27Z"/>
          <path class="cls-3" d="m562.76,277.43c0,14.14-2.27,27.93-6.43,41.18-1.83-33.3-21.2-68.64-84.67-89.88-4.83-1.61-9.94-3.16-15.35-4.6-87.59-23.58-195.59-21.19-269.14,12.53-49.94,22.98-84.01,60.34-84.89,113.99-13.6-22.38-21.2-47.15-21.2-73.23,0-98.42,107.85-178.27,240.85-178.27s240.85,79.86,240.85,178.27Z"/>
          <ellipse class="cls-9" cx="331.32" cy="270.6" rx="151.28" ry="112"/>
          <ellipse class="cls-4" cx="332.61" cy="283.98" rx="151.4" ry="112.08"/>
        </g>
        <path class="cls-16" d="m373.56,251.18c-7.19,33.45,9.35,71.02,39.55,63.39,30.2-7.63,35.95-46.95,19.41-62.8-16.54-15.85-58.96-.59-58.96-.59Z"/>
        <path class="cls-16" d="m335.45,232.39c-6.47,11.15,11.5,36.39,13.66,34.04,2.16-2.35,10.79-12.91,9.35-20.54-1.44-7.63-23.01-13.5-23.01-13.5Z"/>
        <path class="cls-16" d="m415.99,234.45c5.75,5.87,38.83-.59,29.48-10.56-9.35-9.98-46.74-3.52-38.11,3.52l8.63,7.04Z"/>
        <path class="cls-11" d="m354.79,172.76c11.21,46.4-16.17,86.56-38.78,110.57-14.1,14.89-26.4,23.56-26.4,23.56-76.24-57.75-78.45-156.61-68.04-226.48C228.53,33.76,241.13,0,241.13,0c0,0,95.48,97.39,113.66,172.76Z"/>
        <path class="cls-12" d="m229.27,311.62c-129.15-70.22-161.6,96.4-161.6,96.4l161.6-96.4Z"/>
        <path class="cls-14" d="m309.5,304.01c20.69-66.63,160.97-208.72,160.97-208.72,0,0-50.03,136.19-89.02,170.98-38.99,34.79-71.95,37.74-71.95,37.74Z"/>
        <path class="cls-5" d="m317.39,286.05c-14.1,14.89-26.4,23.56-26.4,23.56-76.24-57.75-78.45-156.61-68.04-226.48,2.49-2.8,3.93-4.45,3.93-4.45,3.49,108.51,68.93,185.04,90.51,207.37Z"/>
        <path class="cls-13" d="m0,105.8c90.19,164.58,264.8,192.84,259.47,186.38C254.14,285.72,0,105.8,0,105.8Z"/>
        <path class="cls-7" d="m313.59,310.6c204.96-23.45,165.02,132.48,165.02,132.48l-165.02-132.48Z"/>
        <path class="cls-10" d="m311.54,307.58c204.96-23.45,160.36,90.62,160.36,90.62l-160.36-90.62Z"/>
        <path class="cls-1" d="m313.79,321.3c146.68,100.56,79.44,234.79,79.44,234.79,0,0-79.84-49.1-109.18-90.65-29.34-41.55,29.74-144.14,29.74-144.14Z"/>
        <path class="cls-6" d="m162.16,196.3c42.42,103.89,143.81,119.73,143.81,119.73,0,0-7.91-37.56-43.14-77.47-35.23-39.91-100.67-42.26-100.67-42.26Z"/>
        <path class="cls-15" d="m168.87,438.5c124.89-39.98,139.01-123.45,139.01-123.45,0,0-45.55,8.4-92.54,39.19-47,30.79-46.47,84.25-46.47,84.25Z"/>
      </g>
    </g>
  </g>
</svg>