<?xml version="1.0" encoding="utf-8"?>
<svg id="master-artboard" viewBox="0 0 1400 980" version="1.1" xmlns="http://www.w3.org/2000/svg" x="0px" y="0px" style="enable-background:new 0 0 1400 980;" width="1400px" height="980px">

<g transform="matrix(1, 0, 0, 1, 2.842170943040401e-14, 7.105427357601002e-15)">
		<g>
			
				<linearGradient id="SVGID_1_" gradientUnits="userSpaceOnUse" x1="-1776.6321" y1="1056.3185" x2="-1712.1577" y2="1056.3185" gradientTransform="matrix(-0.8924 -8.375037e-02 0.1022 -1.0891 -1421.8351 1797.6604)">
				<stop offset="0" style="stop-color:#99C44A"/>
				<stop offset="1" style="stop-color:#749944"/>
			</linearGradient>
			<path class="st0" d="M240.1,706c17.3,22.7,28.2,52.7,30.5,84c2.3,31.3-9.2,63.4-22.8,90.9c-12.5-27.1-26.7-49.7-31.5-80.5&#10;&#9;&#9;&#9;&#9;C211.4,769.5,222.4,730,240.1,706z" style="fill: url('#SVGID_1_');"/>
			<g>
				<g>
					<path class="st1" d="M238.3,715.6c2.4,20.5,5.1,40.8,6,61.5c1,20.8,0.2,41.5-0.6,62.3c0,0.4,0.6,0.4,0.6,0&#10;&#9;&#9;&#9;&#9;&#9;&#9;c2.3-20.6,2.3-41.6,1.4-62.3c-0.8-20.5-2.6-41.4-7-61.5C238.7,715.2,238.2,715.3,238.3,715.6L238.3,715.6z" style="fill: rgb(255, 255, 255);"/>
				</g>
			</g>
		</g>
		<g>
			
				<linearGradient id="SVGID_2_" gradientUnits="userSpaceOnUse" x1="-700.5611" y1="1796.7383" x2="-645.7335" y2="1796.7383" gradientTransform="matrix(-6.413554e-02 -0.9979 0.9979 -6.413554e-02 -1668.8988 192.5054)">
				<stop offset="0" style="stop-color:#99C44A"/>
				<stop offset="1" style="stop-color:#749944"/>
			</linearGradient>
			<path class="st2" d="M233.9,734.4c-15.1,19.4-36.6,33.7-60.3,40.2c-23.7,6.5-49.8,0.1-72.7-8.8c19.2-15.4,34.6-31.9,57.6-40.7&#10;&#9;&#9;&#9;&#9;S213.2,721.1,233.9,734.4z" style="fill: url('#SVGID_2_');"/>
			<g>
				<g>
					<path class="st1" d="M226.3,734c-14.8,4.8-29.4,10-44.6,13.7c-16.3,4-32.9,6.3-49.5,8.5c-0.4,0-0.4,0.6,0,0.6&#10;&#9;&#9;&#9;&#9;&#9;&#9;c16.2-0.7,32.3-3.6,48.1-7.3c15.7-3.6,31.6-8.2,46.2-15.1C226.7,734.4,226.6,733.9,226.3,734L226.3,734z" style="fill: rgb(255, 255, 255);"/>
				</g>
			</g>
		</g>
		<g>
			
				<linearGradient id="SVGID_3_" gradientUnits="userSpaceOnUse" x1="-1717.1188" y1="435.474" x2="-1652.6445" y2="435.474" gradientTransform="matrix(-0.7314 0.518 -0.6322 -0.8927 -670.6204 2033.1941)">
				<stop offset="0" style="stop-color:#99C44A"/>
				<stop offset="1" style="stop-color:#749944"/>
			</linearGradient>
			<path class="st3" d="M227.5,707.2c27.9,6,55.7,21.6,77.8,43.8c22.2,22.2,34.3,54.1,42,83.8c-27.1-12.5-52.6-20.4-76.4-40.5&#10;&#9;&#9;&#9;&#9;C247.1,774,229.7,736.9,227.5,707.2z" style="fill: url('#SVGID_3_');"/>
			<g>
				<g>
					<path class="st1" d="M232.4,715.6c15.2,14,30.5,27.7,44.7,42.7c14.3,15.1,27.2,31.3,40.1,47.6c0.2,0.3,0.7-0.1,0.5-0.4&#10;&#9;&#9;&#9;&#9;&#9;&#9;c-11.7-17.2-25.4-33.1-39.6-48.3c-14-15-28.9-29.7-45.4-42.1C232.4,715.1,232.2,715.4,232.4,715.6L232.4,715.6z" style="fill: rgb(255, 255, 255);"/>
				</g>
			</g>
		</g>
		<g>
			
				<linearGradient id="SVGID_4_" gradientUnits="userSpaceOnUse" x1="-1495.5408" y1="1404.3531" x2="-1431.0664" y2="1404.3531" gradientTransform="matrix(-0.6891 -0.5731 0.6994 -0.841 -1798.3585 1125.4155)">
				<stop offset="0" style="stop-color:#99C44A"/>
				<stop offset="1" style="stop-color:#749944"/>
			</linearGradient>
			<path class="st4" d="M239.4,709.3c1.4,28.5-6.5,59.4-22.3,86.5C201.3,823,173.7,842.9,147,858c5-29.4,6.1-56.1,19.5-84.3&#10;&#9;&#9;&#9;&#9;C179.8,745.5,211.3,719.1,239.4,709.3z" style="fill: url('#SVGID_4_');"/>
			<g>
				<g>
					<path class="st1" d="M232.5,716.2c-9.5,18-18.6,36-29.3,53.4c-11.1,18-23.5,34.9-36.2,51.8c-0.2,0.3,0.3,0.6,0.5,0.4&#10;&#9;&#9;&#9;&#9;&#9;&#9;c13.4-15.5,25.1-32.6,36-49.9c11.1-17.6,21.6-36.1,29.5-55.5C233,716.1,232.6,716,232.5,716.2L232.5,716.2z" style="fill: rgb(255, 255, 255);"/>
				</g>
			</g>
		</g>
		<g>
			
				<linearGradient id="SVGID_5_" gradientUnits="userSpaceOnUse" x1="-1411.9954" y1="99.1257" x2="-1347.521" y2="99.1257" gradientTransform="matrix(-0.4087 0.7977 -0.9735 -0.4988 -151.4041 1882.1835)">
				<stop offset="0" style="stop-color:#99C44A"/>
				<stop offset="1" style="stop-color:#749944"/>
			</linearGradient>
			<path class="st5" d="M233.9,702.3c27.5-7.6,59.3-6.6,89.3,2.8c29.9,9.4,55.4,32.1,76,54.9c-29.8,1.5-56.1,6.3-86.5-0.6&#10;&#9;&#9;&#9;&#9;C282.3,752.4,249.6,727.6,233.9,702.3z" style="fill: url('#SVGID_5_');"/>
			<g>
				<g>
					<path class="st1" d="M242.2,707.5c19.6,5.3,39.2,10.3,58.5,16.9c19.9,6.9,39.2,15.3,58.4,23.9c0.4,0.2,0.7-0.3,0.3-0.5&#10;&#9;&#9;&#9;&#9;&#9;&#9;c-18.1-9.6-37.3-17.3-56.6-24.2c-19.6-7-39.9-13.2-60.5-16.6C242,707,241.8,707.4,242.2,707.5L242.2,707.5z" style="fill: rgb(255, 255, 255);"/>
				</g>
			</g>
		</g>
		<g>
			
				<linearGradient id="SVGID_6_" gradientUnits="userSpaceOnUse" x1="-170.805" y1="1590.08" x2="-115.9774" y2="1590.08" gradientTransform="matrix(0.4692 -0.8831 0.8831 0.4692 -1162.4529 -193.1142)">
				<stop offset="0" style="stop-color:#99C44A"/>
				<stop offset="1" style="stop-color:#749944"/>
			</linearGradient>
			<path class="st6" d="M238.8,702.1c-23,8.5-48.9,9.4-72.4,2.5c-23.6-6.9-42.5-26.1-57.3-45.7c24.4-3.1,46.2-9,70.3-4.4&#10;&#9;&#9;&#9;&#9;S228.1,679.9,238.8,702.1z" style="fill: url('#SVGID_6_');"/>
			<g>
				<g>
					<path class="st1" d="M232.5,697.8c-15.5-3.8-30.9-7.1-46-12c-15.7-5.1-30.7-11.8-45.7-18.5c-0.4-0.2-0.7,0.3-0.3,0.5&#10;&#9;&#9;&#9;&#9;&#9;&#9;c13.9,7.8,28.9,13.7,43.9,18.8c15.5,5.3,31.8,9.9,48.1,11.7C232.7,698.3,232.8,697.9,232.5,697.8L232.5,697.8z" style="fill: rgb(255, 255, 255);"/>
				</g>
			</g>
		</g>
		<g>
			
				<linearGradient id="SVGID_7_" gradientUnits="userSpaceOnUse" x1="-342.2763" y1="-58.5534" x2="-277.8019" y2="-58.5534" gradientTransform="matrix(0.4563 0.7715 -0.9415 0.5569 392.2466 940.2361)">
				<stop offset="0" style="stop-color:#99C44A"/>
				<stop offset="1" style="stop-color:#749944"/>
			</linearGradient>
			<path class="st7" d="M236.8,722c8.3-27.4,26.1-53.7,50.1-74c24-20.3,56.7-29.8,86.9-35c-14.6,26-24.6,50.8-46.7,72.8&#10;&#9;&#9;&#9;&#9;C305.1,707.8,266.6,722.2,236.8,722z" style="fill: url('#SVGID_7_');"/>
			<g>
				<g>
					<path class="st1" d="M245.7,717.8c15-13.8,29.7-27.7,45.6-40.5c16.4-13.2,33.9-24.9,51.4-36.6c0.3-0.2,0-0.7-0.3-0.5&#10;&#9;&#9;&#9;&#9;&#9;&#9;c-17.8,10.1-34.6,22.3-50.7,35c-16.3,12.9-32.5,26.7-46.3,42.2C245.1,717.6,245.4,718,245.7,717.8L245.7,717.8z" style="fill: rgb(255, 255, 255);"/>
				</g>
			</g>
		</g>
		<g>
			
				<linearGradient id="SVGID_8_" gradientUnits="userSpaceOnUse" x1="161.8634" y1="1027.7531" x2="216.691" y2="1027.7531" gradientTransform="matrix(0.9211 -0.3894 0.3894 0.9211 -375.4158 -221.2657)">
				<stop offset="0" style="stop-color:#99C44A"/>
				<stop offset="1" style="stop-color:#749944"/>
			</linearGradient>
			<path class="st8" d="M234.9,709.7c-23.3-7.9-43.9-23.5-57.8-43.7c-14-20.2-16.5-47-15.7-71.6c20.9,13,41.5,22.2,57.4,40.9&#10;&#9;&#9;&#9;&#9;C234.7,654.2,240.6,685.8,234.9,709.7z" style="fill: url('#SVGID_8_');"/>
			<g>
				<g>
					<path class="st1" d="M232.7,702.4c-9.6-12.7-19.5-25-28.1-38.4c-9-13.9-16.4-28.5-23.8-43.3c-0.2-0.3-0.7-0.1-0.6,0.2&#10;&#9;&#9;&#9;&#9;&#9;&#9;c5.9,14.8,13.8,28.8,22.2,42.2c8.7,13.9,18.4,27.8,29.9,39.4C232.5,702.9,232.9,702.7,232.7,702.4L232.7,702.4z" style="fill: rgb(255, 255, 255);"/>
				</g>
			</g>
		</g>
		<g>
			
				<linearGradient id="SVGID_9_" gradientUnits="userSpaceOnUse" x1="-1539.6077" y1="1303.2858" x2="-1475.1333" y2="1303.2858" gradientTransform="matrix(-0.8569 -0.5155 0.5639 -0.9373 -1819.3268 1237.4087)">
				<stop offset="0" style="stop-color:#99C44A"/>
				<stop offset="1" style="stop-color:#749944"/>
			</linearGradient>
			<path class="st9" d="M241.5,712.2c7.7,29.1,5.8,61.6-5.1,91.2c-10.9,29.5-36.1,52.9-61.3,71.2c-1-30.8-5.6-58.2,2.6-88.6&#10;&#9;&#9;&#9;&#9;C185.9,755.7,213.7,725.3,241.5,712.2z" style="fill: url('#SVGID_9_');"/>
			<g>
				<g>
					<path class="st1" d="M235.6,720.1c-6.1,19.2-11.8,38.4-19.3,57.1c-8,19.9-17.7,38.8-27.7,57.7c-0.2,0.3,0.3,0.6,0.5,0.3&#10;&#9;&#9;&#9;&#9;&#9;&#9;c10.7-17.2,19.4-35.6,27.2-54.3c8.2-19.6,15.5-40,19.8-60.8C236.2,719.9,235.7,719.8,235.6,720.1L235.6,720.1z" style="fill: rgb(255, 255, 255);"/>
				</g>
			</g>
		</g>
		<g>
			
				<linearGradient id="SVGID_10_" gradientUnits="userSpaceOnUse" x1="134.4661" y1="276.239" x2="198.9404" y2="276.239" gradientTransform="matrix(0.8099 0.3839 -0.4685 0.9885 257.6182 296.6992)">
				<stop offset="0" style="stop-color:#99C44A"/>
				<stop offset="1" style="stop-color:#749944"/>
			</linearGradient>
			<path class="st10" d="M235.9,716.7c-8.5-27.3-8.5-59.1,0.1-89.3c8.5-30.2,30.3-56.4,52.5-77.6c2.4,29.8,8,55.9,2.1,86.5&#10;&#9;&#9;&#9;&#9;S260.7,700.3,235.9,716.7z" style="fill: url('#SVGID_10_');"/>
			<g>
				<g>
					<path class="st1" d="M240.9,708.3c4.8-20.1,9.2-40.1,15.4-59.9c6.2-19.9,14-39.1,21.9-58.3c0.1-0.3-0.4-0.5-0.6-0.2&#10;&#9;&#9;&#9;&#9;&#9;&#9;c-9.2,18.6-16.4,38.4-22.7,58.2c-6.2,19.6-11.8,39.8-14.5,60.2C240.4,708.6,240.8,708.6,240.9,708.3L240.9,708.3z" style="fill: rgb(255, 255, 255);"/>
				</g>
			</g>
		</g>
		<g>
			<linearGradient id="SVGID_11_" gradientUnits="userSpaceOnUse" x1="199.4063" y1="648.5536" x2="254.2339" y2="648.5536">
				<stop offset="0" style="stop-color:#99C44A"/>
				<stop offset="1" style="stop-color:#749944"/>
			</linearGradient>
			<path class="st11" d="M237.2,715.9c-18.4-16.3-31.3-38.7-36.2-62.8c-5-24.1,3.1-49.7,13.4-72c14.2,20.1,29.6,36.6,36.9,60&#10;&#9;&#9;&#9;&#9;C258.6,664.7,251.7,696.1,237.2,715.9z" style="fill: url('#SVGID_11_');"/>
			<g>
				<g>
					<path class="st1" d="M238,708.4c-3.9-15.4-8.2-30.6-11-46.3c-2.9-16.3-4-32.6-5.1-49c0-0.4-0.6-0.4-0.6,0&#10;&#9;&#9;&#9;&#9;&#9;&#9;c-0.3,15.9,1.5,31.9,4,47.5c2.6,16.1,6.2,32.7,12.2,47.9C237.6,708.8,238.1,708.7,238,708.4L238,708.4z" style="fill: rgb(255, 255, 255);"/>
				</g>
			</g>
		</g>
		<g>
			
				<linearGradient id="SVGID_12_" gradientUnits="userSpaceOnUse" x1="-536.9749" y1="1718.9154" x2="-482.1473" y2="1718.9154" gradientTransform="matrix(0.1031 -0.9947 0.9947 0.1031 -1486.7212 33.7363)">
				<stop offset="0" style="stop-color:#99C44A"/>
				<stop offset="1" style="stop-color:#749944"/>
			</linearGradient>
			<path class="st12" d="M238.6,714.4c-18.2,16.6-41.7,27.1-66.2,29.6c-24.5,2.5-49.1-8.2-70.2-20.8c21.5-12,39.4-25.7,63.5-30.5&#10;&#9;&#9;&#9;&#9;C189.9,687.8,220.4,697.9,238.6,714.4z" style="fill: url('#SVGID_12_');"/>
			<g>
				<g>
					<path class="st1" d="M231.1,712.8c-16.3,2.4-32.4,5.2-48.9,6.3c-15.9,1-31.7,0.5-47.6-0.1c-0.4,0-0.4,0.6,0,0.6&#10;&#9;&#9;&#9;&#9;&#9;&#9;c16.3,2,33,1.8,49.5,0.8c15.7-1,32-2.8,47.2-7.1C231.6,713.2,231.4,712.7,231.1,712.8L231.1,712.8z" style="fill: rgb(255, 255, 255);"/>
				</g>
			</g>
		</g>
		<g>
			
				<linearGradient id="SVGID_13_" gradientUnits="userSpaceOnUse" x1="-888.5499" y1="-178.9226" x2="-843.7445" y2="-178.9226" gradientTransform="matrix(-4.961451e-03 1 -1 -4.961451e-03 108.7339 1569.9985)">
				<stop offset="0" style="stop-color:#99C44A"/>
				<stop offset="1" style="stop-color:#749944"/>
			</linearGradient>
			<path class="st13" d="M236.8,712.9c13.4-14.9,31.8-25.4,51.4-29.4s40.6,2.7,58.8,11.3c-16.5,11.5-30,24-49.2,29.9&#10;&#9;&#9;&#9;&#9;S253,724.9,236.8,712.9z" style="fill: url('#SVGID_13_');"/>
			<g>
				<g>
					<path class="st1" d="M243,713.7c12.3-2.8,24.4-6.3,36.8-8.5c13.7-2.4,27.4-3.2,41.2-4.2c0.4,0,0.4-0.6,0-0.6&#10;&#9;&#9;&#9;&#9;&#9;&#9;c-12.6-0.4-25.3,1-37.8,2.8c-13.5,2-27.6,4.8-40.3,10C242.6,713.3,242.7,713.8,243,713.7L243,713.7z" style="fill: rgb(255, 255, 255);"/>
				</g>
			</g>
		</g>
		<g>
			
				<linearGradient id="SVGID_14_" gradientUnits="userSpaceOnUse" x1="-1739.8662" y1="562.227" x2="-1706.4125" y2="562.227" gradientTransform="matrix(-0.922 0.3873 -0.3873 -0.922 -1112.1121 1934.3068)">
				<stop offset="0" style="stop-color:#99C44A"/>
				<stop offset="1" style="stop-color:#749944"/>
			</linearGradient>
			<path class="st14" d="M237.1,713.2c14.2,4.9,26.7,14.4,35.2,26.8c8.5,12.4,10,28.7,9.4,43.7c-12.7-8-25.3-13.6-35-25.1&#10;&#9;&#9;&#9;&#9;C237.1,747.1,233.6,727.8,237.1,713.2z" style="fill: url('#SVGID_14_');"/>
			<g>
				<g>
					<path class="st1" d="M238.3,717.7c5.6,8.1,11.9,15.7,17.2,24c5.4,8.3,9.6,17.2,14.3,25.9c0.2,0.3,0.7,0.1,0.6-0.2&#10;&#9;&#9;&#9;&#9;&#9;&#9;c-3.4-9.3-8.4-18-13.7-26.4c-5.2-8.3-11-16.9-18.1-23.6C238.5,717.2,238.2,717.4,238.3,717.7L238.3,717.7z" style="fill: rgb(255, 255, 255);"/>
				</g>
			</g>
		</g>
	</g><g transform="matrix(1, 0, 0, 1, 5.684341886080802e-14, 1.4210854715202004e-14)">
			
				<linearGradient id="SVGID_15_" gradientUnits="userSpaceOnUse" x1="-1160.5839" y1="496.0199" x2="-1069.4723" y2="496.0199" gradientTransform="matrix(-0.7071 0.7071 -0.7071 -0.7071 761.2939 1911.3065)">
				<stop offset="0" style="stop-color:#99C44A"/>
				<stop offset="1" style="stop-color:#749944"/>
			</linearGradient>
			<path class="st15" d="M1208.2,817.5c-37.5-2.1-71.3-33.3-76.4-70.6c-1.3-9.7-0.5-20.6,6.2-27.8c6.7-7.1,17.4-8.6,27.1-8.2&#10;&#9;&#9;&#9;&#9;c28,1.1,55.2,14.8,72.9,36.5s25.4,51.3,20.7,78.9C1245.7,814.6,1225.7,818.5,1208.2,817.5z" style="fill: url('#SVGID_15_');"/>
			<g>
				<g>
					<path class="st1" d="M1137.5,721.4c8.3,8.3,18.7,15.2,28,22.5c9.4,7.4,18.9,14.8,28.3,22.2c18.8,14.8,37.2,30.6,56.9,44.2&#10;&#9;&#9;&#9;&#9;&#9;&#9;c0.4,0.3,0.9-0.4,0.5-0.7c-17.8-15.8-37.6-29.9-56.3-44.6c-9.4-7.4-18.9-14.8-28.3-22.2c-9.3-7.3-18.5-15.8-28.6-22&#10;&#9;&#9;&#9;&#9;&#9;&#9;C1137.6,720.6,1137.1,721.1,1137.5,721.4L1137.5,721.4z" style="fill: rgb(255, 255, 255);"/>
				</g>
			</g>
			<g>
				<g>
					<path class="st1" d="M1227.5,791.1c3.6,1.2,7.5,1.5,11.3,1.9c5,0.6,10,1.6,15.1,1.5c0.5,0,0.6-0.7,0.1-0.8&#10;&#9;&#9;&#9;&#9;&#9;&#9;c-3.7-1-7.6-1.2-11.4-1.7c-5-0.6-10.1-1.6-15.1-1.2C1227.4,790.8,1227.4,791.1,1227.5,791.1L1227.5,791.1z" style="fill: rgb(255, 255, 255);"/>
				</g>
			</g>
			<g>
				<g>
					<path class="st1" d="M1225.5,793.3c2.2,7.7,4.5,16.2,8,23.3c0.2,0.4,0.7,0.1,0.6-0.3c-1.5-7.8-4.8-15.9-7.7-23.3&#10;&#9;&#9;&#9;&#9;&#9;&#9;C1226.2,792.5,1225.3,792.7,1225.5,793.3L1225.5,793.3z" style="fill: rgb(255, 255, 255);"/>
				</g>
			</g>
			<g>
				<g>
					<path class="st1" d="M1212.1,778.2c4.8,1.4,10.5,0.6,15.5,0.7c5.8,0,11.7,0.4,17.4-0.3c0.5-0.1,0.5-0.7,0-0.8&#10;&#9;&#9;&#9;&#9;&#9;&#9;c-5.7-0.7-11.6-0.4-17.4-0.3c-5,0-10.7-0.8-15.5,0.6C1212,778.1,1212,778.1,1212.1,778.2L1212.1,778.2z" style="fill: rgb(255, 255, 255);"/>
				</g>
			</g>
			<g>
				<g>
					<path class="st1" d="M1207.5,778.6c1.1,7,4.2,13.9,6.4,20.6c2.1,6.2,3.7,12.7,6.5,18.6c0.2,0.3,0.6,0.1,0.5-0.2&#10;&#9;&#9;&#9;&#9;&#9;&#9;c-1.4-7-4.3-13.8-6.6-20.6c-2.1-6.1-3.6-12.8-6.7-18.5C1207.6,778.4,1207.5,778.5,1207.5,778.6L1207.5,778.6z" style="fill: rgb(255, 255, 255);"/>
				</g>
			</g>
			<g>
				<g>
					<path class="st1" d="M1190,762.5c7.1,0.1,14.2-0.1,21.2-0.3c7-0.2,14.3,0.2,21.3-0.9c0.4-0.1,0.2-0.6-0.1-0.6&#10;&#9;&#9;&#9;&#9;&#9;&#9;c-7-0.8-14.2-0.1-21.2,0.1c-7.1,0.2-14.2,0.3-21.2,0.7C1189.4,761.5,1189.4,762.5,1190,762.5L1190,762.5z" style="fill: rgb(255, 255, 255);"/>
				</g>
			</g>
			<g>
				<g>
					<path class="st1" d="M1190.2,760.8c0.8,8.2,4,16.5,6.2,24.4c2.3,8.7,4.3,17.6,7.3,26.1c0.2,0.6,1,0.3,0.9-0.2&#10;&#9;&#9;&#9;&#9;&#9;&#9;c-1.7-8.8-4.6-17.5-7-26.2c-2.2-7.9-3.6-16.7-7.1-24.2C1190.4,760.6,1190.2,760.7,1190.2,760.8L1190.2,760.8z" style="fill: rgb(255, 255, 255);"/>
				</g>
			</g>
			<g>
				<g>
					<path class="st1" d="M1161.8,743.1c9.3,2.1,19.9,1.2,29.5,1.6c11.1,0.4,22.3,1.1,33.4,0.8c0.4,0,0.4-0.5,0-0.6&#10;&#9;&#9;&#9;&#9;&#9;&#9;c-10.4-1-20.9-1.2-31.4-1.5c-10.2-0.4-21.4-2.1-31.5-0.6C1161.7,742.8,1161.7,743.1,1161.8,743.1L1161.8,743.1z" style="fill: rgb(255, 255, 255);"/>
				</g>
			</g>
			<g>
				<g>
					<path class="st1" d="M1164.6,744.2c3.9,15.2,8.5,30.9,14.2,45.5c0.2,0.5,1,0.3,0.8-0.2c-3.5-15.3-8.6-30.8-14-45.6&#10;&#9;&#9;&#9;&#9;&#9;&#9;C1165.4,743.3,1164.4,743.5,1164.6,744.2L1164.6,744.2z" style="fill: rgb(255, 255, 255);"/>
				</g>
			</g>
			<g>
				<g>
					<path class="st1" d="M1146.3,726.5c3,1.5,6.4,1,9.8,1.1c4.5,0.1,9.1,0.2,13.6,0.3c9.7,0.2,19.5,0.4,29.2,0c0.6,0,0.6-0.9,0-0.9&#10;&#9;&#9;&#9;&#9;&#9;&#9;c-9.1-0.7-18.2-0.8-27.3-1c-4.5-0.1-9.1-0.2-13.6-0.2C1154.2,725.7,1149.9,724.9,1146.3,726.5&#10;&#9;&#9;&#9;&#9;&#9;&#9;C1146.3,726.5,1146.3,726.5,1146.3,726.5L1146.3,726.5z" style="fill: rgb(255, 255, 255);"/>
				</g>
			</g>
			<g>
				<g>
					<path class="st1" d="M1145.8,728.6c0-1.5,0-1.9-0.1-1.2c0,1.8,0,3.7,0.1,5.5c0.1,3,0.3,6.1,0.5,9.1c0.5,5.5,1.3,11.1,2.2,16.5&#10;&#9;&#9;&#9;&#9;&#9;&#9;c2.1,12,5.7,23.9,10.9,34.9c0.1,0.3,0.6,0.1,0.5-0.2c-3.8-11-7.1-22-9.4-33.4c-1.2-5.9-2-11.9-2.5-17.8&#10;&#9;&#9;&#9;&#9;&#9;&#9;c-0.5-5.4,0-11.2-1.1-16.5c-0.1-0.5-0.9-0.4-0.9,0.1c-0.1,1-0.3,2-0.4,3C1145.7,728.7,1145.8,728.7,1145.8,728.6L1145.8,728.6z&#10;&#9;&#9;&#9;&#9;&#9;&#9;" style="fill: rgb(255, 255, 255);"/>
				</g>
			</g>
		</g><linearGradient id="SVGID_16_" gradientUnits="userSpaceOnUse" x1="-1160.5542" y1="1436.364" x2="-1069.4427" y2="1436.364" gradientTransform="matrix(-0.7071 0.7071 0.7071 0.7071 -721.4078 428.6049)">
				<stop offset="0" style="stop-color:#99C44A"/>
				<stop offset="1" style="stop-color:#749944"/>
			</linearGradient><path class="st16" d="M1037.3,646.6c2.1,37.5,33.3,71.3,70.6,76.4c9.7,1.3,20.6,0.5,27.8-6.2c7.1-6.7,8.6-17.4,8.2-27.1&#10;&#9;&#9;&#9;&#9;c-1.1-28-14.8-55.2-36.5-72.9c-21.8-17.6-51.3-25.4-78.9-20.7C1040.2,609.1,1036.3,629.1,1037.3,646.6z" style="fill: url('#SVGID_16_');" transform="matrix(1, 0, 0, 1, 8.526512829121202e-14, 2.1316282072803006e-14)"/><g transform="matrix(1, 0, 0, 1, 1.1368683772161603e-13, 2.842170943040401e-14)">
					<path class="st1" d="M1134,716.9c-5.8-9.6-13.8-18.3-20.7-27.1c-7.4-9.4-14.8-18.9-22.2-28.3c-15.1-19.3-29.6-39.6-45.8-57.9&#10;&#9;&#9;&#9;&#9;&#9;&#9;c-0.3-0.4-1,0.1-0.7,0.5c13.2,19.1,28.6,37,43,55.3c7.4,9.4,14.8,18.9,22.2,28.3c7.7,9.8,14.9,20.8,23.7,29.6&#10;&#9;&#9;&#9;&#9;&#9;&#9;C1133.7,717.7,1134.2,717.3,1134,716.9L1134,716.9z" style="fill: rgb(255, 255, 255);"/>
				</g><g transform="matrix(1, 0, 0, 1, 1.1368683772161603e-13, 2.842170943040401e-14)">
					<path class="st1" d="M1064,627.3c0.3-4.4-0.5-8.8-1-13.2c-0.5-4.4-0.8-9-1.9-13.3c-0.1-0.5-0.8-0.4-0.8,0.1&#10;&#9;&#9;&#9;&#9;&#9;&#9;c-0.1,4.4,0.7,8.8,1.3,13.2c0.5,4.4,0.8,9,2.2,13.2C1063.7,627.4,1064,627.4,1064,627.3L1064,627.3z" style="fill: rgb(255, 255, 255);"/>
				</g><g transform="matrix(1, 0, 0, 1, 1.1368683772161603e-13, 2.842170943040401e-14)">
					<path class="st1" d="M1061.8,628.5c-7.4-2.9-15.5-6.2-23.3-7.7c-0.4-0.1-0.6,0.5-0.3,0.6c7.2,3.5,15.7,5.8,23.3,8&#10;&#9;&#9;&#9;&#9;&#9;&#9;C1062.1,629.5,1062.3,628.7,1061.8,628.5L1061.8,628.5z" style="fill: rgb(255, 255, 255);"/>
				</g><g transform="matrix(1, 0, 0, 1, 1.1368683772161603e-13, 2.842170943040401e-14)">
					<path class="st1" d="M1076.8,642.7c1.4-4.8,0.6-10.5,0.6-15.5c0-5.8,0.4-11.7-0.3-17.4c-0.1-0.5-0.7-0.5-0.8,0&#10;&#9;&#9;&#9;&#9;&#9;&#9;c-0.7,5.7-0.3,11.6-0.3,17.4c0,5-0.8,10.7,0.7,15.5C1076.7,642.8,1076.7,642.8,1076.8,642.7L1076.8,642.7z" style="fill: rgb(255, 255, 255);"/>
				</g><g transform="matrix(1, 0, 0, 1, 1.1368683772161603e-13, 2.842170943040401e-14)">
					<path class="st1" d="M1076.3,647.2c-5.7-3.1-12.4-4.6-18.5-6.7c-6.7-2.3-13.6-5.2-20.6-6.6c-0.3-0.1-0.5,0.4-0.2,0.5&#10;&#9;&#9;&#9;&#9;&#9;&#9;c5.9,2.8,12.4,4.5,18.6,6.5c6.7,2.2,13.6,5.3,20.6,6.4C1076.3,647.4,1076.4,647.2,1076.3,647.2L1076.3,647.2z" style="fill: rgb(255, 255, 255);"/>
				</g><g transform="matrix(1, 0, 0, 1, 1.1368683772161603e-13, 2.842170943040401e-14)">
					<path class="st1" d="M1093.3,664.8c0.5-7.1,0.6-14.1,0.7-21.2c0.2-7,0.9-14.3,0.1-21.2c0-0.3-0.6-0.5-0.6-0.1&#10;&#9;&#9;&#9;&#9;&#9;&#9;c-1.1,6.3-0.7,13-0.9,19.4c-0.2,7.7-0.5,15.4-0.3,23.2C1092.4,665.5,1093.3,665.5,1093.3,664.8L1093.3,664.8z" style="fill: rgb(255, 255, 255);"/>
				</g><g transform="matrix(1, 0, 0, 1, 1.1368683772161603e-13, 2.842170943040401e-14)">
					<path class="st1" d="M1094.1,664.4c-7.5-3.5-16.2-4.9-24.2-7.1c-8.7-2.4-17.4-5.3-26.2-7c-0.6-0.1-0.8,0.7-0.2,0.9&#10;&#9;&#9;&#9;&#9;&#9;&#9;c8.5,3,17.4,4.9,26.1,7.3c7.9,2.1,16.2,5.3,24.4,6.2C1094.1,664.6,1094.2,664.4,1094.1,664.4L1094.1,664.4z" style="fill: rgb(255, 255, 255);"/>
				</g><g transform="matrix(1, 0, 0, 1, 1.1368683772161603e-13, 2.842170943040401e-14)">
					<path class="st1" d="M1112,693c1.4-9.5-0.2-19.9-0.5-29.5c-0.4-11.1-0.5-22.3-1.6-33.4c0-0.4-0.6-0.4-0.6,0&#10;&#9;&#9;&#9;&#9;&#9;&#9;c-0.3,10.5,0.3,20.9,0.7,31.4c0.2,5.2,0.4,10.5,0.6,15.7c0.2,5.2-0.1,10.7,1.1,15.7C1111.7,693.2,1112,693.2,1112,693L1112,693&#10;&#9;&#9;&#9;&#9;&#9;&#9;z" style="fill: rgb(255, 255, 255);"/>
				</g><g transform="matrix(1, 0, 0, 1, 1.1368683772161603e-13, 2.842170943040401e-14)">
					<path class="st1" d="M1110.9,689.2c-14.8-5.4-30.3-10.4-45.6-14c-0.6-0.1-0.7,0.6-0.2,0.8c14.6,5.7,30.3,10.3,45.5,14.2&#10;&#9;&#9;&#9;&#9;&#9;&#9;C1111.3,690.5,1111.5,689.4,1110.9,689.2L1110.9,689.2z" style="fill: rgb(255, 255, 255);"/>
				</g><g transform="matrix(1, 0, 0, 1, 1.1368683772161603e-13, 2.842170943040401e-14)">
					<path class="st1" d="M1128.3,708.5c1.4-3.1,0.8-6.4,0.7-9.8c-0.1-4.5-0.2-9.1-0.2-13.6c-0.2-9.7-0.3-19.5-1.1-29.2&#10;&#9;&#9;&#9;&#9;&#9;&#9;c0-0.6-0.9-0.6-0.9,0c-0.4,9.1-0.1,18.2,0,27.3c0,4.5,0.2,9.1,0.3,13.6C1127.2,700.6,1126.5,705,1128.3,708.5&#10;&#9;&#9;&#9;&#9;&#9;&#9;C1128.3,708.5,1128.3,708.5,1128.3,708.5L1128.3,708.5z" style="fill: rgb(255, 255, 255);"/>
				</g><g transform="matrix(1, 0, 0, 1, 1.1368683772161603e-13, 2.842170943040401e-14)">
					<path class="st1" d="M1126.2,709.2c1-0.1,2-0.3,3-0.4c0.5,0,0.6-0.8,0.1-0.9c-4.8-1-9.9-0.6-14.7-1c-6.6-0.5-13.2-1.5-19.7-2.7&#10;&#9;&#9;&#9;&#9;&#9;&#9;c-11.4-2.2-22.4-5.6-33.4-9.4c-0.3-0.1-0.5,0.4-0.2,0.5c10.5,4.9,21.7,8.3,33.1,10.6c5.5,1.1,11,1.8,16.5,2.4&#10;&#9;&#9;&#9;&#9;&#9;&#9;c3,0.3,6.1,0.5,9.1,0.7c1.8,0.1,3.7,0.1,5.5,0.1c4.1,0,1.2-0.2,0.6-0.1C1126.1,709,1126.1,709.2,1126.2,709.2L1126.2,709.2z" style="fill: rgb(255, 255, 255);"/>
				</g><linearGradient id="SVGID_17_" gradientUnits="userSpaceOnUse" x1="467.37" y1="-63.46" x2="558.4815" y2="-63.46" gradientTransform="matrix(0.7071 0.7071 -0.7071 0.7071 784.2363 336.2096)">
				<stop offset="0" style="stop-color:#99C44A"/>
				<stop offset="1" style="stop-color:#749944"/>
			</linearGradient><path class="st17" d="M1237.2,644.8c-2.1,37.5-33.3,71.3-70.6,76.4c-9.7,1.3-20.6,0.5-27.8-6.2c-7.1-6.7-8.6-17.4-8.2-27.1&#10;&#9;&#9;&#9;&#9;c1.1-28,14.8-55.2,36.5-72.9s51.3-25.4,78.9-20.7C1234.3,607.3,1238.2,627.3,1237.2,644.8z" style="fill: url('#SVGID_17_');" transform="matrix(1, 0, 0, 1, 8.526512829121202e-14, 2.1316282072803006e-14)"/><g transform="matrix(1, 0, 0, 1, 1.1368683772161603e-13, 2.842170943040401e-14)">
					<path class="st1" d="M1141.1,715.6c8.3-8.3,15.2-18.7,22.5-28c7.4-9.4,14.8-18.9,22.2-28.3c14.8-18.8,30.6-37.2,44.2-56.9&#10;&#9;&#9;&#9;&#9;&#9;&#9;c0.3-0.4-0.4-0.9-0.7-0.5c-15.8,17.8-29.9,37.6-44.6,56.3c-7.4,9.4-14.8,18.9-22.2,28.3c-7.3,9.3-15.8,18.5-22,28.6&#10;&#9;&#9;&#9;&#9;&#9;&#9;C1140.3,715.5,1140.8,715.9,1141.1,715.6L1141.1,715.6z" style="fill: rgb(255, 255, 255);"/>
				</g><g transform="matrix(1, 0, 0, 1, 1.1368683772161603e-13, 2.842170943040401e-14)">
					<path class="st1" d="M1210.8,625.5c1.2-3.6,1.5-7.5,1.9-11.3c0.6-5,1.6-10,1.5-15.1c0-0.5-0.7-0.6-0.8-0.1&#10;&#9;&#9;&#9;&#9;&#9;&#9;c-1,3.7-1.2,7.6-1.7,11.4c-0.6,5-1.6,10.1-1.2,15.1C1210.5,625.6,1210.7,625.6,1210.8,625.5L1210.8,625.5z" style="fill: rgb(255, 255, 255);"/>
				</g><g transform="matrix(1, 0, 0, 1, 1.1368683772161603e-13, 2.842170943040401e-14)">
					<path class="st1" d="M1213,627.5c7.7-2.2,16.2-4.5,23.3-8c0.4-0.2,0.1-0.7-0.3-0.6c-7.8,1.5-15.9,4.8-23.3,7.7&#10;&#9;&#9;&#9;&#9;&#9;&#9;C1212.2,626.9,1212.4,627.7,1213,627.5L1213,627.5z" style="fill: rgb(255, 255, 255);"/>
				</g><g transform="matrix(1, 0, 0, 1, 1.1368683772161603e-13, 2.842170943040401e-14)">
					<path class="st1" d="M1197.8,640.9c1.4-4.8,0.6-10.5,0.7-15.5c0-5.8,0.4-11.7-0.3-17.4c-0.1-0.5-0.7-0.5-0.8,0&#10;&#9;&#9;&#9;&#9;&#9;&#9;c-0.7,5.7-0.4,11.6-0.3,17.4c0,5-0.8,10.7,0.6,15.5C1197.7,641,1197.8,641,1197.8,640.9L1197.8,640.9z" style="fill: rgb(255, 255, 255);"/>
				</g><g transform="matrix(1, 0, 0, 1, 1.1368683772161603e-13, 2.842170943040401e-14)">
					<path class="st1" d="M1198.3,645.6c7-1.1,13.9-4.2,20.6-6.4c6.2-2.1,12.7-3.7,18.6-6.5c0.3-0.2,0.1-0.6-0.2-0.5&#10;&#9;&#9;&#9;&#9;&#9;&#9;c-7,1.4-13.8,4.3-20.6,6.6c-6.1,2.1-12.8,3.6-18.5,6.7C1198.1,645.4,1198.2,645.6,1198.3,645.6L1198.3,645.6z" style="fill: rgb(255, 255, 255);"/>
				</g><g transform="matrix(1, 0, 0, 1, 1.1368683772161603e-13, 2.842170943040401e-14)">
					<path class="st1" d="M1182.1,663c0.1-7.1-0.1-14.2-0.3-21.2c-0.2-7,0.2-14.3-0.9-21.3c-0.1-0.4-0.6-0.2-0.6,0.1&#10;&#9;&#9;&#9;&#9;&#9;&#9;c-0.8,7-0.1,14.2,0.1,21.2c0.2,7.1,0.3,14.2,0.7,21.2C1181.2,663.6,1182.1,663.6,1182.1,663L1182.1,663z" style="fill: rgb(255, 255, 255);"/>
				</g><g transform="matrix(1, 0, 0, 1, 1.1368683772161603e-13, 2.842170943040401e-14)">
					<path class="st1" d="M1180.5,662.8c8.2-0.8,16.5-4,24.4-6.2c8.7-2.3,17.6-4.3,26.1-7.3c0.6-0.2,0.3-1-0.2-0.9&#10;&#9;&#9;&#9;&#9;&#9;&#9;c-8.8,1.7-17.5,4.6-26.2,7c-7.9,2.2-16.7,3.6-24.2,7.1C1180.3,662.6,1180.4,662.8,1180.5,662.8L1180.5,662.8z" style="fill: rgb(255, 255, 255);"/>
				</g><g transform="matrix(1, 0, 0, 1, 1.1368683772161603e-13, 2.842170943040401e-14)">
					<path class="st1" d="M1162.8,691.2c2.1-9.3,1.2-19.9,1.6-29.5c0.4-11.1,1.1-22.3,0.8-33.4c0-0.4-0.5-0.4-0.6,0&#10;&#9;&#9;&#9;&#9;&#9;&#9;c-1,10.4-1.2,20.9-1.5,31.4c-0.4,10.2-2.1,21.4-0.6,31.5C1162.5,691.4,1162.8,691.4,1162.8,691.2L1162.8,691.2z" style="fill: rgb(255, 255, 255);"/>
				</g><g transform="matrix(1, 0, 0, 1, 1.1368683772161603e-13, 2.842170943040401e-14)">
					<path class="st1" d="M1163.9,688.5c15.2-3.9,30.9-8.5,45.5-14.2c0.5-0.2,0.3-1-0.2-0.8c-15.3,3.5-30.8,8.6-45.6,14&#10;&#9;&#9;&#9;&#9;&#9;&#9;C1162.9,687.6,1163.2,688.7,1163.9,688.5L1163.9,688.5z" style="fill: rgb(255, 255, 255);"/>
				</g><g transform="matrix(1, 0, 0, 1, 1.1368683772161603e-13, 2.842170943040401e-14)">
					<path class="st1" d="M1146.2,706.7c1.5-3,1-6.4,1.1-9.8c0.1-4.5,0.2-9.1,0.3-13.6c0.2-9.7,0.4-19.5,0-29.2c0-0.6-0.9-0.6-0.9,0&#10;&#9;&#9;&#9;&#9;&#9;&#9;c-0.7,9.1-0.8,18.2-1,27.3c-0.1,4.5-0.2,9.1-0.2,13.6C1145.4,698.8,1144.5,703.1,1146.2,706.7&#10;&#9;&#9;&#9;&#9;&#9;&#9;C1146.1,706.7,1146.2,706.7,1146.2,706.7L1146.2,706.7z" style="fill: rgb(255, 255, 255);"/>
				</g><g transform="matrix(1, 0, 0, 1, 1.1368683772161603e-13, 2.842170943040401e-14)">
					<path class="st1" d="M1148.3,707.2c-1.5,0-1.9,0-1.2,0.1c1.8,0,3.7,0,5.5-0.1c3-0.1,6.1-0.3,9.1-0.5c5.5-0.5,11.1-1.3,16.5-2.2&#10;&#9;&#9;&#9;&#9;&#9;&#9;c12-2.1,23.9-5.7,34.9-10.9c0.3-0.1,0.1-0.6-0.2-0.5c-11,3.8-22,7.1-33.4,9.4c-5.9,1.2-11.9,2-17.8,2.5&#10;&#9;&#9;&#9;&#9;&#9;&#9;c-5.4,0.5-11.2,0-16.5,1.1c-0.5,0.1-0.4,0.9,0.1,0.9c1,0.1,2,0.3,3,0.4C1148.4,707.4,1148.4,707.2,1148.3,707.2L1148.3,707.2z" style="fill: rgb(255, 255, 255);"/>
				</g><linearGradient id="SVGID_18_" gradientUnits="userSpaceOnUse" x1="471.2048" y1="1999.6492" x2="562.3163" y2="1999.6492" gradientTransform="matrix(0.7071 0.7071 0.7071 -0.7071 -698.4654 1818.9113)">
				<stop offset="0" style="stop-color:#99C44A"/>
				<stop offset="1" style="stop-color:#749944"/>
			</linearGradient><path class="st18" d="M1071.7,815.7c37.5-2.1,71.3-33.3,76.4-70.6c1.3-9.7,0.5-20.6-6.2-27.8c-6.7-7.1-17.4-8.6-27.1-8.2&#10;&#9;&#9;&#9;&#9;c-28,1.1-55.2,14.8-72.9,36.5s-25.4,51.3-20.7,78.9C1034.2,812.9,1054.2,816.7,1071.7,815.7z" style="fill: url('#SVGID_18_');" transform="matrix(1, 0, 0, 1, 8.526512829121202e-14, 2.1316282072803006e-14)"/><g transform="matrix(1, 0, 0, 1, 1.1368683772161603e-13, 2.842170943040401e-14)">
					<path class="st1" d="M1142,719c-9.6,5.8-18.3,13.8-27.1,20.7c-9.4,7.4-18.9,14.8-28.3,22.2c-19.3,15.1-39.6,29.6-57.9,45.8&#10;&#9;&#9;&#9;&#9;&#9;&#9;c-0.4,0.3,0.1,1,0.5,0.7c19.1-13.2,37-28.6,55.3-43c9.4-7.4,18.9-14.8,28.3-22.2c9.8-7.7,20.8-14.9,29.6-23.7&#10;&#9;&#9;&#9;&#9;&#9;&#9;C1142.8,719.3,1142.4,718.8,1142,719L1142,719z" style="fill: rgb(255, 255, 255);"/>
				</g><g transform="matrix(1, 0, 0, 1, 1.1368683772161603e-13, 2.842170943040401e-14)">
					<path class="st1" d="M1052.3,789.1c-4.4-0.3-8.8,0.5-13.2,1c-4.4,0.5-9,0.8-13.3,1.9c-0.5,0.1-0.4,0.8,0.1,0.8&#10;&#9;&#9;&#9;&#9;&#9;&#9;c4.4,0.1,8.8-0.7,13.2-1.3c4.4-0.5,9-0.8,13.2-2.2C1052.5,789.3,1052.5,789.1,1052.3,789.1L1052.3,789.1z" style="fill: rgb(255, 255, 255);"/>
				</g><g transform="matrix(1, 0, 0, 1, 1.1368683772161603e-13, 2.842170943040401e-14)">
					<path class="st1" d="M1053.5,791.3c-2.9,7.4-6.2,15.5-7.7,23.3c-0.1,0.4,0.5,0.6,0.6,0.3c3.5-7.2,5.8-15.7,8-23.3&#10;&#9;&#9;&#9;&#9;&#9;&#9;C1054.6,790.9,1053.7,790.7,1053.5,791.3L1053.5,791.3z" style="fill: rgb(255, 255, 255);"/>
				</g><g transform="matrix(1, 0, 0, 1, 1.1368683772161603e-13, 2.842170943040401e-14)">
					<path class="st1" d="M1067.8,776.3c-4.8-1.4-10.5-0.6-15.5-0.6c-5.8,0-11.7-0.4-17.4,0.3c-0.5,0.1-0.5,0.7,0,0.8&#10;&#9;&#9;&#9;&#9;&#9;&#9;c5.7,0.7,11.6,0.3,17.4,0.3c5,0,10.7,0.8,15.5-0.7C1067.9,776.4,1067.9,776.3,1067.8,776.3L1067.8,776.3z" style="fill: rgb(255, 255, 255);"/>
				</g><g transform="matrix(1, 0, 0, 1, 1.1368683772161603e-13, 2.842170943040401e-14)">
					<path class="st1" d="M1072.2,776.7c-3.1,5.7-4.6,12.4-6.7,18.5c-2.3,6.7-5.2,13.6-6.6,20.6c-0.1,0.3,0.4,0.5,0.5,0.2&#10;&#9;&#9;&#9;&#9;&#9;&#9;c2.8-5.9,4.5-12.4,6.5-18.6c2.2-6.7,5.3-13.6,6.4-20.6C1072.4,776.7,1072.3,776.6,1072.2,776.7L1072.2,776.7z" style="fill: rgb(255, 255, 255);"/>
				</g><g transform="matrix(1, 0, 0, 1, 1.1368683772161603e-13, 2.842170943040401e-14)">
					<path class="st1" d="M1089.9,759.7c-7.1-0.5-14.1-0.6-21.2-0.7c-7-0.2-14.3-0.9-21.2-0.1c-0.3,0-0.5,0.6-0.1,0.6&#10;&#9;&#9;&#9;&#9;&#9;&#9;c6.3,1.1,13,0.7,19.4,0.9c7.7,0.2,15.4,0.5,23.2,0.3C1090.5,760.7,1090.5,759.7,1089.9,759.7L1089.9,759.7z" style="fill: rgb(255, 255, 255);"/>
				</g><g transform="matrix(1, 0, 0, 1, 1.1368683772161603e-13, 2.842170943040401e-14)">
					<path class="st1" d="M1089.4,759c-3.5,7.5-4.9,16.2-7.1,24.2c-2.4,8.7-5.3,17.4-7,26.2c-0.1,0.6,0.7,0.8,0.9,0.2&#10;&#9;&#9;&#9;&#9;&#9;&#9;c3-8.5,4.9-17.4,7.3-26.1c2.1-7.9,5.3-16.2,6.2-24.4C1089.7,758.9,1089.5,758.9,1089.4,759L1089.4,759z" style="fill: rgb(255, 255, 255);"/>
				</g><g transform="matrix(1, 0, 0, 1, 1.1368683772161603e-13, 2.842170943040401e-14)">
					<path class="st1" d="M1118.1,741c-9.5-1.4-19.9,0.2-29.5,0.5c-11.1,0.4-22.3,0.5-33.4,1.6c-0.4,0-0.4,0.6,0,0.6&#10;&#9;&#9;&#9;&#9;&#9;&#9;c10.5,0.3,20.9-0.3,31.4-0.7c5.2-0.2,10.5-0.4,15.7-0.6c5.2-0.2,10.7,0.1,15.7-1.1C1118.2,741.3,1118.2,741.1,1118.1,741&#10;&#9;&#9;&#9;&#9;&#9;&#9;L1118.1,741z" style="fill: rgb(255, 255, 255);"/>
				</g><g transform="matrix(1, 0, 0, 1, 1.1368683772161603e-13, 2.842170943040401e-14)">
					<path class="st1" d="M1114.2,742.2c-5.4,14.8-10.4,30.3-14,45.6c-0.1,0.6,0.6,0.7,0.8,0.2c5.7-14.6,10.3-30.3,14.2-45.5&#10;&#9;&#9;&#9;&#9;&#9;&#9;C1115.5,741.7,1114.5,741.5,1114.2,742.2L1114.2,742.2z" style="fill: rgb(255, 255, 255);"/>
				</g><g transform="matrix(1, 0, 0, 1, 1.1368683772161603e-13, 2.842170943040401e-14)">
					<path class="st1" d="M1133.6,724.7c-3.1-1.4-6.4-0.8-9.8-0.7c-4.5,0.1-9.1,0.2-13.6,0.2c-9.7,0.2-19.5,0.3-29.2,1.1&#10;&#9;&#9;&#9;&#9;&#9;&#9;c-0.6,0-0.6,0.9,0,0.9c9.1,0.4,18.2,0.1,27.3,0c4.5,0,9.1-0.2,13.6-0.3C1125.7,725.8,1130,726.5,1133.6,724.7&#10;&#9;&#9;&#9;&#9;&#9;&#9;C1133.6,724.8,1133.6,724.7,1133.6,724.7L1133.6,724.7z" style="fill: rgb(255, 255, 255);"/>
				</g><g transform="matrix(1, 0, 0, 1, 1.1368683772161603e-13, 2.842170943040401e-14)">
					<path class="st1" d="M1134.2,726.8c-0.1-1-0.3-2-0.4-3c0-0.5-0.8-0.6-0.9-0.1c-1,4.8-0.6,9.9-1,14.7&#10;&#9;&#9;&#9;&#9;&#9;&#9;c-0.5,6.6-1.5,13.2-2.7,19.7c-2.2,11.4-5.6,22.4-9.4,33.4c-0.1,0.3,0.4,0.5,0.5,0.2c4.9-10.5,8.3-21.7,10.6-33.1&#10;&#9;&#9;&#9;&#9;&#9;&#9;c1.1-5.5,1.8-11,2.4-16.5c0.3-3,0.5-6.1,0.7-9.1c0.1-1.8,0.1-3.7,0.1-5.5c0-4.1-0.2-1.2-0.1-0.6&#10;&#9;&#9;&#9;&#9;&#9;&#9;C1134.1,727,1134.2,726.9,1134.2,726.8L1134.2,726.8z" style="fill: rgb(255, 255, 255);"/>
				</g><linearGradient id="SVGID_19_" gradientUnits="userSpaceOnUse" x1="-462.1282" y1="-124.1904" x2="-371.0166" y2="-124.1904" gradientTransform="matrix(4.489700e-11 1 -1 4.489700e-11 1097.5391 1129.9845)">
				<stop offset="0" style="stop-color:#99C44A"/>
				<stop offset="1" style="stop-color:#749944"/>
			</linearGradient><path class="st19" d="M1260.3,738.9c-28,25-74,26.8-103.9,4.1c-7.8-5.9-15-14.2-15.3-24c-0.3-9.7,6.2-18.4,13.4-25&#10;&#9;&#9;&#9;&#9;c20.6-19,49.5-28.6,77.4-25.7c27.9,2.9,54.2,18.3,70.4,41.2C1284.8,710.4,1273.4,727.3,1260.3,738.9z" style="fill: url('#SVGID_19_');" transform="matrix(1, 0, 0, 1, 8.526512829121202e-14, 2.1316282072803006e-14)"/><g transform="matrix(1, 0, 0, 1, 1.1368683772161603e-13, 2.842170943040401e-14)">
					<path class="st1" d="M1142.4,721.1c11.8,0,24-2.5,35.7-3.9c11.9-1.4,23.8-2.9,35.7-4.3c23.8-2.9,48-4.7,71.5-9&#10;&#9;&#9;&#9;&#9;&#9;&#9;c0.5-0.1,0.4-0.9-0.1-0.9c-23.8,1.4-47.7,5.4-71.4,8.3c-11.9,1.4-23.8,2.9-35.7,4.3c-11.8,1.4-24.3,1.9-35.8,4.7&#10;&#9;&#9;&#9;&#9;&#9;&#9;C1141.8,720.4,1141.9,721.1,1142.4,721.1L1142.4,721.1z" style="fill: rgb(255, 255, 255);"/>
				</g><g transform="matrix(1, 0, 0, 1, 1.1368683772161603e-13, 2.842170943040401e-14)">
					<path class="st1" d="M1255.3,706.6c3.5-1.7,6.5-4.4,9.6-6.8c3.9-3,8.2-5.9,11.5-9.4c0.3-0.3-0.1-0.9-0.5-0.6&#10;&#9;&#9;&#9;&#9;&#9;&#9;c-3.4,1.9-6.4,4.6-9.4,7c-3.8,3-8.2,5.9-11.3,9.6C1255.1,706.6,1255.2,706.7,1255.3,706.6L1255.3,706.6z" style="fill: rgb(255, 255, 255);"/>
				</g><g transform="matrix(1, 0, 0, 1, 1.1368683772161603e-13, 2.842170943040401e-14)">
					<path class="st1" d="M1255.4,709.7c7,3.9,14.6,8.3,22.2,10.9c0.4,0.1,0.6-0.4,0.3-0.6c-6.6-4.4-14.7-7.8-22-11&#10;&#9;&#9;&#9;&#9;&#9;&#9;C1255.4,708.6,1254.9,709.4,1255.4,709.7L1255.4,709.7z" style="fill: rgb(255, 255, 255);"/>
				</g><g transform="matrix(1, 0, 0, 1, 1.1368683772161603e-13, 2.842170943040401e-14)">
					<path class="st1" d="M1235.3,708.4c4.2-2.2,7.5-6.6,10.8-9.9c4.3-4.3,9-8.4,12.7-13.1c0.3-0.4-0.2-0.9-0.5-0.5&#10;&#9;&#9;&#9;&#9;&#9;&#9;c-4.3,3.4-8,7.5-11.9,11.4C1242.7,699.9,1237.6,703.7,1235.3,708.4C1235.1,708.4,1235.2,708.4,1235.3,708.4L1235.3,708.4z" style="fill: rgb(255, 255, 255);"/>
				</g><g transform="matrix(1, 0, 0, 1, 1.1368683772161603e-13, 2.842170943040401e-14)">
					<path class="st1" d="M1232.3,712c5.7,4.2,12.8,6.9,19.1,10c5.8,2.9,11.6,6.4,17.8,8.5c0.3,0.1,0.5-0.4,0.2-0.5&#10;&#9;&#9;&#9;&#9;&#9;&#9;c-5.9-4-12.8-6.7-19.2-9.9c-5.8-2.9-11.6-6.5-17.8-8.4C1232.3,711.7,1232.2,711.9,1232.3,712L1232.3,712z" style="fill: rgb(255, 255, 255);"/>
				</g><g transform="matrix(1, 0, 0, 1, 1.1368683772161603e-13, 2.842170943040401e-14)">
					<path class="st1" d="M1208.6,712.9c5.1-4.9,9.9-10.1,14.8-15.2c4.9-5.1,10.3-10,14.4-15.7c0.2-0.3-0.2-0.6-0.5-0.4&#10;&#9;&#9;&#9;&#9;&#9;&#9;c-5.5,4.3-10.1,10-14.9,15.1c-4.9,5.1-9.8,10.2-14.5,15.5C1207.4,712.7,1208.1,713.4,1208.6,712.9L1208.6,712.9z" style="fill: rgb(255, 255, 255);"/>
				</g><g transform="matrix(1, 0, 0, 1, 1.1368683772161603e-13, 2.842170943040401e-14)">
					<path class="st1" d="M1207.5,711.6c6.4,5.2,14.5,8.8,21.6,12.9c7.8,4.5,15.5,9.4,23.6,13.3c0.5,0.3,1-0.5,0.5-0.8&#10;&#9;&#9;&#9;&#9;&#9;&#9;c-7.5-5-15.6-9.1-23.4-13.6c-7.1-4.1-14.4-9.2-22.1-12.1C1207.5,711.3,1207.4,711.5,1207.5,711.6L1207.5,711.6z" style="fill: rgb(255, 255, 255);"/>
				</g><g transform="matrix(1, 0, 0, 1, 1.1368683772161603e-13, 2.842170943040401e-14)">
					<path class="st1" d="M1175,719.2c8.1-5.1,15-13.2,22-19.7c8.1-7.6,16.5-15,24.1-23c0.3-0.3-0.1-0.6-0.4-0.4&#10;&#9;&#9;&#9;&#9;&#9;&#9;c-8.1,6.7-15.6,14-23.3,21.1c-3.8,3.6-7.7,7.1-11.5,10.7c-3.8,3.6-8.1,6.9-11.2,11.1C1174.6,719.1,1174.8,719.3,1175,719.2&#10;&#9;&#9;&#9;&#9;&#9;&#9;L1175,719.2z" style="fill: rgb(255, 255, 255);"/>
				</g><g transform="matrix(1, 0, 0, 1, 1.1368683772161603e-13, 2.842170943040401e-14)">
					<path class="st1" d="M1177.7,718.1c13.5,8,27.8,15.8,42.2,22.1c0.5,0.2,0.9-0.4,0.4-0.7c-13.3-8.3-27.9-15.7-42.1-22.3&#10;&#9;&#9;&#9;&#9;&#9;&#9;C1177.6,716.8,1177,717.7,1177.7,718.1L1177.7,718.1z" style="fill: rgb(255, 255, 255);"/>
				</g><g transform="matrix(1, 0, 0, 1, 1.1368683772161603e-13, 2.842170943040401e-14)">
					<path class="st1" d="M1152.3,718.4c3.2-1.1,5.3-3.8,7.7-6.1c3.3-3.1,6.6-6.3,9.9-9.4c7-6.7,14.1-13.5,20.7-20.6&#10;&#9;&#9;&#9;&#9;&#9;&#9;c0.4-0.4-0.2-1-0.6-0.6c-6.9,5.9-13.4,12.3-20,18.6c-3.3,3.1-6.5,6.3-9.8,9.5C1157.2,712.3,1153.6,714.7,1152.3,718.4&#10;&#9;&#9;&#9;&#9;&#9;&#9;C1152.2,718.4,1152.2,718.4,1152.3,718.4L1152.3,718.4z" style="fill: rgb(255, 255, 255);"/>
				</g><g transform="matrix(1, 0, 0, 1, 1.1368683772161603e-13, 2.842170943040401e-14)">
					<path class="st1" d="M1153.4,720.2c-1.1-1.1-1.4-1.4-1-0.9c1.2,1.2,2.4,2.4,3.6,3.6c2.4,2.3,5,4.6,7.6,6.7&#10;&#9;&#9;&#9;&#9;&#9;&#9;c4.4,3.7,9,7.1,13.7,10.3c9.8,6.7,20.4,12.4,31.6,16.4c0.3,0.1,0.5-0.4,0.2-0.5c-10.2-4.9-20-10.3-29.5-16.5&#10;&#9;&#9;&#9;&#9;&#9;&#9;c-5.1-3.4-10-7.1-14.8-11c-4.3-3.6-8.2-8.2-12.9-11.2c-0.4-0.3-0.9,0.3-0.5,0.7c0.6,0.8,1.2,1.6,1.8,2.4&#10;&#9;&#9;&#9;&#9;&#9;&#9;C1153.3,720.4,1153.4,720.3,1153.4,720.2L1153.4,720.2z" style="fill: rgb(255, 255, 255);"/>
				</g><linearGradient id="SVGID_20_" gradientUnits="userSpaceOnUse" x1="-462.0986" y1="2056.5742" x2="-370.9871" y2="2056.5742" gradientTransform="matrix(4.489700e-11 1 1 -4.489700e-11 -999.3177 1129.9845)">
				<stop offset="0" style="stop-color:#99C44A"/>
				<stop offset="1" style="stop-color:#749944"/>
			</linearGradient><path class="st20" d="M1018.6,739c28,25,74,26.8,103.9,4.1c7.8-5.9,15-14.2,15.3-24c0.3-9.7-6.2-18.4-13.4-25&#10;&#9;&#9;&#9;&#9;c-20.6-19-49.5-28.6-77.4-25.7c-27.9,2.9-54.2,18.3-70.4,41.2C994.2,710.5,1005.6,727.3,1018.6,739z" style="fill: url('#SVGID_20_');" transform="matrix(1, 0, 0, 1, 8.526512829121202e-14, 2.1316282072803006e-14)"/><g transform="matrix(1, 0, 0, 1, 1.1368683772161603e-13, 2.842170943040401e-14)">
					<path class="st1" d="M1136.7,720.3c-10.9-2.7-22.7-3.1-33.8-4.5c-11.9-1.4-23.8-2.9-35.7-4.3c-24.3-2.9-48.9-7.1-73.4-8.5&#10;&#9;&#9;&#9;&#9;&#9;&#9;c-0.5,0-0.6,0.8-0.1,0.9c22.9,4.2,46.4,5.9,69.5,8.7c11.9,1.4,23.8,2.9,35.7,4.3c12.4,1.5,25.2,4.2,37.7,4.2&#10;&#9;&#9;&#9;&#9;&#9;&#9;C1137.1,721.1,1137.2,720.4,1136.7,720.3L1136.7,720.3z" style="fill: rgb(255, 255, 255);"/>
				</g><g transform="matrix(1, 0, 0, 1, 1.1368683772161603e-13, 2.842170943040401e-14)">
					<path class="st1" d="M1023.8,706.5c-2.8-3.3-6.6-5.9-10-8.6c-3.5-2.7-6.9-5.9-10.7-8c-0.4-0.2-0.8,0.3-0.5,0.6&#10;&#9;&#9;&#9;&#9;&#9;&#9;c3,3.2,6.8,5.7,10.2,8.4c3.5,2.7,6.9,5.9,10.9,7.8C1023.8,706.8,1023.9,706.6,1023.8,706.5L1023.8,706.5z" style="fill: rgb(255, 255, 255);"/>
				</g><g transform="matrix(1, 0, 0, 1, 1.1368683772161603e-13, 2.842170943040401e-14)">
					<path class="st1" d="M1023.1,708.9c-7.3,3.2-15.4,6.6-22,11c-0.3,0.2-0.1,0.8,0.3,0.6c7.6-2.6,15.2-7,22.2-10.9&#10;&#9;&#9;&#9;&#9;&#9;&#9;C1024.1,709.4,1023.6,708.6,1023.1,708.9L1023.1,708.9z" style="fill: rgb(255, 255, 255);"/>
				</g><g transform="matrix(1, 0, 0, 1, 1.1368683772161603e-13, 2.842170943040401e-14)">
					<path class="st1" d="M1043.8,708.3c-2.2-4.2-6.6-7.5-9.9-10.8c-4.3-4.3-8.4-9-13.2-12.7c-0.4-0.3-0.9,0.2-0.5,0.5&#10;&#9;&#9;&#9;&#9;&#9;&#9;c3.4,4.3,7.5,8,11.4,11.8C1035.3,700.9,1039.1,706,1043.8,708.3C1043.8,708.5,1043.8,708.4,1043.8,708.3L1043.8,708.3z" style="fill: rgb(255, 255, 255);"/>
				</g><g transform="matrix(1, 0, 0, 1, 1.1368683772161603e-13, 2.842170943040401e-14)">
					<path class="st1" d="M1046.6,711.8c-6.2,1.9-12,5.5-17.8,8.4c-6.4,3.2-13.3,5.9-19.2,9.9c-0.3,0.2-0.1,0.7,0.2,0.5&#10;&#9;&#9;&#9;&#9;&#9;&#9;c6.2-2.1,12-5.6,17.8-8.5c6.3-3.2,13.4-5.9,19.1-10C1046.8,711.9,1046.7,711.8,1046.6,711.8L1046.6,711.8z" style="fill: rgb(255, 255, 255);"/>
				</g><g transform="matrix(1, 0, 0, 1, 1.1368683772161603e-13, 2.842170943040401e-14)">
					<path class="st1" d="M1071.1,712.2c-4.7-5.3-9.6-10.4-14.5-15.5c-4.8-5.1-9.4-10.7-14.9-15.1c-0.3-0.2-0.8,0.1-0.5,0.4&#10;&#9;&#9;&#9;&#9;&#9;&#9;c3.7,5.2,8.6,9.7,13.1,14.3c5.3,5.6,10.6,11.2,16.1,16.6C1070.9,713.4,1071.6,712.7,1071.1,712.2L1071.1,712.2z" style="fill: rgb(255, 255, 255);"/>
				</g><g transform="matrix(1, 0, 0, 1, 1.1368683772161603e-13, 2.842170943040401e-14)">
					<path class="st1" d="M1071.3,711.4c-7.7,2.8-15,8-22.1,12.1c-7.8,4.4-16,8.5-23.4,13.6c-0.5,0.3-0.1,1,0.5,0.8&#10;&#9;&#9;&#9;&#9;&#9;&#9;c8.1-3.9,15.8-8.8,23.6-13.3c7.1-4.1,15.3-7.7,21.6-12.9C1071.5,711.5,1071.4,711.4,1071.3,711.4L1071.3,711.4z" style="fill: rgb(255, 255, 255);"/>
				</g><g transform="matrix(1, 0, 0, 1, 1.1368683772161603e-13, 2.842170943040401e-14)">
					<path class="st1" d="M1104.3,719c-5.7-7.7-14.2-14-21.2-20.5c-8.1-7.6-16.1-15.4-24.7-22.5c-0.3-0.2-0.7,0.1-0.4,0.4&#10;&#9;&#9;&#9;&#9;&#9;&#9;c7.2,7.6,15,14.6,22.7,21.7c3.8,3.6,7.7,7.1,11.5,10.7c3.8,3.5,7.5,7.6,11.9,10.4C1104.2,719.3,1104.4,719.1,1104.3,719&#10;&#9;&#9;&#9;&#9;&#9;&#9;L1104.3,719z" style="fill: rgb(255, 255, 255);"/>
				</g><g transform="matrix(1, 0, 0, 1, 1.1368683772161603e-13, 2.842170943040401e-14)">
					<path class="st1" d="M1100.7,717.1c-14.2,6.6-28.8,14-42.1,22.3c-0.5,0.3-0.1,1,0.4,0.7c14.4-6.3,28.7-14.1,42.2-22.1&#10;&#9;&#9;&#9;&#9;&#9;&#9;C1102,717.7,1101.4,716.8,1100.7,717.1L1100.7,717.1z" style="fill: rgb(255, 255, 255);"/>
				</g><g transform="matrix(1, 0, 0, 1, 1.1368683772161603e-13, 2.842170943040401e-14)">
					<path class="st1" d="M1126.8,718.4c-1.2-3.2-4-5.1-6.4-7.4c-3.3-3.2-6.5-6.3-9.8-9.5c-7-6.8-14-13.6-21.4-19.9&#10;&#9;&#9;&#9;&#9;&#9;&#9;c-0.4-0.4-1.1,0.2-0.6,0.6c6.2,6.7,12.8,12.9,19.3,19.3c3.2,3.2,6.6,6.3,9.9,9.4C1120.4,713.6,1123,717.2,1126.8,718.4&#10;&#9;&#9;&#9;&#9;&#9;&#9;C1126.8,718.5,1126.8,718.4,1126.8,718.4L1126.8,718.4z" style="fill: rgb(255, 255, 255);"/>
				</g><g transform="matrix(1, 0, 0, 1, 1.1368683772161603e-13, 2.842170943040401e-14)">
					<path class="st1" d="M1125.7,720.4c0.6-0.8,1.2-1.6,1.8-2.4c0.3-0.4-0.1-1-0.5-0.7c-4.2,2.7-7.7,6.9-11.6,10.1&#10;&#9;&#9;&#9;&#9;&#9;&#9;c-4.7,4-9.6,7.7-14.6,11.1c-9.8,6.7-20.2,12.2-30.9,17.4c-0.3,0.1-0.1,0.6,0.2,0.5c11.2-4,21.7-9.8,31.6-16.4&#10;&#9;&#9;&#9;&#9;&#9;&#9;c4.7-3.2,9.3-6.7,13.7-10.3c2.2-1.8,4.3-3.7,6.4-5.6c1.3-1.1,2.5-2.3,3.7-3.5c2.8-2.7,0.5-0.8,0.2-0.3&#10;&#9;&#9;&#9;&#9;&#9;&#9;C1125.5,720.4,1125.7,720.5,1125.7,720.4L1125.7,720.4z" style="fill: rgb(255, 255, 255);"/>
				</g><linearGradient id="SVGID_21_" gradientUnits="userSpaceOnUse" x1="1087.5803" y1="634.9957" x2="1178.6918" y2="634.9957">
				<stop offset="0" style="stop-color:#99C44A"/>
				<stop offset="1" style="stop-color:#749944"/>
			</linearGradient><path class="st21" d="M1158.7,596.4c25,28,26.8,74,4.1,103.9c-5.9,7.8-14.2,15-24,15.3c-9.7,0.3-18.4-6.2-25-13.4&#10;&#9;&#9;&#9;&#9;c-19-20.6-28.6-49.5-25.7-77.4s18.3-54.2,41.2-70.4C1130.2,571.9,1147,583.3,1158.7,596.4z" style="fill: url('#SVGID_21_');" transform="matrix(1, 0, 0, 1, 8.526512829121202e-14, 2.1316282072803006e-14)"/><g transform="matrix(1, 0, 0, 1, 1.1368683772161603e-13, 2.842170943040401e-14)">
					<path class="st1" d="M1140.8,714.3c0-11.8-2.5-24-3.9-35.7c-1.4-11.9-2.9-23.8-4.3-35.7c-2.9-23.8-4.7-48-9-71.5&#10;&#9;&#9;&#9;&#9;&#9;&#9;c-0.1-0.5-0.9-0.4-0.9,0.1c1.4,23.8,5.4,47.7,8.3,71.4c1.4,11.9,2.9,23.8,4.3,35.7c1.4,11.8,1.9,24.3,4.7,35.8&#10;&#9;&#9;&#9;&#9;&#9;&#9;C1140.1,714.9,1140.8,714.8,1140.8,714.3L1140.8,714.3z" style="fill: rgb(255, 255, 255);"/>
				</g><g transform="matrix(1, 0, 0, 1, 1.1368683772161603e-13, 2.842170943040401e-14)">
					<path class="st1" d="M1126.4,601.4c-1.7-3.5-4.4-6.5-6.8-9.6c-3-3.9-5.9-8.2-9.4-11.5c-0.3-0.3-0.9,0.1-0.6,0.5&#10;&#9;&#9;&#9;&#9;&#9;&#9;c1.9,3.4,4.6,6.4,7,9.4c3,3.8,5.9,8.2,9.6,11.3C1126.3,601.7,1126.4,601.5,1126.4,601.4L1126.4,601.4z" style="fill: rgb(255, 255, 255);"/>
				</g><g transform="matrix(1, 0, 0, 1, 1.1368683772161603e-13, 2.842170943040401e-14)">
					<path class="st1" d="M1129.4,601.3c3.9-7,8.3-14.6,10.9-22.2c0.1-0.4-0.4-0.6-0.6-0.3c-4.4,6.6-7.8,14.7-11,22&#10;&#9;&#9;&#9;&#9;&#9;&#9;C1128.3,601.4,1129.1,601.8,1129.4,601.3L1129.4,601.3z" style="fill: rgb(255, 255, 255);"/>
				</g><g transform="matrix(1, 0, 0, 1, 1.1368683772161603e-13, 2.842170943040401e-14)">
					<path class="st1" d="M1128.1,621.4c-2.2-4.2-6.6-7.5-9.9-10.8c-4.3-4.3-8.4-9-13.1-12.7c-0.4-0.3-0.9,0.2-0.5,0.5&#10;&#9;&#9;&#9;&#9;&#9;&#9;c3.4,4.3,7.5,8,11.4,11.9C1119.7,614,1123.4,619.1,1128.1,621.4C1128.1,621.6,1128.2,621.5,1128.1,621.4L1128.1,621.4z" style="fill: rgb(255, 255, 255);"/>
				</g><g transform="matrix(1, 0, 0, 1, 1.1368683772161603e-13, 2.842170943040401e-14)">
					<path class="st1" d="M1131.7,624.4c4.2-5.7,6.9-12.8,10-19.1c2.9-5.8,6.4-11.6,8.5-17.8c0.1-0.3-0.4-0.5-0.5-0.2&#10;&#9;&#9;&#9;&#9;&#9;&#9;c-4,5.9-6.7,12.8-9.9,19.2c-2.9,5.8-6.5,11.6-8.4,17.8C1131.5,624.5,1131.6,624.5,1131.7,624.4L1131.7,624.4z" style="fill: rgb(255, 255, 255);"/>
				</g><g transform="matrix(1, 0, 0, 1, 1.1368683772161603e-13, 2.842170943040401e-14)">
					<path class="st1" d="M1132.6,648.2c-4.9-5.1-10.1-9.9-15.2-14.8c-5.1-4.9-10-10.3-15.7-14.4c-0.3-0.2-0.6,0.2-0.4,0.5&#10;&#9;&#9;&#9;&#9;&#9;&#9;c4.3,5.5,10,10.1,15.1,14.9c5.1,4.9,10.2,9.8,15.5,14.5C1132.4,649.3,1133.1,648.6,1132.6,648.2L1132.6,648.2z" style="fill: rgb(255, 255, 255);"/>
				</g><g transform="matrix(1, 0, 0, 1, 1.1368683772161603e-13, 2.842170943040401e-14)">
					<path class="st1" d="M1131.3,649.2c5.2-6.4,8.8-14.5,12.9-21.6c4.5-7.8,9.4-15.5,13.3-23.6c0.3-0.5-0.5-1-0.8-0.5&#10;&#9;&#9;&#9;&#9;&#9;&#9;c-5,7.5-9.1,15.6-13.6,23.4c-4.1,7.1-9.2,14.4-12.1,22.1C1131.1,649.2,1131.2,649.3,1131.3,649.2L1131.3,649.2z" style="fill: rgb(255, 255, 255);"/>
				</g><g transform="matrix(1, 0, 0, 1, 1.1368683772161603e-13, 2.842170943040401e-14)">
					<path class="st1" d="M1138.9,681.8c-5.1-8.1-13.2-15-19.7-22c-7.6-8.1-15-16.5-23-24.1c-0.3-0.3-0.6,0.1-0.4,0.4&#10;&#9;&#9;&#9;&#9;&#9;&#9;c6.7,8.1,14,15.6,21.1,23.3c3.6,3.8,7.1,7.7,10.7,11.5c3.6,3.8,6.9,8.1,11.1,11.2C1138.8,682.1,1139,681.9,1138.9,681.8&#10;&#9;&#9;&#9;&#9;&#9;&#9;L1138.9,681.8z" style="fill: rgb(255, 255, 255);"/>
				</g><g transform="matrix(1, 0, 0, 1, 1.1368683772161603e-13, 2.842170943040401e-14)">
					<path class="st1" d="M1137.8,679.1c8-13.5,15.8-27.8,22.1-42.2c0.2-0.5-0.4-0.9-0.7-0.4c-8.3,13.3-15.7,27.9-22.3,42.1&#10;&#9;&#9;&#9;&#9;&#9;&#9;C1136.5,679.1,1137.4,679.7,1137.8,679.1L1137.8,679.1z" style="fill: rgb(255, 255, 255);"/>
				</g><g transform="matrix(1, 0, 0, 1, 1.1368683772161603e-13, 2.842170943040401e-14)">
					<path class="st1" d="M1138.1,704.5c-1.1-3.2-3.8-5.3-6.1-7.7c-3.1-3.3-6.3-6.6-9.4-9.9c-6.7-7-13.5-14.1-20.6-20.7&#10;&#9;&#9;&#9;&#9;&#9;&#9;c-0.4-0.4-1,0.2-0.6,0.6c5.9,6.9,12.3,13.4,18.6,20c3.1,3.3,6.3,6.5,9.5,9.8C1132,699.5,1134.4,703.1,1138.1,704.5&#10;&#9;&#9;&#9;&#9;&#9;&#9;C1138.1,704.5,1138.1,704.5,1138.1,704.5L1138.1,704.5z" style="fill: rgb(255, 255, 255);"/>
				</g><g transform="matrix(1, 0, 0, 1, 1.1368683772161603e-13, 2.842170943040401e-14)">
					<path class="st1" d="M1140,703.3c-1.1,1.1-1.4,1.4-0.9,1c1.2-1.2,2.4-2.4,3.6-3.6c2.3-2.4,4.6-5,6.7-7.6&#10;&#9;&#9;&#9;&#9;&#9;&#9;c3.7-4.4,7.1-9,10.3-13.7c6.7-9.8,12.4-20.4,16.4-31.6c0.1-0.3-0.4-0.5-0.5-0.2c-4.9,10.2-10.3,20-16.5,29.5&#10;&#9;&#9;&#9;&#9;&#9;&#9;c-3.4,5.1-7.1,10-11,14.8c-3.6,4.3-8.2,8.2-11.2,12.9c-0.3,0.4,0.3,0.9,0.7,0.5c0.8-0.6,1.6-1.2,2.4-1.8&#10;&#9;&#9;&#9;&#9;&#9;&#9;C1140.1,703.4,1140.1,703.3,1140,703.3L1140,703.3z" style="fill: rgb(255, 255, 255);"/>
				</g><linearGradient id="SVGID_22_" gradientUnits="userSpaceOnUse" x1="1091.4152" y1="1301.1935" x2="1182.5267" y2="1301.1935" gradientTransform="matrix(1 0 0 -1 0 2096.8567)">
				<stop offset="0" style="stop-color:#99C44A"/>
				<stop offset="1" style="stop-color:#749944"/>
			</linearGradient><path class="st22" d="M1162.5,834.3c25-28,26.8-74,4.1-103.9c-5.9-7.8-14.2-15-24-15.3c-9.7-0.3-18.4,6.2-25,13.4&#10;&#9;&#9;&#9;&#9;c-19,20.6-28.6,49.5-25.7,77.4c2.9,27.9,18.3,54.2,41.2,70.4C1134,858.8,1150.9,847.3,1162.5,834.3z" style="fill: url('#SVGID_22_');" transform="matrix(1, 0, 0, 1, 8.526512829121202e-14, 2.1316282072803006e-14)"/><g transform="matrix(1, 0, 0, 1, 1.1368683772161603e-13, 2.842170943040401e-14)">
					<path class="st1" d="M1143.9,716.2c-2.7,10.9-3.1,22.7-4.5,33.8c-1.4,11.9-2.9,23.8-4.3,35.7c-2.9,24.3-7.1,48.9-8.5,73.4&#10;&#9;&#9;&#9;&#9;&#9;&#9;c0,0.5,0.8,0.6,0.9,0.1c4.2-22.9,5.9-46.4,8.7-69.5c1.4-11.9,2.9-23.8,4.3-35.7c1.5-12.4,4.2-25.2,4.2-37.7&#10;&#9;&#9;&#9;&#9;&#9;&#9;C1144.6,715.9,1144,715.8,1143.9,716.2L1143.9,716.2z" style="fill: rgb(255, 255, 255);"/>
				</g><g transform="matrix(1, 0, 0, 1, 1.1368683772161603e-13, 2.842170943040401e-14)">
					<path class="st1" d="M1130,829.1c-3.3,2.8-5.9,6.6-8.6,10c-2.7,3.5-5.9,6.9-8,10.7c-0.2,0.4,0.3,0.8,0.6,0.5&#10;&#9;&#9;&#9;&#9;&#9;&#9;c3.2-3,5.7-6.8,8.4-10.2c2.7-3.5,5.9-6.9,7.8-10.9C1130.3,829.1,1130.1,829,1130,829.1L1130,829.1z" style="fill: rgb(255, 255, 255);"/>
				</g><g transform="matrix(1, 0, 0, 1, 1.1368683772161603e-13, 2.842170943040401e-14)">
					<path class="st1" d="M1132.4,829.8c3.2,7.3,6.6,15.4,11,22c0.2,0.3,0.8,0.1,0.6-0.3c-2.6-7.6-7-15.2-10.9-22.2&#10;&#9;&#9;&#9;&#9;&#9;&#9;C1132.9,828.8,1132.2,829.3,1132.4,829.8L1132.4,829.8z" style="fill: rgb(255, 255, 255);"/>
				</g><g transform="matrix(1, 0, 0, 1, 1.1368683772161603e-13, 2.842170943040401e-14)">
					<path class="st1" d="M1131.9,809.1c-4.2,2.2-7.5,6.6-10.8,9.9c-4.3,4.3-9,8.4-12.7,13.2c-0.3,0.4,0.2,0.9,0.5,0.5&#10;&#9;&#9;&#9;&#9;&#9;&#9;c4.3-3.4,8-7.5,11.8-11.4C1124.5,817.6,1129.6,813.9,1131.9,809.1C1132,809.1,1131.9,809.1,1131.9,809.1L1131.9,809.1z" style="fill: rgb(255, 255, 255);"/>
				</g><g transform="matrix(1, 0, 0, 1, 1.1368683772161603e-13, 2.842170943040401e-14)">
					<path class="st1" d="M1135.3,806.3c1.9,6.2,5.5,12,8.4,17.8c3.2,6.4,5.9,13.3,9.9,19.2c0.2,0.3,0.7,0.1,0.5-0.2&#10;&#9;&#9;&#9;&#9;&#9;&#9;c-2.1-6.2-5.6-12-8.5-17.8c-3.2-6.3-5.9-13.4-10-19.1C1135.5,806.1,1135.3,806.2,1135.3,806.3L1135.3,806.3z" style="fill: rgb(255, 255, 255);"/>
				</g><g transform="matrix(1, 0, 0, 1, 1.1368683772161603e-13, 2.842170943040401e-14)">
					<path class="st1" d="M1135.8,781.8c-5.3,4.7-10.4,9.6-15.5,14.5c-5.1,4.8-10.7,9.4-15.1,14.9c-0.2,0.3,0.1,0.8,0.4,0.5&#10;&#9;&#9;&#9;&#9;&#9;&#9;c5.2-3.7,9.7-8.6,14.3-13.1c5.6-5.3,11.2-10.6,16.6-16.1C1136.9,782,1136.3,781.4,1135.8,781.8L1135.8,781.8z" style="fill: rgb(255, 255, 255);"/>
				</g><g transform="matrix(1, 0, 0, 1, 1.1368683772161603e-13, 2.842170943040401e-14)">
					<path class="st1" d="M1134.9,781.6c2.8,7.7,8,15,12.1,22.1c4.4,7.8,8.5,16,13.6,23.4c0.3,0.5,1,0.1,0.8-0.5&#10;&#9;&#9;&#9;&#9;&#9;&#9;c-3.9-8.1-8.8-15.8-13.3-23.6c-4.1-7.1-7.7-15.3-12.9-21.6C1135.1,781.4,1134.9,781.5,1134.9,781.6L1134.9,781.6z" style="fill: rgb(255, 255, 255);"/>
				</g><g transform="matrix(1, 0, 0, 1, 1.1368683772161603e-13, 2.842170943040401e-14)">
					<path class="st1" d="M1142.5,748.7c-7.7,5.7-14,14.2-20.5,21.2c-7.6,8.1-15.4,16.1-22.5,24.7c-0.2,0.3,0.1,0.7,0.4,0.4&#10;&#9;&#9;&#9;&#9;&#9;&#9;c7.6-7.2,14.6-15,21.7-22.7c3.6-3.8,7.1-7.7,10.7-11.5c3.5-3.8,7.6-7.5,10.4-11.9C1142.8,748.8,1142.7,748.5,1142.5,748.7&#10;&#9;&#9;&#9;&#9;&#9;&#9;L1142.5,748.7z" style="fill: rgb(255, 255, 255);"/>
				</g><g transform="matrix(1, 0, 0, 1, 1.1368683772161603e-13, 2.842170943040401e-14)">
					<path class="st1" d="M1140.6,752.2c6.6,14.2,14,28.8,22.3,42.1c0.3,0.5,1,0.1,0.7-0.4c-6.3-14.4-14.1-28.7-22.1-42.2&#10;&#9;&#9;&#9;&#9;&#9;&#9;C1141.2,750.9,1140.3,751.5,1140.6,752.2L1140.6,752.2z" style="fill: rgb(255, 255, 255);"/>
				</g><g transform="matrix(1, 0, 0, 1, 1.1368683772161603e-13, 2.842170943040401e-14)">
					<path class="st1" d="M1141.9,726.1c-3.2,1.2-5.1,4-7.4,6.4c-3.2,3.3-6.3,6.5-9.5,9.8c-6.8,7-13.6,14-19.9,21.4&#10;&#9;&#9;&#9;&#9;&#9;&#9;c-0.4,0.4,0.2,1.1,0.6,0.6c6.7-6.2,12.9-12.8,19.3-19.3c3.2-3.2,6.3-6.6,9.4-9.9C1137.2,732.5,1140.7,729.9,1141.9,726.1&#10;&#9;&#9;&#9;&#9;&#9;&#9;C1142,726.2,1141.9,726.1,1141.9,726.1L1141.9,726.1z" style="fill: rgb(255, 255, 255);"/>
				</g><g transform="matrix(1, 0, 0, 1, 1.1368683772161603e-13, 2.842170943040401e-14)">
					<path class="st1" d="M1143.9,727.2c-0.8-0.6-1.6-1.2-2.4-1.8c-0.4-0.3-1,0.1-0.7,0.5c2.7,4.2,6.9,7.7,10.1,11.6&#10;&#9;&#9;&#9;&#9;&#9;&#9;c4,4.7,7.7,9.6,11.1,14.6c6.7,9.8,12.2,20.2,17.4,30.9c0.1,0.3,0.6,0.1,0.5-0.2c-4-11.2-9.8-21.7-16.4-31.6&#10;&#9;&#9;&#9;&#9;&#9;&#9;c-3.2-4.7-6.7-9.3-10.3-13.7c-1.8-2.2-3.7-4.3-5.6-6.4c-1.1-1.3-2.3-2.5-3.5-3.7c-2.7-2.8-0.8-0.5-0.3-0.2&#10;&#9;&#9;&#9;&#9;&#9;&#9;C1143.9,727.4,1144,727.2,1143.9,727.2L1143.9,727.2z" style="fill: rgb(255, 255, 255);"/>
				</g><linearGradient id="SVGID_23_" gradientUnits="userSpaceOnUse" x1="1042.9785" y1="185.6158" x2="1129.1084" y2="185.6158">
			<stop offset="0" style="stop-color:#99C44A"/>
			<stop offset="1" style="stop-color:#749944"/>
		</linearGradient><path class="st23" d="M1129.1,238.4c-23.6-5.8-45.3-19.5-60.7-38.4c-15.4-18.9-24.5-42.8-25.5-67.1c23.6,5.9,45.2,19.6,60.6,38.5&#10;&#9;&#9;&#9;C1118.9,190.2,1128,214.1,1129.1,238.4z" style="fill: url('#SVGID_23_');" transform="matrix(1, 0, 0, 1, 5.684341886080802e-14, 1.4210854715202004e-14)"/><linearGradient id="SVGID_24_" gradientUnits="userSpaceOnUse" x1="1012.769" y1="214.2358" x2="1126.9595" y2="214.2358">
			<stop offset="0" style="stop-color:#99C44A"/>
			<stop offset="1" style="stop-color:#749944"/>
		</linearGradient><path class="st24" d="M1089.9,206.6c-25.7-9.1-51.4-18.2-77.1-27.2c33,29.6,71.3,53.4,112.5,69.8c4.3-9.5-0.2-21.2-7.8-28.3&#10;&#9;&#9;&#9;C1109.9,213.7,1099.7,210.1,1089.9,206.6z" style="fill: url('#SVGID_24_');" transform="matrix(1, 0, 0, 1, 5.684341886080802e-14, 1.4210854715202004e-14)"/><linearGradient id="SVGID_25_" gradientUnits="userSpaceOnUse" x1="980.3912" y1="241.1631" x2="1136.7933" y2="241.1631">
			<stop offset="0" style="stop-color:#99C44A"/>
			<stop offset="1" style="stop-color:#749944"/>
		</linearGradient><path class="st25" d="M1136.8,244.9c-50.5-15.1-103.9-20.3-156.4-15.1C1027.4,256.2,1085.6,261.8,1136.8,244.9z" style="fill: url('#SVGID_25_');" transform="matrix(1, 0, 0, 1, 5.684341886080802e-14, 1.4210854715202004e-14)"/><linearGradient id="SVGID_26_" gradientUnits="userSpaceOnUse" x1="981.6791" y1="275.8218" x2="1129.8972" y2="275.8218">
			<stop offset="0" style="stop-color:#99C44A"/>
			<stop offset="1" style="stop-color:#749944"/>
		</linearGradient><path class="st26" d="M1129.9,239.6c-36.1,43.7-91.6,70.8-148.2,72.5C1024.2,276.4,1075.6,251.2,1129.9,239.6z" style="fill: url('#SVGID_26_');" transform="matrix(1, 0, 0, 1, 5.684341886080802e-14, 1.4210854715202004e-14)"/><linearGradient id="SVGID_27_" gradientUnits="userSpaceOnUse" x1="1012.7031" y1="284.7685" x2="1125.3624" y2="284.7685">
			<stop offset="0" style="stop-color:#99C44A"/>
			<stop offset="1" style="stop-color:#749944"/>
		</linearGradient><path class="st27" d="M1012.7,337.2c34.1-38.4,71.9-73.6,112.7-104.9c-3.1,26.9-19.7,50.8-40.8,67.8&#10;&#9;&#9;&#9;C1063.5,317.2,1038.2,328,1012.7,337.2z" style="fill: url('#SVGID_27_');" transform="matrix(1, 0, 0, 1, 5.684341886080802e-14, 1.4210854715202004e-14)"/><linearGradient id="SVGID_28_" gradientUnits="userSpaceOnUse" x1="1121.6591" y1="172.5437" x2="1151.4539" y2="172.5437">
			<stop offset="0" style="stop-color:#99C44A"/>
			<stop offset="1" style="stop-color:#749944"/>
		</linearGradient><path class="st28" d="M1136.5,104.9c23.1,41.9,19,97.2-9.9,135.2C1117.5,195.3,1121,148,1136.5,104.9z" style="fill: url('#SVGID_28_');" transform="matrix(1, 0, 0, 1, 5.684341886080802e-14, 1.4210854715202004e-14)"/><linearGradient id="SVGID_29_" gradientUnits="userSpaceOnUse" x1="1128.5444" y1="179.2141" x2="1192.1957" y2="179.2141">
			<stop offset="0" style="stop-color:#99C44A"/>
			<stop offset="1" style="stop-color:#749944"/>
		</linearGradient><path class="st29" d="M1128.5,239.6c9.1-44.9,30.7-87.1,61.7-120.8c4.6,23.9,1,49.3-10.1,71S1150.6,229.3,1128.5,239.6z" style="fill: url('#SVGID_29_');" transform="matrix(1, 0, 0, 1, 5.684341886080802e-14, 1.4210854715202004e-14)"/><linearGradient id="SVGID_30_" gradientUnits="userSpaceOnUse" x1="1127.8545" y1="198.558" x2="1251.525" y2="198.558">
			<stop offset="0" style="stop-color:#99C44A"/>
			<stop offset="1" style="stop-color:#749944"/>
		</linearGradient><path class="st30" d="M1192.5,208.2c-14.7,13.6-29.9,27.6-48.9,34.3c-5,1.8-11.8,2.4-14.7-2c-3.4-5.2,1.8-11.7,6.6-15.7&#10;&#9;&#9;&#9;c35.1-29.1,74.2-53.2,116-71.4C1231.8,171.6,1212.2,189.9,1192.5,208.2z" style="fill: url('#SVGID_30_');" transform="matrix(1, 0, 0, 1, 5.684341886080802e-14, 1.4210854715202004e-14)"/><linearGradient id="SVGID_31_" gradientUnits="userSpaceOnUse" x1="1034.1581" y1="316.1097" x2="1129.8605" y2="316.1097">
			<stop offset="0" style="stop-color:#99C44A"/>
			<stop offset="1" style="stop-color:#749944"/>
		</linearGradient><path class="st31" d="M1128.5,238c-49.2,38.1-83.5,94.9-94.3,156.1c31.6-11.5,61.2-32.6,79.3-60.9&#10;&#9;&#9;&#9;C1131.6,305,1131.2,271.6,1128.5,238z" style="fill: url('#SVGID_31_');" transform="matrix(1, 0, 0, 1, 5.684341886080802e-14, 1.4210854715202004e-14)"/><linearGradient id="SVGID_32_" gradientUnits="userSpaceOnUse" x1="1127.8545" y1="231.5473" x2="1287.7271" y2="231.5473">
			<stop offset="0" style="stop-color:#99C44A"/>
			<stop offset="1" style="stop-color:#749944"/>
		</linearGradient><path class="st32" d="M1287.7,216.1c-47.1,29.2-105.7,39.4-159.9,27.8C1177.2,220.1,1233.2,210.3,1287.7,216.1z" style="fill: url('#SVGID_32_');" transform="matrix(1, 0, 0, 1, 5.684341886080802e-14, 1.4210854715202004e-14)"/><linearGradient id="SVGID_33_" gradientUnits="userSpaceOnUse" x1="1115.7472" y1="331.5324" x2="1154.782" y2="331.5324">
			<stop offset="0" style="stop-color:#99C44A"/>
			<stop offset="1" style="stop-color:#749944"/>
		</linearGradient><path class="st33" d="M1136.2,425.7c27.5-59.3,24.2-131.8-8.4-188.4C1105.6,297.3,1117.4,364.5,1136.2,425.7z" style="fill: url('#SVGID_33_');" transform="matrix(1, 0, 0, 1, 5.684341886080802e-14, 1.4210854715202004e-14)"/><linearGradient id="SVGID_34_" gradientUnits="userSpaceOnUse" x1="1129.2743" y1="316.6105" x2="1221.7836" y2="316.6105">
			<stop offset="0" style="stop-color:#99C44A"/>
			<stop offset="1" style="stop-color:#749944"/>
		</linearGradient><path class="st34" d="M1130.9,256.7c20.2,50.5,51.4,96.5,90.9,133.8c-1.6-57.2-32.3-112.9-79.8-144.8c-2.9-1.9-6.5-3.8-9.6-2.3&#10;&#9;&#9;&#9;C1128,245.6,1129,252.1,1130.9,256.7z" style="fill: url('#SVGID_34_');" transform="matrix(1, 0, 0, 1, 5.684341886080802e-14, 1.4210854715202004e-14)"/><linearGradient id="SVGID_35_" gradientUnits="userSpaceOnUse" x1="1133.2084" y1="295.9565" x2="1271.6976" y2="295.9565">
			<stop offset="0" style="stop-color:#99C44A"/>
			<stop offset="1" style="stop-color:#749944"/>
		</linearGradient><path class="st35" d="M1133.2,239.5c33.5,50.3,82.5,90.2,138.5,112.9C1248.2,294.9,1194.3,250.9,1133.2,239.5z" style="fill: url('#SVGID_35_');" transform="matrix(1, 0, 0, 1, 5.684341886080802e-14, 1.4210854715202004e-14)"/><linearGradient id="SVGID_36_" gradientUnits="userSpaceOnUse" x1="1136.5299" y1="266.1552" x2="1298.5946" y2="266.1552">
			<stop offset="0" style="stop-color:#99C44A"/>
			<stop offset="1" style="stop-color:#749944"/>
		</linearGradient><path class="st36" d="M1136.5,240.8c45.1,36.4,104.3,54.7,162.1,50C1249.8,261.2,1193.6,243.8,1136.5,240.8z" style="fill: url('#SVGID_36_');" transform="matrix(1, 0, 0, 1, 5.684341886080802e-14, 1.4210854715202004e-14)"/><g transform="matrix(1, 0, 0, 1, 5.684341886080802e-14, 1.4210854715202004e-14)">
			
				<linearGradient id="SVGID_37_" gradientUnits="userSpaceOnUse" x1="-2434.7402" y1="-1278.0945" x2="-2345.4478" y2="-1278.0945" gradientTransform="matrix(4.489700e-11 1 -1 4.489700e-11 -500.7029 2600.0115)">
				<stop offset="0" style="stop-color:#99C44A"/>
				<stop offset="1" style="stop-color:#749944"/>
			</linearGradient>
			<path class="st37" d="M722.7,254.6c6-24.5,20.2-46.9,39.8-62.9s44.4-25.4,69.6-26.4c-6.1,24.5-20.3,46.8-39.9,62.8&#10;&#9;&#9;&#9;&#9;C772.7,244,747.9,253.5,722.7,254.6z" style="fill: url('#SVGID_37_');"/>
			
				<linearGradient id="SVGID_38_" gradientUnits="userSpaceOnUse" x1="-2466.0591" y1="-1248.4236" x2="-2347.6755" y2="-1248.4236" gradientTransform="matrix(4.489700e-11 1 -1 4.489700e-11 -500.7029 2600.0115)">
				<stop offset="0" style="stop-color:#99C44A"/>
				<stop offset="1" style="stop-color:#749944"/>
			</linearGradient>
			<path class="st38" d="M755.7,213.9c9.4-26.6,18.8-53.3,28.2-79.9c-30.7,34.2-55.3,73.9-72.4,116.7c9.9,4.4,21.9-0.2,29.3-8.1&#10;&#9;&#9;&#9;&#9;C748.3,234.6,752.1,224.1,755.7,213.9z" style="fill: url('#SVGID_38_');"/>
			
				<linearGradient id="SVGID_39_" gradientUnits="userSpaceOnUse" x1="-2499.6257" y1="-1220.5076" x2="-2337.4807" y2="-1220.5076" gradientTransform="matrix(4.489700e-11 1 -1 4.489700e-11 -500.7029 2600.0115)">
				<stop offset="0" style="stop-color:#99C44A"/>
				<stop offset="1" style="stop-color:#749944"/>
			</linearGradient>
			<path class="st39" d="M715.9,262.5c15.7-52.3,21-107.8,15.7-162.1C704.3,149.1,698.4,209.5,715.9,262.5z" style="fill: url('#SVGID_39_');"/>
			
				<linearGradient id="SVGID_40_" gradientUnits="userSpaceOnUse" x1="-2498.2905" y1="-1184.5763" x2="-2344.6299" y2="-1184.5763" gradientTransform="matrix(4.489700e-11 1 -1 4.489700e-11 -500.7029 2600.0115)">
				<stop offset="0" style="stop-color:#99C44A"/>
				<stop offset="1" style="stop-color:#749944"/>
			</linearGradient>
			<path class="st40" d="M721.5,255.4c-45.3-37.5-73.4-94.9-75.2-153.7C683.3,145.8,709.4,199.1,721.5,255.4z" style="fill: url('#SVGID_40_');"/>
			
				<linearGradient id="SVGID_41_" gradientUnits="userSpaceOnUse" x1="-2466.1274" y1="-1175.301" x2="-2349.3313" y2="-1175.301" gradientTransform="matrix(4.489700e-11 1 -1 4.489700e-11 -500.7029 2600.0115)">
				<stop offset="0" style="stop-color:#99C44A"/>
				<stop offset="1" style="stop-color:#749944"/>
			</linearGradient>
			<path class="st41" d="M620.2,133.9c39.8,35.4,76.3,74.5,108.7,116.8c-27.9-3.2-52.7-20.5-70.3-42.3&#10;&#9;&#9;&#9;&#9;C641,186.5,629.8,160.3,620.2,133.9z" style="fill: url('#SVGID_41_');"/>
			
				<linearGradient id="SVGID_42_" gradientUnits="userSpaceOnUse" x1="-2353.1707" y1="-1291.6466" x2="-2322.2817" y2="-1291.6466" gradientTransform="matrix(4.489700e-11 1 -1 4.489700e-11 -500.7029 2600.0115)">
				<stop offset="0" style="stop-color:#99C44A"/>
				<stop offset="1" style="stop-color:#749944"/>
			</linearGradient>
			<path class="st42" d="M861,262.3C817.6,286.2,760.3,282,720.8,252C767.3,242.6,816.4,246.2,861,262.3z" style="fill: url('#SVGID_42_');"/>
			
				<linearGradient id="SVGID_43_" gradientUnits="userSpaceOnUse" x1="-2346.0325" y1="-1284.7313" x2="-2280.0439" y2="-1284.7313" gradientTransform="matrix(4.489700e-11 1 -1 4.489700e-11 -500.7029 2600.0115)">
				<stop offset="0" style="stop-color:#99C44A"/>
				<stop offset="1" style="stop-color:#749944"/>
			</linearGradient>
			<path class="st43" d="M721.4,254c46.5,9.4,90.3,31.8,125.2,64c-24.8,4.8-51.1,1-73.6-10.5C750.6,296,732.1,276.9,721.4,254z" style="fill: url('#SVGID_43_');"/>
			
				<linearGradient id="SVGID_44_" gradientUnits="userSpaceOnUse" x1="-2346.7478" y1="-1264.6771" x2="-2218.5361" y2="-1264.6771" gradientTransform="matrix(4.489700e-11 1 -1 4.489700e-11 -500.7029 2600.0115)">
				<stop offset="0" style="stop-color:#99C44A"/>
				<stop offset="1" style="stop-color:#749944"/>
			</linearGradient>
			<path class="st44" d="M754,320.3c-14.1-15.2-28.7-31-35.5-50.7c-1.8-5.2-2.5-12.2,2.1-15.2c5.4-3.5,12.1,1.8,16.3,6.8&#10;&#9;&#9;&#9;&#9;c30.1,36.4,55.1,77,74,120.3C791.9,361.1,773,340.7,754,320.3z" style="fill: url('#SVGID_44_');"/>
			
				<linearGradient id="SVGID_45_" gradientUnits="userSpaceOnUse" x1="-2443.8845" y1="-1142.8091" x2="-2344.6682" y2="-1142.8091" gradientTransform="matrix(4.489700e-11 1 -1 4.489700e-11 -500.7029 2600.0115)">
				<stop offset="0" style="stop-color:#99C44A"/>
				<stop offset="1" style="stop-color:#749944"/>
			</linearGradient>
			<path class="st45" d="M723,253.9c-39.5-51-98.4-86.5-161.9-97.8c11.9,32.8,33.8,63.4,63.1,82.2S688.3,256.7,723,253.9z" style="fill: url('#SVGID_45_');"/>
			
				<linearGradient id="SVGID_46_" gradientUnits="userSpaceOnUse" x1="-2346.7478" y1="-1230.4764" x2="-2181.0049" y2="-1230.4764" gradientTransform="matrix(4.489700e-11 1 -1 4.489700e-11 -500.7029 2600.0115)">
				<stop offset="0" style="stop-color:#99C44A"/>
				<stop offset="1" style="stop-color:#749944"/>
			</linearGradient>
			<path class="st46" d="M745.8,419c-30.3-48.8-40.9-109.6-28.8-165.7C741.7,304.4,751.8,362.5,745.8,419z" style="fill: url('#SVGID_46_');"/>
			
				<linearGradient id="SVGID_47_" gradientUnits="userSpaceOnUse" x1="-2359.2996" y1="-1126.8201" x2="-2318.8315" y2="-1126.8201" gradientTransform="matrix(4.489700e-11 1 -1 4.489700e-11 -500.7029 2600.0115)">
				<stop offset="0" style="stop-color:#99C44A"/>
				<stop offset="1" style="stop-color:#749944"/>
			</linearGradient>
			<path class="st47" d="M528.5,262c61.4,28.5,136.6,25.1,195.3-8.7C661.6,230.1,591.9,242.5,528.5,262z" style="fill: url('#SVGID_47_');"/>
			
				<linearGradient id="SVGID_48_" gradientUnits="userSpaceOnUse" x1="-2345.2759" y1="-1142.2899" x2="-2249.3696" y2="-1142.2899" gradientTransform="matrix(4.489700e-11 1 -1 4.489700e-11 -500.7029 2600.0115)">
				<stop offset="0" style="stop-color:#99C44A"/>
				<stop offset="1" style="stop-color:#749944"/>
			</linearGradient>
			<path class="st48" d="M703.7,256.4c-52.3,20.9-100,53.3-138.7,94.3c59.3-1.7,117-33.5,150.1-82.7c2-3,4-6.8,2.4-10&#10;&#9;&#9;&#9;&#9;C715.2,253.4,708.5,254.5,703.7,256.4z" style="fill: url('#SVGID_48_');"/>
			
				<linearGradient id="SVGID_49_" gradientUnits="userSpaceOnUse" x1="-2341.1973" y1="-1163.7023" x2="-2197.6228" y2="-1163.7023" gradientTransform="matrix(4.489700e-11 1 -1 4.489700e-11 -500.7029 2600.0115)">
				<stop offset="0" style="stop-color:#99C44A"/>
				<stop offset="1" style="stop-color:#749944"/>
			</linearGradient>
			<path class="st49" d="M721.5,258.8c-52.1,34.8-93.5,85.5-117,143.6C664.1,378.1,709.7,322.1,721.5,258.8z" style="fill: url('#SVGID_49_');"/>
			
				<linearGradient id="SVGID_50_" gradientUnits="userSpaceOnUse" x1="-2337.7537" y1="-1194.5979" x2="-2169.7383" y2="-1194.5979" gradientTransform="matrix(4.489700e-11 1 -1 4.489700e-11 -500.7029 2600.0115)">
				<stop offset="0" style="stop-color:#99C44A"/>
				<stop offset="1" style="stop-color:#749944"/>
			</linearGradient>
			<path class="st50" d="M720.2,262.3c-37.7,46.7-56.7,108.2-51.8,168C699,379.6,717,321.4,720.2,262.3z" style="fill: url('#SVGID_50_');"/>
		</g><linearGradient id="SVGID_51_" gradientUnits="userSpaceOnUse" x1="594.6926" y1="182.6888" x2="683.9851" y2="182.6888">
				<stop offset="0" style="stop-color:#99C44A"/>
				<stop offset="1" style="stop-color:#749944"/>
			</linearGradient><path class="st51" d="M684,237.4c-24.5-6-46.9-20.2-62.9-39.8c-16-19.6-25.4-44.4-26.4-69.6c24.5,6.1,46.8,20.3,62.8,39.9&#10;&#9;&#9;&#9;&#9;C673.4,187.4,682.9,212.2,684,237.4z" style="fill: url('#SVGID_51_');" transform="matrix(1, 0, 0, 1, 8.526512829121202e-14, 2.1316282072803006e-14)"/><linearGradient id="SVGID_52_" gradientUnits="userSpaceOnUse" x1="563.3738" y1="212.3597" x2="681.7573" y2="212.3597">
				<stop offset="0" style="stop-color:#99C44A"/>
				<stop offset="1" style="stop-color:#749944"/>
			</linearGradient><path class="st52" d="M643.3,204.4c-26.6-9.4-53.3-18.8-79.9-28.2c34.2,30.7,73.9,55.3,116.7,72.4c4.4-9.9-0.2-21.9-8.1-29.3&#10;&#9;&#9;&#9;&#9;C664,211.8,653.5,208,643.3,204.4z" style="fill: url('#SVGID_52_');" transform="matrix(1, 0, 0, 1, 8.526512829121202e-14, 2.1316282072803006e-14)"/><linearGradient id="SVGID_53_" gradientUnits="userSpaceOnUse" x1="529.8073" y1="240.2758" x2="691.9523" y2="240.2758">
				<stop offset="0" style="stop-color:#99C44A"/>
				<stop offset="1" style="stop-color:#749944"/>
			</linearGradient><path class="st53" d="M692,244.2c-52.3-15.7-107.8-21-162.1-15.7C578.5,255.8,638.9,261.7,692,244.2z" style="fill: url('#SVGID_53_');" transform="matrix(1, 0, 0, 1, 8.526512829121202e-14, 2.1316282072803006e-14)"/><linearGradient id="SVGID_54_" gradientUnits="userSpaceOnUse" x1="531.1424" y1="276.2071" x2="684.8029" y2="276.2071">
				<stop offset="0" style="stop-color:#99C44A"/>
				<stop offset="1" style="stop-color:#749944"/>
			</linearGradient><path class="st54" d="M684.8,238.6c-37.5,45.3-94.9,73.4-153.7,75.2C575.2,276.8,628.5,250.7,684.8,238.6z" style="fill: url('#SVGID_54_');" transform="matrix(1, 0, 0, 1, 8.526512829121202e-14, 2.1316282072803006e-14)"/><linearGradient id="SVGID_55_" gradientUnits="userSpaceOnUse" x1="563.3055" y1="285.4823" x2="680.1016" y2="285.4823">
				<stop offset="0" style="stop-color:#99C44A"/>
				<stop offset="1" style="stop-color:#749944"/>
			</linearGradient><path class="st55" d="M563.3,339.8c35.4-39.8,74.5-76.3,116.8-108.7c-3.2,27.9-20.5,52.7-42.3,70.3S589.7,330.3,563.3,339.8z" style="fill: url('#SVGID_55_');" transform="matrix(1, 0, 0, 1, 8.526512829121202e-14, 2.1316282072803006e-14)"/><linearGradient id="SVGID_56_" gradientUnits="userSpaceOnUse" x1="676.2623" y1="169.1367" x2="707.1511" y2="169.1367">
				<stop offset="0" style="stop-color:#99C44A"/>
				<stop offset="1" style="stop-color:#749944"/>
			</linearGradient><path class="st56" d="M691.7,99c23.9,43.4,19.7,100.8-10.3,140.2C672,192.7,675.6,143.7,691.7,99z" style="fill: url('#SVGID_56_');" transform="matrix(1, 0, 0, 1, 8.526512829121202e-14, 2.1316282072803006e-14)"/><linearGradient id="SVGID_57_" gradientUnits="userSpaceOnUse" x1="683.4004" y1="176.052" x2="749.3889" y2="176.052">
				<stop offset="0" style="stop-color:#99C44A"/>
				<stop offset="1" style="stop-color:#749944"/>
			</linearGradient><path class="st57" d="M683.4,238.7c9.4-46.5,31.8-90.3,64-125.2c4.8,24.8,1,51.1-10.5,73.6C725.4,209.5,706.3,228,683.4,238.7z" style="fill: url('#SVGID_57_');" transform="matrix(1, 0, 0, 1, 8.526512829121202e-14, 2.1316282072803006e-14)"/><linearGradient id="SVGID_58_" gradientUnits="userSpaceOnUse" x1="682.6852" y1="196.1063" x2="810.8967" y2="196.1063">
				<stop offset="0" style="stop-color:#99C44A"/>
				<stop offset="1" style="stop-color:#749944"/>
			</linearGradient><path class="st58" d="M749.7,206.1c-15.2,14.1-31,28.7-50.7,35.5c-5.2,1.8-12.2,2.5-15.2-2.1c-3.5-5.4,1.8-12.1,6.8-16.3&#10;&#9;&#9;&#9;&#9;c36.4-30.1,77-55.1,120.3-74C790.5,168.2,770.1,187.1,749.7,206.1z" style="fill: url('#SVGID_58_');" transform="matrix(1, 0, 0, 1, 8.526512829121202e-14, 2.1316282072803006e-14)"/><linearGradient id="SVGID_59_" gradientUnits="userSpaceOnUse" x1="585.5483" y1="317.9743" x2="684.7648" y2="317.9743">
				<stop offset="0" style="stop-color:#99C44A"/>
				<stop offset="1" style="stop-color:#749944"/>
			</linearGradient><path class="st59" d="M683.3,237c-51,39.5-86.5,98.4-97.8,161.9c32.8-11.9,63.4-33.8,82.2-63.1&#10;&#9;&#9;&#9;&#9;C686.6,306.4,686.1,271.8,683.3,237z" style="fill: url('#SVGID_59_');" transform="matrix(1, 0, 0, 1, 8.526512829121202e-14, 2.1316282072803006e-14)"/><linearGradient id="SVGID_60_" gradientUnits="userSpaceOnUse" x1="682.6852" y1="230.3069" x2="848.428" y2="230.3069">
				<stop offset="0" style="stop-color:#99C44A"/>
				<stop offset="1" style="stop-color:#749944"/>
			</linearGradient><path class="st60" d="M848.4,214.3c-48.8,30.3-109.6,40.9-165.7,28.8C733.8,218.4,791.9,208.3,848.4,214.3z" style="fill: url('#SVGID_60_');" transform="matrix(1, 0, 0, 1, 8.526512829121202e-14, 2.1316282072803006e-14)"/><linearGradient id="SVGID_61_" gradientUnits="userSpaceOnUse" x1="670.1333" y1="333.9633" x2="710.6014" y2="333.9633">
				<stop offset="0" style="stop-color:#99C44A"/>
				<stop offset="1" style="stop-color:#749944"/>
			</linearGradient><path class="st61" d="M691.4,431.6c28.5-61.4,25.1-136.6-8.7-195.3C659.6,298.5,671.9,368.2,691.4,431.6z" style="fill: url('#SVGID_61_');" transform="matrix(1, 0, 0, 1, 8.526512829121202e-14, 2.1316282072803006e-14)"/><linearGradient id="SVGID_62_" gradientUnits="userSpaceOnUse" x1="684.157" y1="318.4935" x2="780.0632" y2="318.4935">
				<stop offset="0" style="stop-color:#99C44A"/>
				<stop offset="1" style="stop-color:#749944"/>
			</linearGradient><path class="st62" d="M685.8,256.3c20.9,52.3,53.3,100,94.3,138.7c-1.7-59.3-33.5-117-82.7-150.1c-3-2-6.8-4-10-2.4&#10;&#9;&#9;&#9;&#9;C682.8,244.8,683.9,251.6,685.8,256.3z" style="fill: url('#SVGID_62_');" transform="matrix(1, 0, 0, 1, 8.526512829121202e-14, 2.1316282072803006e-14)"/><linearGradient id="SVGID_63_" gradientUnits="userSpaceOnUse" x1="688.2356" y1="297.081" x2="831.81" y2="297.081">
				<stop offset="0" style="stop-color:#99C44A"/>
				<stop offset="1" style="stop-color:#749944"/>
			</linearGradient><path class="st63" d="M688.2,238.6c34.8,52.1,85.5,93.5,143.6,117C807.5,296,751.5,250.4,688.2,238.6z" style="fill: url('#SVGID_63_');" transform="matrix(1, 0, 0, 1, 8.526512829121202e-14, 2.1316282072803006e-14)"/><linearGradient id="SVGID_64_" gradientUnits="userSpaceOnUse" x1="691.6791" y1="266.1855" x2="859.6947" y2="266.1855">
				<stop offset="0" style="stop-color:#99C44A"/>
				<stop offset="1" style="stop-color:#749944"/>
			</linearGradient><path class="st64" d="M691.7,239.9c46.7,37.7,108.2,56.7,168,51.8C809.1,261,750.8,243.1,691.7,239.9z" style="fill: url('#SVGID_64_');" transform="matrix(1, 0, 0, 1, 8.526512829121202e-14, 2.1316282072803006e-14)"/><linearGradient id="SVGID_65_" gradientUnits="userSpaceOnUse" x1="160.0325" y1="178.2691" x2="254.4868" y2="178.2691">
			<stop offset="0" style="stop-color:#99C44A"/>
			<stop offset="1" style="stop-color:#749944"/>
		</linearGradient><path class="st65" d="M248.7,237.9c-2.3,6.5-5.5,13.3-11.6,16.6c-9.8,5.5-22.1-0.1-31.1-6.9c-21.8-16.6-37.4-41.1-43.3-67.9&#10;&#9;&#9;&#9;c-5.9-26.8-2-55.6,10.8-79.8c28.7,7,54.1,26.5,68.2,52.4S258.4,210,248.7,237.9z" style="fill: url('#SVGID_65_');" transform="matrix(1, 0, 0, 1, 5.684341886080802e-14, 1.4210854715202004e-14)"/><linearGradient id="SVGID_66_" gradientUnits="userSpaceOnUse" x1="236.7803" y1="202.2229" x2="369.6228" y2="202.2229">
			<stop offset="0" style="stop-color:#99C44A"/>
			<stop offset="1" style="stop-color:#749944"/>
		</linearGradient><path class="st66" d="M236.8,251.2c1.5-31.5,17.7-62,43-80.8s59.2-25.6,89.8-17.9c-0.5,31.8-16.6,63-42.1,82&#10;&#9;&#9;&#9;C301.9,253.6,267.4,259.9,236.8,251.2z" style="fill: url('#SVGID_66_');" transform="matrix(1, 0, 0, 1, 5.684341886080802e-14, 1.4210854715202004e-14)"/><linearGradient id="SVGID_67_" gradientUnits="userSpaceOnUse" x1="114.189" y1="290.8794" x2="245.9631" y2="290.8794">
			<stop offset="0" style="stop-color:#99C44A"/>
			<stop offset="1" style="stop-color:#749944"/>
		</linearGradient><path class="st67" d="M244.1,263.1c5.5,19.4-1.9,41.1-15.9,55.6c-14,14.5-33.9,22.4-53.9,25c-20,2.6-40.3,0.4-60.2-3&#10;&#9;&#9;&#9;c0.1-46.1,34.2-90,78.9-101.4c12.8-3.3,27.5-3.8,38.1,4C237.7,248,242,255.3,244.1,263.1z" style="fill: url('#SVGID_67_');" transform="matrix(1, 0, 0, 1, 5.684341886080802e-14, 1.4210854715202004e-14)"/><linearGradient id="SVGID_68_" gradientUnits="userSpaceOnUse" x1="98.229" y1="206.5567" x2="243.7857" y2="206.5567">
			<stop offset="0" style="stop-color:#99C44A"/>
			<stop offset="1" style="stop-color:#749944"/>
		</linearGradient><path class="st68" d="M126.7,225.7c-11.3-16.4-16.9-36-22.4-55.2c-2-7.2-4.1-14.4-6.1-21.6c50.5-6.2,103.5,16.4,133.9,57.2&#10;&#9;&#9;&#9;c7.5,10.1,13.9,22.6,10.9,34.7c-2.1,8.5-8.7,15.4-16.5,19.3c-7.8,3.9-16.7,5.2-25.5,5.1C171.9,264.9,143.3,249.7,126.7,225.7z" style="fill: url('#SVGID_68_');" transform="matrix(1, 0, 0, 1, 5.684341886080802e-14, 1.4210854715202004e-14)"/><linearGradient id="SVGID_69_" gradientUnits="userSpaceOnUse" x1="173.5984" y1="343.6375" x2="270.1101" y2="343.6375">
			<stop offset="0" style="stop-color:#99C44A"/>
			<stop offset="1" style="stop-color:#749944"/>
		</linearGradient><path class="st69" d="M260.4,277.8c-4.2-7.7-10-15-17.9-18.7c-11.7-5.4-26-2.1-36.2,5.8s-16.8,19.5-21.6,31.5&#10;&#9;&#9;&#9;c-17.4,43.1-14.1,94,8.7,134.5c26.4-15.9,50.6-37,64.7-64.3S275.1,304.8,260.4,277.8z" style="fill: url('#SVGID_69_');" transform="matrix(1, 0, 0, 1, 5.684341886080802e-14, 1.4210854715202004e-14)"/><linearGradient id="SVGID_70_" gradientUnits="userSpaceOnUse" x1="233.2898" y1="300.0365" x2="401.7889" y2="300.0365">
			<stop offset="0" style="stop-color:#99C44A"/>
			<stop offset="1" style="stop-color:#749944"/>
		</linearGradient><path class="st70" d="M236.7,293c10.7,31,37.7,55,68.7,65.4s65.6,8,96.3-3.4c-10.9-32.8-24-66-48.5-90.5&#10;&#9;&#9;&#9;c-24.4-24.4-62.9-37.8-94.5-23.7c-11.3,5.1-21.6,14.1-24.6,26.1C232.1,275.5,233.8,284.6,236.7,293z" style="fill: url('#SVGID_70_');" transform="matrix(1, 0, 0, 1, 5.684341886080802e-14, 1.4210854715202004e-14)"/><linearGradient id="SVGID_71_" gradientUnits="userSpaceOnUse" x1="219.3932" y1="195.7911" x2="286.5837" y2="195.7911">
			<stop offset="0" style="stop-color:#99C44A"/>
			<stop offset="1" style="stop-color:#749944"/>
		</linearGradient><path class="st71" d="M223.6,245.6c-7.2-22.7-5-48.1,5.8-69.3c10.9-21.1,30.3-37.7,53-45c3.1,22.7,6.2,45.7,2.6,68.3&#10;&#9;&#9;&#9;c-3.6,22.6-14.9,45.1-34.6,56.7c-5.1,3-11.4,5.2-16.9,2.9C228.1,257,225.3,251.1,223.6,245.6z" style="fill: url('#SVGID_71_');" transform="matrix(1, 0, 0, 1, 5.684341886080802e-14, 1.4210854715202004e-14)"/><g transform="matrix(1, 0, 0, 1, 5.684341886080802e-14, 1.4210854715202004e-14)">
			<linearGradient id="SVGID_72_" gradientUnits="userSpaceOnUse" x1="668.7457" y1="617.803" x2="753.5685" y2="617.803">
				<stop offset="0" style="stop-color:#99C44A"/>
				<stop offset="1" style="stop-color:#749944"/>
			</linearGradient>
			<path class="st72" d="M745.5,646c-4.9,12.2-12.2,23.8-23.1,31c-10.9,7.3-25.8,9.4-37.2,3c-10.4-5.9-13.8-17.8-15.3-29.6&#10;&#9;&#9;&#9;&#9;s-1.8-23.8,0.6-35.5c3.4-16.9,7.4-34.6,18.4-47.8c11.1-13.3,31.5-20.4,46.1-11.3c10.8,6.7,15.6,20.1,17.4,32.7&#10;&#9;&#9;&#9;&#9;C755.2,607.9,752.8,627.9,745.5,646z" style="fill: url('#SVGID_72_');"/>
			<linearGradient id="SVGID_73_" gradientUnits="userSpaceOnUse" x1="692.6462" y1="699.9189" x2="697.4879" y2="699.9189">
				<stop offset="0" style="stop-color:#99C44A"/>
				<stop offset="1" style="stop-color:#749944"/>
			</linearGradient>
			<path class="st73" d="M692.6,715.4c0.6-10.4,2.3-20.8,4.8-31c-0.3,10.1-0.5,20.3-0.8,30.4C695.3,715,694,715.2,692.6,715.4z" style="fill: url('#SVGID_73_');"/>
			<g>
				<g>
					<path class="st1" d="M697.5,682.5c-1.3-13-5.6-25.8-8.8-38.5c0-0.1-0.2-0.1-0.2,0c2.2,12.8,3.5,26.2,7.5,38.6&#10;&#9;&#9;&#9;&#9;&#9;&#9;C696.4,683.4,697.6,683.3,697.5,682.5L697.5,682.5z" style="fill: rgb(255, 255, 255);"/>
				</g>
			</g>
			<g>
				<g>
					<path class="st1" d="M697.4,680.8c3.9-6.9,6.2-14.8,8.6-22.3c2.7-8.7,4.8-17.6,6.3-26.6c3-16.9,3.7-33.9,3-51.1&#10;&#9;&#9;&#9;&#9;&#9;&#9;c0-0.2-0.2-0.2-0.2,0c0.3,16.9-1.3,34-4.5,50.6c-1.6,8.4-3.7,16.6-6,24.8c-2.4,8.2-5.8,16-8.1,24.2&#10;&#9;&#9;&#9;&#9;&#9;&#9;C696.4,681,697.2,681.3,697.4,680.8L697.4,680.8z" style="fill: rgb(255, 255, 255);"/>
				</g>
			</g>
			<g>
				<g>
					<path class="st1" d="M698.1,682.1c4-1.9,6.8-7.5,9.1-11.1c3.1-5,5.9-10.4,7.9-15.9c0.1-0.2-0.2-0.3-0.3-0.1&#10;&#9;&#9;&#9;&#9;&#9;&#9;c-2.7,4.6-5.3,9.2-8.3,13.6c-2.7,4.1-7.6,8.5-8.7,13.3C697.7,682.1,697.9,682.2,698.1,682.1L698.1,682.1z" style="fill: rgb(255, 255, 255);"/>
				</g>
			</g>
		</g><linearGradient id="SVGID_74_" gradientUnits="userSpaceOnUse" x1="-162.9982" y1="2399.4219" x2="-69.1832" y2="2399.4219" gradientTransform="matrix(0.4491 -0.8935 0.8935 0.4491 -1490.4934 -528.5066)">
				<stop offset="0" style="stop-color:#99C44A"/>
				<stop offset="1" style="stop-color:#749944"/>
			</linearGradient><path class="st74" d="M646.1,632.9c9.6,10.9,17.4,23.9,19.2,38.3c1.8,14.4-3.5,30.2-15.5,38.3c-11,7.4-24.4,4.8-36.9,0.4&#10;&#9;&#9;&#9;&#9;c-12.5-4.4-24.4-10.1-34.8-18.2c-15.1-11.8-30.5-24.5-38.1-42c-7.6-17.5-4.6-41.2,11.8-51.2c12.1-7.4,27.6-5.4,41-0.9&#10;&#9;&#9;&#9;&#9;C613.2,604.4,631.8,616.7,646.1,632.9z" style="fill: url('#SVGID_74_');" transform="matrix(1, 0, 0, 1, 8.526512829121202e-14, 2.1316282072803006e-14)"/><linearGradient id="SVGID_75_" gradientUnits="userSpaceOnUse" x1="-136.564" y1="2490.2432" x2="-131.209" y2="2490.2432" gradientTransform="matrix(0.4491 -0.8935 0.8935 0.4491 -1490.4934 -528.5066)">
				<stop offset="0" style="stop-color:#99C44A"/>
				<stop offset="1" style="stop-color:#749944"/>
			</linearGradient><path class="st75" d="M688.4,719.7c-10-5.8-19.5-12.6-28.2-20.2c9.9,5.3,19.8,10.6,29.6,15.9&#10;&#9;&#9;&#9;&#9;C689.4,716.8,688.9,718.2,688.4,719.7z" style="fill: url('#SVGID_75_');" transform="matrix(1, 0, 0, 1, 8.526512829121202e-14, 2.1316282072803006e-14)"/><g transform="matrix(1, 0, 0, 1, 1.1368683772161603e-13, 2.842170943040401e-14)">
					<path class="st1" d="M658.2,698.5c-13.5-5.1-28.2-7.3-42.2-10.5c-0.1,0-0.1,0.1,0,0.2c13.8,4.1,27.6,9.4,41.9,11.7&#10;&#9;&#9;&#9;&#9;&#9;&#9;C658.7,700,659.1,698.8,658.2,698.5L658.2,698.5z" style="fill: rgb(255, 255, 255);"/>
				</g><g transform="matrix(1, 0, 0, 1, 1.1368683772161603e-13, 2.842170943040401e-14)">
					<path class="st1" d="M656.6,697.8c-5-7.5-11.9-13.8-18.3-20c-6.6-6.3-13.5-12.1-20.8-17.6c-15.7-12-32.8-21.6-50.8-29.8&#10;&#9;&#9;&#9;&#9;&#9;&#9;c-0.1-0.1-0.3,0.1-0.1,0.2c16.7,7.9,32.6,17.9,47.3,29.1c7.5,5.7,14.8,11.9,21.7,18.4c7,6.5,13.1,14,20.2,20.3&#10;&#9;&#9;&#9;&#9;&#9;&#9;C656.2,698.8,656.9,698.3,656.6,697.8L656.6,697.8z" style="fill: rgb(255, 255, 255);"/>
				</g><g transform="matrix(1, 0, 0, 1, 1.1368683772161603e-13, 2.842170943040401e-14)">
					<path class="st1" d="M658.2,697.8c0.1-5-4.1-10.5-6.6-14.6c-3.4-5.5-7.2-10.9-11.6-15.6c-0.1-0.1-0.4,0-0.3,0.2&#10;&#9;&#9;&#9;&#9;&#9;&#9;c3.2,4.9,6.5,9.7,9.4,14.8c2.7,4.7,4.7,11.8,8.8,15.3C658,698.1,658.2,698,658.2,697.8L658.2,697.8z" style="fill: rgb(255, 255, 255);"/>
				</g><linearGradient id="SVGID_76_" gradientUnits="userSpaceOnUse" x1="-2201.572" y1="2363.3381" x2="-2124.7673" y2="2363.3381" gradientTransform="matrix(-0.6258 -0.78 0.78 -0.6258 -2587.0779 560.8052)">
				<stop offset="0" style="stop-color:#99C44A"/>
				<stop offset="1" style="stop-color:#749944"/>
			</linearGradient><path class="st76" d="M610.4,728.9c11.3-3.4,23.7-4.8,35-1.3s21.3,12.9,23.2,24.6c1.8,10.7-4.7,19.8-12.2,27.6&#10;&#9;&#9;&#9;&#9;c-7.5,7.8-15.8,14.8-25.4,19.7c-13.9,7.2-28.6,14.4-44.2,14.1c-15.6-0.3-32.3-10.6-34.1-26.2c-1.4-11.5,5.4-22.4,13.3-30.8&#10;&#9;&#9;&#9;&#9;C578,743.7,593.5,734,610.4,728.9z" style="fill: url('#SVGID_76_');" transform="matrix(1, 0, 0, 1, 8.526512829121202e-14, 2.1316282072803006e-14)"/><linearGradient id="SVGID_77_" gradientUnits="userSpaceOnUse" x1="-2179.9309" y1="2437.6919" x2="-2175.5469" y2="2437.6919" gradientTransform="matrix(-0.6258 -0.78 0.78 -0.6258 -2587.0779 560.8052)">
				<stop offset="0" style="stop-color:#99C44A"/>
				<stop offset="1" style="stop-color:#749944"/>
			</linearGradient><path class="st77" d="M689.4,726.9c-7.7,5.5-16,10.2-24.6,14.1c7.3-5.6,14.6-11.1,21.9-16.7C687.6,725.3,688.5,726.1,689.4,726.9&#10;&#9;&#9;&#9;&#9;z" style="fill: url('#SVGID_77_');" transform="matrix(1, 0, 0, 1, 8.526512829121202e-14, 2.1316282072803006e-14)"/><g transform="matrix(1, 0, 0, 1, 1.1368683772161603e-13, 2.842170943040401e-14)">
					<path class="st1" d="M663.3,742.1c-8.5,8.2-15,18.6-22.1,28c-0.1,0.1,0.1,0.2,0.1,0.1c7.8-8.8,16.7-17.2,23.1-27.2&#10;&#9;&#9;&#9;&#9;&#9;&#9;C664.9,742.3,663.9,741.6,663.3,742.1L663.3,742.1z" style="fill: rgb(255, 255, 255);"/>
				</g><g transform="matrix(1, 0, 0, 1, 1.1368683772161603e-13, 2.842170943040401e-14)">
					<path class="st1" d="M662.2,743.1c-14.8,2.2-30.1,10-43,17.2c-13.6,7.5-26,16.6-37.7,26.8c-0.1,0.1,0.1,0.3,0.2,0.2&#10;&#9;&#9;&#9;&#9;&#9;&#9;c11.8-9.8,24.9-18.3,38.4-25.5c7-3.7,14.2-7,21.5-10c6.9-2.8,14.2-4.7,21-7.8C663.2,743.8,662.7,743,662.2,743.1L662.2,743.1z" style="fill: rgb(255, 255, 255);"/>
				</g><g transform="matrix(1, 0, 0, 1, 1.1368683772161603e-13, 2.842170943040401e-14)">
					<path class="st1" d="M662.9,742c-4.1-1.8-9.2-0.7-13.5-0.1c-5.1,0.7-10.3,1.8-15.2,3.4c-0.2,0.1-0.1,0.4,0.1,0.3&#10;&#9;&#9;&#9;&#9;&#9;&#9;c5.7-0.8,11.3-1.6,17-2c3.8-0.2,8.1,0.3,11.6-1.3C663,742.3,663,742,662.9,742L662.9,742z" style="fill: rgb(255, 255, 255);"/>
				</g><linearGradient id="SVGID_78_" gradientUnits="userSpaceOnUse" x1="-3512.2151" y1="613.0304" x2="-3435.6553" y2="613.0304" gradientTransform="matrix(-0.7943 0.1651 -0.2034 -0.9791 -1933.1101 1992.4221)">
				<stop offset="0" style="stop-color:#99C44A"/>
				<stop offset="1" style="stop-color:#749944"/>
			</linearGradient><path class="st78" d="M671.8,799c1.3-11.5,4.4-22.8,10.9-30.9c6.5-8,16.8-12.2,26.1-8.2c8.5,3.6,13.1,13.6,16.4,23.9&#10;&#9;&#9;&#9;&#9;s5.6,20.8,6.1,31.5c0.7,15.5,1.1,31.7-4.4,45c-5.5,13.4-18.8,22.7-31,16.9c-9-4.3-14.9-15.4-18.5-26.3&#10;&#9;&#9;&#9;&#9;C671.9,834.1,669.9,816.1,671.8,799z" style="fill: url('#SVGID_78_');" transform="matrix(1, 0, 0, 1, 8.526512829121202e-14, 2.1316282072803006e-14)"/><linearGradient id="SVGID_79_" gradientUnits="userSpaceOnUse" x1="-3490.6431" y1="687.1471" x2="-3486.2729" y2="687.1471" gradientTransform="matrix(-0.7943 0.1651 -0.2034 -0.9791 -1933.1101 1992.4221)">
				<stop offset="0" style="stop-color:#99C44A"/>
				<stop offset="1" style="stop-color:#749944"/>
			</linearGradient><path class="st79" d="M697,729.8c1.5,9.3,2.2,18.8,2.2,28.1c-1.7-9-3.3-18-5-27C695.1,730.5,696.1,730.2,697,729.8z" style="fill: url('#SVGID_79_');" transform="matrix(1, 0, 0, 1, 8.526512829121202e-14, 2.1316282072803006e-14)"/><g transform="matrix(1, 0, 0, 1, 1.1368683772161603e-13, 2.842170943040401e-14)">
					<path class="st1" d="M699.4,759.7c3,11.3,8.8,21.9,13.5,32.6c0,0.1,0.2,0,0.1-0.1c-3.9-11-6.8-22.8-12.4-33.1&#10;&#9;&#9;&#9;&#9;&#9;&#9;C700.3,758.4,699.2,758.9,699.4,759.7L699.4,759.7z" style="fill: rgb(255, 255, 255);"/>
				</g><g transform="matrix(1, 0, 0, 1, 1.1368683772161603e-13, 2.842170943040401e-14)">
					<path class="st1" d="M699.8,761.1c-3.6,14-2.8,30.2-1.9,44.6c1,15.8,3.7,31.1,7.5,46.5c0,0.1,0.3,0.1,0.2-0.1&#10;&#9;&#9;&#9;&#9;&#9;&#9;c-3.4-15.2-5.2-30.8-5.9-46.4c-0.3-7.4-0.4-14.9-0.1-22.4c0.2-7.3,1.3-14.7,1.2-22.1C700.8,760.7,699.9,760.5,699.8,761.1&#10;&#9;&#9;&#9;&#9;&#9;&#9;L699.8,761.1z" style="fill: rgb(255, 255, 255);"/>
				</g><g transform="matrix(1, 0, 0, 1, 1.1368683772161603e-13, 2.842170943040401e-14)">
					<path class="st1" d="M699.2,760c-3.1,2.8-3.8,7.9-4.8,11.8c-1.2,4.8-2.1,9.7-2.4,14.6c0,0.2,0.3,0.2,0.3,0&#10;&#9;&#9;&#9;&#9;&#9;&#9;c1.3-4.7,2.4-9.5,3.9-14.1c1.2-3.8,3.7-8.2,3.3-12.2C699.6,760,699.3,759.9,699.2,760L699.2,760z" style="fill: rgb(255, 255, 255);"/>
				</g><linearGradient id="SVGID_80_" gradientUnits="userSpaceOnUse" x1="-2102.7317" y1="-924.9538" x2="-2015.2128" y2="-924.9538" gradientTransform="matrix(-0.328 0.9447 -0.9447 -0.328 -758.9711 2415.3523)">
				<stop offset="0" style="stop-color:#99C44A"/>
				<stop offset="1" style="stop-color:#749944"/>
			</linearGradient><path class="st80" d="M750.9,797.6c-10.2-8.9-19-19.9-22.4-33c-3.4-13.1-0.5-28.3,9.7-37.3c9.2-8.2,22-7.4,34-4.9&#10;&#9;&#9;&#9;&#9;c12.1,2.5,23.8,6.3,34.4,12.6c15.4,9,31.2,18.9,40.4,34.2c9.2,15.3,9.3,37.6-4.6,48.8c-10.2,8.3-24.9,8.4-37.8,5.9&#10;&#9;&#9;&#9;&#9;C784.8,819.9,766.1,810.8,750.9,797.6z" style="fill: url('#SVGID_80_');" transform="matrix(1, 0, 0, 1, 8.526512829121202e-14, 2.1316282072803006e-14)"/><linearGradient id="SVGID_81_" gradientUnits="userSpaceOnUse" x1="-2078.0715" y1="-840.2278" x2="-2073.0759" y2="-840.2278" gradientTransform="matrix(-0.328 0.9447 -0.9447 -0.328 -758.9711 2415.3523)">
				<stop offset="0" style="stop-color:#99C44A"/>
				<stop offset="1" style="stop-color:#749944"/>
			</linearGradient><path class="st81" d="M701.2,722.5c10,4.2,19.5,9.3,28.6,15.2c-9.8-3.7-19.6-7.4-29.4-11.1C700.7,725.3,700.9,723.9,701.2,722.5z&#10;&#9;&#9;&#9;&#9;" style="fill: url('#SVGID_81_');" transform="matrix(1, 0, 0, 1, 8.526512829121202e-14, 2.1316282072803006e-14)"/><g transform="matrix(1, 0, 0, 1, 1.1368683772161603e-13, 2.842170943040401e-14)">
					<path class="st1" d="M731.6,738.4c13.1,3.1,27,3.3,40.4,4.5c0.1,0,0.1-0.1,0-0.2c-13.3-2.1-26.8-5.5-40.2-5.7&#10;&#9;&#9;&#9;&#9;&#9;&#9;C731,737,730.9,738.2,731.6,738.4L731.6,738.4z" style="fill: rgb(255, 255, 255);"/>
				</g><g transform="matrix(1, 0, 0, 1, 1.1368683772161603e-13, 2.842170943040401e-14)">
					<path class="st1" d="M733.3,738.9c5.6,6.4,12.9,11.5,19.7,16.5c7.3,5.3,15,10.2,22.9,14.6c15.5,8.6,31.8,15.1,48.7,20.2&#10;&#9;&#9;&#9;&#9;&#9;&#9;c0.1,0,0.2-0.2,0.1-0.2c-16.6-5.4-32.7-12.8-47.9-21.5c-7.4-4.2-14.5-8.9-21.4-13.8c-7.4-5.2-14-11.5-21.5-16.5&#10;&#9;&#9;&#9;&#9;&#9;&#9;C733.5,737.8,733,738.5,733.3,738.9L733.3,738.9z" style="fill: rgb(255, 255, 255);"/>
				</g><g transform="matrix(1, 0, 0, 1, 1.1368683772161603e-13, 2.842170943040401e-14)">
					<path class="st1" d="M731.8,739c0.5,4.5,4.6,8.7,7.4,12.1c3.9,4.9,8.4,9.6,13.2,13.6c0.2,0.1,0.4-0.1,0.2-0.2&#10;&#9;&#9;&#9;&#9;&#9;&#9;c-4.1-4.8-8.2-9.5-11.9-14.6c-2.6-3.5-4.8-8.7-8.6-11.1C732,738.7,731.8,738.8,731.8,739L731.8,739z" style="fill: rgb(255, 255, 255);"/>
				</g><linearGradient id="SVGID_82_" gradientUnits="userSpaceOnUse" x1="-448.5025" y1="-929.1528" x2="-371.9426" y2="-929.1528" gradientTransform="matrix(0.4253 0.7535 -0.9192 0.5187 108.6792 1473.949)">
				<stop offset="0" style="stop-color:#99C44A"/>
				<stop offset="1" style="stop-color:#749944"/>
			</linearGradient><path class="st82" d="M778,719.4c-12,2.4-24.4,2.8-34.6-1.2c-10.2-4-17.7-13.1-16.8-23.9c0.9-9.8,9.4-17.7,18.7-24.3&#10;&#9;&#9;&#9;&#9;c9.2-6.6,19.1-12.4,29.7-16.3c15.4-5.6,31.5-11.2,46.8-9.9c15.3,1.3,29,11.8,27.1,26.1c-1.4,10.5-10.7,20-20.5,27.2&#10;&#9;&#9;&#9;&#9;C813.4,708.2,795.9,715.9,778,719.4z" style="fill: url('#SVGID_82_');" transform="matrix(1, 0, 0, 1, 8.526512829121202e-14, 2.1316282072803006e-14)"/><linearGradient id="SVGID_83_" gradientUnits="userSpaceOnUse" x1="-426.9302" y1="-855.0361" x2="-422.5602" y2="-855.0361" gradientTransform="matrix(0.4253 0.7535 -0.9192 0.5187 108.6792 1473.949)">
				<stop offset="0" style="stop-color:#99C44A"/>
				<stop offset="1" style="stop-color:#749944"/>
			</linearGradient><path class="st83" d="M700.2,716c8.9-4.5,18.2-8.2,27.6-11.2c-8.5,4.6-17,9.1-25.5,13.7C701.5,717.6,700.9,716.8,700.2,716z" style="fill: url('#SVGID_83_');" transform="matrix(1, 0, 0, 1, 8.526512829121202e-14, 2.1316282072803006e-14)"/><g transform="matrix(1, 0, 0, 1, 1.1368683772161603e-13, 2.842170943040401e-14)">
					<path class="st1" d="M729.4,704c10.4-6.7,19.2-15.9,28.5-24.1c0.1-0.1,0-0.2-0.1-0.1c-9.8,7.4-20.6,14.2-29.2,23.1&#10;&#9;&#9;&#9;&#9;&#9;&#9;C728,703.5,728.7,704.5,729.4,704L729.4,704z" style="fill: rgb(255, 255, 255);"/>
				</g><g transform="matrix(1, 0, 0, 1, 1.1368683772161603e-13, 2.842170943040401e-14)">
					<path class="st1" d="M730.8,703.1c15.3-0.8,31.3-6.9,45.5-12.3c15.5-6,30.1-13.7,44.3-22.3c0.1-0.1,0-0.3-0.1-0.2&#10;&#9;&#9;&#9;&#9;&#9;&#9;c-14.2,8.3-29.3,15.1-44.7,20.8c-7.4,2.7-14.9,5.1-22.5,7.3c-7.5,2.1-15.3,3.4-22.7,5.8C730.1,702.3,730.2,703.1,730.8,703.1&#10;&#9;&#9;&#9;&#9;&#9;&#9;L730.8,703.1z" style="fill: rgb(255, 255, 255);"/>
				</g><g transform="matrix(1, 0, 0, 1, 1.1368683772161603e-13, 2.842170943040401e-14)">
					<path class="st1" d="M729.9,704.1c3.9,2.1,9.2,1.3,13.4,1.1c5.2-0.3,10.5-1,15.5-2.2c0.2,0,0.2-0.4,0-0.3&#10;&#9;&#9;&#9;&#9;&#9;&#9;c-5.2,0.2-10.3,0.6-15.5,0.6c-4.3,0-9.4-1.1-13.4,0.4C729.8,703.7,729.7,704,729.9,704.1L729.9,704.1z" style="fill: rgb(255, 255, 255);"/>
				</g>
</svg>