<?xml version="1.0" encoding="UTF-8"?>
<svg xmlns="http://www.w3.org/2000/svg" xmlns:xlink="http://www.w3.org/1999/xlink" viewBox="0 0 717.69 498.2">
  <defs>
    <style>
      .cls-1 {
        fill: url(#_Áåçûìÿííûé_ãðàäèåíò_67-15);
      }

      .cls-2 {
        fill: url(#_Áåçûìÿííûé_ãðàäèåíò_67-10);
      }

      .cls-3 {
        fill: url(#_Áåçûìÿííûé_ãðàäèåíò_67-9);
      }

      .cls-4 {
        fill: url(#_Áåçûìÿííûé_ãðàäèåíò_42);
      }

      .cls-5 {
        fill: url(#_Áåçûìÿííûé_ãðàäèåíò_67-18);
      }

      .cls-6 {
        fill: url(#_Áåçûìÿííûé_ãðàäèåíò_67-4);
      }

      .cls-7 {
        isolation: isolate;
      }

      .cls-8 {
        fill: url(#_Áåçûìÿííûé_ãðàäèåíò_67-17);
      }

      .cls-9 {
        fill: url(#_Áåçûìÿííûé_ãðàäèåíò_271);
      }

      .cls-9, .cls-10 {
        mix-blend-mode: multiply;
        opacity: .4;
      }

      .cls-11 {
        fill: url(#_Áåçûìÿííûé_ãðàäèåíò_67-5);
      }

      .cls-10 {
        fill: url(#_Áåçûìÿííûé_ãðàäèåíò_271-2);
      }

      .cls-12 {
        fill: url(#_Áåçûìÿííûé_ãðàäèåíò_67-3);
      }

      .cls-13 {
        fill: #35273f;
      }

      .cls-14 {
        fill: url(#_Áåçûìÿííûé_ãðàäèåíò_67-11);
      }

      .cls-15 {
        fill: url(#_Áåçûìÿííûé_ãðàäèåíò_67-8);
      }

      .cls-16 {
        fill: url(#_Áåçûìÿííûé_ãðàäèåíò_67-7);
      }

      .cls-17 {
        fill: url(#_Áåçûìÿííûé_ãðàäèåíò_67);
      }

      .cls-18 {
        fill: url(#_Áåçûìÿííûé_ãðàäèåíò_67-12);
      }

      .cls-19 {
        fill: url(#_Áåçûìÿííûé_ãðàäèåíò_67-13);
      }

      .cls-20 {
        fill: url(#_Áåçûìÿííûé_ãðàäèåíò_67-2);
      }

      .cls-21 {
        fill: #394c0f;
      }

      .cls-22 {
        fill: url(#_Áåçûìÿííûé_ãðàäèåíò_67-16);
      }

      .cls-23 {
        fill: url(#_Áåçûìÿííûé_ãðàäèåíò_67-14);
      }

      .cls-24 {
        fill: url(#_Áåçûìÿííûé_ãðàäèåíò_67-6);
      }

      .cls-25 {
        fill: #3f2f4c;
      }
    </style>
    <radialGradient id="_Áåçûìÿííûé_ãðàäèåíò_42" data-name="Áåçûìÿííûé ãðàäèåíò 42" cx="672.02" cy="319.35" fx="672.02" fy="319.35" r="34.92" gradientTransform="translate(181.72 -3242.34) rotate(64.84) scale(4.9 4.93) skewX(-.32)" gradientUnits="userSpaceOnUse">
      <stop offset="0" stop-color="#ffb500"/>
      <stop offset="1" stop-color="#ffb72d"/>
    </radialGradient>
    <linearGradient id="_Áåçûìÿííûé_ãðàäèåíò_271" data-name="Áåçûìÿííûé ãðàäèåíò 271" x1="526.49" y1="644.14" x2="511.41" y2="551.05" gradientTransform="translate(645.84 -385.54) rotate(65)" gradientUnits="userSpaceOnUse">
      <stop offset="0" stop-color="#fff"/>
      <stop offset=".98" stop-color="#aa0038"/>
    </linearGradient>
    <linearGradient id="_Áåçûìÿííûé_ãðàäèåíò_271-2" data-name="Áåçûìÿííûé ãðàäèåíò 271" x1="466.88" y1="1060.08" x2="514.47" y2="705.57" gradientTransform="translate(941.59 -158.14) rotate(91.74)" xlink:href="#_Áåçûìÿííûé_ãðàäèåíò_271"/>
    <linearGradient id="_Áåçûìÿííûé_ãðàäèåíò_67" data-name="Áåçûìÿííûé ãðàäèåíò 67" x1="536.4" y1="476.25" x2="695.18" y2="476.25" gradientTransform="translate(645.84 -385.54) rotate(65)" gradientUnits="userSpaceOnUse">
      <stop offset="0" stop-color="#798633"/>
      <stop offset="1" stop-color="#506f15"/>
    </linearGradient>
    <linearGradient id="_Áåçûìÿííûé_ãðàäèåíò_67-2" data-name="Áåçûìÿííûé ãðàäèåíò 67" x1="547.8" y1="522.87" x2="659.27" y2="522.87" xlink:href="#_Áåçûìÿííûé_ãðàäèåíò_67"/>
    <linearGradient id="_Áåçûìÿííûé_ãðàäèåíò_67-3" data-name="Áåçûìÿííûé ãðàäèåíò 67" x1="-1514.58" y1="-843.18" x2="-1403.48" y2="-843.18" gradientTransform="translate(1812.12 -1651.48) rotate(-72.8) scale(1.53 1)" xlink:href="#_Áåçûìÿííûé_ãðàäèåíò_67"/>
    <linearGradient id="_Áåçûìÿííûé_ãðàäèåíò_67-4" data-name="Áåçûìÿííûé ãðàäèåíò 67" x1="373.78" y1="227.54" x2="420.44" y2="227.54" xlink:href="#_Áåçûìÿííûé_ãðàäèåíò_67"/>
    <linearGradient id="_Áåçûìÿííûé_ãðàäèåíò_67-5" data-name="Áåçûìÿííûé ãðàäèåíò 67" x1="435.54" y1="302.57" x2="467.96" y2="302.57" xlink:href="#_Áåçûìÿííûé_ãðàäèåíò_67"/>
    <linearGradient id="_Áåçûìÿííûé_ãðàäèåíò_67-6" data-name="Áåçûìÿííûé ãðàäèåíò 67" x1="305.1" y1="325.04" x2="420.41" y2="325.04" xlink:href="#_Áåçûìÿííûé_ãðàäèåíò_67"/>
    <linearGradient id="_Áåçûìÿííûé_ãðàäèåíò_67-7" data-name="Áåçûìÿííûé ãðàäèåíò 67" x1="468.71" y1="336.8" x2="549.2" y2="336.8" xlink:href="#_Áåçûìÿííûé_ãðàäèåíò_67"/>
    <linearGradient id="_Áåçûìÿííûé_ãðàäèåíò_67-8" data-name="Áåçûìÿííûé ãðàäèåíò 67" x1="501.33" y1="464.33" x2="545.82" y2="464.33" xlink:href="#_Áåçûìÿííûé_ãðàäèåíò_67"/>
    <linearGradient id="_Áåçûìÿííûé_ãðàäèåíò_67-9" data-name="Áåçûìÿííûé ãðàäèåíò 67" x1="272.03" y1="410.06" x2="448.72" y2="410.06" xlink:href="#_Áåçûìÿííûé_ãðàäèåíò_67"/>
    <linearGradient id="_Áåçûìÿííûé_ãðàäèåíò_67-10" data-name="Áåçûìÿííûé ãðàäèåíò 67" x1="342.49" y1="460.35" x2="482.13" y2="460.35" xlink:href="#_Áåçûìÿííûé_ãðàäèåíò_67"/>
    <linearGradient id="_Áåçûìÿííûé_ãðàäèåíò_67-11" data-name="Áåçûìÿííûé ãðàäèåíò 67" x1="392.35" y1="-2409.61" x2="440.04" y2="-2409.61" gradientTransform="translate(1697.14 -857.61) rotate(65.31) scale(1 -.81)" xlink:href="#_Áåçûìÿííûé_ãðàäèåíò_67"/>
    <linearGradient id="_Áåçûìÿííûé_ãðàäèåíò_67-12" data-name="Áåçûìÿííûé ãðàäèåíò 67" x1="281.06" y1="-2958.18" x2="312.69" y2="-2958.18" gradientTransform="translate(1602.74 -894.3) rotate(57.6) scale(1 -.63)" xlink:href="#_Áåçûìÿííûé_ãðàäèåíò_67"/>
    <linearGradient id="_Áåçûìÿííûé_ãðàäèåíò_67-13" data-name="Áåçûìÿííûé ãðàäèåíò 67" x1="-43.04" y1="-3173.5" x2="-11.4" y2="-3173.5" gradientTransform="translate(1617.84 -1058.19) rotate(43.4) scale(1 -.63)" xlink:href="#_Áåçûìÿííûé_ãðàäèåíò_67"/>
    <linearGradient id="_Áåçûìÿííûé_ãðàäèåíò_67-14" data-name="Áåçûìÿííûé ãðàäèåíò 67" x1="150.1" y1="-2936.45" x2="265.92" y2="-2936.45" gradientTransform="translate(1602.74 -894.3) rotate(57.6) scale(1 -.63)" xlink:href="#_Áåçûìÿííûé_ãðàäèåíò_67"/>
    <linearGradient id="_Áåçûìÿííûé_ãðàäèåíò_67-15" data-name="Áåçûìÿííûé ãðàäèåíò 67" x1="658.9" y1="-2437.99" x2="738.55" y2="-2437.99" gradientTransform="translate(1540.66 -724.34) rotate(73.39) scale(1 -.63)" xlink:href="#_Áåçûìÿííûé_ãðàäèåíò_67"/>
    <linearGradient id="_Áåçûìÿííûé_ãðàäèåíò_67-16" data-name="Áåçûìÿííûé ãðàäèåíò 67" x1="347.61" y1="-2795.96" x2="391.67" y2="-2795.96" gradientTransform="translate(1602.74 -894.3) rotate(57.6) scale(1 -.63)" xlink:href="#_Áåçûìÿííûé_ãðàäèåíò_67"/>
    <linearGradient id="_Áåçûìÿííûé_ãðàäèåíò_67-17" data-name="Áåçûìÿííûé ãðàäèåíò 67" x1="117.45" y1="-2851.47" x2="294.64" y2="-2851.47" gradientTransform="translate(1602.74 -894.3) rotate(57.6) scale(1 -.63)" xlink:href="#_Áåçûìÿííûé_ãðàäèåíò_67"/>
    <linearGradient id="_Áåçûìÿííûé_ãðàäèåíò_67-18" data-name="Áåçûìÿííûé ãðàäèåíò 67" x1="188.24" y1="-2800.84" x2="328.28" y2="-2800.84" gradientTransform="translate(1602.74 -894.3) rotate(57.6) scale(1 -.63)" xlink:href="#_Áåçûìÿííûé_ãðàäèåíò_67"/>
  </defs>
  <g class="cls-7">
    <g id="Layer_1" data-name="Layer 1">
      <g>
        <g>
          <path class="cls-4" d="m384.93,485.8c-10.45,4.84-21.27,8.19-32.23,10.23-65.14,11.82-135.22-25.27-167.23-93.41-27.49-58.51-19.28-123.64,15.88-167.41,12.71-15.79,28.87-28.82,48.13-37.73,72.7-33.66,162.02,3.59,199.42,83.2,37.4,79.61,8.74,171.47-63.97,205.13Z"/>
          <path class="cls-9" d="m384.93,485.8c-10.45,4.84-21.27,8.19-32.23,10.23,24.09-12.48,44.74-36.16,42.59-81.42-.17-3.44-.46-7.03-.92-10.76-7.22-60.49-39.35-124.32-84.94-156.81-31.02-22.03-68.2-29.65-108.08-11.83,12.71-15.79,28.87-28.82,48.13-37.73,72.7-33.66,162.02,3.59,199.42,83.2,37.4,79.61,8.74,171.47-63.97,205.13Z"/>
          <ellipse class="cls-13" cx="324.89" cy="344.93" rx="91.16" ry="100.05" transform="translate(-120.46 183.09) rotate(-26.74)"/>
          <ellipse class="cls-10" cx="315.38" cy="350.28" rx="91.23" ry="100.13" transform="translate(-123.88 179.38) rotate(-26.74)"/>
        </g>
        <path class="cls-17" d="m371.19,334.37c132.49-31.47,206.51,78.89,206.51,78.89l-206.51-78.89Z"/>
        <path class="cls-20" d="m370.84,347.11c53.32-1.1,112.35,70.61,112.35,70.61l-112.35-70.61Z"/>
        <path class="cls-12" d="m357.18,317.54c-36.9-45.48-18.03-183.05-18.03-183.05l18.03,183.05Z"/>
        <g>
          <path class="cls-6" d="m717.69,0c-105.87,20.71-223.04,148.84-217.84,146.43,5.2-2.41,217.84-146.43,217.84-146.43Z"/>
          <path class="cls-11" d="m461.6,183c99.2-58.5,202.64-60.8,202.64-60.8l-202.64,60.8Z"/>
          <path class="cls-24" d="m490.74,150.64c40.07-56.28,27.61-140.11,27.61-140.11l-27.61,140.11Z"/>
          <path class="cls-16" d="m437.83,230.16c124-73.12,236.27-22.92,236.27-22.92l-236.27,22.92Z"/>
          <path class="cls-15" d="m393.3,285.36c83.33-18.14,105.95-.32,105.95-.32l-105.95.32Z"/>
          <path class="cls-3" d="m430.04,210.19c47.71-100.69-7.58-191.42-7.58-191.42l7.58,191.42Z"/>
          <path class="cls-2" d="m405.27,258.59c31.06-78.83-4.81-151.82-4.81-151.82l4.81,151.82Z"/>
          <path class="cls-21" d="m518.23,131.63c-96.22,78.34-174.54,194.77-174.54,194.77l6.72.82s26.02-35.62,72.86-92.68c46.84-57.05,94.97-102.91,94.97-102.91Z"/>
        </g>
        <g>
          <path class="cls-14" d="m0,360.91c66.09-58.39,212.22-51.39,208.01-49.47-4.21,1.92-208.01,49.47-208.01,49.47Z"/>
          <path class="cls-18" d="m239.7,305.88c-67.1,28.77-95.08,95.33-95.08,95.33l95.08-95.33Z"/>
          <path class="cls-19" d="m262.49,315.69c-57.94,44.23-68.61,115.57-68.61,115.57l68.61-115.57Z"/>
          <path class="cls-23" d="m209.14,304.88c-50.45-8.71-107.23-69.12-107.23-69.12l107.23,69.12Z"/>
          <path class="cls-1" d="m328.15,326.75c-90.56,11.96-112.3,115.04-112.3,115.04l112.3-115.04Z"/>
          <path class="cls-22" d="m330.3,324.74c-34.19,43.47-27.2,69.44-27.2,69.44l27.2-69.44Z"/>
          <path class="cls-8" d="m267.18,302.07c-84.16-31.35-134.97-124.21-134.97-124.21l134.97,124.21Z"/>
          <path class="cls-5" d="m308.11,315.94c-64.29-28.68-107.36-97.73-107.36-97.73l107.36,97.73Z"/>
          <path class="cls-21" d="m197.83,310.87c49.03-8.55,132.09,18.24,132.09,18.24l-7.76-9.77-119.3-16.3-5.03,7.83Z"/>
        </g>
        <path class="cls-25" d="m352.95,359.58c-26.74,7.14-49.83,29.88-35.71,45.35,14.13,15.47,44.8,5.46,51.85-9.86,7.06-15.32-16.15-35.49-16.15-35.49Z"/>
        <path class="cls-25" d="m354.28,334.33c-10.06-.06-23.65,19.33-21.31,19.82s12.57,2.04,17.8-1.43c5.23-3.47,3.5-18.39,3.5-18.39Z"/>
        <path class="cls-25" d="m361.21,354.71c-2.72,5.45,11.35,23.04,16.09,14.03,4.74-9.01-10.54-29.18-13.32-21.61l-2.78,7.57Z"/>
      </g>
    </g>
  </g>
</svg>