<?xml version="1.0" encoding="UTF-8"?>
<svg xmlns="http://www.w3.org/2000/svg" xmlns:xlink="http://www.w3.org/1999/xlink" viewBox="0 0 435 365">
  <defs>
    <style>
      .cls-1 {
        fill: url(#linear-gradient-2);
      }

      .cls-2 {
        fill: url(#linear-gradient-13);
      }

      .cls-2, .cls-3, .cls-4, .cls-5, .cls-6, .cls-7, .cls-8, .cls-9, .cls-10, .cls-11, .cls-12 {
        mix-blend-mode: multiply;
      }

      .cls-3 {
        fill: url(#linear-gradient-11);
      }

      .cls-4 {
        fill: url(#radial-gradient-4);
        opacity: .6;
      }

      .cls-13, .cls-8, .cls-9 {
        opacity: .5;
      }

      .cls-14 {
        fill: url(#linear-gradient-15);
      }

      .cls-5 {
        fill: url(#linear-gradient-16);
      }

      .cls-15 {
        fill: #a2cd3b;
      }

      .cls-16 {
        fill: url(#linear-gradient-6);
      }

      .cls-17 {
        fill: url(#radial-gradient-5);
      }

      .cls-18 {
        isolation: isolate;
      }

      .cls-19 {
        fill: #9bcb3c;
      }

      .cls-20 {
        fill: #b5d336;
      }

      .cls-6 {
        fill: #30582a;
        opacity: .3;
      }

      .cls-21 {
        fill: url(#radial-gradient);
      }

      .cls-22 {
        fill: #8cc540;
      }

      .cls-7 {
        fill: url(#linear-gradient-8);
      }

      .cls-23 {
        fill: url(#linear-gradient-5);
      }

      .cls-24 {
        fill: #9ccb3d;
      }

      .cls-25 {
        fill: url(#radial-gradient-3);
      }

      .cls-26 {
        fill: #6bbe48;
      }

      .cls-8 {
        fill: url(#radial-gradient-2);
      }

      .cls-27 {
        fill: url(#linear-gradient-9);
      }

      .cls-28 {
        fill: url(#linear-gradient-3);
      }

      .cls-9 {
        fill: url(#linear-gradient-10);
      }

      .cls-10 {
        fill: url(#linear-gradient-7);
      }

      .cls-29 {
        fill: url(#linear-gradient);
      }

      .cls-11 {
        fill: #5c9440;
        opacity: .2;
      }

      .cls-30 {
        fill: #7bc144;
      }

      .cls-12 {
        fill: url(#linear-gradient-14);
      }

      .cls-31 {
        fill: url(#linear-gradient-4);
      }

      .cls-32 {
        fill: #78c043;
      }

      .cls-33 {
        fill: url(#linear-gradient-12);
      }
    </style>
    <radialGradient id="radial-gradient" cx="207.07" cy="283.35" fx="207.07" fy="283.35" r="17.29" gradientTransform="translate(-2415.93 -2776.97) scale(12.72 10.44)" gradientUnits="userSpaceOnUse">
      <stop offset=".72" stop-color="#9bc33c"/>
      <stop offset="1" stop-color="#078c45"/>
    </radialGradient>
    <linearGradient id="linear-gradient" x1="385.31" y1="337.67" x2="297.92" y2="251.66" gradientUnits="userSpaceOnUse">
      <stop offset=".04" stop-color="#73b443"/>
      <stop offset="1" stop-color="#00a350"/>
    </linearGradient>
    <linearGradient id="linear-gradient-2" x1="396.64" y1="42.92" x2="311.34" y2="111.97" xlink:href="#linear-gradient"/>
    <linearGradient id="linear-gradient-3" x1="74.57" y1="58.9" x2="118.76" y2="102.42" xlink:href="#linear-gradient"/>
    <linearGradient id="linear-gradient-4" x1="40.21" y1="295.18" x2="102.15" y2="240.8" xlink:href="#linear-gradient"/>
    <radialGradient id="radial-gradient-2" cx="207.27" cy="283.73" fx="207.27" fy="283.73" r="19.56" gradientTransform="translate(-2415.93 -2776.97) scale(12.72 10.44)" gradientUnits="userSpaceOnUse">
      <stop offset=".21" stop-color="#005a38"/>
      <stop offset=".38" stop-color="#006039"/>
      <stop offset=".62" stop-color="#00713f"/>
      <stop offset=".9" stop-color="#018e48"/>
      <stop offset="1" stop-color="#029b4c"/>
    </radialGradient>
    <radialGradient id="radial-gradient-3" cx="207.11" cy="283.76" fx="207.11" fy="283.76" r="18.99" gradientTransform="translate(-2415.93 -2776.97) scale(12.72 10.44)" gradientUnits="userSpaceOnUse">
      <stop offset=".54" stop-color="#007947"/>
      <stop offset="1" stop-color="#57b847"/>
    </radialGradient>
    <radialGradient id="radial-gradient-4" cx="171.94" cy="283.27" fx="171.94" fy="283.27" r="18.96" gradientTransform="translate(-2133.88 -2776.97) scale(13.68 10.44)" gradientUnits="userSpaceOnUse">
      <stop offset="0" stop-color="#00a350"/>
      <stop offset=".29" stop-color="#009e4f"/>
      <stop offset=".6" stop-color="#00904c"/>
      <stop offset=".94" stop-color="#007a47"/>
      <stop offset=".96" stop-color="#007947"/>
    </radialGradient>
    <linearGradient id="linear-gradient-5" x1="75.48" y1="181.76" x2="362.35" y2="181.76" gradientUnits="userSpaceOnUse">
      <stop offset=".12" stop-color="#4db74a"/>
      <stop offset=".2" stop-color="#44b349"/>
      <stop offset=".71" stop-color="#139b47"/>
      <stop offset=".97" stop-color="#009247"/>
      <stop offset=".97" stop-color="#009447"/>
      <stop offset="1" stop-color="#04a54f"/>
    </linearGradient>
    <linearGradient id="linear-gradient-6" x1="156.69" y1="-57.38" x2="212.77" y2="135.38" gradientUnits="userSpaceOnUse">
      <stop offset=".34" stop-color="#97c940"/>
      <stop offset=".42" stop-color="#8fc740"/>
      <stop offset=".55" stop-color="#79c143"/>
      <stop offset=".71" stop-color="#56b946"/>
      <stop offset=".89" stop-color="#25ad4b"/>
      <stop offset="1" stop-color="#04a54f"/>
    </linearGradient>
    <linearGradient id="linear-gradient-7" x1="167.13" y1="29.43" x2="211.63" y2="182.41" gradientUnits="userSpaceOnUse">
      <stop offset=".34" stop-color="#73b443"/>
      <stop offset="1" stop-color="#029d4d"/>
    </linearGradient>
    <linearGradient id="linear-gradient-8" x1="-71.96" y1="254.49" x2="105.73" y2="242.44" gradientTransform="translate(86.23 -33) rotate(-4.72) scale(1.03 1)" gradientUnits="userSpaceOnUse">
      <stop offset=".14" stop-color="#73b443"/>
      <stop offset=".35" stop-color="#56ac45"/>
      <stop offset="1" stop-color="#01984d"/>
    </linearGradient>
    <linearGradient id="linear-gradient-9" x1="25.74" y1="159.89" x2="210.13" y2="220.23" xlink:href="#linear-gradient-5"/>
    <linearGradient id="linear-gradient-10" x1="130.12" y1="218.07" x2="223.66" y2="211.72" gradientTransform="matrix(1, 0, 0, 1, 0, 0)" xlink:href="#linear-gradient-8"/>
    <linearGradient id="linear-gradient-11" x1="338.14" y1="336.71" x2="234.37" y2="202.66" gradientUnits="userSpaceOnUse">
      <stop offset=".14" stop-color="#73b443"/>
      <stop offset=".32" stop-color="#59ac45"/>
      <stop offset=".78" stop-color="#1e9a4a"/>
      <stop offset="1" stop-color="#07944d"/>
    </linearGradient>
    <linearGradient id="linear-gradient-12" x1="352.18" y1="353.36" x2="255.02" y2="227.84" gradientUnits="userSpaceOnUse">
      <stop offset="0" stop-color="#97c940"/>
      <stop offset=".13" stop-color="#8fc740"/>
      <stop offset=".32" stop-color="#79c143"/>
      <stop offset=".56" stop-color="#56b946"/>
      <stop offset=".83" stop-color="#25ad4b"/>
      <stop offset="1" stop-color="#04a54f"/>
    </linearGradient>
    <linearGradient id="linear-gradient-13" x1="270.35" y1="275.06" x2="205.78" y2="191.64" xlink:href="#linear-gradient-11"/>
    <linearGradient id="linear-gradient-14" x1="392.52" y1="116.64" x2="224.98" y2="198.42" gradientUnits="userSpaceOnUse">
      <stop offset="0" stop-color="#73b443"/>
      <stop offset=".16" stop-color="#68b143"/>
      <stop offset=".43" stop-color="#4dac46"/>
      <stop offset=".78" stop-color="#21a34a"/>
      <stop offset="1" stop-color="#019d4e"/>
    </linearGradient>
    <linearGradient id="linear-gradient-15" x1="367.33" y1="121.68" x2="212.79" y2="197.12" xlink:href="#linear-gradient-5"/>
    <linearGradient id="linear-gradient-16" x1="289.64" y1="172.55" x2="211.3" y2="210.79" xlink:href="#linear-gradient-14"/>
    <radialGradient id="radial-gradient-5" cx="207.25" cy="286.49" fx="207.25" fy="286.49" r="4.25" gradientTransform="translate(-2415.93 -2776.97) scale(12.72 10.44)" gradientUnits="userSpaceOnUse">
      <stop offset="0" stop-color="#73b443"/>
      <stop offset="1" stop-color="#029b4c"/>
    </radialGradient>
  </defs>
  <g class="cls-18">
    <g id="Layer_1" data-name="Layer 1">
      <g>
        <g>
          <path class="cls-21" d="m434.95,196.81c-.43-3.09-4.26-5.59-8.25-6.38,3.33-2.92,2.61-7.82-1.85-10.01,6.69-4.04,8.76-11.55,2.17-15.76,3.69-1.63,6.22-4.46,7.07-8.13.61-2.71-.87-4.46-3.11-5.38,2.33-1.46,3.71-3.46,2.52-6.3-.92-2.13-3.66-2.73-6.56-2.67,1.63-2.09,2.28-4.61.68-6.84-1.73-2.46-4.92-3.5-7.99-3.15,1.9-3.38,4.04-6.53.83-10.19-1.65-1.92-4.67-2.29-7.61-2.13,3.65-3.11,7.18-7.01,4.06-10.88-2.5-3.13-6.58-3.75-10.67-3.17,1.78-1.83,2.97-3.88,2.09-5.81-1.34-3.04-4.45-3.65-7.71-3.32,6.24-6.55,2.92-20.39-5.87-19.52,2.14-3.17,3.25-7.05-.32-9.46-1.85-1.21-3.99-.58-5.91.67,1.01-2.83,1.27-5.75-1.53-7.61-3.09-2.06-6.71-.65-9.75,1.38.76-3.34.25-6.82-3.2-8.95-4.62-2.84-9.05.67-11.67,4.21-2.66-5.86-10.53-13.03-14.34-8.67-1.51-1.63-4.28-2-7.15-1.67,3.68-3.92,6.06-8.03.66-12.47-3.48-2.88-8.63-.08-12.33,2.65-.21-4.02-4.62-5.47-9.22-3.15.42-3.13-.33-5.92-3.54-8.38-2.66-2.05-5.76-.38-7.86,1.63-1.43-3.67-5.1-6.01-10.43-5.46-3.23.33-5.25,2.25-6.48,4.61-.63-2.38-1.95-4.44-5.25-5.9-3.94-1.71-7.84.4-10.66,3.15-.12-3.81-1.32-7.32-4.52-10.69-2.24-2.35-5.64-4.64-8.94-3.96-.1-4.52-2.53-9.54-8.93-9.05-5.86.46-8.27,4.99-8.71,9.49-2.06-3.61-5.23-6.5-10.79-5.73-4.14.56-7.23,3.51-9.29,6.77-1.19-3.04-3.91-5.38-8.66-5.57-5.99-.24-9.9,3.49-11.57,7.75-3.99-4.98-11.7-6.33-14.25-.56-7.66-6.23-30.49,1.02-15.03,10.3-1.78.44-3.53,1.21-4.72,1.67-1.73.75-2.94,1.82-3.74,3.09-1.19-1.13-2.87-1.84-4.94-1.73-2.82.14-4.62,1.06-5.86,2.5-2.11-3.44-6.71-5.48-11.81-3.52-4.57,1.71-6.42,6.46-5.91,10.67-3.84-1.55-8.71-1.59-11.55,1.29-3.86,3.84-3.91,9.32-.84,13.26-2.66.56-4.74,2.38-5.68,4.25-1.58-2.67-4.45-7.57-6.05-8.34-3.43-1.67-6.71-1.82-10.07-.02-4.78,2.48-5.79,7.82-4.2,12.23-3.53-1.58-7.23-2.23-11.31-.06-3.33,1.77-3.5,5.09-2.36,8.07-7.04-2.77-13.78-1.83-15.7,4.71-2.77-2.25-7.05-3.42-10.36-1.29-3.6,2.34-2.46,5.48,0,7.99-3.48.2-6.59,1.71-7.79,4.92-1.24,3.42,1.24,6.15,4.57,8.11-3.64.33-7.07,1.5-9.04,4.13-1.7,2.27-.89,4.5.85,6.4-5.01.34-9.48,4.65-5.37,8.45-1.17.56-1.98,1.61-2.38,3.17-.46,1.69.48,3.15,1.87,4.42-6.9.08-11.02,4.52-7.66,10.24-.94.15-1.78.57-2.29,1.48-.97,1.84-.68,3.34.31,4.63-4.5,1.13-5.23,6.71-2.62,10.9-3.79-.52-7.74-.31-10.36,1.86-2.77,2.38-1.32,5.11,1.12,7.11-2.72-.11-5.38.31-5.79,2.36-.31,1.42.41,2.67,1.5,3.77-2.26.19-4.2,1.15-4.86,3.23-1.02,3.13.41,5.55,2.74,7.55-3.58,0-7.05,1-9.17,3.61-3.02,3.73.38,6.77,4.16,8.9-5.35,2.29-6.64,9.46-1.29,11.99-1.17,1.23-1.48,2.9-.92,4.9.75,2.59,3.38,3.81,6.35,4.33-4.94,3.71-6.3,10.03-1.73,14.35-5.63,1.58-6.19,5.85-2.17,9.22-5.76,1.81-12.3,6.73-9.24,11.76,2.02,3.33,6.26,4.42,10.56,4.29-3.99,5.71,1.58,14.35,8.83,15.1-4.77,5.44,3.69,12.66,12.67,12.99-2.63,3.19-3.75,7.36-1.07,10.82,3.56,4.59,8.74,5.79,14.3,5.21-2.87,2.96-4.6,6.61-3.24,10.26,1.95,5.25,8.15,4.08,13.16,1.92-2.76,9.34,11.3,18.85,22.6,14.14.56,2.63,1.9,4.29,5.71,5.71,3.39,1.32,7.38.8,10.71-.52-.1,3.17,1.07,5.75,4.11,8.36,2.31,1.92,5.54,2.96,8.63,2.79-1.39,3.13-.96,6.38,1.43,9.61,3.27,4.44,9.49,5.21,15.1,4.29-2.38,3.77-2.87,8.59,1.97,10.94,4.42,2.15,11.05-.83,15.09-4.07.71,2.59,3.02,4.56,6.72,5.4,4.64,1.04,8.48-2.59,11.33-5.82.73,2.73,2.77,5.15,6.47,5.9,5.49,1.07,9.72-.62,13.23-3.46-.2,3,.36,6.17,3.02,7.75,5.28,3.09,9.4.17,12.49-3.32,2.92,7.09,13.25,11.28,17.16,3.48,3.27,2.59,7.2,4.36,11.85,2.92,2.62-.81,3.89-3.46,4.32-6.13,5.15,3.34,15.25,2.13,19.5-2.25,2.44,2.46,7.64,3.09,11.44,1.77,4.05-1.37,4.83-5.35,4.1-9.15.91.29,1.85.39,2.84.21,3.07-.55,4.82-2,5.81-3.92,1.8,2.63,4.57,4.84,7.99,4.65,2.67-.15,4.63-1.31,6.12-2.98.51,3.04,2.06,5.75,5.61,7.3,6.06,2.61,11.45-2.71,14.67-7.17,1.3,2.67,3.43,5.52,6.58,4.42,3.35-1.17,4.55-3.46,4.74-5.98.25.27.51.52.76.69,1.24.83,2.67,1.67,4.27,2.02,2.68.61,5.63.5,7.59-1.35,2.36-2.25,3.45-5.25,3.53-8.3,4.93,2.54,11.58,2.36,13.79-2.13,2.09,1.77,5.13,2.42,8.48.58,4.79-2.67,6.3-6.88,5.5-11.01,5.33,1.12,11.4-2.32,12.13-7.55,2.11.9,4.62.96,6.88-.46,5.49-3.5,6.2-8.55,6.15-13.7,4.69,1.27,9.56.02,13.3-3.15,4.01-3.44,2.43-7.3-.78-10.07,6.79-1.65,9.74-9.59,5.89-14.55,6.88-1.77,9.39-11.86,3.12-16.41,4.98-2.65,5.18-9.57,3.02-14.24.94.35,1.94.65,3.13.56,2.38-.18,3.99-2.25,4.89-3.79,1.5-2.52.94-5.71-.5-8.51,2.94.69,5.96.57,7.48-1.63,2.21-3.25.67-7.02-2.17-9.8,6.25-2.29,9.29-12.26,4.77-16.49,3.89-1.63,6.88-4.73,6.4-8.4Z"/>
          <path class="cls-29" d="m399.23,262.73c4.27-2.42,4.88-7.31,3.55-11.88-.78-2.79-2.43-5.25-4.87-7.25-3.04-2.54-7.68-2.84-11.98-3.46.02-.08.1-.13.1-.21-.05-.27-.3-.58-.58-.69-.71-.21-1.37.06-1.95.46-.97-.23-1.91-.48-2.8-.81-1.24-.5-1.9,1.12-.76,1.6.51.23,1.06.4,1.59.57-.12.08-.25.17-.35.25-3.3-.29-6.45-1.17-9.53.75-.56.33-1.02.67-1.42,1.05-1.32-1.92-3.35-3.38-6.2-3.34-6.07.05-9.09,4.34-12.06,8.18-4.16-6.76-15.78-2.25-18.63,4.35-1.83-.48-3.94-.69-5.84-.71-9.24-.1-14.47,6.36-15.11,13.12-10.36-8.61-24.01,6.09-21.67,17.39-6.02-2.59-12.39-1.54-16.89,3.9-3.83,4.69-4.48,11.67-.22,16.12-8.46,1.38-14.01,8.47-11.96,15.76,1.07,3.79,6.73,8.53,11.25,8-.61,4.8,1.44,9.99,5.74,13.22,4.01,2.96,7.9,2.75,10.58.21,2.97,4.96,11.18,3.54,15.71-.79,3.16,4.73,11.15-.75,15.31-5.3,4.42,5.65,14.71,3.34,19.47-1.9,4.69,4.19,16.47-2.88,16.98-9.61,8.23.25,18.53-4.59,15.14-10.82,7.46-.94,15.15-8.57,12.11-13.3,5.48-.77,10.25-3.33,12.56-7.82,1.78-3.5-.12-7.64-3.58-9.88,6.17-3.73,11.23-13.57,6.3-17.14Z"/>
          <path class="cls-6" d="m383.16,247.55c4.27-2.42,4.91-7.32,3.58-11.88-.81-2.79-2.43-5.25-4.87-7.28-3.04-2.52-7.66-2.81-11.98-3.44.02-.09.07-.13.07-.21-.02-.27-.3-.58-.58-.67-.68-.25-1.34.04-1.93.42-.99-.21-1.9-.46-2.79-.79-1.24-.5-1.92,1.1-.76,1.62.51.21,1.04.38,1.58.55-.11.08-.24.16-.36.25-3.3-.32-6.45-1.17-9.53.73-.53.35-.98.71-1.39,1.06-1.34-1.94-3.35-3.38-6.22-3.36-6.04.06-9.07,4.36-12.06,8.19-4.14-6.78-15.79-2.25-18.63,4.34-1.8-.46-3.91-.67-5.81-.71-9.24-.08-14.47,6.38-15.13,13.12-10.33-8.57-24.02,6.1-21.66,17.41-6.05-2.61-12.42-1.54-16.9,3.9-3.81,4.69-4.5,11.67-.24,16.12-8.42,1.35-13.98,8.46-11.92,15.76,1.08,3.79,6.69,8.53,11.24,8.01-.61,4.79,1.43,9.99,5.74,13.18,4.01,3,7.87,2.79,10.56.25,2.97,4.94,11.18,3.54,15.72-.82,3.14,4.73,11.14-.75,15.3-5.27,4.45,5.63,14.71,3.33,19.47-1.92,4.69,4.21,16.5-2.88,16.98-9.59,8.26.25,18.54-4.59,15.14-10.84,7.46-.92,15.18-8.57,12.13-13.28,5.48-.78,10.23-3.34,12.54-7.82,1.8-3.5-.14-7.65-3.59-9.88,6.2-3.73,11.23-13.6,6.3-17.14Z"/>
          <path class="cls-1" d="m384.93,92.06c4.67-4.9-.1-9.84-7.81-11.11,5.5-5.35,2.66-11.42-5.71-11.13,2.14-2.88,3.4-6.11.37-8.99-2.58-2.46-8.68-1.29-12.67.13-1.52-7.72-8.88-8.63-16.32-4.48-3.55-11.36-20.16-6.15-29.62-.23-7.54,1.67-11.23,6.09-12.18,12.32-.58,3.65,1.01,6.9,4.48,8.03-5.4,5.63,2.92,10.13,10.64,12.65-1.4,3.71-2.92,8.32.78,11.32,5.33,4.34,12.59,3.79,19.2,2,3.42,8.09,18.99,16.64,27.56,10.21,5.9,3.44,15.54-.09,20.67-3.17,3.05-1.83,5.46-5.44,3.89-7.27,5.66-3.92,3.45-9.51-3.28-10.28Z"/>
          <path class="cls-6" d="m370.83,97.65c4.67-4.9-.08-9.84-7.83-11.13,5.51-5.3,2.67-11.4-5.71-11.09,2.14-2.9,3.43-6.11.39-9.01-2.58-2.46-8.66-1.3-12.67.14-1.53-7.73-8.88-8.65-16.32-4.48-3.55-11.38-20.13-6.17-29.63-.22-7.51,1.67-11.19,6.06-12.18,12.3-.56,3.67,1.02,6.9,4.5,8.07-5.38,5.58,2.92,10.11,10.63,12.63-1.39,3.69-2.92,8.3.79,11.3,5.33,4.34,12.57,3.79,19.19,2,3.43,8.09,18.96,16.64,27.6,10.22,5.84,3.46,15.51-.04,20.64-3.15,3.07-1.86,5.45-5.48,3.91-7.3,5.65-3.9,3.45-9.49-3.3-10.28Z"/>
          <path class="cls-28" d="m137.65,58.58c-9.7-3.21-18.84-9.05-29.52-5.09-6.12,2.25-6.49,6.42-3.74,9.86-10.38-.9-22.03,1.27-20.6,10.13-8.1-2.77-18.54,5.56-14.42,12.36-7.51.17-11.91,7.92-6.35,12.09-5.23,2.13-5.79,7.97-.24,11.63,5.33,3.5,14.29,3.88,21.59,2.67-1.99,4.88,4.84,9.84,12.46,8.16,7.51-1.65,15.9-7.53,13.15-13.93,11.14.06,16.94-7.32,9.77-14.37,9.87-1.81,16.78-10.21,12.03-17.76,2.53-.21,4.55-1.23,5.54-3.71.63-1.57.35-3.4.1-5.01-.1-.62-2.14-5.25-2.18-5.13.15-.32.15-.59.07-.84.63.15,1.24.3,1.88.4,1.07.17,1.4-1.17.46-1.48Z"/>
          <path class="cls-6" d="m150.78,67.38c-9.67-3.21-18.84-9.07-29.5-5.09-6.12,2.25-6.53,6.42-3.74,9.84-10.41-.88-22.06,1.29-20.62,10.13-8.12-2.75-18.55,5.58-14.44,12.38-7.49.17-11.87,7.9-6.32,12.07-5.23,2.15-5.81,7.99-.22,11.63,5.33,3.5,14.29,3.9,21.55,2.71-1.98,4.85,4.86,9.82,12.47,8.13,7.51-1.65,15.95-7.53,13.18-13.95,11.12.04,16.93-7.3,9.75-14.34,9.9-1.84,16.8-10.22,12.03-17.79,2.53-.18,4.55-1.21,5.55-3.69.63-1.59.34-3.42.07-5-.1-.65-2.1-5.26-2.17-5.13.17-.31.15-.59.1-.86.61.15,1.24.3,1.88.4,1.04.17,1.38-1.17.43-1.46Z"/>
          <path class="cls-31" d="m107.93,276.66c4.31-3.21,4.64-9.46,3.27-14.07-2.21-7.28-11.34-9.63-19.52-9.72.89-4.52-.42-8.2-5.53-11.24-5.39-3.23-12.54-.81-18.21,1.36.61-8.49-11.22-10.34-20.59-8.36-.07-3.63-6.13-4.84-10.02-3.11-8.17.89-11.02,9.74-12.62,15.32-1.55,5.55,1.48,8.55,6.76,9.76-2.33,2.04-3.4,5.13-2.04,7.88,2.06,4.17,6.3,5.06,10.82,4.67-3.94,6.06,1.9,12.96,9.97,12.92-.98,2.25-.4,4.9,1.73,7.49,4.04,4.94,8.87,3.52,12.93.77-.53,3.75,0,7.8,3.07,10.42,3.13,2.67,6.4,2.05,9.22.34-.32,2.84.41,5.63,3.25,7.92,3.43,2.79,7.97,1.84,11.19-.37,1.63,2.67,5.91,4.11,9.65,1.67,3.84-2.5,5.54-8.59,4.82-13.39,3.48.17,7.09-3.17,8.79-6.55,2.97-5.88-.82-11.5-6.93-13.72Z"/>
          <path class="cls-6" d="m125.45,269.47c4.28-3.21,4.64-9.45,3.25-14.07-2.19-7.28-11.35-9.63-19.5-9.72.88-4.5-.46-8.17-5.54-11.21-5.38-3.25-12.54-.83-18.19,1.34.61-8.47-11.25-10.34-20.59-8.38-.1-3.61-6.12-4.81-10.04-3.09-8.17.88-11.02,9.76-12.58,15.3-1.6,5.54,1.44,8.55,6.72,9.76-2.33,2.07-3.4,5.17-2.02,7.93,2.05,4.15,6.27,5.04,10.8,4.67-3.92,6.05,1.91,12.97,9.96,12.91-.97,2.27-.39,4.9,1.75,7.49,4.04,4.94,8.86,3.54,12.89.77-.53,3.77.02,7.78,3.1,10.4,3.12,2.69,6.4,2.09,9.22.35-.34,2.86.4,5.61,3.24,7.95,3.43,2.79,7.95,1.82,11.2-.42,1.62,2.67,5.91,4.13,9.64,1.67,3.84-2.48,5.54-8.57,4.83-13.39,3.48.17,7.08-3.17,8.78-6.5,2.97-5.9-.81-11.55-6.93-13.74Z"/>
          <path class="cls-8" d="m421.67,179.27c5.15-2.9,9.7-7.03,9.26-12.41-.36-4.17-2.33-7.75-5.89-9.3,6.37-4.67,1.14-13.3-7.77-16.08,4.01-2.02,7.12-5.11,4.1-9.11-3.23-4.3-9.07-6.68-15.09-7.47,2.5-4.59-.63-13.93-8.93-13.01,1.98-6.82-4.72-12.17-12.67-10.92,1.07-3.09,1.02-6.3-1.83-8.9-2.16-1.98-5.01-1.73-7.39-.6-.31-3.59-1.78-7.72-6.25-8.22-5.3-.61-8.9,1.63-10.02,5.21-4.5-3.04-10.16-2.05-14.15.96.84-1.5,1.24-3.13,1.04-4.57,3.33-.23,6.42-1.98,6.91-5.11.66-4.42-3.69-6.29-8.22-6.8,3.6-2.71,6.18-6,4.11-10.21-1.55-3.15-6.07-3.63-10.26-3.34,3.63-5.42-3.6-11.48-11.88-11.38,2.31-2.63,4.22-5.75,2.23-8.49-2.43-3.48-6.49-3.56-10.61-2.9.88-3.25.3-6.21-4.2-7.95-5.33-2.06-10.2.21-14.06,3.15-.36-2.46-1.55-4.42-4.84-5.92-3.25-1.46-7.14.1-9.91,2.06-2.51-4.96-8.71-4.94-13.7-1.56-1.85-3.71-8.05-5.42-12.74-4.17.05-2.63-1.38-5.48-3.96-6.35-3.91-1.27-8.61-.96-11.5,1.22-1.33-3.05-3.33-6.42-7.27-6.32-5.15.12-9.72,3.25-13.28,6.45-1.27-2.54-3.43-4.9-6.78-5.38-3.5-.51-6.96,1.71-8.88,4.24-3.28-2.52-8.56-2.09-11.23.88-3.09-3.48-8.32-6.98-12.82-3.33-3.17,2.55-5.23,6.89-4.74,10.75-3.84-.44-7.66,1.52-9.31,4.5-3.35-1.96-8.15-.02-10.79,3.19-6.68-5.3-13.18-.17-14.2,6.48-3.83-2.98-8.88-4.77-13.55-1.63-2.99,2.03-2.92,6.86-1.7,10.53-3.84.33-4.93,5.96-2.89,9.99-6.49.48-7.95,7.44-5.2,10.65-3.04,2.5-1.12,7.63,1.32,11.38-3.4.13-6.32,1.63-7.36,4.92-5.6-2.46-10.68.25-11.85,4.75-4.62-2.46-11.52.25-14.59,4.71-4.66-3.23-14.42-.54-16.41,4.59-6.64-3.09-14.32,4.67-15.05,11.09-6.01-1.5-14.01,6.8-10.43,11.93-2.57,2.21-2.89,8.34-2.04,12.61-4.55-1.17-8,3.15-7.76,7.86-3.86.75-8.1,4.08-8.63,7.45-1.02.14-2.06.43-3.04.89-5.69,2.48-4.35,6.38-1.12,9.42-6.02,1.71-10.49,9.11-8,13.01-8.28,1.96-8.92,10.51-1.91,13.81-6.42,3.65-3.45,13.26,3.43,18.05-5.53,2.21-7.44,9.67-3.55,12.26-4.04,3.36-4.06,9.38-.37,11.01-4.76,5.84,2.46,14.37,10.41,13.22-.77,2.84.27,5.5,4.19,7.09,3.53,1.42,8.22,1.04,12.59.04-2.29,5.25,3.7,11.3,11.9,10.59-1.62,5.71,7.04,11.05,13.18,9.09,1.12,8.53,19.35,9.9,27.88,8.32.05-.03.1-.03.12-.05.2.71.43,1.4.81,1.98-5.69,1.96-6.3,8.51-1.8,12.57-4.04,1.46-6.59,5.44-5.99,9.57.91,5.92,5.69,8.55,11.58,9.26-1.88,2-2.19,4.69-.68,7.72,2.02,4.11,7.71,5.29,12.92,5.34-5.74,6.94,2.97,15.28,13.05,12.76-2.16,9.49,11.4,15.62,20.11,8.94.91,2.98,3.34,5.42,7.46,6.49,3.22.83,6.28.96,9.66.48,1.35-.21,4.25-1.86,6.53-2.94.1,1.19.81,2.34,2.07,2.96,3.03,1.48,7.32,1.38,11.35.58.36.71,1.02,1.44,2.06,2.17,2.36,1.71,5.43,3.09,8.66,3.15,1.64.04,3.43-.02,4.89-.77.02-.02.05-.04.07-.08.92,1.5,2.41,2.92,3.96,3.92,5.66,3.59,10.46,1.56,13.1-2.32,4.52,4.75,16.19,2.79,20.72-2.69,5.84,6.96,22.93,2.38,23.58-4.75,5.89,1.12,12.23-3.8,14.11-9.34,3.99,2.88,9.31,3.75,14.49,1.46,2.82-1.25,4.09-3.19,4.15-5.25,3.73,1.38,7.89.96,11.58-1.98,2.63-2.11,3.29-4.9,1.97-7.16,5.66-.79,10.38-3.84,12.47-8.53,1.83-4.15-.72-7.19-4.67-8.69,3.68-2.05,6.57-5.05,6.18-8.97-.22-2.05-.76-3.88-1.97-5.55-.36-.58-.76-1.04-1.19-1.42-.02,0-.02-.04-.05-.04-1.78-1.73-5.92-3.5-6.98-5.56-.67-1.28-2.89-.55-2.31.77.58,1.38,2.68,2.67,3.85,3.69.16.11.26.23.39.36-.48.12-.97.31-1.43.54-.42-2.04-1.85-3.73-4.87-4.5-2.26-.54-4.35.04-6.06,1.21-.26-2.34-1.5-4.27-4.66-5-3.22-.75-6.21,1.8-8.4,4.86-1.09-2.4-3.45-4.15-7.64-4.46-4.09-.31-7.63,1.15-10.23,3.4-.56-3.17-2.26-6.13-5.74-7.48-7.9-3.07-14.35,1.9-19.5,6.52-1.73-3.88-4.55-7.13-10.07-7.76-5.49-.66-11.03,2.3-15.34,5.26-.53-4.17-2.38-8.05-7.69-9.7-5.85-1.82-12.49.89-17.52,3.82-.48-3.96-1.75-8.49-6.96-9.38-5.84-.98-11.16,1.42-15.03,4.88-.88-3.98-3.3-7.67-8.25-9.09-5.76-1.58-11.2,2.25-15.26,6.09-1.09-9.72-14.13-15.18-22.34-7.24-.55-2.71-1.37-5.73-2.83-8.19,1.47-2.21.86-4.34-1.35-5.59,6.07-3.32,7.36-8.17,2.5-13.18,5.38-1.52,10.41-2.75,12.43-7.75,1.75-4.38-1.29-8.42-5.3-11.11,11.65-7.74,5.76-16.7-4.72-23.73,3.78-4.19,7.61-8.74,9.17-13.84,1.75-5.86.08-9.82-2.6-14.97,11.79-3.98,17.16-18.2,7.34-24.79,8.22-2.92,6.37-14.6-.03-20.02,6.06-3.23,10.26-7.38,10.89-13.63.4-3.75-1.02-8.99-4.67-11.8,2.43-1.42,4.21-3.34,4.77-5.42,2.69,2.71,6.73,4.71,10.58,4.34.34.96.94,1.9,1.89,2.67,3.04,2.46,8.42,2.67,11.82.66,3.5,2.36,10.41,4.27,12.37,4.63,4.97.86,11.36-.21,14.69-3.52,6.01,2.23,16.39.77,21.01-3.36,4.83,5.67,20.17,6.02,22.63-.38,5.33,1.75,14.08,1.05,17.29-2.38,3.43,2.13,9.24,2.46,13.18,2.5,2,.02,5.1-.46,7.59-1.46,1.52,1.12,3.55,2.08,5.18,2.69,4.36,1.63,11.27,2.4,15.66.13,2.24,1.44,5.4,2.65,6.76,3.11,3.96,1.23,10.28,1.37,13.57-.88-1.29,2.34-1.7,5.04-.71,7.78-.56.33-.94.9-.61,1.65-.56-1.3-3.2.92-4.09,1.38-2.46,1.33-5.1,2.42-7.75,3.59-4.62,2-8.47,4.56-10.15,8.76-1.35,3.46-.39,7.3,2,10.34-.07.02-.15.02-.22.05-4.84.83-7.08,4.92-8.12,8.44-2.7,9.24,6.54,16.82,15.54,21.39-5.84,1.63-12.08,4.9-10.01,10.49,2.29,6.19,8.97,11.55,16.15,14.91-11.17,3.38-2.38,21.25,8.26,26.58-11.43,8.01-4.4,22.27,8.12,27.31-4.98,9.59,3.28,20.89,16.02,18.78.17,1.94.93,4.11,1.34,5.25,1.37,3.96,4.98,7.2,9.55,8.74,8.49,2.92,15.54-2.71,16.83-9.05,3.24,2.15,7.64,2.13,12.16-.02,6.01-2.86,8.17-8.36,6.85-13.49,5.45,1.79,10.92.52,14.37-4.54,2.38-3.5,2.68-7.84.68-11.22,11.33.59,15.51-12.05,9.34-19.89,4.37.02,8.2-1.92,9.12-6.46,1.14-5.88-1.93-11.34-7.54-14.6,5.15-1.4,9.19-3.82,10.12-8.88.82-4.48-3.53-7.59-8.27-8.99Z"/>
          <path class="cls-25" d="m413.72,179.84c5.01-2.79,9.43-6.82,8.99-12.03-.34-4.04-2.26-7.52-5.71-9.03,6.2-4.54,1.12-12.92-7.54-15.6,3.89-1.96,6.9-4.96,3.96-8.84-3.13-4.17-8.78-6.51-14.61-7.26,2.42-4.46-.63-13.51-8.68-12.63,1.89-6.61-4.59-11.8-12.31-10.59,1.02-3,.99-6.13-1.78-8.65-2.09-1.92-4.86-1.67-7.17-.56-.3-3.5-1.75-7.53-6.04-8.01-5.18-.58-8.71,1.59-9.75,5.07-4.37-2.94-9.85-1.98-13.74.94.82-1.46,1.22-3.04,1.02-4.42,3.23-.25,6.22-1.92,6.68-4.96.63-4.29-3.56-6.11-8-6.63,3.53-2.61,6.04-5.82,4.01-9.92-1.5-3.04-5.87-3.48-9.93-3.21,3.48-5.27-3.53-11.15-11.55-11.05,2.24-2.57,4.09-5.59,2.21-8.24-2.43-3.4-6.35-3.44-10.36-2.82.87-3.17.31-6-4.04-7.72-5.18-2-9.92.21-13.69,3.04-.32-2.38-1.49-4.29-4.69-5.71-3.14-1.46-6.91.09-9.59,1.96-2.45-4.8-8.46-4.8-13.33-1.51-1.81-3.58-7.8-5.27-12.37-4.04.08-2.57-1.32-5.31-3.86-6.17-3.75-1.23-8.35-.92-11.14,1.19-1.27-2.96-3.23-6.22-7.03-6.14-5.03.13-9.45,3.16-12.9,6.29-1.24-2.5-3.32-4.75-6.57-5.25-3.43-.49-6.76,1.66-8.63,4.12-3.19-2.46-8.32-2.02-10.89.88-2.99-3.4-8.07-6.79-12.46-3.25-3.1,2.48-5.05,6.67-4.59,10.42-3.74-.42-7.41,1.46-9.04,4.38-3.28-1.92-7.92-.04-10.48,3.09-6.46-5.13-12.8-.12-13.76,6.3-3.74-2.9-8.66-4.63-13.18-1.59-2.89,1.96-2.82,6.67-1.65,10.22-3.7.33-4.77,5.77-2.84,9.72-6.27.45-7.69,7.21-5.03,10.34-2.92,2.42-1.06,7.38,1.3,11.05-3.3.13-6.12,1.59-7.14,4.79-5.45-2.42-10.38.21-11.5,4.59-4.48-2.38-11.19.25-14.21,4.59-4.47-3.17-13.97-.54-15.9,4.46-6.45-3-13.91,4.5-14.62,10.75-5.81-1.46-13.59,6.59-10.13,11.57-2.48,2.15-2.82,8.07-1.95,12.24-4.42-1.13-7.78,3.07-7.54,7.61-3.76.73-7.87,3.98-8.38,7.24-.99.16-2,.46-2.97.87-5.51,2.42-4.21,6.2-1.09,9.13-5.81,1.67-10.18,8.88-7.74,12.63-8.05,1.92-8.66,10.22-1.86,13.41-6.26,3.56-3.34,12.88,3.33,17.55-5.38,2.13-7.23,9.38-3.45,11.91-3.91,3.23-3.96,9.09-.35,10.63-4.62,5.71,2.38,13.96,10.1,12.84-.73,2.75.26,5.38,4.06,6.92,3.4,1.38,8,.98,12.21,0-2.2,5.13,3.61,10.96,11.55,10.3-1.56,5.54,6.83,10.71,12.81,8.82,1.08,8.28,18.78,9.61,27.02,8.07.09,0,.11-.02.19-.04.15.71.41,1.35.76,1.94-5.5,1.9-6.11,8.24-1.75,12.2-3.91,1.42-6.42,5.29-5.81,9.3.89,5.75,5.51,8.3,11.21,8.97-1.8,1.96-2.1,4.56-.66,7.5,1.99,3.98,7.49,5.15,12.54,5.17-5.56,6.76,2.89,14.85,12.69,12.39-2.11,9.22,11.04,15.18,19.5,8.67.88,2.9,3.25,5.28,7.2,6.3,3.2.83,6.17.96,9.4.48,1.32-.19,4.14-1.82,6.35-2.86.1,1.17.81,2.27,2.05,2.88,2.92,1.44,7.09,1.34,10.99.58.34.67.99,1.38,2.01,2.11,2.29,1.63,5.25,2.98,8.37,3.07,1.63,0,3.35-.04,4.78-.79.02,0,.05-.04.07-.06.88,1.48,2.36,2.86,3.86,3.79,5.48,3.48,10.12,1.52,12.69-2.23,4.38,4.61,15.74,2.69,20.11-2.63,5.7,6.76,22.26,2.34,22.91-4.61,5.71,1.1,11.86-3.69,13.71-9.07,3.86,2.79,9.04,3.65,14.04,1.42,2.74-1.21,3.99-3.09,4.06-5.08,3.61,1.31,7.65.92,11.2-1.92,2.56-2.06,3.23-4.8,1.95-6.92,5.49-.79,10.06-3.75,12.08-8.32,1.75-4.02-.71-6.98-4.52-8.42,3.56-1.98,6.38-4.92,6-8.72-.21-1.98-.76-3.77-1.9-5.4-.36-.54-.75-1-1.21-1.36,0-.02,0-.04-.02-.06-1.73-1.67-5.76-3.38-6.77-5.38-.67-1.25-2.82-.54-2.26.73.58,1.36,2.58,2.61,3.75,3.61.15.08.26.21.39.33-.46.13-.94.29-1.4.54-.4-2-1.78-3.63-4.74-4.38-2.19-.54-4.19.04-5.89,1.15-.22-2.23-1.42-4.15-4.5-4.84-3.12-.73-6.04,1.75-8.17,4.73-1.04-2.34-3.35-4.05-7.39-4.36-3.96-.29-7.44,1.11-9.92,3.31-.56-3.09-2.21-5.96-5.59-7.28-7.66-2.98-13.94,1.86-18.94,6.32-1.66-3.75-4.38-6.88-9.77-7.51-5.33-.62-10.68,2.21-14.87,5.09-.51-4.05-2.29-7.8-7.46-9.4-5.66-1.77-12.11.88-17.01,3.71-.46-3.86-1.68-8.24-6.76-9.11-5.65-.96-10.8,1.38-14.59,4.71-.86-3.84-3.19-7.44-8-8.78-5.58-1.57-10.89,2.17-14.82,5.9-1.07-9.46-13.73-14.76-21.68-7.05-.53-2.63-1.32-5.54-2.77-7.95,1.45-2.15.84-4.21-1.29-5.44,5.89-3.21,7.15-7.92,2.43-12.76,5.2-1.5,10.08-2.69,12.06-7.54,1.7-4.21-1.29-8.17-5.18-10.8,11.33-7.51,5.61-16.2-4.55-23.02,3.65-4.09,7.39-8.49,8.89-13.43,1.7-5.69.05-9.55-2.52-14.56,11.43-3.86,16.68-17.68,7.14-24.06,7.96-2.81,6.16-14.16-.02-19.43,5.86-3.13,9.95-7.13,10.58-13.22.36-3.65-1.02-8.74-4.57-11.47,2.36-1.37,4.09-3.25,4.62-5.27,2.65,2.65,6.55,4.61,10.28,4.25.32.92.91,1.82,1.83,2.57,2.97,2.38,8.2,2.59,11.5.67,3.4,2.27,10.11,4.13,11.98,4.46,4.84.83,11.07-.21,14.3-3.42,5.81,2.19,15.88.75,20.38-3.25,4.69,5.51,19.57,5.86,21.98-.37,5.15,1.71,13.66,1.04,16.75-2.29,3.33,2.07,8.97,2.4,12.77,2.42,1.96.04,4.98-.46,7.39-1.4,1.5,1.11,3.45,2.02,5,2.61,4.26,1.59,10.99,2.34,15.23.13,2.16,1.4,5.25,2.59,6.56,3,3.88,1.21,10,1.33,13.2-.84-1.28,2.25-1.68,4.9-.7,7.53-.56.31-.91.9-.61,1.61-.51-1.25-3.09.92-3.94,1.35-2.41,1.3-4.99,2.36-7.54,3.46-4.48,1.98-8.25,4.44-9.85,8.51-1.32,3.36-.37,7.09,1.96,10.03-.11.04-.16.04-.26.04-4.67.79-6.86,4.78-7.86,8.22-2.62,8.94,6.35,16.3,15.08,20.77-5.69,1.57-11.74,4.75-9.73,10.17,2.24,6,8.71,11.19,15.66,14.47-10.82,3.3-2.29,20.6,8,25.81-11.07,7.76-4.21,21.6,7.9,26.52-4.81,9.3,3.19,20.27,15.56,18.22.17,1.88.93,3.96,1.32,5.09,1.32,3.86,4.84,6.96,9.26,8.51,8.27,2.79,15.08-2.65,16.34-8.8,3.15,2.08,7.39,2.08,11.79-.02,5.84-2.77,7.95-8.15,6.64-13.08,5.32,1.71,10.64.48,14-4.42,2.29-3.42,2.58-7.61.63-10.93,10.99.59,15.08-11.65,9.09-19.28,4.21.02,7.91-1.86,8.81-6.28,1.14-5.71-1.85-11.01-7.32-14.17,5.03-1.36,8.94-3.69,9.85-8.63.79-4.33-3.43-7.34-8.05-8.72Z"/>
          <path class="cls-11" d="m287.86,293.76c.1-1.67-.05-3.17-.79-4.63-.22-.48-.45-.88-.76-1.21,0-.02,0-.04-.05-.04-1.14-1.57-4.21-3.36-4.77-5.11-.34-1.08-2.21-.71-1.96.4.31,1.17,1.78,2.38,2.6,3.29.07.12.15.21.25.33-.4.06-.83.17-1.22.29-.05-1.67-.93-3.13-3.27-4.02-1.74-.66-3.45-.39-5.01.36.12-1.86-.56-3.54-2.97-4.42-2.47-.9-5.2.86-7.39,3.06-.53-1.98-2.16-3.61-5.46-4.27-3.19-.62-6.24.19-8.61,1.75-.03-2.59-.93-5.11-3.53-6.53-5.86-3.19-11.7.15-16.44,3.36-.82-3.25-2.62-6.11-6.96-7.15-4.27-1.02-9.07.77-12.93,2.73.19-3.38-.73-6.63-4.74-8.44-4.42-2-10.07-.48-14.49,1.38.17-3.19-.2-6.93-4.21-8.11-4.5-1.35-9.07.05-12.67,2.42-.14-3.25-1.55-6.43-5.29-7.99-4.36-1.82-9.24.71-13.02,3.4.35-5.21-3.76-9.38-8.78-10.03-10.62,5.56-23.03,8.05-35.42,10.63-2.02,2.06-2.18,5.46-.02,8.11-3.4.79-6.01,3.71-6.09,7.05-.14,4.81,3.29,7.38,7.86,8.49-1.75,1.39-2.38,3.52-1.6,6.06,1.04,3.46,5.39,4.96,9.53,5.46-5.54,5,.22,12.47,8.61,11.43-3.04,7.34,6.88,13.51,14.74,9.01.31,2.48,1.91,4.67,5.03,5.88,2.46.98,4.88,1.37,7.61,1.33,1.12-.04,3.66-1.1,5.61-1.73-.08.94.33,1.94,1.27,2.57,2.18,1.46,5.64,1.77,8.94,1.54.17.59.61,1.21,1.34,1.92,1.63,1.59,3.89,2.96,6.45,3.34,1.3.17,2.74.3,4.01-.16,0-.04.05-.04.08-.04.51,1.25,1.5,2.54,2.6,3.46,4.01,3.42,8.1,2.25,10.77-.58,2.94,4.21,12.51,3.75,16.85-.17,3.7,6.09,17.92,4.07,19.47-1.54,4.52,1.46,10.28-1.87,12.56-6.09,2.74,2.67,6.88,3.86,11.33,2.5,2.41-.71,3.71-2.13,4.04-3.75,2.77,1.41,6.15,1.5,9.5-.5,2.38-1.42,3.32-3.59,2.58-5.48,4.62-.1,8.81-2.09,11.12-5.63,2.04-3.13.43-5.77-2.51-7.36,3.25-1.27,5.99-3.4,6.22-6.54Z"/>
          <path class="cls-11" d="m126.54,102.4c-.12.25-.24.5-.34.79-4.55-2-8.63.17-9.51,3.79-3.74-1.98-9.29.21-11.79,3.79-3.73-2.61-11.6-.44-13.18,3.69-5.38-2.48-11.55,3.73-12.16,8.91-4.79-1.19-11.24,5.5-8.35,9.63-2.09,1.75-2.36,6.67-1.65,10.13-3.65-.96-6.45,2.55-6.25,6.32-3.12.6-6.52,3.27-6.93,6-.83.13-1.68.36-2.46.71-4.57,1.98-3.5,5.15-.92,7.57-4.82,1.38-8.42,7.34-6.42,10.51-6.64,1.54-7.15,8.42-1.55,11.09-5.18,2.92-2.76,10.68,2.77,14.53-4.45,1.75-5.99,7.78-2.87,9.86-3.24,2.71-3.24,7.55-.27,8.84-3.84,4.71,1.98,11.55,8.37,10.63-.63,2.29.21,4.46,3.35,5.73,2.84,1.15,6.63.81,10.13.02-1.82,4.23,2.97,9.09,9.56,8.53-1.29,4.56,5.66,8.9,10.62,7.32.91,6.84,15.56,7.95,22.42,6.67.05,0,.07-.02.12-.02.05.11.1.19.12.32,8.05-2.75,16-5.59,23.05-9.51-.41-1.83-1.04-3.75-1.98-5.38,1.17-1.79.66-3.5-1.12-4.5,4.89-2.67,5.94-6.59,2-10.59,4.35-1.23,8.38-2.21,10.04-6.26,1.42-3.5-1.07-6.75-4.3-8.92,9.36-6.26,4.64-13.47-3.78-19.1,3.04-3.38,6.14-7.05,7.35-11.15,1.43-4.69.07-7.9-2.05-12.03,9.44-3.21,13.79-14.66,5.89-19.95,6.62-2.36,5.1-11.74-.02-16.12,4.87-2.59,8.25-5.93,8.75-10.97.12-1.17.05-2.55-.32-3.88-9.09-5.34-17.52-11.38-26.35-17.01Z"/>
          <path class="cls-11" d="m290.76,107.7c1.78,1.17,4.36,2.13,5.45,2.48,3.18,1,8.26,1.12,10.92-.69-.56,1-.88,2.05-.98,3.17,6.62-4.61,13.14-9.34,19.65-14.09.17-.71.25-1.4.17-2.05,2.67-.17,5.13-1.59,5.54-4.09.52-3.58-2.96-5.09-6.63-5.5,2.92-2.17,5-4.84,3.33-8.22-1.24-2.55-4.88-2.92-8.26-2.67,2.91-4.38-2.92-9.26-9.59-9.17,1.88-2.13,3.43-4.63,1.85-6.82-2-2.82-5.25-2.86-8.58-2.32.73-2.65.24-5-3.35-6.42-4.28-1.65-8.22.17-11.31,2.52-.29-1.94-1.24-3.56-3.89-4.73-2.65-1.19-5.74.08-7.97,1.65-2.02-3.98-7.03-3.98-11.04-1.28-1.5-2.98-6.47-4.35-10.26-3.33.05-2.13-1.09-4.42-3.19-5.13-3.13-1.03-6.93-.76-9.24,1-1.04-2.46-2.69-5.17-5.85-5.09-4.16.09-7.81,2.61-10.66,5.17-1.04-2.05-2.77-3.94-5.46-4.33-2.83-.42-5.6,1.4-7.15,3.42-2.67-2.02-6.91-1.67-9.02.71-2.51-2.79-6.69-5.58-10.36-2.67-2.53,2.05-4.19,5.54-3.8,8.63-3.1-.33-6.15,1.23-7.51,3.63-2.69-1.57-6.56,0-8.66,2.57-5.37-4.23-10.62-.11-11.43,5.23-3.07-2.42-7.17-3.86-10.92-1.34-2.38,1.65-2.33,5.54-1.37,8.47-3.08.29-3.94,4.81-2.33,8.07-5.2.4-6.41,5.98-4.17,8.57-2.43,2-.91,6.13,1.07,9.17-1.49.04-2.87.46-3.96,1.21,7.67,4.88,14.98,10.09,22.75,14.84-.43-.55-.89-1.05-1.45-1.46,1.96-1.17,3.38-2.71,3.84-4.4,2.16,2.21,5.4,3.81,8.51,3.52.27.77.76,1.52,1.52,2.13,2.45,2,6.78,2.17,9.53.54,2.84,1.9,8.37,3.42,9.95,3.71,4.01.71,9.14-.17,11.81-2.79,4.87,1.79,13.2.61,16.93-2.71,3.89,4.54,16.22,4.83,18.21-.34,4.28,1.42,11.34.88,13.91-1.88,2.73,1.67,7.44,1.96,10.61,2,1.6,0,4.09-.4,6.1-1.17,1.24.92,2.87,1.67,4.16,2.17,3.5,1.29,9.09,1.92,12.62.08Z"/>
          <path class="cls-11" d="m376.76,177.88c4.16-2.32,7.82-5.65,7.46-9.97-.27-3.38-1.88-6.26-4.74-7.51,5.15-3.75.93-10.67-6.22-12.93,3.2-1.62,5.71-4.08,3.28-7.34-2.57-3.44-7.32-5.35-12.11-5.98,1.98-3.71-.53-11.21-7.21-10.49,1.6-5.48-3.8-9.8-10.21-8.8.87-2.48.82-5.07-1.44-7.16-1.75-1.6-4.04-1.4-5.96-.48-.24-2.88-1.43-6.21-5.01-6.63-4.26-.46-7.19,1.34-8.07,4.21-1.73-1.17-3.65-1.59-5.54-1.46-8.1,5.92-16.17,11.84-24.47,17.58.03.07.03.15.05.19-.46.29-.76.75-.51,1.34-.43-1.03-2.56.75-3.25,1.12-.2.11-.4.19-.61.3-4.36,2.94-8.78,5.79-13.28,8.55-.2.33-.37.71-.51,1.08-1.12,2.77-.32,5.88,1.6,8.32-.07.02-.12.02-.17.02-3.91.66-5.74,3.96-6.55,6.81-2.18,7.4,5.28,13.53,12.48,17.2-4.7,1.3-9.72,3.92-8.05,8.45,1.82,4.98,7.21,9.28,13,11.99-8.99,2.73-1.91,17.09,6.62,21.39-9.19,6.46-3.5,17.91,6.56,21.98-4.01,7.71,2.63,16.83,12.87,15.12.15,1.56.78,3.32,1.09,4.23,1.09,3.19,4.01,5.8,7.69,7.05,6.86,2.32,12.52-2.19,13.56-7.29,2.58,1.73,6.11,1.71,9.75,0,4.84-2.34,6.6-6.76,5.53-10.86,4.4,1.44,8.82.41,11.57-3.65,1.91-2.84,2.16-6.29.53-9.05,9.09.48,12.49-9.67,7.51-16.01,3.53.02,6.61-1.54,7.34-5.17.94-4.75-1.55-9.13-6.06-11.76,4.16-1.13,7.38-3.07,8.15-7.18.66-3.59-2.82-6.09-6.68-7.21Z"/>
          <path class="cls-4" d="m376.28,192.6c1.55-4.77-2.66-7.28-7.61-8.34,5.56-3.09,8.68-7.84,6.78-13.51-1.58-4.67-7.08-7.09-12.79-7.15,3.7-3.25,7.35-7.11,4.97-11.41-2-3.54-5.71-5.35-10.05-5.21,3.75-2.96,6.83-6.5,2.74-10.63-5.08-5.09-10.54-5.79-17.11-4.71,2.51-2.96,4.38-5.6,2.41-9.72-1.27-2.59-4.6-3.79-8.1-4.21,5.06-3,9.95-7.22,7.74-12.14-1.7-3.71-5.33-5.83-9.34-5.25,1.55-2.54,2.69-5.21-.56-7.23-3.75-2.36-8.17-.59-11.72,1.39.51-2.79,1.7-4.75-1.8-7.13-1.02-.71-2.29-.87-3.58-.71,1.19-1.9,1.69-3.92-.31-5.46-3.23-2.46-6.93-1.71-10.46-.29,1.88-3.75,3.73-7.63-.39-10.88-2.92-2.29-7.64-1.04-11.77.77,2.36-2.81,4.09-5.71,1.34-9.01-2.16-2.59-6.59-2.54-10.31-1.36.36-2.38-.86-4.62-4.52-6.21-4.77-2.06-12.23-.73-17.21,1.94-1.49-5.44-9.95-7.8-16.32-5.06-.51-2.25-2.41-4.21-5.64-5.55-4.94-2.04-9.17.09-12.18,3.04-.73-4.25-2.99-8.71-8.22-8.13-8.1.84-10.38,7.4-7.82,12.47-5.81.04-9.19,5.17-10.3,10.01-4.62-3.88-10.42-5.42-18.01-3.94-4.89.94-6.91,3.82-7.95,7.03-2.53-3.75-6.28-7.05-12.38-6.67-6.47.42-11.45,4.19-12.08,8.76-6.35-3.5-14.75-4.71-20.52.48-3.24,2.9-1.54,6.75,1.63,9.32-8.25,1.3-14.54,5.8-14.59,11.84-4.27-2.5-9.9-3.29-14.93-.87-4.64,2.25-5.74,7-4.35,11.05-5.65-1.65-12.13-.25-16.27,3.88-4.36,4.33-2.05,10.09,2.44,14.01-4.84-.08-9.49,2.05-12.05,5.08-3.91,4.71-.67,10.13,4.48,13.56-1.03.5-1.95,1.21-2.61,2.23-1.99,3.02-.92,5.61,1.63,7.53-5.01,1.38-8.92,5.46-6.46,8.26-10.46,3.21-7.25,13.93,1.55,17.72-6.37,2.25-8,9.67-3.28,13.78-1.37.46-2.66,1.19-3.65,2.27-1.65,1.75-1.02,3.88.41,5.83-5.97.94-9.96,8.84-2.04,12.72-5.66,3.25-3.22,10.05,3.18,11.97-1.96,2.33-1.19,5.79,1.17,8.26-3.66,1.08-3.11,5.04-.1,7.94-5.71.48-10.31,2.77-10.99,7.88-.7,5.03,4.62,8.94,10.51,9.46-4.91,6.78,3.94,16.1,13.5,11.78-1.56,3.96.99,10.11,3.84,12.34,4.72,3.71,11.09,3.13,17.09,1.73-3.43,4.02-5.32,8.97.1,12.61,5.04,3.42,11.9,4.33,18,2.88-1.43,2.3-2.06,4.69-.31,6.59,2.84,3.09,7.02,3.88,11.03,2.67,1.29,9.3,14.08,2.79,20.02-3.71,1.89,4.63,5.54,8.9,12.54,8.71,7.03-.21,10.94-6.21,12.79-11.55.87,1.23,1.8,2.42,2.52,3.38,2.07,2.92,4.79,5.17,9.22,5.63,3.53.37,6.23-.84,8.25-2.79.1.12.15.29.27.42,2.11,2.42,5.74,4.25,9.26,3.96-.4,7.34,16,13.64,24.28,6.59,1.03,2.96,3.34,5.65,7.61,5.78,3.33.1,4.82-1.11,5.5-2.79,3.23,3.81,8.41,6.98,13.97,6.27,4.48-.58,6.6-3.15,7.44-6.15,3.02,2.65,7.43,3.56,9.92.82,1.8,2.27,4.65,3.63,8.81,2.4,3.63-1.07,5.61-4.25,6.88-7.45,2.14,3.44,5.81,6.09,11.4,5.84,8.51-.4,8.88-6.5,8.51-11.63,3.92,3.71,7.56,7.92,15.13,5.54,3.5-1.08,3.48-4.21,2.51-7.13,3.02,1.5,6.45,2.42,9.34.67,4.3-2.57,2.57-7.07.63-10.84,4.55,1.63,10.38-.4,13.39-3.88,3.65-4.21,3.09-10.42-.31-14.76,6.45-1.31,11.15-6.58,7.49-10.4,6.58-2.06,10.23-8.88,5.61-12.57,6.85-2.79,6.76-10.38.66-14.26,5.1-2.17,9.34-6.17,8.78-10.8-.63-5.21-4.62-7.63-10.36-8.8,4.06-3.29,8.28-5.08,6.48-10.84-.87-2.75-2.98-5.11-5.85-6.58,5.46-1.69,9.91-4.65,11.45-9.34Z"/>
          <path class="cls-23" d="m362.05,192.39c1.42-4.63-2.37-7.05-6.85-8.07,4.99-2.98,7.84-7.61,6.13-13.07-1.42-4.54-6.42-6.9-11.55-6.97,3.35-3.13,6.63-6.88,4.47-11.05-1.8-3.42-5.13-5.17-9.04-5.05,3.38-2.88,6.15-6.31,2.5-10.3-4.59-4.92-9.53-5.63-15.46-4.56,2.29-2.86,3.99-5.44,2.19-9.42-1.12-2.52-4.17-3.67-7.29-4.09,4.55-2.94,8.97-6.98,6.98-11.74-1.53-3.63-4.82-5.67-8.41-5.13,1.35-2.44,2.4-5.02-.52-6.98-3.4-2.27-7.36-.59-10.57,1.35.46-2.71,1.5-4.61-1.63-6.92-.91-.69-2.05-.83-3.22-.71,1.09-1.84,1.53-3.75-.29-5.25-2.92-2.42-6.27-1.67-9.44-.29,1.73-3.65,3.38-7.41-.33-10.55-2.63-2.21-6.88-1-10.61.75,2.14-2.75,3.68-5.54,1.19-8.74-1.95-2.52-5.94-2.48-9.26-1.31.31-2.29-.76-4.5-4.09-6.05-4.3-1.98-11.04-.69-15.49,1.9-1.37-5.25-8.99-7.57-14.73-4.92-.47-2.17-2.17-4.07-5.09-5.36-4.47-1.98-8.28.08-10.97,2.94-.7-4.1-2.69-8.44-7.41-7.9-7.32.88-9.38,7.21-7.07,12.13-5.25,0-8.27,4.98-9.26,9.67-4.19-3.75-9.39-5.25-16.25-3.82-4.42.94-6.22,3.69-7.15,6.82-2.29-3.63-5.69-6.84-11.18-6.47-5.81.4-10.33,4.04-10.89,8.47-5.73-3.38-13.3-4.54-18.48.48-2.89,2.81-1.39,6.55,1.48,9.03-7.44,1.23-13.13,5.63-13.18,11.49-3.84-2.44-8.9-3.19-13.45-.86-4.2,2.17-5.13,6.8-3.91,10.72-5.1-1.63-10.94-.25-14.64,3.71-3.96,4.21-1.89,9.82,2.17,13.64-4.36-.11-8.53,1.96-10.84,4.92-3.55,4.54-.61,9.82,4.01,13.13-.91.48-1.75,1.17-2.33,2.17-1.8,2.92-.81,5.42,1.45,7.26-4.5,1.34-8.05,5.32-5.81,8.01-9.43,3.13-6.53,13.51,1.37,17.18-5.71,2.17-7.15,9.42-2.92,13.36-1.24.46-2.38,1.17-3.28,2.19-1.49,1.73-.93,3.79.33,5.67-5.35.92-8.97,8.59-1.8,12.34-5.1,3.15-2.92,9.71,2.84,11.59-1.75,2.25-1.07,5.63,1.04,8.01-3.25,1.05-2.77,4.88-.08,7.7-5.13.44-9.3,2.69-9.91,7.65-.58,4.84,4.17,8.67,9.48,9.17-4.4,6.55,3.55,15.6,12.16,11.4-1.4,3.81.91,9.8,3.45,11.97,4.28,3.61,10,3.02,15.44,1.69-3.13,3.88-4.83,8.67.07,12.21,4.55,3.3,10.71,4.21,16.22,2.79-1.27,2.19-1.85,4.54-.28,6.36,2.6,2.98,6.32,3.75,9.93,2.59,1.17,9.03,12.72,2.73,18.05-3.61,1.7,4.48,5,8.65,11.33,8.47,6.32-.21,9.85-6.01,11.52-11.18.76,1.17,1.62,2.32,2.29,3.27,1.88,2.79,4.33,4.98,8.27,5.44,3.2.36,5.64-.83,7.44-2.71.1.12.15.29.25.41,1.89,2.36,5.18,4.13,8.36,3.84-.36,7.09,14.42,13.19,21.88,6.38.93,2.84,3.02,5.46,6.86,5.58,2.97.11,4.36-1.08,4.97-2.71,2.89,3.71,7.56,6.77,12.57,6.09,4.06-.54,5.94-3.04,6.71-5.96,2.75,2.54,6.69,3.46,8.95.79,1.63,2.21,4.2,3.5,7.95,2.33,3.28-1.04,5.08-4.13,6.2-7.23,1.9,3.36,5.23,5.9,10.28,5.65,7.64-.38,8-6.3,7.66-11.26,3.53,3.58,6.81,7.67,13.64,5.38,3.14-1.07,3.14-4.08,2.29-6.92,2.68,1.46,5.79,2.34,8.4.66,3.86-2.5,2.31-6.88.58-10.53,4.06,1.61,9.34-.38,12.06-3.73,3.28-4.11,2.77-10.11-.27-14.32,5.81-1.28,10.02-6.4,6.72-10.07,5.95-2,9.22-8.63,5.08-12.21,6.17-2.71,6.07-10.05.58-13.83,4.59-2.06,8.43-5.94,7.92-10.44-.58-5.04-4.16-7.38-9.34-8.51,3.65-3.21,7.44-4.96,5.84-10.53-.79-2.69-2.69-4.94-5.25-6.4,4.89-1.62,8.9-4.5,10.28-9.05Z"/>
          <path class="cls-16" d="m311.8,97.44c.67-2.86-.93-6.25-4.06-9.11-4.84-4.46-11.92-5.69-18.85-5.02,1.88-3.33.81-7.3-4.12-10.84-7.08-5.13-16.12-4.42-22.74-.39-.15-4.65-3.15-9.11-9.41-10.32-8.58-1.67-17.36,1.67-23.34,6.88-1.04-4.71-5.96-8.42-13.5-7.8-8.05.67-15.67,4.59-19.45,10.21-1.93-4-6.1-6.67-13-5.96-7.71.77-13.72,5.71-15.32,11.59-9.65-9.34-28.03,1.86-25.36,14.26-9.43-3.67-19.5,5.84-20.86,15.28-10.82-9.11-27.55,11.74-19.71,19.95-3.8,2.25-4.94,8.32-4.79,12.12.34,7.27,5.35,13.32,13.13,13.74-3.94,4.5-2.84,9.97,4.79,13.42,7.66,3.42,17.24,4.3,25.11,1.59,2.43,2.98,10.12,4.83,14.34,3.92,7.49,7.02,25.92,4.11,31.83-2.67,6.35,4.25,21.55-.23,28.43-6.06,4.45,2.65,11.84,3.56,16.61,2.5,6.05-1.35,17.34-5.11,21.22-10.65,10.87,6.65,39.88-6.46,40.21-18.07,6.96-.4,16.15-2.82,18.53-3.73,6.93-2.67,8.42-11.53,5.89-16.22,7.34-5.25,3.7-17.51-5.56-18.59Z"/>
          <path class="cls-10" d="m304.03,142.18c.63-2.52-.92-5.5-3.86-8.05-4.62-3.92-11.35-5-17.95-4.42,1.78-2.92.78-6.42-3.89-9.55-6.74-4.52-15.35-3.9-21.62-.33-.16-4.11-3.02-8.05-8.97-9.11-8.17-1.46-16.47,1.48-22.16,6.07-1.02-4.13-5.69-7.43-12.88-6.86-7.64.58-14.84,4.02-18.46,8.99-1.85-3.54-5.79-5.88-12.36-5.26-7.34.69-13.05,5.03-14.57,10.22-9.19-8.22-26.64,1.63-24.09,12.55-8.97-3.23-18.58,5.17-19.86,13.47-10.27-8.01-26.17,10.32-18.7,17.59-3.63,1.96-4.74,7.3-4.57,10.67.27,6.4,5.08,11.72,12.47,12.09-3.74,3.96-2.69,8.8,4.57,11.8,7.25,3.04,16.37,3.79,23.86,1.42,2.31,2.63,9.62,4.25,13.61,3.44,7.1,6.21,24.66,3.63,30.28-2.32,6.02,3.71,20.49-.21,27.01-5.38,4.23,2.34,11.25,3.17,15.78,2.21,5.74-1.19,16.5-4.5,20.16-9.38,10.33,5.86,37.93-5.69,38.24-15.93,6.62-.33,15.38-2.48,17.61-3.29,6.58-2.34,8-10.13,5.61-14.26,6.95-4.65,3.53-15.45-5.28-16.39Z"/>
          <path class="cls-7" d="m194.47,269.09c2.26-1.85,7.13-4.85,1.56-8-.93-.53-.61-1.9.48-2.15,6.93-1.54,6.35-6.17,1.6-8.94-1.22-.69-.36-2.05.89-2.21,1.51-.18,2.99-.43,4.46-.77,4.09-.67,4.42-3.25,1.04-7.78-1.39-.67-1.04-2.15.56-2.4,2.65-.42,12.57-1.59,7.14-4.83-.94-.59-.62-1.88.47-2.17,1.4-.37,2.57-.96,3.5-1.71-.56-3.54-2.92-7.02-6.6-8.74,5.56-5.19,7.44-13.51,2.84-17.61,5.91-1.9,10.56-6.11,8.02-9.88,18.17-.83,19.77-20.98,4.36-24.02,9.57-6.51,8.1-21.23-4.46-20.19,2.1-3.56,1.9-7.59-1.04-11.26-2.69-3.32-6.68-3.84-10.26-2.55.46-8.11-13.08-10.72-20.23-4.29-4.19-8.97-20.49-7.01-26.55.83-5.13-7.36-21.35.61-24.02,9.22-10.63-6.59-26.65,3.46-24.78,13.85-11.07-2.96-26.43,5.92-20.94,14.07-9.7.98-5.71,12.53.27,17.91-7.94,2.92-13.3,12.17-7.56,16.3-7.39,3.19-7.1,13.13.46,16.53-2.46,1.31-4.09,3.32-3.3,6.09,1.19,4.21,5.28,6.4,10.13,7.11-4.59,5.07-3.04,13.18,3.09,15.56-5.55,5.09-1.68,14.68,7.36,14.1-2.46,6.8,7.41,13.01,14.37,9.88.27,2.79,2.02,5.23,5.86,6.79,4.3,1.73,8.61.32,11.96-2.04-.05,3.3,1.17,6.5,4.21,8.92,3.35,2.71,6.98,1.38,9.77-.79.53,3.46,2.6,6.82,7.82,6.15,5.25-.69,8.56-3.75,10.2-7.42,1.58.69,3.71.85,6.2.29,5.03-1.11,7.59-4.11,8.15-7.49,4.62,1.82,11.08-.19,13.13-4.62-.63-.4-.94-1.13-.2-1.73Z"/>
          <path class="cls-27" d="m186.88,268.4c2.25-1.58,7-4.13,2.2-7.48-.81-.57-.4-1.84.63-2,6.51-1.02,6.41-5.44,2.26-8.38-1.03-.77-.1-1.98,1.04-2.07,1.4-.04,2.8-.21,4.2-.46,3.78-.35,4.31-2.79,1.62-7.27-1.19-.73-.71-2.11.75-2.23,2.48-.25,11.67-.75,7-4.17-.82-.58-.38-1.79.63-2,1.34-.25,2.43-.75,3.38-1.42-.19-3.38-2.04-6.84-5.25-8.72,5.58-4.54,8.1-12.34,4.23-16.53,5.61-1.42,10.26-5.11,8.27-8.86,16.75.4,20.06-18.64,6.22-22.5,9.37-5.59,9.39-19.66-2.26-19.43,2.26-3.27,2.46-7.11.08-10.78-2.12-3.31-5.76-4.04-9.17-3.09,1.19-7.63-10.99-11.01-18.12-5.36-3.04-8.76-18.21-7.96-24.48-.93-4.04-7.3-19.65-.8-22.86,7.23-9.19-6.94-24.8,1.57-24.02,11.53-9.87-3.52-24.78,3.92-20.5,12.01-8.99.31-6.41,11.53-1.4,17.01-7.56,2.27-13.33,10.7-8.46,14.97-7.05,2.59-7.71,12.01-1.08,15.74-2.4,1.11-4.07,2.9-3.61,5.57.75,4.07,4.27,6.42,8.63,7.42-4.64,4.5-4.01,12.3,1.43,14.95-5.59,4.44-2.89,13.81,5.45,13.83-2.89,6.29,5.61,12.84,12.28,10.34,0,2.65,1.38,5.07,4.76,6.8,3.75,1.92,7.86.86,11.14-1.17-.32,3.13.48,6.26,3.04,8.76,2.82,2.78,6.27,1.75,9.04-.12.17,3.34,1.78,6.63,6.63,6.33,4.87-.31,8.2-3.02,10.05-6.38,1.37.73,3.3,1.02,5.66.66,4.69-.75,7.34-3.42,8.15-6.59,4.06,2.05,10.16.55,12.49-3.54-.56-.42-.79-1.13-.05-1.67Z"/>
          <path class="cls-9" d="m209.52,246.89c1.24-.88,3.84-2.25,1.19-4.11-.43-.31-.2-1,.36-1.1,3.58-.59,3.53-3,1.24-4.61-.56-.42-.05-1.09.58-1.13.76-.04,1.54-.14,2.29-.25,2.07-.19,2.41-1.52.93-4.02-.68-.39-.42-1.15.39-1.21,1.37-.12,6.42-.42,3.86-2.29-.46-.33-.21-1,.35-1.1.72-.15,1.35-.42,1.86-.77-.11-1.87-1.14-3.77-2.91-4.79,3.08-2.5,4.45-6.79,2.35-9.11,3.07-.77,5.63-2.81,4.53-4.88,9.22.23,11.05-10.26,3.43-12.36,5.13-3.09,5.15-10.82-1.24-10.7,1.24-1.82,1.38-3.92.05-5.95-1.19-1.81-3.17-2.21-5.04-1.69.66-4.21-6.05-6.06-9.98-2.96-1.68-4.82-10-4.36-13.48-.5-2.21-4.02-10.79-.44-12.57,3.98-5.05-3.84-13.64.83-13.23,6.33-5.43-1.94-13.61,2.15-11.28,6.61-4.94.17-3.53,6.32-.78,9.36-4.14,1.25-7.32,5.88-4.65,8.24-3.86,1.4-4.23,6.61-.58,8.65-1.32.63-2.24,1.59-1.97,3.09.4,2.21,2.33,3.52,4.74,4.07-2.57,2.48-2.21,6.78.76,8.24-3.04,2.44-1.58,7.59,3.02,7.59-1.59,3.46,3.08,7.09,6.76,5.69,0,1.48.76,2.79,2.62,3.73,2.07,1.07,4.31.5,6.13-.62-.2,1.71.26,3.42,1.68,4.79,1.55,1.54,3.43.96,4.98-.04.1,1.81.97,3.63,3.63,3.46,2.69-.16,4.52-1.65,5.54-3.5.76.42,1.83.59,3.09.38,2.6-.42,4.04-1.88,4.52-3.63,2.21,1.12,5.56.29,6.85-1.96-.31-.2-.43-.6-.02-.91Z"/>
          <path class="cls-3" d="m348.26,239c7.44-5.25,7.71-14.78-1.53-17.3,6.42-5.69,9.14-16.47-3.07-14.95-3.4-9.65-17.21-8.16-26.23-3.32-2.36-11.55-21.65-6.11-27.16,3.38-5.18-4.38-13.2-.12-15.39,5.73-7.41-5.27-22.06.65-26.04,8.71-8.61-5.19-19.42-.48-21.73,7.65-6.5-4.92-15.18.2-17.15,7.42-1.09-.79-2.36-1.38-3.74-1.67,3.91,4.21-2.31,6-7.97,6.8,2.28,2.06,3.4,4.63,1.55,7.46-1.5,2.25-5.38,3-8.75,3.33,3.72,4.09,2.46,8.8-3.48,10.72,3.45,3.5.76,6.46-3.58,9.63-.06.75-.11,1.51-.06,2.25.39,5.79,4.78,8.99,10.44,9.67-5.39,6.5,1.87,20.14,14.74,17.22-.37,3.9,1.75,7.43,6.81,8.88,4.96,1.42,9.62-2.07,12.97-5.34,2.31,5.44,11.4,3.69,17.62.25-.05,3.54,1.43,7.13,6.71,7.08,5.2-.02,9.95-2.42,13.43-5.63.71,2.94,3.02,5.11,7.92,4.75,5.4-.38,9.75-3.92,11.98-7.97,4.82,5.09,15,.96,18.58-5.29,5.96,3.94,15.66.5,15.88-5.13,7.92,2,14.24-5.82,10.97-11.86,6.99-.42,7.39-7.91,2.74-12.7,8.41-2.42,14.68-10.86,9.07-15.72,9.14-2.13,13.93-9.92,4.47-14.1Z"/>
          <path class="cls-33" d="m343.35,238.19c6.93-4.9,7.19-13.83-1.47-16.18,6.04-5.33,8.57-15.43-2.84-14.03-3.18-9.01-16.12-7.59-24.55-3.09-2.24-10.84-20.31-5.71-25.46,3.17-4.86-4.11-12.37-.12-14.39,5.38-6.96-4.96-20.67.59-24.39,8.16-8.07-4.84-18.16-.44-20.37,7.15-6.06-4.58-14.18.21-16.07,6.96-1.01-.75-2.21-1.29-3.48-1.54,3.69,3.92-2.19,5.58-7.47,6.34,2.14,1.94,3.2,4.33,1.45,7-1.4,2.11-5.03,2.79-8.2,3.13,3.48,3.84,2.29,8.22-3.25,10.01,3.23,3.3.68,6.06-3.35,9.05-.07.69-.1,1.4-.07,2.09.36,5.42,4.5,8.42,9.77,9.07-5,6.11,1.78,18.87,13.84,16.12-.36,3.65,1.63,6.97,6.37,8.32,4.62,1.31,8.99-1.92,12.11-4.98,2.21,5.09,10.72,3.44,16.53.21-.05,3.34,1.32,6.67,6.27,6.67,4.87-.04,9.31-2.27,12.56-5.29.67,2.75,2.87,4.79,7.41,4.46,5.08-.34,9.17-3.67,11.25-7.47,4.52,4.75,14.06.92,17.39-4.96,5.61,3.69,14.67.48,14.9-4.79,7.39,1.88,13.33-5.44,10.26-11.11,6.52-.37,6.91-7.38,2.53-11.9,7.87-2.25,13.76-10.15,8.53-14.68,8.53-2.02,13.02-9.3,4.19-13.24Z"/>
          <path class="cls-2" d="m276.66,214.24c4.59-3.25,4.78-9.17-.96-10.76,3.99-3.54,5.69-10.26-1.91-9.3-2.12-6.01-10.71-5.09-16.32-2.09-1.47-7.17-13.48-3.79-16.93,2.13-3.23-2.73-8.23-.08-9.55,3.54-4.62-3.27-13.74.42-16.22,5.42-5.35-3.21-12.06-.29-13.5,4.77-4.06-3.07-9.48.15-10.72,4.61-.68-.45-1.45-.83-2.29-1.02,2.41,2.61-1.48,3.73-4.98,4.23,1.43,1.3,2.11,2.88.97,4.65-.94,1.4-3.35,1.88-5.48,2.09,2.33,2.54,1.54,5.44-2.16,6.65,2.16,2.19.48,4.04-2.21,6-.05.46-.07.94-.05,1.38.25,3.63,2.99,5.58,6.5,6.04-3.35,4.04,1.19,12.55,9.19,10.72-.22,2.42,1.07,4.63,4.23,5.52,3.08.86,5.97-1.27,8.05-3.32,1.48,3.38,7.14,2.29,10.97.15,0,2.23.89,4.44,4.2,4.42,3.24-.02,6.19-1.52,8.35-3.52.46,1.84,1.87,3.19,4.95,2.98,3.35-.23,6.06-2.44,7.44-4.96,2.99,3.15,9.34.61,11.55-3.32,3.73,2.46,9.77.33,9.92-3.17,4.89,1.25,8.86-3.63,6.81-7.39,4.33-.25,4.6-4.92,1.7-7.92,5.23-1.5,9.14-6.76,5.66-9.76,5.65-1.34,8.66-6.17,2.78-8.8Z"/>
          <path class="cls-12" d="m348.05,184.13c6.25-3.67,5.03-10.72-1.9-13.34,3.84-2.46,5.69-5.34,3.17-9.92-1.57-2.84-4.74-3.84-8.1-3.88,4.42-7.07-3.14-14.26-12.99-14.2,3.12-5.47-4.57-11.3-13.03-9.99,1.55-3.17,1.96-6.67-1.75-8.94-4.09-2.52-8.83-2.4-13.18-1.03,1.28-3.04.99-6-3.38-8.34-4-2.17-9.36-.88-13.35,1.3-.22-5.84-2.84-14.08-10.05-13.7-8.15.41-9.97,6.35-7.75,11.32-3.92.92-7.45,5.15-9.61,9.22-4.27-2.52-14.27,0-19.4,4-5.05-12.09-30.71-2.44-25.82,7.05-3.78.63-7.56,2.96-9.61,5.59-3.69,4.71-.58,9.63,4.43,12.42-4.43,3.21-5.48,10.97-1.04,15.39-7.18,1.36-11.87,6.78-6.35,13.26,6.61,7.72,18.89,10.49,30.14,8.88-.03.46,0,.96.1,1.44-9.29,2.81-5.38,10.8,2.46,12.32-1.9,2.25-2.53,5.09-1.37,8.13,1.8,4.69,9.14,5.32,15.39,5.07-4.91,6.65,10.02,13.74,20.63,10.53.53,8.32,20.69,11.76,25.7,4.61,6.1,5.71,17.34,3.4,19.55-3.48,6.91,4.25,18.43,0,18.68-7.01,4.98,1.48,11.35.38,15.54-2.13,5.44-3.29,2.47-8.13-2.07-10.8,5.35-2.81,6.88-8.7,2.53-11.93,2.84-.98,5-2.54,5.89-5.46.87-2.75-.86-4.96-3.45-6.38Z"/>
          <path class="cls-14" d="m340.36,177.52c5.74-3.52,4.62-10.32-1.78-12.82,3.53-2.36,5.25-5.11,2.92-9.51-1.45-2.73-4.37-3.69-7.46-3.71,4.09-6.79-2.89-13.7-11.96-13.63,2.87-5.26-4.19-10.84-11.98-9.59,1.45-3.02,1.81-6.42-1.59-8.59-3.76-2.4-8.12-2.29-12.13-.96,1.17-2.92.91-5.78-3.13-8.03-3.65-2.05-8.58-.86-12.28,1.27-.21-5.63-2.62-13.51-9.24-13.17-7.54.41-9.19,6.13-7.14,10.88-3.6.87-6.88,4.94-8.86,8.84-3.91-2.42-13.13,0-17.87,3.84-4.62-11.59-28.23-2.34-23.76,6.76-3.48.6-6.96,2.86-8.84,5.38-3.36,4.53-.52,9.22,4.1,11.91-4.1,3.11-5.06,10.53-.94,14.78-6.66,1.3-10.97,6.51-5.86,12.7,6.06,7.4,17.39,10.07,27.72,8.53-.02.46,0,.92.12,1.4-8.58,2.69-4.98,10.36,2.26,11.82-1.78,2.17-2.36,4.88-1.27,7.8,1.65,4.5,8.37,5.08,14.13,4.85-4.46,6.4,9.24,13.2,19.01,10.11.48,7.97,19.04,11.28,23.66,4.42,5.59,5.48,15.95,3.25,17.98-3.33,6.37,4.08,17-.05,17.2-6.74,4.6,1.44,10.47.36,14.3-2.07,5.03-3.13,2.28-7.77-1.9-10.34,4.96-2.71,6.32-8.34,2.33-11.45,2.65-.94,4.6-2.42,5.43-5.23.77-2.65-.78-4.75-3.17-6.11Z"/>
          <path class="cls-5" d="m268.78,204.36c2.92-1.8,2.33-5.21-.9-6.51,1.78-1.17,2.65-2.59,1.48-4.79-.75-1.4-2.21-1.88-3.79-1.88,2.06-3.46-1.47-6.96-6.04-6.92,1.42-2.67-2.14-5.5-6.1-4.88.73-1.52.92-3.23-.81-4.34-1.91-1.21-4.11-1.17-6.17-.5.61-1.46.48-2.92-1.58-4.04-1.85-1.05-4.34-.44-6.22.62-.1-2.84-1.32-6.84-4.69-6.67-3.8.21-4.65,3.09-3.6,5.5-1.83.46-3.48,2.5-4.5,4.5-1.97-1.25-6.64,0-9.05,1.94-2.35-5.88-14.29-1.19-12.01,3.44-1.78.29-3.56,1.42-4.52,2.71-1.7,2.29-.26,4.67,2.07,6.02-2.07,1.57-2.56,5.36-.47,7.49-3.35.67-5.56,3.3-2.98,6.44,3.08,3.75,8.84,5.11,14.07,4.34,0,.23,0,.46.05.69-4.35,1.38-2.51,5.25,1.14,6.01-.89,1.08-1.17,2.46-.63,3.96.83,2.25,4.26,2.59,7.18,2.46-2.29,3.23,4.67,6.67,9.62,5.11.25,4.07,9.67,5.74,12.01,2.25,2.82,2.77,8.07,1.65,9.09-1.69,3.24,2.08,8.61-.02,8.73-3.42,2.33.73,5.28.17,7.23-1.04,2.57-1.59,1.17-3.94-.96-5.25,2.51-1.36,3.22-4.21,1.19-5.8,1.34-.46,2.33-1.21,2.76-2.65.39-1.36-.4-2.42-1.61-3.11Z"/>
          <path class="cls-17" d="m268.73,226.33c2.94-1.03,4.94-3.38,4.23-6.57-.99-4.25-4.23-7.53-8.61-9.61,4.67-3.04,1.32-10.34-4.74-13.3,5.96-4.56-2.7-13.09-11.58-12.84-1.38-5.55-4.64-9.97-11.71-11.68-6.98-1.64-8.95,3.71-10.3,8.17-3.33-1.38-7.55.83-9.81,3.92-.71-2.71-3.12-4.76-7.2-5.74-4.21-1.02-7.18,1.25-9.04,4.11-1.73-5.26-5.94-9.82-13.53-7.38-5.1,1.64-5.46,6.71-3.76,10.94-1.92-.36-3.96-.23-5.91.81-3.14,1.63-2.61,4.56-.97,7.3-2.73-.61-5.5-.54-7.3,1.13-3.03,2.79-1.91,5.96.47,8.59-1.06.46-1.88,1.4-2.25,2.88-.41,1.71.78,3.29,2.48,4.63-1.27.25-2.36.79-2.84,1.88-1.09,2.42-.12,4.13,1.63,5.35-3.08,1.32-4.72,4.13-2.72,7.61,1.55,2.67,5.23,4.44,9.02,4.92-2.45,2.59-3.11,5.84-.46,9.3,3.84,5.08,11.09,5.08,16.37,2.42-.27,3.13.58,6.25,4.17,7.88,4.97,2.23,10.53,1.25,14.49-1.67,3.12,6.26,9.85,11.11,18.83,8.42,4.83-1.46,6.56-5.97,6.17-10.21,2.43,1.06,5.25,1.17,8.2-.27,2.52-1.23,3.25-3.86,3.23-6.61,4.98,4.13,12.16,6.7,15.1,2.55,2.62,1.75,7.05,1.13,10.51-1.13,8.05-5.17,3.13-11.3-2.17-15.8Z"/>
        </g>
        <g>
          <path class="cls-26" d="m329.83,167.24c-1.78-5.54-8.68-8.05-15.05-8.72-2.14-.25-4.55-.04-6.93.54-.16-1.06-.41-2.13-.77-3.17,2.52-1.27,4.22-3.42,4.37-6.63.4-7.55-7.27-11.05-15.34-12.17.97-1.19,1.58-2.57,1.63-4.13.17-5.08-6.57-8.92-12.26-8.63-.72.06-1.4.12-2.09.25-.05-2.69-.78-5.3-2.29-7.3-1.8-2.46-5.71-3.58-8.86-2.09-4.04,1.92-6.3,5.25-7.07,8.97-.12.63-.3,1.34-.45,2.09-2.82-2.36-6.32-3.96-10.54-4.38-4.7-.46-9.34,1.73-12.77,4.08-3.12,2.11-5.81,5.88-5.4,9.3.46,3.79,3.04,6.54,6.88,7.76-2.41,2.17-4.19,4.86-5.15,7.54-2.04,5.67,2,13.45,9.49,14.74,5.23.9,9.6-1.07,13.13-4.17.03.15.03.29.08.44.46,2.46,2.01,4.88,4.3,6.59-.48.67-.92,1.42-1.22,2.21-1.94,4.92,2.05,9.51,6.95,11.93,1.62.79,3.7,1.31,5.91,1.52.43,3.58,2.43,7.07,6.04,9.63,4.09,2.9,9.77,4.9,15.19,3.46.93-.23,1.8-.56,2.63-.89,5.31,4.75,13.73,6.67,21.2,1.92,7.75-4.92,5.44-13.51.05-19.44,5.15-2.08,9.97-6.08,8.33-11.26Z"/>
          <path class="cls-26" d="m232.26,139.39c-1.01-1.88-3.29-2.92-5.53-3.61-3.89-1.19-9.22.06-11.86,2.65-1.42,1.4-2.41,2.77-2.43,4.67-.08,2.25,1.44,4.9,4.01,5.92,3.04,1.23,5.66,1.54,9.02,1,3.02-.46,5.76-2.34,7.2-4.42,1.32-1.92,1.17-4.46-.41-6.22Z"/>
          <path class="cls-26" d="m228.44,154.4c-.21-.13-.43-.25-.7-.34-2.94-.96-6.74.04-9.39,1.21-3.55,1.61-4.97,5.26-3.33,8.24,1.94,3.36,7.6,2.79,10.44.86,1.24-.84,2.17-2.05,3.09-3.11.39-.44.71-.86,1.09-1.28,0,.04.32-.33.37-.37.51-.53.79-.92,1.04-1.55.82-1.88-.73-3.29-2.63-3.67Z"/>
          <path class="cls-26" d="m223.82,119.54c-2.29-.14-3.66,1.75-3.28,3.4.51,2.5,2.58,4.56,5.13,5.92.32.19.66.27.99.31.22.04.45.06.68.08,2.02.02,3.19-1.23,3.45-2.73.58-3.46-2.87-6.67-6.98-6.99Z"/>
        </g>
        <g>
          <path class="cls-24" d="m289.84,146.31c3.58-1.79,5.97-4.5,5.08-8.05-1.12-4.4-8.95-2.71-12.23-1.56-1.5.52-2.99,1.27-4.35,2.15.16-.88.19-1.8.21-2.63.03-1.86.08-4.82-1.89-6.13-3.83-2.54-6.82.58-8.22,3.36-.76,1.57-.76,3.19-.56,4.81-6.98-.29-16.85,4.53-19.19,8.09-2.46,3.75,1.24,6.96,5.64,7.42,2.84.27,6.01-.61,8.78-1.8-.36,1.42-.51,2.88-.43,4.27.15,3.42,2.31,8.36,7.17,8.72,5.18.4,7.76-3.15,9.05-7.23,7.17,3.98,17.55,5.63,21.12-1.57,2.36-4.73-3.74-8.32-10.18-9.86Z"/>
          <path class="cls-24" d="m285.24,168.49c-1.19-1.79-3.65-1.67-5.04-.5-3.33,1.42-4.71,5.13-5.1,7.99-.41,3.09,2.12,7.32,6.55,6.63,3.53-.52,4.04-4.48,4.37-6.78.32-2.38.66-5.17-.77-7.34Z"/>
          <path class="cls-24" d="m302.26,164.16c-2.57-.92-7.29-2.71-9.92-1.38-.75.38-1.2.92-1.38,1.55-.99.54-1.6,1.65-1.02,2.69,2.16,3.88,13.95,10.26,17.19,4.11,1.73-3.3-1.44-5.71-4.87-6.96Z"/>
          <path class="cls-24" d="m305.61,181.71c-1.48-2-4.88-5.04-8.02-3.33-.08.02-.1.06-.16.08-1.39-.37-3.12.02-3.39,1.42-1.14,5.38,3.48,10.57,10.12,11.09,1.48.09,3.02-.9,3.35-2.04.71-2.52-.34-5.05-1.9-7.22Z"/>
        </g>
        <g>
          <path class="cls-20" d="m273.23,135.78c-1.47-3.07-4.31-5.27-8.32-5.73-4.98-.55-7.13,3.52-5.56,6.79,1.7,3.5,6.46,5.63,10.11,7.57.56.32,1.14.44,1.7.44,1.04.42,2.41.13,3.04-.73,1.73-2.36.12-6.02-.97-8.34Z"/>
          <path class="cls-20" d="m272.53,148.69c.05-3.11-5.13-2.79-7.54-2.42-3.3.5-6.25,1.94-7.46,4.67-1.7,3.79,2.89,7.05,7.29,5.46,2.77-1.02,5.71-3.54,6.57-5.92.05-.1.1-.21.1-.31.61-.34,1.04-.8,1.04-1.48Z"/>
          <path class="cls-20" d="m284.31,148.69c.56-.18,1.09-.39,1.62-.62,2.74-1.15,5.69-3.11,5.92-5.86.15-1.5-1.07-3.21-2.99-3.54-1.91-.31-3.69.04-5.46.65-3.43,1.15-5.56,3.87-6.98,6.52-.12.27-.15.53-.15.77-.19.29-.31.62-.38,1.02-.15,1.04.66,1.86,1.68,2.32-.43.33-.78.75-.97,1.33-.07.21-.12.42-.12.63-.53,0-1.04.13-1.48.34-.3.04-.61.12-.88.27-4.62,2.82-4.59,9.11-.66,12.42,1.63,1.36,4.41,1.07,5.61-.56,1.22-1.67,1.34-3.96,1.49-5.84.05-.77.05-1.65-.05-2.5,1.04.37,2.11.68,2.99.89,3.74.86,8.94.77,10.23-2.94,1.37-4-4.35-5.55-9.41-5.3Z"/>
          <path class="cls-20" d="m258.37,140.22c-2.14-3.11-7.77-7.7-12.22-4.67-2.87,1.98-1.8,5.63,1.09,7.09,1.22.63,2.67.81,4.04,1,.72.09,1.38.19,2.06.34.08.02.94.33.32.08.56.23,1.04.35,1.68.33,1.68,0,2.69-.96,2.79-2.19.51-.58.66-1.36.24-1.98Z"/>
          <path class="cls-20" d="m289.84,127.38c-.25-2.25-2.58-3.42-5.15-2.54-3.09,1.08-4.48,3.81-5.33,6.46-.1.08-.17.17-.25.29-.63.67-.7,1.42-.39,2.09-.22,1.86,2.69,3.17,4.14,1.73.17-.06.36-.1.56-.18,3.13-1.5,6.78-4.55,6.42-7.84Z"/>
        </g>
        <g>
          <path class="cls-26" d="m173.25,167.47c6.27-2.48,10.07-9.69,6.42-15.01-1.22-1.79-3.14-3-5.4-3.75.1-.5.15-.96.17-1.36.15-2.79-1.5-5.71-4.37-7.26-4.16-2.29-9.05-2.44-13.06.15-2.65,1.73-3.69,4.52-3.25,7.15-2.74-1-6.45-1-9.09-1.04-5.55-.15-11.58.54-15.98,3.54-3.99,2.69-3.25,7.84.32,10.47.66.5,1.45.92,2.31,1.29-5.08-.71-9.82-1.6-15-.87-5.79.79-9.07,4.96-8.99,9.59.06,3.29,2.69,5.8,6.1,7.09-3.45,1.25-6.55,3.84-8.51,5.92-2.73,2.92-3.96,7.76-.78,10.76,1.34,1.29,3.28,2.08,5.38,2.46-8.3,3.04-15.59,11.97-8.98,18.3,2,1.94,5.02,2.84,8.2,2.9-6.83,3.19-11.35,11.65-5.89,16.82,2.48,2.36,6.64,3.36,10.63,3.04-11.5,13.05,10.41,32.58,28.03,22.85,10.94-6.06,9.49-19.22.58-24.31,3.19-2.29,4.28-6.38,2.38-10.17-.51-1.08-1.24-2-2.14-2.81,6.17-.86,10.79-5.03,10.87-11.09,0-1.44-.3-2.9-.81-4.27,9.54,1.75,16.29-5.8,16.25-13.47,0-2.86-1.32-5.51-3.4-7.72,8.73,1.38,14.7-4.31,13.13-11.71-.61-2.9-2.52-5.51-5.1-7.49Z"/>
          <path class="cls-26" d="m196.66,139.89c-2.98-3.84-10.42-3.58-15.14-1.29-.53.12-1.09.29-1.63.5-1.93.71-3.6,2.32-3.97,4.04-.48,2.13.42,4.09,2.63,5.34,1.68,1,4.74,1.46,6.91.75,2.97.46,6.15.62,8.66-.92,2.97-1.8,4.67-5.67,2.55-8.43Z"/>
          <path class="cls-26" d="m162.28,232.85c-3.02-.69-7.75-.31-10.16,1.69-.12.05-.25.13-.37.19-.87.48-1.53,1.4-1.48,2.25.39,5.65,15.31,10.11,17.9,3.52,1.37-3.52-1.92-6.76-5.89-7.65Z"/>
          <path class="cls-26" d="m172.64,252.56c-4.14-1.46-9.04-2.06-13.51-1.3-1.39-.33-3.02,0-3.65.98-1.68.86-1.17,2.69.26,3.54,1.56,4.4,6.06,8.03,10.85,10.19,4.78,2.17,13.03,2.59,14.75-2.75,1.58-4.86-3.91-8.97-8.71-10.67Z"/>
          <path class="cls-26" d="m147.91,260.23c-1.88-.13-2.94.92-3.16,2.11-1.47,2.34-1.42,5.52-1.29,7.99.12,3.17,1.38,7.69,6.15,7.8,10,.22,6.73-17.29-1.7-17.89Z"/>
        </g>
        <g>
          <path class="cls-24" d="m166.27,164.87c-2.16-1.77-5.54-2.59-9.12-2.59.05-2.11-1.04-4.38-2.69-5.67-3.85-3-9.54-2.5-13.88-.63-3.48,1.48-5.38,4.9-4.47,7.88-7-.55-16.95,3.54-18.75,8.05-1.73,4.34.71,8.11,5.5,9.72-3.37.42-6.49,1.33-9.41,3.17-3.4,2.13-5.81,6.8-3.19,9.99,2.51,3.02,8.07,4.02,13.14,3.4-2.87,1.04-5.3,3.23-6.79,5.27-2.33,3.17-2.45,7.3.27,10.26,1.17,1.3,2.99,1.88,5.01,1.98-2.65,2.4-3.71,6.29-3.76,9.24-.05,4.31,4.62,9.07,10.33,7.4,4.98-1.46,5.81-6.21,5.61-9.99-.05-1.23-.29-2.65-.71-4.06,2.36,0,4.65-.75,6.4-2.34,2.94-2.67,3.6-6.55,3.12-10.01-.2-1.44-.76-2.92-1.55-4.23,2.82.66,5.76.94,8.56.43,5.36-.98,7.51-6.42,5.23-10.18-.63-1-1.56-1.75-2.71-2.31,1.37-.36,2.63-.86,3.73-1.65,3.35-2.44,3.76-6.51,1.38-9.42,3.09-.46,6.04-1.52,8.42-3.36,3.5-2.69,3.71-7.59.36-10.36Z"/>
          <path class="cls-24" d="m113.75,225.85c-5.13-2.57-11.4,1.44-12.69,5.63-.39,1.3-.29,2.36.32,3.59.66,1.31,2.5,2.02,4.06,2.08,1.38.07,2.79-.43,3.89-1.06,1.73-1,3.53-2.42,3.99-4.17.17-.71-.05-1.42-.51-1.96.08,0,.12-.04.2-.04,2.47-.32,2.65-3.13.75-4.06Z"/>
          <path class="cls-24" d="m122.82,239.8c-4.92-.55-8.66,4.67-10.07,7.86-1.53,3.4-.26,9.57,5.25,9.82,4.4.21,5.81-3.96,6.4-6.71.46-2.19,1.27-5.29.26-7.59,1.57-1.3.03-3.17-1.84-3.38Z"/>
          <path class="cls-24" d="m144.05,238.59c-3.33-1.54-9.26-3.88-12.69-1.5-.76.54-.98,1.46-.73,2.25-.05,3.42,3.04,7.34,5.61,9.67,3.9,3.57,10.05,3.17,13.04-1.04,2.74-3.92-1.32-7.51-5.23-9.38Z"/>
          <path class="cls-24" d="m151.97,221.6c-1.32-2.07-4.42-4.4-7.44-3.67-.48.11-.88.31-1.27.57-2.26,1.08-2.01,4.02-1.07,5.92,1.07,2.17,4.62,4.38,7.59,3.52,3.5-1.02,3.71-3.96,2.19-6.33Z"/>
          <path class="cls-24" d="m167.46,143.27c-1.07-1.25-3.11-2.05-4.88-1.13-5.96,3.09-8.78,10.59-3.29,15.05.91.71,2.1.75,3.09.42,1.04.17,2.19-.12,2.99-1.1,2.97-3.52,5.37-9.32,2.09-13.24Z"/>
          <path class="cls-24" d="m181.7,159.36c-4.1-.34-9.09,1.42-11.64,4-1.06,1.12-.71,2.56.39,3.25,1.27,2.73,5.84,3.42,9.02,3.75,3.83.42,8.2-.23,9.51-3.63,1.58-3.96-3.07-7.05-7.28-7.38Z"/>
        </g>
        <g>
          <path class="cls-20" d="m166.51,168.33c-1.95-4.51-8.05-3.67-12.31-2.25-1.02.36-2.24.86-3.45,1.5-.17-2.04-.89-4.07-1.63-5.75-1.53-3.54-4.55-7.17-9.68-6.46-5.58.79-8.47,6.71-6.37,10.63.97,1.79,2.65,3.25,4.47,4.48-2.04.12-3.99.48-5.35.85-5.1,1.34-11.38,3.79-13.15,8.3-1.99,5.02,5.13,7.93,10.05,7.09,3.23-.54,6.3-2.09,8.97-4,.73,1.21,1.65,2.32,2.36,3.13,2.72,3.09,6.73,6.48,11.75,5.25,6.58-1.63,5.15-7.55,1.55-11.97,1.85-.21,3.63-.5,5.23-.92,4.98-1.33,9.55-5.27,7.56-9.88Z"/>
          <path class="cls-20" d="m135.65,190.07c-4.98-.33-10.62,3.69-14.24,6.03-4.01,2.61-9.63,6.92-6.98,11.53,3.24,5.62,11.19,1.44,14.35-1.63,3.07-3.02,8.44-8.82,7.66-13.07.15-.11.31-.19.43-.3,1.34-.87.2-2.46-1.22-2.57Z"/>
          <path class="cls-20" d="m128.46,166.91c-2.94-7.09-18.53-10.18-22.79-2.29-1.02,1.9-.19,3.54,2.12,4.36,4.5,1.61,12.62,2.38,17.06.36.15-.09.27-.17.43-.25,1.68.48,3.9-.42,3.17-2.17Z"/>
          <path class="cls-20" d="m116.25,189.22c.68-1.13-.66-2.88-2.29-2.34-.22.04-.83.12-.51.17-.83-.09-1.78.27-2.53.52-1.5.52-2.92,1.15-4.3,1.86-2.29,1.17-5.94,2.92-6.45,5.31-.83,3.9,4.86,5.5,8.48,4.02,3.53-1.4,5.53-4.81,7.39-7.51.47-.68.47-1.42.2-2.04Z"/>
        </g>
        <g>
          <path class="cls-30" d="m315.94,254.27c6.57-2.59,11.31-9.3,5.76-14.22-3.48-3.09-8.72-2.84-13.23-1.86-.67.14-1.38.33-2.06.56-1.22-1.25-2.89-2.21-5.13-2.61-4.45-.81-8.86,1-11.26,4.07-.36.5-.65,1-.87,1.5-.76-.19-1.58-.3-2.38-.3-5.99-.12-10.31,5.19-10.06,9.67-.52-.41-1.08-.79-1.69-1.12-4.37-2.5-11.4-2.71-14.66,1.17-1.19,1.37-1.75,2.98-1.92,4.62-4.14-2.05-10.11-1.29-13.56,1.27-2.26,1.69-3.14,4.19-3.24,6.72-.87-.4-1.78-.75-2.75-1.03-3.15-.91-7.59-.83-9.92,1.4-.29.28-.51.53-.75.82-1.39-.46-3.04-.63-4.48-.5-3.81.31-7.36,2.38-8.72,5.38-1.17,2.59.92,5.13,3.61,6.32-5.56,3.86-7.97,11.49-1.33,15.35,3.56,2.06,7.85.77,10.72-1.52.1-.09.2-.17.31-.25,3.8,5.86,15.98,8.8,20.31,1.9.32-.53.56-1.07.73-1.65,1.07.75,2.23,1.37,3.58,1.79,4.37,1.34,10.31-.37,12.79-3.71,1.58,2.83,4.32,5.29,7.53,7,5.3,2.88,11.87,2.17,16.19-1.52,2.02-1.73,3.37-4.11,3.75-6.51.48.15.99.31,1.53.4,5.38,1.11,10.53-1.82,11.72-6.13.68-2.5.08-5.21-1.07-7.72.68.42,1.43.8,2.24,1.09,4.62,1.71,9.26,1,13.2-1.48,8.66-5.36,3.96-16.28-4.89-18.91Z"/>
          <path class="cls-30" d="m339.65,221.89c-10.74-2.4-16.1,8.57-12.59,15.45.78,1.5,2.82,1.57,4.21.86.15-.02.29,0,.41-.02,4.55-.42,9.75-2.13,12.43-5.3,3.18-3.73,1.17-9.74-4.46-10.99Z"/>
          <path class="cls-30" d="m338.54,246.07c-3.69-.29-7.61,1.32-10.64,2.86-2.58,1.3-1.54,4.92,1.09,5.05.36.37.77.7,1.22,1,1.65,1.08,3.35,1.84,5.37,2.36,3.88.98,8.78.18,9.92-3.46,1.27-3.98-2.26-7.42-6.96-7.8Z"/>
        </g>
        <g>
          <path class="cls-15" d="m281.62,261.96c.15-.19.34-.35.51-.5,2.77-3.07,3.19-7.92-.39-10.65-4.14-3.17-12.33-2.25-15.69,1.3-1.85,1.9-2.53,4.17-2.94,6.56-.05.27-.12.57-.15.86-2.21-1.42-5.31-2.13-8.46-1.92-6.52.46-10.46,3.96-12.26,8.97-.11.27-.19.58-.26.87-4.72-6.29-22.21.98-17.51,9.05,1.97,3.38,7.15,3.46,11.02,2.9,1.02-.15,2.41-.48,3.77-.98-.27.29-.52.58-.78.87-1.27,1.63-1.39,3.79-.88,5.63,1.24,4.34,7.79,5.92,12.08,3.52,2.1-1.17,3.32-2.9,3.85-4.81,2.41,1.4,5.23,2.34,8.15,2.67,1.23.13,2.47.13,3.66,0,2.63,4.94,8.45,9.09,14.59,7.51,8-2.05,7.87-8.99,4.37-14.31,4.62.46,9.8-.21,12.82-3,8.07-7.45-5.08-14.3-15.51-14.53Z"/>
          <path class="cls-15" d="m302.11,235.69c-4.17-3.27-9.12-.31-11.84,2.61-2.19,2.29-4.79,6.63-4.06,9.76-.31,1.09.05,2.34,1.39,2.84,5.06,2,12.01-1.48,14.56-5.17,2.05-2.92,3.29-7.43-.05-10.03Z"/>
          <path class="cls-15" d="m306.9,253.18c-3.6-2.13-11.84-1.46-14.27,1.71-.38.15-.73.34-1.04.59-3.99,3.23,2.06,6.52,5.42,7.25,3.4.76,8.07.84,10.8-1.29,3.05-2.36,2.37-6.3-.91-8.26Z"/>
          <path class="cls-15" d="m305.25,268.32c-1.32.94-.83,2.57.39,3.32.68,8.82,20.84,11.05,20.45.86-.3-7.51-15.56-7.88-20.84-4.17Z"/>
        </g>
        <g>
          <path class="cls-20" d="m214.44,263.71c-3.58-.86-8.47-.82-12,.23-4.55,1.33-11.05,6.19-5.61,10.03,5.06,3.54,14.27,1.69,18.7-2.06.77.15,1.58,0,2.21-.41,4.16-2.86.89-6.76-3.3-7.78Z"/>
          <path class="cls-20" d="m221.3,278.41c-2.82-2.88-8.81.25-11.19,1.92-2.84,1.96-5.3,6.55-1.99,9.07,3.13,2.4,6.91.59,9.24-1.61,1.68-1.58,3.91-4,3.66-6.27.07-.06.17-.13.22-.17,1.02-.9.94-2.02.05-2.94Z"/>
          <path class="cls-20" d="m290.45,272.7c-.66-4.38-7.84-6.15-12.16-6.63-2.21-.21-4.5-.09-6.72.33,2.43-4.08,1.34-10.09-3.94-11.82-4.2-1.4-8.38,1.73-9.57,4.81-.15.32-.22.71-.3,1.13-3.51-3.19-9.77-5.25-13.83-4.58-4.5.73-5.56,5.42-3.2,8.17.66.8,1.53,1.48,2.48,2.09-1.22.17-2.36.38-3.29.59-4.4,1-10.99,3.38-12.49,7.29-1.45,3.73,2.58,5.67,6.4,6.13,2.38.3,5.03.02,7.41-.66-1.07,1.75-1.82,3.69-2.18,5.6-.78,3.9.92,9.61,6.81,9.95,5.18.25,8.3-4.13,9.95-8.8.1.08.17.15.28.23,3.5,2.69,9.54,2.15,12.16-1.19.96-1.21,1.44-2.71,1.58-4.33-.06-.09-.11-.15-.14-.21,8.66,2.79,22.07.37,20.77-8.09Z"/>
          <path class="cls-20" d="m285.58,239.59c-4.79-1.48-8.2,3.71-8.78,6.71-.82,3.75-.92,9.51,2.97,12.2,2.33,1.6,5.66-.09,4.87-2.36,2.38-1.65,3.33-5.36,3.96-7.45.94-3.23,1.63-7.65-3.02-9.11Z"/>
          <path class="cls-20" d="m298.47,253.39c-4.31.77-9.03,3.46-10.97,6.76-.3.52-.32,1.08-.15,1.6,0,.69.27,1.36.97,1.84,3.14,2.23,7.49,1.73,11.26,1.07,3.96-.71,8.02-2.5,8.58-6.09.68-4.36-5.76-5.9-9.7-5.17Z"/>
          <path class="cls-20" d="m310.87,280.24c-2.77-2.46-6.98-4.25-10.87-5.23-3.3-.81-5.2,2.65-3.04,4.4-.03.19-.03.38.02.58.45,2.61,2.78,4.88,4.79,6.8,2.16,2.09,5.94,4.79,9.41,2.96,4.4-2.25,2.5-6.97-.32-9.51Z"/>
          <path class="cls-20" d="m284.59,293.21c-1.12-2.54-3.09-5.25-5.96-6.71-2.43-1.25-5.08.79-4.7,2.69-.16.15-.31.27-.46.44-1.5,1.8-.63,4.5.25,6.38,1.19,2.63,3.45,5.34,7.39,4.58,4.06-.79,4.67-4.67,3.48-7.38Z"/>
        </g>
        <g>
          <path class="cls-26" d="m242.93,214.19c1.19-.66,2.26-1.5,3.07-2.59,3.53-4.75-1.65-9.84-6.4-12.19-2.65-1.27-5.76-2.06-8.78-2.06.07-.69.05-1.42-.1-2.17-.63-3.63-4.65-6.19-8.92-6.5-4.14-.34-7.64,1.85-9.56,4.67-.56-7.46-6.78-14.76-16.84-13.63-8.39.96-9.51,11.32-5.74,17.74-4.84-.36-9.97,1.52-12,5.25-3.74,6.73,3.63,13.34,11.75,14.93-1.55.98-2.94,2.15-4.04,3.48-3.5,4.27-1.02,9.09,3.73,11.76,2.35,1.3,6.43,1.86,10.31,1.5-.51,3.42,1.4,7,4.88,9.01,4.67,2.67,10.66,1.92,15.46-.09,3.19-1.29,7.1-4.17,8.17-7.32.2.11.37.19.56.28,5.81,2.63,12.46,1.54,17.19-2.11,7.66-5.99,4.72-15.41-2.75-19.96Z"/>
          <path class="cls-26" d="m247.07,176.02c-5.15-.6-9.22,3.4-10.58,6.94-1.48,3.77-.51,8.26,2.68,11.22,1.17,1.08,2.6,1,3.64.42.15-.05.27-.11.42-.15,1.91-.82,4.71-1.82,6.4-3.31,2.35-1.17,4.27-2.79,5.18-4.98,2.11-4.96-1.66-9.45-7.74-10.13Z"/>
          <path class="cls-26" d="m262.58,209.28c-2.21-.76-4.79-.46-6.96.25-2.29.75-3.63,2.13-4.52,3.96-.2.38-.2.8-.07,1.21-.41.91-.24,1.92.94,2.73,4.16,2.86,14.08,5.86,16.88.19,1.78-3.54-2.79-7.11-6.27-8.34Z"/>
          <path class="cls-26" d="m266.86,233.83c-.53-3.48-4.14-5.92-8.17-6.17-.37-.1-.78-.21-1.29-.25-1.43-.16-3.2.92-3.43,2.07-.25,1.31.12,2.15.99,3.15.66.8,1.34,1.55,2.1,2.3,1.86,1.75,4.32,2.75,7.17,2.46,2.07-.21,2.84-2.11,2.63-3.54Z"/>
        </g>
        <g>
          <path class="cls-24" d="m229.68,212.46c-.97-.98-2.43-1.92-4.04-2.52,1.32-.75,2.33-1.75,2.89-3.09,2.46-5.75-4.59-8.92-12.32-9.69,4.71-3.9,7.39-8.94,2.65-12.28-5.1-3.61-11.3-1.63-15.03,2.04-2.21-2.54-6.2-4.75-9.85-2.67-2.99,1.75-3.43,4.25-2.46,6.67-3.76.38-7.65,1.67-10.33,3.44-4.62,3-3.08,8.4,2.51,9.65.89.21,1.88.3,2.92.34-1.93,3.5-2.31,9.38,2.36,11.26,2.77,1.13,5.15.27,7-1.25.05.06.09.1.09.17-1.12,3-.34,6.48,1.92,9.03,3.09,3.5,8.61,5.42,13.76,3.86,2.36-.69,4.52-2.36,5.66-4.23,4.21,2.65,10.38,3.32,13.62-.69,2.74-3.33,1.53-7.11-1.37-10.03Z"/>
          <path class="cls-24" d="m239.75,196.52c-3.38.83-7.2,3.02-7.59,5.92-.05,0-.07,0-.1.02-1.22.42-2.06,1.94-1.6,2.96,1.73,3.73,7.39,3.48,11.38,2.86,3.96-.62,8.56-2.67,8.53-6.42-.03-4.67-5.86-6.54-10.62-5.33Z"/>
          <path class="cls-24" d="m219.37,230.63c.1-1.17-1.07-2.34-2.38-2.67-4.91-1.23-7.72,3.71-8.51,6.79-.86,3.38-.92,7.97,2.89,10.15,4.52,2.61,9.19-1.23,10.11-4.75.76-2.73.58-7.24-2.11-9.53Z"/>
          <path class="cls-24" d="m195.99,227.7c.36-1.29-.71-2.75-2.26-3.17-.22-.08-.86-.29.06.04-.77-.25-1.3-.35-2.11-.46-.73-.08-1.9.19-2.67.34-1.73.29-3.53.98-5.06,1.71-3.39,1.63-6.26,4.25-5.38,7.72,1.07,4.13,6.83,5.52,11.02,3.88,3.45-1.34,5.86-4.77,6.98-7.67.41-.93.09-1.79-.58-2.38Z"/>
          <path class="cls-24" d="m178.57,212.84c-2.48-1.57-5.55-2.65-8.58-1.52-1.65.65-2.56,2.34-2.48,3.77.1,2,1.34,3.46,3.3,4.61,1.39.83,3.45,1.06,5.13,1.25,1.29.12,2.63.27,3.92-.02.11.02.24.06.36.06.97.08,2.29-.48,2.67-1.21,1.62-3.09-1.6-5.25-4.32-6.94Z"/>
          <path class="cls-24" d="m244.2,224.02c-.83-1.05-1.9-1.82-3.25-2.4-1.49-.67-3.12-1.23-4.38-.04-.85.08-1.6.54-1.83,1.25-.7,2.09,1.12,4.08,2.99,5.35,1.65,1.11,4.04,2.36,6.16,1.36,2.77-1.21,1.65-3.86.31-5.52Z"/>
        </g>
        <g>
          <path class="cls-20" d="m217.04,205.04c-1.19-1.13-2.6-2.15-4.21-2.94,2.17-1.04,4.67-2.63,4.14-4.88-.63-2.67-4.81-2.94-7.54-2.67,2.41-2.77,3.8-6-.46-7.11-5.35-1.35-9.26,2.19-11.04,6.24-.94-.21-1.85-.36-2.75-.42-3.72-.36-8.22.54-11.04,2.65-2.79,2.09-2.94,5.52.43,7.32,1.47.75,3.29,1.23,5.14,1.38-.05.1-.12.21-.15.33-.78,2.23-.63,5.03.92,7.07.71.94,1.88,1.94,3.28,2.11,1.22.17,2.1.08,3.22-.31.58-.23,1.17-.61,1.55-1.03,1.22-1.21,1.93-2.61,2.46-4.08.07-.21.12-.4.17-.6,1.09,1.6,2.69,3.04,4.06,4.02,3.08,2.25,7.19,4.04,11.28,2.67,4.79-1.59,2.99-7.36.53-9.74Z"/>
          <path class="cls-20" d="m205.95,214.9c-.92-.54-1.99-.31-2.69.25-.94-.12-1.87.15-2.41,1.02-.97,1.65-1.45,3.48-1.38,5.27.11,2.55,2.21,5.13,5.69,4.48,5.61-1.02,4.52-8.86.79-11.03Z"/>
          <path class="cls-20" d="m231.75,215.45c-.1-1-.47-1.8-1.29-2.59-.71-.63-1.75-1.05-2.75-1.3-1.8-.46-4.08-.58-5.53.5-.48.38-.73.92-.76,1.42,0,.23.05.44.15.63-.58.52-.82,1.25-.68,2.02.32,1.81,1.52,3.56,3.73,4.15,1.85.5,3.89-.15,5.25-1.17,1.14-.88,2.06-2.36,1.87-3.67Z"/>
          <path class="cls-20" d="m196.68,180.15c-1.94-1.94-5.1-3.4-7.39-.86-1.35,1.46-.21,4,.51,5.5.66,1.34,1.39,2.5,2.66,3.42.33,1.88,3.84,2.79,5,.83,1.6-2.71,1.6-6.52-.78-8.9Z"/>
        </g>
        <g>
          <path class="cls-30" d="m215.03,92.37c4.01-2.19,6.37-5.35,4.2-9.23-2.74-4.82-10.74-5.7-15.97-3.71-3.18,1.19-6.12,3-8.48,5.21-.37-2.84-1.75-5.34-4.41-6.76-5.76-3.04-10.64.07-13.78,4.17-1.24,1.63-2.65,3.84-3.5,6.17-.21-.27-.41-.54-.65-.79-2.78-3-7.59-1.92-10.56.12-2.33,1.59-4.97,4.88-5.23,7.78-2.72-2.38-6.71-3.44-10.68-2.9-5.13.75-7.63,4.96-7.49,8.84.07,3.04,3.6,6.69,7.56,7.76-.92.63-1.68,1.38-2.16,2.21-.66,1.07-.97,2.21-.63,3.4.41,1.48,1.82,2.42,3.45,2.98,1.58.55,3.7.55,5.2-.04,1.19-.44,2-1.21,2.87-1.92,2.16,2.59,7,3.02,10.36,1.77,3.6-1.35,5.61-5.15,6.06-9.03,3.35,1.75,8.21,1.86,11.96-.79.97-.69,1.73-1.48,2.33-2.32.15.4.36.77.58,1.13,3.15,5.13,11.57,3.32,15.34-.25,1.63-1.57,2.51-3.48,2.84-5.5,1.44,1.42,3.27,2.56,5.2,3.32,4.23,1.62,10.28.12,11.43-3.96.98-3.38-2.6-6.07-5.85-7.65Z"/>
          <path class="cls-30" d="m128.9,105.99c-3.55.21-7.36,1.44-9.57,3.79-2.76,2.96,1.4,6.13,4.86,6.38,3.68.25,8.35-2.36,10-4.96.02-.04.05-.08.07-.12.21.04.39.08.58.08.79.08,1.6-.48,1.8-1.09,1.35-3.96-4.59-4.25-7.74-4.08Z"/>
          <path class="cls-30" d="m133.21,121.77c1.53-1.52-.37-4.02-2.92-2.98-5.45,2.17-13.88,7.09-8.5,12.55,2.46,2.5,6.69,1.05,8.66-1.02,1.85-1.94,3.48-4.48,3.6-6.99.03-.62-.34-1.17-.84-1.56Z"/>
          <path class="cls-30" d="m255.26,80.24c-1.68.27-3.4.82-5.02,1.54.96-2.11,1.03-4.29-.53-5.9-2.52-2.52-7.77-.63-10.16.9-2,1.29-3.28,3.38-3.48,5.48-.58-.42-1.22-.84-1.83-1.17-5.51-3.11-11.04-.65-13.41,3.9-4.69,9.05,9.63,12.16,17.91,10.4-4.25,5.96,2.61,16.14,10.97,10.88,3.99-2.5,4.84-6.34,3.92-10.21-.2-.83-.53-1.67-.96-2.44.98-.02,1.9-.11,2.71-.21,4.6-.56,9.45-2.98,9.75-7.11.34-4.67-5.04-6.82-9.87-6.07Z"/>
          <path class="cls-30" d="m282,78.3c-4.09.23-8.36,1.84-11.38,4.08-1.5,1.13-.46,3.09,1.12,3.54,0,0,0,.02.02.04,3.84,4.67,18.36,5.63,18.58-1.83.15-3.84-4.08-6.11-8.35-5.84Z"/>
          <path class="cls-30" d="m297.94,94.61c-3.29-1.17-7.49-2.07-11.09-1.42-1.9.33-2.33,1.73-1.8,2.88-.15,7.19,13.96,14.41,18.33,5.67,1.63-3.21-2.26-5.98-5.44-7.13Z"/>
        </g>
        <g>
          <path class="cls-15" d="m188.63,84.8c-3.89-5.4-9.77-4.46-14.22-1.16-.61-.5-1.43-.92-2.48-1.28-7.67-2.48-13.1,3.02-13.86,8.78-.56-.08-1.12-.14-1.7-.16-4.15-.17-8.94,2.19-11.38,4.81-2.62,2.86-2.04,6.94,2.05,8.61,1.81.75,4.04,1.09,6.3,1.02-.02.06-.05.1-.05.14-1.27,3.46,1.65,7.47,6.17,7.55,3.58.09,6.22-1.94,7.39-4.46,1.14.17,2.26.21,3.33.21,5.04-.16,9.61-2.34,11.6-6.21,1.24-2.46.61-5.09-1.22-6.94,1.64-.36,3.19-.79,4.48-1.23,5.42-1.75,6.35-5.83,3.59-9.67Z"/>
          <path class="cls-15" d="m213.22,80.51c-.56-3.75-6.01-5.17-9.82-4.21-3.96,1-7.92,3.96-9.07,7.29-.3.9-.02,1.59.56,2.05-.32,1.13.36,2.59,1.91,2.96,6.04,1.54,17.34-1.94,16.42-8.09Z"/>
          <path class="cls-15" d="m199.92,92.77c-1.47.44-2.53,1.48-2.14,2.84.06.15.14.27.19.42-1.27,2.71,1.82,5.84,4.21,7.55,3.2,2.31,8.38,3.17,10.99-.36,4.55-6.11-6.37-12.61-13.25-10.44Z"/>
          <path class="cls-15" d="m197.1,100.53c-.76-.88-1.7-1.55-3.02-1.8-1.44-.29-2.77-.08-4.11.46-1.24.5-1.48,1.63-1.02,2.5-.1.17-.17.29-.22.48-.53,1.9.08,4.27,1.73,5.71,1.54,1.31,4.31,1.36,5.84-.06,1.12-1.05,1.6-2.34,1.78-3.75.12-1.15-.12-2.59-.97-3.54Z"/>
          <path class="cls-15" d="m257.5,81.6c-2.09-3.92-8.32-3.54-13.57-1.96-.48-5.17-5.59-9.55-12.67-5.71-3.25,1.75-4.3,6.42-3.28,9.82-6.3,1.32-12.28,7.03-10.64,12.32,1.5,4.71,6.2,6.09,10.84,5.59,2.5,1.54,6.45,1.92,9.6,1.69,5.59-.4,9.54-2.67,11.57-7.03.73-1.56,1.07-3.29.86-4.83,5.54-1.28,10.01-4.84,7.29-9.88Z"/>
          <path class="cls-15" d="m257.35,91.52c-.1.06-.24.12-.33.21-6.32,4.88,10.49,15.51,14.65,5.96,2.58-5.96-11.15-11.78-14.32-6.17Z"/>
          <path class="cls-15" d="m252.37,61.71c-3.96.52-6.72,4.15-7.81,7-1.24,3.25.15,8.09,5.13,8.26,1.29.05,2.05-.54,2.33-1.31.35-.02.73-.11,1.12-.32,3.09-1.62,6.32-4.75,7.05-7.75.88-3.88-3.48-6.47-7.83-5.88Z"/>
        </g>
        <g>
          <path class="cls-20" d="m200.41,82.1c-3.09-4.88-9.65-5-13.96-1.29-2.18,1.85-3.94,4.29-5.2,6.86-5.3-5.21-17.62-5.11-23.89-1.07-4.36,2.84-2.51,8.55,2.33,10.09.56.16,1.12.29,1.7.41-.88,1.75-1.07,3.73-.12,5.55,1.53,2.92,6.35,3.33,9.65,3,3.8-.38,7.64-1.98,9.7-4.71,1.47-1.19,2.61-2.57,3.38-4.09,9.26-.62,21.32-7.02,16.42-14.76Z"/>
          <path class="cls-20" d="m193.63,98.44c-.78-.08-1.57.21-2.1.75-.67.46-.87,1.05-.77,1.59-.48,2.17.75,4.96,1.7,6.67,1.82,3.29,6.12,3.88,9.45,1.75,6.52-4.19-1.48-12.18-8.28-10.76Z"/>
          <path class="cls-20" d="m239.63,88.56c-3.3-4.31-10.02-6.83-16.12-6.9-5.06-.06-11.27,3.9-9.9,8.49,1.14,3.84,7.41,4.42,11.33,4.54,3.83.09,11.8-.12,13.72-3.54.02-.04.02-.08.06-.12,1.03-.42,1.66-1.42.91-2.46Z"/>
          <path class="cls-20" d="m247.83,67.71c-10.46-1.86-11.6,16.47-6.01,20.5.61.44,1.34.56,1.98.42.26.04.56.04.84-.02,4.99-.84,7.39-6.8,8.47-10.34,1.26-4.08.67-9.46-5.28-10.55Z"/>
          <path class="cls-20" d="m242.09,91.71c-1.12.62-1.39,1.52-1.14,2.27-.08.09-.15.19-.2.3-.03.04-.05.06-.08.1-.05.1-.1.21-.12.31-1.17,3.42,2.05,8.01,4.89,10.32,3.55,2.9,10.18,2.94,12.52-1.19,3.58-6.38-8.22-16.43-15.87-12.11Z"/>
          <path class="cls-20" d="m235.32,96.62c-2.67-1.44-6.51-.31-8.94,1.03-3.28,1.77-5.06,4.83-3.4,7.96,3.05,5.74,12.79-1.6,11.89-5.75,1.9-.29,1.87-2.46.46-3.23Z"/>
          <path class="cls-20" d="m235.69,68.67c-1.14-2.77-3.33-6.59-7.69-5.73-9.09,1.73-.51,14.64,4.33,16.62,1.86.77,4.12-.87,3.3-2.27.24-.09.46-.23.63-.38,2.36-2.15.41-5.86-.58-8.24Z"/>
        </g>
        <g class="cls-13">
          <path class="cls-32" d="m411.65,170.58c5.02-7.84-3.71-14.85-12.78-15.6,2.28-1.59,3.74-3.88,3.51-6.46-.41-4.17-4.57-7.68-9.07-9.32-.48-.18-.99-.35-1.5-.48,4.06-4.65-1.32-11.34-7.74-13.53,1.44-1.5,2.18-3.32,1.82-5.35-.63-3.75-6.15-5.8-10.16-6.13-2.79-.25-5.58.62-7.51,2.19-.08-.69-.2-1.36-.37-1.94-1.17-4.34-5.51-7.3-10.94-6.95-5.59.38-7.65,4.48-6.83,8.55.05.34.15.69.27,1.07-1.98-.21-4.06-.02-5.91.69-3.43,1.31-4.89,5.31-3.2,7.99,1.63,2.48,5.69,3.4,8.82,3.75,1.75.2,3.7.33,5.58.18-2.12,3.09-.1,6.78,2.5,9.38,1.9,1.9,5.15,2.73,8.37,2.86-2.63,3.09-.76,7.88,3.23,10.01-4.93.42-9.6,2.84-8.56,7.61.87,4,6.15,6.11,10.79,5.86-2.21,3.92-1.22,9.34,2.33,12.53-1.07.38-2.06.9-2.94,1.61-4.3,3.48-2.24,10.09,2.02,13.39-.43.37-.88.79-1.29,1.21-3.48,3.88-1.65,9.45,1.7,12.84,3.65,3.71,9.82,4.13,14.57,2.05,2.69,3.79,9.5,5.67,14.32,2.75,5.81-3.46,5.74-11.26,1.19-15.64,2.09-.54,3.99-1.75,5.3-3.75,2.98-4.48.7-12.59-4.67-15.97,3.05-1.21,5.71-3.15,7.14-5.38Z"/>
          <path class="cls-32" d="m351.96,91.85c-2.43-3.17-7.97-4.75-11.12-1.31-2.65,2.84.48,6.65,2.63,8.95,1.58,1.67,4.4,4.08,7.29,4.46,1.75.67,4.37-.02,4.55-2.11.22-3.32-1.24-7.19-3.35-9.99Z"/>
          <path class="cls-32" d="m376.76,99.57c-5.94-.36-10.51,5.59-9.51,10.01.22,1.02,1.27,1.38,2.22,1.25.09.05.14.09.24.13,1.17.5,2.31.35,3.35-.33,3.07-2.11,5.89-5.46,6.37-8.8.2-1.25-1.29-2.17-2.67-2.25Z"/>
          <path class="cls-32" d="m382.43,214.65c-.31-1.25-2.48-2.04-3.89-1.04-4.33,3.21-15.54,10.72-9.85,16.05,3.45,3.25,8.31.62,10.43-2.17,2.36-3.13,4.25-7.74,4.01-11.47-.05-.58-.32-1.04-.71-1.38Z"/>
          <path class="cls-32" d="m392.03,229.88c-.31-.59-.82-.92-1.43-1.09-.51-.63-1.47-.98-2.43-.46-4.6,2.46-5.01,9.67-1.17,12.76.86.69,2.48,1.04,3.55.42,4.62-2.79,3.48-7.88,1.48-11.63Z"/>
          <path class="cls-32" d="m407.05,220.95c-1.96-2.71-5.9-6.8-9.67-7.82-2.55-.69-4.67,1.73-3.45,3.52.05.08.1.12.12.19-2.48,2.15-.78,6.77.41,9.03,1.95,3.71,5.99,6.69,10.99,4.54,4.62-1.96,3.81-6.42,1.6-9.47Z"/>
        </g>
        <g class="cls-13">
          <path class="cls-22" d="m379.27,130.51c1.04-.76,1.94-1.59,2.65-2.38,2.84-3.21,2.84-6.95-1.22-9.38-4.08-2.46-9.41-1.44-12.37,1.67-1.11,1.21-1.98,2.63-2.58,4.13-2.72-3.19-7.08-5.25-10.41-2.67-3.5,2.71-2.65,7.36-.03,10.21.86.94,2.11,1.67,3.53,2.17-1.09,1.04-1.88,2.38-2.21,3.52-.88,3.27.33,7.24,4.37,8.59,1.04.35,2.07.44,2.99.33-.08.61-.12,1.19-.12,1.69.05,4.46,5.74,9.71,11.47,7.22,4.46-1.92,5.2-6.84,4.65-10.55-.03-.17-.07-.33-.14-.52,3.54.63,7.17.13,9.25-2.71,4.11-5.69-2.52-9.76-9.84-11.32Z"/>
          <path class="cls-22" d="m404.18,167.91c5.53-2.17,9.41-7.22,6.57-12.3-2.02-3.63-6.47-6.01-11.35-5.73-2.84.14-5.2,1.27-6.59,2.98-1.83-1.71-4.91-2.25-7.8-1.38-4.38,1.34-6.62,4.57-6.13,8.34.22,1.5,1.27,2.63,2.66,3.42-2.68,1.4-4.89,3.44-5.94,5.75-1.44,3.17-1.58,7.01,1.63,9.49,2.11,1.65,4.79,2.07,7.41,1.67-.58,1.73-.94,3.48-.94,5.27.02,4.08,3.74,7.09,8.78,6.25,4.62-.75,6.02-5.4,6.17-8.67,0-.38,0-.79-.03-1.21,2.51.38,5.08-.1,7.39-1.62,3.65-2.38,3.3-6.61,1.04-9.55-.79-1-1.73-1.92-2.87-2.71Z"/>
          <path class="cls-22" d="m383.06,191.97c-2.61-3.98-8.51-2.19-11.62.25-3.58,2.84-5.03,6.76-2.6,10.47,1.22,1.88,3.48,2.67,6.02,2.42,2.07-.23,3.75-1.9,4.77-3.25,1.22-1.59,2.33-4.42,2.09-6.8,1.32-.45,2.19-1.85,1.34-3.09Z"/>
          <path class="cls-22" d="m403.53,200.14c-.62-2.55-2.37-6.63-5.29-7.93-1.9-.87-4.28.07-4.72,1.65-.63.23-1.17.69-1.44,1.36-1.4,3.71-.56,13.72,6.74,12.28,4.32-.85,5.49-4.17,4.71-7.36Z"/>
          <path class="cls-22" d="m413.5,184.26c-.51-1-1.85-1.59-2.99-1.92-.58-.19-1.24-.25-1.86-.32-.56-.06-1.14-.1-1.73-.06-1.24.11-2.41.42-3.04,1.42-.05.09-.1.17-.15.25-.43.29-.76.67-.89,1.13-.22.67-.32,1.34-.22,2.05.08.5.3.91.53,1.37.56,1,1.68,1.63,2.87,2,1.63.56,3.89.08,5.25-.67.86-.48,1.65-1.04,2.14-1.8.37-.66.48-.98.58-1.71.08-.62-.21-1.19-.48-1.75Z"/>
          <path class="cls-22" d="m362.27,114.45c.34-.4.43-.92.17-1.5-1.83-4-8.86-12.85-14.21-6.7-2.24,2.61.83,5.69,3.14,7.34,1.43,1.05,2.97,1.94,4.52,2.86,1.29.73,2.14,1.57,3.99,1.71,1.47.1,2.84-1.05,2.84-2.25,0-.54-.19-1-.46-1.46Z"/>
          <path class="cls-22" d="m392.91,139.47c-2.69,1.25-1.47,4,.89,4.46,1.27,1.3,3.29,2.42,4.72,2.88,3.07,1.04,6.88-.67,6.93-3.52.1-4.61-8.71-5.61-12.54-3.81Z"/>
        </g>
        <g>
          <path class="cls-19" d="m388.06,123.84c-5.44-5.67-12.08-3.13-16.05,1.52-4.16-5.36-15.44-7.24-21.22-2.65-3.96,3.15-1.27,8.24,2.51,10.46,2.06,1.21,4.65,1.84,7.29,2.19-.2.23-.43.44-.61.63-2.89,3.15-3.96,8.13-.43,11.3,7.17,6.36,17.45-6.03,11.52-11.61-.08-.07-.15-.13-.25-.17.15-.02.3-.04.46-.09.15.09.32.17.53.21,7.79,2.21,23.66-4.02,16.24-11.8Z"/>
          <path class="cls-19" d="m374.04,137.47c-1.39.54-1.39,2.09-.53,2.94.04.18.09.39.09.6.15.79.53,1.48.96,2.21.97,1.61,2.24,3.06,3.66,4.46,2.29,2.32,6.82,4.77,9.95,1.88,6.25-5.75-7.27-14.64-14.12-12.09Z"/>
          <path class="cls-19" d="m394.63,162.57c.84-.54,1.29-1.48.63-2.29-2.26-2.79-7.23-2.21-10.51-1.17-3.79,1.23-7.13,3.44-7.51,6.96-.15,1.17.99,2.32,2.33,2.61,2.14.48,4.32.42,6.27-.1-1.48,1.5-2.65,3.17-3.13,4.96-1.14,4.21,3.94,8.09,8.87,6.17,4.26-1.63,6.09-5.97,6.64-9.51.39-2.31-.88-6.19-3.6-7.63Z"/>
          <path class="cls-19" d="m408.67,148.21c-9.85-3.81-15.69,13.54-7.84,13.95.81.04,1.6-.35,2.02-.91,6.35-1.96,14-9.84,5.81-13.04Z"/>
        </g>
        <g class="cls-13">
          <path class="cls-32" d="m209.04,325.61c-3.25-1.96-7.87-2.27-11.89-1.31.24-3.15-1.51-6.4-4.84-8.32-6.42-3.67-13.84-3.04-20.01.58l-.02.02c-.2-1.19-.58-2.4-1.19-3.65-2.24-4.34-8.15-5.28-12.89-3.59-2.01.68-3.89,1.92-5.54,3.38v-.29c-.03-2.75-2.33-5.03-5.23-6.22-4.28-1.79-9.8-1.44-13.53.88.35-2.4.2-4.73-.51-6.46-1.3-3.11-4.6-4.42-8.41-3.88-.07,0-.12.02-.17.04-.26-2.17-3.18-3.42-6.05-3.63-3.22-.21-6.98.67-9.17,2.71-3.45,3.21-.66,6.17,3.35,7.59-2.68,1-5.05,2.9-6.42,5-2.41,3.63-1.09,9.49,4.67,10.26,1.94.29,3.81,0,5.51-.62-1.35,5.02-.33,10.59,6.76,9.8.81-.08,1.59-.29,2.31-.58-.04.45-.06.91-.04,1.37.24,4.78,5.64,8.26,11.33,6.55.51-.13.94-.29,1.38-.5,1.24,2.63,4.23,4.67,7.79,5.33,4.62.88,9.97-.02,13.76-2.44,1.29,2.4,4.19,4.19,7.66,4.94,6.05,1.29,12.23-.38,16.8-3.59,7.49,3.54,19.96,3.63,25.21-.15,5.35-3.81,5.01-9.9-.63-13.24Z"/>
          <path class="cls-32" d="m234.3,321.09c-1.38-4.31-6.66-5.5-11.14-3.69-3.86,1.54-7.04,5.25-7.53,8.73-.05.53.14.94.43,1.25.1.33.29.64.53.9,2.67,2.84,8.2,2.23,11.74,1.04,4.09-1.38,7.18-4.48,5.96-8.24Z"/>
          <path class="cls-32" d="m226.64,335.29c-1.96-.67-4.1-.37-5.69.67-.44.29-.77.71-.92,1.13-1.14-.96-2.92-.57-3.75.41-3.13,3.54,3.14,8.3,6.42,9.84,4.41,2.17,11.85,1.42,12.21-3.79.27-3.94-4.23-6.92-8.27-8.26Z"/>
          <path class="cls-32" d="m269.58,325.76c-2.84-4.75-13.78-2.77-18.63.1-2.74-1.48-6.2-2.36-9.43-2.02-4.09.44-8.76,3.13-9.1,6.77-.31,3.21,2.66,5.4,5.99,6.57,1.04.36,2.29.61,3.58.65-.1.35-.17.71-.22,1.06-.36,3.07,2.89,6.26,6.76,5.76,3.02-.38,4.62-3.15,5.18-5.36.17-.79.35-1.75.35-2.69,7.39,1.67,19.25-4.65,15.54-10.84Z"/>
          <path class="cls-32" d="m284.66,319.53c-3.78.5-8.27,3.04-9.12,6.29-.15.63.09,1.25.48,1.75.1.27.31.54.61.75,2.29,1.69,5.74,1.38,8.51.96,2.79-.4,6.68-1.46,7.32-4.09.88-3.63-3.81-6.21-7.8-5.67Z"/>
        </g>
        <g class="cls-13">
          <path class="cls-32" d="m73.83,171.96c1.23-3.96-1.09-9.55-5.02-11.88,4.31-5.63,5.45-14.24-.97-18.18-4.7-2.88-11.4-1.84-15.23,1.54-3.35,2.92-4.52,7.43-3.96,11.47-.36-.13-.77-.25-1.14-.36-6.1-1.4-11.43,2.57-13.74,6.78-1.17,2.09-2.11,5.23-1.68,7.97-3.18-.74-6.59-.46-9.14,1.37-3.99,2.84-3.89,7.01-1.75,10.59.78,1.36,2.31,2.9,4.01,3.75-.99.71-1.88,1.59-2.56,2.5-1.75,2.38-2.24,5.48-.67,8,.79,1.19,2.04,2.05,3.48,2.55-.91.57-1.7,1.31-2.31,2.21-2.61,3.8-.63,11.51,4.22,14.26-2.06.71-3.89,1.92-5.25,3.67-2.67,3.42-1.02,7.47,2.02,10.26,3.02,2.75,7.44,3.52,11.6,2.81-.56.6-1.01,1.29-1.34,2.02-1.53,3.36,1.24,6.67,4.55,8.42.81.41,1.7.75,2.58,1,.14.21.29.38.51.54,1.75,1.38,3.96,2.09,6.3,2.29-.03,1.77.68,3.67,2.28,5.11,3.4,3.15,10.23,3.32,12.89-.55,2.09-3.02,1.25-7.3-1.13-10.03.32-.44.66-.92.91-1.4,2.94-5.69-.12-9.92-5.25-12.51,2.19-.9,4.04-2.11,5.33-3.56,2.87-3.29.63-8.11-2.79-10.42-2.31-1.59-5.33-2.52-8.47-3.13.27-.17.61-.32.88-.5,2.52-1.54,3.79-4,4.21-6.53.14-.77.09-1.57-.07-2.32,1.99.4,4.15.42,6.35-.08,11.28-2.59,9.38-13.97,2.37-19.52,3.8-1.71,6.82-4.5,7.99-8.17Z"/>
          <g>
            <path class="cls-32" d="m67.82,123.86c-.41-3.23-1.55-7.84-5.86-9.01-5.06-1.38-8.41,2.6-8.63,6.25-.26,4.06,1.92,8.82,4.97,11.99.97,1,2.55.71,3.45-.07.99.98,2.84,1.4,3.99.23,2.57-2.63,2.5-6.19,2.09-9.4Z"/>
            <path class="cls-32" d="m80.61,100.19c-10.07-2.54-11.07,10.55-9.51,15.55.58,1.88,2.99,1.96,4.28.96.84.5,1.95.71,3.07.27,6.51-2.65,11.33-14.45,2.16-16.78Z"/>
            <path class="cls-32" d="m76.28,130.05c-3.33.96-6.25,3.17-8.18,5.56-.56.71-.45,1.44-.03,2,.99,2.9,6.27,2.32,8.92,1.86,3.09-.51,7.05-2.09,7.15-5.09.1-3.5-4.06-5.46-7.86-4.34Z"/>
          </g>
        </g>
        <g class="cls-13">
          <path class="cls-32" d="m254.61,35.27c-3.04-4.88-12.69-6.84-17.77-3.79-.32-1.33-1.09-2.63-2.26-3.81-5.33-5.31-15.3-2.38-19.39,2.81-.36-.75-.87-1.54-1.58-2.25-3.65-3.63-10.21-3.46-14.42-.79-1.4.88-2.62,1.92-3.63,3.09-1.07-1.42-2.65-2.5-4.88-2.96-6.78-1.3-10.68,3.84-11.93,9.09-4.26-1.71-9.71-.23-13.25,2-1.66,1.05-3.22,2.57-4.09,4.21-.63-.44-1.39-.83-2.26-1.13-4.26-1.42-8.3-.04-10.78,2.98-1.09,1.34-1.89,3.13-2.16,4.94-1.93-1.3-4.74-1.94-7.1-1.8-3.53.21-6.51,2.13-6.51,5.21.02,1.55.79,2.86,1.96,3.92-1.85,1.17-3.28,2.84-3.69,4.71-.5,2.13.19,4.62,2.77,5.67,1.96.81,4.19.67,6.07-.09,1.39.63,3.02.96,4.74.78,3.35-.36,5.96-3.23,7.23-5.55.06-.06.11-.14.16-.23,3.09,1.32,7.2,1.03,10.38-.08,2.36-.83,3.45-2.46,3.65-4.25,4.09,1.96,8.73.86,12.34-1.48,1.83-1.19,2.89-2.77,3.07-4.42.3.4.63.82.99,1.19,3.48,3.42,10.66,2.42,13.35-1.21.35-.48.61-.96.81-1.44,6.17,2.02,13.35-.65,16.22-4.9,3.11.29,6.61-.96,9.22-2.79.87,1.46,2.41,2.73,4.17,3.48,4.84,2.09,11.19.82,15.45-2.17,6.96.56,17.26-2.19,13.1-8.95Z"/>
          <path class="cls-32" d="m260.98,34.58c-1.24.27-1.95.94-2.21,1.73-.58.54-.88,1.29-.63,2.04,1.17,3.3,5.56,5.67,9.43,6.51,4.41.92,9.19-1.44,9.34-5.34.2-5.71-11.33-5.96-15.92-4.94Z"/>
          <path class="cls-32" d="m298.83,38.81c-3.35-1.13-8.46-1.52-11.91-.46-.25.09-.48.21-.66.34-1.6-.09-3.2,1.25-2.7,2.63,1.86,5.17,15.9,12.17,20.42,5.83,2.66-3.73-1.17-7-5.15-8.34Z"/>
          <path class="cls-32" d="m288.04,50.74c-1.49-3.38-5.45-5.38-9.82-5.26-2.36.09-3.14,2.73-1.07,3.5.02.04.05.09.07.13.51.56.61.66.31.33.12.17.25.33.36.54.52.76,1.01,1.46,1.66,2.17,1.81,1.87,4.55,2.21,7.09,1.21,1.03-.42,1.83-1.71,1.39-2.63Z"/>
          <path class="cls-32" d="m327.45,63.08c-.36-4.57-5.24-7.2-10.23-7.36.15-.32.25-.63.35-.96.61-2.23.31-5.47-2.58-6.57-3.48-1.34-6.96.92-8.76,3.25-1.65,2.13-1.89,4.92-.89,7.29-6.37-.12-13.71,2.75-12.26,8.3,2.05,7.8,15.35,2.61,18-2.67.41.17.84.29,1.29.4,1.83,2.32,5.01,3.38,8.33,3.36,3.45-.02,6.98-1.94,6.76-5.04Z"/>
          <path class="cls-32" d="m323.2,77.01c-.46-2.4-1.37-5.4-3.58-7.13-.76-.62-2.01-.71-2.94-.37-.73-.15-1.55-.06-2.19.42-3.17,2.31-3.65,6.42-2.67,9.63,1.04,3.27,4.98,6.05,9.12,4.65,3.23-1.09,2.69-5.02,2.26-7.19Z"/>
          <path class="cls-32" d="m334.72,68.65c-2.16-.94-6.81-2.32-8.81-.56-.76.67-1.17,1.88-.48,2.69.36.38.73.65,1.17.86.71,1.08,1.45,2.21,2.36,3.17.36.42.71.84,1.09,1.21.94.9,2.41,1.55,3.89,1.55,2.26-.04,3.63-1.38,4.43-2.96,1.25-2.46-1.14-4.88-3.65-5.94Z"/>
          <path class="cls-32" d="m335.99,83.93c-1.37-1.55-3.63-3.88-6.18-3.69-2.31.15-3.71,2.23-2.06,3.77.05,1.52.41,3.09,1.14,4.46,1.27,2.46,4.72,3.42,7.29,1.57,2.31-1.69,1.34-4.36-.19-6.11Z"/>
        </g>
        <g class="cls-13">
          <path class="cls-22" d="m59.48,220.53c4.12-3.29,5.49-9.01-.61-11.42-.66-.27-1.37-.44-2.12-.54,2.73-3.29,3.6-7.28.07-10.59-1.73-1.63-3.84-2.29-5.96-2.29-.21-3.04-1.76-5.71-5.37-6.75-5.64-1.63-9.49,1.33-11.24,5.44-2.62-2.19-6.15-3.46-10.03-3.04-5.58.6-6.37,5.73-5.25,9.3.61,1.94,1.7,3.88,3.2,5.52-.97.3-1.82.67-2.62,1.25-3.83,2.71-.27,7.23,2.24,9.51,1.27,1.15,3.12,2.13,5.18,2.79-4.11,2.84-6.66,7.86-2.74,11.13,2.09,1.71,4.95,1.98,7.67,1.48.12,4.61,2.89,8.86,9.19,8.55,4.92-.25,8.15-4.15,8.76-8.11,5.86,1.92,12.84,1.08,13.48-5.13.31-3.09-1.17-5.59-3.84-7.09Z"/>
          <path class="cls-22" d="m34.77,180.36c-.06-3.52-2.5-7.34-5.69-9.4-1.73-1.13-4.27-2.44-6.58-1.86-2.41.58-3.45,2.06-3.7,4.02-.46,3.46,2.66,6.75,5.71,8.8,2.71,1.88,8.63,4.21,11.14.83.68-.91.15-1.96-.88-2.4Z"/>
          <path class="cls-22" d="m44.94,162.86c-9.75-.79-11.65,11.76-4.7,15.43,1.29.69,2.67.16,3.33-.71.78.5,1.87.66,2.97.21,5.99-2.71,6.71-14.3-1.6-14.93Z"/>
          <path class="cls-22" d="m72.49,178.23c-3.38-8.55-19.67-3.13-19.77,4.3,0,1.27,1.14,1.98,2.33,1.98.1.17.25.35.43.54,2.31,2.38,7.99,1.32,10.88.42,3.64-1.13,7.55-3.63,6.12-7.24Z"/>
          <path class="cls-22" d="m70.23,153.84c3.69-3.82,4.77-9.03-.2-12.82-3.58-2.75-8.82-1.46-11.35,1.59-.97,1.17-1.48,2.57-1.75,4.04-.03-.04-.05-.08-.1-.13-2.11-2.57-6.47-6.33-10.72-4.34-4.74,2.23-3.78,7.63-1.57,10.96,1.95,2.94,6.62,7.2,11.31,7.14-.15.37-.2.79-.08,1.25,1.6,7.05,14.24,8.82,19.14,3.21,3.81-4.33.26-9.26-4.69-10.9Z"/>
          <path class="cls-22" d="m60.21,242.97c-.99-.94-2.38-1.92-3.86-2.27-.08-.02-.17-.02-.25-.02-.16-.33-.33-.62-.61-.87-.56-.57-1.58-.71-2.37-.57-3.12.59-3.14,4.29-3.07,6.36.08,2.96,1.34,6.05,4.57,7.59,3.35,1.63,7.8.54,9.09-2.5,1.19-2.71-1.48-5.84-3.5-7.72Z"/>
        </g>
        <g class="cls-13">
          <path class="cls-22" d="m161.11,48.03c-.21-.04-.38-.06-.56-.08,2-4.59,1.58-10.3-3.69-11.76-7.61-2.09-11.27,4.59-10.17,10.13-2.43.17-4.88,1.04-6.83,2.17-2.21,1.27-4.72,3.17-4.72,5.57,0,1.81,1.44,3.11,3.45,3.73.93.25,2,.32,3.04.25-1.19,2.59-1.27,5.99,1.09,8.16,2.43,2.23,6.12,1.36,8.07-.77,1.63-1.77,2.24-4.3,1.42-6.45,2.84,1.52,6.2,1.98,9.65,1.67,3.58-.33,7.05-2.1,7.32-5.29.27-3.54-4.32-6.59-8.07-7.32Z"/>
          <path class="cls-22" d="m175.33,31.6c-3.59-2.05-7.8,1.04-9.25,3.59-1.66,2.88-2.99,7.71-.63,10.59.84,1,2.69,1.23,3.79.62.39,0,.76-.08,1.09-.21,2.84-1.12,4.38-4.13,5.55-6.38,1.33-2.54,2.79-6.25-.55-8.21Z"/>
          <path class="cls-22" d="m181.17,45.98c-3.11-.33-7.92,1.25-8.07,4.21-.33.44-.51,1-.36,1.61.66,2.86,4.42,4.48,7.61,4.94,4.09.58,7.83-.92,8.28-4.5.5-3.67-3.66-5.88-7.46-6.26Z"/>
          <path class="cls-22" d="m226.64,36.77c.1-4.25-5.54-5.65-10.92-5.21.2-.32.4-.63.56-.98,1.9-4.27-3.81-7.38-8.33-7.06-3.53.2-6.15,2.29-7.81,4.71-.56-.91-1.28-1.75-1.96-2.54-1.9-2.02-5.08-4.04-8.25-2.59-3.28,1.46-3.18,5.54-2.21,8.05.2.54.48,1.08.81,1.6-3.73,2.19-6.84,5.97-5.48,8.88,1.7,3.65,6.17,2.9,10.18.98-.89,3.5.12,7.22,4.26,8.59,3.65,1.21,6.96-.83,8.41-3.46,1.88.67,3.92.96,5.73.77,2.5-.23,5.03-1.25,6.27-3.09.84-1.19.87-2.44.44-3.59,3.76-.29,8.2-1.48,8.31-5.06Z"/>
          <path class="cls-22" d="m236.91,24.2c-1.54-2.94-5.91-4.17-9.36-2.94-2.97,1.11-4.94,3.88-4.67,6.55.1.92.66,1.71,1.58,2.06.2.4.56.73,1.04.98,2.68,1.36,5.86,1.05,8.61,0,3.22-1.23,4.14-4.13,2.81-6.65Z"/>
          <path class="cls-22" d="m244.76,30.93c-4.52-.96-9.46,1.19-12.39,3.92-1.75,1.65-.17,3.63,1.89,3.65.25.69.88,1.25,1.98,1.52,2.55.67,5.2.38,7.8.17,2.46-.25,6.16-1.09,6.81-3.42.86-3.13-2.84-5.17-6.07-5.84Z"/>
          <path class="cls-22" d="m234.93,40.79c-1.63-1.18-4.21-1.77-6.12-.7-.58.31-.88.81-1.01,1.29-.79.54-1.12,1.38-.92,2.21.61,2.9,4.82,5.15,8.25,4.11,1.3-.38,2.36-1.17,2.36-2.4-.03-1.73-1.01-3.36-2.56-4.51Z"/>
        </g>
        <g class="cls-13">
          <g>
            <path class="cls-22" d="m160.43,310.22c-3.45-4.04-9.93-2.34-14.24,1.05-1.19-2.63-3.74-4.71-7.49-4.78.05-.77-.1-1.6-.48-2.44-1.5-3-5.64-3.13-9.32-2-1.65-2.5-5.23-3.96-8.58-2.88-3.81,1.21-6.37,4.73-4.01,7.92.39.5.89.94,1.48,1.3-6.1,2.81-9.93,9.69-2.79,13.38,3.63,1.88,6.72-.54,8.32-3.13.12.14.26.29.36.42,1.39,1.33,3.25,1.85,5.08,1.71-.46.94-.79,1.88-1.02,2.67-.84,2.94-.76,7.22,3.02,8.78,3.35,1.4,6.73-.16,8.78-2.61,1.38,1.21,3.2,2.13,5.42,2.46,5.58.87,9.51-2.92,7.95-7.3-.36-.92-.94-1.84-1.68-2.63,2.31-.84,4.52-2.38,5.96-3.4,2.74-1.94,5.74-5.6,3.25-8.53Z"/>
            <path class="cls-22" d="m166.78,316.38c-4.2.29-8.46,2.15-9.09,5.8-.17.9.46,1.52,1.32,1.77,2.11,5.8,16.43,4.38,16.7-2.11.17-3.86-4.94-5.73-8.93-5.46Z"/>
            <path class="cls-22" d="m159.49,335.81c-1.12-.94-2.56-2-4.21-2.21-.94-.12-1.89-.15-2.72.36-.58.33-.94.64-1.17,1.21-.1.21-.12.39-.12.58v.08c-.84.17-1.58.71-1.8,1.38-.77,2.44,2.46,5.07,4.48,6.55,1.19.83,2.6,1.75,4.17,2.05,2.31.39,4.38-.55,5.2-2.38,1.22-2.77-1.63-5.76-3.84-7.61Z"/>
            <path class="cls-22" d="m209.72,323.8c-1.34-2.65-5.25-2.81-8.73-1.84-.66-2.57-2.21-6.19-5.61-6.78-4.79-.81-6.09,3.5-5.1,6.42.36,1,.84,2.05,1.45,3.06-1.48.17-2.92.52-4.21.98-3.23,1.09-5.71,3.96-5.95,6.8-.32,3.96,5.32,5.19,8.84,3.84.78-.27,1.57-.64,2.31-1.06.17.37.37.77.63,1.11,2.12,3.3,7.71,3.48,10.28.46,1.34-1.57,1.24-3.38.47-5.07,4.2-1.06,7.51-4.1,5.61-7.92Z"/>
            <path class="cls-22" d="m213.18,341.63c-1.75-1.88-5.03-3.92-8.07-3.13-1.12.29-1.75,1.1-1.8,1.92-.94,1.69.68,4.38,1.58,5.77,1.39,2.17,4.47,4.8,7.71,3.23,3.74-1.79,2.82-5.42.58-7.8Z"/>
            <path class="cls-22" d="m191.27,340.13c-.25-.92-1.14-1.36-2.18-1.46-1.98-.18-4.09.96-5.28,2.19-1.54,1.63-2.33,3.65-.93,5.56,1.7,2.27,5.38,1.88,6.79-.35.74-1.19,1.17-2.69.82-4.02.71-.44.99-1.28.78-1.92Z"/>
          </g>
          <g>
            <path class="cls-22" d="m111.66,291.58c-2.94-2.15-7.46-3.42-10.74-1-2.94,2.17-1.49,5.07,1.3,6.67,2.05,1.19,4.87,1.88,7.3,2.25.72.08,1.38,0,1.96-.21.02.04.08.08.08.08,1.22,1.23,4.41,1.57,4.77-.54.53-2.84-2.21-5.48-4.67-7.26Z"/>
            <path class="cls-22" d="m111.56,299.38s-.05-.04-.1-.06c.1.11.12.11.1.06Z"/>
          </g>
          <path class="cls-22" d="m109.76,304.01c.27-2.61-3.13-3.71-5.76-3.63-3.15.08-6.35,1.25-8.12,3.42-1.04,1.3-.34,3.09,1.17,3.84,3.63,1.79,9.22,1.46,12.46-.79,1.24-.84,1.07-2,.26-2.84Z"/>
        </g>
        <path class="cls-19" d="m151.41,314.02c-1.12-5.38-8.27-7.19-14.75-6.25,1.09-4.34-.05-9.22-5.79-9.72-8.12-.69-7.1,8.13-5.84,13.03-1.24-.11-2.56-.02-3.83.23-4.81.88-8.21,4.63-7.34,8.67.76,3.67,5.99,4.25,9.6,3.54,2.61-.5,7-2.52,7.84-5.08,6.88,3.32,21.86,4.08,20.11-4.42Z"/>
        <path class="cls-19" d="m143.65,326.05c-1.7-2.06-5.82-4.58-8.87-2.81-1.39.84-1.63,2.09-.56,3.21h.02c-.15,3.17,2.26,6.54,5.39,7.99,1.54.68,3.5.33,4.41-.94,1.73-2.34,1.48-5.17-.4-7.45Z"/>
        <path class="cls-19" d="m121.48,306.29c-.81-3.19-4.42-4.94-8.12-5.32-3.12-.29-7.29.44-8.43,3.21-.78,1.96,1.02,3.84,3.05,4.63,1.19.5,2.43.84,3.7,1.09,1.9.37,4.11.56,6.05.16.98-.2,1.62-.87,1.85-1.58.1,0,.2,0,.27-.04,1.19-.23,1.85-1.21,1.63-2.15Z"/>
        <path class="cls-19" d="m172.3,312.6c-3.72-3.21-14.11-5.25-15.38.96-.38,1.92,1.88,3.25,3.68,2.5,1.19.35,2.53.56,3.73.81,2.16.44,4.27.53,6.43.19,2.48-.42,3.17-3.04,1.54-4.46Z"/>
        <path class="cls-19" d="m57.76,205.98c-6.82-3.96-16.83-1.71-21.42,3.42-2.21-.67-5.23-.63-7-.25-3.75.82-8.68,4.23-7.18,7.88,1.03,2.57,4.06,3.15,7,3-1.5,1.5-2.67,3.23-3.43,5.11-.58,1.44-.61,3.19-.15,4.77v.04c-.46,1.54.56,2.69,1.95,3.09.76.71,1.73,1.25,2.89,1.54,4.55,1.19,8.12-2.96,9.8-7.34,4.32,4.5,12.08,6.96,16.75,1.85,2.87-3.19.84-6.56-2.33-8.74,1.85-.29,3.55-.87,5-1.81,4.99-3.34,2.84-9.82-1.89-12.57Z"/>
        <path class="cls-19" d="m30.22,193.8c-2.11-2.23-4.64-4.31-7.85-5.46-1.83-.63-4.19-.25-4.74,1.57-1.45,4.88,4.36,11.82,10.87,11.8.4.43.88.79,1.44,1.06,1.6.75,3.38.04,3.96-1.29,1.12-2.59-1.88-5.74-3.68-7.68Z"/>
        <path class="cls-19" d="m52.53,184.43c-4.26-2.19-9.1.81-10.22,4.21-.89,2.73-.43,6.84,1.98,9.09-.02,1.46,1.68,2.54,3.58,2.36,3.71-.34,5.79-4.59,6.83-7.07,1.22-2.92,1.4-6.76-2.16-8.59Z"/>
        <path class="cls-19" d="m44.16,234.42c-2.21-2.59-7.46-.29-5.28,2.42.08.13.17.21.22.33-.76,2.32-.76,4.92.78,6.89,1.23,1.5,4.3,1.92,5.49.04,1.97-3.17,1.24-6.8-1.22-9.67Z"/>
        <path class="cls-19" d="m75.46,150.15c-.96-3.46-5.99-3.98-9.24-2.5-.44.19-.86.42-1.27.71.86-5.17-1.5-11.97-8.53-9.92-5.08,1.5-4.77,5.92-2.84,9.3.48.84,1.32,1.96,2.36,3-1.54.54-2.97,1.34-3.96,2.23-2.99,2.69-3.17,7.32.14,9.94,2.99,2.38,7.05.85,9.29-1.46,1.07-1.08,2.26-2.52,2.94-4.04,4.92.84,12.31-2.98,11.12-7.25Z"/>
        <path class="cls-19" d="m170.02,52.36c-3.85-4.25-10.33-4.29-14.95-1.5,0-.17,0-.29-.03-.42-.08-.67-.17-1.33-.35-1.98-.26-.88-.7-1.77-1.3-2.52-1.24-1.58-3.04-2.67-5.35-2.84-.97-.06-2,.17-2.82.55-1.14.54-1.8,1.33-2.31,2.29-.76,1.46-.12,3.33.87,4.61.56.73,1.22,1.38,1.97,1.98-1.75.48-3.43,1.25-4.74,2.13-3.3,2.09-5.25,5.59-3.28,8.88,1.94,3.17,6.68,1.92,9.34.35,2.62-1.52,5.44-3.56,6.46-6.13.05-.19.07-.39.07-.58.48.06.96.06,1.44-.09,1.91.61,4.15.79,6.05.94,3.02.25,6.22-.35,8.32-2.21.97-.84,1.55-2.42.61-3.46Z"/>
        <path class="cls-19" d="m215.99,36.48c.92-.52,1.82-1.04,2.65-1.58,3.29-2.09,6.9-5.3,4.74-8.92-2.48-4.13-8.43-2.46-11.43.08-2.41,2.06-4.67,4.88-5.99,7.68-.19-.13-.36-.27-.58-.38-.26-2.05-1.48-4.25-2.47-5.48-2.73-3.33-7.79-4.63-11.46-1.42-3.54,3.06-.94,6.63,2.46,8.74,2.26,1.38,5.28,2.42,8.22,2.63-2.87.79-5.48,2.29-7.29,4.23-2.15,2.32-2.84,7.09.99,8.65,3.76,1.54,6.76-1.08,8.81-3.38.61-.67,1.19-1.38,1.68-2.15,4.52,2.09,11.99.44,15.56-1.82,1.09-.66,1.43-2.46.58-3.36-1.65-1.9-3.96-3.06-6.47-3.52Z"/>
        <path class="cls-19" d="m242.65,31.77c-1.88-.69-3.88-.79-5.89-.33-2.74.67-5.2,2.19-6.76,4.13-.66.84-.42,2.05.39,2.71.66.54,1.8.83,2.77.6.73.28,1.46.59,2.31.69.83.13,1.65.21,2.48.21,1.09,0,2.26-.06,3.28-.33,2.29-.63,4.11-1.88,4.29-3.94.16-1.52-1.22-3.11-2.87-3.73Z"/>
        <path class="cls-19" d="m166.32,35.5c-.94-.54-2.14-.56-3.2-.44-1.01.15-1.85.67-2.63,1.17-1.58.96-2.55,2.71-3.08,4.21-.2.67-.4,1.42-.42,2.11,0,.27.03.56.03.81.08.71.35,1.3.71,1.92.41.76,1.48,1.19,2.38,1.21.38,0,.73-.05,1.04-.15.78.31,1.8.25,2.41-.31,1.88-1.67,3.65-3.42,4.5-5.65.68-1.86.22-3.73-1.73-4.88Z"/>
        <g class="cls-13">
          <path class="cls-32" d="m390.45,267.9c-.61-1.71-2.82-2.5-4.77-1.71-2.62,1.11-4.73,2.9-6.25,4.96-1.14,1.54-2.04,3.86-1.33,5.71-2.12-2-5.55-2.29-8.35-.73-.78.44-1.43.94-1.95,1.51-.97-.4-2.06-.61-3.28-.61-4.57.04-7.73,3.33-8.31,6.76-.07.31-.1.62-.12.91-1.22-.25-2.53-.29-3.99-.08-5.55.88-8.81,7.13-7.74,11.92-.71-.08-1.45-.08-2.29.05-3.91.6-6.52,3.92-7.92,6.67-.71,1.42-1.19,2.98-1.44,4.59-1.73-1.48-4.04-2.42-6.78-2.34-4.6.17-8,3.59-8.48,7.13-.32,2.38.48,4.5,2.21,6.09-3.14,2.21-4.64,5.67-1.55,8.74,4.37,4.36,12.13,1.15,16.51-2.48.17.12.36.25.56.37,2.72,1.55,6.37,1.07,9.22.04,2.97-1.08,5.25-3.33,6.2-5.9.76-2.02.37-4.02-.63-5.86,7.59.75,14.03-6.32,13.12-12.14,1.78.65,3.76.84,5.85.46,3.65-.66,6.82-3.29,8.54-5.92,1.5-2.29,2.65-5.38,1.04-7.82-.22-.35-.51-.67-.81-.92,2.26-2.52,3.09-6.09,1.63-8.86,1.34.88,3.22.42,3.83-.96,4.5-1.67,8.78-5.21,7.29-9.59Z"/>
          <path class="cls-32" d="m396.41,285.83c-.41-1.21-1.22-2.46-2.33-3.3-1.73-1.19-4.01-1.88-6.25-1.25-2.66.75-5.18,2.67-5.74,4.96-.22.77-.07,1.54.63,2.13.26.21.58.37.92.5-.05.63.17,1.29.78,1.82.51.39,1.04.73,1.6,1.1.53.34,1.27.5,1.9.67,1.25.34,2.42.34,3.64.17,1.73-.19,3.6-1.23,4.31-2.54.77-1.38.99-2.79.53-4.25Z"/>
          <path class="cls-32" d="m315,329.26c-1.14-1.52-3.45-1.57-5.33-.5-1.94,1.1-3.13,2.81-4.01,4.56-.84,1.67,1.19,3.07,2.94,3.27,4.23.48,8.73-1.77,9.34-5.32.25-1.38-1.53-2.21-2.94-2.02Z"/>
        </g>
        <g class="cls-13">
          <path class="cls-22" d="m380.65,285.91c-.79-1.94-2.72-2.88-4.95-3.13,0-.08.02-.16.05-.23,0-.29-.05-.56-.1-.85-.1-.75-.61-1.34-1.14-1.88-1.02-1-2.82-1.34-4.28-1.46-2.65-.17-5.56.58-7.87,1.62-1.24.55-2.33,1.28-3.12,2.23-1.22,1.44-.79,3.19.48,4.46.05.06.12.1.2.19-.41-.03-.79-.03-1.19-.03-4.01.03-8.51.69-11.09,3.48-2.24,2.42-.87,5.59,1.87,7.22.96.54,2.02.92,3.14,1.17-.83.79-1.68,1.67-2.43,2.54-1.83,2.09-3.55,4.96-1.14,7.22,2.77,2.63,8.48-.17,10.92-1.79,2-1.33,4.31-4.59,4.7-7.42,5.71,1.42,12.93.42,14.32-4.04.46-1.54.07-2.94-.81-4.13,1.82-1.29,3.19-3.33,2.46-5.17Z"/>
          <path class="cls-22" d="m343.94,303.64c.36-8.53-16.42-.75-18.65,3.17-1.04,1.77-.19,3.5,2.07,4.25,5.06,1.67,13.03-1.28,14.9-5.63.89-.25,1.63-.9,1.68-1.79Z"/>
          <path class="cls-22" d="m329.52,314.65c-6.54.12-17.31,8.8-10.46,13.78,6.35,4.65,13.23-6.27,12.31-10.65.97-1.21.34-3.17-1.85-3.13Z"/>
          <path class="cls-22" d="m347.65,321.07c-.11-2.42-1.75-7.59-6.02-6.4-1.24.36-2.16,1.11-2.19,2.23-.03.38.08.71.21,1-2.24,3.23-2.42,8.19.17,11.21,1.39,1.65,4.26,1.92,5.69.08,1.78-2.38,2.26-5.42,2.14-8.13Z"/>
        </g>
        <g>
          <path class="cls-19" d="m372.68,291.94c-.63-.1-1.32-.15-2.04-.15,3.06-3.67,4.1-9.61-.78-11.03-4.21-1.23-8.05,2.55-8.43,5.56-.1.84-.02,1.71.21,2.55-2.69-.29-5.56,0-7.97.63-3.6.92-7.95,4.25-6.78,7.69,1.14,3.35,5.92,3.4,9.29,3.02,2.4-.25,5.18-.79,7.24-1.8.32,3.3,3.84,5.4,7.76,5.21,3.25-.14,7.02-1.81,7.6-4.71.63-3.17-2.29-6.3-6.1-6.99Z"/>
          <path class="cls-19" d="m358.26,309.25c.25-.27.51-.52.71-.81,1.14-1.5-.71-3.88-2.94-3.23-2.92.84-5.66,3.02-7.64,4.94-2.51,2.38-3.74,5.29-1.22,8.05,2.26,2.42,6.27.52,8.15-1.13,1.75-1.54,4.01-4.04,3.86-6.29-.06-.61-.41-1.15-.92-1.52Z"/>
          <path class="cls-19" d="m391.08,285.46c-.38-3.88-5.23-4.67-8.8-3.09-2.72,1.19-5.2,3.36-6.51,5.63-.4.71-.35,1.38,0,1.92.11.46.36.92.9,1.34,2.48,1.96,6.27.79,8.95-.25,2.55-.96,5.71-2.96,5.46-5.54Z"/>
          <path class="cls-19" d="m344.96,307.23c-2.57-3.02-7.87-1.8-11.23-.42-3.92,1.59-7.3,4.54-7.71,8.22-.1,1.21,1.09,2.5,2.51,2.75,5.97,1.09,11.79-3.21,14.42-7.42.14,0,.24,0,.36-.02,1.55-.23,2.6-2.03,1.65-3.11Z"/>
        </g>
      </g>
    </g>
  </g>
</svg>