<?xml version="1.0" encoding="UTF-8"?>
<svg xmlns="http://www.w3.org/2000/svg" xmlns:xlink="http://www.w3.org/1999/xlink" viewBox="0 0 510.94 555.24">
  <defs>
    <style>
      .cls-1 {
        fill: url(#radial-gradient-20);
      }

      .cls-1, .cls-2, .cls-3, .cls-4, .cls-5, .cls-6, .cls-7, .cls-8, .cls-9, .cls-10, .cls-11, .cls-12, .cls-13, .cls-14, .cls-15, .cls-16, .cls-17, .cls-18, .cls-19, .cls-20, .cls-21, .cls-22, .cls-23, .cls-24, .cls-25, .cls-26, .cls-27, .cls-28, .cls-29, .cls-30, .cls-31, .cls-32, .cls-33, .cls-34, .cls-35, .cls-36, .cls-37, .cls-38, .cls-39, .cls-40, .cls-41, .cls-42, .cls-43, .cls-44, .cls-45, .cls-46, .cls-47, .cls-48, .cls-49, .cls-50, .cls-51, .cls-52, .cls-53, .cls-54 {
        mix-blend-mode: screen;
      }

      .cls-1, .cls-3, .cls-5, .cls-7, .cls-55, .cls-8, .cls-9, .cls-10, .cls-12, .cls-14, .cls-56, .cls-16, .cls-17, .cls-18, .cls-20, .cls-21, .cls-22, .cls-23, .cls-24, .cls-25, .cls-26, .cls-57, .cls-28, .cls-29, .cls-30, .cls-31, .cls-32, .cls-34, .cls-35, .cls-36, .cls-37, .cls-38, .cls-58, .cls-40, .cls-42, .cls-43, .cls-44, .cls-45, .cls-46, .cls-49, .cls-52, .cls-53 {
        fill-rule: evenodd;
      }

      .cls-2 {
        fill: url(#radial-gradient-40);
      }

      .cls-3 {
        fill: url(#radial-gradient-31);
      }

      .cls-4 {
        fill: url(#radial-gradient-30);
      }

      .cls-5 {
        fill: url(#radial-gradient-27);
      }

      .cls-6 {
        fill: url(#radial-gradient-41);
      }

      .cls-7 {
        fill: url(#radial-gradient-51);
      }

      .cls-55 {
        fill: #fff;
      }

      .cls-8 {
        fill: url(#radial-gradient-46);
      }

      .cls-9 {
        fill: url(#radial-gradient-24);
      }

      .cls-10 {
        fill: url(#radial-gradient-14);
      }

      .cls-11 {
        fill: url(#radial-gradient-39);
      }

      .cls-12 {
        fill: url(#radial-gradient-16);
      }

      .cls-13 {
        fill: url(#radial-gradient-34);
      }

      .cls-14 {
        fill: url(#radial-gradient-22);
      }

      .cls-56 {
        fill: #3668b2;
        opacity: .2;
      }

      .cls-15 {
        fill: url(#radial-gradient-35);
      }

      .cls-16 {
        fill: url(#radial-gradient-21);
      }

      .cls-17 {
        fill: url(#radial-gradient-4);
      }

      .cls-59 {
        isolation: isolate;
      }

      .cls-18 {
        fill: url(#radial-gradient-3);
      }

      .cls-19 {
        fill: url(#radial-gradient-53);
      }

      .cls-20 {
        fill: url(#radial-gradient-12);
      }

      .cls-21 {
        fill: url(#radial-gradient-47);
      }

      .cls-22 {
        fill: url(#radial-gradient-38);
      }

      .cls-23 {
        fill: url(#radial-gradient-45);
      }

      .cls-24 {
        fill: url(#radial-gradient-36);
      }

      .cls-25 {
        fill: url(#radial-gradient-25);
      }

      .cls-26 {
        fill: url(#radial-gradient-7);
      }

      .cls-27 {
        fill: url(#radial-gradient-54);
      }

      .cls-57 {
        fill: #49a0d8;
      }

      .cls-28 {
        fill: url(#radial-gradient-19);
      }

      .cls-29 {
        fill: url(#radial-gradient-15);
      }

      .cls-60 {
        clip-path: url(#clippath-1);
      }

      .cls-30 {
        fill: url(#radial-gradient-26);
      }

      .cls-31 {
        fill: url(#radial-gradient-28);
      }

      .cls-32 {
        fill: url(#radial-gradient-6);
      }

      .cls-33 {
        fill: url(#radial-gradient-44);
      }

      .cls-34 {
        fill: url(#radial-gradient-18);
      }

      .cls-35 {
        fill: url(#radial-gradient-13);
      }

      .cls-36 {
        fill: url(#radial-gradient-10);
      }

      .cls-37 {
        fill: url(#radial-gradient-5);
      }

      .cls-38 {
        fill: url(#radial-gradient-2);
      }

      .cls-58 {
        fill: #cfedfc;
      }

      .cls-39 {
        fill: url(#radial-gradient-49);
      }

      .cls-40 {
        fill: url(#radial-gradient-29);
      }

      .cls-41 {
        fill: url(#radial-gradient-50);
      }

      .cls-61 {
        clip-rule: evenodd;
        fill: none;
      }

      .cls-42 {
        fill: url(#radial-gradient-17);
      }

      .cls-43 {
        fill: url(#radial-gradient-9);
      }

      .cls-44 {
        fill: url(#radial-gradient-43);
      }

      .cls-45 {
        fill: url(#radial-gradient-8);
      }

      .cls-46 {
        fill: url(#radial-gradient-23);
      }

      .cls-47 {
        fill: url(#radial-gradient-42);
      }

      .cls-48 {
        fill: url(#radial-gradient-52);
      }

      .cls-49 {
        fill: url(#radial-gradient-11);
      }

      .cls-50 {
        fill: url(#radial-gradient-37);
      }

      .cls-51 {
        fill: url(#radial-gradient-32);
      }

      .cls-52 {
        fill: url(#radial-gradient-48);
      }

      .cls-53 {
        fill: url(#radial-gradient);
      }

      .cls-54 {
        fill: url(#radial-gradient-33);
      }
    </style>
    <clipPath id="clippath-1">
      <polygon class="cls-61" points="130.31 88.34 431.68 88.34 431.68 424.16 130.31 424.16 130.31 88.34 130.31 88.34"/>
    </clipPath>
    <radialGradient id="radial-gradient" cx="-290.17" cy="1146.98" fx="-290.17" fy="1146.98" r="933.03" gradientTransform="translate(217.92 -58.53) scale(.23 .25)" gradientUnits="userSpaceOnUse">
      <stop offset="0" stop-color="#6bb1e2"/>
      <stop offset=".12" stop-color="#64a9d7"/>
      <stop offset=".32" stop-color="#5493bc"/>
      <stop offset=".59" stop-color="#397090"/>
      <stop offset=".9" stop-color="#154153"/>
      <stop offset="1" stop-color="#08303e"/>
    </radialGradient>
    <radialGradient id="radial-gradient-2" cx="1043.16" fx="1043.16" r="933.03" xlink:href="#radial-gradient"/>
    <radialGradient id="radial-gradient-3" cy="2480.31" fy="2480.31" r="933.03" xlink:href="#radial-gradient"/>
    <radialGradient id="radial-gradient-4" cx="1043.16" cy="2480.31" fx="1043.16" fy="2480.31" r="933.03" xlink:href="#radial-gradient"/>
    <radialGradient id="radial-gradient-5" cx="164.23" cy="740.58" fx="164.23" fy="740.58" r="755.8" xlink:href="#radial-gradient"/>
    <radialGradient id="radial-gradient-6" cx="164.23" cy="2073.91" fx="164.23" fy="2073.91" r="755.8" xlink:href="#radial-gradient"/>
    <radialGradient id="radial-gradient-7" cx="-95.74" cy="1807.37" fx="-95.74" fy="1807.37" r="933.58" xlink:href="#radial-gradient"/>
    <radialGradient id="radial-gradient-8" cx="1237.59" cy="1807.37" fx="1237.59" fy="1807.37" r="933.58" xlink:href="#radial-gradient"/>
    <radialGradient id="radial-gradient-9" cx="-99.4" cy="733.89" fx="-99.4" fy="733.89" r="814.49" xlink:href="#radial-gradient"/>
    <radialGradient id="radial-gradient-10" cx="-99.4" cy="2067.22" fx="-99.4" fy="2067.22" r="814.49" xlink:href="#radial-gradient"/>
    <radialGradient id="radial-gradient-11" cx="1233.94" cy="2067.22" fx="1233.94" fy="2067.22" r="814.49" xlink:href="#radial-gradient"/>
    <radialGradient id="radial-gradient-12" cx="436.93" cy="698.44" fx="436.93" fy="698.44" r="229.11" xlink:href="#radial-gradient"/>
    <radialGradient id="radial-gradient-13" cx="436.93" cy="2031.77" fx="436.93" fy="2031.77" r="229.11" xlink:href="#radial-gradient"/>
    <radialGradient id="radial-gradient-14" cx="-80.11" cy="1017.36" fx="-80.11" fy="1017.36" r="468.41" xlink:href="#radial-gradient"/>
    <radialGradient id="radial-gradient-15" cx="-71.96" cy="1210.9" fx="-71.96" fy="1210.9" r="454.61" xlink:href="#radial-gradient"/>
    <radialGradient id="radial-gradient-16" cx="68.16" cy="1136.24" fx="68.16" fy="1136.24" r="390.41" xlink:href="#radial-gradient"/>
    <radialGradient id="radial-gradient-17" cx="99.34" cy="1389.02" fx="99.34" fy="1389.02" r="271.02" xlink:href="#radial-gradient"/>
    <radialGradient id="radial-gradient-18" cx="152.83" cy="1597.52" fx="152.83" fy="1597.52" r="311.23" xlink:href="#radial-gradient"/>
    <radialGradient id="radial-gradient-19" cx="78.29" cy="1695.55" fx="78.29" fy="1695.55" r="227.47" xlink:href="#radial-gradient"/>
    <radialGradient id="radial-gradient-20" cx="312.17" cy="1665.38" fx="312.17" fy="1665.38" r="210.57" xlink:href="#radial-gradient"/>
    <radialGradient id="radial-gradient-21" cx="331.8" cy="1543.43" fx="331.8" fy="1543.43" r="264.87" xlink:href="#radial-gradient"/>
    <radialGradient id="radial-gradient-22" cx="409.39" cy="1668.24" fx="409.39" fy="1668.24" r="710.07" xlink:href="#radial-gradient"/>
    <radialGradient id="radial-gradient-23" cx="417.74" cy="1261.95" fx="417.74" fy="1261.95" r="512.37" xlink:href="#radial-gradient"/>
    <radialGradient id="radial-gradient-24" cx="321.36" cy="1128.05" fx="321.36" fy="1128.05" r="669.08" xlink:href="#radial-gradient"/>
    <radialGradient id="radial-gradient-25" cx="635.76" cy="1126.82" fx="635.76" fy="1126.82" r="394.88" xlink:href="#radial-gradient"/>
    <radialGradient id="radial-gradient-26" cx="703.9" cy="1577.99" fx="703.9" fy="1577.99" r="577.55" xlink:href="#radial-gradient"/>
    <radialGradient id="radial-gradient-27" cx="539.08" cy="1710.17" fx="539.08" fy="1710.17" r="198.71" xlink:href="#radial-gradient"/>
    <radialGradient id="radial-gradient-28" cx="553.42" cy="1910.19" fx="553.42" fy="1910.19" r="344.64" xlink:href="#radial-gradient"/>
    <radialGradient id="radial-gradient-29" cx="838.21" cy="1721.77" fx="838.21" fy="1721.77" r="290.14" xlink:href="#radial-gradient"/>
    <radialGradient id="radial-gradient-30" cx="-3443.37" cy="1137.09" fx="-3443.37" fy="1137.09" r="158.09" gradientTransform="translate(259.96 -58.53) scale(.01 .25)" gradientUnits="userSpaceOnUse">
      <stop offset="0" stop-color="#f6f6fb"/>
      <stop offset=".26" stop-color="#aaabaf"/>
      <stop offset=".52" stop-color="#66686a"/>
      <stop offset=".74" stop-color="#343637"/>
      <stop offset=".91" stop-color="#151818"/>
      <stop offset="1" stop-color="#0a0d0d"/>
    </radialGradient>
    <radialGradient id="radial-gradient-31" cx="-15128.55" cy="703.92" fx="-15128.55" fy="703.92" r="129.45" gradientTransform="translate(237.93 -46.1) rotate(-48.09) scale(.01 .24) skewX(-62.91)" xlink:href="#radial-gradient-30"/>
    <radialGradient id="radial-gradient-32" cx="-17843.38" cy="-58.07" fx="-17843.38" fy="-58.07" r="158.09" gradientTransform="translate(230.2 -19.76) rotate(-90) scale(.01 .23)" xlink:href="#radial-gradient-30"/>
    <radialGradient id="radial-gradient-33" cx="-9978.24" cy="-702.25" fx="-9978.24" fy="-702.25" r="129.45" gradientTransform="translate(399.36 97) rotate(-83.79) scale(.01 .24) skewX(62.91)" xlink:href="#radial-gradient-30"/>
    <radialGradient id="radial-gradient-34" cx="-3.76" cy="1137.09" fx="-3.76" fy="1137.09" r="87.79" gradientTransform="translate(217.92 -58.53) scale(.23 .25)" gradientUnits="userSpaceOnUse">
      <stop offset=".38" stop-color="#f6f6fb"/>
      <stop offset=".54" stop-color="#aaabaf"/>
      <stop offset=".7" stop-color="#66686a"/>
      <stop offset=".84" stop-color="#343637"/>
      <stop offset=".94" stop-color="#151818"/>
      <stop offset="1" stop-color="#0a0d0d"/>
    </radialGradient>
    <radialGradient id="radial-gradient-35" cx="-7074.23" cy="1728.65" fx="-7074.23" fy="1728.65" r="138.87" xlink:href="#radial-gradient-30"/>
    <radialGradient id="radial-gradient-36" cx="-25277.56" cy="980.75" fx="-25277.56" fy="980.75" r="113.72" gradientTransform="translate(237.93 -46.1) rotate(-48.09) scale(.01 .24) skewX(-62.91)" xlink:href="#radial-gradient-30"/>
    <radialGradient id="radial-gradient-37" cx="-28579.52" cy="-258.13" fx="-28579.52" fy="-258.13" r="138.87" gradientTransform="translate(230.2 -19.76) rotate(-90) scale(.01 .23)" xlink:href="#radial-gradient-30"/>
    <radialGradient id="radial-gradient-38" cx="-14997.48" cy="-1262.02" fx="-14997.48" fy="-1262.02" r="113.72" gradientTransform="translate(241.35 4.78) rotate(-131.91) scale(.01 .24) skewX(62.91)" xlink:href="#radial-gradient-30"/>
    <radialGradient id="radial-gradient-39" cx="-203.82" cy="1728.65" fx="-203.82" fy="1728.65" r="77.12" xlink:href="#radial-gradient-34"/>
    <radialGradient id="radial-gradient-40" cx="7489.16" cy="1093.97" fx="7489.16" fy="1093.97" r="116.65" xlink:href="#radial-gradient-30"/>
    <radialGradient id="radial-gradient-41" cx="-6852.82" cy="1099.38" fx="-6852.82" fy="1099.38" r="95.52" gradientTransform="translate(443.06 -55.85) rotate(-6.21) scale(.01 .24) skewX(-62.91)" xlink:href="#radial-gradient-30"/>
    <radialGradient id="radial-gradient-42" cx="-17060.71" cy="544.31" fx="-17060.71" fy="544.31" r="116.65" gradientTransform="translate(230.2 -19.76) rotate(-90) scale(.01 .23)" xlink:href="#radial-gradient-30"/>
    <radialGradient id="radial-gradient-43" cx="-17148.21" cy="-245.81" fx="-17148.21" fy="-245.81" r="95.52" gradientTransform="translate(241.35 4.78) rotate(-131.91) scale(.01 .24) skewX(62.91)" xlink:href="#radial-gradient-30"/>
    <radialGradient id="radial-gradient-44" cx="598.63" cy="1093.97" fx="598.63" fy="1093.97" r="64.78" xlink:href="#radial-gradient-34"/>
    <radialGradient id="radial-gradient-45" cx="4197" cy="832.34" fx="4197" fy="832.34" r="82.9" xlink:href="#radial-gradient-30"/>
    <radialGradient id="radial-gradient-46" cx="-5824.22" cy="786.11" fx="-5824.22" fy="786.11" r="67.88" gradientTransform="translate(237.93 -46.1) rotate(-48.09) scale(.01 .24) skewX(-62.91)" xlink:href="#radial-gradient-30"/>
    <radialGradient id="radial-gradient-47" cx="-12312.46" cy="362.91" fx="-12312.46" fy="362.91" r="82.9" gradientTransform="translate(230.2 -19.76) rotate(-90) scale(.01 .23)" xlink:href="#radial-gradient-30"/>
    <radialGradient id="radial-gradient-48" cx="-11468.37" cy="-189.07" fx="-11468.37" fy="-189.07" r="67.88" gradientTransform="translate(241.35 4.78) rotate(-131.91) scale(.01 .24) skewX(62.91)" xlink:href="#radial-gradient-30"/>
    <radialGradient id="radial-gradient-49" cx="417.23" cy="832.34" fx="417.23" fy="832.34" r="46.04" xlink:href="#radial-gradient-34"/>
    <radialGradient id="radial-gradient-50" cx="10781.34" cy="1550.22" fx="10781.34" fy="1550.22" r="91.57" xlink:href="#radial-gradient-30"/>
    <radialGradient id="radial-gradient-51" cx="-10376.59" cy="1550.27" fx="-10376.59" fy="1550.27" r="74.98" gradientTransform="translate(237.93 -46.1) rotate(-48.09) scale(.01 .24) skewX(-62.91)" xlink:href="#radial-gradient-30"/>
    <radialGradient id="radial-gradient-52" cx="-25341.17" cy="725.71" fx="-25341.17" fy="725.71" r="91.57" gradientTransform="translate(230.2 -19.76) rotate(-90) scale(.01 .23)" xlink:href="#radial-gradient-30"/>
    <radialGradient id="radial-gradient-53" cx="-25323.23" cy="-440.16" fx="-25323.23" fy="-440.16" r="74.98" gradientTransform="translate(535.7 -.31) rotate(-83.79) scale(.01 .24) skewX(62.91)" xlink:href="#radial-gradient-30"/>
    <radialGradient id="radial-gradient-54" cx="780.03" cy="1550.22" fx="780.03" fy="1550.22" r="50.85" xlink:href="#radial-gradient-34"/>
  </defs>
  <g class="cls-59">
    <g id="Layer_1" data-name="Layer 1">
      <g class="cls-60">
        <polygon class="cls-57" points="130.31 88.34 431.68 88.34 431.68 424.16 130.31 424.16 130.31 88.34 130.31 88.34"/>
        <path class="cls-56" d="m279.83,146c-1.99,6.45-15.05,8.42-20.57,6.43-2.14-.78-4.64-2.25-6.82-2.89-4.35-1.27-7.84-1.45-12.2-2.68-5.41-1.52-10.04-6-15.57-6.85-4.13-.63-8.13,2.8-12.3,2.57-4.47-.25-10.89-6.79-13.07-10.92-.95-1.81-1.24-4.13-.96-6.21,1.31-9.92,5.03-21.78,11.34-29.13,1.23-1.43,3.42-1.37,5.19-1.29,2.81.13,5.53,1.19,8.26,1.93,5.98,1.62,11.86,3.7,17.87,5.14,5.34,1.28,11.1.68,16.15,3,4.7,2.16,9.07,5.68,12.3,10.07,4.51,6.13,7.88,13.35,10.38,20.77,1.06,3.14.98,6.89,0,10.07h0Zm101,203.78c.78,1.37,1.15,3.33.58,4.82-.53,1.35-2.1,1.93-3.36,2.36-5.2,1.74-10.46,3.49-15.86,4.07-1.77.19-3.57-.78-5.09-1.82-2.21-1.51-3.69-4.11-5.86-5.68-2.58-1.85-5.99-2.21-8.26-4.5-7.58-7.61-14.5-16.04-20.95-24.84-2.19-2.99-4.34-6.45-4.81-10.28-.26-2.12,1.27-4.41,2.88-5.57,5.47-3.93,11.53-6.84,17.68-9.21,6.72-2.59,10.4-1.49,14.61,4.93,8.22,12.54,20.93,32.64,28.45,45.72h0Zm3.08,9.96c1.24-.21,2.68.18,3.65,1.07,1.61,1.48,2.88,3.51,3.65,5.68.5,1.39.84,3.33,0,4.5-1.34,1.87-3.58,2.85-5.67,3.43-4.39,1.2-8.94,1.79-13.45,1.82-1.56,0-3.32-.48-4.42-1.71-1.95-2.17-3.43-4.98-4.23-7.92-.23-.85.78-1.78,1.54-2.03,6.2-2.08,12.53-3.76,18.93-4.82h0Zm-53.72-177.33c-1.54-.81-3.44-1.53-4.23-3.21-.43-.91.71-2.12,1.54-2.57,5.51-2.98,11.18-5.77,17.11-7.5,1.41-.41,3.34,0,4.23,1.28,1.58,2.3.78,12.32-.38,14.78-.86,1.82-2.78,3.71-4.61,3.43-4.87-.74-9.2-3.87-13.65-6.21h0Zm32.48,49.9c-1.58,2.61-4.29,5.26-7.11,5.14-5.66-.25-36.77-9.69-40.75-13.49-6.03-5.76-9.55-14.35-12.69-22.49-1.89-4.91-3.29-10.67-2.11-15.85.69-3.03,4.11-5.38,6.92-5.35,5.57.05,10.63,3.74,15.95,5.57,6.72,2.31,13.74,3.7,20.18,6.85,3.87,1.9,7.41,4.78,10.38,8.14,1.95,2.21,2.82,5.35,4.04,8.14,2.18,5,4.95,9.81,6.15,15.21.59,2.66.42,5.87-.96,8.14h0Zm4.42,32.77c-1.87,2.22-5,2.64-7.69,3.21-2.71.58-5.51.37-8.26.21-3.73-.2-7.72.38-11.15-1.28-2.83-1.37-4.52-4.69-6.53-7.28-.95-1.22-1.88-2.45-2.79-3.7-2.73-3.7-5.35-7.5-7.97-11.3-2.91-4.21-6.33-8.1-8.46-12.85-.39-.86.87-2.14,1.73-2.14,9.67,0,38.94,13.25,46.7,19.06,2.31,1.73,4.24,4.34,5.33,7.23.17.44.31.89.44,1.34.67,2.44.22,5.64-1.35,7.5h0Zm40.75,84.01c-4.95,3.36-15.85,5.2-20.95,2.14-5.94-3.57-19.7-26.08-23.26-32.98-4.94-9.58-9.47-19.48-13.07-29.77-.65-1.87-.55-4.43.58-6,4.17-5.77,18.85-21.37,24.6-9.85,3.11,6.23,4.42,13.45,7.5,19.7,4,8.15,8.87,15.74,13.65,23.35,4.64,7.39,10.61,13.79,14.61,21.63,1.71,3.36-.78,9.83-3.65,11.78h0Zm23.83-253.81l-.12-.15c-2.02-2.44-4.67-4.39-6.68-6.79h-5.91c4.18,4.66,8.52,9.42,12.59,13.98l.13.14v-7.17h0Zm-20.95,257.77c8.56-3.42,11.12-11.94,6.34-17.45-6.34-7.33-10.94-12.34-15.76-20.99-3.12-5.6-5.33-11.86-6.92-18.2-.29-1.17.46-3.06,1.54-3.21,5.07-.7,10.99,1.89,16.85,5.3,8.96,5.22,14.19,8.65,18.68,11.11l.22.12v-9.8l-.22-.13c-6.41-3.74-13.11-7.86-21.25-11.66-4.27-1.99-8.32-3.52-11.6-3.9-6.98-.8-19.54-15.94-25.68-27.99-1.67-3.28-2.87-6.01-3.34-7.66-1.58-5.46-1.68-10.99-2.11-16.7-.48-6.31-1.92-12.63-4.23-18.42-2.87-7.2-4.75-13.29-7.5-20.56-2.7-7.15-5.34-26.9-1.15-33.41,4.52-7.04,11.57-11.83,18.45-15.85,8.86-5.18,13.7-2.21,21.53.86,4.09,1.6,8.8,1.86,12.3,4.71,4.59,3.73,6.88,10.17,11.15,14.35,2.2,2.15,5.05,3.47,7.88,4.28,2.45.7,4.12.86,5.62.75h.16v-8.93l-.15.05c-18.35,5.73-12.64-17.14-24.46-30.42-3.97-4.46-10.48-4.16-14.99-7.92-2.92-2.44-4.13-8.7-7.3-10.71-5.29-3.35-7.83-2.94-9.99-4.17-1.1-.62-10.7-12.6-12.81-18.03l-.05-.12h-4.74l.04.13c3.04,10.79,12.27,20.96,15.06,35.27,1.22,6.27-1.73,10.8-5.38,15.21-3.05,3.68-19.81,22.19-22.49,24.2-5.82,4.37-12.57,6.99-19.03,10.07-5.31,2.53-12.98,5.66-18.26,1.29-10.81-8.96-24.83-39.73-24.22-53.76.75-17.13,16.71-22.5,18.97-32.21.02-.06.03-.12.04-.18h-13.89c.07.06.14.13.21.2,1.82,1.73,2.09,4.15-1.75,7.89-1.44,1.4-3.34,2.71-5.49,3.82-4.32,2.24-9.62,3.7-14.04,3.57-2.47-.07-5.05-.35-7.3-1.5-3.88-1.98-6.79-5.98-10.76-7.71-2.94-1.28-6.31-.44-9.42-1.07-2.65-.54-6.11-.92-9.32-1.75-2.66-.68-5.42-1.43-6.73-3.18-.06-.08-.12-.17-.18-.26h-14.34c-.06.09-.12.18-.17.27-1.59,2.58-2.23,5.77-3.68,8.46-8.8,16.4-6.55,11.64-11.34,29.66-.59,2.22-1,4.58-2.11,6.53-.84,1.47-2.27,2.43-3.56,3.42-5.1,3.92-18.62,7.1-23.83,1.61-2.37-2.5-3.78-5.96-5.96-8.67-9.3-11.54-18.47-21.44-27.48-33.73-.15-.21-.31-.41-.47-.61v7.17c1.35,1.51,18.79,24.78,21.42,29.42,1.29,2.27,2.54,4.73,2.88,7.39.2,1.56-.34,3.39-1.35,4.5-2.29,2.52-5.49,3.76-8.07,5.89-1.98,1.62-8.23,7.9-14.89,10.02v8.91c1.96-.17,3.68-.79,6.57-1.19,1.59-.22,3.55-.03,6.87,1.31,2.99,1.21,6.06,2.44,8.65,4.5,5.98,4.74,8.39,7.16,5.86,17.67-2.22,9.22-3.74,18.65-6.34,27.74-1.61,5.6-4.55,10.55-1.48,15.85,1.54,2.66,2.91,5.45,4.42,8.14,2.21,3.95,4.05,8.21,6.73,11.78.47.63.95,1.26,1.44,1.87,4.44,5.64,9.43,10.74,14.13,16.12,6.57,7.52,13.68,14.5,19.8,22.49.75.98,1.05,2.8.38,3.86-1.67,2.66-4.11,4.78-6.73,6.21-5.56,3.05-11.3,6.76-17.49,7.07-18.92.95-30.35-4.82-42.81-12.07v9.8c7.52,4.09,13.09,5.48,31.04,8.1,5.03.74,10.31.43,15.28,1.61,5.69,1.34,11.39,3.18,16.53,6.21,6.7,3.96,12.47,9.65,18.64,14.56,15.7,12.49,33.96,15.97,40.96,31.57,4.07,9.08,7.77,20.93,7.86,25.61.02.91-.72,2.15-1.54,2.14-4.29-.06-8.41-2.01-12.69-2.36-23.56-1.91-23.55,13.66-28.45,17.35-3.45,2.6-6.57,5.86-9.03,9.64h14.34c-.74-1.18-.87-2.77.01-5.03,2.82-7.19,13.73-17.74,23.52-14.88,7.92,2.31,20.72,1.27,25.37,10.92,1.02,2.11,5.06,4.01,8.84,5.53l.82.33c2.12.84,4.65,1.77,6.21,3.13h13.89c2.19-10.3,9.4-29.04,15.88-28.7,6.17.33,33.65,2.72,35.84,7.18.96,1.94,1.9,15.6,3.54,21.52h4.74c-2.72-7.26-5.65-18.88-4.63-24.2.93-4.84,4.56-17.81,9.61-19.06,5.55-1.37,18.11-4.21,22.49.86,4.49,5.21,9.16,15.55,13.07,21.85,4.31,6.95,12.23,15.6,16.5,20.56h5.91c-9.94-11.72-27.93-27.51-29.14-47.33-.29-4.68.25-10.05,2.88-13.71,3.76-5.22-.3-5.11,12.11-10.07h0Zm-129.74-197.85c7.42,1.17,8.69,6.98,13.26,14.58,1.1,1.83,3.33,3.64,2.88,5.78-.58,2.8-3.04,5-5.38,6.21-2.63,1.37-5.76,1.37-8.65,1.07-.72-.08-1.42-.26-2.11-.54-1.23-.49-2.4-1.23-3.47-2.03-3.13-2.35-6.37-4.79-8.65-8.14-2.25-3.31-4-7.25-4.61-11.35-.2-1.29,1.41-2.29,2.5-2.78,3.31-1.49,6.81-2.88,10.38-3,1.45-.05,2.72.02,3.85.2h0Zm0,31.81c2.52,1.22,5.19,2.43,7.1,4.61,3.59,4.1,6.17,9.17,9.03,13.92,3.42,5.67,7.22,11.15,9.8,17.35.46,1.11-.18,2.87-1.15,3.43-1.42.82-3.26.45-4.81,0-6.58-1.92-12.98-4.6-19.41-7.07-.18-.07-.38-.13-.57-.19-1.07-.33-2.24-.58-2.89-1.52-1.79-2.57-2.87-5.71-3.84-8.78-1.15-3.61-1.97-7.36-2.5-11.14-.56-3.96-1.47-8.06-.77-11.99.21-1.15,2.02-.99,3.07-.86,2.32.3,4.59,1.1,6.73,2.14l.2.1h0Zm0,36.96c5.95.92,14.83,3.4,20.27,5.35,3.16,1.13,6.6,2.4,8.84,5.14,5.13,6.28,7.9,14.59,12.69,21.2.14.2.29.39.44.59,3.54,4.65,8.22,8.13,11.86,12.69,1.94,2.43,4.25,4.95,4.81,8.14.56,3.22-.73,6.55-1.73,9.64-1.08,3.34-1.87,7.31-4.42,9.42-4.13,3.43-9.54,4.34-14.42,6.21-3.15,1.21-6.32,3.5-9.61,3-4.17-.64-7.06-3.02-10.76-5.25-2.96-1.78-9.09-2.04-11.34-4.82-3.26-4.03-4.43-9.06-6.62-13.61-.74-1.53-1.6-3.01-2.7-4.38-2.88-3.59-6.67-7.3-9.9-10.5-2.95-2.92-5.14-6.69-7.88-9.85l-.61-.7c-7.32-8.44-15.03-16.46-22.27-25-5.51-6.51-10.45-13.61-15.95-20.13-3.35-3.98-7.4-7.19-10.57-11.35-3.01-3.95-5.86-8.18-7.88-12.85-1.43-3.31-1.37-7.19-2.31-10.71-.74-2.77-4.28-7.71-4.23-10.6.07-3.43,2.2-12.42,8.84-12.53,2.42-.04,4.85.74,7.11,1.71,5.08,2.18,9.74,5.46,14.8,7.71,1.7.76,3.55,1.37,5.38,1.28,4.46-.2,8.8-2.1,13.26-2.14,11.53-.11,15.29,3.74,19.22,15.42.79,2.36.82,4.98.96,7.5.18,3.28-.57,6.63,0,9.85.79,4.52,2.81,8.67,4.04,13.07,1.14,4.1,3.18,8.13,3.08,12.42-.13,5.45-5.9,14.69-5.96,24.2-.01,1.81,1.43,2.59,2.11.43,1.3-4.11,2.97-18.45,6.47-20.27.95-.49,2.27-.66,4.2-.4.25.03.51.07.78.11h0Zm0,69.44c1.59,1.42,3.21,2.76,4.7,4.02,4.95,4.16,9.27,7.2,14.61,10.71,8.66,5.7,8.5,5.99,15.18,13.71,6.8,7.85,14.07,15.19,20.57,23.34.7.88,1.6,2.7.77,3.43-1.42,1.25-3.61,1-5.38.64-9.01-1.8-17.75-5.02-26.72-7.07-5.4-1.24-10.84-2.52-16.34-2.78-2.45-.12-4.93-.15-7.39.04-2.38.18-4.73.56-7.02,1.24-4.79,1.43-8.96,4.75-13.45,7.07-3.86,1.99-8.82,6.86-12.49.43-2.26-3.96-2.6-8.95-4.23-13.28-1.52-4.03-2.7-8.39-5.19-11.78-3.96-5.4-9.43-9.18-13.84-14.13-2.91-3.27-5.98-6.52-8.07-10.5-.84-1.6-.81-3.77-.38-5.57.39-1.63,1.55-2.96,2.69-4.07,10.31-10.05,14.73-10.13,21.23-11.71,9.46-2.29,16.56-8.64,18.59-8.87,6-.66,6.63,2.22,9.01,6.32,2.27,3.92,4.13,8.23,6.71,11.9,1.73,2.46,4.05,4.77,6.45,6.91h0Zm0,48.72c10.4-.86,21.2,5.51,31.52,7.18,14.65,2.37,33.87,3.97,45.36,16.28,1.8,1.92,4.66,9.48,3.84,12.42-1.19,4.3-3.63,13.96-7.5,16.06-7.51,4.07-27.39-.59-36.33-.32-2.35.07-4.73.99-6.34,2.89-4.1,4.84-5.89,11.88-10.38,16.28-4.2,4.12-14.75,2.12-20.18.15-.34-.12-.66-.25-.96-.37-2.64-1.08-5.49-2.66-6.92-5.35-6.86-12.88-12.43-26.6-17.49-40.48-.84-2.31-1.1-5.32,0-7.5,2.8-5.53,12.24-16.1,25.27-17.24h.1Zm-29.41-183.17c-3.37,0-6.72-.66-10.09-.64-3.15.02-6.27.77-9.42.75-1.84-.01-4.13.5-5.86-.21-1.04-.43-16.53-8.14-15.38-10.07.77-1.29,2.39-1.68,3.75-2.04,2.86-.76,5.8-1.3,8.75-1.28,2.56.02,5.15.51,7.59,1.39,2.36.85,4.35,2.66,6.63,3.75,1.26.6,2.58,1.12,3.94,1.29,3.06.37,6.19-.24,9.23.32,6.94,1.28,8.16,6.75.86,6.75h0Zm-56.6,2.03c-.58,3.62.17,7.39-.29,11.03-.64,5.13-4.42,4.99-8.46,5.14-4.06.15-17.89-2.06-19.41-1.71-4.63,1.07-3.25,4.78-7.42-.31-6.08-7.43-10.21-7.61-16.51-12.22-1.49-1.09-2.27-2.34-1.15-4.28,1.07-1.85,2.43-3.51,3.94-4.92,2.55-2.39,5.31-4.51,8.17-6.43,7.8-5.24,10.73-1.77,18.55-2.14,7.43-.35,11.54-3.54,17.97-5.14.95-.24,2.14-.26,2.88.43,1.47,1.36,2.41,3.35,3.27,5.25.76,1.67,1.72,3.49,1.54,5.36-.35,3.49-2.52,6.5-3.07,9.96h0Zm59.68,95.95c1.06,1.38,1.76,3.22,1.92,5.03.12,1.31-.41,2.72-1.15,3.75-1,1.39-2.36,2.55-3.84,3.21-6.36,2.83-13.19,4.23-19.51,7.17-4.46,2.08-8.48,5.17-12.69,7.82-3.32,2.1-6.31,4.98-9.9,6.43-2.08.84-4.44.52-6.63.21-2.15-.3-4.41-.74-6.25-2.03-2.99-2.11-5.44-5.07-7.88-7.92-5.49-6.43-10.64-13.22-15.86-19.92-1.17-1.51-2.39-2.98-3.62-4.45-3.19-3.82-6.4-7.64-8.87-12.05-2.31-4.12-3.57-8.94-4.42-13.71-.71-3.99-.64-8.17-.19-12.21.65-5.84,2.03-11.57,3.46-17.24,1.11-4.41,2.33-8.84,4.13-12.96.35-.8,1.31-1.25,2.11-1.28,4.66-.2,2.94,2.31,8.94-.43,4.08-1.86,10.53-6.28,15.18-5.35,1.78.35,3.56.98,5.09,2.03,1.39.96,2.53,2.36,3.46,3.86,1.65,2.65,2.92,5.58,4.23,8.46,2.15,4.73,3.67,9.83,6.15,14.35,2.48,4.52,5.24,8.95,8.65,12.64,3.07,3.32,7.07,5.38,10.57,8.14,4.12,3.24,8.51,6.13,12.3,9.85,5.01,4.92,9.73,10.25,14.07,15.9l.54.7h0Zm-55.59,46.04c3.52-2.12,6.41-2.34,9.61.64,5.82,5.43,11.19,11.44,16.53,17.46,3.38,3.81,6.72,7.71,9.61,11.99,3.4,5.03,6.64,10.25,9.23,15.85,10.13,21.9-49.58-24.68-49.97-24.95-15.41-10.57-7.4-13.52,5-20.99h0Z"/>
        <path class="cls-58" d="m282.15,366.49c1.99-6.45,15.05-8.42,20.57-6.43,2.14.78,4.64,2.25,6.82,2.89,4.35,1.27,7.84,1.45,12.2,2.68,5.41,1.52,10.04,6,15.57,6.85,4.13.63,8.13-2.8,12.3-2.57,4.47.25,10.89,6.79,13.07,10.92.95,1.81,1.24,4.13.96,6.21-1.31,9.92-5.03,21.78-11.34,29.13-1.23,1.43-3.42,1.37-5.19,1.29-2.81-.13-5.53-1.19-8.26-1.93-5.98-1.62-11.86-3.7-17.87-5.14-5.34-1.28-11.1-.68-16.15-3-4.7-2.16-9.07-5.68-12.3-10.07-4.51-6.13-7.88-13.35-10.38-20.77-1.06-3.14-.98-6.89,0-10.07h0Zm-101-203.78c-.78-1.37-1.15-3.33-.58-4.82.53-1.35,2.1-1.93,3.36-2.36,5.2-1.74,10.46-3.49,15.86-4.07,1.77-.19,3.57.78,5.09,1.82,2.21,1.51,3.69,4.11,5.86,5.68,2.58,1.85,5.99,2.21,8.26,4.5,7.58,7.61,14.5,16.04,20.95,24.84,2.19,2.99,4.34,6.45,4.81,10.28.26,2.12-1.27,4.41-2.88,5.57-5.47,3.93-11.53,6.84-17.68,9.21-6.72,2.59-10.4,1.49-14.61-4.93-8.22-12.54-20.93-32.64-28.45-45.72h0Zm-3.08-9.96c-1.24.21-2.68-.18-3.65-1.07-1.61-1.49-2.88-3.51-3.65-5.68-.5-1.39-.84-3.33,0-4.5,1.34-1.87,3.58-2.85,5.67-3.43,4.39-1.2,8.94-1.79,13.45-1.82,1.56,0,3.32.48,4.42,1.71,1.95,2.17,3.43,4.98,4.23,7.92.23.85-.78,1.78-1.54,2.03-6.2,2.08-12.53,3.76-18.93,4.82h0Zm53.72,177.33c1.54.81,3.44,1.53,4.23,3.21.43.91-.71,2.12-1.54,2.57-5.51,2.98-11.18,5.77-17.11,7.5-1.41.41-3.34,0-4.23-1.28-1.58-2.3-.78-12.32.38-14.78.86-1.82,2.78-3.71,4.61-3.43,4.87.74,9.2,3.87,13.65,6.21h0Zm-32.48-49.9c1.58-2.61,4.29-5.26,7.11-5.14,5.66.25,36.77,9.69,40.75,13.49,6.03,5.76,9.55,14.35,12.69,22.49,1.89,4.91,3.29,10.67,2.11,15.85-.69,3.03-4.11,5.38-6.92,5.35-5.57-.05-10.63-3.74-15.95-5.57-6.72-2.31-13.74-3.7-20.18-6.85-3.87-1.9-7.41-4.78-10.38-8.14-1.95-2.21-2.82-5.35-4.04-8.14-2.18-5-4.95-9.81-6.15-15.21-.59-2.66-.42-5.87.96-8.14h0Zm-4.42-32.77c1.87-2.22,5-2.64,7.69-3.21,2.71-.58,5.51-.37,8.26-.21,3.73.2,7.72-.38,11.15,1.28,2.83,1.37,4.52,4.69,6.53,7.28.95,1.22,1.88,2.45,2.79,3.7,2.73,3.7,5.35,7.5,7.97,11.3,2.91,4.21,6.33,8.1,8.46,12.85.39.86-.87,2.14-1.73,2.14-9.67,0-38.94-13.25-46.7-19.06-2.31-1.73-4.24-4.34-5.33-7.23-.17-.44-.31-.89-.44-1.34-.67-2.44-.22-5.64,1.35-7.5h0Zm-40.75-84.01c4.95-3.36,15.85-5.2,20.95-2.14,5.94,3.57,19.7,26.08,23.26,32.98,4.94,9.58,9.47,19.48,13.07,29.77.65,1.87.55,4.43-.58,6-4.17,5.77-18.85,21.37-24.6,9.85-3.11-6.23-4.42-13.45-7.5-19.7-4-8.15-8.87-15.74-13.65-23.35-4.64-7.39-10.61-13.79-14.61-21.63-1.71-3.36.78-9.83,3.65-11.78h0Zm-23.83,253.81l.12.15c2.02,2.44,4.67,4.39,6.68,6.79h5.91c-4.18-4.66-8.52-9.42-12.59-13.98l-.13-.14v7.17h0Zm20.95-257.77c-8.56,3.42-11.12,11.94-6.34,17.45,6.34,7.33,10.94,12.34,15.76,20.99,3.12,5.6,5.33,11.86,6.92,18.2.29,1.17-.46,3.06-1.54,3.21-5.07.7-10.99-1.89-16.85-5.3-8.96-5.22-14.19-8.65-18.68-11.11l-.22-.12v9.8l.22.13c6.41,3.74,13.11,7.86,21.25,11.66,4.27,1.99,8.32,3.52,11.6,3.9,6.98.8,19.54,15.94,25.68,27.99,1.67,3.28,2.87,6.01,3.34,7.66,1.58,5.46,1.68,10.99,2.11,16.7.48,6.32,1.92,12.63,4.23,18.42,2.87,7.2,4.75,13.29,7.5,20.56,2.7,7.15,5.34,26.9,1.15,33.41-4.52,7.04-11.57,11.83-18.45,15.85-8.86,5.18-13.7,2.21-21.53-.86-4.09-1.6-8.8-1.86-12.3-4.71-4.59-3.73-6.88-10.17-11.15-14.35-2.2-2.15-5.05-3.47-7.88-4.28-2.45-.7-4.12-.86-5.62-.75h-.16v8.93l.15-.05c18.35-5.73,12.64,17.14,24.46,30.42,3.97,4.46,10.48,4.16,14.99,7.92,2.92,2.44,4.13,8.7,7.3,10.71,5.29,3.35,7.83,2.94,9.99,4.17,1.1.62,10.7,12.6,12.81,18.03l.05.12h4.74l-.04-.13c-3.04-10.79-12.27-20.96-15.06-35.27-1.22-6.27,1.73-10.8,5.38-15.21,3.05-3.68,19.81-22.19,22.49-24.2,5.82-4.37,12.57-6.99,19.03-10.07,5.31-2.53,12.98-5.66,18.26-1.29,10.81,8.96,24.83,39.73,24.22,53.76-.75,17.13-16.71,22.5-18.97,32.21-.02.06-.03.12-.04.18h13.89c-.07-.06-.14-.13-.21-.2-1.82-1.73-2.09-4.15,1.75-7.89,1.44-1.4,3.34-2.71,5.49-3.82,4.32-2.24,9.62-3.7,14.04-3.57,2.47.07,5.05.35,7.3,1.5,3.88,1.98,6.79,5.98,10.76,7.71,2.94,1.28,6.31.44,9.42,1.07,2.65.54,6.11.92,9.32,1.75,2.66.68,5.42,1.43,6.73,3.18.06.08.12.17.18.26h14.34c.06-.09.12-.18.17-.27,1.59-2.58,2.23-5.77,3.68-8.46,8.8-16.4,6.55-11.64,11.34-29.66.59-2.22,1-4.58,2.11-6.53.84-1.47,2.27-2.43,3.56-3.42,5.1-3.92,18.62-7.1,23.83-1.61,2.37,2.5,3.78,5.96,5.96,8.67,9.3,11.54,18.47,21.44,27.48,33.73.15.21.31.41.47.61v-7.17c-1.35-1.51-18.79-24.78-21.42-29.42-1.29-2.27-2.54-4.73-2.88-7.39-.2-1.56.34-3.39,1.35-4.5,2.29-2.52,5.49-3.76,8.07-5.89,1.98-1.62,8.23-7.9,14.89-10.02v-8.91c-1.96.17-3.68.79-6.57,1.19-1.59.22-3.55.03-6.87-1.31-2.99-1.21-6.06-2.44-8.65-4.5-5.98-4.74-8.39-7.16-5.86-17.67,2.22-9.22,3.74-18.65,6.34-27.74,1.61-5.6,4.55-10.55,1.48-15.85-1.54-2.66-2.91-5.45-4.42-8.14-2.21-3.95-4.05-8.21-6.73-11.78-.47-.63-.95-1.26-1.44-1.87-4.44-5.64-9.43-10.74-14.13-16.12-6.57-7.52-13.68-14.5-19.8-22.49-.75-.98-1.05-2.8-.38-3.86,1.67-2.66,4.11-4.78,6.73-6.21,5.56-3.05,11.3-6.76,17.49-7.07,18.92-.95,30.35,4.82,42.81,12.07v-9.8c-7.52-4.09-13.09-5.48-31.04-8.1-5.03-.74-10.31-.43-15.28-1.61-5.69-1.34-11.39-3.18-16.53-6.21-6.7-3.96-12.47-9.65-18.64-14.56-15.7-12.49-33.96-15.97-40.96-31.57-4.07-9.08-7.77-20.93-7.86-25.61-.02-.91.72-2.15,1.54-2.14,4.29.06,8.41,2.01,12.69,2.36,23.56,1.91,23.55-13.66,28.45-17.35,3.45-2.6,6.57-5.86,9.03-9.64h-14.34c.74,1.18.87,2.77-.01,5.03-2.82,7.19-13.73,17.74-23.52,14.88-7.92-2.31-20.72-1.27-25.37-10.92-1.02-2.11-5.06-4.01-8.84-5.53l-.82-.33c-2.12-.84-4.65-1.77-6.21-3.13h-13.89c-2.19,10.3-9.4,29.04-15.88,28.7-6.17-.33-33.65-2.72-35.84-7.18-.96-1.94-1.9-15.6-3.54-21.52h-4.74c2.72,7.26,5.65,18.88,4.63,24.2-.93,4.84-4.56,17.81-9.61,19.06-5.55,1.37-18.11,4.21-22.49-.86-4.49-5.21-9.16-15.55-13.07-21.85-4.31-6.95-12.23-15.6-16.5-20.56h-5.91c9.94,11.72,27.93,27.51,29.14,47.33.29,4.68-.25,10.05-2.88,13.71-3.76,5.22.3,5.11-12.11,10.07h0Zm129.74,197.85c-7.42-1.17-8.69-6.98-13.26-14.58-1.1-1.83-3.33-3.64-2.88-5.78.58-2.8,3.04-5,5.38-6.21,2.63-1.37,5.76-1.37,8.65-1.07.72.08,1.42.26,2.11.54,1.23.49,2.4,1.23,3.47,2.03,3.13,2.35,6.37,4.79,8.65,8.14,2.25,3.31,4,7.25,4.61,11.35.2,1.29-1.41,2.29-2.5,2.78-3.31,1.49-6.81,2.88-10.38,3-1.45.05-2.72-.02-3.85-.2h0Zm0-31.81c-2.52-1.22-5.19-2.43-7.1-4.61-3.59-4.1-6.17-9.17-9.03-13.92-3.42-5.67-7.22-11.15-9.8-17.35-.46-1.11.18-2.87,1.15-3.43,1.42-.82,3.26-.45,4.81,0,6.58,1.92,12.98,4.6,19.41,7.07.18.07.38.13.57.19,1.07.33,2.24.58,2.89,1.52,1.79,2.57,2.87,5.71,3.84,8.78,1.15,3.61,1.97,7.36,2.5,11.14.56,3.96,1.47,8.06.77,11.99-.21,1.15-2.02.99-3.07.86-2.32-.3-4.59-1.1-6.73-2.14l-.2-.1h0Zm0-36.96c-5.95-.92-14.83-3.4-20.27-5.35-3.16-1.13-6.6-2.4-8.84-5.14-5.13-6.28-7.9-14.59-12.69-21.2-.14-.2-.29-.39-.44-.59-3.54-4.65-8.22-8.13-11.86-12.69-1.94-2.43-4.25-4.95-4.8-8.14-.56-3.22.73-6.55,1.73-9.64,1.08-3.34,1.87-7.31,4.42-9.42,4.13-3.43,9.54-4.34,14.42-6.21,3.15-1.21,6.32-3.5,9.61-3,4.17.64,7.06,3.02,10.76,5.25,2.96,1.78,9.09,2.04,11.34,4.82,3.26,4.03,4.43,9.06,6.62,13.61.74,1.53,1.6,3.01,2.7,4.38,2.88,3.59,6.67,7.3,9.9,10.5,2.95,2.92,5.14,6.69,7.88,9.85l.61.7c7.32,8.44,15.03,16.46,22.27,25,5.51,6.51,10.45,13.61,15.95,20.13,3.35,3.98,7.4,7.19,10.57,11.35,3.01,3.95,5.86,8.18,7.88,12.85,1.43,3.31,1.37,7.19,2.31,10.71.74,2.77,4.28,7.71,4.23,10.6-.07,3.43-2.2,12.42-8.84,12.53-2.42.04-4.85-.74-7.11-1.71-5.08-2.18-9.74-5.46-14.8-7.71-1.7-.76-3.55-1.37-5.38-1.28-4.46.2-8.8,2.1-13.26,2.14-11.53.11-15.29-3.74-19.22-15.42-.79-2.36-.82-4.98-.96-7.5-.18-3.28.57-6.63,0-9.85-.79-4.52-2.81-8.67-4.04-13.07-1.14-4.1-3.18-8.13-3.08-12.42.13-5.45,5.9-14.69,5.96-24.2.01-1.81-1.43-2.59-2.11-.43-1.3,4.11-2.97,18.45-6.47,20.27-.95.5-2.27.66-4.2.4-.25-.03-.51-.07-.78-.11h0Zm0-69.44c-1.59-1.42-3.21-2.76-4.7-4.02-4.95-4.16-9.27-7.2-14.61-10.71-8.66-5.7-8.5-5.99-15.18-13.71-6.8-7.85-14.07-15.19-20.57-23.34-.7-.88-1.6-2.7-.77-3.43,1.42-1.25,3.61-1,5.38-.64,9.01,1.8,17.75,5.02,26.72,7.07,5.4,1.24,10.84,2.52,16.34,2.78,2.45.12,4.93.15,7.39-.04,2.38-.18,4.73-.56,7.02-1.24,4.79-1.43,8.96-4.75,13.45-7.07,3.86-1.99,8.82-6.86,12.49-.43,2.26,3.96,2.6,8.95,4.23,13.28,1.52,4.03,2.7,8.39,5.19,11.78,3.96,5.4,9.43,9.18,13.84,14.13,2.91,3.27,5.98,6.52,8.07,10.5.84,1.6.81,3.77.38,5.57-.39,1.63-1.55,2.96-2.69,4.07-10.31,10.05-14.73,10.13-21.23,11.71-9.46,2.29-16.56,8.64-18.59,8.87-6,.66-6.63-2.22-9.01-6.32-2.27-3.92-4.13-8.23-6.71-11.9-1.73-2.46-4.05-4.77-6.45-6.91h0Zm0-48.72c-10.4.86-21.2-5.51-31.52-7.18-14.65-2.37-33.87-3.97-45.36-16.28-1.8-1.92-4.66-9.48-3.84-12.42,1.19-4.3,3.63-13.96,7.5-16.06,7.51-4.07,27.39.59,36.33.32,2.35-.07,4.73-.99,6.34-2.89,4.1-4.84,5.89-11.88,10.38-16.28,4.2-4.12,14.75-2.12,20.18-.15.34.12.66.25.96.37,2.64,1.08,5.49,2.66,6.92,5.35,6.86,12.88,12.43,26.6,17.49,40.48.84,2.31,1.1,5.32,0,7.5-2.8,5.53-12.24,16.1-25.27,17.24h-.1Zm29.41,183.17c3.37,0,6.72.66,10.09.64,3.15-.02,6.27-.77,9.42-.75,1.84.01,4.13-.5,5.86.21,1.04.43,16.53,8.14,15.38,10.07-.77,1.29-2.39,1.68-3.75,2.04-2.86.76-5.8,1.3-8.75,1.28-2.56-.02-5.15-.51-7.59-1.39-2.36-.85-4.35-2.66-6.63-3.75-1.26-.6-2.58-1.12-3.94-1.29-3.06-.37-6.19.24-9.23-.32-6.94-1.28-8.16-6.75-.86-6.75h0Zm56.6-2.03c.58-3.62-.17-7.39.29-11.03.64-5.13,4.42-4.99,8.46-5.14,4.06-.15,17.89,2.06,19.41,1.71,4.63-1.07,3.25-4.78,7.42.31,6.08,7.43,10.21,7.61,16.51,12.22,1.49,1.09,2.27,2.34,1.15,4.28-1.07,1.85-2.43,3.51-3.94,4.92-2.55,2.39-5.31,4.51-8.17,6.43-7.8,5.24-10.73,1.77-18.55,2.14-7.43.35-11.54,3.54-17.97,5.14-.95.24-2.14.26-2.88-.43-1.47-1.36-2.41-3.35-3.27-5.25-.76-1.67-1.72-3.49-1.54-5.36.35-3.49,2.52-6.5,3.07-9.96h0Zm-59.68-95.95c-1.06-1.38-1.76-3.22-1.92-5.03-.12-1.31.41-2.72,1.15-3.75,1-1.39,2.36-2.55,3.84-3.21,6.36-2.83,13.19-4.23,19.51-7.17,4.46-2.08,8.48-5.17,12.69-7.82,3.32-2.1,6.31-4.98,9.9-6.43,2.08-.84,4.44-.52,6.63-.21,2.15.3,4.41.74,6.25,2.03,2.99,2.11,5.44,5.07,7.88,7.92,5.49,6.43,10.64,13.22,15.86,19.92,1.17,1.51,2.39,2.98,3.62,4.45,3.19,3.82,6.4,7.64,8.87,12.05,2.31,4.12,3.57,8.94,4.42,13.71.71,3.99.64,8.17.19,12.21-.65,5.84-2.03,11.57-3.46,17.24-1.11,4.41-2.33,8.84-4.13,12.96-.35.8-1.31,1.25-2.11,1.28-4.66.2-2.94-2.31-8.94.43-4.08,1.86-10.53,6.28-15.18,5.35-1.78-.35-3.56-.98-5.09-2.03-1.39-.96-2.53-2.36-3.46-3.86-1.65-2.65-2.92-5.58-4.23-8.46-2.15-4.73-3.67-9.83-6.15-14.35-2.48-4.52-5.24-8.95-8.65-12.64-3.07-3.32-7.07-5.38-10.57-8.14-4.12-3.24-8.51-6.13-12.3-9.85-5.01-4.92-9.73-10.25-14.07-15.9l-.54-.7h0Zm55.59-46.04c-3.52,2.12-6.41,2.34-9.61-.64-5.82-5.43-11.19-11.44-16.53-17.46-3.38-3.81-6.72-7.71-9.61-11.99-3.4-5.03-6.64-10.25-9.23-15.85-10.13-21.9,49.58,24.68,49.97,24.95,15.41,10.57,7.4,13.52-5,20.99h0Z"/>
        <path class="cls-53" d="m130.31,202.77l.22.12c4.49,2.46,9.72,5.89,18.68,11.11,5.86,3.41,11.78,6,16.85,5.3,1.08-.15,1.83-2.04,1.54-3.21-1.59-6.35-3.8-12.61-6.92-18.2-4.82-8.65-9.42-13.66-15.76-20.99-4.77-5.51-2.21-14.04,6.34-17.45,12.41-4.95,8.35-4.84,12.11-10.07,2.63-3.66,3.17-9.03,2.88-13.71-1.21-19.82-19.2-35.61-29.14-47.33-2.01-2.4-4.66-4.35-6.68-6.79l-.12-.15c-.16-.2-.32-.4-.47-.61-9.02-12.29-18.19-22.2-27.48-33.73-2.18-2.71-3.58-6.17-5.96-8.67-5.22-5.5-18.73-2.31-23.83,1.61-1.29.99-2.72,1.95-3.56,3.43-1.11,1.95-1.52,4.31-2.11,6.53-4.79,18.02-2.54,13.27-11.34,29.66-1.44,2.69-2.09,5.88-3.68,8.46-.06.09-.11.18-.17.27-2.46,3.77-5.58,7.04-9.03,9.64-4.9,3.68-4.89,19.26-28.45,17.35-4.28-.35-8.4-2.29-12.69-2.36-.82-.01-1.55,1.23-1.54,2.14.09,4.69,3.78,16.53,7.86,25.61,7,15.6,25.26,19.08,40.96,31.57,6.18,4.92,11.94,10.6,18.64,14.56,5.14,3.03,10.84,4.87,16.53,6.21,4.96,1.17,10.25.87,15.28,1.61,17.95,2.62,23.51,4.01,31.04,8.1h0Z"/>
        <path class="cls-38" d="m431.68,202.77l.22.12c4.49,2.46,9.72,5.89,18.68,11.11,5.86,3.41,11.78,6,16.85,5.3,1.08-.15,1.83-2.04,1.54-3.21-1.59-6.35-3.8-12.61-6.92-18.2-4.82-8.65-9.42-13.66-15.76-20.99-4.77-5.51-2.21-14.04,6.34-17.45,12.41-4.95,8.35-4.84,12.11-10.07,2.63-3.66,3.17-9.03,2.88-13.71-1.21-19.82-19.2-35.61-29.14-47.33-2.01-2.4-4.66-4.35-6.68-6.79l-.12-.15c-.16-.2-.32-.4-.47-.61-9.02-12.29-18.19-22.2-27.48-33.73-2.18-2.71-3.58-6.17-5.96-8.67-5.22-5.5-18.73-2.31-23.83,1.61-1.29.99-2.72,1.95-3.56,3.43-1.11,1.95-1.52,4.31-2.11,6.53-4.79,18.02-2.54,13.27-11.34,29.66-1.44,2.69-2.09,5.88-3.68,8.46-.06.09-.11.18-.17.27-2.46,3.77-5.58,7.04-9.03,9.64-4.9,3.68-4.89,19.26-28.45,17.35-4.28-.35-8.4-2.29-12.69-2.36-.82-.01-1.55,1.23-1.54,2.14.09,4.69,3.78,16.53,7.86,25.61,7,15.6,25.26,19.08,40.96,31.57,6.18,4.92,11.94,10.6,18.64,14.56,5.14,3.03,10.84,4.87,16.53,6.21,4.96,1.17,10.25.87,15.28,1.61,17.95,2.62,23.51,4.01,31.04,8.1h0Z"/>
        <path class="cls-18" d="m130.31,538.6l.22.12c4.49,2.46,9.72,5.89,18.68,11.11,5.86,3.41,11.78,6,16.85,5.3,1.08-.15,1.83-2.04,1.54-3.21-1.59-6.35-3.8-12.61-6.92-18.2-4.82-8.65-9.42-13.66-15.76-20.99-4.77-5.51-2.21-14.04,6.34-17.45,12.41-4.95,8.35-4.84,12.11-10.07,2.63-3.66,3.17-9.03,2.88-13.71-1.21-19.82-19.2-35.61-29.14-47.33-2.01-2.4-4.66-4.35-6.68-6.79l-.12-.15c-.16-.2-.32-.4-.47-.61-9.02-12.29-18.19-22.2-27.48-33.73-2.18-2.71-3.58-6.17-5.96-8.67-5.22-5.5-18.73-2.31-23.83,1.61-1.29.99-2.72,1.95-3.56,3.43-1.11,1.95-1.52,4.31-2.11,6.53-4.79,18.02-2.54,13.27-11.34,29.66-1.44,2.69-2.09,5.88-3.68,8.46-.06.09-.11.18-.17.27-2.46,3.77-5.58,7.04-9.03,9.64-4.9,3.68-4.89,19.26-28.45,17.35-4.28-.35-8.4-2.29-12.69-2.36-.82-.01-1.55,1.23-1.54,2.14.09,4.69,3.78,16.53,7.86,25.61,7,15.6,25.26,19.08,40.96,31.57,6.18,4.92,11.94,10.6,18.64,14.56,5.14,3.03,10.84,4.87,16.53,6.21,4.96,1.17,10.25.87,15.28,1.61,17.95,2.62,23.51,4.01,31.04,8.1h0Z"/>
        <path class="cls-17" d="m431.68,538.6l.22.12c4.49,2.46,9.72,5.89,18.68,11.11,5.86,3.41,11.78,6,16.85,5.3,1.08-.15,1.83-2.04,1.54-3.21-1.59-6.35-3.8-12.61-6.92-18.2-4.82-8.65-9.42-13.66-15.76-20.99-4.77-5.51-2.21-14.04,6.34-17.45,12.41-4.95,8.35-4.84,12.11-10.07,2.63-3.66,3.17-9.03,2.88-13.71-1.21-19.82-19.2-35.61-29.14-47.33-2.01-2.4-4.66-4.35-6.68-6.79l-.12-.15c-.16-.2-.32-.4-.47-.61-9.02-12.29-18.19-22.2-27.48-33.73-2.18-2.71-3.58-6.17-5.96-8.67-5.22-5.5-18.73-2.31-23.83,1.61-1.29.99-2.72,1.95-3.56,3.43-1.11,1.95-1.52,4.31-2.11,6.53-4.79,18.02-2.54,13.27-11.34,29.66-1.44,2.69-2.09,5.88-3.68,8.46-.06.09-.11.18-.17.27-2.46,3.77-5.58,7.04-9.03,9.64-4.9,3.68-4.89,19.26-28.45,17.35-4.28-.35-8.4-2.29-12.69-2.36-.82-.01-1.55,1.23-1.54,2.14.09,4.69,3.78,16.53,7.86,25.61,7,15.6,25.26,19.08,40.96,31.57,6.18,4.92,11.94,10.6,18.64,14.56,5.14,3.03,10.84,4.87,16.53,6.21,4.96,1.17,10.25.87,15.28,1.61,17.95,2.62,23.51,4.01,31.04,8.1h0Z"/>
        <path class="cls-37" d="m279.08,55.94c.62-14.03-13.41-44.8-24.22-53.76-5.28-4.37-12.95-1.24-18.26,1.29-6.46,3.07-13.2,5.7-19.03,10.07-2.68,2.01-19.44,20.52-22.49,24.2-3.65,4.4-6.6,8.94-5.38,15.21,2.79,14.31,12.02,24.47,15.06,35.26l.04.13c1.64,5.93,2.59,19.58,3.54,21.52,2.19,4.46,29.67,6.85,35.84,7.18,6.48.35,13.69-18.4,15.88-28.7.01-.06.03-.12.04-.18,2.25-9.71,18.21-15.09,18.97-32.21h0Z"/>
        <path class="cls-32" d="m279.08,391.76c.62-14.03-13.41-44.8-24.22-53.76-5.28-4.37-12.95-1.24-18.26,1.29-6.46,3.07-13.2,5.7-19.03,10.07-2.68,2.01-19.44,20.52-22.49,24.2-3.65,4.4-6.6,8.94-5.38,15.21,2.79,14.31,12.02,24.47,15.06,35.26l.04.13c1.64,5.93,2.59,19.58,3.54,21.52,2.19,4.46,29.67,6.85,35.84,7.18,6.48.35,13.69-18.4,15.88-28.7.01-.06.03-.12.04-.18,2.25-9.71,18.21-15.09,18.97-32.21h0Z"/>
        <path class="cls-26" d="m97.59,256.25c.49.62.97,1.24,1.44,1.87,2.68,3.57,4.52,7.83,6.73,11.78,1.51,2.69,2.88,5.47,4.42,8.14,3.07,5.29.12,10.24-1.48,15.85-2.61,9.09-4.13,18.52-6.34,27.74-2.53,10.51-.12,12.93,5.86,17.67,2.59,2.06,5.66,3.28,8.65,4.5,3.32,1.35,5.28,1.54,6.87,1.31,2.89-.4,4.61-1.02,6.57-1.19h.16c1.5-.12,3.16.03,5.62.73,2.83.81,5.68,2.13,7.88,4.28,4.26,4.18,6.56,10.62,11.15,14.35,3.5,2.85,8.21,3.11,12.3,4.71,7.82,3.07,12.67,6.03,21.53.86,6.88-4.02,13.93-8.81,18.45-15.85,4.18-6.51,1.55-26.26-1.15-33.41-2.74-7.27-4.62-13.36-7.5-20.56-2.31-5.79-3.75-12.1-4.23-18.42-.43-5.72-.53-11.24-2.11-16.7-.48-1.64-1.67-4.37-3.34-7.66-6.14-12.05-18.7-27.18-25.68-27.99-3.28-.38-7.33-1.91-11.6-3.9-8.14-3.8-14.83-7.92-21.25-11.66l-.22-.13c-12.45-7.25-23.89-13.02-42.81-12.07-6.19.31-11.93,4.02-17.49,7.07-2.61,1.43-5.05,3.56-6.73,6.21-.67,1.06-.37,2.87.38,3.86,6.12,7.99,13.22,14.96,19.8,22.49,4.7,5.38,9.68,10.48,14.13,16.12h0Z"/>
        <path class="cls-45" d="m398.96,256.25c.49.62.97,1.24,1.44,1.87,2.68,3.57,4.52,7.83,6.73,11.78,1.51,2.69,2.88,5.47,4.42,8.14,3.07,5.29.12,10.24-1.48,15.85-2.61,9.09-4.13,18.52-6.34,27.74-2.53,10.51-.12,12.93,5.86,17.67,2.59,2.06,5.66,3.28,8.65,4.5,3.32,1.35,5.28,1.54,6.87,1.31,2.89-.4,4.61-1.02,6.57-1.19h.16c1.5-.12,3.16.03,5.62.73,2.83.81,5.68,2.13,7.88,4.28,4.26,4.18,6.56,10.62,11.15,14.35,3.5,2.85,8.21,3.11,12.3,4.71,7.82,3.07,12.67,6.03,21.53.86,6.88-4.02,13.93-8.81,18.45-15.85,4.18-6.51,1.55-26.26-1.15-33.41-2.74-7.27-4.62-13.36-7.5-20.56-2.31-5.79-3.75-12.1-4.23-18.42-.43-5.72-.53-11.24-2.11-16.7-.48-1.64-1.67-4.37-3.34-7.66-6.14-12.05-18.7-27.18-25.68-27.99-3.28-.38-7.33-1.91-11.6-3.9-8.14-3.8-14.83-7.92-21.25-11.66l-.22-.13c-12.45-7.25-23.89-13.02-42.81-12.07-6.19.31-11.93,4.02-17.49,7.07-2.61,1.43-5.05,3.56-6.73,6.21-.67,1.06-.37,2.87.38,3.86,6.12,7.99,13.22,14.96,19.8,22.49,4.7,5.38,9.68,10.48,14.13,16.12h0Z"/>
        <path class="cls-43" d="m143.02,88.34c4.27,4.96,12.19,13.62,16.5,20.56,3.91,6.3,8.58,16.64,13.07,21.85,4.38,5.07,16.94,2.23,22.49.86,5.05-1.25,8.68-14.23,9.61-19.06,1.02-5.32-1.91-16.94-4.63-24.2l-.05-.12c-2.11-5.43-11.71-17.41-12.81-18.03-2.16-1.23-4.7-.82-9.99-4.17-3.18-2.01-4.38-8.27-7.3-10.71-4.51-3.77-11.02-3.46-14.99-7.92-11.81-13.28-6.11-36.15-24.46-30.42l-.15.05c-6.66,2.12-12.91,8.4-14.89,10.02-2.59,2.13-5.79,3.37-8.07,5.89-1.01,1.11-1.55,2.93-1.35,4.5.34,2.66,1.6,5.12,2.88,7.39,2.63,4.64,20.07,27.91,21.42,29.42l.13.14c4.07,4.56,8.41,9.32,12.59,13.98h0Z"/>
        <path class="cls-36" d="m143.02,424.16c4.27,4.96,12.19,13.62,16.5,20.56,3.91,6.3,8.58,16.64,13.07,21.85,4.38,5.07,16.94,2.23,22.49.86,5.05-1.25,8.68-14.23,9.61-19.06,1.02-5.32-1.91-16.94-4.63-24.2l-.05-.12c-2.11-5.43-11.71-17.41-12.81-18.03-2.16-1.23-4.7-.82-9.99-4.17-3.18-2.01-4.38-8.27-7.3-10.71-4.51-3.77-11.02-3.46-14.99-7.92-11.81-13.28-6.11-36.15-24.46-30.42l-.15.05c-6.66,2.12-12.91,8.4-14.89,10.02-2.59,2.13-5.79,3.37-8.07,5.89-1.01,1.11-1.55,2.93-1.35,4.5.34,2.66,1.6,5.12,2.88,7.39,2.63,4.64,20.07,27.91,21.42,29.42l.13.14c4.07,4.56,8.41,9.32,12.59,13.98h0Z"/>
        <path class="cls-49" d="m444.39,424.16c4.27,4.96,12.19,13.62,16.5,20.56,3.91,6.3,8.58,16.64,13.07,21.85,4.38,5.07,16.94,2.23,22.49.86,5.05-1.25,8.68-14.23,9.61-19.06,1.02-5.32-1.91-16.94-4.63-24.2l-.05-.12c-2.11-5.43-11.71-17.41-12.81-18.03-2.16-1.23-4.7-.82-9.99-4.17-3.18-2.01-4.38-8.27-7.3-10.71-4.51-3.77-11.02-3.46-14.99-7.92-11.81-13.28-6.11-36.15-24.46-30.42l-.15.05c-6.66,2.12-12.91,8.4-14.89,10.02-2.59,2.13-5.79,3.37-8.07,5.89-1.01,1.11-1.55,2.93-1.35,4.5.34,2.66,1.6,5.12,2.88,7.39,2.63,4.64,20.07,27.91,21.42,29.42l.13.14c4.07,4.56,8.41,9.32,12.59,13.98h0Z"/>
        <path class="cls-20" d="m295.03,72.86c-4.41-.13-9.72,1.33-14.04,3.57-2.15,1.11-4.06,2.42-5.49,3.82-3.84,3.75-3.57,6.16-1.75,7.89.07.07.14.13.21.2,1.57,1.36,4.09,2.29,6.21,3.13l.82.33c3.78,1.53,7.82,3.42,8.84,5.53,4.65,9.65,17.45,8.61,25.37,10.92,9.79,2.86,20.7-7.69,23.52-14.88.88-2.26.76-3.86.01-5.03-.06-.09-.12-.17-.18-.26-1.31-1.75-4.07-2.5-6.73-3.18-3.21-.83-6.67-1.21-9.32-1.75-3.1-.63-6.48.21-9.42-1.07-3.97-1.73-6.88-5.73-10.76-7.71-2.25-1.15-4.83-1.43-7.3-1.5h0Z"/>
        <path class="cls-35" d="m295.03,408.68c-4.41-.13-9.72,1.33-14.04,3.57-2.15,1.11-4.06,2.42-5.49,3.82-3.84,3.75-3.57,6.16-1.75,7.89.07.07.14.13.21.2,1.57,1.36,4.09,2.29,6.21,3.13l.82.33c3.78,1.53,7.82,3.42,8.84,5.53,4.65,9.65,17.45,8.61,25.37,10.92,9.79,2.86,20.7-7.69,23.52-14.88.88-2.26.76-3.86.01-5.03-.06-.09-.12-.17-.18-.26-1.31-1.75-4.07-2.5-6.73-3.18-3.21-.83-6.67-1.21-9.32-1.75-3.1-.63-6.48.21-9.42-1.07-3.97-1.73-6.88-5.73-10.76-7.71-2.25-1.15-4.83-1.43-7.3-1.5h0Z"/>
        <path class="cls-10" d="m178.08,152.75c6.4-1.06,12.73-2.74,18.93-4.82.76-.25,1.77-1.19,1.54-2.03-.8-2.94-2.28-5.75-4.23-7.92-1.1-1.23-2.86-1.72-4.42-1.71-4.52.03-9.07.62-13.45,1.82-2.09.57-4.33,1.55-5.67,3.43-.84,1.17-.5,3.11,0,4.5.77,2.16,2.04,4.19,3.65,5.68.97.9,2.41,1.28,3.65,1.07h0Z"/>
        <path class="cls-29" d="m198.35,194.24c-3.56-6.9-17.31-29.42-23.26-32.98-5.1-3.06-16-1.22-20.95,2.14-2.87,1.95-5.36,8.42-3.65,11.78,4,7.85,9.96,14.24,14.61,21.63,4.78,7.61,9.65,15.2,13.65,23.35,3.07,6.26,4.38,13.47,7.5,19.7,5.76,11.52,20.44-4.08,24.6-9.85,1.13-1.57,1.23-4.12.58-6-3.6-10.29-8.13-20.19-13.07-29.77h0Z"/>
        <path class="cls-12" d="m181.15,162.71c7.51,13.08,20.23,33.18,28.45,45.72,4.2,6.41,7.88,7.52,14.61,4.93,6.15-2.37,12.22-5.28,17.68-9.21,1.62-1.16,3.14-3.45,2.88-5.57-.46-3.83-2.61-7.29-4.81-10.28-6.45-8.8-13.37-17.24-20.95-24.84-2.28-2.29-5.69-2.64-8.26-4.5-2.17-1.57-3.66-4.17-5.86-5.68-1.52-1.04-3.32-2.01-5.09-1.82-5.4.58-10.66,2.33-15.86,4.07-1.27.42-2.84,1-3.36,2.36-.58,1.49-.21,3.45.58,4.82h0Z"/>
        <path class="cls-42" d="m210.85,243.99c-2.75-.15-5.56-.37-8.26.21-2.69.58-5.81.99-7.69,3.21-1.57,1.86-2.01,5.06-1.35,7.5.13.45.27.9.44,1.34,1.08,2.89,3.02,5.5,5.33,7.23,7.76,5.81,37.03,19.06,46.7,19.06.86,0,2.11-1.28,1.73-2.14-2.13-4.75-5.55-8.64-8.46-12.85-2.62-3.8-5.24-7.6-7.97-11.3-.92-1.24-1.85-2.48-2.79-3.7-2.01-2.59-3.71-5.91-6.53-7.28-3.42-1.66-7.42-1.08-11.15-1.28h0Z"/>
        <path class="cls-34" d="m247.17,288.53c-3.97-3.8-35.09-13.25-40.75-13.49-2.82-.12-5.53,2.53-7.11,5.14-1.38,2.27-1.55,5.48-.96,8.14,1.2,5.4,3.97,10.21,6.15,15.21,1.22,2.79,2.08,5.93,4.04,8.14,2.97,3.36,6.51,6.24,10.38,8.14,6.44,3.16,13.46,4.54,20.18,6.85,5.32,1.83,10.38,5.52,15.95,5.57,2.81.03,6.23-2.32,6.92-5.35,1.17-5.18-.22-10.94-2.11-15.85-3.14-8.13-6.65-16.73-12.69-22.49h0Z"/>
        <path class="cls-28" d="m231.8,330.08c-4.44-2.34-8.78-5.47-13.65-6.21-1.83-.28-3.75,1.6-4.61,3.43-1.16,2.46-1.96,12.48-.38,14.78.89,1.29,2.82,1.7,4.23,1.28,5.93-1.72,11.59-4.52,17.11-7.5.83-.45,1.96-1.66,1.54-2.57-.78-1.69-2.69-2.4-4.23-3.21h0Z"/>
        <path class="cls-1" d="m264.86,336.94c-.45,2.15,1.78,3.95,2.88,5.78,4.57,7.59,5.84,13.41,13.26,14.58,1.13.18,2.4.25,3.85.2,3.57-.12,7.06-1.51,10.38-3,1.09-.49,2.69-1.49,2.5-2.78-.61-4.1-2.36-8.04-4.61-11.35-2.28-3.35-5.52-5.79-8.65-8.14-1.07-.8-2.24-1.55-3.47-2.03-.69-.27-1.39-.46-2.11-.54-2.89-.3-6.02-.29-8.65,1.07-2.34,1.21-4.8,3.41-5.38,6.21h0Z"/>
        <path class="cls-16" d="m273.89,320.87c1.91,2.18,4.59,3.39,7.1,4.61l.2.1c2.14,1.04,4.41,1.84,6.73,2.14,1.05.14,2.87.3,3.07-.86.71-3.93-.21-8.03-.77-11.99-.53-3.78-1.35-7.53-2.5-11.14-.98-3.07-2.05-6.21-3.84-8.78-.65-.94-1.82-1.19-2.89-1.52-.19-.06-.39-.12-.57-.19-6.43-2.47-12.83-5.15-19.41-7.07-1.55-.45-3.38-.82-4.81,0-.97.56-1.61,2.32-1.15,3.43,2.58,6.2,6.38,11.67,9.8,17.35,2.86,4.75,5.44,9.83,9.03,13.92h0Z"/>
        <path class="cls-14" d="m260.72,283.18c5.44,1.95,14.32,4.43,20.27,5.35.26.04.52.08.78.11,1.92.26,3.25.1,4.2-.4,3.5-1.82,5.17-16.16,6.47-20.27.68-2.16,2.12-1.39,2.11.43-.06,9.52-5.83,18.75-5.96,24.2-.1,4.29,1.93,8.32,3.08,12.42,1.23,4.4,3.24,8.55,4.04,13.07.57,3.22-.18,6.57,0,9.85.14,2.52.17,5.13.96,7.5,3.93,11.68,7.69,15.53,19.22,15.42,4.47-.04,8.8-1.94,13.26-2.14,1.83-.09,3.68.53,5.38,1.28,5.06,2.25,9.72,5.53,14.8,7.71,2.26.97,4.69,1.75,7.11,1.71,6.64-.11,8.78-9.09,8.84-12.53.06-2.89-3.49-7.83-4.23-10.6-.93-3.52-.88-7.4-2.31-10.71-2.02-4.67-4.87-8.9-7.88-12.85-3.17-4.16-7.22-7.38-10.57-11.35-5.5-6.53-10.44-13.62-15.95-20.13-7.23-8.54-14.94-16.56-22.27-25l-.61-.7c-2.74-3.16-4.93-6.94-7.88-9.85-3.23-3.19-7.02-6.91-9.9-10.5-1.1-1.37-1.96-2.85-2.7-4.38-2.2-4.55-3.36-9.58-6.62-13.61-2.25-2.78-8.38-3.04-11.34-4.82-3.71-2.22-6.59-4.61-10.76-5.25-3.29-.5-6.46,1.79-9.61,3-4.87,1.87-10.28,2.78-14.42,6.21-2.55,2.12-3.34,6.09-4.42,9.42-.99,3.08-2.29,6.42-1.73,9.64.55,3.19,2.87,5.71,4.8,8.14,3.64,4.56,8.32,8.04,11.86,12.69.15.19.29.39.44.59,4.79,6.61,7.55,14.92,12.69,21.2,2.24,2.74,5.68,4.01,8.84,5.14h0Z"/>
        <path class="cls-46" d="m280.99,219.09c2.39,2.13,4.72,4.45,6.45,6.91,2.58,3.67,4.44,7.98,6.71,11.9,2.38,4.1,3,6.98,9.01,6.32,2.03-.22,9.14-6.58,18.59-8.87,6.5-1.57,10.92-1.66,21.23-11.71,1.14-1.11,2.3-2.44,2.69-4.07.43-1.8.46-3.96-.38-5.57-2.09-3.97-5.16-7.22-8.07-10.5-4.4-4.95-9.88-8.74-13.84-14.13-2.49-3.39-3.67-7.75-5.19-11.78-1.63-4.33-1.97-9.32-4.23-13.28-3.67-6.43-8.63-1.56-12.49.43-4.5,2.32-8.67,5.63-13.45,7.07-2.29.68-4.64,1.06-7.02,1.24-2.46.19-4.94.16-7.39.04-5.5-.27-10.94-1.55-16.34-2.78-8.97-2.05-17.71-5.26-26.72-7.07-1.78-.35-3.97-.61-5.38.64-.83.73.07,2.55.77,3.43,6.5,8.15,13.77,15.5,20.57,23.34,6.68,7.71,6.52,8,15.18,13.71,5.34,3.51,9.66,6.55,14.61,10.71,1.49,1.25,3.11,2.59,4.7,4.02h0Z"/>
        <path class="cls-9" d="m249.47,163.19c10.32,1.68,21.12,8.04,31.52,7.18,13.13-1.14,22.57-11.72,25.37-17.25,1.1-2.18.84-5.18,0-7.5-5.06-13.87-10.63-27.6-17.49-40.48-1.43-2.69-4.28-4.28-6.92-5.35-.3-.12-.62-.25-.96-.37-5.43-1.97-15.98-3.96-20.18.15-4.49,4.39-6.28,11.44-10.38,16.28-1.61,1.9-3.99,2.82-6.34,2.89-8.93.27-28.82-4.39-36.33-.32-3.87,2.1-6.3,11.76-7.5,16.06-.82,2.94,2.05,10.5,3.84,12.42,11.49,12.31,30.71,13.9,45.36,16.28h0Z"/>
        <path class="cls-25" d="m327.17,179.41c2.89,4.28,6.23,8.18,9.61,11.99,5.34,6.01,10.71,12.03,16.53,17.46,3.2,2.98,6.09,2.76,9.61.64,12.4-7.47,20.41-10.42,5-20.99-.39-.27-60.11-46.85-49.97-24.95,2.59,5.6,5.82,10.82,9.23,15.85h0Z"/>
        <path class="cls-30" d="m352.5,222.14c-3.59,1.44-6.57,4.33-9.9,6.43-4.21,2.65-8.23,5.74-12.69,7.82-6.32,2.94-13.15,4.35-19.51,7.17-1.49.66-2.84,1.82-3.84,3.21-.74,1.03-1.27,2.43-1.15,3.75.16,1.81.86,3.65,1.92,5.03l.54.7c4.35,5.65,9.06,10.98,14.07,15.9,3.79,3.72,8.18,6.61,12.3,9.85,3.5,2.75,7.5,4.82,10.57,8.14,3.41,3.69,6.17,8.12,8.65,12.64,2.48,4.52,4,9.62,6.15,14.35,1.31,2.88,2.58,5.81,4.23,8.46.93,1.49,2.07,2.9,3.46,3.86,1.53,1.06,3.32,1.68,5.09,2.03,4.65.93,11.1-3.49,15.18-5.35,6-2.74,4.28-.23,8.94-.43.8-.03,1.76-.48,2.11-1.28,1.81-4.12,3.02-8.55,4.13-12.96,1.43-5.67,2.81-11.4,3.46-17.24.45-4.04.52-8.22-.19-12.21-.85-4.76-2.11-9.59-4.42-13.71-2.47-4.41-5.68-8.22-8.87-12.05-1.23-1.47-2.45-2.94-3.62-4.45-5.22-6.7-10.37-13.48-15.86-19.92-2.44-2.86-4.89-5.82-7.88-7.92-1.83-1.29-4.09-1.73-6.25-2.03-2.19-.31-4.55-.62-6.63.21h0Z"/>
        <path class="cls-5" d="m335.78,353.64c-1.73-.71-4.02-.2-5.86-.21-3.15-.02-6.27.73-9.42.75-3.37.02-6.72-.64-10.09-.64-7.29,0-6.07,5.47.86,6.75,3.04.56,6.17-.05,9.23.32,1.36.17,2.68.69,3.94,1.29,2.28,1.08,4.27,2.89,6.63,3.75,2.44.88,5.03,1.37,7.59,1.39,2.94.02,5.88-.53,8.75-1.28,1.35-.36,2.98-.75,3.75-2.04,1.15-1.93-14.34-9.64-15.38-10.07h0Z"/>
        <path class="cls-31" d="m337.32,372.49c-5.53-.85-10.16-5.34-15.57-6.85-4.36-1.22-7.85-1.4-12.2-2.68-2.18-.64-4.68-2.12-6.82-2.89-5.52-1.99-18.58-.02-20.57,6.43-.98,3.17-1.06,6.92,0,10.07,2.5,7.42,5.87,14.64,10.38,20.77,3.23,4.39,7.6,7.91,12.3,10.07,5.05,2.32,10.81,1.72,16.15,3,6.02,1.44,11.89,3.52,17.87,5.14,2.74.74,5.45,1.79,8.26,1.93,1.77.09,3.97.14,5.19-1.29,6.31-7.34,10.03-19.21,11.34-29.13.28-2.08,0-4.4-.96-6.21-2.18-4.13-8.6-10.67-13.07-10.92-4.17-.23-8.17,3.2-12.3,2.57h0Z"/>
        <path class="cls-40" d="m363.94,361.46c-.19,1.86.78,3.68,1.54,5.36.86,1.9,1.8,3.89,3.27,5.25.75.69,1.94.66,2.88.43,6.43-1.6,10.54-4.79,17.97-5.14,7.81-.37,10.75,3.1,18.55-2.14,2.85-1.92,5.62-4.04,8.17-6.43,1.51-1.42,2.87-3.08,3.94-4.92,1.12-1.95.34-3.2-1.15-4.28-6.3-4.61-10.43-4.79-16.51-12.22-4.17-5.09-2.79-1.38-7.42-.31-1.52.35-15.35-1.87-19.41-1.71-4.03.15-7.82,0-8.46,5.14-.45,3.64.29,7.41-.29,11.03-.55,3.46-2.72,6.47-3.07,9.96h0Z"/>
        <path class="cls-55" d="m213.97,215.39c-.63-.42-1.34-.98-2.07-.86-.48.08-.92.81-.82,1.34.49,2.39,1.81,4.47,2.5,6.8.38,1.29.71,2.65.67,4.02-.03,1.36-.26,2.78-.86,3.96-.96,1.87-2.29,3.5-3.7,4.98-1.51,1.58-3.54,2.48-5,4.12-.28.32-.22,1.14.15,1.34.97.53,2.15.67,3.22.48,1.96-.34,3.73-1.55,5.67-2.04.83-.2,1.71-.16,2.55,0,1.35.26,2.6.97,3.94,1.23.4.08,1.02.19,1.2-.21.25-.57-.11-1.27-.29-1.87-.53-1.82-1.48-3.48-1.83-5.35-.21-1.12-.05-2.31.19-3.43.47-2.13,1.15-4.2,1.92-6.21.5-1.3,1.17-2.52,1.87-3.7.57-.95,1.16-1.91,1.92-2.68,1.11-1.12,2.53-1.83,3.65-2.94.15-.15.17-.56,0-.7-.29-.23-.73-.3-1.06-.16-2.44,1.04-4.74,2.44-7.11,3.64-.65.33-1.27.81-1.97.96-.57.12-1.22.14-1.73-.16-1.13-.65-1.94-1.84-3.03-2.57h0Z"/>
        <path class="cls-55" d="m157.42,367.72c-1.48-1.03-2.77-2.48-4.42-3.11-.69-.26-1.96-.15-2.11.64-.46,2.38-.1,4.97.58,7.28.8,2.72,1.96,5.44,3.75,7.5,1.28,1.47,3.22,2.05,5,2.57,3.23.95,6.68.8,9.9,1.82.92.29,1.7,1.13,2.21,2.03,1.35,2.41,1.96,5.27,3.27,7.71.79,1.48,1.68,3.02,2.98,3.96,2.28,1.66,5.1,2.2,7.5,3.64,1.37.82,2.33,2.4,3.75,3.11.56.28,1.52.28,1.83-.32.46-.9.3-2.17-.1-3.11-1.31-3.09-3.55-5.6-4.9-8.67-.73-1.66-1.13-3.52-1.25-5.35-.14-2.04-.32-4.27.48-6.1,1.3-2.99,4.01-4.98,5.57-7.82.35-.64.67-2.27,0-2.25-2.15.08-3.96,1.95-6.05,2.46-2.87.71-5.81,1.06-8.75,1.18-1.33.06-2.71-.08-3.94-.64-2.03-.93-3.58-2.98-5.67-3.75-2.17-.8-4.61-.22-6.82-.86-1.06-.31-1.86-1.28-2.79-1.93h0Z"/>
        <path class="cls-55" d="m277.16,409.7c-.64-.27-.93-1.27-.96-2.04-.04-.9.38-1.78.77-2.57,1.19-2.47,2.93-4.61,3.94-7.17.62-1.56.8-3.33.87-5.03.07-1.76-.08-3.55-.48-5.25-.79-3.4-2.46-6.52-3.07-9.96-.12-.69.37-1.57.96-1.82.52-.22,1.29.19,1.54.75,2.02,4.48,3.27,9.34,5.09,13.92,1,2.53,2.02,5.07,3.36,7.39.82,1.42,1.81,2.82,3.07,3.75,1.9,1.4,4.4,1.62,6.25,3.11.47.38.45,1.53,0,1.93-.71.62-1.79.49-2.69.43-2.23-.15-4.4-.9-6.63-1.07-1.44-.11-2.94-.24-4.32.21-1.83.6-3.32,2.1-5.09,2.89-.82.36-1.77.88-2.59.54h0Z"/>
        <path class="cls-55" d="m155.31,218.87c-2.11-.58-4.17-1.78-6.34-1.71-.64.02-1.33,1.43-.86,1.93,1.99,2.15,4.57,3.57,7.11,4.82,2.31,1.13,4.84,1.63,7.3,2.25,2.09.53,4.29.49,6.34,1.18,1.41.47,2.85,1.14,3.94,2.25,2.45,2.48,4.02,5.94,6.53,8.35.47.45,1.37.14,1.83-.32.57-.56,1.09-1.55.87-2.36-1.24-4.4-3.38-8.43-5.09-12.64-1.53-3.75-2.89-7.6-4.61-11.24-.88-1.87-1.89-3.69-3.17-5.25-.24-.29-.97-.28-1.06.11-.27,1.25-.09,2.61.19,3.86.66,2.96,2.08,5.68,2.6,8.67.18,1.04.08,2.35-.58,3.11-.59.67-1.67.59-2.5.43-4.22-.84-8.33-2.29-12.49-3.43h0Z"/>
        <path class="cls-55" d="m356.35,361.72c-.83.05-1.71-.09-2.5.21-.39.15-.84.62-.77,1.07.12.75,1.08,1.08,1.25,1.82.12.55,0,1.46-.48,1.61-1.98.61-4.12.06-6.15.43-1.58.28-3.22.63-4.61,1.5-.4.25-.65,1.47-.19,1.5,1.64.11,3.17-.99,4.81-1.18,1.88-.21,3.86-.62,5.67,0,2.59.89,4.95,2.57,7.11,4.39,1.48,1.25,2.66,2.95,3.65,4.71.7,1.25,1.31,2.7,1.35,4.18.06,2.67-1,5.26-1.06,7.92,0,.45.65,1.35.86.96,1.06-1.95,1.52-4.24,2.11-6.43.47-1.72.55-3.55,1.06-5.25.24-.79.57-1.62,1.15-2.14.95-.85,2.32-.97,3.27-1.82.28-.25.44-1.09.1-1.18-1.37-.36-2.85.46-4.23.11-1.19-.31-2.34-1.04-3.17-2.03-1.24-1.47-2.21-3.26-2.88-5.14-.32-.9-.08-1.93,0-2.89.15-1.79.7-3.55.67-5.35,0-.4-.51-1.14-.77-.86-.87.97-.65,2.98-1.73,3.64-1.32.81-3.01.12-4.52.21h0Z"/>
        <path class="cls-55" d="m394.7,328.47c-.91-.37-1.64-1.29-2.59-1.44-1.03-.17-2.1.15-3.08.54-2.09.82-3.98,2.18-6.05,3.05-1.46.61-3.11.65-4.52,1.39-.29.15-.42.88-.14,1.07.88.6,1.96.71,2.98.86,3.8.54,7.61.93,11.44,1.18.61.04,1.29.02,1.83-.32.91-.59,1.43-1.78,2.35-2.36.42-.26.99-.18,1.44,0,1.16.47,2.12,1.42,3.27,1.93.28.13.76.24.91-.05.23-.43.1-1.05-.1-1.5-.35-.8-1.14-1.29-1.49-2.09-.28-.64-.33-1.38-.34-2.09,0-1.11.31-2.21.29-3.32,0-.33-.16-.69-.38-.91-.15-.14-.44-.15-.58,0-.39.42-.6,1.02-.86,1.55-.34.68-.51,1.49-.96,2.09-.33.44-.79.85-1.3.91-.71.09-1.44-.21-2.11-.48h0Z"/>
        <path class="cls-55" d="m321.76,174.96c-.27-.2-.93-.15-.96.21-.15,1.71.08,3.48.48,5.14.54,2.26,1.19,4.55,2.31,6.53.79,1.4,2.13,2.31,3.27,3.37,1.84,1.72,3.88,3.19,5.67,4.98,2.01,2.02,3.9,4.19,5.72,6.43,1.03,1.27,1.65,2.92,2.79,4.07.5.5,1.25.77,1.92.7.49-.05.98-.51,1.15-1.02.26-.77.32-1.7.05-2.46-.43-1.19-1.2-2.25-2.07-3.11-2.12-2.11-4.61-3.73-6.82-5.73-1.36-1.23-2.75-2.47-3.89-3.96-1.44-1.87-2.59-3.99-3.8-6.05-1.27-2.17-2.26-4.53-3.6-6.64-.6-.95-1.33-1.84-2.21-2.46h0Z"/>
        <path class="cls-55" d="m350.3,208.96c-.9-.64-1.93-1.1-2.98-1.29-.46-.08-1.02.12-1.3.54-.34.51-.45,1.27-.29,1.87.39,1.48,1.4,2.67,1.87,4.12.29.9.44,1.88.38,2.84-.05.92-.25,1.88-.67,2.68-.86,1.6-2.25,2.8-3.12,4.39-.15.28-.1.9.19.96.65.13,1.34-.19,1.92-.54,1.78-1.04,3.26-2.67,5.09-3.59,1.3-.66,2.77-.84,4.18-1.07,1.08-.18,2.19-.34,3.27-.16,1.58.27,3.14.79,4.61,1.5,1.17.57,2.19,1.46,3.22,2.3,1.15.95,1.86-.13,1.01-.96-1.27-1.26-2.65-2.39-3.84-3.75-.55-.62-1.06-1.33-1.35-2.14-.18-.5-.16-1.1,0-1.61.32-1,1.1-1.77,1.39-2.78.09-.31-.07-.78-.34-.91-.51-.26-1.14-.25-1.68-.11-1.41.38-2.67,1.31-4.08,1.66-.83.21-1.72.22-2.55,0-.92-.25-1.78-.78-2.55-1.39-.9-.72-1.47-1.9-2.4-2.57h0Z"/>
        <path class="cls-55" d="m263.75,322.86c.07,1.42-.1,2.89-.53,4.23-.52,1.62-1.29,3.16-2.26,4.5-.65.89-1.52,1.66-2.5,2.03-.89.34-1.89.05-2.83,0-1.49-.08-2.99-.61-4.47-.38-.41.06-.95.83-.67,1.18.67.84,1.81,1.01,2.74,1.45,1.55.73,3.31,1,4.71,2.03,1.34.99,2.31,2.51,3.32,3.91,1.02,1.43,1.9,2.98,2.74,4.55,1.76,3.3,3.21,6.82,5.05,10.07.24.41.69.94,1.11.8.45-.15.74-.87.67-1.39-.33-2.61-1.11-5.14-1.83-7.66-.36-1.26-.69-2.58-1.4-3.64-.91-1.38-2.26-2.34-3.36-3.53-.66-.71-1.58-1.25-1.92-2.19-.4-1.11-.52-2.47-.14-3.59.51-1.51,1.53-2.81,2.64-3.86,1.22-1.14,2.71-1.88,4.18-2.57,1.21-.57,2.49-1.01,3.8-1.18,1.14-.15,2.32,0,3.46.21,2.15.38,4.24,1.16,6.39,1.55.54.1,1.14.16,1.63-.11.23-.13.35-.67.14-.86-.8-.73-1.84-1.07-2.79-1.55-3.32-1.69-6.82-2.97-9.99-4.98-1.2-.76-2.12-2.01-2.98-3.21-1.04-1.46-1.89-3.08-2.69-4.71-1.66-3.37-2.91-7-4.71-10.28-.26-.48-.86-.87-1.35-.75-.37.09-.48.77-.38,1.18.85,3.81,2.31,7.43,3.17,11.24.55,2.45.94,4.97,1.05,7.5h0Z"/>
        <path class="cls-55" d="m169,141.14c-.19-.5-1.1.17-1.35.64-.81,1.54-1.05,3.37-1.63,5.03-.6,1.7-1.05,3.49-1.92,5.03-.82,1.46-2.28,2.38-3.08,3.85-.28.52-.27,1.29,0,1.82.23.44.79.67,1.25.64,2.55-.15,5.04-1.24,7.59-1.18,1.69.04,3.42.58,4.9,1.5,1.52.95,2.46,2.78,3.84,3.96.18.15.72.14.67-.11-.33-1.85-.6-3.86-1.63-5.35-.82-1.19-2.46-1.27-3.55-2.14-1.13-.89-2.2-1.91-3.08-3.11-.81-1.12-1.49-2.39-1.92-3.75-.26-.81-.08-1.71-.1-2.57-.02-1.43.49-2.96,0-4.28h0Z"/>
        <path class="cls-55" d="m257.36,102.1c-.39-.21-.46-.93-.34-1.39.4-1.52,1.17-2.88,1.83-4.28.5-1.08.97-2.19,1.63-3.16.66-.96,1.34-2.01,2.31-2.57,1-.58,2.2-.87,3.32-.7,1.33.2,2.41,1.36,3.7,1.77,1.01.32,2.08.43,3.12.38,1.15-.06,2.26-.84,3.41-.7,2.25.28,4.47,1.01,6.58,1.93,1.51.65,2.93,1.59,4.18,2.73,1.06.97,1.79,2.33,2.64,3.53.93,1.33,1.59,2.92,2.69,4.07.74.77,1.73,1.21,2.69,1.55,2.77.98,5.63,1.65,8.46,2.41,2.63.71,5.38.96,7.93,1.98.48.19.73.93.72,1.5,0,.42-.4.94-.77.91-3.33-.27-6.56-1.57-9.9-1.77-.9-.05-1.84.39-2.55,1.02-.68.6-.71,1.86-1.39,2.46-.47.41-1.24.61-1.78.32-1.11-.59-2.04-1.61-2.74-2.73-1.74-2.81-2.29-6.55-4.47-8.94-2.39-2.63-5.6-4.26-8.75-5.57-2.43-1.01-5.11-1.02-7.69-1.28-2.23-.23-4.5-.55-6.73-.21-1.19.18-2.31.9-3.27,1.71-1.45,1.25-2.5,3-3.84,4.39-.28.29-.66.84-1.01.64h0Z"/>
        <path class="cls-55" d="m195.95,262.52c-.35-.38-.99-.39-1.44-.21-.38.15-.78.63-.72,1.07.28,2.23,1.33,4.27,1.68,6.48.17,1.04-.1,2.11-.14,3.16-.05,1.23-.15,2.46-.14,3.69,0,1.2.02,2.41.19,3.59.2,1.4.43,2.82.91,4.12.08.21.57.22.63,0,.37-1.55.16-3.22.53-4.77.35-1.47.79-2.98,1.63-4.18.72-1.03,1.8-1.75,2.88-2.25.76-.35,1.64-.31,2.45-.21,1.39.17,2.7.83,4.08,1.02.26.04.7-.08.72-.38.06-.65-.03-1.53-.53-1.87-1.73-1.2-3.85-1.54-5.72-2.46-1.52-.75-3.17-1.36-4.42-2.57-1.16-1.12-1.51-3.03-2.59-4.23h0Z"/>
        <path class="cls-55" d="m207.53,313.22c-.15-.16-.46-.2-.62-.05-.34.32-.77.8-.67,1.28.37,1.8,1.45,3.33,1.97,5.09.48,1.6.8,3.26,1.01,4.93.32,2.5.19,5.06.58,7.55.06.35.41.65.72.7.34.05.89-.05.96-.43.43-2.44-.1-5.03.43-7.44.19-.84.95-1.46,1.63-1.87.83-.5,1.8-.71,2.74-.75,1.03-.05,2.04.5,3.07.48.28,0,.6-.24.67-.54.09-.34,0-.86-.29-1.02-1.93-1.04-4.08-1.47-6.05-2.41-1.31-.62-2.64-1.26-3.75-2.25-.98-.88-1.5-2.28-2.4-3.27h0Z"/>
        <path class="cls-55" d="m341.88,289.93c-2.32-1.92-4.86-3.51-7.4-5.03-1.15-.69-2.35-1.43-3.65-1.61-.33-.04-.45.74-.29,1.07,1.43,2.89,3.1,5.63,4.9,8.25,2.28,3.32,4.62,6.62,7.3,9.53,2.21,2.4,5.05,3.98,7.3,6.32,1.9,1.96,3.28,4.48,5.09,6.53.32.36.9.97,1.25.64.42-.39.23-1.27,0-1.82-1.78-4.22-3.82-8.31-5.96-12.31-1.3-2.43-2.72-4.78-4.33-6.96-1.25-1.69-2.65-3.29-4.23-4.6h0Z"/>
        <path class="cls-55" d="m310.17,144.88c-.27-.31-.8-.39-1.15-.21-.31.16-.41.64-.43,1.02-.11,1.78.23,3.58.05,5.35-.12,1.15-.54,2.26-.96,3.32-.53,1.32-.98,2.75-1.87,3.8-1.08,1.28-2.68,1.88-3.89,3-.28.26-.56.67-.53,1.07.02.26.4.46.62.38,2.42-.94,4.59-2.65,7.06-3.37,1.03-.3,2.21-.13,3.17.38,1.02.53,1.84,1.52,2.45,2.57.92,1.57,1.14,3.57,2.07,5.14.17.28.97.28.91-.05-.45-2.39-1.7-4.53-2.21-6.91-.22-1.02-.25-2.16.05-3.16.2-.66.79-1.13,1.35-1.45.46-.26,1.06.06,1.54-.16.25-.11.62-.54.43-.75-1.26-1.38-2.96-2.17-4.28-3.48-1-.99-1.84-2.18-2.64-3.37-.66-.97-.97-2.23-1.73-3.11h0Z"/>
        <path class="cls-55" d="m279.66,219.41c-.36-.28-1.25.27-1.15.75.65,3.28,1.76,6.46,3.17,9.42,1.27,2.66,2.94,5.1,4.81,7.28,2.07,2.42,4.68,4.19,6.92,6.43,1.42,1.41,2.79,2.9,4.04,4.5,1.07,1.37,1.85,2.99,2.88,4.39,1.37,1.85,2.7,3.78,4.32,5.35.42.41,1.11.64,1.63.43.34-.14.34-.81.19-1.18-.75-1.89-2.14-3.42-2.79-5.35-.31-.94-.35-2.08,0-3,.47-1.24,1.69-1.95,2.31-3.11.11-.2-.08-.67-.29-.64-1.48.17-2.84,1.24-4.32,1.18-1.36-.05-2.68-.72-3.84-1.5-1.07-.72-1.95-1.77-2.69-2.89-2.19-3.33-3.93-7.01-6.05-10.39-1.4-2.23-2.91-4.37-4.52-6.43-1.44-1.84-2.81-3.84-4.61-5.25h0Z"/>
        <g>
          <ellipse class="cls-4" cx="217.07" cy="227.86" rx="1.97" ry="39.81"/>
          <path class="cls-3" d="m218.22,226.59c11.43,12.74,20.18,23.63,19.55,24.33s-10.41-9.05-21.83-21.79c-11.43-12.74-20.18-23.63-19.55-24.33s10.41,9.05,21.83,21.79Z"/>
          <ellipse class="cls-51" cx="217.07" cy="227.86" rx="35.72" ry="2.19"/>
          <ellipse class="cls-54" cx="217.07" cy="227.86" rx="30.98" ry="1.7" transform="translate(-97.5 237.34) rotate(-48.11)"/>
          <ellipse class="cls-13" cx="217.07" cy="227.86" rx="19.84" ry="22.11"/>
        </g>
        <g>
          <ellipse class="cls-15" cx="171.86" cy="376.86" rx="1.73" ry="34.97"/>
          <path class="cls-24" d="m172.86,375.74c10.04,11.19,17.73,20.76,17.18,21.37-.55.62-9.14-7.95-19.18-19.14s-17.73-20.76-17.18-21.37,9.14,7.95,19.18,19.14Z"/>
          <ellipse class="cls-50" cx="171.86" cy="376.86" rx="31.38" ry="1.93"/>
          <path class="cls-22" d="m170.85,375.74c10.04-11.19,18.63-19.76,19.18-19.14.55.62-7.14,10.19-17.18,21.37-10.04,11.19-18.63,19.76-19.18,19.14-.55-.62,7.14-10.19,17.18-21.37Z"/>
          <ellipse class="cls-11" cx="171.86" cy="376.86" rx="17.43" ry="19.42"/>
        </g>
        <g>
          <ellipse class="cls-2" cx="353.23" cy="217" rx="1.45" ry="29.37"/>
          <ellipse class="cls-6" cx="353.23" cy="217" rx="1.25" ry="22.86" transform="translate(-54.62 291.29) rotate(-41.89)"/>
          <ellipse class="cls-47" cx="353.23" cy="217" rx="26.36" ry="1.62"/>
          <path class="cls-44" d="m352.39,216.06c8.43-9.4,15.65-16.6,16.11-16.08.46.52-5.99,8.56-14.43,17.95-8.43,9.4-15.65,16.6-16.11,16.08-.46-.52,5.99-8.56,14.43-17.95Z"/>
          <ellipse class="cls-33" cx="353.23" cy="217" rx="14.64" ry="16.32"/>
        </g>
        <g>
          <path class="cls-23" d="m313.26,151.11c0,11.53-.46,20.87-1.03,20.87s-1.03-9.35-1.03-20.87.46-20.87,1.03-20.87,1.03,9.35,1.03,20.87Z"/>
          <path class="cls-8" d="m312.83,150.44c5.99,6.68,10.58,12.39,10.25,12.76s-5.46-4.75-11.45-11.43c-5.99-6.68-10.58-12.39-10.25-12.76.33-.37,5.46,4.75,11.45,11.43Z"/>
          <path class="cls-21" d="m312.23,149.96c10.35,0,18.73.52,18.73,1.15s-8.39,1.15-18.73,1.15-18.73-.52-18.73-1.15,8.39-1.15,18.73-1.15Z"/>
          <path class="cls-52" d="m311.63,150.44c5.99-6.68,11.12-11.79,11.45-11.43.33.37-4.26,6.08-10.25,12.76-5.99,6.68-11.12,11.79-11.45,11.43-.33-.37,4.26-6.08,10.25-12.76Z"/>
          <ellipse class="cls-39" cx="312.23" cy="151.11" rx="10.41" ry="11.6"/>
        </g>
        <g>
          <ellipse class="cls-41" cx="394.23" cy="331.92" rx="1.14" ry="23.06"/>
          <path class="cls-7" d="m394.89,331.18c6.62,7.38,11.69,13.69,11.33,14.09s-6.03-5.24-12.65-12.62c-6.62-7.38-11.69-13.69-11.33-14.09s6.03,5.24,12.65,12.62Z"/>
          <ellipse class="cls-48" cx="394.23" cy="331.92" rx="20.69" ry="1.27"/>
          <ellipse class="cls-19" cx="394.23" cy="331.92" rx="17.95" ry=".98" transform="translate(-116.08 403.8) rotate(-48.11)"/>
          <ellipse class="cls-27" cx="394.23" cy="331.92" rx="11.49" ry="12.81"/>
        </g>
      </g>
    </g>
  </g>
</svg>