<?xml version="1.0" encoding="UTF-8"?>
<svg xmlns="http://www.w3.org/2000/svg" xmlns:xlink="http://www.w3.org/1999/xlink" viewBox="0 0 358 418">
  <defs>
    <style>
      .cls-1 {
        fill: url(#radial-gradient-11);
      }

      .cls-1, .cls-2, .cls-3, .cls-4, .cls-5, .cls-6, .cls-7, .cls-8, .cls-9, .cls-10, .cls-11, .cls-12, .cls-13, .cls-14, .cls-15 {
        mix-blend-mode: multiply;
      }

      .cls-16 {
        fill: url(#radial-gradient-7);
      }

      .cls-17 {
        fill: url(#radial-gradient-10);
      }

      .cls-2 {
        fill: url(#radial-gradient-6);
      }

      .cls-18 {
        fill: #144d25;
      }

      .cls-3 {
        fill: url(#radial-gradient-8);
      }

      .cls-4 {
        fill: url(#radial-gradient-22);
      }

      .cls-19 {
        fill: url(#radial-gradient-21);
      }

      .cls-5 {
        fill: url(#radial-gradient-2);
      }

      .cls-20 {
        fill: url(#radial-gradient-4);
      }

      .cls-21 {
        isolation: isolate;
      }

      .cls-22 {
        fill: #207f3f;
      }

      .cls-6 {
        fill: url(#radial-gradient-20);
      }

      .cls-7 {
        fill: url(#radial-gradient-3);
        opacity: .5;
      }

      .cls-8 {
        fill: url(#radial-gradient-9);
      }

      .cls-9 {
        fill: url(#radial-gradient-5);
      }

      .cls-10 {
        fill: url(#radial-gradient-19);
      }

      .cls-23 {
        fill: url(#radial-gradient);
      }

      .cls-24 {
        fill: url(#radial-gradient-13);
      }

      .cls-25, .cls-26 {
        fill: #9cc87c;
      }

      .cls-27 {
        fill: #1c6734;
      }

      .cls-28 {
        fill: url(#radial-gradient-15);
      }

      .cls-26 {
        mix-blend-mode: screen;
        opacity: .3;
      }

      .cls-11 {
        fill: url(#radial-gradient-23);
      }

      .cls-12 {
        fill: url(#radial-gradient-14);
      }

      .cls-13 {
        fill: url(#radial-gradient-17);
      }

      .cls-14 {
        fill: url(#radial-gradient-16);
      }

      .cls-29 {
        fill: url(#radial-gradient-18);
      }

      .cls-15 {
        fill: url(#radial-gradient-12);
      }
    </style>
    <radialGradient id="radial-gradient" cx="241.25" cy="306.3" fx="241.25" fy="306.3" r="6.59" gradientTransform="translate(-2950.78 -3540.92) scale(13.38 12.69)" gradientUnits="userSpaceOnUse">
      <stop offset=".15" stop-color="#93c148"/>
      <stop offset=".26" stop-color="#7eb646"/>
      <stop offset=".47" stop-color="#489a42"/>
      <stop offset=".7" stop-color="#0b7b3e"/>
      <stop offset="1" stop-color="#0b562b"/>
    </radialGradient>
    <radialGradient id="radial-gradient-2" cx="241.25" cy="306.3" fx="241.25" fy="306.3" r="6.59" xlink:href="#radial-gradient"/>
    <radialGradient id="radial-gradient-3" cx="241.25" cy="306.3" fx="241.25" fy="306.3" r="6.59" xlink:href="#radial-gradient"/>
    <radialGradient id="radial-gradient-4" cx="246.64" cy="285.85" fx="246.64" fy="285.85" r="10.82" gradientTransform="translate(-2950.78 -3540.92) scale(13.38 12.69)" gradientUnits="userSpaceOnUse">
      <stop offset="0" stop-color="#93c148"/>
      <stop offset=".2" stop-color="#8fbf47"/>
      <stop offset=".37" stop-color="#85b946"/>
      <stop offset=".53" stop-color="#73b045"/>
      <stop offset=".68" stop-color="#5aa343"/>
      <stop offset=".83" stop-color="#3a9341"/>
      <stop offset=".97" stop-color="#137f3e"/>
      <stop offset="1" stop-color="#0b7b3e"/>
    </radialGradient>
    <radialGradient id="radial-gradient-5" cx="246.64" cy="285.85" fx="246.64" fy="285.85" r="10.83" xlink:href="#radial-gradient-4"/>
    <radialGradient id="radial-gradient-6" cx="246.64" cy="285.85" fx="246.64" fy="285.85" r="10.83" xlink:href="#radial-gradient-4"/>
    <radialGradient id="radial-gradient-7" cx="228.39" cy="279.2" fx="228.39" fy="279.2" r="9.42" xlink:href="#radial-gradient-4"/>
    <radialGradient id="radial-gradient-8" cx="228.39" cy="279.2" fx="228.39" fy="279.2" r="9.42" xlink:href="#radial-gradient-4"/>
    <radialGradient id="radial-gradient-9" cx="228.4" cy="279.2" fx="228.4" fy="279.2" r="9.42" xlink:href="#radial-gradient-4"/>
    <radialGradient id="radial-gradient-10" cx="223.11" cy="289.77" fx="223.11" fy="289.77" r="7.69" xlink:href="#radial-gradient-4"/>
    <radialGradient id="radial-gradient-11" cx="223.11" cy="289.77" fx="223.11" fy="289.77" r="7.7" xlink:href="#radial-gradient-4"/>
    <radialGradient id="radial-gradient-12" cx="223.11" cy="289.76" fx="223.11" fy="289.76" r="7.7" xlink:href="#radial-gradient-4"/>
    <radialGradient id="radial-gradient-13" cx="239.82" cy="296.61" fx="239.82" fy="296.61" r="10.08" xlink:href="#radial-gradient-4"/>
    <radialGradient id="radial-gradient-14" cx="239.82" cy="296.61" fx="239.82" fy="296.61" r="10.08" xlink:href="#radial-gradient-4"/>
    <radialGradient id="radial-gradient-15" cx="247.55" cy="301.32" fx="247.55" fy="301.32" r="8.06" xlink:href="#radial-gradient-4"/>
    <radialGradient id="radial-gradient-16" cx="247.55" cy="301.32" fx="247.55" fy="301.32" r="8.06" xlink:href="#radial-gradient-4"/>
    <radialGradient id="radial-gradient-17" cx="247.55" cy="301.32" fx="247.55" fy="301.32" r="8.05" xlink:href="#radial-gradient-4"/>
    <radialGradient id="radial-gradient-18" cx="234.62" cy="310.53" fx="234.62" fy="310.53" r="8.41" xlink:href="#radial-gradient-4"/>
    <radialGradient id="radial-gradient-19" cx="234.62" cy="310.53" fx="234.62" fy="310.53" r="8.41" xlink:href="#radial-gradient-4"/>
    <radialGradient id="radial-gradient-20" cx="234.62" cy="310.53" fx="234.62" fy="310.53" r="8.41" xlink:href="#radial-gradient-4"/>
    <radialGradient id="radial-gradient-21" cx="225.08" cy="312.91" fx="225.08" fy="312.91" r="9.33" xlink:href="#radial-gradient-4"/>
    <radialGradient id="radial-gradient-22" cx="225.08" cy="312.91" fx="225.08" fy="312.91" r="9.33" xlink:href="#radial-gradient-4"/>
    <radialGradient id="radial-gradient-23" cx="225.08" cy="312.91" fx="225.08" fy="312.91" r="9.33" xlink:href="#radial-gradient-4"/>
  </defs>
  <g class="cls-21">
    <g id="Layer_1" data-name="Layer 1">
      <g>
        <g>
          <path class="cls-27" d="m201.97,155.73c-5.81,7.32-10.7,15.3-17.04,22.19-3.15.66-6.83,1.77-10.17,2.94,5.04-9.07,11.39-17.27,18.66-24.92,8.15-8.5,18.41-15.11,26.42-23.7.18.56.43,1.14.61,1.67.51,1.47,1.05,2.99,1.76,4.41-8.47,3.31-14.91,10.69-20.25,17.42Z"/>
          <path class="cls-27" d="m136.96,196.22c-.9.79-1.84,1.7-2.72,2.69-.1-1.24-.17-2.46-.17-3.67.07-8.15.81-16.31,1.07-24.46.51-15.73-1.25-31.6-3.61-47.15-.05-.35-.29-.46-.59-.43,0-.03.05-.05.05-.07.41-2.08,2.01-3.65,4.09-4.33,2.19-.68,4.17.17,4.19,2.45,0,.36.21.58.43.71-.17,12.23,1.2,24.28.03,36.56-1.15,12.41-2.09,24.87-2.38,37.38-.16.13-.27.2-.41.33Z"/>
          <path class="cls-18" d="m265.51,241.43c-.48.78-1.03,1.47-1.57,2.2-7.67-4.43-18.57-6.15-26.9-3.52,0-.05-.05-.1-.05-.18-.29-1.24-.67-2.5-1.04-3.72,4.25-1.16,8.56-2.03,13.07-2.17,6.22-.2,13.17.51,19.31,1.9-.77,1.9-1.63,3.75-2.81,5.49Z"/>
          <path class="cls-18" d="m221.2,285.24c-2.94-10.05-13-17.85-22.51-22.74,2.19-.4,4.4-.81,6.62-1.32,8.01,4.97,15.46,10.39,20.19,18.38-1.74,1.57-3.2,3.62-4.3,5.67Z"/>
          <path class="cls-18" d="m121.48,231.6c-7.85,10.39-14.4,21.58-22.3,31.91-14.93,19.6-32.74,37.27-53.02,52.01-3.51-2.25-8.06-3.75-11.96-5.39,1.89-1.83,4.38-3.32,6.3-4.66,3.71-2.59,7.62-4.94,11.33-7.53,4.25-2.94,7.66-6.83,11.29-10.36,5.08-4.91,10.07-9.83,14.91-14.97,9.16-9.65,17.34-20.28,25.53-30.69,7.88-10.05,15.81-20.35,22.23-31.35.1.06.26.08.39,0-.42.21-.5-.15-.03.36.38.43.89.75,1.32,1.16,1.39,1.11,2.69,2.35,3.95,3.59.61.61,1.18,1.21,1.71,1.82-4.83,3.67-8.36,9.73-11.64,14.08Z"/>
          <path class="cls-18" d="m108.47,232.34c-.51,6.36-2.72,12.33-4.19,18.51.05-8,.69-16.05-.29-23.98-.92-7.27-4.55-15.85-10.07-21.25,1.53-1.24,3.45-1.9,5.61-2.43,1.18-.31,6.26-2.48,6.62-.81.41,1.7-.1,3.77-.24,5.49-.18,1.9.05,3.77.31,5.65.94,6.48,2.78,12.18,2.25,18.81Z"/>
          <path class="cls-27" d="m150.64,293.85c-.41-6.13-1.31-12.26-3.93-18.11-5.02-11.17-16.61-13.5-28.04-9.77-15.04,4.89-27.35,14.97-39.68,24.08-6.87,5.06-14.01,9.82-20.87,14.94-3.53,2.58-7.08,4.89-10.9,7.04-.05.03-.1.05-.13.08-2.35-1.72-5.02-3.22-7.7-4.39,3.58-1.62,7.46-2.78,10.79-4.91,5.02-3.24,9.21-7.6,13.38-11.75,9-9.06,19.79-15.37,30.9-21.62-1.41,2.38.77.66,1.18.35,5.53-4.76,11.62-8.05,19.1-9.29,7.6-1.26,15.64.51,22.83,2.84,7.05,2.26,14.35,6.63,18.8,12.33,3.04,3.87,6.95,8.48,8.36,13.29-4.76,1.47-9.49,3.12-14.1,4.89Z"/>
          <path class="cls-27" d="m117.12,237.96c-2.82,2.45-5.36,5.11-8.22,7.52-1.76,1.47-3.63,2.86-5.72,3.9-.85.46-1.78.71-2.77.71-.16,0,.82-2.18,1.36-3.44.16-.02.28-.13.35-.25,2.64-6.23,8.86-11.55,13.97-16.06,6.45-5.75,13.89-10.69,22.08-13.98.13-.05.22-.12.3-.2.64,1.77,1.18,3.57,1.52,5.42-8.89,2.33-16.32,10.69-22.87,16.38Z"/>
        </g>
        <g>
          <path class="cls-22" d="m137.45,119.27c-.33,12.23.08,24.36-.46,36.46-.11-3.85-.21-7.72-.34-11.55-.3-7.95-.41-16.97-4.04-24.23,1.66-.43,3.34-.93,4.86-.86,0,.05-.03.12-.03.18Z"/>
          <path class="cls-22" d="m205.98,149.1c-5.29,4.97-9.29,10.33-13.14,16.31-1.52-.07-3.15.1-4.61.46,6.81-11.42,18.4-18.38,27.93-28.01,0,.99.16,1.98.39,2.94-3.97,2.13-7.39,5.32-10.57,8.31Z"/>
          <path class="cls-22" d="m77.87,288.2c-4.32,2.61-8.87,4.79-13.4,7.02,2.51-2.02,4.94-4.1,7.5-5.95,5.07-3.65,9.88-7.62,14.99-11.22,9.67-6.73,19.7-12.36,30.9-16.06-7.62,3.67-14.63,8.46-21.48,13.4-6.09,4.38-12.07,8.89-18.5,12.81Z"/>
          <path class="cls-22" d="m156.22,290.05c-1.31-4.96-3.58-9.73-6.6-14.1-1.44-2.11-3.66-5.14-6.25-7.75,4.66,3.12,8.6,7.22,11.43,11.92,2.08,3.37,3.25,7.09,3.97,10.89-.82-.28-1.71-.61-2.56-.96Z"/>
          <path class="cls-22" d="m103.32,247.56c4.46-7.49,8.94-13.83,16.99-17.93-.81.81-1.58,1.67-2.33,2.58-4.35,5.57-10.13,9.92-14.66,15.34Z"/>
          <path class="cls-22" d="m105.32,219.14c.1,2.18.08,4.33-.05,6.44-.64-3.22-1.5-6.41-2.4-9.42-1.1-3.44-2.61-7.9-5.4-10.84,2.35-.86,4.7-1.42,7.16-1.67-.1,5.17.51,10.33.69,15.5Z"/>
        </g>
        <g>
          <g>
            <path class="cls-23" d="m269.44,277.44c-7.37-8.77-17.04-14.94-28.88-16.51-11.11-1.52-20.44,6.53-21.36,16.49-8.87,1.09-14.05,9.45-16.65,17.25-2.85,8.58-1.08,17.62,4.86,24.64,7.27,8.58,17.47,13.97,28.24,17.72,6.3,2.18,12.9,3.07,19.44,4.38,5.61,1.17,13.07,3.75,18.51.92,3.36-1.67,3.95-6.28,4.4-9.42.9-6.23,1.36-12.61,1.71-18.84.82-13.22-1.45-26.08-10.28-36.61Z"/>
            <g>
              <path class="cls-25" d="m222.91,277.69s.26.15.8.4c.54.23,1.35.58,2.22,1.27.99.56,1.97,1.42,3.15,2.48,1.1,1.04,2.3,2.28,3.47,3.7,1.23,1.39,2.48,2.96,3.79,4.56,1.31,1.72,2.71,3.39,4.06,5.24,1.33,1.85,2.89,3.67,4.19,5.7,1.31,2.03,2.64,4.05,4.02,6.13,1.32,2.08,2.57,4.11,3.83,6.18,1.28,2,2.33,4.15,3.63,5.93,1.28,1.85,2.43,3.69,3.55,5.41.55.76,1.28,1.57,1.87,2.33.61.81,1.2,1.55,1.82,2.18,1.2,1.32,2.29,2.58,3.36,3.65,1.04,1.06,1.92,2.03,2.68,2.78,1.49,1.57,2.31,2.51,2.31,2.51,0,0-1.03-.73-2.77-2-1.74-1.31-4.22-3.14-7.05-5.72-1.46-1.24-2.72-2.63-4.25-4.25-1.31-1.67-2.69-3.5-4.09-5.37-1.41-1.83-2.64-3.85-3.92-5.88-1.28-2-2.59-4.1-3.92-6.08-1.29-2.03-2.55-4.05-3.83-6.08-1.25-1.98-2.67-3.93-3.92-5.82-2.53-3.75-4.91-7.3-6.95-10.31-1.01-1.49-1.97-2.84-2.88-3.98-.97-1.12-1.76-2.12-2.57-2.81-.72-.73-1.44-1.29-1.89-1.59-.48-.35-.72-.56-.72-.56Z"/>
              <path class="cls-25" d="m239.49,303.57s0,.48-.03,1.29c-.08.79-.29,1.95-.61,3.3-.34,1.31-.88,2.84-1.46,4.38-.59,1.6-1.23,3.24-1.87,4.86-.3.81-.61,1.62-.91,2.43-.29.76-.59,1.55-.77,2.28-.23.79-.4,1.5-.59,2.23-.08.66-.26,1.37-.29,1.98,0,.61-.12,1.21-.04,1.7.09.51.04.98.17,1.39.16.71.26,1.21.26,1.21,0,0-.34-.33-.87-.96-.3-.36-.56-.79-.81-1.32-.31-.53-.47-1.16-.69-1.88-.18-.71-.21-1.47-.29-2.33.05-.8,0-1.72.21-2.58.1-.86.3-1.77.54-2.68.23-.86.59-1.72.88-2.63.71-1.67,1.5-3.35,2.33-4.81.84-1.52,1.66-2.84,2.4-4,.72-1.14,1.31-2.02,1.76-2.73.43-.71.69-1.12.69-1.12Z"/>
              <path class="cls-25" d="m247.42,303.32s2.06-.48,5.11-.79c.75-.07,1.57-.12,2.48-.12s1.82-.02,2.74,0c.48,0,.97.05,1.48.05l.77.05.77.03c.94.11,1.96.18,2.97.28.99.11,2.01.2,3.04.41,1.02.15,2.01.4,2.94.66.99.25,1.92.61,2.76.99.42.18.82.41,1.2.61.37.25.72.48,1.06.73.65.48,1.17.96,1.58,1.47.46.46.69.99.97,1.34.39.81.56,1.24.56,1.24,0,0-.41-.3-1.1-.81-.38-.25-.74-.56-1.28-.84-.48-.3-1.12-.56-1.74-.83-.67-.23-1.39-.46-2.17-.66-.77-.17-1.62-.3-2.51-.45-1.76-.28-3.68-.41-5.68-.64-1.02-.12-2.04-.2-3.02-.38-.99-.12-1.92-.25-2.84-.38-1.84-.28-3.55-.66-5.07-.86-2.99-.48-5.03-1.09-5.03-1.09Z"/>
              <path class="cls-25" d="m232.76,281.28s.43-.35,1.23-.98c.38-.3.89-.68,1.42-1.07.52-.48,1.31-.79,2.1-1.19.77-.35,1.66-.89,2.61-1.21.97-.3,2.01-.66,3.07-.97,1.1-.3,2.22-.48,3.4-.66,1.15-.25,2.35-.33,3.48-.45,1.2,0,2.43-.11,3.61-.06,1.18.06,2.35.18,3.46.36,1.12.12,2.17.43,3.16.71,1.03.2,1.92.66,2.74,1.02.84.3,1.53.86,2.14,1.21.29.2.59.38.8.58.26.23.46.43.64.61.69.74,1.1,1.14,1.1,1.14,0,0-.59-.23-1.48-.63-.26-.07-.5-.2-.75-.33-.29-.11-.59-.15-.93-.25-.67-.18-1.33-.46-2.17-.56-.82-.16-1.66-.35-2.64-.41-.94-.12-1.92-.2-2.94-.25-1.04-.08-2.12,0-3.2-.06-1.07.06-2.14.11-3.24.15-1.17.1-2.29.15-3.33.3-1.1.15-2.19.15-3.2.35-1.02.2-2.01.35-2.97.51-.97.15-1.76.4-2.6.58-.8.23-1.57.28-2.23.56-.67.23-1.25.43-1.76.56-.97.3-1.53.43-1.53.43Z"/>
              <path class="cls-25" d="m225.82,287.84s0,.58-.05,1.55c0,.5-.14,1.11-.3,1.82-.13.71-.37,1.42-.67,2.28-.59,1.59-1.46,3.44-2.46,5.26-.51.91-.9,1.88-1.38,2.84-.38.91-.94,2.02-1.28,2.96-.35.97-.73,1.9-1.02,2.94-.33.98-.61,2-.82,2.96-.3,1.01-.46,1.95-.67,2.86-.2.93-.38,1.8-.54,2.61-.27,1.62-.48,2.99-.64,3.95-.17.98-.27,1.54-.27,1.54,0,0-.18-.56-.4-1.52-.13-.48-.29-1.07-.34-1.77-.11-.69-.25-1.45-.3-2.31-.03-.87-.13-1.78-.05-2.76.05-.99,0-2.03.22-3.07.16-1.09.26-2.2.61-3.29.21-1.12.64-2.28,1.06-3.39.41-1.12.92-2.03,1.45-3.09.56-1.01,1.18-1.95,1.76-2.86.59-.91,1.2-1.72,1.76-2.5.56-.76,1.06-1.52,1.51-2.18.46-.71.94-1.32,1.23-1.9.33-.58.69-1.03.92-1.52.42-.89.67-1.42.67-1.42Z"/>
            </g>
            <path class="cls-5" d="m226.8,302.08c2.76-6.49,7.38-5.88,11.65-3.12-.25-11.19,14.23-20.39,24.92-12.79,8.22,5.85,13.18,14.82,16.48,24.44.24-12-2.33-23.55-10.41-33.17-7.37-8.77-17.04-14.94-28.88-16.51-11.11-1.52-20.44,6.53-21.36,16.49-8.87,1.09-14.05,9.45-16.65,17.25-2.85,8.58-1.08,17.62,4.86,24.64,5.98,7.06,14.01,11.97,22.66,15.57-4.76-10.56-7.49-22.82-3.27-32.79Z"/>
            <path class="cls-7" d="m257.71,267.13c-5.09-3.17-10.81-5.4-17.14-6.21-11.11-1.52-20.44,6.53-21.36,16.49-8.87,1.09-14.05,9.45-16.65,17.25-2.85,8.58-1.08,17.62,4.86,24.64.14.17.33.35.48.53-2-5.16-3.23-10.56-2.64-15.95.75-6.94,5.98-14.33,12.87-17.02,3.42-1.34,6.62-1.6,9.59-.99,1.49-13.55,16.14-19.22,29.99-18.74Z"/>
          </g>
          <g>
            <path class="cls-20" d="m349.69,95.21c-1.46-16.1-23.23-23.25-37.28-25.58-19.82-3.26-41.24-.74-60.13,5.52-18.21,6.08-36.15,18.56-43.61,35.88-3.33,7.75-3.57,21.73,5.62,25.3-.05,7.59,6.86,14.74,13.51,19.3,12.9,8.86,28.23,12.1,43.97,10.66,20.37-1.85,41.45-11.57,55.33-25.86,5.93-6.08,10.26-13.57,14.1-20.97,3.63-6.99,9.26-16.15,8.49-24.26Z"/>
            <g>
              <path class="cls-25" d="m216.21,136.71s.43-.33,1.2-.93c.8-.56,1.87-1.59,3.23-2.81,1.33-1.29,2.94-2.84,4.73-4.68,1.79-1.82,3.89-3.88,6.44-5.93.67-.45,1.33-.96,2.02-1.47l.51-.35c.26-.18.37-.25.59-.35.37-.23.72-.46,1.12-.66,1.46-.89,3.04-1.77,4.61-2.71,3.19-1.85,6.52-3.77,10.02-5.75,3.53-1.93,7.21-3.9,10.95-5.82,1.87-.97,3.76-1.98,5.66-2.94l1.45-.76.75-.35.74-.36,2.89-1.42c1.97-.86,3.87-1.82,5.84-2.68,2.01-.81,4.01-1.62,5.98-2.43.99-.41,1.99-.86,2.96-1.22,1.02-.3,2.04-.66,3.05-.96,1.97-.68,3.96-1.34,5.88-1.98,3.97-1.01,7.85-1.98,11.51-2.73,3.68-.71,7.21-1.16,10.49-1.44,6.55-.61,12.05-.3,15.81.43.97.18,1.76.46,2.48.63.71.28,1.29.48,1.74.71.89.48,1.4.73,1.4.73,0,0-.54-.2-1.48-.58-.46-.12-1.07-.3-1.79-.48-.69-.11-1.52-.3-2.46-.38-3.71-.45-9.13-.15-15.46.79-3.19.48-6.62,1.12-10.18,1.98-3.61.91-7.27,2.02-11.15,3.07-1.87.68-3.76,1.39-5.68,2.07-1.97.68-3.89,1.39-5.83,2.23-1.95.84-3.84,1.64-5.81,2.45-1.95.84-3.84,1.83-5.8,2.71l-2.9,1.39-.73.3-.69.33-1.41.73c-1.89.97-3.79,1.93-5.66,2.89-3.78,1.88-7.46,3.75-11.04,5.52-3.58,1.9-6.99,3.69-10.28,5.41-1.59.84-3.2,1.67-4.74,2.48-.38.15-.76.38-1.12.56-.2.1-.46.2-.54.3l-.51.3c-.69.43-1.36.86-2,1.26-2.57,1.83-4.81,3.65-6.77,5.32-1.97,1.67-3.71,3.14-5.15,4.31-1.49,1.12-2.69,1.98-3.55,2.48-.88.5-1.33.78-1.33.78Z"/>
              <path class="cls-25" d="m285.78,98.61s.16.1.51.35c.29.25.82.51,1.46.81.67.3,1.46.61,2.46.86.99.28,2.1.5,3.34.75,2.46.46,5.36.81,8.55,1.16,1.57.2,3.2.36,4.91.61,1.62.25,3.41.45,5.15.91,1.66.45,3.29.89,4.91,1.31,1.63.41,3.22.97,4.76,1.39,3.1.89,5.91,2.05,8.26,3.02,1.23.43,2.27.98,3.2,1.49.94.48,1.71.91,2.35,1.29,1.33.71,2.03,1.16,2.03,1.16,0,0-.85-.2-2.26-.58-.76-.17-1.63-.43-2.63-.73-.98-.3-2.08-.61-3.33-.86-1.25-.3-2.6-.61-3.98-1.02-1.41-.35-2.94-.63-4.46-1.01-3.1-.71-6.39-1.52-9.72-2.33-1.53-.43-3.15-.71-4.81-.97-1.66-.25-3.32-.61-4.86-.86-3.17-.61-6.14-1.31-8.6-2.22-2.48-.84-4.44-1.9-5.67-2.86-.59-.48-.95-.89-1.23-1.25-.21-.3-.34-.45-.34-.45Z"/>
              <path class="cls-25" d="m314.01,91.31s2.09-.3,5.21-.35c1.54-.05,3.36,0,5.26.25.95.1,1.97.2,2.98.35,1.02.11,1.99.3,3.02.43,2.04.28,4.06.63,5.88.86,1.82.25,3.66.58,5.19.91,1.52.3,2.77.79,3.63,1.07.88.33,1.33.53,1.33.53,0,0-.54.06-1.45.13-.93.07-2.16.05-3.74.12-1.54.08-3.28.13-5.28.08-.99-.03-2.04-.03-3.02-.13-1.02-.1-2.06-.25-3.07-.38-.99-.13-2.04-.33-2.99-.53-.97-.15-1.93-.41-2.86-.63-.94-.18-1.82-.43-2.67-.63-.89-.18-1.71-.41-2.44-.58-3.01-.74-4.99-1.5-4.99-1.5Z"/>
              <path class="cls-25" d="m250.15,115.9s1.12.28,3.12.73c1.02.18,2.17.71,3.5,1.22,1.38.48,2.84,1.21,4.38,1.98,1.61.78,3.2,1.72,4.94,2.73,1.74,1.01,3.5,2.1,5.32,3.24.94.53,1.84,1.12,2.81,1.67.9.56,1.87,1.12,2.82,1.67.97.56,1.95,1.07,2.97,1.52,1.02.51,1.92,1.02,3.05,1.42,2.12.93,4.22,1.88,6.31,2.61,2.05.84,4.13,1.49,6.17,2.13,1.01.38,2.02.5,3.02.76.95.23,1.92.43,2.85.66,1.91.22,3.7.22,5.47.25,3.53.03,6.55.18,8.56.79,1.01.25,1.75.71,2.21.99.43.33.67.5.67.5,0,0-.26-.12-.77-.33-.51-.2-1.25-.43-2.22-.5-2-.23-4.86.05-8.32.4-1.71.2-3.71.43-5.83.3-1.12-.12-2.08-.3-3.17-.46-1.1-.15-2.2-.3-3.27-.61-2.16-.61-4.4-1.09-6.59-1.98-2.25-.76-4.36-1.64-6.49-2.56-1.04-.43-2.17-1.04-3.2-1.54-1.1-.53-2.12-1.09-3.11-1.7-2.03-1.16-3.84-2.45-5.63-3.65-1.79-1.21-3.45-2.45-5.04-3.57-1.63-1.12-3.07-2.28-4.52-3.17-1.44-.93-2.72-1.85-3.89-2.46-1.23-.66-2.22-1.36-3.2-1.72-1.84-.8-2.89-1.34-2.89-1.34Z"/>
              <path class="cls-25" d="m224.49,135.38h.9c.56.05,1.41-.11,2.51.15.54.13,1.18.21,1.82.35.61.2,1.31.41,2.06.66,1.41.5,3.05,1.14,4.67,2,1.71.81,3.42,1.8,5.24,2.89,1.79,1.06,3.68,2.2,5.63,3.42,1.92,1.26,3.96,2.22,6.01,3.39,2.12.97,4.22,2.13,6.49,2.89,1.07.41,2.25.92,3.28,1.27,1.18.35,2.33.71,3.5,1.06,1.17.43,2.25.56,3.34.81,1.11.2,2.18.56,3.33.61,1.07.13,2.17.21,3.25.36,1.05.15,2.14.05,3.16.1,1.03,0,2.08.05,3.02,0,.95-.05,1.87-.12,2.79-.25,3.66-.4,6.87-.61,9.08-.35,1.07.15,1.95.35,2.46.66.54.3.67.56.72.56-.05,0-.26-.2-.77-.38-.54-.23-1.41-.23-2.46-.18-2.1.11-5.07.76-8.7,1.55-.89.17-1.87.4-2.89.58-1.04.15-2.05.15-3.17.25-1.1.02-2.22.2-3.37.12-1.12-.02-2.3-.12-3.5-.18-1.2,0-2.43-.3-3.66-.48-1.23-.23-2.53-.38-3.63-.76-1.18-.35-2.36-.68-3.54-1.04-1.27-.4-2.35-.86-3.58-1.31-2.35-.84-4.57-2.08-6.79-3.14-1.06-.58-2.1-1.24-3.12-1.88-1.03-.61-2.08-1.26-2.99-1.9-3.74-2.58-7.12-5.14-10.11-7.07-1.53-.98-2.97-1.82-4.22-2.48-.67-.33-1.28-.61-1.87-.89-.56-.22-1.12-.38-1.63-.58-.97-.4-1.82-.5-2.4-.63-.54-.12-.85-.17-.85-.17Z"/>
              <path class="cls-25" d="m230.46,120.23c-.08-1.72-.03-3.44.03-5.19.12-1.72.22-3.44.41-5.17.16-1.7.48-3.39.67-5.09.3-1.72.61-3.39.92-5.06l.03-.11v-.03c.39-1.57.77-3.19,1.23-4.84.48-1.59.93-3.24,1.63-4.84.64-1.59,1.46-3.19,2.51-4.61.54-.68,1.11-1.39,1.82-1.97.31-.3.69-.56,1.01-.81.41-.28.81-.48,1.2-.69-.59.69-1.1,1.32-1.49,2.05-.43.69-.77,1.42-1.07,2.16-.35.76-.59,1.52-.82,2.28-.22.79-.46,1.57-.64,2.33-.35,1.57-.73,3.14-.99,4.79-.33,1.59-.64,3.24-1.04,4.89v-.11c-.29,1.67-.64,3.37-1.01,5.04-.46,1.7-.81,3.37-1.28,5.01-.41,1.67-.89,3.35-1.37,4.99-.54,1.67-1.03,3.34-1.71,4.96Z"/>
              <path class="cls-25" d="m263.56,103.19s-.05-2.16.33-5.25c.1-.78.16-1.64.34-2.53.25-.89.46-1.83.72-2.76.27-.98.54-2,.86-2.99.16-.48.29-.94.44-1.42l.43-1.47c.27-.99.54-2,.89-3.01.29-.99.67-1.95,1.01-2.89.38-.93.78-1.85,1.2-2.68.46-.86.91-1.62,1.4-2.28.47-.71,1.01-1.29,1.51-1.77.48-.51.94-.86,1.41-1.12.41-.3.78-.41,1.02-.51.27-.1.41-.13.41-.13,0,0-.08.08-.3.28-.16.2-.39.46-.69.81-.26.36-.51.84-.8,1.37-.27.56-.54,1.19-.81,1.9-.24.73-.5,1.49-.74,2.33-.24.84-.48,1.72-.72,2.66-.46,1.82-.9,3.85-1.49,5.87l-.48,1.55c-.18.63-.35.98-.54,1.49-.35.96-.74,1.85-1.12,2.76-.34.89-.75,1.75-1.12,2.55-.31.87-.67,1.67-.93,2.38-1.15,2.96-2.22,4.84-2.22,4.84Z"/>
              <path class="cls-25" d="m306.61,86.7s-.13-.23-.29-.66c-.2-.4-.41-.99-.43-1.77-.05-.35-.1-.81-.08-1.21.03-.41.03-.86.08-1.32.1-.91.37-1.85.67-2.79.21-.45.38-.91.59-1.34.18-.43.46-.84.69-1.24.51-.78,1.12-1.47,1.69-2,.54-.53,1.18-.89,1.54-1.12.41-.22.64-.33.64-.33,0,0-.03.28-.08.71-.1.45-.26.99-.39,1.67-.17.71-.41,1.44-.59,2.25-.3.79-.51,1.65-.84,2.46-.16.4-.31.81-.5,1.24-.14.41-.35.79-.48,1.19-.35.76-.69,1.5-1.02,2.08-.31.61-.61,1.19-.82,1.57-.22.41-.38.61-.38.61Z"/>
            </g>
            <path class="cls-26" d="m340.48,83.03c-3.25-9.75-18.64-11.88-27.43-13.3-14.06-2.28-28.98-1.26-42.18,3.95-8.26,3.21-22.46,12.31-20.67,22.59,1.53,8.68,9.67,9.22,17.06,7.62-2.61,3.98-3.33,8.54.13,13.55,6.73,9.83,22.36,11.05,33.17,9.73,13.43-1.59,23.43-8.96,31.57-18.69,5.88-6.96,11.38-16.36,8.34-25.45Z"/>
            <path class="cls-9" d="m299.4,143.99c-13.4,2.78-27.86,1.87-38.7-6.99-7.37-6.03-12.47-13.01-12.9-20.94-6.83,2.03-15.94-.38-18.54-7.37-2.69-7.3,1.35-15.55,5.75-21.53,2.03-2.71,4.17-5.22,6.44-7.57-14.16,6.86-26.82,17.62-32.78,31.45-3.33,7.75-3.57,21.73,5.62,25.3-.05,7.59,6.86,14.74,13.51,19.3,12.9,8.86,28.23,12.1,43.97,10.66,20.37-1.85,41.45-11.57,55.33-25.86,5.93-6.08,10.26-13.57,14.1-20.97.03-.02.05-.05.05-.07-11.69,11.68-25.69,21.2-41.85,24.59Z"/>
            <path class="cls-2" d="m274.51,158.19c-12.61-1.82-27.5-4.91-36.24-14.61-4.32-4.84-7.29-10.99-6.7-17.02-9.62,2.1-16.24-5.82-17.68-14.43-.54-3.14-.61-6.44-.31-9.8-1.93,2.76-3.61,5.64-4.9,8.71-3.33,7.75-3.57,21.73,5.62,25.3-.05,7.59,6.86,14.74,13.51,19.3,12.9,8.86,28.23,12.1,43.97,10.66,12.77-1.16,25.82-5.44,37.2-11.95-11.25,3.24-22.62,5.55-34.45,3.85Z"/>
          </g>
          <g>
            <path class="cls-16" d="m165.73,91.36c-.41-26.03-7.49-53.46-26.88-72.59-7.83-7.74-22.94-23.49-35.76-17.41-5.63,2.65-8.65,9.8-10.85,14.89-3.46,7.94-5.5,16.45-8.49,24.51-7.24,19.55-13.33,38.34-9.6,59.26,2.48,14.02,10.65,28.89,25.58,33.93,14.12,4.76,28.6.45,33.41-12.74,8.28,3.47,18.16,4.86,25.15-1.77,7.36-6.94,7.57-19.02,7.43-28.09Z"/>
            <g>
              <path class="cls-25" d="m105.03,5.06s-.07.12-.17.33c-.05.21-.08.51-.05.93,0,.83.35,2.03.86,3.52.98,2.97,3.02,7.05,5.47,11.91,1.25,2.43,2.59,5.08,4.02,7.85.69,1.38,1.45,2.96,2.06,4.43.64,1.52,1.28,3.07,1.92,4.66.34.79.64,1.57.98,2.38.33.81.59,1.62.89,2.48.59,1.67,1.15,3.37,1.74,5.09.64,1.7,1.03,3.47,1.52,5.22.48,1.75.97,3.52,1.42,5.29.77,3.55,1.46,7.14,2.16,10.64.69,3.5,1.25,6.94,1.87,10.28,1.18,6.66,2.22,12.91,3.02,18.26.2,1.34.43,2.58.56,3.87.16,1.21.25,2.38.4,3.49.13,2.2.08,4.16.13,5.72v3.67c0,.43-.03.79-.08.98,0,.11-.1.21-.16.15-.05-.02-.08-.05-.08-.05-.04,0,.18.15.18-.11.05-.25.03-.56-.03-.96-.08-.86-.38-2.05-.51-3.7-.21-1.54-.35-3.39-.75-5.57-.48-2.18-.99-4.56-1.63-7.19-1.23-5.26-2.64-11.45-4.04-18.08-.69-3.35-1.46-6.76-2.13-10.26-.74-3.47-1.48-6.96-2.27-10.46-.46-1.72-.88-3.49-1.33-5.22-.43-1.72-.82-3.44-1.41-5.12-1.15-3.34-1.96-6.68-3.24-9.85-.61-1.6-1.2-3.17-1.79-4.69-.54-1.57-1.06-2.95-1.74-4.39-1.28-2.86-2.46-5.58-3.49-8.1-2.12-5.06-3.61-9.39-4.32-12.5-.38-1.55-.51-2.82-.41-3.68.03-.45.13-.76.21-.95.13-.19.2-.3.2-.3Z"/>
              <path class="cls-25" d="m122.12,39.94s.05-1.62.29-3.93c.1-1.16.33-2.52.61-3.94.3-1.44.67-2.97,1.2-4.5.3-.74.59-1.51.94-2.22.34-.72.72-1.43,1.15-2.08.37-.7.9-1.28,1.33-1.86.51-.54.93-1.05,1.49-1.44.48-.41.97-.8,1.45-1.03.44-.25.85-.49,1.25-.58.69-.22,1.12-.3,1.12-.3,0,0-.3.33-.73.84-.29.24-.47.61-.77.97-.29.34-.51.84-.8,1.3-.33.43-.56,1.02-.86,1.56-.23.58-.52,1.16-.8,1.81-.26.63-.51,1.3-.75,2-.27.68-.54,1.41-.8,2.1-.48,1.42-1.02,2.84-1.55,4.22-.51,1.34-1.07,2.61-1.61,3.67-1.06,2.17-2.18,3.42-2.18,3.42Z"/>
              <path class="cls-25" d="m132.67,84.27s.48-.56,1.38-1.44c.48-.43.92-1.09,1.48-1.75.56-.61,1.07-1.47,1.71-2.28.64-.86,1.2-1.88,1.92-2.84.59-1.07,1.25-2.12,1.87-3.29.34-.55.64-1.13.95-1.75.33-.61.61-1.21.92-1.82.67-1.19,1.23-2.51,1.82-3.77.59-1.26,1.2-2.51,1.69-3.8.51-1.27,1.1-2.53,1.54-3.75.46-1.22.94-2.41,1.37-3.55.39-1.12.8-2.22,1.14-3.19.3-1.01.68-1.92.94-2.73.21-.86.48-1.57.64-2.18.38-1.16.61-1.87.61-1.87,0,0,.03.73.05,1.97.03,1.27-.05,3.07-.34,5.22-.14,1.06-.33,2.22-.59,3.44-.3,1.21-.54,2.48-.97,3.75-.41,1.31-.77,2.66-1.31,4-.48,1.34-1.1,2.63-1.66,4-.67,1.32-1.28,2.64-1.97,3.85-.67,1.29-1.48,2.48-2.25,3.62-.72,1.2-1.63,2.2-2.38,3.22-.85.96-1.65,1.87-2.48,2.63-.82.76-1.54,1.47-2.3,2-.8.56-1.38,1.06-1.97,1.34-1.12.64-1.82.97-1.82.97Z"/>
              <path class="cls-25" d="m135.23,104.28s.54-.2,1.42-.61c.47-.15.98-.45,1.54-.76.56-.28,1.2-.66,1.87-1.06.67-.38,1.34-.94,2.09-1.42.72-.56,1.41-1.14,2.16-1.75.73-.66,1.48-1.34,2.22-2.05.72-.66,1.41-1.44,2.17-2.18,1.41-1.52,2.82-3.06,4.18-4.56,1.34-1.47,2.6-2.86,3.75-4.03,2.21-2.35,3.97-3.75,3.97-3.75,0,0-.82,2-2.4,4.84-.74,1.42-1.74,3.02-2.91,4.66-.61.81-1.2,1.72-1.89,2.53-.67.86-1.41,1.65-2.16,2.48-.81.76-1.58,1.57-2.46,2.28-.78.76-1.71,1.37-2.6,1.98-.85.61-1.76,1.12-2.67,1.57-.92.46-1.76.84-2.59,1.07-.43.1-.84.25-1.2.38-.41.07-.78.12-1.12.2-.72.12-1.31.23-1.79.17-.99.06-1.58,0-1.58,0Z"/>
              <path class="cls-25" d="m76.5,81.31s.73.5,2.01,1.44c1.23.97,3.07,2.23,5.2,3.75,1.07.76,2.25,1.52,3.5,2.38,1.31.81,2.59,1.72,4.01,2.56,1.41.86,2.85,1.7,4.38,2.53,1.46.86,3.04,1.64,4.63,2.4,1.52.79,3.23,1.52,4.64,2.18.86.3,1.69.61,2.46.93.81.25,1.58.53,2.35.79,1.55.45,3.07.96,4.55,1.29,1.46.38,2.88.61,4.17.89,1.33.15,2.51.3,3.57.4,1.1,0,2.06.08,2.81.06,1.58-.18,2.51-.25,2.51-.25,0,0-.82.33-2.38.86-.77.25-1.76.38-2.88.56-1.12.15-2.4.2-3.8.2-1.38-.05-2.94-.05-4.51-.35-1.58-.15-3.2-.51-4.91-.91-.84-.25-1.71-.46-2.6-.71-.82-.25-1.65-.53-2.48-.84-1.79-.74-3.41-1.39-5.07-2.21-1.63-.84-3.25-1.67-4.78-2.63-1.54-.86-2.99-1.93-4.35-2.86-1.44-.93-2.67-2.02-3.87-2.99-1.2-.98-2.22-1.97-3.22-2.89-.98-.89-1.82-1.8-2.56-2.61-.77-.76-1.33-1.52-1.87-2.08-.97-1.21-1.5-1.9-1.5-1.9Z"/>
              <path class="cls-25" d="m83.63,50.24s.56.43,1.5,1.24c.51.43,1.06.91,1.67,1.52.65.58,1.37,1.24,2.19,1.9.85.63,1.74,1.31,2.61,2.07.89.81,2.01,1.42,3.04,2.17,1.07.76,2.12,1.6,3.32,2.28,1.15.71,2.33,1.44,3.5,2.18,1.23.66,2.46,1.29,3.68,1.93,1.17.68,2.4,1.26,3.63,1.82,1.2.51,2.33,1.16,3.44,1.59,1.12.43,2.22.89,3.21,1.29.95.46,1.87.81,2.69,1.12.84.25,1.55.56,2.14.81,1.18.45,1.84.76,1.84.76,0,0-.76-.05-2.04-.15-.64-.05-1.41-.13-2.29-.25-.46-.05-.92-.1-1.42-.15-.51-.1-.98-.22-1.51-.35-1.1-.23-2.27-.48-3.5-.81-1.23-.3-2.48-.8-3.79-1.26-1.25-.46-2.65-.91-3.93-1.6-1.25-.66-2.61-1.29-3.92-1.97-1.23-.79-2.46-1.6-3.66-2.38-1.25-.73-2.22-1.77-3.32-2.61-1.01-.89-2.05-1.7-2.89-2.66-.85-.93-1.62-1.8-2.31-2.61-.76-.81-1.28-1.62-1.74-2.33-.48-.74-.86-1.37-1.18-1.88-.64-1.06-.99-1.67-.99-1.67Z"/>
              <path class="cls-25" d="m93.89,19.41s.33.23.89.67c.29.23.61.49.95.81.35.35.8.69,1.23,1.03.46.35.94.72,1.45,1.13.44.42,1.06.78,1.59,1.23.56.41,1.1.89,1.74,1.28.59.42,1.18.86,1.76,1.31.64.41,1.28.81,1.87,1.23.59.45,1.23.82,1.82,1.19.59.38,1.15.8,1.71,1.13.56.32,1.1.65,1.57.98.48.3.94.61,1.37.81.39.24.77.47,1.07.66.61.37.95.62.95.62,0,0-.43,0-1.15-.02-.37-.01-.82-.01-1.31-.06-.51-.06-1.1-.12-1.68-.28-.61-.14-1.25-.3-1.95-.49-.69-.21-1.36-.51-2.05-.81-.73-.3-1.5-.61-2.14-1.05-.72-.4-1.41-.84-2.1-1.28-1.26-1-2.6-1.95-3.58-3.12-.48-.58-.99-1.1-1.42-1.66-.39-.58-.77-1.16-1.08-1.67-.33-.5-.59-.99-.73-1.43-.21-.43-.31-.84-.44-1.15-.22-.66-.33-1.03-.33-1.03Z"/>
            </g>
            <path class="cls-3" d="m165.73,91.36c-.17-10.28-1.4-20.79-3.96-30.89,0,16.61-6.3,38.14-29.96,36.26-5.67,7.4-13.68,12.77-23.83,10.03-12.41-3.39-20.19-13.29-23.58-24.77-3.04-10.18-4.13-21.27-3.79-32.46-5.66,16.48-9.62,32.72-6.45,50.5,2.48,14.02,10.65,28.89,25.58,33.93,14.12,4.76,28.6.45,33.41-12.74,8.28,3.47,18.16,4.86,25.15-1.77,7.36-6.94,7.57-19.02,7.43-28.09Z"/>
            <path class="cls-8" d="m165.73,91.36c-.05-4.63-.35-9.32-.89-13.93-6.01,17.75-17.35,35.25-32.29,30.97-3.58,6.36-8.7,11.65-16.19,12.81-11.34,1.75-21.1-3.8-28.34-11.82-5.89-6.48-11.39-14.94-14.92-23.98-.13,4.78.18,9.6,1.05,14.61,2.48,14.02,10.65,28.89,25.58,33.93,14.12,4.76,28.6.45,33.41-12.74,8.28,3.47,18.16,4.86,25.15-1.77,7.36-6.94,7.57-19.02,7.43-28.09Z"/>
            <path class="cls-26" d="m139.85,21.41C133.95,11.72,118.83-1.83,105.96.78c-7.85,1.59-10.71,10.78-12.5,18.86-8.27,15.99-13.26,34.53.54,48.1,6.52,6.44,17.06,6.46,25.14,3.27,2.54-1.02,4.59-2.58,6.38-4.44,5.19,3.42,11.59,4.08,18.21-.48,14.29-9.77,2.65-33.97-3.87-44.68Z"/>
          </g>
          <g>
            <path class="cls-17" d="m118.14,171.51c-8.11-9.92-17.91-18.91-29.42-25.24-13.73-7.6-34.45-13.78-50.06-8.56-3.12,1.04-3.47,27.63,1.69,38.79,2.86,6.22,6.96,11.9,10.47,17.8,3.04,5.09,5.16,10.76,9.05,15.37,6.52,7.67,15.99,11.55,26.35,10.66,7.75-.68,14.29-5.49,16.11-12.28,8.28,6.28,21.08,3.7,25.43-5.87,4.73-10.26-3.23-22.84-9.62-30.67Z"/>
            <g>
              <path class="cls-25" d="m39.99,138.62s.1.35.3.98c.05.13.1.33.16.53.08.18.18.38.29.61.2.41.43.86.81,1.37.61,1.04,1.71,2.1,2.96,3.24,1.33,1.11,2.97,2.18,4.81,3.29,1.84,1.07,3.95,2.12,6.19,3.17,2.27,1.09,4.7,2.05,7.24,3.36,1.23.64,2.46,1.29,3.71,1.93,1.23.74,2.48,1.52,3.74,2.28,1.28.76,2.4,1.7,3.63,2.53,1.23.84,2.35,1.8,3.53,2.74,1.15.96,2.25,1.95,3.25,3.01,1.04,1.09,2.14,2.03,3.04,3.17.92,1.11,1.87,2.23,2.71,3.34.8,1.16,1.59,2.33,2.35,3.44.8,1.11,1.38,2.33,2.02,3.49.35.56.64,1.12.97,1.72.26.56.5,1.12.77,1.67.51,1.08,1.01,2.17,1.49,3.19.46,1.08.84,2.12,1.23,3.14.41,1.01.81,1.94,1.1,2.86.3.93.59,1.8.82,2.66.54,1.62.97,3.09,1.23,4.3.51,2.43.84,3.8.84,3.8,0,0-.54-1.32-1.5-3.62-.42-1.14-1.06-2.5-1.79-4.08-.69-1.57-1.49-3.31-2.48-5.17-.44-.96-.95-1.92-1.49-2.94-.54-.98-1.12-2.02-1.71-3.12-.31-.53-.61-1.07-.93-1.59-.33-.51-.65-1.06-.99-1.57-.72-1.03-1.31-2.17-2.09-3.24-.8-1.04-1.59-2.13-2.4-3.19-.85-1.02-1.82-2.03-2.69-3.09-.82-1.07-1.89-1.95-2.89-2.94-.51-.51-.98-1.02-1.52-1.47l-1.63-1.37c-1.05-.91-2.1-1.88-3.28-2.63-1.15-.84-2.25-1.77-3.45-2.46-1.18-.78-2.3-1.52-3.45-2.26-1.23-.71-2.43-1.42-3.63-2.07-2.29-1.29-4.73-2.48-6.94-3.7-2.22-1.21-4.3-2.5-6.12-3.8-1.82-1.29-3.4-2.63-4.6-3.95-1.2-1.34-2.13-2.58-2.67-3.8-.3-.56-.43-1.12-.59-1.59-.13-.48-.22-.86-.25-1.2-.05-.66-.1-1.01-.1-1.01Z"/>
              <path class="cls-25" d="m93.89,150.65s.41.53,1.04,1.47c.31.48.72,1.04,1.15,1.7.21.33.42.71.67,1.06.13.21.21.38.37.61l.17.3.05.05.03.05.05.15.05.15c.3.91.72,1.82.97,2.94.18,1.12.5,2.38.47,3.6.03.63.07,1.24.09,1.87-.03.61-.07,1.27-.12,1.9-.05,1.34-.24,2.51-.39,3.77-.2,1.26-.4,2.56-.67,3.77-.25,1.21-.54,2.41-.76,3.54-.24,1.12-.47,2.23-.69,3.27-.24,1.04-.37,2.03-.56,2.94-.18.91-.21,1.75-.37,2.48-.08.76-.14,1.42-.14,1.98-.05,1.08-.13,1.75-.13,1.75,0,0-.21-.61-.56-1.7-.16-.51-.37-1.19-.44-1.98-.09-.79-.3-1.67-.3-2.63-.03-.97-.13-2.03-.03-3.09.03-1.12.08-2.31.24-3.44.14-1.21.27-2.43.48-3.62.2-1.21.35-2.43.54-3.62.16-1.27.41-2.56.51-3.7.05-.58.13-1.16.18-1.75s.08-1.14.1-1.7c.12-1.16.03-2.18.03-3.17-.03-.99-.26-2.08-.37-3.02v-.17h0c-.05-.13.03.07,0,.07v-.03l-.03-.1-.13-.33c-.03-.2-.12-.41-.2-.61-.1-.4-.23-.81-.34-1.16-.25-.71-.4-1.36-.54-1.92-.3-1.07-.43-1.7-.43-1.7Z"/>
              <path class="cls-25" d="m61.65,137.4s.29.3.75.86c.18.22.48.53.81.86.34.33.72.71,1.11,1.08.86.79,1.84,1.78,2.78,3.02.46.61.9,1.37,1.25,2.12.33.66.61,1.37.91,2.05.61,1.39,1.01,2.97,1.39,4.39.31,1.39.54,2.73.64,3.9.24,2.28.08,3.88.08,3.88,0,0-.99-1.3-2-3.39-.54-.99-1.1-2.25-1.63-3.54-.59-1.24-1.02-2.61-1.63-4.03-.29-.71-.59-1.39-.82-2.13-.24-.61-.48-1.16-.77-1.77-.61-1.19-1.31-2.35-1.79-3.44-.54-1.04-.86-2.08-.97-2.76-.08-.68-.1-1.08-.1-1.08Z"/>
              <path class="cls-25" d="m37.3,160.52s.64.3,1.76.89c1.15.58,2.69,1.42,4.56,2.46.94.48,1.97.96,3.02,1.54,1.07.51,2.25.91,3.42,1.47l.34.15.48.15.99.3c.67.18,1.36.43,2.03.61.64.11,1.25.25,1.89.41.64.15,1.31.25,2.04.33,1.33.23,2.72.43,4.1.53,1.37.15,2.78.33,4.12.45,1.33.15,2.63.3,3.85.43,1.2.12,2.34.28,3.41.33,1.04.05,2.04.15,2.91.2h4.25s-.64.25-1.87.61c-.64.2-1.38.4-2.27.63-.88.13-1.89.28-2.99.38-1.12.2-2.33.25-3.58.28-1.23.03-2.59.08-3.95,0-1.33-.05-2.7-.05-4.17-.17-1.46-.11-2.94-.25-4.4-.48-1.48-.18-2.99-.68-4.49-.98-.72-.2-1.31-.48-1.97-.74l-.97-.38-.44-.18c-.33-.12-.38-.17-.59-.28-1.23-.66-2.4-1.26-3.45-2-1.02-.73-2-1.44-2.84-2.07-1.65-1.39-2.93-2.58-3.82-3.47-.88-.86-1.38-1.39-1.38-1.39Z"/>
              <path class="cls-25" d="m52.42,193.77s.61.05,1.74.21c1.06.15,2.64.5,4.46.96.93.21,1.89.45,2.91.73,1.01.28,2.1.53,3.17.79,1.1.25,2.22.46,3.37.61,1.11.15,2.36.25,3.59.38,1.24.12,2.43.25,3.63.38,1.2.1,2.38.25,3.5.3,1.15.1,2.25.1,3.29.15,1.03.08,2.03,0,2.94.06.9.03,1.72-.11,2.48-.11.77-.05,1.41-.12,1.95-.2,1.07-.15,1.71-.2,1.71-.2,0,0-.54.3-1.53.81-.48.25-1.1.58-1.87.78-.72.23-1.55.58-2.48.74-.94.2-1.97.48-3.07.56-1.12.1-2.27.28-3.48.25-1.2.05-2.46.05-3.68,0-1.28-.05-2.54-.2-3.76-.3-1.25-.15-2.46-.25-3.79-.51-1.29-.2-2.52-.61-3.63-.96-1.18-.38-2.25-.81-3.24-1.27-.98-.4-1.87-.86-2.72-1.26-1.69-.81-3.02-1.57-3.98-2.08-.95-.51-1.52-.81-1.52-.81Z"/>
            </g>
            <path class="cls-1" d="m118.14,171.51c-8.11-9.92-17.91-18.91-29.42-25.24-1.61-.92-3.37-1.78-5.16-2.64,6.49,4,13.22,8.86,16.7,15.05,4.19,7.39,11.51,37.98-6.68,28.44-4.98,2.61-11.15,2.31-17.29.45-10.65-3.17-22.08-7.01-30.8-13.85-1.84-1.44-5.04-4.81-8.19-8.81.67,4.46,1.66,8.58,3.04,11.6,2.86,6.22,6.96,11.9,10.47,17.8,3.04,5.09,5.16,10.76,9.05,15.37,6.52,7.67,15.99,11.55,26.35,10.66,7.75-.68,14.29-5.49,16.11-12.28,8.28,6.28,21.08,3.7,25.43-5.87,4.73-10.26-3.23-22.84-9.62-30.67Z"/>
            <path class="cls-15" d="m118.14,171.51c-2.51-3.06-5.15-6-7.98-8.83.54.86,1.02,1.72,1.49,2.63.84,1.21,1.63,2.58,2.35,4.05.99,1.77,1.82,3.7,2.43,5.67,2.2,6.99,4.89,15.65,1.9,22.69-3.63,8.6-13.8,6.43-20.96,1.82-3.12,7.49-9.43,12.56-20.75,8.84-11.63-3.78-20.59-11.19-27.73-20.19-1.36-1.08-2.73-2.22-4.01-3.39,1.99,3.17,4.06,6.31,5.93,9.5,3.04,5.09,5.16,10.76,9.05,15.37,6.52,7.67,15.99,11.55,26.35,10.66,7.75-.68,14.29-5.49,16.11-12.28,8.28,6.28,21.08,3.7,25.43-5.87,4.73-10.26-3.23-22.84-9.62-30.67Z"/>
          </g>
          <g>
            <path class="cls-24" d="m254.27,207.8c-5.62-8.56-12.71-17.22-20.44-24.16-13.17-11.91-29.62-18.56-47.78-19.2-30.95-1.07-67.92,30.92-64.23,61.48,0,.07.05.2.08.3v.25c0,.63.99,1.57,1.74,1.31,2.35-.89,4.4-2.28,6.44-3.7,1.07-.81,2.18-1.57,3.33-2.33-5.04,8.03-4.97,18.92-.05,27.25,9.16,15.55,25.88,20.59,43.81,19.78,19.25-.89,39.92-6.89,55.54-17.55,7.42-5.02,22.59-13.83,24.35-24.01.2-.15.4-.38.54-.71,2.97-6.63.48-12.89-3.33-18.74Z"/>
            <g>
              <path class="cls-25" d="m181.44,205.42s.18-.66.64-1.82c.44-1.12,1.03-2.71,2-4.56.46-.91.93-1.93,1.52-2.96.56-1.09,1.18-2.16,1.91-3.24.72-1.09,1.36-2.28,2.18-3.37.84-1.12,1.66-2.23,2.51-3.37.92-1.04,1.84-2.1,2.76-3.17.88-1.07,1.95-1.95,2.89-2.89.98-.91,1.87-1.82,2.9-2.51.94-.78,1.87-1.44,2.76-2.08.82-.63,1.68-1.14,2.46-1.59.72-.43,1.41-.76,1.95-1.07,1.12-.61,1.74-.91,1.74-.91,0,0-.46.5-1.28,1.42-.46.4-.97.96-1.58,1.52-.59.61-1.28,1.24-1.97,2.03-.69.76-1.46,1.57-2.3,2.4-.82.81-1.57,1.8-2.46,2.76-1.71,1.85-3.41,3.95-5.15,6.03-1.69,2.17-3.37,4.25-4.86,6.33-.75,1.04-1.58,1.98-2.27,2.94-.69.96-1.36,1.85-2,2.63-1.25,1.62-2.33,3.04-3.1,4-.78.91-1.23,1.47-1.23,1.47Z"/>
              <path class="cls-25" d="m225.05,205.11s.5-.96,1.52-2.03c.94-1.16,2.53-2.38,4.22-3.39.87-.45,1.82-.89,2.69-1.21.89-.35,1.79-.51,2.63-.61,1.54-.2,2.64-.05,2.64-.05,0,0-.74.91-1.87,1.77-.29.23-.59.46-.94.68-.34.23-.69.53-1.03.79-.72.51-1.53.99-2.38,1.42-1.63.96-3.4,1.67-4.89,2.12-1.48.46-2.59.51-2.59.51Z"/>
              <path class="cls-25" d="m141.8,214.84s.38-.76,1.1-2.12c.38-.66.61-1.52,1.07-2.48.44-.91.77-2.05,1.23-3.24.46-1.19.82-2.53,1.33-3.9.48-1.42.94-2.89,1.52-4.43.59-1.55,1.18-3.12,1.91-4.71.34-.81.85-1.59,1.23-2.35.24-.43.39-.81.67-1.26l.72-1.07c.97-1.47,1.95-2.94,2.94-4.36,1.01-1.42,2.08-2.74,3.15-4.05,1.02-1.3,2.1-2.48,3.17-3.6,1.1-1.11,2.17-2.12,3.21-2.99,1.01-.89,2.05-1.62,3.05-2.2.42-.3.9-.56,1.36-.78.46-.18.85-.41,1.23-.51.39-.13.75-.23,1.05-.3.29-.11.57-.11.77-.13.46-.07.67-.1.67-.1,0,0-.21.1-.61.25-.18.1-.41.17-.69.3-.25.18-.54.35-.89.53-.31.2-.64.45-.95.76-.38.28-.76.58-1.15.97-.38.33-.77.73-1.18,1.16-.41.43-.84.86-1.23,1.37-.86.96-1.71,2.03-2.61,3.19-.92,1.16-1.79,2.45-2.76,3.75-.94,1.31-1.84,2.71-2.81,4.1-.95,1.42-1.89,2.84-2.82,4.3l-.69,1.09c-.22.28-.43.73-.61,1.03-.41.76-.86,1.42-1.18,2.18-.71,1.52-1.5,2.99-2.14,4.45-1.31,2.92-2.56,5.72-3.84,8-.67,1.16-1.2,2.23-1.87,3.14-.64.86-1.1,1.7-1.66,2.25-1.05,1.14-1.66,1.75-1.66,1.75Z"/>
              <path class="cls-25" d="m150.34,215.14s.03.2.1.61c.07.41.09,1.01.3,1.72.31,1.47.99,3.49,2.13,5.83.56,1.11,1.23,2.38,1.99,3.64.75,1.27,1.59,2.58,2.46,3.95.93,1.37,1.87,2.79,2.8,4.21.94,1.47,1.93,2.94,2.86,4.4.94,1.52,1.87,3.01,2.78,4.48.93,1.49,1.76,2.96,2.59,4.38.82,1.42,1.66,2.76,2.4,4.05.8,1.26,1.49,2.51,2.25,3.59.72,1.07,1.36,2.08,2,2.92.67.83,1.15,1.64,1.71,2.2.98,1.16,1.57,1.85,1.57,1.85,0,0-.75-.48-2.05-1.39-.69-.46-1.36-1.12-2.22-1.88-.85-.71-1.71-1.62-2.59-2.63-1.87-1.98-3.74-4.51-5.66-7.24-.91-1.37-1.89-2.79-2.84-4.23-.94-1.44-1.89-2.91-2.86-4.38-.93-1.52-1.87-3.02-2.74-4.48-.94-1.47-1.76-2.96-2.6-4.43-1.62-2.94-2.9-5.82-3.68-8.36-.39-1.32-.64-2.53-.82-3.6-.1-1.06-.18-2.03-.16-2.84,0-.78.16-1.36.18-1.77.05-.4.1-.61.1-.61Z"/>
              <path class="cls-25" d="m193.13,206.76l.95.74c.3.28.61.58.92.89.56.63,1.07,1.29,1.52,2l1.27,2.05c.44.68.88,1.29,1.33,1.9l.05.08c.59.78,1.15,1.59,1.69,2.4.56.79,1.09,1.62,1.75,2.35.63.76,1.17,1.55,1.76,2.3.59.79,1.29,1.47,1.91,2.26.67.74,1.23,1.52,1.92,2.25l2.03,2.15.48.56.54.58.98,1.14,1.96,2.26,3.84,4.56c.69.71,1.33,1.47,1.95,2.18.64.76,1.33,1.47,2.03,2.2.65.74,1.35,1.44,2.04,2.16.72.71,1.41,1.42,2.13,2.08.76.66,1.45,1.37,2.22,1.98.8.61,1.58,1.26,2.35,1.93-.94-.41-1.87-.84-2.81-1.32-.93-.43-1.76-1.02-2.67-1.54-.91-.53-1.71-1.14-2.53-1.75-.84-.64-1.66-1.22-2.43-1.93-1.55-1.32-3.04-2.69-4.52-4.1-1.38-1.47-2.82-2.89-4.14-4.41l-3.97-4.45-2-2.28c-.71-.76-1.32-1.57-1.93-2.38-.59-.81-1.28-1.57-1.82-2.43-.54-.84-1.12-1.67-1.67-2.53-1.1-1.67-1.99-3.52-2.89-5.29l.05.07c-.46-.76-.82-1.52-1.15-2.28l-.82-2.23c-.3-.73-.61-1.47-.99-2.15l-.59-1.04-.72-.93Z"/>
              <path class="cls-25" d="m133.25,222.03s.4-.33,1.12-.89c.72-.56,1.82-1.39,3.33-2.21,1.55-.86,3.4-1.8,5.51-2.94,1.08-.51,2.26-1.07,3.49-1.67,1.23-.56,2.6-1.12,3.99-1.72,2.8-1.08,5.91-2.12,9.24-3.03,3.29-.97,6.86-1.7,10.54-2.43.94-.17,1.88-.35,2.81-.53l.69-.13.75-.12,1.4-.2c1.92-.3,3.84-.58,5.81-.84,3.96-.46,7.93-.86,11.97-1.02,4.04-.22,8.06-.3,12.05-.2,1.97.05,3.96.1,5.88.3,1.97.2,3.89.28,5.74.61,3.79.4,7.4,1.21,10.74,2.18,3.33.91,6.4,2.02,9.19,3.24.69.28,1.36.63,1.97.94.56.25,1.28.53,1.87.79,1.25.51,2.43,1.01,3.55,1.47,2.25.93,4.17,1.77,5.75,2.53,1.57.76,2.72,1.49,3.46,2.03.78.51,1.15.86,1.15.86,0,0-.39-.3-1.23-.71-.82-.45-2.05-.99-3.66-1.62-1.59-.61-3.61-1.27-5.93-1.98-1.11-.35-2.36-.76-3.68-1.16-.67-.2-1.28-.36-2-.71-.64-.2-1.33-.5-2-.75-2.76-1.02-5.8-1.88-9.11-2.64-3.29-.78-6.73-1.31-10.39-1.67-3.68-.36-7.51-.53-11.36-.58-3.91-.08-7.85.05-11.81.28-3.92.2-7.88.55-11.72.98-1.92.15-3.82.46-5.74.68l-1.42.2-.67.1-.72.08c-.94.17-1.84.3-2.76.43-3.68.66-7.17,1.27-10.47,2.03-3.31.74-6.35,1.67-9.16,2.53-1.38.48-2.72.91-3.95,1.39-1.27.48-2.46.94-3.58,1.39-2.25.89-4.22,1.62-5.83,2.28-1.58.68-2.78,1.29-3.61,1.72-.77.45-1.23.71-1.23.71Z"/>
              <path class="cls-25" d="m255.25,215.44s-.64-.15-1.74-.51c-.52-.2-1.23-.4-1.95-.68-.74-.3-1.57-.56-2.51-.84-.9-.3-1.89-.61-2.89-.99-1.03-.33-2.16-.61-3.31-.99-.59-.15-1.15-.35-1.71-.5-.61-.15-1.2-.3-1.82-.43-1.2-.28-2.4-.68-3.63-.91-2.54-.53-5.04-1.19-7.37-1.77-1.18-.23-2.3-.56-3.34-.79-1.06-.2-2.08-.46-3.02-.58-.95-.18-1.79-.33-2.59-.4-.75-.08-1.46-.2-2-.15-1.12,0-1.82-.05-1.82-.05,0,0,.61-.23,1.71-.61.59-.23,1.28-.3,2.1-.43.4-.05.86-.12,1.28-.17.46-.03.94-.03,1.45-.03,1.01-.1,2.1-.05,3.25.05,1.15.05,2.33.2,3.55.35,1.23.2,2.51.4,3.74.66,1.25.25,2.54.51,3.76.76,1.33.28,2.63.71,3.88,1.07.61.15,1.25.38,1.84.58.59.22,1.18.48,1.76.71,1.11.46,2.23.94,3.23,1.44,1.04.51,1.97,1.04,2.81,1.52,1.75.92,2.98,1.98,3.89,2.64.9.66,1.41,1.06,1.41,1.06Z"/>
            </g>
            <path class="cls-12" d="m165.09,248.6c-9.72-7.72-17.39-21.7-10.28-32.85,1.18-1.82,2.56-3.39,4.13-4.78-2.46.07-4.86-.02-7.2-.46-14.27-2.51-12.63-14.46-5.67-23.63,14.91-19.65,31.1-20.82,40.41-22.41-.13,0-.3-.03-.43-.03-30.95-1.07-67.92,30.92-64.23,61.48,0,.07.05.2.08.3v.25c0,.63.99,1.57,1.74,1.31,2.35-.89,4.4-2.28,6.44-3.7,1.07-.81,2.18-1.57,3.33-2.33-5.04,8.03-4.97,18.92-.05,27.25,9.16,15.55,25.88,20.59,43.81,19.78,19.25-.89,39.92-6.89,55.54-17.55,4.14-2.79,10.71-6.76,15.97-11.5-5.94,3.8-12.26,7.24-18.68,9.92-20.06,8.36-46.45,13.52-64.9-1.08Z"/>
            <path class="cls-26" d="m250.58,204c-.12-.17-.25-.35-.41-.5-6.44-8.03-13-15.4-22.15-20.79-9.24-5.44-20.13-8.68-31.06-8.59-11.56.06-22.57,5.32-23.79,17.02-.64,6.23,1.12,15.14,7.47,17.8-8.11,6.73-12.87,16.88-5.25,26.21,7.55,9.27,20.72,11.75,32.39,12.33,14.2.68,28.39-3.32,39.26-12.13,5.29-4.31,9.06-11.19,9.47-17.78.38-5.44-2.67-9.5-5.94-13.58Z"/>
          </g>
          <g>
            <path class="cls-28" d="m347.53,237.99c-5.88-11.3-13.71-21.75-26.04-27.2-23.73-10.48-52.3,3.62-55.63,28.03-9.88,2.96-14.22,15.42-13.86,24.38.4,10.49,10.87,18.44,19.26,23.66,28.55,17.83,57.07.17,85.54-7.19.93-.25.9-1.11.46-1.95,3.05-13.01-3.83-28.34-9.72-39.73Z"/>
            <g>
              <path class="cls-25" d="m268.6,239.1s.4.05,1.12.15c.72.05,1.76.03,3.1-.1,1.37-.11,2.97-.38,4.91-.46,2.06-.05,4.09.2,6.44.33,2.33.18,4.86.36,7.5.58l1.02.11h.16l.22.05h.24l.51.1c.67.13,1.36.25,2.03.35,1.4.23,2.81.46,4.25.71.72.15,1.42.25,2.14.43.75.23,1.49.38,2.21.61,1.48.43,2.97.81,4.49,1.24,1.52.4,2.97.96,4.4,1.52,1.48.61,2.94,1.16,4.4,1.72,1.5.51,2.81,1.32,4.22,2.03,1.4.71,2.78,1.42,4.12,2.13l1.04.53.08.03.13.11.1.1.25.15.46.3c.61.45,1.23.86,1.82,1.26.61.43,1.23.86,1.82,1.24.59.43,1.16.96,1.7,1.41,1.12.94,2.27,1.85,3.29,2.76,1.01.96,2,1.9,2.97,2.81,1.84,1.8,3.63,3.49,5.23,5.09,1.69,1.49,3.27,2.83,4.57,4.17,1.38,1.3,2.46,2.51,3.28,3.57.81,1.07,1.37,1.93,1.69,2.53.33.66.48.97.48.97,0,0-.22-.3-.64-.86-.41-.56-1.12-1.29-2.06-2.23-.93-.91-2.13-1.95-3.63-3.09-1.46-1.07-3.15-2.33-4.97-3.7-1.84-1.42-3.71-3.04-5.74-4.71-.97-.81-2.01-1.67-3.04-2.56-1.07-.84-2.17-1.65-3.24-2.51-.54-.4-1.08-.86-1.67-1.26-.61-.38-1.23-.76-1.84-1.16-.61-.41-1.23-.81-1.88-1.21l-.47-.31-.22-.15-.13-.07-.03-.03c-.08-.06.1.05.05.05l-.05-.02-.99-.53c-1.33-.63-2.69-1.32-4-1.98-1.36-.66-2.65-1.42-4.12-1.93-1.38-.56-2.81-1.14-4.19-1.7-1.38-.56-2.8-1.14-4.22-1.49-1.41-.43-2.84-.86-4.22-1.31-.69-.2-1.38-.41-2.05-.66-.69-.2-1.45-.33-2.14-.48-1.41-.3-2.82-.61-4.19-.94-.67-.15-1.33-.3-2.03-.45l-.48-.11-.26-.07c-.08-.03.13.03.1.03h-.05l-.05-.03-.1-.03-1.02-.15c-2.64-.36-5.14-.76-7.42-1.12-1.18-.2-2.25-.36-3.34-.51-1.04-.2-2-.4-2.89-.46-1.84-.1-3.51-.05-4.89-.1-1.39-.05-2.46-.23-3.17-.4-.67-.15-1.07-.3-1.07-.3Z"/>
              <path class="cls-25" d="m294.49,238.72s.33-.48.94-1.29c.29-.41.69-.91,1.11-1.47.46-.56.99-1.12,1.63-1.72.64-.64,1.33-1.32,2.12-1.98.77-.69,1.62-1.32,2.56-1.98.88-.66,1.79-1.39,2.8-1.95,1.02-.61,2.06-1.21,3.11-1.8,1.06-.56,2.18-1.04,3.25-1.52,1.07-.51,2.17-.92,3.28-1.22,1.07-.35,2.14-.66,3.14-.93,1.03-.23,2.03-.35,2.93-.48.91-.12,1.71-.3,2.48-.25.76,0,1.4.05,1.93.05,1.06.05,1.65.12,1.65.12,0,0-.59.2-1.57.51-.48.17-1.1.38-1.76.53-.69.15-1.41.56-2.25.86-.8.3-1.66.63-2.59.96-.89.41-1.82.86-2.81,1.26-.48.23-1.01.43-1.52.66-.48.25-.99.5-1.48.76-.98.53-2.05,1.02-3.04,1.52-1.01.56-2.03,1.06-2.99,1.62-1.01.51-1.97,1.09-2.88,1.62-.91.56-1.91,1.01-2.68,1.54-.82.53-1.62.99-2.35,1.44-.74.46-1.46.84-2.05,1.27-.59.4-1.12.73-1.58,1.01-.88.53-1.39.84-1.39.84Z"/>
              <path class="cls-25" d="m322.93,249.66s.03-.07.08-.28c.05-.15.21-.45.46-.73.43-.58,1.23-1.34,2.27-2.02,1.06-.71,2.34-1.39,3.79-2,1.41-.61,3.02-1.12,4.61-1.52,1.61-.4,3.27-.66,4.83-.75,1.58-.13,3.11-.11,4.39.1,1.25.15,2.35.51,3.04,1.02.67.45.67.96.67.96,0,0-.33-.35-.97-.4-.64-.06-1.59.1-2.74.28-1.15.22-2.46.53-3.91.86-1.41.33-2.94.73-4.46,1.08-1.53.36-3.05.71-4.5,1.07-1.44.35-2.77.68-3.89.98-1.15.31-2.08.59-2.72.87-.61.22-.97.5-.97.5Z"/>
              <path class="cls-25" d="m305.38,246.44s0,.63-.03,1.77c-.08.58.08,1.29.13,2.02.03.76.22,1.62.41,2.53.08.91.48,1.9.69,2.94.38,1.02.69,2.08,1.15,3.19.21.51.46,1.07.67,1.62.26.56.54,1.12.77,1.7.48,1.14,1.12,2.25,1.71,3.39.59,1.12,1.18,2.26,1.84,3.31.64,1.12,1.25,2.18,1.89,3.25,1.25,2.05,2.46,4,3.48,5.67,1.02,1.67,1.84,3.09,2.43,4.11.59.99.92,1.59.92,1.59,0,0-2.2-1.67-4.95-4.58-1.41-1.47-2.93-3.26-4.43-5.26-.72-1.02-1.52-2.05-2.19-3.19-.72-1.09-1.39-2.28-2.03-3.44-.59-1.21-1.23-2.38-1.71-3.65-.54-1.19-.9-2.45-1.25-3.65-.43-1.21-.56-2.43-.77-3.59-.08-1.16-.3-2.23-.18-3.24.03-1.01.05-1.93.26-2.79.18-.81.26-1.49.51-2.03.43-1.06.69-1.67.69-1.67Z"/>
              <path class="cls-25" d="m278.01,240.36s-.08.18-.21.56c-.17.35-.41.91-.54,1.62-.25.66-.3,1.57-.46,2.53v1.57c.03.56.05,1.14.1,1.72.16,1.21.4,2.51.74,3.9.35,1.32.84,2.74,1.31,4.21.51,1.47,1.18,2.94,1.76,4.45.64,1.5,1.35,3.04,2.04,4.56.77,1.62,1.31,3.29,1.87,4.81.56,1.57,1.07,3.12,1.59,4.61,1.07,2.99,2.04,5.75,2.96,8.08.94,2.3,1.82,4.23,2.71,5.4.39.58.82,1.01,1.18,1.19.34.23.59.23.56.25.03-.02-.22.03-.67-.07-.41-.11-1.02-.41-1.61-.94-1.2-1.04-2.59-2.81-3.96-5.04-1.33-2.23-2.69-4.94-3.97-7.85-.64-1.47-1.31-2.99-1.89-4.58-.64-1.55-1.2-3.09-1.87-4.56-.71-1.6-1.4-3.14-2.01-4.74-.61-1.59-1.1-3.19-1.54-4.76-.48-1.57-.72-3.14-.97-4.61-.1-.76-.16-1.49-.21-2.18,0-.71,0-1.42.03-2.07.08-.66.1-1.3.18-1.88.13-.61.3-1.16.38-1.67.34-1.02.69-1.93,1.1-2.58.34-.71.77-1.12,1.01-1.44.25-.33.38-.48.38-.48Z"/>
              <path class="cls-25" d="m272.87,237.3s-.13-.12-.39-.35c-.2-.28-.54-.74-.69-1.37-.3-1.29.08-3.24.98-5.24.86-2,2.22-4.15,3.88-6.33.85-1.07,1.7-2.18,2.69-3.22.51-.53.99-1.04,1.5-1.6l.8-.76.77-.76c.54-.46,1.04-.93,1.61-1.42.61-.46,1.23-.91,1.82-1.37.56-.48,1.17-.86,1.82-1.24.61-.38,1.2-.79,1.82-1.09,1.25-.66,2.46-1.31,3.66-1.77.59-.25,1.2-.46,1.76-.71.59-.15,1.12-.36,1.65-.51,1.1-.35,2.06-.56,2.96-.71.92-.23,1.71-.35,2.35-.38,1.31-.12,2.04-.18,2.04-.18,0,0-.68.3-1.84.81-.61.2-1.32.53-2.12.91-.77.36-1.66.76-2.61,1.27-.97.45-1.95,1.01-2.99,1.67-1.07.56-2.12,1.31-3.21,1.97-1.06.76-2.16,1.57-3.2,2.38-.51.4-1.04.86-1.57,1.26-.51.46-1.04.96-1.55,1.44l-.82.69-.72.71c-.48.51-.97.96-1.45,1.44-.95.99-1.92,1.95-2.77,2.91-1.76,1.93-3.34,3.77-4.52,5.44-1.2,1.65-1.92,3.17-2.03,4.31-.05.56.05.99.16,1.29.16.3.24.48.24.48Z"/>
            </g>
            <path class="cls-14" d="m277.76,259.28c-1.72-8.33,3.7-14.41,10.85-17.55-3.68-15.85,26.09-25.25,38.65-24.71,1.63.05,3.23.2,4.78.4-3.12-2.63-6.6-4.89-10.54-6.63-23.73-10.48-52.3,3.62-55.63,28.03-9.88,2.96-14.22,15.42-13.86,24.38.4,10.49,10.87,18.44,19.26,23.66,17.91,11.19,35.84,8.41,53.73,2.94-6.38-.53-12.71-1.88-18.8-3.93-12.57-4.28-25.66-13.45-28.42-26.59Z"/>
            <path class="cls-13" d="m265.02,262.09c2.01-10.05,7.19-15.91,13.97-21.93-4.64-6.36-.57-13.88,6.31-19.3,4.25-3.39,8.78-6.43,13.94-8.46,4.09-1.62,8.26-3.09,12.69-3.6,1.2-.12,2.4-.12,3.61-.1-22.33-5.98-46.61,7.7-49.68,30.11-9.88,2.96-14.22,15.42-13.86,24.38.4,10.49,10.87,18.44,19.26,23.66,1.62,1.04,3.25,1.9,4.89,2.68-6.41-7.95-13.22-16.81-11.12-27.45Z"/>
          </g>
          <g>
            <path class="cls-29" d="m188.94,271.64c-11.97-1.44-21.1,5.75-25.19,15.6-28.07-14.1-46.2,24.84-42.27,46.32,3.28,17.93,18.11,33.2,31.57,45.17,8.98,7.98,23.53,20.71,37.04,16.16,11.62-3.93,18.08-18.41,22.25-28.32,4.61-11.04,8.49-23.09,10.09-34.95,3.2-23.14-4.51-56.54-33.49-59.99Z"/>
            <g>
              <path class="cls-25" d="m164.05,289.75s.99,1.42,2.69,3.82c.89,1.22,1.99,2.68,3.21,4.36,1.23,1.65,2.59,3.57,4.05,5.7.72,1.07,1.48,2.18,2.22,3.35.74,1.19,1.41,2.48,2.17,3.75.69,1.31,1.33,2.68,2,4.1.59,1.47,1.15,2.89,1.69,4.53.82,3.01,1.79,6.15,2.56,9.39.54,3.3,1.25,6.69,1.71,10.03.13,1.7.29,3.37.42,5.07.2,1.67.35,3.34.35,5.04.08,3.32.16,6.62.1,9.73-.05,3.14-.1,6.18-.16,9.07-.08,2.89-.25,5.59-.35,8.13-.13,2.53-.24,4.81-.61,6.89-.34,2.02-.64,3.8-.9,5.22-.22,1.47-.35,2.58-.38,3.39,0,.76.03,1.19.03,1.19,0,0-.08-.43-.21-1.19-.08-.81-.16-1.98-.1-3.42.1-1.49.18-3.26.29-5.31.13-1.95,0-4.31-.08-6.81-.08-2.48-.1-5.19-.21-8.05-.12-2.89-.2-5.93-.33-9.07-.03-3.17-.29-6.36-.37-9.62-.04-1.65-.22-3.29-.41-4.91-.13-1.65-.33-3.3-.48-4.91-.41-3.3-1.07-6.51-1.54-9.73-.76-3.22-1.53-6.38-2.25-9.42-.48-1.47-.92-2.89-1.38-4.26-.56-1.39-1.1-2.73-1.69-4.05-.64-1.26-1.25-2.53-1.87-3.72-.64-1.19-1.28-2.35-1.87-3.47-2.57-4.36-4.73-8.05-6.18-10.64-.72-1.31-1.23-2.35-1.59-3.03-.35-.74-.54-1.12-.54-1.12Z"/>
              <path class="cls-25" d="m174.31,297.85s.8-.1,2.18-.25c.71-.1,1.55-.1,2.57-.1,1.01-.05,2.1.05,3.31.15,1.23.07,2.56.28,3.93.51,1.36.3,2.82.51,4.27.93,1.46.41,2.99.79,4.46,1.39,1.52.46,3.02,1.16,4.53,1.75,1.42.74,2.89,1.39,4.29,2.2,1.38.76,2.67,1.67,3.92,2.56,1.23.84,2.3,1.85,3.34,2.76.95.99,1.95,1.85,2.64,2.84.74.94,1.41,1.8,1.84,2.66.46.86.9,1.54,1.1,2.2.44,1.32.67,2.02.67,2.02,0,0-.48-.61-1.25-1.72-.35-.56-.99-1.07-1.58-1.77-.59-.73-1.41-1.37-2.22-2.15-.42-.38-.85-.74-1.39-1.12-.46-.38-.98-.74-1.49-1.16-1.07-.69-2.19-1.52-3.45-2.25-.59-.33-1.23-.71-1.84-1.07-.64-.35-1.31-.68-1.97-1.07-1.28-.75-2.73-1.31-4.12-2.02-1.38-.58-2.76-1.26-4.22-1.77-.69-.25-1.38-.56-2.08-.84-.73-.23-1.42-.48-2.12-.73-1.33-.51-2.69-.86-3.97-1.32-1.29-.3-2.5-.73-3.63-1.01-1.12-.25-2.17-.58-3.11-.76-.93-.15-1.75-.38-2.46-.48-1.36-.2-2.16-.38-2.16-.38Z"/>
              <path class="cls-25" d="m185.12,323.02s.13-.06.42-.15c.3-.07.64-.3,1.23-.33.3-.02.61-.05.97-.07.31,0,.72.05,1.12.07.77.07,1.62.25,2.54.51.48.12.94.28,1.44.43.48.2.97.41,1.48.61.98.43,2,.91,3.02,1.47,1.01.56,2.03,1.16,3.05,1.85,1.01.66,1.97,1.39,2.96,2.12,1.92,1.49,3.74,3.12,5.28,4.79l.59.63c.25.25.38.43.54.66.33.43.67.84.97,1.25.64.81,1.12,1.72,1.63,2.53.42.78.72,1.57,1.01,2.2.33.66.51,1.3.67,1.77.33.99.48,1.55.48,1.55,0,0-.4-.46-1.07-1.24-.34-.43-.72-.91-1.2-1.44-.44-.56-.98-1.14-1.54-1.82-.61-.61-1.15-1.26-1.89-1.95-.38-.35-.73-.68-1.12-1.09l-.59-.5-.59-.53c-.82-.71-1.74-1.39-2.61-2.1-.89-.74-1.82-1.48-2.71-2.18-.93-.71-1.87-1.42-2.81-2.13-.93-.66-1.78-1.36-2.69-1.97-.88-.61-1.76-1.22-2.59-1.72-.84-.56-1.66-1.04-2.4-1.47-.81-.41-1.48-.76-2.14-1.02-.31-.12-.67-.25-.93-.35-.27-.05-.56-.15-.81-.21-.47-.15-.93-.1-1.23-.15h-.44Z"/>
              <path class="cls-25" d="m189.68,350.85s.41.33,1.02.92c.31.28.64.68,1.15.98.42.35.93.74,1.44,1.16.56.4,1.2.81,1.82,1.32.67.45,1.38.91,2.09,1.47.72.53,1.46,1.04,2.21,1.64.77.61,1.53,1.2,2.25,1.9l1.07.99c.34.35.67.78,1.01,1.14l.46.55c.08.11.13.15.27.33l.18.28c.24.4.48.75.72,1.14.24.38.51.68.67,1.08.21.43.41.86.59,1.24.35.78.67,1.52.86,2.2.42,1.37.69,2.51.82,3.32.13.81.21,1.29.21,1.29,0,0-.31-.35-.82-1.03-.51-.69-1.2-1.65-2-2.81-.38-.56-.84-1.12-1.27-1.72-.24-.3-.44-.61-.69-.94-.23-.33-.54-.66-.8-.99-.33-.35-.61-.66-.88-1.01l-.25-.25-.18-.2-.46-.46c-.59-.63-1.23-1.26-1.89-1.82-.64-.66-1.38-1.26-2.05-1.87-.71-.64-1.35-1.24-2.01-1.85-.67-.63-1.25-1.24-1.84-1.85-.54-.63-1.07-1.27-1.52-1.83-.46-.61-.81-1.21-1.1-1.72-.33-.5-.48-.96-.64-1.36-.3-.76-.43-1.24-.43-1.24Z"/>
              <path class="cls-25" d="m181.44,366.52s.05.4.08,1.09c.03.68.1,1.64-.08,2.78-.07.58-.14,1.22-.27,1.9-.1.66-.31,1.34-.51,2.03-.26.71-.44,1.47-.8,2.16-.3.71-.67,1.39-1.02,2.12-.39.68-.8,1.34-1.23,2-.39.66-.9,1.26-1.38,1.82-.48.56-.94,1.12-1.44,1.6-.51.48-.99.91-1.45,1.29-.88.81-1.79,1.34-2.38,1.72-.59.41-.93.56-.93.56,0,0,.16-.35.44-.99.3-.61.78-1.44,1.35-2.46.26-.45.56-1.01.88-1.57.35-.53.64-1.14.97-1.75.34-.61.74-1.19,1.1-1.85.34-.61.69-1.24,1.06-1.87.33-.66.64-1.32,1.02-1.93.38-.61.64-1.26.97-1.87.29-.61.69-1.22.93-1.78.25-.56.54-1.08.82-1.57.54-1.02.94-1.93,1.29-2.48.34-.61.59-.96.59-.96Z"/>
              <path class="cls-25" d="m176.02,327.88s-.33.76-.89,2.08c-.59,1.31-1.41,3.24-2.59,5.42-1.15,2.2-2.56,4.73-4.14,7.39-1.61,2.69-3.25,5.47-4.99,8.26-1.63,2.84-3.45,5.6-4.86,8.26-.69,1.37-1.53,2.61-2.17,3.85-.59,1.24-1.18,2.43-1.76,3.49-.29.56-.54,1.07-.8,1.6-.24.48-.43.99-.61,1.44-.41.91-.75,1.7-1.05,2.38-.59,1.29-.95,2.08-.95,2.08,0,0,.08-.81.31-2.26.1-.73.25-1.59.43-2.58.08-.48.16-1.04.31-1.6.14-.51.35-1.12.51-1.67.38-1.21.81-2.51,1.28-3.85.46-1.32,1.15-2.71,1.79-4.13.67-1.39,1.28-2.91,2.17-4.31.77-1.42,1.63-2.86,2.43-4.3.9-1.39,1.79-2.81,2.67-4.17.89-1.39,1.82-2.68,2.71-3.98,1.82-2.53,3.53-4.86,5.04-6.84,1.53-1.94,2.78-3.67,3.68-4.78.92-1.16,1.48-1.78,1.48-1.78Z"/>
              <path class="cls-25" d="m165.17,304.61s-.78.53-2.17,1.45c-.69.4-1.46,1.06-2.38,1.69-.9.66-1.87,1.5-2.94,2.34-1.08.83-2.13,1.9-3.36,2.89-1.12,1.08-2.3,2.2-3.5,3.41-.61.61-1.23,1.24-1.82,1.88-.59.66-1.18,1.32-1.76,1.95-1.23,1.29-2.3,2.76-3.48,4.13-1.06,1.42-2.23,2.79-3.2,4.28-.48.74-1.02,1.44-1.49,2.16-.46.73-.92,1.41-1.37,2.15-.88,1.42-1.65,2.84-2.4,4.18-.31.66-.67,1.34-.95,1.97-.35.66-.64,1.27-.89,1.9-.5,1.24-1.03,2.35-1.33,3.42-.29,1.01-.72,1.93-.82,2.68-.41,1.52-.61,2.43-.61,2.43,0,0-.05-.91-.08-2.53-.05-.79.1-1.72.24-2.86.1-1.14.4-2.35.74-3.72.27-1.37.86-2.73,1.37-4.26.64-1.47,1.23-3.03,2.1-4.56.82-1.57,1.69-3.14,2.73-4.66.95-1.57,2.13-3.04,3.28-4.56,1.23-1.42,2.4-2.89,3.66-4.2,1.28-1.37,2.67-2.58,3.96-3.78,1.31-1.19,2.69-2.22,3.97-3.21,1.36-.96,2.59-1.87,3.87-2.58,1.24-.71,2.33-1.39,3.42-1.87,1.04-.51,1.95-.97,2.76-1.21,1.54-.58,2.46-.89,2.46-.89Z"/>
            </g>
            <path class="cls-10" d="m188.94,271.64c-11.97-1.44-21.1,5.75-25.19,15.6-28.07-14.1-46.2,24.84-42.27,46.32,2.05,11.29,8.73,21.53,16.74,30.57-5.74-14.42-6.7-31.71,3.15-44.24,9.97-12.74,23.96-12.05,35.8-5.27,3.46-3.54,8.01-6.13,13.88-7.36,10.2-2.16,20.41,3.82,24.81,12.41,3.21,6.26,4.81,12.76,5.26,19.39.54-2.45.99-4.94,1.31-7.42,3.2-23.14-4.51-56.54-33.49-59.99Z"/>
            <path class="cls-6" d="m210.73,283.01c-5.29-5.98-12.4-10.28-21.79-11.37-11.97-1.44-21.1,5.75-25.19,15.6-26.46-13.29-44.09,20.54-42.73,42.44.18-.38.34-.76.51-1.14,4.17-9.55,10.6-18.38,19.44-24.62,8.44-5.95,18.8-9.37,28.47-4.28,5.42-14.86,26.09-21.2,41.29-16.64Z"/>
          </g>
          <g>
            <path class="cls-19" d="m106.95,339.38c-1.76-14.89-11.89-28.36-25.5-35.71-10.74-5.82-23.02-3.7-30.82,4.26-7.19-8.66-20.94-7.35-29.67-1.67C7.09,315.22-.28,334.01,0,349.25c.56,28.36,28.05,71.01,61.96,68.65,17.13-1.16,27.88-18.31,34.19-31.48,6.91-14.38,12.69-31.1,10.79-47.05Z"/>
            <g>
              <path class="cls-25" d="m47.41,313.02s-.13.38-.37,1.06c-.21.74-.67,1.75-.99,3.12-.16.66-.34,1.42-.56,2.23-.16.81-.34,1.7-.54,2.63-.18.97-.34,1.98-.47,3.02-.17,1.09-.33,2.2-.46,3.36-.3,2.38-.48,4.97-.74,7.67-.14,1.34-.3,2.76-.41,4.18-.08,1.42-.18,2.89-.24,4.35-.09,1.47-.22,2.99-.25,4.51.05,1.52.11,3.03.18,4.53-.03,3.07.41,6.21.73,9.32.13,1.54.37,3.11.61,4.68.26,1.57.51,3.09.75,4.61.56,2.99,1.12,6.13,1.76,9.01.69,2.89,1.18,5.72,1.92,8.31.72,2.63,1.28,5.17,2.02,7.42.76,2.28,1.32,4.36,1.96,6.26.59,1.85,1.06,3.44,1.57,4.76.54,1.27,1.02,2.25,1.5,2.84.44.58.85.81.85.81,0,0-.1-.05-.26-.15-.22-.11-.43-.28-.73-.56-.59-.51-1.28-1.42-1.95-2.69-.72-1.26-1.44-2.81-2.21-4.61-.84-1.75-1.69-3.85-2.6-6.08-.98-2.23-1.76-4.71-2.61-7.34-.94-2.64-1.63-5.47-2.4-8.41-.41-1.42-.72-2.94-1.1-4.4-.34-1.52-.72-2.99-.98-4.61-.27-1.57-.56-3.14-.84-4.71-.26-1.57-.54-3.17-.67-4.81-.29-3.19-.69-6.38-.64-9.63,0-1.62,0-3.19-.03-4.76.08-1.55.26-3.04.38-4.54.18-1.49.24-2.89.47-4.43.2-1.42.43-2.79.64-4.16.41-2.73.84-5.32,1.35-7.65.47-2.38,1.03-4.53,1.59-6.43.33-.91.56-1.8.86-2.58.31-.81.61-1.54.9-2.2.48-1.32,1.12-2.26,1.45-2.92.34-.71.52-1.03.52-1.03Z"/>
              <path class="cls-25" d="m49.68,389.24s1.53,1.21,3.42,3.21c1.05.91,2.1,2.07,3.25,3.29,1.23,1.21,2.4,2.53,3.63,3.87.61.69,1.23,1.34,1.79,2.05.61.71,1.1,1.39,1.63,2.13.56.73.95,1.42,1.39,2.08.43.63.84,1.24,1.17,1.8.38.58.72,1.04,1.05,1.52.29.43.61.79.85,1.09.28.28.51.46.67.63.17.13.28.23.28.23,0,0-.13,0-.35-.05-.21-.1-.59-.1-.98-.3-.38-.18-.91-.35-1.4-.71-.51-.33-1.06-.71-1.57-1.2-.59-.48-1.12-.99-1.74-1.54-.56-.56-1.18-1.16-1.71-1.77-.51-.56-1.23-1.22-1.79-1.83-.64-.66-1.25-1.36-1.89-2.03-1.25-1.36-2.35-2.83-3.4-4.2-.51-.69-.93-1.42-1.36-2.13-.46-.66-.8-1.31-1.12-1.92-.64-1.22-1.1-2.28-1.38-3.02-.3-.79-.43-1.21-.43-1.21Z"/>
              <path class="cls-25" d="m44.85,356.24s.64.69,1.76,1.85c.54.61,1.23,1.29,1.92,2.2.76.86,1.55,1.8,2.4,2.89,1.74,2.18,3.63,4.74,5.67,7.49.98,1.37,2.05,2.76,3.12,4.18,1.1,1.39,2.13,2.89,3.33,4.23l1.68,2.07c.59.66,1.23,1.31,1.82,1.95.59.61,1.18,1.34,1.71,1.87.67.63,1.31,1.19,1.95,1.8,1.25,1.22,2.46,2.33,3.61,3.42,1.17,1.04,2.25,2.05,3.25,3.04.99.96,1.91,1.87,2.71,2.68.77.81,1.38,1.55,1.92,2.2,1.07,1.19,1.63,1.93,1.63,1.93,0,0-.78-.51-2.09-1.5-.67-.48-1.46-1.03-2.35-1.72-.93-.66-2.03-1.39-3.12-2.2-1.12-.79-2.38-1.7-3.66-2.63-1.31-.97-2.64-1.98-3.97-3.14-.64-.56-1.35-1.12-2.01-1.67-.82-.66-1.36-1.32-2.03-1.98-.64-.66-1.33-1.32-1.95-2.03l-1.82-2.13c-1.2-1.41-2.22-2.94-3.34-4.4-1.06-1.47-1.97-3.01-2.94-4.43-1.82-2.91-3.44-5.65-4.74-8.03-1.37-2.38-2.48-4.33-3.29-5.72-.77-1.42-1.18-2.23-1.18-2.23Z"/>
              <path class="cls-25" d="m49.98,324.64s3.23,2.86,7.77,7.42c1.11,1.14,2.36,2.35,3.63,3.67,1.28,1.31,2.61,2.71,4.02,4.15,2.78,2.86,5.72,5.93,8.65,9.02,3.02,3.01,5.91,6.08,8.79,8.86,1.44,1.37,2.72,2.84,4.09,4.06,1.33,1.21,2.56,2.43,3.71,3.54,1.15,1.16,2.25,2.12,3.2,3.04.94.86,1.79,1.67,2.46,2.28,1.38,1.32,2.12,2.08,2.12,2.08,0,0-.94-.56-2.55-1.57-.8-.51-1.75-1.12-2.9-1.85-1.1-.74-2.35-1.55-3.63-2.56-1.28-.99-2.7-2.02-4.17-3.19-1.48-1.12-2.91-2.43-4.47-3.77-1.49-1.39-3.12-2.71-4.59-4.23-1.5-1.47-3.02-2.99-4.57-4.51-1.46-1.57-2.94-3.14-4.35-4.71-1.46-1.52-2.74-3.14-4.09-4.66-2.59-3.02-4.91-5.93-6.86-8.46-3.92-5.07-6.27-8.61-6.27-8.61Z"/>
              <path class="cls-25" d="m39.99,325.45s-.56.4-1.57,1.07c-.48.33-1.12.71-1.84,1.16-.71.4-1.53.93-2.33,1.52-.84.58-1.71,1.21-2.7,1.82-.95.61-1.92,1.39-2.94,2.08-2.08,1.47-4.27,3.03-6.43,4.61-1.15.78-2.25,1.54-3.29,2.33-1.08.76-2.13,1.54-3.15,2.28-2.03,1.52-3.92,2.89-5.5,4.15-1.54,1.27-2.8,2.35-3.58,3.19-.39.46-.72.81-.88,1.07-.2.25-.27.4-.27.4,0,0,0-.15.12-.5.05-.3.18-.71.44-1.29.48-1.09,1.42-2.58,2.76-4.17,1.31-1.57,3.04-3.3,4.94-5.02.99-.84,1.97-1.72,3.04-2.53,1.1-.86,2.2-1.67,3.31-2.48,1.12-.76,2.25-1.52,3.37-2.28,1.12-.81,2.33-1.42,3.45-2.07,1.12-.66,2.18-1.32,3.3-1.83,1.1-.51,2.14-.98,3.12-1.42.94-.45,1.84-.73,2.65-.96.82-.28,1.52-.46,2.1-.63,1.2-.33,1.87-.48,1.87-.48Z"/>
              <path class="cls-25" d="m38.02,348.44s-.43.46-1.2,1.32c-.8.83-1.92,2.03-3.37,3.36-1.44,1.34-3.23,2.84-5.07,4.41-.93.78-1.84,1.62-2.86,2.4-1.03.79-1.97,1.65-2.87,2.51-.97.84-1.93,1.67-2.86,2.5-.94.89-1.79,1.67-2.61,2.53-1.66,1.72-3.24,3.35-4.55,4.76-1.28,1.44-2.33,2.63-2.94,3.54-.31.46-.54.81-.64,1.12-.08.28-.13.43-.13.43,0,0,0-.15-.05-.46,0-.3,0-.79.21-1.34.3-1.12.97-2.63,1.95-4.36.99-1.72,2.27-3.59,3.85-5.52.75-.94,1.59-2.03,2.54-2.89.93-.89,1.92-1.8,2.91-2.71,1.03-.89,2-1.77,3.1-2.5,1.02-.81,2.1-1.52,3.1-2.23,1.02-.76,2.03-1.34,2.99-1.98.93-.61,1.87-1.16,2.69-1.65,3.4-2.1,5.83-3.27,5.83-3.27Z"/>
              <path class="cls-25" d="m39.7,378.17s-.08.36-.35.99c-.24.61-.69,1.49-1.31,2.45-1.2,1.98-3.15,4.3-5.15,6.46-.99,1.03-1.99,2.12-2.91,3.12-.48.51-.94.98-1.33,1.47-.41.43-.73.89-1.1,1.29-.33.43-.59.84-.86,1.2-.16.35-.39.68-.54.96-.24.61-.39.98-.39.98,0,0-.17-.35-.3-1.03-.08-.71-.05-1.72.3-2.89.34-1.16.95-2.43,1.76-3.67.8-1.24,1.74-2.4,2.8-3.57,2.06-2.22,4.42-4.15,6.26-5.52.9-.68,1.65-1.21,2.23-1.62.54-.41.89-.61.89-.61Z"/>
            </g>
            <path class="cls-4" d="m106.95,339.38c-1.76-14.89-11.89-28.36-25.5-35.71-10.74-5.82-23.02-3.7-30.82,4.26-7.19-8.66-20.94-7.35-29.67-1.67C7.09,315.22-.28,334.01,0,349.25c.22,10.76,4.3,23.58,11.17,35.2-.05-.25-.17-.5-.2-.73-2.46-10.08-4.81-22.44-.69-32.44,3.1-7.6,9.13-15.1,18.19-16.36,5.58-.79,12.26-.89,15.78,3.59,18.21,1.72,30.39,26.59,31.46,41.43,1.07,15.39-5.23,29.27-16.91,38.03,1.02.05,2.12,0,3.15-.07,17.13-1.16,27.88-18.31,34.19-31.48,6.91-14.38,12.69-31.1,10.79-47.05Z"/>
            <path class="cls-11" d="m106.95,339.38c-1.76-14.89-11.89-28.36-25.5-35.71-10.74-5.82-23.02-3.7-30.82,4.26-7.19-8.66-20.94-7.35-29.67-1.67-6.98,4.51-12.35,11.55-15.86,19.38,5.45-6.21,12.87-11.47,20.88-11.19,8.15.3,13.14,5.29,16.24,12.02,3.2-3.57,8.54-5.34,14.02-5.69,10.61-.69,19.34,1.9,26.04,10,7.62,9.16,10.82,22.58,11.94,34.01,1.01,10.41.16,20.59-2.65,30.33,1.71-2.94,3.27-5.9,4.6-8.68,6.91-14.38,12.69-31.1,10.79-47.05Z"/>
          </g>
          <path class="cls-26" d="m353.73,274.75c.08,0,.18-.11.24-.25,2.17-7.14-1.92-13.73-5.27-20.01-3.49-6.59-7.32-15.45-14.33-19.43-11.84-6.73-21.31-.22-24.35,9.91-3.53-1.09-8.9.48-11.2,2.15-6.91,4.99-6.09,12.44-1.57,18.74,4.56,6.33,13.69,8.63,21.06,10.31,5.21,1.21,10.45,2.22,15.76,2.89,6.65.78,13.35-1.88,19.77-3.14.61-.13.31-.76-.1-1.16Z"/>
          <path class="cls-26" d="m211.35,339.07c-.41-6.94-2.94-13.16-10.56-15.14-7.15-1.83-13.74,1.67-18.98,6.61-1.2-.43-2.48-.69-3.82-.84-13.57-1.44-28.42,5.47-33.87,17.6-9.11,20.18,19.23,41.3,38.06,41.15,21.08-.12,30.04-33.68,29.16-49.38Z"/>
          <path class="cls-26" d="m65.21,371.62c-4.52-8.28-11.59-16.94-22.2-17.7-5.2-.4-10.57.63-14.25,3.44-6.93-1.34-14.08-.05-16.11,7.54-5.02,18.52,17.23,39.2,32.85,46.9,9.84,4.86,16.65-2.34,20.25-10.33,4.35-9.68,4.53-20.47-.54-29.86Z"/>
          <path class="cls-26" d="m276.01,322.23c-.14-5.35-1.1-10.46-5-14.51-6.38-6.59-15,1.8-17.68,8.79-8.78,3.07-23.77,11.14-12.18,19.78,7.8,5.77,24.76,9.52,31.78.81,3.06-3.7,3.16-10.44,3.08-14.87Z"/>
        </g>
      </g>
    </g>
  </g>
</svg>