<?xml version="1.0" encoding="UTF-8"?>
<svg xmlns="http://www.w3.org/2000/svg" xmlns:xlink="http://www.w3.org/1999/xlink" viewBox="0 0 181.53 198.73">
  <defs>
    <style>
      .cls-1 {
        fill: url(#radial-gradient-4);
      }

      .cls-2 {
        isolation: isolate;
      }

      .cls-3 {
        fill: #93c13e;
      }

      .cls-4 {
        fill: #017049;
      }

      .cls-4, .cls-5, .cls-6, .cls-7, .cls-8 {
        mix-blend-mode: multiply;
      }

      .cls-4, .cls-5, .cls-6, .cls-8 {
        opacity: .5;
      }

      .cls-5 {
        fill: url(#radial-gradient-3);
      }

      .cls-6 {
        fill: #51361b;
      }

      .cls-9 {
        fill: #4bab48;
      }

      .cls-10 {
        fill: url(#radial-gradient);
      }

      .cls-11 {
        fill: #74b743;
      }

      .cls-7 {
        fill: url(#radial-gradient-5);
        opacity: .3;
      }

      .cls-8 {
        fill: url(#radial-gradient-2);
      }
    </style>
    <radialGradient id="radial-gradient" cx="165.55" cy="179.72" fx="165.55" fy="179.72" r="8.83" gradientTransform="translate(-756.11 -885.32) scale(5.17 5.45)" gradientUnits="userSpaceOnUse">
      <stop offset="0" stop-color="#382817"/>
      <stop offset=".19" stop-color="#53381d"/>
      <stop offset=".38" stop-color="#684623"/>
      <stop offset=".51" stop-color="#704b25"/>
      <stop offset=".74" stop-color="#865223"/>
      <stop offset=".84" stop-color="#915623"/>
    </radialGradient>
    <radialGradient id="radial-gradient-2" cy="179.72" fy="179.72" xlink:href="#radial-gradient"/>
    <radialGradient id="radial-gradient-3" cx="165.55" cy="179.72" fx="165.55" fy="179.72" r="8.83" xlink:href="#radial-gradient"/>
    <radialGradient id="radial-gradient-4" cx="164.99" cy="180.34" fx="164.99" fy="180.34" r="18.15" gradientTransform="translate(-756.11 -885.32) scale(5.17 5.45)" gradientUnits="userSpaceOnUse">
      <stop offset=".2" stop-color="#0a6434"/>
      <stop offset=".61" stop-color="#0c8a44"/>
      <stop offset=".82" stop-color="#057742"/>
      <stop offset="1" stop-color="#026c41"/>
    </radialGradient>
    <radialGradient id="radial-gradient-5" cx="165.05" cy="179.19" fx="165.05" fy="179.19" r="10.49" gradientTransform="translate(-756.11 -885.32) scale(5.17 5.45)" gradientUnits="userSpaceOnUse">
      <stop offset="0" stop-color="#0a6434"/>
      <stop offset="1" stop-color="#039c49"/>
    </radialGradient>
  </defs>
  <g class="cls-2">
    <g id="Layer_1" data-name="Layer 1">
      <g>
        <g>
          <path class="cls-10" d="m98.15,38.44s-.85,13.66-1.13,30.19c-.29,16.53-1.42,23.74,2,19.38,3.4-4.35,7.96-11.27,7.39-14.72-.57-3.46-2.94-15.64-3.61-21.65l3.04.61s1.7,24.56,3.9,20.96c2.21-3.61,5.69-10.81,7.68-15.47l1.92,2.02s-6.24,13.07-10.23,19.61c-3.99,6.54-11.46,16.07-7.48,14.94,3.99-1.12,17.07-8.56,18-10.06.93-1.5,5.62-13.53,6.25-17.42l1.92.81s-2.28,7.22-3.56,11.19c-1.28,3.98-1.85,5.11,1.36,3.31,3.2-1.81,10.02-4.74,11.52-6.32l3.49,4.36s-11.09,2.4-17.29,5.41c-6.18,3-14.78,8.26-12.16,9.24,2.63.97,12.94,5.71,21.48,12.55l-1.48,1.95s-5.05-3.84-9.47-6.69c-4.41-2.86-5.75-2.63-1.77,3.6,3.98,6.24,6.61,11.42,10.87,12.17l-2.27,2.1s-6.68-3.68-9.82-10.52c-3.14-6.83-9.88-11.94-13.87-11.27-3.98.68-4.98,2.41-3.76,5.04,1.21,2.63,1.56,6.15,7.89,10.14,6.33,3.97,11.95,6.91,13.58,14.8l-2.81.6s-11.09-13.13-15.08-14.53c-3.98-1.4,5.69,20.83,5.69,20.83,0,0-2.84,3.21-4.83,2.62-2-.6-2.95-15.03-4.74-23.44-1.81-8.41-2.09-15.52-4.18-12.62-2.09,2.9-3.41,5.41-6.92,20.54l-1.34,5.51-2.74-.7s-.57-7.41,1.42-12.21c1.99-4.82-5.5,1.29-14.23,8.5l-6.16,7.41-2.94-3.41s5.79-6.91,11.29-9.81c5.49-2.91,7.39-6.01,9.76-8.02,2.38-2,6.17-3.81,6.84-7.71.66-3.91-3.71-5.41-6.74-4.31-3.03,1.1-19.34,9.42-28.65,17.43l-.56-2.81s5.12-5.71,9.1-8.61c3.99-2.91,2.82-3.18-8.93-.39l-2.82.7.18-2.81s9.78-1.5,17.37-3.2c7.59-1.71,13.55-4.41,16.12-4.31,2.57.1,5.22,1.01,3.04-1.6-2.19-2.6-5.15-4.83-11.02-6.51-7.79-2.24-16.4-4.01-21.61-7.02l-2.57-2.7-.09-1.9s2.94,2.4,11.38,4.1c8.43,1.71,12.89,3.11,12.89,3.11,0,0-4.93-10.41-11.09-15.52l3.43-2.21s2.99,2.88,5.41,6.79c2.83,4.56,4.42,8.18,9.28,12.34,3.79,3.26,4.8,4.71,6.52,4.22,1.81-.52,2.59-4.31,2.3-9.23-.28-4.9-1.5-8.01-5.3-12.21-3.8-4.2-11.11-8.61-11.2-9.02l.66-3.39s6.74,4.8,9.78,8.51c3.03,3.7,3.98,5.8,4.17,1.8.2-4.01.58-16.72.58-16.72l4.97-8.36Z"/>
          <path class="cls-8" d="m123.32,85.61c6.2-3.01,17.29-5.41,17.29-5.41l-3.49-4.36c-1.49,1.58-8.32,4.51-11.52,6.32-3.21,1.8-2.64.67-1.36-3.31,1.28-3.97,3.56-11.19,3.56-11.19l-1.92-.81c-.64,3.89-5.33,15.92-6.25,17.42-.93,1.5-14.01,8.94-18,10.06-3.98,1.13,3.49-8.41,7.48-14.94,3.99-6.54,10.23-19.61,10.23-19.61l-1.92-2.02c-1.99,4.66-5.47,11.87-7.68,15.47-2.2,3.6-3.9-20.96-3.9-20.96l-3.04-.61c.67,6.01,3.04,18.19,3.61,21.65.56,3.45-3.99,10.37-7.39,14.72-3.42,4.36-2.29-2.85-2-19.38.29-16.53,1.13-30.19,1.13-30.19l-4.97,8.36s-.38,12.72-.58,16.72c-.19,4.01-1.13,1.91-4.17-1.8-3.03-3.71-9.78-8.51-9.78-8.51l-.66,3.39c.09.4,7.4,4.82,11.2,9.02,3.79,4.2,5.02,7.31,5.3,12.21.29,4.91-.49,8.71-2.3,9.23-1.72.49-2.73-.96-6.52-4.22-4.85-4.17-6.44-7.78-9.28-12.34-2.43-3.91-5.41-6.79-5.41-6.79l-3.43,2.21c6.16,5.11,11.09,15.52,11.09,15.52,0,0-4.45-1.4-12.89-3.11-8.44-1.7-11.38-4.1-11.38-4.1l.09,1.9,2.57,2.7c5.21,3,13.82,4.77,21.61,7.02,5.87,1.68,8.83,3.9,11.02,6.51,2.17,2.61-.47,1.7-3.04,1.6-2.57-.1-8.53,2.6-16.12,4.31-7.59,1.7-17.37,3.2-17.37,3.2l-.18,2.81,2.82-.7c11.75-2.79,12.92-2.51,8.93.39-3.98,2.91-9.1,8.61-9.1,8.61l.56,2.81c9.3-8.01,25.61-16.33,28.65-17.43,3.03-1.1,7.4.4,6.74,4.31-.67,3.9-4.46,5.71-6.84,7.71-2.37,2-4.27,5.11-9.76,8.02-5.51,2.89-11.29,9.81-11.29,9.81l2.94,3.41,6.16-7.41c8.73-7.21,16.22-13.32,14.23-8.5-2,4.8-1.42,12.21-1.42,12.21l2.74.7,1.34-5.51c3.51-15.12,4.82-17.63,6.92-20.54,2.08-2.9,2.37,4.21,4.18,12.62,1.8,8.42,2.74,22.84,4.74,23.44,1.98.6,4.83-2.62,4.83-2.62,0,0-9.67-22.22-5.69-20.83,3.99,1.4,15.08,14.53,15.08,14.53l2.81-.6c-1.63-7.88-7.25-10.82-13.58-14.8-6.33-3.98-6.68-7.51-7.89-10.14-1.22-2.63-.22-4.36,3.76-5.04,3.99-.68,10.73,4.43,13.87,11.27,3.13,6.84,9.82,10.52,9.82,10.52l2.27-2.1c-4.27-.75-6.89-5.93-10.87-12.17-3.98-6.23-2.64-6.46,1.77-3.6,4.41,2.85,9.47,6.69,9.47,6.69l1.48-1.95c-8.53-6.84-18.84-11.58-21.48-12.55-2.63-.98,5.97-6.24,12.16-9.24Zm-19.27-3.98s2.92-4.42,3.15-6.79c.24-2.35-1.04-5.71-1.47-8-.42-2.31.25-1.81,1.24,1.85.99,3.65,1.14,5.06,2.33,5.4,1.18.36,2.74-3.51,4.75-7,1.98-3.51-1.67,5.67-3.45,8.38-1.78,2.7-5.98,10.59-8.39,12.46-2.41,1.88.64-4.36,1.85-6.31Zm-22.5,16.95c-4.08,1.66-12.81,7.16-18.3,10.42-5.51,3.25.14-3.51,2.37-5.16,2.22-1.65,5.3-3.55.7-2.85-4.6.7-3.69-.35-.9-1,2.8-.66,8.44-1.97,10.71-2.66,9.96-3,9.48-.39,5.41,1.25Zm4.17-10.79c-1.79-.98-8.13-3.23-12.06-4.2-3.92-.95-12.84-4.43-8.29-4.02,4.54.43,10.62,2.46,13.63,3.06,3.01.6,1.37-1.27-.96-4.57s-4.55-10.14-.34-3.95c4.21,6.17,6.99,10.17,10.28,12.29,4.84,3.13,2.22,3.84-2.26,1.38Zm8.07,17.46c-1.71,2.86-2.18,8.06-3.79,10.87-1.62,2.8-2.42-.4-1.67-3.16.76-2.75-2.56.55-7.87,3.81-5.31,3.25-6.82,2.7-2.65.04,4.17-2.65,10.62-7.78,12.46-10.16,3.08-4.01,5.22-4.26,3.52-1.41Zm2.65-43.62c-.08,2.56-.14,7.36-.14,10.72s-.28,9.6-.66,9.86c-.38.25-.33-8.76-2.84-12.57-2.52-3.8-2.7-4.56-.47-2.66,2.22,1.91,2.13.81,2.13-5.1,0-8.31,2.27-9.31,1.99-.25Zm4.51,44.46c2.22,4.57,5.84,7.21,10.58,10.31,4.74,3.12,4.89,7.82,2.17,5.07-2.7-2.75-8.63-8.17-10.05-7.65-1.42.49.04,5.45,1.28,10.31,1.24,4.86-.62,5.26-1.19,3.16-.57-2.11-3.23-17.87-3.74-20.48-.62-3.15-1.28-5.26.95-.71Zm18.22-5.45c-3.6-1.5-3.6-1.27-1.67,2.37,1.93,3.65,3.17,6.35,5.7,9.54,2.53,3.19-.5,3.23-3.06-1.88-2.56-5.11-5.9-9.32-9.14-10.96-3.24-1.66-9.22-2.11-5.55-2.93,3.66-.83,1.24-2.11-1.39-1.43-2.63.68.2-1.16,2.68-2.42,3.27-1.67,8.14-4.6,10.69-6.07,2.56-1.47,3.88-3.53,5.15-7.85,1.28-4.33,3.09-5.37,1.89-2.51-1.21,2.85-3.84,8.16-.25,6.95,3.59-1.2,7.15-3.42,8.08-2.77.93.64-4.27,2.02-10.14,5.06-5.87,3.05-13.05,6.99-13.08,8.34-.04,1.35,7.82,4.02,11.55,5.98,3.73,1.95,2.14,2.1-1.45.6Z"/>
          <path class="cls-5" d="m103.18,93.76c-.6.25-1.12.44-1.54.55-2.42.69-.61-2.56,2.08-6.68-4.8,5.59-4.64.77-2.85-2.11-.64.89-1.26,1.73-1.86,2.49-2.22,2.83-2.51.74-2.37-5.59-.91,4.33-2.47,4.04-2.34.84-.35,2.09-1.05,3.51-2.1,3.81-1.57.44-2.56-.74-5.63-3.44.32.38.78.81,1.39,1.33,5.78,4.75,3.3,7.51-.9,4.88,1.02.8,1.86,1.64,2.61,2.54,2.17,2.61-.47,1.7-3.04,1.6-.9-.03-2.24.29-3.93.79.31-.04.61-.08.95-.13,5.73-1.02,4.33,1.66,1.22,3.35,3.03-1.08,7.36.42,6.7,4.32-.16.85-.45,1.6-.85,2.27.06-.06.12-.11.18-.17,4.13-4.66,5.62-2.48,4.05.37-.16.28-.27.54-.35.78.65-1.41,1.28-2.36,1.99-3.36,1-1.38,1.58-.47,2.11,1.75-.19-4.37,1.16-2.72,2-1.19-.5-2.05.7-3.41,4.13-4-4.96-.48-4.13-3.38-1.66-4.99Z"/>
          <g>
            <path class="cls-6" d="m92.95,52.4s2.68,3.63,4.43,1.84l.23-7.07-4.43-.38-.23,5.6Z"/>
            <path class="cls-6" d="m84.39,57.63s1.45,3.14-.7,3.2c0,0-4.92-3.64-5.69-4.22l.66-3.39,5.73,4.42Z"/>
            <path class="cls-6" d="m74.78,68.1s.69,3.81-2.39,3.08c0,0-3.75-4.41-4.83-5.25l3.43-2.21,3.79,4.38Z"/>
            <path class="cls-6" d="m54.39,74.24s3.6,2.25,7.15,3.1c0,0,1.66,2.75-.23,3.46,0,0-3.75-1.56-4.27-1.96-.53-.4-2.84-2.55-2.66-4.6Z"/>
            <path class="cls-6" d="m59.13,100.5s.72,2.11-.8,2.53l-5.36,1.26.18-2.81,5.98-.98Z"/>
            <path class="cls-6" d="m59.89,108.17s.77,2.83-.14,4.4l-3.57,2.84-.56-2.81,4.28-4.43Z"/>
            <path class="cls-6" d="m69.98,121.45s3.69-2.08,5.7,0c0,0-1.72,1.4-2.89,2.36-1.18.96-6.16,7.41-6.16,7.41l-2.94-3.41s4.01-4.31,6.3-6.37Z"/>
            <path class="cls-6" d="m85.75,120.04s1.82-2.73,4.97-1.67l-2.39,9.86-2.74-.7s-.31-4.46.17-7.49Z"/>
            <path class="cls-6" d="m103.06,129.52s2.06.21,2.72,1.82c0,0,.96-2.28,2.06-1.76l2.5,6.05s-2.31,2.13-4.83,2.62c-1.4.26-2.45-8.73-2.45-8.73Z"/>
            <path class="cls-6" d="m115.2,124.32s2.33-.91,4.01,1.06c0,0-.05-2.02,1.19-2.07,0,0,1.63,2.55,2.14,5.41l-2.81.6s-2.96-3.94-4.52-5Z"/>
            <path class="cls-6" d="m124.27,117.36s-.47-2.22,1.72-2.12c0,0,2.34,2.9,4.8,3.2l-2.27,2.1s-3.92-2.63-4.25-3.18Z"/>
            <path class="cls-6" d="m124.27,101.56s-.1,2.53,1.05,3.64c0,0,4.87,3.41,5.84,4.15l1.48-1.95s-5.4-4.08-8.37-5.84Z"/>
            <path class="cls-6" d="m131.96,78.94s4.68.4,1.63,3.03c0,0,6.01-1.63,7.02-1.77l-3.49-4.36s-2.34,1.74-5.17,3.11Z"/>
            <path class="cls-6" d="m124.66,71.28s.7,1.81,1.62,1.16l1.53-4.79-1.92-.81s-.61,2.64-.76,3.04c-.17.39-.46,1.41-.46,1.41Z"/>
            <path class="cls-6" d="m114.73,63.71s-.13,2.69,1.1,3.14l3.52-7.08-1.92-2.02-2.7,5.97Z"/>
            <path class="cls-6" d="m103.32,55.56l.84,5.18s.45,1.37,2.52.98l-.84-9.47-2.52,3.31Z"/>
          </g>
        </g>
        <path class="cls-1" d="m175.83,118.44c2.24-5.36-4.4-5.8-4.4-5.8,7.91-4.04.42-8.87.42-8.87,7.06,2.9,8.97-7.11,4.07-11.42-4.59-4.02-10.32-3.44-11.06-3.35-.03,0-.05,0-.09.01,0,0,.04-.01.09-.01,2.18-.17.57-3.33.57-3.33,1.67,3.07,7.08,2.64,6.58-1.76-.5-4.39-4.16-3.42-4.16-3.42,4.16-.71,1.33-4.49,1.33-4.49,4.49,4.75,13.06.17,12.31-5.44-.56-4.21-3.73-4.47-5.29-4.35-.49.12-.86.13-.86.13,0,0,.35-.09.86-.13,1.37-.34,3.79-1.54,2.64-5.93-1.59-5.98-6.83-4.21-6.83-4.21,0,0,5.65-2.11,2.99-7.55-2.66-5.46-8.91-3.35-8.91-3.35,6.33-4.13,1.26-10.45-4.56-9.93-5.83.53-6.65,4.05-6.65,4.05-.49-3.51-2.49-2.91-3.56-2.31-.22.18-.44.34-.69.46,0,0,.28-.23.69-.46,2.39-1.97,2.26-6.98-2.94-6.66-5.65.36-6.99,7.21-6.99,7.21-.93-4.18-3.52-2.95-4.55-2.25-.13.14-.28.26-.44.31,0,0,.18-.14.44-.31,1.33-1.42,1.6-6.53-2.85-7.33-4.91-.87-7.32,4.75-7.32,4.75-1.41-7.03-6.15-2.11-6.15-2.11,0-6.86-4.68-4.91-5.33-4.61-.04.01-.06.03-.09.04,0,0,.03-.02.09-.04,5.74-2.27,9.82-12.8,3.22-19.38-6.61-6.61-13.71,1.95-13.71,1.95,0,0,1.42-6.75-2.99-8.25-4.7-1.61-5.48,4.2-5.48,4.2-.29-1.81-1.57-4.88-5.26-3.68-3.77,1.22-3.49,6.01-3.49,6.01-.78-3.91-3.98-6.76-9.1-4.06-5.12,2.71-3.63,6.53-3.63,6.53-.57-2.1-5.48-4.43-7.83.98-2.35,5.41.93,10.96.93,10.96-3.56.83-.85,5.41-.85,5.41-2.06-1.13-1.85.83-1.85.83-3.56-10.96-8.76-3.6-8.76-3.6-3.19-8.19-7.88-2.79-7.88-2.79,0,0-6.19-4.36-11.6,1.81-5.4,6.16-1.28,13.74-1.28,13.74-7.48-5.1-9.1,1.81-9.1,1.81-6.48.98-3.7,7.67-3.7,7.67,0,0-4.48-3-7.04,2.25-2.89,5.92,3.28,8.18,3.28,8.18,0,0-6.19,5.04-3.06,9.17,3.12,4.13,11.16,3.45,11.16,3.45-5.26,5.72,1.14,6.24,1.14,6.24-5.61,3.76-.21,8.42-.21,8.42-8.61-1.88-5.4,6.9-5.4,6.9,0,0-6.55-9.62-15.51-4.28-8.97,5.34-2.28,12.99-2.28,12.99,0,0-4.98,1.28-4.48,6.69.49,5.41,6.68,5.93,6.68,5.93,0,0-8.25,2.48-6.97,12.4,1.29,9.91,9.76,8.26,9.76,8.26-2.13,8.93,4.97,6.08,4.97,6.08,0,0-4.13,6.01,1.42,9.09,5.55,3.08,10.96-5.56,10.96-5.56-3.85,11.72,2.92,6.68,2.92,6.68,0,0-3.42,7.74.07,11.8,4,4.65,7.62-.83,7.62-.83,0,0-4.05,6-1.21,8.33,2.84,2.33,6.25-.07,6.25-.07-6.54,5.26-3.76,16.46,3.2,15.26,6.97-1.21,4.06-8.04,4.06-8.04,2,4.05,4.76,1.2,4.76,1.2,0,0-2.2,4.66,2.2,7.13,3.8,2.14,7.08-1.72,7.08-1.72-.75.87-3.4,8.43,3,9.31,5.95.81,5.58-5.78,5.5-6.73v-.13.13c.08.85.81,6.26,5.57,4.96,3.38-.91,3.55-3.94,3.26-5.92-.2-.56-.34-1.17-.42-1.81,0,0,.27.76.42,1.81,1.26,3.74,4.62,5.77,7.72,3.55,3.58-2.55,1.25-8.34,1.25-8.34,7.4,5.44,6.82-2.81,6.82-2.81,2.5,5.79,6.07.35,6.07.35-4.16,12.03,4.24,9.76,4.24,9.76,0,0-.75,13.71,10.41,12.47,12.73-1.41,7.99-13.26,7.99-13.26,8.73,4.04,9.9-4.38,9.9-4.38,6.06,6.14,17.38-.27,15.64-11.34-1.76-11.07-8.57-14.85-8.57-14.85,10.48-1.75,3.83-11.51,3.83-11.51,0,0,4.15,4.49,8.24,3.87,4.07-.61,3.15-7.3,3.15-7.3,7.65,2.99,4.75-6.32,4.75-6.32,0,0,10.31,7.12,15.56-.97,5.24-8.08-2.67-14.14-2.67-14.14Zm-39.2-26s-10.02-2.33-1.77,6.38c0,0-8.04-5.11-4.97,2.25,0,0-3.28-2.1-4.27.38-1,2.47,2.91,8.03,6.89,10.44,0,0-5.19-3-1.63,4.88,0,0-7.4-5.11-4.62,7.28,0,0-5.34-6.23-5.49,3.61,0,0-7.67-7.29-5.61,5.93,0,0-4.91-7.44-8.53,1.05,0,0-1-3.46-3.43-3.08-2.41.38-2.76,3.76-2.76,4.28,0,0-1.54-6.69-6.72-1.69,0,0,.89-8.29-1.92-12.51-2.79-4.21-5.78-1.05-5.97,1.5,0,0-3.41-4.7-8.12,2.61,0,0-4.45-7.62-10.47-.96,0,0,2.08-10.41-8.96-10.12,0,0,4.04-6.96-2.51-11.02,0,0,6.87-4.7-.47-8.86,0,0,7.26-4.9,1.19-13.97,0,0,4.03-.15,1.86-5.1,0,0,10.8,2.35,7.58-7.71,0,0,9.16,7.11,8.4-4.01,0,0,4.69,2.86,8.05-2.15,3.37-5.01-1.04-9.36-1.04-9.36,0,0,8.43,5.81,12.9-4.01,0,0-1.76,5.85,3.23,4.66,0,0,1.21,4.28,5.33.68,0,0-.72,5.03,2.57,6.01,3.25.98,5.11-2.7,5.11-2.7,0,0-.43,6.08,5.77,4.05,0,0-1.49,4.06,1.78,6.31,3,2.06,5.5-1.03,5.53-3.87-.04-.48-.06-.78-.06-.78.04.26.06.52.06.78.21,2.49,1.24,9.94,6.06,7.93,0,0-2,8.26,6.19,6.01,0,0-.73,2.93,1.92,3.45,0,0-7.26,4.21-1.07,11.42Z"/>
        <path class="cls-7" d="m139.82,86.84c.17-.25.57-.59.57-.59,2.1-1.23,3.26-3.71,2.89-6.22-.23-1.46-.94-2.74-1.96-3.65-.22-1.16-.75-2.25-1.56-3.12-1.09-1.13-2.54-1.74-4.03-1.74-.14,0-.3,0-.45.01.06-1.71-.62-3.36-1.88-4.55-1.04-1-2.37-1.5-3.73-1.5h-.14c-.15-.57-.27-1.29-.36-2.2-.01-.52-.05-1.02-.13-1.5-.47-2.9-2.85-4.96-5.59-4.96-.21,0-.39.01-.59.03-.77.08-1.49.33-2.13.69-1.01-1.42-2.61-2.34-4.41-2.39h-.13c-.12,0-.24,0-.34.01-.57-1.96-2.02-3.58-3.96-4.08-.49-.14-.99-.21-1.48-.21-.82,0-1.63.19-2.35.54-.46-1.19-1.3-2.21-2.41-2.9-.87-.53-1.82-.79-2.77-.79-.75,0-1.51.17-2.19.47-.27-.2-.55-.37-.85-.51-.33-2.73-2.41-4.9-5.01-5.19-.2-.02-.41-.03-.62-.03-.27,0-.52.02-.79.05-.86.12-1.67.46-2.36.94-.63.44-1.17,1-1.59,1.69-.17.26-.31.53-.44.83-1.02,2.21-1.86,2.21-2.26,2.21-.95,0-2.03-.54-2.39-.76-.99-.72-2.13-1.07-3.27-1.07-1.7,0-3.39.79-4.48,2.32-1.85,2.53-1.53,6.09.75,8.16.77.88.5,1.27.34,1.53-.16.25-.3.38-.37.44-.08,0-.23-.01-.23-.01-.87-.53-1.86-.79-2.82-.79-1.05,0-2.1.3-3.03.92-1.33.88-2.24,2.3-2.55,3.87-.88-.53-1.85-.8-2.82-.8-1.19,0-2.36.39-3.37,1.17-2,1.54-2.8,4.3-2.01,6.78h0c-.62-.01-1.08-.11-1.09-.11-.38-.08-.76-.12-1.15-.12-1.71,0-3.35.83-4.44,2.29-.94,1.26-1.35,2.83-1.19,4.38-.51.5-.96,1.1-1.28,1.8-.93,1.98-.77,4.34.45,6.13,1.7,2.55,1.81,4.29.33,5.48-1.77,1.09-2.72,3.02-2.7,5.18.02,1.81.89,3.42,2.22,4.52-1.05,1.14-1.65,2.7-1.61,4.32.04,2.09,1.1,4,2.8,5.06.65.4,1.46.9.51,2.73-1.16,1.86-1.18,4.14-.16,6.09,1.01,1.92,2.97,3.02,5.03,3.02.05,0,.11,0,.17-.02h.31c1.69,0,2.46.38,2.64.61.33.42.38,1.61.29,2.3-.6,2.64.55,5.27,2.8,6.58.83.48,1.74.71,2.64.71,1.57,0,3.11-.69,4.25-1.93.37-.43.66-.66.84-.77.29.23.63.65.69.73,1.01,1.73,2.78,2.81,4.71,2.85h.11c1.9,0,3.65-.99,4.72-2.63.19-.3.35-.54.5-.73.86.55,1.87.85,2.9.85.52,0,1.06-.07,1.58-.24.23-.06.44-.14.65-.24.16,1.64.14,3.42,0,4.7-.26,2.49.96,4.89,3.07,6.04.82.44,1.71.65,2.6.65.78,0,1.57-.17,2.31-.51,1.06,1.37,2.66,2.21,4.4,2.21.23,0,.44-.02.68-.04,1.21-.15,2.3-.71,3.15-1.52.57.27,1.22.45,1.88.51.16.01.33.02.48.02,1.91,0,3.66-1.11,4.71-2.79,1.05,1.01,2.43,1.57,3.83,1.57.72,0,1.44-.15,2.14-.45,2.15-.93,3.51-3.11,3.55-5.5.74,0,1.48-.17,2.2-.5,1.31-.6,2.33-1.7,2.91-3.03.1,0,.2.01.29.01.88,0,1.78-.23,2.62-.68,2.34-1.25,3.51-4.09,2.93-6.77,1.01-.18,2-.64,2.81-1.41,1.93-1.77,2.5-4.68,1.39-7.11-1.11-2.56,1.88-2.06,3.34-4.72,1.43-3.17-8.37-4.33-5.01-4.65.17.01.34.02.51.02,1.71,0,3.37-.8,4.49-2.31,1.19-1.6,1.48-3.65.96-5.47.49-.45.93-.98,1.28-1.6,1.24-2.26.94-5.11-.72-7.05-.64-.74-.91-1.27-.99-1.52Zm-3.23,5.55s-1.22-.27-2.46-.27c-2.31,0-4.7.98.68,6.66,0,0-2.71-1.73-4.39-1.73-1.2,0-1.87.91-.58,3.98,0,0-1.3-.84-2.52-.84-.7,0-1.38.29-1.75,1.21-1,2.48,2.91,8.03,6.9,10.44,0,0-.98-.56-1.78-.56-1.07,0-1.88.96.14,5.44,0,0-1.5-1.04-2.91-1.04-1.7,0-3.24,1.54-1.71,8.33,0,0-1.67-1.95-3.17-1.95-1.18,0-2.25,1.21-2.32,5.56,0,0-2.1-2-3.81-2-1.56,0-2.78,1.64-1.8,7.94,0,0-2-3.02-4.37-3.02-1.36,0-2.85.98-4.17,4.06,0,0-.9-3.11-3.05-3.11-.13,0-.25.01-.37.03-2.41.37-2.76,3.75-2.76,4.28,0,0-.81-3.55-3.26-3.55-.9,0-2.06.5-3.46,1.85,0,0,.88-8.3-1.92-12.5-.98-1.49-2-2.05-2.9-2.05-1.66-.01-2.95,1.9-3.07,3.55,0,0-1.08-1.49-2.86-1.49-1.39,0-3.2.9-5.26,4.1,0,0-2.14-3.68-5.48-3.68-1.46,0-3.16.7-4.99,2.73,0,0,2.03-10.13-8.49-10.13-.14,0-.31,0-.46.01,0,0,4.03-6.97-2.52-11.02,0,0,6.88-4.7-.46-8.86,0,0,7.25-4.91,1.18-13.97,0,0,4.04-.15,1.85-5.1,0,0,1.09.23,2.49.23,2.98,0,7.29-1.1,5.1-7.96,0,0,2.87,2.24,5.28,2.24,1.87,0,3.45-1.37,3.12-6.24,0,0,1.33.8,3.08.8,1.53,0,3.4-.62,4.98-2.96,3.36-5.01-1.05-9.36-1.05-9.36,0,0,2.48,1.7,5.46,1.7,2.52,0,5.39-1.21,7.44-5.72,0,0-1.44,4.82,2,4.82.36,0,.77-.04,1.23-.15,0,0,.6,2.11,2.39,2.11.75,0,1.72-.37,2.94-1.44,0,0-.71,5.03,2.57,6,.37.12.75.18,1.08.18,2.59,0,4.03-2.88,4.03-2.88,0,0-.31,4.48,3.5,4.48.63,0,1.38-.13,2.27-.41,0,0-1.5,4.05,1.77,6.3.68.47,1.33.68,1.95.68,2.06,0,3.57-2.35,3.59-4.54-.04-.49-.05-.8-.05-.8.03.26.05.52.05.8.19,2.2,1.01,8.26,4.52,8.26.46,0,.98-.11,1.54-.34,0,0-1.55,6.39,3.66,6.39.71,0,1.54-.12,2.52-.39,0,0-.71,2.94,1.92,3.46,0,0-7.25,4.2-1.06,11.41Z"/>
        <path class="cls-4" d="m138.79,83.1c.84-.49,1.29-1.5,1.13-2.49-.15-.99-.87-1.78-1.81-1.97-.07-.01-.11-.03-.15-.04-.02-.14,0-.41,0-.46.21-.81-.02-1.69-.6-2.3-.43-.46-1.01-.7-1.59-.7-.2,0-.38.02-.58.08-.75.2-1.41.3-1.95.3-.64,0-1.06-.13-1.26-.4-.48-.65-.37-2.3-.21-2.99.22-.87-.06-1.8-.7-2.4-.41-.39-.95-.6-1.49-.6-.29,0-.57.05-.83.17-.27.12-.52.17-.7.17-.94,0-1.88-2.43-2.22-5.63.01-.45-.03-.83-.08-1.2-.2-1.17-1.15-1.99-2.24-1.99-.08,0-.17,0-.24.01-1.19.13-2.08,1.22-2.04,2.47,0,0,0,.13.02.35-.01.03-.01.06-.01.11-.02,1.11-.75,2.15-1.32,2.15-.19,0-.43-.1-.69-.28-1.6-1.1-1.02-3.07-.9-3.45.3-.86.1-1.83-.48-2.49-.44-.48-1.04-.75-1.66-.75-.22,0-.43.03-.66.11-.62.19-1.16.3-1.59.3-.6,0-.76-.2-.82-.25-.35-.42-.41-1.42-.4-1.65.07-1.13-.61-2.17-1.64-2.48-.21-.06-.41-.1-.63-.1-.82,0-1.61.48-2.01,1.28,0,0-.88,1.59-2.02,1.59-.15,0-.31-.03-.47-.07-1.22-.36-.93-3.32-.93-3.36.14-.98-.32-1.95-1.13-2.43-.35-.21-.74-.31-1.12-.31-.51,0-1.02.19-1.44.55-.87.77-1.34.88-1.46.89-.07-.07-.2-.29-.25-.45-.3-1.02-1.18-1.67-2.15-1.67-.17,0-.35.02-.51.06-.35.09-.59.11-.73.11h-.01c-.05-.4.04-1.15.18-1.71.35-1.2-.23-2.49-1.34-2.94-.27-.12-.55-.17-.82-.17-.86,0-1.67.51-2.05,1.36-1.33,2.93-3.09,4.36-5.39,4.36s-4.21-1.32-4.23-1.33c-.37-.25-.8-.37-1.22-.37-.68,0-1.36.31-1.81.93-.72.98-.62,2.37.24,3.22.47.49,2.81,3.13.74,6.22-.88,1.3-1.9,1.95-3.11,1.95-1.06,0-1.95-.49-1.96-.49-.35-.22-.75-.31-1.13-.31-.41,0-.84.12-1.21.36-.71.48-1.12,1.33-1.06,2.21.19,2.76-.37,3.48-.43,3.56-.02.03-.1.11-.41.11-1.24,0-3.22-1.22-3.93-1.76-.4-.32-.88-.47-1.35-.47s-.94.15-1.34.46c-.8.62-1.13,1.72-.81,2.71.57,1.76.63,3.14.2,3.8-.43.62-1.57.98-3.14.98-1.12,0-2.02-.2-2.04-.2-.14-.03-.29-.04-.44-.04-.69,0-1.35.33-1.79.92-.53.7-.65,1.67-.29,2.49.42.96.44,1.44.43,1.6-.09.04-.23.09-.35.1h-.02c-.85,0-1.55.5-1.94,1.28-.39.8-.26,1.76.24,2.5,1.62,2.43,2.26,4.66,1.91,6.62-.46,2.49-2.45,3.93-2.46,3.94-.68.46-1.09,1.26-1.05,2.11.02.86.48,1.63,1.2,2.02,1.59.91,2.16,1.71,2.18,2.18.05.82-1.19,2.08-1.88,2.56-.66.44-1.05,1.23-1.03,2.07,0,.83.43,1.59,1.11,2.01,1.38.85,2.18,1.86,2.48,3.08.55,2.24-.75,4.59-.76,4.62-.42.75-.43,1.69-.01,2.45.41.73,1.16,1.19,1.96,1.19h.46c2.52,0,4.3.66,5.29,1.95,1.55,2.01.99,5.24.98,5.27-.22,1.04.27,2.13,1.17,2.63.33.19.7.27,1.06.27.61,0,1.21-.25,1.64-.74,1.2-1.32,2.32-1.99,3.34-1.99,1.98.01,3.55,2.53,3.57,2.55.4.7,1.11,1.12,1.89,1.14h.05c.75,0,1.46-.39,1.88-1.05,1.23-1.91,2.48-3.05,3.36-3.05.6,0,1.05.55,1.05.55.45.61,1.11.95,1.82.95.22,0,.43-.03.64-.11.91-.28,1.55-1.12,1.63-2.11.05-.67.6-1.33.8-1.34.08,0,.47.19,1.04,1.03,1.88,2.82,1.71,8.93,1.5,10.86-.1.99.38,1.95,1.23,2.41.33.17.68.26,1.03.26.56,0,1.11-.22,1.53-.62,1.21-1.18,1.83-1.23,1.93-1.23.37,0,.91,1.13,1.05,1.71.25,1.09,1.18,1.83,2.2,1.83.1,0,.19,0,.27-.01,1.16-.14,2.01-1.18,2.01-2.39.02-.53.36-1.83.84-1.91.24.06.7.76.91,1.42.29.95,1.1,1.62,2.04,1.68h.13c.89,0,1.71-.54,2.08-1.41.82-1.95,1.63-2.65,2.08-2.65.8,0,2.04,1.26,2.5,1.98.44.67,1.14,1.03,1.87,1.03.29,0,.58-.06.87-.18.98-.43,1.55-1.51,1.38-2.62-.49-3.16-.31-4.55-.17-5.08.56.19,1.47.8,2.02,1.33.42.4.97.61,1.52.61.3,0,.61-.06.91-.19.82-.38,1.34-1.23,1.36-2.17.02-1.69.22-2.59.36-3.03.34.22.82.62,1.15,1,.44.51,1.06.78,1.68.78.37,0,.73-.09,1.07-.28.91-.51,1.38-1.61,1.15-2.67-.81-3.6-.55-4.97-.42-5.37.49.04,1.26.43,1.58.64.38.26.82.39,1.25.39.53,0,1.07-.19,1.49-.59.76-.71,1-1.87.55-2.85-.27-.58-.45-1.06-.6-1.45h.16c.81,0,1.59-.45,2-1.24.6-1.16.23-2.59-.87-3.24-3.38-2.05-5.5-5.66-5.86-7.08.33.1.7.27.93.42.37.22.77.34,1.18.34.54,0,1.08-.21,1.51-.61.74-.68.98-1.8.57-2.75-.02-.06-.04-.12-.06-.17.6.26,1.26.61,1.8.94.36.23.76.34,1.16.34.69,0,1.36-.31,1.8-.93.71-.96.63-2.32-.18-3.17-1.11-1.18-1.75-2-2.12-2.57.91.03,1.8.23,1.81.23.16.04.32.05.47.05.81,0,1.56-.45,1.97-1.2.49-.91.39-2.05-.27-2.82-1.44-1.68-2.08-3.19-1.88-4.5.24-1.61,1.79-2.86,2.35-3.21Zm-2.16,9.32s-1.22-.28-2.45-.28c-2.32,0-4.7.99.67,6.68,0,0-2.71-1.73-4.38-1.73-1.22,0-1.88.89-.6,3.98,0,0-1.3-.84-2.49-.84-.72,0-1.4.29-1.78,1.21-.99,2.48,2.92,8.03,6.91,10.44,0,0-.98-.56-1.8-.56-1.06,0-1.87.97.16,5.45,0,0-1.52-1.04-2.92-1.04-1.69,0-3.23,1.52-1.71,8.33,0,0-1.67-1.95-3.16-1.95-1.18,0-2.24,1.21-2.31,5.56,0,0-2.12-2-3.83-2h0c-1.55,0-2.77,1.64-1.8,7.94,0,0-1.98-3.01-4.37-3.01h0c-1.36,0-2.84.98-4.17,4.06,0,0-.89-3.11-3.05-3.11-.12,0-.23.02-.35.03-2.42.38-2.78,3.76-2.78,4.29,0,0-.8-3.55-3.25-3.55-.91,0-2.04.5-3.47,1.85,0,0,.89-8.3-1.9-12.5-.99-1.49-2-2.06-2.91-2.06h0c-1.65,0-2.95,1.91-3.07,3.56,0,0-1.08-1.49-2.86-1.49-1.38,0-3.2.89-5.24,4.09,0,0-2.16-3.68-5.5-3.69-1.46,0-3.15.71-4.98,2.74,0,0,2.03-10.13-8.5-10.13h-.46s4.03-6.96-2.51-11.01c0,0,6.88-4.71-.47-8.86,0,0,7.26-4.91,1.19-13.97,0,0,4.03-.15,1.85-5.1,0,0,1.1.23,2.49.23,2.97,0,7.3-1.09,5.09-7.95,0,0,2.89,2.25,5.28,2.25,1.88,0,3.44-1.37,3.11-6.25,0,0,1.34.82,3.09.82,1.54,0,3.4-.62,4.97-2.96,3.37-5.01-1.04-9.36-1.04-9.36,0,0,2.48,1.7,5.45,1.7,2.53,0,5.4-1.21,7.45-5.71,0,0-1.44,4.82,2,4.82.35,0,.77-.04,1.22-.17,0,0,.6,2.13,2.39,2.13.76,0,1.73-.37,2.95-1.45,0,0-.71,5.04,2.56,6.01.39.12.76.18,1.09.18,2.59,0,4.03-2.88,4.03-2.88,0,0-.32,4.47,3.5,4.47.64,0,1.38-.13,2.27-.41,0,0-1.49,4.05,1.78,6.3.68.47,1.34.68,1.94.68,1.26,0,2.29-.87,2.93-2.03.23.07.45.12.7.12h.11c.07,0,.14-.02.23-.03.51,2.57,1.65,5.67,4.17,5.67.45,0,.97-.11,1.53-.34,0,0-1.55,6.39,3.66,6.39.7,0,1.54-.12,2.53-.39,0,0-.72,2.93,1.92,3.46,0,0-7.25,4.2-1.06,11.41Z"/>
        <g>
          <path class="cls-9" d="m117.99,17.06c.53-4.84-4.35-8.31-8.41-7.64-1.32.21-2.58.85-3.75,1.73-.23-1.57-.89-3.05-2.15-4.28-3.06-3.03-8.39-2.29-11.26.62-1.65,1.68-2.37,4.01-2.44,6.38-1.33-.28-2.73-.24-3.98.15-3.49,1.09-5.61,4.53-5.39,8.32.14,2.53,1.29,5.34,3.62,6.42.32.14.68.26,1.06.37.27,1.61,1.07,3.15,2.35,4.25.84.73,1.95,1.23,3.09,1.46.01,2.38,1.14,4.71,3.24,6.17,2.66,1.85,6.54,1.52,9.09-.37.27-.21.51-.43.74-.64,3.38,1.37,7.39,1.33,9.89-.94,2.63-2.37,2.65-6.49,1.19-9.54-.91-1.93-2.58-3.23-4.43-4.27,3.84-1.35,7.07-4.01,7.55-8.2Z"/>
          <path class="cls-9" d="m173.46,65.23c-.8-2.86-2.83-4.58-5.24-5.61.17-.22.33-.46.46-.72,1.87-3.57-.49-7.69-3.27-9.77-1.09-.82-2.37-1.27-3.7-1.51,1.01-2.69.48-5.64-2.83-7.77-3.82-2.43-10.25-1.04-13.92,2.45-1.86-2.7-5.98-3.1-8.81-2.51-1.03.21-2.06.62-3.05,1.18-.39-3.53-2.12-6.86-5.13-7.91-3.75-1.29-7.47.94-8.89,4.64-.25.63-.44,1.35-.57,2.11-.6.27-1.18.61-1.69,1.06-2.9,2.51-1.94,6.91-.07,9.73,2.05,3.12,5.34,3.88,8.43,3,.33,1.69,1.09,3.33,2.03,4.65,1.72,2.41,4.56,3.46,7.3,3.23-.22,3.52,2.03,7.18,4.68,9.02,2.15,1.49,5.02,2.05,7.77,1.78-.5,2.93.57,5.97,2.43,8.2,2.66,3.22,7.85,4.05,11.34,2,2.93-1.73,4.02-5.18,3.57-8.44,1.25.24,2.52.24,3.69-.07,4.19-.72,6.78-4.02,5.47-8.75Z"/>
          <path class="cls-9" d="m79.85,13.76c-.71-1.67-2.71-2.84-4.36-3.17-2.41-.47-4.64.34-5.97,2.58-.96,1.61-.34,3.79,1.17,4.76,2.39,1.53,6.33,1.57,8.37-.69.21-.22.34-.47.45-.72.6-.7.78-1.73.34-2.76Z"/>
          <path class="cls-9" d="m86.37,11.29c-.03-.24-.13-.46-.29-.66.02-.09.04-.18.04-.28-.16-2.3-1.91-4.43-3.93-5.17-.59-.22-1.17.14-1.5.63-1.07,1.61-.7,3.46.61,4.76.97.95,3.25,2.58,4.6,1.85.41-.22.52-.69.47-1.13Z"/>
          <path class="cls-9" d="m79.69,26.64c-1.43-.97-4.14-.23-5.59.28-2,.71-3.83,2.42-3.22,4.85,1.28,5.01,7.94-.29,8.73-3.12,0-.05,0-.1,0-.15.7-.33.71-1.42.07-1.86Z"/>
          <path class="cls-9" d="m62.24,48.93c1.07-.77,1.91-1.84,2.29-3.24.52-1.89-.59-3.7-1.99-4.99,2.32-1.14,4.07-3.03,3.87-5.8-.3-4.08-4.15-6.76-7.86-6.86-.83-.77-1.98-1.28-3.24-1.6-2.99-1.96-6.96-2.59-9.88-1.21-3.35,1.59-4.07,5.57-2.95,8.84-2.65,1.03-4.74,3.13-4.68,6.21-2.31-.53-4.69-1.35-6.95-.23-2.2,1.1-3.37,3.43-3.65,5.91-.17,1.42.1,2.51.63,3.38-1.52-.03-3.04.45-4.44,1.43-1.94,1.35-4.49,4.49-3.79,7.19.76,2.95,2.84,3.69,5.18,3.43-.51.93-.7,2.01-.29,3.18.74,2.17,2.7,3.52,4.7,4.22,1.82.63,3.81.62,5.44-.37.63.84,1.51,1.51,2.53,1.92,2.82,1.1,5.83.5,7.68-2.14.17-.23.3-.46.42-.68.47.24.99.44,1.53.58,3.05.78,6.13.12,8.59-1.93,2.15-1.8,2.24-4.44,1.13-6.66,4.79.74,10.79-1.83,8.98-7.14-.49-1.44-1.71-2.6-3.26-3.44Z"/>
          <path class="cls-9" d="m74.97,43.37c-1.07-3.73-6.7-.9-8.39.72-.68.66.05,1.88.83,1.66.02.06.04.11.08.15.91,1.56,3.37,1.76,4.95,1.49,1.88-.33,3.1-2,2.54-4.03Z"/>
          <path class="cls-9" d="m47.38,71.47c-1.01-.21-1.71,1.22-.74,1.82.02.01.04.03.06.04-.95,1.21-1.21,3.43-1.24,4.75-.08,2.21,1.23,4.15,3.49,3.48,4.27-1.25,1.95-9.36-1.57-10.09Z"/>
          <path class="cls-9" d="m37.87,73.4c-3.14-2.81-9.79,2.42-7.3,6.41,1.26,2.02,3.53.76,4.76-.52.93-.95,2.21-2.83,2.16-4.42.56-.2.91-.99.38-1.47Z"/>
          <path class="cls-9" d="m41.05,78.11c-.74-.01-1.16.56-1.23,1.18-.16.07-.3.2-.39.42-.76,1.69-.96,3.73-.82,5.59.13,1.53.79,4.04,2.76,3.4,2.02-.64,2.64-3.6,2.6-5.52-.02-1.86-.66-5.06-2.93-5.07Z"/>
          <path class="cls-9" d="m43.25,99.56c1.4-1.05,2.37-2.58,2.3-4.43-.09-2.54-2.69-3.86-4.78-4.12-1.62-.2-3.35.42-4.69,1.51-.97-2.31-2.73-4.51-5.22-4.93-1.8-.31-4.84.59-5.53,2.62-.36,1.07-.08,1.97.57,2.71-1.12.83-2.06,1.98-2.6,3.31-2.02-4.4-8.47-6.14-11.77-2.09-1.71,2.1-.77,4.82,1.12,6.25-1.21.3-2.32.74-3.06,1.06-2.49,1.04-4.66,4.06-3.33,6.94,1.29,2.79,4.12,3.68,6.84,3.24-1.42,1.61-2.55,3.53-2.77,5.63-.33,3.1.48,6.92,4.06,7.16,2.87.18,4.5-2.21,5.31-5.04,1.2,2.17,3.6,3.5,6.46,2.11,1.32-.64,2.11-1.59,2.5-2.67,2.84,1.53,6.24,1.17,7.79-2.98.97-2.6.15-6.07-1.6-8.72,1.1,1.09,2.47,1.85,3.97,2.07,2.96.42,5.9-2.02,6.27-5.18.24-1.94-.56-3.47-1.82-4.44Z"/>
          <path class="cls-9" d="m45.54,115.63c-.8-1.78-2.97-4.52-5.03-4.52-.89.01-1.28.87-1.02,1.62-1.3,3.07.35,9.95,4.32,8.78,2.58-.77,2.71-3.73,1.73-5.88Z"/>
          <path class="cls-9" d="m8.32,118.08c-1.67-.81-3.55-.63-5.13.34-1.4.86-2.72,3.03-1.98,4.77.68,1.59,2.55,1.28,3.79.76,1.28-.54,2.63-1.65,2.99-3.12.08-.37-.02-.71-.2-.98h.04c.89.14,1.29-1.38.48-1.77Z"/>
          <path class="cls-9" d="m18.36,126.72c.29-.68-.27-1.6-1.05-1.36-2.06.63-3.11,2.74-3.51,4.84-.29,1.61-.39,4.04.93,5.21,1.72,1.49,3.77-.3,4.36-2.12.54-1.67.64-5.14-.73-6.57Z"/>
          <path class="cls-9" d="m60.61,135.61c1.01-1.29,1.52-2.98,1.18-5.05-.97-5.77-6.77-5.39-10.91-3.15-.99-2.49-3.9-3.85-6.34-3.54-1.85.22-3.56.99-5.11,2.04-.05-1.1-.5-2.15-1.56-2.94-3.3-2.5-6.18-.2-7.75,2.98-.68-1.35-1.97-2.29-3.57-1.91-3.03.72-2.66,5.34-1.53,7.97-.8.25-1.54.62-1.98.9-2.34,1.48-3.72,4.09-2.48,6.88,1.18,2.64,4.85,2.46,6.68.85.39-.34.74-.74,1.05-1.16.45,1.02,1.11,1.92,2,2.54,1.09.75,2.31.87,3.41.52-.03.04-.06.06-.09.11-3.29,4.7,1.71,11.17,6.68,9.68.3,1.03.78,2.02,1.43,2.85,2.62,3.29,8.03,3.63,11.35,1.58,3.04-1.85,4.02-5.45,3.37-8.78,1.29.22,2.6.14,3.78-.35,5.19-2.15,4.32-10.16.37-12.02Z"/>
          <path class="cls-9" d="m104.87,149.71c.37-3.47-3.53-6.24-6.38-6.58-3.33-.4-6.43,1.08-8.77,3.46-.31-.97-.91-1.87-1.82-2.61-3.51-2.87-8.66-2.17-11.14,1.01-.93-1.76-2.29-3.19-4-3.85-7.32-2.76-10.84,8.62-7.13,14.08-.1-.02-.18-.04-.28-.04-3,.2-5.37,2.27-6.86,4.94-1.09,1.99-1.81,4.94-.37,6.94,1.01,1.4,2.57,1.77,4.2,1.58-1.62,4.01-.4,9.23,4.46,9.83,1.44.18,2.68-.35,3.67-1.25.29.52.68,1.02,1.2,1.49,2.86,2.65,7.16,1.66,9.78-.81.76-.7,1.35-1.64,1.75-2.66.68.27,1.44.43,2.26.42,3.36-.01,6.34-1.74,8.03-4.74,4.08,2.42,9.92-2.44,8.62-7.91-.54-2.24-2.23-3.56-4.25-4.13,3.59-2.11,6.67-5.58,7.03-9.18Z"/>
          <path class="cls-9" d="m53.34,161.19c-2.29-3.38-10.76-1.01-11.32,3.14-.42,3.19,2.67,4.22,5.05,3.68,2.46-.55,5.63-2.36,6.99-4.66.56-.94.05-1.83-.72-2.16Z"/>
          <path class="cls-9" d="m55.23,168.68c-.06-.24-.19-.46-.4-.6-1.5-.98-3.58.1-4.89.96-1.36.9-3.1,2.39-3.06,4.27.06,2.66,3.1,3.14,4.91,2.2,1.8-.93,3.67-3.78,3.81-5.9.02-.36-.14-.68-.37-.93Z"/>
          <path class="cls-9" d="m145.26,164.23c-1.11-2.45-3.43-3.6-5.83-3.7.8-2.81.08-5.88-1.94-8.14-1.54-1.75-3.58-2.22-5.55-1.86-.5-2.11-1.7-3.98-3.65-4.92-3.66-1.76-6.13.54-7.22,3.76-1-.63-2.21-.95-3.6-.79-5.28.62-7.75,8.56-6.18,13.85-.45-.02-.93-.01-1.41.06-4.07.51-5.7,5.26-4.94,9,.18.91.49,1.74.92,2.51-1.58,1.58-1.02,4.75-.03,6.45.67,1.16,1.74,1.88,2.91,2.18-.72,2.05-.98,4.41-.08,6.3.12.27.28.52.44.76.01.04.01.07.01.12.86,5.79,8.22,4.26,11.01,1.25,3.05-3.3,3.05-8.93,1.01-12.76.25-.09.49-.2.74-.32,2.29,2.34,5.92,2.89,8.83,1.7,2.11-.86,3.85-2.59,4.35-4.65,2.17.6,4.48.49,6.62-.43,3.71-1.6,5.28-6.69,3.59-10.36Z"/>
          <path class="cls-9" d="m144.66,143.43c-.53-1.38-2.59-1.54-3.77-1.57-1.73-.03-4,.42-5.15,1.91-.47.6-.27,1.42.25,1.73.95,1.67,3.88,1.71,5.39,1.45,1.58-.27,4.1-1.38,3.28-3.52Z"/>
          <path class="cls-9" d="m132.65,137.96c.01-1.63-.11-3.29-.81-4.75-.39-.84-1.27-1.48-2.17-1.24-.9.23-1.31,1.2-1.49,2.06-.54,2.49.18,5.5,1.57,7.54.57.83,2.01.55,2.01-.4.88-.64.9-2.07.9-3.21Z"/>
          <path class="cls-9" d="m113.73,142.16c-.96-1.28-2.78-1.96-4.06-.76-1.18,1.1-.91,2.84.23,3.85.91.79,2.02,1.35,3.11,1.78.85.34,1.41-.44,1.4-1.2.69-1.09,0-2.75-.68-3.67Z"/>
          <path class="cls-9" d="m157.59,116.57c.21-.75.26-1.57.09-2.41-.54-2.57-3.17-3.53-5.34-2.81-.71.23-1.4.62-2.04,1.11.11-2.3-.77-4.71-2.87-5.63-5.48-2.39-6.49,4.73-4.89,8.98-.88-.36-1.87-.46-2.82-.18-2.33.67-3.13,3.6-2.56,5.83.6,2.24,2.67,3.74,4.81,3.93-.55.48-1.02,1.12-1.34,1.76-.93,1.83-1.05,4.33.45,5.87,1.38,1.39,3.73.93,5.49-.34.18,1.07.58,2.06,1.13,2.82,1.96,2.71,5.96,2.23,7.59-.6,0-.01.01-.03.02-.05.8.42,1.69.64,2.6.62,3.88-.1,4.72-4.02,4.02-7.36,2.82-.24,5.3-2.13,6-5.11,1.42-6.05-5.78-8.33-10.34-6.45Z"/>
          <path class="cls-9" d="m162.76,90.79c-1.66-.24-3.49-.02-5.04.72.11-1.89-.94-3.98-2.93-4.73-2.01-.77-4.33.83-5.07,2.78-.57,1.5-.31,3.16.51,4.43-1.63-.4-3.41-.19-4.74.87-2.72,2.17-1.91,5.67.58,7.54,2.13,1.6,4.75,1.29,7.01.19-.11,2.31,1.21,4.77,3.08,5.88,2.33,1.37,5.13.1,5.88-2.54.55-1.95.02-4.37-.85-6.34,2.33.14,5.01-.79,5.94-3.2,1.12-2.88-2.08-5.28-4.36-5.6Z"/>
          <path class="cls-9" d="m149.16,84.09c-.29-1.79-1.2-4.68-3.36-4.57-4.42.26-2.29,7.84.52,10.09,0,1.11,1.33,1.34,2.02.77,1.59-1.27,1.1-4.55.83-6.3Z"/>
          <path class="cls-9" d="m169.63,103.37c-1.15-1.61-3.58-3.33-5.46-1.99-.58.42-.65,1.14-.38,1.67-.54,1.59.89,3.4,1.85,4.5,1.04,1.21,2.79,2.59,4.28,1.33,1.59-1.35.7-4.13-.28-5.51Z"/>
          <path class="cls-9" d="m175.83,123.34c-1.44-1.7-3.77-2.9-5.96-2.46-.96.2-.97,1.64-.25,2.05.05.48.23.94.44,1.39.28.6.65,1.18,1.05,1.73.55.98,1.28,1.86,2.07,2.65.97.97,3.03,2.14,3.95.37,1.01-1.94-.05-4.25-1.31-5.73Z"/>
          <path class="cls-9" d="m175.25,93.99c-1.85-2.93-5.52.83-6.34,2.89-.16.39,0,.76.26.99.11.22.25.4.48.53,2,1.07,7.36-1.63,5.6-4.42Z"/>
        </g>
        <g>
          <path class="cls-11" d="m113.45,12.5c-2.19-2.74-5.92-2.08-8.71-.21-.4-1.61-1.37-2.99-3.05-3.7-3.7-1.56-5.7,1.23-5.79,4.38-1.36-.91-2.84-1.48-4.19-1.49-2.87-.04-4.41,2.49-4.35,5.2-.19-.01-.37,0-.57.02-.57.06-1.1.36-1.54.76-1.27-.81-2.98-1.19-4.31-1.25-2.85-.15-6.59,1.25-7.56,4.34-.87,2.74,1.59,5.24,3.77,6.12.66.27,1.37.42,2.08.46-.72,1.82-.5,4,1.09,5.24,1.75,1.36,4.44-.33,5.9-1.38.52-.38,1.05-.8,1.55-1.25.19,1.18.63,2.32,1.32,3.25,1.99,2.64,4.94,2.05,7.48.66.58-.31,1.55-.98,2.41-1.78,1.4,2.72,4.86,4.31,7.9,2.73,2.41-1.26,3.18-4.35,2.86-6.97-.13-1.02-.58-2.55-1.29-3.83,4.37-1.46,8.19-7.32,4.99-11.3Z"/>
          <path class="cls-11" d="m87.59,36c-.03-.38-.21-.66-.45-.85.53-.39.46-1.28-.09-1.63-1.88-1.19-4.01,1.44-4.98,2.84-1.26,1.82-1.9,4.58-.48,6.53,1.4,1.89,3.38-.02,4.24-1.36.97-1.5,1.94-3.66,1.77-5.52Z"/>
          <path class="cls-11" d="m148.28,57.81c2.13-1.53,3.58-4.16,2.94-6.95-1.14-5.05-6.81-5.21-10.94-3.52.64-1.01.97-2.18.8-3.46-.84-6.4-8.05-4.07-12.19-1.49,1.42-2.92,1.52-6.48-1.52-7.75-3.53-1.48-6.15.88-6.85,3.93-2.82-1.88-6.3-2.38-7.34,1.03-1.57,5.16,3.94,10.61,8.72,10-.58,4.98,5.07,6.5,9.07,5.9-.02.05-.06.09-.08.14-2.23,5.44,3.36,8.75,8,8.95-.97,2.69.51,6.01,2.63,7.65,1.97,1.51,4.67,2.08,6.95,1.01,1.33-.62,1.7-1.7,1.51-2.81,2.36-.06,4.62-1.19,5.28-3.55,1.36-4.93-2.68-7.86-6.99-9.1Z"/>
          <path class="cls-11" d="m163.66,56.35c1.38-3.07.49-7.97-3.37-8.34-3-.3-4.63,3.56-4.36,6.78-.15.09-.28.19-.41.31-1.95,1.78-1.71,5.12-.17,7.08,1.05,1.33,2.54,2.33,4.15,2.78-1.51,1.76-2.26,4.26-1.38,6.49,1.01,2.55,4.53,3.08,6.54,1.72,1.59-1.07,2.25-3.09,2.1-5.04,3.07.77,7.15-.47,8.06-3.57,1.75-5.89-6.37-9.66-11.15-8.21Z"/>
          <path class="cls-11" d="m161.28,93.13c-.65.02-1.31.12-1.95.3,1.01-3.74.43-8.52-2.14-9.88-2.81-1.48-4.39,2.13-4.72,4.43-.13.95-.41,3.55-.19,5.73-3.38-.18-8.47,2.42-7.79,6.5.51,3.03,3.75,3.33,6.66,2.3-.08.3-.14.62-.19.93-.41,2.97,1.65,4.41,4.23,4.08,2.32-.29,3.7-2.82,4.03-5.33.62.2,1.24.33,1.79.38,3.03.31,5.34-1.88,5.35-5.06.01-2.99-2.53-4.45-5.07-4.38Z"/>
          <path class="cls-11" d="m153.95,115.76c.36-3.45-1.04-7.42-4.19-7.29-2.8.11-3.46,3.03-3.24,6.28-.62-.03-1.26.12-1.88.4-.94.43-1.69,1.29-2.14,2.27-.98-.51-2.09-.68-3.21-.27-3.14,1.18-2.95,5.44-1.82,8.71-1.94-.07-3.75,1.03-4.91,2.87-3.41,5.41,2.54,10.31,7.27,8.69.56,1.27,1.49,2.39,2.63,2.96,2.31,1.18,5.14-.06,6.58-2.12.85-1.22,1.34-2.65,1.46-4.11,1.52,1.25,3.59,1.43,5.43.48,2.26-1.18,2.82-3.98,2.21-6.36-.38-1.5-1.23-2.8-2.34-3.77,1.92-.54,3.77-2.05,3.92-4.25.25-3.71-2.9-5.07-5.78-4.51Z"/>
          <path class="cls-11" d="m131.49,161.43c1.81-1.34,3.01-3.51,2.68-6.02-.67-5.23-5.73-5.8-9.57-4.17-.53-1.72-1.98-3.16-4.11-3.27-2.47-.14-5.71,2.33-6.7,5.13-.08-1.64-.91-3.15-2.77-3.93-1.93-.81-3.95-.68-5.76.11-.31-1.13-.94-2.14-1.95-2.87-3.18-2.3-6.46-.99-8.46,1.65-.69-.64-1.57-1.1-2.66-1.26-3.76-.56-6.77,2.2-8.07,5.72-1.13-.88-2.61-1.25-3.96-.78-2.41.83-3.65,3.47-4.43,5.82-.02.05-.02.11-.04.16-1.68-2.33-4.43-3.61-7.15-2.53-3.97,1.6-4,6.62-2.15,10.11-2.04.4-3.88,1.48-4.8,3.23-1.59,3.05.16,6.78,2.91,8.22,1.92,1.03,4.19,1.01,6.23.31.67,1.65,1.96,3.04,3.32,4.04,2.26,1.65,5.01,1.61,7.32.15,2.04-1.29,3.34-3.7,3.07-6.09,1.67.68,3.86.38,5.4-.17,1.86-.66,3.59-1.65,5.09-2.97.17-.14.35-.33.53-.54,2.17,4.66,9.38,4.99,13.34,1.96.17.74.43,1.44.82,2.04,1.4,2.18,3.9,3.36,6.3,3.76,4.49.75,9.27-1.68,9.07-6.47,1.48-.07,2.96-.51,4.3-1.11,2.1-.95,4.23-2.87,4.54-5.38.27-2.06-.89-3.66-2.35-4.84Z"/>
          <path class="cls-11" d="m51.75,125.48c-1.95-.46-4.07-.23-5.86.69-.7-4.28-4.7-8.36-8.39-5.25-1.8,1.52-2.58,4.34-2.42,7.12-2.1-2.25-5.44-3.64-7.65-1.92-2.06,1.6-2.46,4.85-1.57,7.23.69,1.85,1.91,3.52,3.45,4.67-1.71,1.78-1.04,4.87,0,6.89,2.5,4.88,9.92,6.23,13.47,2.09,1.65,1.26,3.92,1.98,5.57,1.87,5.92-.44,6.91-7.29,4.87-11.96,2.24-.85,4.15-2.58,4.45-4.84.47-3.51-3.23-5.94-5.94-6.59Z"/>
          <path class="cls-11" d="m38.56,95.65c-2.3-3.47-7.59-3.62-10.3-.84-.23-1.09-.84-2.08-2-2.8-2.11-1.31-4.65.06-6.64,1.69-.77-1.98-2.05-3.58-3.89-3.65-2.88-.13-3.84,3.27-3.45,6.15-2.14.2-4.07,1.58-4.6,4.11-.75,3.43,1.71,6.3,3.95,8.36.84.76,2.42,1.91,3.82,2.15.6,1.41,1.59,2.69,2.68,3.69,2.14,1.96,4.73,2.74,7.5,2,1.68-.46,2.92-1.55,3.39-2.96.97.31,2,.41,2.91.31,4.91-.53,5.17-6.6,3.13-10.24,3.29-.6,5.95-4.26,3.5-7.98Z"/>
          <path class="cls-11" d="m55.62,57.19c-.54-1.24-1.4-2.08-2.44-2.56,2.51-2.66,3.73-6.45,1.31-9.34-2.01-2.4-5.23-1.75-8.06-.05.12-2.02-.34-4.07-1.53-5.71-2.36-3.24-6.13-4.48-9.23-1.56-1.65,1.56-2.36,4.12-2.71,6.62-1.19-1.52-2.75-2.53-4.54-2.39-2.99.23-4.63,3.36-4.58,6.22.04,3.04,1.65,6.17,3.61,8.37-.46.31-.91.72-1.27,1.24-1.83,2.6.1,6.84,2.14,8.56,1.75,1.46,4.67,2.23,7,1.56-.06,1.51.44,3.14,1.07,4.35,1.35,2.55,4.08,3.67,6.62,2.77.43-.04.86-.12,1.26-.24,1.01-.3,1.74-.96,2.26-1.77.66-.36,1.27-.84,1.78-1.38,1.7-1.85,2.2-4.36,1.42-6.41,1.5-.05,3.01-.52,4.14-1.46,1.91-1.58,2.79-4.41,1.75-6.8Z"/>
          <path class="cls-11" d="m51.27,21.81c-2.91-.38-4.18,2.62-4.16,5.16.02,2.84,1.2,6.14,3.38,7.89.12.1.24.15.36.19-.55,1.03.63,2.02,1.55,1.57,2.62-1.26,3.43-5.37,3.58-8.07.2-3.38-1.42-6.32-4.72-6.74Z"/>
          <path class="cls-11" d="m67.96,33.29c-3.71-6.69-11.93,2.96-12.84,7.36-.24,1.19.98,1.83,1.72,1.33,4.17,1.33,14.27-2.99,11.12-8.69Z"/>
          <path class="cls-11" d="m66.1,45.27c-2.33-.25-5.09.95-6.53,2.99-1.07.95-1.58,2.3-.79,3.8.57,1.1,1.71,1.65,2.84,1.86,3.32,1.57,9.06.08,9.3-3.96.16-2.73-2.63-4.44-4.82-4.68Z"/>
          <path class="cls-11" d="m30.45,81.64c-3.39.74-1.54,6.47-.04,8.22.07.07.15.13.21.18.3.49.95.76,1.5.43,1.55-.91,2.25-3.51,2.21-5.27-.06-2.06-1.83-4.01-3.88-3.56Z"/>
          <path class="cls-11" d="m46.3,103.1c-1.15-1.9-3.4-1.92-5.19-1.13-1.53.69-3.21,2.33-2.05,4.09.1.15.25.25.41.32.04.18.13.36.23.5,1.07,1.38,3.55.74,4.87.16,1.48-.64,2.74-2.24,1.73-3.94Z"/>
          <path class="cls-11" d="m44.24,111.95c-1.28-.51-4.95-1.29-4.37,1.15.08.35.33.55.62.62-.02.06-.04.1-.04.15-.53,4.21,8.6,8.02,8.31,2.65-.15-2.61-2.48-3.76-4.52-4.57Z"/>
          <path class="cls-11" d="m12.2,111.15c-2.12.29-4.23,1.87-5.56,3.6-1.05,1.37-2.08,4.17-.57,5.64,2.51,2.46,5.12-3.92,5.35-5.67.03-.26-.06-.46-.2-.62.55-.39,1.1-.77,1.64-1.16.88-.63.37-1.93-.66-1.78Z"/>
          <path class="cls-11" d="m16.02,116.89c.54-.95-.54-2.29-1.5-1.62-.13.1-.29.23-.43.38-.29.13-.52.38-.64.69-1.9,2.25-4.29,6.85-1.2,7.78,1.98.61,3.24-1.07,3.55-2.95.19-1.11.37-2.74.06-4.02.06-.09.11-.17.16-.26Z"/>
          <path class="cls-11" d="m64.51,137.87c-1.73-2.02-5.71-2.59-7.36-.23-.24.34-.13.87.13,1.16.26.28.58.31.9.23.04.28.17.56.41.75.91.71,2.04,1.09,3.14,1.29.69.12,1.43.24,2.11.04.76-.22,1.23-.8,1.33-1.62.07-.6-.32-1.21-.67-1.63Z"/>
          <path class="cls-11" d="m43.8,153.27c-.29-.37-.67-.54-1.04-.58-.06-.27-.2-.52-.43-.66-3.6-1.84-4.2,6.69-1.03,7.91,2.14.82,3.15-1.99,3.25-3.69.05-1-.13-2.18-.74-2.98Z"/>
          <path class="cls-11" d="m73.34,145.47c-.49-1.95-1.78-3.75-3.65-4.33-.68-.2-1.53.23-1.69.99-.55,2.75.29,6.93,2.85,8.28.26.55.83.81,1.44.51.05-.02.09-.05.13-.07.04,0,.06.01.1.01.82.02,1.2-.88.99-1.55.33-1.23.11-2.81-.16-3.84Z"/>
          <path class="cls-11" d="m81.87,140.05c-3.84-.5-3.17,6.36-2.67,8.73.22,1.06,1.77.93,1.85-.1,1.42-.51,2.21-2.97,2.61-4.28.51-1.73.31-4.1-1.79-4.36Z"/>
          <path class="cls-11" d="m109.28,178.05c-.43-.6-1.22-.26-1.56.21-.1.12-.15.27-.21.41-.67.64-1.22,1.61-1.67,2.41-.58,1.04-.78,2.3-.43,3.45.23.8,1.15,1.41,1.92.88,1.13-.78,1.78-1.94,2.16-3.31.35-1.26.58-2.93-.21-4.05Z"/>
          <path class="cls-11" d="m119.64,186.39c-.14-1.03-.38-2.02-.68-3.03-.25-.82-.49-1.96-1.26-2.42-.59-.36-1.58-.09-1.69.72-.01.01-.01.03-.01.04-.67,1.09-.87,3.31-.97,4.11-.25,1.91.07,4.22,2.23,4.55,2.25.34,2.6-2.24,2.38-3.98Z"/>
          <path class="cls-11" d="m145.43,161.05c-1.05-3.17-5.28-4.2-7.7-2.05-.4.12-.75.48-.71.93.01.04.02.07.02.1-.02.27.05.52.21.72,1.05,2.58,5.59,3.04,7.59,1.75.43-.28.79-.91.6-1.46Z"/>
          <path class="cls-11" d="m141.19,169.53c-1.06-1.37-3.62-3.68-5.08-1.61-.06.09-.09.2-.1.29-.33.17-.57.49-.6.94-.15,2.53,4.59,10.32,7.1,6.5,1.37-2.07-.03-4.46-1.32-6.12Z"/>
          <path class="cls-11" d="m129.2,139.44c.25-2.06-.58-3.86-2.74-3.6-3.75.46-1.25,8.38-.45,10.37.41,1.04,1.78.29,1.65-.69-.04-.24-.09-.49-.14-.75t.02-.01c1.23-1.18,1.48-3.68,1.66-5.32Z"/>
          <path class="cls-11" d="m136.87,143c-.97.3-2.14.91-3.07,1.7-1.15-.52-2.31.84-1.38,1.89,0,0,.01.01.02.01-.25,1.13,1.07,2.01,1.78,1.09,2.64.98,6.69.71,6.74-2.33.05-2.38-2.37-2.91-4.09-2.36Z"/>
          <g>
            <path class="cls-11" d="m160.12,113.85s-.06.03-.08.04t.08-.04Z"/>
            <path class="cls-11" d="m161,105.7c-1.05.87-1.38,2.85-1.69,4.14-.07.29-.21.75-.33,1.24-.27.35-.45.71-.53,1.13-.07.44.07.81.32,1.05.06.22.13.44.29.59.31.3.67.28.99.05.07-.06.27-.27.31-.35.02-.07.04-.13.06-.2,1.59-.76,2.98-3.45,3.26-4.87.32-1.59-.9-4.26-2.68-2.79Z"/>
          </g>
          <path class="cls-11" d="m161.19,123.78c-.52.26-.59.93-.38,1.41-.19.2-.31.46-.29.71.13,1.54,2.08,2.47,3.28,2.97,1.38.59,3.24.71,3.86-1.06,1.32-3.73-4.04-5.24-6.47-4.03Z"/>
          <path class="cls-11" d="m154.36,72.51c-.55-.97-1.83-.98-2.41-.04-1.11,1.82-1.66,5.78-.14,7.7.09.91,1.04,1.3,1.72.9.5-.12.91-.66.83-1.2.99-2.21,1.18-5.32,0-7.37Z"/>
          <path class="cls-11" d="m164.05,75.31c-1.65-1.29-3.38.22-4.35,1.61-.96,1.38-1.64,3.2-1.86,4.9-.11.85.68,1.31,1.36,1.23.23.72.97,1.25,1.75.75,2.27-1.42,6.26-6.03,3.09-8.49Z"/>
          <path class="cls-11" d="m110.21,43.05c-.34-.1-.68-.16-1.03-.24-.72-3.39-6.31-7.95-8.17-4.14-2.43,4.94,5.94,7.43,9.16,6.67,1.09-.26,1.12-1.99.04-2.29Z"/>
          <path class="cls-11" d="m115.86,30.11c-.06-1.81-.66-3.46-2.05-4.57-.62-.48-1.46-.08-1.85.5-1.18,1.78-1.39,6.04.82,7.12-.04.42-.07.81-.04,1.19.06.97,1.21,1.75,1.94.9,1.11-1.32,1.24-3.44,1.18-5.13Z"/>
        </g>
        <path class="cls-3" d="m128.75,44.9c1.22-2.8,1.53-6.43-.96-7.69-4.3-2.16-4.54,4.35-3.45,7.71-2.89-.04-6.04,2.45-5.57,5.61.3,2.01,2.56,2.75,4.12,2.15,1.07-.41,2.04-1.26,2.83-2.29,2.93,2.72,9.23,2.21,9.36-2.63.08-3.15-3.35-3.48-6.33-2.87Z"/>
        <path class="cls-3" d="m117.26,35.3c-.67-.26-1.32.27-1.54.92-.66,1.97.47,3.93,1.79,5.25.64.64,2.23,1.85,3.36,1.71.13.83,1.26.81,1.57.04,1.4-3.55-2.4-6.81-5.18-7.92Z"/>
        <path class="cls-3" d="m149.79,52.41c-.83-1.6-3.18-1.24-4.56-.97-.88.16-1.87.44-2.77.85.01-.04.02-.09.03-.13.36-1.6.36-3.57-1.06-4.57-1.49-1.04-2.98.16-3.32,1.75-.25,1.16-.2,2.45.04,3.64-1.36-.57-2.91-.83-4.25-.69-1.92.21-3.73,2.12-3.24,4.29.47,2.02,2.47,2.1,4.07,1.68.25-.07.54-.18.86-.28-.21.35-.39.7-.56,1.04-.77,1.67-.78,4.42,1.54,4.58,1.43.11,2.49-1.16,3.23-2.4.41,1.73,1.4,3.23,3.21,3.65.56.13,1.2-.06,1.5-.63.92-1.81.65-4.45.08-6.34-.09-.3-.22-.61-.4-.91,1.09.11,2.16.06,3.14-.15,1.72-.4,3.43-2.52,2.45-4.4Z"/>
        <path class="cls-3" d="m153.72,60.44c-.53-1.32-2.21-1.95-3.4-2.31-1.22-.36-3.4-.71-4.13.78-.28.59-.04,1.24.43,1.5.47.58,1.05,1.03,1.63,1.51.76.64,1.57,1.25,2.54,1.5,1.71.46,3.73-1.03,2.93-2.98Z"/>
        <path class="cls-3" d="m145.92,69.46c-.34-1.08-.91-2.46-1.85-3.09-.92-.61-2.13.36-1.87,1.46.04.12.11.27.19.45-.6,1.99-.49,4.41,1.29,5.63.46.32,1.26.26,1.62-.21.99-1.26,1.09-2.72.62-4.24Z"/>
        <path class="cls-3" d="m168.03,58.1c-1.11.23-2.18,1.11-3.11,1.9.27-.93.27-2.06.25-2.84-.04-1.39-.47-2.85-1.54-3.73-.49-.41-1.3-.63-1.78-.02-1.4,1.82-1,4.19.02,6.12.1.19.25.3.4.39-.01.25-.01.49.05.74.02.06.05.11.07.17-1,.05-2.01.45-2.81,1.06-.97.73-2.95,3.1-1.54,4.38,1.11,1.02,2.47.26,3.53-.46.89-.61,1.79-1.34,2.37-2.29,1.13.14,2.33-.18,3.4-.53,1.21-.39,2.78-.99,3.16-2.42.41-1.62-1.09-2.73-2.46-2.46Z"/>
        <path class="cls-3" d="m166.68,64.82c-.86-1.23-2.73-.39-2.39.91h0c-.23,2.16-.41,4.47,1.48,5.85.54.4,1.45.15,1.74-.47,1.01-2.16.47-4.42-.83-6.29Z"/>
        <path class="cls-3" d="m161.18,93.25c-.49-.01-1,.07-1.48.21.24-.64.42-1.27.55-1.73.58-1.93.62-4.28-1.43-5.15-2.05-.86-3.21,1.37-3.41,3.13-.08.71-.08,1.42-.06,2.11-.36-.55-.78-1.07-1.28-1.47-1.69-1.43-4.23-1.71-5.6.3-1.37,2,.76,4.57,2.46,5.26.85.34,1.72.5,2.6.64-.9,1.11-1.58,2.68-1.84,3.8-.44,1.95.73,4.69,3,4.12,1.66-.43,2.22-2.37,2.49-3.92.11-.63.22-1.33.26-2.02,1.22.63,2.66.63,4.04.43,1.42-.21,3.34-1.01,3.53-2.75.21-2.02-2.35-2.92-3.81-2.96Z"/>
        <path class="cls-3" d="m157.64,119.42c-.33-2.2-2.65-2.78-4.31-1.99-.81.38-1.54.92-2.21,1.53,0-.17.02-.32.02-.46.12-1.89-.68-4.09-2.79-3.9-2.57.23-2.91,3.77-1.87,6.21-1.45-.78-3.14-1.24-4.7-1.15-2.11.14-3.98,2.45-2.95,4.68.88,1.95,3.36,1.95,5.09,1.71.62-.09,1.34-.19,2.07-.38-.1,1.16.13,2.38.64,3.46.77,1.6,3.06,3.49,4.84,2.48,2.06-1.2,2.16-4.79,1.32-7.44.71-.14,1.42-.38,2-.63,1.68-.71,3.15-2.05,2.84-4.13Z"/>
        <path class="cls-3" d="m144.15,129.72c-.25-.03-.44.02-.61.1.11-.2.2-.42.24-.65.16-.77-.37-1.37-1.07-1.34-.11-.16-.27-.31-.48-.39-2.5-.98-5.93.53-7.51,2.64-.55.72-.59,1.8.27,2.32,1.46.93,3.18.63,4.71.07,1.01-.36,2.43-.97,3.31-1.92,0,.03,0,.04,0,.06-.06.05-.1.1-.14.16-1.44,2.47-2.19,8,1.27,9.03.75.23,1.57-.24,1.79-1.04.64-2.42,1.74-8.54-1.76-9.03Z"/>
        <path class="cls-3" d="m127.11,157.49c-.9-.24-1.89-.3-2.89-.21.52-1.2.65-2.55.1-3.8-1.11-2.51-4.29-2.45-6.05-.9-.49.42-1.02,1.03-1.52,1.69-.1-.87-.53-1.63-1.47-2.06-1.81-.83-3.28.39-4.16,2.01-.12.24-.27.56-.41.88-.62-1.97-1.81-3.93-3.87-4.36-2.99-.64-3.56,2.49-3.43,5.25-2.06-.99-4.39-.66-5.76,1.54-1.65,2.63-.55,5.74,1.66,7.45,1.17.92,2.65,1.35,4.14,1.38-.46,1.11-.43,2.38.5,3.4,1.52,1.67,4.66.91,6.49.51,1.35-.29,2.68-.69,4-1.13-.04,2.25,1.05,4.57,3.27,5.1,2.26.54,4.51-.87,5.36-3.08.78-2,.58-4.38.05-6.46,2.69.63,6.15-.31,7.11-2.75.85-2.16-1.45-4-3.11-4.47Z"/>
        <path class="cls-3" d="m101.51,149.49c.02-.56-.2-1.13-.41-1.63-.52-1.21-1.79-2.59-3.06-2.84-2.11-.44-3.45,1.94-2.44,3.84.47.88,1.36,1.51,2.17,2,.62.38,1.39.87,2.1,1,.67.12,1.31-.06,1.68-.71.29-.51.25-1.17-.04-1.66Z"/>
        <path class="cls-3" d="m104.53,144.58c-.61-1.23-2.36-.67-2.4.63-.04.7-.04,1.6.14,2.37-.12.82-.18,1.7.77,1.99.39.13.88.02,1.18-.31,1.1-1.23,1.02-3.25.32-4.68Z"/>
        <path class="cls-3" d="m87.37,157.35c.96-2.58.71-5.62-2.27-5.76-2.5-.13-3.35,2.62-3.31,5.24-.15.11-.27.22-.41.3-1.32-.52-2.89-.61-4.13-.42-1.66.27-4.73,2.17-4.13,4.41.53,1.98,2.77,2.29,4.43,2.29.69,0,1.47-.06,2.24-.2-1.1,2.67.13,7.24,2.86,7.86,1.97.45,3.66-1.5,3.97-3.39.19-1.21,0-2.47-.4-3.66,2.65,1.19,6.74.23,6.68-3.15-.06-3.45-2.91-4.21-5.53-3.52Z"/>
        <path class="cls-3" d="m77.23,164.77c-.42-.18-.84-.15-1.28-.07-1.01.18-1.94.87-2.74,1.5-1.24.98-2.82,3.05-2.25,4.82.69,2.17,2.95,1.62,4.32.62.78-.58,1.43-1.22,2.01-2,.28-.38.49-.76.66-1.21.22-.62.14-1.05.08-1.52.71-.81-.11-1.86-.79-2.14Z"/>
        <path class="cls-3" d="m79.75,173.17c.02-.09.03-.18.04-.26.15-1.08-1.3-1.61-1.94-.89-1.9,2.14-1.96,7.04,1.23,7.84.82.22,1.68-.24,1.91-1.12.49-1.76.21-4.37-1.24-5.56Z"/>
        <path class="cls-3" d="m70.85,161.51c-2.32-.56-4.9,1.03-6.15,3.06-.49.8-.04,2.13.89,2.32,1.88.4,3.92-.33,5.11-1.94.29-.41.26-.8.08-1.11.01-.01.03-.01.04-.01,1.14-.16,1.1-2.06.04-2.32Z"/>
        <path class="cls-3" d="m50.92,128.06c-3.05-2.54-5.63,1.46-5.98,4.74-.11.18-.2.37-.25.58-.1.02-.21.04-.31.06.31-1.83-.25-4.16-.78-5.72-.68-1.92-2.88-4.27-4.81-2.26-1.59,1.67-.7,4.4.13,6.24.33.76.84,1.67,1.48,2.44-.91.12-1.81.25-2.71.45-1.8.38-4.91,1.82-5.4,3.96-.64,2.8,2.18,3.25,4.14,3.15,1.76-.1,3.59-.95,5.24-2.09-.06,2.53.77,5.08,2.74,5.57,2.59.64,3.97-2.07,3.62-4.4-.19-1.24-.86-3.43-1.95-4.71.29-.19.56-.39.81-.64,1.4-.25,2.67-1.75,3.53-2.83.94-1.19,2.02-3.28.51-4.52Z"/>
        <path class="cls-3" d="m36.58,131.09s-.08-.02-.1-.03c-1.11-3.11-7.24-3.63-8.99-.85-.36.55-.22,1.35.21,1.82,1.14,1.24,2.63,1.66,4.21,1.85,1.5.19,3.67.22,4.9-.81.57-.47.43-1.66-.23-1.97Z"/>
        <path class="cls-3" d="m40.64,143.78c-.16-.87-1.12-.95-1.67-.5-.03.03-.05.06-.09.1-.35-.15-.77-.12-1.13.25-.95.93-1.71,2.11-1.64,3.53.05,1.08,1,1.67,1.92,1.22,1.47-.73,2.92-2.82,2.62-4.6Z"/>
        <path class="cls-3" d="m31.46,100.3c-1.38-1.05-2.85-.91-4.15-.14.08-1.16.08-2.29.08-3.1.05-2.11-.42-6.15-3.2-6.09-3.48.08-3.37,4.45-2.1,8.16-1.59-.76-3.36-1.02-5.14-.69-2.3.43-4.95,2.65-5.05,5.27-.12,2.82,3.28,3.18,5.16,3.08.87-.05,1.81-.2,2.75-.47-1.09,3.13-.76,6.84,2.63,7.28,3.14.4,4.02-4.46,3.26-8.06.05-.07.11-.16.17-.25.09.46.38.91.82,1.1,1.51.67,3.49-.59,4.63-1.53,1.43-1.2,1.74-3.36.16-4.55Z"/>
        <path class="cls-3" d="m31.91,109.32c-.87-1.12-2.28-1.61-3.55-1.13-.27.04-.52.19-.69.43-.04.04-.07.07-.1.12,0,.02-.04.03-.06.06,0,.05-.02.08-.02.11-.02.04-.04.09-.05.14-.22.77.13,1.45.46,2.16.33.72.7,1.41,1.17,2.05.46.64,1.04,1.04,1.82,1.09.75.05,1.49-.37,1.85-1.07.68-1.32,0-2.9-.83-3.95Z"/>
        <path class="cls-3" d="m36.41,92.93c-.6-1.27-2.26-1.22-3.32-.79-1.24.49-2.42,1.48-2.71,2.91-.05.28,0,.53.1.76-.15.59-.01,1.29.55,1.58,1.13.59,2.82-.24,3.92-.71,1.32-.55,2.1-2.36,1.46-3.75Z"/>
        <path class="cls-3" d="m49.93,52.45c.07-2.59-2.26-4.75-4.65-4.37-.75.12-1.46.41-2.13.81.22-3.66-1.1-7.97-3.97-7.95-3.75.03-3.71,5.09-2.43,8.96-1.37-.94-2.65-2.07-4.24-2.62-2.76-.95-5.92.94-7.01,3.64-1.21,2.99.08,5.78,2.8,7.03.79.35,1.65.47,2.57.42-.2.42-.36.82-.5,1.21-.52,1.52-1.07,3.97-.36,5.63.07.48.38.87.79,1.07.21.18.45.33.74.44,3.02,1.16,5.12-.86,6.29-3.62,1.04,2.53,2.72,4.25,5.18,3.03,2.72-1.36,2.28-5.01,1.36-7.45-.23-.61-.55-1.35-.95-2.09,2.87.55,6.42-.96,6.51-4.13Z"/>
        <path class="cls-3" d="m48.44,38.68c-.86-.95-2.36-.97-3.17.07-1.12,1.42-1.1,3.47-.97,5.2,0,.11.04.21.07.3-.46.97.37,2.43,1.48,2.01,2.62-.97,4.87-5.09,2.59-7.6Z"/>
        <path class="cls-3" d="m52.35,56.73c-1.64-.55-3.36.36-4.89.87-.01.01-.02.01-.03.02-.03.01-.05.04-.08.05-.15.07-.26.17-.35.29-.02.02-.03.03-.05.05-.02.03-.04.05-.05.09-.14.21-.22.44-.22.68.04,1.73,1.89,2.53,3.24,2.93,1.38.43,3.26.54,4.2-.85,1.06-1.59-.26-3.63-1.77-4.13Z"/>
        <path class="cls-3" d="m100.7,20.11c.8-.57,1.51-1.19,2.02-1.6,1.98-1.68,3.23-4.16,1.53-6.52-1.67-2.33-4.56-1.33-6.01.6-.83,1.11-1.53,2.5-1.92,3.95-.27-.73-.57-1.39-.82-1.91-.88-1.93-2.53-4.02-4.75-3.01-2.3,1.03-1.02,4.37-.2,5.95.82,1.56,2.5,4.17,4.47,3.84v.02c.33,1.77,2.24,3.74,3.61,4.82,1.86,1.44,4.1,1.35,5.34-.86,1.72-3.09-.64-4.74-3.28-5.27Zm.46-3.93c.48-.62.92-1.28,1.27-1.97,0-.01,0-.02.01-.02.22.56-.5,1.36-1.28,1.99Z"/>
        <path class="cls-3" d="m89.06,19.73c-3.43-3.56-10.79-1.21-12.48,3.19-.24.62.12,1.52.68,1.81,3.18,1.65,7.09.22,10.06-1.3.68-.35.72-1.26.33-1.83.1.02.23.05.33.07,1.03.24,1.92-1.08,1.08-1.94Z"/>
        <path class="cls-3" d="m91.22,24.24c-.29-.21-.58-.27-.87-.23-.58-.15-1.28.09-1.49.81-.86,2.86-1.93,7.06,1.12,8.91.7.42,1.65.21,2.05-.56,1.23-2.34,1.51-7.2-.82-8.93Z"/>
      </g>
    </g>
  </g>
</svg>