<?xml version="1.0" encoding="UTF-8"?>
<svg xmlns="http://www.w3.org/2000/svg" xmlns:xlink="http://www.w3.org/1999/xlink" viewBox="0 0 93.48 95.24">
  <defs>
    <style>
      .cls-1 {
        fill: url(#linear-gradient-3);
      }

      .cls-1, .cls-2, .cls-3, .cls-4, .cls-5 {
        mix-blend-mode: multiply;
      }

      .cls-6 {
        fill: url(#linear-gradient-2);
      }

      .cls-7 {
        fill: #fafaf8;
      }

      .cls-8 {
        filter: url(#luminosity-noclip-7);
      }

      .cls-2 {
        fill: url(#linear-gradient);
      }

      .cls-9 {
        fill: #939598;
      }

      .cls-10 {
        filter: url(#luminosity-noclip-5);
      }

      .cls-3 {
        fill: url(#radial-gradient-2);
      }

      .cls-11 {
        mask: url(#mask-2);
      }

      .cls-12 {
        fill: url(#linear-gradient-6);
      }

      .cls-13 {
        fill: #85a186;
      }

      .cls-14 {
        isolation: isolate;
      }

      .cls-15 {
        mask: url(#mask-3);
      }

      .cls-4 {
        fill: url(#radial-gradient);
      }

      .cls-5 {
        fill: url(#linear-gradient-5);
      }

      .cls-16 {
        mask: url(#mask-5);
      }

      .cls-17 {
        mask: url(#mask-4);
      }

      .cls-18 {
        mask: url(#mask-6);
      }

      .cls-19 {
        filter: url(#luminosity-noclip);
      }

      .cls-20 {
        mask: url(#mask-1);
      }

      .cls-21 {
        mask: url(#mask);
      }

      .cls-22 {
        mask: url(#mask-7);
      }

      .cls-23 {
        fill: url(#linear-gradient-4);
      }

      .cls-24 {
        filter: url(#luminosity-noclip-3);
      }

      .cls-25 {
        fill: #26281e;
      }
    </style>
    <filter id="luminosity-noclip" x=".51" y="14.38" width="80.87" height="80.87" color-interpolation-filters="sRGB" filterUnits="userSpaceOnUse">
      <feFlood flood-color="#fff" result="bg"/>
      <feBlend in="SourceGraphic" in2="bg"/>
    </filter>
    <filter id="luminosity-noclip-2" x=".51" y="-8239.13" width="80.87" height="32766" color-interpolation-filters="sRGB" filterUnits="userSpaceOnUse">
      <feFlood flood-color="#fff" result="bg"/>
      <feBlend in="SourceGraphic" in2="bg"/>
    </filter>
    <mask id="mask-1" x=".51" y="-8239.13" width="80.87" height="32766" maskUnits="userSpaceOnUse"/>
    <radialGradient id="radial-gradient" cx="40.94" cy="54.81" fx="40.94" fy="54.81" r="40.43" gradientTransform="translate(88.59 5.71) rotate(80.9)" gradientUnits="userSpaceOnUse">
      <stop offset="0" stop-color="#fff"/>
      <stop offset=".27" stop-color="#fcfcfc"/>
      <stop offset=".41" stop-color="#f4f4f4"/>
      <stop offset=".51" stop-color="#e7e7e7"/>
      <stop offset=".61" stop-color="#d4d4d4"/>
      <stop offset=".69" stop-color="#bcbcbc"/>
      <stop offset=".77" stop-color="#9d9d9d"/>
      <stop offset=".84" stop-color="#797979"/>
      <stop offset=".9" stop-color="#4f4f4f"/>
      <stop offset=".96" stop-color="#222"/>
      <stop offset="1" stop-color="#000"/>
    </radialGradient>
    <mask id="mask" x=".51" y="14.38" width="80.87" height="80.87" maskUnits="userSpaceOnUse">
      <g class="cls-19">
        <g class="cls-20">
          <circle class="cls-4" cx="40.94" cy="54.81" r="40.43" transform="translate(-19.65 86.57) rotate(-80.9)"/>
        </g>
      </g>
    </mask>
    <radialGradient id="radial-gradient-2" cx="40.94" cy="54.81" fx="40.94" fy="54.81" r="40.43" gradientTransform="translate(88.59 5.71) rotate(80.9)" gradientUnits="userSpaceOnUse">
      <stop offset="0" stop-color="#000"/>
      <stop offset=".27" stop-color="#020202"/>
      <stop offset=".41" stop-color="#0a0a0a"/>
      <stop offset=".51" stop-color="#171717"/>
      <stop offset=".61" stop-color="#2a2a2a"/>
      <stop offset=".69" stop-color="#424242"/>
      <stop offset=".77" stop-color="#616161"/>
      <stop offset=".84" stop-color="#858585"/>
      <stop offset=".9" stop-color="#afafaf"/>
      <stop offset=".96" stop-color="#dcdcdc"/>
      <stop offset="1" stop-color="#fff"/>
    </radialGradient>
    <filter id="luminosity-noclip-3" x="48.08" y="52.74" width="44.89" height="33.47" color-interpolation-filters="sRGB" filterUnits="userSpaceOnUse">
      <feFlood flood-color="#fff" result="bg"/>
      <feBlend in="SourceGraphic" in2="bg"/>
    </filter>
    <filter id="luminosity-noclip-4" x="48.08" y="-8239.13" width="44.89" height="32766" color-interpolation-filters="sRGB" filterUnits="userSpaceOnUse">
      <feFlood flood-color="#fff" result="bg"/>
      <feBlend in="SourceGraphic" in2="bg"/>
    </filter>
    <mask id="mask-3" x="48.08" y="-8239.13" width="44.89" height="32766" maskUnits="userSpaceOnUse"/>
    <linearGradient id="linear-gradient" x1="48.08" y1="69.48" x2="92.97" y2="69.48" gradientUnits="userSpaceOnUse">
      <stop offset="0" stop-color="#fff"/>
      <stop offset=".19" stop-color="#fcfcfc"/>
      <stop offset=".32" stop-color="#f3f3f3"/>
      <stop offset=".44" stop-color="#e3e3e3"/>
      <stop offset=".55" stop-color="#cdcdcd"/>
      <stop offset=".65" stop-color="#b1b1b1"/>
      <stop offset=".74" stop-color="#8e8e8e"/>
      <stop offset=".83" stop-color="#646464"/>
      <stop offset=".92" stop-color="#363636"/>
      <stop offset="1" stop-color="#010101"/>
      <stop offset="1" stop-color="#000"/>
    </linearGradient>
    <mask id="mask-2" x="48.08" y="52.74" width="44.89" height="33.47" maskUnits="userSpaceOnUse">
      <g class="cls-24">
        <g class="cls-15">
          <polygon class="cls-2" points="64.7 71.54 63.36 70.49 61.91 69.34 60.5 68.19 60.22 67.95 59.13 67.03 57.83 65.9 56.58 64.79 55.41 63.69 54.3 62.61 53.26 61.57 52.32 60.58 51.45 59.62 50.69 58.72 50.01 57.86 49.42 57.05 48.94 56.31 48.58 55.63 48.29 55.01 48.13 54.46 48.08 53.99 48.13 53.59 48.28 53.26 48.45 53.1 48.54 53.01 48.91 52.85 49.38 52.76 49.94 52.74 50.62 52.81 51.37 52.96 52.24 53.2 53.17 53.5 54.2 53.88 55.3 54.33 56.48 54.86 57.71 55.47 59.02 56.13 60.38 56.86 61.78 57.65 63.22 58.49 64.7 59.38 66.23 60.33 66.31 60.39 67.76 61.32 69.29 62.35 70.84 63.4 71.03 63.53 72.4 64.49 73.93 65.61 75.44 66.75 76.94 67.89 78.41 69.04 79.85 70.2 81.23 71.35 82.57 72.49 83.85 73.61 85.06 74.73 86.22 75.81 87.29 76.86 88.28 77.89 89.17 78.86 89.99 79.8 90.72 80.69 91.34 81.51 91.88 82.29 92.3 83 92.62 83.64 92.84 84.24 92.95 84.73 92.97 85.18 92.86 85.54 92.65 85.82 92.34 86.04 91.91 86.17 91.39 86.22 90.77 86.18 90.06 86.09 89.25 85.89 88.35 85.62 87.37 85.27 86.3 84.86 85.16 84.37 83.96 83.8 82.68 83.17 81.35 82.47 79.97 81.72 78.55 80.9 77.08 80.03 75.58 79.1 74.06 78.14 72.52 77.13 70.98 76.09 69.42 75.02 67.89 73.91 66.36 72.79 64.84 71.65 64.7 71.54"/>
        </g>
      </g>
    </mask>
    <linearGradient id="linear-gradient-2" x1="48.08" y1="69.48" x2="92.97" y2="69.48" gradientUnits="userSpaceOnUse">
      <stop offset="0" stop-color="#acd699"/>
      <stop offset=".27" stop-color="#aed79b"/>
      <stop offset=".45" stop-color="#b5daa4"/>
      <stop offset=".62" stop-color="#c2e1b4"/>
      <stop offset=".77" stop-color="#d4e9ca"/>
      <stop offset=".9" stop-color="#eaf5e6"/>
      <stop offset="1" stop-color="#fff"/>
    </linearGradient>
    <filter id="luminosity-noclip-5" x="56.16" y="25.45" width="33.79" height="19.12" color-interpolation-filters="sRGB" filterUnits="userSpaceOnUse">
      <feFlood flood-color="#fff" result="bg"/>
      <feBlend in="SourceGraphic" in2="bg"/>
    </filter>
    <filter id="luminosity-noclip-6" x="56.16" y="-8239.13" width="33.79" height="32766" color-interpolation-filters="sRGB" filterUnits="userSpaceOnUse">
      <feFlood flood-color="#fff" result="bg"/>
      <feBlend in="SourceGraphic" in2="bg"/>
    </filter>
    <mask id="mask-5" x="56.16" y="-8239.13" width="33.79" height="32766" maskUnits="userSpaceOnUse"/>
    <linearGradient id="linear-gradient-3" x1="56.16" y1="35.01" x2="89.96" y2="35.01" xlink:href="#linear-gradient"/>
    <mask id="mask-4" x="56.16" y="25.45" width="33.79" height="19.12" maskUnits="userSpaceOnUse">
      <g class="cls-10">
        <g class="cls-16">
          <polygon class="cls-1" points="89.89 26.55 89.96 26.89 89.94 27.25 89.86 27.64 89.68 28.09 89.43 28.55 89.1 29.06 88.69 29.59 88.22 30.15 87.65 30.72 87.02 31.32 86.33 31.95 85.59 32.57 84.77 33.22 83.91 33.86 82.98 34.52 82.01 35.18 81.01 35.84 79.95 36.5 78.88 37.14 77.77 37.79 76.63 38.42 75.48 39.02 74.32 39.6 73.15 40.17 73.13 40.18 72 40.72 70.82 41.23 69.67 41.71 68.55 42.17 67.92 42.41 67.43 42.58 66.34 42.96 65.28 43.31 64.28 43.62 63.28 43.89 62.37 44.1 61.49 44.29 60.66 44.42 59.91 44.52 59.2 44.57 58.57 44.57 57.99 44.52 57.49 44.42 57.08 44.29 56.74 44.1 56.48 43.87 56.29 43.61 56.18 43.31 56.16 42.96 56.21 42.57 56.34 42.16 56.56 41.7 56.86 41.21 57.22 40.69 57.66 40.14 58.17 39.59 58.77 38.99 59.43 38.38 60.16 37.75 60.93 37.13 61.77 36.48 62.68 35.82 63.61 35.17 64.07 34.87 64.61 34.51 65.65 33.84 66.7 33.2 67.81 32.55 68.9 31.93 68.93 31.92 70.07 31.3 71.22 30.71 72.38 30.14 73.55 29.57 74.72 29.05 75.87 28.53 77.01 28.07 78.14 27.63 79.24 27.23 80.31 26.87 81.35 26.54 82.34 26.26 83.3 26.01 84.2 25.81 85.05 25.64 85.84 25.55 86.58 25.47 87.24 25.45 87.85 25.48 88.38 25.55 88.84 25.66 89.22 25.81 89.51 26.02 89.75 26.26 89.89 26.55"/>
        </g>
      </g>
    </mask>
    <linearGradient id="linear-gradient-4" x1="56.16" y1="35.01" x2="89.96" y2="35.01" xlink:href="#linear-gradient-2"/>
    <filter id="luminosity-noclip-7" x="17.79" y="6.35" width="22.32" height="33.87" color-interpolation-filters="sRGB" filterUnits="userSpaceOnUse">
      <feFlood flood-color="#fff" result="bg"/>
      <feBlend in="SourceGraphic" in2="bg"/>
    </filter>
    <filter id="luminosity-noclip-8" x="17.79" y="-8239.13" width="22.32" height="32766" color-interpolation-filters="sRGB" filterUnits="userSpaceOnUse">
      <feFlood flood-color="#fff" result="bg"/>
      <feBlend in="SourceGraphic" in2="bg"/>
    </filter>
    <mask id="mask-7" x="17.79" y="-8239.13" width="22.32" height="32766" maskUnits="userSpaceOnUse"/>
    <linearGradient id="linear-gradient-5" x1="17.79" y1="23.28" x2="40.11" y2="23.28" xlink:href="#linear-gradient"/>
    <mask id="mask-6" x="17.79" y="6.35" width="22.32" height="33.87" maskUnits="userSpaceOnUse">
      <g class="cls-8">
        <g class="cls-22">
          <polygon class="cls-5" points="28.06 32.26 27.61 31.67 26.85 30.64 26.1 29.59 25.38 28.5 24.79 27.59 24.67 27.39 23.98 26.26 23.31 25.12 22.66 23.97 22.05 22.81 21.48 21.65 20.93 20.5 20.42 19.38 19.94 18.26 19.51 17.17 19.13 16.1 18.78 15.07 18.5 14.08 18.26 13.13 18.07 12.22 17.93 11.38 17.83 10.58 17.79 9.84 17.81 9.17 17.88 8.57 17.99 8.03 18.15 7.57 18.39 7.17 18.65 6.84 18.97 6.61 19.33 6.44 19.74 6.36 20.19 6.35 20.68 6.43 21.21 6.57 21.77 6.81 22.38 7.11 23.01 7.49 23.67 7.94 24.35 8.48 25.06 9.07 25.78 9.73 26.51 10.45 27.27 11.23 28.01 12.07 28.78 12.96 29.54 13.9 30.3 14.89 31.04 15.91 31.78 16.97 32.35 17.79 32.52 18.06 33.23 19.18 33.93 20.3 34.59 21.46 35.23 22.61 35.85 23.76 36.43 24.92 36.98 26.05 37.49 27.2 37.97 28.32 38.38 29.41 38.78 30.47 39.1 31.5 39.4 32.49 39.65 33.43 39.83 34.34 39.98 35.2 40.06 35.99 40.11 36.71 40.09 37.39 40.03 38 39.97 38.33 39.92 38.55 39.73 39 39.52 39.4 39.26 39.71 38.96 39.95 38.94 39.96 38.58 40.13 38.17 40.21 37.72 40.21 37.22 40.14 36.7 40 36.12 39.76 35.53 39.45 34.9 39.07 34.24 38.63 33.56 38.1 32.85 37.5 32.13 36.84 31.39 36.12 30.64 35.33 29.89 34.49 29.13 33.59 28.37 32.66 28.06 32.26"/>
        </g>
      </g>
    </mask>
    <linearGradient id="linear-gradient-6" x1="17.79" y1="23.28" x2="40.11" y2="23.28" xlink:href="#linear-gradient-2"/>
  </defs>
  <g class="cls-14">
    <g id="Layer_1" data-name="Layer 1">
      <g>
        <g class="cls-21">
          <circle class="cls-3" cx="40.94" cy="54.81" r="40.43" transform="translate(-19.65 86.57) rotate(-80.9)"/>
        </g>
        <g>
          <g>
            <g class="cls-11">
              <polygon class="cls-6" points="64.7 71.54 63.36 70.49 61.91 69.34 60.5 68.19 60.22 67.95 59.13 67.03 57.83 65.9 56.58 64.79 55.41 63.69 54.3 62.61 53.26 61.57 52.32 60.58 51.45 59.62 50.69 58.72 50.01 57.86 49.42 57.05 48.94 56.31 48.58 55.63 48.29 55.01 48.13 54.46 48.08 53.99 48.13 53.59 48.28 53.26 48.45 53.1 48.54 53.01 48.91 52.85 49.38 52.76 49.94 52.74 50.62 52.81 51.37 52.96 52.24 53.2 53.17 53.5 54.2 53.88 55.3 54.33 56.48 54.86 57.71 55.47 59.02 56.13 60.38 56.86 61.78 57.65 63.22 58.49 64.7 59.38 66.23 60.33 66.31 60.39 67.76 61.32 69.29 62.35 70.84 63.4 71.03 63.53 72.4 64.49 73.93 65.61 75.44 66.75 76.94 67.89 78.41 69.04 79.85 70.2 81.23 71.35 82.57 72.49 83.85 73.61 85.06 74.73 86.22 75.81 87.29 76.86 88.28 77.89 89.17 78.86 89.99 79.8 90.72 80.69 91.34 81.51 91.88 82.29 92.3 83 92.62 83.64 92.84 84.24 92.95 84.73 92.97 85.18 92.86 85.54 92.65 85.82 92.34 86.04 91.91 86.17 91.39 86.22 90.77 86.18 90.06 86.09 89.25 85.89 88.35 85.62 87.37 85.27 86.3 84.86 85.16 84.37 83.96 83.8 82.68 83.17 81.35 82.47 79.97 81.72 78.55 80.9 77.08 80.03 75.58 79.1 74.06 78.14 72.52 77.13 70.98 76.09 69.42 75.02 67.89 73.91 66.36 72.79 64.84 71.65 64.7 71.54"/>
            </g>
            <g class="cls-17">
              <polygon class="cls-23" points="89.89 26.55 89.96 26.89 89.94 27.25 89.86 27.64 89.68 28.09 89.43 28.55 89.1 29.06 88.69 29.59 88.22 30.15 87.65 30.72 87.02 31.32 86.33 31.95 85.59 32.57 84.77 33.22 83.91 33.86 82.98 34.52 82.01 35.18 81.01 35.84 79.95 36.5 78.88 37.14 77.77 37.79 76.63 38.42 75.48 39.02 74.32 39.6 73.15 40.17 73.13 40.18 72 40.72 70.82 41.23 69.67 41.71 68.55 42.17 67.92 42.41 67.43 42.58 66.34 42.96 65.28 43.31 64.28 43.62 63.28 43.89 62.37 44.1 61.49 44.29 60.66 44.42 59.91 44.52 59.2 44.57 58.57 44.57 57.99 44.52 57.49 44.42 57.08 44.29 56.74 44.1 56.48 43.87 56.29 43.61 56.18 43.31 56.16 42.96 56.21 42.57 56.34 42.16 56.56 41.7 56.86 41.21 57.22 40.69 57.66 40.14 58.17 39.59 58.77 38.99 59.43 38.38 60.16 37.75 60.93 37.13 61.77 36.48 62.68 35.82 63.61 35.17 64.07 34.87 64.61 34.51 65.65 33.84 66.7 33.2 67.81 32.55 68.9 31.93 68.93 31.92 70.07 31.3 71.22 30.71 72.38 30.14 73.55 29.57 74.72 29.05 75.87 28.53 77.01 28.07 78.14 27.63 79.24 27.23 80.31 26.87 81.35 26.54 82.34 26.26 83.3 26.01 84.2 25.81 85.05 25.64 85.84 25.55 86.58 25.47 87.24 25.45 87.85 25.48 88.38 25.55 88.84 25.66 89.22 25.81 89.51 26.02 89.75 26.26 89.89 26.55"/>
            </g>
            <path class="cls-7" d="m73.13,40.18c2.53,7.74,1.77,16.18-2.1,23.34h0s-.19-.12-.19-.12l-1.55-1.06-1.53-1.02-1.45-.94h0c2.85-5.56,3.42-12.01,1.6-17.98l.63-.23,1.12-.46,1.15-.48,1.18-.51,1.13-.54Z"/>
            <path class="cls-7" d="m68.9,31.93l-1.1.63-1.1.65-1.06.64-1.04.66-.54.36h0c-1.52-2.02-3.35-3.77-5.41-5.2l.07-.1.28-.35.26-.36.23-.35.23-.33.19-.31.19-.29.16-.3.13-.27.12-.27.08-.23.06-.2.03-.19.02-.17-.02-.13-.05-.12-.06-.1-.08-.05-.12-.05h-.15l-.16.02-.19.03-.22.08-.21.08-.25.14-.27.15-.29.17-.3.18-.3.23-.33.23-.33.25-.35.28-.35.3-.36.3-.21.19h0c-3.44-1.81-7.26-2.77-11.15-2.77v-.1s-.07-.81-.07-.81l-.07-.81-.06-.81-.1-.82-.1-.82-.12-.84-.1-.63h.02c9.68-.18,18.84,4.37,24.54,12.2Z"/>
            <path class="cls-9" d="m67.92,42.41c1.81,5.97,1.24,12.42-1.6,17.97h0s-.08-.05-.08-.05l-1.52-.95-1.48-.89-1.44-.84-1.4-.79-1.36-.73-1.31-.66-1.23-.61-1.18-.52-1.1-.45-1.02-.38-.94-.31-.86-.23-.76-.15-.68-.06-.56.02-.48.09-.36.16-.1.09h0s-5.18-6.24-5.18-6.24l13.03-3.25.19.27.26.23.35.19.41.13.5.1.57.05h.63l.71-.05.76-.1.82-.13.88-.19.92-.21.99-.27,1.01-.31,1.06-.35,1.09-.38.49-.18Z"/>
            <path class="cls-7" d="m63.36,70.49l1.34,1.05c-6.63,5.93-15.55,8.56-24.34,7.2l.02-.05.43-1.2.41-1.2.4-1.21.35-1.2.16-.59h.02c6.51.76,13.04-1.18,18.09-5.34l.28.23,1.4,1.15,1.45,1.15Z"/>
            <path class="cls-9" d="m64.07,34.87l-.45.3-.94.65-.91.66-.84.65-.77.63-.73.63-.66.6-.6.6-.51.56-.44.55-.36.52-.3.48-.22.46-.13.41-.05.4.02.35.11.3-13.03,3.25,7.47-11.02.1.07.11.03.14.02.16-.02.19-.05.21-.07.23-.1.25-.11.26-.15.28-.16.3-.2.31-.21.31-.23.35-.27.32-.26.36-.3.35-.31.36-.31.36-.33.36-.35.35-.36.36-.36.35-.36.35-.38.33-.36.31-.38.31-.36.23-.28c2.06,1.44,3.89,3.19,5.41,5.19h0Z"/>
            <polygon class="cls-13" points="60.7 25.83 60.71 25.96 60.7 26.13 60.66 26.32 60.6 26.52 60.52 26.75 60.4 27.01 60.27 27.28 60.11 27.58 59.92 27.87 59.73 28.18 59.49 28.51 59.26 28.86 59 29.22 58.72 29.57 58.65 29.67 58.42 29.95 58.11 30.31 57.79 30.69 57.46 31.05 57.12 31.43 56.77 31.8 56.41 32.16 56.06 32.52 55.7 32.87 55.33 33.2 54.97 33.51 54.62 33.83 54.26 34.13 53.94 34.38 53.59 34.65 53.28 34.88 52.96 35.09 52.66 35.3 52.38 35.46 52.12 35.61 51.87 35.72 51.64 35.82 51.43 35.89 51.25 35.94 51.08 35.96 50.95 35.94 50.83 35.91 50.74 35.84 50.67 35.76 50.62 35.64 50.62 35.51 50.62 35.34 50.65 35.15 50.72 34.95 50.8 34.7 50.92 34.46 51.05 34.19 51.21 33.89 51.4 33.59 51.59 33.28 51.83 32.93 52.07 32.61 52.33 32.24 52.62 31.88 52.9 31.51 53.21 31.15 53.54 30.77 53.87 30.41 54.2 30.03 54.56 29.67 54.91 29.3 55.27 28.94 55.63 28.59 55.98 28.26 56.12 28.14 56.13 28.14 56.34 27.94 56.7 27.64 57.05 27.35 57.4 27.06 57.73 26.81 58.06 26.59 58.36 26.35 58.66 26.18 58.95 26.01 59.21 25.86 59.46 25.72 59.67 25.64 59.89 25.56 60.08 25.53 60.24 25.51 60.38 25.51 60.5 25.56 60.58 25.61 60.65 25.71 60.7 25.83"/>
            <path class="cls-9" d="m59.13,67.03l1.09.92c-5.05,4.16-11.58,6.1-18.09,5.34h-.02l.17-.61.31-1.18.27-1.17.23-1.12.19-1.09.17-1.06.11-1.02.1-.96.05-.9v-.84l-.02-.77-.06-.73-.11-.64-.14-.56-.18-.49-.22-.41-.24-.33-.28-.23-.31-.16,1.1-12.14,5.18,6.23h0s-.17.17-.17.17l-.15.33-.05.4.05.48.17.55.28.62.36.68.48.74.6.81.68.86.76.9.87.96.94.99,1.04,1.04,1.1,1.07,1.17,1.1,1.25,1.1,1.31,1.14Z"/>
            <path class="cls-9" d="m56.12,28.14l-.14.13-.35.33-.36.35-.36.36-.35.36-.36.36-.33.38-.33.36-.32.38-.31.36-.28.36-.28.36-.27.37-.24.32-.23.35-.19.31-.19.3-.16.3-.14.27-.11.24-.08.25-.07.2-.03.19v.3l.05.11.07.08-7.47,11.02-1.53-8h0s.08-.02.08-.02l.23-.06.24-.1.23-.15.22-.19.21-.21.2-.25.19-.28.2-.31.16-.34.17-.39.16-.41.15-.44.13-.46.13-.52.12-.52.1-.56.08-.57.08-.61.07-.63.06-.65.03-.68.03-.69.02-.73.02-.73-.02-.76-.02-.76-.03-.78-.02-.69c3.89,0,7.71.96,11.15,2.77Z"/>
            <polygon class="cls-13" points="45.04 27.6 45.06 28.35 45.04 29.08 45.03 29.8 45 30.5 44.96 31.18 44.9 31.83 44.83 32.46 44.75 33.07 44.67 33.64 44.57 34.21 44.45 34.73 44.32 35.25 44.19 35.71 44.04 36.15 43.88 36.56 43.71 36.95 43.55 37.29 43.34 37.6 43.15 37.88 42.95 38.13 42.74 38.34 42.52 38.53 42.29 38.67 42.05 38.78 41.81 38.84 41.73 38.85 41.56 38.88 41.3 38.88 41.04 38.84 40.77 38.78 40.51 38.66 40.23 38.51 39.97 38.33 40.03 38 40.09 37.39 40.11 36.71 40.06 35.99 39.98 35.2 39.83 34.34 39.65 33.43 39.4 32.49 39.1 31.5 38.78 30.47 38.38 29.41 37.97 28.32 37.49 27.2 36.98 26.05 36.43 24.92 35.85 23.76 35.23 22.61 34.59 21.46 33.93 20.3 33.23 19.18 32.52 18.06 32.35 17.79 32.24 16.97 32.16 16.15 32.08 15.34 32.03 14.52 31.98 13.73 31.95 12.94 31.92 12.19 31.89 11.43 31.89 10.69 31.92 9.96 31.95 9.25 31.98 8.56 32.03 7.9 32.1 7.25 32.16 6.63 32.24 6.03 32.35 5.45 32.46 4.91 32.57 4.4 32.71 3.92 32.84 3.46 33.01 3.03 33.15 2.63 33.33 2.27 33.51 1.95 33.72 1.65 33.91 1.38 34.11 1.15 34.34 .95 34.55 .78 34.78 .67 35.03 .57 35.28 .53 35.53 .51 35.79 .53 36.05 .59 36.32 .67 36.58 .8 36.86 .97 37.14 1.16 37.43 1.4 37.71 1.66 37.98 1.96 38.26 2.31 38.55 2.67 38.84 3.07 39.13 3.49 39.4 3.95 39.68 4.45 39.97 4.96 40.25 5.5 40.51 6.08 40.79 6.68 41.05 7.3 41.3 7.94 41.56 8.62 41.81 9.32 42.06 10.02 42.29 10.75 42.52 11.49 42.74 12.25 42.95 13.02 43.17 13.8 43.34 14.6 43.55 15.4 43.71 16.23 43.89 17.03 44.04 17.86 44.19 18.7 44.32 19.52 44.35 19.73 44.45 20.35 44.57 21.19 44.67 22.02 44.76 22.84 44.83 23.65 44.9 24.46 44.96 25.26 44.97 25.36 45 26.05 45.03 26.84 45.04 27.6"/>
            <polygon class="cls-13" points="43.72 63.34 43.72 64.18 43.67 65.08 43.58 66.04 43.46 67.07 43.3 68.12 43.1 69.21 42.87 70.33 42.6 71.5 42.29 72.68 42.12 73.29 41.96 73.88 41.61 75.08 41.21 76.29 40.8 77.49 40.38 78.69 40.36 78.74 39.92 79.88 39.43 81.06 38.94 82.19 38.45 83.3 37.92 84.35 37.39 85.39 36.86 86.36 36.34 87.29 35.79 88.14 35.26 88.96 34.73 89.7 34.21 90.36 33.69 90.95 33.2 91.46 32.72 91.91 32.26 92.26 31.81 92.54 31.39 92.71 30.99 92.81 30.61 92.83 30.28 92.75 29.97 92.6 29.68 92.35 29.44 92.02 29.22 91.61 29.05 91.13 28.91 90.55 28.8 89.91 28.73 89.2 28.72 88.43 28.72 87.57 28.77 86.66 28.86 85.71 28.97 84.7 29.14 83.64 29.34 82.55 29.57 81.42 29.84 80.26 30.14 79.07 30.47 77.89 30.83 76.68 31.14 75.7 31.22 75.46 31.64 74.26 32.06 73.06 32.52 71.88 33.01 70.71 33.14 70.37 33.48 69.57 33.99 68.47 34.51 67.4 35.03 66.37 35.58 65.4 36.1 64.48 36.65 63.6 37.18 62.79 37.71 62.07 38.23 61.39 38.74 60.82 39.24 60.28 39.72 59.86 40.17 59.49 40.63 59.23 41.05 59.05 41.45 58.95 41.81 58.93 42.16 59 42.47 59.16 42.75 59.4 43 59.73 43.21 60.14 43.39 60.63 43.53 61.2 43.64 61.83 43.71 62.57 43.72 63.34"/>
            <polygon class="cls-9" points="41.73 38.86 43.26 46.86 38.96 39.95 39.26 39.71 39.52 39.4 39.73 39 39.92 38.55 39.97 38.33 40.23 38.51 40.51 38.66 40.77 38.78 41.04 38.84 41.3 38.88 41.56 38.88 41.73 38.85 41.73 38.86"/>
            <path class="cls-9" d="m38.96,39.95l4.31,6.91-8.35,5.99-.11-.15-.3-.28-.4-.23-.47-.22-.54-.19-.61-.15-.69-.13-.76-.08-.84-.07-.88-.03-.95.02-.99.03-1.06.07-1.09.1-1.12.13-1.15.17-1.19.19-.73.13c-.84-7.35,1.75-14.69,7.03-19.88l.31.4.76.94.76.9.76.84.74.79.74.73.73.66.71.6.68.52.66.44.63.38.59.31.58.23.52.15.5.07h.44l.41-.09.36-.16.02-.02Z"/>
            <path class="cls-9" d="m43.26,46.86l-1.1,12.14-.35-.07-.36.02-.4.1-.43.18-.45.27-.46.36-.48.43-.5.53-.51.57-.52.68-.53.73-.52.81-.55.88-.52.92-.55.98-.52,1.02-.52,1.07-.51,1.1-.34.8c-3.88-2.19-7.07-5.39-9.23-9.28l.23-.08,1.12-.41,1.09-.43,1.04-.43,1.01-.45.94-.46.89-.46.82-.46.76-.47.69-.46.61-.44.54-.44.47-.45.38-.43.3-.41.21-.41.13-.38.06-.36-.06-.35-.13-.31-.1-.15,8.35-5.99Z"/>
            <g class="cls-18">
              <polygon class="cls-12" points="28.06 32.26 27.61 31.67 26.85 30.64 26.1 29.59 25.38 28.5 24.79 27.59 24.67 27.39 23.98 26.26 23.31 25.12 22.66 23.97 22.05 22.81 21.48 21.65 20.93 20.5 20.42 19.38 19.94 18.26 19.51 17.17 19.13 16.1 18.78 15.07 18.5 14.08 18.26 13.13 18.07 12.22 17.93 11.38 17.83 10.58 17.79 9.84 17.81 9.17 17.88 8.57 17.99 8.03 18.15 7.57 18.39 7.17 18.65 6.84 18.97 6.61 19.33 6.44 19.74 6.36 20.19 6.35 20.68 6.43 21.21 6.57 21.77 6.81 22.38 7.11 23.01 7.49 23.67 7.94 24.35 8.48 25.06 9.07 25.78 9.73 26.51 10.45 27.27 11.23 28.01 12.07 28.78 12.96 29.54 13.9 30.3 14.89 31.04 15.91 31.78 16.97 32.35 17.79 32.52 18.06 33.23 19.18 33.93 20.3 34.59 21.46 35.23 22.61 35.85 23.76 36.43 24.92 36.98 26.05 37.49 27.2 37.97 28.32 38.38 29.41 38.78 30.47 39.1 31.5 39.4 32.49 39.65 33.43 39.83 34.34 39.98 35.2 40.06 35.99 40.11 36.71 40.09 37.39 40.03 38 39.97 38.33 39.92 38.55 39.73 39 39.52 39.4 39.26 39.71 38.96 39.95 38.94 39.96 38.58 40.13 38.17 40.21 37.72 40.21 37.22 40.14 36.7 40 36.12 39.76 35.53 39.45 34.9 39.07 34.24 38.63 33.56 38.1 32.85 37.5 32.13 36.84 31.39 36.12 30.64 35.33 29.89 34.49 29.13 33.59 28.37 32.66 28.06 32.26"/>
            </g>
            <polygon class="cls-13" points="35.14 53.31 35.2 53.66 35.14 54.02 35.01 54.4 34.8 54.81 34.51 55.22 34.13 55.65 33.66 56.1 33.12 56.54 32.51 56.99 31.81 57.45 31.06 57.91 30.23 58.37 29.34 58.83 28.4 59.29 27.39 59.74 26.35 60.17 25.27 60.6 24.14 61.01 23.91 61.09 22.98 61.4 21.81 61.78 20.6 62.15 19.38 62.49 18.4 62.74 18.15 62.81 16.94 63.09 15.72 63.36 14.51 63.6 13.31 63.8 12.14 63.98 11 64.13 9.9 64.24 8.82 64.34 7.8 64.4 6.82 64.41 5.92 64.4 5.06 64.36 4.25 64.28 3.53 64.16 2.88 64.03 2.28 63.85 1.79 63.65 1.37 63.42 1.02 63.17 .77 62.89 .59 62.58 .51 62.25 .51 61.89 .59 61.53 .75 61.13 1.02 60.71 1.35 60.28 1.78 59.86 2.27 59.41 2.87 58.97 3.51 58.5 4.24 58.04 5.03 57.58 5.88 57.12 6.81 56.66 7.78 56.21 8.81 55.77 9.87 55.33 10.99 54.91 12.12 54.51 13.29 54.12 14.48 53.75 15.52 53.45 15.69 53.41 16.9 53.08 18.14 52.78 19.36 52.5 20.56 52.24 21.03 52.15 21.77 52.02 22.96 51.83 24.11 51.66 25.23 51.53 26.32 51.43 27.38 51.36 28.37 51.33 29.32 51.31 30.2 51.34 31.04 51.41 31.8 51.49 32.49 51.62 33.1 51.78 33.64 51.97 34.11 52.19 34.51 52.41 34.8 52.7 34.92 52.85 35.01 52.99 35.14 53.31"/>
            <path class="cls-7" d="m33.14,70.37l-.14.34-.48,1.17-.46,1.18-.43,1.2-.41,1.2-.08.24c-5.5-2.88-9.96-7.42-12.74-12.96l.98-.25,1.22-.35,1.21-.36,1.17-.38.94-.31c2.16,3.89,5.35,7.1,9.23,9.28Z"/>
            <path class="cls-7" d="m27.61,31.67l.45.6c-5.28,5.19-7.87,12.53-7.03,19.88l-.47.09-1.2.27-1.23.27-1.23.3-1.22.33-.17.05h0c-1.32-9.63,2.14-19.28,9.27-25.87l.59.91.73,1.09.75,1.06.76,1.02Z"/>
          </g>
          <g>
            <path class="cls-25" d="m21.03,52.66c-.26,0-.48-.19-.51-.45-.86-7.57,1.75-14.97,7.18-20.31.2-.2.53-.2.73,0,.2.2.2.52,0,.72h0c-5.2,5.12-7.71,12.22-6.88,19.47.03.28-.17.53-.45.57-.02,0-.04,0-.06,0Z"/>
            <path class="cls-25" d="m33.14,70.88c-.08,0-.17-.02-.25-.07-3.96-2.23-7.22-5.51-9.43-9.48-.14-.25-.05-.56.2-.7.25-.14.56-.05.7.2,2.12,3.8,5.24,6.94,9.04,9.08.25.14.33.45.19.7-.09.17-.27.26-.45.26Z"/>
            <path class="cls-25" d="m44.88,73.96c-.93,0-1.87-.05-2.8-.16-.28-.03-.48-.29-.45-.57.03-.28.29-.48.57-.45,6.33.74,12.78-1.17,17.7-5.22.21-.17.52-.15.71.05.18.2.18.51-.01.7-4.45,3.67-10.04,5.65-15.71,5.65Z"/>
            <path class="cls-25" d="m66.32,60.89c-.08,0-.16-.02-.23-.06-.25-.13-.35-.44-.22-.69,2.8-5.47,3.36-11.71,1.57-17.59-.08-.27.07-.56.34-.64.27-.08.56.07.64.34,1.86,6.13,1.28,12.65-1.64,18.36-.09.18-.27.28-.46.28Z"/>
            <path class="cls-25" d="m64.06,35.37c-.15,0-.31-.07-.41-.2-1.48-1.96-3.26-3.67-5.29-5.08-.23-.16-.29-.48-.13-.71.16-.23.48-.29.71-.13,2.13,1.48,3.98,3.26,5.53,5.3.17.23.13.55-.1.72-.09.07-.2.1-.31.1Z"/>
            <path class="cls-25" d="m56.12,28.65c-.08,0-.16-.02-.24-.06-3.36-1.77-7.13-2.71-10.91-2.71-.28,0-.51-.23-.51-.51,0-.28.23-.51.51-.51h0c3.95,0,7.89.99,11.39,2.83.25.13.35.44.21.69-.09.17-.27.27-.45.27Z"/>
            <path class="cls-25" d="m15.52,53.96c-.25,0-.47-.19-.51-.44-1.34-9.77,2.18-19.6,9.43-26.3.2-.19.53-.18.72.02.19.2.19.52,0,.71h0c-7.02,6.5-10.43,16-9.13,25.44.04.28-.16.54-.44.58-.02,0-.05,0-.07,0Z"/>
            <path class="cls-25" d="m31.14,76.21c-.08,0-.16-.02-.24-.06-5.63-2.95-10.11-7.5-12.96-13.18-.13-.25-.02-.56.23-.69.25-.13.56-.02.69.23,2.75,5.49,7.08,9.89,12.52,12.73.25.13.35.44.22.69-.09.17-.27.27-.45.27Z"/>
            <path class="cls-25" d="m44.95,79.61c-1.55,0-3.11-.12-4.67-.36-.28-.04-.47-.3-.43-.58.04-.28.31-.47.58-.43,8.67,1.34,17.38-1.23,23.92-7.08.04-.03.08-.06.12-.08.19-.1.43-.07.59.08.21.19.22.52.02.72-.02.03-.05.05-.08.07-5.58,4.98-12.7,7.65-20.05,7.65Z"/>
            <path class="cls-25" d="m71.03,64.04c-.08,0-.17-.02-.24-.06-.25-.13-.34-.44-.21-.69,3.78-7.01,4.54-15.37,2.06-22.94-.09-.27.06-.56.33-.64.27-.09.56.06.64.33,2.56,7.83,1.79,16.49-2.13,23.75-.09.17-.27.27-.45.27Z"/>
            <path class="cls-25" d="m68.9,32.44c-.16,0-.31-.07-.41-.21-5.59-7.68-14.6-12.18-24.11-11.99-.32,0-.52-.22-.52-.5,0-.28.22-.52.5-.52,9.84-.17,19.17,4.46,24.96,12.41.17.23.12.55-.11.71-.09.07-.2.1-.3.1Z"/>
            <path class="cls-25" d="m41.3,39.39l-.65-.11-.66-.31-.32-.22c-.23-.16-.29-.48-.13-.71.16-.23.48-.29.71-.13l.73.41.38.05.29-.02s.1-.01.1-.01l.33-.13.32-.25.35-.39.49-.83.46-1.19.36-1.45.38-2.97.09-2.78-.09-2.96-.4-4.13-.67-4.13-1.36-5.49-1.45-4.15-1.07-2.29-1.09-1.85-1.09-1.34-.76-.62-.48-.26-.59-.11-.37.06-.34.17-.49.47-.53.81-.46,1.13-.47,1.91-.31,2.39-.14,2.76.19,4.6.26,2.42c.04.28-.16.54-.44.57-.28.03-.54-.16-.57-.44l-.27-2.47-.19-4.7.27-4.11.42-2.29.6-1.83.4-.77.65-.88.52-.43.61-.28.65-.1.32.02.65.17.65.35.63.47.61.61.89,1.14,1.16,1.96.84,1.74,1.29,3.4,1.11,3.81,1.03,4.95.58,4.17.2,2.45s0,.11,0,.12l.09,3-.1,2.86-.4,3.09-.39,1.55-.68,1.66-.66.95-.49.46-.6.33-.3.09s-.14.02-.17.02l-.48.03Z"/>
            <path class="cls-25" d="m59.2,45.08l-1.24-.05-1.02-.26-.44-.22s-.07-.04-.09-.07l-.26-.23s-.06-.06-.08-.09l-.19-.27s-.04-.07-.06-.11l-.11-.3c-.02-.05-.03-.1-.03-.16l-.02-.35.05-.48.15-.5.24-.53.7-1.08.99-1.16,1.29-1.23,1.52-1.28,1.77-1.32,1.94-1.32,3.23-1.97,1.1-.63s.06-.03.1-.04l2.24-1.19,4.68-2.19,3.41-1.31,3.13-.99,2.75-.62,1.58-.18.7-.02,1.21.1.52.12.45.18s.07.03.1.06l.3.21.3.29s.07.09.1.14l.14.3s.03.08.04.12l.06.33s.01.08,0,.12l-.02.36-.09.47-.2.53-.62,1.06-.93,1.14-1.23,1.21-1.46,1.27-1.7,1.31-2.93,2-3.26,1.96-3.48,1.83-2.33,1.13-4.62,1.88-3.17,1.05-2.84.67-1.62.24-.74.05s-.02,0-.03,0Zm-2.17-1.4l.3.16.77.18.51.04,1.26-.05,1.54-.23,1.76-.39,1.96-.57,3.24-1.13,3.43-1.44,4.59-2.29,3.3-1.9,3.01-1.96,2.58-1.93,1.41-1.23,1.17-1.15.85-1.05.53-.9.15-.39.06-.52-.12-.37-.35-.29-.33-.13-.39-.09-1.04-.08-.62.02-1.48.17-1.71.36-1.91.52-3.19,1.08-2.25.9-4.62,2.16-2.27,1.2s-.03.01-.05.02l-3.21,1.89-2.94,1.96-1.73,1.29-1.48,1.24-1.23,1.18-.92,1.06-.62.95-.19.41-.1.34-.03.3v.17s.19.33.19.33l.17.15Z"/>
            <path class="cls-25" d="m6.82,64.92h0l-1.78-.06-1.59-.2-.67-.13-1.18-.4-.49-.26-.4-.28s-.06-.05-.08-.08l-.25-.28-.24-.39s-.04-.09-.05-.14l-.08-.33s-.01-.08-.01-.12v-.36s0-.07.01-.11l.08-.36.19-.48.31-.5.36-.47.98-.94,1.28-.95,1.56-.95,1.81-.94,3.1-1.34,3.45-1.23,3.64-1.05,4.91-1.07,2.36-.36,3.31-.3,1.97-.05,1.77.11.77.08,1.38.29.59.21.94.48s.07.04.1.07l.58.67.18.4s.03.07.03.11l.06.35c0,.05,0,.11,0,.16l-.06.36-.15.47-.24.48-.34.48-.41.47-.5.48-1.21.93-1.48.95-1.75.94-1.97.92-3.53,1.36-3.33,1.06-2.46.67-3.67.8-3.54.54-3.24.27-1,.02h0Zm-5.47-2.14l.31.22.37.2.99.34,1.3.22,1.61.12.88.02,1.97-.07,3.27-.36,2.35-.38,3.85-.85,2.18-.59,3.52-1.13,3.22-1.26,1.91-.9,1.69-.91,1.42-.91,1.11-.86.79-.82.27-.37.27-.66.02-.19-.04-.22-.25-.45-.19-.17-.78-.4-.5-.18-1.23-.26-1.55-.15-.85-.03-1.91.05-3.22.3-3.51.58-3.64.83-3.58,1.03-3.39,1.21-3.04,1.31-1.75.91-1.49.9-1.21.89-.86.82-.53.76-.16.53.05.45.28.39Z"/>
            <path class="cls-25" d="m91.39,86.73s-.02,0-.03,0l-.62-.03-.75-.1-1.79-.48-2.09-.77-2.37-1.07-2.62-1.34-2.82-1.58-2.98-1.81-4.62-3.03-3.1-2.19-3.21-2.38-4.49-3.6-3.66-3.17-3.34-3.24-1.83-1.97-1.46-1.79-.61-.82-.49-.77-.68-1.36-.19-.61-.07-.58s0-.08,0-.11l.05-.4c0-.05.02-.1.04-.15l.15-.33c.03-.06.06-.11.11-.15l.27-.26s.09-.07.14-.09l.36-.16s.07-.03.11-.04l.48-.09.63-.02.74.07.81.16.9.24,2,.7,2.31.99,3.93,2.02,2.86,1.64,3.02,1.85s.1.07.1.07l4.72,3.14,2.91,2.09,4.5,3.44,4.18,3.46,3.66,3.33,2.08,2.1,1.73,1.93,1.38,1.74.55.8.44.74.34.68.24.64.13.57.03.53c0,.05,0,.11-.02.16l-.1.36c-.02.06-.04.11-.08.16l-.21.28s-.07.08-.12.12l-.31.22s-.09.05-.14.07l-.43.13-.62.07s-.03,0-.05,0Zm-42.8-32.74l.04.42.15.45.61,1.21.45.71,1.25,1.63,1.61,1.83,1.97,2.01,2.26,2.17,3.9,3.37,4.33,3.46,4.57,3.35,4.62,3.11,3.01,1.89,2.87,1.68,2.7,1.44,2.46,1.19,2.17.89,1.84.6.79.2,1.2.11.48-.05.24-.08.19-.13.1-.14.06-.19v-.36s-.11-.4-.11-.4l-.2-.52-.3-.6-.41-.67-1.13-1.55-1.53-1.8-1.86-1.98-3.41-3.23-3.99-3.39-2.89-2.31-4.53-3.38-4.62-3.16-1.44-.93s-.09-.06-.1-.07l-4.41-2.66-2.75-1.51-2.53-1.27-2.25-.96-1.93-.67-1.56-.37-.63-.06-.49.02-.33.07-.36.22-.08.17-.03.26Z"/>
            <path class="cls-25" d="m30.61,93.34s-.08,0-.12-.01l-.33-.08-.41-.18s-.09-.05-.12-.08l-.28-.25s-.05-.05-.07-.08l-.24-.33-.26-.47-.2-.54-.28-1.32-.07-.75-.02-1.68.15-1.91.11-1.01.37-2.18.5-2.32.64-2.4,1.18-3.66.89-2.4,1.48-3.44,1.05-2.12,1.64-2.81.53-.81,1.08-1.44,1.04-1.14.99-.84.51-.31.49-.21.46-.13s.07-.01.11-.02l.36-.02s.09,0,.13.01l.35.07s.09.02.13.05l.31.16s.06.04.09.06l.28.23s.06.06.09.09l.24.33.26.47.21.56.27,1.29.07.78.02,1.66-.15,1.91-.11,1.03-.37,2.18-.5,2.31-1,3.61-1.24,3.64-1.45,3.53-.49,1.11-1.61,3.1-.53.93-1.63,2.46-1.07,1.29-1,1-.98.69-.51.22-.47.12-.48.03s-.01,0-.02,0Zm-.36-1.17l.4.14h.32s.3-.1.3-.1l.35-.15.8-.57.9-.9,1.01-1.21,1.03-1.52.55-.85,1.04-1.87,1.05-2.08,1.45-3.38.88-2.36.8-2.4.98-3.55.49-2.26.36-2.12.25-2.83-.02-1.58-.06-.7-.24-1.13-.16-.44-.35-.56-.4-.26-.22-.05h-.24s-.34.1-.34.1l-.36.16-.39.23-.85.73-.97,1.06-1.03,1.37-1.05,1.65-1.58,2.88-1.48,3.27-.94,2.34-1.22,3.6-.69,2.37-.79,3.45-.36,2.12-.21,1.93-.05.89.02,1.59.06.67.24,1.15.16.41.36.57.19.17Z"/>
            <path class="cls-25" d="m34.92,53.36c-.16,0-.32-.07-.42-.21-.16-.23-.11-.55.12-.71l8.08-5.8-1.47-7.68c-.05-.28.13-.55.41-.6.28-.05.55.13.6.41l1.53,8c.04.2-.04.4-.2.51l-8.35,5.99c-.09.07-.19.1-.3.1Z"/>
            <path class="cls-25" d="m42.16,59.51s-.03,0-.05,0c-.28-.03-.49-.27-.46-.56l1.1-12.14c.02-.21.16-.38.36-.44.2-.06.41,0,.55.16l5.18,6.23c.18.22.15.54-.07.72-.22.18-.54.15-.72-.07l-4.39-5.28-.99,10.91c-.02.27-.25.46-.51.46Z"/>
            <path class="cls-25" d="m43.26,47.37c-.23,0-.44-.16-.5-.39-.07-.27.1-.55.37-.62l13.03-3.25c.27-.07.55.1.62.37.07.27-.1.55-.37.62l-13.03,3.25s-.08.02-.12.02Z"/>
            <path class="cls-25" d="m38.17,40.73h-.44l-.57-.08-.59-.16-.63-.25-1.29-.73-.68-.46-1.43-1.15-1.5-1.41-1.52-1.65-2.3-2.86-1.52-2.09-1.45-2.22-2.02-3.45-1.2-2.34-1.55-3.42-.82-2.19-.35-1.03-.54-1.98-.34-1.79-.1-.82-.04-.78.02-.71.2-1.24.18-.53.28-.49.31-.39s.06-.06.09-.09l.31-.23s.06-.04.1-.06l.36-.16s.07-.03.11-.03l.41-.08.52-.03.59.09.58.16,1.26.57.67.4.69.48,1.42,1.15,1.49,1.42.76.78,1.54,1.75,1.54,1.95,2.25,3.2,1.41,2.26,1.94,3.49,1.14,2.31.99,2.29.82,2.16.89,3.02.34,1.81.14,1.57v.72s-.2,1.25-.2,1.25l-.21.54-.23.44s-.04.06-.06.09l-.27.31s-.05.05-.07.07l-.3.23s-.07.06-.12.08l-.36.16s-.07.02-.1.03l-.41.09s-.07.01-.11.01ZM19.01,7.21l-.23.28-.19.34-.12.37-.16,1.04v.62s.03.7.03.7l.24,1.58.42,1.82.28.98.72,2.07.9,2.18,1.62,3.4,1.25,2.29,2.06,3.35,1.46,2.13,1.5,2,1.5,1.81,1.48,1.61,1.44,1.36,1.35,1.09,1.24.79.57.3.53.21.47.13.44.06h.31s.31-.07.31-.07l.26-.12.22-.17.2-.23.37-.89.12-.88v-.64s-.11-1.45-.11-1.45l-.32-1.72-.86-2.91-1.27-3.22-1.05-2.26-1.19-2.29-1.3-2.3-2.12-3.29-1.48-2.07-1.5-1.91-1.5-1.72-1.46-1.48-1.4-1.22-1.3-.97-.6-.36-1.1-.5-.91-.19-.61.08-.26.12-.22.16Z"/>
            <path class="cls-25" d="m43.26,47.37h-.01c-.17,0-.33-.09-.42-.24l-4.31-6.91c-.15-.24-.08-.56.16-.7.24-.15.55-.08.7.16l3.89,6.24,6.85-10.11c-.02-.05-.03-.11-.03-.17l.04-.58.45-1.11.8-1.31,2.41-2.95,1.97-1.94s.03-.03.05-.04l1.58-1.31,1.8-1.13.77-.25.39-.02c.07,0,.13.01.19.04l.12.05s.13.07.15.08c.06.04.12.09.16.15l.06.1s.04.06.05.09l.05.12s.03.08.03.13l.02.13s0,.07,0,.11l-.05.4-.44,1.1-.56.95-1.98,2.57-2.51,2.56-2.73,2.14-1.35.66-.46.09s-.08,0-.11,0h-.09s-7.25,10.68-7.25,10.68c-.1.14-.25.22-.42.22Zm13.15-18.81l-1.85,1.83-2.54,3.17-.9,1.86h0s.35-.09.35-.09l.94-.49,1.89-1.42,3.12-3.09,2.26-3.04.52-1.27-.34.09-.66.33-1.48,1.02-1.23,1.04s-.04.04-.07.05Z"/>
          </g>
        </g>
      </g>
    </g>
  </g>
</svg>