<?xml version="1.0" encoding="UTF-8"?>
<svg xmlns="http://www.w3.org/2000/svg" xmlns:xlink="http://www.w3.org/1999/xlink" viewBox="0 0 242.51 228.55">
  <defs>
    <style>
      .cls-1 {
        fill: url(#radial-gradient-6);
      }

      .cls-1, .cls-2, .cls-3, .cls-4, .cls-5, .cls-6, .cls-7 {
        mix-blend-mode: multiply;
      }

      .cls-8 {
        filter: url(#luminosity-noclip-7);
      }

      .cls-9 {
        filter: url(#luminosity-noclip-5);
      }

      .cls-10 {
        fill: url(#radial-gradient-8);
      }

      .cls-11 {
        mask: url(#mask-2);
      }

      .cls-12 {
        fill: url(#radial-gradient-4);
      }

      .cls-13 {
        isolation: isolate;
      }

      .cls-14 {
        mask: url(#mask-3);
      }

      .cls-2 {
        fill: url(#radial-gradient-9);
      }

      .cls-3 {
        fill: url(#radial-gradient-5);
      }

      .cls-4 {
        fill: url(#radial-gradient);
      }

      .cls-15 {
        mask: url(#mask-9);
      }

      .cls-16 {
        mask: url(#mask-5);
      }

      .cls-17 {
        filter: url(#luminosity-noclip-9);
      }

      .cls-18 {
        mask: url(#mask-8);
      }

      .cls-19 {
        mask: url(#mask-4);
      }

      .cls-20 {
        fill: url(#radial-gradient-2);
      }

      .cls-21 {
        mask: url(#mask-6);
      }

      .cls-22 {
        filter: url(#luminosity-noclip);
      }

      .cls-23 {
        mask: url(#mask-1);
      }

      .cls-24 {
        mask: url(#mask);
      }

      .cls-25 {
        mask: url(#mask-7);
      }

      .cls-5 {
        fill: url(#radial-gradient-10);
      }

      .cls-6 {
        fill: url(#radial-gradient-3);
      }

      .cls-7 {
        fill: url(#radial-gradient-7);
      }

      .cls-26 {
        filter: url(#luminosity-noclip-3);
      }
    </style>
    <filter id="luminosity-noclip" x="61.07" y="23.69" width="170" height="165.93" color-interpolation-filters="sRGB" filterUnits="userSpaceOnUse">
      <feFlood flood-color="#fff" result="bg"/>
      <feBlend in="SourceGraphic" in2="bg"/>
    </filter>
    <filter id="luminosity-noclip-2" x="61.07" y="-8305.37" width="170" height="32766" color-interpolation-filters="sRGB" filterUnits="userSpaceOnUse">
      <feFlood flood-color="#fff" result="bg"/>
      <feBlend in="SourceGraphic" in2="bg"/>
    </filter>
    <mask id="mask-1" x="61.07" y="-8305.37" width="170" height="32766" maskUnits="userSpaceOnUse"/>
    <radialGradient id="radial-gradient" cx="1701.7" cy="1099.17" fx="1701.7" fy="1099.17" r="79.27" gradientTransform="translate(1925.19 1286.04) rotate(180) scale(1.05 1.07)" gradientUnits="userSpaceOnUse">
      <stop offset="0" stop-color="#fff"/>
      <stop offset=".28" stop-color="#fcfcfc"/>
      <stop offset=".42" stop-color="#f5f5f5"/>
      <stop offset=".52" stop-color="#e7e7e7"/>
      <stop offset=".61" stop-color="#d5d5d5"/>
      <stop offset=".69" stop-color="#bdbdbd"/>
      <stop offset=".77" stop-color="#9f9f9f"/>
      <stop offset=".84" stop-color="#7b7b7b"/>
      <stop offset=".9" stop-color="#525252"/>
      <stop offset=".96" stop-color="#242424"/>
      <stop offset="1" stop-color="#000"/>
    </radialGradient>
    <mask id="mask" x="61.07" y="23.69" width="170" height="165.93" maskUnits="userSpaceOnUse">
      <g class="cls-22">
        <g class="cls-23">
          <ellipse class="cls-4" cx="146.07" cy="106.66" rx="82.88" ry="85.06" transform="translate(14.6 230.87) rotate(-79.51)"/>
        </g>
      </g>
    </mask>
    <radialGradient id="radial-gradient-2" cx="1701.7" cy="1099.17" fx="1701.7" fy="1099.17" r="79.27" gradientTransform="translate(1925.19 1286.04) rotate(180) scale(1.05 1.07)" gradientUnits="userSpaceOnUse">
      <stop offset="0" stop-color="#0e0e0e"/>
      <stop offset=".28" stop-color="#101010"/>
      <stop offset=".42" stop-color="#171717"/>
      <stop offset=".53" stop-color="#252525"/>
      <stop offset=".62" stop-color="#373737"/>
      <stop offset=".71" stop-color="#4f4f4f"/>
      <stop offset=".78" stop-color="#6d6d6d"/>
      <stop offset=".85" stop-color="#919191"/>
      <stop offset=".91" stop-color="#bababa"/>
      <stop offset=".97" stop-color="#e8e8e8"/>
      <stop offset="1" stop-color="#fff"/>
    </radialGradient>
    <filter id="luminosity-noclip-3" x="65.46" y="0" width="170" height="165.93" color-interpolation-filters="sRGB" filterUnits="userSpaceOnUse">
      <feFlood flood-color="#fff" result="bg"/>
      <feBlend in="SourceGraphic" in2="bg"/>
    </filter>
    <filter id="luminosity-noclip-4" x="65.46" y="-8305.37" width="170" height="32766" color-interpolation-filters="sRGB" filterUnits="userSpaceOnUse">
      <feFlood flood-color="#fff" result="bg"/>
      <feBlend in="SourceGraphic" in2="bg"/>
    </filter>
    <mask id="mask-3" x="65.46" y="-8305.37" width="170" height="32766" maskUnits="userSpaceOnUse"/>
    <radialGradient id="radial-gradient-3" cx="1678.66" cy="1099.17" fx="1678.66" fy="1099.17" r="79.27" gradientTransform="translate(1905.48 1262.35) rotate(180) scale(1.05 1.07)" gradientUnits="userSpaceOnUse">
      <stop offset="0" stop-color="#fff"/>
      <stop offset=".19" stop-color="#fcfcfc"/>
      <stop offset=".32" stop-color="#f3f3f3"/>
      <stop offset=".44" stop-color="#e3e3e3"/>
      <stop offset=".55" stop-color="#cdcdcd"/>
      <stop offset=".65" stop-color="#b1b1b1"/>
      <stop offset=".74" stop-color="#8e8e8e"/>
      <stop offset=".83" stop-color="#646464"/>
      <stop offset=".92" stop-color="#363636"/>
      <stop offset="1" stop-color="#010101"/>
      <stop offset="1" stop-color="#000"/>
    </radialGradient>
    <mask id="mask-2" x="65.46" y="0" width="170" height="165.93" maskUnits="userSpaceOnUse">
      <g class="cls-26">
        <g class="cls-14">
          <ellipse class="cls-6" cx="150.46" cy="82.97" rx="82.88" ry="85.06" transform="translate(41.49 215.8) rotate(-79.51)"/>
        </g>
      </g>
    </mask>
    <radialGradient id="radial-gradient-4" cx="1678.66" cy="1099.17" fx="1678.66" fy="1099.17" r="79.27" gradientTransform="translate(1905.48 1262.35) rotate(180) scale(1.05 1.07)" gradientUnits="userSpaceOnUse">
      <stop offset="0" stop-color="#acd699"/>
      <stop offset=".27" stop-color="#aed79b"/>
      <stop offset=".45" stop-color="#b5daa4"/>
      <stop offset=".62" stop-color="#c2e1b4"/>
      <stop offset=".77" stop-color="#d4e9ca"/>
      <stop offset=".9" stop-color="#eaf5e6"/>
      <stop offset="1" stop-color="#fff"/>
    </radialGradient>
    <filter id="luminosity-noclip-5" x="12.9" y="110.27" width="118.28" height="118.28" color-interpolation-filters="sRGB" filterUnits="userSpaceOnUse">
      <feFlood flood-color="#fff" result="bg"/>
      <feBlend in="SourceGraphic" in2="bg"/>
    </filter>
    <filter id="luminosity-noclip-6" x="12.9" y="-8305.37" width="118.28" height="32766" color-interpolation-filters="sRGB" filterUnits="userSpaceOnUse">
      <feFlood flood-color="#fff" result="bg"/>
      <feBlend in="SourceGraphic" in2="bg"/>
    </filter>
    <mask id="mask-5" x="12.9" y="-8305.37" width="118.28" height="32766" maskUnits="userSpaceOnUse"/>
    <radialGradient id="radial-gradient-5" cx="189.48" cy="-163.54" fx="189.48" fy="-163.54" r="59.13" gradientTransform="translate(-78.21 369.57) rotate(-12.31)" gradientUnits="userSpaceOnUse">
      <stop offset="0" stop-color="#fff"/>
      <stop offset=".18" stop-color="#fcfcfc"/>
      <stop offset=".31" stop-color="#f2f2f2"/>
      <stop offset=".43" stop-color="#e2e2e2"/>
      <stop offset=".54" stop-color="#cbcbcb"/>
      <stop offset=".64" stop-color="#aeaeae"/>
      <stop offset=".74" stop-color="#8a8a8a"/>
      <stop offset=".83" stop-color="#5f5f5f"/>
      <stop offset=".92" stop-color="#2f2f2f"/>
      <stop offset="1" stop-color="#000"/>
    </radialGradient>
    <mask id="mask-4" x="12.9" y="110.27" width="118.28" height="118.28" maskUnits="userSpaceOnUse">
      <g class="cls-9">
        <g class="cls-16">
          <circle class="cls-3" cx="72.04" cy="169.41" r="59.13" transform="translate(-6.22 2.78) rotate(-2.12)"/>
        </g>
      </g>
    </mask>
    <radialGradient id="radial-gradient-6" cx="189.48" cy="-163.54" fx="189.48" fy="-163.54" r="59.13" gradientTransform="translate(-78.21 369.57) rotate(-12.31)" gradientUnits="userSpaceOnUse">
      <stop offset="0" stop-color="#575757"/>
      <stop offset=".21" stop-color="#595959"/>
      <stop offset=".37" stop-color="#636363"/>
      <stop offset=".5" stop-color="#737373"/>
      <stop offset=".63" stop-color="#8a8a8a"/>
      <stop offset=".75" stop-color="#a7a7a7"/>
      <stop offset=".87" stop-color="#cbcbcb"/>
      <stop offset=".98" stop-color="#f4f4f4"/>
      <stop offset="1" stop-color="#fff"/>
    </radialGradient>
    <filter id="luminosity-noclip-7" x="19.69" y="112.25" width="92.94" height="92.94" color-interpolation-filters="sRGB" filterUnits="userSpaceOnUse">
      <feFlood flood-color="#fff" result="bg"/>
      <feBlend in="SourceGraphic" in2="bg"/>
    </filter>
    <filter id="luminosity-noclip-8" x="19.69" y="-8305.37" width="92.94" height="32766" color-interpolation-filters="sRGB" filterUnits="userSpaceOnUse">
      <feFlood flood-color="#fff" result="bg"/>
      <feBlend in="SourceGraphic" in2="bg"/>
    </filter>
    <mask id="mask-7" x="19.69" y="-8305.37" width="92.94" height="32766" maskUnits="userSpaceOnUse"/>
    <radialGradient id="radial-gradient-7" cx="186.45" cy="-175.35" fx="186.45" fy="-175.35" r="46.46" gradientTransform="translate(-167.91 55.2) rotate(67.1)" xlink:href="#radial-gradient-3"/>
    <mask id="mask-6" x="19.69" y="112.25" width="92.94" height="92.94" maskUnits="userSpaceOnUse">
      <g class="cls-8">
        <g class="cls-25">
          <circle class="cls-7" cx="66.16" cy="158.72" r="46.46" transform="translate(-100.57 200.79) rotate(-81.53)"/>
        </g>
      </g>
    </mask>
    <radialGradient id="radial-gradient-8" cx="186.45" cy="-175.35" fx="186.45" fy="-175.35" r="46.46" gradientTransform="translate(-167.91 55.2) rotate(67.1)" gradientUnits="userSpaceOnUse">
      <stop offset="0" stop-color="#85a186"/>
      <stop offset=".25" stop-color="#87a388"/>
      <stop offset=".43" stop-color="#90aa91"/>
      <stop offset=".58" stop-color="#a0b6a1"/>
      <stop offset=".72" stop-color="#b6c7b6"/>
      <stop offset=".85" stop-color="#d2dcd2"/>
      <stop offset=".97" stop-color="#f4f7f4"/>
      <stop offset="1" stop-color="#fff"/>
    </radialGradient>
    <filter id="luminosity-noclip-9" x="0" y="104.43" width="92.94" height="92.94" color-interpolation-filters="sRGB" filterUnits="userSpaceOnUse">
      <feFlood flood-color="#fff" result="bg"/>
      <feBlend in="SourceGraphic" in2="bg"/>
    </filter>
    <filter id="luminosity-noclip-10" x="0" y="-8305.37" width="92.94" height="32766" color-interpolation-filters="sRGB" filterUnits="userSpaceOnUse">
      <feFlood flood-color="#fff" result="bg"/>
      <feBlend in="SourceGraphic" in2="bg"/>
    </filter>
    <mask id="mask-9" x="0" y="-8305.37" width="92.94" height="32766" maskUnits="userSpaceOnUse"/>
    <radialGradient id="radial-gradient-9" cx="169.33" cy="-187.83" fx="169.33" fy="-187.83" r="46.46" gradientTransform="translate(-186.89 53.49) rotate(70.62)" xlink:href="#radial-gradient-3"/>
    <mask id="mask-8" x="0" y="104.43" width="92.94" height="92.94" maskUnits="userSpaceOnUse">
      <g class="cls-17">
        <g class="cls-15">
          <circle class="cls-2" cx="46.47" cy="150.9" r="46.46" transform="translate(-107.88 184.18) rotate(-85.05)"/>
        </g>
      </g>
    </mask>
    <radialGradient id="radial-gradient-10" cx="169.33" cy="-187.83" fx="169.33" fy="-187.83" r="46.46" gradientTransform="translate(-186.89 53.49) rotate(70.62)" xlink:href="#radial-gradient-4"/>
  </defs>
  <g class="cls-13">
    <g id="Layer_1" data-name="Layer 1">
      <g>
        <g>
          <g class="cls-24">
            <ellipse class="cls-20" cx="146.07" cy="106.66" rx="82.88" ry="85.06" transform="translate(14.6 230.87) rotate(-79.51)"/>
          </g>
          <g class="cls-11">
            <ellipse class="cls-12" cx="150.46" cy="82.97" rx="82.88" ry="85.06" transform="translate(41.49 215.8) rotate(-79.51)"/>
          </g>
          <g>
            <path d="m178.89,42.74c0-.05.03-.1.07-.14,3.69-3.71,8.32-6.38,13.37-7.74.14-.04.29.05.33.19.04.14-.05.29-.19.33-4.96,1.33-9.5,3.96-13.13,7.6-.11.11-.28.11-.38,0-.07-.07-.09-.16-.08-.24Z"/>
            <path d="m170.48,66.71c.02-.11.11-.21.24-.22.15-.02.28.09.3.24.57,5.26,2.57,10.27,5.78,14.49.09.12.07.29-.05.38-.12.09-.29.07-.38-.05-3.26-4.29-5.3-9.4-5.88-14.76,0-.03,0-.05,0-.08Z"/>
            <path d="m203.55,34.31c.03-.14.16-.24.3-.22,11.82,1.54,21.55,9.95,24.78,21.42.04.14-.04.29-.19.33-.14.04-.29-.04-.33-.19-3.17-11.27-12.72-19.52-24.33-21.03-.15-.02-.25-.15-.23-.3,0,0,0,0,0-.01Z"/>
            <path d="m139.27,20.62s.02-.08.05-.11c6.51-8.74,17.27-13.21,28.06-11.66,10.79,1.55,19.85,8.86,23.64,19.08.05.14-.02.3-.16.35-.14.05-.3-.02-.35-.16-3.72-10.04-12.62-17.22-23.21-18.74-10.6-1.52-21.15,2.86-27.55,11.45-.09.12-.26.14-.38.05-.09-.06-.12-.17-.1-.27Z"/>
            <path d="m133.91,32.9c.32-1.73.8-3.45,1.43-5.12.05-.14.21-.21.35-.16.14.05.21.21.16.35-2.21,5.87-2.49,12.17-.79,18.21.04.14-.04.29-.19.33-.14.04-.29-.04-.33-.19-1.24-4.42-1.45-8.98-.63-13.42Z"/>
            <path d="m98.87,50.9h0c2.21-11.89,11.28-21.18,23.11-23.67.15-.03.29.06.32.21.03.14-.06.29-.21.32-11.62,2.44-20.53,11.56-22.69,23.24-.03.15-.17.24-.31.22-.15-.03-.24-.17-.22-.31Z"/>
            <path d="m105.91,75.94c.01-.06.04-.11.09-.15.11-.1.28-.09.38.02,7.24,8.07,18.28,11.45,28.8,8.82.14-.04.29.05.33.2.04.14-.05.29-.2.33-10.71,2.68-21.95-.76-29.33-8.98-.06-.06-.08-.15-.06-.23Z"/>
            <path d="m135.39,27.81s0-.01,0-.02c.04-.14.19-.23.33-.19,8.11,2.15,14.96,7.67,18.79,15.13,3.84,7.46,4.34,16.24,1.38,24.09-.05.14-.21.21-.35.16s-.21-.21-.16-.35c2.9-7.71,2.41-16.32-1.36-23.65-3.77-7.32-10.49-12.74-18.45-14.85-.14-.04-.22-.17-.2-.31Z"/>
            <path d="m77.64,87.5c1.24-6.71,4.8-12.9,10.03-17.33.11-.1.28-.08.38.03.1.11.08.28-.03.38-5.89,4.99-9.62,12.26-10.24,19.95-.61,7.69,1.92,15.47,6.94,21.32.1.11.08.28-.03.38-.11.1-.28.08-.38-.03-5.12-5.97-7.7-13.88-7.07-21.72.08-1.01.21-2,.4-2.99Z"/>
            <path d="m95.02,119.88s0-.04.02-.06c.06-.14.22-.2.35-.14,4.09,1.75,8.59,2.55,13.03,2.31.15,0,.28.11.28.26,0,.15-.11.28-.25.28-4.52.24-9.11-.57-13.27-2.35-.12-.05-.18-.18-.16-.3Z"/>
            <path d="m134.95,84.84c.02-.1.09-.18.19-.21.14-.04.29.04.33.19,1.6,5.7,1.48,11.69-.38,17.32-.05.14-.2.22-.34.17-.14-.05-.22-.2-.17-.34,1.82-5.53,1.94-11.41.37-17.01-.01-.04-.01-.08,0-.12Z"/>
            <path d="m93.82,133.11c.02-.11.11-.2.23-.22.15-.02.28.08.31.23,1.54,10.98,9.36,20.28,19.9,23.7.14.05.22.2.17.34-.05.14-.2.22-.34.17-10.74-3.48-18.7-12.95-20.27-24.13,0-.03,0-.06,0-.09Z"/>
            <path d="m134.57,101.93s0-.04.02-.06c.06-.14.22-.2.35-.14,4.72,2.02,8.86,5.25,11.97,9.34.09.12.07.29-.05.38-.12.09-.29.07-.38-.05-3.05-4.02-7.12-7.19-11.76-9.17-.12-.05-.18-.18-.16-.3Z"/>
            <path d="m95.01,119.81s0-.02,0-.04c1.41-4.3,3.84-8.28,7-11.51.1-.11.28-.11.38,0,.11.1.11.28,0,.38-3.11,3.18-5.49,7.08-6.88,11.31-.05.14-.2.22-.34.17-.13-.04-.21-.17-.18-.31Z"/>
            <path d="m135.36,163.54s.02-.08.05-.11c.09-.12.26-.15.38-.06,12.09,8.98,28.86,7.35,38.99-3.79.1-.11.27-.12.38-.02.11.1.12.27.02.38-10.32,11.35-27.4,13.01-39.71,3.86-.09-.06-.12-.17-.1-.27Z"/>
            <path d="m146.42,111.18c.02-.1.1-.19.21-.21,7.06-1.6,14.45-.57,20.8,2.89.13.07.18.24.11.37-.07.13-.24.18-.37.11-6.24-3.4-13.49-4.41-20.42-2.84-.15.03-.29-.06-.32-.2,0-.04,0-.07,0-.11Z"/>
            <path d="m166.35,116.92c.18-.96.4-1.91.68-2.86.04-.14.19-.23.33-.18.14.04.22.19.18.33-2.46,8.55-.94,17.63,4.19,24.9.09.12.06.29-.07.38-.12.09-.29.06-.38-.07-4.65-6.6-6.39-14.66-4.94-22.5Z"/>
            <path d="m194.09,151.66c.02-.13.14-.23.28-.22,15.94.67,29.55-11.75,30.37-27.68,0-.15.13-.26.28-.26.15,0,.26.13.26.28-.82,16.22-14.69,28.88-30.93,28.2-.15,0-.26-.13-.26-.28,0-.01,0-.03,0-.04Z"/>
            <path d="m174.69,159.68s.02-.06.03-.08c.07-.13.24-.18.37-.1,3.52,1.97,7.67,2.2,11.39.65,3.72-1.55,6.47-4.67,7.55-8.56.04-.14.19-.23.33-.19.14.04.23.18.19.33-1.12,4.04-3.99,7.29-7.86,8.91-3.87,1.62-8.2,1.37-11.86-.68-.1-.06-.15-.17-.13-.28Z"/>
            <path d="m171.24,139.19s.03-.09.06-.13c2.76-3.09,6.71-4.74,10.85-4.53.15,0,.26.13.26.28,0,.15-.13.26-.28.26-3.97-.21-7.77,1.38-10.42,4.35-.1.11-.27.12-.38.02-.07-.06-.1-.16-.09-.25Z"/>
            <path d="m228.05,55.56c.02-.12.13-.21.25-.22,6.51-.3,12.34,4.09,13.84,10.43,1.51,6.34-1.72,12.88-7.67,15.55-.14.06-.3,0-.36-.14-.06-.14,0-.3.14-.36,5.71-2.56,8.81-8.84,7.36-14.93-1.45-6.09-7.04-10.31-13.29-10.02-.15,0-.28-.11-.28-.26,0-.02,0-.04,0-.06Z"/>
            <path d="m190.54,28.01c.02-.11.11-.2.23-.22,5.3-.67,10.53,1.84,13.32,6.4.08.13.04.29-.09.37-.13.08-.29.04-.37-.09-2.67-4.38-7.69-6.8-12.79-6.15-.15.02-.28-.09-.3-.23,0-.03,0-.06,0-.08Z"/>
            <path d="m178.98,42.69c.02-.11.11-.21.24-.22.15-.02.28.09.3.24.55,4.99,3.98,9.27,8.73,10.91.14.05.21.2.17.34-.05.14-.2.22-.34.17-4.95-1.7-8.52-6.16-9.09-11.36,0-.03,0-.05,0-.08Z"/>
            <path d="m121.8,27.49s.01-.04.02-.06c3.02-6.83,11.03-9.95,17.87-6.97.14.06.2.22.14.36-.06.14-.22.2-.36.14-6.57-2.87-14.27.13-17.16,6.69-.06.14-.22.2-.36.14-.12-.05-.18-.18-.16-.3Z"/>
            <path d="m86.38,61.86c.28-1.51.82-2.99,1.62-4.36,2.33-4.02,6.5-6.54,11.14-6.75.15,0,.27.11.28.26.01.15-.11.28-.26.28-4.46.2-8.46,2.63-10.7,6.49-2.24,3.86-2.36,8.54-.33,12.51.07.13.01.3-.12.36-.13.07-.3.02-.36-.12-1.39-2.72-1.82-5.76-1.28-8.66Z"/>
            <path d="m105.91,75.95c.01-.08.06-.15.14-.19,4.25-2.34,6.84-6.8,6.76-11.65,0-.15.12-.27.27-.27.15,0,.27.12.27.27.08,5.05-2.62,9.7-7.04,12.13-.13.07-.29.02-.37-.11-.03-.06-.04-.12-.03-.18Z"/>
            <path d="m81.94,117.4c.37-1.98,1.17-3.89,2.4-5.56.09-.12.26-.15.38-.06.12.09.15.26.06.38-2.78,3.79-3.31,8.81-1.37,13.1,1.94,4.29,6.05,7.21,10.73,7.62.15.01.26.14.25.29-.02.16-.14.26-.29.25-4.88-.44-9.16-3.48-11.18-7.94-1.16-2.57-1.47-5.39-.98-8.08Z"/>
            <path d="m123.49,140.48c.02-.1.09-.19.2-.21,4.01-1.01,8.21-.15,11.51,2.35,3.3,2.5,5.26,6.3,5.38,10.44,0,.15-.11.27-.26.28-.15,0-.27-.11-.28-.26-.12-3.97-2-7.63-5.17-10.02-3.17-2.4-7.2-3.22-11.05-2.25-.14.04-.29-.05-.33-.2-.01-.04-.01-.08,0-.11Z"/>
            <path d="m113.92,157.05c.02-.1.09-.18.19-.21.14-.04.29.04.33.19,1.22,4.29,4.49,7.62,8.76,8.91,4.26,1.3,8.84.35,12.24-2.53.11-.1.28-.08.38.03.1.11.08.28-.03.38-3.54,3-8.3,3.99-12.74,2.64-4.44-1.35-7.85-4.82-9.12-9.28-.01-.04-.01-.08,0-.12Z"/>
            <path d="m94.8,74.82c.2-1.09.87-2.07,1.88-2.66.13-.07.29-.03.37.1.08.13.03.29-.1.37-1.28.75-1.92,2.22-1.59,3.66.03.14-.06.29-.2.32-.15.03-.29-.06-.32-.2-.12-.54-.13-1.08-.03-1.59Z"/>
            <path d="m97.35,82.1c.16-.88.64-1.68,1.34-2.26.12-.09.29-.08.38.04.09.12.08.29-.04.38-.73.59-1.17,1.47-1.2,2.41-.04.94.34,1.85,1.02,2.49.11.1.11.27.01.38-.1.11-.27.11-.38.01-.8-.75-1.23-1.81-1.19-2.9,0-.19.03-.37.06-.55Z"/>
            <path d="m94.95,78.63c.2-1.1.85-2.09,1.8-2.72.12-.08.29-.05.37.08.08.12.05.29-.08.37-.94.62-1.55,1.67-1.62,2.8-.07,1.13.41,2.24,1.27,2.97.11.1.13.27.03.38-.1.11-.27.13-.38.03-.99-.84-1.54-2.12-1.46-3.42.01-.17.03-.34.06-.5Z"/>
            <path d="m98.05,70.44c.06-.31.17-.62.33-.9.7-1.25,2.18-1.82,3.54-1.36.14.05.22.2.17.34-.05.14-.2.22-.34.17-1.11-.38-2.32.09-2.89,1.11-.57,1.02-.33,2.3.57,3.04.11.09.13.27.04.38-.1.11-.26.13-.38.04-.85-.7-1.22-1.79-1.03-2.82Z"/>
            <path d="m101.54,67.32c.09-.49.35-.93.76-1.26.68-.55,1.62-.63,2.38-.19.13.07.17.24.1.37-.07.13-.24.17-.37.1-.57-.32-1.27-.27-1.78.14-.51.41-.71,1.08-.52,1.71.05.14-.03.29-.18.34-.14.04-.29-.03-.34-.18-.11-.34-.13-.69-.07-1.03Z"/>
            <path d="m115.7,47.95c.2-1.09.87-2.07,1.88-2.66.13-.07.29-.03.37.1.07.13.03.29-.1.37-1.28.75-1.92,2.22-1.59,3.66.03.14-.06.29-.2.32-.15.03-.29-.06-.32-.2-.12-.54-.13-1.07-.03-1.59Z"/>
            <path d="m118.36,55.25c.16-.88.64-1.69,1.34-2.26.12-.09.29-.08.38.04.09.12.08.29-.04.38-.73.59-1.17,1.47-1.2,2.41-.04.94.34,1.85,1.02,2.49.11.1.11.27.01.38-.1.11-.27.11-.38.01-.8-.75-1.23-1.81-1.19-2.9,0-.19.03-.37.06-.55Z"/>
            <path d="m115.96,51.77c.2-1.1.85-2.09,1.8-2.72.12-.08.29-.05.37.08.08.12.05.29-.08.37-.95.62-1.55,1.67-1.62,2.8-.07,1.13.41,2.24,1.27,2.97.11.1.13.27.03.38-.1.11-.27.13-.38.03-.99-.84-1.54-2.12-1.46-3.42.01-.17.03-.34.06-.5Z"/>
            <path d="m119.06,43.59c.06-.31.17-.62.33-.9.7-1.25,2.18-1.82,3.54-1.36.14.05.22.2.17.34-.05.14-.2.22-.34.17-1.11-.38-2.32.09-2.89,1.11-.57,1.02-.33,2.3.57,3.04.12.09.13.27.04.38-.09.12-.26.13-.38.04-.85-.7-1.22-1.79-1.02-2.82Z"/>
            <path d="m122.53,40.59c.09-.49.35-.93.76-1.26.68-.55,1.62-.63,2.38-.19.13.07.18.24.1.37-.07.13-.24.17-.37.1-.57-.32-1.27-.27-1.78.14-.51.41-.71,1.08-.52,1.71.05.14-.03.29-.18.34-.14.04-.29-.03-.34-.18-.11-.34-.13-.69-.07-1.03Z"/>
            <path d="m110.79,132.21c.2-1.09.87-2.07,1.88-2.66.13-.08.29-.03.37.1.08.13.03.29-.1.37-1.28.75-1.92,2.22-1.59,3.66.03.15-.06.29-.2.32-.15.03-.29-.06-.32-.2-.12-.54-.13-1.07-.03-1.59Z"/>
            <path d="m113.33,139.5c.16-.88.64-1.68,1.34-2.26.12-.09.29-.08.38.04.09.12.08.29-.04.38-.73.59-1.17,1.47-1.2,2.41-.04.94.34,1.85,1.02,2.49.11.1.11.27.01.38-.1.11-.27.11-.38.01-.8-.75-1.23-1.81-1.19-2.9,0-.19.03-.37.06-.55Z"/>
            <path d="m110.94,136.02c.2-1.1.85-2.09,1.8-2.72.12-.08.29-.05.37.08.08.13.05.29-.08.37-.94.62-1.55,1.67-1.62,2.8-.07,1.13.41,2.24,1.27,2.97.11.1.13.27.03.38-.1.11-.27.13-.38.03-.99-.84-1.54-2.12-1.46-3.42.01-.17.03-.34.06-.5Z"/>
            <path d="m114.05,127.72c.06-.31.17-.62.33-.9.7-1.25,2.18-1.82,3.54-1.36.14.05.21.2.17.34-.05.14-.2.22-.34.17-1.11-.38-2.32.09-2.89,1.11-.57,1.02-.33,2.3.57,3.04.11.09.13.26.04.38-.1.12-.26.13-.38.04-.85-.7-1.22-1.79-1.03-2.82Z"/>
            <path d="m117.52,124.72c.09-.49.35-.93.76-1.26.68-.55,1.62-.63,2.38-.19.13.07.18.24.1.37-.07.13-.24.17-.37.1-.57-.32-1.27-.27-1.78.14-.51.41-.71,1.08-.52,1.71.05.14-.03.29-.18.34-.14.05-.29-.03-.34-.18-.11-.34-.13-.69-.07-1.03Z"/>
          </g>
        </g>
        <g>
          <path d="m43.47,119.51c-.1.03-.22-.01-.29-.1-.09-.12-.06-.29.06-.38,3.09-2.24,6.89-3.35,10.7-3.12.15,0,.26.14.25.29,0,.15-.14.26-.29.25-3.69-.22-7.36.85-10.35,3.02-.03.02-.06.03-.09.04Z"/>
          <path d="m67.07,114.38c-.11.03-.22-.01-.29-.11-1.55-2.21-4.28-3.35-6.94-2.92-2.66.44-4.88,2.39-5.65,4.97-.04.14-.19.22-.34.18-.14-.04-.22-.19-.18-.34.83-2.78,3.21-4.89,6.08-5.35,2.87-.47,5.8.76,7.47,3.14.09.12.06.29-.07.38-.03.02-.06.03-.09.04Z"/>
          <g class="cls-19">
            <circle class="cls-1" cx="72.04" cy="169.41" r="59.13" transform="translate(-6.22 2.78) rotate(-2.12)"/>
          </g>
          <g class="cls-21">
            <circle class="cls-10" cx="66.16" cy="158.72" r="46.46" transform="translate(-100.57 200.79) rotate(-81.53)"/>
          </g>
          <g class="cls-18">
            <circle class="cls-5" cx="46.47" cy="150.9" r="46.46" transform="translate(-107.88 184.18) rotate(-85.05)"/>
          </g>
          <path d="m51.13,154.77c-.11.03-.24-.02-.3-.12-.08-.13-.04-.29.09-.37,2.48-1.5,4.51-3.65,5.87-6.22.07-.13.23-.18.36-.11.13.07.18.23.11.36-1.4,2.65-3.5,4.88-6.07,6.43-.02.01-.05.02-.07.03Z"/>
          <path d="m42.71,180.95c-.95.24-1.92.41-2.92.48-.15.01-.28-.1-.29-.25-.01-.15.1-.28.25-.29,3.43-.26,6.62-1.57,9.23-3.81.11-.1.28-.08.38.03.1.11.08.28-.03.38-1.94,1.67-4.19,2.84-6.62,3.46Z"/>
          <path d="m59.88,194.31h0c-6.52,1.67-13.33-.73-17.36-6.11-.09-.12-.06-.29.05-.38.12-.09.29-.07.38.05,3.9,5.21,10.49,7.53,16.79,5.91.14-.04.29.05.33.19.04.14-.05.29-.19.33Z"/>
          <path d="m70.78,184.96c-.06.01-.12.01-.17-.01-.14-.06-.2-.22-.14-.35,2.34-5.46,1.47-11.73-2.27-16.35-.09-.12-.08-.29.04-.38.11-.09.29-.08.38.04,3.86,4.78,4.76,11.26,2.34,16.9-.03.08-.1.14-.18.16Z"/>
          <path d="m39.81,181.39s-.01,0-.02,0c-.15.03-.29-.07-.31-.22-.81-4.6.36-9.34,3.23-13.03,2.86-3.68,7.18-6,11.83-6.34.15-.01.28.1.29.25.01.15-.1.28-.25.29-4.5.33-8.67,2.57-11.44,6.14-2.77,3.56-3.91,8.16-3.12,12.6.02.14-.06.27-.2.31Z"/>
          <path d="m83.15,196.43c-3.68.95-7.63.6-11.09-1-.14-.06-.19-.22-.13-.36.06-.14.22-.19.36-.13,3.84,1.78,8.32,1.95,12.28.48,3.97-1.47,7.25-4.52,9-8.38.06-.14.22-.2.36-.13.14.06.2.22.13.36-1.81,3.98-5.2,7.14-9.3,8.66-.53.2-1.06.36-1.6.5Z"/>
          <path d="m95.32,180.19s-.04,0-.06,0c-.15,0-.27-.11-.28-.26-.07-2.44-.72-4.86-1.86-7.01-.07-.13-.02-.3.11-.36.13-.07.29-.02.37.11,1.18,2.22,1.85,4.73,1.92,7.25,0,.13-.08.24-.2.27Z"/>
          <path d="m68.48,168.34c-.1.02-.2,0-.27-.09-.1-.11-.08-.28.03-.38,2.5-2.15,5.55-3.49,8.83-3.87.15-.02.28.09.3.24.02.15-.09.29-.24.3-3.17.38-6.12,1.67-8.54,3.75-.03.03-.07.05-.11.06Z"/>
          <path d="m102.23,177.71c-.11.03-.23-.02-.29-.12-.08-.13-.05-.29.08-.37,5.1-3.3,7.92-9.33,7.18-15.37-.02-.15.09-.28.24-.3.15-.02.28.09.3.24.76,6.23-2.15,12.47-7.43,15.89-.03.02-.05.03-.08.03Z"/>
          <path d="m77.13,164.56s-.04,0-.06,0c-.15,0-.27-.11-.28-.26-.09-2.86.57-5.7,1.91-8.23.07-.13.23-.18.36-.11.13.07.18.23.11.36-1.29,2.45-1.93,5.2-1.84,7.96,0,.13-.08.24-.2.27Z"/>
          <path d="m95.29,180.21s-.02,0-.04,0c-2.5.29-5.08,0-7.45-.83-.14-.05-.21-.2-.16-.34.05-.14.2-.21.34-.16,2.3.81,4.79,1.09,7.21.81.15-.02.28.09.3.24.02.14-.07.26-.2.29Z"/>
          <path d="m107.8,149.82s-.08.01-.12,0c-.15-.03-.24-.17-.21-.32,1.67-8.09-3.01-16.04-10.89-18.51-.14-.04-.22-.2-.18-.34.04-.14.2-.22.34-.18,8.15,2.55,12.99,10.77,11.26,19.13-.02.1-.1.18-.2.21Z"/>
          <path d="m79,156.47c-.1.03-.21,0-.28-.1-2.46-3.19-3.68-7.16-3.42-11.17,0-.15.14-.26.29-.25.15,0,.26.14.25.29-.25,3.89.92,7.73,3.31,10.81.09.12.07.29-.05.38-.03.02-.06.04-.1.05Z"/>
          <path d="m77.24,145.15c-.53.14-1.06.25-1.6.33-.15.02-.29-.08-.31-.23-.02-.15.08-.28.23-.31,4.82-.75,8.98-3.61,11.41-7.83.07-.13.24-.17.37-.1.13.07.17.24.1.37-2.24,3.89-5.9,6.66-10.19,7.77Z"/>
          <path d="m88.18,123.17c-.13.03-.26-.03-.32-.16-3.35-8.08-12.67-11.98-20.78-8.7-.13.06-.29-.01-.35-.15-.06-.14.01-.3.15-.35,8.38-3.39,18.01.65,21.48,8.99.06.14,0,.3-.15.35-.01,0-.02,0-.04.01Z"/>
          <path d="m96.72,131.02s-.06,0-.09,0c-.15-.01-.26-.14-.25-.29.16-2.18-.67-4.28-2.29-5.76-1.62-1.48-3.78-2.12-5.94-1.76-.15.02-.29-.07-.31-.22-.02-.15.08-.29.22-.31,2.32-.39,4.65.3,6.39,1.89,1.74,1.59,2.64,3.85,2.46,6.2,0,.12-.09.21-.2.24Z"/>
          <path d="m87.25,137.52s-.1.01-.14,0c-2.23-.67-4-2.29-4.87-4.45-.06-.14.01-.3.15-.35.14-.06.3.01.35.15.81,2,2.46,3.51,4.53,4.14.14.04.22.19.18.34-.03.09-.1.16-.19.18Z"/>
          <path d="m32.15,128.53c-.12.03-.25-.02-.31-.14-1.69-3.24-.83-7.25,2.04-9.51,2.87-2.27,6.96-2.17,9.73.23.11.1.12.27.03.38-.1.11-.27.13-.38.03-2.57-2.23-6.37-2.32-9.04-.21-2.67,2.11-3.46,5.82-1.89,8.84.07.13.02.3-.11.36-.02.01-.04.02-.06.02Z"/>
          <path d="m37.12,156.1c-.11.03-.23-.02-.3-.12-.08-.13-.04-.29.09-.37,2.33-1.41,3.66-4.08,3.37-6.8-.02-.15.1-.27.24-.3.15-.02.28.09.3.24.3,2.92-1.12,5.79-3.63,7.31-.02.01-.05.02-.07.03Z"/>
          <path d="m68.27,198.02c-.84.22-1.71.29-2.6.21-2.6-.24-4.87-1.76-6.07-4.07-.07-.13-.02-.29.11-.36.13-.07.3-.02.36.12,1.12,2.15,3.23,3.56,5.64,3.78,2.41.22,4.74-.79,6.23-2.7.09-.12.26-.14.38-.05.12.09.14.26.05.38-1.05,1.35-2.5,2.29-4.1,2.7Z"/>
          <path d="m70.78,184.96c-.08.02-.16,0-.23-.04-2.12-1.56-4.91-1.81-7.28-.66-.13.07-.3,0-.36-.12-.06-.13,0-.3.13-.36,2.55-1.23,5.55-.96,7.84.72.12.09.15.26.06.38-.04.05-.09.09-.15.1Z"/>
          <path d="m97.12,187.32c-1.09.28-2.25.32-3.4.09-.15-.03-.24-.17-.21-.32.03-.15.17-.24.32-.21,2.5.5,5.09-.39,6.76-2.32,1.67-1.93,2.17-4.63,1.3-7.03-.05-.14.02-.3.16-.35.14-.05.3.02.35.16.93,2.59.4,5.48-1.4,7.57-1.03,1.2-2.4,2.02-3.88,2.41Z"/>
          <path d="m99.01,161.13c-.1.03-.21,0-.28-.09-1.46-1.8-2.02-4.14-1.53-6.41.49-2.27,1.96-4.17,4.04-5.21.13-.07.29-.01.36.12.07.13.01.3-.12.36-1.93.97-3.3,2.73-3.75,4.84-.46,2.11.06,4.28,1.42,5.96.09.12.08.29-.04.38-.03.03-.07.04-.1.05Z"/>
          <path d="m109.54,162.07c-.1.02-.2,0-.27-.08-.1-.11-.08-.28.03-.38,1.83-1.58,2.72-3.96,2.39-6.35-.34-2.4-1.85-4.43-4.05-5.45-.14-.06-.19-.22-.13-.36.06-.14.22-.19.36-.13,2.36,1.09,3.99,3.28,4.36,5.86.36,2.58-.6,5.13-2.57,6.84-.03.03-.07.05-.11.06Z"/>
          <path d="m72.8,190.78c-.63.16-1.31.05-1.87-.34-.12-.09-.15-.25-.07-.38.08-.12.25-.15.38-.07.63.44,1.46.42,2.06-.05.12-.09.29-.07.38.05.09.12.07.29-.05.38-.25.2-.54.33-.83.41Z"/>
          <path d="m75.86,187.82c-.51.13-1.05.08-1.53-.16-.13-.07-.19-.23-.12-.36.07-.13.23-.19.36-.12.43.21.94.23,1.39.04.45-.19.79-.56.94-1.02.05-.14.2-.22.34-.17.14.05.22.2.17.34-.2.61-.66,1.1-1.25,1.34-.1.04-.2.08-.31.1Z"/>
          <path d="m74.67,189.82c-.63.16-1.31.06-1.87-.28-.13-.08-.17-.25-.09-.37.08-.13.24-.17.37-.09.5.31,1.13.37,1.67.15.55-.22.97-.68,1.12-1.25.04-.14.19-.23.33-.19.14.04.23.19.19.33-.2.73-.74,1.33-1.44,1.61-.09.04-.19.07-.28.09Z"/>
          <path d="m69.86,190.18c-.18.05-.37.06-.57.05-.85-.06-1.52-.72-1.61-1.56-.02-.15.09-.28.24-.3.15-.02.28.09.3.24.06.58.53,1.04,1.12,1.08.59.04,1.12-.34,1.27-.9.04-.14.19-.23.33-.19.14.04.23.18.19.33-.16.63-.66,1.1-1.26,1.26Z"/>
          <path d="m67.48,189.16c-.29.08-.61.05-.89-.09-.48-.24-.76-.73-.72-1.27.01-.15.14-.26.29-.25.15.01.26.14.25.29-.03.31.14.6.42.74.28.14.61.09.84-.12.11-.1.28-.09.38.02.1.11.09.28-.02.38-.16.15-.35.25-.55.3Z"/>
          <path d="m54.48,186.57c-.63.16-1.31.05-1.87-.34-.12-.09-.15-.25-.07-.38.08-.12.25-.15.38-.07.63.44,1.46.42,2.06-.05.12-.09.29-.07.38.05.09.12.07.29-.05.38-.25.2-.54.33-.83.41Z"/>
          <path d="m57.52,183.54c-.51.13-1.05.08-1.53-.16-.13-.07-.19-.23-.12-.36.07-.13.23-.19.36-.12.43.21.94.23,1.39.04.45-.19.79-.56.94-1.02.05-.14.2-.22.34-.17.14.05.22.2.17.34-.2.61-.66,1.1-1.25,1.34-.1.04-.2.08-.31.1Z"/>
          <path d="m56.33,185.55c-.63.16-1.31.06-1.87-.28-.13-.08-.17-.24-.09-.37.08-.13.24-.17.37-.09.5.31,1.12.36,1.67.15.55-.21.97-.68,1.12-1.25.04-.14.19-.23.33-.19.14.04.23.19.19.33-.2.73-.74,1.33-1.44,1.61-.09.04-.19.07-.28.09Z"/>
          <path d="m51.52,185.9c-.18.05-.37.06-.57.05-.84-.06-1.52-.72-1.61-1.56-.02-.15.09-.28.24-.3.15-.02.28.09.3.24.06.58.53,1.04,1.12,1.08.59.04,1.12-.34,1.27-.9.04-.14.19-.23.33-.19.14.04.23.18.19.33-.16.63-.66,1.1-1.26,1.26Z"/>
          <path d="m49.2,184.86c-.29.08-.61.05-.89-.09-.47-.23-.76-.74-.72-1.27.01-.15.14-.26.29-.25.15.01.26.14.25.29-.03.31.14.6.42.74.28.14.61.09.84-.12.11-.1.28-.09.38.02.1.11.09.28-.02.38-.16.15-.35.25-.55.3Z"/>
          <path d="m97.83,169.42c-.63.16-1.31.05-1.87-.34-.12-.09-.15-.25-.07-.38.08-.12.25-.15.38-.07.63.44,1.46.42,2.06-.05.12-.09.29-.07.38.05.09.12.07.29-.05.38-.25.2-.54.33-.83.41Z"/>
          <path d="m100.89,166.45c-.51.13-1.05.08-1.53-.16-.13-.07-.19-.23-.12-.36.07-.13.23-.19.36-.12.43.21.94.23,1.39.04.45-.19.79-.56.94-1.02.05-.14.2-.22.34-.17.14.05.22.2.17.34-.2.61-.66,1.1-1.25,1.34-.1.04-.2.08-.31.1Z"/>
          <path d="m99.7,168.46c-.63.16-1.31.06-1.87-.28-.13-.08-.17-.24-.09-.37.08-.13.24-.17.37-.09.5.31,1.13.36,1.67.15.55-.21.97-.68,1.12-1.25.04-.14.19-.23.33-.19.14.04.23.19.19.33-.2.73-.74,1.33-1.44,1.61-.09.04-.19.07-.28.09Z"/>
          <path d="m94.82,168.83c-.18.05-.37.06-.57.05-.84-.06-1.52-.72-1.61-1.56-.02-.15.09-.28.24-.3.15-.02.28.09.3.24.06.58.53,1.04,1.12,1.08.59.04,1.12-.34,1.27-.9.04-.14.18-.23.33-.19.14.04.23.18.19.33-.16.63-.66,1.1-1.26,1.26Z"/>
          <path d="m92.51,167.79c-.29.07-.61.05-.89-.09-.47-.23-.76-.74-.72-1.27.01-.15.14-.26.29-.25.15.01.26.14.25.29-.03.31.14.6.42.74.28.14.61.09.84-.12.11-.1.28-.09.38.02.1.11.09.28-.02.38-.16.15-.35.25-.55.3Z"/>
        </g>
      </g>
    </g>
  </g>
</svg>