<?xml version="1.0" encoding="UTF-8"?>
<svg xmlns="http://www.w3.org/2000/svg" viewBox="0 0 4238.05 2455.22">
  <defs>
    <style>
      .cls-1 {
        fill: #fff;
      }

      .cls-2 {
        fill: #a7a9ac;
      }

      .cls-3 {
        opacity: .5;
      }

      .cls-4 {
        fill: #939598;
      }

      .cls-5 {
        fill: #9b8579;
      }

      .cls-6, .cls-7 {
        opacity: .2;
      }

      .cls-8 {
        opacity: .8;
      }

      .cls-9 {
        fill: #5cb1bf;
      }

      .cls-10 {
        fill: #f1f2f2;
      }

      .cls-7, .cls-11 {
        fill: #231f20;
      }

      .cls-12 {
        fill: #acd6e2;
      }

      .cls-13 {
        opacity: .1;
      }

      .cls-14 {
        fill: #d1d3d4;
      }

      .cls-15 {
        fill: #e6e7e8;
      }

      .cls-16 {
        fill: #bcbec0;
      }

      .cls-17 {
        fill: #58595b;
      }
    </style>
  </defs>
  <g id="Layer_2" data-name="Layer 2">
    <g>
      <g>
        <rect class="cls-12" x="3.7" y="92.12" width="325.43" height="325.43" transform="translate(-88.42 421.25) rotate(-90)"/>
        <path class="cls-2" d="m332.84,88.42v332.84H0V88.42h332.84Zm-7.4,325.43V95.82H7.4v318.03h318.03Z"/>
      </g>
      <g>
        <rect class="cls-12" x="329.13" y="92.12" width="325.43" height="325.43" transform="translate(237.02 746.69) rotate(-90)"/>
        <path class="cls-2" d="m658.27,88.42v332.84h-332.84V88.42h332.84Zm-7.4,325.43V95.82h-318.03v318.03h318.03Z"/>
      </g>
      <g>
        <rect class="cls-12" x="654.57" y="92.12" width="325.43" height="325.43" transform="translate(562.45 1072.12) rotate(-90)"/>
        <path class="cls-2" d="m983.71,88.42v332.84h-332.84V88.42h332.84Zm-7.4,325.43V95.82h-318.03v318.03h318.03Z"/>
      </g>
      <g>
        <rect class="cls-12" x="980" y="92.12" width="325.43" height="325.44" transform="translate(887.89 1397.56) rotate(-90)"/>
        <path class="cls-2" d="m1309.14,88.42v332.84h-332.84V88.42h332.84Zm-7.4,325.43V95.82h-318.03v318.03h318.03Z"/>
      </g>
      <g>
        <rect class="cls-12" x="1305.44" y="92.12" width="325.43" height="325.43" transform="translate(1213.32 1722.99) rotate(-90)"/>
        <path class="cls-2" d="m1634.57,88.42v332.84h-332.84V88.42h332.84Zm-7.4,325.43V95.82h-318.03v318.03h318.03Z"/>
      </g>
      <g>
        <rect class="cls-12" x="1630.87" y="92.12" width="325.43" height="325.44" transform="translate(1538.75 2048.43) rotate(-90)"/>
        <path class="cls-2" d="m1960.01,88.42v332.84h-332.84V88.42h332.84Zm-7.4,325.43V95.82h-318.03v318.03h318.03Z"/>
      </g>
      <g>
        <rect class="cls-12" x="1956.31" y="92.12" width="325.43" height="325.43" transform="translate(1864.19 2373.86) rotate(-90)"/>
        <path class="cls-2" d="m2285.44,88.42v332.84h-332.84V88.42h332.84Zm-7.4,325.43V95.82h-318.03v318.03h318.03Z"/>
      </g>
      <g>
        <rect class="cls-12" x="2281.74" y="92.12" width="325.43" height="325.44" transform="translate(2189.62 2699.3) rotate(-90)"/>
        <path class="cls-2" d="m2610.88,88.42v332.84h-332.84V88.42h332.84Zm-7.4,325.43V95.82h-318.03v318.03h318.03Z"/>
      </g>
      <g>
        <rect class="cls-12" x="3.7" y="417.55" width="325.43" height="325.43" transform="translate(-413.85 746.69) rotate(-90)"/>
        <path class="cls-2" d="m332.84,413.85v332.84H0v-332.84h332.84Zm-7.4,325.43v-318.03H7.4v318.03h318.03Z"/>
      </g>
      <g>
        <rect class="cls-12" x="3.7" y="742.99" width="325.43" height="325.43" transform="translate(-739.29 1072.12) rotate(-90)"/>
        <path class="cls-2" d="m332.84,739.29v332.84H0v-332.84h332.84Zm-7.4,325.43v-318.03H7.4v318.03h318.03Z"/>
      </g>
      <g>
        <rect class="cls-12" x="3.7" y="1068.42" width="325.43" height="325.43" transform="translate(-1064.72 1397.56) rotate(-90)"/>
        <path class="cls-2" d="m332.84,1064.72v332.84H0v-332.84h332.84Zm-7.4,325.44v-318.03H7.4v318.03h318.03Z"/>
      </g>
      <g>
        <rect class="cls-12" x="3.7" y="1393.86" width="325.43" height="325.43" transform="translate(-1390.16 1722.99) rotate(-90)"/>
        <path class="cls-2" d="m332.84,1390.16v332.84H0v-332.84h332.84Zm-7.4,325.43v-318.03H7.4v318.03h318.03Z"/>
      </g>
      <g>
        <rect class="cls-12" x="3.7" y="1719.29" width="325.43" height="325.43" transform="translate(-1715.59 2048.43) rotate(-90)"/>
        <path class="cls-2" d="m332.84,1715.59v332.84H0v-332.84h332.84Zm-7.4,325.44v-318.03H7.4v318.03h318.03Z"/>
      </g>
      <g>
        <rect class="cls-12" x="3.7" y="2044.73" width="325.43" height="325.43" transform="translate(-2041.03 2373.86) rotate(-90)"/>
        <path class="cls-2" d="m332.84,2041.03v332.84H0v-332.84h332.84Zm-7.4,325.43v-318.03H7.4v318.03h318.03Z"/>
      </g>
      <g>
        <rect class="cls-12" x="125.74" y="2248.12" width="81.36" height="325.43" transform="translate(-2244.42 2577.26) rotate(-90)"/>
        <path class="cls-2" d="m332.84,2366.46v88.76H0v-88.76h332.84Zm-7.4,81.36v-73.96H7.4v73.96h318.03Z"/>
      </g>
      <g>
        <rect class="cls-12" x="329.13" y="417.55" width="325.43" height="325.43" transform="translate(-88.42 1072.12) rotate(-90)"/>
        <path class="cls-2" d="m658.27,413.85v332.84h-332.84v-332.84h332.84Zm-7.4,325.43v-318.03h-318.03v318.03h318.03Z"/>
      </g>
      <g>
        <rect class="cls-12" x="329.13" y="742.99" width="325.43" height="325.43" transform="translate(-413.85 1397.56) rotate(-90)"/>
        <path class="cls-2" d="m658.27,739.29v332.84h-332.84v-332.84h332.84Zm-7.4,325.43v-318.03h-318.03v318.03h318.03Z"/>
      </g>
      <g>
        <rect class="cls-12" x="329.13" y="1068.42" width="325.43" height="325.43" transform="translate(-739.29 1722.99) rotate(-90)"/>
        <path class="cls-2" d="m658.27,1064.72v332.84h-332.84v-332.84h332.84Zm-7.4,325.44v-318.03h-318.03v318.03h318.03Z"/>
      </g>
      <g>
        <rect class="cls-12" x="329.13" y="1393.86" width="325.43" height="325.43" transform="translate(-1064.72 2048.43) rotate(-90)"/>
        <path class="cls-2" d="m658.27,1390.16v332.84h-332.84v-332.84h332.84Zm-7.4,325.43v-318.03h-318.03v318.03h318.03Z"/>
      </g>
      <g>
        <rect class="cls-12" x="329.13" y="1719.29" width="325.43" height="325.43" transform="translate(-1390.16 2373.86) rotate(-90)"/>
        <path class="cls-2" d="m658.27,1715.59v332.84h-332.84v-332.84h332.84Zm-7.4,325.44v-318.03h-318.03v318.03h318.03Z"/>
      </g>
      <g>
        <rect class="cls-12" x="329.13" y="2044.73" width="325.43" height="325.43" transform="translate(-1715.59 2699.3) rotate(-90)"/>
        <path class="cls-2" d="m658.27,2041.03v332.84h-332.84v-332.84h332.84Zm-7.4,325.43v-318.03h-318.03v318.03h318.03Z"/>
      </g>
      <g>
        <rect class="cls-12" x="451.17" y="2248.12" width="81.36" height="325.43" transform="translate(-1918.99 2902.69) rotate(-90)"/>
        <path class="cls-2" d="m658.27,2366.46v88.76h-332.84v-88.76h332.84Zm-7.4,81.36v-73.96h-318.03v73.96h318.03Z"/>
      </g>
      <g>
        <rect class="cls-12" x="654.57" y="417.55" width="325.43" height="325.43" transform="translate(237.02 1397.56) rotate(-90)"/>
        <path class="cls-2" d="m983.71,413.85v332.84h-332.84v-332.84h332.84Zm-7.4,325.43v-318.03h-318.03v318.03h318.03Z"/>
      </g>
      <g>
        <rect class="cls-12" x="654.57" y="742.99" width="325.43" height="325.43" transform="translate(-88.42 1722.99) rotate(-90)"/>
        <path class="cls-2" d="m983.71,739.29v332.84h-332.84v-332.84h332.84Zm-7.4,325.43v-318.03h-318.03v318.03h318.03Z"/>
      </g>
      <g>
        <rect class="cls-12" x="654.57" y="1068.42" width="325.43" height="325.43" transform="translate(-413.85 2048.43) rotate(-90)"/>
        <path class="cls-2" d="m983.71,1064.72v332.84h-332.84v-332.84h332.84Zm-7.4,325.44v-318.03h-318.03v318.03h318.03Z"/>
      </g>
      <g>
        <rect class="cls-12" x="654.57" y="1393.86" width="325.43" height="325.43" transform="translate(-739.29 2373.86) rotate(-90)"/>
        <path class="cls-2" d="m983.71,1390.16v332.84h-332.84v-332.84h332.84Zm-7.4,325.43v-318.03h-318.03v318.03h318.03Z"/>
      </g>
      <g>
        <rect class="cls-12" x="654.57" y="1719.29" width="325.43" height="325.43" transform="translate(-1064.72 2699.3) rotate(-90)"/>
        <path class="cls-2" d="m983.71,1715.59v332.84h-332.84v-332.84h332.84Zm-7.4,325.44v-318.03h-318.03v318.03h318.03Z"/>
      </g>
      <g>
        <rect class="cls-12" x="654.57" y="2044.73" width="325.43" height="325.43" transform="translate(-1390.16 3024.73) rotate(-90)"/>
        <path class="cls-2" d="m983.71,2041.03v332.84h-332.84v-332.84h332.84Zm-7.4,325.43v-318.03h-318.03v318.03h318.03Z"/>
      </g>
      <g>
        <rect class="cls-12" x="776.61" y="2248.12" width="81.36" height="325.43" transform="translate(-1593.55 3228.13) rotate(-90)"/>
        <path class="cls-2" d="m983.71,2366.46v88.76h-332.84v-88.76h332.84Zm-7.4,81.36v-73.96h-318.03v73.96h318.03Z"/>
      </g>
      <g>
        <rect class="cls-12" x="980" y="417.55" width="325.43" height="325.44" transform="translate(562.45 1722.99) rotate(-90)"/>
        <path class="cls-2" d="m1309.14,413.85v332.84h-332.84v-332.84h332.84Zm-7.4,325.43v-318.03h-318.03v318.03h318.03Z"/>
      </g>
      <g>
        <rect class="cls-12" x="980" y="742.99" width="325.43" height="325.44" transform="translate(237.02 2048.43) rotate(-90)"/>
        <path class="cls-2" d="m1309.14,739.29v332.84h-332.84v-332.84h332.84Zm-7.4,325.43v-318.03h-318.03v318.03h318.03Z"/>
      </g>
      <g>
        <rect class="cls-12" x="980" y="1068.42" width="325.43" height="325.44" transform="translate(-88.42 2373.86) rotate(-90)"/>
        <path class="cls-2" d="m1309.14,1064.72v332.84h-332.84v-332.84h332.84Zm-7.4,325.44v-318.03h-318.03v318.03h318.03Z"/>
      </g>
      <g>
        <rect class="cls-12" x="980" y="1393.86" width="325.43" height="325.44" transform="translate(-413.85 2699.3) rotate(-90)"/>
        <path class="cls-2" d="m1309.14,1390.16v332.84h-332.84v-332.84h332.84Zm-7.4,325.43v-318.03h-318.03v318.03h318.03Z"/>
      </g>
      <g>
        <rect class="cls-12" x="980" y="1719.29" width="325.43" height="325.44" transform="translate(-739.29 3024.73) rotate(-90)"/>
        <path class="cls-2" d="m1309.14,1715.59v332.84h-332.84v-332.84h332.84Zm-7.4,325.44v-318.03h-318.03v318.03h318.03Z"/>
      </g>
      <g>
        <rect class="cls-12" x="980" y="2044.73" width="325.43" height="325.44" transform="translate(-1064.72 3350.17) rotate(-90)"/>
        <path class="cls-2" d="m1309.14,2041.03v332.84h-332.84v-332.84h332.84Zm-7.4,325.43v-318.03h-318.03v318.03h318.03Z"/>
      </g>
      <g>
        <rect class="cls-12" x="1102.04" y="2248.12" width="81.36" height="325.44" transform="translate(-1268.12 3553.56) rotate(-90)"/>
        <path class="cls-2" d="m1309.14,2366.46v88.76h-332.84v-88.76h332.84Zm-7.4,81.36v-73.96h-318.03v73.96h318.03Z"/>
      </g>
      <g>
        <rect class="cls-12" x="1305.44" y="417.55" width="325.43" height="325.43" transform="translate(887.89 2048.43) rotate(-90)"/>
        <path class="cls-2" d="m1634.57,413.85v332.84h-332.84v-332.84h332.84Zm-7.4,325.43v-318.03h-318.03v318.03h318.03Z"/>
      </g>
      <g>
        <rect class="cls-12" x="1305.44" y="742.99" width="325.43" height="325.43" transform="translate(562.45 2373.86) rotate(-90)"/>
        <path class="cls-2" d="m1634.57,739.29v332.84h-332.84v-332.84h332.84Zm-7.4,325.43v-318.03h-318.03v318.03h318.03Z"/>
      </g>
      <g>
        <rect class="cls-12" x="1305.44" y="1068.42" width="325.43" height="325.43" transform="translate(237.02 2699.3) rotate(-90)"/>
        <path class="cls-2" d="m1634.57,1064.72v332.84h-332.84v-332.84h332.84Zm-7.4,325.44v-318.03h-318.03v318.03h318.03Z"/>
      </g>
      <g>
        <rect class="cls-12" x="1305.44" y="1393.86" width="325.43" height="325.43" transform="translate(-88.42 3024.73) rotate(-90)"/>
        <path class="cls-2" d="m1634.57,1390.16v332.84h-332.84v-332.84h332.84Zm-7.4,325.43v-318.03h-318.03v318.03h318.03Z"/>
      </g>
      <g>
        <rect class="cls-12" x="1305.44" y="1719.29" width="325.43" height="325.43" transform="translate(-413.85 3350.17) rotate(-90)"/>
        <path class="cls-2" d="m1634.57,1715.59v332.84h-332.84v-332.84h332.84Zm-7.4,325.44v-318.03h-318.03v318.03h318.03Z"/>
      </g>
      <g>
        <rect class="cls-12" x="1305.44" y="2044.73" width="325.43" height="325.43" transform="translate(-739.29 3675.6) rotate(-90)"/>
        <path class="cls-2" d="m1634.57,2041.03v332.84h-332.84v-332.84h332.84Zm-7.4,325.43v-318.03h-318.03v318.03h318.03Z"/>
      </g>
      <g>
        <rect class="cls-12" x="1427.48" y="2248.12" width="81.36" height="325.43" transform="translate(-942.68 3879) rotate(-90)"/>
        <path class="cls-2" d="m1634.57,2366.46v88.76h-332.84v-88.76h332.84Zm-7.4,81.36v-73.96h-318.03v73.96h318.03Z"/>
      </g>
      <g>
        <rect class="cls-12" x="1630.87" y="417.55" width="325.43" height="325.44" transform="translate(1213.32 2373.86) rotate(-90)"/>
        <path class="cls-2" d="m1960.01,413.85v332.84h-332.84v-332.84h332.84Zm-7.4,325.43v-318.03h-318.03v318.03h318.03Z"/>
      </g>
      <g>
        <rect class="cls-12" x="1630.87" y="742.99" width="325.43" height="325.44" transform="translate(887.89 2699.3) rotate(-90)"/>
        <path class="cls-2" d="m1960.01,739.29v332.84h-332.84v-332.84h332.84Zm-7.4,325.43v-318.03h-318.03v318.03h318.03Z"/>
      </g>
      <g>
        <rect class="cls-12" x="1630.87" y="1068.42" width="325.43" height="325.44" transform="translate(562.45 3024.73) rotate(-90)"/>
        <path class="cls-2" d="m1960.01,1064.72v332.84h-332.84v-332.84h332.84Zm-7.4,325.44v-318.03h-318.03v318.03h318.03Z"/>
      </g>
      <g>
        <rect class="cls-12" x="1630.87" y="1393.86" width="325.43" height="325.44" transform="translate(237.02 3350.17) rotate(-90)"/>
        <path class="cls-2" d="m1960.01,1390.16v332.84h-332.84v-332.84h332.84Zm-7.4,325.43v-318.03h-318.03v318.03h318.03Z"/>
      </g>
      <g>
        <rect class="cls-12" x="1630.87" y="1719.29" width="325.43" height="325.44" transform="translate(-88.42 3675.6) rotate(-90)"/>
        <path class="cls-2" d="m1960.01,1715.59v332.84h-332.84v-332.84h332.84Zm-7.4,325.44v-318.03h-318.03v318.03h318.03Z"/>
      </g>
      <g>
        <rect class="cls-12" x="1630.87" y="2044.73" width="325.43" height="325.44" transform="translate(-413.85 4001.03) rotate(-90)"/>
        <path class="cls-2" d="m1960.01,2041.03v332.84h-332.84v-332.84h332.84Zm-7.4,325.43v-318.03h-318.03v318.03h318.03Z"/>
      </g>
      <g>
        <rect class="cls-12" x="1752.91" y="2248.12" width="81.36" height="325.44" transform="translate(-617.25 4204.43) rotate(-90)"/>
        <path class="cls-2" d="m1960.01,2366.46v88.76h-332.84v-88.76h332.84Zm-7.4,81.36v-73.96h-318.03v73.96h318.03Z"/>
      </g>
      <g>
        <rect class="cls-12" x="1956.31" y="417.55" width="325.43" height="325.43" transform="translate(1538.75 2699.3) rotate(-90)"/>
        <path class="cls-2" d="m2285.44,413.85v332.84h-332.84v-332.84h332.84Zm-7.4,325.43v-318.03h-318.03v318.03h318.03Z"/>
      </g>
      <g>
        <rect class="cls-12" x="1956.31" y="742.99" width="325.43" height="325.43" transform="translate(1213.32 3024.73) rotate(-90)"/>
        <path class="cls-2" d="m2285.44,739.29v332.84h-332.84v-332.84h332.84Zm-7.4,325.43v-318.03h-318.03v318.03h318.03Z"/>
      </g>
      <g>
        <rect class="cls-12" x="1956.31" y="1068.42" width="325.43" height="325.43" transform="translate(887.89 3350.17) rotate(-90)"/>
        <path class="cls-2" d="m2285.44,1064.72v332.84h-332.84v-332.84h332.84Zm-7.4,325.44v-318.03h-318.03v318.03h318.03Z"/>
      </g>
      <g>
        <rect class="cls-12" x="1956.31" y="1393.86" width="325.43" height="325.43" transform="translate(562.45 3675.6) rotate(-90)"/>
        <path class="cls-2" d="m2285.44,1390.16v332.84h-332.84v-332.84h332.84Zm-7.4,325.43v-318.03h-318.03v318.03h318.03Z"/>
      </g>
      <g>
        <rect class="cls-12" x="1956.31" y="1719.29" width="325.43" height="325.43" transform="translate(237.02 4001.03) rotate(-90)"/>
        <path class="cls-2" d="m2285.44,1715.59v332.84h-332.84v-332.84h332.84Zm-7.4,325.44v-318.03h-318.03v318.03h318.03Z"/>
      </g>
      <g>
        <rect class="cls-12" x="1956.31" y="2044.73" width="325.43" height="325.43" transform="translate(-88.42 4326.47) rotate(-90)"/>
        <path class="cls-2" d="m2285.44,2041.03v332.84h-332.84v-332.84h332.84Zm-7.4,325.43v-318.03h-318.03v318.03h318.03Z"/>
      </g>
      <g>
        <rect class="cls-12" x="2078.35" y="2248.12" width="81.36" height="325.43" transform="translate(-291.82 4529.87) rotate(-90)"/>
        <path class="cls-2" d="m2285.44,2366.46v88.76h-332.84v-88.76h332.84Zm-7.4,81.36v-73.96h-318.03v73.96h318.03Z"/>
      </g>
      <g>
        <rect class="cls-12" x="2281.74" y="417.55" width="325.43" height="325.44" transform="translate(1864.19 3024.73) rotate(-90)"/>
        <path class="cls-2" d="m2610.88,413.85v332.84h-332.84v-332.84h332.84Zm-7.4,325.43v-318.03h-318.03v318.03h318.03Z"/>
      </g>
      <g>
        <rect class="cls-12" x="2281.74" y="742.99" width="325.43" height="325.44" transform="translate(1538.75 3350.17) rotate(-90)"/>
        <path class="cls-2" d="m2610.88,739.29v332.84h-332.84v-332.84h332.84Zm-7.4,325.43v-318.03h-318.03v318.03h318.03Z"/>
      </g>
      <g>
        <rect class="cls-12" x="2281.74" y="1068.42" width="325.43" height="325.44" transform="translate(1213.32 3675.6) rotate(-90)"/>
        <path class="cls-2" d="m2610.88,1064.72v332.84h-332.84v-332.84h332.84Zm-7.4,325.44v-318.03h-318.03v318.03h318.03Z"/>
      </g>
      <g>
        <rect class="cls-12" x="2281.74" y="1393.86" width="325.43" height="325.44" transform="translate(887.89 4001.03) rotate(-90)"/>
        <path class="cls-2" d="m2610.88,1390.16v332.84h-332.84v-332.84h332.84Zm-7.4,325.43v-318.03h-318.03v318.03h318.03Z"/>
      </g>
      <g>
        <rect class="cls-12" x="2281.74" y="1719.29" width="325.43" height="325.44" transform="translate(562.45 4326.47) rotate(-90)"/>
        <path class="cls-2" d="m2610.88,1715.59v332.84h-332.84v-332.84h332.84Zm-7.4,325.44v-318.03h-318.03v318.03h318.03Z"/>
      </g>
      <g>
        <rect class="cls-12" x="2281.74" y="2044.73" width="325.43" height="325.44" transform="translate(237.02 4651.9) rotate(-90)"/>
        <path class="cls-2" d="m2610.88,2041.03v332.84h-332.84v-332.84h332.84Zm-7.4,325.43v-318.03h-318.03v318.03h318.03Z"/>
      </g>
      <g>
        <rect class="cls-12" x="2403.78" y="2248.12" width="81.36" height="325.44" transform="translate(33.62 4855.3) rotate(-90)"/>
        <path class="cls-2" d="m2610.88,2366.46v88.76h-332.84v-88.76h332.84Zm-7.4,81.36v-73.96h-318.03v73.96h318.03Z"/>
      </g>
      <g>
        <rect class="cls-12" x="2769.89" y="92.12" width="325.43" height="325.43" transform="translate(2677.78 3187.45) rotate(-90)"/>
        <path class="cls-2" d="m3099.03,88.42v332.84h-332.84V88.42h332.84Zm-7.4,325.43V95.82h-318.03v318.03h318.03Z"/>
      </g>
      <g>
        <rect class="cls-12" x="2769.89" y="417.55" width="325.43" height="325.43" transform="translate(2352.34 3512.88) rotate(-90)"/>
        <path class="cls-2" d="m3099.03,413.85v332.84h-332.84v-332.84h332.84Zm-7.4,325.43v-318.03h-318.03v318.03h318.03Z"/>
      </g>
      <g>
        <rect class="cls-12" x="2769.89" y="742.99" width="325.43" height="325.43" transform="translate(2026.91 3838.32) rotate(-90)"/>
        <path class="cls-2" d="m3099.03,739.29v332.84h-332.84v-332.84h332.84Zm-7.4,325.43v-318.03h-318.03v318.03h318.03Z"/>
      </g>
      <g>
        <rect class="cls-12" x="2769.89" y="1068.42" width="325.43" height="325.43" transform="translate(1701.47 4163.75) rotate(-90)"/>
        <path class="cls-2" d="m3099.03,1064.72v332.84h-332.84v-332.84h332.84Zm-7.4,325.44v-318.03h-318.03v318.03h318.03Z"/>
      </g>
      <g>
        <rect class="cls-12" x="2769.89" y="1393.86" width="325.43" height="325.43" transform="translate(1376.04 4489.19) rotate(-90)"/>
        <path class="cls-2" d="m3099.03,1390.16v332.84h-332.84v-332.84h332.84Zm-7.4,325.43v-318.03h-318.03v318.03h318.03Z"/>
      </g>
      <g>
        <rect class="cls-12" x="2525.82" y="173.48" width="325.43" height="162.72" transform="translate(2433.7 2943.37) rotate(-90)"/>
        <path class="cls-2" d="m2773.6,88.42v332.84h-170.12V88.42h170.12Zm-7.4,325.43V95.82h-155.31v318.03h155.31Z"/>
      </g>
      <g>
        <rect class="cls-12" x="2525.82" y="498.91" width="325.43" height="162.72" transform="translate(2108.27 3268.81) rotate(-90)"/>
        <path class="cls-2" d="m2773.6,413.85v332.84h-170.12v-332.84h170.12Zm-7.4,325.43v-318.03h-155.31v318.03h155.31Z"/>
      </g>
      <g>
        <rect class="cls-12" x="2525.82" y="824.35" width="325.43" height="162.72" transform="translate(1782.83 3594.24) rotate(-90)"/>
        <path class="cls-2" d="m2773.6,739.29v332.84h-170.12v-332.84h170.12Zm-7.4,325.43v-318.03h-155.31v318.03h155.31Z"/>
      </g>
      <g>
        <rect class="cls-12" x="2525.82" y="1149.78" width="325.43" height="162.72" transform="translate(1457.4 3919.68) rotate(-90)"/>
        <path class="cls-2" d="m2773.6,1064.72v332.84h-170.12v-332.84h170.12Zm-7.4,325.44v-318.03h-155.31v318.03h155.31Z"/>
      </g>
      <g>
        <rect class="cls-12" x="2525.82" y="1475.22" width="325.43" height="162.72" transform="translate(1131.96 4245.11) rotate(-90)"/>
        <path class="cls-2" d="m2773.6,1390.16v332.84h-170.12v-332.84h170.12Zm-7.4,325.43v-318.03h-155.31v318.03h155.31Z"/>
      </g>
      <g>
        <rect class="cls-12" x="2769.89" y="1719.29" width="325.43" height="325.43" transform="translate(1050.6 4814.62) rotate(-90)"/>
        <path class="cls-2" d="m3099.03,1715.59v332.84h-332.84v-332.84h332.84Zm-7.4,325.44v-318.03h-318.03v318.03h318.03Z"/>
      </g>
      <g>
        <rect class="cls-12" x="2769.89" y="2044.73" width="325.43" height="325.43" transform="translate(725.17 5140.06) rotate(-90)"/>
        <path class="cls-2" d="m3099.03,2041.03v332.84h-332.84v-332.84h332.84Zm-7.4,325.43v-318.03h-318.03v318.03h318.03Z"/>
      </g>
      <g>
        <rect class="cls-12" x="2891.93" y="2248.12" width="81.36" height="325.43" transform="translate(521.77 5343.45) rotate(-90)"/>
        <path class="cls-2" d="m3099.03,2366.46v88.76h-332.84v-88.76h332.84Zm-7.4,81.36v-73.96h-318.03v73.96h318.03Z"/>
      </g>
      <g>
        <rect class="cls-12" x="3095.33" y="92.12" width="325.43" height="325.43" transform="translate(3003.21 3512.88) rotate(-90)"/>
        <path class="cls-2" d="m3424.46,88.42v332.84h-332.84V88.42h332.84Zm-7.4,325.43V95.82h-318.03v318.03h318.03Z"/>
      </g>
      <g>
        <rect class="cls-12" x="3095.33" y="417.55" width="325.43" height="325.43" transform="translate(2677.78 3838.32) rotate(-90)"/>
        <path class="cls-2" d="m3424.46,413.85v332.84h-332.84v-332.84h332.84Zm-7.4,325.43v-318.03h-318.03v318.03h318.03Z"/>
      </g>
      <g>
        <rect class="cls-12" x="3095.33" y="742.99" width="325.43" height="325.43" transform="translate(2352.34 4163.75) rotate(-90)"/>
        <path class="cls-2" d="m3424.46,739.29v332.84h-332.84v-332.84h332.84Zm-7.4,325.43v-318.03h-318.03v318.03h318.03Z"/>
      </g>
      <g>
        <rect class="cls-12" x="3095.33" y="1068.42" width="325.43" height="325.43" transform="translate(2026.91 4489.19) rotate(-90)"/>
        <path class="cls-2" d="m3424.46,1064.72v332.84h-332.84v-332.84h332.84Zm-7.4,325.44v-318.03h-318.03v318.03h318.03Z"/>
      </g>
      <g>
        <rect class="cls-12" x="3095.33" y="1393.86" width="325.43" height="325.43" transform="translate(1701.47 4814.62) rotate(-90)"/>
        <path class="cls-2" d="m3424.46,1390.16v332.84h-332.84v-332.84h332.84Zm-7.4,325.43v-318.03h-318.03v318.03h318.03Z"/>
      </g>
      <g>
        <rect class="cls-12" x="3095.33" y="1719.29" width="325.43" height="325.43" transform="translate(1376.04 5140.06) rotate(-90)"/>
        <path class="cls-2" d="m3424.46,1715.59v332.84h-332.84v-332.84h332.84Zm-7.4,325.44v-318.03h-318.03v318.03h318.03Z"/>
      </g>
      <g>
        <rect class="cls-12" x="3095.33" y="2044.73" width="325.43" height="325.43" transform="translate(1050.6 5465.49) rotate(-90)"/>
        <path class="cls-2" d="m3424.46,2041.03v332.84h-332.84v-332.84h332.84Zm-7.4,325.43v-318.03h-318.03v318.03h318.03Z"/>
      </g>
      <g>
        <rect class="cls-12" x="3217.37" y="2248.12" width="81.36" height="325.43" transform="translate(847.21 5668.89) rotate(-90)"/>
        <path class="cls-2" d="m3424.46,2366.46v88.76h-332.84v-88.76h332.84Zm-7.4,81.36v-73.96h-318.03v73.96h318.03Z"/>
      </g>
      <g>
        <rect class="cls-12" x="3420.76" y="92.12" width="325.43" height="325.44" transform="translate(3328.64 3838.32) rotate(-90)"/>
        <path class="cls-2" d="m3749.9,88.42v332.84h-332.84V88.42h332.84Zm-7.4,325.43V95.82h-318.03v318.03h318.03Z"/>
      </g>
      <g>
        <rect class="cls-12" x="3420.76" y="417.55" width="325.43" height="325.44" transform="translate(3003.21 4163.75) rotate(-90)"/>
        <path class="cls-2" d="m3749.9,413.85v332.84h-332.84v-332.84h332.84Zm-7.4,325.43v-318.03h-318.03v318.03h318.03Z"/>
      </g>
      <g>
        <rect class="cls-12" x="3420.76" y="742.99" width="325.43" height="325.44" transform="translate(2677.78 4489.19) rotate(-90)"/>
        <path class="cls-2" d="m3749.9,739.29v332.84h-332.84v-332.84h332.84Zm-7.4,325.43v-318.03h-318.03v318.03h318.03Z"/>
      </g>
      <g>
        <rect class="cls-12" x="3420.76" y="1068.42" width="325.43" height="325.44" transform="translate(2352.34 4814.62) rotate(-90)"/>
        <path class="cls-2" d="m3749.9,1064.72v332.84h-332.84v-332.84h332.84Zm-7.4,325.44v-318.03h-318.03v318.03h318.03Z"/>
      </g>
      <g>
        <rect class="cls-12" x="3420.76" y="1393.86" width="325.43" height="325.44" transform="translate(2026.91 5140.06) rotate(-90)"/>
        <path class="cls-2" d="m3749.9,1390.16v332.84h-332.84v-332.84h332.84Zm-7.4,325.43v-318.03h-318.03v318.03h318.03Z"/>
      </g>
      <g>
        <rect class="cls-12" x="3420.76" y="1719.29" width="325.43" height="325.44" transform="translate(1701.47 5465.49) rotate(-90)"/>
        <path class="cls-2" d="m3749.9,1715.59v332.84h-332.84v-332.84h332.84Zm-7.4,325.44v-318.03h-318.03v318.03h318.03Z"/>
      </g>
      <g>
        <rect class="cls-12" x="3420.76" y="2044.73" width="325.43" height="325.44" transform="translate(1376.04 5790.93) rotate(-90)"/>
        <path class="cls-2" d="m3749.9,2041.03v332.84h-332.84v-332.84h332.84Zm-7.4,325.43v-318.03h-318.03v318.03h318.03Z"/>
      </g>
      <g>
        <rect class="cls-12" x="3542.8" y="2248.12" width="81.36" height="325.44" transform="translate(1172.64 5994.32) rotate(-90)"/>
        <path class="cls-2" d="m3749.9,2366.46v88.76h-332.84v-88.76h332.84Zm-7.4,81.36v-73.96h-318.03v73.96h318.03Z"/>
      </g>
      <g>
        <rect class="cls-12" x="3746.2" y="92.12" width="325.43" height="325.43" transform="translate(3654.08 4163.75) rotate(-90)"/>
        <path class="cls-2" d="m4075.33,88.42v332.84h-332.84V88.42h332.84Zm-7.4,325.43V95.82h-318.03v318.03h318.03Z"/>
      </g>
      <g>
        <rect class="cls-12" x="3746.2" y="417.55" width="325.43" height="325.43" transform="translate(3328.64 4489.19) rotate(-90)"/>
        <path class="cls-2" d="m4075.33,413.85v332.84h-332.84v-332.84h332.84Zm-7.4,325.43v-318.03h-318.03v318.03h318.03Z"/>
      </g>
      <g>
        <rect class="cls-12" x="3746.2" y="742.99" width="325.43" height="325.43" transform="translate(3003.21 4814.62) rotate(-90)"/>
        <path class="cls-2" d="m4075.33,739.29v332.84h-332.84v-332.84h332.84Zm-7.4,325.43v-318.03h-318.03v318.03h318.03Z"/>
      </g>
      <g>
        <rect class="cls-12" x="3746.2" y="1068.42" width="325.43" height="325.43" transform="translate(2677.78 5140.06) rotate(-90)"/>
        <path class="cls-2" d="m4075.33,1064.72v332.84h-332.84v-332.84h332.84Zm-7.4,325.44v-318.03h-318.03v318.03h318.03Z"/>
      </g>
      <g>
        <rect class="cls-12" x="3746.2" y="1393.86" width="325.43" height="325.43" transform="translate(2352.34 5465.49) rotate(-90)"/>
        <path class="cls-2" d="m4075.33,1390.16v332.84h-332.84v-332.84h332.84Zm-7.4,325.43v-318.03h-318.03v318.03h318.03Z"/>
      </g>
      <g>
        <rect class="cls-12" x="3746.2" y="1719.29" width="325.43" height="325.43" transform="translate(2026.91 5790.93) rotate(-90)"/>
        <path class="cls-2" d="m4075.33,1715.59v332.84h-332.84v-332.84h332.84Zm-7.4,325.44v-318.03h-318.03v318.03h318.03Z"/>
      </g>
      <g>
        <rect class="cls-12" x="3746.2" y="2044.73" width="325.43" height="325.43" transform="translate(1701.47 6116.36) rotate(-90)"/>
        <path class="cls-2" d="m4075.33,2041.03v332.84h-332.84v-332.84h332.84Zm-7.4,325.43v-318.03h-318.03v318.03h318.03Z"/>
      </g>
      <g>
        <rect class="cls-12" x="3868.24" y="2248.12" width="81.36" height="325.43" transform="translate(1498.08 6319.76) rotate(-90)"/>
        <path class="cls-2" d="m4075.33,2366.46v88.76h-332.84v-88.76h332.84Zm-7.4,81.36v-73.96h-318.03v73.96h318.03Z"/>
      </g>
      <g>
        <rect class="cls-12" x="3990.27" y="173.48" width="325.43" height="162.72" transform="translate(3898.16 4407.83) rotate(-90)"/>
        <path class="cls-2" d="m4238.05,88.42v332.84h-170.12V88.42h170.12Zm-7.4,325.43V95.82h-155.32v318.03h155.32Z"/>
      </g>
      <g>
        <rect class="cls-12" x="3990.27" y="498.91" width="325.43" height="162.72" transform="translate(3572.72 4733.26) rotate(-90)"/>
        <path class="cls-2" d="m4238.05,413.85v332.84h-170.12v-332.84h170.12Zm-7.4,325.43v-318.03h-155.32v318.03h155.32Z"/>
      </g>
      <g>
        <rect class="cls-12" x="3990.27" y="824.35" width="325.43" height="162.72" transform="translate(3247.29 5058.7) rotate(-90)"/>
        <path class="cls-2" d="m4238.05,739.29v332.84h-170.12v-332.84h170.12Zm-7.4,325.43v-318.03h-155.32v318.03h155.32Z"/>
      </g>
      <g>
        <rect class="cls-12" x="3990.27" y="1149.78" width="325.43" height="162.72" transform="translate(2921.85 5384.13) rotate(-90)"/>
        <path class="cls-2" d="m4238.05,1064.72v332.84h-170.12v-332.84h170.12Zm-7.4,325.44v-318.03h-155.32v318.03h155.32Z"/>
      </g>
      <g>
        <rect class="cls-12" x="3990.27" y="1475.22" width="325.43" height="162.72" transform="translate(2596.42 5709.57) rotate(-90)"/>
        <path class="cls-2" d="m4238.05,1390.16v332.84h-170.12v-332.84h170.12Zm-7.4,325.43v-318.03h-155.32v318.03h155.32Z"/>
      </g>
      <g>
        <rect class="cls-12" x="3990.27" y="1800.65" width="325.43" height="162.72" transform="translate(2270.98 6035) rotate(-90)"/>
        <path class="cls-2" d="m4238.05,1715.59v332.84h-170.12v-332.84h170.12Zm-7.4,325.44v-318.03h-155.32v318.03h155.32Z"/>
      </g>
      <g>
        <rect class="cls-12" x="3990.27" y="2126.09" width="325.43" height="162.72" transform="translate(1945.55 6360.44) rotate(-90)"/>
        <path class="cls-2" d="m4238.05,2041.03v332.84h-170.12v-332.84h170.12Zm-7.4,325.43v-318.03h-155.32v318.03h155.32Z"/>
      </g>
      <g>
        <rect class="cls-12" x="4112.31" y="2329.48" width="81.36" height="162.72" transform="translate(1742.15 6563.83) rotate(-90)"/>
        <path class="cls-2" d="m4238.05,2366.46v88.76h-170.12v-88.76h170.12Zm-7.4,81.36v-73.96h-155.32v73.96h155.32Z"/>
      </g>
    </g>
    <g class="cls-3">
      <rect class="cls-4" x="2827.84" y="2085.4" width="162.72" height="162.72" transform="translate(742.43 5075.96) rotate(-90)"/>
      <rect class="cls-14" x="2835.97" y="2093.54" width="146.45" height="146.45" transform="translate(742.43 5075.96) rotate(-90)"/>
      <g>
        <path class="cls-17" d="m2973.47,2226.1h0c0,2.23-1.82,4.05-4.05,4.05h-120.45c-2.23,0-4.05-1.82-4.05-4.05h0c0-2.23,1.82-4.05,4.05-4.05h120.45c2.23,0,4.05,1.82,4.05,4.05Z"/>
        <path class="cls-17" d="m2973.47,2209.15h0c0,2.23-1.82,4.05-4.05,4.05h-120.45c-2.23,0-4.05-1.82-4.05-4.05h0c0-2.23,1.82-4.05,4.05-4.05h120.45c2.23,0,4.05,1.82,4.05,4.05Z"/>
        <path class="cls-17" d="m2973.47,2192.19h0c0,2.23-1.82,4.05-4.05,4.05h-120.45c-2.23,0-4.05-1.82-4.05-4.05h0c0-2.23,1.82-4.05,4.05-4.05h120.45c2.23,0,4.05,1.82,4.05,4.05Z"/>
        <path class="cls-17" d="m2973.47,2175.24h0c0,2.23-1.82,4.05-4.05,4.05h-120.45c-2.23,0-4.05-1.82-4.05-4.05h0c0-2.23,1.82-4.05,4.05-4.05h120.45c2.23,0,4.05,1.82,4.05,4.05Z"/>
        <path class="cls-17" d="m2973.47,2158.29h0c0,2.23-1.82,4.05-4.05,4.05h-120.45c-2.23,0-4.05-1.82-4.05-4.05h0c0-2.23,1.82-4.05,4.05-4.05h120.45c2.23,0,4.05,1.82,4.05,4.05Z"/>
        <path class="cls-17" d="m2973.47,2141.33h0c0,2.23-1.82,4.05-4.05,4.05h-120.45c-2.23,0-4.05-1.82-4.05-4.05h0c0-2.23,1.82-4.05,4.05-4.05h120.45c2.23,0,4.05,1.82,4.05,4.05Z"/>
        <path class="cls-17" d="m2973.47,2124.38h0c0,2.23-1.82,4.05-4.05,4.05h-120.45c-2.23,0-4.05-1.82-4.05-4.05h0c0-2.23,1.82-4.05,4.05-4.05h120.45c2.23,0,4.05,1.82,4.05,4.05Z"/>
        <path class="cls-17" d="m2973.47,2107.43h0c0,2.23-1.82,4.05-4.05,4.05h-120.45c-2.23,0-4.05-1.82-4.05-4.05h0c0-2.23,1.82-4.05,4.05-4.05h120.45c2.23,0,4.05,1.82,4.05,4.05Z"/>
      </g>
    </g>
  </g>
  <g id="Layer_1" data-name="Layer 1">
    <g id="LWPOLYLINE" class="cls-6">
      <rect class="cls-1" x="2607.18" y="92.12" width="162.72" height="1627.17"/>
    </g>
    <g id="LWPOLYLINE-2" data-name="LWPOLYLINE">
      <rect class="cls-9" x="2769.89" y="2288.8" width="1464.46" height="162.72"/>
    </g>
    <g>
      <g class="cls-6">
        <g id="LWPOLYLINE-3" data-name="LWPOLYLINE">
          <polygon class="cls-11" points="258.58 139.87 258.58 89.92 273.76 89.92 273.76 14.99 197.83 14.99 197.83 139.87 258.58 139.87 258.58 139.87"/>
        </g>
        <g id="LWPOLYLINE-4" data-name="LWPOLYLINE">
          <polygon class="cls-11" points="1351.94 139.87 1351.94 89.92 1336.75 89.92 1336.75 14.99 1412.68 14.99 1412.68 139.87 1351.94 139.87 1351.94 139.87"/>
        </g>
        <g id="LWPOLYLINE-5" data-name="LWPOLYLINE">
          <rect class="cls-11" x="258.58" y="139.87" width="60.74" height="899.15"/>
        </g>
      </g>
      <g id="ARC">
        <path class="cls-2" d="m1336.7,124.88c0,31.28-1.97,62.82-5.85,93.75l-6.87-.58c3.86-30.73,5.82-62.08,5.82-93.17h6.91Zm-10.42,124.83c-5.21,30.93-12.45,61.95-21.54,92.2l-6.71-1.36c9.03-30.05,16.23-60.88,21.4-91.61l6.84.78Zm-31.31,122.46c-10.38,30-22.82,59.9-36.97,88.86l-6.41-2.12c14.06-28.77,26.42-58.48,36.73-88.29l6.65,1.55Zm-51.81,117.77c-15.36,28.51-32.74,56.68-51.66,83.75l-5.99-2.83c18.8-26.9,36.07-54.9,51.33-83.22l6.32,2.3Zm-71.23,110.66c-20.02,26.47-41.98,52.4-65.26,77.06l-5.46-3.49c23.14-24.5,44.96-50.27,64.85-76.57l5.87,3Zm-89.15,101.46c-24.28,23.95-50.37,47.14-77.55,68.92l-4.82-4.07c27.01-21.64,52.94-44.68,77.06-68.49l5.31,3.64Zm-105.26,90.37c-28.08,20.99-57.8,41.01-88.34,59.48l-4.09-4.58c30.35-18.36,59.88-38.25,87.78-59.11l4.65,4.2Zm-119.35,77.58c-31.33,17.62-64.12,34.06-97.46,48.88l-3.29-5c33.13-14.73,65.71-31.07,96.84-48.57l3.9,4.69Zm-131.19,63.26c-34,13.88-69.25,26.43-104.78,37.3l-2.41-5.32c35.3-10.8,70.33-23.27,104.12-37.06l3.07,5.09Zm-140.7,47.7c-35.98,9.84-73.02,18.22-110.08,24.92l-1.48-5.55c36.82-6.65,73.62-14.98,109.38-24.76l2.18,5.39Zm-147.4,31.1c-37.24,5.61-75.33,9.68-113.21,12.09l-.53-5.66c37.64-2.39,75.49-6.44,112.49-12.02l1.24,5.59Zm-151.21,13.97c-15.82.56-31.9.84-47.78.84v-5.68c15.79,0,31.77-.28,47.49-.84l.3,5.68Z"/>
      </g>
      <g id="LWPOLYLINE-6" data-name="LWPOLYLINE">
        <polygon class="cls-5" points="239.89 124.88 239.89 74.93 255.07 74.93 255.07 0 179.14 0 179.14 124.88 239.89 124.88 239.89 124.88"/>
      </g>
      <g id="LWPOLYLINE-7" data-name="LWPOLYLINE">
        <polygon class="cls-5" points="1333.25 124.88 1333.25 74.93 1318.06 74.93 1318.06 0 1393.99 0 1393.99 124.88 1333.25 124.88 1333.25 124.88"/>
      </g>
      <g id="LWPOLYLINE-8" data-name="LWPOLYLINE">
        <rect class="cls-5" x="239.89" y="124.88" width="60.74" height="899.14"/>
      </g>
    </g>
    <g>
      <path class="cls-7" d="m3419.64,2117.25c-28.77,30.82-27.11,79.13,3.71,107.89,1.33,1.24,2.71,2.44,4.12,3.58,21.94,11.18,42.84,24.3,62.45,39.2,3.51,6.55,5.35,13.87,5.35,21.3v14.28h0c-1,.74-1.95,1.53-2.84,2.35h-44.17c-5.39,0-9.76,4.37-9.76,9.76v30.92c0,5.39,4.37,9.76,9.76,9.76h44.18c2.11,1.95,4.44,3.57,6.9,4.9v46.37h-1.93v15.15h-2.64c-.75,0-1.48.31-2,.86l-24.59,25.89c-.49.51-.76,1.19-.76,1.9h96.4c0-.71-.27-1.39-.76-1.9l-24.59-25.89c-.52-.55-1.24-.86-2-.86h-2.65v-15.15h-1.93v-46.38c1.39-.75,2.76-1.57,4.07-2.54,1-.74,1.94-1.53,2.84-2.35h44.17c5.39,0,9.76-4.37,9.76-9.76v-30.92c0-5.39-4.37-9.76-9.76-9.76h-44.2c-.9-.83-1.83-1.62-2.82-2.35h0v-14.28c0-7.43,1.84-14.75,5.35-21.3,19.61-14.9,40.5-28.02,62.45-39.2,32.8-26.49,37.91-74.55,11.42-107.35-1.14-1.42-2.34-2.79-3.58-4.12-24.18-27.59-59.3-43.1-95.97-42.38-36.68-.72-71.8,14.79-95.98,42.38Z"/>
      <rect class="cls-14" x="3485.85" y="2346.55" width="32.55" height="51.26"/>
      <rect class="cls-15" x="3483.92" y="2397.81" width="36.41" height="15.15"/>
      <path class="cls-14" d="m3481.27,2412.96h41.7c.75,0,1.48.31,2,.86l24.59,25.89c.49.51.76,1.19.76,1.9v9.92h-96.4v-9.92c0-.71.27-1.38.76-1.9l24.59-25.89c.52-.55,1.24-.86,2-.86Z"/>
      <path class="cls-14" d="m3434.76,2296.1h134.71c5.39,0,9.77,4.38,9.77,9.77v30.92c0,5.39-4.38,9.76-9.76,9.76h-134.72c-5.39,0-9.76-4.38-9.76-9.76v-30.92c0-5.39,4.38-9.76,9.76-9.76Z"/>
      <path class="cls-15" d="m3481.78,2293.75c-15.23,11.24-18.47,32.69-7.23,47.92,11.23,15.23,32.69,18.47,47.92,7.23,15.23-11.24,18.47-32.69,7.23-47.92-2.04-2.76-4.47-5.2-7.23-7.23h-40.69Z"/>
      <path class="cls-10" d="m3502.12,2341.67c-11.24,0-20.34-9.11-20.34-20.34v-41.86c0-7.43-1.84-14.75-5.35-21.3-19.61-14.9-40.5-28.02-62.45-39.2-1.42-1.14-2.79-2.34-4.12-3.58-30.82-28.77-32.48-77.07-3.71-107.89,24.18-27.59,59.3-43.1,95.98-42.38,36.68-.72,71.8,14.79,95.97,42.38,1.24,1.33,2.44,2.71,3.58,4.12,26.49,32.8,21.38,80.86-11.42,107.35-21.94,11.18-42.84,24.3-62.45,39.2-3.51,6.55-5.35,13.86-5.35,21.3v41.86c0,11.24-9.11,20.34-20.34,20.34Z"/>
    </g>
    <path class="cls-7" d="m2841.81,254.23l-48.32,48.32c-1.59,1.59-1.59,4.16,0,5.75l512.01,512.01c1.59,1.59,4.16,1.59,5.75,0l48.32-48.33,28.76,28.76-65.58,65.58c-7.94,7.94-20.82,7.94-28.76,0l-546.53-546.53c-7.94-7.94-7.94-20.82,0-28.76l65.58-65.58,28.77,28.77Z"/>
    <g id="LWPOLYLINE-9" data-name="LWPOLYLINE" class="cls-6">
      <path class="cls-11" d="m3432.63,698.93c7.94-7.94,20.82-7.94,28.76,0,7.94,7.94,7.94,20.82,0,28.76l-54.65,54.65-28.77-28.77,54.65-54.65h0Z"/>
    </g>
    <g id="LWPOLYLINE-10" data-name="LWPOLYLINE" class="cls-6">
      <rect class="cls-11" x="2843.45" y="195.34" width="16.27" height="40.68" transform="translate(682.66 2079.5) rotate(-45)"/>
    </g>
    <g id="LWPOLYLINE-11" data-name="LWPOLYLINE" class="cls-6">
      <rect class="cls-11" x="2696.67" y="1234.47" width="16.27" height="488.15"/>
    </g>
    <g id="LWPOLYLINE-12" data-name="LWPOLYLINE" class="cls-6">
      <rect class="cls-11" x="3101.76" y="-65.6" width="16.27" height="1139.02" transform="translate(554.55 2346.62) rotate(-45)"/>
    </g>
    <g id="LWPOLYLINE-13" data-name="LWPOLYLINE" class="cls-6">
      <rect class="cls-11" x="2841.67" y="190.62" width="4.88" height="65.09" transform="translate(675.35 2076.61) rotate(-45)"/>
    </g>
    <g id="LWPOLYLINE-14" data-name="LWPOLYLINE" class="cls-6">
      <rect class="cls-11" x="2826.71" y="205.58" width="4.88" height="65.09" transform="translate(660.37 2070.38) rotate(-45)"/>
    </g>
    <g id="LWPOLYLINE-15" data-name="LWPOLYLINE" class="cls-6">
      <rect class="cls-11" x="3388.2" y="737.15" width="4.88" height="65.09" transform="translate(448.71 2622.77) rotate(-45)"/>
    </g>
    <g id="LWPOLYLINE-16" data-name="LWPOLYLINE" class="cls-6">
      <rect class="cls-11" x="3373.24" y="752.1" width="4.88" height="65.09" transform="translate(434.02 2617) rotate(-45)"/>
    </g>
    <g>
      <polygon class="cls-7" points="1705.87 2288.8 1705.87 2058.12 1695.87 2050.97 1691.47 2046.35 1685.85 2038.05 1682.11 2029.08 1680.15 2019.05 1680.14 2010.28 1688.86 1330.92 1691.52 1296.06 1696.51 1274.82 1701.21 1261.1 1709.78 1242.23 1719.25 1226.2 1730.36 1211.14 1743.23 1197 1756.54 1185.06 1771.9 1173.85 1787.65 1164.64 1807.02 1155.96 1823.67 1150.53 1839.65 1146.91 2122.23 1146.91 2139.41 1150.87 2154.9 1155.98 2176.78 1166 2190.36 1174.1 2207.44 1186.8 2219.04 1197.39 2231.52 1211.14 2241.28 1224.19 2253.45 1244.86 2259.96 1259.3 2266.63 1279.27 2270.09 1294.54 2272.53 1313.48 2273.02 1330.92 2281.74 2010.28 2281.51 2021.08 2280.05 2028.1 2276.03 2038.05 2270.63 2046.08 2263.6 2053.05 2256.01 2058.12 2256.01 2288.8 1705.87 2288.8 1705.87 2288.8 1705.87 2288.8"/>
      <polygon class="cls-7" points="1680.14 2010.28 1680.15 2009.43 1680.15 2019.05 1680.14 2010.28"/>
      <polygon class="cls-7" points="1680.15 2019.05 1680.15 2009.43 1682.11 1856.45 1680.15 2019.05"/>
      <path class="cls-7" d="m1705.87,1250.85l3.91-8.62-3.91,8.62Z"/>
      <path class="cls-7" d="m1709.78,1242.23l9.47-16.03-9.47,16.03Z"/>
      <path class="cls-7" d="m1719.25,1226.2l11.11-15.06-11.11,15.06Z"/>
      <path class="cls-7" d="m1730.36,1211.14l12.87-14.14-12.87,14.14Z"/>
      <path class="cls-7" d="m1743.23,1197l13.31-11.94-13.31,11.94Z"/>
      <path class="cls-7" d="m1756.54,1185.06l15.36-11.21-15.36,11.21Z"/>
      <path class="cls-7" d="m1771.9,1173.85l15.76-9.21-15.76,9.21Z"/>
      <path class="cls-7" d="m1787.65,1164.64l19.37-8.68-19.37,8.68Z"/>
      <path class="cls-7" d="m1807.02,1155.96l16.65-5.43-16.65,5.43Z"/>
      <path class="cls-7" d="m1823.67,1150.53l15.98-3.63-15.98,3.63Z"/>
      <polygon class="cls-7" points="2281.51 2021.08 2280.05 1878.92 2281.51 1991.85 2281.51 2021.08"/>
      <polygon class="cls-7" points="2281.51 2021.08 2281.51 1991.85 2281.74 2010.28 2281.51 2021.08"/>
      <g id="WIPEOUT">
        <polygon class="cls-14" points="1655.5 1996.88 1655.51 1996.03 1655.51 2005.65 1655.5 1996.88"/>
        <polygon class="cls-14" points="1655.51 2005.65 1655.51 1996.03 1657.48 1843.06 1655.51 2005.65"/>
        <path class="cls-14" d="m1681.24,1237.45l3.91-8.62-3.91,8.62Z"/>
        <path class="cls-14" d="m1685.15,1228.83l9.47-16.03-9.47,16.03Z"/>
        <path class="cls-14" d="m1694.62,1212.8l11.11-15.06-11.11,15.06Z"/>
        <path class="cls-14" d="m1705.73,1197.74l12.87-14.14-12.87,14.14Z"/>
        <path class="cls-14" d="m1718.6,1183.6l13.31-11.94-13.31,11.94Z"/>
        <path class="cls-14" d="m1731.91,1171.66l15.36-11.21-15.36,11.21Z"/>
        <path class="cls-14" d="m1747.26,1160.46l15.76-9.21-15.76,9.21Z"/>
        <path class="cls-14" d="m1763.02,1151.25l19.37-8.68-19.37,8.68Z"/>
        <path class="cls-14" d="m1782.39,1142.57l16.65-5.43-16.65,5.43Z"/>
        <path class="cls-14" d="m1799.04,1137.13l15.98-3.62-15.98,3.62Z"/>
        <polygon class="cls-14" points="2256.87 2007.69 2255.42 1865.52 2256.87 1978.45 2256.87 2007.69"/>
        <polygon class="cls-14" points="2256.87 2007.69 2256.87 1978.45 2257.11 1996.88 2256.87 2007.69"/>
        <polygon class="cls-10" points="1681.24 2288.8 1681.24 2044.73 1671.24 2037.57 1666.84 2032.96 1661.22 2024.65 1657.48 2015.68 1655.51 2005.65 1655.5 1996.88 1664.23 1317.52 1666.88 1282.66 1671.88 1261.42 1676.58 1247.7 1685.15 1228.83 1694.62 1212.8 1705.73 1197.74 1718.6 1183.6 1731.91 1171.66 1747.26 1160.46 1763.02 1151.25 1782.39 1142.57 1799.04 1137.13 1815.02 1133.51 2097.6 1133.51 2114.78 1137.47 2130.27 1142.59 2152.15 1152.6 2165.73 1160.7 2182.81 1173.4 2194.41 1183.99 2206.89 1197.74 2216.65 1210.8 2228.82 1231.46 2235.32 1245.9 2242 1265.87 2245.46 1281.14 2247.89 1300.08 2248.39 1317.52 2257.11 1996.88 2256.87 2007.69 2255.42 2014.71 2251.4 2024.65 2246 2032.69 2238.97 2039.66 2231.38 2044.73 2231.38 2288.8 1681.24 2288.8 1681.24 2288.8 1681.24 2288.8"/>
      </g>
      <path class="cls-15" d="m2231.38,2288.8v-244.08c0-26.96-21.86-48.82-48.82-48.82h-452.51c-26.96,0-48.81,21.86-48.81,48.82v244.08h550.14Z"/>
      <path class="cls-10" d="m1705.65,2288.8v-244.08c0-13.48,10.93-24.41,24.41-24.41h452.51c13.48,0,24.41,10.93,24.41,24.41v244.08h-501.32Z"/>
      <g id="CIRCLE">
        <path class="cls-2" d="m1956.31,2194.42c-24.27,0-43.93-19.67-43.93-43.93s19.67-43.93,43.93-43.93,43.93,19.67,43.93,43.93-19.67,43.93-43.93,43.93h0Z"/>
      </g>
      <path class="cls-14" d="m1956.31,1183.11c24.25-.04,48.47,1.56,72.51,4.77,56.41,9.13,103.23,48.51,121.89,102.52,19.52,102.54,19.88,207.8,1.07,310.47-14.41,46.77-51.26,83.23-98.17,97.16-31.85,7.69-64.55,11.27-97.3,10.68-32.76.6-65.46-2.99-97.3-10.68-46.91-13.93-83.75-50.39-98.17-97.16-18.81-102.67-18.45-207.93,1.07-310.47,18.66-54.01,65.49-93.39,121.89-102.52,24.04-3.21,48.26-4.8,72.51-4.77Z"/>
      <path class="cls-7" d="m1956.32,1183.11c24.24-.03,48.47,1.55,72.51,4.77,46.88,7.58,87.12,36.06,110.09,76.45-23.62-29.08-57.44-49.12-95.63-55.31-24.03-3.2-48.26-4.8-72.51-4.75-24.24-.05-48.47,1.55-72.51,4.75-56.41,9.13-103.25,48.52-121.89,102.53-19.53,102.53-19.88,207.81-1.07,310.47,3.09,10.04,7.22,19.59,12.25,28.56-11.88-14.47-21.04-31.29-26.72-49.71-18.81-102.66-18.45-207.92,1.06-310.47,18.66-54,65.49-93.38,121.89-102.51,24.05-3.22,48.26-4.8,72.52-4.77Z"/>
      <path class="cls-2" d="m1956.31,1551.25c7.34-.02,14.64,1.12,21.64,3.35,23.51,5.6,43.09,21.82,52.92,43.92,9.42,32.98,14.22,67.14,14.24,101.44-29.14,6.35-58.95,9.28-88.79,8.74-29.84.54-59.65-2.39-88.8-8.74.02-34.3,4.82-68.46,14.24-101.44,9.83-22.1,29.4-38.32,52.92-43.92,7-2.23,14.3-3.37,21.64-3.35Z"/>
      <rect class="cls-11" x="1875.81" y="1124.71" width="7.4" height=".2"/>
      <rect class="cls-11" x="1698.22" y="1124.71" width="7.4" height=".2"/>
      <g id="CIRCLE-2" data-name="CIRCLE">
        <path class="cls-16" d="m1956.31,2186.29c-19.77,0-35.8-16.03-35.8-35.8s16.03-35.8,35.8-35.8,35.8,16.03,35.8,35.8-16.03,35.8-35.8,35.8h0Z"/>
      </g>
    </g>
    <path class="cls-7" d="m1382.86,2204.3h76.23v76.88h0c-5.88.38-11.74.95-17.58,1.71-.65.08-1.13.64-1.13,1.29v15.29s73.22,0,73.22,0v-15.29c0-.65-.48-1.21-1.13-1.29-5.84-.76-11.7-1.33-17.58-1.71v-76.88h76.9v-45.67h-188.91v45.67Z"/>
    <g>
      <rect class="cls-15" x="1450.26" y="2171.52" width="35.8" height="104.49"/>
      <path class="cls-14" d="m1432.68,2271.98c5.84-.76,11.7-1.33,17.58-1.71h35.8c5.88.39,11.74.96,17.58,1.71.65.08,1.13.64,1.13,1.29v15.29s-73.23,0-73.23,0v-15.29c0-.65.49-1.21,1.14-1.29Z"/>
      <rect class="cls-10" x="1445.66" y="2076.1" width="45.67" height="188.91" transform="translate(-702.06 3639.05) rotate(-90)"/>
    </g>
    <g>
      <g class="cls-6">
        <path class="cls-11" d="m2424.98,2004.84v11.38s.12,0,.12,0c-.07.39-.12.78-.12,1.19v52.46s5.03,58.42,5.03,58.42h-.1l-7.37,1.76c-2.84,1.68-4.48,4.83-4.23,8.13.42,21.91,4.43,43.6,11.86,64.21h5.32l.35,5.65h-15.75v82.1s-16.1,2.47-16.1,2.47h0v2.78h71.37s16.26,0,16.26,0h0s16.09,0,16.09,0v-2.78s-.02,0-.02,0l-16.07-2.47v-82.1s-15.75,0-15.75,0l.35-5.66h5.32c7.44-20.61,11.45-42.3,11.87-64.21.25-3.29-1.38-6.45-4.23-8.13l-7.37-1.76h-.1l5.04-58.42v-53.65s0,1.19,0,1.19c0-.41-.05-.8-.12-1.19h.12v-11.38c0-3.59-2.91-6.5-6.5-6.5h-48.77c-3.59,0-6.5,2.91-6.5,6.5Z"/>
      </g>
      <path class="cls-10" d="m2413.59,2009.63v-11.38c0-3.59,2.91-6.5,6.5-6.5h48.77c3.59,0,6.5,2.91,6.5,6.51v11.38h-61.78Z"/>
      <path class="cls-16" d="m2418.51,2121.7l-7.37,1.76c-2.84,1.68-4.48,4.83-4.23,8.13.42,21.91,4.43,43.6,11.86,64.21h46.17s5.2,0,5.2,0c7.44-20.61,11.45-42.3,11.87-64.21.25-3.29-1.38-6.45-4.23-8.13l-7.37-1.76h-51.91Z"/>
      <g id="LINE">
        <rect class="cls-11" x="2413.59" y="2057.58" width="61.78" height="1.63"/>
      </g>
      <polygon class="cls-14" points="2463.97 2209.59 2467.23 2157.56 2421.71 2157.56 2424.96 2209.58 2463.97 2209.59"/>
      <path class="cls-15" d="m2467.23,2157.56l8.13-94.29v-53.65s0,1.19,0,1.19c0-3.59-2.91-6.5-6.5-6.5h-48.77c-3.59,0-6.5,2.91-6.5,6.5v-1.19,53.65s8.12,94.29,8.12,94.29h45.52Z"/>
      <g id="LINE-2" data-name="LINE">
        <polygon class="cls-11" points="2464.95 2194.99 2464.95 2196.62 2464.91 2194.99 2464.95 2194.99"/>
      </g>
      <rect class="cls-15" x="2392.6" y="2286.03" width="103.72" height="2.78"/>
      <polygon class="cls-15" points="2392.6 2286.02 2423.33 2281.31 2465.59 2281.31 2496.32 2286.03 2392.6 2286.02"/>
      <rect class="cls-10" x="2463.97" y="2201.46" width="16.26" height="87.35"/>
      <rect class="cls-10" x="2408.7" y="2201.45" width="16.26" height="87.35"/>
      <rect class="cls-15" x="2424.95" y="2209.58" width="39.02" height="34.14"/>
      <rect class="cls-14" x="2425.67" y="2243.01" width="37.59" height="39.02" transform="translate(181.94 4706.98) rotate(-90)"/>
    </g>
    <g>
      <g id="LWPOLYLINE-17" data-name="LWPOLYLINE" class="cls-6">
        <path class="cls-11" d="m248.45,2288.8v-663.08c0-8.99,7.29-16.27,16.27-16.27h862.4c8.99,0,16.27,7.29,16.27,16.27v663.08H248.45Z"/>
      </g>
      <g id="LWPOLYLINE-18" data-name="LWPOLYLINE">
        <path class="cls-15" d="m207.1,2288.56v-699.45c0-8.99,7.29-16.27,16.27-16.27h862.4c8.99,0,16.27,7.28,16.27,16.27v699.45H207.1Z"/>
      </g>
      <g id="LWPOLYLINE-19" data-name="LWPOLYLINE">
        <rect class="cls-10" x="207.1" y="2158.63" width="894.95" height="130.17"/>
      </g>
      <g id="LWPOLYLINE-20" data-name="LWPOLYLINE">
        <path class="cls-14" d="m255.91,2158.63h797.32v-512.56c0-4.49-3.64-8.14-8.14-8.14H264.05c-4.49,0-8.14,3.64-8.14,8.14v512.56Z"/>
      </g>
      <g id="LWPOLYLINE-21" data-name="LWPOLYLINE" class="cls-6">
        <path class="cls-11" d="m264.05,1637.93h781.04c4.49,0,8.14,3.65,8.14,8.14v14.64H280.32c-4.49,0-8.13,3.65-8.13,8.14v489.78h-16.27v-512.56c0-4.49,3.64-8.14,8.14-8.14Z"/>
      </g>
      <g>
        <circle class="cls-4" cx="654.56" cy="1995.78" r="69.04" transform="translate(-416.84 189.21) rotate(-12.51)"/>
        <path class="cls-17" d="m654.56,1954.41c22.84,0,41.36,18.52,41.36,41.36s-18.52,41.36-41.36,41.36-41.36-18.52-41.36-41.36,18.52-41.36,41.36-41.36Z"/>
      </g>
      <path class="cls-7" d="m643.81,2060.67c0,.24,0,.48.01.71v141.62c-13.41,5.92-23.48,17.99-26.62,32.64h-2.68c-.45,0-.81.36-.81.81v17.9c0,.45.36.81.81.81h2.68c3.81,17.76,17.79,31.74,35.56,35.55v2.69c0,.45.36.81.81.81h17.9c.45,0,.81-.36.81-.81v-2.7c17.75-3.81,31.72-17.79,35.53-35.54h2.71c.45,0,.81-.36.81-.81v-17.9c0-.45-.37-.81-.81-.81h-2.71c-3.14-14.64-13.2-26.71-26.58-32.63v-141.63c.38-10.33-7.67-19.02-17.99-19.41-.24,0-.48-.01-.71-.01-10.34,0-18.71,8.38-18.71,18.71Z"/>
      <g>
        <path class="cls-4" d="m654.56,2193.64c-25.6,0-46.34,20.75-46.34,46.35s20.75,46.34,46.34,46.34,46.34-20.75,46.34-46.34-20.75-46.35-46.34-46.35Z"/>
        <path class="cls-16" d="m635.86,2217.64v-161.68c0-.24,0-.48,0-.71,0-10.34,8.38-18.71,18.71-18.71.24,0,.48,0,.71.01,10.33.39,18.38,9.09,17.99,19.41v161.68s-37.41,0-37.41,0Z"/>
        <path class="cls-2" d="m635.86,2220.06v-154.49c0-.24,0-.47,0-.71,0-10.34,8.38-18.71,18.71-18.71.24,0,.48,0,.71.01,10.33.39,18.38,9.09,17.99,19.41v154.49s-37.41,0-37.41,0Z"/>
        <path class="cls-16" d="m654.56,2208.08c17.62,0,31.9,14.28,31.9,31.9s-14.28,31.9-31.9,31.9-31.9-14.28-31.9-31.9,14.28-31.9,31.9-31.9Z"/>
        <g>
          <path class="cls-14" d="m644.81,2287.99v-34.98c0-1.8-1.46-3.25-3.25-3.25h-34.98c-.45,0-.81-.37-.81-.81v-17.9c0-.45.36-.81.81-.81h34.98c1.8,0,3.25-1.46,3.25-3.25v-34.98c0-.45.36-.81.81-.81h17.9c.45,0,.81.36.81.81v34.98c0,1.8,1.46,3.25,3.25,3.25h34.98c.45,0,.81.36.81.81v17.9c0,.45-.36.81-.81.81h-34.98c-1.8,0-3.25,1.46-3.25,3.25v34.98c0,.45-.37.81-.81.81h-17.9c-.45,0-.81-.37-.81-.81Z"/>
          <g class="cls-13">
            <path class="cls-11" d="m700.76,2247.11h-34.98c-1.8,0-3.25,1.46-3.25,3.25v34.98c0,.45-.36.81-.81.81l-16.9,1.83c0,.45.36.81.81.81h17.9c.45,0,.81-.37.81-.81v-34.98c0-1.8,1.46-3.25,3.25-3.25h34.98c.45,0,.81-.37.81-.81v-17.9c0-.45-.36-.81-.81-.81l-1,16.07c0,.45-.36.81-.81.81Z"/>
            <path class="cls-11" d="m664.36,2227.24c0-.09-.03-.18-.03-.27v-34.98c0-.45-.37-.81-.81-.81h-1s.75,35.54,1.84,36.07Z"/>
            <path class="cls-11" d="m605.75,2247.11v1.83c0,.45.36.81.81.81h34.98c.51,0,.98.13,1.41.33-.14-1.67-37.21-2.98-37.21-2.98Z"/>
          </g>
          <g class="cls-6">
            <path class="cls-1" d="m644.78,2252.73c0,.09.03.18.03.28v34.98c0,.45.36.81.81.81,0,0,.24-35.55-.84-36.07Z"/>
            <path class="cls-1" d="m703.38,2231.04c0-.45-.36-.81-.81-.81h-34.98c-.51,0-.98-.13-1.41-.34.14,1.67,37.21,1.15,37.21,1.15Z"/>
            <path class="cls-1" d="m644.81,2191.99v34.98c0,1.8-1.46,3.25-3.25,3.25h-34.98c-.45,0-.81.36-.81.81v17.9c0,.45,1.81-15.25,1.81-15.25,0-.45.36-.81.81-.81h34.98c1.8,0,3.25-1.46,3.25-3.25v-34.98c0-.45.36-.81.81-.81,0,0,16.54-2.64,16.09-2.64h-17.9c-.45,0-.81.36-.81.81Z"/>
          </g>
        </g>
      </g>
    </g>
    <g id="LWPOLYLINE-22" data-name="LWPOLYLINE">
      <rect class="cls-9" x="3.7" y="2288.8" width="2603.48" height="162.72"/>
    </g>
    <g>
      <path class="cls-4" d="m2825.54,250.9l-48.32,48.32c-1.59,1.59-1.59,4.16,0,5.75l512.01,512.01c1.59,1.59,4.16,1.59,5.75,0l48.32-48.32,28.76,28.76-65.58,65.58c-7.94,7.94-20.82,7.94-28.76,0l-546.53-546.53c-7.94-7.94-7.94-20.82,0-28.76l65.58-65.58,28.76,28.76Z"/>
      <g id="LWPOLYLINE-23" data-name="LWPOLYLINE">
        <path class="cls-4" d="m3416.36,695.6c7.94-7.94,20.82-7.94,28.76,0,7.94,7.94,7.94,20.82,0,28.77l-54.65,54.65-28.76-28.76,54.65-54.65h0Z"/>
      </g>
      <g id="LWPOLYLINE-24" data-name="LWPOLYLINE">
        <rect class="cls-4" x="2827.18" y="192.02" width="16.27" height="40.68" transform="translate(680.4 2067.2) rotate(-45)"/>
      </g>
      <g id="LWPOLYLINE-25" data-name="LWPOLYLINE" class="cls-8">
        <rect class="cls-10" x="2680.4" y="1231.14" width="16.27" height="488.15"/>
      </g>
      <g id="ARC-2" data-name="ARC">
        <path class="cls-2" d="m3504.7,900.15c-22.94,22.93-47.14,45.14-71.92,66.02l-4.77-5.66c24.63-20.74,48.67-42.81,71.46-65.59l5.23,5.23Zm-103.58,91.73c-32.01,25.06-65.74,48.67-100.24,70.16l-3.92-6.28c34.28-21.36,67.79-44.81,99.59-69.71l4.56,5.83Zm-135.25,91.11c-35.24,20.25-71.98,38.81-109.21,55.19l-2.98-6.78c36.98-16.27,73.49-34.72,108.5-54.83l3.69,6.42Zm-146.85,70.95c-37.78,15.03-76.8,28.19-115.96,39.1l-1.99-7.13c38.91-10.84,77.67-23.91,115.21-38.84l2.74,6.88Zm-155.46,49.35c-39.54,9.51-80.03,16.98-120.35,22.2l-.95-7.34c40.06-5.19,80.29-12.61,119.57-22.06l1.73,7.2Zm-160.92,26.72c-35.21,3.29-70.99,4.96-106.36,4.96-5.3,0-10.66-.04-15.93-.11l.1-7.4c5.24.07,10.56.11,15.83.11,35.14,0,70.69-1.66,105.67-4.92l.69,7.37Z"/>
      </g>
      <g id="LWPOLYLINE-26" data-name="LWPOLYLINE" class="cls-8">
        <rect class="cls-10" x="3085.49" y="-68.93" width="16.27" height="1139.02" transform="translate(552.14 2334.14) rotate(-45)"/>
      </g>
      <g id="LWPOLYLINE-27" data-name="LWPOLYLINE">
        <rect class="cls-14" x="2825.4" y="187.29" width="4.88" height="65.09" transform="translate(672.57 2063.69) rotate(-44.99)"/>
      </g>
      <g id="LWPOLYLINE-28" data-name="LWPOLYLINE">
        <rect class="cls-14" x="2810.44" y="202.25" width="4.88" height="65.09" transform="translate(657.85 2057.78) rotate(-45)"/>
      </g>
      <g id="LWPOLYLINE-29" data-name="LWPOLYLINE">
        <rect class="cls-14" x="3371.93" y="733.82" width="4.88" height="65.09" transform="translate(445.92 2609.69) rotate(-44.98)"/>
      </g>
      <g id="LWPOLYLINE-30" data-name="LWPOLYLINE">
        <rect class="cls-14" x="3356.97" y="748.78" width="4.88" height="65.09" transform="translate(431.6 2604.52) rotate(-45)"/>
      </g>
    </g>
  </g>
</svg>