<?xml version="1.0" encoding="UTF-8"?>
<svg xmlns="http://www.w3.org/2000/svg" xmlns:xlink="http://www.w3.org/1999/xlink" viewBox="0 0 501.83 600.52">
  <defs>
    <style>
      .cls-1 {
        fill: #b7b7b7;
      }

      .cls-2 {
        fill: url(#linear-gradient-3);
      }

      .cls-2, .cls-3 {
        mix-blend-mode: multiply;
      }

      .cls-4 {
        fill: #ddd;
      }

      .cls-5 {
        fill: #e9e9e9;
      }

      .cls-6 {
        fill: url(#linear-gradient-2);
      }

      .cls-7 {
        fill: #f0f0f0;
      }

      .cls-8 {
        fill: #f4f4f4;
      }

      .cls-9 {
        fill: #fff;
      }

      .cls-10 {
        fill: #c5c5c5;
      }

      .cls-11 {
        fill: #cbcbcb;
      }

      .cls-12 {
        fill: #d1d1d1;
      }

      .cls-13 {
        fill: #fafafa;
      }

      .cls-14 {
        fill: #dbdbdb;
      }

      .cls-15 {
        fill: #cacaca;
      }

      .cls-16 {
        fill: #d8d8d8;
      }

      .cls-17 {
        fill: #f6f6f6;
      }

      .cls-18 {
        fill: #bfbfbf;
      }

      .cls-19 {
        fill: #939598;
      }

      .cls-20 {
        fill: silver;
      }

      .cls-21 {
        fill: #e2e2e2;
      }

      .cls-22 {
        fill: #f5f5f5;
      }

      .cls-23 {
        fill: #b2b2b2;
      }

      .cls-24 {
        fill: #bababa;
      }

      .cls-25 {
        isolation: isolate;
      }

      .cls-26 {
        fill: #c9c9c8;
      }

      .cls-27 {
        fill: #d6d6d6;
      }

      .cls-28 {
        fill: #b4b4b4;
      }

      .cls-29 {
        fill: #c9c9c9;
      }

      .cls-30 {
        fill: #acacab;
      }

      .cls-31 {
        fill: #e0e0e0;
      }

      .cls-32 {
        fill: #c7c7c7;
      }

      .cls-33 {
        fill: #dedede;
      }

      .cls-34 {
        fill: #b3b3b2;
      }

      .cls-35 {
        fill: #c3c3c3;
      }

      .cls-36 {
        fill: #cfcfcf;
      }

      .cls-37 {
        fill: #d7d7d7;
      }

      .cls-38 {
        fill: #bdbdbd;
      }

      .cls-39 {
        fill: #9d9d9c;
      }

      .cls-40 {
        fill: #e1e1e1;
      }

      .cls-41 {
        fill: #e6e6e6;
      }

      .cls-42 {
        fill: #e7e7e7;
      }

      .cls-43 {
        fill: #d4d4d4;
      }

      .cls-44 {
        fill: #dadada;
      }

      .cls-45 {
        fill: #b8b8b8;
      }

      .cls-46 {
        fill: #eaeaea;
      }

      .cls-47 {
        fill: #c8c8c8;
      }

      .cls-48 {
        fill: #fdfdfd;
      }

      .cls-49 {
        fill: #a4a4a3;
      }

      .cls-50 {
        fill: #e4e4e4;
      }

      .cls-51 {
        fill: none;
        stroke: #949494;
        stroke-linecap: round;
        stroke-linejoin: round;
        stroke-width: .03px;
      }

      .cls-52 {
        fill: #fbfbfb;
      }

      .cls-53 {
        fill: #babab9;
      }

      .cls-54 {
        fill: #f9f9f9;
      }

      .cls-55 {
        fill: #72a6bf;
      }

      .cls-56 {
        fill: #e5e5e5;
      }

      .cls-57 {
        fill: #d16660;
      }

      .cls-58 {
        fill: #b6b6b6;
      }

      .cls-59 {
        fill: #d3d3d3;
      }

      .cls-60 {
        fill: #ebebeb;
      }

      .cls-61 {
        fill: #bebebe;
      }

      .cls-62 {
        fill: #d5d5d5;
      }

      .cls-63 {
        fill: #dcdcdc;
      }

      .cls-64 {
        fill: #c1c1c1;
      }

      .cls-65 {
        fill: #bcbcbc;
      }

      .cls-66 {
        fill: #e8e8e8;
      }

      .cls-67 {
        fill: #ccc;
      }

      .cls-68 {
        fill: #bbb;
      }

      .cls-69 {
        fill: #f7f7f7;
      }

      .cls-70 {
        fill: #b3b3b3;
      }

      .cls-71 {
        fill: #efefef;
      }

      .cls-72 {
        fill: #c2c2c2;
      }

      .cls-73 {
        fill: #f1f1f1;
      }

      .cls-74 {
        fill: #cecece;
      }

      .cls-75 {
        fill: url(#linear-gradient);
      }

      .cls-76 {
        fill: #f3f3f3;
      }

      .cls-77 {
        fill: #b5b5b5;
      }

      .cls-78 {
        fill: #d9d9d9;
      }

      .cls-79 {
        fill: #cdcdcd;
      }

      .cls-80 {
        fill: #f8f8f8;
      }

      .cls-81 {
        fill: #d2d2d2;
      }

      .cls-82 {
        fill: #c6c6c6;
      }

      .cls-83 {
        fill: #eee;
      }

      .cls-84 {
        fill: #d0d0d0;
      }

      .cls-85 {
        fill: #ececec;
      }

      .cls-86 {
        fill: #f2f2f2;
      }

      .cls-87 {
        fill: #c4c4c4;
      }

      .cls-88 {
        fill: #b9b9b9;
      }

      .cls-89 {
        fill: #fefefe;
      }

      .cls-90 {
        fill: #e3e3e3;
      }

      .cls-91 {
        fill: #fcfcfc;
      }

      .cls-92 {
        fill: #ededed;
      }

      .cls-93 {
        fill: #dfdfdf;
      }
    </style>
    <linearGradient id="linear-gradient" x1="1605.19" y1="-270.38" x2="1690.56" y2="-270.38" gradientTransform="translate(343.51 1935.54) rotate(-89.4)" gradientUnits="userSpaceOnUse">
      <stop offset="0" stop-color="#bfbfbe"/>
      <stop offset=".57" stop-color="#fff"/>
      <stop offset="1" stop-color="#c9c9c8"/>
    </linearGradient>
    <linearGradient id="linear-gradient-2" x1="1647.87" y1="-137.21" x2="1647.87" y2="-277.11" xlink:href="#linear-gradient"/>
    <linearGradient id="linear-gradient-3" x1="398.08" y1="167.97" x2="216.05" y2="354.26" gradientUnits="userSpaceOnUse">
      <stop offset="0" stop-color="#e0e0e0"/>
      <stop offset="1" stop-color="#fff"/>
    </linearGradient>
  </defs>
  <g class="cls-25">
    <g id="Layer_1" data-name="Layer 1">
      <g>
        <g class="cls-3">
          <path class="cls-9" d="m217.93,30.9C97.56,30.9,0,158.41,0,315.71s97.56,284.8,217.93,284.8,217.92-127.51,217.92-284.8S338.26,30.9,217.93,30.9Z"/>
          <path class="cls-89" d="m219.06,30.37C98.69,30.37,1.14,157.88,1.14,315.18s97.56,284.8,217.93,284.8,217.92-127.51,217.92-284.8S339.4,30.37,219.06,30.37Z"/>
          <path class="cls-48" d="m220.2,29.84C99.83,29.84,2.28,157.35,2.28,314.65s97.56,284.8,217.93,284.8,217.92-127.51,217.92-284.8S340.54,29.84,220.2,29.84Z"/>
          <path class="cls-91" d="m221.34,29.31C100.97,29.31,3.41,156.82,3.41,314.12s97.56,284.8,217.93,284.8,217.92-127.51,217.92-284.8S341.68,29.31,221.34,29.31Z"/>
          <path class="cls-52" d="m222.48,28.77C102.11,28.77,4.55,156.28,4.55,313.58s97.56,284.8,217.93,284.8,217.92-127.51,217.92-284.8S342.81,28.77,222.48,28.77Z"/>
          <path class="cls-13" d="m223.61,28.24C103.24,28.24,5.69,155.75,5.69,313.05s97.56,284.8,217.93,284.8,217.92-127.51,217.92-284.8S343.95,28.24,223.61,28.24Z"/>
          <path class="cls-54" d="m224.75,27.71C104.38,27.71,6.83,155.22,6.83,312.52s97.56,284.8,217.93,284.8,217.92-127.51,217.92-284.8S345.09,27.71,224.75,27.71Z"/>
          <path class="cls-80" d="m225.89,27.18C105.52,27.18,7.96,154.69,7.96,311.99s97.56,284.8,217.93,284.8,217.92-127.51,217.92-284.8S346.23,27.18,225.89,27.18Z"/>
          <path class="cls-69" d="m227.03,26.64C106.66,26.64,9.1,154.15,9.1,311.45s97.56,284.8,217.93,284.8,217.92-127.51,217.92-284.8S347.36,26.64,227.03,26.64Z"/>
          <path class="cls-17" d="m228.16,26.11C107.79,26.11,10.24,153.62,10.24,310.92s97.56,284.8,217.93,284.8,217.92-127.51,217.92-284.8S348.5,26.11,228.16,26.11Z"/>
          <path class="cls-22" d="m229.3,25.58C108.93,25.58,11.38,153.09,11.38,310.39s97.56,284.8,217.93,284.8,217.92-127.51,217.92-284.8S349.64,25.58,229.3,25.58Z"/>
          <path class="cls-8" d="m230.44,25.05C110.07,25.05,12.51,152.56,12.51,309.86s97.56,284.8,217.93,284.8,217.92-127.51,217.92-284.8S350.78,25.05,230.44,25.05Z"/>
          <path class="cls-76" d="m231.58,24.51C111.21,24.51,13.65,152.02,13.65,309.32s97.56,284.8,217.93,284.8,217.92-127.51,217.92-284.8S351.91,24.51,231.58,24.51Z"/>
          <path class="cls-86" d="m232.71,23.98C112.34,23.98,14.79,151.49,14.79,308.79s97.56,284.8,217.93,284.8,217.92-127.51,217.92-284.8S353.05,23.98,232.71,23.98Z"/>
          <path class="cls-73" d="m233.85,23.45C113.48,23.45,15.93,150.96,15.93,308.26s97.56,284.8,217.92,284.8,217.92-127.51,217.92-284.8S354.19,23.45,233.85,23.45Z"/>
          <path class="cls-7" d="m234.99,22.92c-120.37,0-217.92,127.51-217.92,284.81s97.56,284.8,217.92,284.8,217.92-127.51,217.92-284.8S355.33,22.92,234.99,22.92Z"/>
          <path class="cls-71" d="m236.13,22.38c-120.37,0-217.92,127.51-217.92,284.81s97.56,284.8,217.92,284.8,217.92-127.51,217.92-284.8S356.46,22.38,236.13,22.38Z"/>
          <path class="cls-83" d="m237.26,21.85c-120.37,0-217.92,127.51-217.92,284.81s97.56,284.8,217.92,284.8,217.92-127.51,217.92-284.8S357.6,21.85,237.26,21.85Z"/>
          <path class="cls-92" d="m238.4,21.32c-120.37,0-217.92,127.51-217.92,284.81s97.56,284.8,217.92,284.8,217.92-127.51,217.92-284.8S358.74,21.32,238.4,21.32Z"/>
          <path class="cls-85" d="m239.54,20.78c-120.37,0-217.92,127.51-217.92,284.81s97.56,284.8,217.92,284.8,217.92-127.51,217.92-284.8S359.88,20.78,239.54,20.78Z"/>
          <path class="cls-60" d="m240.68,20.25c-120.37,0-217.92,127.51-217.92,284.81s97.56,284.8,217.92,284.8,217.92-127.51,217.92-284.8S361.01,20.25,240.68,20.25Z"/>
          <path class="cls-46" d="m241.81,19.72c-120.37,0-217.92,127.51-217.92,284.81s97.56,284.8,217.92,284.8,217.92-127.51,217.92-284.8S362.15,19.72,241.81,19.72Z"/>
          <path class="cls-5" d="m242.95,19.19c-120.37,0-217.92,127.51-217.92,284.81s97.56,284.8,217.92,284.8,217.92-127.51,217.92-284.8S363.29,19.19,242.95,19.19Z"/>
          <path class="cls-66" d="m244.09,18.65c-120.37,0-217.92,127.51-217.92,284.81s97.56,284.8,217.92,284.8,217.92-127.51,217.92-284.8S364.43,18.65,244.09,18.65Z"/>
          <path class="cls-42" d="m245.22,18.12c-120.37,0-217.92,127.51-217.92,284.81s97.56,284.8,217.92,284.8,217.92-127.51,217.92-284.8S365.56,18.12,245.22,18.12Z"/>
          <path class="cls-41" d="m246.36,17.59c-120.37,0-217.92,127.51-217.92,284.81s97.56,284.8,217.92,284.8,217.92-127.51,217.92-284.8S366.7,17.59,246.36,17.59Z"/>
          <path class="cls-56" d="m247.5,17.06c-120.37,0-217.92,127.51-217.92,284.81s97.56,284.8,217.92,284.8,217.92-127.51,217.92-284.8S367.84,17.06,247.5,17.06Z"/>
          <path class="cls-50" d="m248.64,16.52c-120.37,0-217.92,127.51-217.92,284.81s97.56,284.8,217.92,284.8,217.92-127.51,217.92-284.8S368.98,16.52,248.64,16.52Z"/>
          <path class="cls-90" d="m249.77,15.99c-120.37,0-217.92,127.51-217.92,284.81s97.56,284.8,217.92,284.8,217.92-127.51,217.92-284.8S370.11,15.99,249.77,15.99Z"/>
          <path class="cls-21" d="m250.91,15.46c-120.37,0-217.92,127.51-217.92,284.81s97.56,284.8,217.92,284.8,217.92-127.51,217.92-284.8S371.25,15.46,250.91,15.46Z"/>
          <path class="cls-21" d="m252.05,14.93c-120.37,0-217.92,127.51-217.92,284.81s97.56,284.8,217.92,284.8,217.92-127.51,217.92-284.8S372.39,14.93,252.05,14.93Z"/>
          <path class="cls-40" d="m253.19,14.39c-120.37,0-217.92,127.51-217.92,284.81s97.56,284.8,217.92,284.8,217.92-127.51,217.92-284.8S373.53,14.39,253.19,14.39Z"/>
          <path class="cls-31" d="m254.32,13.86c-120.37,0-217.92,127.51-217.92,284.81s97.56,284.8,217.92,284.8,217.92-127.51,217.92-284.8S374.66,13.86,254.32,13.86Z"/>
          <path class="cls-93" d="m255.46,13.33c-120.37,0-217.92,127.51-217.92,284.81s97.56,284.8,217.92,284.8,217.92-127.51,217.92-284.8S375.8,13.33,255.46,13.33Z"/>
          <path class="cls-33" d="m256.6,12.8c-120.37,0-217.92,127.51-217.92,284.81s97.56,284.8,217.92,284.8,217.92-127.51,217.92-284.8S376.94,12.8,256.6,12.8Z"/>
          <path class="cls-4" d="m257.74,12.26c-120.37,0-217.92,127.51-217.92,284.81s97.56,284.8,217.92,284.8,217.92-127.51,217.92-284.8S378.08,12.26,257.74,12.26Z"/>
          <path class="cls-63" d="m258.87,11.73c-120.37,0-217.92,127.51-217.92,284.81s97.56,284.8,217.92,284.8,217.92-127.51,217.92-284.8S379.21,11.73,258.87,11.73Z"/>
          <path class="cls-14" d="m260.01,11.2c-120.37,0-217.92,127.51-217.92,284.81s97.56,284.8,217.92,284.8,217.92-127.51,217.92-284.8S380.35,11.2,260.01,11.2Z"/>
          <path class="cls-44" d="m261.15,10.67c-120.36,0-217.92,127.51-217.92,284.81s97.56,284.8,217.92,284.8,217.92-127.51,217.92-284.8S381.49,10.67,261.15,10.67Z"/>
          <path class="cls-78" d="m262.29,10.13c-120.36,0-217.92,127.51-217.92,284.81s97.56,284.8,217.92,284.8,217.92-127.51,217.92-284.8S382.63,10.13,262.29,10.13Z"/>
          <path class="cls-16" d="m263.42,9.6c-120.36,0-217.92,127.51-217.92,284.81s97.56,284.8,217.92,284.8,217.92-127.51,217.92-284.8S383.77,9.6,263.42,9.6Z"/>
          <path class="cls-37" d="m264.56,9.07c-120.36,0-217.92,127.51-217.92,284.81s97.56,284.8,217.92,284.8,217.92-127.51,217.92-284.8S384.9,9.07,264.56,9.07Z"/>
          <path class="cls-27" d="m265.7,8.54c-120.36,0-217.92,127.51-217.92,284.81s97.56,284.8,217.92,284.8,217.92-127.51,217.92-284.8S386.04,8.54,265.7,8.54Z"/>
          <path class="cls-62" d="m266.84,8c-120.36,0-217.92,127.51-217.92,284.81s97.56,284.8,217.92,284.8,217.92-127.51,217.92-284.8S387.18,8,266.84,8Z"/>
          <path class="cls-43" d="m267.97,7.47c-120.36,0-217.92,127.51-217.92,284.81s97.56,284.8,217.92,284.8,217.92-127.51,217.92-284.8S388.32,7.47,267.97,7.47Z"/>
          <path class="cls-59" d="m269.11,6.94c-120.36,0-217.92,127.51-217.92,284.81s97.56,284.8,217.92,284.8,217.92-127.51,217.92-284.8S389.45,6.94,269.11,6.94Z"/>
          <path class="cls-81" d="m270.25,6.4c-120.36,0-217.92,127.51-217.92,284.81s97.56,284.8,217.92,284.8,217.92-127.51,217.92-284.8S390.59,6.4,270.25,6.4Z"/>
          <path class="cls-12" d="m271.39,5.87c-120.36,0-217.92,127.51-217.92,284.81s97.56,284.8,217.92,284.8,217.92-127.51,217.92-284.8S391.73,5.87,271.39,5.87Z"/>
          <path class="cls-84" d="m272.52,5.34c-120.36,0-217.92,127.51-217.92,284.81s97.56,284.8,217.92,284.8,217.92-127.51,217.92-284.8S392.87,5.34,272.52,5.34Z"/>
          <path class="cls-36" d="m273.66,4.81c-120.36,0-217.92,127.51-217.92,284.81s97.56,284.8,217.92,284.8,217.92-127.51,217.92-284.8S394,4.81,273.66,4.81Z"/>
          <path class="cls-74" d="m274.8,4.27c-120.36,0-217.92,127.51-217.92,284.81s97.56,284.8,217.92,284.8,217.92-127.51,217.92-284.8S395.14,4.27,274.8,4.27Z"/>
          <path class="cls-79" d="m275.93,3.74c-120.36,0-217.92,127.51-217.92,284.81s97.56,284.8,217.92,284.8,217.92-127.51,217.92-284.8S396.28,3.74,275.93,3.74Z"/>
          <path class="cls-67" d="m277.07,3.21c-120.36,0-217.92,127.51-217.92,284.81s97.56,284.8,217.92,284.8,217.92-127.51,217.92-284.8S397.42,3.21,277.07,3.21Z"/>
          <path class="cls-11" d="m278.21,2.68c-120.36,0-217.92,127.51-217.92,284.81s97.56,284.8,217.92,284.8,217.92-127.51,217.92-284.8S398.55,2.68,278.21,2.68Z"/>
          <path class="cls-15" d="m279.35,2.14c-120.36,0-217.92,127.51-217.92,284.81s97.56,284.8,217.92,284.8,217.92-127.51,217.92-284.8S399.69,2.14,279.35,2.14Z"/>
          <path class="cls-29" d="m280.48,1.61C160.12,1.61,62.57,129.12,62.57,286.42s97.56,284.8,217.92,284.8,217.92-127.51,217.92-284.8S400.83,1.61,280.48,1.61Z"/>
          <path class="cls-47" d="m281.62,1.08C161.26,1.08,63.7,128.59,63.7,285.89s97.56,284.8,217.92,284.8,217.92-127.51,217.92-284.8S401.97,1.08,281.62,1.08Z"/>
          <path class="cls-32" d="m282.76.55c-120.36,0-217.92,127.51-217.92,284.81s97.56,284.8,217.92,284.8,217.92-127.51,217.92-284.8S403.1.55,282.76.55Z"/>
          <path class="cls-82" d="m283.9.01C163.53.01,65.98,127.52,65.98,284.82s97.56,284.8,217.92,284.8,217.92-127.51,217.92-284.8S404.24.01,283.9.01Z"/>
        </g>
        <g>
          <g>
            <path class="cls-82" d="m501.82,284.82c0,157.29-97.57,284.8-217.92,284.8s-217.92-127.51-217.92-284.8S163.53.01,283.9.01s217.92,127.51,217.92,284.81Z"/>
            <path class="cls-32" d="m66.3,284.82C66.3,127.68,163.71.29,283.9.29s217.6,127.39,217.6,284.53-97.43,284.53-217.6,284.53-217.6-127.39-217.6-284.53Z"/>
            <path class="cls-47" d="m66.61,284.82C66.61,127.83,163.89.56,283.9.56s217.28,127.26,217.28,284.26-97.29,284.25-217.28,284.25-217.28-127.26-217.28-284.25Z"/>
            <path class="cls-29" d="m66.93,284.82C66.93,127.98,164.06.84,283.9.84s216.96,127.14,216.96,283.98-97.15,283.98-216.96,283.98-216.96-127.14-216.96-283.98Z"/>
            <path class="cls-15" d="m67.25,284.82C67.25,128.13,164.24,1.12,283.9,1.12s216.65,127.02,216.65,283.71-97.01,283.7-216.65,283.7-216.65-127.02-216.65-283.7Z"/>
            <path class="cls-11" d="m67.57,284.82C67.57,128.28,164.42,1.39,283.9,1.39s216.33,126.89,216.33,283.43-96.86,283.43-216.33,283.43-216.33-126.89-216.33-283.43Z"/>
            <path class="cls-67" d="m67.89,284.82C67.89,128.44,164.59,1.67,283.9,1.67s216.01,126.77,216.01,283.16-96.72,283.15-216.01,283.15-216.01-126.77-216.01-283.15Z"/>
            <path class="cls-79" d="m68.2,284.82C68.2,128.59,164.77,1.94,283.9,1.94s215.69,126.65,215.69,282.88-96.58,282.88-215.69,282.88-215.69-126.65-215.69-282.88Z"/>
            <path class="cls-74" d="m68.52,284.82C68.52,128.74,164.94,2.22,283.9,2.22s215.38,126.52,215.38,282.61-96.44,282.6-215.38,282.6-215.37-126.52-215.37-282.6Z"/>
            <path class="cls-36" d="m68.84,284.82C68.84,128.89,165.12,2.49,283.9,2.49s215.06,126.4,215.06,282.33-96.29,282.32-215.06,282.32-215.06-126.4-215.06-282.32Z"/>
            <path class="cls-84" d="m69.16,284.82C69.16,129.04,165.3,2.77,283.9,2.77s214.74,126.28,214.74,282.06-96.15,282.05-214.74,282.05-214.74-126.28-214.74-282.05Z"/>
            <path class="cls-12" d="m69.48,284.82C69.48,129.2,165.47,3.04,283.9,3.04s214.42,126.15,214.42,281.78-96.01,281.77-214.42,281.77-214.42-126.15-214.42-281.77Z"/>
            <path class="cls-81" d="m69.79,284.82C69.79,129.35,165.65,3.32,283.9,3.32s214.1,126.03,214.1,281.5-95.87,281.5-214.1,281.5-214.1-126.03-214.1-281.5Z"/>
            <path class="cls-59" d="m70.11,284.82C70.11,129.5,165.82,3.59,283.9,3.59s213.79,125.91,213.79,281.23-95.72,281.22-213.79,281.22-213.78-125.91-213.78-281.22Z"/>
            <path class="cls-43" d="m70.43,284.82C70.43,129.65,166,3.87,283.9,3.87s213.47,125.78,213.47,280.95-95.58,280.95-213.47,280.95-213.47-125.78-213.47-280.95Z"/>
            <path class="cls-62" d="m70.75,284.82C70.75,129.8,166.18,4.15,283.9,4.15s213.15,125.66,213.15,280.68-95.44,280.67-213.15,280.67-213.15-125.66-213.15-280.67Z"/>
            <path class="cls-27" d="m71.07,284.82C71.07,129.96,166.35,4.42,283.9,4.42s212.83,125.54,212.83,280.4-95.3,280.4-212.83,280.4-212.83-125.54-212.83-280.4Z"/>
            <path class="cls-37" d="m71.38,284.82C71.38,130.11,166.53,4.7,283.9,4.7s212.51,125.41,212.51,280.13-95.16,280.12-212.51,280.12-212.51-125.41-212.51-280.12Z"/>
            <path class="cls-16" d="m71.7,284.82C71.7,130.26,166.7,4.97,283.9,4.97s212.2,125.29,212.2,279.85-95.01,279.85-212.2,279.85-212.19-125.29-212.19-279.85Z"/>
            <path class="cls-78" d="m72.02,284.82C72.02,130.41,166.88,5.25,283.9,5.25s211.88,125.17,211.88,279.58-94.87,279.57-211.88,279.57-211.88-125.17-211.88-279.57Z"/>
            <path class="cls-44" d="m72.34,284.82C72.34,130.57,167.06,5.52,283.9,5.52s211.56,125.04,211.56,279.3-94.73,279.3-211.56,279.3-211.56-125.04-211.56-279.3Z"/>
            <path class="cls-14" d="m72.66,284.82C72.66,130.72,167.23,5.8,283.9,5.8s211.24,124.92,211.24,279.03-94.59,279.02-211.24,279.02-211.24-124.92-211.24-279.02Z"/>
            <path class="cls-63" d="m72.97,284.82C72.97,130.87,167.41,6.07,283.9,6.07s210.93,124.8,210.93,278.75-94.44,278.74-210.93,278.74-210.92-124.8-210.92-278.74Z"/>
            <path class="cls-4" d="m73.29,284.82C73.29,131.02,167.59,6.35,283.9,6.35s210.61,124.67,210.61,278.47-94.3,278.47-210.61,278.47-210.6-124.67-210.6-278.47Z"/>
            <path class="cls-33" d="m73.61,284.82C73.61,131.17,167.76,6.62,283.9,6.62s210.29,124.55,210.29,278.2-94.16,278.19-210.29,278.19-210.29-124.55-210.29-278.19Z"/>
            <path class="cls-93" d="m73.93,284.82C73.93,131.33,167.94,6.9,283.9,6.9s209.97,124.43,209.97,277.92-94.02,277.92-209.97,277.92-209.97-124.43-209.97-277.92Z"/>
            <path class="cls-31" d="m74.25,284.82C74.25,131.48,168.11,7.17,283.9,7.17s209.65,124.3,209.65,277.65-93.88,277.64-209.65,277.64-209.65-124.3-209.65-277.64Z"/>
            <path class="cls-40" d="m74.57,284.82C74.57,131.63,168.29,7.45,283.9,7.45s209.34,124.18,209.34,277.37-93.73,277.37-209.34,277.37-209.33-124.18-209.33-277.37Z"/>
            <path class="cls-21" d="m74.88,284.82C74.88,131.78,168.47,7.73,283.9,7.73s209.02,124.06,209.02,277.1-93.59,277.09-209.02,277.09-209.01-124.06-209.01-277.09Z"/>
            <path class="cls-90" d="m75.2,284.82C75.2,131.93,168.64,8,283.9,8s208.7,123.93,208.7,276.82-93.45,276.82-208.7,276.82-208.7-123.93-208.7-276.82Z"/>
            <path class="cls-90" d="m75.52,284.82C75.52,132.09,168.82,8.28,283.9,8.28s208.38,123.81,208.38,276.55-93.31,276.54-208.38,276.54-208.38-123.81-208.38-276.54Z"/>
            <path class="cls-50" d="m75.84,284.82C75.84,132.24,168.99,8.55,283.9,8.55s208.06,123.69,208.06,276.27-93.16,276.27-208.06,276.27-208.06-123.69-208.06-276.27Z"/>
            <path class="cls-56" d="m76.16,284.82C76.16,132.39,169.17,8.83,283.9,8.83s207.75,123.56,207.75,276-93.02,275.99-207.75,275.99-207.74-123.56-207.74-275.99Z"/>
            <path class="cls-41" d="m76.47,284.82C76.47,132.54,169.35,9.1,283.9,9.1s207.43,123.44,207.43,275.72-92.88,275.71-207.43,275.71-207.42-123.44-207.42-275.71Z"/>
            <path class="cls-42" d="m76.79,284.82C76.79,132.69,169.52,9.38,283.9,9.38s207.11,123.32,207.11,275.45-92.74,275.44-207.11,275.44-207.11-123.32-207.11-275.44Z"/>
            <path class="cls-66" d="m77.11,284.82C77.11,132.85,169.7,9.65,283.9,9.65s206.79,123.19,206.79,275.17-92.6,275.16-206.79,275.16-206.79-123.19-206.79-275.16Z"/>
            <path class="cls-5" d="m77.43,284.82C77.43,133,169.87,9.93,283.9,9.93s206.47,123.07,206.47,274.89-92.45,274.89-206.47,274.89-206.47-123.07-206.47-274.89Z"/>
            <path class="cls-46" d="m77.75,284.82C77.75,133.15,170.05,10.2,283.9,10.2s206.16,122.95,206.16,274.62-92.31,274.61-206.16,274.61-206.15-122.95-206.15-274.61Z"/>
            <path class="cls-60" d="m78.06,284.82C78.06,133.3,170.23,10.48,283.9,10.48s205.84,122.82,205.84,274.34-92.17,274.34-205.84,274.34-205.83-122.82-205.83-274.34Z"/>
            <path class="cls-85" d="m78.38,284.82C78.38,133.46,170.4,10.76,283.9,10.76s205.52,122.7,205.52,274.07-92.03,274.06-205.52,274.06-205.52-122.7-205.52-274.06Z"/>
            <path class="cls-92" d="m78.7,284.82C78.7,133.61,170.58,11.03,283.9,11.03s205.2,122.58,205.2,273.79-91.88,273.79-205.2,273.79-205.2-122.58-205.2-273.79Z"/>
            <path class="cls-83" d="m79.02,284.82C79.02,133.76,170.76,11.31,283.9,11.31s204.89,122.45,204.89,273.52-91.74,273.51-204.89,273.51-204.88-122.45-204.88-273.51Z"/>
            <path class="cls-71" d="m79.34,284.82C79.34,133.91,170.93,11.58,283.9,11.58s204.57,122.33,204.57,273.24-91.6,273.24-204.57,273.24-204.56-122.33-204.56-273.24Z"/>
            <path class="cls-7" d="m79.65,284.82C79.65,134.06,171.11,11.86,283.9,11.86s204.25,122.21,204.25,272.97-91.46,272.96-204.25,272.96-204.24-122.21-204.24-272.96Z"/>
            <path class="cls-73" d="m79.97,284.82C79.97,134.22,171.28,12.13,283.9,12.13s203.93,122.08,203.93,272.69-91.32,272.69-203.93,272.69-203.93-122.08-203.93-272.69Z"/>
            <path class="cls-86" d="m80.29,284.82C80.29,134.37,171.46,12.41,283.9,12.41s203.61,121.96,203.61,272.42-91.17,272.41-203.61,272.41-203.61-121.96-203.61-272.41Z"/>
            <path class="cls-76" d="m80.61,284.82C80.61,134.52,171.64,12.68,283.9,12.68s203.3,121.84,203.3,272.14-91.03,272.13-203.3,272.13-203.29-121.84-203.29-272.13Z"/>
            <path class="cls-8" d="m80.93,284.82C80.93,134.67,171.81,12.96,283.9,12.96s202.98,121.71,202.98,271.86-90.89,271.86-202.98,271.86-202.97-121.71-202.97-271.86Z"/>
            <path class="cls-22" d="m81.24,284.82C81.24,134.82,171.99,13.23,283.9,13.23s202.66,121.59,202.66,271.59-90.75,271.58-202.66,271.58-202.65-121.59-202.65-271.58Z"/>
            <path class="cls-17" d="m81.56,284.82C81.56,134.98,172.16,13.51,283.9,13.51s202.34,121.47,202.34,271.31-90.6,271.31-202.34,271.31-202.34-121.47-202.34-271.31Z"/>
            <path class="cls-69" d="m81.88,284.82C81.88,135.13,172.34,13.78,283.9,13.78s202.02,121.34,202.02,271.04-90.46,271.03-202.02,271.03-202.02-121.34-202.02-271.03Z"/>
            <path class="cls-80" d="m82.2,284.82C82.2,135.28,172.52,14.06,283.9,14.06s201.71,121.22,201.71,270.76-90.32,270.76-201.71,270.76-201.7-121.22-201.7-270.76Z"/>
            <path class="cls-54" d="m82.52,284.82C82.52,135.43,172.69,14.34,283.9,14.34s201.39,121.1,201.39,270.49-90.18,270.48-201.39,270.48-201.38-121.1-201.38-270.48Z"/>
            <path class="cls-13" d="m82.83,284.82C82.83,135.58,172.87,14.61,283.9,14.61s201.07,120.97,201.07,270.21-90.04,270.21-201.07,270.21-201.06-120.97-201.06-270.21Z"/>
            <path class="cls-52" d="m83.15,284.82C83.15,135.74,173.04,14.89,283.9,14.89s200.75,120.85,200.75,269.94-89.89,269.93-200.75,269.93-200.75-120.85-200.75-269.93Z"/>
            <path class="cls-91" d="m83.47,284.82C83.47,135.89,173.22,15.16,283.9,15.16s200.44,120.73,200.44,269.66-89.75,269.66-200.44,269.66-200.43-120.73-200.43-269.66Z"/>
            <path class="cls-48" d="m83.79,284.82C83.79,136.04,173.4,15.44,283.9,15.44s200.12,120.6,200.12,269.39-89.61,269.38-200.12,269.38-200.11-120.6-200.11-269.38Z"/>
            <path class="cls-89" d="m84.11,284.82C84.11,136.19,173.57,15.71,283.9,15.71s199.8,120.48,199.8,269.11-89.47,269.1-199.8,269.1-199.79-120.48-199.79-269.1Z"/>
            <path class="cls-9" d="m483.38,284.82c0,148.47-89.32,268.83-199.48,268.83s-199.47-120.36-199.47-268.83S173.75,15.99,283.9,15.99s199.48,120.36,199.48,268.84Z"/>
            <path class="cls-89" d="m483.13,284.82c0,148.37-89.21,268.65-199.23,268.65s-199.23-120.28-199.23-268.65S173.89,16.17,283.9,16.17s199.23,120.28,199.23,268.66Z"/>
            <path class="cls-48" d="m482.88,284.82c0,148.27-89.1,268.47-198.99,268.47s-198.98-120.2-198.98-268.47S174.02,16.35,283.9,16.35s198.99,120.2,198.99,268.48Z"/>
            <path class="cls-91" d="m482.63,284.82c0,148.18-88.99,268.29-198.74,268.29s-198.73-120.12-198.73-268.29S174.16,16.53,283.9,16.53s198.74,120.12,198.74,268.3Z"/>
            <path class="cls-52" d="m482.39,284.82c0,148.08-88.88,268.11-198.49,268.11s-198.48-120.04-198.48-268.11S174.3,16.7,283.9,16.7s198.49,120.04,198.49,268.12Z"/>
            <path class="cls-13" d="m482.14,284.82c0,147.98-88.77,267.93-198.24,267.93s-198.23-119.96-198.23-267.93S174.43,16.88,283.9,16.88s198.24,119.96,198.24,267.94Z"/>
            <path class="cls-54" d="m481.89,284.82c0,147.88-88.66,267.75-197.99,267.75s-197.99-119.88-197.99-267.75S174.57,17.06,283.9,17.06s197.99,119.88,197.99,267.76Z"/>
            <path class="cls-80" d="m481.64,284.82c0,147.78-88.55,267.58-197.75,267.58s-197.74-119.8-197.74-267.58S174.71,17.24,283.9,17.24s197.75,119.8,197.75,267.58Z"/>
            <path class="cls-69" d="m481.39,284.82c0,147.68-88.44,267.4-197.5,267.4s-197.49-119.72-197.49-267.4S174.84,17.42,283.9,17.42s197.5,119.72,197.5,267.4Z"/>
            <path class="cls-17" d="m481.15,284.82c0,147.58-88.32,267.22-197.25,267.22s-197.24-119.64-197.24-267.22S174.98,17.6,283.9,17.6s197.25,119.64,197.25,267.22Z"/>
            <path class="cls-22" d="m480.9,284.82c0,147.48-88.21,267.04-197,267.04s-196.99-119.56-196.99-267.04S175.12,17.78,283.9,17.78s197,119.56,197,267.04Z"/>
            <path class="cls-8" d="m480.65,284.82c0,147.38-88.1,266.86-196.75,266.86s-196.75-119.48-196.75-266.86S175.26,17.96,283.9,17.96s196.75,119.48,196.75,266.86Z"/>
            <path class="cls-76" d="m480.4,284.82c0,147.28-87.99,266.68-196.51,266.68s-196.5-119.4-196.5-266.68S175.39,18.14,283.9,18.14s196.51,119.4,196.51,266.69Z"/>
            <path class="cls-86" d="m480.15,284.82c0,147.19-87.88,266.5-196.26,266.5s-196.25-119.32-196.25-266.5S175.53,18.32,283.9,18.32s196.26,119.32,196.26,266.51Z"/>
            <path class="cls-73" d="m479.91,284.82c0,147.09-87.77,266.32-196.01,266.32s-196-119.23-196-266.32S175.67,18.5,283.9,18.5s196.01,119.23,196.01,266.33Z"/>
            <path class="cls-7" d="m479.66,284.82c0,146.99-87.66,266.14-195.76,266.14s-195.75-119.15-195.75-266.14S175.8,18.68,283.9,18.68s195.76,119.15,195.76,266.15Z"/>
            <path class="cls-71" d="m479.41,284.82c0,146.89-87.55,265.96-195.51,265.96s-195.51-119.07-195.51-265.96S175.94,18.85,283.9,18.85s195.51,119.07,195.51,265.97Z"/>
            <path class="cls-83" d="m479.16,284.82c0,146.79-87.44,265.78-195.27,265.78s-195.26-118.99-195.26-265.78S176.08,19.03,283.9,19.03s195.27,118.99,195.27,265.79Z"/>
            <path class="cls-92" d="m478.91,284.82c0,146.69-87.32,265.6-195.02,265.6s-195.01-118.91-195.01-265.6S176.21,19.21,283.9,19.21s195.02,118.91,195.02,265.61Z"/>
            <path class="cls-85" d="m478.67,284.82c0,146.59-87.21,265.43-194.77,265.43s-194.76-118.83-194.76-265.43S176.35,19.39,283.9,19.39s194.77,118.83,194.77,265.43Z"/>
            <path class="cls-60" d="m478.42,284.82c0,146.49-87.1,265.25-194.52,265.25s-194.51-118.75-194.51-265.25S176.49,19.57,283.9,19.57s194.52,118.75,194.52,265.25Z"/>
            <path class="cls-46" d="m478.17,284.82c0,146.39-86.99,265.07-194.27,265.07s-194.27-118.67-194.27-265.07S176.62,19.75,283.9,19.75s194.27,118.67,194.27,265.07Z"/>
            <path class="cls-5" d="m477.92,284.82c0,146.29-86.88,264.89-194.03,264.89s-194.02-118.59-194.02-264.89S176.76,19.93,283.9,19.93s194.03,118.59,194.03,264.89Z"/>
            <path class="cls-66" d="m477.67,284.82c0,146.2-86.77,264.71-193.78,264.71s-193.77-118.51-193.77-264.71S176.9,20.11,283.9,20.11s193.78,118.51,193.78,264.72Z"/>
            <path class="cls-42" d="m477.43,284.82c0,146.1-86.66,264.53-193.53,264.53s-193.52-118.43-193.52-264.53S177.03,20.29,283.9,20.29s193.53,118.43,193.53,264.54Z"/>
            <path class="cls-41" d="m477.18,284.82c0,146-86.55,264.35-193.28,264.35s-193.28-118.35-193.28-264.35S177.17,20.47,283.9,20.47s193.28,118.35,193.28,264.36Z"/>
            <path class="cls-56" d="m476.93,284.82c0,145.9-86.44,264.17-193.03,264.17s-193.03-118.27-193.03-264.17S177.31,20.65,283.9,20.65s193.03,118.27,193.03,264.18Z"/>
            <path class="cls-50" d="m476.68,284.82c0,145.8-86.32,263.99-192.79,263.99s-192.78-118.19-192.78-263.99S177.45,20.82,283.9,20.82s192.79,118.19,192.79,264Z"/>
            <path class="cls-90" d="m476.43,284.82c0,145.7-86.21,263.81-192.54,263.81s-192.53-118.11-192.53-263.81S177.58,21,283.9,21s192.54,118.11,192.54,263.82Z"/>
            <path class="cls-21" d="m476.19,284.82c0,145.6-86.1,263.63-192.29,263.63s-192.28-118.03-192.28-263.63S177.72,21.18,283.9,21.18s192.29,118.03,192.29,263.64Z"/>
            <path class="cls-40" d="m475.94,284.82c0,145.5-85.99,263.46-192.04,263.46s-192.04-117.95-192.04-263.46S177.86,21.36,283.9,21.36s192.04,117.95,192.04,263.46Z"/>
            <path class="cls-31" d="m475.69,284.82c0,145.4-85.88,263.28-191.79,263.28s-191.79-117.87-191.79-263.28S177.99,21.54,283.9,21.54s191.79,117.87,191.79,263.28Z"/>
            <path class="cls-93" d="m475.44,284.82c0,145.3-85.77,263.1-191.55,263.1s-191.54-117.79-191.54-263.1S178.13,21.72,283.9,21.72s191.55,117.79,191.55,263.1Z"/>
            <path class="cls-33" d="m475.19,284.82c0,145.21-85.66,262.92-191.3,262.92s-191.29-117.71-191.29-262.92S178.27,21.9,283.9,21.9s191.3,117.71,191.3,262.92Z"/>
            <path class="cls-4" d="m474.95,284.82c0,145.11-85.55,262.74-191.05,262.74s-191.04-117.63-191.04-262.74S178.4,22.08,283.9,22.08s191.05,117.63,191.05,262.74Z"/>
            <path class="cls-63" d="m474.7,284.82c0,145.01-85.44,262.56-190.8,262.56s-190.8-117.55-190.8-262.56S178.54,22.26,283.9,22.26s190.8,117.55,190.8,262.57Z"/>
            <path class="cls-14" d="m474.45,284.82c0,144.91-85.32,262.38-190.55,262.38s-190.55-117.47-190.55-262.38S178.68,22.44,283.9,22.44s190.55,117.47,190.55,262.39Z"/>
            <path class="cls-44" d="m474.2,284.82c0,144.81-85.21,262.2-190.31,262.2s-190.3-117.39-190.3-262.2S178.81,22.62,283.9,22.62s190.31,117.39,190.31,262.21Z"/>
            <path class="cls-78" d="m473.95,284.82c0,144.71-85.1,262.02-190.06,262.02s-190.05-117.31-190.05-262.02S178.95,22.8,283.9,22.8s190.06,117.31,190.06,262.03Z"/>
            <path class="cls-16" d="m473.71,284.82c0,144.61-84.99,261.84-189.81,261.84s-189.8-117.23-189.8-261.84S179.09,22.97,283.9,22.97s189.81,117.23,189.81,261.85Z"/>
            <path class="cls-16" d="m473.46,284.82c0,144.51-84.88,261.66-189.56,261.66s-189.56-117.15-189.56-261.66S179.22,23.15,283.9,23.15s189.56,117.15,189.56,261.67Z"/>
            <path class="cls-37" d="m473.21,284.82c0,144.41-84.77,261.48-189.31,261.48s-189.31-117.07-189.31-261.48S179.36,23.33,283.9,23.33s189.31,117.07,189.31,261.49Z"/>
            <path class="cls-27" d="m472.96,284.82c0,144.31-84.66,261.31-189.07,261.31s-189.06-116.99-189.06-261.31S179.5,23.51,283.9,23.51s189.07,116.99,189.07,261.31Z"/>
            <path class="cls-62" d="m472.71,284.82c0,144.22-84.55,261.13-188.82,261.13s-188.81-116.91-188.81-261.13S179.64,23.69,283.9,23.69s188.82,116.91,188.82,261.13Z"/>
            <path class="cls-43" d="m472.47,284.82c0,144.12-84.44,260.95-188.57,260.95s-188.57-116.83-188.57-260.95S179.77,23.87,283.9,23.87s188.57,116.83,188.57,260.95Z"/>
            <path class="cls-59" d="m472.22,284.82c0,144.02-84.32,260.77-188.32,260.77s-188.32-116.75-188.32-260.77S179.91,24.05,283.9,24.05s188.32,116.75,188.32,260.77Z"/>
            <path class="cls-81" d="m471.97,284.82c0,143.92-84.21,260.59-188.07,260.59s-188.07-116.67-188.07-260.59S180.05,24.23,283.9,24.23s188.07,116.67,188.07,260.59Z"/>
            <path class="cls-12" d="m471.72,284.82c0,143.82-84.1,260.41-187.83,260.41s-187.82-116.59-187.82-260.41S180.18,24.41,283.9,24.41s187.83,116.59,187.83,260.42Z"/>
            <path class="cls-84" d="m471.47,284.82c0,143.72-83.99,260.23-187.58,260.23s-187.57-116.51-187.57-260.23S180.32,24.59,283.9,24.59s187.58,116.51,187.58,260.24Z"/>
            <path class="cls-36" d="m471.23,284.82c0,143.62-83.88,260.05-187.33,260.05s-187.33-116.43-187.33-260.05S180.46,24.77,283.9,24.77s187.33,116.43,187.33,260.06Z"/>
            <path class="cls-74" d="m470.98,284.82c0,143.52-83.77,259.87-187.08,259.87s-187.08-116.35-187.08-259.87S180.59,24.95,283.9,24.95s187.08,116.35,187.08,259.88Z"/>
            <path class="cls-79" d="m470.73,284.82c0,143.42-83.66,259.69-186.83,259.69s-186.83-116.27-186.83-259.69S180.73,25.12,283.9,25.12s186.83,116.27,186.83,259.7Z"/>
            <path class="cls-67" d="m470.48,284.82c0,143.32-83.55,259.51-186.58,259.51s-186.58-116.19-186.58-259.51S180.87,25.3,283.9,25.3s186.58,116.19,186.58,259.52Z"/>
            <path class="cls-11" d="m470.23,284.82c0,143.23-83.44,259.33-186.34,259.33s-186.33-116.11-186.33-259.33S181,25.48,283.9,25.48s186.34,116.11,186.34,259.34Z"/>
            <path class="cls-15" d="m469.99,284.82c0,143.13-83.32,259.16-186.09,259.16s-186.09-116.03-186.09-259.16S181.14,25.66,283.9,25.66s186.09,116.03,186.09,259.16Z"/>
            <path class="cls-29" d="m469.74,284.82c0,143.03-83.21,258.98-185.84,258.98s-185.84-115.95-185.84-258.98S181.28,25.84,283.9,25.84s185.84,115.95,185.84,258.98Z"/>
            <path class="cls-47" d="m469.49,284.82c0,142.93-83.1,258.8-185.59,258.8s-185.59-115.87-185.59-258.8S181.42,26.02,283.9,26.02s185.59,115.87,185.59,258.8Z"/>
            <path class="cls-32" d="m469.24,284.82c0,142.83-82.99,258.62-185.34,258.62s-185.34-115.79-185.34-258.62S181.55,26.2,283.9,26.2s185.34,115.79,185.34,258.62Z"/>
            <path class="cls-82" d="m468.99,284.82c0,142.73-82.88,258.44-185.1,258.44s-185.09-115.71-185.09-258.44S181.69,26.38,283.9,26.38s185.1,115.71,185.1,258.45Z"/>
            <path class="cls-10" d="m468.75,284.82c0,142.63-82.77,258.26-184.85,258.26s-184.85-115.63-184.85-258.26S181.83,26.56,283.9,26.56s184.85,115.63,184.85,258.27Z"/>
            <path class="cls-87" d="m468.5,284.82c0,142.53-82.66,258.08-184.6,258.08s-184.6-115.55-184.6-258.08S181.96,26.74,283.9,26.74s184.6,115.55,184.6,258.09Z"/>
            <path class="cls-35" d="m468.25,284.82c0,142.43-82.55,257.9-184.35,257.9s-184.35-115.47-184.35-257.9S182.1,26.92,283.9,26.92s184.35,115.47,184.35,257.91Z"/>
            <path class="cls-72" d="m468,284.82c0,142.33-82.44,257.72-184.1,257.72s-184.1-115.39-184.1-257.72S182.24,27.09,283.9,27.09s184.1,115.39,184.1,257.73Z"/>
            <path class="cls-64" d="m467.75,284.82c0,142.24-82.32,257.54-183.86,257.54s-183.86-115.31-183.86-257.54S182.37,27.27,283.9,27.27s183.86,115.31,183.86,257.55Z"/>
            <path class="cls-20" d="m467.51,284.82c0,142.14-82.21,257.36-183.61,257.36s-183.61-115.23-183.61-257.36S182.51,27.45,283.9,27.45s183.61,115.23,183.61,257.37Z"/>
            <path class="cls-18" d="m467.26,284.82c0,142.04-82.1,257.19-183.36,257.19s-183.36-115.15-183.36-257.19S182.65,27.63,283.9,27.63s183.36,115.15,183.36,257.19Z"/>
            <path class="cls-61" d="m467.01,284.82c0,141.94-81.99,257.01-183.11,257.01s-183.11-115.07-183.11-257.01S182.78,27.81,283.9,27.81s183.11,115.07,183.11,257.01Z"/>
            <path class="cls-38" d="m466.76,284.82c0,141.84-81.88,256.83-182.86,256.83s-182.86-114.99-182.86-256.83S182.92,27.99,283.9,27.99s182.86,114.99,182.86,256.83Z"/>
            <path class="cls-65" d="m466.51,284.82c0,141.74-81.77,256.65-182.62,256.65s-182.62-114.91-182.62-256.65S183.06,28.17,283.9,28.17s182.62,114.91,182.62,256.65Z"/>
            <path class="cls-68" d="m466.27,284.82c0,141.64-81.66,256.47-182.37,256.47s-182.37-114.83-182.37-256.47S183.19,28.35,283.9,28.35s182.37,114.83,182.37,256.47Z"/>
            <path class="cls-24" d="m466.02,284.82c0,141.54-81.55,256.29-182.12,256.29s-182.12-114.75-182.12-256.29S183.33,28.53,283.9,28.53s182.12,114.75,182.12,256.3Z"/>
            <path class="cls-88" d="m465.77,284.82c0,141.44-81.44,256.11-181.87,256.11s-181.87-114.67-181.87-256.11S183.47,28.71,283.9,28.71s181.87,114.67,181.87,256.12Z"/>
            <path class="cls-45" d="m465.52,284.82c0,141.35-81.32,255.93-181.62,255.93s-181.62-114.59-181.62-255.93S183.61,28.89,283.9,28.89s181.62,114.59,181.62,255.94Z"/>
            <path class="cls-1" d="m465.27,284.82c0,141.25-81.21,255.75-181.38,255.75s-181.38-114.51-181.38-255.75S183.74,29.07,283.9,29.07s181.38,114.51,181.38,255.76Z"/>
            <path class="cls-58" d="m465.03,284.82c0,141.15-81.1,255.57-181.13,255.57s-181.13-114.43-181.13-255.57S183.88,29.24,283.9,29.24s181.13,114.43,181.13,255.58Z"/>
            <path class="cls-77" d="m464.78,284.82c0,141.05-80.99,255.39-180.88,255.39s-180.88-114.35-180.88-255.39S184.02,29.42,283.9,29.42s180.88,114.35,180.88,255.4Z"/>
            <path class="cls-28" d="m464.53,284.82c0,140.95-80.88,255.21-180.63,255.21s-180.63-114.27-180.63-255.21S184.15,29.6,283.9,29.6s180.63,114.27,180.63,255.22Z"/>
            <path class="cls-70" d="m464.28,284.82c0,140.85-80.77,255.04-180.38,255.04s-180.38-114.19-180.38-255.04S184.29,29.78,283.9,29.78s180.38,114.19,180.38,255.04Z"/>
            <path class="cls-23" d="m464.03,284.82c0,140.75-80.66,254.86-180.14,254.86s-180.14-114.11-180.14-254.86S184.43,29.96,283.9,29.96s180.14,114.11,180.14,254.86Z"/>
            <path class="cls-70" d="m463.38,284.82c0,140.3-80.37,254.04-179.49,254.04s-179.49-113.74-179.49-254.04S184.79,30.78,283.9,30.78s179.49,113.74,179.49,254.04Z"/>
            <path class="cls-28" d="m462.73,284.82c0,139.85-80.07,253.22-178.83,253.22s-178.83-113.37-178.83-253.22S185.15,31.6,283.9,31.6s178.83,113.37,178.83,253.23Z"/>
            <path class="cls-77" d="m462.08,284.82c0,139.4-79.78,252.4-178.18,252.4s-178.18-113.01-178.18-252.4S185.5,32.42,283.9,32.42s178.18,113.01,178.18,252.41Z"/>
            <path class="cls-58" d="m461.43,284.82c0,138.94-79.49,251.58-177.53,251.58s-177.53-112.64-177.53-251.58S185.86,33.23,283.9,33.23s177.53,112.64,177.53,251.59Z"/>
            <path class="cls-1" d="m460.78,284.82c0,138.49-79.2,250.77-176.88,250.77s-176.88-112.27-176.88-250.77S186.22,34.05,283.9,34.05s176.88,112.27,176.88,250.77Z"/>
            <path class="cls-45" d="m460.13,284.82c0,138.04-78.91,249.95-176.23,249.95s-176.23-111.91-176.23-249.95S186.58,34.87,283.9,34.87s176.23,111.91,176.23,249.95Z"/>
            <path class="cls-88" d="m459.48,284.82c0,137.59-78.62,249.13-175.58,249.13s-175.58-111.54-175.58-249.13S186.94,35.69,283.9,35.69s175.58,111.54,175.58,249.13Z"/>
            <path class="cls-24" d="m458.82,284.82c0,137.14-78.32,248.31-174.93,248.31s-174.93-111.17-174.93-248.31S187.3,36.51,283.9,36.51s174.93,111.17,174.93,248.32Z"/>
            <ellipse class="cls-68" cx="283.9" cy="284.82" rx="174.28" ry="247.49"/>
            <ellipse class="cls-65" cx="283.9" cy="284.82" rx="173.62" ry="246.68"/>
            <ellipse class="cls-38" cx="283.9" cy="284.82" rx="172.97" ry="245.86"/>
            <ellipse class="cls-61" cx="283.9" cy="284.82" rx="172.32" ry="245.04"/>
            <ellipse class="cls-18" cx="283.9" cy="284.82" rx="171.67" ry="244.22"/>
            <ellipse class="cls-20" cx="283.9" cy="284.82" rx="171.02" ry="243.4"/>
            <ellipse class="cls-64" cx="283.9" cy="284.82" rx="170.37" ry="242.59"/>
            <ellipse class="cls-72" cx="283.9" cy="284.82" rx="169.72" ry="241.77"/>
            <ellipse class="cls-35" cx="283.9" cy="284.82" rx="169.07" ry="240.95"/>
            <path class="cls-87" d="m452.31,284.82c0,132.62-75.41,240.13-168.42,240.13s-168.41-107.51-168.41-240.13S190.89,44.69,283.9,44.69s168.42,107.51,168.42,240.13Z"/>
            <path class="cls-10" d="m451.66,284.82c0,132.17-75.12,239.31-167.77,239.31s-167.76-107.14-167.76-239.31S191.25,45.51,283.9,45.51s167.77,107.15,167.77,239.31Z"/>
            <path class="cls-82" d="m451.01,284.82c0,131.72-74.82,238.5-167.11,238.5s-167.11-106.78-167.11-238.5S191.61,46.33,283.9,46.33s167.11,106.78,167.11,238.5Z"/>
            <path class="cls-32" d="m450.36,284.82c0,131.27-74.53,237.68-166.46,237.68s-166.46-106.41-166.46-237.68S191.97,47.14,283.9,47.14s166.46,106.41,166.46,237.68Z"/>
            <path class="cls-47" d="m449.71,284.82c0,130.81-74.24,236.86-165.81,236.86s-165.81-106.04-165.81-236.86S192.33,47.96,283.9,47.96s165.81,106.05,165.81,236.86Z"/>
            <path class="cls-29" d="m449.06,284.82c0,130.36-73.95,236.04-165.16,236.04s-165.16-105.68-165.16-236.04S192.69,48.78,283.9,48.78s165.16,105.68,165.16,236.04Z"/>
            <path class="cls-15" d="m448.41,284.82c0,129.91-73.66,235.22-164.51,235.22s-164.51-105.31-164.51-235.22S193.05,49.6,283.9,49.6s164.51,105.31,164.51,235.22Z"/>
            <path class="cls-11" d="m447.76,284.82c0,129.46-73.36,234.4-163.86,234.4s-163.86-104.95-163.86-234.4S193.41,50.42,283.9,50.42s163.86,104.95,163.86,234.4Z"/>
            <path class="cls-67" d="m447.1,284.82c0,129.01-73.07,233.59-163.21,233.59s-163.2-104.58-163.2-233.59S193.77,51.24,283.9,51.24s163.21,104.58,163.21,233.58Z"/>
            <path class="cls-79" d="m446.45,284.82c0,128.56-72.78,232.77-162.56,232.77s-162.55-104.21-162.55-232.77S194.13,52.05,283.9,52.05s162.56,104.22,162.56,232.77Z"/>
            <path class="cls-74" d="m445.8,284.82c0,128.1-72.49,231.95-161.91,231.95s-161.9-103.85-161.9-231.95S194.49,52.87,283.9,52.87s161.91,103.85,161.91,231.95Z"/>
            <path class="cls-36" d="m445.15,284.82c0,127.65-72.2,231.13-161.25,231.13s-161.25-103.48-161.25-231.13S194.85,53.69,283.9,53.69s161.25,103.48,161.25,231.13Z"/>
            <path class="cls-84" d="m444.5,284.82c0,127.2-71.91,230.31-160.6,230.31s-160.6-103.11-160.6-230.31S195.2,54.51,283.9,54.51s160.6,103.12,160.6,230.31Z"/>
            <path class="cls-84" d="m443.85,284.82c0,126.75-71.61,229.5-159.95,229.5s-159.95-102.75-159.95-229.5S195.56,55.33,283.9,55.33s159.95,102.75,159.95,229.49Z"/>
            <path class="cls-12" d="m443.2,284.82c0,126.3-71.32,228.68-159.3,228.68s-159.3-102.38-159.3-228.68S195.92,56.15,283.9,56.15s159.3,102.38,159.3,228.67Z"/>
            <path class="cls-81" d="m442.55,284.82c0,125.85-71.03,227.86-158.65,227.86s-158.65-102.01-158.65-227.86S196.28,56.96,283.9,56.96s158.65,102.02,158.65,227.86Z"/>
            <path class="cls-59" d="m441.9,284.82c0,125.39-70.74,227.04-158,227.04s-157.99-101.65-157.99-227.04S196.64,57.78,283.9,57.78s158,101.65,158,227.04Z"/>
            <path class="cls-43" d="m441.24,284.82c0,124.94-70.45,226.22-157.35,226.22s-157.34-101.28-157.34-226.22S197,58.6,283.9,58.6s157.35,101.28,157.35,226.22Z"/>
            <path class="cls-62" d="m440.59,284.82c0,124.49-70.16,225.41-156.7,225.41s-156.69-100.91-156.69-225.41S197.36,59.42,283.9,59.42s156.7,100.92,156.7,225.4Z"/>
            <path class="cls-27" d="m439.94,284.82c0,124.04-69.86,224.59-156.05,224.59s-156.04-100.55-156.04-224.59S197.72,60.24,283.9,60.24s156.05,100.55,156.05,224.58Z"/>
            <path class="cls-37" d="m439.29,284.82c0,123.59-69.57,223.77-155.39,223.77s-155.39-100.18-155.39-223.77S198.08,61.05,283.9,61.05s155.39,100.19,155.39,223.76Z"/>
            <path class="cls-16" d="m438.64,284.82c0,123.14-69.28,222.95-154.74,222.95s-154.74-99.82-154.74-222.95S198.44,61.87,283.9,61.87s154.74,99.82,154.74,222.95Z"/>
            <path class="cls-78" d="m437.99,284.82c0,122.68-68.99,222.13-154.09,222.13s-154.09-99.45-154.09-222.13S198.8,62.69,283.9,62.69s154.09,99.45,154.09,222.13Z"/>
            <path class="cls-44" d="m437.34,284.82c0,122.23-68.7,221.32-153.44,221.32s-153.44-99.08-153.44-221.32S199.16,63.51,283.9,63.51s153.44,99.09,153.44,221.31Z"/>
            <path class="cls-14" d="m436.69,284.82c0,121.78-68.41,220.5-152.79,220.5s-152.78-98.72-152.78-220.5,68.4-220.49,152.78-220.49,152.79,98.72,152.79,220.49Z"/>
            <path class="cls-63" d="m436.04,284.82c0,121.33-68.11,219.68-152.14,219.68s-152.13-98.35-152.13-219.68,68.11-219.67,152.13-219.67,152.14,98.35,152.14,219.67Z"/>
            <path class="cls-4" d="m435.38,284.82c0,120.88-67.82,218.86-151.49,218.86s-151.48-97.98-151.48-218.86,67.82-218.85,151.48-218.85,151.49,97.99,151.49,218.85Z"/>
            <path class="cls-33" d="m434.73,284.82c0,120.43-67.53,218.04-150.84,218.04s-150.83-97.62-150.83-218.04,67.53-218.04,150.83-218.04,150.84,97.62,150.84,218.04Z"/>
            <path class="cls-93" d="m434.08,284.82c0,119.97-67.24,217.23-150.19,217.23s-150.18-97.25-150.18-217.23,67.24-217.22,150.18-217.22,150.19,97.26,150.19,217.22Z"/>
            <path class="cls-31" d="m433.43,284.82c0,119.52-66.95,216.41-149.53,216.41s-149.53-96.88-149.53-216.41,66.94-216.4,149.53-216.4,149.53,96.89,149.53,216.4Z"/>
            <path class="cls-40" d="m432.78,284.82c0,119.07-66.66,215.59-148.88,215.59s-148.88-96.52-148.88-215.59,66.65-215.58,148.88-215.58,148.88,96.52,148.88,215.58Z"/>
            <path class="cls-21" d="m432.13,284.82c0,118.62-66.36,214.77-148.23,214.77s-148.23-96.15-148.23-214.77,66.36-214.76,148.23-214.76,148.23,96.16,148.23,214.76Z"/>
            <path class="cls-90" d="m431.48,284.82c0,118.17-66.07,213.95-147.58,213.95s-147.57-95.78-147.57-213.95,66.07-213.94,147.57-213.94,147.58,95.79,147.58,213.94Z"/>
            <path class="cls-50" d="m430.83,284.82c0,117.72-65.78,213.14-146.93,213.14s-146.92-95.42-146.92-213.14,65.78-213.13,146.92-213.13,146.93,95.42,146.93,213.13Z"/>
            <path class="cls-56" d="m430.18,284.82c0,117.26-65.49,212.32-146.28,212.32s-146.27-95.05-146.27-212.32,65.48-212.31,146.27-212.31,146.28,95.06,146.28,212.31Z"/>
            <path class="cls-41" d="m429.52,284.82c0,116.81-65.2,211.5-145.63,211.5s-145.62-94.69-145.62-211.5,65.19-211.49,145.62-211.49,145.63,94.69,145.63,211.49Z"/>
            <path class="cls-42" d="m428.87,284.82c0,116.36-64.91,210.68-144.98,210.68s-144.97-94.32-144.97-210.68,64.9-210.67,144.97-210.67,144.98,94.32,144.98,210.67Z"/>
            <path class="cls-66" d="m428.22,284.82c0,115.91-64.61,209.86-144.33,209.86s-144.32-93.95-144.32-209.86,64.61-209.85,144.32-209.85,144.33,93.96,144.33,209.85Z"/>
            <path class="cls-5" d="m427.57,284.82c0,115.46-64.32,209.04-143.67,209.04s-143.67-93.59-143.67-209.04,64.32-209.03,143.67-209.03,143.67,93.59,143.67,209.03Z"/>
            <path class="cls-46" d="m426.92,284.82c0,115.01-64.03,208.23-143.02,208.23s-143.02-93.22-143.02-208.23,64.02-208.22,143.02-208.22,143.02,93.23,143.02,208.22Z"/>
            <path class="cls-60" d="m426.27,284.82c0,114.56-63.74,207.41-142.37,207.41s-142.36-92.85-142.36-207.41,63.73-207.4,142.36-207.4,142.37,92.86,142.37,207.4Z"/>
            <path class="cls-85" d="m425.62,284.82c0,114.1-63.45,206.59-141.72,206.59s-141.71-92.49-141.71-206.59,63.44-206.58,141.71-206.58,141.72,92.49,141.72,206.58Z"/>
            <path class="cls-92" d="m424.97,284.82c0,113.65-63.15,205.77-141.07,205.77s-141.06-92.12-141.06-205.77,63.15-205.76,141.06-205.76,141.07,92.13,141.07,205.76Z"/>
          </g>
          <g>
            <path class="cls-23" d="m305,284.81c0,8.08-9.46,14.61-21.09,14.61s-21.11-6.53-21.11-14.61,9.48-14.59,21.11-14.59,21.09,6.53,21.09,14.59Z"/>
            <path class="cls-19" d="m299.38,284.82c0,5.93-6.94,10.71-15.47,10.71s-15.49-4.79-15.49-10.71,6.96-10.71,15.49-10.71,15.47,4.79,15.47,10.71Z"/>
          </g>
          <g>
            <g>
              <path class="cls-23" d="m91.68,239.18c4.53.04,8.17,2.6,8.13,5.73l-1.1,79.96c-.04,3.13-3.76,5.64-8.29,5.6h-1.24c-4.54-.04-8.18-2.61-8.13-5.74l1.1-79.96c.04-3.13,3.76-5.64,8.29-5.6h1.25Z"/>
              <path class="cls-75" d="m91.47,242.14c3.28.02,5.91,1.88,5.89,4.15l-1.07,77.17c-.03,2.26-2.72,4.08-6,4.05h-.9c-3.29-.03-5.92-1.89-5.89-4.15l1.07-77.17c.03-2.27,2.72-4.08,6-4.06h.9Z"/>
            </g>
            <g>
              <path class="cls-39" d="m90.61,271.77c10.44.08,18.83,5.99,18.73,13.2-.1,7.21-8.65,12.99-19.1,12.91-10.44-.08-18.83-6-18.73-13.21.1-7.21,8.64-12.99,19.09-12.9Z"/>
              <path class="cls-49" d="m90.6,272.24c10.07.08,18.15,5.78,18.06,12.72-.1,6.95-8.34,12.52-18.41,12.44-10.07-.08-18.15-5.78-18.05-12.73.09-6.95,8.33-12.52,18.4-12.44Z"/>
              <path class="cls-30" d="m90.6,272.71c9.69.07,17.47,5.56,17.38,12.25-.1,6.69-8.02,12.05-17.72,11.97-9.69-.08-17.47-5.56-17.37-12.25.09-6.69,8.02-12.05,17.71-11.97Z"/>
              <path class="cls-34" d="m90.59,273.18c9.31.07,16.79,5.34,16.7,11.77-.09,6.43-7.71,11.58-17.03,11.51-9.31-.07-16.79-5.35-16.7-11.77.09-6.43,7.71-11.58,17.02-11.5Z"/>
              <path class="cls-53" d="m90.58,273.66c8.94.07,16.11,5.13,16.03,11.29-.09,6.17-7.4,11.11-16.34,11.04-8.94-.07-16.11-5.13-16.02-11.29.08-6.17,7.39-11.11,16.33-11.04Z"/>
              <path class="cls-64" d="m90.57,274.13c8.56.06,15.43,4.91,15.35,10.82-.08,5.91-7.09,10.64-15.64,10.57-8.56-.07-15.43-4.91-15.35-10.82.08-5.91,7.08-10.64,15.64-10.57Z"/>
              <path class="cls-26" d="m90.57,274.6c8.18.06,14.75,4.69,14.67,10.34-.08,5.65-6.77,10.17-14.95,10.11-8.18-.06-14.75-4.7-14.67-10.34.08-5.65,6.77-10.17,14.95-10.11Z"/>
              <path class="cls-84" d="m90.56,275.07c7.81.06,14.07,4.48,14,9.86-.08,5.39-6.46,9.7-14.26,9.64-7.81-.06-14.07-4.48-13.99-9.86.07-5.39,6.46-9.7,14.26-9.64Z"/>
              <path class="cls-37" d="m90.55,275.54c7.43.06,13.39,4.26,13.32,9.39-.07,5.12-6.15,9.23-13.57,9.17-7.43-.06-13.39-4.26-13.32-9.38.07-5.13,6.14-9.23,13.57-9.17Z"/>
              <path class="cls-33" d="m90.55,276.01c7.05.05,12.71,4.04,12.64,8.91-.07,4.86-5.83,8.76-12.88,8.7-7.05-.05-12.71-4.04-12.64-8.91.07-4.87,5.83-8.76,12.88-8.71Z"/>
              <path class="cls-41" d="m90.54,276.49c6.68.05,12.03,3.83,11.97,8.43-.07,4.6-5.52,8.29-12.19,8.24-6.68-.05-12.03-3.83-11.97-8.43.06-4.61,5.52-8.29,12.19-8.24Z"/>
              <path class="cls-92" d="m90.53,276.96c6.3.05,11.35,3.61,11.29,7.96-.06,4.34-5.21,7.82-11.5,7.77-6.3-.05-11.35-3.61-11.29-7.95.06-4.35,5.21-7.82,11.5-7.78Z"/>
            </g>
            <g>
              <path class="cls-23" d="m220.98,278.37c4.53.04,8.18,2.61,8.13,5.73l-.06,4.3c-.04,3.13-3.76,5.64-8.29,5.6l-132.04-1.38c-4.53-.04-8.18-2.6-8.13-5.73l.06-4.3c.04-3.13,3.76-5.64,8.29-5.6l132.04,1.38Z"/>
              <path class="cls-6" d="m218.15,280.93c3.04.02,5.49,1.74,5.46,3.84l-.04,2.89c-.03,2.1-2.52,3.78-5.56,3.75l-128.88-1.36c-3.04-.02-5.48-1.74-5.45-3.84l.04-2.89c.03-2.1,2.52-3.78,5.56-3.75l128.87,1.36Z"/>
            </g>
            <g>
              <g>
                <g>
                  <path class="cls-39" d="m90,315.91c8.77.07,15.81,5.03,15.73,11.09-.09,6.05-7.26,10.9-16.03,10.83-8.76-.07-15.81-5.03-15.73-11.08.09-6.05,7.26-10.9,16.03-10.83Z"/>
                  <path class="cls-49" d="m89.99,316.29c8.47.07,15.26,4.86,15.18,10.7-.08,5.84-7.01,10.52-15.48,10.45-8.46-.06-15.26-4.86-15.18-10.7.08-5.84,7.01-10.52,15.48-10.46Z"/>
                  <path class="cls-30" d="m89.99,316.67c8.17.07,14.71,4.68,14.64,10.32-.08,5.63-6.76,10.15-14.92,10.08-8.16-.06-14.71-4.68-14.64-10.32.08-5.63,6.76-10.15,14.92-10.08Z"/>
                  <path class="cls-34" d="m89.98,317.05c7.86.06,14.16,4.51,14.1,9.94-.08,5.42-6.51,9.77-14.37,9.7-7.85-.06-14.16-4.51-14.09-9.93.08-5.42,6.51-9.77,14.37-9.71Z"/>
                  <path class="cls-53" d="m89.98,317.43c7.56.06,13.62,4.33,13.55,9.55-.08,5.21-6.26,9.39-13.81,9.33-7.55-.06-13.62-4.33-13.55-9.55.07-5.21,6.25-9.39,13.81-9.33Z"/>
                  <path class="cls-64" d="m89.97,317.81c7.26.06,13.07,4.16,13.01,9.17-.07,5-6.01,9.01-13.26,8.95-7.25-.06-13.07-4.16-13-9.16.07-5.01,6-9.01,13.25-8.96Z"/>
                  <path class="cls-26" d="m89.96,318.19c6.95.06,12.52,3.99,12.46,8.78-.07,4.79-5.76,8.64-12.7,8.58-6.94-.05-12.52-3.99-12.46-8.78.07-4.8,5.75-8.64,12.7-8.58Z"/>
                  <path class="cls-84" d="m89.96,318.57c6.65.05,11.98,3.81,11.92,8.4-.07,4.58-5.5,8.26-12.15,8.2-6.64-.05-11.98-3.81-11.91-8.4.06-4.59,5.5-8.26,12.14-8.21Z"/>
                  <path class="cls-37" d="m89.95,318.95c6.35.05,11.43,3.64,11.38,8.02-.06,4.37-5.25,7.88-11.59,7.83-6.34-.05-11.43-3.64-11.37-8.01.06-4.38,5.25-7.88,11.58-7.83Z"/>
                  <path class="cls-33" d="m89.95,319.33c6.04.05,10.88,3.46,10.83,7.63-.06,4.16-5,7.5-11.04,7.46-6.03-.05-10.88-3.46-10.82-7.63.06-4.17,4.99-7.5,11.03-7.46Z"/>
                  <path class="cls-41" d="m89.94,319.71c5.74.05,10.33,3.29,10.29,7.25-.06,3.95-4.75,7.13-10.48,7.08-5.73-.04-10.33-3.29-10.28-7.25.05-3.96,4.74-7.13,10.47-7.08Z"/>
                  <path class="cls-92" d="m89.94,320.09c5.43.04,9.79,3.11,9.74,6.86-.05,3.74-4.5,6.75-9.93,6.71s-9.79-3.11-9.73-6.86c.05-3.75,4.49-6.75,9.92-6.71Z"/>
                </g>
                <path class="cls-57" d="m89.94,320.09c5.43.04,9.79,3.11,9.74,6.86-.05,3.74-4.5,6.75-9.93,6.71s-9.79-3.11-9.73-6.86c.05-3.75,4.49-6.75,9.92-6.71Z"/>
              </g>
              <g>
                <g>
                  <path class="cls-39" d="m91.16,231.82c8.76.07,15.81,5.03,15.73,11.08-.09,6.05-7.26,10.91-16.03,10.83-8.77-.07-15.81-5.03-15.73-11.08.09-6.05,7.26-10.9,16.03-10.83Z"/>
                  <path class="cls-49" d="m91.15,232.2c8.46.06,15.26,4.86,15.18,10.7-.08,5.84-7.01,10.53-15.48,10.46-8.46-.06-15.26-4.86-15.18-10.7.08-5.84,7.01-10.52,15.48-10.46Z"/>
                  <path class="cls-30" d="m91.15,232.58c8.16.06,14.71,4.68,14.64,10.31-.08,5.63-6.76,10.15-14.92,10.09-8.16-.06-14.71-4.68-14.64-10.32.08-5.63,6.76-10.15,14.92-10.08Z"/>
                  <path class="cls-34" d="m91.14,232.96c7.86.06,14.16,4.51,14.09,9.93-.08,5.42-6.51,9.77-14.36,9.71-7.86-.06-14.17-4.51-14.09-9.93.08-5.42,6.5-9.77,14.36-9.71Z"/>
                  <path class="cls-53" d="m91.14,233.33c7.55.06,13.62,4.33,13.55,9.55-.07,5.21-6.25,9.4-13.81,9.34-7.55-.06-13.62-4.33-13.55-9.55.07-5.21,6.25-9.39,13.81-9.33Z"/>
                  <path class="cls-64" d="m91.13,233.71c7.25.06,13.07,4.16,13,9.16-.07,5.01-6,9.02-13.25,8.96-7.25-.06-13.07-4.16-13-9.16.07-5.01,6-9.02,13.25-8.96Z"/>
                  <path class="cls-26" d="m91.13,234.09c6.95.05,12.52,3.99,12.46,8.78-.06,4.8-5.75,8.64-12.7,8.59-6.95-.05-12.52-3.99-12.46-8.78.06-4.8,5.75-8.64,12.7-8.58Z"/>
                  <path class="cls-84" d="m91.12,234.47c6.65.05,11.98,3.81,11.91,8.39-.06,4.59-5.5,8.26-12.14,8.21-6.65-.05-11.98-3.81-11.91-8.4.06-4.59,5.5-8.26,12.14-8.21Z"/>
                  <path class="cls-37" d="m91.12,234.85c6.34.05,11.43,3.64,11.37,8.01-.06,4.38-5.25,7.89-11.59,7.84-6.34-.05-11.43-3.64-11.37-8.01.06-4.38,5.25-7.88,11.59-7.83Z"/>
                  <path class="cls-33" d="m91.11,235.23c6.04.05,10.88,3.46,10.82,7.62-.05,4.17-4.99,7.51-11.03,7.46-6.04-.05-10.88-3.46-10.82-7.63.05-4.17,4.99-7.51,11.03-7.46Z"/>
                  <path class="cls-41" d="m91.1,235.61c5.74.04,10.33,3.29,10.28,7.24-.05,3.96-4.74,7.13-10.47,7.09-5.74-.04-10.33-3.29-10.28-7.25.05-3.96,4.74-7.13,10.47-7.08Z"/>
                  <path class="cls-92" d="m91.1,235.99c5.44.04,9.79,3.11,9.73,6.86-.04,3.75-4.49,6.75-9.92,6.71-5.43-.04-9.79-3.11-9.73-6.86.04-3.75,4.49-6.75,9.92-6.71Z"/>
                </g>
                <path class="cls-55" d="m91.1,235.99c5.44.04,9.79,3.11,9.73,6.86-.04,3.75-4.49,6.75-9.92,6.71-5.43-.04-9.79-3.11-9.73-6.86.04-3.75,4.49-6.75,9.92-6.71Z"/>
              </g>
            </g>
          </g>
          <path class="cls-2" d="m464.03,284.82c0,140.75-80.66,254.86-180.14,254.86s-180.14-114.11-180.14-254.86S184.43,29.96,283.9,29.96s180.14,114.11,180.14,254.86Z"/>
        </g>
        <path class="cls-51" d="m501.82,284.82c0,157.29-97.57,284.8-217.92,284.8s-217.92-127.51-217.92-284.8S163.53.01,283.9.01s217.92,127.51,217.92,284.81Z"/>
      </g>
    </g>
  </g>
</svg>