<?xml version="1.0" encoding="UTF-8"?>
<svg xmlns="http://www.w3.org/2000/svg" xmlns:xlink="http://www.w3.org/1999/xlink" viewBox="0 0 781.59 540.1">
  <defs>
    <style>
      .cls-1 {
        fill: url(#New_Gradient_Swatch_18-6);
      }

      .cls-2 {
        fill: #ddd;
      }

      .cls-3 {
        fill: #e9e9e9;
      }

      .cls-4 {
        fill: url(#linear-gradient-2);
      }

      .cls-5 {
        fill: #f0f0f0;
      }

      .cls-6 {
        fill: #f4f4f4;
      }

      .cls-7 {
        fill: #fff;
      }

      .cls-8 {
        fill: url(#New_Gradient_Swatch_18-3);
      }

      .cls-9 {
        fill: #cbcbcb;
      }

      .cls-10 {
        fill: #d1d1d1;
      }

      .cls-11 {
        fill: #fafafa;
      }

      .cls-12 {
        fill: #dbdbdb;
      }

      .cls-13 {
        fill: #cacaca;
      }

      .cls-14 {
        fill: #d8d8d8;
      }

      .cls-15 {
        fill: #f6f6f6;
      }

      .cls-16 {
        fill: url(#linear-gradient);
      }

      .cls-16, .cls-17, .cls-18 {
        mix-blend-mode: multiply;
      }

      .cls-19 {
        fill: #939598;
      }

      .cls-17 {
        fill: url(#linear-gradient-4);
      }

      .cls-20 {
        fill: silver;
      }

      .cls-21 {
        fill: #e2e2e2;
      }

      .cls-22 {
        fill: #f5f5f5;
      }

      .cls-23 {
        stroke: #9d9d9c;
        stroke-miterlimit: 10;
        stroke-width: .03px;
      }

      .cls-23, .cls-24 {
        fill: none;
      }

      .cls-25 {
        fill: #b2b2b2;
      }

      .cls-26 {
        fill: #bababa;
      }

      .cls-27 {
        isolation: isolate;
      }

      .cls-28 {
        fill: #c9c9c8;
      }

      .cls-29 {
        fill: url(#New_Gradient_Swatch_18);
      }

      .cls-30 {
        fill: #d6d6d6;
      }

      .cls-31 {
        fill: #c9c9c9;
      }

      .cls-32 {
        fill: url(#New_Gradient_Swatch_18-4);
      }

      .cls-33 {
        fill: #acacab;
      }

      .cls-34 {
        fill: #e0e0e0;
      }

      .cls-35 {
        fill: #c7c7c7;
      }

      .cls-36 {
        fill: #dedede;
      }

      .cls-37 {
        fill: #b3b3b2;
      }

      .cls-38 {
        fill: #c3c3c3;
      }

      .cls-39 {
        fill: #cfcfcf;
      }

      .cls-40 {
        fill: #d7d7d7;
      }

      .cls-41 {
        fill: #bdbdbd;
      }

      .cls-42 {
        fill: #9d9d9c;
      }

      .cls-43 {
        fill: #e1e1e1;
      }

      .cls-44 {
        fill: #e6e6e6;
      }

      .cls-45 {
        fill: #e7e7e7;
      }

      .cls-46 {
        fill: #d4d4d4;
      }

      .cls-47 {
        fill: url(#New_Gradient_Swatch_18-2);
      }

      .cls-48 {
        fill: url(#New_Gradient_Swatch_18-8);
      }

      .cls-49 {
        fill: #dadada;
      }

      .cls-50 {
        fill: #b8b8b8;
      }

      .cls-51 {
        fill: #eaeaea;
      }

      .cls-52 {
        fill: url(#New_Gradient_Swatch_18-7);
      }

      .cls-53 {
        fill: #c8c8c8;
      }

      .cls-54 {
        fill: #fdfdfd;
      }

      .cls-55 {
        fill: #a4a4a3;
      }

      .cls-56 {
        fill: #e4e4e4;
      }

      .cls-24 {
        stroke: #949494;
        stroke-linecap: round;
        stroke-linejoin: round;
        stroke-width: .03px;
      }

      .cls-57 {
        fill: #fbfbfb;
      }

      .cls-58 {
        fill: #babab9;
      }

      .cls-59 {
        fill: #f9f9f9;
      }

      .cls-60 {
        fill: #72a6bf;
      }

      .cls-61 {
        fill: #e5e5e5;
      }

      .cls-62 {
        fill: url(#New_Gradient_Swatch_18-9);
      }

      .cls-63 {
        fill: #d16660;
      }

      .cls-64 {
        fill: #b6b6b6;
      }

      .cls-65 {
        fill: #d3d3d3;
      }

      .cls-66 {
        fill: #ebebeb;
      }

      .cls-67 {
        fill: #bebebe;
      }

      .cls-68 {
        fill: #d5d5d5;
      }

      .cls-69 {
        fill: #dcdcdc;
      }

      .cls-70 {
        fill: #c1c1c1;
      }

      .cls-71 {
        fill: #e8e8e8;
      }

      .cls-72 {
        fill: #ccc;
      }

      .cls-73 {
        fill: #f7f7f7;
      }

      .cls-74 {
        fill: #efefef;
      }

      .cls-75 {
        fill: #f1f1f1;
      }

      .cls-76 {
        fill: url(#linear-gradient-3);
      }

      .cls-77 {
        fill: #cecece;
      }

      .cls-78 {
        fill: #f3f3f3;
      }

      .cls-79 {
        fill: url(#New_Gradient_Swatch_18-5);
      }

      .cls-80 {
        fill: #b5b5b5;
      }

      .cls-81 {
        fill: #d9d9d9;
      }

      .cls-82 {
        fill: #cdcdcd;
      }

      .cls-83 {
        fill: #f8f8f8;
      }

      .cls-84 {
        fill: #d2d2d2;
      }

      .cls-85 {
        fill: #c6c6c6;
      }

      .cls-86 {
        fill: #eee;
      }

      .cls-87 {
        fill: #d0d0d0;
      }

      .cls-88 {
        fill: #ececec;
      }

      .cls-89 {
        fill: #f2f2f2;
      }

      .cls-90 {
        fill: #c4c4c4;
      }

      .cls-91 {
        fill: #b9b9b9;
      }

      .cls-92 {
        fill: #fefefe;
      }

      .cls-93 {
        fill: #e3e3e3;
      }

      .cls-94 {
        fill: #fcfcfc;
      }

      .cls-95 {
        fill: #ededed;
      }

      .cls-96 {
        fill: #dfdfdf;
      }
    </style>
    <linearGradient id="linear-gradient" x1="763.16" y1="166.94" x2="603.36" y2="295.33" gradientUnits="userSpaceOnUse">
      <stop offset="0" stop-color="#e0e0e0"/>
      <stop offset="1" stop-color="#fff"/>
    </linearGradient>
    <linearGradient id="linear-gradient-2" x1="1610.51" y1="654.6" x2="1683.66" y2="654.6" gradientTransform="translate(2288.54 1163.09) rotate(-179.4)" gradientUnits="userSpaceOnUse">
      <stop offset="0" stop-color="#bfbfbe"/>
      <stop offset=".57" stop-color="#fff"/>
      <stop offset="1" stop-color="#c9c9c8"/>
    </linearGradient>
    <linearGradient id="linear-gradient-3" x1="1646.94" y1="740.41" x2="1646.94" y2="650.27" xlink:href="#linear-gradient-2"/>
    <linearGradient id="New_Gradient_Swatch_18" data-name="New Gradient Swatch 18" x1="1732.56" y1="685.59" x2="1732.56" y2="679.5" gradientTransform="translate(1971.15 786.22) rotate(-180)" gradientUnits="userSpaceOnUse">
      <stop offset="0" stop-color="#fff"/>
      <stop offset="1" stop-color="#f1f2f2"/>
    </linearGradient>
    <linearGradient id="New_Gradient_Swatch_18-2" data-name="New Gradient Swatch 18" x1="1793.5" x2="1793.5" xlink:href="#New_Gradient_Swatch_18"/>
    <linearGradient id="New_Gradient_Swatch_18-3" data-name="New Gradient Swatch 18" x1="1854.44" x2="1854.44" xlink:href="#New_Gradient_Swatch_18"/>
    <linearGradient id="New_Gradient_Swatch_18-4" data-name="New Gradient Swatch 18" x1="1911.97" y1="628.84" x2="1911.97" y2="617.09" xlink:href="#New_Gradient_Swatch_18"/>
    <linearGradient id="New_Gradient_Swatch_18-5" data-name="New Gradient Swatch 18" x1="1911.97" y1="562.62" x2="1911.97" y2="550.86" xlink:href="#New_Gradient_Swatch_18"/>
    <linearGradient id="New_Gradient_Swatch_18-6" data-name="New Gradient Swatch 18" x1="1911.97" y1="496.41" x2="1911.97" y2="484.65" xlink:href="#New_Gradient_Swatch_18"/>
    <linearGradient id="New_Gradient_Swatch_18-7" data-name="New Gradient Swatch 18" x1="1684.82" y1="558.63" x2="1684.82" y2="547.74" xlink:href="#New_Gradient_Swatch_18"/>
    <linearGradient id="New_Gradient_Swatch_18-8" data-name="New Gradient Swatch 18" x1="1730.3" y1="480.4" x2="1730.3" y2="471.03" xlink:href="#New_Gradient_Swatch_18"/>
    <linearGradient id="New_Gradient_Swatch_18-9" data-name="New Gradient Swatch 18" x1="1806.7" y1="430.93" x2="1806.7" y2="423.82" xlink:href="#New_Gradient_Swatch_18"/>
    <linearGradient id="linear-gradient-4" x1="218.8" y1="116.34" x2="76.33" y2="316.91" xlink:href="#linear-gradient"/>
  </defs>
  <g class="cls-27">
    <g id="Layer_1" data-name="Layer 1">
      <g>
        <g class="cls-18">
          <path class="cls-7" d="m749.73,468.04l-12.3-372.55c0-35.5-27.53-64.28-61.49-64.28h-115.65c-.2,0-.39.03-.59.03h-.01c-2.09.02-4.15.15-6.19.39-.16.02-.32.06-.48.07-1.84.23-3.66.52-5.45.92-1.27.28-2.5.66-3.74,1.02-.63.19-1.28.32-1.9.53-24.98,8.16-43.14,32.5-43.14,61.31l-12.29,372.55c0,.88.09,1.74.13,2.61l-.13,4.17c0,36.03,27.51,65.27,61.49,65.27h140.24c33.97,0,61.49-29.24,61.49-65.27l-.13-3.94c.04-.95.13-1.89.13-2.84Z"/>
          <path class="cls-92" d="m750.28,467.51l-12.3-372.55c0-35.5-27.53-64.28-61.49-64.28h-115.65c-.2,0-.39.03-.59.03h-.01c-2.09.02-4.15.16-6.19.39-.16.02-.32.05-.48.07-1.84.21-3.66.53-5.45.92-1.27.28-2.5.66-3.74,1.02-.63.18-1.28.32-1.9.53-24.95,8.25-43.14,32.5-43.14,61.31l-12.29,372.55c0,.88.09,1.74.13,2.61l-.13,4.17c0,36.03,27.51,65.27,61.49,65.27h140.24c33.97,0,61.49-29.24,61.49-65.27l-.13-3.94c.04-.95.13-1.89.13-2.84Z"/>
          <path class="cls-54" d="m750.83,466.97l-12.3-372.55c0-35.5-27.53-64.28-61.49-64.28h-115.65c-.2,0-.39.03-.59.03h-.01c-2.09.02-4.15.16-6.19.39-.16.02-.32.05-.48.07-1.84.21-3.66.53-5.45.92-1.27.28-2.5.66-3.74,1.02-.63.18-1.28.32-1.9.53-24.95,8.25-43.14,32.5-43.14,61.31l-12.29,372.55c0,.88.09,1.74.13,2.61l-.13,4.17c0,36.03,27.51,65.27,61.49,65.27h140.24c33.97,0,61.49-29.24,61.49-65.27l-.13-3.94c.04-.95.13-1.89.13-2.84Z"/>
          <path class="cls-94" d="m751.38,466.43l-12.3-372.55c0-35.5-27.53-64.28-61.49-64.28h-115.65c-.2,0-.39.03-.59.03h-.01c-2.09.02-4.15.16-6.19.39-.16.02-.32.05-.48.07-1.84.21-3.66.53-5.45.92-1.27.28-2.5.66-3.74,1.02-.63.18-1.28.32-1.9.53-24.95,8.25-43.14,32.5-43.14,61.31l-12.29,372.55c0,.88.09,1.74.13,2.61l-.13,4.17c0,36.03,27.51,65.27,61.49,65.27h140.24c33.97,0,61.49-29.24,61.49-65.27l-.13-3.94c.04-.95.13-1.89.13-2.84Z"/>
          <path class="cls-57" d="m751.93,465.89l-12.3-372.55c0-35.5-27.53-64.28-61.49-64.28h-115.65c-.2,0-.39.03-.59.03h0c-2.09.02-4.15.16-6.19.39-.16.02-.32.05-.48.07-1.84.21-3.66.53-5.45.92-1.27.28-2.5.66-3.74,1.02-.63.18-1.28.32-1.9.53-24.95,8.25-43.14,32.5-43.14,61.31l-12.29,372.55c0,.88.09,1.74.13,2.61l-.13,4.17c0,36.03,27.51,65.27,61.49,65.27h140.24c33.97,0,61.49-29.24,61.49-65.27l-.13-3.94c.04-.95.13-1.89.13-2.84Z"/>
          <path class="cls-11" d="m752.48,465.35l-12.3-372.55c0-35.5-27.53-64.28-61.49-64.28h-115.65c-.2,0-.39.03-.59.03h0c-2.09.02-4.15.16-6.19.39-.16.02-.32.05-.48.07-1.84.21-3.66.53-5.45.92-1.27.28-2.5.66-3.74,1.02-.63.18-1.28.32-1.9.53-24.95,8.25-43.14,32.5-43.14,61.31l-12.29,372.55c0,.88.09,1.74.13,2.61l-.13,4.17c0,36.03,27.51,65.27,61.49,65.27h140.24c33.97,0,61.49-29.24,61.49-65.27l-.13-3.94c.04-.95.13-1.89.13-2.84Z"/>
          <path class="cls-59" d="m753.03,464.82l-12.3-372.55c0-35.5-27.53-64.28-61.49-64.28h-115.65c-.2,0-.39.03-.59.03h0c-2.09.02-4.15.16-6.19.39-.16.02-.32.05-.48.07-1.84.21-3.66.53-5.45.92-1.27.28-2.5.66-3.74,1.02-.63.18-1.28.32-1.9.53-24.95,8.25-43.14,32.5-43.14,61.31l-12.29,372.55c0,.88.09,1.74.13,2.61l-.13,4.17c0,36.03,27.51,65.27,61.49,65.27h140.24c33.97,0,61.49-29.24,61.49-65.27l-.13-3.94c.04-.95.13-1.89.13-2.84Z"/>
          <path class="cls-83" d="m753.58,464.28l-12.3-372.55c0-35.5-27.53-64.28-61.49-64.28h-115.65c-.2,0-.39.03-.59.03h0c-2.09.02-4.15.16-6.19.39-.16.02-.32.05-.48.07-1.84.21-3.66.53-5.45.92-1.27.28-2.5.66-3.73,1.02-.63.18-1.28.32-1.9.53-24.95,8.25-43.14,32.5-43.14,61.31l-12.29,372.55c0,.88.09,1.74.13,2.61l-.13,4.17c0,36.03,27.51,65.27,61.49,65.27h140.24c33.97,0,61.49-29.24,61.49-65.27l-.13-3.94c.04-.95.13-1.89.13-2.84Z"/>
          <path class="cls-73" d="m754.13,463.74l-12.3-372.55c0-35.5-27.53-64.28-61.49-64.28h-115.65c-.2,0-.39.03-.59.03h0c-2.09.02-4.15.16-6.19.39-.16.02-.32.05-.48.07-1.84.21-3.66.53-5.45.92-1.27.28-2.5.66-3.73,1.02-.63.18-1.28.32-1.9.53-24.95,8.25-43.14,32.5-43.14,61.31l-12.29,372.55c0,.88.09,1.74.13,2.61l-.13,4.17c0,36.03,27.51,65.27,61.49,65.27h140.24c33.97,0,61.49-29.24,61.49-65.27l-.13-3.94c.04-.95.13-1.89.13-2.84Z"/>
          <path class="cls-15" d="m754.68,463.2l-12.3-372.55c0-35.5-27.53-64.28-61.49-64.28h-115.65c-.2,0-.39.03-.59.03h0c-2.09.02-4.15.16-6.19.39-.16.02-.32.05-.48.07-1.84.21-3.66.53-5.45.92-1.27.28-2.5.66-3.73,1.02-.63.18-1.28.32-1.9.53-24.95,8.25-43.14,32.5-43.14,61.31l-12.29,372.55c0,.88.09,1.74.13,2.61l-.13,4.17c0,36.03,27.51,65.27,61.49,65.27h140.24c33.97,0,61.49-29.24,61.49-65.27l-.13-3.94c.04-.95.13-1.89.13-2.84Z"/>
          <path class="cls-22" d="m755.22,462.66l-12.3-372.55c0-35.5-27.53-64.28-61.49-64.28h-115.65c-.2,0-.39.03-.59.03h0c-2.09.02-4.15.16-6.19.39-.16.02-.32.05-.48.07-1.84.21-3.66.53-5.45.92-1.27.28-2.5.66-3.73,1.02-.63.18-1.28.32-1.9.53-24.95,8.25-43.14,32.5-43.14,61.31l-12.29,372.55c0,.88.09,1.74.13,2.61l-.13,4.17c0,36.03,27.51,65.27,61.49,65.27h140.24c33.97,0,61.49-29.24,61.49-65.27l-.13-3.94c.04-.95.13-1.89.13-2.84Z"/>
          <path class="cls-6" d="m755.77,462.13l-12.3-372.55c0-35.5-27.53-64.28-61.49-64.28h-115.65c-.2,0-.39.03-.59.03h0c-2.09.02-4.15.16-6.19.39-.16.02-.32.05-.48.07-1.84.21-3.66.53-5.45.92-1.27.28-2.5.66-3.73,1.02-.63.18-1.28.32-1.9.53-24.95,8.25-43.14,32.5-43.14,61.31l-12.29,372.55c0,.88.09,1.74.13,2.61l-.13,4.17c0,36.03,27.51,65.27,61.49,65.27h140.24c33.97,0,61.49-29.24,61.49-65.27l-.13-3.94c.04-.95.13-1.89.13-2.84Z"/>
          <path class="cls-78" d="m756.32,461.59l-12.3-372.55c0-35.5-27.53-64.28-61.49-64.28h-115.65c-.2,0-.39.03-.59.03h0c-2.09.02-4.15.16-6.19.39-.16.02-.32.05-.48.07-1.84.21-3.66.53-5.45.92-1.27.28-2.5.66-3.73,1.02-.63.18-1.28.32-1.9.53-24.95,8.25-43.14,32.5-43.14,61.31l-12.29,372.55c0,.88.09,1.74.13,2.61l-.13,4.17c0,36.03,27.51,65.27,61.49,65.27h140.24c33.97,0,61.49-29.24,61.49-65.27l-.13-3.94c.04-.95.13-1.89.13-2.84Z"/>
          <path class="cls-89" d="m756.87,461.05l-12.3-372.55c0-35.5-27.53-64.28-61.49-64.28h-115.65c-.2,0-.39.03-.59.03h0c-2.09.02-4.15.16-6.19.39-.16.02-.32.05-.48.07-1.84.21-3.66.53-5.45.92-1.27.28-2.5.66-3.73,1.02-.63.18-1.28.32-1.9.53-24.95,8.25-43.14,32.5-43.14,61.31l-12.29,372.55c0,.88.09,1.74.13,2.61l-.13,4.17c0,36.03,27.51,65.27,61.49,65.27h140.24c33.97,0,61.49-29.24,61.49-65.27l-.13-3.94c.04-.95.13-1.89.13-2.84Z"/>
          <path class="cls-75" d="m757.42,460.51l-12.3-372.55c0-35.5-27.53-64.28-61.49-64.28h-115.65c-.2,0-.39.03-.59.03h0c-2.09.02-4.15.16-6.19.39-.16.02-.32.05-.48.07-1.84.21-3.66.53-5.45.92-1.27.28-2.5.66-3.73,1.02-.63.18-1.28.32-1.9.53-24.95,8.25-43.14,32.5-43.14,61.31l-12.29,372.55c0,.88.09,1.74.13,2.61l-.13,4.17c0,36.03,27.51,65.27,61.49,65.27h140.24c33.97,0,61.49-29.24,61.49-65.27l-.13-3.94c.04-.95.13-1.89.13-2.84Z"/>
          <path class="cls-5" d="m757.97,459.97l-12.3-372.55c0-35.5-27.53-64.28-61.49-64.28h-115.65c-.2,0-.39.03-.59.03h0c-2.09.02-4.15.16-6.19.39-.16.02-.32.05-.48.07-1.84.21-3.66.53-5.45.92-1.27.28-2.5.66-3.73,1.02-.63.19-1.28.32-1.9.53-24.95,8.25-43.14,32.5-43.14,61.31l-12.29,372.55c0,.88.09,1.74.13,2.61l-.13,4.17c0,36.03,27.51,65.27,61.49,65.27h140.24c33.97,0,61.49-29.24,61.49-65.27l-.13-3.94c.04-.95.13-1.89.13-2.84Z"/>
          <path class="cls-74" d="m758.52,459.44l-12.3-372.55c0-35.5-27.53-64.28-61.49-64.28h-115.65c-.2,0-.39.03-.59.03h0c-2.09.02-4.15.16-6.19.39-.16.02-.32.05-.48.07-1.84.21-3.66.53-5.45.92-1.27.28-2.5.66-3.73,1.02-.63.19-1.28.32-1.9.53-24.95,8.25-43.14,32.5-43.14,61.31l-12.29,372.55c0,.88.09,1.74.13,2.61l-.13,4.17c0,36.03,27.51,65.27,61.49,65.27h140.24c33.97,0,61.49-29.24,61.49-65.27l-.13-3.94c.04-.95.13-1.89.13-2.84Z"/>
          <path class="cls-86" d="m759.07,458.9l-12.3-372.55c0-35.5-27.53-64.28-61.49-64.28h-115.65c-.2,0-.39.03-.59.03h0c-2.09.02-4.15.16-6.19.39-.16.02-.32.05-.48.07-1.84.21-3.66.53-5.45.92-1.27.28-2.5.66-3.73,1.02-.63.19-1.28.32-1.9.53-24.95,8.25-43.14,32.5-43.14,61.31l-12.29,372.55c0,.88.09,1.74.13,2.61l-.13,4.17c0,36.03,27.51,65.27,61.49,65.27h140.24c33.97,0,61.49-29.24,61.49-65.27l-.13-3.94c.04-.95.13-1.89.13-2.84Z"/>
          <path class="cls-95" d="m759.62,458.36l-12.3-372.55c0-35.5-27.53-64.28-61.49-64.28h-115.65c-.2,0-.39.03-.59.03h0c-2.09.02-4.16.16-6.19.39-.16.02-.32.05-.48.07-1.84.21-3.66.53-5.45.92-1.27.28-2.5.66-3.73,1.02-.63.19-1.28.32-1.9.53-24.95,8.25-43.14,32.5-43.14,61.31l-12.29,372.55c0,.88.09,1.74.13,2.61l-.13,4.17c0,36.03,27.51,65.27,61.49,65.27h140.24c33.97,0,61.49-29.24,61.49-65.27l-.13-3.94c.04-.95.13-1.89.13-2.84Z"/>
          <path class="cls-88" d="m760.17,457.82l-12.3-372.55c0-35.5-27.53-64.28-61.49-64.28h-115.65c-.2,0-.39.03-.59.03h0c-2.09.02-4.16.16-6.19.39-.16.02-.32.05-.48.07-1.84.21-3.66.53-5.45.92-1.27.28-2.5.66-3.73,1.02-.63.19-1.28.32-1.9.53-24.95,8.25-43.14,32.5-43.14,61.31l-12.29,372.55c0,.88.09,1.74.13,2.61l-.13,4.17c0,36.03,27.51,65.27,61.49,65.27h140.24c33.97,0,61.49-29.24,61.49-65.27l-.13-3.94c.04-.95.13-1.89.13-2.84Z"/>
          <path class="cls-66" d="m760.72,457.29l-12.3-372.55c0-35.5-27.53-64.28-61.49-64.28h-115.65c-.2,0-.39.03-.59.03h0c-2.09.02-4.16.16-6.19.39-.16.02-.32.05-.48.07-1.84.21-3.66.53-5.45.92-1.27.28-2.5.66-3.73,1.02-.63.19-1.28.32-1.9.53-24.95,8.25-43.14,32.5-43.14,61.31l-12.29,372.55c0,.88.09,1.74.13,2.61l-.13,4.17c0,36.03,27.51,65.27,61.49,65.27h140.24c33.97,0,61.49-29.24,61.49-65.27l-.13-3.94c.04-.95.13-1.89.13-2.84Z"/>
          <path class="cls-51" d="m761.26,456.75l-12.3-372.55c0-35.5-27.53-64.28-61.49-64.28h-115.65c-.2,0-.39.03-.59.03h0c-2.09.02-4.16.16-6.19.39-.16.02-.32.05-.48.07-1.84.21-3.66.53-5.45.92-1.27.28-2.5.66-3.73,1.02-.63.19-1.28.32-1.9.53-24.95,8.25-43.14,32.5-43.14,61.31l-12.29,372.55c0,.88.09,1.74.13,2.61l-.13,4.17c0,36.03,27.51,65.27,61.49,65.27h140.24c33.97,0,61.49-29.24,61.49-65.27l-.13-3.94c.04-.95.13-1.89.13-2.84Z"/>
          <path class="cls-3" d="m761.81,456.21l-12.3-372.55c0-35.5-27.53-64.28-61.49-64.28h-115.65c-.2,0-.39.03-.59.03h0c-2.09.02-4.16.16-6.19.39-.16.02-.32.05-.48.07-1.84.21-3.66.53-5.45.92-1.27.28-2.5.66-3.73,1.02-.63.19-1.28.32-1.9.53-24.95,8.25-43.14,32.5-43.14,61.31l-12.29,372.55c0,.88.09,1.74.13,2.61l-.13,4.17c0,36.03,27.51,65.27,61.49,65.27h140.24c33.97,0,61.49-29.24,61.49-65.27l-.13-3.94c.04-.95.13-1.89.13-2.84Z"/>
          <path class="cls-71" d="m762.36,455.67l-12.3-372.55c0-35.5-27.53-64.28-61.49-64.28h-115.65c-.2,0-.39.03-.59.03h0c-2.09.02-4.16.16-6.19.39-.16.02-.32.05-.48.07-1.84.21-3.66.53-5.45.92-1.27.28-2.5.66-3.73,1.02-.63.19-1.28.32-1.9.53-24.95,8.25-43.14,32.5-43.14,61.31l-12.29,372.55c0,.88.09,1.74.13,2.61l-.13,4.17c0,36.03,27.51,65.27,61.49,65.27h140.24c33.97,0,61.49-29.24,61.49-65.27l-.13-3.94c.04-.95.13-1.89.13-2.84Z"/>
          <path class="cls-45" d="m762.91,455.13l-12.3-372.55c0-35.5-27.53-64.28-61.49-64.28h-115.65c-.2,0-.39.03-.59.03h0c-2.09.02-4.16.16-6.19.39-.16.02-.32.05-.48.07-1.84.21-3.66.53-5.45.92-1.27.28-2.5.66-3.73,1.02-.63.19-1.28.32-1.9.53-24.95,8.25-43.14,32.5-43.14,61.31l-12.29,372.55c0,.88.09,1.74.13,2.61l-.13,4.17c0,36.03,27.51,65.27,61.49,65.27h140.24c33.97,0,61.49-29.24,61.49-65.27l-.13-3.94c.04-.95.13-1.89.13-2.84Z"/>
          <path class="cls-44" d="m763.46,454.6l-12.3-372.55c0-35.5-27.53-64.28-61.49-64.28h-115.65c-.2,0-.39.03-.59.03h0c-2.09.02-4.16.16-6.19.39-.16.02-.32.05-.48.07-1.84.21-3.66.53-5.45.92-1.27.28-2.5.66-3.73,1.02-.63.19-1.28.32-1.9.53-24.95,8.25-43.14,32.5-43.14,61.31l-12.29,372.55c0,.88.09,1.74.13,2.61l-.13,4.17c0,36.03,27.51,65.27,61.49,65.27h140.24c33.97,0,61.49-29.24,61.49-65.27l-.13-3.94c.04-.95.14-1.89.14-2.84Z"/>
          <path class="cls-61" d="m764.01,454.06l-12.3-372.55c0-35.5-27.53-64.28-61.49-64.28h-115.65c-.2,0-.39.03-.59.03h0c-2.09.02-4.16.16-6.19.39-.16.02-.32.05-.48.07-1.84.21-3.66.53-5.45.92-1.27.28-2.5.66-3.73,1.02-.63.19-1.28.32-1.9.53-24.95,8.25-43.14,32.5-43.14,61.31l-12.29,372.55c0,.88.09,1.74.13,2.61l-.13,4.17c0,36.03,27.51,65.27,61.49,65.27h140.24c33.97,0,61.49-29.24,61.49-65.27l-.13-3.94c.04-.95.14-1.89.14-2.84Z"/>
          <path class="cls-56" d="m764.56,453.52l-12.3-372.55c0-35.5-27.52-64.28-61.49-64.28h-115.65c-.2,0-.39.03-.59.03h0c-2.09.02-4.16.16-6.19.39-.16.02-.32.05-.48.07-1.84.21-3.66.53-5.45.92-1.27.28-2.5.66-3.73,1.02-.63.19-1.28.32-1.9.53-24.95,8.25-43.14,32.5-43.14,61.31l-12.29,372.55c0,.88.09,1.74.13,2.61l-.13,4.17c0,36.03,27.51,65.27,61.49,65.27h140.24c33.97,0,61.49-29.24,61.49-65.27l-.13-3.94c.04-.95.14-1.89.14-2.84Z"/>
          <path class="cls-93" d="m765.11,452.98l-12.3-372.55c0-35.5-27.52-64.28-61.49-64.28h-115.65c-.2,0-.39.03-.59.03h0c-2.09.02-4.16.16-6.19.39-.16.02-.32.05-.48.07-1.84.21-3.66.53-5.45.92-1.27.28-2.5.66-3.73,1.02-.63.19-1.28.32-1.9.53-24.95,8.25-43.14,32.5-43.14,61.31l-12.29,372.55c0,.88.09,1.74.13,2.61l-.13,4.17c0,36.03,27.51,65.27,61.49,65.27h140.24c33.97,0,61.49-29.24,61.49-65.27l-.13-3.94c.04-.95.14-1.89.14-2.84Z"/>
          <path class="cls-21" d="m765.66,452.44l-12.3-372.55c0-35.5-27.52-64.28-61.49-64.28h-115.65c-.2,0-.39.03-.59.03h0c-2.09.02-4.16.16-6.19.39-.16.02-.32.05-.48.07-1.84.21-3.66.53-5.45.92-1.27.28-2.5.66-3.73,1.02-.63.19-1.28.32-1.9.53-24.95,8.25-43.14,32.5-43.14,61.31l-12.29,372.55c0,.88.09,1.74.13,2.61l-.13,4.17c0,36.03,27.51,65.27,61.49,65.27h140.24c33.97,0,61.49-29.24,61.49-65.27l-.13-3.94c.04-.95.14-1.89.14-2.84Z"/>
          <path class="cls-21" d="m766.21,451.91l-12.3-372.55c0-35.5-27.52-64.28-61.49-64.28h-115.65c-.2,0-.39.03-.59.03h0c-2.09.02-4.16.16-6.19.39-.16.02-.32.05-.48.07-1.84.21-3.66.53-5.45.92-1.27.28-2.5.66-3.73,1.02-.63.19-1.28.32-1.9.53-24.95,8.25-43.14,32.5-43.14,61.31l-12.29,372.55c0,.88.09,1.74.13,2.61l-.13,4.17c0,36.03,27.51,65.27,61.49,65.27h140.24c33.97,0,61.49-29.24,61.49-65.27l-.13-3.94c.04-.95.14-1.89.14-2.84Z"/>
          <path class="cls-43" d="m766.76,451.37l-12.3-372.55c0-35.5-27.52-64.28-61.49-64.28h-115.65c-.2,0-.39.03-.59.03h0c-2.09.02-4.16.16-6.19.39-.16.02-.32.05-.48.07-1.84.21-3.66.53-5.45.92-1.27.28-2.5.66-3.73,1.02-.63.19-1.28.32-1.9.53-24.95,8.25-43.14,32.5-43.14,61.31l-12.29,372.55c0,.88.09,1.74.13,2.61l-.13,4.17c0,36.03,27.51,65.27,61.49,65.27h140.24c33.97,0,61.49-29.24,61.49-65.27l-.13-3.94c.04-.95.14-1.89.14-2.84Z"/>
          <path class="cls-34" d="m767.31,450.83l-12.3-372.55c0-35.5-27.52-64.28-61.49-64.28h-115.65c-.2,0-.39.03-.59.03h0c-2.09.02-4.16.16-6.19.39-.16.02-.32.05-.48.07-1.84.21-3.66.53-5.45.92-1.27.28-2.5.66-3.73,1.02-.63.19-1.28.32-1.9.53-24.95,8.25-43.14,32.5-43.14,61.31l-12.29,372.55c0,.88.09,1.74.13,2.61l-.13,4.17c0,36.03,27.51,65.27,61.49,65.27h140.24c33.97,0,61.49-29.24,61.49-65.27l-.13-3.94c.04-.95.14-1.89.14-2.84Z"/>
          <path class="cls-96" d="m767.85,450.29l-12.3-372.55c0-35.5-27.52-64.28-61.49-64.28h-115.65c-.2,0-.39.03-.59.03h0c-2.09.02-4.16.16-6.19.39-.16.02-.32.05-.48.07-1.84.21-3.66.53-5.45.92-1.27.28-2.5.66-3.73,1.02-.63.19-1.28.32-1.9.53-24.95,8.25-43.14,32.5-43.14,61.31l-12.29,372.55c0,.88.09,1.74.13,2.61l-.13,4.17c0,36.03,27.51,65.27,61.49,65.27h140.24c33.97,0,61.49-29.24,61.49-65.27l-.13-3.94c.04-.95.14-1.89.14-2.84Z"/>
          <path class="cls-36" d="m768.4,449.76l-12.3-372.55c0-35.5-27.52-64.28-61.49-64.28h-115.65c-.2,0-.39.03-.59.03h0c-2.09.02-4.16.16-6.19.39-.16.02-.32.05-.48.07-1.84.21-3.66.53-5.45.92-1.27.28-2.5.66-3.73,1.02-.63.19-1.28.32-1.9.53-24.95,8.25-43.14,32.5-43.14,61.31l-12.29,372.55c0,.88.09,1.74.13,2.61l-.13,4.17c0,36.03,27.51,65.27,61.49,65.27h140.24c33.97,0,61.49-29.24,61.49-65.27l-.13-3.94c.04-.95.14-1.89.14-2.84Z"/>
          <path class="cls-2" d="m768.95,449.22l-12.3-372.55c0-35.5-27.52-64.28-61.49-64.28h-115.65c-.2,0-.39.03-.59.03h0c-2.09.02-4.16.16-6.19.39-.16.02-.32.05-.48.07-1.84.21-3.66.53-5.45.92-1.27.28-2.5.66-3.73,1.02-.63.19-1.28.32-1.91.53-24.95,8.25-43.14,32.5-43.14,61.31l-12.29,372.55c0,.88.09,1.74.13,2.61l-.13,4.17c0,36.03,27.51,65.27,61.49,65.27h140.24c33.97,0,61.49-29.24,61.49-65.27l-.13-3.94c.04-.95.14-1.89.14-2.84Z"/>
          <path class="cls-69" d="m769.5,448.68l-12.3-372.55c0-35.5-27.52-64.28-61.49-64.28h-115.65c-.2,0-.39.03-.59.03h0c-2.09.02-4.16.16-6.2.39-.16.02-.32.05-.48.07-1.84.21-3.66.53-5.45.92-1.27.28-2.5.66-3.73,1.02-.63.19-1.28.32-1.91.53-24.95,8.25-43.14,32.5-43.14,61.31l-12.29,372.55c0,.88.09,1.74.13,2.61l-.13,4.17c0,36.03,27.51,65.27,61.49,65.27h140.24c33.97,0,61.49-29.24,61.49-65.27l-.13-3.94c.04-.95.14-1.89.14-2.84Z"/>
          <path class="cls-12" d="m770.05,448.14l-12.3-372.55c0-35.5-27.52-64.28-61.49-64.28h-115.65c-.2,0-.39.03-.59.03h0c-2.09.02-4.16.16-6.2.39-.16.02-.32.05-.48.07-1.84.21-3.66.53-5.45.92-1.27.28-2.5.66-3.73,1.02-.63.19-1.28.32-1.91.53-24.95,8.25-43.14,32.5-43.14,61.31l-12.29,372.55c0,.88.09,1.74.13,2.61l-.13,4.17c0,36.03,27.51,65.27,61.49,65.27h140.24c33.97,0,61.49-29.24,61.49-65.27l-.13-3.94c.04-.95.14-1.89.14-2.84Z"/>
          <path class="cls-49" d="m770.6,447.6l-12.3-372.55c0-35.5-27.52-64.28-61.49-64.28h-115.65c-.2,0-.39.03-.59.03h0c-2.09.02-4.16.16-6.2.39-.16.02-.32.05-.48.07-1.84.21-3.66.53-5.45.92-1.27.28-2.5.66-3.73,1.02-.63.19-1.28.32-1.91.53-24.95,8.25-43.14,32.5-43.14,61.31l-12.29,372.55c0,.88.09,1.74.13,2.61l-.13,4.17c0,36.03,27.51,65.27,61.49,65.27h140.24c33.97,0,61.49-29.24,61.49-65.27l-.13-3.94c.04-.95.14-1.89.14-2.84Z"/>
          <path class="cls-81" d="m771.15,447.07l-12.3-372.55c0-35.5-27.52-64.28-61.49-64.28h-115.65c-.2,0-.39.03-.59.03h0c-2.09.02-4.16.16-6.2.39-.16.02-.32.05-.48.07-1.84.21-3.66.53-5.45.92-1.27.28-2.5.66-3.73,1.02-.63.19-1.28.32-1.91.53-24.95,8.25-43.14,32.5-43.14,61.31l-12.29,372.55c0,.88.09,1.74.13,2.61l-.13,4.17c0,36.03,27.51,65.27,61.49,65.27h140.24c33.97,0,61.49-29.24,61.49-65.27l-.13-3.94c.04-.95.14-1.89.14-2.84Z"/>
          <path class="cls-14" d="m771.7,446.53l-12.3-372.55c0-35.5-27.52-64.28-61.49-64.28h-115.65c-.2,0-.39.03-.59.03h0c-2.09.02-4.16.16-6.2.39-.16.02-.32.05-.48.07-1.84.21-3.66.53-5.45.92-1.27.28-2.5.66-3.73,1.02-.63.19-1.28.32-1.91.53-24.95,8.25-43.14,32.5-43.14,61.31l-12.29,372.55c0,.88.09,1.74.13,2.61l-.13,4.17c0,36.03,27.51,65.27,61.49,65.27h140.24c33.97,0,61.49-29.24,61.49-65.27l-.13-3.94c.04-.95.14-1.89.14-2.84Z"/>
          <path class="cls-40" d="m772.25,445.99l-12.3-372.55c0-35.5-27.52-64.28-61.49-64.28h-115.65c-.2,0-.39.03-.59.03h0c-2.09.02-4.16.16-6.2.39-.16.02-.32.05-.48.07-1.84.21-3.66.53-5.45.92-1.27.28-2.5.66-3.73,1.02-.63.19-1.28.32-1.91.53-24.95,8.25-43.14,32.5-43.14,61.31l-12.29,372.55c0,.88.09,1.74.13,2.61l-.13,4.17c0,36.03,27.51,65.27,61.49,65.27h140.24c33.97,0,61.49-29.24,61.49-65.27l-.13-3.94c.04-.95.14-1.89.14-2.84Z"/>
          <path class="cls-30" d="m772.8,445.45l-12.3-372.55c0-35.5-27.52-64.28-61.49-64.28h-115.65c-.2,0-.39.03-.59.03h0c-2.09.02-4.16.16-6.2.39-.16.02-.32.05-.48.07-1.84.21-3.66.53-5.45.92-1.27.28-2.5.66-3.73,1.02-.63.19-1.28.32-1.91.53-24.95,8.25-43.14,32.5-43.14,61.31l-12.29,372.55c0,.88.09,1.74.13,2.61l-.13,4.17c0,36.03,27.51,65.27,61.49,65.27h140.24c33.97,0,61.49-29.24,61.49-65.27l-.13-3.94c.04-.95.14-1.89.14-2.84Z"/>
          <path class="cls-68" d="m773.35,444.91l-12.3-372.55c0-35.5-27.52-64.28-61.49-64.28h-115.65c-.2,0-.39.03-.59.03h0c-2.09.02-4.16.16-6.2.39-.16.02-.32.05-.48.07-1.84.21-3.66.53-5.45.92-1.27.28-2.5.66-3.73,1.02-.63.19-1.28.32-1.91.53-24.95,8.25-43.14,32.5-43.14,61.31l-12.29,372.55c0,.88.09,1.74.13,2.61l-.13,4.17c0,36.03,27.51,65.27,61.49,65.27h140.24c33.97,0,61.49-29.24,61.49-65.27l-.13-3.94c.04-.95.14-1.89.14-2.84Z"/>
          <path class="cls-46" d="m773.89,444.38l-12.3-372.55c0-35.5-27.52-64.28-61.49-64.28h-115.65c-.2,0-.39.03-.59.03h0c-2.09.02-4.16.16-6.2.39-.16.02-.32.05-.48.07-1.84.21-3.66.53-5.45.92-1.27.28-2.5.66-3.73,1.02-.63.19-1.28.32-1.91.53-24.95,8.25-43.14,32.5-43.14,61.31l-12.29,372.55c0,.88.09,1.74.13,2.61l-.13,4.17c0,36.03,27.51,65.27,61.49,65.27h140.24c33.97,0,61.49-29.24,61.49-65.27l-.13-3.94c.04-.95.14-1.89.14-2.84Z"/>
          <path class="cls-65" d="m774.44,443.84l-12.3-372.55c0-35.5-27.52-64.28-61.49-64.28h-115.65c-.2,0-.39.03-.59.03h0c-2.09.02-4.16.16-6.2.39-.16.02-.32.05-.48.07-1.84.21-3.66.53-5.45.92-1.27.28-2.5.66-3.73,1.02-.63.19-1.28.32-1.91.53-24.95,8.25-43.14,32.5-43.14,61.31l-12.29,372.55c0,.88.09,1.74.13,2.61l-.13,4.17c0,36.03,27.51,65.27,61.49,65.27h140.24c33.97,0,61.49-29.24,61.49-65.27l-.13-3.94c.04-.95.14-1.89.14-2.84Z"/>
          <path class="cls-84" d="m774.99,443.3l-12.3-372.55c0-35.5-27.52-64.28-61.49-64.28h-115.65c-.2,0-.39.03-.59.03h0c-2.09.02-4.16.16-6.2.39-.16.02-.32.05-.48.07-1.84.21-3.66.53-5.45.92-1.27.28-2.5.66-3.73,1.02-.63.19-1.28.32-1.91.53-24.95,8.25-43.14,32.5-43.14,61.31l-12.29,372.55c0,.88.09,1.74.13,2.61l-.13,4.17c0,36.03,27.51,65.27,61.49,65.27h140.24c33.97,0,61.49-29.24,61.49-65.27l-.13-3.94c.04-.95.14-1.89.14-2.84Z"/>
          <path class="cls-10" d="m775.54,442.76l-12.3-372.55c0-35.5-27.52-64.28-61.49-64.28h-115.65c-.2,0-.39.03-.59.03h0c-2.09.02-4.16.16-6.2.39-.16.02-.32.05-.48.07-1.84.21-3.66.53-5.45.92-1.27.28-2.5.66-3.73,1.02-.63.19-1.28.32-1.91.53-24.95,8.25-43.14,32.5-43.14,61.31l-12.29,372.55c0,.88.09,1.74.13,2.61l-.13,4.17c0,36.03,27.51,65.27,61.49,65.27h140.24c33.97,0,61.49-29.24,61.49-65.27l-.13-3.94c.04-.95.14-1.89.14-2.84Z"/>
          <path class="cls-87" d="m776.09,442.23l-12.3-372.55c0-35.5-27.52-64.28-61.49-64.28h-115.65c-.2,0-.39.03-.59.03h0c-2.09.02-4.16.16-6.2.39-.16.02-.32.05-.48.07-1.84.21-3.66.53-5.45.92-1.27.28-2.5.66-3.73,1.02-.63.19-1.28.32-1.91.53-24.95,8.25-43.14,32.5-43.14,61.31l-12.29,372.55c0,.88.09,1.74.13,2.61l-.13,4.17c0,36.03,27.51,65.27,61.49,65.27h140.24c33.97,0,61.49-29.24,61.49-65.27l-.13-3.94c.04-.95.14-1.89.14-2.84Z"/>
          <path class="cls-39" d="m776.64,441.69l-12.3-372.55c0-35.5-27.52-64.28-61.49-64.28h-115.65c-.2,0-.39.03-.59.03h0c-2.09.02-4.16.16-6.2.39-.16.02-.32.05-.48.07-1.84.21-3.66.53-5.45.92-1.27.28-2.5.66-3.73,1.02-.63.19-1.28.32-1.91.53-24.95,8.25-43.14,32.5-43.14,61.31l-12.29,372.55c0,.88.09,1.74.13,2.61l-.13,4.17c0,36.03,27.51,65.27,61.49,65.27h140.24c33.97,0,61.49-29.24,61.49-65.27l-.13-3.94c.04-.95.14-1.89.14-2.84Z"/>
          <path class="cls-77" d="m777.19,441.15l-12.3-372.55c0-35.5-27.52-64.28-61.49-64.28h-115.65c-.2,0-.39.03-.59.03h0c-2.09.02-4.16.16-6.2.39-.16.02-.32.05-.48.07-1.84.21-3.66.53-5.45.92-1.27.28-2.5.66-3.73,1.02-.63.19-1.28.32-1.91.53-24.95,8.25-43.14,32.5-43.14,61.31l-12.29,372.55c0,.88.09,1.74.13,2.61l-.13,4.17c0,36.03,27.51,65.27,61.49,65.27h140.24c33.97,0,61.49-29.24,61.49-65.27l-.13-3.94c.04-.95.14-1.89.14-2.84Z"/>
          <path class="cls-82" d="m777.74,440.61l-12.3-372.55c0-35.5-27.52-64.28-61.49-64.28h-115.65c-.2,0-.39.03-.59.03h0c-2.09.02-4.16.16-6.2.39-.16.02-.32.05-.48.07-1.84.21-3.66.53-5.45.92-1.27.28-2.5.66-3.73,1.02-.63.19-1.28.32-1.91.53-24.95,8.25-43.14,32.5-43.14,61.31l-12.29,372.55c0,.88.09,1.74.12,2.61l-.13,4.17c0,36.03,27.51,65.27,61.49,65.27h140.24c33.97,0,61.49-29.24,61.49-65.27l-.13-3.94c.04-.95.14-1.89.14-2.84Z"/>
          <path class="cls-72" d="m778.29,440.07l-12.3-372.55c0-35.5-27.52-64.28-61.49-64.28h-115.65c-.2,0-.39.03-.59.03h0c-2.09.02-4.16.16-6.2.39-.16.02-.32.05-.48.07-1.84.21-3.66.53-5.45.92-1.27.28-2.5.66-3.73,1.02-.63.19-1.28.32-1.91.53-24.95,8.25-43.14,32.5-43.14,61.31l-12.29,372.55c0,.88.09,1.74.12,2.61l-.13,4.17c0,36.03,27.51,65.27,61.49,65.27h140.24c33.97,0,61.49-29.24,61.49-65.27l-.13-3.94c.04-.95.14-1.89.14-2.84Z"/>
          <path class="cls-9" d="m778.84,439.54l-12.3-372.55c0-35.5-27.52-64.28-61.49-64.28h-115.65c-.2,0-.39.03-.59.03h0c-2.09.02-4.16.16-6.2.39-.16.02-.32.05-.48.07-1.84.21-3.66.53-5.45.92-1.27.28-2.5.66-3.73,1.02-.63.19-1.28.32-1.91.53-24.95,8.25-43.14,32.5-43.14,61.31l-12.28,372.55c0,.88.09,1.74.12,2.61l-.13,4.17c0,36.03,27.51,65.27,61.49,65.27h140.24c33.97,0,61.49-29.24,61.49-65.27l-.13-3.94c.04-.95.14-1.89.14-2.84Z"/>
          <path class="cls-13" d="m779.39,439l-12.3-372.55c0-35.5-27.52-64.28-61.49-64.28h-115.65c-.2,0-.39.03-.59.03h0c-2.09.02-4.16.16-6.2.39-.16.02-.32.05-.48.07-1.84.21-3.66.53-5.45.92-1.27.28-2.5.66-3.73,1.02-.63.19-1.28.32-1.91.53-24.95,8.25-43.14,32.5-43.14,61.31l-12.28,372.55c0,.88.09,1.74.12,2.61l-.13,4.17c0,36.03,27.51,65.27,61.49,65.27h140.24c33.97,0,61.49-29.24,61.49-65.27l-.13-3.94c.04-.95.14-1.89.14-2.84Z"/>
          <path class="cls-31" d="m779.93,438.46l-12.3-372.55c0-35.5-27.52-64.28-61.49-64.28h-115.65c-.2,0-.39.03-.59.03h0c-2.09.02-4.16.16-6.2.39-.16.02-.32.05-.48.07-1.84.21-3.66.53-5.45.92-1.27.28-2.5.66-3.73,1.02-.63.19-1.28.32-1.91.53-24.95,8.25-43.14,32.5-43.14,61.31l-12.28,372.55c0,.88.09,1.74.12,2.61l-.13,4.17c0,36.03,27.51,65.27,61.49,65.27h140.24c33.97,0,61.49-29.24,61.49-65.27l-.13-3.94c.04-.95.14-1.89.14-2.84Z"/>
          <path class="cls-53" d="m780.48,437.92l-12.3-372.55c0-35.5-27.52-64.28-61.49-64.28h-115.65c-.2,0-.39.03-.59.03h0c-2.09.02-4.16.16-6.2.39-.16.02-.32.05-.48.07-1.84.21-3.66.53-5.45.92-1.27.28-2.5.66-3.73,1.02-.63.19-1.28.32-1.91.53-24.95,8.25-43.14,32.5-43.14,61.31l-12.28,372.55c0,.88.09,1.74.12,2.61l-.13,4.17c0,36.03,27.51,65.27,61.49,65.27h140.24c33.97,0,61.49-29.24,61.49-65.27l-.13-3.94c.04-.95.14-1.89.14-2.84Z"/>
          <path class="cls-35" d="m781.03,437.38l-12.3-372.55c0-35.5-27.52-64.28-61.49-64.28h-115.65c-.2,0-.39.03-.59.03h0c-2.09.02-4.16.16-6.2.39-.16.02-.32.05-.48.07-1.84.21-3.66.53-5.45.92-1.27.28-2.5.66-3.73,1.02-.63.19-1.28.32-1.91.53-24.95,8.25-43.14,32.5-43.14,61.31l-12.28,372.55c0,.88.09,1.74.12,2.61l-.13,4.17c0,36.03,27.51,65.27,61.49,65.27h140.24c33.97,0,61.49-29.24,61.49-65.27l-.13-3.94c.04-.95.14-1.89.14-2.84Z"/>
          <path class="cls-85" d="m781.58,436.85l-12.3-372.55C769.28,28.79,741.76.01,707.79.01h-115.65c-.2,0-.39.03-.59.03h0c-2.09.02-4.16.15-6.2.39-.16.02-.32.06-.48.07-1.84.23-3.66.52-5.45.92-1.27.28-2.5.66-3.73,1.02-.63.19-1.29.32-1.91.53-24.98,8.16-43.14,32.5-43.14,61.31l-12.28,372.55c0,.88.09,1.74.12,2.61l-.13,4.17c0,36.03,27.51,65.27,61.49,65.27h140.24c33.97,0,61.49-29.24,61.49-65.27l-.13-3.94c.04-.95.14-1.89.14-2.84Z"/>
        </g>
        <g>
          <path class="cls-15" d="m781.58,436.85c0,35.48-27.52,64.27-61.49,64.27h-140.24c-33.99,0-61.49-28.79-61.49-64.27l12.28-372.55C530.64,28.79,558.2.01,592.14.01h115.64c33.97,0,61.49,28.78,61.49,64.28l12.3,372.55Z"/>
          <g>
            <path class="cls-85" d="m781.58,443.63c0,36.03-27.53,65.27-61.49,65.27h-140.24c-33.99,0-61.49-29.24-61.49-65.27l12.28-378.34C530.63,29.23,558.19.01,592.13.01h115.64c33.97,0,61.49,29.22,61.49,65.28l12.31,378.34Z"/>
            <path class="cls-31" d="m780.99,443.04c0,35.93-27.4,65.08-61.22,65.08h-139.62c-33.84,0-61.22-29.15-61.22-65.08l12.23-377.25c0-35.95,27.44-65.09,61.23-65.09h115.13c33.82,0,61.22,29.14,61.22,65.09l12.25,377.25Z"/>
            <path class="cls-9" d="m780.4,442.45c0,35.82-27.28,64.89-60.95,64.89h-138.99c-33.68,0-60.95-29.07-60.95-64.89l12.17-376.15c0-35.85,27.31-64.9,60.96-64.9h114.61c33.67,0,60.95,29.05,60.95,64.9l12.2,376.15Z"/>
            <path class="cls-77" d="m779.81,441.85c0,35.72-27.16,64.7-60.67,64.7h-138.37c-33.53,0-60.67-28.98-60.67-64.7l12.12-375.06c0-35.74,27.19-64.71,60.68-64.71h114.09c33.52,0,60.67,28.97,60.67,64.71l12.14,375.06Z"/>
            <path class="cls-10" d="m779.23,441.26c0,35.62-27.03,64.51-60.4,64.51h-137.74c-33.38,0-60.4-28.9-60.4-64.51l12.07-373.96c0-35.64,27.07-64.52,60.41-64.52h113.58c33.37,0,60.4,28.88,60.4,64.52l12.09,373.96Z"/>
            <path class="cls-46" d="m778.64,440.67c0,35.51-26.91,64.33-60.12,64.33h-137.11c-33.23,0-60.12-28.81-60.12-64.33l12.01-372.87c0-35.53,26.94-64.33,60.13-64.33h113.06c33.21,0,60.12,28.8,60.12,64.33l12.03,372.87Z"/>
            <path class="cls-30" d="m778.05,440.07c0,35.41-26.79,64.14-59.85,64.14h-136.49c-33.08,0-59.85-28.73-59.85-64.14l11.96-371.77c0-35.43,26.82-64.14,59.86-64.14h112.55c33.06,0,59.85,28.71,59.85,64.14l11.98,371.77Z"/>
            <path class="cls-81" d="m777.46,439.48c0,35.3-26.67,63.95-59.57,63.95h-135.86c-32.93,0-59.57-28.65-59.57-63.95l11.9-370.68c0-35.32,26.7-63.95,59.58-63.95h112.03c32.91,0,59.57,28.63,59.57,63.95l11.92,370.68Z"/>
            <path class="cls-69" d="m776.87,438.89c0,35.2-26.54,63.76-59.3,63.76h-135.23c-32.77,0-59.3-28.56-59.3-63.76l11.85-369.58c0-35.22,26.57-63.76,59.31-63.76h111.51c32.76,0,59.3,28.54,59.3,63.76l11.87,369.58Z"/>
            <path class="cls-36" d="m776.29,438.3c0,35.09-26.42,63.57-59.02,63.57h-134.61c-32.62,0-59.03-28.48-59.03-63.57l11.79-368.49c0-35.11,26.45-63.57,59.03-63.57h111c32.61,0,59.02,28.46,59.02,63.57l11.81,368.49Z"/>
            <path class="cls-43" d="m775.7,437.7c0,34.99-26.3,63.38-58.75,63.38h-133.98c-32.47,0-58.75-28.39-58.75-63.38l11.74-367.39c0-35.01,26.33-63.39,58.76-63.39h110.48c32.46,0,58.75,28.38,58.75,63.39l11.76,367.39Z"/>
            <path class="cls-56" d="m775.11,437.11c0,34.89-26.17,63.19-58.47,63.19h-133.36c-32.32,0-58.48-28.31-58.48-63.19l11.68-366.29c0-34.9,26.2-63.2,58.48-63.2h109.97c32.3,0,58.47,28.29,58.47,63.2l11.7,366.29Z"/>
            <path class="cls-45" d="m774.52,436.52c0,34.78-26.05,63-58.2,63h-132.73c-32.17,0-58.2-28.22-58.2-63l11.63-365.2c0-34.8,26.08-63.01,58.21-63.01h109.45c32.15,0,58.2,28.21,58.2,63.01l11.64,365.2Z"/>
            <path class="cls-3" d="m773.94,435.92c0,34.68-25.93,62.82-57.92,62.82h-132.1c-32.02,0-57.93-28.14-57.93-62.82l11.57-364.1c0-34.7,25.96-62.82,57.94-62.82h108.93c32,0,57.93,28.12,57.93,62.82l11.59,364.1Z"/>
            <path class="cls-88" d="m773.35,435.33c0,34.57-25.8,62.63-57.65,62.63h-131.48c-31.86,0-57.65-28.05-57.65-62.63l11.52-363.01c0-34.59,25.83-62.63,57.66-62.63h108.42c31.85,0,57.65,28.04,57.65,62.63l11.53,363.01Z"/>
            <path class="cls-74" d="m772.76,434.74c0,34.47-25.68,62.44-57.38,62.44h-130.85c-31.71,0-57.38-27.97-57.38-62.44l11.46-361.91c0-34.49,25.71-62.44,57.39-62.44h107.9c31.7,0,57.38,27.95,57.38,62.44l11.48,361.91Z"/>
            <path class="cls-75" d="m772.17,434.15c0,34.36-25.56,62.25-57.1,62.25h-130.22c-31.56,0-57.11-27.89-57.11-62.25l11.41-360.82c0-34.38,25.59-62.25,57.11-62.25h107.38c31.54,0,57.1,27.87,57.1,62.25l11.42,360.82Z"/>
            <path class="cls-6" d="m771.59,433.55c0,34.26-25.43,62.06-56.83,62.06h-129.6c-31.41,0-56.83-27.8-56.83-62.06l11.35-359.72c0-34.28,25.47-62.06,56.84-62.06h106.87c31.39,0,56.83,27.78,56.83,62.06l11.37,359.72Z"/>
            <path class="cls-73" d="m771,432.96c0,34.16-25.31,61.87-56.55,61.87h-128.97c-31.26,0-56.56-27.72-56.56-61.87l11.3-358.63c0-34.17,25.34-61.87,56.56-61.87h106.35c31.24,0,56.55,27.7,56.55,61.87l11.31,358.63Z"/>
            <path class="cls-11" d="m770.41,432.37c0,34.05-25.19,61.68-56.28,61.68h-128.35c-31.11,0-56.28-27.63-56.28-61.68l11.24-357.53c0-34.07,25.22-61.68,56.29-61.68h105.84c31.09,0,56.28,27.62,56.28,61.68l11.26,357.53Z"/>
            <path class="cls-94" d="m769.82,431.78c0,33.95-25.07,61.49-56,61.49h-127.72c-30.95,0-56.01-27.55-56.01-61.49l11.19-356.44c0-33.96,25.1-61.5,56.01-61.5h105.32c30.94,0,56,27.53,56,61.5l11.2,356.44Z"/>
            <path class="cls-7" d="m769.23,431.18c0,33.84-24.94,61.31-55.73,61.31h-127.09c-30.8,0-55.73-27.46-55.73-61.31l11.13-355.34c0-33.86,24.97-61.31,55.74-61.31h104.8c30.79,0,55.73,27.45,55.73,61.31l11.15,355.34Z"/>
            <path class="cls-57" d="m768.75,430.82c0,33.77-24.84,61.17-55.5,61.17h-126.58c-30.67,0-55.51-27.4-55.51-61.17l11.09-354.59c0-33.79,24.87-61.18,55.51-61.18h104.38c30.66,0,55.5,27.39,55.5,61.18l11.1,354.59Z"/>
            <path class="cls-83" d="m768.26,430.45c0,33.7-24.74,61.04-55.27,61.04h-126.06c-30.55,0-55.28-27.34-55.28-61.04l11.04-353.83c0-33.72,24.77-61.05,55.28-61.05h103.95c30.53,0,55.27,27.33,55.27,61.05l11.06,353.83Z"/>
            <path class="cls-6" d="m767.78,430.09c0,33.63-24.64,60.91-55.05,60.91h-125.54c-30.42,0-55.05-27.28-55.05-60.91l11-353.07c0-33.64,24.66-60.92,55.06-60.92h103.52c30.41,0,55.05,27.27,55.05,60.92l11.01,353.07Z"/>
            <path class="cls-5" d="m767.29,429.72c0,33.56-24.53,60.78-54.82,60.78h-125.03c-30.29,0-54.82-27.22-54.82-60.78l10.95-352.31c0-33.57,24.56-60.78,54.83-60.78h103.1c30.28,0,54.82,27.21,54.82,60.78l10.97,352.31Z"/>
            <path class="cls-95" d="m766.81,429.36c0,33.49-24.43,60.65-54.59,60.65h-124.51c-30.17,0-54.6-27.16-54.6-60.65l10.91-351.56c0-33.5,24.46-60.65,54.6-60.65h102.67c30.16,0,54.59,27.16,54.59,60.65l10.92,351.56Z"/>
            <path class="cls-3" d="m766.32,428.99c0,33.42-24.33,60.52-54.36,60.52h-123.99c-30.04,0-54.37-27.1-54.37-60.52l10.86-350.8c0-33.43,24.36-60.52,54.38-60.52h102.24c30.03,0,54.37,27.1,54.37,60.52l10.87,350.8Z"/>
            <path class="cls-61" d="m765.84,428.63c0,33.35-24.23,60.39-54.14,60.39h-123.48c-29.91,0-54.14-27.04-54.14-60.39l10.82-350.04c0-33.35,24.25-60.39,54.15-60.39h101.82c29.91,0,54.14,27.04,54.14,60.39l10.83,350.04Z"/>
            <path class="cls-21" d="m765.35,428.26c0,33.27-24.12,60.26-53.91,60.26h-122.96c-29.79,0-53.92-26.98-53.92-60.26l10.77-349.28c0-33.28,24.15-60.26,53.92-60.26h101.39c29.78,0,53.91,26.98,53.91,60.26l10.78,349.28Z"/>
            <path class="cls-36" d="m764.87,427.9c0,33.2-24.02,60.12-53.68,60.12h-122.44c-29.66,0-53.69-26.92-53.69-60.12l10.73-348.53c0-33.21,24.05-60.13,53.7-60.13h100.96c29.65,0,53.69,26.92,53.69,60.13l10.74,348.53Z"/>
            <path class="cls-49" d="m764.38,427.53c0,33.13-23.92,59.99-53.46,59.99h-121.92c-29.53,0-53.46-26.86-53.46-59.99l10.68-347.77c0-33.14,23.94-60,53.47-60h100.54c29.53,0,53.46,26.86,53.46,60l10.69,347.77Z"/>
            <path class="cls-40" d="m763.89,427.17c0,33.06-23.82,59.86-53.23,59.86h-121.41c-29.4,0-53.23-26.8-53.23-59.86l10.64-347.01c0-33.07,23.84-59.87,53.24-59.87h100.11c29.4,0,53.23,26.81,53.23,59.87l10.65,347.01Z"/>
            <path class="cls-65" d="m763.41,426.8c0,32.99-23.72,59.73-53,59.73h-120.89c-29.28,0-53.01-26.74-53.01-59.73l10.59-346.25c0-32.99,23.74-59.74,53.01-59.74h99.69c29.28,0,53.01,26.75,53.01,59.74l10.6,346.25Z"/>
            <path class="cls-39" d="m762.92,426.44c0,32.92-23.61,59.6-52.77,59.6h-120.37c-29.15,0-52.78-26.68-52.78-59.6l10.55-345.5c0-32.92,23.64-59.61,52.79-59.61h99.26c29.15,0,52.78,26.69,52.78,59.61l10.55,345.5Z"/>
            <path class="cls-72" d="m762.44,426.07c0,32.85-23.51,59.47-52.55,59.47h-119.86c-29.02,0-52.55-26.62-52.55-59.47l10.5-344.74c0-32.85,23.53-59.48,52.56-59.48h98.83c29.02,0,52.55,26.63,52.55,59.48l10.51,344.74Z"/>
            <path class="cls-53" d="m761.95,425.71c0,32.78-23.41,59.34-52.32,59.34h-119.34c-28.9,0-52.33-26.56-52.33-59.34l10.46-343.98c0-32.78,23.43-59.35,52.33-59.35h98.41c28.9,0,52.33,26.57,52.33,59.35l10.46,343.98Z"/>
            <path class="cls-90" d="m761.47,425.34c0,32.71-23.31,59.2-52.09,59.2h-118.82c-28.77,0-52.1-26.5-52.1-59.2l10.41-343.22c0-32.71,23.33-59.22,52.11-59.22h97.98c28.77,0,52.1,26.52,52.1,59.22l10.42,343.22Z"/>
            <path class="cls-70" d="m760.98,424.98c0,32.63-23.21,59.07-51.87,59.07h-118.31c-28.64,0-51.87-26.44-51.87-59.07l10.37-342.47c0-32.63,23.22-59.09,51.88-59.09h97.55c28.65,0,51.87,26.46,51.87,59.09l10.37,342.47Z"/>
            <path class="cls-41" d="m760.5,424.61c0,32.56-23.1,58.94-51.64,58.94h-117.79c-28.51,0-51.64-26.38-51.64-58.94l10.32-341.71c0-32.56,23.12-58.96,51.65-58.96h97.13c28.52,0,51.65,26.4,51.65,58.96l10.32,341.71Z"/>
            <path class="cls-91" d="m760.01,424.24c0,32.49-23,58.81-51.41,58.81h-117.27c-28.39,0-51.42-26.32-51.42-58.81l10.28-340.95c0-32.49,23.02-58.83,51.43-58.83h96.7c28.4,0,51.42,26.34,51.42,58.83l10.28,340.95Z"/>
            <path class="cls-64" d="m759.52,423.88c0,32.42-22.9,58.68-51.18,58.68h-116.76c-28.26,0-51.19-26.26-51.19-58.68l10.23-340.2c0-32.42,22.92-58.7,51.2-58.7h96.27c28.27,0,51.19,26.28,51.19,58.7l10.23,340.2Z"/>
            <path class="cls-25" d="m759.04,423.51c0,32.35-22.8,58.55-50.96,58.55h-116.24c-28.13,0-50.96-26.2-50.96-58.55l10.19-339.44c0-32.34,22.81-58.57,50.97-58.57h95.85c28.14,0,50.97,26.22,50.97,58.57l10.19,339.44Z"/>
            <path class="cls-80" d="m757.08,421.44c0,32-22.39,57.92-50.04,57.92h-114.15c-27.63,0-50.05-25.92-50.05-57.92l10-335.79c0-32,22.4-57.94,50.06-57.94h94.12c27.64,0,50.05,25.94,50.05,57.94l10,335.79Z"/>
            <path class="cls-50" d="m755.12,419.37c0,31.66-21.98,57.29-49.13,57.29h-112.06c-27.12,0-49.13-25.63-49.13-57.29l9.82-332.15c0-31.65,21.99-57.31,49.14-57.31h92.4c27.13,0,49.14,25.66,49.14,57.31l9.82,332.15Z"/>
            <path class="cls-26" d="m753.16,417.29c0,31.31-21.57,56.66-48.21,56.66h-109.98c-26.62,0-48.22-25.35-48.22-56.66l9.64-328.51c0-31.3,21.58-56.68,48.22-56.68h90.68c26.63,0,48.22,25.38,48.22,56.68l9.64,328.51Z"/>
            <path class="cls-41" d="m751.2,415.22c0,30.96-21.16,56.03-47.3,56.03h-107.89c-26.11,0-47.3-25.07-47.3-56.03l9.46-324.86c0-30.96,21.17-56.06,47.31-56.06h88.96c26.12,0,47.31,25.1,47.31,56.06l9.45,324.86Z"/>
            <path class="cls-20" d="m749.24,413.14c0,30.62-20.75,55.4-46.38,55.4h-105.8c-25.61,0-46.39-24.79-46.39-55.4l9.27-321.22c0-30.61,20.76-55.43,46.39-55.43h87.24c25.62,0,46.39,24.82,46.39,55.43l9.27,321.22Z"/>
            <path class="cls-38" d="m747.28,411.07c0,30.27-20.34,54.78-45.47,54.78h-103.71c-25.1,0-45.47-24.51-45.47-54.78l9.09-317.58c0-30.26,20.35-54.8,45.48-54.8h85.52c25.11,0,45.48,24.53,45.48,54.8l9.09,317.58Z"/>
            <path class="cls-85" d="m745.33,408.99c0,29.92-19.93,54.15-44.55,54.15h-101.62c-24.6,0-44.56-24.22-44.56-54.15l8.91-313.93c0-29.92,19.94-54.17,44.56-54.17h83.8c24.61,0,44.56,24.25,44.56,54.17l8.9,313.93Z"/>
            <path class="cls-53" d="m743.37,406.92c0,29.58-19.52,53.52-43.64,53.52h-99.54c-24.09,0-43.64-23.94-43.64-53.52l8.73-310.29c0-29.57,19.53-53.54,43.64-53.54h82.08c24.1,0,43.65,23.97,43.65,53.54l8.72,310.29Z"/>
            <path class="cls-9" d="m741.41,404.85c0,29.23-19.11,52.89-42.72,52.89h-97.45c-23.59,0-42.73-23.66-42.73-52.89l8.55-306.65c0-29.22,19.12-52.91,42.73-52.91h80.36c23.6,0,42.73,23.69,42.73,52.91l8.54,306.65Z"/>
            <path class="cls-77" d="m739.45,402.77c0,28.88-18.7,52.26-41.81,52.26h-95.36c-23.08,0-41.81-23.38-41.81-52.26l8.36-303c0-28.88,18.71-52.29,41.81-52.29h78.63c23.09,0,41.82,23.41,41.82,52.29l8.35,303Z"/>
            <path class="cls-10" d="m737.49,400.7c0,28.53-18.29,51.63-40.89,51.63h-93.27c-22.58,0-40.9-23.1-40.9-51.63l8.18-299.36c0-28.53,18.3-51.66,40.89-51.66h76.91c22.59,0,40.9,23.13,40.9,51.66l8.17,299.36Z"/>
            <path class="cls-46" d="m735.53,398.62c0,28.19-17.88,51-39.98,51h-91.19c-22.07,0-39.98-22.82-39.98-51l8-295.72c0-28.19,17.89-51.03,39.98-51.03h75.19c22.08,0,39.99,22.84,39.99,51.03l7.99,295.72Z"/>
            <path class="cls-40" d="m733.57,396.55c0,27.84-17.47,50.37-39.06,50.37h-89.1c-21.57,0-39.07-22.53-39.07-50.37l7.82-292.07c0-27.84,17.48-50.4,39.06-50.4h73.47c21.58,0,39.07,22.56,39.07,50.4l7.8,292.07Z"/>
            <path class="cls-81" d="m731.61,394.47c0,27.49-17.06,49.75-38.15,49.75h-87.01c-21.06,0-38.15-22.25-38.15-49.75l7.63-288.43c0-27.49,17.07-49.77,38.15-49.77h71.75c21.07,0,38.16,22.28,38.16,49.77l7.62,288.43Z"/>
            <path class="cls-69" d="m729.65,392.4c0,27.15-16.65,49.12-37.23,49.12h-84.92c-20.55,0-37.24-21.97-37.24-49.12l7.45-284.79c0-27.15,16.66-49.14,37.23-49.14h70.03c20.57,0,37.24,22,37.24,49.14l7.44,284.79Z"/>
            <path class="cls-96" d="m727.7,390.33c0,26.8-16.24,48.49-36.32,48.49h-82.83c-20.05,0-36.32-21.69-36.32-48.49l7.27-281.14c0-26.8,16.25-48.52,36.31-48.52h68.31c20.06,0,36.33,21.72,36.33,48.52l7.25,281.14Z"/>
            <path class="cls-21" d="m725.74,388.25c0,26.45-15.83,47.86-35.4,47.86h-80.75c-19.54,0-35.41-21.41-35.41-47.86l7.09-277.5c0-26.45,15.84-47.89,35.4-47.89h66.59c19.56,0,35.41,21.43,35.41,47.89l7.07,277.5Z"/>
            <path class="cls-61" d="m723.78,386.18c0,26.11-15.42,47.23-34.48,47.23h-78.66c-19.04,0-34.49-21.12-34.49-47.23l6.9-273.86c0-26.11,15.43-47.26,34.48-47.26h64.87c19.05,0,34.5,21.15,34.5,47.26l6.89,273.86Z"/>
            <path class="cls-45" d="m721.82,384.1c0,25.76-15.02,46.6-33.57,46.6h-76.57c-18.53,0-33.58-20.84-33.58-46.6l6.72-270.21c0-25.76,15.02-46.63,33.57-46.63h63.14c18.55,0,33.58,20.87,33.58,46.63l6.7,270.21Z"/>
            <path class="cls-51" d="m719.86,382.03c0,25.41-14.61,45.97-32.65,45.97h-74.48c-18.03,0-32.66-20.56-32.66-45.97l6.54-266.57c0-25.41,14.61-46,32.65-46h61.42c18.04,0,32.67,20.59,32.67,46l6.52,266.57Z"/>
            <path class="cls-95" d="m717.9,379.95c0,25.07-14.2,45.34-31.74,45.34h-72.4c-17.52,0-31.75-20.28-31.75-45.34l6.36-262.93c0-25.07,14.2-45.37,31.73-45.37h59.7c17.54,0,31.75,20.31,31.75,45.37l6.34,262.93Z"/>
          </g>
          <path class="cls-16" d="m759.04,423.51c0,32.35-22.8,58.55-50.96,58.55h-116.24c-28.13,0-50.96-26.2-50.96-58.55l10.19-339.44c0-32.34,22.81-58.57,50.97-58.57h95.85c28.14,0,50.97,26.22,50.97,58.57l10.19,339.44Z"/>
          <path class="cls-24" d="m781.58,443.63c0,36.03-27.53,65.27-61.49,65.27h-140.24c-33.99,0-61.49-29.24-61.49-65.27l12.28-378.34C530.63,29.23,558.19.01,592.13.01h115.64c33.97,0,61.49,29.22,61.49,65.28l12.31,378.34Z"/>
          <path class="cls-25" d="m662.81,372.52c0,7.52-5.61,13.6-12.51,13.6s-12.51-6.08-12.51-13.6,5.62-13.59,12.51-13.59,12.51,6.08,12.51,13.59Z"/>
          <path class="cls-19" d="m659.48,372.52c0,5.52-4.12,9.98-9.18,9.98s-9.18-4.46-9.18-9.98,4.12-9.97,9.18-9.97,9.18,4.46,9.18,9.97Z"/>
          <g>
            <g>
              <path class="cls-25" d="m609.22,490.39c.03-2.92,2.23-5.27,4.91-5.24l68.52.72c2.68.03,4.83,2.42,4.8,5.34v.81c-.04,2.92-2.24,5.27-4.92,5.24l-68.52-.71c-2.68-.03-4.83-2.42-4.8-5.34v-.81Z"/>
              <path class="cls-4" d="m611.75,490.53c.03-2.12,1.62-3.82,3.55-3.79l66.13.69c1.94.02,3.5,1.75,3.48,3.86v.59c-.03,2.11-1.62,3.81-3.56,3.79l-66.13-.69c-1.94-.02-3.5-1.75-3.48-3.86v-.58Z"/>
            </g>
            <g>
              <path class="cls-42" d="m637.14,491.08c.07-6.73,5.14-12.13,11.32-12.07,6.18.06,11.13,5.57,11.06,12.3-.07,6.73-5.14,12.14-11.31,12.07-6.18-.06-11.13-5.57-11.06-12.3Z"/>
              <path class="cls-55" d="m637.55,491.09c.07-6.48,4.95-11.69,10.91-11.63,5.96.06,10.73,5.37,10.66,11.86-.07,6.49-4.95,11.7-10.9,11.63-5.96-.06-10.73-5.37-10.66-11.86Z"/>
              <path class="cls-33" d="m637.95,491.09c.07-6.24,4.77-11.26,10.5-11.2,5.73.06,10.32,5.17,10.26,11.41-.06,6.25-4.76,11.26-10.49,11.2-5.73-.06-10.32-5.17-10.26-11.41Z"/>
              <path class="cls-37" d="m638.36,491.09c.06-6,4.58-10.82,10.09-10.76,5.51.05,9.92,4.97,9.86,10.97-.06,6-4.58,10.82-10.08,10.76-5.51-.06-9.92-4.97-9.86-10.97Z"/>
              <path class="cls-58" d="m638.76,491.1c.06-5.76,4.4-10.38,9.68-10.32,5.29.05,9.52,4.77,9.46,10.52-.06,5.76-4.39,10.38-9.68,10.33-5.29-.05-9.52-4.77-9.46-10.52Z"/>
              <path class="cls-70" d="m639.16,491.1c.06-5.51,4.21-9.94,9.27-9.89,5.06.05,9.12,4.57,9.06,10.08-.06,5.52-4.21,9.95-9.27,9.89-5.06-.05-9.12-4.57-9.06-10.08Z"/>
              <path class="cls-28" d="m639.57,491.11c.06-5.27,4.02-9.5,8.86-9.45,4.84.05,8.72,4.36,8.66,9.63-.05,5.27-4.02,9.51-8.86,9.45-4.84-.05-8.72-4.37-8.66-9.64Z"/>
              <path class="cls-87" d="m639.97,491.11c.05-5.03,3.84-9.06,8.45-9.01,4.62.04,8.31,4.16,8.26,9.19-.05,5.03-3.84,9.07-8.45,9.02-4.62-.05-8.31-4.17-8.26-9.19Z"/>
              <path class="cls-40" d="m640.38,491.11c.05-4.78,3.65-8.62,8.04-8.58,4.4.04,7.91,3.96,7.86,8.74-.05,4.78-3.65,8.63-8.04,8.58-4.4-.05-7.91-3.96-7.86-8.75Z"/>
              <path class="cls-36" d="m640.78,491.12c.05-4.54,3.47-8.19,7.63-8.14,4.17.04,7.51,3.76,7.46,8.3-.05,4.54-3.46,8.19-7.63,8.15-4.17-.04-7.51-3.76-7.46-8.3Z"/>
              <path class="cls-44" d="m641.19,491.12c.04-4.3,3.28-7.75,7.22-7.71,3.95.04,7.11,3.56,7.06,7.85-.04,4.3-3.28,7.75-7.22,7.71-3.95-.04-7.11-3.56-7.06-7.86Z"/>
              <path class="cls-95" d="m641.59,491.13c.04-4.05,3.09-7.31,6.81-7.27,3.73.03,6.71,3.36,6.66,7.41-.04,4.05-3.09,7.31-6.81,7.27-3.73-.04-6.7-3.36-6.66-7.41Z"/>
            </g>
            <g>
              <path class="cls-25" d="m642.8,407.08c.03-2.92,2.23-5.27,4.91-5.24l3.69.03c2.68.03,4.83,2.42,4.8,5.34l-1.19,85.08c-.03,2.92-2.23,5.27-4.91,5.24l-3.69-.04c-2.68-.02-4.83-2.42-4.8-5.34l1.19-85.08Z"/>
              <path class="cls-76" d="m645,408.89c.02-1.96,1.49-3.53,3.29-3.51l2.48.03c1.8.02,3.24,1.62,3.22,3.58l-1.17,83.04c-.02,1.96-1.5,3.54-3.3,3.51l-2.47-.02c-1.8-.02-3.24-1.62-3.22-3.58l1.17-83.04Z"/>
            </g>
            <g>
              <g>
                <g>
                  <path class="cls-42" d="m674.97,491.48c.06-5.65,4.31-10.19,9.5-10.13,5.19.05,9.35,4.68,9.28,10.33-.06,5.65-4.31,10.19-9.5,10.13-5.19-.05-9.34-4.68-9.28-10.33Z"/>
                  <path class="cls-55" d="m675.29,491.48c.06-5.46,4.16-9.84,9.17-9.78,5.01.05,9.02,4.52,8.96,9.97-.06,5.46-4.16,9.84-9.17,9.78-5.01-.05-9.02-4.52-8.96-9.97Z"/>
                  <path class="cls-33" d="m675.62,491.48c.05-5.26,4.01-9.48,8.84-9.43,4.83.05,8.7,4.36,8.64,9.61-.05,5.26-4.01,9.48-8.84,9.43-4.83-.05-8.7-4.35-8.64-9.61Z"/>
                  <path class="cls-37" d="m675.94,491.48c.05-5.06,3.86-9.13,8.51-9.08,4.65.05,8.38,4.19,8.32,9.25-.05,5.06-3.86,9.13-8.51,9.08-4.65-.05-8.37-4.19-8.32-9.25Z"/>
                  <path class="cls-58" d="m676.27,491.49c.05-4.87,3.72-8.78,8.18-8.73,4.47.04,8.05,4.03,8,8.9-.05,4.87-3.72,8.78-8.18,8.73-4.47-.04-8.05-4.03-8-8.9Z"/>
                  <path class="cls-70" d="m676.59,491.49c.05-4.67,3.57-8.42,7.85-8.38,4.29.04,7.73,3.87,7.68,8.54-.05,4.67-3.57,8.42-7.85,8.38-4.29-.04-7.73-3.87-7.68-8.54Z"/>
                  <path class="cls-28" d="m676.92,491.49c.05-4.48,3.42-8.07,7.52-8.03,4.11.04,7.41,3.71,7.36,8.18-.05,4.48-3.42,8.07-7.52,8.03-4.11-.04-7.4-3.71-7.36-8.18Z"/>
                  <path class="cls-87" d="m677.24,491.5c.05-4.28,3.27-7.72,7.2-7.68,3.93.04,7.08,3.55,7.04,7.82-.04,4.28-3.27,7.72-7.2,7.68-3.93-.04-7.08-3.54-7.04-7.82Z"/>
                  <path class="cls-40" d="m677.57,491.5c.05-4.08,3.12-7.37,6.87-7.33,3.75.04,6.76,3.38,6.71,7.47-.04,4.08-3.12,7.37-6.87,7.33-3.75-.04-6.76-3.38-6.71-7.47Z"/>
                  <path class="cls-36" d="m677.89,491.5c.04-3.89,2.97-7.01,6.54-6.97,3.57.04,6.43,3.22,6.39,7.11-.04,3.89-2.97,7.01-6.54,6.97-3.57-.04-6.43-3.22-6.39-7.11Z"/>
                  <path class="cls-44" d="m678.22,491.51c.04-3.69,2.82-6.66,6.21-6.62,3.39.04,6.11,3.06,6.07,6.75-.04,3.69-2.82,6.66-6.21,6.62-3.39-.04-6.11-3.06-6.07-6.75Z"/>
                  <path class="cls-95" d="m678.54,491.51c.04-3.5,2.67-6.31,5.88-6.27,3.21.03,5.79,2.9,5.75,6.4s-2.67,6.31-5.88,6.27c-3.21-.03-5.79-2.89-5.75-6.4Z"/>
                </g>
                <path class="cls-63" d="m678.54,491.51c.04-3.5,2.67-6.31,5.88-6.27,3.21.03,5.79,2.9,5.75,6.4s-2.67,6.31-5.88,6.27c-3.21-.03-5.79-2.89-5.75-6.4Z"/>
              </g>
              <g>
                <g>
                  <path class="cls-42" d="m602.91,490.73c.06-5.65,4.31-10.19,9.5-10.13,5.19.05,9.34,4.68,9.29,10.33-.06,5.65-4.31,10.19-9.5,10.13-5.19-.05-9.35-4.68-9.28-10.33Z"/>
                  <path class="cls-55" d="m603.24,490.73c.06-5.46,4.16-9.84,9.17-9.78,5.01.05,9.02,4.52,8.96,9.97-.06,5.46-4.16,9.84-9.17,9.78-5.01-.05-9.02-4.52-8.96-9.97Z"/>
                  <path class="cls-33" d="m603.56,490.73c.05-5.26,4.01-9.48,8.84-9.43,4.83.05,8.7,4.36,8.64,9.61-.05,5.26-4.01,9.48-8.84,9.43-4.83-.05-8.7-4.35-8.64-9.61Z"/>
                  <path class="cls-37" d="m603.89,490.74c.05-5.06,3.86-9.13,8.51-9.08,4.65.05,8.37,4.19,8.32,9.25-.05,5.06-3.86,9.13-8.51,9.08-4.65-.05-8.38-4.19-8.32-9.25Z"/>
                  <path class="cls-58" d="m604.21,490.74c.05-4.87,3.71-8.78,8.18-8.73,4.47.04,8.05,4.03,8,8.9-.05,4.87-3.71,8.78-8.18,8.73-4.47-.04-8.05-4.03-8-8.9Z"/>
                  <path class="cls-70" d="m604.54,490.74c.05-4.67,3.56-8.42,7.85-8.38,4.29.04,7.73,3.87,7.68,8.54-.05,4.67-3.56,8.42-7.85,8.38-4.29-.04-7.73-3.87-7.68-8.54Z"/>
                  <path class="cls-28" d="m604.86,490.75c.05-4.48,3.42-8.07,7.52-8.03,4.11.04,7.4,3.71,7.35,8.18-.05,4.48-3.42,8.07-7.52,8.03-4.11-.04-7.41-3.71-7.36-8.18Z"/>
                  <path class="cls-87" d="m605.19,490.75c.04-4.28,3.27-7.72,7.2-7.68,3.93.04,7.08,3.55,7.03,7.82-.04,4.28-3.27,7.72-7.19,7.68-3.93-.04-7.08-3.54-7.04-7.82Z"/>
                  <path class="cls-40" d="m605.51,490.75c.04-4.08,3.12-7.37,6.87-7.33,3.75.04,6.76,3.38,6.71,7.47-.04,4.08-3.12,7.37-6.86,7.33-3.75-.04-6.76-3.38-6.71-7.47Z"/>
                  <path class="cls-36" d="m605.84,490.75c.04-3.89,2.97-7.01,6.54-6.97,3.57.04,6.43,3.22,6.39,7.11-.04,3.89-2.97,7.01-6.53,6.97-3.57-.04-6.43-3.22-6.39-7.11Z"/>
                  <path class="cls-44" d="m606.16,490.76c.04-3.69,2.82-6.66,6.21-6.62,3.39.04,6.11,3.06,6.07,6.75-.04,3.69-2.82,6.66-6.2,6.62-3.39-.04-6.11-3.06-6.07-6.75Z"/>
                  <path class="cls-95" d="m606.49,490.76c.04-3.5,2.67-6.31,5.88-6.27,3.21.03,5.79,2.9,5.75,6.4-.04,3.5-2.67,6.31-5.88,6.27-3.21-.03-5.79-2.89-5.75-6.4Z"/>
                </g>
                <path class="cls-60" d="m606.49,490.76c.04-3.5,2.67-6.31,5.88-6.27,3.21.03,5.79,2.9,5.75,6.4-.04,3.5-2.67,6.31-5.88,6.27-3.21-.03-5.79-2.89-5.75-6.4Z"/>
              </g>
            </g>
          </g>
        </g>
      </g>
      <g class="cls-18">
        <path class="cls-7" d="m294.7,129.55c-4.76-20.09-24.17-36.44-43.26-36.44H34.81C15.62,93.11,0,110.07,0,130.93v243.96c0,20.75,15.12,41.51,33.7,46.29.12.03,12.07,2.99,35.82,2.99,126.4,0,229.22-111.72,229.22-249.06,0-28.22-4-45.39-4.04-45.56Z"/>
        <path class="cls-94" d="m296.2,128.54c-4.84-20.07-24.17-36.44-43.26-36.44H36.3c-19.19,0-34.81,16.96-34.81,37.82v243.96c0,20.75,15.05,41.78,33.7,46.29.12.03,12.07,2.99,35.82,2.99,126.4,0,229.22-111.72,229.22-249.06,0-28.22-4-45.39-4.04-45.56Z"/>
        <path class="cls-11" d="m297.69,127.53c-4.85-20.07-24.17-36.44-43.26-36.44H37.79c-19.19,0-34.81,16.96-34.81,37.82v243.96c0,20.75,15.05,41.78,33.7,46.29.12.03,12.07,2.99,35.82,2.99,126.4,0,229.22-111.72,229.22-249.06,0-28.22-4-45.39-4.04-45.56Z"/>
        <path class="cls-73" d="m299.18,126.52c-4.85-20.07-24.17-36.44-43.26-36.44H39.28c-19.19,0-34.81,16.96-34.81,37.82v243.96c0,20.75,15.05,41.78,33.7,46.29.12.03,12.07,2.99,35.82,2.99,126.4,0,229.22-111.72,229.22-249.06,0-28.22-4-45.39-4.04-45.56Z"/>
        <path class="cls-6" d="m300.67,125.51c-4.85-20.07-24.17-36.44-43.26-36.44H40.78c-19.19,0-34.81,16.96-34.81,37.82v243.96c0,20.75,15.05,41.78,33.7,46.29.12.03,12.07,2.99,35.82,2.99,126.4,0,229.22-111.72,229.22-249.06,0-28.22-4-45.39-4.04-45.56Z"/>
        <path class="cls-75" d="m302.17,124.51c-4.85-20.07-24.17-36.44-43.26-36.44H42.27c-19.19,0-34.81,16.96-34.81,37.82v243.96c0,20.75,15.05,41.78,33.7,46.29.12.03,12.07,2.99,35.82,2.99,126.4,0,229.22-111.72,229.22-249.06,0-28.22-4-45.39-4.04-45.56Z"/>
        <path class="cls-74" d="m303.66,123.5c-4.85-20.07-24.17-36.44-43.26-36.44H43.76c-19.19,0-34.81,16.97-34.81,37.82v243.96c0,20.75,15.05,41.78,33.7,46.29.12.03,12.07,2.99,35.82,2.99,126.4,0,229.22-111.73,229.22-249.06,0-28.22-4-45.39-4.04-45.56Z"/>
        <path class="cls-88" d="m305.15,122.49c-4.85-20.07-24.17-36.44-43.26-36.44H45.25c-19.19,0-34.81,16.97-34.81,37.82v243.96c0,20.75,15.05,41.78,33.7,46.29.12.03,12.07,2.99,35.82,2.99,126.4,0,229.22-111.73,229.22-249.06,0-28.22-4-45.39-4.04-45.56Z"/>
        <path class="cls-3" d="m306.64,121.48c-4.86-20.07-24.17-36.44-43.26-36.44H46.75c-19.19,0-34.81,16.97-34.81,37.82v243.96c0,20.75,15.05,41.78,33.7,46.29.12.03,12.07,2.99,35.82,2.99,126.4,0,229.22-111.73,229.22-249.06,0-28.22-4-45.39-4.04-45.56Z"/>
        <path class="cls-45" d="m308.13,120.47c-4.86-20.07-24.17-36.44-43.26-36.44H48.24c-19.19,0-34.81,16.97-34.81,37.82v243.96c0,20.75,15.05,41.78,33.7,46.29.12.03,12.07,2.99,35.82,2.99,126.4,0,229.22-111.73,229.22-249.06,0-28.22-4-45.39-4.04-45.56Z"/>
        <path class="cls-56" d="m309.63,119.47c-4.86-20.07-24.17-36.44-43.26-36.44H49.73c-19.19,0-34.81,16.97-34.81,37.82v243.96c0,20.75,15.05,41.78,33.7,46.29.12.03,12.07,2.99,35.82,2.99,126.4,0,229.22-111.73,229.22-249.06,0-28.22-4-45.39-4.04-45.56Z"/>
        <path class="cls-43" d="m311.12,118.46c-4.86-20.07-24.17-36.44-43.26-36.44H51.22c-19.19,0-34.81,16.97-34.81,37.82v243.96c0,20.75,15.05,41.78,33.7,46.29.12.03,12.07,2.99,35.82,2.99,126.4,0,229.22-111.73,229.22-249.06,0-28.22-4-45.39-4.04-45.56Z"/>
        <path class="cls-36" d="m312.61,117.45c-4.86-20.07-24.17-36.44-43.26-36.44H52.72c-19.19,0-34.81,16.97-34.81,37.82v243.96c0,20.75,15.05,41.78,33.7,46.29.12.03,12.07,2.99,35.82,2.99,126.4,0,229.22-111.73,229.22-249.06,0-28.22-4-45.39-4.04-45.56Z"/>
        <path class="cls-69" d="m314.1,116.44c-4.86-20.07-24.17-36.44-43.26-36.44H54.21c-19.19,0-34.81,16.97-34.81,37.82v243.96c0,20.75,15.05,41.78,33.7,46.29.12.03,12.07,2.99,35.82,2.99,126.4,0,229.22-111.73,229.22-249.06,0-28.22-4-45.39-4.04-45.56Z"/>
        <path class="cls-81" d="m315.6,115.43c-4.87-20.07-24.17-36.44-43.26-36.44H55.7c-19.19,0-34.81,16.97-34.81,37.82v243.96c0,20.75,15.05,41.78,33.7,46.29.12.03,12.07,2.99,35.82,2.99,126.4,0,229.22-111.73,229.22-249.06,0-28.22-4-45.39-4.04-45.56Z"/>
        <path class="cls-30" d="m317.09,114.43c-4.87-20.07-24.17-36.44-43.26-36.44H57.19c-19.19,0-34.81,16.97-34.81,37.82v243.96c0,20.75,15.05,41.78,33.7,46.29.12.03,12.07,2.99,35.82,2.99,126.4,0,229.22-111.73,229.22-249.06,0-28.22-4-45.39-4.04-45.56Z"/>
        <path class="cls-46" d="m318.58,113.42c-4.87-20.07-24.17-36.44-43.26-36.44H58.69c-19.19,0-34.81,16.97-34.81,37.82v243.96c0,20.75,15.05,41.78,33.7,46.29.12.03,12.07,2.99,35.82,2.99,126.4,0,229.22-111.73,229.22-249.06,0-28.22-4-45.39-4.04-45.56Z"/>
        <path class="cls-10" d="m320.07,112.41c-4.87-20.07-24.17-36.44-43.26-36.44H60.18c-19.19,0-34.81,16.97-34.81,37.82v243.96c0,20.75,15.05,41.78,33.7,46.29.12.03,12.07,2.99,35.82,2.99,126.4,0,229.22-111.73,229.22-249.06,0-28.22-4-45.39-4.04-45.56Z"/>
        <path class="cls-77" d="m321.57,111.4c-4.87-20.07-24.17-36.44-43.26-36.44H61.67c-19.19,0-34.81,16.97-34.81,37.82v243.96c0,20.75,15.05,41.78,33.7,46.29.12.03,12.07,2.99,35.82,2.99,126.4,0,229.22-111.73,229.22-249.06,0-28.22-4-45.39-4.04-45.56Z"/>
        <path class="cls-9" d="m323.06,110.39c-4.87-20.07-24.17-36.44-43.26-36.44H63.16c-19.19,0-34.81,16.97-34.81,37.82v243.96c0,20.75,15.05,41.78,33.7,46.29.12.03,12.07,2.99,35.82,2.99,126.4,0,229.22-111.73,229.22-249.06,0-28.22-4-45.39-4.04-45.56Z"/>
        <path class="cls-31" d="m324.55,109.39c-4.88-20.07-24.17-36.44-43.26-36.44H64.66c-19.19,0-34.81,16.97-34.81,37.82v243.96c0,20.75,15.05,41.78,33.7,46.29.12.03,12.07,2.99,35.82,2.99,126.4,0,229.22-111.73,229.22-249.06,0-28.22-4-45.39-4.04-45.56Z"/>
        <path class="cls-85" d="m326.04,108.38c-4.76-20.09-24.17-36.44-43.26-36.44H66.15c-19.19,0-34.81,16.97-34.81,37.82v243.96c0,20.75,15.12,41.51,33.7,46.29.12.03,12.07,2.99,35.82,2.99,126.4,0,229.22-111.73,229.22-249.06,0-28.22-4-45.39-4.04-45.56Z"/>
      </g>
      <g>
        <g>
          <path class="cls-85" d="m282.78,72.82c18.71,0,37.81,16.09,42.48,35.78,0,0,4.01,16.91,4.01,45.34,0,137.05-102.26,248.17-228.41,248.17-23.94,0-35.64-2.97-35.64-2.97-18.2-4.68-33.08-25.1-33.08-45.42V109.76c0-20.31,15.29-36.94,33.99-36.94h216.63Z"/>
          <path class="cls-35" d="m100.98,401.8c-23.9,0-35.57-2.97-35.57-2.97-18.16-4.67-33.02-25.06-33.02-45.34V109.96c0-20.28,15.26-36.88,33.93-36.88h216.25c18.68,0,37.75,16.06,42.41,35.72,0,0,4.01,16.88,4.01,45.26,0,136.82-102.08,247.74-228.01,247.74Z"/>
          <path class="cls-53" d="m101.1,401.49c-23.85,0-35.51-2.96-35.51-2.96-18.13-4.66-32.96-25.01-32.96-45.27V110.15c0-20.24,15.24-36.81,33.88-36.81h215.88c18.64,0,37.68,16.04,42.33,35.65,0,0,4,16.85,4,45.18,0,136.58-101.9,247.31-227.61,247.31Z"/>
          <path class="cls-31" d="m101.22,401.19c-23.81,0-35.45-2.96-35.45-2.96-18.1-4.65-32.9-24.97-32.9-45.19V110.35c0-20.21,15.21-36.75,33.82-36.75h215.5c18.61,0,37.61,16.01,42.26,35.59,0,0,3.99,16.82,3.99,45.1,0,136.34-101.73,246.88-227.22,246.88Z"/>
          <path class="cls-13" d="m101.34,400.88c-23.77,0-35.39-2.95-35.39-2.95-18.07-4.64-32.85-24.92-32.85-45.11V110.55c0-20.17,15.18-36.68,33.76-36.68h215.13c18.58,0,37.55,15.98,42.19,35.53,0,0,3.99,16.79,3.99,45.02,0,136.1-101.55,246.45-226.82,246.45Z"/>
          <path class="cls-9" d="m101.46,400.57c-23.73,0-35.33-2.95-35.33-2.95-18.04-4.64-32.79-24.88-32.79-45.03V110.75c0-20.14,15.16-36.62,33.7-36.62h214.75c18.55,0,37.48,15.95,42.11,35.47,0,0,3.98,16.76,3.98,44.95,0,135.87-101.37,246.02-226.42,246.02Z"/>
          <path class="cls-72" d="m101.57,400.26c-23.69,0-35.27-2.94-35.27-2.94-18.01-4.63-32.73-24.84-32.73-44.95V110.95c0-20.1,15.13-36.56,33.64-36.56h214.37c18.51,0,37.42,15.93,42.04,35.41,0,0,3.97,16.73,3.97,44.87,0,135.63-101.19,245.59-226.03,245.59Z"/>
          <path class="cls-82" d="m101.69,399.95c-23.65,0-35.21-2.94-35.21-2.94-17.98-4.62-32.67-24.79-32.67-44.87V111.15c0-20.07,15.11-36.49,33.58-36.49h214c18.48,0,37.35,15.9,41.96,35.34,0,0,3.97,16.7,3.97,44.79,0,135.39-101.02,245.16-225.63,245.16Z"/>
          <path class="cls-77" d="m101.81,399.64c-23.61,0-35.14-2.93-35.14-2.93-17.94-4.61-32.62-24.75-32.62-44.79V111.35c0-20.03,15.08-36.43,33.52-36.43h213.62c18.45,0,37.29,15.87,41.89,35.28,0,0,3.96,16.67,3.96,44.71,0,135.16-100.84,244.73-225.23,244.73Z"/>
          <path class="cls-39" d="m101.93,399.34c-23.57,0-35.08-2.93-35.08-2.93-17.91-4.6-32.56-24.7-32.56-44.71V111.55c0-20,15.05-36.36,33.46-36.36h213.25c18.42,0,37.22,15.84,41.82,35.22,0,0,3.95,16.65,3.95,44.63,0,134.92-100.66,244.3-224.84,244.3Z"/>
          <path class="cls-87" d="m102.05,399.03c-23.52,0-35.02-2.92-35.02-2.92-17.88-4.59-32.5-24.66-32.5-44.63V111.75c0-19.96,15.03-36.3,33.4-36.3h212.87c18.38,0,37.16,15.82,41.74,35.16,0,0,3.95,16.62,3.95,44.55,0,134.68-100.48,243.87-224.44,243.87Z"/>
          <path class="cls-10" d="m102.16,398.72c-23.48,0-34.96-2.92-34.96-2.92-17.85-4.59-32.44-24.62-32.44-44.55V111.95c0-19.93,15-36.24,33.34-36.24h212.5c18.35,0,37.09,15.79,41.67,35.09,0,0,3.94,16.59,3.94,44.47,0,134.44-100.31,243.44-224.04,243.44Z"/>
          <path class="cls-84" d="m102.28,398.41c-23.44,0-34.9-2.91-34.9-2.91-17.82-4.58-32.39-24.57-32.39-44.47V112.14c0-19.89,14.97-36.17,33.28-36.17h212.12c18.32,0,37.02,15.76,41.59,35.03,0,0,3.93,16.56,3.93,44.39,0,134.21-100.13,243.01-223.65,243.01Z"/>
          <path class="cls-65" d="m102.4,398.1c-23.4,0-34.84-2.91-34.84-2.91-17.79-4.57-32.33-24.53-32.33-44.39V112.34c0-19.86,14.95-36.11,33.23-36.11h211.75c18.29,0,36.96,15.74,41.52,34.97,0,0,3.92,16.53,3.92,44.32,0,133.97-99.95,242.58-223.25,242.58Z"/>
          <path class="cls-46" d="m102.52,397.8c-23.36,0-34.78-2.91-34.78-2.91-17.76-4.56-32.27-24.48-32.27-44.32V112.54c0-19.82,14.92-36.04,33.17-36.04h211.37c18.25,0,36.89,15.71,41.45,34.91,0,0,3.92,16.5,3.92,44.24,0,133.73-99.77,242.15-222.85,242.15Z"/>
          <path class="cls-68" d="m102.64,397.49c-23.32,0-34.71-2.9-34.71-2.9-17.72-4.55-32.22-24.44-32.22-44.24V112.74c0-19.79,14.9-35.98,33.11-35.98h210.99c18.22,0,36.83,15.68,41.37,34.85,0,0,3.91,16.47,3.91,44.16,0,133.49-99.6,241.72-222.46,241.72Z"/>
          <path class="cls-30" d="m102.75,397.18c-23.28,0-34.65-2.9-34.65-2.9-17.69-4.54-32.16-24.4-32.16-44.16V112.94c0-19.75,14.87-35.92,33.05-35.92h210.62c18.19,0,36.76,15.65,41.3,34.78,0,0,3.9,16.44,3.9,44.08,0,133.26-99.42,241.29-222.06,241.29Z"/>
          <path class="cls-40" d="m102.87,396.87c-23.24,0-34.59-2.89-34.59-2.89-17.66-4.53-32.1-24.35-32.1-44.08V113.14c0-19.72,14.84-35.85,32.99-35.85h210.24c18.16,0,36.7,15.63,41.23,34.72,0,0,3.9,16.41,3.9,44,0,133.02-99.24,240.86-221.66,240.86Z"/>
          <path class="cls-14" d="m102.99,396.56c-23.19,0-34.53-2.89-34.53-2.89-17.63-4.53-32.04-24.31-32.04-44V113.34c0-19.68,14.82-35.79,32.93-35.79h209.87c18.12,0,36.63,15.6,41.15,34.66,0,0,3.89,16.38,3.89,43.92,0,132.78-99.06,240.43-221.27,240.43Z"/>
          <path class="cls-81" d="m103.11,396.26c-23.15,0-34.47-2.88-34.47-2.88-17.6-4.52-31.99-24.26-31.99-43.92V113.54c0-19.65,14.79-35.72,32.87-35.72h209.49c18.09,0,36.56,15.57,41.08,34.6,0,0,3.88,16.35,3.88,43.84,0,132.55-98.89,240-220.87,240Z"/>
          <path class="cls-49" d="m103.23,395.95c-23.11,0-34.41-2.88-34.41-2.88-17.57-4.51-31.93-24.22-31.93-43.84V113.74c0-19.61,14.76-35.66,32.81-35.66h209.12c18.06,0,36.5,15.54,41,34.53,0,0,3.88,16.33,3.88,43.76,0,132.31-98.71,239.57-220.47,239.57Z"/>
          <path class="cls-12" d="m103.34,395.64c-23.07,0-34.35-2.87-34.35-2.87-17.53-4.5-31.87-24.18-31.87-43.76V113.94c0-19.58,14.74-35.6,32.75-35.6h208.74c18.02,0,36.43,15.52,40.93,34.47,0,0,3.87,16.3,3.87,43.69,0,132.07-98.53,239.14-220.08,239.14Z"/>
          <path class="cls-69" d="m103.46,395.33c-23.03,0-34.28-2.87-34.28-2.87-17.5-4.49-31.81-24.13-31.81-43.68V114.13c0-19.54,14.71-35.53,32.69-35.53h208.37c17.99,0,36.37,15.49,40.86,34.41,0,0,3.86,16.27,3.86,43.61,0,131.83-98.35,238.71-219.68,238.71Z"/>
          <path class="cls-2" d="m103.58,395.02c-22.99,0-34.22-2.86-34.22-2.86-17.47-4.48-31.76-24.09-31.76-43.6V114.33c0-19.51,14.68-35.47,32.63-35.47h207.99c17.96,0,36.3,15.46,40.78,34.35,0,0,3.85,16.24,3.85,43.53,0,131.6-98.17,238.28-219.28,238.28Z"/>
          <path class="cls-36" d="m103.7,394.71c-22.95,0-34.16-2.86-34.16-2.86-17.44-4.47-31.7-24.05-31.7-43.52V114.53c0-19.47,14.66-35.4,32.58-35.4h207.61c17.93,0,36.24,15.43,40.71,34.28,0,0,3.85,16.21,3.85,43.45,0,131.36-98,237.85-218.89,237.85Z"/>
          <path class="cls-36" d="m103.82,394.41c-22.91,0-34.1-2.85-34.1-2.85-17.41-4.47-31.64-24-31.64-43.44V114.73c0-19.44,14.63-35.34,32.52-35.34h207.24c17.89,0,36.17,15.41,40.64,34.22,0,0,3.84,16.18,3.84,43.37,0,131.12-97.82,237.42-218.49,237.42Z"/>
          <path class="cls-96" d="m103.93,394.1c-22.86,0-34.04-2.85-34.04-2.85-17.38-4.46-31.58-23.96-31.58-43.37V114.93c0-19.4,14.61-35.28,32.46-35.28h206.86c17.86,0,36.1,15.38,40.56,34.16,0,0,3.83,16.15,3.83,43.29,0,130.88-97.64,236.99-218.09,236.99Z"/>
          <path class="cls-34" d="m104.05,393.79c-22.82,0-33.98-2.84-33.98-2.84-17.35-4.45-31.53-23.91-31.53-43.29V115.13c0-19.37,14.58-35.21,32.4-35.21h206.49c17.83,0,36.04,15.35,40.49,34.1,0,0,3.83,16.12,3.83,43.21,0,130.65-97.46,236.56-217.7,236.56Z"/>
          <path class="cls-43" d="m104.17,393.48c-22.78,0-33.92-2.84-33.92-2.84-17.31-4.44-31.47-23.87-31.47-43.21V115.33c0-19.33,14.55-35.15,32.34-35.15h206.11c17.8,0,35.97,15.33,40.41,34.04,0,0,3.82,16.09,3.82,43.14,0,130.41-97.29,236.13-217.3,236.13Z"/>
          <path class="cls-21" d="m104.29,393.17c-22.74,0-33.85-2.83-33.85-2.83-17.28-4.43-31.41-23.83-31.41-43.13V115.53c0-19.3,14.53-35.08,32.28-35.08h205.74c17.76,0,35.91,15.3,40.34,33.97,0,0,3.81,16.06,3.81,43.06,0,130.17-97.11,235.7-216.9,235.7Z"/>
          <path class="cls-93" d="m104.41,392.87c-22.7,0-33.79-2.83-33.79-2.83-17.25-4.42-31.35-23.78-31.35-43.05V115.73c0-19.26,14.5-35.02,32.22-35.02h205.36c17.73,0,35.84,15.27,40.27,33.91,0,0,3.81,16.04,3.81,42.98,0,129.94-96.93,235.27-216.51,235.27Z"/>
          <path class="cls-56" d="m104.52,392.56c-22.66,0-33.73-2.82-33.73-2.82-17.22-4.42-31.3-23.74-31.3-42.97V115.93c0-19.23,14.47-34.96,32.16-34.96h204.99c17.7,0,35.78,15.24,40.19,33.85,0,0,3.8,16.01,3.8,42.9,0,129.7-96.75,234.84-216.11,234.84Z"/>
          <path class="cls-61" d="m104.64,392.25c-22.62,0-33.67-2.82-33.67-2.82-17.19-4.41-31.24-23.69-31.24-42.89V116.12c0-19.19,14.45-34.89,32.1-34.89h204.61c17.67,0,35.71,15.22,40.12,33.79,0,0,3.79,15.98,3.79,42.82,0,129.46-96.58,234.41-215.71,234.41Z"/>
          <path class="cls-44" d="m104.76,391.94c-22.58,0-33.61-2.81-33.61-2.81-17.16-4.4-31.18-23.65-31.18-42.81V116.32c0-19.16,14.42-34.83,32.04-34.83h204.23c17.63,0,35.64,15.19,40.04,33.72,0,0,3.79,15.95,3.79,42.74,0,129.22-96.4,233.98-215.32,233.98Z"/>
          <path class="cls-45" d="m104.88,391.63c-22.53,0-33.55-2.81-33.55-2.81-17.13-4.39-31.12-23.61-31.12-42.73V116.52c0-19.12,14.39-34.76,31.98-34.76h203.86c17.6,0,35.58,15.16,39.97,33.66,0,0,3.78,15.92,3.78,42.66,0,128.99-96.22,233.55-214.92,233.55Z"/>
          <path class="cls-71" d="m105,391.32c-22.49,0-33.49-2.8-33.49-2.8-17.09-4.38-31.07-23.56-31.07-42.65V116.72c0-19.09,14.37-34.7,31.92-34.7h203.48c17.57,0,35.51,15.13,39.9,33.6,0,0,3.77,15.89,3.77,42.58,0,128.75-96.04,233.12-214.52,233.12Z"/>
          <path class="cls-3" d="m105.11,391.02c-22.45,0-33.42-2.8-33.42-2.8-17.06-4.37-31.01-23.52-31.01-42.57V116.92c0-19.05,14.34-34.64,31.87-34.64h203.11c17.54,0,35.45,15.11,39.82,33.54,0,0,3.76,15.86,3.76,42.51,0,128.51-95.87,232.69-214.13,232.69Z"/>
          <path class="cls-51" d="m105.23,390.71c-22.41,0-33.36-2.79-33.36-2.79-17.03-4.36-30.95-23.47-30.95-42.49V117.12c0-19.02,14.32-34.57,31.81-34.57h202.73c17.5,0,35.38,15.08,39.75,33.48,0,0,3.76,15.83,3.76,42.43,0,128.27-95.69,232.26-213.73,232.26Z"/>
          <path class="cls-66" d="m105.35,390.4c-22.37,0-33.3-2.79-33.3-2.79-17-4.36-30.9-23.43-30.9-42.42V117.32c0-18.98,14.29-34.51,31.75-34.51h202.36c17.47,0,35.32,15.05,39.68,33.41,0,0,3.75,15.8,3.75,42.35,0,128.04-95.51,231.83-213.33,231.83Z"/>
          <path class="cls-88" d="m105.47,390.09c-22.33,0-33.24-2.78-33.24-2.78-16.97-4.35-30.84-23.39-30.84-42.34V117.52c0-18.95,14.26-34.44,31.69-34.44h201.98c17.44,0,35.25,15.02,39.6,33.35,0,0,3.74,15.77,3.74,42.27,0,127.8-95.33,231.4-212.94,231.4Z"/>
          <path class="cls-95" d="m105.59,389.78c-22.29,0-33.18-2.78-33.18-2.78-16.94-4.34-30.78-23.34-30.78-42.26V117.72c0-18.91,14.24-34.38,31.63-34.38h201.61c17.41,0,35.18,15,39.53,33.29,0,0,3.74,15.74,3.74,42.19,0,127.56-95.16,230.97-212.54,230.97Z"/>
          <path class="cls-86" d="m105.7,389.48c-22.25,0-33.12-2.77-33.12-2.77-16.9-4.33-30.72-23.3-30.72-42.18V117.92c0-18.88,14.21-34.32,31.57-34.32h201.23c17.37,0,35.12,14.97,39.45,33.23,0,0,3.73,15.72,3.73,42.11,0,127.33-94.98,230.54-212.14,230.54Z"/>
          <path class="cls-74" d="m105.82,389.17c-22.2,0-33.06-2.77-33.06-2.77-16.87-4.32-30.67-23.26-30.67-42.1V118.11c0-18.84,14.18-34.25,31.51-34.25h200.85c17.34,0,35.05,14.94,39.38,33.16,0,0,3.72,15.69,3.72,42.03,0,127.09-94.8,230.11-211.75,230.11Z"/>
          <path class="cls-5" d="m105.94,388.86c-22.16,0-32.99-2.77-32.99-2.77-16.84-4.31-30.61-23.21-30.61-42.02V118.31c0-18.81,14.16-34.19,31.45-34.19h200.48c17.31,0,34.99,14.91,39.31,33.1,0,0,3.72,15.66,3.72,41.95,0,126.85-94.62,229.68-211.35,229.68Z"/>
          <path class="cls-75" d="m106.06,388.55c-22.12,0-32.93-2.76-32.93-2.76-16.81-4.3-30.55-23.17-30.55-41.94V118.51c0-18.77,14.13-34.12,31.39-34.12h200.1c17.28,0,34.92,14.89,39.23,33.04,0,0,3.71,15.63,3.71,41.88,0,126.61-94.44,229.25-210.95,229.25Z"/>
          <path class="cls-89" d="m106.18,388.24c-22.08,0-32.87-2.76-32.87-2.76-16.78-4.3-30.49-23.12-30.49-41.86V118.71c0-18.74,14.1-34.06,31.33-34.06h199.73c17.24,0,34.86,14.86,39.16,32.98,0,0,3.7,15.6,3.7,41.8,0,126.38-94.27,228.82-210.56,228.82Z"/>
          <path class="cls-78" d="m106.29,387.93c-22.04,0-32.81-2.75-32.81-2.75-16.75-4.29-30.44-23.08-30.44-41.78V118.91c0-18.7,14.08-34,31.27-34h199.35c17.21,0,34.79,14.83,39.08,32.91,0,0,3.69,15.57,3.69,41.72,0,126.14-94.09,228.39-210.16,228.39Z"/>
          <path class="cls-6" d="m106.41,387.63c-22,0-32.75-2.75-32.75-2.75-16.72-4.28-30.38-23.04-30.38-41.7V119.11c0-18.67,14.05-33.93,31.22-33.93h198.98c17.18,0,34.73,14.81,39.01,32.85,0,0,3.69,15.54,3.69,41.64,0,125.9-93.91,227.96-209.76,227.96Z"/>
          <path class="cls-22" d="m106.53,387.32c-21.96,0-32.69-2.74-32.69-2.74-16.68-4.27-30.32-22.99-30.32-41.62V119.31c0-18.63,14.03-33.87,31.16-33.87h198.6c17.15,0,34.66,14.78,38.94,32.79,0,0,3.68,15.51,3.68,41.56,0,125.66-93.73,227.53-209.37,227.53Z"/>
          <path class="cls-15" d="m106.65,387.01c-21.92,0-32.62-2.74-32.62-2.74-16.65-4.26-30.26-22.95-30.26-41.54V119.51c0-18.6,14-33.8,31.1-33.8h198.23c17.11,0,34.59,14.75,38.86,32.73,0,0,3.67,15.48,3.67,41.48,0,125.43-93.56,227.1-208.97,227.1Z"/>
        </g>
        <g>
          <path class="cls-15" d="m106.3,384.52c-21.72,0-32.31-2.71-32.31-2.71-16.5-4.21-30-22.73-30-41.16V119.47c0-18.4,13.88-33.48,30.82-33.48h196.42c16.96,0,34.27,14.59,38.49,32.41,0,0,3.64,15.36,3.64,41.11,0,124.26-92.69,225-207.05,225Z"/>
          <path class="cls-78" d="m106.42,384.1c-21.67,0-32.23-2.7-32.23-2.7-16.46-4.2-29.93-22.67-29.93-41.06V119.69c0-18.36,13.84-33.4,30.74-33.4h195.95c16.92,0,34.19,14.56,38.39,32.34,0,0,3.63,15.33,3.63,41.01,0,123.96-92.47,224.46-206.56,224.46Z"/>
          <path class="cls-75" d="m106.55,383.69c-21.62,0-32.15-2.69-32.15-2.69-16.42-4.19-29.86-22.62-29.86-40.96V119.92c0-18.32,13.81-33.32,30.67-33.32h195.48c16.87,0,34.11,14.52,38.3,32.26,0,0,3.62,15.29,3.62,40.91,0,123.66-92.25,223.92-206.06,223.92Z"/>
          <path class="cls-86" d="m106.67,383.28c-21.57,0-32.08-2.69-32.08-2.69-16.38-4.18-29.79-22.57-29.79-40.86V120.15c0-18.27,13.78-33.24,30.6-33.24h195.01c16.83,0,34.02,14.49,38.21,32.18,0,0,3.61,15.25,3.61,40.81,0,123.36-92.02,223.38-205.56,223.38Z"/>
          <path class="cls-66" d="m106.8,382.87c-21.51,0-32-2.68-32-2.68-16.34-4.17-29.72-22.51-29.72-40.77V120.37c0-18.23,13.74-33.15,30.52-33.15h194.53c16.79,0,33.94,14.45,38.12,32.1,0,0,3.6,15.21,3.6,40.72,0,123.07-91.8,222.84-205.07,222.84Z"/>
          <path class="cls-3" d="m106.92,382.46c-21.46,0-31.92-2.67-31.92-2.67-16.3-4.16-29.64-22.46-29.64-40.67V120.6c0-18.18,13.71-33.07,30.45-33.07h194.06c16.75,0,33.86,14.41,38.03,32.03,0,0,3.59,15.17,3.59,40.62,0,122.77-91.58,222.29-204.57,222.29Z"/>
          <path class="cls-44" d="m107.05,382.05c-21.41,0-31.84-2.67-31.84-2.67-16.26-4.15-29.57-22.4-29.57-40.57V120.82c0-18.14,13.68-32.99,30.38-32.99h193.59c16.71,0,33.78,14.38,37.94,31.95,0,0,3.58,15.13,3.58,40.52,0,122.47-91.36,221.75-204.07,221.75Z"/>
          <path class="cls-93" d="m107.17,381.64c-21.36,0-31.76-2.66-31.76-2.66-16.22-4.14-29.5-22.35-29.5-40.47V121.05c0-18.1,13.64-32.91,30.3-32.91h193.12c16.66,0,33.7,14.34,37.84,31.87,0,0,3.57,15.1,3.57,40.42,0,122.17-91.14,221.21-203.58,221.21Z"/>
          <path class="cls-43" d="m107.3,381.23c-21.3,0-31.69-2.65-31.69-2.65-16.18-4.13-29.43-22.3-29.43-40.37V121.27c0-18.05,13.61-32.83,30.23-32.83h192.65c16.62,0,33.62,14.31,37.75,31.79,0,0,3.57,15.06,3.57,40.32,0,121.87-90.91,220.67-203.08,220.67Z"/>
          <path class="cls-36" d="m107.42,380.81c-21.25,0-31.61-2.65-31.61-2.65-16.14-4.12-29.36-22.24-29.36-40.27V121.5c0-18.01,13.58-32.75,30.15-32.75h192.17c16.58,0,33.54,14.27,37.66,31.72,0,0,3.56,15.02,3.56,40.22,0,121.57-90.69,220.13-202.58,220.13Z"/>
          <path class="cls-12" d="m107.55,380.4c-21.2,0-31.53-2.64-31.53-2.64-16.1-4.11-29.28-22.19-29.28-40.17V121.73c0-17.97,13.54-32.67,30.08-32.67h191.7c16.54,0,33.45,14.23,37.57,31.64,0,0,3.55,14.98,3.55,40.12,0,121.27-90.47,219.59-202.08,219.59Z"/>
          <path class="cls-81" d="m107.67,379.99c-21.15,0-31.45-2.63-31.45-2.63-16.06-4.1-29.21-22.13-29.21-40.07V121.95c0-17.92,13.51-32.59,30.01-32.59h191.23c16.5,0,33.37,14.2,37.48,31.56,0,0,3.54,14.94,3.54,40.02,0,120.97-90.25,219.05-201.59,219.05Z"/>
          <path class="cls-30" d="m107.8,379.58c-21.09,0-31.37-2.63-31.37-2.63-16.02-4.09-29.14-22.08-29.14-39.97V122.18c0-17.88,13.48-32.51,29.93-32.51h190.76c16.45,0,33.29,14.16,37.39,31.49,0,0,3.53,14.9,3.53,39.92,0,120.67-90.03,218.51-201.09,218.51Z"/>
          <path class="cls-65" d="m107.92,379.17c-21.04,0-31.3-2.62-31.3-2.62-15.98-4.08-29.07-22.02-29.07-39.88V122.4c0-17.83,13.44-32.43,29.86-32.43h190.29c16.41,0,33.21,14.13,37.3,31.41,0,0,3.52,14.87,3.52,39.82,0,120.38-89.8,217.96-200.59,217.96Z"/>
          <path class="cls-10" d="m108.05,378.76c-20.99,0-31.22-2.61-31.22-2.61-15.94-4.07-29-21.97-29-39.78V122.63c0-17.79,13.41-32.35,29.78-32.35h189.81c16.37,0,33.13,14.09,37.2,31.33,0,0,3.51,14.83,3.51,39.73,0,120.08-89.58,217.42-200.1,217.42Z"/>
          <path class="cls-77" d="m108.17,378.35c-20.94,0-31.14-2.61-31.14-2.61-15.9-4.06-28.92-21.92-28.92-39.68V122.85c0-17.75,13.38-32.27,29.71-32.27h189.34c16.33,0,33.05,14.05,37.11,31.25,0,0,3.5,14.79,3.5,39.63,0,119.78-89.36,216.88-199.6,216.88Z"/>
          <path class="cls-9" d="m108.3,377.94c-20.88,0-31.06-2.6-31.06-2.6-15.87-4.05-28.85-21.86-28.85-39.58V123.08c0-17.7,13.34-32.19,29.64-32.19h188.87c16.29,0,32.97,14.02,37.02,31.18,0,0,3.49,14.75,3.49,39.53,0,119.48-89.14,216.34-199.1,216.34Z"/>
          <path class="cls-31" d="m108.42,377.52c-20.83,0-30.98-2.59-30.98-2.59-15.83-4.04-28.78-21.81-28.78-39.48V123.31c0-17.66,13.31-32.11,29.56-32.11h188.4c16.24,0,32.88,13.98,36.93,31.1,0,0,3.48,14.71,3.48,39.43,0,119.18-88.92,215.8-198.61,215.8Z"/>
          <path class="cls-85" d="m108.55,377.11c-20.78,0-30.91-2.59-30.91-2.59-15.79-4.03-28.71-21.75-28.71-39.38V123.53c0-17.61,13.28-32.03,29.49-32.03h187.93c16.2,0,32.8,13.95,36.84,31.02,0,0,3.47,14.67,3.47,39.33,0,118.88-88.69,215.26-198.11,215.26Z"/>
          <path class="cls-38" d="m108.67,376.7c-20.73,0-30.83-2.58-30.83-2.58-15.75-4.02-28.64-21.7-28.64-39.28V123.76c0-17.57,13.24-31.95,29.42-31.95h187.45c16.16,0,32.72,13.91,36.75,30.95,0,0,3.46,14.64,3.46,39.23,0,118.58-88.47,214.72-197.61,214.72Z"/>
          <path class="cls-70" d="m108.8,376.29c-20.67,0-30.75-2.57-30.75-2.57-15.71-4.01-28.56-21.65-28.56-39.18V123.98c0-17.53,13.21-31.87,29.34-31.87h186.98c16.12,0,32.64,13.87,36.65,30.87,0,0,3.45,14.6,3.45,39.13,0,118.28-88.25,214.17-197.12,214.17Z"/>
          <path class="cls-67" d="m108.92,375.88c-20.62,0-30.67-2.57-30.67-2.57-15.67-4-28.49-21.59-28.49-39.08V124.21c0-17.48,13.18-31.79,29.27-31.79h186.51c16.08,0,32.56,13.84,36.56,30.79,0,0,3.44,14.56,3.44,39.03,0,117.98-88.03,213.63-196.62,213.63Z"/>
          <path class="cls-70" d="m109.57,374.38c-20.41,0-30.36-2.54-30.36-2.54-15.51-3.96-28.2-21.37-28.2-38.68V125.28c0-17.3,13.04-31.46,28.97-31.46h184.61c15.91,0,32.23,13.7,36.19,30.48,0,0,3.41,14.41,3.41,38.64,0,116.78-87.13,211.46-194.61,211.46Z"/>
          <path class="cls-38" d="m110.23,372.88c-20.2,0-30.05-2.52-30.05-2.52-15.35-3.92-27.91-21.15-27.91-38.29V126.34c0-17.12,12.91-31.14,28.67-31.14h182.71c15.75,0,31.9,13.56,35.82,30.16,0,0,3.37,14.26,3.37,38.24,0,115.58-86.23,209.28-192.61,209.28Z"/>
          <path class="cls-85" d="m110.88,371.39c-19.99,0-29.73-2.49-29.73-2.49-15.19-3.88-27.62-20.93-27.62-37.89V127.41c0-16.95,12.77-30.81,28.37-30.81h180.8c15.59,0,31.56,13.42,35.45,29.85,0,0,3.34,14.12,3.34,37.84,0,114.37-85.33,207.1-190.61,207.1Z"/>
          <path class="cls-31" d="m111.53,369.89c-19.78,0-29.42-2.46-29.42-2.46-15.03-3.84-27.33-20.71-27.33-37.49v-201.46c0-16.77,12.64-30.49,28.08-30.49h178.9c15.43,0,31.23,13.28,35.07,29.53,0,0,3.3,13.97,3.3,37.44,0,113.17-84.44,204.92-188.6,204.92Z"/>
          <path class="cls-9" d="m112.18,368.39c-19.57,0-29.11-2.44-29.11-2.44-14.87-3.8-27.04-20.49-27.04-37.09v-199.32c0-16.59,12.5-30.16,27.78-30.16h177c15.26,0,30.9,13.13,34.7,29.22,0,0,3.27,13.82,3.27,37.05,0,111.97-83.54,202.74-186.6,202.74Z"/>
          <path class="cls-77" d="m112.83,366.89c-19.36,0-28.8-2.41-28.8-2.41-14.71-3.76-26.75-20.27-26.75-36.69v-197.18c0-16.41,12.37-29.84,27.48-29.84h175.1c15.1,0,30.57,12.99,34.33,28.9,0,0,3.23,13.67,3.23,36.65,0,110.76-82.64,200.57-184.59,200.57Z"/>
          <path class="cls-10" d="m113.49,365.4c-19.15,0-28.48-2.39-28.48-2.39-14.55-3.71-26.46-20.05-26.46-36.29v-195.04c0-16.23,12.23-29.51,27.18-29.51h173.2c14.94,0,30.24,12.85,33.96,28.59,0,0,3.2,13.53,3.2,36.25,0,109.56-81.74,198.39-182.59,198.39Z"/>
          <path class="cls-65" d="m114.14,363.9c-18.94,0-28.17-2.36-28.17-2.36-14.39-3.67-26.17-19.83-26.17-35.89v-192.9c0-16.06,12.1-29.19,26.89-29.19h171.29c14.78,0,29.91,12.71,33.58,28.28,0,0,3.16,13.38,3.16,35.85,0,108.35-80.85,196.21-180.59,196.21Z"/>
          <path class="cls-30" d="m114.79,362.4c-18.72,0-27.86-2.33-27.86-2.33-14.23-3.63-25.88-19.61-25.88-35.49v-190.76c0-15.88,11.97-28.87,26.59-28.87h169.39c14.61,0,29.57,12.57,33.21,27.96,0,0,3.13,13.23,3.13,35.46,0,107.15-79.95,194.03-178.58,194.03Z"/>
          <path class="cls-81" d="m115.44,360.9c-18.51,0-27.54-2.31-27.54-2.31-14.07-3.59-25.59-19.39-25.59-35.09v-188.62c0-15.7,11.83-28.54,26.29-28.54h167.49c14.45,0,29.24,12.43,32.84,27.65,0,0,3.09,13.08,3.09,35.06,0,105.95-79.05,191.85-176.58,191.85Z"/>
          <path class="cls-12" d="m116.09,359.41c-18.3,0-27.23-2.28-27.23-2.28-13.91-3.55-25.3-19.17-25.3-34.69v-186.48c0-15.52,11.7-28.22,25.99-28.22h165.59c14.29,0,28.91,12.29,32.47,27.33,0,0,3.06,12.93,3.06,34.66,0,104.74-78.15,189.68-174.57,189.68Z"/>
          <path class="cls-36" d="m116.75,357.91c-18.09,0-26.92-2.26-26.92-2.26-13.75-3.51-25.01-18.95-25.01-34.29v-184.34c0-15.34,11.56-27.89,25.69-27.89h163.68c14.13,0,28.58,12.15,32.09,27.02,0,0,3.02,12.79,3.02,34.26,0,103.54-77.26,187.5-172.57,187.5Z"/>
          <path class="cls-43" d="m117.4,356.41c-17.88,0-26.61-2.23-26.61-2.23-13.59-3.47-24.72-18.73-24.72-33.89v-182.2c0-15.16,11.43-27.57,25.4-27.57h161.78c13.96,0,28.25,12.01,31.72,26.7,0,0,2.99,12.64,2.99,33.86,0,102.34-76.36,185.32-170.57,185.32Z"/>
          <path class="cls-93" d="m118.05,354.91c-17.67,0-26.29-2.2-26.29-2.2-13.43-3.42-24.43-18.51-24.43-33.49v-180.06c0-14.99,11.29-27.24,25.1-27.24h159.88c13.8,0,27.92,11.87,31.35,26.39,0,0,2.95,12.49,2.95,33.47,0,101.13-75.46,183.14-168.56,183.14Z"/>
          <path class="cls-44" d="m118.7,353.42c-17.46,0-25.98-2.18-25.98-2.18-13.27-3.38-24.14-18.29-24.14-33.09v-177.92c0-14.81,11.16-26.92,24.8-26.92h157.98c13.64,0,27.58,11.73,30.98,26.07,0,0,2.92,12.34,2.92,33.07,0,99.93-74.56,180.96-166.56,180.96Z"/>
          <path class="cls-3" d="m119.35,351.92c-17.25,0-25.67-2.15-25.67-2.15-13.11-3.34-23.84-18.07-23.84-32.69v-175.78c0-14.63,11.02-26.59,24.5-26.59h156.08c13.48,0,27.25,11.59,30.6,25.76,0,0,2.88,12.2,2.88,32.67,0,98.72-73.67,178.79-164.55,178.79Z"/>
          <path class="cls-66" d="m120,350.42c-17.04,0-25.35-2.13-25.35-2.13-12.95-3.3-23.55-17.84-23.55-32.29v-173.64c0-14.45,10.89-26.27,24.21-26.27h154.17c13.31,0,26.92,11.45,30.23,25.44,0,0,2.85,12.05,2.85,32.27,0,97.52-72.77,176.61-162.55,176.61Z"/>
          <path class="cls-86" d="m120.66,348.92c-16.83,0-25.04-2.1-25.04-2.1-12.79-3.26-23.26-17.62-23.26-31.89v-171.5c0-14.27,10.76-25.94,23.91-25.94h152.27c13.15,0,26.59,11.31,29.86,25.13,0,0,2.81,11.9,2.81,31.88,0,96.32-71.87,174.43-160.54,174.43Z"/>
          <path class="cls-75" d="m121.31,347.43c-16.62,0-24.73-2.07-24.73-2.07-12.63-3.22-22.97-17.4-22.97-31.49v-169.36c0-14.09,10.62-25.62,23.61-25.62h150.37c12.99,0,26.26,11.16,29.48,24.82,0,0,2.78,11.75,2.78,31.48,0,95.11-70.97,172.25-158.54,172.25Z"/>
          <path class="cls-78" d="m121.96,345.93c-16.41,0-24.42-2.05-24.42-2.05-12.47-3.18-22.68-17.18-22.68-31.09v-167.22c0-13.92,10.49-25.29,23.31-25.29h148.47c12.83,0,25.93,11.02,29.11,24.5,0,0,2.74,11.6,2.74,31.08,0,93.91-70.08,170.07-156.54,170.07Z"/>
          <path class="cls-15" d="m245.69,121.66c12.66,0,25.59,10.88,28.74,24.19,0,0,2.71,11.46,2.71,30.68,0,92.71-69.18,167.89-154.53,167.89-16.2,0-24.1-2.02-24.1-2.02-12.31-3.14-22.39-16.96-22.39-30.7v-165.08c0-13.74,10.35-24.97,23.01-24.97h146.56Z"/>
        </g>
        <g>
          <path class="cls-19" d="m238.59,108.3c4.52,0,8.19-2.08,8.19-4.63s-3.66-4.62-8.19-4.62-8.2,2.06-8.2,4.62,3.65,4.63,8.2,4.63Z"/>
          <path class="cls-29" d="m238.59,106.72c2.99,0,5.41-1.37,5.41-3.05s-2.42-3.04-5.41-3.04-5.41,1.35-5.41,3.04,2.42,3.05,5.41,3.05Z"/>
        </g>
        <g>
          <path class="cls-19" d="m177.66,108.3c4.52,0,8.19-2.08,8.19-4.63s-3.66-4.62-8.19-4.62-8.2,2.06-8.2,4.62,3.66,4.63,8.2,4.63Z"/>
          <path class="cls-47" d="m177.66,106.72c2.98,0,5.41-1.37,5.41-3.05s-2.43-3.04-5.41-3.04-5.42,1.35-5.42,3.04,2.44,3.05,5.42,3.05Z"/>
        </g>
        <g>
          <path class="cls-19" d="m116.72,108.3c4.53,0,8.2-2.08,8.2-4.63s-3.66-4.62-8.2-4.62-8.2,2.06-8.2,4.62,3.67,4.63,8.2,4.63Z"/>
          <path class="cls-8" d="m116.72,106.72c2.98,0,5.39-1.37,5.39-3.05s-2.41-3.04-5.39-3.04-5.42,1.35-5.42,3.04,2.42,3.05,5.42,3.05Z"/>
        </g>
        <g>
          <path class="cls-19" d="m63.44,163.25c0-4.91-1.92-8.9-4.26-8.9s-4.25,3.99-4.25,8.9,1.9,8.92,4.25,8.92,4.26-3.99,4.26-8.92Z"/>
          <path class="cls-32" d="m61.99,163.25c0-3.25-1.27-5.87-2.81-5.87s-2.81,2.62-2.81,5.87,1.26,5.88,2.81,5.88,2.81-2.62,2.81-5.88Z"/>
        </g>
        <g>
          <path class="cls-19" d="m63.44,229.47c0-4.92-1.92-8.9-4.26-8.9s-4.25,3.98-4.25,8.9,1.9,8.93,4.25,8.93,4.26-3.99,4.26-8.93Z"/>
          <path class="cls-79" d="m61.99,229.47c0-3.25-1.27-5.86-2.81-5.86s-2.81,2.61-2.81,5.86,1.26,5.89,2.81,5.89,2.81-2.65,2.81-5.89Z"/>
        </g>
        <g>
          <path class="cls-19" d="m63.44,295.7c0-4.93-1.92-8.91-4.26-8.91s-4.25,3.98-4.25,8.91,1.9,8.9,4.25,8.9,4.26-3.99,4.26-8.9Z"/>
          <path class="cls-1" d="m61.99,295.7c0-3.25-1.27-5.88-2.81-5.88s-2.81,2.63-2.81,5.88,1.26,5.88,2.81,5.88,2.81-2.64,2.81-5.88Z"/>
        </g>
        <g>
          <path class="cls-19" d="m290.16,235.08c1.98-4.43,1.9-8.91-.23-10.04-2.12-1.13-5.43,1.54-7.42,5.97-1.99,4.43-1.91,8.91.2,10.03,2.11,1.11,5.44-1.53,7.44-5.96Z"/>
          <path class="cls-52" d="m288.84,234.38c1.32-2.92,1.26-5.89-.13-6.62-1.39-.74-3.58,1.01-4.91,3.91-1.31,2.93-1.24,5.89.14,6.63,1.41.73,3.6-1.02,4.9-3.93Z"/>
        </g>
        <g>
          <path class="cls-19" d="m243.86,313.79c3.22-3.48,4.46-7.76,2.8-9.57-1.67-1.81-5.61-.45-8.81,3.02-3.21,3.5-4.46,7.78-2.78,9.58,1.65,1.8,5.6.45,8.79-3.03Z"/>
          <path class="cls-48" d="m242.85,312.66c2.11-2.3,2.93-5.11,1.83-6.31-1.09-1.19-3.69-.29-5.8,2-2.11,2.3-2.95,5.13-1.85,6.32,1.09,1.19,3.71.29,5.82-2.01Z"/>
        </g>
        <g>
          <path class="cls-19" d="m165.98,363.16c4.24-1.78,6.96-5.16,6.11-7.53-.86-2.38-4.96-2.87-9.19-1.09-4.23,1.78-6.95,5.15-6.1,7.53.86,2.39,4.95,2.88,9.18,1.09Z"/>
          <path class="cls-62" d="m165.46,361.69c2.79-1.17,4.59-3.41,4.03-4.97-.56-1.57-3.26-1.9-6.04-.72-2.8,1.17-4.6,3.39-4.04,4.98.55,1.57,3.27,1.89,6.06.71Z"/>
        </g>
        <g>
          <path class="cls-25" d="m276.98,134.42c0,6.38-4.77,11.55-10.62,11.55s-10.63-5.17-10.63-11.55,4.77-11.54,10.63-11.54,10.62,5.16,10.62,11.54Z"/>
          <path class="cls-19" d="m274.15,134.42c0,4.69-3.5,8.48-7.79,8.48s-7.8-3.79-7.8-8.48,3.5-8.46,7.8-8.46,7.79,3.79,7.79,8.46Z"/>
        </g>
        <path class="cls-17" d="m108.92,375.88c-20.62,0-30.67-2.57-30.67-2.57-15.67-4-28.49-21.59-28.49-39.08V124.21c0-17.48,13.18-31.79,29.27-31.79h186.51c16.08,0,32.56,13.84,36.56,30.79,0,0,3.44,14.56,3.44,39.03,0,117.98-88.03,213.63-196.62,213.63Z"/>
        <path class="cls-23" d="m282.78,72.82c18.71,0,37.81,16.09,42.48,35.78,0,0,4.01,16.91,4.01,45.34,0,137.05-102.26,248.17-228.41,248.17-23.94,0-35.64-2.97-35.64-2.97-18.2-4.68-33.08-25.1-33.08-45.42V109.76c0-20.31,15.29-36.94,33.99-36.94h216.63Z"/>
      </g>
    </g>
  </g>
</svg>