<?xml version="1.0" encoding="UTF-8"?>
<svg xmlns="http://www.w3.org/2000/svg" xmlns:xlink="http://www.w3.org/1999/xlink" viewBox="0 0 420.46 526.65">
  <defs>
    <style>
      .cls-1 {
        fill: #d6d7d8;
      }

      .cls-2 {
        fill: #cfd0d2;
      }

      .cls-3, .cls-4 {
        fill: #fff;
      }

      .cls-5 {
        fill: #dddedf;
      }

      .cls-6 {
        fill: #4c4c4c;
      }

      .cls-7 {
        fill: #d1cfcf;
      }

      .cls-8 {
        fill: #c0c1c2;
      }

      .cls-9 {
        opacity: .24;
      }

      .cls-10 {
        fill: #e2e2e2;
      }

      .cls-11 {
        fill: #8d9092;
      }

      .cls-12 {
        fill: url(#Orchid-2);
      }

      .cls-13, .cls-14, .cls-15, .cls-16 {
        mix-blend-mode: multiply;
      }

      .cls-13, .cls-17 {
        fill: #e9ddb7;
      }

      .cls-18 {
        opacity: .97;
      }

      .cls-19 {
        isolation: isolate;
      }

      .cls-20 {
        fill: #bbb9b9;
      }

      .cls-21 {
        opacity: .33;
      }

      .cls-22 {
        fill: #eff0f0;
      }

      .cls-4, .cls-23, .cls-24, .cls-25, .cls-26 {
        opacity: .1;
      }

      .cls-27 {
        opacity: .39;
      }

      .cls-28 {
        fill: #b4b4b6;
      }

      .cls-29 {
        fill: url(#Orchid-3);
      }

      .cls-30 {
        fill: url(#Orchid-4);
      }

      .cls-31, .cls-15 {
        fill: #a6d0e4;
      }

      .cls-23, .cls-32 {
        fill: #e0eea8;
      }

      .cls-33 {
        fill: #b0afaf;
      }

      .cls-34 {
        fill: #d1d1d2;
      }

      .cls-35 {
        fill: #9b9ca0;
      }

      .cls-36 {
        fill: #b0b2b3;
        stroke: #9a9c9e;
        stroke-miterlimit: 10;
        stroke-width: 1.13px;
      }

      .cls-14, .cls-37 {
        fill: #c6dd7f;
      }

      .cls-38 {
        fill: #ebebeb;
      }

      .cls-39 {
        fill: none;
      }

      .cls-40 {
        fill: #979594;
      }

      .cls-41 {
        fill: #b6b7b9;
      }

      .cls-42 {
        fill: #9b9c9f;
      }

      .cls-25, .cls-43, .cls-44 {
        fill: url(#Alyssa);
      }

      .cls-45 {
        opacity: .41;
      }

      .cls-46 {
        fill: #babcbe;
      }

      .cls-47 {
        fill: #ccc;
      }

      .cls-48 {
        fill: #b3b3b3;
      }

      .cls-49 {
        fill: #d6d5d5;
      }

      .cls-50, .cls-26 {
        fill: #cf9;
      }

      .cls-51 {
        fill: #dfe2e1;
      }

      .cls-52 {
        opacity: .46;
      }

      .cls-53 {
        fill: url(#Orchid);
      }

      .cls-54 {
        fill: #eee;
      }

      .cls-44 {
        opacity: .3;
      }

      .cls-55 {
        fill: #f8f9f9;
      }

      .cls-16 {
        fill: #48423b;
        opacity: .2;
      }

      .cls-56 {
        fill: #8a8887;
      }

      .cls-57 {
        fill: #a5a8aa;
      }

      .cls-58 {
        fill: #98999c;
      }

      .cls-59 {
        fill: #cccdd1;
      }
    </style>
    <pattern id="Alyssa" x="0" y="0" width="144.13" height="138.36" patternTransform="translate(-747.77 -276.68)" patternUnits="userSpaceOnUse" viewBox="0 0 144.13 138.36">
      <g>
        <rect class="cls-39" x="0" width="144.13" height="138.36"/>
        <path class="cls-14" d="m211.07,158.52c-11.76-1.38-19.37.35-22.65,3.11-3.02,2.54-4.96,5.41-2.25,11.93,2.94,7.09,1.53,14.73-5.54,15.91-6.22,1.04-10.89-4.84-11.24-12.28-.24-5.18-1.9-8.3-5.53-7.61-3.63.69-4.63,5.9-3.63,11.76,1.38,8.13,5.54,11.76,6.23,20.23.49,6.05-2.94,13.66-12.45,15.04-9.3,1.35-15.91-4.32-16.6-10.55-.73-6.59,3.63-10.89,3.11-17.64-.52-6.75-4.01-10.17-5.88-17.29-2.77-10.55,1.21-19.02,7.78-22.65,14.75-8.15,22.83,3.64,35.97,1.56,10.9-1.73,23.35-18.16,33.03-19.54,8.23-1.17,13.83,4.67,15.04,14.01,1.21,9.34-4.74,15.26-15.39,14.01Zm-42.2.52c0-2.29-1.86-4.15-4.15-4.15s-4.15,1.86-4.15,4.15,1.86,4.15,4.15,4.15,4.15-1.86,4.15-4.15Zm49.46-15.39c0-.96-.78-1.73-1.73-1.73s-1.73.77-1.73,1.73.77,1.73,1.73,1.73,1.73-.77,1.73-1.73Z"/>
        <g>
          <path class="cls-13" d="m48.83,139.33c0,7.17,4.59,13.81-1,16.33-8.5,3.83-28-14.33-28-36.17,0-12,8.67-19,17.83-19,12.33,0,18,8.17,18,17.5s-6.83,13.14-6.83,21.33Zm-5.41-5.37c0-1.15-.93-2.08-2.07-2.08s-2.08.93-2.08,2.08.93,2.08,2.08,2.08,2.07-.93,2.07-2.08Z"/>
          <path class="cls-15" d="m123.53,162.83c-7.87,2.74-19.44-15.3-17.67-27.02,1.24-8.23,7.12-13.19,13.09-14.22,7.53-1.3,12.9,2.6,13.3,7.24.55,6.31-3.63,7.52-4.22,14.96-.56,7.13,3.69,16.19-4.49,19.03Zm-3.79-27.51c0-1.43-1.16-2.59-2.59-2.59s-2.59,1.16-2.59,2.59,1.16,2.59,2.59,2.59,2.59-1.16,2.59-2.59Z"/>
          <path class="cls-13" d="m19.39,140.36c0,1.43-1.16,2.59-2.59,2.59s-2.59-1.16-2.59-2.59,1.16-2.59,2.59-2.59,2.59,1.16,2.59,2.59Z"/>
          <path class="cls-15" d="m84.61,132.64c.74,8.1,12.67,7.02,17.9,14.21,10.52,14.47-1.22,46.37-21.63,46.37-11.74,0-24.22-9.72-24.22-29.22,0-15.83,10.17-21.5,8.25-42.17-1.01-10.83-12.5-20.34-12.5-34.75,0-5.92,3.59-13.45,11.55-13.45,7.05,0,10.82,5.95,10.82,12.9s-5.38,15.74,1.37,19.05c5.24,2.57,13.21-4.77,19.5-6.75,5.19-1.64,12.39.22,14.75,8.5,2.53,8.88-3.25,14.75-11.59,16.69-6.32,1.48-14.8,2.17-14.21,8.61Zm-15.98-30.56c0-1.82-1.47-3.29-3.29-3.29s-3.29,1.47-3.29,3.29,1.47,3.29,3.29,3.29,3.29-1.47,3.29-3.29Zm25.98,9.7c1.29,0,2.33-1.04,2.33-2.33s-1.04-2.33-2.33-2.33-2.33,1.04-2.33,2.33,1.04,2.33,2.33,2.33Zm-19.98,59.67c0-1.82-1.47-3.29-3.29-3.29s-3.29,1.47-3.29,3.29,1.47,3.29,3.29,3.29,3.29-1.47,3.29-3.29Z"/>
          <path class="cls-14" d="m66.94,158.52c-11.76-1.38-19.37.35-22.65,3.11-3.02,2.54-4.95,5.41-2.25,11.93,2.94,7.09,1.53,14.73-5.54,15.91-6.22,1.04-10.89-4.84-11.24-12.28-.24-5.18-1.9-8.3-5.53-7.61-3.63.69-4.63,5.9-3.63,11.76,1.38,8.13,5.54,11.76,6.23,20.23.49,6.05-2.94,13.66-12.45,15.04-9.3,1.35-15.91-4.32-16.6-10.55-.73-6.59,3.63-10.89,3.11-17.64-.52-6.75-4.01-10.17-5.88-17.29-2.77-10.55,1.21-19.02,7.78-22.65,14.75-8.15,22.83,3.64,35.97,1.56,10.9-1.73,23.35-18.16,33.03-19.54,8.23-1.17,13.83,4.67,15.04,14.01,1.21,9.34-4.74,15.26-15.39,14.01Zm-42.2.52c0-2.29-1.86-4.15-4.15-4.15s-4.15,1.86-4.15,4.15,1.86,4.15,4.15,4.15,4.15-1.86,4.15-4.15Zm49.46-15.39c0-.96-.78-1.73-1.73-1.73s-1.73.77-1.73,1.73.77,1.73,1.73,1.73,1.73-.77,1.73-1.73Z"/>
        </g>
        <g>
          <path class="cls-15" d="m190.32,111.99c0,6.23-4.15,10.72-8.65,11.59-4.5.87-8.32-1.28-12.97,1.21-4.84,2.59-7.09,11.07-16.78,11.07-7.96,0-15.22-7.96-15.22-18.85,0-20.23,13.14-29.23,25.59-29.23,16.6,0,28.02,12.62,28.02,24.21Zm-19.71-14.35c0-2.1-1.7-3.8-3.8-3.8s-3.8,1.7-3.8,3.8,1.7,3.8,3.8,3.8,3.8-1.7,3.8-3.8Z"/>
          <path class="cls-14" d="m211.07,20.16c-11.76-1.38-19.37.35-22.65,3.11-3.02,2.54-4.96,5.41-2.25,11.93,2.94,7.09,1.53,14.73-5.54,15.91-6.22,1.04-10.89-4.84-11.24-12.28-.24-5.18-1.9-8.3-5.53-7.61-3.63.69-4.63,5.9-3.63,11.76,1.38,8.13,5.54,11.76,6.23,20.23.49,6.05-2.94,13.66-12.45,15.04-9.3,1.35-15.91-4.32-16.6-10.55-.73-6.59,3.63-10.89,3.11-17.64-.52-6.75-4.01-10.17-5.88-17.29-2.77-10.55,1.21-19.02,7.78-22.65,14.75-8.15,22.83,3.64,35.97,1.56,10.9-1.73,23.35-18.16,33.03-19.54,8.23-1.17,13.83,4.67,15.04,14.01,1.21,9.34-4.74,15.26-15.39,14.01Zm-42.2.52c0-2.29-1.86-4.15-4.15-4.15s-4.15,1.86-4.15,4.15,1.86,4.15,4.15,4.15,4.15-1.86,4.15-4.15Zm49.46-15.39c0-.96-.78-1.73-1.73-1.73s-1.73.77-1.73,1.73.77,1.73,1.73,1.73,1.73-.77,1.73-1.73Z"/>
        </g>
        <g>
          <path class="cls-15" d="m31.83,83.64c-13.96,1.99-21.17-13.33-17.67-20.33,3.67-7.33,12.12-4.17,19.5-4.17,9.67,0,16.37-7.57,20.42-2.25,4.25,5.58-5.01,24.29-22.25,26.75Zm.52-17.48c0-1.24-1.01-2.25-2.25-2.25s-2.25,1.01-2.25,2.25,1.01,2.25,2.25,2.25,2.25-1.01,2.25-2.25Z"/>
          <path class="cls-13" d="m48.83.97c0,7.17,4.59,13.81-1,16.33-8.5,3.83-28-14.33-28-36.17,0-12,8.67-19,17.83-19,12.33,0,18,8.17,18,17.5s-6.83,13.14-6.83,21.33Zm-5.41-5.37c0-1.15-.93-2.08-2.07-2.08s-2.08.93-2.08,2.08.93,2.08,2.08,2.08,2.07-.93,2.07-2.08Z"/>
          <path class="cls-15" d="m46.19,111.99c0,6.23-4.15,10.72-8.65,11.59-4.5.87-8.32-1.28-12.97,1.21-4.84,2.59-7.09,11.07-16.77,11.07-7.96,0-15.22-7.96-15.22-18.85,0-20.23,13.14-29.23,25.59-29.23,16.6,0,28.02,12.62,28.02,24.21Zm-19.71-14.35c0-2.1-1.7-3.8-3.8-3.8s-3.8,1.7-3.8,3.8,1.7,3.8,3.8,3.8,3.8-1.7,3.8-3.8Z"/>
          <path class="cls-14" d="m45.5,88.3c0,1.34-1.08,2.42-2.42,2.42s-2.42-1.08-2.42-2.42,1.08-2.42,2.42-2.42,2.42,1.08,2.42,2.42Z"/>
          <path class="cls-15" d="m129.2,69.79c-3.19,4.68,1.04,10.72-1.38,15.22-2.42,4.5-6.74,5.02-9.86,2.6-3.63-2.83-3.41-6.64-8.3-8.82-5.53-2.46-17.98,2.25-19.71-7.26-.87-4.81,2.37-8.57,7.26-9.68,6.05-1.38,9.35-.18,15.39-3.11,6.05-2.94,11.24-8.99,22.14-12.11,10.41-2.97,16.07,1.56,16.6,5.88,1.04,8.47-17.13,9.95-22.14,17.29Zm-2.25-7.44c0-1.24-1.01-2.25-2.25-2.25s-2.25,1.01-2.25,2.25,1.01,2.25,2.25,2.25,2.25-1.01,2.25-2.25Z"/>
          <path class="cls-13" d="m156.17,108.97c0,17.17-14.5,25.5-27,22.83-10.26-2.19-12.83-17.33-16.67-26.17-3.71-8.56-8.83-22.5-20.17-22.5s-12.83,14.5-23.67,14.5-24.5-15.67-24.5-39.67c0-14.67,9.8-31.46,20.83-30.67,11.67.83,4.5,19.67,15.33,19.67,9.5,0,7.86-16.26,9.17-23.33,1.67-9,6.83-14.17,18.5-13.17,14.44,1.24,22.33,13.5,18.87,23.34-4.03,11.45-23.87,17.32-21.54,30.49,1.35,7.59,13,12,26,16.17,14.53,4.66,24.83,11.33,24.83,28.5Zm-44.95-75.84c0,1.82,1.47,3.29,3.29,3.29s3.29-1.47,3.29-3.29-1.47-3.29-3.29-3.29-3.29,1.47-3.29,3.29Zm-46.69,24.9c0-.96-.77-1.73-1.73-1.73s-1.73.78-1.73,1.73.78,1.73,1.73,1.73,1.73-.77,1.73-1.73Zm17.47,10.72c0-2.1-1.7-3.8-3.8-3.8s-3.8,1.7-3.8,3.8,1.71,3.8,3.8,3.8,3.8-1.7,3.8-3.8Zm19.89-15.56c0-.86-.7-1.56-1.56-1.56s-1.56.7-1.56,1.56.7,1.56,1.56,1.56,1.56-.7,1.56-1.56Zm29.64,54.69c0-1.75-1.42-3.17-3.17-3.17s-3.17,1.42-3.17,3.17,1.42,3.17,3.17,3.17,3.17-1.42,3.17-3.17Z"/>
          <path class="cls-15" d="m123.53,24.47c-7.87,2.74-19.44-15.3-17.67-27.02,1.24-8.23,7.12-13.19,13.09-14.22,7.53-1.3,12.9,2.6,13.3,7.24.55,6.31-3.63,7.52-4.22,14.96-.56,7.13,3.69,16.19-4.49,19.03Zm-3.79-27.51c0-1.43-1.16-2.59-2.59-2.59s-2.59,1.16-2.59,2.59,1.16,2.59,2.59,2.59,2.59-1.16,2.59-2.59Z"/>
          <path class="cls-13" d="m19.39,2c0,1.43-1.16,2.59-2.59,2.59s-2.59-1.16-2.59-2.59,1.16-2.59,2.59-2.59,2.59,1.16,2.59,2.59Z"/>
          <path class="cls-13" d="m153.38,88.74c0-8.41-5.08-15.23-11.34-15.23s-11.34,6.82-11.34,15.23,5.08,12.44,11.34,12.44,11.34-4.03,11.34-12.44Z"/>
          <path class="cls-15" d="m84.61-5.72c.74,8.1,12.67,7.02,17.9,14.21,10.52,14.47-1.22,46.37-21.63,46.37-11.74,0-24.22-9.72-24.22-29.22,0-15.83,10.17-21.5,8.25-42.17-1.01-10.83-12.5-20.34-12.5-34.75,0-5.92,3.59-13.45,11.55-13.45,7.05,0,10.82,5.95,10.82,12.9s-5.38,15.74,1.37,19.05c5.24,2.57,13.21-4.77,19.5-6.75,5.19-1.64,12.39.22,14.75,8.5,2.53,8.88-3.25,14.75-11.59,16.69-6.32,1.48-14.8,2.17-14.21,8.61Zm-15.98-30.56c0-1.82-1.47-3.29-3.29-3.29s-3.29,1.47-3.29,3.29,1.47,3.29,3.29,3.29,3.29-1.47,3.29-3.29Zm25.98,9.7c1.29,0,2.33-1.04,2.33-2.33s-1.04-2.33-2.33-2.33-2.33,1.04-2.33,2.33,1.04,2.33,2.33,2.33Zm-19.98,59.67c0-1.82-1.47-3.29-3.29-3.29s-3.29,1.47-3.29,3.29,1.47,3.29,3.29,3.29,3.29-1.47,3.29-3.29Z"/>
          <path class="cls-14" d="m66.94,20.16c-11.76-1.38-19.37.35-22.65,3.11-3.02,2.54-4.95,5.41-2.25,11.93,2.94,7.09,1.53,14.73-5.54,15.91-6.22,1.04-10.89-4.84-11.24-12.28-.24-5.18-1.9-8.3-5.53-7.61-3.63.69-4.63,5.9-3.63,11.76,1.38,8.13,5.54,11.76,6.23,20.23.49,6.05-2.94,13.66-12.45,15.04-9.3,1.35-15.91-4.32-16.6-10.55-.73-6.59,3.63-10.89,3.11-17.64-.52-6.75-4.01-10.17-5.88-17.29-2.77-10.55,1.21-19.02,7.78-22.65,14.75-8.15,22.83,3.64,35.97,1.56,10.9-1.73,23.35-18.16,33.03-19.54,8.23-1.17,13.83,4.67,15.04,14.01,1.21,9.34-4.74,15.26-15.39,14.01Zm-42.2.52c0-2.29-1.86-4.15-4.15-4.15s-4.15,1.86-4.15,4.15,1.86,4.15,4.15,4.15,4.15-1.86,4.15-4.15Zm49.46-15.39c0-.96-.78-1.73-1.73-1.73s-1.73.77-1.73,1.73.77,1.73,1.73,1.73,1.73-.77,1.73-1.73Z"/>
          <path class="cls-14" d="m130.24,42.47c0,.76-.62,1.38-1.38,1.38s-1.38-.62-1.38-1.38.62-1.38,1.38-1.38,1.38.62,1.38,1.38Z"/>
          <path class="cls-17" d="m135.77,4.08c0,1.24-1.01,2.25-2.25,2.25s-2.25-1.01-2.25-2.25,1.01-2.25,2.25-2.25,2.25,1.01,2.25,2.25Z"/>
          <path class="cls-31" d="m52.24,27.25c0,.67-.54,1.21-1.21,1.21s-1.21-.54-1.21-1.21.54-1.21,1.21-1.21,1.21.54,1.21,1.21Z"/>
          <path class="cls-31" d="m48.61,95.73c0,.76-.62,1.38-1.38,1.38s-1.38-.62-1.38-1.38.62-1.38,1.38-1.38,1.38.62,1.38,1.38Z"/>
          <path class="cls-13" d="m133.18,73.77c0,.67-.54,1.21-1.21,1.21s-1.21-.54-1.21-1.21.54-1.21,1.21-1.21,1.21.54,1.21,1.21Z"/>
          <path class="cls-37" d="m95.89,91.69c0,1.88-1.53,3.41-3.41,3.41s-3.41-1.53-3.41-3.41,1.53-3.41,3.41-3.41,3.41,1.53,3.41,3.41Z"/>
          <path class="cls-13" d="m100.87,131.55c0,1.16-.94,2.1-2.1,2.1s-2.1-.94-2.1-2.1.94-2.1,2.1-2.1,2.1.94,2.1,2.1Z"/>
          <path class="cls-13" d="m62.07,125.25c0,.87-.7,1.57-1.57,1.57s-1.57-.7-1.57-1.57.71-1.57,1.57-1.57,1.57.71,1.57,1.57Z"/>
          <circle class="cls-37" cx="133.12" cy="11.21" r="2.62"/>
          <circle class="cls-15" cx="123.15" cy="46.07" r="2.36"/>
          <path class="cls-17" d="m27.72,52.63c0,1.45-1.17,2.62-2.62,2.62s-2.62-1.17-2.62-2.62,1.17-2.62,2.62-2.62,2.62,1.17,2.62,2.62Z"/>
          <path class="cls-15" d="m22.74,45.55c0,.72-.59,1.31-1.31,1.31s-1.31-.59-1.31-1.31.59-1.31,1.31-1.31,1.31.59,1.31,1.31Z"/>
          <path class="cls-13" d="m86.97,97.46c0,.87-.71,1.57-1.57,1.57s-1.57-.7-1.57-1.57.7-1.57,1.57-1.57,1.57.71,1.57,1.57Z"/>
        </g>
        <g>
          <path class="cls-15" d="m-14.93,69.79c-3.19,4.68,1.04,10.72-1.38,15.22-2.42,4.5-6.74,5.02-9.86,2.6-3.63-2.83-3.41-6.64-8.3-8.82-5.53-2.46-17.98,2.25-19.71-7.26-.88-4.81,2.38-8.57,7.26-9.68,6.05-1.38,9.35-.18,15.39-3.11,6.05-2.94,11.24-8.99,22.14-12.11,10.41-2.97,16.07,1.56,16.6,5.88,1.04,8.47-17.13,9.95-22.14,17.29Zm-2.25-7.44c0-1.24-1.01-2.25-2.25-2.25s-2.25,1.01-2.25,2.25,1.01,2.25,2.25,2.25,2.25-1.01,2.25-2.25Z"/>
          <path class="cls-13" d="m12.04,108.97c0,17.17-14.5,25.5-27,22.83-10.26-2.19-12.83-17.33-16.67-26.17-3.71-8.56-8.83-22.5-20.17-22.5s-12.83,14.5-23.67,14.5-24.5-15.67-24.5-39.67c0-14.67,9.8-31.46,20.83-30.67,11.67.83,4.5,19.67,15.33,19.67,9.5,0,7.86-16.26,9.17-23.33,1.67-9,6.83-14.17,18.5-13.17,14.44,1.24,22.33,13.5,18.87,23.34-4.03,11.45-23.87,17.32-21.54,30.49,1.35,7.59,13,12,26,16.17,14.53,4.66,24.83,11.33,24.83,28.5ZM-32.91,33.13c0,1.82,1.47,3.29,3.29,3.29s3.29-1.47,3.29-3.29-1.47-3.29-3.29-3.29-3.29,1.47-3.29,3.29Zm-46.69,24.9c0-.96-.77-1.73-1.73-1.73s-1.73.78-1.73,1.73.78,1.73,1.73,1.73,1.73-.77,1.73-1.73Zm17.47,10.72c0-2.1-1.7-3.8-3.8-3.8s-3.8,1.7-3.8,3.8,1.71,3.8,3.8,3.8,3.8-1.7,3.8-3.8Zm19.89-15.56c0-.86-.7-1.56-1.56-1.56s-1.56.7-1.56,1.56.7,1.56,1.56,1.56,1.56-.7,1.56-1.56Zm29.64,54.69c0-1.75-1.42-3.17-3.17-3.17s-3.17,1.42-3.17,3.17,1.42,3.17,3.17,3.17,3.17-1.42,3.17-3.17Z"/>
          <path class="cls-13" d="m9.26,88.74c0-8.41-5.08-15.23-11.34-15.23s-11.34,6.82-11.34,15.23,5.08,12.44,11.34,12.44,11.34-4.03,11.34-12.44Z"/>
        </g>
      </g>
    </pattern>
    <linearGradient id="Orchid" x1="269.01" y1="289.64" x2="278.39" y2="289.64" gradientTransform="translate(-53.09 473.55) rotate(-90)" gradientUnits="userSpaceOnUse">
      <stop offset="0" stop-color="#ff7bac"/>
      <stop offset=".22" stop-color="#ff7bac" stop-opacity=".76"/>
      <stop offset=".6" stop-color="#ff7bac" stop-opacity=".36"/>
      <stop offset=".87" stop-color="#ff7bac" stop-opacity=".1"/>
      <stop offset="1" stop-color="#ff7bac" stop-opacity="0"/>
    </linearGradient>
    <linearGradient id="Orchid-2" data-name="Orchid" x1="274.87" y1="295.33" x2="281.9" y2="295.33" xlink:href="#Orchid"/>
    <linearGradient id="Orchid-3" data-name="Orchid" x1="276.93" y1="295.07" x2="279.84" y2="295.07" xlink:href="#Orchid"/>
    <linearGradient id="Orchid-4" data-name="Orchid" x1="260.64" y1="321.82" x2="277.36" y2="321.82" xlink:href="#Orchid"/>
  </defs>
  <g class="cls-19">
    <g id="Layer_1" data-name="Layer 1">
      <g>
        <rect class="cls-6" x="7.31" y="415.31" width="100" height="100"/>
        <g class="cls-45">
          <polygon class="cls-4" points="12.72 436.23 86.65 510.17 101.91 510.17 12.72 420.98 12.72 436.23"/>
          <polygon class="cls-4" points="12.72 510.17 73.47 510.17 12.72 449.42 12.72 510.17"/>
        </g>
      </g>
      <g>
        <rect class="cls-6" x="7.31" y="314.31" width="100" height="100"/>
        <g class="cls-45">
          <polygon class="cls-4" points="12.72 335.23 86.65 409.17 101.91 409.17 12.72 319.98 12.72 335.23"/>
          <polygon class="cls-4" points="12.72 409.17 73.47 409.17 12.72 348.42 12.72 409.17"/>
        </g>
      </g>
      <g>
        <rect class="cls-6" x="7.31" y="213.31" width="100" height="100"/>
        <g class="cls-45">
          <polygon class="cls-4" points="12.72 234.23 86.65 308.17 101.91 308.17 12.72 218.98 12.72 234.23"/>
          <polygon class="cls-4" points="12.72 308.17 73.47 308.17 12.72 247.42 12.72 308.17"/>
        </g>
      </g>
      <g>
        <rect class="cls-6" x="7.31" y="112.31" width="100" height="100"/>
        <g class="cls-45">
          <polygon class="cls-4" points="12.72 133.23 86.65 207.17 101.91 207.17 12.72 117.98 12.72 133.23"/>
          <polygon class="cls-4" points="12.72 207.17 73.47 207.17 12.72 146.42 12.72 207.17"/>
        </g>
      </g>
      <g>
        <rect class="cls-6" x="7.31" y="11.31" width="100" height="100"/>
        <g class="cls-45">
          <polygon class="cls-4" points="12.72 32.23 86.65 106.17 101.91 106.17 12.72 16.98 12.72 32.23"/>
          <polygon class="cls-4" points="12.72 106.17 73.47 106.17 12.72 45.42 12.72 106.17"/>
        </g>
      </g>
      <g>
        <rect class="cls-6" x="319.31" y="415.31" width="100" height="100"/>
        <g class="cls-45">
          <polygon class="cls-4" points="324.72 436.23 398.65 510.17 413.91 510.17 324.72 420.98 324.72 436.23"/>
          <polygon class="cls-4" points="324.72 510.17 385.47 510.17 324.72 449.42 324.72 510.17"/>
        </g>
      </g>
      <g>
        <rect class="cls-6" x="319.31" y="314.31" width="100" height="100"/>
        <g class="cls-45">
          <polygon class="cls-4" points="324.72 335.23 398.65 409.17 413.91 409.17 324.72 319.98 324.72 335.23"/>
          <polygon class="cls-4" points="324.72 409.17 385.47 409.17 324.72 348.42 324.72 409.17"/>
        </g>
      </g>
      <g>
        <rect class="cls-6" x="108.31" y="213.31" width="100" height="100"/>
        <g class="cls-45">
          <polygon class="cls-4" points="113.72 234.23 187.65 308.17 202.91 308.17 113.72 218.98 113.72 234.23"/>
          <polygon class="cls-4" points="113.72 308.17 174.47 308.17 113.72 247.42 113.72 308.17"/>
        </g>
      </g>
      <g>
        <rect class="cls-6" x="108.31" y="112.31" width="100" height="100"/>
        <g class="cls-45">
          <polygon class="cls-4" points="113.72 133.23 187.65 207.17 202.91 207.17 113.72 117.98 113.72 133.23"/>
          <polygon class="cls-4" points="113.72 207.17 174.47 207.17 113.72 146.42 113.72 207.17"/>
        </g>
      </g>
      <g>
        <rect class="cls-6" x="108.31" y="11.31" width="100" height="100"/>
        <g class="cls-45">
          <polygon class="cls-4" points="113.72 32.23 187.65 106.17 202.91 106.17 113.72 16.98 113.72 32.23"/>
          <polygon class="cls-4" points="113.72 106.17 174.47 106.17 113.72 45.42 113.72 106.17"/>
        </g>
      </g>
      <g>
        <rect class="cls-6" x="209.31" y="415.31" width="100" height="100"/>
        <g class="cls-45">
          <polygon class="cls-4" points="214.72 436.23 288.65 510.17 303.91 510.17 214.72 420.98 214.72 436.23"/>
          <polygon class="cls-4" points="214.72 510.17 275.47 510.17 214.72 449.42 214.72 510.17"/>
        </g>
      </g>
      <g>
        <rect class="cls-6" x="209.31" y="314.31" width="100" height="100"/>
        <g class="cls-45">
          <polygon class="cls-4" points="214.72 335.23 288.65 409.17 303.91 409.17 214.72 319.98 214.72 335.23"/>
          <polygon class="cls-4" points="214.72 409.17 275.47 409.17 214.72 348.42 214.72 409.17"/>
        </g>
      </g>
      <g>
        <rect class="cls-6" x="209.31" y="213.31" width="100" height="100"/>
        <g class="cls-45">
          <polygon class="cls-4" points="214.72 234.23 288.65 308.17 303.91 308.17 214.72 218.98 214.72 234.23"/>
          <polygon class="cls-4" points="214.72 308.17 275.47 308.17 214.72 247.42 214.72 308.17"/>
        </g>
      </g>
      <g class="cls-21">
        <rect class="cls-50" x="209.31" y="112.31" width="100" height="100"/>
        <g class="cls-45">
          <polygon class="cls-26" points="214.72 133.23 288.65 207.17 303.91 207.17 214.72 117.98 214.72 133.23"/>
          <polygon class="cls-26" points="214.72 207.17 275.47 207.17 214.72 146.42 214.72 207.17"/>
        </g>
      </g>
      <g class="cls-9">
        <rect class="cls-43" x="209.31" y="11.31" width="100" height="100"/>
        <g class="cls-45">
          <polygon class="cls-25" points="214.72 32.23 288.65 106.17 303.91 106.17 214.72 16.98 214.72 32.23"/>
          <polygon class="cls-25" points="214.72 106.17 275.47 106.17 214.72 45.42 214.72 106.17"/>
        </g>
      </g>
      <g>
        <rect class="cls-6" x="310.31" y="415.31" width="100" height="100"/>
        <g class="cls-45">
          <polygon class="cls-4" points="315.72 436.23 389.65 510.17 404.91 510.17 315.72 420.98 315.72 436.23"/>
          <polygon class="cls-4" points="315.72 510.17 376.47 510.17 315.72 449.42 315.72 510.17"/>
        </g>
      </g>
      <g>
        <rect class="cls-6" x="310.31" y="314.31" width="100" height="100"/>
        <g class="cls-45">
          <polygon class="cls-4" points="315.72 335.23 389.65 409.17 404.91 409.17 315.72 319.98 315.72 335.23"/>
          <polygon class="cls-4" points="315.72 409.17 376.47 409.17 315.72 348.42 315.72 409.17"/>
        </g>
      </g>
      <g>
        <rect class="cls-6" x="310.31" y="213.31" width="100" height="100"/>
        <g class="cls-45">
          <polygon class="cls-4" points="315.72 234.23 389.65 308.17 404.91 308.17 315.72 218.98 315.72 234.23"/>
          <polygon class="cls-4" points="315.72 308.17 376.47 308.17 315.72 247.42 315.72 308.17"/>
        </g>
      </g>
      <g class="cls-52">
        <rect class="cls-32" x="310.31" y="112.31" width="100" height="100"/>
        <g class="cls-45">
          <polygon class="cls-23" points="315.72 133.23 389.65 207.17 404.91 207.17 315.72 117.98 315.72 133.23"/>
          <polygon class="cls-23" points="315.72 207.17 376.47 207.17 315.72 146.42 315.72 207.17"/>
        </g>
      </g>
      <g class="cls-27">
        <rect class="cls-43" x="310.31" y="11.31" width="100" height="100"/>
        <g class="cls-24">
          <polygon class="cls-44" points="315.72 32.23 389.65 106.17 404.91 106.17 315.72 16.98 315.72 32.23"/>
          <polygon class="cls-44" points="315.72 106.17 376.47 106.17 315.72 45.42 315.72 106.17"/>
        </g>
      </g>
      <rect class="cls-48" x="114.95" y="103.04" width="204.57" height="16" transform="translate(106.19 328.27) rotate(-90)"/>
      <g>
        <path class="cls-55" d="m207.55,119.15c0,.84-.61,1.52-1.36,1.52H14.77c-.75,0-1.36-.68-1.36-1.52V12.6c0-.84.61-1.52,1.36-1.52h191.43c.75,0,1.36.68,1.36,1.52v106.55Z"/>
        <path class="cls-2" d="m206.19,121.43H14.77c-1.12,0-2.04-1.02-2.04-2.28V12.6c0-1.26.91-2.28,2.04-2.28h191.43c1.12,0,2.04,1.02,2.04,2.28v106.55c0,1.26-.91,2.28-2.04,2.28ZM14.77,11.84c-.37,0-.68.34-.68.76v106.55c0,.42.3.76.68.76h191.43c.37,0,.68-.34.68-.76V12.6c0-.42-.3-.76-.68-.76H14.77Z"/>
      </g>
      <g>
        <circle class="cls-49" cx="113.32" cy="73.62" r="43.8" transform="translate(-12.79 25.06) rotate(-11.95)"/>
        <path class="cls-3" d="m113.32,118.27c-24.62,0-44.65-20.03-44.65-44.65,0-24.62,20.03-44.65,44.65-44.65,24.62,0,44.65,20.03,44.65,44.65,0,24.62-20.03,44.65-44.65,44.65Zm0-87.61c-23.69,0-42.96,19.27-42.96,42.96s19.27,42.96,42.96,42.96c23.69,0,42.96-19.27,42.96-42.96s-19.27-42.96-42.96-42.96Z"/>
      </g>
      <circle class="cls-55" cx="113.32" cy="73.62" r="36.21"/>
      <path class="cls-51" d="m113.32,95.13c-17.48,0-32.06-12.39-35.46-28.86-.49,2.37-.75,4.83-.75,7.35,0,20,16.21,36.21,36.21,36.21,20,0,36.21-16.21,36.21-36.21,0-2.52-.26-4.98-.75-7.35-3.4,16.47-17.98,28.86-35.46,28.86Z"/>
      <g>
        <g>
          <path class="cls-46" d="m113.32,68.06c-3.07,0-5.56,2.49-5.56,5.56s2.49,5.56,5.56,5.56c3.07,0,5.56-2.49,5.56-5.56s-2.49-5.56-5.56-5.56Z"/>
          <path class="cls-57" d="m113.32,67.63c3.31,0,6,2.69,6,6s-2.69,6-6,6-6-2.69-6-6,2.69-6,6-6Zm0,.87c-2.83,0-5.12,2.3-5.12,5.12s2.3,5.12,5.12,5.12c2.82,0,5.12-2.3,5.12-5.12s-2.3-5.12-5.12-5.12Z"/>
        </g>
        <g>
          <path class="cls-1" d="m113.32,69.75c-2.14,0-3.87,1.73-3.87,3.87s1.73,3.87,3.87,3.87c2.14,0,3.87-1.73,3.87-3.87s-1.73-3.87-3.87-3.87Z"/>
          <path class="cls-35" d="m113.32,69.32c2.37,0,4.3,1.93,4.3,4.3,0,2.37-1.93,4.3-4.3,4.3s-4.3-1.93-4.3-4.3,1.93-4.3,4.3-4.3Zm0,.87c-1.89,0-3.43,1.54-3.43,3.43,0,1.89,1.54,3.43,3.43,3.43s3.43-1.54,3.43-3.43-1.54-3.43-3.43-3.43Z"/>
        </g>
        <path class="cls-35" d="m116.84,72.04h-7.04c.61-1.34,1.95-2.28,3.52-2.28s2.91.94,3.52,2.28Z"/>
      </g>
      <g>
        <path class="cls-36" d="m118.91,21.53c0,3.45-2.8,6.25-6.25,6.25s-6.25-2.8-6.25-6.25,2.8-6.25,6.25-6.25,6.25,2.8,6.25,6.25Z"/>
        <rect class="cls-42" x="112.09" y="15.28" width="9.97" height="7.97"/>
        <rect class="cls-41" x="112.09" y="17.1" width="8.83" height="4.33"/>
        <rect class="cls-34" x="112.09" y="18.27" width="8.83" height="1.99"/>
        <path class="cls-42" d="m111.39,13.28h2.54c.94,0,1.71.77,1.71,1.71v38.74c0,.94-.77,1.71-1.71,1.71h-2.53c-.94,0-1.71-.77-1.71-1.71V14.99c0-.94.77-1.71,1.71-1.71Z"/>
        <path class="cls-8" d="m114.37,51.57c0,.88-.44,1.59-.98,1.59h-1.46c-.54,0-.98-.71-.98-1.59V15.58c0-.88.44-1.59.98-1.59h1.46c.54,0,.98.71.98,1.59v35.99Z"/>
        <path class="cls-34" d="m113.06,51.57c0,.88-.1,1.59-.23,1.59h-.34c-.13,0-.23-.71-.23-1.59V15.58c0-.88.1-1.59.23-1.59h.34c.13,0,.23.71.23,1.59v35.99Z"/>
        <rect class="cls-42" x="121.49" y="13.28" width="4.84" height="13.1"/>
        <rect class="cls-41" x="121.49" y="15.28" width="4.13" height="9.11"/>
        <rect class="cls-34" x="121.49" y="18.27" width="4.13" height="3.13"/>
      </g>
      <path class="cls-49" d="m293.02,475.77h46.54s46.54,0,46.54,0c6.65,0,11.64-2.78,11.64-9.43l-4.74-12.07c-1.12-1.45-12.36-8.83-14.12-39.16l-39.32,5.56-39.32-5.56c-1.77,30.33-13,37.72-14.12,39.16l-4.74,12.07c0,6.65,4.99,9.43,11.64,9.43Z"/>
      <path class="cls-20" d="m292.31,475.77h46.78s.24,0,.24,0h46.78c6.65,0,11.64-2.78,11.64-9.43,0,0-3.38-9.13-4.74-12.07-1-2.15-3.25-3.25-5.96-7.24-.31.01-9.27,8.83-47.85,8.85-38.57-.02-46.9-8.83-46.9-8.83-.32,0-.63,0-.94-.02-2.85,4.7-5.45,6.59-5.96,7.24l-4.74,12.07c0,6.65,4.99,9.43,11.64,9.43Z"/>
      <g>
        <path class="cls-54" d="m352.89,443.68c0-2.13,1.72-3.85,3.85-3.85h0c2.13,0,3.85,1.72,3.85,3.85v4.65c0,2.13-1.72,3.85-3.85,3.85h0c-2.13,0-3.85-1.72-3.85-3.85v-4.65Z"/>
        <path class="cls-20" d="m356.74,439.34c2.39,0,4.33,1.94,4.33,4.33v4.65c0,2.39-1.94,4.33-4.33,4.33s-4.33-1.94-4.33-4.33v-4.65c0-2.39,1.94-4.33,4.33-4.33Zm0,12.36c1.86,0,3.37-1.51,3.37-3.37v-4.65c0-1.86-1.51-3.37-3.37-3.37s-3.37,1.51-3.37,3.37v4.65c0,1.86,1.51,3.37,3.37,3.37Z"/>
      </g>
      <g>
        <path class="cls-54" d="m115.25,443.68c0-2.13-1.72-3.85-3.85-3.85h0c-2.13,0-3.85,1.72-3.85,3.85v4.65c0,2.13,1.72,3.85,3.85,3.85h0c2.13,0,3.85-1.72,3.85-3.85v-4.65Z"/>
        <path class="cls-20" d="m111.4,439.34c2.39,0,4.33,1.94,4.33,4.33v4.65c0,2.39-1.94,4.33-4.33,4.33s-4.33-1.94-4.33-4.33v-4.65c0-2.39,1.94-4.33,4.33-4.33Zm0,12.36c1.86,0,3.37-1.51,3.37-3.37v-4.65c0-1.86-1.51-3.37-3.37-3.37s-3.37,1.51-3.37,3.37v4.65c0,1.86,1.51,3.37,3.37,3.37Z"/>
      </g>
      <path class="cls-38" d="m312.21,443.68h27.36s27.36,0,27.36,0c10.59-10.28,17.42-26.68,17.42-46.22,0-33.51-20.05-63.56-44.78-63.56s-44.78,30.05-44.78,63.56c0,19.55,6.82,35.95,17.42,46.22Z"/>
      <path class="cls-20" d="m312.21,445.12h27.36s27.36,0,27.36,0c.38,0,.74-.15,1.01-.41,5.09-4.94,9.21-11.13,12.2-18.18-.15-.9-.29-1.82-.42-2.78-3.04,7.95-7.43,14.72-12.79,19.92h-27.36s-27.36,0-27.36,0c-5.36-5.2-9.75-11.97-12.79-19.92-.13.95-.27,1.88-.42,2.78,2.99,7.05,7.11,13.24,12.2,18.18.27.26.63.41,1.01.41Z"/>
      <path class="cls-59" d="m311.86,443.33l4.17-4.79.33-.32c.1.11.2.21.31.32h45.8s4.46,5.14,4.46,5.14h-54.72c-.12-.11-.23-.23-.35-.35Z"/>
      <path class="cls-55" d="m302.09,398.25c0-29.21,16.78-55.4,37.48-55.4s37.48,26.19,37.48,55.4c0,17.04-5.72,31.34-14.58,40.29h-45.8c-.11-.11-.21-.21-.31-.32-8.69-8.98-14.27-23.14-14.27-39.97Z"/>
      <path class="cls-38" d="m280.83,498.08c2.04,7.46,3.94,12.04,10.59,12.04h48.15s48.15,0,48.15,0c6.65,0,8.56-4.58,10.59-12.04l1.44-22.15c0-6.65-2.25-15.89-12.2-14.28,0,0-28.98,3.85-45.1,3.85-.93,0-1.89,0-2.89-.01-.99,0-1.96.01-2.89.01-16.12,0-45.1-3.85-45.1-3.85-9.95-1.61-12.2,7.64-12.2,14.28l1.44,22.15Z"/>
      <path class="cls-55" d="m286.64,497.36c1.83,6.41,3.55,10.35,9.54,10.35h43.38s43.38,0,43.38,0c5.99,0,7.71-3.93,9.54-10.35l1.3-19.04c0-5.72-2.03-13.66-10.99-12.28,0,0-26.11,3.31-40.64,3.31-.84,0-1.71,0-2.6-.01-.9,0-1.77.01-2.6.01-14.52,0-40.64-3.31-40.64-3.31-8.97-1.38-10.99,6.57-10.99,12.28l1.3,19.04Z"/>
      <g>
        <g>
          <path class="cls-20" d="m339.57,483.85c-3.21,0-5.81,2.6-5.81,5.81s2.6,5.81,5.81,5.81,5.81-2.6,5.81-5.81-2.6-5.81-5.81-5.81Z"/>
          <path class="cls-40" d="m339.57,483.4c3.45,0,6.26,2.81,6.26,6.26s-2.81,6.26-6.26,6.26-6.26-2.81-6.26-6.26,2.81-6.26,6.26-6.26Zm0,.91c-2.95,0-5.35,2.4-5.35,5.35s2.4,5.35,5.35,5.35,5.35-2.4,5.35-5.35-2.4-5.35-5.35-5.35Z"/>
        </g>
        <g>
          <path class="cls-7" d="m339.57,485.62c-2.23,0-4.04,1.81-4.04,4.04s1.81,4.04,4.04,4.04,4.04-1.81,4.04-4.04-1.81-4.04-4.04-4.04Z"/>
          <path class="cls-56" d="m339.57,485.16c2.48,0,4.49,2.02,4.49,4.49s-2.02,4.5-4.49,4.5-4.5-2.02-4.5-4.5,2.02-4.49,4.5-4.49Zm0,.91c-1.98,0-3.59,1.61-3.59,3.58s1.61,3.58,3.59,3.58,3.58-1.61,3.58-3.58-1.61-3.58-3.58-3.58Z"/>
        </g>
        <path class="cls-56" d="m343.25,488h-7.35c.63-1.4,2.04-2.38,3.68-2.38s3.04.98,3.68,2.38Z"/>
      </g>
      <g>
        <circle class="cls-42" cx="314.23" cy="42.82" r="19"/>
        <circle class="cls-41" cx="314.23" cy="42.82" r="16.83"/>
        <path class="cls-34" d="m299.72,51.32c2.92,4.98,8.32,8.33,14.51,8.33,6.19,0,11.59-3.35,14.51-8.33h-29.02Z"/>
        <g>
          <path class="cls-11" d="m310.51,13.74c0-1.35.88-2.44,1.97-2.43h4.06c1.08,0,1.96,1.1,1.96,2.45l-.05,27.14c0,1.35-.88,2.44-1.97,2.43h-4.06c-1.09-.01-1.96-1.1-1.96-2.45l.05-27.14Z"/>
          <path class="cls-58" d="m311.39,14.72c0-1.25.64-2.25,1.42-2.25h2.93c.78,0,1.42,1.02,1.42,2.26l-.05,25.11c0,1.24-.64,2.25-1.42,2.25h-2.93c-.78,0-1.42-1.02-1.41-2.26l.05-25.11Z"/>
          <path class="cls-28" d="m312.5,14.72c0-1.25.4-2.26.88-2.25h1.8c.48,0,.87,1.01.87,2.26l-.05,25.11c0,1.25-.4,2.26-.88,2.25h-1.8c-.48,0-.87-1.02-.87-2.26l.05-25.11Z"/>
        </g>
      </g>
      <g>
        <rect class="cls-42" x="328.37" y="6.45" width="8.52" height="10.65"/>
        <rect class="cls-41" x="330.32" y="6.45" width="4.62" height="9.43"/>
        <rect class="cls-34" x="331.56" y="6.45" width="2.13" height="9.43"/>
        <g>
          <rect class="cls-42" x="325.69" y="16.49" width="14" height="5.17"/>
          <rect class="cls-41" x="327.82" y="16.49" width="9.74" height="4.41"/>
          <rect class="cls-34" x="331.01" y="16.49" width="3.35" height="4.41"/>
        </g>
      </g>
      <g>
        <rect class="cls-42" x="293.09" y="6.45" width="8.52" height="10.65"/>
        <rect class="cls-41" x="295.03" y="6.45" width="4.62" height="9.43"/>
        <rect class="cls-34" x="296.28" y="6.45" width="2.13" height="9.43"/>
        <g>
          <rect class="cls-42" x="290.4" y="16.49" width="14" height="5.17"/>
          <rect class="cls-41" x="292.54" y="16.49" width="9.74" height="4.41"/>
          <rect class="cls-34" x="295.73" y="16.49" width="3.35" height="4.41"/>
        </g>
      </g>
      <path class="cls-48" d="m0,188.32h13.43s0-174.42,0-174.42h387.82c3.19,0,5.78,2.59,5.78,5.78v493.07H13.43v-173.92s-13.43,0-13.43,0v187.82s420.46,0,420.46,0V0S0,0,0,0v188.32Z"/>
      <g>
        <g>
          <rect class="cls-47" x="6.71" y="201.93" width="7.53" height="4.15"/>
          <path class="cls-5" d="m14.25,201.93c-1.56,0-2.82,1.26-2.82,2.82v19.26c0,1.56,1.26,2.82,2.82,2.82h0c1.56,0,2.82-1.26,2.82-2.82v-19.26c0-1.56-1.26-2.82-2.82-2.82h0Z"/>
          <path class="cls-33" d="m14.25,201.93c-.65,0-1.17,1.21-1.17,2.71v18.53c0,1.5.52,2.71,1.17,2.71h0c.65,0,1.17-1.21,1.17-2.71v-18.53c0-1.5-.52-2.71-1.17-2.71h0Z"/>
        </g>
        <polygon class="cls-22" points="13.43 192.38 7.89 192.38 7.89 333.14 13.43 333.14 13.43 342.19 0 342.19 0 183.33 13.43 183.33 13.43 192.38"/>
      </g>
      <g id="t-paper">
        <g>
          <path class="cls-5" d="m24.85,420.3h-10.3v-4.8h10.3c.26,0,.48-.22.48-.48v-43.16c0-.26-.22-.48-.48-.48h-10.77v-4.8h10.77c2.91,0,5.28,2.37,5.28,5.28v43.16c0,2.91-2.37,5.27-5.28,5.27Z"/>
          <path class="cls-40" d="m24.85,418.38h-10.3v-.96h10.3c1.32,0,2.4-1.08,2.4-2.4v-43.16c0-1.32-1.08-2.4-2.4-2.4h-10.77v-.96h10.77c1.85,0,3.36,1.51,3.36,3.36v43.16c0,1.85-1.51,3.36-3.36,3.36Z"/>
        </g>
        <rect class="cls-10" x="16.12" y="378.43" width="23.22" height="30.79"/>
        <rect class="cls-3" x="19.5" y="378.43" width="16.45" height="30.79"/>
      </g>
      <g>
        <path class="cls-16" d="m41.73,491.97c-9.06,0-16.4-7.34-16.4-16.4s7.34-16.4,16.4-16.4c9.06,0,16.4,7.34,16.4,16.4s-7.34,16.4-16.4,16.4Z"/>
        <path class="cls-10" d="m41.73,489.6c-7.75,0-14.03-6.28-14.03-14.03s6.28-14.03,14.03-14.03c7.75,0,14.03,6.28,14.03,14.03s-6.28,14.03-14.03,14.03Z"/>
        <path class="cls-3" d="m41.73,485.29c-5.36,0-9.71-4.35-9.71-9.71s4.35-9.71,9.71-9.71,9.71,4.35,9.71,9.71-4.35,9.71-9.71,9.71Z"/>
        <path class="cls-7" d="m41.73,477.32c-5.36,0-9.71-.78-9.71-1.75s4.35-1.75,9.71-1.75,9.71.78,9.71,1.75-4.35,1.75-9.71,1.75Z"/>
      </g>
      <g>
        <path class="cls-5" d="m396.42,270.73h10.3v7.51h-10.3c-.26,0-.48.34-.48.75v67.59c0,.41.22.75.48.75h10.77v7.51h-10.77c-2.91,0-5.28-3.71-5.28-8.26v-67.59c0-4.56,2.37-8.26,5.28-8.26Z"/>
        <path class="cls-40" d="m396.42,273.73h10.3v1.5h-10.3c-1.32,0-2.4,1.68-2.4,3.75v67.59c0,2.07,1.08,3.76,2.4,3.76h10.77v1.5h-10.77c-1.85,0-3.36-2.36-3.36-5.26v-67.59c0-2.9,1.51-5.26,3.36-5.26Z"/>
      </g>
      <g>
        <path class="cls-16" d="m252.23,48.72c-9.06,0-16.4-7.34-16.4-16.4,0-9.06,7.34-16.4,16.4-16.4,9.06,0,16.4,7.34,16.4,16.4,0,9.06-7.34,16.4-16.4,16.4Z"/>
        <path class="cls-10" d="m252.23,46.35c-7.75,0-14.03-6.28-14.03-14.03s6.28-14.03,14.03-14.03,14.03,6.28,14.03,14.03-6.28,14.03-14.03,14.03Z"/>
        <path class="cls-3" d="m252.23,42.04c-5.36,0-9.71-4.35-9.71-9.71s4.35-9.71,9.71-9.71,9.71,4.35,9.71,9.71-4.35,9.71-9.71,9.71Z"/>
        <path class="cls-7" d="m252.23,34.07c-5.36,0-9.71-.78-9.71-1.75s4.35-1.75,9.71-1.75,9.71.78,9.71,1.75-4.35,1.75-9.71,1.75Z"/>
      </g>
      <g id="t-paper-2" data-name="t-paper">
        <g>
          <path class="cls-5" d="m403.09,193.02v10.45h-6.68v-10.45c0-.27-.3-.49-.67-.49h-60.15c-.37,0-.67.22-.67.49v10.93h-6.68v-10.93c0-2.95,3.3-5.35,7.35-5.35h60.15c4.05,0,7.35,2.4,7.35,5.35Z"/>
          <path class="cls-40" d="m400.41,193.02v10.45h-1.34v-10.45c0-1.34-1.5-2.43-3.34-2.43h-60.15c-1.84,0-3.34,1.09-3.34,2.43v10.93h-1.34v-10.93c0-1.88,2.1-3.41,4.68-3.41h60.15c2.58,0,4.68,1.53,4.68,3.41Z"/>
        </g>
        <rect class="cls-10" x="344.73" y="178.32" width="42.91" height="23.56"/>
        <rect class="cls-3" x="344.73" y="181.75" width="42.91" height="16.69"/>
      </g>
      <g>
        <rect class="cls-6" x="108.23" y="314.32" width="100" height="100"/>
        <g class="cls-45">
          <polygon class="cls-4" points="113.64 335.24 187.57 409.18 202.83 409.18 113.64 319.99 113.64 335.24"/>
          <polygon class="cls-4" points="113.64 409.18 174.39 409.18 113.64 348.42 113.64 409.18"/>
        </g>
      </g>
      <g>
        <rect class="cls-6" x="108.23" y="415.32" width="100" height="97"/>
        <g class="cls-45">
          <polygon class="cls-4" points="113.64 435.61 187.57 507.33 202.83 507.33 113.64 420.82 113.64 435.61"/>
          <polygon class="cls-4" points="113.64 507.33 174.39 507.33 113.64 448.4 113.64 507.33"/>
        </g>
      </g>
      <g class="cls-18">
        <g>
          <rect class="cls-53" x="235.42" y="195.17" width="2.27" height="9.38"/>
          <path class="cls-12" d="m235.42,195.17c0,1.94.69,3.51,1.54,3.51h10.55c.85,0,1.54-1.57,1.54-3.51h0c0-1.94-.69-3.51-1.54-3.51h-10.55c-.85,0-1.54,1.57-1.54,3.51h0Z"/>
          <path class="cls-29" d="m235.42,195.17c0,.8.67,1.46,1.49,1.46h10.15c.82,0,1.49-.65,1.49-1.46h0c0-.8-.67-1.46-1.49-1.46h-10.15c-.82,0-1.49.65-1.49,1.46h0Z"/>
        </g>
        <polygon class="cls-30" points="230.19 196.19 230.19 203.08 307.27 203.08 307.27 196.19 312.23 196.19 312.23 212.91 225.23 212.91 225.23 196.19 230.19 196.19"/>
      </g>
      <rect class="cls-48" x="312.23" y="200.32" width="99.28" height="13" transform="translate(723.74 413.65) rotate(-180)"/>
    </g>
  </g>
</svg>