<?xml version="1.0" encoding="UTF-8"?>
<svg id="Layer_1" data-name="Layer 1" xmlns="http://www.w3.org/2000/svg" xmlns:xlink="http://www.w3.org/1999/xlink" viewBox="0 0 335.7 281.09">
  <defs>
    <style>
      .cls-1 {
        fill: #d6d7d8;
      }

      .cls-2 {
        fill: #cfd0d2;
      }

      .cls-3 {
        fill: url(#linear-gradient-2);
      }

      .cls-4 {
        opacity: .3;
      }

      .cls-4, .cls-5, .cls-6, .cls-7, .cls-8, .cls-9 {
        isolation: isolate;
      }

      .cls-4, .cls-10, .cls-9 {
        fill: url(#Alyssa);
      }

      .cls-11, .cls-5 {
        fill: #fff;
      }

      .cls-12 {
        fill: #dddedf;
      }

      .cls-13 {
        fill: #4c4c4c;
      }

      .cls-14 {
        fill: #d1cfcf;
      }

      .cls-15 {
        opacity: .46;
      }

      .cls-16 {
        fill: #c0c1c2;
      }

      .cls-17 {
        fill: #e2e2e2;
      }

      .cls-18 {
        opacity: .24;
      }

      .cls-19 {
        fill: #8d9092;
      }

      .cls-20 {
        fill: #bbb9b9;
      }

      .cls-21 {
        opacity: .41;
      }

      .cls-22 {
        fill: #b4b4b6;
      }

      .cls-5, .cls-7, .cls-8, .cls-23, .cls-9 {
        opacity: .1;
      }

      .cls-24 {
        fill: #f8a8b3;
      }

      .cls-6 {
        fill: #48423b;
        opacity: .2;
      }

      .cls-25 {
        fill: #a6d0e4;
      }

      .cls-26 {
        fill: #d1d1d2;
      }

      .cls-27 {
        fill: #b0b2b3;
        stroke: #9a9c9e;
        stroke-miterlimit: 10;
        stroke-width: 1.13px;
      }

      .cls-28 {
        fill: #9b9ca0;
      }

      .cls-29 {
        opacity: .33;
      }

      .cls-7, .cls-30 {
        fill: #e0eea8;
      }

      .cls-8, .cls-31 {
        fill: #cf9;
      }

      .cls-32 {
        fill: #ebebeb;
      }

      .cls-33 {
        fill: none;
      }

      .cls-34 {
        fill: #979594;
      }

      .cls-35 {
        fill: #b6b7b9;
      }

      .cls-36 {
        fill: #9b9c9f;
      }

      .cls-37 {
        opacity: .97;
      }

      .cls-38 {
        fill: #babcbe;
      }

      .cls-39 {
        opacity: .39;
      }

      .cls-40 {
        fill: #c6dd7f;
      }

      .cls-41 {
        fill: #b3b3b3;
      }

      .cls-42 {
        fill: #d6d5d5;
      }

      .cls-43 {
        fill: url(#linear-gradient-3);
      }

      .cls-44 {
        fill: #dfe2e1;
      }

      .cls-45 {
        fill: url(#linear-gradient);
      }

      .cls-46 {
        fill: #eee;
      }

      .cls-47 {
        fill: url(#linear-gradient-4);
      }

      .cls-48 {
        fill: #f8f9f9;
      }

      .cls-49 {
        fill: #e9ddb7;
      }

      .cls-50 {
        fill: #8a8887;
      }

      .cls-51 {
        fill: #a5a8aa;
      }

      .cls-52 {
        fill: #98999c;
      }

      .cls-53 {
        fill: #cccdd1;
      }
    </style>
    <pattern id="Alyssa" x="0" y="0" width="144.13" height="138.36" patternTransform="translate(-597.7 16424.87)" patternUnits="userSpaceOnUse" viewBox="0 0 144.13 138.36">
      <g>
        <rect class="cls-33" y="0" width="144.13" height="138.36"/>
        <g>
          <rect class="cls-33" y="0" width="144.13" height="138.36"/>
          <g>
            <rect class="cls-33" y="0" width="144.13" height="138.36"/>
            <path class="cls-40" d="m211.07,158.52c-11.76-1.38-19.37.35-22.65,3.11-3.02,2.54-4.96,5.41-2.25,11.93,2.94,7.09,1.53,14.73-5.54,15.91-6.22,1.04-10.89-4.84-11.24-12.28-.24-5.18-1.9-8.3-5.53-7.61s-4.63,5.9-3.63,11.76c1.38,8.13,5.54,11.76,6.23,20.23.49,6.05-2.94,13.66-12.45,15.04-9.3,1.35-15.91-4.32-16.6-10.55-.73-6.59,3.63-10.89,3.11-17.64s-4.01-10.17-5.88-17.29c-2.77-10.55,1.21-19.02,7.78-22.65,14.75-8.15,22.83,3.64,35.97,1.56,10.9-1.73,23.35-18.16,33.03-19.54,8.23-1.17,13.83,4.67,15.04,14.01,1.21,9.34-4.74,15.26-15.39,14.01h0Zm-42.2.52c0-2.29-1.86-4.15-4.15-4.15s-4.15,1.86-4.15,4.15,1.86,4.15,4.15,4.15,4.15-1.86,4.15-4.15Zm49.46-15.39c0-.96-.78-1.73-1.73-1.73s-1.73.77-1.73,1.73.77,1.73,1.73,1.73,1.73-.77,1.73-1.73Z"/>
            <g>
              <path class="cls-49" d="m48.83,139.33c0,7.17,4.59,13.81-1,16.33-8.5,3.83-28-14.33-28-36.17,0-12,8.67-19,17.83-19,12.33,0,18,8.17,18,17.5s-6.83,13.14-6.83,21.33h0Zm-5.41-5.37c0-1.15-.93-2.08-2.07-2.08s-2.08.93-2.08,2.08.93,2.08,2.08,2.08,2.07-.93,2.07-2.08Z"/>
              <path class="cls-25" d="m123.53,162.83c-7.87,2.74-19.44-15.3-17.67-27.02,1.24-8.23,7.12-13.19,13.09-14.22,7.53-1.3,12.9,2.6,13.3,7.24.55,6.31-3.63,7.52-4.22,14.96-.56,7.13,3.69,16.19-4.49,19.03h-.01Zm-3.79-27.51c0-1.43-1.16-2.59-2.59-2.59s-2.59,1.16-2.59,2.59,1.16,2.59,2.59,2.59,2.59-1.16,2.59-2.59Z"/>
              <path class="cls-49" d="m19.39,140.36c0,1.43-1.16,2.59-2.59,2.59s-2.59-1.16-2.59-2.59,1.16-2.59,2.59-2.59,2.59,1.16,2.59,2.59Z"/>
              <path class="cls-25" d="m84.61,132.64c.74,8.1,12.67,7.02,17.9,14.21,10.52,14.47-1.22,46.37-21.63,46.37-11.74,0-24.22-9.72-24.22-29.22,0-15.83,10.17-21.5,8.25-42.17-1.01-10.83-12.5-20.34-12.5-34.75,0-5.92,3.59-13.45,11.55-13.45,7.05,0,10.82,5.95,10.82,12.9s-5.38,15.74,1.37,19.05c5.24,2.57,13.21-4.77,19.5-6.75,5.19-1.64,12.39.22,14.75,8.5,2.53,8.88-3.25,14.75-11.59,16.69-6.32,1.48-14.8,2.17-14.21,8.61h.01Zm-15.98-30.56c0-1.82-1.47-3.29-3.29-3.29s-3.29,1.47-3.29,3.29,1.47,3.29,3.29,3.29,3.29-1.47,3.29-3.29Zm25.98,9.7c1.29,0,2.33-1.04,2.33-2.33s-1.04-2.33-2.33-2.33-2.33,1.04-2.33,2.33,1.04,2.33,2.33,2.33Zm-19.98,59.67c0-1.82-1.47-3.29-3.29-3.29s-3.29,1.47-3.29,3.29,1.47,3.29,3.29,3.29,3.29-1.47,3.29-3.29Z"/>
              <path class="cls-40" d="m66.94,158.52c-11.76-1.38-19.37.35-22.65,3.11-3.02,2.54-4.95,5.41-2.25,11.93,2.94,7.09,1.53,14.73-5.54,15.91-6.22,1.04-10.89-4.84-11.24-12.28-.24-5.18-1.9-8.3-5.53-7.61s-4.63,5.9-3.63,11.76c1.38,8.13,5.54,11.76,6.23,20.23.49,6.05-2.94,13.66-12.45,15.04-9.3,1.35-15.91-4.32-16.6-10.55-.73-6.59,3.63-10.89,3.11-17.64-.52-6.75-4.01-10.17-5.88-17.29-2.77-10.55,1.21-19.02,7.78-22.65,14.75-8.15,22.83,3.64,35.97,1.56,10.9-1.73,23.35-18.16,33.03-19.54,8.23-1.17,13.83,4.67,15.04,14.01s-4.74,15.26-15.39,14.01h0Zm-42.2.52c0-2.29-1.86-4.15-4.15-4.15s-4.15,1.86-4.15,4.15,1.86,4.15,4.15,4.15,4.15-1.86,4.15-4.15Zm49.46-15.39c0-.96-.78-1.73-1.73-1.73s-1.73.77-1.73,1.73.77,1.73,1.73,1.73,1.73-.77,1.73-1.73Z"/>
            </g>
            <g>
              <path class="cls-25" d="m190.32,111.99c0,6.23-4.15,10.72-8.65,11.59s-8.32-1.28-12.97,1.21c-4.84,2.59-7.09,11.07-16.78,11.07-7.96,0-15.22-7.96-15.22-18.85,0-20.23,13.14-29.23,25.59-29.23,16.6,0,28.02,12.62,28.02,24.21h0Zm-19.71-14.35c0-2.1-1.7-3.8-3.8-3.8s-3.8,1.7-3.8,3.8,1.7,3.8,3.8,3.8,3.8-1.7,3.8-3.8Z"/>
              <path class="cls-40" d="m211.07,20.16c-11.76-1.38-19.37.35-22.65,3.11-3.02,2.54-4.96,5.41-2.25,11.93,2.94,7.09,1.53,14.73-5.54,15.91-6.22,1.04-10.89-4.84-11.24-12.28-.24-5.18-1.9-8.3-5.53-7.61s-4.63,5.9-3.63,11.76c1.38,8.13,5.54,11.76,6.23,20.23.49,6.05-2.94,13.66-12.45,15.04-9.3,1.35-15.91-4.32-16.6-10.55-.73-6.59,3.63-10.89,3.11-17.64s-4.01-10.17-5.88-17.29c-2.77-10.55,1.21-19.02,7.78-22.65,14.75-8.15,22.83,3.64,35.97,1.56,10.9-1.73,23.35-18.16,33.03-19.54,8.23-1.17,13.83,4.67,15.04,14.01,1.21,9.34-4.74,15.26-15.39,14.01h0Zm-42.2.52c0-2.29-1.86-4.15-4.15-4.15s-4.15,1.86-4.15,4.15,1.86,4.15,4.15,4.15,4.15-1.86,4.15-4.15Zm49.46-15.39c0-.96-.78-1.73-1.73-1.73s-1.73.77-1.73,1.73.77,1.73,1.73,1.73,1.73-.77,1.73-1.73Z"/>
            </g>
            <g>
              <path class="cls-25" d="m31.83,83.64c-13.96,1.99-21.17-13.33-17.67-20.33,3.67-7.33,12.12-4.17,19.5-4.17,9.67,0,16.37-7.57,20.42-2.25,4.25,5.58-5.01,24.29-22.25,26.75Zm.52-17.48c0-1.24-1.01-2.25-2.25-2.25s-2.25,1.01-2.25,2.25,1.01,2.25,2.25,2.25,2.25-1.01,2.25-2.25Z"/>
              <path class="cls-49" d="m48.83.97c0,7.17,4.59,13.81-1,16.33-8.5,3.83-28-14.33-28-36.17,0-12,8.67-19,17.83-19,12.33,0,18,8.17,18,17.5s-6.83,13.14-6.83,21.33h0Zm-5.41-5.37c0-1.15-.93-2.08-2.07-2.08s-2.08.93-2.08,2.08.93,2.08,2.08,2.08,2.07-.93,2.07-2.08Z"/>
              <path class="cls-25" d="m46.19,111.99c0,6.23-4.15,10.72-8.65,11.59-4.5.87-8.32-1.28-12.97,1.21-4.84,2.59-7.09,11.07-16.77,11.07-7.96,0-15.22-7.96-15.22-18.85,0-20.23,13.14-29.23,25.59-29.23,16.6,0,28.02,12.62,28.02,24.21Zm-19.71-14.35c0-2.1-1.7-3.8-3.8-3.8s-3.8,1.7-3.8,3.8,1.7,3.8,3.8,3.8,3.8-1.7,3.8-3.8Z"/>
              <path class="cls-40" d="m45.5,88.3c0,1.34-1.08,2.42-2.42,2.42s-2.42-1.08-2.42-2.42,1.08-2.42,2.42-2.42,2.42,1.08,2.42,2.42Z"/>
              <path class="cls-25" d="m129.2,69.79c-3.19,4.68,1.04,10.72-1.38,15.22-2.42,4.5-6.74,5.02-9.86,2.6-3.63-2.83-3.41-6.64-8.3-8.82-5.53-2.46-17.98,2.25-19.71-7.26-.87-4.81,2.37-8.57,7.26-9.68,6.05-1.38,9.35-.18,15.39-3.11,6.05-2.94,11.24-8.99,22.14-12.11,10.41-2.97,16.07,1.56,16.6,5.88,1.04,8.47-17.13,9.95-22.14,17.29h0Zm-2.25-7.44c0-1.24-1.01-2.25-2.25-2.25s-2.25,1.01-2.25,2.25,1.01,2.25,2.25,2.25,2.25-1.01,2.25-2.25Z"/>
              <path class="cls-49" d="m156.17,108.97c0,17.17-14.5,25.5-27,22.83-10.26-2.19-12.83-17.33-16.67-26.17-3.71-8.56-8.83-22.5-20.17-22.5s-12.83,14.5-23.67,14.5-24.5-15.67-24.5-39.67c0-14.67,9.8-31.46,20.83-30.67,11.67.83,4.5,19.67,15.33,19.67,9.5,0,7.86-16.26,9.17-23.33,1.67-9,6.83-14.17,18.5-13.17,14.44,1.24,22.33,13.5,18.87,23.34-4.03,11.45-23.87,17.32-21.54,30.49,1.35,7.59,13,12,26,16.17,14.53,4.66,24.83,11.33,24.83,28.5h.02,0Zm-44.95-75.84c0,1.82,1.47,3.29,3.29,3.29s3.29-1.47,3.29-3.29-1.47-3.29-3.29-3.29-3.29,1.47-3.29,3.29Zm-46.69,24.9c0-.96-.77-1.73-1.73-1.73s-1.73.78-1.73,1.73.78,1.73,1.73,1.73,1.73-.77,1.73-1.73Zm17.47,10.72c0-2.1-1.7-3.8-3.8-3.8s-3.8,1.7-3.8,3.8,1.71,3.8,3.8,3.8,3.8-1.7,3.8-3.8Zm19.89-15.56c0-.86-.7-1.56-1.56-1.56s-1.56.7-1.56,1.56.7,1.56,1.56,1.56,1.56-.7,1.56-1.56Zm29.64,54.69c0-1.75-1.42-3.17-3.17-3.17s-3.17,1.42-3.17,3.17,1.42,3.17,3.17,3.17,3.17-1.42,3.17-3.17Z"/>
              <path class="cls-25" d="m123.53,24.47c-7.87,2.74-19.44-15.3-17.67-27.02,1.24-8.23,7.12-13.19,13.09-14.22,7.53-1.3,12.9,2.6,13.3,7.24.55,6.31-3.63,7.52-4.22,14.96-.56,7.13,3.69,16.19-4.49,19.03h-.01Zm-3.79-27.51c0-1.43-1.16-2.59-2.59-2.59s-2.59,1.16-2.59,2.59,1.16,2.59,2.59,2.59,2.59-1.16,2.59-2.59Z"/>
              <path class="cls-49" d="m19.39,2c0,1.43-1.16,2.59-2.59,2.59s-2.59-1.16-2.59-2.59,1.16-2.59,2.59-2.59,2.59,1.16,2.59,2.59Z"/>
              <path class="cls-49" d="m153.38,88.74c0-8.41-5.08-15.23-11.34-15.23s-11.34,6.82-11.34,15.23,5.08,12.44,11.34,12.44,11.34-4.03,11.34-12.44Z"/>
              <path class="cls-25" d="m84.61-5.72c.74,8.1,12.67,7.02,17.9,14.21,10.52,14.47-1.22,46.37-21.63,46.37-11.74,0-24.22-9.72-24.22-29.22,0-15.83,10.17-21.5,8.25-42.17-1.01-10.83-12.5-20.34-12.5-34.75,0-5.92,3.59-13.45,11.55-13.45,7.05,0,10.82,5.95,10.82,12.9s-5.38,15.74,1.37,19.05c5.24,2.57,13.21-4.77,19.5-6.75,5.19-1.64,12.39.22,14.75,8.5,2.53,8.88-3.25,14.75-11.59,16.69-6.32,1.48-14.8,2.17-14.21,8.61h.01Zm-15.98-30.56c0-1.82-1.47-3.29-3.29-3.29s-3.29,1.47-3.29,3.29,1.47,3.29,3.29,3.29,3.29-1.47,3.29-3.29Zm25.98,9.7c1.29,0,2.33-1.04,2.33-2.33s-1.04-2.33-2.33-2.33-2.33,1.04-2.33,2.33,1.04,2.33,2.33,2.33Zm-19.98,59.67c0-1.82-1.47-3.29-3.29-3.29s-3.29,1.47-3.29,3.29,1.47,3.29,3.29,3.29,3.29-1.47,3.29-3.29Z"/>
              <path class="cls-40" d="m66.94,20.16c-11.76-1.38-19.37.35-22.65,3.11-3.02,2.54-4.95,5.41-2.25,11.93,2.94,7.09,1.53,14.73-5.54,15.91-6.22,1.04-10.89-4.84-11.24-12.28-.24-5.18-1.9-8.3-5.53-7.61s-4.63,5.9-3.63,11.76c1.38,8.13,5.54,11.76,6.23,20.23.49,6.05-2.94,13.66-12.45,15.04-9.3,1.35-15.91-4.32-16.6-10.55-.73-6.59,3.63-10.89,3.11-17.64-.52-6.75-4.01-10.17-5.88-17.29-2.77-10.55,1.21-19.02,7.78-22.65,14.75-8.15,22.83,3.64,35.97,1.56,10.9-1.73,23.35-18.16,33.03-19.54,8.23-1.17,13.83,4.67,15.04,14.01s-4.74,15.26-15.39,14.01Zm-42.2.52c0-2.29-1.86-4.15-4.15-4.15s-4.15,1.86-4.15,4.15,1.86,4.15,4.15,4.15,4.15-1.86,4.15-4.15Zm49.46-15.39c0-.96-.78-1.73-1.73-1.73s-1.73.77-1.73,1.73.77,1.73,1.73,1.73,1.73-.77,1.73-1.73Z"/>
              <path class="cls-40" d="m130.24,42.47c0,.76-.62,1.38-1.38,1.38s-1.38-.62-1.38-1.38.62-1.38,1.38-1.38,1.38.62,1.38,1.38Z"/>
              <path class="cls-49" d="m135.77,4.08c0,1.24-1.01,2.25-2.25,2.25s-2.25-1.01-2.25-2.25,1.01-2.25,2.25-2.25,2.25,1.01,2.25,2.25Z"/>
              <path class="cls-25" d="m52.24,27.25c0,.67-.54,1.21-1.21,1.21s-1.21-.54-1.21-1.21.54-1.21,1.21-1.21,1.21.54,1.21,1.21Z"/>
              <path class="cls-25" d="m48.61,95.73c0,.76-.62,1.38-1.38,1.38s-1.38-.62-1.38-1.38.62-1.38,1.38-1.38,1.38.62,1.38,1.38Z"/>
              <path class="cls-49" d="m133.18,73.77c0,.67-.54,1.21-1.21,1.21s-1.21-.54-1.21-1.21.54-1.21,1.21-1.21,1.21.54,1.21,1.21Z"/>
              <path class="cls-40" d="m95.89,91.69c0,1.88-1.53,3.41-3.41,3.41s-3.41-1.53-3.41-3.41,1.53-3.41,3.41-3.41,3.41,1.53,3.41,3.41Z"/>
              <path class="cls-49" d="m100.87,131.55c0,1.16-.94,2.1-2.1,2.1s-2.1-.94-2.1-2.1.94-2.1,2.1-2.1,2.1.94,2.1,2.1Z"/>
              <path class="cls-49" d="m62.07,125.25c0,.87-.7,1.57-1.57,1.57s-1.57-.7-1.57-1.57.71-1.57,1.57-1.57,1.57.71,1.57,1.57Z"/>
              <circle class="cls-40" cx="133.12" cy="11.21" r="2.62"/>
              <circle class="cls-25" cx="123.15" cy="46.07" r="2.36"/>
              <path class="cls-49" d="m27.72,52.63c0,1.45-1.17,2.62-2.62,2.62s-2.62-1.17-2.62-2.62,1.17-2.62,2.62-2.62,2.62,1.17,2.62,2.62Z"/>
              <path class="cls-25" d="m22.74,45.55c0,.72-.59,1.31-1.31,1.31s-1.31-.59-1.31-1.31.59-1.31,1.31-1.31,1.31.59,1.31,1.31Z"/>
              <path class="cls-49" d="m86.97,97.46c0,.87-.71,1.57-1.57,1.57s-1.57-.7-1.57-1.57.7-1.57,1.57-1.57,1.57.71,1.57,1.57Z"/>
            </g>
            <g>
              <path class="cls-25" d="m-14.93,69.79c-3.19,4.68,1.04,10.72-1.38,15.22-2.42,4.5-6.74,5.02-9.86,2.6-3.63-2.83-3.41-6.64-8.3-8.82-5.53-2.46-17.98,2.25-19.71-7.26-.88-4.81,2.38-8.57,7.26-9.68,6.05-1.38,9.35-.18,15.39-3.11,6.05-2.94,11.24-8.99,22.14-12.11,10.41-2.97,16.07,1.56,16.6,5.88,1.04,8.47-17.13,9.95-22.14,17.29h0Zm-2.25-7.44c0-1.24-1.01-2.25-2.25-2.25s-2.25,1.01-2.25,2.25,1.01,2.25,2.25,2.25,2.25-1.01,2.25-2.25Z"/>
              <path class="cls-49" d="m12.04,108.97c0,17.17-14.5,25.5-27,22.83-10.26-2.19-12.83-17.33-16.67-26.17-3.71-8.56-8.83-22.5-20.17-22.5s-12.83,14.5-23.67,14.5-24.5-15.67-24.5-39.67c0-14.67,9.8-31.46,20.83-30.67,11.67.83,4.5,19.67,15.33,19.67,9.5,0,7.86-16.26,9.17-23.33,1.67-9,6.83-14.17,18.5-13.17,14.44,1.24,22.33,13.5,18.87,23.34-4.03,11.45-23.87,17.32-21.54,30.49,1.35,7.59,13,12,26,16.17,14.53,4.66,24.83,11.33,24.83,28.5h.02,0ZM-32.91,33.13c0,1.82,1.47,3.29,3.29,3.29s3.29-1.47,3.29-3.29-1.47-3.29-3.29-3.29-3.29,1.47-3.29,3.29Zm-46.69,24.9c0-.96-.77-1.73-1.73-1.73s-1.73.78-1.73,1.73.78,1.73,1.73,1.73,1.73-.77,1.73-1.73Zm17.47,10.72c0-2.1-1.7-3.8-3.8-3.8s-3.8,1.7-3.8,3.8,1.71,3.8,3.8,3.8,3.8-1.7,3.8-3.8Zm19.89-15.56c0-.86-.7-1.56-1.56-1.56s-1.56.7-1.56,1.56.7,1.56,1.56,1.56,1.56-.7,1.56-1.56Zm29.64,54.69c0-1.75-1.42-3.17-3.17-3.17s-3.17,1.42-3.17,3.17,1.42,3.17,3.17,3.17,3.17-1.42,3.17-3.17Z"/>
              <path class="cls-49" d="m9.26,88.74c0-8.41-5.08-15.23-11.34-15.23s-11.34,6.82-11.34,15.23,5.08,12.44,11.34,12.44,11.34-4.03,11.34-12.44Z"/>
            </g>
          </g>
        </g>
      </g>
    </pattern>
    <linearGradient id="linear-gradient" x1="205.33" y1="808.88" x2="210.09" y2="808.88" gradientTransform="translate(0 -658)" gradientUnits="userSpaceOnUse">
      <stop offset="0" stop-color="#ff7bac"/>
      <stop offset=".22" stop-color="#ff7bac" stop-opacity=".76"/>
      <stop offset=".6" stop-color="#ff7bac" stop-opacity=".36"/>
      <stop offset=".87" stop-color="#ff7bac" stop-opacity=".1"/>
      <stop offset="1" stop-color="#ff7bac" stop-opacity="0"/>
    </linearGradient>
    <linearGradient id="linear-gradient-2" x1="208.31" y1="813.18" x2="211.87" y2="813.18" gradientTransform="translate(0 -658)" gradientUnits="userSpaceOnUse">
      <stop offset="0" stop-color="#ff7bac"/>
      <stop offset=".22" stop-color="#ff7bac" stop-opacity=".76"/>
      <stop offset=".6" stop-color="#ff7bac" stop-opacity=".36"/>
      <stop offset=".87" stop-color="#ff7bac" stop-opacity=".1"/>
      <stop offset="1" stop-color="#ff7bac" stop-opacity="0"/>
    </linearGradient>
    <linearGradient id="linear-gradient-3" x1="209.35" y1="812.98" x2="210.83" y2="812.98" gradientTransform="translate(0 -658)" gradientUnits="userSpaceOnUse">
      <stop offset="0" stop-color="#ff7bac"/>
      <stop offset=".22" stop-color="#ff7bac" stop-opacity=".76"/>
      <stop offset=".6" stop-color="#ff7bac" stop-opacity=".36"/>
      <stop offset=".87" stop-color="#ff7bac" stop-opacity=".1"/>
      <stop offset="1" stop-color="#ff7bac" stop-opacity="0"/>
    </linearGradient>
    <linearGradient id="linear-gradient-4" x1="201.09" y1="833.21" x2="209.58" y2="833.21" gradientTransform="translate(0 -658)" gradientUnits="userSpaceOnUse">
      <stop offset="0" stop-color="#ff7bac"/>
      <stop offset=".22" stop-color="#ff7bac" stop-opacity=".76"/>
      <stop offset=".6" stop-color="#ff7bac" stop-opacity=".36"/>
      <stop offset=".87" stop-color="#ff7bac" stop-opacity=".1"/>
      <stop offset="1" stop-color="#ff7bac" stop-opacity="0"/>
    </linearGradient>
  </defs>
  <g id="Layer_1-2" data-name="Layer 1-2">
    <g>
      <rect class="cls-13" y="1.2" width="66.59" height="67.94"/>
      <g class="cls-21">
        <polygon class="cls-5" points="52.66 4.88 3.43 55.1 3.43 65.47 62.82 4.88 52.66 4.88"/>
        <polygon class="cls-5" points="3.43 4.88 3.43 46.14 43.88 4.88 3.43 4.88"/>
      </g>
    </g>
    <g>
      <rect class="cls-13" x="67.25" y="1.2" width="66.59" height="67.94"/>
      <g class="cls-21">
        <polygon class="cls-5" points="119.91 4.88 70.68 55.1 70.68 65.47 130.07 4.88 119.91 4.88"/>
        <polygon class="cls-5" points="70.68 4.88 70.68 46.14 111.13 4.88 70.68 4.88"/>
      </g>
    </g>
    <g>
      <rect class="cls-13" x="134.51" y="1.2" width="66.59" height="67.94"/>
      <g class="cls-21">
        <polygon class="cls-5" points="187.16 4.88 137.93 55.1 137.93 65.47 197.32 4.88 187.16 4.88"/>
        <polygon class="cls-5" points="137.93 4.88 137.93 46.14 178.39 4.88 137.93 4.88"/>
      </g>
    </g>
    <g>
      <rect class="cls-13" x="201.76" y="1.2" width="66.59" height="67.94"/>
      <g class="cls-21">
        <polygon class="cls-5" points="254.42 4.88 205.19 55.1 205.19 65.47 264.58 4.88 254.42 4.88"/>
        <polygon class="cls-5" points="205.19 4.88 205.19 46.14 245.65 4.88 205.19 4.88"/>
      </g>
    </g>
    <g>
      <rect class="cls-13" x="269.01" y="1.2" width="66.59" height="67.94"/>
      <g class="cls-21">
        <polygon class="cls-5" points="321.67 4.88 272.45 55.1 272.45 65.47 331.83 4.88 321.67 4.88"/>
        <polygon class="cls-5" points="272.45 4.88 272.45 46.14 312.9 4.88 272.45 4.88"/>
      </g>
    </g>
    <g>
      <rect class="cls-13" y="213.16" width="66.59" height="67.94"/>
      <g class="cls-21">
        <polygon class="cls-5" points="52.66 216.83 3.43 267.06 3.43 277.42 62.82 216.83 52.66 216.83"/>
        <polygon class="cls-5" points="3.43 216.83 3.43 258.1 43.88 216.83 3.43 216.83"/>
      </g>
    </g>
    <g>
      <rect class="cls-13" x="67.25" y="213.16" width="66.59" height="67.94"/>
      <g class="cls-21">
        <polygon class="cls-5" points="119.91 216.83 70.68 267.06 70.68 277.42 130.07 216.83 119.91 216.83"/>
        <polygon class="cls-5" points="70.68 216.83 70.68 258.1 111.13 216.83 70.68 216.83"/>
      </g>
    </g>
    <g>
      <rect class="cls-13" x="134.51" y="69.81" width="66.59" height="67.94"/>
      <g class="cls-21">
        <polygon class="cls-5" points="187.16 73.49 137.93 123.71 137.93 134.08 197.32 73.49 187.16 73.49"/>
        <polygon class="cls-5" points="137.93 73.49 137.93 114.76 178.39 73.49 137.93 73.49"/>
      </g>
    </g>
    <g>
      <rect class="cls-13" x="201.76" y="69.81" width="66.59" height="67.94"/>
      <g class="cls-21">
        <polygon class="cls-5" points="254.42 73.49 205.19 123.71 205.19 134.08 264.58 73.49 254.42 73.49"/>
        <polygon class="cls-5" points="205.19 73.49 205.19 114.76 245.65 73.49 205.19 73.49"/>
      </g>
    </g>
    <g>
      <rect class="cls-13" x="269.01" y="69.81" width="66.59" height="67.94"/>
      <g class="cls-21">
        <polygon class="cls-5" points="321.67 73.49 272.45 123.71 272.45 134.08 331.83 73.49 321.67 73.49"/>
        <polygon class="cls-5" points="272.45 73.49 272.45 114.76 312.9 73.49 272.45 73.49"/>
      </g>
    </g>
    <g>
      <rect class="cls-13" y="138.43" width="66.59" height="67.94"/>
      <g class="cls-21">
        <polygon class="cls-5" points="52.66 142.11 3.43 192.33 3.43 202.7 62.82 142.11 52.66 142.11"/>
        <polygon class="cls-5" points="3.43 142.11 3.43 183.38 43.88 142.11 3.43 142.11"/>
      </g>
    </g>
    <g>
      <rect class="cls-13" x="67.25" y="138.43" width="66.59" height="67.94"/>
      <g class="cls-21">
        <polygon class="cls-5" points="119.91 142.11 70.68 192.33 70.68 202.7 130.07 142.11 119.91 142.11"/>
        <polygon class="cls-5" points="70.68 142.11 70.68 183.38 111.13 142.11 70.68 142.11"/>
      </g>
    </g>
    <g>
      <rect class="cls-13" x="134.51" y="138.43" width="66.59" height="67.94"/>
      <g class="cls-21">
        <polygon class="cls-5" points="187.16 142.11 137.93 192.33 137.93 202.7 197.32 142.11 187.16 142.11"/>
        <polygon class="cls-5" points="137.93 142.11 137.93 183.38 178.39 142.11 137.93 142.11"/>
      </g>
    </g>
    <g class="cls-29">
      <rect class="cls-31" x="201.75" y="138.43" width="65.07" height="67.94"/>
      <g class="cls-21">
        <polygon class="cls-8" points="253.2 142.11 205.1 192.33 205.1 202.7 263.13 142.11 253.2 142.11"/>
        <polygon class="cls-8" points="205.1 142.11 205.1 183.38 244.63 142.11 205.1 142.11"/>
      </g>
    </g>
    <g class="cls-18">
      <rect class="cls-10" x="267.47" y="138.43" width="65.07" height="67.94"/>
      <g class="cls-21">
        <polygon class="cls-9" points="318.92 142.11 270.81 192.33 270.81 202.7 328.85 142.11 318.92 142.11"/>
        <polygon class="cls-9" points="270.81 142.11 270.81 183.38 310.34 142.11 270.81 142.11"/>
      </g>
    </g>
    <g>
      <rect class="cls-13" y="207.05" width="66.59" height="67.94"/>
      <g class="cls-21">
        <polygon class="cls-5" points="52.66 210.72 3.43 260.95 3.43 271.31 62.82 210.72 52.66 210.72"/>
        <polygon class="cls-5" points="3.43 210.72 3.43 251.99 43.88 210.72 3.43 210.72"/>
      </g>
    </g>
    <g>
      <rect class="cls-13" x="67.25" y="207.05" width="66.59" height="67.94"/>
      <g class="cls-21">
        <polygon class="cls-5" points="119.91 210.72 70.68 260.95 70.68 271.31 130.07 210.72 119.91 210.72"/>
        <polygon class="cls-5" points="70.68 210.72 70.68 251.99 111.13 210.72 70.68 210.72"/>
      </g>
    </g>
    <g>
      <rect class="cls-13" x="134.51" y="207.05" width="66.59" height="74.05"/>
      <g class="cls-21">
        <polygon class="cls-5" points="187.16 211.05 137.93 265.79 137.93 277.09 197.32 211.05 187.16 211.05"/>
        <polygon class="cls-5" points="137.93 211.05 137.93 256.03 178.39 211.05 137.93 211.05"/>
      </g>
    </g>
    <g class="cls-15">
      <rect class="cls-30" x="201.75" y="207.05" width="65.07" height="74.05"/>
      <g class="cls-21">
        <polygon class="cls-7" points="253.2 211.05 205.1 265.79 205.1 277.09 263.13 211.05 253.2 211.05"/>
        <polygon class="cls-7" points="205.1 211.05 205.1 256.03 244.63 211.05 205.1 211.05"/>
      </g>
    </g>
    <g class="cls-39">
      <rect class="cls-10" x="267.47" y="207.05" width="65.07" height="74.05"/>
      <g class="cls-23">
        <polygon class="cls-4" points="318.92 211.05 270.81 265.79 270.81 277.09 328.85 211.05 318.92 211.05"/>
        <polygon class="cls-4" points="270.81 211.05 270.81 256.03 310.34 211.05 270.81 211.05"/>
      </g>
    </g>
    <rect class="cls-41" x="201.09" y="138.37" width="133.11" height="2.46"/>
    <g>
      <path class="cls-48" d="m262.64,134.47c-.56,0-1.01-.41-1.01-.92V3.5c0-.51.45-.92,1.01-.92h70.95c.56,0,1.01.41,1.01.92v130.05c0,.51-.45.92-1.01.92h-70.95Z"/>
      <path class="cls-2" d="m261.11,133.54V3.5c0-.76.68-1.39,1.52-1.39h70.95c.84,0,1.52.62,1.52,1.39v130.05c0,.76-.68,1.39-1.52,1.39h-70.95c-.84,0-1.52-.62-1.52-1.39h0ZM334.09,3.5c0-.25-.23-.47-.51-.47h-70.95c-.28,0-.51.2-.51.47v130.05c0,.25.23.47.51.47h70.95c.28,0,.51-.2.51-.47V3.5Z"/>
    </g>
    <g>
      <ellipse class="cls-42" cx="294.11" cy="73.22" rx="29.16" ry="29.76"/>
      <path class="cls-11" d="m264.38,73.22c0-16.72,13.33-30.33,29.73-30.33s29.73,13.61,29.73,30.33-13.33,30.33-29.73,30.33-29.73-13.61-29.73-30.33Zm58.34,0c0-16.09-12.83-29.18-28.61-29.18s-28.61,13.09-28.61,29.18,12.83,29.18,28.61,29.18,28.61-13.09,28.61-29.18Z"/>
    </g>
    <ellipse class="cls-48" cx="294.11" cy="73.22" rx="24.11" ry="24.6"/>
    <path class="cls-44" d="m279.79,73.22c0-11.88,8.25-21.78,19.22-24.09-1.58-.33-3.21-.51-4.89-.51-13.32,0-24.11,11.02-24.11,24.6s10.79,24.6,24.11,24.6c1.68,0,3.32-.18,4.89-.51-10.97-2.31-19.22-12.21-19.22-24.09Z"/>
    <g>
      <g>
        <path class="cls-38" d="m297.81,73.22c0-2.09-1.66-3.78-3.7-3.78s-3.7,1.69-3.7,3.78,1.66,3.78,3.7,3.78,3.7-1.69,3.7-3.78Z"/>
        <path class="cls-51" d="m298.11,73.22c0,2.25-1.79,4.08-3.99,4.08s-3.99-1.82-3.99-4.08,1.79-4.08,3.99-4.08,3.99,1.82,3.99,4.08Zm-.58,0c0-1.93-1.53-3.48-3.41-3.48s-3.41,1.56-3.41,3.48,1.53,3.48,3.41,3.48,3.41-1.56,3.41-3.48Z"/>
      </g>
      <g>
        <path class="cls-1" d="m296.69,73.22c0-1.45-1.15-2.63-2.57-2.63s-2.57,1.17-2.57,2.63,1.15,2.63,2.57,2.63,2.57-1.17,2.57-2.63Z"/>
        <path class="cls-28" d="m296.99,73.22c0,1.61-1.29,2.92-2.87,2.92s-2.87-1.31-2.87-2.92,1.29-2.92,2.87-2.92,2.87,1.31,2.87,2.92Zm-.58,0c0-1.28-1.03-2.33-2.28-2.33s-2.28,1.05-2.28,2.33,1.03,2.33,2.28,2.33,2.28-1.05,2.28-2.33Z"/>
      </g>
      <path class="cls-28" d="m295.17,75.61v-4.78c.89.41,1.52,1.33,1.52,2.39s-.62,1.98-1.52,2.39Z"/>
    </g>
    <g>
      <path class="cls-27" d="m328.81,77.02c-2.3,0-4.16-1.9-4.16-4.25s1.86-4.25,4.16-4.25,4.16,1.9,4.16,4.25-1.86,4.25-4.16,4.25Z"/>
      <rect class="cls-36" x="327.66" y="72.38" width="5.31" height="6.77"/>
      <rect class="cls-35" x="328.87" y="72.38" width="2.88" height="6"/>
      <rect class="cls-26" x="329.65" y="72.38" width="1.33" height="6"/>
      <path class="cls-36" d="m307.37,70.75h25.8c.62,0,1.14.52,1.14,1.16v1.72c0,.64-.51,1.16-1.14,1.16h-25.8c-.62,0-1.14-.52-1.14-1.16v-1.72c0-.64.51-1.16,1.14-1.16Z"/>
      <path class="cls-16" d="m308.8,73.93c-.58,0-1.06-.3-1.06-.67v-.99c0-.36.47-.67,1.06-.67h23.97c.58,0,1.06.3,1.06.67v.99c0,.36-.47.67-1.06.67h-23.97Z"/>
      <path class="cls-26" d="m308.8,73.04c-.58,0-1.06-.07-1.06-.16v-.23c0-.09.47-.16,1.06-.16h23.97c.58,0,1.06.07,1.06.16v.23c0,.09-.47.16-1.06.16h-23.97Z"/>
      <rect class="cls-36" x="325.57" y="78.77" width="8.72" height="3.29"/>
      <rect class="cls-35" x="326.9" y="78.77" width="6.06" height="2.8"/>
      <rect class="cls-26" x="328.89" y="78.77" width="2.08" height="2.8"/>
    </g>
    <path class="cls-42" d="m26.33,195.3v63.24c0,4.52,1.85,7.91,6.28,7.91l8.04-3.22c.96-.76,5.88-8.4,26.08-9.6l-3.7-26.71,3.7-26.71c-20.19-1.2-25.12-8.83-26.08-9.6l-8.04-3.22c-4.43,0-6.28,3.39-6.28,7.91h0Z"/>
    <path class="cls-20" d="m26.33,194.81v63.73c0,4.52,1.85,7.91,6.28,7.91,0,0,6.08-2.3,8.04-3.22,1.43-.68,2.16-2.2,4.82-4.05,0-.21-5.88-6.3-5.89-32.5.02-26.2,5.88-31.86,5.88-31.86,0-.22,0-.43.02-.64-3.13-1.93-4.39-3.7-4.82-4.05l-8.04-3.22c-4.43,0-6.28,3.39-6.28,7.91h0Z"/>
    <g>
      <path class="cls-46" d="m47.71,235.97c1.42,0,2.57,1.17,2.57,2.62h0c0,1.44-1.14,2.62-2.57,2.62h-3.09c-1.42,0-2.57-1.17-2.57-2.62h0c0-1.44,1.14-2.62,2.57-2.62h3.09Z"/>
      <path class="cls-20" d="m50.59,238.59c0,1.62-1.29,2.94-2.88,2.94h-3.09c-1.59,0-2.88-1.32-2.88-2.94s1.29-2.94,2.88-2.94h3.09c1.59,0,2.88,1.32,2.88,2.94Zm-8.23,0c0,1.27,1,2.29,2.24,2.29h3.09c1.24,0,2.24-1.02,2.24-2.29s-1-2.29-2.24-2.29h-3.09c-1.24,0-2.24,1.02-2.24,2.29Z"/>
    </g>
    <g>
      <path class="cls-46" d="m47.71,74.53c1.42,0,2.57-1.17,2.57-2.62h0c0-1.44-1.14-2.62-2.57-2.62h-3.09c-1.42,0-2.57,1.17-2.57,2.62h0c0,1.44,1.14,2.62,2.57,2.62h3.09Z"/>
      <path class="cls-20" d="m50.59,71.91c0,1.62-1.29,2.94-2.88,2.94h-3.09c-1.59,0-2.88-1.32-2.88-2.94s1.29-2.94,2.88-2.94h3.09c1.59,0,2.88,1.32,2.88,2.94Zm-8.23,0c0,1.27,1,2.29,2.24,2.29h3.09c1.24,0,2.24-1.02,2.24-2.29s-1-2.29-2.24-2.29h-3.09c-1.24,0-2.24,1.02-2.24,2.29Z"/>
    </g>
    <path class="cls-32" d="m47.71,208.33v37.17c6.84,7.2,17.76,11.83,30.78,11.83,22.31,0,42.32-13.62,42.32-30.42s-20.01-30.42-42.32-30.42c-13.02,0-23.94,4.63-30.78,11.83h0v.02Z"/>
    <path class="cls-20" d="m46.74,208.33v37.17c0,.26.1.5.28.68,3.29,3.45,7.41,6.26,12.1,8.29.6-.1,1.22-.19,1.85-.29-5.3-2.07-9.81-5.05-13.26-8.69v-37.17c3.47-3.64,7.97-6.62,13.26-8.69-.63-.09-1.26-.19-1.85-.29-4.7,2.03-8.82,4.83-12.1,8.29-.17.19-.28.43-.28.68Z"/>
    <path class="cls-53" d="m47.94,208.09l3.19,2.83.21.23c-.07.07-.14.14-.21.21v31.12l-3.43,3.03v-37.17c.07-.09.15-.16.24-.24h0Z"/>
    <path class="cls-48" d="m77.95,201.46c19.45,0,36.89,11.4,36.89,25.46s-17.44,25.46-36.89,25.46c-11.34,0-20.87-3.89-26.83-9.91v-31.12c.07-.08.14-.14.21-.21,5.98-5.9,15.41-9.7,26.61-9.7h0Z"/>
    <path class="cls-32" d="m11.47,187.02c-4.97,1.39-8.02,2.68-8.02,7.2v65.42c0,4.52,3.05,5.81,8.02,7.2l14.75.98c4.43,0,10.58-1.53,9.51-8.29,0,0-2.57-19.69-2.57-30.64v-3.93c0-10.95,2.57-30.64,2.57-30.64,1.07-6.76-5.08-8.29-9.51-8.29l-14.75.98v.02h0Z"/>
    <path class="cls-48" d="m11.95,190.96c-4.27,1.24-6.89,2.41-6.89,6.48v58.95c0,4.07,2.61,5.24,6.89,6.48l12.68.89c3.81,0,9.09-1.38,8.18-7.47,0,0-2.2-17.74-2.2-27.61v-3.54c0-9.87,2.2-27.61,2.2-27.61.92-6.09-4.37-7.47-8.18-7.47l-12.68.89h0Z"/>
    <g>
      <g>
        <path class="cls-20" d="m20.95,226.92c0-2.18-1.73-3.94-3.87-3.94s-3.87,1.77-3.87,3.94,1.73,3.94,3.87,3.94,3.87-1.77,3.87-3.94Z"/>
        <path class="cls-34" d="m21.25,226.92c0,2.34-1.87,4.25-4.17,4.25s-4.17-1.91-4.17-4.25,1.87-4.25,4.17-4.25,4.17,1.91,4.17,4.25Zm-.61,0c0-2-1.59-3.63-3.56-3.63s-3.56,1.63-3.56,3.63,1.59,3.63,3.56,3.63,3.56-1.63,3.56-3.63Z"/>
      </g>
      <g>
        <path class="cls-14" d="m19.78,226.92c0-1.51-1.21-2.75-2.69-2.75s-2.69,1.23-2.69,2.75,1.21,2.75,2.69,2.75,2.69-1.23,2.69-2.75Z"/>
        <path class="cls-50" d="m20.08,226.92c0,1.68-1.34,3.05-2.99,3.05s-3-1.37-3-3.05,1.34-3.06,3-3.06,2.99,1.37,2.99,3.06Zm-.61,0c0-1.34-1.07-2.44-2.38-2.44s-2.38,1.09-2.38,2.44,1.07,2.43,2.38,2.43,2.38-1.09,2.38-2.43Z"/>
      </g>
      <path class="cls-50" d="m18.19,229.42v-4.99c.93.43,1.59,1.39,1.59,2.5s-.66,2.07-1.59,2.5h0Z"/>
    </g>
    <g>
      <ellipse class="cls-36" cx="312.03" cy="209.71" rx="12.36" ry="12.91"/>
      <ellipse class="cls-35" cx="312.03" cy="209.71" rx="10.95" ry="11.44"/>
      <path class="cls-26" d="m306.5,199.85c-3.24,1.99-5.42,5.65-5.42,9.86s2.18,7.87,5.42,9.86v-19.71h0Z"/>
      <g>
        <path class="cls-19" d="m330.95,207.18c.88,0,1.59.6,1.58,1.34v2.76c0,.74-.72,1.34-1.59,1.34l-17.66-.03c-.88,0-1.59-.6-1.58-1.34v-2.76c0-.74.72-1.34,1.59-1.34l17.66.03Z"/>
        <path class="cls-52" d="m330.32,207.78c.81,0,1.46.43,1.46.96v1.99c0,.53-.66.96-1.47.96l-16.34-.03c-.81,0-1.46-.43-1.46-.96v-1.99c0-.53.66-.96,1.47-.95l16.34.03h0Z"/>
        <path class="cls-22" d="m330.32,208.53c.81,0,1.47.27,1.46.6v1.23c0,.33-.66.59-1.47.59l-16.34-.03c-.81,0-1.47-.27-1.46-.6v-1.23c0-.33.66-.59,1.47-.59l16.34.03h0Z"/>
      </g>
    </g>
    <g>
      <rect class="cls-36" x="328.77" y="219.31" width="6.93" height="5.79"/>
      <rect class="cls-35" x="329.56" y="220.64" width="6.13" height="3.14"/>
      <rect class="cls-26" x="329.56" y="221.48" width="6.13" height="1.44"/>
      <g>
        <rect class="cls-36" x="325.8" y="217.49" width="3.36" height="9.51"/>
        <rect class="cls-35" x="326.29" y="218.94" width="2.87" height="6.61"/>
        <rect class="cls-26" x="326.29" y="221.1" width="2.87" height="2.27"/>
      </g>
    </g>
    <g>
      <rect class="cls-36" x="328.77" y="195.35" width="6.93" height="5.79"/>
      <rect class="cls-35" x="329.56" y="196.66" width="6.13" height="3.14"/>
      <rect class="cls-26" x="329.56" y="197.51" width="6.13" height="1.44"/>
      <g>
        <rect class="cls-36" x="325.8" y="193.51" width="3.36" height="9.51"/>
        <rect class="cls-35" x="326.29" y="194.97" width="2.87" height="6.61"/>
        <rect class="cls-26" x="326.29" y="197.14" width="2.87" height="2.27"/>
      </g>
    </g>
    <g>
      <g>
        <rect class="cls-24" x="205.91" y="4.56" width="2.76" height="5.12"/>
        <path class="cls-24" d="m208.68,9.68c0-1.06-.84-1.92-1.88-1.92h-12.83c-1.04,0-1.88.85-1.88,1.92h0c0,1.06.84,1.92,1.88,1.92h12.83c1.04,0,1.88-.85,1.88-1.92h0Z"/>
        <path class="cls-24" d="m208.68,9.68c0-.44-.81-.79-1.81-.79h-12.34c-1,0-1.81.36-1.81.79h0c0,.44.81.79,1.81.79h12.34c1,0,1.81-.36,1.81-.79h0Z"/>
      </g>
      <polygon class="cls-24" points="215.03 9.12 215.03 5.36 121.31 5.36 121.31 9.12 115.28 9.12 115.28 0 221.06 0 221.06 9.12 215.03 9.12"/>
    </g>
    <g id="t-paper">
      <g>
        <path class="cls-12" d="m63.02,9.99V3h3.2v6.99c0,.18.15.33.32.33h28.74c.17,0,.32-.15.32-.33V2.68h3.2v7.31c0,1.98-1.58,3.59-3.51,3.59h-28.74c-1.93,0-3.51-1.61-3.51-3.59h0Z"/>
        <path class="cls-34" d="m64.29,9.99V3h.64v6.99c0,.9.72,1.63,1.59,1.63h28.74c.88,0,1.59-.74,1.59-1.63V2.68h.64v7.31c0,1.26-1,2.28-2.23,2.28h-28.74c-1.23,0-2.23-1.02-2.23-2.28h0Z"/>
      </g>
      <rect class="cls-17" x="70.39" y="4.06" width="20.5" height="15.77"/>
      <rect class="cls-11" x="70.39" y="6.35" width="20.5" height="11.18"/>
    </g>
    <g>
      <path class="cls-6" d="m15.54,24.59c0-6.16,4.89-11.14,10.92-11.14s10.92,4.98,10.92,11.14-4.89,11.14-10.92,11.14-10.92-4.98-10.92-11.14Z"/>
      <path class="cls-17" d="m17.12,24.59c0-5.26,4.18-9.53,9.34-9.53s9.34,4.27,9.34,9.53-4.18,9.53-9.34,9.53-9.34-4.27-9.34-9.53Z"/>
      <path class="cls-11" d="m20,24.59c0-3.64,2.9-6.6,6.47-6.6s6.47,2.96,6.47,6.6-2.9,6.6-6.47,6.6-6.47-2.96-6.47-6.6Z"/>
      <path class="cls-14" d="m25.29,24.59c0-3.64.52-6.6,1.17-6.6s1.17,2.96,1.17,6.6-.52,6.6-1.17,6.6-1.17-2.96-1.17-6.6Z"/>
    </g>
    <g>
      <path class="cls-12" d="m161.83,270.99v6.99h-5v-6.99c0-.18-.23-.33-.5-.33h-45.01c-.28,0-.5.15-.5.33v7.31h-5v-7.31c0-1.98,2.47-3.59,5.5-3.59h45.01c3.04,0,5.5,1.61,5.5,3.59h-.02Z"/>
      <path class="cls-34" d="m159.83,270.99v6.99h-1v-6.99c0-.9-1.12-1.63-2.49-1.63h-45.01c-1.38,0-2.5.74-2.5,1.63v7.31h-1v-7.31c0-1.26,1.57-2.28,3.51-2.28h45.01c1.93,0,3.51,1.02,3.51,2.28h0Z"/>
    </g>
    <g>
      <path class="cls-6" d="m306.69,156.44c0-6.16,4.78-11.14,10.67-11.14s10.67,4.98,10.67,11.14-4.78,11.14-10.67,11.14-10.67-4.98-10.67-11.14h0Z"/>
      <path class="cls-17" d="m308.23,156.44c0-5.26,4.09-9.53,9.13-9.53s9.13,4.27,9.13,9.53-4.09,9.53-9.13,9.53-9.13-4.27-9.13-9.53h0Z"/>
      <path class="cls-11" d="m311.05,156.44c0-3.64,2.83-6.6,6.32-6.6s6.32,2.96,6.32,6.6-2.83,6.6-6.32,6.6-6.32-2.96-6.32-6.6Z"/>
      <path class="cls-14" d="m316.22,156.44c0-3.64.51-6.6,1.14-6.6s1.14,2.96,1.14,6.6-.51,6.6-1.14,6.6-1.14-2.96-1.14-6.6Z"/>
    </g>
    <g id="t-paper-2">
      <g>
        <path class="cls-12" d="m214.61,270.08h-6.96v-4.54h6.96c.18,0,.32-.2.32-.46v-40.87c0-.25-.15-.46-.32-.46h-7.28v-4.54h7.28c1.97,0,3.56,2.24,3.56,4.99v40.87c0,2.75-1.59,4.99-3.56,4.99v.02Z"/>
        <path class="cls-34" d="m214.61,268.25h-6.96v-.91h6.96c.89,0,1.62-1.02,1.62-2.27v-40.87c0-1.25-.73-2.27-1.62-2.27h-7.28v-.91h7.28c1.26,0,2.27,1.43,2.27,3.18v40.87c0,1.75-1.02,3.18-2.27,3.18v-.02Z"/>
      </g>
      <rect class="cls-17" x="208.72" y="230.43" width="15.69" height="29.15"/>
      <rect class="cls-11" x="211" y="230.43" width="11.12" height="29.15"/>
    </g>
    <g>
      <rect class="cls-13" x="67.25" y="69.76" width="66.59" height="67.94"/>
      <g class="cls-21">
        <polygon class="cls-5" points="119.91 73.43 70.68 123.66 70.68 134.02 130.06 73.43 119.91 73.43"/>
        <polygon class="cls-5" points="70.68 73.43 70.68 114.71 111.13 73.43 70.68 73.43"/>
      </g>
    </g>
    <g>
      <rect class="cls-13" y="69.76" width="66.58" height="67.94"/>
      <g class="cls-21">
        <polygon class="cls-5" points="52.66 73.43 3.43 123.66 3.43 134.02 62.82 73.43 52.66 73.43"/>
        <polygon class="cls-5" points="3.43 73.43 3.43 114.71 43.88 73.43 3.43 73.43"/>
      </g>
    </g>
    <g class="cls-37">
      <g>
        <rect class="cls-45" x="205.33" y="150.02" width="4.76" height="1.72"/>
        <path class="cls-3" d="m210.09,150.02c-.99,0-1.78.52-1.78,1.17v7.97c0,.64.79,1.17,1.78,1.17h0c.99,0,1.78-.52,1.78-1.17v-7.97c0-.64-.79-1.17-1.78-1.17h0Z"/>
        <path class="cls-43" d="m210.09,150.02c-.4,0-.74.51-.74,1.12v7.67c0,.62.33,1.12.74,1.12h0c.4,0,.74-.51.74-1.12v-7.67c0-.62-.33-1.12-.74-1.12h0Z"/>
      </g>
      <polygon class="cls-47" points="209.58 146.07 206.08 146.07 206.08 204.34 209.58 204.34 209.58 208.09 201.09 208.09 201.09 142.32 209.58 142.32 209.58 146.07"/>
    </g>
    <rect class="cls-41" x="201.09" y="208.35" width="4.3" height="72.74"/>
  </g>
</svg>