<?xml version="1.0" encoding="UTF-8"?>
<svg xmlns="http://www.w3.org/2000/svg" viewBox="0 0 3148.19 1788.01">
  <defs>
    <style>
      .cls-1 {
        fill: #c9e5ce;
      }

      .cls-2 {
        fill: #fff;
      }

      .cls-3 {
        fill: #a7a9ac;
      }

      .cls-4 {
        opacity: .5;
      }

      .cls-5 {
        fill: #939598;
      }

      .cls-6 {
        fill: #9b8579;
      }

      .cls-7 {
        fill: #ffd1f9;
      }

      .cls-8, .cls-9, .cls-10 {
        opacity: .2;
      }

      .cls-11 {
        opacity: .8;
      }

      .cls-12 {
        fill: #5cb1bf;
      }

      .cls-13 {
        fill: #ffe5f8;
      }

      .cls-14 {
        fill: #cce5ff;
      }

      .cls-15 {
        fill: #dfd3a1;
      }

      .cls-16, .cls-10 {
        fill: #f3d96f;
      }

      .cls-17 {
        fill: #c2fff1;
      }

      .cls-18 {
        fill: #d4e8b4;
      }

      .cls-19 {
        fill: #f1f2f2;
      }

      .cls-9, .cls-20 {
        fill: #231f20;
      }

      .cls-21 {
        fill: #d8f1e2;
      }

      .cls-22 {
        fill: #acd6e2;
      }

      .cls-23 {
        opacity: .1;
      }

      .cls-24 {
        fill: #ffc45e;
      }

      .cls-25 {
        fill: #d1d3d4;
      }

      .cls-26 {
        fill: #e6e7e8;
      }

      .cls-27 {
        fill: #f4fcd9;
      }

      .cls-28 {
        fill: #bcbec0;
      }

      .cls-29 {
        fill: #ecf3ff;
      }

      .cls-30 {
        fill: #58595b;
      }
    </style>
  </defs>
  <g id="Layer_2" data-name="Layer 2">
    <g>
      <g>
        <rect class="cls-22" x="2909.38" y="1436.76" width="230.37" height="241.75" transform="translate(4582.2 -1466.93) rotate(90)"/>
        <path class="cls-3" d="m2900.94,1675.44v-235.61h247.24v235.61h-247.24Zm5.5-230.37v225.13s236.25,0,236.25,0v-225.13s-236.25,0-236.25,0Z"/>
      </g>
      <g>
        <rect class="cls-22" x="2667.63" y="1436.76" width="230.37" height="241.75" transform="translate(4340.45 -1225.19) rotate(90)"/>
        <path class="cls-3" d="m2659.2,1675.44v-235.61h247.24v235.61h-247.24Zm5.5-230.37v225.13s236.25,0,236.25,0v-225.13s-236.25,0-236.25,0Z"/>
      </g>
      <g>
        <rect class="cls-22" x="2425.89" y="1436.76" width="230.37" height="241.75" transform="translate(4098.71 -983.44) rotate(90)"/>
        <path class="cls-3" d="m2417.45,1675.44v-235.61h247.24v235.61h-247.24Zm5.5-230.37v225.13s236.25,0,236.25,0v-225.13s-236.25,0-236.25,0Z"/>
      </g>
      <g>
        <rect class="cls-22" x="2184.14" y="1436.76" width="230.37" height="241.75" transform="translate(3856.96 -741.7) rotate(90)"/>
        <path class="cls-3" d="m2175.71,1675.44v-235.61h247.24v235.61h-247.24Zm5.5-230.37v225.13s236.25,0,236.25,0v-225.13s-236.25,0-236.25,0Z"/>
      </g>
      <g>
        <rect class="cls-22" x="1942.4" y="1436.76" width="230.37" height="241.74" transform="translate(3615.22 -499.95) rotate(90)"/>
        <path class="cls-3" d="m1933.96,1675.44v-235.61h247.24v235.61h-247.24Zm5.5-230.37v225.13s236.25,0,236.25,0v-225.13s-236.25,0-236.25,0Z"/>
      </g>
      <g>
        <rect class="cls-22" x="1700.65" y="1436.76" width="230.37" height="241.75" transform="translate(3373.47 -258.21) rotate(90)"/>
        <path class="cls-3" d="m1692.22,1675.44v-235.61h247.24v235.61h-247.24Zm5.5-230.37v225.13s236.25,0,236.25,0v-225.13s-236.25,0-236.25,0Z"/>
      </g>
      <g>
        <rect class="cls-22" x="1458.91" y="1436.76" width="230.37" height="241.74" transform="translate(3131.73 -16.46) rotate(90)"/>
        <path class="cls-3" d="m1450.47,1675.44v-235.61h247.24v235.61h-247.24Zm5.5-230.37v225.13s236.25,0,236.25,0v-225.13s-236.25,0-236.25,0Z"/>
      </g>
      <g>
        <rect class="cls-22" x="1217.16" y="1436.76" width="230.37" height="241.75" transform="translate(2889.98 225.28) rotate(90)"/>
        <path class="cls-3" d="m1208.73,1675.44v-235.61h247.24v235.61h-247.24Zm5.5-230.37v225.13s236.25,0,236.25,0v-225.13s-236.25,0-236.25,0Z"/>
      </g>
      <g>
        <rect class="cls-22" x="2909.38" y="1206.39" width="230.37" height="241.75" transform="translate(4351.83 -1697.3) rotate(90)"/>
        <path class="cls-3" d="m2900.94,1445.07v-235.61h247.24v235.61h-247.24Zm5.5-230.37v225.13s236.25,0,236.25,0v-225.13s-236.25,0-236.25,0Z"/>
      </g>
      <g>
        <rect class="cls-22" x="2909.38" y="976.02" width="230.37" height="241.75" transform="translate(4121.45 -1927.68) rotate(90)"/>
        <path class="cls-3" d="m2900.94,1214.69v-235.61h247.24v235.61h-247.24Zm5.5-230.37v225.13s236.25,0,236.25,0v-225.13s-236.25,0-236.25,0Z"/>
      </g>
      <g>
        <rect class="cls-22" x="2909.38" y="745.64" width="230.37" height="241.75" transform="translate(3891.08 -2158.05) rotate(90)"/>
        <path class="cls-3" d="m2900.94,984.32v-235.61h247.24v235.61h-247.24Zm5.5-230.37v225.13s236.25,0,236.25,0v-225.13s-236.25,0-236.25,0Z"/>
      </g>
      <g>
        <rect class="cls-22" x="2909.38" y="515.27" width="230.37" height="241.75" transform="translate(3660.71 -2388.42) rotate(90)"/>
        <path class="cls-3" d="m2900.94,753.95v-235.61h247.24v235.61h-247.24Zm5.5-230.37v225.13s236.25,0,236.25,0v-225.13s-236.25,0-236.25,0Z"/>
      </g>
      <g>
        <rect class="cls-22" x="2909.38" y="284.9" width="230.37" height="241.75" transform="translate(3430.34 -2618.79) rotate(90)"/>
        <path class="cls-3" d="m2900.94,523.58v-235.61h247.24v235.61h-247.24Zm5.5-230.37v225.13s236.25,0,236.25,0v-225.13s-236.25,0-236.25,0Z"/>
      </g>
      <g>
        <rect class="cls-22" x="2909.38" y="54.53" width="230.37" height="241.75" transform="translate(3199.96 -2849.17) rotate(90)"/>
        <path class="cls-3" d="m2900.94,293.21V57.59h247.24v235.61h-247.24Zm5.5-230.37v225.13s236.25,0,236.25,0V62.83s-236.25,0-236.25,0Z"/>
      </g>
      <g>
        <rect class="cls-22" x="2995.77" y="-89.46" width="57.59" height="241.75" transform="translate(3055.98 -2993.15) rotate(90)"/>
        <path class="cls-3" d="m2900.94,62.83V0h247.24v62.83h-247.24Zm5.5-57.59v52.35s236.25,0,236.25,0V5.24s-236.25,0-236.25,0Z"/>
      </g>
      <g>
        <rect class="cls-22" x="2667.63" y="1206.39" width="230.37" height="241.75" transform="translate(4110.08 -1455.56) rotate(90)"/>
        <path class="cls-3" d="m2659.2,1445.07v-235.61h247.24v235.61h-247.24Zm5.5-230.37v225.13s236.25,0,236.25,0v-225.13s-236.25,0-236.25,0Z"/>
      </g>
      <g>
        <rect class="cls-22" x="2667.63" y="976.02" width="230.37" height="241.75" transform="translate(3879.71 -1685.93) rotate(90)"/>
        <path class="cls-3" d="m2659.2,1214.69v-235.61h247.24v235.61h-247.24Zm5.5-230.37v225.13s236.25,0,236.25,0v-225.13s-236.25,0-236.25,0Z"/>
      </g>
      <g>
        <rect class="cls-22" x="2667.63" y="745.64" width="230.37" height="241.75" transform="translate(3649.34 -1916.3) rotate(90)"/>
        <path class="cls-3" d="m2659.2,984.32v-235.61h247.24v235.61h-247.24Zm5.5-230.37v225.13s236.25,0,236.25,0v-225.13s-236.25,0-236.25,0Z"/>
      </g>
      <g>
        <rect class="cls-22" x="2667.63" y="515.27" width="230.37" height="241.75" transform="translate(3418.96 -2146.68) rotate(90)"/>
        <path class="cls-3" d="m2659.2,753.95v-235.61h247.24v235.61h-247.24Zm5.5-230.37v225.13s236.25,0,236.25,0v-225.13s-236.25,0-236.25,0Z"/>
      </g>
      <g>
        <rect class="cls-22" x="2667.63" y="284.9" width="230.37" height="241.75" transform="translate(3188.59 -2377.05) rotate(90)"/>
        <path class="cls-3" d="m2659.2,523.58v-235.61h247.24v235.61h-247.24Zm5.5-230.37v225.13s236.25,0,236.25,0v-225.13s-236.25,0-236.25,0Z"/>
      </g>
      <g>
        <rect class="cls-22" x="2667.63" y="54.53" width="230.37" height="241.75" transform="translate(2958.22 -2607.42) rotate(90)"/>
        <path class="cls-3" d="m2659.2,293.21V57.59h247.24v235.61h-247.24Zm5.5-230.37v225.13s236.25,0,236.25,0V62.83s-236.25,0-236.25,0Z"/>
      </g>
      <g>
        <rect class="cls-22" x="2754.02" y="-89.46" width="57.59" height="241.75" transform="translate(2814.24 -2751.4) rotate(90)"/>
        <path class="cls-3" d="m2659.2,62.83V0h247.24v62.83h-247.24Zm5.5-57.59v52.35s236.25,0,236.25,0V5.24s-236.25,0-236.25,0Z"/>
      </g>
      <g>
        <rect class="cls-22" x="2425.89" y="1206.39" width="230.37" height="241.75" transform="translate(3868.33 -1213.81) rotate(90)"/>
        <path class="cls-3" d="m2417.45,1445.07v-235.61h247.24v235.61h-247.24Zm5.5-230.37v225.13s236.25,0,236.25,0v-225.13s-236.25,0-236.25,0Z"/>
      </g>
      <g>
        <rect class="cls-22" x="2425.89" y="976.02" width="230.37" height="241.75" transform="translate(3637.96 -1444.19) rotate(90)"/>
        <path class="cls-3" d="m2417.45,1214.69v-235.61h247.24v235.61h-247.24Zm5.5-230.37v225.13s236.25,0,236.25,0v-225.13s-236.25,0-236.25,0Z"/>
      </g>
      <g>
        <rect class="cls-22" x="2425.89" y="745.64" width="230.37" height="241.75" transform="translate(3407.59 -1674.56) rotate(90)"/>
        <path class="cls-3" d="m2417.45,984.32v-235.61h247.24v235.61h-247.24Zm5.5-230.37v225.13s236.25,0,236.25,0v-225.13s-236.25,0-236.25,0Z"/>
      </g>
      <g>
        <rect class="cls-22" x="2425.89" y="515.27" width="230.37" height="241.75" transform="translate(3177.22 -1904.93) rotate(90)"/>
        <path class="cls-3" d="m2417.45,753.95v-235.61h247.24v235.61h-247.24Zm5.5-230.37v225.13s236.25,0,236.25,0v-225.13s-236.25,0-236.25,0Z"/>
      </g>
      <g>
        <rect class="cls-22" x="2425.89" y="284.9" width="230.37" height="241.75" transform="translate(2946.85 -2135.3) rotate(90)"/>
        <path class="cls-3" d="m2417.45,523.58v-235.61h247.24v235.61h-247.24Zm5.5-230.37v225.13s236.25,0,236.25,0v-225.13s-236.25,0-236.25,0Z"/>
      </g>
      <g>
        <rect class="cls-22" x="2425.89" y="54.53" width="230.37" height="241.75" transform="translate(2716.47 -2365.67) rotate(90)"/>
        <path class="cls-3" d="m2417.45,293.21V57.59h247.24v235.61h-247.24Zm5.5-230.37v225.13s236.25,0,236.25,0V62.83s-236.25,0-236.25,0Z"/>
      </g>
      <g>
        <rect class="cls-22" x="2512.28" y="-89.46" width="57.59" height="241.75" transform="translate(2572.49 -2509.66) rotate(90)"/>
        <path class="cls-3" d="m2417.45,62.83V0h247.24v62.83h-247.24Zm5.5-57.59v52.35s236.25,0,236.25,0V5.24s-236.25,0-236.25,0Z"/>
      </g>
      <g>
        <rect class="cls-22" x="2184.14" y="1206.39" width="230.37" height="241.75" transform="translate(3626.59 -972.07) rotate(90)"/>
        <path class="cls-3" d="m2175.71,1445.07v-235.61h247.24v235.61h-247.24Zm5.5-230.37v225.13s236.25,0,236.25,0v-225.13s-236.25,0-236.25,0Z"/>
      </g>
      <g>
        <rect class="cls-22" x="2184.14" y="976.02" width="230.37" height="241.75" transform="translate(3396.22 -1202.44) rotate(90)"/>
        <path class="cls-3" d="m2175.71,1214.69v-235.61h247.24v235.61h-247.24Zm5.5-230.37v225.13s236.25,0,236.25,0v-225.13s-236.25,0-236.25,0Z"/>
      </g>
      <g>
        <rect class="cls-22" x="2184.14" y="745.64" width="230.37" height="241.75" transform="translate(3165.84 -1432.81) rotate(90)"/>
        <path class="cls-3" d="m2175.71,984.32v-235.61h247.24v235.61h-247.24Zm5.5-230.37v225.13s236.25,0,236.25,0v-225.13s-236.25,0-236.25,0Z"/>
      </g>
      <g>
        <rect class="cls-22" x="2184.14" y="515.27" width="230.37" height="241.75" transform="translate(2935.47 -1663.18) rotate(90)"/>
        <path class="cls-3" d="m2175.71,753.95v-235.61h247.24v235.61h-247.24Zm5.5-230.37v225.13s236.25,0,236.25,0v-225.13s-236.25,0-236.25,0Z"/>
      </g>
      <g>
        <rect class="cls-22" x="2184.14" y="284.9" width="230.37" height="241.75" transform="translate(2705.1 -1893.56) rotate(90)"/>
        <path class="cls-3" d="m2175.71,523.58v-235.61h247.24v235.61h-247.24Zm5.5-230.37v225.13s236.25,0,236.25,0v-225.13s-236.25,0-236.25,0Z"/>
      </g>
      <g>
        <rect class="cls-22" x="2184.14" y="54.53" width="230.37" height="241.75" transform="translate(2474.73 -2123.93) rotate(90)"/>
        <path class="cls-3" d="m2175.71,293.21V57.59h247.24v235.61h-247.24Zm5.5-230.37v225.13s236.25,0,236.25,0V62.83s-236.25,0-236.25,0Z"/>
      </g>
      <g>
        <rect class="cls-22" x="2270.53" y="-89.46" width="57.59" height="241.75" transform="translate(2330.75 -2267.91) rotate(90)"/>
        <path class="cls-3" d="m2175.71,62.83V0h247.24v62.83h-247.24Zm5.5-57.59v52.35s236.25,0,236.25,0V5.24s-236.25,0-236.25,0Z"/>
      </g>
      <g>
        <rect class="cls-22" x="1942.4" y="1206.39" width="230.37" height="241.74" transform="translate(3384.84 -730.32) rotate(90)"/>
        <path class="cls-3" d="m1933.96,1445.07v-235.61h247.24v235.61h-247.24Zm5.5-230.37v225.13s236.25,0,236.25,0v-225.13s-236.25,0-236.25,0Z"/>
      </g>
      <g>
        <rect class="cls-22" x="1942.4" y="976.02" width="230.37" height="241.74" transform="translate(3154.47 -960.7) rotate(90)"/>
        <path class="cls-3" d="m1933.96,1214.69v-235.61h247.24v235.61h-247.24Zm5.5-230.37v225.13s236.25,0,236.25,0v-225.13s-236.25,0-236.25,0Z"/>
      </g>
      <g>
        <rect class="cls-22" x="1942.4" y="745.64" width="230.37" height="241.74" transform="translate(2924.1 -1191.07) rotate(90)"/>
        <path class="cls-3" d="m1933.96,984.32v-235.61h247.24v235.61h-247.24Zm5.5-230.37v225.13s236.25,0,236.25,0v-225.13s-236.25,0-236.25,0Z"/>
      </g>
      <g>
        <rect class="cls-22" x="1942.4" y="515.27" width="230.37" height="241.74" transform="translate(2693.73 -1421.44) rotate(90)"/>
        <path class="cls-3" d="m1933.96,753.95v-235.61h247.24v235.61h-247.24Zm5.5-230.37v225.13s236.25,0,236.25,0v-225.13s-236.25,0-236.25,0Z"/>
      </g>
      <g>
        <rect class="cls-22" x="1942.4" y="284.9" width="230.37" height="241.74" transform="translate(2463.36 -1651.81) rotate(90)"/>
        <path class="cls-3" d="m1933.96,523.58v-235.61h247.24v235.61h-247.24Zm5.5-230.37v225.13s236.25,0,236.25,0v-225.13s-236.25,0-236.25,0Z"/>
      </g>
      <g>
        <rect class="cls-22" x="1942.4" y="54.53" width="230.37" height="241.74" transform="translate(2232.98 -1882.18) rotate(90)"/>
        <path class="cls-3" d="m1933.96,293.21V57.59h247.24v235.61h-247.24Zm5.5-230.37v225.13s236.25,0,236.25,0V62.83s-236.25,0-236.25,0Z"/>
      </g>
      <g>
        <rect class="cls-22" x="2028.79" y="-89.46" width="57.59" height="241.74" transform="translate(2089 -2026.17) rotate(90)"/>
        <path class="cls-3" d="m1933.96,62.83V0h247.24v62.83h-247.24Zm5.5-57.59v52.35s236.25,0,236.25,0V5.24s-236.25,0-236.25,0Z"/>
      </g>
      <g>
        <rect class="cls-22" x="1700.65" y="1206.39" width="230.37" height="241.75" transform="translate(3143.1 -488.58) rotate(90)"/>
        <path class="cls-3" d="m1692.22,1445.07v-235.61h247.24v235.61h-247.24Zm5.5-230.37v225.13s236.25,0,236.25,0v-225.13s-236.25,0-236.25,0Z"/>
      </g>
      <g>
        <rect class="cls-22" x="1700.65" y="976.02" width="230.37" height="241.75" transform="translate(2912.73 -718.95) rotate(90)"/>
        <path class="cls-3" d="m1692.22,1214.69v-235.61h247.24v235.61h-247.24Zm5.5-230.37v225.13s236.25,0,236.25,0v-225.13s-236.25,0-236.25,0Z"/>
      </g>
      <g>
        <rect class="cls-22" x="1700.65" y="745.64" width="230.37" height="241.75" transform="translate(2682.35 -949.32) rotate(90)"/>
        <path class="cls-3" d="m1692.22,984.32v-235.61h247.24v235.61h-247.24Zm5.5-230.37v225.13s236.25,0,236.25,0v-225.13s-236.25,0-236.25,0Z"/>
      </g>
      <g>
        <rect class="cls-22" x="1700.65" y="515.27" width="230.37" height="241.75" transform="translate(2451.98 -1179.69) rotate(90)"/>
        <path class="cls-3" d="m1692.22,753.95v-235.61h247.24v235.61h-247.24Zm5.5-230.37v225.13s236.25,0,236.25,0v-225.13s-236.25,0-236.25,0Z"/>
      </g>
      <g>
        <rect class="cls-22" x="1700.65" y="284.9" width="230.37" height="241.75" transform="translate(2221.61 -1410.07) rotate(90)"/>
        <path class="cls-3" d="m1692.22,523.58v-235.61h247.24v235.61h-247.24Zm5.5-230.37v225.13s236.25,0,236.25,0v-225.13s-236.25,0-236.25,0Z"/>
      </g>
      <g>
        <rect class="cls-22" x="1700.65" y="54.53" width="230.37" height="241.75" transform="translate(1991.24 -1640.44) rotate(90)"/>
        <path class="cls-3" d="m1692.22,293.21V57.59h247.24v235.61h-247.24Zm5.5-230.37v225.13s236.25,0,236.25,0V62.83s-236.25,0-236.25,0Z"/>
      </g>
      <g>
        <rect class="cls-22" x="1787.04" y="-89.46" width="57.59" height="241.75" transform="translate(1847.26 -1784.42) rotate(90)"/>
        <path class="cls-3" d="m1692.22,62.83V0h247.24v62.83h-247.24Zm5.5-57.59v52.35s236.25,0,236.25,0V5.24s-236.25,0-236.25,0Z"/>
      </g>
      <g>
        <rect class="cls-22" x="1458.91" y="1206.39" width="230.37" height="241.74" transform="translate(2901.35 -246.83) rotate(90)"/>
        <path class="cls-3" d="m1450.47,1445.07v-235.61h247.24v235.61h-247.24Zm5.5-230.37v225.13s236.25,0,236.25,0v-225.13s-236.25,0-236.25,0Z"/>
      </g>
      <g>
        <rect class="cls-22" x="1458.91" y="976.02" width="230.37" height="241.74" transform="translate(2670.98 -477.21) rotate(90)"/>
        <path class="cls-3" d="m1450.47,1214.69v-235.61h247.24v235.61h-247.24Zm5.5-230.37v225.13s236.25,0,236.25,0v-225.13s-236.25,0-236.25,0Z"/>
      </g>
      <g>
        <rect class="cls-22" x="1458.91" y="745.64" width="230.37" height="241.74" transform="translate(2440.61 -707.58) rotate(90)"/>
        <path class="cls-3" d="m1450.47,984.32v-235.61h247.24v235.61h-247.24Zm5.5-230.37v225.13s236.25,0,236.25,0v-225.13s-236.25,0-236.25,0Z"/>
      </g>
      <g>
        <rect class="cls-22" x="1458.91" y="515.27" width="230.37" height="241.74" transform="translate(2210.24 -937.95) rotate(90)"/>
        <path class="cls-3" d="m1450.47,753.95v-235.61h247.24v235.61h-247.24Zm5.5-230.37v225.13s236.25,0,236.25,0v-225.13s-236.25,0-236.25,0Z"/>
      </g>
      <g>
        <rect class="cls-22" x="1458.91" y="284.9" width="230.37" height="241.74" transform="translate(1979.87 -1168.32) rotate(90)"/>
        <path class="cls-3" d="m1450.47,523.58v-235.61h247.24v235.61h-247.24Zm5.5-230.37v225.13s236.25,0,236.25,0v-225.13s-236.25,0-236.25,0Z"/>
      </g>
      <g>
        <rect class="cls-22" x="1458.91" y="54.53" width="230.37" height="241.74" transform="translate(1749.49 -1398.69) rotate(90)"/>
        <path class="cls-3" d="m1450.47,293.21V57.59h247.24v235.61h-247.24Zm5.5-230.37v225.13s236.25,0,236.25,0V62.83s-236.25,0-236.25,0Z"/>
      </g>
      <g>
        <rect class="cls-22" x="1545.3" y="-89.46" width="57.59" height="241.74" transform="translate(1605.51 -1542.68) rotate(90)"/>
        <path class="cls-3" d="m1450.47,62.83V0h247.24v62.83h-247.24Zm5.5-57.59v52.35s236.25,0,236.25,0V5.24s-236.25,0-236.25,0Z"/>
      </g>
      <g>
        <rect class="cls-22" x="1217.16" y="1206.39" width="230.37" height="241.75" transform="translate(2659.61 -5.09) rotate(90)"/>
        <path class="cls-3" d="m1208.73,1445.07v-235.61h247.24v235.61h-247.24Zm5.5-230.37v225.13s236.25,0,236.25,0v-225.13s-236.25,0-236.25,0Z"/>
      </g>
      <g>
        <rect class="cls-22" x="1217.16" y="976.02" width="230.37" height="241.75" transform="translate(2429.24 -235.46) rotate(90)"/>
        <path class="cls-3" d="m1208.73,1214.69v-235.61h247.24v235.61h-247.24Zm5.5-230.37v225.13s236.25,0,236.25,0v-225.13s-236.25,0-236.25,0Z"/>
      </g>
      <g>
        <rect class="cls-22" x="1217.16" y="745.64" width="230.37" height="241.75" transform="translate(2198.86 -465.83) rotate(90)"/>
        <path class="cls-3" d="m1208.73,984.32v-235.61h247.24v235.61h-247.24Zm5.5-230.37v225.13s236.25,0,236.25,0v-225.13s-236.25,0-236.25,0Z"/>
      </g>
      <g>
        <rect class="cls-22" x="1217.16" y="515.27" width="230.37" height="241.75" transform="translate(1968.49 -696.2) rotate(90)"/>
        <path class="cls-3" d="m1208.73,753.95v-235.61h247.24v235.61h-247.24Zm5.5-230.37v225.13s236.25,0,236.25,0v-225.13s-236.25,0-236.25,0Z"/>
      </g>
      <g>
        <rect class="cls-22" x="1217.16" y="284.9" width="230.37" height="241.75" transform="translate(1738.12 -926.58) rotate(90)"/>
        <path class="cls-3" d="m1208.73,523.58v-235.61h247.24v235.61h-247.24Zm5.5-230.37v225.13s236.25,0,236.25,0v-225.13s-236.25,0-236.25,0Z"/>
      </g>
      <g>
        <rect class="cls-22" x="1217.16" y="54.53" width="230.37" height="241.75" transform="translate(1507.75 -1156.95) rotate(90)"/>
        <path class="cls-3" d="m1208.73,293.21V57.59h247.24v235.61h-247.24Zm5.5-230.37v225.13s236.25,0,236.25,0V62.83s-236.25,0-236.25,0Z"/>
      </g>
      <g>
        <rect class="cls-22" x="1303.55" y="-89.46" width="57.59" height="241.75" transform="translate(1363.76 -1300.93) rotate(90)"/>
        <path class="cls-3" d="m1208.73,62.83V0h247.24v62.83h-247.24Zm5.5-57.59v52.35s236.25,0,236.25,0V5.24s-236.25,0-236.25,0Z"/>
      </g>
      <g>
        <rect class="cls-22" x="854.54" y="1436.76" width="230.37" height="241.75" transform="translate(2527.36 587.9) rotate(90)"/>
        <path class="cls-3" d="m846.11,1675.44v-235.61h247.24v235.61h-247.24Zm5.5-230.37v225.13s236.25,0,236.25,0v-225.13s-236.25,0-236.25,0Z"/>
      </g>
      <g>
        <rect class="cls-22" x="854.54" y="1206.39" width="230.37" height="241.75" transform="translate(2296.99 357.53) rotate(90)"/>
        <path class="cls-3" d="m846.11,1445.07v-235.61h247.24v235.61h-247.24Zm5.5-230.37v225.13s236.25,0,236.25,0v-225.13s-236.25,0-236.25,0Z"/>
      </g>
      <g>
        <rect class="cls-22" x="854.54" y="976.02" width="230.37" height="241.75" transform="translate(2066.62 127.16) rotate(90)"/>
        <path class="cls-3" d="m846.11,1214.69v-235.61h247.24v235.61h-247.24Zm5.5-230.37v225.13s236.25,0,236.25,0v-225.13s-236.25,0-236.25,0Z"/>
      </g>
      <g>
        <rect class="cls-22" x="854.54" y="745.64" width="230.37" height="241.75" transform="translate(1836.25 -103.21) rotate(90)"/>
        <path class="cls-3" d="m846.11,984.32v-235.61h247.24v235.61h-247.24Zm5.5-230.37v225.13s236.25,0,236.25,0v-225.13s-236.25,0-236.25,0Z"/>
      </g>
      <g>
        <rect class="cls-22" x="854.54" y="515.27" width="230.37" height="241.75" transform="translate(1605.87 -333.59) rotate(90)"/>
        <path class="cls-3" d="m846.11,753.95v-235.61h247.24v235.61h-247.24Zm5.5-230.37v225.13s236.25,0,236.25,0v-225.13s-236.25,0-236.25,0Z"/>
      </g>
      <g>
        <rect class="cls-22" x="1035.85" y="1497.2" width="230.37" height="120.87" transform="translate(2708.67 406.59) rotate(90)"/>
        <path class="cls-3" d="m1087.85,1675.44v-235.61h126.37v235.61h-126.37Zm5.5-230.37v225.13s115.37,0,115.37,0v-225.13s-115.37,0-115.37,0Z"/>
      </g>
      <g>
        <rect class="cls-22" x="1035.85" y="1266.82" width="230.37" height="120.87" transform="translate(2478.3 176.22) rotate(90)"/>
        <path class="cls-3" d="m1087.85,1445.07v-235.61h126.37v235.61h-126.37Zm5.5-230.37v225.13s115.37,0,115.37,0v-225.13s-115.37,0-115.37,0Z"/>
      </g>
      <g>
        <rect class="cls-22" x="1035.85" y="1036.45" width="230.37" height="120.87" transform="translate(2247.93 -54.15) rotate(90)"/>
        <path class="cls-3" d="m1087.85,1214.69v-235.61h126.37v235.61h-126.37Zm5.5-230.37v225.13s115.37,0,115.37,0v-225.13s-115.37,0-115.37,0Z"/>
      </g>
      <g>
        <rect class="cls-22" x="1035.85" y="806.08" width="230.37" height="120.87" transform="translate(2017.56 -284.52) rotate(90)"/>
        <path class="cls-3" d="m1087.85,984.32v-235.61h126.37v235.61h-126.37Zm5.5-230.37v225.13s115.37,0,115.37,0v-225.13s-115.37,0-115.37,0Z"/>
      </g>
      <g>
        <rect class="cls-22" x="1035.85" y="575.71" width="230.37" height="120.87" transform="translate(1787.18 -514.9) rotate(90)"/>
        <path class="cls-3" d="m1087.85,753.95v-235.61h126.37v235.61h-126.37Zm5.5-230.37v225.13s115.37,0,115.37,0v-225.13s-115.37,0-115.37,0Z"/>
      </g>
      <g>
        <rect class="cls-13" x="854.54" y="284.9" width="230.37" height="241.75" transform="translate(1375.5 -563.96) rotate(90)"/>
        <path class="cls-13" d="m846.11,523.58v-235.61h247.24v235.61h-247.24Zm5.5-230.37v225.13s236.25,0,236.25,0v-225.13s-236.25,0-236.25,0Z"/>
      </g>
      <g>
        <rect class="cls-18" x="854.54" y="54.53" width="230.37" height="241.75" transform="translate(1145.13 -794.33) rotate(90)"/>
        <path class="cls-18" d="m846.11,293.21V57.59h247.24v235.61h-247.24Zm5.5-230.37v225.13s236.25,0,236.25,0V62.83s-236.25,0-236.25,0Z"/>
      </g>
      <g>
        <rect class="cls-22" x="940.93" y="-89.46" width="57.59" height="241.75" transform="translate(1001.15 -938.31) rotate(90)"/>
        <path class="cls-3" d="m846.11,62.83V0h247.24v62.83h-247.24Zm5.5-57.59v52.35s236.25,0,236.25,0V5.24s-236.25,0-236.25,0Z"/>
      </g>
      <g>
        <rect class="cls-22" x="612.8" y="1436.76" width="230.37" height="241.75" transform="translate(2285.62 829.65) rotate(90)"/>
        <path class="cls-3" d="m604.36,1675.44v-235.61h247.24v235.61h-247.24Zm5.5-230.37v225.13s236.25,0,236.25,0v-225.13s-236.25,0-236.25,0Z"/>
      </g>
      <g>
        <rect class="cls-22" x="612.8" y="1206.39" width="230.37" height="241.75" transform="translate(2055.25 599.28) rotate(90)"/>
        <path class="cls-3" d="m604.36,1445.07v-235.61h247.24v235.61h-247.24Zm5.5-230.37v225.13s236.25,0,236.25,0v-225.13s-236.25,0-236.25,0Z"/>
      </g>
      <g>
        <rect class="cls-22" x="612.8" y="976.02" width="230.37" height="241.75" transform="translate(1824.87 368.9) rotate(90)"/>
        <path class="cls-3" d="m604.36,1214.69v-235.61h247.24v235.61h-247.24Zm5.5-230.37v225.13s236.25,0,236.25,0v-225.13s-236.25,0-236.25,0Z"/>
      </g>
      <g>
        <rect class="cls-22" x="612.8" y="745.64" width="230.37" height="241.75" transform="translate(1594.5 138.53) rotate(90)"/>
        <path class="cls-3" d="m604.36,984.32v-235.61h247.24v235.61h-247.24Zm5.5-230.37v225.13s236.25,0,236.25,0v-225.13s-236.25,0-236.25,0Z"/>
      </g>
      <g>
        <rect class="cls-22" x="612.8" y="515.27" width="230.37" height="241.75" transform="translate(1364.13 -91.84) rotate(90)"/>
        <path class="cls-3" d="m604.36,753.95v-235.61h247.24v235.61h-247.24Zm5.5-230.37v225.13s236.25,0,236.25,0v-225.13s-236.25,0-236.25,0Z"/>
      </g>
      <g>
        <rect class="cls-1" x="612.8" y="284.9" width="230.37" height="241.75" transform="translate(1133.76 -322.21) rotate(90)"/>
        <path class="cls-1" d="m604.36,523.58v-235.61h247.24v235.61h-247.24Zm5.5-230.37v225.13s236.25,0,236.25,0v-225.13s-236.25,0-236.25,0Z"/>
      </g>
      <g>
        <rect class="cls-14" x="612.8" y="54.53" width="230.37" height="241.75" transform="translate(903.38 -552.59) rotate(90)"/>
        <path class="cls-14" d="m604.36,293.21V57.59h247.24v235.61h-247.24Zm5.5-230.37v225.13s236.25,0,236.25,0V62.83s-236.25,0-236.25,0Z"/>
      </g>
      <g>
        <rect class="cls-22" x="699.19" y="-89.46" width="57.59" height="241.75" transform="translate(759.4 -696.57) rotate(90)"/>
        <path class="cls-3" d="m604.36,62.83V0h247.24v62.83h-247.24Zm5.5-57.59v52.35s236.25,0,236.25,0V5.24s-236.25,0-236.25,0Z"/>
      </g>
      <g>
        <rect class="cls-22" x="371.05" y="1436.76" width="230.37" height="241.75" transform="translate(2043.87 1071.39) rotate(90)"/>
        <path class="cls-3" d="m362.62,1675.44v-235.61h247.24v235.61h-247.24Zm5.5-230.37v225.13s236.25,0,236.25,0v-225.13s-236.25,0-236.25,0Z"/>
      </g>
      <g>
        <rect class="cls-22" x="371.05" y="1206.39" width="230.37" height="241.75" transform="translate(1813.5 841.02) rotate(90)"/>
        <path class="cls-3" d="m362.62,1445.07v-235.61h247.24v235.61h-247.24Zm5.5-230.37v225.13s236.25,0,236.25,0v-225.13s-236.25,0-236.25,0Z"/>
      </g>
      <g>
        <rect class="cls-22" x="371.05" y="976.02" width="230.37" height="241.75" transform="translate(1583.13 610.65) rotate(90)"/>
        <path class="cls-3" d="m362.62,1214.69v-235.61h247.24v235.61h-247.24Zm5.5-230.37v225.13s236.25,0,236.25,0v-225.13s-236.25,0-236.25,0Z"/>
      </g>
      <g>
        <rect class="cls-22" x="371.05" y="745.64" width="230.37" height="241.75" transform="translate(1352.76 380.28) rotate(90)"/>
        <path class="cls-3" d="m362.62,984.32v-235.61h247.24v235.61h-247.24Zm5.5-230.37v225.13s236.25,0,236.25,0v-225.13s-236.25,0-236.25,0Z"/>
      </g>
      <g>
        <rect class="cls-22" x="371.05" y="515.27" width="230.37" height="241.75" transform="translate(1122.38 149.9) rotate(90)"/>
        <path class="cls-3" d="m362.62,753.95v-235.61h247.24v235.61h-247.24Zm5.5-230.37v225.13s236.25,0,236.25,0v-225.13s-236.25,0-236.25,0Z"/>
      </g>
      <g>
        <rect class="cls-7" x="371.05" y="284.9" width="230.37" height="241.75" transform="translate(892.01 -80.47) rotate(90)"/>
        <path class="cls-7" d="m362.62,523.58v-235.61h247.24v235.61h-247.24Zm5.5-230.37v225.13s236.25,0,236.25,0v-225.13s-236.25,0-236.25,0Z"/>
      </g>
      <g>
        <rect class="cls-17" x="371.05" y="54.53" width="230.37" height="241.75" transform="translate(661.64 -310.84) rotate(90)"/>
        <path class="cls-17" d="m362.62,293.21V57.59h247.24v235.61h-247.24Zm5.5-230.37v225.13s236.25,0,236.25,0V62.83s-236.25,0-236.25,0Z"/>
      </g>
      <g>
        <rect class="cls-22" x="457.44" y="-89.46" width="57.59" height="241.75" transform="translate(517.66 -454.82) rotate(90)"/>
        <path class="cls-3" d="m362.62,62.83V0h247.24v62.83h-247.24Zm5.5-57.59v52.35s236.25,0,236.25,0V5.24s-236.25,0-236.25,0Z"/>
      </g>
      <g>
        <rect class="cls-22" x="129.31" y="1436.76" width="230.37" height="241.74" transform="translate(1802.13 1313.14) rotate(90)"/>
        <path class="cls-3" d="m120.87,1675.44v-235.61h247.24v235.61H120.87Zm5.5-230.37v225.13s236.25,0,236.25,0v-225.13s-236.25,0-236.25,0Z"/>
      </g>
      <g>
        <rect class="cls-22" x="129.31" y="1206.39" width="230.37" height="241.74" transform="translate(1571.75 1082.77) rotate(90)"/>
        <path class="cls-3" d="m120.87,1445.07v-235.61h247.24v235.61H120.87Zm5.5-230.37v225.13s236.25,0,236.25,0v-225.13s-236.25,0-236.25,0Z"/>
      </g>
      <g>
        <rect class="cls-22" x="129.31" y="976.02" width="230.37" height="241.74" transform="translate(1341.38 852.39) rotate(90)"/>
        <path class="cls-3" d="m120.87,1214.69v-235.61h247.24v235.61H120.87Zm5.5-230.37v225.13s236.25,0,236.25,0v-225.13s-236.25,0-236.25,0Z"/>
      </g>
      <g>
        <rect class="cls-22" x="129.31" y="745.64" width="230.37" height="241.74" transform="translate(1111.01 622.02) rotate(90)"/>
        <path class="cls-3" d="m120.87,984.32v-235.61h247.24v235.61H120.87Zm5.5-230.37v225.13s236.25,0,236.25,0v-225.13s-236.25,0-236.25,0Z"/>
      </g>
      <g>
        <rect class="cls-22" x="129.31" y="515.27" width="230.37" height="241.74" transform="translate(880.64 391.65) rotate(90)"/>
        <path class="cls-3" d="m120.87,753.95v-235.61h247.24v235.61H120.87Zm5.5-230.37v225.13s236.25,0,236.25,0v-225.13s-236.25,0-236.25,0Z"/>
      </g>
      <g>
        <rect class="cls-29" x="129.31" y="284.9" width="230.37" height="241.74" transform="translate(650.27 161.28) rotate(90)"/>
        <path class="cls-29" d="m120.87,523.58v-235.61h247.24v235.61H120.87Zm5.5-230.37v225.13s236.25,0,236.25,0v-225.13s-236.25,0-236.25,0Z"/>
      </g>
      <g>
        <rect class="cls-15" x="129.31" y="54.53" width="230.37" height="241.74" transform="translate(419.89 -69.09) rotate(90)"/>
        <path class="cls-15" d="m120.87,293.21V57.59h247.24v235.61H120.87Zm5.5-230.37v225.13s236.25,0,236.25,0V62.83s-236.25,0-236.25,0Z"/>
      </g>
      <g>
        <rect class="cls-22" x="215.7" y="-89.46" width="57.59" height="241.74" transform="translate(275.91 -213.08) rotate(90)"/>
        <path class="cls-3" d="m120.87,62.83V0h247.24v62.83H120.87Zm5.5-57.59v52.35s236.25,0,236.25,0V5.24s-236.25,0-236.25,0Z"/>
      </g>
      <g>
        <rect class="cls-22" x="-52" y="1497.2" width="230.37" height="120.87" transform="translate(1620.82 1494.45) rotate(90)"/>
        <path class="cls-3" d="m0,1675.44v-235.61h126.37v235.61H0Zm5.5-230.37v225.13s115.37,0,115.37,0v-225.13s-115.37,0-115.37,0Z"/>
      </g>
      <g>
        <rect class="cls-22" x="-52" y="1266.82" width="230.37" height="120.87" transform="translate(1390.45 1264.07) rotate(90)"/>
        <path class="cls-3" d="m0,1445.07v-235.61h126.37v235.61H0Zm5.5-230.37v225.13s115.37,0,115.37,0v-225.13s-115.37,0-115.37,0Z"/>
      </g>
      <g>
        <rect class="cls-22" x="-52" y="1036.45" width="230.37" height="120.87" transform="translate(1160.07 1033.7) rotate(90)"/>
        <path class="cls-3" d="m0,1214.69v-235.61h126.37v235.61H0Zm5.5-230.37v225.13s115.37,0,115.37,0v-225.13s-115.37,0-115.37,0Z"/>
      </g>
      <g>
        <rect class="cls-22" x="-52" y="806.08" width="230.37" height="120.87" transform="translate(929.7 803.33) rotate(90)"/>
        <path class="cls-3" d="m0,984.32v-235.61h126.37v235.61H0Zm5.5-230.37v225.13s115.37,0,115.37,0v-225.13s-115.37,0-115.37,0Z"/>
      </g>
      <g>
        <rect class="cls-22" x="-52" y="575.71" width="230.37" height="120.87" transform="translate(699.33 572.96) rotate(90)"/>
        <path class="cls-3" d="m0,753.95v-235.61h126.37v235.61H0Zm5.5-230.37v225.13s115.37,0,115.37,0v-225.13s-115.37,0-115.37,0Z"/>
      </g>
      <g>
        <rect class="cls-21" x="-52" y="345.34" width="230.37" height="120.87" transform="translate(468.96 342.59) rotate(90)"/>
        <path class="cls-21" d="m0,523.58v-235.61h126.37v235.61H0Zm5.5-230.37v225.13s115.37,0,115.37,0v-225.13s-115.37,0-115.37,0Z"/>
      </g>
      <g>
        <rect class="cls-27" x="-52" y="114.96" width="230.37" height="120.87" transform="translate(238.59 112.21) rotate(90)"/>
        <path class="cls-27" d="m0,293.21V57.59h126.37v235.61H0ZM5.5,62.83v225.13s115.37,0,115.37,0V62.83s-115.37,0-115.37,0Z"/>
      </g>
      <g>
        <rect class="cls-22" x="34.39" y="-29.02" width="57.59" height="120.87" transform="translate(94.6 -31.77) rotate(90)"/>
        <path class="cls-3" d="m0,62.83V0h126.37v62.83H0ZM5.5,5.24v52.35s115.37,0,115.37,0V5.24s-115.37,0-115.37,0Z"/>
      </g>
    </g>
    <g class="cls-4">
      <rect class="cls-5" x="929.53" y="143.76" width="115.19" height="120.87" transform="translate(1191.32 -782.93) rotate(90)"/>
      <rect class="cls-25" x="935.29" y="149.8" width="103.67" height="108.79" transform="translate(1191.32 -782.93) rotate(90)"/>
      <g>
        <path class="cls-30" d="m939.38,162.19h0c0-1.58,1.35-2.87,3.01-2.87h89.47c1.65,0,3.01,1.29,3.01,2.87h0c0,1.58-1.35,2.87-3.01,2.87h-89.47c-1.65,0-3.01-1.29-3.01-2.87Z"/>
        <path class="cls-30" d="m939.38,174.19h0c0-1.58,1.35-2.87,3.01-2.87h89.47c1.65,0,3.01,1.29,3.01,2.87h0c0,1.58-1.35,2.87-3.01,2.87h-89.47c-1.65,0-3.01-1.29-3.01-2.87Z"/>
        <path class="cls-30" d="m939.38,186.19h0c0-1.58,1.35-2.87,3.01-2.87h89.47c1.65,0,3.01,1.29,3.01,2.87h0c0,1.58-1.35,2.87-3.01,2.87h-89.47c-1.65,0-3.01-1.29-3.01-2.87Z"/>
        <path class="cls-30" d="m939.38,198.2h0c0-1.58,1.35-2.86,3.01-2.86h89.47c1.65,0,3.01,1.29,3.01,2.86h0c0,1.58-1.35,2.87-3.01,2.87h-89.47c-1.65,0-3.01-1.29-3.01-2.87Z"/>
        <path class="cls-30" d="m939.38,210.2h0c0-1.58,1.35-2.87,3.01-2.87h89.47c1.65,0,3.01,1.29,3.01,2.87h0c0,1.58-1.35,2.87-3.01,2.87h-89.47c-1.65,0-3.01-1.29-3.01-2.87Z"/>
        <path class="cls-30" d="m939.38,222.2h0c0-1.58,1.35-2.87,3.01-2.87h89.47c1.65,0,3.01,1.29,3.01,2.87h0c0,1.58-1.35,2.87-3.01,2.87h-89.47c-1.65,0-3.01-1.29-3.01-2.87Z"/>
        <path class="cls-30" d="m939.38,234.2h0c0-1.58,1.35-2.87,3.01-2.87h89.47c1.65,0,3.01,1.29,3.01,2.87h0c0,1.58-1.35,2.87-3.01,2.87h-89.47c-1.65,0-3.01-1.29-3.01-2.87Z"/>
        <path class="cls-30" d="m939.38,246.2h0c0-1.58,1.35-2.87,3.01-2.87h89.47c1.65,0,3.01,1.29,3.01,2.87h0c0,1.58-1.35,2.87-3.01,2.87h-89.47c-1.65,0-3.01-1.29-3.01-2.87Z"/>
      </g>
    </g>
  </g>
  <g id="Layer_1" data-name="Layer 1">
    <g id="LWPOLYLINE" class="cls-8">
      <rect class="cls-2" x="1090.6" y="520.96" width="120.87" height="1151.86"/>
    </g>
    <g id="LWPOLYLINE-2" data-name="LWPOLYLINE">
      <rect class="cls-12" x="2.75" y="2.62" width="1087.85" height="115.19"/>
    </g>
    <g>
      <g class="cls-8">
        <g id="LWPOLYLINE-3" data-name="LWPOLYLINE">
          <polygon class="cls-20" points="2966.19 1689.21 2966.19 1724.49 2955.03 1724.49 2955.03 1777.42 3010.83 1777.42 3010.83 1689.21 2966.19 1689.21 2966.19 1689.21"/>
        </g>
        <g id="LWPOLYLINE-4" data-name="LWPOLYLINE">
          <polygon class="cls-20" points="2162.66 1689.21 2162.66 1724.49 2173.82 1724.49 2173.82 1777.42 2118.02 1777.42 2118.02 1689.21 2162.66 1689.21 2162.66 1689.21"/>
        </g>
        <g id="LWPOLYLINE-5" data-name="LWPOLYLINE">
          <rect class="cls-20" x="2921.55" y="1054.09" width="44.64" height="635.11"/>
        </g>
      </g>
      <g id="ARC">
        <path class="cls-3" d="m2173.86,1699.79c0-22.1,1.45-44.38,4.3-66.22l5.05.41c-2.84,21.71-4.28,43.85-4.28,65.81h-5.08Zm7.66-88.17c3.83-21.85,9.15-43.76,15.83-65.12l4.93.96c-6.64,21.23-11.93,43-15.73,64.71l-5.03-.55Zm23.01-86.5c7.63-21.19,16.77-42.31,27.17-62.76l4.71,1.5c-10.33,20.32-19.42,41.31-26.99,62.36l-4.88-1.1Zm38.08-83.19c11.29-20.13,24.06-40.04,37.96-59.16l4.4,2c-13.81,19-26.51,38.78-37.72,58.78l-4.64-1.63Zm52.35-78.16c14.71-18.7,30.85-37.01,47.96-54.43l4.01,2.46c-17,17.31-33.04,35.51-47.66,54.09l-4.31-2.12Zm65.52-71.67c17.84-16.92,37.02-33.3,56.99-48.68l3.54,2.87c-19.85,15.29-38.9,31.56-56.64,48.38l-3.9-2.57Zm77.36-63.83c20.63-14.83,42.48-28.96,64.92-42.01l3.01,3.23c-22.3,12.97-44.01,27.02-64.51,41.75l-3.42-2.97Zm87.72-54.8c23.03-12.44,47.12-24.06,71.62-34.53l2.41,3.53c-24.35,10.4-48.29,21.95-71.17,34.31l-2.87-3.31Zm96.41-44.68c24.99-9.81,50.9-18.67,77.01-26.34l1.77,3.76c-25.94,7.63-51.69,16.43-76.52,26.18l-2.26-3.59Zm103.4-33.69c26.44-6.95,53.66-12.87,80.9-17.6l1.09,3.92c-27.06,4.7-54.11,10.58-80.38,17.49l-1.6-3.81Zm108.32-21.96c27.37-3.96,55.36-6.84,83.2-8.54l.39,4c-27.66,1.69-55.48,4.55-82.67,8.49l-.91-3.95Zm111.13-9.87c11.63-.39,23.44-.59,35.12-.59v4.01c-11.6,0-23.34.2-34.9.59l-.22-4.01Z"/>
      </g>
      <g id="LWPOLYLINE-6" data-name="LWPOLYLINE">
        <polygon class="cls-6" points="2979.92 1699.79 2979.92 1735.08 2968.76 1735.08 2968.76 1788.01 3024.56 1788.01 3024.56 1699.79 2979.92 1699.79 2979.92 1699.79"/>
      </g>
      <g id="LWPOLYLINE-7" data-name="LWPOLYLINE">
        <polygon class="cls-6" points="2176.39 1699.79 2176.39 1735.08 2187.56 1735.08 2187.56 1788.01 2131.75 1788.01 2131.75 1699.79 2176.39 1699.79 2176.39 1699.79"/>
      </g>
      <g id="LWPOLYLINE-8" data-name="LWPOLYLINE">
        <rect class="cls-6" x="2935.28" y="1064.68" width="44.64" height="635.11"/>
      </g>
    </g>
    <g>
      <path class="cls-10" d="m607.95,239.25c21.37-21.82,20.14-56.01-2.76-76.38-.99-.88-2.01-1.72-3.06-2.53-16.3-7.92-31.82-17.2-46.39-27.75-2.61-4.64-3.97-9.82-3.97-15.08v-10.11h0c.74-.52,1.45-1.08,2.11-1.66h32.81c4.01,0,7.25-3.09,7.25-6.91v-21.89c0-3.82-3.25-6.91-7.25-6.91h-32.82c-1.57-1.38-3.3-2.53-5.13-3.47v-32.82h1.44s0-10.72,0-10.72h1.96c.56,0,1.1-.22,1.48-.61l18.27-18.32c.36-.36.56-.84.56-1.34h-71.61c0,.5.2.98.56,1.34l18.27,18.32c.39.39.92.61,1.48.61h1.97v10.72s1.43,0,1.43,0v32.83c-1.03.53-2.05,1.11-3.02,1.8-.74.52-1.44,1.08-2.11,1.66h-32.81c-4.01,0-7.25,3.09-7.25,6.91v21.89c0,3.82,3.25,6.91,7.25,6.91h32.83c.67.58,1.36,1.15,2.09,1.66h0v10.11c0,5.26-1.36,10.44-3.97,15.08-14.56,10.55-30.09,19.84-46.39,27.75-24.36,18.75-28.16,52.78-8.48,75.99.85,1,1.74,1.98,2.66,2.92,17.96,19.53,44.05,30.51,71.29,30,27.24.51,53.34-10.47,71.29-30Z"/>
      <rect class="cls-16" x="534.59" y="40.64" width="24.18" height="36.29"/>
      <rect class="cls-16" x="533.15" y="29.92" width="27.05" height="10.72"/>
      <path class="cls-16" d="m562.17,29.92h-1.96s-27.05,0-27.05,0h-1.97c-.56,0-1.1-.22-1.48-.61l-18.27-18.32c-.36-.36-.56-.84-.56-1.34V2.62h71.61v7.02c0,.5-.2.98-.56,1.34l-18.27,18.32c-.39.39-.92.61-1.48.61Z"/>
      <path class="cls-16" d="m496.64,112.64c-4.01,0-7.25-3.09-7.25-6.91v-21.89c0-3.82,3.25-6.91,7.25-6.91h100.07c4.01,0,7.25,3.1,7.25,6.91v21.89c0,3.82-3.25,6.91-7.25,6.91h-100.07Z"/>
      <path class="cls-16" d="m561.79,114.31c11.31-7.95,13.72-23.14,5.37-33.92-8.35-10.78-24.28-13.07-35.6-5.12-11.31,7.95-13.72,23.14-5.37,33.92,1.51,1.95,3.32,3.68,5.37,5.12h30.22Z"/>
      <path class="cls-16" d="m546.68,80.39c8.35,0,15.11,6.45,15.11,14.4v29.63c0,5.26,1.36,10.44,3.97,15.08,14.56,10.55,30.09,19.84,46.39,27.75,1.05.81,2.07,1.66,3.06,2.54,22.89,20.36,24.13,54.56,2.76,76.38-17.96,19.53-44.05,30.51-71.3,30-27.24.51-53.33-10.47-71.29-30-.92-.94-1.81-1.92-2.66-2.92-19.68-23.22-15.88-57.24,8.48-75.99,16.3-7.91,31.82-17.2,46.39-27.75,2.61-4.64,3.97-9.81,3.97-15.08v-29.63c0-7.95,6.77-14.4,15.11-14.4Z"/>
    </g>
    <path class="cls-9" d="m1037.18,1558.06l35.9-34.21c1.18-1.12,1.18-2.95,0-4.07l-380.34-362.45c-1.18-1.12-3.09-1.12-4.27,0l-35.9,34.21-21.37-20.36,48.72-46.43c5.9-5.62,15.47-5.62,21.37,0l405.98,386.88c5.9,5.62,5.9,14.74,0,20.36l-48.72,46.43-21.37-20.36Z"/>
    <g id="LWPOLYLINE-9" data-name="LWPOLYLINE" class="cls-8">
      <path class="cls-20" d="m598.29,1243.26c-5.9,5.62-15.47,5.62-21.37,0-5.9-5.62-5.9-14.74,0-20.36l40.6-38.69,21.37,20.36-40.6,38.69h0Z"/>
    </g>
    <g id="LWPOLYLINE-10" data-name="LWPOLYLINE" class="cls-8">
      <polygon class="cls-20" points="1044.87 1591.46 1036.33 1599.6 1014.96 1579.24 1023.51 1571.09 1044.87 1591.46"/>
    </g>
    <g id="LWPOLYLINE-11" data-name="LWPOLYLINE" class="cls-8">
      <rect class="cls-20" x="1132.91" y="518.6" width="12.09" height="345.56"/>
    </g>
    <g id="LWPOLYLINE-12" data-name="LWPOLYLINE" class="cls-8">
      <polygon class="cls-20" points="1141.46 1662.32 543.17 1092.18 534.62 1100.32 1132.91 1670.46 1141.46 1662.32"/>
    </g>
    <g id="LWPOLYLINE-13" data-name="LWPOLYLINE" class="cls-8">
      <polygon class="cls-20" points="1053.85 1595.12 1051.28 1597.57 1017.1 1564.99 1019.66 1562.54 1053.85 1595.12"/>
    </g>
    <g id="LWPOLYLINE-14" data-name="LWPOLYLINE" class="cls-8">
      <polygon class="cls-20" points="1062.4 1586.98 1064.96 1584.53 1030.77 1551.95 1028.21 1554.4 1062.4 1586.98"/>
    </g>
    <g id="LWPOLYLINE-15" data-name="LWPOLYLINE" class="cls-8">
      <polygon class="cls-20" points="613.68 1175.66 611.11 1178.1 645.3 1210.68 647.87 1208.24 613.68 1175.66"/>
    </g>
    <g id="LWPOLYLINE-16" data-name="LWPOLYLINE" class="cls-8">
      <polygon class="cls-20" points="622.23 1167.52 624.79 1165.07 658.98 1197.65 656.41 1200.09 622.23 1167.52"/>
    </g>
    <g>
      <path class="cls-9" d="m1881,117.81v163.3s0-163.3,0-163.3Z"/>
      <path class="cls-9" d="m1878.09,117.81h2.91s-2.91,0-2.91,0Z"/>
      <polygon class="cls-9" points="1881 117.81 1881 281.1 1888.43 286.17 1891.69 289.43 1895.87 295.31 1898.65 301.66 1900.11 308.76 1900.12 314.97 1893.63 795.88 1891.66 820.56 1887.95 835.6 1884.46 845.31 1878.09 858.67 1871.06 870.01 1862.81 880.68 1853.25 890.68 1843.36 899.13 1831.95 907.07 1820.25 913.59 1805.86 919.73 1793.49 923.58 1781.63 926.15 1571.71 926.15 1558.95 923.34 1547.44 919.72 1531.19 912.63 1521.1 906.9 1508.41 897.9 1499.8 890.41 1490.53 880.68 1483.28 871.43 1474.24 856.8 1469.4 846.58 1464.44 832.45 1461.88 821.63 1460.07 808.23 1459.7 795.88 1453.22 314.97 1453.4 307.32 1454.47 302.35 1457.47 295.31 1461.48 289.62 1466.7 284.69 1472.34 281.1 1472.34 117.81 1881 117.81 1881 117.81 1881 117.81"/>
      <polygon class="cls-9" points="1900.12 314.97 1900.11 315.57 1900.11 308.76 1900.12 314.97"/>
      <polygon class="cls-9" points="1900.11 308.76 1900.11 315.57 1898.65 423.86 1900.11 308.76"/>
      <path class="cls-9" d="m1881,852.57l-2.91,6.1,2.91-6.1Z"/>
      <path class="cls-9" d="m1878.09,858.67l-7.03,11.35,7.03-11.35Z"/>
      <path class="cls-9" d="m1871.06,870.01l-8.25,10.66,8.25-10.66Z"/>
      <path class="cls-9" d="m1862.81,880.68l-9.56,10.01,9.56-10.01Z"/>
      <path class="cls-9" d="m1853.25,890.68l-9.89,8.45,9.89-8.45Z"/>
      <path class="cls-9" d="m1843.36,899.13l-11.41,7.94,11.41-7.94Z"/>
      <path class="cls-9" d="m1831.95,907.07l-11.7,6.52,11.7-6.52Z"/>
      <path class="cls-9" d="m1820.25,913.59l-14.39,6.14,14.39-6.14Z"/>
      <path class="cls-9" d="m1805.86,919.73l-12.37,3.85,12.37-3.85Z"/>
      <path class="cls-9" d="m1793.49,923.58l-11.87,2.57,11.87-2.57Z"/>
      <polygon class="cls-9" points="1453.4 307.32 1454.47 407.96 1453.4 328.02 1453.4 307.32"/>
      <polygon class="cls-9" points="1453.4 307.32 1453.4 328.02 1453.22 314.97 1453.4 307.32"/>
      <g id="WIPEOUT">
        <polygon class="cls-25" points="1918.41 324.46 1918.41 325.06 1918.41 318.24 1918.41 324.46"/>
        <polygon class="cls-25" points="1918.41 318.24 1918.41 325.06 1916.95 433.35 1918.41 318.24"/>
        <path class="cls-25" d="m1899.3,117.81v172.78s0-172.78,0-172.78Z"/>
        <path class="cls-25" d="m1896.39,117.81h2.91s-2.91,0-2.91,0Z"/>
        <path class="cls-25" d="m1899.3,862.05l-2.91,6.1,2.91-6.1Z"/>
        <path class="cls-25" d="m1896.39,868.15l-7.03,11.34,7.03-11.34Z"/>
        <path class="cls-25" d="m1889.36,879.5l-8.25,10.66,8.25-10.66Z"/>
        <path class="cls-25" d="m1881.11,890.16l-9.56,10.01,9.56-10.01Z"/>
        <path class="cls-25" d="m1871.54,900.17l-9.89,8.45,9.89-8.45Z"/>
        <path class="cls-25" d="m1861.66,908.62l-11.41,7.93,11.41-7.93Z"/>
        <path class="cls-25" d="m1850.25,916.55l-11.71,6.52,11.71-6.52Z"/>
        <path class="cls-25" d="m1838.55,923.07l-14.39,6.14,14.39-6.14Z"/>
        <path class="cls-25" d="m1824.16,929.22l-12.37,3.85,12.37-3.85Z"/>
        <path class="cls-25" d="m1811.79,933.06l-11.87,2.57,11.87-2.57Z"/>
        <polygon class="cls-25" points="1471.69 316.81 1472.77 417.44 1471.69 337.5 1471.69 316.81"/>
        <polygon class="cls-25" points="1471.69 316.81 1471.69 337.5 1471.52 324.46 1471.69 316.81"/>
        <polygon class="cls-19" points="1899.3 117.81 1899.3 290.59 1906.73 295.65 1909.99 298.92 1914.17 304.8 1916.95 311.14 1918.41 318.24 1918.41 324.46 1911.93 805.37 1909.96 830.04 1906.25 845.08 1902.76 854.79 1896.39 868.15 1889.36 879.5 1881.11 890.16 1871.54 900.17 1861.66 908.62 1850.25 916.55 1838.55 923.07 1824.16 929.22 1811.79 933.06 1799.92 935.63 1590.01 935.63 1577.25 932.83 1565.74 929.2 1549.49 922.11 1539.4 916.38 1526.71 907.39 1518.1 899.89 1508.83 890.16 1501.57 880.92 1492.54 866.29 1487.7 856.07 1482.74 841.93 1480.17 831.12 1478.36 817.71 1478 805.37 1471.52 324.46 1471.69 316.81 1472.77 311.84 1475.76 304.8 1479.77 299.11 1484.99 294.18 1490.63 290.59 1490.63 117.81 1899.3 117.81 1899.3 117.81 1899.3 117.81"/>
      </g>
      <path class="cls-26" d="m1490.63,117.81v172.78c0,19.08,16.24,34.56,36.26,34.56h336.14c20.03,0,36.26-15.47,36.26-34.56V117.81s-408.66,0-408.66,0Z"/>
      <path class="cls-19" d="m1881.17,117.81v172.78c0,9.54-8.12,17.28-18.13,17.28h-336.14c-10.01,0-18.13-7.74-18.13-17.28V117.81h372.4Z"/>
      <g id="CIRCLE">
        <path class="cls-3" d="m1694.97,184.62c18.03,0,32.64,13.92,32.64,31.1,0,17.18-14.61,31.1-32.64,31.1-18.02,0-32.64-13.92-32.64-31.1,0-17.18,14.61-31.1,32.64-31.1h0Z"/>
      </g>
      <path class="cls-25" d="m1694.97,900.52c-18.01.02-36.01-1.1-53.86-3.37-41.9-6.46-76.68-34.34-90.54-72.57-14.5-72.58-14.77-147.1-.79-219.78,10.71-33.1,38.08-58.91,72.92-68.78,23.66-5.44,47.95-7.98,72.28-7.56,24.33-.42,48.62,2.12,72.28,7.56,34.85,9.86,62.21,35.67,72.92,68.78,13.97,72.68,13.71,147.19-.79,219.78-13.86,38.23-48.65,66.11-90.54,72.57-17.86,2.27-35.85,3.4-53.87,3.37Z"/>
      <path class="cls-9" d="m1694.96,900.51c-18.01.02-36.01-1.09-53.86-3.37-34.82-5.37-64.72-25.53-81.78-54.11,17.55,20.58,42.67,34.78,71.04,39.15,17.85,2.27,35.85,3.4,53.86,3.36,18.01.03,36.01-1.09,53.86-3.36,41.91-6.46,76.69-34.35,90.55-72.58,14.5-72.58,14.77-147.11.8-219.78-2.3-7.11-5.37-13.87-9.1-20.21,8.82,10.24,15.63,22.15,19.85,35.19,13.97,72.67,13.71,147.19-.78,219.78-13.86,38.23-48.65,66.11-90.55,72.57-17.87,2.28-35.85,3.4-53.87,3.37Z"/>
      <path class="cls-3" d="m1694.97,639.91c-5.45.01-10.88-.79-16.08-2.37-17.47-3.96-32.01-15.45-39.31-31.09-7-23.35-10.56-47.53-10.58-71.81,21.65-4.49,43.79-6.57,65.96-6.19,22.17-.38,44.31,1.69,65.96,6.19-.01,24.28-3.58,48.46-10.58,71.81-7.3,15.64-21.84,27.12-39.31,31.09-5.2,1.58-10.63,2.38-16.08,2.37Z"/>
      <rect class="cls-20" x="1749.27" y="941.72" width="5.5" height=".14"/>
      <rect class="cls-20" x="1881.19" y="941.72" width="5.5" height=".14"/>
      <g id="CIRCLE-2" data-name="CIRCLE">
        <path class="cls-28" d="m1694.97,190.37c14.69,0,26.59,11.34,26.59,25.34,0,13.99-11.91,25.34-26.59,25.34s-26.59-11.35-26.59-25.34c0-14,11.91-25.34,26.59-25.34h0Z"/>
      </g>
    </g>
    <path class="cls-9" d="m2120.94,177.63h-56.62s0-54.42,0-54.42h0c4.36-.27,8.72-.67,13.06-1.21.48-.06.84-.45.84-.91v-10.83s-54.39,0-54.39,0v10.83c0,.46.36.85.84.91,4.34.54,8.69.94,13.06,1.21v54.43s-57.12,0-57.12,0v32.33s140.33,0,140.33,0v-32.33Z"/>
    <g>
      <rect class="cls-26" x="2044.28" y="126.86" width="26.59" height="73.97"/>
      <path class="cls-25" d="m2083.94,129.72c-4.34.54-8.69.94-13.06,1.21h-26.59c-4.36-.27-8.72-.68-13.06-1.21-.48-.06-.84-.45-.84-.91v-10.83s54.39,0,54.39,0v10.83c0,.46-.36.85-.84.91Z"/>
      <rect class="cls-19" x="2041.17" y="131.35" width="32.33" height="140.33" transform="translate(2258.85 -1855.82) rotate(90)"/>
    </g>
    <g>
      <g class="cls-8">
        <path class="cls-20" d="m1346.82,318.82v-8.06s-.09,0-.09,0c.05-.27.09-.55.09-.84v-37.14s-3.74-41.36-3.74-41.36h.08s5.48-1.25,5.48-1.25c2.11-1.19,3.33-3.42,3.14-5.75-.31-15.51-3.29-30.87-8.81-45.46h-2.05s-1.84,0-1.84,0h-.06l-.26-4h11.7s0-58.12,0-58.12l11.96-1.75h0v-1.97s-53.02,0-53.02,0h0s-12.08,0-12.08,0h0s-11.95,0-11.95,0v1.97s.01,0,.01,0l11.94,1.75v58.12s11.7,0,11.7,0l-.26,4h-.08s-3.86,0-3.86,0c-5.53,14.59-8.5,29.95-8.82,45.46-.19,2.33,1.03,4.56,3.14,5.75l5.48,1.25h.08s-3.74,41.36-3.74,41.36v37.98s0-.84,0-.84c0,.29.03.57.09.84h-.09s0,8.06,0,8.06c0,2.54,2.16,4.6,4.83,4.6h36.23c2.67,0,4.83-2.06,4.83-4.6Z"/>
      </g>
      <path class="cls-19" d="m1355.28,315.43v8.06c0,2.54-2.16,4.6-4.83,4.6h-36.23c-2.67,0-4.83-2.06-4.83-4.61v-8.06h45.89Z"/>
      <path class="cls-28" d="m1351.62,236.1l5.48-1.25c2.11-1.19,3.33-3.42,3.14-5.75-.31-15.51-3.29-30.87-8.81-45.46h-2.05s-1.84,0-1.84,0h-30.4s-3.87,0-3.87,0c-5.52,14.59-8.5,29.95-8.82,45.46-.19,2.33,1.03,4.56,3.14,5.75l5.48,1.25h38.56Z"/>
      <g id="LINE">
        <rect class="cls-20" x="1309.39" y="280.33" width="45.89" height="1.15"/>
      </g>
      <polygon class="cls-25" points="1317.85 173.88 1315.44 210.71 1349.25 210.71 1346.84 173.89 1317.85 173.88"/>
      <path class="cls-26" d="m1315.44,210.71l-6.04,66.75v37.98s0-.84,0-.84c0,2.54,2.16,4.6,4.83,4.6h36.23c2.67,0,4.83-2.06,4.83-4.6v.84s0-37.98,0-37.98l-6.03-66.75h-33.81Z"/>
      <g id="LINE-2" data-name="LINE">
        <polygon class="cls-20" points="1317.13 184.22 1317.13 183.06 1317.16 184.22 1317.13 184.22"/>
      </g>
      <rect class="cls-26" x="1293.83" y="117.81" width="77.05" height="1.97"/>
      <polygon class="cls-26" points="1370.87 119.77 1348.05 123.11 1316.65 123.11 1293.83 119.77 1370.87 119.77"/>
      <rect class="cls-19" x="1305.78" y="117.8" width="12.08" height="61.83"/>
      <rect class="cls-19" x="1346.84" y="117.81" width="12.08" height="61.83"/>
      <rect class="cls-26" x="1317.85" y="149.72" width="28.98" height="24.17"/>
      <rect class="cls-25" x="1319.04" y="121.92" width="26.61" height="28.98" transform="translate(1468.76 -1195.93) rotate(90)"/>
    </g>
    <g>
      <g id="LWPOLYLINE-17" data-name="LWPOLYLINE" class="cls-8">
        <path class="cls-20" d="m2963.63,117.81v469.39c0,6.36-5.41,11.52-12.09,11.52h-640.63c-6.68,0-12.09-5.16-12.09-11.52V117.81h664.8Z"/>
      </g>
      <g id="LWPOLYLINE-18" data-name="LWPOLYLINE">
        <path class="cls-26" d="m2994.35,117.98v495.13c0,6.36-5.41,11.52-12.09,11.52h-640.63c-6.68,0-12.09-5.16-12.09-11.52V117.98h664.8Z"/>
      </g>
      <g id="LWPOLYLINE-19" data-name="LWPOLYLINE">
        <rect class="cls-19" x="2329.55" y="117.81" width="664.8" height="92.15"/>
      </g>
      <g id="LWPOLYLINE-20" data-name="LWPOLYLINE">
        <path class="cls-25" d="m2958.09,209.96h-592.28s0,362.84,0,362.84c0,3.18,2.71,5.76,6.04,5.76h580.19c3.34,0,6.04-2.58,6.04-5.76V209.96Z"/>
      </g>
      <g id="LWPOLYLINE-21" data-name="LWPOLYLINE" class="cls-8">
        <path class="cls-20" d="m2952.04,578.55h-580.19c-3.34,0-6.04-2.58-6.04-5.76v-10.37h574.15c3.34,0,6.04-2.58,6.04-5.76V209.96h12.09v362.84c0,3.18-2.71,5.76-6.04,5.76Z"/>
      </g>
      <g>
        <ellipse class="cls-5" cx="2661.95" cy="325.24" rx="51.28" ry="48.87"/>
        <path class="cls-30" d="m2661.95,354.52c-16.97,0-30.72-13.11-30.72-29.28,0-16.17,13.76-29.28,30.72-29.28,16.97,0,30.72,13.11,30.72,29.28,0,16.17-13.76,29.28-30.72,29.28Z"/>
      </g>
      <path class="cls-9" d="m2669.94,279.3c0-.17,0-.34-.01-.51v-100.25c9.96-4.19,17.44-12.74,19.77-23.11h1.99c.33,0,.61-.26.61-.58v-12.67c0-.32-.27-.58-.61-.58h-1.99c-2.83-12.57-13.22-22.47-26.41-25.16v-1.91c0-.32-.27-.58-.6-.58h-13.3c-.33,0-.6.26-.6.58v1.91c-13.19,2.7-23.56,12.59-26.39,25.16h-2.01c-.33,0-.6.26-.6.58v12.67c0,.32.27.58.6.58h2.01c2.33,10.37,9.8,18.91,19.75,23.1v100.26c-.29,7.31,5.7,13.46,13.37,13.74.18,0,.35.01.53.01,7.68,0,13.9-5.93,13.9-13.25Z"/>
      <g>
        <path class="cls-24" d="m2661.96,185.17c19.01,0,34.43-14.69,34.43-32.81,0-18.12-15.41-32.81-34.43-32.81-19.01,0-34.43,14.69-34.43,32.81,0,18.12,15.41,32.81,34.43,32.81Z"/>
        <path class="cls-24" d="m2675.85,168.18v114.45c0,.17,0,.34,0,.5,0,7.32-6.22,13.25-13.9,13.25-.18,0-.35,0-.53,0-7.67-.28-13.65-6.43-13.36-13.74v-114.45s27.79,0,27.79,0Z"/>
        <path class="cls-24" d="m2675.85,166.47v109.37c0,.17,0,.34,0,.5,0,7.32-6.22,13.25-13.9,13.25-.18,0-.35,0-.53,0-7.67-.28-13.65-6.43-13.36-13.74v-109.37s27.79,0,27.79,0Z"/>
        <path class="cls-24" d="m2661.96,174.95c-13.09,0-23.7-10.11-23.7-22.58s10.61-22.58,23.7-22.58c13.09,0,23.7,10.11,23.7,22.58s-10.61,22.58-23.7,22.58Z"/>
        <g>
          <path class="cls-24" d="m2669.2,118.38v24.77c0,1.27,1.08,2.3,2.42,2.3h25.99c.33,0,.6.26.6.58v12.67c0,.32-.27.58-.6.58h-25.99c-1.34,0-2.42,1.03-2.42,2.3v24.76c0,.32-.27.58-.6.58h-13.3c-.33,0-.6-.26-.6-.58v-24.76c0-1.27-1.08-2.3-2.42-2.3h-25.99c-.33,0-.6-.26-.6-.58v-12.67c0-.32.27-.58.6-.58h25.99c1.34,0,2.42-1.03,2.42-2.3v-24.77c0-.32.27-.58.6-.58h13.3c.33,0,.6.26.6.58Z"/>
          <g class="cls-23">
            <path class="cls-24" d="m2627.64,147.32h25.99c1.34,0,2.42-1.03,2.42-2.3v-24.77c0-.32.27-.58.6-.58l12.55-1.3c0-.32-.27-.58-.6-.58h-13.3c-.33,0-.6.26-.6.58v24.77c0,1.27-1.08,2.3-2.42,2.3h-25.99c-.33,0-.6.26-.6.58v12.67c0,.32.27.58.6.58l.74-11.37c0-.32.27-.58.6-.58Z"/>
            <path class="cls-24" d="m2654.67,161.38c0,.06.02.13.02.19v24.76c0,.32.27.58.6.58h.74s-.56-25.16-1.37-25.53Z"/>
            <path class="cls-24" d="m2698.21,147.32v-1.3c0-.32-.27-.58-.6-.58h-25.99c-.38,0-.73-.09-1.05-.24.11,1.18,27.64,2.11,27.64,2.11Z"/>
          </g>
          <g class="cls-8">
            <path class="cls-24" d="m2669.22,143.34c0-.07-.02-.13-.02-.2v-24.77c0-.32-.27-.58-.6-.58,0,0-.18,25.16.63,25.54Z"/>
            <path class="cls-24" d="m2625.69,158.7c0,.32.27.58.6.58h25.99c.38,0,.73.09,1.05.24-.11-1.18-27.64-.81-27.64-.81Z"/>
            <path class="cls-24" d="m2669.2,186.34v-24.76c0-1.27,1.08-2.3,2.42-2.3h25.99c.33,0,.6-.26.6-.58v-12.67c0-.32-1.35,10.8-1.35,10.8,0,.32-.27.58-.61.58h-25.99c-1.34,0-2.42,1.03-2.42,2.3v24.77c0,.32-.27.58-.6.58,0,0-12.28,1.87-11.95,1.87h13.3c.33,0,.6-.26.6-.58Z"/>
          </g>
        </g>
      </g>
    </g>
    <g id="LWPOLYLINE-22" data-name="LWPOLYLINE">
      <rect class="cls-12" x="1211.48" y="2.62" width="1933.96" height="115.19"/>
    </g>
    <g>
      <path class="cls-5" d="m1049.27,1560.42l35.9-34.21c1.18-1.12,1.18-2.95,0-4.07l-380.34-362.45c-1.18-1.12-3.09-1.12-4.27,0l-35.9,34.21-21.37-20.36,48.72-46.43c5.9-5.62,15.47-5.62,21.37,0l405.98,386.88c5.9,5.62,5.9,14.74,0,20.36l-48.72,46.43-21.37-20.36Z"/>
      <g id="LWPOLYLINE-23" data-name="LWPOLYLINE">
        <path class="cls-5" d="m610.38,1245.62c-5.9,5.62-15.47,5.62-21.37,0-5.9-5.62-5.9-14.74,0-20.36l40.6-38.69,21.37,20.36-40.6,38.69h0Z"/>
      </g>
      <g id="LWPOLYLINE-24" data-name="LWPOLYLINE">
        <polygon class="cls-5" points="1056.96 1593.81 1048.42 1601.96 1027.05 1581.6 1035.59 1573.45 1056.96 1593.81"/>
      </g>
      <g id="LWPOLYLINE-25" data-name="LWPOLYLINE" class="cls-11">
        <rect class="cls-19" x="1145" y="520.96" width="12.09" height="345.56"/>
      </g>
      <g id="ARC-2" data-name="ARC">
        <path class="cls-3" d="m544.76,1100.82c17.04-16.23,35.02-31.96,53.43-46.73l3.54,4.01c-18.29,14.68-36.15,30.3-53.08,46.43l-3.89-3.71Zm76.95-64.93c23.78-17.74,48.83-34.45,74.46-49.67l2.91,4.45c-25.47,15.12-50.36,31.72-73.98,49.34l-3.39-4.13Zm100.47-64.5c26.18-14.33,53.47-27.48,81.13-39.07l2.21,4.8c-27.47,11.52-54.59,24.57-80.6,38.81l-2.74-4.54Zm109.08-50.22c28.07-10.64,57.05-19.95,86.14-27.68l1.48,5.05c-28.9,7.67-57.69,16.92-85.58,27.5l-2.03-4.87Zm115.48-34.93c29.37-6.73,59.45-12.02,89.4-15.72l.71,5.2c-29.76,3.68-59.64,8.93-88.82,15.61l-1.29-5.09Zm119.54-18.92c26.15-2.33,52.73-3.51,79.01-3.51,3.94,0,7.92.03,11.83.08l-.08,5.24c-3.89-.05-7.84-.08-11.76-.08-26.1,0-52.51,1.17-78.49,3.48l-.51-5.22Z"/>
      </g>
      <g id="LWPOLYLINE-26" data-name="LWPOLYLINE" class="cls-11">
        <polygon class="cls-19" points="1153.54 1664.67 555.25 1094.53 546.71 1102.68 1145 1672.82 1153.54 1664.67"/>
      </g>
      <g id="LWPOLYLINE-27" data-name="LWPOLYLINE">
        <polygon class="cls-25" points="1065.94 1597.48 1063.37 1599.92 1029.18 1567.34 1031.75 1564.9 1065.94 1597.48"/>
      </g>
      <g id="LWPOLYLINE-28" data-name="LWPOLYLINE">
        <polygon class="cls-25" points="1074.48 1589.33 1077.05 1586.89 1042.86 1554.31 1040.3 1556.75 1074.48 1589.33"/>
      </g>
      <g id="LWPOLYLINE-29" data-name="LWPOLYLINE">
        <polygon class="cls-25" points="625.77 1178.02 623.2 1180.46 657.39 1213.04 659.95 1210.6 625.77 1178.02"/>
      </g>
      <g id="LWPOLYLINE-30" data-name="LWPOLYLINE">
        <polygon class="cls-25" points="634.31 1169.87 636.88 1167.43 671.07 1200.01 668.5 1202.45 634.31 1169.87"/>
      </g>
    </g>
  </g>
</svg>