<?xml version="1.0" encoding="UTF-8"?>
<svg id="Layer_1" data-name="Layer 1" xmlns="http://www.w3.org/2000/svg" viewBox="0 0 93.07 93.07">
  <defs>
    <style>
      .cls-1 {
        fill: #efe7e8;
      }

      .cls-2 {
        fill: #fff;
      }

      .cls-3 {
        fill: #fdfefe;
      }

      .cls-4 {
        fill: #f8fbfd;
      }

      .cls-5 {
        fill: #939598;
      }

      .cls-6 {
        fill: #e6e7e7;
      }

      .cls-7 {
        fill: #f0f0f1;
      }

      .cls-8 {
        fill: #f2f8fb;
      }

      .cls-9 {
        fill: #fefeff;
      }

      .cls-10 {
        fill: #f2f2f3;
      }

      .cls-11 {
        fill: #e5e6e6;
      }

      .cls-12 {
        fill: none;
        stroke: #26281e;
        stroke-linecap: round;
        stroke-linejoin: round;
        stroke-width: .72px;
      }

      .cls-13 {
        fill: #fbfdfe;
      }

      .cls-14 {
        fill: #f6fafc;
      }

      .cls-15 {
        fill: #f3f3f4;
      }

      .cls-16 {
        fill: #e7e8e8;
      }

      .cls-17 {
        fill: #eeeeef;
      }

      .cls-18 {
        fill: #efeff0;
      }

      .cls-19 {
        fill: #f7fbfc;
      }

      .cls-20 {
        fill: #808285;
      }

      .cls-21 {
        fill: #e9eaea;
      }

      .cls-22 {
        fill: #e8e9e9;
      }

      .cls-23 {
        fill: #f9fcfd;
      }

      .cls-24 {
        fill: #e4e5e5;
      }

      .cls-25 {
        fill: #f0f7fa;
      }

      .cls-26 {
        fill: #eaebeb;
      }

      .cls-27 {
        fill: #f4f9fb;
      }

      .cls-28 {
        fill: #f1f8fa;
      }

      .cls-29 {
        fill: #fafcfd;
      }

      .cls-30 {
        fill: #f3f9fb;
      }

      .cls-31 {
        fill: #f5fafc;
      }

      .cls-32 {
        fill: #f1f1f2;
      }

      .cls-33 {
        fill: #ececec;
      }

      .cls-34 {
        fill: #fcfdfe;
      }

      .cls-35 {
        fill: #26281e;
      }

      .cls-36 {
        fill: #ededed;
      }
    </style>
  </defs>
  <rect class="cls-5" x="4.13" y="4.14" width="88.93" height="88.93"/>
  <g>
    <g>
      <polygon class="cls-2" points=".36 89.29 89.29 89.29 89.29 .36 .36 .36 .36 89.29 .36 89.29"/>
      <path class="cls-35" d="m89.29,89.65H.36c-.2,0-.36-.16-.36-.36V.36c0-.2.16-.36.36-.36h88.93c.2,0,.36.16.36.36v88.93c0,.2-.16.36-.36.36Zm-88.57-.72h88.21V.72H.72v88.21Z"/>
    </g>
    <g>
      <path class="cls-35" d="m61.74,84.22c-.2,0-.36-.16-.36-.36s.16-.36.36-.36c12.08,0,21.91-9.83,21.91-21.91,0-.2.16-.36.36-.36s.36.16.36.36c0,12.48-10.15,22.63-22.63,22.63Z"/>
      <path class="cls-35" d="m84.01,62.02c-.2,0-.36-.16-.36-.36V27.99c0-.2.16-.36.36-.36s.36.16.36.36v33.67c0,.2-.16.36-.36.36Z"/>
      <path class="cls-35" d="m84.01,28.27c-.2,0-.36-.16-.36-.36,0-12.08-9.83-21.91-21.91-21.91-.2,0-.36-.16-.36-.36s.16-.36.36-.36c12.48,0,22.63,10.15,22.63,22.63,0,.2-.16.36-.36.36Z"/>
      <path class="cls-35" d="m61.66,6.01H27.84c-.2,0-.36-.16-.36-.36s.16-.36.36-.36h33.82c.2,0,.36.16.36.36s-.16.36-.36.36Z"/>
      <path class="cls-35" d="m5.64,28.28c-.2,0-.36-.16-.36-.36C5.28,15.44,15.44,5.29,27.92,5.29c.2,0,.36.16.36.36s-.16.36-.36.36C15.83,6.01,6,15.83,6,27.92c0,.2-.16.36-.36.36Z"/>
      <path class="cls-35" d="m5.64,62.02c-.2,0-.36-.16-.36-.36V27.99c0-.2.16-.36.36-.36s.36.16.36.36v33.67c0,.2-.16.36-.36.36Z"/>
      <path class="cls-35" d="m27.92,84.22c-12.48,0-22.63-10.15-22.63-22.63,0-.2.16-.36.36-.36s.36.16.36.36c0,12.08,9.83,21.91,21.91,21.91.2,0,.36.16.36.36s-.16.36-.36.36Z"/>
      <path class="cls-35" d="m61.66,84.37H27.84c-.2,0-.36-.16-.36-.36s.16-.36.36-.36h33.82c.2,0,.36.16.36.36s-.16.36-.36.36Z"/>
    </g>
    <g>
      <path class="cls-24" d="m27.85,83.85c-12.24-.04-22.16-9.95-22.2-22.2V27.91C5.65,15.64,15.58,5.68,27.85,5.64h33.9c12.29,0,22.26,9.98,22.27,22.27v33.75c-.04,12.27-10,22.2-22.27,22.2l-.08.15H27.85v-.15Z"/>
      <path class="cls-11" d="m27.94,83.63c-12.17-.04-22.03-9.9-22.07-22.07V28.01C5.87,15.81,15.74,5.9,27.94,5.86h33.7c12.22,0,22.13,9.92,22.14,22.14v33.55c-.04,12.2-9.95,22.07-22.14,22.07l-.08.15H27.94v-.15Z"/>
      <path class="cls-11" d="m28.04,83.41c-12.1-.04-21.91-9.84-21.94-21.94V28.1C6.1,15.97,15.91,6.12,28.04,6.08h33.51c12.15,0,22.01,9.86,22.02,22.02v33.36c-.04,12.13-9.89,21.94-22.02,21.94l-.08.15H28.04v-.15Z"/>
      <path class="cls-6" d="m28.13,83.19c-12.03-.04-21.78-9.78-21.82-21.82V28.2c0-12.06,9.76-21.85,21.82-21.89h33.32c12.08,0,21.88,9.81,21.89,21.89v33.17c-.04,12.06-9.83,21.82-21.89,21.82l-.08.15H28.13v-.15Z"/>
      <path class="cls-6" d="m28.23,82.97c-11.96-.04-21.65-9.73-21.69-21.69V28.29c0-11.99,9.7-21.73,21.69-21.77h33.13c12.01,0,21.75,9.75,21.77,21.77v32.98c-.04,11.99-9.78,21.69-21.77,21.69l-.08.15H28.23v-.15Z"/>
      <path class="cls-16" d="m28.33,82.74c-11.9-.04-21.53-9.67-21.56-21.57V28.39c0-11.92,9.64-21.6,21.56-21.64h32.94c11.94,0,21.63,9.7,21.64,21.64v32.79c-.04,11.92-9.72,21.57-21.64,21.57l-.08.15H28.33v-.15Z"/>
      <path class="cls-22" d="m28.42,82.52c-11.83-.04-21.4-9.61-21.44-21.44V28.49c0-11.85,9.59-21.47,21.44-21.51h32.74c11.87,0,21.5,9.64,21.51,21.51v32.6c-.04,11.85-9.66,21.44-21.51,21.44l-.08.14H28.42v-.14Z"/>
      <path class="cls-22" d="m28.52,82.3c-11.76-.04-21.27-9.56-21.31-21.31V28.58c0-11.78,9.53-21.35,21.31-21.39h32.55c11.8,0,21.37,9.58,21.39,21.39v32.4c-.04,11.78-9.61,21.31-21.39,21.31l-.07.14H28.52v-.14Z"/>
      <path class="cls-21" d="m28.62,82.08c-11.69-.04-21.15-9.5-21.18-21.19V28.68c0-11.71,9.47-21.22,21.18-21.26h32.36c11.73,0,21.25,9.53,21.26,21.26v32.21c-.04,11.71-9.55,21.19-21.26,21.19l-.07.14H28.62v-.14Z"/>
      <path class="cls-26" d="m28.71,81.86c-11.62-.04-21.02-9.44-21.06-21.06V28.77c0-11.64,9.42-21.1,21.06-21.13h32.17c11.66,0,21.12,9.47,21.13,21.13v32.02c-.04,11.64-9.49,21.06-21.13,21.06l-.07.14H28.71v-.14Z"/>
      <path class="cls-26" d="m28.81,81.64c-11.55-.04-20.89-9.38-20.93-20.94v-31.83c0-11.57,9.36-20.97,20.93-21.01h31.97c11.59,0,20.99,9.41,21.01,21.01v31.83c-.04,11.58-9.44,20.94-21.01,20.94l-.07.14h-31.9v-.14Z"/>
      <path class="cls-33" d="m28.9,81.42c-11.48-.04-20.77-9.33-20.81-20.81v-31.64c0-11.5,9.3-20.84,20.81-20.88h31.78c11.52,0,20.87,9.36,20.88,20.88v31.64c-.04,11.51-9.38,20.81-20.88,20.81l-.07.14h-31.71v-.14Z"/>
      <path class="cls-33" d="m29,81.19c-11.41-.04-20.64-9.27-20.68-20.68v-31.45c0-11.43,9.25-20.72,20.68-20.75h31.59c11.45,0,20.74,9.3,20.75,20.75v31.45c-.04,11.44-9.32,20.68-20.75,20.68l-.07.14h-31.51v-.14Z"/>
      <path class="cls-36" d="m29.1,80.97c-11.34-.04-20.52-9.21-20.55-20.56v-31.25c0-11.36,9.19-20.59,20.55-20.63h31.4c11.39,0,20.61,9.24,20.63,20.63v31.25c-.04,11.37-9.27,20.56-20.63,20.56l-.07.14h-31.32v-.14Z"/>
      <path class="cls-36" d="m29.19,80.75c-11.27-.04-20.39-9.16-20.43-20.43v-31.06c0-11.29,9.13-20.46,20.43-20.5h31.2c11.32,0,20.49,9.19,20.5,20.5v31.06c-.04,11.3-9.21,20.43-20.5,20.43l-.07.14h-31.13v-.14Z"/>
      <path class="cls-17" d="m29.29,80.53c-11.2-.04-20.26-9.1-20.3-20.31v-30.87c0-11.22,9.08-20.34,20.3-20.38h31.01c11.25,0,20.36,9.13,20.38,20.38v30.87c-.04,11.23-9.15,20.31-20.38,20.31l-.07.14h-30.94v-.14Z"/>
      <path class="cls-18" d="m29.38,80.31c-11.13-.04-20.14-9.04-20.17-20.18v-30.68c0-11.15,9.02-20.21,20.17-20.25h30.82c11.18,0,20.23,9.07,20.25,20.25v30.68c-.04,11.16-9.1,20.18-20.25,20.18l-.07.13h-30.75v-.13Z"/>
      <path class="cls-7" d="m29.48,80.09c-11.06-.04-20.01-8.99-20.05-20.06v-30.49c0-11.08,8.96-20.09,20.05-20.12h30.63c11.11,0,20.11,9.02,20.12,20.12v30.49c-.04,11.09-9.04,20.06-20.12,20.06l-.07.13h-30.55v-.13Z"/>
      <path class="cls-7" d="m29.58,79.86c-10.99-.04-19.88-8.93-19.92-19.93v-30.3c0-11.01,8.91-19.96,19.92-20h30.44c11.04,0,19.98,8.96,20,20v30.3c-.04,11.02-8.98,19.93-20,19.93l-.07.13h-30.36v-.13Z"/>
      <path class="cls-32" d="m29.67,79.64c-10.92-.04-19.76-8.87-19.8-19.8v-30.1c0-10.94,8.85-19.83,19.8-19.87h30.24c10.97,0,19.85,8.9,19.87,19.87v30.1c-.04,10.95-8.93,19.8-19.87,19.8l-.07.13h-30.17v-.13Z"/>
      <path class="cls-32" d="m29.77,79.42c-10.85-.04-19.63-8.82-19.67-19.68v-29.91c0-10.87,8.79-19.71,19.67-19.74h30.05c10.9,0,19.73,8.85,19.74,19.74v29.91c-.04,10.88-8.87,19.68-19.74,19.68l-.07.13h-29.98v-.13Z"/>
      <path class="cls-10" d="m29.87,79.2c-10.78-.04-19.51-8.76-19.54-19.55v-29.72c0-10.8,8.74-19.58,19.54-19.62h29.86c10.83,0,19.6,8.79,19.62,19.62v29.72c-.04,10.81-8.81,19.55-19.62,19.55l-.07.13h-29.78v-.13Z"/>
      <path class="cls-10" d="m29.96,78.98c-10.71-.04-19.38-8.7-19.42-19.43v-29.53c0-10.74,8.68-19.45,19.42-19.49h29.67c10.76,0,19.47,8.73,19.49,19.49v29.53c-.04,10.74-8.76,19.43-19.49,19.43l-.07.13h-29.59v-.13Z"/>
      <path class="cls-15" d="m30.06,78.76c-10.64-.04-19.25-8.65-19.29-19.3v-29.34c0-10.67,8.62-19.33,19.29-19.36h29.47c10.69,0,19.35,8.68,19.36,19.36v29.34c-.04,10.68-8.7,19.3-19.36,19.3l-.07.13h-29.4v-.13Z"/>
      <path class="cls-15" d="m30.15,78.54c-10.57-.04-19.13-8.59-19.16-19.17v-29.15c0-10.6,8.57-19.2,19.16-19.24h29.28c10.62,0,19.22,8.62,19.24,19.24v29.15c-.04,10.61-8.64,19.17-19.24,19.17l-.07.13h-29.21v-.13Z"/>
      <path class="cls-1" d="m30.25,78.31c-10.51-.04-19-8.53-19.04-19.05v-28.95c0-10.53,8.51-19.07,19.04-19.11h29.09c10.55,0,19.1,8.56,19.11,19.11v28.95c-.04,10.54-8.58,19.05-19.11,19.05l-.07.12h-29.02v-.12Z"/>
      <path class="cls-25" d="m30.35,78.09c-10.44-.04-18.87-8.48-18.91-18.92v-28.76c0-10.46,8.45-18.95,18.91-18.98h28.9c10.48,0,18.97,8.51,18.98,18.98v28.76c-.04,10.47-8.53,18.92-18.98,18.92l-.07.12h-28.82v-.12Z"/>
      <path class="cls-28" d="m30.44,77.87c-10.37-.04-18.75-8.42-18.78-18.8v-28.57c0-10.39,8.4-18.82,18.78-18.86h28.7c10.41,0,18.84,8.45,18.86,18.86v28.57c-.04,10.4-8.47,18.8-18.86,18.8l-.07.12h-28.63v-.12Z"/>
      <path class="cls-8" d="m30.54,77.65c-10.3-.04-18.62-8.36-18.66-18.67v-28.38c0-10.32,8.34-18.7,18.66-18.73h28.51c10.34,0,18.72,8.39,18.73,18.73v28.38c-.04,10.33-8.41,18.67-18.73,18.67l-.07.12h-28.44v-.12Z"/>
      <path class="cls-30" d="m30.64,77.43c-10.23-.04-18.5-8.3-18.53-18.55v-28.19c0-10.25,8.28-18.57,18.53-18.61h28.32c10.27,0,18.59,8.34,18.61,18.61v28.19c-.04,10.26-8.36,18.55-18.61,18.55l-.07.12h-28.25v-.12Z"/>
      <path class="cls-27" d="m30.73,77.21c-10.16-.04-18.37-8.25-18.41-18.42v-27.99c0-10.18,8.23-18.44,18.41-18.48h28.13c10.2,0,18.46,8.28,18.48,18.48v27.99c-.04,10.19-8.3,18.42-18.48,18.42l-.07.12h-28.05v-.12Z"/>
      <path class="cls-31" d="m30.83,76.99c-10.09-.04-18.24-8.19-18.28-18.29v-27.8c0-10.11,8.17-18.32,18.28-18.35h27.94c10.13,0,18.34,8.22,18.35,18.35v27.8c-.04,10.12-8.24,18.29-18.35,18.29l-.07.12h-27.86v-.12Z"/>
      <path class="cls-14" d="m30.92,76.76c-10.02-.04-18.12-8.13-18.15-18.17v-27.61c0-10.04,8.11-18.19,18.15-18.23h27.74c10.06,0,18.21,8.17,18.23,18.23v27.61c-.04,10.05-8.19,18.17-18.23,18.17l-.07.12h-27.67v-.12Z"/>
      <path class="cls-19" d="m31.02,76.54c-9.95-.04-17.99-8.08-18.03-18.04v-27.42c0-9.97,8.06-18.06,18.03-18.1h27.55c9.99,0,18.08,8.11,18.1,18.1v27.42c-.04,9.98-8.13,18.04-18.1,18.04l-.07.12h-27.48v-.12Z"/>
      <path class="cls-4" d="m31.12,76.32c-9.88-.04-17.86-8.02-17.9-17.92v-27.23c0-9.9,8-17.94,17.9-17.97h27.36c9.92,0,17.96,8.06,17.97,17.97v27.23c-.04,9.91-8.07,17.92-17.97,17.92l-.07.12h-27.29v-.12Z"/>
      <path class="cls-23" d="m31.21,76.1c-9.81-.04-17.74-7.96-17.77-17.79v-27.04c0-9.83,7.95-17.81,17.77-17.85h27.17c9.85,0,17.83,8,17.85,17.85v27.04c-.04,9.85-8.02,17.79-17.85,17.79l-.07.11h-27.09v-.11Z"/>
      <path class="cls-29" d="m31.31,75.88c-9.74-.04-17.61-7.91-17.65-17.66v-26.84c0-9.76,7.89-17.68,17.65-17.72h26.97c9.78,0,17.7,7.94,17.72,17.72v26.84c-.04,9.78-7.96,17.66-17.72,17.66l-.07.11h-26.9v-.11Z"/>
      <path class="cls-13" d="m31.4,75.66c-9.67-.04-17.49-7.85-17.52-17.54v-26.65c0-9.69,7.83-17.56,17.52-17.59h26.78c9.71,0,17.58,7.89,17.59,17.59v26.65c-.04,9.71-7.9,17.54-17.59,17.54l-.07.11h-26.71v-.11Z"/>
      <path class="cls-34" d="m31.5,75.44c-9.6-.04-17.36-7.79-17.4-17.41v-26.46c0-9.62,7.77-17.43,17.4-17.47h26.59c9.64,0,17.45,7.83,17.47,17.47v26.46c-.04,9.64-7.85,17.41-17.47,17.41l-.07.11h-26.52v-.11Z"/>
      <path class="cls-3" d="m31.6,75.21c-9.53-.04-17.23-7.74-17.27-17.29v-26.27c0-9.55,7.72-17.31,17.27-17.34h26.4c9.57,0,17.32,7.77,17.34,17.34v26.27c-.04,9.57-7.79,17.29-17.34,17.29l-.07.11h-26.32v-.11Z"/>
      <path class="cls-9" d="m31.69,74.99c-9.46-.04-17.11-7.68-17.14-17.16v-26.08c0-9.48,7.66-17.18,17.14-17.22h26.21c9.5,0,17.2,7.72,17.22,17.22v26.08c-.04,9.5-7.73,17.16-17.22,17.16l-.07.11h-26.13v-.11Z"/>
      <path class="cls-2" d="m31.79,74.77c-9.39-.04-16.98-7.62-17.02-17.03v-25.89c0-9.41,7.61-17.05,17.02-17.09h26.01c9.43,0,17.07,7.66,17.09,17.09v25.89c-.04,9.43-7.68,17.03-17.09,17.03l-.07.11h-25.94v-.11Z"/>
    </g>
    <g>
      <path class="cls-20" d="m44.83,40.82c2.2,0,4,1.8,4,4s-1.8,4-4,4-4.01-1.79-4.01-4,1.8-4,4.01-4Zm2.19,4c0-1.21-.98-2.19-2.19-2.19s-2.19.98-2.19,2.19.97,2.19,2.19,2.19,2.19-.97,2.19-2.19Z"/>
      <g>
        <path class="cls-12" d="m44.83,42.63c-1.22,0-2.19.98-2.19,2.19s.97,2.19,2.19,2.19,2.19-.97,2.19-2.19-.98-2.19-2.19-2.19Z"/>
        <path class="cls-12" d="m44.83,40.82c-2.21,0-4.01,1.8-4.01,4s1.8,4,4.01,4,4-1.79,4-4-1.8-4-4-4Z"/>
      </g>
    </g>
  </g>
</svg>