<?xml version="1.0" encoding="UTF-8"?>
<svg xmlns="http://www.w3.org/2000/svg" viewBox="0 0 3148.19 1788.01">
  <defs>
    <style>
      .cls-1 {
        fill: #c9e5ce;
      }

      .cls-2 {
        opacity: .81;
      }

      .cls-3 {
        fill: #fff;
      }

      .cls-4 {
        fill: #a7a9ac;
      }

      .cls-5 {
        fill: #f15a29;
      }

      .cls-6 {
        opacity: .51;
      }

      .cls-7 {
        opacity: .5;
      }

      .cls-8 {
        fill: #939598;
      }

      .cls-9 {
        fill: #b4eddd;
      }

      .cls-10 {
        opacity: .06;
      }

      .cls-11 {
        fill: #9b8579;
      }

      .cls-12, .cls-13 {
        fill: #be1e2d;
      }

      .cls-14 {
        fill: #ffd1f9;
      }

      .cls-15 {
        opacity: .47;
      }

      .cls-16, .cls-17, .cls-13 {
        opacity: .2;
      }

      .cls-18 {
        opacity: .07;
      }

      .cls-19 {
        opacity: .8;
      }

      .cls-20 {
        fill: #754c29;
      }

      .cls-21 {
        fill: #fff9dd;
      }

      .cls-22 {
        opacity: .54;
      }

      .cls-23 {
        fill: #a97c50;
      }

      .cls-24 {
        opacity: .58;
      }

      .cls-25 {
        fill: #5cb1bf;
      }

      .cls-26 {
        fill: #ffe5f8;
      }

      .cls-27 {
        fill: #2e3192;
      }

      .cls-28 {
        fill: #cce5ff;
      }

      .cls-29 {
        fill: #dfd3a1;
      }

      .cls-30 {
        opacity: .15;
      }

      .cls-31 {
        fill: #c2fff1;
      }

      .cls-32 {
        fill: #d4e8b4;
      }

      .cls-33 {
        fill: #f1f2f2;
      }

      .cls-34 {
        fill: #fbb040;
      }

      .cls-17, .cls-35 {
        fill: #231f20;
      }

      .cls-36 {
        fill: #d8f1e2;
      }

      .cls-37 {
        fill: #acd6e2;
      }

      .cls-38 {
        opacity: .1;
      }

      .cls-39 {
        fill: #ffc45e;
      }

      .cls-40 {
        fill: #f0f;
      }

      .cls-41 {
        fill: #d1d3d4;
      }

      .cls-42 {
        fill: #e6e7e8;
      }

      .cls-43 {
        fill: #f4fcd9;
      }

      .cls-44 {
        fill: #8681ff;
      }

      .cls-45 {
        fill: #bcbec0;
      }

      .cls-46 {
        fill: #ecf3ff;
      }

      .cls-47 {
        opacity: .71;
      }

      .cls-48 {
        fill: #58595b;
      }
    </style>
  </defs>
  <g id="Layer_2" data-name="Layer 2">
    <g>
      <g class="cls-18">
        <rect class="cls-40" x="8.44" y="109.5" width="230.37" height="241.75" transform="translate(-106.75 353.99) rotate(-90)"/>
        <path class="cls-40" d="m247.24,112.57v235.61H0V112.57h247.24Zm-5.5,230.37V117.81s-236.25,0-236.25,0v225.13s236.25,0,236.25,0Z"/>
      </g>
      <g class="cls-18">
        <rect class="cls-40" x="250.18" y="109.5" width="230.37" height="241.75" transform="translate(134.99 595.74) rotate(-90)"/>
        <path class="cls-40" d="m488.99,112.57v235.61h-247.24V112.57h247.24Zm-5.5,230.37V117.81s-236.25,0-236.25,0v225.13s236.25,0,236.25,0Z"/>
      </g>
      <g class="cls-18">
        <rect class="cls-40" x="491.93" y="109.5" width="230.37" height="241.75" transform="translate(376.74 837.48) rotate(-90)"/>
        <path class="cls-40" d="m730.73,112.57v235.61h-247.24V112.57h247.24Zm-5.5,230.37V117.81s-236.25,0-236.25,0v225.13s236.25,0,236.25,0Z"/>
      </g>
      <g class="cls-18">
        <rect class="cls-40" x="733.67" y="109.5" width="230.37" height="241.75" transform="translate(618.48 1079.23) rotate(-90)"/>
        <path class="cls-40" d="m972.48,112.57v235.61h-247.24V112.57h247.24Zm-5.5,230.37V117.81s-236.25,0-236.25,0v225.13s236.25,0,236.25,0Z"/>
      </g>
      <g class="cls-18">
        <rect class="cls-40" x="975.42" y="109.5" width="230.37" height="241.74" transform="translate(860.23 1320.97) rotate(-90)"/>
        <path class="cls-40" d="m1214.22,112.57v235.61h-247.24V112.57h247.24Zm-5.5,230.37V117.81s-236.25,0-236.25,0v225.13s236.25,0,236.25,0Z"/>
      </g>
      <g class="cls-18">
        <rect class="cls-40" x="1217.16" y="109.5" width="230.37" height="241.75" transform="translate(1101.97 1562.72) rotate(-90)"/>
        <path class="cls-40" d="m1455.97,112.57v235.61h-247.24V112.57h247.24Zm-5.5,230.37V117.81s-236.25,0-236.25,0v225.13s236.25,0,236.25,0Z"/>
      </g>
      <g class="cls-18">
        <rect class="cls-40" x="1458.91" y="109.5" width="230.37" height="241.74" transform="translate(1343.72 1804.47) rotate(-90)"/>
        <path class="cls-40" d="m1697.71,112.57v235.61h-247.24V112.57h247.24Zm-5.5,230.37V117.81s-236.25,0-236.25,0v225.13s236.25,0,236.25,0Z"/>
      </g>
      <g class="cls-18">
        <rect class="cls-40" x="1700.65" y="109.5" width="230.37" height="241.75" transform="translate(1585.47 2046.21) rotate(-90)"/>
        <path class="cls-40" d="m1939.46,112.57v235.61h-247.24V112.57h247.24Zm-5.5,230.37V117.81s-236.25,0-236.25,0v225.13s236.25,0,236.25,0Z"/>
      </g>
      <g class="cls-18">
        <rect class="cls-40" x="8.44" y="339.87" width="230.37" height="241.75" transform="translate(-337.12 584.37) rotate(-90)"/>
        <path class="cls-40" d="m247.24,342.94v235.61H0v-235.61h247.24Zm-5.5,230.37v-225.13s-236.25,0-236.25,0v225.13s236.25,0,236.25,0Z"/>
      </g>
      <g class="cls-18">
        <rect class="cls-40" x="8.44" y="570.24" width="230.37" height="241.75" transform="translate(-567.5 814.74) rotate(-90)"/>
        <path class="cls-40" d="m247.24,573.31v235.61H0v-235.61h247.24Zm-5.5,230.37v-225.13s-236.25,0-236.25,0v225.13s236.25,0,236.25,0Z"/>
      </g>
      <g>
        <rect class="cls-37" x="8.44" y="800.62" width="230.37" height="241.75" transform="translate(-797.87 1045.11) rotate(-90)"/>
        <path class="cls-4" d="m247.24,803.68v235.61H0v-235.61h247.24Zm-5.5,230.37v-225.13s-236.25,0-236.25,0v225.13s236.25,0,236.25,0Z"/>
      </g>
      <g>
        <rect class="cls-37" x="8.44" y="1030.99" width="230.37" height="241.75" transform="translate(-1028.24 1275.48) rotate(-90)"/>
        <path class="cls-4" d="m247.24,1034.06v235.61H0v-235.61h247.24Zm-5.5,230.37v-225.13s-236.25,0-236.25,0v225.13s236.25,0,236.25,0Z"/>
      </g>
      <g>
        <rect class="cls-37" x="8.44" y="1261.36" width="230.37" height="241.75" transform="translate(-1258.61 1505.85) rotate(-90)"/>
        <path class="cls-4" d="m247.24,1264.43v235.61H0v-235.61h247.24Zm-5.5,230.37v-225.13s-236.25,0-236.25,0v225.13s236.25,0,236.25,0Z"/>
      </g>
      <g>
        <rect class="cls-37" x="8.44" y="1491.73" width="230.37" height="241.75" transform="translate(-1488.98 1736.23) rotate(-90)"/>
        <path class="cls-4" d="m247.24,1494.8v235.61H0v-235.61h247.24Zm-5.5,230.37v-225.13s-236.25,0-236.25,0v225.13s236.25,0,236.25,0Z"/>
      </g>
      <g>
        <rect class="cls-37" x="94.82" y="1635.72" width="57.59" height="241.75" transform="translate(-1632.97 1880.21) rotate(-90)"/>
        <path class="cls-4" d="m247.24,1725.17v62.83H0v-62.83h247.24Zm-5.5,57.59v-52.35s-236.25,0-236.25,0v52.35s236.25,0,236.25,0Z"/>
      </g>
      <g class="cls-18">
        <rect class="cls-40" x="250.18" y="339.87" width="230.37" height="241.75" transform="translate(-95.38 826.11) rotate(-90)"/>
        <path class="cls-40" d="m488.99,342.94v235.61h-247.24v-235.61h247.24Zm-5.5,230.37v-225.13s-236.25,0-236.25,0v225.13s236.25,0,236.25,0Z"/>
      </g>
      <g class="cls-18">
        <rect class="cls-40" x="250.18" y="570.24" width="230.37" height="241.75" transform="translate(-325.75 1056.48) rotate(-90)"/>
        <path class="cls-40" d="m488.99,573.31v235.61h-247.24v-235.61h247.24Zm-5.5,230.37v-225.13s-236.25,0-236.25,0v225.13s236.25,0,236.25,0Z"/>
      </g>
      <g>
        <rect class="cls-37" x="250.18" y="800.62" width="230.37" height="241.75" transform="translate(-556.12 1286.86) rotate(-90)"/>
        <path class="cls-4" d="m488.99,803.68v235.61h-247.24v-235.61h247.24Zm-5.5,230.37v-225.13s-236.25,0-236.25,0v225.13s236.25,0,236.25,0Z"/>
      </g>
      <g>
        <rect class="cls-37" x="250.18" y="1030.99" width="230.37" height="241.75" transform="translate(-786.49 1517.23) rotate(-90)"/>
        <path class="cls-4" d="m488.99,1034.06v235.61h-247.24v-235.61h247.24Zm-5.5,230.37v-225.13s-236.25,0-236.25,0v225.13s236.25,0,236.25,0Z"/>
      </g>
      <g>
        <rect class="cls-37" x="250.18" y="1261.36" width="230.37" height="241.75" transform="translate(-1016.87 1747.6) rotate(-90)"/>
        <path class="cls-4" d="m488.99,1264.43v235.61h-247.24v-235.61h247.24Zm-5.5,230.37v-225.13s-236.25,0-236.25,0v225.13s236.25,0,236.25,0Z"/>
      </g>
      <g>
        <rect class="cls-37" x="250.18" y="1491.73" width="230.37" height="241.75" transform="translate(-1247.24 1977.97) rotate(-90)"/>
        <path class="cls-4" d="m488.99,1494.8v235.61h-247.24v-235.61h247.24Zm-5.5,230.37v-225.13s-236.25,0-236.25,0v225.13s236.25,0,236.25,0Z"/>
      </g>
      <g>
        <rect class="cls-37" x="336.57" y="1635.72" width="57.59" height="241.75" transform="translate(-1391.22 2121.95) rotate(-90)"/>
        <path class="cls-4" d="m488.99,1725.17v62.83h-247.24v-62.83h247.24Zm-5.5,57.59v-52.35s-236.25,0-236.25,0v52.35s236.25,0,236.25,0Z"/>
      </g>
      <g class="cls-18">
        <rect class="cls-40" x="491.93" y="339.87" width="230.37" height="241.75" transform="translate(146.37 1067.86) rotate(-90)"/>
        <path class="cls-40" d="m730.73,342.94v235.61h-247.24v-235.61h247.24Zm-5.5,230.37v-225.13s-236.25,0-236.25,0v225.13s236.25,0,236.25,0Z"/>
      </g>
      <g class="cls-18">
        <rect class="cls-40" x="491.93" y="570.24" width="230.37" height="241.75" transform="translate(-84.01 1298.23) rotate(-90)"/>
        <path class="cls-40" d="m730.73,573.31v235.61h-247.24v-235.61h247.24Zm-5.5,230.37v-225.13s-236.25,0-236.25,0v225.13s236.25,0,236.25,0Z"/>
      </g>
      <g>
        <rect class="cls-37" x="491.93" y="800.62" width="230.37" height="241.75" transform="translate(-314.38 1528.6) rotate(-90)"/>
        <path class="cls-4" d="m730.73,803.68v235.61h-247.24v-235.61h247.24Zm-5.5,230.37v-225.13s-236.25,0-236.25,0v225.13s236.25,0,236.25,0Z"/>
      </g>
      <g>
        <rect class="cls-37" x="491.93" y="1030.99" width="230.37" height="241.75" transform="translate(-544.75 1758.97) rotate(-90)"/>
        <path class="cls-4" d="m730.73,1034.06v235.61h-247.24v-235.61h247.24Zm-5.5,230.37v-225.13s-236.25,0-236.25,0v225.13s236.25,0,236.25,0Z"/>
      </g>
      <g>
        <rect class="cls-37" x="491.93" y="1261.36" width="230.37" height="241.75" transform="translate(-775.12 1989.34) rotate(-90)"/>
        <path class="cls-4" d="m730.73,1264.43v235.61h-247.24v-235.61h247.24Zm-5.5,230.37v-225.13s-236.25,0-236.25,0v225.13s236.25,0,236.25,0Z"/>
      </g>
      <g>
        <rect class="cls-37" x="491.93" y="1491.73" width="230.37" height="241.75" transform="translate(-1005.49 2219.72) rotate(-90)"/>
        <path class="cls-4" d="m730.73,1494.8v235.61h-247.24v-235.61h247.24Zm-5.5,230.37v-225.13s-236.25,0-236.25,0v225.13s236.25,0,236.25,0Z"/>
      </g>
      <g>
        <rect class="cls-37" x="578.31" y="1635.72" width="57.59" height="241.75" transform="translate(-1149.48 2363.7) rotate(-90)"/>
        <path class="cls-4" d="m730.73,1725.17v62.83h-247.24v-62.83h247.24Zm-5.5,57.59v-52.35s-236.25,0-236.25,0v52.35s236.25,0,236.25,0Z"/>
      </g>
      <g class="cls-18">
        <rect class="cls-40" x="733.67" y="339.87" width="230.37" height="241.75" transform="translate(388.11 1309.6) rotate(-90)"/>
        <path class="cls-40" d="m972.48,342.94v235.61h-247.24v-235.61h247.24Zm-5.5,230.37v-225.13s-236.25,0-236.25,0v225.13s236.25,0,236.25,0Z"/>
      </g>
      <g class="cls-18">
        <rect class="cls-40" x="733.67" y="570.24" width="230.37" height="241.75" transform="translate(157.74 1539.97) rotate(-90)"/>
        <path class="cls-40" d="m972.48,573.31v235.61h-247.24v-235.61h247.24Zm-5.5,230.37v-225.13s-236.25,0-236.25,0v225.13s236.25,0,236.25,0Z"/>
      </g>
      <g>
        <rect class="cls-37" x="733.67" y="800.62" width="230.37" height="241.75" transform="translate(-72.63 1770.35) rotate(-90)"/>
        <path class="cls-4" d="m972.48,803.68v235.61h-247.24v-235.61h247.24Zm-5.5,230.37v-225.13s-236.25,0-236.25,0v225.13s236.25,0,236.25,0Z"/>
      </g>
      <g>
        <rect class="cls-37" x="733.67" y="1030.99" width="230.37" height="241.75" transform="translate(-303 2000.72) rotate(-90)"/>
        <path class="cls-4" d="m972.48,1034.06v235.61h-247.24v-235.61h247.24Zm-5.5,230.37v-225.13s-236.25,0-236.25,0v225.13s236.25,0,236.25,0Z"/>
      </g>
      <g>
        <rect class="cls-37" x="733.67" y="1261.36" width="230.37" height="241.75" transform="translate(-533.38 2231.09) rotate(-90)"/>
        <path class="cls-4" d="m972.48,1264.43v235.61h-247.24v-235.61h247.24Zm-5.5,230.37v-225.13s-236.25,0-236.25,0v225.13s236.25,0,236.25,0Z"/>
      </g>
      <g>
        <rect class="cls-37" x="733.67" y="1491.73" width="230.37" height="241.75" transform="translate(-763.75 2461.46) rotate(-90)"/>
        <path class="cls-4" d="m972.48,1494.8v235.61h-247.24v-235.61h247.24Zm-5.5,230.37v-225.13s-236.25,0-236.25,0v225.13s236.25,0,236.25,0Z"/>
      </g>
      <g>
        <rect class="cls-37" x="820.06" y="1635.72" width="57.59" height="241.75" transform="translate(-907.73 2605.45) rotate(-90)"/>
        <path class="cls-4" d="m972.48,1725.17v62.83h-247.24v-62.83h247.24Zm-5.5,57.59v-52.35s-236.25,0-236.25,0v52.35s236.25,0,236.25,0Z"/>
      </g>
      <g class="cls-18">
        <rect class="cls-40" x="975.42" y="339.87" width="230.37" height="241.74" transform="translate(629.86 1551.35) rotate(-90)"/>
        <path class="cls-40" d="m1214.22,342.94v235.61h-247.24v-235.61h247.24Zm-5.5,230.37v-225.13s-236.25,0-236.25,0v225.13s236.25,0,236.25,0Z"/>
      </g>
      <g class="cls-18">
        <rect class="cls-40" x="975.42" y="570.24" width="230.37" height="241.74" transform="translate(399.49 1781.72) rotate(-90)"/>
        <path class="cls-40" d="m1214.22,573.31v235.61h-247.24v-235.61h247.24Zm-5.5,230.37v-225.13s-236.25,0-236.25,0v225.13s236.25,0,236.25,0Z"/>
      </g>
      <g>
        <rect class="cls-37" x="975.42" y="800.62" width="230.37" height="241.74" transform="translate(169.11 2012.09) rotate(-90)"/>
        <path class="cls-4" d="m1214.22,803.68v235.61h-247.24v-235.61h247.24Zm-5.5,230.37v-225.13s-236.25,0-236.25,0v225.13s236.25,0,236.25,0Z"/>
      </g>
      <g>
        <rect class="cls-37" x="975.42" y="1030.99" width="230.37" height="241.74" transform="translate(-61.26 2242.46) rotate(-90)"/>
        <path class="cls-4" d="m1214.22,1034.06v235.61h-247.24v-235.61h247.24Zm-5.5,230.37v-225.13s-236.25,0-236.25,0v225.13s236.25,0,236.25,0Z"/>
      </g>
      <g>
        <rect class="cls-37" x="975.42" y="1261.36" width="230.37" height="241.74" transform="translate(-291.63 2472.84) rotate(-90)"/>
        <path class="cls-4" d="m1214.22,1264.43v235.61h-247.24v-235.61h247.24Zm-5.5,230.37v-225.13s-236.25,0-236.25,0v225.13s236.25,0,236.25,0Z"/>
      </g>
      <g>
        <rect class="cls-37" x="975.42" y="1491.73" width="230.37" height="241.74" transform="translate(-522 2703.21) rotate(-90)"/>
        <path class="cls-4" d="m1214.22,1494.8v235.61h-247.24v-235.61h247.24Zm-5.5,230.37v-225.13s-236.25,0-236.25,0v225.13s236.25,0,236.25,0Z"/>
      </g>
      <g>
        <rect class="cls-37" x="1061.81" y="1635.72" width="57.59" height="241.74" transform="translate(-665.99 2847.19) rotate(-90)"/>
        <path class="cls-4" d="m1214.22,1725.17v62.83h-247.24v-62.83h247.24Zm-5.5,57.59v-52.35s-236.25,0-236.25,0v52.35s236.25,0,236.25,0Z"/>
      </g>
      <g class="cls-18">
        <rect class="cls-40" x="1217.16" y="339.87" width="230.37" height="241.75" transform="translate(871.6 1793.09) rotate(-90)"/>
        <path class="cls-40" d="m1455.97,342.94v235.61h-247.24v-235.61h247.24Zm-5.5,230.37v-225.13s-236.25,0-236.25,0v225.13s236.25,0,236.25,0Z"/>
      </g>
      <g class="cls-18">
        <rect class="cls-40" x="1217.16" y="570.24" width="230.37" height="241.75" transform="translate(641.23 2023.46) rotate(-90)"/>
        <path class="cls-40" d="m1455.97,573.31v235.61h-247.24v-235.61h247.24Zm-5.5,230.37v-225.13s-236.25,0-236.25,0v225.13s236.25,0,236.25,0Z"/>
      </g>
      <g>
        <rect class="cls-37" x="1217.16" y="800.62" width="230.37" height="241.75" transform="translate(410.86 2253.84) rotate(-90)"/>
        <path class="cls-4" d="m1455.97,803.68v235.61h-247.24v-235.61h247.24Zm-5.5,230.37v-225.13s-236.25,0-236.25,0v225.13s236.25,0,236.25,0Z"/>
      </g>
      <g>
        <rect class="cls-37" x="1217.16" y="1030.99" width="230.37" height="241.75" transform="translate(180.49 2484.21) rotate(-90)"/>
        <path class="cls-4" d="m1455.97,1034.06v235.61h-247.24v-235.61h247.24Zm-5.5,230.37v-225.13s-236.25,0-236.25,0v225.13s236.25,0,236.25,0Z"/>
      </g>
      <g>
        <rect class="cls-37" x="1217.16" y="1261.36" width="230.37" height="241.75" transform="translate(-49.89 2714.58) rotate(-90)"/>
        <path class="cls-4" d="m1455.97,1264.43v235.61h-247.24v-235.61h247.24Zm-5.5,230.37v-225.13s-236.25,0-236.25,0v225.13s236.25,0,236.25,0Z"/>
      </g>
      <g>
        <rect class="cls-37" x="1217.16" y="1491.73" width="230.37" height="241.75" transform="translate(-280.26 2944.95) rotate(-90)"/>
        <path class="cls-4" d="m1455.97,1494.8v235.61h-247.24v-235.61h247.24Zm-5.5,230.37v-225.13s-236.25,0-236.25,0v225.13s236.25,0,236.25,0Z"/>
      </g>
      <g>
        <rect class="cls-37" x="1303.55" y="1635.72" width="57.59" height="241.75" transform="translate(-424.24 3088.94) rotate(-90)"/>
        <path class="cls-4" d="m1455.97,1725.17v62.83h-247.24v-62.83h247.24Zm-5.5,57.59v-52.35s-236.25,0-236.25,0v52.35s236.25,0,236.25,0Z"/>
      </g>
      <g class="cls-18">
        <rect class="cls-40" x="1458.91" y="339.87" width="230.37" height="241.74" transform="translate(1113.35 2034.84) rotate(-90)"/>
        <path class="cls-40" d="m1697.71,342.94v235.61h-247.24v-235.61h247.24Zm-5.5,230.37v-225.13s-236.25,0-236.25,0v225.13s236.25,0,236.25,0Z"/>
      </g>
      <g class="cls-18">
        <rect class="cls-40" x="1458.91" y="570.24" width="230.37" height="241.74" transform="translate(882.98 2265.21) rotate(-90)"/>
        <path class="cls-40" d="m1697.71,573.31v235.61h-247.24v-235.61h247.24Zm-5.5,230.37v-225.13s-236.25,0-236.25,0v225.13s236.25,0,236.25,0Z"/>
      </g>
      <g>
        <rect class="cls-37" x="1458.91" y="800.62" width="230.37" height="241.74" transform="translate(652.6 2495.58) rotate(-90)"/>
        <path class="cls-4" d="m1697.71,803.68v235.61h-247.24v-235.61h247.24Zm-5.5,230.37v-225.13s-236.25,0-236.25,0v225.13s236.25,0,236.25,0Z"/>
      </g>
      <g>
        <rect class="cls-37" x="1458.91" y="1030.99" width="230.37" height="241.74" transform="translate(422.23 2725.95) rotate(-90)"/>
        <path class="cls-4" d="m1697.71,1034.06v235.61h-247.24v-235.61h247.24Zm-5.5,230.37v-225.13s-236.25,0-236.25,0v225.13s236.25,0,236.25,0Z"/>
      </g>
      <g>
        <rect class="cls-37" x="1458.91" y="1261.36" width="230.37" height="241.74" transform="translate(191.86 2956.33) rotate(-90)"/>
        <path class="cls-4" d="m1697.71,1264.43v235.61h-247.24v-235.61h247.24Zm-5.5,230.37v-225.13s-236.25,0-236.25,0v225.13s236.25,0,236.25,0Z"/>
      </g>
      <g>
        <rect class="cls-37" x="1458.91" y="1491.73" width="230.37" height="241.74" transform="translate(-38.51 3186.7) rotate(-90)"/>
        <path class="cls-4" d="m1697.71,1494.8v235.61h-247.24v-235.61h247.24Zm-5.5,230.37v-225.13s-236.25,0-236.25,0v225.13s236.25,0,236.25,0Z"/>
      </g>
      <g>
        <rect class="cls-37" x="1545.3" y="1635.72" width="57.59" height="241.74" transform="translate(-182.5 3330.68) rotate(-90)"/>
        <path class="cls-4" d="m1697.71,1725.17v62.83h-247.24v-62.83h247.24Zm-5.5,57.59v-52.35s-236.25,0-236.25,0v52.35s236.25,0,236.25,0Z"/>
      </g>
      <g class="cls-18">
        <rect class="cls-40" x="1700.65" y="339.87" width="230.37" height="241.75" transform="translate(1355.09 2276.58) rotate(-90)"/>
        <path class="cls-40" d="m1939.46,342.94v235.61h-247.24v-235.61h247.24Zm-5.5,230.37v-225.13s-236.25,0-236.25,0v225.13s236.25,0,236.25,0Z"/>
      </g>
      <g class="cls-18">
        <rect class="cls-40" x="1700.65" y="570.24" width="230.37" height="241.75" transform="translate(1124.72 2506.95) rotate(-90)"/>
        <path class="cls-40" d="m1939.46,573.31v235.61h-247.24v-235.61h247.24Zm-5.5,230.37v-225.13s-236.25,0-236.25,0v225.13s236.25,0,236.25,0Z"/>
      </g>
      <g>
        <rect class="cls-37" x="1700.65" y="800.62" width="230.37" height="241.75" transform="translate(894.35 2737.33) rotate(-90)"/>
        <path class="cls-4" d="m1939.46,803.68v235.61h-247.24v-235.61h247.24Zm-5.5,230.37v-225.13s-236.25,0-236.25,0v225.13s236.25,0,236.25,0Z"/>
      </g>
      <g>
        <rect class="cls-37" x="1700.65" y="1030.99" width="230.37" height="241.75" transform="translate(663.98 2967.7) rotate(-90)"/>
        <path class="cls-4" d="m1939.46,1034.06v235.61h-247.24v-235.61h247.24Zm-5.5,230.37v-225.13s-236.25,0-236.25,0v225.13s236.25,0,236.25,0Z"/>
      </g>
      <g>
        <rect class="cls-37" x="1700.65" y="1261.36" width="230.37" height="241.75" transform="translate(433.6 3198.07) rotate(-90)"/>
        <path class="cls-4" d="m1939.46,1264.43v235.61h-247.24v-235.61h247.24Zm-5.5,230.37v-225.13s-236.25,0-236.25,0v225.13s236.25,0,236.25,0Z"/>
      </g>
      <g>
        <rect class="cls-37" x="1700.65" y="1491.73" width="230.37" height="241.75" transform="translate(203.23 3428.44) rotate(-90)"/>
        <path class="cls-4" d="m1939.46,1494.8v235.61h-247.24v-235.61h247.24Zm-5.5,230.37v-225.13s-236.25,0-236.25,0v225.13s236.25,0,236.25,0Z"/>
      </g>
      <g>
        <rect class="cls-37" x="1787.04" y="1635.72" width="57.59" height="241.75" transform="translate(59.25 3572.43) rotate(-90)"/>
        <path class="cls-4" d="m1939.46,1725.17v62.83h-247.24v-62.83h247.24Zm-5.5,57.59v-52.35s-236.25,0-236.25,0v52.35s236.25,0,236.25,0Z"/>
      </g>
      <g class="cls-22">
        <rect class="cls-4" x="2063.27" y="109.5" width="230.37" height="241.75" transform="translate(1948.08 2408.83) rotate(-90)"/>
        <path class="cls-4" d="m2302.08,112.57v235.61h-247.24V112.57h247.24Zm-5.5,230.37V117.81s-236.25,0-236.25,0v225.13s236.25,0,236.25,0Z"/>
      </g>
      <g class="cls-22">
        <rect class="cls-4" x="2063.27" y="339.87" width="230.37" height="241.75" transform="translate(1717.71 2639.2) rotate(-90)"/>
        <path class="cls-4" d="m2302.08,342.94v235.61h-247.24v-235.61h247.24Zm-5.5,230.37v-225.13s-236.25,0-236.25,0v225.13s236.25,0,236.25,0Z"/>
      </g>
      <g class="cls-22">
        <rect class="cls-4" x="2063.27" y="570.24" width="230.37" height="241.75" transform="translate(1487.34 2869.57) rotate(-90)"/>
        <path class="cls-4" d="m2302.08,573.31v235.61h-247.24v-235.61h247.24Zm-5.5,230.37v-225.13s-236.25,0-236.25,0v225.13s236.25,0,236.25,0Z"/>
      </g>
      <g class="cls-22">
        <rect class="cls-4" x="2063.27" y="800.62" width="230.37" height="241.75" transform="translate(1256.97 3099.94) rotate(-90)"/>
        <path class="cls-4" d="m2302.08,803.68v235.61h-247.24v-235.61h247.24Zm-5.5,230.37v-225.13s-236.25,0-236.25,0v225.13s236.25,0,236.25,0Z"/>
      </g>
      <g>
        <rect class="cls-9" x="2063.27" y="1030.99" width="230.37" height="241.75" transform="translate(1026.59 3330.32) rotate(-90)"/>
        <path class="cls-9" d="m2302.08,1034.06v235.61h-247.24v-235.61h247.24Zm-5.5,230.37v-225.13s-236.25,0-236.25,0v225.13s236.25,0,236.25,0Z"/>
      </g>
      <g class="cls-18">
        <rect class="cls-40" x="1881.96" y="169.94" width="230.37" height="120.87" transform="translate(1766.77 2227.52) rotate(-90)"/>
        <path class="cls-40" d="m2060.33,112.57v235.61h-126.37V112.57h126.37Zm-5.5,230.37V117.81s-115.37,0-115.37,0v225.13s115.37,0,115.37,0Z"/>
      </g>
      <g class="cls-18">
        <rect class="cls-40" x="1881.96" y="400.31" width="230.37" height="120.87" transform="translate(1536.4 2457.89) rotate(-90)"/>
        <path class="cls-40" d="m2060.33,342.94v235.61h-126.37v-235.61h126.37Zm-5.5,230.37v-225.13s-115.37,0-115.37,0v225.13s115.37,0,115.37,0Z"/>
      </g>
      <g class="cls-18">
        <rect class="cls-40" x="1881.96" y="630.68" width="230.37" height="120.87" transform="translate(1306.03 2688.26) rotate(-90)"/>
        <path class="cls-40" d="m2060.33,573.31v235.61h-126.37v-235.61h126.37Zm-5.5,230.37v-225.13s-115.37,0-115.37,0v225.13s115.37,0,115.37,0Z"/>
      </g>
      <g>
        <rect class="cls-37" x="1881.96" y="861.05" width="230.37" height="120.87" transform="translate(1075.66 2918.64) rotate(-90)"/>
        <path class="cls-4" d="m2060.33,803.68v235.61h-126.37v-235.61h126.37Zm-5.5,230.37v-225.13s-115.37,0-115.37,0v225.13s115.37,0,115.37,0Z"/>
      </g>
      <g>
        <rect class="cls-37" x="1881.96" y="1091.43" width="230.37" height="120.87" transform="translate(845.29 3149.01) rotate(-90)"/>
        <path class="cls-4" d="m2060.33,1034.06v235.61h-126.37v-235.61h126.37Zm-5.5,230.37v-225.13s-115.37,0-115.37,0v225.13s115.37,0,115.37,0Z"/>
      </g>
      <g>
        <rect class="cls-26" x="2063.27" y="1261.36" width="230.37" height="241.75" transform="translate(796.22 3560.69) rotate(-90)"/>
        <path class="cls-26" d="m2302.08,1264.43v235.61h-247.24v-235.61h247.24Zm-5.5,230.37v-225.13s-236.25,0-236.25,0v225.13s236.25,0,236.25,0Z"/>
      </g>
      <g>
        <rect class="cls-32" x="2063.27" y="1491.73" width="230.37" height="241.75" transform="translate(565.85 3791.06) rotate(-90)"/>
        <path class="cls-32" d="m2302.08,1494.8v235.61h-247.24v-235.61h247.24Zm-5.5,230.37v-225.13s-236.25,0-236.25,0v225.13s236.25,0,236.25,0Z"/>
      </g>
      <g>
        <rect class="cls-37" x="2149.66" y="1635.72" width="57.59" height="241.75" transform="translate(421.87 3935.04) rotate(-90)"/>
        <path class="cls-4" d="m2302.08,1725.17v62.83h-247.24v-62.83h247.24Zm-5.5,57.59v-52.35s-236.25,0-236.25,0v52.35s236.25,0,236.25,0Z"/>
      </g>
      <g class="cls-22">
        <rect class="cls-4" x="2305.01" y="109.5" width="230.37" height="241.75" transform="translate(2189.83 2650.57) rotate(-90)"/>
        <path class="cls-4" d="m2543.82,112.57v235.61h-247.24V112.57h247.24Zm-5.5,230.37V117.81s-236.25,0-236.25,0v225.13s236.25,0,236.25,0Z"/>
      </g>
      <g class="cls-22">
        <rect class="cls-4" x="2305.01" y="339.87" width="230.37" height="241.75" transform="translate(1959.46 2880.95) rotate(-90)"/>
        <path class="cls-4" d="m2543.82,342.94v235.61h-247.24v-235.61h247.24Zm-5.5,230.37v-225.13s-236.25,0-236.25,0v225.13s236.25,0,236.25,0Z"/>
      </g>
      <g class="cls-22">
        <rect class="cls-4" x="2305.01" y="570.24" width="230.37" height="241.75" transform="translate(1729.08 3111.32) rotate(-90)"/>
        <path class="cls-4" d="m2543.82,573.31v235.61h-247.24v-235.61h247.24Zm-5.5,230.37v-225.13s-236.25,0-236.25,0v225.13s236.25,0,236.25,0Z"/>
      </g>
      <g class="cls-22">
        <rect class="cls-4" x="2305.01" y="800.62" width="230.37" height="241.75" transform="translate(1498.71 3341.69) rotate(-90)"/>
        <path class="cls-4" d="m2543.82,803.68v235.61h-247.24v-235.61h247.24Zm-5.5,230.37v-225.13s-236.25,0-236.25,0v225.13s236.25,0,236.25,0Z"/>
      </g>
      <g>
        <rect class="cls-21" x="2305.01" y="1030.99" width="230.37" height="241.75" transform="translate(1268.34 3572.06) rotate(-90)"/>
        <path class="cls-21" d="m2543.82,1034.06v235.61h-247.24v-235.61h247.24Zm-5.5,230.37v-225.13s-236.25,0-236.25,0v225.13s236.25,0,236.25,0Z"/>
      </g>
      <g>
        <rect class="cls-1" x="2305.01" y="1261.36" width="230.37" height="241.75" transform="translate(1037.97 3802.43) rotate(-90)"/>
        <path class="cls-1" d="m2543.82,1264.43v235.61h-247.24v-235.61h247.24Zm-5.5,230.37v-225.13s-236.25,0-236.25,0v225.13s236.25,0,236.25,0Z"/>
      </g>
      <g>
        <rect class="cls-28" x="2305.01" y="1491.73" width="230.37" height="241.75" transform="translate(807.6 4032.81) rotate(-90)"/>
        <path class="cls-28" d="m2543.82,1494.8v235.61h-247.24v-235.61h247.24Zm-5.5,230.37v-225.13s-236.25,0-236.25,0v225.13s236.25,0,236.25,0Z"/>
      </g>
      <g>
        <rect class="cls-37" x="2391.4" y="1635.72" width="57.59" height="241.75" transform="translate(663.61 4176.79) rotate(-90)"/>
        <path class="cls-4" d="m2543.82,1725.17v62.83h-247.24v-62.83h247.24Zm-5.5,57.59v-52.35s-236.25,0-236.25,0v52.35s236.25,0,236.25,0Z"/>
      </g>
      <g class="cls-22">
        <rect class="cls-4" x="2546.76" y="109.5" width="230.37" height="241.75" transform="translate(2431.57 2892.32) rotate(-90)"/>
        <path class="cls-4" d="m2785.57,112.57v235.61h-247.24V112.57h247.24Zm-5.5,230.37V117.81s-236.25,0-236.25,0v225.13s236.25,0,236.25,0Z"/>
      </g>
      <g class="cls-22">
        <rect class="cls-4" x="2546.76" y="339.87" width="230.37" height="241.75" transform="translate(2201.2 3122.69) rotate(-90)"/>
        <path class="cls-4" d="m2785.57,342.94v235.61h-247.24v-235.61h247.24Zm-5.5,230.37v-225.13s-236.25,0-236.25,0v225.13s236.25,0,236.25,0Z"/>
      </g>
      <g class="cls-22">
        <rect class="cls-4" x="2546.76" y="570.24" width="230.37" height="241.75" transform="translate(1970.83 3353.06) rotate(-90)"/>
        <path class="cls-4" d="m2785.57,573.31v235.61h-247.24v-235.61h247.24Zm-5.5,230.37v-225.13s-236.25,0-236.25,0v225.13s236.25,0,236.25,0Z"/>
      </g>
      <g class="cls-22">
        <rect class="cls-4" x="2546.76" y="800.62" width="230.37" height="241.75" transform="translate(1740.46 3583.44) rotate(-90)"/>
        <path class="cls-4" d="m2785.57,803.68v235.61h-247.24v-235.61h247.24Zm-5.5,230.37v-225.13s-236.25,0-236.25,0v225.13s236.25,0,236.25,0Z"/>
      </g>
      <g class="cls-6">
        <rect class="cls-44" x="2546.76" y="1030.99" width="230.37" height="241.75" transform="translate(1510.09 3813.81) rotate(-90)"/>
        <path class="cls-44" d="m2785.57,1034.06v235.61h-247.24v-235.61h247.24Zm-5.5,230.37v-225.13s-236.25,0-236.25,0v225.13s236.25,0,236.25,0Z"/>
      </g>
      <g>
        <rect class="cls-14" x="2546.76" y="1261.36" width="230.37" height="241.75" transform="translate(1279.71 4044.18) rotate(-90)"/>
        <path class="cls-14" d="m2785.57,1264.43v235.61h-247.24v-235.61h247.24Zm-5.5,230.37v-225.13s-236.25,0-236.25,0v225.13s236.25,0,236.25,0Z"/>
      </g>
      <g>
        <rect class="cls-31" x="2546.76" y="1491.73" width="230.37" height="241.75" transform="translate(1049.34 4274.55) rotate(-90)"/>
        <path class="cls-31" d="m2785.57,1494.8v235.61h-247.24v-235.61h247.24Zm-5.5,230.37v-225.13s-236.25,0-236.25,0v225.13s236.25,0,236.25,0Z"/>
      </g>
      <g>
        <rect class="cls-37" x="2633.15" y="1635.72" width="57.59" height="241.75" transform="translate(905.36 4418.53) rotate(-90)"/>
        <path class="cls-4" d="m2785.57,1725.17v62.83h-247.24v-62.83h247.24Zm-5.5,57.59v-52.35s-236.25,0-236.25,0v52.35s236.25,0,236.25,0Z"/>
      </g>
      <g class="cls-22">
        <rect class="cls-4" x="2788.51" y="109.5" width="230.37" height="241.74" transform="translate(2673.32 3134.06) rotate(-90)"/>
        <path class="cls-4" d="m3027.31,112.57v235.61h-247.24V112.57h247.24Zm-5.5,230.37V117.81s-236.25,0-236.25,0v225.13s236.25,0,236.25,0Z"/>
      </g>
      <g class="cls-22">
        <rect class="cls-4" x="2788.51" y="339.87" width="230.37" height="241.74" transform="translate(2442.95 3364.44) rotate(-90)"/>
        <path class="cls-4" d="m3027.31,342.94v235.61h-247.24v-235.61h247.24Zm-5.5,230.37v-225.13s-236.25,0-236.25,0v225.13s236.25,0,236.25,0Z"/>
      </g>
      <g class="cls-22">
        <rect class="cls-4" x="2788.51" y="570.24" width="230.37" height="241.74" transform="translate(2212.57 3594.81) rotate(-90)"/>
        <path class="cls-4" d="m3027.31,573.31v235.61h-247.24v-235.61h247.24Zm-5.5,230.37v-225.13s-236.25,0-236.25,0v225.13s236.25,0,236.25,0Z"/>
      </g>
      <g class="cls-22">
        <rect class="cls-4" x="2788.51" y="800.62" width="230.37" height="241.74" transform="translate(1982.2 3825.18) rotate(-90)"/>
        <path class="cls-4" d="m3027.31,803.68v235.61h-247.24v-235.61h247.24Zm-5.5,230.37v-225.13s-236.25,0-236.25,0v225.13s236.25,0,236.25,0Z"/>
      </g>
      <g class="cls-10">
        <rect class="cls-23" x="2788.51" y="1030.99" width="230.37" height="241.74" transform="translate(1751.83 4055.55) rotate(-90)"/>
        <path class="cls-23" d="m3027.31,1034.06v235.61h-247.24v-235.61h247.24Zm-5.5,230.37v-225.13s-236.25,0-236.25,0v225.13s236.25,0,236.25,0Z"/>
      </g>
      <g>
        <rect class="cls-46" x="2788.51" y="1261.36" width="230.37" height="241.74" transform="translate(1521.46 4285.92) rotate(-90)"/>
        <path class="cls-46" d="m3027.31,1264.43v235.61h-247.24v-235.61h247.24Zm-5.5,230.37v-225.13s-236.25,0-236.25,0v225.13s236.25,0,236.25,0Z"/>
      </g>
      <g>
        <rect class="cls-29" x="2788.51" y="1491.73" width="230.37" height="241.74" transform="translate(1291.09 4516.3) rotate(-90)"/>
        <path class="cls-29" d="m3027.31,1494.8v235.61h-247.24v-235.61h247.24Zm-5.5,230.37v-225.13s-236.25,0-236.25,0v225.13s236.25,0,236.25,0Z"/>
      </g>
      <g>
        <rect class="cls-37" x="2874.89" y="1635.72" width="57.59" height="241.74" transform="translate(1147.1 4660.28) rotate(-90)"/>
        <path class="cls-4" d="m3027.31,1725.17v62.83h-247.24v-62.83h247.24Zm-5.5,57.59v-52.35s-236.25,0-236.25,0v52.35s236.25,0,236.25,0Z"/>
      </g>
      <g class="cls-22">
        <rect class="cls-4" x="2969.81" y="169.94" width="230.37" height="120.87" transform="translate(2854.63 3315.37) rotate(-90)"/>
        <path class="cls-4" d="m3148.19,112.57v235.61h-126.37V112.57h126.37Zm-5.5,230.37V117.81s-115.37,0-115.37,0v225.13s115.37,0,115.37,0Z"/>
      </g>
      <g class="cls-22">
        <rect class="cls-4" x="2969.81" y="400.31" width="230.37" height="120.87" transform="translate(2624.26 3545.74) rotate(-90)"/>
        <path class="cls-4" d="m3148.19,342.94v235.61h-126.37v-235.61h126.37Zm-5.5,230.37v-225.13s-115.37,0-115.37,0v225.13s115.37,0,115.37,0Z"/>
      </g>
      <g class="cls-22">
        <rect class="cls-4" x="2969.81" y="630.68" width="230.37" height="120.87" transform="translate(2393.88 3776.12) rotate(-90)"/>
        <path class="cls-4" d="m3148.19,573.31v235.61h-126.37v-235.61h126.37Zm-5.5,230.37v-225.13s-115.37,0-115.37,0v225.13s115.37,0,115.37,0Z"/>
      </g>
      <g class="cls-22">
        <rect class="cls-4" x="2969.81" y="861.05" width="230.37" height="120.87" transform="translate(2163.51 4006.49) rotate(-90)"/>
        <path class="cls-4" d="m3148.19,803.68v235.61h-126.37v-235.61h126.37Zm-5.5,230.37v-225.13s-115.37,0-115.37,0v225.13s115.37,0,115.37,0Z"/>
      </g>
      <g class="cls-30">
        <rect class="cls-27" x="2969.81" y="1091.42" width="230.37" height="120.87" transform="translate(1933.14 4236.86) rotate(-90)"/>
        <path class="cls-27" d="m3148.19,1034.06v235.61h-126.37v-235.61h126.37Zm-5.5,230.37v-225.13s-115.37,0-115.37,0v225.13s115.37,0,115.37,0Z"/>
      </g>
      <g>
        <rect class="cls-36" x="2969.81" y="1321.8" width="230.37" height="120.87" transform="translate(1702.77 4467.23) rotate(-90)"/>
        <path class="cls-36" d="m3148.19,1264.43v235.61h-126.37v-235.61h126.37Zm-5.5,230.37v-225.13s-115.37,0-115.37,0v225.13s115.37,0,115.37,0Z"/>
      </g>
      <g>
        <rect class="cls-43" x="2969.81" y="1552.17" width="230.37" height="120.87" transform="translate(1472.39 4697.61) rotate(-90)"/>
        <path class="cls-43" d="m3148.19,1494.8v235.61h-126.37v-235.61h126.37Zm-5.5,230.37v-225.13s-115.37,0-115.37,0v225.13s115.37,0,115.37,0Z"/>
      </g>
      <g>
        <rect class="cls-37" x="3056.2" y="1696.15" width="57.59" height="120.87" transform="translate(1328.41 4841.59) rotate(-90)"/>
        <path class="cls-4" d="m3148.19,1725.17v62.83h-126.37v-62.83h126.37Zm-5.5,57.59v-52.35s-115.37,0-115.37,0v52.35s115.37,0,115.37,0Z"/>
      </g>
    </g>
    <g class="cls-7">
      <rect class="cls-8" x="2103.47" y="1523.37" width="115.19" height="120.87" transform="translate(577.25 3744.87) rotate(-90)"/>
      <rect class="cls-41" x="2109.23" y="1529.42" width="103.67" height="108.79" transform="translate(577.25 3744.87) rotate(-90)"/>
      <g>
        <path class="cls-48" d="m2208.8,1625.81h0c0,1.58-1.35,2.87-3.01,2.87h-89.47c-1.65,0-3.01-1.29-3.01-2.87h0c0-1.58,1.35-2.87,3.01-2.87h89.47c1.65,0,3.01,1.29,3.01,2.87Z"/>
        <path class="cls-48" d="m2208.8,1613.81h0c0,1.58-1.35,2.87-3.01,2.87h-89.47c-1.65,0-3.01-1.29-3.01-2.87h0c0-1.58,1.35-2.87,3.01-2.87h89.47c1.65,0,3.01,1.29,3.01,2.87Z"/>
        <path class="cls-48" d="m2208.8,1601.81h0c0,1.58-1.35,2.87-3.01,2.87h-89.47c-1.65,0-3.01-1.29-3.01-2.87h0c0-1.58,1.35-2.87,3.01-2.87h89.47c1.65,0,3.01,1.29,3.01,2.87Z"/>
        <path class="cls-48" d="m2208.8,1589.81h0c0,1.58-1.35,2.86-3.01,2.86h-89.47c-1.65,0-3.01-1.29-3.01-2.86h0c0-1.58,1.35-2.87,3.01-2.87h89.47c1.65,0,3.01,1.29,3.01,2.87Z"/>
        <path class="cls-48" d="m2208.8,1577.81h0c0,1.58-1.35,2.87-3.01,2.87h-89.47c-1.65,0-3.01-1.29-3.01-2.87h0c0-1.58,1.35-2.87,3.01-2.87h89.47c1.65,0,3.01,1.29,3.01,2.87Z"/>
        <path class="cls-48" d="m2208.8,1565.81h0c0,1.58-1.35,2.87-3.01,2.87h-89.47c-1.65,0-3.01-1.29-3.01-2.87h0c0-1.58,1.35-2.87,3.01-2.87h89.47c1.65,0,3.01,1.29,3.01,2.87Z"/>
        <path class="cls-48" d="m2208.8,1553.8h0c0,1.58-1.35,2.87-3.01,2.87h-89.47c-1.65,0-3.01-1.29-3.01-2.87h0c0-1.58,1.35-2.87,3.01-2.87h89.47c1.65,0,3.01,1.29,3.01,2.87Z"/>
        <path class="cls-48" d="m2208.8,1541.8h0c0,1.58-1.35,2.87-3.01,2.87h-89.47c-1.65,0-3.01-1.29-3.01-2.87h0c0-1.58,1.35-2.87,3.01-2.87h89.47c1.65,0,3.01,1.29,3.01,2.87Z"/>
      </g>
    </g>
  </g>
  <g id="Layer_1" data-name="Layer 1">
    <g id="LWPOLYLINE" class="cls-16">
      <rect class="cls-3" x="1936.71" y="115.19" width="120.87" height="1151.86"/>
    </g>
    <g id="LWPOLYLINE-2" data-name="LWPOLYLINE">
      <rect class="cls-25" x="2057.58" y="1670.2" width="1087.85" height="115.19"/>
    </g>
    <g>
      <g class="cls-16">
        <g id="LWPOLYLINE-3" data-name="LWPOLYLINE">
          <polygon class="cls-35" points="182 98.8 182 63.52 193.16 63.52 193.16 10.59 137.35 10.59 137.35 98.8 182 98.8 182 98.8"/>
        </g>
        <g id="LWPOLYLINE-4" data-name="LWPOLYLINE">
          <polygon class="cls-35" points="985.52 98.8 985.52 63.52 974.36 63.52 974.36 10.59 1030.17 10.59 1030.17 98.8 985.52 98.8 985.52 98.8"/>
        </g>
        <g id="LWPOLYLINE-5" data-name="LWPOLYLINE">
          <rect class="cls-35" x="182" y="98.8" width="44.64" height="635.11"/>
        </g>
      </g>
      <g id="ARC">
        <path class="cls-4" d="m974.33,88.21c0,22.1-1.45,44.38-4.3,66.22l-5.05-.41c2.84-21.71,4.28-43.85,4.28-65.81h5.08Zm-7.66,88.17c-3.83,21.85-9.15,43.76-15.83,65.12l-4.93-.96c6.64-21.23,11.93-43,15.73-64.71l5.03.55Zm-23.01,86.5c-7.63,21.19-16.77,42.31-27.17,62.76l-4.71-1.5c10.33-20.32,19.42-41.31,26.99-62.36l4.88,1.1Zm-38.08,83.19c-11.29,20.13-24.06,40.04-37.96,59.16l-4.4-2c13.81-19,26.51-38.78,37.72-58.78l4.64,1.63Zm-52.35,78.16c-14.71,18.7-30.85,37.01-47.96,54.43l-4.01-2.46c17-17.31,33.04-35.51,47.66-54.09l4.31,2.12Zm-65.52,71.67c-17.84,16.92-37.02,33.3-56.99,48.68l-3.54-2.87c19.85-15.29,38.9-31.56,56.64-48.38l3.9,2.57Zm-77.36,63.83c-20.63,14.83-42.48,28.96-64.92,42.01l-3.01-3.23c22.3-12.97,44.01-27.02,64.51-41.75l3.42,2.97Zm-87.72,54.8c-23.03,12.44-47.12,24.06-71.62,34.53l-2.41-3.53c24.35-10.4,48.29-21.95,71.17-34.31l2.87,3.31Zm-96.41,44.68c-24.99,9.81-50.9,18.67-77.01,26.34l-1.77-3.76c25.94-7.63,51.69-16.43,76.52-26.18l2.26,3.59Zm-103.4,33.69c-26.44,6.95-53.66,12.87-80.9,17.6l-1.09-3.92c27.06-4.7,54.11-10.58,80.38-17.49l1.6,3.81Zm-108.32,21.96c-27.37,3.96-55.36,6.84-83.2,8.54l-.39-4c27.66-1.69,55.48-4.55,82.67-8.49l.91,3.95Zm-111.13,9.87c-11.63.39-23.44.59-35.12.59v-4.01c11.6,0,23.34-.2,34.9-.59l.22,4.01Z"/>
      </g>
      <g id="LWPOLYLINE-6" data-name="LWPOLYLINE">
        <polygon class="cls-11" points="168.26 88.21 168.26 52.93 179.42 52.93 179.42 0 123.62 0 123.62 88.21 168.26 88.21 168.26 88.21"/>
      </g>
      <g id="LWPOLYLINE-7" data-name="LWPOLYLINE">
        <polygon class="cls-11" points="971.79 88.21 971.79 52.93 960.63 52.93 960.63 0 1016.43 0 1016.43 88.21 971.79 88.21 971.79 88.21"/>
      </g>
      <g id="LWPOLYLINE-8" data-name="LWPOLYLINE">
        <rect class="cls-11" x="168.26" y="88.21" width="44.64" height="635.11"/>
      </g>
    </g>
    <g class="cls-24">
      <path class="cls-13" d="m2540.24,1548.76c-21.37,21.82-20.14,56.01,2.76,76.38.99.88,2.01,1.72,3.06,2.53,16.3,7.92,31.82,17.2,46.39,27.75,2.61,4.64,3.97,9.82,3.97,15.08v10.11h0c-.74.52-1.45,1.08-2.11,1.66h-32.81c-4.01,0-7.25,3.09-7.25,6.91v21.89c0,3.82,3.25,6.91,7.25,6.91h32.82c1.57,1.38,3.3,2.53,5.13,3.47v32.82h-1.44s0,10.72,0,10.72h-1.96c-.56,0-1.1.22-1.48.61l-18.27,18.32c-.36.36-.56.84-.56,1.34h71.61c0-.5-.2-.98-.56-1.34l-18.27-18.32c-.39-.39-.92-.61-1.48-.61h-1.97v-10.72s-1.43,0-1.43,0v-32.83c1.03-.53,2.05-1.11,3.02-1.8.74-.52,1.44-1.08,2.11-1.66h32.81c4.01,0,7.25-3.09,7.25-6.91v-21.89c0-3.82-3.25-6.91-7.25-6.91h-32.83c-.67-.58-1.36-1.15-2.09-1.66h0v-10.11c0-5.26,1.36-10.44,3.97-15.08,14.56-10.55,30.09-19.84,46.39-27.75,24.36-18.75,28.16-52.78,8.48-75.99-.85-1-1.74-1.98-2.66-2.92-17.96-19.53-44.05-30.51-71.29-30-27.24-.51-53.34,10.47-71.29,30Z"/>
      <rect class="cls-12" x="2589.42" y="1711.08" width="24.18" height="36.29"/>
      <rect class="cls-12" x="2587.99" y="1747.37" width="27.05" height="10.72"/>
      <path class="cls-12" d="m2586.02,1758.09h1.96s27.05,0,27.05,0h1.97c.56,0,1.1.22,1.48.61l18.27,18.32c.36.36.56.84.56,1.34v7.02h-71.61v-7.02c0-.5.2-.98.56-1.34l18.27-18.32c.39-.39.92-.61,1.48-.61Z"/>
      <path class="cls-12" d="m2651.55,1675.36c4.01,0,7.25,3.09,7.25,6.91v21.89c0,3.82-3.25,6.91-7.25,6.91h-100.07c-4.01,0-7.25-3.1-7.25-6.91v-21.89c0-3.82,3.25-6.91,7.25-6.91h100.07Z"/>
      <path class="cls-12" d="m2586.4,1673.7c-11.31,7.95-13.72,23.14-5.37,33.92,8.35,10.78,24.28,13.07,35.6,5.12,11.31-7.95,13.72-23.14,5.37-33.92-1.51-1.95-3.32-3.68-5.37-5.12h-30.22Z"/>
      <path class="cls-12" d="m2601.51,1707.62c-8.35,0-15.11-6.45-15.11-14.4v-29.63c0-5.26-1.36-10.44-3.97-15.08-14.56-10.55-30.09-19.84-46.39-27.75-1.05-.81-2.07-1.66-3.06-2.54-22.89-20.36-24.13-54.56-2.76-76.38,17.96-19.53,44.05-30.51,71.3-30,27.24-.51,53.33,10.47,71.29,30,.92.94,1.81,1.92,2.66,2.92,19.68,23.22,15.88,57.24-8.48,75.99-16.3,7.91-31.82,17.2-46.39,27.75-2.61,4.64-3.97,9.81-3.97,15.08v29.63c0,7.95-6.77,14.4-15.11,14.4Z"/>
    </g>
    <path class="cls-17" d="m2111,229.94l-35.9,34.21c-1.18,1.12-1.18,2.95,0,4.07l380.34,362.45c1.18,1.12,3.09,1.12,4.27,0l35.9-34.21,21.37,20.36-48.72,46.43c-5.9,5.62-15.47,5.62-21.37,0l-405.98-386.88c-5.9-5.62-5.9-14.74,0-20.36l48.72-46.43,21.37,20.36Z"/>
    <g id="LWPOLYLINE-9" data-name="LWPOLYLINE" class="cls-16">
      <path class="cls-35" d="m2549.89,544.74c5.9-5.62,15.47-5.62,21.37,0,5.9,5.62,5.9,14.74,0,20.36l-40.6,38.69-21.37-20.36,40.6-38.69h0Z"/>
    </g>
    <g id="LWPOLYLINE-10" data-name="LWPOLYLINE" class="cls-16">
      <polygon class="cls-35" points="2103.31 196.55 2111.86 188.4 2133.23 208.77 2124.68 216.91 2103.31 196.55"/>
    </g>
    <g id="LWPOLYLINE-11" data-name="LWPOLYLINE" class="cls-16">
      <rect class="cls-35" x="2003.19" y="923.85" width="12.09" height="345.56"/>
    </g>
    <g id="LWPOLYLINE-12" data-name="LWPOLYLINE" class="cls-16">
      <polygon class="cls-35" points="2006.73 125.69 2605.02 695.83 2613.57 687.68 2015.28 117.54 2006.73 125.69"/>
    </g>
    <g id="LWPOLYLINE-13" data-name="LWPOLYLINE" class="cls-16">
      <polygon class="cls-35" points="2094.34 192.88 2096.9 190.44 2131.09 223.02 2128.53 225.46 2094.34 192.88"/>
    </g>
    <g id="LWPOLYLINE-14" data-name="LWPOLYLINE" class="cls-16">
      <polygon class="cls-35" points="2085.79 201.03 2083.23 203.47 2117.41 236.05 2119.98 233.61 2085.79 201.03"/>
    </g>
    <g id="LWPOLYLINE-15" data-name="LWPOLYLINE" class="cls-16">
      <polygon class="cls-35" points="2534.51 612.34 2537.07 609.9 2502.88 577.32 2500.32 579.77 2534.51 612.34"/>
    </g>
    <g id="LWPOLYLINE-16" data-name="LWPOLYLINE" class="cls-16">
      <polygon class="cls-35" points="2525.96 620.49 2523.4 622.93 2489.21 590.35 2491.77 587.91 2525.96 620.49"/>
    </g>
    <g>
      <path class="cls-17" d="m1267.18,1670.2v-163.3s0,163.3,0,163.3Z"/>
      <path class="cls-17" d="m1270.09,1670.2h-2.91s2.91,0,2.91,0Z"/>
      <polygon class="cls-17" points="1267.18 1670.2 1267.18 1506.9 1259.76 1501.84 1256.49 1498.57 1252.31 1492.69 1249.54 1486.34 1248.08 1479.24 1248.07 1473.03 1254.55 992.12 1256.52 967.45 1260.23 952.41 1263.73 942.7 1270.09 929.34 1277.12 917.99 1285.38 907.33 1294.94 897.32 1304.82 888.87 1316.23 880.94 1327.94 874.42 1342.33 868.27 1354.69 864.43 1366.56 861.86 1576.47 861.86 1589.24 864.66 1600.74 868.29 1617 875.37 1627.08 881.11 1639.77 890.1 1648.39 897.6 1657.66 907.33 1664.91 916.57 1673.95 931.2 1678.78 941.42 1683.74 955.56 1686.31 966.37 1688.12 979.78 1688.48 992.12 1694.96 1473.03 1694.79 1480.68 1693.71 1485.65 1690.72 1492.69 1686.71 1498.38 1681.49 1503.31 1675.85 1506.9 1675.85 1670.2 1267.18 1670.2 1267.18 1670.2 1267.18 1670.2"/>
      <polygon class="cls-17" points="1248.07 1473.03 1248.08 1472.43 1248.08 1479.24 1248.07 1473.03"/>
      <polygon class="cls-17" points="1248.08 1479.24 1248.08 1472.43 1249.54 1364.14 1248.08 1479.24"/>
      <path class="cls-17" d="m1267.18,935.44l2.91-6.1-2.91,6.1Z"/>
      <path class="cls-17" d="m1270.09,929.34l7.03-11.35-7.03,11.35Z"/>
      <path class="cls-17" d="m1277.12,917.99l8.25-10.66-8.25,10.66Z"/>
      <path class="cls-17" d="m1285.38,907.33l9.56-10.01-9.56,10.01Z"/>
      <path class="cls-17" d="m1294.94,897.32l9.89-8.45-9.89,8.45Z"/>
      <path class="cls-17" d="m1304.82,888.87l11.41-7.94-11.41,7.94Z"/>
      <path class="cls-17" d="m1316.23,880.94l11.7-6.52-11.7,6.52Z"/>
      <path class="cls-17" d="m1327.94,874.42l14.39-6.14-14.39,6.14Z"/>
      <path class="cls-17" d="m1342.33,868.27l12.37-3.85-12.37,3.85Z"/>
      <path class="cls-17" d="m1354.69,864.43l11.87-2.57-11.87,2.57Z"/>
      <polygon class="cls-17" points="1694.79 1480.68 1693.71 1380.05 1694.79 1459.99 1694.79 1480.68"/>
      <polygon class="cls-17" points="1694.79 1480.68 1694.79 1459.99 1694.96 1473.03 1694.79 1480.68"/>
      <g id="WIPEOUT">
        <polygon class="cls-41" points="1229.77 1463.55 1229.78 1462.95 1229.78 1469.76 1229.77 1463.55"/>
        <polygon class="cls-41" points="1229.78 1469.76 1229.78 1462.95 1231.24 1354.66 1229.78 1469.76"/>
        <path class="cls-41" d="m1248.89,1670.2v-172.78s0,172.78,0,172.78Z"/>
        <path class="cls-41" d="m1251.79,1670.2h-2.91s2.91,0,2.91,0Z"/>
        <path class="cls-41" d="m1248.89,925.95l2.91-6.1-2.91,6.1Z"/>
        <path class="cls-41" d="m1251.79,919.85l7.03-11.34-7.03,11.34Z"/>
        <path class="cls-41" d="m1258.83,908.51l8.25-10.66-8.25,10.66Z"/>
        <path class="cls-41" d="m1267.08,897.85l9.56-10.01-9.56,10.01Z"/>
        <path class="cls-41" d="m1276.64,887.84l9.89-8.45-9.89,8.45Z"/>
        <path class="cls-41" d="m1286.53,879.39l11.41-7.93-11.41,7.93Z"/>
        <path class="cls-41" d="m1297.93,871.45l11.71-6.52-11.71,6.52Z"/>
        <path class="cls-41" d="m1309.64,864.93l14.39-6.14-14.39,6.14Z"/>
        <path class="cls-41" d="m1324.03,858.79l12.37-3.85-12.37,3.85Z"/>
        <path class="cls-41" d="m1336.39,854.94l11.87-2.57-11.87,2.57Z"/>
        <polygon class="cls-41" points="1676.49 1471.2 1675.41 1370.56 1676.49 1450.5 1676.49 1471.2"/>
        <polygon class="cls-41" points="1676.49 1471.2 1676.49 1450.5 1676.67 1463.55 1676.49 1471.2"/>
        <polygon class="cls-33" points="1248.89 1670.2 1248.89 1497.42 1241.46 1492.35 1238.19 1489.09 1234.02 1483.21 1231.24 1476.86 1229.78 1469.76 1229.77 1463.55 1236.25 982.64 1238.23 957.96 1241.94 942.92 1245.43 933.21 1251.79 919.85 1258.83 908.51 1267.08 897.85 1276.64 887.84 1286.53 879.39 1297.93 871.45 1309.64 864.93 1324.03 858.79 1336.39 854.94 1348.26 852.38 1558.18 852.38 1570.94 855.18 1582.45 858.8 1598.7 865.89 1608.78 871.63 1621.48 880.62 1630.09 888.11 1639.36 897.85 1646.61 907.09 1655.65 921.72 1660.48 931.94 1665.44 946.07 1668.01 956.89 1669.82 970.29 1670.19 982.64 1676.67 1463.55 1676.49 1471.2 1675.41 1476.17 1672.42 1483.21 1668.41 1488.9 1663.19 1493.83 1657.55 1497.42 1657.55 1670.2 1248.89 1670.2 1248.89 1670.2 1248.89 1670.2"/>
      </g>
      <path class="cls-42" d="m1657.55,1670.2v-172.78c0-19.08-16.24-34.56-36.26-34.56h-336.14c-20.03,0-36.26,15.47-36.26,34.56v172.78s408.66,0,408.66,0Z"/>
      <path class="cls-33" d="m1267.02,1670.2v-172.78c0-9.54,8.12-17.28,18.13-17.28h336.14c10.01,0,18.13,7.74,18.13,17.28v172.78h-372.4Z"/>
      <g id="CIRCLE">
        <path class="cls-4" d="m1453.22,1603.39c-18.03,0-32.64-13.92-32.64-31.1,0-17.18,14.61-31.1,32.64-31.1,18.02,0,32.64,13.92,32.64,31.1,0,17.18-14.61,31.1-32.64,31.1h0Z"/>
      </g>
      <path class="cls-41" d="m1453.22,887.49c18.01-.02,36.01,1.1,53.86,3.37,41.9,6.46,76.68,34.34,90.54,72.57,14.5,72.58,14.77,147.1.79,219.78-10.71,33.1-38.08,58.91-72.92,68.78-23.66,5.44-47.95,7.98-72.28,7.56-24.33.42-48.62-2.12-72.28-7.56-34.85-9.86-62.21-35.67-72.92-68.78-13.97-72.68-13.71-147.19.79-219.78,13.86-38.23,48.65-66.11,90.54-72.57,17.86-2.27,35.85-3.4,53.87-3.37Z"/>
      <path class="cls-17" d="m1453.23,887.49c18.01-.02,36.01,1.09,53.86,3.37,34.82,5.37,64.72,25.53,81.78,54.11-17.55-20.58-42.67-34.78-71.04-39.15-17.85-2.27-35.85-3.4-53.86-3.36-18.01-.03-36.01,1.09-53.86,3.36-41.91,6.46-76.69,34.35-90.55,72.58-14.5,72.58-14.77,147.11-.8,219.78,2.3,7.11,5.37,13.87,9.1,20.21-8.82-10.24-15.63-22.15-19.85-35.19-13.97-72.67-13.71-147.19.78-219.78,13.86-38.23,48.65-66.11,90.55-72.57,17.87-2.28,35.85-3.4,53.87-3.37Z"/>
      <path class="cls-4" d="m1453.22,1148.09c5.45-.01,10.88.79,16.08,2.37,17.47,3.96,32.01,15.45,39.31,31.09,7,23.35,10.56,47.53,10.58,71.81-21.65,4.49-43.79,6.57-65.96,6.19-22.17.38-44.31-1.69-65.96-6.19.01-24.28,3.58-48.46,10.58-71.81,7.3-15.64,21.84-27.12,39.31-31.09,5.2-1.58,10.63-2.38,16.08-2.37Z"/>
      <rect class="cls-35" x="1393.42" y="846.15" width="5.5" height=".14"/>
      <rect class="cls-35" x="1261.5" y="846.15" width="5.5" height=".14"/>
      <g id="CIRCLE-2" data-name="CIRCLE">
        <path class="cls-45" d="m1453.22,1597.63c-14.69,0-26.59-11.34-26.59-25.34,0-13.99,11.91-25.34,26.59-25.34s26.59,11.35,26.59,25.34c0,14-11.91,25.34-26.59,25.34h0Z"/>
      </g>
    </g>
    <path class="cls-17" d="m1027.24,1610.38h56.62s0,54.42,0,54.42h0c-4.36.27-8.72.67-13.06,1.21-.48.06-.84.45-.84.91v10.83s54.39,0,54.39,0v-10.83c0-.46-.36-.85-.84-.91-4.34-.54-8.69-.94-13.06-1.21v-54.43s57.12,0,57.12,0v-32.33s-140.33,0-140.33,0v32.33Z"/>
    <g class="cls-47">
      <rect class="cls-34" x="1077.31" y="1587.18" width="26.59" height="73.97"/>
      <path class="cls-34" d="m1064.25,1658.29c4.34-.54,8.69-.94,13.06-1.21h26.59c4.36.27,8.72.68,13.06,1.21.48.06.84.45.84.91v10.83s-54.39,0-54.39,0v-10.83c0-.46.36-.85.84-.91Z"/>
      <rect class="cls-34" x="1074.69" y="1516.32" width="32.33" height="140.33" transform="translate(-495.64 2677.35) rotate(-90)"/>
    </g>
    <g class="cls-2">
      <g class="cls-16">
        <path class="cls-5" d="m1801.37,1469.18v8.06s.09,0,.09,0c-.05.27-.09.55-.09.84v37.14s3.74,41.36,3.74,41.36h-.08s-5.48,1.25-5.48,1.25c-2.11,1.19-3.33,3.42-3.14,5.75.31,15.51,3.29,30.87,8.81,45.46h2.05s1.84,0,1.84,0h.06l.26,4h-11.7s0,58.12,0,58.12l-11.96,1.75h0v1.97s53.02,0,53.02,0h0s12.08,0,12.08,0h0s11.95,0,11.95,0v-1.97s-.01,0-.01,0l-11.94-1.75v-58.12s-11.7,0-11.7,0l.26-4h.08s3.86,0,3.86,0c5.53-14.59,8.5-29.95,8.82-45.46.19-2.33-1.03-4.56-3.14-5.75l-5.48-1.25h-.08s3.74-41.36,3.74-41.36v-37.98s0,.84,0,.84c0-.29-.03-.57-.09-.84h.09s0-8.06,0-8.06c0-2.54-2.16-4.6-4.83-4.6h-36.23c-2.67,0-4.83,2.06-4.83,4.6Z"/>
      </g>
      <path class="cls-5" d="m1792.9,1472.57v-8.06c0-2.54,2.16-4.6,4.83-4.6h36.23c2.67,0,4.83,2.06,4.83,4.61v8.06h-45.89Z"/>
      <path class="cls-5" d="m1796.56,1551.9l-5.48,1.25c-2.11,1.19-3.33,3.42-3.14,5.75.31,15.51,3.29,30.87,8.81,45.46h2.05s1.84,0,1.84,0h30.4s3.87,0,3.87,0c5.52-14.59,8.5-29.95,8.82-45.46.19-2.33-1.03-4.56-3.14-5.75l-5.48-1.25h-38.56Z"/>
      <g id="LINE">
        <rect class="cls-5" x="1792.9" y="1506.52" width="45.89" height="1.15"/>
      </g>
      <polygon class="cls-5" points="1830.33 1614.12 1832.75 1577.3 1798.94 1577.29 1801.35 1614.12 1830.33 1614.12"/>
      <path class="cls-5" d="m1832.75,1577.3l6.04-66.75v-37.98s0,.84,0,.84c0-2.54-2.16-4.6-4.83-4.6h-36.23c-2.67,0-4.83,2.06-4.83,4.6v-.84s0,37.98,0,37.98l6.03,66.75h33.81Z"/>
      <g id="LINE-2" data-name="LINE">
        <polygon class="cls-5" points="1831.06 1603.79 1831.06 1604.94 1831.03 1603.79 1831.06 1603.79"/>
      </g>
      <rect class="cls-5" x="1777.31" y="1668.23" width="77.05" height="1.97"/>
      <polygon class="cls-5" points="1777.31 1668.23 1800.14 1664.89 1831.54 1664.9 1854.36 1668.23 1777.31 1668.23"/>
      <rect class="cls-5" x="1830.33" y="1608.37" width="12.08" height="61.83"/>
      <rect class="cls-5" x="1789.27" y="1608.37" width="12.08" height="61.83"/>
      <rect class="cls-5" x="1801.35" y="1614.12" width="28.98" height="24.17"/>
      <rect class="cls-5" x="1802.54" y="1637.1" width="26.61" height="28.98" transform="translate(164.25 3467.43) rotate(-90)"/>
    </g>
    <g>
      <g id="LWPOLYLINE-17" data-name="LWPOLYLINE" class="cls-16">
        <path class="cls-35" d="m184.56,1670.2v-469.39c0-6.36,5.41-11.52,12.09-11.52h640.63c6.68,0,12.09,5.16,12.09,11.52v469.39H184.56Z"/>
      </g>
      <g id="LWPOLYLINE-18" data-name="LWPOLYLINE">
        <path class="cls-42" d="m153.84,1670.03v-495.13c0-6.36,5.41-11.52,12.09-11.52h640.63c6.68,0,12.09,5.16,12.09,11.52v495.13H153.84Z"/>
      </g>
      <g id="LWPOLYLINE-19" data-name="LWPOLYLINE">
        <rect class="cls-33" x="153.84" y="1578.05" width="664.8" height="92.15"/>
      </g>
      <g id="LWPOLYLINE-20" data-name="LWPOLYLINE">
        <path class="cls-41" d="m190.1,1578.05h592.28s0-362.84,0-362.84c0-3.18-2.71-5.76-6.04-5.76H196.14c-3.34,0-6.04,2.58-6.04,5.76v362.84Z"/>
      </g>
      <g id="LWPOLYLINE-21" data-name="LWPOLYLINE" class="cls-16">
        <path class="cls-35" d="m196.14,1209.45h580.19c3.34,0,6.04,2.58,6.04,5.76v10.37H208.23c-3.34,0-6.04,2.58-6.04,5.76v346.71h-12.09v-362.84c0-3.18,2.71-5.76,6.04-5.76Z"/>
      </g>
      <g>
        <ellipse class="cls-8" cx="486.24" cy="1462.77" rx="51.28" ry="48.87"/>
        <path class="cls-48" d="m486.24,1433.49c16.97,0,30.72,13.11,30.72,29.28,0,16.17-13.76,29.28-30.72,29.28-16.97,0-30.72-13.11-30.72-29.28,0-16.17,13.76-29.28,30.72-29.28Z"/>
      </g>
      <path class="cls-17" d="m478.24,1508.71c0,.17,0,.34.01.51v100.25c-9.96,4.19-17.44,12.74-19.77,23.11h-1.99c-.33,0-.61.26-.61.58v12.67c0,.32.27.58.61.58h1.99c2.83,12.57,13.22,22.47,26.41,25.16v1.91c0,.32.27.58.6.58h13.3c.33,0,.6-.26.6-.58v-1.91c13.19-2.7,23.56-12.59,26.39-25.16h2.01c.33,0,.6-.26.6-.58v-12.67c0-.32-.27-.58-.6-.58h-2.01c-2.33-10.37-9.8-18.91-19.75-23.1v-100.26c.29-7.31-5.7-13.46-13.37-13.74-.18,0-.35-.01-.53-.01-7.68,0-13.9,5.93-13.9,13.25Z"/>
      <g>
        <path class="cls-39" d="m486.23,1602.83c-19.01,0-34.43,14.69-34.43,32.81,0,18.12,15.41,32.81,34.43,32.81,19.01,0,34.43-14.69,34.43-32.81,0-18.12-15.41-32.81-34.43-32.81Z"/>
        <path class="cls-39" d="m472.34,1619.82v-114.45c0-.17,0-.34,0-.5,0-7.32,6.22-13.25,13.9-13.25.18,0,.35,0,.53,0,7.67.28,13.65,6.43,13.36,13.74v114.45s-27.79,0-27.79,0Z"/>
        <path class="cls-39" d="m472.34,1621.53v-109.37c0-.17,0-.34,0-.5,0-7.32,6.22-13.25,13.9-13.25.18,0,.35,0,.53,0,7.67.28,13.65,6.43,13.36,13.74v109.37s-27.79,0-27.79,0Z"/>
        <path class="cls-39" d="m486.23,1613.06c13.09,0,23.7,10.11,23.7,22.58,0,12.47-10.61,22.58-23.7,22.58-13.09,0-23.7-10.11-23.7-22.58,0-12.47,10.61-22.58,23.7-22.58Z"/>
        <g>
          <path class="cls-39" d="m478.99,1669.62v-24.77c0-1.27-1.08-2.3-2.42-2.3h-25.99c-.33,0-.6-.26-.6-.58v-12.67c0-.32.27-.58.6-.58h25.99c1.34,0,2.42-1.03,2.42-2.3v-24.76c0-.32.27-.58.6-.58h13.3c.33,0,.6.26.6.58v24.76c0,1.27,1.08,2.3,2.42,2.3h25.99c.33,0,.6.26.6.58v12.67c0,.32-.27.58-.6.58h-25.99c-1.34,0-2.42,1.03-2.42,2.3v24.77c0,.32-.27.58-.6.58h-13.3c-.33,0-.6-.26-.6-.58Z"/>
          <g class="cls-38">
            <path class="cls-39" d="m520.55,1640.68h-25.99c-1.34,0-2.42,1.03-2.42,2.3v24.77c0,.32-.27.58-.6.58l-12.55,1.3c0,.32.27.58.6.58h13.3c.33,0,.6-.26.6-.58v-24.77c0-1.27,1.08-2.3,2.42-2.3h25.99c.33,0,.6-.26.6-.58v-12.67c0-.32-.27-.58-.6-.58l-.74,11.37c0,.32-.27.58-.6.58Z"/>
            <path class="cls-39" d="m493.51,1626.62c0-.06-.02-.13-.02-.19v-24.76c0-.32-.27-.58-.6-.58h-.74s.56,25.16,1.37,25.53Z"/>
            <path class="cls-39" d="m449.98,1640.68v1.3c0,.32.27.58.6.58h25.99c.38,0,.73.09,1.05.24-.11-1.18-27.64-2.11-27.64-2.11Z"/>
          </g>
          <g class="cls-16">
            <path class="cls-39" d="m478.97,1644.66c0,.07.02.13.02.2v24.77c0,.32.27.58.6.58,0,0,.18-25.16-.63-25.54Z"/>
            <path class="cls-39" d="m522.5,1629.31c0-.32-.27-.58-.6-.58h-25.99c-.38,0-.73-.09-1.05-.24.11,1.18,27.64.81,27.64.81Z"/>
            <path class="cls-39" d="m478.99,1601.66v24.76c0,1.27-1.08,2.3-2.42,2.3h-25.99c-.33,0-.6.26-.6.58v12.67c0,.32,1.35-10.8,1.35-10.8,0-.32.27-.58.61-.58h25.99c1.34,0,2.42-1.03,2.42-2.3v-24.77c0-.32.27-.58.6-.58,0,0,12.28-1.87,11.95-1.87h-13.3c-.33,0-.6.26-.6.58Z"/>
          </g>
        </g>
      </g>
    </g>
    <g id="LWPOLYLINE-22" data-name="LWPOLYLINE">
      <rect class="cls-25" x="2.75" y="1670.2" width="1933.96" height="115.19"/>
    </g>
    <g class="cls-15">
      <path class="cls-20" d="m2098.92,227.59l-35.9,34.21c-1.18,1.12-1.18,2.95,0,4.07l380.34,362.45c1.18,1.12,3.09,1.12,4.27,0l35.9-34.21,21.37,20.36-48.72,46.43c-5.9,5.62-15.47,5.62-21.37,0l-405.98-386.88c-5.9-5.62-5.9-14.74,0-20.36l48.72-46.43,21.37,20.36Z"/>
      <g id="LWPOLYLINE-23" data-name="LWPOLYLINE">
        <path class="cls-20" d="m2537.8,542.39c5.9-5.62,15.47-5.62,21.37,0,5.9,5.62,5.9,14.74,0,20.36l-40.6,38.69-21.37-20.36,40.6-38.69h0Z"/>
      </g>
      <g id="LWPOLYLINE-24" data-name="LWPOLYLINE">
        <polygon class="cls-20" points="2091.22 194.19 2099.77 186.05 2121.14 206.41 2112.59 214.55 2091.22 194.19"/>
      </g>
      <g id="LWPOLYLINE-25" data-name="LWPOLYLINE" class="cls-19">
        <rect class="cls-20" x="1991.1" y="921.49" width="12.09" height="345.56"/>
      </g>
      <g id="ARC-2" data-name="ARC">
        <path class="cls-20" d="m2603.42,687.18c-17.04,16.23-35.02,31.96-53.43,46.73l-3.54-4.01c18.29-14.68,36.15-30.3,53.08-46.43l3.89,3.71Zm-76.95,64.93c-23.78,17.74-48.83,34.45-74.46,49.67l-2.91-4.45c25.47-15.12,50.36-31.72,73.98-49.34l3.39,4.13Zm-100.47,64.5c-26.18,14.33-53.47,27.48-81.13,39.07l-2.21-4.8c27.47-11.52,54.59-24.57,80.6-38.81l2.74,4.54Zm-109.08,50.22c-28.07,10.64-57.05,19.95-86.14,27.68l-1.48-5.05c28.9-7.67,57.69-16.92,85.58-27.5l2.03,4.87Zm-115.48,34.93c-29.37,6.73-59.45,12.02-89.4,15.72l-.71-5.2c29.76-3.68,59.64-8.93,88.82-15.61l1.29,5.09Zm-119.54,18.92c-26.15,2.33-52.73,3.51-79.01,3.51-3.94,0-7.92-.03-11.83-.08l.08-5.24c3.89.05,7.84.08,11.76.08,26.1,0,52.51-1.17,78.49-3.48l.51,5.22Z"/>
      </g>
      <g id="LWPOLYLINE-26" data-name="LWPOLYLINE" class="cls-19">
        <polygon class="cls-20" points="1994.64 123.33 2592.93 693.47 2601.48 685.33 2003.19 115.19 1994.64 123.33"/>
      </g>
      <g id="LWPOLYLINE-27" data-name="LWPOLYLINE">
        <polygon class="cls-20" points="2082.25 190.53 2084.81 188.08 2119 220.66 2116.44 223.11 2082.25 190.53"/>
      </g>
      <g id="LWPOLYLINE-28" data-name="LWPOLYLINE">
        <polygon class="cls-20" points="2073.7 198.67 2071.14 201.11 2105.33 233.7 2107.89 231.25 2073.7 198.67"/>
      </g>
      <g id="LWPOLYLINE-29" data-name="LWPOLYLINE">
        <polygon class="cls-20" points="2522.42 609.99 2524.98 607.55 2490.8 574.97 2488.23 577.41 2522.42 609.99"/>
      </g>
      <g id="LWPOLYLINE-30" data-name="LWPOLYLINE">
        <polygon class="cls-20" points="2513.87 618.13 2511.31 620.58 2477.12 588 2479.68 585.55 2513.87 618.13"/>
      </g>
    </g>
  </g>
</svg>