<?xml version="1.0" encoding="UTF-8"?>
<svg xmlns="http://www.w3.org/2000/svg" xmlns:xlink="http://www.w3.org/1999/xlink" viewBox="0 0 149.53 157.9">
  <defs>
    <style>
      .cls-1 {
        fill: url(#linear-gradient-2);
      }

      .cls-2 {
        fill: #555;
      }

      .cls-3, .cls-4 {
        fill: #fff;
      }

      .cls-5, .cls-6 {
        fill: #ddd3cc;
        mix-blend-mode: multiply;
      }

      .cls-7, .cls-4, .cls-8, .cls-6, .cls-9 {
        fill-rule: evenodd;
      }

      .cls-7, .cls-10 {
        fill: #b3b6ba;
      }

      .cls-11 {
        isolation: isolate;
      }

      .cls-12 {
        fill: #e5576f;
      }

      .cls-13 {
        fill: #d6d8d8;
      }

      .cls-8 {
        fill: #d2d6d8;
      }

      .cls-14 {
        fill: #2a2a2a;
      }

      .cls-9, .cls-15 {
        fill: #e3e7e8;
      }

      .cls-16 {
        fill: url(#Earthtone_21-2);
      }

      .cls-17 {
        fill: #f9ddcf;
        opacity: .5;
      }

      .cls-18 {
        clip-path: url(#clippath);
      }

      .cls-19 {
        fill: none;
      }

      .cls-20 {
        fill: #373737;
      }

      .cls-21 {
        fill: #999;
      }

      .cls-22 {
        fill: url(#Earthtone_21);
      }

      .cls-23 {
        fill: url(#linear-gradient-3);
      }

      .cls-24 {
        fill: url(#linear-gradient);
      }

      .cls-25 {
        fill: url(#linear-gradient-4);
      }

      .cls-26 {
        fill: #888;
      }
    </style>
    <clipPath id="clippath">
      <rect class="cls-19" x="3" y="0" width="99.31" height="157.9"/>
    </clipPath>
    <linearGradient id="Earthtone_21" data-name="Earthtone 21" x1="299.35" y1="-241.25" x2="182.41" y2="-113.37" gradientTransform="translate(198.71 301.12) rotate(-90)" gradientUnits="userSpaceOnUse">
      <stop offset="0" stop-color="#b85e42"/>
      <stop offset=".5" stop-color="#9f2214"/>
      <stop offset="1" stop-color="#700101"/>
    </linearGradient>
    <linearGradient id="Earthtone_21-2" data-name="Earthtone 21" x1="336.98" y1="-210.15" x2="220.03" y2="-82.26" xlink:href="#Earthtone_21"/>
    <linearGradient id="linear-gradient" x1="195.31" y1="16.35" x2="195.31" y2="-6.35" gradientTransform="translate(89.28 -114.44) rotate(90)" gradientUnits="userSpaceOnUse">
      <stop offset="0" stop-color="#bfbfbf"/>
      <stop offset="1" stop-color="#aaa"/>
    </linearGradient>
    <linearGradient id="linear-gradient-2" x1="195.31" y1="13.44" x2="195.31" y2="-3.43" gradientTransform="translate(89.28 -114.44) rotate(90)" gradientUnits="userSpaceOnUse">
      <stop offset="0" stop-color="#dadada"/>
      <stop offset="1" stop-color="#cacaca"/>
    </linearGradient>
    <linearGradient id="linear-gradient-3" x1="103.87" y1="42.58" x2="104.87" y2="145.29" gradientTransform="translate(-27.79 130.1) rotate(-90)" gradientUnits="userSpaceOnUse">
      <stop offset="0" stop-color="#dcdcdc"/>
      <stop offset="1" stop-color="#aaa"/>
    </linearGradient>
    <linearGradient id="linear-gradient-4" x1="104.33" y1="47.18" x2="104.33" y2="117.73" gradientTransform="translate(-27.79 130.1) rotate(-90)" gradientUnits="userSpaceOnUse">
      <stop offset="0" stop-color="#e8e8e8"/>
      <stop offset="1" stop-color="#d5d5d5"/>
    </linearGradient>
  </defs>
  <g class="cls-11">
    <g id="Layer_1" data-name="Layer 1">
      <g class="cls-18">
        <g>
          <rect class="cls-22" x="4.49" y=".41" width="72.79" height="155.29"/>
          <path class="cls-17" d="m4.54,26.22v.58s0,25.21,0,25.21v.58s0,25.21,0,25.21v.57s0,25.21,0,25.21v.58s0,25.21,0,25.21v.58s0,25.79,0,25.79h24.07s.54,0,.54,0h23.52s.54,0,.54,0h24.07s0-25.79,0-25.79v-.58s0-25.21,0-25.21v-.58s0-25.21,0-25.21v-.57s0-25.21,0-25.21v-.58s0-25.21,0-25.21v-.58s0-25.78,0-25.78h-24.07s-.54,0-.54,0h-23.52s-.54,0-.54,0H4.54s0,25.78,0,25.78Zm48.13,103.14h-23.52v-25.2h23.52v25.2Zm0-25.79h-23.52v-25.2h23.52v25.2Zm0-25.78h-23.52v-25.2h23.52v25.2Zm0-25.79h-23.52v-25.2h23.52v25.2ZM5.08,26.8h23.53v25.2H5.08v-25.2Zm0,25.79h23.53v25.2H5.08v-25.2Zm0,25.79h23.53v25.2H5.08v-25.2Zm0,25.79h23.53v25.2H5.08v-25.2Zm0,50.99v-25.21h23.53v25.21H5.08Zm24.07,0v-25.21h23.52v25.21h-23.52Zm47.59,0h-23.53v-25.21h23.53v25.21Zm0-25.79h-23.53v-25.2h23.53v25.2Zm0-25.79h-23.53v-25.2h23.53v25.2Zm0-25.78h-23.53v-25.2h23.53v25.2Zm0-25.79h-23.53v-25.2h23.53v25.2Zm0-50.99v25.2h-23.53V1.01h23.53Zm-24.07,0v25.2h-23.52V1.01h23.52Zm-24.06,25.2H5.08V1.01h23.53v25.2Z"/>
          <rect class="cls-16" x="76.74" y=".41" width="72.79" height="155.29"/>
          <path class="cls-17" d="m76.78,26.22v.58s0,25.21,0,25.21v.58s0,25.21,0,25.21v.57s0,25.21,0,25.21v.58s0,25.21,0,25.21v.58s0,25.79,0,25.79h24.07s.54,0,.54,0h23.52s.54,0,.54,0h24.07s0-25.79,0-25.79v-.58s0-25.21,0-25.21v-.58s0-25.21,0-25.21v-.57s0-25.21,0-25.21v-.58s0-25.21,0-25.21v-.58s0-25.78,0-25.78h-24.07s-.54,0-.54,0h-23.52s-.54,0-.54,0h-24.07s0,25.78,0,25.78Zm48.13,103.14h-23.52v-25.2h23.52v25.2Zm0-25.79h-23.52v-25.2h23.52v25.2Zm0-25.78h-23.52v-25.2h23.52v25.2Zm0-25.79h-23.52v-25.2h23.52v25.2Zm-47.59-25.2h23.53v25.2h-23.53v-25.2Zm0,25.79h23.53v25.2h-23.53v-25.2Zm0,25.79h23.53v25.2h-23.53v-25.2Zm0,25.79h23.53v25.2h-23.53v-25.2Zm0,50.99v-25.21h23.53v25.21h-23.53Zm24.07,0v-25.21h23.52v25.21h-23.52Zm47.59,0h-23.53v-25.21h23.53v25.21Zm0-25.79h-23.53v-25.2h23.53v25.2Zm0-25.79h-23.53v-25.2h23.53v25.2Zm0-25.78h-23.53v-25.2h23.53v25.2Zm0-25.79h-23.53v-25.2h23.53v25.2Zm0-50.99v25.2h-23.53V1.01h23.53Zm-24.07,0v25.2h-23.52V1.01h23.52Zm-24.06,25.2h-23.53V1.01h23.53v25.2Z"/>
        </g>
      </g>
      <path class="cls-6" d="m10.63,118.59v29.17c0,3.3.52,3.86,3.62,3.86h32.47c3.1,0,3.63-.55,3.63-3.86v-29.17c0-3.3-.53-3.86-3.63-3.86H14.25c-3.1,0-3.62.55-3.62,3.86Z"/>
      <path class="cls-6" d="m8.95,120.38v29.17c0,3.3.52,3.86,3.62,3.86h32.47c3.1,0,3.62-.55,3.62-3.86v-29.17c0-3.3-.52-3.86-3.62-3.86H12.57c-3.1,0-3.62.55-3.62,3.86Z"/>
      <path class="cls-5" d="m56.46,125.79l-1.09,14.46c0,1.34.79,2.48,1.9,2.95-1.44.99-2.41,2.71-2.41,4.67,0,.22.04.43.06.64-.02.21-.06.42-.06.64v3.95s0,.08,0,.08v.09c0,.48.36.86.81.86h.08s22.07,0,22.07,0h.08c.45,0,.81-.39.81-.86v-.17s0-3.95,0-3.95c0-.22-.04-.43-.06-.64.02-.21.06-.42.06-.64,0-1.95-.97-3.67-2.41-4.67,1.11-.46,1.9-1.61,1.9-2.95l-1.09-14.46c-.63-6.71-4.05-11-10.33-11-6.28,0-9.68,4.29-10.33,11Z"/>
      <path class="cls-5" d="m54.87,126.69l-1.09,14.46c0,1.34.79,2.48,1.9,2.95-1.44.99-2.41,2.71-2.41,4.67,0,.22.04.43.06.64-.02.21-.06.42-.06.64v3.95s0,.08,0,.08v.09c0,.48.36.86.81.86h.08s22.07,0,22.07,0h.08c.45,0,.81-.39.81-.86v-.17s0-3.95,0-3.95c0-.22-.04-.43-.06-.64.02-.21.06-.42.06-.64,0-1.95-.97-3.67-2.41-4.67,1.11-.46,1.9-1.61,1.9-2.95l-1.09-14.46c-.63-6.71-4.05-11-10.33-11-6.28,0-9.68,4.29-10.33,11Z"/>
      <path class="cls-6" d="m83.28,144.81c-.79.4-1.33,1.23-1.33,2.21s.55,1.82,1.33,2.21v4.52s2.69,0,2.69,0h12.41s0-46.13,0-46.13h-12.41s-2.69,0-2.69,0v37.19Z"/>
      <path class="cls-6" d="m85.3,145.89c-.79.4-1.33,1.23-1.33,2.21s.55,1.82,1.33,2.21v4.52s2.69,0,2.69,0h12.41s0-46.13,0-46.13h-12.41s-2.69,0-2.69,0v37.19Z"/>
      <g>
        <path class="cls-15" d="m85.65,148.99c0-1.36,1.03-2.47,2.33-2.47s2.31,1.1,2.31,2.47-1.04,2.47-2.31,2.47-2.33-1.11-2.33-2.47Z"/>
        <g>
          <rect class="cls-15" x="86.98" y="109.6" width="15.1" height="46.13"/>
          <rect class="cls-12" x="89.67" y="109.6" width="12.41" height="46.13"/>
        </g>
      </g>
      <path class="cls-5" d="m72.5,57.15c-5.16,15.62-5.16,28.59,0,44.21.09.27.73,1.78,1.84,1.78h23.23c1.56,0,1.87-1.62,1.87-1.99v-43.77c0-.37-.31-1.99-1.87-1.99h-23.23c-1.13,0-1.75,1.5-1.84,1.77Z"/>
      <path class="cls-5" d="m73.88,57.69c-5.16,15.62-5.16,28.59,0,44.21.09.27.73,1.78,1.84,1.78h23.23c1.56,0,1.87-1.62,1.87-1.99v-43.77c0-.37-.31-1.99-1.87-1.99h-23.23c-1.13,0-1.75,1.5-1.84,1.77Z"/>
      <g>
        <path class="cls-3" d="m74.68,102.97c-5.16-15.62-5.16-28.59,0-44.21.09-.27.71-1.77,1.84-1.77h23.23c1.56,0,1.87,1.62,1.87,1.99v43.77c0,.37-.32,1.99-1.87,1.99h-23.23c-1.11,0-1.75-1.5-1.84-1.78Z"/>
        <g>
          <path class="cls-24" d="m76.26,99.76c-4.45-13.48-4.45-24.31,0-37.78.08-.23.53-1.71,1.76-1.71h17.6v41.21h-17.6c-1.07,0-1.68-1.48-1.76-1.71Z"/>
          <path class="cls-1" d="m78.31,97.33c-3.31-10.97-3.31-21.95,0-32.92.06-.19.21-.32.39-.32h14.01v33.56h-14.01c-.17,0-.33-.13-.39-.32Z"/>
          <path class="cls-20" d="m89.23,83.3c-1.26,0-2.29-1.09-2.29-2.44s1.03-2.44,2.29-2.44,2.29,1.09,2.29,2.44-1.02,2.44-2.29,2.44Z"/>
        </g>
        <g>
          <path class="cls-2" d="m91.92,82.08c-.6,0-1.08-.54-1.08-1.21h0c0-.67.49-1.21,1.08-1.21h3.83c.6,0,1.08.54,1.08,1.21h0c0,.67-.49,1.21-1.08,1.21h-3.83Z"/>
          <path class="cls-21" d="m92.05,81.94c-.56,0-1.01-.48-1.01-1.07h0c0-.59.45-1.07,1.01-1.07h3.57c.56,0,1.01.48,1.01,1.07h0c0,.59-.45,1.07-1.01,1.07h-3.57Z"/>
          <path class="cls-2" d="m97.71,83.09c-1.19,0-2.15-1.03-2.15-2.29s.96-2.29,2.15-2.29,2.15,1.03,2.15,2.29-.97,2.29-2.15,2.29Z"/>
          <path class="cls-21" d="m97.71,82.4c-.83,0-1.5-.72-1.5-1.6s.67-1.6,1.5-1.6,1.5.72,1.5,1.6-.67,1.6-1.5,1.6Z"/>
        </g>
      </g>
      <rect class="cls-5" x="6.75" y="5.51" width="95.23" height="51.14"/>
      <rect class="cls-5" x="6.75" y="1.95" width="95.23" height="51.14"/>
      <g>
        <rect class="cls-3" x="28.8" y="-21.84" width="51.14" height="95.23" transform="translate(28.59 80.14) rotate(-90)"/>
        <path class="cls-23" d="m97.61,6.72v38.12c0,2.07-1.57,3.74-3.51,3.74H29.62c-6.74,0-18.49-7.1-18.49-19.09v-7.11c0-13.93,13.91-19.4,18.49-19.4h64.48c1.94,0,3.51,1.67,3.51,3.74Z"/>
        <path class="cls-25" d="m89.93,14.16v23.22c0,2.06-1.57,3.74-3.51,3.74h-53.92c-5.69,0-13.11-5.79-13.11-15.4v.04c0-9.37,8.48-15.34,13.11-15.34h53.92c1.94,0,3.51,1.67,3.51,3.74Z"/>
        <path class="cls-14" d="m81.67,23.04c1.42,0,2.57,1.22,2.57,2.73s-1.15,2.73-2.57,2.73-2.56-1.22-2.56-2.73,1.15-2.73,2.56-2.73Z"/>
      </g>
      <g>
        <g>
          <rect class="cls-3" x=".33" y="105.14" width="3.76" height="4"/>
          <path class="cls-3" d="m4.41,104.78v4.7H0v-4.7h4.41Zm-.66,4v-3.3s-3.1,0-3.1,0v3.3s3.1,0,3.1,0Z"/>
        </g>
        <g>
          <rect class="cls-3" x=".33" y="55.04" width="3.76" height="4"/>
          <path class="cls-3" d="m4.41,54.69v4.7H0s0-4.7,0-4.7h4.41Zm-.66,4v-3.3s-3.1,0-3.1,0v3.3s3.1,0,3.1,0Z"/>
        </g>
        <g>
          <path class="cls-3" d="m43.27,66.65c-1.49,9.74-6.02,18.89-12.77,25.75-7.34,7.47-16.6,11.63-26.79,12.02v-.23c22.18-.85,36.58-19.55,39.34-37.58l.22.04Z"/>
          <polygon class="cls-3" points="43.55 63.26 41.16 67.76 43.12 66.88 44.8 68.26 43.55 63.26"/>
        </g>
        <g>
          <path class="cls-3" d="m43.99,60.54H2.4s0,1.91,0,1.91h41.59s0-1.91,0-1.91Z"/>
          <path class="cls-3" d="m44.53,59.96v3.07H1.85v-3.07h42.68Zm-1.1,1.91v-.75s-40.49,0-40.49,0v.75s40.49,0,40.49,0Z"/>
        </g>
      </g>
      <polygon class="cls-6" points="89.43 155.34 102.08 109.6 101.78 155.47 89.43 155.34"/>
      <g>
        <path class="cls-3" d="m55.08,145.04h16.88c1.64,0,2.98-1.43,2.98-3.17l-1.09-14.46c-.63-6.71-4.05-11-10.33-11h0c-6.28,0-9.68,4.29-10.33,11l-1.09,14.46c0,1.74,1.34,3.17,2.98,3.17Z"/>
        <path class="cls-13" d="m73.55,140.37l-1.09-12.82c-.87-5.92-3.43-9.52-8.94-9.52h0c-5.52,0-8.39,3.75-8.95,9.52l-1.09,12.82h20.06Z"/>
        <path class="cls-10" d="m56.82,155.05h13.4c2.87,0,5.23-2.5,5.23-5.57h0c0-3.06-2.35-5.56-5.23-5.56h-13.4c-2.87,0-5.23,2.5-5.23,5.56h0c0,3.06,2.35,5.57,5.23,5.57Z"/>
        <path class="cls-3" d="m52.03,144.88h22.97c.24,0,.44.2.44.44v7.68c0,1.51-1.23,2.74-2.74,2.74h-18.38c-1.51,0-2.74-1.23-2.74-2.74v-7.68c0-.24.2-.44.44-.44Z" transform="translate(127.03 300.61) rotate(-180)"/>
        <path class="cls-26" d="m52.4,155.74h22.24c.45,0,.81-.39.81-.86v-.17c0,.48-.36.86-.81.86h-22.24c-.45,0-.81-.39-.81-.86v.17c0,.48.36.86.81.86Z"/>
        <path class="cls-2" d="m62.24,150.31c0-.75.57-1.36,1.28-1.36s1.28.61,1.28,1.36-.57,1.36-1.28,1.36-1.28-.61-1.28-1.36Z"/>
      </g>
      <g>
        <path class="cls-2" d="m89.52,26.96c-.63,0-1.15-.57-1.15-1.28h0c0-.71.51-1.28,1.15-1.28h8.09c.63,0,1.15.57,1.15,1.28h0c0,.71-.51,1.28-1.15,1.28h-8.09Z"/>
        <path class="cls-21" d="m89.66,26.81c-.59,0-1.07-.51-1.07-1.14h0c0-.63.47-1.14,1.07-1.14h7.81c.59,0,1.07.51,1.07,1.14h0c0,.63-.48,1.14-1.07,1.14h-7.81Z"/>
        <path class="cls-2" d="m99.68,28.04c-1.26,0-2.28-1.09-2.28-2.43s1.02-2.43,2.28-2.43,2.28,1.09,2.28,2.43-1.02,2.43-2.28,2.43Z"/>
        <path class="cls-21" d="m99.68,27.3c-.88,0-1.59-.76-1.59-1.69s.71-1.69,1.59-1.69,1.59.76,1.59,1.69-.71,1.69-1.59,1.69Z"/>
      </g>
      <g>
        <path class="cls-8" d="m10.39,118.85h32.47c3.1,0,3.63.55,3.63,3.86v29.17c0,3.3-.53,3.86-3.63,3.86H10.39c-3.1,0-3.62-.55-3.62-3.86v-29.17c0-3.3.52-3.86,3.62-3.86Z"/>
        <path class="cls-7" d="m10.39,119.67c-2.68,0-2.86.19-2.86,3.04v29.17c0,2.85.18,3.04,2.86,3.04h32.47c2.68,0,2.86-.19,2.86-3.04v-29.17c0-2.85-.18-3.04-2.86-3.04H10.39Z"/>
        <path class="cls-4" d="m10.39,120.47c-2.26,0-2.1-.17-2.1,2.24v29.17c0,2.41-.16,2.24,2.1,2.24h32.47c2.26,0,2.11.17,2.11-2.24v-29.17c0-2.41.16-2.24-2.11-2.24H10.39Z"/>
        <path class="cls-9" d="m8.29,151.49v.39c0,2.41-.16,2.24,2.1,2.24h32.47c2.26,0,2.11.17,2.11-2.24v-29.17c0-1.77.07-2.14-.77-2.22-8.09,7.03-27.41,23.8-35.91,31Z"/>
      </g>
    </g>
  </g>
</svg>