<?xml version="1.0" encoding="UTF-8"?>
<svg xmlns="http://www.w3.org/2000/svg" xmlns:xlink="http://www.w3.org/1999/xlink" viewBox="0 0 157.9 149.53">
  <defs>
    <style>
      .cls-1 {
        fill: url(#linear-gradient-2);
      }

      .cls-2 {
        fill: #555;
      }

      .cls-3, .cls-4 {
        fill: #fff;
      }

      .cls-5, .cls-6 {
        fill: #ddd3cc;
        mix-blend-mode: multiply;
      }

      .cls-7, .cls-4, .cls-8, .cls-6, .cls-9 {
        fill-rule: evenodd;
      }

      .cls-7, .cls-10 {
        fill: #b3b6ba;
      }

      .cls-11 {
        isolation: isolate;
      }

      .cls-12 {
        fill: #e5576f;
      }

      .cls-13 {
        fill: #d6d8d8;
      }

      .cls-8 {
        fill: #d2d6d8;
      }

      .cls-14 {
        fill: #2a2a2a;
      }

      .cls-9, .cls-15 {
        fill: #e3e7e8;
      }

      .cls-16 {
        fill: url(#Earthtone_21-2);
      }

      .cls-17 {
        fill: #f9ddcf;
        opacity: .5;
      }

      .cls-18 {
        clip-path: url(#clippath);
      }

      .cls-19 {
        fill: none;
      }

      .cls-20 {
        fill: #373737;
      }

      .cls-21 {
        fill: #999;
      }

      .cls-22 {
        fill: url(#Earthtone_21);
      }

      .cls-23 {
        fill: url(#linear-gradient-3);
      }

      .cls-24 {
        fill: url(#linear-gradient);
      }

      .cls-25 {
        fill: url(#linear-gradient-4);
      }

      .cls-26 {
        fill: #888;
      }
    </style>
    <clipPath id="clippath">
      <rect class="cls-19" x="0" y="47.22" width="157.9" height="99.31"/>
    </clipPath>
    <linearGradient id="Earthtone_21" data-name="Earthtone 21" x1="327.15" y1="-221.83" x2="210.2" y2="-93.94" gradientTransform="translate(328.91 -29.76) rotate(-180)" gradientUnits="userSpaceOnUse">
      <stop offset="0" stop-color="#b85e42"/>
      <stop offset=".5" stop-color="#9f2214"/>
      <stop offset="1" stop-color="#700101"/>
    </linearGradient>
    <linearGradient id="Earthtone_21-2" data-name="Earthtone 21" x1="364.77" y1="-190.72" x2="247.82" y2="-62.83" xlink:href="#Earthtone_21"/>
    <linearGradient id="linear-gradient" x1="223.1" y1="35.78" x2="223.1" y2="13.08" gradientTransform="translate(-142.23 40.83)" gradientUnits="userSpaceOnUse">
      <stop offset="0" stop-color="#bfbfbf"/>
      <stop offset="1" stop-color="#aaa"/>
    </linearGradient>
    <linearGradient id="linear-gradient-2" x1="223.1" y1="32.87" x2="223.1" y2="15.99" gradientTransform="translate(-142.23 40.83)" gradientUnits="userSpaceOnUse">
      <stop offset="0" stop-color="#dadada"/>
      <stop offset="1" stop-color="#cacaca"/>
    </linearGradient>
    <linearGradient id="linear-gradient-3" x1="131.66" y1="62.01" x2="132.67" y2="164.72" gradientTransform="translate(157.9 196.75) rotate(-180)" gradientUnits="userSpaceOnUse">
      <stop offset="0" stop-color="#dcdcdc"/>
      <stop offset="1" stop-color="#aaa"/>
    </linearGradient>
    <linearGradient id="linear-gradient-4" x1="132.12" y1="66.61" x2="132.12" y2="137.15" gradientTransform="translate(157.9 196.75) rotate(-180)" gradientUnits="userSpaceOnUse">
      <stop offset="0" stop-color="#e8e8e8"/>
      <stop offset="1" stop-color="#d5d5d5"/>
    </linearGradient>
  </defs>
  <g class="cls-11">
    <g id="Layer_1" data-name="Layer 1">
      <g class="cls-18">
        <g>
          <rect class="cls-22" x=".41" y="72.25" width="155.29" height="72.79"/>
          <path class="cls-17" d="m26.22,144.99h.58s25.21,0,25.21,0h.58s25.21,0,25.21,0h.57s25.21,0,25.21,0h.58s25.21,0,25.21,0h.58s25.79,0,25.79,0v-24.07s0-.54,0-.54v-23.52s0-.54,0-.54v-24.07s-25.79,0-25.79,0h-.58s-25.21,0-25.21,0h-.58s-25.21,0-25.21,0h-.57s-25.21,0-25.21,0h-.58s-25.21,0-25.21,0h-.58s-25.78,0-25.78,0v24.07s0,.54,0,.54v23.52s0,.54,0,.54v24.07s25.78,0,25.78,0Zm103.14-48.13v23.52h-25.2v-23.52h25.2Zm-25.79,0v23.52h-25.2v-23.52h25.2Zm-25.78,0v23.52h-25.2v-23.52h25.2Zm-25.79,0v23.52h-25.2v-23.52h25.2Zm-25.2,47.59v-23.53h25.2v23.53h-25.2Zm25.79,0v-23.53h25.2v23.53h-25.2Zm25.79,0v-23.53h25.2v23.53h-25.2Zm25.79,0v-23.53h25.2v23.53h-25.2Zm50.99,0h-25.21v-23.53h25.21v23.53Zm0-24.07h-25.21v-23.52h25.21v23.52Zm0-47.59v23.53h-25.21v-23.53h25.21Zm-25.79,0v23.53h-25.2v-23.53h25.2Zm-25.79,0v23.53h-25.2v-23.53h25.2Zm-25.78,0v23.53h-25.2v-23.53h25.2Zm-25.79,0v23.53h-25.2v-23.53h25.2Zm-50.99,0h25.2v23.53H1.01v-23.53Zm0,24.07h25.2v23.52H1.01v-23.52Zm25.2,24.06v23.53H1.01v-23.53h25.2Z"/>
          <rect class="cls-16" x=".41" y="0" width="155.29" height="72.79"/>
          <path class="cls-17" d="m26.22,72.75h.58s25.21,0,25.21,0h.58s25.21,0,25.21,0h.57s25.21,0,25.21,0h.58s25.21,0,25.21,0h.58s25.79,0,25.79,0v-24.07s0-.54,0-.54v-23.52s0-.54,0-.54V0s-25.79,0-25.79,0h-.58s-25.21,0-25.21,0h-.58s-25.21,0-25.21,0h-.57s-25.21,0-25.21,0h-.58s-25.21,0-25.21,0h-.58S.44,0,.44,0v24.07s0,.54,0,.54v23.52s0,.54,0,.54v24.07s25.78,0,25.78,0Zm103.14-48.13v23.52h-25.2v-23.52h25.2Zm-25.79,0v23.52h-25.2v-23.52h25.2Zm-25.78,0v23.52h-25.2v-23.52h25.2Zm-25.79,0v23.52h-25.2v-23.52h25.2Zm-25.2,47.59v-23.53h25.2v23.53h-25.2Zm25.79,0v-23.53h25.2v23.53h-25.2Zm25.79,0v-23.53h25.2v23.53h-25.2Zm25.79,0v-23.53h25.2v23.53h-25.2Zm50.99,0h-25.21v-23.53h25.21v23.53Zm0-24.07h-25.21v-23.52h25.21v23.52Zm0-47.59v23.53h-25.21V.54h25.21Zm-25.79,0v23.53h-25.2V.54h25.2Zm-25.79,0v23.53h-25.2V.54h25.2Zm-25.78,0v23.53h-25.2V.54h25.2Zm-25.79,0v23.53h-25.2V.54h25.2Zm-50.99,0h25.2v23.53H1.01V.54Zm0,24.07h25.2v23.52H1.01v-23.52Zm25.2,24.06v23.53H1.01v-23.53h25.2Z"/>
        </g>
      </g>
      <path class="cls-6" d="m118.59,138.9h29.17c3.3,0,3.86-.52,3.86-3.62v-32.47c0-3.1-.55-3.63-3.86-3.63h-29.17c-3.3,0-3.86.53-3.86,3.63v32.47c0,3.1.55,3.62,3.86,3.62Z"/>
      <path class="cls-6" d="m120.38,140.58h29.17c3.3,0,3.86-.52,3.86-3.62v-32.47c0-3.1-.55-3.62-3.86-3.62h-29.17c-3.3,0-3.86.52-3.86,3.62v32.47c0,3.1.55,3.62,3.86,3.62Z"/>
      <path class="cls-5" d="m125.79,93.07l14.46,1.09c1.34,0,2.48-.79,2.95-1.9.99,1.44,2.71,2.41,4.67,2.41.22,0,.43-.04.64-.06.21.02.42.06.64.06h3.95s.08,0,.08,0h.09c.48,0,.86-.36.86-.81v-.08s0-22.07,0-22.07v-.08c0-.45-.39-.81-.86-.81h-.17s-3.95,0-3.95,0c-.22,0-.43.04-.64.06-.21-.02-.42-.06-.64-.06-1.95,0-3.67.97-4.67,2.41-.46-1.11-1.61-1.9-2.95-1.9l-14.46,1.09c-6.71.63-11,4.05-11,10.33s4.29,9.68,11,10.33Z"/>
      <path class="cls-5" d="m126.69,94.66l14.46,1.09c1.34,0,2.48-.79,2.95-1.9.99,1.44,2.71,2.41,4.67,2.41.22,0,.43-.04.64-.06.21.02.42.06.64.06h3.95s.08,0,.08,0h.09c.48,0,.86-.36.86-.81v-.08s0-22.07,0-22.07v-.08c0-.45-.39-.81-.86-.81h-.17s-3.95,0-3.95,0c-.22,0-.43.04-.64.06-.21-.02-.42-.06-.64-.06-1.95,0-3.67.97-4.67,2.41-.46-1.11-1.61-1.9-2.95-1.9l-14.46,1.09c-6.71.63-11,4.05-11,10.33s4.29,9.68,11,10.33Z"/>
      <path class="cls-6" d="m144.81,66.24c.4.79,1.23,1.33,2.21,1.33s1.82-.55,2.21-1.33h4.52s0-2.69,0-2.69v-12.41s-46.13,0-46.13,0v12.41s0,2.69,0,2.69h37.19Z"/>
      <path class="cls-6" d="m145.89,64.23c.4.79,1.23,1.33,2.21,1.33s1.82-.55,2.21-1.33h4.52s0-2.69,0-2.69v-12.41s-46.13,0-46.13,0v12.41s0,2.69,0,2.69h37.19Z"/>
      <g>
        <path class="cls-15" d="m148.99,63.88c-1.36,0-2.47-1.03-2.47-2.33s1.1-2.31,2.47-2.31,2.47,1.04,2.47,2.31-1.11,2.33-2.47,2.33Z"/>
        <g>
          <rect class="cls-15" x="109.6" y="47.45" width="46.13" height="15.1"/>
          <rect class="cls-12" x="109.6" y="47.45" width="46.13" height="12.41"/>
        </g>
      </g>
      <path class="cls-5" d="m57.15,77.03c15.62,5.16,28.59,5.16,44.21,0,.27-.09,1.78-.73,1.78-1.84v-23.23c0-1.56-1.62-1.87-1.99-1.87h-43.77c-.37,0-1.99.31-1.99,1.87v23.23c0,1.13,1.5,1.75,1.77,1.84Z"/>
      <path class="cls-5" d="m57.69,75.65c15.62,5.16,28.59,5.16,44.21,0,.27-.09,1.78-.73,1.78-1.84v-23.23c0-1.56-1.62-1.87-1.99-1.87h-43.77c-.37,0-1.99.31-1.99,1.87v23.23c0,1.13,1.5,1.75,1.77,1.84Z"/>
      <g>
        <path class="cls-3" d="m102.97,74.85c-15.62,5.16-28.59,5.16-44.21,0-.27-.09-1.77-.71-1.77-1.84v-23.23c0-1.56,1.62-1.87,1.99-1.87h43.77c.37,0,1.99.32,1.99,1.87v23.23c0,1.11-1.5,1.75-1.78,1.84Z"/>
        <g>
          <path class="cls-24" d="m99.76,73.27c-13.48,4.45-24.31,4.45-37.78,0-.23-.08-1.71-.53-1.71-1.76v-17.6h41.21v17.6c0,1.07-1.48,1.68-1.71,1.76Z"/>
          <path class="cls-1" d="m97.33,71.21c-10.97,3.31-21.95,3.31-32.92,0-.19-.06-.32-.21-.32-.39v-14.01h33.56v14.01c0,.17-.13.33-.32.39Z"/>
          <path class="cls-20" d="m83.3,60.3c0,1.26-1.09,2.29-2.44,2.29s-2.44-1.03-2.44-2.29,1.09-2.29,2.44-2.29,2.44,1.02,2.44,2.29Z"/>
        </g>
        <g>
          <path class="cls-2" d="m82.08,57.61c0,.6-.54,1.08-1.21,1.08h0c-.67,0-1.21-.49-1.21-1.08v-3.83c0-.6.54-1.08,1.21-1.08h0c.67,0,1.21.49,1.21,1.08v3.83Z"/>
          <path class="cls-21" d="m81.94,57.48c0,.56-.48,1.01-1.07,1.01h0c-.59,0-1.07-.45-1.07-1.01v-3.57c0-.56.48-1.01,1.07-1.01h0c.59,0,1.07.45,1.07,1.01v3.57Z"/>
          <path class="cls-2" d="m83.09,51.82c0,1.19-1.03,2.15-2.29,2.15s-2.29-.96-2.29-2.15,1.03-2.15,2.29-2.15,2.29.97,2.29,2.15Z"/>
          <path class="cls-21" d="m82.4,51.82c0,.83-.72,1.5-1.6,1.5s-1.6-.67-1.6-1.5.72-1.5,1.6-1.5,1.6.67,1.6,1.5Z"/>
        </g>
      </g>
      <rect class="cls-5" x="5.51" y="47.54" width="51.14" height="95.23"/>
      <rect class="cls-5" x="1.95" y="47.54" width="51.14" height="95.23"/>
      <g>
        <rect class="cls-3" x=".21" y="47.54" width="51.14" height="95.23" transform="translate(51.55 190.32) rotate(-180)"/>
        <path class="cls-23" d="m6.72,51.92h38.12c2.07,0,3.74,1.57,3.74,3.51v64.48c0,6.74-7.1,18.49-19.09,18.49h-7.11c-13.93,0-19.4-13.91-19.4-18.49V55.43c0-1.94,1.67-3.51,3.74-3.51Z"/>
        <path class="cls-25" d="m14.16,59.59h23.22c2.06,0,3.74,1.57,3.74,3.51v53.92c0,5.69-5.79,13.11-15.4,13.11h.04c-9.37,0-15.34-8.48-15.34-13.11v-53.92c0-1.94,1.67-3.51,3.74-3.51Z"/>
        <path class="cls-14" d="m23.04,67.85c0-1.42,1.22-2.57,2.73-2.57s2.73,1.15,2.73,2.57-1.22,2.56-2.73,2.56-2.73-1.15-2.73-2.56Z"/>
      </g>
      <g>
        <g>
          <rect class="cls-3" x="105.14" y="145.44" width="4" height="3.76"/>
          <path class="cls-3" d="m104.78,145.12h4.7v4.41h-4.7v-4.41Zm4,.66h-3.3s0,3.1,0,3.1h3.3s0-3.1,0-3.1Z"/>
        </g>
        <g>
          <rect class="cls-3" x="55.04" y="145.44" width="4" height="3.76"/>
          <path class="cls-3" d="m54.69,145.12h4.7v4.41s-4.7,0-4.7,0v-4.41Zm4,.66h-3.3s0,3.1,0,3.1h3.3s0-3.1,0-3.1Z"/>
        </g>
        <g>
          <path class="cls-3" d="m66.65,106.26c9.74,1.49,18.89,6.02,25.75,12.77,7.47,7.34,11.63,16.6,12.02,26.79h-.23c-.85-22.18-19.55-36.58-37.58-39.34l.04-.22Z"/>
          <polygon class="cls-3" points="63.26 105.98 67.76 108.37 66.88 106.41 68.26 104.72 63.26 105.98"/>
        </g>
        <g>
          <path class="cls-3" d="m60.54,105.54v41.59s1.91,0,1.91,0v-41.59s-1.91,0-1.91,0Z"/>
          <path class="cls-3" d="m59.96,105h3.07v42.68h-3.07v-42.68Zm1.91,1.1h-.75s0,40.49,0,40.49h.75s0-40.49,0-40.49Z"/>
        </g>
      </g>
      <polygon class="cls-6" points="155.34 60.1 109.6 47.45 155.47 47.75 155.34 60.1"/>
      <g>
        <path class="cls-3" d="m145.04,94.45v-16.88c0-1.64-1.43-2.98-3.17-2.98l-14.46,1.09c-6.71.63-11,4.05-11,10.33h0c0,6.28,4.29,9.68,11,10.33l14.46,1.09c1.74,0,3.17-1.34,3.17-2.98Z"/>
        <path class="cls-13" d="m140.37,75.98l-12.82,1.09c-5.92.87-9.52,3.43-9.52,8.94h0c0,5.52,3.75,8.39,9.52,8.95l12.82,1.09v-20.06Z"/>
        <path class="cls-10" d="m155.05,92.71v-13.4c0-2.87-2.5-5.23-5.57-5.23h0c-3.06,0-5.56,2.35-5.56,5.23v13.4c0,2.87,2.5,5.23,5.56,5.23h0c3.06,0,5.57-2.35,5.57-5.23Z"/>
        <path class="cls-3" d="m138.82,80.58h22.97c.24,0,.44.2.44.44v7.68c0,1.51-1.23,2.74-2.74,2.74h-18.38c-1.51,0-2.74-1.23-2.74-2.74v-7.68c0-.24.2-.44.44-.44Z" transform="translate(236.32 -64.3) rotate(90)"/>
        <path class="cls-26" d="m155.74,97.13v-22.24c0-.45-.39-.81-.86-.81h-.17c.48,0,.86.36.86.81v22.24c0,.45-.39.81-.86.81h.17c.48,0,.86-.36.86-.81Z"/>
        <path class="cls-2" d="m150.31,87.29c-.75,0-1.36-.57-1.36-1.28s.61-1.28,1.36-1.28,1.36.57,1.36,1.28-.61,1.28-1.36,1.28Z"/>
      </g>
      <g>
        <path class="cls-2" d="m26.96,60.01c0,.63-.57,1.15-1.28,1.15h0c-.71,0-1.28-.51-1.28-1.15v-8.09c0-.63.57-1.15,1.28-1.15h0c.71,0,1.28.51,1.28,1.15v8.09Z"/>
        <path class="cls-21" d="m26.81,59.87c0,.59-.51,1.07-1.14,1.07h0c-.63,0-1.14-.47-1.14-1.07v-7.81c0-.59.51-1.07,1.14-1.07h0c.63,0,1.14.48,1.14,1.07v7.81Z"/>
        <path class="cls-2" d="m28.04,49.85c0,1.26-1.09,2.28-2.43,2.28s-2.43-1.02-2.43-2.28,1.09-2.28,2.43-2.28,2.43,1.02,2.43,2.28Z"/>
        <path class="cls-21" d="m27.3,49.85c0,.88-.76,1.59-1.69,1.59s-1.69-.71-1.69-1.59.76-1.59,1.69-1.59,1.69.71,1.69,1.59Z"/>
      </g>
      <g>
        <path class="cls-8" d="m118.85,139.14v-32.47c0-3.1.55-3.63,3.86-3.63h29.17c3.3,0,3.86.53,3.86,3.63v32.47c0,3.1-.55,3.62-3.86,3.62h-29.17c-3.3,0-3.86-.52-3.86-3.62Z"/>
        <path class="cls-7" d="m119.67,139.14c0,2.68.19,2.86,3.04,2.86h29.17c2.85,0,3.04-.18,3.04-2.86v-32.47c0-2.68-.19-2.86-3.04-2.86h-29.17c-2.85,0-3.04.18-3.04,2.86v32.47Z"/>
        <path class="cls-4" d="m120.47,139.14c0,2.26-.17,2.1,2.24,2.1h29.17c2.41,0,2.24.16,2.24-2.1v-32.47c0-2.26.17-2.11-2.24-2.11h-29.17c-2.41,0-2.24-.16-2.24,2.11v32.47Z"/>
        <path class="cls-9" d="m151.49,141.24h.39c2.41,0,2.24.16,2.24-2.1v-32.47c0-2.26.17-2.11-2.24-2.11h-29.17c-1.77,0-2.14-.07-2.22.77,7.03,8.09,23.8,27.41,31,35.91Z"/>
      </g>
    </g>
  </g>
</svg>