<?xml version="1.0" encoding="UTF-8"?>
<svg xmlns="http://www.w3.org/2000/svg" xmlns:xlink="http://www.w3.org/1999/xlink" viewBox="0 0 495.57 459">
  <defs>
    <style>
      .cls-1 {
        fill: url(#Sky-2);
      }

      .cls-1, .cls-2, .cls-3 {
        opacity: .26;
      }

      .cls-2 {
        fill: url(#Sky-4);
      }

      .cls-4 {
        fill: url(#linear-gradient-2);
      }

      .cls-5 {
        fill: #555;
      }

      .cls-6, .cls-7 {
        fill: #fff;
      }

      .cls-8, .cls-9 {
        fill: #ddd3cc;
        mix-blend-mode: multiply;
      }

      .cls-10, .cls-7, .cls-11, .cls-9, .cls-12 {
        fill-rule: evenodd;
      }

      .cls-10, .cls-13 {
        fill: #b3b6ba;
      }

      .cls-14 {
        isolation: isolate;
      }

      .cls-15 {
        fill: #e5576f;
      }

      .cls-16 {
        fill: #d6d8d8;
      }

      .cls-11 {
        fill: #d2d6d8;
      }

      .cls-17 {
        fill: url(#Sky);
        opacity: .47;
      }

      .cls-18 {
        fill: #2a2a2a;
      }

      .cls-12, .cls-19 {
        fill: #e3e7e8;
      }

      .cls-3 {
        fill: url(#Sky-3);
      }

      .cls-20 {
        clip-path: url(#clippath);
      }

      .cls-21 {
        fill: none;
      }

      .cls-22 {
        fill: #373737;
      }

      .cls-23 {
        fill: #999;
      }

      .cls-24 {
        fill: url(#linear-gradient-3);
      }

      .cls-25 {
        fill: url(#linear-gradient);
      }

      .cls-26 {
        fill: url(#linear-gradient-4);
      }

      .cls-27 {
        fill: #888;
      }
    </style>
    <clipPath id="clippath">
      <rect class="cls-21" x="9.73" y="0" width="329.27" height="459"/>
    </clipPath>
    <linearGradient id="Sky" x1="694.35" y1="-294.44" x2="338.2" y2="95.03" gradientTransform="translate(175.71 688.91) rotate(-90)" gradientUnits="userSpaceOnUse">
      <stop offset="0" stop-color="#cce0f4"/>
      <stop offset=".06" stop-color="#c2dcf2"/>
      <stop offset=".17" stop-color="#a9d2ee"/>
      <stop offset=".31" stop-color="#7fc2e7"/>
      <stop offset=".46" stop-color="#46abdd"/>
      <stop offset=".57" stop-color="#1e9cd7"/>
      <stop offset=".87" stop-color="#0075be"/>
      <stop offset=".99" stop-color="#005b97"/>
    </linearGradient>
    <linearGradient id="Sky-2" data-name="Sky" x1="14.83" y1="226.98" x2="256.01" y2="226.98" gradientTransform="matrix(1,0,0,1,0,0)" xlink:href="#Sky"/>
    <linearGradient id="Sky-3" data-name="Sky" x1="808.93" y1="-180.19" x2="452.78" y2="209.29" xlink:href="#Sky"/>
    <linearGradient id="Sky-4" data-name="Sky" x1="254.37" y1="226.98" x2="495.57" y2="226.98" gradientTransform="matrix(1,0,0,1,0,0)" xlink:href="#Sky"/>
    <linearGradient id="linear-gradient" x1="333.37" y1="233.42" x2="333.37" y2="159.77" gradientTransform="translate(470.07 -98.44) rotate(90)" gradientUnits="userSpaceOnUse">
      <stop offset="0" stop-color="#bfbfbf"/>
      <stop offset="1" stop-color="#aaa"/>
    </linearGradient>
    <linearGradient id="linear-gradient-2" x1="333.37" y1="223.98" x2="333.37" y2="169.22" gradientTransform="translate(470.07 -98.44) rotate(90)" gradientUnits="userSpaceOnUse">
      <stop offset="0" stop-color="#dadada"/>
      <stop offset="1" stop-color="#cacaca"/>
    </linearGradient>
    <linearGradient id="linear-gradient-3" x1="437.44" y1="98.8" x2="440.7" y2="431.98" gradientTransform="translate(-50.79 517.9) rotate(-90)" gradientUnits="userSpaceOnUse">
      <stop offset="0" stop-color="#dcdcdc"/>
      <stop offset="1" stop-color="#aaa"/>
    </linearGradient>
    <linearGradient id="linear-gradient-4" x1="438.93" y1="113.71" x2="438.93" y2="342.64" gradientTransform="translate(-50.79 517.9) rotate(-90)" gradientUnits="userSpaceOnUse">
      <stop offset="0" stop-color="#e8e8e8"/>
      <stop offset="1" stop-color="#d5d5d5"/>
    </linearGradient>
  </defs>
  <g class="cls-14">
    <g id="Layer_1" data-name="Layer 1">
      <g class="cls-20">
        <g>
          <rect class="cls-17" x="14.69" y="1.19" width="241.33" height="451.42"/>
          <path class="cls-1" d="m14.83,76.21v1.68s0,73.28,0,73.28v1.68s0,73.3,0,73.3v1.66s0,73.28,0,73.28v1.68s0,73.28,0,73.28v1.69s0,74.96,0,74.96h79.8s1.8,0,1.8,0h77.98s1.8,0,1.8,0h79.79s0-74.96,0-74.96v-1.69s0-73.28,0-73.28v-1.68s0-73.28,0-73.28v-1.66s0-73.3,0-73.3v-1.68s0-73.28,0-73.28v-1.68s0-74.95,0-74.95h-79.79s-1.8,0-1.8,0h-77.98s-1.8,0-1.8,0H14.83s0,74.95,0,74.95Zm159.59,299.83h-77.98v-73.27h77.98v73.27Zm0-74.97h-77.98v-73.25h77.98v73.25Zm0-74.95h-77.98v-73.27h77.98v73.27Zm0-74.97h-77.98v-73.27h77.98v73.27ZM16.63,77.9h78v73.27H16.63v-73.27Zm0,74.97h78v73.27H16.63v-73.27Zm0,74.96h78v73.25H16.63v-73.25Zm0,74.96h78v73.27H16.63v-73.27Zm0,148.22v-73.27h78v73.27H16.63Zm79.81,0v-73.27h77.98v73.27h-77.98Zm157.79,0h-78v-73.27h78v73.27Zm0-74.96h-78v-73.27h78v73.27Zm0-74.97h-78v-73.25h78v73.25Zm0-74.95h-78v-73.27h78v73.27Zm0-74.97h-78v-73.27h78v73.27Zm0-148.21v73.27h-78V2.95h78Zm-79.81,0v73.27h-77.98V2.95h77.98Zm-79.79,73.27H16.63V2.95h78v73.27Z"/>
          <rect class="cls-3" x="254.22" y="1.19" width="241.34" height="451.42"/>
          <path class="cls-2" d="m254.37,76.21v1.68s0,73.28,0,73.28v1.68s0,73.3,0,73.3v1.66s0,73.28,0,73.28v1.68s0,73.28,0,73.28v1.69s0,74.96,0,74.96h79.81s1.79,0,1.79,0h78s1.8,0,1.8,0h79.81s0-74.96,0-74.96v-1.69s0-73.28,0-73.28v-1.68s0-73.28,0-73.28v-1.66s0-73.3,0-73.3v-1.68s0-73.28,0-73.28v-1.68s0-74.95,0-74.95h-79.81s-1.8,0-1.8,0h-78s-1.79,0-1.79,0h-79.81s0,74.95,0,74.95Zm159.59,299.83h-78v-73.27h78v73.27Zm0-74.97h-78v-73.25h78v73.25Zm0-74.95h-78v-73.27h78v73.27Zm0-74.97h-78v-73.27h78v73.27Zm-157.79-73.27h78.01v73.27h-78.01v-73.27Zm0,74.97h78.01v73.27h-78.01v-73.27Zm0,74.96h78.01v73.25h-78.01v-73.25Zm0,74.96h78.01v73.27h-78.01v-73.27Zm0,148.22v-73.27h78.01v73.27h-78.01Zm79.8,0v-73.27h78v73.27h-78Zm157.79,0h-78v-73.27h78v73.27Zm0-74.96h-78v-73.27h78v73.27Zm0-74.97h-78v-73.25h78v73.25Zm0-74.95h-78v-73.27h78v73.27Zm0-74.97h-78v-73.27h78v73.27Zm0-148.21v73.27h-78V2.95h78Zm-79.8,0v73.27h-78V2.95h78Zm-79.79,73.27h-78.01V2.95h78.01v73.27Z"/>
        </g>
      </g>
      <path class="cls-9" d="m34.5,341.73v82.59c0,9.36,1.69,10.92,11.75,10.92h105.37c10.06,0,11.77-1.57,11.77-10.92v-82.59c0-9.35-1.71-10.92-11.77-10.92H46.26c-10.07,0-11.75,1.57-11.75,10.92Z"/>
      <path class="cls-9" d="m29.05,346.8v82.59c0,9.36,1.69,10.92,11.75,10.92h105.38c10.06,0,11.76-1.57,11.76-10.92v-82.59c0-9.35-1.7-10.92-11.76-10.92H40.8c-10.07,0-11.75,1.57-11.75,10.92Z"/>
      <path class="cls-8" d="m183.23,362.12l-3.53,40.94c0,3.79,2.56,7.03,6.16,8.35-4.69,2.81-7.82,7.68-7.82,13.21,0,.62.12,1.21.2,1.81-.07.6-.2,1.19-.2,1.81v11.19s0,.22,0,.22v.25c0,1.35,1.18,2.45,2.63,2.45h.27s71.61,0,71.61,0h.27c1.45,0,2.63-1.1,2.63-2.45v-.25s0-.22,0-.22v-11.19c0-.62-.13-1.21-.2-1.81.08-.6.2-1.19.2-1.81,0-5.53-3.13-10.4-7.81-13.21,3.59-1.32,6.16-4.56,6.16-8.35l-3.53-40.94c-2.05-18.99-13.14-31.15-33.53-31.15-20.39,0-31.41,12.16-33.53,31.15Z"/>
      <path class="cls-8" d="m178.04,364.65l-3.53,40.94c0,3.79,2.57,7.03,6.16,8.35-4.68,2.81-7.81,7.68-7.81,13.21,0,.62.13,1.21.2,1.81-.07.6-.2,1.19-.2,1.81v11.19s0,.22,0,.22v.25c0,1.35,1.18,2.45,2.63,2.45h.27s71.62,0,71.62,0h.27c1.45,0,2.63-1.1,2.63-2.45v-.25s0-.22,0-.22v-11.19c0-.62-.13-1.21-.2-1.81.07-.6.2-1.19.2-1.81,0-5.53-3.13-10.4-7.81-13.21,3.59-1.32,6.16-4.56,6.16-8.35l-3.53-40.94c-2.05-18.99-13.14-31.15-33.53-31.15-20.39,0-31.41,12.16-33.53,31.15Z"/>
      <path class="cls-9" d="m270.27,415.97c-2.55,1.12-4.33,3.48-4.33,6.26,0,2.78,1.78,5.14,4.33,6.26v12.81s8.72,0,8.72,0h40.28s0-130.6,0-130.6h-40.28s-8.72,0-8.72,0v105.27Z"/>
      <path class="cls-9" d="m276.81,419.01c-2.55,1.12-4.33,3.48-4.33,6.26,0,2.78,1.78,5.14,4.33,6.26v12.81s8.72,0,8.72,0h40.28s0-130.6,0-130.6h-40.28s-8.72,0-8.72,0v105.27Z"/>
      <g>
        <path class="cls-19" d="m277.94,427.8c0-3.86,3.36-6.98,7.56-6.98s7.49,3.12,7.49,6.98c0,3.85-3.37,6.99-7.49,6.99-4.2,0-7.56-3.14-7.56-6.99Z"/>
        <g>
          <rect class="cls-19" x="282.26" y="316.27" width="49" height="130.6"/>
          <rect class="cls-15" x="290.98" y="316.27" width="40.28" height="130.6"/>
        </g>
      </g>
      <path class="cls-8" d="m235.26,167.8c-16.73,44.21-16.73,80.94,0,125.15.28.77,2.36,5.03,5.97,5.03h75.37c5.05,0,6.07-4.59,6.07-5.64v-123.91c0-1.05-1.02-5.64-6.07-5.64h-75.37c-3.66,0-5.69,4.26-5.97,5.02Z"/>
      <path class="cls-8" d="m239.76,169.32c-16.73,44.21-16.73,80.94,0,125.15.28.77,2.36,5.03,5.97,5.03h75.37c5.05,0,6.07-4.59,6.07-5.64v-123.91c0-1.05-1.02-5.64-6.07-5.64h-75.37c-3.66,0-5.69,4.26-5.97,5.02Z"/>
      <g>
        <path class="cls-6" d="m242.35,297.51c-16.73-44.21-16.73-80.94,0-125.15.28-.77,2.31-5.02,5.97-5.02h75.37c5.05,0,6.07,4.59,6.07,5.64v123.91c0,1.05-1.03,5.64-6.07,5.64h-75.37c-3.62,0-5.69-4.26-5.97-5.03Z"/>
        <g>
          <path class="cls-25" d="m247.48,288.42c-14.43-38.15-14.43-68.82,0-106.96.25-.66,1.72-4.85,5.7-4.85h57.12v116.66h-57.12c-3.48,0-5.45-4.19-5.7-4.85Z"/>
          <path class="cls-4" d="m254.14,281.53c-10.73-31.06-10.73-62.13,0-93.19.19-.54.69-.91,1.25-.91h45.46v95h-45.46c-.56,0-1.06-.37-1.25-.91Z"/>
          <path class="cls-22" d="m289.56,241.83c-4.08,0-7.42-3.09-7.42-6.89,0-3.81,3.34-6.9,7.42-6.9s7.43,3.09,7.43,6.9c0,3.81-3.32,6.89-7.43,6.89Z"/>
        </g>
        <g>
          <path class="cls-5" d="m298.29,238.35c-1.94,0-3.52-1.53-3.52-3.42h0c0-1.89,1.58-3.42,3.52-3.42h12.43c1.94,0,3.52,1.53,3.52,3.42h0c0,1.89-1.58,3.42-3.52,3.42h-12.43Z"/>
          <path class="cls-23" d="m298.72,237.97c-1.81,0-3.27-1.36-3.27-3.04h0c0-1.68,1.46-3.04,3.27-3.04h11.58c1.81,0,3.27,1.36,3.27,3.04h0c0,1.68-1.46,3.04-3.27,3.04h-11.58Z"/>
          <path class="cls-5" d="m317.07,241.24c-3.86,0-6.98-2.91-6.98-6.49,0-3.59,3.12-6.49,6.98-6.49,3.86,0,6.99,2.9,6.99,6.49,0,3.58-3.13,6.49-6.99,6.49Z"/>
          <path class="cls-23" d="m317.07,239.27c-2.68,0-4.87-2.02-4.87-4.52,0-2.5,2.19-4.52,4.87-4.52s4.87,2.03,4.87,4.52c0,2.5-2.17,4.52-4.87,4.52Z"/>
        </g>
      </g>
      <rect class="cls-8" x="21.91" y="21.59" width="309.04" height="144.77"/>
      <rect class="cls-8" x="21.91" y="11.52" width="309.04" height="144.77"/>
      <g>
        <rect class="cls-6" x="104.04" y="-75.55" width="144.77" height="309.04" transform="translate(97.46 255.4) rotate(-90)"/>
        <path class="cls-24" d="m316.77,25.01v107.91c0,5.85-5.1,10.59-11.4,10.59H96.11c-21.89,0-60.01-20.09-60.01-54.05v-20.13c0-39.44,45.14-54.91,60.01-54.91h209.26c6.3,0,11.4,4.74,11.4,10.59Z"/>
        <path class="cls-26" d="m291.85,46.1v65.74c0,5.85-5.11,10.59-11.39,10.59H105.46c-18.47,0-42.55-16.39-42.55-43.6v.1c0-26.52,27.53-43.42,42.55-43.42h174.99c6.28,0,11.39,4.74,11.39,10.59Z"/>
        <path class="cls-18" d="m265.04,71.24c4.6,0,8.33,3.46,8.33,7.73,0,4.28-3.73,7.73-8.33,7.73-4.59,0-8.32-3.46-8.32-7.73,0-4.27,3.73-7.73,8.32-7.73Z"/>
      </g>
      <g>
        <g>
          <rect class="cls-6" x="1.07" y="303.64" width="12.19" height="11.32"/>
          <path class="cls-6" d="m14.32,302.64v13.3H0v-13.3h14.32Zm-2.14,11.32v-9.34s-10.05,0-10.05,0v9.34s10.05,0,10.05,0Z"/>
        </g>
        <g>
          <rect class="cls-6" x="1.07" y="161.81" width="12.19" height="11.32"/>
          <path class="cls-6" d="m14.32,160.83v13.3S0,174.13,0,174.13v-13.3h14.32Zm-2.14,11.32v-9.34s-10.05,0-10.05,0v9.35s10.05,0,10.05,0Z"/>
        </g>
        <g>
          <path class="cls-6" d="m140.42,194.67c-4.83,27.58-19.55,53.46-41.43,72.91-23.81,21.16-53.86,32.92-86.94,34.02l-.03-.65c72-2.41,118.74-55.34,127.68-106.39l.7.11Z"/>
          <polygon class="cls-6" points="141.33 185.08 133.56 197.83 139.92 195.34 145.4 199.24 141.33 185.08"/>
        </g>
        <g>
          <path class="cls-6" d="m142.74,177.4H7.78s0,5.4,0,5.4h134.96s0-5.4,0-5.4Z"/>
          <path class="cls-6" d="m144.51,175.75v8.7H6.01v-8.7h138.51Zm-3.55,5.41v-2.11s-131.4,0-131.4,0v2.11s131.4,0,131.4,0Z"/>
        </g>
      </g>
      <polygon class="cls-9" points="290.2 445.76 331.26 316.27 330.29 446.14 290.2 445.76"/>
      <g>
        <path class="cls-6" d="m178.73,416.61h54.78c5.32,0,9.67-4.05,9.67-8.98l-3.53-40.94c-2.05-18.99-13.14-31.15-33.53-31.15h0c-20.39,0-31.41,12.16-33.53,31.15l-3.53,40.94c0,4.94,4.35,8.98,9.67,8.98Z"/>
        <path class="cls-16" d="m238.67,403.39l-3.52-36.28c-2.84-16.75-11.12-26.96-29.03-26.96h0c-17.91,0-27.22,10.62-29.03,26.96l-3.53,36.28h65.11Z"/>
        <path class="cls-13" d="m184.37,444.94h43.5c9.33,0,16.96-7.09,16.96-15.76h0c0-8.66-7.64-15.75-16.96-15.75h-43.5c-9.33,0-16.96,7.09-16.96,15.75h0c0,8.67,7.64,15.76,16.96,15.76Z"/>
        <path class="cls-6" d="m167.85,416.14h76.54c.24,0,.44.2.44.44v27.57c0,1.51-1.23,2.74-2.74,2.74h-71.95c-1.51,0-2.74-1.23-2.74-2.74v-27.57c0-.24.2-.44.44-.44Z" transform="translate(412.24 863.03) rotate(-180)"/>
        <path class="cls-27" d="m170.04,446.89h72.16c1.45,0,2.63-1.1,2.63-2.45v-.47c0,1.35-1.18,2.44-2.63,2.44h-72.16c-1.45,0-2.63-1.1-2.63-2.44v.47c0,1.35,1.18,2.45,2.63,2.45Z"/>
        <path class="cls-5" d="m201.97,431.51c0-2.13,1.86-3.85,4.15-3.85,2.29,0,4.14,1.72,4.14,3.85,0,2.13-1.85,3.85-4.14,3.85-2.29,0-4.15-1.72-4.15-3.85Z"/>
      </g>
      <g>
        <path class="cls-5" d="m290.51,82.32c-2.06,0-3.73-1.62-3.73-3.62h0c0-2,1.67-3.62,3.73-3.62h26.24c2.06,0,3.73,1.62,3.73,3.62h0c0,2-1.67,3.62-3.73,3.62h-26.24Z"/>
        <path class="cls-23" d="m290.96,81.91c-1.92,0-3.46-1.44-3.46-3.22h0c0-1.78,1.54-3.22,3.46-3.22h25.35c1.91,0,3.46,1.44,3.46,3.22h0c0,1.78-1.55,3.22-3.46,3.22h-25.35Z"/>
        <path class="cls-5" d="m323.48,85.37c-4.09,0-7.39-3.08-7.39-6.87,0-3.8,3.3-6.87,7.39-6.87,4.09,0,7.4,3.07,7.4,6.87s-3.3,6.87-7.4,6.87Z"/>
        <path class="cls-23" d="m323.48,83.29c-2.84,0-5.15-2.14-5.15-4.79s2.31-4.79,5.15-4.79c2.84,0,5.15,2.15,5.15,4.79s-2.31,4.79-5.15,4.79Z"/>
      </g>
      <g>
        <path class="cls-11" d="m33.71,342.47h105.37c10.06,0,11.77,1.57,11.77,10.92v82.59c0,9.36-1.71,10.92-11.77,10.92H33.71c-10.07,0-11.75-1.57-11.75-10.92v-82.59c0-9.35,1.69-10.92,11.75-10.92Z"/>
        <path class="cls-10" d="m33.71,344.78c-8.69,0-9.27.54-9.27,8.61v82.59c0,8.08.58,8.61,9.27,8.61h105.37c8.69,0,9.27-.53,9.27-8.61v-82.59c0-8.07-.58-8.61-9.27-8.61H33.71Z"/>
        <path class="cls-7" d="m33.71,347.05c-7.34,0-6.82-.48-6.82,6.34v82.59c0,6.82-.52,6.34,6.82,6.34h105.37c7.34,0,6.83.49,6.83-6.34v-82.59c0-6.82.51-6.34-6.83-6.34H33.71Z"/>
        <path class="cls-12" d="m26.89,434.88v1.1c0,6.82-.52,6.34,6.82,6.34h105.37c7.34,0,6.83.49,6.83-6.34v-82.59c0-5,.24-6.06-2.51-6.28-26.25,19.9-88.95,67.37-116.52,87.77Z"/>
      </g>
    </g>
  </g>
</svg>