<?xml version="1.0" encoding="UTF-8"?>
<svg xmlns="http://www.w3.org/2000/svg" viewBox="0 0 4238.05 2525.82">
  <defs>
    <style>
      .cls-1 {
        fill: #c9e5ce;
      }

      .cls-2 {
        fill: #fff;
      }

      .cls-3 {
        fill: #a7a9ac;
      }

      .cls-4 {
        opacity: .5;
      }

      .cls-5 {
        fill: #939598;
      }

      .cls-6 {
        fill: #9b8579;
      }

      .cls-7 {
        fill: #ffd1f9;
      }

      .cls-8, .cls-9, .cls-10 {
        opacity: .2;
      }

      .cls-11 {
        opacity: .8;
      }

      .cls-12 {
        fill: #5cb1bf;
      }

      .cls-13 {
        fill: #ffe5f8;
      }

      .cls-14 {
        fill: #cce5ff;
      }

      .cls-15 {
        fill: #dfd3a1;
      }

      .cls-16, .cls-10 {
        fill: #f3d96f;
      }

      .cls-17 {
        fill: #c2fff1;
      }

      .cls-18 {
        fill: #d4e8b4;
      }

      .cls-19 {
        fill: #f1f2f2;
      }

      .cls-9, .cls-20 {
        fill: #231f20;
      }

      .cls-21 {
        fill: #d8f1e2;
      }

      .cls-22 {
        fill: #acd6e2;
      }

      .cls-23 {
        opacity: .1;
      }

      .cls-24 {
        fill: #ffc45e;
      }

      .cls-25 {
        fill: #d1d3d4;
      }

      .cls-26 {
        fill: #e6e7e8;
      }

      .cls-27 {
        fill: #f4fcd9;
      }

      .cls-28 {
        fill: #bcbec0;
      }

      .cls-29 {
        fill: #ecf3ff;
      }

      .cls-30 {
        fill: #58595b;
      }
    </style>
  </defs>
  <g id="Layer_2" data-name="Layer 2">
    <g>
      <g>
        <rect class="cls-22" x="3.7" y="162.72" width="325.43" height="325.43" transform="translate(-159.02 491.85) rotate(-90)"/>
        <path class="cls-3" d="m332.84,159.02v332.84H0V159.02h332.84Zm-7.4,325.43V166.42H7.4v318.03h318.03Z"/>
      </g>
      <g>
        <rect class="cls-22" x="329.13" y="162.72" width="325.43" height="325.43" transform="translate(166.42 817.29) rotate(-90)"/>
        <path class="cls-3" d="m658.27,159.02v332.84h-332.84V159.02h332.84Zm-7.4,325.43V166.42h-318.03v318.03h318.03Z"/>
      </g>
      <g>
        <rect class="cls-22" x="654.57" y="162.72" width="325.43" height="325.43" transform="translate(491.85 1142.72) rotate(-90)"/>
        <path class="cls-3" d="m983.71,159.02v332.84h-332.84V159.02h332.84Zm-7.4,325.43V166.42h-318.03v318.03h318.03Z"/>
      </g>
      <g>
        <rect class="cls-22" x="980" y="162.72" width="325.43" height="325.44" transform="translate(817.29 1468.16) rotate(-90)"/>
        <path class="cls-3" d="m1309.14,159.02v332.84h-332.84V159.02h332.84Zm-7.4,325.43V166.42h-318.03v318.03h318.03Z"/>
      </g>
      <g>
        <rect class="cls-22" x="1305.44" y="162.72" width="325.43" height="325.43" transform="translate(1142.72 1793.59) rotate(-90)"/>
        <path class="cls-3" d="m1634.57,159.02v332.84h-332.84V159.02h332.84Zm-7.4,325.43V166.42h-318.03v318.03h318.03Z"/>
      </g>
      <g>
        <rect class="cls-22" x="1630.87" y="162.72" width="325.43" height="325.44" transform="translate(1468.16 2119.03) rotate(-90)"/>
        <path class="cls-3" d="m1960.01,159.02v332.84h-332.84V159.02h332.84Zm-7.4,325.43V166.42h-318.03v318.03h318.03Z"/>
      </g>
      <g>
        <rect class="cls-22" x="1956.31" y="162.72" width="325.43" height="325.43" transform="translate(1793.59 2444.46) rotate(-90)"/>
        <path class="cls-3" d="m2285.44,159.02v332.84h-332.84V159.02h332.84Zm-7.4,325.43V166.42h-318.03v318.03h318.03Z"/>
      </g>
      <g>
        <rect class="cls-22" x="2281.74" y="162.72" width="325.43" height="325.44" transform="translate(2119.02 2769.9) rotate(-90)"/>
        <path class="cls-3" d="m2610.88,159.02v332.84h-332.84V159.02h332.84Zm-7.4,325.43V166.42h-318.03v318.03h318.03Z"/>
      </g>
      <g>
        <rect class="cls-22" x="3.7" y="488.15" width="325.43" height="325.43" transform="translate(-484.45 817.29) rotate(-90)"/>
        <path class="cls-3" d="m332.84,484.45v332.84H0v-332.84h332.84Zm-7.4,325.43v-318.03H7.4v318.03h318.03Z"/>
      </g>
      <g>
        <rect class="cls-22" x="3.7" y="813.59" width="325.43" height="325.43" transform="translate(-809.89 1142.72) rotate(-90)"/>
        <path class="cls-3" d="m332.84,809.89v332.84H0v-332.84h332.84Zm-7.4,325.43v-318.03H7.4v318.03h318.03Z"/>
      </g>
      <g>
        <rect class="cls-22" x="3.7" y="1139.02" width="325.43" height="325.43" transform="translate(-1135.32 1468.16) rotate(-90)"/>
        <path class="cls-3" d="m332.84,1135.32v332.84H0v-332.84h332.84Zm-7.4,325.44v-318.03H7.4v318.03h318.03Z"/>
      </g>
      <g>
        <rect class="cls-22" x="3.7" y="1464.46" width="325.43" height="325.43" transform="translate(-1460.76 1793.59) rotate(-90)"/>
        <path class="cls-3" d="m332.84,1460.76v332.84H0v-332.84h332.84Zm-7.4,325.43v-318.03H7.4v318.03h318.03Z"/>
      </g>
      <g>
        <rect class="cls-22" x="3.7" y="1789.89" width="325.43" height="325.43" transform="translate(-1786.19 2119.03) rotate(-90)"/>
        <path class="cls-3" d="m332.84,1786.19v332.84H0v-332.84h332.84Zm-7.4,325.44v-318.03H7.4v318.03h318.03Z"/>
      </g>
      <g>
        <rect class="cls-22" x="3.7" y="2115.33" width="325.43" height="325.43" transform="translate(-2111.63 2444.46) rotate(-90)"/>
        <path class="cls-3" d="m332.84,2111.62v332.84H0v-332.84h332.84Zm-7.4,325.43v-318.03H7.4v318.03h318.03Z"/>
      </g>
      <g>
        <rect class="cls-22" x="125.74" y="2318.72" width="81.36" height="325.43" transform="translate(-2315.02 2647.86) rotate(-90)"/>
        <path class="cls-3" d="m332.84,2437.06v88.76H0v-88.76h332.84Zm-7.4,81.36v-73.96H7.4v73.96h318.03Z"/>
      </g>
      <g>
        <rect class="cls-22" x="329.13" y="488.15" width="325.43" height="325.43" transform="translate(-159.02 1142.72) rotate(-90)"/>
        <path class="cls-3" d="m658.27,484.45v332.84h-332.84v-332.84h332.84Zm-7.4,325.43v-318.03h-318.03v318.03h318.03Z"/>
      </g>
      <g>
        <rect class="cls-22" x="329.13" y="813.59" width="325.43" height="325.43" transform="translate(-484.45 1468.16) rotate(-90)"/>
        <path class="cls-3" d="m658.27,809.89v332.84h-332.84v-332.84h332.84Zm-7.4,325.43v-318.03h-318.03v318.03h318.03Z"/>
      </g>
      <g>
        <rect class="cls-22" x="329.13" y="1139.02" width="325.43" height="325.43" transform="translate(-809.89 1793.59) rotate(-90)"/>
        <path class="cls-3" d="m658.27,1135.32v332.84h-332.84v-332.84h332.84Zm-7.4,325.44v-318.03h-318.03v318.03h318.03Z"/>
      </g>
      <g>
        <rect class="cls-22" x="329.13" y="1464.46" width="325.43" height="325.43" transform="translate(-1135.32 2119.03) rotate(-90)"/>
        <path class="cls-3" d="m658.27,1460.76v332.84h-332.84v-332.84h332.84Zm-7.4,325.43v-318.03h-318.03v318.03h318.03Z"/>
      </g>
      <g>
        <rect class="cls-22" x="329.13" y="1789.89" width="325.43" height="325.43" transform="translate(-1460.76 2444.46) rotate(-90)"/>
        <path class="cls-3" d="m658.27,1786.19v332.84h-332.84v-332.84h332.84Zm-7.4,325.44v-318.03h-318.03v318.03h318.03Z"/>
      </g>
      <g>
        <rect class="cls-22" x="329.13" y="2115.33" width="325.43" height="325.43" transform="translate(-1786.19 2769.89) rotate(-90)"/>
        <path class="cls-3" d="m658.27,2111.62v332.84h-332.84v-332.84h332.84Zm-7.4,325.43v-318.03h-318.03v318.03h318.03Z"/>
      </g>
      <g>
        <rect class="cls-22" x="451.17" y="2318.72" width="81.36" height="325.43" transform="translate(-1989.59 2973.29) rotate(-90)"/>
        <path class="cls-3" d="m658.27,2437.06v88.76h-332.84v-88.76h332.84Zm-7.4,81.36v-73.96h-318.03v73.96h318.03Z"/>
      </g>
      <g>
        <rect class="cls-22" x="654.57" y="488.15" width="325.43" height="325.43" transform="translate(166.42 1468.16) rotate(-90)"/>
        <path class="cls-3" d="m983.71,484.45v332.84h-332.84v-332.84h332.84Zm-7.4,325.43v-318.03h-318.03v318.03h318.03Z"/>
      </g>
      <g>
        <rect class="cls-22" x="654.57" y="813.59" width="325.43" height="325.43" transform="translate(-159.02 1793.59) rotate(-90)"/>
        <path class="cls-3" d="m983.71,809.89v332.84h-332.84v-332.84h332.84Zm-7.4,325.43v-318.03h-318.03v318.03h318.03Z"/>
      </g>
      <g>
        <rect class="cls-22" x="654.57" y="1139.02" width="325.43" height="325.43" transform="translate(-484.45 2119.03) rotate(-90)"/>
        <path class="cls-3" d="m983.71,1135.32v332.84h-332.84v-332.84h332.84Zm-7.4,325.44v-318.03h-318.03v318.03h318.03Z"/>
      </g>
      <g>
        <rect class="cls-22" x="654.57" y="1464.46" width="325.43" height="325.43" transform="translate(-809.89 2444.46) rotate(-90)"/>
        <path class="cls-3" d="m983.71,1460.76v332.84h-332.84v-332.84h332.84Zm-7.4,325.43v-318.03h-318.03v318.03h318.03Z"/>
      </g>
      <g>
        <rect class="cls-22" x="654.57" y="1789.89" width="325.43" height="325.43" transform="translate(-1135.32 2769.89) rotate(-90)"/>
        <path class="cls-3" d="m983.71,1786.19v332.84h-332.84v-332.84h332.84Zm-7.4,325.44v-318.03h-318.03v318.03h318.03Z"/>
      </g>
      <g>
        <rect class="cls-22" x="654.57" y="2115.33" width="325.43" height="325.43" transform="translate(-1460.76 3095.33) rotate(-90)"/>
        <path class="cls-3" d="m983.71,2111.62v332.84h-332.84v-332.84h332.84Zm-7.4,325.43v-318.03h-318.03v318.03h318.03Z"/>
      </g>
      <g>
        <rect class="cls-22" x="776.61" y="2318.72" width="81.36" height="325.43" transform="translate(-1664.15 3298.73) rotate(-90)"/>
        <path class="cls-3" d="m983.71,2437.06v88.76h-332.84v-88.76h332.84Zm-7.4,81.36v-73.96h-318.03v73.96h318.03Z"/>
      </g>
      <g>
        <rect class="cls-22" x="980" y="488.15" width="325.43" height="325.44" transform="translate(491.85 1793.59) rotate(-90)"/>
        <path class="cls-3" d="m1309.14,484.45v332.84h-332.84v-332.84h332.84Zm-7.4,325.43v-318.03h-318.03v318.03h318.03Z"/>
      </g>
      <g>
        <rect class="cls-22" x="980" y="813.59" width="325.43" height="325.44" transform="translate(166.42 2119.03) rotate(-90)"/>
        <path class="cls-3" d="m1309.14,809.89v332.84h-332.84v-332.84h332.84Zm-7.4,325.43v-318.03h-318.03v318.03h318.03Z"/>
      </g>
      <g>
        <rect class="cls-22" x="980" y="1139.02" width="325.43" height="325.44" transform="translate(-159.02 2444.46) rotate(-90)"/>
        <path class="cls-3" d="m1309.14,1135.32v332.84h-332.84v-332.84h332.84Zm-7.4,325.44v-318.03h-318.03v318.03h318.03Z"/>
      </g>
      <g>
        <rect class="cls-22" x="980" y="1464.46" width="325.43" height="325.44" transform="translate(-484.45 2769.9) rotate(-90)"/>
        <path class="cls-3" d="m1309.14,1460.76v332.84h-332.84v-332.84h332.84Zm-7.4,325.43v-318.03h-318.03v318.03h318.03Z"/>
      </g>
      <g>
        <rect class="cls-22" x="980" y="1789.89" width="325.43" height="325.44" transform="translate(-809.89 3095.33) rotate(-90)"/>
        <path class="cls-3" d="m1309.14,1786.19v332.84h-332.84v-332.84h332.84Zm-7.4,325.44v-318.03h-318.03v318.03h318.03Z"/>
      </g>
      <g>
        <rect class="cls-22" x="980" y="2115.32" width="325.43" height="325.44" transform="translate(-1135.32 3420.76) rotate(-90)"/>
        <path class="cls-3" d="m1309.14,2111.62v332.84h-332.84v-332.84h332.84Zm-7.4,325.43v-318.03h-318.03v318.03h318.03Z"/>
      </g>
      <g>
        <rect class="cls-22" x="1102.04" y="2318.72" width="81.36" height="325.44" transform="translate(-1338.72 3624.16) rotate(-90)"/>
        <path class="cls-3" d="m1309.14,2437.06v88.76h-332.84v-88.76h332.84Zm-7.4,81.36v-73.96h-318.03v73.96h318.03Z"/>
      </g>
      <g>
        <rect class="cls-22" x="1305.44" y="488.15" width="325.43" height="325.43" transform="translate(817.29 2119.03) rotate(-90)"/>
        <path class="cls-3" d="m1634.57,484.45v332.84h-332.84v-332.84h332.84Zm-7.4,325.43v-318.03h-318.03v318.03h318.03Z"/>
      </g>
      <g>
        <rect class="cls-22" x="1305.44" y="813.59" width="325.43" height="325.43" transform="translate(491.85 2444.46) rotate(-90)"/>
        <path class="cls-3" d="m1634.57,809.89v332.84h-332.84v-332.84h332.84Zm-7.4,325.43v-318.03h-318.03v318.03h318.03Z"/>
      </g>
      <g>
        <rect class="cls-22" x="1305.44" y="1139.02" width="325.43" height="325.43" transform="translate(166.42 2769.9) rotate(-90)"/>
        <path class="cls-3" d="m1634.57,1135.32v332.84h-332.84v-332.84h332.84Zm-7.4,325.44v-318.03h-318.03v318.03h318.03Z"/>
      </g>
      <g>
        <rect class="cls-22" x="1305.44" y="1464.46" width="325.43" height="325.43" transform="translate(-159.02 3095.33) rotate(-90)"/>
        <path class="cls-3" d="m1634.57,1460.76v332.84h-332.84v-332.84h332.84Zm-7.4,325.43v-318.03h-318.03v318.03h318.03Z"/>
      </g>
      <g>
        <rect class="cls-22" x="1305.44" y="1789.89" width="325.43" height="325.43" transform="translate(-484.45 3420.76) rotate(-90)"/>
        <path class="cls-3" d="m1634.57,1786.19v332.84h-332.84v-332.84h332.84Zm-7.4,325.44v-318.03h-318.03v318.03h318.03Z"/>
      </g>
      <g>
        <rect class="cls-22" x="1305.44" y="2115.33" width="325.43" height="325.43" transform="translate(-809.89 3746.2) rotate(-90)"/>
        <path class="cls-3" d="m1634.57,2111.62v332.84h-332.84v-332.84h332.84Zm-7.4,325.43v-318.03h-318.03v318.03h318.03Z"/>
      </g>
      <g>
        <rect class="cls-22" x="1427.48" y="2318.72" width="81.36" height="325.43" transform="translate(-1013.28 3949.6) rotate(-90)"/>
        <path class="cls-3" d="m1634.57,2437.06v88.76h-332.84v-88.76h332.84Zm-7.4,81.36v-73.96h-318.03v73.96h318.03Z"/>
      </g>
      <g>
        <rect class="cls-22" x="1630.87" y="488.15" width="325.43" height="325.44" transform="translate(1142.72 2444.46) rotate(-90)"/>
        <path class="cls-3" d="m1960.01,484.45v332.84h-332.84v-332.84h332.84Zm-7.4,325.43v-318.03h-318.03v318.03h318.03Z"/>
      </g>
      <g>
        <rect class="cls-22" x="1630.87" y="813.59" width="325.43" height="325.44" transform="translate(817.29 2769.9) rotate(-90)"/>
        <path class="cls-3" d="m1960.01,809.89v332.84h-332.84v-332.84h332.84Zm-7.4,325.43v-318.03h-318.03v318.03h318.03Z"/>
      </g>
      <g>
        <rect class="cls-22" x="1630.87" y="1139.02" width="325.43" height="325.44" transform="translate(491.85 3095.33) rotate(-90)"/>
        <path class="cls-3" d="m1960.01,1135.32v332.84h-332.84v-332.84h332.84Zm-7.4,325.44v-318.03h-318.03v318.03h318.03Z"/>
      </g>
      <g>
        <rect class="cls-22" x="1630.87" y="1464.46" width="325.43" height="325.44" transform="translate(166.42 3420.76) rotate(-90)"/>
        <path class="cls-3" d="m1960.01,1460.76v332.84h-332.84v-332.84h332.84Zm-7.4,325.43v-318.03h-318.03v318.03h318.03Z"/>
      </g>
      <g>
        <rect class="cls-22" x="1630.87" y="1789.89" width="325.43" height="325.44" transform="translate(-159.02 3746.2) rotate(-90)"/>
        <path class="cls-3" d="m1960.01,1786.19v332.84h-332.84v-332.84h332.84Zm-7.4,325.44v-318.03h-318.03v318.03h318.03Z"/>
      </g>
      <g>
        <rect class="cls-22" x="1630.87" y="2115.32" width="325.43" height="325.44" transform="translate(-484.45 4071.63) rotate(-90)"/>
        <path class="cls-3" d="m1960.01,2111.62v332.84h-332.84v-332.84h332.84Zm-7.4,325.43v-318.03h-318.03v318.03h318.03Z"/>
      </g>
      <g>
        <rect class="cls-22" x="1752.91" y="2318.72" width="81.36" height="325.44" transform="translate(-687.85 4275.03) rotate(-90)"/>
        <path class="cls-3" d="m1960.01,2437.06v88.76h-332.84v-88.76h332.84Zm-7.4,81.36v-73.96h-318.03v73.96h318.03Z"/>
      </g>
      <g>
        <rect class="cls-22" x="1956.31" y="488.15" width="325.43" height="325.43" transform="translate(1468.16 2769.9) rotate(-90)"/>
        <path class="cls-3" d="m2285.44,484.45v332.84h-332.84v-332.84h332.84Zm-7.4,325.43v-318.03h-318.03v318.03h318.03Z"/>
      </g>
      <g>
        <rect class="cls-22" x="1956.31" y="813.59" width="325.43" height="325.43" transform="translate(1142.72 3095.33) rotate(-90)"/>
        <path class="cls-3" d="m2285.44,809.89v332.84h-332.84v-332.84h332.84Zm-7.4,325.43v-318.03h-318.03v318.03h318.03Z"/>
      </g>
      <g>
        <rect class="cls-22" x="1956.31" y="1139.02" width="325.43" height="325.43" transform="translate(817.29 3420.76) rotate(-90)"/>
        <path class="cls-3" d="m2285.44,1135.32v332.84h-332.84v-332.84h332.84Zm-7.4,325.44v-318.03h-318.03v318.03h318.03Z"/>
      </g>
      <g>
        <rect class="cls-22" x="1956.31" y="1464.46" width="325.43" height="325.43" transform="translate(491.85 3746.2) rotate(-90)"/>
        <path class="cls-3" d="m2285.44,1460.76v332.84h-332.84v-332.84h332.84Zm-7.4,325.43v-318.03h-318.03v318.03h318.03Z"/>
      </g>
      <g>
        <rect class="cls-22" x="1956.31" y="1789.89" width="325.43" height="325.43" transform="translate(166.42 4071.63) rotate(-90)"/>
        <path class="cls-3" d="m2285.44,1786.19v332.84h-332.84v-332.84h332.84Zm-7.4,325.44v-318.03h-318.03v318.03h318.03Z"/>
      </g>
      <g>
        <rect class="cls-22" x="1956.31" y="2115.33" width="325.43" height="325.43" transform="translate(-159.02 4397.07) rotate(-90)"/>
        <path class="cls-3" d="m2285.44,2111.62v332.84h-332.84v-332.84h332.84Zm-7.4,325.43v-318.03h-318.03v318.03h318.03Z"/>
      </g>
      <g>
        <rect class="cls-22" x="2078.35" y="2318.72" width="81.36" height="325.43" transform="translate(-362.41 4600.46) rotate(-90)"/>
        <path class="cls-3" d="m2285.44,2437.06v88.76h-332.84v-88.76h332.84Zm-7.4,81.36v-73.96h-318.03v73.96h318.03Z"/>
      </g>
      <g>
        <rect class="cls-22" x="2281.74" y="488.15" width="325.43" height="325.44" transform="translate(1793.59 3095.33) rotate(-90)"/>
        <path class="cls-3" d="m2610.88,484.45v332.84h-332.84v-332.84h332.84Zm-7.4,325.43v-318.03h-318.03v318.03h318.03Z"/>
      </g>
      <g>
        <rect class="cls-22" x="2281.74" y="813.59" width="325.43" height="325.44" transform="translate(1468.16 3420.76) rotate(-90)"/>
        <path class="cls-3" d="m2610.88,809.89v332.84h-332.84v-332.84h332.84Zm-7.4,325.43v-318.03h-318.03v318.03h318.03Z"/>
      </g>
      <g>
        <rect class="cls-22" x="2281.74" y="1139.02" width="325.43" height="325.44" transform="translate(1142.72 3746.2) rotate(-90)"/>
        <path class="cls-3" d="m2610.88,1135.32v332.84h-332.84v-332.84h332.84Zm-7.4,325.44v-318.03h-318.03v318.03h318.03Z"/>
      </g>
      <g>
        <rect class="cls-22" x="2281.74" y="1464.46" width="325.43" height="325.44" transform="translate(817.29 4071.63) rotate(-90)"/>
        <path class="cls-3" d="m2610.88,1460.76v332.84h-332.84v-332.84h332.84Zm-7.4,325.43v-318.03h-318.03v318.03h318.03Z"/>
      </g>
      <g>
        <rect class="cls-22" x="2281.74" y="1789.89" width="325.43" height="325.44" transform="translate(491.85 4397.07) rotate(-90)"/>
        <path class="cls-3" d="m2610.88,1786.19v332.84h-332.84v-332.84h332.84Zm-7.4,325.44v-318.03h-318.03v318.03h318.03Z"/>
      </g>
      <g>
        <rect class="cls-22" x="2281.74" y="2115.32" width="325.43" height="325.44" transform="translate(166.42 4722.5) rotate(-90)"/>
        <path class="cls-3" d="m2610.88,2111.62v332.84h-332.84v-332.84h332.84Zm-7.4,325.43v-318.03h-318.03v318.03h318.03Z"/>
      </g>
      <g>
        <rect class="cls-22" x="2403.78" y="2318.72" width="81.36" height="325.44" transform="translate(-36.98 4925.9) rotate(-90)"/>
        <path class="cls-3" d="m2610.88,2437.06v88.76h-332.84v-88.76h332.84Zm-7.4,81.36v-73.96h-318.03v73.96h318.03Z"/>
      </g>
      <g>
        <rect class="cls-22" x="2769.89" y="162.72" width="325.43" height="325.43" transform="translate(2607.18 3258.05) rotate(-90)"/>
        <path class="cls-3" d="m3099.03,159.02v332.84h-332.84V159.02h332.84Zm-7.4,325.43V166.42h-318.03v318.03h318.03Z"/>
      </g>
      <g>
        <rect class="cls-22" x="2769.89" y="488.15" width="325.43" height="325.43" transform="translate(2281.74 3583.48) rotate(-90)"/>
        <path class="cls-3" d="m3099.03,484.45v332.84h-332.84v-332.84h332.84Zm-7.4,325.43v-318.03h-318.03v318.03h318.03Z"/>
      </g>
      <g>
        <rect class="cls-22" x="2769.89" y="813.59" width="325.43" height="325.43" transform="translate(1956.31 3908.92) rotate(-90)"/>
        <path class="cls-3" d="m3099.03,809.89v332.84h-332.84v-332.84h332.84Zm-7.4,325.43v-318.03h-318.03v318.03h318.03Z"/>
      </g>
      <g>
        <rect class="cls-22" x="2769.89" y="1139.02" width="325.43" height="325.43" transform="translate(1630.87 4234.35) rotate(-90)"/>
        <path class="cls-3" d="m3099.03,1135.32v332.84h-332.84v-332.84h332.84Zm-7.4,325.44v-318.03h-318.03v318.03h318.03Z"/>
      </g>
      <g>
        <rect class="cls-22" x="2769.89" y="1464.46" width="325.43" height="325.43" transform="translate(1305.44 4559.79) rotate(-90)"/>
        <path class="cls-3" d="m3099.03,1460.76v332.84h-332.84v-332.84h332.84Zm-7.4,325.43v-318.03h-318.03v318.03h318.03Z"/>
      </g>
      <g>
        <rect class="cls-22" x="2525.82" y="244.08" width="325.43" height="162.72" transform="translate(2363.1 3013.97) rotate(-90)"/>
        <path class="cls-3" d="m2773.6,159.02v332.84h-170.12V159.02h170.12Zm-7.4,325.43V166.42h-155.31v318.03h155.31Z"/>
      </g>
      <g>
        <rect class="cls-22" x="2525.82" y="569.51" width="325.43" height="162.72" transform="translate(2037.67 3339.41) rotate(-90)"/>
        <path class="cls-3" d="m2773.6,484.45v332.84h-170.12v-332.84h170.12Zm-7.4,325.43v-318.03h-155.31v318.03h155.31Z"/>
      </g>
      <g>
        <rect class="cls-22" x="2525.82" y="894.95" width="325.43" height="162.72" transform="translate(1712.23 3664.84) rotate(-90)"/>
        <path class="cls-3" d="m2773.6,809.89v332.84h-170.12v-332.84h170.12Zm-7.4,325.43v-318.03h-155.31v318.03h155.31Z"/>
      </g>
      <g>
        <rect class="cls-22" x="2525.82" y="1220.38" width="325.43" height="162.72" transform="translate(1386.8 3990.27) rotate(-90)"/>
        <path class="cls-3" d="m2773.6,1135.32v332.84h-170.12v-332.84h170.12Zm-7.4,325.44v-318.03h-155.31v318.03h155.31Z"/>
      </g>
      <g>
        <rect class="cls-22" x="2525.82" y="1545.81" width="325.43" height="162.72" transform="translate(1061.36 4315.71) rotate(-90)"/>
        <path class="cls-3" d="m2773.6,1460.76v332.84h-170.12v-332.84h170.12Zm-7.4,325.43v-318.03h-155.31v318.03h155.31Z"/>
      </g>
      <g>
        <rect class="cls-13" x="2769.89" y="1789.89" width="325.43" height="325.43" transform="translate(980 4885.22) rotate(-90)"/>
        <path class="cls-13" d="m3099.03,1786.19v332.84h-332.84v-332.84h332.84Zm-7.4,325.44v-318.03h-318.03v318.03h318.03Z"/>
      </g>
      <g>
        <rect class="cls-18" x="2769.89" y="2115.33" width="325.43" height="325.43" transform="translate(654.57 5210.65) rotate(-90)"/>
        <path class="cls-18" d="m3099.03,2111.62v332.84h-332.84v-332.84h332.84Zm-7.4,325.43v-318.03h-318.03v318.03h318.03Z"/>
      </g>
      <g>
        <rect class="cls-22" x="2891.93" y="2318.72" width="81.36" height="325.43" transform="translate(451.17 5414.05) rotate(-90)"/>
        <path class="cls-3" d="m3099.03,2437.06v88.76h-332.84v-88.76h332.84Zm-7.4,81.36v-73.96h-318.03v73.96h318.03Z"/>
      </g>
      <g>
        <rect class="cls-22" x="3095.33" y="162.72" width="325.43" height="325.43" transform="translate(2932.61 3583.48) rotate(-90)"/>
        <path class="cls-3" d="m3424.46,159.02v332.84h-332.84V159.02h332.84Zm-7.4,325.43V166.42h-318.03v318.03h318.03Z"/>
      </g>
      <g>
        <rect class="cls-22" x="3095.33" y="488.15" width="325.43" height="325.43" transform="translate(2607.18 3908.92) rotate(-90)"/>
        <path class="cls-3" d="m3424.46,484.45v332.84h-332.84v-332.84h332.84Zm-7.4,325.43v-318.03h-318.03v318.03h318.03Z"/>
      </g>
      <g>
        <rect class="cls-22" x="3095.33" y="813.59" width="325.43" height="325.43" transform="translate(2281.74 4234.35) rotate(-90)"/>
        <path class="cls-3" d="m3424.46,809.89v332.84h-332.84v-332.84h332.84Zm-7.4,325.43v-318.03h-318.03v318.03h318.03Z"/>
      </g>
      <g>
        <rect class="cls-22" x="3095.33" y="1139.02" width="325.43" height="325.43" transform="translate(1956.31 4559.79) rotate(-90)"/>
        <path class="cls-3" d="m3424.46,1135.32v332.84h-332.84v-332.84h332.84Zm-7.4,325.44v-318.03h-318.03v318.03h318.03Z"/>
      </g>
      <g>
        <rect class="cls-22" x="3095.33" y="1464.46" width="325.43" height="325.43" transform="translate(1630.87 4885.22) rotate(-90)"/>
        <path class="cls-3" d="m3424.46,1460.76v332.84h-332.84v-332.84h332.84Zm-7.4,325.43v-318.03h-318.03v318.03h318.03Z"/>
      </g>
      <g>
        <rect class="cls-1" x="3095.33" y="1789.89" width="325.43" height="325.43" transform="translate(1305.44 5210.65) rotate(-90)"/>
        <path class="cls-1" d="m3424.46,1786.19v332.84h-332.84v-332.84h332.84Zm-7.4,325.44v-318.03h-318.03v318.03h318.03Z"/>
      </g>
      <g>
        <rect class="cls-14" x="3095.33" y="2115.33" width="325.43" height="325.43" transform="translate(980 5536.09) rotate(-90)"/>
        <path class="cls-14" d="m3424.46,2111.62v332.84h-332.84v-332.84h332.84Zm-7.4,325.43v-318.03h-318.03v318.03h318.03Z"/>
      </g>
      <g>
        <rect class="cls-22" x="3217.37" y="2318.72" width="81.36" height="325.43" transform="translate(776.61 5739.49) rotate(-90)"/>
        <path class="cls-3" d="m3424.46,2437.06v88.76h-332.84v-88.76h332.84Zm-7.4,81.36v-73.96h-318.03v73.96h318.03Z"/>
      </g>
      <g>
        <rect class="cls-22" x="3420.76" y="162.72" width="325.43" height="325.44" transform="translate(3258.05 3908.92) rotate(-90)"/>
        <path class="cls-3" d="m3749.9,159.02v332.84h-332.84V159.02h332.84Zm-7.4,325.43V166.42h-318.03v318.03h318.03Z"/>
      </g>
      <g>
        <rect class="cls-22" x="3420.76" y="488.15" width="325.43" height="325.44" transform="translate(2932.61 4234.35) rotate(-90)"/>
        <path class="cls-3" d="m3749.9,484.45v332.84h-332.84v-332.84h332.84Zm-7.4,325.43v-318.03h-318.03v318.03h318.03Z"/>
      </g>
      <g>
        <rect class="cls-22" x="3420.76" y="813.59" width="325.43" height="325.44" transform="translate(2607.18 4559.79) rotate(-90)"/>
        <path class="cls-3" d="m3749.9,809.89v332.84h-332.84v-332.84h332.84Zm-7.4,325.43v-318.03h-318.03v318.03h318.03Z"/>
      </g>
      <g>
        <rect class="cls-22" x="3420.76" y="1139.02" width="325.43" height="325.44" transform="translate(2281.74 4885.22) rotate(-90)"/>
        <path class="cls-3" d="m3749.9,1135.32v332.84h-332.84v-332.84h332.84Zm-7.4,325.44v-318.03h-318.03v318.03h318.03Z"/>
      </g>
      <g>
        <rect class="cls-22" x="3420.76" y="1464.46" width="325.43" height="325.44" transform="translate(1956.31 5210.65) rotate(-90)"/>
        <path class="cls-3" d="m3749.9,1460.76v332.84h-332.84v-332.84h332.84Zm-7.4,325.43v-318.03h-318.03v318.03h318.03Z"/>
      </g>
      <g>
        <rect class="cls-7" x="3420.76" y="1789.89" width="325.43" height="325.44" transform="translate(1630.87 5536.09) rotate(-90)"/>
        <path class="cls-7" d="m3749.9,1786.19v332.84h-332.84v-332.84h332.84Zm-7.4,325.44v-318.03h-318.03v318.03h318.03Z"/>
      </g>
      <g>
        <rect class="cls-17" x="3420.76" y="2115.32" width="325.43" height="325.44" transform="translate(1305.44 5861.52) rotate(-90)"/>
        <path class="cls-17" d="m3749.9,2111.62v332.84h-332.84v-332.84h332.84Zm-7.4,325.43v-318.03h-318.03v318.03h318.03Z"/>
      </g>
      <g>
        <rect class="cls-22" x="3542.8" y="2318.72" width="81.36" height="325.44" transform="translate(1102.04 6064.92) rotate(-90)"/>
        <path class="cls-3" d="m3749.9,2437.06v88.76h-332.84v-88.76h332.84Zm-7.4,81.36v-73.96h-318.03v73.96h318.03Z"/>
      </g>
      <g>
        <rect class="cls-22" x="3746.2" y="162.72" width="325.43" height="325.43" transform="translate(3583.48 4234.35) rotate(-90)"/>
        <path class="cls-3" d="m4075.33,159.02v332.84h-332.84V159.02h332.84Zm-7.4,325.43V166.42h-318.03v318.03h318.03Z"/>
      </g>
      <g>
        <rect class="cls-22" x="3746.2" y="488.15" width="325.43" height="325.43" transform="translate(3258.05 4559.79) rotate(-90)"/>
        <path class="cls-3" d="m4075.33,484.45v332.84h-332.84v-332.84h332.84Zm-7.4,325.43v-318.03h-318.03v318.03h318.03Z"/>
      </g>
      <g>
        <rect class="cls-22" x="3746.2" y="813.59" width="325.43" height="325.43" transform="translate(2932.61 4885.22) rotate(-90)"/>
        <path class="cls-3" d="m4075.33,809.89v332.84h-332.84v-332.84h332.84Zm-7.4,325.43v-318.03h-318.03v318.03h318.03Z"/>
      </g>
      <g>
        <rect class="cls-22" x="3746.2" y="1139.02" width="325.43" height="325.43" transform="translate(2607.18 5210.65) rotate(-90)"/>
        <path class="cls-3" d="m4075.33,1135.32v332.84h-332.84v-332.84h332.84Zm-7.4,325.44v-318.03h-318.03v318.03h318.03Z"/>
      </g>
      <g>
        <rect class="cls-22" x="3746.2" y="1464.46" width="325.43" height="325.43" transform="translate(2281.74 5536.09) rotate(-90)"/>
        <path class="cls-3" d="m4075.33,1460.76v332.84h-332.84v-332.84h332.84Zm-7.4,325.43v-318.03h-318.03v318.03h318.03Z"/>
      </g>
      <g>
        <rect class="cls-29" x="3746.2" y="1789.89" width="325.43" height="325.43" transform="translate(1956.31 5861.52) rotate(-90)"/>
        <path class="cls-29" d="m4075.33,1786.19v332.84h-332.84v-332.84h332.84Zm-7.4,325.44v-318.03h-318.03v318.03h318.03Z"/>
      </g>
      <g>
        <rect class="cls-15" x="3746.2" y="2115.33" width="325.43" height="325.43" transform="translate(1630.87 6186.96) rotate(-90)"/>
        <path class="cls-15" d="m4075.33,2111.62v332.84h-332.84v-332.84h332.84Zm-7.4,325.43v-318.03h-318.03v318.03h318.03Z"/>
      </g>
      <g>
        <rect class="cls-22" x="3868.24" y="2318.72" width="81.36" height="325.43" transform="translate(1427.48 6390.36) rotate(-90)"/>
        <path class="cls-3" d="m4075.33,2437.06v88.76h-332.84v-88.76h332.84Zm-7.4,81.36v-73.96h-318.03v73.96h318.03Z"/>
      </g>
      <g>
        <rect class="cls-22" x="3990.27" y="244.08" width="325.43" height="162.72" transform="translate(3827.56 4478.43) rotate(-90)"/>
        <path class="cls-3" d="m4238.05,159.02v332.84h-170.12V159.02h170.12Zm-7.4,325.43V166.42h-155.32v318.03h155.32Z"/>
      </g>
      <g>
        <rect class="cls-22" x="3990.27" y="569.51" width="325.43" height="162.72" transform="translate(3502.12 4803.86) rotate(-90)"/>
        <path class="cls-3" d="m4238.05,484.45v332.84h-170.12v-332.84h170.12Zm-7.4,325.43v-318.03h-155.32v318.03h155.32Z"/>
      </g>
      <g>
        <rect class="cls-22" x="3990.27" y="894.95" width="325.43" height="162.72" transform="translate(3176.69 5129.3) rotate(-90)"/>
        <path class="cls-3" d="m4238.05,809.89v332.84h-170.12v-332.84h170.12Zm-7.4,325.43v-318.03h-155.32v318.03h155.32Z"/>
      </g>
      <g>
        <rect class="cls-22" x="3990.27" y="1220.38" width="325.43" height="162.72" transform="translate(2851.25 5454.73) rotate(-90)"/>
        <path class="cls-3" d="m4238.05,1135.32v332.84h-170.12v-332.84h170.12Zm-7.4,325.44v-318.03h-155.32v318.03h155.32Z"/>
      </g>
      <g>
        <rect class="cls-22" x="3990.27" y="1545.81" width="325.43" height="162.72" transform="translate(2525.82 5780.17) rotate(-90)"/>
        <path class="cls-3" d="m4238.05,1460.76v332.84h-170.12v-332.84h170.12Zm-7.4,325.43v-318.03h-155.32v318.03h155.32Z"/>
      </g>
      <g>
        <rect class="cls-21" x="3990.27" y="1871.25" width="325.43" height="162.72" transform="translate(2200.38 6105.6) rotate(-90)"/>
        <path class="cls-21" d="m4238.05,1786.19v332.84h-170.12v-332.84h170.12Zm-7.4,325.44v-318.03h-155.32v318.03h155.32Z"/>
      </g>
      <g>
        <rect class="cls-27" x="3990.27" y="2196.68" width="325.43" height="162.72" transform="translate(1874.95 6431.03) rotate(-90)"/>
        <path class="cls-27" d="m4238.05,2111.62v332.84h-170.12v-332.84h170.12Zm-7.4,325.43v-318.03h-155.32v318.03h155.32Z"/>
      </g>
      <g>
        <rect class="cls-22" x="4112.31" y="2400.08" width="81.36" height="162.72" transform="translate(1671.55 6634.43) rotate(-90)"/>
        <path class="cls-3" d="m4238.05,2437.06v88.76h-170.12v-88.76h170.12Zm-7.4,81.36v-73.96h-155.32v73.96h155.32Z"/>
      </g>
    </g>
    <g class="cls-4">
      <rect class="cls-5" x="2827.84" y="2156" width="162.72" height="162.72" transform="translate(671.83 5146.56) rotate(-90)"/>
      <rect class="cls-25" x="2835.97" y="2164.14" width="146.45" height="146.45" transform="translate(671.83 5146.56) rotate(-90)"/>
      <g>
        <path class="cls-30" d="m2973.47,2296.7h0c0,2.23-1.82,4.05-4.05,4.05h-120.45c-2.23,0-4.05-1.82-4.05-4.05h0c0-2.23,1.82-4.05,4.05-4.05h120.45c2.23,0,4.05,1.82,4.05,4.05Z"/>
        <path class="cls-30" d="m2973.47,2279.75h0c0,2.23-1.82,4.05-4.05,4.05h-120.45c-2.23,0-4.05-1.82-4.05-4.05h0c0-2.23,1.82-4.05,4.05-4.05h120.45c2.23,0,4.05,1.82,4.05,4.05Z"/>
        <path class="cls-30" d="m2973.47,2262.79h0c0,2.23-1.82,4.05-4.05,4.05h-120.45c-2.23,0-4.05-1.82-4.05-4.05h0c0-2.23,1.82-4.05,4.05-4.05h120.45c2.23,0,4.05,1.82,4.05,4.05Z"/>
        <path class="cls-30" d="m2973.47,2245.84h0c0,2.23-1.82,4.05-4.05,4.05h-120.45c-2.23,0-4.05-1.82-4.05-4.05h0c0-2.23,1.82-4.05,4.05-4.05h120.45c2.23,0,4.05,1.82,4.05,4.05Z"/>
        <path class="cls-30" d="m2973.47,2228.88h0c0,2.23-1.82,4.05-4.05,4.05h-120.45c-2.23,0-4.05-1.82-4.05-4.05h0c0-2.23,1.82-4.05,4.05-4.05h120.45c2.23,0,4.05,1.82,4.05,4.05Z"/>
        <path class="cls-30" d="m2973.47,2211.93h0c0,2.23-1.82,4.05-4.05,4.05h-120.45c-2.23,0-4.05-1.82-4.05-4.05h0c0-2.23,1.82-4.05,4.05-4.05h120.45c2.23,0,4.05,1.82,4.05,4.05Z"/>
        <path class="cls-30" d="m2973.47,2194.98h0c0,2.23-1.82,4.05-4.05,4.05h-120.45c-2.23,0-4.05-1.82-4.05-4.05h0c0-2.23,1.82-4.05,4.05-4.05h120.45c2.23,0,4.05,1.82,4.05,4.05Z"/>
        <path class="cls-30" d="m2973.47,2178.02h0c0,2.23-1.82,4.05-4.05,4.05h-120.45c-2.23,0-4.05-1.82-4.05-4.05h0c0-2.23,1.82-4.05,4.05-4.05h120.45c2.23,0,4.05,1.82,4.05,4.05Z"/>
      </g>
    </g>
  </g>
  <g id="Layer_1" data-name="Layer 1">
    <g id="LWPOLYLINE" class="cls-8">
      <rect class="cls-2" x="2607.18" y="162.72" width="162.72" height="1627.17"/>
    </g>
    <g id="LWPOLYLINE-2" data-name="LWPOLYLINE">
      <rect class="cls-12" x="2769.89" y="2359.4" width="1464.46" height="162.72"/>
    </g>
    <g>
      <g class="cls-8">
        <g id="LWPOLYLINE-3" data-name="LWPOLYLINE">
          <polygon class="cls-20" points="251.53 182.25 251.53 117.16 267.8 117.16 267.8 19.53 186.44 19.53 186.44 182.25 251.53 182.25 251.53 182.25"/>
        </g>
        <g id="LWPOLYLINE-4" data-name="LWPOLYLINE">
          <polygon class="cls-20" points="1423.09 182.25 1423.09 117.16 1406.82 117.16 1406.82 19.53 1488.18 19.53 1488.18 182.25 1423.09 182.25 1423.09 182.25"/>
        </g>
        <g id="LWPOLYLINE-5" data-name="LWPOLYLINE">
          <rect class="cls-20" x="251.53" y="182.25" width="65.09" height="1171.56"/>
        </g>
      </g>
      <g id="ARC">
        <path class="cls-3" d="m1406.77,162.72c0,40.76-2.11,81.86-6.27,122.15l-7.36-.76c4.14-40.05,6.23-80.89,6.23-121.39h7.4Zm-11.16,162.65c-5.58,40.3-13.34,80.72-23.08,120.13l-7.19-1.78c9.67-39.16,17.39-79.32,22.93-119.37l7.33,1.01Zm-33.55,159.56c-11.12,39.09-24.45,78.05-39.61,115.78l-6.87-2.76c15.06-37.49,28.31-76.2,39.36-115.04l7.12,2.02Zm-55.52,153.45c-16.46,37.14-35.08,73.86-55.35,109.13l-6.42-3.69c20.14-35.04,38.65-71.53,55-108.44l6.77,3Zm-76.32,144.19c-21.45,34.49-44.98,68.27-69.93,100.4l-5.85-4.54c24.79-31.93,48.17-65.5,69.49-99.77l6.29,3.91Zm-95.52,132.2c-26.02,31.21-53.97,61.42-83.1,89.8l-5.17-5.3c28.94-28.2,56.72-58.22,82.58-89.24l5.69,4.74Zm-112.79,117.75c-30.08,27.35-61.93,53.43-94.65,77.5l-4.39-5.96c32.52-23.92,64.17-49.83,94.06-77.02l4.98,5.48Zm-127.89,101.08c-33.57,22.95-68.71,44.38-104.43,63.69l-3.52-6.51c35.5-19.19,70.41-40.48,103.77-63.29l4.18,6.11Zm-140.57,82.42c-36.43,18.09-74.21,34.44-112.28,48.6l-2.58-6.94c37.83-14.07,75.36-30.32,111.57-48.29l3.29,6.63Zm-150.76,62.15c-38.56,12.82-78.24,23.75-117.95,32.46l-1.59-7.23c39.46-8.66,78.89-19.52,117.2-32.26l2.34,7.02Zm-157.94,40.52c-39.9,7.31-80.71,12.61-121.3,15.75l-.57-7.38c40.34-3.12,80.89-8.39,120.54-15.66l1.33,7.28Zm-162.03,18.2c-16.95.73-34.18,1.09-51.2,1.09v-7.4c16.92,0,34.04-.37,50.88-1.09l.32,7.4Z"/>
      </g>
      <g id="LWPOLYLINE-6" data-name="LWPOLYLINE">
        <polygon class="cls-6" points="231.5 162.72 231.5 97.63 247.78 97.63 247.78 0 166.42 0 166.42 162.72 231.5 162.72 231.5 162.72"/>
      </g>
      <g id="LWPOLYLINE-7" data-name="LWPOLYLINE">
        <polygon class="cls-6" points="1403.07 162.72 1403.07 97.63 1386.8 97.63 1386.8 0 1468.16 0 1468.16 162.72 1403.07 162.72 1403.07 162.72"/>
      </g>
      <g id="LWPOLYLINE-8" data-name="LWPOLYLINE">
        <rect class="cls-6" x="231.5" y="162.72" width="65.09" height="1171.56"/>
      </g>
    </g>
    <g>
      <path class="cls-10" d="m3419.64,2187.85c-28.77,30.82-27.11,79.13,3.71,107.89,1.33,1.24,2.71,2.44,4.12,3.58,21.94,11.18,42.84,24.3,62.45,39.2,3.51,6.55,5.35,13.87,5.35,21.3v14.28h0c-1,.74-1.95,1.53-2.84,2.35h-44.17c-5.39,0-9.76,4.37-9.76,9.76v30.92c0,5.39,4.37,9.76,9.76,9.76h44.18c2.11,1.95,4.44,3.57,6.9,4.9v46.37h-1.93v15.15h-2.64c-.75,0-1.48.31-2,.86l-24.59,25.89c-.49.51-.76,1.19-.76,1.9h96.4c0-.71-.27-1.39-.76-1.9l-24.59-25.89c-.52-.55-1.24-.86-2-.86h-2.65v-15.15h-1.93v-46.38c1.39-.75,2.76-1.57,4.07-2.54,1-.74,1.94-1.53,2.84-2.35h44.17c5.39,0,9.76-4.37,9.76-9.76v-30.92c0-5.39-4.37-9.76-9.76-9.76h-44.2c-.9-.83-1.83-1.62-2.82-2.35h0v-14.28c0-7.43,1.84-14.75,5.35-21.3,19.61-14.9,40.5-28.02,62.45-39.2,32.8-26.49,37.91-74.55,11.42-107.35-1.14-1.42-2.34-2.79-3.58-4.12-24.18-27.59-59.3-43.1-95.97-42.38-36.68-.72-71.8,14.79-95.98,42.38Z"/>
      <rect class="cls-16" x="3485.85" y="2417.15" width="32.55" height="51.26"/>
      <rect class="cls-16" x="3483.92" y="2468.41" width="36.41" height="15.15"/>
      <path class="cls-16" d="m3481.27,2483.56h41.7c.75,0,1.48.31,2,.86l24.59,25.89c.49.51.76,1.19.76,1.9v9.92h-96.4v-9.92c0-.71.27-1.38.76-1.9l24.59-25.89c.52-.55,1.24-.86,2-.86Z"/>
      <path class="cls-16" d="m3434.76,2366.7h134.71c5.39,0,9.77,4.38,9.77,9.77v30.92c0,5.39-4.38,9.76-9.76,9.76h-134.72c-5.39,0-9.76-4.38-9.76-9.76v-30.92c0-5.39,4.38-9.76,9.76-9.76Z"/>
      <path class="cls-16" d="m3481.78,2364.34c-15.23,11.24-18.47,32.69-7.23,47.92,11.23,15.23,32.69,18.47,47.92,7.23,15.23-11.24,18.47-32.69,7.23-47.92-2.04-2.76-4.47-5.2-7.23-7.23h-40.69Z"/>
      <path class="cls-16" d="m3502.12,2412.26c-11.24,0-20.34-9.11-20.34-20.34v-41.86c0-7.43-1.84-14.75-5.35-21.3-19.61-14.9-40.5-28.02-62.45-39.2-1.42-1.14-2.79-2.34-4.12-3.58-30.82-28.77-32.48-77.07-3.71-107.89,24.18-27.59,59.3-43.1,95.98-42.38,36.68-.72,71.8,14.79,95.97,42.38,1.24,1.33,2.44,2.71,3.58,4.12,26.49,32.8,21.38,80.86-11.42,107.35-21.94,11.18-42.84,24.3-62.45,39.2-3.51,6.55-5.35,13.86-5.35,21.3v41.86c0,11.24-9.11,20.34-20.34,20.34Z"/>
    </g>
    <path class="cls-9" d="m2841.81,324.83l-48.32,48.32c-1.59,1.59-1.59,4.16,0,5.75l512.01,512.01c1.59,1.59,4.16,1.59,5.75,0l48.32-48.33,28.76,28.76-65.58,65.58c-7.94,7.94-20.82,7.94-28.76,0l-546.53-546.53c-7.94-7.94-7.94-20.82,0-28.76l65.58-65.58,28.77,28.77Z"/>
    <g id="LWPOLYLINE-9" data-name="LWPOLYLINE" class="cls-8">
      <path class="cls-20" d="m3432.63,769.53c7.94-7.94,20.82-7.94,28.76,0,7.94,7.94,7.94,20.82,0,28.76l-54.65,54.65-28.77-28.77,54.65-54.65h0Z"/>
    </g>
    <g id="LWPOLYLINE-10" data-name="LWPOLYLINE" class="cls-8">
      <rect class="cls-20" x="2843.45" y="265.94" width="16.27" height="40.68" transform="translate(632.74 2100.18) rotate(-45)"/>
    </g>
    <g id="LWPOLYLINE-11" data-name="LWPOLYLINE" class="cls-8">
      <rect class="cls-20" x="2696.67" y="1305.07" width="16.27" height="488.15"/>
    </g>
    <g id="LWPOLYLINE-12" data-name="LWPOLYLINE" class="cls-8">
      <rect class="cls-20" x="3101.76" y="4.99" width="16.27" height="1139.02" transform="translate(504.63 2367.3) rotate(-45)"/>
    </g>
    <g id="LWPOLYLINE-13" data-name="LWPOLYLINE" class="cls-8">
      <rect class="cls-20" x="2841.67" y="261.22" width="4.88" height="65.09" transform="translate(625.43 2097.29) rotate(-45)"/>
    </g>
    <g id="LWPOLYLINE-14" data-name="LWPOLYLINE" class="cls-8">
      <rect class="cls-20" x="2826.71" y="276.18" width="4.88" height="65.09" transform="translate(610.45 2091.06) rotate(-45)"/>
    </g>
    <g id="LWPOLYLINE-15" data-name="LWPOLYLINE" class="cls-8">
      <rect class="cls-20" x="3388.2" y="807.75" width="4.88" height="65.09" transform="translate(398.79 2643.44) rotate(-45)"/>
    </g>
    <g id="LWPOLYLINE-16" data-name="LWPOLYLINE" class="cls-8">
      <rect class="cls-20" x="3373.24" y="822.7" width="4.88" height="65.09" transform="translate(384.09 2637.68) rotate(-45)"/>
    </g>
    <g>
      <polygon class="cls-9" points="1705.87 2359.4 1705.87 2128.72 1695.87 2121.57 1691.47 2116.95 1685.85 2108.65 1682.11 2099.68 1680.15 2089.65 1680.14 2080.88 1688.86 1401.52 1691.52 1366.66 1696.51 1345.41 1701.21 1331.7 1709.78 1312.83 1719.25 1296.8 1730.36 1281.74 1743.23 1267.6 1756.54 1255.66 1771.9 1244.45 1787.65 1235.24 1807.02 1226.56 1823.67 1221.13 1839.65 1217.5 2122.23 1217.5 2139.41 1221.46 2154.9 1226.58 2176.78 1236.59 2190.36 1244.7 2207.44 1257.4 2219.04 1267.99 2231.52 1281.74 2241.28 1294.79 2253.45 1315.46 2259.96 1329.9 2266.63 1349.86 2270.09 1365.14 2272.53 1384.08 2273.02 1401.52 2281.74 2080.88 2281.51 2091.68 2280.05 2098.7 2276.03 2108.65 2270.63 2116.68 2263.6 2123.65 2256.01 2128.72 2256.01 2359.4 1705.87 2359.4 1705.87 2359.4 1705.87 2359.4"/>
      <polygon class="cls-9" points="1680.14 2080.88 1680.15 2080.03 1680.15 2089.65 1680.14 2080.88"/>
      <polygon class="cls-9" points="1680.15 2089.65 1680.15 2080.03 1682.11 1927.05 1680.15 2089.65"/>
      <path class="cls-9" d="m1705.87,1321.44l3.91-8.62-3.91,8.62Z"/>
      <path class="cls-9" d="m1709.78,1312.83l9.47-16.03-9.47,16.03Z"/>
      <path class="cls-9" d="m1719.25,1296.8l11.11-15.06-11.11,15.06Z"/>
      <path class="cls-9" d="m1730.36,1281.74l12.87-14.14-12.87,14.14Z"/>
      <path class="cls-9" d="m1743.23,1267.6l13.31-11.94-13.31,11.94Z"/>
      <path class="cls-9" d="m1756.54,1255.66l15.36-11.21-15.36,11.21Z"/>
      <path class="cls-9" d="m1771.9,1244.45l15.76-9.21-15.76,9.21Z"/>
      <path class="cls-9" d="m1787.65,1235.24l19.37-8.68-19.37,8.68Z"/>
      <path class="cls-9" d="m1807.02,1226.56l16.65-5.43-16.65,5.43Z"/>
      <path class="cls-9" d="m1823.67,1221.13l15.98-3.63-15.98,3.63Z"/>
      <polygon class="cls-9" points="2281.51 2091.68 2280.05 1949.52 2281.51 2062.45 2281.51 2091.68"/>
      <polygon class="cls-9" points="2281.51 2091.68 2281.51 2062.45 2281.74 2080.88 2281.51 2091.68"/>
      <g id="WIPEOUT">
        <polygon class="cls-25" points="1655.5 2067.48 1655.51 2066.63 1655.51 2076.25 1655.5 2067.48"/>
        <polygon class="cls-25" points="1655.51 2076.25 1655.51 2066.63 1657.48 1913.65 1655.51 2076.25"/>
        <path class="cls-25" d="m1681.24,1308.05l3.91-8.62-3.91,8.62Z"/>
        <path class="cls-25" d="m1685.15,1299.43l9.47-16.03-9.47,16.03Z"/>
        <path class="cls-25" d="m1694.62,1283.4l11.11-15.06-11.11,15.06Z"/>
        <path class="cls-25" d="m1705.73,1268.34l12.87-14.14-12.87,14.14Z"/>
        <path class="cls-25" d="m1718.6,1254.2l13.31-11.94-13.31,11.94Z"/>
        <path class="cls-25" d="m1731.91,1242.26l15.36-11.21-15.36,11.21Z"/>
        <path class="cls-25" d="m1747.26,1231.05l15.76-9.21-15.76,9.21Z"/>
        <path class="cls-25" d="m1763.02,1221.85l19.37-8.68-19.37,8.68Z"/>
        <path class="cls-25" d="m1782.39,1213.17l16.65-5.43-16.65,5.43Z"/>
        <path class="cls-25" d="m1799.04,1207.73l15.98-3.62-15.98,3.62Z"/>
        <polygon class="cls-25" points="2256.87 2078.29 2255.42 1936.12 2256.87 2049.05 2256.87 2078.29"/>
        <polygon class="cls-25" points="2256.87 2078.29 2256.87 2049.05 2257.11 2067.48 2256.87 2078.29"/>
        <polygon class="cls-19" points="1681.24 2359.4 1681.24 2115.32 1671.24 2108.17 1666.84 2103.56 1661.22 2095.25 1657.48 2086.28 1655.51 2076.25 1655.5 2067.48 1664.23 1388.12 1666.88 1353.26 1671.88 1332.02 1676.58 1318.3 1685.15 1299.43 1694.62 1283.4 1705.73 1268.34 1718.6 1254.2 1731.91 1242.26 1747.26 1231.05 1763.02 1221.85 1782.39 1213.17 1799.04 1207.73 1815.02 1204.11 2097.6 1204.11 2114.78 1208.07 2130.27 1213.19 2152.15 1223.2 2165.73 1231.3 2182.81 1244 2194.41 1254.59 2206.89 1268.34 2216.65 1281.4 2228.82 1302.06 2235.32 1316.5 2242 1336.47 2245.46 1351.74 2247.89 1370.68 2248.39 1388.12 2257.11 2067.48 2256.87 2078.29 2255.42 2085.3 2251.4 2095.25 2246 2103.29 2238.97 2110.25 2231.38 2115.32 2231.38 2359.4 1681.24 2359.4 1681.24 2359.4 1681.24 2359.4"/>
      </g>
      <path class="cls-26" d="m2231.38,2359.4v-244.08c0-26.96-21.86-48.82-48.82-48.82h-452.51c-26.96,0-48.81,21.86-48.81,48.82v244.08h550.14Z"/>
      <path class="cls-19" d="m1705.65,2359.4v-244.08c0-13.48,10.93-24.41,24.41-24.41h452.51c13.48,0,24.41,10.93,24.41,24.41v244.08h-501.32Z"/>
      <g id="CIRCLE">
        <path class="cls-3" d="m1956.31,2265.02c-24.27,0-43.93-19.67-43.93-43.93s19.67-43.93,43.93-43.93,43.93,19.67,43.93,43.93-19.67,43.93-43.93,43.93h0Z"/>
      </g>
      <path class="cls-25" d="m1956.31,1253.7c24.25-.04,48.47,1.56,72.51,4.77,56.41,9.13,103.23,48.51,121.89,102.52,19.52,102.54,19.88,207.8,1.07,310.47-14.41,46.77-51.26,83.23-98.17,97.16-31.85,7.69-64.55,11.27-97.3,10.68-32.76.6-65.46-2.99-97.3-10.68-46.91-13.93-83.75-50.39-98.17-97.16-18.81-102.67-18.45-207.93,1.07-310.47,18.66-54.01,65.49-93.39,121.89-102.52,24.04-3.21,48.26-4.8,72.51-4.77Z"/>
      <path class="cls-9" d="m1956.32,1253.71c24.24-.03,48.47,1.55,72.51,4.77,46.88,7.58,87.12,36.06,110.09,76.45-23.62-29.08-57.44-49.12-95.63-55.31-24.03-3.2-48.26-4.8-72.51-4.75-24.24-.05-48.47,1.55-72.51,4.75-56.41,9.13-103.25,48.52-121.89,102.53-19.53,102.53-19.88,207.81-1.07,310.47,3.09,10.04,7.22,19.59,12.25,28.56-11.88-14.47-21.04-31.29-26.72-49.71-18.81-102.66-18.45-207.92,1.06-310.47,18.66-54,65.49-93.38,121.89-102.51,24.05-3.22,48.26-4.8,72.52-4.77Z"/>
      <path class="cls-3" d="m1956.31,1621.85c7.34-.02,14.64,1.12,21.64,3.35,23.51,5.6,43.09,21.82,52.92,43.92,9.42,32.98,14.22,67.14,14.24,101.44-29.14,6.35-58.95,9.28-88.79,8.74-29.84.54-59.65-2.39-88.8-8.74.02-34.3,4.82-68.46,14.24-101.44,9.83-22.1,29.4-38.32,52.92-43.92,7-2.23,14.3-3.37,21.64-3.35Z"/>
      <rect class="cls-20" x="1875.81" y="1195.31" width="7.4" height=".2"/>
      <rect class="cls-20" x="1698.22" y="1195.31" width="7.4" height=".2"/>
      <g id="CIRCLE-2" data-name="CIRCLE">
        <path class="cls-28" d="m1956.31,2256.89c-19.77,0-35.8-16.03-35.8-35.8s16.03-35.8,35.8-35.8,35.8,16.03,35.8,35.8-16.03,35.8-35.8,35.8h0Z"/>
      </g>
    </g>
    <path class="cls-9" d="m1382.86,2274.89h76.23v76.88h0c-5.88.38-11.74.95-17.58,1.71-.65.08-1.13.64-1.13,1.29v15.29s73.22,0,73.22,0v-15.29c0-.65-.48-1.21-1.13-1.29-5.84-.76-11.7-1.33-17.58-1.71v-76.88h76.9v-45.67h-188.91v45.67Z"/>
    <g>
      <rect class="cls-26" x="1450.26" y="2242.12" width="35.8" height="104.49"/>
      <path class="cls-25" d="m1432.68,2342.57c5.84-.76,11.7-1.33,17.58-1.71h35.8c5.88.39,11.74.96,17.58,1.71.65.08,1.13.64,1.13,1.29v15.29s-73.23,0-73.23,0v-15.29c0-.65.49-1.21,1.14-1.29Z"/>
      <rect class="cls-19" x="1445.66" y="2146.69" width="45.67" height="188.91" transform="translate(-772.66 3709.65) rotate(-90)"/>
    </g>
    <g>
      <g class="cls-8">
        <path class="cls-20" d="m2424.98,2075.43v11.38s.12,0,.12,0c-.07.39-.12.78-.12,1.19v52.46s5.03,58.42,5.03,58.42h-.1l-7.37,1.76c-2.84,1.68-4.48,4.83-4.23,8.13.42,21.91,4.43,43.6,11.86,64.21h5.32l.35,5.65h-15.75v82.1s-16.1,2.47-16.1,2.47h0v2.78h71.37s16.26,0,16.26,0h0s16.09,0,16.09,0v-2.78s-.02,0-.02,0l-16.07-2.47v-82.1s-15.75,0-15.75,0l.35-5.66h5.32c7.44-20.61,11.45-42.3,11.87-64.21.25-3.29-1.38-6.45-4.23-8.13l-7.37-1.76h-.1l5.04-58.42v-53.65s0,1.19,0,1.19c0-.41-.05-.8-.12-1.19h.12v-11.38c0-3.59-2.91-6.5-6.5-6.5h-48.77c-3.59,0-6.5,2.91-6.5,6.5Z"/>
      </g>
      <path class="cls-19" d="m2413.59,2080.22v-11.38c0-3.59,2.91-6.5,6.5-6.5h48.77c3.59,0,6.5,2.91,6.5,6.51v11.38h-61.78Z"/>
      <path class="cls-28" d="m2418.51,2192.29l-7.37,1.76c-2.84,1.68-4.48,4.83-4.23,8.13.42,21.91,4.43,43.6,11.86,64.21h46.17s5.2,0,5.2,0c7.44-20.61,11.45-42.3,11.87-64.21.25-3.29-1.38-6.45-4.23-8.13l-7.37-1.76h-51.91Z"/>
      <g id="LINE">
        <rect class="cls-20" x="2413.59" y="2128.18" width="61.78" height="1.63"/>
      </g>
      <polygon class="cls-25" points="2463.97 2280.18 2467.23 2228.16 2421.71 2228.16 2424.96 2280.18 2463.97 2280.18"/>
      <path class="cls-26" d="m2467.23,2228.16l8.13-94.29v-53.65s0,1.19,0,1.19c0-3.59-2.91-6.5-6.5-6.5h-48.77c-3.59,0-6.5,2.91-6.5,6.5v-1.19,53.65s8.12,94.29,8.12,94.29h45.52Z"/>
      <g id="LINE-2" data-name="LINE">
        <polygon class="cls-20" points="2464.95 2265.59 2464.95 2267.21 2464.91 2265.59 2464.95 2265.59"/>
      </g>
      <rect class="cls-26" x="2392.6" y="2356.62" width="103.72" height="2.78"/>
      <polygon class="cls-26" points="2392.6 2356.62 2423.33 2351.91 2465.59 2351.91 2496.32 2356.63 2392.6 2356.62"/>
      <rect class="cls-19" x="2463.97" y="2272.06" width="16.26" height="87.35"/>
      <rect class="cls-19" x="2408.7" y="2272.05" width="16.26" height="87.35"/>
      <rect class="cls-26" x="2424.95" y="2280.18" width="39.02" height="34.14"/>
      <rect class="cls-25" x="2425.67" y="2313.61" width="37.59" height="39.02" transform="translate(111.35 4777.58) rotate(-90)"/>
    </g>
    <g>
      <g id="LWPOLYLINE-17" data-name="LWPOLYLINE" class="cls-8">
        <path class="cls-20" d="m248.45,2359.4v-663.08c0-8.99,7.29-16.27,16.27-16.27h862.4c8.99,0,16.27,7.29,16.27,16.27v663.08H248.45Z"/>
      </g>
      <g id="LWPOLYLINE-18" data-name="LWPOLYLINE">
        <path class="cls-26" d="m207.1,2359.16v-699.45c0-8.99,7.29-16.27,16.27-16.27h862.4c8.99,0,16.27,7.28,16.27,16.27v699.45H207.1Z"/>
      </g>
      <g id="LWPOLYLINE-19" data-name="LWPOLYLINE">
        <rect class="cls-19" x="207.1" y="2229.23" width="894.95" height="130.17"/>
      </g>
      <g id="LWPOLYLINE-20" data-name="LWPOLYLINE">
        <path class="cls-25" d="m255.91,2229.23h797.32v-512.56c0-4.49-3.64-8.14-8.14-8.14H264.05c-4.49,0-8.14,3.64-8.14,8.14v512.56Z"/>
      </g>
      <g id="LWPOLYLINE-21" data-name="LWPOLYLINE" class="cls-8">
        <path class="cls-20" d="m264.05,1708.53h781.04c4.49,0,8.14,3.65,8.14,8.14v14.64H280.32c-4.49,0-8.13,3.65-8.13,8.14v489.78h-16.27v-512.56c0-4.49,3.64-8.14,8.14-8.14Z"/>
      </g>
      <g>
        <circle class="cls-5" cx="654.56" cy="2066.37" r="69.04" transform="translate(-432.13 190.89) rotate(-12.51)"/>
        <path class="cls-30" d="m654.56,2025.01c22.84,0,41.36,18.52,41.36,41.36s-18.52,41.36-41.36,41.36-41.36-18.52-41.36-41.36,18.52-41.36,41.36-41.36Z"/>
      </g>
      <path class="cls-9" d="m643.81,2131.27c0,.24,0,.48.01.71v141.62c-13.41,5.92-23.48,17.99-26.62,32.64h-2.68c-.45,0-.81.36-.81.81v17.9c0,.45.36.81.81.81h2.68c3.81,17.76,17.79,31.74,35.56,35.55v2.69c0,.45.36.81.81.81h17.9c.45,0,.81-.36.81-.81v-2.7c17.75-3.81,31.72-17.79,35.53-35.54h2.71c.45,0,.81-.36.81-.81v-17.9c0-.45-.37-.81-.81-.81h-2.71c-3.14-14.64-13.2-26.71-26.58-32.63v-141.63c.38-10.33-7.67-19.02-17.99-19.41-.24,0-.48-.01-.71-.01-10.34,0-18.71,8.38-18.71,18.71Z"/>
      <g>
        <path class="cls-24" d="m654.56,2264.24c-25.6,0-46.34,20.75-46.34,46.35s20.75,46.34,46.34,46.34,46.34-20.75,46.34-46.34-20.75-46.35-46.34-46.35Z"/>
        <path class="cls-24" d="m635.86,2288.24v-161.68c0-.24,0-.48,0-.71,0-10.34,8.38-18.71,18.71-18.71.24,0,.48,0,.71.01,10.33.39,18.38,9.09,17.99,19.41v161.68s-37.41,0-37.41,0Z"/>
        <path class="cls-24" d="m635.86,2290.66v-154.49c0-.24,0-.47,0-.71,0-10.34,8.38-18.71,18.71-18.71.24,0,.48,0,.71.01,10.33.39,18.38,9.09,17.99,19.41v154.49s-37.41,0-37.41,0Z"/>
        <path class="cls-24" d="m654.56,2278.68c17.62,0,31.9,14.28,31.9,31.9s-14.28,31.9-31.9,31.9-31.9-14.28-31.9-31.9,14.28-31.9,31.9-31.9Z"/>
        <g>
          <path class="cls-24" d="m644.81,2358.59v-34.98c0-1.8-1.46-3.25-3.25-3.25h-34.98c-.45,0-.81-.37-.81-.81v-17.9c0-.45.36-.81.81-.81h34.98c1.8,0,3.25-1.46,3.25-3.25v-34.98c0-.45.36-.81.81-.81h17.9c.45,0,.81.36.81.81v34.98c0,1.8,1.46,3.25,3.25,3.25h34.98c.45,0,.81.36.81.81v17.9c0,.45-.36.81-.81.81h-34.98c-1.8,0-3.25,1.46-3.25,3.25v34.98c0,.45-.37.81-.81.81h-17.9c-.45,0-.81-.37-.81-.81Z"/>
          <g class="cls-23">
            <path class="cls-24" d="m700.76,2317.71h-34.98c-1.8,0-3.25,1.46-3.25,3.25v34.98c0,.45-.36.81-.81.81l-16.9,1.83c0,.45.36.81.81.81h17.9c.45,0,.81-.37.81-.81v-34.98c0-1.8,1.46-3.25,3.25-3.25h34.98c.45,0,.81-.37.81-.81v-17.9c0-.45-.36-.81-.81-.81l-1,16.07c0,.45-.36.81-.81.81Z"/>
            <path class="cls-24" d="m664.36,2297.84c0-.09-.03-.18-.03-.27v-34.98c0-.45-.37-.81-.81-.81h-1s.75,35.54,1.84,36.07Z"/>
            <path class="cls-24" d="m605.75,2317.71v1.83c0,.45.36.81.81.81h34.98c.51,0,.98.13,1.41.33-.14-1.67-37.21-2.98-37.21-2.98Z"/>
          </g>
          <g class="cls-8">
            <path class="cls-24" d="m644.78,2323.33c0,.09.03.18.03.28v34.98c0,.45.36.81.81.81,0,0,.24-35.55-.84-36.07Z"/>
            <path class="cls-24" d="m703.38,2301.64c0-.45-.36-.81-.81-.81h-34.98c-.51,0-.98-.13-1.41-.34.14,1.67,37.21,1.15,37.21,1.15Z"/>
            <path class="cls-24" d="m644.81,2262.58v34.98c0,1.8-1.46,3.25-3.25,3.25h-34.98c-.45,0-.81.36-.81.81v17.9c0,.45,1.81-15.25,1.81-15.25,0-.45.36-.81.81-.81h34.98c1.8,0,3.25-1.46,3.25-3.25v-34.98c0-.45.36-.81.81-.81,0,0,16.54-2.64,16.09-2.64h-17.9c-.45,0-.81.36-.81.81Z"/>
          </g>
        </g>
      </g>
    </g>
    <g id="LWPOLYLINE-22" data-name="LWPOLYLINE">
      <rect class="cls-12" x="3.7" y="2359.4" width="2603.48" height="162.72"/>
    </g>
    <g>
      <path class="cls-5" d="m2825.54,321.5l-48.32,48.32c-1.59,1.59-1.59,4.16,0,5.75l512.01,512.01c1.59,1.59,4.16,1.59,5.75,0l48.32-48.32,28.76,28.76-65.58,65.58c-7.94,7.94-20.82,7.94-28.76,0l-546.53-546.53c-7.94-7.94-7.94-20.82,0-28.76l65.58-65.58,28.76,28.76Z"/>
      <g id="LWPOLYLINE-23" data-name="LWPOLYLINE">
        <path class="cls-5" d="m3416.36,766.2c7.94-7.94,20.82-7.94,28.76,0,7.94,7.94,7.94,20.82,0,28.77l-54.65,54.65-28.76-28.76,54.65-54.65h0Z"/>
      </g>
      <g id="LWPOLYLINE-24" data-name="LWPOLYLINE">
        <rect class="cls-5" x="2827.18" y="262.61" width="16.27" height="40.68" transform="translate(630.48 2087.88) rotate(-45)"/>
      </g>
      <g id="LWPOLYLINE-25" data-name="LWPOLYLINE" class="cls-11">
        <rect class="cls-19" x="2680.4" y="1301.74" width="16.27" height="488.15"/>
      </g>
      <g id="ARC-2" data-name="ARC">
        <path class="cls-3" d="m3504.7,970.74c-22.94,22.93-47.14,45.14-71.92,66.02l-4.77-5.66c24.63-20.74,48.67-42.81,71.46-65.59l5.23,5.23Zm-103.58,91.73c-32.01,25.06-65.74,48.67-100.24,70.16l-3.92-6.28c34.28-21.36,67.79-44.81,99.59-69.71l4.56,5.83Zm-135.25,91.11c-35.24,20.25-71.98,38.81-109.21,55.19l-2.98-6.78c36.98-16.27,73.49-34.72,108.5-54.83l3.69,6.42Zm-146.85,70.95c-37.78,15.03-76.8,28.19-115.96,39.1l-1.99-7.13c38.91-10.84,77.67-23.91,115.21-38.84l2.74,6.88Zm-155.46,49.35c-39.54,9.51-80.03,16.98-120.35,22.2l-.95-7.34c40.06-5.19,80.29-12.61,119.57-22.06l1.73,7.2Zm-160.92,26.72c-35.21,3.29-70.99,4.96-106.36,4.96-5.3,0-10.66-.04-15.93-.11l.1-7.4c5.24.07,10.56.11,15.83.11,35.14,0,70.69-1.66,105.67-4.92l.69,7.37Z"/>
      </g>
      <g id="LWPOLYLINE-26" data-name="LWPOLYLINE" class="cls-11">
        <rect class="cls-19" x="3085.49" y="1.66" width="16.27" height="1139.02" transform="translate(502.22 2354.82) rotate(-45)"/>
      </g>
      <g id="LWPOLYLINE-27" data-name="LWPOLYLINE">
        <rect class="cls-25" x="2825.4" y="257.89" width="4.88" height="65.09" transform="translate(622.65 2084.36) rotate(-44.99)"/>
      </g>
      <g id="LWPOLYLINE-28" data-name="LWPOLYLINE">
        <rect class="cls-25" x="2810.44" y="272.85" width="4.88" height="65.09" transform="translate(607.93 2078.45) rotate(-45)"/>
      </g>
      <g id="LWPOLYLINE-29" data-name="LWPOLYLINE">
        <rect class="cls-25" x="3371.93" y="804.42" width="4.88" height="65.09" transform="translate(396.01 2630.36) rotate(-44.98)"/>
      </g>
      <g id="LWPOLYLINE-30" data-name="LWPOLYLINE">
        <rect class="cls-25" x="3356.97" y="819.37" width="4.88" height="65.09" transform="translate(381.68 2625.2) rotate(-45)"/>
      </g>
    </g>
  </g>
</svg>