<?xml version="1.0" encoding="UTF-8"?>
<svg xmlns="http://www.w3.org/2000/svg" xmlns:xlink="http://www.w3.org/1999/xlink" viewBox="0 0 149.53 157.9">
  <defs>
    <style>
      .cls-1 {
        fill: url(#linear-gradient-2);
      }

      .cls-2 {
        fill: #555;
      }

      .cls-3, .cls-4 {
        fill: #fff;
      }

      .cls-5, .cls-6 {
        fill: #ddd3cc;
        mix-blend-mode: multiply;
      }

      .cls-7, .cls-4, .cls-8, .cls-6, .cls-9 {
        fill-rule: evenodd;
      }

      .cls-7, .cls-10 {
        fill: #b3b6ba;
      }

      .cls-11 {
        isolation: isolate;
      }

      .cls-12 {
        fill: #e5576f;
      }

      .cls-13 {
        fill: #d6d8d8;
      }

      .cls-8 {
        fill: #d2d6d8;
      }

      .cls-14 {
        fill: #2a2a2a;
      }

      .cls-9, .cls-15 {
        fill: #e3e7e8;
      }

      .cls-16 {
        fill: url(#Earthtone_21-2);
      }

      .cls-17 {
        fill: #f9ddcf;
        opacity: .5;
      }

      .cls-18 {
        clip-path: url(#clippath);
      }

      .cls-19 {
        fill: none;
      }

      .cls-20 {
        fill: #373737;
      }

      .cls-21 {
        fill: #999;
      }

      .cls-22 {
        fill: url(#Earthtone_21);
      }

      .cls-23 {
        fill: url(#linear-gradient-3);
      }

      .cls-24 {
        fill: url(#linear-gradient);
      }

      .cls-25 {
        fill: url(#linear-gradient-4);
      }

      .cls-26 {
        fill: #888;
      }
    </style>
    <clipPath id="clippath">
      <rect class="cls-19" x="47.22" y="0" width="99.31" height="157.9"/>
    </clipPath>
    <linearGradient id="Earthtone_21" data-name="Earthtone 21" x1="346.58" y1="-241.25" x2="229.63" y2="-113.37" gradientTransform="translate(-49.18 -190.44) rotate(90)" gradientUnits="userSpaceOnUse">
      <stop offset="0" stop-color="#b85e42"/>
      <stop offset=".5" stop-color="#9f2214"/>
      <stop offset="1" stop-color="#700101"/>
    </linearGradient>
    <linearGradient id="Earthtone_21-2" data-name="Earthtone 21" x1="384.2" y1="-210.15" x2="267.25" y2="-82.26" xlink:href="#Earthtone_21"/>
    <linearGradient id="linear-gradient" x1="242.53" y1="16.35" x2="242.53" y2="-6.35" gradientTransform="translate(60.25 319.55) rotate(-90)" gradientUnits="userSpaceOnUse">
      <stop offset="0" stop-color="#bfbfbf"/>
      <stop offset="1" stop-color="#aaa"/>
    </linearGradient>
    <linearGradient id="linear-gradient-2" x1="242.53" y1="13.44" x2="242.53" y2="-3.43" gradientTransform="translate(60.25 319.55) rotate(-90)" gradientUnits="userSpaceOnUse">
      <stop offset="0" stop-color="#dadada"/>
      <stop offset="1" stop-color="#cacaca"/>
    </linearGradient>
    <linearGradient id="linear-gradient-3" x1="151.09" y1="42.58" x2="152.09" y2="145.29" gradientTransform="translate(177.32 -19.43) rotate(90)" gradientUnits="userSpaceOnUse">
      <stop offset="0" stop-color="#dcdcdc"/>
      <stop offset="1" stop-color="#aaa"/>
    </linearGradient>
    <linearGradient id="linear-gradient-4" x1="151.55" y1="47.18" x2="151.55" y2="117.73" gradientTransform="translate(177.32 -19.43) rotate(90)" gradientUnits="userSpaceOnUse">
      <stop offset="0" stop-color="#e8e8e8"/>
      <stop offset="1" stop-color="#d5d5d5"/>
    </linearGradient>
  </defs>
  <g class="cls-11">
    <g id="Layer_1" data-name="Layer 1">
      <g class="cls-18">
        <g>
          <rect class="cls-22" x="72.25" y="2.2" width="72.79" height="155.29"/>
          <path class="cls-17" d="m144.99,131.68v-.58s0-25.21,0-25.21v-.58s0-25.21,0-25.21v-.57s0-25.21,0-25.21v-.58s0-25.21,0-25.21v-.58s0-25.79,0-25.79h-24.07s-.54,0-.54,0h-23.52s-.54,0-.54,0h-24.07s0,25.79,0,25.79v.58s0,25.21,0,25.21v.58s0,25.21,0,25.21v.57s0,25.21,0,25.21v.58s0,25.21,0,25.21v.58s0,25.78,0,25.78h24.07s.54,0,.54,0h23.52s.54,0,.54,0h24.07s0-25.78,0-25.78ZM96.86,28.54h23.52v25.2h-23.52v-25.2Zm0,25.79h23.52v25.2h-23.52v-25.2Zm0,25.78h23.52v25.2h-23.52v-25.2Zm0,25.79h23.52v25.2h-23.52v-25.2Zm47.59,25.2h-23.53v-25.2h23.53v25.2Zm0-25.79h-23.53v-25.2h23.53v25.2Zm0-25.79h-23.53v-25.2h23.53v25.2Zm0-25.79h-23.53v-25.2h23.53v25.2Zm0-50.99v25.21h-23.53V2.75h23.53Zm-24.07,0v25.21h-23.52V2.75h23.52Zm-47.59,0h23.53v25.21h-23.53V2.75Zm0,25.79h23.53v25.2h-23.53v-25.2Zm0,25.79h23.53v25.2h-23.53v-25.2Zm0,25.78h23.53v25.2h-23.53v-25.2Zm0,25.79h23.53v25.2h-23.53v-25.2Zm0,50.99v-25.2h23.53v25.2h-23.53Zm24.07,0v-25.2h23.52v25.2h-23.52Zm24.06-25.2h23.53v25.2h-23.53v-25.2Z"/>
          <rect class="cls-16" x="0" y="2.2" width="72.79" height="155.29"/>
          <path class="cls-17" d="m72.75,131.68v-.58s0-25.21,0-25.21v-.58s0-25.21,0-25.21v-.57s0-25.21,0-25.21v-.58s0-25.21,0-25.21v-.58s0-25.79,0-25.79h-24.07s-.54,0-.54,0h-23.52s-.54,0-.54,0H0s0,25.79,0,25.79v.58s0,25.21,0,25.21v.58s0,25.21,0,25.21v.57s0,25.21,0,25.21v.58s0,25.21,0,25.21v.58S0,157.46,0,157.46h24.07s.54,0,.54,0h23.52s.54,0,.54,0h24.07s0-25.78,0-25.78ZM24.61,28.54h23.52v25.2h-23.52v-25.2Zm0,25.79h23.52v25.2h-23.52v-25.2Zm0,25.78h23.52v25.2h-23.52v-25.2Zm0,25.79h23.52v25.2h-23.52v-25.2Zm47.59,25.2h-23.53v-25.2h23.53v25.2Zm0-25.79h-23.53v-25.2h23.53v25.2Zm0-25.79h-23.53v-25.2h23.53v25.2Zm0-25.79h-23.53v-25.2h23.53v25.2Zm0-50.99v25.21h-23.53V2.75h23.53Zm-24.07,0v25.21h-23.52V2.75h23.52Zm-47.59,0h23.53v25.21H.54V2.75Zm0,25.79h23.53v25.2H.54v-25.2Zm0,25.79h23.53v25.2H.54v-25.2Zm0,25.78h23.53v25.2H.54v-25.2Zm0,25.79h23.53v25.2H.54v-25.2Zm0,50.99v-25.2h23.53v25.2H.54Zm24.07,0v-25.2h23.52v25.2h-23.52Zm24.06-25.2h23.53v25.2h-23.53v-25.2Z"/>
        </g>
      </g>
      <path class="cls-6" d="m138.9,39.3V10.13c0-3.3-.52-3.86-3.62-3.86h-32.47c-3.1,0-3.63.55-3.63,3.86v29.17c0,3.3.53,3.86,3.63,3.86h32.47c3.1,0,3.62-.55,3.62-3.86Z"/>
      <path class="cls-6" d="m140.58,37.51V8.34c0-3.3-.52-3.86-3.62-3.86h-32.47c-3.1,0-3.62.55-3.62,3.86v29.17c0,3.3.52,3.86,3.62,3.86h32.47c3.1,0,3.62-.55,3.62-3.86Z"/>
      <path class="cls-5" d="m93.07,32.1l1.09-14.46c0-1.34-.79-2.48-1.9-2.95,1.44-.99,2.41-2.71,2.41-4.67,0-.22-.04-.43-.06-.64.02-.21.06-.42.06-.64v-3.95s0-.08,0-.08v-.09c0-.48-.36-.86-.81-.86h-.08s-22.07,0-22.07,0h-.08c-.45,0-.81.39-.81.86v.17s0,3.95,0,3.95c0,.22.04.43.06.64-.02.21-.06.42-.06.64,0,1.95.97,3.67,2.41,4.67-1.11.46-1.9,1.61-1.9,2.95l1.09,14.46c.63,6.71,4.05,11,10.33,11s9.68-4.29,10.33-11Z"/>
      <path class="cls-5" d="m94.66,31.21l1.09-14.46c0-1.34-.79-2.48-1.9-2.95,1.44-.99,2.41-2.71,2.41-4.67,0-.22-.04-.43-.06-.64.02-.21.06-.42.06-.64v-3.95s0-.08,0-.08v-.09c0-.48-.36-.86-.81-.86h-.08s-22.07,0-22.07,0h-.08c-.45,0-.81.39-.81.86v.17s0,3.95,0,3.95c0,.22.04.43.06.64-.02.21-.06.42-.06.64,0,1.95.97,3.67,2.41,4.67-1.11.46-1.9,1.61-1.9,2.95l1.09,14.46c.63,6.71,4.05,11,10.33,11s9.68-4.29,10.33-11Z"/>
      <path class="cls-6" d="m66.24,13.08c.79-.4,1.33-1.23,1.33-2.21s-.55-1.82-1.33-2.21v-4.52s-2.69,0-2.69,0h-12.41s0,46.13,0,46.13h12.41s2.69,0,2.69,0V13.08Z"/>
      <path class="cls-6" d="m64.23,12.01c.79-.4,1.33-1.23,1.33-2.21s-.55-1.82-1.33-2.21V3.06s-2.69,0-2.69,0h-12.41s0,46.13,0,46.13h12.41s2.69,0,2.69,0V12.01Z"/>
      <g>
        <path class="cls-15" d="m63.88,8.9c0,1.36-1.03,2.47-2.33,2.47s-2.31-1.1-2.31-2.47,1.04-2.47,2.31-2.47,2.33,1.11,2.33,2.47Z"/>
        <g>
          <rect class="cls-15" x="47.45" y="2.17" width="15.1" height="46.13"/>
          <rect class="cls-12" x="47.45" y="2.17" width="12.41" height="46.13"/>
        </g>
      </g>
      <path class="cls-5" d="m77.03,100.74c5.16-15.62,5.16-28.59,0-44.21-.09-.27-.73-1.78-1.84-1.78h-23.23c-1.56,0-1.87,1.62-1.87,1.99v43.77c0,.37.31,1.99,1.87,1.99h23.23c1.13,0,1.75-1.5,1.84-1.77Z"/>
      <path class="cls-5" d="m75.65,100.21c5.16-15.62,5.16-28.59,0-44.21-.09-.27-.73-1.78-1.84-1.78h-23.23c-1.56,0-1.87,1.62-1.87,1.99v43.77c0,.37.31,1.99,1.87,1.99h23.23c1.13,0,1.75-1.5,1.84-1.77Z"/>
      <g>
        <path class="cls-3" d="m74.85,54.92c5.16,15.62,5.16,28.59,0,44.21-.09.27-.71,1.77-1.84,1.77h-23.23c-1.56,0-1.87-1.62-1.87-1.99v-43.77c0-.37.32-1.99,1.87-1.99h23.23c1.11,0,1.75,1.5,1.84,1.78Z"/>
        <g>
          <path class="cls-24" d="m73.27,58.14c4.45,13.48,4.45,24.31,0,37.78-.08.23-.53,1.71-1.76,1.71h-17.6v-41.21h17.6c1.07,0,1.68,1.48,1.76,1.71Z"/>
          <path class="cls-1" d="m71.21,60.57c3.31,10.97,3.31,21.95,0,32.92-.06.19-.21.32-.39.32h-14.01v-33.56h14.01c.17,0,.33.13.39.32Z"/>
          <path class="cls-20" d="m60.3,74.59c1.26,0,2.29,1.09,2.29,2.44s-1.03,2.44-2.29,2.44-2.29-1.09-2.29-2.44,1.02-2.44,2.29-2.44Z"/>
        </g>
        <g>
          <path class="cls-2" d="m57.61,75.82c.6,0,1.08.54,1.08,1.21h0c0,.67-.49,1.21-1.08,1.21h-3.83c-.6,0-1.08-.54-1.08-1.21h0c0-.67.49-1.21,1.08-1.21h3.83Z"/>
          <path class="cls-21" d="m57.48,75.96c.56,0,1.01.48,1.01,1.07h0c0,.59-.45,1.07-1.01,1.07h-3.57c-.56,0-1.01-.48-1.01-1.07h0c0-.59.45-1.07,1.01-1.07h3.57Z"/>
          <path class="cls-2" d="m51.82,74.8c1.19,0,2.15,1.03,2.15,2.29s-.96,2.29-2.15,2.29-2.15-1.03-2.15-2.29.97-2.29,2.15-2.29Z"/>
          <path class="cls-21" d="m51.82,75.5c.83,0,1.5.72,1.5,1.6s-.67,1.6-1.5,1.6-1.5-.72-1.5-1.6.67-1.6,1.5-1.6Z"/>
        </g>
      </g>
      <rect class="cls-5" x="47.54" y="101.25" width="95.23" height="51.14"/>
      <rect class="cls-5" x="47.54" y="104.81" width="95.23" height="51.14"/>
      <g>
        <rect class="cls-3" x="69.59" y="84.5" width="51.14" height="95.23" transform="translate(227.28 36.96) rotate(90)"/>
        <path class="cls-23" d="m51.92,151.18v-38.12c0-2.07,1.57-3.74,3.51-3.74h64.48c6.74,0,18.49,7.1,18.49,19.09v7.11c0,13.93-13.91,19.4-18.49,19.4H55.43c-1.94,0-3.51-1.67-3.51-3.74Z"/>
        <path class="cls-25" d="m59.59,143.73v-23.22c0-2.06,1.57-3.74,3.51-3.74h53.92c5.69,0,13.11,5.79,13.11,15.4v-.04c0,9.37-8.48,15.34-13.11,15.34h-53.92c-1.94,0-3.51-1.67-3.51-3.74Z"/>
        <path class="cls-14" d="m67.85,134.85c-1.42,0-2.57-1.22-2.57-2.73s1.15-2.73,2.57-2.73,2.56,1.22,2.56,2.73-1.15,2.73-2.56,2.73Z"/>
      </g>
      <g>
        <g>
          <rect class="cls-3" x="145.44" y="48.76" width="3.76" height="4"/>
          <path class="cls-3" d="m145.12,53.11v-4.7h4.41v4.7h-4.41Zm.66-4v3.3s3.1,0,3.1,0v-3.3s-3.1,0-3.1,0Z"/>
        </g>
        <g>
          <rect class="cls-3" x="145.44" y="98.86" width="3.76" height="4"/>
          <path class="cls-3" d="m145.12,103.21v-4.7h4.41s0,4.7,0,4.7h-4.41Zm.66-4v3.3s3.1,0,3.1,0v-3.3s-3.1,0-3.1,0Z"/>
        </g>
        <g>
          <path class="cls-3" d="m106.26,91.25c1.49-9.74,6.02-18.89,12.77-25.75,7.34-7.47,16.6-11.63,26.79-12.02v.23c-22.18.85-36.58,19.55-39.34,37.58l-.22-.04Z"/>
          <polygon class="cls-3" points="105.98 94.64 108.37 90.13 106.41 91.01 104.72 89.64 105.98 94.64"/>
        </g>
        <g>
          <path class="cls-3" d="m105.54,97.35h41.59s0-1.91,0-1.91h-41.59s0,1.91,0,1.91Z"/>
          <path class="cls-3" d="m105,97.93v-3.07h42.68v3.07h-42.68Zm1.1-1.91v.75s40.49,0,40.49,0v-.75s-40.49,0-40.49,0Z"/>
        </g>
      </g>
      <polygon class="cls-6" points="60.1 2.56 47.45 48.3 47.75 2.42 60.1 2.56"/>
      <g>
        <path class="cls-3" d="m94.45,12.86h-16.88c-1.64,0-2.98,1.43-2.98,3.17l1.09,14.46c.63,6.71,4.05,11,10.33,11h0c6.28,0,9.68-4.29,10.33-11l1.09-14.46c0-1.74-1.34-3.17-2.98-3.17Z"/>
        <path class="cls-13" d="m75.98,17.52l1.09,12.82c.87,5.92,3.43,9.52,8.94,9.52h0c5.52,0,8.39-3.75,8.95-9.52l1.09-12.82h-20.06Z"/>
        <path class="cls-10" d="m92.71,2.85h-13.4c-2.87,0-5.23,2.5-5.23,5.57h0c0,3.06,2.35,5.56,5.23,5.56h13.4c2.87,0,5.23-2.5,5.23-5.56h0c0-3.06-2.35-5.57-5.23-5.57Z"/>
        <path class="cls-3" d="m74.53,2.16h22.97c.24,0,.44.2.44.44v7.68c0,1.51-1.23,2.74-2.74,2.74h-18.38c-1.51,0-2.74-1.23-2.74-2.74V2.6c0-.24.2-.44.44-.44Z"/>
        <path class="cls-26" d="m97.13,2.16h-22.24c-.45,0-.81.39-.81.86v.17c0-.48.36-.86.81-.86h22.24c.45,0,.81.39.81.86v-.17c0-.48-.36-.86-.81-.86Z"/>
        <path class="cls-2" d="m87.29,7.59c0,.75-.57,1.36-1.28,1.36s-1.28-.61-1.28-1.36.57-1.36,1.28-1.36,1.28.61,1.28,1.36Z"/>
      </g>
      <g>
        <path class="cls-2" d="m60.01,130.94c.63,0,1.15.57,1.15,1.28h0c0,.71-.51,1.28-1.15,1.28h-8.09c-.63,0-1.15-.57-1.15-1.28h0c0-.71.51-1.28,1.15-1.28h8.09Z"/>
        <path class="cls-21" d="m59.87,131.08c.59,0,1.07.51,1.07,1.14h0c0,.63-.47,1.14-1.07,1.14h-7.81c-.59,0-1.07-.51-1.07-1.14h0c0-.63.48-1.14,1.07-1.14h7.81Z"/>
        <path class="cls-2" d="m49.85,129.86c1.26,0,2.28,1.09,2.28,2.43s-1.02,2.43-2.28,2.43-2.28-1.09-2.28-2.43,1.02-2.43,2.28-2.43Z"/>
        <path class="cls-21" d="m49.85,130.6c.88,0,1.59.76,1.59,1.69s-.71,1.69-1.59,1.69-1.59-.76-1.59-1.69.71-1.69,1.59-1.69Z"/>
      </g>
      <g>
        <path class="cls-8" d="m139.14,39.04h-32.47c-3.1,0-3.63-.55-3.63-3.86V6.01c0-3.3.53-3.86,3.63-3.86h32.47c3.1,0,3.62.55,3.62,3.86v29.17c0,3.3-.52,3.86-3.62,3.86Z"/>
        <path class="cls-7" d="m139.14,38.23c2.68,0,2.86-.19,2.86-3.04V6.01c0-2.85-.18-3.04-2.86-3.04h-32.47c-2.68,0-2.86.19-2.86,3.04v29.17c0,2.85.18,3.04,2.86,3.04h32.47Z"/>
        <path class="cls-4" d="m139.14,37.42c2.26,0,2.1.17,2.1-2.24V6.01c0-2.41.16-2.24-2.1-2.24h-32.47c-2.26,0-2.11-.17-2.11,2.24v29.17c0,2.41-.16,2.24,2.11,2.24h32.47Z"/>
        <path class="cls-9" d="m141.24,6.4v-.39c0-2.41.16-2.24-2.1-2.24h-32.47c-2.26,0-2.11-.17-2.11,2.24v29.17c0,1.77-.07,2.14.77,2.22,8.09-7.03,27.41-23.8,35.91-31Z"/>
      </g>
    </g>
  </g>
</svg>