<?xml version="1.0" encoding="UTF-8"?>
<svg id="Layer_1" data-name="Layer 1" xmlns="http://www.w3.org/2000/svg" viewBox="0 0 587.56 451.97">
  <defs>
    <style>
      .cls-1 {
        fill: #fff;
      }

      .cls-2 {
        fill: #929497;
      }

      .cls-3 {
        fill: #d0d2d3;
      }

      .cls-4 {
        fill: #bbbdbf;
      }

      .cls-5 {
        fill: #eab880;
      }

      .cls-6 {
        fill: #ccc;
      }
    </style>
  </defs>
  <g id="t-paper">
    <path class="cls-4" d="m24.43,180.32h-12.64v-4.79h12.64c.32,0,.59-.21.59-.48v-43.16c0-.26-.27-.48-.59-.48h-13.22v-4.8h13.22c3.57,0,6.47,2.37,6.47,5.28v43.16c0,2.91-2.9,5.27-6.47,5.27Z"/>
    <path class="cls-3" d="m25.63,178.4h-10.29v-.96h10.29c1.32,0,2.4-1.08,2.4-2.4v-43.16c0-1.32-1.08-2.4-2.4-2.4h-10.77v-.96h10.77c1.85,0,3.36,1.51,3.36,3.36v43.16c0,1.85-1.51,3.36-3.36,3.36Z"/>
    <rect class="cls-1" x="16.9" y="138.45" width="23.22" height="30.79"/>
  </g>
  <g>
    <rect class="cls-2" x="8.19" y="402.76" width="7.53" height="4.15"/>
    <path class="cls-2" d="m15.73,406.9c-1.56,0-2.82-1.26-2.82-2.82v-19.26c0-1.56,1.26-2.82,2.82-2.82h0c1.56,0,2.82,1.26,2.82,2.82v19.26c0,1.56-1.26,2.82-2.82,2.82h0Z"/>
    <path class="cls-4" d="m15.73,406.9c-.65,0-1.17-1.21-1.17-2.71v-18.53c0-1.5.52-2.71,1.17-2.71h0c.65,0,1.17,1.21,1.17,2.71v18.53c0,1.5-.52,2.71-1.17,2.71h0Z"/>
  </g>
  <polygon class="cls-5" points="14.37 420.29 8.46 420.29 8.46 269.83 14.37 269.83 14.37 260.15 .02 260.15 .02 429.97 14.37 429.97 14.37 420.29"/>
  <polygon class="cls-6" points="587.56 0 0 0 0 264.55 14.46 264.55 14.46 14.46 573.09 14.46 573.09 437.5 14.46 437.5 14.46 424.85 0 424.85 0 451.97 587.56 451.97 587.56 0"/>
</svg>