<?xml version="1.0" encoding="UTF-8"?>
<svg id="Layer_1" data-name="Layer 1" xmlns="http://www.w3.org/2000/svg" xmlns:xlink="http://www.w3.org/1999/xlink" viewBox="0 0 390 422.61">
  <defs>
    <style>
      .cls-1 {
        fill: #d6d7d8;
      }

      .cls-2 {
        fill: #cfd0d2;
      }

      .cls-3 {
        fill: url(#linear-gradient-2);
      }

      .cls-4 {
        opacity: .3;
      }

      .cls-4, .cls-5, .cls-6, .cls-7, .cls-8, .cls-9 {
        isolation: isolate;
      }

      .cls-4, .cls-10, .cls-9 {
        fill: url(#Alyssa);
      }

      .cls-11, .cls-5 {
        fill: #fff;
      }

      .cls-12 {
        fill: #dddedf;
      }

      .cls-13 {
        fill: #4c4c4c;
      }

      .cls-14 {
        fill: #d1cfcf;
      }

      .cls-15 {
        opacity: .46;
      }

      .cls-16 {
        fill: #c0c1c2;
      }

      .cls-17 {
        fill: #e2e2e2;
      }

      .cls-18 {
        opacity: .24;
      }

      .cls-19 {
        fill: #8d9092;
      }

      .cls-20 {
        fill: #bbb9b9;
      }

      .cls-21 {
        fill: #eff0f0;
      }

      .cls-22 {
        opacity: .41;
      }

      .cls-23 {
        fill: #b4b4b6;
      }

      .cls-5, .cls-7, .cls-8, .cls-24, .cls-9 {
        opacity: .1;
      }

      .cls-6 {
        fill: #48423b;
        opacity: .2;
      }

      .cls-25 {
        fill: #a6d0e4;
      }

      .cls-26 {
        fill: #b0afaf;
      }

      .cls-27 {
        fill: #d1d1d2;
      }

      .cls-28 {
        fill: #b0b2b3;
        stroke: #9a9c9e;
        stroke-miterlimit: 10;
        stroke-width: 1.13px;
      }

      .cls-29 {
        fill: #9b9ca0;
      }

      .cls-30 {
        opacity: .33;
      }

      .cls-7, .cls-31 {
        fill: #e0eea8;
      }

      .cls-8, .cls-32 {
        fill: #cf9;
      }

      .cls-33 {
        fill: #ebebeb;
      }

      .cls-34 {
        fill: none;
      }

      .cls-35 {
        fill: #979594;
      }

      .cls-36 {
        fill: #b6b7b9;
      }

      .cls-37 {
        fill: #9b9c9f;
      }

      .cls-38 {
        opacity: .97;
      }

      .cls-39 {
        fill: #babcbe;
      }

      .cls-40 {
        fill: #ccc;
      }

      .cls-41 {
        opacity: .39;
      }

      .cls-42 {
        fill: #c6dd7f;
      }

      .cls-43 {
        fill: #b3b3b3;
      }

      .cls-44 {
        fill: #d6d5d5;
      }

      .cls-45 {
        fill: url(#linear-gradient-3);
      }

      .cls-46 {
        fill: #dfe2e1;
      }

      .cls-47 {
        fill: url(#linear-gradient);
      }

      .cls-48 {
        fill: #eee;
      }

      .cls-49 {
        fill: url(#linear-gradient-4);
      }

      .cls-50 {
        fill: #f8f9f9;
      }

      .cls-51 {
        fill: #e9ddb7;
      }

      .cls-52 {
        fill: #8a8887;
      }

      .cls-53 {
        fill: #a5a8aa;
      }

      .cls-54 {
        fill: #98999c;
      }

      .cls-55 {
        fill: #cccdd1;
      }
    </style>
    <pattern id="Alyssa" x="0" y="0" width="144.13" height="138.36" patternTransform="translate(-676.07 16474.54)" patternUnits="userSpaceOnUse" viewBox="0 0 144.13 138.36">
      <g>
        <rect class="cls-34" y="0" width="144.13" height="138.36"/>
        <g>
          <rect class="cls-34" y="0" width="144.13" height="138.36"/>
          <g>
            <rect class="cls-34" y="0" width="144.13" height="138.36"/>
            <path class="cls-42" d="m211.07,158.52c-11.76-1.38-19.37.35-22.65,3.11-3.02,2.54-4.96,5.41-2.25,11.93,2.94,7.09,1.53,14.73-5.54,15.91-6.22,1.04-10.89-4.84-11.24-12.28-.24-5.18-1.9-8.3-5.53-7.61s-4.63,5.9-3.63,11.76c1.38,8.13,5.54,11.76,6.23,20.23.49,6.05-2.94,13.66-12.45,15.04-9.3,1.35-15.91-4.32-16.6-10.55-.73-6.59,3.63-10.89,3.11-17.64s-4.01-10.17-5.88-17.29c-2.77-10.55,1.21-19.02,7.78-22.65,14.75-8.15,22.83,3.64,35.97,1.56,10.9-1.73,23.35-18.16,33.03-19.54,8.23-1.17,13.83,4.67,15.04,14.01,1.21,9.34-4.74,15.26-15.39,14.01h0Zm-42.2.52c0-2.29-1.86-4.15-4.15-4.15s-4.15,1.86-4.15,4.15,1.86,4.15,4.15,4.15,4.15-1.86,4.15-4.15Zm49.46-15.39c0-.96-.78-1.73-1.73-1.73s-1.73.77-1.73,1.73.77,1.73,1.73,1.73,1.73-.77,1.73-1.73Z"/>
            <g>
              <path class="cls-51" d="m48.83,139.33c0,7.17,4.59,13.81-1,16.33-8.5,3.83-28-14.33-28-36.17,0-12,8.67-19,17.83-19,12.33,0,18,8.17,18,17.5s-6.83,13.14-6.83,21.33h0Zm-5.41-5.37c0-1.15-.93-2.08-2.07-2.08s-2.08.93-2.08,2.08.93,2.08,2.08,2.08,2.07-.93,2.07-2.08Z"/>
              <path class="cls-25" d="m123.53,162.83c-7.87,2.74-19.44-15.3-17.67-27.02,1.24-8.23,7.12-13.19,13.09-14.22,7.53-1.3,12.9,2.6,13.3,7.24.55,6.31-3.63,7.52-4.22,14.96-.56,7.13,3.69,16.19-4.49,19.03h-.01Zm-3.79-27.51c0-1.43-1.16-2.59-2.59-2.59s-2.59,1.16-2.59,2.59,1.16,2.59,2.59,2.59,2.59-1.16,2.59-2.59Z"/>
              <path class="cls-51" d="m19.39,140.36c0,1.43-1.16,2.59-2.59,2.59s-2.59-1.16-2.59-2.59,1.16-2.59,2.59-2.59,2.59,1.16,2.59,2.59Z"/>
              <path class="cls-25" d="m84.61,132.64c.74,8.1,12.67,7.02,17.9,14.21,10.52,14.47-1.22,46.37-21.63,46.37-11.74,0-24.22-9.72-24.22-29.22,0-15.83,10.17-21.5,8.25-42.17-1.01-10.83-12.5-20.34-12.5-34.75,0-5.92,3.59-13.45,11.55-13.45,7.05,0,10.82,5.95,10.82,12.9s-5.38,15.74,1.37,19.05c5.24,2.57,13.21-4.77,19.5-6.75,5.19-1.64,12.39.22,14.75,8.5,2.53,8.88-3.25,14.75-11.59,16.69-6.32,1.48-14.8,2.17-14.21,8.61h.01Zm-15.98-30.56c0-1.82-1.47-3.29-3.29-3.29s-3.29,1.47-3.29,3.29,1.47,3.29,3.29,3.29,3.29-1.47,3.29-3.29Zm25.98,9.7c1.29,0,2.33-1.04,2.33-2.33s-1.04-2.33-2.33-2.33-2.33,1.04-2.33,2.33,1.04,2.33,2.33,2.33Zm-19.98,59.67c0-1.82-1.47-3.29-3.29-3.29s-3.29,1.47-3.29,3.29,1.47,3.29,3.29,3.29,3.29-1.47,3.29-3.29Z"/>
              <path class="cls-42" d="m66.94,158.52c-11.76-1.38-19.37.35-22.65,3.11-3.02,2.54-4.95,5.41-2.25,11.93,2.94,7.09,1.53,14.73-5.54,15.91-6.22,1.04-10.89-4.84-11.24-12.28-.24-5.18-1.9-8.3-5.53-7.61s-4.63,5.9-3.63,11.76c1.38,8.13,5.54,11.76,6.23,20.23.49,6.05-2.94,13.66-12.45,15.04-9.3,1.35-15.91-4.32-16.6-10.55-.73-6.59,3.63-10.89,3.11-17.64-.52-6.75-4.01-10.17-5.88-17.29-2.77-10.55,1.21-19.02,7.78-22.65,14.75-8.15,22.83,3.64,35.97,1.56,10.9-1.73,23.35-18.16,33.03-19.54,8.23-1.17,13.83,4.67,15.04,14.01s-4.74,15.26-15.39,14.01h0Zm-42.2.52c0-2.29-1.86-4.15-4.15-4.15s-4.15,1.86-4.15,4.15,1.86,4.15,4.15,4.15,4.15-1.86,4.15-4.15Zm49.46-15.39c0-.96-.78-1.73-1.73-1.73s-1.73.77-1.73,1.73.77,1.73,1.73,1.73,1.73-.77,1.73-1.73Z"/>
            </g>
            <g>
              <path class="cls-25" d="m190.32,111.99c0,6.23-4.15,10.72-8.65,11.59s-8.32-1.28-12.97,1.21c-4.84,2.59-7.09,11.07-16.78,11.07-7.96,0-15.22-7.96-15.22-18.85,0-20.23,13.14-29.23,25.59-29.23,16.6,0,28.02,12.62,28.02,24.21h0Zm-19.71-14.35c0-2.1-1.7-3.8-3.8-3.8s-3.8,1.7-3.8,3.8,1.7,3.8,3.8,3.8,3.8-1.7,3.8-3.8Z"/>
              <path class="cls-42" d="m211.07,20.16c-11.76-1.38-19.37.35-22.65,3.11-3.02,2.54-4.96,5.41-2.25,11.93,2.94,7.09,1.53,14.73-5.54,15.91-6.22,1.04-10.89-4.84-11.24-12.28-.24-5.18-1.9-8.3-5.53-7.61s-4.63,5.9-3.63,11.76c1.38,8.13,5.54,11.76,6.23,20.23.49,6.05-2.94,13.66-12.45,15.04-9.3,1.35-15.91-4.32-16.6-10.55-.73-6.59,3.63-10.89,3.11-17.64s-4.01-10.17-5.88-17.29c-2.77-10.55,1.21-19.02,7.78-22.65,14.75-8.15,22.83,3.64,35.97,1.56,10.9-1.73,23.35-18.16,33.03-19.54,8.23-1.17,13.83,4.67,15.04,14.01,1.21,9.34-4.74,15.26-15.39,14.01h0Zm-42.2.52c0-2.29-1.86-4.15-4.15-4.15s-4.15,1.86-4.15,4.15,1.86,4.15,4.15,4.15,4.15-1.86,4.15-4.15Zm49.46-15.39c0-.96-.78-1.73-1.73-1.73s-1.73.77-1.73,1.73.77,1.73,1.73,1.73,1.73-.77,1.73-1.73Z"/>
            </g>
            <g>
              <path class="cls-25" d="m31.83,83.64c-13.96,1.99-21.17-13.33-17.67-20.33,3.67-7.33,12.12-4.17,19.5-4.17,9.67,0,16.37-7.57,20.42-2.25,4.25,5.58-5.01,24.29-22.25,26.75Zm.52-17.48c0-1.24-1.01-2.25-2.25-2.25s-2.25,1.01-2.25,2.25,1.01,2.25,2.25,2.25,2.25-1.01,2.25-2.25Z"/>
              <path class="cls-51" d="m48.83.97c0,7.17,4.59,13.81-1,16.33-8.5,3.83-28-14.33-28-36.17,0-12,8.67-19,17.83-19,12.33,0,18,8.17,18,17.5s-6.83,13.14-6.83,21.33h0Zm-5.41-5.37c0-1.15-.93-2.08-2.07-2.08s-2.08.93-2.08,2.08.93,2.08,2.08,2.08,2.07-.93,2.07-2.08Z"/>
              <path class="cls-25" d="m46.19,111.99c0,6.23-4.15,10.72-8.65,11.59-4.5.87-8.32-1.28-12.97,1.21-4.84,2.59-7.09,11.07-16.77,11.07-7.96,0-15.22-7.96-15.22-18.85,0-20.23,13.14-29.23,25.59-29.23,16.6,0,28.02,12.62,28.02,24.21Zm-19.71-14.35c0-2.1-1.7-3.8-3.8-3.8s-3.8,1.7-3.8,3.8,1.7,3.8,3.8,3.8,3.8-1.7,3.8-3.8Z"/>
              <path class="cls-42" d="m45.5,88.3c0,1.34-1.08,2.42-2.42,2.42s-2.42-1.08-2.42-2.42,1.08-2.42,2.42-2.42,2.42,1.08,2.42,2.42Z"/>
              <path class="cls-25" d="m129.2,69.79c-3.19,4.68,1.04,10.72-1.38,15.22-2.42,4.5-6.74,5.02-9.86,2.6-3.63-2.83-3.41-6.64-8.3-8.82-5.53-2.46-17.98,2.25-19.71-7.26-.87-4.81,2.37-8.57,7.26-9.68,6.05-1.38,9.35-.18,15.39-3.11,6.05-2.94,11.24-8.99,22.14-12.11,10.41-2.97,16.07,1.56,16.6,5.88,1.04,8.47-17.13,9.95-22.14,17.29h0Zm-2.25-7.44c0-1.24-1.01-2.25-2.25-2.25s-2.25,1.01-2.25,2.25,1.01,2.25,2.25,2.25,2.25-1.01,2.25-2.25Z"/>
              <path class="cls-51" d="m156.17,108.97c0,17.17-14.5,25.5-27,22.83-10.26-2.19-12.83-17.33-16.67-26.17-3.71-8.56-8.83-22.5-20.17-22.5s-12.83,14.5-23.67,14.5-24.5-15.67-24.5-39.67c0-14.67,9.8-31.46,20.83-30.67,11.67.83,4.5,19.67,15.33,19.67,9.5,0,7.86-16.26,9.17-23.33,1.67-9,6.83-14.17,18.5-13.17,14.44,1.24,22.33,13.5,18.87,23.34-4.03,11.45-23.87,17.32-21.54,30.49,1.35,7.59,13,12,26,16.17,14.53,4.66,24.83,11.33,24.83,28.5h.02,0Zm-44.95-75.84c0,1.82,1.47,3.29,3.29,3.29s3.29-1.47,3.29-3.29-1.47-3.29-3.29-3.29-3.29,1.47-3.29,3.29Zm-46.69,24.9c0-.96-.77-1.73-1.73-1.73s-1.73.78-1.73,1.73.78,1.73,1.73,1.73,1.73-.77,1.73-1.73Zm17.47,10.72c0-2.1-1.7-3.8-3.8-3.8s-3.8,1.7-3.8,3.8,1.71,3.8,3.8,3.8,3.8-1.7,3.8-3.8Zm19.89-15.56c0-.86-.7-1.56-1.56-1.56s-1.56.7-1.56,1.56.7,1.56,1.56,1.56,1.56-.7,1.56-1.56Zm29.64,54.69c0-1.75-1.42-3.17-3.17-3.17s-3.17,1.42-3.17,3.17,1.42,3.17,3.17,3.17,3.17-1.42,3.17-3.17Z"/>
              <path class="cls-25" d="m123.53,24.47c-7.87,2.74-19.44-15.3-17.67-27.02,1.24-8.23,7.12-13.19,13.09-14.22,7.53-1.3,12.9,2.6,13.3,7.24.55,6.31-3.63,7.52-4.22,14.96-.56,7.13,3.69,16.19-4.49,19.03h-.01Zm-3.79-27.51c0-1.43-1.16-2.59-2.59-2.59s-2.59,1.16-2.59,2.59,1.16,2.59,2.59,2.59,2.59-1.16,2.59-2.59Z"/>
              <path class="cls-51" d="m19.39,2c0,1.43-1.16,2.59-2.59,2.59s-2.59-1.16-2.59-2.59,1.16-2.59,2.59-2.59,2.59,1.16,2.59,2.59Z"/>
              <path class="cls-51" d="m153.38,88.74c0-8.41-5.08-15.23-11.34-15.23s-11.34,6.82-11.34,15.23,5.08,12.44,11.34,12.44,11.34-4.03,11.34-12.44Z"/>
              <path class="cls-25" d="m84.61-5.72c.74,8.1,12.67,7.02,17.9,14.21,10.52,14.47-1.22,46.37-21.63,46.37-11.74,0-24.22-9.72-24.22-29.22,0-15.83,10.17-21.5,8.25-42.17-1.01-10.83-12.5-20.34-12.5-34.75,0-5.92,3.59-13.45,11.55-13.45,7.05,0,10.82,5.95,10.82,12.9s-5.38,15.74,1.37,19.05c5.24,2.57,13.21-4.77,19.5-6.75,5.19-1.64,12.39.22,14.75,8.5,2.53,8.88-3.25,14.75-11.59,16.69-6.32,1.48-14.8,2.17-14.21,8.61h.01Zm-15.98-30.56c0-1.82-1.47-3.29-3.29-3.29s-3.29,1.47-3.29,3.29,1.47,3.29,3.29,3.29,3.29-1.47,3.29-3.29Zm25.98,9.7c1.29,0,2.33-1.04,2.33-2.33s-1.04-2.33-2.33-2.33-2.33,1.04-2.33,2.33,1.04,2.33,2.33,2.33Zm-19.98,59.67c0-1.82-1.47-3.29-3.29-3.29s-3.29,1.47-3.29,3.29,1.47,3.29,3.29,3.29,3.29-1.47,3.29-3.29Z"/>
              <path class="cls-42" d="m66.94,20.16c-11.76-1.38-19.37.35-22.65,3.11-3.02,2.54-4.95,5.41-2.25,11.93,2.94,7.09,1.53,14.73-5.54,15.91-6.22,1.04-10.89-4.84-11.24-12.28-.24-5.18-1.9-8.3-5.53-7.61s-4.63,5.9-3.63,11.76c1.38,8.13,5.54,11.76,6.23,20.23.49,6.05-2.94,13.66-12.45,15.04-9.3,1.35-15.91-4.32-16.6-10.55-.73-6.59,3.63-10.89,3.11-17.64-.52-6.75-4.01-10.17-5.88-17.29-2.77-10.55,1.21-19.02,7.78-22.65,14.75-8.15,22.83,3.64,35.97,1.56,10.9-1.73,23.35-18.16,33.03-19.54,8.23-1.17,13.83,4.67,15.04,14.01s-4.74,15.26-15.39,14.01Zm-42.2.52c0-2.29-1.86-4.15-4.15-4.15s-4.15,1.86-4.15,4.15,1.86,4.15,4.15,4.15,4.15-1.86,4.15-4.15Zm49.46-15.39c0-.96-.78-1.73-1.73-1.73s-1.73.77-1.73,1.73.77,1.73,1.73,1.73,1.73-.77,1.73-1.73Z"/>
              <path class="cls-42" d="m130.24,42.47c0,.76-.62,1.38-1.38,1.38s-1.38-.62-1.38-1.38.62-1.38,1.38-1.38,1.38.62,1.38,1.38Z"/>
              <path class="cls-51" d="m135.77,4.08c0,1.24-1.01,2.25-2.25,2.25s-2.25-1.01-2.25-2.25,1.01-2.25,2.25-2.25,2.25,1.01,2.25,2.25Z"/>
              <path class="cls-25" d="m52.24,27.25c0,.67-.54,1.21-1.21,1.21s-1.21-.54-1.21-1.21.54-1.21,1.21-1.21,1.21.54,1.21,1.21Z"/>
              <path class="cls-25" d="m48.61,95.73c0,.76-.62,1.38-1.38,1.38s-1.38-.62-1.38-1.38.62-1.38,1.38-1.38,1.38.62,1.38,1.38Z"/>
              <path class="cls-51" d="m133.18,73.77c0,.67-.54,1.21-1.21,1.21s-1.21-.54-1.21-1.21.54-1.21,1.21-1.21,1.21.54,1.21,1.21Z"/>
              <path class="cls-42" d="m95.89,91.69c0,1.88-1.53,3.41-3.41,3.41s-3.41-1.53-3.41-3.41,1.53-3.41,3.41-3.41,3.41,1.53,3.41,3.41Z"/>
              <path class="cls-51" d="m100.87,131.55c0,1.16-.94,2.1-2.1,2.1s-2.1-.94-2.1-2.1.94-2.1,2.1-2.1,2.1.94,2.1,2.1Z"/>
              <path class="cls-51" d="m62.07,125.25c0,.87-.7,1.57-1.57,1.57s-1.57-.7-1.57-1.57.71-1.57,1.57-1.57,1.57.71,1.57,1.57Z"/>
              <circle class="cls-42" cx="133.12" cy="11.21" r="2.62"/>
              <circle class="cls-25" cx="123.15" cy="46.07" r="2.36"/>
              <path class="cls-51" d="m27.72,52.63c0,1.45-1.17,2.62-2.62,2.62s-2.62-1.17-2.62-2.62,1.17-2.62,2.62-2.62,2.62,1.17,2.62,2.62Z"/>
              <path class="cls-25" d="m22.74,45.55c0,.72-.59,1.31-1.31,1.31s-1.31-.59-1.31-1.31.59-1.31,1.31-1.31,1.31.59,1.31,1.31Z"/>
              <path class="cls-51" d="m86.97,97.46c0,.87-.71,1.57-1.57,1.57s-1.57-.7-1.57-1.57.7-1.57,1.57-1.57,1.57.71,1.57,1.57Z"/>
            </g>
            <g>
              <path class="cls-25" d="m-14.93,69.79c-3.19,4.68,1.04,10.72-1.38,15.22-2.42,4.5-6.74,5.02-9.86,2.6-3.63-2.83-3.41-6.64-8.3-8.82-5.53-2.46-17.98,2.25-19.71-7.26-.88-4.81,2.38-8.57,7.26-9.68,6.05-1.38,9.35-.18,15.39-3.11,6.05-2.94,11.24-8.99,22.14-12.11,10.41-2.97,16.07,1.56,16.6,5.88,1.04,8.47-17.13,9.95-22.14,17.29h0Zm-2.25-7.44c0-1.24-1.01-2.25-2.25-2.25s-2.25,1.01-2.25,2.25,1.01,2.25,2.25,2.25,2.25-1.01,2.25-2.25Z"/>
              <path class="cls-51" d="m12.04,108.97c0,17.17-14.5,25.5-27,22.83-10.26-2.19-12.83-17.33-16.67-26.17-3.71-8.56-8.83-22.5-20.17-22.5s-12.83,14.5-23.67,14.5-24.5-15.67-24.5-39.67c0-14.67,9.8-31.46,20.83-30.67,11.67.83,4.5,19.67,15.33,19.67,9.5,0,7.86-16.26,9.17-23.33,1.67-9,6.83-14.17,18.5-13.17,14.44,1.24,22.33,13.5,18.87,23.34-4.03,11.45-23.87,17.32-21.54,30.49,1.35,7.59,13,12,26,16.17,14.53,4.66,24.83,11.33,24.83,28.5h.02,0ZM-32.91,33.13c0,1.82,1.47,3.29,3.29,3.29s3.29-1.47,3.29-3.29-1.47-3.29-3.29-3.29-3.29,1.47-3.29,3.29Zm-46.69,24.9c0-.96-.77-1.73-1.73-1.73s-1.73.78-1.73,1.73.78,1.73,1.73,1.73,1.73-.77,1.73-1.73Zm17.47,10.72c0-2.1-1.7-3.8-3.8-3.8s-3.8,1.7-3.8,3.8,1.71,3.8,3.8,3.8,3.8-1.7,3.8-3.8Zm19.89-15.56c0-.86-.7-1.56-1.56-1.56s-1.56.7-1.56,1.56.7,1.56,1.56,1.56,1.56-.7,1.56-1.56Zm29.64,54.69c0-1.75-1.42-3.17-3.17-3.17s-3.17,1.42-3.17,3.17,1.42,3.17,3.17,3.17,3.17-1.42,3.17-3.17Z"/>
              <path class="cls-51" d="m9.26,88.74c0-8.41-5.08-15.23-11.34-15.23s-11.34,6.82-11.34,15.23,5.08,12.44,11.34,12.44,11.34-4.03,11.34-12.44Z"/>
            </g>
          </g>
        </g>
      </g>
    </pattern>
    <linearGradient id="linear-gradient" x1="-1841.54" y1="1758.07" x2="-1835.8" y2="1758.07" gradientTransform="translate(-1546.41 -1675.77) rotate(-90)" gradientUnits="userSpaceOnUse">
      <stop offset="0" stop-color="#ff7bac"/>
      <stop offset=".22" stop-color="#ff7bac" stop-opacity=".76"/>
      <stop offset=".6" stop-color="#ff7bac" stop-opacity=".36"/>
      <stop offset=".87" stop-color="#ff7bac" stop-opacity=".1"/>
      <stop offset="1" stop-color="#ff7bac" stop-opacity="0"/>
    </linearGradient>
    <linearGradient id="linear-gradient-2" x1="-1837.95" y1="1763.79" x2="-1833.64" y2="1763.79" gradientTransform="translate(-1546.41 -1675.77) rotate(-90)" gradientUnits="userSpaceOnUse">
      <stop offset="0" stop-color="#ff7bac"/>
      <stop offset=".22" stop-color="#ff7bac" stop-opacity=".76"/>
      <stop offset=".6" stop-color="#ff7bac" stop-opacity=".36"/>
      <stop offset=".87" stop-color="#ff7bac" stop-opacity=".1"/>
      <stop offset="1" stop-color="#ff7bac" stop-opacity="0"/>
    </linearGradient>
    <linearGradient id="linear-gradient-3" x1="-1836.69" y1="1763.53" x2="-1834.9" y2="1763.53" gradientTransform="translate(-1546.41 -1675.77) rotate(-90)" gradientUnits="userSpaceOnUse">
      <stop offset="0" stop-color="#ff7bac"/>
      <stop offset=".22" stop-color="#ff7bac" stop-opacity=".76"/>
      <stop offset=".6" stop-color="#ff7bac" stop-opacity=".36"/>
      <stop offset=".87" stop-color="#ff7bac" stop-opacity=".1"/>
      <stop offset="1" stop-color="#ff7bac" stop-opacity="0"/>
    </linearGradient>
    <linearGradient id="linear-gradient-4" x1="-1846.67" y1="1790.48" x2="-1836.42" y2="1790.48" gradientTransform="translate(-1546.41 -1675.77) rotate(-90)" gradientUnits="userSpaceOnUse">
      <stop offset="0" stop-color="#ff7bac"/>
      <stop offset=".22" stop-color="#ff7bac" stop-opacity=".76"/>
      <stop offset=".6" stop-color="#ff7bac" stop-opacity=".36"/>
      <stop offset=".87" stop-color="#ff7bac" stop-opacity=".1"/>
      <stop offset="1" stop-color="#ff7bac" stop-opacity="0"/>
    </linearGradient>
  </defs>
  <g id="Layer_1-2" data-name="Layer 1-2">
    <g>
      <rect class="cls-13" x="7.56" y="339.56" width="92.82" height="83.05"/>
      <g class="cls-22">
        <polygon class="cls-5" points="12.58 356.94 81.21 418.35 95.37 418.35 12.58 344.27 12.58 356.94"/>
        <polygon class="cls-5" points="12.58 418.35 68.97 418.35 12.58 367.89 12.58 418.35"/>
      </g>
    </g>
    <g>
      <rect class="cls-13" x="7.56" y="255.68" width="92.82" height="83.05"/>
      <g class="cls-22">
        <polygon class="cls-5" points="12.58 273.06 81.21 334.46 95.37 334.46 12.58 260.39 12.58 273.06"/>
        <polygon class="cls-5" points="12.58 334.46 68.97 334.46 12.58 284.01 12.58 334.46"/>
      </g>
    </g>
    <g>
      <rect class="cls-13" x="7.56" y="171.8" width="92.82" height="83.05"/>
      <g class="cls-22">
        <polygon class="cls-5" points="12.58 189.17 81.21 250.58 95.37 250.58 12.58 176.51 12.58 189.17"/>
        <polygon class="cls-5" points="12.58 250.58 68.97 250.58 12.58 200.13 12.58 250.58"/>
      </g>
    </g>
    <g>
      <rect class="cls-13" x="7.56" y="87.92" width="92.82" height="83.05"/>
      <g class="cls-22">
        <polygon class="cls-5" points="12.58 105.29 81.21 166.7 95.37 166.7 12.58 92.63 12.58 105.29"/>
        <polygon class="cls-5" points="12.58 166.7 68.97 166.7 12.58 116.25 12.58 166.7"/>
      </g>
    </g>
    <g>
      <rect class="cls-13" x="7.56" y="4.04" width="92.82" height="83.05"/>
      <g class="cls-22">
        <polygon class="cls-5" points="12.58 21.41 81.21 82.82 95.37 82.82 12.58 8.75 12.58 21.41"/>
        <polygon class="cls-5" points="12.58 82.82 68.97 82.82 12.58 32.37 12.58 82.82"/>
      </g>
    </g>
    <g>
      <rect class="cls-13" x="297.18" y="339.56" width="92.82" height="83.05"/>
      <g class="cls-22">
        <polygon class="cls-5" points="302.2 356.94 370.82 418.35 384.99 418.35 302.2 344.27 302.2 356.94"/>
        <polygon class="cls-5" points="302.2 418.35 358.59 418.35 302.2 367.89 302.2 418.35"/>
      </g>
    </g>
    <g>
      <rect class="cls-13" x="297.18" y="255.68" width="92.82" height="83.05"/>
      <g class="cls-22">
        <polygon class="cls-5" points="302.2 273.06 370.82 334.46 384.99 334.46 302.2 260.39 302.2 273.06"/>
        <polygon class="cls-5" points="302.2 334.46 358.59 334.46 302.2 284.01 302.2 334.46"/>
      </g>
    </g>
    <g>
      <rect class="cls-13" x="101.31" y="171.8" width="92.82" height="83.05"/>
      <g class="cls-22">
        <polygon class="cls-5" points="106.34 189.17 174.96 250.58 189.13 250.58 106.34 176.51 106.34 189.17"/>
        <polygon class="cls-5" points="106.34 250.58 162.73 250.58 106.34 200.13 106.34 250.58"/>
      </g>
    </g>
    <g>
      <rect class="cls-13" x="101.31" y="87.92" width="92.82" height="83.05"/>
      <g class="cls-22">
        <polygon class="cls-5" points="106.34 105.29 174.96 166.7 189.13 166.7 106.34 92.63 106.34 105.29"/>
        <polygon class="cls-5" points="106.34 166.7 162.73 166.7 106.34 116.25 106.34 166.7"/>
      </g>
    </g>
    <g>
      <rect class="cls-13" x="101.31" y="4.04" width="92.82" height="83.05"/>
      <g class="cls-22">
        <polygon class="cls-5" points="106.34 21.41 174.96 82.82 189.13 82.82 106.34 8.75 106.34 21.41"/>
        <polygon class="cls-5" points="106.34 82.82 162.73 82.82 106.34 32.37 106.34 82.82"/>
      </g>
    </g>
    <g>
      <rect class="cls-13" x="195.07" y="339.56" width="92.82" height="83.05"/>
      <g class="cls-22">
        <polygon class="cls-5" points="200.09 356.94 268.71 418.35 282.88 418.35 200.09 344.27 200.09 356.94"/>
        <polygon class="cls-5" points="200.09 418.35 256.48 418.35 200.09 367.89 200.09 418.35"/>
      </g>
    </g>
    <g>
      <rect class="cls-13" x="195.07" y="255.68" width="92.82" height="83.05"/>
      <g class="cls-22">
        <polygon class="cls-5" points="200.09 273.06 268.71 334.46 282.88 334.46 200.09 260.39 200.09 273.06"/>
        <polygon class="cls-5" points="200.09 334.46 256.48 334.46 200.09 284.01 200.09 334.46"/>
      </g>
    </g>
    <g>
      <rect class="cls-13" x="195.07" y="171.8" width="92.82" height="83.05"/>
      <g class="cls-22">
        <polygon class="cls-5" points="200.09 189.17 268.71 250.58 282.88 250.58 200.09 176.51 200.09 189.17"/>
        <polygon class="cls-5" points="200.09 250.58 256.48 250.58 200.09 200.13 200.09 250.58"/>
      </g>
    </g>
    <g class="cls-30">
      <rect class="cls-32" x="195.07" y="87.92" width="92.82" height="83.05"/>
      <g class="cls-22">
        <polygon class="cls-8" points="200.09 105.29 268.71 166.7 282.88 166.7 200.09 92.63 200.09 105.29"/>
        <polygon class="cls-8" points="200.09 166.7 256.48 166.7 200.09 116.25 200.09 166.7"/>
      </g>
    </g>
    <g class="cls-18">
      <rect class="cls-10" x="195.07" y="4.04" width="92.82" height="83.05"/>
      <g class="cls-22">
        <polygon class="cls-9" points="200.09 21.41 268.71 82.82 282.88 82.82 200.09 8.75 200.09 21.41"/>
        <polygon class="cls-9" points="200.09 82.82 256.48 82.82 200.09 32.37 200.09 82.82"/>
      </g>
    </g>
    <g>
      <rect class="cls-13" x="288.82" y="339.56" width="92.82" height="83.05"/>
      <g class="cls-22">
        <polygon class="cls-5" points="293.84 356.94 362.47 418.35 376.63 418.35 293.84 344.27 293.84 356.94"/>
        <polygon class="cls-5" points="293.84 418.35 350.23 418.35 293.84 367.89 293.84 418.35"/>
      </g>
    </g>
    <g>
      <rect class="cls-13" x="288.82" y="255.68" width="92.82" height="83.05"/>
      <g class="cls-22">
        <polygon class="cls-5" points="293.84 273.06 362.47 334.46 376.63 334.46 293.84 260.39 293.84 273.06"/>
        <polygon class="cls-5" points="293.84 334.46 350.23 334.46 293.84 284.01 293.84 334.46"/>
      </g>
    </g>
    <g>
      <rect class="cls-13" x="288.82" y="171.8" width="101.18" height="83.05"/>
      <g class="cls-22">
        <polygon class="cls-5" points="294.29 189.17 369.1 250.58 384.54 250.58 294.29 176.51 294.29 189.17"/>
        <polygon class="cls-5" points="294.29 250.58 355.76 250.58 294.29 200.13 294.29 250.58"/>
      </g>
    </g>
    <g class="cls-15">
      <rect class="cls-31" x="288.82" y="87.92" width="101.18" height="83.05"/>
      <g class="cls-22">
        <polygon class="cls-7" points="294.29 105.29 369.1 166.7 384.54 166.7 294.29 92.63 294.29 105.29"/>
        <polygon class="cls-7" points="294.29 166.7 355.76 166.7 294.29 116.25 294.29 166.7"/>
      </g>
    </g>
    <g class="cls-41">
      <rect class="cls-10" x="288.82" y="4.04" width="101.18" height="83.05"/>
      <g class="cls-24">
        <polygon class="cls-4" points="294.29 21.41 369.1 82.82 384.54 82.82 294.29 8.75 294.29 21.41"/>
        <polygon class="cls-4" points="294.29 82.82 355.76 82.82 294.29 32.37 294.29 82.82"/>
      </g>
    </g>
    <rect class="cls-43" x="194.99" y="1.91" width="5.27" height="169.9"/>
    <g>
      <path class="cls-50" d="m193.42,93.6c0,.7-.58,1.26-1.3,1.26H9.51c-.72,0-1.3-.56-1.3-1.26V5.11c0-.7.58-1.26,1.3-1.26h182.62c.72,0,1.3.56,1.3,1.26v88.49h0Z"/>
      <path class="cls-2" d="m192.12,95.49H9.51c-1.07,0-1.95-.85-1.95-1.89V5.11c0-1.05.87-1.89,1.95-1.89h182.62c1.07,0,1.95.85,1.95,1.89v88.49c0,1.05-.87,1.89-1.95,1.89h0ZM9.51,4.48c-.35,0-.65.28-.65.63v88.49c0,.35.29.63.65.63h182.62c.35,0,.65-.28.65-.63V5.11c0-.35-.29-.63-.65-.63H9.51Z"/>
    </g>
    <g>
      <ellipse class="cls-44" cx="105.96" cy="55.79" rx="40.66" ry="36.38"/>
      <path class="cls-11" d="m105.96,92.87c-22.85,0-41.45-16.64-41.45-37.08s18.59-37.08,41.45-37.08,41.45,16.64,41.45,37.08-18.59,37.08-41.45,37.08Zm0-72.76c-21.99,0-39.88,16-39.88,35.68s17.89,35.68,39.88,35.68,39.88-16,39.88-35.68-17.89-35.68-39.88-35.68Z"/>
    </g>
    <ellipse class="cls-50" cx="105.96" cy="55.79" rx="33.61" ry="30.07"/>
    <path class="cls-46" d="m105.96,73.65c-16.23,0-29.76-10.29-32.92-23.97-.45,1.97-.7,4.01-.7,6.1,0,16.61,15.05,30.07,33.61,30.07s33.61-13.46,33.61-30.07c0-2.09-.24-4.14-.7-6.1-3.16,13.68-16.69,23.97-32.92,23.97h.02Z"/>
    <g>
      <g>
        <path class="cls-39" d="m105.96,51.17c-2.85,0-5.16,2.07-5.16,4.62s2.31,4.62,5.16,4.62,5.16-2.07,5.16-4.62-2.31-4.62-5.16-4.62Z"/>
        <path class="cls-53" d="m105.96,50.81c3.07,0,5.57,2.23,5.57,4.98s-2.5,4.98-5.57,4.98-5.57-2.23-5.57-4.98,2.5-4.98,5.57-4.98Zm0,.72c-2.63,0-4.75,1.91-4.75,4.25s2.13,4.25,4.75,4.25,4.75-1.91,4.75-4.25-2.13-4.25-4.75-4.25Z"/>
      </g>
      <g>
        <path class="cls-1" d="m105.96,52.57c-1.99,0-3.59,1.44-3.59,3.21s1.61,3.21,3.59,3.21,3.59-1.44,3.59-3.21-1.61-3.21-3.59-3.21Z"/>
        <path class="cls-29" d="m105.96,52.21c2.2,0,3.99,1.6,3.99,3.57s-1.79,3.57-3.99,3.57-3.99-1.6-3.99-3.57,1.79-3.57,3.99-3.57Zm0,.72c-1.75,0-3.18,1.28-3.18,2.85s1.43,2.85,3.18,2.85,3.18-1.28,3.18-2.85-1.43-2.85-3.18-2.85Z"/>
      </g>
      <path class="cls-29" d="m109.23,54.47h-6.53c.57-1.11,1.81-1.89,3.27-1.89s2.7.78,3.27,1.89h0Z"/>
    </g>
    <g>
      <path class="cls-28" d="m111.15,12.52c0,2.87-2.6,5.19-5.8,5.19s-5.8-2.33-5.8-5.19,2.6-5.19,5.8-5.19,5.8,2.33,5.8,5.19Z"/>
      <rect class="cls-37" x="104.82" y="7.33" width="9.25" height="6.62"/>
      <rect class="cls-36" x="104.82" y="8.84" width="8.2" height="3.6"/>
      <rect class="cls-27" x="104.82" y="9.82" width="8.2" height="1.65"/>
      <path class="cls-37" d="m104.17,5.67h2.36c.87,0,1.59.64,1.59,1.42v32.17c0,.78-.71,1.42-1.59,1.42h-2.35c-.87,0-1.59-.64-1.59-1.42V7.09c0-.78.71-1.42,1.59-1.42h-.01Z"/>
      <path class="cls-16" d="m106.94,37.47c0,.73-.41,1.32-.91,1.32h-1.36c-.5,0-.91-.59-.91-1.32V7.58c0-.73.41-1.32.91-1.32h1.36c.5,0,.91.59.91,1.32v29.89Z"/>
      <path class="cls-27" d="m105.72,37.47c0,.73-.09,1.32-.21,1.32h-.32c-.12,0-.21-.59-.21-1.32V7.58c0-.73.09-1.32.21-1.32h.32c.12,0,.21.59.21,1.32v29.89Z"/>
      <rect class="cls-37" x="113.55" y="5.67" width="4.49" height="10.88"/>
      <rect class="cls-36" x="113.55" y="7.33" width="3.83" height="7.57"/>
      <rect class="cls-27" x="113.55" y="9.82" width="3.83" height="2.6"/>
    </g>
    <path class="cls-44" d="m272.77,389.78h86.4c6.17,0,10.8-2.31,10.8-7.83l-4.4-10.02c-1.04-1.2-11.47-7.33-13.11-32.52l-36.5,4.62-36.5-4.62c-1.64,25.19-12.07,31.33-13.11,32.52l-4.4,10.02c0,5.52,4.63,7.83,10.8,7.83h.02Z"/>
    <path class="cls-20" d="m272.11,389.78h87.07c6.17,0,10.8-2.31,10.8-7.83,0,0-3.14-7.58-4.4-10.02-.93-1.79-3.02-2.7-5.53-6.01-.29,0-8.6,7.33-44.42,7.35-35.8-.02-43.53-7.33-43.53-7.33-.3,0-.58,0-.87-.02-2.65,3.9-5.06,5.47-5.53,6.01l-4.4,10.02c0,5.52,4.63,7.83,10.8,7.83h0Z"/>
    <g>
      <path class="cls-48" d="m328.35,363.12c0-1.77,1.6-3.2,3.57-3.2h0c1.98,0,3.57,1.43,3.57,3.2v3.86c0,1.77-1.6,3.2-3.57,3.2h0c-1.98,0-3.57-1.43-3.57-3.2v-3.86Z"/>
      <path class="cls-20" d="m331.92,359.52c2.22,0,4.02,1.61,4.02,3.6v3.86c0,1.98-1.8,3.6-4.02,3.6s-4.02-1.61-4.02-3.6v-3.86c0-1.98,1.8-3.6,4.02-3.6Zm0,10.27c1.73,0,3.13-1.25,3.13-2.8v-3.86c0-1.54-1.4-2.8-3.13-2.8s-3.13,1.25-3.13,2.8v3.86c0,1.54,1.4,2.8,3.13,2.8Z"/>
    </g>
    <g>
      <path class="cls-48" d="m107.76,363.12c0-1.77-1.6-3.2-3.57-3.2h0c-1.98,0-3.57,1.43-3.57,3.2v3.86c0,1.77,1.6,3.2,3.57,3.2h0c1.98,0,3.57-1.43,3.57-3.2v-3.86Z"/>
      <path class="cls-20" d="m104.18,359.52c2.22,0,4.02,1.61,4.02,3.6v3.86c0,1.98-1.8,3.6-4.02,3.6s-4.02-1.61-4.02-3.6v-3.86c0-1.98,1.8-3.6,4.02-3.6Zm0,10.27c1.73,0,3.13-1.25,3.13-2.8v-3.86c0-1.54-1.4-2.8-3.13-2.8s-3.13,1.25-3.13,2.8v3.86c0,1.54,1.4,2.8,3.13,2.8Z"/>
    </g>
    <path class="cls-33" d="m290.58,363.12h50.79c9.83-8.54,16.17-22.16,16.17-38.39,0-27.83-18.61-52.79-41.57-52.79s-41.57,24.96-41.57,52.79c0,16.24,6.33,29.86,16.17,38.39h0Z"/>
    <path class="cls-20" d="m290.58,364.32h50.79c.35,0,.69-.12.94-.34,4.72-4.1,8.55-9.24,11.32-15.1-.14-.75-.27-1.51-.39-2.31-2.82,6.6-6.9,12.23-11.87,16.54h-50.79c-4.98-4.32-9.05-9.94-11.87-16.54-.12.79-.25,1.56-.39,2.31,2.78,5.86,6.6,11,11.32,15.1.25.22.58.34.94.34h0Z"/>
    <path class="cls-55" d="m290.26,362.83l3.87-3.98.31-.27c.09.09.19.17.29.27h42.51l4.14,4.27h-50.79c-.11-.09-.21-.19-.32-.29h-.01Z"/>
    <path class="cls-50" d="m281.19,325.39c0-24.26,15.58-46.01,34.79-46.01s34.79,21.75,34.79,46.01c0,14.15-5.31,26.03-13.53,33.46h-42.51c-.1-.09-.19-.17-.29-.27-8.07-7.46-13.25-19.22-13.25-33.2h0Z"/>
    <path class="cls-33" d="m261.46,408.3c1.89,6.2,3.66,10,9.83,10h89.39c6.17,0,7.95-3.8,9.83-10l1.34-18.4c0-5.52-2.09-13.2-11.32-11.86,0,0-26.9,3.2-41.86,3.2h-5.36c-14.96,0-41.86-3.2-41.86-3.2-9.24-1.34-11.32,6.35-11.32,11.86l1.34,18.4h.02-.03Z"/>
    <path class="cls-50" d="m266.85,407.71c1.7,5.32,3.3,8.6,8.86,8.6h80.53c5.56,0,7.16-3.26,8.86-8.6l1.21-15.81c0-4.75-1.88-11.34-10.2-10.2,0,0-24.24,2.75-37.72,2.75h-4.82c-13.48,0-37.72-2.75-37.72-2.75-8.33-1.15-10.2,5.46-10.2,10.2l1.21,15.81h.02-.03Z"/>
    <g>
      <g>
        <path class="cls-20" d="m315.98,396.49c-2.98,0-5.39,2.16-5.39,4.83s2.41,4.83,5.39,4.83,5.39-2.16,5.39-4.83-2.41-4.83-5.39-4.83Z"/>
        <path class="cls-35" d="m315.98,396.11c3.2,0,5.81,2.33,5.81,5.2s-2.61,5.2-5.81,5.2-5.81-2.33-5.81-5.2,2.61-5.2,5.81-5.2Zm0,.76c-2.74,0-4.97,1.99-4.97,4.44s2.23,4.44,4.97,4.44,4.97-1.99,4.97-4.44-2.23-4.44-4.97-4.44Z"/>
      </g>
      <g>
        <path class="cls-14" d="m315.98,397.96c-2.07,0-3.75,1.5-3.75,3.36s1.68,3.36,3.75,3.36,3.75-1.5,3.75-3.36-1.68-3.36-3.75-3.36Z"/>
        <path class="cls-52" d="m315.98,397.57c2.3,0,4.17,1.68,4.17,3.73s-1.88,3.74-4.17,3.74-4.18-1.68-4.18-3.74,1.88-3.73,4.18-3.73Zm0,.76c-1.84,0-3.33,1.34-3.33,2.97s1.49,2.97,3.33,2.97,3.32-1.34,3.32-2.97-1.49-2.97-3.32-2.97Z"/>
      </g>
      <path class="cls-52" d="m319.4,399.93h-6.82c.58-1.16,1.89-1.98,3.42-1.98s2.82.81,3.42,1.98h-.02Z"/>
    </g>
    <g>
      <ellipse class="cls-37" cx="292.46" cy="30.21" rx="17.64" ry="15.78"/>
      <ellipse class="cls-36" cx="292.46" cy="30.21" rx="15.62" ry="13.98"/>
      <path class="cls-27" d="m278.99,37.27c2.71,4.14,7.72,6.92,13.47,6.92s10.76-2.78,13.47-6.92c0,0-26.94,0-26.94,0Z"/>
      <g>
        <path class="cls-19" d="m289.01,6.05c0-1.12.82-2.03,1.83-2.02h3.77c1,0,1.82.91,1.82,2.03l-.05,22.54c0,1.12-.82,2.03-1.83,2.02h-3.77c-1.01,0-1.82-.91-1.82-2.03,0,0,.05-22.54.05-22.54Z"/>
        <path class="cls-54" d="m289.82,6.87c0-1.04.59-1.87,1.32-1.87h2.72c.72,0,1.32.85,1.32,1.88l-.05,20.85c0,1.03-.59,1.87-1.32,1.87h-2.72c-.72,0-1.32-.85-1.31-1.88l.05-20.85h-.01Z"/>
        <path class="cls-23" d="m290.85,6.87c0-1.04.37-1.88.82-1.87h1.67c.45,0,.81.84.81,1.88l-.05,20.85c0,1.04-.37,1.88-.82,1.87h-1.67c-.45,0-.81-.85-.81-1.88,0,0,.05-20.85.05-20.85Z"/>
      </g>
    </g>
    <g>
      <rect class="cls-37" x="305.58" width="7.91" height="8.84"/>
      <rect class="cls-36" x="307.4" width="4.29" height="7.83"/>
      <rect class="cls-27" x="308.55" width="1.98" height="7.83"/>
      <g>
        <rect class="cls-37" x="303.1" y="8.34" width="13" height="4.29"/>
        <rect class="cls-36" x="305.07" y="8.34" width="9.04" height="3.66"/>
        <rect class="cls-27" x="308.04" y="8.34" width="3.11" height="3.66"/>
      </g>
    </g>
    <g>
      <rect class="cls-37" x="272.84" width="7.91" height="8.84"/>
      <rect class="cls-36" x="274.64" width="4.29" height="7.83"/>
      <rect class="cls-27" x="275.8" width="1.98" height="7.83"/>
      <g>
        <rect class="cls-37" x="270.34" y="8.34" width="13" height="4.29"/>
        <rect class="cls-36" x="272.33" y="8.34" width="9.04" height="3.66"/>
        <rect class="cls-27" x="275.29" y="8.34" width="3.11" height="3.66"/>
      </g>
    </g>
    <g>
      <g>
        <rect class="cls-40" x="6.94" y="148.41" width="7.79" height="3.63"/>
        <path class="cls-12" d="m14.74,148.41c-1.61,0-2.92,1.1-2.92,2.47v16.85c0,1.36,1.3,2.47,2.92,2.47h0c1.61,0,2.92-1.1,2.92-2.47v-16.85c0-1.36-1.3-2.47-2.92-2.47h0Z"/>
        <path class="cls-26" d="m14.74,148.41c-.67,0-1.21,1.06-1.21,2.37v16.21c0,1.31.54,2.37,1.21,2.37h0c.67,0,1.21-1.06,1.21-2.37v-16.21c0-1.31-.54-2.37-1.21-2.37h0Z"/>
      </g>
      <polygon class="cls-21" points="13.89 140.05 8.16 140.05 8.16 263.22 13.89 263.22 13.89 271.13 0 271.13 0 132.13 13.89 132.13 13.89 140.05"/>
    </g>
    <g id="t-paper">
      <g>
        <path class="cls-12" d="m20.93,341.03h-10.65v-4.2h10.65c.27,0,.5-.19.5-.42v-37.76c0-.23-.23-.42-.5-.42h-11.14v-4.2h11.14c3.01,0,5.46,2.07,5.46,4.62v37.76c0,2.55-2.45,4.61-5.46,4.61h0Z"/>
        <path class="cls-35" d="m20.93,339.35h-10.65v-.84h10.65c1.37,0,2.48-.94,2.48-2.1v-37.76c0-1.15-1.12-2.1-2.48-2.1h-11.14v-.84h11.14c1.91,0,3.48,1.32,3.48,2.94v37.76c0,1.62-1.56,2.94-3.48,2.94Z"/>
      </g>
      <rect class="cls-17" x="11.9" y="304.39" width="24.02" height="26.94"/>
      <rect class="cls-11" x="15.4" y="304.39" width="17.01" height="26.94"/>
    </g>
    <g>
      <path class="cls-6" d="m39.51,403.23c-8.41,0-15.22-6.1-15.22-13.62s6.81-13.62,15.22-13.62,15.22,6.1,15.22,13.62-6.81,13.62-15.22,13.62Z"/>
      <path class="cls-17" d="m39.51,401.26c-7.19,0-13.02-5.22-13.02-11.65s5.83-11.65,13.02-11.65,13.02,5.22,13.02,11.65-5.83,11.65-13.02,11.65Z"/>
      <path class="cls-11" d="m39.51,397.68c-4.98,0-9.01-3.61-9.01-8.06s4.04-8.06,9.01-8.06,9.01,3.61,9.01,8.06-4.04,8.06-9.01,8.06Z"/>
      <path class="cls-14" d="m39.51,391.06c-4.98,0-9.01-.65-9.01-1.45s4.04-1.45,9.01-1.45,9.01.65,9.01,1.45-4.04,1.45-9.01,1.45Z"/>
    </g>
    <g>
      <path class="cls-12" d="m368.75,219.49h9.56v6.24h-9.56c-.24,0-.45.28-.45.62v56.13c0,.34.2.62.45.62h10v6.24h-10c-2.7,0-4.9-3.08-4.9-6.86v-56.13c0-3.79,2.2-6.86,4.9-6.86Z"/>
      <path class="cls-35" d="m368.75,221.98h9.56v1.25h-9.56c-1.23,0-2.23,1.4-2.23,3.11v56.13c0,1.72,1,3.12,2.23,3.12h10v1.25h-10c-1.72,0-3.12-1.96-3.12-4.37v-56.13c0-2.41,1.4-4.37,3.12-4.37h0Z"/>
    </g>
    <g>
      <path class="cls-6" d="m234.91,35.11c-8.41,0-15.22-6.1-15.22-13.62s6.81-13.62,15.22-13.62,15.22,6.1,15.22,13.62-6.81,13.62-15.22,13.62h0Z"/>
      <path class="cls-17" d="m234.91,33.14c-7.19,0-13.02-5.22-13.02-11.65s5.83-11.65,13.02-11.65,13.02,5.22,13.02,11.65-5.83,11.65-13.02,11.65h0Z"/>
      <path class="cls-11" d="m234.91,29.56c-4.98,0-9.01-3.61-9.01-8.06s4.04-8.06,9.01-8.06,9.01,3.61,9.01,8.06-4.04,8.06-9.01,8.06Z"/>
      <path class="cls-14" d="m234.91,22.94c-4.98,0-9.01-.65-9.01-1.45s4.04-1.45,9.01-1.45,9.01.65,9.01,1.45-4.04,1.45-9.01,1.45Z"/>
    </g>
    <g id="t-paper-2">
      <g>
        <path class="cls-12" d="m374.94,154.95v8.68h-6.2v-8.68c0-.22-.28-.41-.62-.41h-55.83c-.34,0-.62.18-.62.41v9.08h-6.2v-9.08c0-2.45,3.06-4.44,6.82-4.44h55.83c3.76,0,6.82,1.99,6.82,4.44h0Z"/>
        <path class="cls-35" d="m372.46,154.95v8.68h-1.24v-8.68c0-1.11-1.39-2.02-3.1-2.02h-55.83c-1.71,0-3.1.91-3.1,2.02v9.08h-1.24v-9.08c0-1.56,1.95-2.83,4.34-2.83h55.83c2.39,0,4.34,1.27,4.34,2.83h0Z"/>
      </g>
      <rect class="cls-17" x="320.77" y="142.74" width="39.83" height="19.57"/>
      <rect class="cls-11" x="320.77" y="145.59" width="39.83" height="13.86"/>
    </g>
    <g>
      <rect class="cls-13" x="101.24" y="255.69" width="92.82" height="83.05"/>
      <g class="cls-22">
        <polygon class="cls-5" points="106.26 273.06 174.89 334.47 189.05 334.47 106.26 260.4 106.26 273.06"/>
        <polygon class="cls-5" points="106.26 334.47 162.65 334.47 106.26 284.01 106.26 334.47"/>
      </g>
    </g>
    <g>
      <rect class="cls-13" x="101.24" y="339.57" width="92.82" height="83.04"/>
      <g class="cls-22">
        <polygon class="cls-5" points="106.26 356.94 174.89 418.34 189.05 418.34 106.26 344.28 106.26 356.94"/>
        <polygon class="cls-5" points="106.26 418.34 162.65 418.34 106.26 367.89 106.26 418.34"/>
      </g>
    </g>
    <g class="cls-38">
      <g>
        <rect class="cls-47" x="210.51" y="160.03" width="2.29" height="5.75"/>
        <path class="cls-3" d="m210.51,160.03c0,1.19.69,2.16,1.55,2.16h10.62c.86,0,1.55-.96,1.55-2.16h0c0-1.19-.69-2.16-1.55-2.16h-10.62c-.86,0-1.55.96-1.55,2.16h0Z"/>
        <path class="cls-45" d="m210.51,160.03c0,.49.67.89,1.5.89h10.22c.82,0,1.5-.4,1.5-.89h0c0-.49-.67-.89-1.5-.89h-10.22c-.82,0-1.5.4-1.5.89h0Z"/>
      </g>
      <polygon class="cls-49" points="205.25 160.65 205.25 164.87 282.9 164.87 282.9 160.65 287.89 160.65 287.89 170.9 200.26 170.9 200.26 160.65 205.25 160.65"/>
    </g>
    <rect class="cls-43" x="290.6" y="166.61" width="99.4" height="4.98"/>
  </g>
</svg>