<?xml version="1.0" encoding="UTF-8"?>
<svg xmlns="http://www.w3.org/2000/svg" xmlns:xlink="http://www.w3.org/1999/xlink" viewBox="0 0 157.9 149.53">
  <defs>
    <style>
      .cls-1 {
        fill: url(#linear-gradient-2);
      }

      .cls-2 {
        fill: #555;
      }

      .cls-3, .cls-4 {
        fill: #fff;
      }

      .cls-5, .cls-6 {
        fill: #ddd3cc;
        mix-blend-mode: multiply;
      }

      .cls-7, .cls-4, .cls-8, .cls-6, .cls-9 {
        fill-rule: evenodd;
      }

      .cls-7, .cls-10 {
        fill: #b3b6ba;
      }

      .cls-11 {
        isolation: isolate;
      }

      .cls-12 {
        fill: #e5576f;
      }

      .cls-13 {
        fill: #d6d8d8;
      }

      .cls-8 {
        fill: #d2d6d8;
      }

      .cls-14 {
        fill: #2a2a2a;
      }

      .cls-9, .cls-15 {
        fill: #e3e7e8;
      }

      .cls-16 {
        fill: #050200;
      }

      .cls-17 {
        fill: #01090c;
      }

      .cls-18 {
        fill: url(#Earthtone_21-2);
      }

      .cls-19 {
        fill: #f9ddcf;
        opacity: .5;
      }

      .cls-20 {
        clip-path: url(#clippath);
      }

      .cls-21 {
        fill: none;
      }

      .cls-22 {
        fill: #373737;
      }

      .cls-23 {
        fill: #999;
      }

      .cls-24 {
        fill: url(#Earthtone_21);
      }

      .cls-25 {
        fill: url(#linear-gradient-3);
      }

      .cls-26 {
        fill: url(#linear-gradient);
      }

      .cls-27 {
        fill: url(#linear-gradient-4);
      }

      .cls-28 {
        fill: #888;
      }
    </style>
    <clipPath id="clippath">
      <rect class="cls-21" y="3" width="157.9" height="99.31"/>
    </clipPath>
    <linearGradient id="Earthtone_21" data-name="Earthtone 21" x1="327.15" y1="-269.05" x2="210.2" y2="-141.16" gradientTransform="translate(-171.02 226.51)" gradientUnits="userSpaceOnUse">
      <stop offset="0" stop-color="#b85e42"/>
      <stop offset=".5" stop-color="#9f2214"/>
      <stop offset="1" stop-color="#700101"/>
    </linearGradient>
    <linearGradient id="Earthtone_21-2" data-name="Earthtone 21" x1="364.77" y1="-237.94" x2="247.82" y2="-110.05" xlink:href="#Earthtone_21"/>
    <linearGradient id="linear-gradient" x1="223.1" y1="-11.45" x2="223.1" y2="-34.14" gradientTransform="translate(300.13 61.48) rotate(-180)" gradientUnits="userSpaceOnUse">
      <stop offset="0" stop-color="#bfbfbf"/>
      <stop offset="1" stop-color="#aaa"/>
    </linearGradient>
    <linearGradient id="linear-gradient-2" x1="223.1" y1="-14.35" x2="223.1" y2="-31.23" gradientTransform="translate(300.13 61.48) rotate(-180)" gradientUnits="userSpaceOnUse">
      <stop offset="0" stop-color="#dadada"/>
      <stop offset="1" stop-color="#cacaca"/>
    </linearGradient>
    <linearGradient id="linear-gradient-3" x1="131.66" y1="14.79" x2="132.67" y2="117.5" gradientUnits="userSpaceOnUse">
      <stop offset="0" stop-color="#dcdcdc"/>
      <stop offset="1" stop-color="#aaa"/>
    </linearGradient>
    <linearGradient id="linear-gradient-4" x1="132.12" y1="19.39" x2="132.12" y2="89.93" gradientUnits="userSpaceOnUse">
      <stop offset="0" stop-color="#e8e8e8"/>
      <stop offset="1" stop-color="#d5d5d5"/>
    </linearGradient>
  </defs>
  <g class="cls-11">
    <g id="Layer_1" data-name="Layer 1">
      <g class="cls-20">
        <g>
          <rect class="cls-24" x="2.2" y="4.49" width="155.29" height="72.79"/>
          <path class="cls-19" d="m131.68,4.54H2.17v72.74h155.29V4.54h-25.78ZM28.54,52.67v-23.52h25.2v23.52h-25.2Zm25.79,0v-23.52h25.2v23.52h-25.2Zm25.78,0v-23.52h25.2v23.52h-25.2Zm25.79,0v-23.52h25.2v23.52h-25.2Zm25.2-47.59v23.53h-25.2V5.08h25.2Zm-25.79,0v23.53h-25.2V5.08h25.2Zm-25.79,0v23.53h-25.2V5.08h25.2Zm-25.79,0v23.53h-25.2V5.08h25.2ZM2.75,5.08h25.21v23.53H2.75V5.08Zm0,24.07h25.21v23.52H2.75v-23.52Zm0,47.59v-23.53h25.21v23.53H2.75Zm25.79,0v-23.53h25.2v23.53h-25.2Zm25.79,0v-23.53h25.2v23.53h-25.2Zm25.78,0v-23.53h25.2v23.53h-25.2Zm25.79,0v-23.53h25.2v23.53h-25.2Zm50.99,0h-25.2v-23.53h25.2v23.53Zm0-24.07h-25.2v-23.52h25.2v23.52Zm-25.2-24.06V5.08h25.2v23.53h-25.2Z"/>
          <rect class="cls-18" x="2.2" y="76.74" width="155.29" height="72.79"/>
          <path class="cls-19" d="m131.68,76.78H2.17v72.75h155.29v-72.75h-25.78ZM28.54,124.92v-23.52h25.2v23.52h-25.2Zm25.79,0v-23.52h25.2v23.52h-25.2Zm25.78,0v-23.52h25.2v23.52h-25.2Zm25.79,0v-23.52h25.2v23.52h-25.2Zm25.2-47.59v23.53h-25.2v-23.53h25.2Zm-25.79,0v23.53h-25.2v-23.53h25.2Zm-25.79,0v23.53h-25.2v-23.53h25.2Zm-25.79,0v23.53h-25.2v-23.53h25.2Zm-50.99,0h25.21v23.53H2.75v-23.53Zm0,24.07h25.21v23.52H2.75v-23.52Zm0,47.59v-23.53h25.21v23.53H2.75Zm25.79,0v-23.53h25.2v23.53h-25.2Zm25.79,0v-23.53h25.2v23.53h-25.2Zm25.78,0v-23.53h25.2v23.53h-25.2Zm25.79,0v-23.53h25.2v23.53h-25.2Zm50.99,0h-25.2v-23.53h25.2v23.53Zm0-24.07h-25.2v-23.52h25.2v23.52Zm-25.2-24.06v-23.53h25.2v23.53h-25.2Z"/>
        </g>
      </g>
      <path class="cls-6" d="m39.3,10.63H10.13c-3.3,0-3.86.52-3.86,3.62v32.47c0,3.1.55,3.63,3.86,3.63h29.17c3.3,0,3.86-.53,3.86-3.63V14.25c0-3.1-.55-3.62-3.86-3.62Z"/>
      <path class="cls-6" d="m37.51,8.95H8.34c-3.3,0-3.86.52-3.86,3.62v32.47c0,3.1.55,3.62,3.86,3.62h29.17c3.3,0,3.86-.52,3.86-3.62V12.57c0-3.1-.55-3.62-3.86-3.62Z"/>
      <path class="cls-5" d="m32.1,56.46l-14.46-1.09c-1.34,0-2.48.79-2.95,1.9-.99-1.44-2.71-2.41-4.67-2.41-.22,0-.43.04-.64.06-.21-.02-.42-.06-.64-.06h-4.12c-.48,0-.86.36-.86.81v22.24c0,.45.39.81.86.81h4.12c.22,0,.43-.04.64-.06.21.02.42.06.64.06,1.95,0,3.67-.97,4.67-2.41.46,1.11,1.61,1.9,2.95,1.9l14.46-1.09c6.71-.63,11-4.05,11-10.33s-4.29-9.68-11-10.33Z"/>
      <path class="cls-5" d="m31.21,54.87l-14.46-1.09c-1.34,0-2.48.79-2.95,1.9-.99-1.44-2.71-2.41-4.67-2.41-.22,0-.43.04-.64.06-.21-.02-.42-.06-.64-.06H3.74c-.48,0-.86.36-.86.81v22.24c0,.45.39.81.86.81h4.12c.22,0,.43-.04.64-.06.21.02.42.06.64.06,1.95,0,3.67-.97,4.67-2.41.46,1.11,1.61,1.9,2.95,1.9l14.46-1.09c6.71-.63,11-4.05,11-10.33s-4.29-9.68-11-10.33Z"/>
      <path class="cls-6" d="m13.08,83.28c-.4-.79-1.23-1.33-2.21-1.33s-1.82.55-2.21,1.33h-4.52v15.1h46.13v-15.1H13.08Z"/>
      <path class="cls-6" d="m12.01,85.3c-.4-.79-1.23-1.33-2.21-1.33s-1.82.55-2.21,1.33H3.06v15.1h46.13v-15.1H12.01Z"/>
      <g>
        <path class="cls-15" d="m8.9,85.65c1.36,0,2.47,1.03,2.47,2.33s-1.1,2.31-2.47,2.31-2.47-1.04-2.47-2.31,1.11-2.33,2.47-2.33Z"/>
        <g>
          <rect class="cls-15" x="2.17" y="86.98" width="46.13" height="15.1"/>
          <rect class="cls-12" x="2.17" y="89.67" width="46.13" height="12.41"/>
        </g>
      </g>
      <path class="cls-5" d="m100.74,72.5c-15.62-5.16-28.59-5.16-44.21,0-.27.09-1.78.73-1.78,1.84v23.23c0,1.56,1.62,1.87,1.99,1.87h43.77c.37,0,1.99-.31,1.99-1.87v-23.23c0-1.13-1.5-1.75-1.77-1.84Z"/>
      <path class="cls-5" d="m100.21,73.88c-15.62-5.16-28.59-5.16-44.21,0-.27.09-1.78.73-1.78,1.84v23.23c0,1.56,1.62,1.87,1.99,1.87h43.77c.37,0,1.99-.31,1.99-1.87v-23.23c0-1.13-1.5-1.75-1.77-1.84Z"/>
      <g>
        <path class="cls-3" d="m54.92,74.68c15.62-5.16,28.59-5.16,44.21,0,.27.09,1.77.71,1.77,1.84v23.23c0,1.56-1.62,1.87-1.99,1.87h-43.77c-.37,0-1.99-.32-1.99-1.87v-23.23c0-1.11,1.5-1.75,1.78-1.84Z"/>
        <g>
          <path class="cls-26" d="m58.14,76.26c13.48-4.45,24.31-4.45,37.78,0,.23.08,1.71.53,1.71,1.76v17.6h-41.21v-17.6c0-1.07,1.48-1.68,1.71-1.76Z"/>
          <path class="cls-1" d="m60.57,78.31c10.97-3.31,21.95-3.31,32.92,0,.19.06.32.21.32.39v14.01h-33.56v-14.01c0-.17.13-.33.32-.39Z"/>
          <path class="cls-22" d="m74.59,89.23c0-1.26,1.09-2.29,2.44-2.29s2.44,1.03,2.44,2.29-1.09,2.29-2.44,2.29-2.44-1.02-2.44-2.29Z"/>
        </g>
        <g>
          <path class="cls-2" d="m75.82,91.92c0-.6.54-1.08,1.21-1.08h0c.67,0,1.21.49,1.21,1.08v3.83c0,.6-.54,1.08-1.21,1.08h0c-.67,0-1.21-.49-1.21-1.08v-3.83Z"/>
          <path class="cls-23" d="m75.96,92.05c0-.56.48-1.01,1.07-1.01h0c.59,0,1.07.45,1.07,1.01v3.57c0,.56-.48,1.01-1.07,1.01h0c-.59,0-1.07-.45-1.07-1.01v-3.57Z"/>
          <path class="cls-2" d="m74.8,97.71c0-1.19,1.03-2.15,2.29-2.15s2.29.96,2.29,2.15-1.03,2.15-2.29,2.15-2.29-.97-2.29-2.15Z"/>
          <path class="cls-23" d="m75.5,97.71c0-.83.72-1.5,1.6-1.5s1.6.67,1.6,1.5-.72,1.5-1.6,1.5-1.6-.67-1.6-1.5Z"/>
        </g>
      </g>
      <rect class="cls-5" x="101.25" y="6.75" width="51.14" height="95.23"/>
      <rect class="cls-5" x="104.81" y="6.75" width="51.14" height="95.23"/>
      <g>
        <rect class="cls-3" x="106.55" y="6.75" width="51.14" height="95.23"/>
        <path class="cls-25" d="m151.18,97.61h-38.12c-2.07,0-3.74-1.57-3.74-3.51V29.62c0-6.74,7.1-18.49,19.09-18.49h7.11c13.93,0,19.4,13.91,19.4,18.49v64.48c0,1.94-1.67,3.51-3.74,3.51Z"/>
        <path class="cls-27" d="m143.73,89.93h-23.22c-2.06,0-3.74-1.57-3.74-3.51v-53.92c0-5.69,5.79-13.11,15.4-13.11h-.04c9.37,0,15.34,8.48,15.34,13.11v53.92c0,1.94-1.67,3.51-3.74,3.51Z"/>
        <path class="cls-14" d="m134.85,81.67c0,1.42-1.22,2.57-2.73,2.57s-2.73-1.15-2.73-2.57,1.22-2.56,2.73-2.56,2.73,1.15,2.73,2.56Z"/>
      </g>
      <g>
        <g>
          <rect class="cls-3" x="48.76" y=".33" width="4" height="3.76"/>
          <path class="cls-16" d="m53.11,4.41h-4.7V0h4.7v4.41Zm-4-.66h3.3s0-3.1,0-3.1h-3.3s0,3.1,0,3.1Z"/>
        </g>
        <g>
          <rect class="cls-3" x="98.86" y=".33" width="4" height="3.76"/>
          <path class="cls-16" d="m103.21,4.41h-4.7V0s4.7,0,4.7,0v4.41Zm-4-.66h3.3s0-3.1,0-3.1h-3.3s0,3.1,0,3.1Z"/>
        </g>
        <g>
          <path class="cls-17" d="m91.25,43.27c-9.74-1.49-18.89-6.02-25.75-12.77-7.47-7.34-11.63-16.6-12.02-26.79h.23c.85,22.18,19.55,36.58,37.58,39.34l-.04.22Z"/>
          <polygon class="cls-17" points="94.64 43.55 90.13 41.16 91.01 43.12 89.64 44.8 94.64 43.55"/>
        </g>
        <g>
          <path class="cls-3" d="m97.35,43.99V2.4s-1.91,0-1.91,0v41.59s1.91,0,1.91,0Z"/>
          <path class="cls-16" d="m97.93,44.53h-3.07V1.85h3.07v42.68Zm-1.91-1.1h.75s0-40.49,0-40.49h-.75s0,40.49,0,40.49Z"/>
        </g>
      </g>
      <polygon class="cls-6" points="2.56 89.43 48.3 102.08 2.42 101.78 2.56 89.43"/>
      <g>
        <path class="cls-3" d="m12.86,55.08v16.88c0,1.64,1.43,2.98,3.17,2.98l14.46-1.09c6.71-.63,11-4.05,11-10.33h0c0-6.28-4.29-9.68-11-10.33l-14.46-1.09c-1.74,0-3.17,1.34-3.17,2.98Z"/>
        <path class="cls-13" d="m17.52,73.55l12.82-1.09c5.92-.87,9.52-3.43,9.52-8.94h0c0-5.52-3.75-8.39-9.52-8.95l-12.82-1.09v20.06Z"/>
        <path class="cls-10" d="m2.85,56.82v13.4c0,2.87,2.5,5.23,5.57,5.23h0c3.06,0,5.56-2.35,5.56-5.23v-13.4c0-2.87-2.5-5.23-5.56-5.23h0c-3.06,0-5.57,2.35-5.57,5.23Z"/>
        <path class="cls-3" d="m-3.9,58.09h22.97c.24,0,.44.2.44.44v7.68c0,1.51-1.23,2.74-2.74,2.74H-1.6c-1.51,0-2.74-1.23-2.74-2.74v-7.68c0-.24.2-.44.44-.44Z" transform="translate(-55.93 71.11) rotate(-90)"/>
        <path class="cls-28" d="m2.16,52.4v22.24c0,.45.39.81.86.81h.17c-.48,0-.86-.36-.86-.81v-22.24c0-.45.39-.81.86-.81h-.17c-.48,0-.86.36-.86.81Z"/>
        <path class="cls-2" d="m7.59,62.24c.75,0,1.36.57,1.36,1.28s-.61,1.28-1.36,1.28-1.36-.57-1.36-1.28.61-1.28,1.36-1.28Z"/>
      </g>
      <g>
        <path class="cls-2" d="m130.94,89.52c0-.63.57-1.15,1.28-1.15h0c.71,0,1.28.51,1.28,1.15v8.09c0,.63-.57,1.15-1.28,1.15h0c-.71,0-1.28-.51-1.28-1.15v-8.09Z"/>
        <path class="cls-23" d="m131.08,89.66c0-.59.51-1.07,1.14-1.07h0c.63,0,1.14.47,1.14,1.07v7.81c0,.59-.51,1.07-1.14,1.07h0c-.63,0-1.14-.48-1.14-1.07v-7.81Z"/>
        <path class="cls-2" d="m129.86,99.68c0-1.26,1.09-2.28,2.43-2.28s2.43,1.02,2.43,2.28-1.09,2.28-2.43,2.28-2.43-1.02-2.43-2.28Z"/>
        <path class="cls-23" d="m130.6,99.68c0-.88.76-1.59,1.69-1.59s1.69.71,1.69,1.59-.76,1.59-1.69,1.59-1.69-.71-1.69-1.59Z"/>
      </g>
      <g>
        <path class="cls-8" d="m39.04,10.39v32.47c0,3.1-.55,3.63-3.86,3.63H6.01c-3.3,0-3.86-.53-3.86-3.63V10.39c0-3.1.55-3.62,3.86-3.62h29.17c3.3,0,3.86.52,3.86,3.62Z"/>
        <path class="cls-7" d="m38.23,10.39c0-2.68-.19-2.86-3.04-2.86H6.01c-2.85,0-3.04.18-3.04,2.86v32.47c0,2.68.19,2.86,3.04,2.86h29.17c2.85,0,3.04-.18,3.04-2.86V10.39Z"/>
        <path class="cls-4" d="m37.42,10.39c0-2.26.17-2.1-2.24-2.1H6.01c-2.41,0-2.24-.16-2.24,2.1v32.47c0,2.26-.17,2.11,2.24,2.11h29.17c2.41,0,2.24.16,2.24-2.11V10.39Z"/>
        <path class="cls-9" d="m6.4,8.29h-.39c-2.41,0-2.24-.16-2.24,2.1v32.47c0,2.26-.17,2.11,2.24,2.11h29.17c1.77,0,2.14.07,2.22-.77C30.38,36.1,13.61,16.78,6.4,8.29Z"/>
      </g>
    </g>
  </g>
</svg>