<?xml version="1.0" encoding="UTF-8"?>
<svg xmlns="http://www.w3.org/2000/svg" xmlns:xlink="http://www.w3.org/1999/xlink" viewBox="0 0 459 495.565">
  <defs>
    <style>
      .cls-1 {
        fill: #8c6239;
      }

      .cls-2 {
        fill: #555;
      }

      .cls-3 {
        fill: #e2454a;
      }

      .cls-4, .cls-5 {
        fill: #fff;
      }

      .cls-6, .cls-7 {
        fill: #ddd3cc;
        mix-blend-mode: multiply;
      }

      .cls-8, .cls-5, .cls-9, .cls-7, .cls-10 {
        fill-rule: evenodd;
      }

      .cls-8, .cls-11 {
        fill: #b3b6ba;
      }

      .cls-12 {
        fill: url(#Sky-3);
      }

      .cls-12, .cls-13, .cls-14 {
        stroke: blue;
        stroke-miterlimit: 10;
        stroke-width: .25px;
      }

      .cls-15 {
        isolation: isolate;
      }

      .cls-16 {
        fill: #e5576f;
      }

      .cls-17 {
        opacity: .39;
      }

      .cls-13 {
        fill: url(#Sky-2);
      }

      .cls-9 {
        fill: #d2d6d8;
      }

      .cls-14 {
        fill: url(#Sky);
      }

      .cls-18 {
        fill: #2a2a2a;
      }

      .cls-10, .cls-19 {
        fill: #e3e7e8;
      }

      .cls-20 {
        clip-path: url(#clippath);
      }

      .cls-21 {
        fill: none;
      }

      .cls-22, .cls-23 {
        fill: #999;
      }

      .cls-23 {
        opacity: .38;
      }

      .cls-24 {
        fill: url(#Sky-4);
        opacity: .22;
      }

      .cls-25 {
        fill: url(#Sky-6);
      }

      .cls-26, .cls-27 {
        opacity: .17;
      }

      .cls-27 {
        fill: url(#Sky-5);
      }

      .cls-28 {
        fill: #888;
      }
    </style>
    <clipPath id="clippath">
      <rect class="cls-21" x="0" y="156.565" width="459" height="329.267"/>
    </clipPath>
    <linearGradient id="Sky" x1="393.372" y1="329.982" x2="393.372" y2="256.338" gradientTransform="translate(-158.438 -71.071)" gradientUnits="userSpaceOnUse">
      <stop offset="0" stop-color="#cce0f4"/>
      <stop offset=".064" stop-color="#c2dcf2"/>
      <stop offset=".171" stop-color="#a9d2ee"/>
      <stop offset=".307" stop-color="#7fc2e7"/>
      <stop offset=".465" stop-color="#46abdd"/>
      <stop offset=".567" stop-color="#1e9cd7"/>
      <stop offset=".865" stop-color="#0075be"/>
      <stop offset=".994" stop-color="#005b97"/>
    </linearGradient>
    <linearGradient id="Sky-2" data-name="Sky" x1="393.372" y1="320.541" x2="393.372" y2="265.786" xlink:href="#Sky"/>
    <linearGradient id="Sky-3" data-name="Sky" x1="342.136" y1="331.502" x2="356.99" y2="331.502" gradientTransform="translate(-96.565 555.565) rotate(-90)" xlink:href="#Sky"/>
    <linearGradient id="Sky-4" data-name="Sky" x1="497.436" y1="195.368" x2="500.702" y2="528.544" gradientTransform="translate(577.898 642.924) rotate(-180)" xlink:href="#Sky"/>
    <linearGradient id="Sky-5" data-name="Sky" x1="498.932" y1="210.272" x2="498.932" y2="439.204" gradientTransform="translate(577.898 642.924) rotate(-180)" xlink:href="#Sky"/>
    <linearGradient id="Sky-6" data-name="Sky" x1="233.563" y1="468.333" x2="298.671" y2="468.333" gradientTransform="translate(-96.565 555.565) rotate(-90)" xlink:href="#Sky"/>
  </defs>
  <g class="cls-15">
    <g id="Layer_1" data-name="Layer 1">
      <g class="cls-20">
        <g>
          <rect class="cls-23" x="1.189" y="239.552" width="451.421" height="241.328"/>
          <path class="cls-23" d="m76.214,480.732h1.683s73.278,0,73.278,0h1.677s73.298,0,73.298,0h1.661s73.281,0,73.281,0h1.677s73.281,0,73.281,0h1.686s74.958,0,74.958,0v-79.799s0-1.803,0-1.803v-77.983s0-1.803,0-1.803v-79.793s-74.958,0-74.958,0h-1.686s-73.281,0-73.281,0h-1.677s-73.281,0-73.281,0h-1.661s-73.298,0-73.298,0h-1.677s-73.278,0-73.278,0h-1.683s-74.948,0-74.948,0v79.793s0,1.803,0,1.803v77.983s0,1.803,0,1.803v79.799s74.948,0,74.948,0Zm299.835-159.585v77.983h-73.266v-77.983h73.266Zm-74.97,0v77.983h-73.253v-77.983h73.253Zm-74.946,0v77.983h-73.266v-77.983h73.266Zm-74.97,0v77.983h-73.266v-77.983h73.266Zm-73.266,157.788v-78.002h73.266v78.002h-73.266Zm74.97,0v-78.002h73.266v78.002h-73.266Zm74.958,0v-78.002h73.253v78.002h-73.253Zm74.958,0v-78.002h73.266v78.002h-73.266Zm148.224,0h-73.272v-78.002h73.272v78.002Zm0-79.805h-73.272v-77.983h73.272v77.983Zm0-157.789v78.003h-73.272v-78.003h73.272Zm-74.958,0v78.003h-73.266v-78.003h73.266Zm-74.97,0v78.003h-73.253v-78.003h73.253Zm-74.946,0v78.003h-73.266v-78.003h73.266Zm-74.97,0v78.003h-73.266v-78.003h73.266Zm-148.214,0h73.266v78.003H2.948v-78.003Zm0,79.806h73.266v77.983H2.948v-77.983Zm73.266,79.786v78.002H2.948v-78.002h73.266Z"/>
          <rect class="cls-23" x="1.189" y="0" width="451.421" height="241.341"/>
          <path class="cls-23" d="m76.214,241.194h1.683s73.278,0,73.278,0h1.677s73.298,0,73.298,0h1.661s73.281,0,73.281,0h1.677s73.281,0,73.281,0h1.686s74.958,0,74.958,0v-79.806s0-1.79,0-1.79v-77.996s0-1.796,0-1.796V0s-74.958,0-74.958,0h-1.686s-73.281,0-73.281,0h-1.677s-73.281,0-73.281,0h-1.661s-73.298,0-73.298,0h-1.677s-73.278,0-73.278,0h-1.683S1.266,0,1.266,0v79.806s0,1.796,0,1.796v77.996s0,1.79,0,1.79v79.806s74.948,0,74.948,0ZM376.049,81.602v77.996h-73.266v-77.996h73.266Zm-74.97,0v77.996h-73.253v-77.996h73.253Zm-74.946,0v77.996h-73.266v-77.996h73.266Zm-74.97,0v77.996h-73.266v-77.996h73.266Zm-73.266,157.795v-78.009h73.266v78.009h-73.266Zm74.97,0v-78.009h73.266v78.009h-73.266Zm74.958,0v-78.009h73.253v78.009h-73.253Zm74.958,0v-78.009h73.266v78.009h-73.266Zm148.224,0h-73.272v-78.009h73.272v78.009Zm0-79.799h-73.272v-77.996h73.272v77.996Zm0-157.795v78.002h-73.272V1.803h73.272Zm-74.958,0v78.002h-73.266V1.803h73.266Zm-74.97,0v78.002h-73.253V1.803h73.253Zm-74.946,0v78.002h-73.266V1.803h73.266Zm-74.97,0v78.002h-73.266V1.803h73.266Zm-148.214,0h73.266v78.002H2.948V1.803Zm0,79.799h73.266v77.996H2.948v-77.996Zm73.266,79.786v78.009H2.948v-78.009h73.266Z"/>
        </g>
      </g>
      <path class="cls-7" d="m341.734,461.064h82.592c9.355,0,10.923-1.687,10.923-11.755v-105.37c0-10.061-1.568-11.768-10.923-11.768h-82.592c-9.352,0-10.92,1.707-10.92,11.768v105.37c0,10.067,1.568,11.755,10.92,11.755Z"/>
      <path class="cls-7" d="m346.802,466.516h82.592c9.355,0,10.923-1.687,10.923-11.755v-105.376c0-10.061-1.568-11.761-10.923-11.761h-82.592c-9.352,0-10.92,1.7-10.92,11.761v105.376c0,10.067,1.568,11.755,10.92,11.755Z"/>
      <path class="cls-6" d="m362.121,312.338l40.941,3.528c3.786,0,7.031-2.563,8.346-6.162,2.812,4.685,7.678,7.818,13.211,7.818.618,0,1.206-.122,1.805-.198.603.07,1.187.198,1.805.198h11.187s.22,0,.22,0h.249c1.35,0,2.446-1.183,2.446-2.634v-.275s0-71.615,0-71.615v-.268c0-1.451-1.096-2.633-2.446-2.633h-.249s-.22,0-.22,0h-11.187c-.618,0-1.206.128-1.805.204-.6-.077-1.187-.204-1.805-.204-5.534,0-10.4,3.132-13.211,7.81-1.315-3.592-4.56-6.162-8.346-6.162l-40.941,3.534c-18.992,2.045-31.15,13.142-31.15,33.526,0,20.39,12.158,31.41,31.15,33.532Z"/>
      <path class="cls-6" d="m364.654,317.521l40.941,3.534c3.786,0,7.031-2.57,8.346-6.162,2.812,4.679,7.678,7.81,13.211,7.81.618,0,1.206-.128,1.805-.198.603.07,1.187.198,1.805.198h11.187s.22,0,.22,0h.249c1.35,0,2.446-1.182,2.446-2.633v-.268s0-71.621,0-71.621v-.268c0-1.451-1.096-2.634-2.446-2.634h-.249s-.22,0-.22,0h-11.187c-.618,0-1.206.128-1.805.198-.6-.07-1.187-.198-1.805-.198-5.534,0-10.4,3.133-13.211,7.811-1.315-3.592-4.56-6.162-8.346-6.162l-40.941,3.534c-18.992,2.045-31.15,13.142-31.15,33.526,0,20.39,12.158,31.41,31.15,33.532Z"/>
      <path class="cls-7" d="m415.966,225.299c1.122,2.551,3.479,4.327,6.262,4.327s5.139-1.776,6.264-4.327h12.805s0-8.718,0-8.718v-40.282s-130.603,0-130.603,0v40.282s0,8.718,0,8.718h105.272Z"/>
      <path class="cls-7" d="m419.006,218.754c1.122,2.551,3.479,4.327,6.262,4.327,2.779,0,5.139-1.776,6.264-4.327h12.805s0-8.718,0-8.718v-40.282s-130.603,0-130.603,0v40.282s0,8.718,0,8.718h105.272Z"/>
      <g>
        <path class="cls-19" d="m427.8,217.623c-3.86,0-6.983-3.356-6.983-7.555,0-4.123,3.123-7.492,6.983-7.492,3.854,0,6.989,3.369,6.989,7.492,0,4.199-3.135,7.555-6.989,7.555Z"/>
        <g>
          <rect class="cls-19" x="316.266" y="164.302" width="130.603" height="49"/>
          <rect class="cls-16" x="316.266" y="164.302" width="130.603" height="40.282"/>
        </g>
      </g>
      <path class="cls-6" d="m167.799,260.307c44.21,16.734,80.942,16.734,125.149,0,.769-.281,5.026-2.358,5.026-5.97v-75.373c0-5.05-4.593-6.072-5.644-6.072h-123.911c-1.054,0-5.641,1.016-5.641,6.072v75.373c0,3.656,4.255,5.689,5.021,5.97Z"/>
      <path class="cls-6" d="m169.32,255.807c44.21,16.734,80.942,16.734,125.149,0,.769-.281,5.026-2.358,5.026-5.97v-75.373c0-5.05-4.593-6.072-5.644-6.072h-123.911c-1.054,0-5.641,1.016-5.641,6.072v75.373c0,3.656,4.255,5.689,5.021,5.97Z"/>
      <g>
        <path class="cls-4" d="m297.509,253.213c-44.208,16.734-80.939,16.734-125.149,0-.765-.281-5.021-2.314-5.021-5.971v-75.373c0-5.05,4.587-6.072,5.641-6.072h123.911c1.051,0,5.644,1.029,5.644,6.072v75.373c0,3.618-4.257,5.689-5.026,5.971Z"/>
        <g class="cls-17">
          <path class="cls-14" d="m288.418,248.086c-38.147,14.432-68.816,14.432-106.964,0-.662-.249-4.851-1.719-4.851-5.702v-57.118h116.664v57.118c0,3.483-4.186,5.452-4.848,5.702Z"/>
          <path class="cls-13" d="m281.53,241.426c-31.061,10.725-62.128,10.725-93.191,0-.541-.192-.906-.691-.906-1.253v-45.459h95.002v45.459c0,.562-.368,1.061-.905,1.253Z"/>
          <path class="cls-12" d="m241.833,206.008c0,4.085-3.088,7.421-6.894,7.421-3.806,0-6.897-3.336-6.897-7.421,0-4.116,3.091-7.433,6.897-7.433,3.806,0,6.894,3.317,6.894,7.433Z"/>
        </g>
        <g>
          <path class="cls-1" d="m238.353,197.277c0,1.937-1.532,3.515-3.42,3.515h0c-1.888,0-3.417-1.579-3.417-3.515v-12.433c0-1.937,1.529-3.515,3.417-3.515h0c1.889,0,3.42,1.579,3.42,3.515v12.433Z"/>
          <path class="cls-1" d="m237.97,196.849c0,1.809-1.357,3.267-3.038,3.267h0c-1.677,0-3.037-1.458-3.037-3.267v-11.575c0-1.809,1.36-3.266,3.037-3.266h0c1.681,0,3.038,1.457,3.038,3.266v11.575Z"/>
          <path class="cls-1" d="m241.239,178.491c0,3.861-2.907,6.98-6.49,6.98-3.587,0-6.49-3.119-6.49-6.98,0-3.86,2.903-6.992,6.49-6.992,3.583,0,6.49,3.132,6.49,6.992Z"/>
          <path class="cls-1" d="m239.27,178.491c0,2.685-2.025,4.871-4.521,4.871-2.497,0-4.525-2.186-4.525-4.871,0-2.697,2.028-4.87,4.525-4.87,2.497,0,4.521,2.173,4.521,4.87Z"/>
        </g>
      </g>
      <rect class="cls-6" x="21.592" y="164.614" width="144.771" height="309.041"/>
      <rect class="cls-6" x="11.522" y="164.614" width="144.771" height="309.041"/>
      <g>
        <rect class="cls-4" x="6.581" y="164.614" width="144.771" height="309.041" transform="translate(157.934 638.27) rotate(-180)"/>
        <path class="cls-24" d="m25.012,178.798h107.905c5.852,0,10.59,5.101,10.59,11.403v209.257c0,21.886-20.094,60.014-54.049,60.014h-20.127c-39.442,0-54.91-45.14-54.91-60.014v-209.257c0-6.302,4.741-11.403,10.59-11.403Z"/>
        <path class="cls-27" d="m46.098,203.72h65.741c5.846,0,10.587,5.107,10.587,11.391v174.99c0,18.466-16.391,42.551-43.595,42.551h.101c-26.518,0-43.423-27.53-43.423-42.551v-174.99c0-6.283,4.741-11.391,10.59-11.391Z"/>
        <path class="cls-18" d="m71.236,230.522c0-4.603,3.459-8.329,7.728-8.329,4.275,0,7.731,3.726,7.731,8.329,0,4.589-3.456,8.322-7.731,8.322s-7.728-3.733-7.728-8.322Z"/>
      </g>
      <g>
        <g>
          <rect class="cls-3" x="303.638" y="482.308" width="11.318" height="12.189"/>
          <path class="cls-3" d="m302.64,481.247h13.301v14.318h-13.301v-14.318Zm11.323,2.142h-9.341s0,10.048,0,10.048h9.341s0-10.048,0-10.048Z"/>
        </g>
        <g>
          <rect class="cls-3" x="161.812" y="482.308" width="11.321" height="12.189"/>
          <path class="cls-3" d="m160.827,481.247h13.295s.005,14.318.005,14.318h-13.301v-14.318Zm11.318,2.142h-9.341s0,10.048,0,10.048h9.346s-.005-10.048-.005-10.048Z"/>
        </g>
        <g>
          <path class="cls-3" d="m194.672,355.142c27.576,4.832,53.464,19.546,72.911,41.426,21.157,23.81,32.92,53.864,34.024,86.936l-.653.026c-2.411-71.998-55.34-118.736-106.388-127.685l.106-.703Z"/>
          <polygon class="cls-3" points="185.077 354.234 197.832 362.007 195.344 355.641 199.239 350.169 185.077 354.234"/>
        </g>
        <g>
          <path class="cls-3" d="m177.399,352.828v134.958s5.404,0,5.404,0v-134.958s-5.404,0-5.404,0Z"/>
          <path class="cls-3" d="m175.748,351.051h8.699v138.506h-8.699v-138.506Zm5.41,3.554h-2.114s0,131.404,0,131.404h2.114s0-131.404,0-131.404Z"/>
        </g>
      </g>
      <polygon class="cls-7" points="445.759 205.363 316.266 164.302 446.142 165.273 445.759 205.363"/>
      <g>
        <path class="cls-4" d="m416.607,316.831v-54.779c0-5.318-4.047-9.671-8.984-9.671l-40.941,3.534c-18.992,2.045-31.15,13.142-31.15,33.526h0c0,20.39,12.158,31.41,31.15,33.532l40.941,3.528c4.937,0,8.984-4.346,8.984-9.671Z"/>
        <g class="cls-26">
          <path class="cls-25" d="m403.389,256.894l-36.283,3.521c-16.753,2.838-26.96,11.122-26.96,29.026h0c0,17.91,10.617,27.217,26.96,29.032l36.283,3.528v-65.107Z"/>
        </g>
        <path class="cls-11" d="m444.936,311.193v-43.497c0-9.326-7.087-16.963-15.756-16.963h0c-8.663,0-15.753,7.638-15.753,16.963v43.497c0,9.326,7.09,16.964,15.753,16.964h0c8.669,0,15.756-7.638,15.756-16.964Z"/>
        <path class="cls-4" d="m393.248,274.069h76.538c.245,0,.443.199.443.443v27.57c0,1.511-1.227,2.738-2.738,2.738h-71.948c-1.511,0-2.738-1.227-2.738-2.738v-27.57c0-.245.199-.443.443-.443Z" transform="translate(720.962 -142.072) rotate(90)"/>
        <path class="cls-28" d="m446.893,325.524v-72.158c0-1.451-1.096-2.633-2.446-2.633h-.469c1.348,0,2.444,1.182,2.444,2.633v72.158c0,1.451-1.096,2.634-2.444,2.634h.469c1.35,0,2.446-1.183,2.446-2.634Z"/>
        <path class="cls-2" d="m431.514,293.596c-2.126,0-3.848-1.86-3.848-4.155,0-2.288,1.722-4.142,3.848-4.142,2.132,0,3.854,1.854,3.854,4.142,0,2.295-1.722,4.155-3.854,4.155Z"/>
      </g>
      <g>
        <path class="cls-2" d="m82.315,205.056c0,2.058-1.621,3.727-3.619,3.727h0c-2.001,0-3.619-1.668-3.619-3.727v-26.245c0-2.058,1.618-3.727,3.619-3.727h0c1.998,0,3.619,1.668,3.619,3.727v26.245Z"/>
        <path class="cls-22" d="m81.912,204.609c0,1.917-1.437,3.458-3.215,3.458h0c-1.775,0-3.215-1.541-3.215-3.458v-25.351c0-1.911,1.44-3.458,3.215-3.458h0c1.779,0,3.215,1.547,3.215,3.458v25.351Z"/>
        <path class="cls-2" d="m85.371,172.081c0,4.091-3.076,7.389-6.87,7.389-3.797,0-6.87-3.298-6.87-7.389,0-4.091,3.073-7.396,6.87-7.396s6.87,3.305,6.87,7.396Z"/>
        <path class="cls-22" d="m83.286,172.081c0,2.844-2.143,5.152-4.786,5.152s-4.789-2.308-4.789-5.152c0-2.845,2.146-5.152,4.789-5.152s4.786,2.308,4.786,5.152Z"/>
      </g>
      <g>
        <path class="cls-9" d="m342.467,461.856v-105.37c0-10.061,1.568-11.768,10.92-11.768h82.592c9.355,0,10.923,1.707,10.923,11.768v105.37c0,10.067-1.568,11.755-10.923,11.755h-82.592c-9.352,0-10.92-1.687-10.92-11.755Z"/>
        <path class="cls-8" d="m344.777,461.856c0,8.693.538,9.268,8.61,9.268h82.592c8.075,0,8.613-.575,8.613-9.268v-105.37c0-8.693-.534-9.268-8.613-9.268h-82.592c-8.072,0-8.61.575-8.61,9.268v105.37Z"/>
        <path class="cls-5" d="m347.051,461.856c0,7.344-.481,6.82,6.336,6.82h82.592c6.82,0,6.336.524,6.336-6.82v-105.37c0-7.344.487-6.833-6.336-6.833h-82.592c-6.82,0-6.336-.511-6.336,6.833v105.37Z"/>
        <path class="cls-10" d="m434.878,468.676h1.102c6.82,0,6.336.524,6.336-6.82v-105.37c0-7.344.487-6.833-6.336-6.833h-82.592c-4.997,0-6.063-.243-6.282,2.506,19.897,26.245,67.374,88.95,87.773,116.518Z"/>
      </g>
    </g>
  </g>
</svg>