<?xml version="1.0" encoding="UTF-8"?>
<svg xmlns="http://www.w3.org/2000/svg" xmlns:xlink="http://www.w3.org/1999/xlink" viewBox="0 0 297.57 559.18">
  <defs>
    <style>
      .cls-1 {
        fill: #b7b7b7;
      }

      .cls-2 {
        fill: url(#linear-gradient-3);
      }

      .cls-2, .cls-3 {
        mix-blend-mode: multiply;
      }

      .cls-4 {
        fill: #ddd;
      }

      .cls-5 {
        fill: #e9e9e9;
      }

      .cls-6 {
        fill: url(#linear-gradient-2);
      }

      .cls-7 {
        fill: #f0f0f0;
      }

      .cls-8 {
        fill: #f4f4f4;
      }

      .cls-9 {
        fill: #fff;
      }

      .cls-10 {
        fill: #c5c5c5;
      }

      .cls-11 {
        fill: #cbcbcb;
      }

      .cls-12 {
        fill: #d1d1d1;
      }

      .cls-13 {
        fill: #fafafa;
      }

      .cls-14 {
        fill: #dbdbdb;
      }

      .cls-15 {
        fill: #cacaca;
      }

      .cls-16 {
        fill: #d8d8d8;
      }

      .cls-17 {
        fill: #f6f6f6;
      }

      .cls-18 {
        fill: #bfbfbf;
      }

      .cls-19 {
        fill: #939598;
      }

      .cls-20 {
        fill: silver;
      }

      .cls-21 {
        fill: #e2e2e2;
      }

      .cls-22 {
        fill: #f5f5f5;
      }

      .cls-23 {
        fill: #b2b2b2;
      }

      .cls-24 {
        fill: #bababa;
      }

      .cls-25 {
        isolation: isolate;
      }

      .cls-26 {
        fill: #c9c9c8;
      }

      .cls-27 {
        fill: #d6d6d6;
      }

      .cls-28 {
        fill: #b4b4b4;
      }

      .cls-29 {
        fill: #c9c9c9;
      }

      .cls-30 {
        fill: #acacab;
      }

      .cls-31 {
        fill: #e0e0e0;
      }

      .cls-32 {
        fill: #c7c7c7;
      }

      .cls-33 {
        fill: #dedede;
      }

      .cls-34 {
        fill: #b3b3b2;
      }

      .cls-35 {
        fill: #c3c3c3;
      }

      .cls-36 {
        fill: #cfcfcf;
      }

      .cls-37 {
        fill: #d7d7d7;
      }

      .cls-38 {
        fill: #bdbdbd;
      }

      .cls-39 {
        fill: #9d9d9c;
      }

      .cls-40 {
        fill: #e1e1e1;
      }

      .cls-41 {
        fill: #e6e6e6;
      }

      .cls-42 {
        fill: #e7e7e7;
      }

      .cls-43 {
        fill: #d4d4d4;
      }

      .cls-44 {
        fill: #dadada;
      }

      .cls-45 {
        fill: #b8b8b8;
      }

      .cls-46 {
        fill: #eaeaea;
      }

      .cls-47 {
        fill: #c8c8c8;
      }

      .cls-48 {
        fill: #fdfdfd;
      }

      .cls-49 {
        fill: #a4a4a3;
      }

      .cls-50 {
        fill: #e4e4e4;
      }

      .cls-51 {
        fill: none;
        stroke: #949494;
        stroke-linecap: round;
        stroke-linejoin: round;
        stroke-width: .03px;
      }

      .cls-52 {
        fill: #fbfbfb;
      }

      .cls-53 {
        fill: #babab9;
      }

      .cls-54 {
        fill: #f9f9f9;
      }

      .cls-55 {
        fill: #72a6bf;
      }

      .cls-56 {
        fill: #e5e5e5;
      }

      .cls-57 {
        fill: #d16660;
      }

      .cls-58 {
        fill: #b6b6b6;
      }

      .cls-59 {
        fill: #d3d3d3;
      }

      .cls-60 {
        fill: #ebebeb;
      }

      .cls-61 {
        fill: #bebebe;
      }

      .cls-62 {
        fill: #d5d5d5;
      }

      .cls-63 {
        fill: #dcdcdc;
      }

      .cls-64 {
        fill: #c1c1c1;
      }

      .cls-65 {
        fill: #bcbcbc;
      }

      .cls-66 {
        fill: #e8e8e8;
      }

      .cls-67 {
        fill: #ccc;
      }

      .cls-68 {
        fill: #bbb;
      }

      .cls-69 {
        fill: #f7f7f7;
      }

      .cls-70 {
        fill: #b3b3b3;
      }

      .cls-71 {
        fill: #efefef;
      }

      .cls-72 {
        fill: #c2c2c2;
      }

      .cls-73 {
        fill: #f1f1f1;
      }

      .cls-74 {
        fill: #cecece;
      }

      .cls-75 {
        fill: url(#linear-gradient);
      }

      .cls-76 {
        fill: #f3f3f3;
      }

      .cls-77 {
        fill: #b5b5b5;
      }

      .cls-78 {
        fill: #d9d9d9;
      }

      .cls-79 {
        fill: #cdcdcd;
      }

      .cls-80 {
        fill: #f8f8f8;
      }

      .cls-81 {
        fill: #d2d2d2;
      }

      .cls-82 {
        fill: #c6c6c6;
      }

      .cls-83 {
        fill: #eee;
      }

      .cls-84 {
        fill: #d0d0d0;
      }

      .cls-85 {
        fill: #ececec;
      }

      .cls-86 {
        fill: #f2f2f2;
      }

      .cls-87 {
        fill: #c4c4c4;
      }

      .cls-88 {
        fill: #b9b9b9;
      }

      .cls-89 {
        fill: #fefefe;
      }

      .cls-90 {
        fill: #e3e3e3;
      }

      .cls-91 {
        fill: #fcfcfc;
      }

      .cls-92 {
        fill: #ededed;
      }

      .cls-93 {
        fill: #dfdfdf;
      }
    </style>
    <linearGradient id="linear-gradient" x1="376.43" y1="628.17" x2="455.93" y2="628.17" gradientTransform="translate(-578.92 674.8) rotate(-89.4)" gradientUnits="userSpaceOnUse">
      <stop offset="0" stop-color="#bfbfbe"/>
      <stop offset=".57" stop-color="#fff"/>
      <stop offset="1" stop-color="#c9c9c8"/>
    </linearGradient>
    <linearGradient id="linear-gradient-2" x1="415.95" y1="707.14" x2="415.95" y2="624.18" xlink:href="#linear-gradient"/>
    <linearGradient id="linear-gradient-3" x1="263.93" y1="167.39" x2="111.54" y2="323.35" gradientUnits="userSpaceOnUse">
      <stop offset="0" stop-color="#e0e0e0"/>
      <stop offset="1" stop-color="#fff"/>
    </linearGradient>
  </defs>
  <g class="cls-25">
    <g id="Layer_1" data-name="Layer 1">
      <g>
        <g class="cls-3">
          <path class="cls-9" d="m129.22,28.78C57.85,28.78,0,147.51,0,293.98s57.85,265.2,129.22,265.2,129.22-118.73,129.22-265.2S200.58,28.78,129.22,28.78Z"/>
          <path class="cls-89" d="m129.9,28.28C58.52,28.28.67,147.01.67,293.49s57.85,265.2,129.22,265.2,129.22-118.73,129.22-265.2S201.25,28.28,129.9,28.28Z"/>
          <path class="cls-48" d="m130.57,27.79C59.2,27.79,1.35,146.52,1.35,292.99s57.85,265.2,129.22,265.2,129.22-118.73,129.22-265.2S201.93,27.79,130.57,27.79Z"/>
          <path class="cls-91" d="m131.25,27.29C59.87,27.29,2.02,146.02,2.02,292.5s57.85,265.2,129.22,265.2,129.22-118.73,129.22-265.2S202.6,27.29,131.25,27.29Z"/>
          <path class="cls-52" d="m131.92,26.79C60.55,26.79,2.7,145.53,2.7,292s57.85,265.2,129.22,265.2,129.22-118.73,129.22-265.2S203.28,26.79,131.92,26.79Z"/>
          <path class="cls-13" d="m132.59,26.3C61.22,26.3,3.37,145.03,3.37,291.5s57.85,265.2,129.22,265.2,129.22-118.73,129.22-265.2S203.95,26.3,132.59,26.3Z"/>
          <path class="cls-54" d="m133.27,25.8C61.89,25.8,4.05,144.54,4.05,291.01s57.85,265.2,129.22,265.2,129.22-118.73,129.22-265.2S204.62,25.8,133.27,25.8Z"/>
          <path class="cls-80" d="m133.94,25.31C62.57,25.31,4.72,144.04,4.72,290.51s57.85,265.2,129.22,265.2,129.22-118.73,129.22-265.2S205.3,25.31,133.94,25.31Z"/>
          <path class="cls-69" d="m134.62,24.81C63.24,24.81,5.4,143.54,5.4,290.02s57.85,265.2,129.22,265.2,129.22-118.73,129.22-265.2S205.97,24.81,134.62,24.81Z"/>
          <path class="cls-17" d="m135.29,24.31C63.92,24.31,6.07,143.05,6.07,289.52s57.85,265.2,129.22,265.2,129.22-118.73,129.22-265.2S206.65,24.31,135.29,24.31Z"/>
          <path class="cls-22" d="m135.97,23.82C64.59,23.82,6.75,142.55,6.75,289.02s57.85,265.2,129.22,265.2,129.22-118.73,129.22-265.2S207.32,23.82,135.97,23.82Z"/>
          <path class="cls-8" d="m136.64,23.32C65.27,23.32,7.42,142.06,7.42,288.53s57.85,265.2,129.22,265.2,129.22-118.73,129.22-265.2S208,23.32,136.64,23.32Z"/>
          <path class="cls-76" d="m137.32,22.83C65.94,22.83,8.09,141.56,8.09,288.03s57.85,265.2,129.22,265.2,129.22-118.73,129.22-265.2S208.67,22.83,137.32,22.83Z"/>
          <path class="cls-86" d="m137.99,22.33C66.62,22.33,8.77,141.06,8.77,287.54s57.85,265.2,129.22,265.2,129.22-118.73,129.22-265.2S209.35,22.33,137.99,22.33Z"/>
          <path class="cls-73" d="m138.66,21.83C67.29,21.83,9.44,140.57,9.44,287.04s57.85,265.2,129.22,265.2,129.22-118.73,129.22-265.2S210.02,21.83,138.66,21.83Z"/>
          <path class="cls-7" d="m139.34,21.34C67.97,21.34,10.12,140.07,10.12,286.54s57.85,265.2,129.22,265.2,129.22-118.73,129.22-265.2S210.7,21.34,139.34,21.34Z"/>
          <path class="cls-71" d="m140.01,20.84C68.64,20.84,10.79,139.58,10.79,286.05s57.85,265.2,129.22,265.2,129.22-118.73,129.22-265.2S211.37,20.84,140.01,20.84Z"/>
          <path class="cls-83" d="m140.69,20.35C69.31,20.35,11.47,139.08,11.47,285.55s57.85,265.2,129.22,265.2,129.22-118.73,129.22-265.2S212.04,20.35,140.69,20.35Z"/>
          <path class="cls-92" d="m141.36,19.85C69.99,19.85,12.14,138.58,12.14,285.06s57.85,265.2,129.22,265.2,129.22-118.73,129.22-265.2S212.72,19.85,141.36,19.85Z"/>
          <path class="cls-85" d="m142.04,19.36C70.66,19.36,12.82,138.09,12.82,284.56s57.85,265.2,129.22,265.2,129.22-118.73,129.22-265.2S213.39,19.36,142.04,19.36Z"/>
          <path class="cls-60" d="m142.71,18.86C71.34,18.86,13.49,137.59,13.49,284.06s57.85,265.2,129.22,265.2,129.22-118.73,129.22-265.2S214.07,18.86,142.71,18.86Z"/>
          <path class="cls-46" d="m143.39,18.36C72.01,18.36,14.17,137.1,14.17,283.57s57.85,265.2,129.22,265.2,129.22-118.73,129.22-265.2S214.74,18.36,143.39,18.36Z"/>
          <path class="cls-5" d="m144.06,17.87C72.69,17.87,14.84,136.6,14.84,283.07s57.85,265.2,129.22,265.2,129.22-118.73,129.22-265.2S215.42,17.87,144.06,17.87Z"/>
          <path class="cls-66" d="m144.73,17.37C73.36,17.37,15.51,136.1,15.51,282.58s57.85,265.2,129.22,265.2,129.22-118.73,129.22-265.2S216.09,17.37,144.73,17.37Z"/>
          <path class="cls-42" d="m145.41,16.88c-71.37,0-129.22,118.73-129.22,265.21s57.85,265.2,129.22,265.2,129.22-118.73,129.22-265.2S216.77,16.88,145.41,16.88Z"/>
          <path class="cls-41" d="m146.08,16.38c-71.37,0-129.22,118.73-129.22,265.21s57.85,265.2,129.22,265.2,129.22-118.73,129.22-265.2S217.44,16.38,146.08,16.38Z"/>
          <path class="cls-56" d="m146.76,15.88C75.39,15.88,17.54,134.62,17.54,281.09s57.85,265.2,129.22,265.2,129.22-118.73,129.22-265.2S218.12,15.88,146.76,15.88Z"/>
          <path class="cls-50" d="m147.43,15.39C76.06,15.39,18.21,134.12,18.21,280.59s57.85,265.2,129.22,265.2,129.22-118.73,129.22-265.2S218.79,15.39,147.43,15.39Z"/>
          <path class="cls-90" d="m148.11,14.89C76.73,14.89,18.89,133.62,18.89,280.1s57.85,265.2,129.22,265.2,129.22-118.73,129.22-265.2S219.46,14.89,148.11,14.89Z"/>
          <path class="cls-21" d="m148.78,14.4C77.41,14.4,19.56,133.13,19.56,279.6s57.85,265.2,129.22,265.2,129.22-118.73,129.22-265.2S220.14,14.4,148.78,14.4Z"/>
          <path class="cls-21" d="m149.46,13.9C78.08,13.9,20.24,132.63,20.24,279.11s57.85,265.2,129.22,265.2,129.22-118.73,129.22-265.2S220.81,13.9,149.46,13.9Z"/>
          <path class="cls-40" d="m150.13,13.4C78.76,13.4,20.91,132.14,20.91,278.61s57.85,265.2,129.22,265.2,129.22-118.73,129.22-265.2S221.49,13.4,150.13,13.4Z"/>
          <path class="cls-31" d="m150.8,12.91C79.43,12.91,21.58,131.64,21.58,278.11s57.85,265.2,129.22,265.2,129.22-118.73,129.22-265.2S222.16,12.91,150.8,12.91Z"/>
          <path class="cls-93" d="m151.48,12.41C80.11,12.41,22.26,131.15,22.26,277.62s57.85,265.2,129.22,265.2,129.22-118.73,129.22-265.2S222.84,12.41,151.48,12.41Z"/>
          <path class="cls-33" d="m152.15,11.92C80.78,11.92,22.93,130.65,22.93,277.12s57.85,265.2,129.22,265.2,129.22-118.73,129.22-265.2S223.51,11.92,152.15,11.92Z"/>
          <path class="cls-4" d="m152.83,11.42C81.46,11.42,23.61,130.15,23.61,276.63s57.85,265.2,129.22,265.2,129.22-118.73,129.22-265.2S224.19,11.42,152.83,11.42Z"/>
          <path class="cls-63" d="m153.5,10.92C82.13,10.92,24.28,129.66,24.28,276.13s57.85,265.2,129.22,265.2,129.22-118.73,129.22-265.2S224.86,10.92,153.5,10.92Z"/>
          <path class="cls-14" d="m154.18,10.43C82.81,10.43,24.96,129.16,24.96,275.63s57.85,265.2,129.22,265.2,129.22-118.73,129.22-265.2S225.54,10.43,154.18,10.43Z"/>
          <path class="cls-44" d="m154.85,9.93C83.48,9.93,25.63,128.67,25.63,275.14s57.85,265.2,129.22,265.2,129.22-118.73,129.22-265.2S226.21,9.93,154.85,9.93Z"/>
          <path class="cls-78" d="m155.53,9.44C84.15,9.44,26.31,128.17,26.31,274.64s57.85,265.2,129.22,265.2,129.22-118.73,129.22-265.2S226.88,9.44,155.53,9.44Z"/>
          <path class="cls-16" d="m156.2,8.94C84.83,8.94,26.98,127.67,26.98,274.15s57.85,265.2,129.22,265.2,129.22-118.73,129.22-265.2S227.56,8.94,156.2,8.94Z"/>
          <path class="cls-37" d="m156.87,8.44C85.5,8.44,27.66,127.18,27.66,273.65s57.85,265.2,129.22,265.2,129.22-118.73,129.22-265.2S228.23,8.44,156.87,8.44Z"/>
          <path class="cls-27" d="m157.55,7.95C86.18,7.95,28.33,126.68,28.33,273.15s57.85,265.2,129.22,265.2,129.22-118.73,129.22-265.2S228.91,7.95,157.55,7.95Z"/>
          <path class="cls-62" d="m158.22,7.45C86.85,7.45,29,126.19,29,272.66s57.85,265.2,129.22,265.2,129.22-118.73,129.22-265.2S229.58,7.45,158.22,7.45Z"/>
          <path class="cls-43" d="m158.9,6.96C87.53,6.96,29.68,125.69,29.68,272.16s57.85,265.2,129.22,265.2,129.22-118.73,129.22-265.2S230.26,6.96,158.9,6.96Z"/>
          <path class="cls-59" d="m159.57,6.46C88.2,6.46,30.35,125.19,30.35,271.67s57.85,265.2,129.22,265.2,129.22-118.73,129.22-265.2S230.93,6.46,159.57,6.46Z"/>
          <path class="cls-81" d="m160.25,5.96C88.88,5.96,31.03,124.7,31.03,271.17s57.85,265.2,129.22,265.2,129.22-118.73,129.22-265.2S231.61,5.96,160.25,5.96Z"/>
          <path class="cls-12" d="m160.92,5.47C89.55,5.47,31.7,124.2,31.7,270.67s57.85,265.2,129.22,265.2,129.22-118.73,129.22-265.2S232.28,5.47,160.92,5.47Z"/>
          <path class="cls-84" d="m161.6,4.97C90.22,4.97,32.38,123.71,32.38,270.18s57.85,265.2,129.22,265.2,129.22-118.73,129.22-265.2S232.95,4.97,161.6,4.97Z"/>
          <path class="cls-36" d="m162.27,4.48C90.9,4.48,33.05,123.21,33.05,269.68s57.85,265.2,129.22,265.2,129.22-118.73,129.22-265.2S233.63,4.48,162.27,4.48Z"/>
          <path class="cls-74" d="m162.94,3.98C91.57,3.98,33.73,122.71,33.73,269.19s57.85,265.2,129.22,265.2,129.22-118.73,129.22-265.2S234.3,3.98,162.94,3.98Z"/>
          <path class="cls-79" d="m163.62,3.49C92.25,3.49,34.4,122.22,34.4,268.69s57.85,265.2,129.22,265.2,129.22-118.73,129.22-265.2S234.98,3.49,163.62,3.49Z"/>
          <path class="cls-67" d="m164.29,2.99C92.92,2.99,35.08,121.72,35.08,268.19s57.85,265.2,129.22,265.2,129.22-118.73,129.22-265.2S235.65,2.99,164.29,2.99Z"/>
          <path class="cls-11" d="m164.97,2.49C93.6,2.49,35.75,121.23,35.75,267.7s57.85,265.2,129.22,265.2,129.22-118.73,129.22-265.2S236.33,2.49,164.97,2.49Z"/>
          <path class="cls-15" d="m165.64,2C94.27,2,36.42,120.73,36.42,267.2s57.85,265.2,129.22,265.2,129.22-118.73,129.22-265.2S237,2,165.64,2Z"/>
          <path class="cls-29" d="m166.32,1.5C94.95,1.5,37.1,120.23,37.1,266.71s57.85,265.2,129.22,265.2,129.22-118.73,129.22-265.2S237.68,1.5,166.32,1.5Z"/>
          <path class="cls-47" d="m166.99,1.01C95.62,1.01,37.77,119.74,37.77,266.21s57.85,265.2,129.22,265.2,129.22-118.73,129.22-265.2S238.35,1.01,166.99,1.01Z"/>
          <path class="cls-32" d="m167.67.51C96.3.51,38.45,119.24,38.45,265.71s57.85,265.2,129.22,265.2,129.22-118.73,129.22-265.2S239.03.51,167.67.51Z"/>
          <path class="cls-82" d="m168.34.01C96.97.01,39.12,118.75,39.12,265.22s57.85,265.2,129.22,265.2,129.22-118.73,129.22-265.2S239.7.01,168.34.01Z"/>
        </g>
        <g>
          <g>
            <path class="cls-82" d="m297.56,265.22c0,146.47-57.86,265.2-129.22,265.2S39.12,411.69,39.12,265.22,96.97.01,168.34.01s129.22,118.73,129.22,265.21Z"/>
            <path class="cls-32" d="m39.31,265.22C39.31,118.89,97.07.27,168.34.27s129.03,118.62,129.03,264.95-57.77,264.94-129.03,264.94S39.31,411.54,39.31,265.22Z"/>
            <path class="cls-47" d="m39.5,265.22C39.5,119.03,97.18.53,168.34.53s128.84,118.5,128.84,264.69-57.69,264.69-128.84,264.69S39.5,411.4,39.5,265.22Z"/>
            <path class="cls-29" d="m39.69,265.22C39.69,119.17,97.28.78,168.34.78s128.65,118.39,128.65,264.44-57.6,264.43-128.65,264.43S39.69,411.26,39.69,265.22Z"/>
            <path class="cls-15" d="m39.88,265.22C39.88,119.31,97.39,1.04,168.34,1.04s128.46,118.27,128.46,264.18-57.52,264.17-128.46,264.17S39.88,411.12,39.88,265.22Z"/>
            <path class="cls-11" d="m40.07,265.22C40.07,119.45,97.49,1.3,168.34,1.3s128.28,118.16,128.28,263.92-57.44,263.92-128.28,263.92S40.07,410.98,40.07,265.22Z"/>
            <path class="cls-67" d="m40.25,265.22C40.25,119.6,97.6,1.55,168.34,1.55s128.09,118.04,128.09,263.67-57.35,263.66-128.09,263.66S40.25,410.84,40.25,265.22Z"/>
            <path class="cls-79" d="m40.44,265.22C40.44,119.74,97.7,1.81,168.34,1.81s127.9,117.93,127.9,263.41-57.27,263.4-127.9,263.4-127.9-117.93-127.9-263.4Z"/>
            <path class="cls-74" d="m40.63,265.22C40.63,119.88,97.81,2.07,168.34,2.07s127.71,117.81,127.71,263.15-57.18,263.15-127.71,263.15-127.71-117.81-127.71-263.15Z"/>
            <path class="cls-36" d="m40.82,265.22C40.82,120.02,97.91,2.32,168.34,2.32s127.52,117.7,127.52,262.9-57.1,262.89-127.52,262.89-127.52-117.7-127.52-262.89Z"/>
            <path class="cls-84" d="m41.01,265.22C41.01,120.16,98.01,2.58,168.34,2.58s127.33,117.58,127.33,262.64-57.01,262.64-127.33,262.64-127.33-117.58-127.33-262.64Z"/>
            <path class="cls-12" d="m41.2,265.22C41.2,120.3,98.12,2.83,168.34,2.83s127.14,117.47,127.14,262.38-56.93,262.38-127.14,262.38-127.14-117.47-127.14-262.38Z"/>
            <path class="cls-81" d="m41.39,265.22C41.39,120.45,98.22,3.09,168.34,3.09s126.96,117.35,126.96,262.13-56.85,262.12-126.96,262.12-126.95-117.35-126.95-262.12Z"/>
            <path class="cls-59" d="m41.57,265.22C41.57,120.59,98.33,3.35,168.34,3.35s126.77,117.24,126.77,261.87-56.76,261.87-126.77,261.87-126.77-117.24-126.77-261.87Z"/>
            <path class="cls-43" d="m41.76,265.22C41.76,120.73,98.43,3.6,168.34,3.6s126.58,117.13,126.58,261.61-56.68,261.61-126.58,261.61-126.58-117.13-126.58-261.61Z"/>
            <path class="cls-62" d="m41.95,265.22C41.95,120.87,98.54,3.86,168.34,3.86s126.39,117.01,126.39,261.36-56.59,261.35-126.39,261.35-126.39-117.01-126.39-261.35Z"/>
            <path class="cls-27" d="m42.14,265.22C42.14,121.01,98.64,4.12,168.34,4.12s126.2,116.9,126.2,261.1-56.51,261.1-126.2,261.1-126.2-116.9-126.2-261.1Z"/>
            <path class="cls-37" d="m42.33,265.22C42.33,121.15,98.75,4.37,168.34,4.37s126.01,116.78,126.01,260.85-56.42,260.84-126.01,260.84-126.01-116.78-126.01-260.84Z"/>
            <path class="cls-16" d="m42.52,265.22C42.52,121.3,98.85,4.63,168.34,4.63s125.82,116.67,125.82,260.59-56.34,260.58-125.82,260.58-125.82-116.67-125.82-260.58Z"/>
            <path class="cls-78" d="m42.71,265.22C42.71,121.44,98.95,4.89,168.34,4.89s125.64,116.55,125.64,260.33-56.26,260.33-125.64,260.33-125.63-116.55-125.63-260.33Z"/>
            <path class="cls-44" d="m42.89,265.22C42.89,121.58,99.06,5.14,168.34,5.14s125.45,116.44,125.45,260.08-56.17,260.07-125.45,260.07-125.45-116.44-125.45-260.07Z"/>
            <path class="cls-14" d="m43.08,265.22C43.08,121.72,99.16,5.4,168.34,5.4s125.26,116.32,125.26,259.82-56.09,259.81-125.26,259.81-125.26-116.32-125.26-259.81Z"/>
            <path class="cls-63" d="m43.27,265.22C43.27,121.86,99.27,5.66,168.34,5.66s125.07,116.21,125.07,259.56-56,259.56-125.07,259.56-125.07-116.21-125.07-259.56Z"/>
            <path class="cls-4" d="m43.46,265.22C43.46,122,99.37,5.91,168.34,5.91s124.88,116.09,124.88,259.31-55.92,259.3-124.88,259.3-124.88-116.09-124.88-259.3Z"/>
            <path class="cls-33" d="m43.65,265.22C43.65,122.15,99.48,6.17,168.34,6.17s124.69,115.98,124.69,259.05-55.83,259.04-124.69,259.04-124.69-115.98-124.69-259.04Z"/>
            <path class="cls-93" d="m43.84,265.22C43.84,122.29,99.58,6.43,168.34,6.43s124.51,115.86,124.51,258.79-55.75,258.79-124.51,258.79-124.5-115.86-124.5-258.79Z"/>
            <path class="cls-31" d="m44.03,265.22C44.03,122.43,99.69,6.68,168.34,6.68s124.32,115.75,124.32,258.54-55.66,258.53-124.32,258.53-124.31-115.75-124.31-258.53Z"/>
            <path class="cls-40" d="m44.21,265.22C44.21,122.57,99.79,6.94,168.34,6.94s124.13,115.63,124.13,258.28-55.58,258.28-124.13,258.28-124.13-115.63-124.13-258.28Z"/>
            <path class="cls-21" d="m44.4,265.22C44.4,122.71,99.89,7.19,168.34,7.19s123.94,115.52,123.94,258.02-55.5,258.02-123.94,258.02-123.94-115.52-123.94-258.02Z"/>
            <path class="cls-90" d="m44.59,265.22C44.59,122.85,100,7.45,168.34,7.45s123.75,115.4,123.75,257.77-55.41,257.76-123.75,257.76-123.75-115.4-123.75-257.76Z"/>
            <path class="cls-90" d="m44.78,265.22C44.78,123,100.1,7.71,168.34,7.71s123.56,115.29,123.56,257.51-55.33,257.51-123.56,257.51-123.56-115.29-123.56-257.51Z"/>
            <path class="cls-50" d="m44.97,265.22C44.97,123.14,100.21,7.96,168.34,7.96s123.37,115.17,123.37,257.26-55.24,257.25-123.37,257.25-123.37-115.17-123.37-257.25Z"/>
            <path class="cls-56" d="m45.16,265.22C45.16,123.28,100.31,8.22,168.34,8.22s123.19,115.06,123.19,257-55.16,256.99-123.19,256.99-123.18-115.06-123.18-256.99Z"/>
            <path class="cls-41" d="m45.35,265.22C45.35,123.42,100.42,8.48,168.34,8.48s123,114.94,123,256.74-55.07,256.74-123,256.74-122.99-114.94-122.99-256.74Z"/>
            <path class="cls-42" d="m45.53,265.22C45.53,123.56,100.52,8.73,168.34,8.73s122.81,114.83,122.81,256.49-54.99,256.48-122.81,256.48-122.81-114.83-122.81-256.48Z"/>
            <path class="cls-66" d="m45.72,265.22C45.72,123.7,100.63,8.99,168.34,8.99s122.62,114.71,122.62,256.23-54.91,256.22-122.62,256.22-122.62-114.71-122.62-256.22Z"/>
            <path class="cls-5" d="m45.91,265.22C45.91,123.85,100.73,9.25,168.34,9.25s122.43,114.6,122.43,255.97-54.82,255.97-122.43,255.97-122.43-114.6-122.43-255.97Z"/>
            <path class="cls-46" d="m46.1,265.22C46.1,123.99,100.83,9.5,168.34,9.5s122.24,114.48,122.24,255.72-54.74,255.71-122.24,255.71-122.24-114.48-122.24-255.71Z"/>
            <path class="cls-60" d="m46.29,265.22C46.29,124.13,100.94,9.76,168.34,9.76s122.06,114.37,122.06,255.46-54.65,255.45-122.06,255.45-122.05-114.37-122.05-255.45Z"/>
            <path class="cls-85" d="m46.48,265.22C46.48,124.27,101.04,10.02,168.34,10.02s121.87,114.25,121.87,255.2-54.57,255.2-121.87,255.2-121.86-114.25-121.86-255.2Z"/>
            <path class="cls-92" d="m46.67,265.22C46.67,124.41,101.15,10.27,168.34,10.27s121.68,114.14,121.68,254.95-54.48,254.94-121.68,254.94-121.67-114.14-121.67-254.94Z"/>
            <path class="cls-83" d="m46.85,265.22C46.85,124.55,101.25,10.53,168.34,10.53s121.49,114.02,121.49,254.69-54.4,254.68-121.49,254.68-121.49-114.02-121.49-254.68Z"/>
            <path class="cls-71" d="m47.04,265.22C47.04,124.69,101.36,10.79,168.34,10.79s121.3,113.91,121.3,254.43-54.32,254.43-121.3,254.43-121.3-113.91-121.3-254.43Z"/>
            <path class="cls-7" d="m47.23,265.22C47.23,124.84,101.46,11.04,168.34,11.04s121.11,113.8,121.11,254.18-54.23,254.17-121.11,254.17-121.11-113.8-121.11-254.17Z"/>
            <path class="cls-73" d="m47.42,265.22C47.42,124.98,101.56,11.3,168.34,11.3s120.92,113.68,120.92,253.92-54.15,253.92-120.92,253.92-120.92-113.68-120.92-253.92Z"/>
            <path class="cls-86" d="m47.61,265.22C47.61,125.12,101.67,11.55,168.34,11.55s120.74,113.57,120.74,253.66-54.06,253.66-120.74,253.66-120.73-113.57-120.73-253.66Z"/>
            <path class="cls-76" d="m47.8,265.22C47.8,125.26,101.77,11.81,168.34,11.81s120.55,113.45,120.55,253.41-53.98,253.4-120.55,253.4-120.54-113.45-120.54-253.4Z"/>
            <path class="cls-8" d="m47.99,265.22C47.99,125.4,101.88,12.07,168.34,12.07s120.36,113.34,120.36,253.15-53.89,253.15-120.36,253.15-120.35-113.34-120.35-253.15Z"/>
            <path class="cls-22" d="m48.17,265.22C48.17,125.54,101.98,12.32,168.34,12.32s120.17,113.22,120.17,252.9-53.81,252.89-120.17,252.89-120.17-113.22-120.17-252.89Z"/>
            <path class="cls-17" d="m48.36,265.22C48.36,125.69,102.09,12.58,168.34,12.58s119.98,113.11,119.98,252.64-53.73,252.63-119.98,252.63-119.98-113.11-119.98-252.63Z"/>
            <path class="cls-69" d="m48.55,265.22C48.55,125.83,102.19,12.84,168.34,12.84s119.79,112.99,119.79,252.38-53.64,252.38-119.79,252.38-119.79-112.99-119.79-252.38Z"/>
            <path class="cls-80" d="m48.74,265.22C48.74,125.97,102.3,13.09,168.34,13.09s119.6,112.88,119.6,252.13-53.56,252.12-119.6,252.12-119.6-112.88-119.6-252.12Z"/>
            <path class="cls-54" d="m48.93,265.22C48.93,126.11,102.4,13.35,168.34,13.35s119.42,112.76,119.42,251.87-53.47,251.86-119.42,251.86-119.41-112.76-119.41-251.86Z"/>
            <path class="cls-13" d="m49.12,265.22C49.12,126.25,102.5,13.61,168.34,13.61s119.23,112.65,119.23,251.61-53.39,251.61-119.23,251.61-119.22-112.65-119.22-251.61Z"/>
            <path class="cls-52" d="m49.31,265.22C49.31,126.39,102.61,13.86,168.34,13.86s119.04,112.53,119.04,251.36-53.3,251.35-119.04,251.35-119.03-112.53-119.03-251.35Z"/>
            <path class="cls-91" d="m49.49,265.22C49.49,126.54,102.71,14.12,168.34,14.12s118.85,112.42,118.85,251.1-53.22,251.09-118.85,251.09-118.85-112.42-118.85-251.09Z"/>
            <path class="cls-48" d="m49.68,265.22C49.68,126.68,102.82,14.38,168.34,14.38s118.66,112.3,118.66,250.84-53.13,250.84-118.66,250.84-118.66-112.3-118.66-250.84Z"/>
            <path class="cls-89" d="m49.87,265.22C49.87,126.82,102.92,14.63,168.34,14.63s118.47,112.19,118.47,250.59-53.05,250.58-118.47,250.58-118.47-112.19-118.47-250.58Z"/>
            <path class="cls-9" d="m286.63,265.22c0,138.25-52.97,250.32-118.29,250.32s-118.28-112.07-118.28-250.32S103.03,14.89,168.34,14.89s118.29,112.07,118.29,250.33Z"/>
            <path class="cls-89" d="m286.48,265.22c0,138.16-52.9,250.16-118.14,250.16s-118.13-112-118.13-250.16S103.11,15.06,168.34,15.06s118.14,112,118.14,250.16Z"/>
            <path class="cls-48" d="m286.33,265.22c0,138.07-52.83,249.99-117.99,249.99s-117.99-111.92-117.99-249.99S103.19,15.22,168.34,15.22s117.99,111.92,117.99,250Z"/>
            <path class="cls-91" d="m286.18,265.22c0,137.98-52.77,249.82-117.84,249.82s-117.84-111.85-117.84-249.82S103.27,15.39,168.34,15.39s117.84,111.85,117.84,249.83Z"/>
            <path class="cls-52" d="m286.04,265.22c0,137.88-52.7,249.66-117.7,249.66s-117.69-111.77-117.69-249.66S103.35,15.56,168.34,15.56s117.7,111.77,117.7,249.66Z"/>
            <path class="cls-13" d="m285.89,265.22c0,137.79-52.64,249.49-117.55,249.49s-117.55-111.7-117.55-249.49S103.43,15.72,168.34,15.72s117.55,111.7,117.55,249.5Z"/>
            <path class="cls-54" d="m285.74,265.22c0,137.7-52.57,249.32-117.4,249.32s-117.4-111.62-117.4-249.32S103.51,15.89,168.34,15.89s117.4,111.62,117.4,249.33Z"/>
            <path class="cls-80" d="m285.6,265.22c0,137.61-52.5,249.16-117.26,249.16s-117.25-111.55-117.25-249.16S103.6,16.06,168.34,16.06s117.26,111.55,117.26,249.16Z"/>
            <path class="cls-69" d="m285.45,265.22c0,137.52-52.44,248.99-117.11,248.99s-117.1-111.48-117.1-248.99S103.68,16.22,168.34,16.22s117.11,111.48,117.11,249Z"/>
            <path class="cls-17" d="m285.3,265.22c0,137.42-52.37,248.82-116.96,248.82s-116.96-111.4-116.96-248.82S103.76,16.39,168.34,16.39s116.96,111.4,116.96,248.83Z"/>
            <path class="cls-22" d="m285.16,265.22c0,137.33-52.31,248.66-116.81,248.66s-116.81-111.33-116.81-248.66S103.84,16.56,168.34,16.56s116.81,111.33,116.81,248.66Z"/>
            <path class="cls-8" d="m285.01,265.22c0,137.24-52.24,248.49-116.67,248.49s-116.66-111.25-116.66-248.49S103.92,16.72,168.34,16.72s116.67,111.25,116.67,248.5Z"/>
            <path class="cls-76" d="m284.86,265.22c0,137.15-52.18,248.32-116.52,248.32s-116.52-111.18-116.52-248.32S104,16.89,168.34,16.89s116.52,111.18,116.52,248.33Z"/>
            <path class="cls-86" d="m284.71,265.22c0,137.05-52.11,248.16-116.37,248.16s-116.37-111.1-116.37-248.16S104.08,17.06,168.34,17.06s116.37,111.1,116.37,248.16Z"/>
            <path class="cls-73" d="m284.57,265.22c0,136.96-52.04,247.99-116.23,247.99s-116.22-111.03-116.22-247.99S104.16,17.22,168.34,17.22s116.23,111.03,116.23,248Z"/>
            <path class="cls-7" d="m284.42,265.22c0,136.87-51.98,247.82-116.08,247.82s-116.08-110.95-116.08-247.82S104.24,17.39,168.34,17.39s116.08,110.95,116.08,247.83Z"/>
            <path class="cls-71" d="m284.27,265.22c0,136.78-51.91,247.66-115.93,247.66s-115.93-110.88-115.93-247.66S104.33,17.56,168.34,17.56s115.93,110.88,115.93,247.66Z"/>
            <path class="cls-83" d="m284.13,265.22c0,136.69-51.85,247.49-115.79,247.49s-115.78-110.8-115.78-247.49S104.41,17.72,168.34,17.72s115.79,110.8,115.79,247.49Z"/>
            <path class="cls-92" d="m283.98,265.22c0,136.59-51.78,247.32-115.64,247.32s-115.63-110.73-115.63-247.32S104.49,17.89,168.34,17.89s115.64,110.73,115.64,247.33Z"/>
            <path class="cls-85" d="m283.83,265.22c0,136.5-51.71,247.16-115.49,247.16s-115.49-110.65-115.49-247.16S104.57,18.06,168.34,18.06s115.49,110.65,115.49,247.16Z"/>
            <path class="cls-60" d="m283.68,265.22c0,136.41-51.65,246.99-115.34,246.99s-115.34-110.58-115.34-246.99S104.65,18.22,168.34,18.22s115.34,110.58,115.34,246.99Z"/>
            <path class="cls-46" d="m283.54,265.22c0,136.32-51.58,246.82-115.2,246.82s-115.19-110.51-115.19-246.82S104.73,18.39,168.34,18.39s115.2,110.51,115.2,246.83Z"/>
            <path class="cls-5" d="m283.39,265.22c0,136.22-51.52,246.66-115.05,246.66s-115.05-110.43-115.05-246.66S104.81,18.56,168.34,18.56s115.05,110.43,115.05,246.66Z"/>
            <path class="cls-66" d="m283.24,265.22c0,136.13-51.45,246.49-114.9,246.49s-114.9-110.36-114.9-246.49S104.89,18.73,168.34,18.73s114.9,110.36,114.9,246.49Z"/>
            <path class="cls-42" d="m283.1,265.22c0,136.04-51.38,246.32-114.76,246.32s-114.75-110.28-114.75-246.32S104.98,18.89,168.34,18.89s114.76,110.28,114.76,246.33Z"/>
            <path class="cls-41" d="m282.95,265.22c0,135.95-51.32,246.15-114.61,246.15s-114.61-110.21-114.61-246.15S105.06,19.06,168.34,19.06s114.61,110.21,114.61,246.16Z"/>
            <path class="cls-56" d="m282.8,265.22c0,135.86-51.25,245.99-114.46,245.99s-114.46-110.13-114.46-245.99S105.14,19.23,168.34,19.23s114.46,110.13,114.46,245.99Z"/>
            <path class="cls-50" d="m282.66,265.22c0,135.76-51.19,245.82-114.31,245.82s-114.31-110.06-114.31-245.82S105.22,19.39,168.34,19.39s114.31,110.06,114.31,245.83Z"/>
            <path class="cls-90" d="m282.51,265.22c0,135.67-51.12,245.65-114.17,245.65s-114.16-109.98-114.16-245.65S105.3,19.56,168.34,19.56s114.17,109.98,114.17,245.66Z"/>
            <path class="cls-21" d="m282.36,265.22c0,135.58-51.06,245.49-114.02,245.49s-114.02-109.91-114.02-245.49S105.38,19.73,168.34,19.73s114.02,109.91,114.02,245.49Z"/>
            <path class="cls-40" d="m282.21,265.22c0,135.49-50.99,245.32-113.87,245.32s-113.87-109.83-113.87-245.32S105.46,19.89,168.34,19.89s113.87,109.83,113.87,245.33Z"/>
            <path class="cls-31" d="m282.07,265.22c0,135.4-50.92,245.15-113.73,245.15s-113.72-109.76-113.72-245.15S105.54,20.06,168.34,20.06s113.73,109.76,113.73,245.16Z"/>
            <path class="cls-93" d="m281.92,265.22c0,135.3-50.86,244.99-113.58,244.99s-113.58-109.68-113.58-244.99S105.62,20.23,168.34,20.23s113.58,109.68,113.58,244.99Z"/>
            <path class="cls-33" d="m281.77,265.22c0,135.21-50.79,244.82-113.43,244.82s-113.43-109.61-113.43-244.82S105.71,20.39,168.34,20.39s113.43,109.61,113.43,244.83Z"/>
            <path class="cls-4" d="m281.63,265.22c0,135.12-50.73,244.65-113.29,244.65s-113.28-109.53-113.28-244.65S105.79,20.56,168.34,20.56s113.29,109.53,113.29,244.66Z"/>
            <path class="cls-63" d="m281.48,265.22c0,135.03-50.66,244.49-113.14,244.49s-113.14-109.46-113.14-244.49S105.87,20.73,168.34,20.73s113.14,109.46,113.14,244.49Z"/>
            <path class="cls-14" d="m281.33,265.22c0,134.93-50.59,244.32-112.99,244.32s-112.99-109.39-112.99-244.32S105.95,20.89,168.34,20.89s112.99,109.39,112.99,244.33Z"/>
            <path class="cls-44" d="m281.18,265.22c0,134.84-50.53,244.15-112.84,244.15s-112.84-109.31-112.84-244.15S106.03,21.06,168.34,21.06s112.84,109.31,112.84,244.16Z"/>
            <path class="cls-78" d="m281.04,265.22c0,134.75-50.46,243.99-112.7,243.99s-112.69-109.24-112.69-243.99S106.11,21.23,168.34,21.23s112.7,109.24,112.7,243.99Z"/>
            <path class="cls-16" d="m280.89,265.22c0,134.66-50.4,243.82-112.55,243.82s-112.55-109.16-112.55-243.82S106.19,21.39,168.34,21.39s112.55,109.16,112.55,243.83Z"/>
            <path class="cls-16" d="m280.74,265.22c0,134.57-50.33,243.65-112.4,243.65s-112.4-109.09-112.4-243.65S106.27,21.56,168.34,21.56s112.4,109.09,112.4,243.66Z"/>
            <path class="cls-37" d="m280.6,265.22c0,134.47-50.26,243.49-112.26,243.49s-112.25-109.01-112.25-243.49S106.35,21.73,168.34,21.73s112.26,109.01,112.26,243.49Z"/>
            <path class="cls-27" d="m280.45,265.22c0,134.38-50.2,243.32-112.11,243.32s-112.11-108.94-112.11-243.32S106.44,21.89,168.34,21.89s112.11,108.94,112.11,243.32Z"/>
            <path class="cls-62" d="m280.3,265.22c0,134.29-50.13,243.15-111.96,243.15s-111.96-108.86-111.96-243.15S106.52,22.06,168.34,22.06s111.96,108.86,111.96,243.16Z"/>
            <path class="cls-43" d="m280.15,265.22c0,134.2-50.07,242.99-111.81,242.99s-111.81-108.79-111.81-242.99S106.6,22.23,168.34,22.23s111.81,108.79,111.81,242.99Z"/>
            <path class="cls-59" d="m280.01,265.22c0,134.1-50,242.82-111.67,242.82s-111.67-108.71-111.67-242.82S106.68,22.39,168.34,22.39s111.67,108.71,111.67,242.82Z"/>
            <path class="cls-81" d="m279.86,265.22c0,134.01-49.94,242.65-111.52,242.65s-111.52-108.64-111.52-242.65S106.76,22.56,168.34,22.56s111.52,108.64,111.52,242.66Z"/>
            <path class="cls-12" d="m279.71,265.22c0,133.92-49.87,242.48-111.37,242.48s-111.37-108.56-111.37-242.48S106.84,22.73,168.34,22.73s111.37,108.56,111.37,242.49Z"/>
            <path class="cls-84" d="m279.57,265.22c0,133.83-49.8,242.32-111.23,242.32s-111.22-108.49-111.22-242.32S106.92,22.9,168.34,22.9s111.23,108.49,111.23,242.32Z"/>
            <path class="cls-36" d="m279.42,265.22c0,133.74-49.74,242.15-111.08,242.15s-111.08-108.42-111.08-242.15S107,23.06,168.34,23.06s111.08,108.42,111.08,242.16Z"/>
            <path class="cls-74" d="m279.27,265.22c0,133.64-49.67,241.98-110.93,241.98s-110.93-108.34-110.93-241.98S107.09,23.23,168.34,23.23s110.93,108.34,110.93,241.99Z"/>
            <path class="cls-79" d="m279.13,265.22c0,133.55-49.61,241.82-110.79,241.82s-110.78-108.27-110.78-241.82S107.17,23.4,168.34,23.4s110.79,108.27,110.79,241.82Z"/>
            <path class="cls-67" d="m278.98,265.22c0,133.46-49.54,241.65-110.64,241.65s-110.64-108.19-110.64-241.65S107.25,23.56,168.34,23.56s110.64,108.19,110.64,241.66Z"/>
            <path class="cls-11" d="m278.83,265.22c0,133.37-49.47,241.48-110.49,241.48s-110.49-108.12-110.49-241.48S107.33,23.73,168.34,23.73s110.49,108.12,110.49,241.49Z"/>
            <path class="cls-15" d="m278.68,265.22c0,133.28-49.41,241.32-110.34,241.32s-110.34-108.04-110.34-241.32S107.41,23.9,168.34,23.9s110.34,108.04,110.34,241.32Z"/>
            <path class="cls-29" d="m278.54,265.22c0,133.18-49.34,241.15-110.2,241.15s-110.2-107.97-110.2-241.15S107.49,24.06,168.34,24.06s110.2,107.97,110.2,241.16Z"/>
            <path class="cls-47" d="m278.39,265.22c0,133.09-49.28,240.98-110.05,240.98s-110.05-107.89-110.05-240.98S107.57,24.23,168.34,24.23s110.05,107.89,110.05,240.99Z"/>
            <path class="cls-32" d="m278.24,265.22c0,133-49.21,240.82-109.9,240.82s-109.9-107.82-109.9-240.82S107.65,24.4,168.34,24.4s109.9,107.82,109.9,240.82Z"/>
            <path class="cls-82" d="m278.1,265.22c0,132.91-49.14,240.65-109.76,240.65s-109.75-107.74-109.75-240.65S107.73,24.56,168.34,24.56s109.76,107.74,109.76,240.66Z"/>
            <path class="cls-10" d="m277.95,265.22c0,132.81-49.08,240.48-109.61,240.48s-109.61-107.67-109.61-240.48S107.82,24.73,168.34,24.73s109.61,107.67,109.61,240.49Z"/>
            <path class="cls-87" d="m277.8,265.22c0,132.72-49.01,240.32-109.46,240.32s-109.46-107.59-109.46-240.32S107.9,24.9,168.34,24.9s109.46,107.59,109.46,240.32Z"/>
            <path class="cls-35" d="m277.65,265.22c0,132.63-48.95,240.15-109.31,240.15s-109.31-107.52-109.31-240.15S107.98,25.06,168.34,25.06s109.31,107.52,109.31,240.16Z"/>
            <path class="cls-72" d="m277.51,265.22c0,132.54-48.88,239.98-109.17,239.98s-109.17-107.45-109.17-239.98S108.06,25.23,168.34,25.23s109.17,107.45,109.17,239.99Z"/>
            <path class="cls-64" d="m277.36,265.22c0,132.45-48.82,239.82-109.02,239.82s-109.02-107.37-109.02-239.82S108.14,25.4,168.34,25.4s109.02,107.37,109.02,239.82Z"/>
            <path class="cls-20" d="m277.21,265.22c0,132.35-48.75,239.65-108.87,239.65s-108.87-107.3-108.87-239.65S108.22,25.56,168.34,25.56s108.87,107.3,108.87,239.65Z"/>
            <path class="cls-18" d="m277.07,265.22c0,132.26-48.68,239.48-108.73,239.48s-108.73-107.22-108.73-239.48S108.3,25.73,168.34,25.73s108.73,107.22,108.73,239.49Z"/>
            <path class="cls-61" d="m276.92,265.22c0,132.17-48.62,239.32-108.58,239.32s-108.58-107.15-108.58-239.32S108.38,25.9,168.34,25.9s108.58,107.15,108.58,239.32Z"/>
            <path class="cls-38" d="m276.77,265.22c0,132.08-48.55,239.15-108.43,239.15s-108.43-107.07-108.43-239.15S108.47,26.06,168.34,26.06s108.43,107.07,108.43,239.15Z"/>
            <path class="cls-65" d="m276.63,265.22c0,131.98-48.49,238.98-108.29,238.98s-108.28-107-108.28-238.98S108.55,26.23,168.34,26.23s108.29,107,108.29,238.99Z"/>
            <path class="cls-68" d="m276.48,265.22c0,131.89-48.42,238.82-108.14,238.82s-108.14-106.92-108.14-238.82S108.63,26.4,168.34,26.4s108.14,106.92,108.14,238.82Z"/>
            <path class="cls-24" d="m276.33,265.22c0,131.8-48.35,238.65-107.99,238.65s-107.99-106.85-107.99-238.65S108.71,26.57,168.34,26.57s107.99,106.85,107.99,238.65Z"/>
            <path class="cls-88" d="m276.18,265.22c0,131.71-48.29,238.48-107.84,238.48s-107.84-106.77-107.84-238.48S108.79,26.73,168.34,26.73s107.84,106.77,107.84,238.49Z"/>
            <path class="cls-45" d="m276.04,265.22c0,131.62-48.22,238.31-107.7,238.31s-107.7-106.7-107.7-238.31S108.87,26.9,168.34,26.9s107.7,106.7,107.7,238.32Z"/>
            <path class="cls-1" d="m275.89,265.22c0,131.52-48.16,238.15-107.55,238.15s-107.55-106.62-107.55-238.15S108.95,27.07,168.34,27.07s107.55,106.62,107.55,238.15Z"/>
            <path class="cls-58" d="m275.74,265.22c0,131.43-48.09,237.98-107.4,237.98s-107.4-106.55-107.4-237.98S109.03,27.23,168.34,27.23s107.4,106.55,107.4,237.99Z"/>
            <path class="cls-77" d="m275.6,265.22c0,131.34-48.02,237.81-107.26,237.81s-107.26-106.47-107.26-237.81S109.11,27.4,168.34,27.4s107.26,106.47,107.26,237.82Z"/>
            <path class="cls-28" d="m275.45,265.22c0,131.25-47.96,237.65-107.11,237.65s-107.11-106.4-107.11-237.65S109.2,27.57,168.34,27.57s107.11,106.4,107.11,237.65Z"/>
            <path class="cls-70" d="m275.3,265.22c0,131.16-47.89,237.48-106.96,237.48s-106.96-106.33-106.96-237.48S109.28,27.73,168.34,27.73s106.96,106.33,106.96,237.49Z"/>
            <path class="cls-23" d="m275.15,265.22c0,131.06-47.83,237.31-106.81,237.31s-106.81-106.25-106.81-237.31S109.36,27.9,168.34,27.9s106.81,106.25,106.81,237.32Z"/>
            <path class="cls-70" d="m274.77,265.22c0,130.64-47.65,236.55-106.43,236.55s-106.43-105.91-106.43-236.55S109.57,28.66,168.34,28.66s106.43,105.91,106.43,236.56Z"/>
            <path class="cls-28" d="m274.38,265.22c0,130.22-47.48,235.79-106.04,235.79s-106.04-105.57-106.04-235.79S109.78,29.42,168.34,29.42s106.04,105.57,106.04,235.8Z"/>
            <path class="cls-77" d="m274,265.22c0,129.8-47.31,235.03-105.66,235.03s-105.66-105.23-105.66-235.03S110,30.19,168.34,30.19s105.66,105.23,105.66,235.03Z"/>
            <path class="cls-58" d="m273.61,265.22c0,129.38-47.14,234.27-105.27,234.27s-105.27-104.89-105.27-234.27S110.21,30.95,168.34,30.95s105.27,104.89,105.27,234.27Z"/>
            <path class="cls-1" d="m273.22,265.22c0,128.96-46.96,233.51-104.88,233.51s-104.88-104.55-104.88-233.51S110.42,31.71,168.34,31.71s104.88,104.55,104.88,233.51Z"/>
            <path class="cls-45" d="m272.84,265.22c0,128.54-46.79,232.74-104.5,232.74s-104.5-104.2-104.5-232.74S110.64,32.47,168.34,32.47s104.5,104.2,104.5,232.75Z"/>
            <path class="cls-88" d="m272.45,265.22c0,128.12-46.62,231.98-104.11,231.98s-104.11-103.86-104.11-231.98S110.85,33.23,168.34,33.23s104.11,103.86,104.11,231.99Z"/>
            <path class="cls-24" d="m272.07,265.22c0,127.7-46.44,231.22-103.73,231.22s-103.73-103.52-103.73-231.22S111.06,34,168.34,34s103.73,103.52,103.73,231.22Z"/>
            <ellipse class="cls-68" cx="168.34" cy="265.22" rx="103.34" ry="230.46"/>
            <ellipse class="cls-65" cx="168.34" cy="265.22" rx="102.95" ry="229.7"/>
            <ellipse class="cls-38" cx="168.34" cy="265.22" rx="102.57" ry="228.94"/>
            <ellipse class="cls-61" cx="168.34" cy="265.22" rx="102.18" ry="228.17"/>
            <ellipse class="cls-18" cx="168.34" cy="265.22" rx="101.79" ry="227.41"/>
            <ellipse class="cls-20" cx="168.34" cy="265.22" rx="101.41" ry="226.65"/>
            <ellipse class="cls-64" cx="168.34" cy="265.22" rx="101.02" ry="225.89"/>
            <ellipse class="cls-72" cx="168.34" cy="265.22" rx="100.64" ry="225.13"/>
            <ellipse class="cls-35" cx="168.34" cy="265.22" rx="100.25" ry="224.36"/>
            <path class="cls-87" d="m268.21,265.22c0,123.49-44.71,223.6-99.86,223.6s-99.86-100.11-99.86-223.6S113.19,41.61,168.34,41.61s99.86,100.11,99.86,223.6Z"/>
            <path class="cls-10" d="m267.82,265.22c0,123.07-44.54,222.84-99.48,222.84s-99.48-99.77-99.48-222.84S113.41,42.38,168.34,42.38s99.48,99.77,99.48,222.84Z"/>
            <path class="cls-82" d="m267.43,265.22c0,122.65-44.37,222.08-99.09,222.08s-99.09-99.43-99.09-222.08S113.62,43.14,168.34,43.14s99.09,99.43,99.09,222.08Z"/>
            <path class="cls-32" d="m267.05,265.22c0,122.23-44.19,221.32-98.71,221.32s-98.7-99.09-98.7-221.32S113.83,43.9,168.34,43.9s98.71,99.09,98.71,221.32Z"/>
            <path class="cls-47" d="m266.66,265.22c0,121.81-44.02,220.56-98.32,220.56s-98.32-98.74-98.32-220.56S114.04,44.66,168.34,44.66s98.32,98.75,98.32,220.55Z"/>
            <path class="cls-29" d="m266.27,265.22c0,121.39-43.85,219.79-97.93,219.79s-97.93-98.4-97.93-219.79S114.26,45.42,168.34,45.42s97.93,98.41,97.93,219.79Z"/>
            <path class="cls-15" d="m265.89,265.22c0,120.97-43.68,219.03-97.55,219.03s-97.55-98.06-97.55-219.03S114.47,46.19,168.34,46.19s97.55,98.06,97.55,219.03Z"/>
            <path class="cls-11" d="m265.5,265.22c0,120.55-43.5,218.27-97.16,218.27s-97.16-97.72-97.16-218.27S114.68,46.95,168.34,46.95s97.16,97.72,97.16,218.27Z"/>
            <path class="cls-67" d="m265.12,265.22c0,120.13-43.33,217.51-96.78,217.51s-96.77-97.38-96.77-217.51S114.9,47.71,168.34,47.71s96.78,97.38,96.78,217.51Z"/>
            <path class="cls-79" d="m264.73,265.22c0,119.71-43.16,216.75-96.39,216.75s-96.39-97.04-96.39-216.75S115.11,48.47,168.34,48.47s96.39,97.04,96.39,216.74Z"/>
            <path class="cls-74" d="m264.34,265.22c0,119.29-42.98,215.98-96,215.98s-96-96.7-96-215.98S115.32,49.23,168.34,49.23s96,96.7,96,215.98Z"/>
            <path class="cls-36" d="m263.96,265.22c0,118.87-42.81,215.22-95.62,215.22s-95.62-96.36-95.62-215.22S115.54,50,168.34,50s95.62,96.36,95.62,215.22Z"/>
            <path class="cls-84" d="m263.57,265.22c0,118.45-42.64,214.46-95.23,214.46s-95.23-96.02-95.23-214.46S115.75,50.76,168.34,50.76s95.23,96.02,95.23,214.46Z"/>
            <path class="cls-84" d="m263.19,265.22c0,118.03-42.46,213.7-94.85,213.7s-94.84-95.67-94.84-213.7S115.96,51.52,168.34,51.52s94.85,95.68,94.85,213.7Z"/>
            <path class="cls-12" d="m262.8,265.22c0,117.6-42.29,212.94-94.46,212.94s-94.46-95.33-94.46-212.94S116.18,52.28,168.34,52.28s94.46,95.34,94.46,212.93Z"/>
            <path class="cls-81" d="m262.41,265.22c0,117.18-42.12,212.18-94.07,212.18s-94.07-94.99-94.07-212.18S116.39,53.04,168.34,53.04s94.07,95,94.07,212.17Z"/>
            <path class="cls-59" d="m262.03,265.22c0,116.76-41.95,211.41-93.69,211.41s-93.68-94.65-93.68-211.41S116.6,53.81,168.34,53.81s93.69,94.65,93.69,211.41Z"/>
            <path class="cls-43" d="m261.64,265.22c0,116.34-41.77,210.65-93.3,210.65s-93.3-94.31-93.3-210.65S116.81,54.57,168.34,54.57s93.3,94.31,93.3,210.65Z"/>
            <path class="cls-62" d="m261.26,265.22c0,115.92-41.6,209.89-92.92,209.89s-92.91-93.97-92.91-209.89S117.03,55.33,168.34,55.33s92.92,93.97,92.92,209.89Z"/>
            <path class="cls-27" d="m260.87,265.22c0,115.5-41.43,209.13-92.53,209.13s-92.53-93.63-92.53-209.13S117.24,56.09,168.34,56.09s92.53,93.63,92.53,209.12Z"/>
            <path class="cls-37" d="m260.48,265.22c0,115.08-41.25,208.37-92.14,208.37s-92.14-93.29-92.14-208.37S117.45,56.85,168.34,56.85s92.14,93.29,92.14,208.36Z"/>
            <path class="cls-16" d="m260.1,265.22c0,114.66-41.08,207.61-91.76,207.61s-91.75-92.94-91.75-207.61S117.67,57.62,168.34,57.62s91.76,92.95,91.76,207.6Z"/>
            <path class="cls-78" d="m259.71,265.22c0,114.24-40.91,206.84-91.37,206.84s-91.37-92.6-91.37-206.84S117.88,58.38,168.34,58.38s91.37,92.61,91.37,206.84Z"/>
            <path class="cls-44" d="m259.33,265.22c0,113.82-40.74,206.08-90.99,206.08s-90.98-92.26-90.98-206.08S118.09,59.14,168.34,59.14s90.99,92.27,90.99,206.08Z"/>
            <path class="cls-14" d="m258.94,265.22c0,113.4-40.56,205.32-90.6,205.32s-90.6-91.92-90.6-205.32S118.31,59.9,168.34,59.9s90.6,91.93,90.6,205.31Z"/>
            <path class="cls-63" d="m258.55,265.22c0,112.98-40.39,204.56-90.21,204.56s-90.21-91.58-90.21-204.56S118.52,60.66,168.34,60.66s90.21,91.58,90.21,204.55Z"/>
            <path class="cls-4" d="m258.17,265.21c0,112.56-40.22,203.8-89.83,203.8s-89.82-91.24-89.82-203.8S118.73,61.42,168.34,61.42s89.83,91.24,89.83,203.79Z"/>
            <path class="cls-33" d="m257.78,265.21c0,112.14-40.04,203.04-89.44,203.04s-89.44-90.9-89.44-203.04S118.94,62.19,168.34,62.19s89.44,90.9,89.44,203.03Z"/>
            <path class="cls-93" d="m257.4,265.21c0,111.72-39.87,202.27-89.05,202.27s-89.05-90.56-89.05-202.27S119.16,62.95,168.34,62.95s89.05,90.56,89.05,202.27Z"/>
            <path class="cls-31" d="m257.01,265.21c0,111.3-39.7,201.51-88.67,201.51s-88.66-90.22-88.66-201.51S119.37,63.71,168.34,63.71s88.67,90.22,88.67,201.5Z"/>
            <path class="cls-40" d="m256.62,265.21c0,110.88-39.52,200.75-88.28,200.75s-88.28-89.87-88.28-200.75,39.52-200.74,88.28-200.74,88.28,89.88,88.28,200.74Z"/>
            <path class="cls-21" d="m256.24,265.21c0,110.46-39.35,199.99-87.9,199.99s-87.89-89.53-87.89-199.99,39.35-199.98,87.89-199.98,87.9,89.54,87.9,199.98Z"/>
            <path class="cls-90" d="m255.85,265.21c0,110.03-39.18,199.23-87.51,199.23s-87.51-89.19-87.51-199.23,39.18-199.22,87.51-199.22,87.51,89.2,87.51,199.22Z"/>
            <path class="cls-50" d="m255.46,265.21c0,109.61-39.01,198.46-87.12,198.46s-87.12-88.85-87.12-198.46,39-198.46,87.12-198.46,87.12,88.86,87.12,198.46Z"/>
            <path class="cls-56" d="m255.08,265.21c0,109.19-38.83,197.7-86.74,197.7s-86.73-88.51-86.73-197.7,38.83-197.69,86.73-197.69,86.74,88.51,86.74,197.69Z"/>
            <path class="cls-41" d="m254.69,265.21c0,108.77-38.66,196.94-86.35,196.94s-86.35-88.17-86.35-196.94,38.66-196.93,86.35-196.93,86.35,88.17,86.35,196.93Z"/>
            <path class="cls-42" d="m254.31,265.21c0,108.35-38.49,196.18-85.97,196.18s-85.96-87.83-85.96-196.18,38.48-196.17,85.96-196.17,85.97,87.83,85.97,196.17Z"/>
            <path class="cls-66" d="m253.92,265.21c0,107.93-38.31,195.42-85.58,195.42s-85.58-87.49-85.58-195.42,38.31-195.41,85.58-195.41,85.58,87.49,85.58,195.41Z"/>
            <path class="cls-5" d="m253.53,265.21c0,107.51-38.14,194.66-85.19,194.66s-85.19-87.14-85.19-194.66,38.14-194.65,85.19-194.65,85.19,87.15,85.19,194.65Z"/>
            <path class="cls-46" d="m253.15,265.21c0,107.09-37.97,193.89-84.81,193.89s-84.8-86.8-84.8-193.89,37.96-193.88,84.8-193.88,84.81,86.81,84.81,193.88Z"/>
            <path class="cls-60" d="m252.76,265.21c0,106.67-37.79,193.13-84.42,193.13s-84.42-86.46-84.42-193.13,37.79-193.12,84.42-193.12,84.42,86.47,84.42,193.12Z"/>
            <path class="cls-85" d="m252.38,265.21c0,106.25-37.62,192.37-84.04,192.37s-84.03-86.12-84.03-192.37,37.62-192.36,84.03-192.36,84.04,86.13,84.04,192.36Z"/>
            <path class="cls-92" d="m251.99,265.21c0,105.83-37.45,191.61-83.65,191.61s-83.64-85.78-83.64-191.61,37.44-191.6,83.64-191.6,83.65,85.79,83.65,191.6Z"/>
          </g>
          <g>
            <path class="cls-23" d="m180.85,265.21c0,7.52-5.61,13.6-12.51,13.6s-12.52-6.08-12.52-13.6,5.62-13.59,12.52-13.59,12.51,6.08,12.51,13.59Z"/>
            <path class="cls-19" d="m177.52,265.21c0,5.52-4.11,9.98-9.18,9.98s-9.19-4.46-9.19-9.98,4.12-9.97,9.19-9.97,9.18,4.46,9.18,9.97Z"/>
          </g>
          <g>
            <g>
              <path class="cls-23" d="m54.37,222.72c2.69.03,4.85,2.42,4.82,5.34l-.65,74.45c-.03,2.92-2.23,5.25-4.92,5.22h-.74c-2.69-.04-4.85-2.43-4.82-5.35l.65-74.45c.03-2.92,2.23-5.25,4.92-5.22h.74Z"/>
              <path class="cls-75" d="m54.24,225.48c1.95.02,3.51,1.75,3.49,3.86l-.63,71.86c-.02,2.11-1.61,3.79-3.56,3.77h-.53c-1.95-.03-3.51-1.76-3.49-3.87l.63-71.86c.02-2.11,1.61-3.8,3.56-3.78h.53Z"/>
            </g>
            <g>
              <path class="cls-39" d="m53.73,253.06c6.19.07,11.17,5.58,11.11,12.29-.06,6.72-5.13,12.09-11.33,12.02-6.19-.08-11.17-5.59-11.1-12.3.06-6.71,5.12-12.09,11.32-12.01Z"/>
              <path class="cls-49" d="m53.72,253.5c5.97.07,10.76,5.38,10.71,11.85-.06,6.47-4.94,11.66-10.92,11.59-5.97-.08-10.76-5.38-10.7-11.85.06-6.47,4.94-11.66,10.91-11.58Z"/>
              <path class="cls-30" d="m53.72,253.94c5.74.07,10.36,5.18,10.31,11.4-.06,6.23-4.76,11.22-10.51,11.15-5.75-.07-10.36-5.18-10.3-11.41.05-6.23,4.75-11.22,10.5-11.15Z"/>
              <path class="cls-34" d="m53.72,254.38c5.52.07,9.96,4.97,9.9,10.96-.06,5.99-4.57,10.78-10.1,10.72-5.52-.07-9.96-4.98-9.9-10.96.05-5.98,4.57-10.78,10.09-10.71Z"/>
              <path class="cls-53" d="m53.71,254.82c5.3.06,9.55,4.77,9.5,10.52-.05,5.74-4.39,10.35-9.69,10.28-5.3-.07-9.55-4.78-9.5-10.52.05-5.74,4.38-10.35,9.68-10.28Z"/>
              <path class="cls-64" d="m53.71,255.26c5.08.06,9.15,4.57,9.1,10.07-.05,5.5-4.2,9.91-9.28,9.84-5.08-.06-9.15-4.57-9.1-10.07.05-5.5,4.2-9.91,9.27-9.84Z"/>
              <path class="cls-26" d="m53.7,255.7c4.85.06,8.75,4.37,8.7,9.63-.05,5.26-4.02,9.47-8.87,9.41-4.85-.06-8.75-4.37-8.7-9.63.05-5.26,4.01-9.47,8.86-9.41Z"/>
              <path class="cls-84" d="m53.7,256.14c4.63.06,8.34,4.17,8.3,9.18-.05,5.01-3.83,9.03-8.46,8.97-4.63-.06-8.34-4.17-8.3-9.18.04-5.02,3.83-9.03,8.46-8.98Z"/>
              <path class="cls-37" d="m53.69,256.58c4.41.05,7.94,3.97,7.9,8.74-.04,4.77-3.64,8.6-8.05,8.54-4.41-.05-7.94-3.97-7.9-8.74.04-4.77,3.64-8.6,8.05-8.54Z"/>
              <path class="cls-33" d="m53.69,257.02c4.18.05,7.54,3.76,7.5,8.3-.04,4.53-3.46,8.16-7.64,8.1-4.18-.05-7.54-3.77-7.5-8.29.04-4.53,3.46-8.16,7.64-8.11Z"/>
              <path class="cls-41" d="m53.69,257.46c3.96.05,7.13,3.56,7.1,7.85-.04,4.29-3.27,7.72-7.23,7.67-3.96-.05-7.13-3.56-7.09-7.85.04-4.29,3.27-7.72,7.23-7.67Z"/>
              <path class="cls-92" d="m53.68,257.89c3.74.05,6.73,3.36,6.69,7.41-.04,4.04-3.09,7.29-6.82,7.23-3.74-.05-6.73-3.36-6.69-7.4.04-4.05,3.09-7.29,6.82-7.24Z"/>
            </g>
            <g>
              <path class="cls-23" d="m131.03,259.21c2.69.03,4.85,2.43,4.82,5.34l-.04,4.01c-.03,2.92-2.23,5.25-4.92,5.22l-78.29-1.29c-2.69-.03-4.85-2.42-4.82-5.34l.04-4.01c.03-2.92,2.23-5.25,4.92-5.22l78.29,1.29Z"/>
              <path class="cls-6" d="m129.36,261.59c1.8.02,3.25,1.62,3.24,3.58l-.03,2.69c-.02,1.95-1.49,3.52-3.3,3.5l-76.42-1.27c-1.8-.02-3.25-1.62-3.23-3.58l.03-2.69c.02-1.95,1.49-3.52,3.3-3.5l76.42,1.27Z"/>
            </g>
            <g>
              <g>
                <g>
                  <path class="cls-39" d="m53.37,294.16c5.2.07,9.37,4.68,9.33,10.33-.05,5.64-4.31,10.15-9.51,10.08-5.2-.06-9.37-4.68-9.33-10.32.05-5.64,4.31-10.15,9.51-10.09Z"/>
                  <path class="cls-49" d="m53.36,294.52c5.02.07,9.05,4.52,9,9.97-.05,5.44-4.16,9.8-9.18,9.73-5.02-.06-9.05-4.52-9-9.96.05-5.44,4.16-9.8,9.18-9.74Z"/>
                  <path class="cls-30" d="m53.36,294.87c4.84.06,8.72,4.36,8.68,9.61-.05,5.24-4.01,9.45-8.85,9.39-4.84-.06-8.72-4.36-8.68-9.61.05-5.25,4.01-9.45,8.85-9.39Z"/>
                  <path class="cls-34" d="m53.36,295.22c4.66.06,8.4,4.2,8.36,9.25-.05,5.05-3.86,9.1-8.52,9.04-4.66-.06-8.4-4.2-8.36-9.25.05-5.05,3.86-9.1,8.52-9.04Z"/>
                  <path class="cls-53" d="m53.35,295.58c4.48.06,8.07,4.04,8.04,8.89-.04,4.85-3.71,8.74-8.19,8.69-4.48-.05-8.07-4.04-8.03-8.89.04-4.86,3.71-8.74,8.19-8.69Z"/>
                  <path class="cls-64" d="m53.35,295.93c4.3.05,7.75,3.87,7.71,8.54-.04,4.66-3.56,8.39-7.86,8.34-4.3-.05-7.75-3.87-7.71-8.53.04-4.66,3.56-8.39,7.86-8.34Z"/>
                  <path class="cls-26" d="m53.35,296.29c4.12.05,7.43,3.71,7.39,8.18-.04,4.46-3.41,8.04-7.53,7.99-4.12-.05-7.43-3.71-7.39-8.18.04-4.47,3.41-8.04,7.53-7.99Z"/>
                  <path class="cls-84" d="m53.34,296.64c3.94.05,7.1,3.55,7.07,7.82-.04,4.27-3.26,7.69-7.2,7.64-3.94-.05-7.1-3.55-7.06-7.82.04-4.27,3.26-7.69,7.2-7.64Z"/>
                  <path class="cls-37" d="m53.34,296.99c3.76.05,6.78,3.39,6.75,7.46-.04,4.07-3.12,7.34-6.87,7.29-3.76-.05-6.78-3.39-6.74-7.46.04-4.08,3.11-7.34,6.87-7.29Z"/>
                  <path class="cls-33" d="m53.34,297.35c3.58.04,6.45,3.22,6.42,7.11-.04,3.88-2.97,6.99-6.54,6.94-3.58-.04-6.45-3.22-6.42-7.1.03-3.88,2.96-6.99,6.54-6.94Z"/>
                  <path class="cls-41" d="m53.33,297.7c3.4.04,6.13,3.06,6.1,6.75-.03,3.68-2.82,6.63-6.22,6.59-3.4-.04-6.13-3.06-6.09-6.75.03-3.69,2.81-6.63,6.21-6.59Z"/>
                  <path class="cls-92" d="m53.33,298.05c3.22.04,5.8,2.9,5.78,6.39-.03,3.49-2.67,6.28-5.89,6.24-3.22-.04-5.8-2.9-5.77-6.39.03-3.49,2.66-6.28,5.88-6.24Z"/>
                </g>
                <path class="cls-57" d="m53.33,298.05c3.22.04,5.8,2.9,5.78,6.39-.03,3.49-2.67,6.28-5.89,6.24-3.22-.04-5.8-2.9-5.77-6.39.03-3.49,2.66-6.28,5.88-6.24Z"/>
              </g>
              <g>
                <g>
                  <path class="cls-39" d="m54.05,215.86c5.2.06,9.37,4.68,9.33,10.32-.05,5.64-4.31,10.16-9.51,10.09-5.2-.06-9.37-4.68-9.33-10.32.05-5.64,4.3-10.15,9.51-10.09Z"/>
                  <path class="cls-49" d="m54.05,216.21c5.02.06,9.05,4.52,9,9.96-.05,5.44-4.16,9.81-9.18,9.74-5.02-.06-9.05-4.52-9-9.96.05-5.44,4.16-9.8,9.18-9.74Z"/>
                  <path class="cls-30" d="m54.05,216.57c4.84.06,8.72,4.36,8.68,9.6-.05,5.25-4.01,9.45-8.85,9.39-4.84-.06-8.72-4.36-8.68-9.61.05-5.25,4.01-9.45,8.85-9.39Z"/>
                  <path class="cls-34" d="m54.04,216.92c4.66.06,8.4,4.2,8.36,9.25-.04,5.05-3.86,9.1-8.52,9.04-4.66-.06-8.4-4.2-8.36-9.25.04-5.05,3.86-9.1,8.52-9.04Z"/>
                  <path class="cls-53" d="m54.04,217.27c4.48.05,8.07,4.04,8.03,8.89-.04,4.86-3.71,8.75-8.19,8.69-4.48-.05-8.07-4.04-8.03-8.89.04-4.86,3.71-8.75,8.19-8.69Z"/>
                  <path class="cls-64" d="m54.04,217.63c4.3.05,7.75,3.87,7.71,8.53-.04,4.66-3.56,8.4-7.86,8.34-4.3-.05-7.75-3.87-7.71-8.53.04-4.66,3.56-8.4,7.86-8.34Z"/>
                  <path class="cls-26" d="m54.04,217.98c4.12.05,7.43,3.71,7.39,8.17-.04,4.47-3.41,8.05-7.53,7.99-4.12-.05-7.43-3.71-7.39-8.18.04-4.47,3.41-8.04,7.53-7.99Z"/>
                  <path class="cls-84" d="m54.03,218.34c3.94.05,7.1,3.55,7.06,7.82-.04,4.27-3.26,7.7-7.2,7.65-3.94-.05-7.1-3.55-7.06-7.82.04-4.27,3.26-7.69,7.2-7.64Z"/>
                  <path class="cls-37" d="m54.03,218.69c3.76.05,6.78,3.39,6.74,7.46-.03,4.08-3.11,7.34-6.87,7.3-3.76-.05-6.78-3.39-6.74-7.46.03-4.08,3.11-7.34,6.87-7.29Z"/>
                  <path class="cls-33" d="m54.03,219.04c3.58.04,6.45,3.22,6.42,7.1-.03,3.88-2.96,6.99-6.54,6.95-3.58-.04-6.45-3.22-6.42-7.1.03-3.88,2.96-6.99,6.54-6.94Z"/>
                  <path class="cls-41" d="m54.02,219.4c3.4.04,6.13,3.06,6.09,6.74-.03,3.69-2.81,6.64-6.21,6.6-3.4-.04-6.13-3.06-6.09-6.75.03-3.69,2.81-6.64,6.21-6.59Z"/>
                  <path class="cls-92" d="m54.02,219.75c3.22.04,5.8,2.9,5.77,6.38-.03,3.49-2.66,6.29-5.88,6.25-3.22-.04-5.8-2.9-5.77-6.39.03-3.49,2.66-6.29,5.88-6.24Z"/>
                </g>
                <path class="cls-55" d="m54.02,219.75c3.22.04,5.8,2.9,5.77,6.38-.03,3.49-2.66,6.29-5.88,6.25-3.22-.04-5.8-2.9-5.77-6.39.03-3.49,2.66-6.29,5.88-6.24Z"/>
              </g>
            </g>
          </g>
          <path class="cls-2" d="m275.15,265.22c0,131.06-47.83,237.31-106.81,237.31s-106.81-106.25-106.81-237.31S109.36,27.9,168.34,27.9s106.81,106.25,106.81,237.32Z"/>
        </g>
        <path class="cls-51" d="m297.56,265.22c0,146.47-57.86,265.2-129.22,265.2S39.12,411.69,39.12,265.22,96.97.01,168.34.01s129.22,118.73,129.22,265.21Z"/>
      </g>
    </g>
  </g>
</svg>