<?xml version="1.0" encoding="UTF-8"?>
<svg id="wall" xmlns="http://www.w3.org/2000/svg" viewBox="0 0 147.88 254.71">
  <defs>
    <style>
      .cls-1 {
        fill: #b8e1d9;
      }

      .cls-2 {
        fill: #58c4ce;
      }
    </style>
  </defs>
  <path class="cls-2" d="m2.83,254.71c-1.56,0-2.83-1.4-2.83-3.13V3.13C0,1.4,1.27,0,2.83,0h142.23c1.56,0,2.82,1.4,2.82,3.13v248.44c0,1.73-1.26,3.13-2.82,3.13H2.83Z"/>
  <g>
    <rect class="cls-1" y="13.17" width="147.88" height="10.16"/>
    <rect class="cls-1" y="33.49" width="147.88" height="10.16"/>
    <rect class="cls-1" y="53.81" width="147.88" height="10.16"/>
    <rect class="cls-1" y="74.13" width="147.88" height="10.16"/>
    <rect class="cls-1" y="94.45" width="147.88" height="10.16"/>
    <rect class="cls-1" y="114.77" width="147.88" height="10.16"/>
    <rect class="cls-1" y="135.09" width="147.88" height="10.16"/>
    <rect class="cls-1" y="155.41" width="147.88" height="10.16"/>
    <rect class="cls-1" y="175.73" width="147.88" height="10.16"/>
    <rect class="cls-1" y="196.05" width="147.88" height="10.16"/>
    <rect class="cls-1" y="216.37" width="147.88" height="10.16"/>
    <rect class="cls-1" y="236.69" width="147.88" height="10.16"/>
  </g>
</svg>