<?xml version="1.0" encoding="UTF-8"?>
<svg xmlns="http://www.w3.org/2000/svg" xmlns:xlink="http://www.w3.org/1999/xlink" viewBox="0 0 409.8 462.35">
  <defs>
    <style>
      .cls-1 {
        fill: #ddd;
      }

      .cls-2 {
        fill: #e9e9e9;
      }

      .cls-3 {
        fill: url(#linear-gradient-2);
      }

      .cls-4 {
        fill: #f0f0f0;
      }

      .cls-5 {
        fill: #f4f4f4;
      }

      .cls-6 {
        fill: #fff;
      }

      .cls-7 {
        fill: #cbcbcb;
      }

      .cls-8 {
        fill: #d1d1d1;
      }

      .cls-9 {
        fill: #fafafa;
      }

      .cls-10 {
        fill: #dbdbdb;
      }

      .cls-11 {
        fill: #cacaca;
      }

      .cls-12 {
        fill: #d8d8d8;
      }

      .cls-13 {
        fill: #f6f6f6;
      }

      .cls-14 {
        fill: url(#linear-gradient);
      }

      .cls-14, .cls-15 {
        mix-blend-mode: multiply;
      }

      .cls-16 {
        fill: #939598;
      }

      .cls-17 {
        fill: silver;
      }

      .cls-18 {
        fill: #e2e2e2;
      }

      .cls-19 {
        fill: #f5f5f5;
      }

      .cls-20 {
        fill: #b2b2b2;
      }

      .cls-21 {
        fill: #bababa;
      }

      .cls-22 {
        isolation: isolate;
      }

      .cls-23 {
        fill: #c9c9c8;
      }

      .cls-24 {
        fill: #d6d6d6;
      }

      .cls-25 {
        fill: #c9c9c9;
      }

      .cls-26 {
        fill: #acacab;
      }

      .cls-27 {
        fill: #e0e0e0;
      }

      .cls-28 {
        fill: #c7c7c7;
      }

      .cls-29 {
        fill: #dedede;
      }

      .cls-30 {
        fill: #b3b3b2;
      }

      .cls-31 {
        fill: #c3c3c3;
      }

      .cls-32 {
        fill: #cfcfcf;
      }

      .cls-33 {
        fill: #d7d7d7;
      }

      .cls-34 {
        fill: #bdbdbd;
      }

      .cls-35 {
        fill: #9d9d9c;
      }

      .cls-36 {
        fill: #e1e1e1;
      }

      .cls-37 {
        fill: #e6e6e6;
      }

      .cls-38 {
        fill: #e7e7e7;
      }

      .cls-39 {
        fill: #d4d4d4;
      }

      .cls-40 {
        fill: #dadada;
      }

      .cls-41 {
        fill: #b8b8b8;
      }

      .cls-42 {
        fill: #eaeaea;
      }

      .cls-43 {
        fill: #c8c8c8;
      }

      .cls-44 {
        fill: #fdfdfd;
      }

      .cls-45 {
        fill: #a4a4a3;
      }

      .cls-46 {
        fill: #e4e4e4;
      }

      .cls-47 {
        fill: none;
        stroke: #949494;
        stroke-linecap: round;
        stroke-linejoin: round;
        stroke-width: .03px;
      }

      .cls-48 {
        fill: #fbfbfb;
      }

      .cls-49 {
        fill: #babab9;
      }

      .cls-50 {
        fill: #f9f9f9;
      }

      .cls-51 {
        fill: #72a6bf;
      }

      .cls-52 {
        fill: #e5e5e5;
      }

      .cls-53 {
        fill: #d16660;
      }

      .cls-54 {
        fill: #b6b6b6;
      }

      .cls-55 {
        fill: #d3d3d3;
      }

      .cls-56 {
        fill: #ebebeb;
      }

      .cls-57 {
        fill: #d5d5d5;
      }

      .cls-58 {
        fill: #dcdcdc;
      }

      .cls-59 {
        fill: #c1c1c1;
      }

      .cls-60 {
        fill: #e8e8e8;
      }

      .cls-61 {
        fill: #ccc;
      }

      .cls-62 {
        fill: #f7f7f7;
      }

      .cls-63 {
        fill: #efefef;
      }

      .cls-64 {
        fill: #f1f1f1;
      }

      .cls-65 {
        fill: url(#linear-gradient-3);
      }

      .cls-66 {
        fill: #cecece;
      }

      .cls-67 {
        fill: #f3f3f3;
      }

      .cls-68 {
        fill: #b5b5b5;
      }

      .cls-69 {
        fill: #d9d9d9;
      }

      .cls-70 {
        fill: #cdcdcd;
      }

      .cls-71 {
        fill: #f8f8f8;
      }

      .cls-72 {
        fill: #d2d2d2;
      }

      .cls-73 {
        fill: #c6c6c6;
      }

      .cls-74 {
        fill: #eee;
      }

      .cls-75 {
        fill: #d0d0d0;
      }

      .cls-76 {
        fill: #ececec;
      }

      .cls-77 {
        fill: #f2f2f2;
      }

      .cls-78 {
        fill: #c4c4c4;
      }

      .cls-79 {
        fill: #b9b9b9;
      }

      .cls-80 {
        fill: #fefefe;
      }

      .cls-81 {
        fill: #e3e3e3;
      }

      .cls-82 {
        fill: #fcfcfc;
      }

      .cls-83 {
        fill: #ededed;
      }

      .cls-84 {
        fill: #dfdfdf;
      }
    </style>
    <linearGradient id="linear-gradient" x1="345.55" y1="127.71" x2="177.69" y2="262.58" gradientUnits="userSpaceOnUse">
      <stop offset="0" stop-color="#e0e0e0"/>
      <stop offset="1" stop-color="#fff"/>
    </linearGradient>
    <linearGradient id="linear-gradient-2" x1="2474.51" y1="1119.71" x2="2576.11" y2="1119.71" gradientTransform="translate(2738.3 1566.71) rotate(-179.4)" gradientUnits="userSpaceOnUse">
      <stop offset="0" stop-color="#bfbfbe"/>
      <stop offset=".57" stop-color="#fff"/>
      <stop offset="1" stop-color="#c9c9c8"/>
    </linearGradient>
    <linearGradient id="linear-gradient-3" x1="2524.88" y1="1193.18" x2="2524.88" y2="1115.99" xlink:href="#linear-gradient-2"/>
  </defs>
  <g class="cls-22">
    <g id="Layer_1" data-name="Layer 1">
      <g>
        <g class="cls-15">
          <path class="cls-6" d="m365.56,400.67l-17.08-318.92c0-30.39-38.23-55.03-85.4-55.03H102.47c-.28,0-.55.02-.82.03h-.01c-2.91.02-5.77.13-8.6.33-.22.01-.44.05-.66.06-2.55.2-5.09.45-7.57.79-1.76.24-3.47.56-5.19.87-.87.16-1.78.27-2.64.45-34.69,6.98-59.91,27.82-59.91,52.49L0,400.67c0,.75.13,1.49.18,2.24l-.19,3.57c0,30.85,38.2,55.87,85.4,55.87h194.76c47.17,0,85.4-25.03,85.4-55.87l-.18-3.37c.06-.81.19-1.61.19-2.43Z"/>
          <path class="cls-80" d="m366.32,400.21l-17.08-318.92c0-30.39-38.23-55.03-85.4-55.03H103.24c-.28,0-.55.02-.82.03h-.01c-2.91.02-5.77.14-8.6.33-.22.02-.44.05-.66.06-2.55.18-5.09.45-7.57.79-1.76.24-3.47.56-5.19.87-.87.16-1.78.28-2.64.45-34.68,7.07-59.91,27.82-59.91,52.49L.77,400.21c0,.75.13,1.49.18,2.24l-.19,3.57c0,30.85,38.2,55.87,85.4,55.87h194.76c47.17,0,85.4-25.03,85.4-55.87l-.18-3.37c.06-.81.19-1.61.19-2.43Z"/>
          <path class="cls-44" d="m367.09,399.75l-17.08-318.92c0-30.39-38.23-55.03-85.4-55.03H104c-.28,0-.55.02-.82.03h-.01c-2.91.02-5.77.14-8.6.33-.22.02-.44.05-.66.06-2.55.18-5.09.45-7.57.79-1.76.24-3.47.56-5.19.87-.87.16-1.78.28-2.64.45-34.68,7.07-59.91,27.82-59.91,52.49L1.53,399.75c0,.75.13,1.49.18,2.24l-.19,3.57c0,30.85,38.2,55.87,85.4,55.87h194.76c47.17,0,85.4-25.03,85.4-55.87l-.18-3.37c.06-.81.19-1.61.19-2.43Z"/>
          <path class="cls-82" d="m367.85,399.29l-17.08-318.92c0-30.39-38.23-55.03-85.4-55.03H104.76c-.28,0-.55.02-.82.03h-.01c-2.91.02-5.77.14-8.6.33-.22.02-.44.05-.66.06-2.55.18-5.09.45-7.57.79-1.76.24-3.47.56-5.19.87-.87.16-1.78.28-2.64.45-34.68,7.07-59.91,27.82-59.91,52.49L2.3,399.29c0,.75.13,1.49.18,2.24l-.19,3.57c0,30.85,38.2,55.87,85.4,55.87h194.76c47.17,0,85.4-25.03,85.4-55.87l-.18-3.37c.06-.81.19-1.61.19-2.43Z"/>
          <path class="cls-48" d="m368.61,398.82l-17.08-318.92c0-30.39-38.23-55.03-85.4-55.03H105.52c-.28,0-.55.02-.82.03h-.01c-2.91.02-5.77.14-8.6.33-.22.02-.44.05-.66.06-2.55.18-5.09.45-7.57.79-1.76.24-3.47.56-5.19.87-.87.16-1.78.28-2.64.45-34.68,7.07-59.91,27.82-59.91,52.49L3.06,398.82c0,.75.13,1.49.18,2.24l-.19,3.57c0,30.85,38.2,55.87,85.4,55.87h194.76c47.17,0,85.4-25.03,85.4-55.87l-.18-3.37c.06-.81.19-1.61.19-2.43Z"/>
          <path class="cls-9" d="m369.37,398.36l-17.08-318.92c0-30.39-38.23-55.03-85.4-55.03H106.29c-.28,0-.55.02-.82.03h-.01c-2.91.02-5.77.14-8.6.33-.22.02-.44.05-.66.06-2.55.18-5.09.45-7.57.79-1.76.24-3.47.56-5.19.87-.87.16-1.78.28-2.64.45-34.68,7.07-59.91,27.82-59.91,52.49L3.82,398.36c0,.75.13,1.49.18,2.24l-.19,3.57c0,30.85,38.2,55.87,85.4,55.87h194.76c47.17,0,85.4-25.03,85.4-55.87l-.18-3.37c.06-.81.19-1.61.19-2.43Z"/>
          <path class="cls-50" d="m370.14,397.9l-17.08-318.92c0-30.39-38.23-55.03-85.4-55.03H107.05c-.28,0-.55.02-.82.03h-.01c-2.91.02-5.77.14-8.6.33-.22.02-.44.05-.66.06-2.55.18-5.09.45-7.57.79-1.76.24-3.47.56-5.19.87-.87.16-1.78.28-2.64.45-34.68,7.07-59.91,27.82-59.91,52.49L4.58,397.9c0,.75.13,1.49.18,2.24l-.19,3.57c0,30.85,38.2,55.87,85.4,55.87h194.76c47.17,0,85.4-25.03,85.4-55.87l-.18-3.37c.06-.81.19-1.61.19-2.43Z"/>
          <path class="cls-71" d="m370.9,397.44l-17.08-318.92c0-30.39-38.23-55.03-85.4-55.03H107.81c-.28,0-.55.02-.82.03h-.01c-2.91.02-5.77.14-8.6.33-.22.02-.44.05-.66.06-2.55.18-5.09.45-7.57.79-1.76.24-3.47.56-5.19.87-.87.16-1.78.28-2.64.45-34.68,7.07-59.91,27.82-59.91,52.49L5.35,397.44c0,.75.13,1.49.18,2.24l-.19,3.57c0,30.85,38.2,55.87,85.4,55.87h194.76c47.17,0,85.4-25.03,85.4-55.87l-.18-3.37c.06-.81.19-1.61.19-2.43Z"/>
          <path class="cls-62" d="m371.66,396.98l-17.08-318.92c0-30.39-38.23-55.03-85.4-55.03H108.57c-.28,0-.55.02-.82.03h-.01c-2.91.02-5.77.14-8.6.33-.22.02-.44.05-.66.06-2.55.18-5.09.45-7.57.79-1.76.24-3.47.56-5.19.87-.87.16-1.78.28-2.64.45-34.68,7.07-59.91,27.82-59.91,52.49L6.11,396.98c0,.75.13,1.49.18,2.24l-.19,3.57c0,30.85,38.2,55.87,85.4,55.87h194.76c47.17,0,85.4-25.03,85.4-55.87l-.18-3.37c.06-.81.19-1.61.19-2.43Z"/>
          <path class="cls-13" d="m372.43,396.52l-17.08-318.92c0-30.39-38.23-55.03-85.4-55.03H109.34c-.28,0-.55.02-.82.03h-.01c-2.91.02-5.77.14-8.6.33-.22.02-.44.05-.66.06-2.55.18-5.09.45-7.57.79-1.76.24-3.47.56-5.19.87-.87.16-1.78.28-2.64.45-34.68,7.07-59.91,27.82-59.91,52.49L6.87,396.52c0,.75.13,1.49.18,2.24l-.19,3.57c0,30.85,38.2,55.87,85.4,55.87h194.76c47.17,0,85.4-25.03,85.4-55.87l-.18-3.37c.06-.81.19-1.61.19-2.43Z"/>
          <path class="cls-19" d="m373.19,396.06l-17.08-318.92c0-30.39-38.23-55.03-85.4-55.03H110.1c-.28,0-.55.02-.82.03h-.01c-2.91.02-5.77.14-8.6.33-.22.02-.44.05-.66.06-2.55.18-5.09.45-7.57.79-1.76.24-3.47.56-5.19.87-.87.16-1.78.28-2.64.45-34.68,7.07-59.91,27.82-59.91,52.49L7.63,396.06c0,.75.13,1.49.18,2.24l-.19,3.57c0,30.85,38.2,55.87,85.4,55.87h194.76c47.17,0,85.4-25.03,85.4-55.87l-.18-3.37c.06-.81.19-1.61.19-2.43Z"/>
          <path class="cls-5" d="m373.95,395.6l-17.08-318.92c0-30.39-38.23-55.03-85.4-55.03H110.86c-.28,0-.55.02-.82.03h-.01c-2.91.02-5.77.14-8.6.33-.22.02-.44.05-.66.06-2.55.18-5.09.45-7.57.79-1.76.24-3.47.56-5.19.87-.87.16-1.78.28-2.64.45-34.68,7.07-59.91,27.82-59.91,52.49L8.4,395.6c0,.75.13,1.49.18,2.24l-.19,3.57c0,30.85,38.2,55.87,85.4,55.87h194.76c47.17,0,85.4-25.03,85.4-55.87l-.18-3.37c.06-.81.19-1.61.19-2.43Z"/>
          <path class="cls-67" d="m374.71,395.14l-17.08-318.92c0-30.39-38.23-55.03-85.4-55.03H111.62c-.28,0-.55.02-.82.03h-.01c-2.91.02-5.77.14-8.6.33-.22.02-.44.05-.66.06-2.55.18-5.09.45-7.57.79-1.76.24-3.47.56-5.19.87-.87.16-1.78.28-2.64.45-34.68,7.07-59.91,27.82-59.91,52.49L9.16,395.14c0,.75.13,1.49.18,2.24l-.19,3.57c0,30.85,38.2,55.87,85.4,55.87h194.76c47.17,0,85.4-25.03,85.4-55.87l-.18-3.37c.06-.81.19-1.61.19-2.43Z"/>
          <path class="cls-77" d="m375.48,394.68l-17.08-318.92c0-30.39-38.23-55.03-85.4-55.03H112.39c-.28,0-.55.02-.82.03h-.01c-2.91.02-5.77.14-8.6.33-.22.02-.44.05-.66.06-2.55.18-5.09.45-7.57.79-1.76.24-3.47.56-5.19.87-.87.16-1.78.28-2.64.45-34.68,7.07-59.91,27.82-59.91,52.49L9.92,394.68c0,.75.13,1.49.18,2.24l-.19,3.57c0,30.85,38.2,55.87,85.4,55.87h194.76c47.17,0,85.4-25.03,85.4-55.87l-.18-3.37c.06-.81.19-1.61.19-2.43Z"/>
          <path class="cls-64" d="m376.24,394.22l-17.08-318.92c0-30.39-38.23-55.03-85.4-55.03H113.15c-.28,0-.55.02-.82.03h-.01c-2.91.02-5.77.14-8.6.33-.22.02-.44.05-.66.06-2.55.18-5.09.45-7.57.79-1.76.24-3.47.56-5.19.87-.87.16-1.78.28-2.64.45-34.68,7.07-59.91,27.82-59.91,52.49L10.68,394.22c0,.75.13,1.49.18,2.24l-.19,3.57c0,30.85,38.2,55.87,85.4,55.87h194.76c47.17,0,85.4-25.03,85.4-55.87l-.18-3.37c.06-.81.19-1.61.19-2.43Z"/>
          <path class="cls-4" d="m377,393.76l-17.08-318.92c0-30.39-38.23-55.03-85.4-55.03H113.91c-.28,0-.55.02-.82.03h-.01c-2.91.02-5.77.14-8.6.33-.22.02-.44.05-.66.06-2.55.18-5.09.45-7.57.79-1.76.24-3.47.56-5.19.87-.87.16-1.78.28-2.64.45-34.68,7.07-59.91,27.82-59.91,52.49L11.45,393.76c0,.75.13,1.49.18,2.24l-.19,3.57c0,30.85,38.2,55.87,85.4,55.87h194.76c47.17,0,85.4-25.03,85.4-55.87l-.18-3.37c.06-.81.19-1.61.19-2.43Z"/>
          <path class="cls-63" d="m377.76,393.3l-17.08-318.92c0-30.39-38.23-55.03-85.4-55.03H114.67c-.28,0-.55.02-.82.03h-.01c-2.91.02-5.77.14-8.6.33-.22.02-.44.05-.66.06-2.55.18-5.09.45-7.57.79-1.76.24-3.47.56-5.19.87-.87.16-1.78.28-2.64.45-34.68,7.07-59.91,27.82-59.91,52.49L12.21,393.3c0,.75.13,1.49.18,2.24l-.19,3.57c0,30.85,38.2,55.87,85.4,55.87h194.76c47.17,0,85.4-25.03,85.4-55.87l-.18-3.37c.06-.81.19-1.61.19-2.43Z"/>
          <path class="cls-74" d="m378.53,392.84l-17.08-318.92c0-30.39-38.23-55.03-85.4-55.03H115.44c-.28,0-.55.02-.82.03h-.01c-2.91.02-5.77.14-8.6.33-.22.02-.44.05-.66.06-2.55.18-5.09.45-7.57.79-1.76.24-3.47.56-5.19.87-.87.16-1.78.28-2.64.45-34.68,7.07-59.91,27.82-59.91,52.49L12.97,392.84c0,.75.13,1.49.18,2.24l-.19,3.57c0,30.85,38.2,55.87,85.4,55.87h194.76c47.17,0,85.4-25.03,85.4-55.87l-.18-3.37c.06-.81.19-1.61.19-2.43Z"/>
          <path class="cls-83" d="m379.29,392.38l-17.08-318.92c0-30.39-38.23-55.03-85.4-55.03H116.2c-.28,0-.55.02-.82.03h-.01c-2.91.02-5.77.14-8.6.33-.22.02-.44.05-.66.06-2.55.18-5.09.45-7.57.79-1.76.24-3.47.56-5.19.87-.87.16-1.78.28-2.64.45-34.68,7.07-59.91,27.82-59.91,52.49L13.74,392.38c0,.75.13,1.49.18,2.24l-.19,3.57c0,30.85,38.2,55.87,85.4,55.87h194.76c47.17,0,85.4-25.03,85.4-55.87l-.18-3.37c.06-.81.19-1.61.19-2.43Z"/>
          <path class="cls-76" d="m380.05,391.92l-17.08-318.92c0-30.39-38.23-55.03-85.4-55.03H116.96c-.28,0-.55.02-.82.03h-.01c-2.91.02-5.77.14-8.6.33-.22.02-.44.05-.66.06-2.55.18-5.09.45-7.57.79-1.76.24-3.47.56-5.19.87-.87.16-1.78.28-2.64.45-34.68,7.07-59.91,27.82-59.91,52.49L14.5,391.92c0,.75.13,1.49.18,2.24l-.19,3.57c0,30.85,38.2,55.87,85.4,55.87h194.76c47.17,0,85.4-25.03,85.4-55.87l-.18-3.37c.06-.81.19-1.61.19-2.43Z"/>
          <path class="cls-56" d="m380.81,391.46l-17.08-318.92c0-30.39-38.23-55.03-85.4-55.03H117.72c-.28,0-.55.02-.82.03h-.01c-2.91.02-5.77.14-8.6.33-.22.02-.44.05-.66.06-2.55.18-5.09.45-7.57.79-1.76.24-3.47.56-5.19.87-.87.16-1.78.28-2.64.45-34.68,7.07-59.91,27.82-59.91,52.49L15.26,391.46c0,.75.13,1.49.18,2.24l-.19,3.57c0,30.85,38.2,55.87,85.4,55.87h194.76c47.17,0,85.4-25.03,85.4-55.87l-.18-3.37c.06-.81.19-1.61.19-2.43Z"/>
          <path class="cls-42" d="m381.58,391l-17.08-318.92c0-30.39-38.23-55.03-85.4-55.03H118.49c-.28,0-.55.02-.82.03h-.01c-2.91.02-5.77.14-8.6.33-.22.02-.44.05-.66.06-2.55.18-5.09.45-7.57.79-1.76.24-3.47.56-5.19.87-.87.16-1.78.28-2.64.45-34.68,7.07-59.91,27.82-59.91,52.49l-17.06,318.92c0,.75.13,1.49.18,2.24l-.19,3.57c0,30.85,38.2,55.87,85.4,55.87h194.76c47.17,0,85.4-25.03,85.4-55.87l-.18-3.37c.06-.81.19-1.61.19-2.43Z"/>
          <path class="cls-2" d="m382.34,390.54l-17.08-318.92c0-30.39-38.22-55.03-85.4-55.03H119.25c-.28,0-.55.02-.82.03h-.01c-2.91.02-5.77.14-8.6.33-.22.02-.44.05-.66.06-2.55.18-5.09.45-7.57.79-1.76.24-3.47.56-5.18.87-.87.16-1.78.28-2.64.45-34.68,7.07-59.91,27.82-59.91,52.49l-17.06,318.92c0,.75.13,1.49.18,2.24l-.19,3.57c0,30.85,38.2,55.87,85.4,55.87h194.76c47.17,0,85.4-25.03,85.4-55.87l-.18-3.37c.06-.81.19-1.61.19-2.43Z"/>
          <path class="cls-60" d="m383.1,390.08l-17.08-318.92c0-30.39-38.22-55.03-85.4-55.03H120.01c-.28,0-.55.02-.82.03h-.01c-2.91.02-5.77.14-8.6.33-.22.02-.44.05-.66.06-2.55.18-5.09.45-7.57.79-1.76.24-3.47.56-5.18.87-.87.16-1.78.28-2.64.45-34.68,7.07-59.91,27.82-59.91,52.49l-17.06,318.92c0,.75.13,1.49.18,2.24l-.19,3.57c0,30.85,38.2,55.87,85.4,55.87h194.76c47.17,0,85.4-25.03,85.4-55.87l-.18-3.37c.06-.81.19-1.61.19-2.43Z"/>
          <path class="cls-38" d="m383.86,389.62l-17.08-318.92c0-30.39-38.22-55.03-85.4-55.03H120.77c-.28,0-.55.02-.82.03h-.01c-2.91.02-5.77.14-8.6.33-.22.02-.44.05-.66.06-2.55.18-5.09.45-7.57.79-1.76.24-3.47.56-5.18.87-.87.16-1.78.28-2.64.45-34.68,7.07-59.91,27.82-59.91,52.49l-17.06,318.92c0,.75.13,1.49.18,2.24l-.19,3.57c0,30.85,38.2,55.87,85.4,55.87h194.76c47.17,0,85.4-25.03,85.4-55.87l-.18-3.37c.06-.81.19-1.61.19-2.43Z"/>
          <path class="cls-37" d="m384.63,389.16l-17.08-318.92c0-30.39-38.22-55.03-85.4-55.03H121.54c-.28,0-.55.02-.82.03h-.01c-2.91.02-5.77.14-8.6.33-.22.02-.44.05-.66.06-2.55.18-5.09.45-7.57.79-1.76.24-3.47.56-5.18.87-.87.16-1.78.28-2.64.45-34.68,7.07-59.91,27.82-59.91,52.49l-17.06,318.92c0,.75.13,1.49.18,2.24l-.19,3.57c0,30.85,38.2,55.87,85.4,55.87h194.76c47.17,0,85.4-25.03,85.4-55.87l-.18-3.37c.06-.81.19-1.61.19-2.43Z"/>
          <path class="cls-52" d="m385.39,388.7l-17.08-318.92c0-30.39-38.22-55.03-85.4-55.03H122.3c-.28,0-.55.02-.82.03h-.01c-2.91.02-5.77.14-8.6.33-.22.02-.44.05-.66.06-2.55.18-5.09.45-7.57.79-1.76.24-3.47.56-5.18.87-.87.16-1.78.28-2.64.45-34.68,7.07-59.91,27.82-59.91,52.49l-17.06,318.92c0,.75.13,1.49.18,2.24l-.19,3.57c0,30.85,38.2,55.87,85.4,55.87h194.76c47.17,0,85.4-25.03,85.4-55.87l-.18-3.37c.06-.81.19-1.61.19-2.43Z"/>
          <path class="cls-46" d="m386.15,388.23l-17.08-318.92c0-30.39-38.22-55.03-85.4-55.03H123.06c-.28,0-.55.02-.82.03h-.01c-2.91.02-5.77.14-8.6.33-.22.02-.44.05-.66.06-2.55.18-5.09.45-7.57.79-1.76.24-3.47.56-5.18.87-.87.16-1.78.28-2.64.45-34.68,7.07-59.91,27.82-59.91,52.49l-17.06,318.92c0,.75.13,1.49.18,2.24l-.19,3.57c0,30.85,38.2,55.87,85.4,55.87h194.76c47.17,0,85.4-25.03,85.4-55.87l-.18-3.37c.06-.81.19-1.61.19-2.43Z"/>
          <path class="cls-81" d="m386.91,387.77l-17.08-318.92c0-30.39-38.22-55.03-85.4-55.03H123.82c-.28,0-.55.02-.82.03h-.01c-2.91.02-5.77.14-8.6.33-.22.02-.44.05-.66.06-2.55.18-5.09.45-7.57.79-1.76.24-3.47.56-5.18.87-.87.16-1.78.28-2.64.45-34.68,7.07-59.91,27.82-59.91,52.49l-17.06,318.92c0,.75.13,1.49.18,2.24l-.19,3.57c0,30.85,38.2,55.87,85.4,55.87h194.76c47.17,0,85.4-25.03,85.4-55.87l-.18-3.37c.06-.81.19-1.61.19-2.43Z"/>
          <path class="cls-18" d="m387.68,387.31l-17.08-318.92c0-30.39-38.22-55.03-85.4-55.03H124.59c-.28,0-.55.02-.82.03h-.01c-2.91.02-5.77.14-8.6.33-.22.02-.44.05-.66.06-2.55.18-5.09.45-7.57.79-1.76.24-3.47.56-5.18.87-.87.16-1.78.28-2.64.45-34.68,7.07-59.91,27.82-59.91,52.49l-17.06,318.92c0,.75.13,1.49.18,2.24l-.19,3.57c0,30.85,38.2,55.87,85.4,55.87h194.76c47.17,0,85.4-25.03,85.4-55.87l-.18-3.37c.06-.81.19-1.61.19-2.43Z"/>
          <path class="cls-18" d="m388.44,386.85l-17.08-318.92c0-30.39-38.22-55.03-85.4-55.03H125.35c-.28,0-.55.02-.82.03h-.01c-2.91.02-5.77.14-8.6.33-.22.02-.44.05-.66.06-2.55.18-5.09.45-7.57.79-1.76.24-3.47.56-5.18.87-.87.16-1.78.28-2.64.45-34.68,7.07-59.91,27.82-59.91,52.49l-17.06,318.92c0,.75.13,1.49.18,2.24l-.19,3.57c0,30.85,38.2,55.87,85.4,55.87h194.76c47.17,0,85.4-25.03,85.4-55.87l-.18-3.37c.06-.81.19-1.61.19-2.43Z"/>
          <path class="cls-36" d="m389.2,386.39l-17.08-318.92c0-30.39-38.22-55.03-85.4-55.03H126.11c-.28,0-.55.02-.82.03h-.01c-2.91.02-5.77.14-8.6.33-.22.02-.44.05-.66.06-2.56.18-5.09.45-7.57.79-1.76.24-3.47.56-5.18.87-.87.16-1.78.28-2.64.45-34.68,7.07-59.91,27.82-59.91,52.49l-17.06,318.92c0,.75.13,1.49.18,2.24l-.19,3.57c0,30.85,38.2,55.87,85.4,55.87h194.76c47.17,0,85.4-25.03,85.4-55.87l-.18-3.37c.06-.81.19-1.61.19-2.43Z"/>
          <path class="cls-27" d="m389.96,385.93l-17.08-318.92c0-30.39-38.22-55.03-85.4-55.03H126.87c-.28,0-.55.02-.82.03h0c-2.91.02-5.77.14-8.6.33-.22.02-.44.05-.66.06-2.56.18-5.09.45-7.57.79-1.76.24-3.47.56-5.18.87-.88.16-1.78.28-2.65.45-34.68,7.07-59.91,27.82-59.91,52.49l-17.06,318.92c0,.75.13,1.49.18,2.24l-.19,3.57c0,30.85,38.2,55.87,85.4,55.87h194.76c47.17,0,85.4-25.03,85.4-55.87l-.18-3.37c.06-.81.19-1.61.19-2.43Z"/>
          <path class="cls-84" d="m390.73,385.47l-17.08-318.92c0-30.39-38.22-55.03-85.4-55.03H127.64c-.28,0-.55.02-.82.03h0c-2.91.02-5.77.14-8.6.33-.22.02-.44.05-.66.06-2.56.18-5.09.45-7.57.79-1.76.24-3.47.56-5.18.87-.88.16-1.78.28-2.65.45-34.68,7.07-59.91,27.82-59.91,52.49l-17.06,318.92c0,.75.13,1.49.18,2.24l-.19,3.57c0,30.85,38.2,55.87,85.4,55.87h194.76c47.17,0,85.4-25.03,85.4-55.87l-.18-3.37c.06-.81.19-1.61.19-2.43Z"/>
          <path class="cls-29" d="m391.49,385.01l-17.08-318.92c0-30.39-38.22-55.03-85.4-55.03h-160.61c-.28,0-.55.02-.82.03h0c-2.91.02-5.77.14-8.6.33-.22.02-.44.05-.66.06-2.56.18-5.09.45-7.57.79-1.76.24-3.47.56-5.18.87-.88.16-1.78.28-2.65.45-34.68,7.07-59.91,27.82-59.91,52.49l-17.06,318.92c0,.75.13,1.49.18,2.24l-.19,3.57c0,30.85,38.2,55.87,85.4,55.87h194.76c47.17,0,85.4-25.03,85.4-55.87l-.18-3.37c.06-.81.19-1.61.19-2.43Z"/>
          <path class="cls-1" d="m392.25,384.55l-17.08-318.92c0-30.39-38.22-55.03-85.4-55.03h-160.61c-.28,0-.55.02-.82.03h0c-2.91.02-5.77.14-8.6.33-.22.02-.44.05-.66.06-2.56.18-5.09.45-7.57.79-1.76.24-3.47.56-5.18.87-.88.16-1.78.28-2.65.45-34.68,7.07-59.91,27.82-59.91,52.49l-17.06,318.92c0,.75.13,1.49.18,2.24l-.19,3.57c0,30.85,38.2,55.87,85.4,55.87h194.76c47.17,0,85.4-25.03,85.4-55.87l-.18-3.37c.06-.81.19-1.61.19-2.43Z"/>
          <path class="cls-58" d="m393.01,384.09l-17.08-318.92c0-30.39-38.22-55.03-85.4-55.03h-160.61c-.28,0-.55.02-.82.03h0c-2.91.02-5.77.14-8.6.33-.22.02-.44.05-.66.06-2.56.18-5.09.45-7.57.79-1.76.24-3.47.56-5.18.87-.88.16-1.78.28-2.65.45-34.68,7.07-59.91,27.82-59.91,52.49l-17.06,318.92c0,.75.13,1.49.18,2.24l-.19,3.57c0,30.85,38.2,55.87,85.4,55.87h194.76c47.17,0,85.4-25.03,85.4-55.87l-.18-3.37c.06-.81.19-1.61.19-2.43Z"/>
          <path class="cls-10" d="m393.78,383.63l-17.08-318.92c0-30.39-38.22-55.03-85.4-55.03h-160.61c-.28,0-.55.02-.82.03h0c-2.91.02-5.77.14-8.6.33-.22.02-.44.05-.66.06-2.56.18-5.09.45-7.57.79-1.76.24-3.47.56-5.18.87-.88.16-1.78.28-2.65.45-34.68,7.07-59.91,27.82-59.91,52.49l-17.06,318.92c0,.75.12,1.49.18,2.24l-.19,3.57c0,30.85,38.2,55.87,85.4,55.87h194.76c47.17,0,85.4-25.03,85.4-55.87l-.18-3.37c.06-.81.19-1.61.19-2.43Z"/>
          <path class="cls-40" d="m394.54,383.17l-17.08-318.92c0-30.39-38.22-55.03-85.4-55.03h-160.61c-.28,0-.55.02-.82.03h0c-2.91.02-5.77.14-8.6.33-.22.02-.44.05-.66.06-2.56.18-5.09.45-7.57.79-1.76.24-3.47.56-5.18.87-.88.16-1.78.28-2.65.45-34.68,7.07-59.91,27.82-59.91,52.49l-17.06,318.92c0,.76.12,1.49.18,2.24l-.19,3.57c0,30.85,38.2,55.87,85.4,55.87h194.76c47.17,0,85.4-25.03,85.4-55.87l-.18-3.37c.06-.81.19-1.61.19-2.43Z"/>
          <path class="cls-69" d="m395.3,382.71l-17.08-318.92c0-30.39-38.22-55.03-85.4-55.03h-160.61c-.28,0-.55.02-.82.03h0c-2.91.02-5.77.14-8.6.33-.22.02-.44.05-.66.06-2.56.18-5.09.45-7.57.79-1.76.24-3.47.56-5.18.87-.88.16-1.78.28-2.65.45-34.68,7.07-59.91,27.82-59.91,52.49l-17.06,318.92c0,.76.12,1.49.18,2.24l-.19,3.57c0,30.85,38.2,55.87,85.4,55.87h194.76c47.17,0,85.4-25.03,85.4-55.87l-.18-3.37c.06-.81.19-1.61.19-2.43Z"/>
          <path class="cls-12" d="m396.06,382.25l-17.08-318.92c0-30.39-38.22-55.03-85.4-55.03h-160.61c-.28,0-.55.02-.82.03h0c-2.91.02-5.77.14-8.6.33-.22.02-.44.05-.66.06-2.56.18-5.09.45-7.57.79-1.76.24-3.47.56-5.18.87-.88.16-1.78.28-2.65.45-34.68,7.07-59.91,27.82-59.91,52.49l-17.06,318.92c0,.76.12,1.49.17,2.24l-.19,3.57c0,30.85,38.2,55.87,85.4,55.87h194.76c47.17,0,85.4-25.03,85.4-55.87l-.18-3.37c.06-.81.19-1.61.19-2.43Z"/>
          <path class="cls-33" d="m396.83,381.79l-17.08-318.92c0-30.39-38.22-55.03-85.4-55.03h-160.61c-.28,0-.55.02-.82.03h0c-2.91.02-5.78.14-8.6.33-.22.02-.44.05-.66.06-2.56.18-5.09.45-7.57.79-1.76.24-3.47.56-5.18.87-.88.16-1.78.28-2.65.45-34.68,7.07-59.91,27.82-59.91,52.49l-17.06,318.92c0,.76.12,1.49.17,2.24l-.19,3.57c0,30.85,38.2,55.87,85.4,55.87h194.76c47.17,0,85.4-25.03,85.4-55.87l-.18-3.37c.06-.81.19-1.61.19-2.43Z"/>
          <path class="cls-24" d="m397.59,381.33l-17.08-318.92c0-30.39-38.22-55.03-85.4-55.03h-160.61c-.28,0-.55.02-.82.03h0c-2.91.02-5.78.14-8.6.33-.22.02-.44.05-.66.06-2.56.18-5.09.45-7.57.79-1.76.24-3.47.56-5.18.87-.88.16-1.78.28-2.65.45-34.68,7.07-59.91,27.82-59.91,52.49l-17.06,318.92c0,.76.12,1.49.17,2.24l-.19,3.57c0,30.85,38.2,55.87,85.4,55.87h194.76c47.17,0,85.4-25.03,85.4-55.87l-.18-3.37c.06-.81.19-1.61.19-2.43Z"/>
          <path class="cls-57" d="m398.35,380.87l-17.08-318.92c0-30.39-38.22-55.03-85.4-55.03h-160.61c-.28,0-.55.02-.82.03h0c-2.91.02-5.78.14-8.6.33-.22.02-.44.05-.66.06-2.56.18-5.09.45-7.57.79-1.76.24-3.47.56-5.18.87-.88.16-1.78.28-2.65.45-34.68,7.07-59.91,27.82-59.91,52.49l-17.06,318.92c0,.76.12,1.49.17,2.24l-.19,3.57c0,30.85,38.2,55.87,85.4,55.87h194.76c47.17,0,85.4-25.03,85.4-55.87l-.18-3.37c.06-.81.19-1.61.19-2.43Z"/>
          <path class="cls-39" d="m399.12,380.41l-17.08-318.92c0-30.39-38.22-55.03-85.4-55.03h-160.61c-.28,0-.55.02-.82.03h0c-2.91.02-5.78.14-8.6.33-.22.02-.44.05-.66.06-2.56.18-5.09.45-7.57.79-1.76.24-3.47.56-5.18.87-.88.16-1.78.28-2.65.45-34.68,7.07-59.91,27.82-59.91,52.49l-17.06,318.92c0,.76.12,1.49.17,2.24l-.19,3.57c0,30.85,38.2,55.87,85.4,55.87h194.76c47.17,0,85.4-25.03,85.4-55.87l-.18-3.37c.06-.81.19-1.61.19-2.43Z"/>
          <path class="cls-55" d="m399.88,379.95l-17.08-318.92c0-30.39-38.22-55.03-85.4-55.03h-160.61c-.28,0-.55.02-.82.03h0c-2.91.02-5.78.14-8.6.33-.22.02-.44.05-.66.06-2.56.18-5.09.45-7.57.79-1.76.24-3.47.56-5.18.87-.88.16-1.78.28-2.65.45-34.68,7.07-59.91,27.82-59.91,52.49l-17.06,318.92c0,.76.12,1.49.17,2.24l-.19,3.57c0,30.85,38.2,55.87,85.4,55.87h194.76c47.17,0,85.4-25.03,85.4-55.87l-.18-3.37c.06-.81.19-1.61.19-2.43Z"/>
          <path class="cls-72" d="m400.64,379.49l-17.08-318.92c0-30.39-38.22-55.03-85.4-55.03h-160.61c-.28,0-.55.02-.82.03h0c-2.91.02-5.78.14-8.6.33-.22.02-.44.05-.66.06-2.56.18-5.09.45-7.57.79-1.76.24-3.47.56-5.18.87-.88.16-1.78.28-2.65.45-34.68,7.07-59.91,27.82-59.91,52.49l-17.06,318.92c0,.76.12,1.49.17,2.24l-.19,3.57c0,30.85,38.2,55.87,85.4,55.87h194.76c47.17,0,85.4-25.03,85.4-55.87l-.18-3.37c.06-.81.19-1.61.19-2.43Z"/>
          <path class="cls-8" d="m401.4,379.03l-17.08-318.92c0-30.39-38.22-55.03-85.4-55.03h-160.61c-.28,0-.55.02-.82.03h0c-2.91.02-5.78.14-8.6.33-.22.02-.44.05-.66.06-2.56.18-5.09.45-7.57.79-1.76.24-3.47.56-5.18.87-.88.16-1.78.28-2.65.45-34.68,7.07-59.91,27.82-59.91,52.49l-17.06,318.92c0,.76.12,1.49.17,2.24l-.19,3.57c0,30.85,38.2,55.87,85.4,55.87h194.76c47.17,0,85.4-25.03,85.4-55.87l-.18-3.37c.06-.81.19-1.61.19-2.43Z"/>
          <path class="cls-75" d="m402.17,378.57l-17.08-318.92c0-30.39-38.22-55.03-85.4-55.03h-160.61c-.28,0-.55.02-.82.03h0c-2.91.02-5.78.14-8.6.33-.22.02-.44.05-.66.06-2.56.18-5.09.45-7.57.79-1.76.24-3.47.56-5.18.87-.88.16-1.78.28-2.65.45-34.68,7.07-59.91,27.82-59.91,52.49l-17.06,318.92c0,.76.12,1.49.17,2.24l-.19,3.57c0,30.85,38.2,55.87,85.4,55.87h194.76c47.17,0,85.4-25.03,85.4-55.87l-.18-3.37c.06-.81.19-1.61.19-2.43Z"/>
          <path class="cls-32" d="m402.93,378.11l-17.08-318.92c0-30.39-38.22-55.03-85.4-55.03h-160.61c-.28,0-.55.02-.82.03h0c-2.91.02-5.78.14-8.61.33-.22.02-.44.05-.66.06-2.56.18-5.09.45-7.57.79-1.76.24-3.47.56-5.18.87-.88.16-1.78.28-2.65.45-34.68,7.07-59.91,27.82-59.91,52.49l-17.06,318.92c0,.76.12,1.49.17,2.24l-.19,3.57c0,30.85,38.2,55.87,85.4,55.87h194.76c47.17,0,85.4-25.03,85.4-55.87l-.18-3.37c.06-.81.19-1.61.19-2.43Z"/>
          <path class="cls-66" d="m403.69,377.64l-17.08-318.92c0-30.39-38.22-55.03-85.4-55.03h-160.61c-.28,0-.55.02-.82.03h0c-2.91.02-5.78.14-8.61.33-.22.02-.44.05-.66.06-2.56.18-5.09.45-7.57.79-1.76.24-3.47.56-5.18.87-.88.16-1.78.28-2.65.45-34.68,7.07-59.91,27.82-59.91,52.49l-17.06,318.92c0,.76.12,1.49.17,2.24l-.19,3.57c0,30.85,38.2,55.87,85.4,55.87h194.76c47.17,0,85.4-25.03,85.4-55.87l-.18-3.37c.06-.81.19-1.61.19-2.43Z"/>
          <path class="cls-70" d="m404.45,377.18l-17.08-318.92c0-30.39-38.22-55.03-85.4-55.03h-160.61c-.28,0-.55.02-.82.03h0c-2.91.02-5.78.14-8.61.33-.22.02-.44.05-.66.06-2.56.18-5.09.45-7.57.79-1.76.24-3.47.56-5.18.87-.88.16-1.78.28-2.65.45-34.68,7.07-59.91,27.82-59.91,52.49l-17.06,318.92c0,.76.12,1.49.17,2.24l-.19,3.57c0,30.85,38.2,55.87,85.4,55.87h194.76c47.17,0,85.4-25.03,85.4-55.87l-.18-3.37c.06-.81.19-1.61.19-2.43Z"/>
          <path class="cls-61" d="m405.22,376.72l-17.08-318.92c0-30.39-38.22-55.03-85.4-55.03h-160.61c-.28,0-.55.02-.82.03h0c-2.91.02-5.78.14-8.61.33-.22.02-.44.05-.66.06-2.56.18-5.09.45-7.57.79-1.76.24-3.47.56-5.18.87-.88.16-1.78.28-2.65.45-34.68,7.07-59.91,27.82-59.91,52.49l-17.06,318.92c0,.76.12,1.49.17,2.24l-.19,3.57c0,30.85,38.2,55.87,85.4,55.87h194.76c47.17,0,85.4-25.03,85.4-55.87l-.18-3.37c.06-.81.19-1.61.19-2.43Z"/>
          <path class="cls-7" d="m405.98,376.26l-17.08-318.92c0-30.39-38.22-55.03-85.4-55.03h-160.61c-.28,0-.55.02-.82.03h0c-2.91.02-5.78.14-8.61.33-.22.02-.44.05-.66.06-2.56.18-5.09.45-7.57.79-1.76.24-3.47.56-5.18.87-.88.16-1.78.28-2.65.45-34.68,7.07-59.91,27.82-59.91,52.49l-17.06,318.92c0,.76.12,1.49.17,2.24l-.19,3.57c0,30.85,38.2,55.87,85.4,55.87h194.76c47.17,0,85.4-25.03,85.4-55.87l-.18-3.37c.06-.81.19-1.61.19-2.43Z"/>
          <path class="cls-11" d="m406.74,375.8l-17.08-318.92c0-30.39-38.22-55.03-85.4-55.03h-160.61c-.28,0-.55.02-.82.03h0c-2.91.02-5.78.14-8.61.33-.22.02-.44.05-.66.06-2.56.18-5.09.45-7.57.79-1.76.24-3.47.56-5.18.87-.88.16-1.78.28-2.65.45-34.68,7.07-59.91,27.82-59.91,52.49l-17.06,318.92c0,.76.12,1.49.17,2.24l-.19,3.57c0,30.85,38.2,55.87,85.4,55.87h194.76c47.17,0,85.4-25.03,85.4-55.87l-.18-3.37c.06-.81.19-1.61.19-2.43Z"/>
          <path class="cls-25" d="m407.5,375.34l-17.08-318.92c0-30.39-38.22-55.03-85.4-55.03h-160.61c-.28,0-.55.02-.82.03h0c-2.91.02-5.78.14-8.61.33-.22.02-.44.05-.66.06-2.56.18-5.09.45-7.57.79-1.76.24-3.47.56-5.18.87-.88.16-1.78.28-2.65.45-34.68,7.07-59.91,27.82-59.91,52.49l-17.06,318.92c0,.76.12,1.49.17,2.24l-.19,3.57c0,30.85,38.2,55.87,85.4,55.87h194.76c47.17,0,85.4-25.03,85.4-55.87l-.18-3.37c.06-.81.19-1.61.19-2.43Z"/>
          <path class="cls-43" d="m408.27,374.88l-17.08-318.92c0-30.39-38.22-55.03-85.4-55.03h-160.61c-.28,0-.55.02-.82.03h0c-2.91.02-5.78.14-8.61.33-.22.02-.44.05-.66.06-2.56.18-5.09.45-7.57.79-1.76.24-3.47.56-5.18.87-.88.16-1.78.28-2.65.45-34.68,7.07-59.91,27.82-59.91,52.49l-17.06,318.92c0,.76.12,1.49.17,2.24l-.19,3.57c0,30.85,38.2,55.87,85.4,55.87h194.76c47.17,0,85.4-25.03,85.4-55.87l-.18-3.37c.06-.81.19-1.61.19-2.43Z"/>
          <path class="cls-28" d="m409.03,374.42l-17.08-318.92c0-30.39-38.22-55.03-85.4-55.03h-160.61c-.28,0-.55.02-.82.03h0c-2.91.02-5.78.14-8.61.33-.22.02-.44.05-.66.06-2.56.18-5.09.45-7.57.79-1.76.24-3.47.56-5.18.87-.88.16-1.78.28-2.65.45-34.68,7.07-59.91,27.82-59.91,52.49l-17.06,318.92c0,.76.12,1.49.17,2.24l-.19,3.57c0,30.85,38.2,55.87,85.4,55.87h194.76c47.17,0,85.4-25.03,85.4-55.87l-.18-3.37c.06-.81.19-1.61.19-2.43Z"/>
          <path class="cls-73" d="m409.79,373.96l-17.08-318.92C392.71,24.65,354.49.01,307.31.01h-160.61c-.28,0-.55.02-.82.03h0c-2.91.02-5.78.13-8.61.33-.22.01-.44.05-.66.06-2.55.2-5.09.45-7.57.79-1.76.24-3.47.56-5.18.87-.88.16-1.79.27-2.65.45-34.69,6.98-59.91,27.82-59.91,52.49l-17.06,318.92c0,.76.12,1.49.17,2.24l-.19,3.57c0,30.85,38.2,55.87,85.4,55.87h194.76c47.17,0,85.4-25.03,85.4-55.87l-.18-3.37c.06-.81.19-1.61.19-2.43Z"/>
        </g>
        <g>
          <path class="cls-13" d="m409.79,373.96c0,30.37-38.22,55.02-85.39,55.02h-194.76c-47.2,0-85.4-24.65-85.4-55.02L61.3,55.04C61.3,24.65,99.57.01,146.72.01h160.59c47.17,0,85.4,24.63,85.4,55.03l17.08,318.92Z"/>
          <g>
            <path class="cls-73" d="m409.78,379.77c0,30.85-38.23,55.87-85.4,55.87h-194.76c-47.2,0-85.4-25.03-85.4-55.87L61.29,55.89C61.29,25.03,99.56.01,146.7.01h160.59c47.18,0,85.4,25.01,85.4,55.88l17.09,323.88Z"/>
            <path class="cls-25" d="m408.97,379.26c0,30.76-38.06,55.71-85.02,55.71h-193.89c-46.99,0-85.02-24.96-85.02-55.71L62.03,56.32C62.03,25.55,100.13.61,147.06.61h159.88c46.97,0,85.02,24.94,85.02,55.72l17.01,322.94Z"/>
            <path class="cls-7" d="m408.15,378.75c0,30.67-37.89,55.55-84.64,55.55h-193.02c-46.78,0-84.64-24.88-84.64-55.55L62.77,56.75C62.77,26.07,100.7,1.2,147.42,1.2h159.16c46.76,0,84.64,24.87,84.64,55.55l16.94,322Z"/>
            <path class="cls-66" d="m407.33,378.25c0,30.58-37.71,55.39-84.25,55.39h-192.15c-46.57,0-84.26-24.81-84.26-55.39L63.51,57.18C63.51,26.59,101.27,1.79,147.78,1.79h158.44c46.55,0,84.25,24.8,84.25,55.39l16.86,321.06Z"/>
            <path class="cls-8" d="m406.52,377.74c0,30.49-37.54,55.23-83.87,55.23h-191.28c-46.36,0-83.87-24.74-83.87-55.23L64.25,57.61c0-30.51,37.59-55.23,83.89-55.23h157.73c46.34,0,83.87,24.72,83.87,55.23l16.78,320.13Z"/>
            <path class="cls-39" d="m405.7,377.23c0,30.4-37.37,55.07-83.49,55.07h-190.41c-46.15,0-83.49-24.67-83.49-55.07L64.99,58.04c0-30.42,37.42-55.07,83.51-55.07h157.01c46.12,0,83.49,24.65,83.49,55.07l16.71,319.19Z"/>
            <path class="cls-24" d="m404.89,376.72c0,30.31-37.2,54.9-83.11,54.9h-189.54c-45.94,0-83.11-24.59-83.11-54.9L65.73,58.47c0-30.33,37.24-54.91,83.13-54.91h156.29c45.91,0,83.11,24.58,83.11,54.91l16.63,318.25Z"/>
            <path class="cls-69" d="m404.07,376.22c0,30.22-37.03,54.74-82.73,54.74h-188.67c-45.72,0-82.73-24.52-82.73-54.74L66.47,58.9c0-30.24,37.07-54.75,82.74-54.75h155.58c45.7,0,82.73,24.51,82.73,54.75l16.55,317.31Z"/>
            <path class="cls-58" d="m403.25,375.71c0,30.13-36.86,54.58-82.35,54.58h-187.8c-45.51,0-82.35-24.45-82.35-54.58L67.21,59.33c0-30.15,36.9-54.58,82.36-54.58h154.86c45.49,0,82.35,24.44,82.35,54.58l16.48,316.38Z"/>
            <path class="cls-29" d="m402.44,375.2c0,30.04-36.69,54.42-81.97,54.42h-186.93c-45.3,0-81.97-24.38-81.97-54.42L67.95,59.76c0-30.06,36.73-54.42,81.98-54.42h154.14c45.28,0,81.97,24.36,81.97,54.42l16.4,315.44Z"/>
            <path class="cls-36" d="m401.62,374.69c0,29.95-36.52,54.26-81.58,54.26h-186.06c-45.09,0-81.59-24.31-81.59-54.26L68.69,60.19c0-29.97,36.56-54.26,81.6-54.26h153.43c45.07,0,81.59,24.29,81.59,54.26l16.32,314.5Z"/>
            <path class="cls-46" d="m400.81,374.19c0,29.86-36.35,54.1-81.2,54.1h-185.19c-44.88,0-81.21-24.23-81.21-54.1L69.42,60.62c0-29.88,36.39-54.1,81.22-54.1h152.71c44.86,0,81.2,24.22,81.2,54.1l16.25,313.56Z"/>
            <path class="cls-38" d="m399.99,373.68c0,29.77-36.18,53.93-80.82,53.93h-184.32c-44.67,0-80.83-24.16-80.83-53.93L70.16,61.05c0-29.79,36.22-53.94,80.84-53.94h151.99c44.65,0,80.82,24.15,80.82,53.94l16.17,312.63Z"/>
            <path class="cls-2" d="m399.17,373.17c0,29.68-36.01,53.77-80.44,53.77h-183.45c-44.46,0-80.45-24.09-80.45-53.77L70.9,61.48c0-29.7,36.05-53.77,80.46-53.77h151.28c44.44,0,80.44,24.07,80.44,53.77l16.1,311.69Z"/>
            <path class="cls-76" d="m398.36,372.66c0,29.6-35.83,53.61-80.06,53.61h-182.58c-44.25,0-80.06-24.02-80.06-53.61l15.99-310.75c0-29.61,35.88-53.61,80.07-53.61h150.56c44.23,0,80.06,24,80.06,53.61l16.02,310.75Z"/>
            <path class="cls-63" d="m397.54,372.16c0,29.51-35.66,53.45-79.68,53.45h-181.71c-44.04,0-79.68-23.94-79.68-53.45l15.92-309.81c0-29.52,35.71-53.45,79.69-53.45h149.84c44.02,0,79.68,23.93,79.68,53.45l15.94,309.81Z"/>
            <path class="cls-64" d="m396.72,371.65c0,29.42-35.49,53.29-79.3,53.29h-180.84c-43.83,0-79.3-23.87-79.3-53.29l15.84-308.88c0-29.43,35.54-53.29,79.31-53.29h149.13c43.81,0,79.3,23.86,79.3,53.29l15.87,308.88Z"/>
            <path class="cls-5" d="m395.91,371.14c0,29.33-35.32,53.13-78.92,53.13h-179.97c-43.62,0-78.92-23.8-78.92-53.13l15.77-307.94c0-29.34,35.36-53.13,78.93-53.13h148.41c43.6,0,78.92,23.78,78.92,53.13l15.79,307.94Z"/>
            <path class="cls-62" d="m395.09,370.63c0,29.24-35.15,52.97-78.53,52.97h-179.1c-43.41,0-78.54-23.73-78.54-52.97l15.69-307c0-29.25,35.19-52.97,78.55-52.97h147.69c43.39,0,78.53,23.71,78.53,52.97l15.71,307Z"/>
            <path class="cls-9" d="m394.28,370.13c0,29.15-34.98,52.8-78.15,52.8h-178.24c-43.2,0-78.16-23.65-78.16-52.8l15.61-306.06c0-29.16,35.02-52.8,78.17-52.8h146.98c43.17,0,78.15,23.64,78.15,52.8l15.64,306.06Z"/>
            <path class="cls-82" d="m393.46,369.62c0,29.06-34.81,52.64-77.77,52.64h-177.37c-42.99,0-77.78-23.58-77.78-52.64l15.54-305.13c0-29.07,34.85-52.64,77.79-52.64h146.26c42.96,0,77.77,23.57,77.77,52.64l15.56,305.13Z"/>
            <path class="cls-6" d="m392.64,369.11c0,28.97-34.64,52.48-77.39,52.48h-176.5c-42.77,0-77.4-23.51-77.4-52.48l15.46-304.19c0-28.99,34.68-52.48,77.4-52.48h145.54c42.75,0,77.39,23.5,77.39,52.48l15.48,304.19Z"/>
            <path class="cls-48" d="m391.97,368.8c0,28.91-34.5,52.37-77.08,52.37h-175.78c-42.6,0-77.08-23.46-77.08-52.37l15.4-303.54c0-28.92,34.54-52.37,77.09-52.37h144.95c42.58,0,77.08,23.45,77.08,52.37l15.42,303.54Z"/>
            <path class="cls-71" d="m391.3,368.49c0,28.85-34.35,52.26-76.76,52.26h-175.06c-42.42,0-76.77-23.41-76.77-52.26l15.34-302.89c0-28.86,34.39-52.26,76.77-52.26h144.36c42.4,0,76.76,23.4,76.76,52.26l15.36,302.89Z"/>
            <path class="cls-5" d="m390.62,368.17c0,28.79-34.21,52.14-76.44,52.14h-174.34c-42.25,0-76.45-23.36-76.45-52.14l15.27-302.24c0-28.8,34.25-52.15,76.46-52.15h143.77c42.23,0,76.45,23.35,76.45,52.15l15.29,302.24Z"/>
            <path class="cls-4" d="m389.95,367.86c0,28.73-34.07,52.03-76.13,52.03h-173.62c-42.07,0-76.14-23.3-76.14-52.03l15.21-301.6c0-28.74,34.11-52.03,76.14-52.03h143.17c42.05,0,76.13,23.3,76.13,52.03l15.23,301.6Z"/>
            <path class="cls-83" d="m389.27,367.55c0,28.67-33.93,51.92-75.81,51.92h-172.91c-41.89,0-75.82-23.25-75.82-51.92l15.15-300.95c0-28.68,33.97-51.92,75.83-51.92h142.58c41.88,0,75.82,23.25,75.82,51.92l15.17,300.95Z"/>
            <path class="cls-2" d="m388.6,367.24c0,28.61-33.79,51.81-75.5,51.81h-172.19c-41.72,0-75.5-23.2-75.5-51.81l15.09-300.3c0-28.61,33.82-51.81,75.51-51.81h141.99c41.7,0,75.5,23.2,75.5,51.81l15.1,300.3Z"/>
            <path class="cls-52" d="m387.92,366.92c0,28.54-33.64,51.69-75.18,51.69h-171.47c-41.54,0-75.19-23.15-75.19-51.69l15.02-299.65c0-28.55,33.68-51.7,75.2-51.7h141.4c41.53,0,75.19,23.15,75.19,51.7l15.04,299.65Z"/>
            <path class="cls-18" d="m387.25,366.61c0,28.48-33.5,51.58-74.87,51.58h-170.75c-41.36,0-74.87-23.1-74.87-51.58l14.96-299c0-28.49,33.54-51.59,74.88-51.59h140.8c41.36,0,74.87,23.1,74.87,51.59l14.97,299Z"/>
            <path class="cls-29" d="m386.58,366.3c0,28.42-33.36,51.47-74.55,51.47h-170.04c-41.19,0-74.56-23.05-74.56-51.47l14.9-298.35c0-28.43,33.39-51.48,74.57-51.48h140.21c41.18,0,74.56,23.05,74.56,51.48l14.91,298.35Z"/>
            <path class="cls-40" d="m385.9,365.99c0,28.36-33.22,51.36-74.24,51.36h-169.32c-41.01,0-74.24-22.99-74.24-51.36l14.84-297.71c0-28.37,33.25-51.37,74.25-51.37h139.62c41.01,0,74.24,23,74.24,51.37l14.85,297.71Z"/>
            <path class="cls-33" d="m385.23,365.67c0,28.3-33.08,51.24-73.92,51.24h-168.6c-40.83,0-73.93-22.94-73.93-51.24l14.77-297.06c0-28.31,33.11-51.25,73.94-51.25h139.03c40.83,0,73.93,22.95,73.93,51.25l14.78,297.06Z"/>
            <path class="cls-55" d="m384.55,365.36c0,28.24-32.94,51.13-73.6,51.13h-167.88c-40.66,0-73.61-22.89-73.61-51.13l14.71-296.41c0-28.24,32.97-51.14,73.62-51.14h138.43c40.66,0,73.61,22.9,73.61,51.14l14.72,296.41Z"/>
            <path class="cls-32" d="m383.88,365.05c0,28.18-32.79,51.02-73.29,51.02h-167.16c-40.48,0-73.3-22.84-73.3-51.02l14.65-295.76c0-28.18,32.82-51.03,73.31-51.03h137.84c40.48,0,73.3,22.85,73.3,51.03l14.66,295.76Z"/>
            <path class="cls-61" d="m383.2,364.74c0,28.12-32.65,50.91-72.97,50.91h-166.45c-40.3,0-72.98-22.79-72.98-50.91l14.58-295.11c0-28.12,32.68-50.92,72.99-50.92h137.25c40.31,0,72.98,22.8,72.98,50.92l14.59,295.11Z"/>
            <path class="cls-43" d="m382.53,364.42c0,28.06-32.51,50.79-72.66,50.79h-165.73c-40.13,0-72.66-22.74-72.66-50.79l14.52-294.46c0-28.06,32.54-50.81,72.68-50.81h136.66c40.13,0,72.67,22.75,72.67,50.81l14.53,294.46Z"/>
            <path class="cls-78" d="m381.86,364.11c0,28-32.37,50.68-72.34,50.68h-165.01c-39.95,0-72.35-22.68-72.35-50.68l14.46-293.81c0-28,32.39-50.7,72.36-50.7h136.06c39.96,0,72.35,22.7,72.35,50.7l14.46,293.81Z"/>
            <path class="cls-59" d="m381.18,363.8c0,27.94-32.23,50.57-72.03,50.57h-164.29c-39.78,0-72.03-22.63-72.03-50.57l14.4-293.17c0-27.94,32.25-50.58,72.05-50.58h135.47c39.78,0,72.04,22.65,72.04,50.58l14.4,293.17Z"/>
            <path class="cls-34" d="m380.51,363.49c0,27.88-32.08,50.46-71.71,50.46h-163.58c-39.6,0-71.72-22.58-71.72-50.46l14.33-292.52c0-27.87,32.11-50.47,71.73-50.47h134.88c39.61,0,71.72,22.6,71.72,50.47l14.34,292.52Z"/>
            <path class="cls-79" d="m379.83,363.17c0,27.82-31.94,50.34-71.4,50.34h-162.86c-39.42,0-71.4-22.53-71.4-50.34l14.27-291.87c0-27.81,31.97-50.36,71.42-50.36h134.29c39.43,0,71.41,22.55,71.41,50.36l14.27,291.87Z"/>
            <path class="cls-54" d="m379.16,362.86c0,27.75-31.8,50.23-71.08,50.23h-162.14c-39.25,0-71.09-22.48-71.09-50.23l14.21-291.22c0-27.75,31.82-50.25,71.1-50.25h133.69c39.26,0,71.09,22.5,71.09,50.25l14.21,291.22Z"/>
            <path class="cls-20" d="m378.48,362.55c0,27.69-31.66,50.12-70.76,50.12h-161.42c-39.07,0-70.77-22.43-70.77-50.12l14.15-290.57c0-27.69,31.68-50.14,70.79-50.14h133.1c39.08,0,70.78,22.45,70.78,50.14l14.15,290.57Z"/>
            <path class="cls-68" d="m375.76,360.77c0,27.4-31.09,49.58-69.49,49.58h-158.52c-38.37,0-69.5-22.18-69.5-49.58l13.89-287.45c0-27.39,31.11-49.6,69.51-49.6h130.71c38.38,0,69.51,22.21,69.51,49.6l13.89,287.45Z"/>
            <path class="cls-41" d="m373.04,359c0,27.1-30.52,49.04-68.22,49.04h-155.62c-37.67,0-68.23-21.94-68.23-49.04l13.64-284.34c0-27.1,30.54-49.06,68.24-49.06h128.32c37.68,0,68.24,21.97,68.24,49.06l13.64,284.34Z"/>
            <path class="cls-21" d="m370.32,357.22c0,26.8-29.95,48.5-66.95,48.5h-152.72c-36.96,0-66.96-21.7-66.96-48.5l13.39-281.22c0-26.8,29.97-48.52,66.97-48.52h125.93c36.98,0,66.97,21.73,66.97,48.52l13.38,281.22Z"/>
            <path class="cls-34" d="m367.6,355.45c0,26.51-29.38,47.97-65.68,47.97h-149.82c-36.26,0-65.69-21.46-65.69-47.97l13.13-278.1c0-26.5,29.4-47.99,65.7-47.99h123.54c36.28,0,65.7,21.48,65.7,47.99l13.13,278.1Z"/>
            <path class="cls-17" d="m364.88,353.67c0,26.21-28.81,47.43-64.41,47.43h-146.93c-35.56,0-64.42-21.22-64.42-47.43l12.88-274.98c0-26.2,28.83-47.45,64.42-47.45h121.15c35.58,0,64.42,21.24,64.42,47.45l12.87,274.98Z"/>
            <path class="cls-31" d="m362.16,351.89c0,25.91-28.25,46.89-63.14,46.89h-144.03c-34.86,0-63.15-20.98-63.15-46.89l12.63-271.86c0-25.91,28.26-46.91,63.15-46.91h118.76c34.88,0,63.15,21,63.15,46.91l12.62,271.86Z"/>
            <path class="cls-73" d="m359.44,350.12c0,25.61-27.68,46.35-61.87,46.35h-141.13c-34.16,0-61.88-20.74-61.88-46.35l12.37-268.74c0-25.61,27.69-46.37,61.88-46.37h116.37c34.17,0,61.88,20.76,61.88,46.37l12.36,268.74Z"/>
            <path class="cls-43" d="m356.72,348.34c0,25.32-27.11,45.81-60.6,45.81h-138.23c-33.46,0-60.61-20.5-60.61-45.81l12.12-265.62c0-25.31,27.12-45.83,60.61-45.83h113.98c33.47,0,60.61,20.52,60.61,45.83l12.11,265.62Z"/>
            <path class="cls-7" d="m354,346.57c0,25.02-26.54,45.28-59.33,45.28h-135.33c-32.75,0-59.33-20.25-59.33-45.28l11.87-262.5c0-25.02,26.55-45.3,59.34-45.3h111.59c32.77,0,59.34,20.28,59.34,45.3l11.85,262.5Z"/>
            <path class="cls-66" d="m351.28,344.79c0,24.72-25.97,44.74-58.06,44.74h-132.43c-32.05,0-58.06-20.01-58.06-44.74l11.61-259.38c0-24.72,25.99-44.76,58.06-44.76h109.2c32.07,0,58.07,20.04,58.07,44.76l11.6,259.38Z"/>
            <path class="cls-8" d="m348.56,343.02c0,24.43-25.4,44.2-56.79,44.2h-129.53c-31.35,0-56.79-19.77-56.79-44.2l11.36-256.26c0-24.42,25.42-44.22,56.79-44.22h106.81c31.37,0,56.8,19.8,56.8,44.22l11.35,256.26Z"/>
            <path class="cls-39" d="m345.84,341.24c0,24.13-24.83,43.66-55.51,43.66h-126.63c-30.65,0-55.52-19.53-55.52-43.66l11.11-253.15c0-24.13,24.85-43.68,55.52-43.68h104.42c30.67,0,55.53,19.56,55.53,43.68l11.09,253.15Z"/>
            <path class="cls-33" d="m343.12,339.46c0,23.83-24.26,43.12-54.24,43.12h-123.73c-29.95,0-54.25-19.29-54.25-43.12l10.85-250.03c0-23.83,24.28-43.14,54.25-43.14h102.03c29.97,0,54.26,19.31,54.26,43.14l10.84,250.03Z"/>
            <path class="cls-69" d="m340.4,337.69c0,23.54-23.7,42.58-52.97,42.58h-120.83c-29.25,0-52.98-19.05-52.98-42.58l10.6-246.91c0-23.53,23.71-42.61,52.97-42.61h99.64c29.26,0,52.99,19.07,52.99,42.61l10.58,246.91Z"/>
            <path class="cls-58" d="m337.68,335.91c0,23.24-23.13,42.05-51.7,42.05h-117.93c-28.54,0-51.71-18.81-51.71-42.05l10.35-243.79c0-23.24,23.14-42.07,51.7-42.07h97.25c28.56,0,51.72,18.83,51.72,42.07l10.33,243.79Z"/>
            <path class="cls-84" d="m334.96,334.14c0,22.94-22.56,41.51-50.43,41.51h-115.03c-27.84,0-50.44-18.57-50.44-41.51l10.1-240.67c0-22.94,22.57-41.53,50.43-41.53h94.86c27.86,0,50.45,18.59,50.45,41.53l10.07,240.67Z"/>
            <path class="cls-18" d="m332.24,332.36c0,22.64-21.99,40.97-49.16,40.97h-112.13c-27.14,0-49.17-18.33-49.17-40.97l9.84-237.55c0-22.64,22-40.99,49.16-40.99h92.47c27.16,0,49.17,18.35,49.17,40.99l9.82,237.55Z"/>
            <path class="cls-52" d="m329.52,330.59c0,22.35-21.42,40.43-47.89,40.43h-109.23c-26.44,0-47.9-18.08-47.9-40.43l9.59-234.43c0-22.35,21.43-40.45,47.89-40.45h90.08c26.46,0,47.9,18.11,47.9,40.45l9.56,234.43Z"/>
            <path class="cls-38" d="m326.8,328.81c0,22.05-20.85,39.89-46.62,39.89h-106.33c-25.74,0-46.63-17.84-46.63-39.89l9.34-231.31c0-22.05,20.86-39.92,46.61-39.92h87.69c25.76,0,46.63,17.87,46.63,39.92l9.31,231.31Z"/>
            <path class="cls-42" d="m324.08,327.03c0,21.75-20.28,39.36-45.35,39.36h-103.44c-25.04,0-45.36-17.6-45.36-39.36l9.08-228.19c0-21.75,20.29-39.38,45.34-39.38h85.3c25.06,0,45.36,17.63,45.36,39.38l9.05,228.19Z"/>
            <path class="cls-83" d="m321.36,325.26c0,21.46-19.71,38.82-44.08,38.82h-100.54c-24.33,0-44.09-17.36-44.09-38.82l8.83-225.07c0-21.46,19.72-38.84,44.07-38.84h82.91c24.36,0,44.09,17.38,44.09,38.84l8.8,225.07Z"/>
          </g>
          <path class="cls-14" d="m378.49,362.55c0,27.69-31.66,50.12-70.76,50.12h-161.42c-39.07,0-70.77-22.43-70.77-50.12l14.15-290.57c0-27.69,31.68-50.14,70.78-50.14h133.1c39.08,0,70.78,22.45,70.78,50.14l14.15,290.57Z"/>
          <path class="cls-47" d="m409.78,379.77c0,30.85-38.23,55.87-85.4,55.87h-194.76c-47.2,0-85.4-25.03-85.4-55.87L61.29,55.89C61.29,25.03,99.56.01,146.7.01h160.59c47.18,0,85.4,25.01,85.4,55.88l17.09,323.88Z"/>
          <path class="cls-20" d="m244.86,318.89c0,6.44-7.79,11.64-17.38,11.64s-17.38-5.21-17.38-11.64,7.8-11.63,17.38-11.63,17.38,5.21,17.38,11.63Z"/>
          <path class="cls-16" d="m240.23,318.9c0,4.72-5.72,8.55-12.75,8.55s-12.75-3.82-12.75-8.55,5.72-8.54,12.75-8.54,12.75,3.82,12.75,8.54Z"/>
          <g>
            <g>
              <path class="cls-20" d="m170.43,419.8c.04-2.5,3.09-4.51,6.82-4.49l95.15.61c3.73.02,6.71,2.07,6.67,4.57v.69c-.06,2.5-3.11,4.51-6.84,4.49l-95.15-.61c-3.73-.02-6.71-2.07-6.67-4.57v-.69Z"/>
              <path class="cls-3" d="m173.95,419.92c.04-1.81,2.24-3.27,4.94-3.25l91.83.59c2.7.02,4.86,1.5,4.83,3.31v.5c-.04,1.81-2.25,3.26-4.94,3.24l-91.83-.59c-2.7-.01-4.86-1.5-4.83-3.31v-.5Z"/>
            </g>
            <g>
              <path class="cls-35" d="m209.21,420.39c.1-5.76,7.14-10.39,15.71-10.33,8.58.05,15.46,4.77,15.36,10.53-.09,5.76-7.13,10.39-15.71,10.33-8.58-.05-15.46-4.77-15.36-10.53Z"/>
              <path class="cls-45" d="m209.77,420.39c.1-5.55,6.88-10.01,15.15-9.96,8.27.05,14.9,4.6,14.8,10.15-.09,5.56-6.87,10.02-15.14,9.96-8.27-.05-14.9-4.6-14.81-10.15Z"/>
              <path class="cls-26" d="m210.33,420.4c.09-5.34,6.62-9.64,14.58-9.59,7.96.05,14.34,4.43,14.25,9.77-.09,5.35-6.62,9.64-14.57,9.59-7.96-.05-14.34-4.43-14.25-9.77Z"/>
              <path class="cls-30" d="m210.89,420.4c.09-5.14,6.36-9.26,14.01-9.21,7.65.05,13.78,4.25,13.69,9.39-.08,5.14-6.36,9.26-14,9.21-7.65-.05-13.78-4.25-13.7-9.39Z"/>
              <path class="cls-49" d="m211.45,420.4c.09-4.93,6.1-8.88,13.44-8.84,7.34.04,13.22,4.08,13.14,9.01-.08,4.93-6.1,8.89-13.44,8.84-7.34-.05-13.22-4.08-13.14-9.01Z"/>
              <path class="cls-59" d="m212.01,420.41c.08-4.72,5.85-8.51,12.87-8.46,7.03.04,12.66,3.91,12.58,8.63-.08,4.72-5.84,8.51-12.87,8.47-7.03-.04-12.66-3.91-12.58-8.63Z"/>
              <path class="cls-23" d="m212.58,420.41c.08-4.51,5.59-8.13,12.3-8.09,6.72.04,12.1,3.74,12.03,8.25-.07,4.51-5.58,8.14-12.3,8.09-6.72-.04-12.1-3.74-12.03-8.25Z"/>
              <path class="cls-75" d="m213.14,420.41c.07-4.3,5.33-7.76,11.74-7.72,6.41.04,11.55,3.56,11.47,7.87-.07,4.3-5.33,7.76-11.73,7.72-6.41-.04-11.54-3.57-11.47-7.87Z"/>
              <path class="cls-33" d="m213.7,420.42c.07-4.09,5.07-7.38,11.17-7.34,6.1.04,10.99,3.39,10.92,7.48-.07,4.1-5.07,7.39-11.17,7.35-6.1-.04-10.99-3.39-10.92-7.49Z"/>
              <path class="cls-29" d="m214.26,420.42c.07-3.89,4.81-7.01,10.6-6.97,5.79.03,10.43,3.22,10.36,7.1-.06,3.89-4.81,7.01-10.6,6.97-5.79-.04-10.43-3.22-10.36-7.11Z"/>
              <path class="cls-37" d="m214.82,420.42c.06-3.68,4.55-6.63,10.03-6.6,5.48.03,9.87,3.05,9.81,6.72-.06,3.68-4.55,6.64-10.03,6.6-5.48-.04-9.87-3.05-9.81-6.73Z"/>
              <path class="cls-83" d="m215.39,420.43c.06-3.47,4.3-6.26,9.46-6.22,5.17.03,9.31,2.87,9.25,6.34-.06,3.47-4.3,6.26-9.46,6.23-5.17-.03-9.31-2.88-9.25-6.35Z"/>
            </g>
            <g>
              <path class="cls-20" d="m217.07,348.48c.04-2.5,3.09-4.51,6.82-4.49l5.12.03c3.73.02,6.71,2.07,6.67,4.57l-1.65,72.83c-.04,2.5-3.1,4.51-6.82,4.49l-5.12-.03c-3.73-.02-6.71-2.07-6.67-4.57l1.65-72.83Z"/>
              <path class="cls-65" d="m220.11,350.03c.03-1.68,2.07-3.02,4.57-3.01l3.44.02c2.5.01,4.5,1.39,4.47,3.07l-1.62,71.08c-.03,1.68-2.08,3.03-4.58,3.01l-3.43-.02c-2.5-.01-4.5-1.39-4.47-3.07l1.62-71.09Z"/>
            </g>
            <g>
              <g>
                <g>
                  <path class="cls-35" d="m261.74,420.73c.08-4.84,5.99-8.72,13.19-8.68,7.2.04,12.98,4.01,12.89,8.84-.08,4.84-5.99,8.72-13.19,8.68-7.2-.04-12.97-4.01-12.89-8.84Z"/>
                  <path class="cls-45" d="m262.19,420.73c.08-4.67,5.78-8.42,12.73-8.37,6.95.04,12.53,3.87,12.45,8.53-.08,4.67-5.78,8.42-12.73,8.37-6.95-.04-12.52-3.87-12.45-8.53Z"/>
                  <path class="cls-26" d="m262.64,420.73c.08-4.5,5.57-8.12,12.28-8.07,6.7.04,12.08,3.73,12,8.23-.07,4.5-5.57,8.12-12.28,8.07-6.7-.04-12.08-3.73-12-8.23Z"/>
                  <path class="cls-30" d="m263.09,420.73c.07-4.34,5.37-7.82,11.82-7.77,6.45.04,11.63,3.59,11.56,7.92-.07,4.34-5.37,7.82-11.82,7.77-6.45-.04-11.63-3.59-11.56-7.92Z"/>
                  <path class="cls-49" d="m263.54,420.74c.07-4.17,5.16-7.51,11.36-7.47,6.21.04,11.18,3.45,11.11,7.62-.07,4.17-5.16,7.51-11.36,7.47-6.21-.04-11.18-3.45-11.11-7.62Z"/>
                  <path class="cls-59" d="m263.99,420.74c.07-4,4.95-7.21,10.91-7.17,5.96.04,10.73,3.31,10.66,7.31-.07,4-4.95,7.21-10.91,7.17-5.96-.04-10.73-3.31-10.66-7.31Z"/>
                  <path class="cls-23" d="m264.44,420.74c.07-3.83,4.75-6.91,10.45-6.87,5.71.04,10.28,3.17,10.22,7-.06,3.83-4.75,6.91-10.45,6.87-5.71-.04-10.28-3.17-10.22-7Z"/>
                  <path class="cls-75" d="m264.9,420.74c.07-3.66,4.54-6.61,9.99-6.57,5.46.03,9.83,3.04,9.77,6.7-.06,3.66-4.54,6.61-9.99,6.57-5.46-.03-9.83-3.03-9.77-6.7Z"/>
                  <path class="cls-33" d="m265.35,420.75c.06-3.5,4.33-6.3,9.54-6.27,5.21.03,9.39,2.9,9.32,6.39-.06,3.5-4.33,6.3-9.54,6.27-5.21-.03-9.38-2.89-9.32-6.39Z"/>
                  <path class="cls-29" d="m265.8,420.75c.06-3.33,4.13-6,9.08-5.97,4.96.03,8.94,2.76,8.88,6.09-.06,3.33-4.13,6-9.08,5.97-4.96-.03-8.93-2.76-8.88-6.09Z"/>
                  <path class="cls-37" d="m266.25,420.75c.06-3.16,3.92-5.7,8.62-5.67,4.71.03,8.49,2.62,8.43,5.78-.05,3.16-3.92,5.7-8.62,5.67-4.71-.03-8.49-2.62-8.43-5.78Z"/>
                  <path class="cls-83" d="m266.7,420.75c.06-2.99,3.71-5.4,8.17-5.37,4.46.03,8.04,2.48,7.99,5.48-.05,2.99-3.71,5.4-8.17,5.37-4.46-.03-8.04-2.48-7.99-5.48Z"/>
                </g>
                <path class="cls-53" d="m266.7,420.75c.06-2.99,3.71-5.4,8.17-5.37,4.46.03,8.04,2.48,7.99,5.48-.05,2.99-3.71,5.4-8.17,5.37-4.46-.03-8.04-2.48-7.99-5.48Z"/>
              </g>
              <g>
                <g>
                  <path class="cls-35" d="m161.67,420.08c.08-4.84,5.99-8.72,13.19-8.68,7.2.04,12.97,4.01,12.89,8.84-.08,4.84-5.99,8.72-13.19,8.68-7.2-.04-12.98-4.01-12.89-8.84Z"/>
                  <path class="cls-45" d="m162.12,420.09c.08-4.67,5.78-8.42,12.73-8.37,6.95.04,12.52,3.87,12.45,8.53-.08,4.67-5.78,8.42-12.73,8.37-6.95-.04-12.53-3.87-12.45-8.53Z"/>
                  <path class="cls-26" d="m162.57,420.09c.07-4.5,5.57-8.12,12.28-8.07,6.7.04,12.08,3.73,12,8.23-.07,4.5-5.57,8.12-12.27,8.07-6.7-.04-12.08-3.73-12-8.23Z"/>
                  <path class="cls-30" d="m163.02,420.09c.07-4.34,5.36-7.82,11.82-7.77,6.45.04,11.63,3.59,11.55,7.92-.07,4.34-5.36,7.82-11.82,7.77-6.45-.04-11.63-3.59-11.56-7.92Z"/>
                  <path class="cls-49" d="m163.47,420.1c.07-4.17,5.16-7.51,11.36-7.47,6.21.04,11.18,3.45,11.11,7.62-.07,4.17-5.16,7.51-11.36,7.47-6.21-.04-11.18-3.45-11.11-7.62Z"/>
                  <path class="cls-59" d="m163.92,420.1c.07-4,4.95-7.21,10.91-7.17,5.96.04,10.73,3.31,10.66,7.31-.07,4-4.95,7.21-10.9,7.17-5.96-.04-10.73-3.31-10.66-7.31Z"/>
                  <path class="cls-23" d="m164.37,420.1c.06-3.83,4.74-6.91,10.45-6.87,5.71.04,10.28,3.17,10.21,7-.06,3.83-4.74,6.91-10.45,6.87-5.71-.04-10.28-3.17-10.22-7Z"/>
                  <path class="cls-75" d="m164.83,420.1c.06-3.66,4.54-6.61,9.99-6.57,5.46.03,9.83,3.04,9.77,6.7-.06,3.66-4.54,6.61-9.99,6.57-5.46-.03-9.83-3.03-9.77-6.7Z"/>
                  <path class="cls-33" d="m165.28,420.11c.06-3.5,4.33-6.3,9.54-6.27,5.21.03,9.38,2.9,9.32,6.39-.06,3.5-4.33,6.3-9.53,6.27-5.21-.03-9.39-2.89-9.32-6.39Z"/>
                  <path class="cls-29" d="m165.73,420.11c.06-3.33,4.12-6,9.08-5.97,4.96.03,8.93,2.76,8.87,6.09-.06,3.33-4.12,6-9.07,5.97-4.96-.03-8.94-2.76-8.88-6.09Z"/>
                  <path class="cls-37" d="m166.18,420.11c.05-3.16,3.91-5.7,8.62-5.67,4.71.03,8.48,2.62,8.43,5.78-.05,3.16-3.91,5.7-8.62,5.67-4.71-.03-8.49-2.62-8.43-5.78Z"/>
                  <path class="cls-83" d="m166.63,420.11c.05-2.99,3.71-5.4,8.17-5.37,4.46.03,8.04,2.48,7.98,5.48-.05,2.99-3.71,5.4-8.16,5.37-4.46-.03-8.04-2.48-7.99-5.48Z"/>
                </g>
                <path class="cls-51" d="m166.63,420.11c.05-2.99,3.71-5.4,8.17-5.37,4.46.03,8.04,2.48,7.98,5.48-.05,2.99-3.71,5.4-8.16,5.37-4.46-.03-8.04-2.48-7.99-5.48Z"/>
              </g>
            </g>
          </g>
        </g>
      </g>
    </g>
  </g>
</svg>