<?xml version="1.0" encoding="UTF-8"?>
<svg xmlns="http://www.w3.org/2000/svg" viewBox="0 0 1788.01 3148.19">
  <defs>
    <style>
      .cls-1 {
        fill: #c9e5ce;
      }

      .cls-2 {
        opacity: .81;
      }

      .cls-3 {
        fill: #fff;
      }

      .cls-4 {
        fill: #a7a9ac;
      }

      .cls-5 {
        fill: #f15a29;
      }

      .cls-6 {
        opacity: .51;
      }

      .cls-7 {
        opacity: .5;
      }

      .cls-8 {
        fill: #939598;
      }

      .cls-9 {
        fill: #b4eddd;
      }

      .cls-10 {
        opacity: .06;
      }

      .cls-11 {
        fill: #9b8579;
      }

      .cls-12, .cls-13 {
        fill: #be1e2d;
      }

      .cls-14 {
        fill: #ffd1f9;
      }

      .cls-15 {
        opacity: .47;
      }

      .cls-16, .cls-17, .cls-13 {
        opacity: .2;
      }

      .cls-18 {
        opacity: .07;
      }

      .cls-19 {
        opacity: .8;
      }

      .cls-20 {
        fill: #754c29;
      }

      .cls-21 {
        fill: #fff9dd;
      }

      .cls-22 {
        opacity: .54;
      }

      .cls-23 {
        fill: #a97c50;
      }

      .cls-24 {
        opacity: .58;
      }

      .cls-25 {
        fill: #5cb1bf;
      }

      .cls-26 {
        fill: #ffe5f8;
      }

      .cls-27 {
        fill: #2e3192;
      }

      .cls-28 {
        fill: #cce5ff;
      }

      .cls-29 {
        fill: #dfd3a1;
      }

      .cls-30 {
        opacity: .15;
      }

      .cls-31 {
        fill: #c2fff1;
      }

      .cls-32 {
        fill: #d4e8b4;
      }

      .cls-33 {
        fill: #f1f2f2;
      }

      .cls-34 {
        fill: #fbb040;
      }

      .cls-17, .cls-35 {
        fill: #231f20;
      }

      .cls-36 {
        fill: #d8f1e2;
      }

      .cls-37 {
        fill: #acd6e2;
      }

      .cls-38 {
        opacity: .1;
      }

      .cls-39 {
        fill: #ffc45e;
      }

      .cls-40 {
        fill: #f0f;
      }

      .cls-41 {
        fill: #d1d3d4;
      }

      .cls-42 {
        fill: #e6e7e8;
      }

      .cls-43 {
        fill: #f4fcd9;
      }

      .cls-44 {
        fill: #8681ff;
      }

      .cls-45 {
        fill: #bcbec0;
      }

      .cls-46 {
        fill: #ecf3ff;
      }

      .cls-47 {
        opacity: .71;
      }

      .cls-48 {
        fill: #58595b;
      }
    </style>
  </defs>
  <g id="Layer_2" data-name="Layer 2">
    <g>
      <g class="cls-18">
        <rect class="cls-40" x="115.19" y="2903.69" width="230.37" height="241.75" transform="translate(460.75 6049.13) rotate(-180)"/>
        <path class="cls-40" d="m112.57,2900.94h235.61v247.24H112.57v-247.24Zm230.37,5.5H117.81s0,236.25,0,236.25h225.13s0-236.25,0-236.25Z"/>
      </g>
      <g class="cls-18">
        <rect class="cls-40" x="115.19" y="2661.95" width="230.37" height="241.75" transform="translate(460.75 5565.64) rotate(-180)"/>
        <path class="cls-40" d="m112.57,2659.2h235.61v247.24H112.57v-247.24Zm230.37,5.5H117.81s0,236.25,0,236.25h225.13s0-236.25,0-236.25Z"/>
      </g>
      <g class="cls-18">
        <rect class="cls-40" x="115.19" y="2420.2" width="230.37" height="241.75" transform="translate(460.75 5082.15) rotate(-180)"/>
        <path class="cls-40" d="m112.57,2417.45h235.61v247.24H112.57v-247.24Zm230.37,5.5H117.81s0,236.25,0,236.25h225.13s0-236.25,0-236.25Z"/>
      </g>
      <g class="cls-18">
        <rect class="cls-40" x="115.19" y="2178.46" width="230.37" height="241.75" transform="translate(460.75 4598.66) rotate(-180)"/>
        <path class="cls-40" d="m112.57,2175.71h235.61v247.24H112.57v-247.24Zm230.37,5.5H117.81s0,236.25,0,236.25h225.13s0-236.25,0-236.25Z"/>
      </g>
      <g class="cls-18">
        <rect class="cls-40" x="115.19" y="1936.71" width="230.37" height="241.74" transform="translate(460.75 4115.17) rotate(-180)"/>
        <path class="cls-40" d="m112.57,1933.96h235.61v247.24H112.57v-247.24Zm230.37,5.5H117.81s0,236.25,0,236.25h225.13s0-236.25,0-236.25Z"/>
      </g>
      <g class="cls-18">
        <rect class="cls-40" x="115.19" y="1694.97" width="230.37" height="241.75" transform="translate(460.75 3631.68) rotate(-180)"/>
        <path class="cls-40" d="m112.57,1692.22h235.61v247.24H112.57v-247.24Zm230.37,5.5H117.81s0,236.25,0,236.25h225.13s0-236.25,0-236.25Z"/>
      </g>
      <g class="cls-18">
        <rect class="cls-40" x="115.19" y="1453.22" width="230.37" height="241.74" transform="translate(460.75 3148.19) rotate(-180)"/>
        <path class="cls-40" d="m112.57,1450.47h235.61v247.24H112.57v-247.24Zm230.37,5.5H117.81s0,236.25,0,236.25h225.13s0-236.25,0-236.25Z"/>
      </g>
      <g class="cls-18">
        <rect class="cls-40" x="115.19" y="1211.48" width="230.37" height="241.75" transform="translate(460.75 2664.7) rotate(-180)"/>
        <path class="cls-40" d="m112.57,1208.73h235.61v247.24H112.57v-247.24Zm230.37,5.5H117.81s0,236.25,0,236.25h225.13s0-236.25,0-236.25Z"/>
      </g>
      <g class="cls-18">
        <rect class="cls-40" x="345.56" y="2903.69" width="230.37" height="241.75" transform="translate(921.49 6049.13) rotate(-180)"/>
        <path class="cls-40" d="m342.94,2900.94h235.61v247.24h-235.61v-247.24Zm230.37,5.5h-225.13s0,236.25,0,236.25h225.13s0-236.25,0-236.25Z"/>
      </g>
      <g class="cls-18">
        <rect class="cls-40" x="575.93" y="2903.69" width="230.37" height="241.75" transform="translate(1382.23 6049.13) rotate(-180)"/>
        <path class="cls-40" d="m573.31,2900.94h235.61v247.24h-235.61v-247.24Zm230.37,5.5h-225.13s0,236.25,0,236.25h225.13s0-236.25,0-236.25Z"/>
      </g>
      <g>
        <rect class="cls-37" x="806.3" y="2903.69" width="230.37" height="241.75" transform="translate(1842.98 6049.13) rotate(-180)"/>
        <path class="cls-4" d="m803.68,2900.94h235.61v247.24h-235.61v-247.24Zm230.37,5.5h-225.13s0,236.25,0,236.25h225.13s0-236.25,0-236.25Z"/>
      </g>
      <g>
        <rect class="cls-37" x="1036.68" y="2903.69" width="230.37" height="241.75" transform="translate(2303.72 6049.13) rotate(-180)"/>
        <path class="cls-4" d="m1034.06,2900.94h235.61v247.24h-235.61v-247.24Zm230.37,5.5h-225.13s0,236.25,0,236.25h225.13s0-236.25,0-236.25Z"/>
      </g>
      <g>
        <rect class="cls-37" x="1267.05" y="2903.69" width="230.37" height="241.75" transform="translate(2764.47 6049.13) rotate(-180)"/>
        <path class="cls-4" d="m1264.43,2900.94h235.61v247.24h-235.61v-247.24Zm230.37,5.5h-225.13s0,236.25,0,236.25h225.13s0-236.25,0-236.25Z"/>
      </g>
      <g>
        <rect class="cls-37" x="1497.42" y="2903.69" width="230.37" height="241.75" transform="translate(3225.21 6049.13) rotate(-180)"/>
        <path class="cls-4" d="m1494.8,2900.94h235.61v247.24h-235.61v-247.24Zm230.37,5.5h-225.13s0,236.25,0,236.25h225.13s0-236.25,0-236.25Z"/>
      </g>
      <g>
        <rect class="cls-37" x="1727.79" y="2903.69" width="57.59" height="241.75" transform="translate(3513.18 6049.13) rotate(-180)"/>
        <path class="cls-4" d="m1725.17,2900.94h62.83v247.24h-62.83v-247.24Zm57.59,5.5h-52.35s0,236.25,0,236.25h52.35s0-236.25,0-236.25Z"/>
      </g>
      <g class="cls-18">
        <rect class="cls-40" x="345.56" y="2661.95" width="230.37" height="241.75" transform="translate(921.49 5565.64) rotate(-180)"/>
        <path class="cls-40" d="m342.94,2659.2h235.61v247.24h-235.61v-247.24Zm230.37,5.5h-225.13s0,236.25,0,236.25h225.13s0-236.25,0-236.25Z"/>
      </g>
      <g class="cls-18">
        <rect class="cls-40" x="575.93" y="2661.95" width="230.37" height="241.75" transform="translate(1382.23 5565.64) rotate(-180)"/>
        <path class="cls-40" d="m573.31,2659.2h235.61v247.24h-235.61v-247.24Zm230.37,5.5h-225.13s0,236.25,0,236.25h225.13s0-236.25,0-236.25Z"/>
      </g>
      <g>
        <rect class="cls-37" x="806.3" y="2661.95" width="230.37" height="241.75" transform="translate(1842.98 5565.64) rotate(-180)"/>
        <path class="cls-4" d="m803.68,2659.2h235.61v247.24h-235.61v-247.24Zm230.37,5.5h-225.13s0,236.25,0,236.25h225.13s0-236.25,0-236.25Z"/>
      </g>
      <g>
        <rect class="cls-37" x="1036.68" y="2661.95" width="230.37" height="241.75" transform="translate(2303.72 5565.64) rotate(-180)"/>
        <path class="cls-4" d="m1034.06,2659.2h235.61v247.24h-235.61v-247.24Zm230.37,5.5h-225.13s0,236.25,0,236.25h225.13s0-236.25,0-236.25Z"/>
      </g>
      <g>
        <rect class="cls-37" x="1267.05" y="2661.95" width="230.37" height="241.75" transform="translate(2764.47 5565.64) rotate(-180)"/>
        <path class="cls-4" d="m1264.43,2659.2h235.61v247.24h-235.61v-247.24Zm230.37,5.5h-225.13s0,236.25,0,236.25h225.13s0-236.25,0-236.25Z"/>
      </g>
      <g>
        <rect class="cls-37" x="1497.42" y="2661.95" width="230.37" height="241.75" transform="translate(3225.21 5565.64) rotate(-180)"/>
        <path class="cls-4" d="m1494.8,2659.2h235.61v247.24h-235.61v-247.24Zm230.37,5.5h-225.13s0,236.25,0,236.25h225.13s0-236.25,0-236.25Z"/>
      </g>
      <g>
        <rect class="cls-37" x="1727.79" y="2661.95" width="57.59" height="241.75" transform="translate(3513.18 5565.64) rotate(-180)"/>
        <path class="cls-4" d="m1725.17,2659.2h62.83v247.24h-62.83v-247.24Zm57.59,5.5h-52.35s0,236.25,0,236.25h52.35s0-236.25,0-236.25Z"/>
      </g>
      <g class="cls-18">
        <rect class="cls-40" x="345.56" y="2420.2" width="230.37" height="241.75" transform="translate(921.49 5082.15) rotate(-180)"/>
        <path class="cls-40" d="m342.94,2417.45h235.61v247.24h-235.61v-247.24Zm230.37,5.5h-225.13s0,236.25,0,236.25h225.13s0-236.25,0-236.25Z"/>
      </g>
      <g class="cls-18">
        <rect class="cls-40" x="575.93" y="2420.2" width="230.37" height="241.75" transform="translate(1382.23 5082.15) rotate(-180)"/>
        <path class="cls-40" d="m573.31,2417.45h235.61v247.24h-235.61v-247.24Zm230.37,5.5h-225.13s0,236.25,0,236.25h225.13s0-236.25,0-236.25Z"/>
      </g>
      <g>
        <rect class="cls-37" x="806.3" y="2420.2" width="230.37" height="241.75" transform="translate(1842.98 5082.15) rotate(-180)"/>
        <path class="cls-4" d="m803.68,2417.45h235.61v247.24h-235.61v-247.24Zm230.37,5.5h-225.13s0,236.25,0,236.25h225.13s0-236.25,0-236.25Z"/>
      </g>
      <g>
        <rect class="cls-37" x="1036.68" y="2420.2" width="230.37" height="241.75" transform="translate(2303.72 5082.15) rotate(-180)"/>
        <path class="cls-4" d="m1034.06,2417.45h235.61v247.24h-235.61v-247.24Zm230.37,5.5h-225.13s0,236.25,0,236.25h225.13s0-236.25,0-236.25Z"/>
      </g>
      <g>
        <rect class="cls-37" x="1267.05" y="2420.2" width="230.37" height="241.75" transform="translate(2764.47 5082.15) rotate(-180)"/>
        <path class="cls-4" d="m1264.43,2417.45h235.61v247.24h-235.61v-247.24Zm230.37,5.5h-225.13s0,236.25,0,236.25h225.13s0-236.25,0-236.25Z"/>
      </g>
      <g>
        <rect class="cls-37" x="1497.42" y="2420.2" width="230.37" height="241.75" transform="translate(3225.21 5082.15) rotate(-180)"/>
        <path class="cls-4" d="m1494.8,2417.45h235.61v247.24h-235.61v-247.24Zm230.37,5.5h-225.13s0,236.25,0,236.25h225.13s0-236.25,0-236.25Z"/>
      </g>
      <g>
        <rect class="cls-37" x="1727.79" y="2420.2" width="57.59" height="241.75" transform="translate(3513.18 5082.15) rotate(-180)"/>
        <path class="cls-4" d="m1725.17,2417.45h62.83v247.24h-62.83v-247.24Zm57.59,5.5h-52.35s0,236.25,0,236.25h52.35s0-236.25,0-236.25Z"/>
      </g>
      <g class="cls-18">
        <rect class="cls-40" x="345.56" y="2178.46" width="230.37" height="241.75" transform="translate(921.49 4598.66) rotate(-180)"/>
        <path class="cls-40" d="m342.94,2175.71h235.61v247.24h-235.61v-247.24Zm230.37,5.5h-225.13s0,236.25,0,236.25h225.13s0-236.25,0-236.25Z"/>
      </g>
      <g class="cls-18">
        <rect class="cls-40" x="575.93" y="2178.46" width="230.37" height="241.75" transform="translate(1382.23 4598.66) rotate(-180)"/>
        <path class="cls-40" d="m573.31,2175.71h235.61v247.24h-235.61v-247.24Zm230.37,5.5h-225.13s0,236.25,0,236.25h225.13s0-236.25,0-236.25Z"/>
      </g>
      <g>
        <rect class="cls-37" x="806.3" y="2178.46" width="230.37" height="241.75" transform="translate(1842.98 4598.66) rotate(-180)"/>
        <path class="cls-4" d="m803.68,2175.71h235.61v247.24h-235.61v-247.24Zm230.37,5.5h-225.13s0,236.25,0,236.25h225.13s0-236.25,0-236.25Z"/>
      </g>
      <g>
        <rect class="cls-37" x="1036.68" y="2178.46" width="230.37" height="241.75" transform="translate(2303.72 4598.66) rotate(-180)"/>
        <path class="cls-4" d="m1034.06,2175.71h235.61v247.24h-235.61v-247.24Zm230.37,5.5h-225.13s0,236.25,0,236.25h225.13s0-236.25,0-236.25Z"/>
      </g>
      <g>
        <rect class="cls-37" x="1267.05" y="2178.46" width="230.37" height="241.75" transform="translate(2764.47 4598.66) rotate(-180)"/>
        <path class="cls-4" d="m1264.43,2175.71h235.61v247.24h-235.61v-247.24Zm230.37,5.5h-225.13s0,236.25,0,236.25h225.13s0-236.25,0-236.25Z"/>
      </g>
      <g>
        <rect class="cls-37" x="1497.42" y="2178.46" width="230.37" height="241.75" transform="translate(3225.21 4598.66) rotate(-180)"/>
        <path class="cls-4" d="m1494.8,2175.71h235.61v247.24h-235.61v-247.24Zm230.37,5.5h-225.13s0,236.25,0,236.25h225.13s0-236.25,0-236.25Z"/>
      </g>
      <g>
        <rect class="cls-37" x="1727.79" y="2178.46" width="57.59" height="241.75" transform="translate(3513.18 4598.66) rotate(-180)"/>
        <path class="cls-4" d="m1725.17,2175.71h62.83v247.24h-62.83v-247.24Zm57.59,5.5h-52.35s0,236.25,0,236.25h52.35s0-236.25,0-236.25Z"/>
      </g>
      <g class="cls-18">
        <rect class="cls-40" x="345.56" y="1936.71" width="230.37" height="241.74" transform="translate(921.49 4115.17) rotate(-180)"/>
        <path class="cls-40" d="m342.94,1933.96h235.61v247.24h-235.61v-247.24Zm230.37,5.5h-225.13s0,236.25,0,236.25h225.13s0-236.25,0-236.25Z"/>
      </g>
      <g class="cls-18">
        <rect class="cls-40" x="575.93" y="1936.71" width="230.37" height="241.74" transform="translate(1382.23 4115.17) rotate(-180)"/>
        <path class="cls-40" d="m573.31,1933.96h235.61v247.24h-235.61v-247.24Zm230.37,5.5h-225.13s0,236.25,0,236.25h225.13s0-236.25,0-236.25Z"/>
      </g>
      <g>
        <rect class="cls-37" x="806.3" y="1936.71" width="230.37" height="241.74" transform="translate(1842.98 4115.17) rotate(-180)"/>
        <path class="cls-4" d="m803.68,1933.96h235.61v247.24h-235.61v-247.24Zm230.37,5.5h-225.13s0,236.25,0,236.25h225.13s0-236.25,0-236.25Z"/>
      </g>
      <g>
        <rect class="cls-37" x="1036.68" y="1936.71" width="230.37" height="241.74" transform="translate(2303.72 4115.17) rotate(-180)"/>
        <path class="cls-4" d="m1034.06,1933.96h235.61v247.24h-235.61v-247.24Zm230.37,5.5h-225.13s0,236.25,0,236.25h225.13s0-236.25,0-236.25Z"/>
      </g>
      <g>
        <rect class="cls-37" x="1267.05" y="1936.71" width="230.37" height="241.74" transform="translate(2764.47 4115.17) rotate(-180)"/>
        <path class="cls-4" d="m1264.43,1933.96h235.61v247.24h-235.61v-247.24Zm230.37,5.5h-225.13s0,236.25,0,236.25h225.13s0-236.25,0-236.25Z"/>
      </g>
      <g>
        <rect class="cls-37" x="1497.42" y="1936.71" width="230.37" height="241.74" transform="translate(3225.21 4115.17) rotate(-180)"/>
        <path class="cls-4" d="m1494.8,1933.96h235.61v247.24h-235.61v-247.24Zm230.37,5.5h-225.13s0,236.25,0,236.25h225.13s0-236.25,0-236.25Z"/>
      </g>
      <g>
        <rect class="cls-37" x="1727.79" y="1936.71" width="57.59" height="241.74" transform="translate(3513.18 4115.17) rotate(-180)"/>
        <path class="cls-4" d="m1725.17,1933.96h62.83v247.24h-62.83v-247.24Zm57.59,5.5h-52.35s0,236.25,0,236.25h52.35s0-236.25,0-236.25Z"/>
      </g>
      <g class="cls-18">
        <rect class="cls-40" x="345.56" y="1694.97" width="230.37" height="241.75" transform="translate(921.49 3631.68) rotate(-180)"/>
        <path class="cls-40" d="m342.94,1692.22h235.61v247.24h-235.61v-247.24Zm230.37,5.5h-225.13s0,236.25,0,236.25h225.13s0-236.25,0-236.25Z"/>
      </g>
      <g class="cls-18">
        <rect class="cls-40" x="575.93" y="1694.97" width="230.37" height="241.75" transform="translate(1382.23 3631.68) rotate(-180)"/>
        <path class="cls-40" d="m573.31,1692.22h235.61v247.24h-235.61v-247.24Zm230.37,5.5h-225.13s0,236.25,0,236.25h225.13s0-236.25,0-236.25Z"/>
      </g>
      <g>
        <rect class="cls-37" x="806.3" y="1694.97" width="230.37" height="241.75" transform="translate(1842.98 3631.68) rotate(-180)"/>
        <path class="cls-4" d="m803.68,1692.22h235.61v247.24h-235.61v-247.24Zm230.37,5.5h-225.13s0,236.25,0,236.25h225.13s0-236.25,0-236.25Z"/>
      </g>
      <g>
        <rect class="cls-37" x="1036.68" y="1694.97" width="230.37" height="241.75" transform="translate(2303.72 3631.68) rotate(-180)"/>
        <path class="cls-4" d="m1034.06,1692.22h235.61v247.24h-235.61v-247.24Zm230.37,5.5h-225.13s0,236.25,0,236.25h225.13s0-236.25,0-236.25Z"/>
      </g>
      <g>
        <rect class="cls-37" x="1267.05" y="1694.97" width="230.37" height="241.75" transform="translate(2764.47 3631.68) rotate(-180)"/>
        <path class="cls-4" d="m1264.43,1692.22h235.61v247.24h-235.61v-247.24Zm230.37,5.5h-225.13s0,236.25,0,236.25h225.13s0-236.25,0-236.25Z"/>
      </g>
      <g>
        <rect class="cls-37" x="1497.42" y="1694.97" width="230.37" height="241.75" transform="translate(3225.21 3631.68) rotate(-180)"/>
        <path class="cls-4" d="m1494.8,1692.22h235.61v247.24h-235.61v-247.24Zm230.37,5.5h-225.13s0,236.25,0,236.25h225.13s0-236.25,0-236.25Z"/>
      </g>
      <g>
        <rect class="cls-37" x="1727.79" y="1694.97" width="57.59" height="241.75" transform="translate(3513.18 3631.68) rotate(-180)"/>
        <path class="cls-4" d="m1725.17,1692.22h62.83v247.24h-62.83v-247.24Zm57.59,5.5h-52.35s0,236.25,0,236.25h52.35s0-236.25,0-236.25Z"/>
      </g>
      <g class="cls-18">
        <rect class="cls-40" x="345.56" y="1453.22" width="230.37" height="241.74" transform="translate(921.49 3148.19) rotate(-180)"/>
        <path class="cls-40" d="m342.94,1450.47h235.61v247.24h-235.61v-247.24Zm230.37,5.5h-225.13s0,236.25,0,236.25h225.13s0-236.25,0-236.25Z"/>
      </g>
      <g class="cls-18">
        <rect class="cls-40" x="575.93" y="1453.22" width="230.37" height="241.74" transform="translate(1382.23 3148.19) rotate(-180)"/>
        <path class="cls-40" d="m573.31,1450.47h235.61v247.24h-235.61v-247.24Zm230.37,5.5h-225.13s0,236.25,0,236.25h225.13s0-236.25,0-236.25Z"/>
      </g>
      <g>
        <rect class="cls-37" x="806.3" y="1453.22" width="230.37" height="241.74" transform="translate(1842.98 3148.19) rotate(-180)"/>
        <path class="cls-4" d="m803.68,1450.47h235.61v247.24h-235.61v-247.24Zm230.37,5.5h-225.13s0,236.25,0,236.25h225.13s0-236.25,0-236.25Z"/>
      </g>
      <g>
        <rect class="cls-37" x="1036.68" y="1453.22" width="230.37" height="241.74" transform="translate(2303.72 3148.19) rotate(-180)"/>
        <path class="cls-4" d="m1034.06,1450.47h235.61v247.24h-235.61v-247.24Zm230.37,5.5h-225.13s0,236.25,0,236.25h225.13s0-236.25,0-236.25Z"/>
      </g>
      <g>
        <rect class="cls-37" x="1267.05" y="1453.22" width="230.37" height="241.74" transform="translate(2764.47 3148.19) rotate(-180)"/>
        <path class="cls-4" d="m1264.43,1450.47h235.61v247.24h-235.61v-247.24Zm230.37,5.5h-225.13s0,236.25,0,236.25h225.13s0-236.25,0-236.25Z"/>
      </g>
      <g>
        <rect class="cls-37" x="1497.42" y="1453.22" width="230.37" height="241.74" transform="translate(3225.21 3148.19) rotate(-180)"/>
        <path class="cls-4" d="m1494.8,1450.47h235.61v247.24h-235.61v-247.24Zm230.37,5.5h-225.13s0,236.25,0,236.25h225.13s0-236.25,0-236.25Z"/>
      </g>
      <g>
        <rect class="cls-37" x="1727.79" y="1453.22" width="57.59" height="241.74" transform="translate(3513.18 3148.19) rotate(-180)"/>
        <path class="cls-4" d="m1725.17,1450.47h62.83v247.24h-62.83v-247.24Zm57.59,5.5h-52.35s0,236.25,0,236.25h52.35s0-236.25,0-236.25Z"/>
      </g>
      <g class="cls-18">
        <rect class="cls-40" x="345.56" y="1211.48" width="230.37" height="241.75" transform="translate(921.49 2664.7) rotate(-180)"/>
        <path class="cls-40" d="m342.94,1208.73h235.61v247.24h-235.61v-247.24Zm230.37,5.5h-225.13s0,236.25,0,236.25h225.13s0-236.25,0-236.25Z"/>
      </g>
      <g class="cls-18">
        <rect class="cls-40" x="575.93" y="1211.48" width="230.37" height="241.75" transform="translate(1382.23 2664.7) rotate(-180)"/>
        <path class="cls-40" d="m573.31,1208.73h235.61v247.24h-235.61v-247.24Zm230.37,5.5h-225.13s0,236.25,0,236.25h225.13s0-236.25,0-236.25Z"/>
      </g>
      <g>
        <rect class="cls-37" x="806.3" y="1211.48" width="230.37" height="241.75" transform="translate(1842.98 2664.7) rotate(-180)"/>
        <path class="cls-4" d="m803.68,1208.73h235.61v247.24h-235.61v-247.24Zm230.37,5.5h-225.13s0,236.25,0,236.25h225.13s0-236.25,0-236.25Z"/>
      </g>
      <g>
        <rect class="cls-37" x="1036.68" y="1211.48" width="230.37" height="241.75" transform="translate(2303.72 2664.7) rotate(-180)"/>
        <path class="cls-4" d="m1034.06,1208.73h235.61v247.24h-235.61v-247.24Zm230.37,5.5h-225.13s0,236.25,0,236.25h225.13s0-236.25,0-236.25Z"/>
      </g>
      <g>
        <rect class="cls-37" x="1267.05" y="1211.48" width="230.37" height="241.75" transform="translate(2764.47 2664.7) rotate(-180)"/>
        <path class="cls-4" d="m1264.43,1208.73h235.61v247.24h-235.61v-247.24Zm230.37,5.5h-225.13s0,236.25,0,236.25h225.13s0-236.25,0-236.25Z"/>
      </g>
      <g>
        <rect class="cls-37" x="1497.42" y="1211.48" width="230.37" height="241.75" transform="translate(3225.21 2664.7) rotate(-180)"/>
        <path class="cls-4" d="m1494.8,1208.73h235.61v247.24h-235.61v-247.24Zm230.37,5.5h-225.13s0,236.25,0,236.25h225.13s0-236.25,0-236.25Z"/>
      </g>
      <g>
        <rect class="cls-37" x="1727.79" y="1211.48" width="57.59" height="241.75" transform="translate(3513.18 2664.7) rotate(-180)"/>
        <path class="cls-4" d="m1725.17,1208.73h62.83v247.24h-62.83v-247.24Zm57.59,5.5h-52.35s0,236.25,0,236.25h52.35s0-236.25,0-236.25Z"/>
      </g>
      <g class="cls-22">
        <rect class="cls-4" x="115.19" y="848.86" width="230.37" height="241.75" transform="translate(460.75 1939.46) rotate(-180)"/>
        <path class="cls-4" d="m112.57,846.11h235.61v247.24H112.57v-247.24Zm230.37,5.5H117.81s0,236.25,0,236.25h225.13s0-236.25,0-236.25Z"/>
      </g>
      <g class="cls-22">
        <rect class="cls-4" x="345.56" y="848.86" width="230.37" height="241.75" transform="translate(921.49 1939.46) rotate(-180)"/>
        <path class="cls-4" d="m342.94,846.11h235.61v247.24h-235.61v-247.24Zm230.37,5.5h-225.13s0,236.25,0,236.25h225.13s0-236.25,0-236.25Z"/>
      </g>
      <g class="cls-22">
        <rect class="cls-4" x="575.93" y="848.86" width="230.37" height="241.75" transform="translate(1382.23 1939.46) rotate(-180)"/>
        <path class="cls-4" d="m573.31,846.11h235.61v247.24h-235.61v-247.24Zm230.37,5.5h-225.13s0,236.25,0,236.25h225.13s0-236.25,0-236.25Z"/>
      </g>
      <g class="cls-22">
        <rect class="cls-4" x="806.3" y="848.86" width="230.37" height="241.75" transform="translate(1842.98 1939.46) rotate(-180)"/>
        <path class="cls-4" d="m803.68,846.11h235.61v247.24h-235.61v-247.24Zm230.37,5.5h-225.13s0,236.25,0,236.25h225.13s0-236.25,0-236.25Z"/>
      </g>
      <g>
        <rect class="cls-9" x="1036.68" y="848.86" width="230.37" height="241.75" transform="translate(2303.72 1939.46) rotate(-180)"/>
        <path class="cls-9" d="m1034.06,846.11h235.61v247.24h-235.61v-247.24Zm230.37,5.5h-225.13s0,236.25,0,236.25h225.13s0-236.25,0-236.25Z"/>
      </g>
      <g class="cls-18">
        <rect class="cls-40" x="115.19" y="1090.6" width="230.37" height="120.87" transform="translate(460.75 2302.08) rotate(-180)"/>
        <path class="cls-40" d="m112.57,1087.85h235.61v126.37H112.57v-126.37Zm230.37,5.5H117.81s0,115.37,0,115.37h225.13s0-115.37,0-115.37Z"/>
      </g>
      <g class="cls-18">
        <rect class="cls-40" x="345.56" y="1090.6" width="230.37" height="120.87" transform="translate(921.49 2302.08) rotate(-180)"/>
        <path class="cls-40" d="m342.94,1087.85h235.61v126.37h-235.61v-126.37Zm230.37,5.5h-225.13s0,115.37,0,115.37h225.13s0-115.37,0-115.37Z"/>
      </g>
      <g class="cls-18">
        <rect class="cls-40" x="575.93" y="1090.6" width="230.37" height="120.87" transform="translate(1382.23 2302.08) rotate(-180)"/>
        <path class="cls-40" d="m573.31,1087.85h235.61v126.37h-235.61v-126.37Zm230.37,5.5h-225.13s0,115.37,0,115.37h225.13s0-115.37,0-115.37Z"/>
      </g>
      <g>
        <rect class="cls-37" x="806.3" y="1090.6" width="230.37" height="120.87" transform="translate(1842.98 2302.08) rotate(-180)"/>
        <path class="cls-4" d="m803.68,1087.85h235.61v126.37h-235.61v-126.37Zm230.37,5.5h-225.13s0,115.37,0,115.37h225.13s0-115.37,0-115.37Z"/>
      </g>
      <g>
        <rect class="cls-37" x="1036.68" y="1090.6" width="230.37" height="120.87" transform="translate(2303.72 2302.08) rotate(-180)"/>
        <path class="cls-4" d="m1034.06,1087.85h235.61v126.37h-235.61v-126.37Zm230.37,5.5h-225.13s0,115.37,0,115.37h225.13s0-115.37,0-115.37Z"/>
      </g>
      <g>
        <rect class="cls-26" x="1267.05" y="848.86" width="230.37" height="241.75" transform="translate(2764.47 1939.46) rotate(-180)"/>
        <path class="cls-26" d="m1264.43,846.11h235.61v247.24h-235.61v-247.24Zm230.37,5.5h-225.13s0,236.25,0,236.25h225.13s0-236.25,0-236.25Z"/>
      </g>
      <g>
        <rect class="cls-32" x="1497.42" y="848.86" width="230.37" height="241.75" transform="translate(3225.21 1939.46) rotate(-180)"/>
        <path class="cls-32" d="m1494.8,846.11h235.61v247.24h-235.61v-247.24Zm230.37,5.5h-225.13s0,236.25,0,236.25h225.13s0-236.25,0-236.25Z"/>
      </g>
      <g>
        <rect class="cls-37" x="1727.79" y="848.86" width="57.59" height="241.75" transform="translate(3513.18 1939.46) rotate(-180)"/>
        <path class="cls-4" d="m1725.17,846.11h62.83v247.24h-62.83v-247.24Zm57.59,5.5h-52.35s0,236.25,0,236.25h52.35s0-236.25,0-236.25Z"/>
      </g>
      <g class="cls-22">
        <rect class="cls-4" x="115.19" y="607.11" width="230.37" height="241.75" transform="translate(460.75 1455.97) rotate(-180)"/>
        <path class="cls-4" d="m112.57,604.36h235.61v247.24H112.57v-247.24Zm230.37,5.5H117.81s0,236.25,0,236.25h225.13s0-236.25,0-236.25Z"/>
      </g>
      <g class="cls-22">
        <rect class="cls-4" x="345.56" y="607.11" width="230.37" height="241.75" transform="translate(921.49 1455.97) rotate(-180)"/>
        <path class="cls-4" d="m342.94,604.36h235.61v247.24h-235.61v-247.24Zm230.37,5.5h-225.13s0,236.25,0,236.25h225.13s0-236.25,0-236.25Z"/>
      </g>
      <g class="cls-22">
        <rect class="cls-4" x="575.93" y="607.11" width="230.37" height="241.75" transform="translate(1382.23 1455.97) rotate(-180)"/>
        <path class="cls-4" d="m573.31,604.36h235.61v247.24h-235.61v-247.24Zm230.37,5.5h-225.13s0,236.25,0,236.25h225.13s0-236.25,0-236.25Z"/>
      </g>
      <g class="cls-22">
        <rect class="cls-4" x="806.3" y="607.11" width="230.37" height="241.75" transform="translate(1842.98 1455.97) rotate(-180)"/>
        <path class="cls-4" d="m803.68,604.36h235.61v247.24h-235.61v-247.24Zm230.37,5.5h-225.13s0,236.25,0,236.25h225.13s0-236.25,0-236.25Z"/>
      </g>
      <g>
        <rect class="cls-21" x="1036.68" y="607.11" width="230.37" height="241.75" transform="translate(2303.72 1455.97) rotate(-180)"/>
        <path class="cls-21" d="m1034.06,604.36h235.61v247.24h-235.61v-247.24Zm230.37,5.5h-225.13s0,236.25,0,236.25h225.13s0-236.25,0-236.25Z"/>
      </g>
      <g>
        <rect class="cls-1" x="1267.05" y="607.11" width="230.37" height="241.75" transform="translate(2764.47 1455.97) rotate(-180)"/>
        <path class="cls-1" d="m1264.43,604.36h235.61v247.24h-235.61v-247.24Zm230.37,5.5h-225.13s0,236.25,0,236.25h225.13s0-236.25,0-236.25Z"/>
      </g>
      <g>
        <rect class="cls-28" x="1497.42" y="607.11" width="230.37" height="241.75" transform="translate(3225.21 1455.97) rotate(-180)"/>
        <path class="cls-28" d="m1494.8,604.36h235.61v247.24h-235.61v-247.24Zm230.37,5.5h-225.13s0,236.25,0,236.25h225.13s0-236.25,0-236.25Z"/>
      </g>
      <g>
        <rect class="cls-37" x="1727.79" y="607.11" width="57.59" height="241.75" transform="translate(3513.18 1455.97) rotate(-180)"/>
        <path class="cls-4" d="m1725.17,604.36h62.83v247.24h-62.83v-247.24Zm57.59,5.5h-52.35s0,236.25,0,236.25h52.35s0-236.25,0-236.25Z"/>
      </g>
      <g class="cls-22">
        <rect class="cls-4" x="115.19" y="365.37" width="230.37" height="241.75" transform="translate(460.75 972.48) rotate(-180)"/>
        <path class="cls-4" d="m112.57,362.62h235.61v247.24H112.57v-247.24Zm230.37,5.5H117.81s0,236.25,0,236.25h225.13s0-236.25,0-236.25Z"/>
      </g>
      <g class="cls-22">
        <rect class="cls-4" x="345.56" y="365.37" width="230.37" height="241.75" transform="translate(921.49 972.48) rotate(-180)"/>
        <path class="cls-4" d="m342.94,362.62h235.61v247.24h-235.61v-247.24Zm230.37,5.5h-225.13s0,236.25,0,236.25h225.13s0-236.25,0-236.25Z"/>
      </g>
      <g class="cls-22">
        <rect class="cls-4" x="575.93" y="365.37" width="230.37" height="241.75" transform="translate(1382.23 972.48) rotate(-180)"/>
        <path class="cls-4" d="m573.31,362.62h235.61v247.24h-235.61v-247.24Zm230.37,5.5h-225.13s0,236.25,0,236.25h225.13s0-236.25,0-236.25Z"/>
      </g>
      <g class="cls-22">
        <rect class="cls-4" x="806.3" y="365.37" width="230.37" height="241.75" transform="translate(1842.98 972.48) rotate(-180)"/>
        <path class="cls-4" d="m803.68,362.62h235.61v247.24h-235.61v-247.24Zm230.37,5.5h-225.13s0,236.25,0,236.25h225.13s0-236.25,0-236.25Z"/>
      </g>
      <g class="cls-6">
        <rect class="cls-44" x="1036.68" y="365.37" width="230.37" height="241.75" transform="translate(2303.72 972.48) rotate(-180)"/>
        <path class="cls-44" d="m1034.06,362.62h235.61v247.24h-235.61v-247.24Zm230.37,5.5h-225.13s0,236.25,0,236.25h225.13s0-236.25,0-236.25Z"/>
      </g>
      <g>
        <rect class="cls-14" x="1267.05" y="365.37" width="230.37" height="241.75" transform="translate(2764.47 972.48) rotate(-180)"/>
        <path class="cls-14" d="m1264.43,362.62h235.61v247.24h-235.61v-247.24Zm230.37,5.5h-225.13s0,236.25,0,236.25h225.13s0-236.25,0-236.25Z"/>
      </g>
      <g>
        <rect class="cls-31" x="1497.42" y="365.37" width="230.37" height="241.75" transform="translate(3225.21 972.48) rotate(-180)"/>
        <path class="cls-31" d="m1494.8,362.62h235.61v247.24h-235.61v-247.24Zm230.37,5.5h-225.13s0,236.25,0,236.25h225.13s0-236.25,0-236.25Z"/>
      </g>
      <g>
        <rect class="cls-37" x="1727.79" y="365.37" width="57.59" height="241.75" transform="translate(3513.18 972.48) rotate(-180)"/>
        <path class="cls-4" d="m1725.17,362.62h62.83v247.24h-62.83v-247.24Zm57.59,5.5h-52.35s0,236.25,0,236.25h52.35s0-236.25,0-236.25Z"/>
      </g>
      <g class="cls-22">
        <rect class="cls-4" x="115.19" y="123.62" width="230.37" height="241.74" transform="translate(460.75 488.99) rotate(-180)"/>
        <path class="cls-4" d="m112.57,120.87h235.61v247.24H112.57V120.87Zm230.37,5.5H117.81s0,236.25,0,236.25h225.13s0-236.25,0-236.25Z"/>
      </g>
      <g class="cls-22">
        <rect class="cls-4" x="345.56" y="123.62" width="230.37" height="241.74" transform="translate(921.49 488.99) rotate(-180)"/>
        <path class="cls-4" d="m342.94,120.87h235.61v247.24h-235.61V120.87Zm230.37,5.5h-225.13s0,236.25,0,236.25h225.13s0-236.25,0-236.25Z"/>
      </g>
      <g class="cls-22">
        <rect class="cls-4" x="575.93" y="123.62" width="230.37" height="241.74" transform="translate(1382.23 488.99) rotate(-180)"/>
        <path class="cls-4" d="m573.31,120.87h235.61v247.24h-235.61V120.87Zm230.37,5.5h-225.13s0,236.25,0,236.25h225.13s0-236.25,0-236.25Z"/>
      </g>
      <g class="cls-22">
        <rect class="cls-4" x="806.3" y="123.62" width="230.37" height="241.74" transform="translate(1842.98 488.99) rotate(-180)"/>
        <path class="cls-4" d="m803.68,120.87h235.61v247.24h-235.61V120.87Zm230.37,5.5h-225.13s0,236.25,0,236.25h225.13s0-236.25,0-236.25Z"/>
      </g>
      <g class="cls-10">
        <rect class="cls-23" x="1036.68" y="123.62" width="230.37" height="241.74" transform="translate(2303.72 488.99) rotate(-180)"/>
        <path class="cls-23" d="m1034.06,120.87h235.61v247.24h-235.61V120.87Zm230.37,5.5h-225.13s0,236.25,0,236.25h225.13s0-236.25,0-236.25Z"/>
      </g>
      <g>
        <rect class="cls-46" x="1267.05" y="123.62" width="230.37" height="241.74" transform="translate(2764.47 488.99) rotate(-180)"/>
        <path class="cls-46" d="m1264.43,120.87h235.61v247.24h-235.61V120.87Zm230.37,5.5h-225.13s0,236.25,0,236.25h225.13s0-236.25,0-236.25Z"/>
      </g>
      <g>
        <rect class="cls-29" x="1497.42" y="123.62" width="230.37" height="241.74" transform="translate(3225.21 488.99) rotate(-180)"/>
        <path class="cls-29" d="m1494.8,120.87h235.61v247.24h-235.61V120.87Zm230.37,5.5h-225.13s0,236.25,0,236.25h225.13s0-236.25,0-236.25Z"/>
      </g>
      <g>
        <rect class="cls-37" x="1727.79" y="123.62" width="57.59" height="241.74" transform="translate(3513.18 488.99) rotate(-180)"/>
        <path class="cls-4" d="m1725.17,120.87h62.83v247.24h-62.83V120.87Zm57.59,5.5h-52.35s0,236.25,0,236.25h52.35s0-236.25,0-236.25Z"/>
      </g>
      <g class="cls-22">
        <rect class="cls-4" x="115.19" y="2.75" width="230.37" height="120.87" transform="translate(460.75 126.37) rotate(-180)"/>
        <path class="cls-4" d="m112.57,0h235.61v126.37H112.57V0Zm230.37,5.5H117.81s0,115.37,0,115.37h225.13s0-115.37,0-115.37Z"/>
      </g>
      <g class="cls-22">
        <rect class="cls-4" x="345.56" y="2.75" width="230.37" height="120.87" transform="translate(921.49 126.37) rotate(-180)"/>
        <path class="cls-4" d="m342.94,0h235.61v126.37h-235.61V0Zm230.37,5.5h-225.13s0,115.37,0,115.37h225.13s0-115.37,0-115.37Z"/>
      </g>
      <g class="cls-22">
        <rect class="cls-4" x="575.93" y="2.75" width="230.37" height="120.87" transform="translate(1382.23 126.37) rotate(-180)"/>
        <path class="cls-4" d="m573.31,0h235.61v126.37h-235.61V0Zm230.37,5.5h-225.13s0,115.37,0,115.37h225.13s0-115.37,0-115.37Z"/>
      </g>
      <g class="cls-22">
        <rect class="cls-4" x="806.3" y="2.75" width="230.37" height="120.87" transform="translate(1842.98 126.37) rotate(-180)"/>
        <path class="cls-4" d="m803.68,0h235.61v126.37h-235.61V0Zm230.37,5.5h-225.13s0,115.37,0,115.37h225.13s0-115.37,0-115.37Z"/>
      </g>
      <g class="cls-30">
        <rect class="cls-27" x="1036.68" y="2.75" width="230.37" height="120.87" transform="translate(2303.72 126.37) rotate(-180)"/>
        <path class="cls-27" d="m1034.06,0h235.61v126.37h-235.61V0Zm230.37,5.5h-225.13s0,115.37,0,115.37h225.13s0-115.37,0-115.37Z"/>
      </g>
      <g>
        <rect class="cls-36" x="1267.05" y="2.75" width="230.37" height="120.87" transform="translate(2764.47 126.37) rotate(-180)"/>
        <path class="cls-36" d="m1264.43,0h235.61v126.37h-235.61V0Zm230.37,5.5h-225.13s0,115.37,0,115.37h225.13s0-115.37,0-115.37Z"/>
      </g>
      <g>
        <rect class="cls-43" x="1497.42" y="2.75" width="230.37" height="120.87" transform="translate(3225.21 126.37) rotate(-180)"/>
        <path class="cls-43" d="m1494.8,0h235.61v126.37h-235.61V0Zm230.37,5.5h-225.13s0,115.37,0,115.37h225.13s0-115.37,0-115.37Z"/>
      </g>
      <g>
        <rect class="cls-37" x="1727.79" y="2.75" width="57.59" height="120.87" transform="translate(3513.18 126.37) rotate(-180)"/>
        <path class="cls-4" d="m1725.17,0h62.83v126.37h-62.83V0Zm57.59,5.5h-52.35s0,115.37,0,115.37h52.35s0-115.37,0-115.37Z"/>
      </g>
    </g>
    <g class="cls-7">
      <rect class="cls-8" x="1526.21" y="926.69" width="115.19" height="120.87" transform="translate(3167.62 1974.25) rotate(-180)"/>
      <rect class="cls-41" x="1531.97" y="932.73" width="103.67" height="108.79" transform="translate(3167.62 1974.25) rotate(-180)"/>
      <g>
        <path class="cls-48" d="m1625.81,939.38h0c1.58,0,2.87,1.35,2.87,3.01v89.47c0,1.65-1.29,3.01-2.87,3.01h0c-1.58,0-2.87-1.35-2.87-3.01v-89.47c0-1.65,1.29-3.01,2.87-3.01Z"/>
        <path class="cls-48" d="m1613.81,939.38h0c1.58,0,2.87,1.35,2.87,3.01v89.47c0,1.65-1.29,3.01-2.87,3.01h0c-1.58,0-2.87-1.35-2.87-3.01v-89.47c0-1.65,1.29-3.01,2.87-3.01Z"/>
        <path class="cls-48" d="m1601.81,939.38h0c1.58,0,2.87,1.35,2.87,3.01v89.47c0,1.65-1.29,3.01-2.87,3.01h0c-1.58,0-2.87-1.35-2.87-3.01v-89.47c0-1.65,1.29-3.01,2.87-3.01Z"/>
        <path class="cls-48" d="m1589.81,939.38h0c1.58,0,2.86,1.35,2.86,3.01v89.47c0,1.65-1.29,3.01-2.86,3.01h0c-1.58,0-2.87-1.35-2.87-3.01v-89.47c0-1.65,1.29-3.01,2.87-3.01Z"/>
        <path class="cls-48" d="m1577.81,939.38h0c1.58,0,2.87,1.35,2.87,3.01v89.47c0,1.65-1.29,3.01-2.87,3.01h0c-1.58,0-2.87-1.35-2.87-3.01v-89.47c0-1.65,1.29-3.01,2.87-3.01Z"/>
        <path class="cls-48" d="m1565.81,939.38h0c1.58,0,2.87,1.35,2.87,3.01v89.47c0,1.65-1.29,3.01-2.87,3.01h0c-1.58,0-2.87-1.35-2.87-3.01v-89.47c0-1.65,1.29-3.01,2.87-3.01Z"/>
        <path class="cls-48" d="m1553.8,939.38h0c1.58,0,2.87,1.35,2.87,3.01v89.47c0,1.65-1.29,3.01-2.87,3.01h0c-1.58,0-2.87-1.35-2.87-3.01v-89.47c0-1.65,1.29-3.01,2.87-3.01Z"/>
        <path class="cls-48" d="m1541.8,939.38h0c1.58,0,2.87,1.35,2.87,3.01v89.47c0,1.65-1.29,3.01-2.87,3.01h0c-1.58,0-2.87-1.35-2.87-3.01v-89.47c0-1.65,1.29-3.01,2.87-3.01Z"/>
      </g>
    </g>
  </g>
  <g id="Layer_1" data-name="Layer 1">
    <g id="LWPOLYLINE" class="cls-16">
      <rect class="cls-3" x="115.19" y="1090.6" width="1151.86" height="120.87"/>
    </g>
    <g id="LWPOLYLINE-2" data-name="LWPOLYLINE">
      <rect class="cls-25" x="1670.2" y="2.75" width="115.19" height="1087.85"/>
    </g>
    <g>
      <g class="cls-16">
        <g id="LWPOLYLINE-3" data-name="LWPOLYLINE">
          <polygon class="cls-35" points="98.8 2966.19 63.52 2966.19 63.52 2955.03 10.59 2955.03 10.59 3010.83 98.8 3010.83 98.8 2966.19 98.8 2966.19"/>
        </g>
        <g id="LWPOLYLINE-4" data-name="LWPOLYLINE">
          <polygon class="cls-35" points="98.8 2162.66 63.52 2162.66 63.52 2173.82 10.59 2173.82 10.59 2118.02 98.8 2118.02 98.8 2162.66 98.8 2162.66"/>
        </g>
        <g id="LWPOLYLINE-5" data-name="LWPOLYLINE">
          <rect class="cls-35" x="98.8" y="2921.55" width="635.11" height="44.64"/>
        </g>
      </g>
      <g id="ARC">
        <path class="cls-4" d="m88.21,2173.86c22.1,0,44.38,1.45,66.22,4.3l-.41,5.05c-21.71-2.84-43.85-4.28-65.81-4.28v-5.08Zm88.17,7.66c21.85,3.83,43.76,9.15,65.12,15.83l-.96,4.93c-21.23-6.64-43-11.93-64.71-15.73l.55-5.03Zm86.5,23.01c21.19,7.63,42.31,16.77,62.76,27.17l-1.5,4.71c-20.32-10.33-41.31-19.42-62.36-26.99l1.1-4.88Zm83.19,38.08c20.13,11.29,40.04,24.06,59.16,37.96l-2,4.4c-19-13.81-38.78-26.51-58.78-37.72l1.63-4.64Zm78.16,52.35c18.7,14.71,37.01,30.85,54.43,47.96l-2.46,4.01c-17.31-17-35.51-33.04-54.09-47.66l2.12-4.31Zm71.67,65.52c16.92,17.84,33.3,37.02,48.68,56.99l-2.87,3.54c-15.29-19.85-31.56-38.9-48.38-56.64l2.57-3.9Zm63.83,77.36c14.83,20.63,28.96,42.48,42.01,64.92l-3.23,3.01c-12.97-22.3-27.02-44.01-41.75-64.51l2.97-3.42Zm54.8,87.72c12.44,23.03,24.06,47.12,34.53,71.62l-3.53,2.41c-10.4-24.35-21.95-48.29-34.31-71.17l3.31-2.87Zm44.68,96.41c9.81,24.99,18.67,50.9,26.34,77.01l-3.76,1.77c-7.63-25.94-16.43-51.69-26.18-76.52l3.59-2.26Zm33.69,103.4c6.95,26.44,12.87,53.66,17.6,80.9l-3.92,1.09c-4.7-27.06-10.58-54.11-17.49-80.38l3.81-1.6Zm21.96,108.32c3.96,27.37,6.84,55.36,8.54,83.2l-4,.39c-1.69-27.66-4.55-55.48-8.49-82.67l3.95-.91Zm9.87,111.13c.39,11.63.59,23.44.59,35.12h-4.01c0-11.6-.2-23.34-.59-34.9l4.01-.22Z"/>
      </g>
      <g id="LWPOLYLINE-6" data-name="LWPOLYLINE">
        <polygon class="cls-11" points="88.21 2979.92 52.93 2979.92 52.93 2968.76 0 2968.76 0 3024.56 88.21 3024.56 88.21 2979.92 88.21 2979.92"/>
      </g>
      <g id="LWPOLYLINE-7" data-name="LWPOLYLINE">
        <polygon class="cls-11" points="88.21 2176.39 52.93 2176.39 52.93 2187.56 0 2187.56 0 2131.75 88.21 2131.75 88.21 2176.39 88.21 2176.39"/>
      </g>
      <g id="LWPOLYLINE-8" data-name="LWPOLYLINE">
        <rect class="cls-11" x="88.21" y="2935.28" width="635.11" height="44.64"/>
      </g>
    </g>
    <g class="cls-24">
      <path class="cls-13" d="m1548.76,607.95c21.82,21.37,56.01,20.14,76.38-2.76.88-.99,1.72-2.01,2.53-3.06,7.92-16.3,17.2-31.82,27.75-46.39,4.64-2.61,9.82-3.97,15.08-3.97h10.11c.52.74,1.08,1.45,1.66,2.11v32.81c0,4.01,3.09,7.25,6.91,7.25h21.89c3.82,0,6.91-3.25,6.91-7.25v-32.82c1.38-1.57,2.53-3.3,3.47-5.13h32.82v1.44s10.72,0,10.72,0v1.96c0,.56.22,1.1.61,1.48l18.32,18.27c.36.36.84.56,1.34.56v-71.61c-.5,0-.98.2-1.34.56l-18.32,18.27c-.39.39-.61.92-.61,1.48v1.97h-10.72s0,1.43,0,1.43h-32.83c-.53-1.03-1.11-2.05-1.8-3.02-.52-.74-1.08-1.44-1.66-2.11v-32.81c0-4.01-3.09-7.25-6.91-7.25h-21.89c-3.82,0-6.91,3.25-6.91,7.25v32.83c-.58.67-1.15,1.36-1.66,2.09h-10.11c-5.26,0-10.44-1.36-15.08-3.97-10.55-14.56-19.84-30.09-27.75-46.39-18.75-24.36-52.78-28.16-75.99-8.48-1,.85-1.98,1.74-2.92,2.66-19.53,17.96-30.51,44.05-30,71.29-.51,27.24,10.47,53.34,30,71.29Z"/>
      <rect class="cls-12" x="1711.08" y="534.59" width="36.29" height="24.18"/>
      <rect class="cls-12" x="1747.37" y="533.15" width="10.72" height="27.05"/>
      <path class="cls-12" d="m1758.09,562.17v-1.96s0-27.05,0-27.05v-1.97c0-.56.22-1.1.61-1.48l18.32-18.27c.36-.36.84-.56,1.34-.56h7.02v71.61h-7.02c-.5,0-.98-.2-1.34-.56l-18.32-18.27c-.39-.39-.61-.92-.61-1.48Z"/>
      <path class="cls-12" d="m1675.36,496.64c0-4.01,3.09-7.25,6.91-7.25h21.89c3.82,0,6.91,3.25,6.91,7.25v100.07c0,4.01-3.1,7.25-6.91,7.25h-21.89c-3.82,0-6.91-3.25-6.91-7.25v-100.07Z"/>
      <path class="cls-12" d="m1673.7,561.79c7.95,11.31,23.14,13.72,33.92,5.37,10.78-8.35,13.07-24.28,5.12-35.6-7.95-11.31-23.14-13.72-33.92-5.37-1.95,1.51-3.68,3.32-5.12,5.37v30.22Z"/>
      <path class="cls-12" d="m1707.62,546.68c0,8.35-6.45,15.11-14.4,15.11h-29.63c-5.26,0-10.44,1.36-15.08,3.97-10.55,14.56-19.84,30.09-27.75,46.39-.81,1.05-1.66,2.07-2.54,3.06-20.36,22.89-54.56,24.13-76.38,2.76-19.53-17.96-30.51-44.05-30-71.3-.51-27.24,10.47-53.33,30-71.29.94-.92,1.92-1.81,2.92-2.66,23.22-19.68,57.24-15.88,75.99,8.48,7.91,16.3,17.2,31.82,27.75,46.39,4.64,2.61,9.81,3.97,15.08,3.97h29.63c7.95,0,14.4,6.77,14.4,15.11Z"/>
    </g>
    <path class="cls-17" d="m229.94,1037.18l34.21,35.9c1.12,1.18,2.95,1.18,4.07,0l362.45-380.34c1.12-1.18,1.12-3.09,0-4.27l-34.21-35.9,20.36-21.37,46.43,48.72c5.62,5.9,5.62,15.47,0,21.37l-386.88,405.98c-5.62,5.9-14.74,5.9-20.36,0l-46.43-48.72,20.36-21.37Z"/>
    <g id="LWPOLYLINE-9" data-name="LWPOLYLINE" class="cls-16">
      <path class="cls-35" d="m544.74,598.29c-5.62-5.9-5.62-15.47,0-21.37,5.62-5.9,14.74-5.9,20.36,0l38.69,40.6-20.36,21.37-38.69-40.6h0Z"/>
    </g>
    <g id="LWPOLYLINE-10" data-name="LWPOLYLINE" class="cls-16">
      <polygon class="cls-35" points="196.55 1044.87 188.4 1036.33 208.77 1014.96 216.91 1023.51 196.55 1044.87"/>
    </g>
    <g id="LWPOLYLINE-11" data-name="LWPOLYLINE" class="cls-16">
      <rect class="cls-35" x="923.85" y="1132.91" width="345.56" height="12.09"/>
    </g>
    <g id="LWPOLYLINE-12" data-name="LWPOLYLINE" class="cls-16">
      <polygon class="cls-35" points="125.69 1141.46 695.83 543.17 687.68 534.62 117.54 1132.91 125.69 1141.46"/>
    </g>
    <g id="LWPOLYLINE-13" data-name="LWPOLYLINE" class="cls-16">
      <polygon class="cls-35" points="192.88 1053.85 190.44 1051.28 223.02 1017.1 225.46 1019.66 192.88 1053.85"/>
    </g>
    <g id="LWPOLYLINE-14" data-name="LWPOLYLINE" class="cls-16">
      <polygon class="cls-35" points="201.03 1062.4 203.47 1064.96 236.05 1030.77 233.61 1028.21 201.03 1062.4"/>
    </g>
    <g id="LWPOLYLINE-15" data-name="LWPOLYLINE" class="cls-16">
      <polygon class="cls-35" points="612.34 613.68 609.9 611.11 577.32 645.3 579.77 647.87 612.34 613.68"/>
    </g>
    <g id="LWPOLYLINE-16" data-name="LWPOLYLINE" class="cls-16">
      <polygon class="cls-35" points="620.49 622.23 622.93 624.79 590.35 658.98 587.91 656.41 620.49 622.23"/>
    </g>
    <g>
      <path class="cls-17" d="m1670.2,1881h-163.3s163.3,0,163.3,0Z"/>
      <path class="cls-17" d="m1670.2,1878.09v2.91s0-2.91,0-2.91Z"/>
      <polygon class="cls-17" points="1670.2 1881 1506.9 1881 1501.84 1888.43 1498.57 1891.69 1492.69 1895.87 1486.34 1898.65 1479.24 1900.11 1473.03 1900.12 992.12 1893.63 967.45 1891.66 952.41 1887.95 942.7 1884.46 929.34 1878.09 917.99 1871.06 907.33 1862.81 897.32 1853.25 888.87 1843.36 880.94 1831.95 874.42 1820.25 868.27 1805.86 864.43 1793.49 861.86 1781.63 861.86 1571.71 864.66 1558.95 868.29 1547.44 875.37 1531.19 881.11 1521.1 890.1 1508.41 897.6 1499.8 907.33 1490.53 916.57 1483.28 931.2 1474.24 941.42 1469.4 955.56 1464.44 966.37 1461.88 979.78 1460.07 992.12 1459.7 1473.03 1453.22 1480.68 1453.4 1485.65 1454.47 1492.69 1457.47 1498.38 1461.48 1503.31 1466.7 1506.9 1472.34 1670.2 1472.34 1670.2 1881 1670.2 1881 1670.2 1881"/>
      <polygon class="cls-17" points="1473.03 1900.12 1472.43 1900.11 1479.24 1900.11 1473.03 1900.12"/>
      <polygon class="cls-17" points="1479.24 1900.11 1472.43 1900.11 1364.14 1898.65 1479.24 1900.11"/>
      <path class="cls-17" d="m935.44,1881l-6.1-2.91,6.1,2.91Z"/>
      <path class="cls-17" d="m929.34,1878.09l-11.35-7.03,11.35,7.03Z"/>
      <path class="cls-17" d="m917.99,1871.06l-10.66-8.25,10.66,8.25Z"/>
      <path class="cls-17" d="m907.33,1862.81l-10.01-9.56,10.01,9.56Z"/>
      <path class="cls-17" d="m897.32,1853.25l-8.45-9.89,8.45,9.89Z"/>
      <path class="cls-17" d="m888.87,1843.36l-7.94-11.41,7.94,11.41Z"/>
      <path class="cls-17" d="m880.94,1831.95l-6.52-11.7,6.52,11.7Z"/>
      <path class="cls-17" d="m874.42,1820.25l-6.14-14.39,6.14,14.39Z"/>
      <path class="cls-17" d="m868.27,1805.86l-3.85-12.37,3.85,12.37Z"/>
      <path class="cls-17" d="m864.43,1793.49l-2.57-11.87,2.57,11.87Z"/>
      <polygon class="cls-17" points="1480.68 1453.4 1380.05 1454.47 1459.99 1453.4 1480.68 1453.4"/>
      <polygon class="cls-17" points="1480.68 1453.4 1459.99 1453.4 1473.03 1453.22 1480.68 1453.4"/>
      <g id="WIPEOUT">
        <polygon class="cls-41" points="1463.55 1918.41 1462.95 1918.41 1469.76 1918.41 1463.55 1918.41"/>
        <polygon class="cls-41" points="1469.76 1918.41 1462.95 1918.41 1354.66 1916.95 1469.76 1918.41"/>
        <path class="cls-41" d="m1670.2,1899.3h-172.78s172.78,0,172.78,0Z"/>
        <path class="cls-41" d="m1670.2,1896.39v2.91s0-2.91,0-2.91Z"/>
        <path class="cls-41" d="m925.95,1899.3l-6.1-2.91,6.1,2.91Z"/>
        <path class="cls-41" d="m919.85,1896.39l-11.34-7.03,11.34,7.03Z"/>
        <path class="cls-41" d="m908.51,1889.36l-10.66-8.25,10.66,8.25Z"/>
        <path class="cls-41" d="m897.85,1881.11l-10.01-9.56,10.01,9.56Z"/>
        <path class="cls-41" d="m887.84,1871.54l-8.45-9.89,8.45,9.89Z"/>
        <path class="cls-41" d="m879.39,1861.66l-7.93-11.41,7.93,11.41Z"/>
        <path class="cls-41" d="m871.45,1850.25l-6.52-11.71,6.52,11.71Z"/>
        <path class="cls-41" d="m864.93,1838.55l-6.14-14.39,6.14,14.39Z"/>
        <path class="cls-41" d="m858.79,1824.16l-3.85-12.37,3.85,12.37Z"/>
        <path class="cls-41" d="m854.94,1811.79l-2.57-11.87,2.57,11.87Z"/>
        <polygon class="cls-41" points="1471.2 1471.69 1370.56 1472.77 1450.5 1471.69 1471.2 1471.69"/>
        <polygon class="cls-41" points="1471.2 1471.69 1450.5 1471.69 1463.55 1471.52 1471.2 1471.69"/>
        <polygon class="cls-33" points="1670.2 1899.3 1497.42 1899.3 1492.35 1906.73 1489.09 1909.99 1483.21 1914.17 1476.86 1916.95 1469.76 1918.41 1463.55 1918.41 982.64 1911.93 957.96 1909.96 942.92 1906.25 933.21 1902.76 919.85 1896.39 908.51 1889.36 897.85 1881.11 887.84 1871.54 879.39 1861.66 871.45 1850.25 864.93 1838.55 858.79 1824.16 854.94 1811.79 852.38 1799.92 852.38 1590.01 855.18 1577.25 858.8 1565.74 865.89 1549.49 871.63 1539.4 880.62 1526.71 888.11 1518.1 897.85 1508.83 907.09 1501.57 921.72 1492.54 931.94 1487.7 946.07 1482.74 956.89 1480.17 970.29 1478.36 982.64 1478 1463.55 1471.52 1471.2 1471.69 1476.17 1472.77 1483.21 1475.76 1488.9 1479.77 1493.83 1484.99 1497.42 1490.63 1670.2 1490.63 1670.2 1899.3 1670.2 1899.3 1670.2 1899.3"/>
      </g>
      <path class="cls-42" d="m1670.2,1490.63h-172.78c-19.08,0-34.56,16.24-34.56,36.26v336.14c0,20.03,15.47,36.26,34.56,36.26h172.78s0-408.66,0-408.66Z"/>
      <path class="cls-33" d="m1670.2,1881.17h-172.78c-9.54,0-17.28-8.12-17.28-18.13v-336.14c0-10.01,7.74-18.13,17.28-18.13h172.78v372.4Z"/>
      <g id="CIRCLE">
        <path class="cls-4" d="m1603.39,1694.97c0,18.03-13.92,32.64-31.1,32.64-17.18,0-31.1-14.61-31.1-32.64,0-18.02,13.92-32.64,31.1-32.64,17.18,0,31.1,14.61,31.1,32.64h0Z"/>
      </g>
      <path class="cls-41" d="m887.49,1694.97c-.02-18.01,1.1-36.01,3.37-53.86,6.46-41.9,34.34-76.68,72.57-90.54,72.58-14.5,147.1-14.77,219.78-.79,33.1,10.71,58.91,38.08,68.78,72.92,5.44,23.66,7.98,47.95,7.56,72.28.42,24.33-2.12,48.62-7.56,72.28-9.86,34.85-35.67,62.21-68.78,72.92-72.68,13.97-147.19,13.71-219.78-.79-38.23-13.86-66.11-48.65-72.57-90.54-2.27-17.86-3.4-35.85-3.37-53.87Z"/>
      <path class="cls-17" d="m887.49,1694.96c-.02-18.01,1.09-36.01,3.37-53.86,5.37-34.82,25.53-64.72,54.11-81.78-20.58,17.55-34.78,42.67-39.15,71.04-2.27,17.85-3.4,35.85-3.36,53.86-.03,18.01,1.09,36.01,3.36,53.86,6.46,41.91,34.35,76.69,72.58,90.55,72.58,14.5,147.11,14.77,219.78.8,7.11-2.3,13.87-5.37,20.21-9.1-10.24,8.82-22.15,15.63-35.19,19.85-72.67,13.97-147.19,13.71-219.78-.78-38.23-13.86-66.11-48.65-72.57-90.55-2.28-17.87-3.4-35.85-3.37-53.87Z"/>
      <path class="cls-4" d="m1148.09,1694.97c-.01-5.45.79-10.88,2.37-16.08,3.96-17.47,15.45-32.01,31.09-39.31,23.35-7,47.53-10.56,71.81-10.58,4.49,21.65,6.57,43.79,6.19,65.96.38,22.17-1.69,44.31-6.19,65.96-24.28-.01-48.46-3.58-71.81-10.58-15.64-7.3-27.12-21.84-31.09-39.31-1.58-5.2-2.38-10.63-2.37-16.08Z"/>
      <rect class="cls-35" x="846.15" y="1749.27" width=".14" height="5.5"/>
      <rect class="cls-35" x="846.15" y="1881.19" width=".14" height="5.5"/>
      <g id="CIRCLE-2" data-name="CIRCLE">
        <path class="cls-45" d="m1597.63,1694.97c0,14.69-11.34,26.59-25.34,26.59-13.99,0-25.34-11.91-25.34-26.59,0-14.69,11.35-26.59,25.34-26.59,14,0,25.34,11.91,25.34,26.59h0Z"/>
      </g>
    </g>
    <path class="cls-17" d="m1610.38,2120.94v-56.62s54.42,0,54.42,0h0c.27,4.36.67,8.72,1.21,13.06.06.48.45.84.91.84h10.83s0-54.39,0-54.39h-10.83c-.46,0-.85.36-.91.84-.54,4.34-.94,8.69-1.21,13.06h-54.43s0-57.12,0-57.12h-32.33s0,140.33,0,140.33h32.33Z"/>
    <g class="cls-47">
      <rect class="cls-34" x="1587.18" y="2044.28" width="73.97" height="26.59"/>
      <path class="cls-34" d="m1658.29,2083.94c-.54-4.34-.94-8.69-1.21-13.06v-26.59c.27-4.36.68-8.72,1.21-13.06.06-.48.45-.84.91-.84h10.83s0,54.39,0,54.39h-10.83c-.46,0-.85-.36-.91-.84Z"/>
      <rect class="cls-34" x="1570.33" y="1987.16" width="32.33" height="140.33" transform="translate(3172.98 4114.66) rotate(-180)"/>
    </g>
    <g class="cls-2">
      <g class="cls-16">
        <path class="cls-5" d="m1469.18,1346.82h8.06s0-.09,0-.09c.27.05.55.09.84.09h37.14s41.36-3.74,41.36-3.74v.08s1.25,5.48,1.25,5.48c1.19,2.11,3.42,3.33,5.75,3.14,15.51-.31,30.87-3.29,45.46-8.81v-2.05s0-1.84,0-1.84v-.06l4-.26v11.7s58.12,0,58.12,0l1.75,11.96h1.97s0-53.02,0-53.02h0v-12.08s0,0,0,0v-11.95s-1.97,0-1.97,0v.02s-1.75,11.94-1.75,11.94h-58.12s0,11.7,0,11.7l-4-.26v-.08s0-3.86,0-3.86c-14.59-5.53-29.95-8.5-45.46-8.82-2.33-.19-4.56,1.03-5.75,3.14l-1.25,5.48v.08s-41.36-3.74-41.36-3.74h-37.98s.84,0,.84,0c-.29,0-.57.03-.84.09v-.09s-8.06,0-8.06,0c-2.54,0-4.6,2.16-4.6,4.83v36.23c0,2.67,2.06,4.83,4.6,4.83Z"/>
      </g>
      <path class="cls-5" d="m1472.57,1355.28h-8.06c-2.54,0-4.6-2.16-4.6-4.83v-36.23c0-2.67,2.06-4.83,4.61-4.83h8.06v45.89Z"/>
      <path class="cls-5" d="m1551.9,1351.62l1.25,5.48c1.19,2.11,3.42,3.33,5.75,3.14,15.51-.31,30.87-3.29,45.46-8.81v-2.05s0-1.84,0-1.84v-30.4s0-3.87,0-3.87c-14.59-5.52-29.95-8.5-45.46-8.82-2.33-.19-4.56,1.03-5.75,3.14l-1.25,5.48v38.56Z"/>
      <g id="LINE">
        <rect class="cls-5" x="1506.52" y="1309.39" width="1.15" height="45.89"/>
      </g>
      <polygon class="cls-5" points="1614.12 1317.85 1577.3 1315.44 1577.29 1349.25 1614.12 1346.84 1614.12 1317.85"/>
      <path class="cls-5" d="m1577.3,1315.44l-66.75-6.04h-37.98s.84,0,.84,0c-2.54,0-4.6,2.16-4.6,4.83v36.23c0,2.67,2.06,4.83,4.6,4.83h-.84s37.98,0,37.98,0l66.75-6.03v-33.81Z"/>
      <g id="LINE-2" data-name="LINE">
        <polygon class="cls-5" points="1603.79 1317.13 1604.94 1317.13 1603.79 1317.16 1603.79 1317.13"/>
      </g>
      <rect class="cls-5" x="1668.23" y="1293.83" width="1.97" height="77.05"/>
      <polygon class="cls-5" points="1668.23 1370.87 1664.89 1348.05 1664.9 1316.65 1668.23 1293.83 1668.23 1370.87"/>
      <rect class="cls-5" x="1608.37" y="1305.78" width="61.83" height="12.08"/>
      <rect class="cls-5" x="1608.37" y="1346.84" width="61.83" height="12.08"/>
      <rect class="cls-5" x="1614.12" y="1317.85" width="24.17" height="28.98"/>
      <rect class="cls-5" x="1638.29" y="1317.85" width="26.61" height="28.98" transform="translate(3303.18 2664.69) rotate(-180)"/>
    </g>
    <g>
      <g id="LWPOLYLINE-17" data-name="LWPOLYLINE" class="cls-16">
        <path class="cls-35" d="m1670.2,2963.63h-469.39c-6.36,0-11.52-5.41-11.52-12.09v-640.63c0-6.68,5.16-12.09,11.52-12.09h469.39v664.8Z"/>
      </g>
      <g id="LWPOLYLINE-18" data-name="LWPOLYLINE">
        <path class="cls-42" d="m1670.03,2994.35h-495.13c-6.36,0-11.52-5.41-11.52-12.09v-640.63c0-6.68,5.16-12.09,11.52-12.09h495.13v664.8Z"/>
      </g>
      <g id="LWPOLYLINE-19" data-name="LWPOLYLINE">
        <rect class="cls-33" x="1578.05" y="2329.55" width="92.15" height="664.8"/>
      </g>
      <g id="LWPOLYLINE-20" data-name="LWPOLYLINE">
        <path class="cls-41" d="m1578.05,2958.09v-592.28s-362.84,0-362.84,0c-3.18,0-5.76,2.71-5.76,6.04v580.19c0,3.34,2.58,6.04,5.76,6.04h362.84Z"/>
      </g>
      <g id="LWPOLYLINE-21" data-name="LWPOLYLINE" class="cls-16">
        <path class="cls-35" d="m1209.45,2952.04v-580.19c0-3.34,2.58-6.04,5.76-6.04h10.37v574.15c0,3.34,2.58,6.04,5.76,6.04h346.71v12.09h-362.84c-3.18,0-5.76-2.71-5.76-6.04Z"/>
      </g>
      <g>
        <ellipse class="cls-8" cx="1462.77" cy="2661.95" rx="48.87" ry="51.28"/>
        <path class="cls-48" d="m1433.49,2661.95c0-16.97,13.11-30.72,29.28-30.72,16.17,0,29.28,13.76,29.28,30.72,0,16.97-13.11,30.72-29.28,30.72-16.17,0-29.28-13.76-29.28-30.72Z"/>
      </g>
      <path class="cls-17" d="m1508.71,2669.94c.17,0,.34,0,.51-.01h100.25c4.19,9.96,12.74,17.44,23.11,19.77v1.99c0,.33.26.61.58.61h12.67c.32,0,.58-.27.58-.61v-1.99c12.57-2.83,22.47-13.22,25.16-26.41h1.91c.32,0,.58-.27.58-.6v-13.3c0-.33-.26-.6-.58-.6h-1.91c-2.7-13.19-12.59-23.56-25.16-26.39v-2.01c0-.33-.26-.6-.58-.6h-12.67c-.32,0-.58.27-.58.6v2.01c-10.37,2.33-18.91,9.8-23.1,19.75h-100.26c-7.31-.29-13.46,5.7-13.74,13.37,0,.18-.01.35-.01.53,0,7.68,5.93,13.9,13.25,13.9Z"/>
      <g>
        <path class="cls-39" d="m1602.83,2661.96c0,19.01,14.69,34.43,32.81,34.43,18.12,0,32.81-15.41,32.81-34.43,0-19.01-14.69-34.43-32.81-34.43-18.12,0-32.81,15.41-32.81,34.43Z"/>
        <path class="cls-39" d="m1619.82,2675.85h-114.45c-.17,0-.34,0-.5,0-7.32,0-13.25-6.22-13.25-13.9,0-.18,0-.35,0-.53.28-7.67,6.43-13.65,13.74-13.36h114.45s0,27.79,0,27.79Z"/>
        <path class="cls-39" d="m1621.53,2675.85h-109.37c-.17,0-.34,0-.5,0-7.32,0-13.25-6.22-13.25-13.9,0-.18,0-.35,0-.53.28-7.67,6.43-13.65,13.74-13.36h109.37s0,27.79,0,27.79Z"/>
        <path class="cls-39" d="m1613.06,2661.96c0-13.09,10.11-23.7,22.58-23.7s22.58,10.61,22.58,23.7c0,13.09-10.11,23.7-22.58,23.7-12.47,0-22.58-10.61-22.58-23.7Z"/>
        <g>
          <path class="cls-39" d="m1669.62,2669.2h-24.77c-1.27,0-2.3,1.08-2.3,2.42v25.99c0,.33-.26.6-.58.6h-12.67c-.32,0-.58-.27-.58-.6v-25.99c0-1.34-1.03-2.42-2.3-2.42h-24.76c-.32,0-.58-.27-.58-.6v-13.3c0-.33.26-.6.58-.6h24.76c1.27,0,2.3-1.08,2.3-2.42v-25.99c0-.33.26-.6.58-.6h12.67c.32,0,.58.27.58.6v25.99c0,1.34,1.03,2.42,2.3,2.42h24.77c.32,0,.58.27.58.6v13.3c0,.33-.26.6-.58.6Z"/>
          <g class="cls-38">
            <path class="cls-39" d="m1640.68,2627.64v25.99c0,1.34,1.03,2.42,2.3,2.42h24.77c.32,0,.58.27.58.6l1.3,12.55c.32,0,.58-.27.58-.6v-13.3c0-.33-.26-.6-.58-.6h-24.77c-1.27,0-2.3-1.08-2.3-2.42v-25.99c0-.33-.26-.6-.58-.6h-12.67c-.32,0-.58.27-.58.6l11.37.74c.32,0,.58.27.58.6Z"/>
            <path class="cls-39" d="m1626.62,2654.67c-.06,0-.13.02-.19.02h-24.76c-.32,0-.58.27-.58.6v.74s25.16-.56,25.53-1.37Z"/>
            <path class="cls-39" d="m1640.68,2698.21h1.3c.32,0,.58-.27.58-.6v-25.99c0-.38.09-.73.24-1.05-1.18.11-2.11,27.64-2.11,27.64Z"/>
          </g>
          <g class="cls-16">
            <path class="cls-39" d="m1644.66,2669.22c.07,0,.13-.02.2-.02h24.77c.32,0,.58-.27.58-.6,0,0-25.16-.18-25.54.63Z"/>
            <path class="cls-39" d="m1629.31,2625.69c-.32,0-.58.27-.58.6v25.99c0,.38-.09.73-.24,1.05,1.18-.11.81-27.64.81-27.64Z"/>
            <path class="cls-39" d="m1601.66,2669.2h24.76c1.27,0,2.3,1.08,2.3,2.42v25.99c0,.33.26.6.58.6h12.67c.32,0-10.8-1.35-10.8-1.35-.32,0-.58-.27-.58-.61v-25.99c0-1.34-1.03-2.42-2.3-2.42h-24.77c-.32,0-.58-.27-.58-.6,0,0-1.87-12.28-1.87-11.95v13.3c0,.33.26.6.58.6Z"/>
          </g>
        </g>
      </g>
    </g>
    <g id="LWPOLYLINE-22" data-name="LWPOLYLINE">
      <rect class="cls-25" x="1670.2" y="1211.48" width="115.19" height="1933.96"/>
    </g>
    <g class="cls-15">
      <path class="cls-20" d="m227.59,1049.27l34.21,35.9c1.12,1.18,2.95,1.18,4.07,0l362.45-380.34c1.12-1.18,1.12-3.09,0-4.27l-34.21-35.9,20.36-21.37,46.43,48.72c5.62,5.9,5.62,15.47,0,21.37l-386.88,405.98c-5.62,5.9-14.74,5.9-20.36,0l-46.43-48.72,20.36-21.37Z"/>
      <g id="LWPOLYLINE-23" data-name="LWPOLYLINE">
        <path class="cls-20" d="m542.39,610.38c-5.62-5.9-5.62-15.47,0-21.37,5.62-5.9,14.74-5.9,20.36,0l38.69,40.6-20.36,21.37-38.69-40.6h0Z"/>
      </g>
      <g id="LWPOLYLINE-24" data-name="LWPOLYLINE">
        <polygon class="cls-20" points="194.19 1056.96 186.05 1048.42 206.41 1027.05 214.55 1035.59 194.19 1056.96"/>
      </g>
      <g id="LWPOLYLINE-25" data-name="LWPOLYLINE" class="cls-19">
        <rect class="cls-20" x="921.49" y="1145" width="345.56" height="12.09"/>
      </g>
      <g id="ARC-2" data-name="ARC">
        <path class="cls-20" d="m687.18,544.76c16.23,17.04,31.96,35.02,46.73,53.43l-4.01,3.54c-14.68-18.29-30.3-36.15-46.43-53.08l3.71-3.89Zm64.93,76.95c17.74,23.78,34.45,48.83,49.67,74.46l-4.45,2.91c-15.12-25.47-31.72-50.36-49.34-73.98l4.13-3.39Zm64.5,100.47c14.33,26.18,27.48,53.47,39.07,81.13l-4.8,2.21c-11.52-27.47-24.57-54.59-38.81-80.6l4.54-2.74Zm50.22,109.08c10.64,28.07,19.95,57.05,27.68,86.14l-5.05,1.48c-7.67-28.9-16.92-57.69-27.5-85.58l4.87-2.03Zm34.93,115.48c6.73,29.37,12.02,59.45,15.72,89.4l-5.2.71c-3.68-29.76-8.93-59.64-15.61-88.82l5.09-1.29Zm18.92,119.54c2.33,26.15,3.51,52.73,3.51,79.01,0,3.94-.03,7.92-.08,11.83l-5.24-.08c.05-3.89.08-7.84.08-11.76,0-26.1-1.17-52.51-3.48-78.49l5.22-.51Z"/>
      </g>
      <g id="LWPOLYLINE-26" data-name="LWPOLYLINE" class="cls-19">
        <polygon class="cls-20" points="123.33 1153.54 693.47 555.25 685.33 546.71 115.19 1145 123.33 1153.54"/>
      </g>
      <g id="LWPOLYLINE-27" data-name="LWPOLYLINE">
        <polygon class="cls-20" points="190.53 1065.94 188.08 1063.37 220.66 1029.18 223.11 1031.75 190.53 1065.94"/>
      </g>
      <g id="LWPOLYLINE-28" data-name="LWPOLYLINE">
        <polygon class="cls-20" points="198.67 1074.48 201.11 1077.05 233.7 1042.86 231.25 1040.3 198.67 1074.48"/>
      </g>
      <g id="LWPOLYLINE-29" data-name="LWPOLYLINE">
        <polygon class="cls-20" points="609.99 625.77 607.55 623.2 574.97 657.39 577.41 659.95 609.99 625.77"/>
      </g>
      <g id="LWPOLYLINE-30" data-name="LWPOLYLINE">
        <polygon class="cls-20" points="618.13 634.31 620.58 636.88 588 671.07 585.55 668.5 618.13 634.31"/>
      </g>
    </g>
  </g>
</svg>