<?xml version="1.0" encoding="UTF-8"?>
<svg xmlns="http://www.w3.org/2000/svg" viewBox="0 0 587.56 451.97">
  <defs>
    <style>
      .cls-1 {
        fill: #d6d7d8;
      }

      .cls-2 {
        fill: #c9cacb;
      }

      .cls-3 {
        fill: #fff;
      }

      .cls-4 {
        fill: #9c9ea1;
      }

      .cls-5 {
        fill: #808184;
      }

      .cls-6 {
        fill: #7c7d7f;
      }

      .cls-7 {
        fill: #56c4ce;
      }

      .cls-8 {
        fill: #faaa48;
      }

      .cls-9 {
        isolation: isolate;
      }

      .cls-10 {
        fill: #929497;
      }

      .cls-11 {
        fill: #a6a8ab;
      }

      .cls-12 {
        fill: #c3c3c3;
      }

      .cls-13 {
        fill: #d7d8da;
      }

      .cls-14 {
        fill: #d0d2d3;
      }

      .cls-15 {
        fill: #faf5b6;
      }

      .cls-16 {
        fill: #b6e0d8;
      }

      .cls-17 {
        fill: #bbbdbf;
      }

      .cls-18 {
        fill: #f5f5f6;
      }

      .cls-19 {
        fill: #aeb0b1;
      }

      .cls-20 {
        fill: #cbcdce;
      }

      .cls-21, .cls-22 {
        fill: #eab880;
      }

      .cls-22 {
        mix-blend-mode: multiply;
        opacity: .3;
      }

      .cls-23 {
        fill: #e1e2e2;
      }

      .cls-24 {
        fill: #e6e7e8;
      }

      .cls-25 {
        fill: #b5b5b6;
      }

      .cls-26 {
        fill: #f1f1f2;
      }

      .cls-27 {
        fill: #999b9c;
      }
    </style>
  </defs>
  <g class="cls-9">
    <g id="Layer_1" data-name="Layer 1">
      <rect class="cls-8" x=".02" y="2.53" width="587.54" height="443.18"/>
      <g>
        <polygon class="cls-15" points="31.74 443.83 22.56 434.64 13.37 443.83 31.74 443.83"/>
        <polygon class="cls-15" points="11.51 443.83 21.63 433.72 0 412.09 0 443.83 11.51 443.83"/>
        <polygon class="cls-15" points="114.83 443.83 105.65 434.64 96.46 443.83 114.83 443.83"/>
        <polygon class="cls-15" points="94.61 443.83 104.72 433.72 64.1 393.1 23.48 433.72 33.6 443.83 94.61 443.83"/>
        <polygon class="cls-15" points="63.17 392.17 22.56 351.55 0 374.11 0 410.23 22.56 432.79 63.17 392.17"/>
        <polygon class="cls-15" points="0 328.99 0 372.25 21.63 350.62 0 328.99"/>
        <polygon class="cls-15" points="197.93 443.83 188.74 434.64 179.55 443.83 197.93 443.83"/>
        <polygon class="cls-15" points="177.7 443.83 187.81 433.72 147.19 393.1 106.58 433.72 116.69 443.83 177.7 443.83"/>
        <rect class="cls-15" x="76.93" y="363.45" width="57.44" height="57.44" transform="translate(-246.37 189.58) rotate(-45)"/>
        <rect class="cls-15" x="35.38" y="321.9" width="57.44" height="57.44" transform="translate(-229.15 148.02) rotate(-45)"/>
        <polygon class="cls-15" points="63.17 309.08 22.56 268.46 0 291.01 0 327.14 22.56 349.69 63.17 309.08"/>
        <polygon class="cls-15" points="0 245.9 0 289.16 21.63 267.53 0 245.9"/>
        <polygon class="cls-15" points="281.02 443.83 271.84 434.64 262.65 443.83 281.02 443.83"/>
        <polygon class="cls-15" points="260.79 443.83 270.91 433.72 230.29 393.1 189.67 433.72 199.79 443.83 260.79 443.83"/>
        <rect class="cls-15" x="160.02" y="363.45" width="57.44" height="57.44" transform="translate(-222.02 248.32) rotate(-45)"/>
        <rect class="cls-15" x="118.47" y="321.9" width="57.44" height="57.44" transform="translate(-204.82 206.79) rotate(-45)"/>
        <rect class="cls-15" x="76.93" y="280.35" width="57.44" height="57.44" transform="translate(-187.61 165.24) rotate(-45)"/>
        <rect class="cls-15" x="35.38" y="238.81" width="57.44" height="57.44" transform="translate(-170.4 123.68) rotate(-45)"/>
        <polygon class="cls-15" points="63.17 225.98 22.56 185.37 0 207.92 0 244.05 22.56 266.6 63.17 225.98"/>
        <polygon class="cls-15" points="0 162.81 0 206.06 21.63 184.44 0 162.81"/>
        <polygon class="cls-15" points="364.11 443.83 354.93 434.64 345.74 443.83 364.11 443.83"/>
        <polygon class="cls-15" points="343.89 443.83 354 433.72 313.38 393.1 272.76 433.72 282.88 443.83 343.89 443.83"/>
        <rect class="cls-15" x="243.11" y="363.45" width="57.44" height="57.44" transform="translate(-197.69 307.08) rotate(-45)"/>
        <rect class="cls-15" x="201.57" y="321.9" width="57.44" height="57.44" transform="translate(-180.48 265.54) rotate(-45)"/>
        <rect class="cls-15" x="160.02" y="280.35" width="57.44" height="57.44" transform="translate(-163.27 223.98) rotate(-45)"/>
        <rect class="cls-15" x="118.47" y="238.81" width="57.44" height="57.44" transform="translate(-146.06 182.45) rotate(-45)"/>
        <rect class="cls-15" x="76.93" y="197.26" width="57.44" height="57.44" transform="translate(-128.85 140.9) rotate(-45)"/>
        <rect class="cls-15" x="35.38" y="155.71" width="57.44" height="57.44" transform="translate(-111.64 99.35) rotate(-45)"/>
        <polygon class="cls-15" points="63.17 142.89 22.56 102.27 0 124.83 0 160.95 22.56 183.51 63.17 142.89"/>
        <polygon class="cls-15" points="0 79.72 0 122.97 21.63 101.34 0 79.72"/>
        <polygon class="cls-15" points="447.21 443.83 438.02 434.64 428.83 443.83 447.21 443.83"/>
        <polygon class="cls-15" points="426.98 443.83 437.09 433.72 396.47 393.1 355.86 433.72 365.97 443.83 426.98 443.83"/>
        <rect class="cls-15" x="326.21" y="363.45" width="57.44" height="57.44" transform="translate(-173.35 365.84) rotate(-45)"/>
        <rect class="cls-15" x="284.66" y="321.9" width="57.44" height="57.44" transform="translate(-156.14 324.29) rotate(-45)"/>
        <rect class="cls-15" x="243.11" y="280.35" width="57.44" height="57.44" transform="translate(-138.93 282.74) rotate(-45)"/>
        <rect class="cls-15" x="201.57" y="238.81" width="57.44" height="57.44" transform="translate(-121.72 241.2) rotate(-45)"/>
        <rect class="cls-15" x="160.02" y="197.26" width="57.44" height="57.44" transform="translate(-104.51 199.65) rotate(-45)"/>
        <rect class="cls-15" x="118.47" y="155.71" width="57.44" height="57.44" transform="translate(-87.3 158.11) rotate(-45)"/>
        <rect class="cls-15" x="76.93" y="114.17" width="57.44" height="57.44" transform="translate(-70.09 116.56) rotate(-45)"/>
        <rect class="cls-15" x="35.38" y="72.62" width="57.44" height="57.44" transform="translate(-52.89 75.01) rotate(-45)"/>
        <polygon class="cls-15" points="63.17 59.8 22.56 19.18 0 41.73 0 77.86 22.56 100.42 63.17 59.8"/>
        <polygon class="cls-15" points="0 8.14 0 39.88 21.63 18.25 11.51 8.14 0 8.14"/>
        <polygon class="cls-15" points="530.3 443.83 521.11 434.64 511.93 443.83 530.3 443.83"/>
        <polygon class="cls-15" points="510.07 443.83 520.19 433.72 479.57 393.1 438.95 433.72 449.07 443.83 510.07 443.83"/>
        <rect class="cls-15" x="409.3" y="363.45" width="57.44" height="57.44" transform="translate(-149.01 424.61) rotate(-45)"/>
        <rect class="cls-15" x="367.75" y="321.9" width="57.44" height="57.44" transform="translate(-131.8 383.04) rotate(-45)"/>
        <rect class="cls-15" x="326.21" y="280.35" width="57.44" height="57.44" transform="translate(-114.59 341.5) rotate(-45)"/>
        <rect class="cls-15" x="284.66" y="238.81" width="57.44" height="57.44" transform="translate(-97.39 299.95) rotate(-45)"/>
        <rect class="cls-15" x="243.11" y="197.26" width="57.44" height="57.44" transform="translate(-80.18 258.41) rotate(-45)"/>
        <rect class="cls-15" x="201.57" y="155.71" width="57.44" height="57.44" transform="translate(-62.97 216.86) rotate(-45)"/>
        <rect class="cls-15" x="160.02" y="114.17" width="57.44" height="57.44" transform="translate(-45.76 175.31) rotate(-45)"/>
        <rect class="cls-15" x="118.47" y="72.62" width="57.44" height="57.44" transform="translate(-28.55 133.77) rotate(-45)"/>
        <rect class="cls-15" x="76.93" y="31.07" width="57.44" height="57.44" transform="translate(-11.34 92.22) rotate(-45)"/>
        <polygon class="cls-15" points="104.72 18.25 94.6 8.14 33.6 8.14 23.48 18.25 64.1 58.87 104.72 18.25"/>
        <polygon class="cls-15" points="31.74 8.14 13.37 8.14 22.56 17.32 31.74 8.14"/>
        <polygon class="cls-15" points="587.56 443.83 587.56 417.99 562.66 393.1 522.04 433.72 532.16 443.83 587.56 443.83"/>
        <rect class="cls-15" x="492.39" y="363.45" width="57.44" height="57.44" transform="translate(-124.68 483.34) rotate(-45)"/>
        <rect class="cls-15" x="450.85" y="321.9" width="57.44" height="57.44" transform="translate(-107.47 441.8) rotate(-45)"/>
        <rect class="cls-15" x="409.3" y="280.35" width="57.44" height="57.44" transform="translate(-90.26 400.25) rotate(-45)"/>
        <rect class="cls-15" x="367.75" y="238.81" width="57.44" height="57.44" transform="translate(-73.05 358.71) rotate(-45)"/>
        <rect class="cls-15" x="326.21" y="197.26" width="57.44" height="57.44" transform="translate(-55.84 317.16) rotate(-45)"/>
        <rect class="cls-15" x="284.66" y="155.71" width="57.44" height="57.44" transform="translate(-38.63 275.61) rotate(-45)"/>
        <rect class="cls-15" x="243.11" y="114.17" width="57.44" height="57.44" transform="translate(-21.42 234.07) rotate(-45)"/>
        <rect class="cls-15" x="201.57" y="72.62" width="57.44" height="57.44" transform="translate(-4.21 192.52) rotate(-45)"/>
        <rect class="cls-15" x="160.02" y="31.08" width="57.44" height="57.44" transform="translate(13 150.97) rotate(-45)"/>
        <polygon class="cls-15" points="187.81 18.25 177.7 8.14 116.69 8.14 106.58 18.25 147.2 58.87 187.81 18.25"/>
        <polygon class="cls-15" points="114.84 8.14 96.46 8.14 105.65 17.32 114.84 8.14"/>
        <polygon class="cls-15" points="587.56 416.14 587.56 368.2 563.59 392.17 587.56 416.14"/>
        <polygon class="cls-15" points="522.04 350.62 562.66 391.24 587.56 366.35 587.56 334.9 562.66 310.01 522.04 350.62"/>
        <rect class="cls-15" x="492.39" y="280.35" width="57.44" height="57.44" transform="translate(-65.92 459) rotate(-45)"/>
        <rect class="cls-15" x="450.85" y="238.81" width="57.44" height="57.44" transform="translate(-48.71 417.46) rotate(-45)"/>
        <rect class="cls-15" x="409.3" y="197.26" width="57.44" height="57.44" transform="translate(-31.5 375.92) rotate(-45)"/>
        <rect class="cls-15" x="367.75" y="155.71" width="57.44" height="57.44" transform="translate(-14.29 334.37) rotate(-45)"/>
        <rect class="cls-15" x="326.21" y="114.17" width="57.44" height="57.45" transform="translate(2.92 292.82) rotate(-45)"/>
        <rect class="cls-15" x="284.66" y="72.62" width="57.44" height="57.44" transform="translate(20.13 251.28) rotate(-45)"/>
        <rect class="cls-15" x="243.11" y="31.08" width="57.44" height="57.44" transform="translate(37.34 209.73) rotate(-45)"/>
        <polygon class="cls-15" points="270.91 18.25 260.79 8.14 199.79 8.14 189.67 18.25 230.29 58.87 270.91 18.25"/>
        <polygon class="cls-15" points="197.93 8.14 179.56 8.14 188.74 17.32 197.93 8.14"/>
        <polygon class="cls-15" points="587.56 333.04 587.56 285.11 563.59 309.08 587.56 333.04"/>
        <polygon class="cls-15" points="522.04 267.53 562.66 308.15 587.56 283.25 587.56 251.81 562.66 226.91 522.04 267.53"/>
        <rect class="cls-15" x="492.39" y="197.26" width="57.44" height="57.44" transform="translate(-7.16 434.68) rotate(-45)"/>
        <rect class="cls-15" x="450.85" y="155.71" width="57.44" height="57.44" transform="translate(10.04 393.12) rotate(-45)"/>
        <rect class="cls-15" x="409.3" y="114.17" width="57.44" height="57.44" transform="translate(27.25 351.58) rotate(-45)"/>
        <rect class="cls-15" x="367.75" y="72.62" width="57.44" height="57.44" transform="translate(44.47 310.04) rotate(-45)"/>
        <rect class="cls-15" x="326.21" y="31.07" width="57.44" height="57.44" transform="translate(61.67 268.48) rotate(-45)"/>
        <polygon class="cls-15" points="354 18.25 343.88 8.14 282.88 8.14 272.76 18.25 313.38 58.87 354 18.25"/>
        <polygon class="cls-15" points="281.02 8.14 262.65 8.14 271.84 17.32 281.02 8.14"/>
        <polygon class="cls-15" points="587.56 249.95 587.56 202.01 563.59 225.98 587.56 249.95"/>
        <polygon class="cls-15" points="522.04 184.44 562.66 225.06 587.56 200.16 587.56 168.72 562.66 143.82 522.04 184.44"/>
        <rect class="cls-15" x="492.39" y="114.17" width="57.44" height="57.44" transform="translate(51.6 410.34) rotate(-45)"/>
        <rect class="cls-15" x="450.85" y="72.62" width="57.44" height="57.44" transform="translate(68.8 368.79) rotate(-45)"/>
        <rect class="cls-15" x="409.3" y="31.08" width="57.44" height="57.44" transform="translate(86.01 327.24) rotate(-45)"/>
        <polygon class="cls-15" points="437.09 18.25 426.98 8.14 365.97 8.14 355.86 18.25 396.48 58.87 437.09 18.25"/>
        <polygon class="cls-15" points="364.12 8.14 345.74 8.14 354.93 17.32 364.12 8.14"/>
        <polygon class="cls-15" points="587.56 166.86 587.56 118.92 563.59 142.89 587.56 166.86"/>
        <polygon class="cls-15" points="522.04 101.34 562.66 141.96 587.56 117.07 587.56 85.62 562.66 60.73 522.04 101.34"/>
        <rect class="cls-15" x="492.39" y="31.08" width="57.44" height="57.44" transform="translate(110.36 386.01) rotate(-45)"/>
        <polygon class="cls-15" points="520.19 18.25 510.07 8.14 449.06 8.14 438.95 18.25 479.57 58.87 520.19 18.25"/>
        <polygon class="cls-15" points="447.21 8.14 428.84 8.14 438.02 17.32 447.21 8.14"/>
        <polygon class="cls-15" points="587.56 83.76 587.56 35.83 563.59 59.8 587.56 83.76"/>
        <polygon class="cls-15" points="587.56 33.97 587.56 8.14 532.16 8.14 522.04 18.25 562.66 58.87 587.56 33.97"/>
        <polygon class="cls-15" points="530.3 8.14 511.93 8.14 521.12 17.32 530.3 8.14"/>
      </g>
      <g id="tub">
        <path class="cls-22" d="m382.37,449.03c-1.8,0-3.25-1.58-3.25-3.54V6.59c0-1.95,1.46-3.54,3.25-3.54h198.13c1.8,0,3.25,1.58,3.25,3.54v438.9c0,1.96-1.46,3.54-3.25,3.54h-198.13Z"/>
        <g>
          <path class="cls-18" d="m389.32,435.37c-1.62,0-2.94-1.49-2.94-3.32V20.04c0-1.83,1.31-3.32,2.94-3.32h178.8c1.62,0,2.94,1.49,2.94,3.32v412.01c0,1.84-1.31,3.32-2.94,3.32h-178.8Z"/>
          <path class="cls-24" d="m384.55,432.05V20.04c0-2.84,2.14-5.15,4.76-5.15h178.8c2.63,0,4.76,2.31,4.76,5.15v412.01c0,2.84-2.14,5.15-4.76,5.15h-178.8c-2.63,0-4.76-2.31-4.76-5.15ZM569.23,20.04c0-.81-.51-1.49-1.11-1.49h-178.8c-.6,0-1.11.68-1.11,1.49v412.01c0,.81.51,1.5,1.11,1.5h178.8c.6,0,1.11-.69,1.11-1.5V20.04Z"/>
        </g>
        <path class="cls-3" d="m406.69,413.63c-1.67,0-3.02-1.52-3.02-3.4V44.48c0-1.88,1.35-3.4,3.02-3.4h144.06c1.66,0,3.01,1.52,3.01,3.4v365.75c0,1.88-1.35,3.4-3.01,3.4h-144.06Z"/>
        <path class="cls-24" d="m408.57,412.13c-1.62,0-2.94-1.51-2.94-3.37V45.95c0-1.86,1.32-3.37,2.94-3.37h140.3c1.62,0,2.94,1.51,2.94,3.37v362.81c0,1.86-1.32,3.37-2.94,3.37h-140.3Z"/>
        <g>
          <path class="cls-13" d="m551.58,410.07c.21-3.54-19.79-59.73-19.79-61.53l1.1-9.12-.65-276.32s18.63-17,19.21-18.78c.24.48.36,1.03.36,1.63v362.81c0,.46-.08.9-.22,1.3Z"/>
          <path class="cls-13" d="m406.03,410.07c-.21-3.54,19.79-59.73,19.79-61.53l-1.1-9.12.65-276.32s-18.62-17-19.21-18.78c-.24.48-.36,1.03-.36,1.63v362.81c0,.46.08.9.23,1.3Z"/>
        </g>
        <path class="cls-26" d="m427.49,349.17c-1.62,0-2.94-1.51-2.94-3.37V65.44c0-1.86,1.31-3.37,2.94-3.37h102.45c1.62,0,2.94,1.51,2.94,3.37v280.35c0,1.86-1.31,3.37-2.94,3.37h-102.45Z"/>
        <g>
          <g>
            <path class="cls-17" d="m478.13,76.21c-4.92,0-8.91,3.99-8.91,8.91s3.99,8.91,8.91,8.91,8.91-3.99,8.91-8.91-3.99-8.91-8.91-8.91Z"/>
            <path class="cls-11" d="m478.13,75.6c5.25,0,9.52,4.27,9.52,9.52s-4.27,9.52-9.52,9.52-9.52-4.27-9.52-9.52,4.27-9.52,9.52-9.52Zm0,1.22c-4.58,0-8.3,3.72-8.3,8.3s3.72,8.3,8.3,8.3,8.3-3.72,8.3-8.3-3.73-8.3-8.3-8.3Z"/>
          </g>
          <g>
            <path class="cls-13" d="m478.13,78.93c-3.42,0-6.2,2.78-6.2,6.2s2.78,6.2,6.2,6.2,6.2-2.78,6.2-6.2-2.78-6.2-6.2-6.2Z"/>
            <path class="cls-4" d="m478.13,78.32c3.75,0,6.81,3.05,6.81,6.81s-3.05,6.81-6.81,6.81-6.81-3.05-6.81-6.81,3.06-6.81,6.81-6.81Zm0,1.22c-3.08,0-5.59,2.51-5.59,5.59s2.51,5.59,5.59,5.59,5.59-2.51,5.59-5.59-2.51-5.59-5.59-5.59Z"/>
          </g>
          <path class="cls-4" d="m483.77,82.58h-11.28c.97-2.15,3.13-3.66,5.64-3.66s4.67,1.51,5.64,3.66Z"/>
        </g>
        <g>
          <path class="cls-6" d="m485.71,66.66c0,1.61-.95,2.92-2.11,2.92h-4.37c-1.17,0-2.11-1.31-2.11-2.92v-32.5c0-1.61.95-2.92,2.11-2.92h4.37c1.17,0,2.11,1.31,2.11,2.92v32.5Z"/>
          <path class="cls-27" d="m484.75,65.05c0,1.21-.68,2.19-1.53,2.19h-3.15c-.84,0-1.53-.98-1.53-2.19v-24.42c0-1.21.68-2.19,1.53-2.19h3.15c.84,0,1.53.98,1.53,2.19v24.42Z"/>
          <path class="cls-25" d="m483.56,65.05c0,1.21-.42,2.19-.94,2.19h-1.94c-.52,0-.94-.98-.94-2.19v-24.42c0-1.21.42-2.19.94-2.19h1.94c.52,0,.94.98.94,2.19v24.42Z"/>
          <g>
            <rect class="cls-19" x="486.34" y="27.58" width="2.71" height="15.28" transform="translate(170.33 407.19) rotate(-53.66)"/>
            <path class="cls-27" d="m493.04,41.97c-.23,0-.47-.07-.67-.22l-12.31-9.05c-.51-.37-.62-1.08-.24-1.59l1.6-2.18c.37-.51,1.08-.62,1.59-.24l12.31,9.05c.24.18.41.45.45.75.05.3-.03.6-.21.85l-1.6,2.18c-.22.3-.57.46-.92.46Zm-10.72-10.43l10.48,7.7.25-.35-10.48-7.7-.25.35Z"/>
          </g>
          <g>
            <path class="cls-19" d="m477.2,22.96h8.44c1.32,0,2.39,1.07,2.39,2.39v7.48c0,1.32-1.07,2.39-2.39,2.39h-8.44c-1.32,0-2.39-1.07-2.39-2.39v-7.48c0-1.32,1.07-2.39,2.39-2.39Z"/>
            <path class="cls-12" d="m488.02,28.38v-3.02c0-1.32-1.07-2.39-2.39-2.39h-8.44c-1.32,0-2.39,1.07-2.39,2.39v3.02h13.21Z"/>
            <path class="cls-27" d="m485.63,35.94h-8.44c-1.71,0-3.1-1.39-3.1-3.1v-7.48c0-1.71,1.39-3.1,3.1-3.1h8.44c1.71,0,3.1,1.39,3.1,3.1v7.48c0,1.71-1.39,3.1-3.1,3.1Zm-8.44-12.26c-.92,0-1.67.75-1.67,1.67v7.48c0,.92.75,1.67,1.67,1.67h8.44c.92,0,1.67-.75,1.67-1.67v-7.48c0-.92-.75-1.67-1.67-1.67h-8.44Z"/>
          </g>
        </g>
      </g>
      <g id="sink">
        <g>
          <path class="cls-22" d="m215.27,9.29h147.57c2.75,0,4.99,2.23,4.99,4.99v121.64c0,2.75-2.23,4.99-4.99,4.99h-147.57c-2.75,0-4.99-2.23-4.99-4.99V14.28c0-2.75,2.23-4.99,4.99-4.99Z"/>
          <g>
            <path class="cls-26" d="m219.74,13.29h138.61c2.58,0,4.68,2.1,4.68,4.68v114.26c0,2.58-2.1,4.68-4.68,4.68h-138.61c-2.59,0-4.68-2.1-4.68-4.68V17.97c0-2.58,2.1-4.68,4.68-4.68Z"/>
            <path class="cls-1" d="m358.35,137.62h-138.61c-2.97,0-5.39-2.42-5.39-5.39V17.97c0-2.97,2.42-5.39,5.39-5.39h138.61c2.97,0,5.39,2.42,5.39,5.39v114.26c0,2.97-2.41,5.39-5.39,5.39ZM219.75,13.99c-2.19,0-3.98,1.79-3.98,3.98v114.26c0,2.19,1.79,3.98,3.98,3.98h138.61c2.2,0,3.98-1.79,3.98-3.98V17.97c0-2.2-1.79-3.98-3.98-3.98h-138.61Z"/>
          </g>
          <g>
            <path class="cls-20" d="m232.62,48.41h112.86c2.58,0,4.68,2.1,4.68,4.68v68.84c0,2.58-2.1,4.68-4.68,4.68h-112.86c-2.58,0-4.68-2.1-4.68-4.68V53.09c0-2.58,2.1-4.68,4.68-4.68Z"/>
            <path class="cls-3" d="m345.48,127.31h-112.85c-2.97,0-5.38-2.42-5.38-5.38V53.09c0-2.97,2.42-5.39,5.38-5.39h112.85c2.97,0,5.39,2.42,5.39,5.39v68.84c0,2.97-2.42,5.38-5.39,5.38Zm-112.85-78.2c-2.2,0-3.98,1.79-3.98,3.98v68.84c0,2.19,1.79,3.98,3.98,3.98h112.85c2.2,0,3.98-1.78,3.98-3.98V53.09c0-2.19-1.79-3.98-3.98-3.98h-112.85Z"/>
          </g>
          <path class="cls-1" d="m348.05,120.28c0,2.46-2.02,4.46-4.52,4.46h-108.96c-2.5,0-4.52-2-4.52-4.46V54.74c0-2.46,2.03-4.46,4.52-4.46h108.96c2.5,0,4.52,2,4.52,4.46v65.54Z"/>
          <path class="cls-23" d="m341.03,118.77c0,2.35-1.78,4.25-3.98,4.25h-95.99c-2.2,0-3.98-1.9-3.98-4.25v-62.52c0-2.35,1.78-4.25,3.98-4.25h95.99c2.2,0,3.98,1.9,3.98,4.25v62.52Z"/>
          <path class="cls-2" d="m289.05,64.8c23.59,0,44.97-5.33,60.53-13.97-.8-1.44-2.33-2.42-4.1-2.42h-112.85c-1.76,0-3.3.98-4.1,2.42,15.56,8.64,36.93,13.97,60.52,13.97Z"/>
        </g>
        <g>
          <g>
            <path class="cls-17" d="m289.05,83.14c4.89,0,8.85,3.96,8.85,8.85s-3.96,8.85-8.85,8.85-8.85-3.96-8.85-8.85,3.96-8.85,8.85-8.85Z"/>
            <path class="cls-11" d="m298.59,91.99c0,5.26-4.28,9.54-9.54,9.54s-9.54-4.28-9.54-9.54,4.28-9.54,9.54-9.54,9.54,4.28,9.54,9.54Zm-17.69,0c0,4.5,3.66,8.15,8.15,8.15s8.15-3.66,8.15-8.15-3.66-8.15-8.15-8.15-8.15,3.66-8.15,8.15Z"/>
          </g>
          <g>
            <path class="cls-13" d="m289.05,85.83c3.4,0,6.16,2.76,6.16,6.15s-2.76,6.15-6.16,6.15-6.15-2.75-6.15-6.15,2.76-6.15,6.15-6.15Z"/>
            <path class="cls-4" d="m295.9,91.99c0,3.78-3.07,6.85-6.85,6.85s-6.85-3.07-6.85-6.85,3.07-6.85,6.85-6.85,6.85,3.07,6.85,6.85Zm-12.31,0c0,3.01,2.45,5.46,5.46,5.46s5.46-2.45,5.46-5.46-2.45-5.46-5.46-5.46-5.46,2.45-5.46,5.46Z"/>
          </g>
          <path class="cls-4" d="m283.45,89.46h11.2c-.96-2.14-3.1-3.63-5.6-3.63s-4.63,1.5-5.6,3.63Z"/>
        </g>
        <g>
          <path class="cls-6" d="m293.29,63.79c0,1.61-.95,2.92-2.11,2.92h-4.37c-1.17,0-2.11-1.31-2.11-2.92V31.29c0-1.61.95-2.92,2.11-2.92h4.37c1.17,0,2.11,1.31,2.11,2.92v32.5Z"/>
          <path class="cls-27" d="m292.33,62.18c0,1.21-.68,2.19-1.53,2.19h-3.15c-.84,0-1.53-.98-1.53-2.19v-24.42c0-1.21.69-2.19,1.53-2.19h3.15c.84,0,1.53.98,1.53,2.19v24.42Z"/>
          <path class="cls-25" d="m291.14,62.18c0,1.21-.42,2.19-.94,2.19h-1.94c-.52,0-.94-.98-.94-2.19v-24.42c0-1.21.42-2.19.94-2.19h1.94c.52,0,.94.98.94,2.19v24.42Z"/>
          <g>
            <rect class="cls-19" x="293.92" y="24.71" width="2.71" height="15.28" transform="translate(94.33 251.1) rotate(-53.68)"/>
            <path class="cls-27" d="m300.62,39.1c-.23,0-.47-.07-.67-.22l-12.31-9.05c-.51-.37-.61-1.08-.24-1.59l1.6-2.18c.37-.51,1.08-.62,1.59-.24l12.31,9.05c.24.18.41.45.45.75.05.3-.03.6-.21.85l-1.6,2.18c-.22.3-.57.46-.92.46Zm-10.72-10.43l10.48,7.7.25-.35-10.48-7.7-.25.35Z"/>
          </g>
          <g>
            <rect class="cls-19" x="282.39" y="20.09" width="13.21" height="12.26" rx="2.39" ry="2.39"/>
            <path class="cls-12" d="m295.6,25.5v-3.02c0-1.32-1.07-2.39-2.39-2.39h-8.44c-1.32,0-2.39,1.07-2.39,2.39v3.02h13.21Z"/>
            <path class="cls-27" d="m293.21,33.06h-8.44c-1.71,0-3.1-1.39-3.1-3.1v-7.48c0-1.71,1.39-3.1,3.1-3.1h8.44c1.71,0,3.1,1.39,3.1,3.1v7.48c0,1.71-1.39,3.1-3.1,3.1Zm-8.44-12.26c-.92,0-1.67.75-1.67,1.67v7.48c0,.92.75,1.67,1.67,1.67h8.44c.92,0,1.67-.75,1.67-1.67v-7.48c0-.92-.75-1.67-1.67-1.67h-8.44Z"/>
          </g>
        </g>
      </g>
      <g id="t-sink">
        <path class="cls-22" d="m189.89,247.36V94.41h0v-3.32h0v-25.23c6.1-2.94,9.39-5.12,9.39-5.12.99-.68,1.98-1.67,1.98-2.7V14.97c0-1.03-.88-1.87-1.98-1.87H41.19c-1.09,0-1.98.84-1.98,1.87v43.06c0,1.03.98,2.03,1.98,2.7,0,0,3.29,2.19,9.39,5.12v181.5c0,5.88,28.16,16.41,69.66,17.83,41.5-1.42,69.66-11.95,69.66-17.83Z"/>
        <g>
          <path class="cls-1" d="m120.23,237.1c38.38-1.51,64.42-12.72,64.42-18.97V55.37c0-.86-.82-1.56-1.83-1.56H57.64c-1.01,0-1.83.7-1.83,1.56v162.76c0,6.25,26.04,17.46,64.42,18.97Z"/>
          <path class="cls-17" d="m120.23,234.06c38.38-1.2,64.42-10.08,64.42-15.04V90c0-.68-.82-1.24-1.83-1.24H57.64c-1.01,0-1.83.55-1.83,1.24v129.02c0,4.96,26.04,13.84,64.42,15.04Z"/>
          <g>
            <path class="cls-24" d="m120.23,260.15c38.38-1.39,64.42-11.68,64.42-17.43V93.25c0-.79-.82-1.44-1.83-1.44H57.64c-1.01,0-1.83.64-1.83,1.44v149.48c0,5.74,26.04,16.04,64.42,17.43Z"/>
            <path class="cls-3" d="m120.23,254.58c35.84-1.29,60.15-10.91,60.15-16.27V98.72c0-.74-.76-1.34-1.71-1.34H61.78c-.94,0-1.71.6-1.71,1.34v139.59c0,5.36,24.32,14.98,60.16,16.27Z"/>
          </g>
          <g>
            <path class="cls-26" d="m47.13,60.33s28.27,19.94,73.1,19.94,73.1-19.94,73.1-19.94c.92-.66,1.83-1.63,1.83-2.64V15.61c0-1.01-.82-1.83-1.83-1.83H47.13c-1.01,0-1.83.82-1.83,1.83v42.08c0,1.01.91,1.98,1.83,2.64Z"/>
            <path class="cls-3" d="m50.69,58.99s26.9,17.92,69.54,17.92c42.65,0,69.54-17.92,69.54-17.92.87-.6,1.74-1.47,1.74-2.38V18.79c0-.91-.78-1.64-1.74-1.64H50.69c-.96,0-1.74.73-1.74,1.64v37.82c0,.91.86,1.78,1.74,2.38Z"/>
          </g>
        </g>
        <g>
          <path class="cls-17" d="m138.3,83.38h25.59c1.01,0,1.83.82,1.83,1.83v4.78c0,1.01-.82,1.83-1.83,1.83h-25.59c-1.01,0-1.83-.82-1.83-1.83v-4.78c0-1.01.82-1.83,1.83-1.83Z"/>
          <path class="cls-26" d="m140.43,84.08h21.33c.84,0,1.52.68,1.52,1.52v3.98c0,.84-.68,1.52-1.52,1.52h-21.32c-.84,0-1.52-.68-1.52-1.52v-3.98c0-.84.68-1.52,1.52-1.52Z"/>
        </g>
        <g>
          <path class="cls-17" d="m76.57,83.38h25.59c1.01,0,1.83.82,1.83,1.83v4.78c0,1.01-.82,1.83-1.83,1.83h-25.59c-1.01,0-1.83-.82-1.83-1.83v-4.78c0-1.01.82-1.83,1.83-1.83Z"/>
          <path class="cls-26" d="m78.7,84.08h21.33c.84,0,1.52.68,1.52,1.52v3.98c0,.84-.68,1.52-1.52,1.52h-21.33c-.84,0-1.52-.68-1.52-1.52v-3.98c0-.84.68-1.52,1.52-1.52Z"/>
        </g>
        <g>
          <g>
            <path class="cls-17" d="m120.23,50.21c-4.07,0-7.36-3.3-7.36-7.36s3.29-7.36,7.36-7.36,7.36,3.3,7.36,7.36-3.3,7.36-7.36,7.36Z"/>
            <path class="cls-11" d="m112.29,42.85c0-4.38,3.56-7.94,7.94-7.94s7.94,3.56,7.94,7.94-3.56,7.94-7.94,7.94-7.94-3.56-7.94-7.94Zm14.72,0c0-3.74-3.04-6.78-6.78-6.78s-6.78,3.04-6.78,6.78,3.05,6.78,6.78,6.78,6.78-3.04,6.78-6.78Z"/>
          </g>
          <g>
            <path class="cls-13" d="m120.23,47.97c-2.83,0-5.12-2.29-5.12-5.12s2.29-5.12,5.12-5.12,5.12,2.29,5.12,5.12-2.29,5.12-5.12,5.12Z"/>
            <path class="cls-4" d="m114.53,42.85c0-3.14,2.56-5.7,5.7-5.7s5.7,2.56,5.7,5.7-2.56,5.7-5.7,5.7-5.7-2.56-5.7-5.7Zm10.24,0c0-2.5-2.04-4.54-4.54-4.54s-4.54,2.04-4.54,4.54,2.04,4.54,4.54,4.54,4.54-2.04,4.54-4.54Z"/>
          </g>
          <path class="cls-4" d="m124.89,44.95h-9.32c.8,1.78,2.58,3.02,4.66,3.02s3.85-1.24,4.66-3.02Z"/>
        </g>
      </g>
      <g>
        <path class="cls-7" d="m224.79,418.47c-1.56,0-2.83-1.4-2.83-3.13v-248.44c0-1.73,1.27-3.13,2.83-3.13h142.23c1.56,0,2.82,1.4,2.82,3.13v248.44c0,1.73-1.26,3.13-2.82,3.13h-142.23Z"/>
        <g>
          <rect class="cls-16" x="221.96" y="176.93" width="147.88" height="10.16"/>
          <rect class="cls-16" x="221.96" y="197.25" width="147.88" height="10.16"/>
          <rect class="cls-16" x="221.96" y="217.57" width="147.88" height="10.16"/>
          <rect class="cls-16" x="221.96" y="237.89" width="147.88" height="10.16"/>
          <rect class="cls-16" x="221.96" y="258.21" width="147.88" height="10.16"/>
          <rect class="cls-16" x="221.96" y="278.53" width="147.88" height="10.16"/>
          <rect class="cls-16" x="221.96" y="298.85" width="147.88" height="10.16"/>
          <rect class="cls-16" x="221.96" y="319.17" width="147.88" height="10.16"/>
          <rect class="cls-16" x="221.96" y="339.49" width="147.88" height="10.16"/>
          <rect class="cls-16" x="221.96" y="359.81" width="147.88" height="10.16"/>
          <rect class="cls-16" x="221.96" y="380.13" width="147.88" height="10.16"/>
          <rect class="cls-16" x="221.96" y="400.45" width="147.88" height="10.16"/>
        </g>
      </g>
      <g id="t-paper">
        <path class="cls-17" d="m24.43,180.32h-12.64v-4.79h12.64c.32,0,.59-.21.59-.48v-43.16c0-.26-.27-.48-.59-.48h-13.22v-4.8h13.22c3.57,0,6.47,2.37,6.47,5.28v43.16c0,2.91-2.9,5.27-6.47,5.27Z"/>
        <path class="cls-14" d="m25.63,178.4h-10.29v-.96h10.29c1.32,0,2.4-1.08,2.4-2.4v-43.16c0-1.32-1.08-2.4-2.4-2.4h-10.77v-.96h10.77c1.85,0,3.36,1.51,3.36,3.36v43.16c0,1.85-1.51,3.36-3.36,3.36Z"/>
        <rect class="cls-3" x="16.9" y="138.45" width="23.22" height="30.79"/>
      </g>
      <g>
        <rect class="cls-10" x="8.19" y="402.76" width="7.53" height="4.15"/>
        <path class="cls-10" d="m15.73,406.9c-1.56,0-2.82-1.26-2.82-2.82v-19.26c0-1.56,1.26-2.82,2.82-2.82h0c1.56,0,2.82,1.26,2.82,2.82v19.26c0,1.56-1.26,2.82-2.82,2.82h0Z"/>
        <path class="cls-17" d="m15.73,406.9c-.65,0-1.17-1.21-1.17-2.71v-18.53c0-1.5.52-2.71,1.17-2.71h0c.65,0,1.17,1.21,1.17,2.71v18.53c0,1.5-.52,2.71-1.17,2.71h0Z"/>
      </g>
      <polygon class="cls-21" points="14.37 420.29 8.46 420.29 8.46 269.83 14.37 269.83 14.37 260.15 .02 260.15 .02 429.97 14.37 429.97 14.37 420.29"/>
      <polygon class="cls-5" points="587.56 0 0 0 0 264.55 14.46 264.55 14.46 14.46 573.09 14.46 573.09 437.5 14.46 437.5 14.46 424.85 0 424.85 0 451.97 587.56 451.97 587.56 0"/>
    </g>
  </g>
</svg>