<?xml version="1.0" encoding="UTF-8"?>
<svg xmlns="http://www.w3.org/2000/svg" viewBox="0 0 587.56 451.97">
  <defs>
    <style>
      .cls-1 {
        fill: #fff;
      }

      .cls-2 {
        fill: #9c9ea1;
      }

      .cls-3 {
        fill: #808184;
      }

      .cls-4 {
        fill: #a7a9ac;
      }

      .cls-5 {
        fill: #f5f5f5;
      }

      .cls-6 {
        fill: #e6e7e7;
      }

      .cls-7 {
        isolation: isolate;
      }

      .cls-8 {
        fill: #929497;
      }

      .cls-9 {
        fill: #c3c3c3;
      }

      .cls-10 {
        fill: #d7d8da;
      }

      .cls-11 {
        fill: #d0d2d3;
      }

      .cls-12 {
        fill: #7d7e80;
      }

      .cls-13 {
        fill: #b5b6b6;
      }

      .cls-14 {
        fill: #bbbdbf;
      }

      .cls-15, .cls-16 {
        fill: #eab880;
      }

      .cls-16 {
        mix-blend-mode: multiply;
        opacity: .3;
      }

      .cls-17 {
        fill: #999b9c;
      }

      .cls-18 {
        fill: #f2f2f2;
      }

      .cls-19 {
        fill: #afb1b2;
      }
    </style>
  </defs>
  <g class="cls-7">
    <g id="wall">
      <g id="tub">
        <path class="cls-16" d="m382.37,449.03c-1.8,0-3.25-1.58-3.25-3.54V6.59c0-1.95,1.46-3.54,3.25-3.54h198.13c1.8,0,3.25,1.58,3.25,3.54v438.9c0,1.96-1.46,3.54-3.25,3.54h-198.13Z"/>
        <g>
          <path class="cls-5" d="m389.32,435.37c-1.62,0-2.94-1.49-2.94-3.32V20.04c0-1.83,1.31-3.32,2.94-3.32h178.8c1.62,0,2.94,1.49,2.94,3.32v412.01c0,1.84-1.31,3.32-2.94,3.32h-178.8Z"/>
          <path class="cls-6" d="m384.55,432.05V20.04c0-2.84,2.14-5.15,4.76-5.15h178.8c2.63,0,4.76,2.31,4.76,5.15v412.01c0,2.84-2.14,5.15-4.76,5.15h-178.8c-2.63,0-4.76-2.31-4.76-5.15ZM569.23,20.04c0-.81-.51-1.49-1.11-1.49h-178.8c-.6,0-1.11.68-1.11,1.49v412.01c0,.81.51,1.5,1.11,1.5h178.8c.6,0,1.11-.69,1.11-1.5V20.04Z"/>
        </g>
        <path class="cls-1" d="m406.69,413.63c-1.67,0-3.02-1.52-3.02-3.4V44.48c0-1.88,1.35-3.4,3.02-3.4h144.06c1.66,0,3.01,1.52,3.01,3.4v365.75c0,1.88-1.35,3.4-3.01,3.4h-144.06Z"/>
        <path class="cls-6" d="m408.57,412.13c-1.62,0-2.94-1.51-2.94-3.37V45.95c0-1.86,1.32-3.37,2.94-3.37h140.3c1.62,0,2.94,1.51,2.94,3.37v362.81c0,1.86-1.32,3.37-2.94,3.37h-140.3Z"/>
        <g>
          <path class="cls-10" d="m551.58,410.07c.21-3.54-19.79-59.73-19.79-61.53l1.1-9.12-.65-276.32s18.63-17,19.21-18.78c.24.48.36,1.03.36,1.63v362.81c0,.46-.08.9-.22,1.3Z"/>
          <path class="cls-10" d="m406.03,410.07c-.21-3.54,19.79-59.73,19.79-61.53l-1.1-9.12.65-276.32s-18.62-17-19.21-18.78c-.24.48-.36,1.03-.36,1.63v362.81c0,.46.08.9.23,1.3Z"/>
        </g>
        <path class="cls-18" d="m427.49,349.17c-1.62,0-2.94-1.51-2.94-3.37V65.44c0-1.86,1.31-3.37,2.94-3.37h102.45c1.62,0,2.94,1.51,2.94,3.37v280.35c0,1.86-1.31,3.37-2.94,3.37h-102.45Z"/>
        <g>
          <g>
            <path class="cls-14" d="m478.13,76.21c-4.92,0-8.91,3.99-8.91,8.91s3.99,8.91,8.91,8.91,8.91-3.99,8.91-8.91-3.99-8.91-8.91-8.91Z"/>
            <path class="cls-4" d="m478.13,75.6c5.25,0,9.52,4.27,9.52,9.52s-4.27,9.52-9.52,9.52-9.52-4.27-9.52-9.52,4.27-9.52,9.52-9.52Zm0,1.22c-4.58,0-8.3,3.72-8.3,8.3s3.72,8.3,8.3,8.3,8.3-3.72,8.3-8.3-3.73-8.3-8.3-8.3Z"/>
          </g>
          <g>
            <path class="cls-10" d="m478.13,78.93c-3.42,0-6.2,2.78-6.2,6.2s2.78,6.2,6.2,6.2,6.2-2.78,6.2-6.2-2.78-6.2-6.2-6.2Z"/>
            <path class="cls-2" d="m478.13,78.32c3.75,0,6.81,3.05,6.81,6.81s-3.05,6.81-6.81,6.81-6.81-3.05-6.81-6.81,3.06-6.81,6.81-6.81Zm0,1.22c-3.08,0-5.59,2.51-5.59,5.59s2.51,5.59,5.59,5.59,5.59-2.51,5.59-5.59-2.51-5.59-5.59-5.59Z"/>
          </g>
          <path class="cls-2" d="m483.77,82.58h-11.28c.97-2.15,3.13-3.66,5.64-3.66s4.67,1.51,5.64,3.66Z"/>
        </g>
        <g>
          <path class="cls-12" d="m485.71,66.66c0,1.61-.95,2.92-2.11,2.92h-4.37c-1.17,0-2.11-1.31-2.11-2.92v-32.5c0-1.61.95-2.92,2.11-2.92h4.37c1.17,0,2.11,1.31,2.11,2.92v32.5Z"/>
          <path class="cls-17" d="m484.75,65.05c0,1.21-.68,2.19-1.53,2.19h-3.15c-.84,0-1.53-.98-1.53-2.19v-24.42c0-1.21.68-2.19,1.53-2.19h3.15c.84,0,1.53.98,1.53,2.19v24.42Z"/>
          <path class="cls-13" d="m483.56,65.05c0,1.21-.42,2.19-.94,2.19h-1.94c-.52,0-.94-.98-.94-2.19v-24.42c0-1.21.42-2.19.94-2.19h1.94c.52,0,.94.98.94,2.19v24.42Z"/>
          <g>
            <rect class="cls-19" x="486.34" y="27.58" width="2.71" height="15.28" transform="translate(170.33 407.19) rotate(-53.66)"/>
            <path class="cls-17" d="m493.04,41.97c-.23,0-.47-.07-.67-.22l-12.31-9.05c-.51-.37-.62-1.08-.24-1.59l1.6-2.18c.37-.51,1.08-.62,1.59-.24l12.31,9.05c.24.18.41.45.45.75.05.3-.03.6-.21.85l-1.6,2.18c-.22.3-.57.46-.92.46Zm-10.72-10.43l10.48,7.7.25-.35-10.48-7.7-.25.35Z"/>
          </g>
          <g>
            <path class="cls-19" d="m477.2,22.96h8.44c1.32,0,2.39,1.07,2.39,2.39v7.48c0,1.32-1.07,2.39-2.39,2.39h-8.44c-1.32,0-2.39-1.07-2.39-2.39v-7.48c0-1.32,1.07-2.39,2.39-2.39Z"/>
            <path class="cls-9" d="m488.02,28.38v-3.02c0-1.32-1.07-2.39-2.39-2.39h-8.44c-1.32,0-2.39,1.07-2.39,2.39v3.02h13.21Z"/>
            <path class="cls-17" d="m485.63,35.94h-8.44c-1.71,0-3.1-1.39-3.1-3.1v-7.48c0-1.71,1.39-3.1,3.1-3.1h8.44c1.71,0,3.1,1.39,3.1,3.1v7.48c0,1.71-1.39,3.1-3.1,3.1Zm-8.44-12.26c-.92,0-1.67.75-1.67,1.67v7.48c0,.92.75,1.67,1.67,1.67h8.44c.92,0,1.67-.75,1.67-1.67v-7.48c0-.92-.75-1.67-1.67-1.67h-8.44Z"/>
          </g>
        </g>
      </g>
      <polygon class="cls-3" points="587.56 0 0 0 0 264.55 14.46 264.55 14.46 14.46 573.09 14.46 573.09 437.5 14.46 437.5 14.46 424.85 0 424.85 0 451.97 587.56 451.97 587.56 0"/>
      <g id="t-paper">
        <path class="cls-14" d="m27.23,181.73h-12.64v-4.79h12.64c.32,0,.59-.21.59-.48v-43.16c0-.26-.27-.48-.59-.48h-13.22v-4.8h13.22c3.57,0,6.47,2.37,6.47,5.28v43.16c0,2.91-2.9,5.27-6.47,5.27Z"/>
        <path class="cls-11" d="m28.43,179.81h-10.29v-.96h10.29c1.32,0,2.4-1.08,2.4-2.4v-43.16c0-1.32-1.08-2.4-2.4-2.4h-10.77v-.96h10.77c1.85,0,3.36,1.51,3.36,3.36v43.16c0,1.85-1.51,3.36-3.36,3.36Z"/>
        <rect class="cls-1" x="19.7" y="139.86" width="23.22" height="30.79"/>
      </g>
      <g>
        <rect class="cls-8" x="10.99" y="404.16" width="7.53" height="4.15"/>
        <path class="cls-8" d="m18.53,408.31c-1.56,0-2.82-1.26-2.82-2.82v-19.26c0-1.56,1.26-2.82,2.82-2.82h0c1.56,0,2.82,1.26,2.82,2.82v19.26c0,1.56-1.26,2.82-2.82,2.82h0Z"/>
        <path class="cls-14" d="m18.53,408.31c-.65,0-1.17-1.21-1.17-2.71v-18.53c0-1.5.52-2.71,1.17-2.71h0c.65,0,1.17,1.21,1.17,2.71v18.53c0,1.5-.52,2.71-1.17,2.71h0Z"/>
      </g>
      <polygon class="cls-15" points="14.35 421.7 8.44 421.7 8.44 271.24 14.35 271.24 14.35 261.56 0 261.56 0 431.38 14.35 431.38 14.35 421.7"/>
    </g>
  </g>
</svg>