<?xml version="1.0" encoding="UTF-8"?>
<svg xmlns="http://www.w3.org/2000/svg" viewBox="0 0 204.64 445.98">
  <defs>
    <style>
      .cls-1 {
        fill: #fff;
      }

      .cls-2 {
        fill: #9c9ea1;
      }

      .cls-3 {
        fill: #a7a9ac;
      }

      .cls-4 {
        fill: #f5f5f5;
      }

      .cls-5 {
        fill: #e6e7e7;
      }

      .cls-6 {
        isolation: isolate;
      }

      .cls-7 {
        fill: #c3c3c3;
      }

      .cls-8 {
        fill: #d7d8da;
      }

      .cls-9 {
        fill: #7d7e80;
      }

      .cls-10 {
        fill: #b5b6b6;
      }

      .cls-11 {
        fill: #bbbdbf;
      }

      .cls-12 {
        fill: #eab880;
        mix-blend-mode: multiply;
        opacity: .3;
      }

      .cls-13 {
        fill: #999b9c;
      }

      .cls-14 {
        fill: #f2f2f2;
      }

      .cls-15 {
        fill: #afb1b2;
      }
    </style>
  </defs>
  <g class="cls-6">
    <g id="wall">
      <g id="tub">
        <path class="cls-12" d="m3.25,445.98c-1.8,0-3.25-1.58-3.25-3.54V3.54C0,1.58,1.46,0,3.25,0h198.13c1.8,0,3.25,1.58,3.25,3.54v438.9c0,1.96-1.46,3.54-3.25,3.54H3.25Z"/>
        <g>
          <path class="cls-4" d="m10.21,432.32c-1.62,0-2.94-1.49-2.94-3.32V16.98c0-1.83,1.31-3.32,2.94-3.32h178.8c1.62,0,2.94,1.49,2.94,3.32v412.01c0,1.84-1.31,3.32-2.94,3.32H10.21Z"/>
          <path class="cls-5" d="m5.44,428.99V16.98c0-2.84,2.14-5.15,4.76-5.15h178.8c2.63,0,4.76,2.31,4.76,5.15v412.01c0,2.84-2.14,5.15-4.76,5.15H10.21c-2.63,0-4.76-2.31-4.76-5.15ZM190.12,16.98c0-.81-.51-1.49-1.11-1.49H10.21c-.6,0-1.11.68-1.11,1.49v412.01c0,.81.51,1.5,1.11,1.5h178.8c.6,0,1.11-.69,1.11-1.5V16.98Z"/>
        </g>
        <path class="cls-1" d="m27.58,410.58c-1.67,0-3.02-1.52-3.02-3.4V41.42c0-1.88,1.35-3.4,3.02-3.4h144.06c1.66,0,3.01,1.52,3.01,3.4v365.75c0,1.88-1.35,3.4-3.01,3.4H27.58Z"/>
        <path class="cls-5" d="m29.46,409.08c-1.62,0-2.94-1.51-2.94-3.37V42.89c0-1.86,1.32-3.37,2.94-3.37h140.3c1.62,0,2.94,1.51,2.94,3.37v362.81c0,1.86-1.32,3.37-2.94,3.37H29.46Z"/>
        <g>
          <path class="cls-8" d="m172.47,407.01c.21-3.54-19.79-59.73-19.79-61.53l1.1-9.12-.65-276.32s18.63-17,19.21-18.78c.24.48.36,1.03.36,1.63v362.81c0,.46-.08.9-.22,1.3Z"/>
          <path class="cls-8" d="m26.91,407.01c-.21-3.54,19.79-59.73,19.79-61.53l-1.1-9.12.65-276.32s-18.62-17-19.21-18.78c-.24.48-.36,1.03-.36,1.63v362.81c0,.46.08.9.23,1.3Z"/>
        </g>
        <path class="cls-14" d="m48.38,346.11c-1.62,0-2.94-1.51-2.94-3.37V62.38c0-1.86,1.31-3.37,2.94-3.37h102.45c1.62,0,2.94,1.51,2.94,3.37v280.35c0,1.86-1.31,3.37-2.94,3.37H48.38Z"/>
        <g>
          <g>
            <path class="cls-11" d="m99.02,73.16c-4.92,0-8.91,3.99-8.91,8.91s3.99,8.91,8.91,8.91,8.91-3.99,8.91-8.91-3.99-8.91-8.91-8.91Z"/>
            <path class="cls-3" d="m99.02,72.55c5.25,0,9.52,4.27,9.52,9.52s-4.27,9.52-9.52,9.52-9.52-4.27-9.52-9.52,4.27-9.52,9.52-9.52Zm0,1.22c-4.58,0-8.3,3.72-8.3,8.3s3.72,8.3,8.3,8.3,8.3-3.72,8.3-8.3-3.73-8.3-8.3-8.3Z"/>
          </g>
          <g>
            <path class="cls-8" d="m99.02,75.87c-3.42,0-6.2,2.78-6.2,6.2s2.78,6.2,6.2,6.2,6.2-2.78,6.2-6.2-2.78-6.2-6.2-6.2Z"/>
            <path class="cls-2" d="m99.02,75.26c3.75,0,6.81,3.05,6.81,6.81s-3.05,6.81-6.81,6.81-6.81-3.05-6.81-6.81,3.06-6.81,6.81-6.81Zm0,1.22c-3.08,0-5.59,2.51-5.59,5.59s2.51,5.59,5.59,5.59,5.59-2.51,5.59-5.59-2.51-5.59-5.59-5.59Z"/>
          </g>
          <path class="cls-2" d="m104.66,79.53h-11.28c.97-2.15,3.13-3.66,5.64-3.66s4.67,1.51,5.64,3.66Z"/>
        </g>
        <g>
          <path class="cls-9" d="m106.6,63.6c0,1.61-.95,2.92-2.11,2.92h-4.37c-1.17,0-2.11-1.31-2.11-2.92V31.1c0-1.61.95-2.92,2.11-2.92h4.37c1.17,0,2.11,1.31,2.11,2.92v32.5Z"/>
          <path class="cls-13" d="m105.64,61.99c0,1.21-.68,2.19-1.53,2.19h-3.15c-.84,0-1.53-.98-1.53-2.19v-24.42c0-1.21.68-2.19,1.53-2.19h3.15c.84,0,1.53.98,1.53,2.19v24.42Z"/>
          <path class="cls-10" d="m104.45,61.99c0,1.21-.42,2.19-.94,2.19h-1.94c-.52,0-.94-.98-.94-2.19v-24.42c0-1.21.42-2.19.94-2.19h1.94c.52,0,.94.98.94,2.19v24.42Z"/>
          <g>
            <rect class="cls-15" x="107.22" y="24.52" width="2.71" height="15.28" transform="translate(18.33 100.56) rotate(-53.66)"/>
            <path class="cls-13" d="m113.93,38.91c-.23,0-.47-.07-.67-.22l-12.31-9.05c-.51-.37-.62-1.08-.24-1.59l1.6-2.18c.37-.51,1.08-.62,1.59-.24l12.31,9.05c.24.18.41.45.45.75.05.3-.03.6-.21.85l-1.6,2.18c-.22.3-.57.46-.92.46Zm-10.72-10.43l10.48,7.7.25-.35-10.48-7.7-.25.35Z"/>
          </g>
          <g>
            <path class="cls-15" d="m98.08,19.91h8.44c1.32,0,2.39,1.07,2.39,2.39v7.48c0,1.32-1.07,2.39-2.39,2.39h-8.44c-1.32,0-2.39-1.07-2.39-2.39v-7.48c0-1.32,1.07-2.39,2.39-2.39Z"/>
            <path class="cls-7" d="m108.91,25.32v-3.02c0-1.32-1.07-2.39-2.39-2.39h-8.44c-1.32,0-2.39,1.07-2.39,2.39v3.02h13.21Z"/>
            <path class="cls-13" d="m106.52,32.88h-8.44c-1.71,0-3.1-1.39-3.1-3.1v-7.48c0-1.71,1.39-3.1,3.1-3.1h8.44c1.71,0,3.1,1.39,3.1,3.1v7.48c0,1.71-1.39,3.1-3.1,3.1Zm-8.44-12.26c-.92,0-1.67.75-1.67,1.67v7.48c0,.92.75,1.67,1.67,1.67h8.44c.92,0,1.67-.75,1.67-1.67v-7.48c0-.92-.75-1.67-1.67-1.67h-8.44Z"/>
          </g>
        </g>
      </g>
    </g>
  </g>
</svg>