<?xml version="1.0" encoding="UTF-8"?>
<svg xmlns="http://www.w3.org/2000/svg" xmlns:xlink="http://www.w3.org/1999/xlink" viewBox="0 0 1078.18 208.44">
  <defs>
    <style>
      .cls-1 {
        fill: #f7db88;
      }

      .cls-2 {
        fill: #ddd;
      }

      .cls-3 {
        fill: #e9e9e9;
      }

      .cls-4 {
        fill: url(#linear-gradient-2);
      }

      .cls-5 {
        fill: #f0f0f0;
      }

      .cls-6 {
        fill: #f4f4f4;
      }

      .cls-7 {
        fill: #fff;
      }

      .cls-8 {
        fill: #cbcbcb;
      }

      .cls-9 {
        fill: url(#linear-gradient-4);
      }

      .cls-9, .cls-10, .cls-11, .cls-12, .cls-13 {
        stroke: #9d9d9c;
        stroke-miterlimit: 10;
        stroke-width: .03px;
      }

      .cls-14 {
        fill: #d1d1d1;
      }

      .cls-15 {
        fill: #fafafa;
      }

      .cls-16 {
        fill: #dbdbdb;
      }

      .cls-17 {
        fill: #a7a9ac;
      }

      .cls-18 {
        fill: #ff564a;
      }

      .cls-18, .cls-19 {
        mix-blend-mode: multiply;
      }

      .cls-20 {
        fill: #cacaca;
      }

      .cls-21 {
        fill: #d8d8d8;
      }

      .cls-22 {
        fill: #f6f6f6;
      }

      .cls-23 {
        fill: #bfbfbf;
      }

      .cls-24 {
        fill: url(#linear-gradient-15);
      }

      .cls-10 {
        fill: url(#linear-gradient-3);
      }

      .cls-25 {
        fill: #e2e2e2;
      }

      .cls-26 {
        fill: #f5f5f5;
      }

      .cls-27 {
        fill: url(#linear-gradient-14);
      }

      .cls-28 {
        fill: #b2b2b2;
      }

      .cls-29 {
        isolation: isolate;
      }

      .cls-30 {
        fill: #c9c9c8;
      }

      .cls-31 {
        fill: #d6d6d6;
      }

      .cls-32 {
        fill: #909090;
      }

      .cls-33 {
        fill: #c9c9c9;
      }

      .cls-34 {
        fill: #acacab;
      }

      .cls-35 {
        fill: #e0e0e0;
      }

      .cls-36 {
        fill: url(#linear-gradient-11);
      }

      .cls-37 {
        fill: #c7c7c7;
      }

      .cls-38 {
        fill: #dedede;
      }

      .cls-39 {
        fill: #b3b3b2;
      }

      .cls-40 {
        fill: #cfcfcf;
      }

      .cls-41 {
        fill: #d7d7d7;
      }

      .cls-42 {
        fill: url(#linear-gradient-10);
      }

      .cls-43 {
        fill: #9d9d9c;
      }

      .cls-44 {
        fill: #e1e1e1;
      }

      .cls-45 {
        fill: #e6e6e6;
      }

      .cls-46 {
        fill: #e7e7e7;
      }

      .cls-47 {
        fill: #d4d4d4;
      }

      .cls-48 {
        fill: #dadada;
      }

      .cls-49 {
        fill: #eaeaea;
      }

      .cls-50 {
        fill: #c8c8c8;
      }

      .cls-51 {
        fill: #fdfdfd;
      }

      .cls-52 {
        fill: #a4a4a3;
      }

      .cls-53 {
        fill: #e4e4e4;
      }

      .cls-54 {
        fill: #fbfbfb;
      }

      .cls-55 {
        fill: #a3a3a3;
      }

      .cls-56 {
        fill: #babab9;
      }

      .cls-57 {
        fill: #f9f9f9;
      }

      .cls-58 {
        fill: #8f8f8e;
      }

      .cls-59 {
        fill: #72a6bf;
      }

      .cls-60 {
        fill: #e5e5e5;
      }

      .cls-61 {
        fill: url(#linear-gradient-5);
      }

      .cls-62 {
        fill: #d16660;
      }

      .cls-63 {
        fill: #878787;
      }

      .cls-64 {
        fill: #d3d3d3;
      }

      .cls-65 {
        fill: #ebebeb;
      }

      .cls-66 {
        fill: #d5d5d5;
      }

      .cls-67 {
        fill: #dcdcdc;
      }

      .cls-68 {
        fill: #c1c1c1;
      }

      .cls-69 {
        fill: #e8e8e8;
      }

      .cls-70 {
        fill: url(#linear-gradient-7);
      }

      .cls-71 {
        fill: #ccc;
      }

      .cls-72 {
        fill: #f7f7f7;
      }

      .cls-73 {
        fill: #efefef;
      }

      .cls-74 {
        fill: #d1d3d4;
      }

      .cls-75 {
        fill: #9a9a9a;
      }

      .cls-76 {
        fill: url(#linear-gradient-9);
      }

      .cls-77 {
        fill: #f1f1f1;
      }

      .cls-78 {
        fill: #cecece;
      }

      .cls-79 {
        fill: #f3f3f3;
      }

      .cls-11, .cls-80 {
        fill: #ededed;
      }

      .cls-12 {
        fill: url(#linear-gradient);
      }

      .cls-81 {
        fill: #acacac;
      }

      .cls-82 {
        fill: #b5b5b5;
      }

      .cls-83 {
        fill: #d9d9d9;
      }

      .cls-13 {
        fill: url(#linear-gradient-6);
      }

      .cls-84 {
        fill: #cdcdcd;
      }

      .cls-85 {
        fill: #f8f8f8;
      }

      .cls-86 {
        fill: #d2d2d2;
      }

      .cls-87 {
        fill: #c6c6c6;
      }

      .cls-88 {
        fill: #eee;
      }

      .cls-89 {
        fill: #d0d0d0;
      }

      .cls-90 {
        fill: #ececec;
      }

      .cls-91 {
        fill: #f2f2f2;
      }

      .cls-92 {
        fill: url(#linear-gradient-8);
      }

      .cls-93 {
        fill: #fefefe;
      }

      .cls-94 {
        fill: url(#linear-gradient-12);
      }

      .cls-95 {
        fill: url(#linear-gradient-13);
      }

      .cls-96 {
        fill: #e3e3e3;
      }

      .cls-97 {
        fill: #fcfcfc;
      }

      .cls-98 {
        fill: #dfdfdf;
      }
    </style>
    <linearGradient id="linear-gradient" x1="1952.79" y1="86.92" x2="2246.26" y2="86.92" gradientTransform="translate(2501.93) rotate(-180) scale(1 -1)" gradientUnits="userSpaceOnUse">
      <stop offset="0" stop-color="#e6e6e6"/>
      <stop offset="1" stop-color="#c9c9c9"/>
    </linearGradient>
    <linearGradient id="linear-gradient-2" x1="549.14" y1="177.44" x2="255.68" y2="177.44" gradientUnits="userSpaceOnUse">
      <stop offset="0" stop-color="#c7c7c7"/>
      <stop offset="1" stop-color="#b3b3b3"/>
    </linearGradient>
    <linearGradient id="linear-gradient-3" x1="1959.48" y1="86.92" x2="2239.57" y2="86.92" gradientTransform="translate(2501.93) rotate(-180) scale(1 -1)" gradientUnits="userSpaceOnUse">
      <stop offset="0" stop-color="#fff"/>
      <stop offset="1" stop-color="#d6d6d6"/>
    </linearGradient>
    <linearGradient id="linear-gradient-4" x1="1424.29" y1="88.37" x2="1537.26" y2="88.37" xlink:href="#linear-gradient"/>
    <linearGradient id="linear-gradient-5" x1="1077.64" y1="178.47" x2="964.67" y2="178.47" xlink:href="#linear-gradient-2"/>
    <linearGradient id="linear-gradient-6" x1="1430.98" y1="88.37" x2="1530.58" y2="88.37" xlink:href="#linear-gradient-3"/>
    <linearGradient id="linear-gradient-7" x1="890.7" y1="177.24" x2="613.61" y2="177.24" xlink:href="#linear-gradient-2"/>
    <linearGradient id="linear-gradient-8" x1="638.13" y1="95.14" x2="727.85" y2="95.14" gradientTransform="matrix(1, 0, 0, 1, 0, 0)" xlink:href="#linear-gradient-3"/>
    <linearGradient id="linear-gradient-9" x1="650.39" y1="77.92" x2="691.94" y2="77.92" gradientTransform="translate(18.96 148.24) rotate(-17.62)" gradientUnits="userSpaceOnUse">
      <stop offset="0" stop-color="#bfbfbe"/>
      <stop offset=".57" stop-color="#fff"/>
      <stop offset="1" stop-color="#c9c9c8"/>
    </linearGradient>
    <linearGradient id="linear-gradient-10" x1="670.04" y1="143.92" x2="670.04" y2="75.38" xlink:href="#linear-gradient-9"/>
    <linearGradient id="linear-gradient-11" x1="776.46" y1="95.14" x2="866.18" y2="95.14" gradientTransform="matrix(1, 0, 0, 1, 0, 0)" xlink:href="#linear-gradient-3"/>
    <linearGradient id="linear-gradient-12" x1="906.08" y1="575.74" x2="949.33" y2="575.74" gradientTransform="translate(469.2 -1012.1) rotate(39.2)" xlink:href="#linear-gradient-9"/>
    <linearGradient id="linear-gradient-13" x1="929.53" y1="639.33" x2="929.53" y2="573.28" gradientTransform="translate(469.2 -1012.1) rotate(39.2)" xlink:href="#linear-gradient-9"/>
    <linearGradient id="linear-gradient-14" x1="2134.74" y1="-114.93" x2="2275.57" y2="-114.93" gradientTransform="translate(2318.54 -15.32) rotate(-180)" xlink:href="#linear-gradient-3"/>
    <linearGradient id="linear-gradient-15" x1="2134.28" y1="-114.93" x2="2276.04" y2="-114.93" gradientTransform="translate(2318.54 -15.32) rotate(-180)" xlink:href="#linear-gradient-3"/>
  </defs>
  <g class="cls-29">
    <g id="Layer_1" data-name="Layer 1">
      <g class="cls-19">
        <polygon class="cls-7" points="215.66 180.81 215.66 198.56 509.12 198.56 509.12 180.81 509.12 17.53 215.66 17.53 215.66 180.81"/>
        <polygon class="cls-93" points="216.35 180.6 216.35 198.35 509.81 198.35 509.81 180.6 509.81 17.32 216.35 17.32 216.35 180.6"/>
        <polygon class="cls-51" points="217.04 180.39 217.04 198.13 510.5 198.13 510.5 180.39 510.5 17.1 217.04 17.1 217.04 180.39"/>
        <polygon class="cls-97" points="217.73 180.18 217.73 197.92 511.19 197.92 511.19 180.18 511.19 16.89 217.73 16.89 217.73 180.18"/>
        <polygon class="cls-54" points="218.42 179.96 218.42 197.71 511.88 197.71 511.88 179.96 511.88 16.68 218.42 16.68 218.42 179.96"/>
        <polygon class="cls-15" points="219.11 179.75 219.11 197.5 512.57 197.5 512.57 179.75 512.57 16.47 219.11 16.47 219.11 179.75"/>
        <polygon class="cls-57" points="219.8 179.54 219.8 197.29 513.26 197.29 513.26 179.54 513.26 16.26 219.8 16.26 219.8 179.54"/>
        <polygon class="cls-85" points="220.49 179.33 220.49 197.08 513.95 197.08 513.95 179.33 513.95 16.05 220.49 16.05 220.49 179.33"/>
        <polygon class="cls-72" points="221.18 179.12 221.18 196.87 514.64 196.87 514.64 179.12 514.64 15.84 221.18 15.84 221.18 179.12"/>
        <polygon class="cls-22" points="221.87 178.91 221.87 196.66 515.33 196.66 515.33 178.91 515.33 15.63 221.87 15.63 221.87 178.91"/>
        <polygon class="cls-26" points="222.56 178.7 222.56 196.45 516.02 196.45 516.02 178.7 516.02 15.41 222.56 15.41 222.56 178.7"/>
        <polygon class="cls-6" points="223.25 178.49 223.25 196.23 516.71 196.23 516.71 178.49 516.71 15.2 223.25 15.2 223.25 178.49"/>
        <polygon class="cls-79" points="223.94 178.28 223.94 196.02 517.4 196.02 517.4 178.28 517.4 14.99 223.94 14.99 223.94 178.28"/>
        <polygon class="cls-91" points="224.63 178.06 224.63 195.81 518.09 195.81 518.09 178.06 518.09 14.78 224.63 14.78 224.63 178.06"/>
        <polygon class="cls-77" points="225.32 177.85 225.32 195.6 518.78 195.6 518.78 177.85 518.78 14.57 225.32 14.57 225.32 177.85"/>
        <polygon class="cls-5" points="226.01 177.64 226.01 195.39 519.47 195.39 519.47 177.64 519.47 14.36 226.01 14.36 226.01 177.64"/>
        <polygon class="cls-73" points="226.7 177.43 226.7 195.18 520.16 195.18 520.16 177.43 520.16 14.15 226.7 14.15 226.7 177.43"/>
        <polygon class="cls-88" points="227.39 177.22 227.39 194.97 520.85 194.97 520.85 177.22 520.85 13.94 227.39 13.94 227.39 177.22"/>
        <polygon class="cls-80" points="228.08 177.01 228.08 194.76 521.54 194.76 521.54 177.01 521.54 13.73 228.08 13.73 228.08 177.01"/>
        <polygon class="cls-90" points="228.77 176.8 228.77 194.55 522.23 194.55 522.23 176.8 522.23 13.51 228.77 13.51 228.77 176.8"/>
        <polygon class="cls-65" points="229.46 176.59 229.46 194.33 522.92 194.33 522.92 176.59 522.92 13.3 229.46 13.3 229.46 176.59"/>
        <polygon class="cls-49" points="230.15 176.38 230.15 194.12 523.61 194.12 523.61 176.38 523.61 13.09 230.15 13.09 230.15 176.38"/>
        <polygon class="cls-3" points="230.84 176.16 230.84 193.91 524.3 193.91 524.3 176.16 524.3 12.88 230.84 12.88 230.84 176.16"/>
        <polygon class="cls-69" points="231.53 175.95 231.53 193.7 524.99 193.7 524.99 175.95 524.99 12.67 231.53 12.67 231.53 175.95"/>
        <polygon class="cls-46" points="232.22 175.74 232.22 193.49 525.68 193.49 525.68 175.74 525.68 12.46 232.22 12.46 232.22 175.74"/>
        <polygon class="cls-45" points="232.91 175.53 232.91 193.28 526.37 193.28 526.37 175.53 526.37 12.25 232.91 12.25 232.91 175.53"/>
        <polygon class="cls-60" points="233.6 175.32 233.6 193.07 527.06 193.07 527.06 175.32 527.06 12.04 233.6 12.04 233.6 175.32"/>
        <polygon class="cls-53" points="234.29 175.11 234.29 192.86 527.75 192.86 527.75 175.11 527.75 11.82 234.29 11.82 234.29 175.11"/>
        <polygon class="cls-96" points="234.98 174.9 234.98 192.65 528.44 192.65 528.44 174.9 528.44 11.61 234.98 11.61 234.98 174.9"/>
        <polygon class="cls-25" points="235.67 174.69 235.67 192.43 529.13 192.43 529.13 174.69 529.13 11.4 235.67 11.4 235.67 174.69"/>
        <polygon class="cls-25" points="236.36 174.48 236.36 192.22 529.82 192.22 529.82 174.48 529.82 11.19 236.36 11.19 236.36 174.48"/>
        <polygon class="cls-44" points="237.05 174.26 237.05 192.01 530.51 192.01 530.51 174.26 530.51 10.98 237.05 10.98 237.05 174.26"/>
        <polygon class="cls-35" points="237.74 174.05 237.74 191.8 531.2 191.8 531.2 174.05 531.2 10.77 237.74 10.77 237.74 174.05"/>
        <polygon class="cls-98" points="238.43 173.84 238.43 191.59 531.89 191.59 531.89 173.84 531.89 10.56 238.43 10.56 238.43 173.84"/>
        <polygon class="cls-38" points="239.12 173.63 239.12 191.38 532.58 191.38 532.58 173.63 532.58 10.35 239.12 10.35 239.12 173.63"/>
        <polygon class="cls-2" points="239.81 173.42 239.81 191.17 533.27 191.17 533.27 173.42 533.27 10.13 239.81 10.13 239.81 173.42"/>
        <polygon class="cls-67" points="240.5 173.21 240.5 190.96 533.96 190.96 533.96 173.21 533.96 9.92 240.5 9.92 240.5 173.21"/>
        <polygon class="cls-16" points="241.19 173 241.19 190.75 534.65 190.75 534.65 173 534.65 9.71 241.19 9.71 241.19 173"/>
        <polygon class="cls-48" points="241.88 172.79 241.88 190.53 535.34 190.53 535.34 172.79 535.34 9.5 241.88 9.5 241.88 172.79"/>
        <polygon class="cls-83" points="242.57 172.58 242.57 190.32 536.03 190.32 536.03 172.58 536.03 9.29 242.57 9.29 242.57 172.58"/>
        <polygon class="cls-21" points="243.26 172.36 243.26 190.11 536.72 190.11 536.72 172.36 536.72 9.08 243.26 9.08 243.26 172.36"/>
        <polygon class="cls-41" points="243.95 172.15 243.95 189.9 537.41 189.9 537.41 172.15 537.41 8.87 243.95 8.87 243.95 172.15"/>
        <polygon class="cls-31" points="244.64 171.94 244.64 189.69 538.1 189.69 538.1 171.94 538.1 8.66 244.64 8.66 244.64 171.94"/>
        <polygon class="cls-66" points="245.33 171.73 245.33 189.48 538.79 189.48 538.79 171.73 538.79 8.44 245.33 8.44 245.33 171.73"/>
        <polygon class="cls-47" points="246.02 171.52 246.02 189.27 539.48 189.27 539.48 171.52 539.48 8.23 246.02 8.23 246.02 171.52"/>
        <polygon class="cls-64" points="246.71 171.31 246.71 189.06 540.17 189.06 540.17 171.31 540.17 8.02 246.71 8.02 246.71 171.31"/>
        <polygon class="cls-86" points="247.4 171.1 247.4 188.85 540.86 188.85 540.86 171.1 540.86 7.81 247.4 7.81 247.4 171.1"/>
        <polygon class="cls-14" points="248.09 170.89 248.09 188.63 541.55 188.63 541.55 170.89 541.55 7.6 248.09 7.6 248.09 170.89"/>
        <polygon class="cls-89" points="248.78 170.67 248.78 188.42 542.24 188.42 542.24 170.67 542.24 7.39 248.78 7.39 248.78 170.67"/>
        <polygon class="cls-40" points="249.47 170.46 249.47 188.21 542.93 188.21 542.93 170.46 542.93 7.18 249.47 7.18 249.47 170.46"/>
        <polygon class="cls-78" points="250.16 170.25 250.16 188 543.62 188 543.62 170.25 543.62 6.97 250.16 6.97 250.16 170.25"/>
        <polygon class="cls-84" points="250.85 170.04 250.85 187.79 544.31 187.79 544.31 170.04 544.31 6.76 250.85 6.76 250.85 170.04"/>
        <polygon class="cls-71" points="251.54 169.83 251.54 187.58 545 187.58 545 169.83 545 6.54 251.54 6.54 251.54 169.83"/>
        <polygon class="cls-8" points="252.23 169.62 252.23 187.37 545.69 187.37 545.69 169.62 545.69 6.33 252.23 6.33 252.23 169.62"/>
        <polygon class="cls-20" points="252.92 169.41 252.92 187.16 546.38 187.16 546.38 169.41 546.38 6.12 252.92 6.12 252.92 169.41"/>
        <polygon class="cls-33" points="253.61 169.2 253.61 186.94 547.07 186.94 547.07 169.2 547.07 5.91 253.61 5.91 253.61 169.2"/>
        <polygon class="cls-50" points="254.3 168.99 254.3 186.73 547.76 186.73 547.76 168.99 547.76 5.7 254.3 5.7 254.3 168.99"/>
        <polygon class="cls-37" points="254.99 168.77 254.99 186.52 548.45 186.52 548.45 168.77 548.45 5.49 254.99 5.49 254.99 168.77"/>
        <polygon class="cls-87" points="255.68 168.56 255.68 186.31 549.14 186.31 549.14 168.56 549.14 5.28 255.68 5.28 255.68 168.56"/>
      </g>
      <g class="cls-19">
        <polygon class="cls-7" points="924.65 19.36 924.65 181.88 924.65 199.55 1037.62 199.55 1037.62 181.88 1037.62 19.36 924.65 19.36"/>
        <polygon class="cls-93" points="925.34 19.15 925.34 181.67 925.34 199.33 1038.31 199.33 1038.31 181.67 1038.31 19.15 925.34 19.15"/>
        <polygon class="cls-51" points="926.03 18.93 926.03 181.46 926.03 199.12 1039 199.12 1039 181.46 1039 18.93 926.03 18.93"/>
        <polygon class="cls-97" points="926.72 18.72 926.72 181.25 926.72 198.91 1039.69 198.91 1039.69 181.25 1039.69 18.72 926.72 18.72"/>
        <polygon class="cls-54" points="927.41 18.51 927.41 181.04 927.41 198.7 1040.38 198.7 1040.38 181.04 1040.38 18.51 927.41 18.51"/>
        <polygon class="cls-15" points="928.1 18.3 928.1 180.83 928.1 198.49 1041.07 198.49 1041.07 180.83 1041.07 18.3 928.1 18.3"/>
        <polygon class="cls-57" points="928.79 18.09 928.79 180.62 928.79 198.28 1041.76 198.28 1041.76 180.62 1041.76 18.09 928.79 18.09"/>
        <polygon class="cls-85" points="929.48 17.88 929.48 180.4 929.48 198.07 1042.45 198.07 1042.45 180.4 1042.45 17.88 929.48 17.88"/>
        <polygon class="cls-72" points="930.17 17.67 930.17 180.19 930.17 197.86 1043.14 197.86 1043.14 180.19 1043.14 17.67 930.17 17.67"/>
        <polygon class="cls-22" points="930.86 17.46 930.86 179.98 930.86 197.65 1043.83 197.65 1043.83 179.98 1043.83 17.46 930.86 17.46"/>
        <polygon class="cls-26" points="931.55 17.25 931.55 179.77 931.55 197.43 1044.52 197.43 1044.52 179.77 1044.52 17.25 931.55 17.25"/>
        <polygon class="cls-6" points="932.24 17.03 932.24 179.56 932.24 197.22 1045.21 197.22 1045.21 179.56 1045.21 17.03 932.24 17.03"/>
        <polygon class="cls-79" points="932.93 16.82 932.93 179.35 932.93 197.01 1045.9 197.01 1045.9 179.35 1045.9 16.82 932.93 16.82"/>
        <polygon class="cls-91" points="933.62 16.61 933.62 179.14 933.62 196.8 1046.59 196.8 1046.59 179.14 1046.59 16.61 933.62 16.61"/>
        <polygon class="cls-77" points="934.31 16.4 934.31 178.93 934.31 196.59 1047.28 196.59 1047.28 178.93 1047.28 16.4 934.31 16.4"/>
        <polygon class="cls-5" points="935 16.19 935 178.71 935 196.38 1047.97 196.38 1047.97 178.71 1047.97 16.19 935 16.19"/>
        <polygon class="cls-73" points="935.69 15.98 935.69 178.5 935.69 196.17 1048.66 196.17 1048.66 178.5 1048.66 15.98 935.69 15.98"/>
        <polygon class="cls-88" points="936.38 15.77 936.38 178.29 936.38 195.96 1049.35 195.96 1049.35 178.29 1049.35 15.77 936.38 15.77"/>
        <polygon class="cls-80" points="937.07 15.56 937.07 178.08 937.07 195.75 1050.04 195.75 1050.04 178.08 1050.04 15.56 937.07 15.56"/>
        <polygon class="cls-90" points="937.76 15.34 937.76 177.87 937.76 195.53 1050.73 195.53 1050.73 177.87 1050.73 15.34 937.76 15.34"/>
        <polygon class="cls-65" points="938.45 15.13 938.45 177.66 938.45 195.32 1051.42 195.32 1051.42 177.66 1051.42 15.13 938.45 15.13"/>
        <polygon class="cls-49" points="939.14 14.92 939.14 177.45 939.14 195.11 1052.11 195.11 1052.11 177.45 1052.11 14.92 939.14 14.92"/>
        <polygon class="cls-3" points="939.83 14.71 939.83 177.24 939.83 194.9 1052.8 194.9 1052.8 177.24 1052.8 14.71 939.83 14.71"/>
        <polygon class="cls-69" points="940.52 14.5 940.52 177.03 940.52 194.69 1053.49 194.69 1053.49 177.03 1053.49 14.5 940.52 14.5"/>
        <polygon class="cls-46" points="941.21 14.29 941.21 176.81 941.21 194.48 1054.18 194.48 1054.18 176.81 1054.18 14.29 941.21 14.29"/>
        <polygon class="cls-45" points="941.9 14.08 941.9 176.6 941.9 194.27 1054.87 194.27 1054.87 176.6 1054.87 14.08 941.9 14.08"/>
        <polygon class="cls-60" points="942.59 13.87 942.59 176.39 942.59 194.06 1055.56 194.06 1055.56 176.39 1055.56 13.87 942.59 13.87"/>
        <polygon class="cls-53" points="943.28 13.66 943.28 176.18 943.28 193.85 1056.25 193.85 1056.25 176.18 1056.25 13.66 943.28 13.66"/>
        <polygon class="cls-96" points="943.97 13.44 943.97 175.97 943.97 193.63 1056.94 193.63 1056.94 175.97 1056.94 13.44 943.97 13.44"/>
        <polygon class="cls-25" points="944.66 13.23 944.66 175.76 944.66 193.42 1057.63 193.42 1057.63 175.76 1057.63 13.23 944.66 13.23"/>
        <polygon class="cls-25" points="945.35 13.02 945.35 175.55 945.35 193.21 1058.32 193.21 1058.32 175.55 1058.32 13.02 945.35 13.02"/>
        <polygon class="cls-44" points="946.04 12.81 946.04 175.34 946.04 193 1059.01 193 1059.01 175.34 1059.01 12.81 946.04 12.81"/>
        <polygon class="cls-35" points="946.73 12.6 946.73 175.13 946.73 192.79 1059.7 192.79 1059.7 175.13 1059.7 12.6 946.73 12.6"/>
        <polygon class="cls-98" points="947.42 12.39 947.42 174.91 947.42 192.58 1060.39 192.58 1060.39 174.91 1060.39 12.39 947.42 12.39"/>
        <polygon class="cls-38" points="948.11 12.18 948.11 174.7 948.11 192.37 1061.08 192.37 1061.08 174.7 1061.08 12.18 948.11 12.18"/>
        <polygon class="cls-2" points="948.8 11.97 948.8 174.49 948.8 192.16 1061.77 192.16 1061.77 174.49 1061.77 11.97 948.8 11.97"/>
        <polygon class="cls-67" points="949.49 11.76 949.49 174.28 949.49 191.95 1062.46 191.95 1062.46 174.28 1062.46 11.76 949.49 11.76"/>
        <polygon class="cls-16" points="950.18 11.54 950.18 174.07 950.18 191.73 1063.15 191.73 1063.15 174.07 1063.15 11.54 950.18 11.54"/>
        <polygon class="cls-48" points="950.87 11.33 950.87 173.86 950.87 191.52 1063.84 191.52 1063.84 173.86 1063.84 11.33 950.87 11.33"/>
        <polygon class="cls-83" points="951.56 11.12 951.56 173.65 951.56 191.31 1064.53 191.31 1064.53 173.65 1064.53 11.12 951.56 11.12"/>
        <polygon class="cls-21" points="952.25 10.91 952.25 173.44 952.25 191.1 1065.22 191.1 1065.22 173.44 1065.22 10.91 952.25 10.91"/>
        <polygon class="cls-41" points="952.94 10.7 952.94 173.23 952.94 190.89 1065.91 190.89 1065.91 173.23 1065.91 10.7 952.94 10.7"/>
        <polygon class="cls-31" points="953.63 10.49 953.63 173.01 953.63 190.68 1066.6 190.68 1066.6 173.01 1066.6 10.49 953.63 10.49"/>
        <polygon class="cls-66" points="954.32 10.28 954.32 172.8 954.32 190.47 1067.29 190.47 1067.29 172.8 1067.29 10.28 954.32 10.28"/>
        <polygon class="cls-47" points="955.01 10.07 955.01 172.59 955.01 190.26 1067.98 190.26 1067.98 172.59 1067.98 10.07 955.01 10.07"/>
        <polygon class="cls-64" points="955.7 9.86 955.7 172.38 955.7 190.05 1068.67 190.05 1068.67 172.38 1068.67 9.86 955.7 9.86"/>
        <polygon class="cls-86" points="956.39 9.64 956.39 172.17 956.39 189.83 1069.36 189.83 1069.36 172.17 1069.36 9.64 956.39 9.64"/>
        <polygon class="cls-14" points="957.08 9.43 957.08 171.96 957.08 189.62 1070.05 189.62 1070.05 171.96 1070.05 9.43 957.08 9.43"/>
        <polygon class="cls-89" points="957.77 9.22 957.77 171.75 957.77 189.41 1070.74 189.41 1070.74 171.75 1070.74 9.22 957.77 9.22"/>
        <polygon class="cls-40" points="958.46 9.01 958.46 171.54 958.46 189.2 1071.43 189.2 1071.43 171.54 1071.43 9.01 958.46 9.01"/>
        <polygon class="cls-78" points="959.15 8.8 959.15 171.33 959.15 188.99 1072.12 188.99 1072.12 171.33 1072.12 8.8 959.15 8.8"/>
        <polygon class="cls-84" points="959.84 8.59 959.84 171.11 959.84 188.78 1072.81 188.78 1072.81 171.11 1072.81 8.59 959.84 8.59"/>
        <polygon class="cls-71" points="960.53 8.38 960.53 170.9 960.53 188.57 1073.5 188.57 1073.5 170.9 1073.5 8.38 960.53 8.38"/>
        <polygon class="cls-8" points="961.22 8.17 961.22 170.69 961.22 188.36 1074.19 188.36 1074.19 170.69 1074.19 8.17 961.22 8.17"/>
        <polygon class="cls-20" points="961.91 7.96 961.91 170.48 961.91 188.14 1074.88 188.14 1074.88 170.48 1074.88 7.96 961.91 7.96"/>
        <polygon class="cls-33" points="962.6 7.74 962.6 170.27 962.6 187.93 1075.57 187.93 1075.57 170.27 1075.57 7.74 962.6 7.74"/>
        <polygon class="cls-50" points="963.29 7.53 963.29 170.06 963.29 187.72 1076.26 187.72 1076.26 170.06 1076.26 7.53 963.29 7.53"/>
        <polygon class="cls-37" points="963.98 7.32 963.98 169.85 963.98 187.51 1076.95 187.51 1076.95 169.85 1076.95 7.32 963.98 7.32"/>
        <polygon class="cls-87" points="964.67 7.11 964.67 169.64 964.67 187.3 1077.64 187.3 1077.64 169.64 1077.64 7.11 964.67 7.11"/>
      </g>
      <g class="cls-19">
        <path class="cls-7" d="m850.23,180.42V18.42h-76.55c-.04-1.78-.64-3.53-1.87-4.74-2.26-2.22-5.58-1.8-7.42.92-.76,1.13-1.07,2.47-1.1,3.82h-189.24v162.01h-.45v18.13h277.1v-18.13h-.46Z"/>
        <path class="cls-93" d="m850.92,180.21V18.21h-76.55c-.04-1.78-.64-3.53-1.87-4.74-2.26-2.22-5.58-1.8-7.42.92-.76,1.13-1.07,2.47-1.1,3.82h-189.24v162.01h-.45v18.13h277.1v-18.13h-.46Z"/>
        <path class="cls-51" d="m851.61,180V17.99h-76.55c-.04-1.78-.64-3.53-1.87-4.74-2.26-2.22-5.58-1.8-7.42.92-.76,1.13-1.07,2.47-1.1,3.82h-189.24v162.01h-.45v18.13h277.1v-18.13h-.46Z"/>
        <path class="cls-97" d="m852.3,179.79V17.78h-76.55c-.04-1.78-.64-3.53-1.87-4.74-2.26-2.22-5.58-1.8-7.42.92-.76,1.13-1.07,2.47-1.1,3.82h-189.24v162.01h-.45v18.13h277.1v-18.13h-.46Z"/>
        <path class="cls-54" d="m852.99,179.58V17.57h-76.55c-.04-1.78-.64-3.53-1.87-4.74-2.26-2.22-5.58-1.8-7.42.92-.76,1.13-1.07,2.47-1.1,3.82h-189.24v162.01h-.45v18.13h277.1v-18.13h-.46Z"/>
        <path class="cls-15" d="m853.68,179.37V17.36h-76.55c-.04-1.78-.64-3.53-1.87-4.74-2.26-2.22-5.58-1.8-7.42.92-.76,1.13-1.07,2.47-1.1,3.82h-189.24v162.01h-.45v18.13h277.1v-18.13h-.46Z"/>
        <path class="cls-57" d="m854.37,179.16V17.15h-76.55c-.04-1.78-.64-3.53-1.87-4.74-2.26-2.22-5.58-1.8-7.43.92-.76,1.13-1.07,2.47-1.1,3.82h-189.24v162.01h-.45v18.13h277.1v-18.13h-.46Z"/>
        <path class="cls-85" d="m855.06,178.95V16.94h-76.55c-.04-1.78-.64-3.53-1.87-4.74-2.26-2.22-5.58-1.8-7.43.92-.76,1.13-1.07,2.47-1.1,3.82h-189.24v162.01h-.45v18.13h277.1v-18.13h-.46Z"/>
        <path class="cls-72" d="m855.75,178.73V16.73h-76.55c-.04-1.78-.64-3.53-1.87-4.74-2.26-2.22-5.58-1.8-7.43.92-.76,1.13-1.07,2.47-1.1,3.82h-189.24v162.01h-.45v18.13h277.1v-18.13h-.46Z"/>
        <path class="cls-22" d="m856.44,178.52V16.52h-76.55c-.04-1.78-.64-3.53-1.87-4.74-2.26-2.22-5.58-1.8-7.43.92-.76,1.13-1.07,2.47-1.1,3.82h-189.24v162.01h-.45v18.13h277.1v-18.13h-.46Z"/>
        <path class="cls-26" d="m857.13,178.31V16.3h-76.55c-.04-1.78-.64-3.53-1.87-4.74-2.26-2.22-5.58-1.8-7.43.92-.76,1.13-1.07,2.47-1.1,3.82h-189.24v162.01h-.45v18.13h277.1v-18.13h-.46Z"/>
        <path class="cls-6" d="m857.82,178.1V16.09h-76.55c-.04-1.78-.64-3.53-1.87-4.74-2.26-2.22-5.58-1.8-7.43.92-.76,1.13-1.07,2.47-1.1,3.82h-189.24v162.01h-.45v18.13h277.1v-18.13h-.46Z"/>
        <path class="cls-79" d="m858.51,177.89V15.88h-76.55c-.04-1.78-.64-3.53-1.87-4.74-2.26-2.22-5.58-1.8-7.43.92-.76,1.13-1.07,2.47-1.1,3.82h-189.24v162.01h-.45v18.13h277.1v-18.13h-.46Z"/>
        <path class="cls-91" d="m859.2,177.68V15.67h-76.55c-.04-1.78-.64-3.53-1.87-4.74-2.26-2.22-5.58-1.8-7.43.92-.76,1.13-1.07,2.47-1.1,3.82h-189.24v162.01h-.45v18.13h277.1v-18.13h-.46Z"/>
        <path class="cls-77" d="m859.89,177.47V15.46h-76.55c-.04-1.78-.64-3.53-1.87-4.74-2.26-2.22-5.58-1.8-7.43.92-.76,1.13-1.07,2.47-1.1,3.82h-189.24v162.01h-.45v18.13h277.1v-18.13h-.46Z"/>
        <path class="cls-5" d="m860.58,177.26V15.25h-76.55c-.04-1.78-.64-3.53-1.87-4.74-2.26-2.22-5.58-1.8-7.43.92-.76,1.13-1.07,2.47-1.1,3.82h-189.24v162.01h-.45v18.13h277.1v-18.13h-.46Z"/>
        <path class="cls-73" d="m861.27,177.05V15.04h-76.55c-.04-1.78-.64-3.53-1.87-4.74-2.26-2.22-5.58-1.8-7.43.92-.76,1.13-1.07,2.47-1.1,3.82h-189.24v162.01h-.45v18.13h277.1v-18.13h-.46Z"/>
        <path class="cls-88" d="m861.96,176.83V14.83h-76.55c-.04-1.78-.64-3.53-1.87-4.74-2.26-2.22-5.58-1.8-7.43.92-.76,1.13-1.07,2.47-1.1,3.82h-189.24v162.01h-.45v18.13h277.1v-18.13h-.46Z"/>
        <path class="cls-80" d="m862.65,176.62V14.62h-76.55c-.04-1.78-.64-3.53-1.87-4.74-2.26-2.22-5.58-1.8-7.43.92-.76,1.13-1.07,2.47-1.1,3.82h-189.24v162.01h-.45v18.13h277.1v-18.13h-.46Z"/>
        <path class="cls-90" d="m863.34,176.41V14.4h-76.55c-.04-1.78-.64-3.53-1.87-4.74-2.26-2.22-5.58-1.8-7.43.92-.76,1.13-1.07,2.47-1.1,3.82h-189.24v162.01h-.45v18.13h277.1v-18.13h-.46Z"/>
        <path class="cls-65" d="m864.03,176.2V14.19h-76.55c-.04-1.78-.64-3.53-1.87-4.74-2.26-2.22-5.58-1.8-7.43.92-.76,1.13-1.07,2.47-1.1,3.82h-189.24v162.01h-.45v18.13h277.1v-18.13h-.46Z"/>
        <path class="cls-49" d="m864.72,175.99V13.98h-76.55c-.04-1.78-.64-3.53-1.87-4.74-2.26-2.22-5.58-1.8-7.43.92-.76,1.13-1.07,2.47-1.1,3.82h-189.24v162.01h-.45v18.13h277.1v-18.13h-.46Z"/>
        <path class="cls-3" d="m865.41,175.78V13.77h-76.55c-.04-1.78-.64-3.53-1.87-4.74-2.26-2.22-5.58-1.8-7.43.92-.76,1.13-1.07,2.47-1.1,3.82h-189.24v162.01h-.45v18.13h277.1v-18.13h-.46Z"/>
        <path class="cls-69" d="m866.1,175.57V13.56h-76.55c-.04-1.78-.64-3.53-1.87-4.74-2.26-2.22-5.58-1.8-7.43.92-.76,1.13-1.07,2.47-1.1,3.82h-189.24v162.01h-.45v18.13h277.1v-18.13h-.46Z"/>
        <path class="cls-46" d="m866.79,175.36V13.35h-76.55c-.04-1.78-.64-3.53-1.87-4.74-2.26-2.22-5.58-1.8-7.43.92-.76,1.13-1.07,2.47-1.1,3.82h-189.24v162.01h-.45v18.13h277.1v-18.13h-.46Z"/>
        <path class="cls-45" d="m867.48,175.15V13.14h-76.55c-.04-1.78-.64-3.53-1.87-4.74-2.26-2.22-5.58-1.8-7.43.92-.76,1.13-1.07,2.47-1.1,3.82h-189.24v162.01h-.45v18.13h277.1v-18.13h-.46Z"/>
        <path class="cls-60" d="m868.17,174.93V12.93h-76.55c-.04-1.78-.64-3.53-1.87-4.74-2.26-2.22-5.58-1.8-7.43.92-.76,1.12-1.07,2.47-1.1,3.82h-189.24v162.01h-.45v18.13h277.1v-18.13h-.46Z"/>
        <path class="cls-53" d="m868.86,174.72V12.71h-76.55c-.04-1.78-.64-3.53-1.87-4.74-2.26-2.22-5.58-1.8-7.43.92-.76,1.12-1.07,2.47-1.1,3.82h-189.24v162.01h-.45v18.13h277.1v-18.13h-.46Z"/>
        <path class="cls-96" d="m869.55,174.51V12.5h-76.55c-.04-1.78-.64-3.53-1.87-4.74-2.26-2.22-5.58-1.8-7.43.92-.76,1.12-1.07,2.47-1.1,3.82h-189.24v162.01h-.45v18.13h277.1v-18.13h-.46Z"/>
        <path class="cls-25" d="m870.24,174.3V12.29h-76.55c-.04-1.78-.64-3.53-1.87-4.74-2.26-2.22-5.58-1.8-7.43.92-.76,1.12-1.07,2.47-1.1,3.82h-189.24v162.01h-.45v18.13h277.1v-18.13h-.46Z"/>
        <path class="cls-25" d="m870.93,174.09V12.08h-76.55c-.04-1.78-.64-3.53-1.87-4.74-2.26-2.22-5.58-1.8-7.43.92-.76,1.12-1.07,2.47-1.1,3.82h-189.24v162.01h-.45v18.13h277.1v-18.13h-.46Z"/>
        <path class="cls-44" d="m871.62,173.88V11.87h-76.55c-.04-1.78-.64-3.53-1.87-4.74-2.26-2.22-5.58-1.8-7.43.92-.76,1.12-1.07,2.47-1.1,3.82h-189.24v162.01h-.45v18.13h277.1v-18.13h-.46Z"/>
        <path class="cls-35" d="m872.31,173.67V11.66h-76.55c-.04-1.78-.64-3.53-1.87-4.74-2.26-2.22-5.58-1.8-7.43.92-.76,1.12-1.07,2.47-1.1,3.82h-189.24v162.01h-.45v18.13h277.1v-18.13h-.46Z"/>
        <path class="cls-98" d="m873,173.46V11.45h-76.55c-.04-1.78-.64-3.53-1.87-4.74-2.26-2.22-5.58-1.8-7.43.92-.76,1.12-1.07,2.47-1.1,3.82h-189.24v162.01h-.45v18.13h277.1v-18.13h-.46Z"/>
        <path class="cls-38" d="m873.69,173.25V11.24h-76.55c-.04-1.78-.64-3.53-1.87-4.74-2.26-2.22-5.58-1.8-7.43.92-.76,1.12-1.07,2.47-1.1,3.82h-189.24v162.01h-.45v18.13h277.1v-18.13h-.45Z"/>
        <path class="cls-2" d="m874.38,173.03V11.02h-76.55c-.04-1.78-.64-3.53-1.87-4.74-2.26-2.22-5.58-1.8-7.43.92-.76,1.12-1.07,2.47-1.1,3.82h-189.24v162.01h-.45v18.13h277.1v-18.13h-.45Z"/>
        <path class="cls-67" d="m875.07,172.82V10.81h-76.55c-.04-1.78-.64-3.53-1.87-4.74-2.26-2.22-5.58-1.8-7.43.92-.76,1.12-1.07,2.47-1.1,3.82h-189.24v162.01h-.45v18.13h277.1v-18.13h-.45Z"/>
        <path class="cls-16" d="m875.76,172.61V10.6h-76.55c-.04-1.78-.64-3.53-1.87-4.74-2.26-2.22-5.58-1.8-7.43.92-.76,1.12-1.07,2.47-1.1,3.82h-189.24v162.01h-.45v18.13h277.1v-18.13h-.45Z"/>
        <path class="cls-48" d="m876.45,172.4V10.39h-76.55c-.04-1.78-.64-3.53-1.87-4.74-2.26-2.22-5.58-1.8-7.43.92-.76,1.12-1.07,2.47-1.1,3.82h-189.24v162.01h-.45v18.13h277.1v-18.13h-.45Z"/>
        <path class="cls-83" d="m877.14,172.19V10.18h-76.55c-.04-1.78-.64-3.53-1.87-4.74-2.26-2.22-5.58-1.8-7.43.92-.76,1.12-1.07,2.47-1.1,3.82h-189.24v162.01h-.45v18.13h277.1v-18.13h-.45Z"/>
        <path class="cls-21" d="m877.83,171.98V9.97h-76.55c-.04-1.78-.64-3.53-1.87-4.74-2.26-2.22-5.58-1.8-7.43.92-.76,1.12-1.07,2.47-1.1,3.82h-189.24v162.01h-.45v18.13h277.1v-18.13h-.45Z"/>
        <path class="cls-41" d="m878.52,171.77V9.76h-76.55c-.04-1.78-.64-3.53-1.87-4.74-2.26-2.22-5.58-1.8-7.43.92-.76,1.12-1.06,2.47-1.1,3.82h-189.24v162.01h-.45v18.13h277.1v-18.13h-.45Z"/>
        <path class="cls-31" d="m879.21,171.56V9.55h-76.55c-.04-1.78-.64-3.53-1.87-4.74-2.26-2.22-5.58-1.8-7.43.92-.76,1.12-1.06,2.47-1.1,3.82h-189.24v162.01h-.45v18.13h277.1v-18.13h-.45Z"/>
        <path class="cls-66" d="m879.9,171.34V9.33h-76.55c-.04-1.78-.64-3.53-1.87-4.74-2.26-2.22-5.58-1.8-7.43.92-.76,1.12-1.06,2.47-1.1,3.82h-189.24v162.01h-.45v18.13h277.1v-18.13h-.45Z"/>
        <path class="cls-47" d="m880.59,171.13V9.12h-76.55c-.04-1.78-.64-3.53-1.87-4.74-2.26-2.22-5.58-1.8-7.43.92-.76,1.12-1.06,2.47-1.1,3.82h-189.24v162.01h-.45v18.13h277.1v-18.13h-.45Z"/>
        <path class="cls-64" d="m881.28,170.92V8.91h-76.55c-.04-1.78-.64-3.53-1.87-4.74-2.26-2.22-5.58-1.8-7.43.92-.76,1.12-1.06,2.47-1.1,3.82h-189.24v162.01h-.45v18.13h277.1v-18.13h-.45Z"/>
        <path class="cls-86" d="m881.97,170.71V8.7h-76.55c-.04-1.78-.64-3.53-1.87-4.74-2.26-2.22-5.58-1.8-7.43.92-.76,1.12-1.06,2.47-1.1,3.82h-189.24v162.01h-.45v18.13h277.1v-18.13h-.45Z"/>
        <path class="cls-14" d="m882.66,170.5V8.49h-76.55c-.04-1.78-.64-3.53-1.87-4.74-2.26-2.22-5.58-1.8-7.43.92-.76,1.12-1.06,2.47-1.1,3.82h-189.24v162.01h-.45v18.13h277.1v-18.13h-.45Z"/>
        <path class="cls-89" d="m883.35,170.29V8.28h-76.55c-.04-1.78-.64-3.53-1.87-4.74-2.26-2.22-5.58-1.8-7.43.92-.76,1.12-1.06,2.47-1.1,3.82h-189.24v162.01h-.45v18.13h277.1v-18.13h-.45Z"/>
        <path class="cls-40" d="m884.04,170.08V8.07h-76.55c-.04-1.78-.64-3.53-1.87-4.74-2.26-2.22-5.58-1.8-7.43.92-.76,1.12-1.06,2.47-1.1,3.82h-189.24v162.01h-.45v18.13h277.1v-18.13h-.45Z"/>
        <path class="cls-78" d="m884.73,169.87V7.86h-76.55c-.04-1.78-.64-3.53-1.87-4.74-2.26-2.22-5.58-1.8-7.43.92-.76,1.12-1.06,2.47-1.1,3.82h-189.24v162.01h-.45v18.13h277.1v-18.13h-.45Z"/>
        <path class="cls-84" d="m885.42,169.66V7.64h-76.55c-.04-1.78-.64-3.53-1.87-4.74-2.26-2.22-5.58-1.8-7.43.92-.76,1.12-1.06,2.47-1.1,3.82h-189.24v162.01h-.45v18.13h277.1v-18.13h-.45Z"/>
        <path class="cls-71" d="m886.11,169.44V7.43h-76.55c-.04-1.78-.64-3.53-1.87-4.74-2.26-2.22-5.58-1.8-7.43.92-.76,1.12-1.06,2.47-1.1,3.82h-189.24v162.01h-.45v18.13h277.1v-18.13h-.45Z"/>
        <path class="cls-8" d="m886.8,169.23V7.22h-76.55c-.04-1.78-.64-3.53-1.87-4.74-2.26-2.22-5.58-1.8-7.43.92-.76,1.12-1.06,2.47-1.1,3.82h-189.24v162.01h-.45v18.13h277.1v-18.13h-.45Z"/>
        <path class="cls-20" d="m887.49,169.02V7.01h-76.55c-.04-1.78-.64-3.53-1.87-4.74-2.26-2.22-5.58-1.8-7.43.92-.76,1.12-1.06,2.47-1.1,3.82h-189.24v162.01h-.45v18.13h277.1v-18.13h-.45Z"/>
        <path class="cls-33" d="m888.18,168.81V6.8h-76.55c-.04-1.78-.64-3.53-1.87-4.74-2.26-2.22-5.58-1.8-7.43.92-.76,1.12-1.06,2.47-1.1,3.82h-189.24v162.01h-.45v18.13h277.1v-18.13h-.45Z"/>
        <path class="cls-50" d="m888.87,168.6V6.59h-76.55c-.04-1.78-.64-3.53-1.87-4.74-2.26-2.21-5.58-1.8-7.43.92-.76,1.12-1.06,2.47-1.1,3.82h-189.24v162.01h-.45v18.13h277.1v-18.13h-.45Z"/>
        <path class="cls-37" d="m889.56,168.39V6.38h-76.55c-.04-1.78-.64-3.52-1.87-4.74-2.26-2.21-5.58-1.8-7.43.92-.76,1.12-1.06,2.47-1.1,3.82h-189.24v162.01h-.45v18.13h277.1v-18.13h-.45Z"/>
        <path class="cls-87" d="m890.25,168.18V6.17h-76.55c-.04-1.78-.64-3.52-1.87-4.74-2.26-2.21-5.58-1.8-7.43.92-.76,1.12-1.06,2.47-1.1,3.82h-189.24v162.01h-.45v18.13h277.1v-18.13h-.45Z"/>
      </g>
      <g class="cls-19">
        <path class="cls-7" d="m140.65,29.16H6.06c-3.34,0-6.06,3.08-6.06,6.88v152.33c0,.71.12,1.38.3,2.02v18.05h145.43v-16.33c.62-1.08.99-2.36.99-3.75V36.04c0-3.79-2.72-6.88-6.07-6.88Z"/>
        <path class="cls-93" d="m141.34,28.95H6.75c-3.34,0-6.06,3.08-6.06,6.88v152.33c0,.71.12,1.38.3,2.02v18.05h145.43v-16.33c.62-1.08.99-2.36.99-3.75V35.83c0-3.79-2.72-6.88-6.07-6.88Z"/>
        <path class="cls-51" d="m142.03,28.74H7.44c-3.34,0-6.06,3.08-6.06,6.88v152.33c0,.71.12,1.38.3,2.02v18.05h145.43v-16.33c.62-1.08.99-2.36.99-3.75V35.61c0-3.79-2.72-6.88-6.07-6.88Z"/>
        <path class="cls-97" d="m142.72,28.53H8.13c-3.34,0-6.06,3.08-6.06,6.88v152.33c0,.71.12,1.38.3,2.02v18.05h145.43v-16.33c.62-1.08.99-2.36.99-3.75V35.4c0-3.79-2.72-6.88-6.07-6.88Z"/>
        <path class="cls-54" d="m143.41,28.31H8.82c-3.34,0-6.06,3.08-6.06,6.88v152.33c0,.71.12,1.38.3,2.02v18.05h145.43v-16.33c.62-1.08.99-2.36.99-3.75V35.19c0-3.79-2.72-6.88-6.07-6.88Z"/>
        <path class="cls-15" d="m144.1,28.1H9.51c-3.34,0-6.06,3.08-6.06,6.88v152.33c0,.71.12,1.38.3,2.02v18.05h145.43v-16.33c.62-1.08.99-2.36.99-3.75V34.98c0-3.79-2.72-6.88-6.07-6.88Z"/>
        <path class="cls-57" d="m144.79,27.89H10.2c-3.34,0-6.06,3.08-6.06,6.88v152.33c0,.71.12,1.38.3,2.02v18.06h145.43v-16.33c.62-1.08.99-2.36.99-3.75V34.77c0-3.79-2.72-6.88-6.07-6.88Z"/>
        <path class="cls-85" d="m145.48,27.68H10.89c-3.34,0-6.06,3.08-6.06,6.88v152.33c0,.71.12,1.38.3,2.02v18.06h145.43v-16.33c.62-1.08.99-2.36.99-3.75V34.56c0-3.79-2.72-6.88-6.07-6.88Z"/>
        <path class="cls-72" d="m146.17,27.47H11.58c-3.34,0-6.06,3.08-6.06,6.88v152.33c0,.71.12,1.38.3,2.02v18.06h145.43v-16.33c.62-1.08.99-2.36.99-3.75V34.35c0-3.79-2.72-6.88-6.07-6.88Z"/>
        <path class="cls-22" d="m146.86,27.26H12.27c-3.34,0-6.06,3.08-6.06,6.88v152.33c0,.71.12,1.38.3,2.02v18.06h145.43v-16.33c.62-1.08.99-2.36.99-3.75V34.14c0-3.79-2.72-6.88-6.07-6.88Z"/>
        <path class="cls-26" d="m147.55,27.05H12.96c-3.34,0-6.06,3.08-6.06,6.88v152.33c0,.71.12,1.38.3,2.02v18.06h145.43v-16.33c.62-1.08.99-2.36.99-3.75V33.93c0-3.79-2.72-6.88-6.07-6.88Z"/>
        <path class="cls-6" d="m148.24,26.84H13.65c-3.34,0-6.06,3.08-6.06,6.88v152.33c0,.71.12,1.38.3,2.02v18.06h145.43v-16.33c.62-1.08.99-2.36.99-3.75V33.71c0-3.79-2.72-6.88-6.07-6.88Z"/>
        <path class="cls-79" d="m148.93,26.63H14.34c-3.34,0-6.06,3.08-6.06,6.88v152.33c0,.71.12,1.38.3,2.02v18.06h145.43v-16.33c.62-1.08.99-2.36.99-3.75V33.5c0-3.79-2.72-6.88-6.07-6.88Z"/>
        <path class="cls-91" d="m149.62,26.41H15.03c-3.34,0-6.06,3.08-6.06,6.88v152.33c0,.71.12,1.38.3,2.02v18.06h145.43v-16.33c.62-1.08.99-2.36.99-3.75V33.29c0-3.79-2.72-6.88-6.07-6.88Z"/>
        <path class="cls-77" d="m150.31,26.2H15.72c-3.34,0-6.06,3.08-6.06,6.88v152.33c0,.71.12,1.38.3,2.02v18.06h145.43v-16.33c.62-1.08.99-2.36.99-3.75V33.08c0-3.79-2.72-6.88-6.07-6.88Z"/>
        <path class="cls-5" d="m151,25.99H16.41c-3.34,0-6.06,3.08-6.06,6.88v152.33c0,.71.12,1.38.3,2.02v18.06h145.43v-16.33c.62-1.08.99-2.36.99-3.75V32.87c0-3.79-2.72-6.88-6.07-6.88Z"/>
        <path class="cls-73" d="m151.69,25.78H17.1c-3.34,0-6.06,3.08-6.06,6.88v152.33c0,.71.12,1.38.3,2.02v18.06h145.43v-16.33c.62-1.08.99-2.36.99-3.75V32.66c0-3.79-2.72-6.88-6.07-6.88Z"/>
        <path class="cls-88" d="m152.38,25.57H17.79c-3.34,0-6.06,3.08-6.06,6.88v152.33c0,.71.12,1.38.3,2.02v18.06h145.43v-16.33c.62-1.08.99-2.36.99-3.75V32.45c0-3.79-2.72-6.88-6.07-6.88Z"/>
        <path class="cls-80" d="m153.07,25.36H18.49c-3.34,0-6.06,3.08-6.06,6.88v152.33c0,.71.12,1.38.3,2.02v18.06h145.43v-16.33c.62-1.08.99-2.36.99-3.75V32.24c0-3.79-2.72-6.88-6.07-6.88Z"/>
        <path class="cls-90" d="m153.76,25.15H19.18c-3.34,0-6.06,3.08-6.06,6.88v152.33c0,.71.12,1.38.3,2.02v18.06h145.43v-16.33c.62-1.08.99-2.36.99-3.75V32.03c0-3.79-2.72-6.88-6.07-6.88Z"/>
        <path class="cls-65" d="m154.45,24.94H19.87c-3.34,0-6.06,3.08-6.06,6.88v152.33c0,.71.12,1.38.3,2.02v18.06h145.43v-16.33c.62-1.08.99-2.36.99-3.75V31.81c0-3.79-2.72-6.88-6.07-6.88Z"/>
        <path class="cls-49" d="m155.14,24.72H20.56c-3.34,0-6.06,3.08-6.06,6.88v152.33c0,.71.12,1.38.3,2.02v18.06h145.43v-16.33c.62-1.08.99-2.36.99-3.75V31.6c0-3.79-2.72-6.88-6.07-6.88Z"/>
        <path class="cls-3" d="m155.83,24.51H21.25c-3.34,0-6.06,3.08-6.06,6.88v152.33c0,.71.12,1.38.3,2.02v18.06h145.43v-16.33c.62-1.08.99-2.36.99-3.75V31.39c0-3.79-2.72-6.88-6.07-6.88Z"/>
        <path class="cls-69" d="m156.52,24.3H21.94c-3.34,0-6.06,3.08-6.06,6.88v152.33c0,.71.12,1.38.3,2.02v18.06h145.43v-16.33c.62-1.08.99-2.36.99-3.75V31.18c0-3.79-2.72-6.88-6.07-6.88Z"/>
        <path class="cls-46" d="m157.21,24.09H22.63c-3.34,0-6.06,3.08-6.06,6.88v152.33c0,.71.12,1.38.3,2.02v18.06h145.43v-16.33c.62-1.08.99-2.36.99-3.75V30.97c0-3.79-2.72-6.88-6.07-6.88Z"/>
        <path class="cls-45" d="m157.9,23.88H23.32c-3.34,0-6.06,3.08-6.06,6.88v152.33c0,.71.12,1.38.3,2.02v18.06h145.43v-16.33c.62-1.08.99-2.36.99-3.75V30.76c0-3.79-2.72-6.88-6.07-6.88Z"/>
        <path class="cls-60" d="m158.59,23.67H24.01c-3.34,0-6.06,3.08-6.06,6.88v152.33c0,.71.12,1.38.3,2.02v18.06h145.43v-16.33c.62-1.08.99-2.36.99-3.75V30.55c0-3.79-2.72-6.88-6.07-6.88Z"/>
        <path class="cls-53" d="m159.28,23.46H24.7c-3.34,0-6.06,3.08-6.06,6.88v152.33c0,.71.12,1.38.3,2.02v18.06h145.43v-16.33c.62-1.08.99-2.36.99-3.75V30.34c0-3.79-2.72-6.88-6.07-6.88Z"/>
        <path class="cls-96" d="m159.97,23.25H25.39c-3.34,0-6.06,3.08-6.06,6.88v152.33c0,.71.12,1.38.3,2.02v18.06h145.43v-16.33c.62-1.08.99-2.36.99-3.74V30.12c0-3.79-2.72-6.88-6.07-6.88Z"/>
        <path class="cls-25" d="m160.66,23.03H26.08c-3.34,0-6.06,3.08-6.06,6.88v152.33c0,.71.12,1.38.3,2.02v18.06h145.43v-16.33c.62-1.08.99-2.36.99-3.74V29.91c0-3.79-2.72-6.88-6.07-6.88Z"/>
        <path class="cls-25" d="m161.35,22.82H26.77c-3.34,0-6.06,3.08-6.06,6.88v152.33c0,.71.12,1.38.3,2.02v18.06h145.43v-16.33c.62-1.08.99-2.36.99-3.74V29.7c0-3.79-2.72-6.88-6.07-6.88Z"/>
        <path class="cls-44" d="m162.04,22.61H27.46c-3.34,0-6.06,3.08-6.06,6.88v152.33c0,.71.12,1.38.3,2.02v18.06h145.43v-16.33c.62-1.08.99-2.36.99-3.74V29.49c0-3.79-2.72-6.88-6.07-6.88Z"/>
        <path class="cls-35" d="m162.73,22.4H28.15c-3.34,0-6.06,3.08-6.06,6.88v152.33c0,.71.12,1.38.3,2.02v18.06h145.43v-16.33c.62-1.08.99-2.36.99-3.74V29.28c0-3.79-2.72-6.88-6.07-6.88Z"/>
        <path class="cls-98" d="m163.42,22.19H28.84c-3.34,0-6.06,3.08-6.06,6.88v152.33c0,.71.12,1.38.3,2.02v18.06h145.43v-16.33c.62-1.08.99-2.36.99-3.74V29.07c0-3.79-2.72-6.88-6.07-6.88Z"/>
        <path class="cls-38" d="m164.11,21.98H29.53c-3.34,0-6.06,3.08-6.06,6.88v152.33c0,.71.12,1.38.3,2.02v18.06h145.43v-16.33c.62-1.08.99-2.36.99-3.74V28.86c0-3.79-2.72-6.88-6.07-6.88Z"/>
        <path class="cls-2" d="m164.8,21.77H30.22c-3.34,0-6.06,3.08-6.06,6.88v152.33c0,.71.12,1.38.3,2.02v18.06h145.43v-16.33c.62-1.08.99-2.36.99-3.74V28.65c0-3.79-2.72-6.88-6.07-6.88Z"/>
        <path class="cls-67" d="m165.49,21.56H30.91c-3.34,0-6.06,3.08-6.06,6.88v152.33c0,.71.12,1.38.3,2.02v18.06h145.43v-16.33c.62-1.08.99-2.36.99-3.74V28.44c0-3.79-2.72-6.88-6.07-6.88Z"/>
        <path class="cls-16" d="m166.18,21.34H31.6c-3.34,0-6.06,3.08-6.06,6.88v152.33c0,.71.12,1.38.3,2.02v18.06h145.43v-16.33c.62-1.08.99-2.36.99-3.74V28.22c0-3.8-2.72-6.88-6.07-6.88Z"/>
        <path class="cls-48" d="m166.87,21.13H32.29c-3.34,0-6.06,3.08-6.06,6.88v152.33c0,.71.12,1.38.3,2.02v18.06h145.43v-16.33c.62-1.08.99-2.36.99-3.74V28.01c0-3.8-2.72-6.88-6.07-6.88Z"/>
        <path class="cls-83" d="m167.56,20.92H32.98c-3.34,0-6.06,3.08-6.06,6.88v152.33c0,.71.12,1.38.3,2.02v18.06h145.43v-16.33c.62-1.08.99-2.36.99-3.74V27.8c0-3.8-2.72-6.88-6.07-6.88Z"/>
        <path class="cls-21" d="m168.25,20.71H33.67c-3.34,0-6.06,3.08-6.06,6.88v152.33c0,.71.12,1.38.3,2.02v18.06h145.43v-16.33c.62-1.08.99-2.36.99-3.74V27.59c0-3.8-2.72-6.88-6.07-6.88Z"/>
        <path class="cls-41" d="m168.94,20.5H34.36c-3.34,0-6.06,3.08-6.06,6.88v152.33c0,.71.12,1.38.3,2.02v18.06h145.43v-16.33c.62-1.08.99-2.36.99-3.74V27.38c0-3.8-2.72-6.88-6.07-6.88Z"/>
        <path class="cls-31" d="m169.63,20.29H35.05c-3.34,0-6.06,3.08-6.06,6.88v152.33c0,.71.12,1.38.3,2.02v18.06h145.43v-16.33c.62-1.08.99-2.36.99-3.74V27.17c0-3.8-2.72-6.88-6.06-6.88Z"/>
        <path class="cls-66" d="m170.32,20.08H35.74c-3.34,0-6.06,3.08-6.06,6.88v152.33c0,.71.12,1.38.3,2.02v18.06h145.43v-16.33c.62-1.08.99-2.36.99-3.74V26.96c0-3.8-2.72-6.88-6.06-6.88Z"/>
        <path class="cls-47" d="m171.01,19.87H36.43c-3.34,0-6.06,3.08-6.06,6.88v152.33c0,.71.12,1.38.3,2.02v18.06h145.43v-16.33c.62-1.08.99-2.36.99-3.74V26.75c0-3.8-2.72-6.88-6.06-6.88Z"/>
        <path class="cls-64" d="m171.7,19.65H37.12c-3.34,0-6.06,3.08-6.06,6.88v152.33c0,.71.12,1.38.3,2.02v18.06h145.43v-16.33c.62-1.08.99-2.36.99-3.74V26.54c0-3.8-2.72-6.88-6.06-6.88Z"/>
        <path class="cls-86" d="m172.39,19.44H37.81c-3.34,0-6.06,3.08-6.06,6.88v152.33c0,.71.12,1.38.3,2.02v18.06h145.43v-16.33c.62-1.08.99-2.36.99-3.74V26.32c0-3.8-2.72-6.88-6.06-6.88Z"/>
        <path class="cls-14" d="m173.08,19.23H38.5c-3.34,0-6.06,3.08-6.06,6.88v152.33c0,.71.12,1.38.3,2.02v18.06h145.43v-16.33c.62-1.08.99-2.36.99-3.74V26.11c0-3.8-2.72-6.88-6.06-6.88Z"/>
        <path class="cls-89" d="m173.77,19.02H39.19c-3.34,0-6.06,3.08-6.06,6.88v152.33c0,.71.12,1.38.3,2.02v18.06h145.43v-16.33c.62-1.08.99-2.36.99-3.74V25.9c0-3.8-2.72-6.88-6.06-6.88Z"/>
        <path class="cls-40" d="m174.46,18.81H39.88c-3.34,0-6.06,3.08-6.06,6.88v152.33c0,.71.12,1.38.3,2.02v18.06h145.43v-16.33c.62-1.08.99-2.36.99-3.74V25.69c0-3.8-2.72-6.88-6.06-6.88Z"/>
        <path class="cls-78" d="m175.15,18.6H40.57c-3.34,0-6.06,3.08-6.06,6.88v152.33c0,.71.12,1.38.3,2.02v18.06h145.43v-16.33c.62-1.08.99-2.36.99-3.74V25.48c0-3.8-2.72-6.88-6.06-6.88Z"/>
        <path class="cls-84" d="m175.84,18.39H41.26c-3.34,0-6.06,3.08-6.06,6.88v152.33c0,.71.12,1.37.3,2.02v18.06h145.43v-16.33c.62-1.08.99-2.36.99-3.74V25.27c0-3.8-2.72-6.88-6.06-6.88Z"/>
        <path class="cls-71" d="m176.53,18.18H41.95c-3.34,0-6.06,3.08-6.06,6.88v152.33c0,.71.12,1.37.3,2.02v18.06h145.43v-16.33c.62-1.08.99-2.36.99-3.74V25.06c0-3.8-2.72-6.88-6.06-6.88Z"/>
        <path class="cls-8" d="m177.22,17.97H42.64c-3.34,0-6.06,3.08-6.06,6.88v152.33c0,.71.12,1.37.3,2.02v18.06h145.43v-16.33c.62-1.08.99-2.36.99-3.74V24.85c0-3.8-2.72-6.88-6.06-6.88Z"/>
        <path class="cls-20" d="m177.91,17.75H43.33c-3.34,0-6.06,3.08-6.06,6.88v152.33c0,.71.12,1.37.3,2.02v18.06h145.43v-16.33c.62-1.08.99-2.36.99-3.74V24.64c0-3.8-2.72-6.88-6.06-6.88Z"/>
        <path class="cls-33" d="m178.6,17.54H44.02c-3.34,0-6.06,3.08-6.06,6.88v152.33c0,.71.12,1.37.3,2.02v18.06h145.43v-16.33c.62-1.08.99-2.36.99-3.74V24.42c0-3.8-2.72-6.88-6.06-6.88Z"/>
        <path class="cls-50" d="m179.29,17.33H44.71c-3.34,0-6.06,3.08-6.06,6.88v152.33c0,.71.12,1.37.3,2.02v18.06h145.43v-16.33c.62-1.08.99-2.36.99-3.74V24.21c0-3.8-2.72-6.88-6.06-6.88Z"/>
        <path class="cls-37" d="m179.98,17.12H45.4c-3.34,0-6.06,3.08-6.06,6.88v152.33c0,.71.12,1.37.3,2.02v18.06h145.43v-16.33c.62-1.08.99-2.36.99-3.74V24c0-3.8-2.72-6.88-6.06-6.88Z"/>
        <path class="cls-87" d="m180.67,16.91H46.09c-3.34,0-6.06,3.08-6.06,6.88v152.33c0,.71.12,1.37.3,2.02v18.06h145.43v-16.33c.62-1.08.99-2.36.99-3.74V23.79c0-3.8-2.72-6.88-6.06-6.88Z"/>
      </g>
      <g>
        <rect class="cls-12" x="255.68" y="5.28" width="293.47" height="163.29"/>
        <rect class="cls-4" x="255.68" y="168.56" width="293.47" height="17.75"/>
        <path class="cls-58" d="m393.72,176.82c0-2.23,3.89-4.04,8.69-4.04s8.7,1.81,8.7,4.04-3.91,4.03-8.7,4.03-8.69-1.8-8.69-4.03Z"/>
        <polygon class="cls-18" points="549.69 4.66 255.13 4.66 255.13 169.18 255.68 169.18 255.68 186.31 549.14 186.31 549.14 169.18 549.69 169.18 549.69 4.66"/>
        <rect class="cls-10" x="262.36" y="12.7" width="280.1" height="148.45"/>
      </g>
      <g>
        <rect class="cls-9" x="964.67" y="7.11" width="112.97" height="162.53"/>
        <rect class="cls-61" x="964.67" y="169.64" width="112.97" height="17.66"/>
        <path class="cls-58" d="m1012.47,177.86c0-2.22,3.89-4.02,8.69-4.02s8.7,1.8,8.7,4.02-3.91,4.01-8.7,4.01-8.69-1.79-8.69-4.01Z"/>
        <polygon class="cls-18" points="1078.18 6.49 964.13 6.49 964.13 170.25 964.67 170.25 964.67 187.3 1077.64 187.3 1077.64 170.25 1078.18 170.25 1078.18 6.49"/>
        <rect class="cls-13" x="971.36" y="14.5" width="99.6" height="147.75"/>
      </g>
      <g>
        <rect class="cls-70" x="613.61" y="168.18" width="277.1" height="18.13"/>
        <rect class="cls-58" x="750.71" y="168.18" width="2.67" height="18.13"/>
        <path class="cls-58" d="m765.07,175.69c0-2.27,3.89-4.13,8.68-4.13s8.7,1.85,8.7,4.13-3.89,4.13-8.7,4.13-8.68-1.85-8.68-4.13Z"/>
        <path class="cls-58" d="m724.45,175.69c0-2.27,3.89-4.13,8.69-4.13s8.7,1.85,8.7,4.13-3.89,4.13-8.7,4.13-8.69-1.85-8.69-4.13Z"/>
        <rect class="cls-11" x="614.06" y="5.8" width="137.87" height="161.87"/>
        <g>
          <path class="cls-87" d="m740.08,141.45c0,10.29-7.33,18.64-16.38,18.64h-81.41c-9.05,0-16.38-8.35-16.38-18.64V48.83c0-10.29,7.34-18.64,16.38-18.64h81.41c9.05,0,16.38,8.35,16.38,18.64v92.62Z"/>
          <path class="cls-20" d="m738.97,140.55c0,10.09-7.19,18.27-16.06,18.27h-79.83c-8.87,0-16.06-8.18-16.06-18.27V49.73c0-10.09,7.19-18.28,16.06-18.28h79.83c8.87,0,16.06,8.18,16.06,18.28v90.81Z"/>
          <path class="cls-84" d="m737.86,139.64c0,9.89-7.05,17.91-15.74,17.91h-78.24c-8.69,0-15.74-8.02-15.74-17.91V50.63c0-9.89,7.05-17.91,15.74-17.91h78.24c8.7,0,15.74,8.02,15.74,17.91v89.01Z"/>
          <path class="cls-14" d="m736.75,138.74c0,9.69-6.9,17.55-15.43,17.55h-76.66c-8.52,0-15.43-7.86-15.43-17.55V51.54c0-9.69,6.91-17.55,15.43-17.55h76.66c8.52,0,15.43,7.86,15.43,17.55v87.21Z"/>
          <path class="cls-47" d="m735.64,137.84c0,9.49-6.76,17.19-15.11,17.19h-75.07c-8.34,0-15.11-7.69-15.11-17.19V52.44c0-9.49,6.76-17.19,15.11-17.19h75.07c8.34,0,15.11,7.7,15.11,17.19v85.4Z"/>
          <path class="cls-21" d="m734.52,136.94c0,9.29-6.62,16.82-14.79,16.82h-73.49c-8.17,0-14.79-7.53-14.79-16.82V53.34c0-9.29,6.62-16.82,14.79-16.82h73.49c8.17,0,14.79,7.53,14.79,16.82v83.6Z"/>
          <path class="cls-16" d="m733.41,136.04c0,9.09-6.48,16.46-14.47,16.46h-71.9c-7.99,0-14.47-7.37-14.47-16.46V54.24c0-9.09,6.48-16.46,14.47-16.46h71.9c7.99,0,14.47,7.37,14.47,16.46v81.79Z"/>
          <path class="cls-98" d="m732.3,135.14c0,8.89-6.33,16.1-14.15,16.1h-70.32c-7.81,0-14.15-7.21-14.15-16.1V55.14c0-8.89,6.34-16.1,14.15-16.1h70.32c7.82,0,14.15,7.21,14.15,16.1v79.99Z"/>
          <path class="cls-25" d="m731.19,134.23c0,8.69-6.19,15.73-13.83,15.73h-68.73c-7.64,0-13.83-7.04-13.83-15.73V56.05c0-8.69,6.19-15.74,13.83-15.74h68.73c7.64,0,13.83,7.05,13.83,15.74v78.19Z"/>
          <path class="cls-45" d="m730.08,133.33c0,8.49-6.05,15.37-13.51,15.37h-67.14c-7.46,0-13.51-6.88-13.51-15.37V56.95c0-8.49,6.05-15.37,13.51-15.37h67.14c7.46,0,13.51,6.88,13.51,15.37v76.38Z"/>
          <path class="cls-3" d="m728.97,132.43c0,8.29-5.91,15.01-13.19,15.01h-65.56c-7.29,0-13.19-6.72-13.19-15.01V57.85c0-8.29,5.91-15.01,13.19-15.01h65.56c7.29,0,13.19,6.72,13.19,15.01v74.58Z"/>
          <path class="cls-80" d="m727.85,131.53c0,8.09-5.76,14.64-12.87,14.64h-63.97c-7.11,0-12.87-6.56-12.87-14.64V58.75c0-8.09,5.76-14.65,12.87-14.65h63.97c7.11,0,12.87,6.56,12.87,14.65v72.78Z"/>
        </g>
        <path class="cls-92" d="m727.85,131.53c0,8.09-5.76,14.64-12.87,14.64h-63.97c-7.11,0-12.87-6.56-12.87-14.64V58.75c0-8.09,5.76-14.65,12.87-14.65h63.97c7.11,0,12.87,6.56,12.87,14.65v72.78Z"/>
        <g>
          <g>
            <ellipse class="cls-80" cx="683" cy="70" rx="9.68" ry="11.01"/>
            <path class="cls-53" d="m692.41,70c0,5.92-4.22,10.71-9.41,10.71s-9.41-4.79-9.41-10.71,4.22-10.71,9.41-10.71,9.41,4.79,9.41,10.71Z"/>
            <path class="cls-48" d="m692.15,70c0,5.75-4.1,10.41-9.15,10.41s-9.15-4.66-9.15-10.41,4.1-10.41,9.15-10.41,9.15,4.66,9.15,10.41Z"/>
            <path class="cls-14" d="m691.88,70c0,5.58-3.98,10.11-8.89,10.11s-8.89-4.53-8.89-10.11,3.98-10.11,8.89-10.11,8.89,4.53,8.89,10.11Z"/>
            <path class="cls-50" d="m691.62,70c0,5.42-3.86,9.81-8.62,9.81s-8.63-4.39-8.63-9.81,3.86-9.81,8.63-9.81,8.62,4.39,8.62,9.81Z"/>
            <path class="cls-23" d="m691.36,70c0,5.25-3.74,9.51-8.36,9.51s-8.36-4.26-8.36-9.51,3.74-9.51,8.36-9.51,8.36,4.26,8.36,9.51Z"/>
            <path class="cls-82" d="m691.09,70c0,5.09-3.62,9.21-8.1,9.21s-8.1-4.13-8.1-9.21,3.62-9.21,8.1-9.21,8.1,4.13,8.1,9.21Z"/>
            <path class="cls-81" d="m690.83,70c0,4.92-3.51,8.91-7.83,8.91s-7.84-3.99-7.84-8.91,3.51-8.91,7.84-8.91,7.83,3.99,7.83,8.91Z"/>
            <path class="cls-55" d="m690.57,70c0,4.76-3.39,8.62-7.57,8.62s-7.57-3.86-7.57-8.62,3.39-8.61,7.57-8.61,7.57,3.86,7.57,8.61Z"/>
            <path class="cls-75" d="m690.3,70c0,4.59-3.27,8.32-7.31,8.32s-7.31-3.72-7.31-8.32,3.27-8.31,7.31-8.31,7.31,3.72,7.31,8.31Z"/>
            <path class="cls-32" d="m690.04,70c0,4.43-3.15,8.02-7.04,8.02s-7.05-3.59-7.05-8.02,3.15-8.01,7.05-8.01,7.04,3.59,7.04,8.01Z"/>
            <path class="cls-63" d="m689.77,70c0,4.26-3.03,7.72-6.78,7.72s-6.78-3.46-6.78-7.72,3.03-7.71,6.78-7.71,6.78,3.46,6.78,7.71Z"/>
          </g>
          <g>
            <path class="cls-80" d="m691.22,70c0,5.17-3.68,9.36-8.23,9.36s-8.23-4.19-8.23-9.36,3.68-9.36,8.23-9.36,8.23,4.19,8.23,9.36Z"/>
            <path class="cls-53" d="m691,70c0,5.03-3.58,9.11-8,9.11s-8.01-4.08-8.01-9.11,3.58-9.1,8.01-9.1,8,4.08,8,9.1Z"/>
            <path class="cls-48" d="m690.77,70c0,4.89-3.48,8.85-7.78,8.85s-7.78-3.96-7.78-8.85,3.48-8.85,7.78-8.85,7.78,3.96,7.78,8.85Z"/>
            <path class="cls-14" d="m690.55,70c0,4.75-3.38,8.6-7.55,8.6s-7.56-3.85-7.56-8.6,3.38-8.59,7.56-8.59,7.55,3.85,7.55,8.59Z"/>
            <path class="cls-50" d="m690.33,70c0,4.61-3.28,8.34-7.33,8.34s-7.33-3.74-7.33-8.34,3.28-8.34,7.33-8.34,7.33,3.74,7.33,8.34Z"/>
            <path class="cls-23" d="m690.1,70c0,4.47-3.18,8.09-7.11,8.09s-7.11-3.62-7.11-8.09,3.18-8.08,7.11-8.08,7.11,3.62,7.11,8.08Z"/>
            <path class="cls-82" d="m689.88,70c0,4.33-3.08,7.83-6.88,7.83s-6.89-3.51-6.89-7.83,3.08-7.83,6.89-7.83,6.88,3.51,6.88,7.83Z"/>
            <path class="cls-81" d="m689.65,70c0,4.19-2.98,7.58-6.66,7.58s-6.66-3.39-6.66-7.58,2.98-7.57,6.66-7.57,6.66,3.39,6.66,7.57Z"/>
            <path class="cls-55" d="m689.43,70c0,4.05-2.88,7.32-6.43,7.32s-6.44-3.28-6.44-7.32,2.88-7.32,6.44-7.32,6.43,3.28,6.43,7.32Z"/>
            <path class="cls-75" d="m689.21,70c0,3.91-2.78,7.07-6.21,7.07s-6.22-3.16-6.22-7.07,2.78-7.07,6.22-7.07,6.21,3.16,6.21,7.07Z"/>
            <path class="cls-32" d="m688.98,70c0,3.76-2.68,6.82-5.99,6.82s-5.99-3.05-5.99-6.82,2.68-6.81,5.99-6.81,5.99,3.05,5.99,6.81Z"/>
            <path class="cls-63" d="m688.76,70c0,3.62-2.58,6.56-5.76,6.56s-5.77-2.94-5.77-6.56,2.58-6.56,5.77-6.56,5.76,2.94,5.76,6.56Z"/>
          </g>
          <g>
            <rect class="cls-80" x="682.21" y="60.64" width="1.58" height="18.72"/>
            <rect class="cls-80" x="674.77" y="69.11" width="16.46" height="1.79"/>
          </g>
        </g>
        <g>
          <g>
            <path class="cls-28" d="m703.19,12.01c.46,1.63-.34,3.37-1.77,3.89l-36.61,13.22c-1.43.52-2.96-.38-3.42-2.01l-.12-.45c-.46-1.63.34-3.37,1.77-3.89l36.61-13.22c1.43-.52,2.96.39,3.42,2.02l.12.44Z"/>
            <path class="cls-76" d="m701.82,12.44c.33,1.18-.24,2.44-1.28,2.81l-35.33,12.76c-1.04.38-2.14-.28-2.48-1.46l-.09-.32c-.33-1.18.25-2.44,1.28-2.82l35.33-12.76c1.04-.38,2.14.28,2.48,1.46l.09.33Z"/>
          </g>
          <g>
            <path class="cls-43" d="m688.21,17.18c1.05,3.76-.78,7.77-4.08,8.96-3.3,1.2-6.83-.88-7.87-4.64-1.05-3.76.78-7.77,4.08-8.96,3.3-1.19,6.82.88,7.87,4.64Z"/>
            <path class="cls-52" d="m687.99,17.26c1.01,3.62-.75,7.49-3.93,8.63-3.18,1.15-6.58-.85-7.59-4.47-1.01-3.62.75-7.49,3.93-8.63,3.18-1.15,6.58.85,7.59,4.47Z"/>
            <path class="cls-34" d="m687.78,17.34c.97,3.49-.72,7.2-3.79,8.31-3.06,1.11-6.33-.82-7.3-4.3-.97-3.48.72-7.2,3.79-8.31,3.06-1.11,6.33.82,7.3,4.3Z"/>
            <path class="cls-39" d="m687.56,17.42c.93,3.35-.69,6.92-3.64,7.99-2.94,1.07-6.09-.79-7.02-4.14-.94-3.35.69-6.92,3.64-7.99,2.94-1.06,6.08.79,7.02,4.14Z"/>
            <path class="cls-56" d="m687.35,17.49c.9,3.21-.67,6.64-3.49,7.66-2.82,1.02-5.84-.76-6.73-3.97-.9-3.21.66-6.64,3.49-7.66,2.82-1.02,5.84.76,6.74,3.97Z"/>
            <path class="cls-68" d="m687.13,17.57c.86,3.08-.64,6.36-3.34,7.34-2.7.98-5.59-.73-6.45-3.8-.86-3.08.64-6.36,3.34-7.34,2.7-.98,5.59.73,6.45,3.8Z"/>
            <path class="cls-30" d="m686.91,17.65c.82,2.94-.61,6.08-3.2,7.02-2.58.93-5.35-.69-6.17-3.63-.82-2.94.61-6.08,3.2-7.02,2.58-.93,5.34.69,6.17,3.63Z"/>
            <path class="cls-89" d="m686.7,17.73c.78,2.81-.58,5.8-3.05,6.69-2.46.89-5.1-.66-5.88-3.47-.78-2.8.58-5.8,3.05-6.69,2.47-.89,5.1.66,5.88,3.47Z"/>
            <path class="cls-41" d="m686.48,17.81c.74,2.67-.55,5.52-2.9,6.37-2.35.85-4.85-.63-5.6-3.3-.75-2.67.55-5.52,2.9-6.37,2.35-.85,4.85.63,5.6,3.3Z"/>
            <path class="cls-38" d="m686.27,17.88c.71,2.54-.53,5.24-2.75,6.05-2.23.8-4.6-.6-5.31-3.13-.71-2.53.52-5.24,2.75-6.05,2.23-.8,4.6.6,5.31,3.13Z"/>
            <path class="cls-45" d="m686.05,17.96c.67,2.4-.5,4.96-2.61,5.72-2.11.76-4.36-.57-5.03-2.97-.67-2.4.49-4.96,2.61-5.72,2.11-.76,4.36.57,5.03,2.97Z"/>
            <path class="cls-80" d="m685.83,18.04c.63,2.26-.47,4.68-2.46,5.4-1.99.72-4.11-.53-4.74-2.8-.63-2.26.47-4.68,2.46-5.4,1.99-.72,4.11.53,4.74,2.8Z"/>
          </g>
          <g>
            <path class="cls-28" d="m703.29,80.65c.45,1.63-.34,3.37-1.77,3.89l-1.97.71c-1.43.52-2.96-.39-3.42-2.02l-17.63-63.17c-.46-1.63.34-3.37,1.77-3.89l1.97-.71c1.43-.52,2.96.39,3.42,2.02l17.63,63.17Z"/>
            <path class="cls-42" d="m701.83,80.08c.31,1.09-.23,2.26-1.19,2.61l-1.32.47c-.96.35-1.99-.26-2.29-1.35l-17.32-62.04c-.31-1.09.23-2.26,1.19-2.61l1.32-.47c.96-.35,1.99.26,2.29,1.35l17.32,62.04Z"/>
          </g>
          <g>
            <g>
              <g>
                <path class="cls-43" d="m668,24.48c.88,3.15-.65,6.52-3.43,7.52-2.77,1-5.73-.75-6.61-3.9-.88-3.15.65-6.52,3.42-7.52,2.77-1,5.73.75,6.61,3.9Z"/>
                <path class="cls-52" d="m667.83,24.55c.85,3.04-.63,6.29-3.31,7.26-2.67.96-5.53-.72-6.38-3.76-.85-3.04.63-6.29,3.3-7.26,2.68-.96,5.53.72,6.38,3.76Z"/>
                <path class="cls-34" d="m667.65,24.61c.82,2.94-.61,6.07-3.19,7-2.58.93-5.33-.69-6.15-3.63-.82-2.94.61-6.07,3.19-7,2.58-.93,5.34.69,6.15,3.63Z"/>
                <path class="cls-39" d="m667.48,24.67c.79,2.83-.59,5.84-3.07,6.74-2.48.89-5.13-.67-5.92-3.49-.79-2.83.59-5.84,3.07-6.74,2.48-.89,5.14.67,5.92,3.49Z"/>
                <path class="cls-56" d="m667.3,24.73c.76,2.72-.56,5.62-2.95,6.48-2.38.86-4.94-.64-5.69-3.36-.76-2.72.56-5.62,2.95-6.48,2.39-.86,4.94.64,5.7,3.36Z"/>
                <path class="cls-68" d="m667.13,24.8c.73,2.61-.54,5.39-2.83,6.22-2.29.83-4.74-.62-5.47-3.22-.73-2.61.54-5.39,2.83-6.22,2.29-.83,4.74.62,5.47,3.22Z"/>
                <path class="cls-30" d="m666.96,24.86c.7,2.5-.52,5.16-2.71,5.96-2.19.79-4.54-.59-5.24-3.09-.7-2.5.52-5.16,2.71-5.96,2.19-.79,4.54.59,5.24,3.09Z"/>
                <path class="cls-89" d="m666.78,24.92c.67,2.39-.49,4.94-2.59,5.7-2.1.76-4.34-.56-5.01-2.95-.67-2.39.5-4.94,2.6-5.7,2.1-.76,4.34.56,5.01,2.95Z"/>
                <path class="cls-41" d="m666.61,24.99c.64,2.28-.47,4.71-2.48,5.44-2,.72-4.14-.54-4.78-2.82-.64-2.28.47-4.71,2.48-5.44,2-.72,4.14.54,4.78,2.82Z"/>
                <path class="cls-38" d="m666.43,25.05c.61,2.17-.45,4.49-2.36,5.18-1.91.69-3.94-.51-4.55-2.68-.61-2.17.45-4.49,2.36-5.18,1.91-.69,3.95.51,4.55,2.68Z"/>
                <path class="cls-45" d="m666.26,25.11c.57,2.06-.42,4.26-2.24,4.92-1.81.65-3.75-.49-4.32-2.55-.57-2.06.43-4.26,2.24-4.92,1.81-.65,3.75.49,4.32,2.55Z"/>
                <path class="cls-80" d="m666.09,25.18c.54,1.95-.4,4.03-2.12,4.66-1.71.62-3.55-.46-4.09-2.41-.54-1.95.41-4.03,2.12-4.66,1.71-.62,3.55.46,4.09,2.41Z"/>
              </g>
              <path class="cls-62" d="m666.09,25.18c.54,1.95-.4,4.03-2.12,4.66-1.71.62-3.55-.46-4.09-2.41-.54-1.95.41-4.03,2.12-4.66,1.71-.62,3.55.46,4.09,2.41Z"/>
            </g>
            <g>
              <g>
                <path class="cls-43" d="m706.5,10.58c.88,3.15-.65,6.52-3.42,7.52-2.77,1-5.73-.74-6.61-3.9s.65-6.52,3.42-7.52c2.77-1,5.73.74,6.61,3.9Z"/>
                <path class="cls-52" d="m706.33,10.64c.85,3.04-.63,6.29-3.3,7.26-2.68.96-5.53-.72-6.38-3.76s.63-6.29,3.3-7.26c2.68-.97,5.53.72,6.38,3.76Z"/>
                <path class="cls-34" d="m706.15,10.7c.82,2.93-.61,6.07-3.19,7-2.58.93-5.34-.69-6.16-3.63-.82-2.94.61-6.07,3.19-7,2.58-.93,5.34.69,6.16,3.63Z"/>
                <path class="cls-39" d="m705.98,10.76c.79,2.82-.59,5.84-3.07,6.74-2.48.89-5.14-.66-5.93-3.49s.59-5.84,3.07-6.74c2.48-.9,5.14.66,5.93,3.49Z"/>
                <path class="cls-56" d="m705.81,10.83c.76,2.71-.56,5.62-2.95,6.48-2.39.86-4.94-.64-5.7-3.36s.56-5.62,2.95-6.48c2.39-.86,4.94.64,5.7,3.36Z"/>
                <path class="cls-68" d="m705.63,10.89c.73,2.61-.54,5.39-2.83,6.22-2.29.83-4.74-.61-5.47-3.22s.54-5.39,2.83-6.22c2.29-.83,4.74.61,5.47,3.22Z"/>
                <path class="cls-30" d="m705.46,10.95c.7,2.5-.52,5.16-2.71,5.96-2.19.79-4.54-.59-5.24-3.09s.52-5.16,2.71-5.96c2.2-.79,4.54.59,5.24,3.09Z"/>
                <path class="cls-89" d="m705.29,11.01c.67,2.39-.5,4.94-2.6,5.7-2.1.76-4.34-.56-5.01-2.95s.5-4.94,2.6-5.7c2.1-.76,4.34.56,5.01,2.95Z"/>
                <path class="cls-41" d="m705.11,11.08c.64,2.28-.47,4.71-2.48,5.44-2,.72-4.14-.54-4.78-2.82-.64-2.28.47-4.71,2.48-5.44,2-.72,4.14.54,4.78,2.82Z"/>
                <path class="cls-38" d="m704.94,11.14c.61,2.17-.45,4.49-2.36,5.18-1.91.69-3.95-.51-4.55-2.68-.61-2.17.45-4.49,2.36-5.18,1.91-.69,3.95.51,4.55,2.68Z"/>
                <path class="cls-45" d="m704.77,11.2c.58,2.06-.43,4.26-2.24,4.92-1.81.65-3.75-.49-4.32-2.55-.58-2.06.43-4.26,2.24-4.92,1.81-.65,3.75.49,4.32,2.55Z"/>
                <path class="cls-80" d="m704.59,11.26c.54,1.95-.4,4.04-2.12,4.66-1.71.62-3.55-.46-4.09-2.41-.54-1.95.41-4.03,2.12-4.66,1.71-.62,3.55.46,4.09,2.41Z"/>
              </g>
              <path class="cls-59" d="m704.59,11.26c.54,1.95-.4,4.04-2.12,4.66-1.71.62-3.55-.46-4.09-2.41-.54-1.95.41-4.03,2.12-4.66,1.71-.62,3.55.46,4.09,2.41Z"/>
            </g>
          </g>
        </g>
        <rect class="cls-11" x="752.38" y="5.8" width="137.87" height="161.87"/>
        <g>
          <path class="cls-87" d="m878.41,141.45c0,10.29-7.34,18.64-16.38,18.64h-81.41c-9.05,0-16.38-8.35-16.38-18.64V48.83c0-10.29,7.33-18.64,16.38-18.64h81.41c9.05,0,16.38,8.35,16.38,18.64v92.62Z"/>
          <path class="cls-20" d="m877.29,140.55c0,10.09-7.19,18.27-16.06,18.27h-79.83c-8.87,0-16.06-8.18-16.06-18.27V49.73c0-10.09,7.19-18.28,16.06-18.28h79.83c8.87,0,16.06,8.18,16.06,18.28v90.81Z"/>
          <path class="cls-84" d="m876.18,139.64c0,9.89-7.05,17.91-15.74,17.91h-78.24c-8.7,0-15.74-8.02-15.74-17.91V50.63c0-9.89,7.05-17.91,15.74-17.91h78.24c8.69,0,15.74,8.02,15.74,17.91v89.01Z"/>
          <path class="cls-14" d="m875.07,138.74c0,9.69-6.91,17.55-15.43,17.55h-76.66c-8.52,0-15.43-7.86-15.43-17.55V51.54c0-9.69,6.9-17.55,15.43-17.55h76.66c8.52,0,15.43,7.86,15.43,17.55v87.21Z"/>
          <path class="cls-47" d="m873.96,137.84c0,9.49-6.76,17.19-15.11,17.19h-75.07c-8.34,0-15.11-7.69-15.11-17.19V52.44c0-9.49,6.76-17.19,15.11-17.19h75.07c8.34,0,15.11,7.7,15.11,17.19v85.4Z"/>
          <path class="cls-21" d="m872.85,136.94c0,9.29-6.62,16.82-14.79,16.82h-73.49c-8.17,0-14.79-7.53-14.79-16.82V53.34c0-9.29,6.62-16.82,14.79-16.82h73.49c8.17,0,14.79,7.53,14.79,16.82v83.6Z"/>
          <path class="cls-16" d="m871.74,136.04c0,9.09-6.48,16.46-14.47,16.46h-71.9c-7.99,0-14.47-7.37-14.47-16.46V54.24c0-9.09,6.48-16.46,14.47-16.46h71.9c7.99,0,14.47,7.37,14.47,16.46v81.79Z"/>
          <path class="cls-98" d="m870.62,135.14c0,8.89-6.34,16.1-14.15,16.1h-70.32c-7.82,0-14.15-7.21-14.15-16.1V55.14c0-8.89,6.33-16.1,14.15-16.1h70.32c7.81,0,14.15,7.21,14.15,16.1v79.99Z"/>
          <path class="cls-25" d="m869.51,134.23c0,8.69-6.19,15.73-13.83,15.73h-68.73c-7.64,0-13.83-7.04-13.83-15.73V56.05c0-8.69,6.19-15.74,13.83-15.74h68.73c7.64,0,13.83,7.05,13.83,15.74v78.19Z"/>
          <path class="cls-45" d="m868.4,133.33c0,8.49-6.05,15.37-13.51,15.37h-67.14c-7.46,0-13.51-6.88-13.51-15.37V56.95c0-8.49,6.05-15.37,13.51-15.37h67.14c7.46,0,13.51,6.88,13.51,15.37v76.38Z"/>
          <path class="cls-3" d="m867.29,132.43c0,8.29-5.91,15.01-13.19,15.01h-65.56c-7.29,0-13.19-6.72-13.19-15.01V57.85c0-8.29,5.91-15.01,13.19-15.01h65.56c7.29,0,13.19,6.72,13.19,15.01v74.58Z"/>
          <path class="cls-80" d="m866.18,131.53c0,8.09-5.76,14.64-12.87,14.64h-63.97c-7.11,0-12.87-6.56-12.87-14.64V58.75c0-8.09,5.76-14.65,12.87-14.65h63.97c7.11,0,12.87,6.56,12.87,14.65v72.78Z"/>
        </g>
        <path class="cls-36" d="m866.18,131.53c0,8.09-5.76,14.64-12.87,14.64h-63.97c-7.11,0-12.87-6.56-12.87-14.64V58.75c0-8.09,5.76-14.65,12.87-14.65h63.97c7.11,0,12.87,6.56,12.87,14.65v72.78Z"/>
        <g>
          <g>
            <ellipse class="cls-80" cx="821.32" cy="70" rx="9.68" ry="11.01"/>
            <path class="cls-53" d="m830.73,70c0,5.92-4.22,10.71-9.41,10.71s-9.41-4.79-9.41-10.71,4.22-10.71,9.41-10.71,9.41,4.79,9.41,10.71Z"/>
            <path class="cls-48" d="m830.47,70c0,5.75-4.1,10.41-9.15,10.41s-9.15-4.66-9.15-10.41,4.1-10.41,9.15-10.41,9.15,4.66,9.15,10.41Z"/>
            <path class="cls-14" d="m830.2,70c0,5.58-3.98,10.11-8.89,10.11s-8.89-4.53-8.89-10.11,3.98-10.11,8.89-10.11,8.89,4.53,8.89,10.11Z"/>
            <path class="cls-50" d="m829.94,70c0,5.42-3.86,9.81-8.63,9.81s-8.62-4.39-8.62-9.81,3.86-9.81,8.62-9.81,8.63,4.39,8.63,9.81Z"/>
            <path class="cls-23" d="m829.68,70c0,5.25-3.74,9.51-8.36,9.51s-8.36-4.26-8.36-9.51,3.74-9.51,8.36-9.51,8.36,4.26,8.36,9.51Z"/>
            <path class="cls-82" d="m829.41,70c0,5.09-3.62,9.21-8.1,9.21s-8.1-4.13-8.1-9.21,3.62-9.21,8.1-9.21,8.1,4.13,8.1,9.21Z"/>
            <path class="cls-81" d="m829.15,70c0,4.92-3.51,8.91-7.84,8.91s-7.83-3.99-7.83-8.91,3.51-8.91,7.83-8.91,7.84,3.99,7.84,8.91Z"/>
            <path class="cls-55" d="m828.89,70c0,4.76-3.39,8.62-7.57,8.62s-7.57-3.86-7.57-8.62,3.39-8.61,7.57-8.61,7.57,3.86,7.57,8.61Z"/>
            <path class="cls-75" d="m828.62,70c0,4.59-3.27,8.32-7.31,8.32s-7.31-3.72-7.31-8.32,3.27-8.31,7.31-8.31,7.31,3.72,7.31,8.31Z"/>
            <path class="cls-32" d="m828.36,70c0,4.43-3.15,8.02-7.05,8.02s-7.04-3.59-7.04-8.02,3.15-8.01,7.04-8.01,7.05,3.59,7.05,8.01Z"/>
            <path class="cls-63" d="m828.1,70c0,4.26-3.03,7.72-6.78,7.72s-6.78-3.46-6.78-7.72,3.03-7.71,6.78-7.71,6.78,3.46,6.78,7.71Z"/>
          </g>
          <g>
            <path class="cls-80" d="m829.55,70c0,5.17-3.68,9.36-8.23,9.36s-8.23-4.19-8.23-9.36,3.68-9.36,8.23-9.36,8.23,4.19,8.23,9.36Z"/>
            <path class="cls-53" d="m829.32,70c0,5.03-3.58,9.11-8.01,9.11s-8-4.08-8-9.11,3.58-9.1,8-9.1,8.01,4.08,8.01,9.1Z"/>
            <path class="cls-48" d="m829.1,70c0,4.89-3.48,8.85-7.78,8.85s-7.78-3.96-7.78-8.85,3.48-8.85,7.78-8.85,7.78,3.96,7.78,8.85Z"/>
            <path class="cls-14" d="m828.87,70c0,4.75-3.38,8.6-7.56,8.6s-7.55-3.85-7.55-8.6,3.38-8.59,7.55-8.59,7.56,3.85,7.56,8.59Z"/>
            <path class="cls-50" d="m828.65,70c0,4.61-3.28,8.34-7.33,8.34s-7.33-3.74-7.33-8.34,3.28-8.34,7.33-8.34,7.33,3.74,7.33,8.34Z"/>
            <path class="cls-23" d="m828.43,70c0,4.47-3.18,8.09-7.11,8.09s-7.11-3.62-7.11-8.09,3.18-8.08,7.11-8.08,7.11,3.62,7.11,8.08Z"/>
            <path class="cls-82" d="m828.2,70c0,4.33-3.08,7.83-6.89,7.83s-6.88-3.51-6.88-7.83,3.08-7.83,6.88-7.83,6.89,3.51,6.89,7.83Z"/>
            <path class="cls-81" d="m827.98,70c0,4.19-2.98,7.58-6.66,7.58s-6.66-3.39-6.66-7.58,2.98-7.57,6.66-7.57,6.66,3.39,6.66,7.57Z"/>
            <path class="cls-55" d="m827.75,70c0,4.05-2.88,7.32-6.44,7.32s-6.43-3.28-6.43-7.32,2.88-7.32,6.43-7.32,6.44,3.28,6.44,7.32Z"/>
            <path class="cls-75" d="m827.53,70c0,3.91-2.78,7.07-6.22,7.07s-6.21-3.16-6.21-7.07,2.78-7.07,6.21-7.07,6.22,3.16,6.22,7.07Z"/>
            <path class="cls-32" d="m827.31,70c0,3.76-2.68,6.82-5.99,6.82s-5.99-3.05-5.99-6.82,2.68-6.81,5.99-6.81,5.99,3.05,5.99,6.81Z"/>
            <path class="cls-63" d="m827.08,70c0,3.62-2.58,6.56-5.77,6.56s-5.76-2.94-5.76-6.56,2.58-6.56,5.76-6.56,5.77,2.94,5.77,6.56Z"/>
          </g>
          <g>
            <rect class="cls-80" x="820.53" y="60.64" width="1.58" height="18.72"/>
            <rect class="cls-80" x="813.09" y="69.11" width="16.46" height="1.79"/>
          </g>
        </g>
        <g>
          <g>
            <path class="cls-28" d="m841.03,36.33c-.96,1.32-2.68,1.52-3.84.44l-29.8-27.51c-1.16-1.07-1.34-3.02-.38-4.35l.27-.37c.95-1.32,2.67-1.52,3.84-.44l29.8,27.51c1.16,1.08,1.34,3.02.38,4.35l-.26.37Z"/>
            <path class="cls-94" d="m839.96,35.27c-.69.95-1.94,1.1-2.78.32l-28.75-26.55c-.85-.78-.97-2.19-.28-3.14l.19-.26c.69-.96,1.94-1.11,2.78-.33l28.75,26.55c.84.78.97,2.19.27,3.14l-.19.27Z"/>
          </g>
          <g>
            <path class="cls-43" d="m829.01,24.94c-2.2,3.05-6.16,3.51-8.85,1.03s-3.08-6.97-.88-10.01c2.2-3.05,6.16-3.52,8.85-1.03s3.08,6.97.88,10.02Z"/>
            <path class="cls-52" d="m828.84,24.78c-2.12,2.94-5.94,3.38-8.53.99s-2.97-6.71-.85-9.65c2.12-2.94,5.94-3.39,8.53-1s2.97,6.71.85,9.65Z"/>
            <path class="cls-34" d="m828.66,24.61c-2.04,2.83-5.71,3.26-8.21.95s-2.86-6.46-.82-9.29c2.04-2.83,5.71-3.26,8.21-.96s2.86,6.46.82,9.29Z"/>
            <path class="cls-39" d="m828.49,24.45c-1.96,2.72-5.49,3.13-7.89.92-2.39-2.21-2.75-6.21-.79-8.93,1.96-2.72,5.49-3.13,7.89-.92s2.75,6.21.79,8.93Z"/>
            <path class="cls-56" d="m828.31,24.29c-1.88,2.61-5.27,3-7.57.88s-2.64-5.96-.76-8.56c1.88-2.61,5.27-3.01,7.57-.88s2.64,5.96.76,8.57Z"/>
            <path class="cls-68" d="m828.13,24.12c-1.8,2.5-5.05,2.88-7.25.84-2.2-2.03-2.53-5.71-.72-8.2,1.8-2.5,5.05-2.88,7.25-.85,2.2,2.03,2.53,5.71.72,8.2Z"/>
            <path class="cls-30" d="m827.96,23.96c-1.72,2.39-4.82,2.75-6.93.81-2.1-1.94-2.41-5.46-.69-7.84,1.72-2.39,4.82-2.75,6.93-.81s2.41,5.46.69,7.84Z"/>
            <path class="cls-89" d="m827.78,23.8c-1.64,2.28-4.6,2.62-6.61.77-2.01-1.85-2.3-5.2-.66-7.48,1.64-2.28,4.6-2.62,6.61-.77s2.3,5.2.66,7.48Z"/>
            <path class="cls-41" d="m827.61,23.64c-1.56,2.17-4.38,2.5-6.29.73-1.91-1.76-2.19-4.95-.63-7.12,1.56-2.17,4.38-2.5,6.29-.73s2.19,4.95.63,7.12Z"/>
            <path class="cls-38" d="m827.43,23.47c-1.48,2.06-4.16,2.37-5.97.7-1.81-1.67-2.08-4.7-.6-6.75,1.49-2.06,4.16-2.37,5.97-.7s2.08,4.7.6,6.76Z"/>
            <path class="cls-45" d="m827.26,23.31c-1.4,1.95-3.93,2.24-5.65.66-1.71-1.58-1.97-4.45-.56-6.39,1.41-1.95,3.93-2.24,5.65-.66s1.97,4.45.56,6.39Z"/>
            <path class="cls-80" d="m827.08,23.15c-1.32,1.84-3.71,2.12-5.33.62-1.62-1.49-1.86-4.2-.53-6.03,1.33-1.84,3.71-2.12,5.33-.62s1.86,4.2.53,6.03Z"/>
          </g>
          <g>
            <path class="cls-28" d="m790.42,73.98c-.95,1.32-2.67,1.52-3.84.44l-1.6-1.48c-1.16-1.08-1.34-3.03-.38-4.35l36.98-51.31c.95-1.32,2.67-1.53,3.84-.45l1.6,1.48c1.17,1.08,1.34,3.02.39,4.35l-36.98,51.31Z"/>
            <path class="cls-95" d="m790.05,72.28c-.64.88-1.79,1.02-2.57.3l-1.08-.99c-.78-.72-.9-2.03-.26-2.92l36.31-50.39c.64-.88,1.79-1.02,2.57-.3l1.08.99c.78.72.9,2.03.26,2.92l-36.31,50.39Z"/>
          </g>
          <g>
            <g>
              <g>
                <path class="cls-43" d="m812.57,9.75c-1.84,2.56-5.17,2.95-7.42.87-2.26-2.08-2.59-5.84-.75-8.4,1.85-2.56,5.17-2.95,7.43-.87,2.25,2.08,2.59,5.84.74,8.4Z"/>
                <path class="cls-52" d="m812.42,9.62c-1.78,2.47-4.99,2.85-7.17.84-2.18-2.01-2.5-5.64-.72-8.11,1.78-2.47,4.99-2.84,7.17-.84,2.18,2.01,2.5,5.64.72,8.11Z"/>
                <path class="cls-34" d="m812.28,9.49c-1.72,2.38-4.81,2.75-6.91.8-2.1-1.94-2.41-5.44-.69-7.82,1.72-2.38,4.81-2.74,6.91-.8,2.1,1.94,2.41,5.44.69,7.82Z"/>
                <path class="cls-39" d="m812.14,9.35c-1.65,2.29-4.63,2.64-6.65.77-2.02-1.87-2.32-5.24-.67-7.53,1.66-2.29,4.63-2.64,6.66-.77,2.02,1.87,2.32,5.24.66,7.53Z"/>
                <path class="cls-56" d="m812,9.22c-1.59,2.2-4.45,2.54-6.4.74-1.95-1.79-2.23-5.03-.64-7.24,1.59-2.2,4.45-2.54,6.4-.74,1.94,1.79,2.23,5.03.64,7.24Z"/>
                <path class="cls-68" d="m811.86,9.09c-1.52,2.12-4.27,2.44-6.14.71-1.87-1.72-2.14-4.83-.62-6.95,1.53-2.12,4.27-2.44,6.14-.71,1.86,1.72,2.14,4.83.61,6.95Z"/>
                <path class="cls-30" d="m811.72,8.96c-1.46,2.03-4.1,2.34-5.88.68-1.79-1.65-2.05-4.63-.59-6.66,1.46-2.03,4.1-2.33,5.89-.68,1.79,1.65,2.05,4.63.59,6.66Z"/>
                <path class="cls-89" d="m811.58,8.83c-1.4,1.94-3.92,2.23-5.62.65-1.71-1.58-1.96-4.43-.57-6.37,1.4-1.94,3.92-2.23,5.63-.65,1.71,1.58,1.96,4.43.56,6.37Z"/>
                <path class="cls-41" d="m811.43,8.7c-1.33,1.85-3.74,2.13-5.37.62-1.63-1.51-1.87-4.23-.54-6.08,1.33-1.85,3.74-2.13,5.37-.62,1.63,1.51,1.87,4.23.54,6.08Z"/>
                <path class="cls-38" d="m811.29,8.57c-1.27,1.76-3.56,2.03-5.11.59-1.56-1.43-1.78-4.02-.51-5.79,1.27-1.76,3.56-2.03,5.11-.59,1.55,1.43,1.78,4.02.51,5.79Z"/>
                <path class="cls-45" d="m811.15,8.44c-1.21,1.67-3.38,1.93-4.85.56-1.48-1.36-1.69-3.82-.49-5.5,1.21-1.67,3.38-1.93,4.86-.56,1.47,1.36,1.69,3.82.48,5.5Z"/>
                <path class="cls-80" d="m811.01,8.31c-1.14,1.58-3.2,1.82-4.59.53-1.4-1.29-1.6-3.62-.46-5.21,1.14-1.58,3.2-1.82,4.6-.53,1.4,1.29,1.6,3.62.46,5.21Z"/>
              </g>
              <path class="cls-62" d="m811.01,8.31c-1.14,1.58-3.2,1.82-4.59.53-1.4-1.29-1.6-3.62-.46-5.21,1.14-1.58,3.2-1.82,4.6-.53,1.4,1.29,1.6,3.62.46,5.21Z"/>
            </g>
            <g>
              <g>
                <path class="cls-43" d="m843.9,38.68c-1.84,2.56-5.17,2.95-7.42.87-2.26-2.08-2.59-5.84-.75-8.4,1.85-2.56,5.17-2.95,7.43-.87,2.25,2.08,2.59,5.84.74,8.4Z"/>
                <path class="cls-52" d="m843.76,38.55c-1.78,2.47-4.99,2.85-7.17.84-2.18-2.01-2.5-5.64-.72-8.11,1.78-2.47,4.99-2.85,7.17-.84,2.18,2.01,2.5,5.64.72,8.11Z"/>
                <path class="cls-34" d="m843.62,38.42c-1.72,2.38-4.81,2.75-6.91.8-2.1-1.94-2.41-5.44-.69-7.82,1.72-2.38,4.81-2.75,6.91-.8,2.1,1.94,2.41,5.44.69,7.82Z"/>
                <path class="cls-39" d="m843.48,38.29c-1.65,2.29-4.63,2.64-6.65.77-2.02-1.87-2.32-5.24-.67-7.53,1.66-2.29,4.63-2.64,6.66-.77,2.02,1.87,2.32,5.24.66,7.53Z"/>
                <path class="cls-56" d="m843.34,38.16c-1.59,2.2-4.45,2.54-6.4.74-1.95-1.79-2.23-5.03-.64-7.24,1.59-2.2,4.45-2.54,6.4-.74,1.94,1.79,2.23,5.03.64,7.24Z"/>
                <path class="cls-68" d="m843.19,38.03c-1.52,2.12-4.27,2.44-6.14.71-1.87-1.72-2.14-4.83-.62-6.95,1.53-2.12,4.27-2.44,6.14-.71,1.86,1.72,2.14,4.83.61,6.95Z"/>
                <path class="cls-30" d="m843.05,37.9c-1.46,2.03-4.1,2.34-5.88.68-1.79-1.65-2.05-4.63-.59-6.66,1.46-2.03,4.1-2.34,5.89-.68,1.79,1.65,2.05,4.63.59,6.66Z"/>
                <path class="cls-89" d="m842.91,37.77c-1.4,1.94-3.92,2.23-5.62.65-1.71-1.58-1.96-4.43-.57-6.37,1.4-1.94,3.92-2.23,5.63-.65,1.71,1.58,1.96,4.43.56,6.37Z"/>
                <path class="cls-41" d="m842.77,37.64c-1.33,1.85-3.74,2.13-5.37.62-1.63-1.51-1.87-4.23-.54-6.08,1.33-1.85,3.74-2.13,5.37-.62,1.63,1.51,1.87,4.23.54,6.08Z"/>
                <path class="cls-38" d="m842.63,37.51c-1.27,1.76-3.56,2.03-5.11.59-1.56-1.43-1.78-4.02-.51-5.79,1.27-1.76,3.56-2.03,5.11-.59,1.55,1.43,1.78,4.02.51,5.79Z"/>
                <path class="cls-45" d="m842.49,37.38c-1.21,1.67-3.38,1.93-4.85.56-1.48-1.36-1.69-3.82-.49-5.5,1.21-1.67,3.38-1.93,4.86-.56,1.47,1.36,1.69,3.82.48,5.5Z"/>
                <path class="cls-80" d="m842.35,37.25c-1.14,1.58-3.2,1.82-4.59.53-1.4-1.29-1.6-3.62-.46-5.21,1.14-1.58,3.2-1.82,4.6-.53,1.4,1.29,1.6,3.62.46,5.21Z"/>
              </g>
              <path class="cls-59" d="m842.35,37.25c-1.14,1.58-3.2,1.82-4.59.53-1.4-1.29-1.6-3.62-.46-5.21,1.14-1.58,3.2-1.82,4.6-.53,1.4,1.29,1.6,3.62.46,5.21Z"/>
            </g>
          </g>
        </g>
        <rect class="cls-18" x="613.61" y="168.18" width="277.1" height="18.13"/>
      </g>
      <g>
        <rect class="cls-87" x="40.32" y="178.07" width="145.43" height="18.13"/>
        <g>
          <g>
            <ellipse class="cls-58" cx="65.51" cy="183.53" rx="6.4" ry="7.26"/>
            <path class="cls-58" d="m65.51,191.31c-3.79,0-6.87-3.49-6.87-7.79s3.08-7.79,6.87-7.79,6.87,3.5,6.87,7.79-3.08,7.79-6.87,7.79Zm0-14.52c-3.28,0-5.94,3.02-5.94,6.74s2.66,6.73,5.94,6.73,5.94-3.02,5.94-6.73-2.66-6.74-5.94-6.74Z"/>
          </g>
          <g>
            <path class="cls-58" d="m74.24,183.36c0,1.81-3.91,3.29-8.73,3.29s-8.73-1.47-8.73-3.29,3.91-3.29,8.73-3.29,8.73,1.47,8.73,3.29Z"/>
            <path class="cls-58" d="m65.51,187.17c-4.46,0-9.19-1.34-9.19-3.82s4.73-3.82,9.19-3.82,9.19,1.33,9.19,3.82-4.73,3.82-9.19,3.82Zm0-6.58c-5.12,0-8.27,1.61-8.27,2.76s3.14,2.76,8.27,2.76,8.26-1.61,8.26-2.76-3.14-2.76-8.26-2.76Z"/>
          </g>
        </g>
        <g>
          <g>
            <path class="cls-58" d="m103.45,183.53c0,4.01-2.87,7.26-6.4,7.26s-6.4-3.25-6.4-7.26,2.86-7.26,6.4-7.26,6.4,3.25,6.4,7.26Z"/>
            <path class="cls-58" d="m97.05,191.31c-3.79,0-6.87-3.49-6.87-7.79s3.08-7.79,6.87-7.79,6.87,3.5,6.87,7.79-3.08,7.79-6.87,7.79Zm0-14.52c-3.28,0-5.94,3.02-5.94,6.74s2.66,6.73,5.94,6.73,5.94-3.02,5.94-6.73-2.66-6.74-5.94-6.74Z"/>
          </g>
          <g>
            <path class="cls-58" d="m105.78,183.36c0,1.81-3.91,3.29-8.73,3.29s-8.73-1.47-8.73-3.29,3.91-3.29,8.73-3.29,8.73,1.47,8.73,3.29Z"/>
            <path class="cls-58" d="m97.05,187.17c-4.46,0-9.19-1.34-9.19-3.82s4.74-3.82,9.19-3.82,9.19,1.33,9.19,3.82-4.73,3.82-9.19,3.82Zm0-6.58c-5.12,0-8.27,1.61-8.27,2.76s3.14,2.76,8.27,2.76,8.26-1.61,8.26-2.76-3.14-2.76-8.26-2.76Z"/>
          </g>
        </g>
        <g>
          <g>
            <ellipse class="cls-58" cx="128.59" cy="183.53" rx="6.4" ry="7.26"/>
            <path class="cls-58" d="m128.59,191.31c-3.79,0-6.87-3.49-6.87-7.79s3.08-7.79,6.87-7.79,6.87,3.5,6.87,7.79-3.08,7.79-6.87,7.79Zm0-14.52c-3.28,0-5.94,3.02-5.94,6.74s2.66,6.73,5.94,6.73,5.94-3.02,5.94-6.73-2.66-6.74-5.94-6.74Z"/>
          </g>
          <g>
            <path class="cls-58" d="m137.32,183.36c0,1.81-3.91,3.29-8.73,3.29s-8.73-1.47-8.73-3.29,3.91-3.29,8.73-3.29,8.73,1.47,8.73,3.29Z"/>
            <path class="cls-58" d="m128.59,187.17c-4.46,0-9.19-1.34-9.19-3.82s4.73-3.82,9.19-3.82,9.19,1.33,9.19,3.82-4.73,3.82-9.19,3.82Zm0-6.58c-5.12,0-8.27,1.61-8.27,2.76s3.14,2.76,8.27,2.76,8.26-1.61,8.26-2.76-3.14-2.76-8.26-2.76Z"/>
          </g>
        </g>
        <g>
          <g>
            <path class="cls-58" d="m166.53,183.53c0,4.01-2.87,7.26-6.4,7.26s-6.4-3.25-6.4-7.26,2.86-7.26,6.4-7.26,6.4,3.25,6.4,7.26Z"/>
            <path class="cls-58" d="m160.13,191.31c-3.79,0-6.87-3.49-6.87-7.79s3.08-7.79,6.87-7.79,6.87,3.5,6.87,7.79-3.08,7.79-6.87,7.79Zm0-14.52c-3.28,0-5.94,3.02-5.94,6.74s2.66,6.73,5.94,6.73,5.94-3.02,5.94-6.73-2.66-6.74-5.94-6.74Z"/>
          </g>
          <g>
            <path class="cls-58" d="m168.86,183.36c0,1.81-3.91,3.29-8.73,3.29s-8.73-1.47-8.73-3.29,3.91-3.29,8.73-3.29,8.73,1.47,8.73,3.29Z"/>
            <path class="cls-58" d="m160.13,187.17c-4.46,0-9.19-1.34-9.19-3.82s4.73-3.82,9.19-3.82,9.19,1.33,9.19,3.82-4.73,3.82-9.19,3.82Zm0-6.58c-5.12,0-8.27,1.61-8.27,2.76s3.14,2.76,8.27,2.76,8.26-1.61,8.26-2.76-3.14-2.76-8.26-2.76Z"/>
          </g>
        </g>
        <g>
          <path class="cls-80" d="m180.67,182.48H46.09c-3.1,0-5.6-2.84-5.6-6.35V23.79c0-3.51,2.51-6.35,5.6-6.35h134.58c3.1,0,5.6,2.84,5.6,6.35v152.33c0,3.51-2.51,6.35-5.6,6.35Z"/>
          <path class="cls-87" d="m180.67,183H46.09c-3.34,0-6.06-3.08-6.06-6.88V23.79c0-3.8,2.72-6.88,6.06-6.88h134.58c3.34,0,6.06,3.08,6.06,6.88v152.33c0,3.79-2.72,6.88-6.06,6.88ZM46.09,17.96c-2.83,0-5.14,2.62-5.14,5.83v152.33c0,3.21,2.3,5.82,5.14,5.82h134.58c2.83,0,5.14-2.61,5.14-5.82V23.79c0-3.21-2.3-5.83-5.14-5.83H46.09Z"/>
        </g>
        <g>
          <path class="cls-27" d="m48.37,20.47h130.01c2.99,0,5.41,2.67,5.41,5.98v146.32c0,3.3-2.42,5.98-5.41,5.98H48.37c-2.99,0-5.41-2.68-5.41-5.98V26.45c0-3.3,2.42-5.98,5.41-5.98Z"/>
          <path class="cls-24" d="m48.37,19.94h130.01c3.24,0,5.87,2.92,5.87,6.51v146.32c0,3.59-2.63,6.51-5.87,6.51H48.37c-3.24,0-5.87-2.92-5.87-6.51V26.45c0-3.59,2.63-6.51,5.87-6.51Zm130.01,158.27c2.72,0,4.94-2.44,4.94-5.45V26.45c0-3.01-2.22-5.45-4.94-5.45H48.37c-2.72,0-4.95,2.45-4.95,5.45v146.32c0,3.01,2.22,5.45,4.95,5.45h130.01Z"/>
        </g>
        <g>
          <ellipse class="cls-80" cx="78.97" cy="61.32" rx="22.58" ry="25.61"/>
          <ellipse class="cls-3" cx="78.97" cy="61.32" rx="22.39" ry="25.39"/>
          <ellipse class="cls-45" cx="78.97" cy="61.32" rx="22.2" ry="25.18"/>
          <ellipse class="cls-25" cx="78.97" cy="61.32" rx="22.01" ry="24.96"/>
          <ellipse class="cls-98" cx="78.97" cy="61.32" rx="21.82" ry="24.75"/>
          <ellipse class="cls-16" cx="78.97" cy="61.32" rx="21.63" ry="24.53"/>
          <ellipse class="cls-21" cx="78.97" cy="61.32" rx="21.44" ry="24.32"/>
          <ellipse class="cls-47" cx="78.97" cy="61.32" rx="21.25" ry="24.1"/>
          <ellipse class="cls-14" cx="78.97" cy="61.32" rx="21.06" ry="23.89"/>
          <ellipse class="cls-84" cx="78.97" cy="61.32" rx="20.87" ry="23.67"/>
          <ellipse class="cls-20" cx="78.97" cy="61.32" rx="20.68" ry="23.46"/>
          <ellipse class="cls-87" cx="78.97" cy="61.32" rx="20.49" ry="23.24"/>
          <ellipse class="cls-20" cx="78.97" cy="61.32" rx="20.23" ry="22.94"/>
          <ellipse class="cls-84" cx="78.97" cy="61.32" rx="19.96" ry="22.64"/>
          <ellipse class="cls-14" cx="78.97" cy="61.32" rx="19.7" ry="22.34"/>
          <ellipse class="cls-47" cx="78.97" cy="61.32" rx="19.43" ry="22.04"/>
          <ellipse class="cls-21" cx="78.97" cy="61.32" rx="19.17" ry="21.74"/>
          <ellipse class="cls-16" cx="78.97" cy="61.32" rx="18.91" ry="21.44"/>
          <ellipse class="cls-98" cx="78.97" cy="61.32" rx="18.64" ry="21.14"/>
          <ellipse class="cls-25" cx="78.97" cy="61.32" rx="18.38" ry="20.84"/>
          <ellipse class="cls-45" cx="78.97" cy="61.32" rx="18.11" ry="20.54"/>
          <ellipse class="cls-3" cx="78.97" cy="61.32" rx="17.85" ry="20.24"/>
          <ellipse class="cls-80" cx="78.97" cy="61.32" rx="17.58" ry="19.94"/>
        </g>
        <ellipse class="cls-58" cx="78.97" cy="61.32" rx="15.43" ry="17.5"/>
        <g>
          <path class="cls-80" d="m168.34,61.32c0,12.57-8.98,22.75-20.06,22.75s-20.06-10.18-20.06-22.75,8.98-22.75,20.06-22.75,20.06,10.18,20.06,22.75Z"/>
          <path class="cls-3" d="m168.17,61.32c0,12.46-8.91,22.56-19.89,22.56s-19.89-10.1-19.89-22.56,8.91-22.56,19.89-22.56,19.89,10.1,19.89,22.56Z"/>
          <path class="cls-45" d="m168,61.32c0,12.36-8.83,22.37-19.72,22.37s-19.72-10.01-19.72-22.37,8.83-22.37,19.72-22.37,19.72,10.01,19.72,22.37Z"/>
          <path class="cls-25" d="m167.83,61.32c0,12.25-8.75,22.18-19.56,22.18s-19.56-9.93-19.56-22.18,8.76-22.18,19.56-22.18,19.56,9.93,19.56,22.18Z"/>
          <path class="cls-98" d="m167.66,61.32c0,12.14-8.68,21.99-19.39,21.99s-19.39-9.84-19.39-21.99,8.68-21.99,19.39-21.99,19.39,9.84,19.39,21.99Z"/>
          <path class="cls-16" d="m167.5,61.32c0,12.04-8.6,21.79-19.22,21.79s-19.22-9.75-19.22-21.79,8.61-21.8,19.22-21.8,19.22,9.76,19.22,21.8Z"/>
          <path class="cls-21" d="m167.33,61.32c0,11.93-8.53,21.6-19.05,21.6s-19.05-9.67-19.05-21.6,8.53-21.61,19.05-21.61,19.05,9.67,19.05,21.61Z"/>
          <path class="cls-47" d="m167.16,61.32c0,11.83-8.45,21.41-18.88,21.41s-18.88-9.58-18.88-21.41,8.45-21.41,18.88-21.41,18.88,9.59,18.88,21.41Z"/>
          <path class="cls-14" d="m166.99,61.32c0,11.72-8.38,21.22-18.71,21.22s-18.71-9.5-18.71-21.22,8.38-21.22,18.71-21.22,18.71,9.5,18.71,21.22Z"/>
          <path class="cls-84" d="m166.82,61.32c0,11.62-8.3,21.03-18.55,21.03s-18.54-9.41-18.54-21.03,8.3-21.03,18.54-21.03,18.55,9.42,18.55,21.03Z"/>
          <path class="cls-20" d="m166.65,61.32c0,11.51-8.23,20.84-18.38,20.84s-18.37-9.33-18.37-20.84,8.23-20.84,18.37-20.84,18.38,9.33,18.38,20.84Z"/>
          <path class="cls-87" d="m166.49,61.32c0,11.41-8.15,20.65-18.21,20.65s-18.21-9.24-18.21-20.65,8.15-20.65,18.21-20.65,18.21,9.24,18.21,20.65Z"/>
          <path class="cls-20" d="m166.25,61.32c0,11.26-8.05,20.38-17.97,20.38s-17.97-9.12-17.97-20.38,8.05-20.38,17.97-20.38,17.97,9.13,17.97,20.38Z"/>
          <path class="cls-84" d="m166.01,61.32c0,11.11-7.94,20.11-17.74,20.11s-17.74-9-17.74-20.11,7.94-20.12,17.74-20.12,17.74,9.01,17.74,20.12Z"/>
          <path class="cls-14" d="m165.78,61.32c0,10.96-7.84,19.85-17.5,19.85s-17.5-8.88-17.5-19.85,7.84-19.85,17.5-19.85,17.5,8.89,17.5,19.85Z"/>
          <path class="cls-47" d="m165.54,61.32c0,10.82-7.73,19.58-17.27,19.58s-17.27-8.76-17.27-19.58,7.73-19.58,17.27-19.58,17.27,8.77,17.27,19.58Z"/>
          <path class="cls-21" d="m165.31,61.32c0,10.67-7.62,19.31-17.03,19.31s-17.03-8.64-17.03-19.31,7.62-19.32,17.03-19.32,17.03,8.65,17.03,19.32Z"/>
          <path class="cls-16" d="m165.07,61.32c0,10.52-7.52,19.05-16.8,19.05s-16.8-8.53-16.8-19.05,7.52-19.05,16.8-19.05,16.8,8.53,16.8,19.05Z"/>
          <path class="cls-98" d="m164.84,61.32c0,10.37-7.41,18.78-16.56,18.78s-16.56-8.41-16.56-18.78,7.41-18.78,16.56-18.78,16.56,8.41,16.56,18.78Z"/>
          <path class="cls-25" d="m164.6,61.32c0,10.23-7.31,18.51-16.33,18.51s-16.33-8.29-16.33-18.51,7.31-18.51,16.33-18.51,16.33,8.29,16.33,18.51Z"/>
          <path class="cls-45" d="m164.37,61.32c0,10.08-7.2,18.25-16.09,18.25s-16.09-8.17-16.09-18.25,7.2-18.25,16.09-18.25,16.09,8.17,16.09,18.25Z"/>
          <path class="cls-3" d="m164.13,61.32c0,9.93-7.1,17.98-15.85,17.98s-15.86-8.05-15.86-17.98,7.1-17.98,15.86-17.98,15.85,8.05,15.85,17.98Z"/>
          <path class="cls-80" d="m163.9,61.32c0,9.78-6.99,17.71-15.62,17.71s-15.62-7.93-15.62-17.71,6.99-17.71,15.62-17.71,15.62,7.93,15.62,17.71Z"/>
        </g>
        <path class="cls-58" d="m161.99,61.32c0,8.58-6.14,15.54-13.71,15.54s-13.71-6.96-13.71-15.54,6.14-15.55,13.71-15.55,13.71,6.96,13.71,15.55Z"/>
        <g>
          <path class="cls-80" d="m95.44,138.97c0,10.31-7.37,18.67-16.47,18.67s-16.47-8.36-16.47-18.67,7.37-18.68,16.47-18.68,16.47,8.36,16.47,18.68Z"/>
          <path class="cls-3" d="m95.3,138.97c0,10.23-7.31,18.52-16.33,18.52s-16.33-8.29-16.33-18.52,7.31-18.52,16.33-18.52,16.33,8.29,16.33,18.52Z"/>
          <path class="cls-45" d="m95.16,138.97c0,10.14-7.25,18.36-16.19,18.36s-16.19-8.22-16.19-18.36,7.25-18.36,16.19-18.36,16.19,8.22,16.19,18.36Z"/>
          <path class="cls-25" d="m95.03,138.97c0,10.05-7.19,18.2-16.06,18.2s-16.05-8.15-16.05-18.2,7.19-18.21,16.05-18.21,16.06,8.15,16.06,18.21Z"/>
          <path class="cls-98" d="m94.89,138.97c0,9.97-7.12,18.05-15.92,18.05s-15.91-8.08-15.91-18.05,7.12-18.05,15.91-18.05,15.92,8.08,15.92,18.05Z"/>
          <path class="cls-16" d="m94.75,138.97c0,9.88-7.06,17.89-15.78,17.89s-15.77-8.01-15.77-17.89,7.06-17.89,15.77-17.89,15.78,8.01,15.78,17.89Z"/>
          <path class="cls-21" d="m94.61,138.97c0,9.79-7,17.73-15.64,17.73s-15.64-7.94-15.64-17.73,7-17.74,15.64-17.74,15.64,7.94,15.64,17.74Z"/>
          <path class="cls-47" d="m94.47,138.97c0,9.71-6.94,17.57-15.5,17.57s-15.5-7.87-15.5-17.57,6.94-17.58,15.5-17.58,15.5,7.87,15.5,17.58Z"/>
          <path class="cls-14" d="m94.33,138.97c0,9.62-6.88,17.42-15.36,17.42s-15.36-7.8-15.36-17.42,6.88-17.42,15.36-17.42,15.36,7.8,15.36,17.42Z"/>
          <path class="cls-84" d="m94.2,138.97c0,9.53-6.82,17.26-15.23,17.26s-15.22-7.73-15.22-17.26,6.82-17.27,15.22-17.27,15.23,7.73,15.23,17.27Z"/>
          <path class="cls-20" d="m94.06,138.97c0,9.45-6.75,17.1-15.09,17.1s-15.08-7.66-15.08-17.1,6.75-17.11,15.08-17.11,15.09,7.66,15.09,17.11Z"/>
          <path class="cls-87" d="m93.92,138.97c0,9.36-6.69,16.95-14.95,16.95s-14.94-7.59-14.94-16.95,6.69-16.95,14.94-16.95,14.95,7.59,14.95,16.95Z"/>
          <path class="cls-20" d="m93.73,138.97c0,9.24-6.6,16.73-14.75,16.73s-14.75-7.49-14.75-16.73,6.61-16.73,14.75-16.73,14.75,7.49,14.75,16.73Z"/>
          <path class="cls-84" d="m93.53,138.97c0,9.12-6.52,16.51-14.56,16.51s-14.56-7.39-14.56-16.51,6.52-16.51,14.56-16.51,14.56,7.39,14.56,16.51Z"/>
          <path class="cls-14" d="m93.34,138.97c0,9-6.43,16.29-14.37,16.29s-14.37-7.29-14.37-16.29,6.43-16.29,14.37-16.29,14.37,7.29,14.37,16.29Z"/>
          <path class="cls-47" d="m93.15,138.97c0,8.87-6.34,16.07-14.17,16.07s-14.17-7.2-14.17-16.07,6.35-16.07,14.17-16.07,14.17,7.19,14.17,16.07Z"/>
          <path class="cls-21" d="m92.95,138.97c0,8.75-6.26,15.85-13.98,15.85s-13.98-7.1-13.98-15.85,6.26-15.86,13.98-15.86,13.98,7.1,13.98,15.86Z"/>
          <path class="cls-16" d="m92.76,138.97c0,8.63-6.17,15.63-13.79,15.63s-13.79-7-13.79-15.63,6.17-15.64,13.79-15.64,13.79,7,13.79,15.64Z"/>
          <path class="cls-98" d="m92.57,138.97c0,8.51-6.08,15.42-13.59,15.42s-13.59-6.9-13.59-15.42,6.09-15.42,13.59-15.42,13.59,6.9,13.59,15.42Z"/>
          <path class="cls-25" d="m92.37,138.97c0,8.39-6,15.2-13.4,15.2s-13.4-6.8-13.4-15.2,6-15.2,13.4-15.2,13.4,6.8,13.4,15.2Z"/>
          <path class="cls-45" d="m92.18,138.97c0,8.27-5.91,14.98-13.21,14.98s-13.21-6.71-13.21-14.98,5.91-14.98,13.21-14.98,13.21,6.7,13.21,14.98Z"/>
          <path class="cls-3" d="m91.98,138.97c0,8.15-5.82,14.76-13.01,14.76s-13.01-6.61-13.01-14.76,5.83-14.76,13.01-14.76,13.01,6.6,13.01,14.76Z"/>
          <ellipse class="cls-80" cx="78.97" cy="138.97" rx="12.82" ry="14.54"/>
        </g>
        <ellipse class="cls-58" cx="78.97" cy="138.97" rx="11.25" ry="12.76"/>
        <g>
          <path class="cls-80" d="m161.35,138.97c0,8.19-5.85,14.82-13.07,14.82s-13.07-6.63-13.07-14.82,5.85-14.82,13.07-14.82,13.07,6.63,13.07,14.82Z"/>
          <path class="cls-3" d="m161.24,138.97c0,8.12-5.8,14.7-12.96,14.7s-12.96-6.58-12.96-14.7,5.8-14.7,12.96-14.7,12.96,6.58,12.96,14.7Z"/>
          <path class="cls-45" d="m161.13,138.97c0,8.05-5.75,14.57-12.85,14.57s-12.85-6.52-12.85-14.57,5.75-14.57,12.85-14.57,12.85,6.52,12.85,14.57Z"/>
          <path class="cls-25" d="m161.02,138.97c0,7.98-5.7,14.45-12.74,14.45s-12.74-6.47-12.74-14.45,5.7-14.45,12.74-14.45,12.74,6.47,12.74,14.45Z"/>
          <path class="cls-98" d="m160.91,138.97c0,7.91-5.65,14.32-12.63,14.32s-12.63-6.41-12.63-14.32,5.65-14.32,12.63-14.32,12.63,6.41,12.63,14.32Z"/>
          <path class="cls-16" d="m160.8,138.97c0,7.84-5.6,14.2-12.52,14.2s-12.52-6.36-12.52-14.2,5.6-14.2,12.52-14.2,12.52,6.36,12.52,14.2Z"/>
          <path class="cls-21" d="m160.69,138.97c0,7.77-5.56,14.07-12.41,14.07s-12.41-6.3-12.41-14.07,5.56-14.07,12.41-14.07,12.41,6.3,12.41,14.07Z"/>
          <path class="cls-47" d="m160.58,138.97c0,7.71-5.51,13.95-12.3,13.95s-12.3-6.24-12.3-13.95,5.51-13.95,12.3-13.95,12.3,6.24,12.3,13.95Z"/>
          <path class="cls-14" d="m160.47,138.97c0,7.64-5.46,13.83-12.19,13.83s-12.19-6.19-12.19-13.83,5.46-13.83,12.19-13.83,12.19,6.19,12.19,13.83Z"/>
          <path class="cls-84" d="m160.36,138.97c0,7.57-5.41,13.7-12.08,13.7s-12.08-6.13-12.08-13.7,5.41-13.7,12.08-13.7,12.08,6.13,12.08,13.7Z"/>
          <path class="cls-20" d="m160.25,138.97c0,7.5-5.36,13.58-11.97,13.58s-11.97-6.08-11.97-13.58,5.36-13.58,11.97-13.58,11.97,6.08,11.97,13.58Z"/>
          <path class="cls-87" d="m160.14,138.97c0,7.43-5.31,13.45-11.86,13.45s-11.86-6.02-11.86-13.45,5.31-13.45,11.86-13.45,11.86,6.02,11.86,13.45Z"/>
          <path class="cls-20" d="m159.99,138.97c0,7.33-5.24,13.28-11.71,13.28s-11.71-5.94-11.71-13.28,5.24-13.28,11.71-13.28,11.71,5.94,11.71,13.28Z"/>
          <path class="cls-84" d="m159.83,138.97c0,7.24-5.17,13.1-11.56,13.1s-11.56-5.87-11.56-13.1,5.17-13.1,11.56-13.1,11.56,5.87,11.56,13.1Z"/>
          <path class="cls-14" d="m159.68,138.97c0,7.14-5.11,12.93-11.4,12.93s-11.4-5.79-11.4-12.93,5.1-12.93,11.4-12.93,11.4,5.79,11.4,12.93Z"/>
          <path class="cls-47" d="m159.53,138.97c0,7.05-5.04,12.76-11.25,12.76s-11.25-5.71-11.25-12.76,5.04-12.76,11.25-12.76,11.25,5.71,11.25,12.76Z"/>
          <path class="cls-21" d="m159.37,138.97c0,6.95-4.97,12.58-11.1,12.58s-11.1-5.63-11.1-12.58,4.97-12.58,11.1-12.58,11.1,5.63,11.1,12.58Z"/>
          <path class="cls-16" d="m159.22,138.97c0,6.85-4.9,12.41-10.94,12.41s-10.94-5.55-10.94-12.41,4.9-12.41,10.94-12.41,10.94,5.56,10.94,12.41Z"/>
          <path class="cls-98" d="m159.07,138.97c0,6.76-4.83,12.23-10.79,12.23s-10.79-5.48-10.79-12.23,4.83-12.24,10.79-12.24,10.79,5.48,10.79,12.24Z"/>
          <path class="cls-25" d="m158.91,138.97c0,6.66-4.76,12.06-10.64,12.06s-10.64-5.4-10.64-12.06,4.76-12.06,10.64-12.06,10.64,5.4,10.64,12.06Z"/>
          <path class="cls-45" d="m158.76,138.97c0,6.56-4.7,11.89-10.48,11.89s-10.48-5.32-10.48-11.89,4.69-11.89,10.48-11.89,10.48,5.33,10.48,11.89Z"/>
          <path class="cls-3" d="m158.61,138.97c0,6.47-4.63,11.71-10.33,11.71s-10.33-5.24-10.33-11.71,4.62-11.72,10.33-11.72,10.33,5.25,10.33,11.72Z"/>
          <path class="cls-80" d="m158.46,138.97c0,6.37-4.56,11.54-10.18,11.54s-10.18-5.17-10.18-11.54,4.56-11.54,10.18-11.54,10.18,5.17,10.18,11.54Z"/>
        </g>
        <path class="cls-58" d="m157.21,138.97c0,5.59-4,10.12-8.93,10.12s-8.93-4.53-8.93-10.12,4-10.13,8.93-10.13,8.93,4.53,8.93,10.13Z"/>
        <g>
          <path class="cls-58" d="m109.53,99.58h-61.13c-1.91,0-3.47-1.74-3.47-3.86V26.92c0-2.13,1.56-3.86,3.47-3.86h61.13c1.91,0,3.47,1.73,3.47,3.86v68.8c0,2.13-1.56,3.86-3.47,3.86ZM48.41,25.16c-.89,0-1.62.79-1.62,1.76v68.8c0,.97.73,1.76,1.62,1.76h61.13c.89,0,1.62-.79,1.62-1.76V26.92c0-.97-.72-1.76-1.62-1.76h-61.13Z"/>
          <g>
            <path class="cls-58" d="m56.93,62.37h-10.41c-.51,0-.93-.47-.93-1.05s.41-1.05.93-1.05h10.41c.51,0,.93.47.93,1.05s-.42,1.05-.93,1.05Z"/>
            <path class="cls-58" d="m111.42,62.37h-10.41c-.51,0-.93-.47-.93-1.05s.41-1.05.93-1.05h10.41c.51,0,.93.47.93,1.05s-.42,1.05-.93,1.05Z"/>
          </g>
          <g>
            <path class="cls-58" d="m78.97,98.18c-.51,0-.93-.47-.93-1.05v-11.23c0-.58.41-1.05.93-1.05s.93.47.93,1.05v11.23c0,.58-.41,1.05-.93,1.05Z"/>
            <path class="cls-58" d="m78.97,37.79c-.51,0-.93-.47-.93-1.05v-11.23c0-.58.41-1.05.93-1.05s.93.47.93,1.05v11.23c0,.58-.41,1.05-.93,1.05Z"/>
          </g>
        </g>
        <g>
          <path class="cls-58" d="m178.84,99.58h-61.13c-1.91,0-3.47-1.74-3.47-3.86V26.92c0-2.13,1.56-3.86,3.47-3.86h61.13c1.92,0,3.47,1.73,3.47,3.86v68.8c0,2.13-1.56,3.86-3.47,3.86ZM117.71,25.16c-.89,0-1.61.79-1.61,1.76v68.8c0,.97.72,1.76,1.61,1.76h61.13c.89,0,1.62-.79,1.62-1.76V26.92c0-.97-.72-1.76-1.62-1.76h-61.13Z"/>
          <g>
            <path class="cls-58" d="m128.1,62.37h-12.26c-.51,0-.93-.47-.93-1.05s.41-1.05.93-1.05h12.26c.51,0,.93.47.93,1.05s-.42,1.05-.93,1.05Z"/>
            <path class="cls-58" d="m180.72,62.37h-12.27c-.51,0-.93-.47-.93-1.05s.41-1.05.93-1.05h12.27c.51,0,.93.47.93,1.05s-.42,1.05-.93,1.05Z"/>
          </g>
          <g>
            <path class="cls-58" d="m148.28,98.18c-.51,0-.93-.47-.93-1.05v-13.34c0-.58.42-1.05.93-1.05s.93.47.93,1.05v13.34c0,.58-.41,1.05-.93,1.05Z"/>
            <path class="cls-58" d="m148.28,39.9c-.51,0-.93-.47-.93-1.05v-13.34c0-.58.42-1.05.93-1.05s.93.47.93,1.05v13.34c0,.58-.41,1.05-.93,1.05Z"/>
          </g>
        </g>
        <g>
          <path class="cls-58" d="m109.53,177.22h-61.13c-1.91,0-3.47-1.74-3.47-3.87v-68.79c0-2.13,1.56-3.87,3.47-3.87h61.13c1.91,0,3.47,1.74,3.47,3.87v68.79c0,2.13-1.56,3.87-3.47,3.87Zm-61.13-74.42c-.89,0-1.62.79-1.62,1.76v68.79c0,.97.73,1.76,1.62,1.76h61.13c.89,0,1.62-.79,1.62-1.76v-68.79c0-.97-.72-1.76-1.62-1.76h-61.13Z"/>
          <g>
            <path class="cls-58" d="m62.5,140.02h-15.97c-.51,0-.93-.47-.93-1.05s.41-1.05.93-1.05h15.97c.51,0,.93.47.93,1.05s-.41,1.05-.93,1.05Z"/>
            <path class="cls-58" d="m111.42,140.02h-15.99c-.51,0-.93-.47-.93-1.05s.41-1.05.93-1.05h15.99c.51,0,.93.47.93,1.05s-.42,1.05-.93,1.05Z"/>
          </g>
          <g>
            <path class="cls-58" d="m78.97,175.83c-.51,0-.93-.47-.93-1.05v-16.5c0-.58.41-1.05.93-1.05s.93.47.93,1.05v16.5c0,.58-.41,1.05-.93,1.05Z"/>
            <path class="cls-58" d="m78.97,120.7c-.51,0-.93-.47-.93-1.05v-16.5c0-.58.41-1.05.93-1.05s.93.47.93,1.05v16.5c0,.58-.41,1.05-.93,1.05Z"/>
          </g>
        </g>
        <g>
          <path class="cls-58" d="m178.84,177.22h-61.13c-1.91,0-3.47-1.74-3.47-3.87v-68.79c0-2.13,1.56-3.87,3.47-3.87h61.13c1.92,0,3.47,1.74,3.47,3.87v68.79c0,2.13-1.56,3.87-3.47,3.87Zm-61.13-74.42c-.89,0-1.61.79-1.61,1.76v68.79c0,.97.72,1.76,1.61,1.76h61.13c.89,0,1.62-.79,1.62-1.76v-68.79c0-.97-.72-1.76-1.62-1.76h-61.13Z"/>
          <g>
            <path class="cls-58" d="m133.66,140.02h-17.83c-.51,0-.93-.47-.93-1.05s.41-1.05.93-1.05h17.83c.51,0,.93.47.93,1.05s-.41,1.05-.93,1.05Z"/>
            <path class="cls-58" d="m180.72,140.02h-17.84c-.51,0-.93-.47-.93-1.05s.42-1.05.93-1.05h17.84c.51,0,.93.47.93,1.05s-.42,1.05-.93,1.05Z"/>
          </g>
          <g>
            <path class="cls-58" d="m148.28,175.83c-.51,0-.93-.47-.93-1.05v-19.66c0-.58.42-1.05.93-1.05s.93.47.93,1.05v19.66c0,.58-.41,1.05-.93,1.05Z"/>
            <path class="cls-58" d="m148.28,123.86c-.51,0-.93-.47-.93-1.05v-19.66c0-.58.42-1.05.93-1.05s.93.47.93,1.05v19.66c0,.58-.41,1.05-.93,1.05Z"/>
          </g>
        </g>
      </g>
      <path class="cls-74" d="m480.61,57.51l-65.43,12.73c-3.91.76-6.53,4.96-5.87,9.4l7.97,52.68c.67,4.43,4.38,7.4,8.28,6.64l65.43-12.72c3.91-.76,6.53-4.96,5.87-9.4l-7.97-52.68c-.67-4.43-4.38-7.4-8.28-6.64Zm4.14,30.36c1.99-.38,3.88,1.13,4.22,3.38.34,2.26-.99,4.41-2.99,4.8-1.99.38-3.88-1.13-4.22-3.39-.34-2.25,1-4.4,2.99-4.79Z"/>
      <g>
        <path class="cls-17" d="m452.45,111.13c.37-1.21-.24-2.56-1.32-2.95h0c-1.09-.43-2.26.22-2.62,1.45l-11.31,38.17c-.36,1.23.25,2.55,1.34,2.96h0c1.09.43,2.26-.22,2.63-1.48l11.27-38.15Z"/>
        <path class="cls-1" d="m432.6,110.94c-5.46-1.54-10.79,1.05-12.05,6-1.25,4.94,2.04,10.35,7.38,12.35l4.66-18.35Z"/>
        <path class="cls-1" d="m420.68,97.59c1.4,6.18,5.94,10.27,10.37,9.18,4.43-1.09,7.07-6.95,6.08-13.22l-16.45,4.05Z"/>
        <path class="cls-1" d="m437.56,80.06c0,5.3-4.97,9.6-11.11,9.6s-11.11-4.3-11.11-9.6,4.98-9.6,11.11-9.6,11.11,4.3,11.11,9.6Z"/>
        <path class="cls-1" d="m452.73,70.8c3.45,2.57,3.85,8.79.9,13.9-2.95,5.11-8.14,7.18-11.6,4.61-3.45-2.56-3.85-8.79-.9-13.9,2.96-5.12,8.15-7.18,11.6-4.62Z"/>
        <polygon class="cls-1" points="468.54 95.93 464.47 94.51 470.53 72.16 474.6 73.57 468.54 95.93"/>
        <polygon class="cls-1" points="468.79 106.36 465.03 104.13 474.55 83.39 478.33 85.62 468.79 106.36"/>
        <polygon class="cls-1" points="465.54 92.92 461.34 92.22 464.39 69.09 468.59 69.8 465.54 92.92"/>
        <polygon class="cls-1" points="472.26 122.42 468.05 121.71 471.1 98.58 475.31 99.29 472.26 122.42"/>
        <polygon class="cls-1" points="478.85 104.76 474.65 104.05 477.68 80.93 481.89 81.63 478.85 104.76"/>
        <polygon class="cls-1" points="460.17 112.33 455.96 111.61 458.99 88.48 463.21 89.19 460.17 112.33"/>
        <polygon class="cls-1" points="485.55 123.28 481.3 123.39 480.89 99.99 485.15 99.91 485.55 123.28"/>
      </g>
    </g>
  </g>
</svg>