<?xml version="1.0" encoding="UTF-8"?>
<svg id="Layer_1" data-name="Layer 1" xmlns="http://www.w3.org/2000/svg" viewBox="0 0 132.17 80.84">
  <defs>
    <style>
      .cls-1 {
        fill: #f0f0f0;
      }

      .cls-2 {
        fill: #f4f4f4;
      }

      .cls-3 {
        fill: #fff;
      }

      .cls-4 {
        fill: #fafafa;
      }

      .cls-5 {
        fill: #ecedec;
      }

      .cls-6 {
        fill: #e9eae9;
      }

      .cls-7 {
        fill: #f6f6f6;
      }

      .cls-8 {
        fill: #939598;
      }

      .cls-9 {
        fill: #f5f5f5;
      }

      .cls-10 {
        fill: #ebecec;
      }

      .cls-11 {
        fill: #e6e7e7;
      }

      .cls-12 {
        fill: #eff0ef;
      }

      .cls-13 {
        fill: #6e6f72;
      }

      .cls-14 {
        fill: #cdcdcf;
      }

      .cls-15 {
        fill: #fafbf9;
      }

      .cls-15, .cls-16 {
        stroke: #27281f;
        stroke-linecap: round;
        stroke-linejoin: round;
        stroke-width: .72px;
      }

      .cls-17 {
        fill: #e5e6e6;
      }

      .cls-18 {
        fill: #e7e8e7;
      }

      .cls-19 {
        fill: #eaeaea;
      }

      .cls-20 {
        fill: #fdfdfd;
      }

      .cls-21 {
        fill: #f8f8f7;
      }

      .cls-22 {
        fill: #f9f9f9;
      }

      .cls-23 {
        fill: #ebebeb;
      }

      .cls-24 {
        fill: #818285;
      }

      .cls-25 {
        fill: #edeeed;
      }

      .cls-26 {
        fill: #eeefee;
      }

      .cls-27 {
        fill: #f1f1f1;
      }

      .cls-28 {
        fill: #27281f;
      }

      .cls-29 {
        fill: #f3f3f3;
      }

      .cls-16 {
        fill: none;
      }

      .cls-30 {
        fill: #e8e9e8;
      }

      .cls-31 {
        fill: #f2f2f2;
      }

      .cls-32 {
        fill: #fcfcfc;
      }
    </style>
  </defs>
  <rect class="cls-8" x="4.13" y="4.13" width="128.04" height="76.7"/>
  <g>
    <rect class="cls-15" x=".72" y=".36" width="128.04" height="76.7"/>
    <g>
      <g>
        <g>
          <polygon class="cls-17" points="6.55 39.28 6.68 40.06 6.68 40.71 6.81 41.5 7.07 42.28 7.2 43.06 7.59 43.72 7.85 44.5 8.25 45.29 8.77 46.07 9.29 46.72 9.81 47.51 10.21 47.9 10.47 48.16 11.25 48.94 12.04 49.6 12.82 50.25 13.6 50.9 14.52 51.56 15.56 52.08 16.61 52.6 17.65 53.26 18.7 53.65 19.87 54.17 21.05 54.56 22.23 54.95 23.53 55.35 24.84 55.61 26.02 55.87 27.45 56 28.76 56.26 30.07 56.26 31.37 56.39 32.81 56.39 34.12 56.39 35.42 56.26 36.73 56.26 38.17 56 39.47 55.87 40.78 55.61 41.96 55.35 43.26 54.95 44.44 54.56 45.61 54.17 46.79 53.65 47.84 53.26 48.88 52.6 49.93 52.08 50.97 51.56 51.89 50.9 52.67 50.25 53.58 49.6 54.24 48.94 55.02 48.16 55.67 47.51 55.94 47.12 56.2 46.72 56.72 46.07 57.24 45.29 57.63 44.5 57.9 43.72 58.29 43.06 58.55 42.28 58.68 41.5 58.81 40.71 58.94 40.06 58.94 39.28 58.94 38.49 58.81 37.84 58.68 37.05 58.55 36.27 58.29 35.49 57.9 34.83 57.63 34.05 57.24 33.27 56.72 32.61 56.2 31.83 55.67 31.04 55.28 30.78 55.02 30.39 54.63 30 54.24 29.61 53.58 28.95 52.67 28.3 51.89 27.65 50.97 26.99 49.93 26.47 48.88 25.95 47.84 25.43 46.79 24.9 45.61 24.38 44.44 23.99 43.26 23.6 41.96 23.34 40.78 22.94 39.47 22.68 38.17 22.55 36.73 22.42 35.42 22.29 34.12 22.16 32.81 22.16 31.37 22.16 30.07 22.29 28.76 22.42 27.45 22.55 26.02 22.68 24.84 22.94 23.53 23.34 22.23 23.6 21.05 23.99 19.87 24.38 18.7 24.9 17.65 25.43 16.61 25.95 15.56 26.47 14.52 26.99 13.6 27.65 12.82 28.3 12.04 28.95 11.25 29.61 10.86 30 10.47 30.39 10.21 30.78 9.81 31.04 9.29 31.83 8.77 32.61 8.25 33.27 7.85 34.05 7.59 34.83 7.2 35.49 7.07 36.27 6.81 37.05 6.68 37.84 6.68 38.49 6.55 39.28 6.55 39.28"/>
          <polygon class="cls-11" points="6.77 39.22 6.9 39.99 6.9 40.64 7.03 41.42 7.29 42.2 7.42 42.97 7.81 43.62 8.07 44.4 8.46 45.17 8.98 45.95 9.49 46.6 10.01 47.38 10.4 47.77 10.66 48.02 11.44 48.8 12.22 49.45 12.99 50.1 13.77 50.74 14.68 51.39 15.71 51.91 16.75 52.43 17.78 53.08 18.82 53.46 19.99 53.98 21.15 54.37 22.32 54.76 23.61 55.15 24.91 55.41 26.07 55.67 27.5 55.8 28.79 56.05 30.09 56.05 31.38 56.18 32.81 56.18 34.1 56.18 35.4 56.05 36.69 56.05 38.12 55.8 39.41 55.67 40.71 55.41 41.88 55.15 43.17 54.76 44.34 54.37 45.5 53.98 46.67 53.46 47.7 53.08 48.74 52.43 49.78 51.91 50.81 51.39 51.72 50.74 52.5 50.1 53.4 49.45 54.05 48.8 54.83 48.02 55.48 47.38 55.73 46.99 55.99 46.6 56.51 45.95 57.03 45.17 57.42 44.4 57.68 43.62 58.07 42.97 58.33 42.2 58.45 41.42 58.58 40.64 58.71 39.99 58.71 39.22 58.71 38.44 58.58 37.79 58.45 37.01 58.33 36.24 58.07 35.46 57.68 34.81 57.42 34.04 57.03 33.26 56.51 32.61 55.99 31.83 55.48 31.06 55.09 30.8 54.83 30.41 54.44 30.02 54.05 29.63 53.4 28.98 52.5 28.34 51.72 27.69 50.81 27.04 49.78 26.52 48.74 26.01 47.7 25.49 46.67 24.97 45.5 24.45 44.34 24.06 43.17 23.67 41.88 23.41 40.71 23.03 39.41 22.77 38.12 22.64 36.69 22.51 35.4 22.38 34.1 22.25 32.81 22.25 31.38 22.25 30.09 22.38 28.79 22.51 27.5 22.64 26.07 22.77 24.91 23.03 23.61 23.41 22.32 23.67 21.15 24.06 19.99 24.45 18.82 24.97 17.78 25.49 16.75 26.01 15.71 26.52 14.68 27.04 13.77 27.69 12.99 28.34 12.22 28.98 11.44 29.63 11.05 30.02 10.66 30.41 10.4 30.8 10.01 31.06 9.49 31.83 8.98 32.61 8.46 33.26 8.07 34.04 7.81 34.81 7.42 35.46 7.29 36.24 7.03 37.01 6.9 37.79 6.9 38.44 6.77 39.22 6.77 39.22"/>
          <polygon class="cls-18" points="7 39.16 7.13 39.93 7.13 40.57 7.26 41.34 7.52 42.11 7.64 42.88 8.03 43.52 8.29 44.29 8.67 45.06 9.18 45.83 9.7 46.48 10.21 47.25 10.6 47.63 10.85 47.89 11.62 48.66 12.39 49.3 13.16 49.94 13.94 50.58 14.83 51.23 15.86 51.74 16.89 52.25 17.92 52.9 18.94 53.28 20.1 53.79 21.25 54.18 22.41 54.56 23.69 54.95 24.98 55.21 26.13 55.46 27.54 55.59 28.83 55.85 30.11 55.85 31.4 55.98 32.81 55.98 34.09 55.98 35.38 55.85 36.66 55.85 38.07 55.59 39.36 55.46 40.64 55.21 41.8 54.95 43.08 54.56 44.24 54.18 45.39 53.79 46.55 53.28 47.57 52.9 48.6 52.25 49.63 51.74 50.66 51.23 51.55 50.58 52.32 49.94 53.22 49.3 53.86 48.66 54.64 47.89 55.28 47.25 55.53 46.86 55.79 46.48 56.3 45.83 56.82 45.06 57.2 44.29 57.46 43.52 57.85 42.88 58.1 42.11 58.23 41.34 58.36 40.57 58.49 39.93 58.49 39.16 58.49 38.39 58.36 37.75 58.23 36.97 58.1 36.2 57.85 35.43 57.46 34.79 57.2 34.02 56.82 33.25 56.3 32.61 55.79 31.84 55.28 31.07 54.89 30.81 54.64 30.43 54.25 30.04 53.86 29.66 53.22 29.01 52.32 28.37 51.55 27.73 50.66 27.09 49.63 26.57 48.6 26.06 47.57 25.55 46.55 25.03 45.39 24.52 44.24 24.14 43.08 23.75 41.8 23.49 40.64 23.11 39.36 22.85 38.07 22.72 36.66 22.59 35.38 22.47 34.09 22.34 32.81 22.34 31.4 22.34 30.11 22.47 28.83 22.59 27.54 22.72 26.13 22.85 24.98 23.11 23.69 23.49 22.41 23.75 21.25 24.14 20.1 24.52 18.94 25.03 17.92 25.55 16.89 26.06 15.86 26.57 14.83 27.09 13.94 27.73 13.16 28.37 12.39 29.01 11.62 29.66 11.24 30.04 10.85 30.43 10.6 30.81 10.21 31.07 9.7 31.84 9.18 32.61 8.67 33.25 8.29 34.02 8.03 34.79 7.64 35.43 7.52 36.2 7.26 36.97 7.13 37.75 7.13 38.39 7 39.16 7 39.16"/>
          <polygon class="cls-30" points="7.23 39.1 7.36 39.86 7.36 40.5 7.48 41.26 7.74 42.03 7.87 42.79 8.25 43.43 8.5 44.19 8.88 44.95 9.39 45.72 9.9 46.35 10.41 47.12 10.79 47.5 11.05 47.75 11.81 48.52 12.57 49.15 13.34 49.79 14.1 50.42 14.99 51.06 16.01 51.57 17.03 52.08 18.05 52.72 19.06 53.1 20.21 53.61 21.35 53.99 22.5 54.37 23.77 54.75 25.05 55.01 26.19 55.26 27.59 55.39 28.86 55.64 30.14 55.64 31.41 55.77 32.81 55.77 34.08 55.77 35.35 55.64 36.63 55.64 38.03 55.39 39.3 55.26 40.57 55.01 41.72 54.75 42.99 54.37 44.13 53.99 45.28 53.61 46.42 53.1 47.44 52.72 48.46 52.08 49.48 51.57 50.5 51.06 51.39 50.42 52.15 49.79 53.04 49.15 53.68 48.52 54.44 47.75 55.08 47.12 55.33 46.73 55.59 46.35 56.1 45.72 56.61 44.95 56.99 44.19 57.24 43.43 57.62 42.79 57.88 42.03 58.01 41.26 58.13 40.5 58.26 39.86 58.26 39.1 58.26 38.33 58.13 37.7 58.01 36.93 57.88 36.17 57.62 35.41 57.24 34.77 56.99 34.01 56.61 33.24 56.1 32.61 55.59 31.84 55.08 31.08 54.7 30.83 54.44 30.44 54.06 30.06 53.68 29.68 53.04 29.04 52.15 28.41 51.39 27.77 50.5 27.14 49.48 26.63 48.46 26.12 47.44 25.61 46.42 25.1 45.28 24.59 44.13 24.21 42.99 23.83 41.72 23.57 40.57 23.19 39.3 22.94 38.03 22.81 36.63 22.68 35.35 22.55 34.08 22.43 32.81 22.43 31.41 22.43 30.14 22.55 28.86 22.68 27.59 22.81 26.19 22.94 25.05 23.19 23.77 23.57 22.5 23.83 21.35 24.21 20.21 24.59 19.06 25.1 18.05 25.61 17.03 26.12 16.01 26.63 14.99 27.14 14.1 27.77 13.34 28.41 12.57 29.04 11.81 29.68 11.43 30.06 11.05 30.44 10.79 30.83 10.41 31.08 9.9 31.84 9.39 32.61 8.88 33.24 8.5 34.01 8.25 34.77 7.87 35.41 7.74 36.17 7.48 36.93 7.36 37.7 7.36 38.33 7.23 39.1 7.23 39.1"/>
          <polygon class="cls-6" points="7.46 39.04 7.58 39.8 7.58 40.43 7.71 41.18 7.96 41.94 8.09 42.7 8.46 43.33 8.72 44.08 9.1 44.84 9.6 45.6 10.1 46.23 10.61 46.99 10.99 47.36 11.24 47.62 12 48.37 12.75 49 13.51 49.63 14.27 50.26 15.15 50.9 16.16 51.4 17.17 51.9 18.18 52.53 19.19 52.91 20.32 53.42 21.46 53.8 22.59 54.17 23.85 54.55 25.11 54.81 26.25 55.06 27.64 55.18 28.9 55.44 30.16 55.44 31.42 55.56 32.81 55.56 34.07 55.56 35.33 55.44 36.59 55.44 37.98 55.18 39.24 55.06 40.5 54.81 41.64 54.55 42.9 54.17 44.03 53.8 45.17 53.42 46.3 52.91 47.31 52.53 48.32 51.9 49.33 51.4 50.34 50.9 51.22 50.26 51.98 49.63 52.86 49 53.49 48.37 54.25 47.62 54.88 46.99 55.13 46.61 55.38 46.23 55.89 45.6 56.39 44.84 56.77 44.08 57.02 43.33 57.4 42.7 57.65 41.94 57.78 41.18 57.91 40.43 58.03 39.8 58.03 39.04 58.03 38.28 57.91 37.65 57.78 36.89 57.65 36.14 57.4 35.38 57.02 34.75 56.77 33.99 56.39 33.24 55.89 32.61 55.38 31.85 54.88 31.09 54.5 30.84 54.25 30.46 53.87 30.08 53.49 29.71 52.86 29.07 51.98 28.44 51.22 27.81 50.34 27.18 49.33 26.68 48.32 26.17 47.31 25.67 46.3 25.16 45.17 24.66 44.03 24.28 42.9 23.9 41.64 23.65 40.5 23.27 39.24 23.02 37.98 22.89 36.59 22.77 35.33 22.64 34.07 22.52 32.81 22.52 31.42 22.52 30.16 22.64 28.9 22.77 27.64 22.89 26.25 23.02 25.11 23.27 23.85 23.65 22.59 23.9 21.46 24.28 20.32 24.66 19.19 25.16 18.18 25.67 17.17 26.17 16.16 26.68 15.15 27.18 14.27 27.81 13.51 28.44 12.75 29.07 12 29.71 11.62 30.08 11.24 30.46 10.99 30.84 10.61 31.09 10.1 31.85 9.6 32.61 9.1 33.24 8.72 33.99 8.46 34.75 8.09 35.38 7.96 36.14 7.71 36.89 7.58 37.65 7.58 38.28 7.46 39.04 7.46 39.04"/>
          <polygon class="cls-19" points="7.68 38.98 7.81 39.73 7.81 40.35 7.93 41.1 8.18 41.85 8.31 42.6 8.68 43.23 8.93 43.98 9.31 44.73 9.81 45.48 10.31 46.1 10.81 46.85 11.18 47.23 11.43 47.48 12.18 48.23 12.93 48.85 13.68 49.48 14.43 50.1 15.31 50.73 16.31 51.23 17.31 51.73 18.31 52.35 19.31 52.73 20.43 53.23 21.56 53.6 22.68 53.98 23.93 54.35 25.18 54.6 26.31 54.85 27.68 54.98 28.93 55.23 30.18 55.23 31.43 55.35 32.81 55.35 34.06 55.35 35.31 55.23 36.56 55.23 37.93 54.98 39.18 54.85 40.43 54.6 41.56 54.35 42.81 53.98 43.93 53.6 45.06 53.23 46.18 52.73 47.18 52.35 48.18 51.73 49.18 51.23 50.18 50.73 51.06 50.1 51.81 49.48 52.68 48.85 53.31 48.23 54.06 47.48 54.68 46.85 54.93 46.48 55.18 46.1 55.68 45.48 56.18 44.73 56.56 43.98 56.81 43.23 57.18 42.6 57.43 41.85 57.56 41.1 57.68 40.35 57.81 39.73 57.81 38.98 57.81 38.23 57.68 37.6 57.56 36.85 57.43 36.1 57.18 35.35 56.81 34.73 56.56 33.98 56.18 33.23 55.68 32.6 55.18 31.85 54.68 31.1 54.31 30.86 54.06 30.48 53.68 30.11 53.31 29.73 52.68 29.1 51.81 28.48 51.06 27.86 50.18 27.23 49.18 26.73 48.18 26.23 47.18 25.73 46.18 25.23 45.06 24.73 43.93 24.36 42.81 23.98 41.56 23.73 40.43 23.36 39.18 23.11 37.93 22.98 36.56 22.86 35.31 22.73 34.06 22.61 32.81 22.61 31.43 22.61 30.18 22.73 28.93 22.86 27.68 22.98 26.31 23.11 25.18 23.36 23.93 23.73 22.68 23.98 21.56 24.36 20.43 24.73 19.31 25.23 18.31 25.73 17.31 26.23 16.31 26.73 15.31 27.23 14.43 27.86 13.68 28.48 12.93 29.1 12.18 29.73 11.81 30.11 11.43 30.48 11.18 30.86 10.81 31.1 10.31 31.85 9.81 32.6 9.31 33.23 8.93 33.98 8.68 34.73 8.31 35.35 8.18 36.1 7.93 36.85 7.81 37.6 7.81 38.23 7.68 38.98 7.68 38.98"/>
          <polygon class="cls-23" points="7.91 38.92 8.03 39.66 8.03 40.28 8.16 41.03 8.4 41.77 8.53 42.51 8.9 43.13 9.15 43.88 9.52 44.62 10.02 45.36 10.51 45.98 11.01 46.72 11.38 47.1 11.63 47.34 12.37 48.09 13.11 48.71 13.85 49.33 14.6 49.94 15.47 50.56 16.46 51.06 17.45 51.55 18.44 52.17 19.43 52.55 20.54 53.04 21.66 53.41 22.77 53.78 24.01 54.16 25.25 54.4 26.37 54.65 27.73 54.78 28.97 55.02 30.21 55.02 31.44 55.15 32.81 55.15 34.04 55.15 35.28 55.02 36.52 55.02 37.88 54.78 39.12 54.65 40.36 54.4 41.48 54.16 42.72 53.78 43.83 53.41 44.95 53.04 46.06 52.55 47.05 52.17 48.04 51.55 49.03 51.06 50.02 50.56 50.89 49.94 51.63 49.33 52.5 48.71 53.12 48.09 53.86 47.34 54.48 46.72 54.73 46.35 54.98 45.98 55.47 45.36 55.97 44.62 56.34 43.88 56.59 43.13 56.96 42.51 57.21 41.77 57.33 41.03 57.46 40.28 57.58 39.66 57.58 38.92 57.58 38.18 57.46 37.56 57.33 36.81 57.21 36.07 56.96 35.33 56.59 34.71 56.34 33.97 55.97 33.22 55.47 32.6 54.98 31.86 54.48 31.12 54.11 30.87 53.86 30.5 53.49 30.13 53.12 29.75 52.5 29.14 51.63 28.52 50.89 27.9 50.02 27.28 49.03 26.78 48.04 26.29 47.05 25.79 46.06 25.3 44.95 24.8 43.83 24.43 42.72 24.06 41.48 23.81 40.36 23.44 39.12 23.19 37.88 23.07 36.52 22.94 35.28 22.82 34.04 22.69 32.81 22.69 31.44 22.69 30.21 22.82 28.97 22.94 27.73 23.07 26.37 23.19 25.25 23.44 24.01 23.81 22.77 24.06 21.66 24.43 20.54 24.8 19.43 25.3 18.44 25.79 17.45 26.29 16.46 26.78 15.47 27.28 14.6 27.9 13.85 28.52 13.11 29.14 12.37 29.75 12 30.13 11.63 30.5 11.38 30.87 11.01 31.12 10.51 31.86 10.02 32.6 9.52 33.22 9.15 33.97 8.9 34.71 8.53 35.33 8.4 36.07 8.16 36.81 8.03 37.56 8.03 38.18 7.91 38.92 7.91 38.92"/>
          <polygon class="cls-10" points="8.14 38.86 8.26 39.6 8.26 40.21 8.38 40.95 8.63 41.68 8.75 42.42 9.12 43.03 9.36 43.77 9.73 44.51 10.22 45.24 10.71 45.86 11.2 46.59 11.57 46.96 11.82 47.21 12.55 47.94 13.29 48.56 14.03 49.17 14.76 49.78 15.62 50.4 16.6 50.89 17.59 51.38 18.57 51.99 19.55 52.36 20.66 52.85 21.76 53.22 22.86 53.59 24.09 53.96 25.32 54.2 26.42 54.45 27.77 54.57 29 54.82 30.23 54.82 31.46 54.94 32.81 54.94 34.03 54.94 35.26 54.82 36.49 54.82 37.84 54.57 39.07 54.45 40.29 54.2 41.4 53.96 42.62 53.59 43.73 53.22 44.83 52.85 45.94 52.36 46.92 51.99 47.9 51.38 48.88 50.89 49.87 50.4 50.73 49.78 51.46 49.17 52.32 48.56 52.93 47.94 53.67 47.21 54.28 46.59 54.53 46.23 54.78 45.86 55.27 45.24 55.76 44.51 56.13 43.77 56.37 43.03 56.74 42.42 56.98 41.68 57.11 40.95 57.23 40.21 57.35 39.6 57.35 38.86 57.35 38.12 57.23 37.51 57.11 36.77 56.98 36.04 56.74 35.3 56.37 34.69 56.13 33.95 55.76 33.22 55.27 32.6 54.78 31.87 54.28 31.13 53.92 30.88 53.67 30.52 53.3 30.15 52.93 29.78 52.32 29.17 51.46 28.55 50.73 27.94 49.87 27.32 48.88 26.83 47.9 26.34 46.92 25.85 45.94 25.36 44.83 24.87 43.73 24.5 42.62 24.13 41.4 23.89 40.29 23.52 39.07 23.27 37.84 23.15 36.49 23.03 35.26 22.91 34.03 22.78 32.81 22.78 31.46 22.78 30.23 22.91 29 23.03 27.77 23.15 26.42 23.27 25.32 23.52 24.09 23.89 22.86 24.13 21.76 24.5 20.66 24.87 19.55 25.36 18.57 25.85 17.59 26.34 16.6 26.83 15.62 27.32 14.76 27.94 14.03 28.55 13.29 29.17 12.55 29.78 12.19 30.15 11.82 30.52 11.57 30.88 11.2 31.13 10.71 31.87 10.22 32.6 9.73 33.22 9.36 33.95 9.12 34.69 8.75 35.3 8.63 36.04 8.38 36.77 8.26 37.51 8.26 38.12 8.14 38.86 8.14 38.86"/>
          <polygon class="cls-5" points="8.36 38.8 8.48 39.53 8.48 40.14 8.61 40.87 8.85 41.6 8.97 42.33 9.34 42.94 9.58 43.67 9.94 44.4 10.43 45.13 10.92 45.73 11.4 46.46 11.77 46.83 12.01 47.07 12.74 47.8 13.47 48.41 14.2 49.02 14.93 49.62 15.78 50.23 16.75 50.72 17.73 51.21 18.7 51.81 19.67 52.18 20.77 52.66 21.86 53.03 22.96 53.39 24.17 53.76 25.39 54 26.48 54.25 27.82 54.37 29.04 54.61 30.25 54.61 31.47 54.73 32.81 54.73 34.02 54.73 35.24 54.61 36.45 54.61 37.79 54.37 39.01 54.25 40.22 54 41.32 53.76 42.53 53.39 43.63 53.03 44.72 52.66 45.82 52.18 46.79 51.81 47.76 51.21 48.74 50.72 49.71 50.23 50.56 49.62 51.29 49.02 52.14 48.41 52.75 47.8 53.48 47.07 54.09 46.46 54.33 46.1 54.57 45.73 55.06 45.13 55.54 44.4 55.91 43.67 56.15 42.94 56.52 42.33 56.76 41.6 56.88 40.87 57 40.14 57.13 39.53 57.13 38.8 57.13 38.07 57 37.46 56.88 36.73 56.76 36.01 56.52 35.28 56.15 34.67 55.91 33.94 55.54 33.21 55.06 32.6 54.57 31.87 54.09 31.14 53.72 30.9 53.48 30.53 53.11 30.17 52.75 29.8 52.14 29.2 51.29 28.59 50.56 27.98 49.71 27.37 48.74 26.89 47.76 26.4 46.79 25.91 45.82 25.43 44.72 24.94 43.63 24.57 42.53 24.21 41.32 23.97 40.22 23.6 39.01 23.36 37.79 23.24 36.45 23.12 35.24 22.99 34.02 22.87 32.81 22.87 31.47 22.87 30.25 22.99 29.04 23.12 27.82 23.24 26.48 23.36 25.39 23.6 24.17 23.97 22.96 24.21 21.86 24.57 20.77 24.94 19.67 25.43 18.7 25.91 17.73 26.4 16.75 26.89 15.78 27.37 14.93 27.98 14.2 28.59 13.47 29.2 12.74 29.8 12.38 30.17 12.01 30.53 11.77 30.9 11.4 31.14 10.92 31.87 10.43 32.6 9.94 33.21 9.58 33.94 9.34 34.67 8.97 35.28 8.85 36.01 8.61 36.73 8.48 37.46 8.48 38.07 8.36 38.8 8.36 38.8"/>
          <polygon class="cls-25" points="8.59 38.74 8.71 39.47 8.71 40.07 8.83 40.79 9.07 41.51 9.19 42.24 9.55 42.84 9.79 43.56 10.16 44.28 10.64 45.01 11.12 45.61 11.6 46.33 11.96 46.69 12.2 46.94 12.93 47.66 13.65 48.26 14.37 48.86 15.1 49.46 15.94 50.07 16.9 50.55 17.87 51.03 18.83 51.63 19.79 51.99 20.88 52.48 21.96 52.84 23.05 53.2 24.25 53.56 25.46 53.8 26.54 54.04 27.87 54.16 29.07 54.4 30.27 54.4 31.48 54.52 32.8 54.52 34.01 54.52 35.21 54.4 36.42 54.4 37.74 54.16 38.95 54.04 40.15 53.8 41.24 53.56 42.44 53.2 43.53 52.84 44.61 52.48 45.7 51.99 46.66 51.63 47.62 51.03 48.59 50.55 49.55 50.07 50.39 49.46 51.12 48.86 51.96 48.26 52.56 47.66 53.28 46.94 53.89 46.33 54.13 45.97 54.37 45.61 54.85 45.01 55.33 44.28 55.69 43.56 55.94 42.84 56.3 42.24 56.54 41.51 56.66 40.79 56.78 40.07 56.9 39.47 56.9 38.74 56.9 38.02 56.78 37.42 56.66 36.69 56.54 35.97 56.3 35.25 55.94 34.65 55.69 33.92 55.33 33.2 54.85 32.6 54.37 31.88 53.89 31.15 53.53 30.91 53.28 30.55 52.92 30.19 52.56 29.83 51.96 29.23 51.12 28.62 50.39 28.02 49.55 27.42 48.59 26.94 47.62 26.45 46.66 25.97 45.7 25.49 44.61 25.01 43.53 24.65 42.44 24.29 41.24 24.05 40.15 23.68 38.95 23.44 37.74 23.32 36.42 23.2 35.21 23.08 34.01 22.96 32.8 22.96 31.48 22.96 30.27 23.08 29.07 23.2 27.87 23.32 26.54 23.44 25.46 23.68 24.25 24.05 23.05 24.29 21.96 24.65 20.88 25.01 19.79 25.49 18.83 25.97 17.87 26.45 16.9 26.94 15.94 27.42 15.1 28.02 14.37 28.62 13.65 29.23 12.93 29.83 12.57 30.19 12.2 30.55 11.96 30.91 11.6 31.15 11.12 31.88 10.64 32.6 10.16 33.2 9.79 33.92 9.55 34.65 9.19 35.25 9.07 35.97 8.83 36.69 8.71 37.42 8.71 38.02 8.59 38.74 8.59 38.74"/>
          <polygon class="cls-26" points="8.82 38.68 8.94 39.4 8.94 40 9.06 40.71 9.29 41.43 9.41 42.14 9.77 42.74 10.01 43.46 10.37 44.17 10.85 44.89 11.32 45.49 11.8 46.2 12.16 46.56 12.4 46.8 13.11 47.51 13.83 48.11 14.55 48.71 15.26 49.31 16.1 49.9 17.05 50.38 18.01 50.86 18.96 51.45 19.92 51.81 20.99 52.29 22.06 52.65 23.14 53 24.33 53.36 25.52 53.6 26.6 53.84 27.91 53.96 29.1 54.2 30.3 54.2 31.49 54.32 32.8 54.32 34 54.32 35.19 54.2 36.38 54.2 37.7 53.96 38.89 53.84 40.08 53.6 41.16 53.36 42.35 53 43.43 52.65 44.5 52.29 45.57 51.81 46.53 51.45 47.48 50.86 48.44 50.38 49.39 49.9 50.23 49.31 50.94 48.71 51.78 48.11 52.38 47.51 53.09 46.8 53.69 46.2 53.93 45.84 54.17 45.49 54.64 44.89 55.12 44.17 55.48 43.46 55.72 42.74 56.08 42.14 56.31 41.43 56.43 40.71 56.55 40 56.67 39.4 56.67 38.68 56.67 37.97 56.55 37.37 56.43 36.66 56.31 35.94 56.08 35.22 55.72 34.63 55.48 33.91 55.12 33.19 54.64 32.6 54.17 31.88 53.69 31.17 53.33 30.93 53.09 30.57 52.73 30.21 52.38 29.85 51.78 29.26 50.94 28.66 50.23 28.06 49.39 27.47 48.44 26.99 47.48 26.51 46.53 26.03 45.57 25.56 44.5 25.08 43.43 24.72 42.35 24.36 41.16 24.12 40.08 23.77 38.89 23.53 37.7 23.41 36.38 23.29 35.19 23.17 34 23.05 32.8 23.05 31.49 23.05 30.3 23.17 29.1 23.29 27.91 23.41 26.6 23.53 25.52 23.77 24.33 24.12 23.14 24.36 22.06 24.72 20.99 25.08 19.92 25.56 18.96 26.03 18.01 26.51 17.05 26.99 16.1 27.47 15.26 28.06 14.55 28.66 13.83 29.26 13.11 29.85 12.75 30.21 12.4 30.57 12.16 30.93 11.8 31.17 11.32 31.88 10.85 32.6 10.37 33.19 10.01 33.91 9.77 34.63 9.41 35.22 9.29 35.94 9.06 36.66 8.94 37.37 8.94 37.97 8.82 38.68 8.82 38.68"/>
          <polygon class="cls-12" points="9.04 38.62 9.16 39.33 9.16 39.92 9.28 40.63 9.52 41.34 9.63 42.05 9.99 42.64 10.23 43.35 10.58 44.06 11.05 44.77 11.53 45.36 12 46.07 12.35 46.43 12.59 46.66 13.3 47.37 14.01 47.96 14.72 48.55 15.43 49.15 16.25 49.74 17.2 50.21 18.15 50.68 19.09 51.27 20.04 51.63 21.1 52.1 22.16 52.46 23.23 52.81 24.41 53.16 25.59 53.4 26.66 53.64 27.96 53.76 29.14 53.99 30.32 53.99 31.5 54.11 32.8 54.11 33.99 54.11 35.17 53.99 36.35 53.99 37.65 53.76 38.83 53.64 40.01 53.4 41.08 53.16 42.26 52.81 43.32 52.46 44.39 52.1 45.45 51.63 46.4 51.27 47.34 50.68 48.29 50.21 49.23 49.74 50.06 49.15 50.77 48.55 51.6 47.96 52.19 47.37 52.9 46.66 53.49 46.07 53.73 45.72 53.96 45.36 54.44 44.77 54.91 44.06 55.26 43.35 55.5 42.64 55.85 42.05 56.09 41.34 56.21 40.63 56.33 39.92 56.45 39.33 56.45 38.62 56.45 37.92 56.33 37.32 56.21 36.62 56.09 35.91 55.85 35.2 55.5 34.61 55.26 33.9 54.91 33.19 54.44 32.6 53.96 31.89 53.49 31.18 53.14 30.94 52.9 30.59 52.54 30.23 52.19 29.88 51.6 29.29 50.77 28.7 50.06 28.1 49.23 27.51 48.29 27.04 47.34 26.57 46.4 26.09 45.45 25.62 44.39 25.15 43.32 24.79 42.26 24.44 41.08 24.2 40.01 23.85 38.83 23.61 37.65 23.49 36.35 23.38 35.17 23.26 33.99 23.14 32.8 23.14 31.5 23.14 30.32 23.26 29.14 23.38 27.96 23.49 26.66 23.61 25.59 23.85 24.41 24.2 23.23 24.44 22.16 24.79 21.1 25.15 20.04 25.62 19.09 26.09 18.15 26.57 17.2 27.04 16.25 27.51 15.43 28.1 14.72 28.7 14.01 29.29 13.3 29.88 12.94 30.23 12.59 30.59 12.35 30.94 12 31.18 11.53 31.89 11.05 32.6 10.58 33.19 10.23 33.9 9.99 34.61 9.63 35.2 9.52 35.91 9.28 36.62 9.16 37.32 9.16 37.92 9.04 38.62 9.04 38.62"/>
          <polygon class="cls-1" points="9.27 38.57 9.39 39.27 9.39 39.85 9.5 40.56 9.74 41.26 9.86 41.96 10.21 42.55 10.44 43.25 10.79 43.95 11.26 44.65 11.73 45.24 12.2 45.94 12.55 46.29 12.78 46.53 13.49 47.23 14.19 47.81 14.89 48.4 15.59 48.99 16.41 49.57 17.35 50.04 18.29 50.51 19.22 51.09 20.16 51.44 21.21 51.91 22.27 52.26 23.32 52.61 24.49 52.97 25.66 53.2 26.71 53.43 28 53.55 29.17 53.79 30.34 53.79 31.52 53.9 32.8 53.9 33.97 53.9 35.14 53.79 36.32 53.79 37.6 53.55 38.77 53.43 39.94 53.2 41 52.97 42.17 52.61 43.22 52.26 44.28 51.91 45.33 51.44 46.27 51.09 47.2 50.51 48.14 50.04 49.08 49.57 49.9 48.99 50.6 48.4 51.42 47.81 52 47.23 52.71 46.53 53.29 45.94 53.53 45.59 53.76 45.24 54.23 44.65 54.7 43.95 55.05 43.25 55.28 42.55 55.63 41.96 55.87 41.26 55.98 40.56 56.1 39.85 56.22 39.27 56.22 38.57 56.22 37.86 56.1 37.28 55.98 36.58 55.87 35.87 55.63 35.17 55.28 34.58 55.05 33.88 54.7 33.18 54.23 32.59 53.76 31.89 53.29 31.19 52.94 30.96 52.71 30.6 52.35 30.25 52 29.9 51.42 29.32 50.6 28.73 49.9 28.15 49.08 27.56 48.14 27.09 47.2 26.62 46.27 26.16 45.33 25.69 44.28 25.22 43.22 24.87 42.17 24.52 41 24.28 39.94 23.93 38.77 23.7 37.6 23.58 36.32 23.46 35.14 23.35 33.97 23.23 32.8 23.23 31.52 23.23 30.34 23.35 29.17 23.46 28 23.58 26.71 23.7 25.66 23.93 24.49 24.28 23.32 24.52 22.27 24.87 21.21 25.22 20.16 25.69 19.22 26.16 18.29 26.62 17.35 27.09 16.41 27.56 15.59 28.15 14.89 28.73 14.19 29.32 13.49 29.9 13.13 30.25 12.78 30.6 12.55 30.96 12.2 31.19 11.73 31.89 11.26 32.59 10.79 33.18 10.44 33.88 10.21 34.58 9.86 35.17 9.74 35.87 9.5 36.58 9.39 37.28 9.39 37.86 9.27 38.57 9.27 38.57"/>
          <polygon class="cls-27" points="9.5 38.51 9.61 39.2 9.61 39.78 9.73 40.48 9.96 41.17 10.08 41.87 10.42 42.45 10.66 43.14 11 43.84 11.47 44.54 11.93 45.12 12.4 45.81 12.74 46.16 12.98 46.39 13.67 47.09 14.37 47.67 15.06 48.25 15.76 48.83 16.57 49.41 17.5 49.87 18.43 50.33 19.35 50.91 20.28 51.26 21.32 51.72 22.37 52.07 23.41 52.42 24.57 52.77 25.73 53 26.77 53.23 28.05 53.35 29.21 53.58 30.37 53.58 31.53 53.7 32.8 53.7 33.96 53.7 35.12 53.58 36.28 53.58 37.56 53.35 38.72 53.23 39.88 53 40.92 52.77 42.08 52.42 43.12 52.07 44.17 51.72 45.21 51.26 46.14 50.91 47.06 50.33 47.99 49.87 48.92 49.41 49.73 48.83 50.43 48.25 51.24 47.67 51.82 47.09 52.51 46.39 53.09 45.81 53.32 45.46 53.56 45.12 54.02 44.54 54.48 43.84 54.83 43.14 55.06 42.45 55.41 41.87 55.64 41.17 55.76 40.48 55.88 39.78 55.99 39.2 55.99 38.51 55.99 37.81 55.88 37.23 55.76 36.54 55.64 35.84 55.41 35.14 55.06 34.56 54.83 33.87 54.48 33.17 54.02 32.59 53.56 31.9 53.09 31.2 52.75 30.97 52.51 30.62 52.17 30.27 51.82 29.93 51.24 29.35 50.43 28.77 49.73 28.19 48.92 27.61 47.99 27.14 47.06 26.68 46.14 26.22 45.21 25.75 44.17 25.29 43.12 24.94 42.08 24.59 40.92 24.36 39.88 24.01 38.72 23.78 37.56 23.67 36.28 23.55 35.12 23.43 33.96 23.32 32.8 23.32 31.53 23.32 30.37 23.43 29.21 23.55 28.05 23.67 26.77 23.78 25.73 24.01 24.57 24.36 23.41 24.59 22.37 24.94 21.32 25.29 20.28 25.75 19.35 26.22 18.43 26.68 17.5 27.14 16.57 27.61 15.76 28.19 15.06 28.77 14.37 29.35 13.67 29.93 13.32 30.27 12.98 30.62 12.74 30.97 12.4 31.2 11.93 31.9 11.47 32.59 11 33.17 10.66 33.87 10.42 34.56 10.08 35.14 9.96 35.84 9.73 36.54 9.61 37.23 9.61 37.81 9.5 38.51 9.5 38.51"/>
          <polygon class="cls-31" points="9.72 38.45 9.84 39.14 9.84 39.71 9.95 40.4 10.18 41.09 10.3 41.78 10.64 42.35 10.87 43.04 11.22 43.73 11.68 44.42 12.14 44.99 12.59 45.68 12.94 46.02 13.17 46.25 13.86 46.94 14.55 47.52 15.24 48.09 15.92 48.67 16.73 49.24 17.65 49.7 18.56 50.16 19.48 50.73 20.4 51.08 21.44 51.54 22.47 51.88 23.5 52.22 24.65 52.57 25.8 52.8 26.83 53.03 28.09 53.14 29.24 53.37 30.39 53.37 31.54 53.49 32.8 53.49 33.95 53.49 35.1 53.37 36.25 53.37 37.51 53.14 38.66 53.03 39.81 52.8 40.84 52.57 41.99 52.22 43.02 51.88 44.05 51.54 45.09 51.08 46.01 50.73 46.92 50.16 47.84 49.7 48.76 49.24 49.56 48.67 50.25 48.09 51.06 47.52 51.63 46.94 52.32 46.25 52.89 45.68 53.12 45.34 53.35 44.99 53.81 44.42 54.27 43.73 54.62 43.04 54.85 42.35 55.19 41.78 55.42 41.09 55.54 40.4 55.65 39.71 55.76 39.14 55.76 38.45 55.76 37.76 55.65 37.18 55.54 36.5 55.42 35.81 55.19 35.12 54.85 34.54 54.62 33.85 54.27 33.17 53.81 32.59 53.35 31.9 52.89 31.21 52.55 30.98 52.32 30.64 51.98 30.3 51.63 29.95 51.06 29.38 50.25 28.8 49.56 28.23 48.76 27.65 47.84 27.2 46.92 26.74 46.01 26.28 45.09 25.82 44.05 25.36 43.02 25.01 41.99 24.67 40.84 24.44 39.81 24.1 38.66 23.87 37.51 23.75 36.25 23.64 35.1 23.52 33.95 23.41 32.8 23.41 31.54 23.41 30.39 23.52 29.24 23.64 28.09 23.75 26.83 23.87 25.8 24.1 24.65 24.44 23.5 24.67 22.47 25.01 21.44 25.36 20.4 25.82 19.48 26.28 18.56 26.74 17.65 27.2 16.73 27.65 15.92 28.23 15.24 28.8 14.55 29.38 13.86 29.95 13.51 30.3 13.17 30.64 12.94 30.98 12.59 31.21 12.14 31.9 11.68 32.59 11.22 33.17 10.87 33.85 10.64 34.54 10.3 35.12 10.18 35.81 9.95 36.5 9.84 37.18 9.84 37.76 9.72 38.45 9.72 38.45"/>
          <polygon class="cls-29" points="9.95 38.39 10.06 39.07 10.06 39.64 10.18 40.32 10.41 41 10.52 41.68 10.86 42.25 11.09 42.94 11.43 43.62 11.88 44.3 12.34 44.87 12.79 45.55 13.13 45.89 13.36 46.12 14.04 46.8 14.73 47.37 15.41 47.94 16.09 48.51 16.89 49.07 17.8 49.53 18.7 49.98 19.61 50.55 20.52 50.89 21.55 51.35 22.57 51.69 23.59 52.03 24.73 52.37 25.87 52.6 26.89 52.83 28.14 52.94 29.28 53.17 30.41 53.17 31.55 53.28 32.8 53.28 33.94 53.28 35.07 53.17 36.21 53.17 37.46 52.94 38.6 52.83 39.74 52.6 40.76 52.37 41.9 52.03 42.92 51.69 43.94 51.35 44.97 50.89 45.87 50.55 46.78 49.98 47.69 49.53 48.6 49.07 49.4 48.51 50.08 47.94 50.88 47.37 51.45 46.8 52.13 46.12 52.7 45.55 52.92 45.21 53.15 44.87 53.61 44.3 54.06 43.62 54.4 42.94 54.63 42.25 54.97 41.68 55.2 41 55.31 40.32 55.42 39.64 55.54 39.07 55.54 38.39 55.54 37.71 55.42 37.14 55.31 36.46 55.2 35.77 54.97 35.09 54.63 34.52 54.4 33.84 54.06 33.16 53.61 32.59 53.15 31.91 52.7 31.23 52.35 31 52.13 30.66 51.79 30.32 51.45 29.98 50.88 29.41 50.08 28.84 49.4 28.27 48.6 27.7 47.69 27.25 46.78 26.79 45.87 26.34 44.97 25.88 43.94 25.43 42.92 25.09 41.9 24.75 40.76 24.52 39.74 24.18 38.6 23.95 37.46 23.84 36.21 23.72 35.07 23.61 33.94 23.5 32.8 23.5 31.55 23.5 30.41 23.61 29.28 23.72 28.14 23.84 26.89 23.95 25.87 24.18 24.73 24.52 23.59 24.75 22.57 25.09 21.55 25.43 20.52 25.88 19.61 26.34 18.7 26.79 17.8 27.25 16.89 27.7 16.09 28.27 15.41 28.84 14.73 29.41 14.04 29.98 13.7 30.32 13.36 30.66 13.13 31 12.79 31.23 12.34 31.91 11.88 32.59 11.43 33.16 11.09 33.84 10.86 34.52 10.52 35.09 10.41 35.77 10.18 36.46 10.06 37.14 10.06 37.71 9.95 38.39 9.95 38.39"/>
          <polygon class="cls-2" points="10.18 38.33 10.29 39 10.29 39.57 10.4 40.24 10.63 40.92 10.74 41.59 11.08 42.16 11.3 42.83 11.64 43.51 12.09 44.18 12.54 44.74 12.99 45.42 13.33 45.76 13.55 45.98 14.23 46.66 14.91 47.22 15.58 47.78 16.26 48.35 17.04 48.91 17.94 49.36 18.84 49.81 19.74 50.37 20.65 50.71 21.66 51.16 22.67 51.5 23.68 51.83 24.81 52.17 25.94 52.4 26.95 52.62 28.19 52.74 29.31 52.96 30.44 52.96 31.56 53.07 32.8 53.07 33.93 53.07 35.05 52.96 36.18 52.96 37.42 52.74 38.54 52.62 39.67 52.4 40.68 52.17 41.8 51.83 42.82 51.5 43.83 51.16 44.84 50.71 45.74 50.37 46.64 49.81 47.54 49.36 48.45 48.91 49.23 48.35 49.91 47.78 50.7 47.22 51.26 46.66 51.93 45.98 52.5 45.42 52.72 45.08 52.95 44.74 53.4 44.18 53.85 43.51 54.19 42.83 54.41 42.16 54.75 41.59 54.97 40.92 55.09 40.24 55.2 39.57 55.31 39 55.31 38.33 55.31 37.65 55.2 37.09 55.09 36.42 54.97 35.74 54.75 35.06 54.41 34.5 54.19 33.83 53.85 33.15 53.4 32.59 52.95 31.91 52.5 31.24 52.16 31.01 51.93 30.68 51.6 30.34 51.26 30 50.7 29.44 49.91 28.87 49.23 28.31 48.45 27.75 47.54 27.3 46.64 26.85 45.74 26.4 44.84 25.95 43.83 25.5 42.82 25.16 41.8 24.82 40.68 24.6 39.67 24.26 38.54 24.03 37.42 23.92 36.18 23.81 35.05 23.7 33.93 23.58 32.8 23.58 31.56 23.58 30.44 23.7 29.31 23.81 28.19 23.92 26.95 24.03 25.94 24.26 24.81 24.6 23.68 24.82 22.67 25.16 21.66 25.5 20.65 25.95 19.74 26.4 18.84 26.85 17.94 27.3 17.04 27.75 16.26 28.31 15.58 28.87 14.91 29.44 14.23 30 13.89 30.34 13.55 30.68 13.33 31.01 12.99 31.24 12.54 31.91 12.09 32.59 11.64 33.15 11.3 33.83 11.08 34.5 10.74 35.06 10.63 35.74 10.4 36.42 10.29 37.09 10.29 37.65 10.18 38.33 10.18 38.33"/>
          <polygon class="cls-9" points="10.4 38.27 10.52 38.94 10.52 39.5 10.63 40.16 10.85 40.83 10.96 41.5 11.3 42.06 11.52 42.73 11.85 43.39 12.3 44.06 12.74 44.62 13.19 45.29 13.52 45.62 13.75 45.85 14.42 46.51 15.08 47.07 15.75 47.63 16.42 48.19 17.2 48.74 18.09 49.19 18.98 49.63 19.88 50.19 20.77 50.53 21.77 50.97 22.77 51.31 23.78 51.64 24.89 51.97 26 52.2 27.01 52.42 28.23 52.53 29.35 52.75 30.46 52.75 31.57 52.87 32.8 52.87 33.91 52.87 35.03 52.75 36.14 52.75 37.37 52.53 38.48 52.42 39.6 52.2 40.6 51.97 41.71 51.64 42.72 51.31 43.72 50.97 44.72 50.53 45.61 50.19 46.5 49.63 47.4 49.19 48.29 48.74 49.07 48.19 49.74 47.63 50.52 47.07 51.07 46.51 51.74 45.85 52.3 45.29 52.52 44.95 52.74 44.62 53.19 44.06 53.64 43.39 53.97 42.73 54.19 42.06 54.53 41.5 54.75 40.83 54.86 40.16 54.97 39.5 55.08 38.94 55.08 38.27 55.08 37.6 54.97 37.04 54.86 36.38 54.75 35.71 54.53 35.04 54.19 34.48 53.97 33.81 53.64 33.14 53.19 32.59 52.74 31.92 52.3 31.25 51.96 31.03 51.74 30.69 51.41 30.36 51.07 30.02 50.52 29.47 49.74 28.91 49.07 28.35 48.29 27.8 47.4 27.35 46.5 26.9 45.61 26.46 44.72 26.01 43.72 25.57 42.72 25.23 41.71 24.9 40.6 24.68 39.6 24.34 38.48 24.12 37.37 24.01 36.14 23.9 35.03 23.78 33.91 23.67 32.8 23.67 31.57 23.67 30.46 23.78 29.35 23.9 28.23 24.01 27.01 24.12 26 24.34 24.89 24.68 23.78 24.9 22.77 25.23 21.77 25.57 20.77 26.01 19.88 26.46 18.98 26.9 18.09 27.35 17.2 27.8 16.42 28.35 15.75 28.91 15.08 29.47 14.42 30.02 14.08 30.36 13.75 30.69 13.52 31.03 13.19 31.25 12.74 31.92 12.3 32.59 11.85 33.14 11.52 33.81 11.3 34.48 10.96 35.04 10.85 35.71 10.63 36.38 10.52 37.04 10.52 37.6 10.4 38.27 10.4 38.27"/>
          <polygon class="cls-7" points="10.63 38.21 10.74 38.87 10.74 39.42 10.85 40.09 11.07 40.75 11.18 41.41 11.51 41.96 11.73 42.62 12.07 43.28 12.51 43.95 12.95 44.5 13.39 45.16 13.72 45.49 13.94 45.71 14.6 46.37 15.26 46.92 15.93 47.47 16.59 48.03 17.36 48.58 18.24 49.02 19.12 49.46 20.01 50.01 20.89 50.34 21.88 50.78 22.87 51.11 23.87 51.44 24.97 51.78 26.07 52 27.06 52.22 28.28 52.33 29.38 52.55 30.48 52.55 31.59 52.66 32.8 52.66 33.9 52.66 35.01 52.55 36.11 52.55 37.32 52.33 38.42 52.22 39.53 52 40.52 51.78 41.62 51.44 42.62 51.11 43.61 50.78 44.6 50.34 45.48 50.01 46.37 49.46 47.25 49.02 48.13 48.58 48.9 48.03 49.56 47.47 50.34 46.92 50.89 46.37 51.55 45.71 52.1 45.16 52.32 44.83 52.54 44.5 52.98 43.95 53.42 43.28 53.75 42.62 53.98 41.96 54.31 41.41 54.53 40.75 54.64 40.09 54.75 39.42 54.86 38.87 54.86 38.21 54.86 37.55 54.75 37 54.64 36.34 54.53 35.67 54.31 35.01 53.98 34.46 53.75 33.8 53.42 33.14 52.98 32.59 52.54 31.92 52.1 31.26 51.77 31.04 51.55 30.71 51.22 30.38 50.89 30.05 50.34 29.5 49.56 28.95 48.9 28.39 48.13 27.84 47.25 27.4 46.37 26.96 45.48 26.52 44.6 26.08 43.61 25.64 42.62 25.31 41.62 24.98 40.52 24.75 39.53 24.42 38.42 24.2 37.32 24.09 36.11 23.98 35.01 23.87 33.9 23.76 32.8 23.76 31.59 23.76 30.48 23.87 29.38 23.98 28.28 24.09 27.06 24.2 26.07 24.42 24.97 24.75 23.87 24.98 22.87 25.31 21.88 25.64 20.89 26.08 20.01 26.52 19.12 26.96 18.24 27.4 17.36 27.84 16.59 28.39 15.93 28.95 15.26 29.5 14.6 30.05 14.27 30.38 13.94 30.71 13.72 31.04 13.39 31.26 12.95 31.92 12.51 32.59 12.07 33.14 11.73 33.8 11.51 34.46 11.18 35.01 11.07 35.67 10.85 36.34 10.74 37 10.74 37.55 10.63 38.21 10.63 38.21"/>
          <polygon class="cls-21" points="10.86 38.15 10.97 38.81 10.97 39.35 11.08 40.01 11.3 40.66 11.4 41.32 11.73 41.86 11.95 42.52 12.28 43.17 12.71 43.83 13.15 44.37 13.59 45.03 13.91 45.36 14.13 45.57 14.79 46.23 15.44 46.77 16.1 47.32 16.75 47.87 17.52 48.41 18.39 48.85 19.26 49.29 20.14 49.83 21.01 50.16 21.99 50.59 22.97 50.92 23.96 51.25 25.05 51.58 26.14 51.8 27.12 52.01 28.32 52.12 29.42 52.34 30.51 52.34 31.6 52.45 32.8 52.45 33.89 52.45 34.98 52.34 36.07 52.34 37.27 52.12 38.37 52.01 39.46 51.8 40.44 51.58 41.53 51.25 42.51 50.92 43.5 50.59 44.48 50.16 45.35 49.83 46.23 49.29 47.1 48.85 47.97 48.41 48.74 47.87 49.39 47.32 50.15 46.77 50.7 46.23 51.36 45.57 51.9 45.03 52.12 44.7 52.34 44.37 52.77 43.83 53.21 43.17 53.54 42.52 53.76 41.86 54.08 41.32 54.3 40.66 54.41 40.01 54.52 39.35 54.63 38.81 54.63 38.15 54.63 37.5 54.52 36.95 54.41 36.3 54.3 35.64 54.08 34.99 53.76 34.44 53.54 33.78 53.21 33.13 52.77 32.58 52.34 31.93 51.9 31.27 51.57 31.06 51.36 30.73 51.03 30.4 50.7 30.07 50.15 29.53 49.39 28.98 48.74 28.44 47.97 27.89 47.1 27.45 46.23 27.02 45.35 26.58 44.48 26.14 43.5 25.71 42.51 25.38 41.53 25.05 40.44 24.83 39.46 24.51 38.37 24.29 37.27 24.18 36.07 24.07 34.98 23.96 33.89 23.85 32.8 23.85 31.6 23.85 30.51 23.96 29.42 24.07 28.32 24.18 27.12 24.29 26.14 24.51 25.05 24.83 23.96 25.05 22.97 25.38 21.99 25.71 21.01 26.14 20.14 26.58 19.26 27.02 18.39 27.45 17.52 27.89 16.75 28.44 16.1 28.98 15.44 29.53 14.79 30.07 14.46 30.4 14.13 30.73 13.91 31.06 13.59 31.27 13.15 31.93 12.71 32.58 12.28 33.13 11.95 33.78 11.73 34.44 11.4 34.99 11.3 35.64 11.08 36.3 10.97 36.95 10.97 37.5 10.86 38.15 10.86 38.15"/>
          <polygon class="cls-22" points="11.09 38.09 11.19 38.74 11.19 39.28 11.3 39.93 11.52 40.58 11.63 41.22 11.95 41.76 12.17 42.41 12.49 43.06 12.92 43.71 13.35 44.25 13.79 44.9 14.11 45.22 14.33 45.44 14.97 46.09 15.62 46.63 16.27 47.17 16.92 47.71 17.67 48.25 18.54 48.68 19.4 49.11 20.27 49.65 21.13 49.97 22.1 50.41 23.08 50.73 24.05 51.05 25.13 51.38 26.21 51.6 27.18 51.81 28.37 51.92 29.45 52.14 30.53 52.14 31.61 52.24 32.8 52.24 33.88 52.24 34.96 52.14 36.04 52.14 37.23 51.92 38.31 51.81 39.39 51.6 40.36 51.38 41.44 51.05 42.41 50.73 43.38 50.41 44.36 49.97 45.22 49.65 46.09 49.11 46.95 48.68 47.81 48.25 48.57 47.71 49.22 47.17 49.97 46.63 50.51 46.09 51.16 45.44 51.7 44.9 51.92 44.57 52.14 44.25 52.57 43.71 53 43.06 53.32 42.41 53.54 41.76 53.86 41.22 54.08 40.58 54.19 39.93 54.3 39.28 54.4 38.74 54.4 38.09 54.4 37.44 54.3 36.9 54.19 36.26 54.08 35.61 53.86 34.96 53.54 34.42 53.32 33.77 53 33.12 52.57 32.58 52.14 31.93 51.7 31.29 51.38 31.07 51.16 30.75 50.84 30.42 50.51 30.1 49.97 29.56 49.22 29.02 48.57 28.48 47.81 27.94 46.95 27.51 46.09 27.07 45.22 26.64 44.36 26.21 43.38 25.78 42.41 25.45 41.44 25.13 40.36 24.91 39.39 24.59 38.31 24.37 37.23 24.26 36.04 24.16 34.96 24.05 33.88 23.94 32.8 23.94 31.61 23.94 30.53 24.05 29.45 24.16 28.37 24.26 27.18 24.37 26.21 24.59 25.13 24.91 24.05 25.13 23.08 25.45 22.1 25.78 21.13 26.21 20.27 26.64 19.4 27.07 18.54 27.51 17.67 27.94 16.92 28.48 16.27 29.02 15.62 29.56 14.97 30.1 14.65 30.42 14.33 30.75 14.11 31.07 13.79 31.29 13.35 31.93 12.92 32.58 12.49 33.12 12.17 33.77 11.95 34.42 11.63 34.96 11.52 35.61 11.3 36.26 11.19 36.9 11.19 37.44 11.09 38.09 11.09 38.09"/>
          <polygon class="cls-4" points="11.31 38.03 11.42 38.67 11.42 39.21 11.53 39.85 11.74 40.49 11.85 41.13 12.17 41.67 12.38 42.31 12.7 42.95 13.13 43.59 13.56 44.13 13.98 44.77 14.31 45.09 14.52 45.3 15.16 45.94 15.8 46.48 16.44 47.01 17.08 47.55 17.83 48.08 18.69 48.51 19.54 48.94 20.4 49.47 21.25 49.79 22.22 50.22 23.18 50.54 24.14 50.86 25.21 51.18 26.28 51.39 27.24 51.61 28.42 51.72 29.48 51.93 30.55 51.93 31.62 52.04 32.8 52.04 33.87 52.04 34.94 51.93 36 51.93 37.18 51.72 38.25 51.61 39.32 51.39 40.28 51.18 41.35 50.86 42.31 50.54 43.27 50.22 44.24 49.79 45.09 49.47 45.95 48.94 46.8 48.51 47.66 48.08 48.4 47.55 49.05 47.01 49.79 46.48 50.33 45.94 50.97 45.3 51.5 44.77 51.72 44.45 51.93 44.13 52.36 43.59 52.79 42.95 53.11 42.31 53.32 41.67 53.64 41.13 53.86 40.49 53.96 39.85 54.07 39.21 54.18 38.67 54.18 38.03 54.18 37.39 54.07 36.86 53.96 36.22 53.86 35.57 53.64 34.93 53.32 34.4 53.11 33.76 52.79 33.12 52.36 32.58 51.93 31.94 51.5 31.3 51.18 31.08 50.97 30.76 50.65 30.44 50.33 30.12 49.79 29.59 49.05 29.05 48.4 28.52 47.66 27.98 46.8 27.56 45.95 27.13 45.09 26.7 44.24 26.27 43.27 25.85 42.31 25.53 41.35 25.21 40.28 24.99 39.32 24.67 38.25 24.46 37.18 24.35 36 24.24 34.94 24.14 33.87 24.03 32.8 24.03 31.62 24.03 30.55 24.14 29.48 24.24 28.42 24.35 27.24 24.46 26.28 24.67 25.21 24.99 24.14 25.21 23.18 25.53 22.22 25.85 21.25 26.27 20.4 26.7 19.54 27.13 18.69 27.56 17.83 27.98 17.08 28.52 16.44 29.05 15.8 29.59 15.16 30.12 14.84 30.44 14.52 30.76 14.31 31.08 13.98 31.3 13.56 31.94 13.13 32.58 12.7 33.12 12.38 33.76 12.17 34.4 11.85 34.93 11.74 35.57 11.53 36.22 11.42 36.86 11.42 37.39 11.31 38.03 11.31 38.03"/>
          <polygon class="cls-32" points="11.54 37.97 11.64 38.61 11.64 39.14 11.75 39.77 11.96 40.41 12.07 41.04 12.39 41.57 12.6 42.2 12.91 42.84 13.34 43.47 13.76 44 14.18 44.64 14.5 44.95 14.71 45.17 15.35 45.8 15.98 46.33 16.62 46.86 17.25 47.39 17.99 47.92 18.84 48.34 19.68 48.76 20.53 49.29 21.37 49.61 22.33 50.03 23.28 50.35 24.23 50.66 25.29 50.98 26.35 51.19 27.3 51.41 28.46 51.51 29.52 51.72 30.58 51.72 31.63 51.83 32.8 51.83 33.85 51.83 34.91 51.72 35.97 51.72 37.13 51.51 38.19 51.41 39.25 51.19 40.2 50.98 41.26 50.66 42.21 50.35 43.16 50.03 44.11 49.61 44.96 49.29 45.81 48.76 46.65 48.34 47.5 47.92 48.24 47.39 48.87 46.86 49.61 46.33 50.14 45.8 50.78 45.17 51.31 44.64 51.52 44.32 51.73 44 52.15 43.47 52.57 42.84 52.89 42.2 53.1 41.57 53.42 41.04 53.63 40.41 53.74 39.77 53.84 39.14 53.95 38.61 53.95 37.97 53.95 37.34 53.84 36.81 53.74 36.18 53.63 35.54 53.42 34.91 53.1 34.38 52.89 33.74 52.57 33.11 52.15 32.58 51.73 31.94 51.31 31.31 50.99 31.1 50.78 30.78 50.46 30.46 50.14 30.15 49.61 29.62 48.87 29.09 48.24 28.56 47.5 28.03 46.65 27.61 45.81 27.19 44.96 26.76 44.11 26.34 43.16 25.92 42.21 25.6 41.26 25.28 40.2 25.07 39.25 24.75 38.19 24.54 37.13 24.44 35.97 24.33 34.91 24.22 33.85 24.12 32.8 24.12 31.63 24.12 30.58 24.22 29.52 24.33 28.46 24.44 27.3 24.54 26.35 24.75 25.29 25.07 24.23 25.28 23.28 25.6 22.33 25.92 21.37 26.34 20.53 26.76 19.68 27.19 18.84 27.61 17.99 28.03 17.25 28.56 16.62 29.09 15.98 29.62 15.35 30.15 15.03 30.46 14.71 30.78 14.5 31.1 14.18 31.31 13.76 31.94 13.34 32.58 12.91 33.11 12.6 33.74 12.39 34.38 12.07 34.91 11.96 35.54 11.75 36.18 11.64 36.81 11.64 37.34 11.54 37.97 11.54 37.97"/>
          <polygon class="cls-20" points="11.77 37.91 11.87 38.54 11.87 39.07 11.98 39.69 12.18 40.32 12.29 40.95 12.6 41.47 12.81 42.1 13.13 42.73 13.54 43.36 13.96 43.88 14.38 44.51 14.7 44.82 14.9 45.03 15.53 45.66 16.16 46.18 16.79 46.7 17.42 47.23 18.15 47.75 18.99 48.17 19.82 48.59 20.66 49.11 21.5 49.42 22.44 49.84 23.38 50.16 24.32 50.47 25.37 50.78 26.41 50.99 27.36 51.2 28.51 51.31 29.55 51.52 30.6 51.52 31.65 51.62 32.8 51.62 33.84 51.62 34.89 51.52 35.94 51.52 37.09 51.31 38.13 51.2 39.18 50.99 40.12 50.78 41.17 50.47 42.11 50.16 43.05 49.84 43.99 49.42 44.83 49.11 45.67 48.59 46.5 48.17 47.34 47.75 48.07 47.23 48.7 46.7 49.43 46.18 49.96 45.66 50.58 45.03 51.11 44.51 51.32 44.19 51.53 43.88 51.94 43.36 52.36 42.73 52.68 42.1 52.89 41.47 53.2 40.95 53.41 40.32 53.51 39.69 53.62 39.07 53.72 38.54 53.72 37.91 53.72 37.29 53.62 36.76 53.51 36.14 53.41 35.51 53.2 34.88 52.89 34.36 52.68 33.73 52.36 33.1 51.94 32.58 51.53 31.95 51.11 31.32 50.79 31.11 50.58 30.8 50.27 30.49 49.96 30.17 49.43 29.65 48.7 29.13 48.07 28.6 47.34 28.08 46.5 27.66 45.67 27.24 44.83 26.82 43.99 26.4 43.05 25.99 42.11 25.67 41.17 25.36 40.12 25.15 39.18 24.84 38.13 24.63 37.09 24.52 35.94 24.42 34.89 24.31 33.84 24.21 32.8 24.21 31.65 24.21 30.6 24.31 29.55 24.42 28.51 24.52 27.36 24.63 26.41 24.84 25.37 25.15 24.32 25.36 23.38 25.67 22.44 25.99 21.5 26.4 20.66 26.82 19.82 27.24 18.99 27.66 18.15 28.08 17.42 28.6 16.79 29.13 16.16 29.65 15.53 30.17 15.22 30.49 14.9 30.8 14.7 31.11 14.38 31.32 13.96 31.95 13.54 32.58 13.13 33.1 12.81 33.73 12.6 34.36 12.29 34.88 12.18 35.51 11.98 36.14 11.87 36.76 11.87 37.29 11.77 37.91 11.77 37.91"/>
          <polygon class="cls-3" points="11.99 37.86 12.1 38.48 12.1 38.99 12.2 39.61 12.41 40.24 12.51 40.86 12.82 41.37 13.03 41.99 13.34 42.62 13.75 43.24 14.17 43.75 14.58 44.38 14.89 44.69 15.1 44.89 15.72 45.51 16.34 46.03 16.96 46.55 17.58 47.07 18.31 47.58 19.13 48 19.96 48.41 20.79 48.93 21.62 49.24 22.55 49.65 23.48 49.96 24.41 50.27 25.45 50.59 26.48 50.79 27.41 51 28.55 51.1 29.59 51.31 30.62 51.31 31.66 51.41 32.8 51.41 33.83 51.41 34.87 51.31 35.9 51.31 37.04 51.1 38.07 51 39.11 50.79 40.04 50.59 41.08 50.27 42.01 49.96 42.94 49.65 43.87 49.24 44.7 48.93 45.53 48.41 46.35 48 47.18 47.58 47.91 47.07 48.53 46.55 49.25 46.03 49.77 45.51 50.39 44.89 50.91 44.38 51.12 44.06 51.32 43.75 51.74 43.24 52.15 42.62 52.46 41.99 52.67 41.37 52.98 40.86 53.19 40.24 53.29 39.61 53.39 38.99 53.5 38.48 53.5 37.86 53.5 37.23 53.39 36.72 53.29 36.1 53.19 35.47 52.98 34.85 52.67 34.34 52.46 33.71 52.15 33.09 51.74 32.58 51.32 31.96 50.91 31.33 50.6 31.13 50.39 30.82 50.08 30.51 49.77 30.2 49.25 29.68 48.53 29.16 47.91 28.64 47.18 28.13 46.35 27.71 45.53 27.3 44.7 26.88 43.87 26.47 42.94 26.06 42.01 25.75 41.08 25.44 40.04 25.23 39.11 24.92 38.07 24.71 37.04 24.61 35.9 24.5 34.87 24.4 33.83 24.3 32.8 24.3 31.66 24.3 30.62 24.4 29.59 24.5 28.55 24.61 27.41 24.71 26.48 24.92 25.45 25.23 24.41 25.44 23.48 25.75 22.55 26.06 21.62 26.47 20.79 26.88 19.96 27.3 19.13 27.71 18.31 28.13 17.58 28.64 16.96 29.16 16.34 29.68 15.72 30.2 15.41 30.51 15.1 30.82 14.89 31.13 14.58 31.33 14.17 31.96 13.75 32.58 13.34 33.09 13.03 33.71 12.82 34.34 12.51 34.85 12.41 35.47 12.2 36.1 12.1 36.72 12.1 37.23 11.99 37.86 11.99 37.86"/>
        </g>
        <g>
          <g>
            <path class="cls-3" d="m62.94,34.57l.21.54.13.79.13.79.13.79.13.79v2.49l-.13.79-.13.79-.13.79-.26.79-.26.66-.26.79-.39.79-.39.79-.39.66-.39.79-.53.66-.53.79-.53.66-.53.66-.66.66-.66.66-.66.66-.79.53-.79.66-.79.53-.79.53-.79.53-.92.53-.92.53-.92.53-.92.39-.92.39-1.05.39-.92.39-1.05.26-1.05.39-1.05.26-1.05.26-1.05.13-1.05.26-1.18.13-1.05.13-1.18.13-1.05.13h-1.18l-1.05.13h-1.18l-1.05-.13h-1.18l-1.05-.13-1.18-.13-1.05-.13-1.18-.13-1.05-.26-1.05-.13-1.05-.26-1.05-.26-1.05-.39-1.05-.26-.92-.39-1.05-.39-.92-.39-.92-.39-.92-.53-.92-.53-.92-.53-.79-.53-.79-.53-.79-.53-.79-.66-.66-.53-.79-.66-.66-.66-.66-.66-.53-.66-.53-.66-.53-.79-.53-.66-.39-.79-.39-.66-.39-.79-.39-.79-.26-.79-.26-.66-.26-.79-.13-.79-.13-.79-.13-.79v-2.49l.13-.79.13-.79.13-.79.13-.79.22-.54,5.17-17.06h50.03l5.18,17.06Zm-3.86,5.53v-1.58l-.13-.66-.13-.79-.13-.79-.26-.79-.39-.66-.26-.79-.39-.79-.53-.66-.53-.79-.53-.79-.39-.26-.26-.39-.39-.39-.39-.39-.66-.66-.92-.66-.79-.66-.92-.66-1.05-.53-1.05-.53-1.05-.53-1.05-.53-1.18-.53-1.18-.39-1.18-.39-1.31-.26-1.18-.39-1.31-.26-1.31-.13-1.44-.13-1.31-.13-1.31-.13h-2.76l-1.31.13-1.31.13-1.31.13-1.44.13-1.18.26-1.31.39-1.31.26-1.18.39-1.18.39-1.18.53-1.05.53-1.05.53-1.05.53-1.05.53-.92.66-.79.66-.79.66-.79.66-.39.39-.39.39-.26.39-.39.26-.53.79-.53.79-.53.66-.39.79-.26.79-.39.66-.13.79-.26.79-.13.79v.66l-.13.79.13.79v.66l.13.79.26.79.13.79.39.66.26.79.39.79.53.79.53.66.53.79.39.39.26.26.79.79.79.66.79.66.79.66.92.66,1.05.53,1.05.53,1.05.66,1.05.39,1.18.53,1.18.39,1.18.39,1.31.39,1.31.26,1.18.26,1.44.13,1.31.26h1.31l1.31.13h2.76l1.31-.13h1.31l1.44-.26,1.31-.13,1.31-.26,1.18-.26,1.31-.39,1.18-.39,1.18-.39,1.18-.53,1.05-.39,1.05-.66,1.05-.53,1.05-.53.92-.66.79-.66.92-.66.66-.66.79-.79.66-.66.26-.39.26-.39.53-.66.53-.79.39-.79.26-.79.39-.66.26-.79.13-.79.13-.79.13-.66Zm-18.38-20.29c0-.62-.5-1.12-1.12-1.12s-1.12.49-1.12,1.12.49,1.12,1.12,1.12,1.12-.5,1.12-1.12Zm-6.7,0c0-.62-.5-1.12-1.12-1.12s-1.12.49-1.12,1.12.49,1.12,1.12,1.12,1.12-.5,1.12-1.12Zm-7.22,0c0-.62-.5-1.12-1.12-1.12s-1.12.49-1.12,1.12.49,1.12,1.12,1.12,1.12-.5,1.12-1.12Z"/>
            <path class="cls-13" d="m39.58,18.7c.61,0,1.12.49,1.12,1.12s-.5,1.12-1.12,1.12-1.12-.5-1.12-1.12.49-1.12,1.12-1.12Z"/>
            <path class="cls-24" d="m32.88,25.13c1.91,0,3.48,1.55,3.48,3.48s-1.56,3.48-3.48,3.48-3.48-1.56-3.48-3.48,1.55-3.48,3.48-3.48Zm1.9,3.48c0-1.05-.85-1.9-1.9-1.9s-1.9.85-1.9,1.9.84,1.9,1.9,1.9,1.9-.85,1.9-1.9Z"/>
            <path class="cls-14" d="m25.66,18.7c.61,0,1.12.49,1.12,1.12s-.5,1.12-1.12,1.12-1.12-.5-1.12-1.12.49-1.12,1.12-1.12Z"/>
          </g>
          <g>
            <path class="cls-28" d="m32.16,61.56l-1.09-.13h-1.14s-4.5-.53-4.5-.53l-1.09-.27-1.01-.12-2.14-.53-1.08-.41-1.02-.25-.97-.41-1.04-.39-1.85-.79-2.79-1.59-2.38-1.59-2.26-1.86-1.33-1.33-1.07-1.34-.54-.81-.51-.64-.43-.84-.38-.64-.8-1.6-.81-2.27-.41-2.41v-2.55s.53-3.2.53-3.2l.28-.71c.06-.16.24-.25.4-.19.16.06.25.24.19.4l-.27.67-.51,3.08v2.44s.39,2.31.39,2.31l.78,2.18.77,1.54.38.64.41.81.49.6.54.81,1.03,1.29,1.29,1.29,2.21,1.82,2.34,1.56,2.74,1.57,1.81.77,1.04.39.93.4,1,.25,1.08.41,2.07.51,1.01.12,1.09.27,4.43.52h1.14s1.09.13,1.09.13h1.14s1.01-.13,1.01-.13h1.22s4.43-.53,4.43-.53l1.01-.26,1.09-.14,2.06-.52,1.02-.38,1.08-.27.87-.38,1.06-.4,1.83-.78,2.73-1.56,2.35-1.56.76-.64.81-.55,1.92-1.93,1.03-1.29.51-.77.54-.68.36-.73.41-.68.78-1.56.25-.75.27-.67.26-.77.38-2.32v-2.44s-.53-3.1-.53-3.1l-.24-.58c-.07-.16,0-.34.15-.41.16-.07.34,0,.41.15l.27.67.54,3.21v2.55s-.39,2.42-.39,2.42l-.27.84-.27.67-.26.77-.81,1.62-.41.68-.38.77-.56.71-.51.77-1.07,1.33-1.99,2-.84.56-.76.64-2.39,1.6-2.78,1.59-1.87.8-1.06.4-.91.39-1.1.28-1.02.38-2.13.54-1.09.14-1.01.26-4.5.53h-1.22s-1.01.13-1.01.13h-1.22Z"/>
            <polygon class="cls-16" points="6.42 39.31 6.55 40.1 6.55 40.76 6.68 41.55 6.94 42.33 7.08 43.12 7.47 43.78 7.73 44.57 8.13 45.35 8.65 46.14 9.18 46.8 9.7 47.59 10.1 47.98 10.36 48.24 11.15 49.03 11.94 49.69 12.72 50.34 13.51 51 14.43 51.66 15.48 52.18 16.53 52.71 17.58 53.36 18.63 53.76 19.81 54.28 21 54.68 22.18 55.07 23.49 55.47 24.8 55.73 25.99 55.99 27.43 56.12 28.74 56.38 30.06 56.38 31.37 56.52 32.81 56.52 34.13 56.52 35.44 56.38 36.75 56.38 38.2 56.12 39.51 55.99 40.82 55.73 42.01 55.47 43.32 55.07 44.5 54.68 45.68 54.28 46.87 53.76 47.92 53.36 48.97 52.71 50.02 52.18 51.07 51.66 51.99 51 52.77 50.34 53.69 49.69 54.35 49.03 55.14 48.24 55.8 47.59 56.06 47.19 56.32 46.8 56.85 46.14 57.37 45.35 57.76 44.57 58.03 43.78 58.42 43.12 58.68 42.33 58.82 41.55 58.95 40.76 59.08 40.1 59.08 39.31 59.08 38.53 58.95 37.87 58.82 37.08 58.68 36.29 58.42 35.51 58.03 34.85 57.76 34.06 57.37 33.27 56.85 32.62 56.32 31.83 55.8 31.04 55.4 30.78 55.14 30.38 54.74 29.99 54.35 29.6 53.69 28.94 52.77 28.28 51.99 27.63 51.07 26.97 50.02 26.44 48.97 25.92 47.92 25.39 46.87 24.87 45.68 24.34 44.5 23.95 43.32 23.56 42.01 23.29 40.82 22.9 39.51 22.64 38.2 22.5 36.75 22.37 35.44 22.24 34.13 22.11 32.81 22.11 31.37 22.11 30.06 22.24 28.74 22.37 27.43 22.5 25.99 22.64 24.8 22.9 23.49 23.29 22.18 23.56 21 23.95 19.81 24.34 18.63 24.87 17.58 25.39 16.53 25.92 15.48 26.44 14.43 26.97 13.51 27.63 12.72 28.28 11.94 28.94 11.15 29.6 10.75 29.99 10.36 30.38 10.1 30.78 9.7 31.04 9.18 31.83 8.65 32.62 8.13 33.27 7.73 34.06 7.47 34.85 7.08 35.51 6.94 36.29 6.68 37.08 6.55 37.87 6.55 38.53 6.42 39.31"/>
            <circle class="cls-16" cx="32.88" cy="28.61" r="1.9"/>
            <circle class="cls-16" cx="32.88" cy="28.61" r="3.48"/>
            <path class="cls-28" d="m2.48,35.16s-.06,0-.1-.02c-.16-.05-.26-.23-.2-.39l.09-.27,5.16-17.06c.04-.13.16-.22.3-.22h50.03c.14,0,.26.09.3.22l5.25,17.34c.05.17-.05.34-.22.39-.17.05-.34-.05-.39-.22l-.08-.27-5.11-16.83H7.97l-5.19,17.12c-.04.13-.17.22-.3.22Z"/>
            <path class="cls-16" d="m32.88,18.7c-.62,0-1.12.49-1.12,1.12s.49,1.12,1.12,1.12,1.12-.5,1.12-1.12-.5-1.12-1.12-1.12Z"/>
            <path class="cls-16" d="m39.58,18.7c-.62,0-1.12.49-1.12,1.12s.49,1.12,1.12,1.12,1.12-.5,1.12-1.12-.5-1.12-1.12-1.12Z"/>
            <path class="cls-16" d="m25.66,18.7c-.62,0-1.12.49-1.12,1.12s.49,1.12,1.12,1.12,1.12-.5,1.12-1.12-.5-1.12-1.12-1.12Z"/>
          </g>
        </g>
      </g>
      <g>
        <g>
          <polygon class="cls-17" points="70.53 39.28 70.66 40.06 70.66 40.71 70.79 41.5 71.05 42.28 71.18 43.06 71.57 43.72 71.83 44.5 72.23 45.29 72.75 46.07 73.27 46.72 73.79 47.51 74.19 47.9 74.45 48.16 75.23 48.94 76.02 49.6 76.8 50.25 77.58 50.9 78.5 51.56 79.54 52.08 80.59 52.6 81.63 53.26 82.68 53.65 83.85 54.17 85.03 54.56 86.21 54.95 87.51 55.35 88.82 55.61 90 55.87 91.43 56 92.74 56.26 94.05 56.26 95.35 56.39 96.79 56.39 98.1 56.39 99.4 56.26 100.71 56.26 102.15 56 103.45 55.87 104.76 55.61 105.94 55.35 107.24 54.95 108.42 54.56 109.59 54.17 110.77 53.65 111.81 53.26 112.86 52.6 113.91 52.08 114.95 51.56 115.87 50.9 116.65 50.25 117.56 49.6 118.22 48.94 119 48.16 119.65 47.51 119.92 47.12 120.18 46.72 120.7 46.07 121.22 45.29 121.61 44.5 121.88 43.72 122.27 43.06 122.53 42.28 122.66 41.5 122.79 40.71 122.92 40.06 122.92 39.28 122.92 38.49 122.79 37.84 122.66 37.05 122.53 36.27 122.27 35.49 121.88 34.83 121.61 34.05 121.22 33.27 120.7 32.61 120.18 31.83 119.65 31.04 119.26 30.78 119 30.39 118.61 30 118.22 29.61 117.56 28.95 116.65 28.3 115.87 27.65 114.95 26.99 113.91 26.47 112.86 25.95 111.81 25.43 110.77 24.9 109.59 24.38 108.42 23.99 107.24 23.6 105.94 23.34 104.76 22.94 103.45 22.68 102.15 22.55 100.71 22.42 99.4 22.29 98.1 22.16 96.79 22.16 95.35 22.16 94.05 22.29 92.74 22.42 91.43 22.55 90 22.68 88.82 22.94 87.51 23.34 86.21 23.6 85.03 23.99 83.85 24.38 82.68 24.9 81.63 25.43 80.59 25.95 79.54 26.47 78.5 26.99 77.58 27.65 76.8 28.3 76.02 28.95 75.23 29.61 74.84 30 74.45 30.39 74.19 30.78 73.79 31.04 73.27 31.83 72.75 32.61 72.23 33.27 71.83 34.05 71.57 34.83 71.18 35.49 71.05 36.27 70.79 37.05 70.66 37.84 70.66 38.49 70.53 39.28 70.53 39.28"/>
          <polygon class="cls-11" points="70.75 39.22 70.88 39.99 70.88 40.64 71.01 41.42 71.27 42.2 71.4 42.97 71.79 43.62 72.05 44.4 72.44 45.17 72.96 45.95 73.47 46.6 73.99 47.38 74.38 47.77 74.64 48.02 75.42 48.8 76.19 49.45 76.97 50.1 77.75 50.74 78.66 51.39 79.69 51.91 80.73 52.43 81.76 53.08 82.8 53.46 83.97 53.98 85.13 54.37 86.3 54.76 87.59 55.15 88.89 55.41 90.05 55.67 91.48 55.8 92.77 56.05 94.07 56.05 95.36 56.18 96.79 56.18 98.08 56.18 99.38 56.05 100.67 56.05 102.1 55.8 103.39 55.67 104.69 55.41 105.86 55.15 107.15 54.76 108.32 54.37 109.48 53.98 110.65 53.46 111.68 53.08 112.72 52.43 113.76 51.91 114.79 51.39 115.7 50.74 116.48 50.1 117.38 49.45 118.03 48.8 118.81 48.02 119.46 47.38 119.71 46.99 119.97 46.6 120.49 45.95 121.01 45.17 121.4 44.4 121.66 43.62 122.05 42.97 122.31 42.2 122.43 41.42 122.56 40.64 122.69 39.99 122.69 39.22 122.69 38.44 122.56 37.79 122.43 37.01 122.31 36.24 122.05 35.46 121.66 34.81 121.4 34.04 121.01 33.26 120.49 32.61 119.97 31.83 119.46 31.06 119.07 30.8 118.81 30.41 118.42 30.02 118.03 29.63 117.38 28.98 116.48 28.34 115.7 27.69 114.79 27.04 113.76 26.52 112.72 26.01 111.68 25.49 110.65 24.97 109.48 24.45 108.32 24.06 107.15 23.67 105.86 23.41 104.69 23.03 103.39 22.77 102.1 22.64 100.67 22.51 99.38 22.38 98.08 22.25 96.79 22.25 95.36 22.25 94.07 22.38 92.77 22.51 91.48 22.64 90.05 22.77 88.89 23.03 87.59 23.41 86.3 23.67 85.13 24.06 83.97 24.45 82.8 24.97 81.76 25.49 80.73 26.01 79.69 26.52 78.66 27.04 77.75 27.69 76.97 28.34 76.19 28.98 75.42 29.63 75.03 30.02 74.64 30.41 74.38 30.8 73.99 31.06 73.47 31.83 72.96 32.61 72.44 33.26 72.05 34.04 71.79 34.81 71.4 35.46 71.27 36.24 71.01 37.01 70.88 37.79 70.88 38.44 70.75 39.22 70.75 39.22"/>
          <polygon class="cls-18" points="70.98 39.16 71.11 39.93 71.11 40.57 71.24 41.34 71.5 42.11 71.62 42.88 72.01 43.52 72.27 44.29 72.65 45.06 73.16 45.83 73.68 46.48 74.19 47.25 74.58 47.63 74.83 47.89 75.6 48.66 76.37 49.3 77.14 49.94 77.91 50.58 78.81 51.23 79.84 51.74 80.87 52.25 81.89 52.9 82.92 53.28 84.08 53.79 85.23 54.18 86.39 54.56 87.67 54.95 88.96 55.21 90.11 55.46 91.52 55.59 92.81 55.85 94.09 55.85 95.38 55.98 96.79 55.98 98.07 55.98 99.36 55.85 100.64 55.85 102.05 55.59 103.34 55.46 104.62 55.21 105.78 54.95 107.06 54.56 108.22 54.18 109.37 53.79 110.53 53.28 111.55 52.9 112.58 52.25 113.61 51.74 114.63 51.23 115.53 50.58 116.3 49.94 117.2 49.3 117.84 48.66 118.62 47.89 119.26 47.25 119.51 46.86 119.77 46.48 120.28 45.83 120.8 45.06 121.18 44.29 121.44 43.52 121.82 42.88 122.08 42.11 122.21 41.34 122.34 40.57 122.47 39.93 122.47 39.16 122.47 38.39 122.34 37.75 122.21 36.97 122.08 36.2 121.82 35.43 121.44 34.79 121.18 34.02 120.8 33.25 120.28 32.61 119.77 31.84 119.26 31.07 118.87 30.81 118.62 30.43 118.23 30.04 117.84 29.66 117.2 29.01 116.3 28.37 115.53 27.73 114.63 27.09 113.61 26.57 112.58 26.06 111.55 25.55 110.53 25.03 109.37 24.52 108.22 24.14 107.06 23.75 105.78 23.49 104.62 23.11 103.34 22.85 102.05 22.72 100.64 22.59 99.36 22.47 98.07 22.34 96.79 22.34 95.38 22.34 94.09 22.47 92.81 22.59 91.52 22.72 90.11 22.85 88.96 23.11 87.67 23.49 86.39 23.75 85.23 24.14 84.08 24.52 82.92 25.03 81.89 25.55 80.87 26.06 79.84 26.57 78.81 27.09 77.91 27.73 77.14 28.37 76.37 29.01 75.6 29.66 75.22 30.04 74.83 30.43 74.58 30.81 74.19 31.07 73.68 31.84 73.16 32.61 72.65 33.25 72.27 34.02 72.01 34.79 71.62 35.43 71.5 36.2 71.24 36.97 71.11 37.75 71.11 38.39 70.98 39.16 70.98 39.16"/>
          <polygon class="cls-30" points="71.21 39.1 71.34 39.86 71.34 40.5 71.46 41.26 71.72 42.03 71.84 42.79 72.23 43.43 72.48 44.19 72.86 44.95 73.37 45.72 73.88 46.35 74.39 47.12 74.77 47.5 75.03 47.75 75.79 48.52 76.55 49.15 77.32 49.79 78.08 50.42 78.97 51.06 79.99 51.57 81.01 52.08 82.03 52.72 83.04 53.1 84.19 53.61 85.33 53.99 86.48 54.37 87.75 54.75 89.02 55.01 90.17 55.26 91.57 55.39 92.84 55.64 94.12 55.64 95.39 55.77 96.79 55.77 98.06 55.77 99.33 55.64 100.61 55.64 102.01 55.39 103.28 55.26 104.55 55.01 105.7 54.75 106.97 54.37 108.11 53.99 109.26 53.61 110.4 53.1 111.42 52.72 112.44 52.08 113.46 51.57 114.48 51.06 115.37 50.42 116.13 49.79 117.02 49.15 117.66 48.52 118.42 47.75 119.06 47.12 119.31 46.73 119.57 46.35 120.08 45.72 120.59 44.95 120.97 44.19 121.22 43.43 121.6 42.79 121.86 42.03 121.99 41.26 122.11 40.5 122.24 39.86 122.24 39.1 122.24 38.33 122.11 37.7 121.99 36.93 121.86 36.17 121.6 35.41 121.22 34.77 120.97 34.01 120.59 33.24 120.08 32.61 119.57 31.84 119.06 31.08 118.68 30.83 118.42 30.44 118.04 30.06 117.66 29.68 117.02 29.04 116.13 28.41 115.37 27.77 114.48 27.14 113.46 26.63 112.44 26.12 111.42 25.61 110.4 25.1 109.26 24.59 108.11 24.21 106.97 23.83 105.7 23.57 104.55 23.19 103.28 22.94 102.01 22.81 100.61 22.68 99.33 22.55 98.06 22.43 96.79 22.43 95.39 22.43 94.12 22.55 92.84 22.68 91.57 22.81 90.17 22.94 89.02 23.19 87.75 23.57 86.48 23.83 85.33 24.21 84.19 24.59 83.04 25.1 82.03 25.61 81.01 26.12 79.99 26.63 78.97 27.14 78.08 27.77 77.32 28.41 76.55 29.04 75.79 29.68 75.41 30.06 75.03 30.44 74.77 30.83 74.39 31.08 73.88 31.84 73.37 32.61 72.86 33.24 72.48 34.01 72.23 34.77 71.84 35.41 71.72 36.17 71.46 36.93 71.34 37.7 71.34 38.33 71.21 39.1 71.21 39.1"/>
          <polygon class="cls-6" points="71.44 39.04 71.56 39.8 71.56 40.43 71.69 41.18 71.94 41.94 72.07 42.7 72.44 43.33 72.7 44.08 73.08 44.84 73.58 45.6 74.08 46.23 74.59 46.99 74.97 47.36 75.22 47.62 75.98 48.37 76.73 49 77.49 49.63 78.25 50.26 79.13 50.9 80.14 51.4 81.15 51.9 82.16 52.53 83.17 52.91 84.3 53.42 85.44 53.8 86.57 54.17 87.83 54.55 89.09 54.81 90.23 55.06 91.62 55.18 92.88 55.44 94.14 55.44 95.4 55.56 96.79 55.56 98.05 55.56 99.31 55.44 100.57 55.44 101.96 55.18 103.22 55.06 104.48 54.81 105.62 54.55 106.88 54.17 108.01 53.8 109.15 53.42 110.28 52.91 111.29 52.53 112.3 51.9 113.31 51.4 114.32 50.9 115.2 50.26 115.96 49.63 116.84 49 117.47 48.37 118.23 47.62 118.86 46.99 119.11 46.61 119.36 46.23 119.87 45.6 120.37 44.84 120.75 44.08 121 43.33 121.38 42.7 121.63 41.94 121.76 41.18 121.89 40.43 122.01 39.8 122.01 39.04 122.01 38.28 121.89 37.65 121.76 36.89 121.63 36.14 121.38 35.38 121 34.75 120.75 33.99 120.37 33.24 119.87 32.61 119.36 31.85 118.86 31.09 118.48 30.84 118.23 30.46 117.85 30.08 117.47 29.71 116.84 29.07 115.96 28.44 115.2 27.81 114.32 27.18 113.31 26.68 112.3 26.17 111.29 25.67 110.28 25.16 109.15 24.66 108.01 24.28 106.88 23.9 105.62 23.65 104.48 23.27 103.22 23.02 101.96 22.89 100.57 22.77 99.31 22.64 98.05 22.52 96.79 22.52 95.4 22.52 94.14 22.64 92.88 22.77 91.62 22.89 90.23 23.02 89.09 23.27 87.83 23.65 86.57 23.9 85.44 24.28 84.3 24.66 83.17 25.16 82.16 25.67 81.15 26.17 80.14 26.68 79.13 27.18 78.25 27.81 77.49 28.44 76.73 29.07 75.98 29.71 75.6 30.08 75.22 30.46 74.97 30.84 74.59 31.09 74.08 31.85 73.58 32.61 73.08 33.24 72.7 33.99 72.44 34.75 72.07 35.38 71.94 36.14 71.69 36.89 71.56 37.65 71.56 38.28 71.44 39.04 71.44 39.04"/>
          <polygon class="cls-19" points="71.66 38.98 71.79 39.73 71.79 40.35 71.91 41.1 72.16 41.85 72.29 42.6 72.66 43.23 72.91 43.98 73.29 44.73 73.79 45.48 74.29 46.1 74.79 46.85 75.16 47.23 75.41 47.48 76.16 48.23 76.91 48.85 77.66 49.48 78.41 50.1 79.29 50.73 80.29 51.23 81.29 51.73 82.29 52.35 83.29 52.73 84.41 53.23 85.54 53.6 86.66 53.98 87.91 54.35 89.16 54.6 90.29 54.85 91.66 54.98 92.91 55.23 94.16 55.23 95.41 55.35 96.79 55.35 98.04 55.35 99.29 55.23 100.54 55.23 101.91 54.98 103.16 54.85 104.41 54.6 105.54 54.35 106.79 53.98 107.91 53.6 109.04 53.23 110.16 52.73 111.16 52.35 112.16 51.73 113.16 51.23 114.16 50.73 115.04 50.1 115.79 49.48 116.66 48.85 117.29 48.23 118.04 47.48 118.66 46.85 118.91 46.48 119.16 46.1 119.66 45.48 120.16 44.73 120.54 43.98 120.79 43.23 121.16 42.6 121.41 41.85 121.54 41.1 121.66 40.35 121.79 39.73 121.79 38.98 121.79 38.23 121.66 37.6 121.54 36.85 121.41 36.1 121.16 35.35 120.79 34.73 120.54 33.98 120.16 33.23 119.66 32.6 119.16 31.85 118.66 31.1 118.29 30.86 118.04 30.48 117.66 30.11 117.29 29.73 116.66 29.1 115.79 28.48 115.04 27.86 114.16 27.23 113.16 26.73 112.16 26.23 111.16 25.73 110.16 25.23 109.04 24.73 107.91 24.36 106.79 23.98 105.54 23.73 104.41 23.36 103.16 23.11 101.91 22.98 100.54 22.86 99.29 22.73 98.04 22.61 96.79 22.61 95.41 22.61 94.16 22.73 92.91 22.86 91.66 22.98 90.29 23.11 89.16 23.36 87.91 23.73 86.66 23.98 85.54 24.36 84.41 24.73 83.29 25.23 82.29 25.73 81.29 26.23 80.29 26.73 79.29 27.23 78.41 27.86 77.66 28.48 76.91 29.1 76.16 29.73 75.79 30.11 75.41 30.48 75.16 30.86 74.79 31.1 74.29 31.85 73.79 32.6 73.29 33.23 72.91 33.98 72.66 34.73 72.29 35.35 72.16 36.1 71.91 36.85 71.79 37.6 71.79 38.23 71.66 38.98 71.66 38.98"/>
          <polygon class="cls-23" points="71.89 38.92 72.01 39.66 72.01 40.28 72.14 41.03 72.38 41.77 72.51 42.51 72.88 43.13 73.13 43.88 73.5 44.62 73.99 45.36 74.49 45.98 74.99 46.72 75.36 47.1 75.6 47.34 76.35 48.09 77.09 48.71 77.83 49.33 78.58 49.94 79.44 50.56 80.44 51.06 81.43 51.55 82.42 52.17 83.41 52.55 84.52 53.04 85.64 53.41 86.75 53.78 87.99 54.16 89.23 54.4 90.35 54.65 91.71 54.78 92.95 55.02 94.18 55.02 95.42 55.15 96.79 55.15 98.02 55.15 99.26 55.02 100.5 55.02 101.86 54.78 103.1 54.65 104.34 54.4 105.46 54.16 106.7 53.78 107.81 53.41 108.92 53.04 110.04 52.55 111.03 52.17 112.02 51.55 113.01 51.06 114 50.56 114.87 49.94 115.61 49.33 116.48 48.71 117.1 48.09 117.84 47.34 118.46 46.72 118.71 46.35 118.96 45.98 119.45 45.36 119.95 44.62 120.32 43.88 120.57 43.13 120.94 42.51 121.19 41.77 121.31 41.03 121.44 40.28 121.56 39.66 121.56 38.92 121.56 38.18 121.44 37.56 121.31 36.81 121.19 36.07 120.94 35.33 120.57 34.71 120.32 33.97 119.95 33.22 119.45 32.6 118.96 31.86 118.46 31.12 118.09 30.87 117.84 30.5 117.47 30.13 117.1 29.75 116.48 29.14 115.61 28.52 114.87 27.9 114 27.28 113.01 26.78 112.02 26.29 111.03 25.79 110.04 25.3 108.92 24.8 107.81 24.43 106.7 24.06 105.46 23.81 104.34 23.44 103.1 23.19 101.86 23.07 100.5 22.94 99.26 22.82 98.02 22.69 96.79 22.69 95.42 22.69 94.18 22.82 92.95 22.94 91.71 23.07 90.35 23.19 89.23 23.44 87.99 23.81 86.75 24.06 85.64 24.43 84.52 24.8 83.41 25.3 82.42 25.79 81.43 26.29 80.44 26.78 79.44 27.28 78.58 27.9 77.83 28.52 77.09 29.14 76.35 29.75 75.98 30.13 75.6 30.5 75.36 30.87 74.99 31.12 74.49 31.86 73.99 32.6 73.5 33.22 73.13 33.97 72.88 34.71 72.51 35.33 72.38 36.07 72.14 36.81 72.01 37.56 72.01 38.18 71.89 38.92 71.89 38.92"/>
          <polygon class="cls-10" points="72.12 38.86 72.24 39.6 72.24 40.21 72.36 40.95 72.61 41.68 72.73 42.42 73.1 43.03 73.34 43.77 73.71 44.51 74.2 45.24 74.69 45.86 75.18 46.59 75.55 46.96 75.8 47.21 76.53 47.94 77.27 48.56 78.01 49.17 78.74 49.78 79.6 50.4 80.58 50.89 81.57 51.38 82.55 51.99 83.53 52.36 84.63 52.85 85.74 53.22 86.84 53.59 88.07 53.96 89.3 54.2 90.4 54.45 91.75 54.57 92.98 54.82 94.21 54.82 95.44 54.94 96.79 54.94 98.01 54.94 99.24 54.82 100.47 54.82 101.82 54.57 103.05 54.45 104.27 54.2 105.38 53.96 106.6 53.59 107.71 53.22 108.81 52.85 109.92 52.36 110.9 51.99 111.88 51.38 112.86 50.89 113.85 50.4 114.7 49.78 115.44 49.17 116.3 48.56 116.91 47.94 117.65 47.21 118.26 46.59 118.51 46.23 118.76 45.86 119.25 45.24 119.74 44.51 120.11 43.77 120.35 43.03 120.72 42.42 120.96 41.68 121.09 40.95 121.21 40.21 121.33 39.6 121.33 38.86 121.33 38.12 121.21 37.51 121.09 36.77 120.96 36.04 120.72 35.3 120.35 34.69 120.11 33.95 119.74 33.22 119.25 32.6 118.76 31.87 118.26 31.13 117.9 30.88 117.65 30.52 117.28 30.15 116.91 29.78 116.3 29.17 115.44 28.55 114.7 27.94 113.85 27.32 112.86 26.83 111.88 26.34 110.9 25.85 109.92 25.36 108.81 24.87 107.71 24.5 106.6 24.13 105.38 23.89 104.27 23.52 103.05 23.27 101.82 23.15 100.47 23.03 99.24 22.91 98.01 22.78 96.79 22.78 95.44 22.78 94.21 22.91 92.98 23.03 91.75 23.15 90.4 23.27 89.3 23.52 88.07 23.89 86.84 24.13 85.74 24.5 84.63 24.87 83.53 25.36 82.55 25.85 81.57 26.34 80.58 26.83 79.6 27.32 78.74 27.94 78.01 28.55 77.27 29.17 76.53 29.78 76.17 30.15 75.8 30.52 75.55 30.88 75.18 31.13 74.69 31.87 74.2 32.6 73.71 33.22 73.34 33.95 73.1 34.69 72.73 35.3 72.61 36.04 72.36 36.77 72.24 37.51 72.24 38.12 72.12 38.86 72.12 38.86"/>
          <polygon class="cls-5" points="72.34 38.8 72.46 39.53 72.46 40.14 72.59 40.87 72.83 41.6 72.95 42.33 73.32 42.94 73.56 43.67 73.92 44.4 74.41 45.13 74.9 45.73 75.38 46.46 75.75 46.83 75.99 47.07 76.72 47.8 77.45 48.41 78.18 49.02 78.91 49.62 79.76 50.23 80.73 50.72 81.71 51.21 82.68 51.81 83.65 52.18 84.75 52.66 85.84 53.03 86.94 53.39 88.15 53.76 89.37 54 90.46 54.25 91.8 54.37 93.02 54.61 94.23 54.61 95.45 54.73 96.78 54.73 98 54.73 99.22 54.61 100.43 54.61 101.77 54.37 102.99 54.25 104.2 54 105.3 53.76 106.51 53.39 107.61 53.03 108.7 52.66 109.8 52.18 110.77 51.81 111.74 51.21 112.71 50.72 113.69 50.23 114.54 49.62 115.27 49.02 116.12 48.41 116.73 47.8 117.46 47.07 118.07 46.46 118.31 46.1 118.55 45.73 119.04 45.13 119.52 44.4 119.89 43.67 120.13 42.94 120.5 42.33 120.74 41.6 120.86 40.87 120.98 40.14 121.11 39.53 121.11 38.8 121.11 38.07 120.98 37.46 120.86 36.73 120.74 36.01 120.5 35.28 120.13 34.67 119.89 33.94 119.52 33.21 119.04 32.6 118.55 31.87 118.07 31.14 117.7 30.9 117.46 30.53 117.09 30.17 116.73 29.8 116.12 29.2 115.27 28.59 114.54 27.98 113.69 27.37 112.71 26.89 111.74 26.4 110.77 25.91 109.8 25.43 108.7 24.94 107.61 24.57 106.51 24.21 105.3 23.97 104.2 23.6 102.99 23.36 101.77 23.24 100.43 23.12 99.22 22.99 98 22.87 96.78 22.87 95.45 22.87 94.23 22.99 93.02 23.12 91.8 23.24 90.46 23.36 89.37 23.6 88.15 23.97 86.94 24.21 85.84 24.57 84.75 24.94 83.65 25.43 82.68 25.91 81.71 26.4 80.73 26.89 79.76 27.37 78.91 27.98 78.18 28.59 77.45 29.2 76.72 29.8 76.36 30.17 75.99 30.53 75.75 30.9 75.38 31.14 74.9 31.87 74.41 32.6 73.92 33.21 73.56 33.94 73.32 34.67 72.95 35.28 72.83 36.01 72.59 36.73 72.46 37.46 72.46 38.07 72.34 38.8 72.34 38.8"/>
          <polygon class="cls-25" points="72.57 38.74 72.69 39.47 72.69 40.07 72.81 40.79 73.05 41.51 73.17 42.24 73.53 42.84 73.77 43.56 74.14 44.28 74.62 45.01 75.1 45.61 75.58 46.33 75.94 46.69 76.18 46.94 76.91 47.66 77.63 48.26 78.35 48.86 79.08 49.46 79.92 50.07 80.88 50.55 81.85 51.03 82.81 51.63 83.77 51.99 84.86 52.48 85.94 52.84 87.03 53.2 88.23 53.56 89.44 53.8 90.52 54.04 91.85 54.16 93.05 54.4 94.25 54.4 95.46 54.52 96.78 54.52 97.99 54.52 99.19 54.4 100.4 54.4 101.72 54.16 102.93 54.04 104.13 53.8 105.22 53.56 106.42 53.2 107.51 52.84 108.59 52.48 109.67 51.99 110.64 51.63 111.6 51.03 112.57 50.55 113.53 50.07 114.37 49.46 115.1 48.86 115.94 48.26 116.54 47.66 117.26 46.94 117.87 46.33 118.11 45.97 118.35 45.61 118.83 45.01 119.31 44.28 119.67 43.56 119.92 42.84 120.28 42.24 120.52 41.51 120.64 40.79 120.76 40.07 120.88 39.47 120.88 38.74 120.88 38.02 120.76 37.42 120.64 36.69 120.52 35.97 120.28 35.25 119.92 34.65 119.67 33.92 119.31 33.2 118.83 32.6 118.35 31.88 117.87 31.15 117.51 30.91 117.26 30.55 116.9 30.19 116.54 29.83 115.94 29.23 115.1 28.62 114.37 28.02 113.53 27.42 112.57 26.94 111.6 26.45 110.64 25.97 109.67 25.49 108.59 25.01 107.51 24.65 106.42 24.29 105.22 24.05 104.13 23.68 102.93 23.44 101.72 23.32 100.4 23.2 99.19 23.08 97.99 22.96 96.78 22.96 95.46 22.96 94.25 23.08 93.05 23.2 91.85 23.32 90.52 23.44 89.44 23.68 88.23 24.05 87.03 24.29 85.94 24.65 84.86 25.01 83.77 25.49 82.81 25.97 81.85 26.45 80.88 26.94 79.92 27.42 79.08 28.02 78.35 28.62 77.63 29.23 76.91 29.83 76.55 30.19 76.18 30.55 75.94 30.91 75.58 31.15 75.1 31.88 74.62 32.6 74.14 33.2 73.77 33.92 73.53 34.65 73.17 35.25 73.05 35.97 72.81 36.69 72.69 37.42 72.69 38.02 72.57 38.74 72.57 38.74"/>
          <polygon class="cls-26" points="72.8 38.68 72.92 39.4 72.92 40 73.04 40.71 73.27 41.43 73.39 42.14 73.75 42.74 73.99 43.46 74.35 44.17 74.83 44.89 75.3 45.49 75.78 46.2 76.14 46.56 76.38 46.8 77.09 47.51 77.81 48.11 78.52 48.71 79.24 49.31 80.08 49.9 81.03 50.38 81.99 50.86 82.94 51.45 83.9 51.81 84.97 52.29 86.04 52.65 87.12 53 88.31 53.36 89.5 53.6 90.58 53.84 91.89 53.96 93.08 54.2 94.28 54.2 95.47 54.32 96.78 54.32 97.98 54.32 99.17 54.2 100.36 54.2 101.68 53.96 102.87 53.84 104.06 53.6 105.14 53.36 106.33 53 107.41 52.65 108.48 52.29 109.55 51.81 110.51 51.45 111.46 50.86 112.42 50.38 113.37 49.9 114.21 49.31 114.92 48.71 115.76 48.11 116.36 47.51 117.07 46.8 117.67 46.2 117.91 45.84 118.15 45.49 118.62 44.89 119.1 44.17 119.46 43.46 119.7 42.74 120.06 42.14 120.29 41.43 120.41 40.71 120.53 40 120.65 39.4 120.65 38.68 120.65 37.97 120.53 37.37 120.41 36.66 120.29 35.94 120.06 35.22 119.7 34.63 119.46 33.91 119.1 33.19 118.62 32.6 118.15 31.88 117.67 31.17 117.31 30.93 117.07 30.57 116.71 30.21 116.36 29.85 115.76 29.26 114.92 28.66 114.21 28.06 113.37 27.47 112.42 26.99 111.46 26.51 110.51 26.03 109.55 25.56 108.48 25.08 107.41 24.72 106.33 24.36 105.14 24.12 104.06 23.77 102.87 23.53 101.68 23.41 100.36 23.29 99.17 23.17 97.98 23.05 96.78 23.05 95.47 23.05 94.28 23.17 93.08 23.29 91.89 23.41 90.58 23.53 89.5 23.77 88.31 24.12 87.12 24.36 86.04 24.72 84.97 25.08 83.9 25.56 82.94 26.03 81.99 26.51 81.03 26.99 80.08 27.47 79.24 28.06 78.52 28.66 77.81 29.26 77.09 29.85 76.73 30.21 76.38 30.57 76.14 30.93 75.78 31.17 75.3 31.88 74.83 32.6 74.35 33.19 73.99 33.91 73.75 34.63 73.39 35.22 73.27 35.94 73.04 36.66 72.92 37.37 72.92 37.97 72.8 38.68 72.8 38.68"/>
          <polygon class="cls-12" points="73.02 38.62 73.14 39.33 73.14 39.92 73.26 40.63 73.5 41.34 73.61 42.05 73.97 42.64 74.21 43.35 74.56 44.06 75.03 44.77 75.51 45.36 75.98 46.07 76.33 46.43 76.57 46.66 77.28 47.37 77.99 47.96 78.7 48.55 79.41 49.15 80.23 49.74 81.18 50.21 82.13 50.68 83.07 51.27 84.02 51.63 85.08 52.1 86.14 52.46 87.21 52.81 88.39 53.16 89.57 53.4 90.64 53.64 91.94 53.76 93.12 53.99 94.3 53.99 95.48 54.11 96.78 54.11 97.97 54.11 99.15 53.99 100.33 53.99 101.63 53.76 102.81 53.64 103.99 53.4 105.06 53.16 106.24 52.81 107.3 52.46 108.37 52.1 109.43 51.63 110.38 51.27 111.32 50.68 112.27 50.21 113.21 49.74 114.04 49.15 114.75 48.55 115.58 47.96 116.17 47.37 116.88 46.66 117.47 46.07 117.71 45.72 117.94 45.36 118.42 44.77 118.89 44.06 119.24 43.35 119.48 42.64 119.83 42.05 120.07 41.34 120.19 40.63 120.31 39.92 120.43 39.33 120.43 38.62 120.43 37.92 120.31 37.32 120.19 36.62 120.07 35.91 119.83 35.2 119.48 34.61 119.24 33.9 118.89 33.19 118.42 32.6 117.94 31.89 117.47 31.18 117.12 30.94 116.88 30.59 116.52 30.23 116.17 29.88 115.58 29.29 114.75 28.7 114.04 28.1 113.21 27.51 112.27 27.04 111.32 26.57 110.38 26.09 109.43 25.62 108.37 25.15 107.3 24.79 106.24 24.44 105.06 24.2 103.99 23.85 102.81 23.61 101.63 23.49 100.33 23.38 99.15 23.26 97.97 23.14 96.78 23.14 95.48 23.14 94.3 23.26 93.12 23.38 91.94 23.49 90.64 23.61 89.57 23.85 88.39 24.2 87.21 24.44 86.14 24.79 85.08 25.15 84.02 25.62 83.07 26.09 82.13 26.57 81.18 27.04 80.23 27.51 79.41 28.1 78.7 28.7 77.99 29.29 77.28 29.88 76.92 30.23 76.57 30.59 76.33 30.94 75.98 31.18 75.51 31.89 75.03 32.6 74.56 33.19 74.21 33.9 73.97 34.61 73.61 35.2 73.5 35.91 73.26 36.62 73.14 37.32 73.14 37.92 73.02 38.62 73.02 38.62"/>
          <polygon class="cls-1" points="73.25 38.57 73.37 39.27 73.37 39.85 73.48 40.56 73.72 41.26 73.84 41.96 74.19 42.55 74.42 43.25 74.77 43.95 75.24 44.65 75.71 45.24 76.18 45.94 76.53 46.29 76.76 46.53 77.46 47.23 78.17 47.81 78.87 48.4 79.57 48.99 80.39 49.57 81.33 50.04 82.27 50.51 83.2 51.09 84.14 51.44 85.19 51.91 86.25 52.26 87.3 52.61 88.47 52.97 89.64 53.2 90.69 53.43 91.98 53.55 93.15 53.79 94.32 53.79 95.49 53.9 96.78 53.9 97.95 53.9 99.12 53.79 100.29 53.79 101.58 53.55 102.75 53.43 103.92 53.2 104.98 52.97 106.15 52.61 107.2 52.26 108.26 51.91 109.31 51.44 110.25 51.09 111.18 50.51 112.12 50.04 113.06 49.57 113.88 48.99 114.58 48.4 115.4 47.81 115.98 47.23 116.69 46.53 117.27 45.94 117.51 45.59 117.74 45.24 118.21 44.65 118.68 43.95 119.03 43.25 119.26 42.55 119.61 41.96 119.85 41.26 119.96 40.56 120.08 39.85 120.2 39.27 120.2 38.57 120.2 37.86 120.08 37.28 119.96 36.58 119.85 35.87 119.61 35.17 119.26 34.58 119.03 33.88 118.68 33.18 118.21 32.59 117.74 31.89 117.27 31.19 116.92 30.96 116.69 30.6 116.33 30.25 115.98 29.9 115.4 29.32 114.58 28.73 113.88 28.15 113.06 27.56 112.12 27.09 111.18 26.62 110.25 26.16 109.31 25.69 108.26 25.22 107.2 24.87 106.15 24.52 104.98 24.28 103.92 23.93 102.75 23.7 101.58 23.58 100.29 23.46 99.12 23.35 97.95 23.23 96.78 23.23 95.49 23.23 94.32 23.35 93.15 23.46 91.98 23.58 90.69 23.7 89.64 23.93 88.47 24.28 87.3 24.52 86.25 24.87 85.19 25.22 84.14 25.69 83.2 26.16 82.27 26.62 81.33 27.09 80.39 27.56 79.57 28.15 78.87 28.73 78.17 29.32 77.46 29.9 77.11 30.25 76.76 30.6 76.53 30.96 76.18 31.19 75.71 31.89 75.24 32.59 74.77 33.18 74.42 33.88 74.19 34.58 73.84 35.17 73.72 35.87 73.48 36.58 73.37 37.28 73.37 37.86 73.25 38.57 73.25 38.57"/>
          <polygon class="cls-27" points="73.48 38.51 73.59 39.2 73.59 39.78 73.71 40.48 73.94 41.17 74.06 41.87 74.4 42.45 74.64 43.14 74.98 43.84 75.45 44.54 75.91 45.12 76.38 45.81 76.72 46.16 76.96 46.39 77.65 47.09 78.35 47.67 79.04 48.25 79.74 48.83 80.55 49.41 81.48 49.87 82.4 50.33 83.33 50.91 84.26 51.26 85.3 51.72 86.35 52.07 87.39 52.42 88.55 52.77 89.71 53 90.75 53.23 92.03 53.35 93.19 53.58 94.35 53.58 95.51 53.7 96.78 53.7 97.94 53.7 99.1 53.58 100.26 53.58 101.54 53.35 102.7 53.23 103.85 53 104.9 52.77 106.06 52.42 107.1 52.07 108.14 51.72 109.19 51.26 110.12 50.91 111.04 50.33 111.97 49.87 112.9 49.41 113.71 48.83 114.41 48.25 115.22 47.67 115.8 47.09 116.49 46.39 117.07 45.81 117.3 45.46 117.54 45.12 118 44.54 118.46 43.84 118.81 43.14 119.04 42.45 119.39 41.87 119.62 41.17 119.74 40.48 119.86 39.78 119.97 39.2 119.97 38.51 119.97 37.81 119.86 37.23 119.74 36.54 119.62 35.84 119.39 35.14 119.04 34.56 118.81 33.87 118.46 33.17 118 32.59 117.54 31.9 117.07 31.2 116.72 30.97 116.49 30.62 116.15 30.27 115.8 29.93 115.22 29.35 114.41 28.77 113.71 28.19 112.9 27.61 111.97 27.14 111.04 26.68 110.12 26.22 109.19 25.75 108.14 25.29 107.1 24.94 106.06 24.59 104.9 24.36 103.85 24.01 102.7 23.78 101.54 23.67 100.26 23.55 99.1 23.43 97.94 23.32 96.78 23.32 95.51 23.32 94.35 23.43 93.19 23.55 92.03 23.67 90.75 23.78 89.71 24.01 88.55 24.36 87.39 24.59 86.35 24.94 85.3 25.29 84.26 25.75 83.33 26.22 82.4 26.68 81.48 27.14 80.55 27.61 79.74 28.19 79.04 28.77 78.35 29.35 77.65 29.93 77.3 30.27 76.96 30.62 76.72 30.97 76.38 31.2 75.91 31.9 75.45 32.59 74.98 33.17 74.64 33.87 74.4 34.56 74.06 35.14 73.94 35.84 73.71 36.54 73.59 37.23 73.59 37.81 73.48 38.51 73.48 38.51"/>
          <polygon class="cls-31" points="73.7 38.45 73.82 39.14 73.82 39.71 73.93 40.4 74.16 41.09 74.28 41.78 74.62 42.35 74.85 43.04 75.2 43.73 75.66 44.42 76.11 44.99 76.57 45.68 76.92 46.02 77.15 46.25 77.84 46.94 78.53 47.52 79.21 48.09 79.9 48.67 80.71 49.24 81.63 49.7 82.54 50.16 83.46 50.73 84.38 51.08 85.41 51.54 86.45 51.88 87.48 52.22 88.63 52.57 89.78 52.8 90.81 53.03 92.07 53.14 93.22 53.37 94.37 53.37 95.52 53.49 96.78 53.49 97.93 53.49 99.08 53.37 100.23 53.37 101.49 53.14 102.64 53.03 103.79 52.8 104.82 52.57 105.97 52.22 107 51.88 108.03 51.54 109.07 51.08 109.99 50.73 110.9 50.16 111.82 49.7 112.74 49.24 113.54 48.67 114.23 48.09 115.04 47.52 115.61 46.94 116.3 46.25 116.87 45.68 117.1 45.34 117.33 44.99 117.79 44.42 118.25 43.73 118.6 43.04 118.83 42.35 119.17 41.78 119.4 41.09 119.51 40.4 119.63 39.71 119.74 39.14 119.74 38.45 119.74 37.76 119.63 37.18 119.51 36.5 119.4 35.81 119.17 35.12 118.83 34.54 118.6 33.85 118.25 33.17 117.79 32.59 117.33 31.9 116.87 31.21 116.53 30.98 116.3 30.64 115.96 30.3 115.61 29.95 115.04 29.38 114.23 28.8 113.54 28.23 112.74 27.65 111.82 27.2 110.9 26.74 109.99 26.28 109.07 25.82 108.03 25.36 107 25.01 105.97 24.67 104.82 24.44 103.79 24.1 102.64 23.87 101.49 23.75 100.23 23.64 99.08 23.52 97.93 23.41 96.78 23.41 95.52 23.41 94.37 23.52 93.22 23.64 92.07 23.75 90.81 23.87 89.78 24.1 88.63 24.44 87.48 24.67 86.45 25.01 85.41 25.36 84.38 25.82 83.46 26.28 82.54 26.74 81.63 27.2 80.71 27.65 79.9 28.23 79.21 28.8 78.53 29.38 77.84 29.95 77.49 30.3 77.15 30.64 76.92 30.98 76.57 31.21 76.11 31.9 75.66 32.59 75.2 33.17 74.85 33.85 74.62 34.54 74.28 35.12 74.16 35.81 73.93 36.5 73.82 37.18 73.82 37.76 73.7 38.45 73.7 38.45"/>
          <polygon class="cls-29" points="73.93 38.39 74.04 39.07 74.04 39.64 74.16 40.32 74.39 41 74.5 41.68 74.84 42.25 75.07 42.94 75.41 43.62 75.86 44.3 76.32 44.87 76.77 45.55 77.11 45.89 77.34 46.12 78.02 46.8 78.71 47.37 79.39 47.94 80.07 48.51 80.87 49.07 81.77 49.53 82.68 49.98 83.59 50.55 84.5 50.89 85.53 51.35 86.55 51.69 87.57 52.03 88.71 52.37 89.85 52.6 90.87 52.83 92.12 52.94 93.26 53.17 94.39 53.17 95.53 53.28 96.78 53.28 97.92 53.28 99.05 53.17 100.19 53.17 101.44 52.94 102.58 52.83 103.72 52.6 104.74 52.37 105.88 52.03 106.9 51.69 107.92 51.35 108.95 50.89 109.85 50.55 110.76 49.98 111.67 49.53 112.58 49.07 113.38 48.51 114.06 47.94 114.86 47.37 115.43 46.8 116.11 46.12 116.68 45.55 116.9 45.21 117.13 44.87 117.58 44.3 118.04 43.62 118.38 42.94 118.61 42.25 118.95 41.68 119.18 41 119.29 40.32 119.4 39.64 119.52 39.07 119.52 38.39 119.52 37.71 119.4 37.14 119.29 36.46 119.18 35.77 118.95 35.09 118.61 34.52 118.38 33.84 118.04 33.16 117.58 32.59 117.13 31.91 116.68 31.23 116.33 31 116.11 30.66 115.77 30.32 115.43 29.98 114.86 29.41 114.06 28.84 113.38 28.27 112.58 27.7 111.67 27.25 110.76 26.79 109.85 26.34 108.95 25.88 107.92 25.43 106.9 25.09 105.88 24.75 104.74 24.52 103.72 24.18 102.58 23.95 101.44 23.84 100.19 23.72 99.05 23.61 97.92 23.5 96.78 23.5 95.53 23.5 94.39 23.61 93.26 23.72 92.12 23.84 90.87 23.95 89.85 24.18 88.71 24.52 87.57 24.75 86.55 25.09 85.53 25.43 84.5 25.88 83.59 26.34 82.68 26.79 81.77 27.25 80.87 27.7 80.07 28.27 79.39 28.84 78.71 29.41 78.02 29.98 77.68 30.32 77.34 30.66 77.11 31 76.77 31.23 76.32 31.91 75.86 32.59 75.41 33.16 75.07 33.84 74.84 34.52 74.5 35.09 74.39 35.77 74.16 36.46 74.04 37.14 74.04 37.71 73.93 38.39 73.93 38.39"/>
          <polygon class="cls-2" points="74.16 38.33 74.27 39 74.27 39.57 74.38 40.24 74.61 40.92 74.72 41.59 75.06 42.16 75.28 42.83 75.62 43.51 76.07 44.18 76.52 44.74 76.97 45.42 77.31 45.76 77.53 45.98 78.21 46.66 78.88 47.22 79.56 47.78 80.24 48.35 81.02 48.91 81.92 49.36 82.82 49.81 83.72 50.37 84.62 50.71 85.64 51.16 86.65 51.5 87.66 51.83 88.79 52.17 89.91 52.4 90.93 52.62 92.17 52.74 93.29 52.96 94.42 52.96 95.54 53.07 96.78 53.07 97.91 53.07 99.03 52.96 100.16 52.96 101.4 52.74 102.52 52.62 103.65 52.4 104.66 52.17 105.78 51.83 106.8 51.5 107.81 51.16 108.82 50.71 109.72 50.37 110.62 49.81 111.52 49.36 112.43 48.91 113.21 48.35 113.89 47.78 114.68 47.22 115.24 46.66 115.91 45.98 116.48 45.42 116.7 45.08 116.93 44.74 117.38 44.18 117.83 43.51 118.17 42.83 118.39 42.16 118.73 41.59 118.95 40.92 119.07 40.24 119.18 39.57 119.29 39 119.29 38.33 119.29 37.65 119.18 37.09 119.07 36.42 118.95 35.74 118.73 35.06 118.39 34.5 118.17 33.83 117.83 33.15 117.38 32.59 116.93 31.91 116.48 31.24 116.14 31.01 115.91 30.68 115.58 30.34 115.24 30 114.68 29.44 113.89 28.87 113.21 28.31 112.43 27.75 111.52 27.3 110.62 26.85 109.72 26.4 108.82 25.95 107.81 25.5 106.8 25.16 105.78 24.82 104.66 24.6 103.65 24.26 102.52 24.03 101.4 23.92 100.16 23.81 99.03 23.7 97.91 23.58 96.78 23.58 95.54 23.58 94.42 23.7 93.29 23.81 92.17 23.92 90.93 24.03 89.91 24.26 88.79 24.6 87.66 24.82 86.65 25.16 85.64 25.5 84.62 25.95 83.72 26.4 82.82 26.85 81.92 27.3 81.02 27.75 80.24 28.31 79.56 28.87 78.88 29.44 78.21 30 77.87 30.34 77.53 30.68 77.31 31.01 76.97 31.24 76.52 31.91 76.07 32.59 75.62 33.15 75.28 33.83 75.06 34.5 74.72 35.06 74.61 35.74 74.38 36.42 74.27 37.09 74.27 37.65 74.16 38.33 74.16 38.33"/>
          <polygon class="cls-9" points="74.38 38.27 74.5 38.94 74.5 39.5 74.61 40.16 74.83 40.83 74.94 41.5 75.28 42.06 75.5 42.73 75.83 43.39 76.28 44.06 76.72 44.62 77.17 45.29 77.5 45.62 77.73 45.85 78.4 46.51 79.06 47.07 79.73 47.63 80.4 48.19 81.18 48.74 82.07 49.19 82.96 49.63 83.86 50.19 84.75 50.53 85.75 50.97 86.75 51.31 87.75 51.64 88.87 51.97 89.98 52.2 90.99 52.42 92.21 52.53 93.33 52.75 94.44 52.75 95.55 52.87 96.78 52.87 97.89 52.87 99.01 52.75 100.12 52.75 101.35 52.53 102.46 52.42 103.58 52.2 104.58 51.97 105.69 51.64 106.7 51.31 107.7 50.97 108.7 50.53 109.59 50.19 110.48 49.63 111.38 49.19 112.27 48.74 113.05 48.19 113.72 47.63 114.5 47.07 115.05 46.51 115.72 45.85 116.28 45.29 116.5 44.95 116.72 44.62 117.17 44.06 117.62 43.39 117.95 42.73 118.17 42.06 118.51 41.5 118.73 40.83 118.84 40.16 118.95 39.5 119.06 38.94 119.06 38.27 119.06 37.6 118.95 37.04 118.84 36.38 118.73 35.71 118.51 35.04 118.17 34.48 117.95 33.81 117.62 33.14 117.17 32.59 116.72 31.92 116.28 31.25 115.94 31.03 115.72 30.69 115.39 30.36 115.05 30.02 114.5 29.47 113.72 28.91 113.05 28.35 112.27 27.8 111.38 27.35 110.48 26.9 109.59 26.46 108.7 26.01 107.7 25.57 106.7 25.23 105.69 24.9 104.58 24.68 103.58 24.34 102.46 24.12 101.35 24.01 100.12 23.9 99.01 23.78 97.89 23.67 96.78 23.67 95.55 23.67 94.44 23.78 93.33 23.9 92.21 24.01 90.99 24.12 89.98 24.34 88.87 24.68 87.75 24.9 86.75 25.23 85.75 25.57 84.75 26.01 83.86 26.46 82.96 26.9 82.07 27.35 81.18 27.8 80.4 28.35 79.73 28.91 79.06 29.47 78.4 30.02 78.06 30.36 77.73 30.69 77.5 31.03 77.17 31.25 76.72 31.92 76.28 32.59 75.83 33.14 75.5 33.81 75.28 34.48 74.94 35.04 74.83 35.71 74.61 36.38 74.5 37.04 74.5 37.6 74.38 38.27 74.38 38.27"/>
          <polygon class="cls-7" points="74.61 38.21 74.72 38.87 74.72 39.42 74.83 40.09 75.05 40.75 75.16 41.41 75.49 41.96 75.71 42.62 76.05 43.28 76.49 43.95 76.93 44.5 77.37 45.16 77.7 45.49 77.92 45.71 78.58 46.37 79.24 46.92 79.91 47.47 80.57 48.03 81.34 48.58 82.22 49.02 83.1 49.46 83.99 50.01 84.87 50.34 85.86 50.78 86.85 51.11 87.85 51.44 88.95 51.78 90.05 52 91.04 52.22 92.26 52.33 93.36 52.55 94.46 52.55 95.57 52.66 96.78 52.66 97.88 52.66 98.99 52.55 100.09 52.55 101.3 52.33 102.4 52.22 103.51 52 104.5 51.78 105.6 51.44 106.6 51.11 107.59 50.78 108.58 50.34 109.46 50.01 110.34 49.46 111.23 49.02 112.11 48.58 112.88 48.03 113.54 47.47 114.32 46.92 114.87 46.37 115.53 45.71 116.08 45.16 116.3 44.83 116.52 44.5 116.96 43.95 117.4 43.28 117.73 42.62 117.95 41.96 118.29 41.41 118.51 40.75 118.62 40.09 118.73 39.42 118.84 38.87 118.84 38.21 118.84 37.55 118.73 37 118.62 36.34 118.51 35.67 118.29 35.01 117.95 34.46 117.73 33.8 117.4 33.14 116.96 32.59 116.52 31.92 116.08 31.26 115.75 31.04 115.53 30.71 115.2 30.38 114.87 30.05 114.32 29.5 113.54 28.95 112.88 28.39 112.11 27.84 111.23 27.4 110.34 26.96 109.46 26.52 108.58 26.08 107.59 25.64 106.6 25.31 105.6 24.98 104.5 24.75 103.51 24.42 102.4 24.2 101.3 24.09 100.09 23.98 98.99 23.87 97.88 23.76 96.78 23.76 95.57 23.76 94.46 23.87 93.36 23.98 92.26 24.09 91.04 24.2 90.05 24.42 88.95 24.75 87.85 24.98 86.85 25.31 85.86 25.64 84.87 26.08 83.99 26.52 83.1 26.96 82.22 27.4 81.34 27.84 80.57 28.39 79.91 28.95 79.24 29.5 78.58 30.05 78.25 30.38 77.92 30.71 77.7 31.04 77.37 31.26 76.93 31.92 76.49 32.59 76.05 33.14 75.71 33.8 75.49 34.46 75.16 35.01 75.05 35.67 74.83 36.34 74.72 37 74.72 37.55 74.61 38.21 74.61 38.21"/>
          <polygon class="cls-21" points="74.84 38.15 74.95 38.81 74.95 39.35 75.06 40.01 75.27 40.66 75.38 41.32 75.71 41.86 75.93 42.52 76.26 43.17 76.69 43.83 77.13 44.37 77.57 45.03 77.89 45.36 78.11 45.57 78.77 46.23 79.42 46.77 80.08 47.32 80.73 47.87 81.5 48.41 82.37 48.85 83.24 49.29 84.12 49.83 84.99 50.16 85.97 50.59 86.95 50.92 87.94 51.25 89.03 51.58 90.12 51.8 91.1 52.01 92.3 52.12 93.39 52.34 94.49 52.34 95.58 52.45 96.78 52.45 97.87 52.45 98.96 52.34 100.05 52.34 101.25 52.12 102.35 52.01 103.44 51.8 104.42 51.58 105.51 51.25 106.49 50.92 107.48 50.59 108.46 50.16 109.33 49.83 110.21 49.29 111.08 48.85 111.95 48.41 112.72 47.87 113.37 47.32 114.13 46.77 114.68 46.23 115.34 45.57 115.88 45.03 116.1 44.7 116.32 44.37 116.75 43.83 117.19 43.17 117.52 42.52 117.74 41.86 118.06 41.32 118.28 40.66 118.39 40.01 118.5 39.35 118.61 38.81 118.61 38.15 118.61 37.5 118.5 36.95 118.39 36.3 118.28 35.64 118.06 34.99 117.74 34.44 117.52 33.78 117.19 33.13 116.75 32.58 116.32 31.93 115.88 31.27 115.55 31.06 115.34 30.73 115.01 30.4 114.68 30.07 114.13 29.53 113.37 28.98 112.72 28.44 111.95 27.89 111.08 27.45 110.21 27.02 109.33 26.58 108.46 26.14 107.48 25.71 106.49 25.38 105.51 25.05 104.42 24.83 103.44 24.51 102.35 24.29 101.25 24.18 100.05 24.07 98.96 23.96 97.87 23.85 96.78 23.85 95.58 23.85 94.49 23.96 93.39 24.07 92.3 24.18 91.1 24.29 90.12 24.51 89.03 24.83 87.94 25.05 86.95 25.38 85.97 25.71 84.99 26.14 84.12 26.58 83.24 27.02 82.37 27.45 81.5 27.89 80.73 28.44 80.08 28.98 79.42 29.53 78.77 30.07 78.44 30.4 78.11 30.73 77.89 31.06 77.57 31.27 77.13 31.93 76.69 32.58 76.26 33.13 75.93 33.78 75.71 34.44 75.38 34.99 75.27 35.64 75.06 36.3 74.95 36.95 74.95 37.5 74.84 38.15 74.84 38.15"/>
          <polygon class="cls-22" points="75.06 38.09 75.17 38.74 75.17 39.28 75.28 39.93 75.5 40.58 75.61 41.22 75.93 41.76 76.15 42.41 76.47 43.06 76.9 43.71 77.33 44.25 77.77 44.9 78.09 45.22 78.31 45.44 78.95 46.09 79.6 46.63 80.25 47.17 80.9 47.71 81.65 48.25 82.52 48.68 83.38 49.11 84.25 49.65 85.11 49.97 86.08 50.41 87.06 50.73 88.03 51.05 89.11 51.38 90.19 51.6 91.16 51.81 92.35 51.92 93.43 52.14 94.51 52.14 95.59 52.24 96.78 52.24 97.86 52.24 98.94 52.14 100.02 52.14 101.21 51.92 102.29 51.81 103.37 51.6 104.34 51.38 105.42 51.05 106.39 50.73 107.36 50.41 108.34 49.97 109.2 49.65 110.07 49.11 110.93 48.68 111.79 48.25 112.55 47.71 113.2 47.17 113.95 46.63 114.49 46.09 115.14 45.44 115.68 44.9 115.9 44.57 116.11 44.25 116.55 43.71 116.98 43.06 117.3 42.41 117.52 41.76 117.84 41.22 118.06 40.58 118.17 39.93 118.28 39.28 118.38 38.74 118.38 38.09 118.38 37.44 118.28 36.9 118.17 36.26 118.06 35.61 117.84 34.96 117.52 34.42 117.3 33.77 116.98 33.12 116.55 32.58 116.11 31.93 115.68 31.29 115.36 31.07 115.14 30.75 114.82 30.42 114.49 30.1 113.95 29.56 113.2 29.02 112.55 28.48 111.79 27.94 110.93 27.51 110.07 27.07 109.2 26.64 108.34 26.21 107.36 25.78 106.39 25.45 105.42 25.13 104.34 24.91 103.37 24.59 102.29 24.37 101.21 24.26 100.02 24.16 98.94 24.05 97.86 23.94 96.78 23.94 95.59 23.94 94.51 24.05 93.43 24.16 92.35 24.26 91.16 24.37 90.19 24.59 89.11 24.91 88.03 25.13 87.06 25.45 86.08 25.78 85.11 26.21 84.25 26.64 83.38 27.07 82.52 27.51 81.65 27.94 80.9 28.48 80.25 29.02 79.6 29.56 78.95 30.1 78.63 30.42 78.31 30.75 78.09 31.07 77.77 31.29 77.33 31.93 76.9 32.58 76.47 33.12 76.15 33.77 75.93 34.42 75.61 34.96 75.5 35.61 75.28 36.26 75.17 36.9 75.17 37.44 75.06 38.09 75.06 38.09"/>
          <polygon class="cls-4" points="75.29 38.03 75.4 38.67 75.4 39.21 75.51 39.85 75.72 40.49 75.83 41.13 76.15 41.67 76.36 42.31 76.68 42.95 77.11 43.59 77.54 44.13 77.96 44.77 78.28 45.09 78.5 45.3 79.14 45.94 79.78 46.48 80.42 47.01 81.06 47.55 81.81 48.08 82.67 48.51 83.52 48.94 84.38 49.47 85.23 49.79 86.2 50.22 87.16 50.54 88.12 50.86 89.19 51.18 90.26 51.39 91.22 51.61 92.39 51.72 93.46 51.93 94.53 51.93 95.6 52.04 96.78 52.04 97.85 52.04 98.92 51.93 99.98 51.93 101.16 51.72 102.23 51.61 103.3 51.39 104.26 51.18 105.33 50.86 106.29 50.54 107.25 50.22 108.22 49.79 109.07 49.47 109.93 48.94 110.78 48.51 111.64 48.08 112.38 47.55 113.03 47.01 113.77 46.48 114.31 45.94 114.95 45.3 115.48 44.77 115.7 44.45 115.91 44.13 116.34 43.59 116.77 42.95 117.09 42.31 117.3 41.67 117.62 41.13 117.84 40.49 117.94 39.85 118.05 39.21 118.16 38.67 118.16 38.03 118.16 37.39 118.05 36.86 117.94 36.22 117.84 35.57 117.62 34.93 117.3 34.4 117.09 33.76 116.77 33.12 116.34 32.58 115.91 31.94 115.48 31.3 115.16 31.08 114.95 30.76 114.63 30.44 114.31 30.12 113.77 29.59 113.03 29.05 112.38 28.52 111.64 27.98 110.78 27.56 109.93 27.13 109.07 26.7 108.22 26.27 107.25 25.85 106.29 25.53 105.33 25.21 104.26 24.99 103.3 24.67 102.23 24.46 101.16 24.35 99.98 24.24 98.92 24.14 97.85 24.03 96.78 24.03 95.6 24.03 94.53 24.14 93.46 24.24 92.39 24.35 91.22 24.46 90.26 24.67 89.19 24.99 88.12 25.21 87.16 25.53 86.2 25.85 85.23 26.27 84.38 26.7 83.52 27.13 82.67 27.56 81.81 27.98 81.06 28.52 80.42 29.05 79.78 29.59 79.14 30.12 78.82 30.44 78.5 30.76 78.28 31.08 77.96 31.3 77.54 31.94 77.11 32.58 76.68 33.12 76.36 33.76 76.15 34.4 75.83 34.93 75.72 35.57 75.51 36.22 75.4 36.86 75.4 37.39 75.29 38.03 75.29 38.03"/>
          <polygon class="cls-32" points="75.52 37.97 75.62 38.61 75.62 39.14 75.73 39.77 75.94 40.41 76.05 41.04 76.36 41.57 76.58 42.2 76.89 42.84 77.32 43.47 77.74 44 78.16 44.64 78.48 44.95 78.69 45.17 79.33 45.8 79.96 46.33 80.6 46.86 81.23 47.39 81.97 47.92 82.82 48.34 83.66 48.76 84.51 49.29 85.35 49.61 86.31 50.03 87.26 50.35 88.21 50.66 89.27 50.98 90.33 51.19 91.28 51.41 92.44 51.51 93.5 51.72 94.56 51.72 95.61 51.83 96.78 51.83 97.83 51.83 98.89 51.72 99.95 51.72 101.11 51.51 102.17 51.41 103.23 51.19 104.18 50.98 105.24 50.66 106.19 50.35 107.14 50.03 108.09 49.61 108.94 49.29 109.79 48.76 110.63 48.34 111.48 47.92 112.22 47.39 112.85 46.86 113.59 46.33 114.12 45.8 114.76 45.17 115.29 44.64 115.5 44.32 115.71 44 116.13 43.47 116.55 42.84 116.87 42.2 117.08 41.57 117.4 41.04 117.61 40.41 117.72 39.77 117.82 39.14 117.93 38.61 117.93 37.97 117.93 37.34 117.82 36.81 117.72 36.18 117.61 35.54 117.4 34.91 117.08 34.38 116.87 33.74 116.55 33.11 116.13 32.58 115.71 31.94 115.29 31.31 114.97 31.1 114.76 30.78 114.44 30.46 114.12 30.15 113.59 29.62 112.85 29.09 112.22 28.56 111.48 28.03 110.63 27.61 109.79 27.19 108.94 26.76 108.09 26.34 107.14 25.92 106.19 25.6 105.24 25.28 104.18 25.07 103.23 24.75 102.17 24.54 101.11 24.44 99.95 24.33 98.89 24.22 97.83 24.12 96.78 24.12 95.61 24.12 94.56 24.22 93.5 24.33 92.44 24.44 91.28 24.54 90.33 24.75 89.27 25.07 88.21 25.28 87.26 25.6 86.31 25.92 85.35 26.34 84.51 26.76 83.66 27.19 82.82 27.61 81.97 28.03 81.23 28.56 80.6 29.09 79.96 29.62 79.33 30.15 79.01 30.46 78.69 30.78 78.48 31.1 78.16 31.31 77.74 31.94 77.32 32.58 76.89 33.11 76.58 33.74 76.36 34.38 76.05 34.91 75.94 35.54 75.73 36.18 75.62 36.81 75.62 37.34 75.52 37.97 75.52 37.97"/>
          <polygon class="cls-20" points="75.75 37.91 75.85 38.54 75.85 39.07 75.95 39.69 76.16 40.32 76.27 40.95 76.58 41.47 76.79 42.1 77.11 42.73 77.52 43.36 77.94 43.88 78.36 44.51 78.68 44.82 78.88 45.03 79.51 45.66 80.14 46.18 80.77 46.7 81.4 47.23 82.13 47.75 82.97 48.17 83.8 48.59 84.64 49.11 85.48 49.42 86.42 49.84 87.36 50.16 88.3 50.47 89.35 50.78 90.39 50.99 91.34 51.2 92.49 51.31 93.53 51.52 94.58 51.52 95.63 51.62 96.78 51.62 97.82 51.62 98.87 51.52 99.92 51.52 101.07 51.31 102.11 51.2 103.16 50.99 104.1 50.78 105.15 50.47 106.09 50.16 107.03 49.84 107.97 49.42 108.81 49.11 109.65 48.59 110.48 48.17 111.32 47.75 112.05 47.23 112.68 46.7 113.41 46.18 113.94 45.66 114.56 45.03 115.09 44.51 115.3 44.19 115.51 43.88 115.92 43.36 116.34 42.73 116.66 42.1 116.87 41.47 117.18 40.95 117.39 40.32 117.49 39.69 117.6 39.07 117.7 38.54 117.7 37.91 117.7 37.29 117.6 36.76 117.49 36.14 117.39 35.51 117.18 34.88 116.87 34.36 116.66 33.73 116.34 33.1 115.92 32.58 115.51 31.95 115.09 31.32 114.77 31.11 114.56 30.8 114.25 30.49 113.94 30.17 113.41 29.65 112.68 29.13 112.05 28.6 111.32 28.08 110.48 27.66 109.65 27.24 108.81 26.82 107.97 26.4 107.03 25.99 106.09 25.67 105.15 25.36 104.1 25.15 103.16 24.84 102.11 24.63 101.07 24.52 99.92 24.42 98.87 24.31 97.82 24.21 96.78 24.21 95.63 24.21 94.58 24.31 93.53 24.42 92.49 24.52 91.34 24.63 90.39 24.84 89.35 25.15 88.3 25.36 87.36 25.67 86.42 25.99 85.48 26.4 84.64 26.82 83.8 27.24 82.97 27.66 82.13 28.08 81.4 28.6 80.77 29.13 80.14 29.65 79.51 30.17 79.2 30.49 78.88 30.8 78.68 31.11 78.36 31.32 77.94 31.95 77.52 32.58 77.11 33.1 76.79 33.73 76.58 34.36 76.27 34.88 76.16 35.51 75.95 36.14 75.85 36.76 75.85 37.29 75.75 37.91 75.75 37.91"/>
          <polygon class="cls-3" points="75.97 37.86 76.08 38.48 76.08 38.99 76.18 39.61 76.39 40.24 76.49 40.86 76.8 41.37 77.01 41.99 77.32 42.62 77.73 43.24 78.15 43.75 78.56 44.38 78.87 44.69 79.08 44.89 79.7 45.51 80.32 46.03 80.94 46.55 81.56 47.07 82.29 47.58 83.11 48 83.94 48.41 84.77 48.93 85.6 49.24 86.53 49.65 87.46 49.96 88.39 50.27 89.43 50.59 90.46 50.79 91.39 51 92.53 51.1 93.57 51.31 94.6 51.31 95.64 51.41 96.78 51.41 97.81 51.41 98.85 51.31 99.88 51.31 101.02 51.1 102.05 51 103.09 50.79 104.02 50.59 105.06 50.27 105.99 49.96 106.92 49.65 107.85 49.24 108.68 48.93 109.51 48.41 110.33 48 111.16 47.58 111.89 47.07 112.51 46.55 113.23 46.03 113.75 45.51 114.37 44.89 114.89 44.38 115.1 44.06 115.3 43.75 115.72 43.24 116.13 42.62 116.44 41.99 116.65 41.37 116.96 40.86 117.17 40.24 117.27 39.61 117.37 38.99 117.48 38.48 117.48 37.86 117.48 37.23 117.37 36.72 117.27 36.1 117.17 35.47 116.96 34.85 116.65 34.34 116.44 33.71 116.13 33.09 115.72 32.58 115.3 31.96 114.89 31.33 114.58 31.13 114.37 30.82 114.06 30.51 113.75 30.2 113.23 29.68 112.51 29.16 111.89 28.64 111.16 28.13 110.33 27.71 109.51 27.3 108.68 26.88 107.85 26.47 106.92 26.06 105.99 25.75 105.06 25.44 104.02 25.23 103.09 24.92 102.05 24.71 101.02 24.61 99.88 24.5 98.85 24.4 97.81 24.3 96.78 24.3 95.64 24.3 94.6 24.4 93.57 24.5 92.53 24.61 91.39 24.71 90.46 24.92 89.43 25.23 88.39 25.44 87.46 25.75 86.53 26.06 85.6 26.47 84.77 26.88 83.94 27.3 83.11 27.71 82.29 28.13 81.56 28.64 80.94 29.16 80.32 29.68 79.7 30.2 79.39 30.51 79.08 30.82 78.87 31.13 78.56 31.33 78.15 31.96 77.73 32.58 77.32 33.09 77.01 33.71 76.8 34.34 76.49 34.85 76.39 35.47 76.18 36.1 76.08 36.72 76.08 37.23 75.97 37.86 75.97 37.86"/>
        </g>
        <g>
          <g>
            <path class="cls-3" d="m126.92,34.57l.21.54.13.79.13.79.13.79.13.79v2.49l-.13.79-.13.79-.13.79-.26.79-.26.66-.26.79-.39.79-.39.79-.39.66-.39.79-.53.66-.53.79-.53.66-.53.66-.66.66-.66.66-.66.66-.79.53-.79.66-.79.53-.79.53-.79.53-.92.53-.92.53-.92.53-.92.39-.92.39-1.05.39-.92.39-1.05.26-1.05.39-1.05.26-1.05.26-1.05.13-1.05.26-1.18.13-1.05.13-1.18.13-1.05.13h-1.18l-1.05.13h-1.18l-1.05-.13h-1.18l-1.05-.13-1.18-.13-1.05-.13-1.18-.13-1.05-.26-1.05-.13-1.05-.26-1.05-.26-1.05-.39-1.05-.26-.92-.39-1.05-.39-.92-.39-.92-.39-.92-.53-.92-.53-.92-.53-.79-.53-.79-.53-.79-.53-.79-.66-.66-.53-.79-.66-.66-.66-.66-.66-.53-.66-.53-.66-.53-.79-.53-.66-.39-.79-.39-.66-.39-.79-.39-.79-.26-.79-.26-.66-.26-.79-.13-.79-.13-.79-.13-.79v-2.49l.13-.79.13-.79.13-.79.13-.79.22-.54,5.17-17.06h50.03l5.18,17.06Zm-3.86,5.53v-1.58l-.13-.66-.13-.79-.13-.79-.26-.79-.39-.66-.26-.79-.39-.79-.53-.66-.53-.79-.53-.79-.39-.26-.26-.39-.39-.39-.39-.39-.66-.66-.92-.66-.79-.66-.92-.66-1.05-.53-1.05-.53-1.05-.53-1.05-.53-1.18-.53-1.18-.39-1.18-.39-1.31-.26-1.18-.39-1.31-.26-1.31-.13-1.44-.13-1.31-.13-1.31-.13h-2.76l-1.31.13-1.31.13-1.31.13-1.44.13-1.18.26-1.31.39-1.31.26-1.18.39-1.18.39-1.18.53-1.05.53-1.05.53-1.05.53-1.05.53-.92.66-.79.66-.79.66-.79.66-.39.39-.39.39-.26.39-.39.26-.53.79-.53.79-.53.66-.39.79-.26.79-.39.66-.13.79-.26.79-.13.79v.66l-.13.79.13.79v.66l.13.79.26.79.13.79.39.66.26.79.39.79.53.79.53.66.53.79.39.39.26.26.79.79.79.66.79.66.79.66.92.66,1.05.53,1.05.53,1.05.66,1.05.39,1.18.53,1.18.39,1.18.39,1.31.39,1.31.26,1.18.26,1.44.13,1.31.26h1.31l1.31.13h2.76l1.31-.13h1.31l1.44-.26,1.31-.13,1.31-.26,1.18-.26,1.31-.39,1.18-.39,1.18-.39,1.18-.53,1.05-.39,1.05-.66,1.05-.53,1.05-.53.92-.66.79-.66.92-.66.66-.66.79-.79.66-.66.26-.39.26-.39.53-.66.53-.79.39-.79.26-.79.39-.66.26-.79.13-.79.13-.79.13-.66Zm-18.38-20.29c0-.62-.5-1.12-1.12-1.12s-1.12.49-1.12,1.12.49,1.12,1.12,1.12,1.12-.5,1.12-1.12Zm-6.7,0c0-.62-.5-1.12-1.12-1.12s-1.12.49-1.12,1.12.49,1.12,1.12,1.12,1.12-.5,1.12-1.12Zm-7.22,0c0-.62-.5-1.12-1.12-1.12s-1.12.49-1.12,1.12.49,1.12,1.12,1.12,1.12-.5,1.12-1.12Z"/>
            <path class="cls-13" d="m103.56,18.7c.61,0,1.12.49,1.12,1.12s-.5,1.12-1.12,1.12-1.12-.5-1.12-1.12.49-1.12,1.12-1.12Z"/>
            <path class="cls-24" d="m96.86,25.13c1.92,0,3.48,1.55,3.48,3.48s-1.56,3.48-3.48,3.48-3.48-1.56-3.48-3.48,1.55-3.48,3.48-3.48Zm1.9,3.48c0-1.05-.85-1.9-1.9-1.9s-1.9.85-1.9,1.9.84,1.9,1.9,1.9,1.9-.85,1.9-1.9Z"/>
            <path class="cls-14" d="m89.64,18.7c.61,0,1.12.49,1.12,1.12s-.5,1.12-1.12,1.12-1.12-.5-1.12-1.12.49-1.12,1.12-1.12Z"/>
          </g>
          <g>
            <path class="cls-28" d="m96.14,61.56l-1.09-.13h-1.14s-4.5-.53-4.5-.53l-1.09-.27-1.01-.12-2.14-.53-1.08-.41-1.02-.25-.97-.41-1.04-.39-1.85-.79-2.79-1.59-2.38-1.59-2.26-1.86-1.33-1.33-1.07-1.34-.54-.81-.51-.64-.43-.84-.38-.64-.8-1.6-.81-2.27-.41-2.41v-2.55s.53-3.2.53-3.2l.28-.71c.06-.16.24-.25.4-.19.16.06.25.24.19.4l-.27.67-.51,3.08v2.44s.39,2.31.39,2.31l.78,2.18.77,1.54.38.64.41.81.49.6.54.81,1.03,1.29,1.29,1.29,2.21,1.82,2.34,1.56,2.74,1.57,1.81.77,1.04.39.93.4,1,.25,1.08.41,2.07.51,1.01.12,1.09.27,4.43.52h1.14s1.09.13,1.09.13h1.14s1.01-.13,1.01-.13h1.22s4.43-.53,4.43-.53l1.01-.26,1.09-.14,2.06-.52,1.02-.38,1.08-.27.87-.38,1.06-.4,1.83-.78,2.73-1.56,2.35-1.56.76-.64.81-.55,1.92-1.93,1.03-1.29.51-.77.54-.68.36-.73.41-.68.78-1.56.25-.75.27-.67.26-.77.38-2.32v-2.44s-.53-3.1-.53-3.1l-.24-.58c-.07-.16,0-.34.15-.41.16-.07.34,0,.41.15l.27.67.54,3.21v2.55s-.39,2.42-.39,2.42l-.27.84-.27.67-.26.77-.81,1.62-.41.68-.38.77-.56.71-.51.77-1.07,1.33-1.99,2-.84.56-.76.64-2.39,1.6-2.78,1.59-1.87.8-1.06.4-.91.39-1.1.28-1.02.38-2.13.54-1.09.14-1.01.26-4.5.53h-1.22s-1.01.13-1.01.13h-1.22Z"/>
            <polygon class="cls-16" points="70.4 39.31 70.53 40.1 70.53 40.76 70.66 41.55 70.92 42.33 71.06 43.12 71.45 43.78 71.71 44.57 72.11 45.35 72.63 46.14 73.16 46.8 73.68 47.59 74.08 47.98 74.34 48.24 75.13 49.03 75.91 49.69 76.7 50.34 77.49 51 78.41 51.66 79.46 52.18 80.51 52.71 81.56 53.36 82.61 53.76 83.79 54.28 84.98 54.68 86.16 55.07 87.47 55.47 88.78 55.73 89.97 55.99 91.41 56.12 92.72 56.38 94.04 56.38 95.35 56.52 96.79 56.52 98.11 56.52 99.42 56.38 100.73 56.38 102.18 56.12 103.49 55.99 104.8 55.73 105.99 55.47 107.3 55.07 108.48 54.68 109.66 54.28 110.85 53.76 111.9 53.36 112.95 52.71 114 52.18 115.05 51.66 115.97 51 116.75 50.34 117.67 49.69 118.33 49.03 119.12 48.24 119.77 47.59 120.04 47.19 120.3 46.8 120.83 46.14 121.35 45.35 121.74 44.57 122.01 43.78 122.4 43.12 122.66 42.33 122.8 41.55 122.93 40.76 123.06 40.1 123.06 39.31 123.06 38.53 122.93 37.87 122.8 37.08 122.66 36.29 122.4 35.51 122.01 34.85 121.74 34.06 121.35 33.27 120.83 32.62 120.3 31.83 119.77 31.04 119.38 30.78 119.12 30.38 118.72 29.99 118.33 29.6 117.67 28.94 116.75 28.28 115.97 27.63 115.05 26.97 114 26.44 112.95 25.92 111.9 25.39 110.85 24.87 109.66 24.34 108.48 23.95 107.3 23.56 105.99 23.29 104.8 22.9 103.49 22.64 102.18 22.5 100.73 22.37 99.42 22.24 98.11 22.11 96.79 22.11 95.35 22.11 94.04 22.24 92.72 22.37 91.41 22.5 89.97 22.64 88.78 22.9 87.47 23.29 86.16 23.56 84.98 23.95 83.79 24.34 82.61 24.87 81.56 25.39 80.51 25.92 79.46 26.44 78.41 26.97 77.49 27.63 76.7 28.28 75.91 28.94 75.13 29.6 74.73 29.99 74.34 30.38 74.08 30.78 73.68 31.04 73.16 31.83 72.63 32.62 72.11 33.27 71.71 34.06 71.45 34.85 71.06 35.51 70.92 36.29 70.66 37.08 70.53 37.87 70.53 38.53 70.4 39.31"/>
            <circle class="cls-16" cx="96.86" cy="28.61" r="1.9"/>
            <circle class="cls-16" cx="96.86" cy="28.61" r="3.48"/>
            <path class="cls-28" d="m66.46,35.16s-.06,0-.1-.02c-.16-.05-.26-.23-.2-.39l.09-.27,5.16-17.06c.04-.13.16-.22.3-.22h50.03c.14,0,.26.09.3.22l5.25,17.34c.05.17-.05.34-.22.39-.17.05-.34-.05-.39-.22l-.08-.27-5.11-16.83h-49.57l-5.19,17.12c-.04.13-.17.22-.3.22Z"/>
            <path class="cls-16" d="m96.86,18.7c-.62,0-1.12.49-1.12,1.12s.49,1.12,1.12,1.12,1.12-.5,1.12-1.12-.5-1.12-1.12-1.12Z"/>
            <path class="cls-16" d="m103.56,18.7c-.62,0-1.12.49-1.12,1.12s.49,1.12,1.12,1.12,1.12-.5,1.12-1.12-.5-1.12-1.12-1.12Z"/>
            <path class="cls-16" d="m89.64,18.7c-.62,0-1.12.49-1.12,1.12s.49,1.12,1.12,1.12,1.12-.5,1.12-1.12-.5-1.12-1.12-1.12Z"/>
          </g>
        </g>
      </g>
    </g>
  </g>
  <path class="cls-28" d="m128.4,72.99H.36c-.2,0-.36-.16-.36-.36s.16-.36.36-.36h128.04c.2,0,.36.16.36.36s-.16.36-.36.36Z"/>
  <path class="cls-28" d="m64.38,77.42c-.2,0-.36-.16-.36-.36v-4.44c0-.2.16-.36.36-.36s.36.16.36.36v4.44c0,.2-.16.36-.36.36Z"/>
</svg>