<?xml version="1.0" encoding="UTF-8"?>
<svg xmlns="http://www.w3.org/2000/svg" xmlns:xlink="http://www.w3.org/1999/xlink" viewBox="0 0 439.84 839.13">
  <defs>
    <style>
      .cls-1 {
        fill: #ddd;
      }

      .cls-2 {
        fill: #e9e9e9;
      }

      .cls-3 {
        fill: url(#linear-gradient-2);
      }

      .cls-4 {
        fill: #f0f0f0;
      }

      .cls-5 {
        fill: #f4f4f4;
      }

      .cls-6 {
        fill: #fff;
      }

      .cls-7 {
        fill: #c5c5c5;
      }

      .cls-8 {
        fill: #cbcbcb;
      }

      .cls-9 {
        fill: #d1d1d1;
      }

      .cls-10 {
        fill: #fafafa;
      }

      .cls-11 {
        fill: #dbdbdb;
      }

      .cls-12 {
        fill: #cacaca;
      }

      .cls-13 {
        fill: #d8d8d8;
      }

      .cls-14 {
        fill: #f6f6f6;
      }

      .cls-15 {
        fill: #bfbfbf;
      }

      .cls-16 {
        fill: url(#linear-gradient);
      }

      .cls-16, .cls-17, .cls-18 {
        mix-blend-mode: multiply;
      }

      .cls-19 {
        fill: #939598;
      }

      .cls-17 {
        fill: url(#linear-gradient-4);
      }

      .cls-20 {
        fill: silver;
      }

      .cls-21 {
        fill: #e2e2e2;
      }

      .cls-22 {
        fill: #f5f5f5;
      }

      .cls-23 {
        fill: url(#linear-gradient-6);
      }

      .cls-24 {
        fill: #b2b2b2;
      }

      .cls-25 {
        isolation: isolate;
      }

      .cls-26 {
        fill: #c9c9c8;
      }

      .cls-27 {
        fill: #d6d6d6;
      }

      .cls-28 {
        fill: #c9c9c9;
      }

      .cls-29 {
        fill: #acacab;
      }

      .cls-30 {
        fill: #e0e0e0;
      }

      .cls-31 {
        fill: #c7c7c7;
      }

      .cls-32 {
        fill: #dedede;
      }

      .cls-33 {
        fill: #b3b3b2;
      }

      .cls-34 {
        fill: #c3c3c3;
      }

      .cls-35 {
        fill: #cfcfcf;
      }

      .cls-36 {
        fill: #d7d7d7;
      }

      .cls-37 {
        fill: #9d9d9c;
      }

      .cls-38 {
        fill: #e1e1e1;
      }

      .cls-39 {
        fill: #e6e6e6;
      }

      .cls-40 {
        fill: #e7e7e7;
      }

      .cls-41 {
        fill: #d4d4d4;
      }

      .cls-42 {
        fill: #dadada;
      }

      .cls-43 {
        fill: #eaeaea;
      }

      .cls-44 {
        fill: #c8c8c8;
      }

      .cls-45 {
        fill: #fdfdfd;
      }

      .cls-46 {
        fill: #a4a4a3;
      }

      .cls-47 {
        fill: #e4e4e4;
      }

      .cls-48 {
        fill: none;
        stroke: #949494;
        stroke-linecap: round;
        stroke-linejoin: round;
        stroke-width: .03px;
      }

      .cls-49 {
        fill: #fbfbfb;
      }

      .cls-50 {
        fill: #babab9;
      }

      .cls-51 {
        fill: #f9f9f9;
      }

      .cls-52 {
        fill: #72a6bf;
      }

      .cls-53 {
        fill: #e5e5e5;
      }

      .cls-54 {
        fill: url(#linear-gradient-5);
      }

      .cls-55 {
        fill: #d16660;
      }

      .cls-56 {
        fill: #d3d3d3;
      }

      .cls-57 {
        fill: #ebebeb;
      }

      .cls-58 {
        fill: #bebebe;
      }

      .cls-59 {
        fill: #d5d5d5;
      }

      .cls-60 {
        fill: #dcdcdc;
      }

      .cls-61 {
        fill: #c1c1c1;
      }

      .cls-62 {
        fill: #e8e8e8;
      }

      .cls-63 {
        fill: #ccc;
      }

      .cls-64 {
        fill: #f7f7f7;
      }

      .cls-65 {
        fill: #efefef;
      }

      .cls-66 {
        fill: #c2c2c2;
      }

      .cls-67 {
        fill: #f1f1f1;
      }

      .cls-68 {
        fill: url(#linear-gradient-3);
      }

      .cls-69 {
        fill: #cecece;
      }

      .cls-70 {
        fill: #f3f3f3;
      }

      .cls-71 {
        fill: #d9d9d9;
      }

      .cls-72 {
        fill: #cdcdcd;
      }

      .cls-73 {
        fill: #f8f8f8;
      }

      .cls-74 {
        fill: #d2d2d2;
      }

      .cls-75 {
        fill: #c6c6c6;
      }

      .cls-76 {
        fill: #eee;
      }

      .cls-77 {
        fill: #d0d0d0;
      }

      .cls-78 {
        fill: #ececec;
      }

      .cls-79 {
        fill: #f2f2f2;
      }

      .cls-80 {
        fill: #c4c4c4;
      }

      .cls-81 {
        fill: #fefefe;
      }

      .cls-82 {
        fill: #e3e3e3;
      }

      .cls-83 {
        fill: #fcfcfc;
      }

      .cls-84 {
        fill: #ededed;
      }

      .cls-85 {
        fill: #dfdfdf;
      }
    </style>
    <linearGradient id="linear-gradient" x1="289.19" y1="549.64" x2="208.86" y2="670.14" gradientUnits="userSpaceOnUse">
      <stop offset="0" stop-color="#e0e0e0"/>
      <stop offset="1" stop-color="#fff"/>
    </linearGradient>
    <linearGradient id="linear-gradient-2" x1="1093.56" y1="1711.03" x2="1217.34" y2="1711.03" gradientTransform="translate(2087.6 -513.32) rotate(90.6)" gradientUnits="userSpaceOnUse">
      <stop offset="0" stop-color="#bfbfbe"/>
      <stop offset=".57" stop-color="#fff"/>
      <stop offset="1" stop-color="#c9c9c8"/>
    </linearGradient>
    <linearGradient id="linear-gradient-3" x1="1155.4" y1="1797.53" x2="1155.4" y2="1702.98" xlink:href="#linear-gradient-2"/>
    <linearGradient id="linear-gradient-4" x1="322.3" y1="84.41" x2="232.66" y2="223.59" xlink:href="#linear-gradient"/>
    <linearGradient id="linear-gradient-5" x1="642.82" y1="1686.94" x2="766.6" y2="1686.94" xlink:href="#linear-gradient-2"/>
    <linearGradient id="linear-gradient-6" x1="704.65" y1="1773.45" x2="704.65" y2="1678.9" xlink:href="#linear-gradient-2"/>
  </defs>
  <g class="cls-25">
    <g id="Layer_1" data-name="Layer 1">
      <g>
        <g class="cls-18">
          <path class="cls-6" d="m176.11,466.48c-89.1,0-161.31,83.44-161.31,186.32s72.21,186.33,161.31,186.33,161.28-83.42,161.28-186.33-72.26-186.32-161.28-186.32Z"/>
          <path class="cls-81" d="m177.21,465.99c-89.1,0-161.31,83.44-161.31,186.32s72.21,186.33,161.31,186.33,161.28-83.42,161.28-186.33-72.26-186.32-161.28-186.32Z"/>
          <path class="cls-45" d="m178.3,465.5c-89.1,0-161.31,83.44-161.31,186.32s72.21,186.33,161.31,186.33,161.28-83.42,161.28-186.33-72.26-186.32-161.28-186.32Z"/>
          <path class="cls-83" d="m179.39,465c-89.1,0-161.31,83.44-161.31,186.32s72.21,186.33,161.31,186.33,161.28-83.42,161.28-186.33-72.26-186.32-161.28-186.32Z"/>
          <path class="cls-49" d="m180.49,464.51c-89.1,0-161.31,83.44-161.31,186.32s72.21,186.33,161.31,186.33,161.28-83.42,161.28-186.33-72.26-186.32-161.28-186.32Z"/>
          <path class="cls-10" d="m181.58,464.01c-89.1,0-161.31,83.44-161.31,186.32s72.21,186.33,161.31,186.33,161.28-83.42,161.28-186.33-72.26-186.32-161.28-186.32Z"/>
          <path class="cls-51" d="m182.67,463.52c-89.1,0-161.31,83.44-161.31,186.32s72.21,186.33,161.31,186.33,161.28-83.42,161.28-186.33-72.26-186.32-161.28-186.32Z"/>
          <path class="cls-73" d="m183.77,463.03c-89.1,0-161.31,83.44-161.31,186.32s72.21,186.33,161.31,186.33,161.28-83.42,161.28-186.33-72.26-186.32-161.28-186.32Z"/>
          <path class="cls-64" d="m184.86,462.53c-89.1,0-161.31,83.44-161.31,186.32s72.21,186.33,161.31,186.33,161.28-83.42,161.28-186.33-72.26-186.32-161.28-186.32Z"/>
          <path class="cls-14" d="m185.95,462.04c-89.1,0-161.31,83.44-161.31,186.32s72.21,186.33,161.31,186.33,161.28-83.42,161.28-186.33-72.26-186.32-161.28-186.32Z"/>
          <path class="cls-22" d="m187.05,461.55c-89.1,0-161.31,83.44-161.31,186.32s72.21,186.33,161.31,186.33,161.28-83.42,161.28-186.33-72.26-186.32-161.28-186.32Z"/>
          <path class="cls-5" d="m188.14,461.05c-89.1,0-161.31,83.44-161.31,186.32s72.21,186.33,161.31,186.33,161.28-83.42,161.28-186.33-72.26-186.32-161.28-186.32Z"/>
          <path class="cls-70" d="m189.23,460.56c-89.1,0-161.31,83.44-161.31,186.32s72.21,186.33,161.31,186.33,161.28-83.42,161.28-186.33-72.26-186.32-161.28-186.32Z"/>
          <path class="cls-79" d="m190.33,460.06c-89.1,0-161.31,83.44-161.31,186.32s72.21,186.33,161.31,186.33,161.28-83.42,161.28-186.33-72.26-186.32-161.28-186.32Z"/>
          <path class="cls-67" d="m191.42,459.57c-89.1,0-161.31,83.44-161.31,186.32s72.21,186.33,161.31,186.33,161.27-83.42,161.27-186.33-72.26-186.32-161.27-186.32Z"/>
          <path class="cls-4" d="m192.51,459.08c-89.1,0-161.31,83.44-161.31,186.32s72.21,186.33,161.31,186.33,161.27-83.42,161.27-186.33-72.26-186.32-161.27-186.32Z"/>
          <path class="cls-65" d="m193.61,458.58c-89.1,0-161.31,83.44-161.31,186.32s72.21,186.33,161.31,186.33,161.27-83.42,161.27-186.33-72.26-186.32-161.27-186.32Z"/>
          <path class="cls-76" d="m194.7,458.09c-89.1,0-161.31,83.44-161.31,186.32s72.21,186.33,161.31,186.33,161.27-83.42,161.27-186.33-72.26-186.32-161.27-186.32Z"/>
          <path class="cls-84" d="m195.79,457.59c-89.11,0-161.31,83.44-161.31,186.32s72.21,186.33,161.31,186.33,161.27-83.42,161.27-186.33-72.26-186.32-161.27-186.32Z"/>
          <path class="cls-78" d="m196.89,457.1c-89.11,0-161.31,83.44-161.31,186.32s72.21,186.33,161.31,186.33,161.27-83.42,161.27-186.33-72.26-186.32-161.27-186.32Z"/>
          <path class="cls-57" d="m197.98,456.61c-89.11,0-161.31,83.44-161.31,186.32s72.21,186.33,161.31,186.33,161.27-83.42,161.27-186.33-72.26-186.32-161.27-186.32Z"/>
          <path class="cls-43" d="m199.07,456.11c-89.11,0-161.31,83.44-161.31,186.32s72.21,186.33,161.31,186.33,161.27-83.42,161.27-186.33-72.26-186.32-161.27-186.32Z"/>
          <path class="cls-2" d="m200.17,455.62c-89.11,0-161.31,83.44-161.31,186.32s72.2,186.33,161.31,186.33,161.27-83.42,161.27-186.33-72.26-186.32-161.27-186.32Z"/>
          <path class="cls-62" d="m201.26,455.13c-89.11,0-161.31,83.44-161.31,186.32s72.2,186.33,161.31,186.33,161.27-83.42,161.27-186.33-72.26-186.32-161.27-186.32Z"/>
          <path class="cls-40" d="m202.35,454.63c-89.11,0-161.31,83.44-161.31,186.32s72.2,186.33,161.31,186.33,161.27-83.42,161.27-186.33-72.26-186.32-161.27-186.32Z"/>
          <path class="cls-39" d="m203.45,454.14c-89.11,0-161.31,83.44-161.31,186.32s72.2,186.33,161.31,186.33,161.27-83.42,161.27-186.33-72.26-186.32-161.27-186.32Z"/>
          <path class="cls-53" d="m204.54,453.64c-89.11,0-161.31,83.44-161.31,186.32s72.2,186.33,161.31,186.33,161.27-83.42,161.27-186.33-72.26-186.32-161.27-186.32Z"/>
          <path class="cls-47" d="m205.63,453.15c-89.11,0-161.31,83.44-161.31,186.32s72.2,186.33,161.31,186.33,161.27-83.42,161.27-186.33-72.26-186.32-161.27-186.32Z"/>
          <path class="cls-82" d="m206.73,452.66c-89.11,0-161.31,83.44-161.31,186.32s72.2,186.33,161.31,186.33,161.27-83.42,161.27-186.33-72.26-186.32-161.27-186.32Z"/>
          <path class="cls-21" d="m207.82,452.16c-89.11,0-161.31,83.44-161.31,186.32s72.2,186.33,161.31,186.33,161.27-83.42,161.27-186.33-72.26-186.32-161.27-186.32Z"/>
          <path class="cls-21" d="m208.91,451.67c-89.11,0-161.31,83.44-161.31,186.32s72.2,186.33,161.31,186.33,161.27-83.42,161.27-186.33-72.26-186.32-161.27-186.32Z"/>
          <path class="cls-38" d="m210.01,451.18c-89.11,0-161.31,83.44-161.31,186.32s72.2,186.33,161.31,186.33,161.27-83.42,161.27-186.33-72.26-186.32-161.27-186.32Z"/>
          <path class="cls-30" d="m211.1,450.68c-89.11,0-161.31,83.44-161.31,186.32s72.2,186.33,161.31,186.33,161.27-83.42,161.27-186.33-72.26-186.32-161.27-186.32Z"/>
          <path class="cls-85" d="m212.19,450.19c-89.11,0-161.31,83.44-161.31,186.32s72.2,186.33,161.31,186.33,161.27-83.42,161.27-186.33-72.26-186.32-161.27-186.32Z"/>
          <path class="cls-32" d="m213.29,449.69c-89.11,0-161.31,83.44-161.31,186.32s72.2,186.33,161.31,186.33,161.27-83.42,161.27-186.33-72.26-186.32-161.27-186.32Z"/>
          <path class="cls-1" d="m214.38,449.2c-89.11,0-161.31,83.44-161.31,186.32s72.2,186.33,161.31,186.33,161.27-83.42,161.27-186.33-72.25-186.32-161.27-186.32Z"/>
          <path class="cls-60" d="m215.47,448.71c-89.11,0-161.31,83.44-161.31,186.32s72.2,186.33,161.31,186.33,161.27-83.42,161.27-186.33-72.25-186.32-161.27-186.32Z"/>
          <path class="cls-11" d="m216.57,448.21c-89.11,0-161.31,83.44-161.31,186.32s72.2,186.33,161.31,186.33,161.27-83.42,161.27-186.33-72.25-186.32-161.27-186.32Z"/>
          <path class="cls-42" d="m217.66,447.72c-89.11,0-161.31,83.44-161.31,186.32s72.2,186.33,161.31,186.33,161.27-83.42,161.27-186.33-72.25-186.32-161.27-186.32Z"/>
          <path class="cls-71" d="m218.75,447.22c-89.11,0-161.31,83.44-161.31,186.32s72.2,186.33,161.31,186.33,161.27-83.42,161.27-186.33-72.25-186.32-161.27-186.32Z"/>
          <path class="cls-13" d="m219.85,446.73c-89.11,0-161.31,83.44-161.31,186.32s72.2,186.33,161.31,186.33,161.27-83.42,161.27-186.33-72.25-186.32-161.27-186.32Z"/>
          <path class="cls-36" d="m220.94,446.24c-89.11,0-161.31,83.44-161.31,186.32s72.2,186.33,161.31,186.33,161.27-83.42,161.27-186.33-72.25-186.32-161.27-186.32Z"/>
          <path class="cls-27" d="m222.03,445.74c-89.11,0-161.31,83.44-161.31,186.32s72.2,186.33,161.31,186.33,161.27-83.42,161.27-186.33-72.25-186.32-161.27-186.32Z"/>
          <path class="cls-59" d="m223.13,445.25c-89.11,0-161.31,83.44-161.31,186.32s72.2,186.33,161.31,186.33,161.27-83.42,161.27-186.33-72.25-186.32-161.27-186.32Z"/>
          <path class="cls-41" d="m224.22,444.76c-89.11,0-161.31,83.44-161.31,186.32s72.2,186.33,161.31,186.33,161.27-83.42,161.27-186.33-72.25-186.32-161.27-186.32Z"/>
          <path class="cls-56" d="m225.32,444.26c-89.11,0-161.31,83.44-161.31,186.32s72.2,186.33,161.31,186.33,161.27-83.42,161.27-186.33-72.25-186.32-161.27-186.32Z"/>
          <path class="cls-74" d="m226.41,443.77c-89.11,0-161.31,83.44-161.31,186.32s72.2,186.33,161.31,186.33,161.27-83.42,161.27-186.33-72.25-186.32-161.27-186.32Z"/>
          <path class="cls-9" d="m227.5,443.27c-89.11,0-161.31,83.44-161.31,186.32s72.2,186.33,161.31,186.33,161.27-83.42,161.27-186.33-72.25-186.32-161.27-186.32Z"/>
          <path class="cls-77" d="m228.6,442.78c-89.11,0-161.31,83.44-161.31,186.32s72.2,186.33,161.31,186.33,161.27-83.42,161.27-186.33-72.25-186.32-161.27-186.32Z"/>
          <path class="cls-35" d="m229.69,442.29c-89.11,0-161.31,83.44-161.31,186.32s72.2,186.33,161.31,186.33,161.27-83.42,161.27-186.33-72.25-186.32-161.27-186.32Z"/>
          <path class="cls-69" d="m230.78,441.79c-89.11,0-161.31,83.44-161.31,186.32s72.2,186.33,161.31,186.33,161.27-83.42,161.27-186.33-72.25-186.32-161.27-186.32Z"/>
          <path class="cls-72" d="m231.88,441.3c-89.11,0-161.31,83.44-161.31,186.32s72.2,186.33,161.31,186.33,161.27-83.42,161.27-186.33-72.25-186.32-161.27-186.32Z"/>
          <path class="cls-63" d="m232.97,440.81c-89.11,0-161.31,83.44-161.31,186.32s72.2,186.33,161.31,186.33,161.27-83.42,161.27-186.33-72.25-186.32-161.27-186.32Z"/>
          <path class="cls-8" d="m234.06,440.31c-89.11,0-161.31,83.44-161.31,186.32s72.2,186.33,161.31,186.33,161.27-83.42,161.27-186.33-72.25-186.32-161.27-186.32Z"/>
          <path class="cls-12" d="m235.16,439.82c-89.11,0-161.31,83.44-161.31,186.32s72.2,186.33,161.31,186.33,161.27-83.42,161.27-186.33-72.25-186.32-161.27-186.32Z"/>
          <path class="cls-28" d="m236.25,439.32c-89.11,0-161.31,83.44-161.31,186.32s72.2,186.33,161.31,186.33,161.27-83.42,161.27-186.33-72.25-186.32-161.27-186.32Z"/>
          <path class="cls-44" d="m237.34,438.83c-89.11,0-161.31,83.44-161.31,186.32s72.2,186.33,161.31,186.33,161.27-83.42,161.27-186.33-72.25-186.32-161.27-186.32Z"/>
          <path class="cls-31" d="m238.44,438.34c-89.11,0-161.31,83.44-161.31,186.32s72.2,186.33,161.31,186.33,161.27-83.42,161.27-186.33-72.25-186.32-161.27-186.32Z"/>
          <path class="cls-75" d="m239.53,437.84c-89.11,0-161.31,83.44-161.31,186.32s72.2,186.33,161.31,186.33,161.27-83.42,161.27-186.33-72.25-186.32-161.27-186.32Z"/>
        </g>
        <g>
          <g>
            <path class="cls-42" d="m239.53,810.49c89.02,0,161.27-83.42,161.27-186.33s-72.25-186.32-161.27-186.32-161.31,83.44-161.31,186.32,72.2,186.33,161.31,186.33Z"/>
            <path class="cls-11" d="m239.53,438.57c-88.83,0-160.8,83.11-160.8,185.59s71.97,185.61,160.8,185.61,160.76-83.1,160.76-185.61-72.02-185.59-160.76-185.59Z"/>
            <path class="cls-60" d="m239.52,439.3c-88.55,0-160.29,82.79-160.29,184.86s71.74,184.88,160.29,184.88,160.26-82.77,160.26-184.88-71.79-184.86-160.26-184.86Z"/>
            <path class="cls-1" d="m239.52,440.03c-88.26,0-159.78,82.46-159.78,184.13s71.51,184.15,159.78,184.15,159.75-82.44,159.75-184.15-71.56-184.13-159.75-184.13Z"/>
            <path class="cls-32" d="m239.52,440.75c-87.98,0-159.27,82.14-159.27,183.4s71.29,183.43,159.27,183.43,159.25-82.12,159.25-183.43-71.33-183.4-159.25-183.4Z"/>
            <path class="cls-85" d="m239.52,441.48c-87.7,0-158.76,81.81-158.76,182.67s71.06,182.7,158.76,182.7,158.74-81.79,158.74-182.7-71.1-182.67-158.74-182.67Z"/>
            <path class="cls-30" d="m239.51,442.21c-87.42,0-158.25,81.48-158.25,181.94s70.83,181.97,158.25,181.97,158.24-81.46,158.24-181.97-70.87-181.94-158.24-181.94Z"/>
            <path class="cls-38" d="m239.51,442.94c-87.14,0-157.74,81.16-157.74,181.22s70.6,181.25,157.74,181.25,157.73-81.14,157.73-181.25-70.64-181.22-157.73-181.22Z"/>
            <path class="cls-21" d="m239.51,443.66c-86.85,0-157.23,80.83-157.23,180.49s70.37,180.52,157.23,180.52,157.22-80.81,157.22-180.52-70.41-180.49-157.22-180.49Z"/>
            <path class="cls-82" d="m239.51,444.39c-86.57,0-156.72,80.51-156.72,179.76s70.15,179.79,156.72,179.79,156.72-80.48,156.72-179.79-70.18-179.76-156.72-179.76Z"/>
            <path class="cls-47" d="m239.5,445.12c-86.29,0-156.21,80.18-156.21,179.03s69.92,179.07,156.21,179.07,156.21-80.15,156.21-179.07-69.95-179.03-156.21-179.03Z"/>
            <path class="cls-53" d="m239.5,445.85c-86.01,0-155.7,79.86-155.7,178.3s69.69,178.34,155.7,178.34,155.71-79.83,155.71-178.34-69.72-178.3-155.71-178.3Z"/>
            <path class="cls-39" d="m239.5,446.57c-85.73,0-155.19,79.53-155.19,177.57s69.46,177.61,155.19,177.61,155.2-79.5,155.2-177.61-69.49-177.57-155.2-177.57Z"/>
            <path class="cls-40" d="m239.5,447.3c-85.44,0-154.68,79.2-154.68,176.85s69.23,176.89,154.68,176.89,154.7-79.17,154.7-176.89-69.26-176.85-154.7-176.85Z"/>
            <path class="cls-62" d="m239.49,448.03c-85.16,0-154.16,78.88-154.16,176.12s69,176.16,154.16,176.16,154.19-78.85,154.19-176.16-69.03-176.12-154.19-176.12Z"/>
            <path class="cls-62" d="m239.49,448.76c-84.88,0-153.65,78.55-153.65,175.39s68.78,175.43,153.65,175.43,153.69-78.52,153.69-175.43-68.8-175.39-153.69-175.39Z"/>
            <path class="cls-2" d="m239.49,449.48c-84.6,0-153.14,78.23-153.14,174.66s68.55,174.71,153.14,174.71,153.18-78.19,153.18-174.71-68.57-174.66-153.18-174.66Z"/>
            <path class="cls-43" d="m239.49,450.21c-84.31,0-152.63,77.9-152.63,173.93s68.32,173.98,152.63,173.98,152.68-77.87,152.68-173.98-68.34-173.93-152.68-173.93Z"/>
            <path class="cls-57" d="m239.48,450.94c-84.03,0-152.12,77.57-152.12,173.2s68.09,173.25,152.12,173.25,152.17-77.54,152.17-173.25-68.11-173.2-152.17-173.2Z"/>
            <path class="cls-78" d="m239.48,451.67c-83.75,0-151.61,77.25-151.61,172.47s67.86,172.53,151.61,172.53,151.67-77.21,151.67-172.53-67.88-172.47-151.67-172.47Z"/>
            <path class="cls-84" d="m239.48,452.4c-83.47,0-151.1,76.92-151.1,171.75s67.64,171.8,151.1,171.8,151.16-76.89,151.16-171.8-67.65-171.75-151.16-171.75Z"/>
            <path class="cls-76" d="m239.48,453.12c-83.19,0-150.59,76.6-150.59,171.02s67.41,171.07,150.59,171.07,150.65-76.56,150.65-171.07-67.42-171.02-150.65-171.02Z"/>
            <path class="cls-65" d="m239.47,453.85c-82.9,0-150.08,76.27-150.08,170.29s67.18,170.35,150.08,170.35,150.15-76.23,150.15-170.35-67.19-170.29-150.15-170.29Z"/>
            <path class="cls-4" d="m239.47,454.58c-82.62,0-149.57,75.95-149.57,169.56s66.95,169.62,149.57,169.62,149.64-75.91,149.64-169.62-66.96-169.56-149.64-169.56Z"/>
            <path class="cls-67" d="m239.47,455.31c-82.34,0-149.06,75.62-149.06,168.83s66.72,168.89,149.06,168.89,149.14-75.58,149.14-168.89-66.73-168.83-149.14-168.83Z"/>
            <path class="cls-79" d="m239.47,456.03c-82.06,0-148.55,75.29-148.55,168.1s66.49,168.17,148.55,168.17,148.63-75.25,148.63-168.17-66.5-168.1-148.63-168.1Z"/>
            <path class="cls-70" d="m239.46,456.76c-81.77,0-148.04,74.97-148.04,167.37s66.27,167.44,148.04,167.44,148.13-74.93,148.13-167.44-66.27-167.37-148.13-167.37Z"/>
            <path class="cls-5" d="m239.46,457.49c-81.49,0-147.53,74.64-147.53,166.65s66.04,166.71,147.53,166.71,147.62-74.6,147.62-166.71-66.04-166.65-147.62-166.65Z"/>
            <path class="cls-22" d="m239.46,458.22c-81.21,0-147.02,74.32-147.02,165.92s65.81,165.99,147.02,165.99,147.12-74.27,147.12-165.99-65.81-165.92-147.12-165.92Z"/>
            <path class="cls-14" d="m239.46,458.94c-80.93,0-146.51,73.99-146.51,165.19s65.58,165.26,146.51,165.26,146.61-73.95,146.61-165.26-65.58-165.19-146.61-165.19Z"/>
            <path class="cls-22" d="m239.46,459.31c-80.73,0-146.14,73.82-146.14,164.82s65.42,164.89,146.14,164.89,146.24-73.78,146.24-164.89-65.42-164.82-146.24-164.82Z"/>
            <path class="cls-5" d="m239.46,459.68c-80.52,0-145.78,73.66-145.78,164.45s65.25,164.52,145.78,164.52,145.87-73.62,145.87-164.52-65.25-164.45-145.87-164.45Z"/>
            <path class="cls-70" d="m239.46,460.05c-80.32,0-145.41,73.49-145.41,164.08s65.09,164.15,145.41,164.15,145.51-73.45,145.51-164.15-65.09-164.08-145.51-164.08Z"/>
            <path class="cls-79" d="m239.46,460.42c-80.12,0-145.04,73.33-145.04,163.71s64.92,163.78,145.04,163.78,145.14-73.29,145.14-163.78-64.93-163.71-145.14-163.71Z"/>
            <path class="cls-67" d="m239.46,460.79c-79.92,0-144.68,73.16-144.68,163.35s64.76,163.41,144.68,163.41,144.77-73.12,144.77-163.41-64.76-163.35-144.77-163.35Z"/>
            <path class="cls-4" d="m239.46,461.16c-79.71,0-144.31,73-144.31,162.98s64.6,163.04,144.31,163.04,144.4-72.96,144.4-163.04-64.6-162.98-144.4-162.98Z"/>
            <path class="cls-65" d="m239.46,461.53c-79.51,0-143.94,72.83-143.94,162.61s64.43,162.67,143.94,162.67,144.03-72.79,144.03-162.67-64.44-162.61-144.03-162.61Z"/>
            <path class="cls-76" d="m239.46,461.9c-79.31,0-143.58,72.67-143.58,162.24s64.27,162.3,143.58,162.3,143.66-72.63,143.66-162.3-64.27-162.24-143.66-162.24Z"/>
            <path class="cls-84" d="m239.47,462.26c-79.11,0-143.21,72.5-143.21,161.87s64.1,161.93,143.21,161.93,143.29-72.46,143.29-161.93-64.11-161.87-143.29-161.87Z"/>
            <path class="cls-78" d="m239.47,462.63c-78.9,0-142.84,72.34-142.84,161.5s63.94,161.56,142.84,161.56,142.93-72.3,142.93-161.56-63.95-161.5-142.93-161.5Z"/>
            <path class="cls-57" d="m239.47,463c-78.7,0-142.48,72.17-142.48,161.13s63.77,161.19,142.48,161.19,142.56-72.13,142.56-161.19-63.78-161.13-142.56-161.13Z"/>
            <path class="cls-43" d="m239.47,463.37c-78.5,0-142.11,72.01-142.11,160.77s63.61,160.83,142.11,160.83,142.19-71.97,142.19-160.83-63.62-160.77-142.19-160.77Z"/>
            <path class="cls-2" d="m239.47,463.74c-78.3,0-141.74,71.84-141.74,160.4s63.45,160.46,141.74,160.46,141.82-71.8,141.82-160.46-63.46-160.4-141.82-160.4Z"/>
            <path class="cls-62" d="m239.47,464.11c-78.09,0-141.37,71.68-141.37,160.03s63.28,160.09,141.37,160.09,141.45-71.64,141.45-160.09-63.29-160.03-141.45-160.03Z"/>
            <path class="cls-40" d="m239.47,464.48c-77.89,0-141.01,71.51-141.01,159.66s63.12,159.72,141.01,159.72,141.08-71.48,141.08-159.72-63.13-159.66-141.08-159.66Z"/>
            <path class="cls-39" d="m239.47,464.85c-77.69,0-140.64,71.35-140.64,159.29s62.95,159.35,140.64,159.35,140.71-71.31,140.71-159.35-62.96-159.29-140.71-159.29Z"/>
            <path class="cls-53" d="m239.47,465.22c-77.49,0-140.27,71.18-140.27,158.92s62.79,158.98,140.27,158.98,140.35-71.15,140.35-158.98-62.8-158.92-140.35-158.92Z"/>
            <path class="cls-47" d="m239.47,465.59c-77.28,0-139.91,71.02-139.91,158.56s62.62,158.61,139.91,158.61,139.98-70.98,139.98-158.61-62.64-158.56-139.98-158.56Z"/>
            <path class="cls-82" d="m239.47,465.95c-77.08,0-139.54,70.85-139.54,158.19s62.46,158.24,139.54,158.24,139.61-70.82,139.61-158.24-62.47-158.19-139.61-158.19Z"/>
            <path class="cls-21" d="m239.48,466.32c-76.88,0-139.17,70.69-139.17,157.82s62.3,157.87,139.17,157.87,139.24-70.65,139.24-157.87-62.31-157.82-139.24-157.82Z"/>
            <path class="cls-38" d="m239.48,466.69c-76.68,0-138.81,70.52-138.81,157.45s62.13,157.5,138.81,157.5,138.87-70.49,138.87-157.5-62.15-157.45-138.87-157.45Z"/>
            <path class="cls-30" d="m239.48,467.06c-76.47,0-138.44,70.36-138.44,157.08s61.97,157.13,138.44,157.13,138.5-70.32,138.5-157.13-61.98-157.08-138.5-157.08Z"/>
            <path class="cls-85" d="m239.48,467.43c-76.27,0-138.07,70.19-138.07,156.71s61.8,156.76,138.07,156.76,138.13-70.16,138.13-156.76-61.82-156.71-138.13-156.71Z"/>
            <path class="cls-32" d="m239.48,467.8c-76.07,0-137.71,70.03-137.71,156.34s61.64,156.39,137.71,156.39,137.77-69.99,137.77-156.39-61.66-156.34-137.77-156.34Z"/>
            <path class="cls-1" d="m239.48,468.17c-75.87,0-137.34,69.86-137.34,155.98s61.47,156.02,137.34,156.02,137.4-69.83,137.4-156.02-61.49-155.98-137.4-155.98Z"/>
            <path class="cls-60" d="m239.48,468.54c-75.66,0-136.97,69.7-136.97,155.61s61.31,155.65,136.97,155.65,137.03-69.66,137.03-155.65-61.33-155.61-137.03-155.61Z"/>
            <path class="cls-11" d="m239.48,468.91c-75.46,0-136.61,69.53-136.61,155.24s61.15,155.28,136.61,155.28,136.66-69.5,136.66-155.28-61.17-155.24-136.66-155.24Z"/>
            <path class="cls-42" d="m239.48,469.27c-75.26,0-136.24,69.37-136.24,154.87s60.98,154.91,136.24,154.91,136.29-69.33,136.29-154.91-61-154.87-136.29-154.87Z"/>
            <path class="cls-42" d="m239.48,469.64c-75.06,0-135.87,69.2-135.87,154.5s60.82,154.55,135.87,154.55,135.92-69.17,135.92-154.55-60.84-154.5-135.92-154.5Z"/>
            <path class="cls-71" d="m239.48,470.01c-74.85,0-135.51,69.04-135.51,154.13s60.65,154.18,135.51,154.18,135.55-69,135.55-154.18-60.67-154.13-135.55-154.13Z"/>
            <path class="cls-13" d="m239.49,470.38c-74.65,0-135.14,68.87-135.14,153.76s60.49,153.81,135.14,153.81,135.19-68.84,135.19-153.81-60.51-153.76-135.19-153.76Z"/>
            <path class="cls-36" d="m239.49,470.75c-74.45,0-134.77,68.71-134.77,153.4s60.32,153.44,134.77,153.44,134.82-68.68,134.82-153.44-60.35-153.4-134.82-153.4Z"/>
            <path class="cls-27" d="m239.49,471.12c-74.25,0-134.41,68.54-134.41,153.03s60.16,153.07,134.41,153.07,134.45-68.51,134.45-153.07-60.18-153.03-134.45-153.03Z"/>
            <path class="cls-59" d="m239.49,471.49c-74.04,0-134.04,68.38-134.04,152.66s60,152.7,134.04,152.7,134.08-68.35,134.08-152.7-60.02-152.66-134.08-152.66Z"/>
            <path class="cls-41" d="m239.49,471.86c-73.84,0-133.67,68.21-133.67,152.29s59.83,152.33,133.67,152.33,133.71-68.18,133.71-152.33-59.86-152.29-133.71-152.29Z"/>
            <path class="cls-56" d="m239.49,472.23c-73.64,0-133.31,68.05-133.31,151.92s59.67,151.96,133.31,151.96,133.34-68.02,133.34-151.96-59.69-151.92-133.34-151.92Z"/>
            <path class="cls-74" d="m239.49,472.6c-73.44,0-132.94,67.88-132.94,151.55s59.5,151.59,132.94,151.59,132.97-67.85,132.97-151.59-59.53-151.55-132.97-151.55Z"/>
            <path class="cls-9" d="m239.49,472.96c-73.23,0-132.57,67.72-132.57,151.19s59.34,151.22,132.57,151.22,132.61-67.69,132.61-151.22-59.37-151.19-132.61-151.19Z"/>
            <path class="cls-77" d="m239.49,473.33c-73.03,0-132.2,67.55-132.2,150.82s59.17,150.85,132.2,150.85,132.24-67.52,132.24-150.85-59.2-150.82-132.24-150.82Z"/>
            <path class="cls-35" d="m239.49,473.7c-72.83,0-131.84,67.39-131.84,150.45s59.01,150.48,131.84,150.48,131.87-67.36,131.87-150.48-59.04-150.45-131.87-150.45Z"/>
            <path class="cls-69" d="m239.49,474.07c-72.63,0-131.47,67.22-131.47,150.08s58.84,150.11,131.47,150.11,131.5-67.19,131.5-150.11-58.88-150.08-131.5-150.08Z"/>
            <path class="cls-72" d="m239.49,474.44c-72.42,0-131.1,67.06-131.1,149.71s58.68,149.74,131.1,149.74,131.13-67.03,131.13-149.74-58.71-149.71-131.13-149.71Z"/>
            <path class="cls-63" d="m239.5,474.81c-72.22,0-130.74,66.89-130.74,149.34s58.52,149.37,130.74,149.37,130.76-66.86,130.76-149.37-58.55-149.34-130.76-149.34Z"/>
            <path class="cls-8" d="m239.5,475.18c-72.02,0-130.37,66.73-130.37,148.97s58.35,149,130.37,149,130.39-66.7,130.39-149-58.38-148.97-130.39-148.97Z"/>
            <path class="cls-12" d="m239.5,475.55c-71.82,0-130,66.56-130,148.61s58.19,148.63,130,148.63,130.03-66.53,130.03-148.63-58.22-148.61-130.03-148.61Z"/>
            <path class="cls-28" d="m239.5,475.92c-71.61,0-129.64,66.4-129.64,148.24s58.02,148.27,129.64,148.27,129.66-66.37,129.66-148.27-58.06-148.24-129.66-148.24Z"/>
            <path class="cls-44" d="m239.5,476.29c-71.41,0-129.27,66.23-129.27,147.87s57.86,147.9,129.27,147.9,129.29-66.2,129.29-147.9-57.89-147.87-129.29-147.87Z"/>
            <path class="cls-31" d="m239.5,476.65c-71.21,0-128.9,66.07-128.9,147.5s57.69,147.53,128.9,147.53,128.92-66.04,128.92-147.53-57.73-147.5-128.92-147.5Z"/>
            <path class="cls-75" d="m239.5,477.02c-71.01,0-128.54,65.9-128.54,147.13s57.53,147.16,128.54,147.16,128.55-65.87,128.55-147.16-57.57-147.13-128.55-147.13Z"/>
            <path class="cls-7" d="m239.5,477.39c-70.8,0-128.17,65.74-128.17,146.76s57.37,146.79,128.17,146.79,128.18-65.71,128.18-146.79-57.4-146.76-128.18-146.76Z"/>
            <path class="cls-80" d="m239.5,477.76c-70.6,0-127.8,65.57-127.8,146.39s57.2,146.42,127.8,146.42,127.81-65.55,127.81-146.42-57.24-146.39-127.81-146.39Z"/>
            <path class="cls-34" d="m239.5,478.13c-70.4,0-127.44,65.41-127.44,146.03s57.04,146.05,127.44,146.05,127.45-65.38,127.45-146.05-57.08-146.03-127.45-146.03Z"/>
            <path class="cls-66" d="m239.5,478.5c-70.2,0-127.07,65.24-127.07,145.66s56.87,145.68,127.07,145.68,127.08-65.22,127.08-145.68-56.91-145.66-127.08-145.66Z"/>
            <path class="cls-61" d="m239.51,478.87c-69.99,0-126.7,65.08-126.7,145.29s56.71,145.31,126.7,145.31,126.71-65.05,126.71-145.31-56.75-145.29-126.71-145.29Z"/>
            <path class="cls-20" d="m239.51,479.24c-69.79,0-126.34,64.91-126.34,144.92s56.54,144.94,126.34,144.94,126.34-64.89,126.34-144.94-56.58-144.92-126.34-144.92Z"/>
            <path class="cls-15" d="m239.51,479.61c-69.59,0-125.97,64.75-125.97,144.55s56.38,144.57,125.97,144.57,125.97-64.72,125.97-144.57-56.42-144.55-125.97-144.55Z"/>
            <path class="cls-58" d="m239.51,479.97c-69.39,0-125.6,64.58-125.6,144.18s56.22,144.2,125.6,144.2,125.6-64.56,125.6-144.2-56.26-144.18-125.6-144.18Z"/>
            <path class="cls-15" d="m239.51,481.3c-68.76,0-124.47,63.99-124.47,142.86s55.71,142.88,124.47,142.88,124.47-63.97,124.47-142.88-55.75-142.86-124.47-142.86Z"/>
            <path class="cls-20" d="m239.51,482.62c-68.14,0-123.34,63.4-123.34,141.54s55.2,141.56,123.34,141.56,123.34-63.37,123.34-141.56-55.24-141.54-123.34-141.54Z"/>
            <path class="cls-61" d="m239.51,483.94c-67.51,0-122.21,62.81-122.21,140.22s54.7,140.24,122.21,140.24,122.21-62.78,122.21-140.24-54.74-140.22-122.21-140.22Z"/>
            <path class="cls-66" d="m239.51,485.26c-66.88,0-121.08,62.21-121.08,138.9s54.19,138.92,121.08,138.92,121.08-62.19,121.08-138.92-54.23-138.9-121.08-138.9Z"/>
            <path class="cls-34" d="m239.51,486.58c-66.26,0-119.95,61.62-119.95,137.57s53.69,137.59,119.95,137.59,119.95-61.6,119.95-137.59-53.72-137.57-119.95-137.57Z"/>
            <path class="cls-80" d="m239.51,487.91c-65.63,0-118.82,61.03-118.82,136.25s53.18,136.27,118.82,136.27,118.82-61.01,118.82-136.27-53.21-136.25-118.82-136.25Z"/>
            <path class="cls-7" d="m239.51,489.23c-65.01,0-117.68,60.44-117.68,134.93s52.68,134.95,117.68,134.95,117.69-60.41,117.69-134.95-52.71-134.93-117.69-134.93Z"/>
            <path class="cls-75" d="m239.51,490.55c-64.38,0-116.55,59.85-116.55,133.61s52.17,133.63,116.55,133.63,116.56-59.82,116.56-133.63-52.2-133.61-116.56-133.61Z"/>
            <path class="cls-31" d="m239.51,491.87c-63.76,0-115.42,59.25-115.42,132.28s51.66,132.31,115.42,132.31,115.43-59.23,115.43-132.31-51.69-132.28-115.43-132.28Z"/>
            <path class="cls-44" d="m239.51,493.19c-63.13,0-114.29,58.66-114.29,130.96s51.16,130.99,114.29,130.99,114.3-58.64,114.3-130.99-51.18-130.96-114.3-130.96Z"/>
            <path class="cls-28" d="m239.51,494.51c-62.51,0-113.16,58.07-113.16,129.64s50.65,129.67,113.16,129.67,113.17-58.05,113.17-129.67-50.68-129.64-113.17-129.64Z"/>
            <path class="cls-12" d="m239.51,495.84c-61.88,0-112.03,57.48-112.03,128.32s50.15,128.34,112.03,128.34,112.03-57.45,112.03-128.34-50.17-128.32-112.03-128.32Z"/>
            <path class="cls-8" d="m239.51,497.16c-61.26,0-110.9,56.89-110.9,127s49.64,127.02,110.9,127.02,110.9-56.86,110.9-127.02-49.66-127-110.9-127Z"/>
            <path class="cls-63" d="m239.51,498.48c-60.63,0-109.77,56.29-109.77,125.67s49.14,125.7,109.77,125.7,109.77-56.27,109.77-125.7-49.15-125.67-109.77-125.67Z"/>
            <path class="cls-72" d="m239.5,499.8c-60.01,0-108.64,55.7-108.64,124.35s48.63,124.38,108.64,124.38,108.64-55.68,108.64-124.38-48.65-124.35-108.64-124.35Z"/>
            <path class="cls-69" d="m239.5,501.12c-59.38,0-107.51,55.11-107.51,123.03s48.13,123.06,107.51,123.06,107.51-55.09,107.51-123.06-48.14-123.03-107.51-123.03Z"/>
            <path class="cls-35" d="m239.5,502.44c-58.75,0-106.37,54.52-106.37,121.71s47.62,121.74,106.37,121.74,106.38-54.49,106.38-121.74-47.63-121.71-106.38-121.71Z"/>
            <path class="cls-77" d="m239.5,503.77c-58.13,0-105.24,53.93-105.24,120.39s47.11,120.42,105.24,120.42,105.25-53.9,105.25-120.42-47.12-120.39-105.25-120.39Z"/>
            <path class="cls-9" d="m239.5,505.09c-57.5,0-104.11,53.33-104.11,119.06s46.61,119.1,104.11,119.1,104.12-53.31,104.12-119.1-46.62-119.06-104.12-119.06Z"/>
            <path class="cls-74" d="m239.5,506.41c-56.88,0-102.98,52.74-102.98,117.74s46.1,117.77,102.98,117.77,102.99-52.72,102.99-117.77-46.11-117.74-102.99-117.74Z"/>
            <path class="cls-56" d="m239.5,507.73c-56.25,0-101.85,52.15-101.85,116.42s45.6,116.45,101.85,116.45,101.86-52.13,101.86-116.45-45.6-116.42-101.86-116.42Z"/>
            <path class="cls-41" d="m239.5,509.05c-55.63,0-100.72,51.56-100.72,115.1s45.09,115.13,100.72,115.13,100.73-51.53,100.73-115.13-45.09-115.1-100.73-115.1Z"/>
            <path class="cls-59" d="m239.5,510.37c-55,0-99.59,50.96-99.59,113.78s44.59,113.81,99.59,113.81,99.6-50.94,99.6-113.81-44.59-113.78-99.6-113.78Z"/>
            <path class="cls-59" d="m239.5,511.7c-54.38,0-98.46,50.37-98.46,112.45s44.08,112.49,98.46,112.49,98.47-50.35,98.47-112.49-44.08-112.45-98.47-112.45Z"/>
            <path class="cls-27" d="m239.5,513.02c-53.75,0-97.33,49.78-97.33,111.13s43.57,111.17,97.33,111.17,97.34-49.76,97.34-111.17-43.57-111.13-97.34-111.13Z"/>
            <path class="cls-36" d="m239.5,514.34c-53.13,0-96.19,49.19-96.19,109.81s43.07,109.85,96.19,109.85,96.21-49.17,96.21-109.85-43.07-109.81-96.21-109.81Z"/>
            <path class="cls-13" d="m239.5,515.66c-52.5,0-95.06,48.6-95.06,108.49s42.56,108.52,95.06,108.52,95.07-48.58,95.07-108.52-42.56-108.49-95.07-108.49Z"/>
            <path class="cls-71" d="m239.5,516.98c-51.87,0-93.93,48-93.93,107.16s42.06,107.2,93.93,107.2,93.94-47.98,93.94-107.2-42.05-107.16-93.94-107.16Z"/>
            <path class="cls-42" d="m239.5,518.31c-51.25,0-92.8,47.41-92.8,105.84s41.55,105.88,92.8,105.88,92.81-47.39,92.81-105.88-41.54-105.84-92.81-105.84Z"/>
            <path class="cls-11" d="m239.5,519.63c-50.62,0-91.67,46.82-91.67,104.52s41.05,104.56,91.67,104.56,91.68-46.8,91.68-104.56-41.04-104.52-91.68-104.52Z"/>
            <path class="cls-60" d="m239.5,520.95c-50,0-90.54,46.23-90.54,103.2s40.54,103.24,90.54,103.24,90.55-46.21,90.55-103.24-40.53-103.2-90.55-103.2Z"/>
            <path class="cls-1" d="m239.5,522.27c-49.37,0-89.41,45.64-89.41,101.88s40.03,101.92,89.41,101.92,89.42-45.62,89.42-101.92-40.02-101.88-89.42-101.88Z"/>
            <path class="cls-32" d="m239.5,523.59c-48.75,0-88.28,45.04-88.28,100.55s39.53,100.6,88.28,100.6,88.29-45.02,88.29-100.6-39.51-100.55-88.29-100.55Z"/>
            <path class="cls-85" d="m239.5,524.91c-48.12,0-87.15,44.45-87.15,99.23s39.02,99.27,87.15,99.27,87.16-44.43,87.16-99.27-39.01-99.23-87.16-99.23Z"/>
            <path class="cls-30" d="m239.5,526.24c-47.5,0-86.01,43.86-86.01,97.91s38.52,97.95,86.01,97.95,86.03-43.84,86.03-97.95-38.5-97.91-86.03-97.91Z"/>
            <path class="cls-38" d="m239.5,527.56c-46.87,0-84.88,43.27-84.88,96.59s38.01,96.63,84.88,96.63,84.9-43.25,84.9-96.63-37.99-96.59-84.9-96.59Z"/>
            <path class="cls-21" d="m239.5,528.88c-46.25,0-83.75,42.68-83.75,95.27s37.51,95.31,83.75,95.31,83.77-42.66,83.77-95.31-37.48-95.27-83.77-95.27Z"/>
            <path class="cls-82" d="m239.5,530.2c-45.62,0-82.62,42.08-82.62,93.94s37,93.99,82.62,93.99,82.64-42.06,82.64-93.99-36.98-93.94-82.64-93.94Z"/>
            <path class="cls-47" d="m239.5,531.52c-44.99,0-81.49,41.49-81.49,92.62s36.5,92.67,81.49,92.67,81.51-41.47,81.51-92.67-36.47-92.62-81.51-92.62Z"/>
            <path class="cls-53" d="m239.5,532.84c-44.37,0-80.36,40.9-80.36,91.3s35.99,91.35,80.36,91.35,80.38-40.88,80.38-91.35-35.96-91.3-80.38-91.3Z"/>
            <path class="cls-39" d="m239.5,534.17c-43.74,0-79.23,40.31-79.23,89.98s35.48,90.02,79.23,90.02,79.25-40.29,79.25-90.02-35.45-89.98-79.25-89.98Z"/>
            <path class="cls-40" d="m239.5,535.49c-43.12,0-78.1,39.71-78.1,88.66s34.98,88.7,78.1,88.7,78.11-39.7,78.11-88.7-34.95-88.66-78.11-88.66Z"/>
            <path class="cls-62" d="m239.5,536.81c-42.49,0-76.97,39.12-76.97,87.33s34.47,87.38,76.97,87.38,76.98-39.1,76.98-87.38-34.44-87.33-76.98-87.33Z"/>
            <path class="cls-2" d="m239.5,538.13c-41.87,0-75.83,38.53-75.83,86.01s33.97,86.06,75.83,86.06,75.85-38.51,75.85-86.06-33.93-86.01-75.85-86.01Z"/>
            <path class="cls-43" d="m239.5,539.45c-41.24,0-74.7,37.94-74.7,84.69s33.46,84.74,74.7,84.74,74.72-37.92,74.72-84.74-33.42-84.69-74.72-84.69Z"/>
            <path class="cls-57" d="m239.5,540.78c-40.62,0-73.57,37.35-73.57,83.37s32.96,83.42,73.57,83.42,73.59-37.33,73.59-83.42-32.92-83.37-73.59-83.37Z"/>
            <path class="cls-78" d="m239.5,542.1c-39.99,0-72.44,36.75-72.44,82.04s32.45,82.1,72.44,82.1,72.46-36.74,72.46-82.1-32.41-82.04-72.46-82.04Z"/>
            <path class="cls-84" d="m239.5,543.42c-39.37,0-71.31,36.16-71.31,80.72s31.94,80.78,71.31,80.78,71.33-36.14,71.33-80.78-31.9-80.72-71.33-80.72Z"/>
          </g>
          <path class="cls-16" d="m239.51,479.97c-69.39,0-125.6,64.58-125.6,144.18s56.22,144.2,125.6,144.2,125.6-64.56,125.6-144.2-56.26-144.18-125.6-144.18Z"/>
          <g>
            <path class="cls-24" d="m264.75,624.16c0,11.7-11.32,21.17-25.23,21.17s-25.25-9.47-25.25-21.17,11.33-21.16,25.25-21.16,25.23,9.48,25.23,21.16Z"/>
            <path class="cls-19" d="m258.03,624.16c0,8.59-8.3,15.54-18.51,15.54s-18.53-6.95-18.53-15.54,8.32-15.53,18.53-15.53,18.51,6.95,18.51,15.53Z"/>
          </g>
          <g>
            <g>
              <path class="cls-24" d="m362.94,690.35c-5.43-.05-9.78-3.78-9.73-8.32l1.33-115.93c.05-4.53,4.48-8.17,9.92-8.12h1.49c5.42.06,9.78,3.79,9.73,8.32l-1.32,115.93c-.05,4.54-4.49,8.18-9.92,8.13h-1.49Z"/>
              <path class="cls-3" d="m363.2,686.05c-3.93-.04-7.09-2.73-7.05-6.01l1.28-111.89c.04-3.28,3.25-5.92,7.18-5.87h1.08c3.92.04,7.08,2.74,7.03,6.02l-1.28,111.89c-.03,3.28-3.25,5.92-7.17,5.87h-1.08Z"/>
            </g>
            <g>
              <path class="cls-37" d="m364.22,643.09c-12.49-.12-22.53-8.69-22.41-19.15.13-10.45,10.35-18.83,22.84-18.71,12.5.12,22.54,8.69,22.41,19.15-.11,10.45-10.35,18.83-22.84,18.71Z"/>
              <path class="cls-46" d="m364.23,642.41c-12.04-.12-21.71-8.37-21.6-18.45.12-10.07,9.97-18.15,22.01-18.03,12.05.12,21.72,8.37,21.6,18.45-.11,10.07-9.97,18.15-22.01,18.03Z"/>
              <path class="cls-29" d="m364.24,641.73c-11.59-.11-20.9-8.06-20.79-17.76.11-9.69,9.6-17.47,21.19-17.36,11.6.11,20.91,8.06,20.79,17.76-.11,9.69-9.6,17.47-21.19,17.36Z"/>
              <path class="cls-33" d="m364.25,641.04c-11.14-.11-20.08-7.75-19.98-17.07.11-9.32,9.23-16.79,20.36-16.68,11.14.11,20.09,7.75,19.98,17.07-.1,9.32-9.23,16.79-20.37,16.68Z"/>
              <path class="cls-50" d="m364.25,640.36c-10.69-.1-19.27-7.43-19.17-16.38.1-8.94,8.85-16.11,19.54-16,10.69.1,19.28,7.43,19.17,16.38-.1,8.94-8.85,16.11-19.54,16Z"/>
              <path class="cls-61" d="m364.26,639.68c-10.23-.1-18.45-7.12-18.36-15.69.1-8.56,8.48-15.43,18.71-15.33,10.24.1,18.46,7.12,18.36,15.69-.1,8.56-8.48,15.43-18.72,15.33Z"/>
              <path class="cls-26" d="m364.27,638.99c-9.78-.09-17.64-6.8-17.55-15,.09-8.18,8.1-14.75,17.88-14.65,9.79.09,17.65,6.8,17.55,15-.09,8.18-8.11,14.75-17.89,14.65Z"/>
              <path class="cls-77" d="m364.28,638.31c-9.33-.09-16.83-6.49-16.74-14.3.09-7.81,7.73-14.07,17.06-13.98,9.34.09,16.84,6.49,16.74,14.3-.09,7.81-7.73,14.07-17.07,13.98Z"/>
              <path class="cls-36" d="m364.28,637.62c-8.88-.08-16.01-6.18-15.93-13.61.08-7.43,7.35-13.39,16.23-13.3,8.88.08,16.02,6.18,15.93,13.61-.08,7.43-7.36,13.39-16.24,13.3Z"/>
              <path class="cls-32" d="m364.29,636.94c-8.43-.08-15.2-5.86-15.12-12.92.07-7.05,6.98-12.71,15.41-12.63,8.43.08,15.21,5.86,15.12,12.92-.08,7.05-6.99,12.71-15.42,12.63Z"/>
              <path class="cls-39" d="m364.3,636.26c-7.98-.07-14.38-5.55-14.31-12.23.07-6.67,6.6-12.02,14.58-11.95,7.98.07,14.39,5.55,14.31,12.23-.08,6.67-6.61,12.02-14.59,11.95Z"/>
              <path class="cls-84" d="m364.31,635.57c-7.53-.07-13.57-5.23-13.49-11.54.06-6.29,6.23-11.34,13.76-11.27,7.53.07,13.58,5.23,13.51,11.54-.07,6.29-6.24,11.34-13.77,11.27Z"/>
            </g>
            <g>
              <path class="cls-24" d="m281.07,634.52c-5.43-.05-9.78-3.77-9.73-8.31l.07-6.24c.04-4.54,4.48-8.18,9.91-8.13l85.15,1.01c5.44.04,9.78,3.77,9.73,8.31l-.06,6.24c-.05,4.53-4.49,8.17-9.92,8.13l-85.15-1.01Z"/>
              <path class="cls-68" d="m284.44,630.81c-3.64-.04-6.55-2.52-6.52-5.57l.05-4.19c.03-3.04,3.01-5.48,6.65-5.44l81.36.96c3.64.04,6.56,2.53,6.53,5.58l-.05,4.18c-.03,3.05-3.01,5.49-6.65,5.45l-81.38-.97Z"/>
            </g>
            <g>
              <g>
                <g>
                  <path class="cls-37" d="m364.95,579.09c-10.49-.1-18.92-7.29-18.82-16.07.09-8.78,8.69-15.81,19.18-15.71,10.48.11,18.91,7.29,18.81,16.08-.1,8.78-8.69,15.81-19.17,15.7Z"/>
                  <path class="cls-46" d="m364.96,578.54c-10.13-.09-18.26-7.04-18.16-15.51.09-8.47,8.39-15.26,18.52-15.17,10.12.1,18.26,7.04,18.16,15.52-.09,8.47-8.39,15.26-18.51,15.16Z"/>
                  <path class="cls-29" d="m364.97,577.99c-9.77-.09-17.61-6.79-17.51-14.96.09-8.17,8.09-14.71,17.85-14.62,9.76.1,17.6,6.79,17.5,14.96-.09,8.17-8.09,14.71-17.85,14.61Z"/>
                  <path class="cls-33" d="m364.97,577.44c-9.4-.09-16.95-6.54-16.86-14.4.09-7.86,7.79-14.16,17.19-14.08,9.4.09,16.95,6.54,16.85,14.41-.09,7.86-7.78,14.16-17.18,14.07Z"/>
                  <path class="cls-50" d="m364.98,576.89c-9.04-.08-16.3-6.28-16.21-13.84.08-7.56,7.49-13.62,16.52-13.53,9.03.09,16.29,6.28,16.2,13.85-.08,7.56-7.48,13.62-16.52,13.53Z"/>
                  <path class="cls-61" d="m364.98,576.34c-8.67-.08-15.64-6.03-15.56-13.29.08-7.26,7.18-13.07,15.86-12.99,8.67.09,15.64,6.03,15.55,13.29-.08,7.25-7.18,13.07-15.85,12.98Z"/>
                  <path class="cls-26" d="m364.99,575.79c-8.31-.08-14.99-5.78-14.9-12.73.08-6.95,6.88-12.52,15.2-12.44,8.31.08,14.98,5.78,14.9,12.74-.08,6.95-6.88,12.52-15.19,12.44Z"/>
                  <path class="cls-77" d="m364.99,575.24c-7.95-.07-14.33-5.53-14.25-12.18.07-6.65,6.58-11.97,14.53-11.9,7.94.08,14.33,5.53,14.25,12.18-.07,6.64-6.58,11.97-14.53,11.9Z"/>
                  <path class="cls-36" d="m365,574.69c-7.58-.07-13.67-5.27-13.6-11.62.07-6.35,6.28-11.43,13.87-11.36,7.58.07,13.67,5.27,13.6,11.62-.07,6.34-6.28,11.43-13.86,11.35Z"/>
                  <path class="cls-32" d="m365.01,574.14c-7.22-.07-13.02-5.02-12.95-11.06.07-6.04,5.98-10.88,13.2-10.81,7.22.07,13.02,5.02,12.95,11.06-.07,6.04-5.98,10.88-13.2,10.81Z"/>
                  <path class="cls-39" d="m365.01,573.59c-6.86-.06-12.36-4.77-12.3-10.51.07-5.74,5.68-10.33,12.54-10.27,6.85.07,12.36,4.77,12.3,10.51-.07,5.73-5.67,10.33-12.54,10.27Z"/>
                  <path class="cls-84" d="m365.02,573.04c-6.49-.06-11.71-4.51-11.64-9.95s5.38-9.78,11.87-9.72c6.49.06,11.71,4.51,11.64,9.95-.06,5.43-5.37,9.78-11.87,9.72Z"/>
                </g>
                <path class="cls-55" d="m365.02,573.04c-6.49-.06-11.71-4.51-11.64-9.95s5.38-9.78,11.87-9.72c6.49.06,11.71,4.51,11.64,9.95-.06,5.43-5.37,9.78-11.87,9.72Z"/>
              </g>
              <g>
                <g>
                  <path class="cls-37" d="m363.56,701.02c-10.49-.11-18.92-7.3-18.82-16.08.09-8.78,8.69-15.81,19.18-15.71,10.48.11,18.91,7.3,18.8,16.08-.09,8.78-8.68,15.81-19.17,15.71Z"/>
                  <path class="cls-46" d="m363.57,700.47c-10.13-.1-18.26-7.05-18.16-15.52.09-8.47,8.39-15.26,18.52-15.17,10.12.1,18.25,7.05,18.15,15.52-.09,8.47-8.38,15.26-18.51,15.17Z"/>
                  <path class="cls-29" d="m363.58,699.92c-9.77-.1-17.61-6.8-17.51-14.96.09-8.17,8.09-14.71,17.85-14.62,9.76.1,17.6,6.8,17.5,14.96-.09,8.17-8.08,14.71-17.84,14.62Z"/>
                  <path class="cls-33" d="m363.58,699.37c-9.4-.09-16.95-6.54-16.86-14.41.09-7.86,7.79-14.16,17.19-14.08,9.4.09,16.95,6.54,16.85,14.41-.09,7.86-7.78,14.16-17.18,14.08Z"/>
                  <path class="cls-50" d="m363.59,698.82c-9.04-.09-16.3-6.29-16.21-13.85.08-7.56,7.49-13.62,16.52-13.53,9.03.09,16.29,6.29,16.2,13.85-.08,7.56-7.47,13.62-16.52,13.53Z"/>
                  <path class="cls-61" d="m363.59,698.27c-8.67-.09-15.64-6.04-15.56-13.29.08-7.25,7.19-13.07,15.86-12.99,8.67.09,15.64,6.04,15.55,13.29-.08,7.26-7.17,13.07-15.85,12.99Z"/>
                  <path class="cls-26" d="m363.6,697.72c-8.31-.08-14.99-5.78-14.9-12.74.08-6.95,6.89-12.52,15.2-12.44,8.31.08,14.98,5.78,14.9,12.74-.08,6.95-6.87,12.52-15.19,12.44Z"/>
                  <path class="cls-77" d="m363.6,697.17c-7.95-.08-14.33-5.53-14.25-12.18.07-6.64,6.59-11.97,14.53-11.9,7.94.08,14.33,5.53,14.25,12.18-.07,6.65-6.57,11.97-14.53,11.9Z"/>
                  <path class="cls-36" d="m363.61,696.62c-7.58-.07-13.67-5.28-13.6-11.62.07-6.34,6.29-11.43,13.87-11.36,7.58.07,13.67,5.28,13.6,11.62-.07,6.35-6.27,11.43-13.86,11.36Z"/>
                  <path class="cls-32" d="m363.62,696.07c-7.22-.07-13.02-5.02-12.95-11.06.07-6.04,5.98-10.88,13.2-10.81,7.22.07,13.02,5.02,12.95,11.06-.07,6.04-5.97,10.88-13.2,10.81Z"/>
                  <path class="cls-39" d="m363.62,695.52c-6.86-.07-12.36-4.77-12.3-10.51.07-5.73,5.68-10.33,12.54-10.27,6.85.07,12.36,4.77,12.3,10.51-.07,5.74-5.67,10.33-12.54,10.27Z"/>
                  <path class="cls-84" d="m363.63,694.97c-6.49-.06-11.71-4.51-11.64-9.95.06-5.43,5.38-9.78,11.87-9.72,6.49.06,11.71,4.51,11.64,9.95s-5.37,9.78-11.87,9.72Z"/>
                </g>
                <path class="cls-52" d="m363.63,694.97c-6.49-.06-11.71-4.51-11.64-9.95.06-5.43,5.38-9.78,11.87-9.72,6.49.06,11.71,4.51,11.64,9.95s-5.37,9.78-11.87,9.72Z"/>
              </g>
            </g>
          </g>
        </g>
        <path class="cls-48" d="m239.53,810.49c89.02,0,161.27-83.42,161.27-186.33s-72.25-186.32-161.27-186.32-161.31,83.44-161.31,186.32,72.2,186.33,161.31,186.33Z"/>
      </g>
      <g>
        <g class="cls-18">
          <path class="cls-6" d="m185.17,34.48C82.91,34.48,0,112.23,0,208.14s82.91,173.66,185.17,173.66h192.9V34.48h-192.9Z"/>
          <path class="cls-81" d="m186.24,33.89C83.98,33.89,1.06,111.63,1.06,207.55s82.91,173.66,185.17,173.66h192.9V33.89h-192.9Z"/>
          <path class="cls-45" d="m187.3,33.3C85.04,33.3,2.13,111.04,2.13,206.95s82.91,173.66,185.17,173.66h192.9V33.3h-192.9Z"/>
          <path class="cls-83" d="m188.37,32.7C86.11,32.7,3.19,110.44,3.19,206.36s82.91,173.66,185.17,173.66h192.9V32.7h-192.9Z"/>
          <path class="cls-49" d="m189.43,32.11C87.17,32.11,4.26,109.85,4.26,205.76s82.91,173.66,185.17,173.66h192.9V32.11h-192.9Z"/>
          <path class="cls-10" d="m190.5,31.51C88.24,31.51,5.32,109.26,5.32,205.17s82.91,173.66,185.17,173.66h192.9V31.51h-192.9Z"/>
          <path class="cls-51" d="m191.56,30.92C89.3,30.92,6.39,108.66,6.39,204.58s82.91,173.66,185.17,173.66h192.9V30.92h-192.9Z"/>
          <path class="cls-73" d="m192.63,30.32C90.37,30.32,7.45,108.07,7.45,203.98s82.91,173.66,185.17,173.66h192.9V30.32h-192.9Z"/>
          <path class="cls-64" d="m193.69,29.73C91.43,29.73,8.52,107.47,8.52,203.39s82.91,173.66,185.17,173.66h192.9V29.73h-192.9Z"/>
          <path class="cls-14" d="m194.76,29.14C92.5,29.14,9.58,106.88,9.58,202.79s82.91,173.66,185.17,173.66h192.9V29.14h-192.9Z"/>
          <path class="cls-22" d="m195.82,28.54C93.56,28.54,10.65,106.28,10.65,202.2s82.91,173.66,185.17,173.66h192.9V28.54h-192.9Z"/>
          <path class="cls-5" d="m196.89,27.95C94.63,27.95,11.71,105.69,11.71,201.6s82.91,173.66,185.17,173.66h192.9V27.95h-192.9Z"/>
          <path class="cls-70" d="m197.95,27.35C95.69,27.35,12.78,105.1,12.78,201.01s82.91,173.66,185.17,173.66h192.9V27.35h-192.9Z"/>
          <path class="cls-79" d="m199.02,26.76C96.75,26.76,13.84,104.5,13.84,200.41s82.91,173.66,185.17,173.66h192.9V26.76h-192.9Z"/>
          <path class="cls-67" d="m200.08,26.16C97.82,26.16,14.91,103.91,14.91,199.82s82.91,173.66,185.17,173.66h192.9V26.16h-192.9Z"/>
          <path class="cls-4" d="m201.15,25.57C98.88,25.57,15.97,103.31,15.97,199.23s82.91,173.66,185.17,173.66h192.9V25.57h-192.9Z"/>
          <path class="cls-65" d="m202.21,24.97C99.95,24.97,17.04,102.72,17.04,198.63s82.91,173.66,185.17,173.66h192.9V24.97h-192.9Z"/>
          <path class="cls-76" d="m203.27,24.38C101.01,24.38,18.1,102.13,18.1,198.04s82.91,173.66,185.17,173.66h192.9V24.38h-192.9Z"/>
          <path class="cls-84" d="m204.34,23.79C102.08,23.79,19.17,101.53,19.17,197.44s82.91,173.66,185.17,173.66h192.9V23.79h-192.9Z"/>
          <path class="cls-78" d="m205.4,23.19C103.14,23.19,20.23,100.94,20.23,196.85s82.91,173.66,185.17,173.66h192.9V23.19h-192.9Z"/>
          <path class="cls-57" d="m206.47,22.6C104.21,22.6,21.3,100.34,21.3,196.25s82.91,173.66,185.17,173.66h192.9V22.6h-192.9Z"/>
          <path class="cls-43" d="m207.53,22C105.27,22,22.36,99.75,22.36,195.66s82.91,173.66,185.17,173.66h192.9V22h-192.9Z"/>
          <path class="cls-2" d="m208.6,21.41C106.34,21.41,23.43,99.15,23.43,195.07s82.91,173.66,185.17,173.66h192.9V21.41h-192.9Z"/>
          <path class="cls-62" d="m209.66,20.81C107.4,20.81,24.49,98.56,24.49,194.47s82.91,173.66,185.17,173.66h192.9V20.81h-192.9Z"/>
          <path class="cls-40" d="m210.73,20.22C108.47,20.22,25.55,97.97,25.55,193.88s82.91,173.66,185.17,173.66h192.9V20.22h-192.9Z"/>
          <path class="cls-39" d="m211.79,19.63C109.53,19.63,26.62,97.37,26.62,193.28s82.91,173.66,185.17,173.66h192.9V19.63h-192.9Z"/>
          <path class="cls-53" d="m212.86,19.03C110.6,19.03,27.68,96.78,27.68,192.69s82.91,173.66,185.17,173.66h192.9V19.03h-192.9Z"/>
          <path class="cls-47" d="m213.92,18.44C111.66,18.44,28.75,96.18,28.75,192.09s82.91,173.66,185.17,173.66h192.9V18.44h-192.9Z"/>
          <path class="cls-82" d="m214.99,17.84C112.73,17.84,29.81,95.59,29.81,191.5s82.91,173.66,185.17,173.66h192.9V17.84h-192.9Z"/>
          <path class="cls-21" d="m216.05,17.25C113.79,17.25,30.88,95,30.88,190.91s82.91,173.66,185.17,173.66h192.9V17.25h-192.9Z"/>
          <path class="cls-21" d="m217.12,16.65C114.86,16.65,31.94,94.4,31.94,190.31s82.91,173.66,185.17,173.66h192.9V16.65h-192.9Z"/>
          <path class="cls-38" d="m218.18,16.06c-102.26,0-185.17,77.75-185.17,173.66s82.91,173.66,185.17,173.66h192.9V16.06h-192.9Z"/>
          <path class="cls-30" d="m219.25,15.47c-102.26,0-185.17,77.75-185.17,173.66s82.91,173.66,185.17,173.66h192.9V15.47h-192.9Z"/>
          <path class="cls-85" d="m220.31,14.87c-102.26,0-185.17,77.75-185.17,173.66s82.91,173.66,185.17,173.66h192.9V14.87h-192.9Z"/>
          <path class="cls-32" d="m221.38,14.28c-102.26,0-185.17,77.75-185.17,173.66s82.91,173.66,185.17,173.66h192.9V14.28h-192.9Z"/>
          <path class="cls-1" d="m222.44,13.68c-102.26,0-185.17,77.75-185.17,173.66s82.91,173.66,185.17,173.66h192.9V13.68h-192.9Z"/>
          <path class="cls-60" d="m223.51,13.09c-102.26,0-185.17,77.75-185.17,173.66s82.91,173.66,185.17,173.66h192.9V13.09h-192.9Z"/>
          <path class="cls-11" d="m224.57,12.49c-102.26,0-185.17,77.75-185.17,173.66s82.91,173.66,185.17,173.66h192.9V12.49h-192.9Z"/>
          <path class="cls-42" d="m225.63,11.9c-102.26,0-185.17,77.75-185.17,173.66s82.91,173.66,185.17,173.66h192.9V11.9h-192.9Z"/>
          <path class="cls-71" d="m226.7,11.31c-102.26,0-185.17,77.75-185.17,173.66s82.91,173.66,185.17,173.66h192.9V11.31h-192.9Z"/>
          <path class="cls-13" d="m227.76,10.71c-102.26,0-185.17,77.75-185.17,173.66s82.91,173.66,185.17,173.66h192.9V10.71h-192.9Z"/>
          <path class="cls-36" d="m228.83,10.12c-102.26,0-185.17,77.75-185.17,173.66s82.91,173.66,185.17,173.66h192.9V10.12h-192.9Z"/>
          <path class="cls-27" d="m229.89,9.52c-102.26,0-185.17,77.75-185.17,173.66s82.91,173.66,185.17,173.66h192.9V9.52h-192.9Z"/>
          <path class="cls-59" d="m230.96,8.93c-102.26,0-185.17,77.75-185.17,173.66s82.91,173.66,185.17,173.66h192.9V8.93h-192.9Z"/>
          <path class="cls-41" d="m232.02,8.33c-102.26,0-185.17,77.75-185.17,173.66s82.91,173.66,185.17,173.66h192.9V8.33h-192.9Z"/>
          <path class="cls-56" d="m233.09,7.74c-102.26,0-185.17,77.75-185.17,173.66s82.91,173.66,185.17,173.66h192.9V7.74h-192.9Z"/>
          <path class="cls-74" d="m234.15,7.15c-102.26,0-185.17,77.75-185.17,173.66s82.91,173.66,185.17,173.66h192.9V7.15h-192.9Z"/>
          <path class="cls-9" d="m235.22,6.55c-102.26,0-185.17,77.75-185.17,173.66s82.91,173.66,185.17,173.66h192.9V6.55h-192.9Z"/>
          <path class="cls-77" d="m236.28,5.96c-102.26,0-185.17,77.75-185.17,173.66s82.91,173.66,185.17,173.66h192.9V5.96h-192.9Z"/>
          <path class="cls-35" d="m237.35,5.36c-102.26,0-185.17,77.75-185.17,173.66s82.91,173.66,185.17,173.66h192.9V5.36h-192.9Z"/>
          <path class="cls-69" d="m238.41,4.77c-102.26,0-185.17,77.75-185.17,173.66s82.91,173.66,185.17,173.66h192.9V4.77h-192.9Z"/>
          <path class="cls-72" d="m239.48,4.17c-102.26,0-185.17,77.75-185.17,173.66s82.91,173.66,185.17,173.66h192.9V4.17h-192.9Z"/>
          <path class="cls-63" d="m240.54,3.58C138.28,3.58,55.37,81.33,55.37,177.24s82.91,173.66,185.17,173.66h192.9V3.58h-192.9Z"/>
          <path class="cls-8" d="m241.61,2.99C139.34,2.99,56.43,80.74,56.43,176.64s82.91,173.66,185.17,173.66h192.9V2.99h-192.9Z"/>
          <path class="cls-12" d="m242.67,2.39C140.41,2.39,57.5,80.14,57.5,176.05s82.91,173.66,185.17,173.66h192.9V2.39h-192.9Z"/>
          <path class="cls-28" d="m243.74,1.8C141.47,1.8,58.56,79.55,58.56,175.45s82.91,173.66,185.17,173.66h192.9V1.8h-192.9Z"/>
          <path class="cls-44" d="m244.8,1.2C142.54,1.2,59.63,78.95,59.63,174.86s82.91,173.66,185.17,173.66h192.9V1.2h-192.9Z"/>
          <path class="cls-31" d="m245.87.61C143.6.61,60.69,78.36,60.69,174.27s82.91,173.66,185.17,173.66h192.9V.61h-192.9Z"/>
          <path class="cls-75" d="m246.93.01C144.67.01,61.76,77.76,61.76,173.67s82.91,173.66,185.17,173.66h192.9V.01h-192.9Z"/>
        </g>
        <g>
          <g>
            <path class="cls-42" d="m246.93,347.33h192.9V.01h-192.9C144.67.01,61.76,77.76,61.76,173.67s82.91,173.66,185.17,173.66Z"/>
            <path class="cls-11" d="m246.94,346.91h190.67V.43h-190.67C144.92.43,62.21,77.99,62.21,173.67s82.71,173.24,184.73,173.24Z"/>
            <path class="cls-60" d="m246.95,346.5h188.44V.85h-188.44C145.18.85,62.66,78.22,62.66,173.67s82.51,172.83,184.29,172.83Z"/>
            <path class="cls-1" d="m246.96,346.08h186.22V1.26h-186.22C145.43,1.26,63.12,78.45,63.12,173.67s82.32,172.41,183.84,172.41Z"/>
            <path class="cls-32" d="m246.97,345.66h183.99V1.68h-183.99C145.69,1.68,63.57,78.68,63.57,173.67s82.12,171.99,183.4,171.99Z"/>
            <path class="cls-85" d="m246.98,345.25h181.76V2.1h-181.76c-101.04,0-182.96,76.82-182.96,171.58s81.92,171.58,182.96,171.58Z"/>
            <path class="cls-30" d="m246.99,344.83h179.53V2.51h-179.53c-100.79,0-182.51,76.63-182.51,171.16s81.72,171.16,182.51,171.16Z"/>
            <path class="cls-38" d="m247,344.42h177.31V2.93h-177.31c-100.55,0-182.07,76.45-182.07,170.74s81.52,170.75,182.07,170.75Z"/>
            <path class="cls-21" d="m247,344h175.08V3.34h-175.08c-100.3,0-181.63,76.26-181.63,170.33s81.33,170.33,181.63,170.33Z"/>
            <path class="cls-82" d="m247.01,343.58h172.85V3.76h-172.85c-100.06,0-181.18,76.07-181.18,169.91s81.13,169.91,181.18,169.91Z"/>
            <path class="cls-47" d="m247.02,343.17h170.62V4.18h-170.62c-99.81,0-180.74,75.89-180.74,169.49s80.93,169.5,180.74,169.5Z"/>
            <path class="cls-53" d="m247.03,342.75h168.4V4.59h-168.4c-99.56,0-180.3,75.7-180.3,169.08s80.73,169.08,180.3,169.08Z"/>
            <path class="cls-39" d="m247.04,342.34h166.17V5.01h-166.17c-99.32,0-179.85,75.51-179.85,168.66s80.53,168.67,179.85,168.67Z"/>
            <path class="cls-40" d="m247.05,341.92h163.94V5.43h-163.94c-99.07,0-179.41,75.33-179.41,168.25s80.33,168.25,179.41,168.25Z"/>
            <path class="cls-62" d="m247.06,341.5h161.71V5.84h-161.71c-98.83,0-178.97,75.14-178.97,167.83s80.14,167.83,178.97,167.83Z"/>
            <path class="cls-62" d="m247.07,341.09h159.49V6.26h-159.49c-98.58,0-178.52,74.95-178.52,167.41s79.94,167.42,178.52,167.42Z"/>
            <path class="cls-2" d="m247.08,340.67h157.26V6.67h-157.26c-98.34,0-178.08,74.77-178.08,167s79.74,167,178.08,167Z"/>
            <path class="cls-43" d="m247.09,340.26h155.03V7.09h-155.03c-98.09,0-177.64,74.58-177.64,166.58s79.54,166.59,177.64,166.59Z"/>
            <path class="cls-57" d="m247.1,339.84h152.8V7.51h-152.8c-97.85,0-177.19,74.39-177.19,166.16s79.34,166.17,177.19,166.17Z"/>
            <path class="cls-78" d="m247.11,339.42h150.57V7.92h-150.57c-97.6,0-176.75,74.21-176.75,165.75s79.15,165.75,176.75,165.75Z"/>
            <path class="cls-84" d="m247.12,339.01h148.35V8.34h-148.35c-97.36,0-176.31,74.02-176.31,165.33s78.95,165.34,176.31,165.34Z"/>
            <path class="cls-76" d="m247.13,338.59h146.12V8.76h-146.12c-97.11,0-175.86,73.83-175.86,164.92s78.75,164.92,175.86,164.92Z"/>
            <path class="cls-65" d="m247.14,338.18h143.89V9.17h-143.89c-96.87,0-175.42,73.65-175.42,164.5s78.55,164.51,175.42,164.51Z"/>
            <path class="cls-4" d="m247.15,337.76h141.66V9.59h-141.66c-96.62,0-174.98,73.46-174.98,164.08s78.35,164.09,174.98,164.09Z"/>
            <path class="cls-67" d="m247.15,337.34h139.44V10h-139.44c-96.38,0-174.53,73.27-174.53,163.67s78.15,163.67,174.53,163.67Z"/>
            <path class="cls-79" d="m247.16,336.93h137.21V10.42h-137.21c-96.13,0-174.09,73.09-174.09,163.25s77.96,163.26,174.09,163.26Z"/>
            <path class="cls-70" d="m247.17,336.51h134.98V10.84h-134.98c-95.89,0-173.65,72.9-173.65,162.83s77.76,162.84,173.65,162.84Z"/>
            <path class="cls-5" d="m247.18,336.1h132.75V11.25h-132.75c-95.64,0-173.2,72.71-173.2,162.42s77.56,162.43,173.2,162.43Z"/>
            <path class="cls-22" d="m247.19,335.68h130.53V11.67h-130.53c-95.4,0-172.76,72.53-172.76,162s77.36,162.01,172.76,162.01Z"/>
            <path class="cls-14" d="m247.2,335.27h128.3V12.09h-128.3c-95.15,0-172.32,72.34-172.32,161.59s77.16,161.59,172.32,161.59Z"/>
            <path class="cls-22" d="m247.28,334.96h128.03V12.39h-128.03c-94.97,0-171.99,72.2-171.99,161.28s77.02,161.29,171.99,161.29Z"/>
            <path class="cls-5" d="m247.36,334.65h127.76V12.7h-127.76c-94.79,0-171.66,72.07-171.66,160.97s76.87,160.98,171.66,160.98Z"/>
            <path class="cls-70" d="m247.44,334.35h127.49V13h-127.49c-94.61,0-171.34,71.93-171.34,160.67s76.73,160.67,171.34,160.67Z"/>
            <path class="cls-79" d="m247.52,334.04h127.22V13.31h-127.22c-94.43,0-171.01,71.79-171.01,160.36s76.58,160.37,171.01,160.37Z"/>
            <path class="cls-67" d="m247.6,333.73h126.96V13.62h-126.96c-94.25,0-170.68,71.66-170.68,160.06s76.43,160.06,170.68,160.06Z"/>
            <path class="cls-4" d="m247.68,333.43h126.69V13.92h-126.69c-94.07,0-170.36,71.52-170.36,159.75s76.29,159.76,170.36,159.76Z"/>
            <path class="cls-65" d="m247.76,333.12h126.42V14.23h-126.42c-93.89,0-170.03,71.38-170.03,159.45s76.14,159.45,170.03,159.45Z"/>
            <path class="cls-76" d="m247.84,332.82h126.15V14.53h-126.15c-93.71,0-169.7,71.25-169.7,159.14s75.99,159.14,169.7,159.14Z"/>
            <path class="cls-84" d="m247.92,332.51h125.88V14.84h-125.88c-93.53,0-169.38,71.11-169.38,158.83s75.85,158.84,169.38,158.84Z"/>
            <path class="cls-78" d="m248,332.2h125.61V15.15h-125.61c-93.35,0-169.05,70.97-169.05,158.53s75.7,158.53,169.05,158.53Z"/>
            <path class="cls-57" d="m248.08,331.9h125.34V15.45h-125.34c-93.17,0-168.73,70.83-168.73,158.22s75.56,158.22,168.73,158.22Z"/>
            <path class="cls-43" d="m248.16,331.59h125.07V15.76h-125.07c-92.99,0-168.4,70.7-168.4,157.92s75.41,157.92,168.4,157.92Z"/>
            <path class="cls-2" d="m248.24,331.28h124.81V16.06h-124.81c-92.81,0-168.07,70.56-168.07,157.61s75.26,157.61,168.07,157.61Z"/>
            <path class="cls-62" d="m248.32,330.98h124.54V16.37h-124.54c-92.63,0-167.75,70.42-167.75,157.31s75.12,157.3,167.75,157.3Z"/>
            <path class="cls-40" d="m248.4,330.67h124.27V16.68h-124.27c-92.45,0-167.42,70.29-167.42,157s74.97,157,167.42,157Z"/>
            <path class="cls-39" d="m248.48,330.37h124V16.98h-124c-92.27,0-167.09,70.15-167.09,156.69s74.83,156.69,167.09,156.69Z"/>
            <path class="cls-53" d="m248.57,330.06h123.73V17.29h-123.73c-92.09,0-166.77,70.01-166.77,156.39s74.68,156.38,166.77,156.38Z"/>
            <path class="cls-47" d="m248.65,329.75h123.46V17.59h-123.46c-91.91,0-166.44,69.87-166.44,156.08s74.53,156.08,166.44,156.08Z"/>
            <path class="cls-82" d="m248.73,329.45h123.19V17.9h-123.19c-91.73,0-166.11,69.74-166.11,155.78s74.39,155.77,166.11,155.77Z"/>
            <path class="cls-21" d="m248.81,329.14h122.92V18.21h-122.92c-91.55,0-165.79,69.6-165.79,155.47s74.24,155.46,165.79,155.46Z"/>
            <path class="cls-38" d="m248.89,328.84h122.66V18.51h-122.66c-91.37,0-165.46,69.46-165.46,155.17s74.09,155.16,165.46,155.16Z"/>
            <path class="cls-30" d="m248.97,328.53h122.39V18.82h-122.39c-91.19,0-165.13,69.33-165.13,154.86s73.95,154.85,165.13,154.85Z"/>
            <path class="cls-85" d="m249.05,328.22h122.12V19.12h-122.12c-91,0-164.81,69.19-164.81,154.55s73.8,154.54,164.81,154.54Z"/>
            <path class="cls-32" d="m249.13,327.92h121.85V19.43h-121.85c-90.82,0-164.48,69.05-164.48,154.25s73.66,154.24,164.48,154.24Z"/>
            <path class="cls-1" d="m249.21,327.61h121.58V19.74h-121.58c-90.64,0-164.15,68.91-164.15,153.94s73.51,153.93,164.15,153.93Z"/>
            <path class="cls-60" d="m249.29,327.3h121.31V20.04h-121.31c-90.46,0-163.83,68.78-163.83,153.64s73.36,153.62,163.83,153.62Z"/>
            <path class="cls-11" d="m249.37,327h121.04V20.35h-121.04c-90.28,0-163.5,68.64-163.5,153.33s73.22,153.32,163.5,153.32Z"/>
            <path class="cls-11" d="m249.45,326.69h120.77V20.65h-120.77c-90.1,0-163.17,68.5-163.17,153.03s73.07,153.01,163.17,153.01Z"/>
            <path class="cls-42" d="m249.53,326.39h120.51V20.96h-120.51c-89.92,0-162.85,68.37-162.85,152.72s72.93,152.71,162.85,152.71Z"/>
            <path class="cls-71" d="m249.61,326.08h120.24V21.27h-120.24c-89.74,0-162.52,68.23-162.52,152.41s72.78,152.4,162.52,152.4Z"/>
            <path class="cls-13" d="m249.69,325.77h119.97V21.57h-119.97c-89.56,0-162.19,68.09-162.19,152.11s72.63,152.09,162.19,152.09Z"/>
            <path class="cls-36" d="m249.77,325.47h119.7V21.88h-119.7c-89.38,0-161.87,67.96-161.87,151.8s72.49,151.79,161.87,151.79Z"/>
            <path class="cls-27" d="m249.85,325.16h119.43V22.18h-119.43c-89.2,0-161.54,67.82-161.54,151.5s72.34,151.48,161.54,151.48Z"/>
            <path class="cls-59" d="m249.93,324.85h119.16V22.49h-119.16c-89.02,0-161.22,67.68-161.22,151.19s72.19,151.17,161.22,151.17Z"/>
            <path class="cls-41" d="m250.01,324.55h118.89V22.8h-118.89c-88.84,0-160.89,67.54-160.89,150.89s72.05,150.87,160.89,150.87Z"/>
            <path class="cls-56" d="m250.09,324.24h118.62V23.1h-118.62c-88.66,0-160.56,67.41-160.56,150.58s71.9,150.56,160.56,150.56Z"/>
            <path class="cls-74" d="m250.17,323.94h118.36V23.41h-118.36c-88.48,0-160.24,67.27-160.24,150.27s71.76,150.25,160.24,150.25Z"/>
            <path class="cls-9" d="m250.25,323.63h118.09V23.71h-118.09c-88.3,0-159.91,67.13-159.91,149.97s71.61,149.95,159.91,149.95Z"/>
            <path class="cls-77" d="m250.33,323.32h117.82V24.02h-117.82c-88.12,0-159.58,67-159.58,149.66s71.46,149.64,159.58,149.64Z"/>
            <path class="cls-35" d="m250.41,323.02h117.55V24.33h-117.55c-87.94,0-159.26,66.86-159.26,149.36s71.32,149.33,159.26,149.33Z"/>
            <path class="cls-69" d="m250.49,322.71h117.28V24.63h-117.28c-87.76,0-158.93,66.72-158.93,149.05s71.17,149.03,158.93,149.03Z"/>
            <path class="cls-72" d="m250.57,322.4h117.01V24.94h-117.01c-87.58,0-158.6,66.58-158.6,148.75s71.03,148.72,158.6,148.72Z"/>
            <path class="cls-63" d="m250.65,322.1h116.74V25.24h-116.74c-87.4,0-158.28,66.45-158.28,148.44s70.88,148.41,158.28,148.41Z"/>
            <path class="cls-8" d="m250.73,321.79h116.48V25.55h-116.48c-87.22,0-157.95,66.31-157.95,148.13s70.73,148.11,157.95,148.11Z"/>
            <path class="cls-12" d="m250.81,321.49h116.21V25.86h-116.21c-87.04,0-157.62,66.17-157.62,147.83s70.59,147.8,157.62,147.8Z"/>
            <path class="cls-28" d="m250.89,321.18h115.94V26.16h-115.94c-86.86,0-157.3,66.04-157.3,147.52s70.44,147.49,157.3,147.49Z"/>
            <path class="cls-44" d="m250.97,320.87h115.67V26.47h-115.67c-86.68,0-156.97,65.9-156.97,147.22s70.29,147.19,156.97,147.19Z"/>
            <path class="cls-31" d="m251.05,320.57h115.4V26.77h-115.4c-86.5,0-156.64,65.76-156.64,146.91s70.15,146.88,156.64,146.88Z"/>
            <path class="cls-75" d="m251.13,320.26h115.13V27.08h-115.13c-86.32,0-156.32,65.62-156.32,146.61s70,146.58,156.32,146.58Z"/>
            <path class="cls-7" d="m251.21,319.96h114.86V27.39h-114.86c-86.14,0-155.99,65.49-155.99,146.3s69.86,146.27,155.99,146.27Z"/>
            <path class="cls-80" d="m251.29,319.65h114.59V27.69h-114.59c-85.95,0-155.66,65.35-155.66,145.99s69.71,145.96,155.66,145.96Z"/>
            <path class="cls-34" d="m251.37,319.34h114.33V28h-114.33c-85.77,0-155.34,65.21-155.34,145.69s69.56,145.66,155.34,145.66Z"/>
            <path class="cls-66" d="m251.45,319.04h114.06V28.31h-114.06c-85.59,0-155.01,65.08-155.01,145.38s69.42,145.35,155.01,145.35Z"/>
            <path class="cls-61" d="m251.53,318.73h113.79V28.61h-113.79c-85.41,0-154.69,64.94-154.69,145.08s69.27,145.04,154.69,145.04Z"/>
            <path class="cls-20" d="m251.61,318.42h113.52V28.92h-113.52c-85.23,0-154.36,64.8-154.36,144.77s69.13,144.74,154.36,144.74Z"/>
            <path class="cls-61" d="m251.53,317.44h112.99V29.91h-112.99c-84.65,0-153.3,64.36-153.3,143.78s68.65,143.75,153.3,143.75Z"/>
            <path class="cls-66" d="m251.45,316.45h112.47V30.89h-112.47c-84.07,0-152.25,63.92-152.25,142.79s68.18,142.76,152.25,142.76Z"/>
            <path class="cls-34" d="m251.36,315.46h111.94V31.88h-111.94c-83.49,0-151.2,63.47-151.2,141.81s67.71,141.77,151.2,141.77Z"/>
            <path class="cls-80" d="m251.28,314.47h111.41V32.87h-111.41c-82.9,0-150.14,63.03-150.14,140.82s67.24,140.79,150.14,140.79Z"/>
            <path class="cls-7" d="m251.2,313.49h110.89V33.86h-110.89c-82.32,0-149.09,62.59-149.09,139.83s66.77,139.8,149.09,139.8Z"/>
            <path class="cls-75" d="m251.12,312.5h110.36V34.84h-110.36c-81.74,0-148.04,62.15-148.04,138.84s66.29,138.81,148.04,138.81Z"/>
            <path class="cls-31" d="m251.03,311.51h109.83V35.83h-109.83c-81.16,0-146.98,61.7-146.98,137.85s65.82,137.82,146.98,137.82Z"/>
            <path class="cls-44" d="m250.95,310.52h109.31V36.82h-109.31c-80.58,0-145.93,61.26-145.93,136.86s65.35,136.84,145.93,136.84Z"/>
            <path class="cls-28" d="m250.87,309.53h108.78V37.81h-108.78c-79.99,0-144.87,60.82-144.87,135.88s64.88,135.85,144.87,135.85Z"/>
            <path class="cls-12" d="m250.78,308.55h108.26V38.8h-108.26c-79.41,0-143.82,60.38-143.82,134.89s64.41,134.86,143.82,134.86Z"/>
            <path class="cls-8" d="m250.7,307.56h107.73V39.78h-107.73c-78.83,0-142.77,59.93-142.77,133.9s63.94,133.87,142.77,133.87Z"/>
            <path class="cls-63" d="m250.62,306.57h107.2V40.77h-107.2c-78.25,0-141.71,59.49-141.71,132.91s63.46,132.89,141.71,132.89Z"/>
            <path class="cls-72" d="m250.53,305.58h106.68V41.76h-106.68c-77.66,0-140.66,59.05-140.66,131.92s62.99,131.9,140.66,131.9Z"/>
            <path class="cls-69" d="m250.45,304.6h106.15V42.75h-106.15c-77.08,0-139.6,58.6-139.6,130.93s62.52,130.91,139.6,130.91Z"/>
            <path class="cls-35" d="m250.37,303.61h105.62V43.74h-105.62c-76.5,0-138.55,58.16-138.55,129.95s62.05,129.93,138.55,129.93Z"/>
            <path class="cls-77" d="m250.29,302.62h105.1V44.72h-105.1c-75.92,0-137.5,57.72-137.5,128.96s61.58,128.94,137.5,128.94Z"/>
            <path class="cls-9" d="m250.2,301.63h104.57V45.71h-104.57c-75.34,0-136.44,57.28-136.44,127.97s61.11,127.95,136.44,127.95Z"/>
            <path class="cls-74" d="m250.12,300.64h104.05V46.7h-104.05c-74.75,0-135.39,56.83-135.39,126.98s60.63,126.96,135.39,126.96Z"/>
            <path class="cls-56" d="m250.04,299.66h103.52V47.69h-103.52c-74.17,0-134.33,56.39-134.33,125.99s60.16,125.98,134.33,125.98Z"/>
            <path class="cls-41" d="m249.95,298.67h102.99V48.68h-102.99c-73.59,0-133.28,55.95-133.28,125s59.69,124.99,133.28,124.99Z"/>
            <path class="cls-59" d="m249.87,297.68h102.47V49.66h-102.47c-73.01,0-132.23,55.51-132.23,124.02s59.22,124,132.23,124Z"/>
            <path class="cls-27" d="m249.79,296.69h101.94V50.65h-101.94c-72.43,0-131.17,55.06-131.17,123.03s58.75,123.01,131.17,123.01Z"/>
            <path class="cls-36" d="m249.71,295.71h101.41V51.64h-101.41c-71.84,0-130.12,54.62-130.12,122.04s58.28,122.03,130.12,122.03Z"/>
            <path class="cls-36" d="m249.62,294.72h100.89V52.63h-100.89c-71.26,0-129.06,54.18-129.06,121.05s57.8,121.04,129.06,121.04Z"/>
            <path class="cls-13" d="m249.54,293.73h100.36V53.62h-100.36c-70.68,0-128.01,53.73-128.01,120.06s57.33,120.05,128.01,120.05Z"/>
            <path class="cls-71" d="m249.46,292.74h99.84V54.6h-99.84c-70.1,0-126.96,53.29-126.96,119.07s56.86,119.06,126.96,119.06Z"/>
            <path class="cls-42" d="m249.37,291.75h99.31V55.59h-99.31c-69.51,0-125.9,52.85-125.9,118.09s56.39,118.08,125.9,118.08Z"/>
            <path class="cls-11" d="m249.29,290.77h98.78V56.58h-98.78c-68.93,0-124.85,52.41-124.85,117.1s55.92,117.09,124.85,117.09Z"/>
            <path class="cls-60" d="m249.21,289.78h98.26V57.57h-98.26c-68.35,0-123.79,51.96-123.79,116.11s55.44,116.1,123.79,116.1Z"/>
            <path class="cls-1" d="m249.12,288.79h97.73V58.56h-97.73c-67.77,0-122.74,51.52-122.74,115.12s54.97,115.11,122.74,115.11Z"/>
            <path class="cls-32" d="m249.04,287.8h97.2V59.54h-97.2c-67.19,0-121.69,51.08-121.69,114.13s54.5,114.13,121.69,114.13Z"/>
            <path class="cls-85" d="m248.96,286.82h96.68V60.53h-96.68c-66.6,0-120.63,50.64-120.63,113.14s54.03,113.14,120.63,113.14Z"/>
            <path class="cls-30" d="m248.88,285.83h96.15V61.52h-96.15c-66.02,0-119.58,50.19-119.58,112.16s53.56,112.15,119.58,112.15Z"/>
            <path class="cls-38" d="m248.79,284.84h95.63V62.51h-95.63c-65.44,0-118.53,49.75-118.53,111.17s53.09,111.17,118.53,111.17Z"/>
            <path class="cls-21" d="m248.71,283.85h95.1V63.5h-95.1c-64.86,0-117.47,49.31-117.47,110.18s52.61,110.18,117.47,110.18Z"/>
            <path class="cls-82" d="m248.63,282.86h94.57V64.48h-94.57c-64.27,0-116.42,48.86-116.42,109.19s52.14,109.19,116.42,109.19Z"/>
            <path class="cls-47" d="m248.54,281.88h94.05V65.47h-94.05c-63.69,0-115.36,48.42-115.36,108.2s51.67,108.2,115.36,108.2Z"/>
            <path class="cls-53" d="m248.46,280.89h93.52V66.46h-93.52c-63.11,0-114.31,47.98-114.31,107.21s51.2,107.22,114.31,107.22Z"/>
            <path class="cls-39" d="m248.38,279.9h92.99V67.45h-92.99c-62.53,0-113.26,47.54-113.26,106.23s50.73,106.23,113.26,106.23Z"/>
            <path class="cls-40" d="m248.3,278.91h92.47V68.44h-92.47c-61.95,0-112.2,47.09-112.2,105.24s50.26,105.24,112.2,105.24Z"/>
            <path class="cls-62" d="m248.21,277.93h91.94V69.42h-91.94c-61.36,0-111.15,46.65-111.15,104.25s49.78,104.25,111.15,104.25Z"/>
            <path class="cls-2" d="m248.13,276.94h91.42V70.41h-91.42c-60.78,0-110.09,46.21-110.09,103.26s49.31,103.27,110.09,103.27Z"/>
            <path class="cls-43" d="m248.05,275.95h90.89V71.4h-90.89c-60.2,0-109.04,45.77-109.04,102.27s48.84,102.28,109.04,102.28Z"/>
            <path class="cls-57" d="m247.96,274.96h90.36V72.39h-90.36c-59.62,0-107.99,45.32-107.99,101.28s48.37,101.29,107.99,101.29Z"/>
            <path class="cls-78" d="m247.88,273.98h89.84V73.38h-89.84c-59.04,0-106.93,44.88-106.93,100.3s47.9,100.3,106.93,100.3Z"/>
            <path class="cls-84" d="m247.8,272.99h89.31V74.36h-89.31c-58.45,0-105.88,44.44-105.88,99.31s47.42,99.32,105.88,99.32Z"/>
          </g>
          <path class="cls-17" d="m251.61,318.42h113.52V28.92h-113.52c-85.23,0-154.36,64.8-154.36,144.77s69.13,144.74,154.36,144.74Z"/>
          <g>
            <path class="cls-24" d="m275.05,173.66c0,11.71-11.32,21.18-25.24,21.18s-25.26-9.47-25.26-21.18,11.34-21.15,25.26-21.15,25.24,9.47,25.24,21.15Z"/>
            <path class="cls-19" d="m268.33,173.66c0,8.59-8.31,15.54-18.52,15.54s-18.53-6.95-18.53-15.54,8.32-15.52,18.53-15.52,18.52,6.94,18.52,15.52Z"/>
          </g>
          <g>
            <g>
              <path class="cls-24" d="m391.76,239.85c-5.43-.05-9.79-3.78-9.73-8.31l1.32-115.93c.05-4.54,4.49-8.18,9.92-8.13h1.49c5.43.06,9.78,3.79,9.73,8.33l-1.33,115.93c-.05,4.53-4.48,8.17-9.91,8.12h-1.49Z"/>
              <path class="cls-54" d="m392.01,235.55c-3.92-.04-7.08-2.73-7.03-6.01l1.28-111.89c.03-3.28,3.25-5.91,7.17-5.87h1.08c3.93.04,7.09,2.74,7.05,6.02l-1.28,111.89c-.04,3.29-3.25,5.92-7.18,5.88l-1.08-.02Z"/>
            </g>
            <g>
              <path class="cls-37" d="m393.04,192.6c-12.5-.11-22.54-8.69-22.41-19.14.12-10.46,10.35-18.83,22.84-18.72,12.49.12,22.53,8.69,22.41,19.15-.11,10.45-10.35,18.83-22.84,18.71Z"/>
              <path class="cls-46" d="m393.05,191.91c-12.05-.11-21.72-8.37-21.6-18.45.11-10.08,9.97-18.15,22.01-18.04,12.04.12,21.71,8.37,21.6,18.45-.11,10.07-9.97,18.15-22.01,18.03Z"/>
              <path class="cls-29" d="m393.06,191.23c-11.6-.11-20.91-8.06-20.79-17.76.11-9.7,9.6-17.47,21.19-17.36,11.59.11,20.9,8.06,20.79,17.76-.11,9.69-9.6,17.47-21.19,17.36Z"/>
              <path class="cls-33" d="m393.06,190.55c-11.14-.1-20.09-7.75-19.98-17.06.1-9.32,9.23-16.79,20.37-16.69,11.14.11,20.08,7.75,19.98,17.07-.1,9.32-9.23,16.79-20.36,16.68Z"/>
              <path class="cls-50" d="m393.07,189.86c-10.69-.1-19.28-7.43-19.17-16.37.1-8.94,8.85-16.11,19.54-16.01,10.69.11,19.27,7.43,19.17,16.38-.1,8.94-8.85,16.11-19.54,16Z"/>
              <path class="cls-61" d="m393.08,189.18c-10.24-.09-18.46-7.12-18.36-15.68.1-8.57,8.48-15.43,18.72-15.33,10.23.1,18.45,7.12,18.36,15.69-.09,8.56-8.48,15.43-18.71,15.33Z"/>
              <path class="cls-26" d="m393.09,188.5c-9.79-.09-17.65-6.8-17.55-14.99.09-8.19,8.11-14.75,17.89-14.66,9.78.1,17.64,6.81,17.55,15-.09,8.18-8.1,14.75-17.88,14.65Z"/>
              <path class="cls-77" d="m393.09,187.81c-9.34-.09-16.84-6.49-16.74-14.3.09-7.81,7.73-14.07,17.07-13.98,9.33.09,16.83,6.5,16.74,14.3-.08,7.81-7.73,14.07-17.06,13.98Z"/>
              <path class="cls-36" d="m393.1,187.13c-8.88-.08-16.02-6.18-15.93-13.61.08-7.43,7.36-13.39,16.24-13.3,8.88.09,16.01,6.18,15.93,13.61-.08,7.43-7.35,13.39-16.23,13.3Z"/>
              <path class="cls-32" d="m393.11,186.44c-8.43-.08-15.21-5.86-15.12-12.92.08-7.05,6.99-12.71,15.42-12.63,8.43.09,15.2,5.87,15.12,12.92-.07,7.05-6.98,12.71-15.41,12.63Z"/>
              <path class="cls-39" d="m393.12,185.76c-7.98-.07-14.39-5.55-14.31-12.23.08-6.67,6.61-12.02,14.59-11.95,7.98.08,14.38,5.56,14.31,12.23-.07,6.67-6.6,12.02-14.58,11.95Z"/>
              <path class="cls-84" d="m393.12,185.08c-7.53-.07-13.58-5.23-13.51-11.54.07-6.29,6.24-11.34,13.77-11.27,7.53.08,13.57,5.24,13.49,11.54-.06,6.29-6.23,11.34-13.76,11.27Z"/>
            </g>
            <g>
              <path class="cls-24" d="m309.88,184.02c-5.43-.05-9.78-3.77-9.73-8.31l.07-6.24c.05-4.54,4.49-8.18,9.92-8.13l85.15,1.01c5.43.05,9.78,3.77,9.73,8.31l-.07,6.24c-.05,4.54-4.49,8.18-9.92,8.13l-85.15-1.01Z"/>
              <path class="cls-23" d="m313.26,180.32c-3.64-.04-6.56-2.53-6.52-5.58l.04-4.18c.04-3.05,3.02-5.49,6.66-5.45l81.37.97c3.64.04,6.56,2.52,6.52,5.57l-.04,4.19c-.04,3.04-3.01,5.48-6.66,5.44l-81.36-.96Z"/>
            </g>
            <g>
              <g>
                <g>
                  <path class="cls-37" d="m393.77,128.6c-10.49-.11-18.92-7.3-18.82-16.08.09-8.78,8.69-15.81,19.17-15.71,10.49.11,18.92,7.3,18.82,16.08-.09,8.78-8.69,15.81-19.17,15.71Z"/>
                  <path class="cls-46" d="m393.78,128.05c-10.13-.1-18.26-7.05-18.16-15.52.09-8.47,8.39-15.26,18.51-15.17,10.13.1,18.26,7.05,18.16,15.52-.09,8.47-8.39,15.26-18.51,15.17Z"/>
                  <path class="cls-29" d="m393.78,127.5c-9.77-.1-17.61-6.8-17.51-14.96.09-8.17,8.08-14.71,17.84-14.62,9.77.1,17.61,6.8,17.51,14.96-.09,8.17-8.09,14.71-17.84,14.62Z"/>
                  <path class="cls-33" d="m393.79,126.95c-9.4-.09-16.95-6.54-16.86-14.41.09-7.86,7.78-14.16,17.18-14.08,9.4.09,16.95,6.54,16.86,14.41-.09,7.86-7.79,14.16-17.18,14.08Z"/>
                  <path class="cls-50" d="m393.8,126.4c-9.04-.09-16.3-6.29-16.21-13.85.08-7.56,7.48-13.62,16.52-13.53,9.04.09,16.3,6.29,16.21,13.85-.08,7.56-7.48,13.62-16.52,13.53Z"/>
                  <path class="cls-61" d="m393.8,125.85c-8.67-.09-15.64-6.04-15.56-13.29.08-7.25,7.18-13.07,15.85-12.99,8.67.09,15.64,6.04,15.56,13.29-.08,7.26-7.18,13.07-15.85,12.99Z"/>
                  <path class="cls-26" d="m393.81,125.3c-8.31-.08-14.99-5.78-14.9-12.74.08-6.95,6.88-12.52,15.19-12.44,8.31.08,14.99,5.78,14.9,12.74-.08,6.95-6.88,12.52-15.19,12.44Z"/>
                  <path class="cls-77" d="m393.81,124.75c-7.95-.08-14.33-5.53-14.25-12.18.07-6.64,6.58-11.97,14.53-11.9,7.95.08,14.33,5.53,14.25,12.18-.07,6.65-6.58,11.97-14.53,11.9Z"/>
                  <path class="cls-36" d="m393.82,124.2c-7.58-.07-13.67-5.28-13.6-11.62.07-6.34,6.28-11.43,13.86-11.36,7.58.07,13.67,5.28,13.6,11.62-.07,6.35-6.28,11.43-13.86,11.36Z"/>
                  <path class="cls-32" d="m393.82,123.65c-7.22-.07-13.02-5.02-12.95-11.06.07-6.04,5.98-10.88,13.2-10.81,7.22.07,13.02,5.02,12.95,11.06-.07,6.04-5.98,10.88-13.2,10.81Z"/>
                  <path class="cls-39" d="m393.83,123.09c-6.86-.07-12.36-4.77-12.3-10.51.07-5.73,5.67-10.33,12.54-10.27,6.86.07,12.36,4.77,12.3,10.51-.07,5.74-5.68,10.33-12.54,10.27Z"/>
                  <path class="cls-84" d="m393.84,122.54c-6.49-.06-11.71-4.51-11.64-9.95.06-5.43,5.37-9.78,11.87-9.72,6.49.06,11.71,4.51,11.64,9.95s-5.38,9.78-11.87,9.72Z"/>
                </g>
                <path class="cls-55" d="m393.84,122.54c-6.49-.06-11.71-4.51-11.64-9.95.06-5.43,5.37-9.78,11.87-9.72,6.49.06,11.71,4.51,11.64,9.95s-5.38,9.78-11.87,9.72Z"/>
              </g>
              <g>
                <g>
                  <path class="cls-37" d="m392.38,250.53c-10.5-.11-18.92-7.29-18.82-16.07.09-8.78,8.69-15.81,19.17-15.71,10.49.1,18.92,7.29,18.82,16.07-.09,8.78-8.69,15.81-19.17,15.71Z"/>
                  <path class="cls-46" d="m392.39,249.98c-10.13-.1-18.26-7.04-18.16-15.51.09-8.47,8.38-15.27,18.51-15.17,10.13.09,18.26,7.04,18.16,15.51-.09,8.47-8.39,15.26-18.51,15.17Z"/>
                  <path class="cls-29" d="m392.4,249.43c-9.77-.1-17.61-6.79-17.51-14.96.09-8.17,8.08-14.72,17.84-14.62,9.77.09,17.61,6.79,17.51,14.96-.09,8.17-8.09,14.71-17.84,14.62Z"/>
                  <path class="cls-33" d="m392.4,248.88c-9.4-.09-16.95-6.54-16.86-14.4.08-7.86,7.78-14.17,17.18-14.08,9.4.09,16.95,6.54,16.86,14.4-.09,7.86-7.79,14.16-17.18,14.08Z"/>
                  <path class="cls-50" d="m392.41,248.32c-9.04-.09-16.3-6.28-16.21-13.84.08-7.56,7.48-13.62,16.52-13.53,9.04.08,16.3,6.28,16.21,13.84-.08,7.56-7.49,13.62-16.52,13.53Z"/>
                  <path class="cls-61" d="m392.41,247.77c-8.68-.09-15.64-6.03-15.56-13.29.08-7.25,7.18-13.07,15.85-12.99,8.67.08,15.64,6.03,15.56,13.29-.08,7.26-7.18,13.07-15.85,12.99Z"/>
                  <path class="cls-26" d="m392.42,247.22c-8.31-.08-14.99-5.78-14.9-12.73.08-6.95,6.88-12.53,15.19-12.44,8.31.08,14.99,5.78,14.9,12.73-.08,6.95-6.88,12.52-15.19,12.44Z"/>
                  <path class="cls-77" d="m392.42,246.67c-7.95-.08-14.33-5.53-14.25-12.18.07-6.64,6.58-11.98,14.53-11.9,7.95.07,14.33,5.53,14.25,12.18-.07,6.65-6.58,11.97-14.53,11.9Z"/>
                  <path class="cls-36" d="m392.43,246.12c-7.58-.07-13.67-5.27-13.6-11.62.07-6.34,6.28-11.43,13.86-11.36,7.58.07,13.67,5.27,13.6,11.62-.07,6.35-6.28,11.43-13.86,11.36Z"/>
                  <path class="cls-32" d="m392.43,245.57c-7.22-.07-13.02-5.02-12.95-11.06.07-6.04,5.98-10.88,13.2-10.81,7.22.07,13.02,5.02,12.95,11.06-.07,6.04-5.98,10.88-13.2,10.81Z"/>
                  <path class="cls-39" d="m392.44,245.02c-6.86-.07-12.36-4.77-12.3-10.51.07-5.73,5.67-10.33,12.54-10.27,6.86.06,12.36,4.77,12.3,10.51-.07,5.74-5.68,10.33-12.54,10.27Z"/>
                  <path class="cls-84" d="m392.45,244.47c-6.49-.06-11.71-4.51-11.64-9.95.06-5.43,5.37-9.78,11.87-9.72,6.49.06,11.71,4.51,11.64,9.95-.06,5.44-5.38,9.78-11.87,9.72Z"/>
                </g>
                <path class="cls-52" d="m392.45,244.47c-6.49-.06-11.71-4.51-11.64-9.95.06-5.43,5.37-9.78,11.87-9.72,6.49.06,11.71,4.51,11.64,9.95-.06,5.44-5.38,9.78-11.87,9.72Z"/>
              </g>
            </g>
          </g>
          <path class="cls-48" d="m246.93,347.33h192.9V.01h-192.9C144.67.01,61.76,77.76,61.76,173.67s82.91,173.66,185.17,173.66Z"/>
        </g>
      </g>
    </g>
  </g>
</svg>