<?xml version="1.0" encoding="UTF-8"?>
<svg xmlns="http://www.w3.org/2000/svg" xmlns:xlink="http://www.w3.org/1999/xlink" viewBox="0 0 509.141 494.008">
  <defs>
    <style>
      .cls-1 {
        opacity: .13;
      }

      .cls-2 {
        fill: #555;
      }

      .cls-3 {
        fill: url(#Sky-3);
      }

      .cls-4, .cls-5, .cls-6 {
        fill: #fff;
      }

      .cls-5, .cls-7 {
        mix-blend-mode: multiply;
      }

      .cls-7 {
        fill: #ddd3cc;
      }

      .cls-6 {
        fill-rule: evenodd;
      }

      .cls-8 {
        fill: url(#Sky-2);
      }

      .cls-9 {
        isolation: isolate;
      }

      .cls-10 {
        fill: #d6d8d8;
      }

      .cls-11 {
        fill: #c69c6d;
      }

      .cls-12 {
        fill: url(#Earthtone_21-2);
      }

      .cls-13 {
        fill: #b3b6ba;
      }

      .cls-14 {
        fill: #f9ddcf;
        opacity: .5;
      }

      .cls-15 {
        clip-path: url(#clippath);
      }

      .cls-16 {
        fill: none;
      }

      .cls-17 {
        fill: url(#Earthtone_21);
      }

      .cls-18 {
        fill: url(#Sky);
      }

      .cls-19 {
        fill: #888;
      }
    </style>
    <clipPath id="clippath">
      <rect class="cls-16" x="158.141" width="331.59" height="334.808"/>
    </clipPath>
    <linearGradient id="Earthtone_21" data-name="Earthtone 21" x1="661.058" y1="-367.539" x2="284.309" y2="44.46" gradientTransform="translate(-171.016 226.505)" gradientUnits="userSpaceOnUse">
      <stop offset="0" stop-color="#b85e42"/>
      <stop offset=".5" stop-color="#9f2214"/>
      <stop offset="1" stop-color="#700101"/>
    </linearGradient>
    <linearGradient id="Earthtone_21-2" data-name="Earthtone 21" x1="782.263" y1="-256.511" x2="405.51" y2="155.493" xlink:href="#Earthtone_21"/>
    <linearGradient id="Sky" x1="1435.027" y1="775.431" x2="1435.027" y2="732.926" gradientTransform="translate(-542.263 1531.112) rotate(-90)" gradientUnits="userSpaceOnUse">
      <stop offset="0" stop-color="#cce0f4"/>
      <stop offset=".064" stop-color="#c2dcf2"/>
      <stop offset=".171" stop-color="#a9d2ee"/>
      <stop offset=".307" stop-color="#7fc2e7"/>
      <stop offset=".465" stop-color="#46abdd"/>
      <stop offset=".567" stop-color="#1e9cd7"/>
      <stop offset=".865" stop-color="#0075be"/>
      <stop offset=".994" stop-color="#005b97"/>
    </linearGradient>
    <linearGradient id="Sky-2" data-name="Sky" x1="1435.027" y1="769.982" x2="1435.027" y2="738.379" xlink:href="#Sky"/>
    <linearGradient id="Sky-3" data-name="Sky" x1="198.345" y1="96.084" x2="206.918" y2="96.084" gradientTransform="matrix(1,0,0,1,0,0)" xlink:href="#Sky"/>
  </defs>
  <g class="cls-9">
    <g id="Layer_1" data-name="Layer 1">
      <g class="cls-15">
        <g>
          <rect class="cls-17" x=".09" y="5.042" width="488.355" height="245.39"/>
          <path class="cls-14" d="m407.281,5.186H0v245.245h488.362V5.186h-81.08ZM82.915,167.457v-79.295h79.26v79.295h-79.26Zm81.104,0v-79.295h79.246v79.295h-79.246Zm81.077,0v-79.295h79.26v79.295h-79.26Zm81.104,0v-79.295h79.26v79.295h-79.26ZM405.461,7.013v79.315h-79.26V7.013h79.26Zm-81.104,0v79.315h-79.26V7.013h79.26Zm-81.091,0v79.315h-79.246V7.013h79.246Zm-81.091,0v79.315h-79.26V7.013h79.26ZM1.824,7.013h79.267v79.315H1.824V7.013Zm0,81.149h79.267v79.295H1.824v-79.295Zm0,160.45v-79.322h79.267v79.322H1.824Zm81.091,0v-79.322h79.26v79.322h-79.26Zm81.104,0v-79.322h79.246v79.322h-79.246Zm81.077,0v-79.322h79.26v79.322h-79.26Zm81.104,0v-79.322h79.26v79.322h-79.26Zm160.34,0h-79.26v-79.322h79.26v79.322Zm0-81.156h-79.26v-79.295h79.26v79.295Zm-79.26-81.129V7.013h79.26v79.315h-79.26Z"/>
          <rect class="cls-12" x=".09" y="248.612" width="488.355" height="245.396"/>
          <path class="cls-14" d="m407.281,248.756H0v245.253h488.362v-245.253h-81.08ZM82.915,411.04v-79.315h79.26v79.315h-79.26Zm81.104,0v-79.315h79.246v79.315h-79.246Zm81.077,0v-79.315h79.26v79.315h-79.26Zm81.104,0v-79.315h79.26v79.315h-79.26Zm79.26-160.45v79.315h-79.26v-79.315h79.26Zm-81.104,0v79.315h-79.26v-79.315h79.26Zm-81.091,0v79.315h-79.246v-79.315h79.246Zm-81.091,0v79.315h-79.26v-79.315h79.26Zm-160.351,0h79.267v79.315H1.824v-79.315Zm0,81.135h79.267v79.315H1.824v-79.315Zm0,160.456v-79.315h79.267v79.315H1.824Zm81.091,0v-79.315h79.26v79.315h-79.26Zm81.104,0v-79.315h79.246v79.315h-79.246Zm81.077,0v-79.315h79.26v79.315h-79.26Zm81.104,0v-79.315h79.26v79.315h-79.26Zm160.34,0h-79.26v-79.315h79.26v79.315Zm0-81.141h-79.26v-79.315h79.26v79.315Zm-79.26-81.135v-79.315h79.26v79.315h-79.26Z"/>
        </g>
      </g>
      <g>
        <g>
          <rect class="cls-4" x="495.863" y="135.472" width="12.209" height="10.257"/>
          <path class="cls-4" d="m494.801,134.567v12.054h14.339v-12.054h-14.339Zm2.137,10.263v-8.465s10.068,0,10.068,0v8.465s-10.068,0-10.068,0Z"/>
        </g>
        <g>
          <polygon class="cls-6" points="508.072 6.905 508.072 17.173 495.863 17.161 495.863 6.905 508.072 6.905"/>
          <path class="cls-4" d="m494.801,6.012v12.054h14.339V6.012h-14.339Zm2.137,10.257V7.803s10.068,0,10.068,0v8.477s-10.068-.012-10.068-.012Z"/>
        </g>
        <g>
          <path class="cls-4" d="m368.495,36.696c4.844,24.995,19.573,48.466,41.492,66.092,23.849,19.18,53.952,29.843,87.069,30.84l.024-.585c-72.112-2.191-118.914-50.165-127.882-96.445l-.703.099Z"/>
          <polygon class="cls-4" points="367.585 27.992 375.366 39.554 368.995 37.304 363.513 40.829 367.585 27.992"/>
        </g>
        <g>
          <path class="cls-4" d="m366.185,21.035h135.16s0,4.899,0,4.899h-135.16s0-4.899,0-4.899Z"/>
          <path class="cls-4" d="m364.406,19.539v7.885h138.712v-7.885h-138.712Zm3.551,4.905v-1.92s131.613,0,131.613,0v1.92s-131.613,0-131.613,0Z"/>
        </g>
      </g>
      <g>
        <path class="cls-4" d="m303.807,279.191h59.096c5.737,0,10.434-4.459,10.434-9.907l-3.814-45.148c-2.207-20.941-14.181-34.351-36.168-34.351h0c-21.994,0-33.886,13.41-36.179,34.351l-3.806,45.148c0,5.448,4.692,9.907,10.437,9.907Z"/>
        <path class="cls-10" d="m368.472,264.621l-3.806-40.014c-3.062-18.479-11.996-29.728-31.31-29.728h0c-19.319,0-29.362,11.708-31.317,29.728l-3.81,40.014h70.243Z"/>
        <path class="cls-13" d="m309.889,310.438h46.926c10.064,0,18.299-7.819,18.299-17.378h0c0-9.553-8.234-17.372-18.299-17.372h-46.926c-10.064,0-18.298,7.819-18.298,17.372h0c0,9.559,8.233,17.378,18.298,17.378Z"/>
        <path class="cls-4" d="m292.034,278.68h82.636c.245,0,.443.199.443.443v30.73c0,1.511-1.227,2.738-2.738,2.738h-78.046c-1.511,0-2.738-1.227-2.738-2.738v-30.73c0-.244.198-.443.443-.443Z" transform="translate(666.704 591.271) rotate(180)"/>
        <path class="cls-19" d="m294.429,312.591h77.846c1.565,0,2.838-1.204,2.838-2.697v-.517c0,1.486-1.272,2.697-2.838,2.697h-77.846c-1.565,0-2.838-1.212-2.838-2.697v.517c0,1.493,1.272,2.697,2.838,2.697Z"/>
        <path class="cls-2" d="m328.876,295.632c0-2.344,2.003-4.243,4.479-4.243s4.472,1.899,4.472,4.243-2.003,4.25-4.472,4.25-4.479-1.899-4.479-4.25Z"/>
      </g>
      <g>
        <rect class="cls-7" x="192.568" y="282.504" width="275.824" height="31.849"/>
        <rect class="cls-7" x="192.568" y="300.104" width="275.824" height="14.248"/>
      </g>
      <g>
        <rect class="cls-7" x="193.374" y="12.264" width="33.545" height="302.141"/>
        <rect class="cls-7" x="193.374" y="12.264" width="15.009" height="302.141"/>
      </g>
      <g>
        <rect class="cls-5" x="192.795" y="12.193" width="276.706" height="31.849"/>
        <rect class="cls-5" x="192.795" y="12.193" width="276.706" height="14.248"/>
      </g>
      <path class="cls-7" d="m233.975,131.565c9.659-23.365,9.659-42.777,0-66.14-.162-.406-1.361-2.656-3.446-2.656h-43.503c-2.915,0-3.505,2.427-3.505,2.983v65.485c0,.557.586,2.981,3.505,2.981h43.503c2.11,0,3.284-2.249,3.446-2.653Z"/>
      <path class="cls-7" d="m231.377,130.762c9.659-23.365,9.659-42.777,0-66.14-.162-.406-1.361-2.656-3.446-2.656h-43.503c-2.915,0-3.505,2.427-3.505,2.983v65.485c0,.557.586,2.981,3.505,2.981h43.503c2.11,0,3.284-2.249,3.446-2.653Z"/>
      <g>
        <path class="cls-4" d="m229.88,63.015c9.658,23.363,9.658,42.775,0,66.14-.162.405-1.336,2.653-3.446,2.653h-43.503c-2.915,0-3.505-2.424-3.505-2.981V63.342c0-.555.594-2.983,3.505-2.983h43.503c2.088,0,3.284,2.25,3.446,2.656Z"/>
        <g class="cls-1">
          <path class="cls-18" d="m226.921,67.82c8.33,20.16,8.33,36.369,0,56.529-.144.35-.992,2.564-3.291,2.564h-32.967v-61.655h32.967c2.011,0,3.147,2.212,3.291,2.562Z"/>
          <path class="cls-8" d="m223.077,71.46c6.19,16.415,6.19,32.834,0,49.25-.111.286-.399.479-.723.479h-26.237v-50.208h26.237c.325,0,.612.194.723.478Z"/>
          <path class="cls-3" d="m202.635,92.44c2.358,0,4.283,1.632,4.283,3.643,0,2.012-1.926,3.645-4.283,3.645-2.376,0-4.29-1.633-4.29-3.645,0-2.012,1.915-3.643,4.29-3.643Z"/>
        </g>
        <g>
          <path class="cls-11" d="m197.596,94.279c1.118,0,2.029.809,2.029,1.808h0c0,.998-.911,1.806-2.029,1.806h-7.176c-1.118,0-2.029-.808-2.029-1.806h0c0-.998.911-1.808,2.029-1.808h7.176Z"/>
          <path class="cls-11" d="m197.348,94.481c1.044,0,1.885.717,1.885,1.605h0c0,.886-.841,1.605-1.885,1.605h-6.681c-1.044,0-1.885-.719-1.885-1.605h0c0-.888.841-1.605,1.885-1.605h6.681Z"/>
          <path class="cls-11" d="m186.753,92.753c2.228,0,4.029,1.536,4.029,3.43,0,1.896-1.8,3.43-4.029,3.43s-4.036-1.534-4.036-3.43,1.808-3.43,4.036-3.43Z"/>
          <path class="cls-11" d="m186.753,93.794c1.55,0,2.811,1.07,2.811,2.389s-1.262,2.391-2.811,2.391-2.811-1.072-2.811-2.391,1.254-2.389,2.811-2.389Z"/>
        </g>
      </g>
    </g>
  </g>
</svg>