<?xml version="1.0" encoding="UTF-8"?>
<svg xmlns="http://www.w3.org/2000/svg" xmlns:xlink="http://www.w3.org/1999/xlink" viewBox="0 0 494.008 499.141">
  <defs>
    <style>
      .cls-1 {
        opacity: .13;
      }

      .cls-2 {
        fill: #555;
      }

      .cls-3 {
        fill: url(#Sky-3);
      }

      .cls-4, .cls-5, .cls-6 {
        fill: #fff;
      }

      .cls-5, .cls-7 {
        mix-blend-mode: multiply;
      }

      .cls-7 {
        fill: #ddd3cc;
      }

      .cls-6 {
        fill-rule: evenodd;
      }

      .cls-8 {
        fill: url(#Sky-2);
      }

      .cls-9 {
        isolation: isolate;
      }

      .cls-10 {
        fill: #d6d8d8;
      }

      .cls-11 {
        fill: #c69c6d;
      }

      .cls-12 {
        fill: url(#Earthtone_21-2);
      }

      .cls-13 {
        fill: #b3b6ba;
      }

      .cls-14 {
        fill: #f9ddcf;
        opacity: .5;
      }

      .cls-15 {
        clip-path: url(#clippath);
      }

      .cls-16 {
        fill: none;
      }

      .cls-17 {
        fill: url(#Earthtone_21);
      }

      .cls-18 {
        fill: url(#Sky);
      }

      .cls-19 {
        fill: #888;
      }
    </style>
    <clipPath id="clippath">
      <rect class="cls-16" x="159.2" y="158.141" width="334.808" height="331.59"/>
    </clipPath>
    <linearGradient id="Earthtone_21" data-name="Earthtone 21" x1="659.022" y1="-206.303" x2="282.272" y2="205.697" gradientTransform="translate(428.739 -168.979) rotate(90)" gradientUnits="userSpaceOnUse">
      <stop offset="0" stop-color="#b85e42"/>
      <stop offset=".5" stop-color="#9f2214"/>
      <stop offset="1" stop-color="#700101"/>
    </linearGradient>
    <linearGradient id="Earthtone_21-2" data-name="Earthtone 21" x1="780.226" y1="-95.274" x2="403.473" y2="316.729" xlink:href="#Earthtone_21"/>
    <linearGradient id="Sky" x1="1275.991" y1="938.668" x2="1275.991" y2="896.163" gradientTransform="translate(-1035.068 -703.499)" gradientUnits="userSpaceOnUse">
      <stop offset="0" stop-color="#cce0f4"/>
      <stop offset=".064" stop-color="#c2dcf2"/>
      <stop offset=".171" stop-color="#a9d2ee"/>
      <stop offset=".307" stop-color="#7fc2e7"/>
      <stop offset=".465" stop-color="#46abdd"/>
      <stop offset=".567" stop-color="#1e9cd7"/>
      <stop offset=".865" stop-color="#0075be"/>
      <stop offset=".994" stop-color="#005b97"/>
    </linearGradient>
    <linearGradient id="Sky-2" data-name="Sky" x1="1275.99" y1="933.219" x2="1275.99" y2="901.615" xlink:href="#Sky"/>
    <linearGradient id="Sky-3" data-name="Sky" x1="198.308" y1="414.32" x2="206.882" y2="414.32" gradientTransform="translate(655.245 2.037) rotate(90)" xlink:href="#Sky"/>
  </defs>
  <g class="cls-9">
    <g id="Layer_1" data-name="Layer 1">
      <g class="cls-15">
        <g>
          <rect class="cls-17" x="243.577" y=".09" width="245.39" height="488.355"/>
          <path class="cls-14" d="m488.822,407.281v-1.82s0-79.274,0-79.274v-1.813s0-79.294,0-79.294v-1.796s0-79.277,0-79.277v-1.814s0-79.277,0-79.277v-1.824s0-81.091,0-81.091h-81.141s-1.834,0-1.834,0h-79.295s-1.834,0-1.834,0h-81.141s0,81.091,0,81.091v1.824s0,79.277,0,79.277v1.814s0,79.277,0,79.277v1.796s0,79.294,0,79.294v1.813s0,79.274,0,79.274v1.82s0,81.08,0,81.08h81.141s1.834,0,1.834,0h79.295s1.834,0,1.834,0h81.141s0-81.08,0-81.08ZM326.552,82.915h79.295v79.26h-79.295v-79.26Zm0,81.104h79.295v79.246h-79.295v-79.246Zm0,81.077h79.295v79.26h-79.295v-79.26Zm0,81.104h79.295v79.26h-79.295v-79.26Zm160.444,79.26h-79.315v-79.26h79.315v79.26Zm0-81.104h-79.315v-79.26h79.315v79.26Zm0-81.091h-79.315v-79.246h79.315v79.246Zm0-81.091h-79.315v-79.26h79.315v79.26Zm0-160.351v79.267h-79.315V1.824h79.315Zm-81.149,0v79.267h-79.295V1.824h79.295Zm-160.45,0h79.322v79.267h-79.322V1.824Zm0,81.091h79.322v79.26h-79.322v-79.26Zm0,81.104h79.322v79.246h-79.322v-79.246Zm0,81.077h79.322v79.26h-79.322v-79.26Zm0,81.104h79.322v79.26h-79.322v-79.26Zm0,160.34v-79.26h79.322v79.26h-79.322Zm81.156,0v-79.26h79.295v79.26h-79.295Zm81.129-79.26h79.315v79.26h-79.315v-79.26Z"/>
          <rect class="cls-12" x="0" y=".09" width="245.396" height="488.355"/>
          <path class="cls-14" d="m245.253,407.281v-1.82s0-79.274,0-79.274v-1.813s0-79.294,0-79.294v-1.796s0-79.277,0-79.277v-1.814s0-79.277,0-79.277v-1.824s0-81.091,0-81.091h-81.149s-1.82,0-1.82,0h-79.315s-1.826,0-1.826,0H0s0,81.091,0,81.091v1.824s0,79.277,0,79.277v1.814s0,79.277,0,79.277v1.796s0,79.294,0,79.294v1.813s0,79.274,0,79.274v1.82S0,488.362,0,488.362h81.142s1.826,0,1.826,0h79.315s1.82,0,1.82,0h81.149s0-81.08,0-81.08ZM82.969,82.915h79.315v79.26h-79.315v-79.26Zm0,81.104h79.315v79.246h-79.315v-79.246Zm0,81.077h79.315v79.26h-79.315v-79.26Zm0,81.104h79.315v79.26h-79.315v-79.26Zm160.45,79.26h-79.315v-79.26h79.315v79.26Zm0-81.104h-79.315v-79.26h79.315v79.26Zm0-81.091h-79.315v-79.246h79.315v79.246Zm0-81.091h-79.315v-79.26h79.315v79.26Zm0-160.351v79.267h-79.315V1.824h79.315Zm-81.135,0v79.267h-79.315V1.824h79.315Zm-160.456,0h79.315v79.267H1.827V1.824Zm0,81.091h79.315v79.26H1.827v-79.26Zm0,81.104h79.315v79.246H1.827v-79.246Zm0,81.077h79.315v79.26H1.827v-79.26Zm0,81.104h79.315v79.26H1.827v-79.26Zm0,160.34v-79.26h79.315v79.26H1.827Zm81.141,0v-79.26h79.315v79.26h-79.315Zm81.135-79.26h79.315v79.26h-79.315v-79.26Z"/>
        </g>
      </g>
      <g>
        <g>
          <rect class="cls-4" x="165.402" y="487.106" width="11.657" height="11.066"/>
          <path class="cls-4" d="m178.087,486.143h-13.701s0,12.997,0,12.997h13.701s0-12.997,0-12.997Zm-11.664,1.937h9.621v9.126h-9.621v-9.126Z"/>
        </g>
        <g>
          <polygon class="cls-6" points="323.185 498.172 311.514 498.172 311.528 487.106 323.185 487.106 323.185 498.172"/>
          <path class="cls-4" d="m324.2,486.143h-13.701s0,12.997,0,12.997h13.701s0-12.997,0-12.997Zm-11.657,1.937h9.621v9.126h-9.635l.013-9.126Z"/>
        </g>
        <g>
          <path class="cls-4" d="m289.326,371.657c-28.409,4.391-55.085,17.741-75.119,37.609-21.8,21.617-33.919,48.903-35.052,78.921l.665.022c2.491-65.364,57.016-107.786,109.617-115.914l-.112-.637Z"/>
          <polygon class="cls-4" points="299.218 370.832 286.077 377.885 288.634 372.11 284.628 367.141 299.218 370.832"/>
        </g>
        <g>
          <path class="cls-4" d="m307.125,369.563v122.512h-5.569v-122.512h5.569Z"/>
          <path class="cls-4" d="m308.826,367.95h-8.962s0,125.731,0,125.731h8.962s0-125.731,0-125.731Zm-5.575,3.219h2.182v119.296h-2.182v-119.296Z"/>
        </g>
      </g>
      <g>
        <path class="cls-4" d="m437.365,211.349h-59.096c-5.737,0-10.434,4.459-10.434,9.907l3.814,45.148c2.207,20.941,14.181,34.351,36.168,34.351h0c21.994,0,33.886-13.41,36.179-34.351l3.806-45.148c0-5.448-4.692-9.907-10.437-9.907Z"/>
        <path class="cls-10" d="m372.7,225.919l3.806,40.014c3.062,18.479,11.996,29.728,31.31,29.728h0c19.319,0,29.362-11.708,31.317-29.728l3.81-40.014h-70.243Z"/>
        <path class="cls-13" d="m431.283,180.103h-46.926c-10.064,0-18.299,7.819-18.299,17.378h0c0,9.553,8.234,17.372,18.299,17.372h46.926c10.064,0,18.298-7.819,18.298-17.372h0c0-9.559-8.233-17.378-18.298-17.378Z"/>
        <path class="cls-4" d="m366.502,177.949h82.636c.245,0,.443.199.443.443v30.73c0,1.511-1.227,2.738-2.738,2.738h-78.046c-1.511,0-2.738-1.227-2.738-2.738v-30.73c0-.244.198-.443.443-.443Z"/>
        <path class="cls-19" d="m446.743,177.949h-77.846c-1.565,0-2.838,1.204-2.838,2.697v.517c0-1.486,1.272-2.697,2.838-2.697h77.846c1.565,0,2.838,1.212,2.838,2.697v-.517c0-1.493-1.272-2.697-2.838-2.697Z"/>
        <path class="cls-2" d="m412.296,194.908c0,2.344-2.003,4.243-4.479,4.243s-4.472-1.899-4.472-4.243c0-2.351,2.003-4.25,4.472-4.25s4.479,1.899,4.479,4.25Z"/>
      </g>
      <g>
        <rect class="cls-7" x="179.656" y="192.568" width="31.849" height="275.824"/>
        <rect class="cls-7" x="179.656" y="192.568" width="14.248" height="275.824"/>
      </g>
      <g>
        <rect class="cls-7" x="179.603" y="193.374" width="302.141" height="33.545"/>
        <rect class="cls-7" x="179.603" y="193.374" width="302.141" height="15.009"/>
      </g>
      <g>
        <rect class="cls-5" x="449.967" y="192.795" width="31.849" height="276.706"/>
        <rect class="cls-5" x="467.568" y="192.795" width="14.248" height="276.706"/>
      </g>
      <path class="cls-7" d="m207.443,231.975c23.365,9.659,42.777,9.659,66.14,0,.406-.162,2.656-1.361,2.656-3.446v-43.503c0-2.915-2.427-3.505-2.983-3.505h-65.485c-.557,0-2.981.586-2.981,3.505v43.503c0,2.11,2.249,3.284,2.653,3.446Z"/>
      <path class="cls-7" d="m207.246,234.377c23.365,9.659,42.777,9.659,66.14,0,.406-.162,2.656-1.361,2.656-3.446v-43.503c0-2.915-2.427-3.505-2.983-3.505h-65.485c-.557,0-2.981.586-2.981,3.505v43.503c0,2.11,2.249,3.284,2.653,3.446Z"/>
      <g>
        <path class="cls-4" d="m273.993,231.88c-23.363,9.658-42.775,9.658-66.14,0-.405-.162-2.653-1.336-2.653-3.446v-43.503c0-2.915,2.424-3.505,2.981-3.505h65.485c.555,0,2.983.594,2.983,3.505v43.503c0,2.088-2.25,3.284-2.656,3.446Z"/>
        <g class="cls-1">
          <path class="cls-18" d="m269.188,228.921c-20.16,8.33-36.369,8.33-56.529,0-.35-.144-2.564-.992-2.564-3.291v-32.967h61.655v32.967c0,2.011-2.212,3.147-2.562,3.291Z"/>
          <path class="cls-8" d="m265.548,225.077c-16.415,6.19-32.834,6.19-49.25,0-.286-.111-.479-.399-.479-.723v-26.237h50.208v26.237c0,.325-.194.612-.478.723Z"/>
          <path class="cls-3" d="m244.569,204.635c0,2.358-1.632,4.283-3.643,4.283s-3.645-1.926-3.645-4.283c0-2.376,1.633-4.29,3.645-4.29s3.643,1.915,3.643,4.29Z"/>
        </g>
        <g>
          <path class="cls-11" d="m242.73,199.596c0,1.118-.809,2.029-1.808,2.029h0c-.998,0-1.806-.911-1.806-2.029v-7.176c0-1.118.808-2.029,1.806-2.029h0c.998,0,1.808.911,1.808,2.029v7.176Z"/>
          <path class="cls-11" d="m242.527,199.348c0,1.044-.717,1.885-1.605,1.885h0c-.886,0-1.605-.841-1.605-1.885v-6.681c0-1.044.719-1.885,1.605-1.885h0c.888,0,1.605.841,1.605,1.885v6.681Z"/>
          <path class="cls-11" d="m244.255,188.753c0,2.228-1.536,4.029-3.43,4.029s-3.43-1.8-3.43-4.029,1.534-4.036,3.43-4.036,3.43,1.808,3.43,4.036Z"/>
          <path class="cls-11" d="m243.215,188.753c0,1.55-1.07,2.811-2.389,2.811s-2.391-1.262-2.391-2.811c0-1.557,1.072-2.811,2.391-2.811s2.389,1.254,2.389,2.811Z"/>
        </g>
      </g>
    </g>
  </g>
</svg>