<?xml version="1.0" encoding="UTF-8"?>
<svg xmlns="http://www.w3.org/2000/svg" viewBox="0 0 1972.04 2000.95">
  <defs>
    <style>
      .cls-1 {
        fill: #fff;
      }

      .cls-2 {
        fill: #a7a9ac;
      }

      .cls-3 {
        fill: #939598;
      }

      .cls-4 {
        fill: #9b8579;
      }

      .cls-5, .cls-6 {
        opacity: .2;
      }

      .cls-7 {
        fill: #5cb1bf;
      }

      .cls-8 {
        fill: #f1f2f2;
      }

      .cls-6, .cls-9 {
        fill: #231f20;
      }

      .cls-10 {
        fill: #acd6e2;
      }

      .cls-11 {
        opacity: .1;
      }

      .cls-12 {
        fill: #d1d3d4;
      }

      .cls-13 {
        fill: #e6e7e8;
      }

      .cls-14 {
        fill: #bcbec0;
      }

      .cls-15 {
        fill: #58595b;
      }
    </style>
  </defs>
  <g id="Layer_2" data-name="Layer 2">
    <g>
      <g>
        <rect class="cls-10" x="1636.66" y="2.84" width="261.39" height="249.41"/>
        <path class="cls-2" d="m1901.02,255.08h-267.33V0h267.33v255.08Zm-261.39-5.67h255.44s0-243.74,0-243.74h-255.44s0,243.74,0,243.74Z"/>
      </g>
      <g>
        <rect class="cls-10" x="1636.66" y="252.25" width="261.39" height="249.41"/>
        <path class="cls-2" d="m1901.02,504.49h-267.33v-255.08h267.33v255.08Zm-261.39-5.67h255.44s0-243.74,0-243.74h-255.44s0,243.74,0,243.74Z"/>
      </g>
      <g>
        <rect class="cls-10" x="1636.66" y="501.66" width="261.39" height="249.41"/>
        <path class="cls-2" d="m1901.02,753.9h-267.33v-255.08h267.33v255.08Zm-261.39-5.67h255.44s0-243.74,0-243.74h-255.44s0,243.74,0,243.74Z"/>
      </g>
      <g>
        <rect class="cls-10" x="1636.66" y="751.07" width="261.39" height="249.41"/>
        <path class="cls-2" d="m1901.02,1003.31h-267.33v-255.08h267.33v255.08Zm-261.39-5.67h255.44s0-243.74,0-243.74h-255.44s0,243.74,0,243.74Z"/>
      </g>
      <g>
        <rect class="cls-10" x="1636.66" y="1000.48" width="261.39" height="249.41"/>
        <path class="cls-2" d="m1901.02,1252.72h-267.33v-255.08h267.33v255.08Zm-261.39-5.67h255.44s0-243.74,0-243.74h-255.44s0,243.74,0,243.74Z"/>
      </g>
      <g>
        <rect class="cls-10" x="1636.66" y="1249.88" width="261.39" height="249.41"/>
        <path class="cls-2" d="m1901.02,1502.13h-267.33v-255.08h267.33v255.08Zm-261.39-5.67h255.44s0-243.74,0-243.74h-255.44s0,243.74,0,243.74Z"/>
      </g>
      <g>
        <rect class="cls-10" x="1636.66" y="1499.3" width="261.39" height="249.41"/>
        <path class="cls-2" d="m1901.02,1751.54h-267.33v-255.08h267.33v255.08Zm-261.39-5.67h255.44s0-243.74,0-243.74h-255.44s0,243.74,0,243.74Z"/>
      </g>
      <g>
        <rect class="cls-10" x="1636.66" y="1748.7" width="261.39" height="249.41"/>
        <path class="cls-2" d="m1901.02,2000.95h-267.33v-255.08h267.33v255.08Zm-261.39-5.67h255.44s0-243.74,0-243.74h-255.44s0,243.74,0,243.74Z"/>
      </g>
      <g>
        <rect class="cls-10" x="1375.27" y="2.84" width="261.39" height="249.41"/>
        <path class="cls-2" d="m1639.63,255.08h-267.34V0h267.34v255.08Zm-261.39-5.67h255.44s0-243.74,0-243.74h-255.44s0,243.74,0,243.74Z"/>
      </g>
      <g>
        <rect class="cls-10" x="1113.88" y="2.84" width="261.39" height="249.41"/>
        <path class="cls-2" d="m1378.24,255.08h-267.34V0h267.34v255.08Zm-261.39-5.67h255.44s0-243.74,0-243.74h-255.44s0,243.74,0,243.74Z"/>
      </g>
      <g>
        <rect class="cls-10" x="852.49" y="2.84" width="261.39" height="249.41"/>
        <path class="cls-2" d="m1116.85,255.08h-267.34V0h267.34v255.08Zm-261.39-5.67h255.44s0-243.74,0-243.74h-255.44s0,243.74,0,243.74Z"/>
      </g>
      <g>
        <rect class="cls-10" x="591.1" y="2.84" width="261.39" height="249.41"/>
        <path class="cls-2" d="m855.46,255.08h-267.33V0h267.33v255.08Zm-261.39-5.67h255.44s0-243.74,0-243.74h-255.44s0,243.74,0,243.74Z"/>
      </g>
      <g>
        <rect class="cls-10" x="329.71" y="2.84" width="261.39" height="249.41"/>
        <path class="cls-2" d="m594.07,255.08h-267.34V0h267.34v255.08Zm-261.39-5.67h255.44s0-243.74,0-243.74h-255.44s0,243.74,0,243.74Z"/>
      </g>
      <g>
        <rect class="cls-10" x="68.32" y="2.84" width="261.39" height="249.41"/>
        <path class="cls-2" d="m332.68,255.08H65.35V0h267.33v255.08Zm-261.39-5.67h255.44s0-243.74,0-243.74H71.29s0,243.74,0,243.74Z"/>
      </g>
      <g>
        <rect class="cls-10" x="2.97" y="2.84" width="65.35" height="249.41"/>
        <path class="cls-2" d="m71.29,255.08H0V0h71.29v255.08Zm-65.35-5.67h59.4s0-243.74,0-243.74H5.95s0,243.74,0,243.74Z"/>
      </g>
      <g>
        <rect class="cls-10" x="1375.27" y="252.25" width="261.39" height="249.41"/>
        <path class="cls-2" d="m1639.63,504.49h-267.34v-255.08h267.34v255.08Zm-261.39-5.67h255.44s0-243.74,0-243.74h-255.44s0,243.74,0,243.74Z"/>
      </g>
      <g>
        <rect class="cls-10" x="1113.88" y="252.25" width="261.39" height="249.41"/>
        <path class="cls-2" d="m1378.24,504.49h-267.34v-255.08h267.34v255.08Zm-261.39-5.67h255.44s0-243.74,0-243.74h-255.44s0,243.74,0,243.74Z"/>
      </g>
      <g>
        <rect class="cls-10" x="852.49" y="252.25" width="261.39" height="249.41"/>
        <path class="cls-2" d="m1116.85,504.49h-267.34v-255.08h267.34v255.08Zm-261.39-5.67h255.44s0-243.74,0-243.74h-255.44s0,243.74,0,243.74Z"/>
      </g>
      <g>
        <rect class="cls-10" x="591.1" y="252.25" width="261.39" height="249.41"/>
        <path class="cls-2" d="m855.46,504.49h-267.33v-255.08h267.33v255.08Zm-261.39-5.67h255.44s0-243.74,0-243.74h-255.44s0,243.74,0,243.74Z"/>
      </g>
      <g>
        <rect class="cls-10" x="329.71" y="252.25" width="261.39" height="249.41"/>
        <path class="cls-2" d="m594.07,504.49h-267.34v-255.08h267.34v255.08Zm-261.39-5.67h255.44s0-243.74,0-243.74h-255.44s0,243.74,0,243.74Z"/>
      </g>
      <g>
        <rect class="cls-10" x="68.32" y="252.25" width="261.39" height="249.41"/>
        <path class="cls-2" d="m332.68,504.49H65.35v-255.08h267.33v255.08Zm-261.39-5.67h255.44s0-243.74,0-243.74H71.29s0,243.74,0,243.74Z"/>
      </g>
      <g>
        <rect class="cls-10" x="2.97" y="252.25" width="65.35" height="249.41"/>
        <path class="cls-2" d="m71.29,504.49H0v-255.08h71.29v255.08Zm-65.35-5.67h59.4s0-243.74,0-243.74H5.95s0,243.74,0,243.74Z"/>
      </g>
      <g>
        <rect class="cls-10" x="1375.27" y="501.66" width="261.39" height="249.41"/>
        <path class="cls-2" d="m1639.63,753.9h-267.34v-255.08h267.34v255.08Zm-261.39-5.67h255.44s0-243.74,0-243.74h-255.44s0,243.74,0,243.74Z"/>
      </g>
      <g>
        <rect class="cls-10" x="1113.88" y="501.66" width="261.39" height="249.41"/>
        <path class="cls-2" d="m1378.24,753.9h-267.34v-255.08h267.34v255.08Zm-261.39-5.67h255.44s0-243.74,0-243.74h-255.44s0,243.74,0,243.74Z"/>
      </g>
      <g>
        <rect class="cls-10" x="852.49" y="501.66" width="261.39" height="249.41"/>
        <path class="cls-2" d="m1116.85,753.9h-267.34v-255.08h267.34v255.08Zm-261.39-5.67h255.44s0-243.74,0-243.74h-255.44s0,243.74,0,243.74Z"/>
      </g>
      <g>
        <rect class="cls-10" x="591.1" y="501.66" width="261.39" height="249.41"/>
        <path class="cls-2" d="m855.46,753.9h-267.33v-255.08h267.33v255.08Zm-261.39-5.67h255.44s0-243.74,0-243.74h-255.44s0,243.74,0,243.74Z"/>
      </g>
      <g>
        <rect class="cls-10" x="329.71" y="501.66" width="261.39" height="249.41"/>
        <path class="cls-2" d="m594.07,753.9h-267.34v-255.08h267.34v255.08Zm-261.39-5.67h255.44s0-243.74,0-243.74h-255.44s0,243.74,0,243.74Z"/>
      </g>
      <g>
        <rect class="cls-10" x="68.32" y="501.66" width="261.39" height="249.41"/>
        <path class="cls-2" d="m332.68,753.9H65.35v-255.08h267.33v255.08Zm-261.39-5.67h255.44s0-243.74,0-243.74H71.29s0,243.74,0,243.74Z"/>
      </g>
      <g>
        <rect class="cls-10" x="2.97" y="501.66" width="65.35" height="249.41"/>
        <path class="cls-2" d="m71.29,753.9H0v-255.08h71.29v255.08Zm-65.35-5.67h59.4s0-243.74,0-243.74H5.95s0,243.74,0,243.74Z"/>
      </g>
      <g>
        <rect class="cls-10" x="1375.27" y="751.07" width="261.39" height="249.41"/>
        <path class="cls-2" d="m1639.63,1003.31h-267.34v-255.08h267.34v255.08Zm-261.39-5.67h255.44s0-243.74,0-243.74h-255.44s0,243.74,0,243.74Z"/>
      </g>
      <g>
        <rect class="cls-10" x="1113.88" y="751.07" width="261.39" height="249.41"/>
        <path class="cls-2" d="m1378.24,1003.31h-267.34v-255.08h267.34v255.08Zm-261.39-5.67h255.44s0-243.74,0-243.74h-255.44s0,243.74,0,243.74Z"/>
      </g>
      <g>
        <rect class="cls-10" x="852.49" y="751.07" width="261.39" height="249.41"/>
        <path class="cls-2" d="m1116.85,1003.31h-267.34v-255.08h267.34v255.08Zm-261.39-5.67h255.44s0-243.74,0-243.74h-255.44s0,243.74,0,243.74Z"/>
      </g>
      <g>
        <rect class="cls-10" x="591.1" y="751.07" width="261.39" height="249.41"/>
        <path class="cls-2" d="m855.46,1003.31h-267.33v-255.08h267.33v255.08Zm-261.39-5.67h255.44s0-243.74,0-243.74h-255.44s0,243.74,0,243.74Z"/>
      </g>
      <g>
        <rect class="cls-10" x="329.71" y="751.07" width="261.39" height="249.41"/>
        <path class="cls-2" d="m594.07,1003.31h-267.34v-255.08h267.34v255.08Zm-261.39-5.67h255.44s0-243.74,0-243.74h-255.44s0,243.74,0,243.74Z"/>
      </g>
      <g>
        <rect class="cls-10" x="68.32" y="751.07" width="261.39" height="249.41"/>
        <path class="cls-2" d="m332.68,1003.31H65.35v-255.08h267.33v255.08Zm-261.39-5.67h255.44s0-243.74,0-243.74H71.29s0,243.74,0,243.74Z"/>
      </g>
      <g>
        <rect class="cls-10" x="2.97" y="751.07" width="65.35" height="249.41"/>
        <path class="cls-2" d="m71.29,1003.31H0v-255.08h71.29v255.08Zm-65.35-5.67h59.4s0-243.74,0-243.74H5.95s0,243.74,0,243.74Z"/>
      </g>
      <g>
        <rect class="cls-10" x="1375.27" y="1000.48" width="261.39" height="249.41"/>
        <path class="cls-2" d="m1639.63,1252.72h-267.34v-255.08h267.34v255.08Zm-261.39-5.67h255.44s0-243.74,0-243.74h-255.44s0,243.74,0,243.74Z"/>
      </g>
      <g>
        <rect class="cls-10" x="1113.88" y="1000.48" width="261.39" height="249.41"/>
        <path class="cls-2" d="m1378.24,1252.72h-267.34v-255.08h267.34v255.08Zm-261.39-5.67h255.44s0-243.74,0-243.74h-255.44s0,243.74,0,243.74Z"/>
      </g>
      <g>
        <rect class="cls-10" x="852.49" y="1000.48" width="261.39" height="249.41"/>
        <path class="cls-2" d="m1116.85,1252.72h-267.34v-255.08h267.34v255.08Zm-261.39-5.67h255.44s0-243.74,0-243.74h-255.44s0,243.74,0,243.74Z"/>
      </g>
      <g>
        <rect class="cls-10" x="591.1" y="1000.48" width="261.39" height="249.41"/>
        <path class="cls-2" d="m855.46,1252.72h-267.33v-255.08h267.33v255.08Zm-261.39-5.67h255.44s0-243.74,0-243.74h-255.44s0,243.74,0,243.74Z"/>
      </g>
      <g>
        <rect class="cls-10" x="329.71" y="1000.48" width="261.39" height="249.41"/>
        <path class="cls-2" d="m594.07,1252.72h-267.34v-255.08h267.34v255.08Zm-261.39-5.67h255.44s0-243.74,0-243.74h-255.44s0,243.74,0,243.74Z"/>
      </g>
      <g>
        <rect class="cls-10" x="68.32" y="1000.48" width="261.39" height="249.41"/>
        <path class="cls-2" d="m332.68,1252.72H65.35v-255.08h267.33v255.08Zm-261.39-5.67h255.44s0-243.74,0-243.74H71.29s0,243.74,0,243.74Z"/>
      </g>
      <g>
        <rect class="cls-10" x="2.97" y="1000.48" width="65.35" height="249.41"/>
        <path class="cls-2" d="m71.29,1252.72H0v-255.08h71.29v255.08Zm-65.35-5.67h59.4s0-243.74,0-243.74H5.95s0,243.74,0,243.74Z"/>
      </g>
      <g>
        <rect class="cls-10" x="1375.27" y="1249.88" width="261.39" height="249.41"/>
        <path class="cls-2" d="m1639.63,1502.13h-267.34v-255.08h267.34v255.08Zm-261.39-5.67h255.44s0-243.74,0-243.74h-255.44s0,243.74,0,243.74Z"/>
      </g>
      <g>
        <rect class="cls-10" x="1113.88" y="1249.88" width="261.39" height="249.41"/>
        <path class="cls-2" d="m1378.24,1502.13h-267.34v-255.08h267.34v255.08Zm-261.39-5.67h255.44s0-243.74,0-243.74h-255.44s0,243.74,0,243.74Z"/>
      </g>
      <g>
        <rect class="cls-10" x="852.49" y="1249.88" width="261.39" height="249.41"/>
        <path class="cls-2" d="m1116.85,1502.13h-267.34v-255.08h267.34v255.08Zm-261.39-5.67h255.44s0-243.74,0-243.74h-255.44s0,243.74,0,243.74Z"/>
      </g>
      <g>
        <rect class="cls-10" x="591.1" y="1249.88" width="261.39" height="249.41"/>
        <path class="cls-2" d="m855.46,1502.13h-267.33v-255.08h267.33v255.08Zm-261.39-5.67h255.44s0-243.74,0-243.74h-255.44s0,243.74,0,243.74Z"/>
      </g>
      <g>
        <rect class="cls-10" x="329.71" y="1249.88" width="261.39" height="249.41"/>
        <path class="cls-2" d="m594.07,1502.13h-267.34v-255.08h267.34v255.08Zm-261.39-5.67h255.44s0-243.74,0-243.74h-255.44s0,243.74,0,243.74Z"/>
      </g>
      <g>
        <rect class="cls-10" x="68.32" y="1249.88" width="261.39" height="249.41"/>
        <path class="cls-2" d="m332.68,1502.13H65.35v-255.08h267.33v255.08Zm-261.39-5.67h255.44s0-243.74,0-243.74H71.29s0,243.74,0,243.74Z"/>
      </g>
      <g>
        <rect class="cls-10" x="2.97" y="1249.88" width="65.35" height="249.41"/>
        <path class="cls-2" d="m71.29,1502.13H0v-255.08h71.29v255.08Zm-65.35-5.67h59.4s0-243.74,0-243.74H5.95s0,243.74,0,243.74Z"/>
      </g>
      <g>
        <rect class="cls-10" x="1375.27" y="1499.3" width="261.39" height="249.41"/>
        <path class="cls-2" d="m1639.63,1751.54h-267.34v-255.08h267.34v255.08Zm-261.39-5.67h255.44s0-243.74,0-243.74h-255.44s0,243.74,0,243.74Z"/>
      </g>
      <g>
        <rect class="cls-10" x="1113.88" y="1499.3" width="261.39" height="249.41"/>
        <path class="cls-2" d="m1378.24,1751.54h-267.34v-255.08h267.34v255.08Zm-261.39-5.67h255.44s0-243.74,0-243.74h-255.44s0,243.74,0,243.74Z"/>
      </g>
      <g>
        <rect class="cls-10" x="852.49" y="1499.3" width="261.39" height="249.41"/>
        <path class="cls-2" d="m1116.85,1751.54h-267.34v-255.08h267.34v255.08Zm-261.39-5.67h255.44s0-243.74,0-243.74h-255.44s0,243.74,0,243.74Z"/>
      </g>
      <g>
        <rect class="cls-10" x="591.1" y="1499.3" width="261.39" height="249.41"/>
        <path class="cls-2" d="m855.46,1751.54h-267.33v-255.08h267.33v255.08Zm-261.39-5.67h255.44s0-243.74,0-243.74h-255.44s0,243.74,0,243.74Z"/>
      </g>
      <g>
        <rect class="cls-10" x="329.71" y="1499.3" width="261.39" height="249.41"/>
        <path class="cls-2" d="m594.07,1751.54h-267.34v-255.08h267.34v255.08Zm-261.39-5.67h255.44s0-243.74,0-243.74h-255.44s0,243.74,0,243.74Z"/>
      </g>
      <g>
        <rect class="cls-10" x="68.32" y="1499.3" width="261.39" height="249.41"/>
        <path class="cls-2" d="m332.68,1751.54H65.35v-255.08h267.33v255.08Zm-261.39-5.67h255.44s0-243.74,0-243.74H71.29s0,243.74,0,243.74Z"/>
      </g>
      <g>
        <rect class="cls-10" x="2.97" y="1499.3" width="65.35" height="249.41"/>
        <path class="cls-2" d="m71.29,1751.54H0v-255.08h71.29v255.08Zm-65.35-5.67h59.4s0-243.74,0-243.74H5.95s0,243.74,0,243.74Z"/>
      </g>
      <g>
        <rect class="cls-10" x="1375.27" y="1748.7" width="261.39" height="249.41"/>
        <path class="cls-2" d="m1639.63,2000.95h-267.34v-255.08h267.34v255.08Zm-261.39-5.67h255.44s0-243.74,0-243.74h-255.44s0,243.74,0,243.74Z"/>
      </g>
      <g>
        <rect class="cls-10" x="1113.88" y="1748.7" width="261.39" height="249.41"/>
        <path class="cls-2" d="m1378.24,2000.95h-267.34v-255.08h267.34v255.08Zm-261.39-5.67h255.44s0-243.74,0-243.74h-255.44s0,243.74,0,243.74Z"/>
      </g>
      <g>
        <rect class="cls-10" x="852.49" y="1748.7" width="261.39" height="249.41"/>
        <path class="cls-2" d="m1116.85,2000.95h-267.34v-255.08h267.34v255.08Zm-261.39-5.67h255.44s0-243.74,0-243.74h-255.44s0,243.74,0,243.74Z"/>
      </g>
      <g>
        <rect class="cls-10" x="591.1" y="1748.7" width="261.39" height="249.41"/>
        <path class="cls-2" d="m855.46,2000.95h-267.33v-255.08h267.33v255.08Zm-261.39-5.67h255.44s0-243.74,0-243.74h-255.44s0,243.74,0,243.74Z"/>
      </g>
      <g>
        <rect class="cls-10" x="329.71" y="1748.7" width="261.39" height="249.41"/>
        <path class="cls-2" d="m594.07,2000.95h-267.34v-255.08h267.34v255.08Zm-261.39-5.67h255.44s0-243.74,0-243.74h-255.44s0,243.74,0,243.74Z"/>
      </g>
      <g>
        <rect class="cls-10" x="68.32" y="1748.7" width="261.39" height="249.41"/>
        <path class="cls-2" d="m332.68,2000.95H65.35v-255.08h267.33v255.08Zm-261.39-5.67h255.44s0-243.74,0-243.74H71.29s0,243.74,0,243.74Z"/>
      </g>
      <g>
        <rect class="cls-10" x="2.97" y="1748.7" width="65.35" height="249.41"/>
        <path class="cls-2" d="m71.29,2000.95H0v-255.08h71.29v255.08Zm-65.35-5.67h59.4s0-243.74,0-243.74H5.95s0,243.74,0,243.74Z"/>
      </g>
    </g>
  </g>
  <g id="Layer_1" data-name="Layer 1">
    <g>
      <g class="cls-5">
        <g id="LWPOLYLINE">
          <polygon class="cls-9" points="1859.69 198.17 1899.81 198.17 1899.81 209.81 1960 209.81 1960 151.62 1859.69 151.62 1859.69 198.17 1859.69 198.17"/>
        </g>
        <g id="LWPOLYLINE-2" data-name="LWPOLYLINE">
          <polygon class="cls-9" points="1859.69 1036.11 1899.81 1036.11 1899.81 1024.47 1960 1024.47 1960 1082.66 1859.69 1082.66 1859.69 1036.11 1859.69 1036.11"/>
        </g>
        <g id="LWPOLYLINE-3" data-name="LWPOLYLINE">
          <rect class="cls-9" x="1137.5" y="198.17" width="722.19" height="46.55"/>
        </g>
      </g>
      <g id="ARC">
        <path class="cls-2" d="m1871.73,1024.44c-25.13,0-50.46-1.51-75.3-4.48l.47-5.27c24.69,2.96,49.86,4.46,74.83,4.46v5.29Zm-100.26-7.98c-24.84-3.99-49.76-9.54-74.05-16.51l1.1-5.14c24.14,6.92,48.9,12.44,73.58,16.4l-.62,5.24Zm-98.36-24c-24.1-7.95-48.11-17.49-71.37-28.33l1.7-4.91c23.11,10.77,46.97,20.25,70.92,28.15l-1.25,5.09Zm-94.59-39.71c-22.9-11.77-45.53-25.09-67.27-39.59l2.27-4.59c21.6,14.41,44.09,27.64,66.84,39.34l-1.85,4.84Zm-88.88-54.59c-21.26-15.34-42.09-32.17-61.89-50.02l2.8-4.18c19.68,17.73,40.37,34.46,61.5,49.7l-2.41,4.5Zm-81.49-68.32c-19.24-18.61-37.86-38.6-55.35-59.43l3.27-3.69c17.38,20.7,35.89,40.57,55.01,59.06l-2.92,4.07Zm-72.59-80.67c-16.86-21.52-32.94-44.29-47.77-67.7l3.68-3.14c14.75,23.26,30.72,45.89,47.48,67.28l-3.38,3.56Zm-62.31-91.47c-14.15-24.01-27.36-49.14-39.26-74.69l4.01-2.52c11.83,25.39,24.95,50.36,39.01,74.22l-3.77,2.99Zm-50.81-100.54c-11.15-26.06-21.23-53.08-29.96-80.3l4.28-1.85c8.67,27.06,18.69,53.9,29.77,79.8l-4.09,2.35Zm-38.31-107.83c-7.9-27.58-14.64-55.96-20.01-84.36l4.46-1.14c5.34,28.22,12.03,56.42,19.89,83.83l-4.33,1.67Zm-24.98-112.96c-4.51-28.54-7.78-57.73-9.71-86.76l4.55-.41c1.92,28.85,5.17,57.86,9.65,86.21l-4.49.95Zm-11.22-115.89c-.45-12.12-.67-24.45-.67-36.62h4.56c0,12.1.23,24.34.67,36.39l-4.56.23Z"/>
      </g>
      <g id="LWPOLYLINE-4" data-name="LWPOLYLINE">
        <polygon class="cls-4" points="1871.73 183.85 1911.85 183.85 1911.85 195.49 1972.04 195.49 1972.04 137.29 1871.73 137.29 1871.73 183.85 1871.73 183.85"/>
      </g>
      <g id="LWPOLYLINE-5" data-name="LWPOLYLINE">
        <polygon class="cls-4" points="1871.73 1021.79 1911.85 1021.79 1911.85 1010.15 1972.04 1010.15 1972.04 1068.34 1871.73 1068.34 1871.73 1021.79 1871.73 1021.79"/>
      </g>
      <g id="LWPOLYLINE-6" data-name="LWPOLYLINE">
        <rect class="cls-4" x="1149.54" y="183.85" width="722.19" height="46.55"/>
      </g>
    </g>
    <g>
      <path class="cls-6" d="m133.67,1307.36h185.28s-185.28,0-185.28,0Z"/>
      <path class="cls-6" d="m133.67,1310.36v-3s0,3,0,3Z"/>
      <polygon class="cls-6" points="133.67 1307.36 318.95 1307.36 324.7 1299.7 328.4 1296.33 335.08 1292.02 342.28 1289.15 350.33 1287.65 357.38 1287.64 903.04 1294.33 931.04 1296.36 948.1 1300.19 959.12 1303.79 974.28 1310.36 987.15 1317.62 999.25 1326.13 1010.6 1335.99 1020.19 1346.19 1029.2 1357.96 1036.59 1370.04 1043.57 1384.88 1047.93 1397.64 1050.84 1409.89 1050.84 1626.45 1047.66 1639.62 1043.55 1651.5 1035.51 1668.26 1029 1678.67 1018.8 1691.76 1010.29 1700.65 999.25 1710.21 988.76 1717.7 972.16 1727.02 960.57 1732.01 944.53 1737.13 932.26 1739.78 917.05 1741.64 903.04 1742.02 357.38 1748.7 348.7 1748.52 343.06 1747.41 335.08 1744.32 328.62 1740.19 323.02 1734.8 318.95 1728.98 133.67 1728.98 133.67 1307.36 133.67 1307.36 133.67 1307.36"/>
      <polygon class="cls-6" points="357.38 1287.64 358.06 1287.65 350.33 1287.65 357.38 1287.64"/>
      <polygon class="cls-6" points="350.33 1287.65 358.06 1287.65 480.93 1289.15 350.33 1287.65"/>
      <path class="cls-6" d="m967.36,1307.36l6.92,3-6.92-3Z"/>
      <path class="cls-6" d="m974.28,1310.36l12.87,7.25-12.87-7.25Z"/>
      <path class="cls-6" d="m987.15,1317.62l12.1,8.51-12.1-8.51Z"/>
      <path class="cls-6" d="m999.25,1326.13l11.35,9.87-11.35-9.87Z"/>
      <path class="cls-6" d="m1010.6,1335.99l9.59,10.2-9.59-10.2Z"/>
      <path class="cls-6" d="m1020.19,1346.19l9,11.77-9-11.77Z"/>
      <path class="cls-6" d="m1029.2,1357.96l7.4,12.08-7.4-12.08Z"/>
      <path class="cls-6" d="m1036.59,1370.04l6.97,14.85-6.97-14.85Z"/>
      <path class="cls-6" d="m1043.57,1384.88l4.36,12.76-4.36-12.76Z"/>
      <path class="cls-6" d="m1047.93,1397.64l2.91,12.25-2.91-12.25Z"/>
      <polygon class="cls-6" points="348.7 1748.52 462.89 1747.41 372.18 1748.52 348.7 1748.52"/>
      <polygon class="cls-6" points="348.7 1748.52 372.18 1748.52 357.38 1748.7 348.7 1748.52"/>
      <g id="WIPEOUT">
        <polygon class="cls-12" points="368.14 1268.76 368.82 1268.77 361.09 1268.77 368.14 1268.76"/>
        <polygon class="cls-12" points="361.09 1268.77 368.82 1268.77 491.69 1270.28 361.09 1268.77"/>
        <path class="cls-12" d="m133.67,1288.48h196.04s-196.04,0-196.04,0Z"/>
        <path class="cls-12" d="m133.67,1291.48v-3s0,3,0,3Z"/>
        <path class="cls-12" d="m978.12,1288.48l6.92,3-6.92-3Z"/>
        <path class="cls-12" d="m985.04,1291.48l12.87,7.26-12.87-7.26Z"/>
        <path class="cls-12" d="m997.91,1298.74l12.1,8.51-12.1-8.51Z"/>
        <path class="cls-12" d="m1010.01,1307.25l11.35,9.87-11.35-9.87Z"/>
        <path class="cls-12" d="m1021.36,1317.12l9.59,10.2-9.59-10.2Z"/>
        <path class="cls-12" d="m1030.96,1327.32l9,11.77-9-11.77Z"/>
        <path class="cls-12" d="m1039.96,1339.09l7.4,12.08-7.4-12.08Z"/>
        <path class="cls-12" d="m1047.35,1351.16l6.97,14.85-6.97-14.85Z"/>
        <path class="cls-12" d="m1054.33,1366.01l4.36,12.76-4.36-12.76Z"/>
        <path class="cls-12" d="m1058.69,1378.76l2.91,12.25-2.91-12.25Z"/>
        <polygon class="cls-12" points="359.46 1729.65 473.65 1728.53 382.94 1729.65 359.46 1729.65"/>
        <polygon class="cls-12" points="359.46 1729.65 382.94 1729.65 368.14 1729.83 359.46 1729.65"/>
        <polygon class="cls-8" points="133.67 1288.48 329.71 1288.48 335.46 1280.82 339.16 1277.45 345.84 1273.14 353.04 1270.28 361.09 1268.77 368.14 1268.76 913.8 1275.45 941.8 1277.48 958.87 1281.31 969.88 1284.92 985.04 1291.48 997.91 1298.74 1010.01 1307.25 1021.36 1317.12 1030.96 1327.32 1039.96 1339.09 1047.35 1351.16 1054.33 1366.01 1058.69 1378.76 1061.6 1391.01 1061.6 1607.58 1058.42 1620.75 1054.31 1632.62 1046.27 1649.39 1039.76 1659.79 1029.56 1672.89 1021.05 1681.77 1010.01 1691.34 999.52 1698.82 982.93 1708.14 971.33 1713.13 955.29 1718.25 943.02 1720.9 927.81 1722.76 913.8 1723.14 368.14 1729.83 359.46 1729.65 353.82 1728.53 345.84 1725.45 339.38 1721.31 333.78 1715.92 329.71 1710.1 133.67 1710.1 133.67 1288.48 133.67 1288.48 133.67 1288.48"/>
      </g>
      <path class="cls-13" d="m133.67,1710.1h196.04c21.65,0,39.21-16.75,39.21-37.41v-346.8c0-20.66-17.55-37.41-39.21-37.41h-196.04s0,421.62,0,421.62Z"/>
      <path class="cls-8" d="m133.67,1307.19h196.04c10.83,0,19.6,8.37,19.6,18.71v346.8c0,10.33-8.78,18.71-19.6,18.71h-196.04v-384.21Z"/>
      <g id="CIRCLE">
        <path class="cls-2" d="m209.47,1499.3c0-18.6,15.8-33.67,35.29-33.67s35.29,15.07,35.29,33.67c0,18.59-15.8,33.67-35.29,33.67s-35.29-15.08-35.29-33.67h0Z"/>
      </g>
      <path class="cls-12" d="m1021.77,1499.3c.03,18.58-1.25,37.15-3.83,55.57-7.33,43.23-38.97,79.12-82.35,93.42-82.36,14.96-166.9,15.24-249.37.82-37.56-11.05-66.85-39.28-78.04-75.24-6.17-24.41-9.06-49.47-8.58-74.57-.48-25.1,2.4-50.16,8.58-74.57,11.19-35.95,40.47-64.19,78.04-75.23,82.46-14.42,167.01-14.14,249.37.82,43.38,14.3,75.01,50.19,82.35,93.42,2.58,18.42,3.86,36.99,3.83,55.57Z"/>
      <path class="cls-6" d="m1021.76,1499.3c.03,18.58-1.24,37.15-3.83,55.57-6.09,35.93-28.96,66.77-61.4,84.38,23.35-18.11,39.46-44.02,44.42-73.29,2.57-18.42,3.86-36.99,3.82-55.57.04-18.58-1.24-37.15-3.82-55.57-7.33-43.24-38.97-79.13-82.35-93.42-82.35-14.96-166.91-15.24-249.37-.82-8.06,2.37-15.73,5.54-22.94,9.39,11.62-9.1,25.13-16.12,39.93-20.48,82.46-14.42,167-14.14,249.37.81,43.38,14.3,75.01,50.19,82.34,93.42,2.59,18.43,3.85,36.99,3.83,55.58Z"/>
      <path class="cls-2" d="m726.07,1499.3c.01,5.62-.9,11.22-2.69,16.59-4.5,18.02-17.53,33.02-35.27,40.55-26.49,7.22-53.93,10.9-81.48,10.91-5.1-22.33-7.45-45.18-7.02-68.05-.43-22.87,1.92-45.72,7.02-68.05,27.55.01,54.98,3.69,81.48,10.91,17.75,7.53,30.78,22.54,35.27,40.55,1.79,5.36,2.71,10.96,2.69,16.59Z"/>
      <rect class="cls-9" x="1068.51" y="1437.6" width=".16" height="5.67"/>
      <rect class="cls-9" x="1068.51" y="1301.5" width=".16" height="5.67"/>
      <g id="CIRCLE-2" data-name="CIRCLE">
        <path class="cls-14" d="m216.01,1499.3c0-15.15,12.87-27.44,28.75-27.44,15.88,0,28.75,12.28,28.75,27.44,0,15.15-12.87,27.43-28.75,27.43-15.88,0-28.75-12.28-28.75-27.43h0Z"/>
      </g>
    </g>
    <path class="cls-6" d="m201.54,1059.81v58.42s-61.75,0-61.75,0h0c-.31-4.5-.76-9-1.37-13.47-.07-.5-.51-.87-1.04-.87h-12.28s0,56.12,0,56.12h12.28c.52,0,.97-.37,1.04-.87.61-4.48,1.07-8.97,1.37-13.47h61.75s0,58.93,0,58.93h36.68s0-144.78,0-144.78h-36.68Z"/>
    <g>
      <rect class="cls-13" x="143.94" y="1111.47" width="83.93" height="27.44"/>
      <path class="cls-12" d="m147.18,1097.99c.61,4.48,1.07,8.97,1.37,13.47v27.44c-.31,4.5-.77,9-1.38,13.47-.07.5-.51.87-1.04.87h-12.28s0-56.12,0-56.12h12.28c.52,0,.97.37,1.04.87Z"/>
      <rect class="cls-8" x="210.31" y="1053.05" width="36.68" height="144.78"/>
    </g>
    <g>
      <g class="cls-5">
        <path class="cls-9" d="m361.75,1858.48h-9.14s0,.09,0,.09c-.31-.05-.63-.09-.95-.09h-42.14s-46.93,3.86-46.93,3.86v-.08s-1.42-5.65-1.42-5.65c-1.35-2.18-3.88-3.44-6.53-3.24-17.6.32-35.02,3.39-51.58,9.09v2.12s0,1.9,0,1.9v.06l-4.54.27v-12.07s-65.94,0-65.94,0l-1.98-12.34h-2.23s0,54.7,0,54.7h0s0,12.46,0,12.46h0v12.33s2.23,0,2.23,0v-.02s1.98-12.32,1.98-12.32h65.94s0-12.07,0-12.07l4.54.27v.09s0,3.99,0,3.99c16.56,5.7,33.98,8.77,51.58,9.1,2.64.19,5.18-1.06,6.53-3.24l1.42-5.65v-.08s46.93,3.86,46.93,3.86h43.09s-.95,0-.95,0c.33,0,.64-.04.95-.09v.09s9.14,0,9.14,0c2.88,0,5.22-2.23,5.22-4.98v-37.38c0-2.75-2.34-4.98-5.22-4.98Z"/>
      </g>
      <path class="cls-8" d="m357.9,1849.75h9.14c2.88,0,5.22,2.23,5.22,4.98v37.38c0,2.75-2.34,4.98-5.23,4.98h-9.14v-47.34Z"/>
      <path class="cls-14" d="m267.89,1853.53l-1.42-5.65c-1.35-2.18-3.88-3.44-6.53-3.24-17.6.32-35.02,3.39-51.58,9.09v2.12s0,1.9,0,1.9v31.37s0,3.99,0,3.99c16.56,5.7,33.98,8.77,51.58,9.1,2.64.2,5.18-1.06,6.53-3.24l1.42-5.65v-39.78Z"/>
      <g id="LINE">
        <rect class="cls-9" x="318.08" y="1849.75" width="1.31" height="47.34"/>
      </g>
      <polygon class="cls-12" points="197.3 1888.36 239.08 1890.86 239.08 1855.97 197.3 1858.46 197.3 1888.36"/>
      <path class="cls-13" d="m239.08,1890.86l75.73,6.23h43.09s-.96,0-.96,0c2.88,0,5.22-2.23,5.22-4.98v-37.38c0-2.75-2.34-4.98-5.22-4.98h.95s-43.09,0-43.09,0l-75.73,6.22v34.89Z"/>
      <g id="LINE-2" data-name="LINE">
        <polygon class="cls-9" points="209.02 1889.11 207.71 1889.11 209.02 1889.08 209.02 1889.11"/>
      </g>
      <rect class="cls-13" x="133.67" y="1833.66" width="2.23" height="79.49"/>
      <polygon class="cls-13" points="135.9 1833.66 139.69 1857.21 139.68 1889.61 135.9 1913.15 135.9 1833.66"/>
      <rect class="cls-8" x="133.66" y="1888.36" width="70.16" height="12.46"/>
      <rect class="cls-8" x="133.67" y="1846" width="70.16" height="12.46"/>
      <rect class="cls-13" x="169.88" y="1858.46" width="27.42" height="29.9"/>
      <rect class="cls-12" x="139.69" y="1858.46" width="30.19" height="29.9"/>
    </g>
    <g>
      <g id="LWPOLYLINE-7" data-name="LWPOLYLINE" class="cls-5">
        <path class="cls-9" d="m133.67,190.41h532.58c7.22,0,13.07,5.58,13.07,12.47v660.94c0,6.89-5.85,12.47-13.07,12.47H133.67V190.41Z"/>
      </g>
      <g id="LWPOLYLINE-8" data-name="LWPOLYLINE">
        <path class="cls-13" d="m133.86,158.72h561.8c7.22,0,13.07,5.58,13.07,12.47v660.94c0,6.89-5.85,12.47-13.07,12.47H133.86V158.72Z"/>
      </g>
      <g id="LWPOLYLINE-9" data-name="LWPOLYLINE">
        <rect class="cls-8" x="133.67" y="158.72" width="104.56" height="685.88"/>
      </g>
      <g id="LWPOLYLINE-10" data-name="LWPOLYLINE">
        <path class="cls-12" d="m238.22,196.13v611.05s411.69,0,411.69,0c3.61,0,6.53-2.79,6.53-6.24V202.36c0-3.44-2.92-6.24-6.53-6.24H238.22Z"/>
      </g>
      <g id="LWPOLYLINE-11" data-name="LWPOLYLINE" class="cls-5">
        <path class="cls-9" d="m656.45,202.36v598.58c0,3.44-2.93,6.24-6.53,6.24h-11.76V214.83c0-3.44-2.93-6.23-6.53-6.23H238.22v-12.47h411.69c3.61,0,6.53,2.79,6.53,6.24Z"/>
      </g>
      <g>
        <ellipse class="cls-3" cx="369.03" cy="501.65" rx="55.45" ry="52.91"/>
        <path class="cls-15" d="m402.25,501.65c0,17.51-14.87,31.7-33.22,31.7-18.35,0-33.22-14.19-33.22-31.7,0-17.51,14.87-31.7,33.22-31.7,18.35,0,33.22,14.19,33.22,31.7Z"/>
      </g>
      <path class="cls-6" d="m316.9,493.41c-.19,0-.38,0-.57.01h-113.75c-4.75-10.28-14.45-17.99-26.22-20.4v-2.06c0-.35-.29-.62-.65-.62h-14.38c-.36,0-.65.28-.65.62v2.06c-14.27,2.92-25.49,13.64-28.55,27.25h-2.16c-.36,0-.65.28-.65.62v13.72c0,.34.29.62.65.62h2.17c3.06,13.6,14.29,24.31,28.55,27.23v2.08c0,.34.29.62.65.62h14.38c.36,0,.65-.28.65-.62v-2.08c11.76-2.41,21.45-10.11,26.21-20.37h113.76c8.29.29,15.27-5.88,15.59-13.79,0-.18.01-.37.01-.55,0-7.92-6.73-14.34-15.03-14.34Z"/>
      <g>
        <path class="cls-3" d="m210.1,501.65c0-19.62-16.67-35.52-37.22-35.52-20.56,0-37.22,15.9-37.22,35.52,0,19.62,16.67,35.52,37.22,35.52,20.56,0,37.22-15.9,37.22-35.52Z"/>
        <path class="cls-14" d="m190.82,487.32h129.86c.19,0,.38,0,.57,0,8.3,0,15.03,6.42,15.03,14.34,0,.18,0,.37-.01.55-.32,7.91-7.3,14.09-15.59,13.78h-129.86s0-28.67,0-28.67Z"/>
        <path class="cls-2" d="m188.88,487.32h124.09c.19,0,.38,0,.57,0,8.3,0,15.03,6.42,15.03,14.34,0,.18,0,.37-.01.55-.32,7.91-7.3,14.09-15.59,13.78h-124.09s0-28.67,0-28.67Z"/>
        <path class="cls-14" d="m198.5,501.65c0,13.5-11.47,24.45-25.63,24.45-14.15,0-25.62-10.95-25.62-24.45,0-13.5,11.47-24.45,25.62-24.45,14.15,0,25.63,10.95,25.63,24.45Z"/>
        <g>
          <path class="cls-12" d="m134.32,494.17h28.1c1.44,0,2.61-1.12,2.61-2.49v-26.81c0-.34.29-.62.65-.62h14.38c.36,0,.65.28.65.62v26.81c0,1.38,1.17,2.49,2.61,2.49h28.1c.36,0,.65.28.65.62v13.72c0,.34-.29.62-.65.62h-28.1c-1.44,0-2.61,1.12-2.61,2.49v26.81c0,.34-.29.62-.65.62h-14.38c-.36,0-.65-.28-.65-.62v-26.81c0-1.38-1.17-2.49-2.61-2.49h-28.1c-.36,0-.65-.28-.65-.62v-13.72c0-.34.29-.62.65-.62Z"/>
          <g class="cls-11">
            <path class="cls-9" d="m167.16,537.05v-26.81c0-1.38-1.17-2.49-2.61-2.49h-28.1c-.36,0-.65-.28-.65-.62l-1.47-12.95c-.36,0-.65.28-.65.62v13.72c0,.34.29.62.65.62h28.1c1.44,0,2.61,1.12,2.61,2.49v26.81c0,.34.29.62.65.62h14.38c.36,0,.65-.28.65-.62l-12.91-.77c-.36,0-.65-.28-.65-.62Z"/>
            <path class="cls-9" d="m183.11,509.16c.07,0,.14-.02.22-.02h28.1c.36,0,.65-.28.65-.62v-.77s-28.55.58-28.97,1.41Z"/>
            <path class="cls-9" d="m167.16,464.24h-1.47c-.36,0-.65.28-.65.62v26.81c0,.39-.1.75-.27,1.08,1.34-.11,2.39-28.52,2.39-28.52Z"/>
          </g>
          <g class="cls-5">
            <path class="cls-1" d="m162.64,494.15c-.07,0-.15.02-.22.02h-28.1c-.36,0-.65.28-.65.62,0,0,28.55.19,28.97-.65Z"/>
            <path class="cls-1" d="m180.06,539.07c.36,0,.65-.28.65-.62v-26.81c0-.39.1-.75.27-1.08-1.34.11-.92,28.52-.92,28.52Z"/>
            <path class="cls-1" d="m211.43,494.17h-28.1c-1.44,0-2.61-1.12-2.61-2.49v-26.81c0-.34-.29-.62-.65-.62h-14.38c-.36,0,12.25,1.39,12.25,1.39.36,0,.65.28.65.62v26.81c0,1.38,1.17,2.49,2.61,2.49h28.1c.36,0,.65.28.65.62,0,0,2.12,12.67,2.12,12.33v-13.72c0-.34-.29-.62-.65-.62Z"/>
          </g>
        </g>
      </g>
    </g>
    <g id="LWPOLYLINE-12" data-name="LWPOLYLINE">
      <rect class="cls-7" x="2.97" y="2.84" width="130.7" height="1995.28"/>
    </g>
  </g>
</svg>