<?xml version="1.0" encoding="UTF-8"?>
<svg xmlns="http://www.w3.org/2000/svg" xmlns:xlink="http://www.w3.org/1999/xlink" viewBox="0 0 499.141 494.008">
  <defs>
    <style>
      .cls-1 {
        opacity: .13;
      }

      .cls-2 {
        fill: #555;
      }

      .cls-3 {
        fill: url(#Sky-3);
      }

      .cls-4, .cls-5, .cls-6 {
        fill: #fff;
      }

      .cls-5, .cls-7 {
        mix-blend-mode: multiply;
      }

      .cls-7 {
        fill: #ddd3cc;
      }

      .cls-6 {
        fill-rule: evenodd;
      }

      .cls-8 {
        fill: url(#Sky-2);
      }

      .cls-9 {
        isolation: isolate;
      }

      .cls-10 {
        fill: #d6d8d8;
      }

      .cls-11 {
        fill: #c69c6d;
      }

      .cls-12 {
        fill: url(#Earthtone_21-2);
      }

      .cls-13 {
        fill: #b3b6ba;
      }

      .cls-14 {
        fill: #f9ddcf;
        opacity: .5;
      }

      .cls-15 {
        clip-path: url(#clippath);
      }

      .cls-16 {
        fill: none;
      }

      .cls-17 {
        fill: url(#Earthtone_21);
      }

      .cls-18 {
        fill: url(#Sky);
      }

      .cls-19 {
        fill: #888;
      }
    </style>
    <clipPath id="clippath">
      <rect class="cls-16" x="9.41" y="159.2" width="331.59" height="334.808"/>
    </clipPath>
    <linearGradient id="Earthtone_21" data-name="Earthtone 21" x1="502.918" y1="-208.339" x2="126.168" y2="203.66" gradientTransform="translate(512.016 426.703) rotate(-180)" gradientUnits="userSpaceOnUse">
      <stop offset="0" stop-color="#b85e42"/>
      <stop offset=".5" stop-color="#9f2214"/>
      <stop offset="1" stop-color="#700101"/>
    </linearGradient>
    <linearGradient id="Earthtone_21-2" data-name="Earthtone 21" x1="624.122" y1="-97.311" x2="247.369" y2="314.693" xlink:href="#Earthtone_21"/>
    <linearGradient id="Sky" x1="1119.886" y1="936.631" x2="1119.886" y2="894.126" gradientTransform="translate(1200.603 -878.963) rotate(90)" gradientUnits="userSpaceOnUse">
      <stop offset="0" stop-color="#cce0f4"/>
      <stop offset=".064" stop-color="#c2dcf2"/>
      <stop offset=".171" stop-color="#a9d2ee"/>
      <stop offset=".307" stop-color="#7fc2e7"/>
      <stop offset=".465" stop-color="#46abdd"/>
      <stop offset=".567" stop-color="#1e9cd7"/>
      <stop offset=".865" stop-color="#0075be"/>
      <stop offset=".994" stop-color="#005b97"/>
    </linearGradient>
    <linearGradient id="Sky-2" data-name="Sky" x1="1119.886" y1="931.182" x2="1119.886" y2="899.579" xlink:href="#Sky"/>
    <linearGradient id="Sky-3" data-name="Sky" x1="42.204" y1="412.284" x2="50.777" y2="412.284" gradientTransform="translate(341 653.208) rotate(-180)" xlink:href="#Sky"/>
  </defs>
  <g class="cls-9">
    <g id="Layer_1" data-name="Layer 1">
      <g class="cls-15">
        <g>
          <rect class="cls-17" x="10.696" y="243.577" width="488.355" height="245.39"/>
          <path class="cls-14" d="m91.859,488.822h1.82s79.274,0,79.274,0h1.813s79.294,0,79.294,0h1.796s79.277,0,79.277,0h1.814s79.277,0,79.277,0h1.824s81.091,0,81.091,0v-81.141s0-1.834,0-1.834v-79.295s0-1.834,0-1.834v-81.141s-81.091,0-81.091,0h-1.824s-79.277,0-79.277,0h-1.814s-79.277,0-79.277,0h-1.796s-79.294,0-79.294,0h-1.813s-79.274,0-79.274,0h-1.82s-81.08,0-81.08,0v81.141s0,1.834,0,1.834v79.295s0,1.834,0,1.834v81.141s81.08,0,81.08,0Zm324.366-162.27v79.295h-79.26v-79.295h79.26Zm-81.104,0v79.295h-79.246v-79.295h79.246Zm-81.077,0v79.295h-79.26v-79.295h79.26Zm-81.104,0v79.295h-79.26v-79.295h79.26Zm-79.26,160.444v-79.315h79.26v79.315h-79.26Zm81.104,0v-79.315h79.26v79.315h-79.26Zm81.091,0v-79.315h79.246v79.315h-79.246Zm81.091,0v-79.315h79.26v79.315h-79.26Zm160.351,0h-79.267v-79.315h79.267v79.315Zm0-81.149h-79.267v-79.295h79.267v79.295Zm0-160.45v79.322h-79.267v-79.322h79.267Zm-81.091,0v79.322h-79.26v-79.322h79.26Zm-81.104,0v79.322h-79.246v-79.322h79.246Zm-81.077,0v79.322h-79.26v-79.322h79.26Zm-81.104,0v79.322h-79.26v-79.322h79.26Zm-160.34,0h79.26v79.322H12.599v-79.322Zm0,81.156h79.26v79.295H12.599v-79.295Zm79.26,81.129v79.315H12.599v-79.315h79.26Z"/>
          <rect class="cls-12" x="10.696" y="0" width="488.355" height="245.396"/>
          <path class="cls-14" d="m91.859,245.253h1.82s79.274,0,79.274,0h1.813s79.294,0,79.294,0h1.796s79.277,0,79.277,0h1.814s79.277,0,79.277,0h1.824s81.091,0,81.091,0v-81.149s0-1.82,0-1.82v-79.315s0-1.826,0-1.826V0s-81.091,0-81.091,0h-1.824s-79.277,0-79.277,0h-1.814s-79.277,0-79.277,0h-1.796s-79.294,0-79.294,0h-1.813s-79.274,0-79.274,0h-1.82S10.779,0,10.779,0v81.142s0,1.826,0,1.826v79.315s0,1.82,0,1.82v81.149s81.08,0,81.08,0ZM416.226,82.969v79.315h-79.26v-79.315h79.26Zm-81.104,0v79.315h-79.246v-79.315h79.246Zm-81.077,0v79.315h-79.26v-79.315h79.26Zm-81.104,0v79.315h-79.26v-79.315h79.26Zm-79.26,160.45v-79.315h79.26v79.315h-79.26Zm81.104,0v-79.315h79.26v79.315h-79.26Zm81.091,0v-79.315h79.246v79.315h-79.246Zm81.091,0v-79.315h79.26v79.315h-79.26Zm160.351,0h-79.267v-79.315h79.267v79.315Zm0-81.135h-79.267v-79.315h79.267v79.315Zm0-160.456v79.315h-79.267V1.827h79.267Zm-81.091,0v79.315h-79.26V1.827h79.26Zm-81.104,0v79.315h-79.246V1.827h79.246Zm-81.077,0v79.315h-79.26V1.827h79.26Zm-81.104,0v79.315h-79.26V1.827h79.26Zm-160.34,0h79.26v79.315H12.599V1.827Zm0,81.141h79.26v79.315H12.599v-79.315Zm79.26,81.135v79.315H12.599v-79.315h79.26Z"/>
        </g>
      </g>
      <g>
        <g>
          <rect class="cls-4" x=".968" y="165.402" width="11.066" height="11.657"/>
          <path class="cls-4" d="m12.997,178.087v-13.701s-12.997,0-12.997,0v13.701s12.997,0,12.997,0Zm-1.937-11.664v9.621H1.934s0-9.621,0-9.621h9.126Z"/>
        </g>
        <g>
          <polygon class="cls-6" points=".968 323.185 .968 311.514 12.035 311.528 12.035 323.185 .968 323.185"/>
          <path class="cls-4" d="m12.997,324.2v-13.701s-12.997,0-12.997,0v13.701s12.997,0,12.997,0Zm-1.937-11.657v9.621H1.934s0-9.635,0-9.635l9.126.013Z"/>
        </g>
        <g>
          <path class="cls-4" d="m127.484,289.326c-4.391-28.409-17.741-55.085-37.609-75.119-21.617-21.8-48.903-33.919-78.921-35.052l-.022.665c65.364,2.491,107.786,57.016,115.914,109.617l.637-.112Z"/>
          <polygon class="cls-4" points="128.309 299.218 121.256 286.077 127.031 288.634 132 284.628 128.309 299.218"/>
        </g>
        <g>
          <path class="cls-4" d="m129.578,307.125H7.066s0-5.569,0-5.569h122.512s0,5.569,0,5.569Z"/>
          <path class="cls-4" d="m131.19,308.826v-8.962s-125.731,0-125.731,0v8.962s125.731,0,125.731,0Zm-3.219-5.575v2.182H8.675s0-2.182,0-2.182h119.296Z"/>
        </g>
      </g>
      <g>
        <path class="cls-4" d="m287.791,437.365v-59.096c0-5.737-4.459-10.434-9.907-10.434l-45.148,3.814c-20.941,2.207-34.351,14.181-34.351,36.168h0c0,21.994,13.41,33.886,34.351,36.179l45.148,3.806c5.448,0,9.907-4.692,9.907-10.437Z"/>
        <path class="cls-10" d="m273.222,372.7l-40.014,3.806c-18.479,3.062-29.728,11.996-29.728,31.31h0c0,19.319,11.708,29.362,29.728,31.317l40.014,3.81v-70.243Z"/>
        <path class="cls-13" d="m319.038,431.283v-46.926c0-10.064-7.819-18.299-17.378-18.299h0c-9.553,0-17.372,8.234-17.372,18.299v46.926c0,10.064,7.819,18.298,17.372,18.298h0c9.559,0,17.378-8.233,17.378-18.298Z"/>
        <path class="cls-4" d="m262.918,390.864h82.636c.245,0,.443.199.443.443v30.73c0,1.511-1.227,2.738-2.738,2.738h-78.046c-1.511,0-2.738-1.227-2.738-2.738v-30.73c0-.244.198-.443.443-.443Z" transform="translate(712.056 103.584) rotate(90)"/>
        <path class="cls-19" d="m321.192,446.743v-77.846c0-1.565-1.204-2.838-2.697-2.838h-.517c1.486,0,2.697,1.272,2.697,2.838v77.846c0,1.565-1.212,2.838-2.697,2.838h.517c1.493,0,2.697-1.272,2.697-2.838Z"/>
        <path class="cls-2" d="m304.233,412.296c-2.344,0-4.243-2.003-4.243-4.479s1.899-4.472,4.243-4.472,4.25,2.003,4.25,4.472-1.899,4.479-4.25,4.479Z"/>
      </g>
      <g>
        <rect class="cls-7" x="30.749" y="179.656" width="275.824" height="31.849"/>
        <rect class="cls-7" x="30.749" y="179.656" width="275.824" height="14.248"/>
      </g>
      <g>
        <rect class="cls-7" x="272.222" y="179.603" width="33.545" height="302.141"/>
        <rect class="cls-7" x="290.758" y="179.603" width="15.009" height="302.141"/>
      </g>
      <g>
        <rect class="cls-5" x="29.639" y="449.967" width="276.706" height="31.849"/>
        <rect class="cls-5" x="29.639" y="467.568" width="276.706" height="14.248"/>
      </g>
      <path class="cls-7" d="m267.166,207.443c-9.659,23.365-9.659,42.777,0,66.14.162.406,1.361,2.656,3.446,2.656h43.503c2.915,0,3.505-2.427,3.505-2.983v-65.485c0-.557-.586-2.981-3.505-2.981h-43.503c-2.11,0-3.284,2.249-3.446,2.653Z"/>
      <path class="cls-7" d="m264.763,207.246c-9.659,23.365-9.659,42.777,0,66.14.162.406,1.361,2.656,3.446,2.656h43.503c2.915,0,3.505-2.427,3.505-2.983v-65.485c0-.557-.586-2.981-3.505-2.981h-43.503c-2.11,0-3.284,2.249-3.446,2.653Z"/>
      <g>
        <path class="cls-4" d="m267.261,273.993c-9.658-23.363-9.658-42.775,0-66.14.162-.405,1.336-2.653,3.446-2.653h43.503c2.915,0,3.505,2.424,3.505,2.981v65.485c0,.555-.594,2.983-3.505,2.983h-43.503c-2.088,0-3.284-2.25-3.446-2.656Z"/>
        <g class="cls-1">
          <path class="cls-18" d="m270.219,269.188c-8.33-20.16-8.33-36.369,0-56.529.144-.35.992-2.564,3.291-2.564h32.967v61.655h-32.967c-2.011,0-3.147-2.212-3.291-2.562Z"/>
          <path class="cls-8" d="m274.064,265.548c-6.19-16.415-6.19-32.834,0-49.25.111-.286.399-.479.723-.479h26.237v50.208h-26.237c-.325,0-.612-.194-.723-.478Z"/>
          <path class="cls-3" d="m294.506,244.569c-2.358,0-4.283-1.632-4.283-3.643,0-2.012,1.926-3.645,4.283-3.645,2.376,0,4.29,1.633,4.29,3.645,0,2.012-1.915,3.643-4.29,3.643Z"/>
        </g>
        <g>
          <path class="cls-11" d="m299.545,242.73c-1.118,0-2.029-.809-2.029-1.808h0c0-.998.911-1.806,2.029-1.806h7.176c1.118,0,2.029.808,2.029,1.806h0c0,.998-.911,1.808-2.029,1.808h-7.176Z"/>
          <path class="cls-11" d="m299.792,242.527c-1.044,0-1.885-.717-1.885-1.605h0c0-.886.841-1.605,1.885-1.605h6.681c1.044,0,1.885.719,1.885,1.605h0c0,.888-.841,1.605-1.885,1.605h-6.681Z"/>
          <path class="cls-11" d="m310.388,244.255c-2.228,0-4.029-1.536-4.029-3.43,0-1.896,1.8-3.43,4.029-3.43s4.036,1.534,4.036,3.43-1.808,3.43-4.036,3.43Z"/>
          <path class="cls-11" d="m310.388,243.215c-1.55,0-2.811-1.07-2.811-2.389s1.262-2.391,2.811-2.391,2.811,1.072,2.811,2.391c0,1.319-1.254,2.389-2.811,2.389Z"/>
        </g>
      </g>
    </g>
  </g>
</svg>