<?xml version="1.0" encoding="UTF-8"?>
<svg xmlns="http://www.w3.org/2000/svg" xmlns:xlink="http://www.w3.org/1999/xlink" viewBox="0 0 297.909 253.23">
  <defs>
    <style>
      .cls-1 {
        opacity: .13;
      }

      .cls-2 {
        fill: #555;
      }

      .cls-3 {
        fill: url(#Sky-3);
      }

      .cls-4, .cls-5, .cls-6 {
        fill: #fff;
      }

      .cls-5, .cls-7 {
        mix-blend-mode: multiply;
      }

      .cls-7 {
        fill: #ddd3cc;
      }

      .cls-6 {
        fill-rule: evenodd;
      }

      .cls-8 {
        fill: url(#Sky-2);
      }

      .cls-9 {
        isolation: isolate;
      }

      .cls-10 {
        fill: #d6d8d8;
      }

      .cls-11 {
        fill: #c69c6d;
      }

      .cls-12 {
        fill: url(#Earthtone_21-2);
      }

      .cls-13 {
        fill: #b3b6ba;
      }

      .cls-14 {
        fill: #f9ddcf;
        opacity: .5;
      }

      .cls-15 {
        clip-path: url(#clippath);
      }

      .cls-16 {
        fill: none;
      }

      .cls-17 {
        fill: url(#Earthtone_21);
      }

      .cls-18 {
        fill: url(#Sky);
      }

      .cls-19 {
        fill: #888;
      }
    </style>
    <clipPath id="clippath">
      <rect class="cls-16" x="0" y="4.774" width="201.904" height="168.226"/>
    </clipPath>
    <linearGradient id="Earthtone_21" data-name="Earthtone 21" x1="379.838" y1="-158.857" x2="175.913" y2="64.147" gradientTransform="translate(90.41 376.111) rotate(-90)" gradientUnits="userSpaceOnUse">
      <stop offset="0" stop-color="#b85e42"/>
      <stop offset=".5" stop-color="#9f2214"/>
      <stop offset="1" stop-color="#700101"/>
    </linearGradient>
    <linearGradient id="Earthtone_21-2" data-name="Earthtone 21" x1="445.443" y1="-83.715" x2="241.516" y2="139.292" xlink:href="#Earthtone_21"/>
    <linearGradient id="Sky" x1="951.446" y1="910.769" x2="951.446" y2="889.205" gradientTransform="translate(1104.068 1044.691) rotate(-180)" gradientUnits="userSpaceOnUse">
      <stop offset="0" stop-color="#cce0f4"/>
      <stop offset=".064" stop-color="#c2dcf2"/>
      <stop offset=".171" stop-color="#a9d2ee"/>
      <stop offset=".307" stop-color="#7fc2e7"/>
      <stop offset=".465" stop-color="#46abdd"/>
      <stop offset=".567" stop-color="#1e9cd7"/>
      <stop offset=".865" stop-color="#0075be"/>
      <stop offset=".994" stop-color="#005b97"/>
    </linearGradient>
    <linearGradient id="Sky-2" data-name="Sky" x1="951.446" y1="908.005" x2="951.446" y2="891.971" xlink:href="#Sky"/>
    <linearGradient id="Sky-3" data-name="Sky" x1="53.507" y1="288.716" x2="57.857" y2="288.716" gradientTransform="translate(-136.096 205.096) rotate(-90)" xlink:href="#Sky"/>
  </defs>
  <g class="cls-9">
    <g id="Layer_1" data-name="Layer 1">
      <g class="cls-15">
        <g>
          <rect class="cls-17" x="3.041" y="5.426" width="147.981" height="247.758"/>
          <path class="cls-14" d="m3.128,46.603v.924s0,40.218,0,40.218v.92s0,40.229,0,40.229v.911s0,40.22,0,40.22v.92s0,40.22,0,40.22v.925s0,41.14,0,41.14h48.932s1.106,0,1.106,0h47.818s1.106,0,1.106,0h48.932s0-41.14,0-41.14v-.925s0-40.22,0-40.22v-.92s0-40.22,0-40.22v-.911s0-40.229,0-40.229v-.92s0-40.218,0-40.218v-.924s0-41.135,0-41.135h-48.932s-1.106,0-1.106,0h-47.818s-1.106,0-1.106,0H3.128s0,41.135,0,41.135Zm97.856,164.561h-47.818v-40.211h47.818v40.211Zm0-41.147h-47.818v-40.204h47.818v40.204Zm0-41.133h-47.818v-40.211h47.818v40.211Zm0-41.147h-47.818v-40.211h47.818v40.211ZM4.229,47.527h47.83v40.211H4.229v-40.211Zm0,41.147h47.83v40.211H4.229v-40.211Zm0,41.14h47.83v40.204H4.229v-40.204Zm0,41.14h47.83v40.211H4.229v-40.211Zm0,81.351v-40.215h47.83v40.215H4.229Zm48.936,0v-40.215h47.818v40.215h-47.818Zm96.759,0h-47.834v-40.215h47.834v40.215Zm0-41.14h-47.834v-40.211h47.834v40.211Zm0-41.147h-47.834v-40.204h47.834v40.204Zm0-41.133h-47.834v-40.211h47.834v40.211Zm0-41.147h-47.834v-40.211h47.834v40.211Zm0-81.346v40.211h-47.834V6.392h47.834Zm-48.94,0v40.211h-47.818V6.392h47.818Zm-48.924,40.211H4.229V6.392h47.83v40.211Z"/>
          <rect class="cls-12" x="149.924" y="5.426" width="147.985" height="247.758"/>
          <path class="cls-14" d="m150.011,46.603v.924s0,40.218,0,40.218v.92s0,40.229,0,40.229v.911s0,40.22,0,40.22v.92s0,40.22,0,40.22v.925s0,41.14,0,41.14h48.936s1.098,0,1.098,0h47.83s1.101,0,1.101,0h48.932s0-41.14,0-41.14v-.925s0-40.22,0-40.22v-.92s0-40.22,0-40.22v-.911s0-40.229,0-40.229v-.92s0-40.218,0-40.218v-.924s0-41.135,0-41.135h-48.932s-1.101,0-1.101,0h-47.83s-1.098,0-1.098,0h-48.936s0,41.135,0,41.135Zm97.865,164.561h-47.83v-40.211h47.83v40.211Zm0-41.147h-47.83v-40.204h47.83v40.204Zm0-41.133h-47.83v-40.211h47.83v40.211Zm0-41.147h-47.83v-40.211h47.83v40.211Zm-96.759-40.211h47.83v40.211h-47.83v-40.211Zm0,41.147h47.83v40.211h-47.83v-40.211Zm0,41.14h47.83v40.204h-47.83v-40.204Zm0,41.14h47.83v40.211h-47.83v-40.211Zm0,81.351v-40.215h47.83v40.215h-47.83Zm48.928,0v-40.215h47.83v40.215h-47.83Zm96.762,0h-47.83v-40.215h47.83v40.215Zm0-41.14h-47.83v-40.211h47.83v40.211Zm0-41.147h-47.83v-40.204h47.83v40.204Zm0-41.133h-47.83v-40.211h47.83v40.211Zm0-41.147h-47.83v-40.211h47.83v40.211Zm0-81.346v40.211h-47.83V6.392h47.83Zm-48.932,0v40.211h-47.83V6.392h47.83Zm-48.928,40.211h-47.83V6.392h47.83v40.211Z"/>
        </g>
      </g>
      <g>
        <g>
          <rect class="cls-4" x="191.134" y=".491" width="7.03" height="5.614"/>
          <path class="cls-4" d="m190.514,6.594h8.262s0-6.594,0-6.594h-8.262s0,6.594,0,6.594Zm7.034-.983h-5.802V.981h5.802v4.63Z"/>
        </g>
        <g>
          <polygon class="cls-6" points="103.014 .491 110.052 .491 110.044 6.106 103.014 6.106 103.014 .491"/>
          <path class="cls-4" d="m102.402,6.594h8.262s0-6.594,0-6.594h-8.262s0,6.594,0,6.594Zm7.03-.983h-5.802V.981h5.81l-.008,4.63Z"/>
        </g>
        <g>
          <path class="cls-4" d="m123.433,64.677c17.132-2.228,33.219-9.001,45.3-19.08,13.146-10.967,20.455-24.81,21.138-40.039l-.401-.011c-1.502,33.161-34.383,54.683-66.104,58.807l.068.323Z"/>
          <polygon class="cls-4" points="117.467 65.095 125.392 61.517 123.85 64.447 126.266 66.968 117.467 65.095"/>
        </g>
        <g>
          <path class="cls-4" d="m112.699,65.739V3.585h3.358v62.154h-3.358Z"/>
          <path class="cls-4" d="m111.673,66.557h5.405s0-63.787,0-63.787h-5.405s0,63.787,0,63.787Zm3.362-1.633h-1.316V4.401h1.316v60.523Z"/>
        </g>
      </g>
      <g>
        <path class="cls-4" d="m34.158,146.005h35.638c3.46,0,6.292-2.262,6.292-5.026l-2.3-22.905c-1.331-10.624-8.552-17.427-21.811-17.427h0c-13.264,0-20.435,6.803-21.818,17.427l-2.295,22.905c0,2.764,2.83,5.026,6.294,5.026Z"/>
        <path class="cls-10" d="m73.154,138.614l-2.295-20.3c-1.846-9.375-7.234-15.082-18.882-15.082h0c-11.65,0-17.707,5.94-18.886,15.082l-2.297,20.3h42.36Z"/>
        <path class="cls-13" d="m37.826,161.858h28.298c6.069,0,11.035-3.967,11.035-8.817h0c0-4.847-4.966-8.813-11.035-8.813h-28.298c-6.069,0-11.034,3.967-11.034,8.813h0c0,4.85,4.965,8.817,11.034,8.817Z"/>
        <path class="cls-4" d="m27.234,145.746h49.481c.245,0,.443.199.443.443v14.023c0,1.511-1.227,2.738-2.738,2.738H29.53c-1.511,0-2.738-1.227-2.738-2.738v-14.023c0-.244.198-.443.443-.443Z" transform="translate(103.95 308.697) rotate(-180)"/>
        <path class="cls-19" d="m28.503,162.951h46.945c.944,0,1.711-.611,1.711-1.369v-.262c0,.754-.767,1.369-1.711,1.369H28.503c-.944,0-1.711-.615-1.711-1.369v.262c0,.758.767,1.369,1.711,1.369Z"/>
        <path class="cls-2" d="m49.276,154.347c0-1.189,1.208-2.153,2.701-2.153s2.697.963,2.697,2.153-1.208,2.156-2.697,2.156-2.701-.963-2.701-2.156Z"/>
      </g>
      <g>
        <rect class="cls-7" x="170.362" y="15.6" width="19.206" height="139.934"/>
        <rect class="cls-7" x="180.976" y="15.6" width="8.592" height="139.934"/>
      </g>
      <g>
        <rect class="cls-7" x="7.396" y="138.107" width="182.205" height="17.018"/>
        <rect class="cls-7" x="7.396" y="147.51" width="182.205" height="7.614"/>
      </g>
      <g>
        <rect class="cls-5" x="7.353" y="15.037" width="19.206" height="140.382"/>
        <rect class="cls-5" x="7.353" y="15.037" width="8.592" height="140.382"/>
      </g>
      <path class="cls-7" d="m172.811,135.542c-14.09-4.9-25.796-4.9-39.885,0-.245.082-1.602.691-1.602,1.748v22.07c0,1.479,1.464,1.778,1.799,1.778h39.491c.336,0,1.798-.297,1.798-1.778v-22.07c0-1.071-1.356-1.666-1.6-1.748Z"/>
      <path class="cls-7" d="m172.93,134.323c-14.09-4.9-25.796-4.9-39.885,0-.245.082-1.602.691-1.602,1.748v22.07c0,1.479,1.464,1.778,1.799,1.778h39.491c.336,0,1.798-.297,1.798-1.778v-22.07c0-1.071-1.356-1.666-1.6-1.748Z"/>
      <g>
        <path class="cls-4" d="m132.679,135.59c14.089-4.9,25.795-4.9,39.885,0,.244.082,1.6.678,1.6,1.748v22.07c0,1.479-1.462,1.778-1.798,1.778h-39.491c-.335,0-1.799-.301-1.799-1.778v-22.07c0-1.059,1.357-1.666,1.602-1.748Z"/>
        <g class="cls-1">
          <path class="cls-18" d="m135.576,137.091c12.158-4.226,21.932-4.226,34.09,0,.211.073,1.546.503,1.546,1.67v16.725h-37.181v-16.725c0-1.02,1.334-1.596,1.545-1.67Z"/>
          <path class="cls-8" d="m137.772,139.041c9.899-3.14,19.8-3.14,29.7,0,.172.056.289.202.289.367v13.311h-30.277v-13.311c0-.165.117-.311.289-.367Z"/>
          <path class="cls-3" d="m150.423,149.412c0-1.196.984-2.173,2.197-2.173s2.198.977,2.198,2.173c0,1.205-.985,2.177-2.198,2.177s-2.197-.971-2.197-2.177Z"/>
        </g>
        <g>
          <path class="cls-11" d="m151.532,151.968c0-.567.488-1.029,1.09-1.029h0c.602,0,1.089.462,1.089,1.029v3.641c0,.567-.487,1.029-1.089,1.029h0c-.602,0-1.09-.462-1.09-1.029v-3.641Z"/>
          <path class="cls-11" d="m151.654,152.094c0-.53.433-.957.968-.957h0c.534,0,.968.427.968.957v3.389c0,.53-.433.956-.968.956h0c-.536,0-.968-.427-.968-.956v-3.389Z"/>
          <path class="cls-11" d="m150.612,157.469c0-1.131.926-2.044,2.068-2.044s2.068.913,2.068,2.044-.925,2.047-2.068,2.047-2.068-.917-2.068-2.047Z"/>
          <path class="cls-11" d="m151.24,157.469c0-.786.645-1.426,1.441-1.426s1.442.64,1.442,1.426c0,.79-.646,1.426-1.442,1.426s-1.441-.636-1.441-1.426Z"/>
        </g>
      </g>
    </g>
  </g>
</svg>