<?xml version="1.0" encoding="UTF-8"?>
<svg xmlns="http://www.w3.org/2000/svg" xmlns:xlink="http://www.w3.org/1999/xlink" viewBox="0 0 495.565 308">
  <defs>
    <style>
      .cls-1 {
        fill: #8c6239;
      }

      .cls-2 {
        fill: #555;
      }

      .cls-3 {
        fill: #e2454a;
      }

      .cls-4, .cls-5 {
        fill: #fff;
      }

      .cls-6, .cls-7 {
        fill: #ddd3cc;
        mix-blend-mode: multiply;
      }

      .cls-8, .cls-5, .cls-9, .cls-7, .cls-10 {
        fill-rule: evenodd;
      }

      .cls-8, .cls-11 {
        fill: #b3b6ba;
      }

      .cls-12 {
        fill: url(#Sky-4);
      }

      .cls-13 {
        fill: url(#Sky-3);
      }

      .cls-13, .cls-14, .cls-15 {
        stroke: blue;
        stroke-miterlimit: 10;
        stroke-width: .25px;
      }

      .cls-16 {
        isolation: isolate;
      }

      .cls-17 {
        fill: #e5576f;
      }

      .cls-18 {
        opacity: .39;
      }

      .cls-14 {
        fill: url(#Sky-2);
      }

      .cls-9 {
        fill: #d2d6d8;
      }

      .cls-15 {
        fill: url(#Sky);
      }

      .cls-19 {
        fill: #ff7bac;
        opacity: .38;
      }

      .cls-10, .cls-20 {
        fill: #e3e7e8;
      }

      .cls-21 {
        clip-path: url(#clippath);
      }

      .cls-22 {
        fill: none;
      }

      .cls-23 {
        opacity: .17;
      }

      .cls-24 {
        fill: #888;
      }

      .cls-25 {
        opacity: .27;
      }
    </style>
    <clipPath id="clippath">
      <rect class="cls-22" x="9.733" y="0" width="329.267" height="308"/>
    </clipPath>
    <linearGradient id="Sky" x1="257.872" y1="157.917" x2="257.872" y2="84.273" gradientTransform="translate(394.571 -173.938) rotate(90)" gradientUnits="userSpaceOnUse">
      <stop offset="0" stop-color="#cce0f4"/>
      <stop offset=".064" stop-color="#c2dcf2"/>
      <stop offset=".171" stop-color="#a9d2ee"/>
      <stop offset=".307" stop-color="#7fc2e7"/>
      <stop offset=".465" stop-color="#46abdd"/>
      <stop offset=".567" stop-color="#1e9cd7"/>
      <stop offset=".865" stop-color="#0075be"/>
      <stop offset=".994" stop-color="#005b97"/>
    </linearGradient>
    <linearGradient id="Sky-2" data-name="Sky" x1="257.872" y1="148.476" x2="257.872" y2="93.721" xlink:href="#Sky"/>
    <linearGradient id="Sky-3" data-name="Sky" x1="206.636" y1="159.437" x2="221.49" y2="159.437" gradientTransform="translate(75.5 -75.5)" xlink:href="#Sky"/>
    <linearGradient id="Sky-4" data-name="Sky" x1="98.063" y1="296.267" x2="163.171" y2="296.267" gradientTransform="translate(75.5 -75.5)" xlink:href="#Sky"/>
  </defs>
  <g class="cls-16">
    <g id="Layer_1" data-name="Layer 1">
      <g class="cls-21">
        <g class="cls-25">
          <rect class="cls-19" x="14.685" y="101.325" width="241.328" height="202.387"/>
          <path class="cls-19" d="m14.833,51.141v1.129s0,49.171,0,49.171v1.125s0,49.184,0,49.184v1.114s0,49.173,0,49.173v1.125s0,49.173,0,49.173v1.131s0,50.299,0,50.299h79.799s1.803,0,1.803,0h77.983s1.803,0,1.803,0h79.793s0-50.299,0-50.299v-1.131s0-49.173,0-49.173v-1.125s0-49.173,0-49.173v-1.114s0-49.184,0-49.184v-1.125s0-49.171,0-49.171v-1.129s0-50.292,0-50.292h-79.793s-1.803,0-1.803,0h-77.983s-1.803,0-1.803,0H14.833s0,50.292,0,50.292Zm159.585,201.196h-77.983v-49.163h77.983v49.163Zm0-50.307h-77.983v-49.155h77.983v49.155Zm0-50.29h-77.983v-49.163h77.983v49.163Zm0-50.307h-77.983v-49.163h77.983v49.163ZM16.63,52.27h78.002v49.163H16.63v-49.163Zm0,50.307h78.002v49.163H16.63v-49.163Zm0,50.299h78.002v49.155H16.63v-49.155Zm0,50.299h78.002v49.163H16.63v-49.163Zm0,99.462v-49.167h78.002v49.167H16.63Zm79.805,0v-49.167h77.983v49.167h-77.983Zm157.789,0h-78.003v-49.167h78.003v49.167Zm0-50.299h-78.003v-49.163h78.003v49.163Zm0-50.307h-78.003v-49.155h78.003v49.155Zm0-50.29h-78.003v-49.163h78.003v49.163Zm0-50.307h-78.003v-49.163h78.003v49.163Zm0-99.455v49.163h-78.003V1.978h78.003Zm-79.806,0v49.163h-77.983V1.978h77.983Zm-79.786,49.163H16.63V1.978h78.002v49.163Z"/>
          <rect class="cls-19" x="254.224" y=".798" width="241.341" height="302.914"/>
          <path class="cls-19" d="m254.371,51.141v1.129s0,49.171,0,49.171v1.125s0,49.184,0,49.184v1.114s0,49.173,0,49.173v1.125s0,49.173,0,49.173v1.131s0,50.299,0,50.299h79.806s1.79,0,1.79,0h77.996s1.796,0,1.796,0h79.806s0-50.299,0-50.299v-1.131s0-49.173,0-49.173v-1.125s0-49.173,0-49.173v-1.114s0-49.184,0-49.184v-1.125s0-49.171,0-49.171v-1.129s0-50.292,0-50.292h-79.806s-1.796,0-1.796,0h-77.996s-1.79,0-1.79,0h-79.806s0,50.292,0,50.292Zm159.592,201.196h-77.996v-49.163h77.996v49.163Zm0-50.307h-77.996v-49.155h77.996v49.155Zm0-50.29h-77.996v-49.163h77.996v49.163Zm0-50.307h-77.996v-49.163h77.996v49.163Zm-157.795-49.163h78.009v49.163h-78.009v-49.163Zm0,50.307h78.009v49.163h-78.009v-49.163Zm0,50.299h78.009v49.155h-78.009v-49.155Zm0,50.299h78.009v49.163h-78.009v-49.163Zm0,99.462v-49.167h78.009v49.167h-78.009Zm79.799,0v-49.167h77.996v49.167h-77.996Zm157.795,0h-78.002v-49.167h78.002v49.167Zm0-50.299h-78.002v-49.163h78.002v49.163Zm0-50.307h-78.002v-49.155h78.002v49.155Zm0-50.29h-78.002v-49.163h78.002v49.163Zm0-50.307h-78.002v-49.163h78.002v49.163Zm0-99.455v49.163h-78.002V1.978h78.002Zm-79.799,0v49.163h-77.996V1.978h77.996Zm-79.786,49.163h-78.009V1.978h78.009v49.163Z"/>
        </g>
      </g>
      <path class="cls-7" d="m34.502,190.734v82.592c0,9.355,1.687,10.923,11.755,10.923h105.37c10.061,0,11.768-1.568,11.768-10.923v-82.592c0-9.352-1.707-10.92-11.768-10.92H46.256c-10.067,0-11.755,1.568-11.755,10.92Z"/>
      <path class="cls-7" d="m29.049,195.802v82.592c0,9.355,1.687,10.923,11.755,10.923h105.376c10.061,0,11.761-1.568,11.761-10.923v-82.592c0-9.352-1.7-10.92-11.761-10.92H40.804c-10.067,0-11.755,1.568-11.755,10.92Z"/>
      <path class="cls-6" d="m183.227,211.121l-3.528,40.941c0,3.786,2.563,7.031,6.162,8.346-4.685,2.812-7.818,7.678-7.818,13.211,0,.618.122,1.206.198,1.805-.07.603-.198,1.187-.198,1.805v11.187s0,.22,0,.22v.249c0,1.35,1.183,2.446,2.634,2.446h.275s71.615,0,71.615,0h.268c1.451,0,2.633-1.096,2.633-2.446v-.249s0-.22,0-.22v-11.187c0-.618-.128-1.206-.204-1.805.077-.6.204-1.187.204-1.805,0-5.534-3.132-10.4-7.81-13.211,3.592-1.315,6.162-4.56,6.162-8.346l-3.534-40.941c-2.045-18.992-13.142-31.15-33.526-31.15-20.39,0-31.41,12.158-33.532,31.15Z"/>
      <path class="cls-6" d="m178.044,213.654l-3.534,40.941c0,3.786,2.57,7.031,6.162,8.346-4.679,2.812-7.81,7.678-7.81,13.211,0,.618.128,1.206.198,1.805-.07.603-.198,1.187-.198,1.805v11.187s0,.22,0,.22v.249c0,1.35,1.182,2.446,2.633,2.446h.268s71.621,0,71.621,0h.268c1.451,0,2.634-1.096,2.634-2.446v-.249s0-.22,0-.22v-11.187c0-.618-.128-1.206-.198-1.805.07-.6.198-1.187.198-1.805,0-5.534-3.133-10.4-7.811-13.211,3.592-1.315,6.162-4.56,6.162-8.346l-3.534-40.941c-2.045-18.992-13.142-31.15-33.526-31.15-20.39,0-31.41,12.158-33.532,31.15Z"/>
      <path class="cls-7" d="m270.266,264.966c-2.551,1.122-4.327,3.479-4.327,6.262s1.776,5.139,4.327,6.264v12.805s8.718,0,8.718,0h40.282s0-130.603,0-130.603h-40.282s-8.718,0-8.718,0v105.272Z"/>
      <path class="cls-7" d="m276.811,268.006c-2.551,1.122-4.327,3.479-4.327,6.262,0,2.779,1.776,5.139,4.327,6.264v12.805s8.718,0,8.718,0h40.282s0-130.603,0-130.603h-40.282s-8.718,0-8.718,0v105.272Z"/>
      <g>
        <path class="cls-20" d="m277.942,276.8c0-3.86,3.356-6.983,7.555-6.983,4.123,0,7.492,3.123,7.492,6.983,0,3.854-3.369,6.989-7.492,6.989-4.199,0-7.555-3.135-7.555-6.989Z"/>
        <g>
          <rect class="cls-20" x="282.263" y="165.266" width="49" height="130.603"/>
          <rect class="cls-17" x="290.982" y="165.266" width="40.282" height="130.603"/>
        </g>
      </g>
      <path class="cls-6" d="m235.258,16.799c-16.734,44.21-16.734,80.942,0,125.149.281.769,2.358,5.026,5.97,5.026h75.373c5.05,0,6.072-4.593,6.072-5.644V17.42c0-1.054-1.016-5.641-6.072-5.641h-75.373c-3.656,0-5.689,4.255-5.97,5.021Z"/>
      <path class="cls-6" d="m239.758,18.32c-16.734,44.21-16.734,80.942,0,125.149.281.769,2.358,5.026,5.97,5.026h75.373c5.05,0,6.072-4.593,6.072-5.644V18.94c0-1.054-1.016-5.641-6.072-5.641h-75.373c-3.656,0-5.689,4.255-5.97,5.021Z"/>
      <g>
        <path class="cls-4" d="m242.352,146.509c-16.734-44.208-16.734-80.939,0-125.149.281-.765,2.314-5.021,5.971-5.021h75.373c5.05,0,6.072,4.587,6.072,5.641v123.911c0,1.051-1.029,5.644-6.072,5.644h-75.373c-3.618,0-5.689-4.257-5.971-5.026Z"/>
        <g class="cls-18">
          <path class="cls-15" d="m247.479,137.418c-14.432-38.147-14.432-68.816,0-106.964.249-.662,1.719-4.851,5.702-4.851h57.118v116.664h-57.118c-3.483,0-5.452-4.186-5.702-4.848Z"/>
          <path class="cls-14" d="m254.139,130.53c-10.725-31.061-10.725-62.128,0-93.191.192-.541.691-.906,1.253-.906h45.459v95.002h-45.459c-.562,0-1.061-.368-1.253-.905Z"/>
          <path class="cls-13" d="m289.557,90.833c-4.085,0-7.421-3.088-7.421-6.894,0-3.806,3.336-6.897,7.421-6.897,4.116,0,7.433,3.091,7.433,6.897,0,3.806-3.317,6.894-7.433,6.894Z"/>
        </g>
        <g>
          <path class="cls-1" d="m298.288,87.353c-1.937,0-3.515-1.532-3.515-3.42h0c0-1.888,1.579-3.417,3.515-3.417h12.433c1.937,0,3.515,1.529,3.515,3.417h0c0,1.889-1.579,3.42-3.515,3.42h-12.433Z"/>
          <path class="cls-1" d="m298.716,86.97c-1.809,0-3.267-1.357-3.267-3.038h0c0-1.677,1.458-3.037,3.267-3.037h11.575c1.809,0,3.266,1.36,3.266,3.037h0c0,1.681-1.457,3.038-3.266,3.038h-11.575Z"/>
          <path class="cls-1" d="m317.074,90.239c-3.861,0-6.98-2.907-6.98-6.49,0-3.587,3.119-6.49,6.98-6.49s6.992,2.903,6.992,6.49c0,3.583-3.132,6.49-6.992,6.49Z"/>
          <path class="cls-1" d="m317.074,88.27c-2.685,0-4.871-2.025-4.871-4.521,0-2.497,2.186-4.525,4.871-4.525s4.87,2.028,4.87,4.525c0,2.497-2.173,4.521-4.87,4.521Z"/>
        </g>
      </g>
      <g>
        <g>
          <rect class="cls-3" x="1.068" y="152.638" width="12.189" height="11.318"/>
          <path class="cls-3" d="m14.318,151.64v13.301H0v-13.301h14.318Zm-2.142,11.323v-9.341s-10.048,0-10.048,0v9.341s10.048,0,10.048,0Z"/>
        </g>
        <g>
          <rect class="cls-3" x="1.068" y="10.812" width="12.189" height="11.321"/>
          <path class="cls-3" d="m14.318,9.827v13.295S0,23.127,0,23.127v-13.301h14.318Zm-2.142,11.318v-9.341s-10.048,0-10.048,0v9.346s10.048-.005,10.048-.005Z"/>
        </g>
        <g>
          <path class="cls-3" d="m140.423,43.672c-4.832,27.576-19.546,53.464-41.426,72.911-23.81,21.157-53.864,32.92-86.936,34.024l-.026-.653c71.998-2.411,118.736-55.34,127.685-106.388l.703.106Z"/>
          <polygon class="cls-3" points="141.331 34.077 133.559 46.832 139.924 44.344 145.396 48.239 141.331 34.077"/>
        </g>
        <g>
          <path class="cls-3" d="m142.737,26.399H7.779s0,5.404,0,5.404h134.958s0-5.404,0-5.404Z"/>
          <path class="cls-3" d="m144.514,24.748v8.699H6.008v-8.699h138.506Zm-3.554,5.41v-2.114s-131.404,0-131.404,0v2.114s131.404,0,131.404,0Z"/>
        </g>
      </g>
      <polygon class="cls-7" points="290.202 294.759 331.263 165.266 330.292 295.142 290.202 294.759"/>
      <g>
        <path class="cls-4" d="m178.734,265.607h54.779c5.318,0,9.671-4.047,9.671-8.984l-3.534-40.941c-2.045-18.992-13.142-31.15-33.526-31.15h0c-20.39,0-31.41,12.158-33.532,31.15l-3.528,40.941c0,4.937,4.346,8.984,9.671,8.984Z"/>
        <g class="cls-23">
          <path class="cls-12" d="m238.671,252.389l-3.521-36.283c-2.838-16.753-11.122-26.96-29.026-26.96h0c-17.91,0-27.217,10.617-29.032,26.96l-3.528,36.283h65.107Z"/>
        </g>
        <path class="cls-11" d="m184.372,293.936h43.497c9.326,0,16.963-7.087,16.963-15.756h0c0-8.663-7.638-15.753-16.963-15.753h-43.497c-9.326,0-16.964,7.09-16.964,15.753h0c0,8.669,7.638,15.756,16.964,15.756Z"/>
        <path class="cls-4" d="m167.851,265.141h76.538c.245,0,.443.199.443.443v27.57c0,1.511-1.227,2.738-2.738,2.738h-71.948c-1.511,0-2.738-1.227-2.738-2.738v-27.57c0-.245.199-.443.443-.443Z" transform="translate(412.24 561.034) rotate(-180)"/>
        <path class="cls-24" d="m170.041,295.893h72.158c1.451,0,2.633-1.096,2.633-2.446v-.469c0,1.348-1.182,2.444-2.633,2.444h-72.158c-1.451,0-2.634-1.096-2.634-2.444v.469c0,1.35,1.183,2.446,2.634,2.446Z"/>
        <path class="cls-2" d="m201.969,280.514c0-2.126,1.86-3.848,4.155-3.848,2.288,0,4.142,1.722,4.142,3.848,0,2.132-1.854,3.854-4.142,3.854-2.295,0-4.155-1.722-4.155-3.854Z"/>
      </g>
      <g>
        <path class="cls-9" d="m33.709,191.467h105.37c10.061,0,11.768,1.568,11.768,10.92v82.592c0,9.355-1.707,10.923-11.768,10.923H33.709c-10.067,0-11.755-1.568-11.755-10.923v-82.592c0-9.352,1.687-10.92,11.755-10.92Z"/>
        <path class="cls-8" d="m33.709,193.777c-8.693,0-9.268.538-9.268,8.61v82.592c0,8.075.575,8.613,9.268,8.613h105.37c8.693,0,9.268-.534,9.268-8.613v-82.592c0-8.072-.575-8.61-9.268-8.61H33.709Z"/>
        <path class="cls-5" d="m33.709,196.051c-7.344,0-6.82-.481-6.82,6.336v82.592c0,6.82-.524,6.336,6.82,6.336h105.37c7.344,0,6.833.487,6.833-6.336v-82.592c0-6.82.511-6.336-6.833-6.336H33.709Z"/>
        <path class="cls-10" d="m26.889,283.878v1.102c0,6.82-.524,6.336,6.82,6.336h105.37c7.344,0,6.833.487,6.833-6.336v-82.592c0-4.997.243-6.063-2.506-6.282-26.245,19.897-88.95,67.374-116.518,87.773Z"/>
      </g>
    </g>
  </g>
</svg>