<?xml version="1.0" encoding="UTF-8"?>
<svg xmlns="http://www.w3.org/2000/svg" viewBox="0 0 1972.04 2000.95">
  <defs>
    <style>
      .cls-1 {
        fill: #fff;
      }

      .cls-2 {
        fill: #a7a9ac;
      }

      .cls-3 {
        fill: #939598;
      }

      .cls-4 {
        fill: #9b8579;
      }

      .cls-5, .cls-6 {
        opacity: .2;
      }

      .cls-7 {
        fill: #5cb1bf;
      }

      .cls-8 {
        fill: #f1f2f2;
      }

      .cls-6, .cls-9 {
        fill: #231f20;
      }

      .cls-10 {
        fill: #acd6e2;
      }

      .cls-11 {
        opacity: .1;
      }

      .cls-12 {
        fill: #d1d3d4;
      }

      .cls-13 {
        fill: #e6e7e8;
      }

      .cls-14 {
        fill: #bcbec0;
      }

      .cls-15 {
        fill: #58595b;
      }
    </style>
  </defs>
  <g id="Layer_2" data-name="Layer 2">
    <g>
      <g>
        <rect class="cls-10" x="73.99" y="1748.71" width="261.39" height="249.41" transform="translate(409.37 3746.82) rotate(-180)"/>
        <path class="cls-2" d="m71.02,1745.87h267.33v255.08H71.02v-255.08Zm261.39,5.67H76.96s0,243.74,0,243.74h255.44s0-243.74,0-243.74Z"/>
      </g>
      <g>
        <rect class="cls-10" x="73.99" y="1499.3" width="261.39" height="249.41" transform="translate(409.37 3248) rotate(-180)"/>
        <path class="cls-2" d="m71.02,1496.46h267.33v255.08H71.02v-255.08Zm261.39,5.67H76.96s0,243.74,0,243.74h255.44s0-243.74,0-243.74Z"/>
      </g>
      <g>
        <rect class="cls-10" x="73.99" y="1249.89" width="261.39" height="249.41" transform="translate(409.37 2749.18) rotate(-180)"/>
        <path class="cls-2" d="m71.02,1247.05h267.33v255.08H71.02v-255.08Zm261.39,5.67H76.96s0,243.74,0,243.74h255.44s0-243.74,0-243.74Z"/>
      </g>
      <g>
        <rect class="cls-10" x="73.99" y="1000.48" width="261.39" height="249.41" transform="translate(409.37 2250.36) rotate(-180)"/>
        <path class="cls-2" d="m71.02,997.64h267.33v255.08H71.02v-255.08Zm261.39,5.67H76.96s0,243.74,0,243.74h255.44s0-243.74,0-243.74Z"/>
      </g>
      <g>
        <rect class="cls-10" x="73.99" y="751.07" width="261.39" height="249.41" transform="translate(409.37 1751.54) rotate(-180)"/>
        <path class="cls-2" d="m71.02,748.23h267.33v255.08H71.02v-255.08Zm261.39,5.67H76.96s0,243.74,0,243.74h255.44s0-243.74,0-243.74Z"/>
      </g>
      <g>
        <rect class="cls-10" x="73.99" y="501.66" width="261.39" height="249.41" transform="translate(409.37 1252.72) rotate(-180)"/>
        <path class="cls-2" d="m71.02,498.82h267.33v255.08H71.02v-255.08Zm261.39,5.67H76.96s0,243.74,0,243.74h255.44s0-243.74,0-243.74Z"/>
      </g>
      <g>
        <rect class="cls-10" x="73.99" y="252.25" width="261.39" height="249.41" transform="translate(409.37 753.9) rotate(-180)"/>
        <path class="cls-2" d="m71.02,249.41h267.33v255.08H71.02v-255.08Zm261.39,5.67H76.96s0,243.74,0,243.74h255.44s0-243.74,0-243.74Z"/>
      </g>
      <g>
        <rect class="cls-10" x="73.99" y="2.84" width="261.39" height="249.41" transform="translate(409.37 255.08) rotate(-180)"/>
        <path class="cls-2" d="m71.02,0h267.33v255.08H71.02V0Zm261.39,5.67H76.96s0,243.74,0,243.74h255.44s0-243.74,0-243.74Z"/>
      </g>
      <g>
        <rect class="cls-10" x="335.38" y="1748.71" width="261.39" height="249.41" transform="translate(932.15 3746.82) rotate(-180)"/>
        <path class="cls-2" d="m332.41,1745.87h267.34v255.08h-267.34v-255.08Zm261.39,5.67h-255.44s0,243.74,0,243.74h255.44s0-243.74,0-243.74Z"/>
      </g>
      <g>
        <rect class="cls-10" x="596.77" y="1748.71" width="261.39" height="249.41" transform="translate(1454.93 3746.82) rotate(-180)"/>
        <path class="cls-2" d="m593.8,1745.87h267.34v255.08h-267.34v-255.08Zm261.39,5.67h-255.44s0,243.74,0,243.74h255.44s0-243.74,0-243.74Z"/>
      </g>
      <g>
        <rect class="cls-10" x="858.16" y="1748.71" width="261.39" height="249.41" transform="translate(1977.71 3746.82) rotate(-180)"/>
        <path class="cls-2" d="m855.19,1745.87h267.34v255.08h-267.34v-255.08Zm261.39,5.67h-255.44s0,243.74,0,243.74h255.44s0-243.74,0-243.74Z"/>
      </g>
      <g>
        <rect class="cls-10" x="1119.55" y="1748.71" width="261.39" height="249.41" transform="translate(2500.49 3746.82) rotate(-180)"/>
        <path class="cls-2" d="m1116.58,1745.87h267.33v255.08h-267.33v-255.08Zm261.39,5.67h-255.44s0,243.74,0,243.74h255.44s0-243.74,0-243.74Z"/>
      </g>
      <g>
        <rect class="cls-10" x="1380.94" y="1748.71" width="261.39" height="249.41" transform="translate(3023.27 3746.82) rotate(-180)"/>
        <path class="cls-2" d="m1377.97,1745.87h267.34v255.08h-267.34v-255.08Zm261.39,5.67h-255.44s0,243.74,0,243.74h255.44s0-243.74,0-243.74Z"/>
      </g>
      <g>
        <rect class="cls-10" x="1642.33" y="1748.71" width="261.39" height="249.41" transform="translate(3546.05 3746.82) rotate(-180)"/>
        <path class="cls-2" d="m1639.36,1745.87h267.33v255.08h-267.33v-255.08Zm261.39,5.67h-255.44s0,243.74,0,243.74h255.44s0-243.74,0-243.74Z"/>
      </g>
      <g>
        <rect class="cls-10" x="1903.72" y="1748.71" width="65.35" height="249.41" transform="translate(3872.78 3746.82) rotate(-180)"/>
        <path class="cls-2" d="m1900.75,1745.87h71.29v255.08h-71.29v-255.08Zm65.35,5.67h-59.4s0,243.74,0,243.74h59.4s0-243.74,0-243.74Z"/>
      </g>
      <g>
        <rect class="cls-10" x="335.38" y="1499.3" width="261.39" height="249.41" transform="translate(932.15 3248) rotate(-180)"/>
        <path class="cls-2" d="m332.41,1496.46h267.34v255.08h-267.34v-255.08Zm261.39,5.67h-255.44s0,243.74,0,243.74h255.44s0-243.74,0-243.74Z"/>
      </g>
      <g>
        <rect class="cls-10" x="596.77" y="1499.3" width="261.39" height="249.41" transform="translate(1454.93 3248) rotate(-180)"/>
        <path class="cls-2" d="m593.8,1496.46h267.34v255.08h-267.34v-255.08Zm261.39,5.67h-255.44s0,243.74,0,243.74h255.44s0-243.74,0-243.74Z"/>
      </g>
      <g>
        <rect class="cls-10" x="858.16" y="1499.3" width="261.39" height="249.41" transform="translate(1977.71 3248) rotate(-180)"/>
        <path class="cls-2" d="m855.19,1496.46h267.34v255.08h-267.34v-255.08Zm261.39,5.67h-255.44s0,243.74,0,243.74h255.44s0-243.74,0-243.74Z"/>
      </g>
      <g>
        <rect class="cls-10" x="1119.55" y="1499.3" width="261.39" height="249.41" transform="translate(2500.49 3248) rotate(-180)"/>
        <path class="cls-2" d="m1116.58,1496.46h267.33v255.08h-267.33v-255.08Zm261.39,5.67h-255.44s0,243.74,0,243.74h255.44s0-243.74,0-243.74Z"/>
      </g>
      <g>
        <rect class="cls-10" x="1380.94" y="1499.3" width="261.39" height="249.41" transform="translate(3023.27 3248) rotate(-180)"/>
        <path class="cls-2" d="m1377.97,1496.46h267.34v255.08h-267.34v-255.08Zm261.39,5.67h-255.44s0,243.74,0,243.74h255.44s0-243.74,0-243.74Z"/>
      </g>
      <g>
        <rect class="cls-10" x="1642.33" y="1499.3" width="261.39" height="249.41" transform="translate(3546.05 3248) rotate(-180)"/>
        <path class="cls-2" d="m1639.36,1496.46h267.33v255.08h-267.33v-255.08Zm261.39,5.67h-255.44s0,243.74,0,243.74h255.44s0-243.74,0-243.74Z"/>
      </g>
      <g>
        <rect class="cls-10" x="1903.72" y="1499.3" width="65.35" height="249.41" transform="translate(3872.78 3248) rotate(-180)"/>
        <path class="cls-2" d="m1900.75,1496.46h71.29v255.08h-71.29v-255.08Zm65.35,5.67h-59.4s0,243.74,0,243.74h59.4s0-243.74,0-243.74Z"/>
      </g>
      <g>
        <rect class="cls-10" x="335.38" y="1249.89" width="261.39" height="249.41" transform="translate(932.15 2749.18) rotate(-180)"/>
        <path class="cls-2" d="m332.41,1247.05h267.34v255.08h-267.34v-255.08Zm261.39,5.67h-255.44s0,243.74,0,243.74h255.44s0-243.74,0-243.74Z"/>
      </g>
      <g>
        <rect class="cls-10" x="596.77" y="1249.89" width="261.39" height="249.41" transform="translate(1454.93 2749.18) rotate(-180)"/>
        <path class="cls-2" d="m593.8,1247.05h267.34v255.08h-267.34v-255.08Zm261.39,5.67h-255.44s0,243.74,0,243.74h255.44s0-243.74,0-243.74Z"/>
      </g>
      <g>
        <rect class="cls-10" x="858.16" y="1249.89" width="261.39" height="249.41" transform="translate(1977.71 2749.18) rotate(-180)"/>
        <path class="cls-2" d="m855.19,1247.05h267.34v255.08h-267.34v-255.08Zm261.39,5.67h-255.44s0,243.74,0,243.74h255.44s0-243.74,0-243.74Z"/>
      </g>
      <g>
        <rect class="cls-10" x="1119.55" y="1249.89" width="261.39" height="249.41" transform="translate(2500.49 2749.18) rotate(-180)"/>
        <path class="cls-2" d="m1116.58,1247.05h267.33v255.08h-267.33v-255.08Zm261.39,5.67h-255.44s0,243.74,0,243.74h255.44s0-243.74,0-243.74Z"/>
      </g>
      <g>
        <rect class="cls-10" x="1380.94" y="1249.89" width="261.39" height="249.41" transform="translate(3023.27 2749.18) rotate(-180)"/>
        <path class="cls-2" d="m1377.97,1247.05h267.34v255.08h-267.34v-255.08Zm261.39,5.67h-255.44s0,243.74,0,243.74h255.44s0-243.74,0-243.74Z"/>
      </g>
      <g>
        <rect class="cls-10" x="1642.33" y="1249.89" width="261.39" height="249.41" transform="translate(3546.05 2749.18) rotate(-180)"/>
        <path class="cls-2" d="m1639.36,1247.05h267.33v255.08h-267.33v-255.08Zm261.39,5.67h-255.44s0,243.74,0,243.74h255.44s0-243.74,0-243.74Z"/>
      </g>
      <g>
        <rect class="cls-10" x="1903.72" y="1249.89" width="65.35" height="249.41" transform="translate(3872.78 2749.18) rotate(-180)"/>
        <path class="cls-2" d="m1900.75,1247.05h71.29v255.08h-71.29v-255.08Zm65.35,5.67h-59.4s0,243.74,0,243.74h59.4s0-243.74,0-243.74Z"/>
      </g>
      <g>
        <rect class="cls-10" x="335.38" y="1000.48" width="261.39" height="249.41" transform="translate(932.15 2250.36) rotate(-180)"/>
        <path class="cls-2" d="m332.41,997.64h267.34v255.08h-267.34v-255.08Zm261.39,5.67h-255.44s0,243.74,0,243.74h255.44s0-243.74,0-243.74Z"/>
      </g>
      <g>
        <rect class="cls-10" x="596.77" y="1000.48" width="261.39" height="249.41" transform="translate(1454.93 2250.36) rotate(-180)"/>
        <path class="cls-2" d="m593.8,997.64h267.34v255.08h-267.34v-255.08Zm261.39,5.67h-255.44s0,243.74,0,243.74h255.44s0-243.74,0-243.74Z"/>
      </g>
      <g>
        <rect class="cls-10" x="858.16" y="1000.48" width="261.39" height="249.41" transform="translate(1977.71 2250.36) rotate(-180)"/>
        <path class="cls-2" d="m855.19,997.64h267.34v255.08h-267.34v-255.08Zm261.39,5.67h-255.44s0,243.74,0,243.74h255.44s0-243.74,0-243.74Z"/>
      </g>
      <g>
        <rect class="cls-10" x="1119.55" y="1000.48" width="261.39" height="249.41" transform="translate(2500.49 2250.36) rotate(-180)"/>
        <path class="cls-2" d="m1116.58,997.64h267.33v255.08h-267.33v-255.08Zm261.39,5.67h-255.44s0,243.74,0,243.74h255.44s0-243.74,0-243.74Z"/>
      </g>
      <g>
        <rect class="cls-10" x="1380.94" y="1000.48" width="261.39" height="249.41" transform="translate(3023.27 2250.36) rotate(-180)"/>
        <path class="cls-2" d="m1377.97,997.64h267.34v255.08h-267.34v-255.08Zm261.39,5.67h-255.44s0,243.74,0,243.74h255.44s0-243.74,0-243.74Z"/>
      </g>
      <g>
        <rect class="cls-10" x="1642.33" y="1000.48" width="261.39" height="249.41" transform="translate(3546.05 2250.36) rotate(-180)"/>
        <path class="cls-2" d="m1639.36,997.64h267.33v255.08h-267.33v-255.08Zm261.39,5.67h-255.44s0,243.74,0,243.74h255.44s0-243.74,0-243.74Z"/>
      </g>
      <g>
        <rect class="cls-10" x="1903.72" y="1000.48" width="65.35" height="249.41" transform="translate(3872.78 2250.36) rotate(-180)"/>
        <path class="cls-2" d="m1900.75,997.64h71.29v255.08h-71.29v-255.08Zm65.35,5.67h-59.4s0,243.74,0,243.74h59.4s0-243.74,0-243.74Z"/>
      </g>
      <g>
        <rect class="cls-10" x="335.38" y="751.07" width="261.39" height="249.41" transform="translate(932.15 1751.54) rotate(-180)"/>
        <path class="cls-2" d="m332.41,748.23h267.34v255.08h-267.34v-255.08Zm261.39,5.67h-255.44s0,243.74,0,243.74h255.44s0-243.74,0-243.74Z"/>
      </g>
      <g>
        <rect class="cls-10" x="596.77" y="751.07" width="261.39" height="249.41" transform="translate(1454.93 1751.54) rotate(-180)"/>
        <path class="cls-2" d="m593.8,748.23h267.34v255.08h-267.34v-255.08Zm261.39,5.67h-255.44s0,243.74,0,243.74h255.44s0-243.74,0-243.74Z"/>
      </g>
      <g>
        <rect class="cls-10" x="858.16" y="751.07" width="261.39" height="249.41" transform="translate(1977.71 1751.54) rotate(-180)"/>
        <path class="cls-2" d="m855.19,748.23h267.34v255.08h-267.34v-255.08Zm261.39,5.67h-255.44s0,243.74,0,243.74h255.44s0-243.74,0-243.74Z"/>
      </g>
      <g>
        <rect class="cls-10" x="1119.55" y="751.07" width="261.39" height="249.41" transform="translate(2500.49 1751.54) rotate(-180)"/>
        <path class="cls-2" d="m1116.58,748.23h267.33v255.08h-267.33v-255.08Zm261.39,5.67h-255.44s0,243.74,0,243.74h255.44s0-243.74,0-243.74Z"/>
      </g>
      <g>
        <rect class="cls-10" x="1380.94" y="751.07" width="261.39" height="249.41" transform="translate(3023.27 1751.54) rotate(-180)"/>
        <path class="cls-2" d="m1377.97,748.23h267.34v255.08h-267.34v-255.08Zm261.39,5.67h-255.44s0,243.74,0,243.74h255.44s0-243.74,0-243.74Z"/>
      </g>
      <g>
        <rect class="cls-10" x="1642.33" y="751.07" width="261.39" height="249.41" transform="translate(3546.05 1751.54) rotate(-180)"/>
        <path class="cls-2" d="m1639.36,748.23h267.33v255.08h-267.33v-255.08Zm261.39,5.67h-255.44s0,243.74,0,243.74h255.44s0-243.74,0-243.74Z"/>
      </g>
      <g>
        <rect class="cls-10" x="1903.72" y="751.07" width="65.35" height="249.41" transform="translate(3872.78 1751.54) rotate(-180)"/>
        <path class="cls-2" d="m1900.75,748.23h71.29v255.08h-71.29v-255.08Zm65.35,5.67h-59.4s0,243.74,0,243.74h59.4s0-243.74,0-243.74Z"/>
      </g>
      <g>
        <rect class="cls-10" x="335.38" y="501.66" width="261.39" height="249.41" transform="translate(932.15 1252.72) rotate(-180)"/>
        <path class="cls-2" d="m332.41,498.82h267.34v255.08h-267.34v-255.08Zm261.39,5.67h-255.44s0,243.74,0,243.74h255.44s0-243.74,0-243.74Z"/>
      </g>
      <g>
        <rect class="cls-10" x="596.77" y="501.66" width="261.39" height="249.41" transform="translate(1454.93 1252.72) rotate(-180)"/>
        <path class="cls-2" d="m593.8,498.82h267.34v255.08h-267.34v-255.08Zm261.39,5.67h-255.44s0,243.74,0,243.74h255.44s0-243.74,0-243.74Z"/>
      </g>
      <g>
        <rect class="cls-10" x="858.16" y="501.66" width="261.39" height="249.41" transform="translate(1977.71 1252.72) rotate(-180)"/>
        <path class="cls-2" d="m855.19,498.82h267.34v255.08h-267.34v-255.08Zm261.39,5.67h-255.44s0,243.74,0,243.74h255.44s0-243.74,0-243.74Z"/>
      </g>
      <g>
        <rect class="cls-10" x="1119.55" y="501.66" width="261.39" height="249.41" transform="translate(2500.49 1252.72) rotate(-180)"/>
        <path class="cls-2" d="m1116.58,498.82h267.33v255.08h-267.33v-255.08Zm261.39,5.67h-255.44s0,243.74,0,243.74h255.44s0-243.74,0-243.74Z"/>
      </g>
      <g>
        <rect class="cls-10" x="1380.94" y="501.66" width="261.39" height="249.41" transform="translate(3023.27 1252.72) rotate(-180)"/>
        <path class="cls-2" d="m1377.97,498.82h267.34v255.08h-267.34v-255.08Zm261.39,5.67h-255.44s0,243.74,0,243.74h255.44s0-243.74,0-243.74Z"/>
      </g>
      <g>
        <rect class="cls-10" x="1642.33" y="501.66" width="261.39" height="249.41" transform="translate(3546.05 1252.72) rotate(-180)"/>
        <path class="cls-2" d="m1639.36,498.82h267.33v255.08h-267.33v-255.08Zm261.39,5.67h-255.44s0,243.74,0,243.74h255.44s0-243.74,0-243.74Z"/>
      </g>
      <g>
        <rect class="cls-10" x="1903.72" y="501.66" width="65.35" height="249.41" transform="translate(3872.78 1252.72) rotate(-180)"/>
        <path class="cls-2" d="m1900.75,498.82h71.29v255.08h-71.29v-255.08Zm65.35,5.67h-59.4s0,243.74,0,243.74h59.4s0-243.74,0-243.74Z"/>
      </g>
      <g>
        <rect class="cls-10" x="335.38" y="252.25" width="261.39" height="249.41" transform="translate(932.15 753.9) rotate(-180)"/>
        <path class="cls-2" d="m332.41,249.41h267.34v255.08h-267.34v-255.08Zm261.39,5.67h-255.44s0,243.74,0,243.74h255.44s0-243.74,0-243.74Z"/>
      </g>
      <g>
        <rect class="cls-10" x="596.77" y="252.25" width="261.39" height="249.41" transform="translate(1454.93 753.9) rotate(-180)"/>
        <path class="cls-2" d="m593.8,249.41h267.34v255.08h-267.34v-255.08Zm261.39,5.67h-255.44s0,243.74,0,243.74h255.44s0-243.74,0-243.74Z"/>
      </g>
      <g>
        <rect class="cls-10" x="858.16" y="252.25" width="261.39" height="249.41" transform="translate(1977.71 753.9) rotate(-180)"/>
        <path class="cls-2" d="m855.19,249.41h267.34v255.08h-267.34v-255.08Zm261.39,5.67h-255.44s0,243.74,0,243.74h255.44s0-243.74,0-243.74Z"/>
      </g>
      <g>
        <rect class="cls-10" x="1119.55" y="252.25" width="261.39" height="249.41" transform="translate(2500.49 753.9) rotate(-180)"/>
        <path class="cls-2" d="m1116.58,249.41h267.33v255.08h-267.33v-255.08Zm261.39,5.67h-255.44s0,243.74,0,243.74h255.44s0-243.74,0-243.74Z"/>
      </g>
      <g>
        <rect class="cls-10" x="1380.94" y="252.25" width="261.39" height="249.41" transform="translate(3023.27 753.9) rotate(-180)"/>
        <path class="cls-2" d="m1377.97,249.41h267.34v255.08h-267.34v-255.08Zm261.39,5.67h-255.44s0,243.74,0,243.74h255.44s0-243.74,0-243.74Z"/>
      </g>
      <g>
        <rect class="cls-10" x="1642.33" y="252.25" width="261.39" height="249.41" transform="translate(3546.05 753.9) rotate(-180)"/>
        <path class="cls-2" d="m1639.36,249.41h267.33v255.08h-267.33v-255.08Zm261.39,5.67h-255.44s0,243.74,0,243.74h255.44s0-243.74,0-243.74Z"/>
      </g>
      <g>
        <rect class="cls-10" x="1903.72" y="252.25" width="65.35" height="249.41" transform="translate(3872.78 753.9) rotate(-180)"/>
        <path class="cls-2" d="m1900.75,249.41h71.29v255.08h-71.29v-255.08Zm65.35,5.67h-59.4s0,243.74,0,243.74h59.4s0-243.74,0-243.74Z"/>
      </g>
      <g>
        <rect class="cls-10" x="335.38" y="2.84" width="261.39" height="249.41" transform="translate(932.15 255.08) rotate(-180)"/>
        <path class="cls-2" d="m332.41,0h267.34v255.08h-267.34V0Zm261.39,5.67h-255.44s0,243.74,0,243.74h255.44s0-243.74,0-243.74Z"/>
      </g>
      <g>
        <rect class="cls-10" x="596.77" y="2.84" width="261.39" height="249.41" transform="translate(1454.93 255.08) rotate(-180)"/>
        <path class="cls-2" d="m593.8,0h267.34v255.08h-267.34V0Zm261.39,5.67h-255.44s0,243.74,0,243.74h255.44s0-243.74,0-243.74Z"/>
      </g>
      <g>
        <rect class="cls-10" x="858.16" y="2.84" width="261.39" height="249.41" transform="translate(1977.71 255.08) rotate(-180)"/>
        <path class="cls-2" d="m855.19,0h267.34v255.08h-267.34V0Zm261.39,5.67h-255.44s0,243.74,0,243.74h255.44s0-243.74,0-243.74Z"/>
      </g>
      <g>
        <rect class="cls-10" x="1119.55" y="2.84" width="261.39" height="249.41" transform="translate(2500.49 255.08) rotate(-180)"/>
        <path class="cls-2" d="m1116.58,0h267.33v255.08h-267.33V0Zm261.39,5.67h-255.44s0,243.74,0,243.74h255.44s0-243.74,0-243.74Z"/>
      </g>
      <g>
        <rect class="cls-10" x="1380.94" y="2.84" width="261.39" height="249.41" transform="translate(3023.27 255.08) rotate(-180)"/>
        <path class="cls-2" d="m1377.97,0h267.34v255.08h-267.34V0Zm261.39,5.67h-255.44s0,243.74,0,243.74h255.44s0-243.74,0-243.74Z"/>
      </g>
      <g>
        <rect class="cls-10" x="1642.33" y="2.84" width="261.39" height="249.41" transform="translate(3546.05 255.08) rotate(-180)"/>
        <path class="cls-2" d="m1639.36,0h267.33v255.08h-267.33V0Zm261.39,5.67h-255.44s0,243.74,0,243.74h255.44s0-243.74,0-243.74Z"/>
      </g>
      <g>
        <rect class="cls-10" x="1903.72" y="2.84" width="65.35" height="249.41" transform="translate(3872.78 255.08) rotate(-180)"/>
        <path class="cls-2" d="m1900.75,0h71.29v255.08h-71.29V0Zm65.35,5.67h-59.4s0,243.74,0,243.74h59.4s0-243.74,0-243.74Z"/>
      </g>
    </g>
  </g>
  <g id="Layer_1" data-name="Layer 1">
    <g>
      <g class="cls-5">
        <g id="LWPOLYLINE">
          <polygon class="cls-9" points="112.35 1802.78 72.22 1802.78 72.22 1791.14 12.04 1791.14 12.04 1849.33 112.35 1849.33 112.35 1802.78 112.35 1802.78"/>
        </g>
        <g id="LWPOLYLINE-2" data-name="LWPOLYLINE">
          <polygon class="cls-9" points="112.35 964.84 72.22 964.84 72.22 976.48 12.04 976.48 12.04 918.29 112.35 918.29 112.35 964.84 112.35 964.84"/>
        </g>
        <g id="LWPOLYLINE-3" data-name="LWPOLYLINE">
          <rect class="cls-9" x="112.35" y="1756.23" width="722.19" height="46.55"/>
        </g>
      </g>
      <g id="ARC">
        <path class="cls-2" d="m100.31,976.52c25.13,0,50.46,1.51,75.3,4.48l-.47,5.27c-24.69-2.96-49.86-4.46-74.83-4.46v-5.29Zm100.26,7.98c24.84,3.99,49.76,9.54,74.05,16.51l-1.1,5.14c-24.14-6.92-48.9-12.44-73.58-16.4l.62-5.24Zm98.36,24c24.1,7.95,48.11,17.49,71.37,28.33l-1.7,4.91c-23.11-10.77-46.97-20.25-70.92-28.15l1.25-5.09Zm94.59,39.71c22.9,11.77,45.53,25.09,67.27,39.59l-2.27,4.59c-21.6-14.41-44.09-27.64-66.84-39.34l1.85-4.84Zm88.88,54.59c21.26,15.34,42.09,32.17,61.89,50.02l-2.8,4.18c-19.68-17.73-40.37-34.46-61.5-49.7l2.41-4.5Zm81.49,68.32c19.24,18.61,37.86,38.6,55.35,59.43l-3.27,3.69c-17.38-20.7-35.89-40.57-55.01-59.06l2.92-4.07Zm72.59,80.67c16.86,21.52,32.94,44.29,47.77,67.7l-3.68,3.14c-14.75-23.26-30.72-45.89-47.48-67.28l3.38-3.56Zm62.31,91.47c14.15,24.01,27.36,49.14,39.26,74.69l-4.01,2.52c-11.83-25.39-24.95-50.36-39.01-74.22l3.77-2.99Zm50.81,100.54c11.15,26.06,21.23,53.08,29.96,80.3l-4.28,1.85c-8.67-27.06-18.69-53.9-29.77-79.8l4.09-2.35Zm38.31,107.83c7.9,27.58,14.64,55.96,20.01,84.36l-4.46,1.14c-5.34-28.22-12.03-56.42-19.89-83.83l4.33-1.67Zm24.98,112.96c4.51,28.54,7.78,57.73,9.71,86.76l-4.55.41c-1.92-28.85-5.17-57.86-9.65-86.21l4.49-.95Zm11.22,115.89c.45,12.12.67,24.45.67,36.62h-4.56c0-12.1-.23-24.34-.67-36.39l4.56-.23Z"/>
      </g>
      <g id="LWPOLYLINE-4" data-name="LWPOLYLINE">
        <polygon class="cls-4" points="100.31 1817.1 60.18 1817.1 60.18 1805.47 0 1805.47 0 1863.66 100.31 1863.66 100.31 1817.1 100.31 1817.1"/>
      </g>
      <g id="LWPOLYLINE-5" data-name="LWPOLYLINE">
        <polygon class="cls-4" points="100.31 979.16 60.18 979.16 60.18 990.8 0 990.8 0 932.61 100.31 932.61 100.31 979.16 100.31 979.16"/>
      </g>
      <g id="LWPOLYLINE-6" data-name="LWPOLYLINE">
        <rect class="cls-4" x="100.31" y="1770.55" width="722.19" height="46.55"/>
      </g>
    </g>
    <g>
      <path class="cls-6" d="m1838.37,693.59h-185.28s185.28,0,185.28,0Z"/>
      <path class="cls-6" d="m1838.37,690.59v3s0-3,0-3Z"/>
      <polygon class="cls-6" points="1838.37 693.59 1653.09 693.59 1647.34 701.25 1643.64 704.62 1636.96 708.93 1629.76 711.8 1621.71 713.3 1614.66 713.31 1069 706.62 1041 704.59 1023.93 700.76 1012.92 697.16 997.76 690.59 984.89 683.34 972.79 674.82 961.43 664.96 951.84 654.76 942.84 642.99 935.44 630.91 928.47 616.07 924.11 603.31 921.2 591.06 921.2 374.5 924.38 361.33 928.49 349.46 936.53 332.69 943.04 322.28 953.24 309.19 961.75 300.3 972.79 290.74 983.27 283.25 999.87 273.93 1011.47 268.94 1027.51 263.83 1039.78 261.18 1054.99 259.31 1069 258.93 1614.66 252.25 1623.34 252.43 1628.98 253.54 1636.96 256.63 1643.42 260.76 1649.02 266.15 1653.09 271.97 1838.37 271.97 1838.37 693.59 1838.37 693.59 1838.37 693.59"/>
      <polygon class="cls-6" points="1614.66 713.31 1613.98 713.3 1621.71 713.3 1614.66 713.31"/>
      <polygon class="cls-6" points="1621.71 713.3 1613.98 713.3 1491.11 711.8 1621.71 713.3"/>
      <path class="cls-6" d="m1004.68,693.59l-6.92-3,6.92,3Z"/>
      <path class="cls-6" d="m997.76,690.59l-12.87-7.25,12.87,7.25Z"/>
      <path class="cls-6" d="m984.89,683.34l-12.1-8.51,12.1,8.51Z"/>
      <path class="cls-6" d="m972.79,674.82l-11.35-9.87,11.35,9.87Z"/>
      <path class="cls-6" d="m961.43,664.96l-9.59-10.2,9.59,10.2Z"/>
      <path class="cls-6" d="m951.84,654.76l-9-11.77,9,11.77Z"/>
      <path class="cls-6" d="m942.84,642.99l-7.4-12.08,7.4,12.08Z"/>
      <path class="cls-6" d="m935.44,630.91l-6.97-14.85,6.97,14.85Z"/>
      <path class="cls-6" d="m928.47,616.07l-4.36-12.76,4.36,12.76Z"/>
      <path class="cls-6" d="m924.11,603.31l-2.91-12.25,2.91,12.25Z"/>
      <polygon class="cls-6" points="1623.34 252.43 1509.15 253.54 1599.85 252.43 1623.34 252.43"/>
      <polygon class="cls-6" points="1623.34 252.43 1599.85 252.43 1614.66 252.25 1623.34 252.43"/>
      <g id="WIPEOUT">
        <polygon class="cls-12" points="1603.9 732.19 1603.21 732.18 1610.94 732.18 1603.9 732.19"/>
        <polygon class="cls-12" points="1610.94 732.18 1603.21 732.18 1480.35 730.67 1610.94 732.18"/>
        <path class="cls-12" d="m1838.37,712.47h-196.04s196.04,0,196.04,0Z"/>
        <path class="cls-12" d="m1838.37,709.47v3s0-3,0-3Z"/>
        <path class="cls-12" d="m993.92,712.47l-6.92-3,6.92,3Z"/>
        <path class="cls-12" d="m987,709.47l-12.87-7.26,12.87,7.26Z"/>
        <path class="cls-12" d="m974.13,702.21l-12.1-8.51,12.1,8.51Z"/>
        <path class="cls-12" d="m962.03,693.7l-11.35-9.87,11.35,9.87Z"/>
        <path class="cls-12" d="m950.67,683.83l-9.59-10.2,9.59,10.2Z"/>
        <path class="cls-12" d="m941.08,673.64l-9-11.77,9,11.77Z"/>
        <path class="cls-12" d="m932.08,661.87l-7.4-12.08,7.4,12.08Z"/>
        <path class="cls-12" d="m924.68,649.79l-6.97-14.85,6.97,14.85Z"/>
        <path class="cls-12" d="m917.71,634.94l-4.36-12.76,4.36,12.76Z"/>
        <path class="cls-12" d="m913.35,622.19l-2.91-12.25,2.91,12.25Z"/>
        <polygon class="cls-12" points="1612.58 271.31 1498.39 272.42 1589.09 271.31 1612.58 271.31"/>
        <polygon class="cls-12" points="1612.58 271.31 1589.09 271.31 1603.9 271.12 1612.58 271.31"/>
        <polygon class="cls-8" points="1838.37 712.47 1642.33 712.47 1636.58 720.13 1632.87 723.5 1626.2 727.81 1619 730.67 1610.94 732.18 1603.9 732.19 1058.24 725.5 1030.24 723.47 1013.17 719.64 1002.16 716.04 987 709.47 974.13 702.21 962.03 693.7 950.67 683.83 941.08 673.64 932.08 661.87 924.68 649.79 917.71 634.94 913.35 622.19 910.44 609.94 910.44 393.37 913.62 380.21 917.73 368.33 925.77 351.56 932.28 341.16 942.48 328.07 950.99 319.18 962.03 309.61 972.51 302.13 989.11 292.81 1000.71 287.82 1016.75 282.7 1029.02 280.05 1044.23 278.19 1058.24 277.81 1603.9 271.12 1612.58 271.31 1618.21 272.42 1626.2 275.5 1632.66 279.64 1638.25 285.03 1642.33 290.85 1838.37 290.85 1838.37 712.47 1838.37 712.47 1838.37 712.47"/>
      </g>
      <path class="cls-13" d="m1838.37,290.85h-196.04c-21.65,0-39.21,16.75-39.21,37.41v346.8c0,20.66,17.55,37.41,39.21,37.41h196.04s0-421.62,0-421.62Z"/>
      <path class="cls-8" d="m1838.37,693.76h-196.04c-10.83,0-19.6-8.37-19.6-18.71v-346.8c0-10.33,8.78-18.71,19.6-18.71h196.04v384.21Z"/>
      <g id="CIRCLE">
        <path class="cls-2" d="m1762.57,501.66c0,18.6-15.8,33.67-35.29,33.67-19.49,0-35.29-15.07-35.29-33.67,0-18.59,15.8-33.67,35.29-33.67s35.29,15.08,35.29,33.67h0Z"/>
      </g>
      <path class="cls-12" d="m950.27,501.66c-.03-18.58,1.25-37.15,3.83-55.57,7.33-43.23,38.97-79.12,82.35-93.42,82.36-14.96,166.9-15.24,249.37-.82,37.56,11.05,66.85,39.28,78.04,75.24,6.17,24.41,9.06,49.47,8.58,74.57.48,25.1-2.4,50.16-8.58,74.57-11.19,35.95-40.47,64.19-78.04,75.23-82.46,14.42-167.01,14.14-249.37-.82-43.38-14.3-75.01-50.19-82.35-93.42-2.58-18.42-3.86-36.99-3.83-55.57Z"/>
      <path class="cls-6" d="m950.28,501.65c-.03-18.58,1.24-37.15,3.83-55.57,6.09-35.93,28.96-66.77,61.4-84.38-23.35,18.11-39.46,44.02-44.42,73.29-2.57,18.42-3.86,36.99-3.82,55.57-.04,18.58,1.24,37.15,3.82,55.57,7.33,43.24,38.97,79.13,82.35,93.42,82.35,14.96,166.91,15.24,249.37.82,8.06-2.37,15.73-5.54,22.94-9.39-11.62,9.1-25.13,16.12-39.93,20.48-82.46,14.42-167,14.14-249.37-.81-43.38-14.3-75.01-50.19-82.34-93.42-2.59-18.43-3.85-36.99-3.83-55.58Z"/>
      <path class="cls-2" d="m1245.97,501.66c-.01-5.62.9-11.22,2.69-16.59,4.5-18.02,17.53-33.02,35.27-40.55,26.49-7.22,53.93-10.9,81.48-10.91,5.1,22.33,7.45,45.18,7.02,68.05.43,22.87-1.92,45.72-7.02,68.05-27.55-.01-54.98-3.69-81.48-10.91-17.75-7.53-30.78-22.54-35.27-40.55-1.79-5.36-2.71-10.96-2.69-16.59Z"/>
      <rect class="cls-9" x="903.37" y="557.68" width=".16" height="5.67"/>
      <rect class="cls-9" x="903.37" y="693.78" width=".16" height="5.67"/>
      <g id="CIRCLE-2" data-name="CIRCLE">
        <path class="cls-14" d="m1756.03,501.66c0,15.15-12.87,27.44-28.75,27.44-15.88,0-28.75-12.28-28.75-27.44,0-15.15,12.87-27.43,28.75-27.43,15.88,0,28.75,12.28,28.75,27.43h0Z"/>
      </g>
    </g>
    <path class="cls-6" d="m1770.49,941.14v-58.42s61.75,0,61.75,0h0c.31,4.5.76,9,1.37,13.47.07.5.51.87,1.04.87h12.28s0-56.12,0-56.12h-12.28c-.52,0-.97.37-1.04.87-.61,4.48-1.07,8.97-1.37,13.47h-61.75s0-58.93,0-58.93h-36.68s0,144.78,0,144.78h36.68Z"/>
    <g>
      <rect class="cls-13" x="1744.17" y="862.05" width="83.93" height="27.44"/>
      <path class="cls-12" d="m1824.85,902.96c-.61-4.48-1.07-8.97-1.37-13.47v-27.44c.31-4.5.77-9,1.38-13.47.07-.5.51-.87,1.04-.87h12.28s0,56.12,0,56.12h-12.28c-.52,0-.97-.37-1.04-.87Z"/>
      <rect class="cls-8" x="1725.05" y="803.12" width="36.68" height="144.78" transform="translate(3486.78 1751.02) rotate(-180)"/>
    </g>
    <g>
      <g class="cls-5">
        <path class="cls-9" d="m1610.29,142.47h9.14s0-.09,0-.09c.31.05.63.09.95.09h42.14s46.93-3.86,46.93-3.86v.08s1.42,5.65,1.42,5.65c1.35,2.18,3.88,3.44,6.53,3.24,17.6-.32,35.02-3.39,51.58-9.09v-2.12s0-1.9,0-1.9v-.06l4.54-.27v12.07s65.94,0,65.94,0l1.98,12.34h2.23s0-54.7,0-54.7h0s0-12.46,0-12.46h0v-12.33s-2.23,0-2.23,0v.02s-1.98,12.32-1.98,12.32h-65.94s0,12.07,0,12.07l-4.54-.27v-.09s0-3.99,0-3.99c-16.56-5.7-33.98-8.77-51.58-9.1-2.64-.19-5.18,1.06-6.53,3.24l-1.42,5.65v.08s-46.93-3.86-46.93-3.86h-43.09s.95,0,.95,0c-.33,0-.64.04-.95.09v-.09s-9.14,0-9.14,0c-2.88,0-5.22,2.23-5.22,4.98v37.38c0,2.75,2.34,4.98,5.22,4.98Z"/>
      </g>
      <path class="cls-8" d="m1614.13,151.2h-9.14c-2.88,0-5.22-2.23-5.22-4.98v-37.38c0-2.75,2.34-4.98,5.23-4.98h9.14v47.34Z"/>
      <path class="cls-14" d="m1704.15,147.43l1.42,5.65c1.35,2.18,3.88,3.44,6.53,3.24,17.6-.32,35.02-3.39,51.58-9.09v-2.12s0-1.9,0-1.9v-31.37s0-3.99,0-3.99c-16.56-5.7-33.98-8.77-51.58-9.1-2.64-.2-5.18,1.06-6.53,3.24l-1.42,5.65v39.78Z"/>
      <g id="LINE">
        <rect class="cls-9" x="1652.65" y="103.86" width="1.31" height="47.34"/>
      </g>
      <polygon class="cls-12" points="1774.74 112.59 1732.96 110.09 1732.96 144.98 1774.74 142.49 1774.74 112.59"/>
      <path class="cls-13" d="m1732.96,110.09l-75.73-6.23h-43.09s.96,0,.96,0c-2.88,0-5.22,2.23-5.22,4.98v37.38c0,2.75,2.34,4.98,5.22,4.98h-.95s43.09,0,43.09,0l75.73-6.22v-34.89Z"/>
      <g id="LINE-2" data-name="LINE">
        <polygon class="cls-9" points="1763.02 111.84 1764.33 111.84 1763.02 111.87 1763.02 111.84"/>
      </g>
      <rect class="cls-13" x="1836.14" y="87.8" width="2.23" height="79.49"/>
      <polygon class="cls-13" points="1836.14 167.29 1832.35 143.74 1832.35 111.35 1836.14 87.8 1836.14 167.29"/>
      <rect class="cls-8" x="1768.22" y="100.13" width="70.16" height="12.46"/>
      <rect class="cls-8" x="1768.21" y="142.49" width="70.16" height="12.46"/>
      <rect class="cls-13" x="1774.74" y="112.59" width="27.42" height="29.9"/>
      <rect class="cls-12" x="1802.16" y="112.59" width="30.19" height="29.9" transform="translate(3634.51 255.08) rotate(-180)"/>
    </g>
    <g>
      <g id="LWPOLYLINE-7" data-name="LWPOLYLINE" class="cls-5">
        <path class="cls-9" d="m1838.37,1810.54h-532.58c-7.22,0-13.07-5.58-13.07-12.47v-660.94c0-6.89,5.85-12.47,13.07-12.47h532.58v685.88Z"/>
      </g>
      <g id="LWPOLYLINE-8" data-name="LWPOLYLINE">
        <path class="cls-13" d="m1838.18,1842.24h-561.8c-7.22,0-13.07-5.58-13.07-12.47v-660.94c0-6.89,5.85-12.47,13.07-12.47h561.8v685.88Z"/>
      </g>
      <g id="LWPOLYLINE-9" data-name="LWPOLYLINE">
        <rect class="cls-8" x="1733.81" y="1156.36" width="104.56" height="685.88"/>
      </g>
      <g id="LWPOLYLINE-10" data-name="LWPOLYLINE">
        <path class="cls-12" d="m1733.81,1804.82v-611.05s-411.69,0-411.69,0c-3.61,0-6.53,2.79-6.53,6.24v598.58c0,3.44,2.92,6.24,6.53,6.24h411.69Z"/>
      </g>
      <g id="LWPOLYLINE-11" data-name="LWPOLYLINE" class="cls-5">
        <path class="cls-9" d="m1315.59,1798.59v-598.58c0-3.44,2.93-6.24,6.53-6.24h11.76v592.35c0,3.44,2.93,6.23,6.53,6.23h393.39v12.47h-411.69c-3.61,0-6.53-2.79-6.53-6.24Z"/>
      </g>
      <g>
        <ellipse class="cls-3" cx="1603.01" cy="1499.3" rx="55.45" ry="52.91"/>
        <path class="cls-15" d="m1569.79,1499.3c0-17.51,14.87-31.7,33.22-31.7,18.35,0,33.22,14.19,33.22,31.7,0,17.51-14.87,31.7-33.22,31.7-18.35,0-33.22-14.19-33.22-31.7Z"/>
      </g>
      <path class="cls-6" d="m1655.13,1507.54c.19,0,.38,0,.57-.01h113.75c4.75,10.28,14.45,17.99,26.22,20.4v2.06c0,.35.29.62.65.62h14.38c.36,0,.65-.28.65-.62v-2.06c14.27-2.92,25.49-13.64,28.55-27.25h2.16c.36,0,.65-.28.65-.62v-13.72c0-.34-.29-.62-.65-.62h-2.17c-3.06-13.6-14.29-24.31-28.55-27.23v-2.08c0-.34-.29-.62-.65-.62h-14.38c-.36,0-.65.28-.65.62v2.08c-11.76,2.41-21.45,10.11-26.21,20.37h-113.76c-8.29-.29-15.27,5.88-15.59,13.79,0,.18-.01.37-.01.55,0,7.92,6.73,14.34,15.03,14.34Z"/>
      <g>
        <path class="cls-3" d="m1761.94,1499.31c0,19.62,16.67,35.52,37.22,35.52,20.56,0,37.22-15.9,37.22-35.52,0-19.62-16.67-35.52-37.22-35.52-20.56,0-37.22,15.9-37.22,35.52Z"/>
        <path class="cls-14" d="m1781.21,1513.64h-129.86c-.19,0-.38,0-.57,0-8.3,0-15.03-6.42-15.03-14.34,0-.18,0-.37.01-.55.32-7.91,7.3-14.09,15.59-13.78h129.86s0,28.67,0,28.67Z"/>
        <path class="cls-2" d="m1783.15,1513.64h-124.09c-.19,0-.38,0-.57,0-8.3,0-15.03-6.42-15.03-14.34,0-.18,0-.37.01-.55.32-7.91,7.3-14.09,15.59-13.78h124.09s0,28.67,0,28.67Z"/>
        <path class="cls-14" d="m1773.54,1499.31c0-13.5,11.47-24.45,25.63-24.45,14.15,0,25.62,10.95,25.62,24.45,0,13.5-11.47,24.45-25.62,24.45-14.15,0-25.63-10.95-25.63-24.45Z"/>
        <g>
          <path class="cls-12" d="m1837.72,1506.78h-28.1c-1.44,0-2.61,1.12-2.61,2.49v26.81c0,.34-.29.62-.65.62h-14.38c-.36,0-.65-.28-.65-.62v-26.81c0-1.38-1.17-2.49-2.61-2.49h-28.1c-.36,0-.65-.28-.65-.62v-13.72c0-.34.29-.62.65-.62h28.1c1.44,0,2.61-1.12,2.61-2.49v-26.81c0-.34.29-.62.65-.62h14.38c.36,0,.65.28.65.62v26.81c0,1.38,1.17,2.49,2.61,2.49h28.1c.36,0,.65.28.65.62v13.72c0,.34-.29.62-.65.62Z"/>
          <g class="cls-11">
            <path class="cls-9" d="m1804.88,1463.9v26.81c0,1.38,1.17,2.49,2.61,2.49h28.1c.36,0,.65.28.65.62l1.47,12.95c.36,0,.65-.28.65-.62v-13.72c0-.34-.29-.62-.65-.62h-28.1c-1.44,0-2.61-1.12-2.61-2.49v-26.81c0-.34-.29-.62-.65-.62h-14.38c-.36,0-.65.28-.65.62l12.91.77c.36,0,.65.28.65.62Z"/>
            <path class="cls-9" d="m1788.93,1491.79c-.07,0-.14.02-.22.02h-28.1c-.36,0-.65.28-.65.62v.77s28.55-.58,28.97-1.41Z"/>
            <path class="cls-9" d="m1804.88,1536.71h1.47c.36,0,.65-.28.65-.62v-26.81c0-.39.1-.75.27-1.08-1.34.11-2.39,28.52-2.39,28.52Z"/>
          </g>
          <g class="cls-5">
            <path class="cls-1" d="m1809.4,1506.8c.07,0,.15-.02.22-.02h28.1c.36,0,.65-.28.65-.62,0,0-28.55-.19-28.97.65Z"/>
            <path class="cls-1" d="m1791.97,1461.88c-.36,0-.65.28-.65.62v26.81c0,.39-.1.75-.27,1.08,1.34-.11.92-28.52.92-28.52Z"/>
            <path class="cls-1" d="m1760.61,1506.78h28.1c1.44,0,2.61,1.12,2.61,2.49v26.81c0,.34.29.62.65.62h14.38c.36,0-12.25-1.39-12.25-1.39-.36,0-.65-.28-.65-.62v-26.81c0-1.38-1.17-2.49-2.61-2.49h-28.1c-.36,0-.65-.28-.65-.62,0,0-2.12-12.67-2.12-12.33v13.72c0,.34.29.62.65.62Z"/>
          </g>
        </g>
      </g>
    </g>
    <g id="LWPOLYLINE-12" data-name="LWPOLYLINE">
      <rect class="cls-7" x="1838.37" y="2.84" width="130.7" height="1995.28"/>
    </g>
  </g>
</svg>