<?xml version="1.0" encoding="UTF-8"?>
<svg xmlns="http://www.w3.org/2000/svg" xmlns:xlink="http://www.w3.org/1999/xlink" viewBox="0 0 308 495.565">
  <defs>
    <style>
      .cls-1 {
        fill: #8c6239;
      }

      .cls-2 {
        fill: #555;
      }

      .cls-3 {
        fill: #e2454a;
      }

      .cls-4, .cls-5 {
        fill: #fff;
      }

      .cls-6, .cls-7 {
        fill: #ddd3cc;
        mix-blend-mode: multiply;
      }

      .cls-8, .cls-5, .cls-9, .cls-7, .cls-10 {
        fill-rule: evenodd;
      }

      .cls-8, .cls-11 {
        fill: #b3b6ba;
      }

      .cls-12 {
        fill: url(#Sky-4);
      }

      .cls-13 {
        fill: url(#Sky-3);
      }

      .cls-13, .cls-14, .cls-15 {
        stroke: blue;
        stroke-miterlimit: 10;
        stroke-width: .25px;
      }

      .cls-16 {
        isolation: isolate;
      }

      .cls-17 {
        fill: #e5576f;
      }

      .cls-18 {
        opacity: .39;
      }

      .cls-14 {
        fill: url(#Sky-2);
      }

      .cls-9 {
        fill: #d2d6d8;
      }

      .cls-15 {
        fill: url(#Sky);
      }

      .cls-19 {
        fill: #ff7bac;
        opacity: .38;
      }

      .cls-10, .cls-20 {
        fill: #e3e7e8;
      }

      .cls-21 {
        clip-path: url(#clippath);
      }

      .cls-22 {
        fill: none;
      }

      .cls-23 {
        opacity: .17;
      }

      .cls-24 {
        fill: #888;
      }

      .cls-25 {
        opacity: .27;
      }
    </style>
    <clipPath id="clippath">
      <rect class="cls-22" x="0" y="9.733" width="308" height="329.267"/>
    </clipPath>
    <linearGradient id="Sky" x1="242.372" y1="173.417" x2="242.372" y2="99.773" gradientTransform="translate(466.438 410.071) rotate(-180)" gradientUnits="userSpaceOnUse">
      <stop offset="0" stop-color="#cce0f4"/>
      <stop offset=".064" stop-color="#c2dcf2"/>
      <stop offset=".171" stop-color="#a9d2ee"/>
      <stop offset=".307" stop-color="#7fc2e7"/>
      <stop offset=".465" stop-color="#46abdd"/>
      <stop offset=".567" stop-color="#1e9cd7"/>
      <stop offset=".865" stop-color="#0075be"/>
      <stop offset=".994" stop-color="#005b97"/>
    </linearGradient>
    <linearGradient id="Sky-2" data-name="Sky" x1="242.372" y1="163.976" x2="242.372" y2="109.221" xlink:href="#Sky"/>
    <linearGradient id="Sky-3" data-name="Sky" x1="191.136" y1="174.937" x2="205.99" y2="174.937" gradientTransform="translate(399 91) rotate(90)" xlink:href="#Sky"/>
    <linearGradient id="Sky-4" data-name="Sky" x1="82.563" y1="311.767" x2="147.671" y2="311.767" gradientTransform="translate(399 91) rotate(90)" xlink:href="#Sky"/>
  </defs>
  <g class="cls-16">
    <g id="Layer_1" data-name="Layer 1">
      <g class="cls-21">
        <g class="cls-25">
          <rect class="cls-19" x="4.288" y="14.685" width="202.387" height="241.328"/>
          <path class="cls-19" d="m256.859,14.833h-1.129s-49.171,0-49.171,0h-1.125s-49.184,0-49.184,0h-1.114s-49.173,0-49.173,0h-1.125s-49.173,0-49.173,0h-1.131s-50.299,0-50.299,0v79.799s0,1.803,0,1.803v77.983s0,1.803,0,1.803v79.793s50.299,0,50.299,0h1.131s49.173,0,49.173,0h1.125s49.173,0,49.173,0h1.114s49.184,0,49.184,0h1.125s49.171,0,49.171,0h1.129s50.292,0,50.292,0v-79.793s0-1.803,0-1.803v-77.983s0-1.803,0-1.803V14.833s-50.292,0-50.292,0ZM55.662,174.418v-77.983h49.163v77.983h-49.163Zm50.307,0v-77.983h49.155v77.983h-49.155Zm50.29,0v-77.983h49.163v77.983h-49.163Zm50.307,0v-77.983h49.163v77.983h-49.163ZM255.73,16.63v78.002h-49.163V16.63h49.163Zm-50.307,0v78.002h-49.163V16.63h49.163Zm-50.299,0v78.002h-49.155V16.63h49.155Zm-50.299,0v78.002h-49.163V16.63h49.163Zm-99.462,0h49.167v78.002H5.364V16.63Zm0,79.805h49.167v77.983H5.364v-77.983Zm0,157.789v-78.003h49.167v78.003H5.364Zm50.299,0v-78.003h49.163v78.003h-49.163Zm50.307,0v-78.003h49.155v78.003h-49.155Zm50.29,0v-78.003h49.163v78.003h-49.163Zm50.307,0v-78.003h49.163v78.003h-49.163Zm99.455,0h-49.163v-78.003h49.163v78.003Zm0-79.806h-49.163v-77.983h49.163v77.983Zm-49.163-79.786V16.63h49.163v78.002h-49.163Z"/>
          <rect class="cls-19" x="4.288" y="254.224" width="302.914" height="241.341"/>
          <path class="cls-19" d="m256.859,254.371h-1.129s-49.171,0-49.171,0h-1.125s-49.184,0-49.184,0h-1.114s-49.173,0-49.173,0h-1.125s-49.173,0-49.173,0h-1.131s-50.299,0-50.299,0v79.806s0,1.79,0,1.79v77.996s0,1.796,0,1.796v79.806s50.299,0,50.299,0h1.131s49.173,0,49.173,0h1.125s49.173,0,49.173,0h1.114s49.184,0,49.184,0h1.125s49.171,0,49.171,0h1.129s50.292,0,50.292,0v-79.806s0-1.796,0-1.796v-77.996s0-1.79,0-1.79v-79.806s-50.292,0-50.292,0ZM55.662,413.963v-77.996h49.163v77.996h-49.163Zm50.307,0v-77.996h49.155v77.996h-49.155Zm50.29,0v-77.996h49.163v77.996h-49.163Zm50.307,0v-77.996h49.163v77.996h-49.163Zm49.163-157.795v78.009h-49.163v-78.009h49.163Zm-50.307,0v78.009h-49.163v-78.009h49.163Zm-50.299,0v78.009h-49.155v-78.009h49.155Zm-50.299,0v78.009h-49.163v-78.009h49.163Zm-99.462,0h49.167v78.009H5.364v-78.009Zm0,79.799h49.167v77.996H5.364v-77.996Zm0,157.795v-78.002h49.167v78.002H5.364Zm50.299,0v-78.002h49.163v78.002h-49.163Zm50.307,0v-78.002h49.155v78.002h-49.155Zm50.29,0v-78.002h49.163v78.002h-49.163Zm50.307,0v-78.002h49.163v78.002h-49.163Zm99.455,0h-49.163v-78.002h49.163v78.002Zm0-79.799h-49.163v-77.996h49.163v77.996Zm-49.163-79.786v-78.009h49.163v78.009h-49.163Z"/>
        </g>
      </g>
      <path class="cls-7" d="m117.266,34.502H34.674c-9.355,0-10.923,1.687-10.923,11.755v105.37c0,10.061,1.568,11.768,10.923,11.768h82.592c9.352,0,10.92-1.707,10.92-11.768V46.256c0-10.067-1.568-11.755-10.92-11.755Z"/>
      <path class="cls-7" d="m112.198,29.049H29.606c-9.355,0-10.923,1.687-10.923,11.755v105.376c0,10.061,1.568,11.761,10.923,11.761h82.592c9.352,0,10.92-1.7,10.92-11.761V40.804c0-10.067-1.568-11.755-10.92-11.755Z"/>
      <path class="cls-6" d="m96.879,183.227l-40.941-3.528c-3.786,0-7.031,2.563-8.346,6.162-2.812-4.685-7.678-7.818-13.211-7.818-.618,0-1.206.122-1.805.198-.603-.07-1.187-.198-1.805-.198h-11.187s-.22,0-.22,0h-.249c-1.35,0-2.446,1.183-2.446,2.634v.275s0,71.615,0,71.615v.268c0,1.451,1.096,2.633,2.446,2.633h.249s.22,0,.22,0h11.187c.618,0,1.206-.128,1.805-.204.6.077,1.187.204,1.805.204,5.534,0,10.4-3.132,13.211-7.81,1.315,3.592,4.56,6.162,8.346,6.162l40.941-3.534c18.992-2.045,31.15-13.142,31.15-33.526,0-20.39-12.158-31.41-31.15-33.532Z"/>
      <path class="cls-6" d="m94.346,178.044l-40.941-3.534c-3.786,0-7.031,2.57-8.346,6.162-2.812-4.679-7.678-7.81-13.211-7.81-.618,0-1.206.128-1.805.198-.603-.07-1.187-.198-1.805-.198h-11.187s-.22,0-.22,0h-.249c-1.35,0-2.446,1.182-2.446,2.633v.268s0,71.621,0,71.621v.268c0,1.451,1.096,2.634,2.446,2.634h.249s.22,0,.22,0h11.187c.618,0,1.206-.128,1.805-.198.6.07,1.187.198,1.805.198,5.534,0,10.4-3.133,13.211-7.811,1.315,3.592,4.56,6.162,8.346,6.162l40.941-3.534c18.992-2.045,31.15-13.142,31.15-33.526,0-20.39-12.158-31.41-31.15-33.532Z"/>
      <path class="cls-7" d="m43.034,270.266c-1.122-2.551-3.479-4.327-6.262-4.327s-5.139,1.776-6.264,4.327h-12.805s0,8.718,0,8.718v40.282s130.603,0,130.603,0v-40.282s0-8.718,0-8.718H43.034Z"/>
      <path class="cls-7" d="m39.994,276.811c-1.122-2.551-3.479-4.327-6.262-4.327-2.779,0-5.139,1.776-6.264,4.327h-12.805s0,8.718,0,8.718v40.282s130.603,0,130.603,0v-40.282s0-8.718,0-8.718H39.994Z"/>
      <g>
        <path class="cls-20" d="m31.2,277.942c3.86,0,6.983,3.356,6.983,7.555,0,4.123-3.123,7.492-6.983,7.492-3.854,0-6.989-3.369-6.989-7.492,0-4.199,3.135-7.555,6.989-7.555Z"/>
        <g>
          <rect class="cls-20" x="12.131" y="282.263" width="130.603" height="49"/>
          <rect class="cls-17" x="12.131" y="290.982" width="130.603" height="40.282"/>
        </g>
      </g>
      <path class="cls-6" d="m291.201,235.258c-44.21-16.734-80.942-16.734-125.149,0-.769.281-5.026,2.358-5.026,5.97v75.373c0,5.05,4.593,6.072,5.644,6.072h123.911c1.054,0,5.641-1.016,5.641-6.072v-75.373c0-3.656-4.255-5.689-5.021-5.97Z"/>
      <path class="cls-6" d="m289.68,239.758c-44.21-16.734-80.942-16.734-125.149,0-.769.281-5.026,2.358-5.026,5.97v75.373c0,5.05,4.593,6.072,5.644,6.072h123.911c1.054,0,5.641-1.016,5.641-6.072v-75.373c0-3.656-4.255-5.689-5.021-5.97Z"/>
      <g>
        <path class="cls-4" d="m161.491,242.352c44.208-16.734,80.939-16.734,125.149,0,.765.281,5.021,2.314,5.021,5.971v75.373c0,5.05-4.587,6.072-5.641,6.072h-123.911c-1.051,0-5.644-1.029-5.644-6.072v-75.373c0-3.618,4.257-5.689,5.026-5.971Z"/>
        <g class="cls-18">
          <path class="cls-15" d="m170.582,247.479c38.147-14.432,68.816-14.432,106.964,0,.662.249,4.851,1.719,4.851,5.702v57.118h-116.664v-57.118c0-3.483,4.186-5.452,4.848-5.702Z"/>
          <path class="cls-14" d="m177.47,254.139c31.061-10.725,62.128-10.725,93.191,0,.541.192.906.691.906,1.253v45.459h-95.002v-45.459c0-.562.368-1.061.905-1.253Z"/>
          <path class="cls-13" d="m217.167,289.557c0-4.085,3.088-7.421,6.894-7.421,3.806,0,6.897,3.336,6.897,7.421,0,4.116-3.091,7.433-6.897,7.433-3.806,0-6.894-3.317-6.894-7.433Z"/>
        </g>
        <g>
          <path class="cls-1" d="m220.647,298.288c0-1.937,1.532-3.515,3.42-3.515h0c1.888,0,3.417,1.579,3.417,3.515v12.433c0,1.937-1.529,3.515-3.417,3.515h0c-1.889,0-3.42-1.579-3.42-3.515v-12.433Z"/>
          <path class="cls-1" d="m221.03,298.716c0-1.809,1.357-3.267,3.038-3.267h0c1.677,0,3.037,1.458,3.037,3.267v11.575c0,1.809-1.36,3.266-3.037,3.266h0c-1.681,0-3.038-1.457-3.038-3.266v-11.575Z"/>
          <path class="cls-1" d="m217.761,317.074c0-3.861,2.907-6.98,6.49-6.98,3.587,0,6.49,3.119,6.49,6.98s-2.903,6.992-6.49,6.992c-3.583,0-6.49-3.132-6.49-6.992Z"/>
          <path class="cls-1" d="m219.73,317.074c0-2.685,2.025-4.871,4.521-4.871,2.497,0,4.525,2.186,4.525,4.871s-2.028,4.87-4.525,4.87c-2.497,0-4.521-2.173-4.521-4.87Z"/>
        </g>
      </g>
      <g>
        <g>
          <rect class="cls-3" x="144.045" y="1.068" width="11.318" height="12.189"/>
          <path class="cls-3" d="m156.36,14.318h-13.301V0h13.301v14.318Zm-11.323-2.142h9.341s0-10.048,0-10.048h-9.341s0,10.048,0,10.048Z"/>
        </g>
        <g>
          <rect class="cls-3" x="285.867" y="1.068" width="11.321" height="12.189"/>
          <path class="cls-3" d="m298.173,14.318h-13.295S284.873,0,284.873,0h13.301v14.318Zm-11.318-2.142h9.341s0-10.048,0-10.048h-9.346s.005,10.048.005,10.048Z"/>
        </g>
        <g>
          <path class="cls-3" d="m264.328,140.423c-27.576-4.832-53.464-19.546-72.911-41.426-21.157-23.81-32.92-53.864-34.024-86.936l.653-.026c2.411,71.998,55.34,118.736,106.388,127.685l-.106.703Z"/>
          <polygon class="cls-3" points="273.923 141.331 261.168 133.559 263.656 139.924 259.761 145.396 273.923 141.331"/>
        </g>
        <g>
          <path class="cls-3" d="m281.601,142.737V7.779s-5.404,0-5.404,0v134.958s5.404,0,5.404,0Z"/>
          <path class="cls-3" d="m283.252,144.514h-8.699V6.008h8.699v138.506Zm-5.41-3.554h2.114s0-131.404,0-131.404h-2.114s0,131.404,0,131.404Z"/>
        </g>
      </g>
      <polygon class="cls-7" points="13.241 290.202 142.734 331.263 12.858 330.292 13.241 290.202"/>
      <g>
        <path class="cls-4" d="m42.393,178.734v54.779c0,5.318,4.047,9.671,8.984,9.671l40.941-3.534c18.992-2.045,31.15-13.142,31.15-33.526h0c0-20.39-12.158-31.41-31.15-33.532l-40.941-3.528c-4.937,0-8.984,4.346-8.984,9.671Z"/>
        <g class="cls-23">
          <path class="cls-12" d="m55.611,238.671l36.283-3.521c16.753-2.838,26.96-11.122,26.96-29.026h0c0-17.91-10.617-27.217-26.96-29.032l-36.283-3.528v65.107Z"/>
        </g>
        <path class="cls-11" d="m14.064,184.372v43.497c0,9.326,7.087,16.963,15.756,16.963h0c8.663,0,15.753-7.638,15.753-16.963v-43.497c0-9.326-7.09-16.964-15.753-16.964h0c-8.669,0-15.756,7.638-15.756,16.964Z"/>
        <path class="cls-4" d="m-10.786,190.744h76.538c.245,0,.443.199.443.443v27.57c0,1.511-1.227,2.738-2.738,2.738H-8.491c-1.511,0-2.738-1.227-2.738-2.738v-27.57c0-.245.199-.443.443-.443Z" transform="translate(-178.637 233.603) rotate(-90)"/>
        <path class="cls-24" d="m12.107,170.041v72.158c0,1.451,1.096,2.633,2.446,2.633h.469c-1.348,0-2.444-1.182-2.444-2.633v-72.158c0-1.451,1.096-2.634,2.444-2.634h-.469c-1.35,0-2.446,1.183-2.446,2.634Z"/>
        <path class="cls-2" d="m27.486,201.969c2.126,0,3.848,1.86,3.848,4.155,0,2.288-1.722,4.142-3.848,4.142-2.132,0-3.854-1.854-3.854-4.142,0-2.295,1.722-4.155,3.854-4.155Z"/>
      </g>
      <g>
        <path class="cls-9" d="m116.533,33.709v105.37c0,10.061-1.568,11.768-10.92,11.768H23.021c-9.355,0-10.923-1.707-10.923-11.768V33.709c0-10.067,1.568-11.755,10.923-11.755h82.592c9.352,0,10.92,1.687,10.92,11.755Z"/>
        <path class="cls-8" d="m114.223,33.709c0-8.693-.538-9.268-8.61-9.268H23.021c-8.075,0-8.613.575-8.613,9.268v105.37c0,8.693.534,9.268,8.613,9.268h82.592c8.072,0,8.61-.575,8.61-9.268V33.709Z"/>
        <path class="cls-5" d="m111.949,33.709c0-7.344.481-6.82-6.336-6.82H23.021c-6.82,0-6.336-.524-6.336,6.82v105.37c0,7.344-.487,6.833,6.336,6.833h82.592c6.82,0,6.336.511,6.336-6.833V33.709Z"/>
        <path class="cls-10" d="m24.122,26.889h-1.102c-6.82,0-6.336-.524-6.336,6.82v105.37c0,7.344-.487,6.833,6.336,6.833h82.592c4.997,0,6.063.243,6.282-2.506C91.998,117.161,44.521,54.457,24.122,26.889Z"/>
      </g>
    </g>
  </g>
</svg>