<?xml version="1.0" encoding="UTF-8"?>
<svg xmlns="http://www.w3.org/2000/svg" viewBox="0 0 2000.95 1972.04">
  <defs>
    <style>
      .cls-1 {
        fill: #fff;
      }

      .cls-2 {
        fill: #a7a9ac;
      }

      .cls-3 {
        fill: #939598;
      }

      .cls-4 {
        fill: #9b8579;
      }

      .cls-5, .cls-6 {
        opacity: .2;
      }

      .cls-7 {
        fill: #5cb1bf;
      }

      .cls-8 {
        fill: #f1f2f2;
      }

      .cls-6, .cls-9 {
        fill: #231f20;
      }

      .cls-10 {
        fill: #acd6e2;
      }

      .cls-11 {
        opacity: .1;
      }

      .cls-12 {
        fill: #d1d3d4;
      }

      .cls-13 {
        fill: #e6e7e8;
      }

      .cls-14 {
        fill: #bcbec0;
      }

      .cls-15 {
        fill: #58595b;
      }
    </style>
  </defs>
  <g id="Layer_2" data-name="Layer 2">
    <g>
      <g>
        <rect class="cls-10" x="-3.15" y="79.98" width="261.39" height="249.41" transform="translate(-77.14 332.23) rotate(-90)"/>
        <path class="cls-2" d="m255.08,71.02v267.33H0V71.02h255.08Zm-5.67,261.39V76.96s-243.74,0-243.74,0v255.44s243.74,0,243.74,0Z"/>
      </g>
      <g>
        <rect class="cls-10" x="246.26" y="79.98" width="261.39" height="249.41" transform="translate(172.27 581.64) rotate(-90)"/>
        <path class="cls-2" d="m504.49,71.02v267.33h-255.08V71.02h255.08Zm-5.67,261.39V76.96s-243.74,0-243.74,0v255.44s243.74,0,243.74,0Z"/>
      </g>
      <g>
        <rect class="cls-10" x="495.67" y="79.98" width="261.39" height="249.41" transform="translate(421.68 831.05) rotate(-90)"/>
        <path class="cls-2" d="m753.9,71.02v267.33h-255.08V71.02h255.08Zm-5.67,261.39V76.96s-243.74,0-243.74,0v255.44s243.74,0,243.74,0Z"/>
      </g>
      <g>
        <rect class="cls-10" x="745.08" y="79.98" width="261.39" height="249.41" transform="translate(671.09 1080.46) rotate(-90)"/>
        <path class="cls-2" d="m1003.31,71.02v267.33h-255.08V71.02h255.08Zm-5.67,261.39V76.96s-243.74,0-243.74,0v255.44s243.74,0,243.74,0Z"/>
      </g>
      <g>
        <rect class="cls-10" x="994.49" y="79.98" width="261.39" height="249.41" transform="translate(920.5 1329.87) rotate(-90)"/>
        <path class="cls-2" d="m1252.72,71.02v267.33h-255.08V71.02h255.08Zm-5.67,261.39V76.96s-243.74,0-243.74,0v255.44s243.74,0,243.74,0Z"/>
      </g>
      <g>
        <rect class="cls-10" x="1243.9" y="79.98" width="261.39" height="249.41" transform="translate(1169.9 1579.27) rotate(-90)"/>
        <path class="cls-2" d="m1502.13,71.02v267.33h-255.08V71.02h255.08Zm-5.67,261.39V76.96s-243.74,0-243.74,0v255.44s243.74,0,243.74,0Z"/>
      </g>
      <g>
        <rect class="cls-10" x="1493.3" y="79.98" width="261.39" height="249.41" transform="translate(1419.31 1828.68) rotate(-90)"/>
        <path class="cls-2" d="m1751.54,71.02v267.33h-255.08V71.02h255.08Zm-5.67,261.39V76.96s-243.74,0-243.74,0v255.44s243.74,0,243.74,0Z"/>
      </g>
      <g>
        <rect class="cls-10" x="1742.71" y="79.98" width="261.39" height="249.41" transform="translate(1668.72 2078.09) rotate(-90)"/>
        <path class="cls-2" d="m2000.95,71.02v267.33h-255.08V71.02h255.08Zm-5.67,261.39V76.96s-243.74,0-243.74,0v255.44s243.74,0,243.74,0Z"/>
      </g>
      <g>
        <rect class="cls-10" x="-3.15" y="341.37" width="261.39" height="249.41" transform="translate(-338.53 593.62) rotate(-90)"/>
        <path class="cls-2" d="m255.08,332.41v267.34H0v-267.34h255.08Zm-5.67,261.39v-255.44s-243.74,0-243.74,0v255.44s243.74,0,243.74,0Z"/>
      </g>
      <g>
        <rect class="cls-10" x="-3.15" y="602.76" width="261.39" height="249.41" transform="translate(-599.92 855) rotate(-90)"/>
        <path class="cls-2" d="m255.08,593.8v267.34H0v-267.34h255.08Zm-5.67,261.39v-255.44s-243.74,0-243.74,0v255.44s243.74,0,243.74,0Z"/>
      </g>
      <g>
        <rect class="cls-10" x="-3.15" y="864.15" width="261.39" height="249.41" transform="translate(-861.31 1116.39) rotate(-90)"/>
        <path class="cls-2" d="m255.08,855.19v267.34H0v-267.34h255.08Zm-5.67,261.39v-255.44s-243.74,0-243.74,0v255.44s243.74,0,243.74,0Z"/>
      </g>
      <g>
        <rect class="cls-10" x="-3.15" y="1125.54" width="261.39" height="249.41" transform="translate(-1122.7 1377.78) rotate(-90)"/>
        <path class="cls-2" d="m255.08,1116.58v267.33H0v-267.33h255.08Zm-5.67,261.39v-255.44s-243.74,0-243.74,0v255.44s243.74,0,243.74,0Z"/>
      </g>
      <g>
        <rect class="cls-10" x="-3.15" y="1386.93" width="261.39" height="249.41" transform="translate(-1384.09 1639.17) rotate(-90)"/>
        <path class="cls-2" d="m255.08,1377.97v267.34H0v-267.34h255.08Zm-5.67,261.39v-255.44s-243.74,0-243.74,0v255.44s243.74,0,243.74,0Z"/>
      </g>
      <g>
        <rect class="cls-10" x="-3.15" y="1648.32" width="261.39" height="249.41" transform="translate(-1645.48 1900.56) rotate(-90)"/>
        <path class="cls-2" d="m255.08,1639.36v267.33H0v-267.33h255.08Zm-5.67,261.39v-255.44s-243.74,0-243.74,0v255.44s243.74,0,243.74,0Z"/>
      </g>
      <g>
        <rect class="cls-10" x="94.87" y="1811.69" width="65.35" height="249.41" transform="translate(-1808.85 2063.93) rotate(-90)"/>
        <path class="cls-2" d="m255.08,1900.75v71.29H0v-71.29h255.08Zm-5.67,65.35v-59.4s-243.74,0-243.74,0v59.4s243.74,0,243.74,0Z"/>
      </g>
      <g>
        <rect class="cls-10" x="246.26" y="341.37" width="261.39" height="249.41" transform="translate(-89.12 843.03) rotate(-90)"/>
        <path class="cls-2" d="m504.49,332.41v267.34h-255.08v-267.34h255.08Zm-5.67,261.39v-255.44s-243.74,0-243.74,0v255.44s243.74,0,243.74,0Z"/>
      </g>
      <g>
        <rect class="cls-10" x="246.26" y="602.76" width="261.39" height="249.41" transform="translate(-350.51 1104.41) rotate(-90)"/>
        <path class="cls-2" d="m504.49,593.8v267.34h-255.08v-267.34h255.08Zm-5.67,261.39v-255.44s-243.74,0-243.74,0v255.44s243.74,0,243.74,0Z"/>
      </g>
      <g>
        <rect class="cls-10" x="246.26" y="864.15" width="261.39" height="249.41" transform="translate(-611.9 1365.8) rotate(-90)"/>
        <path class="cls-2" d="m504.49,855.19v267.34h-255.08v-267.34h255.08Zm-5.67,261.39v-255.44s-243.74,0-243.74,0v255.44s243.74,0,243.74,0Z"/>
      </g>
      <g>
        <rect class="cls-10" x="246.26" y="1125.54" width="261.39" height="249.41" transform="translate(-873.29 1627.19) rotate(-90)"/>
        <path class="cls-2" d="m504.49,1116.58v267.33h-255.08v-267.33h255.08Zm-5.67,261.39v-255.44s-243.74,0-243.74,0v255.44s243.74,0,243.74,0Z"/>
      </g>
      <g>
        <rect class="cls-10" x="246.26" y="1386.93" width="261.39" height="249.41" transform="translate(-1134.68 1888.58) rotate(-90)"/>
        <path class="cls-2" d="m504.49,1377.97v267.34h-255.08v-267.34h255.08Zm-5.67,261.39v-255.44s-243.74,0-243.74,0v255.44s243.74,0,243.74,0Z"/>
      </g>
      <g>
        <rect class="cls-10" x="246.26" y="1648.32" width="261.39" height="249.41" transform="translate(-1396.07 2149.97) rotate(-90)"/>
        <path class="cls-2" d="m504.49,1639.36v267.33h-255.08v-267.33h255.08Zm-5.67,261.39v-255.44s-243.74,0-243.74,0v255.44s243.74,0,243.74,0Z"/>
      </g>
      <g>
        <rect class="cls-10" x="344.28" y="1811.69" width="65.35" height="249.41" transform="translate(-1559.44 2313.34) rotate(-90)"/>
        <path class="cls-2" d="m504.49,1900.75v71.29h-255.08v-71.29h255.08Zm-5.67,65.35v-59.4s-243.74,0-243.74,0v59.4s243.74,0,243.74,0Z"/>
      </g>
      <g>
        <rect class="cls-10" x="495.67" y="341.37" width="261.39" height="249.41" transform="translate(160.29 1092.43) rotate(-90)"/>
        <path class="cls-2" d="m753.9,332.41v267.34h-255.08v-267.34h255.08Zm-5.67,261.39v-255.44s-243.74,0-243.74,0v255.44s243.74,0,243.74,0Z"/>
      </g>
      <g>
        <rect class="cls-10" x="495.67" y="602.76" width="261.39" height="249.41" transform="translate(-101.1 1353.82) rotate(-90)"/>
        <path class="cls-2" d="m753.9,593.8v267.34h-255.08v-267.34h255.08Zm-5.67,261.39v-255.44s-243.74,0-243.74,0v255.44s243.74,0,243.74,0Z"/>
      </g>
      <g>
        <rect class="cls-10" x="495.67" y="864.15" width="261.39" height="249.41" transform="translate(-362.49 1615.21) rotate(-90)"/>
        <path class="cls-2" d="m753.9,855.19v267.34h-255.08v-267.34h255.08Zm-5.67,261.39v-255.44s-243.74,0-243.74,0v255.44s243.74,0,243.74,0Z"/>
      </g>
      <g>
        <rect class="cls-10" x="495.67" y="1125.54" width="261.39" height="249.41" transform="translate(-623.88 1876.6) rotate(-90)"/>
        <path class="cls-2" d="m753.9,1116.58v267.33h-255.08v-267.33h255.08Zm-5.67,261.39v-255.44s-243.74,0-243.74,0v255.44s243.74,0,243.74,0Z"/>
      </g>
      <g>
        <rect class="cls-10" x="495.67" y="1386.93" width="261.39" height="249.41" transform="translate(-885.27 2137.99) rotate(-90)"/>
        <path class="cls-2" d="m753.9,1377.97v267.34h-255.08v-267.34h255.08Zm-5.67,261.39v-255.44s-243.74,0-243.74,0v255.44s243.74,0,243.74,0Z"/>
      </g>
      <g>
        <rect class="cls-10" x="495.67" y="1648.32" width="261.39" height="249.41" transform="translate(-1146.66 2399.38) rotate(-90)"/>
        <path class="cls-2" d="m753.9,1639.36v267.33h-255.08v-267.33h255.08Zm-5.67,261.39v-255.44s-243.74,0-243.74,0v255.44s243.74,0,243.74,0Z"/>
      </g>
      <g>
        <rect class="cls-10" x="593.69" y="1811.69" width="65.35" height="249.41" transform="translate(-1310.03 2562.75) rotate(-90)"/>
        <path class="cls-2" d="m753.9,1900.75v71.29h-255.08v-71.29h255.08Zm-5.67,65.35v-59.4s-243.74,0-243.74,0v59.4s243.74,0,243.74,0Z"/>
      </g>
      <g>
        <rect class="cls-10" x="745.08" y="341.37" width="261.39" height="249.41" transform="translate(409.7 1341.85) rotate(-90)"/>
        <path class="cls-2" d="m1003.31,332.41v267.34h-255.08v-267.34h255.08Zm-5.67,261.39v-255.44s-243.74,0-243.74,0v255.44s243.74,0,243.74,0Z"/>
      </g>
      <g>
        <rect class="cls-10" x="745.08" y="602.76" width="261.39" height="249.41" transform="translate(148.31 1603.23) rotate(-90)"/>
        <path class="cls-2" d="m1003.31,593.8v267.34h-255.08v-267.34h255.08Zm-5.67,261.39v-255.44s-243.74,0-243.74,0v255.44s243.74,0,243.74,0Z"/>
      </g>
      <g>
        <rect class="cls-10" x="745.08" y="864.15" width="261.39" height="249.41" transform="translate(-113.08 1864.62) rotate(-90)"/>
        <path class="cls-2" d="m1003.31,855.19v267.34h-255.08v-267.34h255.08Zm-5.67,261.39v-255.44s-243.74,0-243.74,0v255.44s243.74,0,243.74,0Z"/>
      </g>
      <g>
        <rect class="cls-10" x="745.08" y="1125.54" width="261.39" height="249.41" transform="translate(-374.47 2126.01) rotate(-90)"/>
        <path class="cls-2" d="m1003.31,1116.58v267.33h-255.08v-267.33h255.08Zm-5.67,261.39v-255.44s-243.74,0-243.74,0v255.44s243.74,0,243.74,0Z"/>
      </g>
      <g>
        <rect class="cls-10" x="745.08" y="1386.93" width="261.39" height="249.41" transform="translate(-635.86 2387.4) rotate(-90)"/>
        <path class="cls-2" d="m1003.31,1377.97v267.34h-255.08v-267.34h255.08Zm-5.67,261.39v-255.44s-243.74,0-243.74,0v255.44s243.74,0,243.74,0Z"/>
      </g>
      <g>
        <rect class="cls-10" x="745.08" y="1648.32" width="261.39" height="249.41" transform="translate(-897.25 2648.79) rotate(-90)"/>
        <path class="cls-2" d="m1003.31,1639.36v267.33h-255.08v-267.33h255.08Zm-5.67,261.39v-255.44s-243.74,0-243.74,0v255.44s243.74,0,243.74,0Z"/>
      </g>
      <g>
        <rect class="cls-10" x="843.1" y="1811.69" width="65.35" height="249.41" transform="translate(-1060.62 2812.16) rotate(-90)"/>
        <path class="cls-2" d="m1003.31,1900.75v71.29h-255.08v-71.29h255.08Zm-5.67,65.35v-59.4s-243.74,0-243.74,0v59.4s243.74,0,243.74,0Z"/>
      </g>
      <g>
        <rect class="cls-10" x="994.49" y="341.37" width="261.39" height="249.41" transform="translate(659.11 1591.25) rotate(-90)"/>
        <path class="cls-2" d="m1252.72,332.41v267.34h-255.08v-267.34h255.08Zm-5.67,261.39v-255.44s-243.74,0-243.74,0v255.44s243.74,0,243.74,0Z"/>
      </g>
      <g>
        <rect class="cls-10" x="994.49" y="602.76" width="261.39" height="249.41" transform="translate(397.72 1852.64) rotate(-90)"/>
        <path class="cls-2" d="m1252.72,593.8v267.34h-255.08v-267.34h255.08Zm-5.67,261.39v-255.44s-243.74,0-243.74,0v255.44s243.74,0,243.74,0Z"/>
      </g>
      <g>
        <rect class="cls-10" x="994.49" y="864.15" width="261.39" height="249.41" transform="translate(136.33 2114.03) rotate(-90)"/>
        <path class="cls-2" d="m1252.72,855.19v267.34h-255.08v-267.34h255.08Zm-5.67,261.39v-255.44s-243.74,0-243.74,0v255.44s243.74,0,243.74,0Z"/>
      </g>
      <g>
        <rect class="cls-10" x="994.49" y="1125.54" width="261.39" height="249.41" transform="translate(-125.06 2375.42) rotate(-90)"/>
        <path class="cls-2" d="m1252.72,1116.58v267.33h-255.08v-267.33h255.08Zm-5.67,261.39v-255.44s-243.74,0-243.74,0v255.44s243.74,0,243.74,0Z"/>
      </g>
      <g>
        <rect class="cls-10" x="994.49" y="1386.93" width="261.39" height="249.41" transform="translate(-386.45 2636.81) rotate(-90)"/>
        <path class="cls-2" d="m1252.72,1377.97v267.34h-255.08v-267.34h255.08Zm-5.67,261.39v-255.44s-243.74,0-243.74,0v255.44s243.74,0,243.74,0Z"/>
      </g>
      <g>
        <rect class="cls-10" x="994.49" y="1648.32" width="261.39" height="249.41" transform="translate(-647.84 2898.2) rotate(-90)"/>
        <path class="cls-2" d="m1252.72,1639.36v267.33h-255.08v-267.33h255.08Zm-5.67,261.39v-255.44s-243.74,0-243.74,0v255.44s243.74,0,243.74,0Z"/>
      </g>
      <g>
        <rect class="cls-10" x="1092.51" y="1811.69" width="65.35" height="249.41" transform="translate(-811.21 3061.57) rotate(-90)"/>
        <path class="cls-2" d="m1252.72,1900.75v71.29h-255.08v-71.29h255.08Zm-5.67,65.35v-59.4s-243.74,0-243.74,0v59.4s243.74,0,243.74,0Z"/>
      </g>
      <g>
        <rect class="cls-10" x="1243.9" y="341.37" width="261.39" height="249.41" transform="translate(908.52 1840.66) rotate(-90)"/>
        <path class="cls-2" d="m1502.13,332.41v267.34h-255.08v-267.34h255.08Zm-5.67,261.39v-255.44s-243.74,0-243.74,0v255.44s243.74,0,243.74,0Z"/>
      </g>
      <g>
        <rect class="cls-10" x="1243.9" y="602.76" width="261.39" height="249.41" transform="translate(647.13 2102.05) rotate(-90)"/>
        <path class="cls-2" d="m1502.13,593.8v267.34h-255.08v-267.34h255.08Zm-5.67,261.39v-255.44s-243.74,0-243.74,0v255.44s243.74,0,243.74,0Z"/>
      </g>
      <g>
        <rect class="cls-10" x="1243.9" y="864.15" width="261.39" height="249.41" transform="translate(385.74 2363.44) rotate(-90)"/>
        <path class="cls-2" d="m1502.13,855.19v267.34h-255.08v-267.34h255.08Zm-5.67,261.39v-255.44s-243.74,0-243.74,0v255.44s243.74,0,243.74,0Z"/>
      </g>
      <g>
        <rect class="cls-10" x="1243.9" y="1125.54" width="261.39" height="249.41" transform="translate(124.35 2624.83) rotate(-90)"/>
        <path class="cls-2" d="m1502.13,1116.58v267.33h-255.08v-267.33h255.08Zm-5.67,261.39v-255.44s-243.74,0-243.74,0v255.44s243.74,0,243.74,0Z"/>
      </g>
      <g>
        <rect class="cls-10" x="1243.9" y="1386.93" width="261.39" height="249.41" transform="translate(-137.04 2886.22) rotate(-90)"/>
        <path class="cls-2" d="m1502.13,1377.97v267.34h-255.08v-267.34h255.08Zm-5.67,261.39v-255.44s-243.74,0-243.74,0v255.44s243.74,0,243.74,0Z"/>
      </g>
      <g>
        <rect class="cls-10" x="1243.9" y="1648.32" width="261.39" height="249.41" transform="translate(-398.43 3147.61) rotate(-90)"/>
        <path class="cls-2" d="m1502.13,1639.36v267.33h-255.08v-267.33h255.08Zm-5.67,261.39v-255.44s-243.74,0-243.74,0v255.44s243.74,0,243.74,0Z"/>
      </g>
      <g>
        <rect class="cls-10" x="1341.92" y="1811.69" width="65.35" height="249.41" transform="translate(-561.8 3310.98) rotate(-90)"/>
        <path class="cls-2" d="m1502.13,1900.75v71.29h-255.08v-71.29h255.08Zm-5.67,65.35v-59.4s-243.74,0-243.74,0v59.4s243.74,0,243.74,0Z"/>
      </g>
      <g>
        <rect class="cls-10" x="1493.3" y="341.37" width="261.39" height="249.41" transform="translate(1157.92 2090.07) rotate(-90)"/>
        <path class="cls-2" d="m1751.54,332.41v267.34h-255.08v-267.34h255.08Zm-5.67,261.39v-255.44s-243.74,0-243.74,0v255.44s243.74,0,243.74,0Z"/>
      </g>
      <g>
        <rect class="cls-10" x="1493.3" y="602.76" width="261.39" height="249.41" transform="translate(896.54 2351.46) rotate(-90)"/>
        <path class="cls-2" d="m1751.54,593.8v267.34h-255.08v-267.34h255.08Zm-5.67,261.39v-255.44s-243.74,0-243.74,0v255.44s243.74,0,243.74,0Z"/>
      </g>
      <g>
        <rect class="cls-10" x="1493.3" y="864.15" width="261.39" height="249.41" transform="translate(635.15 2612.85) rotate(-90)"/>
        <path class="cls-2" d="m1751.54,855.19v267.34h-255.08v-267.34h255.08Zm-5.67,261.39v-255.44s-243.74,0-243.74,0v255.44s243.74,0,243.74,0Z"/>
      </g>
      <g>
        <rect class="cls-10" x="1493.3" y="1125.54" width="261.39" height="249.41" transform="translate(373.76 2874.24) rotate(-90)"/>
        <path class="cls-2" d="m1751.54,1116.58v267.33h-255.08v-267.33h255.08Zm-5.67,261.39v-255.44s-243.74,0-243.74,0v255.44s243.74,0,243.74,0Z"/>
      </g>
      <g>
        <rect class="cls-10" x="1493.3" y="1386.93" width="261.39" height="249.41" transform="translate(112.37 3135.63) rotate(-90)"/>
        <path class="cls-2" d="m1751.54,1377.97v267.34h-255.08v-267.34h255.08Zm-5.67,261.39v-255.44s-243.74,0-243.74,0v255.44s243.74,0,243.74,0Z"/>
      </g>
      <g>
        <rect class="cls-10" x="1493.3" y="1648.32" width="261.39" height="249.41" transform="translate(-149.02 3397.02) rotate(-90)"/>
        <path class="cls-2" d="m1751.54,1639.36v267.33h-255.08v-267.33h255.08Zm-5.67,261.39v-255.44s-243.74,0-243.74,0v255.44s243.74,0,243.74,0Z"/>
      </g>
      <g>
        <rect class="cls-10" x="1591.33" y="1811.69" width="65.35" height="249.41" transform="translate(-312.39 3560.39) rotate(-90)"/>
        <path class="cls-2" d="m1751.54,1900.75v71.29h-255.08v-71.29h255.08Zm-5.67,65.35v-59.4s-243.74,0-243.74,0v59.4s243.74,0,243.74,0Z"/>
      </g>
      <g>
        <rect class="cls-10" x="1742.71" y="341.37" width="261.39" height="249.41" transform="translate(1407.33 2339.48) rotate(-90)"/>
        <path class="cls-2" d="m2000.95,332.41v267.34h-255.08v-267.34h255.08Zm-5.67,261.39v-255.44s-243.74,0-243.74,0v255.44s243.74,0,243.74,0Z"/>
      </g>
      <g>
        <rect class="cls-10" x="1742.71" y="602.76" width="261.39" height="249.41" transform="translate(1145.95 2600.87) rotate(-90)"/>
        <path class="cls-2" d="m2000.95,593.8v267.34h-255.08v-267.34h255.08Zm-5.67,261.39v-255.44s-243.74,0-243.74,0v255.44s243.74,0,243.74,0Z"/>
      </g>
      <g>
        <rect class="cls-10" x="1742.71" y="864.15" width="261.39" height="249.41" transform="translate(884.56 2862.26) rotate(-90)"/>
        <path class="cls-2" d="m2000.95,855.19v267.34h-255.08v-267.34h255.08Zm-5.67,261.39v-255.44s-243.74,0-243.74,0v255.44s243.74,0,243.74,0Z"/>
      </g>
      <g>
        <rect class="cls-10" x="1742.71" y="1125.54" width="261.39" height="249.41" transform="translate(623.17 3123.65) rotate(-90)"/>
        <path class="cls-2" d="m2000.95,1116.58v267.33h-255.08v-267.33h255.08Zm-5.67,261.39v-255.44s-243.74,0-243.74,0v255.44s243.74,0,243.74,0Z"/>
      </g>
      <g>
        <rect class="cls-10" x="1742.71" y="1386.93" width="261.39" height="249.41" transform="translate(361.78 3385.04) rotate(-90)"/>
        <path class="cls-2" d="m2000.95,1377.97v267.34h-255.08v-267.34h255.08Zm-5.67,261.39v-255.44s-243.74,0-243.74,0v255.44s243.74,0,243.74,0Z"/>
      </g>
      <g>
        <rect class="cls-10" x="1742.71" y="1648.32" width="261.39" height="249.41" transform="translate(100.39 3646.43) rotate(-90)"/>
        <path class="cls-2" d="m2000.95,1639.36v267.33h-255.08v-267.33h255.08Zm-5.67,261.39v-255.44s-243.74,0-243.74,0v255.44s243.74,0,243.74,0Z"/>
      </g>
      <g>
        <rect class="cls-10" x="1840.74" y="1811.69" width="65.35" height="249.41" transform="translate(-62.98 3809.8) rotate(-90)"/>
        <path class="cls-2" d="m2000.95,1900.75v71.29h-255.08v-71.29h255.08Zm-5.67,65.35v-59.4s-243.74,0-243.74,0v59.4s243.74,0,243.74,0Z"/>
      </g>
    </g>
  </g>
  <g id="Layer_1" data-name="Layer 1">
    <g>
      <g class="cls-5">
        <g id="LWPOLYLINE">
          <polygon class="cls-9" points="198.17 112.35 198.17 72.22 209.81 72.22 209.81 12.04 151.62 12.04 151.62 112.35 198.17 112.35 198.17 112.35"/>
        </g>
        <g id="LWPOLYLINE-2" data-name="LWPOLYLINE">
          <polygon class="cls-9" points="1036.11 112.35 1036.11 72.22 1024.47 72.22 1024.47 12.04 1082.66 12.04 1082.66 112.35 1036.11 112.35 1036.11 112.35"/>
        </g>
        <g id="LWPOLYLINE-3" data-name="LWPOLYLINE">
          <rect class="cls-9" x="198.17" y="112.35" width="46.55" height="722.19"/>
        </g>
      </g>
      <g id="ARC">
        <path class="cls-2" d="m1024.44,100.31c0,25.13-1.51,50.46-4.48,75.3l-5.27-.47c2.96-24.69,4.46-49.86,4.46-74.83h5.29Zm-7.98,100.26c-3.99,24.84-9.54,49.76-16.51,74.05l-5.14-1.1c6.92-24.14,12.44-48.9,16.4-73.58l5.24.62Zm-24,98.36c-7.95,24.1-17.49,48.11-28.33,71.37l-4.91-1.7c10.77-23.11,20.25-46.97,28.15-70.92l5.09,1.25Zm-39.71,94.59c-11.77,22.9-25.09,45.53-39.59,67.27l-4.59-2.27c14.41-21.6,27.64-44.09,39.34-66.84l4.84,1.85Zm-54.59,88.88c-15.34,21.26-32.17,42.09-50.02,61.89l-4.18-2.8c17.73-19.68,34.46-40.37,49.7-61.5l4.5,2.41Zm-68.32,81.49c-18.61,19.24-38.6,37.86-59.43,55.35l-3.69-3.27c20.7-17.38,40.57-35.89,59.06-55.01l4.07,2.92Zm-80.67,72.59c-21.52,16.86-44.29,32.94-67.7,47.77l-3.14-3.68c23.26-14.75,45.89-30.72,67.28-47.48l3.56,3.38Zm-91.47,62.31c-24.01,14.15-49.14,27.36-74.69,39.26l-2.52-4.01c25.39-11.83,50.36-24.95,74.22-39.01l2.99,3.77Zm-100.54,50.81c-26.06,11.15-53.08,21.23-80.3,29.96l-1.85-4.28c27.06-8.67,53.9-18.69,79.8-29.77l2.35,4.09Zm-107.83,38.31c-27.58,7.9-55.96,14.64-84.36,20.01l-1.14-4.46c28.22-5.34,56.42-12.03,83.83-19.89l1.67,4.33Zm-112.96,24.98c-28.54,4.51-57.73,7.78-86.76,9.71l-.41-4.55c28.85-1.92,57.86-5.17,86.21-9.65l.95,4.49Zm-115.89,11.22c-12.12.45-24.45.67-36.62.67v-4.56c12.1,0,24.34-.23,36.39-.67l.23,4.56Z"/>
      </g>
      <g id="LWPOLYLINE-4" data-name="LWPOLYLINE">
        <polygon class="cls-4" points="183.85 100.31 183.85 60.18 195.49 60.18 195.49 0 137.29 0 137.29 100.31 183.85 100.31 183.85 100.31"/>
      </g>
      <g id="LWPOLYLINE-5" data-name="LWPOLYLINE">
        <polygon class="cls-4" points="1021.79 100.31 1021.79 60.18 1010.15 60.18 1010.15 0 1068.34 0 1068.34 100.31 1021.79 100.31 1021.79 100.31"/>
      </g>
      <g id="LWPOLYLINE-6" data-name="LWPOLYLINE">
        <rect class="cls-4" x="183.85" y="100.31" width="46.55" height="722.19"/>
      </g>
    </g>
    <g>
      <path class="cls-6" d="m1307.36,1838.37v-185.28s0,185.28,0,185.28Z"/>
      <path class="cls-6" d="m1310.36,1838.37h-3s3,0,3,0Z"/>
      <polygon class="cls-6" points="1307.36 1838.37 1307.36 1653.09 1299.7 1647.34 1296.33 1643.64 1292.02 1636.96 1289.15 1629.76 1287.65 1621.71 1287.64 1614.66 1294.33 1069 1296.36 1041 1300.19 1023.93 1303.79 1012.92 1310.36 997.76 1317.62 984.89 1326.13 972.79 1335.99 961.43 1346.19 951.84 1357.96 942.84 1370.04 935.44 1384.88 928.47 1397.64 924.11 1409.89 921.2 1626.45 921.2 1639.62 924.38 1651.5 928.49 1668.26 936.53 1678.67 943.04 1691.76 953.24 1700.65 961.75 1710.21 972.79 1717.7 983.27 1727.02 999.87 1732.01 1011.47 1737.13 1027.51 1739.78 1039.78 1741.64 1054.99 1742.02 1069 1748.7 1614.66 1748.52 1623.34 1747.41 1628.98 1744.32 1636.96 1740.19 1643.42 1734.8 1649.02 1728.98 1653.09 1728.98 1838.37 1307.36 1838.37 1307.36 1838.37 1307.36 1838.37"/>
      <polygon class="cls-6" points="1287.64 1614.66 1287.65 1613.98 1287.65 1621.71 1287.64 1614.66"/>
      <polygon class="cls-6" points="1287.65 1621.71 1287.65 1613.98 1289.15 1491.11 1287.65 1621.71"/>
      <path class="cls-6" d="m1307.36,1004.68l3-6.92-3,6.92Z"/>
      <path class="cls-6" d="m1310.36,997.76l7.25-12.87-7.25,12.87Z"/>
      <path class="cls-6" d="m1317.62,984.89l8.51-12.1-8.51,12.1Z"/>
      <path class="cls-6" d="m1326.13,972.79l9.87-11.35-9.87,11.35Z"/>
      <path class="cls-6" d="m1335.99,961.43l10.2-9.59-10.2,9.59Z"/>
      <path class="cls-6" d="m1346.19,951.84l11.77-9-11.77,9Z"/>
      <path class="cls-6" d="m1357.96,942.84l12.08-7.4-12.08,7.4Z"/>
      <path class="cls-6" d="m1370.04,935.44l14.85-6.97-14.85,6.97Z"/>
      <path class="cls-6" d="m1384.88,928.47l12.76-4.36-12.76,4.36Z"/>
      <path class="cls-6" d="m1397.64,924.11l12.25-2.91-12.25,2.91Z"/>
      <polygon class="cls-6" points="1748.52 1623.34 1747.41 1509.15 1748.52 1599.85 1748.52 1623.34"/>
      <polygon class="cls-6" points="1748.52 1623.34 1748.52 1599.85 1748.7 1614.66 1748.52 1623.34"/>
      <g id="WIPEOUT">
        <polygon class="cls-12" points="1268.76 1603.9 1268.77 1603.21 1268.77 1610.94 1268.76 1603.9"/>
        <polygon class="cls-12" points="1268.77 1610.94 1268.77 1603.21 1270.28 1480.35 1268.77 1610.94"/>
        <path class="cls-12" d="m1288.48,1838.37v-196.04s0,196.04,0,196.04Z"/>
        <path class="cls-12" d="m1291.48,1838.37h-3s3,0,3,0Z"/>
        <path class="cls-12" d="m1288.48,993.92l3-6.92-3,6.92Z"/>
        <path class="cls-12" d="m1291.48,987l7.26-12.87-7.26,12.87Z"/>
        <path class="cls-12" d="m1298.74,974.13l8.51-12.1-8.51,12.1Z"/>
        <path class="cls-12" d="m1307.25,962.03l9.87-11.35-9.87,11.35Z"/>
        <path class="cls-12" d="m1317.12,950.67l10.2-9.59-10.2,9.59Z"/>
        <path class="cls-12" d="m1327.32,941.08l11.77-9-11.77,9Z"/>
        <path class="cls-12" d="m1339.09,932.08l12.08-7.4-12.08,7.4Z"/>
        <path class="cls-12" d="m1351.16,924.68l14.85-6.97-14.85,6.97Z"/>
        <path class="cls-12" d="m1366.01,917.71l12.76-4.36-12.76,4.36Z"/>
        <path class="cls-12" d="m1378.76,913.35l12.25-2.91-12.25,2.91Z"/>
        <polygon class="cls-12" points="1729.65 1612.58 1728.53 1498.39 1729.65 1589.09 1729.65 1612.58"/>
        <polygon class="cls-12" points="1729.65 1612.58 1729.65 1589.09 1729.83 1603.9 1729.65 1612.58"/>
        <polygon class="cls-8" points="1288.48 1838.37 1288.48 1642.33 1280.82 1636.58 1277.45 1632.87 1273.14 1626.2 1270.28 1619 1268.77 1610.94 1268.76 1603.9 1275.45 1058.24 1277.48 1030.24 1281.31 1013.17 1284.92 1002.16 1291.48 987 1298.74 974.13 1307.25 962.03 1317.12 950.67 1327.32 941.08 1339.09 932.08 1351.16 924.68 1366.01 917.71 1378.76 913.35 1391.01 910.44 1607.58 910.44 1620.75 913.62 1632.62 917.73 1649.39 925.77 1659.79 932.28 1672.89 942.48 1681.77 950.99 1691.34 962.03 1698.82 972.51 1708.14 989.11 1713.13 1000.71 1718.25 1016.75 1720.9 1029.02 1722.76 1044.23 1723.14 1058.24 1729.83 1603.9 1729.65 1612.58 1728.53 1618.21 1725.45 1626.2 1721.31 1632.66 1715.92 1638.25 1710.1 1642.33 1710.1 1838.37 1288.48 1838.37 1288.48 1838.37 1288.48 1838.37"/>
      </g>
      <path class="cls-13" d="m1710.1,1838.37v-196.04c0-21.65-16.75-39.21-37.41-39.21h-346.8c-20.66,0-37.41,17.55-37.41,39.21v196.04s421.62,0,421.62,0Z"/>
      <path class="cls-8" d="m1307.19,1838.37v-196.04c0-10.83,8.37-19.6,18.71-19.6h346.8c10.33,0,18.71,8.78,18.71,19.6v196.04h-384.21Z"/>
      <g id="CIRCLE">
        <path class="cls-2" d="m1499.3,1762.57c-18.6,0-33.67-15.8-33.67-35.29,0-19.49,15.07-35.29,33.67-35.29,18.59,0,33.67,15.8,33.67,35.29,0,19.49-15.08,35.29-33.67,35.29h0Z"/>
      </g>
      <path class="cls-12" d="m1499.3,950.27c18.58-.03,37.15,1.25,55.57,3.83,43.23,7.33,79.12,38.97,93.42,82.35,14.96,82.36,15.24,166.9.82,249.37-11.05,37.56-39.28,66.85-75.24,78.04-24.41,6.17-49.47,9.06-74.57,8.58-25.1.48-50.16-2.4-74.57-8.58-35.95-11.19-64.19-40.47-75.23-78.04-14.42-82.46-14.14-167.01.82-249.37,14.3-43.38,50.19-75.01,93.42-82.35,18.42-2.58,36.99-3.86,55.57-3.83Z"/>
      <path class="cls-6" d="m1499.3,950.28c18.58-.03,37.15,1.24,55.57,3.83,35.93,6.09,66.77,28.96,84.38,61.4-18.11-23.35-44.02-39.46-73.29-44.42-18.42-2.57-36.99-3.86-55.57-3.82-18.58-.04-37.15,1.24-55.57,3.82-43.24,7.33-79.13,38.97-93.42,82.35-14.96,82.35-15.24,166.91-.82,249.37,2.37,8.06,5.54,15.73,9.39,22.94-9.1-11.62-16.12-25.13-20.48-39.93-14.42-82.46-14.14-167,.81-249.37,14.3-43.38,50.19-75.01,93.42-82.34,18.43-2.59,36.99-3.85,55.58-3.83Z"/>
      <path class="cls-2" d="m1499.3,1245.97c5.62-.01,11.22.9,16.59,2.69,18.02,4.5,33.02,17.53,40.55,35.27,7.22,26.49,10.9,53.93,10.91,81.48-22.33,5.1-45.18,7.45-68.05,7.02-22.87.43-45.72-1.92-68.05-7.02.01-27.55,3.69-54.98,10.91-81.48,7.53-17.75,22.54-30.78,40.55-35.27,5.36-1.79,10.96-2.71,16.59-2.69Z"/>
      <rect class="cls-9" x="1437.6" y="903.37" width="5.67" height=".16"/>
      <rect class="cls-9" x="1301.5" y="903.37" width="5.67" height=".16"/>
      <g id="CIRCLE-2" data-name="CIRCLE">
        <path class="cls-14" d="m1499.3,1756.03c-15.15,0-27.44-12.87-27.44-28.75,0-15.88,12.28-28.75,27.44-28.75,15.15,0,27.43,12.87,27.43,28.75,0,15.88-12.28,28.75-27.43,28.75h0Z"/>
      </g>
    </g>
    <path class="cls-6" d="m1059.81,1770.49h58.42s0,61.75,0,61.75h0c-4.5.31-9,.76-13.47,1.37-.5.07-.87.51-.87,1.04v12.28s56.12,0,56.12,0v-12.28c0-.52-.37-.97-.87-1.04-4.48-.61-8.97-1.07-13.47-1.37v-61.75s58.93,0,58.93,0v-36.68s-144.78,0-144.78,0v36.68Z"/>
    <g>
      <rect class="cls-13" x="1111.47" y="1744.17" width="27.44" height="83.93"/>
      <path class="cls-12" d="m1097.99,1824.85c4.48-.61,8.97-1.07,13.47-1.37h27.44c4.5.31,9,.77,13.47,1.38.5.07.87.51.87,1.04v12.28s-56.12,0-56.12,0v-12.28c0-.52.37-.97.87-1.04Z"/>
      <rect class="cls-8" x="1107.1" y="1671" width="36.68" height="144.78" transform="translate(-617.95 2868.83) rotate(-90)"/>
    </g>
    <g>
      <g class="cls-5">
        <path class="cls-9" d="m1858.48,1610.29v9.14s.09,0,.09,0c-.05.31-.09.63-.09.95v42.14s3.86,46.93,3.86,46.93h-.08s-5.65,1.42-5.65,1.42c-2.18,1.35-3.44,3.88-3.24,6.53.32,17.6,3.39,35.02,9.09,51.58h2.12s1.9,0,1.9,0h.06l.27,4.54h-12.07s0,65.94,0,65.94l-12.34,1.98h0v2.23s54.7,0,54.7,0h0s12.46,0,12.46,0h0s12.33,0,12.33,0v-2.23s-.01,0-.01,0l-12.32-1.98v-65.94s-12.07,0-12.07,0l.27-4.54h.09s3.99,0,3.99,0c5.7-16.56,8.77-33.98,9.1-51.58.19-2.64-1.06-5.18-3.24-6.53l-5.65-1.42h-.08s3.86-46.93,3.86-46.93v-43.09s0,.95,0,.95c0-.33-.04-.64-.09-.95h.09s0-9.14,0-9.14c0-2.88-2.23-5.22-4.98-5.22h-37.38c-2.75,0-4.98,2.34-4.98,5.22Z"/>
      </g>
      <path class="cls-8" d="m1849.75,1614.13v-9.14c0-2.88,2.23-5.22,4.98-5.22h37.38c2.75,0,4.98,2.34,4.98,5.23v9.14h-47.34Z"/>
      <path class="cls-14" d="m1853.53,1704.15l-5.65,1.42c-2.18,1.35-3.44,3.88-3.24,6.53.32,17.6,3.39,35.02,9.09,51.58h2.12s1.9,0,1.9,0h31.37s3.99,0,3.99,0c5.7-16.56,8.77-33.98,9.1-51.58.2-2.64-1.06-5.18-3.24-6.53l-5.65-1.42h-39.78Z"/>
      <g id="LINE">
        <rect class="cls-9" x="1849.75" y="1652.65" width="47.34" height="1.31"/>
      </g>
      <polygon class="cls-12" points="1888.36 1774.74 1890.86 1732.96 1855.97 1732.96 1858.46 1774.74 1888.36 1774.74"/>
      <path class="cls-13" d="m1890.86,1732.96l6.23-75.73v-43.09s0,.96,0,.96c0-2.88-2.23-5.22-4.98-5.22h-37.38c-2.75,0-4.98,2.34-4.98,5.22v-.95s0,43.09,0,43.09l6.22,75.73h34.89Z"/>
      <g id="LINE-2" data-name="LINE">
        <polygon class="cls-9" points="1889.11 1763.02 1889.11 1764.33 1889.08 1763.02 1889.11 1763.02"/>
      </g>
      <rect class="cls-13" x="1833.66" y="1836.14" width="79.49" height="2.23"/>
      <polygon class="cls-13" points="1833.66 1836.14 1857.21 1832.35 1889.61 1832.35 1913.15 1836.14 1833.66 1836.14"/>
      <rect class="cls-8" x="1888.36" y="1768.22" width="12.46" height="70.16"/>
      <rect class="cls-8" x="1846" y="1768.21" width="12.46" height="70.16"/>
      <rect class="cls-13" x="1858.46" y="1774.74" width="29.9" height="27.42"/>
      <rect class="cls-12" x="1858.32" y="1802.31" width="30.19" height="29.9" transform="translate(56.15 3690.67) rotate(-90)"/>
    </g>
    <g>
      <g id="LWPOLYLINE-7" data-name="LWPOLYLINE" class="cls-5">
        <path class="cls-9" d="m190.41,1838.37v-532.58c0-7.22,5.58-13.07,12.47-13.07h660.94c6.89,0,12.47,5.85,12.47,13.07v532.58H190.41Z"/>
      </g>
      <g id="LWPOLYLINE-8" data-name="LWPOLYLINE">
        <path class="cls-13" d="m158.72,1838.18v-561.8c0-7.22,5.58-13.07,12.47-13.07h660.94c6.89,0,12.47,5.85,12.47,13.07v561.8H158.72Z"/>
      </g>
      <g id="LWPOLYLINE-9" data-name="LWPOLYLINE">
        <rect class="cls-8" x="158.72" y="1733.81" width="685.88" height="104.56"/>
      </g>
      <g id="LWPOLYLINE-10" data-name="LWPOLYLINE">
        <path class="cls-12" d="m196.13,1733.81h611.05s0-411.69,0-411.69c0-3.61-2.79-6.53-6.24-6.53H202.36c-3.44,0-6.24,2.92-6.24,6.53v411.69Z"/>
      </g>
      <g id="LWPOLYLINE-11" data-name="LWPOLYLINE" class="cls-5">
        <path class="cls-9" d="m202.36,1315.59h598.58c3.44,0,6.24,2.93,6.24,6.53v11.76H214.83c-3.44,0-6.23,2.93-6.23,6.53v393.39h-12.47v-411.69c0-3.61,2.79-6.53,6.24-6.53Z"/>
      </g>
      <g>
        <ellipse class="cls-3" cx="501.65" cy="1603.01" rx="52.91" ry="55.45"/>
        <path class="cls-15" d="m501.65,1569.79c17.51,0,31.7,14.87,31.7,33.22,0,18.35-14.19,33.22-31.7,33.22-17.51,0-31.7-14.87-31.7-33.22,0-18.35,14.19-33.22,31.7-33.22Z"/>
      </g>
      <path class="cls-6" d="m493.41,1655.13c0,.19,0,.38.01.57v113.75c-10.28,4.75-17.99,14.45-20.4,26.22h-2.06c-.35,0-.62.29-.62.65v14.38c0,.36.28.65.62.65h2.06c2.92,14.27,13.64,25.49,27.25,28.55v2.16c0,.36.28.65.62.65h13.72c.34,0,.62-.29.62-.65v-2.17c13.6-3.06,24.31-14.29,27.23-28.55h2.08c.34,0,.62-.29.62-.65v-14.38c0-.36-.28-.65-.62-.65h-2.08c-2.41-11.76-10.11-21.45-20.37-26.21v-113.76c.29-8.29-5.88-15.27-13.79-15.59-.18,0-.37-.01-.55-.01-7.92,0-14.34,6.73-14.34,15.03Z"/>
      <g>
        <path class="cls-3" d="m501.65,1761.94c-19.62,0-35.52,16.67-35.52,37.22,0,20.56,15.9,37.22,35.52,37.22,19.62,0,35.52-16.67,35.52-37.22,0-20.56-15.9-37.22-35.52-37.22Z"/>
        <path class="cls-14" d="m487.32,1781.21v-129.86c0-.19,0-.38,0-.57,0-8.3,6.42-15.03,14.34-15.03.18,0,.37,0,.55.01,7.91.32,14.09,7.3,13.78,15.59v129.86s-28.67,0-28.67,0Z"/>
        <path class="cls-2" d="m487.32,1783.15v-124.09c0-.19,0-.38,0-.57,0-8.3,6.42-15.03,14.34-15.03.18,0,.37,0,.55.01,7.91.32,14.09,7.3,13.78,15.59v124.09s-28.67,0-28.67,0Z"/>
        <path class="cls-14" d="m501.65,1773.54c13.5,0,24.45,11.47,24.45,25.63,0,14.15-10.95,25.62-24.45,25.62-13.5,0-24.45-11.47-24.45-25.62,0-14.15,10.95-25.63,24.45-25.63Z"/>
        <g>
          <path class="cls-12" d="m494.17,1837.72v-28.1c0-1.44-1.12-2.61-2.49-2.61h-26.81c-.34,0-.62-.29-.62-.65v-14.38c0-.36.28-.65.62-.65h26.81c1.38,0,2.49-1.17,2.49-2.61v-28.1c0-.36.28-.65.62-.65h13.72c.34,0,.62.29.62.65v28.1c0,1.44,1.12,2.61,2.49,2.61h26.81c.34,0,.62.29.62.65v14.38c0,.36-.28.65-.62.65h-26.81c-1.38,0-2.49,1.17-2.49,2.61v28.1c0,.36-.28.65-.62.65h-13.72c-.34,0-.62-.29-.62-.65Z"/>
          <g class="cls-11">
            <path class="cls-9" d="m537.05,1804.88h-26.81c-1.38,0-2.49,1.17-2.49,2.61v28.1c0,.36-.28.65-.62.65l-12.95,1.47c0,.36.28.65.62.65h13.72c.34,0,.62-.29.62-.65v-28.1c0-1.44,1.12-2.61,2.49-2.61h26.81c.34,0,.62-.29.62-.65v-14.38c0-.36-.28-.65-.62-.65l-.77,12.91c0,.36-.28.65-.62.65Z"/>
            <path class="cls-9" d="m509.16,1788.93c0-.07-.02-.14-.02-.22v-28.1c0-.36-.28-.65-.62-.65h-.77s.58,28.55,1.41,28.97Z"/>
            <path class="cls-9" d="m464.24,1804.88v1.47c0,.36.28.65.62.65h26.81c.39,0,.75.1,1.08.27-.11-1.34-28.52-2.39-28.52-2.39Z"/>
          </g>
          <g class="cls-5">
            <path class="cls-1" d="m494.15,1809.4c0,.07.02.15.02.22v28.1c0,.36.28.65.62.65,0,0,.19-28.55-.65-28.97Z"/>
            <path class="cls-1" d="m539.07,1791.97c0-.36-.28-.65-.62-.65h-26.81c-.39,0-.75-.1-1.08-.27.11,1.34,28.52.92,28.52.92Z"/>
            <path class="cls-1" d="m494.17,1760.61v28.1c0,1.44-1.12,2.61-2.49,2.61h-26.81c-.34,0-.62.29-.62.65v14.38c0,.36,1.39-12.25,1.39-12.25,0-.36.28-.65.62-.65h26.81c1.38,0,2.49-1.17,2.49-2.61v-28.1c0-.36.28-.65.62-.65,0,0,12.67-2.12,12.33-2.12h-13.72c-.34,0-.62.29-.62.65Z"/>
          </g>
        </g>
      </g>
    </g>
    <g id="LWPOLYLINE-12" data-name="LWPOLYLINE">
      <rect class="cls-7" x="2.84" y="1838.37" width="1995.28" height="130.7"/>
    </g>
  </g>
</svg>