<?xml version="1.0" encoding="UTF-8"?>
<svg xmlns="http://www.w3.org/2000/svg" xmlns:xlink="http://www.w3.org/1999/xlink" viewBox="0 0 499.141 494.008">
  <defs>
    <style>
      .cls-1 {
        opacity: .13;
      }

      .cls-2 {
        fill: #555;
      }

      .cls-3 {
        fill: url(#Sky-3);
      }

      .cls-4, .cls-5, .cls-6 {
        fill: #fff;
      }

      .cls-5, .cls-7 {
        mix-blend-mode: multiply;
      }

      .cls-7 {
        fill: #ddd3cc;
      }

      .cls-6 {
        fill-rule: evenodd;
      }

      .cls-8 {
        fill: url(#Sky-2);
      }

      .cls-9 {
        isolation: isolate;
      }

      .cls-10 {
        fill: #d6d8d8;
      }

      .cls-11 {
        fill: #c69c6d;
      }

      .cls-12 {
        fill: url(#Earthtone_21-2);
      }

      .cls-13 {
        fill: #b3b6ba;
      }

      .cls-14 {
        fill: #f9ddcf;
        opacity: .5;
      }

      .cls-15 {
        clip-path: url(#clippath);
      }

      .cls-16 {
        fill: none;
      }

      .cls-17 {
        fill: url(#Earthtone_21);
      }

      .cls-18 {
        fill: url(#Sky);
      }

      .cls-19 {
        fill: #888;
      }
    </style>
    <clipPath id="clippath">
      <rect class="cls-16" x="158.141" width="331.59" height="334.808"/>
    </clipPath>
    <linearGradient id="Earthtone_21" data-name="Earthtone 21" x1="661.058" y1="-367.539" x2="284.309" y2="44.46" gradientTransform="translate(-171.016 226.505)" gradientUnits="userSpaceOnUse">
      <stop offset="0" stop-color="#b85e42"/>
      <stop offset=".5" stop-color="#9f2214"/>
      <stop offset="1" stop-color="#700101"/>
    </linearGradient>
    <linearGradient id="Earthtone_21-2" data-name="Earthtone 21" x1="782.263" y1="-256.511" x2="405.51" y2="155.493" xlink:href="#Earthtone_21"/>
    <linearGradient id="Sky" x1="1278.027" y1="777.431" x2="1278.027" y2="734.926" gradientTransform="translate(-542.263 1531.112) rotate(-90)" gradientUnits="userSpaceOnUse">
      <stop offset="0" stop-color="#cce0f4"/>
      <stop offset=".064" stop-color="#c2dcf2"/>
      <stop offset=".171" stop-color="#a9d2ee"/>
      <stop offset=".307" stop-color="#7fc2e7"/>
      <stop offset=".465" stop-color="#46abdd"/>
      <stop offset=".567" stop-color="#1e9cd7"/>
      <stop offset=".865" stop-color="#0075be"/>
      <stop offset=".994" stop-color="#005b97"/>
    </linearGradient>
    <linearGradient id="Sky-2" data-name="Sky" x1="1278.027" y1="771.982" x2="1278.027" y2="740.379" xlink:href="#Sky"/>
    <linearGradient id="Sky-3" data-name="Sky" x1="200.345" y1="253.084" x2="208.918" y2="253.084" gradientTransform="matrix(1,0,0,1,0,0)" xlink:href="#Sky"/>
  </defs>
  <g class="cls-9">
    <g id="Layer_1" data-name="Layer 1">
      <g class="cls-15">
        <g>
          <rect class="cls-17" x=".09" y="5.042" width="488.355" height="245.39"/>
          <path class="cls-14" d="m407.281,5.186H0v245.245h488.362V5.186h-81.08ZM82.915,167.457v-79.295h79.26v79.295h-79.26Zm81.104,0v-79.295h79.246v79.295h-79.246Zm81.077,0v-79.295h79.26v79.295h-79.26Zm81.104,0v-79.295h79.26v79.295h-79.26ZM405.461,7.013v79.315h-79.26V7.013h79.26Zm-81.104,0v79.315h-79.26V7.013h79.26Zm-81.091,0v79.315h-79.246V7.013h79.246Zm-81.091,0v79.315h-79.26V7.013h79.26ZM1.824,7.013h79.267v79.315H1.824V7.013Zm0,81.149h79.267v79.295H1.824v-79.295Zm0,160.45v-79.322h79.267v79.322H1.824Zm81.091,0v-79.322h79.26v79.322h-79.26Zm81.104,0v-79.322h79.246v79.322h-79.246Zm81.077,0v-79.322h79.26v79.322h-79.26Zm81.104,0v-79.322h79.26v79.322h-79.26Zm160.34,0h-79.26v-79.322h79.26v79.322Zm0-81.156h-79.26v-79.295h79.26v79.295Zm-79.26-81.129V7.013h79.26v79.315h-79.26Z"/>
          <rect class="cls-12" x=".09" y="248.612" width="488.355" height="245.396"/>
          <path class="cls-14" d="m407.281,248.756H0v245.253h488.362v-245.253h-81.08ZM82.915,411.04v-79.315h79.26v79.315h-79.26Zm81.104,0v-79.315h79.246v79.315h-79.246Zm81.077,0v-79.315h79.26v79.315h-79.26Zm81.104,0v-79.315h79.26v79.315h-79.26Zm79.26-160.45v79.315h-79.26v-79.315h79.26Zm-81.104,0v79.315h-79.26v-79.315h79.26Zm-81.091,0v79.315h-79.246v-79.315h79.246Zm-81.091,0v79.315h-79.26v-79.315h79.26Zm-160.351,0h79.267v79.315H1.824v-79.315Zm0,81.135h79.267v79.315H1.824v-79.315Zm0,160.456v-79.315h79.267v79.315H1.824Zm81.091,0v-79.315h79.26v79.315h-79.26Zm81.104,0v-79.315h79.246v79.315h-79.246Zm81.077,0v-79.315h79.26v79.315h-79.26Zm81.104,0v-79.315h79.26v79.315h-79.26Zm160.34,0h-79.26v-79.315h79.26v79.315Zm0-81.141h-79.26v-79.315h79.26v79.315Zm-79.26-81.135v-79.315h79.26v79.315h-79.26Z"/>
        </g>
      </g>
      <g>
        <g>
          <rect class="cls-4" x="487.106" y="316.949" width="11.066" height="11.657"/>
          <path class="cls-4" d="m486.143,315.921v13.701h12.997v-13.701h-12.997Zm1.937,11.664v-9.621s9.126,0,9.126,0v9.621s-9.126,0-9.126,0Z"/>
        </g>
        <g>
          <polygon class="cls-6" points="498.172 170.823 498.172 182.494 487.106 182.481 487.106 170.823 498.172 170.823"/>
          <path class="cls-4" d="m486.143,169.808v13.701h12.997v-13.701h-12.997Zm1.937,11.657v-9.621s9.126,0,9.126,0v9.635s-9.126-.013-9.126-.013Z"/>
        </g>
        <g>
          <path class="cls-4" d="m371.657,204.683c4.391,28.409,17.741,55.085,37.609,75.119,21.617,21.8,48.903,33.919,78.921,35.052l.022-.665c-65.364-2.491-107.786-57.016-115.914-109.617l-.637.112Z"/>
          <polygon class="cls-4" points="370.832 194.791 377.885 207.931 372.11 205.374 367.141 209.381 370.832 194.791"/>
        </g>
        <g>
          <path class="cls-4" d="m369.563,186.883h122.512s0,5.569,0,5.569h-122.512s0-5.569,0-5.569Z"/>
          <path class="cls-4" d="m367.95,185.183v8.962h125.731v-8.962h-125.731Zm3.219,5.575v-2.182s119.296,0,119.296,0v2.182s-119.296,0-119.296,0Z"/>
        </g>
      </g>
      <g>
        <path class="cls-4" d="m211.349,56.643v59.096c0,5.737,4.459,10.434,9.907,10.434l45.148-3.814c20.941-2.207,34.351-14.181,34.351-36.168h0c0-21.994-13.41-33.886-34.351-36.179l-45.148-3.806c-5.448,0-9.907,4.692-9.907,10.437Z"/>
        <path class="cls-10" d="m225.919,121.308l40.014-3.806c18.479-3.062,29.728-11.996,29.728-31.31h0c0-19.319-11.708-29.362-29.728-31.317l-40.014-3.81v70.243Z"/>
        <path class="cls-13" d="m180.103,62.725v46.926c0,10.064,7.819,18.299,17.378,18.299h0c9.553,0,17.372-8.234,17.372-18.299v-46.926c0-10.064-7.819-18.298-17.372-18.298h0c-9.559,0-17.378,8.233-17.378,18.298Z"/>
        <path class="cls-4" d="m153.586,69.232h82.636c.245,0,.443.199.443.443v30.73c0,1.511-1.227,2.738-2.738,2.738h-78.046c-1.511,0-2.738-1.227-2.738-2.738v-30.73c0-.244.198-.443.443-.443Z" transform="translate(108.716 281.093) rotate(-90)"/>
        <path class="cls-19" d="m177.949,47.265v77.846c0,1.565,1.204,2.838,2.697,2.838h.517c-1.486,0-2.697-1.272-2.697-2.838V47.265c0-1.565,1.212-2.838,2.697-2.838h-.517c-1.493,0-2.697,1.272-2.697,2.838Z"/>
        <path class="cls-2" d="m194.908,81.713c2.344,0,4.243,2.003,4.243,4.479s-1.899,4.472-4.243,4.472-4.25-2.003-4.25-4.472,1.899-4.479,4.25-4.479Z"/>
      </g>
      <g>
        <rect class="cls-7" x="192.568" y="282.504" width="275.824" height="31.849"/>
        <rect class="cls-7" x="192.568" y="300.104" width="275.824" height="14.248"/>
      </g>
      <g>
        <rect class="cls-7" x="193.374" y="12.264" width="33.545" height="302.141"/>
        <rect class="cls-7" x="193.374" y="12.264" width="15.009" height="302.141"/>
      </g>
      <g>
        <rect class="cls-5" x="192.795" y="12.193" width="276.706" height="31.849"/>
        <rect class="cls-5" x="192.795" y="12.193" width="276.706" height="14.248"/>
      </g>
      <path class="cls-7" d="m231.975,286.565c9.659-23.365,9.659-42.777,0-66.14-.162-.406-1.361-2.656-3.446-2.656h-43.503c-2.915,0-3.505,2.427-3.505,2.983v65.485c0,.557.586,2.981,3.505,2.981h43.503c2.11,0,3.284-2.249,3.446-2.653Z"/>
      <path class="cls-7" d="m234.377,286.762c9.659-23.365,9.659-42.777,0-66.14-.162-.406-1.361-2.656-3.446-2.656h-43.503c-2.915,0-3.505,2.427-3.505,2.983v65.485c0,.557.586,2.981,3.505,2.981h43.503c2.11,0,3.284-2.249,3.446-2.653Z"/>
      <g>
        <path class="cls-4" d="m231.88,220.015c9.658,23.363,9.658,42.775,0,66.14-.162.405-1.336,2.653-3.446,2.653h-43.503c-2.915,0-3.505-2.424-3.505-2.981v-65.485c0-.555.594-2.983,3.505-2.983h43.503c2.088,0,3.284,2.25,3.446,2.656Z"/>
        <g class="cls-1">
          <path class="cls-18" d="m228.921,224.82c8.33,20.16,8.33,36.369,0,56.529-.144.35-.992,2.564-3.291,2.564h-32.967v-61.655h32.967c2.011,0,3.147,2.212,3.291,2.562Z"/>
          <path class="cls-8" d="m225.077,228.46c6.19,16.415,6.19,32.834,0,49.25-.111.286-.399.479-.723.479h-26.237v-50.208h26.237c.325,0,.612.194.723.478Z"/>
          <path class="cls-3" d="m204.635,249.44c2.358,0,4.283,1.632,4.283,3.643,0,2.012-1.926,3.645-4.283,3.645-2.376,0-4.29-1.633-4.29-3.645,0-2.012,1.915-3.643,4.29-3.643Z"/>
        </g>
        <g>
          <path class="cls-11" d="m199.596,251.279c1.118,0,2.029.809,2.029,1.808h0c0,.998-.911,1.806-2.029,1.806h-7.176c-1.118,0-2.029-.808-2.029-1.806h0c0-.998.911-1.808,2.029-1.808h7.176Z"/>
          <path class="cls-11" d="m199.348,251.481c1.044,0,1.885.717,1.885,1.605h0c0,.886-.841,1.605-1.885,1.605h-6.681c-1.044,0-1.885-.719-1.885-1.605h0c0-.888.841-1.605,1.885-1.605h6.681Z"/>
          <path class="cls-11" d="m188.753,249.753c2.228,0,4.029,1.536,4.029,3.43,0,1.896-1.8,3.43-4.029,3.43s-4.036-1.534-4.036-3.43,1.808-3.43,4.036-3.43Z"/>
          <path class="cls-11" d="m188.753,250.794c1.55,0,2.811,1.07,2.811,2.389s-1.262,2.391-2.811,2.391-2.811-1.072-2.811-2.391,1.254-2.389,2.811-2.389Z"/>
        </g>
      </g>
    </g>
  </g>
</svg>