<?xml version="1.0" encoding="UTF-8"?>
<svg xmlns="http://www.w3.org/2000/svg" xmlns:xlink="http://www.w3.org/1999/xlink" viewBox="0 0 192.863 148.604">
  <defs>
    <style>
      .cls-1 {
        fill: url(#linear-gradient-2);
      }

      .cls-2 {
        fill: #555;
      }

      .cls-3 {
        fill: #fff;
      }

      .cls-4 {
        fill: #ddd3cc;
        mix-blend-mode: multiply;
      }

      .cls-5 {
        isolation: isolate;
      }

      .cls-6 {
        fill: #d6d8d8;
      }

      .cls-7 {
        fill: #2a2a2a;
      }

      .cls-8 {
        fill: #050200;
      }

      .cls-9 {
        fill: #01090c;
      }

      .cls-10 {
        fill: url(#Earthtone_21-2);
      }

      .cls-11 {
        fill: #b3b6ba;
      }

      .cls-12 {
        fill: #f9ddcf;
        opacity: .5;
      }

      .cls-13 {
        clip-path: url(#clippath);
      }

      .cls-14 {
        fill: none;
      }

      .cls-15 {
        fill: #999;
      }

      .cls-16 {
        fill: url(#Earthtone_21);
      }

      .cls-17 {
        fill: url(#linear-gradient);
      }

      .cls-18 {
        fill: #888;
      }
    </style>
    <clipPath id="clippath">
      <rect class="cls-14" x="48.101" width="100.858" height="100.715"/>
    </clipPath>
    <linearGradient id="Earthtone_21" data-name="Earthtone 21" x1="319.777" y1="-269.512" x2="205.631" y2="-144.685" gradientTransform="translate(-171.016 226.505)" gradientUnits="userSpaceOnUse">
      <stop offset="0" stop-color="#b85e42"/>
      <stop offset=".5" stop-color="#9f2214"/>
      <stop offset="1" stop-color="#700101"/>
    </linearGradient>
    <linearGradient id="Earthtone_21-2" data-name="Earthtone 21" x1="356.499" y1="-236.399" x2="242.352" y2="-111.572" xlink:href="#Earthtone_21"/>
    <linearGradient id="linear-gradient" x1="60.148" y1="14.839" x2="81.489" y2="14.839" gradientUnits="userSpaceOnUse">
      <stop offset="0" stop-color="#dadada"/>
      <stop offset="1" stop-color="#cacaca"/>
    </linearGradient>
    <linearGradient id="linear-gradient-2" x1="60.148" y1="14.839" x2="81.489" y2="14.839" gradientUnits="userSpaceOnUse">
      <stop offset="0" stop-color="#bfbfbf"/>
      <stop offset="1" stop-color="#aaa"/>
    </linearGradient>
  </defs>
  <g class="cls-5">
    <g id="Layer_1" data-name="Layer 1">
      <g class="cls-13">
        <g>
          <rect class="cls-16" x=".027" y="1.517" width="148.54" height="73.816"/>
          <path class="cls-12" d="m123.881,1.56H0v73.773h148.542V1.56h-24.662ZM25.22,50.373v-23.853h24.108v23.853h-24.108Zm24.669,0v-23.853h24.104v23.853h-24.104Zm24.661,0v-23.853h24.108v23.853h-24.108Zm24.669,0v-23.853h24.108v23.853h-24.108ZM123.327,2.11v23.859h-24.108V2.11h24.108Zm-24.669,0v23.859h-24.108V2.11h24.108Zm-24.665,0v23.859h-24.104V2.11h24.104Zm-24.665,0v23.859h-24.108V2.11h24.108ZM.555,2.11h24.11v23.859H.555V2.11Zm0,24.411h24.11v23.853H.555v-23.853Zm0,48.266v-23.861h24.11v23.861H.555Zm24.665,0v-23.861h24.108v23.861h-24.108Zm24.669,0v-23.861h24.104v23.861h-24.104Zm24.661,0v-23.861h24.108v23.861h-24.108Zm24.669,0v-23.861h24.108v23.861h-24.108Zm48.77,0h-24.108v-23.861h24.108v23.861Zm0-24.413h-24.108v-23.853h24.108v23.853Zm-24.108-24.405V2.11h24.108v23.859h-24.108Z"/>
          <rect class="cls-10" x=".027" y="74.786" width="148.54" height="73.818"/>
          <path class="cls-12" d="m123.881,74.829H0v73.775h148.542v-73.775h-24.662ZM25.22,123.646v-23.859h24.108v23.859h-24.108Zm24.669,0v-23.859h24.104v23.859h-24.104Zm24.661,0v-23.859h24.108v23.859h-24.108Zm24.669,0v-23.859h24.108v23.859h-24.108Zm24.108-48.266v23.859h-24.108v-23.859h24.108Zm-24.669,0v23.859h-24.108v-23.859h24.108Zm-24.665,0v23.859h-24.104v-23.859h24.104Zm-24.665,0v23.859h-24.108v-23.859h24.108Zm-48.773,0h24.11v23.859H.555v-23.859Zm0,24.407h24.11v23.859H.555v-23.859Zm0,48.267v-23.859h24.11v23.859H.555Zm24.665,0v-23.859h24.108v23.859h-24.108Zm24.669,0v-23.859h24.104v23.859h-24.104Zm24.661,0v-23.859h24.108v23.859h-24.108Zm24.669,0v-23.859h24.108v23.859h-24.108Zm48.77,0h-24.108v-23.859h24.108v23.859Zm0-24.408h-24.108v-23.859h24.108v23.859Zm-24.108-24.407v-23.859h24.108v23.859h-24.108Z"/>
        </g>
      </g>
      <g>
        <g>
          <rect class="cls-3" x="148.893" y="59.085" width="3.714" height="3.484"/>
          <path class="cls-8" d="m152.929,58.778v4.095h-4.362v-4.095h4.362Zm-.65,3.486v-2.876h-3.062v2.876h3.062Z"/>
        </g>
        <g>
          <rect class="cls-3" x="148.893" y="15.409" width="3.714" height="3.486"/>
          <path class="cls-8" d="m152.929,15.106v4.095h-4.362v-4.095h4.362Zm-.65,3.484v-2.876h-3.062v2.88l3.062-.004Z"/>
        </g>
        <g>
          <path class="cls-9" d="m191.347,25.529c-1.473,8.491-5.953,16.465-12.62,22.453-7.254,6.516-16.41,10.138-26.483,10.477l-.007-.199c21.934-.744,36.169-17.042,38.897-32.764l.214.033Z"/>
          <polygon class="cls-9" points="191.624 22.573 189.257 26.5 191.195 25.736 192.863 26.934 191.624 22.573"/>
        </g>
        <g>
          <path class="cls-3" d="m192.05,20.209h-41.111v1.664h41.111v-1.664Z"/>
          <path class="cls-8" d="m192.591,19.701v2.679h-42.191v-2.679h42.191Zm-1.08,1.666v-.652h-40.032v.652h40.032Z"/>
        </g>
      </g>
      <path class="cls-3" d="m58.46,3.006h29.418c0,13.106-14.138,27.639-29.418,27.639V3.006Z"/>
      <path class="cls-17" d="m79.952,6.256c-3.049-2.854-9.607-1.332-14.65,3.386-5.046,4.749-6.662,10.926-3.613,13.782,3.044,2.854,9.605,1.328,14.646-3.388,5.042-4.747,6.662-10.924,3.616-13.78Z"/>
      <path class="cls-7" d="m69.334,15.399c1.059,0,1.922-.804,1.922-1.81,0-.979-.863-1.81-1.922-1.81s-1.926.831-1.926,1.81c0,1.007.864,1.81,1.926,1.81Z"/>
      <path class="cls-1" d="m79.952,6.256c-3.049-2.854-9.607-1.332-14.65,3.386-5.046,4.749-6.662,10.926-3.613,13.782,3.044,2.854,9.605,1.328,14.646-3.388,5.042-4.747,6.662-10.924,3.616-13.78Zm-5.189,12.299c-3.604,3.37-8.293,4.462-10.469,2.421-2.179-2.043-1.025-6.459,2.583-9.85,3.603-3.372,8.292-4.462,10.47-2.421,2.177,2.041,1.02,6.457-2.584,9.85Z"/>
      <g>
        <path class="cls-3" d="m92.407,83.984h17.975c1.745,0,3.174-1.341,3.174-2.98l-1.16-13.581c-.671-6.299-4.313-10.333-11.001-10.333h0c-6.69,0-10.307,4.034-11.004,10.333l-1.158,13.581c0,1.639,1.427,2.98,3.174,2.98Z"/>
        <path class="cls-6" d="m112.076,79.602l-1.158-12.037c-.931-5.559-3.649-8.942-9.524-8.942h0c-5.876,0-8.931,3.522-9.526,8.942l-1.159,12.037h21.366Z"/>
        <path class="cls-11" d="m94.257,93.384h14.273c3.061,0,5.566-2.352,5.566-5.228h0c0-2.874-2.505-5.226-5.566-5.226h-14.273c-3.061,0-5.566,2.352-5.566,5.226h0c0,2.876,2.504,5.228,5.566,5.228Z"/>
        <path class="cls-3" d="m89.135,83.831h24.518c.245,0,.443.199.443.443v7.02c0,1.511-1.227,2.738-2.738,2.738h-19.928c-1.511,0-2.738-1.227-2.738-2.738v-7.02c0-.244.198-.443.443-.443Z" transform="translate(202.788 177.862) rotate(180)"/>
        <path class="cls-18" d="m89.555,94.032h23.678c.476,0,.863-.362.863-.811v-.156c0,.447-.387.811-.863.811h-23.678c-.476,0-.863-.364-.863-.811v.156c0,.449.387.811.863.811Z"/>
        <path class="cls-2" d="m100.033,88.93c0-.705.609-1.276,1.362-1.276s1.36.571,1.36,1.276-.609,1.278-1.36,1.278-1.362-.571-1.362-1.278Z"/>
      </g>
      <g>
        <path class="cls-2" d="m68.142,11.068c.476.4.501,1.099.058,1.568h0c-.442.467-1.187.524-1.663.126l-3.047-2.547c-.475-.398-.502-1.099-.059-1.568h0c.444-.467,1.19-.524,1.665-.126l3.046,2.547Z"/>
        <path class="cls-15" d="m67.948,11.076c.444.37.482,1.007.088,1.422h0c-.394.416-1.072.453-1.515.083l-2.837-2.372c-.442-.37-.481-1.008-.087-1.424h0c.394-.416,1.072-.451,1.514-.081l2.837,2.371Z"/>
        <path class="cls-2" d="m64.218,6.504c.945.79,1.027,2.151.184,3.037-.842.888-2.289.969-3.234.179-.947-.794-1.031-2.153-.189-3.041.842-.888,2.291-.967,3.238-.175Z"/>
        <path class="cls-15" d="m63.755,6.99c.657.552.717,1.499.13,2.118-.586.618-1.597.673-2.256.124-.66-.552-.717-1.501-.131-2.119.586-.618,1.596-.674,2.257-.122Z"/>
      </g>
      <g>
        <rect class="cls-4" x="58.572" y="84.981" width="83.896" height="9.581"/>
        <rect class="cls-4" x="58.572" y="90.275" width="83.896" height="4.286"/>
      </g>
      <g>
        <rect class="cls-4" x="58.818" y="3.689" width="10.203" height="90.888"/>
        <rect class="cls-4" x="58.818" y="3.689" width="4.565" height="90.888"/>
      </g>
      <g>
        <rect class="cls-4" x="58.642" y="3.668" width="84.164" height="9.581"/>
        <rect class="cls-4" x="58.642" y="3.668" width="84.164" height="4.286"/>
      </g>
    </g>
  </g>
</svg>