<?xml version="1.0" encoding="UTF-8"?>
<svg xmlns="http://www.w3.org/2000/svg" xmlns:xlink="http://www.w3.org/1999/xlink" viewBox="0 0 806.34 655.98">
  <defs>
    <style>
      .cls-1 {
        fill: #ddd;
      }

      .cls-2 {
        fill: #9b9da0;
      }

      .cls-3 {
        fill: #e9e9e9;
      }

      .cls-4 {
        fill: #c9cacb;
      }

      .cls-5 {
        fill: url(#linear-gradient-2);
      }

      .cls-6 {
        fill: #f0f0f0;
      }

      .cls-7 {
        fill: #b4b5b7;
      }

      .cls-8 {
        fill: #f4f4f4;
      }

      .cls-9 {
        fill: #fff;
      }

      .cls-10 {
        fill: #9c9ea1;
      }

      .cls-11 {
        fill: #cbcbcb;
      }

      .cls-12 {
        fill: #d1d1d1;
      }

      .cls-13 {
        fill: #fafafa;
      }

      .cls-14 {
        fill: #dbdbdb;
      }

      .cls-15 {
        fill: #a7a9ac;
      }

      .cls-16 {
        fill: #cacaca;
      }

      .cls-17 {
        fill: #d8d8d8;
      }

      .cls-18 {
        fill: #f6f6f6;
      }

      .cls-19 {
        fill: url(#linear-gradient);
      }

      .cls-19, .cls-20, .cls-21, .cls-22, .cls-23, .cls-24 {
        mix-blend-mode: multiply;
      }

      .cls-25 {
        fill: #939598;
      }

      .cls-26 {
        fill: #e2e2e2;
      }

      .cls-27 {
        fill: #f5f5f5;
      }

      .cls-20 {
        fill: url(#linear-gradient-17);
      }

      .cls-28 {
        fill: #acadaf;
      }

      .cls-29 {
        stroke: #8f8f8f;
        stroke-width: .03px;
      }

      .cls-29, .cls-30 {
        fill: none;
      }

      .cls-29, .cls-30, .cls-31 {
        stroke-linecap: round;
        stroke-linejoin: round;
      }

      .cls-32 {
        fill: url(#linear-gradient-6);
      }

      .cls-33 {
        isolation: isolate;
      }

      .cls-34 {
        fill: #c9c9c8;
      }

      .cls-35 {
        fill: #d6d6d6;
      }

      .cls-36 {
        fill: #c9c9c9;
      }

      .cls-37 {
        fill: #dbdcdc;
      }

      .cls-38 {
        fill: #acacab;
      }

      .cls-39 {
        fill: #e0e0e0;
      }

      .cls-40 {
        fill: #aeafb2;
      }

      .cls-41 {
        fill: url(#linear-gradient-11);
      }

      .cls-42 {
        fill: #c7c7c7;
      }

      .cls-43 {
        fill: #dedede;
      }

      .cls-44 {
        fill: #b3b3b2;
      }

      .cls-45 {
        fill: #c3c3c3;
      }

      .cls-46 {
        fill: #cfcfcf;
      }

      .cls-47 {
        fill: #d7d7d7;
      }

      .cls-48 {
        fill: url(#linear-gradient-10);
      }

      .cls-49 {
        fill: #9d9d9c;
      }

      .cls-50 {
        fill: #e1e1e1;
      }

      .cls-51 {
        fill: #e6e6e6;
      }

      .cls-52 {
        fill: #e7e7e7;
      }

      .cls-53 {
        fill: #cccdce;
      }

      .cls-54 {
        fill: url(#New_Gradient_Swatch_19);
      }

      .cls-55 {
        fill: #d4d4d4;
      }

      .cls-56 {
        fill: #dadada;
      }

      .cls-57 {
        fill: #eaeaea;
      }

      .cls-58 {
        fill: #c8c8c8;
      }

      .cls-59 {
        fill: #fdfdfd;
      }

      .cls-60 {
        fill: #c0c1c3;
      }

      .cls-61 {
        fill: #a4a4a3;
      }

      .cls-62 {
        fill: #e4e4e4;
      }

      .cls-30 {
        stroke-width: .03px;
      }

      .cls-30, .cls-31 {
        stroke: #949494;
      }

      .cls-63 {
        fill: #fbfbfb;
      }

      .cls-64 {
        fill: #babab9;
      }

      .cls-65 {
        fill: #f9f9f9;
      }

      .cls-66 {
        fill: #72a6bf;
      }

      .cls-67 {
        fill: #e5e5e5;
      }

      .cls-21 {
        fill: url(#linear-gradient-15);
      }

      .cls-68 {
        fill: url(#linear-gradient-5);
      }

      .cls-69 {
        fill: #d2d3d4;
      }

      .cls-70 {
        fill: #d3d3d3;
      }

      .cls-71 {
        fill: #ebebeb;
      }

      .cls-72 {
        fill: #bebebe;
      }

      .cls-73 {
        fill: #d5d5d5;
      }

      .cls-74 {
        fill: #e4e4e5;
      }

      .cls-75 {
        fill: #dcdcdc;
      }

      .cls-76 {
        fill: #c1c1c1;
      }

      .cls-77 {
        fill: #e8e8e8;
      }

      .cls-78 {
        fill: url(#linear-gradient-7);
      }

      .cls-22 {
        fill: url(#linear-gradient-12);
      }

      .cls-79 {
        fill: #bcbdbf;
      }

      .cls-80 {
        fill: #ccc;
      }

      .cls-81 {
        fill: #a3a5a7;
      }

      .cls-82 {
        fill: #ddddde;
      }

      .cls-83 {
        fill: #f7f7f7;
      }

      .cls-84 {
        fill: #efefef;
      }

      .cls-85 {
        fill: #c4c5c6;
      }

      .cls-86 {
        fill: #a5a7a9;
      }

      .cls-87 {
        fill: url(#linear-gradient-9);
      }

      .cls-88 {
        fill: #b7b8ba;
      }

      .cls-89 {
        fill: #f1f1f1;
      }

      .cls-90 {
        fill: url(#linear-gradient-3);
      }

      .cls-91 {
        fill: #cecece;
      }

      .cls-92 {
        fill: #f3f3f3;
      }

      .cls-93 {
        fill: #d9d9d9;
      }

      .cls-94 {
        fill: #cdcdcd;
      }

      .cls-95 {
        fill: #d4d5d6;
      }

      .cls-96 {
        fill: #f8f8f8;
      }

      .cls-97 {
        fill: #d2d2d2;
      }

      .cls-23 {
        fill: url(#linear-gradient-14);
      }

      .cls-98 {
        fill: #c6c6c6;
      }

      .cls-99 {
        fill: #eee;
      }

      .cls-100 {
        fill: #d0d0d0;
      }

      .cls-101 {
        fill: url(#linear-gradient-4);
      }

      .cls-102 {
        fill: #ececec;
      }

      .cls-103 {
        fill: #f2f2f2;
      }

      .cls-31 {
        fill: url(#linear-gradient-16);
        stroke-width: .03px;
      }

      .cls-104 {
        fill: url(#linear-gradient-8);
      }

      .cls-105 {
        fill: #fefefe;
      }

      .cls-106 {
        fill: url(#linear-gradient-13);
      }

      .cls-107 {
        fill: #e3e3e3;
      }

      .cls-108 {
        fill: #fcfcfc;
      }

      .cls-109 {
        fill: #ededed;
      }

      .cls-110 {
        fill: #dfdfdf;
      }
    </style>
    <linearGradient id="linear-gradient" x1="350.44" y1="519.09" x2="439.48" y2="519.09" gradientUnits="userSpaceOnUse">
      <stop offset="0" stop-color="#d9d9d9"/>
      <stop offset=".19" stop-color="#e8e8e8"/>
      <stop offset="1" stop-color="#fff"/>
    </linearGradient>
    <linearGradient id="linear-gradient-2" x1="532.08" y1="398.98" x2="532.08" y2="563.05" gradientTransform="translate(135.89 128.59) rotate(-5.71) scale(.91 .9) skewX(-11.2)" gradientUnits="userSpaceOnUse">
      <stop offset="0" stop-color="#c3c3c3"/>
      <stop offset="1" stop-color="#c2c2c2"/>
    </linearGradient>
    <linearGradient id="linear-gradient-3" x1="465.23" y1="324.65" x2="465.23" y2="515.4" gradientTransform="translate(271.78 257.19) rotate(-12.53) scale(.84 .76) skewX(-22.95)" gradientUnits="userSpaceOnUse">
      <stop offset="0" stop-color="#c7c7c7"/>
      <stop offset="1" stop-color="#c5c5c6"/>
    </linearGradient>
    <linearGradient id="linear-gradient-4" x1="347.4" y1="185.31" x2="347.4" y2="430.43" gradientTransform="translate(407.67 385.78) rotate(-20.56) scale(.78 .59) skewX(-33.33)" gradientUnits="userSpaceOnUse">
      <stop offset="0" stop-color="#ccc"/>
      <stop offset="1" stop-color="#c9c9c9"/>
    </linearGradient>
    <linearGradient id="linear-gradient-5" x1="76.58" y1="-149.51" x2="76.58" y2="235.19" gradientTransform="translate(543.56 514.38) rotate(-29.74) scale(.73 .37) skewX(-40.75)" gradientUnits="userSpaceOnUse">
      <stop offset="0" stop-color="#d1d1d1"/>
      <stop offset="1" stop-color="#cdcdcd"/>
    </linearGradient>
    <linearGradient id="linear-gradient-6" x1="-1264.01" y1="-1854.16" x2="-1264.01" y2="-728.53" gradientTransform="translate(679.45 642.97) rotate(-39.81) scale(.71 .13) skewX(-44.53)" gradientUnits="userSpaceOnUse">
      <stop offset="0" stop-color="#d5d6d6"/>
      <stop offset="1" stop-color="#d0d1d1"/>
    </linearGradient>
    <linearGradient id="linear-gradient-7" x1="2741.47" y1="2152.21" x2="2741.47" y2="3291.04" gradientTransform="translate(815.34 771.57) rotate(-50.19) scale(.71 -.13) skewX(-44.53)" gradientUnits="userSpaceOnUse">
      <stop offset="0" stop-color="#dadada"/>
      <stop offset="1" stop-color="#d4d4d5"/>
    </linearGradient>
    <linearGradient id="linear-gradient-8" x1="1399.86" y1="1190.87" x2="1399.86" y2="1586.18" gradientTransform="translate(951.23 900.16) rotate(-60.26) scale(.73 -.37) skewX(-40.75)" gradientUnits="userSpaceOnUse">
      <stop offset="0" stop-color="#dedfdf"/>
      <stop offset="1" stop-color="#d7d8d9"/>
    </linearGradient>
    <linearGradient id="linear-gradient-9" x1="1127.54" y1="999.45" x2="1127.54" y2="1250.86" gradientTransform="translate(1087.12 1028.76) rotate(-69.44) scale(.78 -.59) skewX(-33.33)" gradientUnits="userSpaceOnUse">
      <stop offset="0" stop-color="#e3e4e4"/>
      <stop offset="1" stop-color="#dbdcdd"/>
    </linearGradient>
    <linearGradient id="linear-gradient-10" x1="1008.22" y1="918.78" x2="1008.22" y2="1110.64" gradientTransform="translate(1223.01 1157.35) rotate(-77.47) scale(.84 -.76) skewX(-22.95)" gradientUnits="userSpaceOnUse">
      <stop offset="0" stop-color="#e8e9e9"/>
      <stop offset="1" stop-color="#dfe0e0"/>
    </linearGradient>
    <linearGradient id="linear-gradient-11" x1="940.14" y1="875.4" x2="940.14" y2="1035.03" gradientTransform="translate(1358.9 1285.95) rotate(-84.29) scale(.91 -.9) skewX(-11.2)" gradientUnits="userSpaceOnUse">
      <stop offset="0" stop-color="#eceded"/>
      <stop offset="1" stop-color="#e2e3e4"/>
    </linearGradient>
    <linearGradient id="New_Gradient_Swatch_19" data-name="New Gradient Swatch 19" x1="895.46" y1="849.16" x2="895.46" y2="988.49" gradientTransform="translate(1494.79 1414.54) rotate(-90) scale(1 -1)" gradientUnits="userSpaceOnUse">
      <stop offset="0" stop-color="#f1f2f2"/>
      <stop offset="1" stop-color="#e6e7e8"/>
    </linearGradient>
    <linearGradient id="linear-gradient-12" x1="615.62" y1="482.75" x2="533.07" y2="544.66" gradientUnits="userSpaceOnUse">
      <stop offset="0" stop-color="#e0e0e0"/>
      <stop offset="1" stop-color="#fff"/>
    </linearGradient>
    <linearGradient id="linear-gradient-13" x1="451.88" y1="611.52" x2="451.88" y2="417.6" gradientUnits="userSpaceOnUse">
      <stop offset="0" stop-color="#b8b8b8"/>
      <stop offset=".64" stop-color="#fff"/>
      <stop offset="1" stop-color="#d1d1d1"/>
    </linearGradient>
    <linearGradient id="linear-gradient-14" x1="170.23" y1="80.15" x2="76.95" y2="188.98" xlink:href="#linear-gradient-12"/>
    <linearGradient id="linear-gradient-15" x1="1014.67" y1="-129.75" x2="1113.6" y2="-129.75" gradientTransform="translate(254.84 1366.99) rotate(-90)" xlink:href="#linear-gradient"/>
    <linearGradient id="linear-gradient-16" x1="324.53" y1="564.02" x2="392.31" y2="564.02" gradientTransform="translate(1358.58 -195.69) rotate(90)" gradientUnits="userSpaceOnUse">
      <stop offset="0" stop-color="#a8a7a7"/>
      <stop offset=".3" stop-color="#d9d9d8"/>
      <stop offset="1" stop-color="#878787"/>
    </linearGradient>
    <linearGradient id="linear-gradient-17" x1="727.58" y1="123.21" x2="662.8" y2="201.26" xlink:href="#linear-gradient-12"/>
  </defs>
  <g class="cls-33">
    <g id="Layer_1" data-name="Layer 1">
      <g>
        <g class="cls-24">
          <path class="cls-9" d="m414.28,654.8h0Zm104.07-206.2c-47.44,0-79.89,26.5-96.11,56.71l.02-53.54c0-4.81-3.52-8.74-7.88-8.76h-1.05c-4.34,0-7.88,3.91-7.88,8.72l-.03,58.85h-2.95v-26.59c0-14.52-10.21-26.33-22.76-26.33h-45.64c-12.55,0-22.77,11.81-22.77,26.33v131.02c0,14.52,10.21,26.32,22.77,26.32h45.64c12.54,0,22.76-11.8,22.76-26.32v-26.6h2.9l-.03,58.8c0,4.82,3.52,8.76,7.87,8.77h1.05s.01,0,.01,0c4.33,0,7.88-3.91,7.88-8.73l.02-53.63c16.22,30.23,48.68,56.77,96.16,56.77,70.94,0,140.32-57.77,140.32-100.88s-69.37-100.92-140.32-100.92Z"/>
          <path class="cls-108" d="m416.1,653.35h0Zm104.07-206.2c-47.44,0-79.89,26.5-96.11,56.71l.02-53.54c0-4.81-3.52-8.74-7.88-8.76h-1.05c-4.34,0-7.88,3.91-7.88,8.72l-.03,58.85h-2.95v-26.59c0-14.52-10.21-26.33-22.76-26.33h-45.64c-12.55,0-22.77,11.81-22.77,26.33v131.02c0,14.52,10.21,26.32,22.77,26.32h45.64c12.54,0,22.76-11.8,22.76-26.32v-26.6h2.9l-.03,58.8c0,4.82,3.52,8.76,7.87,8.77h1.05s.01,0,.01,0c4.33,0,7.88-3.91,7.88-8.73l.02-53.63c16.22,30.23,48.68,56.77,96.16,56.77,70.94,0,140.32-57.77,140.32-100.88s-69.37-100.92-140.32-100.92Z"/>
          <path class="cls-13" d="m417.91,651.9h0Zm104.07-206.2c-47.44,0-79.89,26.5-96.11,56.71l.02-53.54c0-4.81-3.52-8.74-7.88-8.76h-1.05c-4.34,0-7.88,3.91-7.88,8.72l-.03,58.85h-2.95v-26.59c0-14.52-10.21-26.33-22.76-26.33h-45.64c-12.55,0-22.77,11.81-22.77,26.33v131.02c0,14.52,10.21,26.32,22.77,26.32h45.64c12.54,0,22.76-11.8,22.76-26.32v-26.6h2.9l-.03,58.8c0,4.82,3.52,8.76,7.87,8.77h1.04s.01,0,.01,0c4.33,0,7.88-3.91,7.88-8.73l.02-53.63c16.22,30.23,48.68,56.77,96.16,56.77,70.94,0,140.32-57.77,140.32-100.88s-69.37-100.92-140.32-100.92Z"/>
          <path class="cls-83" d="m419.72,650.45h0Zm104.07-206.2c-47.43,0-79.89,26.5-96.11,56.71l.02-53.54c0-4.81-3.52-8.75-7.88-8.76h-1.05c-4.34,0-7.88,3.91-7.88,8.72l-.03,58.85h-2.95v-26.59c0-14.52-10.21-26.33-22.76-26.33h-45.64c-12.55,0-22.77,11.81-22.77,26.33v131.02c0,14.52,10.21,26.32,22.77,26.32h45.64c12.54,0,22.76-11.8,22.76-26.32v-26.6h2.9l-.03,58.8c0,4.82,3.52,8.76,7.87,8.77h1.04s.01,0,.01,0c4.34,0,7.88-3.91,7.88-8.73l.02-53.63c16.22,30.23,48.68,56.77,96.16,56.77,70.94,0,140.32-57.77,140.32-100.88s-69.37-100.92-140.32-100.92Z"/>
          <path class="cls-8" d="m421.53,649.01h0Zm104.07-206.2c-47.43,0-79.89,26.5-96.11,56.71l.02-53.54c0-4.81-3.52-8.75-7.88-8.76h-1.05c-4.34,0-7.88,3.91-7.88,8.72l-.03,58.85h-2.95v-26.59c0-14.52-10.21-26.33-22.76-26.33h-45.64c-12.55,0-22.77,11.81-22.77,26.33v131.02c0,14.52,10.21,26.32,22.77,26.32h45.64c12.54,0,22.76-11.8,22.76-26.32v-26.6h2.91l-.03,58.8c0,4.82,3.52,8.76,7.87,8.77h1.04s.01,0,.01,0c4.34,0,7.88-3.91,7.88-8.73l.02-53.63c16.22,30.23,48.68,56.77,96.16,56.77,70.94,0,140.32-57.77,140.32-100.88s-69.37-100.92-140.32-100.92Z"/>
          <path class="cls-89" d="m423.35,647.56h0Zm104.07-206.2c-47.43,0-79.89,26.5-96.11,56.71l.02-53.54c0-4.81-3.52-8.75-7.88-8.76h-1.05c-4.34,0-7.88,3.91-7.88,8.72l-.03,58.85h-2.95v-26.59c0-14.52-10.21-26.33-22.76-26.33h-45.64c-12.55,0-22.77,11.81-22.77,26.33v131.02c0,14.52,10.21,26.32,22.77,26.32h45.64c12.54,0,22.76-11.8,22.76-26.32v-26.6h2.91l-.03,58.8c0,4.82,3.52,8.76,7.87,8.77h1.04s.01,0,.01,0c4.34,0,7.88-3.91,7.88-8.73l.02-53.63c16.22,30.23,48.68,56.77,96.16,56.77,70.94,0,140.32-57.77,140.32-100.88s-69.37-100.92-140.32-100.92Z"/>
          <path class="cls-84" d="m425.16,646.11h0Zm104.07-206.2c-47.43,0-79.88,26.5-96.11,56.71l.02-53.54c0-4.81-3.52-8.75-7.88-8.76h-1.05c-4.34,0-7.88,3.91-7.88,8.72l-.03,58.85h-2.95v-26.59c0-14.52-10.21-26.33-22.76-26.33h-45.64c-12.55,0-22.77,11.81-22.77,26.33v131.02c0,14.52,10.21,26.32,22.77,26.32h45.64c12.54,0,22.76-11.8,22.76-26.32v-26.6h2.91l-.03,58.8c0,4.82,3.52,8.76,7.87,8.77h1.04s.01,0,.01,0c4.34,0,7.88-3.91,7.88-8.73l.02-53.63c16.22,30.23,48.68,56.77,96.16,56.77,70.94,0,140.32-57.77,140.32-100.88s-69.37-100.92-140.32-100.92Z"/>
          <path class="cls-102" d="m426.97,644.66h0Zm104.07-206.2c-47.43,0-79.88,26.5-96.11,56.71l.02-53.54c0-4.81-3.52-8.75-7.88-8.76h-1.05c-4.34,0-7.88,3.91-7.88,8.72l-.03,58.85h-2.95v-26.59c0-14.52-10.21-26.33-22.76-26.33h-45.64c-12.55,0-22.77,11.81-22.77,26.33v131.02c0,14.52,10.21,26.32,22.77,26.32h45.64c12.54,0,22.76-11.8,22.76-26.32v-26.6h2.91l-.03,58.8c0,4.82,3.52,8.76,7.87,8.77h1.04s.01,0,.01,0c4.34,0,7.88-3.91,7.88-8.73l.02-53.63c16.22,30.23,48.68,56.77,96.16,56.77,70.94,0,140.32-57.77,140.32-100.88s-69.37-100.92-140.32-100.92Z"/>
          <path class="cls-3" d="m428.78,643.21h0Zm104.07-206.2c-47.43,0-79.88,26.5-96.11,56.71l.02-53.54c0-4.81-3.52-8.75-7.88-8.76h-1.05c-4.34,0-7.88,3.91-7.88,8.72l-.03,58.85h-2.95v-26.59c0-14.52-10.21-26.33-22.76-26.33h-45.64c-12.55,0-22.77,11.81-22.77,26.33v131.02c0,14.52,10.21,26.32,22.77,26.32h45.64c12.54,0,22.76-11.8,22.76-26.32v-26.6h2.91l-.03,58.8c0,4.82,3.52,8.76,7.87,8.77h1.04s.01,0,.01,0c4.34,0,7.88-3.91,7.88-8.73l.02-53.63c16.22,30.23,48.68,56.77,96.16,56.77,70.94,0,140.32-57.77,140.32-100.88s-69.37-100.92-140.32-100.92Z"/>
          <path class="cls-52" d="m430.6,641.77h0Zm104.07-206.2c-47.43,0-79.88,26.5-96.11,56.71l.02-53.54c0-4.81-3.52-8.75-7.88-8.76h-1.05c-4.34,0-7.88,3.91-7.88,8.72l-.03,58.85h-2.95v-26.59c0-14.52-10.21-26.33-22.76-26.33h-45.64c-12.55,0-22.77,11.81-22.77,26.33v131.02c0,14.52,10.21,26.32,22.77,26.32h45.64c12.54,0,22.76-11.8,22.76-26.32v-26.6h2.91l-.03,58.8c0,4.82,3.52,8.76,7.87,8.77h1.04s.01,0,.01,0c4.34,0,7.88-3.91,7.88-8.73l.02-53.63c16.22,30.23,48.68,56.77,96.16,56.77,70.95,0,140.32-57.77,140.32-100.88s-69.37-100.92-140.32-100.92Z"/>
          <path class="cls-62" d="m432.41,640.32h0Zm104.07-206.2c-47.43,0-79.88,26.5-96.11,56.71l.03-53.54c0-4.81-3.52-8.75-7.88-8.76h-1.05c-4.34,0-7.88,3.91-7.88,8.72l-.03,58.85h-2.95v-26.59c0-14.52-10.21-26.33-22.76-26.33h-45.64c-12.55,0-22.77,11.81-22.77,26.33v131.02c0,14.52,10.21,26.32,22.77,26.32h45.64c12.54,0,22.76-11.8,22.76-26.32v-26.6h2.91l-.03,58.8c0,4.82,3.52,8.76,7.87,8.77h1.04s.01,0,.01,0c4.34,0,7.88-3.91,7.88-8.73l.03-53.63c16.22,30.23,48.68,56.77,96.16,56.77,70.95,0,140.32-57.77,140.32-100.88s-69.37-100.92-140.32-100.92Z"/>
          <path class="cls-50" d="m434.22,638.87h0Zm104.07-206.2c-47.43,0-79.88,26.5-96.11,56.71l.03-53.54c0-4.81-3.52-8.75-7.88-8.76h-1.05c-4.34,0-7.88,3.91-7.88,8.72l-.03,58.85h-2.95v-26.59c0-14.52-10.21-26.33-22.76-26.33h-45.64c-12.55,0-22.77,11.81-22.77,26.33v131.02c0,14.52,10.21,26.32,22.77,26.32h45.64c12.54,0,22.76-11.81,22.76-26.32v-26.6h2.91l-.03,58.8c0,4.82,3.52,8.76,7.87,8.77h1.04s.01,0,.01,0c4.34,0,7.88-3.91,7.88-8.73l.03-53.63c16.22,30.23,48.68,56.77,96.16,56.77,70.95,0,140.32-57.77,140.32-100.88s-69.37-100.92-140.32-100.92Z"/>
          <path class="cls-43" d="m436.03,637.42h0Zm104.07-206.2c-47.43,0-79.88,26.5-96.11,56.71l.03-53.54c0-4.81-3.52-8.75-7.88-8.76h-1.05c-4.34,0-7.88,3.91-7.88,8.72l-.03,58.85h-2.95v-26.59c0-14.52-10.21-26.33-22.76-26.33h-45.64c-12.55,0-22.77,11.81-22.77,26.33v131.02c0,14.52,10.21,26.33,22.77,26.33h45.64c12.54,0,22.76-11.81,22.76-26.33v-26.6h2.91l-.03,58.8c0,4.82,3.52,8.76,7.87,8.77h1.04s.01,0,.01,0c4.34,0,7.88-3.91,7.88-8.73l.03-53.63c16.22,30.23,48.68,56.77,96.16,56.77,70.95,0,140.32-57.77,140.32-100.88s-69.37-100.92-140.32-100.92Z"/>
          <path class="cls-75" d="m437.85,635.98h0Zm104.07-206.2c-47.43,0-79.88,26.5-96.11,56.71l.03-53.54c0-4.81-3.52-8.75-7.88-8.77h-1.05c-4.34,0-7.88,3.91-7.88,8.72l-.03,58.85h-2.95v-26.59c0-14.52-10.21-26.33-22.75-26.33h-45.64c-12.55,0-22.77,11.81-22.77,26.33v131.02c0,14.52,10.21,26.33,22.77,26.33h45.64c12.54,0,22.75-11.81,22.75-26.33v-26.6h2.91l-.03,58.8c0,4.82,3.52,8.76,7.87,8.77h1.04s.01,0,.01,0c4.34,0,7.88-3.91,7.88-8.73l.03-53.63c16.22,30.23,48.68,56.77,96.16,56.77,70.95,0,140.32-57.77,140.32-100.88s-69.37-100.92-140.32-100.92Z"/>
          <path class="cls-93" d="m439.66,634.53h0Zm104.07-206.2c-47.43,0-79.88,26.5-96.11,56.71l.03-53.54c0-4.81-3.52-8.75-7.88-8.77h-1.05c-4.34,0-7.88,3.91-7.88,8.72l-.03,58.85h-2.95v-26.59c0-14.52-10.21-26.33-22.75-26.33h-45.64c-12.55,0-22.77,11.81-22.77,26.33v131.02c0,14.52,10.21,26.33,22.77,26.33h45.64c12.54,0,22.75-11.81,22.75-26.33v-26.6h2.91l-.03,58.8c0,4.82,3.52,8.76,7.87,8.77h1.04s.01,0,.01,0c4.34,0,7.88-3.91,7.88-8.73l.03-53.63c16.22,30.23,48.68,56.77,96.16,56.77,70.95,0,140.32-57.77,140.32-100.88s-69.37-100.92-140.32-100.92Z"/>
          <path class="cls-35" d="m441.47,633.08h0Zm104.07-206.2c-47.43,0-79.88,26.5-96.11,56.71l.03-53.54c0-4.81-3.52-8.75-7.88-8.77h-1.05c-4.34,0-7.88,3.91-7.88,8.72l-.03,58.85h-2.95v-26.59c0-14.52-10.21-26.33-22.75-26.33h-45.64c-12.55,0-22.77,11.81-22.77,26.33v131.02c0,14.52,10.21,26.33,22.77,26.33h45.64c12.54,0,22.75-11.81,22.75-26.33v-26.6h2.91l-.03,58.8c0,4.82,3.52,8.76,7.87,8.77h1.04s.01,0,.01,0c4.34,0,7.88-3.91,7.88-8.73l.03-53.63c16.22,30.23,48.68,56.77,96.16,56.77,70.95,0,140.32-57.77,140.32-100.88s-69.37-100.92-140.32-100.92Z"/>
          <path class="cls-55" d="m443.28,631.63h0Zm104.07-206.2c-47.43,0-79.88,26.5-96.11,56.71l.03-53.54c0-4.81-3.52-8.75-7.88-8.77h-1.05c-4.34,0-7.88,3.91-7.88,8.72l-.03,58.85h-2.95v-26.59c0-14.52-10.21-26.33-22.75-26.33h-45.64c-12.55,0-22.77,11.81-22.77,26.33v131.02c0,14.52,10.21,26.33,22.77,26.33h45.64c12.54,0,22.75-11.81,22.75-26.33v-26.6h2.91l-.03,58.8c0,4.82,3.52,8.76,7.87,8.77h1.04s.01,0,.01,0c4.34,0,7.88-3.91,7.88-8.73l.03-53.63c16.22,30.23,48.68,56.77,96.16,56.77,70.95,0,140.32-57.77,140.32-100.88s-69.37-100.92-140.32-100.92Z"/>
          <path class="cls-12" d="m445.1,630.19h0Zm104.07-206.2c-47.43,0-79.88,26.5-96.11,56.71l.03-53.54c0-4.81-3.52-8.75-7.88-8.77h-1.05c-4.34,0-7.88,3.91-7.88,8.72l-.03,58.85h-2.95v-26.59c0-14.52-10.21-26.33-22.75-26.33h-45.64c-12.55,0-22.77,11.81-22.77,26.33v131.02c0,14.52,10.21,26.33,22.77,26.33h45.64c12.54,0,22.75-11.81,22.75-26.33v-26.6h2.91l-.03,58.8c0,4.82,3.52,8.76,7.87,8.77h1.04s.01,0,.01,0c4.34,0,7.88-3.91,7.88-8.73l.03-53.63c16.22,30.23,48.68,56.77,96.16,56.77,70.95,0,140.32-57.77,140.32-100.88s-69.37-100.92-140.32-100.92Z"/>
          <path class="cls-91" d="m446.91,628.74h0Zm104.07-206.2c-47.43,0-79.88,26.5-96.11,56.71l.03-53.54c0-4.81-3.52-8.75-7.88-8.77h-1.05c-4.34,0-7.88,3.91-7.88,8.72l-.03,58.85h-2.95v-26.59c0-14.52-10.21-26.33-22.75-26.33h-45.64c-12.55,0-22.77,11.81-22.77,26.33v131.02c0,14.52,10.21,26.33,22.77,26.33h45.64c12.54,0,22.75-11.81,22.75-26.33v-26.6h2.91l-.03,58.8c0,4.82,3.52,8.76,7.87,8.77h1.04s.01,0,.01,0c4.34,0,7.88-3.91,7.88-8.73l.03-53.63c16.22,30.23,48.68,56.77,96.16,56.77,70.95,0,140.32-57.77,140.32-100.88s-69.37-100.92-140.32-100.92Z"/>
          <path class="cls-11" d="m448.72,627.29h0Zm104.07-206.2c-47.43,0-79.88,26.5-96.11,56.71l.03-53.54c0-4.81-3.52-8.75-7.88-8.77h-1.05c-4.34,0-7.88,3.91-7.88,8.72l-.03,58.85h-2.95v-26.59c0-14.52-10.21-26.33-22.75-26.33h-45.64c-12.55,0-22.77,11.81-22.77,26.33v131.02c0,14.52,10.21,26.33,22.77,26.33h45.64c12.54,0,22.75-11.81,22.75-26.33v-26.6h2.91l-.03,58.8c0,4.82,3.52,8.76,7.87,8.77h1.04s.01,0,.01,0c4.34,0,7.88-3.91,7.88-8.73l.03-53.63c16.22,30.23,48.68,56.77,96.16,56.77,70.95,0,140.32-57.77,140.32-100.88s-69.37-100.92-140.32-100.92Z"/>
          <path class="cls-36" d="m450.53,625.84h0Zm104.07-206.2c-47.43,0-79.88,26.5-96.11,56.71l.03-53.54c0-4.82-3.52-8.75-7.88-8.77h-1.05c-4.34,0-7.88,3.91-7.88,8.72l-.03,58.85h-2.95v-26.59c0-14.52-10.21-26.33-22.75-26.33h-45.64c-12.55,0-22.77,11.81-22.77,26.33v131.02c0,14.52,10.21,26.33,22.77,26.33h45.64c12.54,0,22.75-11.81,22.75-26.33v-26.6h2.91l-.03,58.8c0,4.82,3.52,8.76,7.87,8.77h1.04s.01,0,.01,0c4.34,0,7.88-3.91,7.88-8.73l.03-53.63c16.22,30.23,48.68,56.77,96.16,56.77,70.95,0,140.32-57.77,140.32-100.88s-69.37-100.92-140.32-100.92Z"/>
          <path class="cls-98" d="m452.35,624.39h0Zm104.07-206.2c-47.43,0-79.88,26.5-96.11,56.71l.03-53.54c0-4.82-3.52-8.75-7.88-8.77h-1.05c-4.34,0-7.88,3.91-7.88,8.72l-.03,58.85h-2.95v-26.59c0-14.52-10.21-26.33-22.75-26.33h-45.64c-12.55,0-22.77,11.81-22.77,26.33v131.02c0,14.52,10.21,26.33,22.77,26.33h45.64c12.54,0,22.75-11.81,22.75-26.33v-26.6h2.91l-.03,58.8c0,4.82,3.52,8.76,7.87,8.77h1.04s.01,0,.01,0c4.34,0,7.88-3.91,7.88-8.73l.03-53.63c16.22,30.23,48.68,56.77,96.16,56.77,70.95,0,140.32-57.77,140.32-100.88s-69.37-100.92-140.32-100.92Z"/>
        </g>
        <g>
          <rect class="cls-15" x="356.51" y="480.18" width="128.48" height="77.82"/>
          <g>
            <g>
              <path class="cls-98" d="m439.48,584.6c0,13.88-9.7,25.14-21.69,25.14h-45.65c-11.99,0-21.7-11.26-21.7-25.14v-131.03c0-13.89,9.71-25.13,21.7-25.13h45.65c11.99,0,21.69,11.24,21.69,25.13v131.03Z"/>
              <path class="cls-42" d="m439.19,584.28c0,13.9-9.71,25.18-21.72,25.18h-45c-12,0-21.73-11.28-21.73-25.18v-130.39c0-13.91,9.73-25.17,21.73-25.17h45c12.01,0,21.72,11.26,21.72,25.17v130.39Z"/>
              <path class="cls-58" d="m438.89,583.96c0,13.92-9.73,25.21-21.76,25.21h-44.35c-12.02,0-21.76-11.29-21.76-25.21v-129.75c0-13.93,9.74-25.21,21.76-25.21h44.35c12.03,0,21.76,11.28,21.76,25.21v129.75Z"/>
              <path class="cls-36" d="m438.6,583.64c0,13.94-9.74,25.25-21.79,25.25h-43.69c-12.04,0-21.79-11.31-21.79-25.25v-129.11c0-13.95,9.76-25.24,21.79-25.24h43.69c12.05,0,21.79,11.29,21.79,25.24v129.11Z"/>
              <path class="cls-16" d="m438.31,583.32c0,13.96-9.76,25.29-21.82,25.29h-43.04c-12.06,0-21.83-11.32-21.83-25.29v-128.47c0-13.97,9.77-25.28,21.83-25.28h43.04c12.06,0,21.82,11.31,21.82,25.28v128.47Z"/>
              <path class="cls-11" d="m438.01,583c0,13.98-9.77,25.32-21.85,25.32h-42.39c-12.07,0-21.86-11.34-21.86-25.32v-127.83c0-13.99,9.78-25.31,21.86-25.31h42.39c12.08,0,21.85,11.32,21.85,25.31v127.83Z"/>
              <path class="cls-80" d="m437.72,582.68c0,14-9.79,25.36-21.88,25.36h-41.74c-12.09,0-21.89-11.36-21.89-25.36v-127.18c0-14.01,9.8-25.35,21.89-25.35h41.74c12.1,0,21.88,11.34,21.88,25.35v127.18Z"/>
              <path class="cls-94" d="m437.42,582.36c0,14.02-9.8,25.39-21.91,25.39h-41.09c-12.11,0-21.92-11.37-21.92-25.39v-126.54c0-14.03,9.81-25.38,21.92-25.38h41.09c12.11,0,21.91,11.36,21.91,25.38v126.54Z"/>
              <path class="cls-91" d="m437.13,582.04c0,14.04-9.81,25.43-21.95,25.43h-40.44c-12.12,0-21.95-11.39-21.95-25.43v-125.9c0-14.05,9.83-25.42,21.95-25.42h40.44c12.13,0,21.95,11.37,21.95,25.42v125.9Z"/>
              <path class="cls-46" d="m436.83,581.72c0,14.06-9.83,25.47-21.98,25.47h-39.79c-12.14,0-21.98-11.4-21.98-25.47v-125.26c0-14.07,9.84-25.46,21.98-25.46h39.79c12.15,0,21.98,11.39,21.98,25.46v125.26Z"/>
              <path class="cls-100" d="m436.54,581.4c0,14.08-9.84,25.5-22.01,25.5h-39.13c-12.16,0-22.02-11.42-22.02-25.5v-124.62c0-14.09,9.86-25.49,22.02-25.49h39.13c12.17,0,22.01,11.4,22.01,25.49v124.62Z"/>
              <path class="cls-12" d="m436.25,581.08c0,14.1-9.86,25.54-22.04,25.54h-38.48c-12.18,0-22.05-11.43-22.05-25.54v-123.98c0-14.11,9.87-25.53,22.05-25.53h38.48c12.18,0,22.04,11.42,22.04,25.53v123.98Z"/>
              <path class="cls-97" d="m435.95,580.76c0,14.12-9.87,25.57-22.07,25.57h-37.83c-12.19,0-22.08-11.45-22.08-25.57v-123.34c0-14.13,9.88-25.56,22.08-25.56h37.83c12.2,0,22.07,11.44,22.07,25.56v123.34Z"/>
              <path class="cls-70" d="m435.66,580.44c0,14.14-9.89,25.61-22.1,25.61h-37.18c-12.21,0-22.11-11.47-22.11-25.61v-122.7c0-14.15,9.9-25.6,22.11-25.6h37.18c12.22,0,22.1,11.45,22.1,25.6v122.7Z"/>
              <path class="cls-55" d="m435.36,580.12c0,14.16-9.9,25.65-22.14,25.65h-36.53c-12.23,0-22.14-11.48-22.14-25.65v-122.06c0-14.17,9.91-25.64,22.14-25.64h36.53c12.23,0,22.14,11.47,22.14,25.64v122.06Z"/>
              <path class="cls-73" d="m435.07,579.79c0,14.18-9.92,25.68-22.17,25.68h-35.88c-12.25,0-22.17-11.5-22.17-25.68v-121.42c0-14.19,9.93-25.67,22.17-25.67h35.88c12.25,0,22.17,11.48,22.17,25.67v121.42Z"/>
              <path class="cls-35" d="m434.78,579.47c0,14.2-9.93,25.72-22.2,25.72h-35.22c-12.26,0-22.2-11.51-22.2-25.72v-120.78c0-14.21,9.94-25.71,22.2-25.71h35.22c12.27,0,22.2,11.5,22.2,25.71v120.78Z"/>
              <path class="cls-47" d="m434.48,579.15c0,14.22-9.95,25.76-22.23,25.76h-34.57c-12.28,0-22.24-11.53-22.24-25.76v-120.13c0-14.23,9.96-25.74,22.24-25.74h34.57c12.29,0,22.23,11.52,22.23,25.74v120.13Z"/>
              <path class="cls-17" d="m434.19,578.83c0,14.25-9.96,25.79-22.26,25.79h-33.92c-12.3,0-22.27-11.55-22.27-25.79v-119.49c0-14.25,9.97-25.78,22.27-25.78h33.92c12.3,0,22.26,11.53,22.26,25.78v119.49Z"/>
              <path class="cls-93" d="m433.89,578.51c0,14.27-9.97,25.83-22.29,25.83h-33.27c-12.31,0-22.3-11.56-22.3-25.83v-118.85c0-14.27,9.98-25.81,22.3-25.81h33.27c12.32,0,22.29,11.55,22.29,25.81v118.85Z"/>
              <path class="cls-56" d="m433.6,578.19c0,14.29-9.99,25.86-22.33,25.86h-32.62c-12.33,0-22.33-11.58-22.33-25.86v-118.21c0-14.29,10-25.85,22.33-25.85h32.62c12.34,0,22.33,11.56,22.33,25.85v118.21Z"/>
              <path class="cls-14" d="m433.3,577.87c0,14.31-10,25.9-22.36,25.9h-31.97c-12.35,0-22.36-11.59-22.36-25.9v-117.57c0-14.3,10.01-25.89,22.36-25.89h31.97c12.35,0,22.36,11.58,22.36,25.89v117.57Z"/>
              <path class="cls-75" d="m433.01,577.55c0,14.33-10.02,25.94-22.39,25.94h-31.32c-12.37,0-22.39-11.61-22.39-25.94v-116.93c0-14.32,10.03-25.92,22.39-25.92h31.32c12.37,0,22.39,11.6,22.39,25.92v116.93Z"/>
              <path class="cls-1" d="m432.72,577.23c0,14.35-10.03,25.97-22.42,25.97h-30.66c-12.38,0-22.43-11.63-22.43-25.97v-116.29c0-14.34,10.04-25.96,22.43-25.96h30.66c12.39,0,22.42,11.61,22.42,25.96v116.29Z"/>
              <path class="cls-43" d="m432.42,576.91c0,14.37-10.05,26.01-22.45,26.01h-30.01c-12.4,0-22.46-11.64-22.46-26.01v-115.65c0-14.36,10.06-25.99,22.46-25.99h30.01c12.41,0,22.45,11.63,22.45,25.99v115.65Z"/>
              <path class="cls-110" d="m432.13,576.59c0,14.39-10.06,26.04-22.48,26.04h-29.36c-12.42,0-22.49-11.66-22.49-26.04v-115.01c0-14.38,10.07-26.03,22.49-26.03h29.36c12.42,0,22.48,11.64,22.48,26.03v115.01Z"/>
              <path class="cls-39" d="m431.83,576.27c0,14.41-10.08,26.08-22.52,26.08h-28.71c-12.44,0-22.52-11.67-22.52-26.08v-114.37c0-14.4,10.08-26.06,22.52-26.06h28.71c12.44,0,22.52,11.66,22.52,26.06v114.37Z"/>
              <path class="cls-50" d="m431.54,575.95c0,14.43-10.09,26.12-22.55,26.12h-28.06c-12.45,0-22.55-11.69-22.55-26.12v-113.73c0-14.42,10.1-26.1,22.55-26.1h28.06c12.46,0,22.55,11.68,22.55,26.1v113.73Z"/>
              <path class="cls-26" d="m431.25,575.63c0,14.45-10.11,26.15-22.58,26.15h-27.41c-12.47,0-22.58-11.7-22.58-26.15v-113.09c0-14.44,10.11-26.14,22.58-26.14h27.41c12.47,0,22.58,11.69,22.58,26.14v113.09Z"/>
              <path class="cls-107" d="m430.95,575.31c0,14.47-10.12,26.19-22.61,26.19h-26.76c-12.49,0-22.61-11.72-22.61-26.19v-112.44c0-14.46,10.13-26.17,22.61-26.17h26.76c12.49,0,22.61,11.71,22.61,26.17v112.44Z"/>
              <path class="cls-107" d="m430.66,574.99c0,14.49-10.13,26.22-22.64,26.22h-26.1c-12.5,0-22.65-11.74-22.65-26.22v-111.8c0-14.48,10.14-26.21,22.65-26.21h26.1c12.51,0,22.64,11.72,22.64,26.21v111.8Z"/>
              <path class="cls-62" d="m430.36,574.67c0,14.51-10.15,26.26-22.67,26.26h-25.45c-12.52,0-22.68-11.75-22.68-26.26v-111.16c0-14.5,10.16-26.24,22.68-26.24h25.45c12.53,0,22.67,11.74,22.67,26.24v111.16Z"/>
              <path class="cls-67" d="m430.07,574.35c0,14.53-10.16,26.3-22.71,26.3h-24.8c-12.54,0-22.71-11.77-22.71-26.3v-110.52c0-14.52,10.17-26.28,22.71-26.28h24.8c12.54,0,22.71,11.76,22.71,26.28v110.52Z"/>
              <path class="cls-51" d="m429.77,574.02c0,14.55-10.18,26.33-22.74,26.33h-24.15c-12.56,0-22.74-11.78-22.74-26.33v-109.88c0-14.54,10.18-26.31,22.74-26.31h24.15c12.56,0,22.74,11.77,22.74,26.31v109.88Z"/>
              <path class="cls-52" d="m429.48,573.7c0,14.57-10.19,26.37-22.77,26.37h-23.5c-12.57,0-22.77-11.8-22.77-26.37v-109.24c0-14.56,10.2-26.35,22.77-26.35h23.5c12.58,0,22.77,11.79,22.77,26.35v109.24Z"/>
              <path class="cls-77" d="m429.19,573.38c0,14.59-10.21,26.4-22.8,26.4h-22.85c-12.59,0-22.8-11.82-22.8-26.4v-108.6c0-14.58,10.21-26.39,22.8-26.39h22.85c12.59,0,22.8,11.8,22.8,26.39v108.6Z"/>
              <path class="cls-3" d="m428.89,573.06c0,14.61-10.22,26.44-22.83,26.44h-22.2c-12.61,0-22.84-11.83-22.84-26.44v-107.96c0-14.6,10.23-26.42,22.84-26.42h22.2c12.61,0,22.83,11.82,22.83,26.42v107.96Z"/>
              <path class="cls-57" d="m428.6,572.74c0,14.63-10.24,26.48-22.86,26.48h-21.54c-12.63,0-22.87-11.85-22.87-26.48v-107.32c0-14.62,10.24-26.46,22.87-26.46h21.54c12.63,0,22.86,11.84,22.86,26.46v107.32Z"/>
              <path class="cls-71" d="m428.3,572.42c0,14.65-10.25,26.51-22.9,26.51h-20.89c-12.64,0-22.9-11.86-22.9-26.51v-106.68c0-14.64,10.26-26.49,22.9-26.49h20.89c12.65,0,22.9,11.85,22.9,26.49v106.68Z"/>
              <path class="cls-102" d="m428.01,572.1c0,14.67-10.27,26.55-22.93,26.55h-20.24c-12.66,0-22.93-11.88-22.93-26.55v-106.04c0-14.66,10.27-26.53,22.93-26.53h20.24c12.66,0,22.93,11.87,22.93,26.53v106.04Z"/>
              <path class="cls-109" d="m427.72,571.78c0,14.69-10.28,26.58-22.96,26.58h-19.59c-12.68,0-22.96-11.89-22.96-26.58v-105.4c0-14.68,10.28-26.56,22.96-26.56h19.59c12.68,0,22.96,11.88,22.96,26.56v105.4Z"/>
              <path class="cls-99" d="m427.42,571.46c0,14.71-10.29,26.62-22.99,26.62h-18.94c-12.69,0-22.99-11.91-22.99-26.62v-104.75c0-14.7,10.3-26.6,22.99-26.6h18.94c12.7,0,22.99,11.9,22.99,26.6v104.75Z"/>
              <path class="cls-84" d="m427.13,571.14c0,14.73-10.31,26.66-23.02,26.66h-18.29c-12.71,0-23.02-11.93-23.02-26.66v-104.11c0-14.72,10.31-26.64,23.02-26.64h18.29c12.71,0,23.02,11.92,23.02,26.64v104.11Z"/>
              <path class="cls-6" d="m426.83,570.82c0,14.75-10.32,26.69-23.05,26.69h-17.63c-12.73,0-23.06-11.94-23.06-26.69v-103.47c0-14.74,10.33-26.67,23.06-26.67h17.63c12.73,0,23.05,11.93,23.05,26.67v103.47Z"/>
              <path class="cls-89" d="m426.54,570.5c0,14.77-10.34,26.73-23.09,26.73h-16.98c-12.75,0-23.09-11.96-23.09-26.73v-102.83c0-14.76,10.34-26.71,23.09-26.71h16.98c12.75,0,23.09,11.95,23.09,26.71v102.83Z"/>
              <path class="cls-103" d="m426.25,570.18c0,14.79-10.35,26.76-23.12,26.76h-16.33c-12.76,0-23.12-11.97-23.12-26.76v-102.19c0-14.78,10.36-26.74,23.12-26.74h16.33c12.77,0,23.12,11.96,23.12,26.74v102.19Z"/>
              <path class="cls-92" d="m425.95,569.86c0,14.81-10.37,26.8-23.15,26.8h-15.68c-12.78,0-23.15-11.99-23.15-26.8v-101.55c0-14.8,10.37-26.78,23.15-26.78h15.68c12.78,0,23.15,11.98,23.15,26.78v101.55Z"/>
              <path class="cls-8" d="m425.66,569.54c0,14.83-10.38,26.84-23.18,26.84h-15.03c-12.8,0-23.18-12.01-23.18-26.84v-100.91c0-14.82,10.38-26.81,23.18-26.81h15.03c12.8,0,23.18,12,23.18,26.81v100.91Z"/>
              <path class="cls-27" d="m425.36,569.22c0,14.85-10.4,26.87-23.21,26.87h-14.38c-12.82,0-23.21-12.02-23.21-26.87v-100.27c0-14.84,10.4-26.85,23.21-26.85h14.38c12.82,0,23.21,12.01,23.21,26.85v100.27Z"/>
              <path class="cls-18" d="m425.07,568.9c0,14.87-10.41,26.91-23.24,26.91h-13.73c-12.83,0-23.25-12.04-23.25-26.91v-99.63c0-14.86,10.41-26.89,23.25-26.89h13.73c12.83,0,23.24,12.03,23.24,26.89v99.63Z"/>
              <path class="cls-83" d="m424.77,568.58c0,14.89-10.42,26.94-23.28,26.94h-13.07c-12.85,0-23.28-12.05-23.28-26.94v-98.99c0-14.88,10.43-26.92,23.28-26.92h13.07c12.85,0,23.28,12.04,23.28,26.92v98.99Z"/>
              <path class="cls-96" d="m424.48,568.25c0,14.91-10.44,26.98-23.31,26.98h-12.42c-12.87,0-23.31-12.07-23.31-26.98v-98.35c0-14.9,10.44-26.96,23.31-26.96h12.42c12.87,0,23.31,12.06,23.31,26.96v98.35Z"/>
              <path class="cls-65" d="m424.19,567.93c0,14.93-10.45,27.02-23.34,27.02h-11.77c-12.88,0-23.34-12.09-23.34-27.02v-97.7c0-14.92,10.46-26.99,23.34-26.99h11.77c12.88,0,23.34,12.08,23.34,26.99v97.7Z"/>
              <path class="cls-13" d="m423.89,567.61c0,14.95-10.47,27.05-23.37,27.05h-11.12c-12.9,0-23.37-12.1-23.37-27.05v-97.06c0-14.94,10.47-27.03,23.37-27.03h11.12c12.9,0,23.37,12.09,23.37,27.03v97.06Z"/>
              <path class="cls-63" d="m423.6,567.29c0,14.97-10.48,27.09-23.4,27.09h-10.47c-12.92,0-23.4-12.12-23.4-27.09v-96.42c0-14.96,10.48-27.06,23.4-27.06h10.47c12.92,0,23.4,12.11,23.4,27.06v96.42Z"/>
              <path class="cls-108" d="m423.3,566.97c0,14.99-10.5,27.12-23.43,27.12h-9.82c-12.94,0-23.43-12.13-23.43-27.12v-95.78c0-14.98,10.5-27.1,23.43-27.1h9.82c12.94,0,23.43,12.12,23.43,27.1v95.78Z"/>
              <path class="cls-59" d="m423.01,566.65c0,15.01-10.51,27.16-23.47,27.16h-9.17c-12.95,0-23.47-12.15-23.47-27.16v-95.14c0-15,10.51-27.14,23.47-27.14h9.17c12.95,0,23.47,12.14,23.47,27.14v95.14Z"/>
              <path class="cls-105" d="m422.72,566.33c0,15.03-10.53,27.2-23.5,27.2h-8.51c-12.97,0-23.5-12.16-23.5-27.2v-94.5c0-15.02,10.53-27.17,23.5-27.17h8.51c12.97,0,23.5,12.16,23.5,27.17v94.5Z"/>
              <path class="cls-9" d="m422.42,566.01c0,15.05-10.54,27.23-23.53,27.23h-7.86c-12.99,0-23.53-12.18-23.53-27.23v-93.86c0-15.04,10.54-27.21,23.53-27.21h7.86c12.99,0,23.53,12.17,23.53,27.21v93.86Z"/>
            </g>
            <path class="cls-29" d="m439.48,584.6c0,13.88-9.7,25.14-21.69,25.14h-45.65c-11.99,0-21.7-11.26-21.7-25.14v-131.03c0-13.89,9.71-25.13,21.7-25.13h45.65c11.99,0,21.69,11.24,21.69,25.13v131.03Z"/>
          </g>
          <path class="cls-19" d="m439.48,584.6c0,13.88-9.7,25.14-21.69,25.14h-45.65c-11.99,0-21.7-11.26-21.7-25.14v-131.03c0-13.89,9.71-25.13,21.7-25.13h45.65c11.99,0,21.69,11.24,21.69,25.13v131.03Z"/>
          <g>
            <g>
              <path class="cls-49" d="m394.83,533.71c-7.28-.1-13.13-6.71-13.07-14.79.07-8.07,6.03-14.54,13.32-14.45,7.29.09,13.13,6.71,13.07,14.79-.07,8.07-6.03,14.54-13.32,14.45Z"/>
              <path class="cls-61" d="m394.84,533.21c-7.03-.09-12.68-6.48-12.61-14.28.07-7.79,5.82-14.04,12.86-13.95,7.04.09,12.68,6.48,12.62,14.27-.07,7.8-5.82,14.04-12.86,13.95Z"/>
              <path class="cls-38" d="m394.84,532.7c-6.78-.09-12.22-6.25-12.16-13.77.07-7.51,5.61-13.54,12.4-13.45,6.78.08,12.23,6.25,12.16,13.76-.07,7.52-5.62,13.54-12.4,13.45Z"/>
              <path class="cls-44" d="m394.85,532.19c-6.53-.09-11.77-6.01-11.71-13.26.06-7.23,5.41-13.03,11.94-12.95,6.53.08,11.77,6.01,11.71,13.25-.06,7.24-5.41,13.03-11.94,12.95Z"/>
              <path class="cls-64" d="m394.85,531.69c-6.27-.08-11.31-5.78-11.26-12.74.06-6.95,5.2-12.53,11.47-12.45,6.28.08,11.32,5.78,11.26,12.74-.06,6.96-5.2,12.53-11.48,12.45Z"/>
              <path class="cls-76" d="m394.86,531.18c-6.02-.08-10.86-5.55-10.8-12.23.06-6.67,4.99-12.02,11.01-11.95,6.03.07,10.86,5.55,10.81,12.23-.06,6.68-4.99,12.02-11.02,11.95Z"/>
              <path class="cls-34" d="m394.86,530.67c-5.77-.07-10.4-5.32-10.35-11.72.06-6.39,4.78-11.52,10.55-11.45,5.78.07,10.41,5.32,10.36,11.71-.06,6.4-4.78,11.52-10.55,11.45Z"/>
              <path class="cls-100" d="m394.87,530.17c-5.52-.07-9.95-5.08-9.9-11.21.05-6.11,4.57-11.02,10.09-10.95,5.52.07,9.95,5.08,9.9,11.2-.05,6.12-4.57,11.02-10.09,10.95Z"/>
              <path class="cls-47" d="m394.87,529.66c-5.26-.07-9.5-4.85-9.45-10.69.05-5.83,4.36-10.51,9.63-10.45,5.27.07,9.5,4.85,9.45,10.69-.05,5.84-4.36,10.51-9.63,10.45Z"/>
              <path class="cls-43" d="m394.88,529.15c-5.01-.06-9.04-4.62-8.99-10.18.05-5.55,4.15-10.01,9.16-9.95,5.02.06,9.05,4.62,9,10.18-.05,5.56-4.16,10.01-9.17,9.95Z"/>
              <path class="cls-51" d="m394.88,528.65c-4.76-.06-8.59-4.39-8.54-9.67.05-5.27,3.94-9.51,8.7-9.45,4.77.06,8.59,4.39,8.55,9.67-.05,5.28-3.95,9.51-8.71,9.45Z"/>
              <path class="cls-109" d="m394.88,528.14c-4.51-.06-8.13-4.15-8.09-9.16.04-4.99,3.73-9,8.24-8.95,4.52.06,8.14,4.15,8.09,9.16s-3.74,9-8.25,8.95Z"/>
            </g>
            <path class="cls-66" d="m394.88,528.14c-4.51-.06-8.13-4.15-8.09-9.16.04-4.99,3.73-9,8.24-8.95,4.52.06,8.14,4.15,8.09,9.16s-3.74,9-8.25,8.95Z"/>
          </g>
          <g>
            <path class="cls-98" d="m556.41,618.88c-68.1,0-107.15-55.46-107.15-99.76s39.05-99.81,107.15-99.81,139.32,55.47,139.32,99.81-71.27,99.76-139.32,99.76Z"/>
            <path class="cls-16" d="m556.58,617.84c-67.39,0-106.03-54.88-106.03-98.72s38.64-98.77,106.03-98.77,137.86,54.89,137.86,98.77-70.53,98.72-137.86,98.72Z"/>
            <path class="cls-46" d="m556.75,616.79c-66.68,0-104.91-54.3-104.91-97.68s38.23-97.73,104.91-97.73,136.41,54.31,136.41,97.73-69.78,97.68-136.41,97.68Z"/>
            <path class="cls-70" d="m556.92,615.75c-65.96,0-103.79-53.72-103.79-96.64s37.83-96.69,103.79-96.69,134.95,53.73,134.95,96.69-69.04,96.64-134.95,96.64Z"/>
            <path class="cls-47" d="m557.09,614.71c-65.25,0-102.67-53.14-102.67-95.6s37.42-95.64,102.67-95.64,133.5,53.15,133.5,95.64-68.29,95.6-133.5,95.6Z"/>
            <path class="cls-75" d="m557.26,613.67c-64.54,0-101.55-52.56-101.55-94.55s37.01-94.6,101.55-94.6,132.04,52.58,132.04,94.6-67.55,94.55-132.04,94.55Z"/>
            <path class="cls-39" d="m557.42,612.63c-63.83,0-100.43-51.98-100.43-93.51s36.6-93.56,100.43-93.56,130.59,52,130.59,93.56-66.81,93.51-130.59,93.51Z"/>
            <path class="cls-67" d="m557.59,611.58c-63.12,0-99.32-51.4-99.32-92.47s36.2-92.52,99.32-92.52,129.13,51.42,129.13,92.52-66.06,92.47-129.13,92.47Z"/>
            <path class="cls-3" d="m557.76,610.54c-62.41,0-98.2-50.82-98.2-91.43s35.79-91.48,98.2-91.48,127.68,50.84,127.68,91.48-65.32,91.43-127.68,91.43Z"/>
            <path class="cls-109" d="m557.93,609.5c-61.7,0-97.08-50.24-97.08-90.39s35.38-90.43,97.08-90.43,126.22,50.26,126.22,90.43-64.58,90.39-126.22,90.39Z"/>
            <path class="cls-103" d="m558.1,608.46c-60.99,0-95.96-49.66-95.96-89.34s34.97-89.39,95.96-89.39,124.77,49.68,124.77,89.39-63.83,89.34-124.77,89.34Z"/>
            <path class="cls-18" d="m558.27,607.41c-60.28,0-94.84-49.08-94.84-88.3s34.56-88.35,94.84-88.35,123.31,49.1,123.31,88.35-63.09,88.3-123.31,88.3Z"/>
            <path class="cls-18" d="m558.6,606.65c-59.89,0-94.24-48.66-94.24-87.54s34.34-87.59,94.24-87.59,122.53,48.68,122.53,87.59-62.68,87.54-122.53,87.54Z"/>
            <path class="cls-18" d="m558.94,605.89c-59.51,0-93.63-48.24-93.63-86.78s34.12-86.83,93.63-86.83,121.74,48.25,121.74,86.83-62.28,86.78-121.74,86.78Z"/>
            <path class="cls-18" d="m559.27,605.13c-59.12,0-93.03-47.81-93.03-86.02s33.9-86.06,93.03-86.06,120.95,47.83,120.95,86.06-61.88,86.02-120.95,86.02Z"/>
            <path class="cls-18" d="m559.61,604.37c-58.74,0-92.42-47.39-92.42-85.25s33.68-85.3,92.42-85.3,120.17,47.41,120.17,85.3-61.47,85.25-120.17,85.25Z"/>
            <path class="cls-18" d="m559.94,603.61c-58.35,0-91.82-46.97-91.82-84.49s33.46-84.54,91.82-84.54,119.38,46.98,119.38,84.54-61.07,84.49-119.38,84.49Z"/>
            <path class="cls-18" d="m560.28,602.84c-57.97,0-91.21-46.54-91.21-83.73s33.24-83.78,91.21-83.78,118.59,46.56,118.59,83.78-60.67,83.73-118.59,83.73Z"/>
            <path class="cls-18" d="m560.61,602.08c-57.58,0-90.61-46.12-90.61-82.97s33.02-83.02,90.61-83.02,117.8,46.14,117.8,83.02-60.26,82.97-117.8,82.97Z"/>
            <path class="cls-18" d="m560.95,601.32c-57.2,0-90-45.7-90-82.21s32.8-82.26,90-82.26,117.02,45.71,117.02,82.26-59.86,82.21-117.02,82.21Z"/>
            <path class="cls-18" d="m561.28,600.56c-56.81,0-89.39-45.28-89.39-81.44s32.58-81.49,89.39-81.49,116.23,45.29,116.23,81.49-59.46,81.44-116.23,81.44Z"/>
            <path class="cls-18" d="m561.62,599.8c-56.43,0-88.79-44.85-88.79-80.68s32.36-80.73,88.79-80.73,115.44,44.87,115.44,80.73-59.05,80.68-115.44,80.68Z"/>
            <path class="cls-18" d="m561.95,599.03c-56.05,0-88.18-44.43-88.18-79.92s32.14-79.97,88.18-79.97,114.65,44.45,114.65,79.97-58.65,79.92-114.65,79.92Z"/>
            <path class="cls-89" d="m562.13,598.52c-55.53,0-87.38-44.17-87.38-79.45s31.85-79.5,87.38-79.5,113.62,44.18,113.62,79.5-58.12,79.45-113.62,79.45Z"/>
            <path class="cls-102" d="m562.3,598c-55.02,0-86.58-43.91-86.58-78.98s31.56-79.02,86.58-79.02,112.58,43.92,112.58,79.02-57.59,78.98-112.58,78.98Z"/>
            <path class="cls-52" d="m562.48,597.49c-54.51,0-85.78-43.65-85.78-78.5s31.27-78.55,85.78-78.55,111.54,43.66,111.54,78.55-57.06,78.5-111.54,78.5Z"/>
            <path class="cls-26" d="m562.65,596.97c-54,0-84.98-43.39-84.98-78.03s30.99-78.08,84.98-78.08,110.51,43.39,110.51,78.08-56.52,78.03-110.51,78.03Z"/>
            <path class="cls-1" d="m562.83,596.46c-53.49,0-84.18-43.12-84.18-77.56s30.7-77.6,84.18-77.6,109.47,43.13,109.47,77.6-55.99,77.56-109.47,77.56Z"/>
            <path class="cls-47" d="m563,595.95c-52.97,0-83.38-42.86-83.38-77.08s30.41-77.13,83.38-77.13,108.43,42.87,108.43,77.13-55.46,77.08-108.43,77.08Z"/>
            <path class="cls-97" d="m563.17,595.43c-52.46,0-82.58-42.6-82.58-76.61s30.12-76.66,82.58-76.66,107.4,42.6,107.4,76.66-54.93,76.61-107.4,76.61Z"/>
            <path class="cls-94" d="m563.35,594.92c-51.95,0-81.78-42.34-81.78-76.14s29.83-76.19,81.78-76.19,106.36,42.34,106.36,76.19-54.4,76.14-106.36,76.14Z"/>
            <path class="cls-58" d="m563.52,594.4c-51.44,0-80.98-42.08-80.98-75.66s29.54-75.71,80.98-75.71,105.32,42.08,105.32,75.71-53.86,75.66-105.32,75.66Z"/>
            <path class="cls-45" d="m563.7,593.89c-50.92,0-80.18-41.82-80.18-75.19s29.25-75.24,80.18-75.24,104.28,41.81,104.28,75.24-53.33,75.19-104.28,75.19Z"/>
            <path class="cls-72" d="m563.87,593.37c-50.41,0-79.38-41.56-79.38-74.72s28.97-74.77,79.38-74.77,103.25,41.55,103.25,74.77-52.8,74.72-103.25,74.72Z"/>
            <path class="cls-5" d="m564.15,592.06c-49.33,0-77.67-40.8-77.67-73.36s28.34-73.41,77.67-73.41,101.02,40.8,101.02,73.41-51.66,73.36-101.02,73.36Z"/>
            <path class="cls-90" d="m564.42,590.74c-48.24,0-75.96-40.05-75.96-72s27.72-72.05,75.96-72.05,98.79,40.04,98.79,72.05-50.52,72-98.79,72Z"/>
            <path class="cls-101" d="m564.69,589.42c-47.16,0-74.25-39.29-74.25-70.65s27.1-70.69,74.25-70.69,96.57,39.29,96.57,70.69-49.38,70.65-96.57,70.65Z"/>
            <path class="cls-68" d="m564.97,588.11c-46.07,0-72.54-38.53-72.54-69.29s26.47-69.34,72.54-69.34,94.34,38.53,94.34,69.34-48.24,69.29-94.34,69.29Z"/>
            <path class="cls-32" d="m565.24,586.79c-44.99,0-70.83-37.78-70.83-67.93s25.85-67.98,70.83-67.98,92.11,37.78,92.11,67.98-47.1,67.93-92.11,67.93Z"/>
            <path class="cls-78" d="m565.51,585.48c-43.9,0-69.13-37.02-69.13-66.57s25.22-66.62,69.13-66.62,89.89,37.02,89.89,66.62-45.97,66.57-89.89,66.57Z"/>
            <path class="cls-104" d="m565.79,584.16c-42.82,0-67.42-36.27-67.42-65.22s24.6-65.27,67.42-65.27,87.66,36.27,87.66,65.27-44.83,65.22-87.66,65.22Z"/>
            <path class="cls-87" d="m566.06,582.85c-41.73,0-65.71-35.51-65.71-63.86s23.98-63.91,65.71-63.91,85.43,35.51,85.43,63.91-43.69,63.86-85.43,63.86Z"/>
            <path class="cls-48" d="m566.34,581.53c-40.65,0-64-34.75-64-62.5s23.35-62.55,64-62.55,83.21,34.76,83.21,62.55-42.55,62.5-83.21,62.5Z"/>
            <path class="cls-41" d="m566.61,580.22c-39.56,0-62.29-34-62.29-61.14s22.73-61.19,62.29-61.19,80.98,34,80.98,61.19-41.41,61.14-80.98,61.14Z"/>
            <path class="cls-54" d="m566.88,578.9c-38.48,0-60.58-33.24-60.58-59.79s22.11-59.84,60.58-59.84,78.75,33.25,78.75,59.84-40.27,59.79-78.75,59.79Z"/>
          </g>
          <path class="cls-30" d="m556.41,618.88c-68.1,0-107.15-55.46-107.15-99.76s39.05-99.81,107.15-99.81,139.32,55.47,139.32,99.81-71.27,99.76-139.32,99.76Z"/>
          <g>
            <path class="cls-109" d="m597.15,488.69c-19.54,0-30.78,16.87-30.78,30.38s11.24,30.43,30.78,30.43,40.06-16.92,40.06-30.43-20.47-30.38-40.06-30.38Z"/>
            <path class="cls-67" d="m597.98,489.78c-18.84,0-29.68,16.26-29.68,29.29s10.83,29.33,29.68,29.33,38.62-16.31,38.62-29.33-19.74-29.29-38.62-29.29Z"/>
            <path class="cls-82" d="m598.8,490.87c-18.14,0-28.57,15.66-28.57,28.2s10.43,28.24,28.57,28.24,37.18-15.7,37.18-28.24-19-28.2-37.18-28.2Z"/>
            <path class="cls-95" d="m599.63,491.96c-17.44,0-27.47,15.05-27.47,27.11s10.03,27.15,27.47,27.15,35.75-15.09,35.75-27.15-18.27-27.11-35.75-27.11Z"/>
            <path class="cls-53" d="m600.45,493.05c-16.74,0-26.36,14.45-26.36,26.02s9.62,26.06,26.36,26.06,34.31-14.49,34.31-26.06-17.53-26.02-34.31-26.02Z"/>
            <path class="cls-85" d="m601.28,494.14c-16.04,0-25.26,13.84-25.26,24.93s9.22,24.97,25.26,24.97,32.87-13.88,32.87-24.97-16.8-24.93-32.87-24.93Z"/>
            <path class="cls-79" d="m602.11,495.23c-15.33,0-24.15,13.24-24.15,23.84s8.82,23.87,24.15,23.87,31.43-13.27,31.43-23.87-16.07-23.84-31.43-23.84Z"/>
            <path class="cls-7" d="m602.93,496.32c-14.63,0-23.05,12.63-23.05,22.74s8.41,22.78,23.05,22.78,30-12.66,30-22.78-15.33-22.74-30-22.74Z"/>
            <path class="cls-28" d="m603.76,497.42c-13.93,0-21.94,12.03-21.94,21.65s8.01,21.69,21.94,21.69,28.56-12.06,28.56-21.69-14.6-21.65-28.56-21.65Z"/>
            <path class="cls-81" d="m604.59,498.51c-13.23,0-20.84,11.42-20.84,20.56s7.61,20.6,20.84,20.6,27.12-11.45,27.12-20.6-13.86-20.56-27.12-20.56Z"/>
            <path class="cls-2" d="m605.41,499.6c-12.53,0-19.73,10.82-19.73,19.47s7.2,19.51,19.73,19.51,25.69-10.84,25.69-19.51-13.13-19.47-25.69-19.47Z"/>
            <path class="cls-25" d="m606.24,500.69c-11.83,0-18.63,10.21-18.63,18.38s6.8,18.42,18.63,18.42,24.25-10.24,24.25-18.42-12.39-18.38-24.25-18.38Z"/>
          </g>
          <path class="cls-22" d="m563.87,592.6c-50.41,0-79.38-41.56-79.38-74.72s28.97-74.77,79.38-74.77,103.25,41.55,103.25,74.77-52.8,74.72-103.25,74.72Z"/>
          <path class="cls-106" d="m452.45,413.79c3.77,0,6.82,3.4,6.82,7.58l-.1,195.48c0,4.18-3.06,7.56-6.83,7.54h-1.04c-3.77-.02-6.82-3.41-6.82-7.59l.1-195.48c0-4.18,3.06-7.55,6.83-7.54h1.04Z"/>
          <path class="cls-29" d="m452.45,413.79c3.77,0,6.82,3.4,6.82,7.58l-.1,195.48c0,4.18-3.06,7.56-6.83,7.54h-1.04c-3.77-.02-6.82-3.41-6.82-7.59l.1-195.48c0-4.18,3.06-7.55,6.83-7.54h1.04Z"/>
        </g>
      </g>
      <g>
        <g class="cls-24">
          <path class="cls-9" d="m189.96,141.93c.01-.6.06-1.2.09-1.81.07-1.17.15-2.36.15-3.55,0-55.78-40.68-118.16-95.1-118.16S0,80.79,0,136.57c0,1.15.07,2.3.14,3.44.04.63.08,1.27.11,1.76-.02.28-.06.54-.09.81-.07.48-.12.95-.12,1.46v115.3c0,11.28,6.29,20.95,15.17,24.97-1.71,3.49-2.77,7.4-2.77,11.61v50.71c0,13.94,10.63,25.3,23.69,25.3h117.93c13.07,0,23.7-11.36,23.7-25.3v-50.71c0-4.2-1.06-8.11-2.77-11.61,8.88-4.02,15.17-13.68,15.17-24.97v-115.3c0-.52-.07-1.02-.12-1.52-.04-.24-.07-.48-.07-.58Z"/>
          <path class="cls-108" d="m191.39,141.05c.01-.61.06-1.2.09-1.81.07-1.17.15-2.36.15-3.55,0-55.78-40.68-118.16-95.1-118.16S1.43,79.92,1.43,135.69c0,1.15.07,2.3.14,3.44.04.63.08,1.27.11,1.76-.02.28-.05.54-.09.81-.06.48-.12.95-.12,1.46v115.3c0,11.29,6.29,20.95,15.17,24.97-1.71,3.49-2.77,7.4-2.77,11.61v50.71c0,13.94,10.63,25.3,23.69,25.3h117.93c13.07,0,23.7-11.36,23.7-25.3v-50.71c0-4.2-1.06-8.11-2.77-11.61,8.88-4.02,15.17-13.68,15.17-24.97v-115.3c0-.52-.06-1.03-.12-1.52-.03-.24-.07-.48-.07-.58Z"/>
          <path class="cls-13" d="m192.81,140.17c.02-.61.06-1.2.1-1.81.07-1.17.15-2.36.15-3.55,0-55.78-40.68-118.16-95.1-118.16S2.86,79.04,2.86,134.82c0,1.15.07,2.3.14,3.44.04.63.08,1.27.11,1.76-.02.28-.05.54-.09.81-.06.48-.12.95-.12,1.46v115.3c0,11.29,6.29,20.95,15.17,24.97-1.71,3.49-2.77,7.4-2.77,11.61v50.71c0,13.94,10.63,25.3,23.69,25.3h117.93c13.07,0,23.7-11.36,23.7-25.3v-50.71c0-4.2-1.06-8.11-2.77-11.61,8.88-4.02,15.17-13.68,15.17-24.97v-115.3c0-.52-.06-1.03-.12-1.52-.03-.24-.07-.48-.07-.58Z"/>
          <path class="cls-83" d="m194.24,139.3c.02-.61.06-1.2.1-1.81.07-1.17.15-2.36.15-3.55,0-55.78-40.68-118.16-95.1-118.16S4.28,78.16,4.28,133.94c0,1.15.07,2.3.14,3.44.04.63.08,1.27.11,1.76-.02.28-.05.54-.09.81-.06.48-.12.95-.12,1.46v115.3c0,11.29,6.29,20.95,15.17,24.97-1.71,3.49-2.77,7.4-2.77,11.61v50.71c0,13.94,10.63,25.29,23.69,25.29h117.93c13.07,0,23.7-11.36,23.7-25.29v-50.71c0-4.2-1.06-8.11-2.77-11.61,8.88-4.02,15.17-13.68,15.17-24.97v-115.3c0-.52-.06-1.03-.12-1.52-.03-.24-.07-.49-.07-.58Z"/>
          <path class="cls-8" d="m195.67,138.42c.02-.61.06-1.2.1-1.81.07-1.17.15-2.36.15-3.55,0-55.78-40.68-118.16-95.1-118.16S5.71,77.29,5.71,133.06c0,1.15.07,2.3.14,3.43.04.63.08,1.27.11,1.76-.02.28-.05.54-.09.81-.06.48-.12.95-.12,1.46v115.3c0,11.29,6.29,20.95,15.17,24.97-1.71,3.49-2.77,7.4-2.77,11.61v50.71c0,13.94,10.63,25.29,23.69,25.29h117.93c13.07,0,23.7-11.36,23.7-25.29v-50.71c0-4.2-1.06-8.11-2.77-11.61,8.88-4.02,15.17-13.68,15.17-24.97v-115.3c0-.52-.06-1.03-.12-1.52-.03-.24-.07-.49-.07-.58Z"/>
          <path class="cls-89" d="m197.1,137.54c.02-.61.06-1.2.1-1.81.07-1.17.15-2.36.15-3.55,0-55.78-40.68-118.16-95.1-118.16S7.14,76.41,7.14,132.19c0,1.15.07,2.3.14,3.43.04.63.08,1.27.11,1.76-.02.28-.05.54-.09.81-.06.48-.12.95-.12,1.46v115.3c0,11.29,6.29,20.95,15.17,24.97-1.71,3.49-2.77,7.4-2.77,11.61v50.71c0,13.94,10.63,25.29,23.69,25.29h117.93c13.07,0,23.7-11.36,23.7-25.29v-50.71c0-4.2-1.06-8.11-2.77-11.61,8.88-4.02,15.17-13.68,15.17-24.97v-115.3c0-.52-.06-1.03-.12-1.52-.03-.24-.07-.49-.07-.58Z"/>
          <path class="cls-84" d="m198.53,136.67c.02-.61.06-1.2.1-1.81.07-1.17.15-2.36.15-3.55,0-55.78-40.68-118.16-95.1-118.16S8.57,75.53,8.57,131.31c0,1.15.07,2.3.14,3.43.04.63.08,1.27.11,1.76-.02.28-.05.54-.09.81-.06.48-.12.95-.12,1.46v115.3c0,11.29,6.29,20.95,15.17,24.97-1.71,3.49-2.77,7.4-2.77,11.61v50.71c0,13.94,10.63,25.29,23.69,25.29h117.93c13.07,0,23.7-11.36,23.7-25.29v-50.71c0-4.2-1.06-8.11-2.77-11.61,8.88-4.02,15.17-13.68,15.17-24.97v-115.3c0-.52-.06-1.03-.12-1.52-.03-.24-.07-.49-.07-.58Z"/>
          <path class="cls-102" d="m199.95,135.79c.02-.61.06-1.2.1-1.81.07-1.17.15-2.36.15-3.55,0-55.78-40.68-118.16-95.1-118.16S9.99,74.66,9.99,130.44c0,1.15.07,2.3.14,3.43.04.63.08,1.27.11,1.76-.02.28-.05.54-.09.81-.06.48-.12.95-.12,1.46v115.3c0,11.29,6.29,20.95,15.17,24.97-1.71,3.49-2.77,7.4-2.77,11.61v50.71c0,13.94,10.63,25.29,23.69,25.29h117.93c13.07,0,23.7-11.35,23.7-25.29v-50.71c0-4.21-1.06-8.11-2.77-11.61,8.88-4.02,15.17-13.68,15.17-24.97v-115.3c0-.52-.06-1.03-.12-1.52-.03-.24-.07-.49-.08-.58Z"/>
          <path class="cls-3" d="m201.38,134.91c.02-.61.06-1.2.1-1.81.07-1.17.15-2.36.15-3.55,0-55.78-40.68-118.16-95.1-118.16S11.42,73.78,11.42,129.56c0,1.15.07,2.3.14,3.43.04.63.08,1.27.11,1.76-.02.28-.05.54-.09.81-.06.48-.12.95-.12,1.46v115.3c0,11.29,6.29,20.95,15.17,24.97-1.71,3.49-2.77,7.4-2.77,11.61v50.71c0,13.94,10.63,25.29,23.69,25.29h117.93c13.07,0,23.7-11.35,23.7-25.29v-50.71c0-4.21-1.06-8.11-2.77-11.61,8.88-4.02,15.17-13.68,15.17-24.97v-115.3c0-.52-.06-1.03-.12-1.52-.03-.24-.07-.49-.08-.58Z"/>
          <path class="cls-52" d="m202.81,134.04c.02-.61.06-1.21.1-1.81.07-1.17.15-2.36.15-3.55,0-55.78-40.68-118.16-95.1-118.16S12.85,72.9,12.85,128.68c0,1.15.07,2.3.14,3.43.04.63.08,1.27.11,1.76-.02.28-.05.54-.09.81-.06.48-.12.95-.12,1.46v115.3c0,11.29,6.29,20.95,15.17,24.97-1.71,3.49-2.77,7.4-2.77,11.61v50.71c0,13.94,10.63,25.29,23.69,25.29h117.93c13.07,0,23.7-11.35,23.7-25.29v-50.71c0-4.21-1.06-8.11-2.77-11.61,8.88-4.02,15.17-13.68,15.17-24.97v-115.3c0-.52-.06-1.03-.12-1.52-.03-.24-.07-.49-.08-.58Z"/>
          <path class="cls-62" d="m204.24,133.16c.02-.61.06-1.21.1-1.81.07-1.17.15-2.36.15-3.55,0-55.78-40.68-118.16-95.1-118.16S14.28,72.03,14.28,127.81c0,1.15.07,2.3.14,3.43.04.63.08,1.27.11,1.76-.02.28-.05.54-.09.81-.06.48-.12.95-.12,1.46v115.3c0,11.29,6.29,20.95,15.17,24.97-1.71,3.49-2.77,7.4-2.77,11.61v50.71c0,13.94,10.63,25.29,23.69,25.29h117.93c13.07,0,23.7-11.35,23.7-25.29v-50.71c0-4.21-1.06-8.11-2.77-11.61,8.88-4.02,15.17-13.68,15.17-24.97v-115.3c0-.52-.06-1.03-.12-1.52-.03-.24-.07-.49-.08-.58Z"/>
          <path class="cls-50" d="m205.66,132.29c.02-.61.06-1.21.1-1.81.07-1.17.15-2.36.15-3.55,0-55.78-40.68-118.16-95.1-118.16S15.71,71.15,15.71,126.93c0,1.15.07,2.3.14,3.43.04.63.08,1.27.11,1.76-.02.28-.06.54-.09.81-.06.48-.12.95-.12,1.46v115.3c0,11.29,6.29,20.95,15.17,24.97-1.71,3.49-2.77,7.4-2.77,11.61v50.71c0,13.94,10.63,25.29,23.69,25.29h117.93c13.07,0,23.7-11.35,23.7-25.29v-50.71c0-4.21-1.06-8.11-2.77-11.61,8.88-4.02,15.17-13.68,15.17-24.97v-115.3c0-.52-.06-1.03-.12-1.52-.03-.24-.07-.49-.08-.58Z"/>
          <path class="cls-43" d="m207.09,131.41c.02-.61.06-1.21.1-1.81.07-1.17.15-2.36.15-3.55,0-55.78-40.68-118.16-95.1-118.16S17.13,70.27,17.13,126.05c0,1.15.07,2.3.14,3.43.04.63.08,1.27.11,1.76-.02.28-.06.54-.09.81-.06.48-.12.95-.12,1.46v115.3c0,11.29,6.29,20.95,15.17,24.97-1.71,3.49-2.77,7.4-2.77,11.61v50.71c0,13.94,10.63,25.29,23.69,25.29h117.93c13.07,0,23.7-11.35,23.7-25.29v-50.71c0-4.21-1.06-8.11-2.77-11.61,8.88-4.02,15.17-13.68,15.17-24.97v-115.3c0-.52-.06-1.03-.12-1.52-.03-.24-.07-.49-.08-.58Z"/>
          <path class="cls-75" d="m208.52,130.53c.02-.61.06-1.21.1-1.81.07-1.17.15-2.36.15-3.55,0-55.78-40.68-118.16-95.1-118.16S18.56,69.4,18.56,125.18c0,1.15.07,2.3.14,3.43.04.63.08,1.27.11,1.76-.02.28-.06.54-.09.81-.06.48-.12.95-.12,1.46v115.3c0,11.29,6.29,20.95,15.17,24.97-1.71,3.49-2.77,7.4-2.77,11.61v50.71c0,13.94,10.63,25.29,23.69,25.29h117.93c13.07,0,23.7-11.35,23.7-25.29v-50.71c0-4.21-1.06-8.11-2.77-11.61,8.88-4.02,15.17-13.68,15.17-24.97v-115.3c0-.52-.06-1.03-.12-1.52-.03-.24-.07-.49-.08-.58Z"/>
          <path class="cls-93" d="m209.95,129.66c.02-.61.06-1.21.1-1.81.07-1.17.15-2.36.15-3.55,0-55.78-40.68-118.16-95.1-118.16S19.99,68.52,19.99,124.3c0,1.15.07,2.3.14,3.43.04.63.08,1.27.11,1.76-.02.28-.06.54-.09.81-.06.48-.12.95-.12,1.45v115.3c0,11.29,6.29,20.95,15.17,24.97-1.71,3.49-2.77,7.4-2.77,11.61v50.71c0,13.94,10.63,25.29,23.69,25.29h117.93c13.07,0,23.7-11.35,23.7-25.29v-50.71c0-4.21-1.06-8.11-2.77-11.61,8.88-4.02,15.17-13.68,15.17-24.97v-115.3c0-.52-.06-1.03-.12-1.52-.03-.24-.07-.49-.08-.58Z"/>
          <path class="cls-35" d="m211.38,128.78c.02-.61.06-1.21.1-1.81.07-1.17.15-2.36.15-3.55,0-55.78-40.68-118.16-95.1-118.16S21.42,67.64,21.42,123.42c0,1.15.07,2.3.14,3.43.04.63.08,1.27.11,1.76-.02.28-.06.54-.09.81-.06.48-.12.95-.12,1.45v115.3c0,11.29,6.29,20.95,15.17,24.97-1.71,3.49-2.77,7.4-2.77,11.61v50.71c0,13.94,10.63,25.29,23.69,25.29h117.93c13.07,0,23.7-11.35,23.7-25.29v-50.71c0-4.21-1.06-8.11-2.77-11.61,8.88-4.02,15.16-13.68,15.16-24.97v-115.3c0-.52-.06-1.03-.12-1.52-.03-.24-.07-.49-.08-.58Z"/>
          <path class="cls-55" d="m212.8,127.9c.02-.61.06-1.21.1-1.81.07-1.17.15-2.36.15-3.55,0-55.78-40.68-118.16-95.1-118.16S22.84,66.77,22.84,122.55c0,1.15.07,2.3.14,3.43.04.64.08,1.27.11,1.76-.02.28-.06.54-.09.81-.06.48-.12.95-.12,1.45v115.3c0,11.29,6.29,20.95,15.17,24.97-1.71,3.49-2.77,7.4-2.77,11.61v50.71c0,13.94,10.63,25.29,23.69,25.29h117.93c13.07,0,23.7-11.35,23.7-25.29v-50.71c0-4.21-1.06-8.11-2.77-11.61,8.88-4.02,15.16-13.68,15.16-24.97v-115.3c0-.52-.06-1.03-.12-1.52-.03-.24-.07-.49-.08-.58Z"/>
          <path class="cls-12" d="m214.23,127.03c.02-.61.06-1.21.1-1.81.07-1.17.15-2.36.15-3.55,0-55.78-40.68-118.16-95.1-118.16S24.27,65.89,24.27,121.67c0,1.15.07,2.3.14,3.43.04.64.08,1.27.11,1.76-.02.28-.06.54-.09.81-.06.48-.12.95-.12,1.45v115.3c0,11.29,6.29,20.95,15.17,24.97-1.71,3.49-2.77,7.4-2.77,11.61v50.71c0,13.94,10.63,25.29,23.69,25.29h117.93c13.07,0,23.7-11.35,23.7-25.29v-50.71c0-4.21-1.06-8.11-2.77-11.61,8.88-4.02,15.16-13.68,15.16-24.97v-115.3c0-.52-.06-1.03-.12-1.52-.03-.24-.07-.49-.08-.58Z"/>
          <path class="cls-91" d="m215.66,126.15c.02-.61.07-1.21.1-1.81.07-1.17.15-2.36.15-3.55,0-55.78-40.68-118.16-95.1-118.16S25.7,65.01,25.7,120.79c0,1.15.07,2.3.14,3.43.04.64.08,1.27.11,1.77-.02.28-.06.54-.09.81-.06.48-.12.95-.12,1.45v115.3c0,11.29,6.29,20.96,15.17,24.97-1.71,3.49-2.77,7.4-2.77,11.61v50.71c0,13.94,10.63,25.29,23.69,25.29h117.93c13.07,0,23.7-11.35,23.7-25.29v-50.71c0-4.21-1.06-8.11-2.77-11.61,8.88-4.02,15.16-13.68,15.16-24.97v-115.3c0-.52-.06-1.03-.12-1.52-.03-.24-.07-.49-.08-.58Z"/>
          <path class="cls-11" d="m217.09,125.27c.02-.61.07-1.21.1-1.81.07-1.17.15-2.36.15-3.55C217.33,64.14,176.66,1.75,122.23,1.75S27.13,64.14,27.13,119.92c0,1.15.08,2.3.14,3.43.04.64.08,1.27.11,1.77-.02.28-.06.54-.09.81-.06.48-.12.95-.12,1.45v115.3c0,11.29,6.29,20.96,15.17,24.97-1.71,3.49-2.77,7.4-2.77,11.61v50.71c0,13.94,10.63,25.29,23.69,25.29h117.93c13.07,0,23.7-11.35,23.7-25.29v-50.71c0-4.21-1.06-8.11-2.77-11.61,8.88-4.02,15.16-13.68,15.16-24.97v-115.3c0-.52-.06-1.03-.12-1.52-.03-.24-.07-.49-.08-.58Z"/>
          <path class="cls-36" d="m218.51,124.4c.02-.61.07-1.21.1-1.81.07-1.17.15-2.36.15-3.55C218.76,63.26,178.08.88,123.66.88S28.56,63.26,28.56,119.04c0,1.15.08,2.3.14,3.43.04.64.08,1.27.11,1.77-.02.27-.06.54-.09.81-.06.48-.12.95-.12,1.45v115.3c0,11.29,6.29,20.96,15.17,24.97-1.71,3.49-2.77,7.4-2.77,11.61v50.71c0,13.94,10.63,25.29,23.69,25.29h117.93c13.07,0,23.7-11.35,23.7-25.29v-50.71c0-4.21-1.06-8.11-2.77-11.61,8.88-4.02,15.16-13.68,15.16-24.97v-115.3c0-.52-.06-1.03-.12-1.52-.03-.24-.07-.49-.08-.58Z"/>
          <path class="cls-98" d="m219.94,123.52c.02-.61.07-1.21.1-1.81.07-1.17.15-2.36.15-3.55C220.19,62.38,179.51,0,125.09,0S29.98,62.38,29.98,118.16c0,1.15.07,2.3.15,3.43.04.64.08,1.27.11,1.77-.02.27-.06.54-.09.81-.07.48-.12.95-.12,1.45v115.3c0,11.29,6.29,20.96,15.17,24.97-1.71,3.49-2.77,7.4-2.77,11.61v50.71c0,13.94,10.63,25.29,23.69,25.29h117.93c13.07,0,23.7-11.35,23.7-25.29v-50.71c0-4.21-1.06-8.11-2.77-11.61,8.88-4.02,15.16-13.68,15.16-24.97v-115.3c0-.52-.06-1.02-.12-1.52-.04-.24-.07-.49-.08-.58Z"/>
        </g>
        <g>
          <g>
            <path class="cls-98" d="m219.19,118.16C219.19,60.42,177.06,1.11,125.09,1.11S30.98,60.42,30.98,118.16c0,1.78.17,3.52.25,5.28-.06.73-.2,1.43-.2,2.17v115.3c0,14.28,10.41,25.87,23.28,25.87h141.56c12.84,0,23.27-11.59,23.27-25.87v-115.3c0-.74-.14-1.44-.2-2.16.08-1.77.24-3.51.24-5.29Z"/>
            <path class="cls-16" d="m218.48,118.28c0-57.31-41.81-116.18-93.4-116.18S31.69,60.97,31.69,118.28c0,1.77.17,3.5.24,5.24-.06.73-.2,1.42-.2,2.15v112.2c0,14.17,10.33,25.68,23.11,25.68h140.5c12.75,0,23.1-11.5,23.1-25.68v-112.2c0-.74-.14-1.43-.19-2.15.08-1.75.24-3.48.24-5.25Z"/>
            <path class="cls-46" d="m217.78,118.4c0-56.88-41.5-115.3-92.7-115.3S32.39,61.52,32.39,118.4c0,1.76.16,3.47.24,5.2-.06.72-.2,1.41-.2,2.14v109.09c0,14.06,10.25,25.48,22.93,25.48h139.44c12.65,0,22.93-11.42,22.93-25.48v-109.09c0-.73-.14-1.42-.19-2.13.08-1.74.24-3.46.24-5.21Z"/>
            <path class="cls-70" d="m217.08,118.52c0-56.45-41.19-114.43-91.99-114.43S33.1,62.07,33.1,118.52c0,1.74.16,3.45.24,5.16-.06.72-.2,1.39-.2,2.12v105.99c0,13.96,10.18,25.29,22.76,25.29h138.38c12.56,0,22.75-11.33,22.75-25.29v-105.99c0-.73-.14-1.41-.19-2.11.08-1.73.24-3.43.24-5.17Z"/>
            <path class="cls-47" d="m216.38,118.64c0-56.02-40.87-113.55-91.29-113.55S33.8,62.62,33.8,118.64c0,1.73.16,3.42.24,5.13-.06.71-.2,1.38-.2,2.11v102.88c0,13.85,10.1,25.09,22.59,25.09h137.33c12.46,0,22.58-11.25,22.58-25.09v-102.88c0-.72-.14-1.39-.19-2.1.08-1.71.23-3.4.23-5.13Z"/>
            <path class="cls-75" d="m215.67,118.75c0-55.59-40.56-112.68-90.59-112.68S34.5,63.17,34.5,118.75c0,1.72.16,3.39.23,5.09-.05.7-.19,1.37-.19,2.09v99.78c0,13.74,10.02,24.9,22.41,24.9h136.27c12.37,0,22.41-11.16,22.41-24.9v-99.78c0-.72-.13-1.38-.19-2.08.08-1.7.23-3.38.23-5.09Z"/>
            <path class="cls-39" d="m214.97,118.87c0-55.16-40.24-111.8-89.88-111.8S35.21,63.72,35.21,118.87c0,1.7.16,3.37.23,5.05-.05.7-.19,1.36-.19,2.07v96.67c0,13.64,9.94,24.71,22.24,24.71h135.21c12.27,0,22.23-11.07,22.23-24.71v-96.67c0-.71-.13-1.37-.19-2.06.08-1.69.23-3.35.23-5.05Z"/>
            <path class="cls-67" d="m214.27,118.99c0-54.72-39.93-110.93-89.18-110.93S35.91,64.27,35.91,118.99c0,1.69.16,3.34.23,5.01-.05.69-.19,1.35-.19,2.06v93.57c0,13.53,9.87,24.51,22.06,24.51h134.15c12.18,0,22.06-10.99,22.06-24.51v-93.57c0-.71-.13-1.36-.19-2.05.08-1.67.23-3.32.23-5.01Z"/>
            <path class="cls-3" d="m213.56,119.11c0-54.29-39.62-110.05-88.48-110.05S36.61,64.82,36.61,119.11c0,1.68.16,3.31.23,4.97-.05.69-.19,1.34-.19,2.04v90.46c0,13.42,9.79,24.32,21.89,24.32h133.09c12.08,0,21.89-10.9,21.89-24.32v-90.46c0-.7-.13-1.35-.19-2.03.07-1.66.23-3.3.23-4.97Z"/>
            <path class="cls-109" d="m212.86,119.23c0-53.86-39.3-109.18-87.78-109.18S37.32,65.37,37.32,119.23c0,1.66.16,3.29.22,4.93-.05.68-.19,1.33-.19,2.02v87.36c0,13.31,9.71,24.13,21.71,24.13h132.04c11.99,0,21.71-10.81,21.71-24.13v-87.36c0-.7-.13-1.34-.18-2.02.07-1.65.23-3.27.23-4.94Z"/>
            <path class="cls-103" d="m212.16,119.34c0-53.43-38.99-108.3-87.07-108.3S38.02,65.92,38.02,119.34c0,1.65.15,3.26.22,4.89-.05.68-.18,1.32-.18,2.01v84.25c0,13.21,9.63,23.93,21.54,23.93h130.98c11.89,0,21.54-10.73,21.54-23.93v-84.25c0-.69-.13-1.33-.18-2,.07-1.63.23-3.24.23-4.9Z"/>
            <path class="cls-18" d="m211.46,119.46c0-53-38.67-107.43-86.37-107.43S38.72,66.47,38.72,119.46c0,1.64.15,3.23.22,4.85-.05.67-.18,1.31-.18,1.99v81.15c0,13.1,9.55,23.74,21.37,23.74h129.92c11.8,0,21.37-10.64,21.37-23.74v-81.15c0-.69-.13-1.32-.18-1.98.07-1.62.23-3.22.23-4.86Z"/>
          </g>
          <path class="cls-30" d="m219.19,118.16C219.19,60.42,177.06,1.11,125.09,1.11S30.98,60.42,30.98,118.16c0,1.78.17,3.52.25,5.28-.06.73-.2,1.43-.2,2.17v115.3c0,14.28,10.41,25.87,23.28,25.87h141.56c12.84,0,23.27-11.59,23.27-25.87v-115.3c0-.74-.14-1.44-.2-2.16.08-1.77.24-3.51.24-5.29Z"/>
          <path class="cls-18" d="m200.54,142.37c0,62.86-33.79,75.49-75.46,75.49s-75.45-12.63-75.45-75.49S83.42,28.51,125.09,28.51s75.46,50.98,75.46,113.86Z"/>
          <g>
            <path class="cls-18" d="m207.94,144.25c0,69.02-37.1,82.89-82.86,82.89s-82.85-13.87-82.85-82.89S79.33,19.23,125.09,19.23s82.86,55.97,82.86,125.02Z"/>
            <path class="cls-89" d="m207.27,144.08c0,68.46-36.8,82.22-82.18,82.22s-82.18-13.75-82.18-82.22S79.71,20.07,125.09,20.07s82.18,55.52,82.18,124.01Z"/>
            <path class="cls-102" d="m206.6,143.91c0,67.9-36.5,81.54-81.51,81.54s-81.5-13.64-81.5-81.54S80.08,20.92,125.09,20.92s81.51,55.06,81.51,122.99Z"/>
            <path class="cls-52" d="m205.92,143.74c0,67.34-36.19,80.87-80.84,80.87s-80.83-13.53-80.83-80.87S80.45,21.76,125.09,21.76s80.84,54.61,80.84,121.98Z"/>
            <path class="cls-26" d="m205.25,143.57c0,66.78-35.89,80.2-80.17,80.2s-80.16-13.42-80.16-80.2S80.82,22.6,125.09,22.6s80.17,54.16,80.17,120.96Z"/>
            <path class="cls-1" d="m204.58,143.4c0,66.22-35.59,79.53-79.49,79.53s-79.49-13.31-79.49-79.53S81.19,23.45,125.09,23.45s79.49,53.7,79.49,119.95Z"/>
            <path class="cls-47" d="m203.91,143.22c0,65.66-35.29,78.85-78.82,78.85s-78.81-13.19-78.81-78.85S81.56,24.29,125.09,24.29s78.82,53.25,78.82,118.94Z"/>
            <path class="cls-97" d="m203.23,143.05c0,65.1-34.99,78.18-78.15,78.18s-78.14-13.08-78.14-78.18S81.94,25.13,125.09,25.13s78.15,52.79,78.15,117.92Z"/>
            <path class="cls-94" d="m202.56,142.88c0,64.54-34.69,77.51-77.48,77.51s-77.47-12.97-77.47-77.51S82.31,25.98,125.09,25.98s77.48,52.34,77.48,116.91Z"/>
            <path class="cls-58" d="m201.89,142.71c0,63.98-34.39,76.84-76.8,76.84s-76.8-12.86-76.8-76.84S82.68,26.82,125.09,26.82s76.8,51.89,76.8,115.89Z"/>
            <path class="cls-45" d="m201.22,142.54c0,63.42-34.09,76.17-76.13,76.17s-76.12-12.74-76.12-76.17S83.05,27.66,125.09,27.66s76.13,51.43,76.13,114.88Z"/>
            <path class="cls-72" d="m200.54,142.37c0,62.86-33.79,75.49-75.46,75.49s-75.45-12.63-75.45-75.49S83.42,28.51,125.09,28.51s75.46,50.98,75.46,113.86Z"/>
            <path class="cls-45" d="m198.16,141.76c0,60.87-32.72,73.1-73.07,73.1s-73.06-12.23-73.06-73.1S84.74,31.5,125.09,31.5s73.07,49.37,73.07,110.26Z"/>
            <path class="cls-58" d="m195.77,141.16c0,58.88-31.65,70.71-70.68,70.71s-70.68-11.83-70.68-70.71,31.65-106.66,70.68-106.66,70.68,47.75,70.68,106.66Z"/>
            <path class="cls-94" d="m193.38,140.55c0,56.89-30.58,68.33-68.29,68.33s-68.29-11.43-68.29-68.33,30.58-103.06,68.29-103.06,68.29,46.14,68.29,103.06Z"/>
            <path class="cls-97" d="m190.99,139.94c0,54.9-29.51,65.94-65.91,65.94s-65.9-11.03-65.9-65.94,29.51-99.45,65.9-99.45,65.91,44.53,65.91,99.45Z"/>
            <path class="cls-47" d="m188.6,139.34c0,52.91-28.44,63.55-63.52,63.55s-63.51-10.63-63.51-63.55,28.44-95.85,63.51-95.85,63.52,42.91,63.52,95.85Z"/>
            <path class="cls-1" d="m186.22,138.73c0,50.92-27.37,61.16-61.13,61.16s-61.12-10.23-61.12-61.16,27.37-92.25,61.12-92.25,61.13,41.3,61.13,92.25Z"/>
            <path class="cls-26" d="m183.83,138.13c0,48.93-26.3,58.77-58.74,58.77s-58.74-9.83-58.74-58.77,26.3-88.65,58.74-88.65,58.74,39.69,58.74,88.65Z"/>
            <path class="cls-52" d="m181.44,137.52c0,46.95-25.23,56.38-56.36,56.38s-56.35-9.43-56.35-56.38,25.23-85.04,56.35-85.04,56.36,38.07,56.36,85.04Z"/>
            <path class="cls-102" d="m179.05,136.91c0,44.96-24.16,53.99-53.97,53.99s-53.96-9.04-53.96-53.99,24.16-81.44,53.96-81.44,53.97,36.46,53.97,81.44Z"/>
            <path class="cls-89" d="m176.67,136.31c0,42.97-23.1,51.6-51.58,51.6s-51.57-8.64-51.57-51.6,23.09-77.84,51.57-77.84,51.58,34.85,51.58,77.84Z"/>
            <path class="cls-18" d="m174.28,135.7c0,40.98-22.03,49.21-49.19,49.21s-49.18-8.24-49.18-49.21,22.02-74.23,49.18-74.23,49.19,33.23,49.19,74.23Z"/>
          </g>
          <g>
            <path class="cls-18" d="m155.08,104.83c0,24.98-13.42,30.01-29.99,30.01s-29.99-5.03-29.99-30.01,13.43-45.27,29.99-45.27,29.99,20.28,29.99,45.27Z"/>
            <path class="cls-109" d="m153.99,103.66c0,24.08-12.94,28.92-28.91,28.92s-28.91-4.84-28.91-28.92,12.95-43.63,28.91-43.63,28.91,19.55,28.91,43.63Z"/>
            <path class="cls-74" d="m152.91,102.49c0,23.18-12.45,27.84-27.83,27.84s-27.82-4.66-27.82-27.84,12.46-42,27.82-42,27.83,18.81,27.83,42Z"/>
            <path class="cls-37" d="m151.83,101.31c0,22.28-11.97,26.76-26.74,26.76s-26.74-4.48-26.74-26.76,11.98-40.36,26.74-40.36,26.74,18.08,26.74,40.36Z"/>
            <path class="cls-69" d="m150.75,100.14c0,21.38-11.49,25.67-25.66,25.67s-25.66-4.3-25.66-25.67,11.49-38.73,25.66-38.73,25.66,17.35,25.66,38.73Z"/>
            <path class="cls-4" d="m149.66,98.97c0,20.48-11,24.59-24.58,24.59s-24.57-4.12-24.57-24.59,11.01-37.1,24.57-37.1,24.58,16.62,24.58,37.1Z"/>
            <path class="cls-60" d="m148.58,97.8c0,19.57-10.52,23.51-23.5,23.51s-23.49-3.93-23.49-23.51,10.52-35.46,23.49-35.46,23.5,15.88,23.5,35.46Z"/>
            <path class="cls-88" d="m147.5,96.63c0,18.67-10.03,22.43-22.41,22.43s-22.41-3.75-22.41-22.43,10.04-33.83,22.41-33.83,22.41,15.15,22.41,33.83Z"/>
            <path class="cls-40" d="m146.42,95.46c0,17.77-9.55,21.34-21.33,21.34s-21.33-3.57-21.33-21.34,9.55-32.19,21.33-32.19,21.33,14.42,21.33,32.19Z"/>
            <path class="cls-86" d="m145.33,94.28c0,16.87-9.06,20.26-20.25,20.26s-20.24-3.39-20.24-20.26,9.07-30.56,20.24-30.56,20.25,13.69,20.25,30.56Z"/>
            <path class="cls-10" d="m144.25,93.11c0,15.97-8.58,19.18-19.17,19.18s-19.16-3.21-19.16-19.18,8.58-28.92,19.16-28.92,19.17,12.95,19.17,28.92Z"/>
            <path class="cls-25" d="m143.17,91.94c0,15.07-8.09,18.09-18.08,18.09s-18.08-3.02-18.08-18.09,8.1-27.29,18.08-27.29,18.08,12.22,18.08,27.29Z"/>
          </g>
          <path class="cls-23" d="m200.54,142.37c0,62.86-33.79,75.49-75.46,75.49s-75.45-12.63-75.45-75.49S83.42,28.51,125.09,28.51s75.46,50.98,75.46,113.86Z"/>
          <g>
            <g>
              <path class="cls-98" d="m184.05,253.39c12.49,0,22.63,10.78,22.63,24.11v50.71c0,13.33-10.13,24.11-22.63,24.11h-117.93c-12.5,0-22.62-10.78-22.62-24.11v-50.71c0-13.33,10.12-24.11,22.62-24.11h117.93Z"/>
              <path class="cls-42" d="m183.76,253.71c12.51,0,22.66,10.8,22.66,24.15v49.99c0,13.34-10.15,24.15-22.66,24.15h-117.35c-12.52,0-22.65-10.8-22.65-24.15v-49.99c0-13.34,10.13-24.15,22.65-24.15h117.35Z"/>
              <path class="cls-58" d="m183.47,254.04c12.53,0,22.69,10.82,22.69,24.18v49.27c0,13.36-10.16,24.18-22.69,24.18h-116.77c-12.54,0-22.69-10.82-22.69-24.18v-49.27c0-13.36,10.15-24.18,22.69-24.18h116.77Z"/>
              <path class="cls-36" d="m183.18,254.37c12.55,0,22.73,10.83,22.73,24.22v48.54c0,13.38-10.18,24.22-22.73,24.22h-116.2c-12.55,0-22.72-10.83-22.72-24.22v-48.54c0-13.38,10.16-24.22,22.72-24.22h116.2Z"/>
              <path class="cls-16" d="m182.9,254.7c12.57,0,22.76,10.85,22.76,24.25v47.82c0,13.4-10.19,24.25-22.76,24.25h-115.62c-12.57,0-22.75-10.85-22.75-24.25v-47.82c0-13.4,10.18-24.25,22.75-24.25h115.62Z"/>
              <path class="cls-11" d="m182.61,255.02c12.59,0,22.79,10.86,22.79,24.29v47.09c0,13.42-10.21,24.29-22.79,24.29h-115.04c-12.59,0-22.78-10.86-22.78-24.29v-47.09c0-13.42,10.19-24.29,22.78-24.29h115.04Z"/>
              <path class="cls-80" d="m182.32,255.35c12.6,0,22.82,10.88,22.82,24.32v46.37c0,13.44-10.22,24.32-22.82,24.32h-114.47c-12.61,0-22.81-10.88-22.81-24.32v-46.37c0-13.44,10.21-24.32,22.81-24.32h114.47Z"/>
              <path class="cls-94" d="m182.03,255.68c12.62,0,22.86,10.9,22.86,24.36v45.65c0,13.46-10.23,24.36-22.86,24.36h-113.89c-12.63,0-22.85-10.9-22.85-24.36v-45.65c0-13.46,10.22-24.36,22.85-24.36h113.89Z"/>
              <path class="cls-91" d="m181.74,256c12.64,0,22.89,10.91,22.89,24.39v44.92c0,13.48-10.25,24.39-22.89,24.39h-113.31c-12.64,0-22.88-10.91-22.88-24.39v-44.92c0-13.48,10.24-24.39,22.88-24.39h113.31Z"/>
              <path class="cls-46" d="m181.45,256.33c12.66,0,22.92,10.93,22.92,24.43v44.2c0,13.5-10.26,24.43-22.92,24.43h-112.74c-12.66,0-22.91-10.93-22.91-24.43v-44.2c0-13.5,10.25-24.43,22.91-24.43h112.74Z"/>
              <path class="cls-100" d="m181.16,256.66c12.68,0,22.95,10.94,22.95,24.46v43.47c0,13.52-10.28,24.46-22.95,24.46h-112.16c-12.68,0-22.94-10.94-22.94-24.46v-43.47c0-13.52,10.26-24.46,22.94-24.46h112.16Z"/>
              <path class="cls-12" d="m180.88,256.98c12.7,0,22.99,10.96,22.99,24.5v42.75c0,13.54-10.29,24.5-22.99,24.5h-111.58c-12.7,0-22.98-10.96-22.98-24.5v-42.75c0-13.54,10.28-24.5,22.98-24.5h111.58Z"/>
              <path class="cls-97" d="m180.59,257.31c12.71,0,23.02,10.97,23.02,24.53v42.03c0,13.55-10.3,24.53-23.02,24.53h-111.01c-12.71,0-23.01-10.98-23.01-24.53v-42.03c0-13.56,10.29-24.53,23.01-24.53h111.01Z"/>
              <path class="cls-70" d="m180.3,257.64c12.73,0,23.05,10.99,23.05,24.57v41.3c0,13.57-10.32,24.57-23.05,24.57h-110.43c-12.73,0-23.04-10.99-23.04-24.57v-41.3c0-13.58,10.31-24.57,23.04-24.57h110.43Z"/>
              <path class="cls-55" d="m180.01,257.96c12.75,0,23.08,11.01,23.08,24.6v40.58c0,13.59-10.33,24.6-23.08,24.6h-109.85c-12.75,0-23.07-11.01-23.07-24.6v-40.58c0-13.59,10.32-24.6,23.07-24.6h109.85Z"/>
              <path class="cls-73" d="m179.72,258.29c12.77,0,23.11,11.02,23.11,24.64v39.85c0,13.61-10.35,24.64-23.11,24.64h-109.28c-12.77,0-23.1-11.02-23.1-24.64v-39.85c0-13.61,10.34-24.64,23.1-24.64h109.28Z"/>
              <path class="cls-35" d="m179.43,258.62c12.79,0,23.15,11.04,23.15,24.67v39.13c0,13.63-10.36,24.67-23.15,24.67h-108.7c-12.79,0-23.14-11.04-23.14-24.67v-39.13c0-13.63,10.35-24.67,23.14-24.67h108.7Z"/>
              <path class="cls-47" d="m179.15,258.95c12.8,0,23.18,11.05,23.18,24.71v38.41c0,13.65-10.38,24.71-23.18,24.71h-108.12c-12.8,0-23.17-11.06-23.17-24.71v-38.41c0-13.65,10.36-24.71,23.17-24.71h108.12Z"/>
              <path class="cls-17" d="m178.86,259.27c12.82,0,23.21,11.07,23.21,24.74v37.68c0,13.67-10.39,24.74-23.21,24.74h-107.55c-12.82,0-23.2-11.07-23.2-24.74v-37.68c0-13.67,10.38-24.74,23.2-24.74h107.55Z"/>
              <path class="cls-93" d="m178.57,259.6c12.84,0,23.24,11.09,23.24,24.78v36.96c0,13.69-10.4,24.78-23.24,24.78h-106.97c-12.84,0-23.23-11.09-23.23-24.78v-36.96c0-13.69,10.39-24.78,23.23-24.78h106.97Z"/>
              <path class="cls-56" d="m178.28,259.93c12.86,0,23.28,11.1,23.28,24.81v36.24c0,13.71-10.42,24.81-23.28,24.81h-106.39c-12.86,0-23.26-11.1-23.26-24.81v-36.24c0-13.71,10.41-24.81,23.26-24.81h106.39Z"/>
              <path class="cls-14" d="m177.99,260.25c12.88,0,23.31,11.12,23.31,24.85v35.51c0,13.73-10.43,24.85-23.31,24.85h-105.82c-12.87,0-23.3-11.12-23.3-24.85v-35.51c0-13.73,10.42-24.85,23.3-24.85h105.82Z"/>
              <path class="cls-75" d="m177.7,260.58c12.9,0,23.34,11.13,23.34,24.88v34.79c0,13.74-10.45,24.88-23.34,24.88h-105.24c-12.89,0-23.33-11.14-23.33-24.88v-34.79c0-13.75,10.44-24.88,23.33-24.88h105.24Z"/>
              <path class="cls-1" d="m177.41,260.91c12.91,0,23.37,11.15,23.37,24.92v34.06c0,13.76-10.46,24.92-23.37,24.92h-104.66c-12.91,0-23.36-11.15-23.36-24.92v-34.06c0-13.77,10.45-24.92,23.36-24.92h104.66Z"/>
              <path class="cls-43" d="m177.13,261.23c12.93,0,23.41,11.17,23.41,24.95v33.34c0,13.78-10.47,24.95-23.41,24.95h-104.09c-12.93,0-23.39-11.17-23.39-24.95v-33.34c0-13.79,10.47-24.95,23.39-24.95h104.09Z"/>
              <path class="cls-110" d="m176.84,261.56c12.95,0,23.44,11.18,23.44,24.99v32.62c0,13.8-10.49,24.99-23.44,24.99h-103.51c-12.95,0-23.43-11.18-23.43-24.99v-32.62c0-13.81,10.48-24.99,23.43-24.99h103.51Z"/>
              <path class="cls-39" d="m176.55,261.89c12.97,0,23.47,11.2,23.47,25.02v31.89c0,13.82-10.5,25.02-23.47,25.02h-102.93c-12.96,0-23.46-11.2-23.46-25.02v-31.89c0-13.82,10.49-25.02,23.46-25.02h102.93Z"/>
              <path class="cls-50" d="m176.26,262.22c12.99,0,23.5,11.21,23.5,25.06v31.17c0,13.84-10.52,25.06-23.5,25.06h-102.35c-12.98,0-23.49-11.22-23.49-25.06v-31.17c0-13.84,10.51-25.06,23.49-25.06h102.35Z"/>
              <path class="cls-26" d="m175.97,262.54c13.01,0,23.54,11.23,23.54,25.09v30.44c0,13.86-10.53,25.09-23.54,25.09h-101.78c-13,0-23.52-11.23-23.52-25.09v-30.44c0-13.86,10.52-25.09,23.52-25.09h101.78Z"/>
              <path class="cls-107" d="m175.68,262.87c13.02,0,23.57,11.24,23.57,25.13v29.72c0,13.88-10.54,25.13-23.57,25.13h-101.2c-13.02,0-23.55-11.25-23.55-25.13v-29.72c0-13.88,10.54-25.13,23.55-25.13h101.2Z"/>
              <path class="cls-107" d="m175.39,263.2c13.04,0,23.6,11.26,23.6,25.16v29c0,13.9-10.56,25.16-23.6,25.16h-100.62c-13.03,0-23.59-11.26-23.59-25.16v-29c0-13.9,10.55-25.16,23.59-25.16h100.62Z"/>
              <path class="cls-62" d="m175.11,263.52c13.06,0,23.63,11.28,23.63,25.2v28.27c0,13.92-10.57,25.2-23.63,25.2h-100.05c-13.05,0-23.62-11.28-23.62-25.2v-28.27c0-13.92,10.57-25.2,23.62-25.2h100.05Z"/>
              <path class="cls-67" d="m174.82,263.85c13.08,0,23.67,11.29,23.67,25.23v27.55c0,13.94-10.59,25.23-23.67,25.23h-99.47c-13.07,0-23.65-11.3-23.65-25.23v-27.55c0-13.94,10.58-25.23,23.65-25.23h99.47Z"/>
              <path class="cls-51" d="m174.53,264.18c13.1,0,23.7,11.31,23.7,25.27v26.82c0,13.95-10.6,25.27-23.7,25.27h-98.89c-13.09,0-23.68-11.31-23.68-25.27v-26.82c0-13.96,10.6-25.27,23.68-25.27h98.89Z"/>
              <path class="cls-52" d="m174.24,264.5c13.12,0,23.73,11.32,23.73,25.3v26.1c0,13.97-10.62,25.3-23.73,25.3h-98.32c-13.11,0-23.72-11.33-23.72-25.3v-26.1c0-13.98,10.61-25.3,23.72-25.3h98.32Z"/>
              <path class="cls-77" d="m173.95,264.83c13.13,0,23.76,11.34,23.76,25.34v25.38c0,13.99-10.63,25.34-23.76,25.34h-97.74c-13.12,0-23.75-11.34-23.75-25.34v-25.38c0-14,10.62-25.34,23.75-25.34h97.74Z"/>
              <path class="cls-3" d="m173.66,265.16c13.15,0,23.8,11.36,23.8,25.37v24.65c0,14.01-10.64,25.37-23.8,25.37h-97.16c-13.14,0-23.78-11.36-23.78-25.37v-24.65c0-14.02,10.64-25.37,23.78-25.37h97.16Z"/>
              <path class="cls-57" d="m173.37,265.49c13.17,0,23.83,11.37,23.83,25.41v23.93c0,14.03-10.66,25.41-23.83,25.41h-96.59c-13.16,0-23.81-11.38-23.81-25.41v-23.93c0-14.04,10.65-25.41,23.81-25.41h96.59Z"/>
              <path class="cls-71" d="m173.09,265.81c13.19,0,23.86,11.39,23.86,25.44v23.21c0,14.05-10.67,25.44-23.86,25.44h-96.01c-13.18,0-23.84-11.39-23.84-25.44v-23.21c0-14.05,10.67-25.44,23.84-25.44h96.01Z"/>
              <path class="cls-102" d="m172.8,266.14c13.21,0,23.89,11.4,23.89,25.48v22.48c0,14.07-10.69,25.48-23.89,25.48h-95.43c-13.19,0-23.88-11.41-23.88-25.48v-22.48c0-14.07,10.68-25.48,23.88-25.48h95.43Z"/>
              <path class="cls-109" d="m172.51,266.47c13.23,0,23.93,11.42,23.93,25.51v21.76c0,14.09-10.7,25.51-23.93,25.51h-94.86c-13.21,0-23.91-11.42-23.91-25.51v-21.76c0-14.09,10.7-25.51,23.91-25.51h94.86Z"/>
              <path class="cls-99" d="m172.22,266.79c13.24,0,23.96,11.43,23.96,25.55v21.03c0,14.11-10.71,25.55-23.96,25.55h-94.28c-13.23,0-23.94-11.44-23.94-25.55v-21.03c0-14.11,10.71-25.55,23.94-25.55h94.28Z"/>
              <path class="cls-84" d="m171.93,267.12c13.26,0,23.99,11.45,23.99,25.58v20.31c0,14.13-10.73,25.58-23.99,25.58h-93.7c-13.25,0-23.97-11.46-23.97-25.58v-20.31c0-14.13,10.72-25.58,23.97-25.58h93.7Z"/>
              <path class="cls-6" d="m171.64,267.45c13.28,0,24.02,11.47,24.02,25.62v19.59c0,14.14-10.74,25.62-24.02,25.62h-93.13c-13.27,0-24-11.47-24-25.62v-19.59c0-14.15,10.74-25.62,24-25.62h93.13Z"/>
              <path class="cls-89" d="m171.36,267.77c13.3,0,24.06,11.48,24.06,25.65v18.86c0,14.16-10.76,25.65-24.06,25.65h-92.55c-13.28,0-24.04-11.49-24.04-25.65v-18.86c0-14.17,10.75-25.65,24.04-25.65h92.55Z"/>
              <path class="cls-103" d="m171.07,268.1c13.32,0,24.09,11.5,24.09,25.69v18.14c0,14.18-10.77,25.69-24.09,25.69h-91.97c-13.3,0-24.07-11.5-24.07-25.69v-18.14c0-14.19,10.77-25.69,24.07-25.69h91.97Z"/>
              <path class="cls-92" d="m170.78,268.43c13.33,0,24.12,11.51,24.12,25.72v17.41c0,14.2-10.79,25.72-24.12,25.72h-91.4c-13.32,0-24.1-11.52-24.1-25.72v-17.41c0-14.21,10.78-25.72,24.1-25.72h91.4Z"/>
              <path class="cls-8" d="m170.49,268.75c13.35,0,24.15,11.53,24.15,25.76v16.69c0,14.22-10.8,25.76-24.15,25.76h-90.82c-13.34,0-24.13-11.54-24.13-25.76v-16.69c0-14.23,10.8-25.76,24.13-25.76h90.82Z"/>
              <path class="cls-27" d="m170.2,269.08c13.37,0,24.18,11.55,24.18,25.79v15.97c0,14.24-10.81,25.79-24.18,25.79h-90.24c-13.35,0-24.17-11.55-24.17-25.79v-15.97c0-14.25,10.81-25.79,24.17-25.79h90.24Z"/>
              <path class="cls-18" d="m169.91,269.41c13.39,0,24.22,11.56,24.22,25.83v15.24c0,14.26-10.83,25.83-24.22,25.83h-89.67c-13.37,0-24.2-11.57-24.2-25.83v-15.24c0-14.27,10.83-25.83,24.2-25.83h89.67Z"/>
              <path class="cls-83" d="m169.62,269.74c13.41,0,24.25,11.58,24.25,25.86v14.52c0,14.28-10.84,25.86-24.25,25.86h-89.09c-13.39,0-24.23-11.58-24.23-25.86v-14.52c0-14.29,10.84-25.86,24.23-25.86h89.09Z"/>
              <path class="cls-96" d="m169.34,270.06c13.43,0,24.28,11.59,24.28,25.9v13.79c0,14.3-10.86,25.9-24.28,25.9h-88.51c-13.41,0-24.26-11.6-24.26-25.9v-13.79c0-14.3,10.85-25.9,24.26-25.9h88.51Z"/>
              <path class="cls-65" d="m169.05,270.39c13.44,0,24.31,11.61,24.31,25.93v13.07c0,14.32-10.87,25.93-24.31,25.93h-87.94c-13.43,0-24.29-11.62-24.29-25.93v-13.07c0-14.32,10.87-25.93,24.29-25.93h87.94Z"/>
              <path class="cls-13" d="m168.76,270.72c13.46,0,24.35,11.62,24.35,25.97v12.35c0,14.34-10.88,25.97-24.35,25.97h-87.36c-13.44,0-24.33-11.63-24.33-25.97v-12.35c0-14.34,10.88-25.97,24.33-25.97h87.36Z"/>
              <path class="cls-63" d="m168.47,271.04c13.48,0,24.38,11.64,24.38,26v11.62c0,14.35-10.9,26-24.38,26h-86.78c-13.46,0-24.36-11.65-24.36-26v-11.62c0-14.36,10.9-26,24.36-26h86.78Z"/>
              <path class="cls-108" d="m168.18,271.37c13.5,0,24.41,11.66,24.41,26.04v10.9c0,14.37-10.91,26.04-24.41,26.04h-86.21c-13.48,0-24.39-11.66-24.39-26.04v-10.9c0-14.38,10.91-26.04,24.39-26.04h86.21Z"/>
              <path class="cls-59" d="m167.89,271.7c13.52,0,24.44,11.67,24.44,26.07v10.18c0,14.39-10.93,26.07-24.44,26.07h-85.63c-13.5,0-24.42-11.68-24.42-26.07v-10.18c0-14.4,10.93-26.07,24.42-26.07h85.63Z"/>
              <path class="cls-105" d="m167.6,272.02c13.54,0,24.48,11.69,24.48,26.11v9.45c0,14.41-10.94,26.11-24.48,26.11h-85.05c-13.51,0-24.46-11.7-24.46-26.11v-9.45c0-14.42,10.94-26.11,24.46-26.11h85.05Z"/>
              <path class="cls-9" d="m167.32,272.35c13.55,0,24.51,11.7,24.51,26.14v8.73c0,14.43-10.95,26.14-24.51,26.14h-84.47c-13.53,0-24.49-11.71-24.49-26.14v-8.73c0-14.44,10.95-26.14,24.49-26.14h84.47Z"/>
            </g>
            <path class="cls-29" d="m184.05,253.39c12.49,0,22.63,10.78,22.63,24.11v50.71c0,13.33-10.13,24.11-22.63,24.11h-117.93c-12.5,0-22.62-10.78-22.62-24.11v-50.71c0-13.33,10.12-24.11,22.62-24.11h117.93Z"/>
          </g>
          <path class="cls-21" d="m184.05,253.39c12.49,0,22.63,10.78,22.63,24.11v50.71c0,13.33-10.13,24.11-22.63,24.11h-117.93c-12.5,0-22.62-10.78-22.62-24.11v-50.71c0-13.33,10.12-24.11,22.62-24.11h117.93Z"/>
          <g>
            <g>
              <path class="cls-49" d="m138.25,303c-.08,8.1-6.04,14.6-13.31,14.52-7.27-.08-13.1-6.7-13.01-14.8.08-8.09,6.04-14.59,13.31-14.51,7.27.07,13.09,6.7,13.01,14.79Z"/>
              <path class="cls-61" d="m137.79,302.99c-.08,7.82-5.83,14.09-12.85,14.02-7.02-.08-12.64-6.47-12.56-14.29.08-7.81,5.83-14.09,12.85-14.01,7.02.07,12.64,6.46,12.56,14.28Z"/>
              <path class="cls-38" d="m137.34,302.99c-.07,7.54-5.62,13.59-12.38,13.51-6.76-.07-12.19-6.24-12.11-13.78.07-7.53,5.62-13.58,12.39-13.51,6.76.07,12.18,6.23,12.11,13.77Z"/>
              <path class="cls-44" d="m136.88,302.98c-.07,7.26-5.41,13.08-11.92,13.01-6.51-.07-11.74-6.01-11.66-13.26.07-7.25,5.41-13.08,11.93-13,6.51.07,11.73,6,11.66,13.26Z"/>
              <path class="cls-64" d="m136.42,302.98c-.07,6.98-5.2,12.58-11.46,12.51-6.26-.07-11.28-5.78-11.21-12.75.07-6.97,5.2-12.57,11.46-12.5,6.26.06,11.28,5.77,11.21,12.75Z"/>
              <path class="cls-76" d="m135.97,302.97c-.07,6.69-4.99,12.07-11,12-6.01-.07-10.83-5.54-10.76-12.24.07-6.69,4.99-12.07,11-12,6.01.06,10.83,5.54,10.76,12.23Z"/>
              <path class="cls-34" d="m135.51,302.97c-.06,6.41-4.78,11.56-10.54,11.5-5.76-.06-10.38-5.31-10.31-11.73.06-6.41,4.78-11.56,10.54-11.5,5.76.06,10.37,5.3,10.3,11.72Z"/>
              <path class="cls-100" d="m135.06,302.96c-.06,6.13-4.58,11.06-10.08,11-5.51-.06-9.92-5.08-9.86-11.21.06-6.13,4.58-11.06,10.08-11,5.51.06,9.92,5.07,9.85,11.21Z"/>
              <path class="cls-47" d="m134.6,302.96c-.06,5.85-4.37,10.55-9.62,10.5-5.26-.06-9.47-4.85-9.41-10.7.06-5.85,4.37-10.55,9.62-10.49,5.26.05,9.47,4.84,9.4,10.7Z"/>
              <path class="cls-43" d="m134.14,302.96c-.06,5.57-4.16,10.05-9.16,9.99-5-.05-9.02-4.62-8.96-10.19.06-5.57,4.16-10.04,9.16-9.99,5,.05,9.01,4.61,8.95,10.19Z"/>
              <path class="cls-51" d="m133.69,302.95c-.05,5.29-3.95,9.54-8.69,9.49-4.75-.05-8.56-4.39-8.51-9.68.05-5.29,3.95-9.54,8.7-9.49,4.75.05,8.56,4.38,8.5,9.68Z"/>
              <path class="cls-109" d="m133.23,302.95c-.05,5.01-3.74,9.03-8.23,8.99-4.5-.05-8.11-4.15-8.06-9.16.05-5.01,3.74-9.03,8.24-8.99,4.5.05,8.11,4.15,8.05,9.16Z"/>
            </g>
            <path class="cls-66" d="m133.23,302.95c-.05,5.01-3.74,9.03-8.23,8.99-4.5-.05-8.11-4.15-8.06-9.16.05-5.01,3.74-9.03,8.24-8.99,4.5.05,8.11,4.15,8.05,9.16Z"/>
          </g>
        </g>
      </g>
      <g>
        <g class="cls-24">
          <path class="cls-9" d="m785.38,146.3h-17.5c-14.4-21.98-42.08-40.91-82.14-40.91-56.76,0-121.45,40.38-121.45,75.8s64.69,75.82,121.45,75.82c40.04,0,67.74-18.93,82.13-40.91h17.5c.5,0,.91-.45.91-1.01v-67.77c0-.56-.41-1.01-.91-1.01Z"/>
          <path class="cls-108" d="m786.34,145.42h-17.5c-14.4-21.98-42.08-40.91-82.14-40.91-56.76,0-121.45,40.38-121.45,75.8s64.69,75.82,121.45,75.82c40.05,0,67.74-18.93,82.13-40.91h17.5c.5,0,.91-.45.91-1.01v-67.77c0-.56-.41-1.01-.91-1.01Z"/>
          <path class="cls-13" d="m787.29,144.54h-17.5c-14.4-21.98-42.08-40.91-82.14-40.91-56.76,0-121.45,40.38-121.45,75.8s64.69,75.82,121.45,75.82c40.05,0,67.74-18.93,82.13-40.91h17.5c.5,0,.91-.45.91-1.01v-67.77c0-.56-.41-1.01-.91-1.01Z"/>
          <path class="cls-83" d="m788.25,143.66h-17.5c-14.4-21.98-42.09-40.91-82.14-40.91-56.76,0-121.45,40.38-121.45,75.8s64.69,75.82,121.45,75.82c40.05,0,67.74-18.93,82.13-40.91h17.5c.5,0,.91-.45.91-1.01v-67.77c0-.56-.41-1.01-.91-1.01Z"/>
          <path class="cls-8" d="m789.2,142.78h-17.5c-14.39-21.98-42.09-40.91-82.14-40.91-56.76,0-121.45,40.38-121.45,75.8s64.69,75.82,121.45,75.82c40.05,0,67.74-18.93,82.13-40.91h17.5c.5,0,.91-.45.91-1.01v-67.77c0-.56-.41-1.01-.91-1.01Z"/>
          <path class="cls-89" d="m790.16,141.9h-17.5c-14.39-21.98-42.09-40.91-82.14-40.91-56.76,0-121.45,40.38-121.45,75.8s64.69,75.82,121.45,75.82c40.05,0,67.74-18.93,82.13-40.91h17.5c.5,0,.91-.45.91-1.01v-67.77c0-.56-.41-1.01-.91-1.01Z"/>
          <path class="cls-84" d="m791.11,141.03h-17.5c-14.39-21.98-42.09-40.91-82.14-40.91-56.75,0-121.45,40.38-121.45,75.8s64.69,75.82,121.45,75.82c40.05,0,67.74-18.93,82.13-40.91h17.5c.5,0,.91-.45.91-1.01v-67.77c0-.56-.41-1.01-.91-1.01Z"/>
          <path class="cls-102" d="m792.07,140.15h-17.5c-14.39-21.98-42.09-40.91-82.14-40.91-56.75,0-121.45,40.38-121.45,75.8s64.69,75.82,121.45,75.82c40.05,0,67.74-18.93,82.13-40.91h17.5c.5,0,.91-.45.91-1.01v-67.77c0-.56-.41-1.01-.91-1.01Z"/>
          <path class="cls-3" d="m793.02,139.27h-17.5c-14.39-21.98-42.09-40.91-82.14-40.91-56.75,0-121.45,40.38-121.45,75.8s64.69,75.82,121.45,75.82c40.05,0,67.74-18.93,82.13-40.91h17.5c.5,0,.91-.45.91-1.01v-67.77c0-.56-.41-1.01-.91-1.01Z"/>
          <path class="cls-52" d="m793.98,138.39h-17.5c-14.39-21.98-42.09-40.91-82.14-40.91-56.75,0-121.45,40.38-121.45,75.8s64.69,75.82,121.45,75.82c40.05,0,67.74-18.93,82.13-40.91h17.5c.5,0,.91-.45.91-1.01v-67.77c0-.56-.41-1.01-.91-1.01Z"/>
          <path class="cls-62" d="m794.93,137.51h-17.5c-14.39-21.98-42.09-40.91-82.14-40.91-56.75,0-121.45,40.38-121.45,75.8s64.69,75.82,121.45,75.82c40.05,0,67.74-18.93,82.13-40.91h17.5c.5,0,.91-.45.91-1.01v-67.77c0-.56-.41-1.01-.91-1.01Z"/>
          <path class="cls-50" d="m795.89,136.63h-17.5c-14.39-21.98-42.09-40.91-82.14-40.91-56.75,0-121.44,40.38-121.44,75.8s64.69,75.82,121.44,75.82c40.05,0,67.74-18.93,82.13-40.91h17.5c.5,0,.91-.45.91-1.01v-67.77c0-.56-.41-1.01-.91-1.01Z"/>
          <path class="cls-43" d="m796.84,135.75h-17.5c-14.39-21.98-42.09-40.91-82.14-40.91-56.75,0-121.44,40.38-121.44,75.8s64.69,75.82,121.44,75.82c40.05,0,67.74-18.93,82.13-40.91h17.5c.5,0,.91-.45.91-1.01v-67.77c0-.56-.41-1.01-.91-1.01Z"/>
          <path class="cls-75" d="m797.8,134.87h-17.5c-14.39-21.98-42.09-40.91-82.14-40.91-56.75,0-121.44,40.38-121.44,75.8s64.69,75.82,121.44,75.82c40.05,0,67.74-18.93,82.13-40.91h17.5c.5,0,.91-.45.91-1.01v-67.77c0-.56-.41-1.01-.91-1.01Z"/>
          <path class="cls-93" d="m798.75,133.99h-17.5c-14.39-21.98-42.09-40.91-82.14-40.91-56.75,0-121.44,40.38-121.44,75.8s64.69,75.82,121.44,75.82c40.05,0,67.74-18.93,82.14-40.91h17.5c.5,0,.91-.45.91-1.01v-67.77c0-.56-.41-1.01-.91-1.01Z"/>
          <path class="cls-35" d="m799.71,133.11h-17.5c-14.39-21.98-42.09-40.91-82.14-40.91-56.75,0-121.44,40.38-121.44,75.8s64.69,75.82,121.44,75.82c40.05,0,67.74-18.93,82.14-40.91h17.5c.5,0,.91-.45.91-1.01v-67.77c0-.56-.41-1.01-.91-1.01Z"/>
          <path class="cls-55" d="m800.66,132.23h-17.5c-14.39-21.98-42.09-40.91-82.14-40.91-56.75,0-121.44,40.38-121.44,75.8s64.69,75.82,121.44,75.82c40.05,0,67.74-18.93,82.14-40.91h17.5c.5,0,.91-.45.91-1.01v-67.77c0-.56-.41-1.01-.91-1.01Z"/>
          <path class="cls-12" d="m801.61,131.35h-17.5c-14.39-21.98-42.09-40.91-82.14-40.91-56.75,0-121.44,40.38-121.44,75.8s64.69,75.82,121.44,75.82c40.05,0,67.74-18.93,82.14-40.91h17.5c.5,0,.91-.45.91-1.01v-67.77c0-.56-.41-1.01-.91-1.01Z"/>
          <path class="cls-91" d="m802.57,130.47h-17.5c-14.39-21.98-42.09-40.91-82.14-40.91-56.75,0-121.44,40.38-121.44,75.8s64.69,75.82,121.44,75.82c40.05,0,67.74-18.93,82.14-40.91h17.5c.5,0,.91-.45.91-1.01v-67.77c0-.56-.41-1.01-.91-1.01Z"/>
          <path class="cls-11" d="m803.52,129.6h-17.5c-14.39-21.98-42.09-40.91-82.14-40.91-56.75,0-121.44,40.38-121.44,75.8s64.69,75.82,121.44,75.82c40.05,0,67.74-18.93,82.14-40.91h17.5c.5,0,.91-.45.91-1.01v-67.77c0-.56-.41-1.01-.91-1.01Z"/>
          <path class="cls-36" d="m804.48,128.72h-17.5c-14.39-21.98-42.09-40.91-82.14-40.91-56.75,0-121.44,40.38-121.44,75.8s64.69,75.82,121.44,75.82c40.05,0,67.74-18.93,82.14-40.91h17.5c.5,0,.91-.45.91-1.01v-67.77c0-.56-.41-1.01-.91-1.01Z"/>
          <path class="cls-98" d="m805.43,127.84h-17.5c-14.39-21.98-42.09-40.91-82.14-40.91-56.75,0-121.44,40.38-121.44,75.8s64.69,75.82,121.44,75.82c40.05,0,67.74-18.93,82.14-40.91h17.5c.5,0,.91-.45.91-1.01v-67.77c0-.56-.41-1.01-.91-1.01Z"/>
        </g>
        <g>
          <rect class="cls-31" x="783.67" y="128.85" width="21.76" height="67.77"/>
          <g>
            <path class="cls-98" d="m705.79,237.35c58.84,0,92.6-41.5,92.6-74.63s-33.76-74.61-92.6-74.61-120.38,41.47-120.38,74.61,61.56,74.63,120.38,74.63Z"/>
            <path class="cls-16" d="m705.65,236.6c58.24,0,91.66-41.08,91.66-73.87s-33.42-73.86-91.66-73.86-119.16,41.05-119.16,73.86,60.94,73.87,119.16,73.87Z"/>
            <path class="cls-46" d="m705.51,235.84c57.64,0,90.72-40.66,90.72-73.11s-33.07-73.1-90.72-73.1-117.93,40.63-117.93,73.1,60.31,73.11,117.93,73.11Z"/>
            <path class="cls-70" d="m705.37,235.08c57.04,0,89.77-40.24,89.77-72.35s-32.73-72.34-89.77-72.34-116.71,40.21-116.71,72.34,59.68,72.35,116.71,72.35Z"/>
            <path class="cls-47" d="m705.23,234.32c56.45,0,88.83-39.81,88.83-71.6s-32.39-71.58-88.83-71.58-115.48,39.79-115.48,71.58,59.06,71.6,115.48,71.6Z"/>
            <path class="cls-75" d="m705.09,233.56c55.85,0,87.89-39.39,87.89-70.84s-32.04-70.82-87.89-70.82-114.26,39.36-114.26,70.82,58.43,70.84,114.26,70.84Z"/>
            <path class="cls-39" d="m704.95,232.8c55.25,0,86.95-38.97,86.95-70.08s-31.7-70.06-86.95-70.06-113.04,38.94-113.04,70.06,57.8,70.08,113.04,70.08Z"/>
            <path class="cls-67" d="m704.81,232.05c54.65,0,86.01-38.55,86.01-69.32s-31.36-69.31-86.01-69.31-111.81,38.52-111.81,69.31,57.18,69.32,111.81,69.32Z"/>
            <path class="cls-3" d="m704.66,231.29c54.05,0,85.07-38.13,85.07-68.56s-31.02-68.55-85.07-68.55-110.59,38.1-110.59,68.55,56.55,68.56,110.59,68.56Z"/>
            <path class="cls-109" d="m704.52,230.53c53.45,0,84.13-37.71,84.13-67.81s-30.67-67.79-84.13-67.79-109.36,37.68-109.36,67.79,55.93,67.81,109.36,67.81Z"/>
            <path class="cls-103" d="m704.38,229.77c52.86,0,83.19-37.28,83.19-67.05s-30.33-67.03-83.19-67.03-108.14,37.26-108.14,67.03,55.3,67.05,108.14,67.05Z"/>
            <path class="cls-18" d="m704.24,229.01c52.26,0,82.25-36.86,82.25-66.29s-29.99-66.27-82.25-66.27-106.91,36.84-106.91,66.27,54.67,66.29,106.91,66.29Z"/>
          </g>
          <g>
            <path class="cls-18" d="m702.77,224.51c45.54,0,71.67-34.36,71.67-61.79s-26.14-61.77-71.67-61.77-93.17,34.34-93.17,61.77,47.65,61.79,93.17,61.79Z"/>
            <path class="cls-89" d="m702.64,223.9c44.99,0,70.81-34.02,70.81-61.17s-25.82-61.16-70.81-61.16-92.05,34-92.05,61.16,47.07,61.17,92.05,61.17Z"/>
            <path class="cls-102" d="m702.51,223.28c44.44,0,69.95-33.67,69.95-60.55s-25.51-60.54-69.95-60.54-90.94,33.65-90.94,60.54,46.5,60.55,90.94,60.55Z"/>
            <path class="cls-52" d="m702.37,222.66c43.89,0,69.08-33.33,69.08-59.94s-25.19-59.93-69.08-59.93-89.82,33.31-89.82,59.93,45.93,59.94,89.82,59.94Z"/>
            <path class="cls-26" d="m702.24,222.05c43.34,0,68.22-32.98,68.22-59.32s-24.88-59.31-68.22-59.31-88.7,32.97-88.7,59.31,45.36,59.32,88.7,59.32Z"/>
            <path class="cls-1" d="m702.1,221.43c42.79,0,67.36-32.64,67.36-58.7s-24.56-58.7-67.36-58.7-87.58,32.63-87.58,58.7,44.79,58.7,87.58,58.7Z"/>
            <path class="cls-47" d="m701.97,220.81c42.25,0,66.49-32.29,66.49-58.09s-24.25-58.08-66.49-58.08-86.46,32.28-86.46,58.08,44.22,58.09,86.46,58.09Z"/>
            <path class="cls-97" d="m701.84,220.2c41.7,0,65.63-31.94,65.63-57.47s-23.93-57.47-65.63-57.47-85.35,31.94-85.35,57.47,43.65,57.47,85.35,57.47Z"/>
            <path class="cls-94" d="m701.7,219.58c41.15,0,64.76-31.6,64.76-56.85s-23.62-56.85-64.76-56.85-84.23,31.6-84.23,56.85,43.08,56.85,84.23,56.85Z"/>
            <path class="cls-58" d="m701.57,218.96c40.6,0,63.9-31.25,63.9-56.24s-23.3-56.23-63.9-56.23-83.11,31.26-83.11,56.23,42.51,56.24,83.11,56.24Z"/>
            <path class="cls-45" d="m701.43,218.35c40.05,0,63.04-30.91,63.04-55.62s-22.99-55.62-63.04-55.62-81.99,30.91-81.99,55.62,41.94,55.62,81.99,55.62Z"/>
            <path class="cls-72" d="m701.3,217.73c39.5,0,62.17-30.56,62.17-55s-22.67-55-62.17-55-80.87,30.57-80.87,55,41.37,55,80.87,55Z"/>
            <path class="cls-45" d="m701.91,217.06c38.92,0,61.26-30.19,61.26-54.33s-22.34-54.34-61.26-54.34-79.68,30.2-79.68,54.34,40.76,54.33,79.68,54.33Z"/>
            <path class="cls-58" d="m702.52,216.39c38.34,0,60.34-29.82,60.34-53.66s-22-53.67-60.34-53.67-78.49,29.83-78.49,53.67,40.15,53.66,78.49,53.66Z"/>
            <path class="cls-94" d="m703.13,215.72c37.76,0,59.43-29.45,59.43-52.99s-21.67-53-59.43-53-77.29,29.46-77.29,53,39.54,52.99,77.29,52.99Z"/>
            <path class="cls-97" d="m703.74,215.04c37.18,0,58.52-29.08,58.52-52.32s-21.33-52.33-58.52-52.33-76.1,29.09-76.1,52.33,38.93,52.32,76.1,52.32Z"/>
            <path class="cls-47" d="m704.35,214.37c36.6,0,57.6-28.7,57.6-51.65s-21-51.66-57.6-51.66-74.91,28.72-74.91,51.66,38.32,51.65,74.91,51.65Z"/>
            <path class="cls-1" d="m704.96,213.7c36.02,0,56.69-28.33,56.69-50.98s-20.66-50.99-56.69-50.99-73.71,28.35-73.71,50.99,37.71,50.98,73.71,50.98Z"/>
            <path class="cls-26" d="m705.57,213.03c35.44,0,55.77-27.96,55.77-50.31s-20.33-50.32-55.77-50.32-72.52,27.97-72.52,50.32,37.1,50.31,72.52,50.31Z"/>
            <path class="cls-52" d="m706.18,212.36c34.86,0,54.86-27.59,54.86-49.64s-20-49.65-54.86-49.65-71.33,27.6-71.33,49.65,36.49,49.64,71.33,49.64Z"/>
            <path class="cls-102" d="m706.79,211.69c34.29,0,53.95-27.22,53.95-48.97s-19.66-48.99-53.95-48.99-70.13,27.23-70.13,48.99,35.88,48.97,70.13,48.97Z"/>
            <path class="cls-89" d="m707.4,211.02c33.71,0,53.03-26.85,53.03-48.29s-19.33-48.32-53.03-48.32-68.94,26.86-68.94,48.32,35.27,48.29,68.94,48.29Z"/>
            <path class="cls-18" d="m708.02,210.35c33.13,0,52.12-26.47,52.12-47.62s-18.99-47.65-52.12-47.65-67.75,26.49-67.75,47.65,34.66,47.62,67.75,47.62Z"/>
          </g>
          <g>
            <path class="cls-18" d="m731.92,187.81c13.84,0,21.79-13.93,21.79-25.08s-7.94-25.08-21.79-25.08-28.34,13.94-28.34,25.08,14.5,25.08,28.34,25.08Z"/>
            <path class="cls-109" d="m753.34,162.64c0-10.87-7.76-24.14-21.01-24.14s-26.97,13.27-26.97,24.14,13.72,24.14,26.97,24.14,21.01-13.26,21.01-24.14Z"/>
            <path class="cls-74" d="m752.97,162.54c0-10.6-7.58-23.2-20.24-23.2s-25.6,12.6-25.6,23.2,12.94,23.2,25.6,23.2,20.24-12.6,20.24-23.2Z"/>
            <path class="cls-37" d="m752.6,162.45c0-10.33-7.4-22.26-19.47-22.26s-24.24,11.93-24.24,22.26,12.17,22.26,24.24,22.26,19.47-11.93,19.47-22.26Z"/>
            <path class="cls-69" d="m752.24,162.36c0-10.06-7.22-21.32-18.7-21.32s-22.87,11.26-22.87,21.32,11.39,21.32,22.87,21.32,18.7-11.26,18.7-21.32Z"/>
            <path class="cls-4" d="m751.87,162.26c0-9.79-7.04-20.38-17.92-20.38s-21.5,10.59-21.5,20.38,10.61,20.38,21.5,20.38,17.92-10.59,17.92-20.38Z"/>
            <path class="cls-60" d="m751.5,162.17c0-9.52-6.86-19.44-17.15-19.44s-20.13,9.92-20.13,19.44,9.83,19.44,20.13,19.44,17.15-9.93,17.15-19.44Z"/>
            <path class="cls-88" d="m751.13,162.08c0-9.25-6.68-18.5-16.38-18.5s-18.76,9.25-18.76,18.5,9.06,18.5,18.76,18.5,16.38-9.26,16.38-18.5Z"/>
            <path class="cls-40" d="m750.76,161.98c0-8.98-6.5-17.56-15.6-17.56s-17.39,8.58-17.39,17.56,8.28,17.56,17.39,17.56,15.6-8.59,15.6-17.56Z"/>
            <path class="cls-86" d="m750.39,161.89c0-8.71-6.31-16.62-14.83-16.62s-16.02,7.91-16.02,16.62,7.5,16.62,16.02,16.62,14.83-7.92,14.83-16.62Z"/>
            <path class="cls-10" d="m750.03,161.79c0-8.44-6.13-15.68-14.06-15.68s-14.65,7.24-14.65,15.68,6.72,15.68,14.65,15.68,14.06-7.26,14.06-15.68Z"/>
            <ellipse class="cls-25" cx="736.37" cy="161.7" rx="13.29" ry="14.75"/>
          </g>
          <path class="cls-29" d="m705.79,237.35c58.84,0,92.6-41.5,92.6-74.63s-33.76-74.61-92.6-74.61-120.38,41.47-120.38,74.61,61.56,74.63,120.38,74.63Z"/>
          <path class="cls-20" d="m701.3,217.74c39.5,0,62.17-30.56,62.17-55s-22.67-55-62.17-55-80.87,30.57-80.87,55,41.37,55,80.87,55Z"/>
        </g>
      </g>
    </g>
  </g>
</svg>