<?xml version="1.0" encoding="UTF-8"?>
<svg id="Layer_1" data-name="Layer 1" xmlns="http://www.w3.org/2000/svg" viewBox="0 0 614.95 705.27">
  <defs>
    <style>
      .cls-1 {
        fill: #fff;
      }

      .cls-2 {
        fill: #96a139;
      }

      .cls-3 {
        fill: #659846;
      }

      .cls-4 {
        fill: #4a4a4c;
      }

      .cls-5 {
        fill: #d99452;
      }

      .cls-6 {
        fill: #545456;
      }

      .cls-7 {
        fill: #929497;
      }

      .cls-8 {
        fill: #f7f0a4;
      }

      .cls-9 {
        fill: #6f8841;
      }

      .cls-10 {
        fill: #b17e2b;
      }

      .cls-11 {
        fill: #a8abad;
      }

      .cls-12 {
        fill: #995d31;
      }

      .cls-13 {
        fill: #d0d2d3;
      }

      .cls-14 {
        fill: #d36a99;
      }

      .cls-15 {
        fill: #98722b;
      }

      .cls-16 {
        fill: #b09731;
      }

      .cls-17 {
        fill: #933e2d;
      }

      .cls-18 {
        fill: #b4bf44;
      }

      .cls-19 {
        fill: #566e32;
      }

      .cls-20 {
        fill: #ec1c24;
      }

      .cls-21 {
        fill: #e3e4e5;
      }

      .cls-22 {
        fill: #a23924;
      }

      .cls-23 {
        fill: #efdaa9;
      }

      .cls-24 {
        fill: #90b1ae;
      }

      .cls-25 {
        fill: #7b7cba;
      }

      .cls-26 {
        fill: #97793a;
      }

      .cls-27 {
        fill: #c18448;
      }

      .cls-28 {
        fill: #221f1f;
      }

      .cls-29 {
        fill: #6e3a24;
      }

      .cls-30 {
        fill: #bf422a;
      }

      .cls-31 {
        fill: #24b24b;
      }

      .cls-32 {
        fill: #231f20;
      }

      .cls-33 {
        fill: #33439a;
      }

      .cls-34 {
        fill: #f5aacb;
      }
    </style>
  </defs>
  <g>
    <path class="cls-13" d="m563.45,62.11c2,0,3.89-3.36,4.24-7.58.29-3.66-.71-6.62-2.29-7.45l.34-2.52c.12-.85.18-1.69.18-2.53v-.09c1-7.16-1.93-13.94-7.48-18.94s-13.71-8.21-23.18-8.21h-14.92c-18.94,0-32.67,12.83-30.72,27.15v.1c.02.84.08,1.68.19,2.52l.32,2.35c-1.8.49-2.99,3.67-2.68,7.62.33,4.22,2.23,7.58,4.23,7.58.23,0,.43-.19.64-.28l3.97,29.18c-1.26.9-2.06,3.27-1.86,6.1.24,3.37,1.8,6.03,3.54,6.27l.86,6.35c-.29-.12-.53-.24-.84-.35-3.37-1.21-6.67-1.64-7.31-.96-.63.68,1.58,2.18,4.9,3.35,1.3.46,2.55.76,3.67.97l.42,3.11c.97,7.09,11.44,12.54,23.34,12.54h9.38c11.9,0,22.39-5.45,23.37-12.54l.45-3.27c.9-.2,1.84-.46,2.82-.8,3.32-1.17,5.53-2.67,4.9-3.35-.64-.68-3.92-.26-7.28.94l.85-6.13c1.58-.55,2.94-3,3.17-6.13.19-2.57-.46-4.77-1.52-5.83l4.03-29.28c.1.02.17.12.27.12Zm1.82-15.09s-.02,0-.03-.01l.29-2.09-.28,2.01s0,.07.01.1Zm-74.98-.18l-.26-1.92.26,1.92h0Z"/>
    <g>
      <g>
        <path class="cls-32" d="m476.48,50.21c.33,4.22,2.23,7.58,4.23,7.58s3.4-3.36,3.13-7.58c-.28-4.29-2.18-7.82-4.24-7.82s-3.46,3.53-3.12,7.82Z"/>
        <path class="cls-32" d="m483.46,92.79c.25,3.53,1.94,6.36,3.78,6.36s3.16-2.82,2.96-6.36c-.2-3.59-1.9-6.54-3.79-6.54s-3.2,2.95-2.95,6.54Z"/>
        <path class="cls-32" d="m556.71,50.21c-.34,4.22-2.23,7.58-4.24,7.58s-3.4-3.36-3.12-7.58c.28-4.29,2.19-7.82,4.25-7.82s3.45,3.53,3.11,7.82Z"/>
        <path class="cls-32" d="m549.69,92.79c-.26,3.53-1.95,6.36-3.78,6.36s-3.16-2.82-2.95-6.36c.21-3.59,1.91-6.54,3.79-6.54s3.2,2.95,2.94,6.54Z"/>
        <path class="cls-20" d="m554.56,40.6l-9.77,70.93c-.98,7.09-11.47,12.54-23.37,12.54h-9.38c-11.9,0-22.38-5.45-23.34-12.54l-9.64-70.93c1-12.15,13.69-22.23,30.42-22.23h14.7c16.73,0,29.4,10.08,30.38,22.23Z"/>
        <g>
          <g>
            <path class="cls-22" d="m524.29,10.47c18.94,0,32.64,12.83,30.67,27.15l-.41,2.98c-.98-12.15-13.65-22.23-30.38-22.23h-14.7c-16.73,0-29.42,10.08-30.42,22.23l-.4-2.98c-1.95-14.31,11.78-27.15,30.72-27.15h14.92Z"/>
            <path class="cls-10" d="m545.3,41.04s-.07.08-.11.12h0s.08-.09.11-.12Z"/>
            <path class="cls-32" d="m545.19,41.15h0c-9.86,10.57-45.86,10.57-55.67.01h0c.12-9.26,12.38-16.88,27.88-16.88s27.71,7.62,27.79,16.87Z"/>
            <path class="cls-10" d="m489.52,41.15h0s-.08-.07-.11-.11c.03.03.06.08.11.11Z"/>
          </g>
          <g>
            <path class="cls-12" d="m478.66,37.7c0,.84.06,1.68.18,2.53l.4,2.95c.02-.2.06-.39.08-.58l-.27-2.01-.39-2.89Z"/>
            <path class="cls-12" d="m554.56,40.6l-.28,2.01c.02.2.07.39.08.58l.4-2.95c.12-.85.18-1.69.18-2.53l-.39,2.89Z"/>
            <path class="cls-20" d="m509.41,13.37h14.84c17.68,0,30.81,11.22,30.7,24.33v-.09c1.99-14.31-11.72-27.15-30.66-27.15h-14.92c-18.94,0-32.67,12.83-30.72,27.15v.09c-.08-13.12,13.08-24.33,30.76-24.33Z"/>
          </g>
        </g>
        <path class="cls-30" d="m548.05,107.46c-3.27,1.15-6.45,1.57-7.14.93-.7-.64,1.39-2.13,4.72-3.32,3.37-1.21,6.67-1.64,7.31-.96.63.68-1.58,2.18-4.9,3.35Z"/>
        <path class="cls-30" d="m484.6,107.46c3.27,1.15,6.45,1.57,7.14.93.7-.64-1.39-2.13-4.72-3.32-3.37-1.21-6.67-1.64-7.31-.96-.63.68,1.58,2.18,4.9,3.35Z"/>
      </g>
      <path class="cls-29" d="m529.23,53.94h-26.53c-9.55,0-15.36,8.42-13.29,17.45l4.46,34.07h45.87l2.77-34.07c2.07-9.03-3.73-17.45-13.28-17.45Z"/>
      <g>
        <rect class="cls-21" x="519.68" y="65.79" width="14.81" height="13.44" rx=".35" ry=".35" transform="translate(1054.18 145.03) rotate(180)"/>
        <path class="cls-11" d="m534.5,74.08h0c1.87,0,3.39,1.2,3.39,2.67v5.86c0,1.48-1.52,2.67-3.39,2.67h0c-1.88,0-3.39-1.2-3.39-2.67v-5.86c0-1.48,1.52-2.67,3.39-2.67Z"/>
        <path class="cls-11" d="m520.71,74.08h0c1.87,0,3.39,1.2,3.39,2.67v5.86c0,1.48-1.52,2.67-3.39,2.67h0c-1.87,0-3.39-1.2-3.39-2.67v-5.86c0-1.48,1.52-2.67,3.39-2.67Z"/>
        <rect class="cls-1" x="520.71" y="73.27" width="12.96" height="13.44" rx=".35" ry=".35" transform="translate(1054.39 159.98) rotate(180)"/>
        <path class="cls-20" d="m535.69,75.53c-1.02,0-1.85-.65-1.85-1.46v-4.97c0-1.52-1.57-2.75-3.5-2.75h-6.31c-1.93,0-3.5,1.24-3.5,2.75v4.97c0,.8-.83,1.46-1.85,1.46s-1.85-.65-1.85-1.46v-4.97c0-3.12,3.23-5.66,7.2-5.66h6.31c3.96,0,7.2,2.54,7.2,5.66v4.97c0,.8-.83,1.46-1.85,1.46Z"/>
      </g>
      <g>
        <rect class="cls-21" x="494.24" y="65.79" width="14.81" height="13.44" rx=".35" ry=".35" transform="translate(1003.3 145.03) rotate(180)"/>
        <path class="cls-11" d="m509.05,74.08h0c1.87,0,3.39,1.2,3.39,2.67v5.86c0,1.48-1.52,2.67-3.39,2.67h0c-1.87,0-3.39-1.2-3.39-2.67v-5.86c0-1.48,1.52-2.67,3.39-2.67Z"/>
        <path class="cls-11" d="m495.27,74.08h0c1.87,0,3.39,1.2,3.39,2.67v5.86c0,1.48-1.52,2.67-3.39,2.67h0c-1.87,0-3.39-1.2-3.39-2.67v-5.86c0-1.48,1.52-2.67,3.39-2.67Z"/>
        <rect class="cls-1" x="495.27" y="73.27" width="12.96" height="13.44" rx=".35" ry=".35" transform="translate(1003.5 159.98) rotate(180)"/>
        <path class="cls-20" d="m510.26,75.53c-1.02,0-1.85-.65-1.85-1.46v-4.97c0-1.52-1.57-2.75-3.51-2.75h-6.3c-1.94,0-3.51,1.24-3.51,2.75v4.97c0,.8-.83,1.46-1.85,1.46s-1.85-.65-1.85-1.46v-4.97c0-3.12,3.23-5.66,7.21-5.66h6.3c3.97,0,7.21,2.54,7.21,5.66v4.97c0,.8-.83,1.46-1.85,1.46Z"/>
      </g>
      <g>
        <path class="cls-32" d="m497.65,84.82l-3.78,20.34s8.24,6.62,22.93,7.33c14.7-.71,22.93-7.33,22.93-7.33l-3.79-20.34h-38.3Z"/>
        <path class="cls-20" d="m516.91,113.81c-15.37-.73-23.88-7.44-24.24-7.72l-.58-.46,4.12-22.11h41.19l4.11,22.11-.58.46c-.35.29-8.85,6.99-24.02,7.72Zm-21.26-9.14c2.08,1.42,9.57,5.95,21.26,6.51,11.51-.56,18.98-5.09,21.04-6.51l-3.44-18.53h-35.43l-3.44,18.53Z"/>
      </g>
    </g>
  </g>
  <rect class="cls-7" x="17.7" y="130.95" width="597.25" height="9.44"/>
  <g>
    <rect class="cls-7" x="183.21" y="23.32" width="11.44" height="117.06"/>
    <rect class="cls-7" x="311.4" y="23.32" width="11.44" height="117.06"/>
    <rect class="cls-7" x="439.6" y="23.32" width="11.44" height="117.06"/>
  </g>
  <g>
    <path class="cls-13" d="m82.52,55.47c1.92,0,3.74-3.23,4.07-7.29.28-3.52-.69-6.37-2.2-7.17l.33-2.43c.11-.82.17-1.63.18-2.43l-.38,2.78-.27,1.93s0,.06.01.09c0,0-.02,0-.02-.01l.28-2.01.38-2.78h0s.01-.09.01-.09c1.9-13.76-11.28-26.1-29.49-26.1h-14.34c-18.21,0-31.41,12.34-29.54,26.1v.09s.01,0,.01,0l.37,2.78.25,1.85h0s-.25-1.85-.25-1.85l-.37-2.78c0,.8.06,1.61.17,2.43l.3,2.27c-1.73.48-2.87,3.53-2.57,7.33.32,4.05,2.14,7.29,4.06,7.29.22,0,.41-.18.62-.27l3.81,28.05c-1.22.86-1.98,3.14-1.79,5.87.23,3.24,1.73,5.8,3.4,6.02l.83,6.11c-.28-.11-.51-.23-.81-.34-3.24-1.16-6.41-1.58-7.03-.92-.61.65,1.52,2.1,4.71,3.22,1.25.44,2.45.73,3.53.93l.41,2.98c.93,6.82,11,12.06,22.44,12.06h9.02c11.44,0,21.52-5.24,22.47-12.06l.43-3.14c.86-.2,1.77-.44,2.71-.77,3.19-1.12,5.32-2.57,4.71-3.22-.61-.66-3.76-.25-7,.91l.81-5.9c1.52-.53,2.83-2.89,3.05-5.89.18-2.47-.44-4.59-1.46-5.61l3.88-28.15c.09.02.16.11.26.11Z"/>
    <g>
      <g>
        <path class="cls-32" d="m1.53,45.54c.32,4.05,2.14,7.29,4.06,7.29s3.28-3.23,3.01-7.29c-.27-4.12-2.1-7.51-4.08-7.51s-3.32,3.39-3,7.51Z"/>
        <path class="cls-32" d="m8.23,86.48c.24,3.4,1.87,6.11,3.63,6.11s3.04-2.71,2.84-6.11c-.2-3.45-1.83-6.28-3.64-6.28s-3.08,2.84-2.83,6.28Z"/>
        <path class="cls-32" d="m78.66,45.54c-.33,4.05-2.15,7.29-4.07,7.29s-3.27-3.23-3-7.29c.27-4.12,2.1-7.51,4.09-7.51s3.32,3.39,2.99,7.51Z"/>
        <path class="cls-32" d="m71.91,86.48c-.25,3.4-1.87,6.11-3.64,6.11s-3.04-2.71-2.84-6.11c.2-3.45,1.83-6.28,3.65-6.28s3.08,2.84,2.83,6.28Z"/>
        <path class="cls-18" d="m76.59,36.3l-9.4,68.19c-.94,6.82-11.03,12.06-22.47,12.06h-9.02c-11.44,0-21.51-5.24-22.44-12.06L4,36.3c.96-11.68,13.16-21.37,29.25-21.37h14.13c16.09,0,28.27,9.69,29.21,21.37Z"/>
        <g>
          <g>
            <path class="cls-2" d="m47.49,7.34c18.21,0,31.39,12.34,29.49,26.1l-.39,2.87c-.94-11.68-13.12-21.37-29.21-21.37h-14.13c-16.09,0-28.29,9.69-29.25,21.37l-.38-2.87C1.74,19.67,14.94,7.34,33.15,7.34h14.34Z"/>
            <path class="cls-31" d="m67.7,36.73s-.06.08-.11.12h0s.08-.09.11-.12Z"/>
            <path class="cls-32" d="m67.59,36.84h0c-9.48,10.16-44.09,10.16-53.52.01h0c.12-8.9,11.9-16.23,26.8-16.23s26.64,7.33,26.72,16.21Z"/>
            <path class="cls-31" d="m14.06,36.84h0s-.08-.06-.11-.11c.03.03.06.08.11.11Z"/>
          </g>
          <g>
            <path class="cls-3" d="m3.63,33.52c0,.8.06,1.61.17,2.43l.38,2.84c.02-.19.06-.37.08-.56l-.26-1.93-.37-2.78Z"/>
            <path class="cls-3" d="m76.59,36.3l-.27,1.93c.02.19.06.37.08.56l.39-2.84c.11-.82.17-1.63.18-2.43l-.38,2.78Z"/>
            <path class="cls-18" d="m33.19,10.13h14.27c16.99,0,29.62,10.78,29.52,23.4v-.09c1.91-13.76-11.27-26.1-29.48-26.1h-14.34C14.94,7.34,1.74,19.67,3.61,33.43v.09c-.07-12.61,12.58-23.4,29.57-23.4Z"/>
          </g>
        </g>
        <path class="cls-18" d="m70.34,100.58c-3.15,1.11-6.2,1.51-6.86.89-.67-.62,1.34-2.05,4.54-3.2,3.24-1.16,6.41-1.58,7.03-.92.61.65-1.52,2.1-4.71,3.22Z"/>
        <path class="cls-18" d="m9.34,100.58c3.15,1.11,6.2,1.51,6.86.89.67-.62-1.34-2.05-4.54-3.2-3.24-1.16-6.41-1.58-7.03-.92-.61.65,1.52,2.1,4.71,3.22Z"/>
      </g>
      <path class="cls-19" d="m52.24,49.13h-25.51c-9.18,0-14.77,8.1-12.77,16.78l4.29,32.76h44.1l2.67-32.76c1.99-8.68-3.59-16.78-12.77-16.78Z"/>
      <g>
        <rect class="cls-27" x="43.06" y="60.52" width="14.24" height="12.92" rx=".33" ry=".33" transform="translate(100.37 133.97) rotate(180)"/>
        <path class="cls-17" d="m57.3,68.49h0c1.8,0,3.26,1.15,3.26,2.57v5.63c0,1.42-1.46,2.57-3.26,2.57h0c-1.8,0-3.26-1.15-3.26-2.57v-5.63c0-1.42,1.46-2.57,3.26-2.57Z"/>
        <path class="cls-17" d="m44.05,68.49h0c1.8,0,3.26,1.15,3.26,2.57v5.63c0,1.42-1.46,2.57-3.26,2.57h0c-1.8,0-3.26-1.15-3.26-2.57v-5.63c0-1.42,1.46-2.57,3.26-2.57Z"/>
        <rect class="cls-5" x="44.05" y="67.71" width="12.46" height="12.92" rx=".33" ry=".33" transform="translate(100.56 148.35) rotate(180)"/>
        <path class="cls-26" d="m58.46,69.9c-.98,0-1.78-.63-1.78-1.4v-4.78c0-1.46-1.51-2.64-3.36-2.64h-6.06c-1.86,0-3.36,1.19-3.36,2.64v4.78c0,.77-.8,1.4-1.78,1.4s-1.78-.63-1.78-1.4v-4.78c0-3,3.11-5.45,6.93-5.45h6.06c3.82,0,6.92,2.45,6.92,5.45v4.78c0,.77-.8,1.4-1.78,1.4Z"/>
      </g>
      <g>
        <rect class="cls-27" x="18.6" y="60.52" width="14.24" height="12.92" rx=".33" ry=".33" transform="translate(51.45 133.97) rotate(180)"/>
        <path class="cls-17" d="m32.84,68.49h0c1.8,0,3.26,1.15,3.26,2.57v5.63c0,1.42-1.46,2.57-3.26,2.57h0c-1.8,0-3.26-1.15-3.26-2.57v-5.63c0-1.42,1.46-2.57,3.26-2.57Z"/>
        <path class="cls-17" d="m19.59,68.49h0c1.8,0,3.26,1.15,3.26,2.57v5.63c0,1.42-1.46,2.57-3.26,2.57h0c-1.8,0-3.26-1.15-3.26-2.57v-5.63c0-1.42,1.46-2.57,3.26-2.57Z"/>
        <rect class="cls-5" x="19.59" y="67.71" width="12.46" height="12.92" rx=".33" ry=".33" transform="translate(51.65 148.35) rotate(180)"/>
        <path class="cls-26" d="m34,69.9c-.98,0-1.78-.63-1.78-1.4v-4.78c0-1.46-1.51-2.64-3.36-2.64h-6.06c-1.85,0-3.36,1.19-3.36,2.64v4.78c0,.77-.8,1.4-1.78,1.4s-1.78-.63-1.78-1.4v-4.78c0-3,3.11-5.45,6.92-5.45h6.06c3.82,0,6.92,2.45,6.92,5.45v4.78c0,.77-.8,1.4-1.78,1.4Z"/>
      </g>
      <g>
        <path class="cls-32" d="m21.88,78.82l-3.64,19.55s7.92,6.37,22.05,7.05c14.13-.68,22.05-7.05,22.05-7.05l-3.64-19.55H21.88Z"/>
        <path class="cls-9" d="m40.4,106.69c-14.78-.71-22.96-7.14-23.3-7.42l-.56-.45,3.96-21.26h39.59l3.96,21.26-.56.45c-.34.27-8.52,6.72-23.1,7.42Zm-20.44-8.79c2,1.37,9.2,5.72,20.44,6.27,11.07-.55,18.24-4.9,20.24-6.27l-3.32-17.81H23.27l-3.32,17.81Z"/>
      </g>
    </g>
  </g>
  <g>
    <path class="cls-13" d="m170.38,95.59c-.7-.88-3.81-.33-6.92,1.22l.16-7.77c1.43-.68,2.44-3.67,2.31-7.42-.11-3.01-.93-5.55-2.01-6.77l.63-30.14c.08.02.15.11.23.11,1.65,0,2.85-3.11,2.7-6.91-.13-3.22-1.21-5.77-2.53-6.48l.04-2.13c.01-.71-.01-1.41-.08-2.1l-.04,2.4.04-2.4h0s0-.07,0-.07c0-.35-.09-.67-.1-1.02l.06-2.65c-1.79-9.82-11.83-17.46-24.05-17.46h-10.73c-12.22,0-22.26,7.63-24.06,17.46l.05,2.68c-.01.33-.11.65-.1.98v.08s0,0,0,0l.04,2.4-.04-2.4c-.07.69-.1,1.39-.08,2.1l.04,1.99c-1.46.42-2.7,3.15-2.85,6.62-.16,3.8,1.05,6.91,2.69,6.91.19,0,.37-.17.55-.26l.61,29.99c-1.24,1.03-2.22,3.75-2.35,7.06-.15,4.05,1.02,7.3,2.64,7.59l.16,8.06c-.27-.15-.49-.31-.78-.45-3.12-1.56-6.25-2.12-6.96-1.23-.7.88,1.24,2.83,4.33,4.37,1.22.61,2.41,1.01,3.48,1.28l.08,4.18c.2,9.93,10.53,17.95,22.95,17.95h9.79c12.42,0,22.75-8.02,22.96-17.95l.09-4.4c.86-.27,1.75-.61,2.67-1.06,3.09-1.54,5.04-3.49,4.34-4.37Zm-5.53-64.19s-.01,0-.02,0v-.07s.01.05.02.08Z"/>
    <g>
      <path class="cls-32" d="m93.02,35.04c-.16,3.8,1.05,6.91,2.69,6.91s3.08-3.11,3.21-6.91c.13-3.76-1.08-6.79-2.7-6.79s-3.05,3.02-3.21,6.79Z"/>
      <path class="cls-32" d="m94.53,78.74c-.16,4.24,1.12,7.7,2.86,7.7s3.25-3.47,3.38-7.7c.12-4.19-1.16-7.56-2.86-7.56s-3.22,3.37-3.37,7.56Z"/>
      <path class="cls-32" d="m157.41,35.04c.15,3.8-1.05,6.91-2.7,6.91s-3.08-3.11-3.21-6.91c-.12-3.76,1.09-6.79,2.7-6.79s3.05,3.02,3.2,6.79Z"/>
      <path class="cls-32" d="m155.86,78.74c.16,4.24-1.13,7.7-2.87,7.7s-3.25-3.47-3.37-7.7c-.12-4.19,1.16-7.56,2.87-7.56s3.21,3.37,3.37,7.56Z"/>
      <path class="cls-34" d="m154.8,26.74l-1.59,75.79c-.21,9.93-10.54,17.95-22.97,17.95h-9.79c-12.42,0-22.75-8.02-22.95-17.95l-1.55-75.79c1.79-9.82,11.84-17.46,24.06-17.46h10.73c12.22,0,22.26,7.63,24.05,17.46Z"/>
      <g>
        <path class="cls-34" d="m120.02,9.28h10.73c12.01,0,21.9,7.38,23.93,16.96l.12-5.65c-1.79-9.82-11.83-17.46-24.05-17.46h-10.73c-12.22,0-22.26,7.63-24.06,17.46l.12,5.66c2.03-9.59,11.93-16.97,23.94-16.97Z"/>
        <g>
          <g>
            <path class="cls-14" d="m130.71,3.6c13.52,0,24.37,9.37,24.13,20.66l-.05,2.48c-1.79-9.82-11.83-17.46-24.05-17.46h-10.73c-12.22,0-22.26,7.63-24.06,17.46l-.04-2.48c-.23-11.3,10.63-20.66,24.15-20.66h10.65Z"/>
            <path class="cls-31" d="m147.62,27.11s-.05.07-.08.1h0s.06-.07.08-.1Z"/>
            <path class="cls-32" d="m147.54,27.21h0c-7.21,9.19-36.25,9.19-43.46,0h0c.67-7.58,10.23-13.51,21.73-13.51s21.05,5.93,21.73,13.5Z"/>
            <path class="cls-31" d="m104.08,27.21h0s-.06-.06-.08-.09c.02.03.05.07.08.09Z"/>
          </g>
          <g>
            <path class="cls-3" d="m95.91,24.33c-.07.69-.1,1.39-.09,2.1l.05,2.49c.03-.17.08-.33.12-.5l-.04-1.69-.04-2.4Z"/>
            <path class="cls-3" d="m154.8,26.74l-.04,1.69c.04.17.09.33.12.5l.05-2.49c.01-.71-.02-1.41-.08-2.1l-.04,2.4Z"/>
            <path class="cls-34" d="m120.04,5.65h10.68c12.72,0,23.08,8.28,24.12,18.68v-.08c.24-11.3-10.61-20.66-24.13-20.66h-10.65c-13.52,0-24.38,9.37-24.15,20.66v.08c1.05-10.4,11.41-18.68,24.13-18.68Z"/>
          </g>
        </g>
        <path class="cls-32" d="m147.54,27.22s.06-.07.08-.1l1.69,59.52s-.05-.07-.08-.1h0c-7.92-10.69-8.67-49.86-1.69-59.32Z"/>
        <path class="cls-32" d="m104.08,27.22c6.98,9.46,6.26,48.63-1.66,59.31,0-.18,0-.37,0-.55l-.05-.53,1.62-58.33s.05.07.08.1Z"/>
        <path class="cls-32" d="m149.23,86.52h0c-.16,9.01-10.48,16.36-23.39,16.36s-23.24-7.35-23.41-16.35c8.1-10.42,38.68-10.42,46.8-.01Z"/>
        <path class="cls-6" d="m104.23,92.69c3.53,5.97,11.83,10.2,21.61,10.2s18.07-4.23,21.59-10.2c-9.57-7.88-33.64-7.88-43.2,0Z"/>
      </g>
      <path class="cls-14" d="m153.21,96.39c-.21,9.93-10.54,17.95-22.97,17.95h-9.79c-12.42,0-22.75-8.02-22.95-17.95v-.34h-.13l.13,6.48c.2,9.93,10.53,17.95,22.95,17.95h9.79c12.42,0,22.76-8.02,22.97-17.95l.14-6.48h-.13v.34Z"/>
      <path class="cls-14" d="m155.98,97.07c-3.08,1.53-6.16,2.08-6.9,1.23-.74-.85,1.16-2.81,4.28-4.36,3.13-1.56,6.25-2.12,6.96-1.23.7.88-1.25,2.83-4.34,4.36Z"/>
      <path class="cls-14" d="m93.93,97.07c3.08,1.53,6.16,2.08,6.89,1.23.75-.85-1.16-2.81-4.27-4.36-3.12-1.56-6.25-2.12-6.96-1.23-.7.88,1.24,2.83,4.33,4.36Z"/>
    </g>
  </g>
  <g>
    <path class="cls-13" d="m305.54,96.74c-.96-.83-5.2-.31-9.45,1.15l.22-7.36c1.95-.64,3.34-3.48,3.15-7.03-.15-2.85-1.27-5.25-2.74-6.41l.86-28.54c.11.01.21.1.32.1,2.25,0,3.89-2.94,3.69-6.54-.18-3.04-1.65-5.46-3.45-6.13l.05-2.02c.02-.67-.02-1.33-.11-1.98v-.07c.01-.33-.12-.64-.14-.97l.08-2.51c-2.44-9.3-16.15-16.54-32.83-16.54h-14.65c-16.68,0-30.39,7.23-32.84,16.54l.08,2.53c-.02.32-.15.62-.14.94v.07s0,0,0,0l.06,2.28-.06-2.28c-.1.65-.14,1.32-.12,1.99l.05,1.88c-1.99.4-3.69,2.98-3.89,6.27-.21,3.6,1.43,6.54,3.68,6.54.26,0,.5-.16.75-.24l.83,28.4c-1.7.97-3.03,3.55-3.2,6.69-.21,3.83,1.4,6.92,3.61,7.19l.23,7.64c-.37-.14-.67-.29-1.06-.43-4.27-1.48-8.53-2-9.5-1.17-.96.83,1.7,2.68,5.92,4.14,1.67.58,3.28.96,4.75,1.21l.12,3.96c.28,9.4,14.38,17,31.34,17h13.36c16.96,0,31.06-7.6,31.35-17l.13-4.16c1.17-.26,2.39-.57,3.65-1.01,4.22-1.46,6.88-3.31,5.92-4.14Zm-7.58-60.81v-.07s.02.05.03.08c0,0-.02,0-.03,0Z"/>
    <g>
      <path class="cls-32" d="m204.72,37.12c-.21,3.6,1.43,6.54,3.68,6.54s4.21-2.94,4.39-6.54c.17-3.56-1.47-6.43-3.68-6.43s-4.17,2.86-4.38,6.43Z"/>
      <path class="cls-32" d="m206.78,78.51c-.22,4.01,1.53,7.29,3.9,7.29s4.44-3.28,4.61-7.29c.17-3.97-1.58-7.16-3.91-7.16s-4.39,3.19-4.61,7.16Z"/>
      <path class="cls-32" d="m292.63,37.12c.21,3.6-1.44,6.54-3.69,6.54s-4.21-2.94-4.38-6.54c-.17-3.56,1.48-6.43,3.69-6.43s4.17,2.86,4.38,6.43Z"/>
      <path class="cls-32" d="m290.5,78.51c.21,4.01-1.54,7.29-3.91,7.29s-4.43-3.28-4.6-7.29c-.17-3.97,1.59-7.16,3.92-7.16s4.39,3.19,4.6,7.16Z"/>
      <path class="cls-25" d="m289.05,29.26l-2.17,71.79c-.29,9.4-14.39,17-31.35,17h-13.36c-16.96,0-31.06-7.6-31.34-17l-2.11-71.79c2.45-9.3,16.17-16.54,32.84-16.54h14.65c16.68,0,30.39,7.23,32.83,16.54Z"/>
      <g>
        <path class="cls-25" d="m241.57,12.73h14.65c16.39,0,29.89,6.99,32.67,16.06l.16-5.35c-2.44-9.3-16.15-16.54-32.83-16.54h-14.65c-16.68,0-30.39,7.23-32.84,16.54l.16,5.36c2.78-9.08,16.29-16.08,32.69-16.08Z"/>
        <g>
          <g>
            <path class="cls-33" d="m256.17,7.34c18.46,0,33.27,8.87,32.95,19.57l-.06,2.35c-2.44-9.3-16.15-16.54-32.83-16.54h-14.65c-16.68,0-30.39,7.23-32.84,16.54l-.06-2.35c-.32-10.7,14.51-19.57,32.96-19.57h14.54Z"/>
            <path class="cls-16" d="m279.25,29.62s-.06.06-.11.1h0s.08-.07.11-.1Z"/>
            <path class="cls-32" d="m279.14,29.7h0c-9.84,8.7-49.48,8.7-59.32,0h0c.92-7.17,13.96-12.79,29.66-12.79s28.74,5.62,29.66,12.78Z"/>
            <path class="cls-16" d="m219.82,29.7h0s-.08-.05-.11-.09c.03.03.06.06.11.09Z"/>
          </g>
          <g>
            <path class="cls-15" d="m208.67,26.98c-.09.65-.14,1.32-.12,1.99l.06,2.36c.04-.16.11-.31.16-.47l-.05-1.6-.06-2.28Z"/>
            <path class="cls-15" d="m289.05,29.26l-.05,1.6c.05.16.12.31.16.47l.06-2.36c.02-.67-.02-1.33-.12-1.99l-.06,2.28Z"/>
            <path class="cls-25" d="m241.61,9.29h14.58c17.37,0,31.51,7.85,32.93,17.69v-.07c.33-10.7-14.49-19.57-32.94-19.57h-14.54c-18.46,0-33.28,8.87-32.96,19.57v.07c1.43-9.85,15.57-17.69,32.94-17.69Z"/>
          </g>
        </g>
        <path class="cls-32" d="m279.14,29.71s.08-.06.11-.1l2.31,56.37s-.07-.06-.11-.09h0c-10.81-10.12-11.83-47.23-2.31-56.18Z"/>
        <path class="cls-32" d="m219.82,29.71c9.54,8.96,8.55,46.06-2.26,56.17,0-.17,0-.35,0-.52l-.07-.5,2.21-55.24s.06.06.11.1Z"/>
        <path class="cls-32" d="m281.45,85.89h0c-.22,8.54-14.3,15.49-31.93,15.49s-31.73-6.96-31.96-15.48c11.05-9.87,52.8-9.87,63.89-.01Z"/>
        <path class="cls-4" d="m220.03,91.72c4.81,5.66,16.15,9.66,29.49,9.66s24.67-4,29.47-9.66c-13.06-7.46-45.92-7.46-58.97,0Z"/>
      </g>
      <path class="cls-33" d="m286.89,95.23c-.29,9.4-14.39,17-31.35,17h-13.36c-16.96,0-31.06-7.6-31.34-17v-.32h-.18l.18,6.14c.28,9.4,14.38,17,31.34,17h13.36c16.96,0,31.06-7.6,31.35-17l.19-6.14h-.18v.32Z"/>
      <path class="cls-33" d="m290.66,95.88c-4.2,1.45-8.41,1.97-9.41,1.17-1.02-.81,1.59-2.66,5.84-4.13,4.27-1.48,8.53-2,9.5-1.17.96.83-1.7,2.68-5.92,4.13Z"/>
      <path class="cls-33" d="m205.97,95.88c4.2,1.45,8.4,1.97,9.41,1.17,1.02-.81-1.58-2.66-5.83-4.13-4.27-1.48-8.53-2-9.5-1.17-.96.83,1.7,2.68,5.92,4.13Z"/>
    </g>
  </g>
  <g>
    <path class="cls-13" d="m422.55,82.78V24.69s.59-8.47-7.26-15.18c-4.94-4.2-13.18-7.73-26.99-8.05-.66-.01-1.35-.02-2.05-.02h-2.39c-.7,0-1.39,0-2.06.02-13.81.32-22.05,3.85-26.98,8.05-7.85,6.71-7.26,15.18-7.26,15.18v58.09h-14.6v5.9h14.61s4.44,28.05,4.44,28.05c0,5.42,4.25,9.97,10,11.26,1.06.24,2.18.37,3.33.37h39.43c1.14,0,2.25-.13,3.32-.37h.01c5.75-1.29,9.99-5.84,9.99-11.26l4.45-28.05h13.86s0-5.9,0-5.9h-13.85Z"/>
    <g>
      <g>
        <g>
          <g>
            <path class="cls-8" d="m345.53,89.42v-32.86c0,16.26,2.99,30.69,2.99,30.69,6.87,4.52,17.01,7.38,28.31,7.38s21.43-2.86,28.31-7.38c0,0,2.8-13.55,2.98-29.16v31.33l-4.44,28.81c0,3.25-1.45,6.17-3.79,8.32h-.01c-1.07.24-2.18.37-3.32.37h-39.43c-1.16,0-2.28-.13-3.34-.37-2.35-2.15-3.79-5.08-3.79-8.32l-4.46-28.81Z"/>
            <path class="cls-23" d="m339.32,23.25s-.59-8.47,7.26-15.18h.01s1.68,5.67,1.68,5.67c-3.08,5.3-2.75,10.1-2.75,10.1v65.57l4.46,28.81c0,3.25,1.44,6.17,3.79,8.32-5.76-1.29-10-5.84-10-11.26l-4.44-28.1V23.25Z"/>
            <path class="cls-28" d="m348.52,87.25s-2.99-14.44-2.99-30.69c0-11.04,1.38-22.92,6.03-31.68l8.19,1.94v44.57h.49l-11.73,15.87Z"/>
            <path class="cls-28" d="m376.82,94.63c-11.3,0-21.44-2.86-28.31-7.38l11.73-15.87h33.15l11.73,15.87c-6.88,4.52-17.01,7.38-28.31,7.38Z"/>
            <path class="cls-28" d="m359.75,26.81l-8.19-1.94s6.42-8.52,19.53-11.17l11.06-.08c13.38,2.56,19.94,11.25,19.94,11.25l-8.21,1.94h-.48s-33.65,0-33.65,0Z"/>
            <path class="cls-23" d="m346.59,8.07c4.93-4.2,13.18-7.73,26.99-8.05,1.12.02,2.2.07,3.25.13-17.35,1.07-25.1,7.64-28.55,13.59l-1.68-5.66h-.01Z"/>
            <path class="cls-24" d="m376.82.15c-1.05-.06-2.13-.11-3.25-.13.67,0,1.36-.02,2.06-.02h2.39c.7,0,1.39,0,2.05.02-1.12.02-2.2.07-3.25.12Z"/>
            <path class="cls-23" d="m405.37,13.75c-3.46-5.96-11.2-12.54-28.55-13.6,1.05-.06,2.13-.11,3.25-.12,13.81.32,22.05,3.85,26.99,8.05h-.01s-1.67,5.68-1.67,5.68Z"/>
            <path class="cls-23" d="m399.87,126.56c2.34-2.15,3.79-5.08,3.79-8.32l4.44-28.81v-31.33c.01-1.19.01-2.39,0-3.6v-30.64s.33-4.8-2.73-10.1l1.67-5.67h.01c7.85,6.7,7.26,15.17,7.26,15.17v63.95l-4.46,28.1c0,5.42-4.25,9.97-9.99,11.26Z"/>
            <path class="cls-28" d="m405.13,87.25l-11.73-15.87V26.81h.48s8.21-1.94,8.21-1.94c4.35,8.21,5.84,19.18,6.02,29.61v3.6c-.17,15.62-2.98,29.16-2.98,29.16Z"/>
            <path class="cls-24" d="m408.1,58.08v-3.6c.01,1.21.01,2.41,0,3.6Z"/>
          </g>
          <path class="cls-8" d="m359.54,70.41h34.57s12.61,17.06,12.61,17.06l-.8.52c-7.35,4.84-17.96,7.61-29.09,7.61-11.15,0-21.76-2.77-29.09-7.61l-.8-.52,12.61-17.06Zm33.15,1.94h-31.74l-10.84,14.67c6.86,4.23,16.53,6.65,26.71,6.65,10.17,0,19.83-2.41,26.71-6.65l-10.84-14.67Z"/>
        </g>
        <polygon class="cls-23" points="341.91 81.34 324.72 81.34 324.72 87.24 342.93 87.24 341.91 81.34"/>
        <polygon class="cls-23" points="410.98 81.34 428.17 81.34 428.17 87.24 409.96 87.24 410.98 81.34"/>
      </g>
      <path class="cls-8" d="m405.37,13.75c-3.46-5.96-11.2-12.54-28.55-13.6-17.35,1.07-25.1,7.64-28.55,13.59-3.08,5.3-2.75,10.1-2.75,10.1v32.71c0-11.04,1.38-22.92,6.03-31.68,0,0,.71-.93,2.1-2.25l6.09,4.8v43.96h34.13s0-43.51,0-43.51l6.36-5.01c1.23,1.2,1.85,2.01,1.85,2.01,4.35,8.21,5.84,19.18,6.02,29.61v-30.64s.33-4.8-2.73-10.1Zm-14.48,12.09h-27.58l-6.98-5.5c3.24-2.48,8.15-5.3,14.76-6.64l11.06-.08c7.02,1.34,12.14,4.36,15.44,6.94l-6.7,5.28Z"/>
    </g>
  </g>
  <g>
    <rect class="cls-7" x="180.16" y="209.71" width="11.44" height="117.06"/>
    <rect class="cls-7" x="308.35" y="209.71" width="11.44" height="117.06"/>
    <rect class="cls-7" x="436.55" y="209.71" width="11.44" height="117.06"/>
  </g>
  <g>
    <path class="cls-13" d="m561.97,259.5c2,0,3.89-3.36,4.24-7.58.29-3.66-.71-6.62-2.29-7.45l.34-2.52c.12-.85.18-1.69.18-2.53v-.09c1-7.16-1.93-13.94-7.48-18.94s-13.71-8.21-23.18-8.21h-14.92c-18.94,0-32.67,12.83-30.72,27.15v.1c.02.84.08,1.68.19,2.52l.32,2.35c-1.8.49-2.99,3.67-2.68,7.62.33,4.22,2.23,7.58,4.23,7.58.23,0,.43-.19.64-.28l3.97,29.18c-1.26.9-2.06,3.27-1.86,6.1.24,3.37,1.8,6.03,3.54,6.27l.86,6.35c-.29-.12-.53-.24-.84-.35-3.37-1.21-6.67-1.64-7.31-.96-.63.68,1.58,2.18,4.9,3.35,1.3.46,2.55.76,3.67.97l.42,3.11c.97,7.09,11.44,12.54,23.34,12.54h9.38c11.9,0,22.39-5.45,23.37-12.54l.45-3.27c.9-.2,1.84-.46,2.82-.8,3.32-1.17,5.53-2.67,4.9-3.35-.64-.68-3.92-.26-7.28.94l.85-6.13c1.58-.55,2.94-3,3.17-6.13.19-2.57-.46-4.77-1.52-5.83l4.03-29.28c.1.02.17.12.27.12Zm1.82-15.09s-.02,0-.03-.01l.29-2.09-.28,2.01s0,.07.01.1Zm-74.98-.18l-.26-1.92.26,1.92h0Z"/>
    <g>
      <g>
        <path class="cls-32" d="m475,247.6c.33,4.22,2.23,7.58,4.23,7.58s3.4-3.36,3.13-7.58c-.28-4.29-2.18-7.82-4.24-7.82s-3.46,3.53-3.12,7.82Z"/>
        <path class="cls-32" d="m481.98,290.18c.25,3.53,1.94,6.36,3.78,6.36s3.16-2.82,2.96-6.36c-.2-3.59-1.9-6.54-3.79-6.54s-3.2,2.95-2.95,6.54Z"/>
        <path class="cls-32" d="m555.23,247.6c-.34,4.22-2.23,7.58-4.24,7.58s-3.4-3.36-3.12-7.58c.28-4.29,2.19-7.82,4.25-7.82s3.45,3.53,3.11,7.82Z"/>
        <path class="cls-32" d="m548.21,290.18c-.26,3.53-1.95,6.36-3.78,6.36s-3.16-2.82-2.95-6.36c.21-3.59,1.91-6.54,3.79-6.54s3.2,2.95,2.94,6.54Z"/>
        <path class="cls-20" d="m553.08,237.98l-9.77,70.93c-.98,7.09-11.47,12.54-23.37,12.54h-9.38c-11.9,0-22.38-5.45-23.34-12.54l-9.64-70.93c1-12.15,13.69-22.23,30.42-22.23h14.7c16.73,0,29.4,10.08,30.38,22.23Z"/>
        <g>
          <g>
            <path class="cls-22" d="m522.81,207.85c18.94,0,32.64,12.83,30.67,27.15l-.41,2.98c-.98-12.15-13.65-22.23-30.38-22.23h-14.7c-16.73,0-29.42,10.08-30.42,22.23l-.4-2.98c-1.95-14.31,11.78-27.15,30.72-27.15h14.92Z"/>
            <path class="cls-10" d="m543.83,238.43s-.07.08-.11.12h0s.08-.09.11-.12Z"/>
            <path class="cls-32" d="m543.71,238.54h0c-9.86,10.57-45.86,10.57-55.67.01h0c.12-9.26,12.38-16.88,27.88-16.88s27.71,7.62,27.79,16.87Z"/>
            <path class="cls-10" d="m488.04,238.54h0s-.08-.07-.11-.11c.03.03.06.08.11.11Z"/>
          </g>
          <g>
            <path class="cls-12" d="m477.18,235.09c0,.84.06,1.68.18,2.53l.4,2.95c.02-.2.06-.39.08-.58l-.27-2.01-.39-2.89Z"/>
            <path class="cls-12" d="m553.08,237.98l-.28,2.01c.02.2.07.39.08.58l.4-2.95c.12-.85.18-1.69.18-2.53l-.39,2.89Z"/>
            <path class="cls-20" d="m507.93,210.76h14.84c17.68,0,30.81,11.22,30.7,24.33v-.09c1.99-14.31-11.72-27.15-30.66-27.15h-14.92c-18.94,0-32.67,12.83-30.72,27.15v.09c-.08-13.12,13.08-24.33,30.76-24.33Z"/>
          </g>
        </g>
        <path class="cls-30" d="m546.57,304.84c-3.27,1.15-6.45,1.57-7.14.93-.7-.64,1.39-2.13,4.72-3.32,3.37-1.21,6.67-1.64,7.31-.96.63.68-1.58,2.18-4.9,3.35Z"/>
        <path class="cls-30" d="m483.12,304.84c3.27,1.15,6.45,1.57,7.14.93.7-.64-1.39-2.13-4.72-3.32-3.37-1.21-6.67-1.64-7.31-.96-.63.68,1.58,2.18,4.9,3.35Z"/>
      </g>
      <path class="cls-29" d="m527.75,251.33h-26.53c-9.55,0-15.36,8.42-13.29,17.45l4.46,34.07h45.87l2.77-34.07c2.07-9.03-3.73-17.45-13.28-17.45Z"/>
      <g>
        <rect class="cls-21" x="518.2" y="263.18" width="14.81" height="13.44" rx=".35" ry=".35" transform="translate(1051.22 539.8) rotate(180)"/>
        <path class="cls-11" d="m533.02,271.47h0c1.87,0,3.39,1.2,3.39,2.67v5.86c0,1.48-1.52,2.67-3.39,2.67h0c-1.88,0-3.39-1.2-3.39-2.67v-5.86c0-1.48,1.52-2.67,3.39-2.67Z"/>
        <path class="cls-11" d="m519.23,271.47h0c1.87,0,3.39,1.2,3.39,2.67v5.86c0,1.48-1.52,2.67-3.39,2.67h0c-1.87,0-3.39-1.2-3.39-2.67v-5.86c0-1.48,1.52-2.67,3.39-2.67Z"/>
        <rect class="cls-1" x="519.23" y="270.66" width="12.96" height="13.44" rx=".35" ry=".35" transform="translate(1051.43 554.75) rotate(180)"/>
        <path class="cls-20" d="m534.22,272.92c-1.02,0-1.85-.65-1.85-1.46v-4.97c0-1.52-1.57-2.75-3.5-2.75h-6.31c-1.93,0-3.5,1.24-3.5,2.75v4.97c0,.8-.83,1.46-1.85,1.46s-1.85-.65-1.85-1.46v-4.97c0-3.12,3.23-5.66,7.2-5.66h6.31c3.96,0,7.2,2.54,7.2,5.66v4.97c0,.8-.83,1.46-1.85,1.46Z"/>
      </g>
      <g>
        <rect class="cls-21" x="492.76" y="263.18" width="14.81" height="13.44" rx=".35" ry=".35" transform="translate(1000.34 539.8) rotate(180)"/>
        <path class="cls-11" d="m507.58,271.47h0c1.87,0,3.39,1.2,3.39,2.67v5.86c0,1.48-1.52,2.67-3.39,2.67h0c-1.87,0-3.39-1.2-3.39-2.67v-5.86c0-1.48,1.52-2.67,3.39-2.67Z"/>
        <path class="cls-11" d="m493.79,271.47h0c1.87,0,3.39,1.2,3.39,2.67v5.86c0,1.48-1.52,2.67-3.39,2.67h0c-1.87,0-3.39-1.2-3.39-2.67v-5.86c0-1.48,1.52-2.67,3.39-2.67Z"/>
        <rect class="cls-1" x="493.79" y="270.66" width="12.96" height="13.44" rx=".35" ry=".35" transform="translate(1000.54 554.75) rotate(180)"/>
        <path class="cls-20" d="m508.78,272.92c-1.02,0-1.85-.65-1.85-1.46v-4.97c0-1.52-1.57-2.75-3.51-2.75h-6.3c-1.94,0-3.51,1.24-3.51,2.75v4.97c0,.8-.83,1.46-1.85,1.46s-1.85-.65-1.85-1.46v-4.97c0-3.12,3.23-5.66,7.21-5.66h6.3c3.97,0,7.21,2.54,7.21,5.66v4.97c0,.8-.83,1.46-1.85,1.46Z"/>
      </g>
      <g>
        <path class="cls-32" d="m496.17,282.21l-3.78,20.34s8.24,6.62,22.93,7.33c14.7-.71,22.93-7.33,22.93-7.33l-3.79-20.34h-38.3Z"/>
        <path class="cls-20" d="m515.43,311.19c-15.37-.73-23.88-7.44-24.24-7.72l-.58-.46,4.12-22.11h41.19l4.11,22.11-.58.46c-.35.29-8.85,6.99-24.02,7.72Zm-21.26-9.14c2.08,1.42,9.57,5.95,21.26,6.51,11.51-.56,18.98-5.09,21.04-6.51l-3.44-18.53h-35.43l-3.44,18.53Z"/>
      </g>
    </g>
  </g>
  <g>
    <path class="cls-13" d="m81.04,252.86c1.92,0,3.74-3.23,4.07-7.29.28-3.52-.69-6.37-2.2-7.17l.33-2.43c.11-.82.17-1.63.18-2.43l-.38,2.78-.27,1.93s0,.06.01.09c0,0-.02,0-.02-.01l.28-2.01.38-2.78h0s.01-.09.01-.09c1.9-13.76-11.28-26.1-29.49-26.1h-14.34c-18.21,0-31.41,12.34-29.54,26.1v.09s.01,0,.01,0l.37,2.78.25,1.85h0s-.25-1.85-.25-1.85l-.37-2.78c0,.8.06,1.61.17,2.43l.3,2.27c-1.73.48-2.87,3.53-2.57,7.33.32,4.05,2.14,7.29,4.06,7.29.22,0,.41-.18.62-.27l3.81,28.05c-1.22.86-1.98,3.14-1.79,5.87.23,3.24,1.73,5.8,3.4,6.02l.83,6.11c-.28-.11-.51-.23-.81-.34-3.24-1.16-6.41-1.58-7.03-.92-.61.65,1.52,2.1,4.71,3.22,1.25.44,2.45.73,3.53.93l.41,2.98c.93,6.82,11,12.06,22.44,12.06h9.02c11.44,0,21.52-5.24,22.47-12.06l.43-3.14c.86-.2,1.77-.44,2.71-.77,3.19-1.12,5.32-2.57,4.71-3.22-.61-.66-3.76-.25-7,.91l.81-5.9c1.52-.53,2.83-2.89,3.05-5.89.18-2.47-.44-4.59-1.46-5.61l3.88-28.15c.09.02.16.11.26.11Z"/>
    <g>
      <g>
        <path class="cls-32" d="m.05,242.93c.32,4.05,2.14,7.29,4.06,7.29s3.28-3.23,3.01-7.29c-.27-4.12-2.1-7.51-4.08-7.51s-3.32,3.39-3,7.51Z"/>
        <path class="cls-32" d="m6.75,283.87c.24,3.4,1.87,6.11,3.63,6.11s3.04-2.71,2.84-6.11c-.2-3.45-1.83-6.28-3.64-6.28s-3.08,2.84-2.83,6.28Z"/>
        <path class="cls-32" d="m77.18,242.93c-.33,4.05-2.15,7.29-4.07,7.29s-3.27-3.23-3-7.29c.27-4.12,2.1-7.51,4.09-7.51s3.32,3.39,2.99,7.51Z"/>
        <path class="cls-32" d="m70.43,283.87c-.25,3.4-1.87,6.11-3.64,6.11s-3.04-2.71-2.84-6.11c.2-3.45,1.83-6.28,3.65-6.28s3.08,2.84,2.83,6.28Z"/>
        <path class="cls-18" d="m75.11,233.69l-9.4,68.19c-.94,6.82-11.03,12.06-22.47,12.06h-9.02c-11.44,0-21.51-5.24-22.44-12.06L2.52,233.69c.96-11.68,13.16-21.37,29.25-21.37h14.13c16.09,0,28.27,9.69,29.21,21.37Z"/>
        <g>
          <g>
            <path class="cls-2" d="m46.01,204.72c18.21,0,31.39,12.34,29.49,26.1l-.39,2.87c-.94-11.68-13.12-21.37-29.21-21.37h-14.13c-16.09,0-28.29,9.69-29.25,21.37l-.38-2.87c-1.87-13.76,11.33-26.1,29.54-26.1h14.34Z"/>
            <path class="cls-31" d="m66.22,234.12s-.06.08-.11.12h0s.08-.09.11-.12Z"/>
            <path class="cls-32" d="m66.11,234.23h0c-9.48,10.16-44.09,10.16-53.52.01h0c.12-8.9,11.9-16.23,26.8-16.23s26.64,7.33,26.72,16.21Z"/>
            <path class="cls-31" d="m12.58,234.23h0s-.08-.06-.11-.11c.03.03.06.08.11.11Z"/>
          </g>
          <g>
            <path class="cls-3" d="m2.15,230.91c0,.8.06,1.61.17,2.43l.38,2.84c.02-.19.06-.37.08-.56l-.26-1.93-.37-2.78Z"/>
            <path class="cls-3" d="m75.11,233.69l-.27,1.93c.02.19.06.37.08.56l.39-2.84c.11-.82.17-1.63.18-2.43l-.38,2.78Z"/>
            <path class="cls-18" d="m31.71,207.51h14.27c16.99,0,29.62,10.78,29.52,23.4v-.09c1.91-13.76-11.27-26.1-29.48-26.1h-14.34c-18.21,0-31.41,12.34-29.54,26.1v.09c-.07-12.61,12.58-23.4,29.57-23.4Z"/>
          </g>
        </g>
        <path class="cls-18" d="m68.86,297.97c-3.15,1.11-6.2,1.51-6.86.89-.67-.62,1.34-2.05,4.54-3.2,3.24-1.16,6.41-1.58,7.03-.92.61.65-1.52,2.1-4.71,3.22Z"/>
        <path class="cls-18" d="m7.86,297.97c3.15,1.11,6.2,1.51,6.86.89.67-.62-1.34-2.05-4.54-3.2-3.24-1.16-6.41-1.58-7.03-.92-.61.65,1.52,2.1,4.71,3.22Z"/>
      </g>
      <path class="cls-19" d="m50.76,246.52h-25.51c-9.18,0-14.77,8.1-12.77,16.78l4.29,32.76h44.1l2.67-32.76c1.99-8.68-3.59-16.78-12.77-16.78Z"/>
      <g>
        <rect class="cls-27" x="41.58" y="257.91" width="14.24" height="12.92" rx=".33" ry=".33" transform="translate(97.41 528.75) rotate(180)"/>
        <path class="cls-17" d="m55.82,265.88h0c1.8,0,3.26,1.15,3.26,2.57v5.63c0,1.42-1.46,2.57-3.26,2.57h0c-1.8,0-3.26-1.15-3.26-2.57v-5.63c0-1.42,1.46-2.57,3.26-2.57Z"/>
        <path class="cls-17" d="m42.57,265.88h0c1.8,0,3.26,1.15,3.26,2.57v5.63c0,1.42-1.46,2.57-3.26,2.57h0c-1.8,0-3.26-1.15-3.26-2.57v-5.63c0-1.42,1.46-2.57,3.26-2.57Z"/>
        <rect class="cls-5" x="42.57" y="265.1" width="12.46" height="12.92" rx=".33" ry=".33" transform="translate(97.61 543.13) rotate(180)"/>
        <path class="cls-26" d="m56.98,267.28c-.98,0-1.78-.63-1.78-1.4v-4.78c0-1.46-1.51-2.64-3.36-2.64h-6.06c-1.86,0-3.36,1.19-3.36,2.64v4.78c0,.77-.8,1.4-1.78,1.4s-1.78-.63-1.78-1.4v-4.78c0-3,3.11-5.45,6.93-5.45h6.06c3.82,0,6.92,2.45,6.92,5.45v4.78c0,.77-.8,1.4-1.78,1.4Z"/>
      </g>
      <g>
        <rect class="cls-27" x="17.13" y="257.91" width="14.24" height="12.92" rx=".33" ry=".33" transform="translate(48.49 528.75) rotate(180)"/>
        <path class="cls-17" d="m31.36,265.88h0c1.8,0,3.26,1.15,3.26,2.57v5.63c0,1.42-1.46,2.57-3.26,2.57h0c-1.8,0-3.26-1.15-3.26-2.57v-5.63c0-1.42,1.46-2.57,3.26-2.57Z"/>
        <path class="cls-17" d="m18.11,265.88h0c1.8,0,3.26,1.15,3.26,2.57v5.63c0,1.42-1.46,2.57-3.26,2.57h0c-1.8,0-3.26-1.15-3.26-2.57v-5.63c0-1.42,1.46-2.57,3.26-2.57Z"/>
        <rect class="cls-5" x="18.11" y="265.1" width="12.46" height="12.92" rx=".33" ry=".33" transform="translate(48.69 543.13) rotate(180)"/>
        <path class="cls-26" d="m32.52,267.28c-.98,0-1.78-.63-1.78-1.4v-4.78c0-1.46-1.51-2.64-3.36-2.64h-6.06c-1.85,0-3.36,1.19-3.36,2.64v4.78c0,.77-.8,1.4-1.78,1.4s-1.78-.63-1.78-1.4v-4.78c0-3,3.11-5.45,6.92-5.45h6.06c3.82,0,6.92,2.45,6.92,5.45v4.78c0,.77-.8,1.4-1.78,1.4Z"/>
      </g>
      <g>
        <path class="cls-32" d="m20.4,276.21l-3.64,19.55s7.92,6.37,22.05,7.05c14.13-.68,22.05-7.05,22.05-7.05l-3.64-19.55H20.4Z"/>
        <path class="cls-9" d="m38.92,304.07c-14.78-.71-22.96-7.14-23.3-7.42l-.56-.45,3.96-21.26h39.59l3.96,21.26-.56.45c-.34.27-8.52,6.72-23.1,7.42Zm-20.44-8.79c2,1.37,9.2,5.72,20.44,6.27,11.07-.55,18.24-4.9,20.24-6.27l-3.32-17.81H21.79l-3.32,17.81Z"/>
      </g>
    </g>
  </g>
  <g>
    <path class="cls-13" d="m168.9,292.98c-.7-.88-3.81-.33-6.92,1.22l.16-7.77c1.43-.68,2.44-3.67,2.31-7.42-.11-3.01-.93-5.55-2.01-6.77l.63-30.14c.08.02.15.11.23.11,1.65,0,2.85-3.11,2.7-6.91-.13-3.22-1.21-5.77-2.53-6.48l.04-2.13c.01-.71-.01-1.41-.08-2.1l-.04,2.4.04-2.4h0s0-.07,0-.07c0-.35-.09-.67-.1-1.02l.06-2.65c-1.79-9.82-11.83-17.46-24.05-17.46h-10.73c-12.22,0-22.26,7.63-24.06,17.46l.05,2.68c-.01.33-.11.65-.1.98v.08s0,0,0,0l.04,2.4-.04-2.4c-.07.69-.1,1.39-.08,2.1l.04,1.99c-1.46.42-2.7,3.15-2.85,6.62-.16,3.8,1.05,6.91,2.69,6.91.19,0,.37-.17.55-.26l.61,29.99c-1.24,1.03-2.22,3.75-2.35,7.06-.15,4.05,1.02,7.3,2.64,7.59l.16,8.06c-.27-.15-.49-.31-.78-.45-3.12-1.56-6.25-2.12-6.96-1.23-.7.88,1.24,2.83,4.33,4.37,1.22.61,2.41,1.01,3.48,1.28l.08,4.18c.2,9.93,10.53,17.95,22.95,17.95h9.79c12.42,0,22.75-8.02,22.96-17.95l.09-4.4c.86-.27,1.75-.61,2.67-1.06,3.09-1.54,5.04-3.49,4.34-4.37Zm-5.53-64.19s-.01,0-.02,0v-.07s.01.05.02.08Z"/>
    <g>
      <path class="cls-32" d="m91.54,232.43c-.16,3.8,1.05,6.91,2.69,6.91s3.08-3.11,3.21-6.91c.13-3.76-1.08-6.79-2.7-6.79s-3.05,3.02-3.21,6.79Z"/>
      <path class="cls-32" d="m93.05,276.13c-.16,4.24,1.12,7.7,2.86,7.7s3.25-3.47,3.38-7.7c.12-4.19-1.16-7.56-2.86-7.56s-3.22,3.37-3.37,7.56Z"/>
      <path class="cls-32" d="m155.93,232.43c.15,3.8-1.05,6.91-2.7,6.91s-3.08-3.11-3.21-6.91c-.12-3.76,1.09-6.79,2.7-6.79s3.05,3.02,3.2,6.79Z"/>
      <path class="cls-32" d="m154.38,276.13c.16,4.24-1.13,7.7-2.87,7.7s-3.25-3.47-3.37-7.7c-.12-4.19,1.16-7.56,2.87-7.56s3.21,3.37,3.37,7.56Z"/>
      <path class="cls-34" d="m153.32,224.13l-1.59,75.79c-.21,9.93-10.54,17.95-22.97,17.95h-9.79c-12.42,0-22.75-8.02-22.95-17.95l-1.55-75.79c1.79-9.82,11.84-17.46,24.06-17.46h10.73c12.22,0,22.26,7.63,24.05,17.46Z"/>
      <g>
        <path class="cls-34" d="m118.54,206.67h10.73c12.01,0,21.9,7.38,23.93,16.96l.12-5.65c-1.79-9.82-11.83-17.46-24.05-17.46h-10.73c-12.22,0-22.26,7.63-24.06,17.46l.12,5.66c2.03-9.59,11.93-16.97,23.94-16.97Z"/>
        <g>
          <g>
            <path class="cls-14" d="m129.23,200.98c13.52,0,24.37,9.37,24.13,20.66l-.05,2.48c-1.79-9.82-11.83-17.46-24.05-17.46h-10.73c-12.22,0-22.26,7.63-24.06,17.46l-.04-2.48c-.23-11.3,10.63-20.66,24.15-20.66h10.65Z"/>
            <path class="cls-31" d="m146.14,224.5s-.05.07-.08.1h0s.06-.07.08-.1Z"/>
            <path class="cls-32" d="m146.06,224.59h0c-7.21,9.19-36.25,9.19-43.46,0h0c.67-7.58,10.23-13.51,21.73-13.51s21.05,5.93,21.73,13.5Z"/>
            <path class="cls-31" d="m102.6,224.59h0s-.06-.06-.08-.09c.02.03.05.07.08.09Z"/>
          </g>
          <g>
            <path class="cls-3" d="m94.43,221.72c-.07.69-.1,1.39-.09,2.1l.05,2.49c.03-.17.08-.33.12-.5l-.04-1.69-.04-2.4Z"/>
            <path class="cls-3" d="m153.32,224.13l-.04,1.69c.04.17.09.33.12.5l.05-2.49c.01-.71-.02-1.41-.08-2.1l-.04,2.4Z"/>
            <path class="cls-34" d="m118.56,203.04h10.68c12.72,0,23.08,8.28,24.12,18.68v-.08c.24-11.3-10.61-20.66-24.13-20.66h-10.65c-13.52,0-24.38,9.37-24.15,20.66v.08c1.05-10.4,11.41-18.68,24.13-18.68Z"/>
          </g>
        </g>
        <path class="cls-32" d="m146.06,224.6s.06-.07.08-.1l1.69,59.52s-.05-.07-.08-.1h0c-7.92-10.69-8.67-49.86-1.69-59.32Z"/>
        <path class="cls-32" d="m102.6,224.6c6.98,9.46,6.26,48.63-1.66,59.31,0-.18,0-.37,0-.55l-.05-.53,1.62-58.33s.05.07.08.1Z"/>
        <path class="cls-32" d="m147.75,283.91h0c-.16,9.01-10.48,16.36-23.39,16.36s-23.24-7.35-23.41-16.35c8.1-10.42,38.68-10.42,46.8-.01Z"/>
        <path class="cls-6" d="m102.75,290.07c3.53,5.97,11.83,10.2,21.61,10.2s18.07-4.23,21.59-10.2c-9.57-7.88-33.64-7.88-43.2,0Z"/>
      </g>
      <path class="cls-14" d="m151.73,293.78c-.21,9.93-10.54,17.95-22.97,17.95h-9.79c-12.42,0-22.75-8.02-22.95-17.95v-.34h-.13l.13,6.48c.2,9.93,10.53,17.95,22.95,17.95h9.79c12.42,0,22.76-8.02,22.97-17.95l.14-6.48h-.13v.34Z"/>
      <path class="cls-14" d="m154.5,294.46c-3.08,1.53-6.16,2.08-6.9,1.23-.74-.85,1.16-2.81,4.28-4.36,3.13-1.56,6.25-2.12,6.96-1.23.7.88-1.25,2.83-4.34,4.36Z"/>
      <path class="cls-14" d="m92.45,294.46c3.08,1.53,6.16,2.08,6.89,1.23.75-.85-1.16-2.81-4.27-4.36-3.12-1.56-6.25-2.12-6.96-1.23-.7.88,1.24,2.83,4.33,4.36Z"/>
    </g>
  </g>
  <g>
    <path class="cls-13" d="m304.06,294.13c-.96-.83-5.2-.31-9.45,1.15l.22-7.36c1.95-.64,3.34-3.48,3.15-7.03-.15-2.85-1.27-5.25-2.74-6.41l.86-28.54c.11.01.21.1.32.1,2.25,0,3.89-2.94,3.69-6.54-.18-3.04-1.65-5.46-3.45-6.13l.05-2.02c.02-.67-.02-1.33-.11-1.98v-.07c.01-.33-.12-.64-.14-.97l.08-2.51c-2.44-9.3-16.15-16.54-32.83-16.54h-14.65c-16.68,0-30.39,7.23-32.84,16.54l.08,2.53c-.02.32-.15.62-.14.94v.07s0,0,0,0l.06,2.28-.06-2.28c-.1.65-.14,1.32-.12,1.99l.05,1.88c-1.99.4-3.69,2.98-3.89,6.27-.21,3.6,1.43,6.54,3.68,6.54.26,0,.5-.16.75-.24l.83,28.4c-1.7.97-3.03,3.55-3.2,6.69-.21,3.83,1.4,6.92,3.61,7.19l.23,7.64c-.37-.14-.67-.29-1.06-.43-4.27-1.48-8.53-2-9.5-1.17-.96.83,1.7,2.68,5.92,4.14,1.67.58,3.28.96,4.75,1.21l.12,3.96c.28,9.4,14.38,17,31.34,17h13.36c16.96,0,31.06-7.6,31.35-17l.13-4.16c1.17-.26,2.39-.57,3.65-1.01,4.22-1.46,6.88-3.31,5.92-4.14Zm-7.58-60.81v-.07s.02.05.03.08c0,0-.02,0-.03,0Z"/>
    <g>
      <path class="cls-32" d="m203.24,234.51c-.21,3.6,1.43,6.54,3.68,6.54s4.21-2.94,4.39-6.54c.17-3.56-1.47-6.43-3.68-6.43s-4.17,2.86-4.38,6.43Z"/>
      <path class="cls-32" d="m205.3,275.9c-.22,4.01,1.53,7.29,3.9,7.29s4.44-3.28,4.61-7.29c.17-3.97-1.58-7.16-3.91-7.16s-4.39,3.19-4.61,7.16Z"/>
      <path class="cls-32" d="m291.15,234.51c.21,3.6-1.44,6.54-3.69,6.54s-4.21-2.94-4.38-6.54c-.17-3.56,1.48-6.43,3.69-6.43s4.17,2.86,4.38,6.43Z"/>
      <path class="cls-32" d="m289.02,275.9c.21,4.01-1.54,7.29-3.91,7.29s-4.43-3.28-4.6-7.29c-.17-3.97,1.59-7.16,3.92-7.16s4.39,3.19,4.6,7.16Z"/>
      <path class="cls-25" d="m287.57,226.65l-2.17,71.79c-.29,9.4-14.39,17-31.35,17h-13.36c-16.96,0-31.06-7.6-31.34-17l-2.11-71.79c2.45-9.3,16.17-16.54,32.84-16.54h14.65c16.68,0,30.39,7.23,32.83,16.54Z"/>
      <g>
        <path class="cls-25" d="m240.09,210.11h14.65c16.39,0,29.89,6.99,32.67,16.06l.16-5.35c-2.44-9.3-16.15-16.54-32.83-16.54h-14.65c-16.68,0-30.39,7.23-32.84,16.54l.16,5.36c2.78-9.08,16.29-16.08,32.69-16.08Z"/>
        <g>
          <g>
            <path class="cls-33" d="m254.69,204.73c18.46,0,33.27,8.87,32.95,19.57l-.06,2.35c-2.44-9.3-16.15-16.54-32.83-16.54h-14.65c-16.68,0-30.39,7.23-32.84,16.54l-.06-2.35c-.32-10.7,14.51-19.57,32.96-19.57h14.54Z"/>
            <path class="cls-16" d="m277.77,227s-.06.06-.11.1h0s.08-.07.11-.1Z"/>
            <path class="cls-32" d="m277.66,227.09h0c-9.84,8.7-49.48,8.7-59.32,0h0c.92-7.17,13.96-12.79,29.66-12.79s28.74,5.62,29.66,12.78Z"/>
            <path class="cls-16" d="m218.34,227.09h0s-.08-.05-.11-.09c.03.03.06.06.11.09Z"/>
          </g>
          <g>
            <path class="cls-15" d="m207.19,224.37c-.09.65-.14,1.32-.12,1.99l.06,2.36c.04-.16.11-.31.16-.47l-.05-1.6-.06-2.28Z"/>
            <path class="cls-15" d="m287.57,226.65l-.05,1.6c.05.16.12.31.16.47l.06-2.36c.02-.67-.02-1.33-.12-1.99l-.06,2.28Z"/>
            <path class="cls-25" d="m240.13,206.68h14.58c17.37,0,31.51,7.85,32.93,17.69v-.07c.33-10.7-14.49-19.57-32.94-19.57h-14.54c-18.46,0-33.28,8.87-32.96,19.57v.07c1.43-9.85,15.57-17.69,32.94-17.69Z"/>
          </g>
        </g>
        <path class="cls-32" d="m277.66,227.1s.08-.06.11-.1l2.31,56.37s-.07-.06-.11-.09h0c-10.81-10.12-11.83-47.23-2.31-56.18Z"/>
        <path class="cls-32" d="m218.34,227.1c9.54,8.96,8.55,46.06-2.26,56.17,0-.17,0-.35,0-.52l-.07-.5,2.21-55.24s.06.06.11.1Z"/>
        <path class="cls-32" d="m279.97,283.27h0c-.22,8.54-14.3,15.49-31.93,15.49s-31.73-6.96-31.96-15.48c11.05-9.87,52.8-9.87,63.89-.01Z"/>
        <path class="cls-4" d="m218.55,289.11c4.81,5.66,16.15,9.66,29.49,9.66s24.67-4,29.47-9.66c-13.06-7.46-45.92-7.46-58.97,0Z"/>
      </g>
      <path class="cls-33" d="m285.41,292.61c-.29,9.4-14.39,17-31.35,17h-13.36c-16.96,0-31.06-7.6-31.34-17v-.32h-.18l.18,6.14c.28,9.4,14.38,17,31.34,17h13.36c16.96,0,31.06-7.6,31.35-17l.19-6.14h-.18v.32Z"/>
      <path class="cls-33" d="m289.18,293.26c-4.2,1.45-8.41,1.97-9.41,1.17-1.02-.81,1.59-2.66,5.84-4.13,4.27-1.48,8.53-2,9.5-1.17.96.83-1.7,2.68-5.92,4.13Z"/>
      <path class="cls-33" d="m204.49,293.26c4.2,1.45,8.4,1.97,9.41,1.17,1.02-.81-1.58-2.66-5.83-4.13-4.27-1.48-8.53-2-9.5-1.17-.96.83,1.7,2.68,5.92,4.13Z"/>
    </g>
  </g>
  <g>
    <path class="cls-13" d="m421.07,280.17v-58.09s.59-8.47-7.26-15.18c-4.94-4.2-13.18-7.73-26.99-8.05-.66-.01-1.35-.02-2.05-.02h-2.39c-.7,0-1.39,0-2.06.02-13.81.32-22.05,3.85-26.98,8.05-7.85,6.71-7.26,15.18-7.26,15.18v58.09h-14.6v5.9h14.61s4.44,28.05,4.44,28.05c0,5.42,4.25,9.97,10,11.26,1.06.24,2.18.37,3.33.37h39.43c1.14,0,2.25-.13,3.32-.37h.01c5.75-1.29,9.99-5.84,9.99-11.26l4.45-28.05h13.86s0-5.9,0-5.9h-13.85Z"/>
    <g>
      <g>
        <g>
          <g>
            <path class="cls-8" d="m344.05,286.8v-32.86c0,16.26,2.99,30.69,2.99,30.69,6.87,4.52,17.01,7.38,28.31,7.38s21.43-2.86,28.31-7.38c0,0,2.8-13.55,2.98-29.16v31.33l-4.44,28.81c0,3.25-1.45,6.17-3.79,8.32h-.01c-1.07.24-2.18.37-3.32.37h-39.43c-1.16,0-2.28-.13-3.34-.37-2.35-2.15-3.79-5.08-3.79-8.32l-4.46-28.81Z"/>
            <path class="cls-23" d="m337.84,220.64s-.59-8.47,7.26-15.18h.01s1.68,5.67,1.68,5.67c-3.08,5.3-2.75,10.1-2.75,10.1v65.57l4.46,28.81c0,3.25,1.44,6.17,3.79,8.32-5.76-1.29-10-5.84-10-11.26l-4.44-28.1v-63.95Z"/>
            <path class="cls-28" d="m347.04,284.63s-2.99-14.44-2.99-30.69c0-11.04,1.38-22.92,6.03-31.68l8.19,1.94v44.57h.49l-11.73,15.87Z"/>
            <path class="cls-28" d="m375.34,292.02c-11.3,0-21.44-2.86-28.31-7.38l11.73-15.87h33.15l11.73,15.87c-6.88,4.52-17.01,7.38-28.31,7.38Z"/>
            <path class="cls-28" d="m358.27,224.2l-8.19-1.94s6.42-8.52,19.53-11.17l11.06-.08c13.38,2.56,19.94,11.25,19.94,11.25l-8.21,1.94h-.48s-33.65,0-33.65,0Z"/>
            <path class="cls-23" d="m345.11,205.46c4.93-4.2,13.18-7.73,26.99-8.05,1.12.02,2.2.07,3.25.13-17.35,1.07-25.1,7.64-28.55,13.59l-1.68-5.66h-.01Z"/>
            <path class="cls-24" d="m375.34,197.53c-1.05-.06-2.13-.11-3.25-.13.67,0,1.36-.02,2.06-.02h2.39c.7,0,1.39,0,2.05.02-1.12.02-2.2.07-3.25.12Z"/>
            <path class="cls-23" d="m403.89,211.14c-3.46-5.96-11.2-12.54-28.55-13.6,1.05-.06,2.13-.11,3.25-.12,13.81.32,22.05,3.85,26.99,8.05h-.01s-1.67,5.68-1.67,5.68Z"/>
            <path class="cls-23" d="m398.39,323.94c2.34-2.15,3.79-5.08,3.79-8.32l4.44-28.81v-31.33c.01-1.19.01-2.39,0-3.6v-30.64s.33-4.8-2.73-10.1l1.67-5.67h.01c7.85,6.7,7.26,15.17,7.26,15.17v63.95l-4.46,28.1c0,5.42-4.25,9.97-9.99,11.26Z"/>
            <path class="cls-28" d="m403.65,284.63l-11.73-15.87v-44.57h.48s8.21-1.94,8.21-1.94c4.35,8.21,5.84,19.18,6.02,29.61v3.6c-.17,15.62-2.98,29.16-2.98,29.16Z"/>
            <path class="cls-24" d="m406.62,255.47v-3.6c.01,1.21.01,2.41,0,3.6Z"/>
          </g>
          <path class="cls-8" d="m358.06,267.8h34.57s12.61,17.06,12.61,17.06l-.8.52c-7.35,4.84-17.96,7.61-29.09,7.61-11.15,0-21.76-2.77-29.09-7.61l-.8-.52,12.61-17.06Zm33.15,1.94h-31.74l-10.84,14.67c6.86,4.23,16.53,6.65,26.71,6.65,10.17,0,19.83-2.41,26.71-6.65l-10.84-14.67Z"/>
        </g>
        <polygon class="cls-23" points="340.43 278.73 323.24 278.73 323.24 284.63 341.45 284.63 340.43 278.73"/>
        <polygon class="cls-23" points="409.5 278.73 426.69 278.73 426.69 284.63 408.48 284.63 409.5 278.73"/>
      </g>
      <path class="cls-8" d="m403.89,211.14c-3.46-5.96-11.2-12.54-28.55-13.6-17.35,1.07-25.1,7.64-28.55,13.59-3.08,5.3-2.75,10.1-2.75,10.1v32.71c0-11.04,1.38-22.92,6.03-31.68,0,0,.71-.93,2.1-2.25l6.09,4.8v43.96h34.13s0-43.51,0-43.51l6.36-5.01c1.23,1.2,1.85,2.01,1.85,2.01,4.35,8.21,5.84,19.18,6.02,29.61v-30.64s.33-4.8-2.73-10.1Zm-14.48,12.09h-27.58l-6.98-5.5c3.24-2.48,8.15-5.3,14.76-6.64l11.06-.08c7.02,1.34,12.14,4.36,15.44,6.94l-6.7,5.28Z"/>
    </g>
  </g>
  <g>
    <rect class="cls-7" x="183.38" y="390.21" width="11.44" height="117.06"/>
    <rect class="cls-7" x="311.57" y="390.21" width="11.44" height="117.06"/>
    <rect class="cls-7" x="439.77" y="390.21" width="11.44" height="117.06"/>
  </g>
  <g>
    <path class="cls-13" d="m565.19,440c2,0,3.89-3.36,4.24-7.58.29-3.66-.71-6.62-2.29-7.45l.34-2.52c.12-.85.18-1.69.18-2.53v-.09c1-7.16-1.93-13.94-7.48-18.94-5.55-5-13.71-8.21-23.18-8.21h-14.92c-18.94,0-32.67,12.83-30.72,27.15v.1c.02.84.08,1.68.19,2.52l.32,2.35c-1.8.49-2.99,3.67-2.68,7.62.33,4.22,2.23,7.58,4.23,7.58.23,0,.43-.19.64-.28l3.97,29.18c-1.26.9-2.06,3.27-1.86,6.1.24,3.37,1.8,6.03,3.54,6.27l.86,6.35c-.29-.12-.53-.24-.84-.35-3.37-1.21-6.67-1.64-7.31-.96-.63.68,1.58,2.18,4.9,3.35,1.3.46,2.55.76,3.67.97l.42,3.11c.97,7.09,11.44,12.54,23.34,12.54h9.38c11.9,0,22.39-5.45,23.37-12.54l.45-3.27c.9-.2,1.84-.46,2.82-.8,3.32-1.17,5.53-2.67,4.9-3.35-.64-.68-3.92-.26-7.28.94l.85-6.13c1.58-.55,2.94-3,3.17-6.13.19-2.57-.46-4.77-1.52-5.83l4.03-29.28c.1.02.17.12.27.12Zm1.82-15.09s-.02,0-.03-.01l.29-2.09-.28,2.01s0,.07.01.1Zm-74.98-.18l-.26-1.92.26,1.92h0Z"/>
    <g>
      <g>
        <path class="cls-32" d="m478.22,428.1c.33,4.22,2.23,7.58,4.23,7.58s3.4-3.36,3.13-7.58c-.28-4.29-2.18-7.82-4.24-7.82s-3.46,3.53-3.12,7.82Z"/>
        <path class="cls-32" d="m485.19,470.68c.25,3.53,1.94,6.36,3.78,6.36s3.16-2.82,2.96-6.36c-.2-3.59-1.9-6.54-3.79-6.54s-3.2,2.95-2.95,6.54Z"/>
        <path class="cls-32" d="m558.45,428.1c-.34,4.22-2.23,7.58-4.24,7.58s-3.4-3.36-3.12-7.58c.28-4.29,2.19-7.82,4.25-7.82s3.45,3.53,3.11,7.82Z"/>
        <path class="cls-32" d="m551.43,470.68c-.26,3.53-1.95,6.36-3.78,6.36s-3.16-2.82-2.95-6.36c.21-3.59,1.91-6.54,3.79-6.54s3.2,2.95,2.94,6.54Z"/>
        <path class="cls-20" d="m556.29,418.49l-9.77,70.93c-.98,7.09-11.47,12.54-23.37,12.54h-9.38c-11.9,0-22.38-5.45-23.34-12.54l-9.64-70.93c1-12.15,13.69-22.23,30.42-22.23h14.7c16.73,0,29.4,10.08,30.38,22.23Z"/>
        <g>
          <g>
            <path class="cls-22" d="m526.03,388.36c18.94,0,32.64,12.83,30.67,27.15l-.41,2.98c-.98-12.15-13.65-22.23-30.38-22.23h-14.7c-16.73,0-29.42,10.08-30.42,22.23l-.4-2.98c-1.95-14.31,11.78-27.15,30.72-27.15h14.92Z"/>
            <path class="cls-10" d="m547.04,418.93s-.07.08-.11.12h0s.08-.09.11-.12Z"/>
            <path class="cls-32" d="m546.93,419.04h0c-9.86,10.57-45.86,10.57-55.67.01h0c.12-9.26,12.38-16.88,27.88-16.88s27.71,7.62,27.79,16.87Z"/>
            <path class="cls-10" d="m491.26,419.04h0s-.08-.07-.11-.11c.03.03.06.08.11.11Z"/>
          </g>
          <g>
            <path class="cls-12" d="m480.4,415.59c0,.84.06,1.68.18,2.53l.4,2.95c.02-.2.06-.39.08-.58l-.27-2.01-.39-2.89Z"/>
            <path class="cls-12" d="m556.29,418.49l-.28,2.01c.02.2.07.39.08.58l.4-2.95c.12-.85.18-1.69.18-2.53l-.39,2.89Z"/>
            <path class="cls-20" d="m511.15,391.26h14.84c17.68,0,30.81,11.22,30.7,24.33v-.09c1.99-14.31-11.72-27.15-30.66-27.15h-14.92c-18.94,0-32.67,12.83-30.72,27.15v.09c-.08-13.12,13.08-24.33,30.76-24.33Z"/>
          </g>
        </g>
        <path class="cls-30" d="m549.79,485.35c-3.27,1.15-6.45,1.57-7.14.93-.7-.64,1.39-2.13,4.72-3.32,3.37-1.21,6.67-1.64,7.31-.96.63.68-1.58,2.18-4.9,3.35Z"/>
        <path class="cls-30" d="m486.34,485.35c3.27,1.15,6.45,1.57,7.14.93.7-.64-1.39-2.13-4.72-3.32-3.37-1.21-6.67-1.64-7.31-.96-.63.68,1.58,2.18,4.9,3.35Z"/>
      </g>
      <path class="cls-29" d="m530.97,431.83h-26.53c-9.55,0-15.36,8.42-13.29,17.45l4.46,34.07h45.87l2.77-34.07c2.07-9.03-3.73-17.45-13.28-17.45Z"/>
      <g>
        <rect class="cls-21" x="521.42" y="443.68" width="14.81" height="13.44" rx=".35" ry=".35" transform="translate(1057.66 900.8) rotate(180)"/>
        <path class="cls-11" d="m536.23,451.97h0c1.87,0,3.39,1.2,3.39,2.67v5.86c0,1.48-1.52,2.67-3.39,2.67h0c-1.88,0-3.39-1.2-3.39-2.67v-5.86c0-1.48,1.52-2.67,3.39-2.67Z"/>
        <path class="cls-11" d="m522.45,451.97h0c1.87,0,3.39,1.2,3.39,2.67v5.86c0,1.48-1.52,2.67-3.39,2.67h0c-1.87,0-3.39-1.2-3.39-2.67v-5.86c0-1.48,1.52-2.67,3.39-2.67Z"/>
        <rect class="cls-1" x="522.45" y="451.16" width="12.96" height="13.44" rx=".35" ry=".35" transform="translate(1057.86 915.76) rotate(180)"/>
        <path class="cls-20" d="m537.43,453.42c-1.02,0-1.85-.65-1.85-1.46v-4.97c0-1.52-1.57-2.75-3.5-2.75h-6.31c-1.93,0-3.5,1.24-3.5,2.75v4.97c0,.8-.83,1.46-1.85,1.46s-1.85-.65-1.85-1.46v-4.97c0-3.12,3.23-5.66,7.2-5.66h6.31c3.96,0,7.2,2.54,7.2,5.66v4.97c0,.8-.83,1.46-1.85,1.46Z"/>
      </g>
      <g>
        <rect class="cls-21" x="495.98" y="443.68" width="14.81" height="13.44" rx=".35" ry=".35" transform="translate(1006.77 900.8) rotate(180)"/>
        <path class="cls-11" d="m510.79,451.97h0c1.87,0,3.39,1.2,3.39,2.67v5.86c0,1.48-1.52,2.67-3.39,2.67h0c-1.87,0-3.39-1.2-3.39-2.67v-5.86c0-1.48,1.52-2.67,3.39-2.67Z"/>
        <path class="cls-11" d="m497.01,451.97h0c1.87,0,3.39,1.2,3.39,2.67v5.86c0,1.48-1.52,2.67-3.39,2.67h0c-1.87,0-3.39-1.2-3.39-2.67v-5.86c0-1.48,1.52-2.67,3.39-2.67Z"/>
        <rect class="cls-1" x="497.01" y="451.16" width="12.96" height="13.44" rx=".35" ry=".35" transform="translate(1006.98 915.76) rotate(180)"/>
        <path class="cls-20" d="m512,453.42c-1.02,0-1.85-.65-1.85-1.46v-4.97c0-1.52-1.57-2.75-3.51-2.75h-6.3c-1.94,0-3.51,1.24-3.51,2.75v4.97c0,.8-.83,1.46-1.85,1.46s-1.85-.65-1.85-1.46v-4.97c0-3.12,3.23-5.66,7.21-5.66h6.3c3.97,0,7.21,2.54,7.21,5.66v4.97c0,.8-.83,1.46-1.85,1.46Z"/>
      </g>
      <g>
        <path class="cls-32" d="m499.39,462.71l-3.78,20.34s8.24,6.62,22.93,7.33c14.7-.71,22.93-7.33,22.93-7.33l-3.79-20.34h-38.3Z"/>
        <path class="cls-20" d="m518.65,491.69c-15.37-.73-23.88-7.44-24.24-7.72l-.58-.46,4.12-22.11h41.19l4.11,22.11-.58.46c-.35.29-8.85,6.99-24.02,7.72Zm-21.26-9.14c2.08,1.42,9.57,5.95,21.26,6.51,11.51-.56,18.98-5.09,21.04-6.51l-3.44-18.53h-35.43l-3.44,18.53Z"/>
      </g>
    </g>
  </g>
  <g>
    <path class="cls-13" d="m84.25,433.36c1.92,0,3.74-3.23,4.07-7.29.28-3.52-.69-6.37-2.2-7.17l.33-2.43c.11-.82.17-1.63.18-2.43l-.38,2.78-.27,1.93s0,.06.01.09c0,0-.02,0-.02-.01l.28-2.01.38-2.78h0s.01-.09.01-.09c1.9-13.76-11.28-26.1-29.49-26.1h-14.34c-18.21,0-31.41,12.34-29.54,26.1v.09s.01,0,.01,0l.37,2.78.25,1.85h0s-.25-1.85-.25-1.85l-.37-2.78c0,.8.06,1.61.17,2.43l.3,2.27c-1.73.48-2.87,3.53-2.57,7.33.32,4.05,2.14,7.29,4.06,7.29.22,0,.41-.18.62-.27l3.81,28.05c-1.22.86-1.98,3.14-1.79,5.87.23,3.24,1.73,5.8,3.4,6.02l.83,6.11c-.28-.11-.51-.23-.81-.34-3.24-1.16-6.41-1.58-7.03-.92-.61.65,1.52,2.1,4.71,3.22,1.25.44,2.45.73,3.53.93l.41,2.98c.93,6.82,11,12.06,22.44,12.06h9.02c11.44,0,21.52-5.24,22.47-12.06l.43-3.14c.86-.2,1.77-.44,2.71-.77,3.19-1.12,5.32-2.57,4.71-3.22-.61-.66-3.76-.25-7,.91l.81-5.9c1.52-.53,2.83-2.89,3.05-5.89.18-2.47-.44-4.59-1.46-5.61l3.88-28.15c.09.02.16.11.26.11Z"/>
    <g>
      <g>
        <path class="cls-32" d="m3.27,423.43c.32,4.05,2.14,7.29,4.06,7.29s3.28-3.23,3.01-7.29c-.27-4.12-2.1-7.51-4.08-7.51s-3.32,3.39-3,7.51Z"/>
        <path class="cls-32" d="m9.97,464.37c.24,3.4,1.87,6.11,3.63,6.11s3.04-2.71,2.84-6.11c-.2-3.45-1.83-6.28-3.64-6.28s-3.08,2.84-2.83,6.28Z"/>
        <path class="cls-32" d="m80.4,423.43c-.33,4.05-2.15,7.29-4.07,7.29s-3.27-3.23-3-7.29c.27-4.12,2.1-7.51,4.09-7.51s3.32,3.39,2.99,7.51Z"/>
        <path class="cls-32" d="m73.65,464.37c-.25,3.4-1.87,6.11-3.64,6.11s-3.04-2.71-2.84-6.11c.2-3.45,1.83-6.28,3.65-6.28s3.08,2.84,2.83,6.28Z"/>
        <path class="cls-18" d="m78.33,414.19l-9.4,68.19c-.94,6.82-11.03,12.06-22.47,12.06h-9.02c-11.44,0-21.51-5.24-22.44-12.06l-9.27-68.19c.96-11.68,13.16-21.37,29.25-21.37h14.13c16.09,0,28.27,9.69,29.21,21.37Z"/>
        <g>
          <g>
            <path class="cls-2" d="m49.23,385.22c18.21,0,31.39,12.34,29.49,26.1l-.39,2.87c-.94-11.68-13.12-21.37-29.21-21.37h-14.13c-16.09,0-28.29,9.69-29.25,21.37l-.38-2.87c-1.87-13.76,11.33-26.1,29.54-26.1h14.34Z"/>
            <path class="cls-31" d="m69.43,414.62s-.06.08-.11.12h0s.08-.09.11-.12Z"/>
            <path class="cls-32" d="m69.33,414.73h0c-9.48,10.16-44.09,10.16-53.52.01h0c.12-8.9,11.9-16.23,26.8-16.23s26.64,7.33,26.72,16.21Z"/>
            <path class="cls-31" d="m15.8,414.73h0s-.08-.06-.11-.11c.03.03.06.08.11.11Z"/>
          </g>
          <g>
            <path class="cls-3" d="m5.36,411.41c0,.8.06,1.61.17,2.43l.38,2.84c.02-.19.06-.37.08-.56l-.26-1.93-.37-2.78Z"/>
            <path class="cls-3" d="m78.33,414.19l-.27,1.93c.02.19.06.37.08.56l.39-2.84c.11-.82.17-1.63.18-2.43l-.38,2.78Z"/>
            <path class="cls-18" d="m34.92,388.01h14.27c16.99,0,29.62,10.78,29.52,23.4v-.09c1.91-13.76-11.27-26.1-29.48-26.1h-14.34c-18.21,0-31.41,12.34-29.54,26.1v.09c-.07-12.61,12.58-23.4,29.57-23.4Z"/>
          </g>
        </g>
        <path class="cls-18" d="m72.08,478.47c-3.15,1.11-6.2,1.51-6.86.89-.67-.62,1.34-2.05,4.54-3.2,3.24-1.16,6.41-1.58,7.03-.92.61.65-1.52,2.1-4.71,3.22Z"/>
        <path class="cls-18" d="m11.07,478.47c3.15,1.11,6.2,1.51,6.86.89.67-.62-1.34-2.05-4.54-3.2-3.24-1.16-6.41-1.58-7.03-.92-.61.65,1.52,2.1,4.71,3.22Z"/>
      </g>
      <path class="cls-19" d="m53.98,427.02h-25.51c-9.18,0-14.77,8.1-12.77,16.78l4.29,32.76h44.1l2.67-32.76c1.99-8.68-3.59-16.78-12.77-16.78Z"/>
      <g>
        <rect class="cls-27" x="44.8" y="438.41" width="14.24" height="12.92" rx=".33" ry=".33" transform="translate(103.84 889.75) rotate(180)"/>
        <path class="cls-17" d="m59.04,446.38h0c1.8,0,3.26,1.15,3.26,2.57v5.63c0,1.42-1.46,2.57-3.26,2.57h0c-1.8,0-3.26-1.15-3.26-2.57v-5.63c0-1.42,1.46-2.57,3.26-2.57Z"/>
        <path class="cls-17" d="m45.79,446.38h0c1.8,0,3.26,1.15,3.26,2.57v5.63c0,1.42-1.46,2.57-3.26,2.57h0c-1.8,0-3.26-1.15-3.26-2.57v-5.63c0-1.42,1.46-2.57,3.26-2.57Z"/>
        <rect class="cls-5" x="45.79" y="445.6" width="12.46" height="12.92" rx=".33" ry=".33" transform="translate(104.04 904.13) rotate(180)"/>
        <path class="cls-26" d="m60.19,447.79c-.98,0-1.78-.63-1.78-1.4v-4.78c0-1.46-1.51-2.64-3.36-2.64h-6.06c-1.86,0-3.36,1.19-3.36,2.64v4.78c0,.77-.8,1.4-1.78,1.4s-1.78-.63-1.78-1.4v-4.78c0-3,3.11-5.45,6.93-5.45h6.06c3.82,0,6.92,2.45,6.92,5.45v4.78c0,.77-.8,1.4-1.78,1.4Z"/>
      </g>
      <g>
        <rect class="cls-27" x="20.34" y="438.41" width="14.24" height="12.92" rx=".33" ry=".33" transform="translate(54.92 889.75) rotate(180)"/>
        <path class="cls-17" d="m34.58,446.38h0c1.8,0,3.26,1.15,3.26,2.57v5.63c0,1.42-1.46,2.57-3.26,2.57h0c-1.8,0-3.26-1.15-3.26-2.57v-5.63c0-1.42,1.46-2.57,3.26-2.57Z"/>
        <path class="cls-17" d="m21.33,446.38h0c1.8,0,3.26,1.15,3.26,2.57v5.63c0,1.42-1.46,2.57-3.26,2.57h0c-1.8,0-3.26-1.15-3.26-2.57v-5.63c0-1.42,1.46-2.57,3.26-2.57Z"/>
        <rect class="cls-5" x="21.33" y="445.6" width="12.46" height="12.92" rx=".33" ry=".33" transform="translate(55.12 904.13) rotate(180)"/>
        <path class="cls-26" d="m35.73,447.79c-.98,0-1.78-.63-1.78-1.4v-4.78c0-1.46-1.51-2.64-3.36-2.64h-6.06c-1.85,0-3.36,1.19-3.36,2.64v4.78c0,.77-.8,1.4-1.78,1.4s-1.78-.63-1.78-1.4v-4.78c0-3,3.11-5.45,6.92-5.45h6.06c3.82,0,6.92,2.45,6.92,5.45v4.78c0,.77-.8,1.4-1.78,1.4Z"/>
      </g>
      <g>
        <path class="cls-32" d="m23.62,456.71l-3.64,19.55s7.92,6.37,22.05,7.05c14.13-.68,22.05-7.05,22.05-7.05l-3.64-19.55H23.62Z"/>
        <path class="cls-9" d="m42.13,484.57c-14.78-.71-22.96-7.14-23.3-7.42l-.56-.45,3.96-21.26h39.59l3.96,21.26-.56.45c-.34.27-8.52,6.72-23.1,7.42Zm-20.44-8.79c2,1.37,9.2,5.72,20.44,6.27,11.07-.55,18.24-4.9,20.24-6.27l-3.32-17.81H25.01l-3.32,17.81Z"/>
      </g>
    </g>
  </g>
  <g>
    <path class="cls-13" d="m172.12,473.48c-.7-.88-3.81-.33-6.92,1.22l.16-7.77c1.43-.68,2.44-3.67,2.31-7.42-.11-3.01-.93-5.55-2.01-6.77l.63-30.14c.08.02.15.11.23.11,1.65,0,2.85-3.11,2.7-6.91-.13-3.22-1.21-5.77-2.53-6.48l.04-2.13c.01-.71-.01-1.41-.08-2.1l-.04,2.4.04-2.4h0s0-.07,0-.07c0-.35-.09-.67-.1-1.02l.06-2.65c-1.79-9.82-11.83-17.46-24.05-17.46h-10.73c-12.22,0-22.26,7.63-24.06,17.46l.05,2.68c-.01.33-.11.65-.1.98v.08s0,0,0,0l.04,2.4-.04-2.4c-.07.69-.1,1.39-.08,2.1l.04,1.99c-1.46.42-2.7,3.15-2.85,6.62-.16,3.8,1.05,6.91,2.69,6.91.19,0,.37-.17.55-.26l.61,29.99c-1.24,1.03-2.22,3.75-2.35,7.06-.15,4.05,1.02,7.3,2.64,7.59l.16,8.06c-.27-.15-.49-.31-.78-.45-3.12-1.56-6.25-2.12-6.96-1.23-.7.88,1.24,2.83,4.33,4.37,1.22.61,2.41,1.01,3.48,1.28l.08,4.18c.2,9.93,10.53,17.95,22.95,17.95h9.79c12.42,0,22.75-8.02,22.96-17.95l.09-4.4c.86-.27,1.75-.61,2.67-1.06,3.09-1.54,5.04-3.49,4.34-4.37Zm-5.53-64.19s-.01,0-.02,0v-.07s.01.05.02.08Z"/>
    <g>
      <path class="cls-32" d="m94.75,412.93c-.16,3.8,1.05,6.91,2.69,6.91s3.08-3.11,3.21-6.91c.13-3.76-1.08-6.79-2.7-6.79s-3.05,3.02-3.21,6.79Z"/>
      <path class="cls-32" d="m96.27,456.63c-.16,4.24,1.12,7.7,2.86,7.7s3.25-3.47,3.38-7.7c.12-4.19-1.16-7.56-2.86-7.56s-3.22,3.37-3.37,7.56Z"/>
      <path class="cls-32" d="m159.15,412.93c.15,3.8-1.05,6.91-2.7,6.91s-3.08-3.11-3.21-6.91c-.12-3.76,1.09-6.79,2.7-6.79s3.05,3.02,3.2,6.79Z"/>
      <path class="cls-32" d="m157.6,456.63c.16,4.24-1.13,7.7-2.87,7.7s-3.25-3.47-3.37-7.7c-.12-4.19,1.16-7.56,2.87-7.56s3.21,3.37,3.37,7.56Z"/>
      <path class="cls-34" d="m156.54,404.63l-1.59,75.79c-.21,9.93-10.54,17.95-22.97,17.95h-9.79c-12.42,0-22.75-8.02-22.95-17.95l-1.55-75.79c1.79-9.82,11.84-17.46,24.06-17.46h10.73c12.22,0,22.26,7.63,24.05,17.46Z"/>
      <g>
        <path class="cls-34" d="m121.75,387.17h10.73c12.01,0,21.9,7.38,23.93,16.96l.12-5.65c-1.79-9.82-11.83-17.46-24.05-17.46h-10.73c-12.22,0-22.26,7.63-24.06,17.46l.12,5.66c2.03-9.59,11.93-16.97,23.94-16.97Z"/>
        <g>
          <g>
            <path class="cls-14" d="m132.45,381.48c13.52,0,24.37,9.37,24.13,20.66l-.05,2.48c-1.79-9.82-11.83-17.46-24.05-17.46h-10.73c-12.22,0-22.26,7.63-24.06,17.46l-.04-2.48c-.23-11.3,10.63-20.66,24.15-20.66h10.65Z"/>
            <path class="cls-31" d="m149.36,405s-.05.07-.08.1h0s.06-.07.08-.1Z"/>
            <path class="cls-32" d="m149.28,405.1h0c-7.21,9.19-36.25,9.19-43.46,0h0c.67-7.58,10.23-13.51,21.73-13.51s21.05,5.93,21.73,13.5Z"/>
            <path class="cls-31" d="m105.82,405.1h0s-.06-.06-.08-.09c.02.03.05.07.08.09Z"/>
          </g>
          <g>
            <path class="cls-3" d="m97.65,402.22c-.07.69-.1,1.39-.09,2.1l.05,2.49c.03-.17.08-.33.12-.5l-.04-1.69-.04-2.4Z"/>
            <path class="cls-3" d="m156.54,404.63l-.04,1.69c.04.17.09.33.12.5l.05-2.49c.01-.71-.02-1.41-.08-2.1l-.04,2.4Z"/>
            <path class="cls-34" d="m121.78,383.54h10.68c12.72,0,23.08,8.28,24.12,18.68v-.08c.24-11.3-10.61-20.66-24.13-20.66h-10.65c-13.52,0-24.38,9.37-24.15,20.66v.08c1.05-10.4,11.41-18.68,24.13-18.68Z"/>
          </g>
        </g>
        <path class="cls-32" d="m149.28,405.1s.06-.07.08-.1l1.69,59.52s-.05-.07-.08-.1h0c-7.92-10.69-8.67-49.86-1.69-59.32Z"/>
        <path class="cls-32" d="m105.82,405.1c6.98,9.46,6.26,48.63-1.66,59.31,0-.18,0-.37,0-.55l-.05-.53,1.62-58.33s.05.07.08.1Z"/>
        <path class="cls-32" d="m150.97,464.41h0c-.16,9.01-10.48,16.36-23.39,16.36s-23.24-7.35-23.41-16.35c8.1-10.42,38.68-10.42,46.8-.01Z"/>
        <path class="cls-6" d="m105.97,470.57c3.53,5.97,11.83,10.2,21.61,10.2s18.07-4.23,21.59-10.2c-9.57-7.88-33.64-7.88-43.2,0Z"/>
      </g>
      <path class="cls-14" d="m154.95,474.28c-.21,9.93-10.54,17.95-22.97,17.95h-9.79c-12.42,0-22.75-8.02-22.95-17.95v-.34h-.13l.13,6.48c.2,9.93,10.53,17.95,22.95,17.95h9.79c12.42,0,22.76-8.02,22.97-17.95l.14-6.48h-.13v.34Z"/>
      <path class="cls-14" d="m157.71,474.96c-3.08,1.53-6.16,2.08-6.9,1.23-.74-.85,1.16-2.81,4.28-4.36,3.13-1.56,6.25-2.12,6.96-1.23.7.88-1.25,2.83-4.34,4.36Z"/>
      <path class="cls-14" d="m95.67,474.96c3.08,1.53,6.16,2.08,6.89,1.23.75-.85-1.16-2.81-4.27-4.36-3.12-1.56-6.25-2.12-6.96-1.23-.7.88,1.24,2.83,4.33,4.36Z"/>
    </g>
  </g>
  <g>
    <path class="cls-13" d="m307.28,474.63c-.96-.83-5.2-.31-9.45,1.15l.22-7.36c1.95-.64,3.34-3.48,3.15-7.03-.15-2.85-1.27-5.25-2.74-6.41l.86-28.54c.11.01.21.1.32.1,2.25,0,3.89-2.94,3.69-6.54-.18-3.04-1.65-5.46-3.45-6.13l.05-2.02c.02-.67-.02-1.33-.11-1.98v-.07c.01-.33-.12-.64-.14-.97l.08-2.51c-2.44-9.3-16.15-16.54-32.83-16.54h-14.65c-16.68,0-30.39,7.23-32.84,16.54l.08,2.53c-.02.32-.15.62-.14.94v.07s0,0,0,0l.06,2.28-.06-2.28c-.1.65-.14,1.32-.12,1.99l.05,1.88c-1.99.4-3.69,2.98-3.89,6.27-.21,3.6,1.43,6.54,3.68,6.54.26,0,.5-.16.75-.24l.83,28.4c-1.7.97-3.03,3.55-3.2,6.69-.21,3.83,1.4,6.92,3.61,7.19l.23,7.64c-.37-.14-.67-.29-1.06-.43-4.27-1.48-8.53-2-9.5-1.17-.96.83,1.7,2.68,5.92,4.14,1.67.58,3.28.96,4.75,1.21l.12,3.96c.28,9.4,14.38,17,31.34,17h13.36c16.96,0,31.06-7.6,31.35-17l.13-4.16c1.17-.26,2.39-.57,3.65-1.01,4.22-1.46,6.88-3.31,5.92-4.14Zm-7.58-60.81v-.07s.02.05.03.08c0,0-.02,0-.03,0Z"/>
    <g>
      <path class="cls-32" d="m206.45,415.01c-.21,3.6,1.43,6.54,3.68,6.54s4.21-2.94,4.39-6.54c.17-3.56-1.47-6.43-3.68-6.43s-4.17,2.86-4.38,6.43Z"/>
      <path class="cls-32" d="m208.52,456.4c-.22,4.01,1.53,7.29,3.9,7.29s4.44-3.28,4.61-7.29c.17-3.97-1.58-7.16-3.91-7.16s-4.39,3.19-4.61,7.16Z"/>
      <path class="cls-32" d="m294.36,415.01c.21,3.6-1.44,6.54-3.69,6.54s-4.21-2.94-4.38-6.54c-.17-3.56,1.48-6.43,3.69-6.43s4.17,2.86,4.38,6.43Z"/>
      <path class="cls-32" d="m292.24,456.4c.21,4.01-1.54,7.29-3.91,7.29s-4.43-3.28-4.6-7.29c-.17-3.97,1.59-7.16,3.92-7.16s4.39,3.19,4.6,7.16Z"/>
      <path class="cls-25" d="m290.79,407.15l-2.17,71.79c-.29,9.4-14.39,17-31.35,17h-13.36c-16.96,0-31.06-7.6-31.34-17l-2.11-71.79c2.45-9.3,16.17-16.54,32.84-16.54h14.65c16.68,0,30.39,7.23,32.83,16.54Z"/>
      <g>
        <path class="cls-25" d="m243.31,390.61h14.65c16.39,0,29.89,6.99,32.67,16.06l.16-5.35c-2.44-9.3-16.15-16.54-32.83-16.54h-14.65c-16.68,0-30.39,7.23-32.84,16.54l.16,5.36c2.78-9.08,16.29-16.08,32.69-16.08Z"/>
        <g>
          <g>
            <path class="cls-33" d="m257.91,385.23c18.46,0,33.27,8.87,32.95,19.57l-.06,2.35c-2.44-9.3-16.15-16.54-32.83-16.54h-14.65c-16.68,0-30.39,7.23-32.84,16.54l-.06-2.35c-.32-10.7,14.51-19.57,32.96-19.57h14.54Z"/>
            <path class="cls-16" d="m280.99,407.5s-.06.06-.11.1h0s.08-.07.11-.1Z"/>
            <path class="cls-32" d="m280.88,407.59h0c-9.84,8.7-49.48,8.7-59.32,0h0c.92-7.17,13.96-12.79,29.66-12.79s28.74,5.62,29.66,12.78Z"/>
            <path class="cls-16" d="m221.56,407.59h0s-.08-.05-.11-.09c.03.03.06.06.11.09Z"/>
          </g>
          <g>
            <path class="cls-15" d="m210.41,404.87c-.09.65-.14,1.32-.12,1.99l.06,2.36c.04-.16.11-.31.16-.47l-.05-1.6-.06-2.28Z"/>
            <path class="cls-15" d="m290.79,407.15l-.05,1.6c.05.16.12.31.16.47l.06-2.36c.02-.67-.02-1.33-.12-1.99l-.06,2.28Z"/>
            <path class="cls-25" d="m243.35,387.18h14.58c17.37,0,31.51,7.85,32.93,17.69v-.07c.33-10.7-14.49-19.57-32.94-19.57h-14.54c-18.46,0-33.28,8.87-32.96,19.57v.07c1.43-9.85,15.57-17.69,32.94-17.69Z"/>
          </g>
        </g>
        <path class="cls-32" d="m280.88,407.6s.08-.06.11-.1l2.31,56.37s-.07-.06-.11-.09h0c-10.81-10.12-11.83-47.23-2.31-56.18Z"/>
        <path class="cls-32" d="m221.56,407.6c9.54,8.96,8.55,46.06-2.26,56.17,0-.17,0-.35,0-.52l-.07-.5,2.21-55.24s.06.06.11.1Z"/>
        <path class="cls-32" d="m283.19,463.77h0c-.22,8.54-14.3,15.49-31.93,15.49s-31.73-6.96-31.96-15.48c11.05-9.87,52.8-9.87,63.89-.01Z"/>
        <path class="cls-4" d="m221.76,469.61c4.81,5.66,16.15,9.66,29.49,9.66s24.67-4,29.47-9.66c-13.06-7.46-45.92-7.46-58.97,0Z"/>
      </g>
      <path class="cls-33" d="m288.62,473.12c-.29,9.4-14.39,17-31.35,17h-13.36c-16.96,0-31.06-7.6-31.34-17v-.32h-.18l.18,6.14c.28,9.4,14.38,17,31.34,17h13.36c16.96,0,31.06-7.6,31.35-17l.19-6.14h-.18v.32Z"/>
      <path class="cls-33" d="m292.4,473.76c-4.2,1.45-8.41,1.97-9.41,1.17-1.02-.81,1.59-2.66,5.84-4.13,4.27-1.48,8.53-2,9.5-1.17.96.83-1.7,2.68-5.92,4.13Z"/>
      <path class="cls-33" d="m207.71,473.76c4.2,1.45,8.4,1.97,9.41,1.17,1.02-.81-1.58-2.66-5.83-4.13-4.27-1.48-8.53-2-9.5-1.17-.96.83,1.7,2.68,5.92,4.13Z"/>
    </g>
  </g>
  <g>
    <path class="cls-13" d="m424.29,460.67v-58.09s.59-8.47-7.26-15.18c-4.94-4.2-13.18-7.73-26.99-8.05-.66-.01-1.35-.02-2.05-.02h-2.39c-.7,0-1.39,0-2.06.02-13.81.32-22.05,3.85-26.98,8.05-7.85,6.71-7.26,15.18-7.26,15.18v58.09h-14.6v5.9h14.61s4.44,28.05,4.44,28.05c0,5.42,4.25,9.97,10,11.26,1.06.24,2.18.37,3.33.37h39.43c1.14,0,2.25-.13,3.32-.37h.01c5.75-1.29,9.99-5.84,9.99-11.26l4.45-28.05h13.86s0-5.9,0-5.9h-13.85Z"/>
    <g>
      <g>
        <g>
          <g>
            <path class="cls-8" d="m347.26,467.31v-32.86c0,16.26,2.99,30.69,2.99,30.69,6.87,4.52,17.01,7.38,28.31,7.38s21.43-2.86,28.31-7.38c0,0,2.8-13.55,2.98-29.16v31.33l-4.44,28.81c0,3.25-1.45,6.17-3.79,8.32h-.01c-1.07.24-2.18.37-3.32.37h-39.43c-1.16,0-2.28-.13-3.34-.37-2.35-2.15-3.79-5.08-3.79-8.32l-4.46-28.81Z"/>
            <path class="cls-23" d="m341.06,401.14s-.59-8.47,7.26-15.18h.01s1.68,5.67,1.68,5.67c-3.08,5.3-2.75,10.1-2.75,10.1v65.57l4.46,28.81c0,3.25,1.44,6.17,3.79,8.32-5.76-1.29-10-5.84-10-11.26l-4.44-28.1v-63.95Z"/>
            <path class="cls-28" d="m350.25,465.14s-2.99-14.44-2.99-30.69c0-11.04,1.38-22.92,6.03-31.68l8.19,1.94v44.57h.49l-11.73,15.87Z"/>
            <path class="cls-28" d="m378.56,472.52c-11.3,0-21.44-2.86-28.31-7.38l11.73-15.87h33.15l11.73,15.87c-6.88,4.52-17.01,7.38-28.31,7.38Z"/>
            <path class="cls-28" d="m361.49,404.7l-8.19-1.94s6.42-8.52,19.53-11.17l11.06-.08c13.38,2.56,19.94,11.25,19.94,11.25l-8.21,1.94h-.48s-33.65,0-33.65,0Z"/>
            <path class="cls-23" d="m348.32,385.96c4.93-4.2,13.18-7.73,26.99-8.05,1.12.02,2.2.07,3.25.13-17.35,1.07-25.1,7.64-28.55,13.59l-1.68-5.66h-.01Z"/>
            <path class="cls-24" d="m378.56,378.03c-1.05-.06-2.13-.11-3.25-.13.67,0,1.36-.02,2.06-.02h2.39c.7,0,1.39,0,2.05.02-1.12.02-2.2.07-3.25.12Z"/>
            <path class="cls-23" d="m407.11,391.64c-3.46-5.96-11.2-12.54-28.55-13.6,1.05-.06,2.13-.11,3.25-.12,13.81.32,22.05,3.85,26.99,8.05h-.01s-1.67,5.68-1.67,5.68Z"/>
            <path class="cls-23" d="m401.61,504.44c2.34-2.15,3.79-5.08,3.79-8.32l4.44-28.81v-31.33c.01-1.19.01-2.39,0-3.6v-30.64s.33-4.8-2.73-10.1l1.67-5.67h.01c7.85,6.7,7.26,15.17,7.26,15.17v63.95l-4.46,28.1c0,5.42-4.25,9.97-9.99,11.26Z"/>
            <path class="cls-28" d="m406.87,465.14l-11.73-15.87v-44.57h.48s8.21-1.94,8.21-1.94c4.35,8.21,5.84,19.18,6.02,29.61v3.6c-.17,15.62-2.98,29.16-2.98,29.16Z"/>
            <path class="cls-24" d="m409.84,435.97v-3.6c.01,1.21.01,2.41,0,3.6Z"/>
          </g>
          <path class="cls-8" d="m361.28,448.3h34.57s12.61,17.06,12.61,17.06l-.8.52c-7.35,4.84-17.96,7.61-29.09,7.61-11.15,0-21.76-2.77-29.09-7.61l-.8-.52,12.61-17.06Zm33.15,1.94h-31.74l-10.84,14.67c6.86,4.23,16.53,6.65,26.71,6.65,10.17,0,19.83-2.41,26.71-6.65l-10.84-14.67Z"/>
        </g>
        <polygon class="cls-23" points="343.65 459.23 326.46 459.23 326.46 465.13 344.67 465.13 343.65 459.23"/>
        <polygon class="cls-23" points="412.71 459.23 429.91 459.23 429.91 465.13 411.7 465.13 412.71 459.23"/>
      </g>
      <path class="cls-8" d="m407.11,391.64c-3.46-5.96-11.2-12.54-28.55-13.6-17.35,1.07-25.1,7.64-28.55,13.59-3.08,5.3-2.75,10.1-2.75,10.1v32.71c0-11.04,1.38-22.92,6.03-31.68,0,0,.71-.93,2.1-2.25l6.09,4.8v43.96h34.13s0-43.51,0-43.51l6.36-5.01c1.23,1.2,1.85,2.01,1.85,2.01,4.35,8.21,5.84,19.18,6.02,29.61v-30.64s.33-4.8-2.73-10.1Zm-14.48,12.09h-27.58l-6.98-5.5c3.24-2.48,8.15-5.3,14.76-6.64l11.06-.08c7.02,1.34,12.14,4.36,15.44,6.94l-6.7,5.28Z"/>
    </g>
  </g>
  <g>
    <rect class="cls-7" x="182.38" y="588.21" width="11.44" height="117.06"/>
    <rect class="cls-7" x="310.57" y="588.21" width="11.44" height="117.06"/>
    <rect class="cls-7" x="438.77" y="588.21" width="11.44" height="117.06"/>
  </g>
  <g>
    <path class="cls-13" d="m564.19,638c2,0,3.89-3.36,4.24-7.58.29-3.66-.71-6.62-2.29-7.45l.34-2.52c.12-.85.18-1.69.18-2.53v-.09c1-7.16-1.93-13.94-7.48-18.94-5.55-5-13.71-8.21-23.18-8.21h-14.92c-18.94,0-32.67,12.83-30.72,27.15v.1c.02.84.08,1.68.19,2.52l.32,2.35c-1.8.49-2.99,3.67-2.68,7.62.33,4.22,2.23,7.58,4.23,7.58.23,0,.43-.19.64-.28l3.97,29.18c-1.26.9-2.06,3.27-1.86,6.1.24,3.37,1.8,6.03,3.54,6.27l.86,6.35c-.29-.12-.53-.24-.84-.35-3.37-1.21-6.67-1.64-7.31-.96-.63.68,1.58,2.18,4.9,3.35,1.3.46,2.55.76,3.67.97l.42,3.11c.97,7.09,11.44,12.54,23.34,12.54h9.38c11.9,0,22.39-5.45,23.37-12.54l.45-3.27c.9-.2,1.84-.46,2.82-.8,3.32-1.17,5.53-2.67,4.9-3.35-.64-.68-3.92-.26-7.28.94l.85-6.13c1.58-.55,2.94-3,3.17-6.13.19-2.57-.46-4.77-1.52-5.83l4.03-29.28c.1.02.17.12.27.12Zm1.82-15.09s-.02,0-.03-.01l.29-2.09-.28,2.01s0,.07.01.1Zm-74.98-.18l-.26-1.92.26,1.92h0Z"/>
    <g>
      <g>
        <path class="cls-32" d="m477.22,626.1c.33,4.22,2.23,7.58,4.23,7.58s3.4-3.36,3.13-7.58c-.28-4.29-2.18-7.82-4.24-7.82s-3.46,3.53-3.12,7.82Z"/>
        <path class="cls-32" d="m484.19,668.68c.25,3.53,1.94,6.36,3.78,6.36s3.16-2.82,2.96-6.36c-.2-3.59-1.9-6.54-3.79-6.54s-3.2,2.95-2.95,6.54Z"/>
        <path class="cls-32" d="m557.45,626.1c-.34,4.22-2.23,7.58-4.24,7.58s-3.4-3.36-3.12-7.58c.28-4.29,2.19-7.82,4.25-7.82s3.45,3.53,3.11,7.82Z"/>
        <path class="cls-32" d="m550.43,668.68c-.26,3.53-1.95,6.36-3.78,6.36s-3.16-2.82-2.95-6.36c.21-3.59,1.91-6.54,3.79-6.54s3.2,2.95,2.94,6.54Z"/>
        <path class="cls-20" d="m555.29,616.49l-9.77,70.93c-.98,7.09-11.47,12.54-23.37,12.54h-9.38c-11.9,0-22.38-5.45-23.34-12.54l-9.64-70.93c1-12.15,13.69-22.23,30.42-22.23h14.7c16.73,0,29.4,10.08,30.38,22.23Z"/>
        <g>
          <g>
            <path class="cls-22" d="m525.03,586.36c18.94,0,32.64,12.83,30.67,27.15l-.41,2.98c-.98-12.15-13.65-22.23-30.38-22.23h-14.7c-16.73,0-29.42,10.08-30.42,22.23l-.4-2.98c-1.95-14.31,11.78-27.15,30.72-27.15h14.92Z"/>
            <path class="cls-10" d="m546.04,616.93s-.07.08-.11.12h0s.08-.09.11-.12Z"/>
            <path class="cls-32" d="m545.93,617.04h0c-9.86,10.57-45.86,10.57-55.67.01h0c.12-9.26,12.38-16.88,27.88-16.88s27.71,7.62,27.79,16.87Z"/>
            <path class="cls-10" d="m490.26,617.04h0s-.08-.07-.11-.11c.03.03.06.08.11.11Z"/>
          </g>
          <g>
            <path class="cls-12" d="m479.4,613.59c0,.84.06,1.68.18,2.53l.4,2.95c.02-.2.06-.39.08-.58l-.27-2.01-.39-2.89Z"/>
            <path class="cls-12" d="m555.29,616.49l-.28,2.01c.02.2.07.39.08.58l.4-2.95c.12-.85.18-1.69.18-2.53l-.39,2.89Z"/>
            <path class="cls-20" d="m510.15,589.26h14.84c17.68,0,30.81,11.22,30.7,24.33v-.09c1.99-14.31-11.72-27.15-30.66-27.15h-14.92c-18.94,0-32.67,12.83-30.72,27.15v.09c-.08-13.12,13.08-24.33,30.76-24.33Z"/>
          </g>
        </g>
        <path class="cls-30" d="m548.79,683.35c-3.27,1.15-6.45,1.57-7.14.93-.7-.64,1.39-2.13,4.72-3.32,3.37-1.21,6.67-1.64,7.31-.96.63.68-1.58,2.18-4.9,3.35Z"/>
        <path class="cls-30" d="m485.34,683.35c3.27,1.15,6.45,1.57,7.14.93.7-.64-1.39-2.13-4.72-3.32-3.37-1.21-6.67-1.64-7.31-.96-.63.68,1.58,2.18,4.9,3.35Z"/>
      </g>
      <path class="cls-29" d="m529.97,629.83h-26.53c-9.55,0-15.36,8.42-13.29,17.45l4.46,34.07h45.87l2.77-34.07c2.07-9.03-3.73-17.45-13.28-17.45Z"/>
      <g>
        <rect class="cls-21" x="520.42" y="641.68" width="14.81" height="13.44" rx=".35" ry=".35" transform="translate(1055.66 1296.8) rotate(180)"/>
        <path class="cls-11" d="m535.23,649.97h0c1.87,0,3.39,1.2,3.39,2.67v5.86c0,1.48-1.52,2.67-3.39,2.67h0c-1.88,0-3.39-1.2-3.39-2.67v-5.86c0-1.48,1.52-2.67,3.39-2.67Z"/>
        <path class="cls-11" d="m521.45,649.97h0c1.87,0,3.39,1.2,3.39,2.67v5.86c0,1.48-1.52,2.67-3.39,2.67h0c-1.87,0-3.39-1.2-3.39-2.67v-5.86c0-1.48,1.52-2.67,3.39-2.67Z"/>
        <rect class="cls-1" x="521.45" y="649.16" width="12.96" height="13.44" rx=".35" ry=".35" transform="translate(1055.86 1311.76) rotate(180)"/>
        <path class="cls-20" d="m536.43,651.42c-1.02,0-1.85-.65-1.85-1.46v-4.97c0-1.52-1.57-2.75-3.5-2.75h-6.31c-1.93,0-3.5,1.24-3.5,2.75v4.97c0,.8-.83,1.46-1.85,1.46s-1.85-.65-1.85-1.46v-4.97c0-3.12,3.23-5.66,7.2-5.66h6.31c3.96,0,7.2,2.54,7.2,5.66v4.97c0,.8-.83,1.46-1.85,1.46Z"/>
      </g>
      <g>
        <rect class="cls-21" x="494.98" y="641.68" width="14.81" height="13.44" rx=".35" ry=".35" transform="translate(1004.77 1296.8) rotate(180)"/>
        <path class="cls-11" d="m509.79,649.97h0c1.87,0,3.39,1.2,3.39,2.67v5.86c0,1.48-1.52,2.67-3.39,2.67h0c-1.87,0-3.39-1.2-3.39-2.67v-5.86c0-1.48,1.52-2.67,3.39-2.67Z"/>
        <path class="cls-11" d="m496.01,649.97h0c1.87,0,3.39,1.2,3.39,2.67v5.86c0,1.48-1.52,2.67-3.39,2.67h0c-1.87,0-3.39-1.2-3.39-2.67v-5.86c0-1.48,1.52-2.67,3.39-2.67Z"/>
        <rect class="cls-1" x="496.01" y="649.16" width="12.96" height="13.44" rx=".35" ry=".35" transform="translate(1004.98 1311.76) rotate(180)"/>
        <path class="cls-20" d="m511,651.42c-1.02,0-1.85-.65-1.85-1.46v-4.97c0-1.52-1.57-2.75-3.51-2.75h-6.3c-1.94,0-3.51,1.24-3.51,2.75v4.97c0,.8-.83,1.46-1.85,1.46s-1.85-.65-1.85-1.46v-4.97c0-3.12,3.23-5.66,7.21-5.66h6.3c3.97,0,7.21,2.54,7.21,5.66v4.97c0,.8-.83,1.46-1.85,1.46Z"/>
      </g>
      <g>
        <path class="cls-32" d="m498.39,660.71l-3.78,20.34s8.24,6.62,22.93,7.33c14.7-.71,22.93-7.33,22.93-7.33l-3.79-20.34h-38.3Z"/>
        <path class="cls-20" d="m517.65,689.69c-15.37-.73-23.88-7.44-24.24-7.72l-.58-.46,4.12-22.11h41.19l4.11,22.11-.58.46c-.35.29-8.85,6.99-24.02,7.72Zm-21.26-9.14c2.08,1.42,9.57,5.95,21.26,6.51,11.51-.56,18.98-5.09,21.04-6.51l-3.44-18.53h-35.43l-3.44,18.53Z"/>
      </g>
    </g>
  </g>
  <g>
    <path class="cls-13" d="m83.25,631.36c1.92,0,3.74-3.23,4.07-7.29.28-3.52-.69-6.37-2.2-7.17l.33-2.43c.11-.82.17-1.63.18-2.43l-.38,2.78-.27,1.93s0,.06.01.09c0,0-.02,0-.02-.01l.28-2.01.38-2.78h0s.01-.09.01-.09c1.9-13.76-11.28-26.1-29.49-26.1h-14.34c-18.21,0-31.41,12.34-29.54,26.1v.09s.01,0,.01,0l.37,2.78.25,1.85h0s-.25-1.85-.25-1.85l-.37-2.78c0,.8.06,1.61.17,2.43l.3,2.27c-1.73.48-2.87,3.53-2.57,7.33.32,4.05,2.14,7.29,4.06,7.29.22,0,.41-.18.62-.27l3.81,28.05c-1.22.86-1.98,3.14-1.79,5.87.23,3.24,1.73,5.8,3.4,6.02l.83,6.11c-.28-.11-.51-.23-.81-.34-3.24-1.16-6.41-1.58-7.03-.92-.61.65,1.52,2.1,4.71,3.22,1.25.44,2.45.73,3.53.93l.41,2.98c.93,6.82,11,12.06,22.44,12.06h9.02c11.44,0,21.52-5.24,22.47-12.06l.43-3.14c.86-.2,1.77-.44,2.71-.77,3.19-1.12,5.32-2.57,4.71-3.22-.61-.66-3.76-.25-7,.91l.81-5.9c1.52-.53,2.83-2.89,3.05-5.89.18-2.47-.44-4.59-1.46-5.61l3.88-28.15c.09.02.16.11.26.11Z"/>
    <g>
      <g>
        <path class="cls-32" d="m2.27,621.43c.32,4.05,2.14,7.29,4.06,7.29s3.28-3.23,3.01-7.29c-.27-4.12-2.1-7.51-4.08-7.51s-3.32,3.39-3,7.51Z"/>
        <path class="cls-32" d="m8.97,662.37c.24,3.4,1.87,6.11,3.63,6.11s3.04-2.71,2.84-6.11c-.2-3.45-1.83-6.28-3.64-6.28s-3.08,2.84-2.83,6.28Z"/>
        <path class="cls-32" d="m79.4,621.43c-.33,4.05-2.15,7.29-4.07,7.29s-3.27-3.23-3-7.29c.27-4.12,2.1-7.51,4.09-7.51s3.32,3.39,2.99,7.51Z"/>
        <path class="cls-32" d="m72.65,662.37c-.25,3.4-1.87,6.11-3.64,6.11s-3.04-2.71-2.84-6.11c.2-3.45,1.83-6.28,3.65-6.28s3.08,2.84,2.83,6.28Z"/>
        <path class="cls-18" d="m77.33,612.19l-9.4,68.19c-.94,6.82-11.03,12.06-22.47,12.06h-9.02c-11.44,0-21.51-5.24-22.44-12.06l-9.27-68.19c.96-11.68,13.16-21.37,29.25-21.37h14.13c16.09,0,28.27,9.69,29.21,21.37Z"/>
        <g>
          <g>
            <path class="cls-2" d="m48.23,583.22c18.21,0,31.39,12.34,29.49,26.1l-.39,2.87c-.94-11.68-13.12-21.37-29.21-21.37h-14.13c-16.09,0-28.29,9.69-29.25,21.37l-.38-2.87c-1.87-13.76,11.33-26.1,29.54-26.1h14.34Z"/>
            <path class="cls-31" d="m68.43,612.62s-.06.08-.11.12h0s.08-.09.11-.12Z"/>
            <path class="cls-32" d="m68.33,612.73h0c-9.48,10.16-44.09,10.16-53.52.01h0c.12-8.9,11.9-16.23,26.8-16.23s26.64,7.33,26.72,16.21Z"/>
            <path class="cls-31" d="m14.8,612.73h0s-.08-.06-.11-.11c.03.03.06.08.11.11Z"/>
          </g>
          <g>
            <path class="cls-3" d="m4.36,609.41c0,.8.06,1.61.17,2.43l.38,2.84c.02-.19.06-.37.08-.56l-.26-1.93-.37-2.78Z"/>
            <path class="cls-3" d="m77.33,612.19l-.27,1.93c.02.19.06.37.08.56l.39-2.84c.11-.82.17-1.63.18-2.43l-.38,2.78Z"/>
            <path class="cls-18" d="m33.92,586.01h14.27c16.99,0,29.62,10.78,29.52,23.4v-.09c1.91-13.76-11.27-26.1-29.48-26.1h-14.34c-18.21,0-31.41,12.34-29.54,26.1v.09c-.07-12.61,12.58-23.4,29.57-23.4Z"/>
          </g>
        </g>
        <path class="cls-18" d="m71.08,676.47c-3.15,1.11-6.2,1.51-6.86.89-.67-.62,1.34-2.05,4.54-3.2,3.24-1.16,6.41-1.58,7.03-.92.61.65-1.52,2.1-4.71,3.22Z"/>
        <path class="cls-18" d="m10.07,676.47c3.15,1.11,6.2,1.51,6.86.89.67-.62-1.34-2.05-4.54-3.2-3.24-1.16-6.41-1.58-7.03-.92-.61.65,1.52,2.1,4.71,3.22Z"/>
      </g>
      <path class="cls-19" d="m52.98,625.02h-25.51c-9.18,0-14.77,8.1-12.77,16.78l4.29,32.76h44.1l2.67-32.76c1.99-8.68-3.59-16.78-12.77-16.78Z"/>
      <g>
        <rect class="cls-27" x="43.8" y="636.41" width="14.24" height="12.92" rx=".33" ry=".33" transform="translate(101.84 1285.75) rotate(180)"/>
        <path class="cls-17" d="m58.04,644.38h0c1.8,0,3.26,1.15,3.26,2.57v5.63c0,1.42-1.46,2.57-3.26,2.57h0c-1.8,0-3.26-1.15-3.26-2.57v-5.63c0-1.42,1.46-2.57,3.26-2.57Z"/>
        <path class="cls-17" d="m44.79,644.38h0c1.8,0,3.26,1.15,3.26,2.57v5.63c0,1.42-1.46,2.57-3.26,2.57h0c-1.8,0-3.26-1.15-3.26-2.57v-5.63c0-1.42,1.46-2.57,3.26-2.57Z"/>
        <rect class="cls-5" x="44.79" y="643.6" width="12.46" height="12.92" rx=".33" ry=".33" transform="translate(102.04 1300.13) rotate(180)"/>
        <path class="cls-26" d="m59.19,645.79c-.98,0-1.78-.63-1.78-1.4v-4.78c0-1.46-1.51-2.64-3.36-2.64h-6.06c-1.86,0-3.36,1.19-3.36,2.64v4.78c0,.77-.8,1.4-1.78,1.4s-1.78-.63-1.78-1.4v-4.78c0-3,3.11-5.45,6.93-5.45h6.06c3.82,0,6.92,2.45,6.92,5.45v4.78c0,.77-.8,1.4-1.78,1.4Z"/>
      </g>
      <g>
        <rect class="cls-27" x="19.34" y="636.41" width="14.24" height="12.92" rx=".33" ry=".33" transform="translate(52.92 1285.75) rotate(180)"/>
        <path class="cls-17" d="m33.58,644.38h0c1.8,0,3.26,1.15,3.26,2.57v5.63c0,1.42-1.46,2.57-3.26,2.57h0c-1.8,0-3.26-1.15-3.26-2.57v-5.63c0-1.42,1.46-2.57,3.26-2.57Z"/>
        <path class="cls-17" d="m20.33,644.38h0c1.8,0,3.26,1.15,3.26,2.57v5.63c0,1.42-1.46,2.57-3.26,2.57h0c-1.8,0-3.26-1.15-3.26-2.57v-5.63c0-1.42,1.46-2.57,3.26-2.57Z"/>
        <rect class="cls-5" x="20.33" y="643.6" width="12.46" height="12.92" rx=".33" ry=".33" transform="translate(53.12 1300.13) rotate(180)"/>
        <path class="cls-26" d="m34.73,645.79c-.98,0-1.78-.63-1.78-1.4v-4.78c0-1.46-1.51-2.64-3.36-2.64h-6.06c-1.85,0-3.36,1.19-3.36,2.64v4.78c0,.77-.8,1.4-1.78,1.4s-1.78-.63-1.78-1.4v-4.78c0-3,3.11-5.45,6.92-5.45h6.06c3.82,0,6.92,2.45,6.92,5.45v4.78c0,.77-.8,1.4-1.78,1.4Z"/>
      </g>
      <g>
        <path class="cls-32" d="m22.62,654.71l-3.64,19.55s7.92,6.37,22.05,7.05c14.13-.68,22.05-7.05,22.05-7.05l-3.64-19.55H22.62Z"/>
        <path class="cls-9" d="m41.13,682.57c-14.78-.71-22.96-7.14-23.3-7.42l-.56-.45,3.96-21.26h39.59l3.96,21.26-.56.45c-.34.27-8.52,6.72-23.1,7.42Zm-20.44-8.79c2,1.37,9.2,5.72,20.44,6.27,11.07-.55,18.24-4.9,20.24-6.27l-3.32-17.81H24.01l-3.32,17.81Z"/>
      </g>
    </g>
  </g>
  <g>
    <path class="cls-13" d="m171.12,671.48c-.7-.88-3.81-.33-6.92,1.22l.16-7.77c1.43-.68,2.44-3.67,2.31-7.42-.11-3.01-.93-5.55-2.01-6.77l.63-30.14c.08.02.15.11.23.11,1.65,0,2.85-3.11,2.7-6.91-.13-3.22-1.21-5.77-2.53-6.48l.04-2.13c.01-.71-.01-1.41-.08-2.1l-.04,2.4.04-2.4h0s0-.07,0-.07c0-.35-.09-.67-.1-1.02l.06-2.65c-1.79-9.82-11.83-17.46-24.05-17.46h-10.73c-12.22,0-22.26,7.63-24.06,17.46l.05,2.68c-.01.33-.11.65-.1.98v.08s0,0,0,0l.04,2.4-.04-2.4c-.07.69-.1,1.39-.08,2.1l.04,1.99c-1.46.42-2.7,3.15-2.85,6.62-.16,3.8,1.05,6.91,2.69,6.91.19,0,.37-.17.55-.26l.61,29.99c-1.24,1.03-2.22,3.75-2.35,7.06-.15,4.05,1.02,7.3,2.64,7.59l.16,8.06c-.27-.15-.49-.31-.78-.45-3.12-1.56-6.25-2.12-6.96-1.23-.7.88,1.24,2.83,4.33,4.37,1.22.61,2.41,1.01,3.48,1.28l.08,4.18c.2,9.93,10.53,17.95,22.95,17.95h9.79c12.42,0,22.75-8.02,22.96-17.95l.09-4.4c.86-.27,1.75-.61,2.67-1.06,3.09-1.54,5.04-3.49,4.34-4.37Zm-5.53-64.19s-.01,0-.02,0v-.07s.01.05.02.08Z"/>
    <g>
      <path class="cls-32" d="m93.75,610.93c-.16,3.8,1.05,6.91,2.69,6.91s3.08-3.11,3.21-6.91c.13-3.76-1.08-6.79-2.7-6.79s-3.05,3.02-3.21,6.79Z"/>
      <path class="cls-32" d="m95.27,654.63c-.16,4.24,1.12,7.7,2.86,7.7s3.25-3.47,3.38-7.7c.12-4.19-1.16-7.56-2.86-7.56s-3.22,3.37-3.37,7.56Z"/>
      <path class="cls-32" d="m158.15,610.93c.15,3.8-1.05,6.91-2.7,6.91s-3.08-3.11-3.21-6.91c-.12-3.76,1.09-6.79,2.7-6.79s3.05,3.02,3.2,6.79Z"/>
      <path class="cls-32" d="m156.6,654.63c.16,4.24-1.13,7.7-2.87,7.7s-3.25-3.47-3.37-7.7c-.12-4.19,1.16-7.56,2.87-7.56s3.21,3.37,3.37,7.56Z"/>
      <path class="cls-34" d="m155.54,602.63l-1.59,75.79c-.21,9.93-10.54,17.95-22.97,17.95h-9.79c-12.42,0-22.75-8.02-22.95-17.95l-1.55-75.79c1.79-9.82,11.84-17.46,24.06-17.46h10.73c12.22,0,22.26,7.63,24.05,17.46Z"/>
      <g>
        <path class="cls-34" d="m120.75,585.17h10.73c12.01,0,21.9,7.38,23.93,16.96l.12-5.65c-1.79-9.82-11.83-17.46-24.05-17.46h-10.73c-12.22,0-22.26,7.63-24.06,17.46l.12,5.66c2.03-9.59,11.93-16.97,23.94-16.97Z"/>
        <g>
          <g>
            <path class="cls-14" d="m131.45,579.48c13.52,0,24.37,9.37,24.13,20.66l-.05,2.48c-1.79-9.82-11.83-17.46-24.05-17.46h-10.73c-12.22,0-22.26,7.63-24.06,17.46l-.04-2.48c-.23-11.3,10.63-20.66,24.15-20.66h10.65Z"/>
            <path class="cls-31" d="m148.36,603s-.05.07-.08.1h0s.06-.07.08-.1Z"/>
            <path class="cls-32" d="m148.28,603.1h0c-7.21,9.19-36.25,9.19-43.46,0h0c.67-7.58,10.23-13.51,21.73-13.51s21.05,5.93,21.73,13.5Z"/>
            <path class="cls-31" d="m104.82,603.1h0s-.06-.06-.08-.09c.02.03.05.07.08.09Z"/>
          </g>
          <g>
            <path class="cls-3" d="m96.65,600.22c-.07.69-.1,1.39-.09,2.1l.05,2.49c.03-.17.08-.33.12-.5l-.04-1.69-.04-2.4Z"/>
            <path class="cls-3" d="m155.54,602.63l-.04,1.69c.04.17.09.33.12.5l.05-2.49c.01-.71-.02-1.41-.08-2.1l-.04,2.4Z"/>
            <path class="cls-34" d="m120.78,581.54h10.68c12.72,0,23.08,8.28,24.12,18.68v-.08c.24-11.3-10.61-20.66-24.13-20.66h-10.65c-13.52,0-24.38,9.37-24.15,20.66v.08c1.05-10.4,11.41-18.68,24.13-18.68Z"/>
          </g>
        </g>
        <path class="cls-32" d="m148.28,603.1s.06-.07.08-.1l1.69,59.52s-.05-.07-.08-.1h0c-7.92-10.69-8.67-49.86-1.69-59.32Z"/>
        <path class="cls-32" d="m104.82,603.1c6.98,9.46,6.26,48.63-1.66,59.31,0-.18,0-.37,0-.55l-.05-.53,1.62-58.33s.05.07.08.1Z"/>
        <path class="cls-32" d="m149.97,662.41h0c-.16,9.01-10.48,16.36-23.39,16.36s-23.24-7.35-23.41-16.35c8.1-10.42,38.68-10.42,46.8-.01Z"/>
        <path class="cls-6" d="m104.97,668.57c3.53,5.97,11.83,10.2,21.61,10.2s18.07-4.23,21.59-10.2c-9.57-7.88-33.64-7.88-43.2,0Z"/>
      </g>
      <path class="cls-14" d="m153.95,672.28c-.21,9.93-10.54,17.95-22.97,17.95h-9.79c-12.42,0-22.75-8.02-22.95-17.95v-.34h-.13l.13,6.48c.2,9.93,10.53,17.95,22.95,17.95h9.79c12.42,0,22.76-8.02,22.97-17.95l.14-6.48h-.13v.34Z"/>
      <path class="cls-14" d="m156.71,672.96c-3.08,1.53-6.16,2.08-6.9,1.23-.74-.85,1.16-2.81,4.28-4.36,3.13-1.56,6.25-2.12,6.96-1.23.7.88-1.25,2.83-4.34,4.36Z"/>
      <path class="cls-14" d="m94.67,672.96c3.08,1.53,6.16,2.08,6.89,1.23.75-.85-1.16-2.81-4.27-4.36-3.12-1.56-6.25-2.12-6.96-1.23-.7.88,1.24,2.83,4.33,4.36Z"/>
    </g>
  </g>
  <g>
    <path class="cls-13" d="m306.28,672.63c-.96-.83-5.2-.31-9.45,1.15l.22-7.36c1.95-.64,3.34-3.48,3.15-7.03-.15-2.85-1.27-5.25-2.74-6.41l.86-28.54c.11.01.21.1.32.1,2.25,0,3.89-2.94,3.69-6.54-.18-3.04-1.65-5.46-3.45-6.13l.05-2.02c.02-.67-.02-1.33-.11-1.98v-.07c.01-.33-.12-.64-.14-.97l.08-2.51c-2.44-9.3-16.15-16.54-32.83-16.54h-14.65c-16.68,0-30.39,7.23-32.84,16.54l.08,2.53c-.02.32-.15.62-.14.94v.07s0,0,0,0l.06,2.28-.06-2.28c-.1.65-.14,1.32-.12,1.99l.05,1.88c-1.99.4-3.69,2.98-3.89,6.27-.21,3.6,1.43,6.54,3.68,6.54.26,0,.5-.16.75-.24l.83,28.4c-1.7.97-3.03,3.55-3.2,6.69-.21,3.83,1.4,6.92,3.61,7.19l.23,7.64c-.37-.14-.67-.29-1.06-.43-4.27-1.48-8.53-2-9.5-1.17-.96.83,1.7,2.68,5.92,4.14,1.67.58,3.28.96,4.75,1.21l.12,3.96c.28,9.4,14.38,17,31.34,17h13.36c16.96,0,31.06-7.6,31.35-17l.13-4.16c1.17-.26,2.39-.57,3.65-1.01,4.22-1.46,6.88-3.31,5.92-4.14Zm-7.58-60.81v-.07s.02.05.03.08c0,0-.02,0-.03,0Z"/>
    <g>
      <path class="cls-32" d="m205.45,613.01c-.21,3.6,1.43,6.54,3.68,6.54s4.21-2.94,4.39-6.54c.17-3.56-1.47-6.43-3.68-6.43s-4.17,2.86-4.38,6.43Z"/>
      <path class="cls-32" d="m207.52,654.4c-.22,4.01,1.53,7.29,3.9,7.29s4.44-3.28,4.61-7.29c.17-3.97-1.58-7.16-3.91-7.16s-4.39,3.19-4.61,7.16Z"/>
      <path class="cls-32" d="m293.36,613.01c.21,3.6-1.44,6.54-3.69,6.54s-4.21-2.94-4.38-6.54c-.17-3.56,1.48-6.43,3.69-6.43s4.17,2.86,4.38,6.43Z"/>
      <path class="cls-32" d="m291.24,654.4c.21,4.01-1.54,7.29-3.91,7.29s-4.43-3.28-4.6-7.29c-.17-3.97,1.59-7.16,3.92-7.16s4.39,3.19,4.6,7.16Z"/>
      <path class="cls-25" d="m289.79,605.15l-2.17,71.79c-.29,9.4-14.39,17-31.35,17h-13.36c-16.96,0-31.06-7.6-31.34-17l-2.11-71.79c2.45-9.3,16.17-16.54,32.84-16.54h14.65c16.68,0,30.39,7.23,32.83,16.54Z"/>
      <g>
        <path class="cls-25" d="m242.31,588.61h14.65c16.39,0,29.89,6.99,32.67,16.06l.16-5.35c-2.44-9.3-16.15-16.54-32.83-16.54h-14.65c-16.68,0-30.39,7.23-32.84,16.54l.16,5.36c2.78-9.08,16.29-16.08,32.69-16.08Z"/>
        <g>
          <g>
            <path class="cls-33" d="m256.91,583.23c18.46,0,33.27,8.87,32.95,19.57l-.06,2.35c-2.44-9.3-16.15-16.54-32.83-16.54h-14.65c-16.68,0-30.39,7.23-32.84,16.54l-.06-2.35c-.32-10.7,14.51-19.57,32.96-19.57h14.54Z"/>
            <path class="cls-16" d="m279.99,605.5s-.06.06-.11.1h0s.08-.07.11-.1Z"/>
            <path class="cls-32" d="m279.88,605.59h0c-9.84,8.7-49.48,8.7-59.32,0h0c.92-7.17,13.96-12.79,29.66-12.79s28.74,5.62,29.66,12.78Z"/>
            <path class="cls-16" d="m220.56,605.59h0s-.08-.05-.11-.09c.03.03.06.06.11.09Z"/>
          </g>
          <g>
            <path class="cls-15" d="m209.41,602.87c-.09.65-.14,1.32-.12,1.99l.06,2.36c.04-.16.11-.31.16-.47l-.05-1.6-.06-2.28Z"/>
            <path class="cls-15" d="m289.79,605.15l-.05,1.6c.05.16.12.31.16.47l.06-2.36c.02-.67-.02-1.33-.12-1.99l-.06,2.28Z"/>
            <path class="cls-25" d="m242.35,585.18h14.58c17.37,0,31.51,7.85,32.93,17.69v-.07c.33-10.7-14.49-19.57-32.94-19.57h-14.54c-18.46,0-33.28,8.87-32.96,19.57v.07c1.43-9.85,15.57-17.69,32.94-17.69Z"/>
          </g>
        </g>
        <path class="cls-32" d="m279.88,605.6s.08-.06.11-.1l2.31,56.37s-.07-.06-.11-.09h0c-10.81-10.12-11.83-47.23-2.31-56.18Z"/>
        <path class="cls-32" d="m220.56,605.6c9.54,8.96,8.55,46.06-2.26,56.17,0-.17,0-.35,0-.52l-.07-.5,2.21-55.24s.06.06.11.1Z"/>
        <path class="cls-32" d="m282.19,661.77h0c-.22,8.54-14.3,15.49-31.93,15.49s-31.73-6.96-31.96-15.48c11.05-9.87,52.8-9.87,63.89-.01Z"/>
        <path class="cls-4" d="m220.76,667.61c4.81,5.66,16.15,9.66,29.49,9.66s24.67-4,29.47-9.66c-13.06-7.46-45.92-7.46-58.97,0Z"/>
      </g>
      <path class="cls-33" d="m287.62,671.12c-.29,9.4-14.39,17-31.35,17h-13.36c-16.96,0-31.06-7.6-31.34-17v-.32h-.18l.18,6.14c.28,9.4,14.38,17,31.34,17h13.36c16.96,0,31.06-7.6,31.35-17l.19-6.14h-.18v.32Z"/>
      <path class="cls-33" d="m291.4,671.76c-4.2,1.45-8.41,1.97-9.41,1.17-1.02-.81,1.59-2.66,5.84-4.13,4.27-1.48,8.53-2,9.5-1.17.96.83-1.7,2.68-5.92,4.13Z"/>
      <path class="cls-33" d="m206.71,671.76c4.2,1.45,8.4,1.97,9.41,1.17,1.02-.81-1.58-2.66-5.83-4.13-4.27-1.48-8.53-2-9.5-1.17-.96.83,1.7,2.68,5.92,4.13Z"/>
    </g>
  </g>
  <g>
    <path class="cls-13" d="m423.29,658.67v-58.09s.59-8.47-7.26-15.18c-4.94-4.2-13.18-7.73-26.99-8.05-.66-.01-1.35-.02-2.05-.02h-2.39c-.7,0-1.39,0-2.06.02-13.81.32-22.05,3.85-26.98,8.05-7.85,6.71-7.26,15.18-7.26,15.18v58.09h-14.6v5.9h14.61s4.44,28.05,4.44,28.05c0,5.42,4.25,9.97,10,11.26,1.06.24,2.18.37,3.33.37h39.43c1.14,0,2.25-.13,3.32-.37h.01c5.75-1.29,9.99-5.84,9.99-11.26l4.45-28.05h13.86s0-5.9,0-5.9h-13.85Z"/>
    <g>
      <g>
        <g>
          <g>
            <path class="cls-8" d="m346.26,665.31v-32.86c0,16.26,2.99,30.69,2.99,30.69,6.87,4.52,17.01,7.38,28.31,7.38s21.43-2.86,28.31-7.38c0,0,2.8-13.55,2.98-29.16v31.33l-4.44,28.81c0,3.25-1.45,6.17-3.79,8.32h-.01c-1.07.24-2.18.37-3.32.37h-39.43c-1.16,0-2.28-.13-3.34-.37-2.35-2.15-3.79-5.08-3.79-8.32l-4.46-28.81Z"/>
            <path class="cls-23" d="m340.06,599.14s-.59-8.47,7.26-15.18h.01s1.68,5.67,1.68,5.67c-3.08,5.3-2.75,10.1-2.75,10.1v65.57l4.46,28.81c0,3.25,1.44,6.17,3.79,8.32-5.76-1.29-10-5.84-10-11.26l-4.44-28.1v-63.95Z"/>
            <path class="cls-28" d="m349.25,663.14s-2.99-14.44-2.99-30.69c0-11.04,1.38-22.92,6.03-31.68l8.19,1.94v44.57h.49l-11.73,15.87Z"/>
            <path class="cls-28" d="m377.56,670.52c-11.3,0-21.44-2.86-28.31-7.38l11.73-15.87h33.15l11.73,15.87c-6.88,4.52-17.01,7.38-28.31,7.38Z"/>
            <path class="cls-28" d="m360.49,602.7l-8.19-1.94s6.42-8.52,19.53-11.17l11.06-.08c13.38,2.56,19.94,11.25,19.94,11.25l-8.21,1.94h-.48s-33.65,0-33.65,0Z"/>
            <path class="cls-23" d="m347.32,583.96c4.93-4.2,13.18-7.73,26.99-8.05,1.12.02,2.2.07,3.25.13-17.35,1.07-25.1,7.64-28.55,13.59l-1.68-5.66h-.01Z"/>
            <path class="cls-24" d="m377.56,576.03c-1.05-.06-2.13-.11-3.25-.13.67,0,1.36-.02,2.06-.02h2.39c.7,0,1.39,0,2.05.02-1.12.02-2.2.07-3.25.12Z"/>
            <path class="cls-23" d="m406.11,589.64c-3.46-5.96-11.2-12.54-28.55-13.6,1.05-.06,2.13-.11,3.25-.12,13.81.32,22.05,3.85,26.99,8.05h-.01s-1.67,5.68-1.67,5.68Z"/>
            <path class="cls-23" d="m400.61,702.44c2.34-2.15,3.79-5.08,3.79-8.32l4.44-28.81v-31.33c.01-1.19.01-2.39,0-3.6v-30.64s.33-4.8-2.73-10.1l1.67-5.67h.01c7.85,6.7,7.26,15.17,7.26,15.17v63.95l-4.46,28.1c0,5.42-4.25,9.97-9.99,11.26Z"/>
            <path class="cls-28" d="m405.87,663.14l-11.73-15.87v-44.57h.48s8.21-1.94,8.21-1.94c4.35,8.21,5.84,19.18,6.02,29.61v3.6c-.17,15.62-2.98,29.16-2.98,29.16Z"/>
            <path class="cls-24" d="m408.84,633.97v-3.6c.01,1.21.01,2.41,0,3.6Z"/>
          </g>
          <path class="cls-8" d="m360.28,646.3h34.57s12.61,17.06,12.61,17.06l-.8.52c-7.35,4.84-17.96,7.61-29.09,7.61-11.15,0-21.76-2.77-29.09-7.61l-.8-.52,12.61-17.06Zm33.15,1.94h-31.74l-10.84,14.67c6.86,4.23,16.53,6.65,26.71,6.65,10.17,0,19.83-2.41,26.71-6.65l-10.84-14.67Z"/>
        </g>
        <polygon class="cls-23" points="342.65 657.23 325.46 657.23 325.46 663.13 343.67 663.13 342.65 657.23"/>
        <polygon class="cls-23" points="411.71 657.23 428.91 657.23 428.91 663.13 410.7 663.13 411.71 657.23"/>
      </g>
      <path class="cls-8" d="m406.11,589.64c-3.46-5.96-11.2-12.54-28.55-13.6-17.35,1.07-25.1,7.64-28.55,13.59-3.08,5.3-2.75,10.1-2.75,10.1v32.71c0-11.04,1.38-22.92,6.03-31.68,0,0,.71-.93,2.1-2.25l6.09,4.8v43.96h34.13s0-43.51,0-43.51l6.36-5.01c1.23,1.2,1.85,2.01,1.85,2.01,4.35,8.21,5.84,19.18,6.02,29.61v-30.64s.33-4.8-2.73-10.1Zm-14.48,12.09h-27.58l-6.98-5.5c3.24-2.48,8.15-5.3,14.76-6.64l11.06-.08c7.02,1.34,12.14,4.36,15.44,6.94l-6.7,5.28Z"/>
    </g>
  </g>
</svg>