<?xml version="1.0" encoding="UTF-8"?>
<svg id="Layer_1" data-name="Layer 1" xmlns="http://www.w3.org/2000/svg" viewBox="0 0 477.76 683.75">
  <defs>
    <style>
      .cls-1 {
        fill: #f05a29;
      }

      .cls-2 {
        fill: #659846;
      }

      .cls-3 {
        fill: #4d4c4c;
      }

      .cls-4 {
        fill: #f0bc45;
      }

      .cls-5 {
        fill: #545456;
      }

      .cls-6 {
        fill: #f7e53d;
      }

      .cls-7 {
        fill: #929497;
      }

      .cls-8 {
        fill: #fdcf72;
      }

      .cls-9 {
        fill: #59b1a7;
      }

      .cls-10 {
        fill: #ba8090;
      }

      .cls-11 {
        fill: #65b145;
      }

      .cls-12 {
        fill: #d0d2d3;
      }

      .cls-13 {
        fill: #9b396c;
      }

      .cls-14 {
        fill: #bbbdbf;
      }

      .cls-15 {
        fill: #e9883a;
      }

      .cls-16 {
        fill: #459945;
      }

      .cls-17 {
        fill: #221f1f;
      }

      .cls-18 {
        fill: #e6e7e8;
      }

      .cls-19 {
        fill: #24b24b;
      }

      .cls-20 {
        fill: #36b05e;
      }

      .cls-21 {
        fill: #231f20;
      }
    </style>
  </defs>
  <rect class="cls-7" x="31.71" y="112.27" width="445.87" height="7.05"/>
  <g>
    <polygon class="cls-7" points="95.7 118.87 87.58 116.81 135.27 0 143.39 2.06 95.7 118.87"/>
    <polygon class="cls-7" points="216.22 118.87 208.1 116.81 255.8 0 263.92 2.06 216.22 118.87"/>
    <polygon class="cls-7" points="336.75 118.87 328.63 116.81 376.34 0 384.46 2.06 336.75 118.87"/>
  </g>
  <g>
    <path class="cls-18" d="m345.19,23.58c-3.01-3.48-7.46-6.27-13.12-7.78l-11.88-3.17c-15.09-4.03-30.43,3.27-33.79,15.09l-.02.08c-.28.67-.52,1.35-.72,2.05l-.56,1.94c-1.6.01-3.64,2.29-4.75,5.5-1.18,3.43-.83,6.51.77,6.94.14.04.31-.06.46-.06l-6.21,21.83c.07-.05.12-.12.18-.17l-.68,2.4c-1.32.45-2.76,2.17-3.58,4.46-.97,2.74-.63,5.19.67,5.75l-1.49,5.25c-.19-.15-.34-.3-.55-.46-2.27-1.68-4.75-2.73-5.5-2.32-.74.41.51,2.07,2.75,3.71.88.64,1.77,1.15,2.59,1.55l-.73,2.56c-.87,3.05.51,6.28,3.33,9.04-.03-.02-.08-.04-.11-.06.06.06.15.1.21.16,1.25,1.21,2.75,2.33,4.51,3.3.07.04.15.07.23.11,1.84.98,3.89,1.82,6.12,2.42l7.47,2c9.48,2.53,19.71.42,22.92-5.01l1.48-2.51c.79.03,1.62.03,2.52-.04,3.04-.23,5.32-.95,5.05-1.63-.27-.68-3.03-1.04-6.12-.8l2.78-4.71c1.45-.1,3.37-1.77,4.63-4.21,1.03-2.01,1.28-3.9.79-4.97l1.81-3.07s0,.05,0,.08l11.48-19.44c.06.02.08.1.14.12,1.6.42,4.26-1.85,5.98-5.14,1.49-2.85,1.71-5.43.74-6.42l1.14-1.94c.38-.65.72-1.3,1.01-1.97l.05-.08c4.05-6.86,3.03-14.57-1.99-20.37Zm-.3,24.27l.04-.06s-.01.05-.02.08c0,0-.01,0-.02-.01Z"/>
    <g>
      <path class="cls-21" d="m271.8,32.72c-1.18,3.43-.83,6.51.77,6.94,1.59.43,3.87-1.96,5.1-5.37,1.25-3.47.95-6.69-.7-7.13-1.65-.44-3.97,2.08-5.17,5.56Z"/>
      <path class="cls-21" d="m262.73,68.13c-1.01,2.87-.63,5.48.83,5.87,1.46.39,3.49-1.58,4.54-4.43,1.07-2.9.73-5.61-.77-6.01-1.5-.4-3.57,1.67-4.59,4.58Z"/>
      <path class="cls-21" d="m335.71,49.79c-1.72,3.28-4.38,5.56-5.98,5.14-1.59-.43-1.56-3.4.11-6.7,1.7-3.35,4.43-5.76,6.07-5.32,1.65.44,1.54,3.55-.21,6.89Z"/>
      <path class="cls-21" d="m315.5,82.22c-1.42,2.76-3.73,4.65-5.19,4.26-1.46-.39-1.54-2.92-.17-5.69,1.4-2.81,3.76-4.8,5.27-4.4,1.5.4,1.54,3.03.1,5.83Z"/>
      <path class="cls-8" d="m337.29,41.68l-32.14,54.43c-3.21,5.44-13.44,7.55-22.92,5.02l-7.47-2c-9.48-2.53-15.96-9.1-14.29-14.96l16.67-58.56c4.97-9.46,18.54-14.8,31.87-11.23l11.71,3.13c13.33,3.56,19.96,14.29,16.57,24.17Z"/>
      <path class="cls-15" d="m275.58,30.63l-8.77,30.8c3.34-2.7,6.06-5.67,8.23-8.82,1.35-8.32,1.11-16.21.54-21.98Z"/>
      <g>
        <g>
          <path class="cls-15" d="m323.53,11.23c15.08,4.03,21.6,17.17,15.11,28.15l-1.35,2.29c3.39-9.89-3.24-20.61-16.57-24.17l-11.71-3.13c-13.33-3.56-26.9,1.77-31.87,11.23l.71-2.46c3.36-11.82,18.71-19.12,33.79-15.09l11.88,3.17Z"/>
          <path class="cls-19" d="m329.77,40.06s-.08.05-.13.07h0s.09-.05.13-.07Z"/>
          <path class="cls-21" d="m329.64,40.13h0c-11.48,6.32-40.16-1.34-44.35-11.84h0c3.27-7.35,15.65-10.81,28-7.51,12.35,3.3,19.46,11.97,16.35,19.35Z"/>
          <path class="cls-19" d="m285.29,28.28h0s-.04-.07-.05-.11c.01.03.02.08.05.11Z"/>
        </g>
        <g>
          <path class="cls-2" d="m277.83,23.22c-.28.67-.53,1.35-.72,2.05l-.7,2.44c.08-.15.18-.3.27-.45l.47-1.66.69-2.39Z"/>
          <path class="cls-2" d="m337.29,41.68l-.91,1.54c-.05.16-.08.32-.13.48l1.33-2.27c.39-.65.72-1.31,1.01-1.97l-1.3,2.22Z"/>
          <path class="cls-8" d="m310.68,10.38l11.82,3.16c14.08,3.76,20.7,15.49,16.1,25.92l.04-.07c6.49-10.98-.03-24.12-15.11-28.15l-11.88-3.17c-15.09-4.03-30.43,3.27-33.79,15.09l-.02.08c4.43-10.47,18.77-16.61,32.85-12.84Z"/>
        </g>
      </g>
      <path class="cls-15" d="m332.08,23.56c3.65,4.66,4.83,10.35,3,15.78l-31.94,54.93c-3.19,5.49-13.42,7.62-22.94,5.08l-7.49-2c-3.52-.94-6.6-2.43-9.03-4.22,2.59,2.57,6.46,4.75,11.07,5.98l7.47,2c9.48,2.53,19.71.42,22.92-5.02l32.14-54.43c2.19-6.4.16-13.15-5.21-18.12Z"/>
      <path class="cls-21" d="m329.64,40.14c.05-.03.09-.05.13-.07l-22.63,45.71s-.02-.05-.03-.08h0c-3.16-8.75,11.16-38.94,22.53-45.56Z"/>
      <path class="cls-21" d="m285.29,28.29c3.87,10.69-8.22,41.48-17.51,46.89.03-.12.08-.24.12-.36l.08-.36,17.27-46.29s.02.08.05.12Z"/>
      <path class="cls-21" d="m307.11,85.69h0c-3.09,5.46-13.64,7.52-23.99,4.76-10.35-2.76-17.12-9.46-15.34-15.26,9.39-5.19,35.9,1.89,39.33,10.5Z"/>
      <path class="cls-5" d="m267.94,79.56c1.59,4.48,7.34,8.8,15.17,10.89,7.83,2.09,15.74,1.42,20.47-1.37-5.5-7.04-25.83-12.47-35.65-9.52Z"/>
      <path class="cls-8" d="m309.16,93.56c-3,.22-5.68-.13-6.01-.78-.34-.66,1.84-1.4,4.91-1.64,3.1-.25,5.88.11,6.15.8.27.68-2.01,1.4-5.05,1.63Z"/>
      <path class="cls-8" d="m258.61,80.05c2.21,1.62,4.6,2.62,5.37,2.26.78-.36-.38-1.99-2.62-3.65-2.27-1.68-4.75-2.73-5.5-2.32-.74.41.51,2.07,2.75,3.71Z"/>
      <path class="cls-15" d="m335.02,45.63l-16.91,28.62c-.55-3.74-.41-7.4.31-10.94,5.38-7.24,11.68-13.38,16.6-17.68Z"/>
    </g>
  </g>
  <g>
    <path class="cls-18" d="m218.42,27.56c-2.39-3.91-7.37-7.9-17.29-10.54-.48-.12-.97-.25-1.48-.37l-1.73-.42c-.51-.12-1.01-.24-1.5-.34-10.09-2.17-17.06-1.06-21.82,1.13-7.58,3.5-9.53,9.73-9.53,9.73l-16.34,42.08-10.58-2.54-1.66,4.28,10.59,2.55-4.68,21.1c-1.52,3.92.27,7.96,4.08,9.9.7.36,1.47.65,2.31.85l13.42,3.23,1.73.42,13.42,3.23c.83.2,1.67.3,2.51.31h0c4.53.07,8.88-2.49,10.41-6.41l11.11-19.55,10.04,2.42,1.66-4.28-10.04-2.41,16.34-42.08s2.81-6.03-.99-12.26Z"/>
    <g>
      <g>
        <g>
          <g>
            <path class="cls-14" d="m145.47,71.21l9.24-23.81c-4.57,11.78-6.47,22.76-6.47,22.76,3.7,4.48,10.24,8.31,18.43,10.28,8.18,1.97,16.33,1.66,22.58-.41,0,0,5.84-9.32,10.36-20.61l-8.81,22.7-11.32,20.1c-.91,2.35-2.79,4.22-5.09,5.37h0c-.84-.01-1.68-.12-2.51-.32l-13.42-3.23-1.73-.42-13.42-3.23c-.84-.2-1.61-.49-2.31-.85-1.1-1.97-1.32-4.34-.41-6.69l4.88-21.65Z"/>
            <path class="cls-1" d="m159.58,22.19s1.95-6.24,9.53-9.73h0s-.38,4.4-.38,4.4c-3.72,3.3-4.83,6.84-4.83,6.84l-9.2,23.7-9.24,23.81-4.88,21.65c-.91,2.35-.69,4.72.41,6.69-3.81-1.94-5.6-5.98-4.08-9.9l4.68-21.13,17.99-46.33Z"/>
            <path class="cls-17" d="m148.25,70.15s1.89-10.98,6.47-22.76c3.11-8,7.45-16.37,13.28-21.9l5.39,2.83-12.53,32.29.36.09-12.96,9.45Z"/>
            <path class="cls-17" d="m166.68,80.44c-8.19-1.97-14.73-5.81-18.43-10.28l12.96-9.45,12.01,2.89,12.01,2.89,4.03,13.54c-6.26,2.08-14.4,2.38-22.58.41Z"/>
            <path class="cls-17" d="m173.39,28.33l-5.39-2.83s7.05-5.05,17.29-4.69l8.03,1.87c8.97,4.19,11.28,11.63,11.28,11.63l-6.49-.03-.35-.08-24.38-5.87Z"/>
            <path class="cls-1" d="m169.12,12.46c4.76-2.19,11.72-3.3,21.82-1.13.81.21,1.58.43,2.32.66-12.87-2.25-20.33,1.16-24.51,4.87l.38-4.39h0Z"/>
            <path class="cls-11" d="m193.25,11.99c-.74-.22-1.51-.45-2.32-.66.49.11.99.22,1.5.34l1.73.42c.51.12,1,.25,1.48.37-.82-.18-1.61-.33-2.39-.47Z"/>
            <path class="cls-1" d="m210.11,26.82c-.83-4.92-4.59-11.03-16.86-14.83.77.14,1.57.29,2.39.47,9.92,2.64,14.9,6.63,17.29,10.54h-.01s-2.81,3.82-2.81,3.82Z"/>
            <path class="cls-1" d="m174.4,107.59c2.3-1.15,4.17-3.02,5.09-5.37l11.32-20.1,8.81-22.7c.34-.86.68-1.73,1.01-2.61l8.62-22.19s1.59-3.42.86-7.79l2.81-3.81h.01c3.8,6.23.99,12.26.99,12.26l-17.99,46.33-11.13,19.58c-1.52,3.92-5.88,6.48-10.41,6.41Z"/>
            <path class="cls-17" d="m189.26,80.02l-4.03-13.54,12.54-32.29.35.08,6.49.03c.85,6.7-1.16,14.91-3.97,22.5l-1.01,2.61c-4.52,11.29-10.36,20.61-10.36,20.61Z"/>
            <path class="cls-11" d="m199.62,59.42l1.01-2.61c-.33.88-.67,1.75-1.01,2.61Z"/>
          </g>
          <path class="cls-14" d="m160.97,59.88l25.05,6.03,4.34,14.56-.73.24c-6.69,2.22-15.15,2.38-23.22.44-8.08-1.94-14.98-5.8-18.94-10.59l-.43-.52,13.93-10.16Zm23.48,7.18l-22.99-5.53-11.98,8.74c3.78,4.26,10.11,7.7,17.48,9.47,7.37,1.77,15.05,1.71,21.22-.16l-3.73-12.52Z"/>
        </g>
        <polygon class="cls-1" points="145.13 64.72 132.67 61.73 131.01 66 144.2 69.18 145.13 64.72"/>
        <polygon class="cls-1" points="195.16 76.76 207.62 79.76 205.96 84.04 192.76 80.86 195.16 76.76"/>
      </g>
      <path class="cls-14" d="m210.11,26.82c-.83-4.92-4.59-11.03-16.86-14.83-12.87-2.25-20.33,1.16-24.51,4.87-3.72,3.3-4.83,6.84-4.83,6.84l-9.2,23.7c3.11-8,7.45-16.37,13.28-21.9,0,0,.77-.55,2.16-1.27l3.07,4.54-12.36,31.85.36.09,12.18,2.93,12.18,2.93,12.24-31.52,6.02-2.52c.55,1.08.77,1.78.77,1.78.85,6.7-1.16,14.91-3.97,22.5l8.62-22.19s1.59-3.42.86-7.79Zm-13.89,6.24l-19.98-4.81-3.51-5.2c3.05-1.23,7.4-2.42,12.56-2.24l8.03,1.87c4.71,2.2,7.57,5.28,9.24,7.72l-6.34,2.65Z"/>
    </g>
  </g>
  <g>
    <path class="cls-12" d="m96.55,21.9c-2.39-3.91-7.38-7.9-17.29-10.54-.48-.12-.97-.25-1.48-.37l-1.73-.42c-.51-.12-1.01-.24-1.5-.34-10.09-2.17-17.06-1.06-21.82,1.13-7.58,3.5-9.53,9.73-9.53,9.73l-16.52,42.58-14.39-3.46-2.22,5.73,14.7,3.54-4.23,19.08c-1.52,3.92.27,7.96,4.08,9.9.7.36,1.48.65,2.31.85l13.42,3.23,1.73.42,13.42,3.23c.83.2,1.67.3,2.51.31h0c4.53.07,8.88-2.49,10.4-6.41l10.94-19.26,13.99,3.28,2.17-5.74-13.89-3.25,15.89-40.94s2.81-6.03-.99-12.26Z"/>
    <g>
      <g>
        <g>
          <g>
            <path class="cls-6" d="m22.08,64.84l9.24-23.81c-4.57,11.78-6.46,22.76-6.46,22.76,3.7,4.47,10.25,8.31,18.43,10.28,8.18,1.97,16.33,1.66,22.58-.42,0,0,5.84-9.32,10.36-20.61l-8.81,22.7-11.32,20.1c-.91,2.35-2.79,4.22-5.09,5.37h0c-.84-.01-1.68-.11-2.51-.31l-13.42-3.23-1.73-.42-13.42-3.23c-.84-.2-1.61-.49-2.31-.85-1.1-1.97-1.32-4.34-.41-6.69l4.88-21.65Z"/>
            <path class="cls-4" d="m36.19,15.82s1.95-6.24,9.53-9.73h0s-.38,4.4-.38,4.4c-3.72,3.3-4.83,6.84-4.83,6.84l-9.2,23.7-9.24,23.81-4.88,21.65c-.91,2.35-.69,4.72.41,6.69-3.81-1.94-5.61-5.98-4.08-9.9l4.68-21.13L36.19,15.82Z"/>
            <path class="cls-17" d="m24.85,63.78s1.89-10.98,6.46-22.76c3.11-8,7.44-16.37,13.28-21.9l5.39,2.83-12.53,32.29.36.09-12.96,9.45Z"/>
            <path class="cls-17" d="m43.29,74.07c-8.19-1.97-14.73-5.81-18.43-10.28l12.96-9.45,12.01,2.89,12.01,2.89,4.04,13.54c-6.26,2.08-14.4,2.38-22.58.42Z"/>
            <path class="cls-17" d="m49.99,21.95l-5.39-2.83s7.05-5.05,17.29-4.69l8.04,1.87c8.98,4.18,11.28,11.62,11.28,11.62l-6.49-.03-.35-.08-24.38-5.86Z"/>
            <path class="cls-4" d="m45.72,6.08c4.76-2.19,11.72-3.3,21.82-1.13.81.21,1.58.43,2.32.66-12.87-2.25-20.33,1.16-24.51,4.87l.38-4.39h0Z"/>
            <path class="cls-9" d="m69.85,5.61c-.74-.22-1.51-.45-2.32-.66.48.11.99.22,1.5.34l1.73.42c.51.12,1,.25,1.48.37-.82-.18-1.62-.33-2.39-.47Z"/>
            <path class="cls-4" d="m86.71,20.44c-.83-4.92-4.59-11.03-16.86-14.83.77.14,1.57.29,2.39.47,9.92,2.64,14.9,6.63,17.29,10.54h-.01s-2.8,3.82-2.8,3.82Z"/>
            <path class="cls-4" d="m51.01,101.21c2.3-1.15,4.17-3.02,5.09-5.37l11.32-20.1,8.81-22.7c.34-.86.68-1.73,1.01-2.61l8.61-22.2s1.59-3.42.86-7.79l2.8-3.81h.01c3.8,6.23.99,12.26.99,12.26l-17.98,46.33-11.13,19.58c-1.52,3.92-5.88,6.48-10.41,6.42Z"/>
            <path class="cls-17" d="m65.87,73.65l-4.04-13.54,12.53-32.29.35.08,6.49.03c.85,6.7-1.16,14.91-3.97,22.5l-1.01,2.61c-4.52,11.29-10.36,20.61-10.36,20.61Z"/>
            <path class="cls-9" d="m76.23,53.04l1.01-2.61c-.33.88-.67,1.75-1.01,2.61Z"/>
          </g>
          <path class="cls-6" d="m37.57,53.51l25.05,6.02,4.34,14.56-.73.24c-6.69,2.22-15.15,2.38-23.22.44-8.08-1.94-14.98-5.8-18.94-10.58l-.43-.52,13.93-10.16Zm23.48,7.18l-23-5.53-11.98,8.74c3.78,4.26,10.11,7.7,17.48,9.47,7.37,1.77,15.05,1.71,21.22-.16l-3.73-12.52Z"/>
        </g>
        <polygon class="cls-4" points="21.96 58.95 5.27 54.93 3.05 60.66 20.73 64.91 21.96 58.95"/>
        <polygon class="cls-4" points="71.8 69.16 88.52 73.08 86.35 78.82 68.64 74.67 71.8 69.16"/>
      </g>
      <path class="cls-6" d="m86.71,20.44c-.83-4.92-4.59-11.03-16.86-14.83-12.87-2.25-20.33,1.16-24.51,4.87-3.72,3.3-4.83,6.84-4.83,6.84l-9.2,23.7c3.11-8,7.44-16.37,13.28-21.9,0,0,.77-.55,2.16-1.27l3.07,4.54-12.36,31.85.36.09,12.18,2.93,12.18,2.93,12.23-31.52,6.02-2.52c.55,1.08.77,1.78.77,1.78.85,6.7-1.16,14.91-3.97,22.5l8.61-22.2s1.59-3.42.86-7.79Zm-13.89,6.24l-19.98-4.81-3.51-5.2c3.05-1.23,7.4-2.42,12.56-2.24l8.04,1.87c4.71,2.2,7.57,5.28,9.24,7.72l-6.34,2.65Z"/>
    </g>
  </g>
  <g>
    <path class="cls-18" d="m471.52,45.53l.53-1.48c.18-.49.31-.99.4-1.48l.02-.05c.09-.24.07-.49.13-.73l.67-1.84c.47-7.23-7.87-14.63-20.16-17.16l-10.8-2.22c-12.29-2.52-24.17.73-28.25,7.22l-.57,1.88c-.09.23-.26.43-.33.67l-.02.05h0s-.51,1.69-.51,1.69l-.34,1.14h0l.34-1.14.51-1.69c-.23.47-.42.95-.57,1.45l-.42,1.39c-1.57,0-3.45,1.64-4.4,4.03-1.04,2.62-.54,5.04,1.11,5.38.19.04.41-.05.61-.06l-6.32,21.06c-1.49.46-3.1,2.16-3.99,4.45-1.09,2.79-.66,5.31.9,5.85l-1.7,5.66c-.24-.16-.42-.32-.68-.48-2.78-1.74-5.8-2.77-6.71-2.3-.91.47.6,2.23,3.35,3.94,1.09.68,2.19,1.2,3.21,1.61l-.88,2.93c-2.09,6.97,6.45,14.71,18.94,17.28l9.85,2.02c12.5,2.57,24.75-.9,27.26-7.78l1.11-3.05c.93-.01,1.91-.06,2.94-.19,3.47-.43,5.88-1.39,5.38-2.15-.51-.76-3.76-1.02-7.25-.58l1.96-5.39c1.6-.18,3.31-2.06,4.04-4.7.59-2.13.35-4.07-.46-5.14l7.61-20.91c.08.03.13.11.21.12,1.66.34,3.59-1.58,4.31-4.26.61-2.27.12-4.28-1.04-5.04Zm.33-1.29l-.43,1.17s0,.04,0,.06c0,0-.01,0-.02-.01l.45-1.22Z"/>
    <g>
      <path class="cls-21" d="m399.84,31.02c-1.04,2.62-.54,5.04,1.11,5.38,1.66.34,3.82-1.53,4.83-4.16,1-2.6.48-4.96-1.14-5.3-1.63-.33-3.77,1.48-4.8,4.08Z"/>
      <path class="cls-21" d="m391.25,61.84c-1.14,2.92-.65,5.61,1.1,5.97,1.75.36,4.07-1.75,5.18-4.68,1.1-2.9.59-5.52-1.13-5.87-1.72-.35-4.02,1.69-5.15,4.58Z"/>
      <path class="cls-21" d="m464.64,44.33c-.72,2.68-2.66,4.6-4.31,4.26-1.66-.34-2.38-2.81-1.63-5.48.75-2.65,2.66-4.51,4.29-4.18,1.63.33,2.37,2.74,1.65,5.4Z"/>
      <path class="cls-21" d="m452.96,74.52c-.82,2.99-2.92,5.14-4.67,4.78-1.75-.36-2.47-3.09-1.61-6.07.85-2.95,2.92-5.04,4.64-4.68,1.72.35,2.45,3.01,1.64,5.97Z"/>
      <path class="cls-10" d="m463.92,37.99l-19.13,52.58c-2.51,6.89-14.76,10.35-27.26,7.78l-9.85-2.02c-12.5-2.57-21.04-10.3-18.94-17.28l15.98-53.23c4.08-6.49,15.96-9.74,28.25-7.21l10.8,2.22c12.29,2.52,20.63,9.93,20.16,17.16Z"/>
      <g>
        <path class="cls-10" d="m432.97,18.62l10.8,2.22c12.08,2.48,20.32,9.68,20.15,16.79l1.43-3.92c.47-7.23-7.87-14.63-20.16-17.16l-10.8-2.22c-12.29-2.52-24.17.73-28.25,7.22l-1.19,3.98c4.27-6.27,15.93-9.38,28.02-6.9Z"/>
        <g>
          <g>
            <path class="cls-13" d="m445.04,16.86c13.6,2.8,22.36,11.58,19.5,19.42l-.62,1.72c.47-7.23-7.87-14.63-20.16-17.16l-10.8-2.22c-12.29-2.53-24.17.73-28.25,7.21l.53-1.74c2.38-7.94,15.47-12.23,29.08-9.43l10.72,2.2Z"/>
            <path class="cls-20" d="m456.61,36.77s-.06.04-.1.06h0s.07-.04.1-.06Z"/>
            <path class="cls-21" d="m456.51,36.82h0c-9.38,4.92-38.59-1.08-43.73-8.98h0c2.43-5.15,13.41-7.31,24.99-4.94,11.58,2.38,19.81,8.49,18.74,13.91Z"/>
            <path class="cls-20" d="m412.79,27.84h0s-.04-.05-.06-.08c.02.02.03.06.06.08Z"/>
          </g>
          <g>
            <path class="cls-16" d="m405.23,24.14c-.23.47-.42.95-.57,1.45l-.53,1.75c.07-.11.16-.21.23-.32l.36-1.19.51-1.69Z"/>
            <path class="cls-16" d="m463.92,37.99l-.43,1.17c0,.12.01.25,0,.37l.62-1.73c.18-.49.31-.99.4-1.48l-.6,1.67Z"/>
            <path class="cls-10" d="m433.83,16.09l10.75,2.21c12.8,2.63,21.3,10.55,19.95,18.03l.02-.05c2.85-7.84-5.9-16.62-19.5-19.42l-10.72-2.2c-13.6-2.79-26.7,1.5-29.08,9.43l-.02.05c3.46-7.04,15.8-10.68,28.6-8.05Z"/>
          </g>
        </g>
        <path class="cls-21" d="m456.51,36.83s.07-.03.1-.06l-12.07,41.9s-.04-.06-.06-.08h0c-5.5-9.1,2.81-36.6,12.02-41.76Z"/>
        <path class="cls-21" d="m412.78,27.84c4.84,8.05-4.95,35.25-15.39,41.06.04-.13.08-.26.13-.38l.07-.38,15.13-40.38s.03.06.06.09Z"/>
        <path class="cls-21" d="m444.49,78.58h0c-2.25,6.26-14.32,9.25-27.32,6.58-13-2.67-21.69-9.93-19.78-16.25,10.56-5.6,41.33.72,47.1,9.67Z"/>
        <path class="cls-3" d="m397.79,73.58c2.17,4.9,9.55,9.57,19.38,11.59,9.83,2.02,19.16.79,24.08-2.66-7.8-7.48-32.03-12.46-43.46-8.93Z"/>
      </g>
      <path class="cls-13" d="m446.21,86.29c-2.51,6.89-14.76,10.35-27.26,7.78l-9.85-2.02c-12.5-2.57-21.04-10.3-18.94-17.27l.07-.24-.13-.03-1.37,4.55c-2.09,6.97,6.45,14.71,18.94,17.28l9.85,2.02c12.5,2.57,24.75-.9,27.26-7.78l1.64-4.5-.13-.03-.08.23Z"/>
      <path class="cls-13" d="m448.84,87.34c-3.45.43-6.68.18-7.22-.57-.55-.75,1.82-1.72,5.31-2.16,3.51-.44,6.78-.18,7.29.58.5.76-1.91,1.72-5.38,2.15Z"/>
      <path class="cls-13" d="m386.41,74.51c2.74,1.7,5.71,2.72,6.65,2.28.95-.44-.52-2.2-3.29-3.93-2.78-1.74-5.8-2.77-6.71-2.3-.91.47.6,2.23,3.35,3.94Z"/>
    </g>
  </g>
  <rect class="cls-7" x="28.67" y="298.66" width="445.87" height="7.05"/>
  <g>
    <polygon class="cls-7" points="92.65 305.25 84.53 303.2 132.22 186.39 140.34 188.44 92.65 305.25"/>
    <polygon class="cls-7" points="213.17 305.25 205.05 303.2 252.75 186.39 260.87 188.44 213.17 305.25"/>
    <polygon class="cls-7" points="333.71 305.25 325.59 303.2 373.29 186.39 381.41 188.44 333.71 305.25"/>
  </g>
  <g>
    <path class="cls-18" d="m342.14,209.96c-3.01-3.48-7.46-6.27-13.12-7.78l-11.88-3.17c-15.09-4.03-30.43,3.27-33.79,15.09l-.02.08c-.28.67-.52,1.35-.72,2.05l-.56,1.94c-1.6.01-3.64,2.29-4.75,5.5-1.18,3.43-.83,6.51.77,6.94.14.04.31-.06.46-.06l-6.21,21.83c.07-.05.12-.12.18-.17l-.68,2.4c-1.32.45-2.76,2.17-3.58,4.46-.97,2.74-.63,5.19.67,5.75l-1.49,5.25c-.19-.15-.34-.3-.55-.46-2.27-1.68-4.75-2.73-5.5-2.32-.74.41.51,2.07,2.75,3.71.88.64,1.77,1.15,2.59,1.55l-.73,2.56c-.87,3.05.51,6.28,3.33,9.04-.03-.02-.08-.04-.11-.06.06.06.15.1.21.16,1.25,1.21,2.75,2.33,4.51,3.3.07.04.15.07.23.11,1.84.98,3.89,1.82,6.12,2.42l7.47,2c9.48,2.53,19.71.42,22.92-5.01l1.48-2.51c.79.03,1.62.03,2.52-.04,3.04-.23,5.32-.95,5.05-1.63-.27-.68-3.03-1.04-6.12-.8l2.78-4.71c1.45-.1,3.37-1.77,4.63-4.21,1.03-2.01,1.28-3.9.79-4.97l1.81-3.07s0,.05,0,.08l11.48-19.44c.06.02.08.1.14.12,1.6.42,4.26-1.85,5.98-5.14,1.49-2.85,1.71-5.43.74-6.42l1.14-1.94c.38-.65.72-1.3,1.01-1.97l.05-.08c4.05-6.86,3.03-14.57-1.99-20.37Zm-.3,24.27l.04-.06s-.01.05-.02.08c0,0-.01,0-.02-.01Z"/>
    <g>
      <path class="cls-21" d="m268.75,219.11c-1.18,3.43-.83,6.51.77,6.94,1.59.43,3.87-1.96,5.1-5.37,1.25-3.47.95-6.69-.7-7.13-1.65-.44-3.97,2.08-5.17,5.56Z"/>
      <path class="cls-21" d="m259.68,254.51c-1.01,2.87-.63,5.48.83,5.87,1.46.39,3.49-1.58,4.54-4.43,1.07-2.9.73-5.61-.77-6.01-1.5-.4-3.57,1.67-4.59,4.58Z"/>
      <path class="cls-21" d="m332.66,236.18c-1.72,3.28-4.38,5.56-5.98,5.14-1.59-.43-1.56-3.4.11-6.7,1.7-3.35,4.43-5.76,6.07-5.32,1.65.44,1.54,3.55-.21,6.89Z"/>
      <path class="cls-21" d="m312.45,268.61c-1.42,2.76-3.73,4.65-5.19,4.26-1.46-.39-1.54-2.92-.17-5.69,1.4-2.81,3.76-4.8,5.27-4.4,1.5.4,1.54,3.03.1,5.83Z"/>
      <path class="cls-8" d="m334.25,228.06l-32.14,54.43c-3.21,5.44-13.44,7.55-22.92,5.02l-7.47-2c-9.48-2.53-15.96-9.1-14.29-14.96l16.67-58.56c4.97-9.46,18.54-14.8,31.87-11.23l11.71,3.13c13.33,3.56,19.96,14.29,16.57,24.17Z"/>
      <path class="cls-15" d="m272.53,217.01l-8.77,30.8c3.34-2.7,6.06-5.67,8.23-8.82,1.35-8.32,1.11-16.21.54-21.98Z"/>
      <g>
        <g>
          <path class="cls-15" d="m320.48,197.62c15.08,4.03,21.6,17.17,15.11,28.15l-1.35,2.29c3.39-9.89-3.24-20.61-16.57-24.17l-11.71-3.13c-13.33-3.56-26.9,1.77-31.87,11.23l.71-2.46c3.36-11.82,18.71-19.12,33.79-15.09l11.88,3.17Z"/>
          <path class="cls-19" d="m326.72,226.45s-.08.05-.13.07h0s.09-.05.13-.07Z"/>
          <path class="cls-21" d="m326.59,226.51h0c-11.48,6.32-40.16-1.34-44.35-11.84h0c3.27-7.35,15.65-10.81,28-7.51,12.35,3.3,19.46,11.97,16.35,19.35Z"/>
          <path class="cls-19" d="m282.24,214.67h0s-.04-.07-.05-.11c.01.03.02.08.05.11Z"/>
        </g>
        <g>
          <path class="cls-2" d="m274.78,209.61c-.28.67-.53,1.35-.72,2.05l-.7,2.44c.08-.15.18-.3.27-.45l.47-1.66.69-2.39Z"/>
          <path class="cls-2" d="m334.25,228.06l-.91,1.54c-.05.16-.08.32-.13.48l1.33-2.27c.39-.65.72-1.31,1.01-1.97l-1.3,2.22Z"/>
          <path class="cls-8" d="m307.63,196.77l11.82,3.16c14.08,3.76,20.7,15.49,16.1,25.92l.04-.07c6.49-10.98-.03-24.12-15.11-28.15l-11.88-3.17c-15.09-4.03-30.43,3.27-33.79,15.09l-.02.08c4.43-10.47,18.77-16.61,32.85-12.84Z"/>
        </g>
      </g>
      <path class="cls-15" d="m329.03,209.95c3.65,4.66,4.83,10.35,3,15.78l-31.94,54.93c-3.19,5.49-13.42,7.62-22.94,5.08l-7.49-2c-3.52-.94-6.6-2.43-9.03-4.22,2.59,2.57,6.46,4.75,11.07,5.98l7.47,2c9.48,2.53,19.71.42,22.92-5.02l32.14-54.43c2.19-6.4.16-13.15-5.21-18.12Z"/>
      <path class="cls-21" d="m326.59,226.52c.05-.03.09-.05.13-.07l-22.63,45.71s-.02-.05-.03-.08h0c-3.16-8.75,11.16-38.94,22.53-45.56Z"/>
      <path class="cls-21" d="m282.24,214.68c3.87,10.69-8.22,41.48-17.51,46.89.03-.12.08-.24.12-.36l.08-.36,17.27-46.29s.02.08.05.12Z"/>
      <path class="cls-21" d="m304.06,272.07h0c-3.09,5.46-13.64,7.52-23.99,4.76-10.35-2.76-17.12-9.46-15.34-15.26,9.39-5.19,35.9,1.89,39.33,10.5Z"/>
      <path class="cls-5" d="m264.89,265.94c1.59,4.48,7.34,8.8,15.17,10.89,7.83,2.09,15.74,1.42,20.47-1.37-5.5-7.04-25.83-12.47-35.65-9.52Z"/>
      <path class="cls-8" d="m306.11,279.94c-3,.22-5.68-.13-6.01-.78-.34-.66,1.84-1.4,4.91-1.64,3.1-.25,5.88.11,6.15.8.27.68-2.01,1.4-5.05,1.63Z"/>
      <path class="cls-8" d="m255.56,266.44c2.21,1.62,4.6,2.62,5.37,2.26.78-.36-.38-1.99-2.62-3.65-2.27-1.68-4.75-2.73-5.5-2.32-.74.41.51,2.07,2.75,3.71Z"/>
      <path class="cls-15" d="m331.97,232.01l-16.91,28.62c-.55-3.74-.41-7.4.31-10.94,5.38-7.24,11.68-13.38,16.6-17.68Z"/>
    </g>
  </g>
  <g>
    <path class="cls-18" d="m215.37,213.95c-2.39-3.91-7.37-7.9-17.29-10.54-.48-.12-.97-.25-1.48-.37l-1.73-.42c-.51-.12-1.01-.24-1.5-.34-10.09-2.17-17.06-1.06-21.82,1.13-7.58,3.5-9.53,9.73-9.53,9.73l-16.34,42.08-10.58-2.54-1.66,4.28,10.59,2.55-4.68,21.1c-1.52,3.92.27,7.96,4.08,9.9.7.36,1.47.65,2.31.85l13.42,3.23,1.73.42,13.42,3.23c.83.2,1.67.3,2.51.31h0c4.53.07,8.88-2.49,10.41-6.41l11.11-19.55,10.04,2.42,1.66-4.28-10.04-2.41,16.34-42.08s2.81-6.03-.99-12.26Z"/>
    <g>
      <g>
        <g>
          <g>
            <path class="cls-14" d="m142.42,257.59l9.24-23.81c-4.57,11.78-6.47,22.76-6.47,22.76,3.7,4.48,10.24,8.31,18.43,10.28,8.18,1.97,16.33,1.66,22.58-.41,0,0,5.84-9.32,10.36-20.61l-8.81,22.7-11.32,20.1c-.91,2.35-2.79,4.22-5.09,5.37h0c-.84-.01-1.68-.12-2.51-.32l-13.42-3.23-1.73-.42-13.42-3.23c-.84-.2-1.61-.49-2.31-.85-1.1-1.97-1.32-4.34-.41-6.69l4.88-21.65Z"/>
            <path class="cls-1" d="m156.54,208.57s1.95-6.24,9.53-9.73h0s-.38,4.4-.38,4.4c-3.72,3.3-4.83,6.84-4.83,6.84l-9.2,23.7-9.24,23.81-4.88,21.65c-.91,2.35-.69,4.72.41,6.69-3.81-1.94-5.6-5.98-4.08-9.9l4.68-21.13,17.99-46.33Z"/>
            <path class="cls-17" d="m145.2,256.54s1.89-10.98,6.47-22.76c3.11-8,7.45-16.37,13.28-21.9l5.39,2.83-12.53,32.29.36.09-12.96,9.45Z"/>
            <path class="cls-17" d="m163.63,266.82c-8.19-1.97-14.73-5.81-18.43-10.28l12.96-9.45,12.01,2.89,12.01,2.89,4.03,13.54c-6.26,2.08-14.4,2.38-22.58.41Z"/>
            <path class="cls-17" d="m170.34,214.71l-5.39-2.83s7.05-5.05,17.29-4.69l8.03,1.87c8.97,4.19,11.28,11.63,11.28,11.63l-6.49-.03-.35-.08-24.38-5.87Z"/>
            <path class="cls-1" d="m166.07,198.84c4.76-2.19,11.72-3.3,21.82-1.13.81.21,1.58.43,2.32.66-12.87-2.25-20.33,1.16-24.51,4.87l.38-4.39h0Z"/>
            <path class="cls-11" d="m190.2,198.37c-.74-.22-1.51-.45-2.32-.66.49.11.99.22,1.5.34l1.73.42c.51.12,1,.25,1.48.37-.82-.18-1.61-.33-2.39-.47Z"/>
            <path class="cls-1" d="m207.06,213.2c-.83-4.92-4.59-11.03-16.86-14.83.77.14,1.57.29,2.39.47,9.92,2.64,14.9,6.63,17.29,10.54h-.01s-2.81,3.82-2.81,3.82Z"/>
            <path class="cls-1" d="m171.35,293.97c2.3-1.15,4.17-3.02,5.09-5.37l11.32-20.1,8.81-22.7c.34-.86.68-1.73,1.01-2.61l8.62-22.19s1.59-3.42.86-7.79l2.81-3.81h.01c3.8,6.23.99,12.26.99,12.26l-17.99,46.33-11.13,19.58c-1.52,3.92-5.88,6.48-10.41,6.41Z"/>
            <path class="cls-17" d="m186.21,266.41l-4.03-13.54,12.54-32.29.35.08,6.49.03c.85,6.7-1.16,14.91-3.97,22.5l-1.01,2.61c-4.52,11.29-10.36,20.61-10.36,20.61Z"/>
            <path class="cls-11" d="m196.57,245.8l1.01-2.61c-.33.88-.67,1.75-1.01,2.61Z"/>
          </g>
          <path class="cls-14" d="m157.92,246.26l25.05,6.03,4.34,14.56-.73.24c-6.69,2.22-15.15,2.38-23.22.44-8.08-1.94-14.98-5.8-18.94-10.59l-.43-.52,13.93-10.16Zm23.48,7.18l-22.99-5.53-11.98,8.74c3.78,4.26,10.11,7.7,17.48,9.47,7.37,1.77,15.05,1.71,21.22-.16l-3.73-12.52Z"/>
        </g>
        <polygon class="cls-1" points="142.08 251.11 129.62 248.11 127.96 252.39 141.15 255.56 142.08 251.11"/>
        <polygon class="cls-1" points="192.11 263.15 204.57 266.15 202.91 270.42 189.71 267.25 192.11 263.15"/>
      </g>
      <path class="cls-14" d="m207.06,213.2c-.83-4.92-4.59-11.03-16.86-14.83-12.87-2.25-20.33,1.16-24.51,4.87-3.72,3.3-4.83,6.84-4.83,6.84l-9.2,23.7c3.11-8,7.45-16.37,13.28-21.9,0,0,.77-.55,2.16-1.27l3.07,4.54-12.36,31.85.36.09,12.18,2.93,12.18,2.93,12.24-31.52,6.02-2.52c.55,1.08.77,1.78.77,1.78.85,6.7-1.16,14.91-3.97,22.5l8.62-22.19s1.59-3.42.86-7.79Zm-13.89,6.24l-19.98-4.81-3.51-5.2c3.05-1.23,7.4-2.42,12.56-2.24l8.03,1.87c4.71,2.2,7.57,5.28,9.24,7.72l-6.34,2.65Z"/>
    </g>
  </g>
  <g>
    <path class="cls-12" d="m93.5,208.29c-2.39-3.91-7.38-7.9-17.29-10.54-.48-.12-.97-.25-1.48-.37l-1.73-.42c-.51-.12-1.01-.24-1.5-.34-10.09-2.17-17.06-1.06-21.82,1.13-7.58,3.5-9.53,9.73-9.53,9.73l-16.52,42.58-14.39-3.46-2.22,5.73,14.7,3.54-4.23,19.08c-1.52,3.92.27,7.96,4.08,9.9.7.36,1.48.65,2.31.85l13.42,3.23,1.73.42,13.42,3.23c.83.2,1.67.3,2.51.31h0c4.53.07,8.88-2.49,10.4-6.41l10.94-19.26,13.99,3.28,2.17-5.74-13.89-3.25,15.89-40.94s2.81-6.03-.99-12.26Z"/>
    <g>
      <g>
        <g>
          <g>
            <path class="cls-6" d="m19.03,251.22l9.24-23.81c-4.57,11.78-6.46,22.76-6.46,22.76,3.7,4.47,10.25,8.31,18.43,10.28,8.18,1.97,16.33,1.66,22.58-.42,0,0,5.84-9.32,10.36-20.61l-8.81,22.7-11.32,20.1c-.91,2.35-2.79,4.22-5.09,5.37h0c-.84-.01-1.68-.11-2.51-.31l-13.42-3.23-1.73-.42-13.42-3.23c-.84-.2-1.61-.49-2.31-.85-1.1-1.97-1.32-4.34-.41-6.69l4.88-21.65Z"/>
            <path class="cls-4" d="m33.14,202.2s1.95-6.24,9.53-9.73h0s-.38,4.4-.38,4.4c-3.72,3.3-4.83,6.84-4.83,6.84l-9.2,23.7-9.24,23.81-4.88,21.65c-.91,2.35-.69,4.72.41,6.69-3.81-1.94-5.61-5.98-4.08-9.9l4.68-21.13,17.98-46.33Z"/>
            <path class="cls-17" d="m21.8,250.17s1.89-10.98,6.46-22.76c3.11-8,7.44-16.37,13.28-21.9l5.39,2.83-12.53,32.29.36.09-12.96,9.45Z"/>
            <path class="cls-17" d="m40.24,260.45c-8.19-1.97-14.73-5.81-18.43-10.28l12.96-9.45,12.01,2.89,12.01,2.89,4.04,13.54c-6.26,2.08-14.4,2.38-22.58.42Z"/>
            <path class="cls-17" d="m46.94,208.34l-5.39-2.83s7.05-5.05,17.29-4.69l8.04,1.87c8.98,4.18,11.28,11.62,11.28,11.62l-6.49-.03-.35-.08-24.38-5.86Z"/>
            <path class="cls-4" d="m42.67,192.47c4.76-2.19,11.72-3.3,21.82-1.13.81.21,1.58.43,2.32.66-12.87-2.25-20.33,1.16-24.51,4.87l.38-4.39h0Z"/>
            <path class="cls-9" d="m66.8,192c-.74-.22-1.51-.45-2.32-.66.48.11.99.22,1.5.34l1.73.42c.51.12,1,.25,1.48.37-.82-.18-1.62-.33-2.39-.47Z"/>
            <path class="cls-4" d="m83.66,206.83c-.83-4.92-4.59-11.03-16.86-14.83.77.14,1.57.29,2.39.47,9.92,2.64,14.9,6.63,17.29,10.54h-.01s-2.8,3.82-2.8,3.82Z"/>
            <path class="cls-4" d="m47.96,287.6c2.3-1.15,4.17-3.02,5.09-5.37l11.32-20.1,8.81-22.7c.34-.86.68-1.73,1.01-2.61l8.61-22.2s1.59-3.42.86-7.79l2.8-3.81h.01c3.8,6.23.99,12.26.99,12.26l-17.98,46.33-11.13,19.58c-1.52,3.92-5.88,6.48-10.41,6.42Z"/>
            <path class="cls-17" d="m62.82,260.04l-4.04-13.54,12.53-32.29.35.08,6.49.03c.85,6.7-1.16,14.91-3.97,22.5l-1.01,2.61c-4.52,11.29-10.36,20.61-10.36,20.61Z"/>
            <path class="cls-9" d="m73.18,239.43l1.01-2.61c-.33.88-.67,1.75-1.01,2.61Z"/>
          </g>
          <path class="cls-6" d="m34.52,239.89l25.05,6.02,4.34,14.56-.73.24c-6.69,2.22-15.15,2.38-23.22.44-8.08-1.94-14.98-5.8-18.94-10.58l-.43-.52,13.93-10.16Zm23.48,7.18l-23-5.53-11.98,8.74c3.78,4.26,10.11,7.7,17.48,9.47,7.37,1.77,15.05,1.71,21.22-.16l-3.73-12.52Z"/>
        </g>
        <polygon class="cls-4" points="18.91 245.33 2.22 241.32 0 247.05 17.68 251.3 18.91 245.33"/>
        <polygon class="cls-4" points="68.75 255.55 85.47 259.46 83.3 265.21 65.59 261.06 68.75 255.55"/>
      </g>
      <path class="cls-6" d="m83.66,206.83c-.83-4.92-4.59-11.03-16.86-14.83-12.87-2.25-20.33,1.16-24.51,4.87-3.72,3.3-4.83,6.84-4.83,6.84l-9.2,23.7c3.11-8,7.44-16.37,13.28-21.9,0,0,.77-.55,2.16-1.27l3.07,4.54-12.36,31.85.36.09,12.18,2.93,12.18,2.93,12.23-31.52,6.02-2.52c.55,1.08.77,1.78.77,1.78.85,6.7-1.16,14.91-3.97,22.5l8.61-22.2s1.59-3.42.86-7.79Zm-13.89,6.24l-19.98-4.81-3.51-5.2c3.05-1.23,7.4-2.42,12.56-2.24l8.04,1.87c4.71,2.2,7.57,5.28,9.24,7.72l-6.34,2.65Z"/>
    </g>
  </g>
  <g>
    <path class="cls-18" d="m468.47,231.91l.53-1.48c.18-.49.31-.99.4-1.48l.02-.05c.09-.24.07-.49.13-.73l.67-1.84c.47-7.23-7.87-14.63-20.16-17.16l-10.8-2.22c-12.29-2.52-24.17.73-28.25,7.22l-.57,1.88c-.09.23-.26.43-.33.67l-.02.05h0s-.51,1.69-.51,1.69l-.34,1.14h0l.34-1.14.51-1.69c-.23.47-.42.95-.57,1.45l-.42,1.39c-1.57,0-3.45,1.64-4.4,4.03-1.04,2.62-.54,5.04,1.11,5.38.19.04.41-.05.61-.06l-6.32,21.06c-1.49.46-3.1,2.16-3.99,4.45-1.09,2.79-.66,5.31.9,5.85l-1.7,5.66c-.24-.16-.42-.32-.68-.48-2.78-1.74-5.8-2.77-6.71-2.3-.91.47.6,2.23,3.35,3.94,1.09.68,2.19,1.2,3.21,1.61l-.88,2.93c-2.09,6.97,6.45,14.71,18.94,17.28l9.85,2.02c12.5,2.57,24.75-.9,27.26-7.78l1.11-3.05c.93-.01,1.91-.06,2.94-.19,3.47-.43,5.88-1.39,5.38-2.15-.51-.76-3.76-1.02-7.25-.58l1.96-5.39c1.6-.18,3.31-2.06,4.04-4.7.59-2.13.35-4.07-.46-5.14l7.61-20.91c.08.03.13.11.21.12,1.66.34,3.59-1.58,4.31-4.26.61-2.27.12-4.28-1.04-5.04Zm.33-1.29l-.43,1.17s0,.04,0,.06c0,0-.01,0-.02-.01l.45-1.22Z"/>
    <g>
      <path class="cls-21" d="m396.79,217.4c-1.04,2.62-.54,5.04,1.11,5.38,1.66.34,3.82-1.53,4.83-4.16,1-2.6.48-4.96-1.14-5.3-1.63-.33-3.77,1.48-4.8,4.08Z"/>
      <path class="cls-21" d="m388.2,248.22c-1.14,2.92-.65,5.61,1.1,5.97,1.75.36,4.07-1.75,5.18-4.68,1.1-2.9.59-5.52-1.13-5.87-1.72-.35-4.02,1.69-5.15,4.58Z"/>
      <path class="cls-21" d="m461.59,230.71c-.72,2.68-2.66,4.6-4.31,4.26-1.66-.34-2.38-2.81-1.63-5.48.75-2.65,2.66-4.51,4.29-4.18,1.63.33,2.37,2.74,1.65,5.4Z"/>
      <path class="cls-21" d="m449.91,260.9c-.82,2.99-2.92,5.14-4.67,4.78-1.75-.36-2.47-3.09-1.61-6.07.85-2.95,2.92-5.04,4.64-4.68,1.72.35,2.45,3.01,1.64,5.97Z"/>
      <path class="cls-10" d="m460.88,224.38l-19.13,52.58c-2.51,6.89-14.76,10.35-27.26,7.78l-9.85-2.02c-12.5-2.57-21.04-10.3-18.94-17.28l15.98-53.23c4.08-6.49,15.96-9.74,28.25-7.21l10.8,2.22c12.29,2.52,20.63,9.93,20.16,17.16Z"/>
      <g>
        <path class="cls-10" d="m429.92,205l10.8,2.22c12.08,2.48,20.32,9.68,20.15,16.79l1.43-3.92c.47-7.23-7.87-14.63-20.16-17.16l-10.8-2.22c-12.29-2.52-24.17.73-28.25,7.22l-1.19,3.98c4.27-6.27,15.93-9.38,28.02-6.9Z"/>
        <g>
          <g>
            <path class="cls-13" d="m441.99,203.24c13.6,2.8,22.36,11.58,19.5,19.42l-.62,1.72c.47-7.23-7.87-14.63-20.16-17.16l-10.8-2.22c-12.29-2.53-24.17.73-28.25,7.21l.53-1.74c2.38-7.94,15.47-12.23,29.08-9.43l10.72,2.2Z"/>
            <path class="cls-20" d="m453.57,223.16s-.06.04-.1.06h0s.07-.04.1-.06Z"/>
            <path class="cls-21" d="m453.46,223.21h0c-9.38,4.92-38.59-1.08-43.73-8.98h0c2.43-5.15,13.41-7.31,24.99-4.94,11.58,2.38,19.81,8.49,18.74,13.91Z"/>
            <path class="cls-20" d="m409.74,214.22h0s-.04-.05-.06-.08c.02.02.03.06.06.08Z"/>
          </g>
          <g>
            <path class="cls-16" d="m402.18,210.53c-.23.47-.42.95-.57,1.45l-.53,1.75c.07-.11.16-.21.23-.32l.36-1.19.51-1.69Z"/>
            <path class="cls-16" d="m460.88,224.38l-.43,1.17c0,.12.01.25,0,.37l.62-1.73c.18-.49.31-.99.4-1.48l-.6,1.67Z"/>
            <path class="cls-10" d="m430.79,202.48l10.75,2.21c12.8,2.63,21.3,10.55,19.95,18.03l.02-.05c2.85-7.84-5.9-16.62-19.5-19.42l-10.72-2.2c-13.6-2.79-26.7,1.5-29.08,9.43l-.02.05c3.46-7.04,15.8-10.68,28.6-8.05Z"/>
          </g>
        </g>
        <path class="cls-21" d="m453.46,223.21s.07-.03.1-.06l-12.07,41.9s-.04-.06-.06-.08h0c-5.5-9.1,2.81-36.6,12.02-41.76Z"/>
        <path class="cls-21" d="m409.73,214.23c4.84,8.05-4.95,35.25-15.39,41.06.04-.13.08-.26.13-.38l.07-.38,15.13-40.38s.03.06.06.09Z"/>
        <path class="cls-21" d="m441.44,264.97h0c-2.25,6.26-14.32,9.25-27.32,6.58-13-2.67-21.69-9.93-19.78-16.25,10.56-5.6,41.33.72,47.1,9.67Z"/>
        <path class="cls-3" d="m394.74,259.96c2.17,4.9,9.55,9.57,19.38,11.59,9.83,2.02,19.16.79,24.08-2.66-7.8-7.48-32.03-12.46-43.46-8.93Z"/>
      </g>
      <path class="cls-13" d="m443.16,272.67c-2.51,6.89-14.76,10.35-27.26,7.78l-9.85-2.02c-12.5-2.57-21.04-10.3-18.94-17.27l.07-.24-.13-.03-1.37,4.55c-2.09,6.97,6.45,14.71,18.94,17.28l9.85,2.02c12.5,2.57,24.75-.9,27.26-7.78l1.64-4.5-.13-.03-.08.23Z"/>
      <path class="cls-13" d="m445.79,273.72c-3.45.43-6.68.18-7.22-.57-.55-.75,1.82-1.72,5.31-2.16,3.51-.44,6.78-.18,7.29.58.5.76-1.91,1.72-5.38,2.15Z"/>
      <path class="cls-13" d="m383.36,260.9c2.74,1.7,5.71,2.72,6.65,2.28.95-.44-.52-2.2-3.29-3.93-2.78-1.74-5.8-2.77-6.71-2.3-.91.47.6,2.23,3.35,3.94Z"/>
    </g>
  </g>
  <rect class="cls-7" x="31.88" y="479.16" width="445.87" height="7.05"/>
  <g>
    <polygon class="cls-7" points="95.87 485.75 87.75 483.7 135.44 366.89 143.56 368.94 95.87 485.75"/>
    <polygon class="cls-7" points="216.39 485.75 208.27 483.7 255.97 366.89 264.09 368.94 216.39 485.75"/>
    <polygon class="cls-7" points="336.92 485.75 328.8 483.7 376.5 366.89 384.62 368.94 336.92 485.75"/>
  </g>
  <g>
    <path class="cls-18" d="m345.36,390.46c-3.01-3.48-7.46-6.27-13.12-7.78l-11.88-3.17c-15.09-4.03-30.43,3.27-33.79,15.09l-.02.08c-.28.67-.52,1.35-.72,2.05l-.56,1.94c-1.6.01-3.64,2.29-4.75,5.5-1.18,3.43-.83,6.51.77,6.94.14.04.31-.06.46-.06l-6.21,21.83c.07-.05.12-.12.18-.17l-.68,2.4c-1.32.45-2.76,2.17-3.58,4.46-.97,2.74-.63,5.19.67,5.75l-1.49,5.25c-.19-.15-.34-.3-.55-.46-2.27-1.68-4.75-2.73-5.5-2.32-.74.41.51,2.07,2.75,3.71.88.64,1.77,1.15,2.59,1.55l-.73,2.56c-.87,3.05.51,6.28,3.33,9.04-.03-.02-.08-.04-.11-.06.06.06.15.1.21.16,1.25,1.21,2.75,2.33,4.51,3.3.07.04.15.07.23.11,1.84.98,3.89,1.82,6.12,2.42l7.47,2c9.48,2.53,19.71.42,22.92-5.01l1.48-2.51c.79.03,1.62.03,2.52-.04,3.04-.23,5.32-.95,5.05-1.63-.27-.68-3.03-1.04-6.12-.8l2.78-4.71c1.45-.1,3.37-1.77,4.63-4.21,1.03-2.01,1.28-3.9.79-4.97l1.81-3.07s0,.05,0,.08l11.48-19.44c.06.02.08.1.14.12,1.6.42,4.26-1.85,5.98-5.14,1.49-2.85,1.71-5.43.74-6.42l1.14-1.94c.38-.65.72-1.3,1.01-1.97l.05-.08c4.05-6.86,3.03-14.57-1.99-20.37Zm-.3,24.27l.04-.06s-.01.05-.02.08c0,0-.01,0-.02-.01Z"/>
    <g>
      <path class="cls-21" d="m271.97,399.61c-1.18,3.43-.83,6.51.77,6.94,1.59.43,3.87-1.96,5.1-5.37,1.25-3.47.95-6.69-.7-7.13-1.65-.44-3.97,2.08-5.17,5.56Z"/>
      <path class="cls-21" d="m262.9,435.01c-1.01,2.87-.63,5.48.83,5.87,1.46.39,3.49-1.58,4.54-4.43,1.07-2.9.73-5.61-.77-6.01-1.5-.4-3.57,1.67-4.59,4.58Z"/>
      <path class="cls-21" d="m335.88,416.68c-1.72,3.28-4.38,5.56-5.98,5.14-1.59-.43-1.56-3.4.11-6.7,1.7-3.35,4.43-5.76,6.07-5.32,1.65.44,1.54,3.55-.21,6.89Z"/>
      <path class="cls-21" d="m315.66,449.11c-1.42,2.76-3.73,4.65-5.19,4.26-1.46-.39-1.54-2.92-.17-5.69,1.4-2.81,3.76-4.8,5.27-4.4,1.5.4,1.54,3.03.1,5.83Z"/>
      <path class="cls-8" d="m337.46,408.56l-32.14,54.43c-3.21,5.44-13.44,7.55-22.92,5.02l-7.47-2c-9.48-2.53-15.96-9.1-14.29-14.96l16.67-58.56c4.97-9.46,18.54-14.8,31.87-11.23l11.71,3.13c13.33,3.56,19.96,14.29,16.57,24.17Z"/>
      <path class="cls-15" d="m275.75,397.52l-8.77,30.8c3.34-2.7,6.06-5.67,8.23-8.82,1.35-8.32,1.11-16.21.54-21.98Z"/>
      <g>
        <g>
          <path class="cls-15" d="m323.7,378.12c15.08,4.03,21.6,17.17,15.11,28.15l-1.35,2.29c3.39-9.89-3.24-20.61-16.57-24.17l-11.71-3.13c-13.33-3.56-26.9,1.77-31.87,11.23l.71-2.46c3.36-11.82,18.71-19.12,33.79-15.09l11.88,3.17Z"/>
          <path class="cls-19" d="m329.94,406.95s-.08.05-.13.07h0s.09-.05.13-.07Z"/>
          <path class="cls-21" d="m329.81,407.02h0c-11.48,6.32-40.16-1.34-44.35-11.84h0c3.27-7.35,15.65-10.81,28-7.51,12.35,3.3,19.46,11.97,16.35,19.35Z"/>
          <path class="cls-19" d="m285.46,395.17h0s-.04-.07-.05-.11c.01.03.02.08.05.11Z"/>
        </g>
        <g>
          <path class="cls-2" d="m278,390.11c-.28.67-.53,1.35-.72,2.05l-.7,2.44c.08-.15.18-.3.27-.45l.47-1.66.69-2.39Z"/>
          <path class="cls-2" d="m337.46,408.56l-.91,1.54c-.05.16-.08.32-.13.48l1.33-2.27c.39-.65.72-1.31,1.01-1.97l-1.3,2.22Z"/>
          <path class="cls-8" d="m310.84,377.27l11.82,3.16c14.08,3.76,20.7,15.49,16.1,25.92l.04-.07c6.49-10.98-.03-24.12-15.11-28.15l-11.88-3.17c-15.09-4.03-30.43,3.27-33.79,15.09l-.02.08c4.43-10.47,18.77-16.61,32.85-12.84Z"/>
        </g>
      </g>
      <path class="cls-15" d="m332.25,390.45c3.65,4.66,4.83,10.35,3,15.78l-31.94,54.93c-3.19,5.49-13.42,7.62-22.94,5.08l-7.49-2c-3.52-.94-6.6-2.43-9.03-4.22,2.59,2.57,6.46,4.75,11.07,5.98l7.47,2c9.48,2.53,19.71.42,22.92-5.02l32.14-54.43c2.19-6.4.16-13.15-5.21-18.12Z"/>
      <path class="cls-21" d="m329.81,407.02c.05-.03.09-.05.13-.07l-22.63,45.71s-.02-.05-.03-.08h0c-3.16-8.75,11.16-38.94,22.53-45.56Z"/>
      <path class="cls-21" d="m285.46,395.18c3.87,10.69-8.22,41.48-17.51,46.89.03-.12.08-.24.12-.36l.08-.36,17.27-46.29s.02.08.05.12Z"/>
      <path class="cls-21" d="m307.28,452.57h0c-3.09,5.46-13.64,7.52-23.99,4.76-10.35-2.76-17.12-9.46-15.34-15.26,9.39-5.19,35.9,1.89,39.33,10.5Z"/>
      <path class="cls-5" d="m268.11,446.44c1.59,4.48,7.34,8.8,15.17,10.89,7.83,2.09,15.74,1.42,20.47-1.37-5.5-7.04-25.83-12.47-35.65-9.52Z"/>
      <path class="cls-8" d="m309.33,460.44c-3,.22-5.68-.13-6.01-.78-.34-.66,1.84-1.4,4.91-1.64,3.1-.25,5.88.11,6.15.8.27.68-2.01,1.4-5.05,1.63Z"/>
      <path class="cls-8" d="m258.78,446.94c2.21,1.62,4.6,2.62,5.37,2.26.78-.36-.38-1.99-2.62-3.65-2.27-1.68-4.75-2.73-5.5-2.32-.74.41.51,2.07,2.75,3.71Z"/>
      <path class="cls-15" d="m335.18,412.51l-16.91,28.62c-.55-3.74-.41-7.4.31-10.94,5.38-7.24,11.68-13.38,16.6-17.68Z"/>
    </g>
  </g>
  <g>
    <path class="cls-18" d="m218.59,394.45c-2.39-3.91-7.37-7.9-17.29-10.54-.48-.12-.97-.25-1.48-.37l-1.73-.42c-.51-.12-1.01-.24-1.5-.34-10.09-2.17-17.06-1.06-21.82,1.13-7.58,3.5-9.53,9.73-9.53,9.73l-16.34,42.08-10.58-2.54-1.66,4.28,10.59,2.55-4.68,21.1c-1.52,3.92.27,7.96,4.08,9.9.7.36,1.47.65,2.31.85l13.42,3.23,1.73.42,13.42,3.23c.83.2,1.67.3,2.51.31h0c4.53.07,8.88-2.49,10.41-6.41l11.11-19.55,10.04,2.42,1.66-4.28-10.04-2.41,16.34-42.08s2.81-6.03-.99-12.26Z"/>
    <g>
      <g>
        <g>
          <g>
            <path class="cls-14" d="m145.64,438.09l9.24-23.81c-4.57,11.78-6.47,22.76-6.47,22.76,3.7,4.48,10.24,8.31,18.43,10.28,8.18,1.97,16.33,1.66,22.58-.41,0,0,5.84-9.32,10.36-20.61l-8.81,22.7-11.32,20.1c-.91,2.35-2.79,4.22-5.09,5.37h0c-.84-.01-1.68-.12-2.51-.32l-13.42-3.23-1.73-.42-13.42-3.23c-.84-.2-1.61-.49-2.31-.85-1.1-1.97-1.32-4.34-.41-6.69l4.88-21.65Z"/>
            <path class="cls-1" d="m159.75,389.08s1.95-6.24,9.53-9.73h0s-.38,4.4-.38,4.4c-3.72,3.3-4.83,6.84-4.83,6.84l-9.2,23.7-9.24,23.81-4.88,21.65c-.91,2.35-.69,4.72.41,6.69-3.81-1.94-5.6-5.98-4.08-9.9l4.68-21.13,17.99-46.33Z"/>
            <path class="cls-17" d="m148.41,437.04s1.89-10.98,6.47-22.76c3.11-8,7.45-16.37,13.28-21.9l5.39,2.83-12.53,32.29.36.09-12.96,9.45Z"/>
            <path class="cls-17" d="m166.85,447.33c-8.19-1.97-14.73-5.81-18.43-10.28l12.96-9.45,12.01,2.89,12.01,2.89,4.03,13.54c-6.26,2.08-14.4,2.38-22.58.41Z"/>
            <path class="cls-17" d="m173.55,395.21l-5.39-2.83s7.05-5.05,17.29-4.69l8.03,1.87c8.97,4.19,11.28,11.63,11.28,11.63l-6.49-.03-.35-.08-24.38-5.87Z"/>
            <path class="cls-1" d="m169.29,379.34c4.76-2.19,11.72-3.3,21.82-1.13.81.21,1.58.43,2.32.66-12.87-2.25-20.33,1.16-24.51,4.87l.38-4.39h0Z"/>
            <path class="cls-11" d="m193.42,378.87c-.74-.22-1.51-.45-2.32-.66.49.11.99.22,1.5.34l1.73.42c.51.12,1,.25,1.48.37-.82-.18-1.61-.33-2.39-.47Z"/>
            <path class="cls-1" d="m210.28,393.7c-.83-4.92-4.59-11.03-16.86-14.83.77.14,1.57.29,2.39.47,9.92,2.64,14.9,6.63,17.29,10.54h-.01s-2.81,3.82-2.81,3.82Z"/>
            <path class="cls-1" d="m174.57,474.47c2.3-1.15,4.17-3.02,5.09-5.37l11.32-20.1,8.81-22.7c.34-.86.68-1.73,1.01-2.61l8.62-22.19s1.59-3.42.86-7.79l2.81-3.81h.01c3.8,6.23.99,12.26.99,12.26l-17.99,46.33-11.13,19.58c-1.52,3.92-5.88,6.48-10.41,6.41Z"/>
            <path class="cls-17" d="m189.43,446.91l-4.03-13.54,12.54-32.29.35.08,6.49.03c.85,6.7-1.16,14.91-3.97,22.5l-1.01,2.61c-4.52,11.29-10.36,20.61-10.36,20.61Z"/>
            <path class="cls-11" d="m199.79,426.3l1.01-2.61c-.33.88-.67,1.75-1.01,2.61Z"/>
          </g>
          <path class="cls-14" d="m161.14,426.76l25.05,6.03,4.34,14.56-.73.24c-6.69,2.22-15.15,2.38-23.22.44-8.08-1.94-14.98-5.8-18.94-10.59l-.43-.52,13.93-10.16Zm23.48,7.18l-22.99-5.53-11.98,8.74c3.78,4.26,10.11,7.7,17.48,9.47,7.37,1.77,15.05,1.71,21.22-.16l-3.73-12.52Z"/>
        </g>
        <polygon class="cls-1" points="145.29 431.61 132.83 428.61 131.17 432.89 144.37 436.06 145.29 431.61"/>
        <polygon class="cls-1" points="195.33 443.65 207.79 446.65 206.12 450.93 192.93 447.75 195.33 443.65"/>
      </g>
      <path class="cls-14" d="m210.28,393.7c-.83-4.92-4.59-11.03-16.86-14.83-12.87-2.25-20.33,1.16-24.51,4.87-3.72,3.3-4.83,6.84-4.83,6.84l-9.2,23.7c3.11-8,7.45-16.37,13.28-21.9,0,0,.77-.55,2.16-1.27l3.07,4.54-12.36,31.85.36.09,12.18,2.93,12.18,2.93,12.24-31.52,6.02-2.52c.55,1.08.77,1.78.77,1.78.85,6.7-1.16,14.91-3.97,22.5l8.62-22.19s1.59-3.42.86-7.79Zm-13.89,6.24l-19.98-4.81-3.51-5.2c3.05-1.23,7.4-2.42,12.56-2.24l8.03,1.87c4.71,2.2,7.57,5.28,9.24,7.72l-6.34,2.65Z"/>
    </g>
  </g>
  <g>
    <path class="cls-12" d="m96.71,388.79c-2.39-3.91-7.38-7.9-17.29-10.54-.48-.12-.97-.25-1.48-.37l-1.73-.42c-.51-.12-1.01-.24-1.5-.34-10.09-2.17-17.06-1.06-21.82,1.13-7.58,3.5-9.53,9.73-9.53,9.73l-16.52,42.58-14.39-3.46-2.22,5.73,14.7,3.54-4.23,19.08c-1.52,3.92.27,7.96,4.08,9.9.7.36,1.48.65,2.31.85l13.42,3.23,1.73.42,13.42,3.23c.83.2,1.67.3,2.51.31h0c4.53.07,8.88-2.49,10.4-6.41l10.94-19.26,13.99,3.28,2.17-5.74-13.89-3.25,15.89-40.94s2.81-6.03-.99-12.26Z"/>
    <g>
      <g>
        <g>
          <g>
            <path class="cls-6" d="m22.25,431.72l9.24-23.81c-4.57,11.78-6.46,22.76-6.46,22.76,3.7,4.47,10.25,8.31,18.43,10.28,8.18,1.97,16.33,1.66,22.58-.42,0,0,5.84-9.32,10.36-20.61l-8.81,22.7-11.32,20.1c-.91,2.35-2.79,4.22-5.09,5.37h0c-.84-.01-1.68-.11-2.51-.31l-13.42-3.23-1.73-.42-13.42-3.23c-.84-.2-1.61-.49-2.31-.85-1.1-1.97-1.32-4.34-.41-6.69l4.88-21.65Z"/>
            <path class="cls-4" d="m36.35,382.7s1.95-6.24,9.53-9.73h0s-.38,4.4-.38,4.4c-3.72,3.3-4.83,6.84-4.83,6.84l-9.2,23.7-9.24,23.81-4.88,21.65c-.91,2.35-.69,4.72.41,6.69-3.81-1.94-5.61-5.98-4.08-9.9l4.68-21.13,17.98-46.33Z"/>
            <path class="cls-17" d="m25.02,430.67s1.89-10.98,6.46-22.76c3.11-8,7.44-16.37,13.28-21.9l5.39,2.83-12.53,32.29.36.09-12.96,9.45Z"/>
            <path class="cls-17" d="m43.45,440.95c-8.19-1.97-14.73-5.81-18.43-10.28l12.96-9.45,12.01,2.89,12.01,2.89,4.04,13.54c-6.26,2.08-14.4,2.38-22.58.42Z"/>
            <path class="cls-17" d="m50.15,388.84l-5.39-2.83s7.05-5.05,17.29-4.69l8.04,1.87c8.98,4.18,11.28,11.62,11.28,11.62l-6.49-.03-.35-.08-24.38-5.86Z"/>
            <path class="cls-4" d="m45.89,372.97c4.76-2.19,11.72-3.3,21.82-1.13.81.21,1.58.43,2.32.66-12.87-2.25-20.33,1.16-24.51,4.87l.38-4.39h0Z"/>
            <path class="cls-9" d="m70.02,372.5c-.74-.22-1.51-.45-2.32-.66.48.11.99.22,1.5.34l1.73.42c.51.12,1,.25,1.48.37-.82-.18-1.62-.33-2.39-.47Z"/>
            <path class="cls-4" d="m86.88,387.33c-.83-4.92-4.59-11.03-16.86-14.83.77.14,1.57.29,2.39.47,9.92,2.64,14.9,6.63,17.29,10.54h-.01s-2.8,3.82-2.8,3.82Z"/>
            <path class="cls-4" d="m51.18,468.1c2.3-1.15,4.17-3.02,5.09-5.37l11.32-20.1,8.81-22.7c.34-.86.68-1.73,1.01-2.61l8.61-22.2s1.59-3.42.86-7.79l2.8-3.81h.01c3.8,6.23.99,12.26.99,12.26l-17.98,46.33-11.13,19.58c-1.52,3.92-5.88,6.48-10.41,6.42Z"/>
            <path class="cls-17" d="m66.04,440.54l-4.04-13.54,12.53-32.29.35.08,6.49.03c.85,6.7-1.16,14.91-3.97,22.5l-1.01,2.61c-4.52,11.29-10.36,20.61-10.36,20.61Z"/>
            <path class="cls-9" d="m76.39,419.93l1.01-2.61c-.33.88-.67,1.75-1.01,2.61Z"/>
          </g>
          <path class="cls-6" d="m37.74,420.39l25.05,6.02,4.34,14.56-.73.24c-6.69,2.22-15.15,2.38-23.22.44-8.08-1.94-14.98-5.8-18.94-10.58l-.43-.52,13.93-10.16Zm23.48,7.18l-23-5.53-11.98,8.74c3.78,4.26,10.11,7.7,17.48,9.47,7.37,1.77,15.05,1.71,21.22-.16l-3.73-12.52Z"/>
        </g>
        <polygon class="cls-4" points="22.13 425.83 5.44 421.82 3.22 427.55 20.89 431.8 22.13 425.83"/>
        <polygon class="cls-4" points="71.97 436.05 88.69 439.96 86.52 445.71 68.81 441.56 71.97 436.05"/>
      </g>
      <path class="cls-6" d="m86.88,387.33c-.83-4.92-4.59-11.03-16.86-14.83-12.87-2.25-20.33,1.16-24.51,4.87-3.72,3.3-4.83,6.84-4.83,6.84l-9.2,23.7c3.11-8,7.44-16.37,13.28-21.9,0,0,.77-.55,2.16-1.27l3.07,4.54-12.36,31.85.36.09,12.18,2.93,12.18,2.93,12.23-31.52,6.02-2.52c.55,1.08.77,1.78.77,1.78.85,6.7-1.16,14.91-3.97,22.5l8.61-22.2s1.59-3.42.86-7.79Zm-13.89,6.24l-19.98-4.81-3.51-5.2c3.05-1.23,7.4-2.42,12.56-2.24l8.04,1.87c4.71,2.2,7.57,5.28,9.24,7.72l-6.34,2.65Z"/>
    </g>
  </g>
  <g>
    <path class="cls-18" d="m471.69,412.41l.53-1.48c.18-.49.31-.99.4-1.48l.02-.05c.09-.24.07-.49.13-.73l.67-1.84c.47-7.23-7.87-14.63-20.16-17.16l-10.8-2.22c-12.29-2.52-24.17.73-28.25,7.22l-.57,1.88c-.09.23-.26.43-.33.67l-.02.05h0s-.51,1.69-.51,1.69l-.34,1.14h0l.34-1.14.51-1.69c-.23.47-.42.95-.57,1.45l-.42,1.39c-1.57,0-3.45,1.64-4.4,4.03-1.04,2.62-.54,5.04,1.11,5.38.19.04.41-.05.61-.06l-6.32,21.06c-1.49.46-3.1,2.16-3.99,4.45-1.09,2.79-.66,5.31.9,5.85l-1.7,5.66c-.24-.16-.42-.32-.68-.48-2.78-1.74-5.8-2.77-6.71-2.3-.91.47.6,2.23,3.35,3.94,1.09.68,2.19,1.2,3.21,1.61l-.88,2.93c-2.09,6.97,6.45,14.71,18.94,17.28l9.85,2.02c12.5,2.57,24.75-.9,27.26-7.78l1.11-3.05c.93-.01,1.91-.06,2.94-.19,3.47-.43,5.88-1.39,5.38-2.15-.51-.76-3.76-1.02-7.25-.58l1.96-5.39c1.6-.18,3.31-2.06,4.04-4.7.59-2.13.35-4.07-.46-5.14l7.61-20.91c.08.03.13.11.21.12,1.66.34,3.59-1.58,4.31-4.26.61-2.27.12-4.28-1.04-5.04Zm.33-1.29l-.43,1.17s0,.04,0,.06c0,0-.01,0-.02-.01l.45-1.22Z"/>
    <g>
      <path class="cls-21" d="m400.01,397.91c-1.04,2.62-.54,5.04,1.11,5.38,1.66.34,3.82-1.53,4.83-4.16,1-2.6.48-4.96-1.14-5.3-1.63-.33-3.77,1.48-4.8,4.08Z"/>
      <path class="cls-21" d="m391.42,428.72c-1.14,2.92-.65,5.61,1.1,5.97,1.75.36,4.07-1.75,5.18-4.68,1.1-2.9.59-5.52-1.13-5.87-1.72-.35-4.02,1.69-5.15,4.58Z"/>
      <path class="cls-21" d="m464.81,411.22c-.72,2.68-2.66,4.6-4.31,4.26-1.66-.34-2.38-2.81-1.63-5.48.75-2.65,2.66-4.51,4.29-4.18,1.63.33,2.37,2.74,1.65,5.4Z"/>
      <path class="cls-21" d="m453.13,441.4c-.82,2.99-2.92,5.14-4.67,4.78-1.75-.36-2.47-3.09-1.61-6.07.85-2.95,2.92-5.04,4.64-4.68,1.72.35,2.45,3.01,1.64,5.97Z"/>
      <path class="cls-10" d="m464.09,404.88l-19.13,52.58c-2.51,6.89-14.76,10.35-27.26,7.78l-9.85-2.02c-12.5-2.57-21.04-10.3-18.94-17.28l15.98-53.23c4.08-6.49,15.96-9.74,28.25-7.21l10.8,2.22c12.29,2.52,20.63,9.93,20.16,17.16Z"/>
      <g>
        <path class="cls-10" d="m433.14,385.5l10.8,2.22c12.08,2.48,20.32,9.68,20.15,16.79l1.43-3.92c.47-7.23-7.87-14.63-20.16-17.16l-10.8-2.22c-12.29-2.52-24.17.73-28.25,7.22l-1.19,3.98c4.27-6.27,15.93-9.38,28.02-6.9Z"/>
        <g>
          <g>
            <path class="cls-13" d="m445.21,383.74c13.6,2.8,22.36,11.58,19.5,19.42l-.62,1.72c.47-7.23-7.87-14.63-20.16-17.16l-10.8-2.22c-12.29-2.53-24.17.73-28.25,7.21l.53-1.74c2.38-7.94,15.47-12.23,29.08-9.43l10.72,2.2Z"/>
            <path class="cls-20" d="m456.78,403.66s-.06.04-.1.06h0s.07-.04.1-.06Z"/>
            <path class="cls-21" d="m456.68,403.71h0c-9.38,4.92-38.59-1.08-43.73-8.98h0c2.43-5.15,13.41-7.31,24.99-4.94,11.58,2.38,19.81,8.49,18.74,13.91Z"/>
            <path class="cls-20" d="m412.96,394.72h0s-.04-.05-.06-.08c.02.02.03.06.06.08Z"/>
          </g>
          <g>
            <path class="cls-16" d="m405.4,391.03c-.23.47-.42.95-.57,1.45l-.53,1.75c.07-.11.16-.21.23-.32l.36-1.19.51-1.69Z"/>
            <path class="cls-16" d="m464.09,404.88l-.43,1.17c0,.12.01.25,0,.37l.62-1.73c.18-.49.31-.99.4-1.48l-.6,1.67Z"/>
            <path class="cls-10" d="m434,382.98l10.75,2.21c12.8,2.63,21.3,10.55,19.95,18.03l.02-.05c2.85-7.84-5.9-16.62-19.5-19.42l-10.72-2.2c-13.6-2.79-26.7,1.5-29.08,9.43l-.02.05c3.46-7.04,15.8-10.68,28.6-8.05Z"/>
          </g>
        </g>
        <path class="cls-21" d="m456.68,403.71s.07-.03.1-.06l-12.07,41.9s-.04-.06-.06-.08h0c-5.5-9.1,2.81-36.6,12.02-41.76Z"/>
        <path class="cls-21" d="m412.95,394.73c4.84,8.05-4.95,35.25-15.39,41.06.04-.13.08-.26.13-.38l.07-.38,15.13-40.38s.03.06.06.09Z"/>
        <path class="cls-21" d="m444.66,445.47h0c-2.25,6.26-14.32,9.25-27.32,6.58-13-2.67-21.69-9.93-19.78-16.25,10.56-5.6,41.33.72,47.1,9.67Z"/>
        <path class="cls-3" d="m397.96,440.47c2.17,4.9,9.55,9.57,19.38,11.59,9.83,2.02,19.16.79,24.08-2.66-7.8-7.48-32.03-12.46-43.46-8.93Z"/>
      </g>
      <path class="cls-13" d="m446.38,453.18c-2.51,6.89-14.76,10.35-27.26,7.78l-9.85-2.02c-12.5-2.57-21.04-10.3-18.94-17.27l.07-.24-.13-.03-1.37,4.55c-2.09,6.97,6.45,14.71,18.94,17.28l9.85,2.02c12.5,2.57,24.75-.9,27.26-7.78l1.64-4.5-.13-.03-.08.23Z"/>
      <path class="cls-13" d="m449.01,454.23c-3.45.43-6.68.18-7.22-.57-.55-.75,1.82-1.72,5.31-2.16,3.51-.44,6.78-.18,7.29.58.5.76-1.91,1.72-5.38,2.15Z"/>
      <path class="cls-13" d="m386.58,441.4c2.74,1.7,5.71,2.72,6.65,2.28.95-.44-.52-2.2-3.29-3.93-2.78-1.74-5.8-2.77-6.71-2.3-.91.47.6,2.23,3.35,3.94Z"/>
    </g>
  </g>
  <g>
    <polygon class="cls-7" points="94.87 683.75 86.75 681.7 134.44 564.89 142.56 566.94 94.87 683.75"/>
    <polygon class="cls-7" points="215.39 683.75 207.27 681.7 254.97 564.89 263.09 566.94 215.39 683.75"/>
    <polygon class="cls-7" points="335.92 683.75 327.8 681.7 375.5 564.89 383.62 566.94 335.92 683.75"/>
  </g>
  <g>
    <path class="cls-18" d="m344.36,588.46c-3.01-3.48-7.46-6.27-13.12-7.78l-11.88-3.17c-15.09-4.03-30.43,3.27-33.79,15.09l-.02.08c-.28.67-.52,1.35-.72,2.05l-.56,1.94c-1.6.01-3.64,2.29-4.75,5.5-1.18,3.43-.83,6.51.77,6.94.14.04.31-.06.46-.06l-6.21,21.83c.07-.05.12-.12.18-.17l-.68,2.4c-1.32.45-2.76,2.17-3.58,4.46-.97,2.74-.63,5.19.67,5.75l-1.49,5.25c-.19-.15-.34-.3-.55-.46-2.27-1.68-4.75-2.73-5.5-2.32-.74.41.51,2.07,2.75,3.71.88.64,1.77,1.15,2.59,1.55l-.73,2.56c-.87,3.05.51,6.28,3.33,9.04-.03-.02-.08-.04-.11-.06.06.06.15.1.21.16,1.25,1.21,2.75,2.33,4.51,3.3.07.04.15.07.23.11,1.84.98,3.89,1.82,6.12,2.42l7.47,2c9.48,2.53,19.71.42,22.92-5.01l1.48-2.51c.79.03,1.62.03,2.52-.04,3.04-.23,5.32-.95,5.05-1.63-.27-.68-3.03-1.04-6.12-.8l2.78-4.71c1.45-.1,3.37-1.77,4.63-4.21,1.03-2.01,1.28-3.9.79-4.97l1.81-3.07s0,.05,0,.08l11.48-19.44c.06.02.08.1.14.12,1.6.42,4.26-1.85,5.98-5.14,1.49-2.85,1.71-5.43.74-6.42l1.14-1.94c.38-.65.72-1.3,1.01-1.97l.05-.08c4.05-6.86,3.03-14.57-1.99-20.37Zm-.3,24.27l.04-.06s-.01.05-.02.08c0,0-.01,0-.02-.01Z"/>
    <g>
      <path class="cls-21" d="m270.97,597.61c-1.18,3.43-.83,6.51.77,6.94,1.59.43,3.87-1.96,5.1-5.37,1.25-3.47.95-6.69-.7-7.13-1.65-.44-3.97,2.08-5.17,5.56Z"/>
      <path class="cls-21" d="m261.9,633.01c-1.01,2.87-.63,5.48.83,5.87,1.46.39,3.49-1.58,4.54-4.43,1.07-2.9.73-5.61-.77-6.01-1.5-.4-3.57,1.67-4.59,4.58Z"/>
      <path class="cls-21" d="m334.88,614.68c-1.72,3.28-4.38,5.56-5.98,5.14-1.59-.43-1.56-3.4.11-6.7,1.7-3.35,4.43-5.76,6.07-5.32,1.65.44,1.54,3.55-.21,6.89Z"/>
      <path class="cls-21" d="m314.66,647.11c-1.42,2.76-3.73,4.65-5.19,4.26-1.46-.39-1.54-2.92-.17-5.69,1.4-2.81,3.76-4.8,5.27-4.4,1.5.4,1.54,3.03.1,5.83Z"/>
      <path class="cls-8" d="m336.46,606.56l-32.14,54.43c-3.21,5.44-13.44,7.55-22.92,5.02l-7.47-2c-9.48-2.53-15.96-9.1-14.29-14.96l16.67-58.56c4.97-9.46,18.54-14.8,31.87-11.23l11.71,3.13c13.33,3.56,19.96,14.29,16.57,24.17Z"/>
      <path class="cls-15" d="m274.75,595.52l-8.77,30.8c3.34-2.7,6.06-5.67,8.23-8.82,1.35-8.32,1.11-16.21.54-21.98Z"/>
      <g>
        <g>
          <path class="cls-15" d="m322.7,576.12c15.08,4.03,21.6,17.17,15.11,28.15l-1.35,2.29c3.39-9.89-3.24-20.61-16.57-24.17l-11.71-3.13c-13.33-3.56-26.9,1.77-31.87,11.23l.71-2.46c3.36-11.82,18.71-19.12,33.79-15.09l11.88,3.17Z"/>
          <path class="cls-19" d="m328.94,604.95s-.08.05-.13.07h0s.09-.05.13-.07Z"/>
          <path class="cls-21" d="m328.81,605.02h0c-11.48,6.32-40.16-1.34-44.35-11.84h0c3.27-7.35,15.65-10.81,28-7.51,12.35,3.3,19.46,11.97,16.35,19.35Z"/>
          <path class="cls-19" d="m284.46,593.17h0s-.04-.07-.05-.11c.01.03.02.08.05.11Z"/>
        </g>
        <g>
          <path class="cls-2" d="m277,588.11c-.28.67-.53,1.35-.72,2.05l-.7,2.44c.08-.15.18-.3.27-.45l.47-1.66.69-2.39Z"/>
          <path class="cls-2" d="m336.46,606.56l-.91,1.54c-.05.16-.08.32-.13.48l1.33-2.27c.39-.65.72-1.31,1.01-1.97l-1.3,2.22Z"/>
          <path class="cls-8" d="m309.84,575.27l11.82,3.16c14.08,3.76,20.7,15.49,16.1,25.92l.04-.07c6.49-10.98-.03-24.12-15.11-28.15l-11.88-3.17c-15.09-4.03-30.43,3.27-33.79,15.09l-.02.08c4.43-10.47,18.77-16.61,32.85-12.84Z"/>
        </g>
      </g>
      <path class="cls-15" d="m331.25,588.45c3.65,4.66,4.83,10.35,3,15.78l-31.94,54.93c-3.19,5.49-13.42,7.62-22.94,5.08l-7.49-2c-3.52-.94-6.6-2.43-9.03-4.22,2.59,2.57,6.46,4.75,11.07,5.98l7.47,2c9.48,2.53,19.71.42,22.92-5.02l32.14-54.43c2.19-6.4.16-13.15-5.21-18.12Z"/>
      <path class="cls-21" d="m328.81,605.02c.05-.03.09-.05.13-.07l-22.63,45.71s-.02-.05-.03-.08h0c-3.16-8.75,11.16-38.94,22.53-45.56Z"/>
      <path class="cls-21" d="m284.46,593.18c3.87,10.69-8.22,41.48-17.51,46.89.03-.12.08-.24.12-.36l.08-.36,17.27-46.29s.02.08.05.12Z"/>
      <path class="cls-21" d="m306.28,650.57h0c-3.09,5.46-13.64,7.52-23.99,4.76-10.35-2.76-17.12-9.46-15.34-15.26,9.39-5.19,35.9,1.89,39.33,10.5Z"/>
      <path class="cls-5" d="m267.11,644.44c1.59,4.48,7.34,8.8,15.17,10.89,7.83,2.09,15.74,1.42,20.47-1.37-5.5-7.04-25.83-12.47-35.65-9.52Z"/>
      <path class="cls-8" d="m308.33,658.44c-3,.22-5.68-.13-6.01-.78-.34-.66,1.84-1.4,4.91-1.64,3.1-.25,5.88.11,6.15.8.27.68-2.01,1.4-5.05,1.63Z"/>
      <path class="cls-8" d="m257.78,644.94c2.21,1.62,4.6,2.62,5.37,2.26.78-.36-.38-1.99-2.62-3.65-2.27-1.68-4.75-2.73-5.5-2.32-.74.41.51,2.07,2.75,3.71Z"/>
      <path class="cls-15" d="m334.18,610.51l-16.91,28.62c-.55-3.74-.41-7.4.31-10.94,5.38-7.24,11.68-13.38,16.6-17.68Z"/>
    </g>
  </g>
  <g>
    <path class="cls-18" d="m217.59,592.45c-2.39-3.91-7.37-7.9-17.29-10.54-.48-.12-.97-.25-1.48-.37l-1.73-.42c-.51-.12-1.01-.24-1.5-.34-10.09-2.17-17.06-1.06-21.82,1.13-7.58,3.5-9.53,9.73-9.53,9.73l-16.34,42.08-10.58-2.54-1.66,4.28,10.59,2.55-4.68,21.1c-1.52,3.92.27,7.96,4.08,9.9.7.36,1.47.65,2.31.85l13.42,3.23,1.73.42,13.42,3.23c.83.2,1.67.3,2.51.31h0c4.53.07,8.88-2.49,10.41-6.41l11.11-19.55,10.04,2.42,1.66-4.28-10.04-2.41,16.34-42.08s2.81-6.03-.99-12.26Z"/>
    <g>
      <g>
        <g>
          <g>
            <path class="cls-14" d="m144.64,636.09l9.24-23.81c-4.57,11.78-6.47,22.76-6.47,22.76,3.7,4.48,10.24,8.31,18.43,10.28,8.18,1.97,16.33,1.66,22.58-.41,0,0,5.84-9.32,10.36-20.61l-8.81,22.7-11.32,20.1c-.91,2.35-2.79,4.22-5.09,5.37h0c-.84-.01-1.68-.12-2.51-.32l-13.42-3.23-1.73-.42-13.42-3.23c-.84-.2-1.61-.49-2.31-.85-1.1-1.97-1.32-4.34-.41-6.69l4.88-21.65Z"/>
            <path class="cls-1" d="m158.75,587.08s1.95-6.24,9.53-9.73h0s-.38,4.4-.38,4.4c-3.72,3.3-4.83,6.84-4.83,6.84l-9.2,23.7-9.24,23.81-4.88,21.65c-.91,2.35-.69,4.72.41,6.69-3.81-1.94-5.6-5.98-4.08-9.9l4.68-21.13,17.99-46.33Z"/>
            <path class="cls-17" d="m147.41,635.04s1.89-10.98,6.47-22.76c3.11-8,7.45-16.37,13.28-21.9l5.39,2.83-12.53,32.29.36.09-12.96,9.45Z"/>
            <path class="cls-17" d="m165.85,645.33c-8.19-1.97-14.73-5.81-18.43-10.28l12.96-9.45,12.01,2.89,12.01,2.89,4.03,13.54c-6.26,2.08-14.4,2.38-22.58.41Z"/>
            <path class="cls-17" d="m172.55,593.21l-5.39-2.83s7.05-5.05,17.29-4.69l8.03,1.87c8.97,4.19,11.28,11.63,11.28,11.63l-6.49-.03-.35-.08-24.38-5.87Z"/>
            <path class="cls-1" d="m168.29,577.34c4.76-2.19,11.72-3.3,21.82-1.13.81.21,1.58.43,2.32.66-12.87-2.25-20.33,1.16-24.51,4.87l.38-4.39h0Z"/>
            <path class="cls-11" d="m192.42,576.87c-.74-.22-1.51-.45-2.32-.66.49.11.99.22,1.5.34l1.73.42c.51.12,1,.25,1.48.37-.82-.18-1.61-.33-2.39-.47Z"/>
            <path class="cls-1" d="m209.28,591.7c-.83-4.92-4.59-11.03-16.86-14.83.77.14,1.57.29,2.39.47,9.92,2.64,14.9,6.63,17.29,10.54h-.01s-2.81,3.82-2.81,3.82Z"/>
            <path class="cls-1" d="m173.57,672.47c2.3-1.15,4.17-3.02,5.09-5.37l11.32-20.1,8.81-22.7c.34-.86.68-1.73,1.01-2.61l8.62-22.19s1.59-3.42.86-7.79l2.81-3.81h.01c3.8,6.23.99,12.26.99,12.26l-17.99,46.33-11.13,19.58c-1.52,3.92-5.88,6.48-10.41,6.41Z"/>
            <path class="cls-17" d="m188.43,644.91l-4.03-13.54,12.54-32.29.35.08,6.49.03c.85,6.7-1.16,14.91-3.97,22.5l-1.01,2.61c-4.52,11.29-10.36,20.61-10.36,20.61Z"/>
            <path class="cls-11" d="m198.79,624.3l1.01-2.61c-.33.88-.67,1.75-1.01,2.61Z"/>
          </g>
          <path class="cls-14" d="m160.14,624.76l25.05,6.03,4.34,14.56-.73.24c-6.69,2.22-15.15,2.38-23.22.44-8.08-1.94-14.98-5.8-18.94-10.59l-.43-.52,13.93-10.16Zm23.48,7.18l-22.99-5.53-11.98,8.74c3.78,4.26,10.11,7.7,17.48,9.47,7.37,1.77,15.05,1.71,21.22-.16l-3.73-12.52Z"/>
        </g>
        <polygon class="cls-1" points="144.29 629.61 131.83 626.61 130.17 630.89 143.37 634.06 144.29 629.61"/>
        <polygon class="cls-1" points="194.33 641.65 206.79 644.65 205.12 648.93 191.93 645.75 194.33 641.65"/>
      </g>
      <path class="cls-14" d="m209.28,591.7c-.83-4.92-4.59-11.03-16.86-14.83-12.87-2.25-20.33,1.16-24.51,4.87-3.72,3.3-4.83,6.84-4.83,6.84l-9.2,23.7c3.11-8,7.45-16.37,13.28-21.9,0,0,.77-.55,2.16-1.27l3.07,4.54-12.36,31.85.36.09,12.18,2.93,12.18,2.93,12.24-31.52,6.02-2.52c.55,1.08.77,1.78.77,1.78.85,6.7-1.16,14.91-3.97,22.5l8.62-22.19s1.59-3.42.86-7.79Zm-13.89,6.24l-19.98-4.81-3.51-5.2c3.05-1.23,7.4-2.42,12.56-2.24l8.03,1.87c4.71,2.2,7.57,5.28,9.24,7.72l-6.34,2.65Z"/>
    </g>
  </g>
  <g>
    <path class="cls-12" d="m95.71,586.79c-2.39-3.91-7.38-7.9-17.29-10.54-.48-.12-.97-.25-1.48-.37l-1.73-.42c-.51-.12-1.01-.24-1.5-.34-10.09-2.17-17.06-1.06-21.82,1.13-7.58,3.5-9.53,9.73-9.53,9.73l-16.52,42.58-14.39-3.46-2.22,5.73,14.7,3.54-4.23,19.08c-1.52,3.92.27,7.96,4.08,9.9.7.36,1.48.65,2.31.85l13.42,3.23,1.73.42,13.42,3.23c.83.2,1.67.3,2.51.31h0c4.53.07,8.88-2.49,10.4-6.41l10.94-19.26,13.99,3.28,2.17-5.74-13.89-3.25,15.89-40.94s2.81-6.03-.99-12.26Z"/>
    <g>
      <g>
        <g>
          <g>
            <path class="cls-6" d="m21.25,629.72l9.24-23.81c-4.57,11.78-6.46,22.76-6.46,22.76,3.7,4.47,10.25,8.31,18.43,10.28,8.18,1.97,16.33,1.66,22.58-.42,0,0,5.84-9.32,10.36-20.61l-8.81,22.7-11.32,20.1c-.91,2.35-2.79,4.22-5.09,5.37h0c-.84-.01-1.68-.11-2.51-.31l-13.42-3.23-1.73-.42-13.42-3.23c-.84-.2-1.61-.49-2.31-.85-1.1-1.97-1.32-4.34-.41-6.69l4.88-21.65Z"/>
            <path class="cls-4" d="m35.35,580.7s1.95-6.24,9.53-9.73h0s-.38,4.4-.38,4.4c-3.72,3.3-4.83,6.84-4.83,6.84l-9.2,23.7-9.24,23.81-4.88,21.65c-.91,2.35-.69,4.72.41,6.69-3.81-1.94-5.61-5.98-4.08-9.9l4.68-21.13,17.98-46.33Z"/>
            <path class="cls-17" d="m24.02,628.67s1.89-10.98,6.46-22.76c3.11-8,7.44-16.37,13.28-21.9l5.39,2.83-12.53,32.29.36.09-12.96,9.45Z"/>
            <path class="cls-17" d="m42.45,638.95c-8.19-1.97-14.73-5.81-18.43-10.28l12.96-9.45,12.01,2.89,12.01,2.89,4.04,13.54c-6.26,2.08-14.4,2.38-22.58.42Z"/>
            <path class="cls-17" d="m49.15,586.84l-5.39-2.83s7.05-5.05,17.29-4.69l8.04,1.87c8.98,4.18,11.28,11.62,11.28,11.62l-6.49-.03-.35-.08-24.38-5.86Z"/>
            <path class="cls-4" d="m44.89,570.97c4.76-2.19,11.72-3.3,21.82-1.13.81.21,1.58.43,2.32.66-12.87-2.25-20.33,1.16-24.51,4.87l.38-4.39h0Z"/>
            <path class="cls-9" d="m69.02,570.5c-.74-.22-1.51-.45-2.32-.66.48.11.99.22,1.5.34l1.73.42c.51.12,1,.25,1.48.37-.82-.18-1.62-.33-2.39-.47Z"/>
            <path class="cls-4" d="m85.88,585.33c-.83-4.92-4.59-11.03-16.86-14.83.77.14,1.57.29,2.39.47,9.92,2.64,14.9,6.63,17.29,10.54h-.01s-2.8,3.82-2.8,3.82Z"/>
            <path class="cls-4" d="m50.18,666.1c2.3-1.15,4.17-3.02,5.09-5.37l11.32-20.1,8.81-22.7c.34-.86.68-1.73,1.01-2.61l8.61-22.2s1.59-3.42.86-7.79l2.8-3.81h.01c3.8,6.23.99,12.26.99,12.26l-17.98,46.33-11.13,19.58c-1.52,3.92-5.88,6.48-10.41,6.42Z"/>
            <path class="cls-17" d="m65.04,638.54l-4.04-13.54,12.53-32.29.35.08,6.49.03c.85,6.7-1.16,14.91-3.97,22.5l-1.01,2.61c-4.52,11.29-10.36,20.61-10.36,20.61Z"/>
            <path class="cls-9" d="m75.39,617.93l1.01-2.61c-.33.88-.67,1.75-1.01,2.61Z"/>
          </g>
          <path class="cls-6" d="m36.74,618.39l25.05,6.02,4.34,14.56-.73.24c-6.69,2.22-15.15,2.38-23.22.44-8.08-1.94-14.98-5.8-18.94-10.58l-.43-.52,13.93-10.16Zm23.48,7.18l-23-5.53-11.98,8.74c3.78,4.26,10.11,7.7,17.48,9.47,7.37,1.77,15.05,1.71,21.22-.16l-3.73-12.52Z"/>
        </g>
        <polygon class="cls-4" points="21.13 623.83 4.44 619.82 2.22 625.55 19.89 629.8 21.13 623.83"/>
        <polygon class="cls-4" points="70.97 634.05 87.69 637.96 85.52 643.71 67.81 639.56 70.97 634.05"/>
      </g>
      <path class="cls-6" d="m85.88,585.33c-.83-4.92-4.59-11.03-16.86-14.83-12.87-2.25-20.33,1.16-24.51,4.87-3.72,3.3-4.83,6.84-4.83,6.84l-9.2,23.7c3.11-8,7.44-16.37,13.28-21.9,0,0,.77-.55,2.16-1.27l3.07,4.54-12.36,31.85.36.09,12.18,2.93,12.18,2.93,12.23-31.52,6.02-2.52c.55,1.08.77,1.78.77,1.78.85,6.7-1.16,14.91-3.97,22.5l8.61-22.2s1.59-3.42.86-7.79Zm-13.89,6.24l-19.98-4.81-3.51-5.2c3.05-1.23,7.4-2.42,12.56-2.24l8.04,1.87c4.71,2.2,7.57,5.28,9.24,7.72l-6.34,2.65Z"/>
    </g>
  </g>
  <g>
    <path class="cls-18" d="m470.69,610.41l.53-1.48c.18-.49.31-.99.4-1.48l.02-.05c.09-.24.07-.49.13-.73l.67-1.84c.47-7.23-7.87-14.63-20.16-17.16l-10.8-2.22c-12.29-2.52-24.17.73-28.25,7.22l-.57,1.88c-.09.23-.26.43-.33.67l-.02.05h0s-.51,1.69-.51,1.69l-.34,1.14h0l.34-1.14.51-1.69c-.23.47-.42.95-.57,1.45l-.42,1.39c-1.57,0-3.45,1.64-4.4,4.03-1.04,2.62-.54,5.04,1.11,5.38.19.04.41-.05.61-.06l-6.32,21.06c-1.49.46-3.1,2.16-3.99,4.45-1.09,2.79-.66,5.31.9,5.85l-1.7,5.66c-.24-.16-.42-.32-.68-.48-2.78-1.74-5.8-2.77-6.71-2.3-.91.47.6,2.23,3.35,3.94,1.09.68,2.19,1.2,3.21,1.61l-.88,2.93c-2.09,6.97,6.45,14.71,18.94,17.28l9.85,2.02c12.5,2.57,24.75-.9,27.26-7.78l1.11-3.05c.93-.01,1.91-.06,2.94-.19,3.47-.43,5.88-1.39,5.38-2.15-.51-.76-3.76-1.02-7.25-.58l1.96-5.39c1.6-.18,3.31-2.06,4.04-4.7.59-2.13.35-4.07-.46-5.14l7.61-20.91c.08.03.13.11.21.12,1.66.34,3.59-1.58,4.31-4.26.61-2.27.12-4.28-1.04-5.04Zm.33-1.29l-.43,1.17s0,.04,0,.06c0,0-.01,0-.02-.01l.45-1.22Z"/>
    <g>
      <path class="cls-21" d="m399.01,595.91c-1.04,2.62-.54,5.04,1.11,5.38,1.66.34,3.82-1.53,4.83-4.16,1-2.6.48-4.96-1.14-5.3-1.63-.33-3.77,1.48-4.8,4.08Z"/>
      <path class="cls-21" d="m390.42,626.72c-1.14,2.92-.65,5.61,1.1,5.97,1.75.36,4.07-1.75,5.18-4.68,1.1-2.9.59-5.52-1.13-5.87-1.72-.35-4.02,1.69-5.15,4.58Z"/>
      <path class="cls-21" d="m463.81,609.22c-.72,2.68-2.66,4.6-4.31,4.26-1.66-.34-2.38-2.81-1.63-5.48.75-2.65,2.66-4.51,4.29-4.18,1.63.33,2.37,2.74,1.65,5.4Z"/>
      <path class="cls-21" d="m452.13,639.4c-.82,2.99-2.92,5.14-4.67,4.78-1.75-.36-2.47-3.09-1.61-6.07.85-2.95,2.92-5.04,4.64-4.68,1.72.35,2.45,3.01,1.64,5.97Z"/>
      <path class="cls-10" d="m463.09,602.88l-19.13,52.58c-2.51,6.89-14.76,10.35-27.26,7.78l-9.85-2.02c-12.5-2.57-21.04-10.3-18.94-17.28l15.98-53.23c4.08-6.49,15.96-9.74,28.25-7.21l10.8,2.22c12.29,2.52,20.63,9.93,20.16,17.16Z"/>
      <g>
        <path class="cls-10" d="m432.14,583.5l10.8,2.22c12.08,2.48,20.32,9.68,20.15,16.79l1.43-3.92c.47-7.23-7.87-14.63-20.16-17.16l-10.8-2.22c-12.29-2.52-24.17.73-28.25,7.22l-1.19,3.98c4.27-6.27,15.93-9.38,28.02-6.9Z"/>
        <g>
          <g>
            <path class="cls-13" d="m444.21,581.74c13.6,2.8,22.36,11.58,19.5,19.42l-.62,1.72c.47-7.23-7.87-14.63-20.16-17.16l-10.8-2.22c-12.29-2.53-24.17.73-28.25,7.21l.53-1.74c2.38-7.94,15.47-12.23,29.08-9.43l10.72,2.2Z"/>
            <path class="cls-20" d="m455.78,601.66s-.06.04-.1.06h0s.07-.04.1-.06Z"/>
            <path class="cls-21" d="m455.68,601.71h0c-9.38,4.92-38.59-1.08-43.73-8.98h0c2.43-5.15,13.41-7.31,24.99-4.94,11.58,2.38,19.81,8.49,18.74,13.91Z"/>
            <path class="cls-20" d="m411.96,592.72h0s-.04-.05-.06-.08c.02.02.03.06.06.08Z"/>
          </g>
          <g>
            <path class="cls-16" d="m404.4,589.03c-.23.47-.42.95-.57,1.45l-.53,1.75c.07-.11.16-.21.23-.32l.36-1.19.51-1.69Z"/>
            <path class="cls-16" d="m463.09,602.88l-.43,1.17c0,.12.01.25,0,.37l.62-1.73c.18-.49.31-.99.4-1.48l-.6,1.67Z"/>
            <path class="cls-10" d="m433,580.98l10.75,2.21c12.8,2.63,21.3,10.55,19.95,18.03l.02-.05c2.85-7.84-5.9-16.62-19.5-19.42l-10.72-2.2c-13.6-2.79-26.7,1.5-29.08,9.43l-.02.05c3.46-7.04,15.8-10.68,28.6-8.05Z"/>
          </g>
        </g>
        <path class="cls-21" d="m455.68,601.71s.07-.03.1-.06l-12.07,41.9s-.04-.06-.06-.08h0c-5.5-9.1,2.81-36.6,12.02-41.76Z"/>
        <path class="cls-21" d="m411.95,592.73c4.84,8.05-4.95,35.25-15.39,41.06.04-.13.08-.26.13-.38l.07-.38,15.13-40.38s.03.06.06.09Z"/>
        <path class="cls-21" d="m443.66,643.47h0c-2.25,6.26-14.32,9.25-27.32,6.58-13-2.67-21.69-9.93-19.78-16.25,10.56-5.6,41.33.72,47.1,9.67Z"/>
        <path class="cls-3" d="m396.96,638.47c2.17,4.9,9.55,9.57,19.38,11.59,9.83,2.02,19.16.79,24.08-2.66-7.8-7.48-32.03-12.46-43.46-8.93Z"/>
      </g>
      <path class="cls-13" d="m445.38,651.18c-2.51,6.89-14.76,10.35-27.26,7.78l-9.85-2.02c-12.5-2.57-21.04-10.3-18.94-17.27l.07-.24-.13-.03-1.37,4.55c-2.09,6.97,6.45,14.71,18.94,17.28l9.85,2.02c12.5,2.57,24.75-.9,27.26-7.78l1.64-4.5-.13-.03-.08.23Z"/>
      <path class="cls-13" d="m448.01,652.23c-3.45.43-6.68.18-7.22-.57-.55-.75,1.82-1.72,5.31-2.16,3.51-.44,6.78-.18,7.29.58.5.76-1.91,1.72-5.38,2.15Z"/>
      <path class="cls-13" d="m385.58,639.4c2.74,1.7,5.71,2.72,6.65,2.28.95-.44-.52-2.2-3.29-3.93-2.78-1.74-5.8-2.77-6.71-2.3-.91.47.6,2.23,3.35,3.94Z"/>
    </g>
  </g>
</svg>