<?xml version="1.0" encoding="UTF-8"?>
<svg id="Layer_1" data-name="Layer 1" xmlns="http://www.w3.org/2000/svg" viewBox="0 0 1137.69 535.77">
  <defs>
    <style>
      .cls-1 {
        fill: #a7a9ac;
      }

      .cls-2 {
        fill: #cdcfd0;
      }

      .cls-3 {
        fill: #828487;
      }

      .cls-4 {
        fill: #603813;
      }

      .cls-5 {
        fill: #909294;
      }

      .cls-6 {
        fill: #f1c691;
      }

      .cls-7 {
        fill: #a67442;
      }

      .cls-8 {
        fill: #f9e7d1;
      }

      .cls-9 {
        fill: #6d6e70;
      }

      .cls-10 {
        fill: #8a5d3b;
      }
    </style>
  </defs>
  <path class="cls-3" d="m317.94,301.67v-100.72c25.69,13.97,25.69,86.75,0,100.72Z"/>
  <g>
    <g>
      <rect class="cls-4" x="301.18" y="364.35" width="7.08" height="38.06"/>
      <rect class="cls-4" x="278.53" y="364.35" width="7.08" height="38.06"/>
      <rect class="cls-4" x="255.88" y="364.35" width="7.08" height="38.06"/>
      <rect class="cls-4" x="233.23" y="364.35" width="7.08" height="38.06"/>
      <rect class="cls-4" x="210.58" y="364.35" width="7.08" height="38.06"/>
      <rect class="cls-4" x="187.93" y="364.35" width="7.08" height="38.06"/>
      <path class="cls-4" d="m168.05,362.93s6.15.95,6.17.76l-3.69,37.9c-.02.2-7.86-.94-7.86-.94l5.37-37.72Z"/>
      <polygon class="cls-4" points="148.55 359.19 154.58 360.65 145.52 397.74 137.84 395.89 148.55 359.19"/>
      <path class="cls-4" d="m129.72,353.15s1.44.56,2.91,1.04c1.46.5,2.93,1,2.93,1l-14.29,35.6s-1.86-.65-3.72-1.29c-1.87-.64-3.69-1.35-3.69-1.35l15.88-35Z"/>
      <polygon class="cls-4" points="112.06 344.5 117.38 347.55 98.13 381.02 91.33 377.17 112.06 344.5"/>
      <polygon class="cls-4" points="95.64 333.88 100.64 337.39 76.8 368.12 70.46 363.65 95.64 333.88"/>
      <path class="cls-4" d="m80.94,321.23s1.04,1.09,2.09,2.18c1.16.98,2.32,1.97,2.32,1.97l-27.98,27.46s-1.46-1.26-2.92-2.52c-1.34-1.38-2.67-2.75-2.67-2.75l29.17-26.34Z"/>
      <polygon class="cls-4" points="68.18 306.82 71.9 311.52 40.29 335.23 35.54 329.26 68.18 306.82"/>
      <polygon class="cls-4" points="57.39 291.05 60.63 296.06 25.93 315.57 21.85 309.17 57.39 291.05"/>
      <path class="cls-4" d="m49.28,273.93l2.17,5.49-37.16,14.95s-.76-1.72-1.43-3.48c-.69-1.75-1.37-3.51-1.37-3.51l37.8-13.45Z"/>
      <polygon class="cls-4" points="43.48 256.01 45.04 261.69 6.07 271.78 4.1 264.54 43.48 256.01"/>
      <path class="cls-4" d="m40.27,237.51c-.2.02.8,5.81.8,5.81l-40.05,5.06s-1.21-7.38-.99-7.4l40.24-3.47Z"/>
    </g>
    <path class="cls-9" d="m330.12,393.31h-142.62c-98.93,0-179.41-76.98-179.41-171.59h4.93c0,92.06,78.27,166.95,174.49,166.95h142.62v4.64Z"/>
    <path class="cls-9" d="m331.38,376.72h-150.33c-87.27,0-158.28-70.59-158.28-157.36h4.93c0,84.22,68.79,152.73,153.35,152.73h150.33v4.64Z"/>
  </g>
  <g>
    <g>
      <polygon class="cls-4" points="764.95 120.64 762.38 114.79 799.51 99.76 802.45 106.45 764.95 120.64"/>
      <polygon class="cls-4" points="772.22 139.72 770.1 133.7 808.33 121.37 810.74 128.23 772.22 139.72"/>
      <polygon class="cls-4" points="777.98 159.32 776.35 153.14 815.44 143.48 817.28 150.48 777.98 159.32"/>
      <polygon class="cls-4" points="782.27 179.29 781.08 173.02 820.79 165.97 822.14 173.06 782.27 179.29"/>
      <polygon class="cls-4" points="785.07 199.53 784.36 193.18 824.49 188.72 825.29 195.87 785.07 199.53"/>
      <polygon class="cls-4" points="786.46 219.93 786.18 213.55 826.54 211.62 826.86 218.79 786.46 219.93"/>
      <polygon class="cls-4" points="786.15 240.38 786.42 234 826.82 234.57 826.54 241.75 786.15 240.38"/>
      <polygon class="cls-4" points="784.7 260.77 785.49 254.43 825.77 257.52 824.9 264.66 784.7 260.77"/>
      <path class="cls-4" d="m781.82,280.99s1.31-6.25,1.15-6.28l39.96,5.65c.16.02-1.29,7.09-1.29,7.09l-39.83-6.46Z"/>
      <path class="cls-4" d="m777.49,300.95c.15.04,1.46-6.21,1.46-6.21l39.45,8.25s-1.5,7.06-1.66,7.03l-39.25-9.07Z"/>
      <polygon class="cls-4" points="771.67 320.53 773.48 314.41 812.19 325.31 810.11 332.25 771.67 320.53"/>
      <polygon class="cls-4" points="764.22 339.55 766.54 333.61 804.28 347.19 801.61 353.98 764.22 339.55"/>
      <polygon class="cls-4" points="755.29 357.92 758.1 352.19 794.61 368.51 791.35 375.08 755.29 357.92"/>
      <polygon class="cls-4" points="744.86 375.47 748.17 370.01 783.13 389.1 779.27 395.42 744.86 375.47"/>
      <polygon class="cls-4" points="732.95 392.02 736.73 386.89 769.78 408.79 765.32 414.79 732.95 392.02"/>
      <polygon class="cls-4" points="719.55 407.37 723.79 402.62 754.5 427.35 749.45 432.97 719.55 407.37"/>
      <polygon class="cls-4" points="704.73 421.29 709.4 416.97 737.27 444.53 731.63 449.69 704.73 421.29"/>
      <polygon class="cls-4" points="688.52 433.48 693.61 429.71 718.07 460 711.81 464.58 688.52 433.48"/>
      <path class="cls-4" d="m671,443.55c.09.19,5.55-3,5.55-3l20.4,32.85s-6.82,3.91-6.94,3.73l-19.01-33.59Z"/>
      <path class="cls-4" d="m652.44,451.33s6-1.88,5.92-2.09l15.68,35.08c.11.21-7.54,2.7-7.54,2.7l-14.07-35.68Z"/>
      <polygon class="cls-4" points="633.09 456.62 639.26 455.49 649.62 492.28 641.66 493.81 633.09 456.62"/>
      <polygon class="cls-4" points="613.21 459.25 619.48 458.88 624.08 496.69 615.97 497.22 613.21 459.25"/>
    </g>
    <path class="cls-9" d="m787.47,92.67c21.44,41.1,32.78,88.81,32.78,138.01,0,136.84-92.82,252.85-206.91,258.63-1.71.09-9.72.15-9.72.15l-.05-4.75s7.82-.06,9.49-.15c111.46-5.63,202.14-119.52,202.14-253.88,0-48.47-11.15-95.46-32.26-135.91l4.52-2.09Z"/>
    <path class="cls-9" d="m769.67,98.67c21.26,41.54,32.97,87.65,32.97,129.82,0,130.83-86.69,238.6-197.35,245.33l-.33-4.72c108.03-6.59,192.64-112.28,192.64-240.62,0-41.48-11.53-86.85-32.46-127.76l4.54-2.06Z"/>
  </g>
  <g>
    <g>
      <rect class="cls-4" x="55.42" y="137.39" width="7.09" height="38.06"/>
      <rect class="cls-4" x="78.12" y="137.39" width="7.09" height="38.06"/>
      <rect class="cls-4" x="100.82" y="137.39" width="7.09" height="38.06"/>
      <rect class="cls-4" x="123.52" y="137.39" width="7.09" height="38.06"/>
      <rect class="cls-4" x="146.22" y="137.39" width="7.09" height="38.06"/>
      <rect class="cls-4" x="168.92" y="137.39" width="7.09" height="38.06"/>
      <rect class="cls-4" x="191.62" y="137.39" width="7.09" height="38.06"/>
      <rect class="cls-4" x="214.32" y="137.39" width="7.09" height="38.06"/>
      <rect class="cls-4" x="237.02" y="137.39" width="7.09" height="38.06"/>
      <rect class="cls-4" x="259.72" y="137.39" width="7.09" height="38.06"/>
      <rect class="cls-4" x="282.42" y="137.39" width="7.09" height="38.06"/>
      <rect class="cls-4" x="305.12" y="137.39" width="7.09" height="38.06"/>
      <rect class="cls-4" x="327.82" y="137.39" width="7.09" height="38.06"/>
      <rect class="cls-4" x="350.52" y="137.39" width="7.09" height="38.06"/>
      <rect class="cls-4" x="373.22" y="137.39" width="7.09" height="38.06"/>
      <rect class="cls-4" x="395.92" y="137.39" width="7.09" height="38.06"/>
      <rect class="cls-4" x="418.62" y="137.39" width="7.09" height="38.06"/>
      <rect class="cls-4" x="441.32" y="137.39" width="7.09" height="38.06"/>
      <rect class="cls-4" x="464.02" y="137.39" width="7.09" height="38.06"/>
      <rect class="cls-4" x="486.72" y="137.39" width="7.09" height="38.06"/>
      <rect class="cls-4" x="509.42" y="137.39" width="7.09" height="38.06"/>
      <rect class="cls-4" x="532.12" y="137.39" width="7.09" height="38.06"/>
    </g>
    <rect class="cls-9" x="39.81" y="162.98" width="515.01" height="4.64"/>
    <rect class="cls-9" x="39.81" y="145.21" width="515.01" height="4.64"/>
    <g>
      <polygon class="cls-4" points="202.89 128.51 209.22 130.11 195.49 155.86 188.2 154.02 202.89 128.51"/>
      <path class="cls-4" d="m183.48,115.58s1.51.7,3.02,1.39c1.5.72,3.05,1.33,3.05,1.33l-16.81,34.61s-1.8-.72-3.54-1.55c-1.76-.81-3.51-1.61-3.51-1.61l17.79-34.17Z"/>
      <polygon class="cls-4" points="164.65 105.92 170.43 109.1 150.46 142.18 143.68 138.45 164.65 105.92"/>
      <path class="cls-4" d="m146.98,94.69s1.3.97,2.68,1.85c1.36.9,2.72,1.8,2.72,1.8l-23.18,31.17-3.22-2.14c-1.63-1.05-3.18-2.2-3.18-2.2l24.19-30.49Z"/>
      <path class="cls-4" d="m130.69,81.94s1.21,1.06,2.42,2.12c1.26,1.01,2.52,2.02,2.52,2.02l-26.39,28.83s-1.51-1.21-3.01-2.42c-1.46-1.27-2.91-2.54-2.91-2.54l27.37-28Z"/>
      <path class="cls-4" d="m115.95,67.72s1.07,1.18,2.14,2.35c1.14,1.12,2.28,2.24,2.28,2.24l-29.47,26.04s-1.37-1.35-2.74-2.71c-1.3-1.42-2.6-2.84-2.6-2.84l30.38-25.09Z"/>
      <path class="cls-4" d="m102.96,52.13s.89,1.3,1.87,2.55c1,1.23,2,2.46,2,2.46l-32.29,22.88s-1.21-1.49-2.42-2.98c-1.18-1.51-2.27-3.08-2.27-3.08l33.1-21.83Z"/>
      <path class="cls-4" d="m91.8,35.3s.75,1.38,1.63,2.7c.84,1.33,1.69,2.66,1.69,2.66l-34.74,19.44s-1.02-1.61-2.03-3.22c-1.05-1.59-1.96-3.25-1.96-3.25l35.41-18.33Z"/>
      <polygon class="cls-4" points="82.63 17.36 85.32 23.05 48.59 38.93 45.37 32.11 82.63 17.36"/>
    </g>
    <path class="cls-9" d="m254.03,167.61c-1.53-.11-153.4-12.64-200.94-147.62l4.68-1.46c46.51,132.09,195.14,144.34,196.63,144.46l-.37,4.62Z"/>
    <path class="cls-9" d="m253.62,149.84c-1.37-.11-137.04-12.93-184.74-136.95l4.63-1.58c46.61,121.18,179.21,133.8,180.55,133.91l-.44,4.62Z"/>
  </g>
  <g>
    <g>
      <rect class="cls-4" x="144.8" y="12.97" width="7.62" height="40.9"/>
      <rect class="cls-4" x="169.19" y="12.97" width="7.62" height="40.9"/>
      <rect class="cls-4" x="193.59" y="12.97" width="7.62" height="40.9"/>
      <rect class="cls-4" x="217.98" y="12.97" width="7.62" height="40.9"/>
      <rect class="cls-4" x="242.37" y="12.97" width="7.62" height="40.9"/>
      <rect class="cls-4" x="266.76" y="12.97" width="7.62" height="40.9"/>
      <rect class="cls-4" x="291.16" y="12.97" width="7.62" height="40.9"/>
      <rect class="cls-4" x="315.55" y="12.97" width="7.62" height="40.9"/>
      <rect class="cls-4" x="339.94" y="12.97" width="7.62" height="40.9"/>
      <rect class="cls-4" x="364.33" y="12.97" width="7.62" height="40.9"/>
      <rect class="cls-4" x="388.73" y="12.97" width="7.62" height="40.9"/>
      <rect class="cls-4" x="413.12" y="12.97" width="7.62" height="40.9"/>
      <rect class="cls-4" x="437.51" y="12.97" width="7.62" height="40.9"/>
      <rect class="cls-4" x="461.9" y="12.97" width="7.62" height="40.9"/>
      <rect class="cls-4" x="486.3" y="12.97" width="7.62" height="40.9"/>
      <rect class="cls-4" x="510.69" y="12.97" width="7.62" height="40.9"/>
      <rect class="cls-4" x="535.08" y="12.97" width="7.62" height="40.9"/>
      <rect class="cls-4" x="559.48" y="12.97" width="7.62" height="40.9"/>
      <rect class="cls-4" x="583.87" y="12.97" width="7.62" height="40.9"/>
      <rect class="cls-4" x="608.26" y="12.97" width="7.62" height="40.9"/>
      <rect class="cls-4" x="632.65" y="12.97" width="7.62" height="40.9"/>
      <rect class="cls-4" x="657.05" y="12.97" width="7.62" height="40.9"/>
    </g>
    <rect class="cls-9" x="128.03" y="40.47" width="553.41" height="4.99"/>
    <rect class="cls-9" x="128.03" y="21.38" width="553.41" height="4.99"/>
  </g>
  <g>
    <path class="cls-1" d="m504.7,301.7s-.04-.02-.06-.03h0s.04.03.06.03Z"/>
    <path class="cls-1" d="m504.7,200.91s-.04.02-.06.03h0s.04-.02.06-.03Z"/>
    <path class="cls-3" d="m504.65,301.67v-100.72c-25.69,13.97-25.69,86.75,0,100.72Z"/>
  </g>
  <g>
    <g>
      <g>
        <rect class="cls-4" x="954.12" y="40.85" width="40.41" height="6.68"/>
        <rect class="cls-4" x="954.12" y="62.23" width="40.41" height="6.68"/>
        <rect class="cls-4" x="954.12" y="83.61" width="40.41" height="6.68"/>
        <rect class="cls-4" x="954.12" y="104.98" width="40.41" height="6.68"/>
        <rect class="cls-4" x="954.12" y="126.36" width="40.41" height="6.68"/>
        <rect class="cls-4" x="954.12" y="147.74" width="40.41" height="6.68"/>
        <rect class="cls-4" x="954.12" y="169.12" width="40.41" height="6.68"/>
        <rect class="cls-4" x="954.12" y="190.49" width="40.41" height="6.68"/>
        <rect class="cls-4" x="954.12" y="211.87" width="40.41" height="6.68"/>
        <rect class="cls-4" x="954.12" y="233.25" width="40.41" height="6.68"/>
        <rect class="cls-4" x="954.12" y="254.63" width="40.41" height="6.68"/>
        <rect class="cls-4" x="954.12" y="276" width="40.41" height="6.68"/>
        <rect class="cls-4" x="954.12" y="297.38" width="40.41" height="6.68"/>
        <rect class="cls-4" x="954.12" y="318.76" width="40.41" height="6.68"/>
        <rect class="cls-4" x="954.12" y="340.14" width="40.41" height="6.68"/>
        <rect class="cls-4" x="954.12" y="361.51" width="40.41" height="6.68"/>
        <rect class="cls-4" x="954.12" y="382.89" width="40.41" height="6.68"/>
        <rect class="cls-4" x="954.12" y="404.27" width="40.41" height="6.68"/>
        <rect class="cls-4" x="954.12" y="425.65" width="40.41" height="6.68"/>
        <rect class="cls-4" x="954.12" y="447.02" width="40.41" height="6.68"/>
        <rect class="cls-4" x="954.12" y="468.4" width="40.41" height="6.68"/>
        <rect class="cls-4" x="954.12" y="489.78" width="40.41" height="6.68"/>
      </g>
      <rect class="cls-9" x="962.43" y="26.16" width="4.93" height="485"/>
      <rect class="cls-9" x="981.3" y="26.16" width="4.93" height="485"/>
    </g>
    <g>
      <g>
        <path class="cls-4" d="m996.57,219.02s-.35,1.55-.69,3.1c-.31,1.55-.63,3.1-.63,3.1l-39.74-6.91s.37-1.81.73-3.63c.4-1.8.8-3.6.8-3.6l39.52,7.95Z"/>
        <polygon class="cls-4" points="1008.99 180.03 1007.29 186 979.94 173.07 981.9 166.21 1008.99 180.03"/>
        <path class="cls-4" d="m1017.69,161.45s-.74,1.42-1.48,2.84c-.76,1.41-1.42,2.88-1.42,2.88l-36.75-15.83s.76-1.69,1.64-3.33c.86-1.65,1.71-3.31,1.71-3.31l36.28,16.76Z"/>
        <polygon class="cls-4" points="1027.95 143.72 1024.57 149.16 989.44 130.35 993.4 123.97 1027.95 143.72"/>
        <path class="cls-4" d="m1039.87,127.08s-1.03,1.22-1.96,2.53c-.96,1.28-1.91,2.56-1.91,2.56l-33.1-21.83s1.13-1.52,2.27-3.04c1.11-1.53,2.33-3,2.33-3l32.37,22.78Z"/>
        <path class="cls-4" d="m1053.41,111.73s-1.12,1.14-2.25,2.28c-1.07,1.19-2.14,2.38-2.14,2.38l-30.61-24.85s1.29-1.42,2.57-2.84c1.35-1.37,2.69-2.74,2.69-2.74l29.73,25.77Z"/>
        <path class="cls-4" d="m1068.51,97.86s-1.25,1.01-2.5,2.02c-1.19,1.07-2.38,2.15-2.38,2.15l-27.66-27.75s1.44-1.29,2.88-2.58l3.01-2.45,26.65,28.61Z"/>
        <path class="cls-4" d="m1085.06,85.62s-1.38.84-2.71,1.76c-1.3.94-2.61,1.89-2.61,1.89l-24.3-30.41s1.58-1.14,3.16-2.27c1.6-1.11,3.27-2.14,3.27-2.14l23.18,31.17Z"/>
        <path class="cls-4" d="m1102.93,75.11s-1.47.71-2.86,1.54c-1.41.8-2.83,1.59-2.83,1.59l-20.64-32.72s1.71-.96,3.42-1.91c1.69-.99,3.45-1.85,3.45-1.85l19.47,33.35Z"/>
        <polygon class="cls-4" points="1121.98 66.47 1115.94 69.01 1099.08 34.42 1106.32 31.39 1121.98 66.47"/>
      </g>
      <path class="cls-9" d="m976.64,184.78l-4.69-1.42c17.16-50.39,56.63-116.4,147.23-144.69l1.55,4.4c-88.63,27.69-127.28,92.35-144.09,141.72Z"/>
      <path class="cls-9" d="m986.53,228.27l-4.91-.4c.13-1.35,14.1-135.43,154.57-177.38l1.49,4.43c-137.38,41.02-151.04,172.03-151.16,173.35Z"/>
    </g>
    <path class="cls-9" d="m971.81,184.58c-2.52-7.34-5.39-14.6-8.52-21.58l4.54-1.81c3.19,7.1,6.12,14.49,8.67,21.96l-4.69,1.42Z"/>
    <g>
      <g>
        <polygon class="cls-4" points="939.53 180.03 941.23 186 968.58 173.07 966.62 166.21 939.53 180.03"/>
        <path class="cls-4" d="m930.83,161.45s.74,1.42,1.48,2.84c.76,1.41,1.42,2.88,1.42,2.88l36.75-15.83s-.76-1.69-1.64-3.33c-.86-1.65-1.71-3.31-1.71-3.31l-36.28,16.76Z"/>
        <polygon class="cls-4" points="920.57 143.72 923.95 149.16 959.08 130.35 955.11 123.97 920.57 143.72"/>
        <path class="cls-4" d="m908.65,127.08s1.03,1.22,1.96,2.53c.96,1.28,1.91,2.56,1.91,2.56l33.1-21.83s-1.13-1.52-2.27-3.04c-1.11-1.53-2.33-3-2.33-3l-32.37,22.78Z"/>
        <path class="cls-4" d="m895.1,111.73s1.12,1.14,2.25,2.28c1.07,1.19,2.14,2.38,2.14,2.38l30.61-24.85-2.57-2.84c-1.35-1.37-2.69-2.74-2.69-2.74l-29.73,25.77Z"/>
        <path class="cls-4" d="m880.01,97.86s1.25,1.01,2.5,2.02c1.19,1.07,2.38,2.15,2.38,2.15l27.66-27.75s-1.44-1.29-2.88-2.58l-3.01-2.45-26.65,28.61Z"/>
        <path class="cls-4" d="m863.45,85.62s1.38.84,2.71,1.76c1.3.94,2.61,1.89,2.61,1.89l24.3-30.41s-1.58-1.14-3.16-2.27c-1.6-1.11-3.27-2.14-3.27-2.14l-23.18,31.17Z"/>
        <path class="cls-4" d="m845.58,75.11s1.47.71,2.86,1.54c1.41.8,2.83,1.59,2.83,1.59l20.65-32.72s-1.71-.96-3.42-1.91c-1.69-.99-3.45-1.85-3.45-1.85l-19.47,33.35Z"/>
        <polygon class="cls-4" points="826.53 66.47 832.58 69.01 849.44 34.42 842.2 31.39 826.53 66.47"/>
      </g>
      <path class="cls-9" d="m963.29,163c-18.56-41.2-57.14-95.46-135.51-119.94l1.55-4.4c80.12,25.02,119.53,80.44,138.49,122.53l-4.54,1.81Z"/>
      <path class="cls-9" d="m961.99,228.27c-.12-1.32-13.87-132.36-151.16-173.35l1.49-4.43c140.47,41.95,154.44,176.02,154.57,177.38l-4.91.4Z"/>
    </g>
  </g>
  <g>
    <g>
      <g>
        <rect class="cls-4" x="200.44" y="233.07" width="7.09" height="38.06"/>
        <rect class="cls-4" x="223.14" y="233.07" width="7.09" height="38.06"/>
        <rect class="cls-4" x="245.84" y="233.07" width="7.09" height="38.06"/>
        <rect class="cls-4" x="268.54" y="233.07" width="7.09" height="38.06"/>
        <rect class="cls-4" x="291.24" y="233.07" width="7.09" height="38.06"/>
        <rect class="cls-4" x="313.94" y="233.07" width="7.09" height="38.06"/>
        <rect class="cls-4" x="336.64" y="233.07" width="7.09" height="38.06"/>
        <rect class="cls-4" x="359.33" y="233.07" width="7.09" height="38.06"/>
        <rect class="cls-4" x="382.03" y="233.07" width="7.09" height="38.06"/>
        <rect class="cls-4" x="404.73" y="233.07" width="7.09" height="38.06"/>
        <rect class="cls-4" x="427.43" y="233.07" width="7.09" height="38.06"/>
        <rect class="cls-4" x="450.13" y="233.07" width="7.09" height="38.06"/>
        <rect class="cls-4" x="472.83" y="233.07" width="7.09" height="38.06"/>
        <rect class="cls-4" x="495.53" y="233.07" width="7.09" height="38.06"/>
        <rect class="cls-4" x="518.23" y="233.07" width="7.09" height="38.06"/>
        <rect class="cls-4" x="540.93" y="233.07" width="7.09" height="38.06"/>
        <rect class="cls-4" x="563.63" y="233.07" width="7.09" height="38.06"/>
        <rect class="cls-4" x="586.33" y="233.07" width="7.09" height="38.06"/>
        <rect class="cls-4" x="609.03" y="233.07" width="7.09" height="38.06"/>
        <rect class="cls-4" x="631.73" y="233.07" width="7.09" height="38.06"/>
        <rect class="cls-4" x="654.43" y="233.07" width="7.09" height="38.06"/>
        <rect class="cls-4" x="677.13" y="233.07" width="7.09" height="38.06"/>
      </g>
      <rect class="cls-9" x="184.83" y="258.66" width="515.01" height="4.64"/>
      <rect class="cls-9" x="184.83" y="240.89" width="515.01" height="4.64"/>
    </g>
    <path class="cls-1" d="m317.77,220.5h14.58c6.48,18.06,6.48,43.56,0,61.61h-14.58v19.59h186.93v-19.59h-14.47c-6.48-18.06-6.48-43.56,0-61.61h14.47v-19.59h-186.93v19.59Z"/>
  </g>
  <path class="cls-2" d="m317.94,297.42v4.25c25.69-13.97,25.69-86.75,0-100.72v4.25c18.39,18.89,18.39,73.34,0,92.22Z"/>
  <path class="cls-2" d="m504.65,297.42v4.25c-25.69-13.97-25.69-86.75,0-100.72v4.25c-18.4,18.89-18.4,73.34,0,92.22Z"/>
  <g>
    <g>
      <path class="cls-4" d="m84.38,509.7s-1.6-.84-3.19-1.69c-1.6-.84-3.18-1.73-3.18-1.73l19.19-30.45s1.27.72,2.58,1.4c1.3.69,2.6,1.38,2.6,1.38l-18,31.09Z"/>
      <path class="cls-4" d="m105.35,519.13s-1.69-.61-3.34-1.32c-1.65-.7-3.31-1.4-3.31-1.4l15.55-32.24s1.38.58,2.76,1.17c1.37.6,2.79,1.1,2.79,1.1l-14.45,32.69Z"/>
      <polygon class="cls-4" points="127.14 526.5 120.25 524.41 132.27 490.86 138.04 492.61 127.14 526.5"/>
      <path class="cls-4" d="m149.63,531.74s-1.79-.27-3.55-.66c-1.76-.38-3.53-.77-3.53-.77l8.39-34.52s1.47.32,2.95.64c1.47.33,2.97.55,2.97.55l-7.22,34.75Z"/>
      <path class="cls-4" d="m172.57,534.82s-1.81-.15-3.61-.29l-3.6-.43,4.63-35.14s1.5.18,3,.37c1.51.12,3.01.23,3.01.23l-3.44,35.26Z"/>
      <path class="cls-4" d="m195.74,535.7s-1.81.03-3.62.07c-1.81-.05-3.62-.1-3.62-.1l.8-35.4s1.51.04,3.02.09c1.51-.03,3.03-.07,3.03-.07l.4,35.4Z"/>
      <path class="cls-4" d="m218.86,534.39s-1.79.25-3.6.35c-1.8.13-3.61.26-3.61.26l-3.01-35.29s1.51-.11,3.02-.21c1.51-.07,3.02-.29,3.02-.29l4.18,35.19Z"/>
      <polygon class="cls-4" points="241.67 530.9 234.58 532.18 227.89 497.34 233.86 496.26 241.67 530.9"/>
      <path class="cls-4" d="m263.91,525.37s-1.71.51-3.42,1.02c-1.7.53-3.44.97-3.44.97l-10.15-34.09s1.47-.38,2.93-.83c1.46-.44,2.92-.87,2.92-.87l11.17,33.81Z"/>
      <polygon class="cls-4" points="285.48 518.12 278.8 520.53 265.49 487.41 271.24 485.35 285.48 518.12"/>
      <path class="cls-4" d="m306.16,509.14s-1.57.77-3.15,1.53c-1.56.8-3.2,1.46-3.2,1.46l-16.15-31.97s1.42-.56,2.79-1.27c1.38-.67,2.75-1.35,2.75-1.35l16.96,31.6Z"/>
      <polygon class="cls-4" points="325.96 498.82 319.88 502.2 301.24 471.45 306.61 468.46 325.96 498.82"/>
      <polygon class="cls-4" points="344.89 487.33 339.04 491.01 318.22 461.52 323.45 458.25 344.89 487.33"/>
      <path class="cls-4" d="m362.91,474.81s-1.37,1.01-2.78,1.99c-1.4.98-2.81,1.97-2.81,1.97l-22.7-28.23s1.26-.88,2.53-1.77c1.27-.88,2.51-1.79,2.51-1.79l23.24,27.83Z"/>
      <path class="cls-4" d="m380.45,460.9c-.2.12-.4.46-3.01,2.62-1.36,1.06-2.71,2.11-2.71,2.11l-24.32-27s1.21-.94,2.42-1.88c-.08.14,2.01-1.81,1.86-1.64l25.77,25.79Z"/>
      <polygon class="cls-4" points="395.14 449.53 390.32 452.97 367.06 425.15 372.84 421.02 395.14 449.53"/>
      <polygon class="cls-4" points="411.32 439.4 406.15 442.41 385.94 412.55 392.09 408.98 411.32 439.4"/>
      <polygon class="cls-4" points="428.44 430.88 423 433.36 406.05 401.76 412.58 398.77 428.44 430.88"/>
      <path class="cls-4" d="m446.27,424.18s-1.41.46-2.83.92c-1.42.44-2.81.96-2.81.96l-13.27-33.13s1.7-.63,3.44-1.18c1.73-.56,3.46-1.13,3.46-1.13l12.01,33.55Z"/>
      <path class="cls-4" d="m464.62,419.46s-1.46.23-2.89.59c-1.44.33-2.88.67-2.88.67l-9.08-34.36s1.79-.41,3.58-.82c1.78-.44,3.6-.74,3.6-.74l7.68,34.66Z"/>
      <path class="cls-4" d="m483.28,416.97s-1.46.11-2.93.22c-1.47.08-2.92.29-2.92.29l-4.43-35.16s1.83-.25,3.69-.37c1.85-.14,3.7-.29,3.7-.29l2.9,35.3Z"/>
      <polygon class="cls-4" points="502.02 416.76 496.17 416.56 496.71 381.16 504.15 381.41 502.02 416.76"/>
      <polygon class="cls-4" points="520.63 418.91 514.84 418.03 520.41 383.01 527.75 384.14 520.63 418.91"/>
      <polygon class="cls-4" points="538.88 423.4 533.22 421.82 543.57 387.78 550.65 389.77 538.88 423.4"/>
      <polygon class="cls-4" points="556.57 430.07 551.1 427.79 565.77 395.18 572.46 397.98 556.57 430.07"/>
    </g>
    <path class="cls-9" d="m363.85,458.89c-156.9,128.04-286.07,34.7-287.36,33.75l-2.91,3.46c.78.58,47.88,34.69,119.62,34.69,48.81,0,109.04-15.79,173.85-68.68.92-.87,88.46-83.03,197.09-34.76l1.99-3.99c-111.65-49.66-201.49,34.77-202.28,35.54Z"/>
    <path class="cls-9" d="m562.33,402.83l-.08.04c-109.83-46.02-197.62,36.38-198.4,37.13-136.18,111.13-251.41,55.52-280.33,38.26l-2.18,3.91c16.14,9.58,56.65,29.73,111.86,29.73,48.81,0,109.04-15.79,173.85-68.68.9-.86,85.49-80.14,191.52-37.04l13.88,6.45,1.59-4.91-11.72-4.88Z"/>
  </g>
  <g>
    <polygon class="cls-10" points="249.37 0 331.97 0 331.97 .06 331.97 11.15 249.37 11.15 249.37 .06 249.37 0"/>
    <polygon class="cls-7" points="218.32 16.94 249.37 .06 249.37 11.15 249.37 36.57 249.37 46.94 248.6 46.94 218.32 30.47 218.32 16.94"/>
    <polygon class="cls-5" points="331.97 .06 345.61 5.3 345.61 41.7 331.97 46.94 331.97 36.57 331.97 11.15 331.97 .06"/>
    <rect class="cls-6" x="249.37" y="11.15" width="82.6" height="25.42"/>
    <rect class="cls-8" x="249.37" y="36.57" width="82.6" height="10.37"/>
    <g>
      <polygon class="cls-10" points="345.61 0 428.21 0 428.21 .06 428.21 11.15 345.61 11.15 345.61 .06 345.61 0"/>
      <polygon class="cls-5" points="428.21 .06 441.85 5.3 441.85 41.7 428.21 46.94 428.21 36.57 428.21 11.15 428.21 .06"/>
      <rect class="cls-6" x="345.61" y="11.15" width="82.6" height="25.42"/>
      <rect class="cls-8" x="345.61" y="36.57" width="82.6" height="10.37"/>
    </g>
    <g>
      <polygon class="cls-10" points="441.85 0 524.45 0 524.45 .06 524.45 11.15 441.85 11.15 441.85 .06 441.85 0"/>
      <polygon class="cls-5" points="524.45 .06 538.09 5.3 538.09 41.7 524.45 46.94 524.45 36.57 524.45 11.15 524.45 .06"/>
      <rect class="cls-6" x="441.85" y="11.15" width="82.6" height="25.42"/>
      <rect class="cls-8" x="441.85" y="36.57" width="82.6" height="10.37"/>
    </g>
    <g>
      <polygon class="cls-10" points="537.84 0 620.44 0 620.44 .06 620.44 11.15 537.84 11.15 537.84 .06 537.84 0"/>
      <polygon class="cls-5" points="620.44 .06 634.08 5.3 634.08 41.7 620.44 46.94 620.44 36.57 620.44 11.15 620.44 .06"/>
      <rect class="cls-6" x="537.84" y="11.15" width="82.6" height="25.42"/>
      <rect class="cls-8" x="537.84" y="36.57" width="82.6" height="10.37"/>
    </g>
  </g>
</svg>