<?xml version="1.0" encoding="UTF-8"?>
<svg id="Layer_1" data-name="Layer 1" xmlns="http://www.w3.org/2000/svg" viewBox="0 0 103.42 148.02">
  <defs>
    <style>
      .cls-1 {
        fill: #4d4c4c;
      }

      .cls-2 {
        fill: #ba8090;
      }

      .cls-3 {
        fill: #d0d2d3;
      }

      .cls-4 {
        fill: #9b396c;
      }

      .cls-5 {
        fill: #459945;
      }

      .cls-6 {
        fill: #36b05e;
      }

      .cls-7 {
        fill: #231f20;
      }
    </style>
  </defs>
  <path class="cls-3" d="m103.24,113.71c-.87-1.08-4.71-.41-8.57,1.51l.2-9.6c1.77-.84,3.03-4.54,2.86-9.16-.14-3.72-1.15-6.85-2.49-8.36l.78-37.23c.1.02.19.13.29.13,2.04,0,3.53-3.84,3.34-8.53-.16-3.97-1.5-7.12-3.13-8l.05-2.63c.02-.87-.02-1.74-.1-2.59v-.1c.01-.43-.11-.83-.12-1.26l.07-3.27c-2.21-12.14-14.64-21.57-29.76-21.57h-13.28c-15.12,0-27.55,9.43-29.78,21.57l.07,3.31c-.02.41-.13.8-.12,1.22v.1c-.08.85-.12,1.72-.1,2.59l.04,2.45c-1.81.52-3.35,3.89-3.52,8.18-.19,4.69,1.3,8.53,3.33,8.53.24,0,.45-.21.68-.31l.76,37.04c-1.54,1.27-2.75,4.63-2.9,8.72-.19,5,1.27,9.02,3.27,9.38l.2,9.96c-.33-.19-.6-.38-.96-.56-3.87-1.93-7.73-2.61-8.61-1.52-.87,1.08,1.54,3.5,5.36,5.39,1.51.75,2.98,1.25,4.31,1.58l.11,5.16c.25,12.26,13.04,22.17,28.41,22.17h12.11c15.37,0,28.16-9.91,28.42-22.17l.11-5.43c1.06-.33,2.17-.75,3.31-1.31,3.83-1.9,6.24-4.31,5.37-5.39Zm-6.87-79.31v-.09s.02.07.03.1c0,0-.02,0-.03-.01Zm-72.73-.18l-.04-2.01.04,2.01h0Z"/>
  <g>
    <path class="cls-7" d="m4.4,39.41c-.19,4.69,1.3,8.53,3.33,8.53s3.82-3.84,3.98-8.53c.16-4.65-1.34-8.38-3.34-8.38s-3.78,3.73-3.97,8.38Z"/>
    <path class="cls-7" d="m6.28,93.39c-.2,5.23,1.39,9.51,3.54,9.51s4.02-4.28,4.18-9.51c.15-5.18-1.43-9.34-3.54-9.34s-3.98,4.16-4.18,9.34Z"/>
    <path class="cls-7" d="m84.1,39.41c.19,4.69-1.3,8.53-3.34,8.53s-3.82-3.84-3.97-8.53c-.15-4.65,1.34-8.38,3.35-8.38s3.78,3.73,3.97,8.38Z"/>
    <path class="cls-7" d="m82.18,93.39c.19,5.23-1.4,9.51-3.55,9.51s-4.02-4.28-4.17-9.51c-.15-5.18,1.44-9.34,3.55-9.34s3.98,4.16,4.17,9.34Z"/>
    <path class="cls-2" d="m80.86,29.16l-1.96,93.63c-.26,12.26-13.05,22.17-28.42,22.17h-12.11c-15.37,0-28.15-9.91-28.41-22.17l-1.91-93.63c2.22-12.14,14.66-21.57,29.78-21.57h13.28c15.12,0,27.55,9.43,29.76,21.57Z"/>
    <g>
      <path class="cls-2" d="m37.82,7.59h13.28c14.86,0,27.1,9.12,29.62,20.95l.15-6.98C78.65,9.43,66.22,0,51.1,0h-13.28C22.7,0,10.27,9.43,8.04,21.57l.14,6.99c2.52-11.84,14.77-20.97,29.63-20.97Z"/>
      <g>
        <g>
          <path class="cls-4" d="m51.05.57c16.73,0,30.16,11.57,29.87,25.53l-.06,3.06c-2.21-12.14-14.65-21.57-29.76-21.57h-13.28c-15.12,0-27.55,9.43-29.78,21.57l-.06-3.06C7.7,12.14,21.14.57,37.87.57h13.18Z"/>
          <path class="cls-6" d="m71.98,29.62s-.06.08-.1.13h0s.07-.09.1-.13Z"/>
          <path class="cls-7" d="m71.88,29.74h0c-8.92,11.35-44.86,11.35-53.78.01h0c.83-9.36,12.65-16.68,26.89-16.68s26.05,7.33,26.89,16.67Z"/>
          <path class="cls-6" d="m18.1,29.74h0s-.07-.07-.1-.12c.03.03.06.08.1.12Z"/>
        </g>
        <g>
          <path class="cls-5" d="m7.99,26.19c-.09.85-.12,1.72-.11,2.59l.06,3.08c.04-.21.1-.41.15-.61l-.04-2.09-.05-2.97Z"/>
          <path class="cls-5" d="m80.86,29.16l-.04,2.09c.04.21.11.41.15.61l.06-3.08c.02-.87-.02-1.74-.1-2.59l-.06,2.97Z"/>
          <path class="cls-2" d="m37.85,3.11h13.22c15.75,0,28.56,10.23,29.85,23.07v-.09c.3-13.96-13.14-25.53-29.87-25.53h-13.18C21.14.57,7.7,12.14,7.99,26.1v.09C9.29,13.35,22.11,3.11,37.85,3.11Z"/>
        </g>
      </g>
      <path class="cls-7" d="m71.88,29.75s.07-.08.1-.13l2.09,73.52s-.06-.08-.1-.12h0c-9.8-13.2-10.73-61.59-2.09-73.27Z"/>
      <path class="cls-7" d="m18.1,29.75c8.64,11.68,7.75,60.07-2.05,73.26,0-.23,0-.46,0-.68l-.06-.66,2.01-72.05s.06.08.1.13Z"/>
      <path class="cls-7" d="m73.97,103.01h0c-.21,11.13-12.97,20.21-28.95,20.21s-28.76-9.07-28.97-20.19c10.02-12.88,47.86-12.88,57.92-.01Z"/>
      <path class="cls-1" d="m18.28,110.62c4.36,7.38,14.64,12.6,26.74,12.6s22.37-5.22,26.72-12.6c-11.84-9.73-41.63-9.73-53.46,0Z"/>
    </g>
    <path class="cls-4" d="m78.9,115.19c-.26,12.26-13.05,22.17-28.42,22.17h-12.11c-15.37,0-28.15-9.91-28.41-22.17v-.41h-.16l.16,8.01c.25,12.26,13.04,22.17,28.41,22.17h12.11c15.37,0,28.16-9.91,28.42-22.17l.17-8.01h-.16v.41Z"/>
    <path class="cls-4" d="m82.32,116.04c-3.81,1.89-7.62,2.57-8.54,1.52-.92-1.06,1.44-3.47,5.29-5.39,3.87-1.93,7.74-2.61,8.61-1.52.87,1.08-1.54,3.5-5.37,5.39Z"/>
    <path class="cls-4" d="m5.54,116.04c3.81,1.89,7.62,2.57,8.53,1.52.92-1.06-1.44-3.47-5.29-5.39-3.87-1.93-7.73-2.61-8.61-1.52-.87,1.08,1.54,3.5,5.36,5.39Z"/>
  </g>
</svg>