<?xml version="1.0" encoding="UTF-8"?>
<svg id="Layer_1" data-name="Layer 1" xmlns="http://www.w3.org/2000/svg" viewBox="0 0 276 416.35">
  <defs>
    <style>
      .cls-1 {
        fill: #80a14e;
      }

      .cls-2 {
        fill: #6f8841;
      }

      .cls-3 {
        fill: #d0d2d3;
      }

      .cls-4 {
        fill: #d8dbd9;
      }

      .cls-5 {
        fill: #d7e7aa;
      }

      .cls-6 {
        fill: #95c83d;
      }

      .cls-7 {
        fill: #664098;
      }

      .cls-8 {
        fill: #231f20;
      }
    </style>
  </defs>
  <path class="cls-3" d="m276,25.22c0-8.45-8.92-15.36-19.8-15.37l-5.5-9.85h-59.69s-61.33,0-61.33,0h-59.69s-5.57,9.98-5.57,9.98c-10.49.37-18.95,7.02-18.95,15.24v231.05c0,8.48,8.9,15.39,19.81,15.39h8.13c-.22,1.43-.46,2.85-.46,4.33v99.19c0,21.11,22.03,38.23,49.21,38.23h77.14c27.18,0,49.21-17.12,49.21-38.23v-99.19c0-1.47-.25-2.9-.46-4.33h8.13c10.88,0,19.82-6.92,19.82-15.39V25.22Z"/>
  <g>
    <path class="cls-5" d="m27.48,278.93v99.19c0,21.11,22.03,38.23,49.21,38.23h77.14c27.18,0,49.21-17.12,49.21-38.23v-99.19c0-2.11-.24-4.18-.66-6.2H28.14c-.42,2.02-.66,4.09-.66,6.2Z"/>
    <g>
      <path class="cls-6" d="m153.83,389.73h-77.14c-27.18,0-49.21-17.12-49.21-38.23v25.94c0,21.11,22.03,38.23,49.21,38.23h77.14c27.18,0,49.21-17.12,49.21-38.23v-25.94c0,21.11-22.03,38.23-49.21,38.23Z"/>
      <path class="cls-8" d="m174.94,332.35c2.93,15.72-9.93,28.57-28.58,28.57h-62.18c-18.65,0-31.52-12.86-28.58-28.57l1.77-9.49c2.93-15.72,20.59-28.57,39.25-28.57h37.31c18.65,0,36.32,12.86,39.25,28.57l1.77,9.49Z"/>
      <g>
        <path class="cls-8" d="m39.45,272.05l-1.33,90.23s29.26-44.12,1.33-90.23Z"/>
        <path class="cls-8" d="m191.08,272.05l1.33,90.23s-29.26-44.12-1.33-90.23Z"/>
      </g>
    </g>
    <g>
      <polygon class="cls-6" points="84.21 25.61 145.54 25.61 217.88 25.61 205.23 2.94 145.54 2.95 84.21 2.95 24.52 2.94 11.87 25.61 84.21 25.61"/>
      <g>
        <g>
          <path class="cls-5" d="m11.87,87.3V28.16c0-3.34,3.64-6.15,7.94-6.15h190.89c4.3,0,7.92,2.81,7.92,6.15v59.16l-13.4,6v75.92l13.4,6v83.98c0,3.33-3.62,6.15-7.92,6.15h-13.23c-6.2-4.79-14.72-7.76-24.11-7.77H57.15c-9.39,0-17.93,2.98-24.11,7.77h-13.23c-4.3,0-7.94-2.82-7.94-6.15v-83.96l13.4-6.02v-75.92l-13.4-6.02Z"/>
          <polygon class="cls-7" points="11.87 175.25 11.87 87.3 25.27 93.31 25.27 169.23 11.87 175.25"/>
          <path class="cls-1" d="m203.74,265.42H27.42c6.63-4.81,15.79-7.81,25.85-7.81h124.62c10.07,0,19.2,3,25.85,7.81Z"/>
          <polygon class="cls-7" points="205.23 169.23 205.23 93.31 218.63 87.32 218.63 175.23 205.23 169.23"/>
          <path class="cls-2" d="m19.81,274.6h190.89c10.88,0,19.82-6.92,19.82-15.39V28.16c0-8.45-8.93-15.37-19.82-15.37H19.81C8.9,12.79,0,19.71,0,28.16v231.05c0,8.48,8.9,15.39,19.81,15.39Zm-7.94-99.35V28.16c0-3.34,3.64-6.15,7.94-6.15h190.89c4.3,0,7.92,2.81,7.92,6.15v231.05c0,3.33-3.62,6.15-7.92,6.15h-13.23s-164.44,0-164.44,0h-13.23c-4.3,0-7.94-2.82-7.94-6.15v-83.96Z"/>
        </g>
        <g>
          <polygon class="cls-4" points="218.63 87.32 205.23 93.31 205.23 169.23 218.63 175.23 230.53 180.58 230.53 81.97 218.63 87.32"/>
          <polygon class="cls-4" points="11.87 87.3 25.27 93.31 25.27 169.23 11.87 175.25 0 180.58 0 81.97 11.87 87.3"/>
        </g>
      </g>
      <path class="cls-6" d="m197.48,265.36h13.23c4.3,0,7.92-2.74,7.92-5.99v-81.84l-13.4-5.84v-73.98l13.4-5.84v-57.65c0-3.25-3.62-5.99-7.92-6h-30.11v230.19c6.49,1.07,12.32,3.54,16.88,6.97Z"/>
      <path class="cls-6" d="m31.63,265.36h-13.23c-4.3,0-7.92-2.74-7.92-6v-81.84s13.39-5.84,13.39-5.84v-73.98l-13.39-5.85v-57.65c0-3.25,3.62-6,7.92-6h30.11v230.19c-6.49,1.07-12.32,3.54-16.88,6.97Z"/>
    </g>
  </g>
</svg>