<?xml version="1.0" encoding="UTF-8"?>
<svg id="Layer_1" data-name="Layer 1" xmlns="http://www.w3.org/2000/svg" viewBox="0 0 178.55 318.59">
  <defs>
    <style>
      .cls-1 {
        fill: #659846;
      }

      .cls-2 {
        fill: #545456;
      }

      .cls-3 {
        fill: #d0d2d3;
      }

      .cls-4 {
        fill: #d36a99;
      }

      .cls-5 {
        fill: #24b24b;
      }

      .cls-6 {
        fill: #231f20;
      }

      .cls-7 {
        fill: #f5aacb;
      }
    </style>
  </defs>
  <path class="cls-3" d="m178.23,244.31c-1.55-2.35-8.39-.89-15.26,3.26l.36-20.77c3.16-1.81,5.39-9.83,5.09-19.84-.24-8.06-2.05-14.84-4.43-18.1l1.39-80.6c.18.04.34.29.51.29,3.63,0,6.29-8.31,5.95-18.47-.29-8.6-2.67-15.42-5.57-17.32l.08-5.7c.03-1.89-.03-3.77-.18-5.61l-.1,6.43-.08,4.53c.01.08.03.15.04.22-.02,0-.03-.02-.05-.03l.08-4.73.1-6.43h0s0-.2,0-.2c.02-.93-.19-1.8-.22-2.73l.12-7.08c-3.94-26.27-26.08-46.69-53-46.69h-23.65c-26.92,0-49.06,20.42-53.02,46.69l.12,7.14c-.03.9-.24,1.75-.22,2.66v.23c-.15,1.84-.21,3.7-.18,5.59l.08,5.31c-3.21,1.13-5.96,8.43-6.28,17.71-.35,10.16,2.31,18.47,5.93,18.47.42,0,.81-.47,1.22-.68l1.35,80.2c-2.74,2.75-4.89,10.03-5.17,18.89-.33,10.82,2.26,19.53,5.83,20.31l.36,21.56c-.59-.4-1.08-.83-1.71-1.22-6.89-4.18-13.77-5.66-15.33-3.3-1.55,2.34,2.74,7.57,9.55,11.67,2.7,1.63,5.3,2.7,7.67,3.43l.19,11.17c.06,3.32.46,6.56,1.18,9.69,5.03,21.89,25.45,38.32,49.41,38.32h21.57c23.95,0,44.38-16.42,49.42-38.32.72-3.13,1.13-6.37,1.18-9.69l.2-11.76c1.89-.73,3.86-1.62,5.89-2.85,6.81-4.11,11.11-9.33,9.56-11.67Z"/>
  <g>
    <path class="cls-6" d="m7.84,85.33c-.35,10.16,2.31,18.47,5.93,18.47s6.8-8.31,7.09-18.47c.28-10.06-2.38-18.15-5.95-18.15s-6.73,8.09-7.07,18.15Z"/>
    <path class="cls-6" d="m11.17,202.2c-.35,11.33,2.47,20.6,6.3,20.6s7.17-9.27,7.45-20.6c.28-11.21-2.55-20.22-6.31-20.22s-7.09,9.01-7.43,20.22Z"/>
    <path class="cls-6" d="m149.76,85.33c.34,10.16-2.32,18.47-5.95,18.47s-6.79-8.31-7.07-18.47c-.27-10.06,2.39-18.15,5.96-18.15s6.72,8.09,7.06,18.15Z"/>
    <path class="cls-6" d="m146.33,202.2c.34,11.33-2.49,20.6-6.32,20.6s-7.16-9.27-7.43-20.6c-.27-11.21,2.56-20.22,6.33-20.22s7.08,9.01,7.42,20.22Z"/>
    <path class="cls-7" d="m143.99,63.13l-3.5,202.71c-.46,26.55-23.23,48-50.61,48h-21.57c-27.38,0-50.14-21.45-50.59-48l-3.4-202.71c3.96-26.27,26.1-46.69,53.02-46.69h23.65c26.92,0,49.05,20.42,53,46.69Z"/>
    <g>
      <path class="cls-7" d="m67.34,16.44h23.65c26.46,0,48.25,19.74,52.74,45.36l.26-15.1C140.05,20.42,117.91,0,90.99,0h-23.65C40.42,0,18.28,20.42,14.32,46.69l.25,15.14c4.48-25.64,26.29-45.4,52.76-45.4Z"/>
      <g>
        <g>
          <path class="cls-4" d="m90.91,1.23c29.79,0,53.71,25.05,53.19,55.26l-.1,6.63c-3.94-26.27-26.08-46.69-53-46.69h-23.65c-26.92,0-49.06,20.42-53.02,46.69l-.1-6.63C13.71,26.28,37.64,1.23,67.44,1.23h23.47Z"/>
          <path class="cls-5" d="m128.17,64.13c-.05.1-.1.18-.17.28v-.03c.07-.08.12-.18.17-.25Z"/>
          <path class="cls-6" d="m128,64.38v.03c-15.89,24.55-79.87,24.55-95.77,0v-.03c1.48-20.23,22.53-36.09,47.89-36.09s46.39,15.86,47.88,36.09Z"/>
          <path class="cls-5" d="m32.23,64.38v.03c-.08-.1-.13-.18-.17-.28.05.08.1.18.17.25Z"/>
        </g>
        <g>
          <path class="cls-1" d="m14.23,56.7c-.15,1.85-.22,3.72-.19,5.61l.1,6.67c.07-.45.18-.88.26-1.33l-.08-4.53-.1-6.43Z"/>
          <path class="cls-1" d="m143.99,63.13l-.08,4.53c.08.44.19.88.26,1.33l.1-6.67c.03-1.89-.03-3.77-.18-5.61l-.1,6.43Z"/>
          <path class="cls-7" d="m67.4,6.74h23.53c28.04,0,50.86,22.15,53.15,49.96v-.2c.53-30.22-23.39-55.26-53.18-55.26h-23.47C37.64,1.23,13.71,26.28,14.22,56.5v.2C16.54,28.89,39.36,6.74,67.4,6.74Z"/>
        </g>
      </g>
      <path class="cls-6" d="m128,64.41c.07-.1.13-.18.17-.28l3.72,159.19c-.06-.09-.11-.17-.17-.26v-.03c-17.46-28.55-19.1-133.32-3.72-158.62Z"/>
      <path class="cls-6" d="m32.23,64.41c15.39,25.29,13.79,130.06-3.65,158.62-.02-.49,0-.98,0-1.48l-.1-1.42,3.57-156c.05.1.1.18.17.28Z"/>
      <path class="cls-6" d="m131.72,223.02v.03c-.36,24.08-23.08,43.72-51.55,43.72s-51.22-19.64-51.6-43.72c17.85-27.88,85.23-27.88,103.14-.03Z"/>
      <path class="cls-2" d="m32.56,239.5c7.77,15.97,26.07,27.27,47.61,27.27s39.83-11.3,47.58-27.28c-21.09-21.07-74.14-21.08-95.19,0Z"/>
    </g>
    <path class="cls-4" d="m140.49,249.4c-.46,26.55-23.23,48-50.61,48h-21.57c-27.38,0-50.14-21.45-50.59-48v-.9h-.29l.29,17.33c.45,26.55,23.21,48,50.59,48h21.57c27.38,0,50.14-21.45,50.61-48l.3-17.33h-.28l-.02.9Z"/>
    <path class="cls-4" d="m146.59,251.23c-6.78,4.09-13.57,5.56-15.2,3.3-1.64-2.29,2.57-7.51,9.43-11.67,6.89-4.18,13.77-5.66,15.33-3.3,1.55,2.34-2.75,7.57-9.56,11.68Z"/>
    <path class="cls-4" d="m9.87,251.23c6.78,4.09,13.56,5.56,15.19,3.3,1.64-2.29-2.56-7.51-9.41-11.67-6.89-4.18-13.77-5.66-15.33-3.3-1.55,2.34,2.74,7.57,9.55,11.68Z"/>
  </g>
</svg>