<?xml version="1.0" encoding="UTF-8"?>
<svg id="Layer_1" data-name="Layer 1" xmlns="http://www.w3.org/2000/svg" viewBox="0 0 119.22 188.79">
  <defs>
    <style>
      .cls-1 {
        fill: #96a139;
      }

      .cls-2 {
        fill: #659846;
      }

      .cls-3 {
        fill: #d99452;
      }

      .cls-4 {
        fill: #6f8841;
      }

      .cls-5 {
        fill: #d0d2d3;
      }

      .cls-6 {
        fill: #933e2d;
      }

      .cls-7 {
        fill: #b4bf44;
      }

      .cls-8 {
        fill: #566e32;
      }

      .cls-9 {
        fill: #97793a;
      }

      .cls-10 {
        fill: #c18448;
      }

      .cls-11 {
        fill: #24b24b;
      }

      .cls-12 {
        fill: #231f20;
      }
    </style>
  </defs>
  <path class="cls-5" d="m113.45,81.24c2.69,0,5.24-5.46,5.7-12.3.4-5.94-.96-10.75-3.08-12.09l.46-4.09c.16-1.38.24-2.75.25-4.1l-.53,4.69-.37,3.25c0,.05.01.11.02.16-.01,0-.02-.01-.03-.02l.39-3.39.53-4.69h0s.02-.15.02-.15c2.66-23.22-15.79-44.05-41.28-44.05h-20.08C29.95,4.46,11.47,25.28,14.09,48.5l.02.15h0s.52,4.69.52,4.69l.35,3.12h0s-.35-3.12-.35-3.12l-.52-4.69c0,1.36.09,2.72.24,4.1l.42,3.82c-2.42.8-4.02,5.96-3.6,12.37.45,6.84,2.99,12.3,5.69,12.3.31,0,.57-.31.86-.45l5.34,47.35c-1.7,1.46-2.77,5.3-2.5,9.9.33,5.48,2.43,9.79,4.77,10.17l1.16,10.31c-.39-.19-.71-.39-1.13-.57-4.54-1.97-8.98-2.66-9.84-1.55-.85,1.1,2.13,3.54,6.59,5.43,1.75.74,3.43,1.24,4.94,1.57l.57,5.04c1.3,11.5,15.4,20.35,31.42,20.35h12.62c16.02,0,30.13-8.84,31.45-20.35l.61-5.31c1.21-.33,2.48-.74,3.8-1.3,4.46-1.9,7.44-4.33,6.59-5.43-.86-1.11-5.27-.42-9.79,1.53l1.14-9.95c2.12-.9,3.96-4.87,4.26-9.94.25-4.18-.61-7.74-2.05-9.47l5.43-47.52c.13.03.23.19.36.19Z"/>
  <g>
    <g>
      <path class="cls-12" d="m.07,64.49c.45,6.84,2.99,12.3,5.69,12.3s4.59-5.46,4.22-12.3c-.37-6.95-2.93-12.68-5.71-12.68S-.39,57.53.07,64.49Z"/>
      <path class="cls-12" d="m9.46,133.58c.34,5.73,2.61,10.31,5.08,10.31s4.25-4.58,3.98-10.31c-.27-5.82-2.56-10.61-5.1-10.61s-4.31,4.79-3.97,10.61Z"/>
      <path class="cls-12" d="m108.05,64.49c-.46,6.84-3.01,12.3-5.7,12.3s-4.58-5.46-4.21-12.3c.38-6.95,2.94-12.68,5.72-12.68s4.65,5.73,4.18,12.68Z"/>
      <path class="cls-12" d="m98.6,133.58c-.35,5.73-2.62,10.31-5.09,10.31s-4.25-4.58-3.97-10.31c.28-5.82,2.57-10.61,5.11-10.61s4.31,4.79,3.96,10.61Z"/>
      <path class="cls-7" d="m105.15,48.89l-13.16,115.09c-1.32,11.5-15.43,20.35-31.45,20.35h-12.62c-16.02,0-30.12-8.84-31.42-20.35L3.52,48.89C4.87,29.18,21.95,12.82,44.47,12.82h19.78c22.52,0,39.57,16.36,40.89,36.07Z"/>
      <g>
        <g>
          <path class="cls-1" d="m64.41,0c25.49,0,43.94,20.82,41.28,44.05l-.54,4.84c-1.32-19.71-18.37-36.07-40.89-36.07h-19.78C21.95,12.82,4.87,29.18,3.52,48.89l-.54-4.84C.37,20.82,18.85,0,44.34,0h20.08Z"/>
          <path class="cls-11" d="m92.7,49.61c-.04.07-.09.13-.15.2v-.02c.06-.05.11-.13.15-.18Z"/>
          <path class="cls-12" d="m92.55,49.79v.02c-13.27,17.14-61.72,17.14-74.93,0v-.02c.17-15,16.66-27.37,37.52-27.37s37.29,12.36,37.41,27.37Z"/>
          <path class="cls-11" d="m17.62,49.79v.02c-.06-.07-.11-.13-.15-.2.04.05.09.13.15.18Z"/>
        </g>
        <g>
          <path class="cls-2" d="m3,44.2c0,1.36.09,2.72.24,4.1l.53,4.79c.02-.32.08-.63.11-.95l-.37-3.25-.52-4.69Z"/>
          <path class="cls-2" d="m105.15,48.89l-.37,3.25c.03.32.09.63.11.95l.54-4.79c.16-1.38.24-2.75.25-4.1l-.53,4.69Z"/>
          <path class="cls-7" d="m44.39,4.71h19.97c23.79,0,41.47,18.2,41.32,39.49l.02-.15C108.35,20.82,89.9,0,64.41,0h-20.08C18.85,0,.37,20.82,2.99,44.05l.02.15C2.88,22.91,20.59,4.71,44.39,4.71Z"/>
        </g>
      </g>
      <path class="cls-7" d="m96.4,157.37c-4.4,1.87-8.68,2.54-9.61,1.51-.94-1.05,1.88-3.46,6.36-5.39,4.54-1.97,8.98-2.66,9.84-1.55.85,1.1-2.13,3.54-6.59,5.43Z"/>
      <path class="cls-7" d="m11,157.37c4.4,1.87,8.68,2.54,9.61,1.51.94-1.05-1.88-3.46-6.36-5.39-4.54-1.97-8.98-2.66-9.84-1.55-.85,1.1,2.13,3.54,6.59,5.43Z"/>
    </g>
    <path class="cls-8" d="m71.06,70.54h-35.71c-12.86,0-20.67,13.67-17.88,28.32l6,55.28h61.74l3.73-55.28c2.79-14.65-5.02-28.32-17.88-28.32Z"/>
    <g>
      <rect class="cls-10" x="58.22" y="89.77" width="19.94" height="21.81" rx=".33" ry=".33" transform="translate(136.37 201.35) rotate(180)"/>
      <path class="cls-6" d="m78.15,103.22h0c2.52,0,4.57,1.94,4.57,4.34v9.5c0,2.39-2.05,4.34-4.57,4.34h0c-2.52,0-4.57-1.94-4.57-4.34v-9.5c0-2.4,2.05-4.34,4.57-4.34Z"/>
      <path class="cls-6" d="m59.6,103.22h0c2.52,0,4.57,1.94,4.57,4.34v9.5c0,2.39-2.05,4.34-4.57,4.34h0c-2.52,0-4.57-1.94-4.57-4.34v-9.5c0-2.4,2.05-4.34,4.57-4.34Z"/>
      <rect class="cls-3" x="59.6" y="101.9" width="17.44" height="21.81" rx=".33" ry=".33" transform="translate(136.64 225.62) rotate(180)"/>
      <path class="cls-9" d="m79.76,105.59c-1.37,0-2.49-1.06-2.49-2.37v-8.07c0-2.46-2.11-4.46-4.7-4.46h-8.49c-2.6,0-4.71,2-4.71,4.46v8.07c0,1.3-1.12,2.37-2.49,2.37s-2.49-1.06-2.49-2.37v-8.07c0-5.07,4.36-9.19,9.7-9.19h8.49c5.34,0,9.69,4.13,9.69,9.19v8.07c0,1.3-1.12,2.37-2.49,2.37Z"/>
    </g>
    <g>
      <rect class="cls-10" x="23.97" y="89.77" width="19.93" height="21.81" rx=".33" ry=".33" transform="translate(67.88 201.35) rotate(180)"/>
      <path class="cls-6" d="m43.91,103.22h0c2.52,0,4.57,1.94,4.57,4.34v9.5c0,2.39-2.05,4.34-4.57,4.34h0c-2.52,0-4.57-1.94-4.57-4.34v-9.5c0-2.4,2.05-4.34,4.57-4.34Z"/>
      <path class="cls-6" d="m25.36,103.22h0c2.52,0,4.57,1.94,4.57,4.34v9.5c0,2.39-2.05,4.34-4.57,4.34h0c-2.52,0-4.57-1.94-4.57-4.34v-9.5c0-2.4,2.05-4.34,4.57-4.34Z"/>
      <rect class="cls-3" x="25.36" y="101.9" width="17.44" height="21.81" rx=".33" ry=".33" transform="translate(68.16 225.62) rotate(180)"/>
      <path class="cls-9" d="m45.52,105.59c-1.37,0-2.49-1.06-2.49-2.37v-8.07c0-2.46-2.11-4.46-4.7-4.46h-8.49c-2.6,0-4.7,2-4.7,4.46v8.07c0,1.3-1.12,2.37-2.49,2.37s-2.49-1.06-2.49-2.37v-8.07c0-5.07,4.35-9.19,9.69-9.19h8.49c5.34,0,9.69,4.13,9.69,9.19v8.07c0,1.3-1.12,2.37-2.49,2.37Z"/>
    </g>
    <g>
      <path class="cls-12" d="m28.56,120.65l-5.09,33s11.09,10.74,30.87,11.9c19.78-1.15,30.87-11.9,30.87-11.9l-5.09-33H28.56Z"/>
      <path class="cls-4" d="m54.48,167.68c-20.69-1.19-32.14-12.06-32.62-12.52l-.78-.76,5.54-35.88h55.43l5.54,35.88-.78.76c-.48.46-11.93,11.33-32.34,12.52Zm-28.62-14.83c2.8,2.31,12.88,9.65,28.62,10.57,15.5-.92,25.54-8.27,28.33-10.57l-4.64-30.05H30.5l-4.64,30.05Z"/>
    </g>
  </g>
</svg>