<?xml version="1.0" encoding="UTF-8"?>
<svg id="Layer_1" data-name="Layer 1" xmlns="http://www.w3.org/2000/svg" viewBox="0 0 208.96 300.8">
  <defs>
    <style>
      .cls-1 {
        fill: #fff;
      }

      .cls-2 {
        fill: #b17e2b;
      }

      .cls-3 {
        fill: #a8abad;
      }

      .cls-4 {
        fill: #f8bfc1;
      }

      .cls-5 {
        fill: #995d31;
      }

      .cls-6 {
        fill: #d0d2d3;
      }

      .cls-7 {
        fill: #e3e4e5;
      }

      .cls-8 {
        fill: #a23924;
      }

      .cls-9 {
        fill: #894a2f;
      }

      .cls-10 {
        fill: #6e3a24;
      }

      .cls-11 {
        fill: #bf422a;
      }

      .cls-12 {
        fill: #231f20;
      }
    </style>
  </defs>
  <path class="cls-6" d="m208.85,201.65c-.74-10.52-4.9-18.91-9.31-18.91-.51,0-.93.47-1.41.69l-8.74-72.79c2.78-2.24,4.54-8.16,4.09-15.22-.53-8.42-3.97-15.05-7.79-15.64l-1.9-15.85c.64.29,1.17.59,1.86.88,7.43,3.02,14.69,4.1,16.1,2.38,1.4-1.69-3.48-5.44-10.78-8.35-2.87-1.15-5.61-1.9-8.08-2.41l-.93-7.75c-2.13-17.69-25.2-31.28-51.41-31.28h-20.65c-26.2,0-49.3,13.6-51.46,31.28l-.99,8.15c-1.98.51-4.06,1.14-6.21,2.01-7.3,2.91-12.18,6.66-10.78,8.35,1.41,1.71,8.62.64,16.02-2.35l-1.86,15.3c-3.47,1.38-6.48,7.49-6.98,15.29-.41,6.42,1,11.91,3.35,14.56l-8.89,73.05c-.21-.04-.38-.29-.6-.29-4.41,0-8.58,8.4-9.33,18.91-.65,9.13,1.57,16.52,5.04,18.59l-.76,6.3c-.26,2.12-.39,4.22-.4,6.31l.86-7.22.61-5c0-.08-.02-.16-.03-.24.02,0,.04.02.06.03l-.63,5.22-.86,7.22h0s-.02.22-.02.22c-4.35,35.71,25.84,67.72,67.54,67.72h32.85c41.7,0,71.94-32.02,67.65-67.72l-.03-.28c-.01-2.07-.14-4.15-.39-6.25l-.69-5.88c3.96-1.23,6.58-9.16,5.89-19.01Z"/>
  <g>
    <g>
      <path class="cls-12" d="m176.78,184.26c-.74-10.52-4.9-18.91-9.31-18.91s-7.5,8.39-6.9,18.91c.61,10.69,4.8,19.5,9.34,19.5s7.61-8.8,6.86-19.5Z"/>
      <path class="cls-12" d="m161.42,78.03c-.56-8.81-4.28-15.86-8.31-15.86s-6.96,7.04-6.52,15.86c.45,8.95,4.19,16.3,8.34,16.3s7.06-7.36,6.49-16.3Z"/>
      <path class="cls-12" d="m.12,184.26c.75-10.52,4.92-18.91,9.33-18.91s7.49,8.39,6.88,18.91c-.62,10.69-4.82,19.5-9.36,19.5S-.64,194.95.12,184.26Z"/>
      <path class="cls-12" d="m15.58,78.03c.57-8.81,4.29-15.86,8.33-15.86s6.95,7.04,6.5,15.86c-.46,8.95-4.2,16.3-8.36,16.3s-7.05-7.36-6.47-16.3Z"/>
      <path class="cls-11" d="m4.85,208.24L26.38,31.28C28.54,13.59,51.63,0,77.84,0h20.65c26.2,0,49.28,13.59,51.41,31.28l21.24,176.96c-2.21,30.31-30.15,55.46-67,55.46h-32.37c-36.85,0-64.74-25.15-66.9-55.46Z"/>
      <g>
        <g>
          <path class="cls-8" d="m71.5,283.41C29.8,283.41-.38,251.39,3.97,215.68l.89-7.44c2.16,30.31,30.05,55.46,66.9,55.46h32.37c36.85,0,64.79-25.15,67-55.46l.88,7.44c4.29,35.71-25.95,67.72-67.65,67.72h-32.85Z"/>
          <path class="cls-2" d="m25.23,207.13c.07-.11.14-.2.25-.31v.03c-.11.08-.18.19-.25.28Z"/>
          <path class="cls-12" d="m25.47,206.85v-.03c21.71-26.35,100.98-26.35,122.59,0v.03c-.27,23.07-27.26,42.08-61.39,42.08s-61.01-19.01-61.21-42.08Z"/>
          <path class="cls-2" d="m148.07,206.85v-.03c.1.11.17.19.24.31-.07-.08-.14-.2-.24-.28Z"/>
        </g>
        <g>
          <path class="cls-5" d="m171.97,215.45c-.01-2.09-.14-4.19-.4-6.31l-.87-7.37c-.04.49-.13.97-.19,1.46l.6,5,.85,7.22Z"/>
          <path class="cls-5" d="m4.85,208.24l.61-5c-.05-.49-.15-.96-.18-1.46l-.88,7.37c-.26,2.12-.39,4.22-.4,6.31l.86-7.22Z"/>
          <path class="cls-11" d="m104.27,276.16h-32.67c-38.93,0-67.85-27.98-67.61-60.71l-.03.23c-4.35,35.71,25.84,67.72,67.54,67.72h32.85c41.7,0,71.94-32.02,67.65-67.72l-.03-.23c.19,32.73-28.78,60.71-67.7,60.71Z"/>
        </g>
      </g>
      <path class="cls-11" d="m19.17,41.44c7.21-2.88,14.2-3.91,15.72-2.32,1.54,1.61-3.07,5.31-10.4,8.29-7.43,3.02-14.69,4.1-16.1,2.38-1.39-1.69,3.48-5.44,10.78-8.36Z"/>
      <path class="cls-11" d="m158.89,41.44c-7.21-2.88-14.2-3.91-15.72-2.32-1.54,1.61,3.07,5.31,10.4,8.29,7.43,3.02,14.69,4.1,16.1,2.38,1.39-1.69-3.48-5.44-10.78-8.36Z"/>
    </g>
    <path class="cls-10" d="m60.63,174.95h58.42c21.04,0,33.82-21.01,29.26-43.54l-9.82-85H37.49l-6.11,85c-4.57,22.52,8.22,43.54,29.25,43.54Z"/>
    <g>
      <rect class="cls-7" x="49.03" y="111.85" width="32.61" height="33.53" rx=".33" ry=".33"/>
      <path class="cls-3" d="m49.03,124.71h0c-4.13,0-7.47-2.98-7.47-6.67v-14.61c0-3.68,3.35-6.67,7.47-6.67h0c4.13,0,7.47,2.98,7.47,6.67v14.61c0,3.68-3.35,6.67-7.47,6.67Z"/>
      <path class="cls-3" d="m79.38,124.71h0c-4.13,0-7.47-2.98-7.47-6.67v-14.61c0-3.68,3.35-6.67,7.47-6.67h0c4.13,0,7.47,2.98,7.47,6.67v14.61c0,3.68-3.35,6.67-7.47,6.67Z"/>
      <rect class="cls-1" x="50.84" y="93.2" width="28.54" height="33.53" rx=".33" ry=".33"/>
      <path class="cls-4" d="m72.05,151.25h-13.88c-8.75,0-15.87-6.35-15.87-14.16v-12.38c0-2.01,1.83-3.64,4.08-3.64s4.08,1.63,4.08,3.64v12.38c0,3.8,3.45,6.87,7.71,6.87h13.88c4.26,0,7.71-3.08,7.71-6.87v-12.38c0-2.01,1.83-3.64,4.08-3.64s4.08,1.63,4.08,3.64v12.38c0,7.81-7.12,14.16-15.87,14.16Z"/>
    </g>
    <g>
      <rect class="cls-7" x="105.05" y="111.85" width="32.62" height="33.53" rx=".33" ry=".33"/>
      <path class="cls-3" d="m105.05,124.71h0c-4.13,0-7.47-2.98-7.47-6.67v-14.61c0-3.68,3.35-6.67,7.47-6.67h0c4.13,0,7.47,2.98,7.47,6.67v14.61c0,3.68-3.35,6.67-7.47,6.67Z"/>
      <path class="cls-3" d="m135.4,124.71h0c-4.13,0-7.47-2.98-7.47-6.67v-14.61c0-3.68,3.35-6.67,7.47-6.67h0c4.13,0,7.47,2.98,7.47,6.67v14.61c0,3.68-3.35,6.67-7.47,6.67Z"/>
      <rect class="cls-1" x="106.86" y="93.2" width="28.54" height="33.53" rx=".33" ry=".33"/>
      <path class="cls-4" d="m128.08,151.25h-13.91c-8.73,0-15.85-6.35-15.85-14.16v-12.38c0-2.01,1.84-3.64,4.08-3.64s4.08,1.63,4.08,3.64v12.38c0,3.8,3.45,6.87,7.68,6.87h13.91c4.23,0,7.68-3.08,7.68-6.87v-12.38c0-2.01,1.84-3.64,4.08-3.64s4.08,1.63,4.08,3.64v12.38c0,7.81-7.12,14.16-15.85,14.16Z"/>
    </g>
    <g>
      <path class="cls-12" d="m130.16,97.91l8.34-50.74s-18.14-16.52-50.5-18.29c-32.36,1.77-50.5,18.29-50.5,18.29l8.34,50.74h84.33Z"/>
      <path class="cls-9" d="m133.34,101.19H42.64l-9.06-55.16,1.29-1.17c.76-.71,19.51-17.45,52.89-19.27,33.83,1.82,52.59,18.56,53.35,19.27l1.29,1.17-9.06,55.16Zm-84.33-6.58h77.95l7.6-46.2c-4.56-3.55-21.04-14.86-46.8-16.27-25.37,1.41-41.78,12.71-46.34,16.26l7.6,46.21Z"/>
    </g>
  </g>
</svg>