<?xml version="1.0" encoding="UTF-8"?>
<svg id="Layer_1" data-name="Layer 1" xmlns="http://www.w3.org/2000/svg" viewBox="0 0 113.49 202.91">
  <defs>
    <style>
      .cls-1 {
        fill: #659846;
      }

      .cls-2 {
        fill: #545456;
      }

      .cls-3 {
        fill: #d0d2d3;
      }

      .cls-4 {
        fill: #d36a99;
      }

      .cls-5 {
        fill: #24b24b;
      }

      .cls-6 {
        fill: #231f20;
      }

      .cls-7 {
        fill: #f5aacb;
      }
    </style>
  </defs>
  <path class="cls-3" d="m113.29,156.04c-.99-1.48-5.33-.56-9.69,2.06l.23-13.11c2-1.15,3.42-6.2,3.23-12.52-.15-5.08-1.3-9.36-2.82-11.42l.88-50.86c.11.03.21.18.33.18,2.3,0,4-5.24,3.78-11.66-.18-5.43-1.7-9.73-3.54-10.93l.06-3.59c.02-1.19-.02-2.38-.12-3.54l-.06,4.06.06-4.06h0s0-.13,0-.13c.01-.59-.12-1.13-.14-1.71l.08-4.47c-2.51-16.58-16.57-29.47-33.67-29.47h-15.02c-17.1,0-31.17,12.89-33.68,29.47l.08,4.53c-.02.56-.15,1.09-.14,1.66v.13s0,0,0,0l.06,4.06-.06-4.06c-.1,1.17-.14,2.35-.12,3.54l.05,3.35c-2.04.71-3.78,5.32-3.99,11.17-.22,6.41,1.47,11.66,3.77,11.66.27,0,.51-.29.77-.43l.86,50.61c-1.74,1.74-3.11,6.33-3.28,11.92-.21,6.83,1.43,12.33,3.7,12.81l.23,13.61c-.38-.26-.68-.52-1.09-.77-4.37-2.64-8.74-3.57-9.74-2.08-.99,1.48,1.74,4.78,6.06,7.37,1.71,1.03,3.37,1.7,4.88,2.16l.12,7.05c.29,16.76,14.75,30.29,32.14,30.29h13.7c17.39,0,31.86-13.54,32.15-30.29l.13-7.42c1.2-.46,2.46-1.02,3.74-1.8,4.33-2.59,7.06-5.89,6.07-7.37Zm-7.75-108.34s-.02-.01-.03-.02v-.12s.02.09.03.14Z"/>
  <g>
    <path class="cls-6" d="m4.98,53.85c-.22,6.41,1.47,11.65,3.77,11.65s4.32-5.24,4.5-11.65c.18-6.35-1.51-11.45-3.78-11.45s-4.28,5.1-4.49,11.45Z"/>
    <path class="cls-6" d="m7.1,127.6c-.22,7.15,1.57,13,4,13s4.55-5.85,4.73-13c.17-7.08-1.62-12.76-4.01-12.76s-4.5,5.68-4.72,12.76Z"/>
    <path class="cls-6" d="m95.14,53.85c.22,6.41-1.48,11.65-3.78,11.65s-4.32-5.24-4.49-11.65c-.17-6.35,1.52-11.45,3.79-11.45s4.27,5.1,4.49,11.45Z"/>
    <path class="cls-6" d="m92.96,127.6c.22,7.15-1.58,13-4.01,13s-4.55-5.85-4.72-13c-.17-7.08,1.63-12.76,4.02-12.76s4.5,5.68,4.71,12.76Z"/>
    <path class="cls-7" d="m91.47,39.84l-2.22,127.92c-.29,16.76-14.76,30.29-32.15,30.29h-13.7c-17.39,0-31.85-13.54-32.14-30.29l-2.16-127.92c2.51-16.58,16.58-29.47,33.68-29.47h15.02c17.1,0,31.16,12.89,33.67,29.47Z"/>
    <g>
      <path class="cls-7" d="m42.78,10.37h15.02c16.81,0,30.65,12.46,33.5,28.63l.17-9.53C88.97,12.89,74.91,0,57.8,0h-15.02C25.68,0,11.61,12.89,9.1,29.47l.16,9.55c2.85-16.18,16.71-28.65,33.52-28.65Z"/>
      <g>
        <g>
          <path class="cls-4" d="m57.75.78c18.93,0,34.12,15.81,33.79,34.88l-.06,4.18c-2.51-16.58-16.57-29.47-33.67-29.47h-15.02c-17.1,0-31.17,12.89-33.68,29.47l-.06-4.18C8.71,16.59,23.91.78,42.84.78h14.91Z"/>
          <path class="cls-5" d="m81.42,40.47c-.03.06-.06.11-.11.17v-.02s.08-.11.11-.16Z"/>
          <path class="cls-6" d="m81.31,40.63v.02c-10.09,15.49-50.74,15.49-60.84,0v-.02c.94-12.77,14.32-22.78,30.42-22.78s29.47,10.01,30.42,22.78Z"/>
          <path class="cls-5" d="m20.47,40.63v.02c-.05-.06-.08-.11-.11-.17.03.05.06.11.11.16Z"/>
        </g>
        <g>
          <path class="cls-1" d="m9.04,35.78c-.1,1.17-.14,2.35-.12,3.54l.06,4.21c.04-.28.11-.56.17-.84l-.05-2.86-.06-4.06Z"/>
          <path class="cls-1" d="m91.47,39.84l-.05,2.86c.05.28.12.55.16.84l.07-4.21c.02-1.19-.02-2.38-.12-3.54l-.06,4.06Z"/>
          <path class="cls-7" d="m42.82,4.25h14.95c17.81,0,32.31,13.98,33.77,31.53v-.13C91.87,16.59,76.68.78,57.75.78h-14.91C23.91.78,8.71,16.59,9.04,35.65v.13c1.47-17.55,15.97-31.53,33.78-31.53Z"/>
        </g>
      </g>
      <path class="cls-6" d="m81.31,40.64c.05-.06.08-.11.11-.17l2.36,100.45c-.04-.05-.07-.11-.11-.16v-.02c-11.09-18.02-12.14-84.13-2.36-100.1Z"/>
      <path class="cls-6" d="m20.47,40.64c9.78,15.96,8.77,82.08-2.32,100.1-.01-.31,0-.62,0-.93l-.07-.89,2.27-98.44c.03.06.06.11.11.17Z"/>
      <path class="cls-6" d="m83.68,140.74v.02c-.23,15.19-14.67,27.59-32.75,27.59s-32.54-12.4-32.78-27.59c11.34-17.59,54.14-17.59,65.52-.02Z"/>
      <path class="cls-2" d="m20.68,151.14c4.93,10.08,16.57,17.21,30.25,17.21s25.3-7.13,30.23-17.22c-13.4-13.3-47.1-13.3-60.47,0Z"/>
    </g>
    <path class="cls-4" d="m89.25,157.39c-.29,16.76-14.76,30.29-32.15,30.29h-13.7c-17.39,0-31.85-13.54-32.14-30.29v-.57h-.18l.18,10.94c.29,16.76,14.75,30.29,32.14,30.29h13.7c17.39,0,31.86-13.54,32.15-30.29l.19-10.94h-.18v.57Z"/>
    <path class="cls-4" d="m93.12,158.54c-4.31,2.58-8.62,3.51-9.66,2.08-1.04-1.44,1.63-4.74,5.99-7.37,4.38-2.64,8.75-3.57,9.74-2.08.98,1.48-1.75,4.78-6.07,7.37Z"/>
    <path class="cls-4" d="m6.27,158.54c4.31,2.58,8.62,3.51,9.65,2.08,1.04-1.44-1.62-4.74-5.98-7.37-4.37-2.64-8.75-3.57-9.74-2.08-.99,1.48,1.74,4.78,6.06,7.37Z"/>
  </g>
</svg>