<?xml version="1.0" encoding="UTF-8"?>
<svg id="Layer_1" data-name="Layer 1" xmlns="http://www.w3.org/2000/svg" viewBox="0 0 87.97 202.28">
  <defs>
    <style>
      .cls-1 {
        fill: #a0684f;
      }

      .cls-2 {
        fill: #d0d2d3;
      }

      .cls-3 {
        fill: #dadad8;
      }

      .cls-4 {
        fill: #d46837;
      }

      .cls-5 {
        fill: #231f20;
      }

      .cls-6 {
        fill: #f5c2ab;
      }

      .cls-7 {
        fill: #895742;
      }

      .cls-8 {
        fill: #3aa155;
      }
    </style>
  </defs>
  <path class="cls-2" d="m87.97,17.01c0-4.03-2.92-7.33-6.48-7.34l-1.8-4.7h-19.54s-20.07,0-20.07,0h-19.54s-1.82,4.76-1.82,4.76c-3.43.18-6.2,3.35-6.2,7.27v110.27c0,4.05,2.91,7.35,6.49,7.35h2.66c-.07.68-.15,1.36-.15,2.06v47.34c0,10.08,7.21,18.24,16.11,18.24h25.25c8.9,0,16.11-8.17,16.11-18.24v-47.34c0-.7-.08-1.38-.15-2.06h2.66c3.56,0,6.49-3.3,6.49-7.35V17.01Z"/>
  <g>
    <path class="cls-6" d="m8.99,131.72v47.34c0,10.08,7.21,18.24,16.11,18.24h25.25c8.9,0,16.11-8.17,16.11-18.24v-47.34c0-1.01-.08-1.99-.22-2.96H9.21c-.14.96-.22,1.95-.22,2.96Z"/>
    <g>
      <path class="cls-4" d="m50.36,184.6h-25.25c-8.9,0-16.11-8.17-16.11-18.24v12.38c0,10.08,7.21,18.24,16.11,18.24h25.25c8.9,0,16.11-8.17,16.11-18.24v-12.38c0,10.08-7.21,18.24-16.11,18.24Z"/>
      <path class="cls-5" d="m57.26,157.22c.96,7.5-3.25,13.64-9.36,13.64h-20.35c-6.11,0-10.32-6.14-9.36-13.64l.58-4.53c.96-7.5,6.74-13.64,12.85-13.64h12.21c6.11,0,11.89,6.14,12.85,13.64l.58,4.53Z"/>
      <g>
        <path class="cls-5" d="m12.91,128.44l-.44,43.06s9.58-21.05.44-43.06Z"/>
        <path class="cls-5" d="m62.55,128.44l.43,43.06s-9.58-21.05-.43-43.06Z"/>
      </g>
    </g>
    <g>
      <polygon class="cls-4" points="27.56 10.82 47.64 10.82 71.32 10.82 67.18 0 47.64 0 27.57 0 8.03 0 3.89 10.82 27.56 10.82"/>
      <g>
        <g>
          <path class="cls-6" d="m3.89,40.26V12.04c0-1.59,1.19-2.93,2.6-2.94h62.49c1.41,0,2.59,1.34,2.59,2.94v28.23l-4.39,2.86v36.23l4.39,2.86v40.08c0,1.59-1.19,2.93-2.59,2.94h-4.33c-2.03-2.28-4.82-3.71-7.89-3.71H18.71c-3.07,0-5.87,1.42-7.89,3.71h-4.33c-1.41,0-2.6-1.34-2.6-2.94v-40.07l4.39-2.87v-36.23l-4.39-2.87Z"/>
          <polygon class="cls-8" points="3.89 82.24 3.89 40.26 8.27 43.13 8.27 79.36 3.89 82.24"/>
          <path class="cls-1" d="m66.69,125.27H8.97c2.17-2.3,5.17-3.73,8.46-3.73h40.79c3.3,0,6.29,1.43,8.46,3.73Z"/>
          <polygon class="cls-8" points="67.18 79.36 67.18 43.13 71.57 40.27 71.57 82.23 67.18 79.36"/>
          <path class="cls-7" d="m6.49,129.65h62.49c3.56,0,6.49-3.3,6.49-7.35V12.04c0-4.03-2.92-7.34-6.49-7.34H6.49c-3.57,0-6.49,3.3-6.49,7.34v110.27c0,4.05,2.91,7.35,6.49,7.35Zm-2.6-47.42V12.04c0-1.59,1.19-2.93,2.6-2.94h62.49c1.41,0,2.59,1.34,2.59,2.94v110.27c0,1.59-1.19,2.93-2.59,2.94h-4.33s-53.83,0-53.83,0h-4.33c-1.41,0-2.6-1.34-2.6-2.94v-40.07Z"/>
        </g>
        <g>
          <polygon class="cls-3" points="71.57 40.27 67.18 43.13 67.18 79.36 71.57 82.23 75.46 84.78 75.46 37.72 71.57 40.27"/>
          <polygon class="cls-3" points="3.89 40.26 8.27 43.13 8.27 79.36 3.89 82.24 0 84.78 0 37.72 3.89 40.26"/>
        </g>
      </g>
      <path class="cls-4" d="m64.64,125.24h4.33c1.41,0,2.59-1.31,2.59-2.86v-39.06l-4.39-2.79v-35.31l4.39-2.79V14.92c0-1.55-1.19-2.86-2.59-2.86h-9.86v109.86c2.12.51,4.03,1.69,5.53,3.32Z"/>
      <path class="cls-4" d="m10.35,125.24h-4.33c-1.41,0-2.59-1.31-2.59-2.86v-39.06s4.38-2.79,4.38-2.79v-35.31l-4.38-2.79V14.92c0-1.55,1.18-2.86,2.59-2.86h9.86v109.86c-2.13.51-4.03,1.69-5.52,3.32Z"/>
    </g>
  </g>
</svg>