<?xml version="1.0" encoding="UTF-8"?>
<svg id="Layer_1" data-name="Layer 1" xmlns="http://www.w3.org/2000/svg" viewBox="0 0 88.33 164.36">
  <defs>
    <style>
      .cls-1 {
        fill: #96a139;
      }

      .cls-2 {
        fill: #659846;
      }

      .cls-3 {
        fill: #545456;
      }

      .cls-4 {
        fill: #d0d2d3;
      }

      .cls-5 {
        fill: #b4bf44;
      }

      .cls-6 {
        fill: #24b24b;
      }

      .cls-7 {
        fill: #231f20;
      }
    </style>
  </defs>
  <path class="cls-4" d="m84.14,71.15c1.96,0,3.81-4.73,4.14-10.66.29-5.15-.7-9.32-2.24-10.48l.34-3.55c.12-1.19.17-2.38.18-3.55l-.38,4.07.38-4.07h0s.01-.13.01-.13c1.93-20.13-11.47-38.18-29.98-38.18h-14.58c-18.51,0-31.94,18.05-30.03,38.18v.13c.02,1.17.07,2.36.19,3.55l.31,3.31c-1.76.69-2.92,5.16-2.62,10.72.33,5.93,2.18,10.66,4.13,10.66.23,0,.41-.26.63-.39l3.88,41.03c-1.24,1.27-2.02,4.6-1.82,8.58.24,4.75,1.76,8.48,3.46,8.81l.84,8.93c-.28-.16-.52-.33-.82-.49-3.3-1.7-6.52-2.31-7.15-1.34-.62.95,1.54,3.07,4.79,4.71,1.27.65,2.49,1.07,3.58,1.36l.41,4.37c.94,9.97,11.19,17.64,22.82,17.64h9.17c11.63,0,21.89-7.66,22.84-17.64l.44-4.6c.88-.29,1.8-.64,2.76-1.13,3.24-1.64,5.41-3.76,4.79-4.71-.62-.96-3.83-.36-7.11,1.33l.83-8.63c1.54-.78,2.88-4.22,3.1-8.62.18-3.62-.45-6.71-1.49-8.21l3.95-41.18c.09.02.17.16.26.16Zm1.78-21.22s-.02,0-.02-.01v-.12s.02.09.02.13Zm-73.3-.25l-.26-2.71.26,2.7h0Z"/>
  <g>
    <path class="cls-7" d="m.05,55.89c.33,5.93,2.18,10.66,4.13,10.66s3.33-4.73,3.06-10.66c-.27-6.03-2.13-10.99-4.15-10.99S-.28,49.86.05,55.89Z"/>
    <path class="cls-7" d="m6.87,115.78c.25,4.97,1.9,8.94,3.69,8.94s3.09-3.97,2.89-8.94c-.2-5.04-1.86-9.19-3.7-9.19s-3.13,4.15-2.88,9.19Z"/>
    <path class="cls-7" d="m78.48,55.89c-.33,5.93-2.18,10.66-4.14,10.66s-3.33-4.73-3.06-10.66c.28-6.03,2.14-10.99,4.16-10.99s3.38,4.96,3.04,10.99Z"/>
    <path class="cls-7" d="m71.61,115.78c-.25,4.97-1.91,8.94-3.7,8.94s-3.09-3.97-2.89-8.94c.2-5.04,1.87-9.19,3.71-9.19s3.13,4.15,2.87,9.19Z"/>
    <path class="cls-5" d="m76.37,42.37l-9.56,99.76c-.96,9.97-11.21,17.63-22.84,17.63h-9.17c-11.63,0-21.88-7.66-22.82-17.63L2.56,42.37c.98-17.09,13.38-31.26,29.74-31.26h14.37c16.36,0,28.74,14.18,29.7,31.26Z"/>
    <g>
      <g>
        <path class="cls-1" d="m46.78,0c18.51,0,31.91,18.05,29.98,38.18l-.39,4.2c-.96-17.09-13.34-31.26-29.7-31.26h-14.37C15.94,11.11,3.54,25.29,2.56,42.37l-.39-4.2C.27,18.05,13.69,0,32.2,0h14.58Z"/>
        <path class="cls-6" d="m67.33,43c-.03.06-.06.11-.11.17v-.02s.08-.11.11-.16Z"/>
        <path class="cls-7" d="m67.22,43.16v.02c-9.64,14.85-44.83,14.85-54.42,0v-.02c.12-13,12.1-23.72,27.25-23.72s27.09,10.72,27.17,23.72Z"/>
        <path class="cls-6" d="m12.8,43.16v.02c-.05-.06-.08-.11-.11-.17.03.05.06.11.11.16Z"/>
      </g>
      <g>
        <path class="cls-2" d="m2.18,38.31c0,1.18.06,2.36.18,3.55l.39,4.16c.02-.28.06-.55.08-.82l-.27-2.82-.38-4.07Z"/>
        <path class="cls-2" d="m76.37,42.37l-.27,2.82c.02.28.07.54.08.82l.39-4.16c.12-1.19.17-2.38.18-3.55l-.38,4.07Z"/>
        <path class="cls-5" d="m32.24,4.08h14.5c17.28,0,30.12,15.78,30.01,34.23v-.13C78.7,18.05,65.3,0,46.78,0h-14.58C13.69,0,.27,18.05,2.17,38.18v.13c-.07-18.45,12.79-34.23,30.07-34.23Z"/>
      </g>
    </g>
    <path class="cls-7" d="m67.22,43.17c.05-.06.08-.11.11-.17l-3.23,81.93s-.05-.07-.07-.11h0c-7.62-12.51-6.18-66.36,3.19-81.65Z"/>
    <path class="cls-7" d="m12.8,43.17c9.33,15.29,10.63,69.14,2.97,81.64-.02-.21-.03-.42-.04-.63l-.09-.6-2.95-80.58c.03.06.06.11.11.17Z"/>
    <path class="cls-7" d="m64.03,124.81h0c-.81,9.95-11.45,17.68-24.15,17.68s-23.33-7.73-24.11-17.67c7.86-12.19,40.4-12.19,48.26-.01Z"/>
    <path class="cls-3" d="m18.02,131.67c3.87,6.42,12.25,10.82,21.86,10.82s17.99-4.41,21.88-10.83c-9.39-8.82-34.34-8.82-43.74,0Z"/>
    <path class="cls-5" d="m70.02,136.4c-3.2,1.62-6.3,2.2-6.98,1.31-.68-.91,1.36-3,4.62-4.68,3.3-1.7,6.52-2.31,7.15-1.34.62.95-1.55,3.07-4.79,4.71Z"/>
    <path class="cls-5" d="m7.99,136.4c3.2,1.62,6.3,2.2,6.98,1.31.68-.91-1.36-3-4.62-4.68-3.3-1.7-6.52-2.31-7.15-1.34-.62.95,1.54,3.07,4.79,4.71Z"/>
  </g>
</svg>