<?xml version="1.0" encoding="UTF-8"?>
<svg xmlns="http://www.w3.org/2000/svg" xmlns:xlink="http://www.w3.org/1999/xlink" viewBox="0 0 130.68 312.62">
  <defs>
    <style>
      .cls-1 {
        fill: url(#linear-gradient-3);
      }

      .cls-1, .cls-2, .cls-3, .cls-4, .cls-5, .cls-6, .cls-7, .cls-8 {
        mix-blend-mode: multiply;
      }

      .cls-9 {
        fill: #fff;
      }

      .cls-2 {
        fill: url(#linear-gradient);
      }

      .cls-10 {
        fill: #939598;
      }

      .cls-3 {
        fill: url(#linear-gradient-4);
      }

      .cls-11 {
        isolation: isolate;
      }

      .cls-4 {
        fill: url(#linear-gradient-6);
      }

      .cls-5 {
        fill: url(#linear-gradient-5);
      }

      .cls-12 {
        fill: none;
        stroke: #26281e;
        stroke-linecap: round;
        stroke-linejoin: round;
      }

      .cls-6 {
        fill: url(#linear-gradient-8);
      }

      .cls-7 {
        fill: url(#linear-gradient-2);
      }

      .cls-8 {
        fill: url(#linear-gradient-7);
      }

      .cls-13 {
        fill: #26281e;
      }
    </style>
    <linearGradient id="linear-gradient" x1="64.09" y1="301.51" x2="64.09" y2="204.86" gradientUnits="userSpaceOnUse">
      <stop offset="0" stop-color="#989898"/>
      <stop offset="1" stop-color="#fff"/>
    </linearGradient>
    <linearGradient id="linear-gradient-2" x1="64.46" y1="4.93" x2="64.46" y2="61.12" xlink:href="#linear-gradient"/>
    <linearGradient id="linear-gradient-3" x1="64.05" y1="103.79" x2="64.05" y2="55.34" xlink:href="#linear-gradient"/>
    <linearGradient id="linear-gradient-4" x1="64.09" y1="98.62" x2="64.09" y2="170.92" xlink:href="#linear-gradient"/>
    <linearGradient id="linear-gradient-5" x1="38.25" y1="98.08" x2="139.91" y2="274.15" xlink:href="#linear-gradient"/>
    <linearGradient id="linear-gradient-6" x1="-27.47" y1="92.73" x2="69.36" y2="260.45" xlink:href="#linear-gradient"/>
    <linearGradient id="linear-gradient-7" x1="96.8" y1="68.39" x2="115.91" y2="68.39" xlink:href="#linear-gradient"/>
    <linearGradient id="linear-gradient-8" x1="21.82" y1="4.93" x2="21.82" y2="131.82" xlink:href="#linear-gradient"/>
  </defs>
  <g class="cls-11">
    <g id="Layer_1" data-name="Layer 1">
      <g>
        <g>
          <g>
            <polygon class="cls-10" points="124.79 185.38 130.68 184.99 130.68 186.46 130.68 187.2 129.94 188.68 128.47 190.15 124.65 192.89 123.33 193.84 120.39 195.32 118.91 196.06 118.18 196.06 118.18 193.84 118.91 188.68 119.65 185.73 120.39 185.68 124.79 185.38"/>
            <polygon class="cls-10" points="103.74 129.75 103.48 132.61 103.48 143.67 103.48 151.79 104.21 151.79 104.95 159.9 105.68 165.07 106.42 168.02 116.26 197.68 117.44 201.22 118.91 201.96 120.39 203.43 121.86 204.17 124.06 204.91 124.8 204.91 125.12 204.9 125.53 219.66 125.53 238.11 124.06 263.19 119.65 287.54 118.4 291.3 118.18 291.23 113.77 293.44 114.5 288.28 115.97 275.73 116.71 264.67 117.44 255.08 117.44 238.85 118.18 223.35 118.18 213.76 117.44 212.29 116.71 210.07 115.97 207.86 114.5 211.55 107.89 218.93 94.66 224.09 77.75 227.04 67.46 227.78 57.16 227.04 39.52 224.09 27.02 218.93 19.67 211.55 18.94 207.86 20.04 207.49 21.14 210.81 27.76 216.71 40.26 222.61 57.16 225.57 67.46 226.3 77.01 225.57 93.92 222.61 107.15 216.71 113.03 210.81 114.5 206.38 102.74 168.76 101.27 157.69 99.8 149.58 99.8 137.03 99.8 120.8 99.8 111.21 99.8 106.79 104.21 64.73 104.95 64.73 108.62 69.9 110.09 73.59 111.56 79.49 113.03 85.39 114.5 91.29 115.24 99.41 114.6 99.49 114.5 98.67 113.77 94.24 113.03 92.77 111.56 92.03 110.83 92.77 105.68 109.74 104.95 116.38 104.21 124.49 103.74 129.75"/>
            <polygon class="cls-10" points="124.8 193.1 125.12 204.9 124.8 204.91 124.06 204.91 121.86 204.17 120.39 203.43 120.39 195.32 123.33 193.84 124.65 192.89 124.8 193.1"/>
            <polygon class="cls-10" points="124.06 151.05 124.79 185.38 120.39 185.68 120.39 176.14 120.39 164.33 119.65 152.53 119.65 148.84 119.65 140.72 118.91 134.82 120.39 134.08 121.86 134.08 123.33 134.08 124.06 134.08 124.06 139.25 124.06 150.31 124.06 151.05"/>
            <polygon class="cls-10" points="124.06 133.35 124.06 134.08 123.33 134.08 121.86 134.08 120.39 134.08 118.91 134.82 118.18 117.11 118.18 108.26 117.44 97.93 116.71 88.34 115.97 79.49 114.5 66.21 113.03 58.09 110.09 21.94 109.38 15.49 109.36 15.3 110.38 15.05 119.65 52.93 122.59 78.75 123.33 93.51 123.33 103.1 124.06 133.35"/>
            <polygon class="cls-10" points="120.39 195.32 120.39 203.43 118.91 201.96 117.44 201.22 116.26 197.68 116.71 197.53 116.71 188.68 117.44 180.56 118.18 168.02 118.18 154 118.18 148.84 118.18 140.72 118.18 134.82 118.91 134.82 119.65 140.72 119.65 148.84 119.65 152.53 120.39 164.33 120.39 176.14 120.39 185.68 119.65 185.73 118.91 188.68 118.18 193.84 118.18 196.06 118.91 196.06 120.39 195.32"/>
            <path class="cls-10" d="m105.25,64.12l.43-.86.74-4.43-6.62-50.88c4.32.16,7.96,3.33,8.69,7.64l.89-.1.71,6.45,2.94,36.15,1.47,8.12,1.47,13.28.74,8.85.73,9.59.74,10.33v8.85l.73,17.71h-.73l-.74-5.9-.73-8.85v-7.38l-.74-2.21-1.37-10.99.64-.08-.74-8.12-1.47-5.9-1.47-5.9-1.47-5.9-1.47-3.69-3.67-5.17.3-.61Z"/>
            <polygon class="cls-10" points="118.4 291.3 117.44 294.18 115.24 297.87 112.3 300.08 101.27 303.77 95.39 305.98 82.89 308.95 82.89 308.93 84.36 301.55 93.92 300.08 97.6 299.34 102.01 297.87 105.68 297.13 110.83 294.91 113.77 293.44 118.18 291.23 118.4 291.3"/>
            <path class="cls-10" d="m118.18,213.76v9.59l-.74,15.5v16.23l-.73,9.59-.74,11.06-1.47,12.55-.73,5.16-2.94,1.47-5.15,2.22-3.67.74-4.41,1.47-3.68.74-9.56,1.47-2.2,1.48h-3.68l-2.2.74h-3.68l-3.67.74-1.47-.74-2.21.74-3.67-.74h-2.94l-2.95-.74h-2.94l-2.2-1.48-9.56-1.47-3.67-.74-4.41-1.47-4.41-.74-4.42-2.22-3.67-1.47-.74-5.16-.73-12.55-1.47-11.06v-9.59l-.74-16.23-.73-15.5.73-9.59v-1.47l.74-2.22,1.47-2.21.73,3.69,7.35,7.38,12.5,5.16,17.64,2.95,10.3.74,10.29-.74,16.91-2.95,13.23-5.16,6.61-7.38,1.47-3.69.74,2.21.73,2.22.74,1.47Zm-10.29,75.99l.73-22.87-11.02,22.87h.73l.74.74h8.08v-.74h.74Zm-71.31,0l-11.03-22.87.74,22.87h.73l.74.74h7.35l.74-.74h.73Z"/>
            <polygon class="cls-10" points="118.18 154 118.18 168.02 117.44 180.56 116.71 188.68 116.71 197.53 116.26 197.68 106.42 168.02 105.68 165.07 104.95 159.9 104.21 151.79 103.48 151.79 103.48 143.67 103.48 132.61 103.74 129.75 118.18 134.82 118.18 140.72 118.18 148.84 118.18 154"/>
            <polygon class="cls-10" points="117.44 128.92 118.18 134.82 103.74 129.75 104.21 124.49 104.95 116.38 105.68 109.74 110.83 92.77 111.56 92.03 113.03 92.77 113.77 94.24 114.5 98.67 114.6 99.49 115.97 110.48 116.71 112.69 116.71 120.07 117.44 128.92"/>
            <polygon class="cls-10" points="102.74 168.76 114.5 206.38 113.03 210.81 107.15 216.71 93.92 222.61 77.01 225.57 67.46 226.3 57.16 225.57 40.26 222.61 27.76 216.71 21.14 210.81 20.04 207.49 19.67 206.38 31.44 168.76 49.08 172.45 67.46 173.92 85.1 172.45 102.74 168.76"/>
            <path class="cls-10" d="m108.32,11.09l1.04-.21,1.02,4.17-1.02.25.02.19-.89.1c-.73-4.31-4.37-7.48-8.69-7.64v-.02H34.01c-4.2,0-7.82,2.85-8.88,6.85l-.56-.15.69-2.64-.31-.08c.76-4.43,4.58-7.67,9.06-7.67l.37-.74h65.05v.74c4.2,0,7.83,2.85,8.89,6.85Z"/>
            <polygon class="cls-10" points="108.62 266.88 107.89 289.75 107.15 289.75 107.15 290.49 106.42 290.49 105.68 290.49 104.21 290.49 103.48 290.49 102.74 290.49 101.27 290.49 100.54 290.49 99.8 290.49 99.07 290.49 98.33 289.75 97.6 289.75 108.62 266.88"/>
            <path class="cls-10" d="m99.8,7.95l6.62,50.88-.74,4.43-.43.86c-12.7-2.79-25.58-4.72-38.54-5.78h-.01c-12.72,1.05-25.36,2.93-37.84,5.65l-.36-.73v-4.43l5.88-50.9h65.05c.12,0,.25,0,.37.02Z"/>
            <path class="cls-10" d="m105.25,64.12l-.3.61h-.74l-4.41,42.06-16.17-3.69-16.17-1.48-16.91,1.48-16.17,3.69-4.41-42.06h-.74l-.37-.74c12.48-2.72,25.12-4.6,37.84-5.65h.01c12.96,1.06,25.84,2.99,38.54,5.78Z"/>
            <polygon class="cls-10" points="101.27 157.69 102.74 168.76 85.1 172.45 67.46 173.92 49.08 172.45 31.44 168.76 32.91 157.69 34.38 149.58 35.11 137.03 35.11 120.8 35.11 111.21 34.38 106.79 50.55 103.1 67.46 101.62 83.63 103.1 99.8 106.79 99.8 111.21 99.8 120.8 99.8 137.03 99.8 149.58 101.27 157.69"/>
            <polygon class="cls-10" points="81.6 307.48 81.78 306.03 81.97 304.54 82.16 303.03 84.36 301.55 82.89 308.93 82.89 308.95 67.46 312.62 52.71 309.11 52.75 308.93 52.75 307.46 67.46 311.15 81.42 307.46 81.6 307.48"/>
            <polygon class="cls-10" points="82.16 303.03 81.97 304.54 67.46 306.72 52.75 304.51 52.75 303.03 55.69 303.03 58.64 303.77 61.58 303.77 65.25 304.51 67.46 303.77 68.93 304.51 72.6 303.77 76.28 303.77 78.48 303.03 82.16 303.03"/>
            <polygon class="cls-10" points="81.97 304.54 81.78 306.03 81.42 305.98 67.46 308.93 52.75 305.98 52.75 304.51 67.46 306.72 81.97 304.54"/>
            <polygon class="cls-10" points="81.78 306.03 81.6 307.48 81.42 307.46 67.46 311.15 52.75 307.46 52.75 305.98 67.46 308.93 81.42 305.98 81.78 306.03"/>
            <polygon class="cls-10" points="52.75 307.46 52.75 308.93 52.71 309.11 51.26 308.77 50.55 301.55 52.75 303.03 52.75 304.51 52.75 305.98 52.75 307.46"/>
            <polygon class="cls-10" points="50.55 301.55 51.26 308.77 39.52 305.98 33.64 303.77 22.61 300.08 18.94 297.87 16.73 294.18 16.09 291.27 20.41 293.44 24.08 294.91 28.5 297.13 32.91 297.87 37.32 299.34 40.99 300.08 50.55 301.55"/>
            <polygon class="cls-10" points="25.55 266.88 36.58 289.75 35.85 289.75 35.11 290.49 34.38 290.49 33.64 290.49 32.91 290.49 32.17 290.49 30.7 290.49 29.97 290.49 29.23 290.49 28.5 290.49 27.76 290.49 27.02 289.75 26.29 289.75 25.55 266.88"/>
            <polygon class="cls-10" points="18.17 197.16 28.5 168.02 28.5 165.07 29.23 159.9 29.97 151.79 30.7 151.79 30.7 143.67 30.7 132.61 30.7 129.66 30.7 124.49 29.97 116.38 28.5 109.74 24.08 92.77 22.61 92.03 21.14 92.77 20.41 94.24 19.82 97.78 20.41 91.29 21.14 85.39 22.61 79.49 24.08 73.59 26.29 69.9 29.23 64.73 29.97 64.73 34.38 106.79 35.11 111.21 35.11 120.8 35.11 137.03 34.38 149.58 32.91 157.69 31.44 168.76 19.67 206.38 20.04 207.49 18.94 207.86 17.47 210.07 16.73 212.29 16.73 213.76 16 223.35 16.73 238.85 17.47 255.08 17.47 264.67 18.94 275.73 19.67 288.28 20.41 293.44 16.09 291.27 15.26 287.54 10.85 263.19 9.38 238.11 9.38 219.66 9.38 204.91 10.85 204.91 12.32 204.17 13.79 203.43 16 201.96 16.73 201.22 18.17 197.16"/>
            <path class="cls-10" d="m25.46,15.7l-.51-.11c.05-.28.11-.55.18-.81,1.06-4,4.68-6.85,8.88-6.85h.37l-5.88,50.9v4.43l.36.73.37.74-2.94,5.17-2.21,3.69-1.47,5.9-1.47,5.9-.73,5.9-.59,6.49-.15.89-1.47,11.81v2.21l-.73,7.38-.74,8.85v5.9h-1.47l.74-17.71v-8.85l.73-10.33.74-9.59,1.47-8.85,1.47-13.28.73-8.12,2.94-36.15,1.38-6.24Z"/>
            <polygon class="cls-10" points="30.7 143.67 30.7 151.79 29.97 151.79 29.23 159.9 28.5 165.07 28.5 168.02 18.17 197.16 17.47 188.68 16.73 180.56 16.73 168.02 16 154 16 148.84 16.73 140.72 16.73 134.82 30.7 129.66 30.7 132.61 30.7 143.67"/>
            <polygon class="cls-10" points="19.82 97.78 20.41 94.24 21.14 92.77 22.61 92.03 24.08 92.77 28.5 109.74 29.97 116.38 30.7 124.49 30.7 129.66 16.73 134.82 16.73 128.92 17.47 120.07 18.2 112.69 18.2 110.48 19.67 98.67 19.82 97.78"/>
            <path class="cls-10" d="m25.46,15.7l-1.38,6.24-2.94,36.15-.73,8.12-1.47,13.28-1.47,8.85-.74,9.59-.73,10.33v8.85l-.74,17.71-1.47-.74h-3.03l.09-.73v-39.84l.74-14.76,2.94-25.82L24.57,14.63l.56.15c-.07.26-.13.53-.18.81l.51.11Z"/>
            <polygon class="cls-10" points="17.47 188.68 18.17 197.16 16.73 201.22 16 201.96 13.79 203.43 13.79 195.32 15.26 196.06 16 196.06 16 193.84 15.26 188.68 15.26 185.73 13.79 185.64 13.79 176.14 14.53 164.33 14.53 152.53 14.53 148.84 15.26 140.72 15.26 134.82 16.73 134.82 16.73 140.72 16 148.84 16 154 16.73 168.02 16.73 180.56 17.47 188.68"/>
            <polygon class="cls-10" points="9.39 185.36 13.79 185.64 15.26 185.73 15.26 188.68 16 193.84 16 196.06 15.26 196.06 13.79 195.32 10.85 193.84 9.53 192.89 5.71 190.15 4.24 188.68 3.5 187.2 3.5 186.46 3.5 184.99 9.39 185.36"/>
            <polygon class="cls-10" points="15.26 134.82 15.26 140.72 14.53 148.84 14.53 152.53 14.53 164.33 13.79 176.14 13.79 185.64 9.39 185.36 10.12 151.05 10.12 150.31 10.12 139.25 10.76 134.08 11.59 134.08 12.32 134.08 13.79 134.08 15.26 134.82"/>
            <polygon class="cls-10" points="13.79 195.32 13.79 203.43 12.32 204.17 10.85 204.91 9.38 204.91 9.38 193.1 9.53 192.89 10.85 193.84 13.79 195.32"/>
          </g>
          <g>
            <polygon class="cls-10" points="36.58 289.75 25.55 266.88 26.29 289.75 27.02 289.75 27.76 290.49 28.5 290.49 29.23 290.49 29.97 290.49 30.7 290.49 32.17 290.49 32.91 290.49 33.64 290.49 34.38 290.49 35.11 290.49 35.85 289.75 36.58 289.75"/>
            <polygon class="cls-10" points="97.6 289.75 108.62 266.88 107.89 289.75 107.15 289.75 107.15 290.49 106.42 290.49 105.68 290.49 104.21 290.49 103.48 290.49 102.74 290.49 101.27 290.49 100.54 290.49 99.8 290.49 99.07 290.49 98.33 289.75 97.6 289.75"/>
          </g>
        </g>
        <g>
          <g>
            <polygon class="cls-9" points="121.79 182.38 127.68 181.99 127.68 183.46 127.68 184.2 126.94 185.68 125.47 187.15 121.65 189.89 120.33 190.84 117.39 192.32 115.91 193.06 115.18 193.06 115.18 190.84 115.91 185.68 116.65 182.73 117.39 182.68 121.79 182.38"/>
            <polygon class="cls-9" points="100.74 126.75 100.48 129.61 100.48 140.67 100.48 148.79 101.21 148.79 101.95 156.9 102.68 162.07 103.42 165.02 113.26 194.68 114.44 198.22 115.91 198.96 117.39 200.43 118.86 201.17 121.06 201.91 121.8 201.91 122.12 201.9 122.53 216.66 122.53 235.11 121.06 260.19 116.65 284.54 115.4 288.3 115.18 288.23 110.77 290.44 111.5 285.28 112.97 272.73 113.71 261.67 114.44 252.08 114.44 235.85 115.18 220.35 115.18 210.76 114.44 209.29 113.71 207.07 112.97 204.86 111.5 208.55 104.89 215.93 91.66 221.09 74.75 224.04 64.46 224.78 54.16 224.04 36.52 221.09 24.02 215.93 16.67 208.55 15.94 204.86 17.04 204.49 18.14 207.81 24.76 213.71 37.26 219.61 54.16 222.57 64.46 223.3 74.01 222.57 90.92 219.61 104.15 213.71 110.03 207.81 111.5 203.38 99.74 165.76 98.27 154.69 96.8 146.58 96.8 134.03 96.8 117.8 96.8 108.21 96.8 103.79 101.21 61.73 101.95 61.73 105.62 66.9 107.09 70.59 108.56 76.49 110.03 82.39 111.5 88.29 112.24 96.41 111.6 96.49 111.5 95.67 110.77 91.24 110.03 89.77 108.56 89.03 107.83 89.77 102.68 106.74 101.95 113.38 101.21 121.49 100.74 126.75"/>
            <polygon class="cls-9" points="121.8 190.1 122.12 201.9 121.8 201.91 121.06 201.91 118.86 201.17 117.39 200.43 117.39 192.32 120.33 190.84 121.65 189.89 121.8 190.1"/>
            <polygon class="cls-9" points="121.06 148.05 121.79 182.38 117.39 182.68 117.39 173.14 117.39 161.33 116.65 149.53 116.65 145.84 116.65 137.72 115.91 131.82 117.39 131.08 118.86 131.08 120.33 131.08 121.06 131.08 121.06 136.25 121.06 147.31 121.06 148.05"/>
            <polygon class="cls-9" points="121.06 130.35 121.06 131.08 120.33 131.08 118.86 131.08 117.39 131.08 115.91 131.82 115.18 114.11 115.18 105.26 114.44 94.93 113.71 85.34 112.97 76.49 111.5 63.21 110.03 55.09 107.09 18.94 106.38 12.49 106.36 12.3 107.38 12.05 116.65 49.93 119.59 75.75 120.33 90.51 120.33 100.1 121.06 130.35"/>
            <polygon class="cls-9" points="117.39 192.32 117.39 200.43 115.91 198.96 114.44 198.22 113.26 194.68 113.71 194.53 113.71 185.68 114.44 177.56 115.18 165.02 115.18 151 115.18 145.84 115.18 137.72 115.18 131.82 115.91 131.82 116.65 137.72 116.65 145.84 116.65 149.53 117.39 161.33 117.39 173.14 117.39 182.68 116.65 182.73 115.91 185.68 115.18 190.84 115.18 193.06 115.91 193.06 117.39 192.32"/>
            <path class="cls-9" d="m102.25,61.12l.43-.86.74-4.43-6.62-50.88c4.32.16,7.96,3.33,8.69,7.64l.89-.1.71,6.45,2.94,36.15,1.47,8.12,1.47,13.28.74,8.85.73,9.59.74,10.33v8.85l.73,17.71h-.73l-.74-5.9-.73-8.85v-7.38l-.74-2.21-1.37-10.99.64-.08-.74-8.12-1.47-5.9-1.47-5.9-1.47-5.9-1.47-3.69-3.67-5.17.3-.61Z"/>
            <polygon class="cls-9" points="115.4 288.3 114.44 291.18 112.24 294.87 109.3 297.08 98.27 300.77 92.39 302.98 79.89 305.95 79.89 305.93 81.36 298.55 90.92 297.08 94.6 296.34 99.01 294.87 102.68 294.13 107.83 291.91 110.77 290.44 115.18 288.23 115.4 288.3"/>
            <path class="cls-9" d="m115.18,210.76v9.59l-.74,15.5v16.23l-.73,9.59-.74,11.06-1.47,12.55-.73,5.16-2.94,1.47-5.15,2.22-3.67.74-4.41,1.47-3.68.74-9.56,1.47-2.2,1.48h-3.68l-2.2.74h-3.68l-3.67.74-1.47-.74-2.21.74-3.67-.74h-2.94l-2.95-.74h-2.94l-2.2-1.48-9.56-1.47-3.67-.74-4.41-1.47-4.41-.74-4.42-2.22-3.67-1.47-.74-5.16-.73-12.55-1.47-11.06v-9.59l-.74-16.23-.73-15.5.73-9.59v-1.47l.74-2.22,1.47-2.21.73,3.69,7.35,7.38,12.5,5.16,17.64,2.95,10.3.74,10.29-.74,16.91-2.95,13.23-5.16,6.61-7.38,1.47-3.69.74,2.21.73,2.22.74,1.47Zm-10.29,75.99l.73-22.87-11.02,22.87h.73l.74.74h8.08v-.74h.74Zm-71.31,0l-11.03-22.87.74,22.87h.73l.74.74h7.35l.74-.74h.73Z"/>
            <path class="cls-2" d="m115.18,210.76v9.59l-.74,15.5v16.23l-.73,9.59-.74,11.06-1.47,12.55-.73,5.16-2.94,1.47-5.15,2.22-3.67.74-4.41,1.47-3.68.74-9.56,1.47-2.2,1.48h-3.68l-2.2.74h-3.68l-3.67.74-1.47-.74-2.21.74-3.67-.74h-2.94l-2.95-.74h-2.94l-2.2-1.48-9.56-1.47-3.67-.74-4.41-1.47-4.41-.74-4.42-2.22-3.67-1.47-.74-5.16-.73-12.55-1.47-11.06v-9.59l-.74-16.23-.73-15.5.73-9.59v-1.47l.74-2.22,1.47-2.21.73,3.69,7.35,7.38,12.5,5.16,17.64,2.95,10.3.74,10.29-.74,16.91-2.95,13.23-5.16,6.61-7.38,1.47-3.69.74,2.21.73,2.22.74,1.47Zm-10.29,75.99l.73-22.87-11.02,22.87h.73l.74.74h8.08v-.74h.74Zm-71.31,0l-11.03-22.87.74,22.87h.73l.74.74h7.35l.74-.74h.73Z"/>
            <polygon class="cls-9" points="115.18 151 115.18 165.02 114.44 177.56 113.71 185.68 113.71 194.53 113.26 194.68 103.42 165.02 102.68 162.07 101.95 156.9 101.21 148.79 100.48 148.79 100.48 140.67 100.48 129.61 100.74 126.75 115.18 131.82 115.18 137.72 115.18 145.84 115.18 151"/>
            <polygon class="cls-9" points="114.44 125.92 115.18 131.82 100.74 126.75 101.21 121.49 101.95 113.38 102.68 106.74 107.83 89.77 108.56 89.03 110.03 89.77 110.77 91.24 111.5 95.67 111.6 96.49 112.97 107.48 113.71 109.69 113.71 117.07 114.44 125.92"/>
            <polygon class="cls-9" points="99.74 165.76 111.5 203.38 110.03 207.81 104.15 213.71 90.92 219.61 74.01 222.57 64.46 223.3 54.16 222.57 37.26 219.61 24.76 213.71 18.14 207.81 17.04 204.49 16.67 203.38 28.44 165.76 46.08 169.45 64.46 170.92 82.1 169.45 99.74 165.76"/>
            <path class="cls-9" d="m105.32,8.09l1.04-.21,1.02,4.17-1.02.25.02.19-.89.1c-.73-4.31-4.37-7.48-8.69-7.64v-.02H31.01c-4.2,0-7.82,2.85-8.88,6.85l-.56-.15.69-2.64-.31-.08c.76-4.43,4.58-7.67,9.06-7.67l.37-.74h65.05v.74c4.2,0,7.83,2.85,8.89,6.85Z"/>
            <polygon class="cls-9" points="105.62 263.88 104.89 286.75 104.15 286.75 104.15 287.49 103.42 287.49 102.68 287.49 101.21 287.49 100.48 287.49 99.74 287.49 98.27 287.49 97.54 287.49 96.8 287.49 96.07 287.49 95.33 286.75 94.6 286.75 105.62 263.88"/>
            <path class="cls-9" d="m96.8,4.95l6.62,50.88-.74,4.43-.43.86c-12.7-2.79-25.58-4.72-38.54-5.78h-.01c-12.72,1.05-25.36,2.93-37.84,5.65l-.36-.73v-4.43L31.38,4.93h65.05c.12,0,.25,0,.37.02Z"/>
            <path class="cls-7" d="m96.8,4.95l6.62,50.88-.74,4.43-.43.86c-12.7-2.79-25.58-4.72-38.54-5.78h-.01c-12.72,1.05-25.36,2.93-37.84,5.65l-.36-.73v-4.43L31.38,4.93h65.05c.12,0,.25,0,.37.02Z"/>
            <path class="cls-9" d="m102.25,61.12l-.3.61h-.74l-4.41,42.06-16.17-3.69-16.17-1.48-16.91,1.48-16.17,3.69-4.41-42.06h-.74l-.37-.74c12.48-2.72,25.12-4.6,37.84-5.65h.01c12.96,1.06,25.84,2.99,38.54,5.78Z"/>
            <path class="cls-1" d="m102.25,61.12l-.3.61h-.74l-4.41,42.06-16.17-3.69-16.17-1.48-16.91,1.48-16.17,3.69-4.41-42.06h-.74l-.37-.74c12.48-2.72,25.12-4.6,37.84-5.65h.01c12.96,1.06,25.84,2.99,38.54,5.78Z"/>
            <polygon class="cls-9" points="98.27 154.69 99.74 165.76 82.1 169.45 64.46 170.92 46.08 169.45 28.44 165.76 29.91 154.69 31.38 146.58 32.11 134.03 32.11 117.8 32.11 108.21 31.38 103.79 47.55 100.1 64.46 98.62 80.63 100.1 96.8 103.79 96.8 108.21 96.8 117.8 96.8 134.03 96.8 146.58 98.27 154.69"/>
            <polygon class="cls-3" points="98.27 154.69 99.74 165.76 82.1 169.45 64.46 170.92 46.08 169.45 28.44 165.76 29.91 154.69 31.38 146.58 32.11 134.03 32.11 117.8 32.11 108.21 31.38 103.79 47.55 100.1 64.46 98.62 80.63 100.1 96.8 103.79 96.8 108.21 96.8 117.8 96.8 134.03 96.8 146.58 98.27 154.69"/>
            <polygon class="cls-9" points="78.6 304.48 78.78 303.03 78.97 301.54 79.16 300.03 81.36 298.55 79.89 305.93 79.89 305.95 64.46 309.62 49.71 306.11 49.75 305.93 49.75 304.46 64.46 308.15 78.42 304.46 78.6 304.48"/>
            <polygon class="cls-9" points="79.16 300.03 78.97 301.54 64.46 303.72 49.75 301.51 49.75 300.03 52.69 300.03 55.64 300.77 58.58 300.77 62.25 301.51 64.46 300.77 65.93 301.51 69.6 300.77 73.28 300.77 75.48 300.03 79.16 300.03"/>
            <polygon class="cls-9" points="78.97 301.54 78.78 303.03 78.42 302.98 64.46 305.93 49.75 302.98 49.75 301.51 64.46 303.72 78.97 301.54"/>
            <polygon class="cls-9" points="78.78 303.03 78.6 304.48 78.42 304.46 64.46 308.15 49.75 304.46 49.75 302.98 64.46 305.93 78.42 302.98 78.78 303.03"/>
            <polygon class="cls-9" points="49.75 304.46 49.75 305.93 49.71 306.11 48.26 305.77 47.55 298.55 49.75 300.03 49.75 301.51 49.75 302.98 49.75 304.46"/>
            <polygon class="cls-9" points="47.55 298.55 48.26 305.77 36.52 302.98 30.64 300.77 19.61 297.08 15.94 294.87 13.73 291.18 13.09 288.27 17.41 290.44 21.08 291.91 25.5 294.13 29.91 294.87 34.32 296.34 37.99 297.08 47.55 298.55"/>
            <polygon class="cls-9" points="22.55 263.88 33.58 286.75 32.85 286.75 32.11 287.49 31.38 287.49 30.64 287.49 29.91 287.49 29.17 287.49 27.7 287.49 26.97 287.49 26.23 287.49 25.5 287.49 24.76 287.49 24.02 286.75 23.29 286.75 22.55 263.88"/>
            <polygon class="cls-9" points="15.17 194.16 25.5 165.02 25.5 162.07 26.23 156.9 26.97 148.79 27.7 148.79 27.7 140.67 27.7 129.61 27.7 126.66 27.7 121.49 26.97 113.38 25.5 106.74 21.08 89.77 19.61 89.03 18.14 89.77 17.41 91.24 16.82 94.78 17.41 88.29 18.14 82.39 19.61 76.49 21.08 70.59 23.29 66.9 26.23 61.73 26.97 61.73 31.38 103.79 32.11 108.21 32.11 117.8 32.11 134.03 31.38 146.58 29.91 154.69 28.44 165.76 16.67 203.38 17.04 204.49 15.94 204.86 14.47 207.07 13.73 209.29 13.73 210.76 13 220.35 13.73 235.85 14.47 252.08 14.47 261.67 15.94 272.73 16.67 285.28 17.41 290.44 13.09 288.27 12.26 284.54 7.85 260.19 6.38 235.11 6.38 216.66 6.38 201.91 7.85 201.91 9.32 201.17 10.79 200.43 13 198.96 13.73 198.22 15.17 194.16"/>
            <polygon class="cls-5" points="100.74 126.75 100.48 129.61 100.48 140.67 100.48 148.79 101.21 148.79 101.95 156.9 102.68 162.07 103.42 165.02 113.26 194.68 114.44 198.22 115.91 198.96 117.39 200.43 118.86 201.17 121.06 201.91 121.8 201.91 122.12 201.9 122.53 216.66 122.53 235.11 121.06 260.19 116.65 284.54 115.4 288.3 115.18 288.23 110.77 290.44 111.5 285.28 112.97 272.73 113.71 261.67 114.44 252.08 114.44 235.85 115.18 220.35 115.18 210.76 114.44 209.29 113.71 207.07 112.97 204.86 111.5 208.55 104.89 215.93 91.66 221.09 74.75 224.04 64.46 224.78 54.16 224.04 36.52 221.09 24.02 215.93 16.67 208.55 15.94 204.86 17.04 204.49 18.14 207.81 24.76 213.71 37.26 219.61 54.16 222.57 64.46 223.3 74.01 222.57 90.92 219.61 104.15 213.71 110.03 207.81 111.5 203.38 99.74 165.76 98.27 154.69 96.8 146.58 96.8 134.03 96.8 117.8 96.8 108.21 96.8 103.79 101.21 61.73 101.95 61.73 105.62 66.9 107.09 70.59 108.56 76.49 110.03 82.39 111.5 88.29 112.24 96.41 111.6 96.49 111.5 95.67 110.77 91.24 110.03 89.77 108.56 89.03 107.83 89.77 102.68 106.74 101.95 113.38 101.21 121.49 100.74 126.75"/>
            <polygon class="cls-4" points="15.17 194.16 25.5 165.02 25.5 162.07 26.23 156.9 26.97 148.79 27.7 148.79 27.7 140.67 27.7 129.61 27.7 126.66 27.7 121.49 26.97 113.38 25.5 106.74 21.08 89.77 19.61 89.03 18.14 89.77 17.41 91.24 16.82 94.78 17.41 88.29 18.14 82.39 19.61 76.49 21.08 70.59 23.29 66.9 26.23 61.73 26.97 61.73 31.38 103.79 32.11 108.21 32.11 117.8 32.11 134.03 31.38 146.58 29.91 154.69 28.44 165.76 16.67 203.38 17.04 204.49 15.94 204.86 14.47 207.07 13.73 209.29 13.73 210.76 13 220.35 13.73 235.85 14.47 252.08 14.47 261.67 15.94 272.73 16.67 285.28 17.41 290.44 13.09 288.27 12.26 284.54 7.85 260.19 6.38 235.11 6.38 216.66 6.38 201.91 7.85 201.91 9.32 201.17 10.79 200.43 13 198.96 13.73 198.22 15.17 194.16"/>
            <path class="cls-9" d="m22.46,12.7l-.51-.11c.05-.28.11-.55.18-.81,1.06-4,4.68-6.85,8.88-6.85h.37l-5.88,50.9v4.43l.36.73.37.74-2.94,5.17-2.21,3.69-1.47,5.9-1.47,5.9-.73,5.9-.59,6.49-.15.89-1.47,11.81v2.21l-.73,7.38-.74,8.85v5.9h-1.47l.74-17.71v-8.85l.73-10.33.74-9.59,1.47-8.85,1.47-13.28.73-8.12,2.94-36.15,1.38-6.24Z"/>
            <path class="cls-8" d="m102.25,61.12l.43-.86.74-4.43-6.62-50.88c4.32.16,7.96,3.33,8.69,7.64l.89-.1.71,6.45,2.94,36.15,1.47,8.12,1.47,13.28.74,8.85.73,9.59.74,10.33v8.85l.73,17.71h-.73l-.74-5.9-.73-8.85v-7.38l-.74-2.21-1.37-10.99.64-.08-.74-8.12-1.47-5.9-1.47-5.9-1.47-5.9-1.47-3.69-3.67-5.17.3-.61Z"/>
            <path class="cls-6" d="m22.46,12.7l-.51-.11c.05-.28.11-.55.18-.81,1.06-4,4.68-6.85,8.88-6.85h.37l-5.88,50.9v4.43l.36.73.37.74-2.94,5.17-2.21,3.69-1.47,5.9-1.47,5.9-.73,5.9-.59,6.49-.15.89-1.47,11.81v2.21l-.73,7.38-.74,8.85v5.9h-1.47l.74-17.71v-8.85l.73-10.33.74-9.59,1.47-8.85,1.47-13.28.73-8.12,2.94-36.15,1.38-6.24Z"/>
            <polygon class="cls-9" points="27.7 140.67 27.7 148.79 26.97 148.79 26.23 156.9 25.5 162.07 25.5 165.02 15.17 194.16 14.47 185.68 13.73 177.56 13.73 165.02 13 151 13 145.84 13.73 137.72 13.73 131.82 27.7 126.66 27.7 129.61 27.7 140.67"/>
            <polygon class="cls-9" points="16.82 94.78 17.41 91.24 18.14 89.77 19.61 89.03 21.08 89.77 25.5 106.74 26.97 113.38 27.7 121.49 27.7 126.66 13.73 131.82 13.73 125.92 14.47 117.07 15.2 109.69 15.2 107.48 16.67 95.67 16.82 94.78"/>
            <path class="cls-9" d="m22.46,12.7l-1.38,6.24-2.94,36.15-.73,8.12-1.47,13.28-1.47,8.85-.74,9.59-.73,10.33v8.85l-.74,17.71-1.47-.74h-3.03l.09-.73v-39.84l.74-14.76,2.94-25.82L21.57,11.63l.56.15c-.07.26-.13.53-.18.81l.51.11Z"/>
            <polygon class="cls-9" points="14.47 185.68 15.17 194.16 13.73 198.22 13 198.96 10.79 200.43 10.79 192.32 12.26 193.06 13 193.06 13 190.84 12.26 185.68 12.26 182.73 10.79 182.64 10.79 173.14 11.53 161.33 11.53 149.53 11.53 145.84 12.26 137.72 12.26 131.82 13.73 131.82 13.73 137.72 13 145.84 13 151 13.73 165.02 13.73 177.56 14.47 185.68"/>
            <polygon class="cls-9" points="6.39 182.36 10.79 182.64 12.26 182.73 12.26 185.68 13 190.84 13 193.06 12.26 193.06 10.79 192.32 7.85 190.84 6.53 189.89 2.71 187.15 1.24 185.68 .5 184.2 .5 183.46 .5 181.99 6.39 182.36"/>
            <polygon class="cls-9" points="12.26 131.82 12.26 137.72 11.53 145.84 11.53 149.53 11.53 161.33 10.79 173.14 10.79 182.64 6.39 182.36 7.12 148.05 7.12 147.31 7.12 136.25 7.76 131.08 8.59 131.08 9.32 131.08 10.79 131.08 12.26 131.82"/>
            <polygon class="cls-9" points="10.79 192.32 10.79 200.43 9.32 201.17 7.85 201.91 6.38 201.91 6.38 190.1 6.53 189.89 7.85 190.84 10.79 192.32"/>
          </g>
          <g>
            <path class="cls-13" d="m64.46,171.42s-.03,0-.04,0l-18.38-1.47-17.7-3.7c-.27-.06-.44-.32-.39-.59.06-.27.31-.45.59-.39l17.64,3.69,18.32,1.46c.28.02.48.26.46.54-.02.26-.24.46-.5.46Z"/>
            <path class="cls-13" d="m36.52,221.59c-.06,0-.13-.01-.19-.04l-12.5-5.16c-.26-.11-.38-.4-.27-.65.11-.26.4-.38.65-.27l12.5,5.16c.26.11.38.4.27.65-.08.19-.27.31-.46.31Z"/>
            <path class="cls-13" d="m37.26,220.11c-.07,0-.14-.02-.21-.05l-12.5-5.9c-.25-.12-.36-.42-.24-.67.12-.25.42-.35.67-.24l12.5,5.9c.25.12.36.42.24.67-.08.18-.26.29-.45.29Z"/>
            <path class="cls-13" d="m16.67,209.05c-.23,0-.44-.17-.49-.4l-.73-3.69c-.05-.27.12-.53.39-.59.27-.05.53.12.59.39l.73,3.69c.05.27-.12.53-.39.59-.03,0-.07,0-.1,0Z"/>
            <path class="cls-13" d="m18.14,208.31c-.21,0-.41-.13-.47-.34l-1.47-4.43c-.09-.26.05-.54.32-.63.26-.09.54.06.63.32l1.47,4.43c.09.26-.06.54-.32.63-.05.02-.11.03-.16.03Z"/>
            <path class="cls-13" d="m24.02,216.43c-.13,0-.26-.05-.35-.15l-7.35-7.38c-.19-.2-.19-.51,0-.71.2-.19.51-.2.71,0l7.35,7.38c.19.2.19.51,0,.71-.1.1-.22.15-.35.15Z"/>
            <path class="cls-13" d="m24.76,214.21c-.12,0-.24-.04-.33-.13l-6.62-5.9c-.21-.18-.22-.5-.04-.71s.5-.23.71-.04l6.62,5.9c.21.18.22.5.04.71-.1.11-.24.17-.37.17Z"/>
            <path class="cls-13" d="m54.16,224.54s-.06,0-.08,0l-17.64-2.95c-.27-.05-.46-.3-.41-.58.05-.27.31-.46.58-.41l17.64,2.95c.27.05.46.3.41.58-.04.25-.25.42-.49.42Z"/>
            <path class="cls-13" d="m54.16,223.07s-.06,0-.09,0l-16.9-2.96c-.27-.05-.45-.31-.41-.58.05-.27.31-.46.58-.41l16.9,2.96c.27.05.45.31.41.58-.04.24-.25.41-.49.41Z"/>
            <path class="cls-13" d="m64.46,225.28s-.02,0-.04,0l-10.3-.74c-.28-.02-.48-.26-.46-.54.02-.28.27-.48.54-.46l10.3.74c.28.02.48.26.46.54-.02.26-.24.46-.5.46Z"/>
            <path class="cls-13" d="m64.46,223.8s-.02,0-.04,0l-10.3-.73c-.28-.02-.48-.26-.46-.53.02-.28.29-.48.53-.46l10.3.73c.28.02.48.26.46.53-.02.26-.24.46-.5.46Z"/>
            <path class="cls-13" d="m12.26,285.04c-.24,0-.45-.17-.49-.41l-4.41-24.35-1.48-25.14c-.02-.28.19-.51.47-.53.26-.04.51.19.53.47l1.47,25.08,4.4,24.29c.05.27-.13.53-.4.58-.03,0-.06,0-.09,0Z"/>
            <path class="cls-13" d="m6.38,235.61c-.28,0-.5-.22-.5-.5v-18.45c0-.28.22-.5.5-.5s.5.22.5.5v18.45c0,.28-.22.5-.5.5Z"/>
            <path class="cls-13" d="m13.73,236.35c-.27,0-.49-.21-.5-.48l-.73-15.5c-.01-.28.2-.51.48-.52.27-.04.51.2.52.48l.73,15.5c.01.28-.2.51-.48.52,0,0-.02,0-.02,0Z"/>
            <path class="cls-13" d="m29.91,155.19s-.06,0-.09,0c-.27-.05-.45-.31-.4-.58l1.47-8.11c.05-.27.32-.45.58-.4.27.05.45.31.4.58l-1.47,8.11c-.04.24-.25.41-.49.41Z"/>
            <path class="cls-13" d="m26.23,157.4s-.03,0-.05,0c-.27-.03-.48-.27-.45-.54l.74-8.11c.03-.27.28-.47.54-.45.27.03.48.27.45.54l-.74,8.11c-.02.26-.24.45-.5.45Z"/>
            <path class="cls-13" d="m6.38,183.23h-.01c-.28,0-.49-.24-.49-.51v-.37s.74-34.31.74-34.31c0-.27.23-.49.5-.49h.01c.28,0,.5.23.49.51l-.74,34.68c0,.27-.23.49-.5.49Z"/>
            <path class="cls-13" d="m13.73,165.52c-.26,0-.49-.21-.5-.47l-.73-14.02c-.01-.28.2-.51.47-.53.29-.01.51.2.53.47l.73,14.02c.01.28-.2.51-.47.53,0,0-.02,0-.03,0Z"/>
            <path class="cls-13" d="m11.53,161.83c-.28,0-.5-.22-.5-.5v-11.8c0-.28.22-.5.5-.5s.5.22.5.5v11.8c0,.28-.22.5-.5.5Z"/>
            <path class="cls-13" d="m28.44,166.26s-.04,0-.07,0c-.27-.04-.47-.29-.43-.56l1.47-11.07c.04-.28.3-.46.56-.43.27.04.47.29.43.56l-1.47,11.07c-.03.25-.25.43-.5.43Z"/>
            <path class="cls-13" d="m25.5,162.57s-.05,0-.07,0c-.27-.04-.46-.29-.42-.57l.73-5.17c.04-.27.29-.45.57-.42.27.04.46.29.42.57l-.73,5.17c-.04.25-.25.43-.49.43Z"/>
            <path class="cls-13" d="m25.5,165.52c-.28,0-.5-.22-.5-.5v-2.95c0-.28.22-.5.5-.5s.5.22.5.5v2.95c0,.28-.22.5-.5.5Z"/>
            <path class="cls-13" d="m14.47,186.18c-.25,0-.47-.2-.5-.46l-.74-8.12c-.03-.27.18-.52.45-.54.25-.02.52.18.54.45l.74,8.12c.03.27-.18.52-.45.54-.01,0-.03,0-.05,0Z"/>
            <path class="cls-13" d="m10.79,183.18c-.28,0-.5-.18-.5-.46v-9.59c0-.28.22-.5.5-.5s.5.22.5.5v9.5c0,.28-.22.54-.5.54Z"/>
            <path class="cls-13" d="m12.26,186.18c-.28,0-.5-.22-.5-.5v-2.95c0-.28.22-.5.5-.5s.5.22.5.5v2.95c0,.28-.22.5-.5.5Z"/>
            <path class="cls-13" d="m.5,184.7C.22,184.7,0,184.48,0,184.2v-.74c0-.28.22-.5.5-.5s.5.22.5.5v.74c0,.28-.22.5-.5.5Z"/>
            <path class="cls-13" d="m12.26,183.23s-.02,0-.03,0l-11.76-.74c-.28-.02-.49-.25-.47-.53.02-.27.24-.49.53-.47l11.76.74c.28.02.49.25.47.53-.02.27-.24.47-.5.47Z"/>
            <path class="cls-13" d="m.5,183.96C.22,183.96,0,183.74,0,183.46v-1.47c0-.28.22-.5.5-.5s.5.22.5.5v1.47c0,.28-.22.5-.5.5Z"/>
            <path class="cls-13" d="m10.79,192.82c-.08,0-.15-.02-.22-.05l-2.94-1.48c-.25-.12-.35-.42-.22-.67.12-.25.42-.34.67-.22l2.94,1.48c.25.12.35.42.22.67-.09.17-.26.28-.45.28Z"/>
            <path class="cls-13" d="m7.85,191.34c-.1,0-.2-.03-.29-.09l-5.14-3.69c-.22-.16-.28-.47-.12-.7.16-.23.47-.28.7-.12l5.14,3.69c.22.16.28.47.11.7-.1.14-.25.21-.41.21Z"/>
            <path class="cls-13" d="m1.24,186.18c-.18,0-.36-.1-.45-.28l-.74-1.48c-.12-.25-.02-.55.22-.67.25-.12.55-.02.67.22l.74,1.48c.12.25.02.55-.22.67-.07.04-.15.05-.22.05Z"/>
            <path class="cls-13" d="m2.71,187.65c-.13,0-.26-.05-.35-.15l-1.47-1.47c-.2-.2-.2-.51,0-.71s.51-.2.71,0l1.47,1.47c.2.2.2.51,0,.71-.1.1-.23.15-.35.15Z"/>
            <path class="cls-13" d="m15.2,195.03c-.26,0-.48-.2-.5-.46l-.73-8.85c-.02-.28.18-.52.46-.54.25-.02.52.18.54.46l.73,8.85c.02.28-.18.52-.46.54-.01,0-.03,0-.04,0Z"/>
            <path class="cls-13" d="m13,193.56h-.74c-.28,0-.5-.22-.5-.5s.22-.5.5-.5h.74c.28,0,.5.22.5.5s-.22.5-.5.5Z"/>
            <path class="cls-13" d="m13,193.56c-.28,0-.5-.22-.5-.5v-2.22c0-.28.22-.5.5-.5s.5.22.5.5v2.22c0,.28-.22.5-.5.5Z"/>
            <path class="cls-13" d="m13,191.34c-.24,0-.46-.18-.49-.43l-.74-5.16c-.04-.27.15-.53.42-.57.26-.04.53.15.57.42l.74,5.16c.04.27-.15.53-.42.57-.02,0-.05,0-.07,0Z"/>
            <path class="cls-13" d="m12.26,193.56c-.08,0-.15-.02-.22-.05l-1.47-.74c-.25-.12-.35-.42-.22-.67.12-.25.42-.35.67-.22l1.47.74c.25.12.35.42.22.67-.09.17-.26.28-.45.28Z"/>
            <path class="cls-13" d="m14.47,207.57c-.1,0-.19-.03-.28-.08-.23-.15-.29-.46-.14-.69l1.47-2.21c.15-.23.46-.29.69-.14.23.15.29.46.14.69l-1.47,2.21c-.1.14-.25.22-.42.22Z"/>
            <path class="cls-13" d="m7.85,202.41c-.18,0-.36-.1-.45-.28-.12-.25-.03-.55.22-.67l1.47-.74c.24-.13.55-.03.67.22.12.25.03.55-.22.67l-1.47.74c-.07.04-.15.05-.22.05Z"/>
            <path class="cls-13" d="m7.85,202.41h-1.47c-.28,0-.5-.22-.5-.5s.22-.5.5-.5h1.47c.28,0,.5.22.5.5s-.22.5-.5.5Z"/>
            <path class="cls-13" d="m10.79,200.93c-.16,0-.32-.08-.42-.22-.15-.23-.09-.54.14-.69l2.21-1.47c.23-.15.54-.09.69.14.15.23.09.54-.14.69l-2.21,1.47c-.09.06-.18.08-.28.08Z"/>
            <path class="cls-13" d="m9.32,201.67c-.18,0-.36-.1-.45-.28-.12-.25-.03-.55.22-.67l1.47-.74c.24-.12.55-.03.67.22.12.25.03.55-.22.67l-1.47.74c-.07.04-.15.05-.22.05Z"/>
            <path class="cls-13" d="m13,199.46c-.13,0-.25-.05-.35-.14-.2-.19-.2-.51,0-.71l.73-.74c.2-.2.51-.2.71,0,.2.19.2.51,0,.71l-.73.74c-.1.1-.23.15-.36.15Z"/>
            <path class="cls-13" d="m13,220.85s-.03,0-.04,0c-.28-.02-.48-.26-.46-.54l.73-9.59c.02-.28.26-.49.54-.46.28.02.48.26.46.54l-.73,9.59c-.02.26-.24.46-.5.46Z"/>
            <path class="cls-13" d="m13.73,209.79c-.05,0-.11,0-.16-.03-.26-.09-.4-.37-.32-.63l.74-2.22c.09-.26.37-.4.63-.32.26.09.4.37.32.63l-.74,2.22c-.07.21-.27.34-.47.34Z"/>
            <path class="cls-13" d="m13.73,211.26c-.28,0-.5-.22-.5-.5v-1.47c0-.28.22-.5.5-.5s.5.22.5.5v1.47c0,.28-.22.5-.5.5Z"/>
            <path class="cls-13" d="m6.38,217.16c-.28,0-.5-.22-.5-.5v-26.56c0-.28.22-.5.5-.5s.5.22.5.5v26.56c0,.28-.22.5-.5.5Z"/>
            <path class="cls-13" d="m10.79,200.93c-.28,0-.5-.22-.5-.5v-8.11c0-.28.22-.5.5-.5s.5.22.5.5v8.11c0,.28-.22.5-.5.5Z"/>
            <path class="cls-13" d="m10.79,173.64s-.02,0-.03,0c-.28-.02-.49-.25-.47-.53l.74-11.81c.02-.28.24-.51.53-.47.28.02.49.25.47.53l-.74,11.81c-.02.26-.24.47-.5.47Z"/>
            <path class="cls-13" d="m13.73,178.06c-.28,0-.5-.22-.5-.5v-12.54c0-.28.22-.5.5-.5s.5.22.5.5v12.54c0,.28-.22.5-.5.5Z"/>
            <path class="cls-13" d="m13.73,198.72c-.06,0-.11,0-.17-.03-.26-.09-.4-.38-.3-.64l11.77-33.2c.09-.26.38-.39.64-.3.26.09.4.38.3.64l-11.77,33.2c-.07.2-.27.33-.47.33Z"/>
            <path class="cls-13" d="m16.67,203.88s-.1,0-.15-.02c-.26-.08-.41-.36-.33-.63l11.77-37.62c.08-.26.37-.41.63-.33.26.08.41.36.33.63l-11.77,37.62c-.07.21-.26.35-.48.35Z"/>
            <path class="cls-13" d="m16.67,285.78c-.26,0-.48-.21-.5-.47l-.73-12.55c-.02-.28.19-.51.47-.53.27-.04.51.19.53.47l.73,12.55c.02.28-.19.51-.47.53,0,0-.02,0-.03,0Z"/>
            <path class="cls-13" d="m15.94,273.23c-.25,0-.46-.18-.5-.43l-1.47-11.06c-.04-.27.16-.52.43-.56.26-.04.52.16.56.43l1.47,11.06c.04.27-.16.52-.43.56-.02,0-.04,0-.07,0Z"/>
            <path class="cls-13" d="m14.47,252.58c-.27,0-.49-.21-.5-.48l-.74-16.23c-.01-.28.2-.51.48-.52,0,0,.02,0,.02,0,.27,0,.49.21.5.48l.74,16.23c.01.28-.2.51-.48.52,0,0-.02,0-.02,0Z"/>
            <path class="cls-13" d="m14.47,262.17c-.28,0-.5-.22-.5-.5v-9.59c0-.28.22-.5.5-.5s.5.22.5.5v9.59c0,.28-.22.5-.5.5Z"/>
            <path class="cls-13" d="m27.7,149.29c-.28,0-.5-.22-.5-.5v-8.12c0-.28.22-.5.5-.5s.5.22.5.5v8.12c0,.28-.22.5-.5.5Z"/>
            <path class="cls-13" d="m31.38,147.08s-.02,0-.03,0c-.28-.02-.49-.25-.47-.53l.73-12.55c.02-.28.24-.49.53-.47.28.02.49.25.47.53l-.73,12.55c-.02.27-.24.47-.5.47Z"/>
            <path class="cls-13" d="m13,151.5c-.28,0-.5-.22-.5-.5v-5.16c0-.28.22-.5.5-.5s.5.22.5.5v5.16c0,.28-.22.5-.5.5Z"/>
            <path class="cls-13" d="m11.53,150.03c-.28,0-.5-.22-.5-.5v-3.69c0-.28.22-.5.5-.5s.5.22.5.5v3.69c0,.28-.22.5-.5.5Z"/>
            <path class="cls-13" d="m7.12,148.55c-.28,0-.5-.22-.5-.5v-.74c0-.28.22-.5.5-.5s.5.22.5.5v.74c0,.28-.22.5-.5.5Z"/>
            <path class="cls-13" d="m13,146.34s-.03,0-.05,0c-.27-.02-.48-.27-.45-.54l.73-8.12c.02-.28.26-.47.54-.45.27.02.48.27.45.54l-.73,8.12c-.02.26-.24.46-.5.46Z"/>
            <path class="cls-13" d="m11.53,146.34s-.03,0-.05,0c-.27-.02-.48-.27-.45-.54l.73-8.12c.02-.28.27-.47.54-.45.27.02.48.27.45.54l-.73,8.12c-.02.26-.24.46-.5.46Z"/>
            <path class="cls-13" d="m7.12,147.81c-.28,0-.5-.22-.5-.5v-11.06c0-.28.22-.5.5-.5s.5.22.5.5v11.06c0,.28-.22.5-.5.5Z"/>
            <path class="cls-13" d="m27.7,149.29h-.73c-.28,0-.5-.22-.5-.5s.22-.5.5-.5h.73c.28,0,.5.22.5.5s-.22.5-.5.5Z"/>
            <path class="cls-13" d="m64.46,310.12s-.08,0-.12-.01l-27.94-6.64c-.27-.06-.44-.33-.37-.6.06-.27.34-.44.6-.37l27.94,6.64c.27.06.43.33.37.6-.05.23-.26.38-.49.38Z"/>
            <path class="cls-13" d="m64.46,308.65s-.08,0-.12-.01l-14.71-3.69c-.27-.07-.43-.34-.36-.61.07-.27.33-.43.61-.36l14.71,3.69c.27.07.43.34.36.61-.06.23-.26.38-.49.38Z"/>
            <path class="cls-13" d="m64.46,306.43s-.07,0-.1,0l-14.71-2.95c-.27-.05-.45-.32-.39-.59s.32-.44.59-.39l14.71,2.95c.27.05.45.32.39.59-.05.24-.26.4-.49.4Z"/>
            <path class="cls-13" d="m31.38,104.29c-.23,0-.43-.16-.49-.39-.06-.27.11-.54.38-.6l16.17-3.69,16.98-1.49c.28-.03.52.18.54.45s-.18.52-.45.54l-16.91,1.48-16.1,3.68s-.08.01-.11.01Z"/>
            <path class="cls-13" d="m19.61,297.58c-.09,0-.18-.02-.26-.07l-3.67-2.21c-.07-.04-.13-.1-.17-.17l-2.21-3.69c-.14-.24-.07-.54.17-.69.23-.14.54-.07.69.17l2.15,3.58,3.56,2.15c.24.14.31.45.17.69-.09.16-.26.24-.43.24Z"/>
            <path class="cls-13" d="m21.08,19.44s-.07,0-.11-.01c-.27-.06-.44-.33-.38-.6l1.47-6.64c.06-.27.32-.44.6-.38.27.06.44.33.38.6l-1.47,6.64c-.05.23-.26.39-.49.39Z"/>
            <path class="cls-13" d="m25.5,107.24c-.22,0-.42-.15-.48-.37l-4.42-16.97c-.07-.27.09-.54.36-.61.27-.08.54.09.61.36l4.42,16.97c.07.27-.09.54-.36.61-.04.01-.08.02-.13.02Z"/>
            <path class="cls-13" d="m31.38,104.29c-.25,0-.47-.19-.5-.45l-4.41-42.06c-.03-.27.17-.52.45-.55.27-.04.52.17.55.45l4.41,42.06c.03.27-.17.52-.45.55-.02,0-.04,0-.05,0Z"/>
            <path class="cls-13" d="m32.11,108.71c-.24,0-.45-.17-.49-.42l-.73-4.42c-.04-.27.14-.53.41-.57.27-.05.53.14.57.41l.73,4.42c.04.27-.14.53-.41.57-.03,0-.05,0-.08,0Z"/>
            <path class="cls-13" d="m32.11,118.3c-.28,0-.5-.22-.5-.5v-9.59c0-.28.22-.5.5-.5s.5.22.5.5v9.59c0,.28-.22.5-.5.5Z"/>
            <path class="cls-13" d="m26.97,113.88c-.23,0-.44-.16-.49-.39l-1.47-6.64c-.06-.27.11-.54.38-.6.28-.06.54.11.6.38l1.47,6.64c.06.27-.11.54-.38.6-.04,0-.07.01-.11.01Z"/>
            <path class="cls-13" d="m23.29,67.4c-.08,0-.17-.02-.25-.07-.24-.14-.32-.44-.19-.68l2.94-5.17c.14-.24.44-.33.68-.19.24.14.32.44.19.68l-2.94,5.17c-.09.16-.26.25-.43.25Z"/>
            <path class="cls-13" d="m26.23,62.23c-.18,0-.36-.1-.45-.28l-.73-1.47c-.12-.25-.02-.55.23-.67.25-.12.55-.02.67.23l.73,1.47c.12.25.02.55-.22.67-.07.04-.15.05-.22.05Z"/>
            <path class="cls-13" d="m25.5,60.76c-.28,0-.5-.22-.5-.5v-4.43c0-.28.22-.5.5-.5s.5.22.5.5v4.43c0,.28-.22.5-.5.5Z"/>
            <path class="cls-13" d="m26.97,62.23h-.74c-.28,0-.5-.22-.5-.5s.22-.5.5-.5h.74c.28,0,.5.22.5.5s-.22.5-.5.5Z"/>
            <path class="cls-13" d="m21.08,71.09c-.09,0-.18-.02-.26-.07-.24-.14-.31-.45-.17-.69l2.21-3.69c.14-.24.45-.32.69-.17.24.14.31.45.17.69l-2.21,3.69c-.09.16-.26.24-.43.24Z"/>
            <path class="cls-13" d="m18.14,82.89s-.08,0-.12-.01c-.27-.07-.43-.34-.36-.61l1.47-5.9c.07-.27.33-.43.61-.36.27.07.43.34.36.61l-1.47,5.9c-.06.23-.26.38-.49.38Z"/>
            <path class="cls-13" d="m18.14,90.27c-.18,0-.36-.1-.45-.28-.12-.25-.03-.55.22-.67l1.47-.74c.25-.13.55-.03.67.22.12.25.03.55-.22.67l-1.47.74c-.07.04-.15.05-.22.05Z"/>
            <path class="cls-13" d="m21.08,90.27c-.08,0-.15-.02-.22-.05l-1.47-.74c-.25-.12-.35-.42-.22-.67.12-.25.42-.35.67-.22l1.47.74c.25.12.35.42.22.67-.09.17-.26.28-.45.28Z"/>
            <path class="cls-13" d="m19.61,76.99s-.08,0-.12-.01c-.27-.07-.43-.34-.36-.61l1.47-5.9c.07-.27.34-.43.61-.36.27.07.43.34.36.61l-1.47,5.9c-.06.23-.26.38-.49.38Z"/>
            <path class="cls-13" d="m18.14,55.59s-.03,0-.04,0c-.27-.02-.48-.26-.46-.54l2.94-36.15c.02-.27.25-.47.54-.46.27.02.48.26.46.54l-2.94,36.15c-.02.26-.24.46-.5.46Z"/>
            <path class="cls-13" d="m25.5,56.33s-.04,0-.06,0c-.27-.03-.47-.28-.44-.55L30.88,4.87c.03-.28.29-.47.55-.44.27.03.47.28.44.55l-5.88,50.9c-.03.25-.25.44-.5.44Z"/>
            <path class="cls-13" d="m7.85,100.6c-.28,0-.5-.22-.5-.5v-9.59c0-.28.22-.5.5-.5s.5.22.5.5v9.59c0,.28-.22.5-.5.5Z"/>
            <path class="cls-13" d="m13.73,95.43s-.03,0-.04,0c-.28-.02-.48-.26-.46-.54l.74-9.59c.02-.28.29-.5.54-.46.28.02.48.26.46.54l-.74,9.59c-.02.26-.24.46-.5.46Z"/>
            <path class="cls-13" d="m16.67,96.91s-.03,0-.05,0c-.28-.03-.48-.27-.45-.54l.74-8.12c.02-.28.29-.46.54-.45.28.03.48.27.45.54l-.74,8.12c-.02.26-.24.45-.5.45Z"/>
            <path class="cls-13" d="m15.2,107.98s-.04,0-.06,0c-.27-.03-.47-.28-.43-.56l1.47-11.81c.03-.27.29-.48.56-.43.27.03.47.28.43.56l-1.47,11.81c-.03.25-.25.44-.5.44Z"/>
            <path class="cls-13" d="m16.67,96.17s-.06,0-.08,0c-.27-.05-.46-.3-.41-.58l.74-4.43c.05-.27.31-.46.58-.41.27.04.46.3.41.58l-.74,4.43c-.04.24-.25.42-.49.42Z"/>
            <path class="cls-13" d="m13,114.61c-.28,0-.5-.22-.5-.5v-8.85c0-.28.22-.5.5-.5s.5.22.5.5v8.85c0,.28-.22.5-.5.5Z"/>
            <path class="cls-13" d="m13,105.76s-.02,0-.04,0c-.28-.02-.48-.26-.46-.53l.73-10.33c.02-.28.29-.48.53-.46.28.02.48.26.46.53l-.73,10.33c-.02.26-.24.46-.5.46Z"/>
            <path class="cls-13" d="m14.47,117.57s-.03,0-.05,0c-.28-.03-.48-.27-.45-.55l.73-7.38c.03-.28.28-.46.55-.45.28.03.48.27.45.55l-.73,7.38c-.03.26-.24.45-.5.45Z"/>
            <path class="cls-13" d="m15.2,110.19c-.28,0-.5-.22-.5-.5v-2.21c0-.28.22-.5.5-.5s.5.22.5.5v2.21c0,.28-.22.5-.5.5Z"/>
            <path class="cls-13" d="m15.94,76.99s-.04,0-.06,0c-.27-.03-.47-.28-.44-.55l1.47-13.28c.03-.28.28-.48.55-.44.27.03.47.28.44.55l-1.47,13.28c-.03.26-.25.45-.5.45Z"/>
            <path class="cls-13" d="m7.85,91.01s-.02,0-.03,0c-.28-.01-.49-.25-.47-.52l.74-14.76c.01-.27.23-.49.52-.47.28.01.49.25.47.52l-.74,14.76c-.01.27-.23.47-.5.47Z"/>
            <path class="cls-13" d="m14.47,85.84s-.05,0-.08,0c-.27-.04-.46-.3-.41-.58l1.47-8.85c.05-.27.3-.46.58-.41.27.04.46.3.41.58l-1.47,8.85c-.04.24-.25.42-.49.42Z"/>
            <path class="cls-13" d="m8.59,76.25s-.04,0-.06,0c-.27-.03-.47-.28-.44-.55l2.94-25.82c.03-.28.29-.47.55-.44.27.03.47.28.44.55l-2.94,25.82c-.03.25-.25.44-.5.44Z"/>
            <path class="cls-13" d="m11.53,50.43s-.08,0-.13-.02c-.27-.07-.43-.34-.36-.61L22.07,7.75c.07-.27.34-.43.61-.36.27.07.43.34.36.61l-11.02,42.05c-.06.22-.26.37-.48.37Z"/>
            <path class="cls-13" d="m17.41,91.74c-.08,0-.15-.02-.22-.05-.25-.12-.35-.42-.23-.67l.73-1.47c.12-.25.42-.35.67-.23.25.12.35.42.23.67l-.73,1.47c-.09.18-.26.28-.45.28Z"/>
            <path class="cls-13" d="m17.41,63.71s-.03,0-.05,0c-.27-.02-.48-.27-.45-.54l.73-8.12c.02-.28.26-.48.54-.45.27.02.48.27.45.54l-.73,8.12c-.02.26-.24.46-.5.46Z"/>
            <path class="cls-13" d="m17.41,88.79s-.04,0-.06,0c-.27-.03-.47-.28-.43-.56l.73-5.9c.03-.27.27-.47.56-.43.27.03.47.28.43.56l-.73,5.9c-.03.25-.25.44-.5.44Z"/>
            <path class="cls-13" d="m27.7,130.11c-.28,0-.5-.22-.5-.5v-8.12c0-.28.22-.5.5-.5s.5.22.5.5v8.12c0,.28-.22.5-.5.5Z"/>
            <path class="cls-13" d="m27.7,141.17c-.28,0-.5-.22-.5-.5v-11.06c0-.28.22-.5.5-.5s.5.22.5.5v11.06c0,.28-.22.5-.5.5Z"/>
            <path class="cls-13" d="m13.73,132.32c-.28,0-.5-.22-.5-.5v-5.9c0-.28.22-.5.5-.5s.5.22.5.5v5.9c0,.28-.22.5-.5.5Z"/>
            <path class="cls-13" d="m9.32,131.58h-.73c-.28,0-.5-.22-.5-.5s.22-.5.5-.5h.73c.28,0,.5.22.5.5s-.22.5-.5.5Z"/>
            <path class="cls-13" d="m8.59,131.58h-1.47c-.28,0-.5-.22-.5-.5s.22-.5.5-.5h1.47c.28,0,.5.22.5.5s-.22.5-.5.5Z"/>
            <path class="cls-13" d="m13.73,132.32h-1.47c-.28,0-.5-.22-.5-.5s.22-.5.5-.5h1.47c.28,0,.5.22.5.5s-.22.5-.5.5Z"/>
            <path class="cls-13" d="m12.26,132.32c-.08,0-.15-.02-.22-.05l-1.47-.74c-.25-.12-.35-.42-.22-.67.12-.25.42-.35.67-.22l1.47.74c.25.12.35.42.22.67-.09.17-.26.28-.45.28Z"/>
            <path class="cls-13" d="m10.79,131.58h-1.47c-.28,0-.5-.22-.5-.5s.22-.5.5-.5h1.47c.28,0,.5.22.5.5s-.22.5-.5.5Z"/>
            <path class="cls-13" d="m7.12,136.75s-.04,0-.06,0c-.27-.03-.47-.28-.43-.56l.73-5.9c.03-.27.27-.48.56-.44.27.03.47.28.43.56l-.73,5.9c-.03.25-.25.44-.5.44Z"/>
            <path class="cls-13" d="m12.26,138.22c-.28,0-.5-.22-.5-.5v-5.9c0-.28.22-.5.5-.5s.5.22.5.5v5.9c0,.28-.22.5-.5.5Z"/>
            <path class="cls-13" d="m13.73,138.22c-.28,0-.5-.22-.5-.5v-5.9c0-.28.22-.5.5-.5s.5.22.5.5v5.9c0,.28-.22.5-.5.5Z"/>
            <path class="cls-13" d="m13.73,132.32c-.2,0-.39-.12-.47-.33-.1-.26.04-.55.3-.64l13.97-5.16c.26-.1.55.04.64.3.1.26-.04.55-.3.64l-13.97,5.16c-.06.02-.12.03-.17.03Z"/>
            <path class="cls-13" d="m32.11,134.53c-.28,0-.5-.22-.5-.5v-16.23c0-.28.22-.5.5-.5s.5.22.5.5v16.23c0,.28-.22.5-.5.5Z"/>
            <path class="cls-13" d="m27.7,121.99c-.26,0-.47-.2-.5-.46l-.73-8.11c-.02-.28.18-.52.45-.54.26-.03.52.18.54.45l.73,8.11c.02.28-.18.52-.45.54-.02,0-.03,0-.05,0Z"/>
            <path class="cls-13" d="m7.85,130.85c-.28,0-.5-.22-.5-.5v-30.25c0-.28.22-.5.5-.5s.5.22.5.5v30.25c0,.28-.22.5-.5.5Z"/>
            <path class="cls-13" d="m12.26,132.32h-.02c-.28-.01-.49-.25-.48-.52l.74-17.71c.01-.28.25-.5.52-.48.28.01.49.25.48.52l-.74,17.71c-.01.27-.23.48-.5.48Z"/>
            <path class="cls-13" d="m13.73,126.42s-.03,0-.04,0c-.27-.02-.48-.26-.46-.54l.74-8.85c.02-.28.27-.48.54-.46.27.02.48.26.46.54l-.74,8.85c-.02.26-.24.46-.5.46Z"/>
            <path class="cls-13" d="m36.52,303.48c-.06,0-.12,0-.18-.03l-5.88-2.21c-.26-.1-.39-.38-.29-.64.1-.26.39-.39.64-.29l5.88,2.21c.26.1.39.38.29.64-.08.2-.27.32-.47.32Z"/>
            <path class="cls-13" d="m34.32,296.84c-.05,0-.11,0-.16-.03l-4.41-1.47c-.26-.09-.4-.37-.32-.63.09-.26.37-.4.63-.32l4.41,1.47c.26.09.4.37.32.63-.07.21-.27.34-.47.34Z"/>
            <path class="cls-13" d="m30.64,301.27c-.05,0-.11,0-.16-.03l-11.03-3.69c-.26-.09-.4-.37-.32-.63.09-.26.38-.4.63-.32l11.03,3.69c.26.09.4.37.32.63-.07.21-.27.34-.47.34Z"/>
            <path class="cls-13" d="m29.91,295.37s-.06,0-.08,0l-4.41-.74c-.27-.05-.46-.3-.41-.58.05-.27.31-.46.58-.41l4.41.74c.27.05.46.3.41.58-.04.24-.25.42-.49.42Z"/>
            <path class="cls-13" d="m25.5,294.63c-.08,0-.15-.02-.22-.05l-4.42-2.22c-.25-.12-.35-.42-.22-.67.12-.25.43-.35.67-.22l4.42,2.22c.25.12.35.42.22.67-.09.17-.26.28-.45.28Z"/>
            <path class="cls-13" d="m17.41,290.94c-.08,0-.15-.02-.22-.05l-4.32-2.17c-.24-.12-.39-.43-.27-.68.12-.25.37-.37.61-.26l.09.04,4.34,2.18c.25.12.35.42.22.67-.09.17-.26.28-.45.28Z"/>
            <path class="cls-13" d="m17.41,290.94c-.24,0-.46-.18-.49-.43l-.74-5.16c-.04-.27.15-.53.42-.57.27-.04.53.15.57.42l.74,5.16c.04.27-.15.53-.42.57-.02,0-.05,0-.07,0Z"/>
            <path class="cls-13" d="m13.73,291.68c-.23,0-.44-.16-.49-.39l-1.47-6.64c-.06-.27.11-.54.38-.6.27-.06.54.11.6.38l1.47,6.64c.06.27-.11.54-.38.6-.04,0-.07.01-.11.01Z"/>
            <path class="cls-13" d="m21.08,292.41c-.06,0-.12-.01-.19-.04l-3.67-1.47c-.26-.1-.38-.39-.28-.65.1-.26.4-.38.65-.28l3.67,1.47c.26.1.38.39.28.65-.08.2-.27.31-.46.31Z"/>
            <path class="cls-13" d="m47.55,299.05s-.05,0-.08,0l-9.56-1.47c-.27-.04-.46-.3-.42-.57.04-.27.3-.45.57-.42l9.56,1.47c.27.04.46.3.42.57-.04.25-.25.42-.49.42Z"/>
            <path class="cls-13" d="m37.99,297.58s-.07,0-.1,0l-3.67-.74c-.27-.05-.45-.32-.39-.59.05-.27.32-.45.59-.39l3.67.74c.27.05.45.32.39.59-.05.24-.26.4-.49.4Z"/>
            <path class="cls-13" d="m55.64,301.27s-.08,0-.12-.01l-2.95-.74c-.27-.07-.43-.34-.36-.61.07-.27.34-.43.61-.36l2.95.74c.27.07.43.34.36.61-.06.23-.26.38-.49.38Z"/>
            <path class="cls-13" d="m52.69,300.53h-2.94c-.28,0-.5-.22-.5-.5s.22-.5.5-.5h2.94c.28,0,.5.22.5.5s-.22.5-.5.5Z"/>
            <path class="cls-13" d="m64.46,304.22s-.05,0-.08,0l-14.71-2.21c-.27-.04-.46-.29-.42-.57.04-.27.3-.47.57-.42l14.71,2.21c.27.04.46.29.42.57-.04.25-.25.43-.49.43Z"/>
            <path class="cls-13" d="m49.75,300.53c-.1,0-.19-.03-.28-.08l-2.2-1.48c-.23-.15-.29-.46-.14-.69.16-.23.47-.29.69-.14l2.2,1.48c.23.15.29.46.14.69-.1.14-.25.22-.41.22Z"/>
            <path class="cls-13" d="m58.58,301.27h-2.94c-.28,0-.5-.22-.5-.5s.22-.5.5-.5h2.94c.28,0,.5.22.5.5s-.22.5-.5.5Z"/>
            <path class="cls-13" d="m62.25,302.01c-.21,0-.4-.13-.47-.34-.09-.26.05-.55.31-.63l2.21-.74c.26-.09.55.05.63.31.09.26-.05.55-.31.63l-2.21.74c-.05.02-.11.03-.16.03Z"/>
            <path class="cls-13" d="m62.25,302.01s-.07,0-.1,0l-3.67-.74c-.27-.05-.45-.32-.39-.59.05-.27.32-.45.59-.39l3.67.74c.27.05.45.32.39.59-.05.24-.26.4-.49.4Z"/>
            <path class="cls-13" d="m48.28,306.43c-.25,0-.46-.18-.5-.44l-.02-.16-.71-7.23c-.03-.27.17-.52.45-.55.27,0,.52.17.55.45l.73,7.37c.04.27-.16.52-.43.56-.02,0-.04,0-.06,0Z"/>
            <path class="cls-13" d="m49.75,306.43c-.28,0-.5-.22-.5-.5v-5.9c0-.28.22-.5.5-.5s.5.22.5.5v5.9c0,.28-.22.5-.5.5Z"/>
            <polygon class="cls-12" points="33.58 286.75 22.55 263.88 23.29 286.75 24.02 286.75 24.76 287.49 25.5 287.49 26.23 287.49 26.97 287.49 27.7 287.49 29.17 287.49 29.91 287.49 30.64 287.49 31.38 287.49 32.11 287.49 32.85 286.75 33.58 286.75"/>
            <path class="cls-13" d="m25.09,61.65c-.23,0-.43-.16-.49-.39-.06-.27.1-.54.37-.6.27-.06.52-.11.79-.16,12.39-2.7,25.14-4.61,37.89-5.66.25-.02.52.18.54.46.02.28-.18.52-.46.54-12.71,1.05-25.42,2.95-37.78,5.64-.27.05-.51.1-.76.16-.04,0-.08.01-.11.01Z"/>
            <path class="cls-13" d="m64.46,171.42c-.26,0-.48-.2-.5-.46-.02-.28.18-.52.46-.54l17.64-1.47,17.58-3.68c.26-.06.54.12.59.39.06.27-.12.54-.39.59l-17.64,3.69-17.7,1.48s-.03,0-.04,0Z"/>
            <path class="cls-13" d="m91.66,221.59c-.2,0-.39-.12-.47-.32-.1-.26.03-.55.28-.65l13.23-5.16c.26-.1.55.03.65.28.1.26-.03.55-.28.65l-13.23,5.16c-.06.02-.12.03-.18.03Z"/>
            <path class="cls-13" d="m90.92,220.11c-.19,0-.37-.11-.46-.3-.11-.25,0-.55.25-.66l13.23-5.9c.25-.11.55,0,.66.25.11.25,0,.55-.25.66l-13.23,5.9c-.07.03-.14.04-.2.04Z"/>
            <path class="cls-13" d="m111.5,209.05c-.06,0-.12-.01-.18-.04-.26-.1-.38-.39-.28-.65l1.47-3.69c.1-.26.39-.38.65-.28.26.1.38.39.28.65l-1.47,3.69c-.08.2-.27.32-.46.32Z"/>
            <path class="cls-13" d="m110.03,208.31c-.05,0-.11,0-.16-.03-.26-.09-.4-.37-.32-.63l1.47-4.43c.09-.26.37-.41.63-.32.26.09.4.37.32.63l-1.47,4.43c-.07.21-.26.34-.47.34Z"/>
            <path class="cls-13" d="m104.89,216.43c-.12,0-.24-.04-.33-.13-.21-.18-.22-.5-.04-.71l6.61-7.38c.18-.2.5-.22.71-.04.21.18.22.5.04.71l-6.61,7.38c-.1.11-.24.17-.37.17Z"/>
            <path class="cls-13" d="m104.15,214.21c-.13,0-.26-.05-.35-.15-.2-.2-.2-.51,0-.71l5.88-5.9c.2-.2.51-.2.71,0,.2.2.2.51,0,.71l-5.88,5.9c-.1.1-.23.15-.35.15Z"/>
            <path class="cls-13" d="m74.75,224.54c-.24,0-.45-.17-.49-.41-.05-.27.13-.53.41-.58l16.91-2.95c.27-.06.53.13.58.41.05.27-.13.53-.41.58l-16.91,2.95s-.06,0-.09,0Z"/>
            <path class="cls-13" d="m74.01,223.07c-.24,0-.45-.17-.49-.41-.05-.27.13-.53.41-.58l16.91-2.96c.27-.06.53.13.58.41.05.27-.13.53-.41.58l-16.91,2.96s-.06,0-.09,0Z"/>
            <path class="cls-13" d="m64.46,225.28c-.26,0-.48-.2-.5-.46-.02-.28.19-.51.46-.54l10.29-.74c.28-.02.51.19.54.46.02.28-.19.51-.46.54l-10.29.74s-.02,0-.04,0Z"/>
            <path class="cls-13" d="m64.46,223.8c-.26,0-.48-.2-.5-.46-.02-.28.19-.52.46-.54l9.55-.73c.25-.03.51.18.54.46.02.28-.19.52-.46.54l-9.55.73s-.03,0-.04,0Z"/>
            <path class="cls-13" d="m116.65,285.04s-.06,0-.09,0c-.27-.05-.45-.31-.4-.58l4.41-24.35,1.46-25.02c.02-.28.25-.51.53-.47.28.02.49.25.47.53l-1.47,25.08-4.42,24.41c-.04.24-.25.41-.49.41Z"/>
            <path class="cls-13" d="m122.53,235.61c-.28,0-.5-.22-.5-.5v-18.45c0-.28.22-.5.5-.5s.5.22.5.5v18.45c0,.28-.22.5-.5.5Z"/>
            <path class="cls-13" d="m114.44,236.35h-.02c-.28-.01-.5-.25-.48-.52l.74-15.5c.01-.28.25-.51.52-.48.28.01.49.25.48.52l-.74,15.5c-.01.27-.23.48-.5.48Z"/>
            <path class="cls-13" d="m98.27,155.19c-.24,0-.45-.17-.49-.41l-1.47-8.11c-.05-.27.13-.53.4-.58.27-.04.53.13.58.4l1.47,8.11c.05.27-.13.53-.4.58-.03,0-.06,0-.09,0Z"/>
            <path class="cls-13" d="m101.95,157.4c-.25,0-.47-.2-.5-.45l-.74-8.11c-.03-.28.18-.52.45-.54.26-.02.52.18.54.45l.74,8.11c.03.28-.18.52-.45.54-.02,0-.03,0-.05,0Z"/>
            <path class="cls-13" d="m121.8,183.23c-.27,0-.49-.21-.5-.49v-.35s-.74-34.33-.74-34.33c0-.28.21-.5.49-.51h.01c.27,0,.49.22.5.49l.74,34.68c0,.28-.21.51-.49.51h-.01Z"/>
            <path class="cls-13" d="m115.18,165.52c-.28,0-.5-.22-.5-.5v-14.02c0-.28.22-.5.5-.5s.5.22.5.5v14.02c0,.28-.22.5-.5.5Z"/>
            <path class="cls-13" d="m117.39,161.83c-.26,0-.48-.2-.5-.47l-.74-11.8c-.02-.28.19-.51.47-.53.29-.03.51.19.53.47l.74,11.8c.02.28-.19.51-.47.53-.01,0-.02,0-.03,0Z"/>
            <path class="cls-13" d="m99.74,166.26c-.25,0-.46-.18-.5-.43l-1.47-11.07c-.04-.27.16-.52.43-.56.26-.04.52.16.56.43l1.47,11.07c.04.27-.16.52-.43.56-.02,0-.04,0-.07,0Z"/>
            <path class="cls-13" d="m102.68,162.57c-.25,0-.46-.18-.49-.43l-.73-5.17c-.04-.27.15-.53.42-.57.28-.04.53.15.57.42l.73,5.17c.04.27-.15.53-.42.57-.02,0-.05,0-.07,0Z"/>
            <path class="cls-13" d="m103.42,165.52c-.22,0-.43-.15-.49-.38l-.74-2.95c-.07-.27.1-.54.36-.61.27-.06.54.1.61.36l.74,2.95c.07.27-.1.54-.36.61-.04,0-.08.01-.12.01Z"/>
            <path class="cls-13" d="m113.71,186.18s-.03,0-.05,0c-.27-.02-.48-.27-.45-.54l.73-8.12c.02-.28.27-.47.54-.45.27.02.48.27.45.54l-.73,8.12c-.02.26-.24.46-.5.46Z"/>
            <path class="cls-13" d="m117.39,183.21c-.28,0-.5-.2-.5-.48v-9.59c0-.28.22-.5.5-.5s.5.22.5.5v9.54c0,.28-.22.53-.5.53Z"/>
            <path class="cls-13" d="m115.91,186.18s-.08,0-.12-.01c-.27-.07-.43-.34-.36-.61l.74-2.95c.07-.27.34-.43.61-.36.27.07.43.34.36.61l-.74,2.95c-.06.23-.26.38-.49.38Z"/>
            <path class="cls-13" d="m127.68,184.7c-.28,0-.5-.22-.5-.5v-.74c0-.28.22-.5.5-.5s.5.22.5.5v.74c0,.28-.22.5-.5.5Z"/>
            <path class="cls-13" d="m116.65,183.23c-.26,0-.48-.2-.5-.47-.02-.28.19-.51.47-.53l11.03-.74c.28-.02.51.19.53.47.02.28-.19.51-.47.53l-11.03.74s-.02,0-.03,0Z"/>
            <path class="cls-13" d="m127.68,183.96c-.28,0-.5-.22-.5-.5v-1.47c0-.28.22-.5.5-.5s.5.22.5.5v1.47c0,.28-.22.5-.5.5Z"/>
            <path class="cls-13" d="m117.39,192.82c-.18,0-.36-.1-.45-.28-.12-.25-.03-.55.22-.67l2.94-1.48c.25-.12.55-.03.67.22.12.25.03.55-.22.67l-2.94,1.48c-.07.04-.15.05-.22.05Z"/>
            <path class="cls-13" d="m120.33,191.34c-.16,0-.31-.07-.41-.21-.16-.22-.11-.54.11-.7l5.14-3.69c.22-.16.54-.11.7.12.16.22.11.54-.12.7l-5.14,3.69c-.09.06-.19.09-.29.09Z"/>
            <path class="cls-13" d="m126.94,186.18c-.08,0-.15-.02-.22-.05-.25-.12-.35-.42-.22-.67l.74-1.48c.12-.25.43-.35.67-.22.25.12.35.42.22.67l-.74,1.48c-.09.17-.26.28-.45.28Z"/>
            <path class="cls-13" d="m125.47,187.65c-.13,0-.26-.05-.35-.15-.2-.2-.2-.51,0-.71l1.47-1.47c.2-.2.51-.2.71,0s.2.51,0,.71l-1.47,1.47c-.1.1-.23.15-.35.15Z"/>
            <path class="cls-13" d="m113.71,195.03c-.28,0-.5-.22-.5-.5v-8.85c0-.28.22-.5.5-.5s.5.22.5.5v8.85c0,.28-.22.5-.5.5Z"/>
            <path class="cls-13" d="m115.91,193.56h-.73c-.28,0-.5-.22-.5-.5s.22-.5.5-.5h.73c.28,0,.5.22.5.5s-.22.5-.5.5Z"/>
            <path class="cls-13" d="m115.18,193.56c-.28,0-.5-.22-.5-.5v-2.22c0-.28.22-.5.5-.5s.5.22.5.5v2.22c0,.28-.22.5-.5.5Z"/>
            <path class="cls-13" d="m115.18,191.34s-.05,0-.07,0c-.27-.04-.46-.29-.42-.57l.73-5.16c.04-.27.28-.45.57-.42.27.04.46.29.42.57l-.73,5.16c-.04.25-.25.43-.49.43Z"/>
            <path class="cls-13" d="m115.91,193.56c-.18,0-.36-.1-.45-.28-.12-.25-.02-.55.22-.67l1.48-.74c.25-.12.55-.02.67.22.12.25.02.55-.22.67l-1.48.74c-.07.04-.15.05-.22.05Z"/>
            <path class="cls-13" d="m113.71,207.57c-.21,0-.4-.13-.47-.34l-.74-2.21c-.09-.26.05-.55.31-.63.26-.09.55.05.63.31l.74,2.21c.09.26-.05.55-.31.63-.05.02-.11.03-.16.03Z"/>
            <path class="cls-13" d="m121.06,202.41c-.05,0-.11,0-.16-.03l-2.2-.74c-.26-.09-.4-.37-.31-.63.09-.26.37-.4.63-.31l2.2.74c.26.09.4.37.31.63-.07.21-.26.34-.47.34Z"/>
            <path class="cls-13" d="m121.8,202.41h-.74c-.28,0-.5-.22-.5-.5s.22-.5.5-.5h.74c.28,0,.5.22.5.5s-.22.5-.5.5Z"/>
            <path class="cls-13" d="m117.39,200.93c-.13,0-.25-.05-.35-.15l-1.48-1.47c-.2-.19-.2-.51,0-.71.19-.2.51-.2.71,0l1.48,1.47c.2.19.2.51,0,.71-.1.1-.23.15-.35.15Z"/>
            <path class="cls-13" d="m118.86,201.67c-.08,0-.15-.02-.22-.05l-1.47-.74c-.25-.12-.35-.42-.22-.67.12-.25.42-.35.67-.22l1.47.74c.25.12.35.42.22.67-.09.17-.26.28-.45.28Z"/>
            <path class="cls-13" d="m115.91,199.46c-.08,0-.15-.02-.22-.05l-1.47-.74c-.25-.12-.35-.42-.22-.67.12-.25.42-.35.67-.22l1.47.74c.25.12.35.42.22.67-.09.17-.26.28-.45.28Z"/>
            <path class="cls-13" d="m115.18,220.85c-.28,0-.5-.22-.5-.5v-9.59c0-.28.22-.5.5-.5s.5.22.5.5v9.59c0,.28-.22.5-.5.5Z"/>
            <path class="cls-13" d="m114.44,209.79c-.21,0-.41-.13-.47-.34l-.73-2.22c-.09-.26.06-.54.32-.63.26-.09.55.06.63.32l.73,2.22c.09.26-.06.55-.32.63-.05.02-.1.03-.16.03Z"/>
            <path class="cls-13" d="m115.18,211.26c-.18,0-.36-.1-.45-.28l-.74-1.47c-.12-.25-.03-.55.22-.67.24-.12.55-.03.67.22l.74,1.47c.12.25.03.55-.22.67-.07.04-.15.05-.22.05Z"/>
            <path class="cls-13" d="m122.53,217.16c-.27,0-.49-.21-.5-.49l-.73-26.56c0-.28.21-.51.49-.51h.01c.27,0,.49.21.5.49l.73,26.56c0,.28-.21.51-.49.51h-.01Z"/>
            <path class="cls-13" d="m117.39,200.93c-.28,0-.5-.22-.5-.5v-8.11c0-.28.22-.5.5-.5s.5.22.5.5v8.11c0,.28-.22.5-.5.5Z"/>
            <path class="cls-13" d="m117.39,173.64c-.28,0-.5-.22-.5-.5v-11.81c0-.28.22-.5.5-.5s.5.22.5.5v11.81c0,.28-.22.5-.5.5Z"/>
            <path class="cls-13" d="m114.44,178.06s-.02,0-.03,0c-.28-.02-.49-.25-.47-.53l.74-12.54c.02-.28.26-.49.53-.47.28.02.49.25.47.53l-.74,12.54c-.02.27-.24.47-.5.47Z"/>
            <path class="cls-13" d="m114.44,198.72c-.21,0-.4-.13-.47-.34l-11.02-33.2c-.09-.26.05-.54.32-.63.26-.09.54.06.63.32l11.02,33.2c.09.26-.05.54-.32.63-.05.02-.11.03-.16.03Z"/>
            <path class="cls-13" d="m111.5,203.88c-.21,0-.41-.14-.48-.35l-11.76-37.62c-.08-.26.06-.54.33-.63.27-.08.54.07.63.33l11.76,37.62c.08.26-.06.54-.33.63-.05.02-.1.02-.15.02Z"/>
            <path class="cls-13" d="m111.5,285.78s-.04,0-.06,0c-.27-.03-.47-.28-.44-.56l1.47-12.55c.03-.27.27-.47.56-.44.27.03.47.28.44.56l-1.47,12.55c-.03.25-.25.44-.5.44Z"/>
            <path class="cls-13" d="m112.97,273.23s-.02,0-.03,0c-.28-.02-.48-.26-.47-.53l.74-11.06c.02-.28.28-.48.53-.47.28.02.48.26.47.53l-.74,11.06c-.02.26-.24.47-.5.47Z"/>
            <path class="cls-13" d="m114.44,252.58c-.28,0-.5-.22-.5-.5v-16.23c0-.28.22-.5.5-.5s.5.22.5.5v16.23c0,.28-.22.5-.5.5Z"/>
            <path class="cls-13" d="m113.71,262.17s-.03,0-.04,0c-.28-.02-.48-.26-.46-.54l.73-9.59c.02-.28.27-.49.54-.46.28.02.48.26.46.54l-.73,9.59c-.02.26-.24.46-.5.46Z"/>
            <path class="cls-13" d="m100.48,149.29c-.28,0-.5-.22-.5-.5v-8.12c0-.28.22-.5.5-.5s.5.22.5.5v8.12c0,.28-.22.5-.5.5Z"/>
            <path class="cls-13" d="m96.8,147.08c-.28,0-.5-.22-.5-.5v-12.55c0-.28.22-.5.5-.5s.5.22.5.5v12.55c0,.28-.22.5-.5.5Z"/>
            <path class="cls-13" d="m115.18,151.5c-.28,0-.5-.22-.5-.5v-5.16c0-.28.22-.5.5-.5s.5.22.5.5v5.16c0,.28-.22.5-.5.5Z"/>
            <path class="cls-13" d="m116.65,150.03c-.28,0-.5-.22-.5-.5v-3.69c0-.28.22-.5.5-.5s.5.22.5.5v3.69c0,.28-.22.5-.5.5Z"/>
            <path class="cls-13" d="m121.06,148.55c-.28,0-.5-.22-.5-.5v-.74c0-.28.22-.5.5-.5s.5.22.5.5v.74c0,.28-.22.5-.5.5Z"/>
            <path class="cls-13" d="m115.18,146.34c-.28,0-.5-.22-.5-.5v-8.12c0-.28.22-.5.5-.5s.5.22.5.5v8.12c0,.28-.22.5-.5.5Z"/>
            <path class="cls-13" d="m116.65,146.34c-.28,0-.5-.22-.5-.5v-8.12c0-.28.22-.5.5-.5s.5.22.5.5v8.12c0,.28-.22.5-.5.5Z"/>
            <path class="cls-13" d="m121.06,147.81c-.28,0-.5-.22-.5-.5v-11.06c0-.28.22-.5.5-.5s.5.22.5.5v11.06c0,.28-.22.5-.5.5Z"/>
            <path class="cls-13" d="m101.21,149.29h-.73c-.28,0-.5-.22-.5-.5s.22-.5.5-.5h.73c.28,0,.5.22.5.5s-.22.5-.5.5Z"/>
            <path class="cls-13" d="m64.46,310.12c-.23,0-.43-.15-.49-.38-.06-.27.1-.54.37-.6l27.93-6.64c.26-.07.54.1.6.37.06.27-.1.54-.37.6l-27.93,6.64s-.08.01-.12.01Z"/>
            <path class="cls-13" d="m64.46,308.65c-.22,0-.42-.15-.48-.37-.07-.27.09-.54.36-.61l13.96-3.69c.27-.07.54.09.61.36.07.27-.09.54-.36.61l-13.96,3.69s-.09.02-.13.02Z"/>
            <path class="cls-13" d="m64.46,306.43c-.23,0-.44-.16-.49-.4-.06-.27.12-.54.39-.59l13.96-2.95c.27-.05.54.12.59.39.06.27-.12.54-.39.59l-13.96,2.95s-.07.01-.1.01Z"/>
            <path class="cls-13" d="m96.8,104.29s-.07,0-.11-.01l-16.17-3.69-16.1-1.47c-.27-.03-.48-.27-.45-.54.02-.27.27-.46.54-.45l16.17,1.48,16.24,3.7c.27.06.44.33.38.6-.05.23-.26.39-.49.39Z"/>
            <path class="cls-13" d="m109.3,297.58c-.15,0-.3-.07-.4-.2-.17-.22-.12-.53.1-.7l2.86-2.15,2.15-3.61c.14-.24.45-.32.69-.17.24.14.32.45.17.69l-2.2,3.69c-.03.06-.08.1-.13.14l-2.94,2.21c-.09.07-.2.1-.3.1Z"/>
            <path class="cls-13" d="m102.68,107.24s-.1,0-.15-.02c-.26-.08-.41-.36-.33-.62l5.15-16.97c.08-.26.36-.41.62-.33.26.08.41.36.33.62l-5.15,16.97c-.07.22-.26.35-.48.35Z"/>
            <path class="cls-13" d="m96.8,104.29s-.04,0-.05,0c-.28-.03-.47-.27-.45-.55l4.41-42.06c.03-.27.28-.48.55-.45.28.03.47.27.45.55l-4.41,42.06c-.03.26-.24.45-.5.45Z"/>
            <path class="cls-13" d="m96.8,108.71c-.28,0-.5-.22-.5-.5v-4.42c0-.28.22-.5.5-.5s.5.22.5.5v4.42c0,.28-.22.5-.5.5Z"/>
            <path class="cls-13" d="m96.8,118.3c-.28,0-.5-.22-.5-.5v-9.59c0-.28.22-.5.5-.5s.5.22.5.5v9.59c0,.28-.22.5-.5.5Z"/>
            <path class="cls-13" d="m101.95,113.88s-.04,0-.06,0c-.27-.03-.47-.28-.44-.55l.73-6.64c.03-.27.28-.47.55-.44.27.03.47.28.44.55l-.73,6.64c-.03.26-.25.45-.5.45Z"/>
            <path class="cls-13" d="m105.62,67.4c-.16,0-.31-.07-.41-.21l-3.67-5.17c-.16-.22-.11-.54.12-.7.22-.16.54-.11.7.12l3.67,5.17c.16.22.11.54-.12.7-.09.06-.19.09-.29.09Z"/>
            <path class="cls-13" d="m101.95,62.23c-.07,0-.15-.02-.22-.05-.25-.12-.35-.42-.23-.67l.73-1.47c.12-.25.42-.35.67-.22.25.12.35.42.22.67l-.73,1.47c-.09.18-.26.28-.45.28Z"/>
            <path class="cls-13" d="m102.68,60.76s-.06,0-.08,0c-.27-.05-.46-.3-.41-.58l.74-4.43c.04-.27.31-.46.58-.41.27.05.46.3.41.58l-.74,4.43c-.04.25-.25.42-.49.42Z"/>
            <path class="cls-13" d="m101.95,62.23h-.74c-.28,0-.5-.22-.5-.5s.22-.5.5-.5h.74c.28,0,.5.22.5.5s-.22.5-.5.5Z"/>
            <path class="cls-13" d="m107.09,71.09c-.2,0-.39-.12-.46-.32l-1.47-3.69c-.1-.26.02-.55.28-.65.25-.1.55.02.65.28l1.47,3.69c.1.26-.02.55-.28.65-.06.02-.12.04-.18.04Z"/>
            <path class="cls-13" d="m110.03,82.89c-.22,0-.43-.15-.49-.38l-1.47-5.9c-.07-.27.1-.54.36-.61.27-.07.54.1.61.36l1.47,5.9c.07.27-.1.54-.36.61-.04,0-.08.01-.12.01Z"/>
            <path class="cls-13" d="m110.03,90.27c-.08,0-.15-.02-.22-.05l-1.47-.74c-.25-.12-.35-.42-.22-.67.12-.25.42-.35.67-.22l1.47.74c.25.12.35.42.22.67-.09.17-.26.28-.45.28Z"/>
            <path class="cls-13" d="m107.83,90.27c-.13,0-.25-.05-.35-.14-.2-.19-.2-.51,0-.71l.73-.74c.19-.2.51-.2.71,0,.2.19.2.51,0,.71l-.73.74c-.1.1-.23.15-.36.15Z"/>
            <path class="cls-13" d="m108.56,76.99c-.22,0-.43-.15-.49-.38l-1.47-5.9c-.07-.27.1-.54.36-.61.27-.07.54.1.61.36l1.47,5.9c.07.27-.1.54-.36.61-.04,0-.08.01-.12.01Z"/>
            <path class="cls-13" d="m110.03,55.59c-.26,0-.48-.2-.5-.46l-2.94-36.15c-.02-.28.18-.52.46-.54.29-.01.52.18.54.46l2.94,36.15c.02.28-.18.52-.46.54-.01,0-.03,0-.04,0Z"/>
            <path class="cls-13" d="m103.42,56.33c-.25,0-.46-.18-.5-.44l-6.62-50.88c0-.28.22-.54.5-.54s.5.18.5.46l6.62,50.84c.04.27-.16.52-.43.56-.02,0-.04,0-.07,0Z"/>
            <path class="cls-13" d="m120.33,100.6c-.28,0-.5-.22-.5-.5v-9.59c0-.28.22-.5.5-.5s.5.22.5.5v9.59c0,.28-.22.5-.5.5Z"/>
            <path class="cls-13" d="m114.44,95.43c-.26,0-.48-.2-.5-.46l-.73-9.59c-.02-.28.19-.52.46-.54.27-.02.52.19.54.46l.73,9.59c.02.28-.19.52-.46.54-.01,0-.03,0-.04,0Z"/>
            <path class="cls-13" d="m112.24,96.91c-.25,0-.47-.2-.5-.46l-.74-8.12c-.03-.27.18-.52.45-.54.25-.01.52.18.54.45l.74,8.12c.03.27-.18.52-.45.54-.01,0-.03,0-.05,0Z"/>
            <path class="cls-13" d="m112.97,107.98c-.25,0-.46-.19-.5-.44l-1.47-11.81c-.03-.27.16-.52.44-.56.27-.04.52.16.56.44l1.47,11.81c.03.27-.16.52-.43.56-.02,0-.04,0-.06,0Z"/>
            <path class="cls-13" d="m111.5,96.17c-.24,0-.45-.17-.49-.42l-.73-4.43c-.04-.27.14-.53.41-.57.27-.05.53.14.57.41l.73,4.43c.04.27-.14.53-.41.57-.03,0-.05,0-.08,0Z"/>
            <path class="cls-13" d="m115.18,114.61c-.28,0-.5-.22-.5-.5v-8.85c0-.28.22-.5.5-.5s.5.22.5.5v8.85c0,.28-.22.5-.5.5Z"/>
            <path class="cls-13" d="m115.18,105.76c-.26,0-.48-.2-.5-.46l-.74-10.33c-.02-.28.19-.51.46-.54.26-.02.51.19.54.46l.74,10.33c.02.28-.19.51-.46.54-.01,0-.02,0-.04,0Z"/>
            <path class="cls-13" d="m113.71,117.57c-.28,0-.5-.22-.5-.5v-7.38c0-.28.22-.5.5-.5s.5.22.5.5v7.38c0,.28-.22.5-.5.5Z"/>
            <path class="cls-13" d="m113.71,110.19c-.21,0-.4-.13-.47-.34l-.74-2.21c-.09-.26.05-.55.32-.63s.55.05.63.32l.74,2.21c.09.26-.05.55-.32.63-.05.02-.11.03-.16.03Z"/>
            <path class="cls-13" d="m112.97,76.99c-.25,0-.47-.19-.5-.45l-1.47-13.28c-.03-.27.17-.52.44-.55.27-.04.52.17.55.44l1.47,13.28c.03.27-.17.52-.44.55-.02,0-.04,0-.06,0Z"/>
            <path class="cls-13" d="m120.33,91.01c-.26,0-.49-.21-.5-.47l-.74-14.76c-.01-.28.2-.51.47-.52.29-.02.51.2.52.47l.74,14.76c.01.28-.2.51-.47.52,0,0-.02,0-.03,0Z"/>
            <path class="cls-13" d="m113.71,85.84c-.26,0-.48-.2-.5-.46l-.74-8.85c-.02-.28.18-.52.46-.54.26-.02.52.18.54.46l.74,8.85c.02.28-.18.52-.46.54-.01,0-.03,0-.04,0Z"/>
            <path class="cls-13" d="m119.59,76.25c-.25,0-.47-.19-.5-.44l-2.94-25.82c-.03-.27.17-.52.44-.55.27-.03.52.16.55.44l2.94,25.82c.03.27-.17.52-.44.55-.02,0-.04,0-.06,0Z"/>
            <path class="cls-13" d="m116.65,50.43c-.23,0-.43-.15-.49-.38l-10.29-42.05c-.07-.27.1-.54.37-.6.27-.06.54.1.6.37l10.29,42.05c.07.27-.1.54-.37.6-.04,0-.08.01-.12.01Z"/>
            <path class="cls-13" d="m110.77,91.74c-.18,0-.36-.1-.45-.28l-.74-1.47c-.12-.25-.03-.55.22-.67.24-.13.55-.03.67.22l.74,1.47c.12.25.03.55-.22.67-.07.04-.15.05-.22.05Z"/>
            <path class="cls-13" d="m111.5,63.71c-.24,0-.45-.17-.49-.41l-1.47-8.12c-.05-.27.13-.53.4-.58.26-.04.53.13.58.4l1.47,8.12c.05.27-.13.53-.4.58-.03,0-.06,0-.09,0Z"/>
            <path class="cls-13" d="m111.5,88.79c-.22,0-.43-.15-.49-.38l-1.47-5.9c-.07-.27.1-.54.36-.61.27-.07.54.1.61.36l1.47,5.9c.07.27-.1.54-.36.61-.04,0-.08.01-.12.01Z"/>
            <path class="cls-13" d="m100.48,130.11s-.03,0-.05,0c-.28-.03-.48-.27-.45-.54l.73-8.12c.03-.28.27-.48.54-.45.27.02.48.27.45.54l-.73,8.12c-.02.26-.24.46-.5.46Z"/>
            <path class="cls-13" d="m100.48,141.17c-.28,0-.5-.22-.5-.5v-11.06c0-.28.22-.5.5-.5s.5.22.5.5v11.06c0,.28-.22.5-.5.5Z"/>
            <path class="cls-13" d="m115.18,132.32c-.25,0-.46-.18-.5-.44l-.74-5.9c-.03-.27.16-.52.43-.56.27-.03.52.16.56.43l.74,5.9c.03.27-.16.52-.43.56-.02,0-.04,0-.06,0Z"/>
            <path class="cls-13" d="m120.33,131.58h-1.47c-.28,0-.5-.22-.5-.5s.22-.5.5-.5h1.47c.28,0,.5.22.5.5s-.22.5-.5.5Z"/>
            <path class="cls-13" d="m121.06,131.58h-.73c-.28,0-.5-.22-.5-.5s.22-.5.5-.5h.73c.28,0,.5.22.5.5s-.22.5-.5.5Z"/>
            <path class="cls-13" d="m115.91,132.32h-.73c-.28,0-.5-.22-.5-.5s.22-.5.5-.5h.73c.28,0,.5.22.5.5s-.22.5-.5.5Z"/>
            <path class="cls-13" d="m115.91,132.32c-.18,0-.36-.1-.45-.28-.12-.25-.02-.55.22-.67l1.48-.74c.24-.12.55-.02.67.22.12.25.02.55-.22.67l-1.48.74c-.07.04-.15.05-.22.05Z"/>
            <path class="cls-13" d="m118.86,131.58h-1.47c-.28,0-.5-.22-.5-.5s.22-.5.5-.5h1.47c.28,0,.5.22.5.5s-.22.5-.5.5Z"/>
            <path class="cls-13" d="m121.06,136.75c-.28,0-.5-.22-.5-.5v-5.9c0-.28.22-.5.5-.5s.5.22.5.5v5.9c0,.28-.22.5-.5.5Z"/>
            <path class="cls-13" d="m116.65,138.22c-.25,0-.46-.18-.5-.44l-.74-5.9c-.03-.27.16-.52.43-.56.27-.04.52.16.56.43l.74,5.9c.03.27-.16.52-.43.56-.02,0-.04,0-.06,0Z"/>
            <path class="cls-13" d="m115.18,138.22c-.28,0-.5-.22-.5-.5v-5.9c0-.28.22-.5.5-.5s.5.22.5.5v5.9c0,.28-.22.5-.5.5Z"/>
            <path class="cls-13" d="m115.18,132.32c-.05,0-.11,0-.17-.03l-14.7-5.16c-.26-.09-.4-.37-.31-.64.09-.26.38-.4.64-.31l.26.09,14.44,5.07c.26.09.4.38.31.64-.07.2-.27.33-.47.33Z"/>
            <path class="cls-13" d="m96.8,134.53c-.28,0-.5-.22-.5-.5v-16.23c0-.28.22-.5.5-.5s.5.22.5.5v16.23c0,.28-.22.5-.5.5Z"/>
            <path class="cls-13" d="m101.21,121.99s-.03,0-.05,0c-.27-.03-.48-.27-.45-.54l.74-8.11c.03-.27.28-.46.54-.45.27.03.48.27.45.54l-.74,8.11c-.02.26-.24.45-.5.45Z"/>
            <path class="cls-13" d="m121.06,130.85c-.27,0-.49-.22-.5-.49l-.73-30.25c0-.28.21-.5.49-.51h.01c.27,0,.49.22.5.49l.73,30.25c0,.28-.21.5-.49.51h-.01Z"/>
            <path class="cls-13" d="m115.91,132.32c-.27,0-.49-.21-.5-.48l-.73-17.71c-.01-.28.2-.51.48-.52.28-.03.51.2.52.48l.73,17.71c.01.28-.2.51-.48.52h-.02Z"/>
            <path class="cls-13" d="m114.44,126.42c-.26,0-.48-.2-.5-.46l-.73-8.85c-.02-.28.18-.52.46-.54.25-.02.52.18.54.46l.73,8.85c.02.28-.18.52-.46.54-.01,0-.03,0-.04,0Z"/>
            <path class="cls-13" d="m92.39,303.48c-.2,0-.39-.12-.47-.32-.1-.26.03-.55.29-.64l5.88-2.21c.26-.1.55.03.64.29.1.26-.03.55-.29.64l-5.88,2.21c-.06.02-.12.03-.18.03Z"/>
            <path class="cls-13" d="m94.6,296.84c-.21,0-.4-.13-.47-.34-.09-.26.05-.54.32-.63l4.41-1.47c.26-.09.54.05.63.32.09.26-.05.54-.32.63l-4.41,1.47c-.05.02-.11.03-.16.03Z"/>
            <path class="cls-13" d="m98.27,301.27c-.21,0-.4-.13-.47-.34-.09-.26.05-.54.32-.63l11.03-3.69c.26-.09.55.05.63.32.09.26-.05.54-.32.63l-11.03,3.69c-.05.02-.11.03-.16.03Z"/>
            <path class="cls-13" d="m99.01,295.37c-.23,0-.44-.16-.49-.4-.05-.27.12-.53.39-.59l3.67-.74c.27-.05.53.12.59.39.05.27-.12.53-.39.59l-3.67.74s-.07,0-.1,0Z"/>
            <path class="cls-13" d="m102.68,294.63c-.19,0-.38-.11-.46-.3-.11-.25,0-.55.26-.66l5.15-2.22c.25-.11.55,0,.66.26.11.25,0,.55-.26.66l-5.15,2.22c-.06.03-.13.04-.2.04Z"/>
            <path class="cls-13" d="m110.77,290.94c-.18,0-.36-.1-.45-.28-.12-.25-.02-.55.22-.67l4.41-2.21c.24-.12.55-.03.67.22.12.25.02.55-.22.67l-4.41,2.21c-.07.04-.15.05-.22.05Z"/>
            <path class="cls-13" d="m110.77,290.94s-.05,0-.07,0c-.27-.04-.46-.29-.42-.57l.73-5.16c.04-.27.29-.45.57-.42.27.04.46.29.42.57l-.73,5.16c-.04.25-.25.43-.49.43Z"/>
            <path class="cls-13" d="m114.44,291.68c-.05,0-.11,0-.16-.03-.26-.09-.4-.37-.32-.63l2.21-6.64c.09-.26.36-.4.63-.32.26.09.4.37.32.63l-2.21,6.64c-.07.21-.27.34-.47.34Z"/>
            <path class="cls-13" d="m107.83,292.41c-.18,0-.36-.1-.45-.28-.12-.25-.02-.55.22-.67l2.94-1.47c.25-.12.55-.02.67.22.12.25.02.55-.22.67l-2.94,1.47c-.07.04-.15.05-.22.05Z"/>
            <path class="cls-13" d="m81.36,299.05c-.24,0-.46-.18-.49-.42-.04-.27.15-.53.42-.57l9.56-1.47c.28-.03.53.15.57.42.04.27-.15.53-.42.57l-9.56,1.47s-.05,0-.08,0Z"/>
            <path class="cls-13" d="m90.92,297.58c-.23,0-.44-.16-.49-.4-.05-.27.12-.53.39-.59l3.68-.74c.27-.05.53.12.59.39.05.27-.12.53-.39.59l-3.68.74s-.07,0-.1,0Z"/>
            <path class="cls-13" d="m73.28,301.27c-.21,0-.4-.13-.47-.34-.09-.26.05-.55.31-.63l2.2-.74c.26-.09.54.05.63.31.09.26-.05.54-.31.63l-2.2.74c-.05.02-.11.03-.16.03Z"/>
            <path class="cls-13" d="m79.16,300.53h-3.68c-.28,0-.5-.22-.5-.5s.22-.5.5-.5h3.68c.28,0,.5.22.5.5s-.22.5-.5.5Z"/>
            <path class="cls-13" d="m64.46,304.22c-.24,0-.46-.18-.49-.43-.04-.27.15-.53.42-.57l14.7-2.21c.26-.04.53.14.57.42.04.27-.14.53-.42.57l-.19.03-14.51,2.18s-.05,0-.08,0Z"/>
            <path class="cls-13" d="m79.16,300.53c-.16,0-.32-.08-.42-.22-.15-.23-.09-.54.14-.69l2.2-1.48c.23-.15.54-.09.69.14.15.23.09.54-.14.69l-2.2,1.48c-.09.06-.18.08-.28.08Z"/>
            <path class="cls-13" d="m73.28,301.27h-3.68c-.28,0-.5-.22-.5-.5s.22-.5.5-.5h3.68c.28,0,.5.22.5.5s-.22.5-.5.5Z"/>
            <path class="cls-13" d="m65.93,302.01c-.08,0-.15-.02-.22-.05l-1.47-.74c-.25-.12-.35-.42-.22-.67.12-.25.42-.35.67-.22l1.47.74c.25.12.35.42.22.67-.09.17-.26.28-.45.28Z"/>
            <path class="cls-13" d="m65.93,302.01c-.23,0-.44-.16-.49-.4-.05-.27.12-.53.39-.59l3.67-.74c.27-.05.53.12.59.39.05.27-.12.53-.39.59l-3.67.74s-.07,0-.1,0Z"/>
            <path class="cls-13" d="m79.89,306.43s-.07,0-.1,0c-.27-.05-.45-.32-.39-.59l1.47-7.38c.05-.27.32-.45.59-.39.27.05.45.32.39.59l-1.47,7.38c-.05.24-.26.4-.49.4Z"/>
            <path class="cls-13" d="m78.42,306.43s-.04,0-.06,0c-.27-.03-.47-.28-.43-.56l.74-5.9c.03-.27.29-.47.56-.43.27.03.47.29.43.56l-.74,5.9c-.03.25-.25.44-.5.44Z"/>
            <polygon class="cls-12" points="94.6 286.75 105.62 263.88 104.89 286.75 104.15 286.75 104.15 287.49 103.42 287.49 102.68 287.49 101.21 287.49 100.48 287.49 99.74 287.49 98.27 287.49 97.54 287.49 96.8 287.49 96.07 287.49 95.33 286.75 94.6 286.75"/>
            <path class="cls-13" d="m102.32,61.64c-.05,0-.11,0-.16-.03,0,0-.02,0-.03,0-12.62-2.77-25.56-4.71-38.47-5.77-.27-.02-.47-.25-.46-.52.01-.27.23-.48.5-.48,13,1.06,25.99,3.01,38.66,5.79.02,0,.03,0,.05.01.04.01.1.03.13.04.25.12.36.42.24.67-.08.18-.26.29-.45.29Z"/>
            <path class="cls-13" d="m96.8,1H31.38c-.28,0-.5-.22-.5-.5s.22-.5.5-.5h65.42c.28,0,.5.22.5.5s-.22.5-.5.5Z"/>
            <path class="cls-13" d="m96.8,5.43H31.38c-.28,0-.5-.22-.5-.5s.22-.5.5-.5h65.42c.28,0,.5.22.5.5s-.22.5-.5.5Z"/>
            <path class="cls-13" d="m21.95,9.41s-.06,0-.09,0c-.27-.05-.45-.31-.41-.58.8-4.68,4.82-8.08,9.55-8.08.28,0,.5.22.5.5s-.22.5-.5.5c-4.24,0-7.85,3.05-8.57,7.25-.04.24-.25.41-.49.41Z"/>
            <path class="cls-13" d="m21.95,13.09s-.06,0-.09,0c-.27-.05-.45-.31-.4-.58.05-.29.12-.58.19-.85,1.13-4.25,4.98-7.22,9.36-7.22.28,0,.5.22.5.5s-.22.5-.5.5c-3.93,0-7.39,2.66-8.4,6.48-.07.25-.12.5-.17.77-.04.24-.25.41-.49.41Z"/>
            <path class="cls-13" d="m107.09,19.44c-.25,0-.47-.19-.5-.45l-.73-6.64c-.03-.27.17-.52.44-.55.28-.02.52.17.55.44l.73,6.64c.03.27-.17.52-.44.55-.02,0-.04,0-.06,0Z"/>
            <path class="cls-13" d="m105.49,9.4c-.24,0-.45-.17-.49-.41-.05-.27-.09-.52-.16-.77-1.01-3.81-4.47-6.48-8.41-6.48-.28,0-.5-.22-.5-.5s.22-.5.5-.5c4.39,0,8.25,2.97,9.37,7.22.07.27.12.56.18.85.05.27-.13.53-.4.58-.03,0-.06,0-.09,0Z"/>
            <path class="cls-13" d="m105.49,13.09c-.24,0-.45-.17-.49-.42-.68-4.04-4.14-7.07-8.22-7.22-.16-.02-.26-.02-.35-.02-.28,0-.5-.22-.5-.5s.22-.5.5-.5c.15,0,.31,0,.45.03,4.48.16,8.34,3.55,9.1,8.05.05.27-.14.53-.41.58-.03,0-.06,0-.08,0Z"/>
          </g>
        </g>
      </g>
    </g>
  </g>
</svg>