<?xml version="1.0" encoding="UTF-8"?>
<svg id="Layer_1" data-name="Layer 1" xmlns="http://www.w3.org/2000/svg" viewBox="0 0 211 270.79">
  <defs>
    <style>
      .cls-1 {
        fill: #f05a29;
      }

      .cls-2 {
        fill: #65b145;
      }

      .cls-3 {
        fill: #d0d2d3;
      }

      .cls-4 {
        fill: #bbbdbf;
      }

      .cls-5 {
        fill: #221f1f;
      }
    </style>
  </defs>
  <path class="cls-3" d="m211,179.15h-24.58V62.37s1.05-17.02-12.88-30.52c-8.76-8.45-23.39-15.55-47.89-16.18-1.18-.02-2.4-.04-3.64-.04h-4.24c-1.24,0-2.47.02-3.65.04-24.5.64-39.13,7.73-47.89,16.19-13.93,13.5-12.89,30.52-12.89,30.52v116.78h-25.92v11.87h25.93s7.87,56.4,7.87,56.4c0,10.89,7.54,20.04,17.76,22.64,1.88.48,3.86.74,5.92.74h69.97c2.03,0,4-.26,5.9-.74h.02c10.2-2.59,17.73-11.75,17.73-22.64l7.89-56.4h24.6s0-11.87,0-11.87Z"/>
  <g>
    <g>
      <g>
        <g>
          <path class="cls-4" d="m36.92,179.77v-66.07c0,32.69,5.31,61.71,5.31,61.71,12.18,9.1,30.18,14.84,50.23,14.84s38.02-5.75,50.23-14.84c0,0,4.98-27.23,5.28-58.63v62.99l-7.88,57.93c0,6.53-2.58,12.41-6.73,16.73h-.02c-1.9.48-3.86.74-5.89.74H57.47c-2.05,0-4.04-.26-5.92-.74-4.17-4.33-6.73-10.21-6.73-16.73l-7.9-57.93Z"/>
          <path class="cls-1" d="m25.92,46.75s-1.05-17.02,12.89-30.52l.02.02,2.97,11.38c-5.46,10.65-4.87,20.32-4.87,20.32v131.83s7.91,57.93,7.91,57.93c0,6.53,2.55,12.41,6.73,16.73-10.22-2.59-17.76-11.75-17.76-22.64l-7.88-56.49V46.75Z"/>
          <path class="cls-5" d="m42.23,175.4s-5.31-29.02-5.31-61.71c0-22.2,2.45-46.09,10.7-63.69l14.55,3.9v89.6h.88l-20.82,31.91Z"/>
          <path class="cls-5" d="m92.46,190.25c-20.05,0-38.05-5.75-50.23-14.84l20.82-31.91h58.83l20.81,31.91c-12.21,9.1-30.18,14.84-50.23,14.84Z"/>
          <path class="cls-5" d="m62.17,53.9l-14.55-3.9s11.4-17.12,34.66-22.46l19.63-.16c23.74,5.14,35.39,22.61,35.39,22.61l-14.57,3.9h-.85s-59.71,0-59.71,0Z"/>
          <path class="cls-1" d="m38.8,16.23C47.56,7.77,62.19.68,86.69.04c1.99.04,3.91.14,5.77.25-30.79,2.15-44.53,15.35-50.67,27.33l-2.97-11.38-.02-.02Z"/>
          <path class="cls-2" d="m92.46.29c-1.86-.11-3.78-.21-5.77-.25,1.18-.02,2.41-.04,3.65-.04h4.24c1.25,0,2.47.02,3.64.04-1.98.03-3.91.13-5.76.25Z"/>
          <path class="cls-1" d="m143.13,27.64C136.98,15.66,123.25,2.44,92.46.29c1.86-.12,3.78-.22,5.76-.25,24.51.64,39.14,7.73,47.89,16.18l-.02.02-2.97,11.39Z"/>
          <path class="cls-1" d="m133.36,254.43c4.15-4.32,6.73-10.21,6.73-16.73l7.88-57.93v-62.99c.02-2.4.02-4.81,0-7.25v-61.59s.59-9.66-4.85-20.3l2.97-11.39.02-.02c13.94,13.5,12.88,30.52,12.88,30.52v128.56l-7.91,56.49c0,10.89-7.54,20.04-17.73,22.64Z"/>
          <path class="cls-5" d="m142.69,175.4l-20.81-31.91V53.9h.85s14.57-3.9,14.57-3.9c7.73,16.5,10.37,38.55,10.68,59.53v7.25c-.31,31.4-5.28,58.63-5.28,58.63Z"/>
          <path class="cls-2" d="m147.97,116.77v-7.25c.02,2.43.02,4.85,0,7.25Z"/>
        </g>
        <path class="cls-4" d="m61.79,141.55h61.35s22.37,34.29,22.37,34.29l-1.42,1.05c-13.05,9.72-31.86,15.3-51.63,15.3-19.79,0-38.61-5.58-51.63-15.3l-1.41-1.05,22.37-34.29Zm58.84,3.89h-56.32l-19.24,29.49c12.18,8.51,29.34,13.36,47.4,13.36,18.04,0,35.2-4.85,47.4-13.36l-19.24-29.49Z"/>
      </g>
      <polygon class="cls-1" points="30.51 163.53 0 163.53 0 175.4 32.32 175.4 30.51 163.53"/>
      <polygon class="cls-1" points="153.07 163.53 183.58 163.53 183.58 175.4 151.26 175.4 153.07 163.53"/>
    </g>
    <path class="cls-4" d="m143.13,27.64C136.98,15.66,123.25,2.44,92.46.29c-30.79,2.15-44.53,15.35-50.67,27.33-5.46,10.65-4.87,20.32-4.87,20.32v65.76c0-22.2,2.45-46.09,10.7-63.69,0,0,1.25-1.86,3.73-4.53l10.82,9.65v88.38h60.56s0-87.47,0-87.47l11.29-10.07c2.18,2.41,3.28,4.05,3.28,4.05,7.73,16.5,10.37,38.55,10.68,59.53v-61.59s.59-9.66-4.85-20.3Zm-25.7,24.31h-48.94l-12.39-11.05c5.76-4.98,14.46-10.66,26.19-13.35l19.63-.16c12.45,2.7,21.54,8.77,27.4,13.95l-11.89,10.61Z"/>
  </g>
</svg>