<?xml version="1.0" encoding="UTF-8"?>
<svg id="Layer_1" data-name="Layer 1" xmlns="http://www.w3.org/2000/svg" viewBox="0 0 89.68 164.36">
  <defs>
    <style>
      .cls-1 {
        fill: #659846;
      }

      .cls-2 {
        fill: #545456;
      }

      .cls-3 {
        fill: #fdcf72;
      }

      .cls-4 {
        fill: #d0d2d3;
      }

      .cls-5 {
        fill: #e9883a;
      }

      .cls-6 {
        fill: #24b24b;
      }

      .cls-7 {
        fill: #231f20;
      }
    </style>
  </defs>
  <path class="cls-4" d="m81.86,106.65l3.42-35.64c.08.01.13.13.21.13,1.96,0,3.81-4.73,4.14-10.66.29-5.15-.7-9.32-2.24-10.48l.34-3.55c.11-1.19.17-2.37.18-3.54v-.14c1.94-20.13-11.46-38.18-29.97-38.18h-14.58c-18.51,0-31.94,18.05-30.03,38.18v.13c.02,1.17.07,2.36.19,3.55l.31,3.31c-1.76.7-2.92,5.16-2.62,10.72.33,5.93,2.18,10.66,4.13,10.66.17,0,.32-.22.48-.3l3.52,37.19c.05-.11.07-.23.12-.35l.39,4.1c-1.24,1.27-2.01,4.6-1.82,8.58.24,4.75,1.76,8.48,3.46,8.81l.85,8.94c-.28-.16-.52-.34-.82-.49-3.3-1.7-6.52-2.31-7.15-1.34-.62.95,1.55,3.07,4.79,4.71,1.27.65,2.49,1.07,3.58,1.36l.41,4.37c.49,5.19,3.53,9.72,7.95,12.91-.05-.02-.1-.03-.15-.06.5.37,1.08.66,1.61.99.5.31.97.65,1.5.92.7.37,1.46.64,2.21.95.49.2.96.44,1.47.61.88.29,1.8.48,2.72.67.43.09.84.24,1.28.31,1.38.22,2.79.34,4.22.34h9.17c11.63,0,21.89-7.66,22.84-17.63l.44-4.6c.88-.29,1.8-.64,2.76-1.13,3.24-1.64,5.41-3.76,4.79-4.71-.62-.96-3.83-.36-7.11,1.33l.83-8.63c1.54-.78,2.88-4.22,3.1-8.61.18-3.62-.45-6.71-1.49-8.21l.54-5.63s.02.08.04.12Zm5.41-56.73s-.02-.01-.02-.02l.28-2.94-.27,2.82s0,.09.01.14Z"/>
  <g>
    <path class="cls-7" d="m.05,55.89c.33,5.93,2.17,10.66,4.13,10.66s3.33-4.73,3.06-10.66c-.27-6.03-2.13-10.99-4.15-10.99S-.28,49.86.05,55.89Z"/>
    <path class="cls-7" d="m6.87,115.78c.25,4.97,1.9,8.94,3.69,8.94s3.09-3.97,2.89-8.94c-.2-5.04-1.86-9.19-3.7-9.19s-3.13,4.15-2.88,9.19Z"/>
    <path class="cls-7" d="m78.48,55.89c-.33,5.93-2.18,10.66-4.14,10.66s-3.33-4.73-3.06-10.66c.28-6.03,2.14-10.99,4.16-10.99s3.38,4.96,3.04,10.99Z"/>
    <path class="cls-7" d="m71.61,115.78c-.25,4.97-1.9,8.94-3.7,8.94s-3.09-3.97-2.89-8.94c.2-5.04,1.87-9.19,3.71-9.19s3.13,4.15,2.87,9.19Z"/>
    <path class="cls-3" d="m76.37,42.37l-9.56,99.76c-.96,9.97-11.21,17.63-22.84,17.63h-9.17c-11.63,0-21.88-7.66-22.82-17.63L2.56,42.37c.98-17.09,13.38-31.26,29.74-31.26h14.37c16.36,0,28.74,14.18,29.7,31.26Z"/>
    <path class="cls-5" d="m3.22,50.98l4.96,52.47c2.39-5.69,3.98-11.54,4.87-17.45-2.47-13.74-6.47-26.13-9.83-35.02Z"/>
    <g>
      <g>
        <path class="cls-5" d="m46.79,0c18.51,0,31.91,18.05,29.98,38.18l-.4,4.2c-.96-17.09-13.34-31.26-29.7-31.26h-14.37C15.94,11.11,3.54,25.29,2.56,42.37l-.39-4.2C.26,18.05,13.69,0,32.2,0h14.58Z"/>
        <path class="cls-6" d="m67.33,43c-.03.06-.06.11-.11.17v-.02s.08-.11.11-.16Z"/>
        <path class="cls-7" d="m67.22,43.16v.02c-9.64,14.85-44.83,14.85-54.42,0v-.02c.12-13,12.1-23.72,27.25-23.72s27.09,10.72,27.17,23.72Z"/>
        <path class="cls-6" d="m12.8,43.16v.02c-.05-.06-.08-.11-.11-.17.03.05.06.11.11.16Z"/>
      </g>
      <g>
        <path class="cls-1" d="m2.18,38.31c0,1.18.06,2.36.18,3.56l.39,4.15c.02-.28.06-.55.08-.82l-.27-2.82-.38-4.07Z"/>
        <path class="cls-1" d="m76.37,42.37l-.27,2.82c.02.28.07.54.08.82l.39-4.15c.11-1.19.17-2.38.18-3.56l-.38,4.07Z"/>
        <path class="cls-3" d="m32.24,4.08h14.51c17.28,0,30.12,15.77,30.01,34.22v-.13C78.7,18.05,65.3,0,46.79,0h-14.58C13.69,0,.26,18.05,2.17,38.18v.13c-.07-18.45,12.79-34.22,30.07-34.22Z"/>
      </g>
    </g>
    <path class="cls-5" d="m62.05,15.9c6.23,5.84,10.22,14.34,10.79,23.72l-9.09,100.47c-.91,10.04-11.16,17.75-22.83,17.75h-9.2c-4.31,0-8.41-1.05-11.93-2.86,4.07,2.98,9.36,4.78,15.02,4.78h9.17c11.63,0,21.89-7.66,22.84-17.63l9.56-99.76c-.62-11.06-6.05-20.88-14.33-26.48Z"/>
    <path class="cls-7" d="m67.22,43.17c.05-.06.08-.11.11-.17l-3.23,81.93s-.05-.07-.07-.11h0c-7.62-12.51-6.18-66.36,3.19-81.65Z"/>
    <path class="cls-7" d="m12.8,43.17c9.33,15.29,10.63,69.14,2.97,81.64-.02-.21-.03-.42-.04-.63l-.09-.6-2.95-80.58c.03.06.06.11.11.17Z"/>
    <path class="cls-7" d="m64.03,124.81h0c-.81,9.95-11.45,17.68-24.15,17.68s-23.33-7.73-24.11-17.67c7.87-12.19,40.4-12.19,48.26-.01Z"/>
    <path class="cls-2" d="m18.01,131.67c3.87,6.42,12.25,10.82,21.86,10.82s17.99-4.41,21.88-10.82c-9.39-8.82-34.34-8.82-43.74,0Z"/>
    <path class="cls-3" d="m70.02,136.4c-3.2,1.62-6.3,2.2-6.98,1.31-.68-.91,1.36-3,4.62-4.68,3.3-1.7,6.52-2.31,7.15-1.34.62.95-1.54,3.07-4.79,4.71Z"/>
    <path class="cls-3" d="m7.99,136.4c3.2,1.62,6.3,2.2,6.98,1.31.68-.91-1.36-3-4.62-4.68-3.3-1.7-6.52-2.31-7.15-1.34-.62.95,1.55,3.07,4.79,4.71Z"/>
    <path class="cls-5" d="m75.74,49.59l-5.03,52.47c-2.39-5.69-3.96-11.54-4.85-17.45,2.48-13.74,6.5-26.13,9.88-35.02Z"/>
  </g>
</svg>