<?xml version="1.0" encoding="UTF-8"?>
<svg id="Layer_1" data-name="Layer 1" xmlns="http://www.w3.org/2000/svg" viewBox="0 0 190.5 492.96">
  <defs>
    <style>
      .cls-1 {
        fill: #cfd0d2;
      }

      .cls-2 {
        fill: #fff;
      }

      .cls-3 {
        opacity: .29;
      }

      .cls-4 {
        fill: #aeafb2;
      }

      .cls-5 {
        fill: #d7d8da;
      }

      .cls-6 {
        fill: #bbbdbf;
      }

      .cls-7 {
        fill: #8ca03b;
      }

      .cls-8 {
        fill: #a5a7aa;
      }

      .cls-9 {
        fill: #221f1f;
      }

      .cls-10 {
        fill: #707376;
      }

      .cls-11 {
        fill: #e6e7e8;
      }

      .cls-12 {
        fill: #d9d8d7;
      }
    </style>
  </defs>
  <path class="cls-11" d="m189.83,399.81c-1.11-1.7-3.36-2.69-5.68-2.69-.95,0-1.92.17-2.83.51l-4.66,1.78v-23.86c0-2.2-.54-4.3-1.53-6.25h-5.8c-.03-1.85-.5-3.63-1.34-5.28h3.19c6.36,0,11.58-3.98,11.58-8.86v-101.98s0-30.96,0-30.96c0-1.59-.7-3-1.67-4.29.97-.97,1.68-2.03,1.68-3.22v-76.25s0-23.15,0-23.15c0-.9-.33-1.75-.9-2.53.57-.78.9-1.64.9-2.53V34s0-23.15,0-23.15c0-3.64-5.21-6.61-11.57-6.61l-3.21-4.24H62.39l-3.25,4.29c-6.13.16-11.07,3.02-11.07,6.56v99.4c0,.9.33,1.76.9,2.54-.57.78-.9,1.63-.9,2.52v99.4c0,1.19.71,2.26,1.69,3.23-.97,1.28-1.69,2.69-1.69,4.28v132.95c0,4.88,5.2,8.86,11.58,8.86h3.17c-.84,1.65-1.3,3.43-1.34,5.28h-5.79c-.99,1.95-1.53,4.06-1.54,6.25v24.18l-5.49-2.1c-.91-.34-1.88-.51-2.84-.51-2.33,0-4.57.98-5.68,2.69-1.57,2.4-.3,5.31,2.84,6.51l11.17,4.27v14.98s.49,4.61.49,4.61v46.26c0,9.01,11.41,16.39,25.37,16.4h1.63c.52.03,1.03.12,1.56.12h64.43c.53,0,1.03-.09,1.56-.12h1.44c13.95,0,25.37-7.38,25.37-16.4v-44.5l.68-6.37v-15.3s10.33-3.95,10.33-3.95c3.13-1.2,4.41-4.12,2.84-6.51Z"/>
  <g>
    <rect class="cls-6" x="39.75" y="86.93" width="6.13" height="221.6"/>
    <rect class="cls-6" x="121.49" y="86.93" width="6.13" height="221.6"/>
    <g>
      <g>
        <polygon class="cls-9" points="64.23 241.17 104.06 241.17 151.03 241.17 142.81 229.81 104.06 229.81 64.23 229.81 25.48 229.81 17.27 241.17 64.23 241.17"/>
        <path class="cls-9" d="m160.79,394.67c2.59,0,5.08.86,6.32,2.34,1.74,2.09.33,4.62-3.15,5.67l-23.51,7.04c-3.49,1.04-7.72.2-9.46-1.89-1.74-2.09-.33-4.63,3.16-5.67l23.51-7.04c1.01-.3,2.09-.45,3.15-.45Z"/>
        <g>
          <g>
            <path class="cls-9" d="m7.06,394.67c-2.59,0-5.08.86-6.31,2.34-1.74,2.09-.33,4.62,3.15,5.67l23.51,7.04c3.49,1.04,7.72.2,9.46-1.89,1.74-2.09.33-4.63-3.16-5.67l-23.51-7.04c-1.01-.3-2.09-.45-3.15-.45Z"/>
            <path class="cls-2" d="m17.27,272.06v-29.61c0-1.67,2.36-3.08,5.15-3.08h123.95c2.79,0,5.14,1.41,5.14,3.08v29.62l-8.7,3.01v38.02l8.7,3v42.05c0,1.67-2.35,3.08-5.14,3.08h-8.59c-4.03-2.4-9.56-3.89-15.66-3.89H46.67c-6.09,0-11.64,1.49-15.66,3.89h-8.59c-2.79,0-5.15-1.41-5.15-3.08v-42.05l8.7-3.01v-38.02l-8.7-3.01Z"/>
            <polygon class="cls-7" points="17.27 316.11 17.27 272.06 25.96 275.07 25.96 313.09 17.27 316.11"/>
            <path class="cls-8" d="m24.44,408.99v-38.34c0-1.68.53-3.3,1.5-4.79h116.88c.97,1.49,1.5,3.11,1.5,4.79v38.34s-5.23,38.38-5.23,38.38c-1,7.29-11.43,13.27-23.18,13.27h-63.05c-11.75,0-22.19-5.97-23.18-13.27l-5.25-38.38Zm18.74-17.42c-2.49,1.71-2.52,3.73-2.41,4.5v16.55l1.55.84c10.61,5.81,26.43,9.15,43.33,9.15h1.57c16.93,0,32.73-3.33,43.35-9.14l1.56-.85v-16.55c.09-.77.06-2.79-2.43-4.5-1.42-.97-4.14-2.13-8.94-2.13H52.13c-4.81,0-7.52,1.16-8.95,2.13Z"/>
            <path class="cls-8" d="m16.32,419.43v-43.54c0-1.91.6-3.74,1.7-5.44h132.74c1.1,1.7,1.71,3.53,1.7,5.44v43.54s-5.94,43.58-5.94,43.58c-1.14,8.28-12.98,15.07-26.33,15.07H48.6c-13.35,0-25.21-6.78-26.33-15.07l-5.96-43.58Zm21.28-19.78c-2.83,1.94-2.87,4.23-2.74,5.11v18.8l1.76.96c12.05,6.6,30.01,10.38,49.21,10.38h1.78c19.22,0,37.17-3.79,49.23-10.38l1.76-.96v-18.8c.1-.87.07-3.17-2.76-5.11-1.62-1.1-4.7-2.42-10.16-2.42H47.76c-5.46,0-8.54,1.33-10.16,2.42Z"/>
            <path class="cls-10" d="m16.86,463.7v-41.12l6.66,41.16c1.25,7.82,14.49,14.23,29.41,14.23h-7.88c-15.51,0-28.19-6.43-28.19-14.27Z"/>
            <path class="cls-10" d="m151.71,463.7v-41.12l-6.65,41.16c-1.25,7.82-14.5,14.23-29.41,14.23h7.88c15.51,0,28.19-6.43,28.19-14.27Z"/>
            <path class="cls-12" d="m137.78,361.23H31.01c4.01-2.39,9.56-3.89,15.66-3.89h75.46c6.1,0,11.63,1.49,15.66,3.89Z"/>
            <path class="cls-9" d="m46.08,396.06c-.04-.32-.07-1.43,1.12-2.3,1-.74,2.71-1.12,4.94-1.12h68.61c2.23,0,3.94.38,4.94,1.13,1.19.87,1.16,1.98,1.13,2.3l-.02.13v16.37c-9.66,5.6-24.06,8.81-39.57,8.81h-1.57c-15.5,0-29.9-3.21-39.56-8.81v-16.37s-.02-.13-.02-.13Z"/>
            <path class="cls-4" d="m46.1,412.55c9.66,5.6,24.06,8.81,39.56,8.81h1.57c15.51,0,29.91-3.21,39.57-8.81v-16.37s.02-.13.02-.13c.03-.32.06-1.43-1.13-2.3-1-.74-2.71-1.13-4.94-1.13H52.14c-2.23,0-3.93.38-4.94,1.12-1.19.87-1.16,1.98-1.12,2.3l.02.13v16.37Zm-3.78.91l-1.55-.84v-16.55c-.11-.77-.08-2.79,2.41-4.5,1.43-.97,4.14-2.13,8.95-2.13h68.61c4.81,0,7.52,1.16,8.94,2.13,2.5,1.71,2.52,3.73,2.43,4.5v16.55l-1.56.85c-10.62,5.81-26.42,9.14-43.35,9.14h-1.57c-16.91,0-32.72-3.33-43.33-9.15Z"/>
            <path class="cls-5" d="m22.42,365.86h123.95c7.07,0,12.87-3.46,12.87-7.71v-88.76s0-26.95,0-26.95c0-4.24-5.8-7.7-12.87-7.7H22.42c-7.08,0-12.86,3.47-12.86,7.7v115.71c0,4.24,5.78,7.71,12.86,7.71Zm-5.15-49.76v-73.66c0-1.67,2.36-3.08,5.15-3.08h123.95c2.79,0,5.14,1.41,5.14,3.08v115.71c0,1.67-2.35,3.08-5.14,3.08h-8.59s-106.78,0-106.78,0h-8.59c-2.79,0-5.15-1.41-5.15-3.08v-42.05Z"/>
          </g>
          <path class="cls-3" d="m52.13,392.16h68.61c2.48,0,4.4.45,5.54,1.3,1.31.97,1.35,2.16,1.3,2.62v.14s-.01,16.53-.01,16.53l-.24.14c-9.8,5.68-24.43,8.94-40.12,8.94h-1.57c-15.69,0-30.3-3.26-40.1-8.94l-.24-.14v-16.66c-.05-.25-.17-1.57,1.28-2.63,1.14-.85,3.06-1.3,5.54-1.3Zm73.88,20.19v-16.33c.04-.28.06-1.24-.94-1.97-.85-.62-2.34-.95-4.33-.95H52.13c-1.99,0-3.49.33-4.33.95-1.08.79-.96,1.85-.94,1.96v.14s.02,16.2.02,16.2c9.51,5.43,23.62,8.54,38.77,8.54h1.57c15.16,0,29.28-3.11,38.79-8.54Z"/>
        </g>
      </g>
      <rect class="cls-1" x="32.9" y="245.42" width="105.24" height="1.84"/>
      <rect class="cls-1" x="32.9" y="254.29" width="105.24" height="1.84"/>
      <rect class="cls-1" x="32.9" y="263.17" width="105.24" height="1.84"/>
      <rect class="cls-1" x="32.9" y="272.05" width="105.24" height="1.84"/>
      <rect class="cls-1" x="32.9" y="280.92" width="105.24" height="1.84"/>
      <rect class="cls-1" x="32.9" y="289.8" width="105.24" height="1.84"/>
      <rect class="cls-1" x="32.9" y="298.67" width="105.24" height="1.84"/>
      <rect class="cls-1" x="32.9" y="307.55" width="105.24" height="1.84"/>
      <rect class="cls-1" x="32.9" y="316.42" width="105.24" height="1.84"/>
      <rect class="cls-1" x="32.9" y="325.3" width="105.24" height="1.84"/>
      <rect class="cls-1" x="32.9" y="334.18" width="105.24" height="1.83"/>
      <rect class="cls-1" x="32.9" y="343.06" width="105.24" height="1.83"/>
      <rect class="cls-1" x="32.9" y="351.93" width="105.24" height="1.83"/>
      <polygon class="cls-9" points="151.51 272.07 142.81 275.07 142.81 313.09 151.51 316.1 159.24 318.77 159.24 269.39 151.51 272.07"/>
      <polygon class="cls-9" points="17.27 272.06 25.96 275.07 25.96 313.09 17.27 316.11 9.56 318.77 9.56 269.39 17.27 272.06"/>
      <path class="cls-8" d="m137.78,361.23h8.59c2.79,0,5.14-1.41,5.14-3.08v-42.05s-8.7-3-8.7-3v-38.02l8.7-3.01v-29.62c0-1.67-2.35-3.08-5.14-3.08h-19.55s0,118.29,0,118.29c4.22.55,8,1.82,10.96,3.58Z"/>
      <path class="cls-8" d="m30.86,361.23h-8.59c-2.79,0-5.14-1.41-5.14-3.08v-42.05l8.7-3v-38.02l-8.7-3.01v-29.62c0-1.67,2.35-3.08,5.14-3.08h19.55v118.29c-4.22.55-8,1.82-10.97,3.58Z"/>
      <path class="cls-10" d="m142.83,365.86H25.95c-.93,1.43-1.45,2.98-1.49,4.59h119.86c-.04-1.61-.55-3.16-1.49-4.59Z"/>
    </g>
    <g>
      <polygon class="cls-9" points="64.23 124.8 104.06 124.8 151.03 124.8 142.81 116.31 104.06 116.31 64.23 116.31 25.48 116.31 17.27 124.8 64.23 124.8"/>
      <path class="cls-2" d="m17.27,147.9v-22.14c0-1.25,2.36-2.3,5.15-2.3h123.95c2.79,0,5.14,1.05,5.14,2.3v22.15l-8.7,2.25v28.42l8.7,2.25v31.44c0,1.25-2.35,2.31-5.14,2.31h-8.59c-4.03-1.79-9.56-2.91-15.66-2.91H46.67c-6.09,0-11.64,1.11-15.66,2.91h-8.59c-2.79,0-5.15-1.06-5.15-2.31v-31.44l8.7-2.25v-28.42l-8.7-2.25Z"/>
      <polygon class="cls-7" points="17.27 180.83 17.27 147.9 25.96 150.15 25.96 178.58 17.27 180.83"/>
      <path class="cls-12" d="m137.78,214.57H31.01c4.01-1.79,9.56-2.91,15.66-2.91h75.46c6.1,0,11.63,1.11,15.66,2.91Z"/>
      <path class="cls-5" d="m22.42,218.03h123.95c7.07,0,12.87-2.59,12.87-5.76v-66.36s0-20.15,0-20.15c0-3.17-5.8-5.76-12.87-5.76H22.42c-7.08,0-12.86,2.59-12.86,5.76v86.51c0,3.17,5.78,5.76,12.86,5.76Zm-5.15-37.2v-55.07c0-1.25,2.36-2.3,5.15-2.3h123.95c2.79,0,5.14,1.05,5.14,2.3v86.51c0,1.25-2.35,2.31-5.14,2.31H22.42c-2.79,0-5.15-1.06-5.15-2.31v-31.44Z"/>
      <rect class="cls-1" x="32.9" y="127.75" width="105.24" height="1.84"/>
      <rect class="cls-1" x="32.9" y="134.39" width="105.24" height="1.84"/>
      <rect class="cls-1" x="32.9" y="141.02" width="105.24" height="1.84"/>
      <rect class="cls-1" x="32.9" y="147.66" width="105.24" height="1.84"/>
      <rect class="cls-1" x="32.9" y="154.29" width="105.24" height="1.84"/>
      <rect class="cls-1" x="32.9" y="160.93" width="105.24" height="1.84"/>
      <rect class="cls-1" x="32.9" y="167.56" width="105.24" height="1.84"/>
      <rect class="cls-1" x="32.9" y="174.2" width="105.24" height="1.84"/>
      <rect class="cls-1" x="32.9" y="180.84" width="105.24" height="1.84"/>
      <rect class="cls-1" x="32.9" y="187.47" width="105.24" height="1.84"/>
      <rect class="cls-1" x="32.9" y="194.11" width="105.24" height="1.84"/>
      <rect class="cls-1" x="32.9" y="200.74" width="105.24" height="1.84"/>
      <rect class="cls-1" x="32.9" y="207.38" width="105.24" height="1.84"/>
      <polygon class="cls-9" points="151.51 147.91 142.81 150.15 142.81 178.58 151.51 180.82 159.24 182.83 159.24 145.91 151.51 147.91"/>
      <polygon class="cls-9" points="17.27 147.9 25.96 150.15 25.96 178.58 17.27 180.83 9.56 182.83 9.56 145.91 17.27 147.9"/>
      <path class="cls-8" d="m137.78,214.57h8.59c2.79,0,5.14-1.06,5.14-2.31v-31.44s-8.7-2.25-8.7-2.25v-28.42l8.7-2.25v-22.15c0-1.25-2.35-2.3-5.14-2.3h-19.55s0,88.44,0,88.44c4.22.41,8,1.36,10.96,2.68Z"/>
      <path class="cls-8" d="m30.86,214.57h-8.59c-2.79,0-5.14-1.06-5.14-2.3v-31.44l8.7-2.25v-28.42l-8.7-2.25v-22.15c0-1.25,2.35-2.3,5.14-2.3h19.55v88.44c-4.22.41-8,1.36-10.97,2.68Z"/>
    </g>
    <g>
      <polygon class="cls-9" points="64.23 14.62 104.06 14.62 151.03 14.62 142.81 6.13 104.06 6.13 64.23 6.13 25.48 6.13 17.27 14.62 64.23 14.62"/>
      <path class="cls-2" d="m17.27,37.71V15.57c0-1.25,2.36-2.3,5.15-2.3h123.95c2.79,0,5.14,1.05,5.14,2.3v22.15l-8.7,2.25v28.42l8.7,2.25v31.44c0,1.25-2.35,2.3-5.14,2.3h-8.59c-4.03-1.79-9.56-2.91-15.66-2.91H46.67c-6.09,0-11.64,1.12-15.66,2.91h-8.59c-2.79,0-5.15-1.05-5.15-2.3v-31.44l8.7-2.25v-28.42l-8.7-2.26Z"/>
      <polygon class="cls-7" points="17.27 70.65 17.27 37.71 25.96 39.97 25.96 68.39 17.27 70.65"/>
      <path class="cls-12" d="m137.78,104.39H31.01c4.01-1.79,9.56-2.91,15.66-2.91h75.46c6.1,0,11.63,1.12,15.66,2.91Z"/>
      <path class="cls-5" d="m22.42,107.85h123.95c7.07,0,12.87-2.59,12.87-5.76V35.72s0-20.15,0-20.15c0-3.17-5.8-5.76-12.87-5.76H22.42c-7.08,0-12.86,2.59-12.86,5.76v86.51c0,3.17,5.78,5.76,12.86,5.76Zm-5.15-37.2V15.57c0-1.25,2.36-2.3,5.15-2.3h123.95c2.79,0,5.14,1.05,5.14,2.3v86.51c0,1.25-2.35,2.3-5.14,2.3H22.42c-2.79,0-5.15-1.05-5.15-2.3v-31.44Z"/>
      <rect class="cls-1" x="32.9" y="17.56" width="105.24" height="1.84"/>
      <rect class="cls-1" x="32.9" y="24.2" width="105.24" height="1.84"/>
      <rect class="cls-1" x="32.9" y="30.84" width="105.24" height="1.84"/>
      <rect class="cls-1" x="32.9" y="37.47" width="105.24" height="1.84"/>
      <rect class="cls-1" x="32.9" y="44.11" width="105.24" height="1.84"/>
      <rect class="cls-1" x="32.9" y="50.75" width="105.24" height="1.84"/>
      <rect class="cls-1" x="32.9" y="57.38" width="105.24" height="1.84"/>
      <rect class="cls-1" x="32.9" y="64.01" width="105.24" height="1.84"/>
      <rect class="cls-1" x="32.9" y="70.65" width="105.24" height="1.84"/>
      <rect class="cls-1" x="32.9" y="77.29" width="105.24" height="1.84"/>
      <rect class="cls-1" x="32.9" y="83.92" width="105.24" height="1.84"/>
      <rect class="cls-1" x="32.9" y="90.56" width="105.24" height="1.84"/>
      <rect class="cls-1" x="32.9" y="97.2" width="105.24" height="1.84"/>
      <polygon class="cls-9" points="151.51 37.72 142.81 39.97 142.81 68.39 151.51 70.64 159.24 72.64 159.24 35.72 151.51 37.72"/>
      <polygon class="cls-9" points="17.27 37.71 25.96 39.97 25.96 68.39 17.27 70.65 9.56 72.64 9.56 35.72 17.27 37.71"/>
      <path class="cls-8" d="m137.78,104.39h8.59c2.79,0,5.14-1.05,5.14-2.3v-31.44s-8.7-2.25-8.7-2.25v-28.42l8.7-2.25V15.57c0-1.25-2.35-2.3-5.14-2.3h-19.55s0,88.44,0,88.44c4.22.41,8,1.36,10.96,2.68Z"/>
      <path class="cls-8" d="m30.86,104.39h-8.59c-2.79,0-5.14-1.05-5.14-2.3v-31.44l8.7-2.25v-28.42l-8.7-2.25V15.57c0-1.25,2.35-2.3,5.14-2.3h19.55v88.44c-4.22.41-8,1.36-10.97,2.68Z"/>
    </g>
  </g>
</svg>