<?xml version="1.0" encoding="UTF-8"?>
<svg id="Layer_1" data-name="Layer 1" xmlns="http://www.w3.org/2000/svg" viewBox="0 0 85.01 215.85">
  <defs>
    <style>
      .cls-1 {
        fill: #8dccc3;
      }

      .cls-2 {
        fill: #00374b;
      }

      .cls-3 {
        opacity: .29;
      }

      .cls-4 {
        fill: #d0d2d3;
      }

      .cls-5 {
        fill: #567b76;
      }

      .cls-6 {
        fill: #8ca03b;
      }

      .cls-7 {
        fill: #d0d1d2;
      }

      .cls-8 {
        fill: #6d9a93;
      }

      .cls-9 {
        fill: #d9d8d7;
      }
    </style>
  </defs>
  <path class="cls-4" d="m84.77,161c-.48-1.41-1.58-2.22-2.77-2.22-.49,0-.99.14-1.47.43l-6.3,3.77,1.26-27.96c.08-1.73-.1-3.4-.5-4.96h-3.13c.4-.83.7-1.73.76-2.75l1.8-32.01,2.63-46.94,1.66-29.55c.28-4.93-2.01-9.03-5.08-9.04l-1.29-5.94h-17.02s-17.49,0-17.49,0h-17.02s-1.31,6.02-1.31,6.02c-2.95.22-5.12,4.16-4.85,8.96l1.64,29.55,2.6,46.94,1.77,32.01c.06,1.02.36,1.92.76,2.75h-2.8c-.4,1.56-.58,3.23-.51,4.96l1.25,28.23-6.74-4.03c-.48-.29-.99-.43-1.47-.43-1.19,0-2.29.81-2.77,2.22-.68,1.97.12,4.35,1.77,5.32l9.61,5.67v.15s1.47,33.07,1.47,33.07c.26,5.9,4.66,10.65,9.77,10.65h31.58c5.12,0,9.51-4.75,9.77-10.65l1.49-33.07.02-.4,9.18-5.42c1.65-.97,2.44-3.35,1.77-5.32Z"/>
  <g>
    <g>
      <polygon class="cls-5" points="29.89 13.5 46.98 13.5 67.14 13.5 64.21 0 47.18 0 29.69 0 12.67 0 9.73 13.5 29.89 13.5"/>
      <g>
        <g>
          <path class="cls-8" d="m11.41,47.29l-1.6-32.31c-.1-1.94.84-3.58,2.04-3.58h53.39c1.2,0,2.13,1.64,2.03,3.58l-1.63,32.32-3.65,3.08-1.58,36.11,3.13,2.65-1.73,34.35c-.06,1.27-.93,2.33-1.89,2.33h-2.97c-1.32-1.81-3.21-2.95-5.32-2.95h-26.24c-2.12,0-4.01,1.14-5.33,2.95h-2.97c-.96,0-1.83-1.06-1.9-2.33l-1.71-34.34,3.13-2.66-1.56-36.11-3.65-3.09Z"/>
          <polygon class="cls-6" points="13.49 89.14 11.41 47.29 15.06 50.37 16.62 86.48 13.49 89.14"/>
          <path class="cls-9" d="m56.95,125.81H20.06c1.32-1.81,3.21-2.95,5.33-2.95h26.24c2.12,0,4,1.14,5.32,2.95Z"/>
          <polygon class="cls-6" points="60.41 86.48 62 50.37 65.65 47.3 63.54 89.13 60.41 86.48"/>
          <path class="cls-1" d="m17.25,129.26h42.5c2.42,0,4.56-2.58,4.74-5.79l1.8-32.01,2.63-46.94,1.66-29.55c.28-4.94-2.01-9.04-5.09-9.04H11.6c-3.08,0-5.37,4.1-5.09,9.04l1.64,29.55,2.6,46.94,1.77,32.01c.18,3.21,2.3,5.79,4.73,5.79Zm-3.76-40.13l-2.08-41.85-1.6-32.31c-.1-1.94.84-3.58,2.04-3.58h53.39c1.2,0,2.13,1.64,2.03,3.58l-1.63,32.32-2.11,41.83-1.73,34.35c-.06,1.27-.93,2.33-1.89,2.33H17.1c-.96,0-1.83-1.06-1.9-2.33l-1.71-34.34Z"/>
        </g>
        <g>
          <polygon class="cls-9" points="65.65 47.3 62 50.37 60.41 86.48 63.54 89.13 66.29 91.47 68.92 44.53 65.65 47.3"/>
          <polygon class="cls-9" points="11.41 47.29 15.06 50.37 16.62 86.48 13.49 89.14 10.75 91.47 8.15 44.53 11.41 47.29"/>
        </g>
      </g>
      <path class="cls-5" d="m56.95,125.81h2.97c.96,0,1.83-1.06,1.89-2.33l1.73-34.35-3.13-2.65,1.58-36.11,3.65-3.08,1.63-32.32c.1-1.94-.83-3.58-2.03-3.58h-8.42l-3.57,111.7c1.45.42,2.73,1.38,3.7,2.71Z"/>
      <path class="cls-5" d="m20.54,125.81h-2.97c-.96,0-1.83-1.06-1.89-2.33l-1.67-34.35,3.13-2.65-1.52-36.11-3.64-3.08-1.57-32.32c-.09-1.94.84-3.58,2.04-3.58h8.42l3.38,111.7c-1.45.42-2.73,1.38-3.7,2.71Z"/>
    </g>
    <path class="cls-2" d="m73.89,154.95c1.19,0,2.29.81,2.77,2.22.68,1.97-.12,4.35-1.77,5.32l-10.98,6.48c-1.61.95-3.49.18-4.2-1.72-.72-1.92,0-4.27,1.62-5.24l11.08-6.63c.48-.29.99-.42,1.47-.43Z"/>
    <path class="cls-2" d="m3.01,154.96c-1.19,0-2.29.81-2.77,2.22-.68,1.97.12,4.35,1.77,5.32l10.98,6.48c1.61.95,3.49.18,4.2-1.72.72-1.92,0-4.27-1.62-5.24l-11.08-6.63c-.48-.29-.99-.43-1.47-.43Z"/>
    <path class="cls-1" d="m11.62,168.31l-1.65-37.12c-.08-1.73.11-3.4.51-4.96h56.39c.4,1.56.58,3.23.5,4.96l-1.67,37.12-3.72,33.1c-.66,5.89-5.22,10.62-10.14,10.62h-26.39c-4.92,0-9.47-4.73-10.13-10.62l-3.71-33.1Zm7.96-16.32c-1.1,1.64-1.05,3.57-.98,4.3l.46,14.18.04,1.14.72.76c4.87,5.19,11.93,8.12,19.41,8.12h.69c7.48,0,14.54-2.93,19.44-8.12l.72-.76.04-1.14.51-14.18c.07-.73.12-2.66-.97-4.3-.63-.93-1.85-2.06-4.09-2.06h-16.8s-15.09,0-15.09,0c-2.24,0-3.46,1.13-4.1,2.06Z"/>
    <path class="cls-8" d="m13.09,201.38l-1.47-33.07,3.71,33.1c.65,5.89,5.21,10.62,10.13,10.62h-2.6c-5.12,0-9.51-4.74-9.77-10.65Z"/>
    <path class="cls-7" d="m21.04,156.28c-.03-.3-.08-1.36.45-2.19.44-.71,1.22-1.08,2.25-1.08h31.73c1.03,0,1.81.37,2.25,1.08.52.83.47,1.89.45,2.19v.12s-.5,15.15-.5,15.15c-4.46,5.01-10.9,7.85-17.77,7.85h-.69c-6.86,0-13.3-2.84-17.74-7.85l-.43-15.14v-.13Z"/>
    <path class="cls-8" d="m21.48,171.55c4.44,5.01,10.87,7.85,17.74,7.85h.69c6.87,0,13.32-2.84,17.77-7.85l.48-15.15v-.12c.03-.3.08-1.36-.44-2.19-.44-.71-1.22-1.08-2.25-1.08h-31.73c-1.03,0-1.81.37-2.25,1.08-.53.83-.48,1.89-.45,2.19v.13s.44,15.14.44,15.14Zm-1.67.82l-.72-.76-.04-1.14-.46-14.18c-.07-.73-.12-2.66.98-4.3.63-.93,1.86-2.06,4.1-2.06h15.09s16.8,0,16.8,0c2.24,0,3.46,1.13,4.09,2.06,1.09,1.64,1.04,3.57.97,4.3l-.51,14.18-.04,1.14-.72.76c-4.9,5.19-11.96,8.12-19.44,8.12h-.69c-7.47,0-14.53-2.93-19.41-8.12Z"/>
    <path class="cls-8" d="m54.44,212.03h-2.6c4.92,0,9.47-4.73,10.14-10.62l3.72-33.1-1.49,33.07c-.27,5.9-4.66,10.65-9.77,10.65Z"/>
    <path class="cls-3" d="m23.74,152.56h31.75c1.15,0,2.02.43,2.53,1.25.58.92.56,2.05.52,2.5v.13s-.51,15.29-.51,15.29l-.11.12c-4.52,5.08-11.07,7.96-18.01,7.96h-.69c-6.94,0-13.47-2.88-17.97-7.96l-.11-.13-.45-15.42c-.02-.23-.11-1.5.52-2.51.51-.81,1.38-1.25,2.53-1.25Zm33.6,18.81l.48-15.12c.02-.26.06-1.18-.38-1.88-.37-.6-1.05-.91-1.97-.91h-31.71c-.92,0-1.6.31-1.98.91-.48.76-.39,1.76-.38,1.87v.13s.43,14.99.43,14.99c4.37,4.86,10.68,7.61,17.39,7.61h.69c6.72,0,13.04-2.75,17.43-7.61Z"/>
  </g>
</svg>