<?xml version="1.0" encoding="UTF-8"?>
<svg id="Layer_1" data-name="Layer 1" xmlns="http://www.w3.org/2000/svg" viewBox="0 0 80.72 191.72">
  <defs>
    <style>
      .cls-1 {
        fill: #cfd0d2;
      }

      .cls-2 {
        fill: #fff;
      }

      .cls-3 {
        opacity: .29;
      }

      .cls-4 {
        fill: #aeafb2;
      }

      .cls-5 {
        fill: #d7d8da;
      }

      .cls-6 {
        fill: #d0d2d3;
      }

      .cls-7 {
        fill: #8ca03b;
      }

      .cls-8 {
        fill: #a5a7aa;
      }

      .cls-9 {
        fill: #221f1f;
      }

      .cls-10 {
        fill: #707376;
      }

      .cls-11 {
        fill: #d9d8d7;
      }
    </style>
  </defs>
  <path class="cls-6" d="m80.42,130.36c-.5-1.12-1.49-1.77-2.53-1.77-.42,0-.85.11-1.26.34l-2.07,1.17v-15.72c0-1.45-.24-2.83-.68-4.12h-2.58c-.02-1.22-.22-2.39-.6-3.47h1.42c2.83,0,5.15-2.62,5.15-5.84V33.78s0-20.39,0-20.39c0-3.2-2.32-5.82-5.15-5.83l-1.43-3.73H23.72l-1.45,3.78c-2.73.14-4.93,2.66-4.93,5.78v87.57c0,3.21,2.32,5.83,5.15,5.83h1.41c-.37,1.08-.58,2.26-.6,3.47h-2.58c-.44,1.29-.68,2.67-.68,4.12v15.93l-2.44-1.38c-.4-.23-.84-.34-1.26-.34-1.04,0-2.03.65-2.53,1.77-.7,1.58-.13,3.5,1.26,4.29l4.97,2.81v9.87l2.39,32.99c.45,6.27,5.19,11.4,10.54,11.4h28.66c5.34,0,10.08-5.13,10.54-11.4l2.38-32.99v-10.08l4.6-2.61c1.39-.79,1.96-2.71,1.26-4.29Z"/>
  <g>
    <g>
      <polygon class="cls-9" points="25.72 8.59 41.66 8.59 60.46 8.59 57.18 0 41.66 0 25.72 0 10.2 0 6.91 8.59 25.72 8.59"/>
      <path class="cls-9" d="m64.37,124.76c1.03,0,2.03.65,2.53,1.77.7,1.58.13,3.5-1.26,4.29l-9.41,5.33c-1.4.79-3.09.15-3.79-1.43-.7-1.58-.13-3.5,1.26-4.29l9.41-5.33c.41-.23.84-.34,1.26-.34Z"/>
      <g>
        <g>
          <path class="cls-9" d="m2.83,124.76c-1.04,0-2.03.65-2.53,1.77-.7,1.58-.13,3.5,1.26,4.29l9.41,5.33c1.4.79,3.09.15,3.79-1.43.7-1.58.13-3.5-1.26-4.29l-9.41-5.33c-.4-.23-.84-.34-1.26-.34Z"/>
          <path class="cls-2" d="m6.91,31.97V9.56c0-1.27.95-2.33,2.06-2.33h49.62c1.12,0,2.06,1.07,2.06,2.33v22.42l-3.48,2.28v28.77l3.48,2.27v31.83c0,1.27-.94,2.33-2.06,2.33h-3.44c-1.61-1.81-3.83-2.94-6.27-2.94h-30.21c-2.44,0-4.66,1.13-6.27,2.94h-3.44c-1.12,0-2.06-1.07-2.06-2.33v-31.82l3.48-2.28v-28.77l-3.48-2.28Z"/>
          <polygon class="cls-7" points="6.91 65.31 6.91 31.97 10.39 34.25 10.39 63.03 6.91 65.31"/>
          <path class="cls-8" d="m9.79,135.6v-29.01c0-1.27.21-2.49.6-3.62h46.8c.39,1.13.6,2.35.6,3.62v29.01s-2.09,29.04-2.09,29.04c-.4,5.52-4.57,10.04-9.28,10.04h-25.24c-4.71,0-8.89-4.52-9.28-10.04l-2.1-29.04Zm7.5-13.18c-1,1.29-1.01,2.82-.97,3.4v12.53l.62.64c4.25,4.4,10.58,6.92,17.35,6.92h.63c6.78,0,13.1-2.52,17.36-6.92l.62-.64v-12.53c.04-.58.02-2.11-.97-3.4-.57-.73-1.66-1.61-3.58-1.61h-27.47c-1.93,0-3.01.88-3.58,1.61Z"/>
          <path class="cls-8" d="m6.53,143.51v-32.95c0-1.44.24-2.83.68-4.12h53.14c.44,1.28.68,2.67.68,4.12v32.95s-2.38,32.98-2.38,32.98c-.46,6.27-5.19,11.4-10.54,11.4h-28.66c-5.34,0-10.09-5.13-10.54-11.4l-2.39-32.98Zm8.52-14.97c-1.13,1.47-1.15,3.21-1.1,3.87v14.23l.7.73c4.83,5,12.02,7.86,19.7,7.86h.71c7.7,0,14.88-2.86,19.71-7.86l.71-.73v-14.23c.04-.66.03-2.4-1.11-3.87-.65-.83-1.88-1.83-4.07-1.83h-31.2c-2.19,0-3.42,1-4.07,1.83Z"/>
          <path class="cls-9" d="m9.79,164.62v-29.02l2.1,29.04c.4,5.52,4.57,10.04,9.28,10.04h-2.49c-4.89,0-8.9-4.53-8.9-10.07Z"/>
          <path class="cls-11" d="m55.16,99.46H12.41c1.61-1.81,3.83-2.94,6.27-2.94h30.21c2.44,0,4.66,1.13,6.27,2.94Z"/>
          <path class="cls-9" d="m18.45,125.82c-.02-.24-.03-1.08.45-1.74.4-.56,1.09-.85,1.98-.85h27.47c.89,0,1.57.29,1.98.85.48.66.46,1.5.45,1.74v.1s0,12.39,0,12.39c-3.87,4.23-9.63,6.67-15.84,6.67h-.63c-6.2,0-11.97-2.43-15.84-6.67v-12.39s0-.1,0-.1Z"/>
          <path class="cls-4" d="m18.46,138.3c3.87,4.23,9.63,6.67,15.84,6.67h.63c6.21,0,11.98-2.43,15.84-6.67v-12.39s0-.1,0-.1c.01-.24.02-1.08-.45-1.74-.4-.56-1.09-.85-1.98-.85h-27.47c-.89,0-1.58.29-1.98.85-.48.66-.46,1.5-.45,1.74v.1s0,12.39,0,12.39Zm-1.51.69l-.62-.64v-12.53c-.04-.58-.03-2.11.97-3.4.57-.73,1.66-1.61,3.58-1.61h27.47c1.93,0,3.01.88,3.58,1.61,1,1.29,1.01,2.82.97,3.4v12.53l-.62.64c-4.25,4.4-10.58,6.92-17.36,6.92h-.63c-6.77,0-13.1-2.52-17.35-6.92Z"/>
          <path class="cls-9" d="m48.89,174.69h-2.49c4.71,0,8.88-4.52,9.28-10.04l2.1-29.04v29.02c0,5.54-4,10.07-8.89,10.07Z"/>
          <path class="cls-5" d="m8.98,102.97h49.62c2.83,0,5.15-2.62,5.15-5.84V29.95s0-20.39,0-20.39c0-3.21-2.32-5.83-5.15-5.83H8.98c-2.84,0-5.15,2.62-5.15,5.83v87.57c0,3.21,2.32,5.83,5.15,5.83Zm-2.06-37.66V9.56c0-1.27.95-2.33,2.06-2.33h49.62c1.12,0,2.06,1.07,2.06,2.33v87.57c0,1.27-.94,2.33-2.06,2.33h-3.44s-42.75,0-42.75,0h-3.44c-1.12,0-2.06-1.07-2.06-2.33v-31.82Z"/>
        </g>
        <path class="cls-3" d="m20.87,122.87h27.47c.99,0,1.76.34,2.22.98.53.73.54,1.63.52,1.99v.1s0,12.51,0,12.51l-.09.11c-3.92,4.3-9.78,6.76-16.06,6.77h-.63c-6.28,0-12.13-2.47-16.06-6.77l-.1-.1v-12.61c-.02-.19-.07-1.19.51-1.99.46-.64,1.23-.98,2.22-.98Zm29.58,15.28v-12.36c.02-.21.02-.94-.38-1.49-.34-.47-.94-.72-1.73-.72h-27.47c-.8,0-1.4.25-1.73.72-.43.6-.38,1.4-.38,1.49v.11s0,12.26,0,12.26c3.81,4.11,9.46,6.46,15.52,6.46h.63c6.07,0,11.72-2.35,15.53-6.46Z"/>
      </g>
    </g>
    <rect class="cls-1" x="13.17" y="11.81" width="42.14" height="1.39"/>
    <rect class="cls-1" x="13.17" y="18.52" width="42.14" height="1.39"/>
    <rect class="cls-1" x="13.17" y="25.24" width="42.14" height="1.39"/>
    <rect class="cls-1" x="13.17" y="31.96" width="42.14" height="1.39"/>
    <rect class="cls-1" x="13.17" y="38.67" width="42.14" height="1.39"/>
    <rect class="cls-1" x="13.17" y="45.39" width="42.14" height="1.39"/>
    <rect class="cls-1" x="13.17" y="52.11" width="42.14" height="1.39"/>
    <rect class="cls-1" x="13.17" y="58.83" width="42.14" height="1.39"/>
    <rect class="cls-1" x="13.17" y="65.55" width="42.14" height="1.39"/>
    <rect class="cls-1" x="13.17" y="72.27" width="42.14" height="1.39"/>
    <rect class="cls-1" x="13.17" y="78.98" width="42.14" height="1.39"/>
    <rect class="cls-1" x="13.17" y="85.7" width="42.14" height="1.39"/>
    <rect class="cls-1" x="13.17" y="92.42" width="42.14" height="1.39"/>
    <polygon class="cls-9" points="60.66 31.98 57.18 34.25 57.18 63.03 60.66 65.3 63.75 67.33 63.75 29.95 60.66 31.98"/>
    <polygon class="cls-9" points="6.91 31.97 10.39 34.25 10.39 63.03 6.91 65.31 3.82 67.33 3.82 29.95 6.91 31.97"/>
    <path class="cls-8" d="m55.16,99.46h3.44c1.12,0,2.06-1.07,2.06-2.33v-31.83l-3.48-2.27v-28.77l3.48-2.28V9.56c0-1.27-.94-2.33-2.06-2.33h-7.83s0,89.52,0,89.52c1.69.42,3.2,1.38,4.39,2.71Z"/>
    <path class="cls-8" d="m12.36,99.46h-3.44c-1.12,0-2.06-1.07-2.06-2.33v-31.83l3.48-2.27v-28.77l-3.48-2.28V9.56c0-1.27.94-2.33,2.06-2.33h7.83v89.52c-1.69.42-3.2,1.38-4.39,2.71Z"/>
    <path class="cls-10" d="m57.18,102.97H10.39c-.37,1.09-.58,2.26-.6,3.47h47.99c-.02-1.22-.22-2.39-.59-3.47Z"/>
  </g>
</svg>