<?xml version="1.0" encoding="UTF-8"?>
<svg id="Layer_1" data-name="Layer 1" xmlns="http://www.w3.org/2000/svg" viewBox="0 0 148.22 196.02">
  <defs>
    <style>
      .cls-1 {
        fill: #4a4a4c;
      }

      .cls-2 {
        fill: #d0d2d3;
      }

      .cls-3 {
        fill: #98722b;
      }

      .cls-4 {
        fill: #b09731;
      }

      .cls-5 {
        fill: #7b7cba;
      }

      .cls-6 {
        fill: #231f20;
      }

      .cls-7 {
        fill: #33439a;
      }
    </style>
  </defs>
  <path class="cls-2" d="m147.95,151.63c-1.35-1.41-7.28-.53-13.23,1.95l.31-12.41c2.74-1.08,4.67-5.87,4.41-11.86-.21-4.82-1.78-8.87-3.84-10.81l1.21-48.17c.15.02.29.17.45.17,3.14,0,5.45-4.97,5.16-11.04-.25-5.14-2.31-9.22-4.83-10.35l.08-3.41c.03-1.13-.03-2.25-.16-3.35v-.13c.02-.56-.17-1.08-.19-1.63l.11-4.23c-3.42-15.7-22.61-27.91-45.96-27.91h-20.51c-23.35,0-42.55,12.21-45.98,27.91l.11,4.27c-.02.54-.2,1.05-.19,1.59v.12s0,0,0,0l.08,3.84-.08-3.84c-.13,1.1-.19,2.22-.16,3.35l.07,3.18c-2.79.68-5.17,5.04-5.44,10.58-.3,6.07,2,11.04,5.15,11.04.37,0,.7-.28,1.06-.41l1.17,47.93c-2.37,1.64-4.24,5.99-4.48,11.29-.29,6.47,1.96,11.67,5.05,12.14l.32,12.89c-.51-.24-.93-.5-1.49-.73-5.97-2.5-11.94-3.38-13.29-1.97-1.35,1.4,2.37,4.52,8.28,6.98,2.34.97,4.6,1.61,6.66,2.05l.16,6.68c.39,15.87,20.13,28.69,43.87,28.69h18.71c23.74,0,43.48-12.82,43.89-28.69l.18-7.03c1.64-.43,3.35-.97,5.11-1.7,5.91-2.46,9.63-5.58,8.29-6.98Zm-10.62-102.63v-.12s.03.09.04.13c-.01,0-.03-.01-.04-.02Z"/>
  <g>
    <path class="cls-6" d="m6.8,51c-.3,6.07,2,11.04,5.15,11.04s5.9-4.97,6.14-11.04c.24-6.01-2.06-10.85-5.16-10.85s-5.84,4.83-6.14,10.85Z"/>
    <path class="cls-6" d="m9.69,120.85c-.3,6.77,2.14,12.31,5.47,12.31s6.21-5.54,6.46-12.31c.24-6.7-2.21-12.08-5.47-12.08s-6.15,5.38-6.45,12.08Z"/>
    <path class="cls-6" d="m129.87,51c.29,6.07-2.02,11.04-5.16,11.04s-5.89-4.97-6.13-11.04c-.24-6.01,2.08-10.85,5.17-10.85s5.83,4.83,6.12,10.85Z"/>
    <path class="cls-6" d="m126.9,120.85c.3,6.77-2.15,12.31-5.48,12.31s-6.21-5.54-6.44-12.31c-.24-6.7,2.22-12.08,5.48-12.08s6.14,5.38,6.43,12.08Z"/>
    <path class="cls-5" d="m124.87,37.73l-3.03,121.16c-.4,15.87-20.15,28.69-43.89,28.69h-18.71c-23.74,0-43.48-12.82-43.87-28.69l-2.95-121.16c3.43-15.7,22.63-27.91,45.98-27.91h20.51c23.35,0,42.54,12.21,45.96,27.91Z"/>
    <g>
      <path class="cls-5" d="m58.4,9.82h20.51c22.94,0,41.85,11.8,45.74,27.11l.23-9.03C121.45,12.21,102.26,0,78.91,0h-20.51C35.05,0,15.85,12.21,12.42,27.91l.22,9.05c3.89-15.32,22.8-27.13,45.76-27.13Z"/>
      <g>
        <g>
          <path class="cls-7" d="m78.84.74c25.84,0,46.58,14.97,46.12,33.03l-.09,3.96c-3.42-15.7-22.61-27.91-45.96-27.91h-20.51c-23.35,0-42.55,12.21-45.98,27.91l-.09-3.96C11.89,15.71,32.64.74,58.48.74h20.35Z"/>
          <path class="cls-4" d="m111.15,38.33c-.04.06-.08.11-.15.16h0c.07-.06.11-.12.15-.16Z"/>
          <path class="cls-6" d="m111,38.48h0c-13.78,14.69-69.26,14.69-83.05.01h0c1.29-12.11,19.54-21.59,41.53-21.59s40.23,9.48,41.52,21.57Z"/>
          <path class="cls-4" d="m27.95,38.48h0c-.06-.05-.11-.09-.15-.15.04.05.09.11.15.15Z"/>
        </g>
        <g>
          <path class="cls-3" d="m12.34,33.89c-.13,1.1-.19,2.22-.16,3.35l.08,3.99c.06-.27.16-.53.23-.79l-.07-2.7-.08-3.84Z"/>
          <path class="cls-3" d="m124.87,37.73l-.07,2.7c.07.27.17.53.23.79l.09-3.99c.03-1.13-.03-2.25-.16-3.35l-.09,3.84Z"/>
          <path class="cls-5" d="m58.45,4.03h20.41c24.32,0,44.11,13.24,46.09,29.86v-.12C125.41,15.71,104.67.74,78.84.74h-20.35C32.64.74,11.89,15.71,12.34,33.77v.12C14.34,17.27,34.14,4.03,58.45,4.03Z"/>
        </g>
      </g>
      <path class="cls-6" d="m111,38.49c.07-.06.11-.11.15-.16l3.23,95.14c-.05-.05-.1-.11-.15-.16v-.02c-15.14-17.07-16.57-79.69-3.23-94.8Z"/>
      <path class="cls-6" d="m27.95,38.49c13.35,15.12,11.96,77.74-3.16,94.8-.01-.29,0-.59,0-.88l-.09-.85,3.1-93.24c.04.06.09.11.15.16Z"/>
      <path class="cls-6" d="m114.23,133.3v.02c-.31,14.39-20.02,26.13-44.7,26.13s-44.42-11.74-44.74-26.13c15.48-16.66,73.91-16.66,89.44-.02Z"/>
      <path class="cls-1" d="m28.24,143.15c6.74,9.55,22.61,16.3,41.29,16.3s34.54-6.75,41.26-16.31c-18.29-12.59-64.29-12.6-82.55,0Z"/>
    </g>
    <path class="cls-7" d="m121.84,149.06c-.4,15.87-20.15,28.69-43.89,28.69h-18.71c-23.74,0-43.48-12.82-43.87-28.69v-.54h-.25l.25,10.36c.39,15.87,20.13,28.69,43.87,28.69h18.71c23.74,0,43.48-12.82,43.89-28.69l.26-10.36h-.25v.54Z"/>
    <path class="cls-7" d="m127.12,150.16c-5.88,2.44-11.77,3.32-13.18,1.97-1.42-1.37,2.22-4.49,8.17-6.98,5.98-2.5,11.94-3.38,13.3-1.97,1.34,1.4-2.38,4.52-8.29,6.98Z"/>
    <path class="cls-7" d="m8.56,150.16c5.88,2.44,11.76,3.32,13.18,1.97,1.42-1.37-2.22-4.49-8.16-6.98-5.97-2.5-11.94-3.38-13.3-1.97-1.35,1.4,2.38,4.52,8.28,6.98Z"/>
  </g>
</svg>