<?xml version="1.0" encoding="UTF-8"?>
<svg id="Layer_1" data-name="Layer 1" xmlns="http://www.w3.org/2000/svg" viewBox="0 0 127.82 199.02">
  <defs>
    <style>
      .cls-1 {
        fill: #fff;
      }

      .cls-2 {
        fill: #b17e2b;
      }

      .cls-3 {
        fill: #a8abad;
      }

      .cls-4 {
        fill: #995d31;
      }

      .cls-5 {
        fill: #d0d2d3;
      }

      .cls-6 {
        fill: #ec1c24;
      }

      .cls-7 {
        fill: #e3e4e5;
      }

      .cls-8 {
        fill: #a23924;
      }

      .cls-9 {
        fill: #6e3a24;
      }

      .cls-10 {
        fill: #bf422a;
      }

      .cls-11 {
        fill: #231f20;
      }
    </style>
  </defs>
  <path class="cls-5" d="m121.82,87.16c2.8,0,5.45-5.68,5.93-12.79.41-6.18-1-11.18-3.2-12.58l.48-4.26c.16-1.43.25-2.85.26-4.27l.02-.16c1.38-12.08-2.73-23.53-10.49-31.96-7.77-8.43-19.19-13.85-32.45-13.85h-20.88c-26.51,0-45.74,21.66-43.01,45.81l.02.16c0,1.41.09,2.83.25,4.26l.44,3.97c-2.52.84-4.18,6.2-3.75,12.86.47,7.11,3.12,12.79,5.92,12.79.33,0,.6-.32.9-.47l5.55,49.24c-1.77,1.52-2.88,5.52-2.6,10.3.34,5.7,2.52,10.18,4.96,10.58l1.21,10.72c-.4-.2-.74-.4-1.18-.59-4.72-2.04-9.34-2.77-10.24-1.61-.89,1.15,2.21,3.68,6.85,5.65,1.83.77,3.56,1.29,5.13,1.63l.59,5.24c1.35,11.97,16.02,21.16,32.68,21.16h13.13c16.66,0,31.34-9.2,32.71-21.16l.63-5.52c1.26-.34,2.58-.77,3.95-1.36,4.64-1.97,7.74-4.51,6.85-5.65-.89-1.16-5.48-.43-10.19,1.59l1.18-10.35c2.21-.93,4.12-5.07,4.43-10.34.26-4.34-.64-8.05-2.13-9.85l5.65-49.42c.13.03.24.2.38.2Zm2.55-25.47s-.02-.01-.04-.02l.4-3.53-.39,3.38c0,.06.01.11.02.16Zm-104.97-.3l-.37-3.25.37,3.25h0Z"/>
  <g>
    <g>
      <path class="cls-11" d="m.07,67.07c.47,7.11,3.12,12.79,5.92,12.79s4.77-5.68,4.39-12.79c-.39-7.23-3.05-13.19-5.94-13.19S-.4,59.84.07,67.07Z"/>
      <path class="cls-11" d="m9.83,138.94c.36,5.96,2.72,10.73,5.29,10.73s4.42-4.77,4.14-10.73c-.29-6.05-2.66-11.03-5.3-11.03s-4.49,4.98-4.13,11.03Z"/>
      <path class="cls-11" d="m112.38,67.07c-.48,7.11-3.13,12.79-5.93,12.79s-4.76-5.68-4.37-12.79c.39-7.23,3.06-13.19,5.95-13.19s4.83,5.96,4.35,13.19Z"/>
      <path class="cls-11" d="m102.55,138.94c-.36,5.96-2.73,10.73-5.3,10.73s-4.42-4.77-4.13-10.73c.29-6.05,2.67-11.03,5.31-11.03s4.48,4.98,4.12,11.03Z"/>
      <path class="cls-6" d="m109.37,50.85l-13.68,119.71c-1.37,11.97-16.05,21.16-32.71,21.16h-13.13c-16.66,0-31.33-9.2-32.68-21.16L3.66,50.85C5.07,30.35,22.83,13.33,46.26,13.33h20.58c23.43,0,41.16,17.01,42.53,37.52Z"/>
      <g>
        <g>
          <path class="cls-8" d="m67,0c26.51,0,45.7,21.66,42.94,45.82l-.57,5.04c-1.37-20.5-19.11-37.52-42.53-37.52h-20.58C22.83,13.33,5.07,30.35,3.66,50.85l-.56-5.04C.38,21.66,19.6,0,46.12,0h20.88Z"/>
          <path class="cls-2" d="m96.42,51.6c-.05.08-.09.13-.16.21v-.02c.07-.06.11-.13.16-.19Z"/>
          <path class="cls-11" d="m96.26,51.79v.02c-13.8,17.82-64.2,17.82-77.94,0v-.02c.17-15.61,17.33-28.47,39.03-28.47s38.79,12.86,38.91,28.47Z"/>
          <path class="cls-2" d="m18.32,51.79v.02c-.07-.07-.11-.13-.16-.21.05.06.09.13.16.19Z"/>
        </g>
        <g>
          <path class="cls-4" d="m3.12,45.97c0,1.41.09,2.83.25,4.27l.55,4.98c.02-.33.09-.65.12-.98l-.38-3.39-.54-4.88Z"/>
          <path class="cls-4" d="m109.37,50.85l-.39,3.39c.03.33.09.65.12.98l.56-4.98c.16-1.43.25-2.86.26-4.27l-.55,4.88Z"/>
          <path class="cls-6" d="m46.17,4.9h20.77c24.75,0,43.14,18.93,42.98,41.07l.02-.15C112.7,21.66,93.51,0,67,0h-20.88C19.6,0,.38,21.66,3.11,45.82l.02.15C3,23.83,21.42,4.9,46.17,4.9Z"/>
        </g>
      </g>
      <path class="cls-10" d="m100.27,163.69c-4.58,1.94-9.03,2.64-10,1.57-.98-1.09,1.95-3.59,6.61-5.61,4.72-2.04,9.34-2.77,10.24-1.61.89,1.15-2.21,3.68-6.85,5.66Z"/>
      <path class="cls-10" d="m11.44,163.69c4.58,1.94,9.03,2.64,9.99,1.57.98-1.09-1.95-3.59-6.61-5.61-4.72-2.04-9.34-2.77-10.24-1.61-.89,1.15,2.21,3.68,6.85,5.66Z"/>
    </g>
    <path class="cls-9" d="m73.91,73.37h-37.14c-13.37,0-21.5,14.22-18.6,29.45l6.24,57.5h64.21l3.88-57.5c2.9-15.24-5.22-29.45-18.6-29.45Z"/>
    <g>
      <rect class="cls-7" x="60.55" y="93.37" width="20.74" height="22.69" rx=".35" ry=".35" transform="translate(141.84 209.43) rotate(180)"/>
      <path class="cls-3" d="m81.29,107.36h0c2.62,0,4.75,2.02,4.75,4.51v9.89c0,2.49-2.13,4.51-4.75,4.51h0c-2.63,0-4.75-2.02-4.75-4.51v-9.89c0-2.49,2.13-4.51,4.75-4.51Z"/>
      <path class="cls-3" d="m61.99,107.36h0c2.62,0,4.75,2.02,4.75,4.51v9.89c0,2.49-2.13,4.51-4.75,4.51h0c-2.62,0-4.75-2.02-4.75-4.51v-9.89c0-2.49,2.13-4.51,4.75-4.51Z"/>
      <rect class="cls-1" x="61.99" y="105.99" width="18.14" height="22.69" rx=".35" ry=".35" transform="translate(142.13 234.67) rotate(180)"/>
      <path class="cls-6" d="m82.97,109.81c-1.43,0-2.59-1.1-2.59-2.46v-8.38c0-2.56-2.2-4.65-4.9-4.65h-8.83c-2.7,0-4.9,2.09-4.9,4.65v8.38c0,1.36-1.16,2.46-2.59,2.46s-2.59-1.1-2.59-2.46v-8.38c0-5.27,4.52-9.56,10.07-9.56h8.83c5.55,0,10.07,4.29,10.07,9.56v8.38c0,1.36-1.16,2.46-2.59,2.46Z"/>
    </g>
    <g>
      <rect class="cls-7" x="24.93" y="93.37" width="20.74" height="22.69" rx=".35" ry=".35" transform="translate(70.6 209.43) rotate(180)"/>
      <path class="cls-3" d="m45.67,107.36h0c2.62,0,4.75,2.02,4.75,4.51v9.89c0,2.49-2.13,4.51-4.75,4.51h0c-2.62,0-4.75-2.02-4.75-4.51v-9.89c0-2.49,2.13-4.51,4.75-4.51Z"/>
      <path class="cls-3" d="m26.38,107.36h0c2.62,0,4.75,2.02,4.75,4.51v9.89c0,2.49-2.13,4.51-4.75,4.51h0c-2.62,0-4.75-2.02-4.75-4.51v-9.89c0-2.49,2.13-4.51,4.75-4.51Z"/>
      <rect class="cls-1" x="26.38" y="105.99" width="18.14" height="22.69" rx=".35" ry=".35" transform="translate(70.89 234.67) rotate(180)"/>
      <path class="cls-6" d="m47.35,109.81c-1.43,0-2.59-1.1-2.59-2.46v-8.38c0-2.56-2.2-4.65-4.91-4.65h-8.82c-2.71,0-4.91,2.09-4.91,4.65v8.38c0,1.36-1.16,2.46-2.59,2.46s-2.59-1.1-2.59-2.46v-8.38c0-5.27,4.52-9.56,10.09-9.56h8.82c5.56,0,10.09,4.29,10.09,9.56v8.38c0,1.36-1.16,2.46-2.59,2.46Z"/>
    </g>
    <g>
      <path class="cls-11" d="m29.71,125.49l-5.3,34.33s11.53,11.18,32.11,12.37c20.57-1.2,32.11-12.37,32.11-12.37l-5.3-34.33H29.71Z"/>
      <path class="cls-6" d="m56.67,174.41c-21.52-1.23-33.43-12.55-33.93-13.03l-.81-.78,5.76-37.32h57.67l5.75,37.32-.81.78c-.49.48-12.39,11.8-33.62,13.03Zm-29.77-15.42c2.91,2.39,13.4,10.04,29.77,10.99,16.12-.95,26.57-8.6,29.46-10.99l-4.82-31.28H31.72l-4.82,31.28Z"/>
    </g>
  </g>
</svg>